<svg width="19.131698" height="19.131699">
<polygon type="contour" points="17.376714,14.694944 17.376688,14.883804 17.437157,14.884069 17.437915,14.884081 17.47203,14.884133 17.47203,14.98681 17.47149,15.216791 17.439043,15.216676 17.404582,15.216825 17.379143,15.216641 17.36843,15.216839 17.281473,15.217197 17.28131,15.280346 17.28095,15.319316 17.28095,16.976966 17.280971,16.979863 17.281602,17.138832 17.369906,17.138404 17.380504,17.138389 17.405377,17.138366 17.439043,17.138414 17.440623,17.13828 17.47149,17.13829 17.471422,17.206599 17.471958,17.4466 17.471958,17.47196 17.361855,17.472076 17.361204,17.471964 17.138242,17.471446 17.138412,17.439045 17.138412,17.40648 17.138364,17.40538 17.138388,17.380503 17.138401,17.369908 17.138828,17.281604 16.979861,17.280973 16.976964,17.280952 15.319313,17.280952 15.280344,17.281314 15.217196,17.281477 15.216836,17.368433 15.21664,17.379145 15.216823,17.404584 15.216674,17.406477 15.216674,17.439046 15.216778,17.440625 15.21679,17.471491 14.986809,17.472032 14.884132,17.472032 14.884068,17.437159 14.883803,17.37669 14.701444,17.376808 14.684791,17.376396 14.681432,17.322089 14.697748,17.244654 14.701175,16.995013 14.701209,16.976966 14.701209,15.319317 14.699609,15.280345 14.698554,15.04207 14.690147,14.690148 15.024933,14.696862 15.042067,14.698555 15.280343,14.69961 15.319314,14.701211 16.976964,14.701211 16.993911,14.699902 17.241716,14.687377 17.376708,14.681421" style="fill: white" /><polygon type="contour" points="17.471958,1.659743 17.471958,1.685102 17.471422,1.925103 17.47149,1.993414 17.439044,1.99329 17.406478,1.99329 17.405378,1.993337 17.380504,1.993315 17.369906,1.9933 17.281602,1.992871 17.280972,2.151839 17.28095,2.154738 17.28095,3.812386 17.28131,3.851357 17.281473,3.914506 17.36843,3.914865 17.379143,3.915062 17.404581,3.914879 17.406478,3.915029 17.439044,3.915029 17.440623,3.914923 17.47149,3.914913 17.47203,4.144893 17.47203,4.24757 17.437157,4.247635 17.376686,4.247899 17.376982,4.430223 17.376925,4.447016 17.321958,4.452588 17.244497,4.433982 16.99489,4.430529 16.976963,4.430492 15.319313,4.430492 15.280344,4.432091 15.042068,4.433147 14.690147,4.441554 14.698498,4.096571 14.698554,4.089631 14.699609,3.851357 14.701209,3.812385 14.701209,2.154737 14.701175,2.136689 14.697749,1.887049 14.681432,1.809614 14.684791,1.755308 14.701444,1.754894 14.883803,1.75501 14.884067,1.694544 14.884082,1.693784 14.884132,1.659671 14.98681,1.659671 15.21679,1.660212 15.216674,1.692657 15.216823,1.727121 15.21664,1.752557 15.216836,1.763271 15.217196,1.850225 15.280344,1.85039 15.319313,1.850752 16.976963,1.850752 16.979862,1.850728 17.138828,1.8501 17.138402,1.761796 17.138387,1.751198 17.138364,1.726325 17.138411,1.692657 17.138278,1.691078 17.138242,1.660258 17.361204,1.65974 17.361856,1.659628" style="fill: white" /><polygon type="contour" points="1.770496,1.65974 1.993457,1.660258 1.993288,1.692656 1.993288,1.725226 1.993336,1.726325 1.993314,1.751198 1.993299,1.761797 1.992867,1.8501 2.151837,1.850729 2.154735,1.850752 3.812384,1.850752 3.851354,1.85039 3.914504,1.850225 3.914864,1.76327 3.915061,1.752557 3.914878,1.72712 3.915027,1.725225 3.915027,1.692657 3.914921,1.691078 3.914911,1.660212 4.14489,1.659671 4.247568,1.659671 4.247633,1.694544 4.247897,1.75501 4.436756,1.754987 4.450281,1.754992 4.444323,1.889982 4.431798,2.137788 4.43049,2.154737 4.43049,3.812386 4.432091,3.851356 4.433145,4.089631 4.441552,4.441554 4.106764,4.43484 4.089631,4.433147 3.851355,4.432092 3.812383,4.430492 2.154736,4.430492 2.136808,4.430529 1.887201,4.433982 1.809745,4.452588 1.754774,4.447016 1.754717,4.430223 1.755008,4.247899 1.694542,4.247635 1.693783,4.247621 1.659669,4.24757 1.659669,4.144892 1.660211,3.914913 1.692656,3.915029 1.727119,3.91488 1.752555,3.915062 1.76327,3.914866 1.850224,3.914505 1.850389,3.851356 1.850751,3.812386 1.850751,2.154737 1.850728,2.151839 1.850098,1.992871 1.761795,1.993299 1.751196,1.993315 1.726323,1.993337 1.692655,1.99329 1.691077,1.993424 1.660211,1.993414 1.660277,1.925104 1.659742,1.685102 1.659742,1.659743 1.769842,1.659628" style="fill: white" /><polygon type="contour" points="1.88998,14.687377 2.137786,14.699902 2.154735,14.701211 3.812384,14.701211 3.851354,14.69961 4.08963,14.698554 4.441552,14.690148 4.433201,15.03513 4.433144,15.04207 4.432091,15.280345 4.43049,15.319316 4.43049,16.976966 4.431799,16.993913 4.444323,17.24172 4.450281,17.376711 4.436755,17.376715 4.247897,17.37669 4.247633,17.437159 4.247619,17.437917 4.247568,17.472032 4.14489,17.472034 3.914911,17.471492 3.915026,17.439045 3.914878,17.404581 3.915061,17.379146 3.914864,17.368433 3.914504,17.281477 3.851355,17.281314 3.812384,17.280952 2.154736,17.280952 2.151836,17.280974 1.992867,17.281604 1.993299,17.369907 1.993313,17.380503 1.993336,17.40538 1.993288,17.439045 1.993422,17.440625 1.993457,17.471446 1.770496,17.471964 1.769842,17.472076 1.659742,17.47196 1.659742,17.4466 1.660277,17.206599 1.660211,17.13829 1.692655,17.138414 1.725223,17.138414 1.726323,17.138366 1.751196,17.138389 1.761795,17.138404 1.850098,17.138832 1.850728,16.979863 1.850751,16.976965 1.850751,15.319316 1.850389,15.280347 1.850224,15.217198 1.763269,15.216839 1.752556,15.216642 1.727118,15.216825 1.725223,15.216676 1.692655,15.216676 1.691077,15.21678 1.66021,15.216791 1.659669,14.986811 1.659669,14.884133 1.694542,14.884068 1.755008,14.883804 1.754985,14.694944 1.754991,14.68142" style="fill: white" />
</svg>
