<svg width="19.131698" height="19.131699">
<polygon type="contour" points="18.406052,15.702649 18.406234,15.828314 18.406269,15.913555 18.495564,15.913555 18.497545,15.913562 18.497631,15.913565 18.501468,15.913571 18.501468,15.925117 18.500864,16.181819 18.500864,18.232009 18.50146,18.49861 18.50146,18.501462 18.489078,18.501473 18.489004,18.501461 18.232008,18.500866 16.181817,18.500866 15.925117,18.50147 15.91357,18.50147 15.913563,18.497548 15.913555,18.495566 15.913555,18.406216 15.834596,18.40616 15.337462,18.40616 15.338571,18.345584 15.348976,18.27727 15.351525,18.079763 15.351525,16.134363 15.350172,15.877794 15.351526,15.732639 15.352079,15.352081 15.732637,15.351528 15.87779,15.350175 16.134362,15.351526 18.079759,15.351526 18.277266,15.348977 18.406048,15.347174" style="fill: white" /><polygon type="contour" points="18.50146,0.630242 18.50146,0.633093 18.500864,0.899694 18.500864,2.949885 18.501468,3.206586 18.501468,3.218133 18.497545,3.21814 18.495564,3.218149 18.406323,3.218149 18.406156,3.297107 18.406156,3.79424 18.277265,3.782725 18.07976,3.780179 16.134362,3.780179 15.87779,3.781529 15.732637,3.780174 15.352079,3.77962 15.351526,3.399064 15.350172,3.253909 15.351525,2.99734 15.351525,1.05194 15.348976,0.854433 15.338572,0.786119 15.337462,0.725542 15.834596,0.725542 15.913555,0.725485 15.913555,0.636137 15.913562,0.634156 15.913565,0.634071 15.91357,0.630234 15.925117,0.630234 16.181817,0.630839 18.232008,0.630839 18.489004,0.630242 18.489078,0.630229" style="fill: white" /><polygon type="contour" points="0.642695,0.630242 0.899691,0.630839 2.949883,0.630839 3.206583,0.630234 3.218131,0.630234 3.218138,0.634156 3.218147,0.636137 3.218147,0.72543 3.303388,0.725469 3.429053,0.72565 3.784529,0.72565 3.782725,0.854433 3.780177,1.05194 3.780177,2.99734 3.781528,3.25391 3.780172,3.399063 3.779619,3.77962 3.399061,3.780174 3.253908,3.78153 2.997338,3.780179 1.051939,3.780179 0.854431,3.782726 0.72554,3.79424 0.72554,3.297107 0.725374,3.218149 0.636137,3.218149 0.634154,3.21814 0.634069,3.218139 0.630233,3.218133 0.630233,3.206586 0.630837,2.949885 0.630837,0.899694 0.630241,0.633093 0.630241,0.630242 0.642621,0.630229" style="fill: white" /><polygon type="contour" points="0.854431,15.348977 1.051939,15.351526 2.997338,15.351526 3.253907,15.350175 3.399061,15.351528 3.779619,15.352081 3.780173,15.73264 3.781528,15.877793 3.780177,16.134363 3.780177,18.079763 3.782725,18.27727 3.784529,18.406052 3.429053,18.406052 3.303388,18.406233 3.218147,18.406272 3.218147,18.495566 3.218137,18.497548 3.218137,18.497634 3.218131,18.50147 3.206583,18.50147 2.949883,18.500866 0.899691,18.500866 0.642695,18.501461 0.642621,18.501474 0.630241,18.501462 0.630241,18.49861 0.630837,18.232009 0.630837,16.181819 0.630233,15.925117 0.630233,15.91357 0.634154,15.913562 0.636136,15.913555 0.725429,15.913555 0.725467,15.828313 0.725648,15.702649 0.725648,15.347173" style="fill: white" />
</svg>
