<svg width="19.131698" height="19.131699">
<polygon type="contour" points="13.409668,13.036041 13.409784,13.204337 13.409945,13.28453 13.475668,13.284829 13.586181,13.285399 13.596028,13.583402 13.596314,13.596315 13.415489,13.590172 13.284548,13.585666 13.284548,13.409946 13.204335,13.409786 13.036039,13.40967 13.021923,13.409635 13.021929,13.328768 13.02193,13.204338 13.021925,13.039363 13.021925,13.021926 13.204335,13.02193 13.328765,13.02193 13.40206,13.021925 13.409632,13.021925" style="fill: white" /><polygon type="contour" points="11.877223,13.021925 11.890378,13.021925 11.890058,13.204337 11.890058,13.328767 11.890378,13.402063 11.890378,13.409635 11.879199,13.409623 11.65907,13.40963 11.65907,13.585402 11.649412,13.585359 11.371069,13.586915 11.368228,13.397373 11.366647,13.204337 11.367012,13.039492 11.366958,13.021925 11.665839,13.021813" style="fill: white" /><polygon type="contour" points="11.89026,11.649409 11.89026,11.677462 11.890378,11.877225 11.890378,11.890381 11.6844,11.890263 11.649408,11.890263 11.366958,11.890381 11.367025,11.684401 11.367148,11.656694 11.367024,11.649307 11.368404,11.567941 11.37196,11.505767 11.376044,11.376045 11.505765,11.371961 11.56794,11.368406 11.649306,11.367026 11.651123,11.367055 11.877063,11.367002 11.890377,11.36696" style="fill: white" /><polygon type="contour" points="13.284548,11.366688 13.290021,11.367014 13.297548,11.366723 13.39737,11.368229 13.569878,11.371201 13.586912,11.371071 13.585356,11.649414 13.585399,11.659071 13.409627,11.659071 13.409621,11.879202 13.409633,11.890381 13.328765,11.89006 13.204335,11.89006 13.03936,11.890381 13.021923,11.890381 13.021819,11.684401 13.021819,11.649409 13.021923,11.36696 13.03949,11.367014 13.204335,11.366649" style="fill: white" /><polygon type="contour" points="13.586308,5.837353 13.586182,5.846304 13.409945,5.846982 13.409784,5.927365 13.409668,6.095662 13.409632,6.109779 13.328765,6.109774 13.204335,6.109774 13.03936,6.109779 13.021922,6.109779 13.021928,5.927366 13.02193,5.802936 13.021925,5.729642 13.021925,5.722069 13.036041,5.722034 13.204335,5.721917 13.284528,5.721756 13.284528,5.575548 13.284548,5.560426 13.284548,5.546038 13.415489,5.541531 13.596314,5.535388" style="fill: white" /><polygon type="contour" points="13.409621,7.252502 13.409627,7.472631 13.585399,7.472631 13.585356,7.482288 13.586912,7.760634 13.397369,7.763473 13.204335,7.765054 13.03949,7.76469 13.021923,7.764744 13.021812,7.465861 13.021923,7.254477 13.021923,7.241324 13.204335,7.241645 13.328765,7.241643 13.40206,7.241324 13.409633,7.241324" style="fill: white" /><polygon type="contour" points="11.89026,7.4473 11.89026,7.482292 11.890378,7.764744 11.6844,7.764674 11.656505,7.764553 11.649306,7.764675 11.56794,7.763296 11.505765,7.75974 11.376044,7.755658 11.37196,7.625935 11.368404,7.563761 11.367037,7.483216 11.367024,7.482394 11.367053,7.480577 11.367,7.254637 11.366958,7.241324 11.649408,7.241441 11.67746,7.241441 11.877222,7.241324 11.890378,7.241324" style="fill: white" /><polygon type="contour" points="11.649413,5.546346 11.65907,5.546302 11.65907,5.722074 11.879198,5.722082 11.890378,5.722069 11.890058,5.802937 11.890058,5.927365 11.890378,6.092341 11.890378,6.109779 11.684399,6.109883 11.649407,6.109883 11.366958,6.109779 11.366647,5.927365 11.368228,5.73433 11.3712,5.561822 11.371069,5.544789" style="fill: white" /><polygon type="contour" points="5.71621,5.541531 5.847152,5.546038 5.847152,5.721755 5.927364,5.721917 6.095661,5.722034 6.109778,5.722069 6.109772,5.802936 6.109772,5.927365 6.109778,6.092341 6.109778,6.109779 5.927365,6.109774 5.802934,6.109774 5.72964,6.10978 5.722067,6.10978 5.722032,6.095663 5.721915,5.927366 5.721753,5.847172 5.656029,5.846873 5.545516,5.846304 5.53567,5.5483 5.535385,5.535388" style="fill: white" /><polygon type="contour" points="7.760499,5.561822 7.76347,5.73433 7.764968,5.834058 7.764687,5.841679 7.765011,5.847152 7.765051,5.927366 7.764688,6.092211 7.764742,6.109779 7.465859,6.109889 7.454237,6.109883 7.254476,6.109779 7.241323,6.109779 7.241642,5.927365 7.241642,5.802937 7.241323,5.729641 7.241323,5.722069 7.2525,5.722082 7.472629,5.722074 7.472629,5.546302 7.482286,5.546346 7.76063,5.544788" style="fill: white" /><polygon type="contour" points="7.764673,7.4473 7.764552,7.475195 7.764674,7.482393 7.764468,7.494486 7.763294,7.563761 7.759737,7.625936 7.755655,7.755658 7.625933,7.75974 7.563758,7.763296 7.484182,7.764644 7.482807,7.764667 7.482391,7.764675 7.480539,7.764645 7.254637,7.764701 7.241323,7.764744 7.24144,7.482292 7.24144,7.45424 7.241323,7.254477 7.241323,7.241324 7.447299,7.241441 7.48229,7.241441 7.764742,7.241324" style="fill: white" /><polygon type="contour" points="6.10988,7.4473 6.10988,7.482292 6.109777,7.764744 5.927365,7.765054 5.734329,7.763473 5.561818,7.760502 5.544786,7.760633 5.546344,7.482287 5.5463,7.472631 5.722072,7.472631 5.72208,7.252501 5.722067,7.241324 5.802935,7.241644 5.927364,7.241644 6.09234,7.241324 6.109778,7.241324" style="fill: white" /><polygon type="contour" points="6.09221,11.367014 6.109777,11.36696 6.109885,11.66584 6.109778,11.877226 6.109778,11.890381 5.927364,11.89006 5.802934,11.89006 5.72964,11.890381 5.722067,11.890381 5.72208,11.879201 5.722072,11.659071 5.5463,11.659071 5.546344,11.649414 5.544786,11.371071 5.561819,11.371201 5.734328,11.368229 5.834057,11.366733 5.841678,11.367014 5.847151,11.366688 5.927364,11.366649" style="fill: white" /><polygon type="contour" points="7.447298,11.367027 7.475005,11.36715 7.482392,11.367026 7.563758,11.368406 7.625933,11.371961 7.755655,11.376045 7.759737,11.505766 7.763294,11.567941 7.764674,11.649307 7.764644,11.651044 7.764699,11.877066 7.764742,11.890381 7.48229,11.890263 7.454237,11.890263 7.254477,11.890381 7.241323,11.890381 7.24144,11.684401 7.24144,11.649409 7.241323,11.36696" style="fill: white" /><polygon type="contour" points="7.764742,13.021924 7.764688,13.039491 7.765051,13.204336 7.765011,13.284551 7.764686,13.290024 7.764978,13.297552 7.763471,13.397372 7.760499,13.569881 7.76063,13.586915 7.482285,13.585359 7.472629,13.585402 7.472629,13.409631 7.252501,13.409623 7.241323,13.409635 7.241642,13.328767 7.241642,13.204336 7.241323,13.039363 7.241323,13.021925 7.447299,13.02182 7.48229,13.02182" style="fill: white" /><polygon type="contour" points="6.109772,13.204336 6.109772,13.328768 6.109778,13.402062 6.109778,13.409634 6.095661,13.40967 5.927364,13.409786 5.847209,13.409906 5.847209,13.556833 5.847152,13.571279 5.847152,13.585666 5.71621,13.590172 5.535385,13.596315 5.54539,13.29435 5.545516,13.285399 5.721752,13.284721 5.721915,13.204337 5.722032,13.036041 5.722067,13.021925 5.802934,13.02193 5.927364,13.02193 6.09234,13.021925 6.109778,13.021925" style="fill: white" />
</svg>
