<svg width="19.131698" height="19.131699">
<polygon type="contour" points="8.339422,8.212079 8.483258,8.210215 8.483449,8.259187 8.4838,8.271421 8.484754,8.37919 8.543444,8.379135 8.632281,8.379141 8.632121,8.469002 8.632121,8.527718 8.632281,8.609667 8.632281,8.632284 8.543445,8.632123 8.484939,8.632123 8.402056,8.632284 8.379139,8.632284 8.379162,8.612923 8.37914,8.48483 8.212348,8.48483 8.212571,8.430066 8.21225,8.359563 8.211138,8.257618 8.209741,8.209743" style="fill: white" /><polygon type="contour" points="8.609664,9.117803 8.632281,9.117803 8.632057,9.199038 8.632057,9.916979 8.632281,9.993094 8.632281,10.013901 8.543445,10.013937 8.48494,10.013937 8.402057,10.013901 8.379139,10.013901 8.379126,9.995837 8.378858,9.872577 8.212119,9.869676 8.211848,9.700805 8.210965,9.58171 8.210965,9.565906 8.211849,9.447108 8.211849,9.430898 8.212119,9.262029 8.378909,9.262125 8.37897,9.199038 8.379139,9.117803 8.469002,9.117765 8.527717,9.117765" style="fill: white" /><polygon type="contour" points="10.920561,8.257618 10.919449,8.359563 10.919127,8.430065 10.919305,8.48483 10.752511,8.48483 10.752567,8.543445 10.752561,8.632284 10.662698,8.632123 10.603982,8.632123 10.522032,8.632284 10.499416,8.632284 10.49958,8.543446 10.49958,8.48494 10.499416,8.402059 10.499416,8.379141 10.518646,8.379164 10.6479,8.379142 10.6479,8.271421 10.648441,8.210215 10.792277,8.212079 10.921959,8.209743" style="fill: white" /><polygon type="contour" points="9.684595,8.211851 9.700803,8.211851 9.869674,8.212121 9.869913,8.272013 9.86955,8.378911 9.932665,8.378972 10.013899,8.37914 10.013935,8.469003 10.013935,8.527719 10.013899,8.609668 10.013899,8.632284 9.932665,8.632059 9.214722,8.632059 9.138608,8.632284 9.117801,8.632284 9.117763,8.543445 9.117763,8.48494 9.117801,8.402058 9.117801,8.379141 9.135864,8.379128 9.26215,8.378854 9.261788,8.272013 9.262027,8.212121 9.430896,8.211851 9.549991,8.210967 9.565794,8.210967" style="fill: white" /><polygon type="contour" points="9.993092,9.117803 10.013899,9.117803 10.014163,9.199038 10.014163,9.916978 10.013899,9.993093 10.013899,10.013901 9.932664,10.014165 9.214722,10.014165 9.138608,10.013901 9.117801,10.013901 9.117537,9.932665 9.117537,9.214725 9.117801,9.13861 9.117801,9.117803 9.199036,9.117539 9.916978,9.117539" style="fill: white" /><polygon type="contour" points="10.646761,9.117765 10.729644,9.117803 10.752561,9.117803 10.752575,9.135865 10.752846,9.262125 10.919582,9.262029 10.91985,9.430898 10.920734,9.549993 10.920734,9.566201 10.91985,9.685002 10.91985,9.700805 10.919582,9.869676 10.75279,9.869578 10.75273,9.932665 10.752561,10.0139 10.662697,10.013937 10.603981,10.013937 10.522032,10.013901 10.499416,10.013901 10.499644,9.932665 10.499644,9.214726 10.499416,9.138609 10.499416,9.117803 10.588255,9.117765 10.64676,9.117765 10.64676,9.117764" style="fill: white" /><polygon type="contour" points="10.752539,10.518649 10.752558,10.646874 10.919349,10.646874 10.919127,10.701637 10.919449,10.77214 10.920561,10.874085 10.921959,10.921961 10.792277,10.919625 10.648442,10.921489 10.648251,10.872516 10.6479,10.860281 10.646945,10.752512 10.588255,10.752569 10.499416,10.752563 10.49958,10.6627 10.49958,10.603985 10.499416,10.522034 10.499416,10.499418 10.588254,10.499582 10.64676,10.499582 10.729644,10.499418 10.752561,10.499418" style="fill: white" /><polygon type="contour" points="10.013935,10.588257 10.013935,10.646762 10.013899,10.729644 10.013899,10.752563 9.995835,10.752576 9.86955,10.752849 9.869913,10.85969 9.869674,10.919584 9.700804,10.919853 9.581709,10.920737 9.565501,10.920736 9.4467,10.919852 9.430896,10.919852 9.262027,10.919584 9.261788,10.85969 9.26215,10.752792 9.199035,10.752732 9.117801,10.752563 9.117763,10.6627 9.117763,10.603985 9.117801,10.522034 9.117801,10.499418 9.199036,10.499646 9.916978,10.499646 9.993093,10.499418 10.013899,10.499418" style="fill: white" /><polygon type="contour" points="8.632121,10.588257 8.632121,10.646762 8.632281,10.729644 8.632281,10.752563 8.612922,10.75254 8.4838,10.752561 8.4838,10.86028 8.483258,10.921489 8.339422,10.919625 8.209741,10.921961 8.211138,10.874085 8.21225,10.77214 8.212572,10.701637 8.212394,10.646875 8.222887,10.646875 8.24683,10.646874 8.379189,10.646874 8.379133,10.588258 8.379139,10.499418 8.469001,10.499582 8.527718,10.499582 8.609664,10.499418 8.632281,10.499418" style="fill: white" />
</svg>
