<svg width="19.131698" height="19.131699">
<polygon type="contour" points="9.563877,9.379848 9.568258,9.379848 9.582562,9.380324 9.592615,9.381138 9.613601,9.383708 9.634824,9.389965 9.642287,9.392235 9.655648,9.397098 9.668827,9.402954 9.675622,9.40633 9.687737,9.413245 9.699165,9.421119 9.706904,9.426194 9.714868,9.437777 9.716046,9.440179 9.723014,9.452375 9.726888,9.458776 9.732798,9.472073 9.735765,9.479704 9.743389,9.500474 9.745527,9.509022 9.747408,9.519375 9.749121,9.526655 9.750834,9.54764 9.751853,9.565552 9.75169,9.569609 9.750406,9.591499 9.74912,9.604776 9.74698,9.613341 9.745099,9.623963 9.743817,9.630802 9.735932,9.651832 9.732798,9.659796 9.726887,9.673097 9.720003,9.685158 9.714868,9.693927 9.707019,9.705742 9.695294,9.713501 9.687876,9.718455 9.675783,9.725357 9.662453,9.731286 9.655838,9.734448 9.642445,9.739323 9.633668,9.741632 9.613172,9.747567 9.592188,9.750565 9.581319,9.75138 9.567616,9.75138 9.558649,9.752195 9.543658,9.750052 9.524908,9.748422 9.518913,9.747567 9.514001,9.746501 9.496876,9.741577 9.488277,9.738817 9.474891,9.733942 9.461684,9.72807 9.455918,9.725357 9.439829,9.716174 9.439312,9.716065 9.427401,9.708141 9.425481,9.706222 9.417684,9.69444 9.414267,9.69085 9.407316,9.678643 9.405158,9.673748 9.399253,9.660464 9.396856,9.652749 9.38742,9.629266 9.385257,9.616137 9.381876,9.600344 9.380333,9.573989 9.379697,9.566038 9.380333,9.558413 9.381605,9.532601 9.384051,9.518742 9.387906,9.500756 9.395767,9.479705 9.399088,9.471572 9.404988,9.458295 9.407316,9.453061 9.414266,9.440855 9.419565,9.435212 9.427589,9.423576 9.439142,9.415636 9.440866,9.415309 9.453047,9.40835 9.455917,9.406348 9.469248,9.400418 9.47655,9.397098 9.487991,9.392666 9.495626,9.390758 9.514429,9.384774 9.519613,9.383708 9.542738,9.381139 9.561217,9.379508" style="fill: white" />
</svg>
