<svg width="19.131698" height="19.131699">
<polygon type="contour" points="14.131254,16.665448 14.29589,16.6658 14.743855,16.666057 14.743855,16.739562 14.74413,16.808805 14.743972,16.846716 14.743683,16.862503 14.743952,16.899994 14.743734,16.902788 14.743734,16.950787 14.743886,16.953115 14.743903,16.998606 14.555697,16.999048 14.411147,16.999048 14.410972,16.903647 14.215473,16.903774 14.107261,16.903706 14.127621,16.666652 14.127512,16.665445" style="fill: white" /><polygon type="contour" points="16.903946,14.199227 16.903652,14.297649 16.903658,14.316127 16.903645,14.411006 16.999046,14.411148 16.999046,14.555697 16.998604,14.743905 16.950786,14.743735 16.899991,14.743955 16.862501,14.743684 16.846712,14.743974 16.808801,14.744132 16.732444,14.744132 16.666054,14.743858 16.665858,14.291582 16.665914,14.114838 16.749321,14.114662 16.903754,14.106841" style="fill: white" /><polygon type="contour" points="16.808444,15.534597 16.80853,15.630522 16.808535,15.711016 16.808548,15.82627 16.80856,15.844076 16.808566,15.847656 16.665763,15.847656 16.665763,15.843368 16.665744,15.82627 16.665736,15.711016 16.66573,15.630522 16.665636,15.536695 16.665676,15.515375 16.808476,15.515375" style="fill: white" /><polygon type="contour" points="16.998604,16.665404 16.998504,16.766081 16.998944,16.963245 16.998944,16.998946 16.843944,16.999108 16.843024,16.998949 16.665335,16.998538 16.665584,16.950787 16.665584,16.902787 16.665515,16.901165 16.665548,16.864505 16.665569,16.848888 16.665765,16.808568 16.665765,16.665767 16.808566,16.665767 16.848886,16.665571 16.864503,16.66555 16.901166,16.665517 16.950785,16.665586 16.953111,16.665389" style="fill: white" /><polygon type="contour" points="15.63052,16.665734 15.711016,16.66574 15.826269,16.665745 15.843367,16.665765 15.847655,16.665765 15.847655,16.808568 15.844075,16.808562 15.826269,16.80855 15.711015,16.808537 15.630521,16.808532 15.534596,16.808446 15.515374,16.808478 15.515374,16.66568" style="fill: white" /><polygon type="contour" points="15.84769,15.795609 15.847668,15.826271 15.847655,15.847656 15.795608,15.847691 15.51519,15.847691 15.51519,15.795609 15.515299,15.630522 15.515374,15.538464 15.515374,15.515375 15.630521,15.5153 15.795608,15.515191 15.84769,15.515191" style="fill: white" /><polygon type="contour" points="14.74413,15.515375 14.74413,15.538464 14.743991,15.630521 14.743826,15.711016 14.744246,15.826271 14.744256,15.847656 14.719136,15.84767 14.126887,15.84767 14.127241,15.833123 14.127608,15.826271 14.126066,15.711017 14.127277,15.630521 14.125452,15.565186 14.127022,15.515283 14.55194,15.515283" style="fill: white" /><polygon type="contour" points="14.744214,14.118221 14.744248,14.203817 14.743953,14.29783 14.744129,14.744132 14.292502,14.744249 14.120314,14.74383 14.124938,14.635569 14.126419,14.603008 14.12347,14.30532 14.174488,14.304366 14.188537,14.30368 14.246531,14.30035 14.293255,14.293261 14.30035,14.246534 14.303676,14.188539 14.304364,14.174491 14.305319,14.123473 14.381499,14.110461" style="fill: white" /><polygon type="contour" points="15.63052,14.127278 15.711016,14.126069 15.826269,14.12761 15.847675,14.127682 15.847675,14.679443 15.847623,14.719126 15.847655,14.744258 15.843695,14.744265 15.82627,14.744248 15.711015,14.743828 15.630521,14.743991 15.538463,14.744131 15.515374,14.744131 15.515374,14.181982 15.515341,14.123031 15.542802,14.121836" style="fill: white" /><polygon type="contour" points="15.847655,4.387445 15.847623,4.412577 15.847675,4.45226 15.847675,5.004021 15.832953,5.004213 15.82627,5.004093 15.711016,5.005636 15.63052,5.004425 15.515341,5.008673 15.515341,4.457563 15.515374,4.387572 15.630521,4.387712 15.711015,4.387875 15.82627,4.387454 15.843695,4.387437" style="fill: white" /><polygon type="contour" points="16.846712,4.387729 16.862502,4.388018 16.899992,4.38775 16.902786,4.38797 16.950786,4.38797 16.953112,4.387815 16.998604,4.387799 16.999046,4.576006 16.999046,4.720555 16.903643,4.720731 16.90396,4.915651 16.903916,5.024864 16.752718,5.007649 16.665914,5.016866 16.665858,4.840123 16.666054,4.387847 16.739558,4.387847 16.808801,4.387572" style="fill: white" /><polygon type="contour" points="16.80856,3.287627 16.808548,3.305433 16.808535,3.420685 16.80853,3.501178 16.808444,3.597104 16.808476,3.616327 16.665676,3.616327 16.665636,3.595007 16.66573,3.501178 16.665736,3.420685 16.665744,3.305432 16.665763,3.288335 16.665763,3.284047 16.808566,3.284047" style="fill: white" /><polygon type="contour" points="16.998944,2.132757 16.998944,2.168459 16.998503,2.365623 16.998604,2.4663 16.950785,2.466117 16.902786,2.466117 16.901166,2.466187 16.864503,2.466153 16.848886,2.466132 16.808566,2.465936 16.665767,2.465936 16.665767,2.395457 16.665765,2.323136 16.66557,2.282816 16.665547,2.267196 16.665515,2.230537 16.665584,2.180916 16.665386,2.178589 16.665335,2.133166 16.843023,2.132753 16.843943,2.132595" style="fill: white" /><polygon type="contour" points="14.743904,2.133099 14.743734,2.180917 14.743952,2.23171 14.743683,2.269198 14.743972,2.284989 14.74413,2.322897 14.74413,2.399255 14.743855,2.465646 14.29589,2.465903 14.131254,2.466256 14.127512,2.466258 14.12762,2.465054 14.107177,2.227955 14.215472,2.227927 14.411005,2.228053 14.411147,2.132656 14.555696,2.132656" style="fill: white" /><polygon type="contour" points="15.847655,2.465936 15.843367,2.465936 15.826269,2.465954 15.711015,2.465964 15.630521,2.46597 15.536693,2.466064 15.515374,2.466024 15.515374,2.323223 15.630521,2.323169 15.711015,2.323164 15.826269,2.323155 15.844075,2.323143 15.847655,2.323135" style="fill: white" /><polygon type="contour" points="15.826269,3.284032 15.847655,3.284047 15.847655,3.288336 15.847668,3.305432 15.84769,3.336094 15.84769,3.616512 15.795608,3.616512 15.630521,3.616402 15.538463,3.616327 15.515374,3.616327 15.515299,3.501178 15.51519,3.336094 15.51519,3.284013 15.795609,3.284013" style="fill: white" /><polygon type="contour" points="14.744256,3.284047 14.744263,3.288007 14.744246,3.305432 14.743825,3.420684 14.74399,3.501178 14.74413,3.593237 14.74413,3.616327 14.181982,3.616327 14.127022,3.61642 14.125452,3.566515 14.127277,3.501179 14.126066,3.420684 14.125392,3.414151 14.127607,3.305432 14.126888,3.284033 14.719136,3.284033" style="fill: white" /><polygon type="contour" points="14.74413,4.387572 14.743953,4.833871 14.744248,4.927884 14.744214,5.013481 14.381499,5.021242 14.305319,5.00823 14.304364,4.957211 14.303677,4.943164 14.30035,4.885171 14.293256,4.838441 14.24653,4.831352 14.174489,4.827336 14.12347,4.826382 14.126418,4.528693 14.120314,4.387873 14.292503,4.387456" style="fill: white" /><polygon type="contour" points="5.011387,4.387873 5.006763,4.496132 5.00528,4.528694 5.008228,4.826382 4.957209,4.827335 4.943162,4.828022 4.885168,4.831352 4.838436,4.838442 4.83135,4.88517 4.82802,4.943164 4.827333,4.957211 4.82638,5.00823 4.750199,5.021242 4.387484,5.013481 4.38745,4.927884 4.387746,4.83387 4.38757,4.387571 4.839198,4.387456" style="fill: white" /><polygon type="contour" points="5.004459,3.29858 5.004091,3.305433 5.005634,3.420684 5.004424,3.501179 5.006249,3.566515 5.004679,3.61642 4.57976,3.61642 4.387571,3.616327 4.387571,3.593237 4.38771,3.501178 4.387874,3.420684 4.387453,3.305432 4.387443,3.284047 4.412562,3.284033 5.004812,3.284033" style="fill: white" /><polygon type="contour" points="4.72073,2.228053 4.815574,2.228041 4.834052,2.228048 4.932475,2.227753 5.024863,2.227945 5.019548,2.348551 5.00443,2.459099 5.004188,2.466258 5.000445,2.466256 4.835809,2.465903 4.387845,2.465646 4.387845,2.392141 4.387571,2.322897 4.387728,2.284989 4.388018,2.269198 4.387748,2.23171 4.387967,2.228917 4.387967,2.180917 4.387812,2.178589 4.387797,2.133099 4.576004,2.132656 4.720552,2.132656" style="fill: white" /><polygon type="contour" points="2.465935,3.288335 2.465954,3.305432 2.465961,3.420684 2.465968,3.501178 2.466062,3.595007 2.466022,3.616327 2.32322,3.616327 2.323252,3.597104 2.323167,3.501178 2.323163,3.420685 2.323154,3.305433 2.323141,3.287627 2.323135,3.284047 2.465935,3.284047" style="fill: white" /><polygon type="contour" points="2.288676,2.132753 2.466365,2.133166 2.466116,2.180916 2.466116,2.228917 2.466185,2.230537 2.466153,2.267196 2.466131,2.282816 2.465935,2.323136 2.465935,2.465936 2.323134,2.465936 2.282814,2.466132 2.267194,2.466154 2.230535,2.466187 2.180915,2.466117 2.178588,2.466314 2.133097,2.4663 2.133196,2.365623 2.132755,2.168458 2.132755,2.132757 2.287756,2.132595" style="fill: white" /><polygon type="contour" points="3.287625,2.323143 3.305431,2.323155 3.420683,2.323164 3.501177,2.323168 3.597102,2.323254 3.616325,2.323223 3.616325,2.466024 3.501178,2.46597 3.420683,2.465964 3.305431,2.465954 3.288333,2.465936 3.284045,2.465936 3.284045,2.323135" style="fill: white" /><polygon type="contour" points="3.61651,3.336094 3.6164,3.501178 3.616325,3.593237 3.616325,3.616327 3.501177,3.616402 3.336092,3.616512 3.284011,3.616512 3.284011,3.336093 3.28403,3.305433 3.284045,3.284047 3.336091,3.284013 3.61651,3.284013" style="fill: white" /><polygon type="contour" points="3.30543,4.387454 3.420682,4.387876 3.501177,4.387712 3.593235,4.387572 3.616325,4.387572 3.616325,4.94972 3.616359,5.008673 3.588897,5.009867 3.501178,5.004425 3.420682,5.005636 3.305431,5.004093 3.284026,5.004021 3.284026,4.45226 3.284078,4.412576 3.284045,4.387445 3.288005,4.387437" style="fill: white" /><polygon type="contour" points="2.465644,4.387847 2.465845,4.840124 2.465788,5.016866 2.378983,5.007649 2.227784,5.024864 2.22774,4.915652 2.228051,4.720698 2.132654,4.720555 2.132654,4.576007 2.133097,4.3878 2.180915,4.38797 2.231708,4.38775 2.269197,4.388018 2.284988,4.387729 2.322896,4.387572 2.399253,4.387572" style="fill: white" /><polygon type="contour" points="2.347098,14.107102 2.465787,14.114838 2.465845,14.291582 2.465644,14.743857 2.392138,14.743858 2.322897,14.744132 2.284987,14.743975 2.269198,14.743684 2.231708,14.743955 2.228914,14.743735 2.180914,14.743735 2.178587,14.743889 2.133097,14.743905 2.132654,14.555697 2.132654,14.411148 2.228051,14.410973 2.228039,14.316126 2.228047,14.297649 2.227751,14.199227 2.227943,14.106841" style="fill: white" /><polygon type="contour" points="3.616325,16.66568 3.616325,16.808478 3.597102,16.808446 3.569074,16.808336 3.420682,16.808538 3.305431,16.80855 3.287625,16.808562 3.284045,16.808568 3.284045,16.665765 3.288333,16.665765 3.305431,16.665745 3.420682,16.66574 3.501177,16.665734 3.595005,16.66564" style="fill: white" /><polygon type="contour" points="5.003882,16.668597 5.024863,16.903756 4.932475,16.903948 4.834053,16.903656 4.815575,16.903662 4.720697,16.903647 4.720552,16.999048 4.576003,16.999048 4.387797,16.998606 4.387967,16.950787 4.387748,16.899994 4.388018,16.862503 4.387728,16.846716 4.387571,16.808805 4.387571,16.732447 4.387845,16.666057 4.835809,16.6658 5.000445,16.665447 5.004187,16.665446" style="fill: white" /><polygon type="contour" points="5.006249,15.565186 5.004424,15.630521 5.005634,15.711017 5.006307,15.717552 5.004091,15.826271 5.004812,15.84767 4.412562,15.84767 4.387443,15.847656 4.387435,15.843696 4.387453,15.826271 4.387874,15.711016 4.38771,15.630522 4.387571,15.538464 4.387571,15.515375 4.949718,15.515375 5.004679,15.515283" style="fill: white" /><polygon type="contour" points="4.82638,14.123473 4.827333,14.174491 4.828021,14.188538 4.83135,14.246533 4.83844,14.293261 4.885168,14.30035 4.957209,14.304366 5.008229,14.30532 5.00528,14.603009 5.011386,14.74383 4.839199,14.744249 4.38757,14.744131 4.387746,14.297831 4.38745,14.203817 4.387484,14.11822 4.750199,14.110461" style="fill: white" /><polygon type="contour" points="3.616359,14.674139 3.616325,14.744131 3.501177,14.743992 3.420682,14.743828 3.30543,14.744248 3.288005,14.744265 3.284045,14.744258 3.284078,14.719126 3.284026,14.679443 3.284026,14.127682 3.298746,14.127491 3.305431,14.12761 3.420683,14.126069 3.501178,14.127278 3.616359,14.123031" style="fill: white" /><polygon type="contour" points="3.501177,15.5153 3.593235,15.515375 3.616325,15.515375 3.6164,15.630522 3.61651,15.795609 3.61651,15.847691 3.336092,15.847691 3.30543,15.847669 3.284045,15.847656 3.284045,15.843367 3.28403,15.82627 3.284011,15.79561 3.284011,15.515191 3.336092,15.515191" style="fill: white" /><polygon type="contour" points="2.466062,15.536695 2.465968,15.630522 2.465961,15.711017 2.465954,15.82627 2.465935,15.843368 2.465935,15.847656 2.323135,15.847656 2.323141,15.844076 2.323154,15.82627 2.323163,15.711016 2.323167,15.630521 2.323252,15.534597 2.32322,15.515375 2.466022,15.515375" style="fill: white" /><polygon type="contour" points="2.180915,16.665586 2.228915,16.665586 2.230535,16.665516 2.267194,16.665549 2.282814,16.665572 2.323134,16.665767 2.465935,16.665767 2.465935,16.808568 2.466131,16.848888 2.466153,16.864505 2.466185,16.901168 2.466116,16.950787 2.466313,16.953115 2.466365,16.998538 2.288675,16.998949 2.287755,16.999108 2.132755,16.998946 2.132755,16.963246 2.133196,16.76608 2.133097,16.665404" style="fill: white" />
</svg>
