<svg width="19.131698" height="19.131699">
<polygon type="contour" points="12.313756,10.478522 12.315761,10.641886 12.314866,10.674248 12.314359,10.68036 12.31336,10.733949 12.312751,10.771381 12.22668,10.771729 12.226559,10.928594 12.226559,12.019221 12.313369,12.020258 12.314804,12.069684 12.321506,12.321509 12.158837,12.316746 12.114876,12.315155 12.019188,12.31277 12.019077,12.226562 10.928593,12.226562 10.771495,12.226604 10.771495,12.312944 10.733521,12.313691 10.679881,12.31436 10.674247,12.314867 10.641883,12.315762 10.615528,12.316462 10.610742,12.316776 10.564086,12.319309 10.47852,12.313759 10.47673,12.102049 10.47673,12.077987 10.47695,11.913696 10.47695,10.882964 10.476933,10.665806 10.479008,10.508452 10.479388,10.504531 10.479762,10.479764 10.50845,10.47901 10.665804,10.476935 10.882962,10.476952 11.913694,10.476952 12.077985,10.476732 12.102046,10.476732" style="fill: white" /><polygon type="contour" points="12.314804,7.062019 12.313369,7.111446 12.226559,7.112482 12.226559,8.20311 12.226489,8.360349 12.312799,8.360294 12.314359,8.451344 12.314866,8.457456 12.315761,8.489818 12.316774,8.520958 12.319308,8.567615 12.313756,8.653181 12.261485,8.652951 12.102045,8.654972 12.077985,8.654972 11.913694,8.654751 10.882962,8.654751 10.665804,8.654768 10.508449,8.652691 10.504529,8.652312 10.479762,8.651939 10.479909,8.632559 10.479009,8.62325 10.476933,8.465897 10.47695,8.248737 10.47695,7.218008 10.47673,7.053716 10.47673,7.029656 10.47852,6.817945 10.641883,6.81594 10.674247,6.816836 10.680358,6.817342 10.733521,6.818012 10.771495,6.818759 10.771187,6.905142 12.019077,6.905142 12.019188,6.818935 12.114877,6.816549 12.158837,6.814955 12.321506,6.810194" style="fill: white" /><polygon type="contour" points="6.97286,6.814955 7.016823,6.816549 7.112512,6.818935 7.112623,6.905142 8.359813,6.905142 8.360206,6.818759 8.398179,6.818012 8.451343,6.817342 8.457453,6.816836 8.489817,6.81594 8.510349,6.815365 8.510997,6.815323 8.520957,6.814927 8.567614,6.812394 8.653179,6.817945 8.65497,7.029655 8.65497,7.053716 8.654749,7.218008 8.654749,8.248737 8.654767,8.465896 8.651937,8.651939 8.632556,8.651791 8.623248,8.652691 8.465895,8.654768 8.248736,8.654751 7.218006,8.654751 7.053715,8.654972 7.029654,8.654972 6.817943,8.653181 6.815939,8.489817 6.816834,8.457456 6.817341,8.451819 6.81834,8.397755 6.818948,8.360323 6.90502,8.360132 6.905141,8.2025 6.905141,7.112484 6.817869,7.111446 6.816306,7.062019 6.810194,6.810195" style="fill: white" /><polygon type="contour" points="7.218006,10.476952 8.248736,10.476952 8.465894,10.476935 8.651936,10.479764 8.652689,10.508452 8.654767,10.665806 8.654749,10.882964 8.654749,11.913696 8.65497,12.077987 8.65497,12.102048 8.653179,12.313759 8.489816,12.315762 8.457454,12.314867 8.451819,12.31436 8.398179,12.313691 8.360206,12.312944 8.360513,12.226562 7.112623,12.226562 7.112512,12.31277 7.016822,12.315155 6.972861,12.316746 6.810194,12.321509 6.816306,12.069684 6.817869,12.020258 6.905141,12.019219 6.905141,10.928594 6.90521,10.771328 6.841196,10.77141 6.818899,10.77141 6.81734,10.68036 6.816834,10.674248 6.815939,10.641886 6.814924,10.610745 6.81239,10.564089 6.817943,10.478522 6.870215,10.478751 7.029654,10.476732 7.053715,10.476732" style="fill: white" />
</svg>
