<svg width="19.131698" height="19.131699">
<polygon type="contour" points="15.774672,3.357028 15.774672,3.419497 15.774478,3.505789 15.774663,3.69024 15.687055,3.689906 15.599116,3.689906 15.596145,3.690033 15.584478,3.690023 15.441679,3.690023 15.441679,3.547224 15.441668,3.535555 15.441797,3.444646 15.441432,3.440381 15.44134,3.357162 15.501854,3.357021 15.503463,3.356744" style="fill: white" /><polygon type="contour" points="15.069986,3.689953 14.970461,3.690228 14.874146,3.690228 14.874146,3.6176 14.874301,3.547391 14.970461,3.547429 15.069986,3.547154" style="fill: white" /><polygon type="contour" points="15.06979,4.16124 15.06979,4.257556 14.970462,4.257556 14.874301,4.257401 14.874301,4.14674 14.874146,4.061911 14.961901,4.061715 15.069986,4.061715" style="fill: white" /><polygon type="contour" points="15.58463,4.158231 15.584313,4.257401 15.514102,4.257555 15.441474,4.257556 15.441748,4.169798 15.441748,4.061715 15.584548,4.061715" style="fill: white" /><polygon type="contour" points="15.599115,5.612052 15.687054,5.612052 15.691319,5.611767 15.774663,5.61174 15.774851,5.691829 15.774851,5.94475 15.688951,5.94491 15.679451,5.94495 15.636601,5.945154 15.583425,5.944192 15.58478,6.000625 15.584583,6.014859 15.584423,6.016676 15.584209,6.023739 15.584588,6.038521 15.58457,6.040714 15.584669,6.045641 15.584341,6.066391 15.584328,6.068098 15.58429,6.070132 15.584327,6.071167 15.58432,6.071356 15.584313,6.075295 15.58146,6.075309 15.441526,6.075309 15.441513,6.073447 15.441519,6.071356 15.441517,6.070739 15.441521,6.06981 15.441535,6.068522 15.441532,6.06687 15.441838,6.047313 15.44177,6.040564 15.441639,6.026816 15.441799,6.016654 15.441472,6.004126 15.441746,5.973942 15.441599,5.851703 15.441496,5.835991 15.441261,5.835008 15.441517,5.786827 15.441314,5.7866 15.441686,5.773898 15.441698,5.611695 15.545044,5.611695 15.584412,5.611718 15.593996,5.611649" style="fill: white" /><polygon type="contour" points="15.584228,5.155887 15.584413,5.308072 15.441611,5.308072 15.441427,5.155887 15.441474,4.97579 15.514102,4.97579 15.584313,4.975787" style="fill: white" /><polygon type="contour" points="15.06979,4.97579 15.069542,5.155887 15.06969,5.308439 14.980096,5.308491 14.874243,5.308491 14.874243,5.155887 14.8743,4.975788 14.984959,4.975788" style="fill: white" /><polygon type="contour" points="14.952329,5.611815 15.06969,5.611815 15.069684,5.783551 15.069329,5.796039 15.069315,5.811523 15.0696,5.831823 15.069383,5.848338 15.069639,5.867536 15.069533,5.872371 15.069694,5.953126 15.069946,5.966855 15.069695,5.99883 15.069475,6.013073 15.069863,6.014878 15.069638,6.021819 15.069951,6.037713 15.069911,6.043945 15.069501,6.065909 15.069518,6.067572 15.069508,6.069038 15.069531,6.070266 15.069502,6.070883 15.069525,6.075292 15.063811,6.0753 14.87354,6.0753 14.873535,6.071358 14.873524,6.07119 14.873535,6.070436 14.873549,6.069318 14.873538,6.067901 14.873554,6.066178 14.874094,6.044884 14.874046,6.038972 14.874247,6.023792 14.874054,6.017389 14.874037,6.015997 14.874174,6.00196 14.874206,5.988226 14.874234,5.871482 14.874415,5.851703 14.8743,5.831824 14.874227,5.813906 14.874049,5.798855 14.874148,5.787057 14.874243,5.611775" style="fill: white" /><polygon type="contour" points="13.519697,8.101168 13.519741,8.207908 13.519549,8.572935 13.519605,8.842516 13.519532,8.873753 13.519847,9.418179 13.519855,9.430153 13.519855,9.67539 13.519847,9.687498 13.519841,10.25623 13.519908,10.287229 13.519802,10.555209 13.519875,10.897032 13.519815,11.004509 13.519644,11.409615 13.519833,11.802062 13.284497,11.802062 13.284498,11.795462 13.283359,11.424781 13.283133,11.335907 13.283055,11.25445 13.28261,11.066895 13.282295,11.002751 13.281383,10.665292 13.280821,10.242243 13.280568,10.132412 13.280422,10.075288 13.280378,10.063402 13.280268,10.029075 13.279098,9.584088 13.279098,9.581168 13.279074,9.574716 13.279074,9.567506 13.279032,9.567014 13.279032,9.566202 13.279071,9.56491 13.279074,9.564115 13.279074,9.557663 13.280226,9.118397 13.280268,9.10754 13.28045,9.036864 13.280683,8.957266 13.28069,8.933307 13.281382,8.466412 13.282295,8.128952 13.282664,7.976942 13.283132,7.795798 13.283359,7.706922 13.284498,7.336241 13.284497,7.329642 13.519833,7.329642" style="fill: white" /><polygon type="contour" points="4.257807,8.082141 4.257619,8.18842 4.257968,8.58008 4.258066,8.846438 4.258116,8.877197 4.25759,9.376192 4.257534,9.436138 4.257534,9.589857 4.257591,9.652305 4.257903,10.252774 4.257858,10.283291 4.257795,10.548013 4.257807,10.8295 4.257957,10.938235 4.257899,11.408401 4.257767,11.802062 4.062243,11.802062 4.06206,11.385778 4.062104,10.660419 4.062097,10.317709 4.06214,10.291151 4.062114,10.210128 4.062029,10.145461 4.062089,9.394935 4.062089,9.189396 4.062283,8.978749 4.062303,8.890062 4.062254,8.861024 4.062131,8.60645 4.061953,7.988944 4.062126,7.892233 4.062243,7.329642 4.257767,7.329642" style="fill: white" /><polygon type="contour" points="5.308176,6.577796 5.307999,6.62979 5.132655,6.62979 4.975704,6.629598 4.975896,6.578827 4.975846,6.528585 5.308346,6.528585" style="fill: white" /><polygon type="contour" points="5.845129,6.577795 5.845393,6.629598 5.708274,6.629598 5.611803,6.62979 5.611806,6.580429 5.611809,6.528585 5.728963,6.528225 5.845333,6.528225" style="fill: white" /><polygon type="contour" points="5.846555,7.083771 5.846801,7.176156 5.846828,7.17626 5.846825,7.184315 5.640332,7.184315 5.611777,7.184276 5.611542,7.106344 5.611542,7.083717 5.798827,7.083717" style="fill: white" /><polygon type="contour" points="5.847164,7.332333 5.848114,7.654227 5.848734,7.858449 5.849036,7.976941 5.848967,8.01664 5.849031,8.104055 5.849564,8.262523 5.849885,8.318763 5.850211,8.401141 5.851022,8.711383 5.851322,9.073659 5.851429,9.10754 5.851472,9.118397 5.852626,9.557663 5.852626,9.564863 5.852669,9.565376 5.852669,9.566201 5.852629,9.567471 5.852626,9.568263 5.852626,9.574716 5.851472,10.013306 5.85143,10.024162 5.851022,10.42032 5.850211,10.730562 5.849885,10.81294 5.849563,10.869179 5.849031,11.027648 5.848967,11.115063 5.849036,11.154762 5.848735,11.273254 5.848114,11.477475 5.848042,11.53844 5.847265,11.776687 5.847203,11.802062 5.611865,11.802062 5.612056,11.409615 5.611885,11.004509 5.611825,10.897032 5.611898,10.555209 5.611792,10.287229 5.611859,10.256231 5.611851,9.687497 5.611844,9.67539 5.611844,9.430153 5.611851,9.418178 5.612168,8.873754 5.612095,8.842516 5.612151,8.572935 5.611957,8.207909 5.612002,8.101168 5.611865,7.329642 5.847203,7.329642" style="fill: white" /><polygon type="contour" points="5.308348,7.376115 5.308348,7.543143 5.308455,7.600928 5.308114,7.818449 5.3079,7.858533 5.308201,8.065692 5.307743,8.104054 5.307862,8.131428 5.308264,8.465982 5.308214,8.929555 5.308308,8.984347 5.308308,9.376362 5.308611,9.751087 5.308485,10.205551 5.308546,10.288325 5.308493,10.305974 5.308178,10.803055 5.307885,11.027136 5.308099,11.1339 5.3079,11.27317 5.308456,11.530776 5.308348,11.588559 5.308348,11.755588 5.308365,11.802062 4.975865,11.802062 4.975877,11.768503 4.975877,11.510721 4.975981,11.441426 4.975699,11.205599 4.975519,11.165929 4.97527,11.028118 4.975198,11.024821 4.975437,10.868148 4.975437,10.04309 4.976176,10.027751 4.975979,9.809681 4.975197,9.730952 4.976309,9.699813 4.975278,9.301587 4.975041,8.905326 4.976,8.749974 4.975265,8.272644 4.975654,8.104957 4.975519,7.965775 4.975981,7.690276 4.975877,7.620982 4.975878,7.3632 4.975865,7.329642 5.308365,7.329642" style="fill: white" /><polygon type="contour" points="5.050229,7.083717 5.308086,7.083717 5.308308,7.17001 5.308308,7.184276 5.022865,7.184276 4.97587,7.184315 4.975683,7.105452 4.975621,7.083691" style="fill: white" /><polygon type="contour" points="4.257495,6.577796 4.257636,6.629598 4.062335,6.629598 4.062194,6.578827 4.062056,6.528585 4.257357,6.528585" style="fill: white" /><polygon type="contour" points="4.257644,7.174541 4.257646,7.184315 4.062347,7.184315 4.062095,7.105453 4.062,7.083719 4.220533,7.083719 4.257963,7.083691" style="fill: white" /><polygon type="contour" points="3.535959,7.329728 3.690238,7.329728 3.690128,7.685201 3.689994,8.160687 3.690232,8.399551 3.690232,9.287919 3.690078,9.566202 3.690072,9.6447 3.689886,9.840954 3.689886,10.740233 3.689897,11.162738 3.690238,11.801976 3.535959,11.801976 3.45214,11.802062 3.452036,11.195146 3.452183,11.09437 3.452221,10.056515 3.451912,9.818675 3.451897,9.67638 3.452044,8.987075 3.452105,8.888928 3.452177,8.724366 3.452112,8.695283 3.452111,8.448782 3.452306,8.337579 3.452419,7.725415 3.452365,7.329642" style="fill: white" /><polygon type="contour" points="3.690015,7.083719 3.690264,7.172313 3.690307,7.184315 3.547509,7.184315 3.547288,7.104904 3.547206,7.083165 3.57451,7.083153" style="fill: white" /><polygon type="contour" points="3.611483,6.528585 3.689993,6.528585 3.689964,6.577796 3.69003,6.629598 3.54723,6.629598 3.54762,6.578475 3.547509,6.52827" style="fill: white" /><polygon type="contour" points="3.629845,3.357021 3.690361,3.357162 3.689905,3.444646 3.689905,3.532588 3.690032,3.535556 3.690022,3.547223 3.690022,3.690023 3.547221,3.690023 3.535555,3.690033 3.444645,3.689906 3.44038,3.690268 3.357037,3.69024 3.357219,3.505789 3.357026,3.419497 3.357026,3.357028 3.628234,3.356745" style="fill: white" /><polygon type="contour" points="4.257399,3.547391 4.257554,3.6176 4.257554,3.690228 4.169796,3.689953 4.061714,3.689953 4.061714,3.547154 4.158228,3.547074" style="fill: white" /><polygon type="contour" points="6.629596,3.547231 6.629596,3.690032 6.578826,3.69007 6.528584,3.689995 6.528269,3.62602 6.528269,3.547511 6.577794,3.547166" style="fill: white" /><polygon type="contour" points="6.075298,4.975096 6.075298,5.297883 6.075294,5.307585 6.073261,5.307585 6.071356,5.30762 6.070401,5.307616 6.069212,5.307613 6.067936,5.30761 6.066868,5.307628 6.065565,5.307636 6.034916,5.308651 6.029826,5.308467 6.021039,5.308188 6.01644,5.308427 6.009075,5.308831 6.008576,5.308304 5.886168,5.308463 5.872369,5.308426 5.862111,5.308713 5.847902,5.308086 5.831947,5.308382 5.812912,5.308668 5.79378,5.308141 5.611588,5.308072 5.611773,5.155887 5.611773,4.975671 5.793779,4.975641 5.812912,4.976169 5.8314,4.976189 5.847902,4.975586 5.862111,4.976212 5.8748,4.976048 5.886167,4.975962 5.897159,4.975636 5.907215,4.975516 5.912047,4.97572 5.917288,4.975927 5.928253,4.975856 5.936885,4.97567 5.945843,4.975733 5.952506,4.975809 6.070401,4.975117 6.071356,4.975094" style="fill: white" /><polygon type="contour" points="6.629596,4.975706 6.629596,5.155626 6.629789,5.308 6.580429,5.308169 6.528584,5.308348 6.528584,4.975848 6.577795,4.975679" style="fill: white" /><polygon type="contour" points="7.174539,4.975841 7.184313,4.975872 7.184313,5.263506 7.184274,5.308309 7.106343,5.308087 7.083715,5.308087 7.083715,5.05023 7.083689,4.975622" style="fill: white" /><polygon type="contour" points="7.170008,5.611779 7.184274,5.611779 7.184274,5.816696 7.184313,5.846827 7.107221,5.846622 7.103307,5.846681 7.083769,5.846557 7.083769,5.637315 7.083715,5.611545" style="fill: white" /><polygon type="contour" points="6.629789,5.745434 6.629596,5.845395 6.577756,5.845641 6.528223,5.845335 6.528223,5.728967 6.528584,5.611811 6.577795,5.611808 6.629789,5.611805" style="fill: white" /><polygon type="contour" points="6.064957,5.611685 6.06669,5.611703 6.068329,5.611698 6.069809,5.611679 6.070737,5.611684 6.075307,5.611689 6.075288,5.620515 6.075288,5.843504 6.071356,5.843502 6.070767,5.843506 6.069811,5.843471 6.068519,5.843479 6.066939,5.843479 6.04962,5.843563 6.043586,5.843531 6.04018,5.843655 6.028396,5.843514 6.022195,5.843648 6.010979,5.843818 6.008641,5.843818 5.975212,5.843312 5.975,5.843729 5.963442,5.843573 5.954797,5.843735 5.908327,5.843696 5.906506,5.843516 5.843541,5.843868 5.843695,5.908329 5.843733,5.954799 5.843571,5.963444 5.843925,5.989542 5.844017,5.989894 5.843934,5.990233 5.843997,5.994856 5.843871,6.009549 5.84384,6.022253 5.843512,6.028397 5.843654,6.040181 5.843529,6.043587 5.84349,6.049902 5.843457,6.067027 5.843476,6.068521 5.84347,6.069814 5.843505,6.07077 5.843501,6.071357 5.843502,6.075309 5.611687,6.075309 5.611685,6.073449 5.611679,6.071356 5.611681,6.070739 5.611669,6.069686 5.611696,6.068331 5.611706,6.066871 5.611611,6.051605 5.611836,6.039093 5.611719,6.0298 5.611748,6.02185 5.611876,6.005364 5.611738,6.005045 5.611843,5.894023 5.611745,5.87237 5.611747,5.855258 5.611939,5.835857 5.611844,5.817745 5.61154,5.80114 5.611803,5.787517 5.611922,5.778385 5.611698,5.77287 5.611736,5.771653 5.611671,5.770087 5.611631,5.744768 5.611798,5.736127 5.611703,5.72788 5.611591,5.720174 5.611664,5.713316 5.611733,5.710593 5.611624,5.707607 5.611714,5.705874 5.611717,5.611718 5.701677,5.611634 5.702462,5.611634 5.70564,5.611606 5.71006,5.611757 5.716435,5.611641 5.723698,5.611707 5.731756,5.611634 5.733426,5.611727 5.740112,5.611657 5.742649,5.611539 5.748806,5.611633 5.757518,5.611587 5.761722,5.611658 5.765886,5.61173 5.769416,5.611575 5.769776,5.611627 5.777597,5.611808 5.787516,5.611805 5.801138,5.611542 5.817743,5.611846 5.835857,5.61194 5.855255,5.611749 5.872368,5.611747 5.894022,5.611846 6.005556,5.611923 6.008098,5.611714 6.011382,5.612034 6.022901,5.611943 6.026897,5.611819 6.029973,5.611451 6.040562,5.611429" style="fill: white" /><polygon type="contour" points="5.308706,5.787701 5.30814,5.793781 5.308667,5.812914 5.308688,5.831402 5.308085,5.847904 5.308711,5.862112 5.308425,5.87237 5.308461,5.886169 5.308729,6.008493 5.307976,6.008715 5.307615,6.065 5.307634,6.065568 5.307588,6.06755 5.307638,6.068523 5.307609,6.069286 5.307618,6.071356 5.307583,6.075296 5.297881,6.0753 4.975095,6.0753 4.975099,6.07077 4.975091,6.068905 4.975069,6.068292 4.975117,6.067076 4.975328,6.041797 4.97552,6.035483 4.975258,6.026652 4.975601,6.018597 4.975454,6.011146 4.975454,6.006026 4.975634,5.893125 4.975634,5.889536 4.976166,5.87813 4.975242,5.866208 4.976255,5.851702 4.97603,5.836417 4.975637,5.818766 4.975669,5.611775 5.097336,5.611589 5.308071,5.611589" style="fill: white" /><polygon type="contour" points="5.308071,5.097338 5.308071,5.308072 5.155887,5.308491 4.975669,5.308491 4.975669,5.155887 4.975785,4.975788 5.164578,4.975788 5.308489,4.975671" style="fill: white" /><polygon type="contour" points="4.257399,5.16458 4.257457,5.308491 4.151603,5.308491 4.06201,5.308439 4.062157,5.155888 4.061909,4.97579 4.161237,4.97579 4.257399,4.975788" style="fill: white" /><polygon type="contour" points="4.257651,5.798856 4.257878,5.813907 4.257399,5.831823 4.257553,5.852301 4.257465,5.872371 4.257492,5.988935 4.257523,6.001959 4.257661,6.015996 4.257647,6.017389 4.257453,6.023791 4.257655,6.038972 4.257606,6.044884 4.258149,6.066177 4.258165,6.0679 4.258154,6.069318 4.258167,6.070435 4.258179,6.071189 4.258163,6.0753 4.253647,6.075292 4.062175,6.075292 4.062175,6.072964 4.0622,6.070942 4.062169,6.070265 4.062192,6.069038 4.062182,6.067572 4.062199,6.065909 4.061789,6.043945 4.061749,6.037713 4.062062,6.021819 4.061837,6.014878 4.062225,6.013073 4.062004,5.99883 4.061754,5.966855 4.061892,5.948459 4.062061,5.867536 4.062151,5.84893 4.062,5.829048 4.062172,5.813907 4.062225,5.796483 4.062015,5.78355 4.06201,5.611815 4.17937,5.611815 4.257457,5.611775" style="fill: white" /><polygon type="contour" points="3.547286,5.611718 3.663941,5.611718 3.69019,5.611691 3.68996,5.777599 3.690304,5.787517 3.690085,5.800611 3.690074,5.814313 3.690161,5.817646 3.690345,5.831824 3.690439,5.835858 3.690248,5.855257 3.690245,5.87237 3.690081,5.989934 3.690148,5.990514 3.690224,6.00556 3.690019,6.006835 3.69014,6.016894 3.690058,6.027054 3.689927,6.040715 3.690184,6.065 3.690167,6.06687 3.690163,6.068521 3.690169,6.069687 3.690192,6.070694 3.690178,6.071357 3.690172,6.075295 3.547388,6.075295 3.547381,6.075258 3.547374,6.0749 3.547382,6.073792 3.547377,6.073506 3.547379,6.073454 3.54738,6.071357 3.547373,6.071167 3.547396,6.070514 3.547378,6.06942 3.547389,6.068018 3.547358,6.06639 3.547027,6.045641 3.547126,6.040715 3.54711,6.03852 3.547489,6.023739 3.547277,6.016675 3.547117,6.014858 3.54692,6.000979 3.547397,5.944208 3.495097,5.945154 3.452248,5.944951 3.442749,5.94491 3.440881,5.944876 3.356849,5.94475 3.356849,5.691829 3.357037,5.61174 3.444645,5.612052 3.537703,5.611648" style="fill: white" /><polygon type="contour" points="3.617598,4.97579 3.690226,4.97579 3.690008,5.113498 3.690088,5.308072 3.547287,5.308072 3.547473,5.155887 3.547389,4.975787" style="fill: white" /><polygon type="contour" points="3.689951,4.169798 3.690226,4.257556 3.6283,4.257401 3.547389,4.257401 3.547427,4.16124 3.547152,4.061715 3.689951,4.061715" style="fill: white" /><polygon type="contour" points="4.161237,4.061911 4.257554,4.061911 4.257554,4.161239 4.257399,4.257401 4.146738,4.257401 4.061909,4.257556 4.061714,4.169798 4.061714,4.061715" style="fill: white" /><polygon type="contour" points="5.155887,4.062158 5.308437,4.062011 5.308489,4.151605 5.308489,4.257458 5.155886,4.257458 4.975785,4.257401 4.975785,4.14674 4.975788,4.061911" style="fill: white" /><polygon type="contour" points="5.308071,3.69009 5.155886,3.690275 4.975788,3.690228 4.975788,3.617599 4.975785,3.547391 5.155886,3.547474 5.308071,3.547289" style="fill: white" /><polygon type="contour" points="5.944908,3.442749 5.944949,3.45225 5.944908,3.495075 5.944492,3.548426 6.000533,3.547075 6.014801,3.547273 6.016675,3.547278 6.02384,3.547286 6.038518,3.547111 6.040712,3.547128 6.064998,3.547385 6.066338,3.547377 6.068015,3.54739 6.069419,3.547378 6.0704,3.547376 6.071165,3.547375 6.071356,3.547381 6.075293,3.547389 6.075307,3.55024 6.075307,3.690173 6.073446,3.690187 6.071356,3.690181 6.070692,3.690193 6.069685,3.690171 6.06833,3.690198 6.066691,3.690163 6.064957,3.690185 6.043175,3.690112 6.026982,3.690112 6.01671,3.689955 6.004165,3.690068 5.989166,3.690345 5.976229,3.690236 5.851701,3.690104 5.800858,3.690174 5.800679,3.69026 5.769416,3.690076 5.611694,3.690002 5.611694,3.586656 5.611717,3.547289 5.611648,3.537705 5.612049,3.532588 5.612049,3.444646 5.611765,3.440382 5.611738,3.357039 5.691826,3.356851 5.944748,3.356851" style="fill: white" /><polygon type="contour" points="6.065039,4.062195 6.066731,4.062197 6.068519,4.062191 6.069649,4.062179 6.070737,4.062198 6.071356,4.062197 6.07529,4.062177 6.075298,4.067889 6.075298,4.258165 6.070698,4.258183 6.06965,4.25818 6.06833,4.258164 6.06673,4.258158 6.064998,4.258154 6.040713,4.257621 6.026508,4.257397 6.01701,4.257363 6.008724,4.257532 6.005902,4.257526 5.895366,4.257506 5.876789,4.257572 5.857791,4.257764 5.838395,4.257377 5.820205,4.257548 5.803383,4.257483 5.611773,4.257458 5.611814,4.179372 5.611814,4.062011 5.803383,4.062182 5.820205,4.062247 5.838395,4.062077 5.857792,4.062024 5.87679,4.062273 5.893122,4.062207 5.974034,4.062052 6.007187,4.061839 6.015809,4.062064 6.026745,4.062098 6.040863,4.061771" style="fill: white" /><polygon type="contour" points="6.577795,4.062195 6.629596,4.062337 6.629596,4.257638 6.578825,4.257494 6.528584,4.257359 6.528584,4.062058" style="fill: white" /><polygon type="contour" points="7.172312,4.062294 7.184313,4.062347 7.184313,4.257648 7.105451,4.257946 7.083689,4.257965 7.083717,4.220535 7.083717,4.062003" style="fill: white" /><polygon type="contour" points="7.176155,3.547474 7.184313,3.54751 7.184313,3.690309 7.10545,3.69009 7.083717,3.690016 7.083151,3.574512 7.083162,3.547208" style="fill: white" /><polygon type="contour" points="9.359949,3.451926 9.365691,3.451921 9.435266,3.451921 9.45547,3.451931 10.144671,3.452103 10.242772,3.452108 10.407335,3.452178 10.436419,3.452113 10.684599,3.452252 10.794122,3.452015 11.406287,3.451924 11.80206,3.452142 11.801974,3.53596 11.801974,3.69024 11.162736,3.689899 10.740231,3.689888 9.840951,3.689888 9.644698,3.690073 9.287916,3.690234 8.399549,3.690234 8.160685,3.689995 7.685199,3.69013 7.329726,3.69024 7.329726,3.53596 7.32964,3.452365 7.936555,3.452451 8.036142,3.452389 8.587793,3.452091 8.850947,3.451928 8.984026,3.451915 9.282703,3.451899" style="fill: white" /><polygon type="contour" points="8.606449,4.062133 8.861023,4.062256 8.890059,4.062304 9.128462,4.062108 9.189393,4.062091 9.841694,4.06203 10.145457,4.06203 10.210127,4.062116 10.291149,4.062142 10.317707,4.062099 10.552405,4.062006 10.660416,4.062106 11.385776,4.062062 11.80206,4.062245 11.80206,4.257768 11.408399,4.257901 10.938234,4.257958 10.8295,4.257809 10.548011,4.257796 10.28329,4.257859 10.252774,4.257905 9.652303,4.257593 9.589856,4.257537 9.436137,4.257537 9.376191,4.257593 8.877195,4.258118 8.846437,4.258068 8.580078,4.25797 8.188419,4.257622 8.08214,4.257808 7.32964,4.257768 7.32964,4.062245 7.892229,4.062128 7.988943,4.061955" style="fill: white" /><polygon type="contour" points="9.518753,4.975327 10.012858,4.976412 10.135977,4.975281 10.503561,4.976178 10.623977,4.975981 11.024818,4.975199 11.028116,4.975271 11.165926,4.97552 11.441425,4.975983 11.510719,4.975879 11.768502,4.975879 11.80206,4.975867 11.80206,5.308367 11.755395,5.309193 11.588557,5.308349 11.530773,5.308457 11.313252,5.308116 11.273168,5.307901 11.133898,5.308101 11.027134,5.307887 10.803053,5.30818 10.778226,5.308276 10.288324,5.308548 10.205549,5.308486 9.751085,5.308612 9.499629,5.308612 8.984346,5.308309 8.929553,5.308216 8.46598,5.308265 8.131426,5.307862 8.104053,5.307744 8.06569,5.308202 7.858531,5.307901 7.600927,5.308457 7.543141,5.308349 7.376114,5.308349 7.32964,5.308367 7.32964,4.975867 7.363197,4.975879 7.620981,4.975879 7.690276,4.975983 7.926102,4.975701 7.965773,4.975521 8.104955,4.975655 8.272642,4.975267 8.749972,4.976 8.847762,4.976141 9.183506,4.976141 9.278327,4.975119" style="fill: white" /><polygon type="contour" points="10.555208,5.6119 10.897028,5.611826 11.004507,5.611886 11.409614,5.612057 11.80206,5.611868 11.80206,5.847205 11.79546,5.847204 11.424778,5.848344 11.335905,5.84857 11.254447,5.848647 11.066893,5.849092 11.002748,5.849406 10.665289,5.85032 10.24224,5.85088 10.132408,5.851133 10.087127,5.851277 10.063399,5.851323 10.029072,5.851432 9.584085,5.852604 9.581166,5.852604 9.574712,5.852629 9.567503,5.852629 9.567011,5.852671 9.566199,5.852671 9.564908,5.852631 9.564113,5.852629 9.55766,5.852629 9.118395,5.851474 9.107538,5.851431 9.036863,5.851251 8.957264,5.851017 8.933305,5.85101 8.466409,5.85032 8.128951,5.849406 7.976939,5.849037 7.795796,5.84857 7.70692,5.848343 7.336239,5.847204 7.32964,5.847205 7.32964,5.611867 8.101166,5.612004 8.207907,5.611959 8.572933,5.612153 8.842514,5.612097 8.873753,5.61217 9.418176,5.611852 9.43015,5.611846 9.675387,5.611846 9.687494,5.611853 10.25623,5.611861 10.287228,5.611794" style="fill: white" /><polygon type="contour" points="12.047985,5.05023 12.047985,5.308087 11.961691,5.308309 11.947425,5.308309 11.947425,5.022867 11.947387,4.975872 12.026248,4.975685 12.048011,4.975623" style="fill: white" /><polygon type="contour" points="12.047985,5.798829 12.047931,5.846556 11.955545,5.846802 11.947387,5.846827 11.947387,5.640335 11.947425,5.611779 12.025357,5.611545 12.047985,5.611545" style="fill: white" /><polygon type="contour" points="12.55127,5.611807 12.603117,5.611811 12.603478,5.728967 12.603478,5.845335 12.553906,5.845131 12.502104,5.845395 12.502104,5.708276 12.50191,5.611805" style="fill: white" /><polygon type="contour" points="13.104801,5.611819 13.108797,5.611943 13.120317,5.612034 13.123601,5.611714 13.126143,5.611923 13.237677,5.611846 13.256694,5.611697 13.276444,5.611749 13.295842,5.61194 13.313956,5.611846 13.330562,5.611542 13.344184,5.611805 13.354103,5.611808 13.358832,5.611699 13.360048,5.611737 13.382888,5.611751 13.389051,5.611539 13.391587,5.611657 13.398273,5.611728 13.399943,5.611635 13.407007,5.611683 13.41471,5.611617 13.421108,5.611734 13.426059,5.611606 13.429237,5.611634 13.519984,5.611718 13.519986,5.705875 13.520076,5.707608 13.519968,5.710592 13.520036,5.713316 13.520109,5.720174 13.519996,5.72788 13.519903,5.736127 13.520068,5.744767 13.520028,5.770087 13.519964,5.771653 13.520002,5.772869 13.519779,5.778384 13.519856,5.787057 13.52016,5.80114 13.519855,5.817745 13.519761,5.835858 13.519954,5.855257 13.520004,5.875453 13.519856,5.893124 13.519962,6.004278 13.519625,6.005151 13.519758,6.022903 13.51998,6.029586 13.520154,6.04609 13.520014,6.06496 13.519997,6.066692 13.520002,6.068331 13.520021,6.069811 13.520007,6.070695 13.520012,6.075309 13.511185,6.07529 13.288197,6.07529 13.288199,6.071356 13.288212,6.070793 13.288229,6.069814 13.288223,6.068521 13.288223,6.06694 13.28814,6.049624 13.288171,6.043587 13.288046,6.040182 13.28807,6.030621 13.288188,6.028398 13.287859,6.022253 13.287691,6.011079 13.287691,6.007879 13.287723,5.99726 13.287963,5.991043 13.287682,5.989895 13.287794,5.989468 13.28813,5.963443 13.287966,5.954798 13.288006,5.908329 13.288323,5.906995 13.287592,5.843546 13.223371,5.843696 13.176901,5.843734 13.168257,5.843573 13.143047,5.843893 13.141595,5.84357 13.135352,5.843632 13.121963,5.84368 13.110081,5.843648 13.103762,5.843514 13.091825,5.843654 13.088387,5.843531 13.082079,5.843563 13.06476,5.843479 13.063179,5.843479 13.061887,5.843471 13.060931,5.843506 13.060344,5.843503 13.056392,5.843504 13.056392,5.611688 13.058253,5.611687 13.060343,5.611682 13.060963,5.611684 13.062015,5.611672 13.06337,5.611699 13.065009,5.611703 13.066742,5.611686 13.088524,5.611613 13.101726,5.611451" style="fill: white" /><polygon type="contour" points="13.061298,4.975117 13.062486,4.975114 13.063763,4.975111 13.064831,4.975129 13.09088,4.975383 13.092528,4.975575 13.122531,4.975749 13.122922,4.975315 13.123172,4.975615 13.238577,4.975636 13.245532,4.975962 13.2569,4.976048 13.269589,4.976213 13.283798,4.975586 13.299753,4.975459 13.318786,4.976169 13.33792,4.975641 13.519926,4.975671 13.520113,5.097337 13.520113,5.308072 13.348779,5.308651 13.337919,5.308141 13.332524,5.307947 13.317794,5.308077 13.3003,5.30869 13.283797,5.308086 13.269589,5.308713 13.259331,5.308427 13.245533,5.308462 13.12312,5.308304 13.122623,5.308831 13.117105,5.308541 13.106498,5.30872 13.101871,5.308468 13.096782,5.308651 13.066133,5.307635 13.065008,5.30761 13.063763,5.30761 13.062487,5.307613 13.061297,5.307616 13.060344,5.307619 13.056392,5.307685 13.056402,5.297884 13.056402,4.975096 13.060344,4.975094" style="fill: white" /><polygon type="contour" points="12.552874,4.975898 12.603117,4.975848 12.603117,5.308348 12.553905,5.308178 12.50191,5.308 12.50191,5.132657 12.502104,4.975706" style="fill: white" /><polygon type="contour" points="12.553226,3.547622 12.603432,3.547511 12.603117,3.611483 12.603117,3.689995 12.553905,3.689966 12.502104,3.690032 12.502104,3.61276 12.502103,3.547231" style="fill: white" /><polygon type="contour" points="12.048549,3.574512 12.047982,3.690016 11.959388,3.690266 11.947387,3.690309 11.947387,3.54751 12.026798,3.54729 12.048538,3.547208" style="fill: white" /><polygon type="contour" points="12.047983,4.220535 12.048011,4.257965 11.95716,4.257646 11.947387,4.257648 11.947387,4.062348 12.026248,4.062096 12.047983,4.062002" style="fill: white" /><polygon type="contour" points="12.603117,4.257359 12.553905,4.257497 12.502104,4.257638 12.502104,4.062337 12.552874,4.062194 12.603117,4.062058" style="fill: white" /><polygon type="contour" points="13.105192,4.06186 13.115891,4.062063 13.124512,4.061839 13.157665,4.062052 13.238576,4.062207 13.25491,4.062273 13.273906,4.062024 13.293304,4.062077 13.311494,4.062247 13.328316,4.062182 13.519887,4.062011 13.519887,4.179371 13.519926,4.257458 13.328316,4.257483 13.311494,4.257548 13.293304,4.257376 13.273906,4.257764 13.254911,4.257572 13.236333,4.257506 13.125797,4.257526 13.122975,4.257532 13.114689,4.257363 13.105191,4.257397 13.090986,4.257621 13.066701,4.258154 13.064969,4.258158 13.063369,4.258164 13.06189,4.258164 13.060963,4.258167 13.056402,4.258164 13.056409,4.253649 13.056409,4.062177 13.058737,4.062177 13.060344,4.062197 13.060962,4.062198 13.06189,4.062196 13.06337,4.062163 13.064968,4.062197 13.066701,4.062153 13.090986,4.061621" style="fill: white" /><polygon type="contour" points="13.519963,3.357039 13.519652,3.444646 13.520052,3.537705 13.519984,3.547288 13.519984,3.663943 13.52001,3.690192 13.353316,3.690075 13.344642,3.689977 13.33109,3.690086 13.317388,3.690076 13.314056,3.690164 13.299877,3.690346 13.295842,3.69044 13.276444,3.690249 13.256248,3.689751 13.123644,3.689877 13.11428,3.690191 13.104483,3.690112 13.088388,3.690112 13.0667,3.690185 13.065009,3.690163 13.06337,3.690198 13.062014,3.690171 13.060963,3.690183 13.060343,3.69018 13.056392,3.690174 13.056407,3.687323 13.056407,3.547389 13.058246,3.547381 13.060343,3.547381 13.060533,3.547375 13.061186,3.547396 13.062212,3.547398 13.063683,3.547389 13.065362,3.547377 13.066701,3.547386 13.088387,3.547312 13.090403,3.547297 13.107859,3.547286 13.115025,3.547278 13.116842,3.547118 13.130722,3.546922 13.187495,3.547399 13.186548,3.495099 13.186751,3.452249 13.186793,3.442749 13.186826,3.440882 13.186951,3.356851 13.439873,3.356851" style="fill: white" /><polygon type="contour" points="13.975814,3.547474 14.155915,3.547391 14.155911,3.6176 14.155911,3.690228 13.975814,3.690275 13.823629,3.69009 13.823629,3.547289" style="fill: white" /><polygon type="contour" points="14.155911,4.161239 14.155915,4.257401 13.967121,4.257401 13.823211,4.257458 13.823262,4.179371 13.823262,4.062011 13.975813,4.062158 14.155911,4.061911" style="fill: white" /><polygon type="contour" points="14.155915,4.975788 14.155915,5.16458 14.15603,5.308491 14.034362,5.308072 13.823629,5.308072 13.823211,5.155887 13.823211,4.975671 13.975814,4.975671" style="fill: white" /><polygon type="contour" points="14.15603,5.611775 14.155374,5.799631 14.156063,5.818767 14.155667,5.836416 14.155445,5.851702 14.156457,5.866207 14.155979,5.877237 14.156066,5.889535 14.156066,5.900303 14.155857,5.910083 14.156337,5.92012 14.155846,5.928253 14.156493,5.939544 14.155918,5.948268 14.156367,6.053562 14.156585,6.069588 14.156594,6.070744 14.156606,6.0753 13.833818,6.075299 13.824118,6.075296 13.824118,6.073263 13.824083,6.071356 13.824091,6.069259 13.824063,6.068523 13.824115,6.067494 13.824054,6.065346 13.823466,6.00864 13.82297,6.008494 13.823238,5.886169 13.823275,5.87237 13.822989,5.862113 13.823181,5.848338 13.823011,5.831402 13.823623,5.813906 13.82356,5.793781 13.823629,5.611589 14.034362,5.611589" style="fill: white" /><polygon type="contour" points="14.156023,6.577795 14.155996,6.629598 13.976074,6.629598 13.8237,6.62979 13.823531,6.58043 13.823354,6.528585 14.155854,6.528585" style="fill: white" /><polygon type="contour" points="13.519889,6.528585 13.519893,6.577795 13.519896,6.62979 13.386267,6.62979 13.286308,6.629598 13.286063,6.577758 13.286369,6.528225 13.402736,6.528225" style="fill: white" /><polygon type="contour" points="13.519922,7.17001 13.519922,7.184276 13.315004,7.184276 13.284876,7.184315 13.285077,7.107445 13.28502,7.103309 13.285144,7.083771 13.494387,7.083771 13.520158,7.083717" style="fill: white" /><polygon type="contour" points="14.155822,7.3632 14.155822,7.620982 14.15572,7.690276 14.156,7.926104 14.156181,7.965775 14.156047,8.104956 14.156434,8.272644 14.1557,8.749974 14.15556,8.847764 14.15556,9.183507 14.156584,9.278328 14.156375,9.518755 14.155288,10.012861 14.156419,10.13598 14.155523,10.503563 14.155719,10.623979 14.156502,11.024821 14.156431,11.028118 14.156181,11.165928 14.15572,11.441427 14.155822,11.510721 14.155822,11.768503 14.155835,11.802062 13.823335,11.802062 13.823352,11.755588 13.823352,11.588559 13.823244,11.530776 13.823587,11.313253 13.823801,11.27317 13.8236,11.133901 13.823815,11.027136 13.82352,10.803055 13.823424,10.778228 13.823153,10.288325 13.823214,10.205551 13.82309,9.751087 13.82309,9.499632 13.823392,8.984347 13.823485,8.929555 13.823435,8.465982 13.823838,8.131428 13.823957,8.104054 13.823498,8.065691 13.823801,7.858533 13.823244,7.600928 13.823352,7.543144 13.823352,7.376115 13.823335,7.329642 14.155835,7.329642" style="fill: white" /><polygon type="contour" points="14.15586,7.174541 14.15583,7.184315 13.868196,7.184315 13.823392,7.184276 13.823615,7.106344 13.823615,7.083717 14.08147,7.083717 14.156079,7.083691" style="fill: white" /><polygon type="contour" points="14.911165,7.083719 15.069699,7.083719 15.069407,7.172314 15.069353,7.184315 14.874054,7.184315 14.873754,7.105452 14.873735,7.083691" style="fill: white" /><polygon type="contour" points="15.069505,6.577796 15.069365,6.629598 14.874065,6.629598 14.874205,6.578827 14.874343,6.528585 15.069643,6.528585" style="fill: white" /><polygon type="contour" points="15.584535,6.577795 15.58447,6.629598 15.441669,6.629598 15.441632,6.578826 15.441706,6.528585 15.50568,6.52827 15.584191,6.52827" style="fill: white" /><polygon type="contour" points="15.584494,7.083165 15.584227,7.176156 15.584191,7.184315 15.44139,7.184315 15.441609,7.105453 15.441685,7.083719 15.557189,7.083153" style="fill: white" /><polygon type="contour" points="15.679408,7.607283 15.679291,9.105419 15.679479,9.111062 15.679524,9.172759 15.679596,9.300289 15.67977,9.849076 15.679763,9.912286 15.679715,10.250613 15.679774,10.280755 15.679744,10.542013 15.679516,11.094371 15.67925,11.195146 15.679335,11.802062 15.59574,11.801976 15.44146,11.801976 15.441802,11.162738 15.441814,10.740232 15.441814,9.840954 15.441628,9.644701 15.441623,9.566201 15.441706,9.170548 15.441706,8.160687 15.441572,7.685201 15.44146,7.329728 15.59574,7.329728 15.679559,7.329642" style="fill: white" /><polygon type="contour" points="15.069574,7.892233 15.069747,7.988944 15.069568,8.60645 15.069446,8.861023 15.069263,8.890062 15.069511,9.128464 15.069613,9.189395 15.069671,9.841697 15.069671,10.145461 15.069584,10.210128 15.069432,10.291151 15.069602,10.317709 15.069695,10.552407 15.069595,10.660418 15.069638,11.385779 15.069457,11.802062 14.873933,11.802062 14.873798,11.4084 14.873742,10.938234 14.873893,10.829501 14.873906,10.548012 14.873842,10.283292 14.873796,10.252774 14.874108,9.652305 14.874165,9.589856 14.874165,9.436139 14.874109,9.376192 14.873583,8.877196 14.873633,8.846438 14.873732,8.58008 14.87408,8.188419 14.87389,8.082142 14.873933,7.329642 15.069457,7.329642" style="fill: white" /><polygon type="contour" points="15.069605,12.02625 15.069699,12.047985 14.911165,12.047985 14.873735,12.048013 14.874055,11.957162 14.874053,11.947389 15.069353,11.947389" style="fill: white" /><polygon type="contour" points="15.58441,12.026799 15.584494,12.048539 15.557188,12.04855 15.441685,12.047985 15.441432,11.95939 15.44139,11.947389 15.584192,11.947389" style="fill: white" /><polygon type="contour" points="15.774663,15.441463 15.774478,15.625915 15.774672,15.712207 15.774672,15.774675 15.503462,15.774959 15.501853,15.774681 15.44134,15.774541 15.441795,15.687056 15.441795,15.599118 15.441668,15.596147 15.441679,15.58448 15.441679,15.441681 15.584478,15.441681 15.596145,15.441671 15.687055,15.441798 15.691318,15.441436" style="fill: white" /><polygon type="contour" points="13.362282,15.441627 13.520006,15.441701 13.520006,15.545045 13.519984,15.584415 13.520052,15.593997 13.519652,15.599116 13.519652,15.687057 13.519932,15.691321 13.519963,15.774665 13.439873,15.774853 13.186951,15.774853 13.186792,15.688953 13.186751,15.679453 13.186792,15.636628 13.187208,15.583438 13.131076,15.58478 13.116841,15.584583 13.115025,15.584424 13.107859,15.584418 13.090403,15.584407 13.088387,15.584392 13.0667,15.584319 13.06531,15.584345 13.063603,15.58433 13.062281,15.584326 13.061297,15.584328 13.060533,15.58433 13.060343,15.584323 13.056407,15.584316 13.056392,15.581463 13.056392,15.44153 13.058253,15.441517 13.060343,15.441523 13.061006,15.441511 13.061889,15.441525 13.063178,15.441539 13.065009,15.441541 13.0667,15.441519 13.088388,15.441592 13.104482,15.44159 13.114752,15.441748 13.127177,15.441636 13.140657,15.441751 13.155469,15.441469 13.28,15.441601 13.330448,15.44153 13.330631,15.441444" style="fill: white" /><polygon type="contour" points="12.603117,15.441707 12.603432,15.50568 12.603432,15.584193 12.553905,15.584537 12.502104,15.584472 12.502104,15.44167 12.552874,15.441633" style="fill: white" /><polygon type="contour" points="11.801974,15.595743 11.80206,15.679337 11.406286,15.679282 10.794123,15.679395 10.436418,15.679591 10.407481,15.679525 10.242906,15.679594 10.144625,15.679657 10.115775,15.679613 10.001138,15.67961 9.365691,15.679783 9.359949,15.679778 9.282702,15.679805 9.219489,15.679766 8.881229,15.679715 8.850946,15.679775 8.589689,15.679745 8.03733,15.679518 7.936555,15.679666 7.32964,15.679561 7.329726,15.595743 7.329726,15.441463 7.621611,15.441566 8.160685,15.441709 8.399549,15.44147 9.287916,15.44147 9.566199,15.441625 9.644698,15.441631 9.840951,15.441816 10.74023,15.441816 11.162737,15.441804 11.801974,15.441463" style="fill: white" /><polygon type="contour" points="12.026248,15.441611 12.047982,15.441687 12.048549,15.55719 12.048538,15.584495 11.955545,15.58423 11.947387,15.584195 11.947387,15.441393" style="fill: white" /><polygon type="contour" points="12.047983,14.911167 12.047983,15.069702 11.959387,15.06941 11.947387,15.069356 11.947387,14.874057 12.026248,14.873756 12.048011,14.873738" style="fill: white" /><polygon type="contour" points="12.552873,14.874209 12.603117,14.874345 12.603117,15.069644 12.553906,15.069508 12.502104,15.069367 12.502104,14.874067" style="fill: white" /><polygon type="contour" points="13.063369,14.873539 13.064831,14.873556 13.066659,14.87355 13.090836,14.874081 13.104954,14.874307 13.11589,14.874341 13.124512,14.874173 13.12759,14.874178 13.238577,14.874197 13.25491,14.874131 13.273906,14.873942 13.293304,14.874328 13.311493,14.874157 13.328317,14.874221 13.342418,14.873799 13.519926,14.874246 13.519887,14.952332 13.519887,15.069692 13.342417,15.06947 13.328317,15.069521 13.311493,15.069456 13.293304,15.069626 13.273906,15.069679 13.25491,15.069431 13.238576,15.069497 13.157665,15.069652 13.124512,15.069865 13.115891,15.069641 13.104953,15.069606 13.090837,15.069932 13.066659,15.069508 13.064831,15.069515 13.06337,15.069539 13.06189,15.069506 13.060963,15.069503 13.060344,15.069506 13.056409,15.069526 13.056402,15.063813 13.056402,14.873539 13.060963,14.873536 13.062048,14.873525" style="fill: white" /><polygon type="contour" points="14.15603,13.975815 14.155915,14.155916 13.967121,14.155916 13.823211,14.156032 13.823629,14.034364 13.823629,13.823632 13.975813,13.823213 14.15603,13.823213" style="fill: white" /><polygon type="contour" points="14.155915,14.874303 14.155915,14.984963 14.155911,15.069793 13.975813,15.069545 13.823262,15.069692 13.823211,14.980098 13.823211,14.874246 13.975814,14.874246" style="fill: white" /><polygon type="contour" points="14.155911,15.441476 14.155911,15.514103 14.155915,15.584314 13.975814,15.584229 13.823629,15.584415 13.823629,15.441614 13.975814,15.441428" style="fill: white" /><polygon type="contour" points="14.961901,15.44175 15.069986,15.44175 15.069986,15.58455 14.97347,15.58463 14.874301,15.584313 14.874146,15.514103 14.874146,15.441476" style="fill: white" /><polygon type="contour" points="15.069986,14.961903 15.069986,15.069988 14.970461,15.069793 14.874146,15.069793 14.874146,14.970463 14.874301,14.874304 14.98496,14.874304 15.06979,14.874148" style="fill: white" /><polygon type="contour" points="15.503402,14.874304 15.584313,14.874304 15.584274,14.970465 15.584548,15.069988 15.505801,15.069988 15.441748,15.069989 15.441474,14.970464 15.441474,14.874148" style="fill: white" /><polygon type="contour" points="15.584228,13.975817 15.584313,14.155917 15.514102,14.155914 15.441474,14.155913 15.441691,14.018203 15.441611,13.823632 15.584413,13.823632" style="fill: white" /><polygon type="contour" points="15.06969,13.823265 15.069542,13.975816 15.06979,14.155913 14.970462,14.155913 14.874301,14.155916 14.874301,13.967122 14.874243,13.823213 14.980096,13.823213" style="fill: white" /><polygon type="contour" points="15.444377,13.056409 15.584313,13.056409 15.584321,13.058248 15.58432,13.060345 15.584327,13.060535 15.584303,13.061189 15.584303,13.062215 15.584311,13.063685 15.584341,13.065311 15.584478,13.083869 15.584389,13.088389 15.584404,13.090405 15.584415,13.107861 15.584422,13.115027 15.584583,13.116843 15.58478,13.130723 15.584302,13.187491 15.636602,13.186551 15.679451,13.186753 15.688951,13.186793 15.690819,13.186828 15.774851,13.186952 15.774851,13.439874 15.774663,13.519964 15.687055,13.519652 15.593997,13.520055 15.584412,13.519986 15.467757,13.519986 15.441509,13.520013 15.441789,13.360051 15.441627,13.353317 15.441723,13.344646 15.441615,13.331092 15.441626,13.317389 15.441537,13.314057 15.441355,13.299879 15.441261,13.295845 15.441454,13.276445 15.441454,13.259332 15.441616,13.143394 15.441706,13.142535 15.44198,13.127178 15.441657,13.126208 15.441792,13.123908 15.441541,13.114901 15.441381,13.104803 15.441771,13.091137 15.441516,13.066744 15.441537,13.06501 15.441536,13.06318 15.44153,13.062017 15.441518,13.060965 15.44152,13.060345 15.441527,13.056394" style="fill: white" /><polygon type="contour" points="15.584079,12.553228 15.584191,12.603433 15.520217,12.603119 15.441706,12.603119 15.441734,12.553908 15.441669,12.502107 15.58447,12.502107" style="fill: white" /><polygon type="contour" points="15.069507,12.552877 15.069643,12.603119 14.874342,12.603119 14.874206,12.553907 14.874064,12.502107 15.069365,12.502107" style="fill: white" /><polygon type="contour" points="14.878053,13.056411 15.069525,13.056411 15.069525,13.058739 15.069499,13.06076 15.069531,13.061438 15.069508,13.062664 15.069518,13.06413 15.0695,13.065795 15.069911,13.087756 15.069951,13.09399 15.069638,13.109885 15.069863,13.116826 15.069475,13.11863 15.069695,13.132873 15.069946,13.164848 15.069808,13.183241 15.069638,13.264166 15.069548,13.283208 15.0697,13.302654 15.069315,13.320181 15.069329,13.335664 15.069684,13.348152 15.06969,13.51989 14.95233,13.51989 14.874243,13.519929 14.874289,13.332913 14.874228,13.317795 14.8743,13.299879 14.874145,13.279402 14.874234,13.260221 14.874206,13.143477 14.874174,13.129743 14.874037,13.115705 14.874053,13.114314 14.874247,13.107912 14.874046,13.09273 14.874095,13.086819 14.873552,13.065526 14.873537,13.063802 14.873547,13.062384 14.873535,13.061269 14.873522,13.060514 14.873538,13.056404" style="fill: white" /><polygon type="contour" points="14.156602,13.060933 14.156609,13.062799 14.156632,13.063411 14.156584,13.064627 14.15637,13.089904 14.156179,13.096218 14.156442,13.105051 14.156187,13.111473 14.156247,13.120556 14.156247,13.125678 14.156066,13.238578 14.156066,13.242167 14.155532,13.253573 14.156457,13.265496 14.155762,13.279401 14.155669,13.295286 14.156063,13.312936 14.156029,13.519929 14.034362,13.520115 13.823629,13.520115 13.822994,13.344002 13.82356,13.337922 13.823033,13.318789 13.823011,13.300301 13.823614,13.283799 13.822989,13.269591 13.823275,13.259333 13.823238,13.245534 13.82297,13.123206 13.823792,13.122966 13.824097,13.066314 13.824074,13.064832 13.824092,13.063764 13.824063,13.063179 13.824091,13.062443 13.824083,13.060345 13.824118,13.056408 13.833819,13.056404 14.156606,13.056404" style="fill: white" /><polygon type="contour" points="14.155996,12.502107 14.155804,12.552877 14.155854,12.603119 13.823354,12.603119 13.823521,12.553908 13.8237,12.501913 13.999044,12.501913" style="fill: white" /><polygon type="contour" points="14.156016,12.02625 14.156079,12.048013 14.08147,12.047988 13.823615,12.047988 13.823392,11.961692 13.823392,11.947427 14.108834,11.947427 14.15583,11.947389" style="fill: white" /><polygon type="contour" points="13.519922,11.947427 13.520158,12.025359 13.520158,12.047988 13.332871,12.047988 13.285144,12.047932 13.284899,11.955547 13.284875,11.947389 13.491365,11.947389" style="fill: white" /><polygon type="contour" points="13.519893,12.551273 13.51989,12.603119 13.402735,12.603479 13.286368,12.603479 13.286572,12.553907 13.286308,12.502107 13.423425,12.502107 13.519897,12.501913" style="fill: white" /><polygon type="contour" points="13.520013,13.058255 13.520019,13.060346 13.520007,13.061009 13.520029,13.062016 13.520001,13.063372 13.519993,13.064832 13.52009,13.080099 13.519864,13.092609 13.51998,13.101903 13.519951,13.109852 13.519823,13.126338 13.519961,13.126658 13.519856,13.237681 13.520004,13.25625 13.519954,13.276445 13.519761,13.295845 13.519855,13.313958 13.52016,13.330564 13.519897,13.344186 13.519779,13.353318 13.520002,13.358833 13.519963,13.36005 13.520029,13.361617 13.520068,13.386935 13.519903,13.395576 13.519996,13.403822 13.520109,13.411528 13.520037,13.418387 13.519968,13.421111 13.520076,13.424095 13.519986,13.425828 13.519984,13.519986 13.430023,13.520068 13.426652,13.519945 13.421639,13.519947 13.415265,13.520063 13.408,13.519998 13.399944,13.52007 13.398273,13.519976 13.391587,13.520047 13.389051,13.520165 13.382893,13.520071 13.374182,13.520118 13.369975,13.520045 13.365813,13.519975 13.362282,13.520129 13.361923,13.520076 13.354103,13.519896 13.344184,13.519899 13.330562,13.520163 13.313956,13.519859 13.295842,13.519763 13.276444,13.519955 13.256694,13.520007 13.237677,13.519858 13.126143,13.51978 13.123601,13.51999 13.120317,13.519669 13.108797,13.51976 13.104801,13.519885 13.101726,13.520253 13.091137,13.520275 13.066741,13.520016 13.065009,13.519999 13.063178,13.520037 13.06189,13.520023 13.060963,13.520019 13.060343,13.520021 13.056392,13.520014 13.056412,13.511187 13.056412,13.288199 13.060343,13.288201 13.060908,13.288214 13.061887,13.288231 13.063066,13.288226 13.064751,13.288206 13.082064,13.288079 13.088113,13.288173 13.091519,13.288049 13.103303,13.28819 13.109504,13.288055 13.120721,13.287886 13.123934,13.287886 13.134595,13.28792 13.140704,13.287953 13.141805,13.287684 13.142242,13.287799 13.168257,13.288131 13.176901,13.287968 13.223371,13.288009 13.225192,13.288188 13.288156,13.287835 13.288006,13.223372 13.287966,13.176904 13.28802,13.173993 13.287625,13.155215 13.287845,13.142425 13.287682,13.141808 13.287964,13.140658 13.287723,13.134441 13.287828,13.122154 13.287859,13.10945 13.288188,13.103305 13.288046,13.091521 13.28817,13.088116 13.288078,13.082065 13.288204,13.064753 13.288222,13.063181 13.288229,13.061889 13.288212,13.06091 13.288199,13.060345 13.288198,13.056394 13.520012,13.056394" style="fill: white" /><polygon type="contour" points="12.603478,13.286368 12.603478,13.402737 12.603117,13.519891 12.553905,13.519896 12.50191,13.519899 12.50191,13.38627 12.502104,13.286309 12.553943,13.286063" style="fill: white" /><polygon type="contour" points="13.12312,13.823399 13.245533,13.823242 13.256901,13.823155 13.269589,13.822992 13.283798,13.823616 13.300299,13.823013 13.317794,13.823626 13.337919,13.823562 13.520113,13.823632 13.519926,13.975816 13.519926,14.156032 13.332524,14.156256 13.317794,14.156127 13.299753,14.156245 13.283798,14.156118 13.269588,14.15549 13.259331,14.155776 13.245533,14.15574 13.234538,14.156067 13.224485,14.156188 13.219652,14.155982 13.214409,14.155776 13.204621,14.156051 13.194813,14.156032 13.185856,14.155969 13.179194,14.155894 13.061297,14.156586 13.060343,14.156609 13.056402,14.156607 13.056402,13.833819 13.056406,13.82412 13.058437,13.82412 13.060344,13.824084 13.061298,13.824088 13.062486,13.82409 13.063763,13.824094 13.06483,13.824075 13.066133,13.824067 13.096782,13.823052 13.101872,13.823235 13.11066,13.823516 13.11526,13.823276 13.122623,13.822873" style="fill: white" /><polygon type="contour" points="12.603117,14.155856 12.553905,14.156025 12.502104,14.155998 12.502104,13.976077 12.50191,13.823703 12.551269,13.823534 12.603117,13.823355" style="fill: white" /><polygon type="contour" points="12.025356,13.823618 12.047985,13.823618 12.047985,14.081473 12.048011,14.156082 11.95716,14.155861 11.947387,14.155831 11.947387,13.868198 11.947425,13.823395" style="fill: white" /><polygon type="contour" points="12.027237,13.285086 12.027318,13.285036 12.047931,13.285145 12.047931,13.494388 12.047985,13.520159 11.96169,13.519924 11.947425,13.519924 11.947425,13.315005 11.947387,13.284877" style="fill: white" /><polygon type="contour" points="9.567468,13.279072 9.56826,13.279075 9.574713,13.279075 10.013304,13.280227 10.02416,13.280269 10.420319,13.280679 10.730559,13.281487 10.812937,13.281815 10.869177,13.282137 11.027646,13.282671 11.11506,13.282734 11.15476,13.282666 11.273252,13.282968 11.477473,13.283585 11.538439,13.283659 11.776686,13.284435 11.80206,13.284498 11.80206,13.519835 11.409614,13.519646 11.004507,13.519816 10.897028,13.519876 10.555208,13.519804 10.287228,13.51991 10.256229,13.519843 9.687495,13.519849 9.675387,13.519857 9.43015,13.519857 9.418176,13.519848 8.873753,13.519532 8.842514,13.519607 8.572933,13.519551 8.207907,13.519745 8.101166,13.5197 7.32964,13.519835 7.32964,13.284498 7.33233,13.284535 7.654225,13.283585 7.858449,13.282968 7.97694,13.282666 8.016639,13.282734 8.104053,13.282671 8.262522,13.282137 8.318761,13.281814 8.40114,13.281486 8.71138,13.280679 9.073658,13.280381 9.107538,13.280269 9.118395,13.280227 9.55766,13.279075 9.564873,13.279075 9.565372,13.279033 9.566199,13.279033" style="fill: white" /><polygon type="contour" points="9.37619,14.87411 9.436138,14.874167 9.589855,14.874167 9.652304,14.874111 10.252774,14.8738 10.28329,14.873844 10.548012,14.873908 10.8295,14.873894 10.938234,14.873744 11.408399,14.873802 11.80206,14.873936 11.80206,15.06946 11.385777,15.069641 10.660416,15.069597 10.317707,15.069604 10.291149,15.069435 10.210126,15.069587 10.145458,15.069674 9.394932,15.069613 9.189393,15.069613 8.978749,15.06942 8.89006,15.069266 8.861023,15.069447 8.606449,15.069571 7.988944,15.069748 7.892229,15.069576 7.32964,15.06946 7.32964,14.873936 8.082139,14.873894 8.188419,14.874082 8.580078,14.873734 8.846437,14.873636 8.877195,14.873586" style="fill: white" /><polygon type="contour" points="5.097336,13.823632 5.308071,13.823632 5.308489,13.975815 5.308489,14.156032 5.155887,14.156032 4.975785,14.155916 4.975785,13.967122 4.975669,13.823213" style="fill: white" /><polygon type="contour" points="4.257457,13.975815 4.257399,14.155916 4.146739,14.155916 4.061909,14.155913 4.062157,13.975815 4.06201,13.823265 4.151603,13.823213 4.257457,13.823213" style="fill: white" /><polygon type="contour" points="3.690273,13.975816 3.690226,14.155912 3.617598,14.155914 3.547389,14.155917 3.547473,13.975817 3.547287,13.823632 3.690088,13.823632" style="fill: white" /><polygon type="contour" points="3.690088,12.026251 3.690015,12.047985 3.574511,12.04855 3.547206,12.048539 3.547473,11.955546 3.547509,11.947389 3.690307,11.947389" style="fill: white" /><polygon type="contour" points="3.690067,12.552877 3.689993,12.603119 3.626019,12.603433 3.547509,12.603433 3.547165,12.553907 3.54723,12.502107 3.612758,12.502107 3.690029,12.502106" style="fill: white" /><polygon type="contour" points="3.690186,13.058254 3.690178,13.060346 3.690192,13.061009 3.690177,13.061891 3.690197,13.063371 3.690162,13.06501 3.690037,13.082894 3.69011,13.088527 3.69011,13.104719 3.689954,13.114754 3.689678,13.126054 3.689721,13.127178 3.689602,13.141011 3.689652,13.141706 3.689954,13.15776 3.690102,13.280001 3.689776,13.295712 3.690014,13.29627 3.689822,13.329713 3.690085,13.330702 3.690085,13.331092 3.68993,13.344144 3.690224,13.34735 3.690216,13.361389 3.690001,13.520009 3.586655,13.520009 3.547287,13.519986 3.537703,13.520056 3.532586,13.519652 3.444645,13.519652 3.440381,13.519934 3.357037,13.519964 3.356849,13.439874 3.356849,13.186952 3.442748,13.186794 3.452248,13.186753 3.495072,13.186794 3.548267,13.187208 3.54692,13.131078 3.547117,13.116842 3.547276,13.115027 3.547284,13.107861 3.547296,13.090405 3.547311,13.088389 3.54728,13.084024 3.547376,13.065364 3.547371,13.063606 3.547378,13.062282 3.547395,13.061188 3.547372,13.060536 3.54738,13.060345 3.547388,13.056409 3.550238,13.056394 3.690173,13.056394" style="fill: white" /><polygon type="contour" points="4.258168,13.060345 4.258179,13.060514 4.258167,13.061268 4.258154,13.062385 4.258165,13.063802 4.258149,13.065526 4.257606,13.086819 4.257654,13.09273 4.257453,13.107912 4.257647,13.114314 4.257661,13.115705 4.257524,13.129744 4.257492,13.142768 4.257465,13.259332 4.257284,13.28 4.2574,13.29988 4.257568,13.316797 4.257651,13.332847 4.257551,13.344646 4.257457,13.519929 4.179369,13.51989 4.06201,13.51989 4.062015,13.348153 4.062371,13.335663 4.062385,13.320181 4.062001,13.302654 4.062317,13.283364 4.062061,13.264166 4.062166,13.259332 4.062005,13.178577 4.061754,13.164848 4.062004,13.132873 4.062224,13.11863 4.061837,13.116826 4.062062,13.109885 4.061749,13.09399 4.061789,13.087756 4.062199,13.065795 4.062182,13.06413 4.062192,13.062664 4.062169,13.061437 4.062197,13.06082 4.062174,13.056411 4.067887,13.056404 4.258163,13.056404" style="fill: white" /><polygon type="contour" points="4.257494,12.552876 4.257356,12.603119 4.062056,12.603119 4.062193,12.553908 4.062335,12.502107 4.257637,12.502107" style="fill: white" /><polygon type="contour" points="4.257944,12.02625 4.257962,12.048013 4.220532,12.047985 4.062001,12.047985 4.062293,11.959389 4.062346,11.947389 4.257646,11.947389" style="fill: white" /><polygon type="contour" points="5.308308,11.947427 5.308086,12.025359 5.308086,12.047988 5.050229,12.047988 4.975621,12.048013 4.975839,11.957162 4.97587,11.947389 5.263504,11.947389" style="fill: white" /><polygon type="contour" points="5.846613,12.02724 5.846663,12.02732 5.846555,12.047933 5.637313,12.047933 5.611542,12.047988 5.611777,11.961693 5.611777,11.947427 5.816695,11.947427 5.846825,11.947389" style="fill: white" /><polygon type="contour" points="5.845392,12.502107 5.845637,12.553945 5.845333,12.603479 5.728963,12.603479 5.611809,12.603119 5.611806,12.553907 5.611803,12.501913 5.745433,12.501913" style="fill: white" /><polygon type="contour" points="5.308168,12.551272 5.308345,12.603119 4.975846,12.603119 4.975677,12.553907 4.975704,12.502107 5.155624,12.502107 5.307999,12.501913" style="fill: white" /><polygon type="contour" points="5.307583,13.056408 5.307583,13.05844 5.307618,13.060345 5.307609,13.062417 5.307638,13.063178 5.307585,13.064208 5.307646,13.066356 5.308232,13.123061 5.308729,13.123207 5.30846,13.245534 5.308545,13.256903 5.308711,13.26959 5.308519,13.283365 5.30838,13.299755 5.308075,13.317795 5.30814,13.337922 5.308071,13.520115 5.097336,13.520115 4.975669,13.519929 4.976325,13.33207 4.975636,13.312937 4.976029,13.295286 4.975937,13.279401 4.975242,13.265497 4.97572,13.254466 4.975634,13.242168 4.975634,13.231399 4.975841,13.22162 4.975361,13.211583 4.975736,13.201552 4.975206,13.192159 4.975779,13.183436 4.975331,13.078139 4.975114,13.062114 4.975106,13.060959 4.975094,13.056404 5.297881,13.056404" style="fill: white" /><polygon type="contour" points="5.620512,13.056414 5.843503,13.056414 5.8435,13.060346 5.843489,13.060909 5.843471,13.061889 5.843475,13.063068 5.843478,13.064763 5.84356,13.08208 5.843529,13.088115 5.843654,13.091521 5.84363,13.101083 5.843512,13.103306 5.843841,13.10945 5.844009,13.120624 5.844009,13.123824 5.843977,13.134441 5.843735,13.140658 5.844017,13.141808 5.843903,13.142243 5.843571,13.168258 5.843733,13.176903 5.843695,13.223373 5.843378,13.224708 5.844105,13.288156 5.908328,13.288009 5.975095,13.28795 5.975394,13.28765 5.976406,13.287643 5.988277,13.288044 5.988934,13.287873 5.990098,13.288132 5.996348,13.288072 6.009735,13.288024 6.022196,13.288056 6.028396,13.28819 6.04018,13.288049 6.043586,13.288173 6.04962,13.288141 6.066938,13.288224 6.068519,13.288225 6.069811,13.288231 6.070768,13.288197 6.071356,13.288201 6.075307,13.2882 6.075307,13.520014 6.073446,13.520015 6.071355,13.520021 6.070692,13.520009 6.069685,13.520031 6.068329,13.520004 6.06669,13.519999 6.064957,13.520017 6.043174,13.52009 6.029973,13.520253 6.026897,13.519884 6.022901,13.51976 6.011382,13.519669 6.008099,13.51999 6.005556,13.51978 5.894022,13.519857 5.87545,13.520007 5.855255,13.519955 5.835857,13.519763 5.817743,13.519858 5.801138,13.520163 5.787515,13.519898 5.778383,13.51978 5.772869,13.520005 5.771651,13.519966 5.748811,13.519953 5.742649,13.520165 5.740112,13.520047 5.733426,13.519976 5.731756,13.52007 5.723698,13.519997 5.716989,13.520086 5.710591,13.51997 5.70564,13.520098 5.702462,13.52007 5.611717,13.519986 5.611714,13.425829 5.611624,13.424096 5.611733,13.42111 5.611664,13.418387 5.611591,13.411529 5.611704,13.403823 5.611798,13.395576 5.611631,13.386935 5.611671,13.361617 5.611736,13.36005 5.611698,13.358833 5.611806,13.354105 5.611844,13.344645 5.61154,13.330563 5.611844,13.313958 5.611939,13.295846 5.611747,13.276445 5.611745,13.259332 5.611844,13.238578 5.611738,13.127424 5.612074,13.126559 5.611941,13.108799 5.611718,13.102115 5.611545,13.085611 5.611683,13.066744 5.611701,13.065011 5.611695,13.063372 5.611669,13.062017 5.611681,13.060965 5.611679,13.060345 5.611686,13.056394" style="fill: white" /><polygon type="contour" points="6.014594,13.823163 6.025199,13.822983 6.029826,13.823234 6.034915,13.823052 6.065565,13.824067 6.06669,13.824094 6.067936,13.824094 6.069212,13.824091 6.070401,13.824088 6.071356,13.824083 6.075307,13.824019 6.075298,13.833819 6.075298,14.156607 6.071355,14.156609 6.070401,14.156586 6.069212,14.156589 6.067936,14.156592 6.06669,14.156592 6.040013,14.15641 6.035292,14.155927 6.032679,14.15624 6.009418,14.155685 6.008776,14.156388 6.008524,14.156087 5.893123,14.156067 5.886167,14.15574 5.872369,14.155776 5.862111,14.15549 5.847903,14.156118 5.831947,14.156245 5.812912,14.155534 5.611773,14.156032 5.611588,14.034363 5.611588,13.823632 5.777568,13.823481 5.793779,13.823562 5.812912,13.823036 5.831947,13.823321 5.847903,13.823617 5.86211,13.822992 5.872369,13.823278 5.886167,13.823242 6.008576,13.823399 6.009075,13.822873" style="fill: white" /><polygon type="contour" points="6.577794,13.823523 6.629789,13.823703 6.629789,13.999046 6.629596,14.155998 6.578825,14.155806 6.528584,14.155856 6.528584,13.823355" style="fill: white" /><polygon type="contour" points="6.629596,13.423426 6.629789,13.519899 6.580428,13.519895 6.528584,13.519892 6.528223,13.402737 6.528223,13.286369 6.577794,13.286573 6.629596,13.286309" style="fill: white" /><polygon type="contour" points="7.184313,13.284877 7.184313,13.491366 7.184274,13.519924 7.106342,13.520159 7.083715,13.520159 7.083715,13.332872 7.083769,13.285145 7.176154,13.2849 7.176258,13.284873" style="fill: white" /><polygon type="contour" points="7.543142,13.823355 7.600926,13.823248 7.818447,13.823587 7.858532,13.823803 8.065689,13.8235 8.104053,13.823959 8.131426,13.82384 8.46598,13.823438 8.929554,13.823488 8.984345,13.823395 9.37636,13.823395 9.751085,13.823092 10.205548,13.823216 10.288324,13.823155 10.305973,13.823208 10.803054,13.823524 11.027134,13.823818 11.133899,13.823602 11.273168,13.823803 11.530774,13.823246 11.588557,13.823355 11.755587,13.823355 11.80206,13.823338 11.80206,14.155837 11.768502,14.155825 11.510719,14.155825 11.441425,14.155723 11.205596,14.156002 11.165926,14.156182 11.028116,14.156432 11.024819,14.156504 10.868146,14.156265 10.043088,14.156265 10.027749,14.155525 9.809679,14.155722 9.73095,14.156502 9.699811,14.155392 9.301584,14.156425 8.905326,14.15666 8.749972,14.1557 8.272642,14.156436 8.104956,14.156047 7.965772,14.156182 7.690276,14.155723 7.620981,14.155825 7.363197,14.155825 7.32964,14.155837 7.32964,13.823338 7.376306,13.822511" style="fill: white" /><polygon type="contour" points="7.184274,14.108835 7.184313,14.155831 7.10545,14.15602 7.083689,14.156082 7.083715,14.081473 7.083715,13.823619 7.170008,13.823396 7.184274,13.823396" style="fill: white" /><polygon type="contour" points="7.174539,14.874058 7.184313,14.874056 7.184313,15.069357 7.105451,15.069608 7.083717,15.069702 7.083717,14.911167 7.083689,14.873738" style="fill: white" /><polygon type="contour" points="7.184313,15.584195 7.1049,15.584413 7.083162,15.584495 7.083151,15.55719 7.083717,15.441687 7.172311,15.441435 7.184313,15.441392" style="fill: white" /><polygon type="contour" points="6.629596,15.584472 6.578473,15.584081 6.528269,15.584193 6.528584,15.52022 6.528584,15.441707 6.577794,15.441735 6.629596,15.44167" style="fill: white" /><polygon type="contour" points="6.629596,15.069367 6.578825,15.069508 6.528584,15.069644 6.528584,14.874345 6.577794,14.874208 6.629596,14.874067" style="fill: white" /><polygon type="contour" points="6.075298,14.873539 6.07529,14.878054 6.07529,15.069526 6.072962,15.069526 6.071355,15.069506 6.070698,15.069521 6.069808,15.069506 6.068329,15.069539 6.066731,15.069506 6.06504,15.069508 6.040862,15.069932 6.026746,15.069606 6.015808,15.069641 6.007187,15.069865 5.974034,15.069652 5.893122,15.069497 5.876789,15.06943 5.857792,15.06968 5.838395,15.069627 5.820206,15.069456 5.803382,15.069522 5.789283,15.06947 5.611814,15.069692 5.611814,14.952331 5.611773,14.874246 5.803383,14.874221 5.820206,14.874157 5.838395,14.874328 5.857791,14.873942 5.87679,14.874131 5.893122,14.874197 6.00411,14.874178 6.007187,14.874173 6.015809,14.874341 6.026745,14.874307 6.040863,14.874081 6.06504,14.87355 6.066868,14.873556 6.06833,14.873539 6.069649,14.873525 6.070699,14.873521" style="fill: white" /><polygon type="contour" points="5.855256,15.441456 5.872368,15.441457 5.989165,15.441358 6.00452,15.441636 6.016947,15.441748 6.026982,15.441591 6.043174,15.441592 6.064957,15.441518 6.066691,15.44154 6.06833,15.441506 6.069685,15.441532 6.070692,15.441511 6.071355,15.441523 6.075293,15.441516 6.075293,15.584316 6.074898,15.584314 6.073791,15.584319 6.073452,15.584324 6.071356,15.584323 6.071165,15.58433 6.070512,15.584306 6.069418,15.584326 6.068015,15.584314 6.066337,15.584327 6.064999,15.584319 6.043311,15.584392 6.041297,15.584407 6.023841,15.584417 6.016674,15.584424 6.0148,15.58443 6.000889,15.584628 5.944499,15.58415 5.944908,15.636628 5.944949,15.679453 5.944908,15.688953 5.944874,15.690822 5.944748,15.774853 5.691826,15.774854 5.611738,15.774666 5.612049,15.687057 5.611648,15.593996 5.611717,15.584414 5.611717,15.467761 5.61169,15.441512 5.777597,15.441743 5.787054,15.441725 5.80061,15.441617 5.814312,15.441628 5.817645,15.44154 5.831822,15.441358 5.835856,15.441264" style="fill: white" /><polygon type="contour" points="5.308438,14.952332 5.308438,15.069692 5.155887,15.069544 4.975788,15.069793 4.975788,14.970464 4.975785,14.874304 5.164578,14.874304 5.308489,14.874246" style="fill: white" /><polygon type="contour" points="5.308071,15.441614 5.308071,15.584414 5.155886,15.584229 4.975785,15.584314 4.975788,15.514104 4.975788,15.441476 5.155886,15.441428" style="fill: white" /><polygon type="contour" points="4.257554,15.514103 4.257399,15.584314 4.161237,15.584275 4.061714,15.584551 4.061714,15.44175 4.161237,15.441476 4.257554,15.441476" style="fill: white" /><polygon type="contour" points="4.257399,14.874304 4.257399,14.984963 4.257554,15.069793 4.169797,15.069988 4.061714,15.069988 4.061909,14.970463 4.061909,14.874148 4.161237,14.874148" style="fill: white" /><polygon type="contour" points="3.689951,14.961903 3.689951,15.069988 3.547152,15.069988 3.547073,14.973473 3.547389,14.874304 3.617599,14.874148 3.690226,14.874148" style="fill: white" /><polygon type="contour" points="3.444645,15.441798 3.532586,15.441798 3.535555,15.441671 3.547221,15.441681 3.690022,15.441681 3.690022,15.58448 3.690032,15.596147 3.689905,15.687057 3.690267,15.691322 3.690361,15.774541 3.629845,15.77468 3.628234,15.774959 3.357026,15.774675 3.357026,15.712207 3.357219,15.625915 3.357037,15.441463" style="fill: white" />
</svg>
