<svg width="19.131698" height="19.131699">
<polygon type="contour" points="14.848331,4.08025 14.865106,4.082064 14.903063,4.093 14.907327,4.094403 14.912227,4.096771 14.958277,4.125226 14.973984,4.137465 14.998946,4.16482 15.01587,4.187898 15.034096,4.218054 15.037016,4.22546 15.040707,4.234773 15.048828,4.268507 15.052574,4.30265 15.053699,4.309901 15.053498,8.064151 15.053699,11.067552 15.054089,14.821802 15.053351,14.840487 15.0499,14.862919 15.040699,14.890161 15.026911,14.926071 15.017756,14.941705 15.002113,14.961953 14.966984,15.001449 14.962044,15.005314 14.957913,15.007999 14.910317,15.035893 14.889756,15.043146 14.868104,15.04841 14.852399,15.051253 14.821799,15.053953 11.442749,15.053728 8.063699,15.053952 4.309198,15.054092 4.283366,15.051453 4.266955,15.049719 4.259659,15.047863 4.211495,15.029464 4.191662,15.018284 4.149191,14.987756 4.147699,14.986364 4.146754,14.98561 4.145044,14.984009 4.11644,14.945383 4.098072,14.914708 4.094684,14.906243 4.090993,14.896567 4.083175,14.862403 4.079249,14.829051 4.07775,14.821801 4.077749,10.59827 4.07775,8.064151 4.078,4.309901 4.080378,4.288686 4.083973,4.264364 4.091081,4.235273 4.093991,4.227055 4.096427,4.220437 4.1041,4.2056 4.124729,4.175249 4.146508,4.152454 4.175833,4.12065 4.176661,4.119999 4.177579,4.119431 4.222617,4.095156 4.241943,4.088558 4.263503,4.083387 4.279299,4.080451 4.309899,4.077751 11.067998,4.077751 14.822499,4.077612" style="fill: white" /><polygon type="hole" points="7.109028,7.10903 7.109028,8.037141 7.109136,8.049974 7.109136,8.106804 7.10923,8.115878 7.109243,8.125459 7.109243,8.181964 7.109351,8.194797 7.109351,8.884327 7.109429,8.891247 7.109459,8.902442 7.109459,9.487482 7.109567,9.500314 7.109567,9.557036 7.109628,9.56023 7.109679,9.566202 7.109714,9.571043 7.109628,9.572073 7.109567,9.575259 7.109567,9.631981 7.109459,9.644813 7.109459,10.229261 7.109429,10.240456 7.109351,10.247376 7.109351,10.303883 7.109243,10.316715 7.109243,11.006244 7.109229,11.015825 7.109136,11.024901 7.109136,11.081729 7.109028,11.094562 7.109028,12.022673 8.037139,12.022673 8.049972,12.022565 8.106802,12.022565 8.115876,12.022471 8.125457,12.022458 8.252429,12.022458 8.744517,12.022457 8.814987,12.022458 8.82782,12.02235 8.884326,12.02235 8.891246,12.022272 8.902441,12.022242 9.487479,12.022242 9.500311,12.022134 9.557033,12.022134 9.560227,12.022073 9.566199,12.022021 9.571041,12.021987 9.57207,12.022072 9.575257,12.022134 9.631978,12.022134 9.644811,12.022242 10.229258,12.022242 10.240452,12.022272 10.247375,12.02235 10.30388,12.02235 10.316712,12.022458 11.006242,12.022458 11.015823,12.022471 11.024899,12.022565 11.081727,12.022565 11.09456,12.022673 12.022672,12.022673 12.022672,11.024094 12.022564,11.011261 12.022564,10.954433 12.022456,10.935777 12.022456,9.824033 12.022349,9.811202 12.022349,9.754696 12.022241,9.736579 12.022241,9.67975 12.022133,9.666918 12.022133,9.57526 12.02207,9.572072 12.022021,9.566202 12.021986,9.561277 12.02207,9.560231 12.022133,9.557035 12.022133,9.500314 12.022241,9.487482 12.022241,9.430653 12.022349,9.412536 12.022349,9.35603 12.022456,9.343199 12.022456,9.286693 12.022564,9.268037 12.022564,8.120441 12.022672,8.107609 12.022672,7.10903 11.024092,7.10903 11.011259,7.109138 10.954431,7.109138 10.935774,7.109246 9.824032,7.109246 9.811199,7.109354 9.754693,7.109354 9.736578,7.109461 9.679749,7.109461 9.666915,7.10957 9.575257,7.10957 9.57207,7.109631 9.566199,7.109681 9.561274,7.109715 9.560228,7.109631 9.557033,7.10957 9.500312,7.10957 9.487478,7.109461 9.395119,7.109461 9.377004,7.109354 9.320498,7.109354 9.307665,7.109246 8.195924,7.109246 8.177268,7.109138 8.120439,7.109138 8.107607,7.10903" style="fill: black" />
</svg>
