<svg width="19.131698" height="19.131699">
<polygon type="contour" points="7.91458,7.659933 7.945932,7.662313 7.945932,7.945934 7.830309,7.945934 7.766389,7.946112 7.746231,7.945943 7.728388,7.945727 7.726455,7.945249 7.660767,7.944742 7.660933,7.737403 7.657917,7.657919" style="fill: white" /><polygon type="contour" points="8.578875,9.015817 8.525082,9.015976 8.471567,9.016233 8.471567,8.861729 8.471585,8.722676 8.525082,8.722676 8.578875,8.722517" style="fill: white" /><polygon type="contour" points="8.578973,9.307219 8.578973,9.365255 8.525082,9.365133 8.471645,9.364734 8.471645,9.304256 8.471567,9.253336 8.520299,9.253365 8.579197,9.253129" style="fill: white" /><polygon type="contour" points="8.188673,9.253336 8.188673,9.312335 8.188595,9.364734 8.139147,9.36485 8.093679,9.365212 8.093737,9.316188 8.093737,9.253165 8.142007,9.253089" style="fill: white" /><polygon type="contour" points="7.946948,9.308192 7.946948,9.365212 7.889561,9.365212 7.831563,9.36485 7.831262,9.312791 7.831112,9.253365 7.884029,9.253365 7.946797,9.253078" style="fill: white" /><polygon type="contour" points="7.946071,8.844027 7.945841,9.015428 7.788423,9.015461 7.661942,9.015214 7.662181,8.888956 7.662139,8.721555 7.946072,8.721555" style="fill: white" /><polygon type="contour" points="8.188709,8.722676 8.188709,8.869467 8.188673,9.016233 8.145666,9.016207 8.093737,9.016147 8.093737,8.88789 8.093747,8.722614 8.148163,8.722614" style="fill: white" /><polygon type="contour" points="8.188595,8.471647 8.188595,8.529856 8.188709,8.579037 8.148163,8.578982 8.093747,8.578982 8.09386,8.525084 8.093853,8.47158 8.142007,8.47158" style="fill: white" /><polygon type="contour" points="7.947072,8.525084 7.946955,8.578876 7.830977,8.578876 7.83122,8.525084 7.831446,8.471647 7.894571,8.471647 7.946895,8.47158" style="fill: white" /><polygon type="contour" points="7.946809,8.147309 7.946895,8.1887 7.887325,8.1887 7.831446,8.188597 7.831365,8.142009 7.831177,8.093739 7.946809,8.093739" style="fill: white" /><polygon type="contour" points="8.142008,8.093855 8.188698,8.093855 8.188698,8.14201 8.188595,8.188597 8.137566,8.188597 8.093853,8.1887 8.093737,8.147308 8.093737,8.093739" style="fill: white" /><polygon type="contour" points="8.142007,7.831369 8.188595,7.831448 8.188595,7.894571 8.188698,7.946896 8.147307,7.94681 8.093737,7.94681 8.093737,7.831179" style="fill: white" /><polygon type="contour" points="8.578875,7.946956 8.525083,7.947074 8.471578,7.946896 8.471578,7.887327 8.471645,7.831448 8.525082,7.831222 8.578875,7.830978" style="fill: white" /><polygon type="contour" points="8.579036,8.141157 8.579036,8.188711 8.525082,8.188711 8.471645,8.188597 8.471645,8.137568 8.471578,8.093855 8.525082,8.093862 8.57898,8.093748" style="fill: white" /><polygon type="contour" points="8.578875,8.516811 8.578875,8.578876 8.525082,8.579037 8.471585,8.579037 8.471585,8.525085 8.471645,8.471647 8.529854,8.471647 8.579036,8.471587" style="fill: white" /><polygon type="contour" points="9.016105,8.519569 9.015815,8.578876 8.722516,8.578876 8.722674,8.525085 8.722674,8.471587 8.869467,8.471587 9.016232,8.471568" style="fill: white" /><polygon type="contour" points="9.015429,8.114104 9.016049,8.134295 9.016179,8.142009 9.016232,8.188675 8.861728,8.188675 8.722674,8.188711 8.722613,8.148167 8.722613,8.093748 8.848252,8.093748 9.016145,8.093739" style="fill: white" /><polygon type="contour" points="9.015212,7.662575 9.015159,7.676217 9.015308,7.677501 9.015308,7.692241 9.015309,7.692943 9.01538,7.715658 9.015489,7.770171 9.015564,7.882574 9.015527,7.94593 8.889642,7.94593 8.72171,7.946157 8.721681,7.885781 8.721681,7.662021 8.776341,7.66178" style="fill: white" /><polygon type="contour" points="9.31279,7.831263 9.364484,7.831564 9.364484,7.892514 9.364867,7.94695 9.314264,7.946664 9.250488,7.946664 9.253078,7.89588 9.253363,7.831113" style="fill: white" /><polygon type="contour" points="9.365086,8.14201 9.364732,8.188597 9.304254,8.188597 9.253334,8.188675 9.25345,8.145668 9.253164,8.093739 9.307848,8.093681 9.364866,8.093681" style="fill: white" /><polygon type="contour" points="9.364732,8.471647 9.364484,8.527802 9.364916,8.578975 9.317629,8.579198 9.253128,8.579198 9.253131,8.525085 9.253334,8.471568 9.312331,8.471568" style="fill: white" /><polygon type="contour" points="9.30688,8.722657 9.364916,8.722657 9.364916,8.863976 9.364771,9.016224 9.314581,9.016178 9.253363,9.016178 9.253363,8.884198 9.253128,8.722584" style="fill: white" /><polygon type="contour" points="9.014967,8.84227 9.01521,9.015214 8.888021,9.015457 8.72161,9.015197 8.72161,8.841505 8.721681,8.78306 8.721681,8.721682 8.840468,8.721555 9.015136,8.721555" style="fill: white" /><polygon type="contour" points="9.016176,9.253364 9.016222,9.310383 9.016222,9.365128 8.867186,9.365128 8.722656,9.365255 8.722582,9.317631 8.722582,9.253129 8.846969,9.253129" style="fill: white" /><polygon type="contour" points="9.310025,9.253472 9.364771,9.253472 9.364771,9.310384 9.364484,9.36485 9.306452,9.36485 9.253469,9.365128 9.253363,9.314582 9.253363,9.253365" style="fill: white" /><polygon type="contour" points="9.878231,9.310383 9.878231,9.365128 9.821319,9.365128 9.766851,9.36485 9.766851,9.306455 9.766574,9.253472 9.817118,9.253365 9.878337,9.253365" style="fill: white" /><polygon type="contour" points="10.409045,9.30722 10.409045,9.365255 10.267725,9.365255 10.115479,9.365128 10.115525,9.314581 10.115525,9.253365 10.247504,9.253365 10.409118,9.253129" style="fill: white" /><polygon type="contour" points="10.606617,9.253133 10.660134,9.253336 10.660134,9.312335 10.660056,9.364734 10.603901,9.364849 10.552728,9.365255 10.552503,9.317631 10.552503,9.253129" style="fill: white" /><polygon type="contour" points="11.47351,7.907027 11.470976,7.944707 11.403311,7.945726 11.385468,7.945943 11.36531,7.946112 11.301388,7.945934 11.185768,7.945934 11.185768,7.662313 11.383761,7.66156 11.473784,7.657919" style="fill: white" /><polygon type="contour" points="11.300333,8.142009 11.300253,8.188597 11.237129,8.188597 11.184806,8.1887 11.184892,8.147309 11.184892,8.093739 11.300522,8.093739" style="fill: white" /><polygon type="contour" points="11.037963,7.94681 10.984393,7.94681 10.943003,7.946896 10.943003,7.887327 10.943105,7.831448 10.989692,7.831369 11.037963,7.831179" style="fill: white" /><polygon type="contour" points="11.037847,8.14201 11.037847,8.1887 10.989691,8.1887 10.943105,8.188597 10.943105,8.137567 10.943003,8.093855 10.984393,8.093739 11.037963,8.093739" style="fill: white" /><polygon type="contour" points="10.409088,8.093748 10.409026,8.141157 10.409026,8.188711 10.262234,8.188711 10.115469,8.188675 10.115494,8.145668 10.115554,8.093739 10.243811,8.093739" style="fill: white" /><polygon type="contour" points="10.606618,8.093862 10.660122,8.093855 10.660122,8.14201 10.660056,8.188597 10.601845,8.188597 10.552665,8.188711 10.552665,8.141157 10.552721,8.093748" style="fill: white" /><polygon type="contour" points="10.606618,7.831222 10.660056,7.831448 10.660056,7.894572 10.660122,7.946896 10.606617,7.947074 10.552051,7.947038 10.552826,7.897506 10.552826,7.830978" style="fill: white" /><polygon type="contour" points="10.41002,7.794945 10.40999,7.879492 10.40999,7.946157 10.286715,7.946157 10.116174,7.945929 10.11621,7.770172 10.116389,7.692944 10.116391,7.677502 10.116488,7.662575 10.169392,7.662764 10.41002,7.662021" style="fill: white" /><polygon type="contour" points="9.881028,7.883611 9.881213,7.946664 9.823508,7.94695 9.766491,7.94695 9.766491,7.889562 9.766851,7.831564 9.818908,7.831263 9.878337,7.831113" style="fill: white" /><polygon type="contour" points="9.815514,8.093739 9.878537,8.093739 9.878613,8.142009 9.878366,8.188675 9.819368,8.188675 9.766967,8.188597 9.766851,8.139149 9.766491,8.093681" style="fill: white" /><polygon type="contour" points="9.87857,8.525085 9.878489,8.533102 9.878572,8.579198 9.824483,8.578975 9.766448,8.578975 9.76657,8.525084 9.766967,8.471647 9.827445,8.471647 9.878367,8.471568" style="fill: white" /><polygon type="contour" points="9.878572,8.846969 9.878337,9.016178 9.821319,9.016224 9.766574,9.016224 9.766574,8.867188 9.766448,8.722657 9.814071,8.722584 9.878572,8.722584" style="fill: white" /><polygon type="contour" points="10.348641,8.721682 10.41002,8.721682 10.410147,8.840469 10.410147,9.015138 10.28943,9.01497 10.116488,9.015214 10.116308,8.888956 10.116564,8.721555 10.291232,8.721555" style="fill: white" /><polygon type="contour" points="10.409026,8.471586 10.409185,8.51681 10.409185,8.578876 10.115886,8.578876 10.116591,8.556423 10.115788,8.533103 10.115727,8.525085 10.115469,8.471568 10.269973,8.471568" style="fill: white" /><polygon type="contour" points="10.660056,8.471647 10.660056,8.529857 10.660116,8.579037 10.614891,8.578876 10.552826,8.578876 10.552665,8.525084 10.552665,8.471587 10.606617,8.471587" style="fill: white" /><polygon type="contour" points="10.606618,8.722676 10.660116,8.722676 10.660116,8.869468 10.660134,9.016233 10.606618,9.015976 10.552826,9.015817 10.552826,8.722517" style="fill: white" /><polygon type="contour" points="11.037954,8.848254 11.037963,9.016147 10.986033,9.016207 10.943027,9.016233 10.943027,8.861729 10.94299,8.722676 10.983534,8.722614 11.037954,8.722614" style="fill: white" /><polygon type="contour" points="11.037841,8.525085 11.037954,8.578982 10.990544,8.579037 10.94299,8.579037 10.94299,8.525084 10.943105,8.471647 10.994133,8.471647 11.037847,8.47158" style="fill: white" /><polygon type="contour" points="11.300253,8.471647 11.300479,8.525084 11.300723,8.578876 11.184746,8.578876 11.184628,8.525084 11.184806,8.47158 11.244374,8.47158" style="fill: white" /><polygon type="contour" points="11.469785,8.84227 11.469758,9.015214 11.375154,9.015214 11.249558,9.015461 11.18586,9.015428 11.185607,8.891376 11.185381,8.721555 11.469561,8.721555" style="fill: white" /><polygon type="contour" points="11.300588,9.253365 11.300438,9.312791 11.300137,9.36485 11.239186,9.36485 11.184753,9.365212 11.184903,9.316584 11.184903,9.253078 11.235822,9.253078" style="fill: white" /><polygon type="contour" points="11.038021,9.308192 11.038021,9.365212 10.989692,9.365089 10.943105,9.364734 10.943105,9.304256 10.943027,9.253336 10.986033,9.253452 11.037963,9.253165" style="fill: white" /><polygon type="contour" points="10.986033,10.115496 11.037963,10.115556 11.037963,10.243813 11.037954,10.40909 10.983534,10.40909 10.94299,10.409027 10.94299,10.262235 10.943026,10.115471" style="fill: white" /><polygon type="contour" points="11.469758,10.11649 11.46952,10.242747 11.469561,10.410149 11.185629,10.410149 11.18563,10.287677 11.185859,10.116276 11.343277,10.116244" style="fill: white" /><polygon type="contour" points="11.300137,9.767218 11.300438,9.818911 11.300588,9.87834 11.24767,9.87834 11.184903,9.878626 11.184753,9.823854 11.184753,9.766836 11.242138,9.766836" style="fill: white" /><polygon type="contour" points="11.037963,9.815514 11.037963,9.878539 10.989692,9.878616 10.943027,9.878369 10.943027,9.81937 10.943105,9.766969 10.992552,9.767218 11.038021,9.766836" style="fill: white" /><polygon type="contour" points="10.660056,9.766969 10.660056,9.827447 10.660134,9.878369 10.611399,9.87834 10.552503,9.878575 10.552728,9.824821 10.552728,9.766786 10.606618,9.766571" style="fill: white" /><polygon type="contour" points="10.409118,9.814073 10.409118,9.878575 10.284732,9.878575 10.115525,9.87834 10.115479,9.821676 10.115479,9.766932 10.264514,9.766932 10.409045,9.766786" style="fill: white" /><polygon type="contour" points="10.41009,10.116507 10.41009,10.290197 10.41002,10.348643 10.41002,10.410022 10.291232,10.410149 10.116565,10.410149 10.116732,10.289432 10.116488,10.11649 10.24368,10.116246" style="fill: white" /><polygon type="contour" points="10.660134,10.269973 10.660116,10.409028 10.606618,10.409028 10.552826,10.409187 10.552826,10.115888 10.606618,10.115728 10.660134,10.115471" style="fill: white" /><polygon type="contour" points="11.037963,10.984394 11.037963,11.037965 10.989691,11.037849 10.943003,11.037849 10.943003,10.989693 10.943105,10.943106 10.994134,10.943106 11.037847,10.943004" style="fill: white" /><polygon type="contour" points="10.984393,11.184894 11.037963,11.184894 11.037963,11.300524 10.989692,11.300334 10.943105,11.300254 10.943105,11.23713 10.943003,11.184808" style="fill: white" /><polygon type="contour" points="11.385468,11.185762 11.403311,11.185977 11.405244,11.186452 11.470933,11.186962 11.470767,11.394301 11.473784,11.473785 11.21712,11.471771 11.185768,11.469391 11.185768,11.18577 11.301388,11.18577 11.36531,11.185592" style="fill: white" /><polygon type="contour" points="11.300253,10.943106 11.300333,10.989694 11.300522,11.037965 11.184892,11.037965 11.184892,10.984394 11.184806,10.943004 11.244375,10.943004" style="fill: white" /><polygon type="contour" points="11.300479,10.606619 11.300253,10.660057 11.237129,10.660057 11.184806,10.660124 11.184628,10.606619 11.184746,10.552828 11.300723,10.552828" style="fill: white" /><polygon type="contour" points="10.983534,10.552722 11.037954,10.552722 11.037841,10.606618 11.037847,10.660124 10.989692,10.660124 10.943105,10.660057 10.943105,10.601847 10.94299,10.552667" style="fill: white" /><polygon type="contour" points="10.660116,10.606618 10.660056,10.660057 10.601846,10.660057 10.552665,10.660117 10.552826,10.614892 10.552826,10.552828 10.606618,10.552667 10.660116,10.552667" style="fill: white" /><polygon type="contour" points="10.409026,10.606619 10.409026,10.660117 10.262233,10.660117 10.115469,10.660136 10.115595,10.612134 10.115886,10.552828 10.409185,10.552828" style="fill: white" /><polygon type="contour" points="10.409088,10.983535 10.409088,11.037956 10.283446,11.037956 10.115554,11.037965 10.115521,10.989693 10.115469,10.943029 10.269972,10.943029 10.409026,10.942991" style="fill: white" /><polygon type="contour" points="10.660056,10.943106 10.660056,10.994136 10.660122,11.037849 10.606617,11.037843 10.552721,11.037956 10.552665,10.990545 10.552665,10.942991 10.606618,10.942991" style="fill: white" /><polygon type="contour" points="10.660122,11.184808 10.660122,11.244376 10.660056,11.300254 10.606618,11.30048 10.552826,11.300725 10.552826,11.184748 10.606617,11.18463" style="fill: white" /><polygon type="contour" points="10.41002,11.245924 10.41002,11.469684 10.355359,11.469924 10.116488,11.469129 10.116541,11.455485 10.116391,11.454201 10.116391,11.439463 10.116388,11.43876 10.116318,11.416044 10.11621,11.361533 10.116137,11.24913 10.116174,11.185775 10.242057,11.185775 10.40999,11.185548" style="fill: white" /><polygon type="contour" points="9.815117,11.184905 9.878623,11.184905 9.878623,11.235823 9.878337,11.30059 9.818908,11.300439 9.766851,11.300138 9.766851,11.239188 9.766491,11.184755" style="fill: white" /><polygon type="contour" points="9.878251,10.986035 9.878537,11.037965 9.823509,11.038023 9.766491,11.038023 9.766613,10.989693 9.766967,10.943106 9.827445,10.943106 9.878367,10.943029" style="fill: white" /><polygon type="contour" points="9.878569,10.606619 9.878366,10.660136 9.819367,10.660136 9.766967,10.660057 9.766851,10.603902 9.766448,10.552729 9.814071,10.552505 9.878572,10.552505" style="fill: white" /><polygon type="contour" points="9.817119,10.115527 9.878337,10.115527 9.878337,10.247506 9.878572,10.40912 9.824483,10.409047 9.766448,10.409047 9.766448,10.267726 9.766574,10.115481" style="fill: white" /><polygon type="contour" points="9.878337,9.817121 9.878337,9.87834 9.821318,9.878233 9.766574,9.878233 9.766574,9.821676 9.766851,9.767218 9.825247,9.767218 9.878231,9.766932" style="fill: white" /><polygon type="contour" points="9.364484,9.767218 9.364484,9.825248 9.364771,9.878233 9.314581,9.87834 9.253363,9.87834 9.25347,9.821677 9.25347,9.766932 9.310026,9.766932" style="fill: white" /><polygon type="contour" points="9.016222,9.766932 9.016176,9.817121 9.016176,9.87834 8.884195,9.87834 8.722582,9.878575 8.722656,9.824822 8.722656,9.766786 8.863975,9.766786" style="fill: white" /><polygon type="contour" points="8.525082,10.115728 8.578875,10.115888 8.578875,10.409187 8.525082,10.409028 8.471585,10.409028 8.471585,10.262235 8.471567,10.115471" style="fill: white" /><polygon type="contour" points="8.579197,9.814072 8.579197,9.878575 8.525083,9.878572 8.471567,9.878369 8.471567,9.81937 8.471645,9.766969 8.5278,9.767218 8.578973,9.766786" style="fill: white" /><polygon type="contour" points="8.188595,9.766969 8.188595,9.827447 8.188673,9.878369 8.145666,9.878252 8.093737,9.878539 8.093679,9.823855 8.093679,9.766836 8.142008,9.766615" style="fill: white" /><polygon type="contour" points="7.946662,9.817438 7.946662,9.881215 7.895878,9.878626 7.831112,9.87834 7.831262,9.818911 7.831563,9.767218 7.892512,9.767218 7.946948,9.766836" style="fill: white" /><polygon type="contour" points="7.945924,10.11622 7.946093,10.240327 7.946319,10.410149 7.662138,10.410149 7.661915,10.289432 7.661941,10.11649 7.756545,10.11649 7.881626,10.116185" style="fill: white" /><polygon type="contour" points="8.188673,10.269973 8.188709,10.409028 8.148163,10.40909 8.093747,10.40909 8.093747,10.283447 8.093737,10.115556 8.145666,10.115496 8.188673,10.115471" style="fill: white" /><polygon type="contour" points="7.947072,10.606619 7.946895,10.660124 7.887324,10.660124 7.831446,10.660057 7.83122,10.606619 7.830977,10.552828 7.946955,10.552828" style="fill: white" /><polygon type="contour" points="8.188709,10.606618 8.188595,10.660057 8.137566,10.660057 8.093853,10.660124 8.09386,10.606619 8.093747,10.552722 8.141155,10.552667 8.188709,10.552667" style="fill: white" /><polygon type="contour" points="8.516809,10.552828 8.578875,10.552828 8.579036,10.606618 8.579036,10.660117 8.525083,10.660117 8.471645,10.660057 8.471645,10.601846 8.471585,10.552667" style="fill: white" /><polygon type="contour" points="9.015974,10.606618 9.016232,10.660136 8.861727,10.660136 8.722674,10.660117 8.722516,10.614892 8.722516,10.552828 9.015815,10.552828" style="fill: white" /><polygon type="contour" points="9.015393,10.242748 9.015136,10.410149 8.840468,10.410149 8.783059,10.410022 8.721681,10.410022 8.721554,10.291234 8.721554,10.116567 8.842268,10.116734 9.015211,10.11649" style="fill: white" /><polygon type="contour" points="9.364771,10.264516 9.364916,10.409047 9.317628,10.40912 9.253128,10.40912 9.253128,10.284734 9.253363,10.115527 9.310026,10.115481 9.364771,10.115481" style="fill: white" /><polygon type="contour" points="9.30688,10.552729 9.364916,10.552729 9.36513,10.606618 9.364731,10.660057 9.304254,10.660057 9.253334,10.660136 9.253131,10.606618 9.253212,10.598601 9.253128,10.552505" style="fill: white" /><polygon type="contour" points="9.364732,10.943106 9.364483,10.992554 9.364866,11.038023 9.316187,11.037965 9.253164,11.037965 9.253088,10.989694 9.253334,10.943029 9.312332,10.943029" style="fill: white" /><polygon type="contour" points="9.364867,11.24214 9.364483,11.300138 9.31279,11.300438 9.253363,11.30059 9.250672,11.248091 9.250488,11.185041 9.307849,11.184755 9.364867,11.184755" style="fill: white" /><polygon type="contour" points="9.015527,11.185775 9.015564,11.24913 9.015489,11.361532 9.015379,11.416045 9.01531,11.438761 9.015308,11.454201 9.015212,11.46913 8.962307,11.468941 8.721681,11.469684 8.721681,11.336757 8.72171,11.252212 8.72171,11.185548 8.844985,11.185548" style="fill: white" /><polygon type="contour" points="9.016232,10.943029 9.016204,10.986035 9.016145,11.037965 8.887889,11.037965 8.722613,11.037955 8.722674,10.990545 8.722674,10.942991 8.869466,10.942991" style="fill: white" /><polygon type="contour" points="8.579036,10.990545 8.57898,11.037956 8.525083,11.037843 8.471578,11.037849 8.471578,10.989693 8.471645,10.943106 8.529855,10.943106 8.579036,10.942991" style="fill: white" /><polygon type="contour" points="8.578875,11.184748 8.578875,11.300725 8.525082,11.30048 8.471645,11.300254 8.471645,11.237131 8.471578,11.184808 8.525083,11.18463" style="fill: white" /><polygon type="contour" points="8.188698,11.244375 8.188595,11.300254 8.142007,11.300334 8.093737,11.300524 8.093737,11.184894 8.147307,11.184894 8.188698,11.184808" style="fill: white" /><polygon type="contour" points="8.188595,10.943106 8.188595,10.994135 8.188698,11.037849 8.147307,11.037965 8.093737,11.037965 8.093853,10.989693 8.093853,10.943004 8.142007,10.943004" style="fill: white" /><polygon type="contour" points="7.946809,10.984394 7.946809,11.037965 7.831177,11.037965 7.831366,10.989694 7.831446,10.943106 7.89457,10.943106 7.946895,10.943004" style="fill: white" /><polygon type="contour" points="7.830309,11.18577 7.945932,11.18577 7.945932,11.469391 7.747937,11.470144 7.657916,11.473785 7.65819,11.224677 7.660724,11.186996 7.728388,11.185977 7.746231,11.185762 7.766389,11.185591" style="fill: white" />
</svg>
