<svg width="19.131698" height="19.131699">
<polygon type="contour" points="4.309898,4.147214 10.681172,4.146823 14.822499,4.146902 14.835555,4.148383 14.855977,4.150919 14.889002,4.165 14.904913,4.172836 14.909833,4.176676 14.936633,4.201585 14.94969,4.213721 14.955993,4.221617 14.971857,4.252295 14.983367,4.285669 14.984006,4.29019 14.984694,4.3099 14.984694,9.950235 14.984411,14.821802 14.983922,14.847631 14.983636,14.850413 14.982652,14.853585 14.962767,14.899332 14.932983,14.936661 14.932811,14.936872 14.929366,14.941096 14.876834,14.975273 14.876057,14.975755 14.874951,14.976066 14.845476,14.982216 14.827922,14.983789 14.821799,14.984488 8.450525,14.984881 4.309198,14.984881 4.285198,14.98367 4.283485,14.983472 4.225787,14.958695 4.220579,14.956175 4.216541,14.952673 4.186724,14.920853 4.174566,14.907877 4.167658,14.895862 4.153414,14.860098 4.1468,14.842102 4.146799,14.842099 4.147212,14.821801 4.147212,4.3099 4.147066,4.2909 4.147156,4.29036 4.147276,4.288677 4.150299,4.277703 4.157708,4.253259 4.166348,4.239574 4.187979,4.206465 4.194573,4.200204 4.218706,4.180409 4.254864,4.15643 4.255609,4.155964 4.256558,4.155684 4.292834,4.146786 4.293899,4.146701" style="fill: white" /><polygon type="hole" points="7.132998,7.133 7.132998,8.079219 7.133077,8.088599 7.133077,8.130135 7.133146,8.136767 7.133155,8.14377 7.133155,8.185069 7.133234,8.194449 7.133234,8.899793 7.133291,8.904852 7.133313,8.913034 7.133313,9.508665 7.133392,9.518045 7.133392,9.559503 7.133437,9.561838 7.133473,9.566201 7.133499,9.56974 7.133436,9.570493 7.133392,9.572823 7.133392,9.614279 7.133313,9.623659 7.133313,10.218668 7.133291,10.226851 7.133234,10.23191 7.133234,10.273209 7.133155,10.282589 7.133155,10.987933 7.133146,10.994936 7.133077,11.001568 7.133077,11.043104 7.132998,11.052484 7.132998,11.998703 8.079217,11.998703 8.088597,11.998624 8.130133,11.998624 8.136765,11.998555 8.143768,11.998546 8.258987,11.998546 8.775191,11.998545 8.849113,11.998547 8.858493,11.998468 8.899792,11.998468 8.904851,11.998411 8.913033,11.998389 8.933762,11.998389 9.450585,11.998388 9.508662,11.998388 9.518042,11.998309 9.5595,11.998309 9.561835,11.998263 9.566198,11.998227 9.569737,11.998202 9.57049,11.998264 9.57282,11.998309 9.614276,11.998309 9.623656,11.998388 10.218666,11.998388 10.226848,11.99841 10.231907,11.998467 10.273206,11.998467 10.282586,11.998546 10.987931,11.998546 10.994934,11.998555 11.001566,11.998624 11.043102,11.998624 11.052482,11.998703 11.998702,11.998703 11.998702,10.978563 11.998623,10.969183 11.998623,10.927647 11.998545,10.914013 11.998545,9.765764 11.998466,9.756384 11.998466,9.715084 11.998387,9.701844 11.998387,9.660308 11.998308,9.650928 11.998308,9.572823 11.998263,9.570493 11.998225,9.566201 11.9982,9.562603 11.998262,9.561838 11.998308,9.559503 11.998308,9.518045 11.998387,9.508665 11.998387,9.467129 11.998466,9.453889 11.998466,9.41259 11.998545,9.403209 11.998545,9.36191 11.998623,9.348276 11.998623,8.162519 11.998702,8.153139 11.998702,7.133 10.978562,7.133 10.969181,7.133079 10.927645,7.133079 10.914011,7.133158 9.765762,7.133158 9.756382,7.133237 9.715082,7.133237 9.701842,7.133315 9.660306,7.133315 9.650926,7.133394 9.57282,7.133394 9.57049,7.133438 9.566198,7.133476 9.5626,7.133501 9.561835,7.133439 9.5595,7.133394 9.518042,7.133394 9.508662,7.133315 9.429855,7.133315 9.416615,7.133237 9.375316,7.133237 9.365935,7.133158 8.217689,7.133158 8.204052,7.133079 8.162517,7.133079 8.153137,7.133" style="fill: black" />
</svg>
