<svg width="19.131698" height="19.131699">
<polygon type="contour" points="10.95956,10.82902 10.963487,10.963488 10.709128,10.958907 10.686352,10.958653 10.68582,10.944669 10.685786,10.943345 10.685745,10.927649 10.685745,10.908778 10.685888,10.851471 10.686004,10.740969 10.686004,10.686006 10.827598,10.686006 10.917789,10.685869 10.957999,10.685869" style="fill: white" /><polygon type="contour" points="10.790286,10.126382 10.790399,10.173179 10.728796,10.173179 10.68519,10.173173 10.685317,10.123856 10.68543,10.06874 10.790432,10.06874" style="fill: white" /><polygon type="contour" points="10.790499,10.471662 10.790612,10.52531 10.740295,10.525395 10.685332,10.525395 10.68519,10.471662 10.68519,10.429243 10.743743,10.429243 10.790399,10.429219" style="fill: white" /><polygon type="contour" points="10.525531,10.429243 10.525308,10.47525 10.525308,10.52531 10.471661,10.525533 10.42924,10.525533 10.42924,10.471662 10.429217,10.429219 10.485893,10.429219" style="fill: white" /><polygon type="contour" points="10.475525,10.685334 10.525393,10.685334 10.525393,10.740298 10.525308,10.790613 10.47166,10.790501 10.429217,10.790401 10.429217,10.728798 10.42924,10.685192" style="fill: white" /><polygon type="contour" points="9.911899,10.746954 9.911899,10.958159 9.871466,10.95897 9.620158,10.958876 9.619758,10.943164 9.619672,10.941692 9.619672,10.790375 9.565501,10.790633 9.512028,10.790373 9.512028,10.94169 9.511542,10.958876 9.45269,10.958183 9.219802,10.958159 9.219802,10.830045 9.219865,10.741329 9.219865,10.684268 9.911836,10.684268" style="fill: white" /><polygon type="contour" points="10.126378,10.683718 10.17317,10.685192 10.17317,10.743745 10.173176,10.790401 10.126379,10.790287 10.068739,10.790433 10.068739,10.683563" style="fill: white" /><polygon type="contour" points="10.173176,10.429219 10.173176,10.485894 10.17317,10.525533 10.126379,10.525738 10.068708,10.525554 10.06844,10.472433 10.06844,10.429138 10.126379,10.429138" style="fill: white" /><polygon type="contour" points="9.911411,10.474557 9.911411,10.525554 9.22029,10.525554 9.220468,10.472433 9.220468,10.429138 9.911233,10.429138" style="fill: white" /><polygon type="contour" points="9.911724,9.911726 9.219977,9.911726 9.219977,9.219979 9.911724,9.219979" style="fill: white" /><polygon type="contour" points="9.911233,10.126382 9.911233,10.173128 9.220468,10.173128 9.220238,10.12442 9.220238,10.06874 9.911463,10.06874" style="fill: white" /><polygon type="contour" points="10.173125,10.126381 10.173176,10.173179 10.111573,10.173179 10.06844,10.173128 10.068739,10.12442 10.068739,10.06874 10.126379,10.068441 10.173125,10.068441" style="fill: white" /><polygon type="contour" points="10.474555,10.06871 10.5274,10.06871 10.527305,10.126381 10.525531,10.173173 10.47166,10.173173 10.429217,10.173179 10.429217,10.111574 10.429135,10.068441" style="fill: white" /><polygon type="contour" points="10.5274,9.911413 10.474,9.911234 10.429135,9.911234 10.429135,9.22047 10.474554,9.220292 10.5274,9.220292" style="fill: white" /><polygon type="contour" points="10.958367,9.340638 10.958197,9.512119 10.86639,9.512119 10.790631,9.512434 10.790631,9.566202 10.79154,9.619271 10.88309,9.619271 10.958197,9.619586 10.957767,9.769595 10.957947,9.911726 10.685983,9.911726 10.685983,9.219979 10.957947,9.219979" style="fill: white" /><polygon type="contour" points="10.959559,8.302682 10.957999,8.445836 10.91779,8.445836 10.827597,8.445698 10.686004,8.445698 10.685889,8.280232 10.685745,8.204054 10.685786,8.202858 10.685786,8.188359 10.686352,8.173051 10.709128,8.172797 10.963487,8.168215" style="fill: white" /><polygon type="contour" points="9.511542,8.172828 9.511943,8.18854 9.512028,8.190011 9.512028,8.341325 9.565501,8.341071 9.619672,8.341323 9.619672,8.190012 9.620158,8.172828 9.679009,8.17352 9.911899,8.173545 9.911899,8.301659 9.911836,8.390374 9.911836,8.445595 9.560391,8.445595 9.219865,8.447434 9.219802,8.384746 9.219802,8.173545 9.260233,8.172734" style="fill: white" /><polygon type="contour" points="9.911233,8.657701 9.911233,8.702566 9.220468,8.702566 9.22029,8.657146 9.22029,8.606149 9.569579,8.606149 9.911411,8.604302" style="fill: white" /><polygon type="contour" points="10.126379,8.604397 10.17317,8.606171 10.17317,8.660041 10.173176,8.702485 10.111572,8.702485 10.06844,8.702566 10.06844,8.657701 10.068708,8.604302" style="fill: white" /><polygon type="contour" points="10.126378,8.341416 10.173176,8.341304 10.173176,8.402905 10.17317,8.446512 10.123856,8.446385 10.068739,8.446272 10.068739,8.341271" style="fill: white" /><polygon type="contour" points="10.525308,8.446457 10.47166,8.446512 10.42924,8.446512 10.42924,8.387959 10.429217,8.341304 10.471661,8.341202 10.525308,8.341091" style="fill: white" /><polygon type="contour" points="10.475247,8.606394 10.525308,8.606394 10.525531,8.66004 10.525531,8.702462 10.47166,8.702462 10.429217,8.702485 10.429217,8.645809 10.42924,8.606171" style="fill: white" /><polygon type="contour" points="10.7905,8.66004 10.790399,8.702485 10.728796,8.702485 10.68519,8.702462 10.685245,8.656455 10.685245,8.606394 10.790612,8.606394" style="fill: white" /><polygon type="contour" points="10.790286,9.005322 10.790432,9.062964 10.68543,9.062964 10.685287,9.005323 10.68519,8.958532 10.743743,8.958532 10.790399,8.958525" style="fill: white" /><polygon type="contour" points="10.525531,8.958532 10.527305,9.005323 10.5274,9.062995 10.474,9.063263 10.429135,9.063263 10.429135,9.005322 10.429217,8.958525 10.485893,8.958525" style="fill: white" /><polygon type="contour" points="10.126378,9.22047 10.173125,9.22047 10.173125,9.911234 10.124419,9.911465 10.068739,9.911465 10.068739,9.22024" style="fill: white" /><polygon type="contour" points="10.173176,9.020128 10.173125,9.063263 10.126378,9.063263 10.117945,9.062995 10.068739,9.062964 10.06844,9.005322 10.06844,8.958577 10.126379,8.958577 10.173176,8.958525" style="fill: white" /><polygon type="contour" points="9.911463,9.007282 9.911463,9.062964 9.220238,9.062964 9.220468,9.005322 9.220468,8.958577 9.911233,8.958577" style="fill: white" /><polygon type="contour" points="9.06326,8.958577 9.062962,9.007282 9.062962,9.062964 9.005321,9.063263 8.958576,9.063263 8.958576,9.005322 8.958524,8.958525 9.020125,8.958525" style="fill: white" /><polygon type="contour" points="9.062993,8.606149 9.06326,8.659269 9.06326,8.702566 9.005321,8.702566 8.958524,8.702485 8.958524,8.645808 8.958531,8.60617 9.005321,8.605965" style="fill: white" /><polygon type="contour" points="9.062962,8.448139 9.005321,8.447984 8.958531,8.446512 8.958531,8.387959 8.958524,8.341304 9.005321,8.341416 9.062962,8.341271" style="fill: white" /><polygon type="contour" points="8.422572,8.172797 8.445347,8.173051 8.445879,8.187034 8.445914,8.188358 8.445955,8.204054 8.445955,8.222926 8.445811,8.280232 8.445696,8.390734 8.445696,8.445698 8.304102,8.445698 8.213909,8.445836 8.173701,8.445836 8.17214,8.302682 8.168214,8.168215" style="fill: white" /><polygon type="contour" points="8.66004,8.341203 8.702484,8.341304 8.702484,8.402905 8.702461,8.446512 8.656175,8.44637 8.606307,8.44637 8.606307,8.391405 8.606392,8.341091" style="fill: white" /><polygon type="contour" points="8.702461,8.660041 8.702484,8.702485 8.645807,8.702485 8.606169,8.702462 8.606392,8.656454 8.606392,8.606394 8.660039,8.606171 8.702461,8.606171" style="fill: white" /><polygon type="contour" points="8.44651,8.660041 8.44651,8.702462 8.387957,8.702462 8.341302,8.702485 8.3412,8.66004 8.341088,8.606394 8.391404,8.606309 8.446368,8.606309" style="fill: white" /><polygon type="contour" points="8.44651,8.958532 8.446383,9.007846 8.448137,9.062964 8.341268,9.062964 8.341414,9.005322 8.341302,8.958525 8.402903,8.958525" style="fill: white" /><polygon type="contour" points="8.702484,9.020128 8.702565,9.063263 8.657145,9.062995 8.606147,9.062995 8.605963,9.005322 8.606169,8.958532 8.66004,8.958532 8.702484,8.958525" style="fill: white" /><polygon type="contour" points="8.659267,9.22047 8.702565,9.22047 8.702565,9.911234 8.657144,9.911413 8.606147,9.911413 8.606147,9.220292" style="fill: white" /><polygon type="contour" points="8.44754,9.911726 8.173753,9.911726 8.173334,9.791065 8.173502,9.619586 8.26531,9.619586 8.341069,9.619268 8.341069,9.566201 8.340154,9.512432 8.248609,9.512432 8.173502,9.512119 8.173932,9.36211 8.173753,9.219979 8.44754,9.219979" style="fill: white" /><polygon type="contour" points="8.447982,10.126382 8.44651,10.173173 8.387957,10.173173 8.341302,10.173179 8.341414,10.126382 8.341268,10.06874 8.448137,10.06874" style="fill: white" /><polygon type="contour" points="8.702565,10.126382 8.702484,10.173179 8.645807,10.173179 8.606169,10.173173 8.605963,10.126382 8.606147,10.068709 8.659267,10.068441 8.702565,10.068441" style="fill: white" /><polygon type="contour" points="9.062962,9.911465 9.005321,9.911234 8.958576,9.911234 8.958576,9.22047 9.007281,9.22024 9.062962,9.22024" style="fill: white" /><polygon type="contour" points="9.013755,10.06871 9.062962,10.06874 9.06326,10.126382 9.06326,10.173128 9.005322,10.173128 8.958524,10.173179 8.958524,10.111574 8.958576,10.068441 9.005321,10.068441" style="fill: white" /><polygon type="contour" points="9.06326,10.472433 9.062993,10.525554 9.005321,10.525738 8.958531,10.525533 8.958531,10.471662 8.958524,10.429219 9.020125,10.429219 9.06326,10.429138" style="fill: white" /><polygon type="contour" points="9.062962,10.790433 9.005321,10.790288 8.958524,10.790401 8.958524,10.728798 8.958531,10.685192 9.007844,10.685319 9.062962,10.683563" style="fill: white" /><polygon type="contour" points="8.702461,10.743745 8.702484,10.790401 8.66004,10.7905 8.606392,10.790613 8.606307,10.740298 8.606307,10.685334 8.660039,10.685192 8.702461,10.685192" style="fill: white" /><polygon type="contour" points="8.702484,10.485894 8.702461,10.525533 8.656453,10.52531 8.606392,10.52531 8.606169,10.471663 8.606169,10.429243 8.66004,10.429243 8.702484,10.429219" style="fill: white" /><polygon type="contour" points="8.44651,10.429243 8.446368,10.475527 8.446368,10.525395 8.391404,10.525395 8.341088,10.52531 8.3412,10.471663 8.341302,10.429219 8.402904,10.429219" style="fill: white" /><polygon type="contour" points="8.304101,10.686006 8.445696,10.686006 8.445811,10.851471 8.445955,10.927649 8.445914,10.928845 8.445914,10.943344 8.445348,10.958653 8.422572,10.958907 8.168214,10.963488 8.17214,10.82902 8.173701,10.685869 8.21391,10.685869" style="fill: white" />
</svg>
