<svg width="19.131698" height="19.131699">
<polygon type="contour" points="4.42085,4.309901 4.6354,4.309901 4.6354,4.243813 4.718701,4.243813 4.718701,4.309901 4.8671,4.309901 4.8671,4.210852 5.0771,4.210852 5.0771,4.309901 5.287801,4.309901 5.287801,4.243813 5.3704,4.243813 5.3704,4.309901 5.52335,4.309901 5.52335,4.210852 5.733351,4.210852 5.733351,4.309901 5.9395,4.309901 5.9395,4.243813 6.022799,4.243813 6.022799,4.309901 6.179599,4.309901 6.179599,4.210852 6.389601,4.210852 6.389601,4.309901 6.591201,4.309901 6.591201,4.243813 6.6745,4.243813 6.6745,4.309901 6.835849,4.309901 6.835849,4.210852 7.045851,4.210852 7.045851,4.309901 7.2429,4.309901 7.2429,4.243813 7.326199,4.243813 7.326199,4.309901 7.492099,4.309901 7.492099,4.210852 7.702101,4.210852 7.702101,4.309901 7.894599,4.309901 7.894599,4.243813 7.977898,4.243813 7.977898,4.309901 8.148349,4.309901 8.148349,4.210852 8.358351,4.210852 8.358351,4.309901 8.5463,4.309901 8.5463,4.243813 8.6296,4.243813 8.6296,4.309901 8.804599,4.309901 8.804599,4.210852 9.014602,4.210852 9.014602,4.309901 9.198699,4.309901 9.198699,4.243813 9.281299,4.243813 9.281299,4.309901 9.460849,4.309901 9.460849,4.210852 9.670852,4.210852 9.670852,4.309901 9.850398,4.309901 9.850398,4.243813 9.933,4.243813 9.933,4.309901 10.117099,4.309901 10.117099,4.210852 10.327102,4.210852 10.327102,4.309901 10.502101,4.309901 10.502101,4.243813 10.585401,4.243813 10.585401,4.309901 10.773349,4.309901 10.773349,4.210852 10.983352,4.210852 10.983352,4.309901 11.153802,4.309901 11.153802,4.243813 11.237102,4.243813 11.237102,4.309901 11.429599,4.309901 11.429599,4.210852 11.639602,4.210852 11.639602,4.309901 11.805501,4.309901 11.805501,4.243813 11.888801,4.243813 11.888801,4.309901 12.085849,4.309901 12.085849,4.210852 12.295852,4.210852 12.295852,4.309901 12.4572,4.309901 12.4572,4.243813 12.5405,4.243813 12.5405,4.309901 12.742099,4.309901 12.742099,4.210852 12.952102,4.210852 12.952102,4.309901 13.108901,4.309901 13.108901,4.243813 13.192201,4.243813 13.192201,4.256811 13.192199,4.309901 13.398349,4.309901 13.398349,4.210852 13.608352,4.210852 13.608352,4.309901 13.7613,4.309901 13.7613,4.243813 13.8439,4.243813 13.8439,4.309901 14.054599,4.309901 14.054599,4.210852 14.264602,4.210852 14.264602,4.309901 14.412999,4.309901 14.412999,4.243813 14.496299,4.243813 14.496299,4.309901 14.710849,4.309901 14.710849,4.210852 14.920852,4.210852 14.920852,4.420852 14.821799,4.420852 14.821799,4.635401 14.887888,4.635401 14.887888,4.718703 14.821799,4.718703 14.821799,4.867102 14.920852,4.867102 14.920852,5.077102 14.821799,5.077102 14.821799,5.287802 14.887888,5.287802 14.887888,5.370402 14.821799,5.370402 14.821799,5.523352 14.920852,5.523352 14.920852,5.733353 14.821799,5.733353 14.821799,5.939502 14.887888,5.939502 14.887888,6.022802 14.821799,6.022802 14.821799,6.179601 14.920852,6.179601 14.920852,6.389603 14.821799,6.389603 14.821799,6.591202 14.887888,6.591202 14.887888,6.674501 14.821799,6.674501 14.821799,6.835851 14.920852,6.835851 14.920852,7.045853 14.821799,7.045853 14.821799,7.242902 14.887888,7.242902 14.887888,7.326201 14.821799,7.326201 14.821799,7.492101 14.920852,7.492101 14.920852,7.702103 14.821799,7.702103 14.821799,7.894602 14.887888,7.894602 14.887888,7.977901 14.821799,7.977901 14.821799,8.14835 14.920852,8.14835 14.920852,8.358353 14.821799,8.358353 14.821799,8.546302 14.887888,8.546302 14.887888,8.629601 14.821799,8.629601 14.821799,8.804601 14.920852,8.804601 14.920852,9.014604 14.821799,9.014604 14.821799,9.198701 14.887888,9.198701 14.887888,9.281301 14.821799,9.281301 14.821799,9.460851 14.920852,9.460851 14.920852,9.670854 14.821799,9.670854 14.821799,9.850401 14.887888,9.850401 14.887888,9.933001 14.821799,9.933001 14.821799,10.117101 14.920852,10.117101 14.920852,10.327104 14.821799,10.327104 14.821799,10.502103 14.887888,10.502103 14.887888,10.585402 14.821799,10.585402 14.821799,10.773351 14.920852,10.773351 14.920852,10.983354 14.821799,10.983354 14.821799,11.153803 14.887888,11.153803 14.887888,11.237103 14.821799,11.237103 14.821799,11.429601 14.920852,11.429601 14.920852,11.639603 14.821799,11.639603 14.821799,11.805503 14.887888,11.805503 14.887888,11.888803 14.821799,11.888803 14.821799,12.085851 14.920852,12.085851 14.920852,12.295853 14.821799,12.295853 14.821799,12.457203 14.887888,12.457203 14.887888,12.540503 14.821799,12.540503 14.821799,12.742101 14.920852,12.742101 14.920852,12.952103 14.821799,12.952103 14.821799,13.108902 14.887888,13.108902 14.887888,13.192202 14.821799,13.192202 14.821799,13.398351 14.920852,13.398351 14.920852,13.608353 14.821799,13.608353 14.821799,13.761302 14.887888,13.761302 14.887888,13.843903 14.821799,13.843903 14.821799,14.054602 14.920852,14.054602 14.920852,14.264603 14.821799,14.264603 14.821799,14.413002 14.887888,14.413002 14.887888,14.496302 14.821799,14.496302 14.821799,14.710852 14.920852,14.710852 14.920852,14.920853 14.710849,14.920853 14.710849,14.821802 14.496299,14.821802 14.496299,14.887891 14.412999,14.887891 14.412999,14.821802 14.264602,14.821802 14.264602,14.920853 14.054599,14.920853 14.054599,14.821802 13.8439,14.821802 13.8439,14.887891 13.7613,14.887891 13.7613,14.821802 13.608352,14.821802 13.608352,14.920853 13.398349,14.920853 13.398349,14.821802 13.192201,14.821802 13.192201,14.887891 13.108901,14.887891 13.108901,14.821802 12.952102,14.821802 12.952102,14.920853 12.742099,14.920853 12.742099,14.821802 12.5405,14.821802 12.5405,14.887891 12.4572,14.887891 12.4572,14.821802 12.295852,14.821802 12.295852,14.920853 12.085849,14.920853 12.085849,14.821802 11.888801,14.821802 11.888801,14.887891 11.8834,14.88789 11.805501,14.88789 11.805501,14.821802 11.639602,14.821802 11.639602,14.920853 11.429599,14.920853 11.429599,14.821802 11.237102,14.821802 11.237102,14.887891 11.153802,14.887891 11.153802,14.821802 10.983352,14.821802 10.983352,14.920853 10.773349,14.920853 10.773349,14.821802 10.585401,14.821802 10.585401,14.887891 10.502101,14.887891 10.502101,14.821802 10.327102,14.821802 10.327102,14.920853 10.117099,14.920853 10.117099,14.821802 9.933,14.821802 9.933,14.887891 9.850398,14.887891 9.850398,14.821802 9.670852,14.821802 9.670852,14.920853 9.460849,14.920853 9.460849,14.821802 9.281299,14.821802 9.281299,14.887891 9.198699,14.887891 9.198699,14.821802 9.014602,14.821802 9.014602,14.920853 8.804599,14.920853 8.804599,14.821802 8.6296,14.821802 8.6296,14.887891 8.5463,14.887891 8.5463,14.821802 8.358351,14.821802 8.358351,14.920853 8.148349,14.920853 8.148349,14.821802 7.977898,14.821802 7.977898,14.887891 7.972497,14.887891 7.894599,14.887889 7.894599,14.821802 7.702101,14.821802 7.702101,14.920853 7.492099,14.920853 7.492099,14.821802 7.326199,14.821802 7.326199,14.887891 7.2429,14.887891 7.2429,14.821802 7.045851,14.821802 7.045851,14.920853 6.835849,14.920853 6.835849,14.821802 6.6745,14.821802 6.6745,14.887891 6.669099,14.88789 6.591201,14.88789 6.591201,14.821801 6.389601,14.821801 6.389601,14.920853 6.179599,14.920853 6.179599,14.821802 6.022799,14.821802 6.022799,14.887891 5.9395,14.887891 5.9395,14.821802 5.733351,14.821802 5.733351,14.920853 5.52335,14.920853 5.52335,14.821802 5.3704,14.821802 5.3704,14.887891 5.287801,14.887891 5.287801,14.821802 5.0771,14.821802 5.0771,14.920853 4.8671,14.920853 4.8671,14.821802 4.718701,14.821802 4.718701,14.887891 4.6354,14.887891 4.6354,14.821802 4.42085,14.821802 4.42085,14.920853 4.21085,14.920853 4.21085,14.710852 4.309899,14.710852 4.309899,14.496302 4.243811,14.496302 4.243811,14.413002 4.309899,14.413002 4.309899,14.264603 4.21085,14.264603 4.21085,14.054602 4.309899,14.054602 4.309899,13.843903 4.243811,13.843903 4.243811,13.761302 4.309899,13.761302 4.309899,13.608353 4.21085,13.608353 4.21085,13.398351 4.309899,13.398351 4.309899,13.192202 4.243811,13.192202 4.243811,13.108902 4.309899,13.108902 4.309899,12.952103 4.21085,12.952103 4.21085,12.742101 4.309899,12.742101 4.309899,12.540503 4.243811,12.540503 4.243811,12.457203 4.309899,12.457203 4.309899,12.295853 4.21085,12.295853 4.21085,12.085851 4.309899,12.085851 4.309899,11.888803 4.243811,11.888803 4.243811,11.805503 4.309899,11.805503 4.309899,11.639603 4.21085,11.639603 4.21085,11.429601 4.309899,11.429601 4.309899,11.237103 4.243811,11.237103 4.243811,11.153803 4.309899,11.153803 4.309899,10.983354 4.21085,10.983354 4.21085,10.968954 4.210851,10.773351 4.309899,10.773351 4.309899,10.585402 4.243811,10.585402 4.243811,10.502103 4.309899,10.502103 4.309899,10.327104 4.21085,10.327104 4.21085,10.117101 4.309899,10.117101 4.309898,9.933001 4.243811,9.933001 4.243811,9.850401 4.309899,9.850401 4.309899,9.670854 4.21085,9.670854 4.21085,9.460851 4.309899,9.460851 4.309899,9.372607 4.309898,9.281301 4.243811,9.281301 4.243811,9.198701 4.309899,9.198701 4.309899,9.014604 4.21085,9.014604 4.21085,8.804601 4.309899,8.804601 4.309899,8.629601 4.243811,8.629601 4.243811,8.546302 4.309899,8.546302 4.309899,8.358353 4.21085,8.358353 4.21085,8.14835 4.309899,8.14835 4.309899,7.977901 4.243811,7.977901 4.243811,7.894602 4.309899,7.894602 4.309899,7.702103 4.21085,7.702103 4.21085,7.492101 4.309899,7.492101 4.309899,7.326201 4.243811,7.326201 4.243811,7.242902 4.309899,7.242902 4.309899,7.045853 4.21085,7.045853 4.21085,6.835851 4.309899,6.835851 4.309899,6.674501 4.243811,6.674501 4.243811,6.591202 4.309899,6.591202 4.309899,6.389603 4.21085,6.389603 4.21085,6.179601 4.309899,6.179601 4.309899,6.022802 4.243811,6.022802 4.243811,5.939502 4.309899,5.939502 4.309899,5.733353 4.21085,5.733353 4.21085,5.523352 4.309899,5.523352 4.309899,5.370402 4.243811,5.370402 4.243811,5.287802 4.309899,5.287802 4.309899,5.077102 4.21085,5.077102 4.21085,4.867102 4.309899,4.867102 4.309899,4.718703 4.243811,4.718703 4.243811,4.635401 4.309899,4.635401 4.309899,4.420852 4.21085,4.420852 4.21085,4.210852 4.42085,4.210852" style="fill: white" /><polygon type="hole" points="6.955472,6.821393 6.930844,6.821393 6.823087,6.823197 6.82139,6.914884 6.82139,6.92492 6.821398,6.935539 6.821589,6.955639 6.821254,6.967981 6.82139,6.972349 6.82139,7.532208 6.821846,7.586479 6.821846,7.826826 6.822245,7.865208 6.822302,7.905725 6.822302,8.144703 6.822758,8.198974 6.822758,8.698719 6.823088,8.72799 6.823214,8.775339 6.823214,9.233275 6.823671,9.287545 6.823671,9.527435 6.82393,9.540947 6.824143,9.566201 6.82429,9.58668 6.82393,9.591033 6.823671,9.60451 6.823671,9.844402 6.823214,9.898672 6.823214,10.356365 6.823088,10.403713 6.822758,10.432983 6.822758,10.671963 6.822302,10.726234 6.822302,11.225979 6.822245,11.266496 6.821846,11.304877 6.821846,11.545223 6.82139,11.599495 6.82139,12.159353 6.821254,12.163721 6.821589,12.176065 6.821398,12.195785 6.823168,12.305083 6.870643,12.309399 6.922999,12.310072 6.935538,12.310303 6.955636,12.310113 6.967979,12.310447 6.972346,12.310311 7.532205,12.310311 7.586478,12.309856 7.826824,12.309856 7.865206,12.309456 7.905724,12.3094 8.405468,12.3094 8.459739,12.308944 8.698718,12.308944 8.727988,12.308614 8.775336,12.308487 8.895281,12.308487 9.098235,12.308486 9.233271,12.308486 9.287543,12.30803 9.527434,12.30803 9.540945,12.307772 9.566199,12.307556 9.586676,12.307412 9.59103,12.307772 9.604508,12.30803 9.8444,12.30803 9.898671,12.308486 10.356364,12.308486 10.403709,12.308613 10.432983,12.308944 10.67196,12.308944 10.726232,12.3094 11.225975,12.3094 11.266493,12.309456 11.304875,12.309856 11.545223,12.309856 11.599493,12.310311 12.159352,12.310311 12.163719,12.310446 12.176064,12.310113 12.195784,12.310304 12.236883,12.3094 12.308199,12.308489 12.310069,12.208701 12.310301,12.195785 12.310112,12.176064 12.310445,12.163721 12.31031,12.159353 12.31031,11.570467 12.309854,11.516195 12.309854,11.27585 12.309399,11.196949 12.309399,10.52328 12.308943,10.469009 12.308943,10.23003 12.308485,10.15341 12.308485,9.913064 12.308029,9.858793 12.308029,9.60451 12.30777,9.591033 12.307556,9.566202 12.30741,9.545375 12.307769,9.540948 12.308029,9.527436 12.308029,9.287546 12.308485,9.233274 12.308485,8.992928 12.308943,8.916309 12.308943,8.677331 12.309399,8.623059 12.309399,8.384082 12.309854,8.305181 12.309854,7.615507 12.31031,7.561236 12.31031,6.972349 12.310446,6.967981 12.310112,6.955638 12.310301,6.93554 12.308689,6.823012 12.2087,6.821631 12.195784,6.8214 12.176064,6.821591 12.163719,6.821257 12.159352,6.821393 12.053089,6.821392 11.938197,6.821392 11.831475,6.821393 11.570465,6.821393 11.516195,6.821848 11.275847,6.821848 11.196948,6.822304 10.523278,6.822304 10.469007,6.82276 10.230029,6.82276 10.153409,6.823216 9.913064,6.823216 9.858791,6.823673 9.604507,6.823673 9.591031,6.823931 9.566198,6.824146 9.545374,6.824292 9.540946,6.823932 9.527435,6.823673 9.287542,6.823673 9.233272,6.823216 8.978288,6.823216 8.901671,6.82276 8.662692,6.82276 8.60842,6.822304 7.934751,6.822304 7.855852,6.821848 7.615506,6.821848 7.561233,6.821393 6.972346,6.821393 6.963024,6.821102" style="fill: black" />
</svg>
