<svg width="19.131698" height="19.131699">
<polygon type="contour" points="9.244171,7.845757 9.274663,7.845935 9.274663,7.881885 9.275217,7.960644 9.274858,7.960641 9.275335,8.065315 9.274809,8.134333 9.239138,8.134333 9.163701,8.134448 9.163767,8.110042 9.162941,7.960491 9.161941,7.960491 9.163331,7.933239 9.163717,7.845555" style="fill: white" /><polygon type="contour" points="9.028554,7.677665 9.028531,7.683458 9.028595,7.684003 9.028595,7.690262 9.028596,7.690561 9.028625,7.700206 9.028671,7.723353 9.028772,7.874756 9.028675,8.039413 9.029054,8.039412 9.028669,8.050341 9.029002,8.061176 9.029072,8.065315 9.02915,8.134448 8.941473,8.134448 8.735468,8.134502 8.632826,8.134502 8.55366,8.134333 8.55366,8.104234 8.553561,8.039474 8.553561,7.92865 8.55366,7.845867 8.632827,7.845531 8.734953,7.845067 8.734953,7.676908 8.763348,7.676783" style="fill: white" /><polygon type="contour" points="7.943272,7.675904 7.960097,7.677182 7.960097,7.845334 8.065313,7.845749 8.134331,7.845867 8.134331,7.883098 8.134483,7.960614 8.134483,8.065315 8.134331,8.134333 8.104232,8.134333 8.039473,8.134485 7.928647,8.134485 7.845865,8.134333 7.845745,8.065315 7.845335,7.960098 7.773038,7.9603 7.761148,7.9602 7.750624,7.960073 7.748483,7.959543 7.67571,7.958982 7.675894,7.729282 7.673789,7.67379" style="fill: white" /><polygon type="contour" points="8.134331,10.99737 8.134331,11.027469 8.134483,11.092229 8.134483,11.203054 8.134331,11.285835 8.065313,11.285954 7.960097,11.286368 7.960097,11.454522 7.736637,11.455372 7.673789,11.457914 7.674076,11.196361 7.675662,11.172762 7.750624,11.17163 7.761148,11.171503 7.773038,11.171404 7.845335,11.171605 7.845745,11.066387 7.845864,10.99737 7.883098,10.99737 7.960613,10.997219 8.065314,10.997219" style="fill: white" /><polygon type="contour" points="9.885103,10.102584 9.967983,10.102584 9.967983,10.177479 9.968307,10.399746 9.9683,10.498874 9.968,10.578158 9.934519,10.578158 9.856889,10.578042 9.856821,10.544919 9.856237,10.47088 9.856237,10.322832 9.85642,10.102558" style="fill: white" /><polygon type="contour" points="9.967983,9.885106 9.967983,9.967986 9.935627,9.967925 9.85642,9.967925 9.85642,9.935831 9.856821,9.857038 9.891263,9.857038 9.967923,9.856624" style="fill: white" /><polygon type="contour" points="10.578041,9.856891 10.578041,9.892563 10.578156,9.968002 10.550499,9.967986 10.470762,9.968304 10.331664,9.968304 10.102582,9.967986 10.102556,9.93583 10.102556,9.856624 10.18713,9.856624 10.39624,9.856414 10.396241,9.856712 10.498873,9.856302" style="fill: white" /><polygon type="contour" points="10.578156,10.190229 10.57812,10.470849 10.57813,10.470849 10.57813,10.498874 10.57804,10.578042 10.543705,10.578042 10.470847,10.578131 10.319978,10.578131 10.102551,10.578158 10.102622,10.550919 10.103015,10.470932 10.103266,10.470932 10.103454,10.334107 10.103129,10.103131 10.175307,10.102993 10.47093,10.103453 10.47093,10.103016 10.498874,10.102933 10.578156,10.102553" style="fill: white" /><polygon type="contour" points="11.021657,10.102566 11.092289,10.102648 11.092289,10.103051 11.383036,10.102991 11.454812,10.103131 11.454676,10.174778 11.454731,10.396816 11.286633,10.396816 11.28617,10.498874 11.285835,10.578042 11.248601,10.578042 11.171086,10.578141 11.066386,10.578141 10.997369,10.578042 10.997369,10.543708 10.997199,10.470849 10.997199,10.319979 10.997253,10.102553" style="fill: white" /><polygon type="contour" points="11.285766,9.857038 11.285943,9.887529 11.286147,9.967986 11.256118,9.967986 11.171138,9.968373 11.171138,9.968202 11.066386,9.968368 10.997254,9.968002 10.997254,9.934522 10.997369,9.856891 11.026534,9.857038 11.092321,9.856485 11.201851,9.856485" style="fill: white" /><polygon type="contour" points="11.286147,9.163719 11.285943,9.244173 11.285766,9.27488 11.249815,9.27488 11.149243,9.275547 11.066386,9.275337 10.997369,9.274812 10.997369,9.23914 10.997254,9.163703 11.021658,9.163769 11.100577,9.163331 11.198463,9.163331" style="fill: white" /><polygon type="contour" points="11.285835,8.553662 11.28617,8.632829 11.286633,8.734888 11.454731,8.734888 11.454846,8.797595 11.454812,9.028574 11.328461,9.028574 11.257188,9.028714 11.092288,9.028627 11.092289,9.029055 11.021657,9.029138 10.997254,9.029152 10.997254,8.941474 10.997199,8.73547 10.997199,8.632828 10.997368,8.553662 11.027468,8.553662 11.092227,8.553563 11.203051,8.553563" style="fill: white" /><polygon type="contour" points="11.457625,7.935343 11.456038,7.958942 11.381075,7.960073 11.370551,7.9602 11.358661,7.9603 11.286363,7.960098 11.285953,8.065315 11.285835,8.134333 11.248601,8.134333 11.171086,8.134485 11.066387,8.134485 10.997369,8.134332 10.997369,8.104234 10.997217,8.039475 10.997217,7.928649 10.997368,7.845867 11.066386,7.845749 11.171603,7.845334 11.171603,7.677182 11.395062,7.676332 11.457912,7.67379" style="fill: white" /><polygon type="contour" points="10.396748,7.845067 10.498873,7.845531 10.578041,7.845867 10.578041,7.883099 10.578139,7.960615 10.578139,8.065315 10.578041,8.134333 10.543705,8.134333 10.470847,8.134502 10.319977,8.134502 10.102551,8.134448 10.102565,8.110042 10.102646,8.039413 10.102962,8.039413 10.103028,7.723354 10.103104,7.690561 10.103104,7.684003 10.103145,7.677665 10.125609,7.677746 10.396748,7.676908" style="fill: white" /><polygon type="contour" points="9.969509,7.875345 9.96976,7.96049 9.968199,7.960498 9.968365,8.065315 9.968,8.134448 9.93452,8.134448 9.856889,8.134333 9.856821,8.105167 9.856299,8.039381 9.856299,7.929849 9.856821,7.845935 9.887526,7.845758 9.967983,7.845555" style="fill: white" /><polygon type="contour" points="9.9683,8.632829 9.968258,8.636994 9.968302,8.660939 9.968302,8.800037 9.967983,9.029121 9.935626,9.029147 9.85642,9.029147 9.85642,8.944571 9.856189,8.68172 9.8563,8.632829 9.856889,8.553662 9.89256,8.553662 9.968,8.553546" style="fill: white" /><polygon type="contour" points="10.470847,8.553582 10.470847,8.553573 10.498873,8.553573 10.578041,8.553662 10.578041,8.587996 10.57813,8.660854 10.57813,8.811724 10.578156,9.029152 10.498874,9.028771 10.47093,9.028688 10.47093,9.028437 10.334104,9.028248 10.103129,9.028574 10.103026,8.956925 10.103482,8.660772 10.103015,8.660772 10.103381,8.649107 10.102964,8.636994 10.102932,8.632828 10.102551,8.553546 10.190228,8.553546" style="fill: white" /><polygon type="contour" points="10.498873,9.163402 10.578156,9.163703 10.578156,9.197182 10.578041,9.274812 10.544919,9.27488 10.470879,9.275465 10.32283,9.275465 10.102556,9.275282 10.102582,9.246598 10.102582,9.163719 10.177477,9.163719 10.399744,9.163394" style="fill: white" /><polygon type="contour" points="9.967923,9.196075 9.967923,9.275282 9.935626,9.275282 9.856821,9.27488 9.856821,9.240436 9.85642,9.16378 9.885103,9.163719 9.967983,9.163719" style="fill: white" /><polygon type="contour" points="9.029119,9.163719 9.029145,9.196075 9.029145,9.275282 8.944569,9.275282 8.68172,9.275512 8.632826,9.275401 8.55366,9.274812 8.55366,9.23914 8.553545,9.163703 8.5812,9.163719 8.660937,9.1634 8.800036,9.1634" style="fill: white" /><polygon type="contour" points="9.195872,9.16378 9.275079,9.16378 9.275079,9.196075 9.274663,9.27488 9.240434,9.27488 9.163777,9.275282 9.163717,9.246598 9.163717,9.163719" style="fill: white" /><polygon type="contour" points="9.274809,8.553662 9.274663,8.586785 9.275288,8.660822 9.275288,8.808871 9.275078,9.029147 9.246596,9.029121 9.163717,9.029121 9.163717,8.954225 9.163393,8.731946 9.163401,8.632829 9.163701,8.553546 9.19718,8.553546" style="fill: white" /><polygon type="contour" points="9.029079,8.580784 9.028685,8.660772 9.028435,8.660772 9.028246,8.797596 9.028571,9.028574 8.956393,9.028711 8.66077,9.02825 8.66077,9.028688 8.632826,9.028771 8.553545,9.029152 8.553545,8.941474 8.55358,8.660855 8.553571,8.660855 8.553571,8.632829 8.55366,8.553662 8.587994,8.553662 8.660854,8.553573 8.811722,8.553573 9.029149,8.553546" style="fill: white" /><polygon type="contour" points="8.134331,8.553662 8.134331,8.587995 8.134499,8.660855 8.134499,8.811723 8.134446,9.029152 8.110041,9.029138 8.039411,9.029055 8.039411,9.028652 7.748664,9.028714 7.676889,9.028574 7.677023,8.956926 7.676969,8.734888 7.845066,8.734888 7.845529,8.632829 7.845865,8.553662 7.883098,8.553662 7.960614,8.553563 8.065314,8.553563" style="fill: white" /><polygon type="contour" points="7.960561,9.163498 8.065313,9.163336 8.134446,9.163703 8.134446,9.197182 8.134331,9.274812 8.105165,9.27488 8.039379,9.275403 7.929848,9.275403 7.845933,9.27488 7.845756,9.244173 7.845553,9.163719 7.875582,9.163719 7.960561,9.163331" style="fill: white" /><polygon type="contour" points="8.134331,9.856891 8.134331,9.892563 8.134446,9.968002 8.11004,9.967936 7.960489,9.968763 7.960489,9.969762 7.933237,9.968373 7.845553,9.967986 7.845756,9.887529 7.845933,9.857038 7.881884,9.857038 7.960641,9.856485 7.960639,9.856843 8.065313,9.856367" style="fill: white" /><polygon type="contour" points="8.134446,10.190229 8.134499,10.396233 8.134499,10.498875 8.134331,10.578042 8.104232,10.578042 8.039472,10.578141 7.928648,10.578141 7.845865,10.578042 7.845529,10.498874 7.845066,10.396816 7.676969,10.396816 7.676853,10.334106 7.676889,10.103131 7.803238,10.103131 7.874219,10.102956 8.039411,10.103049 8.03941,10.102648 8.110041,10.102566 8.134446,10.102553" style="fill: white" /><polygon type="contour" points="8.632826,10.102934 8.66077,10.103017 8.66077,10.103268 8.797594,10.103456 9.028571,10.103131 9.028675,10.174778 9.028218,10.470932 9.028686,10.470932 9.028769,10.498874 9.02915,10.578158 8.941472,10.578158 8.660854,10.578121 8.660854,10.578131 8.632827,10.578131 8.55366,10.578041 8.55366,10.543707 8.553571,10.470849 8.553571,10.319979 8.553545,10.102553" style="fill: white" /><polygon type="contour" points="9.029145,9.856624 9.029119,9.885106 9.029119,9.967986 8.954223,9.967986 8.731945,9.968309 8.632827,9.968302 8.553545,9.968002 8.553545,9.934522 8.55366,9.856891 8.586782,9.857038 8.660822,9.856414 8.808871,9.856414" style="fill: white" /><polygon type="contour" points="9.274663,9.857038 9.274663,9.891266 9.275079,9.967925 9.246596,9.967986 9.163717,9.967986 9.163778,9.93583 9.163778,9.856624 9.195872,9.856624" style="fill: white" /><polygon type="contour" points="9.275079,10.187132 9.275287,10.396242 9.274989,10.396243 9.2754,10.498874 9.274809,10.578042 9.239137,10.578042 9.163701,10.578158 9.163401,10.498874 9.163443,10.494709 9.163399,10.470765 9.163399,10.331666 9.163717,10.102584 9.195872,10.102558 9.275079,10.102558" style="fill: white" /><polygon type="contour" points="9.02915,10.997255 9.029135,11.021659 9.029053,11.092291 9.028675,11.092291 9.028772,11.256947 9.028671,11.40835 9.028625,11.431497 9.028596,11.441144 9.028595,11.4477 9.028554,11.454039 9.006089,11.453959 8.734953,11.454796 8.734953,11.286636 8.632827,11.286172 8.55366,11.285835 8.55366,11.248602 8.553561,11.171088 8.553561,11.066387 8.553659,10.99737 8.587994,10.99737 8.660854,10.9972 8.811723,10.9972" style="fill: white" /><polygon type="contour" points="9.274809,10.99737 9.274663,11.026534 9.275217,11.092322 9.275217,11.201854 9.274663,11.285766 9.244172,11.285943 9.163717,11.286149 9.162191,11.256357 9.161941,11.171213 9.163501,11.171206 9.163336,11.066387 9.163701,10.997255 9.197181,10.997255" style="fill: white" /><polygon type="contour" points="9.967934,11.021659 9.96837,11.100621 9.96837,11.198464 9.967983,11.286149 9.887526,11.285944 9.856821,11.285766 9.856821,11.249815 9.856154,11.149216 9.856365,11.066388 9.856889,10.99737 9.892561,10.99737 9.968,10.997255" style="fill: white" /><polygon type="contour" points="10.578041,10.997369 10.578041,11.027469 10.578139,11.092229 10.578139,11.203054 10.578041,11.285835 10.498873,11.286172 10.396748,11.286636 10.396748,11.454795 10.368352,11.45492 10.103145,11.454039 10.103168,11.448245 10.103104,11.447699 10.103104,11.441144 10.103073,11.431497 10.103028,11.40835 10.102929,11.256947 10.103025,11.09229 10.102646,11.092291 10.102629,11.066388 10.102551,10.997255 10.190228,10.997255 10.39623,10.9972 10.498874,10.9972" style="fill: white" /><polygon type="contour" points="11.285835,10.99737 11.285953,11.066387 11.286363,11.171605 11.358661,11.171404 11.370551,11.171503 11.381075,11.171631 11.383216,11.172158 11.45599,11.172723 11.455806,11.402421 11.457912,11.457914 11.188427,11.455799 11.171603,11.454522 11.171603,11.286368 11.066387,11.285954 10.997369,11.285835 10.997369,11.248602 10.997217,11.171088 10.997217,11.066387 10.997369,10.99737 11.027467,10.99737 11.092227,10.997219 11.203051,10.997219" style="fill: white" />
</svg>
