<svg width="19.131698" height="19.131699">
<polygon type="contour" points="10.617224,10.555857 10.617328,10.567624 10.617732,10.592254 10.618512,10.618514 10.597416,10.617902 10.587268,10.617612 10.331729,10.620123 10.331009,10.60287 10.331009,10.586188 10.330997,10.584325 10.330268,10.462912 10.32914,10.329142 10.432946,10.329012 10.617509,10.329012" style="fill: white" /><polygon type="contour" points="8.802903,9.008928 8.803168,9.074439 8.803168,9.164765 8.802953,9.243801 8.765029,9.243769 8.680937,9.243769 8.680927,9.164635 8.68108,9.074442 8.680954,9.074442 8.68094,9.006115 8.681068,8.978271 8.802903,8.978271" style="fill: white" /><polygon type="contour" points="8.800692,8.528833 8.800692,8.545515 8.800704,8.547379 8.801432,8.668791 8.80256,8.802562 8.698753,8.802691 8.514189,8.802691 8.514476,8.575846 8.514371,8.564079 8.513967,8.539449 8.513188,8.51319 8.534283,8.513801 8.544431,8.514091 8.799972,8.511581" style="fill: white" /><polygon type="contour" points="10.587268,8.514091 10.597416,8.513801 10.618512,8.51319 10.617732,8.539449 10.617328,8.564079 10.617224,8.575846 10.617509,8.802691 10.432946,8.802691 10.32914,8.802562 10.32914,8.76746 10.330269,8.668791 10.330997,8.573637 10.330997,8.547378 10.331008,8.528834 10.331206,8.52712 10.331729,8.511581" style="fill: white" /><polygon type="contour" points="10.450679,9.058187 10.450781,9.083129 10.450708,9.216674 10.45076,9.243769 10.36667,9.243769 10.328747,9.243801 10.328747,9.213998 10.328533,9.148866 10.328533,9.058187 10.328798,8.978271 10.45063,8.978271" style="fill: white" /><polygon type="contour" points="10.461564,9.420602 10.617752,9.420602 10.617723,9.426761 10.619901,9.566154 10.617723,9.704913 10.617752,9.711102 10.461564,9.711102 10.328643,9.71151 10.328643,9.420194" style="fill: white" /><polygon type="contour" points="10.36667,9.887935 10.450761,9.887935 10.450772,9.967068 10.450619,10.057261 10.450746,10.057261 10.450758,10.125586 10.450629,10.153431 10.328798,10.153431 10.328798,10.122773 10.328533,10.057264 10.328533,9.966937 10.328747,9.887903" style="fill: white" /><polygon type="contour" points="10.153429,9.711546 10.122871,9.711102 9.887934,9.711102 9.887934,9.420602 10.122871,9.420602 10.153429,9.420158" style="fill: white" /><polygon type="contour" points="10.153429,9.916428 10.153115,10.057265 10.153281,10.057265 10.153281,10.073515 10.153429,10.153431 10.122772,10.153431 9.982834,10.153114 9.982834,10.153283 9.966936,10.153283 9.886435,10.153431 9.888337,10.073515 9.888431,9.982854 9.888354,9.982854 9.888354,9.967068 9.887934,9.887935 9.917563,9.887935 10.057221,9.888833 10.057221,9.888355 10.073512,9.888338 10.153429,9.886437" style="fill: white" /><polygon type="contour" points="10.153429,10.328799 10.153429,10.450632 10.073512,10.450681 10.04857,10.450783 9.915028,10.45071 9.887934,10.450762 9.887934,10.366672 9.887902,10.328749 9.917705,10.328749 9.982833,10.328535 10.073512,10.328535" style="fill: white" /><polygon type="contour" points="9.711101,10.363696 9.711101,10.617765 9.596242,10.618317 9.59035,10.618476 9.57804,10.619008 9.565548,10.619231 9.54077,10.618475 9.534907,10.618317 9.4206,10.617402 9.4206,10.328644 9.711509,10.328644" style="fill: white" /><polygon type="contour" points="9.711101,10.122873 9.711545,10.153431 9.4206,10.153431 9.4206,9.887935 9.711101,9.887935" style="fill: white" /><polygon type="contour" points="9.711101,9.711102 9.4206,9.711102 9.4206,9.420602 9.711101,9.420602" style="fill: white" /><polygon type="contour" points="9.711101,9.008828 9.711101,9.243769 9.4206,9.243769 9.4206,9.008828 9.420156,8.978271 9.711545,8.978271" style="fill: white" /><polygon type="contour" points="10.057262,8.979043 10.057262,8.978421 10.073513,8.978421 10.153429,8.978271 10.153429,9.044213 10.153281,9.058187 10.153281,9.164765 10.153429,9.245267 10.073512,9.243367 9.982851,9.243266 9.982851,9.243349 9.967064,9.243349 9.887934,9.243769 9.887934,9.21414 9.888832,9.07448 9.888354,9.07448 9.888337,9.058187 9.887901,8.977876 9.917705,8.977876" style="fill: white" /><polygon type="contour" points="10.057258,8.681082 10.057258,8.680956 10.125584,8.680942 10.153429,8.68107 10.153429,8.802905 10.122772,8.802905 10.057261,8.80317 9.966935,8.80317 9.887902,8.802955 9.887934,8.765031 9.887934,8.680939 9.967064,8.680929" style="fill: white" /><polygon type="contour" points="9.59035,8.513228 9.596242,8.513387 9.711101,8.513939 9.711101,8.670136 9.711509,8.803058 9.420192,8.803058 9.4206,8.768007 9.4206,8.513939 9.534906,8.513387 9.54077,8.513229 9.553022,8.512694 9.5655,8.512472" style="fill: white" /><polygon type="contour" points="9.21667,8.680991 9.243767,8.680939 9.243767,8.765031 9.243798,8.802955 9.213995,8.802955 9.148865,8.80317 9.058186,8.80317 8.97827,8.802905 8.97827,8.68107 9.058186,8.681023 9.082711,8.680921" style="fill: white" /><polygon type="contour" points="9.243364,9.058188 9.243269,9.14885 9.243347,9.14885 9.243347,9.164635 9.243767,9.243769 9.214136,9.243769 9.074479,9.24287 9.074479,9.243349 9.058186,9.243367 8.977874,9.243801 8.977874,9.213997 8.979041,9.074439 8.978419,9.074439 8.978419,9.058187 8.97827,8.978271 9.008926,8.978271 9.148866,8.978591 9.148866,8.978421 9.164764,8.978421 9.243798,8.977876" style="fill: white" /><polygon type="contour" points="9.008827,9.420602 9.243767,9.420602 9.243767,9.711102 9.008827,9.711102 8.97827,9.711546 8.97827,9.420158" style="fill: white" /><polygon type="contour" points="8.803056,9.71151 8.670134,9.711102 8.513948,9.711102 8.513977,9.704942 8.511799,9.565549 8.513977,9.42679 8.513948,9.420602 8.670134,9.420602 8.803056,9.420194" style="fill: white" /><polygon type="contour" points="8.802953,9.917705 8.803168,9.982837 8.803168,10.073515 8.802903,10.153431 8.681068,10.153431 8.681021,10.073515 8.680919,10.04899 8.680989,9.915029 8.680937,9.887935 8.765029,9.887935 8.802953,9.887903" style="fill: white" /><polygon type="contour" points="9.058185,9.888338 9.148849,9.888432 9.148849,9.888355 9.164635,9.888355 9.243767,9.887935 9.243767,9.917563 9.243347,9.982853 9.242192,9.982857 9.2436,10.073516 9.244239,10.153828 9.213994,10.153828 9.074438,10.15266 9.074438,10.153283 9.058186,10.153283 8.97827,10.153431 8.977874,10.087691 8.978419,10.073516 8.978419,9.966937 8.977874,9.887903" style="fill: white" /><polygon type="contour" points="9.074438,10.328535 9.165,10.328535 9.244239,10.328749 9.243767,10.366671 9.243767,10.450762 9.164634,10.450774 9.074441,10.450621 9.074441,10.450748 9.006114,10.45076 8.97827,10.450631 8.97827,10.328799 9.008927,10.328799 9.074438,10.328534" style="fill: white" /><polygon type="contour" points="8.80256,10.329142 8.80256,10.364245 8.801432,10.462912 8.800704,10.558067 8.800704,10.584325 8.800692,10.602869 8.800493,10.604583 8.799971,10.620123 8.544431,10.617612 8.534283,10.617902 8.513188,10.618514 8.513967,10.592254 8.514371,10.567624 8.514476,10.555857 8.514189,10.329012 8.698753,10.329012" style="fill: white" />
</svg>
