<svg width="19.131698" height="19.131699">
<polygon type="contour" points="4.393201,4.210852 4.42085,4.210852 4.42085,4.309901 4.6354,4.309901 4.6354,4.160597 4.718701,4.160597 4.718701,4.309901 4.8671,4.309901 4.8671,4.210852 4.961599,4.210852 4.961599,4.160597 5.0449,4.160597 5.0449,4.210852 5.0771,4.210852 5.0771,4.309901 5.287801,4.309901 5.287801,4.160597 5.3704,4.160597 5.3704,4.309901 5.52335,4.309901 5.52335,4.210852 5.613301,4.210852 5.613301,4.160597 5.696601,4.160597 5.696601,4.210852 5.733351,4.210852 5.733351,4.309901 5.9395,4.309901 5.9395,4.160597 6.022799,4.160597 6.022799,4.309901 6.179599,4.309901 6.179599,4.210852 6.265,4.210852 6.265,4.160597 6.3483,4.160597 6.3483,4.210852 6.389601,4.210852 6.389601,4.309901 6.591201,4.309901 6.591201,4.160597 6.6745,4.160597 6.6745,4.309901 6.835849,4.309901 6.835849,4.210852 6.917399,4.210852 6.917399,4.160597 6.999999,4.160597 6.999999,4.210852 7.045851,4.210852 7.045851,4.309901 7.2429,4.309901 7.2429,4.160597 7.326199,4.160597 7.326199,4.309901 7.492099,4.309901 7.492099,4.210852 7.5691,4.210852 7.5691,4.160597 7.6524,4.160597 7.6524,4.210852 7.702101,4.210852 7.702101,4.309901 7.894599,4.309901 7.894599,4.160597 7.977898,4.160597 7.977898,4.309901 8.148349,4.309901 8.148349,4.210852 8.220799,4.210852 8.220799,4.160597 8.304099,4.160597 8.304099,4.210852 8.358351,4.210852 8.358351,4.309901 8.5463,4.309901 8.5463,4.160597 8.6296,4.160597 8.6296,4.309901 8.804599,4.309901 8.804599,4.210852 8.872499,4.210852 8.872499,4.160597 8.955798,4.160597 8.955798,4.210852 9.014602,4.210852 9.014602,4.309901 9.198699,4.309901 9.198699,4.160597 9.281299,4.160597 9.281299,4.309901 9.460849,4.309901 9.460849,4.210852 9.524199,4.210852 9.524199,4.160597 9.547784,4.161303 9.607499,4.161728 9.607499,4.210852 9.670852,4.210852 9.670852,4.309901 9.850398,4.309901 9.850398,4.160597 9.933,4.160597 9.933,4.309901 10.117099,4.309901 10.117099,4.210852 10.175899,4.210852 10.175899,4.160597 10.259202,4.160597 10.259202,4.210852 10.327102,4.210852 10.327102,4.309901 10.502101,4.309901 10.502101,4.160597 10.585401,4.160597 10.585401,4.309901 10.773349,4.309901 10.773349,4.210852 10.8276,4.210852 10.8276,4.160597 10.910901,4.160597 10.910901,4.210852 10.983352,4.210852 10.983352,4.309901 11.153802,4.309901 11.153802,4.160597 11.237102,4.160597 11.237102,4.309901 11.429599,4.309901 11.429599,4.210852 11.4793,4.210852 11.4793,4.160597 11.5626,4.160597 11.5626,4.210852 11.639602,4.210852 11.639602,4.309901 11.805501,4.309901 11.805501,4.160597 11.888801,4.160597 11.888801,4.309901 12.085849,4.309901 12.085849,4.210852 12.131701,4.210852 12.131701,4.160597 12.214301,4.160597 12.214301,4.210852 12.295852,4.210852 12.295852,4.309901 12.4572,4.309901 12.4572,4.235871 12.457202,4.217381 12.4572,4.203657 12.4572,4.160597 12.5405,4.160597 12.5405,4.309901 12.742099,4.309901 12.742099,4.210852 12.783401,4.210852 12.783401,4.160597 12.8667,4.160597 12.8667,4.210852 12.952102,4.210852 12.952102,4.309901 13.108901,4.309901 13.108901,4.235871 13.108903,4.217381 13.108901,4.203656 13.108903,4.194367 13.108901,4.160597 13.1922,4.160597 13.192201,4.203657 13.192201,4.309901 13.398349,4.309901 13.398349,4.210852 13.435102,4.210852 13.4351,4.160597 13.518399,4.160597 13.518399,4.210852 13.608352,4.210852 13.608352,4.309901 13.7613,4.309901 13.7613,4.160597 13.8439,4.160597 13.8439,4.309901 14.054599,4.309901 14.054599,4.210852 14.086801,4.210852 14.0868,4.160597 14.1701,4.160597 14.1701,4.210852 14.264602,4.210852 14.264602,4.309901 14.412999,4.309901 14.412999,4.160597 14.496299,4.160597 14.496299,4.309901 14.710849,4.309901 14.710849,4.210852 14.7385,4.210852 14.7385,4.160597 14.821799,4.160597 14.821799,4.210852 14.920852,4.210852 14.920852,4.309901 14.971105,4.309901 14.971105,4.393202 14.920852,4.393202 14.920852,4.420852 14.821799,4.420852 14.821799,4.635401 14.971105,4.635401 14.971105,4.718703 14.821799,4.718703 14.821799,4.867102 14.920852,4.867102 14.920852,4.961601 14.971105,4.961601 14.971105,5.044902 14.920852,5.044902 14.920852,5.077102 14.821799,5.077102 14.821799,5.287802 14.971105,5.287802 14.971105,5.370402 14.821799,5.370402 14.821799,5.523352 14.920852,5.523352 14.920852,5.613302 14.971105,5.613302 14.971105,5.696602 14.920852,5.696602 14.920852,5.733353 14.821799,5.733353 14.821799,5.939502 14.971105,5.939502 14.971105,6.022802 14.821799,6.022802 14.821799,6.179601 14.920852,6.179601 14.920852,6.265002 14.971105,6.265002 14.971105,6.348302 14.920852,6.348302 14.920852,6.389603 14.821799,6.389603 14.821799,6.591202 14.928044,6.591202 14.937334,6.591201 14.971105,6.591202 14.971105,6.674501 14.821799,6.674501 14.821799,6.835851 14.920852,6.835851 14.920852,6.917402 14.971105,6.917402 14.971105,7.000002 14.920852,7.000002 14.920852,7.045853 14.821799,7.045853 14.821799,7.242902 14.971105,7.242902 14.971105,7.326201 14.821799,7.326201 14.821799,7.492101 14.920852,7.492101 14.920852,7.569101 14.971105,7.569101 14.971105,7.652401 14.920852,7.652401 14.920852,7.702103 14.821799,7.702103 14.821799,7.894602 14.971105,7.894602 14.971105,7.977901 14.821799,7.977901 14.821799,8.14835 14.920852,8.14835 14.920852,8.220801 14.971105,8.220801 14.971105,8.304101 14.920852,8.304101 14.920852,8.358353 14.821799,8.358353 14.821799,8.546302 14.971105,8.546302 14.971105,8.629601 14.821799,8.629601 14.821799,8.804601 14.920852,8.804601 14.920852,8.872501 14.971105,8.872501 14.971105,8.955801 14.920852,8.955801 14.920852,9.014604 14.821799,9.014604 14.821799,9.198701 14.971105,9.198701 14.971105,9.281301 14.821799,9.281301 14.821799,9.460851 14.920852,9.460851 14.920852,9.524201 14.971105,9.524201 14.970399,9.547786 14.969975,9.607501 14.920852,9.607501 14.920852,9.670854 14.821799,9.670854 14.821799,9.850401 14.971105,9.850401 14.971105,9.933001 14.821799,9.933001 14.821799,10.117101 14.920852,10.117101 14.920852,10.1759 14.971105,10.1759 14.971105,10.259203 14.920852,10.259203 14.920852,10.327104 14.821799,10.327104 14.821799,10.502103 14.971105,10.502103 14.971105,10.585402 14.821799,10.585402 14.821799,10.773351 14.920852,10.773351 14.920852,10.8276 14.971105,10.8276 14.971105,10.910903 14.920852,10.910903 14.920852,10.983354 14.821799,10.983354 14.821799,11.153803 14.971105,11.153803 14.971105,11.237103 14.821799,11.237103 14.821799,11.429601 14.920852,11.429601 14.920852,11.479303 14.971105,11.479303 14.971105,11.562603 14.920852,11.562603 14.920852,11.639603 14.821799,11.639603 14.821799,11.805503 14.971105,11.805503 14.971105,11.888803 14.821799,11.888803 14.821799,12.085851 14.920852,12.085851 14.920852,12.131702 14.971105,12.131702 14.971105,12.214302 14.920852,12.214302 14.920852,12.295853 14.821799,12.295853 14.821799,12.457203 14.971105,12.457203 14.971105,12.540503 14.821799,12.540503 14.821799,12.742101 14.920852,12.742101 14.920852,12.783402 14.971105,12.783402 14.971105,12.866702 14.920852,12.866702 14.920852,12.952103 14.821799,12.952103 14.821799,13.108902 14.971105,13.108902 14.971105,13.192202 14.821799,13.192202 14.821799,13.398351 14.920852,13.398351 14.920852,13.435102 14.971105,13.435102 14.971105,13.518402 14.920852,13.518402 14.920852,13.608353 14.821799,13.608353 14.821799,13.761302 14.971105,13.761302 14.971105,13.843903 14.821799,13.843903 14.821799,14.054602 14.920852,14.054602 14.920852,14.0868 14.971105,14.086801 14.971105,14.170101 14.920852,14.170101 14.920852,14.264603 14.821799,14.264603 14.821799,14.413002 14.971105,14.413002 14.971105,14.496302 14.821799,14.496302 14.821799,14.710852 14.920852,14.710852 14.920852,14.738503 14.971105,14.738503 14.971105,14.821802 14.920852,14.821802 14.920852,14.920853 14.821799,14.920853 14.821799,14.971106 14.7385,14.971106 14.7385,14.920853 14.710849,14.920853 14.710849,14.821802 14.496299,14.821802 14.496299,14.971106 14.412999,14.971106 14.412999,14.821802 14.264602,14.821802 14.264602,14.920853 14.1701,14.920853 14.1701,14.971106 14.086801,14.971106 14.086801,14.920853 14.054599,14.920853 14.054599,14.821802 13.8439,14.821802 13.8439,14.971106 13.7613,14.971106 13.7613,14.821802 13.608352,14.821802 13.608352,14.920853 13.518399,14.920853 13.518399,14.971106 13.4351,14.971106 13.4351,14.920853 13.398349,14.920853 13.398349,14.821802 13.192201,14.821802 13.192201,14.971106 13.108901,14.971106 13.108901,14.821802 12.952102,14.821802 12.952102,14.920853 12.8667,14.920853 12.8667,14.971106 12.783401,14.971106 12.783401,14.920853 12.742099,14.920853 12.742099,14.821802 12.5405,14.821802 12.5405,14.971106 12.4572,14.971106 12.4572,14.821802 12.295852,14.821802 12.295852,14.920853 12.214301,14.920853 12.214301,14.971106 12.131701,14.971106 12.131701,14.920853 12.085849,14.920853 12.085849,14.821802 11.888801,14.821802 11.888801,14.971106 11.805501,14.971106 11.805501,14.821802 11.639602,14.821802 11.639602,14.920853 11.5626,14.920853 11.5626,14.971106 11.4793,14.971106 11.4793,14.920853 11.429599,14.920853 11.429599,14.821802 11.237102,14.821802 11.237102,14.971106 11.153802,14.971106 11.153802,14.821802 10.983352,14.821802 10.983352,14.920853 10.910901,14.920853 10.910901,14.971106 10.8276,14.971106 10.8276,14.920853 10.773349,14.920853 10.773349,14.821802 10.585401,14.821802 10.585401,14.971106 10.502101,14.971106 10.502101,14.821802 10.327102,14.821802 10.327102,14.920853 10.259202,14.920853 10.259202,14.971106 10.175899,14.971106 10.175899,14.920853 10.117099,14.920853 10.117099,14.821802 9.933,14.821802 9.933,14.971106 9.850398,14.971106 9.850398,14.821802 9.670852,14.821802 9.670852,14.920853 9.607499,14.920853 9.607499,14.971106 9.583913,14.970401 9.524199,14.9704 9.524199,14.920853 9.460849,14.920853 9.460849,14.821802 9.281299,14.821802 9.281299,14.971106 9.198699,14.971106 9.198699,14.821802 9.014602,14.821802 9.014602,14.920853 8.955798,14.920853 8.955798,14.971106 8.872499,14.971106 8.872499,14.920853 8.804599,14.920853 8.804599,14.821802 8.6296,14.821802 8.6296,14.971106 8.5463,14.971106 8.5463,14.821802 8.358351,14.821802 8.358351,14.920853 8.304099,14.920853 8.304099,14.971106 8.242433,14.971107 8.220799,14.971107 8.220799,14.920853 8.148349,14.920853 8.148349,14.821802 7.977898,14.821802 7.977898,14.971106 7.894599,14.971106 7.894599,14.821802 7.702101,14.821802 7.702101,14.920853 7.6524,14.920853 7.6524,14.971106 7.5691,14.971106 7.5691,14.920853 7.492099,14.920853 7.492099,14.821802 7.326199,14.821802 7.326199,14.971106 7.2429,14.971106 7.2429,14.821802 7.045851,14.821802 7.045851,14.920853 6.999999,14.920853 6.999999,14.971107 6.938851,14.971107 6.917399,14.971106 6.917399,14.920853 6.835849,14.920853 6.835849,14.821802 6.6745,14.821802 6.6745,14.971106 6.591201,14.971106 6.591201,14.8218 6.389601,14.821801 6.389601,14.920853 6.3483,14.920853 6.3483,14.971106 6.265,14.971106 6.265,14.920853 6.179599,14.920853 6.179599,14.821802 6.022799,14.821802 6.022799,14.971106 5.9395,14.971106 5.9395,14.821802 5.733351,14.821802 5.733351,14.920853 5.696601,14.920853 5.696601,14.971106 5.613301,14.971106 5.613301,14.920853 5.52335,14.920853 5.52335,14.821802 5.3704,14.821802 5.3704,14.971106 5.287801,14.971106 5.287801,14.821802 5.0771,14.821802 5.0771,14.920853 5.0449,14.920853 5.0449,14.971106 4.961599,14.971106 4.961599,14.920853 4.8671,14.920853 4.8671,14.821802 4.718701,14.821802 4.718701,14.971106 4.6354,14.971106 4.6354,14.821802 4.42085,14.821802 4.42085,14.920853 4.393201,14.920853 4.393201,14.971106 4.309899,14.971106 4.309899,14.920853 4.21085,14.920853 4.21085,14.821802 4.160595,14.821802 4.160595,14.738503 4.21085,14.738503 4.21085,14.710852 4.309899,14.710852 4.309899,14.496302 4.160595,14.496302 4.160595,14.413002 4.309899,14.413002 4.309899,14.264603 4.21085,14.264603 4.21085,14.170101 4.160595,14.170101 4.160595,14.086802 4.21085,14.086802 4.21085,14.054602 4.309899,14.054602 4.309899,13.843903 4.160595,13.843903 4.160595,13.761302 4.309899,13.761302 4.309899,13.608353 4.21085,13.608353 4.21085,13.518402 4.160595,13.518402 4.160595,13.435102 4.21085,13.435102 4.21085,13.398351 4.309899,13.398351 4.309899,13.192202 4.160595,13.192202 4.160595,13.108902 4.309899,13.108902 4.309899,12.952103 4.21085,12.952103 4.21085,12.866702 4.160595,12.866702 4.160595,12.783402 4.21085,12.783402 4.21085,12.742101 4.309899,12.742101 4.309899,12.540503 4.160595,12.540503 4.160595,12.457203 4.309899,12.457203 4.309899,12.295853 4.21085,12.295853 4.21085,12.214302 4.160595,12.214302 4.160595,12.131702 4.21085,12.131702 4.21085,12.085851 4.309899,12.085851 4.309899,11.888803 4.160595,11.888803 4.160595,11.805503 4.309899,11.805503 4.309899,11.639603 4.21085,11.639603 4.21085,11.562603 4.160595,11.562603 4.160595,11.479303 4.21085,11.479303 4.21085,11.429601 4.309899,11.429601 4.309899,11.237103 4.160595,11.237103 4.160595,11.153803 4.309899,11.153803 4.309899,10.983354 4.21085,10.983354 4.21085,10.910903 4.160595,10.910903 4.160595,10.8276 4.21085,10.8276 4.210851,10.773351 4.309899,10.773351 4.309899,10.585402 4.160595,10.585402 4.160595,10.502103 4.309899,10.502103 4.309899,10.327104 4.21085,10.327104 4.21085,10.259203 4.160595,10.259203 4.160595,10.1759 4.21085,10.1759 4.21085,10.117101 4.309898,10.117101 4.309897,9.933001 4.160595,9.933001 4.160595,9.850401 4.309899,9.850401 4.309899,9.670854 4.21085,9.670854 4.21085,9.607501 4.160595,9.607501 4.161217,9.583975 4.161641,9.524201 4.21085,9.524201 4.21085,9.460851 4.309898,9.460851 4.309897,9.281301 4.160595,9.281301 4.160595,9.198701 4.309899,9.198701 4.309899,9.014604 4.21085,9.014604 4.21085,8.955801 4.160595,8.955801 4.160595,8.872501 4.21085,8.872501 4.21085,8.804601 4.309899,8.804601 4.309899,8.629601 4.160595,8.629601 4.160595,8.546302 4.309899,8.546302 4.309899,8.358353 4.21085,8.358353 4.21085,8.304101 4.160595,8.304101 4.160595,8.220801 4.21085,8.220801 4.21085,8.14835 4.309899,8.14835 4.309899,7.977901 4.160595,7.977901 4.160595,7.894602 4.309899,7.894602 4.309899,7.702103 4.21085,7.702103 4.21085,7.652401 4.160595,7.652401 4.160595,7.569101 4.21085,7.569101 4.21085,7.492101 4.309899,7.492101 4.309899,7.326201 4.160595,7.326201 4.160595,7.242902 4.309899,7.242902 4.309899,7.045853 4.21085,7.045853 4.21085,7.000002 4.160595,7.000002 4.160595,6.917402 4.21085,6.917402 4.21085,6.835851 4.309899,6.835851 4.309899,6.674501 4.160595,6.674501 4.160595,6.591202 4.309899,6.591202 4.309899,6.389603 4.21085,6.389603 4.21085,6.348302 4.160595,6.348302 4.160595,6.265002 4.21085,6.265002 4.21085,6.179601 4.309899,6.179601 4.309899,6.022802 4.160595,6.022802 4.160595,5.939502 4.309899,5.939502 4.309899,5.733353 4.21085,5.733353 4.21085,5.696602 4.160595,5.696602 4.160595,5.613302 4.21085,5.613302 4.21085,5.523352 4.309899,5.523352 4.309899,5.370402 4.160595,5.370402 4.160595,5.287802 4.309899,5.287802 4.309899,5.077102 4.21085,5.077102 4.21085,5.044902 4.160595,5.044902 4.160595,4.961601 4.21085,4.961601 4.21085,4.867102 4.309899,4.867102 4.309899,4.718703 4.160595,4.718703 4.160595,4.635401 4.309899,4.635401 4.309899,4.420852 4.21085,4.420852 4.21085,4.393202 4.160595,4.393202 4.160595,4.309901 4.21085,4.309901 4.21085,4.210852 4.309899,4.210852 4.309899,4.160597 4.393201,4.160597" style="fill: white" /><polygon type="hole" points="7.017226,6.917272 6.998866,6.917272 6.918533,6.918617 6.91727,6.986968 6.91727,6.994449 6.917276,7.002366 6.917417,7.017349 6.917168,7.026552 6.91727,7.029807 6.91727,7.700519 6.91761,7.740978 6.91761,7.920151 6.917907,7.948765 6.917949,7.97897 6.917949,8.157123 6.918289,8.197582 6.918289,8.760588 6.918535,8.782409 6.918629,8.817706 6.918629,9.318009 6.91897,9.358469 6.91897,9.537303 6.919163,9.547375 6.919322,9.566201 6.919431,9.581468 6.919163,9.584714 6.91897,9.594761 6.91897,9.773594 6.918629,9.814054 6.918629,10.313997 6.918535,10.349293 6.918289,10.371115 6.918289,10.549269 6.917949,10.589728 6.917949,11.152733 6.917907,11.182938 6.91761,11.211552 6.91761,11.390725 6.91727,11.431184 6.91727,12.101895 6.917168,12.105152 6.917417,12.114354 6.917276,12.129055 6.918639,12.213297 6.993016,12.214254 7.002364,12.214426 7.017347,12.214284 7.02655,12.214533 7.029804,12.214432 7.700517,12.214432 7.740975,12.214092 7.920149,12.214092 7.948764,12.213794 7.978969,12.213752 8.541975,12.213752 8.582433,12.213413 8.760586,12.213413 8.782407,12.213167 8.817705,12.213072 8.907121,12.213072 9.20665,12.213071 9.318007,12.213071 9.358466,12.212731 9.537301,12.212731 9.547373,12.212539 9.566198,12.212379 9.581464,12.21227 9.58471,12.212539 9.594758,12.212731 9.773593,12.212731 9.814051,12.213071 10.313994,12.213071 10.349291,12.213166 10.371113,12.213412 10.549267,12.213412 10.589725,12.213752 11.152731,12.213752 11.182936,12.213794 11.21155,12.214092 11.390724,12.214092 11.431183,12.214432 12.101893,12.214432 12.10515,12.214533 12.114353,12.214284 12.129053,12.214426 12.159691,12.213752 12.212855,12.213073 12.214251,12.138683 12.214423,12.129055 12.214283,12.114354 12.214531,12.105151 12.21443,12.101895 12.21443,11.388343 12.21409,11.347884 12.21409,11.16871 12.213751,11.109893 12.213751,10.290198 12.213411,10.24974 12.213411,10.071585 12.21307,10.014468 12.21307,9.835293 12.21273,9.794835 12.21273,9.594761 12.212536,9.584713 12.212377,9.566202 12.212268,9.550677 12.212537,9.547375 12.21273,9.537303 12.21273,9.358468 12.21307,9.31801 12.21307,9.138836 12.213411,9.081719 12.213411,8.903564 12.213751,8.863105 12.213751,8.684951 12.21409,8.626134 12.21409,7.783819 12.21443,7.74336 12.21443,7.029807 12.214532,7.026552 12.214283,7.017349 12.214424,7.002366 12.213222,6.91848 12.138682,6.91745 12.129053,6.917277 12.114353,6.91742 12.105149,6.91717 12.101894,6.917272 11.388341,6.917272 11.347882,6.917611 11.168708,6.917611 11.10989,6.917951 10.290196,6.917951 10.249738,6.918291 10.071583,6.918291 10.014466,6.918631 9.835292,6.918631 9.794833,6.918972 9.594758,6.918972 9.58471,6.919165 9.566199,6.919325 9.550674,6.919433 9.547372,6.919165 9.537301,6.918972 9.358466,6.918972 9.318007,6.918631 9.117232,6.918631 9.060115,6.918291 8.881961,6.918291 8.841502,6.917951 8.021809,6.917951 7.962991,6.917611 7.783816,6.917611 7.743358,6.917272 7.029804,6.917272 7.022873,6.917054" style="fill: black" />
</svg>
