<svg width="19.131698" height="19.131699">
<polygon type="contour" points="8.281247,10.681506 8.450196,10.681506 8.450334,10.878937 8.450435,10.932282 8.450406,10.933118 8.450406,10.943272 8.45001,10.953991 8.434061,10.954169 8.172828,10.958873 8.176473,10.834027 8.178138,10.681397 8.20993,10.681397" style="fill: white" /><polygon type="contour" points="8.45084,10.45841 8.450728,10.495006 8.450728,10.554508 8.385145,10.554508 8.34536,10.554442 8.345449,10.512022 8.345577,10.45838 8.395728,10.45838" style="fill: white" /><polygon type="contour" points="8.673323,10.504519 8.673294,10.554618 8.636916,10.554442 8.57726,10.554442 8.577084,10.512023 8.577084,10.45841 8.619679,10.45841 8.673323,10.45838" style="fill: white" /><polygon type="contour" points="8.673294,10.727161 8.673323,10.786126 8.61968,10.786253 8.57726,10.786342 8.577194,10.746556 8.577194,10.680973 8.619679,10.680862 8.673294,10.680862" style="fill: white" /><polygon type="contour" points="9.101354,10.786098 9.056067,10.785984 8.996921,10.786126 8.996921,10.735972 8.996928,10.680862 9.035922,10.680961 9.101354,10.678878" style="fill: white" /><polygon type="contour" points="9.101588,10.512996 9.101378,10.554732 9.056067,10.554877 8.996929,10.554618 8.996929,10.512023 8.996921,10.45838 9.047073,10.45838 9.101588,10.458277" style="fill: white" /><polygon type="contour" points="9.101354,9.90678 9.056067,9.906598 8.996986,9.906598 8.996986,9.225106 9.035253,9.224925 9.101354,9.224925" style="fill: white" /><polygon type="contour" points="9.062692,10.030325 9.101354,10.030349 9.101588,10.075636 9.101588,10.134717 9.056067,10.134717 8.996921,10.134781 8.996921,10.084627 8.996986,10.030114 9.056067,10.030114" style="fill: white" /><polygon type="contour" points="8.673425,10.075636 8.673323,10.134781 8.627181,10.134781 8.577084,10.134774 8.576823,10.075637 8.576968,10.030325 8.618705,10.030114 8.673425,10.030114" style="fill: white" /><polygon type="contour" points="8.4527,10.075636 8.45084,10.134774 8.404542,10.134774 8.345577,10.134781 8.345719,10.075636 8.345604,10.030349 8.452822,10.030349" style="fill: white" /><polygon type="contour" points="8.452353,9.906985 8.178135,9.906985 8.177805,9.812183 8.178096,9.516967 8.178,9.516967 8.17835,9.39484 8.178135,9.22472 8.452353,9.22472" style="fill: white" /><polygon type="contour" points="8.434061,8.177535 8.45001,8.177713 8.450382,8.187504 8.450406,8.188432 8.450435,8.199422 8.450435,8.212637 8.450334,8.252765 8.450196,8.384616 8.450196,8.450198 8.281247,8.450198 8.20993,8.450307 8.178138,8.450307 8.176473,8.297676 8.172828,8.17283" style="fill: white" /><polygon type="contour" points="8.619679,8.345451 8.673323,8.345579 8.673323,8.395731 8.673294,8.450842 8.636695,8.45073 8.577194,8.45073 8.577194,8.385147 8.57726,8.345362" style="fill: white" /><polygon type="contour" points="8.673294,8.619681 8.673323,8.673325 8.627181,8.673325 8.577084,8.673295 8.57726,8.636917 8.57726,8.577262 8.619679,8.577086 8.673294,8.577086" style="fill: white" /><polygon type="contour" points="8.45084,8.619681 8.45084,8.673295 8.404541,8.673295 8.345577,8.673325 8.345448,8.619681 8.34536,8.577262 8.385145,8.577196 8.450728,8.577196" style="fill: white" /><polygon type="contour" points="8.45084,8.99693 8.45074,9.035924 8.452822,9.101356 8.345604,9.101356 8.345719,9.056068 8.345577,8.996922 8.395729,8.996922" style="fill: white" /><polygon type="contour" points="8.618705,9.225106 8.673425,9.225106 8.673425,9.906598 8.637739,9.906739 8.576968,9.906739 8.576968,9.224966" style="fill: white" /><polygon type="contour" points="8.673323,9.047074 8.673425,9.101591 8.637739,9.10138 8.576968,9.10138 8.576823,9.056067 8.577084,8.996931 8.619679,8.996931 8.673323,8.996922" style="fill: white" /><polygon type="contour" points="9.101588,8.996987 9.101354,9.035255 9.101354,9.101356 9.056067,9.101591 8.996986,9.101591 8.996986,9.056068 8.996921,8.996922 9.047072,8.996922" style="fill: white" /><polygon type="contour" points="9.101378,8.57697 9.101588,8.618706 9.101588,8.673426 9.056067,8.673426 8.996921,8.673324 8.996921,8.627183 8.996929,8.577086 9.056066,8.576825" style="fill: white" /><polygon type="contour" points="9.056067,8.345721 9.101354,8.345606 9.101354,8.452824 9.056067,8.452702 8.996929,8.450842 8.996929,8.404543 8.996921,8.345579" style="fill: white" /><polygon type="contour" points="9.516426,8.177432 9.517226,8.208858 9.614383,8.208992 9.615274,8.177432 9.658965,8.177946 9.90712,8.177972 9.90712,8.314484 9.907071,8.384186 9.907071,8.450075 9.630945,8.450075 9.22463,8.45227 9.224581,8.403018 9.224581,8.177972 9.256346,8.177335" style="fill: white" /><polygon type="contour" points="10.955227,8.297676 10.953562,8.450307 10.921769,8.450307 10.850452,8.450198 10.681504,8.450198 10.681366,8.252765 10.681265,8.199423 10.681294,8.198585 10.681294,8.188431 10.68169,8.177713 10.697639,8.177535 10.958873,8.17283" style="fill: white" /><polygon type="contour" points="10.786252,8.619681 10.786124,8.673325 10.735972,8.673325 10.68086,8.673295 10.680903,8.636916 10.680903,8.577262 10.78634,8.577262" style="fill: white" /><polygon type="contour" points="10.55444,8.450799 10.51202,8.450842 10.458407,8.450842 10.458407,8.404543 10.458378,8.345579 10.51202,8.34545 10.55444,8.345362" style="fill: white" /><polygon type="contour" points="10.494784,8.577262 10.55444,8.577262 10.554616,8.619681 10.554616,8.673295 10.51202,8.673295 10.458378,8.673325 10.458378,8.627184 10.458407,8.577086" style="fill: white" /><polygon type="contour" points="10.134779,8.395731 10.134771,8.450842 10.095777,8.450741 10.030347,8.450607 10.030347,8.345606 10.075633,8.345721 10.134779,8.345579" style="fill: white" /><polygon type="contour" points="10.075633,8.574844 10.134771,8.577086 10.134771,8.619681 10.134779,8.673325 10.084626,8.673325 10.030112,8.673426 10.030112,8.616725 10.030323,8.57477" style="fill: white" /><polygon type="contour" points="9.906597,8.616725 9.906597,8.673426 9.225104,8.673426 9.224964,8.637741 9.224964,8.57697 9.499395,8.57697 9.906737,8.57477" style="fill: white" /><polygon type="contour" points="9.906778,9.035254 9.906778,9.101356 9.224923,9.101356 9.225104,9.056068 9.225104,8.996987 9.906597,8.996987" style="fill: white" /><polygon type="contour" points="10.075634,9.225106 10.134714,9.225106 10.134714,9.906598 10.096446,9.90678 10.030347,9.90678 10.030347,9.224925" style="fill: white" /><polygon type="contour" points="10.134779,9.047074 10.134714,9.101591 10.075634,9.101591 10.069008,9.10138 10.030347,9.101356 10.030112,9.056067 10.030112,8.996987 10.075633,8.996987 10.134779,8.996922" style="fill: white" /><polygon type="contour" points="10.554616,8.996931 10.556858,9.056067 10.556933,9.10138 10.514976,9.101591 10.458274,9.101591 10.458274,9.056067 10.458378,8.996922 10.504519,8.996922" style="fill: white" /><polygon type="contour" points="10.785982,9.056067 10.786096,9.101356 10.681095,9.101356 10.680981,9.056067 10.68086,8.996931 10.727158,8.996931 10.786124,8.996922" style="fill: white" /><polygon type="contour" points="10.953894,9.319521 10.953602,9.614737 10.953699,9.614738 10.953349,9.736863 10.953565,9.906985 10.681529,9.906985 10.681529,9.22472 10.953565,9.22472" style="fill: white" /><polygon type="contour" points="10.785982,10.075637 10.786124,10.134781 10.735972,10.134781 10.68086,10.134774 10.680959,10.09578 10.681095,10.030349 10.786096,10.030349" style="fill: white" /><polygon type="contour" points="10.556933,9.906739 10.514976,9.906598 10.458274,9.906598 10.458274,9.225106 10.493959,9.224966 10.556933,9.224966" style="fill: white" /><polygon type="contour" points="10.49396,10.030325 10.556933,10.030325 10.556858,10.075637 10.554616,10.134774 10.51202,10.134774 10.458378,10.134781 10.458378,10.084627 10.458274,10.030114" style="fill: white" /><polygon type="contour" points="9.906983,9.906985 9.224718,9.906985 9.224718,9.22472 9.906983,9.22472" style="fill: white" /><polygon type="contour" points="9.906597,10.075636 9.906597,10.134717 9.225104,10.134717 9.224923,10.096449 9.224923,10.030349 9.906778,10.030349" style="fill: white" /><polygon type="contour" points="10.134714,10.075637 10.134779,10.134781 10.084625,10.134781 10.030112,10.134717 10.030347,10.096448 10.030347,10.030349 10.075633,10.030114 10.134714,10.030114" style="fill: white" /><polygon type="contour" points="10.134779,10.458379 10.134779,10.50452 10.134771,10.554618 10.075634,10.554877 10.030323,10.554731 10.030112,10.512996 10.030112,10.458277 10.075634,10.458277" style="fill: white" /><polygon type="contour" points="9.906737,10.493961 9.906737,10.554732 9.224964,10.554732 9.225104,10.512996 9.225104,10.458277 9.906597,10.458277" style="fill: white" /><polygon type="contour" points="9.90712,10.728683 9.90712,10.953732 9.875354,10.954369 9.615274,10.954272 9.614473,10.922821 9.517319,10.922683 9.516426,10.954271 9.472734,10.953757 9.224581,10.953732 9.224581,10.81722 9.22463,10.747517 9.22463,10.679432 9.907071,10.679432" style="fill: white" /><polygon type="contour" points="10.075633,10.679 10.134771,10.680862 10.134771,10.727161 10.134779,10.786126 10.075634,10.785984 10.030347,10.786098 10.030347,10.678878" style="fill: white" /><polygon type="contour" points="10.495005,10.680974 10.554507,10.680974 10.554507,10.746557 10.55444,10.786342 10.51202,10.786253 10.458378,10.786126 10.458378,10.735972 10.458407,10.680862" style="fill: white" /><polygon type="contour" points="10.554616,10.45841 10.55444,10.494787 10.55444,10.554442 10.51202,10.554618 10.458407,10.554618 10.458407,10.512023 10.458378,10.45838 10.504519,10.45838" style="fill: white" /><polygon type="contour" points="10.786251,10.512022 10.78634,10.554442 10.746554,10.554508 10.680972,10.554508 10.68086,10.512022 10.68086,10.45841 10.727159,10.45841 10.786124,10.45838" style="fill: white" /><polygon type="contour" points="10.955227,10.834027 10.958873,10.958874 10.697639,10.954169 10.68169,10.953991 10.681318,10.944199 10.681293,10.943271 10.681265,10.932282 10.681265,10.919067 10.681365,10.878938 10.681504,10.747087 10.681504,10.681506 10.850452,10.681506 10.921769,10.681397 10.953562,10.681397" style="fill: white" />
</svg>
