<svg width="19.131698" height="19.131699">
<polygon type="contour" points="10.646997,8.382714 10.661378,8.384374 10.670716,8.38593 10.681278,8.392459 10.709822,8.410741 10.740602,8.446014 10.741872,8.447558 10.742642,8.44902 10.749219,8.483219 10.749403,8.484699 10.749484,8.663537 10.748987,10.647 10.747797,10.658793 10.745919,10.668007 10.734977,10.688631 10.724507,10.704052 10.699475,10.724731 10.68799,10.734854 10.671076,10.744589 10.662922,10.747555 10.658098,10.748216 10.646997,10.749406 10.525644,10.749406 10.46816,10.749486 9.797523,10.749053 8.713014,10.74813 8.484697,10.748416 8.482269,10.748203 8.476285,10.748202 8.46436,10.746793 8.443491,10.735663 8.425459,10.723446 8.391008,10.686229 8.389777,10.684746 8.389131,10.683566 8.382427,10.648041 8.382297,10.647 8.382649,9.797525 8.383572,8.713017 8.383286,8.4847 8.38376,8.480516 8.384371,8.470757 8.386003,8.461987 8.389498,8.455798 8.405541,8.431923 8.419167,8.413483 8.423414,8.41018 8.466945,8.383821 8.467978,8.383558 8.468332,8.383541 8.475515,8.382833 8.484697,8.382299 8.606051,8.382299 8.663535,8.382218" style="fill: white" />
</svg>
