<svg width="19.131698" height="19.131699">
<polygon type="contour" points="10.3558,9.821806 10.3558,9.888202 10.397799,9.888202 10.397799,10.012802 10.3558,10.012802 10.3558,10.079198 10.320556,10.079198 10.247692,10.079226 10.206804,10.079198 10.206804,10.062612 10.206295,10.040017 10.206295,9.849262 10.206804,9.821806 10.2725,9.821806 10.2725,9.821786 10.297412,9.821786" style="fill: white" /><polygon type="contour" points="10.3558,9.437103 10.3558,9.503201 10.397799,9.503201 10.397799,9.628503 10.3558,9.628503 10.3558,9.694601 10.320556,9.694601 10.247692,9.694763 10.206804,9.694601 10.206804,9.678015 10.206295,9.655507 10.206295,9.464472 10.206804,9.437103 10.2725,9.437103 10.2725,9.436996 10.297412,9.436996" style="fill: white" /><polygon type="contour" points="10.3558,9.052507 10.3558,9.118902 10.397799,9.118902 10.397799,9.243503 10.3558,9.243503 10.3558,9.309897 10.320556,9.309897 10.247692,9.309927 10.206804,9.309897 10.206804,9.293312 10.206295,9.270716 10.206295,9.079963 10.206804,9.052507 10.2725,9.052507 10.2725,9.052487 10.297412,9.052487" style="fill: white" /><polygon type="contour" points="10.397799,8.733903 10.550338,8.733903 10.550338,8.817203 10.397799,8.817203 10.397799,8.8585 10.3558,8.8585 10.3558,8.924896 10.320556,8.924896 10.253598,8.925609 10.247692,8.925672 10.206804,8.924896 10.206804,8.90831 10.206295,8.885715 10.206295,8.833797 10.206804,8.775901 10.2725,8.775901 10.2725,8.733903 10.3145,8.733903 10.3145,8.581362 10.397799,8.581362" style="fill: white" /><polygon type="contour" points="10.012801,8.775901 10.079196,8.775901 10.079196,8.810849 10.079226,8.883204 10.079196,8.924896 10.06261,8.924896 10.040016,8.925408 9.849261,8.925408 9.821804,8.924896 9.821804,8.8585 9.821784,8.8585 9.821784,8.833796 9.821804,8.775901 9.8882,8.775901 9.8882,8.733903 10.012801,8.733903" style="fill: white" /><polygon type="contour" points="9.628501,8.775901 9.694599,8.775901 9.694599,8.810848 9.694706,8.858499 9.694761,8.883204 9.694599,8.924896 9.678012,8.924896 9.655506,8.925408 9.464469,8.925408 9.4371,8.924896 9.4371,8.90831 9.436994,8.885715 9.436994,8.833797 9.4371,8.775901 9.5032,8.775901 9.5032,8.733903 9.628501,8.733903" style="fill: white" /><polygon type="contour" points="9.309895,9.052507 9.309895,9.118902 9.309915,9.118902 9.309915,9.128352 9.436994,9.128352 9.436994,9.079963 9.4371,9.052507 9.5032,9.052507 9.5032,9.052487 9.667229,9.052487 9.694599,9.052507 9.694599,9.069091 9.694706,9.091687 9.694706,9.128352 9.821784,9.128352 9.821784,9.079963 9.821804,9.052507 9.8882,9.052507 9.8882,9.052487 10.051739,9.052487 10.079196,9.052507 10.079196,9.118902 10.079216,9.118902 10.079216,9.282441 10.079196,9.309897 10.012801,9.309897 10.012801,9.309917 10.00335,9.309917 10.00335,9.436996 10.051738,9.436996 10.079196,9.437103 10.079196,9.503201 10.079216,9.503201 10.079216,9.667231 10.079196,9.694601 10.062611,9.694601 10.040015,9.694708 10.00335,9.694708 10.00335,9.821786 10.051739,9.821786 10.079196,9.821806 10.079196,9.888202 10.079216,9.888202 10.079216,10.051741 10.079196,10.079198 10.012801,10.079198 10.012801,10.079217 9.849261,10.079217 9.821804,10.079198 9.821804,10.012802 9.821784,10.012802 9.821784,10.003352 9.694706,10.003352 9.694706,10.05174 9.694599,10.079198 9.628501,10.079198 9.628501,10.079217 9.46447,10.079217 9.4371,10.079198 9.4371,10.062611 9.436994,10.040017 9.436994,10.003352 9.309915,10.003352 9.309915,10.051741 9.309895,10.079198 9.243501,10.079198 9.243501,10.079217 9.07996,10.079217 9.052504,10.079198 9.052504,10.012802 9.052485,10.012802 9.052485,9.849263 9.052504,9.821806 9.118899,9.821806 9.118899,9.821786 9.12835,9.821786 9.12835,9.694708 9.079961,9.694708 9.052504,9.694601 9.052504,9.628503 9.052485,9.628503 9.052485,9.464471 9.052504,9.437103 9.06909,9.437103 9.091683,9.436996 9.12835,9.436996 9.12835,9.309917 9.07996,9.309917 9.052504,9.309897 9.052504,9.243503 9.052485,9.243503 9.052485,9.079963 9.052504,9.052507 9.118899,9.052507 9.118899,9.052487 9.282438,9.052487" style="fill: white" /><polygon type="contour" points="9.243501,8.775901 9.309895,8.775901 9.309895,8.810849 9.309925,8.883204 9.309895,8.924896 9.293309,8.924896 9.270714,8.925408 9.07996,8.925408 9.052504,8.924896 9.052504,8.8585 9.052485,8.8585 9.052485,8.833796 9.052504,8.775901 9.118899,8.775901 9.118899,8.733903 9.243501,8.733903" style="fill: white" /><polygon type="contour" points="8.817201,8.733903 8.858499,8.733903 8.858499,8.775901 8.924894,8.775901 8.924894,8.810848 8.925406,8.858499 8.925671,8.883204 8.924894,8.924896 8.908308,8.924896 8.885713,8.925408 8.833796,8.925408 8.775899,8.924896 8.775899,8.8585 8.733901,8.8585 8.733901,8.817203 8.581359,8.817203 8.581359,8.733903 8.733901,8.733903 8.733901,8.581362 8.817201,8.581362" style="fill: white" /><polygon type="contour" points="8.924894,9.052507 8.924894,9.069092 8.925406,9.091686 8.925406,9.282441 8.924894,9.309897 8.858499,9.309897 8.858499,9.309917 8.833795,9.309917 8.775899,9.309897 8.775899,9.243503 8.733901,9.243503 8.733901,9.118902 8.775899,9.118902 8.775899,9.052507 8.810847,9.052507 8.883203,9.052476" style="fill: white" /><polygon type="contour" points="8.924894,9.437103 8.924894,9.453687 8.925406,9.476195 8.925406,9.66723 8.924894,9.694601 8.908307,9.694601 8.885714,9.694708 8.833795,9.694708 8.775899,9.694601 8.775899,9.628503 8.733901,9.628503 8.733901,9.503201 8.775899,9.503201 8.775899,9.437103 8.810847,9.437103 8.883203,9.43694" style="fill: white" /><polygon type="contour" points="8.924894,9.821806 8.924894,9.838392 8.925406,9.860987 8.925406,10.05174 8.924894,10.079198 8.858499,10.079198 8.858499,10.079217 8.833795,10.079217 8.775899,10.079198 8.775899,10.012802 8.733901,10.012802 8.733901,9.888202 8.775899,9.888202 8.775899,9.821806 8.810847,9.821806 8.883203,9.821775" style="fill: white" /><polygon type="contour" points="8.924894,10.206807 8.924894,10.272501 8.925406,10.272501 8.925406,10.297413 8.924894,10.355801 8.858499,10.355801 8.858499,10.397801 8.817201,10.397801 8.817201,10.55034 8.733901,10.55034 8.733901,10.397801 8.581359,10.397801 8.581359,10.314502 8.733901,10.314502 8.733901,10.272501 8.775899,10.272501 8.775899,10.206807 8.810846,10.206807 8.858498,10.206296 8.858499,10.206296 8.883203,10.206031" style="fill: white" /><polygon type="contour" points="9.309895,10.206807 9.309895,10.272501 9.309915,10.272501 9.309915,10.297413 9.309895,10.355801 9.243501,10.355801 9.243501,10.397801 9.118899,10.397801 9.118899,10.355801 9.052504,10.355801 9.052504,10.320557 9.052475,10.247693 9.052504,10.206807 9.069089,10.206807 9.091684,10.206296 9.282437,10.206296" style="fill: white" /><polygon type="contour" points="9.694599,10.206807 9.694599,10.272501 9.694706,10.272501 9.694706,10.297413 9.694599,10.355801 9.628501,10.355801 9.628501,10.397801 9.5032,10.397801 9.5032,10.355801 9.4371,10.355801 9.4371,10.320557 9.436939,10.247693 9.4371,10.206807 9.453686,10.206807 9.476193,10.206296 9.667228,10.206296" style="fill: white" /><polygon type="contour" points="10.079196,10.206807 10.079196,10.272501 10.079216,10.272501 10.079216,10.297413 10.079196,10.355801 10.012801,10.355801 10.012801,10.397801 9.8882,10.397801 9.8882,10.355801 9.821804,10.355801 9.821804,10.320557 9.821784,10.272501 9.821773,10.247693 9.821804,10.206807 9.83839,10.206807 9.860985,10.206296 10.051738,10.206296" style="fill: white" /><polygon type="contour" points="10.3558,10.206807 10.3558,10.272501 10.397799,10.272501 10.397799,10.314502 10.550338,10.314502 10.550338,10.397801 10.397799,10.397801 10.397799,10.55034 10.3145,10.55034 10.3145,10.397801 10.2725,10.397801 10.2725,10.355801 10.206804,10.355801 10.206804,10.320556 10.206032,10.247693 10.206804,10.206807 10.2725,10.206807 10.2725,10.206296 10.297412,10.206296" style="fill: white" />
</svg>
