<svg width="19.131698" height="19.131699">
<polygon type="contour" points="11.002892,10.778948 11.009628,11.00963 10.824019,11.006287 10.732971,11.005271 10.730849,10.949375 10.73071,10.944077 10.730544,10.881333 10.730544,10.805894 10.730732,10.730734 10.781421,10.730734 10.878001,10.730587 11.002365,10.730587" style="fill: white" /><polygon type="contour" points="9.959633,10.730734 9.959615,10.780657 9.959615,10.860722 9.959683,10.929668 9.959683,11.002432 9.8326,11.004979 9.668997,11.004918 9.667563,10.948728 9.667258,10.943468 9.667258,10.835322 9.586275,10.834168 9.544837,10.834168 9.464442,10.835322 9.464442,10.943468 9.462703,11.004917 9.25225,11.00244 9.172017,11.002432 9.172017,10.958293 9.172086,10.860722 9.169686,10.730734 9.340125,10.730734 9.552578,10.729845 9.640519,10.729845" style="fill: white" /><polygon type="contour" points="10.234204,10.767038 10.234204,10.83462 10.180655,10.834738 10.1381,10.834647 10.135623,10.784877 10.135623,10.729978 10.184054,10.729978 10.234373,10.729821" style="fill: white" /><polygon type="contour" points="10.558747,10.730015 10.557197,10.784116 10.557197,10.834578 10.493154,10.83455 10.452481,10.83462 10.452466,10.794131 10.452466,10.729821 10.493155,10.729821" style="fill: white" /><polygon type="contour" points="10.557465,10.493158 10.557197,10.557199 10.506396,10.557199 10.452466,10.557467 10.452481,10.520063 10.452481,10.452484 10.493155,10.452469 10.557465,10.452469" style="fill: white" /><polygon type="contour" points="10.767037,10.452484 10.834618,10.452484 10.834665,10.509886 10.834576,10.557199 10.784113,10.557199 10.730013,10.558748 10.730013,10.507719 10.729819,10.452469" style="fill: white" /><polygon type="contour" points="10.778967,10.138101 10.834645,10.138101 10.834549,10.19773 10.834618,10.234206 10.79413,10.234376 10.729819,10.234376 10.729819,10.195041 10.729976,10.135625" style="fill: white" /><polygon type="contour" points="10.557226,10.184055 10.557465,10.234376 10.520061,10.234206 10.452481,10.234206 10.452347,10.19773 10.452347,10.137885 10.493154,10.135876 10.557226,10.135625" style="fill: white" /><polygon type="contour" points="10.234204,10.17203 10.234204,10.234206 10.197728,10.23422 10.137883,10.23422 10.137883,10.197731 10.1381,10.138101 10.183149,10.138101 10.234217,10.137885" style="fill: white" /><polygon type="contour" points="10.172028,10.452484 10.234204,10.452484 10.234373,10.493157 10.234373,10.557467 10.195038,10.557467 10.135623,10.557228 10.135873,10.493157 10.137883,10.452349" style="fill: white" /><polygon type="contour" points="9.959143,10.507024 9.959168,10.557199 9.791866,10.557199 9.578548,10.557481 9.489728,10.557481 9.170162,10.557199 9.172558,10.507024 9.172486,10.452349 9.29397,10.452484 9.578049,10.452489 9.638828,10.452427 9.959214,10.452349" style="fill: white" /><polygon type="contour" points="9.552647,10.13786 9.638829,10.13786 9.959188,10.138101 9.959188,10.18315 9.959214,10.23422 9.837729,10.234206 9.575332,10.233741 9.492294,10.233762 9.172486,10.23422 9.172513,10.183149 9.172513,10.138101 9.334618,10.138101 9.552647,10.137859" style="fill: white" /><polygon type="contour" points="9.552646,9.172893 9.638828,9.172893 9.959496,9.172207 9.959496,9.339093 9.958809,9.553225 9.958809,9.639407 9.959496,9.959498 9.792607,9.959498 9.578476,9.958811 9.492295,9.958811 9.172205,9.959498 9.172205,9.79261 9.172891,9.579056 9.172891,9.492874 9.172205,9.172207 9.339092,9.172207" style="fill: white" /><polygon type="contour" points="11.002892,8.352755 11.002365,8.401118 10.878001,8.401118 10.781421,8.40097 10.730732,8.40097 10.730732,8.350279 10.730544,8.250369 10.73071,8.245588 10.73071,8.187627 10.732971,8.126431 10.824019,8.125416 11.009628,8.122074" style="fill: white" /><polygon type="contour" points="10.834548,8.638546 10.834618,8.67922 10.79413,8.679236 10.729819,8.679236 10.729819,8.638547 10.729913,8.574506 10.834576,8.574506" style="fill: white" /><polygon type="contour" points="10.197728,8.297153 10.234203,8.297083 10.234373,8.337572 10.234373,8.401883 10.196937,8.401883 10.137961,8.401726 10.1381,8.352735 10.1381,8.297057" style="fill: white" /><polygon type="contour" points="10.557197,8.297125 10.557197,8.401789 10.506396,8.401789 10.452466,8.401883 10.452481,8.364664 10.452481,8.297082 10.509883,8.297036" style="fill: white" /><polygon type="contour" points="10.557197,8.574506 10.557226,8.629009 10.557465,8.638546 10.557465,8.679236 10.520061,8.67922 10.452481,8.67922 10.452466,8.638546 10.452466,8.574236 10.493155,8.574236" style="fill: white" /><polygon type="contour" points="10.557465,8.934762 10.557226,8.993741 10.493154,8.993929 10.452347,8.993819 10.452481,8.959671 10.452481,8.897498 10.493154,8.897329 10.557465,8.897329" style="fill: white" /><polygon type="contour" points="10.767036,8.897498 10.834618,8.897498 10.834736,8.951045 10.834645,8.993603 10.784876,8.993741 10.729976,8.993741 10.729976,8.947648 10.729819,8.897329" style="fill: white" /><polygon type="contour" points="10.780654,9.172087 10.921299,9.172207 11.002203,9.172207 11.002596,9.273798 11.003149,9.463913 10.976987,9.463952 10.971925,9.464126 10.835887,9.464694 10.834166,9.553174 10.834166,9.586865 10.835544,9.667134 10.941263,9.667579 10.971926,9.667579 11.003149,9.667792 11.002736,9.782387 11.002203,9.959498 10.860719,9.959617 10.730732,9.959635 10.730732,9.791577 10.729843,9.579124 10.729843,9.490304 10.730732,9.169687" style="fill: white" /><polygon type="contour" points="10.557197,9.339836 10.557478,9.553155 10.557478,9.641095 10.557196,9.95917 10.507022,9.959145 10.452347,9.959216 10.452481,9.837732 10.452486,9.553661 10.452424,9.492873 10.452347,9.172488 10.493155,9.170569 10.557197,9.170164" style="fill: white" /><polygon type="contour" points="10.234204,9.293971 10.233739,9.55637 10.23376,9.639408 10.234217,9.959216 10.197728,9.959216 10.1381,9.95919 10.1381,9.797083 10.137829,9.553226 10.137858,9.579055 10.137858,9.492873 10.1381,9.172515 10.183148,9.172515 10.234217,9.172488" style="fill: white" /><polygon type="contour" points="9.959188,8.948553 9.959188,8.993603 9.797082,8.993603 9.578476,8.993844 9.492295,8.993844 9.172513,8.993603 9.172513,8.948554 9.172486,8.897484 9.293969,8.897498 9.555401,8.89796 9.638829,8.897943 9.959214,8.897484" style="fill: white" /><polygon type="contour" points="10.172028,8.897498 10.234204,8.897498 10.234217,8.933973 10.234217,8.993819 10.197727,8.993819 10.1381,8.993603 10.1381,8.948554 10.137883,8.897485" style="fill: white" /><polygon type="contour" points="10.234204,8.611637 10.234204,8.67922 10.197728,8.679355 10.137883,8.679355 10.137772,8.638547 10.137961,8.574476 10.184053,8.574476 10.234373,8.574236" style="fill: white" /><polygon type="contour" points="9.961538,8.574506 9.959143,8.624679 9.959214,8.679355 9.837729,8.679219 9.553063,8.679214 9.492294,8.679276 9.172486,8.679354 9.172558,8.62468 9.172533,8.574506 9.339835,8.574506 9.552579,8.574223 9.641398,8.574223" style="fill: white" /><polygon type="contour" points="9.462703,8.126786 9.464137,8.182974 9.464442,8.188235 9.464442,8.296378 9.544838,8.297536 9.586275,8.297536 9.667258,8.296379 9.667258,8.188235 9.668997,8.126786 9.879449,8.129264 9.959683,8.129272 9.959683,8.173411 9.959614,8.270981 9.962014,8.40097 9.791575,8.40097 9.578548,8.401858 9.490606,8.401858 9.172068,8.40097 9.172086,8.351046 9.172086,8.270981 9.172017,8.202035 9.172017,8.129272 9.2991,8.126725" style="fill: white" /><polygon type="contour" points="8.30768,8.125416 8.398729,8.126431 8.40085,8.182329 8.400991,8.187628 8.401157,8.250369 8.401157,8.32581 8.400968,8.40097 8.350277,8.40097 8.253698,8.401118 8.129335,8.401118 8.128808,8.352754 8.122072,8.122074" style="fill: white" /><polygon type="contour" points="8.611635,8.897498 8.679218,8.897498 8.679354,8.933974 8.679354,8.993819 8.638546,8.995828 8.574474,8.996079 8.574474,8.947649 8.574234,8.897329" style="fill: white" /><polygon type="contour" points="8.401881,8.936662 8.401724,8.996079 8.352732,8.993603 8.297055,8.993603 8.297151,8.933974 8.297082,8.897498 8.337569,8.897329 8.401881,8.897329" style="fill: white" /><polygon type="contour" points="8.401687,8.623984 8.401881,8.679236 8.364661,8.67922 8.297081,8.67922 8.297034,8.621818 8.297124,8.574506 8.347586,8.574506 8.401687,8.572956" style="fill: white" /><polygon type="contour" points="8.679218,8.611638 8.679218,8.67922 8.638545,8.679236 8.574234,8.679236 8.574234,8.638547 8.574504,8.574506 8.625304,8.574506 8.679235,8.574236" style="fill: white" /><polygon type="contour" points="8.679235,8.337571 8.679235,8.401883 8.638545,8.401883 8.572954,8.401689 8.574504,8.347588 8.574504,8.297126 8.638546,8.297152 8.679218,8.297083" style="fill: white" /><polygon type="contour" points="8.993601,8.297057 8.996078,8.346826 8.996078,8.401726 8.947646,8.401726 8.897328,8.401883 8.897497,8.364665 8.897497,8.297083 8.951044,8.296965" style="fill: white" /><polygon type="contour" points="8.996077,8.574476 8.995826,8.638547 8.993817,8.679355 8.95967,8.67922 8.897497,8.67922 8.897328,8.638546 8.897328,8.574236 8.936661,8.574236" style="fill: white" /><polygon type="contour" points="8.993817,8.933973 8.9936,8.993603 8.948551,8.993603 8.897484,8.993819 8.897497,8.959672 8.897497,8.897498 8.933971,8.897485 8.993817,8.897485" style="fill: white" /><polygon type="contour" points="8.993601,9.172515 8.993601,9.334619 8.993842,9.553226 8.993842,9.639407 8.993601,9.95919 8.948551,9.95919 8.897484,9.959216 8.897497,9.837732 8.897958,9.576296 8.897941,9.492874 8.897484,9.172488 8.933972,9.172488" style="fill: white" /><polygon type="contour" points="8.679218,9.293971 8.679212,9.578639 8.679275,9.639408 8.679353,9.959216 8.638546,9.961135 8.574504,9.961541 8.574504,9.791867 8.574223,9.579124 8.574223,9.491183 8.574504,9.172534 8.624678,9.17256 8.679354,9.172488" style="fill: white" /><polygon type="contour" points="8.400968,9.340127 8.401856,9.553154 8.401856,9.641974 8.400968,9.962017 8.351044,9.959617 8.2104,9.959498 8.129497,9.959498 8.129104,9.857906 8.128552,9.667792 8.154713,9.667753 8.159774,9.667579 8.295808,9.667007 8.297533,9.579117 8.297533,9.545427 8.296155,9.464567 8.190437,9.464126 8.159774,9.464126 8.128552,9.463913 8.128964,9.349317 8.129497,9.172207 8.27098,9.172088 8.400968,9.172069" style="fill: white" /><polygon type="contour" points="8.401724,10.184056 8.401881,10.234376 8.364661,10.234206 8.297082,10.234206 8.296963,10.180656 8.297054,10.138101 8.346823,10.137963 8.401724,10.137963" style="fill: white" /><polygon type="contour" points="8.679354,10.137884 8.679218,10.17203 8.679218,10.234205 8.638545,10.234376 8.574234,10.234376 8.574234,10.19694 8.574474,10.137962 8.638546,10.137774" style="fill: white" /><polygon type="contour" points="8.993601,10.138101 8.993601,10.183149 8.993817,10.23422 8.959669,10.234206 8.897497,10.234206 8.897484,10.19773 8.897484,10.137885 8.933971,10.137885" style="fill: white" /><polygon type="contour" points="8.993928,10.493157 8.99374,10.557228 8.947647,10.557228 8.897328,10.557467 8.897497,10.520064 8.897497,10.452484 8.933971,10.452349 8.993817,10.452349" style="fill: white" /><polygon type="contour" points="8.99374,10.729978 8.993601,10.778967 8.993601,10.834647 8.933972,10.834551 8.897497,10.83462 8.897328,10.794132 8.897328,10.729821 8.934761,10.729821" style="fill: white" /><polygon type="contour" points="8.679218,10.767037 8.679218,10.83462 8.621816,10.834667 8.574504,10.834578 8.572954,10.780705 8.572954,10.730015 8.623982,10.730015 8.679235,10.729821" style="fill: white" /><polygon type="contour" points="8.611636,10.452484 8.679218,10.452484 8.679235,10.493157 8.679235,10.557467 8.638546,10.557467 8.574504,10.557199 8.574474,10.502696 8.574234,10.493157 8.574234,10.452469" style="fill: white" /><polygon type="contour" points="8.401881,10.493157 8.401687,10.558748 8.350997,10.558748 8.297124,10.557199 8.297152,10.493157 8.297082,10.452484 8.33757,10.452469 8.401881,10.452469" style="fill: white" /><polygon type="contour" points="8.350277,10.730734 8.400968,10.730734 8.400968,10.781423 8.401156,10.881334 8.400991,10.886113 8.400991,10.944076 8.398729,11.005271 8.30768,11.006287 8.122072,11.00963 8.128808,10.778948 8.129335,10.730587 8.253698,10.730587" style="fill: white" />
</svg>
