<svg width="19.131698" height="19.131699">
<polygon type="contour" points="7.854559,11.110173 7.934659,11.11663 8.015694,11.116007 8.021528,11.277141 8.022821,11.330951 8.021642,11.400748 7.730955,11.400748 7.730955,11.11006 7.800751,11.108881" style="fill: white" /><polygon type="contour" points="7.546585,11.400772 7.446816,11.40072 7.264645,11.40072 7.264645,11.296079 7.26495,11.108753 7.355894,11.109069 7.546585,11.108723" style="fill: white" /><polygon type="contour" points="7.546498,11.684887 7.546498,11.867058 7.446815,11.867058 7.264951,11.866751 7.264951,11.752451 7.264645,11.585206 7.34252,11.585118 7.546585,11.585118" style="fill: white" /><polygon type="contour" points="8.023219,11.684886 8.022947,11.866751 7.90296,11.866751 7.730982,11.867058 7.73093,11.789181 7.73093,11.585118 8.02298,11.585118" style="fill: white" /><polygon type="contour" points="8.023044,13.04796 8.02223,13.106674 8.020339,13.240541 7.884594,13.238975 7.824432,13.238456 7.800316,13.239067 7.730955,13.239381 7.730955,13.215935 7.731084,13.156237 7.731084,12.94494 7.812501,12.94494 8.021412,12.944894" style="fill: white" /><polygon type="contour" points="8.022665,12.588373 8.022781,12.728972 7.926466,12.728972 7.731068,12.728964 7.730983,12.653601 7.730983,12.516182 7.835624,12.516182 8.022947,12.51603" style="fill: white" /><polygon type="contour" points="7.546498,12.516182 7.546498,12.653601 7.5464,12.728964 7.446816,12.729228 7.264789,12.729263 7.264789,12.64579 7.264951,12.51603 7.379251,12.51603" style="fill: white" /><polygon type="contour" points="7.446816,12.943974 7.546585,12.944184 7.546585,13.063454 7.446815,13.063515 7.264951,13.06385 7.264951,13.014378 7.264789,12.943833" style="fill: white" /><polygon type="contour" points="6.187867,12.516192 6.187504,12.585556 6.187504,12.728972 6.067591,12.728972 6.067672,12.588373 6.067852,12.51603 6.117324,12.51603" style="fill: white" /><polygon type="contour" points="6.105242,12.94488 6.18682,12.94488 6.18682,13.145944 6.18671,13.239503 5.932685,13.238009 5.919043,13.238032 5.8931,13.238603 5.893492,13.22691 5.890443,12.946635 6.003383,12.944635 6.016385,12.94427" style="fill: white" /><polygon type="contour" points="6.61551,12.991453 6.615672,13.06385 6.543328,13.064031 6.402728,13.06411 6.402728,12.944196 6.4025,12.943968 6.402545,12.943896 6.476744,12.943896 6.546146,12.944196 6.61551,12.943833" style="fill: white" /><polygon type="contour" points="6.615672,12.602749 6.61551,12.729264 6.546145,12.728972 6.402728,12.728972 6.402435,12.645791 6.402435,12.516192 6.485909,12.516192 6.615672,12.51603" style="fill: white" /><polygon type="contour" points="6.61552,11.684887 6.615672,11.866751 6.528952,11.866751 6.402435,11.866912 6.402472,11.684887 6.402739,11.585303 6.478102,11.585206 6.61552,11.585206" style="fill: white" /><polygon type="contour" points="6.187727,11.684886 6.187867,11.866912 6.140246,11.866912 6.067852,11.866751 6.067875,11.775808 6.068248,11.585118 6.187518,11.585118" style="fill: white" /><polygon type="contour" points="6.18675,11.110393 6.18682,11.201969 6.186774,11.400712 6.101786,11.400712 6.084634,11.400728 5.933698,11.400728 5.915767,11.400748 5.892323,11.400748 5.892636,11.331387 5.893331,11.306688 5.892867,11.246451 5.891357,11.111427 6.024461,11.109532 6.083173,11.1087" style="fill: white" /><polygon type="contour" points="6.615672,11.108753 6.615672,11.228738 6.61552,11.40072 6.478102,11.40072 6.402739,11.400634 6.402739,11.314237 6.402728,11.108921 6.485909,11.108659" style="fill: white" /><polygon type="contour" points="6.61552,7.835625 6.615672,8.02295 6.485908,8.023044 6.402728,8.022783 6.402728,7.926468 6.402739,7.731069 6.478101,7.730984 6.61552,7.730984" style="fill: white" /><polygon type="contour" points="5.976068,7.730992 6.186774,7.730992 6.186774,7.812995 6.18682,8.021312 6.083738,8.023046 6.025027,8.022233 5.89116,8.02034 5.893247,7.824433 5.892636,7.800317 5.892323,7.730956 5.915767,7.730956" style="fill: white" /><polygon type="contour" points="6.187727,7.446816 6.187518,7.546587 6.068247,7.546587 6.068187,7.446817 6.067852,7.264954 6.117324,7.264954 6.187867,7.264792" style="fill: white" /><polygon type="contour" points="6.615672,7.264953 6.615672,7.379254 6.61552,7.546499 6.478101,7.546499 6.402739,7.546401 6.402472,7.446816 6.402435,7.264792 6.485909,7.264792" style="fill: white" /><polygon type="contour" points="6.187504,6.546147 6.187867,6.615512 6.140245,6.615512 6.067852,6.615674 6.067672,6.54333 6.067591,6.40273 6.187504,6.40273" style="fill: white" /><polygon type="contour" points="6.18671,5.892202 6.18671,5.919828 6.18682,5.98576 6.18682,6.186822 6.100552,6.187431 6.016384,6.187431 6.003382,6.187064 5.890443,6.185068 5.893492,5.904793 5.8931,5.893101 6.009993,5.88033" style="fill: white" /><polygon type="contour" points="6.543328,6.067672 6.615672,6.067853 6.615672,6.117325 6.61551,6.187869 6.546145,6.187506 6.402728,6.187506 6.402728,6.067594" style="fill: white" /><polygon type="contour" points="6.61551,6.485911 6.615672,6.615674 6.528951,6.615674 6.402435,6.615512 6.402728,6.546148 6.402728,6.40273 6.485908,6.402437 6.61551,6.402437" style="fill: white" /><polygon type="contour" points="7.446815,6.402474 7.5464,6.40274 7.546498,6.478102 7.546498,6.615522 7.446815,6.615522 7.264951,6.615674 7.264951,6.528953 7.264789,6.402437" style="fill: white" /><polygon type="contour" points="7.355893,6.067877 7.546585,6.06825 7.546585,6.18752 7.446815,6.18773 7.264789,6.187869 7.264789,6.140248 7.264951,6.067852" style="fill: white" /><polygon type="contour" points="8.022168,6.024464 8.023001,6.083175 8.021309,6.186752 7.930458,6.186808 7.731084,6.186764 7.731084,6.101537 7.730975,6.084636 7.730975,5.933699 7.730955,5.915768 7.730955,5.892324 7.800315,5.892636 7.825013,5.893332 7.885248,5.892868 8.020274,5.891359" style="fill: white" /><polygon type="contour" points="8.023041,6.48591 8.022947,6.615674 7.902961,6.615674 7.730983,6.615522 7.730983,6.478102 7.731068,6.40274 7.817465,6.40274 8.022781,6.40273" style="fill: white" /><polygon type="contour" points="8.022947,7.264954 8.02263,7.355895 8.02298,7.546587 7.73093,7.546587 7.730983,7.446816 7.730983,7.264646 7.835623,7.264646" style="fill: white" /><polygon type="contour" points="7.546585,7.342522 7.546585,7.546587 7.446815,7.546499 7.264645,7.546499 7.264645,7.446816 7.264951,7.264954 7.379251,7.264954 7.546498,7.264645" style="fill: white" /><polygon type="contour" points="7.546585,8.022981 7.355893,8.022633 7.264951,8.02295 7.264951,7.902962 7.264645,7.730984 7.342521,7.730932 7.546585,7.730932" style="fill: white" /><polygon type="contour" points="8.022821,7.800753 8.021529,7.85456 8.015069,7.93466 8.015694,8.015696 7.80132,8.012311 7.731045,8.021712 7.731045,7.799848 7.730955,7.730956 8.021642,7.730956" style="fill: white" /><polygon type="contour" points="11.400745,8.021643 11.330947,8.022822 11.116006,8.015696 11.11939,7.801324 11.109989,7.731047 11.331851,7.731047 11.400745,7.730956" style="fill: white" /><polygon type="contour" points="11.684883,7.730984 11.867056,7.730984 11.867056,7.835624 11.866749,8.02295 11.775807,8.022633 11.585115,8.022981 11.585115,7.730932" style="fill: white" /><polygon type="contour" points="11.866749,7.264953 11.866749,7.379254 11.867056,7.546499 11.789179,7.546587 11.585115,7.546587 11.585203,7.446816 11.585203,7.264647 11.684884,7.264647" style="fill: white" /><polygon type="contour" points="11.40077,7.342523 11.40077,7.546587 11.10872,7.546587 11.109067,7.355895 11.10875,7.264954 11.228737,7.264954 11.400718,7.264647" style="fill: white" /><polygon type="contour" points="11.307268,5.893248 11.331384,5.892637 11.400745,5.892324 11.400745,5.915768 11.400616,5.975467 11.400616,6.186764 11.319198,6.186764 11.110288,6.186808 11.108656,6.08374 11.109469,6.025028 11.111361,5.891163" style="fill: white" /><polygon type="contour" points="11.400631,6.40274 11.400718,6.478103 11.400718,6.615522 11.296076,6.615522 11.108751,6.615674 11.108657,6.485911 11.108919,6.40273 11.205232,6.40273" style="fill: white" /><polygon type="contour" points="11.866911,6.485911 11.866749,6.615674 11.752448,6.615674 11.585203,6.615522 11.585203,6.478103 11.5853,6.40274 11.684884,6.402474 11.866911,6.402437" style="fill: white" /><polygon type="contour" points="11.866749,6.117325 11.866911,6.187869 11.684884,6.18773 11.585115,6.18752 11.585115,6.06825 11.775807,6.067877 11.866749,6.067853" style="fill: white" /><polygon type="contour" points="13.199015,5.893695 13.212657,5.893672 13.238601,5.893101 13.238209,5.904793 13.241258,6.185068 13.128318,6.187064 13.115314,6.187431 13.026455,6.186822 12.944879,6.186822 12.944879,5.985759 12.944989,5.892202" style="fill: white" /><polygon type="contour" points="12.728971,6.147794 12.728971,6.187506 12.585554,6.187506 12.51619,6.187869 12.51619,6.140248 12.516028,6.067853 12.588371,6.067673 12.728972,6.067595" style="fill: white" /><polygon type="contour" points="12.585553,6.40273 12.72897,6.40273 12.729262,6.485911 12.729262,6.615512 12.645789,6.615512 12.516028,6.615674 12.516028,6.528953 12.516189,6.402437" style="fill: white" /><polygon type="contour" points="13.064029,6.54333 13.063848,6.615674 13.014375,6.615674 12.943832,6.615512 12.944194,6.546147 12.944194,6.40273 13.064109,6.40273" style="fill: white" /><polygon type="contour" points="13.063848,7.264954 13.063824,7.355895 13.063452,7.546587 12.944182,7.546587 12.943973,7.446816 12.943833,7.264792 12.991452,7.264792" style="fill: white" /><polygon type="contour" points="12.729226,7.446816 12.728962,7.546401 12.653599,7.546499 12.51618,7.546499 12.51618,7.446816 12.516028,7.264954 12.602747,7.264954 12.729264,7.264792" style="fill: white" /><polygon type="contour" points="12.728962,7.731069 12.728962,7.817467 12.728971,8.022783 12.64579,8.023044 12.516028,8.02295 12.516028,7.902962 12.51618,7.730984 12.653599,7.730984" style="fill: white" /><polygon type="contour" points="13.239064,7.800316 13.238369,7.825015 13.240342,8.020275 13.107237,8.022171 13.048525,8.023003 12.944948,8.021311 12.944878,7.929734 12.944925,7.730992 13.029913,7.730992 13.047065,7.730976 13.198003,7.730976 13.215931,7.730956 13.239378,7.730956" style="fill: white" /><polygon type="contour" points="13.106674,11.109472 13.24054,11.111364 13.238975,11.247107 13.238454,11.30727 13.239063,11.331387 13.239378,11.400748 13.215932,11.400748 13.155632,11.400712 12.944926,11.400712 12.944926,11.318709 12.944879,11.110392 13.04796,11.108658" style="fill: white" /><polygon type="contour" points="13.063824,11.775808 13.063848,11.86675 13.014376,11.866751 12.943833,11.866913 12.943973,11.684886 12.944182,11.585118 13.063452,11.585118" style="fill: white" /><polygon type="contour" points="12.728962,11.585303 12.729226,11.684886 12.729264,11.866913 12.64579,11.866913 12.516028,11.866751 12.516028,11.75245 12.51618,11.585206 12.653598,11.585206" style="fill: white" /><polygon type="contour" points="12.588372,11.109035 12.728971,11.108921 12.728971,11.205233 12.728962,11.400634 12.653598,11.40072 12.51618,11.40072 12.51618,11.296079 12.516028,11.108753" style="fill: white" /><polygon type="contour" points="11.775807,11.109069 11.866749,11.108753 11.866749,11.228738 11.867056,11.400719 11.789178,11.400772 11.585115,11.400772 11.585115,11.108723" style="fill: white" /><polygon type="contour" points="11.400655,11.331855 11.400745,11.400748 11.110057,11.400748 11.108879,11.33095 11.116006,11.116007 11.330378,11.119392 11.400655,11.109992" style="fill: white" /><polygon type="contour" points="11.684884,11.585206 11.867056,11.585206 11.867056,11.684887 11.866749,11.866751 11.752448,11.866751 11.585203,11.867058 11.585115,11.789181 11.585115,11.585118" style="fill: white" /><polygon type="contour" points="11.400718,11.684886 11.400718,11.867058 11.296077,11.867058 11.108751,11.866751 11.109067,11.775808 11.10872,11.585118 11.40077,11.585118" style="fill: white" /><polygon type="contour" points="11.400616,12.94494 11.400616,13.030165 11.400726,13.047067 11.400726,13.198006 11.400745,13.215934 11.400745,13.239381 11.331384,13.239066 11.306686,13.238372 11.111426,13.240345 11.10953,13.107238 11.108698,13.048526 11.110391,12.94495 11.201241,12.944894" style="fill: white" /><polygon type="contour" points="11.400718,12.516182 11.400718,12.6536 11.400631,12.728964 11.314234,12.728964 11.108919,12.728972 11.108657,12.64579 11.108751,12.51603 11.228738,12.51603" style="fill: white" /><polygon type="contour" points="11.866749,12.602749 11.866911,12.729264 11.684883,12.729228 11.5853,12.728964 11.585203,12.6536 11.585203,12.516182 11.684884,12.516182 11.866749,12.51603" style="fill: white" /><polygon type="contour" points="11.866911,12.991453 11.866749,13.06385 11.775807,13.063826 11.585115,13.063454 11.585115,12.944184 11.684883,12.943974 11.866911,12.943833" style="fill: white" /><polygon type="contour" points="12.585554,12.944196 12.728972,12.944197 12.728971,13.024397 12.728971,13.06411 12.588372,13.064031 12.516028,13.06385 12.516028,13.014378 12.51619,12.943833" style="fill: white" /><polygon type="contour" points="12.729262,12.516192 12.728971,12.585555 12.728972,12.728973 12.645791,12.729265 12.51619,12.729264 12.51619,12.64579 12.516028,12.51603 12.602747,12.51603" style="fill: white" /><polygon type="contour" points="13.064029,12.588373 13.064109,12.728972 12.983908,12.728973 12.944196,12.728973 12.944193,12.585555 12.943832,12.516192 12.991451,12.516192 13.063848,12.51603" style="fill: white" /><polygon type="contour" points="13.128317,12.944636 13.241258,12.946635 13.238209,13.22691 13.238601,13.238603 13.121707,13.251374 12.944989,13.239503 12.944989,13.211875 12.944879,13.145943 12.944879,13.026457 12.94488,12.944881 13.031148,12.944271 13.115315,12.94427" style="fill: white" />
</svg>
