<svg width="19.131698" height="19.131699">
<polygon type="contour" points="8.82246,10.294592 8.83711,10.294592 8.837595,10.397337 8.83711,10.506109 8.83711,10.523563 8.824672,10.523602 8.724507,10.523896 8.724507,10.61498 8.721547,10.693423 8.488868,10.690507 8.44098,10.690723 8.441111,10.655768 8.441198,10.407611 8.445496,10.407611 8.455813,10.4076 8.607806,10.4076 8.608139,10.294592 8.729042,10.294105" style="fill: white" /><polygon type="contour" points="8.738188,9.308516 8.822461,9.308635 8.83711,9.308635 8.836848,9.399104 8.836848,9.72643 8.83711,9.808731 8.83711,9.823069 8.734362,9.8232 8.724145,9.823188 8.724144,9.823188 8.625594,9.823069 8.60814,9.823069 8.608115,9.810882 8.607936,9.711102 8.436465,9.711102 8.436712,9.694746 8.437334,9.565501 8.436713,9.436878 8.436465,9.420602 8.607938,9.420602 8.60814,9.308635 8.729042,9.308503" style="fill: white" /><polygon type="contour" points="8.724507,8.516723 8.724092,8.607806 8.83711,8.608142 8.837597,8.729045 8.83711,8.822464 8.83711,8.837113 8.734362,8.837597 8.625594,8.837113 8.60814,8.837113 8.608101,8.824676 8.607805,8.724092 8.441198,8.724092 8.441111,8.475935 8.44098,8.440981 8.488868,8.441196 8.721547,8.438279" style="fill: white" /><polygon type="contour" points="10.642831,8.441196 10.69072,8.440981 10.690588,8.475935 10.690502,8.724092 10.686203,8.724092 10.675886,8.724102 10.523894,8.724102 10.523561,8.837113 10.402654,8.837599 10.393508,8.837552 10.393507,8.837552 10.309238,8.837113 10.294591,8.837113 10.294105,8.734364 10.294591,8.625595 10.294591,8.608142 10.307028,8.608102 10.407193,8.607807 10.407193,8.516723 10.410153,8.438279" style="fill: white" /><polygon type="contour" points="9.707418,8.4413 9.711101,8.441314 9.711101,8.607939 9.823067,8.608142 9.823198,8.729045 9.823067,8.822464 9.823067,8.837113 9.732597,8.83685 9.405271,8.83685 9.322969,8.837113 9.308633,8.837113 9.308501,8.734364 9.308633,8.625596 9.308633,8.608142 9.320819,8.608117 9.4206,8.607937 9.4206,8.441314 9.424265,8.4413 9.566121,8.437324" style="fill: white" /><polygon type="contour" points="9.823029,9.399105 9.823029,9.72643 9.823067,9.808731 9.823067,9.823069 9.732597,9.823032 9.405271,9.823032 9.322969,9.823069 9.308633,9.823069 9.308671,9.732598 9.308671,9.405273 9.308633,9.322972 9.308633,9.308635 9.399103,9.308672 9.72643,9.308672 9.80873,9.308635 9.823067,9.308635" style="fill: white" /><polygon type="contour" points="10.506106,9.308635 10.523561,9.308635 10.523586,9.320821 10.523764,9.420602 10.695235,9.420602 10.694987,9.436958 10.694367,9.566202 10.694987,9.694825 10.695235,9.711102 10.523762,9.711102 10.523561,9.823069 10.402654,9.8232 10.393507,9.823188 10.309238,9.823069 10.294591,9.823069 10.294851,9.732599 10.294851,9.405273 10.294591,9.322971 10.294591,9.308635 10.397335,9.308503" style="fill: white" /><polygon type="contour" points="10.506107,10.294592 10.523561,10.294592 10.5236,10.307029 10.523895,10.407611 10.690502,10.407611 10.690588,10.655768 10.69072,10.690723 10.642831,10.690507 10.410153,10.693423 10.407193,10.61498 10.407605,10.523896 10.294591,10.523563 10.294103,10.402656 10.294151,10.393509 10.294591,10.30924 10.294591,10.294592 10.397335,10.294107" style="fill: white" /><polygon type="contour" points="9.823198,10.397337 9.823067,10.506108 9.823067,10.523563 9.81088,10.523588 9.711101,10.523766 9.711101,10.69039 9.707417,10.690404 9.565501,10.69438 9.424264,10.690404 9.4206,10.69039 9.4206,10.674532 9.419331,10.523762 9.308633,10.523563 9.308501,10.402656 9.308633,10.309239 9.308633,10.294592 9.399102,10.294852 9.726429,10.294852 9.808729,10.294592 9.823067,10.294592" style="fill: white" />
</svg>
