<svg width="19.131698" height="19.131699">
<polygon type="contour" points="13.001773,8.172003 13.001864,8.179038 13.001982,8.190667 12.980768,8.190969 12.712177,8.189708 12.711808,8.036392 12.711808,7.899207 12.981717,7.899033 12.991609,7.899011 13.003281,7.899011" style="fill: white" /><polygon type="contour" points="12.406281,8.191747 12.284997,8.191514 12.138809,8.191833 12.138735,8.094208 12.138735,7.899142 12.235197,7.899245 12.406281,7.899126" style="fill: white" /><polygon type="contour" points="11.23255,7.899152 11.23255,8.189853 11.128785,8.190519 11.095416,8.18886 10.947738,8.183964 10.949307,8.084615 10.942841,8.036285 10.941183,8.002915 10.94198,7.898976 11.129655,7.898976" style="fill: white" /><polygon type="contour" points="11.778804,7.899142 11.778859,7.992557 11.778859,8.191833 11.660429,8.191667 11.571648,8.191843 11.571648,7.899008 11.663658,7.899008" style="fill: white" /><polygon type="contour" points="11.778804,7.422623 11.778804,7.560099 11.709078,7.560099 11.571648,7.560055 11.571648,7.468045 11.571603,7.352898 11.638415,7.352843 11.778859,7.352843" style="fill: white" /><polygon type="contour" points="12.235197,7.353181 12.406323,7.353181 12.406323,7.427781 12.405907,7.560426 12.235198,7.560382 12.138735,7.560099 12.13881,7.493286 12.13881,7.352843" style="fill: white" /><polygon type="contour" points="12.827408,7.471273 12.82727,7.560055 12.771858,7.560426 12.710588,7.56236 12.710587,7.464638 12.710494,7.353181 12.748669,7.352843 12.826957,7.352843" style="fill: white" /><polygon type="contour" points="13.006196,6.303624 13.001928,6.420876 12.751003,6.420079 12.71201,6.419689 12.712178,6.281347 12.712178,6.128402 12.986331,6.120008 12.993006,6.119758 13.012369,6.119333" style="fill: white" /><polygon type="contour" points="12.82754,6.846705 12.826957,6.992893 12.784409,6.992528 12.710494,6.992528 12.710494,6.896504 12.710587,6.72551 12.76605,6.72551 12.827211,6.725422" style="fill: white" /><polygon type="contour" points="12.406281,6.725422 12.406281,6.857425 12.406323,6.992528 12.320055,6.992893 12.13881,6.992893 12.139175,6.896504 12.139175,6.72538 12.235197,6.72538" style="fill: white" /><polygon type="contour" points="12.406281,6.304491 12.406191,6.365651 12.406191,6.421115 12.280407,6.421115 12.139175,6.421207 12.13881,6.38303 12.13881,6.304745 12.284997,6.304161" style="fill: white" /><polygon type="contour" points="11.232692,6.140091 11.232633,6.367107 11.232494,6.419894 11.079178,6.419524 10.941995,6.419524 10.940733,6.150932 10.941033,6.129715 10.952664,6.129838 10.959698,6.12993 11.232692,6.128419" style="fill: white" /><polygon type="contour" points="11.778859,6.304745 11.778521,6.347292 11.778521,6.421207 11.703919,6.421207 11.56934,6.421115 11.569619,6.368459 11.571647,6.304432 11.660429,6.304295" style="fill: white" /><polygon type="contour" points="11.778859,6.811645 11.778859,6.992893 11.709079,6.992967 11.571603,6.992967 11.57132,6.896504 11.571276,6.725796 11.70392,6.72538 11.778521,6.72538" style="fill: white" /><polygon type="contour" points="11.232726,6.851114 11.23256,6.992967 11.139145,6.992893 10.939869,6.992893 10.940187,6.846705 10.939955,6.725422 11.232575,6.725422" style="fill: white" /><polygon type="contour" points="11.037493,7.352898 11.23256,7.352898 11.23256,7.422623 11.232694,7.560055 10.939859,7.560055 10.940036,7.471274 10.939869,7.352843" style="fill: white" /><polygon type="contour" points="6.134725,6.119564 6.145369,6.120008 6.419651,6.128162 6.419703,6.413829 6.419686,6.419689 6.380693,6.420079 6.129773,6.420876 6.125504,6.303624 6.119331,6.119333 6.123884,6.118835" style="fill: white" /><polygon type="contour" points="6.367106,7.899068 6.419892,7.899207 6.419522,8.052522 6.419522,8.189708 6.15093,8.190969 6.129712,8.190669 6.129836,8.179038 6.129928,8.172003 6.128418,7.899011 6.140088,7.899011" style="fill: white" /><polygon type="contour" points="6.347291,7.353181 6.421205,7.353181 6.421205,7.427781 6.421083,7.560426 6.368641,7.560055 6.30443,7.560055 6.304293,7.471273 6.304743,7.352843" style="fill: white" /><polygon type="contour" points="6.365649,6.72551 6.421113,6.72551 6.421113,6.851293 6.421205,6.992528 6.383028,6.992893 6.304744,6.992893 6.304159,6.846704 6.304489,6.725422" style="fill: white" /><polygon type="contour" points="6.896502,6.304952 6.947679,6.304704 6.992891,6.304745 6.992526,6.347292 6.992526,6.421207 6.896503,6.421207 6.725508,6.421114 6.725508,6.365652 6.725419,6.304491" style="fill: white" /><polygon type="contour" points="6.992891,6.811646 6.992891,6.992893 6.896502,6.992528 6.725378,6.992528 6.725378,6.896504 6.725419,6.725422 6.857423,6.725422 6.992526,6.72538" style="fill: white" /><polygon type="contour" points="8.182461,7.989007 8.183962,8.183964 8.084612,8.182395 8.036284,8.188859 8.002913,8.190519 7.898974,8.189723 7.898974,8.002047 7.899149,7.899152 8.002044,7.898976 8.189721,7.898976" style="fill: white" /><polygon type="contour" points="8.191665,7.471273 8.191841,7.560055 7.899006,7.560055 7.899006,7.468044 7.89914,7.352898 7.992555,7.352843 8.191831,7.352843" style="fill: white" /><polygon type="contour" points="8.191512,6.846705 8.191831,6.992893 8.094206,6.992967 7.89914,6.992967 7.899243,6.896505 7.899124,6.725422 8.191745,6.725422" style="fill: white" /><polygon type="contour" points="8.172002,6.12993 8.190665,6.129721 8.190967,6.150932 8.189706,6.419524 8.03639,6.419895 7.899205,6.419894 7.899358,6.388597 7.899358,6.341976 7.89915,6.252059 7.899008,6.140091 7.899008,6.128419" style="fill: white" /><polygon type="contour" points="7.560052,6.304432 7.560422,6.359844 7.562358,6.421115 7.464636,6.421115 7.353179,6.421207 7.352841,6.383031 7.352841,6.304745 7.471272,6.304295" style="fill: white" /><polygon type="contour" points="7.560423,6.725796 7.560379,6.896505 7.560097,6.992967 7.493284,6.992893 7.352841,6.992893 7.353179,6.896505 7.353179,6.72538 7.427778,6.72538" style="fill: white" /><polygon type="contour" points="7.422621,7.352898 7.560097,7.352898 7.560097,7.422622 7.560052,7.560055 7.468042,7.560055 7.352895,7.560099 7.352841,7.493286 7.352841,7.352843" style="fill: white" /><polygon type="contour" points="6.992966,7.422623 6.992966,7.560098 6.896502,7.560382 6.725794,7.560426 6.725794,7.463084 6.725378,7.353181 6.811643,7.352843 6.992891,7.352843" style="fill: white" /><polygon type="contour" points="6.992966,7.899142 6.992891,7.992558 6.992891,8.191833 6.846702,8.191514 6.725419,8.191747 6.725419,7.899126 6.851112,7.898976" style="fill: white" /><polygon type="contour" points="7.560052,8.191843 7.471271,8.191667 7.352841,8.191833 7.352896,8.094208 7.352896,7.899142 7.422621,7.899142 7.560052,7.899008" style="fill: white" /><polygon type="contour" points="6.419522,10.941997 6.419892,11.095311 6.419892,11.232495 6.149981,11.232671 6.140088,11.232694 6.128418,11.232694 6.129928,10.959701 6.129719,10.941037 6.150931,10.940735" style="fill: white" /><polygon type="contour" points="6.992526,12.235199 6.992526,12.406324 6.896503,12.406324 6.725419,12.406282 6.725419,12.274277 6.725378,12.139176 6.811644,12.138811 6.992891,12.138811" style="fill: white" /><polygon type="contour" points="6.992891,12.748671 6.992891,12.82696 6.846703,12.827543 6.725419,12.827213 6.725508,12.766051 6.725508,12.710588 6.851291,12.710588 6.992526,12.710495" style="fill: white" /><polygon type="contour" points="6.380694,12.711622 6.419686,12.712012 6.419522,12.850355 6.419522,13.003301 6.145369,13.011695 6.138694,13.011945 6.119331,13.012371 6.125504,12.828079 6.129773,12.710828" style="fill: white" /><polygon type="contour" points="6.347291,12.139176 6.421205,12.139176 6.421205,12.235198 6.421113,12.406192 6.365648,12.406192 6.304489,12.406282 6.304159,12.284999 6.304744,12.138811" style="fill: white" /><polygon type="contour" points="6.421083,11.668618 6.421205,11.778523 6.383029,11.778861 6.304744,11.778861 6.304293,11.66043 6.30443,11.571649 6.359842,11.571278 6.421083,11.571278" style="fill: white" /><polygon type="contour" points="6.896502,11.571322 6.992966,11.571605 6.992891,11.638417 6.992891,11.778861 6.896503,11.778523 6.725378,11.778523 6.725378,11.703922 6.725794,11.571278" style="fill: white" /><polygon type="contour" points="6.992966,11.037495 6.992966,11.232562 6.896503,11.232459 6.725419,11.232578 6.725419,10.939957 6.846702,10.940189 6.992891,10.939871" style="fill: white" /><polygon type="contour" points="7.989007,10.949239 8.183962,10.94774 8.190518,11.128787 8.189852,11.232552 7.899149,11.232552 7.898974,11.129656 7.898974,10.941981" style="fill: white" /><polygon type="contour" points="7.560052,11.232696 7.468041,11.232696 7.352896,11.232562 7.352841,11.139145 7.352841,10.939871 7.471271,10.940037 7.560052,10.93986" style="fill: white" /><polygon type="contour" points="7.560052,11.571649 7.560052,11.663658 7.560097,11.778806 7.493284,11.778861 7.352841,11.778861 7.352896,11.70908 7.352896,11.571605 7.422621,11.571605" style="fill: white" /><polygon type="contour" points="8.191665,11.66043 8.191831,11.778861 8.094206,11.778806 7.89914,11.778806 7.89914,11.70908 7.899006,11.571649 8.191841,11.571649" style="fill: white" /><polygon type="contour" points="7.992555,12.138811 8.191831,12.138811 8.191512,12.284998 8.191745,12.406282 7.899124,12.406282 7.898974,12.280589 7.89914,12.138737" style="fill: white" /><polygon type="contour" points="7.560379,12.235198 7.560423,12.405908 7.427778,12.406324 7.353179,12.406324 7.352841,12.320058 7.352841,12.138811 7.42262,12.138737 7.560097,12.138737" style="fill: white" /><polygon type="contour" points="7.560423,12.710619 7.560052,12.76306 7.560052,12.827272 7.471272,12.82741 7.352841,12.826959 7.353179,12.78441 7.353179,12.710495 7.427778,12.710495" style="fill: white" /><polygon type="contour" points="8.05252,12.712178 8.189706,12.712178 8.190967,12.98077 8.190667,13.001989 8.172001,13.001774 7.899008,13.003282 7.899008,12.991609 7.899066,12.764596 7.899205,12.711809" style="fill: white" /><polygon type="contour" points="11.778859,12.74867 11.778859,12.82696 11.660429,12.82741 11.571648,12.827272 11.571276,12.771858 11.56934,12.710588 11.667061,12.710588 11.778521,12.710495" style="fill: white" /><polygon type="contour" points="11.232341,12.743106 11.232341,12.789727 11.232549,12.879643 11.232692,12.99161 11.232692,13.003282 10.959699,13.001775 10.952663,13.001866 10.941035,13.001984 10.940733,12.98077 10.941995,12.712178 11.095308,12.711809 11.232494,12.711809" style="fill: white" /><polygon type="contour" points="11.232457,12.235198 11.232576,12.406282 10.939955,12.406282 10.940187,12.284998 10.939869,12.138811 11.037493,12.138737 11.23256,12.138737" style="fill: white" /><polygon type="contour" points="11.638415,12.138811 11.778859,12.138811 11.778521,12.235198 11.778521,12.406324 11.70392,12.406324 11.571276,12.405908 11.57132,12.235198 11.571603,12.138737" style="fill: white" /><polygon type="contour" points="11.778859,11.638417 11.778859,11.778861 11.709078,11.778806 11.571603,11.778806 11.571603,11.709081 11.571648,11.571649 11.663657,11.571649 11.778804,11.571605" style="fill: white" /><polygon type="contour" points="11.232694,11.663658 11.23256,11.778806 11.139145,11.778861 10.939869,11.778861 10.940036,11.660429 10.939859,11.571649 11.232694,11.571649" style="fill: white" /><polygon type="contour" points="11.23255,10.94185 11.23255,11.232552 10.941848,11.232552 10.941183,11.128787 10.942841,11.095418 10.947738,10.94774 11.047088,10.949309 11.095416,10.942844 11.128785,10.941185" style="fill: white" /><polygon type="contour" points="11.660429,10.940037 11.778859,10.939871 11.778804,11.037495 11.778804,11.232562 11.709078,11.232562 11.571648,11.232696 11.571648,10.93986" style="fill: white" /><polygon type="contour" points="12.284997,10.940189 12.406282,10.939958 12.406282,11.088793 12.406281,11.232578 12.280587,11.232728 12.138735,11.232562 12.13881,11.139145 12.13881,10.939871" style="fill: white" /><polygon type="contour" points="13.001988,10.941034 13.001773,10.959701 13.003281,11.232694 12.991609,11.232694 12.764593,11.232634 12.711808,11.232495 12.712177,11.079181 12.712178,10.941997 12.98077,10.940735" style="fill: white" /><polygon type="contour" points="12.763058,11.571649 12.82727,11.571649 12.827408,11.66043 12.826957,11.778861 12.784409,11.778523 12.710494,11.778523 12.710494,11.703922 12.710617,11.571278" style="fill: white" /><polygon type="contour" points="12.405906,11.668619 12.406323,11.778523 12.320056,11.778861 12.13881,11.778861 12.138735,11.70908 12.138735,11.571605 12.235198,11.571322 12.405906,11.571278" style="fill: white" /><polygon type="contour" points="12.235198,12.139176 12.406323,12.139176 12.406323,12.235198 12.406281,12.406282 12.274276,12.406282 12.139175,12.406324 12.13881,12.320057 12.13881,12.138811" style="fill: white" /><polygon type="contour" points="12.406191,12.710588 12.406191,12.766052 12.406281,12.827213 12.235198,12.826752 12.184021,12.827 12.13881,12.82696 12.139175,12.784411 12.139175,12.710495 12.235197,12.710495" style="fill: white" /><polygon type="contour" points="12.82754,12.284998 12.827211,12.406282 12.766051,12.406192 12.710587,12.406192 12.710587,12.280409 12.710494,12.139176 12.74867,12.138811 12.826957,12.138811" style="fill: white" /><polygon type="contour" points="13.006196,12.828079 13.012369,13.012371 13.007816,13.012868 12.996975,13.01214 12.98633,13.011695 12.711993,13.003486 12.711993,12.957859 12.712177,12.850354 12.71201,12.712012 12.751003,12.711621 13.001928,12.710828" style="fill: white" />
</svg>
