<svg width="19.131698" height="19.131699">
<polygon type="contour" points="4.828126,16.833499 4.83735,17.043112 4.728035,17.042788 4.704157,17.042794 4.581743,17.042778 4.581523,17.093251 4.581506,17.094228 4.581439,17.138162 4.449205,17.138162 4.248713,17.13769 4.248867,17.094392 4.248669,17.048401 4.248912,17.014457 4.248649,17.000161 4.248433,16.947818 4.248433,16.896758 4.248813,16.80509 4.780606,16.804784 4.829274,16.804784" style="fill: white" /><polygon type="contour" points="4.819551,15.988947 4.826634,16.280772 4.778234,16.280737 4.248555,16.280444 4.248343,16.16771 4.248563,15.94816 4.773813,15.947402 4.820811,15.947377" style="fill: white" /><polygon type="contour" points="4.828784,15.490458 4.822124,15.671263 4.774451,15.6712 4.248563,15.671584 4.248563,15.634645 4.248433,15.475972 4.784053,15.475956 4.828071,15.475956" style="fill: white" /><polygon type="contour" points="3.655729,15.475972 3.655729,15.531605 3.655985,15.671584 3.62331,15.671729 3.459973,15.671729 3.460118,15.634645 3.460118,15.475717 3.497056,15.475717" style="fill: white" /><polygon type="contour" points="3.183542,15.475718 3.183745,15.508392 3.183745,15.671729 3.114224,15.671679 2.851088,15.671679 2.851088,15.63079 2.851106,15.475907 3.114224,15.47568" style="fill: white" /><polygon type="contour" points="3.183588,16.017478 3.183588,16.280612 3.114224,16.280612 2.851258,16.280444 2.851258,16.158348 2.851088,15.948114 3.114223,15.948114 3.183745,15.947957" style="fill: white" /><polygon type="contour" points="3.497055,15.94816 3.655985,15.94816 3.655877,16.017477 3.655577,16.280596 3.59495,16.280596 3.460023,16.280612 3.460023,16.017477 3.459973,15.947957" style="fill: white" /><polygon type="contour" points="3.59495,16.80481 3.655577,16.80481 3.655729,16.845445 3.655729,16.947566 3.605804,16.947426 3.459973,16.947342 3.460023,16.917679 3.460023,16.80467" style="fill: white" /><polygon type="contour" points="3.183745,16.828339 3.183745,16.947342 2.95319,16.947496 2.851258,16.947706 2.851258,16.804902 2.973353,16.804902 3.183588,16.80467" style="fill: white" /><polygon type="contour" points="2.037309,16.804654 2.08077,16.804654 2.082238,16.80459 2.11543,16.80462 2.129573,16.80464 2.183997,16.804904 2.326798,16.804904 2.326798,16.947706 2.327063,17.002129 2.327082,17.016269 2.327112,17.049464 2.327049,17.094392 2.327228,17.096499 2.327274,17.137628 2.136271,17.138072 2.135429,17.138215 1.993634,17.138068 1.993634,17.105407 1.994103,16.895646 1.994013,16.804488" style="fill: white" /><polygon type="contour" points="2.214022,15.948114 2.327032,15.948114 2.326798,16.158347 2.326798,16.280444 2.183998,16.280444 2.184207,16.17851 2.18436,15.947957" style="fill: white" /><polygon type="contour" points="2.326892,15.536749 2.327032,15.671679 2.303361,15.671729 2.18436,15.671729 2.184263,15.634645 2.184131,15.475973 2.228419,15.475907 2.326892,15.475907" style="fill: white" /><polygon type="contour" points="2.326853,14.293543 2.326853,14.337497 2.326611,14.88289 2.27949,14.882891 2.183883,14.883269 2.131542,14.883053 2.117244,14.88279 2.083299,14.883034 2.080771,14.882835 2.037308,14.882835 2.035202,14.882974 1.994013,14.882989 1.993541,14.682495 1.993541,14.550261 2.038451,14.550179 2.08892,14.549958 2.088906,14.427543 2.088916,14.403665 2.088588,14.294353 2.10845,14.293084" style="fill: white" /><polygon type="contour" points="3.153205,14.316806 3.183654,14.315926 3.183568,14.35867 3.183542,14.883138 2.963989,14.883358 2.851258,14.883147 2.851938,14.358195 2.851938,14.307537" style="fill: white" /><polygon type="contour" points="3.655747,14.34765 3.655729,14.883268 3.600095,14.883268 3.460118,14.883138 3.460503,14.357252 3.46044,14.30958 3.478271,14.310254 3.655747,14.303632" style="fill: white" /><polygon type="contour" points="4.322953,14.308125 4.714644,14.314976 4.720188,14.411584 4.816688,14.416961 4.833758,14.816518 4.836516,14.883411 4.796123,14.883411 4.248433,14.883269 4.248642,14.350993 4.248642,14.305778" style="fill: white" /><polygon type="contour" points="4.581523,2.038452 4.581743,2.088922 4.704156,2.088908 4.728037,2.088916 4.83735,2.088589 4.83862,2.108451 4.829274,2.32692 4.780606,2.32692 4.248813,2.326613 4.248813,2.279492 4.248433,2.183884 4.248649,2.131543 4.248913,2.117245 4.248669,2.083301 4.248867,2.080772 4.248867,2.037311 4.248727,2.035204 4.248713,1.994015 4.449205,1.993543 4.581439,1.993543" style="fill: white" /><polygon type="contour" points="2.326611,4.248814 2.326853,4.794208 2.326853,4.838162 2.315035,4.841001 2.08855,4.818042 2.088546,4.816671 2.08892,4.581745 2.038451,4.581525 2.037475,4.581508 1.993541,4.581442 1.993541,4.449207 1.994013,4.248715 2.037308,4.24887 2.0833,4.24867 2.117244,4.248914 2.131541,4.248652 2.183883,4.248435 2.234944,4.248435" style="fill: white" /><polygon type="contour" points="2.214022,3.460025 2.327032,3.460025 2.327032,3.500766 2.326892,3.655578 2.286255,3.65573 2.184132,3.65573 2.184272,3.605806 2.18436,3.459975" style="fill: white" /><polygon type="contour" points="2.326798,2.973355 2.327032,3.18359 2.303362,3.183747 2.18436,3.183747 2.184207,2.953192 2.183998,2.85126 2.236434,2.85126 2.326798,2.851259" style="fill: white" /><polygon type="contour" points="2.13627,1.993632 2.327274,1.994075 2.327049,2.037311 2.327049,2.080773 2.327112,2.082239 2.327081,2.115433 2.327063,2.129574 2.326798,2.184 2.326798,2.326799 2.183998,2.326799 2.129572,2.327064 2.11543,2.327084 2.082237,2.327114 2.037309,2.32705 2.035202,2.327229 1.994013,2.327216 1.994103,2.236059 1.993634,2.026294 1.993634,1.993635 2.135428,1.993487" style="fill: white" /><polygon type="contour" points="2.95319,2.184208 3.183745,2.184361 3.183588,2.214023 3.183588,2.327033 2.973354,2.326799 2.851258,2.326799 2.851258,2.183999" style="fill: white" /><polygon type="contour" points="3.655577,2.228421 3.655577,2.326894 3.594949,2.326894 3.460023,2.327033 3.459973,2.303362 3.459973,2.184361 3.605804,2.184274 3.655729,2.184134" style="fill: white" /><polygon type="contour" points="3.655576,2.851108 3.655877,3.114226 3.655985,3.183544 3.623309,3.183747 3.459973,3.183747 3.460023,3.114226 3.460023,2.851089 3.500766,2.851089" style="fill: white" /><polygon type="contour" points="3.183588,3.114225 3.183745,3.183747 3.114223,3.18359 2.851088,3.18359 2.851088,3.114225 2.851258,2.85126 3.08039,2.851107 3.114223,2.851089 3.183588,2.851089" style="fill: white" /><polygon type="contour" points="3.497056,3.46012 3.655985,3.46012 3.655985,3.497057 3.655729,3.65573 3.600095,3.65573 3.460117,3.655986 3.459973,3.623312 3.459973,3.459975" style="fill: white" /><polygon type="contour" points="3.183542,3.497057 3.183542,3.655986 3.114224,3.655878 2.851106,3.655578 2.851088,3.500767 2.851088,3.460025 3.114224,3.460025 3.183745,3.459975" style="fill: white" /><polygon type="contour" points="3.183542,4.248565 3.183745,4.334514 3.183654,4.815777 3.153206,4.814896 2.851938,4.824167 2.851938,4.773508 2.851258,4.248557 2.963989,4.248345" style="fill: white" /><polygon type="contour" points="3.655747,4.784054 3.655747,4.828073 3.641244,4.828786 3.46044,4.822125 3.460503,4.774452 3.460118,4.248565 3.600095,4.248435 3.655729,4.248435" style="fill: white" /><polygon type="contour" points="4.833758,4.315185 4.816726,4.714646 4.720185,4.720187 4.714644,4.816727 4.322953,4.823577 4.248642,4.825924 4.248642,4.780709 4.248433,4.248435 4.796124,4.248294 4.836516,4.248294" style="fill: white" /><polygon type="contour" points="4.774451,3.460505 4.822124,3.460442 4.821449,3.478272 4.828071,3.655748 4.784052,3.655748 4.248433,3.65573 4.248433,3.600096 4.248563,3.46012" style="fill: white" /><polygon type="contour" points="4.828076,2.879084 4.820811,3.184327 4.773813,3.184301 4.248563,3.183543 4.248678,3.114225 4.248555,2.85126 4.778234,2.850966 4.826634,2.850932" style="fill: white" /><polygon type="contour" points="17.138066,1.993635 17.138066,2.026295 17.137596,2.236058 17.137688,2.327216 17.094389,2.327051 17.050929,2.327051 17.049461,2.327114 17.016267,2.327084 17.002128,2.327064 16.947704,2.326799 16.804904,2.326799 16.804904,2.281618 16.8049,2.183999 16.804638,2.129575 16.804618,2.115432 16.804588,2.082238 16.804652,2.037311 16.804472,2.035204 16.804426,1.994075 16.995429,1.993632 16.996269,1.993487" style="fill: white" /><polygon type="contour" points="16.947494,2.953192 16.94734,3.183747 16.917676,3.18359 16.804668,3.18359 16.8049,2.973355 16.804902,2.85126 16.947704,2.85126" style="fill: white" /><polygon type="contour" points="16.947436,3.497058 16.947564,3.65573 16.903277,3.655578 16.804806,3.655578 16.804806,3.594951 16.804668,3.460025 16.828338,3.459975 16.94734,3.459975" style="fill: white" /><polygon type="contour" points="17.000157,4.248651 17.014454,4.248914 17.0484,4.24867 17.05093,4.248869 17.09439,4.248869 17.096497,4.248729 17.137688,4.248715 17.13816,4.449207 17.13816,4.581442 17.093248,4.581525 17.042774,4.581745 17.043156,4.816672 17.04315,4.818042 16.81667,4.841001 16.80485,4.838162 16.80485,4.794208 16.805086,4.248814 16.852208,4.248814 16.947814,4.248435" style="fill: white" /><polygon type="contour" points="16.280442,4.248557 16.279761,4.773507 16.279761,4.824167 15.978492,4.814896 15.948045,4.815777 15.948132,4.773031 15.948158,4.248565 16.167711,4.248345" style="fill: white" /><polygon type="contour" points="15.671583,4.248565 15.671197,4.774452 15.67126,4.822124 15.653429,4.821449 15.475953,4.828073 15.475953,4.784054 15.475971,4.248435 15.531605,4.248435" style="fill: white" /><polygon type="contour" points="14.353467,2.850966 14.883145,2.85126 14.883356,2.963991 14.883135,3.183543 14.357884,3.184301 14.310888,3.184327 14.312148,3.142755 14.305068,2.850932" style="fill: white" /><polygon type="contour" points="14.882988,1.994015 14.882834,2.037311 14.883032,2.083301 14.882787,2.117245 14.88305,2.131543 14.883267,2.183884 14.883267,2.234945 14.882888,2.326612 14.351093,2.32692 14.302426,2.32692 14.29966,2.313795 14.313577,2.088808 14.314985,2.088773 14.549957,2.088922 14.550178,2.038453 14.550195,2.037477 14.55026,1.993543 14.682495,1.993543" style="fill: white" /><polygon type="contour" points="15.525894,2.184274 15.671728,2.184361 15.671678,2.214023 15.671678,2.327033 15.536749,2.326894 15.475906,2.326894 15.475971,2.286256 15.475971,2.184134" style="fill: white" /><polygon type="contour" points="16.280443,2.236435 16.280443,2.326799 16.158345,2.326799 15.948112,2.327033 15.947956,2.303363 15.947956,2.184361 16.178509,2.184208 16.280442,2.183999" style="fill: white" /><polygon type="contour" points="16.280443,2.85126 16.280442,2.973355 16.280612,3.18359 16.017477,3.18359 15.947956,3.183747 15.948112,3.114226 15.948112,2.851089 16.017477,2.851089" style="fill: white" /><polygon type="contour" points="15.671678,3.114226 15.671728,3.183747 15.634644,3.183544 15.475716,3.183544 15.475679,3.114225 15.475906,2.851108 15.536748,2.851108 15.671678,2.851089" style="fill: white" /><polygon type="contour" points="16.017476,3.460025 16.280612,3.460025 16.280612,3.500767 16.280593,3.655578 16.017477,3.655877 15.948159,3.655986 15.947956,3.623311 15.947956,3.459975" style="fill: white" /><polygon type="contour" points="15.671583,3.497057 15.671583,3.655986 15.634645,3.655986 15.475971,3.65573 15.475971,3.600096 15.475716,3.46012 15.508389,3.459975 15.671727,3.459975" style="fill: white" /><polygon type="contour" points="14.883136,3.497058 14.883268,3.65573 14.347647,3.655748 14.303629,3.655748 14.302916,3.641245 14.309576,3.460442 14.357249,3.460505 14.883136,3.46012" style="fill: white" /><polygon type="contour" points="14.883267,4.248435 14.883056,4.78071 14.883056,4.825924 14.808745,4.823577 14.417055,4.816727 14.411511,4.720119 14.315011,4.714741 14.297943,4.315185 14.295186,4.248294 14.335577,4.248294" style="fill: white" /><polygon type="contour" points="14.883056,14.350992 14.883267,14.883269 14.335578,14.883411 14.295186,14.883411 14.297942,14.816519 14.314974,14.417058 14.411515,14.411515 14.417055,14.314976 14.808745,14.308125 14.883056,14.305778" style="fill: white" /><polygon type="contour" points="15.67126,14.30958 15.671197,14.357252 15.671583,14.883138 15.531605,14.883268 15.475971,14.883268 15.475953,14.34765 15.475953,14.303632 15.490455,14.302919" style="fill: white" /><polygon type="contour" points="16.830856,14.29482 17.043112,14.294354 17.042784,14.403664 17.042792,14.427544 17.042776,14.549958 17.093248,14.550179 17.094223,14.550196 17.13816,14.550261 17.13816,14.682495 17.137688,14.882989 17.09439,14.882835 17.0484,14.883034 17.014453,14.88279 17.000158,14.883052 16.947813,14.883269 16.896754,14.883269 16.805086,14.882891 16.80485,14.337497 16.80485,14.293543" style="fill: white" /><polygon type="contour" points="16.279761,14.358196 16.280442,14.883147 16.167711,14.883358 15.948159,14.883138 15.947956,14.797186 15.948045,14.315926 15.978493,14.316806 16.279761,14.307537" style="fill: white" /><polygon type="contour" points="16.158347,16.804902 16.280442,16.804902 16.280442,16.947706 16.178509,16.947496 15.947956,16.947342 15.948113,16.917679 15.948113,16.80467" style="fill: white" /><polygon type="contour" points="15.671728,16.82834 15.671728,16.947342 15.525894,16.947426 15.475971,16.947566 15.475906,16.90328 15.475906,16.80481 15.536748,16.80481 15.671678,16.80467" style="fill: white" /><polygon type="contour" points="14.882888,16.80509 14.882888,16.852212 14.883267,16.947818 14.88305,17.000161 14.882788,17.014457 14.883032,17.048402 14.882834,17.050932 14.882834,17.094392 14.882972,17.096499 14.882987,17.13769 14.682495,17.138162 14.55026,17.138162 14.550178,17.093252 14.549957,17.042778 14.314985,17.04293 14.313576,17.042896 14.29966,16.81791 14.302426,16.804784 14.351093,16.804784" style="fill: white" /><polygon type="contour" points="14.357885,15.947402 14.883136,15.94816 14.883021,16.017478 14.883145,16.280444 14.353466,16.280737 14.305066,16.280772 14.303624,16.252619 14.310888,15.947377" style="fill: white" /><polygon type="contour" points="14.883268,15.475972 14.883268,15.531605 14.883136,15.671584 14.357249,15.6712 14.309577,15.671263 14.310252,15.653432 14.303629,15.475956 14.347646,15.475956" style="fill: white" /><polygon type="contour" points="15.671728,15.508391 15.671728,15.671729 15.634644,15.671584 15.475716,15.671584 15.475716,15.634645 15.47597,15.475972 15.531605,15.475972 15.671583,15.475717" style="fill: white" /><polygon type="contour" points="15.671678,16.017477 15.671678,16.280612 15.630788,16.280612 15.475906,16.280596 15.475679,16.017477 15.475716,15.94816 15.50839,15.947957 15.671728,15.947957" style="fill: white" /><polygon type="contour" points="16.017477,15.948114 16.280612,15.948114 16.280612,16.017478 16.280442,16.280444 16.051309,16.280596 16.017476,16.280612 15.948113,16.280612 15.948113,16.017478 15.947956,15.947957" style="fill: white" /><polygon type="contour" points="16.280593,15.475907 16.280612,15.63079 16.280612,15.671679 16.017476,15.671679 15.947956,15.671729 15.948159,15.634646 15.948159,15.475717 16.017476,15.47568" style="fill: white" /><polygon type="contour" points="16.845441,15.475972 16.947564,15.475972 16.947424,15.525895 16.94734,15.671729 16.917675,15.671679 16.804668,15.671679 16.804668,15.63079 16.804805,15.475907" style="fill: white" /><polygon type="contour" points="16.947494,16.178509 16.947704,16.280444 16.8049,16.280444 16.8049,16.158348 16.804668,15.948114 16.828337,15.947957 16.94734,15.947957" style="fill: white" /><polygon type="contour" points="17.137688,16.804488 17.137596,16.895646 17.138066,17.105407 17.138066,17.138068 16.996269,17.138216 16.99543,17.138072 16.804426,17.137628 16.80465,17.094392 16.80465,17.050932 16.804588,17.049463 16.804618,17.016269 16.804638,17.00213 16.8049,16.947706 16.8049,16.804904 16.947704,16.804904 17.002128,16.804639 17.016267,16.80462 17.049462,16.80459 17.09439,16.804654 17.096498,16.804474" style="fill: white" />
</svg>
