<svg width="19.131698" height="19.131699">
<polygon type="contour" points="10.835172,8.220368 10.912731,8.218971 10.911895,8.247603 10.91123,8.308575 10.911037,8.350739 10.911499,8.492846 10.638855,8.492846 10.638855,8.4217 10.639834,8.298418 10.640223,8.290224 10.640223,8.254452 10.640547,8.217847" style="fill: white" /><polygon type="contour" points="10.461786,8.387211 10.527346,8.387201 10.527346,8.4582 10.528558,8.493075 10.458355,8.493075 10.422991,8.493135 10.422874,8.433541 10.422874,8.387166" style="fill: white" /><polygon type="contour" points="10.673499,8.604125 10.744501,8.604125 10.74454,8.64495 10.744536,8.708827 10.679921,8.708712 10.638567,8.708712 10.638567,8.64495 10.638626,8.603143" style="fill: white" /><polygon type="contour" points="10.527372,8.639242 10.527562,8.64495 10.527562,8.708711 10.468637,8.708827 10.422874,8.708827 10.422991,8.644951 10.422991,8.60414 10.48675,8.60414 10.527346,8.604125" style="fill: white" /><polygon type="contour" points="9.154756,9.116336 9.154892,9.154894 9.090769,9.154894 9.057734,9.154759 9.057925,9.10003 9.057925,9.057927 9.116334,9.057736 9.154756,9.057736" style="fill: white" /><polygon type="contour" points="9.154892,9.27114 9.154892,9.860565 9.090769,9.860565 9.057734,9.860568 9.057734,9.271136 9.116334,9.271136" style="fill: white" /><polygon type="contour" points="8.350005,9.270695 8.492809,9.270911 8.492845,9.4449 8.492845,9.864243 8.350005,9.86335 8.219828,9.861085 8.219666,9.760088 8.218294,9.575195 8.218294,9.565743 8.219667,9.38131 8.219667,9.371615 8.219828,9.27062" style="fill: white" /><polygon type="contour" points="8.493134,9.119947 8.493069,9.157878 8.423287,9.154894 8.387005,9.154894 8.387043,9.116336 8.387164,9.057926 8.451777,9.057899 8.493134,9.057899" style="fill: white" /><polygon type="contour" points="8.66306,9.057927 8.708825,9.057927 8.708664,9.116336 8.708664,9.154759 8.644949,9.157495 8.604095,9.157878 8.604095,9.090128 8.604138,9.057899" style="fill: white" /><polygon type="contour" points="8.493074,8.673345 8.493134,8.708712 8.433539,8.708827 8.387164,8.708827 8.387209,8.669651 8.387199,8.604125 8.421926,8.603143 8.493074,8.603143" style="fill: white" /><polygon type="contour" points="8.491267,8.247135 8.491477,8.254453 8.491866,8.298418 8.491866,8.348911 8.492845,8.492846 8.220085,8.492846 8.220663,8.350739 8.22047,8.308575 8.219806,8.247604 8.218969,8.218971 8.296527,8.220368 8.491153,8.217847" style="fill: white" /><polygon type="contour" points="8.708825,8.387166 8.70871,8.451778 8.70871,8.493135 8.644949,8.493135 8.603142,8.493075 8.603142,8.421928 8.604124,8.387201 8.64495,8.387162" style="fill: white" /><polygon type="contour" points="8.70871,8.60414 8.708825,8.663062 8.708825,8.708827 8.644949,8.708712 8.604138,8.708712 8.604138,8.644951 8.604124,8.604125 8.674182,8.604125" style="fill: white" /><polygon type="contour" points="9.157493,8.64495 9.154756,8.708666 9.100027,8.708827 9.057925,8.708827 9.057897,8.64495 9.057897,8.60414 9.119945,8.60414 9.157876,8.604096" style="fill: white" /><polygon type="contour" points="9.157876,8.457689 9.157876,8.49307 9.090125,8.49307 9.057897,8.493135 9.057925,8.433541 9.057925,8.387166 9.094476,8.387137 9.154892,8.387008" style="fill: white" /><polygon type="contour" points="9.750393,8.219668 9.760086,8.219668 9.861082,8.21983 9.861226,8.255651 9.861083,8.297835 9.863348,8.350008 9.864241,8.492846 9.738573,8.492721 9.27094,8.492721 9.270825,8.41399 9.270618,8.297836 9.270475,8.255651 9.270618,8.21983 9.371614,8.219667 9.556504,8.218296 9.565956,8.218296" style="fill: white" /><polygon type="contour" points="10.015366,8.387044 10.073776,8.387166 10.073802,8.451778 10.073802,8.493135 10.01475,8.493135 9.977094,8.49307 9.976809,8.42329 9.976809,8.387008" style="fill: white" /><polygon type="contour" points="10.014749,8.60414 10.073802,8.60414 10.073776,8.663062 10.073776,8.708827 10.015366,8.708666 9.976945,8.708666 9.977204,8.64495 9.977095,8.604096" style="fill: white" /><polygon type="contour" points="9.860516,8.673247 9.860567,8.708666 9.271134,8.708666 9.271184,8.673246 9.271277,8.604125 9.863715,8.604125" style="fill: white" /><polygon type="contour" points="9.860564,9.090771 9.860564,9.154894 9.271137,9.154894 9.271137,9.090771 9.271134,9.057736 9.860567,9.057736" style="fill: white" /><polygon type="contour" points="10.031673,9.057927 10.073776,9.057927 10.073966,9.116336 10.073966,9.154759 10.015366,9.154759 9.976809,9.154894 9.976809,9.090772 9.976945,9.057736" style="fill: white" /><polygon type="contour" points="10.486749,9.271221 10.527346,9.271278 10.527346,9.860424 10.458219,9.860517 10.423037,9.860567 10.423037,9.271136" style="fill: white" /><polygon type="contour" points="10.527562,9.119947 10.527372,9.157878 10.48675,9.157495 10.423037,9.154759 10.422874,9.100029 10.422874,9.057927 10.48675,9.057899 10.527562,9.057899" style="fill: white" /><polygon type="contour" points="10.698161,9.057927 10.744536,9.057927 10.744564,9.094478 10.744694,9.154894 10.67401,9.157878 10.638631,9.157878 10.638631,9.090127 10.638567,9.057899" style="fill: white" /><polygon type="contour" points="10.912033,9.371615 10.913406,9.556508 10.913406,9.566201 10.912033,9.750637 10.912033,9.760088 10.911872,9.861084 10.781693,9.861008 10.638891,9.860794 10.638891,9.270911 10.781694,9.270695 10.911872,9.27062" style="fill: white" /><polygon type="contour" points="10.911036,10.780964 10.91123,10.823128 10.911895,10.8841 10.912731,10.912733 10.835172,10.911336 10.640547,10.913858 10.640433,10.884567 10.640222,10.87725 10.639834,10.833285 10.639834,10.782792 10.638855,10.638858 10.911613,10.638858" style="fill: white" /><polygon type="contour" points="10.527346,10.638573 10.527346,10.744503 10.48675,10.744542 10.422874,10.744538 10.422991,10.679925 10.422991,10.638569 10.486749,10.638569" style="fill: white" /><polygon type="contour" points="10.486749,10.422993 10.527562,10.422993 10.527562,10.486753 10.527346,10.527348 10.457287,10.527348 10.42299,10.527565 10.422874,10.46864 10.422874,10.422876" style="fill: white" /><polygon type="contour" points="10.744491,10.461787 10.744501,10.527348 10.63857,10.527348 10.63857,10.45729 10.638567,10.422993 10.698161,10.422876 10.744536,10.422876" style="fill: white" /><polygon type="contour" points="10.708412,9.97681 10.744694,9.97681 10.744658,10.015367 10.744536,10.073777 10.679922,10.073804 10.638567,10.073804 10.638567,10.011756 10.638631,9.973826" style="fill: white" /><polygon type="contour" points="10.527372,10.041573 10.527562,10.073804 10.468638,10.073777 10.422874,10.073777 10.423037,10.015367 10.423037,9.976946 10.48675,9.974209 10.527372,9.973825" style="fill: white" /><polygon type="contour" points="10.073966,9.976946 10.073776,10.031675 10.073776,10.073776 10.015365,10.073968 9.976945,10.073968 9.976945,10.015367 9.976809,9.97681 10.040929,9.97681" style="fill: white" /><polygon type="contour" points="10.073966,9.860568 10.015366,9.860568 9.976809,9.860565 9.976809,9.27114 10.04093,9.27114 10.073966,9.271136" style="fill: white" /><polygon type="contour" points="9.860886,9.860887 9.270815,9.860887 9.270815,9.270818 9.860886,9.270818" style="fill: white" /><polygon type="contour" points="9.860564,10.040932 9.860567,10.073968 9.271134,10.073968 9.271137,10.040932 9.271137,9.97681 9.860564,9.97681" style="fill: white" /><polygon type="contour" points="9.860516,10.458221 9.860423,10.527348 9.271277,10.527348 9.271184,10.458221 9.271134,10.423039 9.860567,10.423039" style="fill: white" /><polygon type="contour" points="10.073802,10.486752 10.073802,10.527565 10.011753,10.527565 9.973823,10.527374 9.974207,10.486752 9.976944,10.423039 10.031674,10.422876 10.073775,10.422876" style="fill: white" /><polygon type="contour" points="10.073776,10.698162 10.073776,10.744538 10.037224,10.744566 9.976809,10.744696 9.973824,10.674014 9.973824,10.638634 10.041572,10.638634 10.073802,10.638569" style="fill: white" /><polygon type="contour" points="9.860912,10.722815 9.861083,10.833867 9.861226,10.876052 9.861082,10.911874 9.760086,10.912035 9.575195,10.913408 9.565501,10.913408 9.381065,10.912035 9.371614,10.912035 9.270618,10.911874 9.270475,10.876052 9.270617,10.833868 9.270694,10.781695 9.27091,10.638919 9.860791,10.638919" style="fill: white" /><polygon type="contour" points="9.157876,10.638634 9.154892,10.708414 9.154892,10.744696 9.116334,10.74466 9.057925,10.744538 9.057897,10.679925 9.057897,10.638569 9.119945,10.638569" style="fill: white" /><polygon type="contour" points="9.116334,10.423039 9.154756,10.423039 9.157493,10.486752 9.157876,10.527374 9.119946,10.527565 9.057897,10.527565 9.057925,10.468639 9.057925,10.422876" style="fill: white" /><polygon type="contour" points="9.154892,10.040931 9.154756,10.073968 9.100027,10.073777 9.057925,10.073777 9.057734,10.015367 9.057734,9.976946 9.116334,9.976946 9.154892,9.97681" style="fill: white" /><polygon type="contour" points="8.708664,9.860568 8.644949,9.863479 8.604124,9.863717 8.604124,9.271278 8.673244,9.271186 8.708664,9.271136" style="fill: white" /><polygon type="contour" points="8.708825,10.031674 8.708825,10.073777 8.64495,10.073804 8.604138,10.073804 8.604138,10.014751 8.604095,9.977097 8.644949,9.977206 8.708664,9.976946" style="fill: white" /><polygon type="contour" points="8.457688,9.977097 8.493069,9.977097 8.493069,10.041574 8.493134,10.073804 8.433538,10.073777 8.387164,10.073777 8.387137,10.037225 8.387006,9.97681" style="fill: white" /><polygon type="contour" points="8.451777,10.422993 8.493134,10.422993 8.493134,10.486752 8.49313,10.527348 8.387199,10.527348 8.38716,10.486752 8.387164,10.422876" style="fill: white" /><polygon type="contour" points="8.70871,10.486752 8.70871,10.527565 8.644949,10.527565 8.604124,10.527348 8.604095,10.492461 8.604138,10.486752 8.604138,10.422993 8.663059,10.422876 8.708825,10.422876" style="fill: white" /><polygon type="contour" points="8.708825,10.698162 8.708825,10.744538 8.669649,10.744493 8.604124,10.744503 8.604124,10.638573 8.674181,10.638573 8.70871,10.638569" style="fill: white" /><polygon type="contour" points="8.492845,10.710005 8.491866,10.833284 8.491477,10.841479 8.491477,10.877251 8.491153,10.913858 8.296527,10.911336 8.218969,10.912733 8.219806,10.884099 8.22047,10.823128 8.220663,10.780964 8.220198,10.638858 8.492845,10.638858" style="fill: white" />
</svg>
