<svg width="19.131698" height="19.131699">
<polygon type="contour" points="14.6846,7.001002 14.851885,7.001002 15.027825,7.001001 15.027774,7.036582 15.027774,7.041121 15.028003,7.118602 15.028003,7.261802 15.02798,7.261802 15.028012,7.347977 15.027825,7.438905 14.851886,7.439302 14.7679,7.438527 14.7679,7.439302 14.598424,7.439302 14.507498,7.438905 14.507644,7.347977 14.507644,7.092326 14.507498,7.001001 14.5586,7.001001" style="fill: white" /><polygon type="contour" points="14.558807,6.709198 14.6846,6.709477 14.6846,6.709345 14.7679,6.709345 14.7679,6.709892 14.851667,6.709345 15.027717,6.709301 15.027966,6.763342 15.028084,6.793023 14.916986,6.792957 14.7679,6.792696 14.7679,6.792801 14.507498,6.792801 14.507498,6.709197" style="fill: white" /><polygon type="contour" points="13.360902,6.501068 13.277598,6.501068 13.277598,6.062697 13.360902,6.062697" style="fill: white" /><polygon type="contour" points="4.239468,3.913507 4.246722,3.913524 4.246631,3.93104 4.24669,3.942615 4.24669,4.103912 4.345852,4.103584 4.506886,4.103584 4.583779,4.103688 4.624203,4.103875 4.624056,4.279815 4.623512,4.363802 4.624056,4.363802 4.624056,4.533277 4.624203,4.624205 4.573099,4.624205 4.4471,4.623924 4.4471,4.624058 4.363801,4.624058 4.363801,4.623514 4.279814,4.624058 4.103874,4.624205 4.103685,4.583781 4.103583,4.506888 4.103583,4.363802 4.103695,4.363802 4.103746,4.246623 3.977258,4.246598 3.913374,4.246576 3.913594,4.024047 3.913513,3.988149 3.913513,3.913515 4.237544,3.913177" style="fill: white" /><polygon type="contour" points="4.10359,8.611066 4.103764,8.586201 4.105024,8.586201" style="fill: white" /><polygon type="contour" points="9.315603,13.569499 9.315603,13.6206 9.315999,13.686702 9.315999,13.916076 9.315603,14.007403 9.2645,14.007403 9.138499,14.007401 9.138499,14.007402 8.968868,14.007402 8.877395,14.007403 8.877395,13.956298 8.877676,13.8299 8.877543,13.8299 8.877543,13.660426 8.877395,13.569499 8.968868,13.569103 9.224674,13.569103" style="fill: white" /><polygon type="contour" points="9.315603,13.360903 8.877395,13.360903 8.877395,13.2776 9.315603,13.2776" style="fill: white" /><polygon type="contour" points="9.607499,13.360903 9.524199,13.360903 9.524199,13.2776 9.607499,13.2776" style="fill: white" /><polygon type="contour" points="9.907024,12.80751 9.933414,12.807504 9.933414,12.807686 10.059613,12.807542 10.062975,12.807618 10.103936,12.807618 10.162832,12.807823 10.254304,12.807951 10.254599,12.943136 10.254599,12.968626 10.254304,13.069006 10.162832,13.069401 9.907024,13.069401 9.816095,13.069006 9.816095,13.017903 9.815801,12.968627 9.816095,12.907486 9.816095,12.807343" style="fill: white" /><polygon type="contour" points="9.588773,12.80688 9.607499,12.80688 9.607499,13.069006 9.524199,13.069006 9.524199,12.80688 9.53246,12.806186 9.566199,12.806186" style="fill: white" /><polygon type="contour" points="9.315899,12.943136 9.315899,12.968626 9.315603,13.069006 9.2645,13.069006 9.1984,13.069401 8.968867,13.069401 8.877395,13.069006 8.877395,13.017903 8.877102,12.968627 8.877395,12.908094 8.877395,12.807951 8.968868,12.807823 9.014183,12.807665 9.12115,12.807542 9.124972,12.807618 9.198286,12.807618 9.198285,12.807504 9.224674,12.80751 9.315603,12.807343" style="fill: white" /><polygon type="contour" points="8.668799,13.069006 8.5862,13.069006 8.5862,12.808943 8.645467,12.808441 8.668799,12.808441" style="fill: white" /><polygon type="contour" points="8.285405,12.809382 8.377605,12.809444 8.3779,12.943439 8.3779,12.968626 8.377605,13.069006 8.326502,13.069006 8.201899,13.068723 8.201899,13.068855 8.183798,13.068855 8.060646,13.068853 8.060646,13.068854 8.034332,13.068854 7.939395,13.069006 7.939395,13.017903 7.939102,12.968627 7.939,12.823707 7.939,12.810489 7.939616,12.810488 7.939843,12.810488 8.075586,12.809469 8.241335,12.809469 8.278231,12.809248" style="fill: white" /><polygon type="contour" points="5.854098,15.027937 5.770798,15.027937 5.770798,14.507499 5.854098,14.507499" style="fill: white" /><polygon type="contour" points="4.9161,15.027937 4.832799,15.027937 4.832799,14.507499 4.9161,14.507499" style="fill: white" /><polygon type="contour" points="3.977257,12.630405 4.103476,12.630636 4.446685,12.630636 4.446993,12.630635 4.46676,12.630819 4.507217,12.630635 4.6239,12.630635 4.6239,12.748702 4.624498,12.968626 4.624203,13.069006 4.5731,13.069006 4.4471,13.068723 4.4471,13.068858 4.363801,13.068858 4.363801,13.068314 4.279815,13.068857 4.103875,13.069005 4.103686,13.028583 4.103714,12.96374 3.977258,12.963604 3.913374,12.963627 3.913301,12.932681 3.913301,12.630498 3.969783,12.630396" style="fill: white" /><polygon type="contour" points="4.214715,12.338745 4.363801,12.339005 4.363801,12.338901 4.624203,12.338901 4.624203,12.421806 4.572893,12.421805 4.506845,12.422203 4.280034,12.422203 4.103983,12.421702 4.103733,12.368108 4.103616,12.33868" style="fill: white" /><polygon type="contour" points="4.9161,12.968627 4.916101,13.069006 4.832799,13.069006 4.832799,12.630635 4.9161,12.630635" style="fill: white" /><polygon type="contour" points="4.3039,13.569103 4.533275,13.569103 4.624203,13.569499 4.624203,13.6206 4.623922,13.746602 4.624056,13.746602 4.624056,13.916076 4.624203,14.007403 4.573099,14.007403 4.4471,14.007401 4.4471,14.007402 4.363801,14.007402 4.363801,14.007398 4.279814,14.007402 4.103874,14.007403 4.103687,13.916077 4.103583,13.889802 4.103583,13.686702 4.103687,13.660426 4.103874,13.569499 4.279815,13.569103 4.3039,13.569102" style="fill: white" /><polygon type="contour" points="4.624203,13.360903 4.103765,13.360903 4.103765,13.337372 4.103766,13.2776 4.624203,13.2776" style="fill: white" /><polygon type="contour" points="4.916101,13.30113 4.9161,13.360903 4.832799,13.360903 4.832799,13.2776 4.916101,13.2776" style="fill: white" /><polygon type="contour" points="6.500877,13.277601 6.501066,13.277601 6.501066,13.360903 6.062694,13.360903 6.062694,13.2776 6.459339,13.2776" style="fill: white" /><polygon type="contour" points="6.79302,13.360903 6.709299,13.360903 6.709299,13.2776 6.79302,13.2776" style="fill: white" /><polygon type="contour" points="6.79302,12.81238 6.79302,12.927278 6.792837,12.957245 6.79286,12.963708 6.792798,12.968627 6.792798,13.069006 6.709195,13.069006 6.709196,13.017696 6.709498,12.968627 6.709498,12.963708 6.709545,12.955638 6.7093,12.81218 6.735633,12.812152" style="fill: white" /><polygon type="contour" points="7.439199,12.943641 7.439199,12.968626 7.438904,13.069006 7.347975,13.069401 7.092324,13.069401 7.000999,13.069005 7.000999,13.017904 7.000402,12.968626 7.000999,12.909919 7.000999,12.811756 7.041119,12.81152 7.1785,12.812248 7.1785,12.811818 7.192026,12.811818 7.2618,12.811232 7.2618,12.811364 7.347974,12.81101 7.438904,12.810844" style="fill: white" /><polygon type="contour" points="7.730799,13.069006 7.6475,13.069006 7.6475,12.810345 7.730799,12.810345" style="fill: white" /><polygon type="contour" points="7.438904,13.569499 7.438904,13.6206 7.4393,13.686702 7.4393,13.916076 7.438904,14.007403 7.347974,14.007402 7.092324,14.007402 7.000999,14.007403 7.000999,13.569499 7.052102,13.569499 7.118599,13.569103 7.347975,13.569103" style="fill: white" /><polygon type="contour" points="7.438904,13.360903 7.000999,13.360903 7.000999,13.2776 7.438904,13.2776" style="fill: white" /><polygon type="contour" points="7.730799,13.360903 7.6475,13.360903 7.6475,13.2776 7.730799,13.2776" style="fill: white" /><polygon type="contour" points="8.1186,13.569773 8.1186,13.569648 8.1367,13.569648 8.259852,13.569649 8.285406,13.569649 8.377605,13.569499 8.377605,13.6206 8.37732,13.746598 8.377456,13.746601 8.377456,13.916076 8.377605,14.007403 7.939395,14.007403 7.939395,13.956298 7.939,13.889802 7.939,13.660426 7.939395,13.569499 7.992019,13.569499" style="fill: white" /><polygon type="contour" points="8.377605,13.360903 7.939395,13.360903 7.939395,13.2776 8.377605,13.2776" style="fill: white" /><polygon type="contour" points="8.668799,13.360903 8.5862,13.360903 8.5862,13.2776 8.668799,13.2776" style="fill: white" /><polygon type="contour" points="8.668799,14.007403 8.5862,14.007403 8.5862,13.569499 8.668799,13.569499" style="fill: white" /><polygon type="contour" points="7.730799,15.027938 7.707271,15.027938 7.705799,15.027832 7.6475,15.02783 7.6475,14.507499 7.730799,14.507499" style="fill: white" /><polygon type="contour" points="6.792798,14.767902 6.792569,14.767902 6.793017,14.885155 6.792953,14.916987 6.79302,15.028085 6.735632,15.027819 6.7093,15.027719 6.709141,14.94003 6.709343,14.851669 6.709887,14.767902 6.709343,14.767902 6.709343,14.684603 6.709345,14.684603 6.709342,14.598428 6.709195,14.507499 6.792798,14.507499" style="fill: white" /><polygon type="contour" points="6.382999,14.507802 6.500378,14.507804 6.501067,14.507804 6.501067,14.827804 6.501066,14.828097 6.501066,15.028226 6.501143,15.048541 6.501296,15.154443 6.5012,15.218401 6.199019,15.218401 6.168074,15.218329 6.168246,15.169771 6.168095,15.154445 6.168245,15.027999 6.062694,15.027828 6.062843,14.851886 6.06339,14.767902 6.062843,14.767902 6.062843,14.598428 6.062694,14.507499 6.113797,14.507499 6.163075,14.507203" style="fill: white" /><polygon type="contour" points="6.501066,14.298903 6.062694,14.298903 6.062694,14.215603 6.501066,14.215603" style="fill: white" /><polygon type="contour" points="6.501067,14.007403 6.500379,14.007403 6.382999,14.007402 6.163075,14.007402 6.062694,14.007403 6.062694,13.956298 6.062977,13.829902 6.062843,13.829902 6.062843,13.660426 6.062694,13.569499 6.113797,13.569499 6.163075,13.569203 6.382999,13.569328 6.500379,13.569102 6.501067,13.569102" style="fill: white" /><polygon type="contour" points="6.792798,14.007403 6.709195,14.007403 6.709196,13.956397 6.709475,13.829902 6.709343,13.829902 6.709343,13.746602 6.709345,13.746602 6.709342,13.660427 6.709195,13.569499 6.792798,13.569499" style="fill: white" /><polygon type="contour" points="6.79302,14.298903 6.709299,14.298903 6.709299,14.215603 6.79302,14.215603" style="fill: white" /><polygon type="contour" points="7.1785,14.507777 7.1785,14.507645 7.347974,14.507645 7.438904,14.507499 7.438904,14.5586 7.4393,14.624702 7.4393,14.767903 7.438525,14.767903 7.4393,14.851888 7.438904,15.027826 7.347974,15.028015 7.2618,15.027985 7.2618,15.028006 7.1785,15.028006 7.1785,15.027985 7.092324,15.028015 7.000999,15.027827 7.000999,14.851887 7.001002,14.767902 7.000999,14.767902 7.000999,14.507498 7.052103,14.507498" style="fill: white" /><polygon type="contour" points="7.438904,14.298903 7.000999,14.298903 7.000999,14.215603 7.438904,14.215603" style="fill: white" /><polygon type="contour" points="7.730799,14.007403 7.6475,14.007403 7.6475,13.569499 7.730799,13.569499" style="fill: white" /><polygon type="contour" points="7.730799,14.298903 7.6475,14.298903 7.6475,14.215603 7.730799,14.215603" style="fill: white" /><polygon type="contour" points="8.1186,14.507777 8.1186,14.50765 8.285405,14.50765 8.377605,14.507499 8.377605,14.5586 8.37732,14.684601 8.377456,14.684603 8.377456,14.767901 8.376908,14.767901 8.377455,14.851885 8.377605,15.027827 8.285405,15.027647 8.201899,15.027527 8.201899,15.027611 8.188773,15.027611 8.163662,15.027884 8.146019,15.027905 8.0608,15.026991 8.0608,15.027611 8.034332,15.027649 7.939395,15.027827 7.939,14.851888 7.939774,14.767902 7.939,14.767902 7.939,14.598427 7.939395,14.507499 7.992019,14.507499" style="fill: white" /><polygon type="contour" points="8.377605,14.298903 7.939395,14.298903 7.939395,14.215603 8.377605,14.215603" style="fill: white" /><polygon type="contour" points="8.668799,14.298903 8.5862,14.298903 8.5862,14.215603 8.668799,14.215603" style="fill: white" /><polygon type="contour" points="8.668799,15.027938 8.609531,15.027936 8.5862,15.027936 8.5862,14.507499 8.668799,14.507499" style="fill: white" /><polygon type="contour" points="10.545499,15.027937 10.522168,15.027937 10.520633,15.0279 10.462899,15.0279 10.462899,14.507499 10.545499,14.507499" style="fill: white" /><polygon type="contour" points="9.607499,15.027937 9.524199,15.027937 9.524199,14.507499 9.607499,14.507499" style="fill: white" /><polygon type="contour" points="9.315603,14.5586 9.315999,14.624702 9.315999,14.767902 9.315228,14.767902 9.315999,14.851887 9.315603,15.027826 9.224673,15.028014 9.138499,15.027985 9.138499,15.028006 9.124972,15.028006 9.100373,15.027841 9.082619,15.027905 9.0552,15.028006 9.0552,15.027983 8.968868,15.028015 8.877395,15.027826 8.877542,14.851888 8.87809,14.767902 8.877543,14.767902 8.877543,14.598427 8.877395,14.507499 8.968868,14.507645 9.073811,14.507645 9.1984,14.507646 9.224674,14.507646 9.315603,14.507499" style="fill: white" /><polygon type="contour" points="9.315603,14.298903 8.877395,14.298903 8.877395,14.215603 9.315603,14.215603" style="fill: white" /><polygon type="contour" points="9.607499,14.007403 9.524199,14.007403 9.524199,13.569499 9.607499,13.569499" style="fill: white" /><polygon type="contour" points="9.607499,14.298903 9.524199,14.298903 9.524199,14.215603 9.607499,14.215603" style="fill: white" /><polygon type="contour" points="9.993201,14.507777 9.993201,14.507645 10.162831,14.507645 10.254304,14.507499 10.254304,14.5586 10.254023,14.684603 10.254157,14.684603 10.254157,14.767902 10.253609,14.767902 10.254157,14.851887 10.254304,15.027827 10.164472,15.028011 10.076501,15.027993 10.076501,15.028006 9.993201,15.028006 9.993201,15.027985 9.907025,15.028014 9.816095,15.027826 9.815701,14.851886 9.816475,14.767902 9.815701,14.767902 9.815701,14.598427 9.816095,14.507499 9.867197,14.507499" style="fill: white" /><polygon type="contour" points="10.254304,14.298903 9.816095,14.298903 9.816095,14.215603 10.254304,14.215603" style="fill: white" /><polygon type="contour" points="10.545499,14.298903 10.462899,14.298903 10.462899,14.215603 10.545499,14.215603" style="fill: white" /><polygon type="contour" points="10.545499,14.007403 10.462899,14.007403 10.462899,13.569499 10.545499,13.569499" style="fill: white" /><polygon type="contour" points="10.254304,13.569499 10.254304,13.6206 10.254023,13.746602 10.254157,13.746602 10.254157,13.916076 10.254304,14.007403 10.162831,14.007402 9.907025,14.007402 9.816095,14.007403 9.815701,13.916076 9.815701,13.660426 9.816095,13.569499 9.867198,13.569499 9.933301,13.569103 10.162831,13.569103" style="fill: white" /><polygon type="contour" points="10.254304,13.360903 9.816095,13.360903 9.816095,13.2776 10.254304,13.2776" style="fill: white" /><polygon type="contour" points="10.545499,13.360903 10.462899,13.360903 10.462899,13.2776 10.545499,13.2776" style="fill: white" /><polygon type="contour" points="10.545499,12.808943 10.545499,13.069006 10.462899,13.069006 10.462899,12.808441 10.48623,12.808441" style="fill: white" /><polygon type="contour" points="10.872001,12.809469 11.043186,12.809469 11.097366,12.809685 11.192304,12.810053 11.192304,12.883969 11.192599,12.943438 11.192599,12.968626 11.192304,13.069006 11.097367,13.068854 10.846294,13.068854 10.754095,13.069006 10.754095,13.017903 10.753801,12.968627 10.754095,12.908397 10.754095,12.809444 10.794519,12.809403 10.872001,12.809359" style="fill: white" /><polygon type="contour" points="11.4842,13.069006 11.400899,13.069006 11.400899,12.810345 11.4842,12.810345" style="fill: white" /><polygon type="contour" points="11.732981,12.811043 11.81,12.811118 11.81,12.811232 11.883427,12.811232 12.013102,12.812321 12.0131,12.811931 12.039374,12.812023 12.1307,12.811756 12.131298,12.943641 12.131298,12.968626 12.130699,13.069006 12.079596,13.069006 12.0131,13.069401 11.783725,13.069401 11.692796,13.069006 11.692796,13.017903 11.692501,12.968627 11.692796,12.909006 11.692796,12.810844" style="fill: white" /><polygon type="contour" points="13.360902,13.069006 13.277598,13.069006 13.277598,12.630635 13.360902,12.630635" style="fill: white" /><polygon type="contour" points="13.360902,13.360903 13.277598,13.360903 13.277598,13.2776 13.360902,13.2776" style="fill: white" /><polygon type="contour" points="13.069004,13.360903 12.630633,13.360903 12.630633,13.2776 13.069004,13.2776" style="fill: white" /><polygon type="contour" points="12.7487,13.569328 12.968624,13.569203 13.069004,13.569499 13.069004,13.6206 13.068721,13.746602 13.068856,13.746602 13.068856,13.916076 13.069004,14.007403 13.017902,14.007403 12.968624,14.007402 12.7487,14.007402 12.63132,14.007403 12.630633,14.007403 12.630633,13.890022 12.630906,13.829902 12.630634,13.829902 12.630634,13.569686 12.630633,13.569102 12.63132,13.569102" style="fill: white" /><polygon type="contour" points="13.360902,15.027937 13.277598,15.027937 13.277598,14.507499 13.360902,14.507499" style="fill: white" /><polygon type="contour" points="14.298902,15.027937 14.239131,15.027936 14.215602,15.027936 14.215602,14.507499 14.298902,14.507499" style="fill: white" /><polygon type="contour" points="14.6846,14.507777 14.6846,14.507645 14.7679,14.507645 14.7679,14.508192 14.851885,14.507645 15.027825,14.507499 15.027774,14.547922 15.028003,14.624816 15.028003,14.768153 15.027952,14.88508 15.154442,14.885105 15.218326,14.885126 15.218105,15.107658 15.218185,15.143554 15.218185,15.218188 14.894154,15.218527 14.892232,15.218196 14.884978,15.218179 14.885069,15.200663 14.88501,15.189087 14.88501,15.02779 14.819953,15.028006 14.624812,15.028006 14.547921,15.027777 14.507498,15.027827 14.507644,14.851887 14.508184,14.767902 14.507644,14.767902 14.507644,14.598428 14.507498,14.507499 14.558599,14.507499" style="fill: white" /><polygon type="contour" points="15.027936,14.298903 14.507498,14.298903 14.507498,14.215603 15.027936,14.215603" style="fill: white" /><polygon type="contour" points="14.851886,13.569103 15.027825,13.569498 15.027774,13.609683 15.028003,13.686702 15.028003,13.829902 15.02798,13.829902 15.028013,13.916077 15.027825,14.007403 14.851886,14.007402 14.7679,14.007398 14.7679,14.007402 14.598425,14.007402 14.507498,14.007403 14.507644,13.916077 14.507644,13.660426 14.507498,13.569499 14.558599,13.569499 14.6247,13.569103 14.827801,13.569103 14.827801,13.569102" style="fill: white" /><polygon type="contour" points="15.027936,13.360903 14.507498,13.360903 14.507498,13.2776 15.027936,13.2776" style="fill: white" /><polygon type="contour" points="15.218399,12.630499 15.218399,12.932681 15.218326,12.963627 15.169768,12.963455 15.154442,12.963604 15.027996,12.963453 15.027825,13.069006 14.851886,13.068858 14.7679,13.068314 14.7679,13.068858 14.598425,13.068858 14.507498,13.069006 14.507498,13.017904 14.507202,12.968626 14.507801,12.748702 14.507801,12.630635 14.624483,12.630635 14.6846,12.630909 14.6846,12.630636 14.7679,12.630636 14.7679,12.63084 14.828094,12.630635 15.028491,12.630635 15.048536,12.63056 15.154442,12.630405" style="fill: white" /><polygon type="contour" points="15.028084,12.33868 15.027818,12.39559 15.027717,12.421702 14.921626,12.421844 14.827801,12.422203 14.598424,12.422203 14.507443,12.421861 14.507498,12.421806 14.507498,12.338901 14.7679,12.338901 14.7679,12.339154 14.885179,12.338658 14.96211,12.338578" style="fill: white" /><polygon type="contour" points="15.027825,11.692798 15.028012,11.783726 15.02798,11.869902 15.028003,11.869902 15.028003,11.953201 15.02798,11.953201 15.028013,12.039376 15.027825,12.130702 14.851886,12.130701 14.827801,12.130702 14.827801,12.130701 14.598425,12.130701 14.507498,12.130702 14.507644,12.039376 14.507644,11.783726 14.507498,11.692799 14.5586,11.692799 14.6247,11.692402 14.7679,11.692402 14.7679,11.693176 14.851886,11.692401" style="fill: white" /><polygon type="contour" points="15.02783,11.425901 15.02783,11.484203 14.507498,11.484203 14.507498,11.400901 15.027936,11.400901" style="fill: white" /><polygon type="contour" points="15.027936,9.583972 15.027825,9.607501 14.507498,9.607501 14.507498,9.524201 15.027936,9.524201" style="fill: white" /><polygon type="contour" points="14.7679,9.816479 14.851885,9.815702 15.027825,9.816097 15.028013,9.907026 15.02798,9.993202 15.028003,9.993202 15.028003,10.076502 15.02798,10.076502 15.028013,10.162832 15.027825,10.254306 14.851886,10.254158 14.7679,10.25361 14.7679,10.254158 14.598425,10.254158 14.507498,10.254306 14.507498,10.203203 14.507775,10.076502 14.507644,10.076502 14.507644,9.907027 14.507498,9.816097 14.558599,9.816097 14.624699,9.815702 14.7679,9.815702" style="fill: white" /><polygon type="contour" points="13.7466,8.877681 13.7466,8.877546 13.916075,8.877546 14.007402,8.877397 14.007402,8.9285 14.007398,9.055202 14.0074,9.055202 14.0074,9.224676 14.007402,9.315604 13.916075,9.316002 13.660424,9.316002 13.569498,9.315605 13.569101,9.224676 13.569101,8.968869 13.569498,8.877397 13.6206,8.877397" style="fill: white" /><polygon type="contour" points="14.007402,8.668801 13.569498,8.668801 13.569498,8.586201 14.007402,8.586201" style="fill: white" /><polygon type="contour" points="14.298902,8.668801 14.215602,8.668801 14.215602,8.586201 14.298902,8.586201" style="fill: white" /><polygon type="contour" points="14.298902,8.377606 14.215602,8.377606 14.215602,7.939396 14.298902,7.939396" style="fill: white" /><polygon type="contour" points="14.007402,7.939396 14.007402,8.377606 13.956297,8.377606 13.8299,8.377324 13.8299,8.377458 13.660424,8.377458 13.569497,8.377606 13.569497,8.326504 13.569777,8.201901 13.569647,8.201901 13.569647,8.034335 13.569498,7.939396 13.6206,7.939396 13.6867,7.939002 13.916075,7.939002" style="fill: white" /><polygon type="contour" points="14.007402,7.7308 13.569498,7.7308 13.569498,7.647501 14.007402,7.647501" style="fill: white" /><polygon type="contour" points="14.298902,7.7308 14.215602,7.7308 14.215602,7.647501 14.298902,7.647501" style="fill: white" /><polygon type="contour" points="15.028036,7.673444 15.028036,7.7308 14.507498,7.7308 14.507498,7.647501 15.027936,7.647501" style="fill: white" /><polygon type="contour" points="14.767913,7.939776 14.851885,7.939002 15.027825,7.939396 15.027646,8.034335 15.027526,8.118602 15.027609,8.118602 15.027609,8.201901 15.027523,8.201901 15.027647,8.285408 15.027825,8.377606 14.851886,8.377458 14.7679,8.376914 14.7679,8.377458 14.598425,8.377458 14.507498,8.377606 14.507498,8.326504 14.507782,8.201901 14.50765,8.201901 14.50765,8.034335 14.507498,7.939396 14.5586,7.939396 14.6247,7.939002 14.767899,7.939002" style="fill: white" /><polygon type="contour" points="15.027899,8.611067 15.027899,8.668801 14.507498,8.668801 14.507498,8.586201 15.027936,8.586201" style="fill: white" /><polygon type="contour" points="14.6846,8.877681 14.6846,8.877546 14.7679,8.877546 14.7679,8.878093 14.851885,8.877546 15.027825,8.877397 15.028006,8.96594 15.028003,8.976206 15.028003,9.138502 15.02798,9.138502 15.028013,9.224676 15.027825,9.315605 14.851886,9.316002 14.7679,9.315227 14.7679,9.316002 14.598424,9.316002 14.507498,9.315605 14.507644,9.224677 14.507644,8.96887 14.507498,8.877397 14.5586,8.877397" style="fill: white" /><polygon type="contour" points="14.298902,9.315605 14.215601,9.315605 14.215601,9.264502 14.215602,9.138502 14.215602,8.877397 14.298902,8.877397" style="fill: white" /><polygon type="contour" points="14.298902,9.607501 14.215602,9.607501 14.215602,9.524201 14.298902,9.524201" style="fill: white" /><polygon type="contour" points="14.007402,9.607501 13.569498,9.607501 13.569498,9.524201 14.007402,9.524201" style="fill: white" /><polygon type="contour" points="14.007402,9.816097 14.0074,9.907027 14.0074,10.162832 14.007402,10.254306 13.916075,10.254158 13.660425,10.254158 13.569498,10.254306 13.569498,10.203203 13.569101,10.136558 13.569101,9.907026 13.569498,9.816097 13.620599,9.816097 13.6867,9.815702 13.916075,9.815702" style="fill: white" /><polygon type="contour" points="13.746597,10.754379 13.7466,10.754245 13.916075,10.754245 14.007402,10.754097 14.007402,11.192306 13.956298,11.192306 13.8898,11.192701 13.660424,11.192701 13.569498,11.192306 13.569647,11.097369 13.569647,10.846296 13.569498,10.754097 13.620599,10.754097" style="fill: white" /><polygon type="contour" points="14.007402,10.545501 13.569498,10.545501 13.569498,10.462901 14.007402,10.462901" style="fill: white" /><polygon type="contour" points="14.298902,10.254306 14.215602,10.254306 14.215602,9.816097 14.298902,9.816097" style="fill: white" /><polygon type="contour" points="14.298902,10.545501 14.215602,10.545501 14.215602,10.462901 14.298902,10.462901" style="fill: white" /><polygon type="contour" points="15.027936,10.522169 15.027825,10.545501 14.507498,10.545501 14.507498,10.462901 15.027936,10.462901" style="fill: white" /><polygon type="contour" points="14.684598,10.754379 14.684599,10.754245 14.7679,10.754245 14.7679,10.754792 14.851886,10.754244 15.027825,10.754097 15.027647,10.846296 15.027523,10.929803 15.027609,10.929803 15.027609,10.942928 15.027881,10.96804 15.027904,10.985681 15.026987,11.070903 15.027609,11.070903 15.027646,11.097368 15.027825,11.192306 14.851885,11.192701 14.7679,11.19193 14.7679,11.192701 14.598424,11.192701 14.507498,11.192306 14.50765,11.097369 14.50765,10.846296 14.507498,10.754097 14.558599,10.754097" style="fill: white" /><polygon type="contour" points="14.298902,11.192306 14.215602,11.192306 14.215602,10.846296 14.215601,10.754097 14.298902,10.754097" style="fill: white" /><polygon type="contour" points="14.298902,11.484203 14.215602,11.484203 14.215602,11.400901 14.298902,11.400901" style="fill: white" /><polygon type="contour" points="14.007402,11.484203 13.569498,11.484203 13.569498,11.400901 14.007402,11.400901" style="fill: white" /><polygon type="contour" points="14.007402,11.692799 14.007402,11.743901 14.007398,11.869902 14.0074,11.869902 14.0074,12.039375 14.007401,12.064204 14.007401,12.130702 13.916074,12.130701 13.660425,12.130701 13.569498,12.130702 13.569101,12.039375 13.569101,11.783726 13.569498,11.692799 13.6206,11.692799 13.6867,11.692402 13.916075,11.692402" style="fill: white" /><polygon type="contour" points="14.298902,12.130702 14.215601,12.130702 14.215602,12.039375 14.215602,11.692799 14.298902,11.692799" style="fill: white" /><polygon type="contour" points="14.272572,12.33868 14.298902,12.33868 14.298902,12.421703 14.215602,12.421703 14.215601,12.368108 14.215601,12.338679" style="fill: white" /><polygon type="contour" points="14.007402,12.375099 14.007402,12.421806 13.956396,12.421805 13.889801,12.422203 13.660424,12.422203 13.569498,12.421806 13.569498,12.338901 14.007401,12.338901" style="fill: white" /><polygon type="contour" points="13.7466,12.630909 13.7466,12.630636 13.747014,12.630636 13.8299,12.630635 13.8299,12.630636 14.006815,12.630636 14.007401,12.630635 14.007401,12.631322 14.0074,12.748702 14.007399,12.968626 14.007402,13.069006 13.956297,13.069006 13.8299,13.068724 13.8299,13.068858 13.660425,13.068858 13.569498,13.069006 13.569498,13.017904 13.569202,12.968626 13.569326,12.748702 13.5691,12.631322 13.5691,12.630635 13.686481,12.630635" style="fill: white" /><polygon type="contour" points="14.298902,13.069006 14.215601,13.069006 14.2156,13.017903 14.215602,12.968626 14.215602,12.630635 14.298902,12.630635" style="fill: white" /><polygon type="contour" points="14.298902,13.360903 14.215602,13.360903 14.215602,13.2776 14.298902,13.2776" style="fill: white" /><polygon type="contour" points="14.007402,13.360903 13.569498,13.360903 13.569498,13.2776 14.007402,13.2776" style="fill: white" /><polygon type="contour" points="14.007402,13.569499 14.007402,13.6206 14.007398,13.746602 14.0074,13.746602 14.0074,13.916076 14.007402,14.007403 13.956297,14.007403 13.8299,14.007401 13.8299,14.007402 13.660425,14.007402 13.569498,14.007403 13.569101,13.916076 13.569101,13.660426 13.569498,13.569499 13.620599,13.569499 13.6867,13.569103 13.916075,13.569103" style="fill: white" /><polygon type="contour" points="14.298902,14.007403 14.215602,14.007403 14.215602,13.811291 14.2156,13.746602 14.2156,13.660426 14.215602,13.569499 14.298902,13.569499" style="fill: white" /><polygon type="contour" points="14.298902,14.298903 14.215602,14.298903 14.215602,14.215603 14.298902,14.215603" style="fill: white" /><polygon type="contour" points="14.007402,14.298903 13.569498,14.298903 13.569498,14.215603 14.007402,14.215603" style="fill: white" /><polygon type="contour" points="13.7466,14.507778 13.7466,14.507645 13.916076,14.507645 14.007402,14.507499 14.007402,14.5586 14.007398,14.684603 14.0074,14.684603 14.0074,14.767902 14.007396,14.767902 14.0074,14.851886 14.007402,15.027827 13.967281,15.027777 13.8898,15.028006 13.7466,15.028006 13.7466,15.027985 13.660425,15.028015 13.569498,15.027827 13.569101,14.851886 13.5691,14.827802 13.569101,14.827802 13.569101,14.598427 13.569498,14.507498 13.6206,14.507498" style="fill: white" /><polygon type="contour" points="13.360902,14.007403 13.277598,14.007403 13.277598,13.569499 13.360902,13.569499" style="fill: white" /><polygon type="contour" points="13.360902,14.298903 13.277598,14.298903 13.277598,14.215603 13.360902,14.215603" style="fill: white" /><polygon type="contour" points="13.069004,14.507499 13.069004,14.5586 13.068721,14.684603 13.068856,14.684603 13.068856,14.767902 13.068315,14.767902 13.068855,14.851886 13.069004,15.027827 13.028581,15.027777 12.963738,15.028008 12.963603,15.154444 12.963626,15.218328 12.93268,15.218401 12.630498,15.218401 12.630394,15.161918 12.630403,15.154444 12.630634,15.028226 12.630634,14.508386 12.630633,14.507804 12.631321,14.507804 12.7487,14.507802 12.968624,14.507203" style="fill: white" /><polygon type="contour" points="13.069004,14.298903 12.630633,14.298903 12.630633,14.215603 13.069004,14.215603" style="fill: white" /><polygon type="contour" points="12.1307,14.298903 11.692796,14.298903 11.692796,14.215603 12.1307,14.215603" style="fill: white" /><polygon type="contour" points="12.421702,14.298903 12.338678,14.298903 12.338678,14.215603 12.421702,14.215603" style="fill: white" /><polygon type="contour" points="12.421803,14.558808 12.422202,14.624858 12.422202,14.827802 12.42194,14.871442 12.421843,14.921628 12.421701,15.027719 12.368107,15.027968 12.338678,15.028085 12.338743,14.916988 12.339003,14.767902 12.338899,14.767902 12.338899,14.507499 12.421804,14.507499" style="fill: white" /><polygon type="contour" points="12.1307,15.027827 12.09058,15.027777 12.013101,15.028006 11.869901,15.028006 11.869901,15.027985 11.783726,15.028015 11.692795,15.027827 11.692399,14.851887 11.693174,14.767902 11.6924,14.767902 11.6924,14.598427 11.692796,14.507499 11.783726,14.507645 12.039375,14.507645 12.1307,14.507499" style="fill: white" /><polygon type="contour" points="11.4842,15.027937 11.400899,15.027937 11.400899,14.507499 11.4842,14.507499" style="fill: white" /><polygon type="contour" points="11.192304,14.5586 11.1927,14.624702 11.1927,14.767902 11.191925,14.767902 11.1927,14.851887 11.192304,15.027827 11.097367,15.027648 11.013101,15.02753 11.013101,15.027611 10.999974,15.027611 10.944086,15.027905 10.872001,15.026421 10.872001,15.027611 10.846294,15.027647 10.754095,15.027827 10.754244,14.851886 10.754787,14.767911 10.754244,14.767902 10.754244,14.598428 10.754095,14.507499 10.846294,14.50765 11.097367,14.50765 11.192304,14.507498" style="fill: white" /><polygon type="contour" points="11.192304,14.298903 10.754095,14.298903 10.754095,14.215603 11.192304,14.215603" style="fill: white" /><polygon type="contour" points="11.4842,14.298903 11.400899,14.298903 11.400899,14.215603 11.4842,14.215603" style="fill: white" /><polygon type="contour" points="11.4842,14.007403 11.400899,14.007403 11.400899,13.569499 11.4842,13.569499" style="fill: white" /><polygon type="contour" points="11.192304,13.6206 11.1927,13.686702 11.1927,13.916076 11.192304,14.007403 10.754095,14.007403 10.754244,13.916076 10.754244,13.660426 10.754095,13.569499 10.846293,13.569649 10.947902,13.569649 11.013101,13.569648 11.097367,13.569648 11.192304,13.569499" style="fill: white" /><polygon type="contour" points="11.192304,13.360903 10.754095,13.360903 10.754095,13.2776 11.192304,13.2776" style="fill: white" /><polygon type="contour" points="11.4842,13.360903 11.400899,13.360903 11.400899,13.2776 11.4842,13.2776" style="fill: white" /><polygon type="contour" points="12.1307,13.360903 11.692796,13.360903 11.692796,13.2776 12.1307,13.2776" style="fill: white" /><polygon type="contour" points="12.1307,13.569499 12.1307,14.007403 12.079596,14.007403 11.9532,14.007401 11.9532,14.007402 11.783726,14.007402 11.692796,14.007403 11.6924,13.916076 11.6924,13.660426 11.692796,13.569499 11.783725,13.569103 12.039374,13.569103" style="fill: white" /><polygon type="contour" points="12.421803,13.620505 12.422202,13.686702 12.422202,13.916076 12.421804,14.007403 12.338899,14.007403 12.338899,13.569499 12.421804,13.569499" style="fill: white" /><polygon type="contour" points="12.421702,13.360903 12.338678,13.360903 12.338678,13.2776 12.421702,13.2776" style="fill: white" /><polygon type="contour" points="12.421701,12.81218 12.422108,12.955637 12.42214,12.963709 12.422101,12.968626 12.421804,13.069006 12.338899,13.069006 12.338899,12.968627 12.338837,12.963708 12.33886,12.957245 12.338678,12.927278 12.338678,12.81238 12.39559,12.812152" style="fill: white" /><polygon type="contour" points="12.957243,12.338862 12.963706,12.338839 12.968625,12.338901 13.069004,12.338901 13.069004,12.421806 13.017694,12.421805 12.968624,12.422102 12.963707,12.422141 12.955635,12.422108 12.920136,12.421702 12.812179,12.421702 12.812393,12.368108 12.812379,12.33868 12.927277,12.33868" style="fill: white" /><polygon type="contour" points="13.0694,12.631323 13.069175,12.748701 13.069298,12.968626 13.069004,13.069006 13.017901,13.069006 12.968625,13.0693 12.748699,13.069176 12.631321,13.069401 12.630633,13.069401 12.630633,12.813357 12.630863,12.813354 12.675639,12.812277 12.809897,12.8099 12.811315,12.738908 12.812274,12.675643 12.813352,12.630866 12.813355,12.630636 12.81359,12.630636 12.813678,12.630635 13.0694,12.630635" style="fill: white" /><polygon type="contour" points="13.360902,12.421703 13.277598,12.421703 13.277598,12.33868 13.360902,12.33868" style="fill: white" /><polygon type="contour" points="13.360902,12.130702 13.277598,12.130702 13.277598,11.692799 13.360902,11.692799" style="fill: white" /><polygon type="contour" points="13.069004,11.692799 13.069004,11.743901 13.0694,11.810002 13.0694,12.039376 13.069004,12.064204 13.069004,12.130702 13.017901,12.130702 12.968624,12.1313 12.909918,12.130702 12.811755,12.130702 12.811519,12.090582 12.812247,11.953201 12.811817,11.953201 12.811817,11.939675 12.81123,11.869902 12.811363,11.869902 12.811008,11.783726 12.810842,11.692799 12.943639,11.692504 12.968625,11.692504" style="fill: white" /><polygon type="contour" points="13.069004,11.484203 12.810342,11.484203 12.810342,11.400901 13.069004,11.400901" style="fill: white" /><polygon type="contour" points="13.360902,11.484203 13.277598,11.484203 13.277598,11.400901 13.360902,11.400901" style="fill: white" /><polygon type="contour" points="13.360902,11.192306 13.277598,11.192306 13.277598,10.754097 13.360902,10.754097" style="fill: white" /><polygon type="contour" points="13.069004,10.754097 13.069004,10.805199 13.068721,10.929803 13.068853,10.929803 13.068853,11.097369 13.069004,11.192306 13.017901,11.192306 12.968625,11.192601 12.823707,11.192702 12.810488,11.192702 12.810487,11.192087 12.810487,11.191857 12.810478,11.190796 12.809808,11.131117 12.809579,11.071091 12.810827,11.071095 12.809428,11.011441 12.809467,10.999976 12.809467,10.872001 12.809357,10.872001 12.809379,10.846295 12.80944,10.754096 12.943436,10.753804 12.968625,10.753804" style="fill: white" /><polygon type="contour" points="13.069004,10.545501 12.808939,10.545501 12.80844,10.486232 12.80844,10.462901 13.069004,10.462901" style="fill: white" /><polygon type="contour" points="13.360902,10.545501 13.277598,10.545501 13.277598,10.462901 13.360902,10.462901" style="fill: white" /><polygon type="contour" points="13.360902,10.254306 13.277598,10.254306 13.277598,9.816097 13.360902,9.816097" style="fill: white" /><polygon type="contour" points="13.069004,9.816097 13.0694,9.907026 13.0694,10.162832 13.069004,10.254306 13.017901,10.254306 12.968624,10.254601 12.908093,10.254306 12.807949,10.254306 12.807778,10.213882 12.807692,10.076502 12.807617,10.076502 12.807617,9.933414 12.807503,9.933414 12.807509,9.907026 12.807341,9.816097 12.943135,9.815803 12.968624,9.815803" style="fill: white" /><polygon type="contour" points="13.069004,9.607501 12.806878,9.607501 12.806184,9.599377 12.806184,9.566202 12.806878,9.543244 12.806878,9.524201 13.069004,9.524201" style="fill: white" /><polygon type="contour" points="13.360902,9.607501 13.277598,9.607501 13.277598,9.524201 13.360902,9.524201" style="fill: white" /><polygon type="contour" points="13.360902,9.315605 13.277598,9.315605 13.277598,8.877397 13.360902,8.877397" style="fill: white" /><polygon type="contour" points="13.069004,8.877397 13.069004,8.9285 13.0694,8.995144 13.0694,9.224676 13.069004,9.315605 13.017902,9.315605 12.968625,9.315901 12.907483,9.315605 12.807341,9.315605 12.807509,9.224676 12.807503,9.198289 12.807617,9.198289 12.807617,9.027767 12.807821,8.96887 12.807949,8.877397 12.943135,8.877103 12.968624,8.877103" style="fill: white" /><polygon type="contour" points="13.069004,8.668801 12.80844,8.668801 12.80844,8.645469 12.808939,8.586201 13.069004,8.586201" style="fill: white" /><polygon type="contour" points="13.360902,8.668801 13.277598,8.668801 13.277598,8.586201 13.360902,8.586201" style="fill: white" /><polygon type="contour" points="13.360902,8.377606 13.277598,8.377606 13.277598,7.939396 13.360902,7.939396" style="fill: white" /><polygon type="contour" points="13.069004,7.939396 13.068853,8.034334 13.068853,8.285407 13.069004,8.377606 13.017901,8.377606 12.968625,8.377901 12.908395,8.377606 12.809441,8.377606 12.809379,8.285408 12.809356,8.259702 12.809467,8.259702 12.809467,8.088515 12.809684,8.034334 12.81005,7.939396 12.943436,7.939103 12.968625,7.939103" style="fill: white" /><polygon type="contour" points="13.069004,7.7308 12.810342,7.7308 12.810342,7.647501 13.069004,7.647501" style="fill: white" /><polygon type="contour" points="13.360902,7.7308 13.277598,7.7308 13.277598,7.647501 13.360902,7.647501" style="fill: white" /><polygon type="contour" points="13.360902,7.438905 13.277598,7.438905 13.277598,7.001001 13.360902,7.001001" style="fill: white" /><polygon type="contour" points="13.069004,7.001001 13.0694,7.092326 13.0694,7.347977 13.069004,7.438905 13.017901,7.438905 12.968625,7.4392 12.909004,7.438905 12.810842,7.438905 12.811042,7.39872 12.811117,7.321702 12.81123,7.321702 12.81123,7.248275 12.81232,7.1186 12.811929,7.118602 12.812021,7.092326 12.811755,7.001 12.943639,7.000404 12.968624,7.000404" style="fill: white" /><polygon type="contour" points="13.069004,6.792801 12.968625,6.792801 12.963706,6.792863 12.957243,6.79284 12.927277,6.793023 12.812379,6.793023 12.81215,6.735634 12.812178,6.709301 12.920135,6.709301 12.955636,6.709548 12.963706,6.709501 12.968625,6.709501 13.069004,6.709197" style="fill: white" /><polygon type="contour" points="13.360902,6.793023 13.277598,6.793023 13.277598,6.7093 13.360902,6.7093" style="fill: white" /><polygon type="contour" points="13.7466,7.001003 13.7466,7.001002 13.916075,7.001002 14.007402,7.001001 14.0074,7.092327 14.0074,7.347976 14.007402,7.438905 13.956297,7.438905 13.889799,7.439302 13.660424,7.439302 13.569498,7.438905 13.569498,7.387801 13.569101,7.321701 13.569101,7.092327 13.569498,7.067497 13.569498,7.001 13.620599,7.001" style="fill: white" /><polygon type="contour" points="14.007402,6.792801 13.569498,6.792801 13.569498,6.709197 13.620504,6.709198 13.7466,6.709478 13.7466,6.709345 13.916075,6.709345 14.007402,6.709197" style="fill: white" /><polygon type="contour" points="14.262704,7.001001 14.298902,7.001001 14.298902,7.438905 14.215602,7.438905 14.215602,7.092327 14.215601,7.001" style="fill: white" /><polygon type="contour" points="14.298902,6.793023 14.215602,6.793023 14.215602,6.7093 14.298902,6.7093" style="fill: white" /><polygon type="contour" points="14.298902,6.501068 14.215602,6.501068 14.215602,6.163076 14.2156,6.062697 14.298902,6.062697" style="fill: white" /><polygon type="contour" points="14.6846,6.062981 14.6846,6.062846 14.7679,6.062846 14.7679,6.063389 14.851885,6.062846 15.027825,6.062697 15.027995,6.167963 15.154442,6.168098 15.218326,6.168077 15.218399,6.199022 15.218399,6.501202 15.161915,6.501307 15.154441,6.501298 15.028224,6.501068 14.507801,6.501068 14.507801,6.383001 14.507201,6.163076 14.507498,6.062697 14.5586,6.062697" style="fill: white" /><polygon type="contour" points="15.027936,5.854101 14.507498,5.854101 14.507498,5.770801 15.027936,5.770801" style="fill: white" /><polygon type="contour" points="15.027825,5.124302 15.027774,5.16442 15.028003,5.241901 15.028003,5.385102 15.02798,5.385102 15.028012,5.471277 15.027825,5.562205 14.851886,5.562602 14.598424,5.562602 14.507498,5.562205 14.507498,5.511102 14.507776,5.385102 14.507644,5.385102 14.507644,5.215625 14.507498,5.124302 14.5586,5.124302 14.624699,5.124301 14.851885,5.124301" style="fill: white" /><polygon type="contour" points="15.027936,4.916102 14.507498,4.916102 14.507498,4.832801 15.027936,4.832801" style="fill: white" /><polygon type="contour" points="15.218185,3.913515 15.218185,3.98815 15.218105,4.024046 15.218326,4.246576 15.169768,4.246391 15.154441,4.246598 15.027672,4.246426 15.028003,4.308813 15.028003,4.447102 15.02798,4.447102 15.028013,4.533277 15.027825,4.624205 14.851885,4.624058 14.7679,4.623514 14.7679,4.624058 14.598425,4.624058 14.507498,4.624205 14.507498,4.573102 14.507776,4.447102 14.507644,4.447102 14.507644,4.363802 14.508184,4.363802 14.507644,4.279816 14.507498,4.103876 14.54792,4.103688 14.624813,4.103584 14.775468,4.103584 14.885028,4.103875 14.885028,4.011222 14.88501,3.942615 14.884978,3.913524 14.892231,3.913507 14.894153,3.913177" style="fill: white" /><polygon type="contour" points="12.963626,3.913376 12.963454,3.961933 12.963603,3.97726 12.963454,4.103704 13.069003,4.103876 13.068855,4.279816 13.068315,4.363802 13.068856,4.363802 13.068856,4.533277 13.069004,4.624205 13.017901,4.624205 12.968624,4.6245 12.7487,4.623902 12.63132,4.623901 12.630633,4.623901 12.630633,4.507219 12.630907,4.447102 12.630634,4.447102 12.630634,4.363802 12.630838,4.363802 12.630633,4.303608 12.630633,4.103214 12.630557,4.083161 12.630403,3.977259 12.630498,3.913303 12.93268,3.913303" style="fill: white" /><polygon type="contour" points="12.39559,4.103882 12.421702,4.103984 12.421859,4.191672 12.422202,4.280034 12.422202,4.533277 12.421804,4.624205 12.338899,4.624205 12.338899,4.363802 12.339126,4.363802 12.33868,4.246548 12.338743,4.214717 12.338678,4.103617" style="fill: white" /><polygon type="contour" points="11.9532,4.10372 12.039375,4.103688 12.1307,4.103876 12.1307,4.624205 12.079596,4.624205 11.9532,4.623925 11.9532,4.624058 11.783725,4.624058 11.692796,4.624205 11.692796,4.573103 11.6924,4.507001 11.6924,4.363802 11.693174,4.363802 11.692399,4.279815 11.692795,4.103876 11.783725,4.103687 11.809999,4.103584 11.9532,4.103584" style="fill: white" /><polygon type="contour" points="12.1307,5.124302 12.1307,5.241901 12.130696,5.241901 12.130701,5.320412 12.130701,5.385102 12.1307,5.385102 12.1307,5.562205 12.079597,5.562205 12.013099,5.562602 11.783725,5.562602 11.692796,5.562205 11.692796,5.511103 11.6924,5.445003 11.6924,5.215625 11.692796,5.124302 11.783726,5.124301 12.039374,5.124301" style="fill: white" /><polygon type="contour" points="12.1307,4.916102 11.692796,4.916102 11.692796,4.832801 12.1307,4.832801" style="fill: white" /><polygon type="contour" points="12.421702,4.916102 12.338678,4.916102 12.338678,4.832801 12.421702,4.832801" style="fill: white" /><polygon type="contour" points="12.421804,5.175308 12.422202,5.241901 12.422202,5.320363 12.422204,5.385102 12.422204,5.471276 12.421805,5.562205 12.3389,5.562205 12.3389,5.511102 12.338901,5.404782 12.338899,5.320411 12.338899,5.124302 12.421804,5.124302" style="fill: white" /><polygon type="contour" points="12.7487,5.124302 13.069004,5.124302 13.069004,5.175403 13.068722,5.301801 13.068856,5.301801 13.068856,5.320412 13.068857,5.385102 13.068857,5.471277 13.069004,5.562205 13.017902,5.562205 12.968624,5.562501 12.7487,5.562376 12.63132,5.5626 12.630633,5.5626 12.630633,5.445219 12.630907,5.385102 12.630634,5.385102 12.630634,5.301801 12.630635,5.301801 12.630632,5.124886 12.630631,5.124301 12.631318,5.124301" style="fill: white" /><polygon type="contour" points="13.069004,4.916102 12.630633,4.916102 12.630633,4.832801 13.069004,4.832801" style="fill: white" /><polygon type="contour" points="13.360902,4.916102 13.277598,4.916102 13.277598,4.832801 13.360902,4.832801" style="fill: white" /><polygon type="contour" points="13.360902,4.624205 13.277598,4.624205 13.277598,4.103766 13.360902,4.103766" style="fill: white" /><polygon type="contour" points="13.916073,4.103687 14.007402,4.103876 14.0074,4.279815 14.007396,4.363802 14.0074,4.363802 14.0074,4.533276 14.007402,4.624205 13.956298,4.624205 13.8299,4.623925 13.8299,4.624058 13.660425,4.624058 13.569498,4.624205 13.569498,4.573103 13.569101,4.507001 13.569101,4.303902 13.5691,4.303902 13.569101,4.279816 13.569498,4.103876 13.609681,4.103688 13.6867,4.103584 13.889799,4.103584" style="fill: white" /><polygon type="contour" points="14.298902,4.624205 14.215602,4.624205 14.215602,4.163912 14.215601,4.1441 14.215601,4.103766 14.298902,4.103766" style="fill: white" /><polygon type="contour" points="14.298902,4.916102 14.215602,4.916102 14.215602,4.832801 14.298902,4.832801" style="fill: white" /><polygon type="contour" points="14.007402,4.916102 13.569498,4.916102 13.569498,4.832801 14.007402,4.832801" style="fill: white" /><polygon type="contour" points="14.007402,5.124302 14.0074,5.215625 14.0074,5.471276 14.007402,5.562204 13.916075,5.562602 13.660424,5.562602 13.569498,5.562205 13.569498,5.511102 13.569101,5.445003 13.569101,5.215625 13.569498,5.124302 13.6206,5.124302 13.6867,5.124301 13.916075,5.124301" style="fill: white" /><polygon type="contour" points="14.298902,5.562205 14.215601,5.562205 14.215601,5.511102 14.215599,5.404782 14.215602,5.320411 14.215602,5.124302 14.298902,5.124302" style="fill: white" /><polygon type="contour" points="14.298902,5.854101 14.2156,5.854101 14.215601,5.830572 14.215602,5.770801 14.298902,5.770801" style="fill: white" /><polygon type="contour" points="14.007402,5.817903 14.007401,5.854101 13.569498,5.854101 13.569498,5.770801 14.007402,5.770801" style="fill: white" /><polygon type="contour" points="13.7466,6.062981 13.7466,6.062846 13.916074,6.062846 14.007401,6.062697 14.007401,6.1138 14.007399,6.163077 14.0074,6.383001 14.007401,6.50038 14.007401,6.501068 13.5691,6.501068 13.5691,6.500381 13.569326,6.383001 13.569202,6.163076 13.569498,6.062697 13.6206,6.062697" style="fill: white" /><polygon type="contour" points="13.360902,5.562205 13.277598,5.562205 13.277598,5.124302 13.360902,5.124302" style="fill: white" /><polygon type="contour" points="13.360902,5.854101 13.277598,5.854101 13.277598,5.770801 13.360902,5.770801" style="fill: white" /><polygon type="contour" points="13.069004,5.854101 12.630633,5.854101 12.630633,5.770801 13.069004,5.770801" style="fill: white" /><polygon type="contour" points="12.7487,6.062526 12.968625,6.062404 13.069004,6.062697 13.069004,6.1138 13.069297,6.163076 13.069175,6.383002 13.0694,6.50038 13.0694,6.501068 12.813356,6.501068 12.813353,6.500838 12.812273,6.456061 12.809898,6.321803 12.738906,6.320387 12.67564,6.319426 12.630863,6.318349 12.630634,6.318346 12.630634,6.318111 12.630633,6.318023 12.630633,6.062303 12.63132,6.062303" style="fill: white" /><polygon type="contour" points="12.421802,6.114007 12.422101,6.163077 12.42214,6.167994 12.422108,6.176065 12.421701,6.211565 12.421701,6.319523 12.368106,6.31931 12.338678,6.319324 12.338678,6.204424 12.33886,6.174458 12.338837,6.167995 12.338899,6.163076 12.3389,6.062697 12.421805,6.062697" style="fill: white" /><polygon type="contour" points="12.421703,5.824393 12.421703,5.854101 12.338679,5.854101 12.338679,5.827771 12.338678,5.770801 12.421702,5.770801" style="fill: white" /><polygon type="contour" points="12.1307,5.854101 11.692796,5.854101 11.692796,5.770801 12.1307,5.770801" style="fill: white" /><polygon type="contour" points="12.1307,6.062697 12.1307,6.113801 12.131298,6.163076 12.1307,6.221784 12.1307,6.319948 12.09058,6.320184 11.9532,6.319453 11.9532,6.319886 11.939673,6.319886 11.869901,6.320472 11.869901,6.320339 11.783726,6.320693 11.692796,6.32086 11.692501,6.188062 11.692501,6.163076 11.692796,6.062697 11.783725,6.0623 12.039374,6.0623" style="fill: white" /><polygon type="contour" points="11.4842,6.321359 11.400899,6.321359 11.400899,6.062697 11.4842,6.062697" style="fill: white" /><polygon type="contour" points="7.730799,6.321359 7.6475,6.321359 7.6475,6.062697 7.730799,6.062697" style="fill: white" /><polygon type="contour" points="8.668799,5.562205 8.5862,5.562205 8.5862,5.124302 8.668799,5.124302" style="fill: white" /><polygon type="contour" points="8.668799,5.854101 8.5862,5.854101 8.5862,5.770801 8.668799,5.770801" style="fill: white" /><polygon type="contour" points="8.377605,5.854101 7.939395,5.854101 7.939395,5.770801 8.377605,5.770801" style="fill: white" /><polygon type="contour" points="8.377605,6.1138 8.3779,6.163076 8.377605,6.223305 8.377605,6.32226 8.285406,6.322322 8.2597,6.322345 8.2597,6.322234 8.088265,6.322234 8.034332,6.322017 7.939395,6.321651 7.939102,6.188265 7.939102,6.163076 7.939395,6.062697 8.034332,6.062849 8.285405,6.062849 8.377605,6.062697" style="fill: white" /><polygon type="contour" points="8.668799,6.323264 8.645467,6.323264 8.5862,6.32276 8.5862,6.062697 8.668799,6.062697" style="fill: white" /><polygon type="contour" points="9.607499,6.324824 9.599375,6.325518 9.566199,6.325518 9.543241,6.324824 9.524199,6.324824 9.524199,6.062697 9.607499,6.062697" style="fill: white" /><polygon type="contour" points="9.315603,6.062697 9.315603,6.113801 9.315899,6.163076 9.315603,6.224218 9.315603,6.324361 9.224674,6.324194 9.198286,6.3242 9.198286,6.324086 9.028119,6.324086 8.968868,6.323882 8.877395,6.323753 8.877102,6.188566 8.877102,6.163076 8.877395,6.062697 8.968867,6.0623 9.224674,6.0623" style="fill: white" /><polygon type="contour" points="9.315603,5.854101 8.877395,5.854101 8.877395,5.770801 9.315603,5.770801" style="fill: white" /><polygon type="contour" points="9.607499,5.854101 9.524199,5.854101 9.524199,5.770801 9.607499,5.770801" style="fill: white" /><polygon type="contour" points="9.607499,5.562205 9.524199,5.562205 9.524199,5.124302 9.607499,5.124302" style="fill: white" /><polygon type="contour" points="9.315603,5.124302 9.315999,5.215625 9.315999,5.471277 9.315603,5.562205 9.264501,5.562205 9.198399,5.562602 8.968867,5.562602 8.877395,5.562205 8.877395,5.511102 8.877677,5.385102 8.877543,5.385102 8.877543,5.215625 8.877395,5.124302 8.968868,5.124301 9.224673,5.124301" style="fill: white" /><polygon type="contour" points="9.315603,4.916102 8.877395,4.916102 8.877395,4.832801 9.315603,4.832801" style="fill: white" /><polygon type="contour" points="9.607499,4.916102 9.524199,4.916102 9.524199,4.832801 9.607499,4.832801" style="fill: white" /><polygon type="contour" points="10.545499,4.916102 10.462899,4.916102 10.462899,4.832801 10.545499,4.832801" style="fill: white" /><polygon type="contour" points="10.254304,4.916102 9.816095,4.916102 9.816095,4.832801 10.254304,4.832801" style="fill: white" /><polygon type="contour" points="10.254304,5.124302 10.254304,5.175403 10.254024,5.301801 10.254157,5.301801 10.254157,5.471277 10.254304,5.562205 10.162832,5.562602 9.907024,5.562602 9.816095,5.562205 9.816095,5.511102 9.815701,5.445003 9.815701,5.215625 9.816095,5.124302 9.867198,5.124302 9.933301,5.124301 10.162831,5.124301" style="fill: white" /><polygon type="contour" points="10.545499,5.562205 10.462899,5.562205 10.462899,5.124302 10.545499,5.124302" style="fill: white" /><polygon type="contour" points="10.545499,6.32276 10.48623,6.323264 10.462899,6.323264 10.462899,6.062697 10.545499,6.062697" style="fill: white" /><polygon type="contour" points="10.254304,6.062697 10.254304,6.1138 10.254599,6.163077 10.254304,6.223609 10.254304,6.323753 10.213881,6.323923 10.076501,6.324011 10.076501,6.324086 9.933413,6.324086 9.933414,6.3242 9.907024,6.324194 9.816095,6.324361 9.815801,6.188566 9.815801,6.163076 9.816095,6.062697 9.867198,6.062697 9.933301,6.0623 10.162832,6.0623" style="fill: white" /><polygon type="contour" points="10.254304,5.854101 9.816095,5.854101 9.816095,5.770801 10.254304,5.770801" style="fill: white" /><polygon type="contour" points="10.545499,5.854101 10.462899,5.854101 10.462899,5.770801 10.545499,5.770801" style="fill: white" /><polygon type="contour" points="10.929801,6.062981 10.929801,6.062849 11.097367,6.062849 11.192304,6.062697 11.192304,6.1138 11.192599,6.163077 11.1927,6.307995 11.1927,6.321215 11.192085,6.321215 11.192081,6.321216 11.192068,6.321209 11.131116,6.321895 11.071089,6.322123 11.071093,6.320838 11.011438,6.322274 10.999975,6.322234 10.872,6.322234 10.872,6.322345 10.846294,6.322322 10.754095,6.32226 10.753801,6.188264 10.753801,6.163076 10.754095,6.062697 10.805197,6.062697" style="fill: white" /><polygon type="contour" points="11.192304,5.854101 10.754095,5.854101 10.754095,5.770801 11.192304,5.770801" style="fill: white" /><polygon type="contour" points="11.4842,5.854101 11.400899,5.854101 11.400899,5.770801 11.4842,5.770801" style="fill: white" /><polygon type="contour" points="11.4842,5.471276 11.484199,5.562205 11.400899,5.562205 11.400899,5.124302 11.4842,5.124302" style="fill: white" /><polygon type="contour" points="11.192304,5.124302 11.192304,5.175403 11.1927,5.241901 11.1927,5.471277 11.192304,5.562205 11.139681,5.562205 11.013101,5.561926 11.013101,5.562054 10.846294,5.562054 10.754095,5.562205 10.754095,5.511102 10.754379,5.385104 10.754244,5.385101 10.754244,5.215625 10.754095,5.124302 10.846294,5.124301 11.097366,5.124301" style="fill: white" /><polygon type="contour" points="11.192304,4.916102 10.754095,4.916102 10.754095,4.832801 11.192304,4.832801" style="fill: white" /><polygon type="contour" points="11.4842,4.916102 11.400899,4.916102 11.400899,4.832801 11.4842,4.832801" style="fill: white" /><polygon type="contour" points="11.4842,4.624205 11.400899,4.624205 11.400899,4.103766 11.424428,4.103766 11.4259,4.103662 11.4842,4.103662" style="fill: white" /><polygon type="contour" points="11.070901,4.106855 11.070901,4.103982 11.097367,4.104055 11.192304,4.103876 11.1927,4.279815 11.191925,4.363802 11.1927,4.363802 11.1927,4.533277 11.192304,4.624205 11.139682,4.624205 11.013101,4.623928 11.013101,4.624055 10.846293,4.624055 10.754095,4.624205 10.754095,4.573102 10.754379,4.447103 10.754244,4.447101 10.754244,4.363802 10.754787,4.363802 10.754244,4.279816 10.754095,4.103876 10.789981,4.103927 10.869903,4.104092 10.872,4.104092 10.872,4.106623 10.944087,4.103329 10.999966,4.103329" style="fill: white" /><polygon type="contour" points="10.522168,4.103766 10.545499,4.103766 10.545499,4.624205 10.462899,4.624205 10.462899,4.103717 10.482503,4.103755 10.513717,4.103717 10.520633,4.103592" style="fill: white" /><polygon type="contour" points="10.076501,4.10372 10.162831,4.103688 10.254304,4.103876 10.254157,4.279815 10.253609,4.363802 10.254157,4.363802 10.254157,4.533277 10.254304,4.624205 10.162832,4.624058 9.907024,4.624058 9.816095,4.624205 9.816095,4.573103 9.815701,4.507001 9.815701,4.363802 9.816475,4.363802 9.815701,4.279815 9.816095,4.103876 9.856518,4.103688 9.933414,4.103584 10.076501,4.103584" style="fill: white" /><polygon type="contour" points="9.58397,4.103766 9.607499,4.103766 9.607499,4.624205 9.524199,4.624205 9.524199,4.103592 9.582422,4.103592" style="fill: white" /><polygon type="contour" points="9.224673,4.103687 9.315603,4.103876 9.315999,4.279815 9.315228,4.363802 9.315999,4.363802 9.315999,4.533277 9.315603,4.624205 9.264501,4.624205 9.138499,4.623924 9.138499,4.624058 8.968868,4.624058 8.877395,4.624205 8.877395,4.573102 8.877677,4.447102 8.877543,4.447102 8.877543,4.363802 8.87809,4.363802 8.877543,4.279816 8.877395,4.103876 8.968867,4.103688 8.995298,4.103584 9.198286,4.103584" style="fill: white" /><polygon type="contour" points="8.377455,4.279816 8.376908,4.363792 8.377456,4.363802 8.377456,4.533277 8.377605,4.624205 8.285406,4.624055 8.034333,4.624055 7.939395,4.624205 7.939395,4.573102 7.939,4.507001 7.939,4.363802 7.939774,4.363802 7.939,4.279815 7.939395,4.103876 8.034333,4.104055 8.0608,4.103982 8.259699,4.103982 8.285405,4.104055 8.377604,4.103876" style="fill: white" /><polygon type="contour" points="8.668799,4.624205 8.5862,4.624205 8.5862,4.103766 8.60953,4.103766 8.611065,4.103592 8.668799,4.103592" style="fill: white" /><polygon type="contour" points="8.668799,4.916102 8.5862,4.916102 8.5862,4.832801 8.668799,4.832801" style="fill: white" /><polygon type="contour" points="8.377605,5.124302 8.377456,5.215625 8.377456,5.471277 8.377605,5.562205 8.285405,5.562054 8.034332,5.562054 7.939395,5.562205 7.939395,5.511103 7.939,5.445003 7.939,5.215625 7.939395,5.124302 7.992019,5.124302 8.060647,5.124301 8.285405,5.124301" style="fill: white" /><polygon type="contour" points="8.377605,4.916102 7.939395,4.916102 7.939395,4.832801 8.377605,4.832801" style="fill: white" /><polygon type="contour" points="6.79302,4.916102 6.709299,4.916102 6.709299,4.832801 6.79302,4.832801" style="fill: white" /><polygon type="contour" points="6.501066,4.916102 6.19024,4.916102 6.184151,4.916204 6.167993,4.916102 6.062694,4.916102 6.062694,4.832801 6.501066,4.832801" style="fill: white" /><polygon type="contour" points="6.501305,3.969786 6.501296,3.977259 6.501066,4.103477 6.501066,4.303608 6.501067,4.303902 6.501067,4.623901 6.500379,4.623901 6.382999,4.623902 6.163075,4.6245 6.062694,4.624205 6.062694,4.573102 6.062978,4.447102 6.062843,4.447102 6.062843,4.363802 6.06339,4.363802 6.062843,4.279816 6.062694,4.103876 6.103117,4.103688 6.167962,4.103715 6.168095,3.977259 6.168074,3.913376 6.199019,3.913303 6.5012,3.913303" style="fill: white" /><polygon type="contour" points="6.792955,4.214717 6.792692,4.363802 6.792798,4.363802 6.792798,4.624205 6.709195,4.624205 6.709196,4.572896 6.709475,4.447102 6.709343,4.447102 6.709343,4.363802 6.709498,4.363802 6.709498,4.260262 6.709677,4.210076 6.7093,4.103984 6.763339,4.103734 6.79302,4.103617" style="fill: white" /><polygon type="contour" points="7.347974,4.103687 7.438904,4.103876 7.4393,4.279815 7.438525,4.363802 7.4393,4.363802 7.4393,4.533277 7.438904,4.624205 7.347975,4.624058 7.092324,4.624058 7.000999,4.624205 7.000999,4.363802 7.001002,4.363802 7.000999,4.279815 7.000999,4.103876 7.036581,4.103927 7.11644,4.103698 7.1785,4.103698 7.1785,4.103584 7.3217,4.103584" style="fill: white" /><polygon type="contour" points="7.730799,4.624205 7.6475,4.624205 7.6475,4.103766 7.730799,4.103766" style="fill: white" /><polygon type="contour" points="7.730799,4.916102 7.6475,4.916102 7.6475,4.832801 7.730799,4.832801" style="fill: white" /><polygon type="contour" points="7.438904,4.916102 7.000999,4.916102 7.000999,4.832801 7.438904,4.832801" style="fill: white" /><polygon type="contour" points="7.438904,5.124302 7.4393,5.215625 7.4393,5.471277 7.438904,5.562205 7.347975,5.562602 7.092324,5.562602 7.000999,5.562205 7.000999,5.124302 7.052103,5.124302 7.1186,5.124301 7.347974,5.124301" style="fill: white" /><polygon type="contour" points="7.730799,5.562205 7.6475,5.562205 7.6475,5.124302 7.730799,5.124302" style="fill: white" /><polygon type="contour" points="7.730799,5.854101 7.6475,5.854101 7.6475,5.770801 7.730799,5.770801" style="fill: white" /><polygon type="contour" points="7.438904,6.062697 7.438904,6.1138 7.439199,6.163076 7.438904,6.222697 7.438904,6.32086 7.398718,6.32066 7.3217,6.320586 7.3217,6.320472 7.248273,6.320472 7.118597,6.319382 7.118598,6.319771 7.092324,6.319681 7.000998,6.319948 7.000402,6.188063 7.000402,6.163076 7.000999,6.062697 7.052102,6.062697 7.1186,6.0623 7.347975,6.0623" style="fill: white" /><polygon type="contour" points="7.438904,5.854101 7.000999,5.854101 7.000999,5.770801 7.438904,5.770801" style="fill: white" /><polygon type="contour" points="6.501066,5.854101 6.062694,5.854101 6.062694,5.770801 6.501066,5.770801" style="fill: white" /><polygon type="contour" points="6.501067,5.5626 6.500379,5.5626 6.382999,5.562376 6.163075,5.562501 6.062694,5.562205 6.062694,5.511102 6.062978,5.385102 6.062843,5.385102 6.062843,5.215625 6.062694,5.124302 6.382999,5.124302 6.500379,5.124301 6.501067,5.124301" style="fill: white" /><polygon type="contour" points="6.792798,5.562205 6.709195,5.562205 6.709196,5.511198 6.709476,5.385102 6.709343,5.385102 6.709343,5.301801 6.709345,5.301801 6.709342,5.215626 6.709195,5.124302 6.792798,5.124302" style="fill: white" /><polygon type="contour" points="6.79302,5.854101 6.709299,5.854101 6.709299,5.770801 6.79302,5.770801" style="fill: white" /><polygon type="contour" points="6.792798,6.163076 6.79286,6.167995 6.792837,6.174458 6.79302,6.204424 6.79302,6.319323 6.735633,6.319552 6.7093,6.319523 6.7093,6.211564 6.709545,6.176065 6.709498,6.167995 6.709498,6.163077 6.709195,6.062697 6.792798,6.062697" style="fill: white" /><polygon type="contour" points="6.501067,6.318207 6.501066,6.318248 6.501066,6.318346 6.500836,6.318349 6.45606,6.319426 6.321802,6.321804 6.320385,6.392796 6.319426,6.456061 6.318346,6.500838 6.318343,6.501068 6.062301,6.501068 6.062301,6.50038 6.062523,6.383002 6.062402,6.163077 6.062694,6.062697 6.113798,6.062697 6.163074,6.062403 6.382999,6.062526 6.500379,6.062303 6.501067,6.062303" style="fill: white" /><polygon type="contour" points="5.562203,6.792801 5.1243,6.792801 5.1243,6.709197 5.175305,6.709198 5.301798,6.709477 5.301798,6.709345 5.471275,6.709345 5.562203,6.709197" style="fill: white" /><polygon type="contour" points="5.5626,7.092326 5.5626,7.197113 5.562598,7.321702 5.562599,7.321702 5.562599,7.347976 5.562203,7.438905 5.511101,7.438905 5.444999,7.439302 5.215624,7.439302 5.1243,7.438905 5.1243,7.387801 5.124299,7.321702 5.124299,7.092326 5.1243,7.067497 5.1243,7.001001 5.215624,7.001002 5.471274,7.001002 5.562203,7.001001" style="fill: white" /><polygon type="contour" points="6.321358,7.7308 6.062694,7.7308 6.062694,7.647501 6.321358,7.647501" style="fill: white" /><polygon type="contour" points="6.321212,7.939617 6.321213,7.939622 6.321211,7.939624 6.322233,8.075421 6.322233,8.259702 6.322344,8.259701 6.32232,8.285407 6.322258,8.377606 6.188262,8.377901 6.163075,8.377901 6.062694,8.377606 6.062694,8.326504 6.062978,8.201901 6.062846,8.201901 6.062846,8.034335 6.062694,7.939396 6.113798,7.939396 6.163074,7.939103 6.307992,7.939002 6.321212,7.939002" style="fill: white" /><polygon type="contour" points="6.322757,8.609532 6.323261,8.668801 6.062694,8.668801 6.062694,8.586201 6.322757,8.586201" style="fill: white" /><polygon type="contour" points="6.223606,8.877397 6.323751,8.877397 6.323879,8.96887 6.324036,9.014668 6.324161,9.121152 6.324084,9.124975 6.324084,9.198289 6.324198,9.198289 6.324192,9.224676 6.324359,9.315605 6.188566,9.315901 6.163075,9.315901 6.062694,9.315605 6.062298,9.224676 6.062298,8.968869 6.062694,8.877397 6.113798,8.877397 6.163075,8.877103" style="fill: white" /><polygon type="contour" points="6.325517,9.532462 6.325517,9.566201 6.324823,9.588776 6.324823,9.607501 6.062694,9.607501 6.062694,9.524201 6.324823,9.524201" style="fill: white" /><polygon type="contour" points="6.224215,9.816097 6.324359,9.816097 6.324192,9.907026 6.324198,9.933415 6.324014,9.933415 6.324161,10.059614 6.324084,10.062976 6.324084,10.10329 6.323879,10.162832 6.323751,10.254306 6.188565,10.254601 6.163075,10.254601 6.062694,10.254306 6.062694,10.203204 6.062298,10.136558 6.062298,9.907026 6.062694,9.816097 6.113798,9.816097 6.163074,9.815803" style="fill: white" /><polygon type="contour" points="6.323261,10.486232 6.322757,10.545501 6.062694,10.545501 6.062694,10.462901 6.323261,10.462901" style="fill: white" /><polygon type="contour" points="6.223302,10.754097 6.322258,10.754097 6.322297,10.79452 6.322343,10.872002 6.322233,10.872002 6.322233,11.043438 6.322017,11.097368 6.321649,11.192306 6.247732,11.192306 6.188263,11.192601 6.163075,11.192601 6.062694,11.192306 6.062846,11.097369 6.062846,10.846296 6.062694,10.754097 6.113798,10.754097 6.163074,10.753804" style="fill: white" /><polygon type="contour" points="6.321358,11.484203 6.062694,11.484203 6.062694,11.400901 6.321358,11.400901" style="fill: white" /><polygon type="contour" points="6.222695,11.692799 6.320859,11.692799 6.320659,11.732983 6.320584,11.810002 6.32047,11.810002 6.32047,11.883428 6.31938,12.013103 6.31977,12.013101 6.319679,12.039376 6.319946,12.130702 6.188062,12.1313 6.163074,12.1313 6.062694,12.130702 6.062298,12.039375 6.062298,11.783726 6.062694,11.692799 6.113798,11.692799 6.163074,11.692504" style="fill: white" /><polygon type="contour" points="5.562204,11.437099 5.562203,11.484203 5.1243,11.484203 5.1243,11.400901 5.562204,11.400901" style="fill: white" /><polygon type="contour" points="5.562203,11.692799 5.562203,11.743902 5.5626,11.810002 5.5626,12.039375 5.562202,12.064205 5.562204,12.130702 5.5111,12.130702 5.3851,12.1307 5.3851,12.130701 5.215624,12.130701 5.1243,12.130702 5.124299,12.039375 5.124299,11.934589 5.1243,11.810002 5.1243,11.692799 5.175401,11.692799 5.241898,11.692402 5.471275,11.692402" style="fill: white" /><polygon type="contour" points="5.854098,11.6928 5.854098,12.130702 5.770798,12.130702 5.770798,11.692799 5.806995,11.692799" style="fill: white" /><polygon type="contour" points="5.854098,11.484203 5.770798,11.484203 5.770798,11.400901 5.854098,11.400901" style="fill: white" /><polygon type="contour" points="5.854098,11.192306 5.770798,11.192306 5.770798,10.754097 5.854098,10.754097" style="fill: white" /><polygon type="contour" points="5.301799,10.754378 5.301799,10.754245 5.471275,10.754245 5.562203,10.754097 5.562203,10.805199 5.56192,10.929803 5.562052,10.929803 5.562052,11.097369 5.562203,11.192306 5.5111,11.192306 5.444999,11.192701 5.215624,11.192701 5.1243,11.192306 5.1243,10.995001 5.124299,10.929803 5.124299,10.846296 5.1243,10.754097 5.175401,10.754097" style="fill: white" /><polygon type="contour" points="5.562203,10.545501 5.1243,10.545501 5.1243,10.462901 5.562203,10.462901" style="fill: white" /><polygon type="contour" points="5.854098,10.545501 5.770798,10.545501 5.770798,10.462901 5.854098,10.462901" style="fill: white" /><polygon type="contour" points="5.854098,10.254306 5.770798,10.254306 5.770798,9.816097 5.854098,9.816097" style="fill: white" /><polygon type="contour" points="5.562203,9.816097 5.5626,9.907026 5.5626,10.162833 5.562203,10.254306 5.5111,10.254306 5.3851,10.254023 5.3851,10.254158 5.215623,10.254158 5.1243,10.254306 5.1243,10.203203 5.124298,10.136558 5.124299,10.136558 5.124299,9.907027 5.1243,9.816097 5.215624,9.815702 5.471275,9.815702" style="fill: white" /><polygon type="contour" points="5.562203,9.607501 5.1243,9.607501 5.1243,9.524201 5.562203,9.524201" style="fill: white" /><polygon type="contour" points="5.854098,9.607501 5.770798,9.607501 5.770798,9.524201 5.854098,9.524201" style="fill: white" /><polygon type="contour" points="5.854098,9.315605 5.770798,9.315605 5.770798,8.877397 5.854098,8.877397" style="fill: white" /><polygon type="contour" points="5.562203,8.928501 5.5626,8.995145 5.5626,9.224676 5.562203,9.315605 5.511101,9.315605 5.445,9.316002 5.215624,9.316002 5.1243,9.315605 5.124299,9.224676 5.124299,8.96887 5.1243,8.877397 5.215623,8.877546 5.471275,8.877546 5.562203,8.877397" style="fill: white" /><polygon type="contour" points="5.562203,8.668801 5.1243,8.668801 5.1243,8.586201 5.562203,8.586201" style="fill: white" /><polygon type="contour" points="5.854098,8.668801 5.770798,8.668801 5.770798,8.586201 5.854098,8.586201" style="fill: white" /><polygon type="contour" points="5.854098,8.377606 5.770798,8.377606 5.770798,7.939396 5.854098,7.939396" style="fill: white" /><polygon type="contour" points="5.241899,7.939002 5.471275,7.939002 5.562203,7.939396 5.562052,8.034334 5.562052,8.285407 5.562203,8.377606 5.5111,8.377606 5.3851,8.377323 5.3851,8.377458 5.215623,8.377458 5.1243,8.377606 5.1243,8.326503 5.124299,8.259854 5.124299,8.1838 5.1243,8.060649 5.1243,7.939396 5.175402,7.939396 5.241899,7.939001" style="fill: white" /><polygon type="contour" points="5.562203,7.7308 5.1243,7.7308 5.1243,7.647501 5.562203,7.647501" style="fill: white" /><polygon type="contour" points="5.854098,7.7308 5.770798,7.7308 5.770798,7.647501 5.854098,7.647501" style="fill: white" /><polygon type="contour" points="5.854098,7.438905 5.770798,7.438905 5.770798,7.001001 5.854098,7.001001" style="fill: white" /><polygon type="contour" points="6.221781,7.001001 6.319946,7.001001 6.320182,7.041121 6.319451,7.178502 6.319884,7.178502 6.319884,7.192028 6.32047,7.261802 6.320337,7.261802 6.320692,7.347976 6.320859,7.438905 6.188061,7.4392 6.163075,7.4392 6.062694,7.438905 6.062694,7.387802 6.062298,7.321702 6.062298,7.092326 6.062694,7.067497 6.062694,7.001001 6.113797,7.001001 6.163075,7.000404" style="fill: white" /><polygon type="contour" points="6.114005,6.709198 6.163074,6.709501 6.167993,6.709501 6.176064,6.709548 6.319522,6.709301 6.319549,6.735634 6.319322,6.793022 6.204421,6.793023 6.174458,6.79284 6.167993,6.792863 6.163074,6.792801 6.062694,6.792801 6.062694,6.709197" style="fill: white" /><polygon type="contour" points="5.854098,6.793023 5.827768,6.793023 5.770798,6.793022 5.770798,6.7093 5.854098,6.7093" style="fill: white" /><polygon type="contour" points="5.854098,6.501068 5.770798,6.501068 5.770798,6.062697 5.854098,6.062697" style="fill: white" /><polygon type="contour" points="5.301798,6.06298 5.301798,6.062846 5.471275,6.062846 5.562203,6.062697 5.562203,6.1138 5.562498,6.163076 5.562374,6.383001 5.562598,6.500381 5.562598,6.501068 5.124299,6.501068 5.124299,6.500381 5.1243,6.383001 5.1243,6.062697 5.175402,6.062697" style="fill: white" /><polygon type="contour" points="5.562203,5.854101 5.1243,5.854101 5.1243,5.770801 5.562203,5.770801" style="fill: white" /><polygon type="contour" points="5.854098,5.854101 5.770798,5.854101 5.770798,5.770801 5.854098,5.770801" style="fill: white" /><polygon type="contour" points="5.854098,5.562205 5.770798,5.562205 5.770798,5.124302 5.854098,5.124302" style="fill: white" /><polygon type="contour" points="5.562203,5.124302 5.562599,5.215625 5.562599,5.320412 5.5626,5.385102 5.5626,5.471277 5.562203,5.562205 5.511101,5.562205 5.444999,5.562602 5.215624,5.562602 5.1243,5.562205 5.1243,5.511102 5.124299,5.445003 5.124299,5.215626 5.1243,5.124302 5.175402,5.124302 5.241899,5.124301 5.471274,5.124301" style="fill: white" /><polygon type="contour" points="5.562203,4.916102 5.1243,4.916102 5.1243,4.832801 5.562203,4.832801" style="fill: white" /><polygon type="contour" points="5.854098,4.916102 5.770798,4.916102 5.770798,4.832801 5.854098,4.832801" style="fill: white" /><polygon type="contour" points="5.854098,4.624205 5.770798,4.624205 5.770798,4.103766 5.854098,4.103766" style="fill: white" /><polygon type="contour" points="5.471275,4.103688 5.562202,4.103876 5.5626,4.279816 5.5626,4.533277 5.562204,4.624205 5.511101,4.624205 5.3851,4.623924 5.3851,4.624058 5.215624,4.624058 5.1243,4.624205 5.1243,4.573102 5.124299,4.507002 5.124299,4.279816 5.1243,4.103876 5.164418,4.103688 5.241898,4.103584 5.445001,4.103584" style="fill: white" /><polygon type="contour" points="4.9161,4.533276 4.916101,4.624205 4.832799,4.624205 4.832799,4.103766 4.9161,4.103766" style="fill: white" /><polygon type="contour" points="4.9161,4.916102 4.832799,4.916102 4.832799,4.832801 4.9161,4.832801" style="fill: white" /><polygon type="contour" points="4.624203,4.916102 4.103765,4.916102 4.103765,4.832801 4.624203,4.832801" style="fill: white" /><polygon type="contour" points="4.624203,5.124302 4.624057,5.215625 4.624057,5.320412 4.624055,5.445003 4.624056,5.445003 4.624056,5.471277 4.624203,5.562205 4.573099,5.562205 4.506999,5.562602 4.279815,5.562602 4.103874,5.562205 4.103686,5.522021 4.103583,5.445002 4.103583,5.241901 4.103582,5.241901 4.103686,5.215625 4.103874,5.124302 4.279815,5.124301 4.533274,5.124301" style="fill: white" /><polygon type="contour" points="4.9161,5.562205 4.832799,5.562205 4.832799,5.124302 4.9161,5.124302" style="fill: white" /><polygon type="contour" points="4.9161,5.854101 4.832799,5.854101 4.832799,5.770801 4.9161,5.770801" style="fill: white" /><polygon type="contour" points="4.624203,5.854101 4.103765,5.854101 4.103765,5.770801 4.624203,5.770801" style="fill: white" /><polygon type="contour" points="4.624203,6.1138 4.624499,6.163078 4.6239,6.383001 4.6239,6.501068 4.103475,6.501068 4.083161,6.501144 3.977258,6.501298 3.913301,6.501202 3.913301,6.199022 3.913374,6.168077 3.961931,6.168249 3.977257,6.168098 4.103703,6.168248 4.103874,6.062697 4.279815,6.062846 4.363801,6.063389 4.363801,6.062846 4.533275,6.062846 4.624203,6.062697" style="fill: white" /><polygon type="contour" points="4.9161,6.501068 4.832799,6.501068 4.832799,6.062697 4.9161,6.062697" style="fill: white" /><polygon type="contour" points="4.9161,6.793023 4.832799,6.793023 4.832799,6.7093 4.9161,6.7093" style="fill: white" /><polygon type="contour" points="4.624203,6.709197 4.624203,6.792801 4.4471,6.792801 4.382411,6.7928 4.3638,6.7928 4.3638,6.792544 4.246522,6.793045 4.169589,6.793125 4.103616,6.793023 4.103881,6.735634 4.103983,6.709301 4.210074,6.70968 4.363801,6.709386 4.363801,6.709345 4.533274,6.709345 4.624258,6.709143" style="fill: white" /><polygon type="contour" points="4.624056,7.092327 4.624056,7.197113 4.624057,7.261802 4.624057,7.347977 4.624203,7.438905 4.573099,7.438905 4.506999,7.439302 4.363801,7.439302 4.363801,7.438527 4.279815,7.439302 4.103874,7.438905 4.103687,7.347977 4.103583,7.321701 4.103583,7.178502 4.103719,7.178502 4.103687,7.092326 4.103874,7.001001 4.279815,7.001002 4.533274,7.001002 4.624203,7.001001" style="fill: white" /><polygon type="contour" points="4.9161,7.438905 4.832799,7.438905 4.832799,7.001001 4.9161,7.001001" style="fill: white" /><polygon type="contour" points="4.9161,7.7308 4.832799,7.7308 4.832799,7.647501 4.9161,7.647501" style="fill: white" /><polygon type="contour" points="4.624203,7.683697 4.624202,7.7308 4.103765,7.7308 4.103765,7.709169 4.103567,7.707272 4.10366,7.707252 4.10366,7.647501 4.624203,7.647501" style="fill: white" /><polygon type="contour" points="4.624203,7.939396 4.624052,8.034334 4.624052,8.285407 4.624203,8.377606 4.5731,8.377606 4.447101,8.377323 4.4471,8.377458 4.363801,8.377458 4.363801,8.376914 4.279815,8.377457 4.103875,8.377605 4.104053,8.285408 4.10398,8.259702 4.10398,8.188775 4.103497,8.163663 4.103327,8.146021 4.105356,8.060801 4.10398,8.0608 4.104053,8.034335 4.103874,7.939396 4.279815,7.939002 4.363787,7.939776 4.363801,7.939002 4.533275,7.939002" style="fill: white" /><polygon type="contour" points="4.9161,8.377606 4.832799,8.377606 4.832799,7.939396 4.9161,7.939396" style="fill: white" /><polygon type="contour" points="4.9161,8.668801 4.832799,8.668801 4.832799,8.586201 4.9161,8.586201" style="fill: white" /><polygon type="contour" points="4.624203,8.668801 4.20339,8.668801 4.20339,8.586201 4.624203,8.586201" style="fill: white" /><polygon type="contour" points="4.624203,8.9285 4.623925,9.055202 4.624057,9.055202 4.624057,9.073813 4.624055,9.198402 4.624056,9.198402 4.624056,9.224677 4.624203,9.315605 4.573099,9.315605 4.506999,9.316002 4.363801,9.316002 4.363801,9.315227 4.279815,9.316002 4.103874,9.315605 4.103687,9.224677 4.103583,9.198289 4.103583,8.995302 4.103582,8.995302 4.103687,8.950414 4.103724,8.950415 4.103874,8.877397 4.279815,8.877546 4.363801,8.878093 4.363801,8.877546 4.533275,8.877546 4.624203,8.877397" style="fill: white" /><polygon type="contour" points="4.9161,9.315605 4.832799,9.315605 4.832799,8.877397 4.9161,8.877397" style="fill: white" /><polygon type="contour" points="4.9161,9.607501 4.832799,9.607501 4.832799,9.524201 4.9161,9.524201" style="fill: white" /><polygon type="contour" points="4.624203,9.607501 4.103765,9.607501 4.103765,9.547729 4.103676,9.524201 4.624203,9.524201" style="fill: white" /><polygon type="contour" points="4.624203,9.816097 4.624056,9.907026 4.624056,10.162832 4.624203,10.254306 4.5731,10.254306 4.4471,10.254023 4.4471,10.254158 4.363801,10.254158 4.363801,10.25361 4.279815,10.254157 4.103874,10.254305 4.103687,10.162833 4.103583,10.136402 4.103583,9.933414 4.103687,9.907026 4.103874,9.816097 4.279815,9.815702 4.363801,9.816479 4.363801,9.815702 4.533275,9.815702" style="fill: white" /><polygon type="contour" points="4.9161,10.254306 4.832799,10.254306 4.832799,9.816097 4.9161,9.816097" style="fill: white" /><polygon type="contour" points="4.9161,10.545501 4.832799,10.545501 4.832799,10.462901 4.9161,10.462901" style="fill: white" /><polygon type="contour" points="4.624203,10.545501 4.103765,10.545501 4.103765,10.524151 4.103567,10.522169 4.10359,10.522165 4.10359,10.462901 4.624203,10.462901" style="fill: white" /><polygon type="contour" points="4.624203,10.805199 4.62392,10.929803 4.624052,10.929803 4.624052,11.097369 4.624203,11.192306 4.5731,11.192306 4.506999,11.192701 4.363801,11.192701 4.363787,11.19193 4.279815,11.192701 4.103875,11.192306 4.104053,11.097369 4.10398,11.070903 4.10398,10.872002 4.104053,10.846296 4.103874,10.754097 4.279815,10.754245 4.363791,10.754792 4.3638,10.754245 4.533275,10.754245 4.624203,10.754097" style="fill: white" /><polygon type="contour" points="4.9161,11.097368 4.916101,11.192306 4.832799,11.192306 4.832799,10.754097 4.9161,10.754097" style="fill: white" /><polygon type="contour" points="4.916101,11.460674 4.9161,11.484203 4.832799,11.484203 4.832799,11.400901 4.916101,11.400901" style="fill: white" /><polygon type="contour" points="4.624203,11.484203 4.103765,11.484203 4.103766,11.424429 4.103677,11.400901 4.624203,11.400901" style="fill: white" /><polygon type="contour" points="4.624203,11.692799 4.624056,11.783726 4.624056,12.039375 4.624203,12.130702 4.573099,12.130702 4.4471,12.1307 4.4471,12.130701 4.3039,12.130701 4.3039,12.130702 4.279814,12.130701 4.103874,12.130702 4.103925,12.094882 4.103925,12.090582 4.103583,11.974361 4.103583,11.810002 4.103687,11.783726 4.103874,11.692799 4.279815,11.692402 4.363801,11.693176 4.363801,11.692402 4.533275,11.692402" style="fill: white" /><polygon type="contour" points="4.9161,12.039375 4.916101,12.130702 4.832799,12.130702 4.832799,11.692799 4.9161,11.692799" style="fill: white" /><polygon type="contour" points="4.9161,12.421703 4.832799,12.421703 4.832799,12.33868 4.9161,12.33868" style="fill: white" /><polygon type="contour" points="5.301799,12.630908 5.301799,12.630636 5.562013,12.630636 5.562598,12.630635 5.562598,12.631322 5.562374,12.748702 5.562498,12.968626 5.562203,13.069006 5.5111,13.069006 5.3851,13.068723 5.3851,13.068858 5.215623,13.068858 5.1243,13.069006 5.1243,12.748701 5.124299,12.631323 5.124299,12.630635 5.241679,12.630635" style="fill: white" /><polygon type="contour" points="5.562203,12.421806 5.511196,12.421805 5.444999,12.422203 5.215624,12.422203 5.1243,12.421806 5.1243,12.338901 5.562203,12.338901" style="fill: white" /><polygon type="contour" points="5.854098,12.421703 5.770798,12.421703 5.770798,12.33868 5.854098,12.33868" style="fill: white" /><polygon type="contour" points="6.319549,12.395591 6.319522,12.421702 6.211564,12.421702 6.176064,12.422109 6.167993,12.422141 6.163075,12.422102 6.062694,12.421806 6.062694,12.338901 6.163074,12.338901 6.167993,12.338839 6.174457,12.338862 6.204422,12.33868 6.319322,12.33868" style="fill: white" /><polygon type="contour" points="6.318347,12.630866 6.319426,12.675642 6.320705,12.746276 6.321657,12.809183 6.392793,12.811317 6.45606,12.812277 6.500836,12.813353 6.501066,12.813356 6.501067,12.813496 6.501067,13.069401 6.500378,13.069401 6.383,13.069176 6.163075,13.0693 6.062694,13.069006 6.062694,13.017904 6.062402,12.968626 6.062523,12.748701 6.062301,12.631323 6.062301,12.630635 6.318343,12.630635" style="fill: white" /><polygon type="contour" points="5.854098,13.069006 5.770798,13.069006 5.770798,12.630635 5.854098,12.630635" style="fill: white" /><polygon type="contour" points="5.854098,13.360903 5.770798,13.360903 5.770798,13.2776 5.854098,13.2776" style="fill: white" /><polygon type="contour" points="5.562203,13.324704 5.562203,13.360903 5.1243,13.360903 5.1243,13.2776 5.562204,13.2776" style="fill: white" /><polygon type="contour" points="5.562203,13.569499 5.562203,13.6206 5.5626,13.686702 5.5626,13.916076 5.562203,14.007403 5.5111,14.007403 5.3851,14.007401 5.3851,14.007402 5.215624,14.007402 5.1243,14.007403 5.124299,13.916076 5.124299,13.660427 5.1243,13.569499 5.215624,13.569103 5.471275,13.569103" style="fill: white" /><polygon type="contour" points="5.854098,14.007403 5.770798,14.007403 5.770798,13.569499 5.854098,13.569499" style="fill: white" /><polygon type="contour" points="5.854098,14.298903 5.770798,14.298903 5.770798,14.215603 5.854098,14.215603" style="fill: white" /><polygon type="contour" points="5.562203,14.298903 5.1243,14.298903 5.1243,14.215603 5.562203,14.215603" style="fill: white" /><polygon type="contour" points="5.301799,14.507776 5.301799,14.507645 5.471275,14.507645 5.562203,14.507499 5.562203,14.5586 5.5626,14.624702 5.5626,14.851886 5.562202,15.027827 5.522019,15.027777 5.445001,15.028006 5.301799,15.028006 5.301799,15.027985 5.215624,15.028015 5.1243,15.027826 5.124299,14.851887 5.124299,14.598428 5.1243,14.507499 5.175401,14.507499" style="fill: white" /><polygon type="contour" points="4.9161,14.007403 4.832799,14.007403 4.832799,13.569499 4.9161,13.569499" style="fill: white" /><polygon type="contour" points="4.9161,14.298903 4.832799,14.298903 4.832799,14.215603 4.9161,14.215603" style="fill: white" /><polygon type="contour" points="4.624203,14.298903 4.103765,14.298903 4.103765,14.215603 4.624203,14.215603" style="fill: white" /><polygon type="contour" points="4.624203,14.5586 4.623922,14.684603 4.624056,14.684603 4.624056,14.767902 4.623512,14.767902 4.624056,14.851887 4.624203,15.027827 4.583778,15.027777 4.506887,15.028006 4.313688,15.028006 4.246673,15.027828 4.246673,15.120479 4.24669,15.189088 4.246722,15.218179 4.239468,15.218196 4.237543,15.218527 3.913513,15.218188 3.913513,15.143555 3.913594,15.107657 3.913373,14.885126 3.96193,14.885312 3.977257,14.885105 4.104026,14.885277 4.103583,14.801542 4.103583,14.624816 4.103687,14.598428 4.103874,14.507499 4.279815,14.507645 4.363801,14.508192 4.363801,14.507645 4.533275,14.507645 4.624203,14.507499" style="fill: white" />
</svg>
