<svg width="19.131698" height="19.131699">
<polygon type="contour" points="10.895874,7.421852 10.895603,7.530812 10.895388,7.581433 10.895588,7.644735 10.895759,7.716669 10.895759,7.731769 10.598681,7.731769 10.598698,7.717394 10.598392,7.644736 10.598588,7.581432 10.598485,7.530812 10.599041,7.42054 10.599015,7.393197 10.895841,7.393197" style="fill: white" /><polygon type="contour" points="10.89548,6.778908 10.89548,6.917821 10.623634,6.91742 10.602906,6.91742 10.602546,6.879723 10.601516,6.628012 10.680523,6.626869 10.895614,6.626462" style="fill: white" /><polygon type="contour" points="12.407882,6.629218 12.503226,6.628477 12.502196,6.724317 12.505,6.917347 12.46625,6.917554 12.45609,6.918127 12.423762,6.918127 12.214279,6.91742 12.214221,6.707481 12.214221,6.626865" style="fill: white" /><polygon type="contour" points="11.738505,6.802214 11.738181,6.91208 11.738181,6.920207 11.720608,6.920207 11.637905,6.920369 11.486967,6.920162 11.399915,6.919848 11.399933,6.911117 11.399933,6.802387 11.414307,6.802331 11.486967,6.802867 11.550268,6.803123 11.600889,6.802923 11.711162,6.802167" style="fill: white" /><polygon type="contour" points="11.73831,7.624689 11.738268,7.644736 11.73831,7.731788 11.629437,7.731738 11.486966,7.731738 11.399933,7.731769 11.399933,7.716669 11.399965,7.644736 11.399965,7.502265 11.399915,7.393393 11.415907,7.393393 11.486966,7.393435 11.600889,7.393344 11.738504,7.393197" style="fill: white" /><polygon type="contour" points="12.329535,7.420539 12.328778,7.530813 12.328579,7.581432 12.328836,7.644736 12.329371,7.717394 12.329316,7.731769 12.220582,7.731769 12.211851,7.731788 12.211851,7.715794 12.211538,7.644736 12.211333,7.493796 12.211496,7.393522 12.219622,7.393522 12.329488,7.393197" style="fill: white" /><polygon type="contour" points="12.503568,8.366266 12.503462,8.530459 12.424268,8.529054 12.214279,8.528797 12.214279,8.236246 12.222074,8.236229 12.458581,8.235979 12.504974,8.235979" style="fill: white" /><polygon type="contour" points="11.738505,8.532687 11.711161,8.532661 11.600889,8.533217 11.550269,8.533114 11.486967,8.53331 11.414306,8.533004 11.399933,8.533021 11.399933,8.235943 11.415031,8.235943 11.486966,8.236113 11.550269,8.236313 11.600889,8.236098 11.738505,8.235861" style="fill: white" /><polygon type="contour" points="10.895614,8.379628 10.895614,8.529014 10.776025,8.527435 10.753151,8.525226 10.608655,8.523046 10.609649,8.392323 10.606475,8.378549 10.604266,8.355675 10.602687,8.236089 10.895955,8.236089" style="fill: white" /><polygon type="contour" points="8.525818,8.340757 8.523044,8.523046 8.392322,8.522053 8.378547,8.525225 8.355672,8.527436 8.236087,8.529015 8.236087,8.236089 8.529013,8.236089" style="fill: white" /><polygon type="contour" points="8.366263,6.628132 8.530457,6.628238 8.529052,6.707433 8.529062,6.917655 8.256972,6.91742 8.236244,6.91742 8.236221,6.778909 8.236086,6.715304 8.235977,6.673119 8.235977,6.626727" style="fill: white" /><polygon type="contour" points="8.53266,7.420539 8.533215,7.530812 8.533112,7.581432 8.533309,7.644736 8.533003,7.717394 8.53302,7.731769 8.235941,7.731769 8.235941,7.716669 8.236111,7.644735 8.236311,7.581433 8.236096,7.530812 8.235859,7.393197 8.532686,7.393197" style="fill: white" /><polygon type="contour" points="6.912078,7.393522 6.920205,7.393522 6.920205,7.411094 6.920367,7.493797 6.920161,7.644735 6.919847,7.731788 6.911115,7.731769 6.802385,7.731769 6.802329,7.717394 6.802864,7.644736 6.803121,7.581432 6.802921,7.530812 6.802165,7.420539 6.802212,7.393197" style="fill: white" /><polygon type="contour" points="6.917419,6.91742 6.909167,6.91742 6.855395,6.917655 6.67561,6.918127 6.665449,6.917554 6.6267,6.917347 6.629504,6.724316 6.628475,6.628477 6.833907,6.627503 6.917419,6.626372" style="fill: white" /><polygon type="contour" points="7.53081,6.802923 7.58143,6.803123 7.644734,6.802867 7.717393,6.802331 7.731768,6.802387 7.731768,6.911117 7.731786,6.919849 7.715794,6.919849 7.644733,6.920163 7.493795,6.92037 7.39352,6.920207 7.39352,6.91208 7.393196,6.802215 7.420538,6.802168" style="fill: white" /><polygon type="contour" points="7.624686,7.393392 7.644734,7.393435 7.731786,7.393393 7.731736,7.502265 7.731736,7.644735 7.731768,7.731769 7.716669,7.731769 7.644733,7.731738 7.502262,7.731738 7.393391,7.731788 7.393391,7.715794 7.393433,7.644736 7.393344,7.530812 7.393196,7.393196" style="fill: white" /><polygon type="contour" points="7.53081,8.236098 7.581431,8.236313 7.644733,8.236113 7.716669,8.235943 7.731768,8.235943 7.731768,8.533021 7.717394,8.533004 7.644733,8.533309 7.58143,8.533114 7.53081,8.533217 7.420538,8.532661 7.393196,8.532687 7.393196,8.235861 7.42185,8.235828" style="fill: white" /><polygon type="contour" points="6.707479,8.236051 6.778907,8.236223 6.917819,8.236223 6.917419,8.508068 6.917419,8.528797 6.879722,8.529156 6.628009,8.530185 6.626867,8.451178 6.626725,8.235979 6.673117,8.235979" style="fill: white" /><polygon type="contour" points="6.707431,10.60265 6.917419,10.602907 6.917419,10.895457 6.909623,10.895475 6.673117,10.895725 6.626725,10.895725 6.62813,10.765438 6.628236,10.601246" style="fill: white" /><polygon type="contour" points="7.644734,12.211539 7.731786,12.211852 7.731768,12.220583 7.731768,12.329318 7.717394,12.329373 7.644733,12.328838 7.581431,12.328581 7.53081,12.32878 7.420538,12.329536 7.393196,12.329489 7.39352,12.219621 7.39352,12.211497 7.411093,12.211497 7.493794,12.211334" style="fill: white" /><polygon type="contour" points="6.917418,12.214281 6.917477,12.42422 6.917477,12.504837 6.723817,12.502486 6.628475,12.503227 6.629504,12.407387 6.6267,12.214356 6.665448,12.213994 6.67561,12.213577 6.707938,12.213577" style="fill: white" /><polygon type="contour" points="6.919847,11.415908 6.92016,11.486968 6.920367,11.637907 6.920205,11.738182 6.912078,11.738182 6.802212,11.738507 6.802165,11.711163 6.802921,11.600891 6.803121,11.55027 6.802865,11.486969 6.802329,11.414309 6.802385,11.399935 6.911115,11.399935 6.919847,11.399917" style="fill: white" /><polygon type="contour" points="7.502262,11.399967 7.644733,11.399967 7.731768,11.399935 7.731768,11.415034 7.731736,11.486968 7.731736,11.629438 7.731786,11.73831 7.715793,11.73831 7.644734,11.738268 7.53081,11.738359 7.393196,11.738507 7.393391,11.507015 7.393433,11.486968 7.393391,11.399917" style="fill: white" /><polygon type="contour" points="7.731768,10.598683 7.731768,10.895761 7.716669,10.895761 7.644733,10.89559 7.581431,10.89539 7.53081,10.895605 7.393196,10.895843 7.393196,10.599017 7.420538,10.599043 7.53081,10.598487 7.58143,10.59859 7.644734,10.598394" style="fill: white" /><polygon type="contour" points="8.340755,10.605885 8.523043,10.608657 8.527433,10.776028 8.529013,10.895616 8.236087,10.895616 8.236087,10.602689" style="fill: white" /><polygon type="contour" points="8.533003,11.414308 8.533309,11.486969 8.533112,11.55027 8.533215,11.60089 8.53266,11.711164 8.532686,11.738507 8.235859,11.738507 8.235827,11.709851 8.236097,11.600891 8.236311,11.550271 8.236111,11.486968 8.235941,11.415033 8.235941,11.399935 8.53302,11.399935" style="fill: white" /><polygon type="contour" points="8.508066,12.214281 8.528795,12.214281 8.529154,12.251977 8.530184,12.50369 8.451177,12.504833 8.236087,12.505241 8.236221,12.352794 8.236221,12.213883" style="fill: white" /><polygon type="contour" points="10.874727,12.214281 10.895456,12.214281 10.89548,12.352793 10.895613,12.416397 10.895723,12.458583 10.895723,12.504975 10.765436,12.503569 10.601243,12.503463 10.602648,12.424268 10.602637,12.214049" style="fill: white" /><polygon type="contour" points="10.895759,11.415033 10.895589,11.486968 10.895389,11.550271 10.895603,11.600891 10.895841,11.738507 10.599015,11.738507 10.599041,11.711163 10.598485,11.60089 10.598588,11.550271 10.598392,11.486968 10.598681,11.399935 10.895759,11.399935" style="fill: white" /><polygon type="contour" points="10.895955,10.746228 10.895955,10.895616 10.602687,10.895616 10.604266,10.776027 10.606474,10.753154 10.608655,10.608657 10.776025,10.604267 10.895614,10.602689" style="fill: white" /><polygon type="contour" points="11.550269,10.59859 11.600889,10.598487 11.711161,10.599043 11.738505,10.599017 11.738505,10.895843 11.709849,10.895876 11.600889,10.895605 11.550269,10.895391 11.486966,10.895591 11.415031,10.895761 11.399933,10.895761 11.399933,10.598683 11.414306,10.5987 11.486967,10.598394" style="fill: white" /><polygon type="contour" points="12.504832,10.680525 12.504974,10.895725 12.458582,10.895725 12.424218,10.895652 12.352791,10.895481 12.213881,10.895481 12.214279,10.623635 12.214279,10.602906 12.251976,10.602547 12.503689,10.601519" style="fill: white" /><polygon type="contour" points="12.220582,11.399935 12.329316,11.399935 12.329371,11.414308 12.328836,11.486968 12.328579,11.550271 12.328778,11.60089 12.329535,11.711163 12.329488,11.738507 12.219622,11.738182 12.211496,11.738182 12.211496,11.720608 12.211333,11.637907 12.211538,11.486968 12.211851,11.399917" style="fill: white" /><polygon type="contour" points="11.73831,11.415908 11.738268,11.486968 11.738357,11.600891 11.738505,11.738507 11.507013,11.73831 11.486966,11.738268 11.399915,11.73831 11.399965,11.629438 11.399965,11.486969 11.399933,11.399935 11.415032,11.399935 11.486966,11.399967 11.629437,11.399967 11.73831,11.399917" style="fill: white" /><polygon type="contour" points="11.738181,12.211496 11.738181,12.219621 11.738505,12.329489 11.711162,12.329536 11.600889,12.32878 11.550268,12.328581 11.486966,12.328838 11.414306,12.329373 11.399933,12.329318 11.399933,12.220583 11.399915,12.211852 11.415906,12.211852 11.486967,12.211539 11.637905,12.211334" style="fill: white" /><polygon type="contour" points="12.466251,12.213994 12.505,12.214356 12.502196,12.407387 12.503226,12.503227 12.297792,12.5042 12.214279,12.505332 12.214279,12.484802 12.214046,12.214049 12.276304,12.214049 12.456089,12.213577" style="fill: white" />
</svg>
