<svg width="19.131698" height="19.131699">
<polygon type="contour" points="14.289584,16.693587 14.771661,16.693863 14.771661,16.762093 14.771957,16.836607 14.771788,16.877403 14.771504,16.892895 14.771768,16.929676 14.771554,16.932416 14.771554,16.979507 14.771704,16.981792 14.77172,17.026422 14.581055,17.026872 14.43897,17.026872 14.438794,16.931473 14.231873,16.931608 14.151465,16.931556 14.166892,16.751928 14.163092,16.693316" style="fill: white" /><polygon type="contour" points="14.771958,15.599859 14.771956,15.601932 14.771707,15.723634 14.771968,15.795329 14.772033,15.934214 14.608905,15.934304 14.162531,15.934304 14.164824,15.839835 14.167212,15.795329 14.166253,15.723634 14.168084,15.601933 14.167979,15.599583 14.771958,15.599583" style="fill: white" /><polygon type="contour" points="17.02642,16.69322 17.026322,16.791994 17.026768,16.991677 17.026768,17.02677 16.874407,17.026929 16.873503,17.026774 16.693153,17.026356 16.693397,16.979508 16.693397,16.932417 16.693329,16.930826 16.693362,16.894859 16.693384,16.879535 16.693592,16.836395 16.693592,16.693595 16.836394,16.693595 16.879534,16.693385 16.894857,16.693364 16.930824,16.693332 16.979506,16.6934 16.98179,16.693205" style="fill: white" /><polygon type="contour" points="15.723632,16.693466 15.795328,16.69347 15.906363,16.693592 15.934212,16.693592 15.934212,16.836396 15.910961,16.836347 15.795329,16.836272 15.723632,16.836265 15.601931,16.836254 15.59983,16.836256 15.599582,16.836256 15.599581,16.836036 15.599581,16.693459 15.599883,16.693459 15.601932,16.693457" style="fill: white" /><polygon type="contour" points="15.93443,15.599582 15.934431,15.601932 15.934301,15.79533 15.934212,15.934214 15.602444,15.934434 15.599581,15.934434 15.599578,15.930441 15.599578,15.601932 15.599582,15.599583 15.599858,15.599583 15.601932,15.599579 15.930438,15.599579" style="fill: white" /><polygon type="contour" points="16.693656,15.599583 16.836254,15.599583 16.836254,15.599831 16.836252,15.601932 16.836261,15.723633 16.83627,15.79533 16.836345,15.910962 16.836394,15.934214 16.69359,15.934214 16.69359,15.906364 16.693468,15.795329 16.693462,15.723633 16.693453,15.601932 16.693455,15.599582" style="fill: white" /><polygon type="contour" points="16.931789,14.214678 16.931478,14.318852 16.931484,14.33841 16.931471,14.438829 17.026868,14.438971 17.026868,14.581057 17.02642,14.771722 16.979505,14.771555 16.929674,14.771771 16.892892,14.771505 16.877399,14.771791 16.836604,14.771959 16.765305,14.771959 16.693861,14.771664 16.693649,14.284948 16.693692,14.150568 16.814103,14.150315 16.931644,14.144362" style="fill: white" /><polygon type="contour" points="15.795328,14.167215 15.934341,14.167683 15.934341,14.351112 15.934001,14.608827 15.934212,14.772036 15.908499,14.772084 15.795329,14.77197 15.723632,14.771708 15.601932,14.771956 15.599858,14.771959 15.599582,14.771959 15.599582,14.16798 15.602239,14.16808 15.723633,14.166256" style="fill: white" /><polygon type="contour" points="14.772075,14.164846 14.772085,14.1905 14.771767,14.291672 14.771957,14.771959 14.285939,14.772085 14.155302,14.771767 14.163721,14.574624 14.166419,14.515329 14.164561,14.327815 14.196698,14.327213 14.211269,14.326502 14.271418,14.32305 14.316245,14.316243 14.323047,14.271422 14.3265,14.21127 14.327211,14.196701 14.327813,14.164564 14.3758,14.156368" style="fill: white" /><polygon type="contour" points="14.77172,2.105282 14.771554,2.152195 14.771768,2.202028 14.771504,2.238808 14.771788,2.2543 14.771957,2.295094 14.771957,2.366393 14.771661,2.437839 14.289583,2.438118 14.163092,2.438387 14.166893,2.379774 14.151401,2.200115 14.231873,2.200095 14.438828,2.200227 14.43897,2.104833 14.581055,2.104833" style="fill: white" /><polygon type="contour" points="15.934212,4.359668 15.934001,4.522874 15.934341,4.780593 15.934341,4.964022 15.838735,4.965268 15.795328,4.96449 15.723633,4.965449 15.601932,4.963619 15.599582,4.963723 15.599582,4.359745 15.599858,4.359745 15.601932,4.359747 15.723633,4.359994 15.795329,4.359732 15.908499,4.359619" style="fill: white" /><polygon type="contour" points="16.877399,4.359914 16.892891,4.360198 16.929673,4.359934 16.932415,4.36015 16.979506,4.36015 16.98179,4.359998 17.02642,4.359983 17.026868,4.550646 17.026868,4.692732 16.931469,4.692909 16.931804,4.899218 16.931772,4.980669 16.819008,4.96783 16.693692,4.981136 16.693649,4.846757 16.693861,4.36004 16.762088,4.36004 16.836604,4.359745" style="fill: white" /><polygon type="contour" points="16.836345,3.220741 16.83627,3.336373 16.836261,3.408069 16.836251,3.52977 16.836253,3.532119 16.693455,3.532119 16.693455,3.531816 16.693453,3.529769 16.693462,3.408069 16.693468,3.336373 16.69359,3.22534 16.693591,3.19749 16.836394,3.19749" style="fill: white" /><polygon type="contour" points="17.026768,2.104933 17.026768,2.140026 17.026322,2.339709 17.02642,2.438483 16.979506,2.438304 16.932415,2.438304 16.930824,2.438372 16.894858,2.43834 16.879533,2.438318 16.836393,2.438109 16.693594,2.438109 16.693594,2.372689 16.693592,2.295309 16.693384,2.252167 16.693362,2.236843 16.693329,2.200877 16.693397,2.152195 16.693203,2.149912 16.693153,2.105348 16.873504,2.104929 16.874408,2.104774" style="fill: white" /><polygon type="contour" points="15.934213,2.30727 15.934213,2.438108 15.906362,2.438108 15.795329,2.438232 15.723632,2.438238 15.601932,2.438247 15.599883,2.438245 15.599581,2.438245 15.599582,2.438043 15.599582,2.295444 15.59983,2.295444 15.601931,2.295446 15.723632,2.295438 15.795329,2.295433 15.910961,2.295357 15.934212,2.295309" style="fill: white" /><polygon type="contour" points="15.795329,3.1974 15.934213,3.19749 15.934212,3.225339 15.934301,3.336373 15.934432,3.52977 15.934431,3.532119 15.930438,3.532123 15.601931,3.532123 15.599582,3.532119 15.599582,3.531842 15.599578,3.529769 15.599578,3.201262 15.599581,3.19727 15.601931,3.19727" style="fill: white" /><polygon type="contour" points="14.772034,3.19749 14.772082,3.223204 14.771968,3.336373 14.771707,3.408068 14.771956,3.52977 14.771958,3.532119 14.167978,3.532119 14.168079,3.529462 14.166253,3.408069 14.165833,3.404003 14.167212,3.336374 14.162532,3.1974 14.608906,3.1974" style="fill: white" /><polygon type="contour" points="14.771957,4.359745 14.771767,4.84003 14.772085,4.9412 14.772075,4.966857 14.3758,4.975335 14.327813,4.967139 14.327211,4.935001 14.3265,4.920432 14.323048,4.860283 14.316244,4.815453 14.271418,4.808654 14.196697,4.804489 14.164561,4.803887 14.166419,4.616373 14.155302,4.359936 14.285939,4.359618" style="fill: white" /><polygon type="contour" points="4.9764,4.359936 4.967979,4.557078 4.96528,4.616373 4.967137,4.803887 4.935,4.804489 4.92043,4.805201 4.860281,4.808653 4.815451,4.815453 4.808652,4.860283 4.805197,4.920432 4.804486,4.935001 4.803885,4.967139 4.755898,4.975335 4.359624,4.966857 4.359614,4.9412 4.359932,4.84003 4.359743,4.359745 4.845762,4.359618" style="fill: white" /><polygon type="contour" points="4.966875,3.291867 4.964488,3.336373 4.965447,3.408069 4.963618,3.52977 4.963722,3.532119 4.359743,3.532119 4.359743,3.531841 4.359745,3.52977 4.359992,3.408068 4.359729,3.336373 4.359664,3.19749 4.522793,3.1974 4.969169,3.1974" style="fill: white" /><polygon type="contour" points="4.692907,2.200227 4.79329,2.200214 4.812849,2.200221 4.917025,2.19991 4.987342,2.200056 4.980754,2.349569 4.968608,2.438387 4.842114,2.438118 4.360039,2.437839 4.360039,2.36961 4.359743,2.295095 4.359912,2.2543 4.360197,2.238809 4.359933,2.202027 4.360147,2.199287 4.360147,2.152195 4.359995,2.149911 4.359981,2.105282 4.550645,2.104833 4.69273,2.104833" style="fill: white" /><polygon type="contour" points="2.438107,3.225339 2.438231,3.336373 2.438236,3.408069 2.438246,3.529769 2.438244,3.532119 2.295441,3.532119 2.295442,3.531871 2.295443,3.529769 2.295437,3.408069 2.295432,3.336374 2.295355,3.22074 2.295308,3.19749 2.438107,3.19749" style="fill: white" /><polygon type="contour" points="2.258195,2.104929 2.438547,2.105348 2.438302,2.152195 2.438302,2.199287 2.438371,2.200877 2.438339,2.236843 2.438316,2.252168 2.438107,2.295309 2.438107,2.438109 2.295307,2.438109 2.252166,2.438317 2.236841,2.43834 2.200875,2.438372 2.152194,2.438304 2.149911,2.438498 2.10528,2.438483 2.105378,2.339709 2.104931,2.140026 2.104931,2.104933 2.257289,2.104774" style="fill: white" /><polygon type="contour" points="3.220739,2.295357 3.336371,2.295433 3.408067,2.295438 3.529767,2.295446 3.531868,2.295444 3.532118,2.295444 3.532117,2.295663 3.532117,2.438245 3.531814,2.438245 3.529767,2.438247 3.408067,2.438238 3.336371,2.438232 3.225338,2.438108 3.197488,2.438108 3.197488,2.295309" style="fill: white" /><polygon type="contour" points="3.532121,3.201262 3.532121,3.52977 3.532118,3.532119 3.531841,3.532119 3.529767,3.532123 3.201261,3.532123 3.197269,3.532119 3.197268,3.52977 3.197398,3.336373 3.197488,3.19749 3.529255,3.19727 3.532117,3.19727" style="fill: white" /><polygon type="contour" points="3.336371,4.359732 3.408066,4.359994 3.529767,4.359747 3.531841,4.359745 3.532118,4.359745 3.532118,4.963723 3.529439,4.963623 3.408066,4.965449 3.336372,4.96449 3.19736,4.964022 3.19736,4.780592 3.197699,4.522875 3.197488,4.359668 3.223202,4.359619" style="fill: white" /><polygon type="contour" points="2.437836,4.36004 2.438052,4.846757 2.43801,4.981136 2.312693,4.96783 2.199929,4.980669 2.199896,4.899218 2.200225,4.692875 2.104831,4.692732 2.104831,4.550647 2.10528,4.359983 2.152194,4.36015 2.202026,4.359934 2.238807,4.360198 2.254299,4.359914 2.295093,4.359745 2.366392,4.359745" style="fill: white" /><polygon type="contour" points="2.34777,14.144687 2.438009,14.150568 2.438052,14.284947 2.437837,14.771664 2.369608,14.771664 2.295094,14.77196 2.254299,14.771791 2.238806,14.771505 2.202026,14.771771 2.199286,14.771555 2.152193,14.771555 2.14991,14.771706 2.10528,14.771722 2.104831,14.581056 2.104831,14.438971 2.200225,14.438795 2.200212,14.33841 2.200221,14.318851 2.199908,14.214678 2.200055,14.144362" style="fill: white" /><polygon type="contour" points="3.529768,14.168085 3.532118,14.16798 3.532118,14.771959 3.531841,14.771959 3.529767,14.771956 3.408067,14.771709 3.336371,14.77197 3.223202,14.772084 3.197488,14.772036 3.197699,14.608827 3.19736,14.351111 3.19736,14.167683 3.292965,14.166436 3.336371,14.167215 3.408067,14.166256" style="fill: white" /><polygon type="contour" points="4.803885,14.164564 4.804487,14.196701 4.805199,14.211271 4.808651,14.271421 4.815451,14.316244 4.860281,14.32305 4.935,14.327213 4.967136,14.327815 4.96528,14.51533 4.976398,14.771767 4.845762,14.772085 4.359743,14.771959 4.359932,14.291672 4.359614,14.1905 4.359624,14.164846 4.755898,14.156368" style="fill: white" /><polygon type="contour" points="4.963622,15.602221 4.965448,15.723634 4.965866,15.7277 4.964488,15.795329 4.969169,15.934304 4.522793,15.934304 4.359665,15.934213 4.359617,15.908499 4.35973,15.795329 4.359992,15.723634 4.359745,15.601932 4.359743,15.599583 4.963722,15.599583" style="fill: white" /><polygon type="contour" points="4.97094,16.747801 4.987342,16.931645 4.917024,16.931789 4.812849,16.931482 4.79329,16.931488 4.692873,16.931473 4.69273,17.026872 4.550645,17.026872 4.359981,17.026422 4.360147,16.979508 4.359933,16.929675 4.360197,16.892896 4.359912,16.877403 4.359743,16.836608 4.359743,16.765308 4.360039,16.693863 4.842114,16.693587 4.968608,16.693316" style="fill: white" /><polygon type="contour" points="3.531814,16.693459 3.532117,16.693459 3.532118,16.69366 3.532118,16.836256 3.531868,16.836256 3.529768,16.836254 3.500376,16.836138 3.408067,16.836265 3.336371,16.836272 3.220739,16.836347 3.197488,16.836396 3.197488,16.693592 3.225337,16.693592 3.336372,16.69347 3.408067,16.693466 3.529767,16.693457" style="fill: white" /><polygon type="contour" points="3.532118,15.599583 3.532118,15.599859 3.532121,15.601932 3.532121,15.930441 3.532117,15.934434 3.529767,15.934434 3.336371,15.934302 3.197488,15.934214 3.197488,15.906364 3.197398,15.795329 3.197268,15.601932 3.197269,15.599582 3.201261,15.599579 3.529768,15.599579" style="fill: white" /><polygon type="contour" points="2.438244,15.599884 2.438246,15.601933 2.438236,15.723633 2.438231,15.79533 2.438107,15.906363 2.438107,15.934214 2.295308,15.934214 2.295355,15.910963 2.295432,15.795329 2.295437,15.723633 2.295443,15.601933 2.295441,15.599583 2.295662,15.599582 2.438244,15.599582" style="fill: white" /><polygon type="contour" points="2.152193,16.6934 2.199285,16.6934 2.200876,16.693332 2.236842,16.693364 2.252165,16.693384 2.295308,16.693595 2.438107,16.693595 2.438107,16.836396 2.438317,16.879535 2.438339,16.89486 2.43837,16.930825 2.438302,16.979508 2.438496,16.981792 2.438547,17.026356 2.258194,17.026774 2.257289,17.02693 2.104931,17.02677 2.104931,16.991677 2.105378,16.791994 2.10528,16.69322" style="fill: white" />
</svg>
