<svg width="19.131698" height="19.131699">
<polygon type="contour" points="9.270061,10.34954 9.183917,10.349434 9.166239,10.349386 9.150078,10.349436 9.064935,10.349581 9.064935,10.216888 9.150079,10.21704 9.177561,10.21704 9.183917,10.216989 9.270061,10.216645" style="fill: white" /><polygon type="contour" points="9.711101,10.516664 9.634784,10.516292 9.566071,10.5176 9.515078,10.516317 9.497283,10.516292 9.4206,10.516664 9.4206,10.216808 9.711101,10.216808" style="fill: white" /><polygon type="contour" points="10.066853,9.629532 10.066656,9.711102 9.86164,9.711102 9.86164,9.420602 10.066853,9.420602" style="fill: white" /><polygon type="contour" points="10.518369,8.79535 10.517551,8.815673 10.516463,8.91433 10.459248,8.91433 10.308216,8.914187 10.217514,8.914187 10.217364,8.767847 10.217364,8.699983 10.217345,8.654553 10.21754,8.650231 10.218653,8.61455 10.280111,8.614836 10.523938,8.607764" style="fill: white" /><polygon type="contour" points="9.616621,8.615386 9.634418,8.615411 9.711101,8.61504 9.711101,8.914684 9.4206,8.914684 9.4206,8.61504 9.496914,8.615411 9.5655,8.614103" style="fill: white" /><polygon type="contour" points="8.851588,8.614836 8.913047,8.61455 8.914355,8.654553 8.914355,8.693559 8.914334,8.699983 8.914185,8.873806 8.914185,8.914187 8.823483,8.914187 8.672452,8.91433 8.615237,8.91433 8.61415,8.815674 8.613332,8.795351 8.607762,8.607764" style="fill: white" /><polygon type="contour" points="9.150078,8.782268 9.166239,8.782318 9.183917,8.782271 9.270061,8.782165 9.270061,8.91486 9.183917,8.914666 9.17756,8.914664 9.150079,8.914664 9.064935,8.914815 9.064935,8.782124" style="fill: white" /><polygon type="contour" points="8.914662,9.150081 8.914662,9.177563 8.914712,9.183918 8.915057,9.270063 8.782163,9.270063 8.782269,9.183918 8.782316,9.166241 8.782266,9.15008 8.782122,9.064938 8.914813,9.064938" style="fill: white" /><polygon type="contour" points="9.269984,9.150046 9.269984,9.177537 9.270061,9.243702 9.270061,9.270063 9.183916,9.269986 9.156328,9.269986 9.089857,9.270063 9.064092,9.270063 9.065329,9.183918 9.065302,9.177563 9.06542,9.177563 9.064935,9.090448 9.064935,9.064938 9.150079,9.065303 9.177561,9.065303 9.183916,9.065282 9.27007,9.064849" style="fill: white" /><polygon type="contour" points="9.711101,9.270063 9.4206,9.270063 9.4206,9.064849 9.711101,9.064849" style="fill: white" /><polygon type="contour" points="9.947783,9.065282 9.967457,9.065347 10.041255,9.064938 10.066764,9.064938 10.066399,9.150081 10.066399,9.177563 10.066419,9.183918 10.067806,9.270063 9.981655,9.269986 9.947783,9.269986 9.927875,9.270063 9.86164,9.270063 9.861717,9.183918 9.861717,9.150046 9.86164,9.063894" style="fill: white" /><polygon type="contour" points="10.066764,8.914815 9.98162,8.914664 9.954139,8.914664 9.947783,8.914666 9.86164,8.91486 9.86164,8.782165 9.947782,8.782271 9.96546,8.782318 9.981621,8.782268 10.066764,8.782124" style="fill: white" /><polygon type="contour" points="10.349434,9.15008 10.349384,9.166241 10.349432,9.183918 10.349538,9.270063 10.216841,9.270063 10.217036,9.183919 10.217038,9.177562 10.217038,9.15008 10.216886,9.064938 10.349579,9.064938" style="fill: white" /><polygon type="contour" points="10.517878,9.539559 10.517752,9.565502 10.517336,9.693542 10.51742,9.711102 10.216805,9.711102 10.216805,9.508483 10.217017,9.420602 10.51742,9.420602" style="fill: white" /><polygon type="contour" points="10.517551,10.31603 10.518369,10.33635 10.523938,10.52394 10.280112,10.516868 10.218653,10.517155 10.217345,10.47715 10.217345,10.438145 10.217364,10.431721 10.217514,10.257899 10.217514,10.217516 10.308215,10.217516 10.459249,10.217372 10.516463,10.217372" style="fill: white" /><polygon type="contour" points="10.349432,9.947784 10.349384,9.965462 10.349433,9.981623 10.349578,10.066765 10.216886,10.066765 10.217038,9.981623 10.217038,9.95414 10.216987,9.947784 10.216643,9.861641 10.349538,9.861641" style="fill: white" /><polygon type="contour" points="10.066372,9.947785 10.066399,9.954141 10.066281,9.954141 10.066764,10.041255 10.066764,10.066765 9.954139,10.066283 9.954139,10.066401 9.939592,10.066401 9.861631,10.066658 9.861717,9.981609 9.861717,9.954166 9.86164,9.888001 9.86164,9.861641 9.947782,9.861719 9.97537,9.861719 10.041841,9.861641 10.067608,9.861641" style="fill: white" /><polygon type="contour" points="9.947782,10.216989 9.954138,10.21704 9.981621,10.21704 10.066764,10.216888 10.066764,10.349581 9.981621,10.349436 9.96546,10.349386 9.947782,10.349434 9.86164,10.34954 9.86164,10.216645" style="fill: white" /><polygon type="contour" points="9.711101,10.066658 9.4206,10.066658 9.4206,9.861641 9.711101,9.861641" style="fill: white" /><polygon type="contour" points="9.711101,9.711102 9.4206,9.711102 9.4206,9.420602 9.711101,9.420602" style="fill: white" /><polygon type="contour" points="9.270061,9.861641 9.269984,9.947785 9.269984,9.981609 9.27007,10.066658 9.183916,10.066374 9.177561,10.066401 9.177561,10.066283 9.090445,10.066765 9.064935,10.066765 9.06542,9.954141 9.065302,9.95414 9.065302,9.939623 9.065044,9.861633 9.150092,9.861719 9.183916,9.861719 9.203613,9.861633" style="fill: white" /><polygon type="contour" points="9.270061,9.711102 9.065044,9.711102 9.065044,9.420602 9.270061,9.420602" style="fill: white" /><polygon type="contour" points="8.914895,9.711102 8.614281,9.711102 8.613821,9.592144 8.613946,9.566201 8.614365,9.438161 8.614281,9.420602 8.914895,9.420602" style="fill: white" /><polygon type="contour" points="8.914712,9.947784 8.914662,9.95414 8.914662,9.981623 8.914813,10.066765 8.782122,10.066765 8.782267,9.981623 8.782316,9.965462 8.782269,9.947784 8.782163,9.861641 8.915057,9.861641" style="fill: white" /><polygon type="contour" points="8.823484,10.217516 8.914185,10.217516 8.914334,10.363854 8.914334,10.431721 8.914355,10.477151 8.914158,10.481473 8.913047,10.517155 8.851588,10.516868 8.607762,10.52394 8.613332,10.33635 8.61415,10.316029 8.615237,10.217372 8.672451,10.217372" style="fill: white" />
</svg>
