<svg width="19.131698" height="19.131699">
<polygon type="contour" points="10.716998,10.626304 10.717186,10.638635 10.71839,10.676731 10.718511,10.67966 10.719305,10.687468 10.719384,10.719387 10.663703,10.717813 10.655502,10.717487 10.651329,10.717434 10.438631,10.720098 10.436343,10.652745 10.436343,10.588147 10.435963,10.585015 10.435708,10.573272 10.435609,10.550104 10.435609,10.435611 10.716703,10.435611" style="fill: white" /><polygon type="contour" points="9.229812,10.435293 9.229812,10.549537 9.156443,10.549734 9.127818,10.54985 9.127818,10.465246 9.127819,10.435278 9.156442,10.435241" style="fill: white" /><polygon type="contour" points="8.986601,10.517629 8.986661,10.54985 8.959135,10.549769 8.887706,10.549662 8.887706,10.435427 8.926821,10.435427 8.986601,10.435278" style="fill: white" /><polygon type="contour" points="8.696091,10.550104 8.695991,10.573272 8.695737,10.585015 8.695357,10.652746 8.693069,10.720098 8.48037,10.717434 8.467997,10.717812 8.412316,10.719387 8.414513,10.638635 8.414702,10.626304 8.414997,10.435611 8.696091,10.435611" style="fill: white" /><polygon type="contour" points="8.696461,9.975259 8.696424,10.003883 8.614073,10.003883 8.581853,10.003884 8.581967,9.97526 8.582166,9.90189 8.696409,9.90189" style="fill: white" /><polygon type="contour" points="8.696424,10.145102 8.696275,10.204881 8.696275,10.243996 8.582042,10.243996 8.581933,10.172566 8.581853,10.145041 8.666455,10.145041" style="fill: white" /><polygon type="contour" points="8.986661,10.218225 8.986601,10.243803 8.926821,10.243996 8.887706,10.243996 8.8879,10.172566 8.8879,10.145102 8.959136,10.145102 8.986661,10.145041" style="fill: white" /><polygon type="contour" points="9.230043,10.145088 9.230043,10.173098 9.230179,10.244534 9.156442,10.244181 9.127819,10.243803 9.127819,10.172566 9.127818,10.145041 9.203594,10.145041" style="fill: white" /><polygon type="contour" points="9.229812,9.711102 9.127844,9.711102 9.127844,9.420602 9.229812,9.420602" style="fill: white" /><polygon type="contour" points="9.188832,9.90189 9.229812,9.90189 9.230043,9.975259 9.230043,10.003859 9.156443,10.003859 9.127818,10.003884 9.127818,9.928106 9.127844,9.901659" style="fill: white" /><polygon type="contour" points="8.958603,9.901659 8.986614,9.901659 8.986614,9.97526 8.986661,10.003884 8.913476,10.003884 8.8879,10.003883 8.887522,9.97526 8.887169,9.901522" style="fill: white" /><polygon type="contour" points="8.986614,9.711102 8.887169,9.711102 8.887169,9.536269 8.887448,9.420602 8.986614,9.420602" style="fill: white" /><polygon type="contour" points="8.696595,9.587594 8.696297,9.711102 8.411254,9.711102 8.410824,9.671676 8.411334,9.565502 8.411743,9.521826 8.411255,9.420602 8.696595,9.420602" style="fill: white" /><polygon type="contour" points="8.695357,8.478958 8.695357,8.543556 8.695737,8.546689 8.69599,8.558432 8.696091,8.581599 8.696091,8.696093 8.414997,8.696093 8.414702,8.505399 8.414513,8.493068 8.41331,8.454972 8.413188,8.452042 8.412394,8.444235 8.412315,8.412317 8.467997,8.413892 8.476197,8.414216 8.48037,8.41427 8.693068,8.411604" style="fill: white" /><polygon type="contour" points="9.230043,8.958604 9.230043,8.986616 9.156443,8.986616 9.127818,8.986663 9.127818,8.913477 9.127819,8.887901 9.156442,8.887523 9.230179,8.887171" style="fill: white" /><polygon type="contour" points="9.230043,9.127845 9.229812,9.188834 9.229812,9.229814 9.156442,9.230045 9.127844,9.230045 9.127844,9.156444 9.127818,9.127819 9.203594,9.127819" style="fill: white" /><polygon type="contour" points="8.986661,9.203596 8.986614,9.230045 8.925658,9.229814 8.885801,9.229814 8.887718,9.156443 8.8879,9.127821 8.959135,9.127821 8.986661,9.127819" style="fill: white" /><polygon type="contour" points="8.696424,9.127821 8.696657,9.156443 8.69669,9.229814 8.582166,9.229814 8.581967,9.156443 8.581853,9.127819 8.666455,9.127819" style="fill: white" /><polygon type="contour" points="8.696275,8.926822 8.696424,8.986602 8.614072,8.986602 8.581853,8.986663 8.581933,8.959137 8.582042,8.887708 8.696275,8.887708" style="fill: white" /><polygon type="contour" points="8.959135,8.887901 8.986601,8.887901 8.986601,8.959137 8.986661,8.986663 8.913476,8.986663 8.8879,8.986602 8.887706,8.926823 8.887706,8.887708" style="fill: white" /><polygon type="contour" points="8.986661,8.666457 8.986601,8.696426 8.926821,8.696277 8.887706,8.696277 8.887706,8.582043 8.959135,8.581935 8.986661,8.581855" style="fill: white" /><polygon type="contour" points="9.156443,8.58197 9.229812,8.582168 9.229812,8.696411 9.156442,8.696463 9.127819,8.696426 9.127819,8.614075 9.127818,8.581855" style="fill: white" /><polygon type="contour" points="9.676996,8.414863 9.711101,8.415139 9.711101,8.696597 9.544107,8.696597 9.4206,8.696299 9.4206,8.415139 9.518932,8.411922 9.566199,8.411347" style="fill: white" /><polygon type="contour" points="9.711101,8.88745 9.711101,8.986616 9.4206,8.986616 9.4206,8.887171 9.595432,8.887171" style="fill: white" /><polygon type="contour" points="10.720875,9.460027 10.720366,9.566201 10.719957,9.609877 10.720445,9.711102 10.435104,9.711102 10.435104,9.420602 10.720445,9.420602" style="fill: white" /><polygon type="contour" points="10.549733,9.156443 10.549535,9.229814 10.43501,9.229814 10.435043,9.156443 10.435276,9.127821 10.517628,9.127821 10.549848,9.127819" style="fill: white" /><polygon type="contour" points="10.549768,8.959137 10.549848,8.986663 10.465244,8.986663 10.435276,8.986602 10.435425,8.926822 10.435425,8.887708 10.549659,8.887708" style="fill: white" /><polygon type="contour" points="10.651329,8.41427 10.663702,8.413892 10.719384,8.412317 10.717186,8.493068 10.716998,8.505399 10.716703,8.696093 10.435609,8.696093 10.435609,8.581599 10.435708,8.558432 10.435964,8.546689 10.436343,8.478958 10.438631,8.411604" style="fill: white" /><polygon type="contour" points="10.172564,8.581935 10.243994,8.582043 10.243994,8.696277 10.204879,8.696277 10.1451,8.696426 10.1451,8.614075 10.14504,8.581855" style="fill: white" /><polygon type="contour" points="10.003882,8.696426 9.975257,8.696659 9.901888,8.696692 9.901888,8.582168 9.975258,8.581969 10.003882,8.581855" style="fill: white" /><polygon type="contour" points="9.975258,8.887719 10.003882,8.887901 10.003882,8.986663 9.928103,8.986663 9.901657,8.986616 9.901657,8.958801 9.901888,8.885803" style="fill: white" /><polygon type="contour" points="10.2438,8.959137 10.2438,8.986602 10.172563,8.986602 10.14504,8.986663 10.14504,8.913478 10.1451,8.887901 10.204879,8.887708 10.243994,8.887708" style="fill: white" /><polygon type="contour" points="10.2438,9.127821 10.243981,9.156443 10.244252,9.230182 10.1729,9.230045 10.145087,9.230045 10.145087,9.156444 10.14504,9.127819 10.218223,9.127819" style="fill: white" /><polygon type="contour" points="10.003882,9.203596 10.003857,9.230045 9.942867,9.229814 9.901888,9.229814 9.901657,9.156443 9.901657,9.127845 9.975258,9.127845 10.003882,9.127819" style="fill: white" /><polygon type="contour" points="9.711101,9.229814 9.4206,9.229814 9.4206,9.127845 9.711101,9.127845" style="fill: white" /><polygon type="contour" points="9.711101,9.711102 9.4206,9.711102 9.4206,9.420602 9.711101,9.420602" style="fill: white" /><polygon type="contour" points="9.711101,10.003859 9.4206,10.003859 9.4206,9.90189 9.711101,9.90189" style="fill: white" /><polygon type="contour" points="9.711101,10.244534 9.4206,10.244534 9.4206,10.145088 9.711101,10.145088" style="fill: white" /><polygon type="contour" points="10.204879,10.435427 10.243994,10.435427 10.243994,10.549662 10.172564,10.54977 10.14504,10.54985 10.14504,10.465246 10.145099,10.435278" style="fill: white" /><polygon type="contour" points="10.549768,10.172566 10.549659,10.243996 10.435425,10.243996 10.435425,10.204881 10.435276,10.145102 10.517628,10.145102 10.549848,10.145041" style="fill: white" /><polygon type="contour" points="10.549733,9.97526 10.549848,10.003884 10.465244,10.003884 10.435276,10.003883 10.435043,9.975259 10.43501,9.90189 10.549535,9.90189" style="fill: white" /><polygon type="contour" points="10.244253,9.711102 10.145087,9.711102 10.145087,9.420602 10.244253,9.420602" style="fill: white" /><polygon type="contour" points="10.003857,9.711102 9.901888,9.711102 9.901888,9.420602 10.003857,9.420602" style="fill: white" /><polygon type="contour" points="10.003857,9.975259 10.003882,10.003884 9.928104,10.003884 9.901657,10.003859 9.901888,9.942869 9.901888,9.90189 9.975257,9.901659 10.003857,9.901659" style="fill: white" /><polygon type="contour" points="10.243981,9.97526 10.2438,10.003883 10.172564,10.003883 10.14504,10.003884 10.14504,9.928105 10.145087,9.901659 10.204675,9.901522 10.244252,9.901522" style="fill: white" /><polygon type="contour" points="10.2438,10.145102 10.243994,10.204881 10.243994,10.243996 10.172564,10.243803 10.1451,10.243803 10.1451,10.172566 10.14504,10.145041 10.218224,10.145041" style="fill: white" /><polygon type="contour" points="10.003882,10.243803 9.975258,10.244181 9.901888,10.246183 9.901657,10.173099 9.901657,10.145088 9.975258,10.145088 10.003882,10.145041" style="fill: white" /><polygon type="contour" points="10.003882,10.435278 10.003882,10.54985 9.975258,10.549735 9.901888,10.549537 9.901888,10.435293 9.975258,10.435241" style="fill: white" /><polygon type="contour" points="9.711101,10.716564 9.612766,10.719782 9.5655,10.720357 9.454703,10.716841 9.4206,10.716565 9.4206,10.435404 9.711101,10.435404" style="fill: white" />
</svg>
