<svg width="19.131698" height="19.131699">
<polygon type="contour" points="8.764382,8.632922 8.932373,8.632139 8.93456,8.699076 8.934679,8.706225 8.93533,8.80105 9.04226,8.800456 9.042153,8.920822 9.042153,8.951078 9.04226,9.018991 9.04226,9.042261 8.96096,9.042154 8.935382,9.042154 8.834735,9.042261 8.800454,9.042261 8.800305,9.023667 8.800979,8.935367 8.634275,8.935367 8.634269,8.919566 8.633767,8.855768 8.63254,8.74444 8.632086,8.733156 8.628993,8.628995" style="fill: white" /><polygon type="contour" points="9.042373,9.393762 9.042373,9.727807 9.04226,9.795594 9.04226,9.818332 8.960959,9.817872 8.935382,9.817872 8.834735,9.818332 8.800454,9.818332 8.800315,9.79999 8.80106,9.711102 8.630434,9.711102 8.630178,9.645047 8.630558,9.566202 8.630792,9.495104 8.630434,9.420602 8.801136,9.420602 8.800454,9.313372 8.920821,9.313832 8.951075,9.313832 9.018989,9.313372 9.04226,9.313372" style="fill: white" /><polygon type="contour" points="10.499615,8.733155 10.49916,8.744441 10.497932,8.855768 10.497432,8.919566 10.497426,8.935367 10.330652,8.935367 10.331247,9.042261 10.210879,9.042154 10.180624,9.042154 10.112709,9.042261 10.089441,9.042261 10.089548,8.960962 10.089548,8.935385 10.089441,8.834738 10.089441,8.800456 10.108034,8.800308 10.197017,8.800985 10.197017,8.706225 10.199328,8.632139 10.367317,8.632922 10.502707,8.628995" style="fill: white" /><polygon type="contour" points="9.703104,8.634101 9.711101,8.634331 9.711101,8.801138 9.81833,8.800456 9.817871,8.920822 9.817871,8.951077 9.81833,9.01899 9.81833,9.042261 9.737939,9.042375 9.403895,9.042375 9.336106,9.042261 9.31337,9.042261 9.313829,8.960961 9.313829,8.935385 9.31337,8.834737 9.31337,8.800456 9.331711,8.800317 9.4206,8.801062 9.4206,8.634306 9.428557,8.6341 9.458462,8.632687 9.5655,8.630646" style="fill: white" /><polygon type="contour" points="9.818024,9.393762 9.818024,9.727807 9.81833,9.795595 9.81833,9.818332 9.73794,9.818027 9.403895,9.818027 9.336107,9.818332 9.31337,9.818332 9.313672,9.737941 9.313672,9.403896 9.31337,9.336108 9.31337,9.313372 9.39376,9.313674 9.727805,9.313674 9.795592,9.313372 9.81833,9.313372" style="fill: white" /><polygon type="contour" points="10.331386,9.331713 10.33064,9.420602 10.501267,9.420602 10.501521,9.486656 10.50114,9.565501 10.500909,9.636599 10.501267,9.711102 10.330564,9.711102 10.331247,9.818332 10.210878,9.817872 10.180623,9.817872 10.11271,9.818332 10.089441,9.818332 10.089328,9.73794 10.089328,9.403896 10.089441,9.336109 10.089441,9.313372 10.170739,9.313832 10.196317,9.313832 10.296964,9.313372 10.331247,9.313372" style="fill: white" /><polygon type="contour" points="10.331396,10.108036 10.330721,10.196337 10.497426,10.196337 10.497432,10.212138 10.497932,10.275933 10.49916,10.387263 10.499615,10.398547 10.502707,10.502709 10.367317,10.498783 10.199328,10.499564 10.197139,10.432627 10.197017,10.425476 10.196369,10.330653 10.08944,10.331249 10.089548,10.210881 10.089548,10.180626 10.089441,10.112711 10.089441,10.089443 10.170739,10.089551 10.196316,10.089551 10.296964,10.089443 10.331247,10.089443" style="fill: white" /><polygon type="contour" points="9.795593,10.089443 9.81833,10.089443 9.817871,10.170742 9.817871,10.196318 9.81833,10.296966 9.81833,10.331248 9.799988,10.331388 9.711101,10.330642 9.711101,10.497398 9.703105,10.497602 9.673057,10.499016 9.565818,10.501057 9.428556,10.497602 9.4206,10.497373 9.4206,10.330566 9.31337,10.331249 9.313829,10.21088 9.313829,10.180626 9.31337,10.112712 9.31337,10.089443 9.393761,10.08933 9.727805,10.08933" style="fill: white" /><polygon type="contour" points="9.042153,10.170741 9.042153,10.196318 9.04226,10.296965 9.04226,10.331249 9.023666,10.331397 8.934679,10.330718 8.934679,10.425477 8.932373,10.499564 8.764382,10.498783 8.628993,10.502709 8.632086,10.398547 8.63254,10.387263 8.633767,10.275933 8.634269,10.212138 8.634275,10.196337 8.801048,10.196337 8.800454,10.089443 8.92082,10.089551 8.951075,10.089551 9.018989,10.089443 9.04226,10.089443" style="fill: white" />
</svg>
