<svg width="19.131698" height="19.131699">
<polygon type="contour" points="12.199809,7.100103 12.195977,7.232032 12.1754,7.232278 12.110207,7.232455 12.110207,8.100422 12.110062,8.42929 12.196078,8.431406 12.197571,8.477327 12.202455,8.567256 12.197202,8.648214 12.197269,8.728198 12.110166,8.727724 12.110166,10.404037 12.197269,10.403504 12.197203,10.483487 12.196174,10.593095 12.196137,10.698493 12.195942,10.699834 12.195604,10.701024 12.110207,10.701024 12.110207,10.919043 12.110166,11.190766 12.110207,11.249301 12.110207,11.899246 12.175399,11.899425 12.195977,11.899672 12.199808,12.031598 12.204408,12.20441 11.907404,12.195714 11.899378,12.195651 11.899336,12.181738 11.899336,12.110128 10.954503,12.110128 10.700962,12.110204 10.700962,12.195977 10.663593,12.19697 10.654375,12.197573 10.564444,12.202456 10.483486,12.197205 10.40989,12.197002 10.407206,12.110166 8.724493,12.110166 8.721808,12.197002 8.538604,12.196176 8.433208,12.196139 8.431932,12.196161 8.430612,12.195714 8.430612,12.110167 8.178587,12.110166 7.232319,12.110166 7.232319,12.195651 7.224293,12.195714 6.927292,12.20441 6.931485,12.031599 6.935661,11.899672 6.9563,11.899425 7.021494,11.899246 7.021494,11.031281 7.021638,10.702413 6.935622,10.700297 6.934126,10.654375 6.929244,10.564448 6.934497,10.483487 6.93443,10.403504 7.021535,10.403979 7.021535,8.727665 6.934429,8.728198 6.934496,8.648214 6.935526,8.538607 6.935564,8.430449 7.021639,8.432567 7.021639,7.890776 7.021535,7.232455 6.9563,7.232278 6.935661,7.232032 6.931486,7.100104 6.927292,6.927294 7.224293,6.935987 7.232319,6.93605 7.232319,7.021426 7.466964,7.021426 7.90899,7.021499 8.429844,7.021499 8.431954,6.935672 8.45688,6.934973 8.458126,6.934895 8.477325,6.934128 8.567255,6.929247 8.648211,6.934498 8.721808,6.934702 8.724493,7.021537 10.407206,7.021537 10.409891,6.934702 10.593094,6.935527 10.698492,6.935566 10.699766,6.935542 10.701087,6.935988 10.701087,7.021537 11.899378,7.021537 11.899378,6.93605 11.907403,6.935987 12.204408,6.927294" style="fill: white" />
</svg>
