<svg width="19.131698" height="19.131699">
<polygon type="contour" points="9.615177,9.301351 9.6229,9.302301 9.658935,9.313343 9.666301,9.3156 9.700009,9.333036 9.7069,9.336601 9.737703,9.359267 9.743999,9.363901 9.770153,9.391218 9.775499,9.396801 9.796422,9.428185 9.800818,9.434602 9.81651,9.46889 9.8196,9.475901 9.829481,9.512514 9.831502,9.519999 9.834406,9.55836 9.835,9.566201 9.832095,9.603978 9.831502,9.611701 9.821619,9.648316 9.8196,9.655801 9.803908,9.690092 9.800818,9.697103 9.779896,9.728485 9.7755,9.734901 9.749346,9.762216 9.744,9.7678 9.713197,9.790468 9.706901,9.795101 9.673191,9.812537 9.666301,9.816101 9.630267,9.827143 9.622901,9.829402 9.585121,9.834051 9.577398,9.835001 9.539622,9.833258 9.531899,9.832902 9.494705,9.824765 9.487101,9.82322 9.451647,9.80927 9.4444,9.806301 9.412435,9.786542 9.4059,9.782503 9.377421,9.757509 9.371599,9.7524 9.347771,9.722761 9.342899,9.716701 9.324299,9.683574 9.320498,9.676803 9.307713,9.640769 9.305099,9.633403 9.298707,9.596207 9.2974,9.588603 9.2974,9.543101 9.303792,9.505905 9.305098,9.498302 9.317884,9.462267 9.320498,9.454901 9.339097,9.421774 9.3429,9.415002 9.366728,9.385362 9.371599,9.379303 9.400078,9.354309 9.4059,9.3492 9.4444,9.325399 9.479854,9.311452 9.487102,9.308483 9.524295,9.300347 9.531899,9.298801 9.569675,9.297059 9.577399,9.296703" style="fill: white" />
</svg>
