<svg width="19.131698" height="19.131699">
<polygon type="contour" points="8.818694,8.583895 8.881682,8.585701 8.882022,8.646525 8.882022,8.752605 8.988075,8.752238 8.988075,8.77545 8.987595,8.881933 8.987595,8.901905 8.988075,8.988078 8.971331,8.988078 8.895195,8.987598 8.872631,8.987598 8.752235,8.988078 8.752604,8.881875 8.602183,8.881875 8.585883,8.881866 8.585818,8.877891 8.576881,8.576883" style="fill: white" /><polygon type="contour" points="8.881931,9.313487 8.901902,9.313487 8.988075,9.313056 8.988075,9.330179 8.987612,9.408031 8.987612,9.730172 8.988075,9.818648 8.971331,9.818648 8.895194,9.818217 8.87263,9.818217 8.752235,9.818648 8.752661,9.711102 8.58294,9.711102 8.583466,9.599947 8.582937,9.566042 8.583466,9.532294 8.58294,9.420602 8.752661,9.420602 8.752235,9.313056 8.775447,9.313056" style="fill: white" /><polygon type="contour" points="9.40803,9.313533 9.730172,9.313533 9.818647,9.313056 9.818647,9.330179 9.81817,9.408031 9.81817,9.730173 9.818647,9.818648 9.801521,9.818648 9.72367,9.818171 9.401529,9.818171 9.313053,9.818648 9.313053,9.801522 9.31353,9.723671 9.31353,9.40153 9.313053,9.313056 9.330177,9.313056" style="fill: white" /><polygon type="contour" points="9.619699,8.584956 9.711101,8.585943 9.711101,8.752663 9.818647,8.752238 9.818647,8.775451 9.818215,8.881932 9.818215,8.901905 9.818647,8.988078 9.801521,8.988078 9.72367,8.987613 9.401529,8.987613 9.313053,8.988078 9.313053,8.971334 9.313485,8.895196 9.313485,8.872633 9.313053,8.752238 9.4206,8.752663 9.4206,8.585943 9.42246,8.585862 9.5655,8.583306" style="fill: white" /><polygon type="contour" points="10.545883,8.877892 10.545818,8.881866 10.529517,8.881875 10.510962,8.881842 10.379096,8.881842 10.379465,8.988078 10.35625,8.988078 10.249764,8.987598 10.229792,8.987598 10.143625,8.988078 10.143625,8.971334 10.144102,8.895197 10.144102,8.872632 10.143625,8.752238 10.249796,8.752606 10.249678,8.646525 10.249737,8.631479 10.250018,8.585701 10.313005,8.583895 10.554819,8.576882" style="fill: white" /><polygon type="contour" points="10.2365,9.313487 10.259065,9.313487 10.379465,9.313056 10.379039,9.420602 10.54876,9.420602 10.548233,9.531757 10.548763,9.56566 10.548233,9.59941 10.54876,9.711102 10.379039,9.711102 10.379465,9.818648 10.35625,9.818648 10.249765,9.818217 10.229793,9.818217 10.143625,9.818648 10.143625,9.801523 10.144089,9.723672 10.144089,9.40153 10.143625,9.313056 10.160367,9.313056" style="fill: white" /><polygon type="contour" points="10.236501,10.144104 10.259066,10.144104 10.379465,10.143626 10.379096,10.249826 10.529517,10.249826 10.545818,10.249836 10.545883,10.253809 10.554819,10.554821 10.313004,10.547808 10.250018,10.546004 10.249678,10.485177 10.249678,10.379097 10.143625,10.379466 10.143625,10.356252 10.144102,10.249767 10.144102,10.229796 10.143625,10.143626 10.160367,10.143626" style="fill: white" /><polygon type="contour" points="9.408029,10.144092 9.730172,10.144092 9.818647,10.143626 9.818647,10.16037 9.818215,10.236504 9.818215,10.259067 9.818647,10.379466 9.711101,10.37904 9.711101,10.545762 9.709232,10.545843 9.566042,10.548397 9.512001,10.546747 9.4206,10.545762 9.4206,10.37904 9.313053,10.379466 9.313053,10.356253 9.313485,10.249767 9.313485,10.229796 9.313053,10.143626 9.330176,10.143626" style="fill: white" /><polygon type="contour" points="8.88193,10.144104 8.901903,10.144104 8.988075,10.143626 8.988075,10.16037 8.987595,10.236504 8.987595,10.259067 8.988075,10.379466 8.8819,10.379097 8.882022,10.485177 8.881962,10.500225 8.881681,10.546004 8.818695,10.547808 8.576881,10.554821 8.585818,10.253809 8.585883,10.249836 8.602184,10.249826 8.620738,10.249859 8.752604,10.249859 8.752235,10.143626 8.775448,10.143626" style="fill: white" />
</svg>
