<svg width="19.131698" height="19.131699">
<polygon type="contour" points="10.460105,8.798879 10.459886,8.822796 10.459444,8.976252 10.412922,8.976252 10.292859,8.976301 10.292542,9.135239 10.292558,9.160387 10.292371,9.160387 10.292692,9.290361 10.29245,9.420602 10.463078,9.420602 10.462651,9.508977 10.462168,9.565816 10.462553,9.646032 10.463078,9.711102 10.292774,9.711102 10.292527,9.870872 10.292558,9.895684 10.29234,9.895685 10.292715,10.025885 10.292557,10.155403 10.459444,10.155453 10.459886,10.308907 10.460106,10.332826 10.462559,10.462561 10.176071,10.459939 10.155807,10.459444 10.155219,10.43998 10.155219,10.420939 10.155141,10.417974 10.155208,10.29286 9.996462,10.292544 9.971314,10.292559 9.971314,10.292374 9.84134,10.292693 9.711101,10.292455 9.711101,10.459408 9.674529,10.459371 9.654704,10.4598 9.565501,10.462138 9.456996,10.459372 9.4206,10.459408 9.4206,10.292802 9.260892,10.29254 9.260617,10.292529 9.236017,10.29256 9.236017,10.292343 9.105815,10.292716 8.976488,10.292562 8.97656,10.38392 8.97656,10.417974 8.976481,10.43998 8.97647,10.44176 8.975894,10.459444 8.955629,10.459939 8.669141,10.462561 8.671594,10.332825 8.671812,10.308907 8.672255,10.155453 8.718777,10.155453 8.838841,10.155403 8.839158,9.996464 8.839143,9.971316 8.839329,9.971316 8.839009,9.841343 8.83925,9.711102 8.668622,9.711102 8.669048,9.622726 8.669532,9.566201 8.669146,9.485986 8.668621,9.420602 8.838926,9.420602 8.839173,9.260832 8.839143,9.236019 8.83936,9.236019 8.838986,9.105818 8.839143,8.976301 8.672255,8.976252 8.671813,8.822796 8.671594,8.798879 8.669141,8.669143 8.955629,8.671765 8.975894,8.672259 8.976482,8.691724 8.976482,8.710764 8.97656,8.713729 8.976492,8.838843 9.135238,8.839159 9.160386,8.839144 9.160386,8.839329 9.29036,8.839011 9.4206,8.839252 9.4206,8.672296 9.457171,8.672332 9.476995,8.671901 9.56582,8.669566 9.674704,8.672332 9.711101,8.672296 9.711101,8.838903 9.870809,8.839164 9.87104,8.839174 9.895683,8.839144 9.895683,8.83936 10.025882,8.838988 10.155212,8.839141 10.155141,8.747783 10.155141,8.713729 10.155219,8.691724 10.15523,8.689943 10.155806,8.672259 10.176071,8.671765 10.462559,8.669143" style="fill: white" />
</svg>
