<svg width="19.131698" height="19.131699">
<polygon type="contour" points="10.489385,8.699231 10.489128,8.705587 10.488438,8.768277 10.488156,8.804205 10.488103,8.945407 10.385563,8.945407 10.219224,8.945221 10.186481,8.945221 10.186481,8.912477 10.187155,8.731815 10.187486,8.723729 10.187486,8.683454 10.188787,8.641734 10.414884,8.642786 10.491126,8.640576" style="fill: white" /><polygon type="contour" points="9.711101,9.109506 9.711101,9.27902 9.4206,9.27902 9.4206,9.085903 9.711465,9.085903" style="fill: white" /><polygon type="contour" points="8.912475,10.186483 8.945219,10.186483 8.945219,10.219225 8.944545,10.399889 8.944213,10.407975 8.944213,10.448248 8.942914,10.489969 8.716815,10.488917 8.640574,10.491128 8.642315,10.432471 8.642571,10.426116 8.643261,10.363425 8.643544,10.327498 8.643598,10.186297 8.746136,10.186297" style="fill: white" /><polygon type="contour" points="9.278883,10.186169 9.279018,10.220609 9.279018,10.321593 9.191975,10.321212 9.188661,10.321232 9.188661,10.321144 9.106465,10.321798 9.085901,10.321641 9.085901,10.186204 9.109548,10.186204 9.177479,10.186138 9.181372,10.186134" style="fill: white" /><polygon type="contour" points="9.279018,9.711102 9.109504,9.711102 9.085901,9.711466 9.085901,9.420602 9.279018,9.420602" style="fill: white" /><polygon type="contour" points="9.172424,9.853401 9.177488,9.853401 9.177488,9.85352 9.279018,9.852684 9.279018,9.875836 9.278453,9.928835 9.278282,9.957569 9.279315,10.045801 9.191976,10.045894 9.174133,10.045894 9.085901,10.045801 9.085901,10.022152 9.085797,9.947879 9.085901,9.852388" style="fill: white" /><polygon type="contour" points="8.945533,9.85282 8.945533,9.875899 8.94556,9.943021 8.94556,9.943022 8.945563,9.952273 8.945498,10.045801 8.810061,10.045801 8.810489,9.957569 8.810218,9.909858 8.809939,9.872986 8.810109,9.852684 8.911092,9.852684" style="fill: white" /><polygon type="contour" points="8.945748,9.711443 8.913175,9.711102 8.639244,9.711102 8.6391,9.673904 8.63962,9.566202 8.639752,9.526164 8.639244,9.420602 8.945748,9.420602" style="fill: white" /><polygon type="contour" points="8.716815,8.642787 8.942914,8.641734 8.944146,8.679428 8.944213,8.683453 8.944545,8.731814 8.944545,8.80355 8.945219,8.945221 8.912475,8.945221 8.746136,8.945407 8.643598,8.945407 8.643544,8.804204 8.643262,8.768277 8.642571,8.705587 8.642314,8.699231 8.640574,8.640576" style="fill: white" /><polygon type="contour" points="8.945498,9.10955 8.945563,9.181166 8.945533,9.279246 8.911091,9.27902 8.810109,9.27902 8.810491,9.191977 8.81047,9.188663 8.810559,9.188663 8.809904,9.106466 8.810061,9.085903 8.945498,9.085903" style="fill: white" /><polygon type="contour" points="9.279679,9.085903 9.278333,9.174135 9.278302,9.177491 9.278302,9.191977 9.279018,9.27902 9.255864,9.27902 9.183395,9.278246 9.174133,9.278334 9.08585,9.279246 9.08585,9.255806 9.0858,9.179639 9.085901,9.085903 9.109549,9.085903 9.17748,9.085808 9.182171,9.085801 9.183832,9.085799" style="fill: white" /><polygon type="contour" points="9.279018,8.810112 9.279018,8.911093 9.279244,8.945535 9.255804,8.945535 9.18868,8.945563 9.179497,8.945566 9.085901,8.9455 9.085901,8.810064 9.174132,8.810491 9.222095,8.810219 9.258717,8.809942" style="fill: white" /><polygon type="contour" points="9.642989,8.641614 9.711101,8.643581 9.711101,8.732246 9.711848,8.804204 9.711442,8.94575 9.4206,8.94575 9.4206,8.643368 9.488384,8.641614 9.505223,8.64082 9.565501,8.63967" style="fill: white" /><polygon type="contour" points="10.045799,8.810064 10.045799,8.9455 10.02215,8.9455 9.954219,8.945563 9.950482,8.945566 9.852818,8.945534 9.852683,8.911093 9.852683,8.810112 9.939724,8.810493 9.943038,8.810472 9.943038,8.81056 10.025234,8.809907" style="fill: white" /><polygon type="contour" points="10.045799,9.085903 10.045799,9.10955 10.045897,9.181267 10.04585,9.279246 9.957566,9.278334 9.95421,9.278303 9.939724,9.278303 9.852683,9.27902 9.852683,9.255867 9.853247,9.202868 9.853418,9.174134 9.852818,9.085853 9.939724,9.085808 9.957566,9.085808" style="fill: white" /><polygon type="contour" points="10.321212,9.174134 10.321482,9.221847 10.321762,9.258719 10.321592,9.27902 10.220608,9.27902 10.186167,9.279246 10.186167,9.255806 10.186132,9.179627 10.186202,9.085903 10.32164,9.085903" style="fill: white" /><polygon type="contour" points="10.492599,9.457799 10.492078,9.565502 10.491949,9.605538 10.492456,9.711102 10.185952,9.711102 10.185952,9.420602 10.492456,9.420602" style="fill: white" /><polygon type="contour" points="10.488156,10.327498 10.488438,10.363425 10.489128,10.426116 10.489384,10.432471 10.491126,10.491128 10.414885,10.488917 10.188787,10.489969 10.187553,10.452274 10.187486,10.448249 10.187156,10.399888 10.187156,10.328151 10.186481,10.186483 10.219224,10.186483 10.385563,10.186297 10.488103,10.186297" style="fill: white" /><polygon type="contour" points="10.045799,10.186204 10.045799,10.321641 9.957567,10.321214 9.909606,10.321485 9.872983,10.321763 9.852683,10.321593 9.852683,10.22061 9.852457,10.186169 9.875896,10.186169 9.952014,10.186133" style="fill: white" /><polygon type="contour" points="10.220607,9.852684 10.321592,9.852684 10.32121,9.939726 10.32123,9.94304 10.321141,9.94304 10.321797,10.025237 10.32164,10.045801 10.186202,10.045801 10.186202,10.022153 10.186133,9.950375 10.186167,9.852459" style="fill: white" /><polygon type="contour" points="10.045799,9.875671 10.0459,9.949319 10.045799,10.045801 10.022151,10.045801 9.950368,10.045899 9.852457,10.045851 9.853367,9.957568 9.853399,9.954212 9.853399,9.939726 9.852683,9.852684 9.875833,9.852684 9.948304,9.853457 9.957566,9.853369 10.045799,9.852024" style="fill: white" /><polygon type="contour" points="10.045799,9.711102 9.852683,9.711102 9.852683,9.420602 10.045799,9.420602" style="fill: white" /><polygon type="contour" points="9.711101,9.711102 9.4206,9.711102 9.4206,9.420602 9.711101,9.420602" style="fill: white" /><polygon type="contour" points="9.711101,10.045801 9.420236,10.045801 9.4206,10.022197 9.4206,9.852684 9.711101,9.852684" style="fill: white" /><polygon type="contour" points="9.711101,10.488335 9.642989,10.490089 9.626069,10.490884 9.565679,10.492033 9.488384,10.490089 9.4206,10.488123 9.4206,10.399459 9.419853,10.327498 9.420259,10.185954 9.711101,10.185954" style="fill: white" />
</svg>
