<svg width="19.131698" height="19.131699">
<polygon type="contour" points="8.828849,10.103019 9.028383,10.103019 9.028682,10.103018 9.028682,10.303309 9.028383,10.30331 8.964895,10.30331 8.964895,10.386331 8.964892,10.386685 8.964549,10.410693 8.964172,10.470662 8.820224,10.469993 8.660245,10.471457 8.661098,10.426335 8.661174,10.418018 8.661526,10.295839 8.661926,10.166486 8.744816,10.166808 8.828392,10.166808 8.828392,10.103317 8.828393,10.103018 8.828463,10.103018" style="fill: white" /><polygon type="contour" points="8.820225,8.661711 8.964172,8.661041 8.964892,8.745018 8.964892,8.828395 9.028383,8.828395 9.028682,8.828396 9.028682,9.028684 9.028635,9.028684 9.028382,9.028683 8.828848,9.028683 8.828393,9.028684 8.828392,9.028383 8.828392,8.964896 8.744816,8.964896 8.696445,8.965246 8.661925,8.965218 8.661526,8.835864 8.661174,8.713687 8.661098,8.705368 8.660245,8.660247" style="fill: white" /><polygon type="contour" points="9.028682,9.35616 9.028684,9.356415 9.028684,9.775287 9.028682,9.775591 8.828393,9.775591 8.828392,9.775288 8.828392,9.711102 8.656869,9.711102 8.657474,9.58586 8.657642,9.566202 8.65705,9.443341 8.656869,9.420602 8.828392,9.420602 8.828392,9.356415 8.828393,9.356113 9.028682,9.356113" style="fill: white" /><polygon type="contour" points="10.470601,8.705368 10.470525,8.713686 10.470173,8.835864 10.469774,8.965218 10.386883,8.964896 10.303309,8.964896 10.303309,9.028383 10.303308,9.028684 10.303237,9.028684 10.302851,9.028683 10.103315,9.028683 10.103016,9.028684 10.103016,9.028636 10.103017,9.028383 10.103017,8.828851 10.103016,8.828396 10.103315,8.828395 10.166805,8.828395 10.166805,8.745371 10.166807,8.745018 10.167151,8.721009 10.167529,8.661041 10.311475,8.661711 10.471455,8.660247" style="fill: white" /><polygon type="contour" points="9.649527,8.659785 9.711101,8.661433 9.711101,8.828395 9.775286,8.828395 9.775589,8.828396 9.775589,9.028684 9.775541,9.028684 9.775285,9.028685 9.356413,9.028685 9.356111,9.028684 9.356111,8.828396 9.356413,8.828395 9.4206,8.828395 9.4206,8.661433 9.427881,8.661274 9.565611,8.657653" style="fill: white" /><polygon type="contour" points="9.775589,9.356113 9.775589,9.35616 9.775591,9.356415 9.775591,9.775287 9.775589,9.775591 9.775541,9.775591 9.775286,9.775593 9.356414,9.775593 9.356111,9.775591 9.356111,9.775543 9.356109,9.775288 9.356109,9.356416 9.356111,9.356113 9.356158,9.356113 9.356413,9.356111 9.775285,9.356111" style="fill: white" /><polygon type="contour" points="10.303309,9.356415 10.303309,9.420602 10.474831,9.420602 10.474226,9.545843 10.474058,9.56561 10.474649,9.688471 10.474831,9.711102 10.303309,9.711102 10.303309,9.775288 10.303308,9.775591 10.103016,9.775591 10.103016,9.775543 10.103015,9.775287 10.103015,9.356415 10.103016,9.356113 10.303308,9.356113" style="fill: white" /><polygon type="contour" points="10.103316,10.103019 10.302852,10.103019 10.303308,10.103018 10.303309,10.103317 10.303309,10.166808 10.386883,10.166808 10.435254,10.166458 10.469774,10.166486 10.470173,10.295839 10.470524,10.418017 10.470602,10.426335 10.471455,10.471457 10.311475,10.469993 10.167529,10.470662 10.166808,10.386686 10.166808,10.30331 10.103315,10.30331 10.103016,10.303309 10.103016,10.303238 10.103017,10.302852 10.103017,10.103317 10.103016,10.103018 10.103063,10.103018" style="fill: white" /><polygon type="contour" points="9.775589,10.103018 9.775589,10.303309 9.775286,10.30331 9.711101,10.30331 9.711101,10.470268 9.70382,10.470425 9.5655,10.47405 9.481877,10.471918 9.4206,10.470268 9.4206,10.30331 9.356413,10.30331 9.356111,10.303309 9.356111,10.103018 9.356158,10.103018 9.356414,10.103017 9.775286,10.103017" style="fill: white" />
</svg>
