<svg width="19.131698" height="19.131699">
<polygon type="contour" points="8.807224,8.732861 8.875725,8.73501 8.909523,8.734147 8.910025,8.857984 8.908579,8.90858 8.845737,8.907823 8.77179,8.908909 8.772486,8.867123 8.771124,8.779646 8.770849,8.732719 8.797569,8.732661" style="fill: white" /><polygon type="contour" points="10.360852,8.732719 10.360532,8.775656 10.358958,8.863253 10.359729,8.908894 10.261992,8.910124 10.223119,8.908581 10.22344,8.829341 10.222177,8.734147 10.255974,8.73501 10.324476,8.732861 10.334131,8.732661" style="fill: white" /><polygon type="contour" points="10.359215,10.264578 10.360576,10.352057 10.360852,10.398985 10.334131,10.399043 10.324476,10.398843 10.255974,10.396694 10.222177,10.397557 10.221675,10.273718 10.223118,10.223121 10.28596,10.223877 10.359911,10.222793" style="fill: white" /><polygon type="contour" points="10.00335,10.003352 9.12835,10.003352 9.12835,9.128352 10.00335,9.128352" style="fill: white" /><polygon type="contour" points="8.908579,10.223121 8.908257,10.30236 8.909523,10.397557 8.875725,10.396694 8.807224,10.398843 8.797569,10.399043 8.770849,10.398985 8.771124,10.352057 8.772486,10.264578 8.77179,10.222793 8.869708,10.221579" style="fill: white" />
</svg>
