<svg width="19.131698" height="19.131699">
<polygon type="contour" points="2.57687,4.499073 2.577009,4.813586 2.576936,5.042122 2.577023,5.183381 2.529653,5.17996 2.339208,5.201643 2.339117,4.981386 2.339355,4.831988 2.243944,4.831845 2.243944,4.677444 2.244364,4.499067 2.295799,4.49925 2.350435,4.499013 2.39076,4.499303 2.407745,4.498991 2.434107,4.498882 2.530701,4.498882" style="fill: white" /><polygon type="contour" points="2.577336,3.854219 2.577133,3.962558 2.434332,3.962558 2.434492,3.864873 2.434284,3.630273 2.577112,3.630273" style="fill: white" /><polygon type="contour" points="2.577112,3.343662 2.577112,3.377432 2.459002,3.377432 2.434284,3.377499 2.434405,3.229167 2.434445,3.181815 2.577244,3.181815" style="fill: white" /><polygon type="contour" points="2.4106,2.24405 2.577637,2.244438 2.577369,2.295801 2.577369,2.347433 2.577444,2.349175 2.577409,2.388607 2.577384,2.405409 2.577244,2.434445 2.577244,2.577246 2.434444,2.577246 2.405407,2.577387 2.388605,2.577411 2.349174,2.577446 2.295799,2.577371 2.293296,2.577584 2.244364,2.577567 2.244471,2.469275 2.244053,2.28219 2.244053,2.244055 2.409618,2.243882" style="fill: white" /><polygon type="contour" points="4.832021,2.339357 4.904708,2.339348 4.918867,2.339354 4.994275,2.339126 5.174946,2.339503 5.174433,2.351136 5.199263,2.487499 5.196186,2.577477 4.925072,2.577295 4.810585,2.577051 4.499072,2.576872 4.499072,2.482259 4.49888,2.434107 4.49899,2.407747 4.499301,2.390762 4.499012,2.350437 4.499248,2.347433 4.499248,2.2958 4.499081,2.293297 4.499065,2.244366 4.677442,2.243946 4.831843,2.243946" style="fill: white" /><polygon type="contour" points="3.864871,2.434494 3.962556,2.434334 3.962556,2.577135 3.693641,2.577009 3.630271,2.577114 3.630271,2.434286" style="fill: white" /><polygon type="contour" points="3.377497,2.555309 3.37743,2.577114 3.23465,2.577245 3.181813,2.577245 3.181813,2.434446 3.343661,2.434313 3.377497,2.434286" style="fill: white" /><polygon type="contour" points="3.343661,3.182131 3.37743,3.182131 3.37743,3.343663 3.377497,3.377499 3.211978,3.377499 3.182129,3.377432 3.181813,3.234653 3.181813,3.181815" style="fill: white" /><polygon type="contour" points="3.96273,3.340138 3.96273,3.377519 3.69364,3.377519 3.630271,3.377499 3.630271,3.182131 3.693641,3.182085 3.962711,3.181752" style="fill: white" /><polygon type="contour" points="3.962556,3.845221 3.962556,3.962558 3.693641,3.962732 3.63023,3.962732 3.63023,3.693644 3.630271,3.630273 3.912066,3.630273 3.96273,3.630232" style="fill: white" /><polygon type="contour" points="3.377497,3.912069 3.377517,3.962732 3.239536,3.962712 3.181751,3.962712 3.182082,3.693644 3.18213,3.630273 3.377497,3.630273" style="fill: white" /><polygon type="contour" points="3.340136,4.499208 3.377517,4.499208 3.37743,4.702781 3.37743,5.187501 3.252773,5.196863 3.18172,5.195122 3.18172,4.799838 3.181751,4.498786" style="fill: white" /><polygon type="contour" points="3.962556,4.889799 3.962725,5.189375 3.823175,5.195447 3.630461,5.183491 3.630461,4.695869 3.63023,4.499208 3.845219,4.498882 3.962556,4.498882" style="fill: white" /><polygon type="contour" points="4.983716,4.499215 5.187432,4.499246 5.18315,4.615623 5.175318,4.916464 5.162619,4.916546 5.046045,4.918727 5.034087,4.919312 4.98472,4.922146 4.973308,4.923877 4.924599,4.924598 4.923874,4.97331 4.922143,4.984721 4.919308,5.034089 4.918725,5.046046 4.916544,5.162621 4.916553,5.162693 4.916549,5.162918 4.916538,5.164749 4.916463,5.175321 4.894422,5.176342 4.727402,5.204867 4.498926,5.19998 4.498797,4.874615 4.499002,4.809238 4.49888,4.498882 4.812942,4.498801" style="fill: white" /><polygon type="contour" points="5.174864,3.630671 5.177064,3.709434 5.174525,3.79011 5.182753,3.89703 5.18166,3.962971 5.046359,3.962822 4.49888,3.962558 4.49888,3.84522 4.499206,3.630232 5.017555,3.630232" style="fill: white" /><polygon type="contour" points="5.185335,3.334577 5.186561,3.377299 5.033805,3.377368 4.499206,3.377519 4.498784,3.239539 4.498784,3.181753 4.799836,3.181722 5.195119,3.181722" style="fill: white" /><polygon type="contour" points="16.887646,2.244055 16.887646,2.28219 16.887228,2.469275 16.887336,2.577567 16.8359,2.577371 16.78427,2.577371 16.782528,2.577446 16.743093,2.57741 16.726294,2.577387 16.697257,2.577246 16.554457,2.577246 16.554457,2.486528 16.554456,2.434446 16.554316,2.405408 16.554292,2.388608 16.554256,2.349174 16.554332,2.295801 16.554118,2.293297 16.554063,2.244438 16.721099,2.24405 16.722081,2.243882" style="fill: white" /><polygon type="contour" points="14.632636,2.244366 14.632453,2.2958 14.632689,2.350437 14.632399,2.390762 14.63271,2.407747 14.63282,2.434107 14.63282,2.530703 14.632627,2.576872 14.321113,2.577051 14.206626,2.577295 13.935512,2.577477 13.943296,2.490339 13.930275,2.339317 14.149872,2.339262 14.299714,2.339357 14.299856,2.243946 14.454258,2.243946" style="fill: white" /><polygon type="contour" points="15.501428,2.434286 15.501428,2.555309 15.501427,2.577113 15.277481,2.577338 15.169143,2.577135 15.169143,2.434334 15.438057,2.434209" style="fill: white" /><polygon type="contour" points="15.902534,2.434406 15.949888,2.434446 15.949888,2.577245 15.788036,2.577114 15.754268,2.577114 15.754268,2.459004 15.754202,2.434286" style="fill: white" /><polygon type="contour" points="16.723954,4.498991 16.740938,4.499303 16.781266,4.499013 16.784269,4.49925 16.835899,4.49925 16.838404,4.499082 16.887336,4.499067 16.887756,4.677444 16.887756,4.831845 16.792339,4.832023 16.792582,4.981386 16.792492,5.201643 16.602046,5.17996 16.554678,5.183381 16.554764,5.042122 16.554691,4.813585 16.554827,4.499073 16.64944,4.499073 16.697591,4.498882" style="fill: white" /><polygon type="contour" points="16.697206,3.864873 16.697365,3.962558 16.554564,3.962558 16.554363,3.854219 16.554587,3.630273 16.697414,3.630273" style="fill: white" /><polygon type="contour" points="16.697386,3.343663 16.697414,3.377499 16.576389,3.377499 16.554587,3.377432 16.554454,3.234653 16.554454,3.181815 16.697257,3.181815" style="fill: white" /><polygon type="contour" points="15.949568,3.343663 15.949568,3.377432 15.788037,3.377432 15.754202,3.377499 15.754202,3.21198 15.754268,3.182131 15.897048,3.181815 15.949888,3.181815" style="fill: white" /><polygon type="contour" points="15.949614,3.693644 15.949949,3.962712 15.791561,3.962732 15.754182,3.962732 15.754182,3.693643 15.754201,3.630273 15.949568,3.630273" style="fill: white" /><polygon type="contour" points="15.501428,3.630273 15.501428,3.912068 15.501469,3.962732 15.28648,3.962558 15.169143,3.962558 15.16897,3.693644 15.16897,3.630232 15.438056,3.630232" style="fill: white" /><polygon type="contour" points="15.438056,3.182085 15.501427,3.182131 15.501427,3.343662 15.501428,3.377499 15.219633,3.377499 15.16897,3.377519 15.16899,3.239538 15.16899,3.181753" style="fill: white" /><polygon type="contour" points="14.632915,3.181753 14.632915,3.239538 14.632494,3.377519 14.114144,3.377519 14.097892,3.377368 13.945138,3.377299 13.934585,3.252774 13.936579,3.181722 14.331862,3.181722" style="fill: white" /><polygon type="contour" points="14.63282,3.84522 14.63282,3.962558 14.241902,3.962558 14.08534,3.962822 13.95004,3.962971 13.957174,3.790111 13.954634,3.709434 13.956834,3.630671 14.224404,3.630671 14.632494,3.630232" style="fill: white" /><polygon type="contour" points="14.63282,4.498882 14.632697,4.809238 14.632902,4.874615 14.632773,5.19998 14.404296,5.204868 14.237275,5.176341 14.215236,5.175321 14.215154,5.162621 14.212974,5.046047 14.212388,5.034088 14.209556,4.984722 14.207824,4.97331 14.207107,4.924598 14.158391,4.923877 14.14698,4.922146 14.085652,4.918727 13.970784,4.916577 13.968782,4.916551 13.966951,4.916541 13.956379,4.916464 13.955559,4.894513 13.944268,4.499246 14.147983,4.499215 14.318758,4.498801" style="fill: white" /><polygon type="contour" points="15.438056,4.499208 15.501469,4.499208 15.501238,4.695869 15.501238,5.183491 15.41563,5.18028 15.168974,5.189375 15.168974,4.854557 15.169143,4.498882" style="fill: white" /><polygon type="contour" points="15.949949,4.935147 15.949888,5.195005 15.878926,5.196863 15.754268,5.187501 15.754268,4.702782 15.754182,4.499208 15.892163,4.498786 15.949949,4.498786" style="fill: white" /><polygon type="contour" points="16.77089,13.957835 16.792197,13.956756 16.792572,14.137427 16.792346,14.212835 16.79235,14.226992 16.792341,14.299716 16.887756,14.299858 16.887756,14.454259 16.887336,14.632638 16.835899,14.632455 16.781266,14.632691 16.740938,14.6324 16.723953,14.632713 16.697591,14.632822 16.600996,14.632822 16.554827,14.632632 16.554691,14.318119 16.554764,14.089581 16.554642,13.948291" style="fill: white" /><polygon type="contour" points="15.94998,13.936582 15.94998,14.331864 15.949949,14.632917 15.79156,14.632496 15.754182,14.632496 15.754268,14.428922 15.754268,13.944203 15.878926,13.934841" style="fill: white" /><polygon type="contour" points="15.501238,13.948213 15.501238,14.435834 15.501469,14.632496 15.286481,14.632822 15.169143,14.632822 15.169143,14.241904 15.168974,13.942329 15.308523,13.936256" style="fill: white" /><polygon type="contour" points="14.632773,13.931723 14.632902,14.257087 14.632697,14.322464 14.63282,14.632822 14.318758,14.632903 14.147983,14.632488 13.944268,14.632457 13.94855,14.516077 13.956379,14.215239 13.966951,14.215161 13.968782,14.215152 13.969006,14.215147 13.969078,14.215156 14.085652,14.212975 14.097612,14.212391 14.146979,14.209558 14.15839,14.207826 14.207107,14.207104 14.207824,14.158393 14.209556,14.146982 14.212388,14.097614 14.212974,14.085655 14.215154,13.96908 14.215145,13.969008 14.215149,13.968785 14.215158,13.966954 14.215236,13.956382 14.237275,13.955361 14.404296,13.926835" style="fill: white" /><polygon type="contour" points="14.085341,15.168882 14.63282,15.169145 14.63282,15.286482 14.632494,15.50147 14.114144,15.50147 13.956835,15.501031 13.954635,15.422268 13.957174,15.341592 13.948948,15.234674 13.95004,15.168734" style="fill: white" /><polygon type="contour" points="15.438056,16.554694 15.501427,16.55459 15.501427,16.672697 15.501428,16.697417 15.266827,16.697208 15.169143,16.697368 15.169143,16.554568" style="fill: white" /><polygon type="contour" points="15.949888,16.697259 15.788037,16.697388 15.754202,16.697416 15.754202,16.576394 15.754268,16.55459 15.897048,16.554456 15.949888,16.554456" style="fill: white" /><polygon type="contour" points="16.887336,16.554136 16.887228,16.66243 16.887646,16.849515 16.887646,16.887648 16.722081,16.887822 16.721098,16.887652 16.554063,16.887266 16.55433,16.835902 16.55433,16.784271 16.554256,16.782527 16.554291,16.743096 16.554316,16.726296 16.554456,16.697258 16.554456,16.554458 16.697257,16.554458 16.726293,16.554317 16.743093,16.554294 16.782528,16.554258 16.8359,16.554333 16.838404,16.55412" style="fill: white" /><polygon type="contour" points="16.697206,15.266829 16.697414,15.501429 16.57639,15.501429 16.554587,15.501428 16.554363,15.277482 16.554565,15.169145 16.697365,15.169145" style="fill: white" /><polygon type="contour" points="16.697296,15.902536 16.697256,15.949889 16.554454,15.949889 16.554587,15.788038 16.554587,15.754269 16.672695,15.754269 16.697414,15.754203" style="fill: white" /><polygon type="contour" points="15.949568,15.754269 15.949888,15.89705 15.949888,15.949889 15.788036,15.94957 15.754268,15.94957 15.754268,15.788038 15.754202,15.754203 15.919718,15.754203" style="fill: white" /><polygon type="contour" points="15.892163,15.168992 15.949949,15.168992 15.949614,15.438057 15.949568,15.501428 15.788037,15.501428 15.754202,15.501429 15.754202,15.219634 15.754182,15.168972" style="fill: white" /><polygon type="contour" points="15.501469,15.438057 15.501428,15.501429 15.219633,15.501429 15.16897,15.50147 15.169143,15.286482 15.169143,15.169145 15.438056,15.168972 15.501469,15.168972" style="fill: white" /><polygon type="contour" points="15.501428,15.754202 15.501428,15.919722 15.501427,15.94957 15.438056,15.949617 15.16899,15.94995 15.16897,15.791562 15.16897,15.754183 15.438057,15.754183" style="fill: white" /><polygon type="contour" points="14.632915,15.892164 14.632915,15.949949 14.331862,15.949982 13.93658,15.949982 13.946363,15.797127 13.945138,15.754405 14.097892,15.754336 14.632494,15.754183" style="fill: white" /><polygon type="contour" points="14.206626,16.554407 14.321114,16.554652 14.632628,16.55483 14.632628,16.649444 14.63282,16.697595 14.632709,16.723958 14.632399,16.740942 14.632689,16.781267 14.632453,16.784271 14.632453,16.835901 14.632618,16.838406 14.632636,16.887338 14.454258,16.887758 14.299856,16.887758 14.299681,16.792343 14.149872,16.79244 13.930447,16.792302 13.943377,16.641748 13.935512,16.554226" style="fill: white" /><polygon type="contour" points="5.174081,16.782506 5.174946,16.792201 4.994275,16.792574 4.918865,16.79235 4.904708,16.792354 4.831986,16.792343 4.831843,16.887758 4.677442,16.887758 4.499065,16.887338 4.499248,16.835902 4.499012,16.781265 4.499301,16.740942 4.49899,16.723958 4.49888,16.697595 4.49888,16.600998 4.499072,16.554829 4.810585,16.554652 4.925072,16.554407 5.196156,16.554306" style="fill: white" /><polygon type="contour" points="5.033805,15.754336 5.186561,15.754405 5.197115,15.878927 5.19512,15.949982 4.799836,15.949982 4.498784,15.949949 4.498784,15.892165 4.499206,15.754183 5.017556,15.754183" style="fill: white" /><polygon type="contour" points="5.174526,15.341593 5.177064,15.422268 5.174864,15.501032 4.907295,15.501032 4.499206,15.50147 4.49888,15.286482 4.49888,15.169145 4.889799,15.169145 5.046358,15.168882 5.18166,15.168733" style="fill: white" /><polygon type="contour" points="4.894422,13.955362 4.916463,13.956382 4.916539,13.966953 4.916548,13.968785 4.916552,13.969008 4.916544,13.96908 4.918724,14.085655 4.919309,14.097614 4.922144,14.146983 4.923875,14.158393 4.924596,14.207104 4.973307,14.207826 4.98472,14.209558 5.046044,14.212975 5.162619,14.215156 5.162691,14.215147 5.162915,14.215152 5.164746,14.215161 5.175319,14.215239 5.176139,14.237189 5.187431,14.632457 4.983715,14.632488 4.812942,14.632903 4.498879,14.632822 4.499002,14.322464 4.498797,14.257087 4.498926,13.931723 4.727402,13.926835" style="fill: white" /><polygon type="contour" points="2.577023,13.948322 2.576936,14.08958 2.577009,14.318117 2.57687,14.632631 2.482258,14.632632 2.434106,14.632821 2.407745,14.632713 2.39076,14.6324 2.350434,14.632691 2.347431,14.632455 2.2958,14.632455 2.293295,14.63262 2.244364,14.632638 2.243944,14.454259 2.243944,14.299858 2.339355,14.299681 2.339346,14.226992 2.339352,14.212835 2.339126,14.137426 2.339502,13.956756 2.344414,13.956767 2.360808,13.957835 2.527671,13.945693" style="fill: white" /><polygon type="contour" points="3.37743,13.944203 3.37743,14.428922 3.377517,14.632495 3.239537,14.632917 3.181751,14.632917 3.181751,14.196555 3.181813,13.936699 3.252773,13.934841" style="fill: white" /><polygon type="contour" points="3.962725,14.277146 3.962556,14.632822 3.69364,14.632495 3.63023,14.632495 3.630461,14.435833 3.630461,13.948213 3.716067,13.951425 3.962725,13.942329" style="fill: white" /><polygon type="contour" points="3.845219,15.169145 3.962556,15.169145 3.96273,15.438057 3.96273,15.50147 3.693641,15.50147 3.630271,15.501429 3.630271,15.219635 3.63023,15.168972" style="fill: white" /><polygon type="contour" points="3.343661,16.55459 3.37743,16.55459 3.37743,16.672698 3.377497,16.697417 3.229165,16.697298 3.181813,16.697258 3.181813,16.554456" style="fill: white" /><polygon type="contour" points="3.962556,16.554568 3.962556,16.697368 3.864871,16.697208 3.843868,16.697125 3.630271,16.697417 3.630271,16.55459 3.854218,16.554366" style="fill: white" /><polygon type="contour" points="3.962711,15.892165 3.962711,15.949949 3.693641,15.949617 3.630271,15.94957 3.630271,15.754203 3.912067,15.754203 3.96273,15.754183" style="fill: white" /><polygon type="contour" points="3.377497,15.919722 3.37743,15.94957 3.23465,15.949889 3.181813,15.949889 3.18213,15.788038 3.18213,15.754269 3.343661,15.754269 3.377497,15.754203" style="fill: white" /><polygon type="contour" points="3.377517,15.438058 3.377497,15.501429 3.211978,15.501429 3.18213,15.501428 3.182082,15.438057 3.181751,15.168992 3.340136,15.168972 3.377517,15.168972" style="fill: white" /><polygon type="contour" points="2.577336,15.277482 2.577112,15.501428 2.459003,15.501428 2.434284,15.501429 2.434492,15.266829 2.434332,15.169145 2.577133,15.169145" style="fill: white" /><polygon type="contour" points="2.577112,15.754269 2.577244,15.89705 2.577244,15.949889 2.434445,15.949889 2.434311,15.788037 2.434284,15.754203 2.555307,15.754203" style="fill: white" /><polygon type="contour" points="2.295799,16.554333 2.34743,16.554333 2.349174,16.554257 2.388605,16.554293 2.405407,16.554317 2.434444,16.554458 2.577244,16.554458 2.577244,16.697259 2.577385,16.726296 2.577408,16.743095 2.577444,16.78253 2.577368,16.835902 2.577581,16.838406 2.577636,16.887266 2.410601,16.887652 2.409618,16.887822 2.244053,16.887648 2.244053,16.849515 2.244471,16.662429 2.244364,16.554136" style="fill: white" />
</svg>
