<svg width="19.131698" height="19.131699">
<polygon type="contour" points="6.340188,7.207552 6.44281,7.207599 6.555208,7.207541 6.555169,7.278849 6.555169,7.514576 6.505117,7.514902 6.44281,7.515629 6.340189,7.515765 6.147594,7.514358 6.147594,7.31292 6.147488,7.207394" style="fill: white" /><polygon type="contour" points="5.54028,7.207744 5.540697,7.303757 5.541655,7.511534 5.445472,7.512327 5.236119,7.512097 5.236614,7.363678 5.236268,7.315225 5.236212,7.280583 5.236088,7.216083 5.314119,7.216897 5.324504,7.216897 5.335004,7.216909 5.412768,7.216988 5.413178,7.207661 5.421723,7.207661" style="fill: white" /><polygon type="contour" points="5.542606,6.187374 5.5428,6.34019 5.542901,6.442812 5.542872,6.555218 5.532552,6.555209 5.412539,6.555209 5.41255,6.538627 5.413066,6.442813 5.413302,6.34019 5.412823,6.147489 5.542606,6.147489" style="fill: white" /><polygon type="contour" points="5.420115,5.229834 5.540175,5.234638 5.540091,5.507135 5.540091,5.540092 5.507133,5.540092 5.407231,5.540178 5.234637,5.540178 5.234048,5.392058 5.228152,5.228154" style="fill: white" /><polygon type="contour" points="7.281175,5.236304 7.315221,5.236268 7.363676,5.236616 7.512013,5.236167 7.510377,5.280565 7.511132,5.293242 7.512841,5.344786 7.511213,5.542048 7.303755,5.5407 7.207741,5.540283 7.207741,5.525399 7.207758,5.410664 7.216891,5.409735 7.216093,5.257271 7.21608,5.23609" style="fill: white" /><polygon type="contour" points="6.555216,5.423572 6.555216,5.542874 6.537226,5.542874 6.44281,5.542903 6.340188,5.542802 6.147488,5.542608 6.147488,5.412824 6.340189,5.413304 6.383502,5.413395 6.442811,5.413068 6.538626,5.412551 6.555208,5.412539" style="fill: white" /><polygon type="contour" points="6.554786,6.301835 6.554786,6.442812 6.555208,6.555209 6.538394,6.555209 6.44281,6.554788 6.301833,6.554788 6.147069,6.555218 6.14741,6.442812 6.147664,6.340191 6.147488,6.147488 6.41774,6.147071 6.442811,6.147413 6.555216,6.147071" style="fill: white" /><polygon type="contour" points="7.312918,6.147595 7.514356,6.147595 7.51467,6.248939 7.515763,6.34019 7.515747,6.383505 7.515628,6.442812 7.514901,6.505118 7.514574,6.555171 7.278846,6.555171 7.207539,6.555209 7.207597,6.442812 7.20755,6.34019 7.207392,6.147489" style="fill: white" /><polygon type="contour" points="7.511877,7.207518 7.514885,7.391088 7.511108,7.51111 7.391086,7.514888 7.207382,7.511972 7.207686,7.368654 7.207686,7.207688 7.423891,7.207383" style="fill: white" /><polygon type="contour" points="11.763048,7.207688 11.924014,7.207688 11.924318,7.423894 11.924183,7.511879 11.740614,7.514888 11.620592,7.51111 11.616814,7.391089 11.619727,7.207383" style="fill: white" /><polygon type="contour" points="12.688889,6.147413 12.79151,6.147666 12.984212,6.147489 12.984212,6.187373 12.984036,6.340191 12.984288,6.442812 12.98463,6.555218 12.829865,6.554788 12.688889,6.554788 12.576492,6.555209 12.576492,6.538395 12.576914,6.442813 12.576914,6.301835 12.576484,6.147071 12.594474,6.147071" style="fill: white" /><polygon type="contour" points="11.924311,6.18495 11.924149,6.340191 11.924104,6.442812 11.924162,6.555209 11.852853,6.555171 11.617125,6.555171 11.616799,6.505119 11.616071,6.442813 11.615937,6.340191 11.617345,6.147595 11.818781,6.147595 11.924308,6.147489" style="fill: white" /><polygon type="contour" points="11.915607,5.257271 11.914794,5.412688 11.924042,5.41318 11.924042,5.421725 11.923956,5.540283 11.827942,5.540699 11.620169,5.541657 11.619374,5.445474 11.619604,5.236121 11.768024,5.236616 11.816478,5.236269 11.85097,5.236214 11.915621,5.23609" style="fill: white" /><polygon type="contour" points="12.593073,5.412551 12.688888,5.413068 12.748197,5.413395 12.79151,5.413304 12.947163,5.412821 12.984212,5.412824 12.984212,5.542608 12.944327,5.542608 12.791511,5.542802 12.688888,5.542903 12.576484,5.542873 12.576492,5.532554 12.576492,5.412539" style="fill: white" /><polygon type="contour" points="13.897652,5.392059 13.897082,5.540642 13.851252,5.540642 13.647224,5.540178 13.591524,5.540178 13.591524,5.407232 13.59142,5.27178 13.59142,5.234746 13.613738,5.234489 13.72225,5.233102 13.739642,5.234049 13.903548,5.228154" style="fill: white" /><polygon type="contour" points="13.718396,6.340191 13.718305,6.383504 13.718632,6.442813 13.719149,6.538628 13.719161,6.555209 13.708129,6.555218 13.588827,6.555218 13.588827,6.537228 13.588799,6.442812 13.588899,6.34019 13.589094,6.147489 13.718875,6.147489" style="fill: white" /><polygon type="contour" points="13.718931,7.216988 13.791558,7.216824 13.807339,7.216805 13.885145,7.216083 13.895612,7.216083 13.89545,7.281251 13.895432,7.315225 13.895084,7.363677 13.895534,7.512016 13.686227,7.512328 13.590046,7.511534 13.591003,7.303757 13.59142,7.207744 13.606303,7.207744 13.718518,7.207661" style="fill: white" /><polygon type="contour" points="12.984107,7.31292 12.984107,7.514358 12.882762,7.514673 12.791511,7.515765 12.688888,7.515629 12.576531,7.514575 12.576531,7.278849 12.576492,7.207541 12.593306,7.207541 12.688888,7.207599 12.791511,7.207552 12.984212,7.207394" style="fill: white" /><polygon type="contour" points="13.897652,13.739643 13.903548,13.903549 13.711584,13.90187 13.591524,13.897066 13.591524,13.591526 13.897064,13.591526" style="fill: white" /><polygon type="contour" points="12.791511,13.588901 12.984212,13.589096 12.984212,13.718878 12.791511,13.718399 12.688888,13.718635 12.593073,13.719152 12.576492,13.719164 12.576484,13.708131 12.576484,13.58883 12.594473,13.58883 12.688889,13.588801" style="fill: white" /><polygon type="contour" points="11.924319,11.61973 11.924014,11.76305 11.924014,11.924015 11.707806,11.924321 11.619822,11.924185 11.616814,11.740614 11.620592,11.620593 11.740613,11.616816" style="fill: white" /><polygon type="contour" points="12.882762,11.617031 12.984107,11.617346 12.984107,11.818783 12.984212,11.92431 12.79151,11.924149 12.688888,11.924105 12.576492,11.924162 12.576531,11.852852 12.576531,11.617128 12.626582,11.616802 12.688888,11.616073 12.748196,11.615953 12.79151,11.615938" style="fill: white" /><polygon type="contour" points="13.838457,11.62057 13.851135,11.621324 13.89558,11.619606 13.895084,11.768025 13.895432,11.81648 13.895487,11.851119 13.895612,11.915622 13.817581,11.914807 13.807195,11.914807 13.796695,11.914794 13.718932,11.914716 13.718519,11.924043 13.709973,11.924043 13.59142,11.923958 13.591003,11.827943 13.589656,11.620488 13.786915,11.61886" style="fill: white" /><polygon type="contour" points="13.599147,12.576494 13.719161,12.576494 13.719149,12.593075 13.718632,12.68889 13.718305,12.748197 13.718395,12.791512 13.718878,12.947167 13.718875,12.984215 13.589094,12.984215 13.589094,12.944329 13.588899,12.791513 13.588799,12.68889 13.588827,12.576486" style="fill: white" /><polygon type="contour" points="12.984288,12.688891 12.984036,12.791512 12.984212,12.984215 12.71396,12.984631 12.688888,12.98429 12.576484,12.984631 12.576914,12.829866 12.576914,12.68889 12.576492,12.576494 12.593305,12.576494 12.688889,12.576917 12.829865,12.576917 12.98463,12.576486" style="fill: white" /><polygon type="contour" points="11.924104,12.688891 11.924149,12.791513 11.924308,12.984215 11.818781,12.984109 11.617345,12.984109 11.617029,12.882764 11.615937,12.791513 11.616071,12.68889 11.617125,12.576533 11.852852,12.576533 11.924162,12.576494" style="fill: white" /><polygon type="contour" points="11.827942,13.591004 11.923956,13.591421 11.923956,13.606304 11.924014,13.720838 11.914765,13.713646 11.915607,13.874432 11.915621,13.895614 11.850526,13.8954 11.816477,13.895434 11.768024,13.895086 11.619686,13.895536 11.619374,13.686229 11.620169,13.590047" style="fill: white" /><polygon type="contour" points="6.555216,13.58883 6.555208,13.59915 6.555208,13.719164 6.538626,13.719152 6.442811,13.718635 6.340188,13.718399 6.147488,13.718878 6.147488,13.589096 6.187373,13.589096 6.340188,13.588901 6.442811,13.588801" style="fill: white" /><polygon type="contour" points="7.51284,13.786916 7.511132,13.838459 7.510377,13.851136 7.512095,13.895582 7.363676,13.895086 7.315221,13.895434 7.280729,13.89549 7.21608,13.895614 7.216093,13.874432 7.216907,13.719017 7.207659,13.718522 7.207659,13.709976 7.207741,13.591421 7.303756,13.591004 7.511213,13.589657" style="fill: white" /><polygon type="contour" points="7.278847,12.576533 7.514574,12.576533 7.514901,12.626585 7.515628,12.68889 7.515747,12.748197 7.515763,12.791513 7.51467,12.882764 7.514356,12.984109 7.312918,12.984109 7.207392,12.984215 7.20739,12.946752 7.20755,12.791513 7.207597,12.688891 7.207539,12.576494" style="fill: white" /><polygon type="contour" points="7.511108,11.620594 7.514885,11.740615 7.51197,11.924321 7.368652,11.924015 7.207686,11.924015 7.207381,11.707809 7.207517,11.619824 7.391087,11.616816" style="fill: white" /><polygon type="contour" points="5.542045,11.620487 5.540697,11.827943 5.54028,11.923958 5.525397,11.923958 5.413178,11.924043 5.412767,11.914715 5.340142,11.914879 5.324359,11.914899 5.246555,11.915622 5.236088,11.915622 5.23625,11.850452 5.236268,11.816479 5.236615,11.768025 5.236165,11.619688 5.280563,11.621324 5.293241,11.620569 5.344783,11.61886" style="fill: white" /><polygon type="contour" points="6.383503,11.615953 6.442811,11.616073 6.505118,11.616802 6.555169,11.617128 6.555169,11.852852 6.555208,11.924162 6.538394,11.924162 6.44281,11.924105 6.340189,11.924149 6.147488,11.92431 6.147594,11.818783 6.147594,11.617346 6.248937,11.617031 6.340189,11.615938" style="fill: white" /><polygon type="contour" points="6.301833,12.576917 6.442811,12.576917 6.555208,12.576494 6.555208,12.593308 6.554786,12.68889 6.554786,12.829866 6.555216,12.984631 6.537225,12.984631 6.442811,12.98429 6.340189,12.984038 6.147488,12.984215 6.147488,12.94433 6.147664,12.791512 6.14741,12.688891 6.147069,12.576486" style="fill: white" /><polygon type="contour" points="5.542872,12.594475 5.542901,12.68889 5.542801,12.791513 5.542606,12.984215 5.412823,12.984215 5.413302,12.791513 5.413066,12.68889 5.41255,12.593076 5.412539,12.576494 5.423571,12.576486 5.542872,12.576486" style="fill: white" /><polygon type="contour" points="5.484473,13.591526 5.540175,13.591526 5.540175,13.897066 5.409448,13.898603 5.392057,13.897654 5.228152,13.903549 5.234048,13.739643 5.234617,13.591061 5.280445,13.591061" style="fill: white" />
</svg>
