<svg width="19.131698" height="19.131699">
<polygon type="contour" points="9.586402,9.27055 9.645523,9.271974 9.688697,9.274478 9.695745,9.277439 9.705675,9.278973 9.754295,9.284428 9.765186,9.285964 9.768644,9.286822 9.819165,9.292271 9.820145,9.292556 9.827064,9.293974 9.835581,9.296298 9.838953,9.310597 9.844542,9.361913 9.846528,9.371874 9.852784,9.422118 9.855182,9.43993 9.858543,9.453059 9.858907,9.462355 9.860389,9.52405 9.862769,9.565775 9.861914,9.579879 9.860565,9.638657 9.858543,9.678645 9.855183,9.691771 9.852783,9.709584 9.846529,9.759828 9.844733,9.768831 9.839144,9.820146 9.838675,9.822903 9.835581,9.835406 9.827065,9.837728 9.821289,9.839022 9.820382,9.839303 9.76973,9.844764 9.765185,9.84574 9.758068,9.846713 9.709278,9.85219 9.696818,9.854265 9.691021,9.857225 9.645522,9.859728 9.586402,9.861151 9.5655,9.862683 9.530588,9.86039 9.470185,9.85889 9.443003,9.857225 9.438822,9.856759 9.434023,9.85405 9.422419,9.852283 9.373491,9.846792 9.361969,9.844764 9.311318,9.839302 9.304812,9.837806 9.304308,9.837618 9.296162,9.83554 9.294995,9.830849 9.292713,9.820817 9.287117,9.769438 9.285369,9.760816 9.284777,9.759038 9.278528,9.708807 9.277913,9.702503 9.276281,9.694626 9.276554,9.691712 9.273253,9.67855 9.271965,9.654027 9.270548,9.593928 9.269019,9.566202 9.270549,9.538046 9.271965,9.477674 9.273158,9.45306 9.276518,9.43993 9.277913,9.429199 9.278528,9.422895 9.284776,9.372666 9.28537,9.370886 9.287117,9.361693 9.292712,9.310314 9.295198,9.299719 9.296254,9.296256 9.304308,9.294086 9.311555,9.292556 9.312536,9.292271 9.363054,9.286823 9.368849,9.28559 9.418079,9.280063 9.435956,9.27744 9.443003,9.274479 9.506121,9.272825 9.565928,9.269021" style="fill: white" />
</svg>
