<svg width="19.131698" height="19.131699">
<polygon type="contour" points="11.044441,8.31051 11.043544,8.346797 11.043546,8.359821 11.03115,8.359821 11.018893,8.359799 10.876079,8.359799 10.876281,8.485493 10.858979,8.485493 10.77177,8.485824 10.771769,8.485824 10.751492,8.4859 10.646209,8.485493 10.646209,8.469807 10.645873,8.389575 10.645795,8.371028 10.646209,8.25542 10.772024,8.255623 10.772381,8.151574 10.77294,8.138263 10.774928,8.084473 10.92742,8.082776 11.051156,8.080547" style="fill: white" /><polygon type="contour" points="9.922007,8.087809 9.981687,8.088201 10.003492,8.088097 10.003492,8.25551 10.134633,8.25542 10.134633,8.27272 10.134481,8.359933 10.134481,8.400071 10.134633,8.485493 10.117331,8.485493 10.029504,8.485752 9.976413,8.485752 9.778008,8.485258 9.703101,8.485155 9.629113,8.485458 9.629113,8.464686 9.629146,8.389888 9.629146,8.345086 9.629113,8.255524 9.710629,8.255522 9.711042,8.160214 9.711093,8.151035 9.712951,8.085349" style="fill: white" /><polygon type="contour" points="9.418748,8.085349 9.420659,8.160215 9.420659,8.255538 9.490299,8.255402 9.502436,8.255524 9.502436,8.278114 9.502456,8.35992 9.502461,8.381707 9.502436,8.485457 9.488459,8.485493 9.428598,8.485155 9.353691,8.485258 9.108469,8.485795 8.997068,8.485493 8.997068,8.469806 8.997219,8.39 8.997219,8.348824 8.997068,8.25542 9.128215,8.25551 9.128215,8.088098 9.140251,8.087978 9.150012,8.0882 9.209692,8.08781 9.334078,8.085318" style="fill: white" /><polygon type="contour" points="8.204279,8.082776 8.356771,8.084473 8.359319,8.151574 8.359319,8.255623 8.485491,8.25542 8.485491,8.27272 8.485822,8.359933 8.485898,8.38021 8.485491,8.485493 8.469804,8.485493 8.389998,8.485824 8.389997,8.485824 8.371026,8.485902 8.255419,8.485493 8.25562,8.359799 8.112807,8.359799 8.10055,8.359821 8.088155,8.359821 8.088156,8.346797 8.087258,8.31051 8.080544,8.080547" style="fill: white" /><polygon type="contour" points="8.485456,9.629267 8.485491,9.643241 8.485153,9.703103 8.485256,9.77801 8.485751,10.003446 8.485794,10.023248 8.485491,10.134634 8.469804,10.134634 8.389998,10.134483 8.348822,10.134483 8.255419,10.134634 8.255508,10.003519 8.088092,10.003519 8.088148,9.980129 8.088226,9.77801 8.088203,9.727728 8.088154,9.715472 8.08814,9.710696 8.099352,9.71068 8.255536,9.71068 8.2554,9.641402 8.255523,9.629267 8.278114,9.629267 8.381706,9.629242" style="fill: white" /><polygon type="contour" points="8.359931,8.997221 8.400068,8.997221 8.485491,8.99707 8.485491,9.014372 8.485751,9.102197 8.485751,9.155288 8.485256,9.353693 8.485153,9.4286 8.485456,9.50259 8.464684,9.50259 8.389887,9.502555 8.345085,9.502555 8.255523,9.50259 8.255521,9.421025 8.099352,9.421025 8.093925,9.421047 8.088141,9.421008 8.088202,9.403975 8.088227,9.353693 8.088092,9.128185 8.255508,9.128185 8.255419,8.99707 8.27272,8.99707" style="fill: white" /><polygon type="contour" points="9.102196,8.997196 9.155286,8.997196 9.353692,8.997562 9.428597,8.997588 9.502436,8.997133 9.502436,9.020025 9.502401,9.102316 9.502401,9.164797 9.50256,9.353693 9.502588,9.4286 9.502436,9.50259 9.483938,9.50259 9.428597,9.502589 9.353692,9.502563 9.128268,9.50249 9.089118,9.50249 8.99713,9.50259 8.997068,9.488462 8.997586,9.428599 8.99756,9.353694 8.997193,9.128257 8.997241,9.128258 8.997068,8.99707 9.014369,8.99707" style="fill: white" /><polygon type="contour" points="9.502436,9.629266 9.502436,9.647763 9.502588,9.703104 9.502561,9.77801 9.502401,10.003434 9.502401,10.042582 9.502436,10.134571 9.48846,10.134634 9.428597,10.134117 9.353692,10.134142 9.128256,10.134508 9.128256,10.13446 8.997068,10.134634 8.997068,10.117332 8.997194,10.029507 8.997194,9.976415 8.99756,9.778009 8.997586,9.703104 8.997131,9.629267 9.020023,9.629267 9.102314,9.629302 9.164795,9.629302 9.353692,9.62914 9.428598,9.629114" style="fill: white" /><polygon type="contour" points="9.778008,9.629139 10.003432,9.629302 10.04258,9.629302 10.13457,9.629267 10.134633,9.643241 10.134114,9.703104 10.13414,9.778009 10.134506,10.003445 10.134506,10.003446 10.134458,10.003445 10.134633,10.134634 10.117331,10.134634 10.029504,10.134508 9.976413,10.134508 9.778007,10.134142 9.703102,10.134116 9.629113,10.134571 9.629113,10.111828 9.629213,10.029475 9.629213,9.966905 9.629137,9.778009 9.629112,9.703104 9.629113,9.629267 9.647762,9.629267 9.703102,9.629114" style="fill: white" /><polygon type="contour" points="10.134633,9.014371 10.134506,9.102197 10.134506,9.155288 10.13414,9.353694 10.134114,9.428599 10.13457,9.50259 10.111827,9.50259 10.029472,9.50249 9.966902,9.50249 9.778007,9.502563 9.703102,9.502588 9.629113,9.502589 9.629113,9.48394 9.629111,9.428599 9.629137,9.353694 9.629213,9.12827 9.629213,9.08912 9.629113,8.997133 9.643239,8.99707 9.703102,8.997588 9.778007,8.997562 10.003443,8.997196 10.003443,8.997243 10.134633,8.99707" style="fill: white" /><polygon type="contour" points="10.741701,8.997221 10.782878,8.997221 10.876281,8.99707 10.876191,9.128223 11.022124,9.128223 11.043608,9.128185 11.043553,9.151575 11.043473,9.353693 11.043497,9.403975 11.043545,9.416231 11.043559,9.421008 11.032347,9.421025 10.876163,9.421025 10.876299,9.490301 10.876177,9.50259 10.853585,9.50259 10.77178,9.502555 10.728174,9.502555 10.646244,9.50259 10.646209,9.488461 10.646547,9.4286 10.646443,9.353693 10.645905,9.108455 10.646209,8.99707 10.661895,8.99707" style="fill: white" /><polygon type="contour" points="10.876176,9.629267 10.876178,9.71068 11.032346,9.71068 11.037775,9.710657 11.043559,9.710696 11.043497,9.727728 11.043473,9.77801 11.043608,10.003519 10.876191,10.003519 10.876281,10.134634 10.858979,10.134634 10.771769,10.134483 10.731631,10.134483 10.646209,10.134634 10.646209,10.117332 10.645949,10.029507 10.645949,9.976415 10.646443,9.77801 10.646547,9.703103 10.646244,9.629267 10.667016,9.629267 10.762201,9.629242" style="fill: white" /><polygon type="contour" points="10.876281,10.646211 10.876079,10.771906 11.018893,10.771906 11.03115,10.771883 11.043546,10.771883 11.043544,10.784907 11.044441,10.821193 11.051156,11.051157 10.92742,11.048929 10.774928,11.047228 10.772381,10.980129 10.772381,10.87608 10.646209,10.876284 10.646209,10.858982 10.645759,10.741705 10.645797,10.751493 10.646209,10.646211 10.661894,10.646211 10.760673,10.645798" style="fill: white" /><polygon type="contour" points="10.134633,10.646211 10.134633,10.661896 10.134481,10.741705 10.134481,10.782879 10.134633,10.876284 10.003485,10.876193 10.003485,11.043606 9.991448,11.043726 9.981687,11.043503 9.922007,11.043894 9.797621,11.046385 9.712951,11.046355 9.711042,10.971488 9.711042,10.876164 9.6414,10.876302 9.629113,10.87618 9.629113,10.853588 9.629146,10.771782 9.629146,10.728175 9.629113,10.646246 9.643239,10.646211 9.703101,10.646549 9.778008,10.646445 10.02323,10.645908" style="fill: white" /><polygon type="contour" points="9.353691,10.646445 9.428598,10.646548 9.502436,10.646245 9.502436,10.667017 9.502456,10.741814 9.502461,10.762203 9.502435,10.87618 9.421071,10.87618 9.420658,10.971489 9.420608,10.980667 9.418749,11.046355 9.209692,11.043894 9.150012,11.043503 9.128208,11.043607 9.128208,10.876193 8.997068,10.876284 8.997068,10.858983 8.997219,10.771771 8.997219,10.731633 8.997068,10.646211 9.014369,10.646211 9.102195,10.645952 9.155286,10.645952" style="fill: white" /><polygon type="contour" points="8.485491,10.646211 8.485491,10.661897 8.485822,10.741704 8.4859,10.760676 8.485491,10.876284 8.359675,10.87608 8.359319,10.980128 8.358759,10.993438 8.356771,11.047228 8.204279,11.048929 8.080544,11.051157 8.087258,10.821193 8.088156,10.784907 8.088155,10.771883 8.10055,10.771883 8.112807,10.771906 8.25562,10.771906 8.255419,10.646211 8.27272,10.646211 8.35993,10.645878 8.359931,10.645878 8.380207,10.6458" style="fill: white" />
</svg>
