<svg width="19.131698" height="19.131699">
<polygon type="contour" points="8.887099,8.69097 8.996546,8.693636 8.998477,8.757615 8.998846,8.764137 8.999421,8.861701 9.105734,8.861378 9.105355,8.979638 9.105355,9.016457 9.105734,9.077627 9.105734,9.105736 9.029266,9.105356 8.999407,9.105356 8.904756,9.105736 8.861376,9.105736 8.86141,9.084011 8.86169,8.999372 8.695022,8.999372 8.694894,8.992574 8.689156,8.689159" style="fill: white" /><polygon type="contour" points="9.578369,8.694671 9.586851,8.694892 9.591833,8.695041 9.711101,8.695068 9.711101,8.861761 9.818,8.861378 9.817748,8.979638 9.817748,9.016457 9.818,9.077627 9.818,9.105736 9.742218,9.105456 9.402682,9.105456 9.341587,9.105736 9.313479,9.105736 9.313851,9.029268 9.313851,8.99941 9.313479,8.904757 9.313479,8.861378 9.335182,8.861417 9.4206,8.861749 9.4206,8.695068 9.54044,8.695041 9.545447,8.694893 9.566144,8.694592" style="fill: white" /><polygon type="contour" points="10.436805,8.992574 10.436678,8.999372 10.270188,8.999372 10.269845,9.105736 10.152064,9.105356 10.115245,9.105356 10.054075,9.105736 10.025746,9.105736 10.026243,9.029268 10.026243,8.999409 10.025746,8.904757 10.025746,8.861378 10.047691,8.861413 10.132855,8.861694 10.132855,8.764137 10.135155,8.693636 10.244602,8.690969 10.442543,8.689159" style="fill: white" /><polygon type="contour" points="10.269755,9.335186 10.270092,9.420556 10.324046,9.420507 10.410007,9.420602 10.436632,9.420602 10.436606,9.426029 10.436299,9.462132 10.436679,9.548164 10.43693,9.566201 10.436299,9.669771 10.436632,9.711102 10.270138,9.711102 10.269844,9.818001 10.152065,9.817749 10.115244,9.817749 10.054075,9.818001 10.025746,9.818001 10.026142,9.74222 10.026142,9.402685 10.025746,9.34159 10.025746,9.313482 10.102333,9.313854 10.132293,9.313854 10.226463,9.313482 10.269845,9.313482" style="fill: white" /><polygon type="contour" points="9.817812,9.389378 9.817812,9.729017 9.818,9.790114 9.818,9.818001 9.742219,9.817814 9.402683,9.817814 9.341587,9.818001 9.313479,9.818001 9.313783,9.74222 9.313783,9.402684 9.313479,9.34159 9.313479,9.313482 9.389376,9.313785 9.729017,9.313785 9.790112,9.313482 9.818,9.313482" style="fill: white" /><polygon type="contour" points="9.105454,9.389379 9.105454,9.729018 9.105734,9.790113 9.105734,9.818001 9.029267,9.817749 8.999407,9.817749 8.904757,9.818001 8.861376,9.818001 8.861414,9.796517 8.861747,9.711147 8.807655,9.711197 8.721692,9.711102 8.695068,9.711102 8.695094,9.705673 8.695401,9.669771 8.69502,9.584152 8.69477,9.566202 8.695401,9.462131 8.695068,9.420602 8.786885,9.420602 8.861758,9.42023 8.861376,9.313482 8.979635,9.313854 9.016456,9.313854 9.077626,9.313482 9.105734,9.313482" style="fill: white" /><polygon type="contour" points="9.105355,10.102334 9.105355,10.132295 9.105734,10.226465 9.105734,10.269846 9.084009,10.26976 8.998846,10.270148 8.998846,10.367566 8.996546,10.438067 8.887099,10.440733 8.689157,10.442544 8.694895,10.139129 8.695022,10.132333 8.8617,10.132333 8.861376,10.025748 8.979635,10.026245 9.016456,10.026245 9.077625,10.025748 9.105734,10.025748" style="fill: white" /><polygon type="contour" points="9.817748,10.102335 9.817748,10.132295 9.818,10.226466 9.818,10.269846 9.796516,10.269757 9.711101,10.270094 9.711101,10.436636 9.59126,10.436663 9.586253,10.436811 9.565501,10.437112 9.553331,10.437033 9.544847,10.436811 9.539866,10.436663 9.4206,10.436636 9.4206,10.270139 9.313479,10.269846 9.313851,10.152067 9.313851,10.115246 9.313479,10.054076 9.313479,10.025748 9.389377,10.026143 9.729016,10.026143 9.790112,10.025748 9.818,10.025748" style="fill: white" /><polygon type="contour" points="10.269759,10.047694 10.270143,10.132333 10.436678,10.132333 10.436804,10.139129 10.442543,10.442545 10.244602,10.440734 10.135155,10.438068 10.133224,10.374088 10.132855,10.367567 10.13228,10.270189 10.025746,10.269846 10.026243,10.152066 10.026243,10.115247 10.025746,10.054077 10.025746,10.025748 10.102333,10.026245 10.132293,10.026245 10.226463,10.025748 10.269845,10.025748" style="fill: white" />
</svg>
