<svg width="19.131698" height="19.131699">
<polygon type="contour" points="7.341294,11.981041 7.341294,12.072035 7.15066,12.072035 7.05982,12.071882 7.05982,11.873948 7.059667,11.790409 7.208598,11.790241 7.341461,11.790241" style="fill: white" /><polygon type="contour" points="7.341294,12.396272 7.341294,12.464912 7.341107,12.609037 7.150661,12.609546 7.059739,12.609563 7.059739,12.461011 7.05982,12.396197 7.257754,12.396197" style="fill: white" /><polygon type="contour" points="6.086021,12.993279 6.138422,12.993279 6.138422,13.12243 6.138225,13.288931 5.880495,13.287415 5.843014,13.288689 5.844195,13.253033 5.844874,13.204685 5.84258,12.993795 5.919079,12.992441 5.927886,12.992193" style="fill: white" /><polygon type="contour" points="6.140285,12.396278 6.13964,12.519719 6.13964,12.609043 6.019015,12.609043 6.019065,12.521473 6.019377,12.396197 6.105049,12.396197" style="fill: white" /><polygon type="contour" points="6.140216,11.981041 6.140285,12.071963 6.055537,12.071963 6.019377,12.071882 6.01942,11.914396 6.019662,11.790241 6.139815,11.790241" style="fill: white" /><polygon type="contour" points="6.73543,11.98104 6.735506,12.071882 6.58533,12.071882 6.522136,12.071963 6.522154,11.981041 6.522664,11.790596 6.666789,11.790409 6.73543,11.790409" style="fill: white" /><polygon type="contour" points="6.735506,12.546368 6.735424,12.609563 6.611982,12.609043 6.522656,12.609043 6.522136,12.461012 6.522136,12.396278 6.670688,12.396278 6.735506,12.396197" style="fill: white" /><polygon type="contour" points="6.735424,13.076162 6.735506,13.112324 6.610227,13.112637 6.522657,13.112686 6.522657,13.05077 6.53479,13.05842 6.561473,13.022117 6.572247,13.009088 6.572321,12.991889 6.611982,12.992061 6.735424,12.991416" style="fill: white" /><polygon type="contour" points="7.150661,12.991486 7.341461,12.991887 7.341461,13.11204 7.150661,13.112156 7.05982,13.112324 7.05982,13.026652 7.059739,12.991416" style="fill: white" /><polygon type="contour" points="7.98784,13.176723 7.987368,13.210726 7.986273,13.288252 7.907659,13.287344 7.872818,13.287044 7.826698,13.288211 7.694051,13.288813 7.694051,13.243974 7.694297,13.129808 7.694297,12.993333 7.85,12.993333 7.984935,12.993303" style="fill: white" /><polygon type="contour" points="7.987299,12.521474 7.987372,12.609043 7.815968,12.609043 7.694267,12.609038 7.694104,12.464912 7.694104,12.396272 7.89422,12.396272 7.987789,12.396197" style="fill: white" /><polygon type="contour" points="7.987924,11.981041 7.987789,12.071882 7.780006,12.071882 7.694104,12.072035 7.694004,11.923103 7.694004,11.790241 7.987466,11.790241" style="fill: white" /><polygon type="contour" points="7.866209,11.145466 7.923788,11.150108 7.98204,11.14966 7.986234,11.26549 7.987163,11.30417 7.984909,11.437651 7.694051,11.437651 7.694051,11.146793 7.827532,11.144538" style="fill: white" /><polygon type="contour" points="7.217304,11.144461 7.341461,11.144236 7.341461,11.437698 7.150661,11.437599 7.059667,11.437599 7.059667,11.237482 7.05982,11.143913" style="fill: white" /><polygon type="contour" points="6.735506,11.143913 6.735506,11.351693 6.73543,11.437599 6.666788,11.437599 6.522664,11.437433 6.522664,11.272208 6.522657,11.14433 6.670689,11.143867" style="fill: white" /><polygon type="contour" points="6.138298,11.14695 6.138422,11.309921 6.138392,11.437583 6.083801,11.437583 6.050997,11.437614 5.922018,11.437614 5.887728,11.437651 5.842891,11.437651 5.843489,11.305006 5.84482,11.25777 5.844553,11.223137 5.843685,11.145505 5.920214,11.144414 5.953969,11.143937" style="fill: white" /><polygon type="contour" points="6.138226,5.842774 6.138226,5.891939 6.138422,6.009273 6.138422,6.138424 5.984896,6.139508 5.927886,6.139508 5.919079,6.139259 5.84258,6.137907 5.844874,5.927017 5.843014,5.843015 5.880496,5.844288 5.987215,5.832629" style="fill: white" /><polygon type="contour" points="6.610228,6.019067 6.735506,6.019378 6.735506,6.10505 6.735424,6.140287 6.611982,6.139642 6.522657,6.139642 6.522657,6.019018" style="fill: white" /><polygon type="contour" points="7.15066,6.522157 7.341107,6.522666 7.341294,6.666791 7.341294,6.735432 7.150661,6.735432 7.05982,6.735508 7.05982,6.585333 7.059739,6.522139" style="fill: white" /><polygon type="contour" points="7.217304,6.019422 7.341461,6.019664 7.341461,6.139816 7.150661,6.140218 7.059739,6.140287 7.059739,6.055538 7.05982,6.019378" style="fill: white" /><polygon type="contour" points="7.826698,5.843491 7.873931,5.844822 7.908561,5.844555 7.986195,5.843687 7.987285,5.920216 7.987764,5.953971 7.984751,6.138299 7.823071,6.1384 7.694297,6.138371 7.694297,6.083324 7.694089,6.051 7.694089,5.922019 7.694051,5.887729 7.694051,5.842892" style="fill: white" /><polygon type="contour" points="7.987836,6.67069 7.987789,6.735508 7.780006,6.735508 7.694104,6.735432 7.694104,6.666791 7.694267,6.522666 7.859494,6.522666 7.987372,6.52266" style="fill: white" /><polygon type="contour" points="7.987789,7.059822 7.98724,7.217308 7.987467,7.341463 7.694004,7.341463 7.694104,7.150662 7.694104,7.059669 7.89422,7.059669" style="fill: white" /><polygon type="contour" points="7.341461,7.208601 7.341461,7.341463 7.15066,7.341295 7.059667,7.341295 7.059667,7.150662 7.059819,7.059822 7.257754,7.059822 7.341294,7.059669" style="fill: white" /><polygon type="contour" points="6.735506,7.059822 6.735506,7.257755 6.73543,7.341295 6.666789,7.341295 6.522664,7.341108 6.522154,7.150662 6.522136,7.059741 6.670688,7.059741" style="fill: white" /><polygon type="contour" points="6.735424,6.67069 6.735506,6.735508 6.58533,6.735508 6.522136,6.735426 6.522657,6.611985 6.522657,6.52266 6.670689,6.522139 6.735424,6.522139" style="fill: white" /><polygon type="contour" points="6.13964,6.611984 6.140285,6.735426 6.055537,6.735426 6.019377,6.735508 6.019065,6.61023 6.019015,6.52266 6.13964,6.52266" style="fill: white" /><polygon type="contour" points="6.140216,7.150662 6.139815,7.341463 6.019662,7.341463 6.019543,7.150662 6.019377,7.059822 6.105049,7.059822 6.140285,7.059741" style="fill: white" /><polygon type="contour" points="6.003046,7.694121 6.138392,7.694121 6.138392,7.850943 6.138422,7.984756 5.954977,7.987842 5.920975,7.987371 5.84345,7.986274 5.844658,7.87282 5.84349,7.826699 5.842891,7.694052 5.887728,7.694052" style="fill: white" /><polygon type="contour" points="6.73543,7.89422 6.735506,7.98779 6.670689,7.987837 6.522657,7.987374 6.522657,7.81597 6.522664,7.69427 6.666789,7.694105 6.73543,7.694105" style="fill: white" /><polygon type="contour" points="7.341461,7.987468 7.217304,7.987242 7.05982,7.98779 7.05982,7.780008 7.059667,7.694105 7.208599,7.694006 7.341461,7.694006" style="fill: white" /><polygon type="contour" points="7.987163,7.827532 7.986233,7.866211 7.981592,7.923791 7.98204,7.982042 7.744663,7.978294 7.694224,7.985041 7.694224,7.825804 7.694051,7.694052 7.984909,7.694052" style="fill: white" /><polygon type="contour" points="13.28821,7.826699 13.28688,7.873931 13.288015,7.986197 13.211485,7.987287 13.17773,7.987765 12.993401,7.984754 12.993277,7.821781 12.993308,7.694121 13.047898,7.694121 13.080702,7.69409 13.209682,7.69409 13.243972,7.694052 13.28881,7.694052" style="fill: white" /><polygon type="contour" points="13.251203,5.844288 13.288687,5.843015 13.287505,5.87867 13.286827,5.927017 13.289121,6.137907 13.21262,6.13926 13.203814,6.139508 13.045678,6.138424 12.993278,6.138424 12.993279,6.086025 12.993278,6.009272 12.993473,5.842774" style="fill: white" /><polygon type="contour" points="11.437649,5.887729 11.437403,6.001896 11.437403,6.138371 11.281699,6.138371 11.146766,6.1384 11.14386,5.954978 11.144332,5.920977 11.145427,5.843451 11.25888,5.84466 11.305002,5.843491 11.437649,5.842892" style="fill: white" /><polygon type="contour" points="11.437431,6.522666 11.437596,6.666791 11.437596,6.735432 11.23748,6.735432 11.143911,6.735508 11.143864,6.67069 11.144329,6.52266 11.315729,6.52266" style="fill: white" /><polygon type="contour" points="11.437696,7.2086 11.437696,7.341463 11.144233,7.341463 11.144459,7.217307 11.143911,7.059822 11.351692,7.059822 11.437596,7.059669" style="fill: white" /><polygon type="contour" points="12.07188,7.059821 12.07188,7.257755 12.072033,7.341295 11.923101,7.341463 11.790239,7.341463 11.790406,7.150662 11.790406,7.059669 11.981039,7.059669" style="fill: white" /><polygon type="contour" points="12.071961,6.67069 12.071879,6.735508 11.873945,6.735508 11.790406,6.735432 11.790406,6.666791 11.790594,6.522666 11.981039,6.522157 12.071961,6.522138" style="fill: white" /><polygon type="contour" points="12.07188,6.105051 12.071961,6.140287 11.981038,6.140218 11.790239,6.139816 11.790239,6.019664 11.914395,6.019422 12.07188,6.019378" style="fill: white" /><polygon type="contour" points="12.609042,6.068968 12.609042,6.139642 12.519717,6.139642 12.396276,6.140287 12.396276,6.055538 12.396195,6.019378 12.521471,6.019067 12.609043,6.019018" style="fill: white" /><polygon type="contour" points="12.519718,6.52266 12.609042,6.52266 12.60956,6.67069 12.60956,6.735426 12.46101,6.735426 12.396195,6.735507 12.396195,6.585333 12.396276,6.522139" style="fill: white" /><polygon type="contour" points="13.112636,6.61023 13.112322,6.735508 13.026651,6.735508 12.991414,6.735426 12.992059,6.611984 12.992059,6.52266 13.112685,6.52266" style="fill: white" /><polygon type="contour" points="13.112322,7.059822 13.112281,7.217307 13.112039,7.341463 12.991885,7.341463 12.991484,7.150663 12.991415,7.059742 13.07616,7.059742" style="fill: white" /><polygon type="contour" points="12.609543,7.150662 12.609036,7.341109 12.46491,7.341295 12.396271,7.341295 12.396271,7.150663 12.396195,7.059822 12.546365,7.059822 12.609561,7.059742" style="fill: white" /><polygon type="contour" points="12.609036,7.69427 12.609036,7.859495 12.609042,7.987374 12.461011,7.987837 12.396195,7.98779 12.396195,7.780008 12.396271,7.694105 12.46491,7.694105" style="fill: white" /><polygon type="contour" points="11.981038,7.694105 12.072033,7.694105 12.072033,7.89422 12.07188,7.98779 11.914395,7.987242 11.790239,7.987468 11.790239,7.694006" style="fill: white" /><polygon type="contour" points="11.437649,7.98491 11.304168,7.987165 11.149659,7.982042 11.153407,7.744666 11.146659,7.694226 11.305896,7.694226 11.437649,7.694052" style="fill: white" /><polygon type="contour" points="11.437476,11.305899 11.437649,11.437651 11.146791,11.437651 11.144536,11.304169 11.149659,11.14966 11.387037,11.153409 11.437476,11.146662" style="fill: white" /><polygon type="contour" points="13.210725,11.144334 13.28825,11.14543 13.287344,11.224041 13.287042,11.258883 13.28821,11.305006 13.28881,11.437651 13.243971,11.437651 13.128654,11.437583 12.993308,11.437583 12.993308,11.28076 12.993278,11.146948 13.176721,11.143862" style="fill: white" /><polygon type="contour" points="13.112281,11.914396 13.112322,12.071881 13.02665,12.071882 12.991415,12.071963 12.991484,11.98104 12.991885,11.790241 13.112039,11.790241" style="fill: white" /><polygon type="contour" points="12.609036,11.790596 12.609543,11.98104 12.609561,12.071963 12.46101,12.071963 12.396195,12.071882 12.396195,11.873947 12.396271,11.790409 12.46491,11.790409" style="fill: white" /><polygon type="contour" points="12.521472,11.144401 12.609042,11.14433 12.609042,11.315731 12.609036,11.437433 12.464911,11.437599 12.396271,11.437599 12.396271,11.237482 12.396195,11.143913" style="fill: white" /><polygon type="contour" points="12.07188,11.351693 12.072033,11.437598 11.9231,11.437698 11.790239,11.437698 11.790239,11.144236 11.914395,11.144461 12.07188,11.143913" style="fill: white" /><polygon type="contour" points="11.981039,11.790409 12.072033,11.790409 12.072033,11.981041 12.07188,12.071882 11.873945,12.071882 11.790406,12.072035 11.790239,11.923102 11.790239,11.790241" style="fill: white" /><polygon type="contour" points="11.437596,11.981041 11.437596,12.072035 11.237479,12.072035 11.143911,12.071882 11.144459,11.914396 11.144233,11.790241 11.437696,11.790241" style="fill: white" /><polygon type="contour" points="11.437596,12.396272 11.437596,12.464912 11.437431,12.609038 11.272205,12.609038 11.144329,12.609043 11.143864,12.461012 11.143911,12.396197 11.351692,12.396197" style="fill: white" /><polygon type="contour" points="11.437403,12.993333 11.437403,13.048379 11.437611,13.080703 11.437611,13.209685 11.437649,13.243975 11.437649,13.288813 11.305002,13.288212 11.257769,13.286883 11.145504,13.288017 11.144413,13.211487 11.143935,13.177732 11.146948,12.993402 11.308628,12.993303" style="fill: white" /><polygon type="contour" points="12.519717,12.992061 12.609043,12.992062 12.609042,13.042013 12.609042,13.112686 12.521471,13.112637 12.396195,13.112324 12.396195,13.026652 12.396276,12.991416" style="fill: white" /><polygon type="contour" points="12.071961,13.076162 12.07188,13.112324 11.914394,13.112283 11.790239,13.11204 11.790239,12.991887 11.981038,12.991486 12.071961,12.991416" style="fill: white" /><polygon type="contour" points="12.07188,12.546368 12.071961,12.609563 11.981039,12.609546 11.790594,12.609038 11.790406,12.464912 11.790406,12.396272 11.981039,12.396272 12.07188,12.396197" style="fill: white" /><polygon type="contour" points="12.60956,12.396278 12.609042,12.519719 12.609043,12.609043 12.461011,12.609563 12.396276,12.609563 12.396276,12.461011 12.396195,12.396197 12.546365,12.396197" style="fill: white" /><polygon type="contour" points="13.112636,12.521473 13.112685,12.609043 12.99206,12.609043 12.992059,12.519718 12.991414,12.396278 13.07616,12.396277 13.112322,12.396196" style="fill: white" /><polygon type="contour" points="13.21262,12.99244 13.289121,12.993795 13.286827,13.204685 13.288687,13.288689 13.251203,13.287415 13.144486,13.299076 12.993473,13.288931 12.993473,13.239764 12.993278,13.12243 12.993278,13.045678 12.993279,12.993279 13.146803,12.992193 13.203814,12.992193" style="fill: white" />
</svg>
