<svg width="19.131698" height="19.131699">
<polygon type="contour" points="10.940778,10.730901 10.940778,10.940583 10.64809,10.940583 10.649,10.87159 10.651863,10.841948 10.654688,10.65469 10.871588,10.649001 10.940581,10.648091" style="fill: white" /><polygon type="contour" points="12.021475,12.282466 12.021475,12.339073 12.021654,12.399655 11.904605,12.399857 11.770298,12.398935 11.770185,12.354903 11.770185,12.282213 11.865222,12.282213" style="fill: white" /><polygon type="contour" points="12.491451,12.284516 12.575298,12.2853 12.571936,12.516739 12.572969,12.544209 12.574213,12.574214 12.511787,12.571824 12.478298,12.571545 12.284,12.574177 12.284,12.433169 12.283871,12.283873 12.370327,12.283873 12.469463,12.283613" style="fill: white" /><polygon type="contour" points="12.574119,10.816494 12.574201,10.940646 12.473991,10.940646 12.399761,10.940488 12.360376,10.940395 12.28378,10.940395 12.284,10.790495 12.284,10.648123 12.542926,10.645648 12.571647,10.645532" style="fill: white" /><polygon type="contour" points="12.336684,11.231534 12.399415,11.231534 12.399758,11.320461 12.398934,11.432244 12.3549,11.43239 12.282212,11.43239 12.282212,11.356411 12.282661,11.231419" style="fill: white" /><polygon type="contour" points="12.021546,11.33036 12.021485,11.43239 11.937727,11.432244 11.770298,11.432244 11.770335,11.361338 11.770335,11.23158 11.865222,11.231491 12.021546,11.231419" style="fill: white" /><polygon type="contour" points="12.321049,11.7703 12.398934,11.7703 12.399856,11.904607 12.399654,12.021656 12.339072,12.021477 12.282465,12.021477 12.282465,11.899056 12.282212,11.770187" style="fill: white" /><polygon type="contour" points="12.021485,11.865224 12.021654,12.021656 11.894006,12.021547 11.865223,12.021487 11.770185,12.021487 11.770298,11.937729 11.770298,11.7703 11.865222,11.770187 12.021485,11.770187" style="fill: white" /><polygon type="contour" points="11.432388,11.865224 11.432388,12.021487 11.35641,12.021487 11.231418,12.021547 11.231489,11.865224 11.231578,11.770338 11.298394,11.7703 11.432242,11.7703" style="fill: white" /><polygon type="contour" points="11.432242,12.321051 11.432242,12.398935 11.320459,12.399759 11.231532,12.399417 11.231532,12.336685 11.231418,12.282662 11.330357,12.282662 11.432388,12.282213" style="fill: white" /><polygon type="contour" points="10.798005,12.284002 10.94038,12.284002 10.940393,12.360378 10.940581,12.449654 10.940644,12.473991 10.940644,12.574203 10.659212,12.571165 10.64494,12.571156 10.647979,12.39979 10.647974,12.283873" style="fill: white" /><polygon type="contour" points="10.74871,11.770338 10.940412,11.770338 10.940321,11.865224 10.940593,12.021656 10.645976,12.021656 10.646088,11.904607 10.645412,11.7703" style="fill: white" /><polygon type="contour" points="10.940665,11.324947 10.940412,11.432233 10.843155,11.432244 10.645412,11.432244 10.645347,11.361338 10.645778,11.231534 10.940665,11.231534" style="fill: white" /><polygon type="contour" points="11.432231,11.23158 11.432242,11.298395 11.432242,11.432244 11.361336,11.432233 11.231578,11.432233 11.231578,11.361339 11.231532,11.231534 11.324945,11.231534" style="fill: white" /><polygon type="contour" points="11.432231,10.748713 11.432231,10.940414 11.324945,10.940667 11.231532,10.940667 11.231532,10.64578 11.320459,10.645884 11.432242,10.645413" style="fill: white" /><polygon type="contour" points="11.904605,10.64609 12.021654,10.645978 12.021654,10.940594 11.898989,10.940733 11.770335,10.940413 11.770298,10.843156 11.770298,10.645413" style="fill: white" /><polygon type="contour" points="12.571936,6.614965 12.575298,6.846403 12.49145,6.84685 12.469464,6.848091 12.399511,6.848091 12.283999,6.847701 12.283967,6.731939 12.283967,6.557799 12.478298,6.56016 12.511786,6.55988 12.540713,6.558616 12.574213,6.557491" style="fill: white" /><polygon type="contour" points="12.021654,6.732049 12.021475,6.79263 12.021475,6.849237 11.899053,6.849237 11.770185,6.849491 11.770298,6.810653 11.770298,6.732768 11.904605,6.731847" style="fill: white" /><polygon type="contour" points="12.571165,8.47249 12.571156,8.486762 12.399789,8.483723 12.284,8.483581 12.284,8.191323 12.337546,8.191201 12.47399,8.191058 12.5742,8.191058" style="fill: white" /><polygon type="contour" points="12.021654,8.485726 11.904605,8.485614 11.770298,8.486291 11.770335,8.38299 11.770335,8.191291 11.865222,8.191381 12.021654,8.19111" style="fill: white" /><polygon type="contour" points="10.940581,8.273931 10.940581,8.483613 10.871589,8.482702 10.841946,8.479838 10.654688,8.477014 10.655976,8.307604 10.651862,8.289754 10.649,8.260112 10.64809,8.191121 10.940778,8.191121" style="fill: white" /><polygon type="contour" points="11.432231,8.191291 11.432242,8.288546 11.432242,8.486291 11.320459,8.485819 11.231532,8.485924 11.231532,8.191037 11.324945,8.191037" style="fill: white" /><polygon type="contour" points="11.432231,7.770366 11.432231,7.900124 11.361337,7.900124 11.231532,7.900171 11.231532,7.806756 11.231578,7.699471 11.298393,7.69946 11.432242,7.69946" style="fill: white" /><polygon type="contour" points="12.021485,7.775291 12.021546,7.900285 11.865222,7.900212 11.770335,7.900124 11.770298,7.833308 11.770298,7.69946 11.865223,7.699314 12.021485,7.699314" style="fill: white" /><polygon type="contour" points="12.32105,7.69946 12.398934,7.69946 12.399758,7.811242 12.399415,7.900171 12.336684,7.900171 12.282661,7.900285 12.282661,7.801345 12.282212,7.699314" style="fill: white" /><polygon type="contour" points="12.399856,7.227096 12.398934,7.361404 12.3549,7.361518 12.282212,7.361518 12.282212,7.266479 12.282465,7.110227 12.339072,7.110227 12.399654,7.110048" style="fill: white" /><polygon type="contour" points="12.021546,7.237694 12.021485,7.266479 12.021485,7.361518 11.937727,7.361404 11.770298,7.361404 11.770185,7.266479 11.770185,7.110216 11.865223,7.110216 12.021654,7.110048" style="fill: white" /><polygon type="contour" points="11.432388,7.110216 11.432242,7.193973 11.432242,7.361404 11.361337,7.361366 11.231578,7.361366 11.231488,7.266478 11.231418,7.110156 11.330358,7.110156" style="fill: white" /><polygon type="contour" points="11.432242,6.732768 11.432388,6.7768 11.432388,6.849491 11.356411,6.849491 11.231418,6.84904 11.231532,6.795016 11.231532,6.732288 11.320459,6.731945" style="fill: white" /><polygon type="contour" points="10.940393,6.771324 10.940393,6.847922 10.790494,6.847701 10.648121,6.847701 10.645647,6.588776 10.645531,6.560056 10.816492,6.557582 10.940581,6.557348" style="fill: white" /><polygon type="contour" points="10.940731,7.232711 10.940412,7.361366 10.843155,7.361404 10.645412,7.361404 10.646088,7.227096 10.645976,7.110048 10.940593,7.110048" style="fill: white" /><polygon type="contour" points="10.748711,7.699471 10.940412,7.699471 10.940665,7.806756 10.940665,7.900171 10.645778,7.900171 10.645883,7.811242 10.645412,7.69946" style="fill: white" /><polygon type="contour" points="6.619932,6.559839 6.6534,6.56016 6.847699,6.557527 6.847699,6.8477 6.791022,6.8477 6.761371,6.847831 6.662237,6.848091 6.64025,6.84685 6.556403,6.846403 6.559765,6.614965 6.55873,6.587494 6.557488,6.557491" style="fill: white" /><polygon type="contour" points="6.792628,7.110227 6.849235,7.110227 6.849235,7.232649 6.849489,7.361518 6.81065,7.361404 6.732766,7.361404 6.731844,7.227096 6.732047,7.110048" style="fill: white" /><polygon type="contour" points="8.472488,6.560536 8.48676,6.560545 8.483721,6.731912 8.483726,6.847831 8.333693,6.847701 8.19132,6.847701 8.191306,6.771324 8.19112,6.682049 8.191056,6.657711 8.191056,6.5575" style="fill: white" /><polygon type="contour" points="7.900169,6.732288 7.900169,6.795016 7.900283,6.84904 7.801342,6.84904 7.699312,6.849491 7.699458,6.810652 7.699458,6.732769 7.811241,6.731945" style="fill: white" /><polygon type="contour" points="7.361402,6.732769 7.361516,6.776801 7.361516,6.849491 7.266477,6.849491 7.110225,6.849237 7.110225,6.79263 7.110047,6.732049 7.227094,6.731847" style="fill: white" /><polygon type="contour" points="7.237692,7.110156 7.266477,7.110217 7.361516,7.110217 7.361402,7.193974 7.361402,7.361403 7.266476,7.361518 7.110215,7.361518 7.110215,7.266478 7.110047,7.110048" style="fill: white" /><polygon type="contour" points="7.361365,8.191291 7.361402,8.288547 7.361402,8.486291 7.227095,8.485614 7.110047,8.485726 7.110047,8.19111 7.232711,8.190971" style="fill: white" /><polygon type="contour" points="6.731936,8.191214 6.771322,8.19131 6.84792,8.19131 6.847699,8.341208 6.847699,8.483581 6.588775,8.486055 6.560054,8.486172 6.55758,8.31521 6.557498,8.191058 6.657709,8.191058" style="fill: white" /><polygon type="contour" points="6.849489,7.775291 6.849038,7.900285 6.795014,7.900171 6.732285,7.900171 6.731943,7.811242 6.732767,7.69946 6.776798,7.699314 6.849489,7.699314" style="fill: white" /><polygon type="contour" points="7.193972,7.69946 7.361402,7.69946 7.361365,7.770366 7.361365,7.900124 7.266477,7.900212 7.110154,7.900285 7.110154,7.801344 7.110215,7.699314" style="fill: white" /><polygon type="contour" points="7.770364,7.699471 7.900122,7.699471 7.900122,7.770365 7.900169,7.900171 7.806755,7.900171 7.69947,7.900124 7.699458,7.833308 7.699458,7.69946" style="fill: white" /><polygon type="contour" points="7.90021,7.266479 7.900122,7.361366 7.833306,7.361404 7.699458,7.361404 7.699312,7.266478 7.699312,7.110217 7.775289,7.110217 7.900283,7.110156" style="fill: white" /><polygon type="contour" points="8.485612,7.227096 8.486289,7.361404 8.382989,7.361366 8.191289,7.361366 8.191379,7.266479 8.191108,7.110048 8.485725,7.110048" style="fill: white" /><polygon type="contour" points="8.485818,7.811242 8.485922,7.900171 8.191035,7.900171 8.191035,7.806756 8.191289,7.699471 8.288544,7.69946 8.486289,7.69946" style="fill: white" /><polygon type="contour" points="8.479126,8.338035 8.477012,8.477014 8.307604,8.475726 8.289752,8.479838 8.260111,8.482701 8.19112,8.483613 8.19112,8.191121 8.48361,8.191121" style="fill: white" /><polygon type="contour" points="7.900169,8.485924 7.811241,8.485819 7.699458,8.486291 7.69947,8.382991 7.69947,8.191291 7.806755,8.191037 7.900169,8.191037" style="fill: white" /><polygon type="contour" points="8.338034,10.652577 8.477012,10.65469 8.482699,10.871591 8.48361,10.940583 8.19112,10.940583 8.19112,10.648091" style="fill: white" /><polygon type="contour" points="7.900169,10.64578 7.900169,10.940667 7.806755,10.940667 7.69947,10.940414 7.699458,10.843157 7.699458,10.645412 7.770363,10.645348" style="fill: white" /><polygon type="contour" points="7.361365,10.748713 7.361365,10.940414 7.266477,10.940323 7.110047,10.940594 7.110047,10.645978 7.227095,10.64609 7.361402,10.645413" style="fill: white" /><polygon type="contour" points="6.731909,10.647981 6.847699,10.648123 6.847699,10.94038 6.794152,10.940502 6.657709,10.940646 6.557498,10.940646 6.560534,10.659213 6.560543,10.644942" style="fill: white" /><polygon type="contour" points="6.849038,11.33036 6.849489,11.43239 6.81065,11.432244 6.732766,11.432244 6.731943,11.320461 6.732285,11.231534 6.795014,11.231534 6.849038,11.231419" style="fill: white" /><polygon type="contour" points="7.266477,11.231491 7.361365,11.23158 7.361402,11.298396 7.361402,11.432244 7.266476,11.43239 7.110215,11.43239 7.110215,11.356412 7.110154,11.231419" style="fill: white" /><polygon type="contour" points="7.193973,11.7703 7.361401,11.7703 7.361516,11.865225 7.361516,12.021487 7.266477,12.021487 7.110047,12.021656 7.110154,11.894009 7.110215,11.865224 7.110215,11.770187" style="fill: white" /><polygon type="contour" points="6.849489,11.865224 6.849235,12.021477 6.792628,12.021477 6.732047,12.021656 6.731844,11.904607 6.732767,11.7703 6.776798,11.770187 6.849489,11.770187" style="fill: white" /><polygon type="contour" points="6.847699,12.284002 6.847731,12.399763 6.847731,12.573904 6.653401,12.571545 6.619913,12.571824 6.590986,12.573087 6.557488,12.574214 6.559765,12.516739 6.556403,12.2853 6.640249,12.284516 6.662237,12.283613 6.732188,12.283613" style="fill: white" /><polygon type="contour" points="7.361402,12.321051 7.361402,12.398935 7.227094,12.399857 7.110047,12.399655 7.110225,12.339073 7.110225,12.282466 7.232646,12.282466 7.361516,12.282213" style="fill: white" /><polygon type="contour" points="7.900283,12.282662 7.900169,12.336685 7.900169,12.399417 7.811242,12.399759 7.699457,12.398934 7.699312,12.354903 7.699312,12.282213 7.77529,12.282213" style="fill: white" /><polygon type="contour" points="7.770363,11.770338 7.900122,11.770338 7.90021,11.865224 7.900283,12.021547 7.801342,12.021547 7.699312,12.021487 7.699458,11.937729 7.699458,11.7703" style="fill: white" /><polygon type="contour" points="7.900169,11.324947 7.900122,11.432233 7.833307,11.432244 7.699458,11.432244 7.69947,11.361338 7.69947,11.23158 7.770363,11.23158 7.900169,11.231534" style="fill: white" /><polygon type="contour" points="8.485818,11.320461 8.486289,11.432244 8.382988,11.432233 8.191289,11.432233 8.191035,11.324947 8.191035,11.231534 8.485921,11.231534" style="fill: white" /><polygon type="contour" points="8.485612,11.904607 8.485725,12.021656 8.191108,12.021656 8.190969,11.898991 8.191289,11.770338 8.288545,11.770301 8.486289,11.770301" style="fill: white" /><polygon type="contour" points="8.341205,12.284002 8.483579,12.284002 8.486052,12.542926 8.486169,12.571647 8.315208,12.574121 8.191119,12.574356 8.191307,12.360379 8.191307,12.283782" style="fill: white" />
</svg>
