<svg width="19.131698" height="19.131699">
<polygon type="contour" points="7.699381,7.540142 7.839694,7.550792 7.839694,7.718976 7.965318,7.718656 7.965425,7.846609 7.965413,7.858314 7.965318,7.949787 7.965318,7.96532 7.852819,7.965425 7.735811,7.96532 7.718653,7.96532 7.718621,7.952019 7.718952,7.839723 7.634351,7.839011 7.561621,7.838134 7.561251,7.838044 7.548693,7.837947 7.548724,7.798304 7.53888,7.538882" style="fill: white" /><polygon type="contour" points="7.949784,8.500958 7.965318,8.500958 7.965474,8.587459 7.965474,8.622333 7.96559,8.885332 7.96559,8.962734 7.965318,9.072186 7.965318,9.090765 7.865311,9.090687 7.85698,9.090647 7.735178,9.090691 7.718699,9.090691 7.718628,9.074832 7.718991,8.915644 7.550013,8.915644 7.550064,8.888224 7.550386,8.622113 7.719413,8.622113 7.718653,8.500958 7.846606,8.500537" style="fill: white" /><polygon type="contour" points="9.072184,8.500958 9.090763,8.500958 9.089799,8.58746 9.089611,8.602061 9.09071,8.886401 9.09071,8.962682 9.090591,9.07274 9.090591,9.090691 8.975475,9.090782 8.915856,9.090782 8.647658,9.089752 8.595958,9.089752 8.514247,9.090691 8.500957,9.090765 8.50052,8.976072 8.50052,8.915869 8.500788,8.648614 8.500788,8.595927 8.500957,8.514663 8.500957,8.500958 8.587458,8.50079 8.622333,8.50079 8.88533,8.500521 8.962731,8.500521" style="fill: white" /><polygon type="contour" points="8.915147,7.549394 8.914865,7.621911 8.91566,7.628738 8.91566,7.718993 9.07483,7.71863 9.090591,7.718701 9.090611,7.846711 9.09059,7.950229 9.090762,7.96532 8.976069,7.965591 8.915867,7.965591 8.648614,7.965476 8.595926,7.965476 8.514661,7.96532 8.500957,7.96532 8.500536,7.852821 8.500583,7.839828 8.500957,7.735813 8.500957,7.718656 8.512882,7.718623 8.622144,7.719363 8.622144,7.572475 8.622138,7.561342 8.622138,7.550363 8.873798,7.549256" style="fill: white" /><polygon type="contour" points="10.497754,7.550399 10.509563,7.550363 10.509563,7.556885 10.509557,7.572475 10.509603,7.719415 10.630744,7.718656 10.631164,7.846609 10.630744,7.949786 10.630744,7.96532 10.555402,7.965455 10.54424,7.965476 10.509368,7.965476 10.246369,7.965591 10.168968,7.965591 10.059517,7.96532 10.040938,7.96532 10.041015,7.865314 10.041053,7.857015 10.041012,7.735179 10.041012,7.718701 10.05687,7.71863 10.216027,7.718993 10.21604,7.628739 10.216553,7.549394" style="fill: white" /><polygon type="contour" points="11.59265,7.694659 11.583014,7.83794 11.570076,7.838135 11.497348,7.839011 11.412725,7.839723 11.413047,7.96532 11.285092,7.965426 11.181914,7.96532 11.166381,7.96532 11.166275,7.852821 11.166287,7.839828 11.166287,7.839827 11.166381,7.735813 11.166381,7.718656 11.17968,7.718624 11.292006,7.718953 11.292006,7.550792 11.299009,7.550765 11.59282,7.538881" style="fill: white" /><polygon type="contour" points="11.395889,8.500958 11.413046,8.500958 11.41308,8.512883 11.412341,8.622113 11.581315,8.622113 11.581635,8.888223 11.581687,8.915644 11.412707,8.915644 11.413073,9.074832 11.413002,9.090691 11.299293,9.090654 11.273425,9.090654 11.18147,9.09069 11.166381,9.090764 11.16611,8.976071 11.16611,8.91587 11.166227,8.648613 11.166227,8.595926 11.166381,8.514662 11.166381,8.500958 11.27888,8.500538" style="fill: white" /><polygon type="contour" points="10.483086,8.50079 10.535774,8.50079 10.617039,8.500958 10.630744,8.500958 10.630912,8.587459 10.630912,8.622332 10.63118,8.885331 10.63118,8.962734 10.630744,9.072186 10.630744,9.090765 10.544241,9.089801 10.525103,9.08969 10.2453,9.090782 10.16902,9.090782 10.058961,9.090691 10.041012,9.090691 10.040921,8.975547 10.040921,8.915859 10.04195,8.64766 10.04195,8.595959 10.041011,8.514248 10.040937,8.500958 10.15563,8.500521 10.215831,8.500521" style="fill: white" /><polygon type="contour" points="10.63118,10.155631 10.63118,10.215833 10.630912,10.483089 10.630912,10.535776 10.630744,10.617041 10.630744,10.630746 10.544241,10.630914 10.509367,10.630914 10.246369,10.631183 10.168968,10.631183 10.059516,10.630746 10.040938,10.630746 10.041901,10.544244 10.042011,10.525112 10.040921,10.245302 10.040921,10.169021 10.041012,10.058964 10.041012,10.041112 10.156153,10.040993 10.215842,10.040993 10.484042,10.042013 10.535742,10.042013 10.617453,10.041111 10.630744,10.04094" style="fill: white" /><polygon type="contour" points="11.266388,10.041017 11.27313,10.04109 11.396522,10.041112 11.413002,10.041112 11.413073,10.056872 11.412707,10.21606 11.581687,10.21606 11.581635,10.24348 11.581315,10.509591 11.412287,10.509591 11.413047,10.630745 11.285092,10.631166 11.273389,10.631119 11.273388,10.631119 11.181914,10.630746 11.166381,10.630746 11.166247,10.555861 11.166227,10.544244 11.166227,10.50937 11.16611,10.246372 11.16611,10.16897 11.166381,10.059519 11.166381,10.04094" style="fill: white" /><polygon type="contour" points="11.291873,11.16629 11.395889,11.166382 11.413047,11.166382 11.413079,11.179682 11.412748,11.291979 11.497348,11.292691 11.570077,11.293567 11.570446,11.293659 11.583005,11.293757 11.582973,11.333399 11.59282,11.592821 11.432319,11.591561 11.292006,11.580912 11.292006,11.412727 11.166381,11.413048 11.166274,11.285093 11.166381,11.181915 11.166381,11.166382 11.27888,11.166278" style="fill: white" /><polygon type="contour" points="10.483086,11.166228 10.535774,11.166228 10.617038,11.166382 10.630744,11.166382 10.631163,11.278881 10.630744,11.39589 10.630744,11.413047 10.618818,11.41308 10.509557,11.412341 10.509557,11.559228 10.509563,11.570361 10.509563,11.581341 10.2579,11.582448 10.216553,11.58231 10.216835,11.509792 10.21604,11.502964 10.21604,11.41271 10.05687,11.413074 10.041012,11.413003 10.041048,11.299294 10.041048,11.273426 10.041012,11.181471 10.040938,11.166382 10.155629,11.166113 10.215832,11.166113" style="fill: white" /><polygon type="contour" points="9.072184,11.166382 9.090763,11.166382 9.090686,11.266389 9.090612,11.273147 9.090592,11.396523 9.090591,11.413003 9.07483,11.413074 8.915672,11.41271 8.91566,11.502964 8.915147,11.58231 8.633945,11.581305 8.622138,11.581341 8.622138,11.574818 8.622144,11.559228 8.622097,11.412288 8.500957,11.413048 8.500535,11.285093 8.500957,11.181914 8.500957,11.166382 8.576104,11.166248 8.587458,11.166228 8.622333,11.166228 8.88533,11.166113 8.962732,11.166113" style="fill: white" /><polygon type="contour" points="8.587458,10.041903 8.602061,10.042091 8.886398,10.040993 8.96268,10.040993 9.072739,10.041112 9.09059,10.041112 9.09071,10.156227 9.09071,10.215844 9.08969,10.484044 9.08969,10.535744 9.090591,10.617455 9.090762,10.630746 8.97607,10.631183 8.915867,10.631183 8.648614,10.630914 8.595927,10.630914 8.514661,10.630746 8.500957,10.630746 8.500788,10.544243 8.500788,10.509371 8.50052,10.246372 8.50052,10.168969 8.500957,10.059518 8.500957,10.04094" style="fill: white" /><polygon type="contour" points="7.96559,10.155631 7.96559,10.215833 7.965474,10.48309 7.965474,10.535777 7.965318,10.617041 7.965318,10.630746 7.852819,10.631165 7.839825,10.631119 7.73581,10.630746 7.718653,10.630746 7.718621,10.61882 7.719359,10.509591 7.550386,10.509591 7.550064,10.243479 7.550013,10.21606 7.718991,10.21606 7.718628,10.056872 7.718698,10.041112 7.846708,10.041091 7.858274,10.041094 7.950228,10.041112 7.965318,10.04094" style="fill: white" /><polygon type="contour" points="7.949784,11.166382 7.965317,11.166382 7.965424,11.278881 7.965413,11.291875 7.965318,11.395891 7.965318,11.413047 7.952017,11.41308 7.839694,11.41275 7.839694,11.580912 7.832691,11.580939 7.53888,11.592822 7.539051,11.437044 7.548684,11.293763 7.561621,11.293568 7.634351,11.292691 7.718974,11.291979 7.718653,11.166382 7.846606,11.166278" style="fill: white" />
</svg>
