<svg width="19.131698" height="19.131699">
<polygon type="contour" points="15.389874,8.503185 15.389836,8.684446 15.456918,8.707737 15.479336,8.679332 15.484827,8.679629 15.484827,8.797457 15.484756,10.290523 15.484735,10.332884 15.38966,10.459164 15.389875,10.628519 15.111983,10.628345 15.090682,10.62843 15.090682,8.503274 15.310736,8.503138" style="fill: white" /><polygon type="contour" points="9.463284,3.646925 9.537602,3.646865 10.438299,3.646865 10.452073,3.646871 10.45237,3.652362 10.423959,3.674784 10.44725,3.741865 10.628517,3.741827 10.628343,4.019717 10.628428,4.041019 8.503272,4.041019 8.503136,3.820966 8.503183,3.741827 8.672379,3.742041 8.792762,3.646688" style="fill: white" /><polygon type="contour" points="11.178723,3.741868 11.178723,3.816011 11.178836,3.856369 11.178984,3.924091 11.179037,4.041178 11.135407,4.041267 11.110472,4.041196 11.06214,4.041283 11.062316,3.934657 11.061834,3.742107 11.079707,3.742201 11.088341,3.741724" style="fill: white" /><polygon type="contour" points="11.655104,3.741932 11.73327,3.742069 11.73327,3.790732 11.733796,3.85637 11.733802,3.924091 11.733562,4.041173 11.715805,4.041119 11.693962,4.041117 11.686935,4.041266 11.660261,4.041196 11.653305,4.041365 11.609674,4.041278 11.610014,3.899717 11.609594,3.742092 11.624617,3.742062 11.634819,3.741922" style="fill: white" /><polygon type="contour" points="12.223835,3.742138 12.288288,3.741895 12.288335,3.856369 12.288483,3.924091 12.288572,4.041151 12.277255,4.041112 12.248788,4.041117 12.241715,4.041267 12.215361,4.041196 12.208408,4.041364 12.164489,4.041226 12.164933,3.883667 12.16448,3.742092 12.179716,3.742062 12.189923,3.741921 12.211899,3.741818" style="fill: white" /><polygon type="contour" points="13.325245,3.551757 13.324911,3.645695 13.32506,3.680218 13.32506,3.741889 13.432983,3.741889 13.550013,3.741835 13.550009,3.827252 13.550009,3.924092 13.550013,4.041081 13.526496,4.041081 13.432983,4.041119 12.95186,4.041119 12.828713,4.041296 12.816789,4.041248 12.800851,4.040948 12.783764,4.041303 12.766131,4.041016 12.761008,4.041444 12.736932,4.041063 12.730642,4.041144 12.719589,4.041226 12.720034,3.883666 12.71958,3.742091 12.742232,3.742202 12.749671,3.742146 12.758792,3.742294 12.765456,3.742288 12.77722,3.742341 12.779545,3.742109 12.785975,3.742206 12.78866,3.741991 12.80313,3.741786 12.856102,3.741801 12.864873,3.741928 12.886444,3.741996 12.911673,3.741678 12.933589,3.741867 12.992317,3.742055 12.992094,3.672432 12.99193,3.663365 12.992008,3.646993 12.992024,3.643363 12.992057,3.64137 12.992192,3.551609 13.262356,3.551609" style="fill: white" /><polygon type="contour" points="15.579902,3.551799 15.579902,3.618525 15.579748,3.687179 15.579945,3.884958 15.486006,3.8846 15.389789,3.8846 15.389909,4.028728 15.38987,4.041081 15.30445,4.041269 15.207609,4.041269 15.090621,4.041081 15.090621,4.027297 15.090432,3.924091 15.090432,3.827252 15.090621,3.741835 15.246966,3.741896 15.247102,3.645695 15.246713,3.641122 15.246613,3.551888 15.288486,3.55179 15.290204,3.551496" style="fill: white" /><polygon type="contour" points="15.207609,5.581693 15.304449,5.581693 15.38987,5.58169 15.389815,5.698719 15.389815,5.806792 15.486006,5.806792 15.490579,5.806488 15.579945,5.806458 15.580093,5.869348 15.580093,6.139508 15.488338,6.139678 15.484708,6.139694 15.468336,6.139772 15.459269,6.139608 15.3902,6.139386 15.389698,6.198112 15.389448,6.201905 15.389895,6.220028 15.389575,6.245827 15.389633,6.266827 15.389753,6.275598 15.389723,6.328418 15.389505,6.342933 15.389676,6.345632 15.389593,6.352155 15.38936,6.35448 15.389352,6.362545 15.389839,6.381482 15.389887,6.388575 15.389726,6.412145 15.163418,6.41226 15.090407,6.412323 15.09058,6.390643 15.090714,6.380092 15.090215,6.372313 15.09064,6.367832 15.090478,6.349734 15.090754,6.330852 15.090452,6.314914 15.090405,6.30299 15.090583,6.179844 15.090583,5.698719 15.090621,5.58169 15.104404,5.58169" style="fill: white" /><polygon type="contour" points="15.207608,6.843219 15.275331,6.843367 15.389806,6.843415 15.389732,6.869326 15.389563,6.907866 15.389882,6.919801 15.38978,6.94178 15.389639,6.951985 15.389726,6.967246 15.163419,6.967362 15.090407,6.967425 15.090348,6.942485 15.090829,6.923294 15.090641,6.898249 15.090584,6.882914 15.09055,6.843131" style="fill: white" /><polygon type="contour" points="15.27533,7.397905 15.389632,7.398433 15.389768,7.476597 15.389781,7.496878 15.389639,7.507086 15.389726,7.522136 15.163419,7.521761 15.090406,7.521825 15.090347,7.496999 15.090828,7.478394 15.09064,7.452982 15.090584,7.437739 15.090528,7.398141 15.207609,7.3979" style="fill: white" /><polygon type="contour" points="15.207609,7.952718 15.27533,7.952867 15.389834,7.95298 15.389978,8.043359 15.389499,8.051994 15.389593,8.069866 15.185839,8.06953 15.090539,8.069612 15.090625,8.040382 15.090274,8.025184 15.090524,7.952664" style="fill: white" /><polygon type="contour" points="13.549869,7.989042 13.549858,8.01669 13.549994,8.025663 13.549685,8.071457 13.440867,8.071291 13.414506,8.070928 13.117842,8.069455 13.117849,8.049084 13.117713,8.04336 13.117903,7.95298 13.231298,7.95298 13.246251,7.952939 13.432984,7.952669 13.550055,7.952663" style="fill: white" /><polygon type="contour" points="13.549966,7.415897 13.549919,7.437739 13.549818,7.469941 13.550089,7.478394 13.550201,7.52355 13.403268,7.52355 13.368468,7.52305 13.119026,7.521799 13.118877,7.503016 13.11936,7.496878 13.119354,7.477401 13.119204,7.47439 13.119226,7.398433 13.197372,7.398433 13.246816,7.398539 13.432984,7.398269 13.549994,7.398141" style="fill: white" /><polygon type="contour" points="13.550006,6.854447 13.549919,6.882913 13.549818,6.91484 13.550089,6.923786 13.550201,6.969151 13.403491,6.968925 13.369033,6.968367 13.120426,6.967117 13.120204,6.962649 13.120035,6.961962 13.120007,6.95937 13.119937,6.954542 13.120643,6.843584 13.178949,6.843584 13.24738,6.843439 13.432983,6.843171 13.550034,6.843131" style="fill: white" /><polygon type="contour" points="12.738596,5.581586 12.775054,5.581739 12.781968,5.581971 12.79563,5.581696 12.801199,5.581883 12.806572,5.581723 12.815721,5.581818 12.818568,5.581462 12.823173,5.581723 12.830318,5.581696 12.951858,5.581614 13.432983,5.581614 13.550013,5.58169 13.550013,5.605206 13.550088,5.698718 13.550088,6.179844 13.549914,6.302354 13.54998,6.308528 13.549885,6.315982 13.54998,6.325128 13.549819,6.330503 13.550007,6.336072 13.549731,6.349734 13.549628,6.360009 13.550116,6.393107 13.55026,6.397238 13.550201,6.414051 13.403942,6.413826 13.369599,6.413266 13.121827,6.412016 13.121995,6.402608 13.121539,6.396883 13.121543,6.389153 13.121658,6.381321 13.121568,6.379018 13.121628,6.368352 13.121713,6.360285 13.121713,6.358787 13.121721,6.35351 13.122249,6.300133 13.122374,6.284187 13.122262,6.276162 13.122195,6.265164 13.122476,6.208223 13.12237,6.184194 13.122577,6.167906 13.122635,6.165536 13.122322,6.154701 13.122696,6.152258 13.122168,6.145251 13.122464,6.137197 13.122147,6.109765 13.121741,6.099313 13.120187,6.011515 13.021935,6.009553 12.985834,6.009636 12.966166,6.009067 12.963797,6.009124 12.947507,6.009329 12.925083,6.009515 12.867265,6.009737 12.856106,6.009646 12.84798,6.009521 12.831861,6.009619 12.778154,6.010068 12.772915,6.009988 12.771416,6.009988 12.763349,6.010073 12.752682,6.010133 12.750378,6.010043 12.741793,6.010153 12.719503,6.010184 12.718434,5.762101 12.718434,5.58163 12.734464,5.581441" style="fill: white" /><polygon type="contour" points="12.19884,5.581833 12.207914,5.582107 12.245729,5.581936 12.248787,5.581783 12.288572,5.581669 12.288532,5.698719 12.288262,5.884319 12.288119,6.011058 12.262374,6.011126 12.223836,6.01124 12.211899,6.011099 12.209399,6.011472 12.189922,6.011549 12.183784,6.011424 12.164721,6.011266 12.163333,5.762666 12.163333,5.58163" style="fill: white" /><polygon type="contour" points="11.64374,5.581833 11.653305,5.582106 11.690628,5.581936 11.693963,5.581783 11.733562,5.581709 11.733432,5.698718 11.733163,5.884885 11.73327,6.012477 11.65731,6.012498 11.654301,6.012348 11.634819,6.012343 11.628684,6.012823 11.609622,6.012667 11.608651,5.763233 11.608651,5.58163" style="fill: white" /><polygon type="contour" points="11.094751,5.581833 11.106037,5.581709 11.139193,5.581936 11.179037,5.581647 11.179031,5.698718 11.178763,5.88545 11.178723,6.013799 11.088342,6.013989 11.082617,6.01385 11.062203,6.013988 11.060773,5.716704 11.060942,5.581562" style="fill: white" /><polygon type="contour" points="10.628428,5.890838 10.628342,6.014995 10.607337,6.015056 10.607099,6.015056 10.602659,6.015093 10.599274,6.015103 10.268597,6.016159 10.070035,6.016537 10.053096,6.01659 9.833499,6.017169 9.789867,6.017169 9.693432,6.017535 9.596999,6.017535 9.585162,6.017585 9.578339,6.018167 9.566199,6.018167 9.546913,6.017585 9.535032,6.017535 9.438599,6.017535 9.221827,6.016965 9.12322,6.01659 8.563429,6.015152 8.557718,6.015152 8.545047,6.015104 8.532425,6.015104 8.52904,6.015093 8.5246,6.015056 8.524362,6.015056 8.503357,6.014995 8.503357,5.622032 8.503272,5.581799 10.628428,5.581799" style="fill: white" /><polygon type="contour" points="4.019716,8.503359 4.041018,8.503274 4.041018,10.62843 3.820964,10.628566 3.741825,10.628519 3.742039,10.459164 3.646965,10.332884 3.646943,10.290523 3.646869,8.797457 3.646847,8.679332 3.652359,8.679332 3.674781,8.70774 3.741862,8.68445 3.741824,8.503185" style="fill: white" /><polygon type="contour" points="4.041425,8.025185 4.041076,8.040382 4.041211,8.069661 3.945859,8.06953 3.742105,8.069866 3.7422,8.051995 3.741722,8.043359 3.741866,7.95298 3.816009,7.95298 3.856369,7.952866 3.92409,7.952718 4.041176,7.952664" style="fill: white" /><polygon type="contour" points="4.041172,7.398141 4.041117,7.415897 4.041116,7.437739 4.041059,7.452982 4.040871,7.478394 4.041351,7.496998 4.041337,7.521863 3.968281,7.521761 3.741973,7.522136 3.74206,7.507086 3.74192,7.496878 3.74193,7.476598 3.742068,7.398433 3.79073,7.398433 3.856368,7.397906 3.92409,7.3979" style="fill: white" /><polygon type="contour" points="4.04111,6.854448 4.041116,6.882914 4.041059,6.898249 4.04087,6.923294 4.041351,6.942484 4.041337,6.96729 3.968281,6.967361 3.741973,6.967245 3.74206,6.951985 3.741919,6.941779 3.741817,6.919802 3.742137,6.907865 3.741893,6.843415 3.856368,6.843367 3.924091,6.843219 4.04115,6.843131" style="fill: white" /><polygon type="contour" points="4.04108,5.605206 4.041117,5.698718 4.041117,6.179844 4.041295,6.30299 4.041248,6.313134 4.040946,6.330852 4.041222,6.349734 4.041015,6.365572 4.04107,6.37735 4.041153,6.388552 4.041337,6.412362 3.968281,6.41226 3.741973,6.412145 3.741697,6.387448 3.741862,6.381481 3.742348,6.362546 3.742339,6.35448 3.742107,6.352155 3.742024,6.345632 3.742195,6.342933 3.741976,6.328417 3.7418,6.275599 3.741926,6.266827 3.741994,6.245826 3.741677,6.220028 3.741864,6.198112 3.742053,6.139384 3.67243,6.139608 3.663363,6.139772 3.646991,6.139694 3.643362,6.139679 3.641367,6.139643 3.551607,6.139508 3.551607,5.869348 3.551755,5.806458 3.645693,5.806792 3.680216,5.806643 3.741887,5.806643 3.741887,5.698719 3.741833,5.58169 3.827251,5.581693 3.924091,5.581693 4.04108,5.58169" style="fill: white" /><polygon type="contour" points="3.843214,3.551791 3.885087,3.551889 3.884598,3.645695 3.884598,3.741913 4.028727,3.741795 4.04108,3.741835 4.041268,3.827252 4.041268,3.924091 4.04108,4.041081 4.027296,4.041081 3.92409,4.041269 3.82725,4.041269 3.751911,4.041081 3.741833,4.041081 3.741894,3.884734 3.645693,3.8846 3.641121,3.884988 3.551755,3.884958 3.55195,3.687179 3.551797,3.618524 3.551797,3.551799 3.841493,3.551496" style="fill: white" /><polygon type="contour" points="6.139676,3.643363 6.139693,3.646993 6.139677,3.663354 6.139605,3.672433 6.139385,3.741314 6.198111,3.741867 6.201904,3.742117 6.220026,3.741678 6.245254,3.741996 6.266826,3.741928 6.275597,3.741801 6.328415,3.741978 6.34293,3.742196 6.345724,3.742205 6.352153,3.742109 6.354478,3.742341 6.366245,3.742288 6.372906,3.742294 6.382025,3.742146 6.388993,3.742108 6.412119,3.742092 6.411666,3.883666 6.412111,4.041226 6.401058,4.041144 6.394766,4.041063 6.370691,4.041444 6.36557,4.041017 6.347935,4.041303 6.33085,4.040948 6.314911,4.041249 6.302988,4.041296 6.179841,4.041119 5.698716,4.041119 5.581687,4.041081 5.581687,4.027296 5.581691,3.924092 5.581691,3.827252 5.581687,3.741835 5.698716,3.741889 5.806789,3.741889 5.806789,3.645694 5.806485,3.641122 5.806455,3.551757 5.869345,3.551609 6.139506,3.551609" style="fill: white" /><polygon type="contour" points="6.869323,3.741969 6.907863,3.742137 6.921497,3.741931 6.941776,3.741921 6.951983,3.742062 6.96722,3.742092 6.966766,3.883666 6.967211,4.041225 6.923291,4.041364 6.916338,4.041196 6.889984,4.041267 6.882911,4.041117 6.843128,4.041151 6.843217,3.924091 6.843365,3.856369 6.843411,3.741895" style="fill: white" /><polygon type="contour" points="7.496876,3.741921 7.507084,3.742062 7.522106,3.742092 7.521519,3.883667 7.521856,4.041225 7.478391,4.041365 7.471438,4.041196 7.444765,4.041266 7.437737,4.041117 7.398139,4.041173 7.397898,3.924091 7.397903,3.85637 7.398429,3.742068 7.474901,3.741818" style="fill: white" /><polygon type="contour" points="8.051993,3.742201 8.069864,3.742107 8.069384,3.934656 8.069686,4.04136 8.025182,4.041427 7.996474,4.041146 7.952663,4.041178 7.952717,3.924091 7.952863,3.85637 7.952977,3.741868 8.043358,3.741724" style="fill: white" /><polygon type="contour" points="8.070926,5.716705 8.069453,6.01386 8.049081,6.01385 8.043357,6.013989 7.952977,6.013799 7.952977,5.900405 7.952937,5.88545 7.952669,5.698718 7.952663,5.581647 8.025661,5.581709 8.036947,5.581833 8.070759,5.581562" style="fill: white" /><polygon type="contour" points="7.523048,5.763232 7.521796,6.012675 7.503014,6.012823 7.496877,6.012343 7.477398,6.012348 7.474386,6.012498 7.39843,6.012477 7.39843,5.934329 7.398537,5.884884 7.398267,5.698718 7.398139,5.581709 7.415895,5.581736 7.437737,5.581783 7.441071,5.581936 7.478391,5.582107 7.487959,5.581833 7.523048,5.58163" style="fill: white" /><polygon type="contour" points="6.968365,5.762667 6.967114,6.011276 6.962648,6.011499 6.961961,6.011666 6.959368,6.011693 6.95454,6.011764 6.843581,6.011058 6.843581,5.952752 6.843438,5.88432 6.843169,5.698719 6.843128,5.581669 6.854445,5.581696 6.882912,5.581783 6.885972,5.581936 6.923785,5.582107 6.932859,5.581833 6.968365,5.58163" style="fill: white" /><polygon type="contour" points="6.413264,5.58163 6.413264,5.762101 6.412013,6.009876 6.402663,6.009742 6.39697,6.01022 6.389152,6.010159 6.38132,6.010043 6.379017,6.010134 6.36835,6.010072 6.360283,6.009988 6.358785,6.009988 6.353507,6.009981 6.300131,6.009452 6.284185,6.009327 6.276161,6.009439 6.265162,6.009507 6.208222,6.009226 6.184193,6.009328 6.167902,6.009124 6.165533,6.009067 6.154699,6.00938 6.152256,6.009004 6.145249,6.009534 6.141031,6.009379 6.109764,6.009552 6.09931,6.00996 6.011513,6.011515 6.009552,6.109765 6.009635,6.145777 6.009065,6.165536 6.009123,6.167906 6.009328,6.184193 6.009224,6.208223 6.009284,6.230659 6.009284,6.237406 6.009544,6.25986 6.009419,6.284295 6.009518,6.309829 6.009462,6.318999 6.009821,6.344557 6.009812,6.369366 6.009928,6.374933 6.009587,6.377229 6.009718,6.381834 6.010161,6.396882 6.009705,6.402609 6.009872,6.412016 5.762099,6.413267 5.5815,6.414051 5.58144,6.397237 5.581433,6.392267 5.58168,6.358171 5.58149,6.347609 5.581693,6.336072 5.581881,6.330503 5.58172,6.325128 5.581816,6.315982 5.58146,6.313135 5.581721,6.308529 5.581786,6.302355 5.581611,6.179844 5.581611,5.698719 5.581687,5.58169 5.605203,5.58169 5.698716,5.581614 6.179842,5.581614 6.302352,5.581788 6.308526,5.581723 6.315978,5.581818 6.325127,5.581723 6.3305,5.581883 6.336069,5.581696 6.349731,5.581971 6.356644,5.581739 6.393105,5.581586 6.397236,5.581441" style="fill: white" /><polygon type="contour" points="5.698716,6.843171 5.884319,6.843439 6.011056,6.843584 6.011125,6.869326 6.011376,6.870288 6.01136,6.910459 6.011179,6.922181 6.011562,6.924592 6.011456,6.949164 6.011273,6.967116 5.762666,6.968366 5.5815,6.969151 5.581612,6.923786 5.581881,6.91484 5.581367,6.896848 5.58178,6.882913 5.581666,6.843131" style="fill: white" /><polygon type="contour" points="5.698715,7.398269 5.884884,7.398539 6.012474,7.398433 6.012496,7.47439 6.012346,7.4774 6.01282,7.503017 6.012672,7.521799 5.763231,7.523049 5.5815,7.52355 5.581612,7.478394 5.581881,7.469941 5.581367,7.451947 5.58178,7.437739 5.581706,7.39814" style="fill: white" /><polygon type="contour" points="5.698715,7.952669 5.885449,7.952939 6.013797,7.95298 6.013847,8.049084 6.013857,8.069455 5.717192,8.070928 5.582015,8.071457 5.581707,8.025662 5.581841,8.016691 5.58144,8.001749 5.581644,7.952663" style="fill: white" /><polygon type="contour" points="6.014992,8.503359 6.015149,8.557719 6.015149,8.563431 6.015988,8.774624 6.016387,8.927724 6.016535,9.106502 6.016589,9.123223 6.016964,9.221828 6.017534,9.438601 6.017534,9.535035 6.017582,9.546915 6.018165,9.553856 6.018165,9.566202 6.017583,9.585165 6.017534,9.597001 6.017534,9.693435 6.016964,9.909875 6.016589,10.00848 6.016387,10.203979 6.015988,10.357079 6.015149,10.568272 6.015149,10.573983 6.0151,10.599276 6.014992,10.628345 5.622029,10.628345 5.581796,10.62843 5.581796,8.503274 5.890835,8.503274" style="fill: white" /><polygon type="contour" points="6.395653,15.090626 6.400371,15.090603 6.412111,15.090479 6.411666,15.248037 6.412119,15.389612 6.388993,15.389595 6.382026,15.389558 6.372907,15.38941 6.366244,15.389415 6.354479,15.389362 6.352153,15.389594 6.345629,15.389678 6.34293,15.389506 6.328416,15.389727 6.275597,15.389757 6.266825,15.389635 6.245254,15.389579 6.220026,15.389898 6.19811,15.389699 6.139384,15.390201 6.139605,15.459271 6.139677,15.468347 6.139693,15.484709 6.139677,15.488339 6.13964,15.490334 6.139506,15.580095 5.869345,15.580096 5.806455,15.579947 5.806789,15.486008 5.80664,15.451484 5.80664,15.389815 5.698716,15.389815 5.581687,15.389871 5.581691,15.304452 5.581691,15.207611 5.581687,15.090623 5.605204,15.090623 5.698715,15.090586 6.179842,15.090586 6.302987,15.090408 6.313131,15.090455 6.3305,15.090756 6.349731,15.09048 6.36783,15.090644 6.372751,15.090216" style="fill: white" /><polygon type="contour" points="6.967211,15.090479 6.966766,15.248037 6.96722,15.389612 6.951983,15.389642 6.941776,15.389782 6.9198,15.389885 6.907862,15.389566 6.843411,15.389809 6.843365,15.275334 6.843217,15.207612 6.843128,15.090553 6.854445,15.090593 6.882911,15.090587 6.889985,15.090437 6.916338,15.090507 6.923292,15.090339" style="fill: white" /><polygon type="contour" points="7.521856,15.090479 7.521519,15.248037 7.522106,15.389611 7.507084,15.389641 7.496876,15.389782 7.474901,15.389885 7.39843,15.389635 7.39843,15.340972 7.397903,15.275333 7.397898,15.207612 7.398139,15.090531 7.415895,15.090586 7.437737,15.090587 7.444764,15.090437 7.471438,15.090507 7.478391,15.090339" style="fill: white" /><polygon type="contour" points="8.069686,15.090343 8.069384,15.197046 8.069864,15.389596 8.051993,15.389501 8.043358,15.389979 7.952977,15.389836 7.952977,15.315692 7.952863,15.275333 7.952717,15.207612 7.952663,15.090526 7.996474,15.090557 8.025183,15.090277" style="fill: white" /><polygon type="contour" points="10.628564,15.310737 10.628517,15.389876 10.447253,15.389837 10.423963,15.456919 10.45237,15.479339 10.45237,15.484852 10.441203,15.484836 9.626326,15.484814 9.537601,15.484838 9.463285,15.484779 8.792761,15.485015 8.672379,15.389662 8.503183,15.389876 8.503357,15.111985 8.503272,15.090684 10.628428,15.090684" style="fill: white" /><polygon type="contour" points="11.110472,15.090507 11.135407,15.090437 11.179037,15.090526 11.178984,15.207612 11.178836,15.275334 11.178723,15.389836 11.078802,15.389854 11.061776,15.38984 11.062275,15.20057 11.06214,15.09042" style="fill: white" /><polygon type="contour" points="11.660262,15.090507 11.686935,15.090437 11.693962,15.090587 11.733562,15.090531 11.733802,15.207612 11.733796,15.275333 11.73327,15.389634 11.656799,15.389885 11.63482,15.389782 11.624617,15.389642 11.609594,15.389612 11.610181,15.248036 11.609843,15.090479 11.653306,15.090339" style="fill: white" /><polygon type="contour" points="12.215361,15.090507 12.241716,15.090437 12.248788,15.090586 12.288572,15.090552 12.288483,15.207612 12.288335,15.275334 12.288288,15.389809 12.262375,15.389735 12.223835,15.389566 12.210202,15.389771 12.189923,15.389782 12.179716,15.389642 12.16448,15.389612 12.164933,15.248037 12.164489,15.090479 12.208408,15.090339" style="fill: white" /><polygon type="contour" points="12.763869,15.090644 12.781968,15.09048 12.801199,15.090756 12.818568,15.090455 12.828711,15.090408 12.951859,15.090587 13.432983,15.090586 13.550013,15.090623 13.550013,15.104407 13.550009,15.207611 13.550009,15.304452 13.550013,15.389871 13.432983,15.389816 13.324911,15.389816 13.324911,15.486008 13.325212,15.490581 13.325245,15.579947 13.262356,15.580095 12.992192,15.580095 12.992024,15.488339 12.992008,15.484709 12.992023,15.468347 12.992094,15.459271 12.992317,15.389463 12.933589,15.389699 12.929795,15.38945 12.911674,15.389898 12.886444,15.389578 12.864873,15.389635 12.856102,15.389756 12.803133,15.389918 12.788659,15.38971 12.786069,15.389678 12.779545,15.389594 12.77722,15.389362 12.765456,15.389415 12.758793,15.38941 12.749674,15.389558 12.742401,15.389501 12.719581,15.389612 12.719832,15.231984 12.719389,15.090426 12.729107,15.090514 12.733094,15.090535 12.758948,15.090216" style="fill: white" /><polygon type="contour" points="15.379791,15.090623 15.38987,15.090624 15.389805,15.246969 15.486005,15.247104 15.490579,15.246715 15.579945,15.246744 15.579748,15.444525 15.579902,15.513179 15.579902,15.579904 15.290204,15.580207 15.288485,15.579911 15.246613,15.579814 15.247101,15.486007 15.247101,15.38979 15.102972,15.38991 15.090621,15.389871 15.090432,15.304452 15.090432,15.207611 15.090621,15.090623 15.104405,15.090623 15.207608,15.090434 15.304449,15.090434" style="fill: white" /><polygon type="contour" points="15.163419,12.719444 15.389726,12.71956 15.390004,12.744255 15.389839,12.750221 15.389352,12.769158 15.38936,12.777223 15.389593,12.779548 15.389675,12.786069 15.389709,12.788661 15.389915,12.803135 15.389752,12.856104 15.389632,12.864873 15.389575,12.886448 15.389894,12.911675 15.389698,12.933591 15.390197,12.992317 15.459269,12.992096 15.468336,12.991932 15.484708,12.992009 15.488338,12.992025 15.490332,12.992061 15.580093,12.992194 15.580093,13.262355 15.579945,13.325246 15.486005,13.324912 15.451484,13.325062 15.389815,13.325062 15.389815,13.432984 15.38987,13.550014 15.304449,13.55001 15.207608,13.55001 15.090621,13.550014 15.090621,13.526497 15.090583,13.432984 15.090583,12.951859 15.090405,12.828713 15.090452,12.818568 15.090754,12.8012 15.090478,12.781968 15.090685,12.766131 15.090628,12.754352 15.090547,12.743151 15.090362,12.719342" style="fill: white" /><polygon type="contour" points="15.389726,12.164457 15.389639,12.179716 15.389781,12.189923 15.389882,12.211901 15.389563,12.223836 15.389806,12.288289 15.275331,12.288336 15.207608,12.288485 15.09055,12.288573 15.09059,12.277257 15.090584,12.248789 15.090641,12.233454 15.090829,12.208409 15.090348,12.189218 15.090362,12.164413 15.163419,12.164342" style="fill: white" /><polygon type="contour" points="15.389639,11.624617 15.389781,11.634822 15.389768,11.655106 15.389632,11.733271 15.34097,11.733271 15.27533,11.733798 15.207609,11.733804 15.090528,11.733562 15.090583,11.715806 15.090584,11.693963 15.090641,11.678721 15.090829,11.653308 15.090348,11.634704 15.090362,11.60984 15.163419,11.609942 15.389726,11.609568" style="fill: white" /><polygon type="contour" points="15.389499,11.079708 15.389977,11.088342 15.389834,11.178724 15.31569,11.178724 15.275331,11.178837 15.207608,11.178986 15.090523,11.17904 15.090274,11.106519 15.090624,11.091317 15.090488,11.06204 15.185839,11.062171 15.389593,11.061837" style="fill: white" /><polygon type="contour" points="13.549904,10.62843 13.240864,10.62843 13.116708,10.628344 13.116647,10.607339 13.116647,10.607102 13.116609,10.602661 13.116599,10.599276 13.116599,10.586654 13.115542,10.169507 13.115165,10.070038 13.115109,10.053096 13.114533,9.833502 13.114533,9.789869 13.114167,9.693434 13.114167,9.597001 13.114118,9.585164 13.113535,9.578342 13.113535,9.566202 13.114118,9.546916 13.114168,9.535034 13.114167,9.438601 13.114735,9.221829 13.11511,9.123222 13.116551,8.563431 13.116551,8.55772 13.116599,8.532427 13.116609,8.529042 13.116647,8.524601 13.116647,8.524365 13.116708,8.503359 13.50967,8.503359 13.549904,8.503274" style="fill: white" /><polygon type="contour" points="13.549994,11.106041 13.549858,11.11501 13.55026,11.129955 13.550055,11.17904 13.432984,11.179034 13.24625,11.178764 13.117903,11.178724 13.117849,11.082618 13.117842,11.062249 13.414505,11.060776 13.549685,11.060247" style="fill: white" /><polygon type="contour" points="13.550089,11.653307 13.549818,11.661763 13.550333,11.679756 13.549919,11.693964 13.549994,11.733563 13.432984,11.733434 13.246816,11.733165 13.119226,11.733271 13.119204,11.657312 13.119354,11.654302 13.118877,11.628687 13.119026,11.609905 13.368467,11.608653 13.550201,11.608151" style="fill: white" /><polygon type="contour" points="13.550089,12.207915 13.549818,12.216862 13.550333,12.234855 13.549919,12.248789 13.550034,12.288573 13.432983,12.288532 13.247381,12.288264 13.120643,12.28812 13.120575,12.262377 13.120461,12.223836 13.120604,12.211902 13.120227,12.209402 13.120279,12.183785 13.120426,12.164587 13.369034,12.163334 13.550201,12.162551" style="fill: white" /><polygon type="contour" points="13.550259,12.734465 13.550267,12.739436 13.550021,12.773532 13.55021,12.784095 13.550006,12.795631 13.549819,12.801199 13.54998,12.806575 13.549885,12.815722 13.55024,12.818569 13.54998,12.823174 13.549914,12.829349 13.550088,12.951859 13.550088,13.432984 13.550013,13.550014 13.526495,13.550014 13.432984,13.550089 12.951859,13.55009 12.830317,13.550009 12.823174,13.549982 12.815721,13.549887 12.806572,13.549982 12.801198,13.549821 12.79563,13.550009 12.784094,13.550212 12.777028,13.55039 12.739434,13.55027 12.734464,13.550262 12.718434,13.550074 12.718434,13.369602 12.719686,13.121829 12.729094,13.121996 12.734817,13.121541 12.749867,13.121982 12.754463,13.122114 12.756767,13.121774 12.777544,13.121758 12.778251,13.121893 12.798489,13.122209 12.80657,13.122164 12.847407,13.122282 12.871841,13.122158 12.894297,13.122415 12.901043,13.122415 12.923477,13.122478 12.946225,13.122342 12.963797,13.12258 12.966166,13.122637 12.977,13.122323 12.979443,13.1227 12.98645,13.12217 12.990668,13.122324 13.021936,13.122149 13.032388,13.121744 13.120187,13.120188 13.122147,13.021938 13.122064,12.985925 13.122635,12.966167 13.122577,12.963798 13.12237,12.94751 13.122476,12.923478 13.122195,12.866537 13.122263,12.855539 13.122374,12.847516 13.122248,12.831567 13.121721,12.778194 13.121713,12.772917 13.121713,12.771418 13.121629,12.762989 13.121569,12.752685 13.121658,12.750382 13.121549,12.741796 13.12199,12.733521 13.12196,12.729036 13.121827,12.719687 13.369599,12.718436 13.5502,12.717653" style="fill: white" /><polygon type="contour" points="12.209399,13.120229 12.288119,13.120644 12.288119,13.178949 12.288262,13.247384 12.288532,13.432984 12.288572,13.550035 12.277256,13.550007 12.248787,13.549921 12.245729,13.549768 12.207914,13.549597 12.19884,13.549871 12.163333,13.550075 12.163333,13.369036 12.164586,13.120427 12.183784,13.12028 12.189922,13.120155" style="fill: white" /><polygon type="contour" points="11.620579,13.119338 11.629158,13.119308 11.691451,13.118966 11.727455,13.118966 11.73327,13.119227 11.73327,13.197374 11.733163,13.246819 11.733432,13.432984 11.733562,13.549995 11.715805,13.549967 11.693962,13.549921 11.690628,13.549768 11.653305,13.549597 11.64374,13.54987 11.608651,13.550075 11.608651,13.368469 11.609903,13.119028 11.618176,13.118832" style="fill: white" /><polygon type="contour" points="11.178723,13.117905 11.178723,13.231298 11.178762,13.246253 11.179031,13.432985 11.179037,13.550056 11.106037,13.549995 11.094751,13.549871 11.060942,13.550142 11.060772,13.414998 11.062247,13.117843 11.082617,13.117851 11.088341,13.117715" style="fill: white" /><polygon type="contour" points="9.585163,13.114119 9.596999,13.114169 9.693432,13.114169 9.909872,13.114738 10.008479,13.115112 10.203978,13.115313 10.357078,13.115713 10.568271,13.116552 10.573981,13.116552 10.599274,13.1166 10.628343,13.116709 10.628343,13.509672 10.628428,13.549906 8.503272,13.549906 8.503272,13.240864 8.503357,13.116708 8.545048,13.116599 8.557718,13.116551 8.563428,13.116551 8.774621,13.115712 8.927721,13.115314 9.106501,13.115168 9.12322,13.115112 9.221827,13.114737 9.4386,13.114169 9.535032,13.114169 9.546914,13.114119 9.553853,13.113536 9.566198,13.113536" style="fill: white" /><polygon type="contour" points="8.070926,13.414999 8.070759,13.550142 8.036947,13.549871 8.025662,13.549995 7.992507,13.549767 7.952663,13.550055 7.952669,13.432985 7.952937,13.246253 7.952977,13.117905 8.043358,13.117715 8.049081,13.117851 8.069494,13.117714" style="fill: white" /><polygon type="contour" points="7.522079,13.119036 7.523048,13.36847 7.523048,13.550075 7.48796,13.549871 7.478391,13.549597 7.441071,13.549768 7.437737,13.54992 7.398139,13.549995 7.398267,13.432985 7.398537,13.246818 7.39843,13.119227 7.474386,13.119206 7.477398,13.119355 7.496877,13.119361 7.503015,13.118879" style="fill: white" /><polygon type="contour" points="6.949162,13.120245 6.966979,13.120438 6.968365,13.369037 6.968365,13.550075 6.932859,13.549871 6.923785,13.549597 6.885972,13.549768 6.882912,13.549921 6.843128,13.550035 6.843169,13.432984 6.843437,13.247384 6.843581,13.120645 6.869324,13.120577 6.870287,13.120325 6.910457,13.120341 6.922179,13.120522 6.92459,13.120139 6.943378,13.120105" style="fill: white" /><polygon type="contour" points="5.727756,12.717877 5.7621,12.718436 6.009873,12.719687 6.009706,12.729095 6.010161,12.73482 6.009718,12.749869 6.009587,12.754479 6.009928,12.756769 6.009944,12.777544 6.00981,12.778253 6.009493,12.798491 6.009537,12.806571 6.009419,12.847409 6.009544,12.871843 6.009284,12.894297 6.009284,12.901045 6.009513,12.925087 6.00936,12.946227 6.009122,12.963798 6.009065,12.966167 6.009378,12.977002 6.009003,12.979445 6.009532,12.986452 6.009236,12.994488 6.009552,13.021937 6.009552,13.028145 6.009996,13.032136 6.011322,13.11978 6.065423,13.12082 6.109764,13.122149 6.145839,13.122066 6.165533,13.122637 6.167903,13.122579 6.184193,13.122372 6.208221,13.122477 6.232495,13.122415 6.237403,13.122415 6.261078,13.122157 6.286774,13.121997 6.292373,13.122342 6.313714,13.121997 6.333319,13.121764 6.378288,13.121939 6.38198,13.121858 6.39697,13.121484 6.412194,13.12152 6.413264,13.369602 6.413264,13.550075 6.397236,13.550262 6.392265,13.55027 6.354671,13.55039 6.347606,13.550211 6.336069,13.550007 6.3305,13.549821 6.325127,13.549981 6.315978,13.549887 6.313131,13.550242 6.308526,13.549981 6.301382,13.550008 6.179841,13.550089 5.698715,13.550089 5.581687,13.550014 5.581687,13.526497 5.581611,13.432984 5.581611,12.951859 5.581693,12.83032 5.58172,12.823174 5.581816,12.815721 5.58172,12.806575 5.581881,12.801199 5.581692,12.795631 5.581969,12.781969 5.582072,12.771694 5.581585,12.738597 5.58144,12.734466 5.5815,12.717653" style="fill: white" /><polygon type="contour" points="5.728207,12.162775 5.762666,12.163335 6.011274,12.164587 6.011421,12.183785 6.011548,12.189923 6.01147,12.209402 6.011056,12.28812 5.95275,12.28812 5.884319,12.288264 5.698716,12.288532 5.581666,12.288573 5.581694,12.277257 5.58178,12.248788 5.581881,12.216862 5.581611,12.207916 5.5815,12.16255" style="fill: white" /><polygon type="contour" points="5.76323,11.608652 6.012672,11.609905 6.012866,11.618179 6.012363,11.620582 6.012394,11.62916 6.012736,11.691452 6.012736,11.727457 6.012474,11.733271 5.934326,11.733271 5.884884,11.733165 5.698715,11.733434 5.581706,11.733563 5.581733,11.715806 5.58178,11.693964 5.581881,11.661762 5.581612,11.653307 5.5815,11.608151 5.728432,11.608151" style="fill: white" /><polygon type="contour" points="5.690832,11.060412 5.717192,11.060776 6.013857,11.062249 6.013847,11.082618 6.013987,11.088342 6.013797,11.178724 5.900403,11.178724 5.885448,11.178765 5.698715,11.179034 5.581644,11.17904 5.581831,11.142662 5.581841,11.11501 5.581707,11.106041 5.582015,11.060247" style="fill: white" /><polygon type="contour" points="3.94586,11.062171 4.041161,11.062089 4.041076,11.091317 4.041426,11.106519 4.041177,11.17904 3.924091,11.178986 3.856369,11.178838 3.741867,11.178724 3.741723,11.088342 3.742201,11.079709 3.742106,11.061837" style="fill: white" /><polygon type="contour" points="3.968281,11.609942 4.041292,11.609879 4.041351,11.634704 4.040871,11.653307 4.041059,11.678721 4.041116,11.693964 4.041172,11.733562 3.92409,11.733804 3.856369,11.733798 3.742068,11.733271 3.74193,11.655106 3.74192,11.634822 3.74206,11.624617 3.741973,11.609568" style="fill: white" /><polygon type="contour" points="4.041351,12.189219 4.04087,12.208409 4.041059,12.233454 4.041116,12.248788 4.04115,12.288573 3.924091,12.288485 3.856368,12.288336 3.741894,12.288289 3.741968,12.262376 3.742137,12.223836 3.741816,12.211901 3.74192,12.189924 3.74206,12.179716 3.741973,12.164458 3.96828,12.164342 4.041292,12.164279" style="fill: white" /><polygon type="contour" points="4.041118,12.741061 4.040986,12.751611 4.041486,12.759391 4.041059,12.763871 4.041302,12.783764 4.040946,12.801199 4.041248,12.816791 4.041295,12.828713 4.041117,12.951859 4.041117,13.432984 4.041079,13.550014 4.027295,13.550014 3.924091,13.55001 3.827251,13.55001 3.741833,13.550014 3.741887,13.432984 3.741887,13.324912 3.645693,13.324912 3.641121,13.325214 3.551755,13.325246 3.551607,13.262355 3.551607,12.992194 3.643362,12.992025 3.646992,12.992009 3.663353,12.992025 3.67243,12.992096 3.741312,12.992316 3.741865,12.933593 3.742116,12.929799 3.741677,12.911675 3.741994,12.886447 3.741926,12.864873 3.7418,12.856105 3.741785,12.803135 3.741989,12.788661 3.742024,12.786069 3.742107,12.779548 3.742339,12.777223 3.742348,12.769157 3.741862,12.750222 3.741813,12.743128 3.741973,12.719559 3.96828,12.719444 4.041292,12.719381" style="fill: white" /><polygon type="contour" points="4.04108,15.090623 4.04108,15.104407 4.041268,15.207612 4.041268,15.304452 4.04108,15.389871 3.884732,15.389808 3.884598,15.486008 3.884985,15.490581 3.885087,15.579814 3.843214,15.579911 3.841493,15.580207 3.551797,15.579904 3.551797,15.51318 3.55195,15.444525 3.551755,15.246745 3.645693,15.247104 3.741911,15.247104 3.741793,15.102975 3.741832,15.090624 3.82725,15.090434 3.924091,15.090434" style="fill: white" />
</svg>
