<svg width="19.131698" height="19.131699">
<polygon type="contour" points="11.034467,8.345293 11.03387,8.369433 10.950399,8.369334 10.950399,9.138305 11.033927,9.138265 11.03399,9.266649 11.034445,9.384579 11.034579,9.430542 10.950399,9.430668 10.950399,9.700585 11.034579,9.701162 11.03399,9.865054 11.033927,9.993439 10.950399,9.993544 10.950399,10.762369 11.03387,10.762271 11.034467,10.78641 11.041928,11.041929 10.904442,11.039452 10.765604,11.037904 10.762282,10.950401 9.993542,10.950401 9.993437,11.033928 9.955549,11.034176 9.805393,11.037185 9.703184,11.037147 9.700971,10.950401 9.43097,10.950401 9.428516,11.037146 9.17615,11.034176 9.138263,11.033928 9.138154,10.950401 8.369329,10.950401 8.366095,11.037904 8.227256,11.039453 8.089773,11.041929 8.097234,10.78641 8.097831,10.762271 8.181301,10.762369 8.181301,9.993398 8.097774,9.993439 8.097711,9.865054 8.097255,9.747125 8.097121,9.701162 8.181301,9.701036 8.181301,9.431118 8.097121,9.430542 8.097711,9.26665 8.097774,9.138265 8.181301,9.138156 8.181301,8.369334 8.097831,8.369433 8.097234,8.345293 8.089773,8.089775 8.227256,8.092251 8.366095,8.093797 8.369418,8.181303 9.138303,8.181303 9.138263,8.097776 9.17615,8.097527 9.326306,8.094519 9.428516,8.094557 9.430729,8.181303 9.70073,8.181303 9.703184,8.094557 9.955549,8.097528 9.993437,8.097776 9.993542,8.181303 10.76237,8.181303 10.765604,8.093797 10.904443,8.092251 11.041928,8.089775" style="fill: white" />
</svg>
