<svg width="19.131698" height="19.131699">
<polygon type="contour" points="10.388702,8.658801 10.473679,8.658023 10.473225,8.68199 10.473185,8.686407 10.472997,8.751305 10.472594,8.882097 10.472563,8.96214 10.464844,8.96214 10.44412,8.962117 10.306674,8.962117 10.30627,9.070352 10.270272,9.070352 10.169542,9.070098 10.139753,9.070098 10.061349,9.070352 10.061349,9.046414 10.061603,8.980409 10.061603,8.944805 10.061349,8.825433 10.169659,8.825028 10.170742,8.702392 10.170924,8.68964 10.171125,8.657787" style="fill: white" /><polygon type="contour" points="8.962157,10.061605 8.991946,10.061605 9.07035,10.061351 9.07035,10.085287 9.070097,10.151295 9.070097,10.186897 9.07035,10.306272 8.962039,10.306676 8.960959,10.429309 8.960776,10.442062 8.960576,10.473915 8.742997,10.472902 8.658021,10.473681 8.658474,10.449713 8.658514,10.445295 8.658702,10.380398 8.659106,10.249606 8.659136,10.169564 8.666855,10.169564 8.687579,10.169587 8.825026,10.169587 8.825431,10.061351 8.861427,10.061351" style="fill: white" /><polygon type="contour" points="8.962158,9.311263 8.991947,9.311263 9.07035,9.311112 9.07035,9.335234 9.070709,9.402263 9.070709,9.741068 9.07035,9.820592 9.046413,9.820592 8.980407,9.820441 8.944804,9.820441 8.825431,9.820592 8.825027,9.711102 8.65393,9.711102 8.65458,9.576643 8.654668,9.566201 8.654026,9.43268 8.65393,9.420602 8.825027,9.420602 8.825431,9.311112 8.861428,9.311112" style="fill: white" /><polygon type="contour" points="8.960959,8.702393 8.960959,8.746597 8.962544,8.82503 9.07035,8.825433 9.07035,8.861431 9.070097,8.96216 9.070097,8.991948 9.07035,9.070352 9.046412,9.070352 8.980407,9.070098 8.944803,9.070098 8.825431,9.070352 8.825026,8.962117 8.687579,8.962117 8.666855,8.96214 8.659136,8.96214 8.659106,8.882097 8.658702,8.751305 8.658514,8.686408 8.658474,8.68199 8.658021,8.658023 8.742996,8.6588 8.960576,8.657787" style="fill: white" /><polygon type="contour" points="9.610133,8.655807 9.672618,8.65748 9.711101,8.658591 9.711101,8.825029 9.82059,8.825433 9.82059,8.861431 9.82044,8.96216 9.82044,8.991948 9.82059,9.070352 9.796467,9.070352 9.729438,9.07071 9.390632,9.07071 9.31111,9.070352 9.31111,9.046414 9.31126,8.980409 9.31126,8.944806 9.31111,8.825433 9.4206,8.825029 9.4206,8.658471 9.458896,8.65748 9.56556,8.654676" style="fill: white" /><polygon type="contour" points="9.82059,9.311112 9.82059,9.335233 9.821049,9.402263 9.821049,9.741069 9.82059,9.820592 9.796468,9.820592 9.729438,9.821052 9.390633,9.821052 9.31111,9.820592 9.31111,9.79647 9.310651,9.729439 9.310651,9.390634 9.31111,9.311112 9.335232,9.311112 9.402262,9.310652 9.741067,9.310652" style="fill: white" /><polygon type="contour" points="10.151293,9.311263 10.186895,9.311263 10.30627,9.311112 10.306673,9.420602 10.477769,9.420602 10.477119,9.55506 10.477031,9.565559 10.477673,9.699081 10.47777,9.711102 10.306673,9.711102 10.30627,9.820592 10.270271,9.820592 10.169541,9.820441 10.139753,9.820441 10.061349,9.820592 10.061349,9.796469 10.060992,9.72944 10.060992,9.390635 10.061349,9.311112 10.085286,9.311112" style="fill: white" /><polygon type="contour" points="10.151292,10.061605 10.186896,10.061605 10.30627,10.061351 10.306674,10.169587 10.44412,10.169587 10.464844,10.169564 10.472563,10.169564 10.472594,10.249606 10.472997,10.380398 10.473185,10.445296 10.473225,10.449713 10.473679,10.473681 10.388703,10.472903 10.171125,10.473915 10.170742,10.429309 10.170742,10.385104 10.169154,10.306674 10.061349,10.306272 10.061349,10.270274 10.061603,10.169544 10.061603,10.139755 10.061349,10.061351 10.085286,10.061351" style="fill: white" /><polygon type="contour" points="9.82059,10.061351 9.82059,10.085288 9.82044,10.151294 9.82044,10.186897 9.82059,10.306272 9.711101,10.306675 9.711101,10.473231 9.672619,10.47422 9.565501,10.477027 9.521082,10.475895 9.458896,10.47422 9.4206,10.473111 9.4206,10.306675 9.31111,10.306272 9.31111,10.270273 9.31126,10.169544 9.31126,10.139755 9.31111,10.061351 9.335232,10.061351 9.402262,10.060994 9.741067,10.060994" style="fill: white" />
</svg>
