<svg width="19.131698" height="19.131699">
<polygon type="contour" points="17.197574,16.780491 17.198142,17.055349 17.277962,17.054962 17.289443,17.054946 17.316397,17.054922 17.352882,17.054973 17.354591,17.054828 17.38804,17.05484 17.387966,17.128861 17.388486,17.361303 17.388486,17.388488 17.27046,17.388612 17.26976,17.38849 17.054788,17.387991 17.054972,17.352884 17.054972,17.317591 17.05492,17.316399 17.054944,17.289445 17.054962,17.277964 17.055345,17.198144 16.780489,17.197576 16.726201,17.19754 16.726936,17.058849 16.726936,17.051246 16.726201,16.726202 17.051242,16.726938 17.058846,16.726938 17.169515,16.726202 17.197538,16.726202" style="fill: white" /><polygon type="contour" points="15.393644,17.051246 15.393644,17.05885 15.393877,17.169517 15.393877,17.19754 15.359536,17.19756 15.133714,17.198194 15.13339,17.276365 15.133177,17.287974 15.133375,17.315538 15.133214,17.317591 15.133214,17.352884 15.133327,17.354594 15.133339,17.388042 14.910731,17.388564 14.800664,17.388564 14.800596,17.351184 14.800341,17.293212 14.604828,17.293338 14.591988,17.29302 14.585989,17.196046 14.615126,17.057764 14.615214,17.051246 14.615283,17.040777 14.614914,16.853446 14.610235,16.762126 14.611075,16.726851 15.076866,16.727099 15.133699,16.72718 15.133699,16.727579 15.355414,16.726202 15.393877,16.726202" style="fill: white" /><polygon type="contour" points="15.393767,14.604321 15.393139,15.076797 15.39318,15.1337 15.392896,15.133701 15.393877,15.355417 15.393877,15.39388 15.215016,15.393182 15.1337,15.393182 15.076796,15.393141 14.604319,15.39377 14.611007,15.21705 14.608602,15.152538 14.614273,15.014996 14.615756,14.663813 14.615597,14.627961 14.615294,14.615296 14.627343,14.615537 14.62796,14.615598 14.663812,14.615757 15.014995,14.614274 15.133692,14.610525 15.133692,14.613447 15.351191,14.602753" style="fill: white" /><polygon type="contour" points="17.293234,14.628094 17.29321,14.800344 17.351182,14.800596 17.351993,14.800611 17.388564,14.800665 17.388564,14.910731 17.388039,15.133341 17.352881,15.133216 17.315536,15.133378 17.287971,15.133179 17.276362,15.133392 17.198189,15.133715 17.197558,15.359539 17.197538,15.39388 17.058846,15.393647 17.051242,15.393647 16.726201,15.39388 16.727181,15.215017 16.727181,15.19782 16.727332,15.19782 16.726201,14.71914 16.726222,14.605816 17.051242,14.615218 17.057691,14.614892 17.293224,14.604498" style="fill: white" /><polygon type="contour" points="17.388486,1.743216 17.388486,1.770401 17.387966,2.002843 17.38804,2.076864 17.352881,2.07673 17.317589,2.07673 17.316397,2.076781 17.289443,2.076756 17.277962,2.076741 17.198142,2.076353 17.197574,2.351211 17.197538,2.405501 17.058845,2.404766 17.051241,2.404766 16.726201,2.405501 16.726933,2.080456 16.726933,2.072852 16.726201,1.962184 16.726201,1.934162 16.780489,1.934127 17.055345,1.933561 17.054962,1.85374 17.054944,1.842257 17.05492,1.815303 17.054972,1.77882 17.054826,1.777108 17.054788,1.743712 17.269759,1.743212 17.270459,1.743093" style="fill: white" /><polygon type="contour" points="17.197996,3.916686 17.198062,3.997988 17.276362,3.998312 17.287971,3.998525 17.315535,3.998327 17.31759,3.998489 17.352881,3.998489 17.354591,3.998375 17.38804,3.998364 17.388564,4.220971 17.388564,4.331038 17.351182,4.331107 17.293208,4.331359 17.293526,4.526836 17.293482,4.539772 17.195636,4.549691 17.056717,4.516325 16.726222,4.525887 16.727178,4.054752 16.727181,3.998001 16.727579,3.998001 16.726201,3.776286 16.726201,3.737824 17.051242,3.738056 17.058845,3.738056 17.169516,3.737824 17.197538,3.737824" style="fill: white" /><polygon type="contour" points="15.39318,3.916686 15.39318,3.998002 15.393139,4.054905 15.393767,4.527382 15.217048,4.520692 15.171831,4.522381 15.014995,4.517428 14.663812,4.515944 14.627959,4.516104 14.615294,4.516407 14.615596,4.503946 14.615756,4.467889 14.614273,4.116706 14.609378,3.997973 14.613444,3.997973 14.602751,3.780509 14.604319,3.737934 15.076796,3.738564 15.1337,3.738522 15.1337,3.738805 15.355413,3.737824 15.393875,3.737824" style="fill: white" /><polygon type="contour" points="15.133339,1.743662 15.133214,1.778821 15.133375,1.816165 15.133177,1.843729 15.13339,1.855339 15.133714,1.933507 15.359536,1.934142 15.393877,1.934162 15.393644,2.072852 15.393644,2.080456 15.393877,2.405501 15.215014,2.404522 15.197817,2.404522 15.197817,2.404429 15.076864,2.404603 14.611076,2.404852 14.614914,2.278256 14.615284,2.090926 14.615216,2.080456 14.615128,2.07394 14.585989,1.935659 14.591988,1.838683 14.604828,1.838364 14.800341,1.838488 14.800596,1.78052 14.800609,1.779708 14.800664,1.743139 14.910732,1.743139" style="fill: white" /><polygon type="contour" points="1.861941,1.743212 2.076912,1.743712 2.076729,1.77882 2.076729,1.814113 2.07678,1.815304 2.076756,1.842257 2.07674,1.85374 2.076351,1.933561 2.351209,1.934127 2.405499,1.934162 2.404765,2.072852 2.404765,2.080457 2.405499,2.405501 2.080453,2.404766 2.07285,2.404766 1.962182,2.405501 1.934161,2.405501 1.934125,2.351211 1.93356,2.076353 1.853738,2.076741 1.842255,2.076757 1.815301,2.076781 1.778819,2.076729 1.777108,2.076876 1.743661,2.076864 1.743734,2.002843 1.743215,1.770401 1.743215,1.743216 1.86124,1.743093" style="fill: white" /><polygon type="contour" points="4.331105,1.78052 4.331357,1.838488 4.503606,1.838467 4.527205,1.838477 4.516808,2.074007 4.516483,2.080456 4.516416,2.090926 4.516786,2.278256 4.521464,2.369577 4.520624,2.404852 4.054833,2.404603 3.997999,2.404521 3.998,2.404123 3.776283,2.405501 3.737822,2.405501 3.738055,2.080456 3.738055,2.072853 3.737822,1.962183 3.737822,1.934162 3.772161,1.934142 3.997986,1.933507 3.99831,1.855339 3.998524,1.843729 3.998326,1.816166 3.998487,1.814112 3.998487,1.778821 3.998372,1.777108 3.998362,1.743663 4.220968,1.743139 4.331036,1.743139" style="fill: white" /><polygon type="contour" points="3.916684,3.738522 3.997999,3.738522 3.997999,3.738521 4.054903,3.738564 4.52738,3.737934 4.520692,3.914653 4.523097,3.979164 4.517428,4.116706 4.515944,4.467888 4.516102,4.503741 4.516405,4.516407 4.504355,4.516164 4.503738,4.516104 4.467887,4.515945 4.116704,4.517429 3.998009,4.521177 3.998009,4.518255 3.780507,4.52895 3.737932,4.527382 3.738562,4.054905 3.73852,3.998002 3.738803,3.998001 3.737822,3.776286 3.737822,3.737824" style="fill: white" /><polygon type="contour" points="2.404521,3.916685 2.404521,3.933882 2.404369,3.933882 2.405499,4.412561 2.405477,4.525886 2.074979,4.516325 1.936067,4.549691 1.838218,4.539772 1.838175,4.526836 1.838486,4.331359 1.780518,4.331107 1.779707,4.331093 1.743137,4.331038 1.743137,4.220971 1.743661,3.998363 1.778818,3.998488 1.816164,3.998327 1.843728,3.998525 1.855337,3.998312 1.933506,3.997988 1.934141,3.772164 1.934161,3.737824 2.072849,3.738056 2.080453,3.738056 2.405499,3.737824" style="fill: white" /><polygon type="contour" points="2.074004,14.614891 2.080454,14.615218 2.405477,14.605816 2.404523,15.076952 2.40452,15.133701 2.404121,15.133702 2.405499,15.355418 2.405499,15.39388 2.080453,15.393647 2.072849,15.393647 1.962183,15.39388 1.934161,15.39388 1.933701,15.215019 1.933634,15.133716 1.855337,15.133392 1.843728,15.133179 1.816163,15.133378 1.81411,15.133216 1.778818,15.133216 1.777108,15.133329 1.743661,15.133341 1.743137,14.910731 1.743137,14.800665 1.780519,14.800595 1.838486,14.800344 1.838465,14.628095 1.838475,14.604498" style="fill: white" /><polygon type="contour" points="3.914651,14.611009 3.959889,14.60932 4.116705,14.614274 4.467887,14.615757 4.503739,14.615598 4.516405,14.615296 4.516102,14.627756 4.515944,14.663813 4.517428,15.014996 4.522322,15.133731 4.518255,15.133731 4.528948,15.351194 4.527379,15.39377 4.054903,15.393141 3.998,15.393182 3.998,15.392898 3.776282,15.39388 3.737822,15.39388 3.73852,15.215017 3.73852,15.1337 3.738562,15.076797 3.737932,14.604321" style="fill: white" /><polygon type="contour" points="3.916684,16.727181 3.933881,16.727181 3.93388,16.727273 4.054833,16.727099 4.520624,16.726851 4.516786,16.853446 4.516416,17.040778 4.516482,17.051245 4.516809,17.057696 4.527204,17.293228 4.503607,17.293236 4.331357,17.293212 4.331105,17.351184 4.331091,17.351995 4.331036,17.388564 4.220968,17.388566 3.998362,17.388042 3.998487,17.352883 3.998326,17.315537 3.998524,17.287974 3.998311,17.276365 3.997986,17.198194 3.772161,17.19756 3.737822,17.19754 3.738055,17.05885 3.738055,17.051246 3.737822,16.726202" style="fill: white" /><polygon type="contour" points="2.404765,17.051245 2.404765,17.05885 2.405499,17.169517 2.405499,17.19754 2.351209,17.197576 2.076351,17.198144 2.07674,17.277964 2.076755,17.289445 2.076779,17.316399 2.076729,17.352884 2.076874,17.354594 2.076912,17.387992 1.86194,17.388489 1.861239,17.388612 1.743215,17.388488 1.743215,17.361303 1.743734,17.128861 1.743661,17.05484 1.778819,17.054974 1.814111,17.054974 1.815302,17.054922 1.842255,17.054946 1.853739,17.054962 1.93356,17.055349 1.934125,16.780491 1.934161,16.726202 2.07285,16.726938 2.080454,16.726938 2.405499,16.726202" style="fill: white" />
</svg>
