<svg width="19.131698" height="19.131699">
<polygon type="contour" points="9.606428,8.702668 9.634465,8.703403 9.650935,8.703891 9.711101,8.703905 9.711101,9.006008 9.71111,9.007689 9.4206,9.007689 9.4206,8.703905 9.481054,8.703891 9.497603,8.703404 9.566016,8.702408" style="fill: white" /><polygon type="contour" points="8.85664,8.699506 9.005724,8.703138 9.006436,8.72677 9.006573,8.729178 9.00676,8.761009 9.006989,9.000549 9.006995,9.006997 9.003262,9.006997 8.783383,9.00692 8.703881,9.00692 8.70265,8.941147 8.698052,8.698053" style="fill: white" /><polygon type="contour" points="9.172216,8.870624 9.213134,8.870623 9.253809,8.87064 9.261408,8.870603 9.261408,9.00777 9.253809,9.007781 9.169322,9.007696 9.166413,9.007689 9.165313,9.007689 9.165313,9.006009 9.165162,8.87059" style="fill: white" /><polygon type="contour" points="9.007767,9.172219 9.007695,9.257543 9.007687,9.260485 9.007687,9.261594 8.873855,9.26141 8.870601,9.26141 8.870638,9.253811 8.870622,9.213136 8.870622,9.172218 8.870587,9.165164 9.007756,9.165164" style="fill: white" /><polygon type="contour" points="9.261826,9.165164 9.261819,9.172219 9.261428,9.25381 9.261408,9.259262 9.261408,9.26141 9.253808,9.26143 9.172217,9.26182 9.167129,9.261828 9.165162,9.261828 9.165148,9.254696 9.165148,9.172218 9.165162,9.167148 9.165162,9.165164 9.172216,9.16515 9.254694,9.16515" style="fill: white" /><polygon type="contour" points="9.711101,9.172218 9.711101,9.26141 9.4206,9.26141 9.4206,9.165164 9.711117,9.165164" style="fill: white" /><polygon type="contour" points="9.87789,9.164911 9.959483,9.16515 9.964553,9.165164 9.966538,9.165164 9.966552,9.172218 9.966552,9.254695 9.966538,9.261812 9.959482,9.261821 9.957476,9.261828 9.870291,9.26141 9.870272,9.253811 9.870272,9.172469 9.870307,9.16491" style="fill: white" /><polygon type="contour" points="9.966387,9.006009 9.966387,9.007689 9.962376,9.007697 9.874158,9.007697 9.871217,9.007689 9.870117,9.007689 9.870307,8.873858 9.870291,8.870603 9.87789,8.87064 9.918244,8.870623 9.959483,8.870624 9.966538,8.87059" style="fill: white" /><polygon type="contour" points="10.429049,8.941147 10.427818,9.00692 10.348315,9.00692 10.128437,9.006997 10.124712,9.006991 10.124712,9.000549 10.12494,8.761009 10.125128,8.754829 10.125128,8.729179 10.125977,8.703138 10.275059,8.699506 10.433647,8.698054" style="fill: white" /><polygon type="contour" points="10.261077,9.172219 10.261077,9.213135 10.261062,9.253811 10.261099,9.26141 10.127187,9.26141 10.123933,9.261394 10.123922,9.253811 10.124006,9.169323 10.124014,9.166414 10.124014,9.165314 10.125693,9.165314 10.261113,9.165164" style="fill: white" /><polygon type="contour" points="10.190409,9.420235 10.221496,9.420207 10.290036,9.420283 10.351939,9.420602 10.427871,9.420602 10.428218,9.499281 10.42915,9.566202 10.428421,9.685794 10.427871,9.711102 10.124014,9.711102 10.124014,9.420593 10.124783,9.419902" style="fill: white" /><polygon type="contour" points="10.348315,10.124785 10.427818,10.124785 10.42905,10.190558 10.433648,10.433649 10.275059,10.432197 10.125977,10.428566 10.125263,10.404933 10.125128,10.402524 10.12494,10.370694 10.124711,10.131155 10.124706,10.124708 10.128438,10.124708" style="fill: white" /><polygon type="contour" points="10.257843,9.870292 10.261099,9.870292 10.261062,9.877891 10.261077,9.918246 10.261077,9.959484 10.261113,9.96654 10.125693,9.96639 10.124014,9.96639 10.124006,9.962379 10.124006,9.87416 10.124014,9.871219 10.124014,9.870111" style="fill: white" /><polygon type="contour" points="9.711101,9.96654 9.420584,9.96654 9.4206,9.959485 9.4206,9.870292 9.711101,9.870292" style="fill: white" /><polygon type="contour" points="9.711435,10.124785 9.711101,10.190412 9.711101,10.427798 9.650646,10.427812 9.634096,10.4283 9.5655,10.429296 9.525272,10.429036 9.497234,10.428299 9.480765,10.427812 9.4206,10.427798 9.4206,10.125696 9.420591,10.124016 9.711101,10.124016" style="fill: white" /><polygon type="contour" points="9.964553,10.123947 9.966538,10.123947 9.966538,10.261114 9.959482,10.261079 9.918244,10.261079 9.87789,10.261063 9.87029,10.2611 9.870109,10.125696 9.870109,10.124016 9.874159,10.124007 9.959482,10.123936" style="fill: white" /><polygon type="contour" points="9.966552,9.877008 9.966552,9.959484 9.966538,9.964555 9.966538,9.96654 9.959483,9.966554 9.877006,9.966554 9.869875,9.96654 9.869882,9.959484 9.870271,9.877891 9.870291,9.872438 9.870291,9.870292 9.87789,9.870273 9.959482,9.869884 9.96457,9.869877 9.966538,9.869877" style="fill: white" /><polygon type="contour" points="9.966538,9.711102 9.870291,9.711102 9.870291,9.420602 9.96457,9.420602 9.966538,9.420586" style="fill: white" /><polygon type="contour" points="9.711101,9.711102 9.4206,9.711102 9.4206,9.420602 9.711101,9.420602" style="fill: white" /><polygon type="contour" points="9.261408,9.711102 9.167129,9.711102 9.165162,9.711118 9.165162,9.420602 9.261408,9.420602" style="fill: white" /><polygon type="contour" points="9.007687,9.711111 9.006918,9.711802 8.941291,9.711469 8.910205,9.711497 8.841662,9.711421 8.77976,9.711102 8.703829,9.711102 8.703482,9.632801 8.70255,9.566201 8.703279,9.446031 8.703829,9.420602 9.007687,9.420602" style="fill: white" /><polygon type="contour" points="9.007687,9.870119 9.007695,9.87416 9.007695,9.96238 9.007687,9.965289 9.007687,9.96639 9.006007,9.96639 8.870587,9.96654 8.870623,9.959485 8.870622,9.918246 8.870637,9.87789 8.8706,9.870292 9.006007,9.870111" style="fill: white" /><polygon type="contour" points="9.174638,9.870292 9.261408,9.870292 9.261428,9.87789 9.261428,9.959234 9.261392,9.966793 9.253808,9.966792 9.172217,9.966554 9.167146,9.96654 9.165162,9.96654 9.165148,9.959484 9.164909,9.877891 9.164908,9.870308 9.172467,9.870273" style="fill: white" /><polygon type="contour" points="9.259261,10.123935 9.261392,10.123935 9.261392,10.257846 9.261408,10.261101 9.253809,10.261064 9.213133,10.261079 9.172217,10.261079 9.165162,10.261114 9.165162,10.123947 9.172217,10.123936 9.253808,10.123924" style="fill: white" /><polygon type="contour" points="9.006989,10.124714 9.006989,10.131155 9.006761,10.370694 9.006573,10.376657 9.006573,10.402525 9.005724,10.428566 8.85664,10.432198 8.698052,10.43365 8.702649,10.190558 8.703881,10.124785 8.783383,10.124785 9.003263,10.124708" style="fill: white" />
</svg>
