<svg width="19.131698" height="19.131699">
<polygon type="contour" points="8.263781,8.015764 8.264269,8.040832 8.265435,8.159709 8.369094,8.159401 8.369208,8.260268 8.369208,8.269302 8.369094,8.360939 8.369094,8.369097 8.269301,8.369209 8.260267,8.369209 8.167556,8.369097 8.159398,8.369097 8.159364,8.362172 8.159711,8.265397 7.996469,8.265397 7.992406,8.265408 7.992207,8.061007 7.991915,8.011636 7.991428,7.991431 8.002124,7.991804 8.262837,7.989708" style="fill: white" /><polygon type="contour" points="8.360935,8.930776 8.369094,8.930776 8.368859,9.021122 8.368853,9.02664 8.368811,9.026639 8.368894,9.360432 8.369093,9.387031 8.369141,9.394135 8.269301,9.393922 8.260267,9.393922 8.168103,9.394135 8.159409,9.394135 8.159797,9.322994 8.045145,9.322994 7.992414,9.323115 7.992528,9.056866 7.99249,9.030593 8.159837,9.030593 8.159398,8.930776 8.260267,8.930255 8.269301,8.930255" style="fill: white" /><polygon type="contour" points="8.368894,9.771269 8.368819,10.074838 8.368849,10.097026 8.368849,10.105065 8.369094,10.193472 8.369094,10.200925 8.269301,10.201449 8.260267,10.201449 8.167556,10.200925 8.159398,10.200925 8.159366,10.194478 8.159828,10.101155 7.99249,10.101112 7.992244,9.95491 7.992414,9.808588 8.045145,9.80871 8.159797,9.80871 8.159409,9.737624 8.260266,9.737782 8.2693,9.737782 8.360447,9.737624 8.369142,9.737624" style="fill: white" /><polygon type="contour" points="8.360936,10.762607 8.369094,10.762607 8.369208,10.862398 8.369208,10.871399 8.369094,10.963499 8.369094,10.971659 8.362169,10.971685 8.265435,10.971983 8.264269,11.090871 8.262836,11.141996 8.002124,11.1399 7.991428,11.140273 7.991843,11.128252 7.992207,11.070696 7.992406,10.866294 7.993655,10.866289 7.996469,10.866305 8.159708,10.866305 8.159398,10.762607 8.260267,10.762495 8.2693,10.762495" style="fill: white" /><polygon type="contour" points="10.963497,10.762607 10.971657,10.762607 10.971682,10.769531 10.971981,10.866305 11.13523,10.866305 11.139295,10.866294 11.139494,11.070695 11.139785,11.120068 11.140272,11.140273 11.129575,11.1399 10.868863,11.141996 10.867919,11.115939 10.867429,11.09087 10.866263,10.971984 10.762606,10.971659 10.762493,10.871398 10.762493,10.862398 10.762606,10.770765 10.762606,10.762607 10.862396,10.762495 10.871397,10.762495" style="fill: white" /><polygon type="contour" points="11.129575,7.991804 11.140272,7.991431 11.139857,8.00345 11.139494,8.061008 11.139295,8.265408 11.138045,8.265412 11.135229,8.265397 10.971981,8.265397 10.971657,8.369097 10.871397,8.369209 10.862397,8.369209 10.770764,8.369097 10.762606,8.369097 10.762493,8.269302 10.762493,8.260268 10.762606,8.167559 10.762606,8.159401 10.769531,8.159367 10.866263,8.159711 10.867429,8.040833 10.868863,7.989707" style="fill: white" /><polygon type="contour" points="9.882135,7.990036 10.070815,7.992193 10.101109,7.992491 10.10144,8.041442 10.10144,8.09031 10.100996,8.159839 10.200924,8.159401 10.201447,8.260268 10.201447,8.269302 10.200924,8.360939 10.200924,8.369097 10.110549,8.368861 10.105061,8.368855 10.105062,8.368813 9.771269,8.368895 9.744667,8.369096 9.737564,8.369144 9.737781,8.269303 9.737781,8.260268 9.737564,8.168107 9.737564,8.159412 9.808707,8.159798 9.808707,8.107182 9.809442,8.040546 9.810388,7.989094 9.823302,7.989092" style="fill: white" /><polygon type="contour" points="9.321312,7.989094 9.321972,8.015273 9.322257,8.040546 9.322993,8.107182 9.322993,8.159798 9.394075,8.159412 9.393919,8.260269 9.393919,8.269303 9.394075,8.360449 9.394075,8.369145 9.360429,8.368895 9.056864,8.368821 9.034676,8.368851 9.026638,8.368851 8.938224,8.369097 8.930773,8.369097 8.930253,8.269302 8.930253,8.260268 8.930773,8.167559 8.930773,8.159401 8.93722,8.159368 9.030609,8.15983 9.030609,7.995684 9.030608,7.99413 9.030608,7.992495 9.060885,7.992193 9.249562,7.990037 9.308397,7.989091" style="fill: white" /><polygon type="contour" points="9.387029,8.930776 9.394075,8.930788 9.393795,9.02362 9.393793,9.026632 9.393759,9.026631 9.393912,9.360432 9.394075,9.386599 9.394075,9.394135 9.360428,9.393915 9.056865,9.393775 9.034964,9.393803 9.026631,9.393803 8.938667,9.394135 8.930785,9.394135 8.930653,9.360432 8.930711,9.056866 8.930731,9.038958 8.930735,9.030615 8.930773,8.938228 8.930773,8.930776 9.025307,8.930739 9.030614,8.930739 9.056864,8.930713 9.360428,8.930655" style="fill: white" /><polygon type="contour" points="10.074835,8.930713 10.092558,8.930733 10.101087,8.930737 10.193471,8.930776 10.200924,8.930776 10.200963,9.025307 10.200963,9.030615 10.200989,9.056867 10.201045,9.360431 10.200924,9.387032 10.200912,9.394135 10.108838,9.393811 10.10507,9.393807 10.10507,9.393761 9.771269,9.393915 9.745098,9.394135 9.737564,9.394135 9.737785,9.360431 9.737927,9.056867 9.737899,9.034965 9.737899,9.026631 9.737564,8.938671 9.737564,8.930788 9.771268,8.930655" style="fill: white" /><polygon type="contour" points="10.963498,8.930776 10.971657,8.930776 10.971682,8.937222 10.971901,9.030549 11.13921,9.030593 11.139456,9.176793 11.139286,9.323116 11.086554,9.322994 10.971686,9.322994 10.971649,9.394135 10.871397,9.393922 10.862397,9.393922 10.771252,9.394135 10.762559,9.394135 10.762807,9.360432 10.762881,9.056866 10.762851,9.034678 10.762851,9.026639 10.762606,8.938227 10.762606,8.930776 10.862397,8.930255 10.871396,8.930255" style="fill: white" /><polygon type="contour" points="10.971687,9.80871 11.086554,9.80871 11.139286,9.808588 11.139172,10.074838 11.13921,10.101112 10.971899,10.101112 10.971657,10.200925 10.871396,10.201449 10.862397,10.201449 10.770764,10.200925 10.762606,10.200925 10.76284,10.110582 10.762846,10.105064 10.762888,10.105065 10.762806,9.77127 10.762605,9.744668 10.762559,9.737624 10.862396,9.737782 10.871396,9.737782 10.962955,9.737624 10.971649,9.737624" style="fill: white" /><polygon type="contour" points="10.201045,9.77127 10.200989,10.074837 10.200968,10.092173 10.200964,10.10109 10.200924,10.193472 10.200924,10.200925 10.106394,10.200965 10.101086,10.200965 10.074834,10.200991 9.771269,10.201047 9.744666,10.200924 9.737564,10.200913 9.73789,10.10881 9.737894,10.105073 9.737941,10.105073 9.737785,9.77127 9.737564,9.7451 9.737564,9.737624 9.771269,9.737787 10.074834,9.737929 10.096735,9.737911 10.105069,9.737911 10.193028,9.737624 10.200911,9.737624" style="fill: white" /><polygon type="contour" points="9.393913,9.77127 9.393773,10.074837 9.393791,10.096738 9.393791,10.105072 9.394075,10.19303 9.394075,10.200913 9.360428,10.201047 9.056865,10.200991 9.039732,10.20097 9.030613,10.200966 8.938225,10.200925 8.930773,10.200925 8.930737,10.106397 8.930737,10.10109 8.930711,10.074837 8.930653,9.771269 8.930773,9.744669 8.930785,9.737624 9.023641,9.737906 9.02663,9.737908 9.02663,9.737943 9.360429,9.737787 9.386596,9.737624 9.394075,9.737624" style="fill: white" /><polygon type="contour" points="9.771268,10.762809 10.074835,10.762883 10.097023,10.762853 10.105061,10.762853 10.193471,10.762607 10.200924,10.762607 10.201447,10.862398 10.201447,10.871399 10.200924,10.963499 10.200924,10.971659 10.194476,10.971684 10.101092,10.971903 10.101092,11.136019 10.101093,11.137573 10.101093,11.139209 10.070815,11.139511 9.882135,11.141667 9.823302,11.142612 9.810388,11.14261 9.809727,11.11643 9.809442,11.091157 9.808707,11.024521 9.808707,10.971688 9.737564,10.971651 9.737781,10.871399 9.737781,10.862398 9.737564,10.771255 9.737564,10.76256" style="fill: white" /><polygon type="contour" points="9.393919,10.862399 9.393919,10.871398 9.394075,10.962957 9.394075,10.971651 9.322993,10.971689 9.322993,11.024521 9.322257,11.091157 9.321311,11.14261 9.308397,11.142612 9.249562,11.141667 9.060885,11.139511 9.030592,11.139213 9.030261,11.090261 9.030261,11.040984 9.030705,10.971902 8.930773,10.971659 8.930253,10.871398 8.930253,10.862398 8.930773,10.770766 8.930773,10.762607 9.021151,10.762842 9.026639,10.762848 9.026638,10.76289 9.360429,10.762808 9.387028,10.762607 9.394075,10.76256" style="fill: white" />
</svg>
