<svg width="19.131698" height="19.131699">
<polygon type="contour" points="9.582662,9.322677 9.617325,9.327375 9.623176,9.329176 9.656663,9.339165 9.662175,9.341864 9.693901,9.357728 9.698851,9.36144 9.727049,9.382589 9.731325,9.386978 9.755999,9.412239 9.759488,9.417414 9.778873,9.446789 9.781348,9.452414 9.796038,9.484727 9.797611,9.490688 9.806425,9.524764 9.806988,9.53095 9.809925,9.566201 9.809362,9.572276 9.806425,9.606938 9.80485,9.6129 9.796037,9.646978 9.793561,9.652603 9.778873,9.684915 9.775386,9.690089 9.756,9.719463 9.751725,9.723851 9.727049,9.749114 9.722099,9.752826 9.6939,9.773976 9.688388,9.776675 9.656663,9.792539 9.650812,9.794338 9.617325,9.804328 9.611138,9.805115 9.576473,9.809814 9.570286,9.80959 9.535037,9.807825 9.529076,9.806589 9.494411,9.799539 9.488674,9.797177 9.455775,9.783663 9.450487,9.7804 9.420527,9.762189 9.415913,9.758138 9.389474,9.734637 9.38565,9.729801 9.363911,9.702188 9.360875,9.696901 9.343249,9.666353 9.341222,9.660502 9.329474,9.627602 9.32835,9.621528 9.322475,9.586276 9.322475,9.545427 9.3236,9.539352 9.329475,9.5041 9.3315,9.49825 9.343248,9.465352 9.346286,9.460063 9.363911,9.429514 9.367737,9.424676 9.389475,9.397066 9.394087,9.393016 9.420526,9.369515 9.425814,9.366251 9.455774,9.348038 9.461512,9.345674 9.494412,9.332163 9.500374,9.330926 9.535037,9.323875 9.541226,9.32365 9.576474,9.321889" style="fill: white" />
</svg>
