<svg width="19.131698" height="19.131699">
<polygon type="contour" points="11.689567,11.526867 11.695986,11.695987 11.618824,11.695382 11.547891,11.689997 11.397194,11.68961 11.396709,11.644785 11.396709,11.60005 11.396502,11.597728 11.396285,11.520418 11.396285,11.396287 11.689117,11.396287" style="fill: white" /><polygon type="contour" points="11.688368,10.570004 11.688284,10.609581 11.664438,10.609581 11.40274,10.610016 11.395293,10.609896 11.395935,10.339496 11.39596,10.315269 11.412627,10.315379 11.688888,10.314823" style="fill: white" /><polygon type="contour" points="11.5183,10.977912 11.518442,11.006297 11.518146,11.039313 11.518137,11.07165 11.393673,11.07165 11.393673,11.06719 11.393547,11.039313 11.393699,10.977912 11.393984,10.930325 11.51839,10.930325" style="fill: white" /><polygon type="contour" points="11.067188,11.393675 11.071649,11.393675 11.071649,11.51814 11.039312,11.518148 11.006294,11.518443 10.97791,11.518302 10.930323,11.518392 10.930323,11.393986 10.97791,11.393702 11.039311,11.393549" style="fill: white" /><polygon type="contour" points="10.610014,11.402742 10.609889,11.669096 10.609889,11.688719 10.363412,11.688462 10.314753,11.688562 10.314831,11.675483 10.314752,11.661983 10.314494,11.629621 10.315052,11.39557 10.587609,11.395314 10.609894,11.395295" style="fill: white" /><polygon type="contour" points="10.606505,10.977913 10.606288,11.039313 10.606311,11.067122 10.606311,11.07166 10.325866,11.07166 10.311672,11.07165 10.31165,11.067359 10.311587,11.039313 10.311805,10.977913 10.312031,10.930325 10.60668,10.930325" style="fill: white" /><polygon type="contour" points="10.977911,10.930597 11.039312,10.930815 11.067121,10.930724 11.071659,10.930724 11.071822,10.968141 11.071822,11.039313 11.071649,11.06719 11.071649,11.07165 11.039311,11.071824 10.968138,11.071824 10.930722,11.07166 10.930813,11.039313 10.930596,10.977913 10.930323,10.937939 10.930323,10.930325" style="fill: white" /><polygon type="contour" points="11.067358,10.311652 11.071649,10.311674 11.071649,10.59236 11.071659,10.606313 11.039319,10.606313 11.039435,10.606686 10.97791,10.606507 10.930323,10.606681 10.930323,10.312033 10.977911,10.311807 11.039311,10.31159" style="fill: white" /><polygon type="contour" points="10.608688,10.350473 10.608284,10.608286 10.566229,10.608286 10.314028,10.608612 10.314074,10.350472 10.314106,10.314109 10.574197,10.314109 10.608688,10.314076" style="fill: white" /><polygon type="contour" points="10.606317,9.532582 10.606317,9.599477 10.606672,9.657342 10.606672,9.664024 10.327427,9.664024 10.312016,9.663999 10.311618,9.599477 10.311618,9.532582 10.312016,9.474018 10.312016,9.467705 10.592114,9.467705 10.606672,9.46768" style="fill: white" /><polygon type="contour" points="10.97001,9.467831 11.039515,9.467831 11.070036,9.467705 11.074683,9.467715 11.073537,9.532583 11.073537,9.599477 11.074683,9.65742 11.074683,9.663989 11.039515,9.663873 11.033828,9.664024 10.930354,9.664024 10.930068,9.599477 10.930068,9.532582 10.930354,9.474361 10.930354,9.46768" style="fill: white" /><polygon type="contour" points="11.518464,9.473952 11.518417,9.532583 11.518416,9.566201 11.518418,9.599478 11.518464,9.657751 11.518471,9.663999 11.400043,9.663999 11.394022,9.663989 11.393817,9.599477 11.393817,9.532582 11.394022,9.474284 11.394022,9.467715 11.512197,9.467715 11.518471,9.467705" style="fill: white" /><polygon type="contour" points="11.695904,7.510606 11.689567,7.604836 11.689117,7.735417 11.396285,7.735417 11.396285,7.611285 11.396502,7.533975 11.396709,7.486918 11.397155,7.483396 11.397194,7.442094 11.54789,7.441707 11.695986,7.435717" style="fill: white" /><polygon type="contour" points="10.606311,8.092381 10.606506,8.092311 10.606506,8.153791 10.60668,8.201379 10.312031,8.201379 10.311645,8.097728 10.311588,8.092389 10.31165,8.064343 10.311672,8.060053 10.592357,8.060053 10.606311,8.060044" style="fill: white" /><polygon type="contour" points="10.608284,8.523417 10.608531,8.778687 10.608531,8.817778 10.35047,8.817629 10.314107,8.817596 10.313718,8.562711 10.313684,8.522818 10.355738,8.522818" style="fill: white" /><polygon type="contour" points="10.97791,8.525196 11.039312,8.525414 11.067121,8.525391 11.071659,8.525391 11.071659,8.805836 11.071649,8.82003 11.067358,8.820053 11.039312,8.820115 11.039312,8.819656 10.977911,8.819897 10.930323,8.819672 10.930323,8.525023" style="fill: white" /><polygon type="contour" points="11.688284,8.522123 11.688811,8.780862 11.688888,8.816882 11.412627,8.816326 11.39596,8.816436 11.395313,8.544092 11.395293,8.521808 11.412904,8.521688" style="fill: white" /><polygon type="contour" points="11.518146,8.092389 11.518442,8.125408 11.5183,8.15379 11.51839,8.201379 11.393984,8.201379 11.393699,8.15379 11.393547,8.09239 11.393673,8.064513 11.393673,8.060053 11.518137,8.060053" style="fill: white" /><polygon type="contour" points="11.067188,8.060053 11.071649,8.060053 11.071822,8.092389 11.071822,8.163562 11.071659,8.20098 11.039311,8.200889 11.033973,8.20098 10.930323,8.201379 10.930596,8.15379 10.930813,8.09239 10.930722,8.06458 10.930722,8.060044 10.968138,8.05988 11.039312,8.05988" style="fill: white" /><polygon type="contour" points="11.039312,7.613553 11.071649,7.613561 11.071649,7.738029 11.067188,7.738029 11.039311,7.738154 10.977911,7.738001 10.930323,7.737718 10.930323,7.613312 10.97791,7.613402 11.006293,7.613261" style="fill: white" /><polygon type="contour" points="10.609889,7.442985 10.609889,7.462607 10.609667,7.488439 10.609667,7.736043 10.339494,7.735764 10.315267,7.735739 10.315377,7.719071 10.314753,7.443142 10.577371,7.442913" style="fill: white" /><polygon type="contour" points="8.768288,7.443242 8.816948,7.443141 8.816869,7.456221 8.816947,7.46972 8.817207,7.502082 8.816649,7.736131 8.54409,7.736389 8.521806,7.73641 8.521686,7.728961 8.521811,7.462607 8.521811,7.442984" style="fill: white" /><polygon type="contour" points="7.512875,7.436322 7.583809,7.441707 7.734504,7.442094 7.73499,7.486917 7.73499,7.531655 7.735196,7.533975 7.735415,7.611285 7.735415,7.735417 7.442582,7.735417 7.442132,7.604835 7.435715,7.435717" style="fill: white" /><polygon type="contour" points="7.737678,9.467715 7.737884,9.532582 7.737884,9.599477 7.737678,9.657419 7.737678,9.663989 7.619502,9.663989 7.61323,9.663999 7.613236,9.657752 7.613282,9.599478 7.613283,9.566201 7.613282,9.532582 7.613236,9.473953 7.61323,9.467705 7.731656,9.467705" style="fill: white" /><polygon type="contour" points="8.201346,9.46768 8.201632,9.532582 8.201632,9.599477 8.201346,9.657341 8.201346,9.664024 8.161689,9.663873 8.092387,9.664115 8.064341,9.66434 8.060051,9.664331 8.059744,9.602358 8.059744,9.529689 8.060051,9.473431 8.060051,9.467374 8.092387,9.46759 8.097726,9.467342" style="fill: white" /><polygon type="contour" points="8.819685,9.467705 8.820083,9.532582 8.820083,9.599477 8.819685,9.657686 8.819685,9.663999 8.539585,9.663999 8.525028,9.664024 8.525383,9.599478 8.525383,9.532582 8.525028,9.474362 8.525028,9.46768 8.804273,9.46768" style="fill: white" /><polygon type="contour" points="8.817627,8.781232 8.817594,8.817596 8.557502,8.817596 8.523012,8.817629 8.523012,8.781231 8.523416,8.523417 8.565469,8.523417 8.817672,8.523089" style="fill: white" /><polygon type="contour" points="8.15379,8.525197 8.201377,8.525023 8.201377,8.819672 8.15379,8.819897 8.092388,8.820115 8.064341,8.820053 8.060051,8.82003 8.060051,8.539343 8.060041,8.525391 8.09238,8.525391 8.092262,8.525018" style="fill: white" /><polygon type="contour" points="7.736408,8.521808 7.735762,8.792208 7.735738,8.816436 7.71907,8.816326 7.442812,8.816882 7.443332,8.561699 7.443416,8.522123 7.467261,8.522123 7.728959,8.521688" style="fill: white" /><polygon type="contour" points="7.738027,8.064514 7.738152,8.092389 7.738,8.15379 7.737716,8.201379 7.61331,8.201379 7.6134,8.15379 7.613258,8.125408 7.613552,8.092389 7.61356,8.060053 7.738027,8.060053" style="fill: white" /><polygon type="contour" points="8.153789,7.613402 8.201377,7.613312 8.201377,7.737718 8.15379,7.738 8.092387,7.738154 8.064511,7.738029 8.060051,7.738029 8.060051,7.613561 8.092387,7.613553 8.125406,7.613261" style="fill: white" /><polygon type="contour" points="8.200978,8.060044 8.200887,8.09239 8.201105,8.15379 8.201377,8.193764 8.201377,8.201379 8.153789,8.201106 8.092388,8.200888 8.064578,8.20098 8.060041,8.20098 8.059877,8.163563 8.059877,8.092389 8.060051,8.064514 8.060051,8.060053 8.092388,8.05988 8.163561,8.05988" style="fill: white" /><polygon type="contour" points="8.805835,8.060044 8.820029,8.060053 8.820051,8.064343 8.820136,8.102811 8.81967,8.201379 8.52502,8.201379 8.525195,8.15379 8.525412,8.092389 8.525389,8.064581 8.525389,8.060044 8.805169,8.059378" style="fill: white" /><polygon type="contour" points="9.663998,7.731658 9.663988,7.73768 9.599119,7.737885 9.532224,7.737885 9.474281,7.73768 9.467713,7.73768 9.467713,7.619505 9.467703,7.613232 9.473951,7.613239 9.532223,7.613285 9.59912,7.613285 9.65775,7.613239 9.663998,7.613232" style="fill: white" /><polygon type="contour" points="9.658271,8.060053 9.664329,8.060053 9.664113,8.092389 9.663872,8.16169 9.663997,8.195906 9.664023,8.201347 9.59912,8.201633 9.532223,8.201633 9.47436,8.201347 9.467678,8.201347 9.467829,8.16169 9.467588,8.092389 9.467363,8.064343 9.467372,8.060052 9.529344,8.059747 9.602013,8.059747" style="fill: white" /><polygon type="contour" points="9.664023,8.804275 9.663998,8.819687 9.599119,8.820085 9.532224,8.820085 9.474015,8.819687 9.467703,8.819687 9.467703,8.539587 9.467678,8.52503 9.532223,8.525386 9.599119,8.525386 9.657341,8.52503 9.664023,8.52503" style="fill: white" /><polygon type="contour" points="9.657685,9.467705 9.663998,9.467705 9.66444,9.532582 9.66444,9.599477 9.663998,9.657685 9.663998,9.663999 9.59912,9.664442 9.532223,9.664442 9.474016,9.663999 9.467703,9.663999 9.467261,9.599477 9.467261,9.532582 9.467703,9.474018 9.467703,9.467705 9.532224,9.467262 9.599119,9.467262" style="fill: white" /><polygon type="contour" points="9.657684,10.312018 9.663998,10.312018 9.663998,10.592116 9.664023,10.606674 9.59912,10.606318 9.532223,10.606318 9.47436,10.606674 9.467678,10.606674 9.467678,10.327429 9.467703,10.312018 9.532224,10.31162 9.59912,10.31162" style="fill: white" /><polygon type="contour" points="9.657341,10.930357 9.664023,10.930357 9.663872,10.970013 9.663872,11.039518 9.663998,11.070039 9.663988,11.074686 9.599119,11.073539 9.532223,11.073539 9.474282,11.074686 9.467713,11.074686 9.467829,11.039518 9.467829,10.970013 9.467703,10.935797 9.467678,10.930357 9.532224,10.930071 9.599119,10.930071" style="fill: white" /><polygon type="contour" points="9.657418,11.394024 9.663988,11.394024 9.663988,11.512198 9.663998,11.518472 9.65775,11.518465 9.59912,11.518419 9.532223,11.518419 9.473951,11.518465 9.467703,11.518472 9.467703,11.400045 9.467713,11.394024 9.532223,11.393819 9.59912,11.393819" style="fill: white" /><polygon type="contour" points="8.792206,11.395937 8.816434,11.395961 8.816324,11.412628 8.816948,11.688562 8.554328,11.688791 8.521811,11.688719 8.521811,11.669096 8.522033,11.643264 8.522033,11.395658" style="fill: white" /><polygon type="contour" points="8.819895,10.977913 8.820113,11.039313 8.820051,11.067359 8.820028,11.07165 8.539341,11.07165 8.525389,11.07166 8.525389,11.039322 8.525195,11.039392 8.525195,10.977913 8.52502,10.930325 8.81967,10.930325" style="fill: white" /><polygon type="contour" points="8.78123,10.314076 8.817594,10.314109 8.817981,10.568991 8.818016,10.608886 8.775961,10.608886 8.523416,10.608286 8.523169,10.353017 8.523169,10.313926" style="fill: white" /><polygon type="contour" points="8.15379,10.311807 8.201377,10.312032 8.201377,10.606681 8.153789,10.606506 8.092387,10.60629 8.064578,10.606313 8.060041,10.606313 8.060041,10.32656 8.059099,10.325573 8.060056,10.324102 8.060051,10.311674 8.064341,10.311652 8.092106,10.31159" style="fill: white" /><polygon type="contour" points="7.71907,10.315379 7.735738,10.315269 7.736387,10.587611 7.736408,10.609896 7.718796,10.610016 7.443416,10.609581 7.442889,10.350842 7.442812,10.314823" style="fill: white" /><polygon type="contour" points="7.738,10.977912 7.738152,11.039314 7.738027,11.067189 7.738027,11.07165 7.61356,11.07165 7.613552,11.039314 7.613258,11.006296 7.6134,10.977912 7.61331,10.930325 7.737716,10.930325" style="fill: white" /><polygon type="contour" points="8.201104,10.977913 8.200887,11.039313 8.200978,11.067123 8.200978,11.07166 8.163561,11.071824 8.092387,11.071824 8.064511,11.07165 8.060051,11.07165 8.059877,11.039314 8.059877,10.96814 8.060041,10.930724 8.092388,10.930815 8.097726,10.930724 8.201377,10.930325" style="fill: white" /><polygon type="contour" points="8.153789,11.393702 8.201377,11.393987 8.201377,11.518392 8.153789,11.518302 8.125406,11.518443 8.092387,11.518148 8.060051,11.51814 8.060051,11.393675 8.064511,11.393675 8.092387,11.393549" style="fill: white" /><polygon type="contour" points="7.735415,11.520418 7.735195,11.597728 7.734989,11.644786 7.734543,11.648307 7.734504,11.68961 7.583809,11.689996 7.435715,11.695987 7.435797,11.621097 7.442132,11.526867 7.442582,11.396287 7.735415,11.396287" style="fill: white" />
</svg>
