<svg width="19.131698" height="19.131699">
<polygon type="contour" points="10.532009,8.840582 10.530925,8.86748 10.530582,8.898644 10.364417,8.898644 10.364152,9.028162 10.364033,9.074179 10.299165,9.074036 10.232898,9.074036 10.232898,9.073735 10.11071,9.074179 10.057523,9.074179 10.057667,9.028163 10.057667,8.981635 10.057882,8.981635 10.057523,8.843421 10.057523,8.76767 10.100587,8.767588 10.233111,8.767233 10.233048,8.65268 10.233138,8.64303 10.233138,8.622136 10.233266,8.601198 10.244057,8.600888 10.539379,8.592323" style="fill: white" /><polygon type="contour" points="10.364091,9.287791 10.364331,9.420602 10.532035,9.420602 10.531387,9.557209 10.531517,9.565541 10.531387,9.573833 10.532035,9.711102 10.364299,9.711102 10.364112,9.841542 10.364034,9.886712 10.299165,9.886687 10.232898,9.886687 10.232898,9.886634 10.110711,9.886712 10.057523,9.886712 10.057852,9.841541 10.057852,9.420602 10.058563,9.420602 10.057523,9.297776 10.057523,9.244992 10.103539,9.245017 10.150066,9.245017 10.150066,9.245054 10.288281,9.244992 10.364034,9.244992" style="fill: white" /><polygon type="contour" points="9.833926,9.244992 9.88671,9.244992 9.886806,9.290161 9.886806,9.795107 9.88671,9.833928 9.88671,9.886712 9.84154,9.886808 9.336595,9.886808 9.297774,9.886712 9.24499,9.886712 9.244894,9.841541 9.244894,9.336596 9.24499,9.297776 9.24499,9.244992 9.290159,9.244896 9.795106,9.244896" style="fill: white" /><polygon type="contour" points="9.578326,8.600868 9.601573,8.601119 9.623592,8.601054 9.711101,8.600631 9.711101,8.767384 9.841644,8.767576 9.841645,8.767591 9.88671,8.76767 9.886685,8.832537 9.886685,8.898803 9.886632,8.898803 9.88671,9.02099 9.88671,9.074179 9.841541,9.073851 9.4206,9.073851 9.4206,9.073141 9.297774,9.074179 9.24499,9.074179 9.245015,9.028162 9.245015,8.981635 9.245052,8.981635 9.24499,8.84342 9.24499,8.76767 9.287789,8.767612 9.4206,8.767371 9.4206,8.600631 9.507688,8.601054 9.5296,8.601119 9.565501,8.600478" style="fill: white" /><polygon type="contour" points="8.887642,8.600888 8.898434,8.601198 8.898529,8.61802 8.898561,8.622135 8.898651,8.65268 8.898651,8.693164 8.898617,8.767285 9.028161,8.767551 9.074177,8.76767 9.074034,8.832537 9.074034,8.898803 9.073733,8.898803 9.074177,9.020991 9.074177,9.074179 9.028161,9.074036 8.981634,9.074036 8.981634,9.073822 8.843419,9.074179 8.767667,9.074179 8.767585,9.031114 8.767231,8.898644 8.601119,8.898644 8.600776,8.86748 8.599691,8.840582 8.592321,8.592323" style="fill: white" /><polygon type="contour" points="9.073849,9.290162 9.073849,9.711102 9.073139,9.711102 9.074177,9.833928 9.074177,9.886712 9.02816,9.886687 8.981634,9.886687 8.981634,9.886649 8.843419,9.886712 8.767667,9.886712 8.76761,9.843912 8.767369,9.711102 8.599665,9.711102 8.600312,9.574494 8.600182,9.566162 8.600312,9.55787 8.599666,9.420602 8.6928,9.420602 8.767402,9.419808 8.767588,9.290161 8.767667,9.244992 8.832535,9.245017 8.898802,9.245017 8.898802,9.245069 9.020989,9.244992 9.074177,9.244992" style="fill: white" /><polygon type="contour" points="9.074034,10.10354 9.074034,10.150069 9.07382,10.150069 9.074177,10.288283 9.074177,10.364035 9.031112,10.364116 8.898588,10.364471 8.898651,10.479024 8.898562,10.488674 8.898562,10.509568 8.898434,10.530507 8.887643,10.530815 8.592321,10.53938 8.599692,10.291117 8.600775,10.264224 8.601119,10.233059 8.767283,10.233059 8.767548,10.103541 8.767667,10.057525 8.832535,10.057668 8.898802,10.057668 8.898802,10.057968 9.02099,10.057525 9.074177,10.057525" style="fill: white" /><polygon type="contour" points="9.886685,10.103541 9.886685,10.150069 9.886647,10.150069 9.88671,10.288283 9.88671,10.364035 9.84391,10.364092 9.711101,10.364331 9.711101,10.531074 9.624011,10.530649 9.602099,10.530584 9.566162,10.531224 9.553372,10.530834 9.530126,10.530584 9.508108,10.53065 9.4206,10.531074 9.4206,10.3643 9.290159,10.364113 9.24499,10.364035 9.245015,10.299167 9.245015,10.232901 9.245067,10.232901 9.24499,10.110713 9.24499,10.057525 9.29016,10.057853 9.711101,10.057853 9.711101,10.058562 9.833926,10.057525 9.88671,10.057525" style="fill: white" /><polygon type="contour" points="10.364115,10.100589 10.364469,10.233059 10.530582,10.233059 10.530925,10.264224 10.532009,10.291118 10.539379,10.539381 10.244056,10.530815 10.233266,10.530507 10.233171,10.513683 10.233138,10.509569 10.233049,10.479024 10.233049,10.43854 10.233082,10.364421 10.103539,10.364153 10.057523,10.364034 10.057667,10.299166 10.057667,10.232901 10.05797,10.232901 10.057523,10.110713 10.057523,10.057525 10.103538,10.057668 10.150066,10.057668 10.150066,10.057881 10.28828,10.057525 10.364034,10.057525" style="fill: white" />
</svg>
