<svg width="19.131698" height="19.131699">
<polygon type="contour" points="6.118057,12.912614 6.219085,12.912614 6.219085,13.161618 6.219032,13.206551 6.097036,13.205833 6.03715,13.205933 5.923264,13.208438 5.924983,13.157113 5.922352,12.915195 6.059584,12.912766 6.075384,12.912322" style="fill: white" /><polygon type="contour" points="6.219588,12.596135 6.219414,12.629446 6.219414,12.808925 6.219413,12.808925 6.219085,12.808596 6.219085,12.808925 6.099976,12.808925 6.100076,12.632972 6.100168,12.595919 6.125508,12.595919" style="fill: white" /><polygon type="contour" points="6.535783,12.640336 6.535567,12.809065 6.502255,12.808925 6.322775,12.808925 6.322634,12.768976 6.322634,12.596136 6.362723,12.596136 6.535783,12.595919" style="fill: white" /><polygon type="contour" points="6.535567,12.934981 6.535783,13.031534 6.498729,13.031627 6.322775,13.031725 6.322775,12.912286 6.322664,12.912176 6.322687,12.912142 6.468924,12.912142 6.502254,12.912286 6.535567,12.912112" style="fill: white" /><polygon type="contour" points="7.644252,12.912299 7.683335,12.912381 7.683335,12.912678 7.787501,12.912678 8.04573,12.912621 8.046514,12.962118 8.045472,13.037306 8.043049,13.208734 7.869217,13.20673 7.792174,13.206064 7.782728,13.206303 7.755557,13.206426 7.755557,13.197241 7.755608,13.173857 7.755608,13.031018 7.644252,13.031087 7.401705,13.031534 7.401705,13.006194 7.401489,12.912112" style="fill: white" /><polygon type="contour" points="7.755568,12.596186 7.755568,12.596121 7.796558,12.596121 8.046386,12.595919 8.046242,12.632972 8.046387,12.808925 8.000132,12.808925 7.755602,12.808915 7.755601,12.808722 7.644251,12.809019 7.401489,12.809065 7.401489,12.768976 7.401705,12.595919 7.460249,12.595919" style="fill: white" /><polygon type="contour" points="7.683335,11.086792 7.782898,11.08511 7.846792,11.086644 7.941905,11.094311 8.038129,11.093571 8.045057,11.284908 8.046593,11.348804 8.04491,11.448368 8.046655,11.448368 8.046749,11.487451 8.046386,11.729996 7.98493,11.729996 7.755567,11.730406 7.644252,11.730406 7.401705,11.729996 7.401705,11.671452 7.401297,11.448402 7.401297,11.335144 7.401705,11.085312 7.448285,11.085475 7.683335,11.085048" style="fill: white" /><polygon type="contour" points="6.535783,11.085312 6.535783,11.146768 6.535516,11.448403 6.53558,11.448403 6.53558,11.487451 6.535783,11.729996 6.491364,11.729996 6.322634,11.730212 6.322684,11.487451 6.32298,11.376101 6.322788,11.3761 6.322788,11.342257 6.322775,11.085313 6.362722,11.085189" style="fill: white" /><polygon type="contour" points="6.219052,11.086021 6.219085,11.13 6.219011,11.448368 6.21932,11.448368 6.219402,11.487451 6.219588,11.730212 6.196718,11.730212 6.100168,11.729996 6.100181,11.683415 6.100779,11.376138 5.941484,11.376138 5.934461,11.376146 5.925277,11.376146 5.9254,11.348974 5.925671,11.3393 5.925076,11.261994 5.923139,11.088708 6.093961,11.086276 6.169308,11.085208" style="fill: white" /><polygon type="contour" points="6.219402,7.644252 6.21932,7.683336 6.219028,7.683336 6.219028,7.787695 6.219085,8.045683 6.169581,8.046516 6.094393,8.045474 5.922967,8.043051 5.925639,7.792175 5.9254,7.782729 5.925277,7.755558 5.93446,7.755558 5.958082,7.755572 6.100683,7.755572 6.100615,7.644253 6.100168,7.401708 6.125508,7.401708 6.219588,7.401492" style="fill: white" /><polygon type="contour" points="6.535783,7.401708 6.535783,7.460251 6.535514,7.755569 6.53558,7.755569 6.53558,7.796559 6.535783,8.046389 6.362722,8.046515 6.322775,8.04639 6.322775,8.000135 6.322788,7.755602 6.32298,7.755602 6.322684,7.644252 6.322634,7.401492 6.362723,7.401492" style="fill: white" /><polygon type="contour" points="6.219414,6.502256 6.219588,6.535569 6.196718,6.535569 6.100168,6.535785 6.100076,6.498731 6.099976,6.322777 6.219414,6.322777" style="fill: white" /><polygon type="contour" points="6.219032,5.925154 6.219032,5.938422 6.219085,5.970084 6.219085,6.219087 6.177654,6.21938 6.075384,6.21938 6.059584,6.218936 5.922352,6.216508 5.924983,5.97459 5.923264,5.923265 6.025178,5.91213" style="fill: white" /><polygon type="contour" points="6.498729,6.100077 6.535783,6.100169 6.535783,6.125508 6.535567,6.21959 6.502254,6.219416 6.322775,6.219416 6.322775,6.099979" style="fill: white" /><polygon type="contour" points="6.535567,6.362725 6.535783,6.535785 6.491364,6.535785 6.322634,6.535569 6.322775,6.502256 6.322775,6.322777 6.362723,6.322636 6.535567,6.322636" style="fill: white" /><polygon type="contour" points="8.045424,6.093963 8.046493,6.169311 8.04568,6.219053 8.00205,6.219081 7.683335,6.219009 7.683335,6.219322 7.644251,6.219404 7.401489,6.21959 7.401489,6.19672 7.401705,6.100169 7.448286,6.100182 7.755565,6.100782 7.755565,5.941485 7.755557,5.934462 7.755557,5.925278 7.782728,5.925401 7.792403,5.925673 7.869704,5.925079 8.042992,5.923141" style="fill: white" /><polygon type="contour" points="7.644251,6.322685 7.755601,6.322981 7.755602,6.322789 7.789445,6.322789 8.046387,6.322777 8.046513,6.362725 8.046386,6.535785 7.98493,6.535785 7.6833,6.535519 7.6833,6.535583 7.644251,6.535583 7.401705,6.535785 7.401705,6.491366 7.401489,6.322636" style="fill: white" /><polygon type="contour" points="8.046386,7.401708 8.046224,7.448287 8.046655,7.683336 8.04491,7.683336 8.046592,7.782899 8.045058,7.846793 8.037389,7.941907 8.038129,8.038131 7.839093,8.034989 7.750955,8.046779 7.448285,8.046227 7.401705,8.046389 7.401705,7.984931 7.401297,7.755568 7.401297,7.644253 7.401705,7.401708 7.460249,7.401708 7.6833,7.401298 7.796559,7.401298" style="fill: white" /><polygon type="contour" points="11.729995,7.401707 11.729995,7.460251 11.730404,7.683301 11.730404,7.79656 11.729995,8.046389 11.683415,8.046227 11.448366,8.046656 11.448366,8.044911 11.3488,8.046593 11.09357,8.038131 11.096712,7.839096 11.084921,7.750958 11.085473,7.448287 11.085311,7.401708 11.146768,7.401708 11.376132,7.401299 11.487448,7.401299" style="fill: white" /><polygon type="contour" points="11.339525,5.925639 11.348971,5.925401 11.376143,5.925278 11.376143,5.934462 11.376092,5.957847 11.376092,6.100782 11.683414,6.100182 11.729995,6.100169 11.729995,6.125508 11.730211,6.21959 11.487447,6.219404 11.448366,6.219322 11.448366,6.219026 11.344199,6.219026 11.08597,6.219081 11.085186,6.169583 11.086227,6.094397 11.088651,5.92297" style="fill: white" /><polygon type="contour" points="11.730211,6.362725 11.729995,6.535785 11.671451,6.535785 11.376132,6.535517 11.376132,6.535583 11.335141,6.535583 11.085311,6.535785 11.085187,6.362724 11.085312,6.322777 11.131566,6.322777 11.376097,6.322789 11.376098,6.322981 11.487448,6.322685 11.730211,6.322636" style="fill: white" /><polygon type="contour" points="13.206717,5.97459 13.209349,6.216508 13.072116,6.218936 13.056315,6.21938 13.013641,6.219087 12.912613,6.219087 12.912615,6.118061 12.912613,5.970084 12.912666,5.925154 13.034661,5.925871 13.09455,5.92577 13.208436,5.923265" style="fill: white" /><polygon type="contour" points="12.629446,6.322777 12.808924,6.322777 12.809064,6.362725 12.809064,6.535569 12.768975,6.535569 12.595917,6.535785 12.595917,6.491366 12.596134,6.322636" style="fill: white" /><polygon type="contour" points="12.808924,6.200344 12.808924,6.219416 12.629446,6.219416 12.596134,6.21959 12.596134,6.19672 12.595917,6.100169 12.63297,6.100077 12.808925,6.099979" style="fill: white" /><polygon type="contour" points="13.031625,6.498731 13.031532,6.535785 13.006193,6.535785 12.912111,6.535569 12.912285,6.502256 12.912285,6.322777 13.031724,6.322777" style="fill: white" /><polygon type="contour" points="13.031532,7.401708 13.03152,7.448287 13.030919,7.755566 13.190215,7.755566 13.197239,7.755558 13.206423,7.755558 13.2063,7.782729 13.206028,7.792403 13.208561,8.042994 13.037738,8.045427 12.96239,8.046495 12.912647,8.045682 12.912613,8.001703 12.912689,7.683336 12.91238,7.683336 12.912298,7.644252 12.912112,7.401492 12.934981,7.401492" style="fill: white" /><polygon type="contour" points="12.809016,7.644252 12.808719,7.755602 12.808912,7.755603 12.808912,7.789446 12.808924,8.04639 12.768976,8.046515 12.595917,8.046389 12.595917,7.984931 12.596183,7.683301 12.59612,7.683301 12.59612,7.644252 12.595917,7.401708 12.640334,7.401708 12.809065,7.401492" style="fill: white" /><polygon type="contour" points="13.037307,11.086231 13.208733,11.088653 13.206728,11.262485 13.206062,11.339527 13.2063,11.348974 13.206423,11.376146 13.197239,11.376146 13.173617,11.376132 13.030919,11.376132 13.03152,11.683416 13.031532,11.729996 13.006193,11.729996 12.912112,11.730213 12.912298,11.487451 12.91238,11.448368 12.912672,11.448368 12.912672,11.344009 12.912613,11.086021 12.962117,11.085188" style="fill: white" /><polygon type="contour" points="12.632971,11.085457 12.808924,11.085314 12.808924,11.131568 12.808912,11.3761 12.808719,11.376101 12.809016,11.487451 12.809065,11.730213 12.768977,11.730213 12.595917,11.729996 12.595917,11.671451 12.596185,11.376135 12.59612,11.376135 12.59612,11.335144 12.595917,11.085312" style="fill: white" /><polygon type="contour" points="11.683414,11.085475 11.729995,11.085312 11.729995,11.146768 11.730404,11.376135 11.730404,11.487451 11.729995,11.729996 11.671451,11.729996 11.448399,11.730406 11.33514,11.730406 11.085311,11.729996 11.085473,11.683416 11.085045,11.448368 11.086789,11.448368 11.085107,11.348803 11.09357,11.093571 11.292606,11.096714 11.380742,11.084925" style="fill: white" /><polygon type="contour" points="11.729995,12.640336 11.730211,12.809065 11.487448,12.809019 11.376098,12.808722 11.376097,12.808915 11.342253,12.808915 11.085311,12.808925 11.085187,12.768977 11.085311,12.595919 11.146767,12.595919 11.4484,12.596184 11.4484,12.596121 11.487448,12.596121 11.729995,12.595918" style="fill: white" /><polygon type="contour" points="11.730211,12.934981 11.729995,13.031534 11.683415,13.031522 11.376135,13.030921 11.376135,13.190218 11.376143,13.197242 11.376143,13.206426 11.348971,13.206303 11.339297,13.206031 11.088707,13.208564 11.086274,13.037739 11.085206,12.962391 11.086019,12.912648 11.129649,12.912621 11.448366,12.912694 11.448366,12.912382 11.487447,12.912299 11.730211,12.912112" style="fill: white" /><polygon type="contour" points="12.629446,12.912286 12.808925,12.912287 12.808924,13.012653 12.808924,13.031725 12.63297,13.031627 12.595917,13.031534 12.595917,13.006194 12.596134,12.912112" style="fill: white" /><polygon type="contour" points="12.809064,12.596136 12.808924,12.629447 12.808925,12.808926 12.768978,12.809066 12.596134,12.809065 12.596134,12.768976 12.595917,12.595919 12.640334,12.595919" style="fill: white" /><polygon type="contour" points="13.031625,12.632972 13.031724,12.808925 12.931357,12.808926 12.912286,12.808926 12.912285,12.629446 12.912111,12.596136 12.934979,12.596135 13.031532,12.595919" style="fill: white" /><polygon type="contour" points="13.072115,12.912766 13.209348,12.915195 13.206717,13.157113 13.208436,13.208438 13.106521,13.219574 12.912666,13.206551 12.912666,13.193281 12.912613,13.161619 12.912613,13.013642 12.912615,12.912615 12.954045,12.912322 13.056315,12.912322" style="fill: white" />
</svg>
