<svg width="19.131698" height="19.131699">
<polygon type="contour" points="6.692743,10.575452 6.777803,10.575555 6.919647,10.576177 6.959341,10.575675 6.959341,10.815951 6.959408,10.868512 6.936858,10.868512 6.778418,10.86867 6.68236,10.868773 6.668261,10.868773 6.668688,10.829171 6.668852,10.575028" style="fill: white" /><polygon type="contour" points="6.962291,11.501296 6.962451,11.568125 6.962126,11.675799 6.962126,11.701948 6.843462,11.701948 6.84415,11.568126 6.844297,11.530942 6.844177,11.501296 6.843346,11.31688 6.961569,11.31688" style="fill: white" /><polygon type="contour" points="6.778242,12.17184 6.878895,12.171965 6.959341,12.172358 6.959301,12.353281 6.959325,12.438893 6.959325,12.463397 6.900462,12.462682 6.667207,12.464496 6.669725,12.230023 6.668879,12.171789 6.680568,12.17168 6.683633,12.171555 6.693385,12.171555" style="fill: white" /><polygon type="contour" points="7.630404,12.169408 7.814823,12.170131 7.814823,12.288357 7.630404,12.287524 7.600757,12.287405 7.563576,12.28755 7.429755,12.28824 7.429755,12.169576 7.455903,12.169576 7.563575,12.169249" style="fill: white" /><polygon type="contour" points="8.501307,12.172293 8.556026,12.172359 8.556147,12.353895 8.556593,12.462916 8.532758,12.463261 8.263068,12.463771 8.263169,12.348243 8.263169,12.171943" style="fill: white" /><polygon type="contour" points="8.560095,11.501295 8.560003,11.530943 8.560078,11.568126 8.559781,11.676888 8.559847,11.701948 8.301068,11.701948 8.262813,11.70194 8.262813,11.67474 8.263044,11.568125 8.263202,11.530943 8.263108,11.501296 8.262938,11.36179 8.262938,11.31688 8.559815,11.31688" style="fill: white" /><polygon type="contour" points="7.76991,11.31688 7.814823,11.31688 7.81498,11.501296 7.814874,11.568125 7.814584,11.67474 7.814584,11.70194 7.647191,11.702181 7.563576,11.702181 7.455902,11.701948 7.429755,11.701948 7.429521,11.568126 7.429521,11.484508 7.429762,11.317117 7.563576,11.316826 7.630404,11.316721" style="fill: white" /><polygon type="contour" points="7.773314,10.571964 7.814823,10.571888 7.814823,10.868764 7.630404,10.868594 7.600758,10.8685 7.563575,10.868657 7.456962,10.868889 7.429762,10.868889 7.429762,10.611806 7.429755,10.571856 7.563575,10.571623 7.600758,10.571698 7.630404,10.571607" style="fill: white" /><polygon type="contour" points="8.342388,10.57787 8.550664,10.581037 8.554274,10.718689 8.556254,10.868635 8.263068,10.868635 8.263068,10.575448" style="fill: white" /><polygon type="contour" points="8.553833,8.342391 8.550664,8.550666 8.443152,8.549848 8.431823,8.552459 8.413011,8.554275 8.263068,8.556256 8.263068,8.263069 8.556254,8.263069" style="fill: white" /><polygon type="contour" points="7.563575,8.263045 7.600757,8.263204 7.630405,8.26311 7.76991,8.26294 7.814823,8.26294 7.814823,8.559816 7.630404,8.560095 7.600758,8.560004 7.563575,8.560079 7.454813,8.559782 7.429755,8.559848 7.429755,8.301068 7.429762,8.262815 7.456962,8.262815" style="fill: white" /><polygon type="contour" points="6.692805,8.262952 6.783457,8.263171 6.959757,8.263171 6.959407,8.50131 6.959341,8.556029 6.777804,8.556149 6.668784,8.556594 6.668438,8.532758 6.668261,8.262931 6.682361,8.262931" style="fill: white" /><polygon type="contour" points="6.962126,7.455904 6.962451,7.563578 6.962217,7.563578 6.962291,7.630407 6.961569,7.814824 6.843346,7.814824 6.844177,7.630406 6.844296,7.600761 6.84415,7.563577 6.843462,7.429756 6.962126,7.429756" style="fill: white" /><polygon type="contour" points="6.959341,6.667769 6.959341,6.959342 6.91181,6.95955 6.683633,6.960149 6.680568,6.959976 6.668879,6.959914 6.669725,6.90168 6.667207,6.667208 6.777726,6.666684" style="fill: white" /><polygon type="contour" points="8.30253,6.66869 8.556675,6.668854 8.556252,6.692744 8.556263,6.95955 8.31575,6.959342 8.263189,6.959409 8.263189,6.904795 8.263169,6.783459 8.263068,6.735259 8.262929,6.682363 8.262929,6.668263" style="fill: white" /><polygon type="contour" points="7.814823,6.961571 7.630405,6.962293 7.563575,6.962452 7.455902,6.962128 7.429755,6.962128 7.429755,6.843464 7.563576,6.844153 7.600757,6.844299 7.630404,6.844179 7.814823,6.843348" style="fill: white" /><polygon type="contour" points="7.814583,7.429764 7.814874,7.563578 7.814584,7.597429 7.814823,7.814824 7.630405,7.814983 7.563575,7.814875 7.456962,7.814585 7.429761,7.814585 7.429521,7.647193 7.429521,7.563577 7.429755,7.455905 7.429755,7.429756 7.563575,7.429523 7.647191,7.429523" style="fill: white" /><polygon type="contour" points="8.560078,7.563578 8.560003,7.600761 8.560095,7.630406 8.559739,7.773315 8.559815,7.814824 8.262938,7.814824 8.263108,7.630406 8.263202,7.60076 8.263044,7.563578 8.262813,7.456963 8.262813,7.429764 8.519895,7.429764 8.559847,7.429756" style="fill: white" /><polygon type="contour" points="12.461976,6.90168 12.462821,6.959914 12.451131,6.959976 12.448065,6.960149 12.438313,6.960149 12.353457,6.959863 12.25261,6.959737 12.172357,6.959342 12.172397,6.778419 12.172373,6.692807 12.172373,6.668305 12.231236,6.66902 12.464494,6.667208" style="fill: white" /><polygon type="contour" points="10.868633,8.443045 10.868633,8.556256 10.718688,8.554276 10.699875,8.552459 10.581035,8.550666 10.581852,8.443154 10.579242,8.431825 10.577425,8.413013 10.575446,8.263069 10.869062,8.263069" style="fill: white" /><polygon type="contour" points="10.868887,7.429764 10.868887,7.456962 10.868655,7.563578 10.868498,7.600761 10.868592,7.630406 10.868762,7.769912 10.868887,7.814824 10.571884,7.814824 10.571605,7.630407 10.571696,7.60076 10.571621,7.563578 10.57192,7.454815 10.571854,7.429756 10.830632,7.429756" style="fill: white" /><polygon type="contour" points="10.868532,6.783459 10.868532,6.95976 10.630393,6.959409 10.575673,6.959342 10.575554,6.777806 10.575108,6.668786 10.598942,6.668441 10.868633,6.667931" style="fill: white" /><polygon type="contour" points="11.501295,6.844179 11.530942,6.844299 11.568123,6.844153 11.701946,6.843464 11.701946,6.962128 11.675797,6.962128 11.568124,6.962453 11.568124,6.962219 11.501294,6.962293 11.316878,6.961571 11.316878,6.843348" style="fill: white" /><polygon type="contour" points="11.675797,7.429756 11.701946,7.429756 11.702179,7.563577 11.702179,7.647193 11.701939,7.814585 11.568123,7.814876 11.501295,7.814983 11.361789,7.814824 11.317003,7.814824 11.316719,7.630406 11.316825,7.563577 11.317115,7.456963 11.317115,7.429763 11.484507,7.429523 11.568123,7.429523" style="fill: white" /><polygon type="contour" points="12.287549,7.563577 12.287403,7.600761 12.287522,7.630406 12.288355,7.814824 12.170128,7.814824 12.169407,7.630407 12.169248,7.563578 12.169574,7.455904 12.169574,7.429756 12.288239,7.429756" style="fill: white" /><polygon type="contour" points="12.463011,8.302532 12.462846,8.556677 12.438954,8.556253 12.353893,8.556149 12.212052,8.555526 12.172357,8.556029 12.172357,8.315752 12.172291,8.263192 12.194839,8.263192 12.35328,8.263033 12.449337,8.262931 12.463438,8.262931" style="fill: white" /><polygon type="contour" points="11.701939,8.519897 11.701946,8.559847 11.568124,8.560078 11.530941,8.560004 11.501294,8.560096 11.358386,8.55974 11.316878,8.559816 11.316878,8.315336 11.317003,8.26294 11.501295,8.26311 11.530942,8.263204 11.568124,8.263045 11.674738,8.262815 11.701939,8.262815" style="fill: white" /><polygon type="contour" points="12.46326,10.598946 12.463438,10.868773 12.449336,10.868773 12.438892,10.86875 12.348241,10.868533 12.171941,10.868533 12.172291,10.630394 12.172357,10.575675 12.353894,10.575556 12.462915,10.57511" style="fill: white" /><polygon type="contour" points="10.869062,10.755424 10.869062,10.868635 10.575446,10.868635 10.577424,10.71869 10.579241,10.699877 10.581035,10.581037 10.718688,10.577427 10.868633,10.575448" style="fill: white" /><polygon type="contour" points="11.530941,10.571698 11.568124,10.571623 11.676886,10.571922 11.701946,10.571856 11.701946,10.830635 11.701939,10.868889 11.674739,10.868889 11.568124,10.868657 11.530941,10.8685 11.501294,10.868594 11.361789,10.868764 11.317003,10.868764 11.317003,10.624284 11.316878,10.571887 11.501295,10.571607" style="fill: white" /><polygon type="contour" points="11.675796,12.169576 11.701946,12.169576 11.701946,12.28824 11.568123,12.28755 11.530942,12.287405 11.501295,12.287524 11.316878,12.288357 11.316878,12.170131 11.501294,12.169408 11.568124,12.169249" style="fill: white" /><polygon type="contour" points="10.815949,12.172359 10.868511,12.172293 10.868511,12.226905 10.868532,12.348243 10.868632,12.396443 10.868771,12.449337 10.868771,12.463439 10.829169,12.463011 10.575025,12.462847 10.575449,12.438955 10.575437,12.172153" style="fill: white" /><polygon type="contour" points="10.868592,11.501296 10.868498,11.530942 10.868655,11.568125 10.868887,11.67474 10.868887,11.70194 10.611805,11.70194 10.571854,11.701948 10.571621,11.568126 10.571696,11.530942 10.571605,11.501296 10.571962,11.358387 10.571885,11.31688 10.868886,11.31688" style="fill: white" /><polygon type="contour" points="11.568124,11.316827 11.674738,11.317117 11.701939,11.317117 11.702179,11.484508 11.702179,11.568125 11.701946,11.675799 11.701946,11.701948 11.568124,11.702182 11.484507,11.702182 11.317115,11.70194 11.316825,11.568125 11.31721,11.534276 11.317003,11.31688 11.501295,11.316721" style="fill: white" /><polygon type="contour" points="12.287522,11.501296 12.287403,11.530942 12.287549,11.568126 12.288239,11.701948 12.169574,11.701948 12.169574,11.675799 12.169248,11.568125 12.169406,11.501296 12.170129,11.31688 12.288355,11.31688" style="fill: white" /><polygon type="contour" points="12.451131,12.17168 12.462821,12.171789 12.461976,12.230023 12.464494,12.464496 12.353972,12.46502 12.172357,12.463935 12.172357,12.411487 12.172151,12.172154 12.219889,12.172154 12.448066,12.171555" style="fill: white" />
</svg>
