<svg width="19.131698" height="19.131699">
<polygon type="contour" points="9.579362,9.340721 9.592617,9.34109 9.60329,9.342043 9.624548,9.34492 9.640269,9.346259 9.649408,9.347722 9.662413,9.350866 9.663471,9.35117 9.70825,9.362944 9.749027,9.379 9.751689,9.380118 9.768059,9.42169 9.768868,9.423697 9.769116,9.424698 9.780751,9.468989 9.783224,9.482817 9.787124,9.498871 9.78774,9.507846 9.790318,9.539513 9.791416,9.566004 9.791316,9.567433 9.788958,9.609017 9.787124,9.6325 9.78094,9.661933 9.78084,9.662698 9.769256,9.706991 9.769231,9.707022 9.751684,9.75158 9.750427,9.752145 9.709212,9.768375 9.708892,9.768692 9.708654,9.768678 9.662887,9.780703 9.662339,9.780853 9.64793,9.784292 9.641256,9.785011 9.624072,9.787571 9.610704,9.788478 9.600763,9.789584 9.56742,9.791318 9.565402,9.791417 9.539786,9.790027 9.52841,9.78966 9.516668,9.788191 9.502347,9.787193 9.482537,9.786247 9.477479,9.785235 9.473443,9.781938 9.424806,9.769174 9.42286,9.768525 9.381819,9.752363 9.380082,9.751621 9.379483,9.750393 9.363273,9.709188 9.362832,9.708004 9.351097,9.663318 9.350741,9.6618 9.344203,9.629566 9.340571,9.570158 9.340284,9.566201 9.340481,9.563641 9.343475,9.513149 9.344576,9.499205 9.350759,9.469771 9.351102,9.468381 9.362835,9.423706 9.363647,9.421684 9.380016,9.380124 9.38261,9.378994 9.423372,9.362952 9.468751,9.351025 9.477478,9.346469 9.482538,9.345457 9.502346,9.344511 9.516669,9.34351 9.528409,9.342043 9.539786,9.341675 9.565402,9.340287" style="fill: white" />
</svg>
