<svg width="19.131698" height="19.131699">
<polygon type="contour" points="10.563607,8.518524 10.58018,8.518049 10.614652,8.51705 10.613378,8.55996 10.612717,8.600209 10.612547,8.619439 10.612783,8.807874 10.459471,8.807874 10.323997,8.807706 10.323997,8.798624 10.324288,8.773097 10.325478,8.617603 10.325478,8.574693 10.325498,8.544389 10.32582,8.541589 10.326674,8.516197" style="fill: white" /><polygon type="contour" points="9.047522,9.420602 9.190278,9.420602 9.190278,9.711102 9.047522,9.711102 9.037017,9.711255 9.037017,9.420449" style="fill: white" /><polygon type="contour" points="9.189975,9.094642 9.189975,9.133076 9.190278,9.190281 9.180271,9.190281 9.133073,9.189977 9.094641,9.189977 9.036501,9.190292 9.036501,9.180225 9.036894,9.133076 9.037125,9.095493 9.037017,9.037018 9.047557,9.037018 9.095492,9.037128 9.133073,9.036897 9.190289,9.036502" style="fill: white" /><polygon type="contour" points="8.808151,9.047559 8.808345,9.095492 8.808372,9.133075 8.808217,9.190292 8.795407,9.190281 8.685879,9.190281 8.685871,9.133076 8.685726,9.113995 8.685844,9.095493 8.685834,9.04659 8.685879,9.037018 8.808151,9.037018" style="fill: white" /><polygon type="contour" points="8.806203,8.544388 8.806203,8.571647 8.806223,8.574694 8.807412,8.773097 8.807704,8.807706 8.672228,8.807874 8.518915,8.807874 8.519153,8.619438 8.518982,8.600209 8.518321,8.55996 8.517047,8.51705 8.551519,8.518049 8.568092,8.518524 8.805027,8.516197" style="fill: white" /><polygon type="contour" points="9.133073,8.685872 9.181126,8.685898 9.190278,8.685881 9.190278,8.795409 9.190289,8.808219 9.180223,8.808219 9.133073,8.808374 9.095492,8.808347 9.037017,8.808153 9.037017,8.685881 9.095492,8.685846 9.113993,8.685727" style="fill: white" /><polygon type="contour" points="9.606107,8.518001 9.615736,8.518261 9.711101,8.518719 9.711101,8.773963 9.711207,8.808353 9.420494,8.808353 9.4206,8.799283 9.4206,8.518719 9.515506,8.518261 9.525089,8.518001 9.545108,8.517129 9.565501,8.516765" style="fill: white" /><polygon type="contour" points="10.036206,8.685846 10.085108,8.685836 10.094682,8.685881 10.094682,8.808153 10.08414,8.808153 10.036207,8.808347 9.998626,8.808374 9.941411,8.808219 9.941422,8.795409 9.941422,8.685881 9.998625,8.685873 10.017706,8.685728" style="fill: white" /><polygon type="contour" points="9.711101,9.047524 9.711101,9.190281 9.4206,9.190281 9.4206,9.047524 9.420447,9.037018 9.711254,9.037018" style="fill: white" /><polygon type="contour" points="9.998626,9.036897 10.036206,9.037128 10.094682,9.037018 10.094682,9.123077 10.094573,9.133302 10.094681,9.192205 10.036207,9.190815 9.998625,9.189977 9.941422,9.190281 9.941422,9.180273 9.941726,9.133076 9.941726,9.094642 9.941411,9.036502 9.951476,9.036502" style="fill: white" /><polygon type="contour" points="10.445854,9.095492 10.445974,9.113995 10.445828,9.133075 10.445802,9.181129 10.445819,9.190281 10.336293,9.190281 10.323484,9.190292 10.323484,9.180225 10.323329,9.133075 10.323356,9.095492 10.32355,9.037018 10.445819,9.037018" style="fill: white" /><polygon type="contour" points="10.357737,9.420602 10.613571,9.420602 10.613512,9.433124 10.615589,9.566124 10.613512,9.698518 10.613571,9.711102 10.357737,9.711102 10.323348,9.711208 10.323348,9.420496" style="fill: white" /><polygon type="contour" points="10.612547,10.512264 10.612717,10.531494 10.613378,10.571743 10.614652,10.614654 10.58018,10.613655 10.563612,10.613179 10.326674,10.615507 10.325498,10.587315 10.325498,10.560056 10.325477,10.557009 10.324289,10.358608 10.323997,10.323999 10.459471,10.323829 10.612783,10.323829" style="fill: white" /><polygon type="contour" points="10.036206,10.323358 10.094682,10.323552 10.094682,10.445821 10.036207,10.445856 10.017706,10.445976 9.998626,10.44583 9.950573,10.445804 9.941422,10.445821 9.941422,10.336295 9.941411,10.323486 9.951476,10.323486 9.998626,10.323331" style="fill: white" /><polygon type="contour" points="10.336293,9.941423 10.445819,9.941423 10.445828,9.998627 10.445974,10.017708 10.445855,10.03621 10.445864,10.08511 10.44582,10.094684 10.32355,10.094684 10.32355,10.084142 10.323356,10.036209 10.323329,9.998627 10.323484,9.941412" style="fill: white" /><polygon type="contour" points="10.094682,9.949811 10.094574,9.998401 10.094574,10.036209 10.094682,10.094684 10.08414,10.094684 10.036207,10.094576 9.998399,10.094576 9.939497,10.094684 9.940887,10.03621 9.941726,9.998627 9.941422,9.941423 9.951428,9.941423 9.998625,9.941727 10.036207,9.940888 10.094682,9.939499" style="fill: white" /><polygon type="contour" points="10.094682,9.711255 10.084176,9.711102 9.941422,9.711102 9.941422,9.420602 10.084176,9.420602 10.094682,9.420449" style="fill: white" /><polygon type="contour" points="9.711101,9.711102 9.4206,9.711102 9.4206,9.420602 9.711101,9.420602" style="fill: white" /><polygon type="contour" points="9.711101,10.084178 9.711254,10.094684 9.4206,10.094684 9.4206,9.941423 9.711101,9.941423" style="fill: white" /><polygon type="contour" points="9.711101,10.332418 9.711101,10.612985 9.615736,10.613443 9.606108,10.613702 9.585991,10.614574 9.565577,10.614939 9.525089,10.613703 9.515506,10.613443 9.4206,10.612684 9.4206,10.323349 9.711207,10.323349" style="fill: white" /><polygon type="contour" points="9.190438,10.323486 9.190278,10.336294 9.190278,10.445821 9.133074,10.44583 9.113993,10.445976 9.095491,10.445857 9.04659,10.445866 9.037017,10.445822 9.037017,10.323552 9.047558,10.323552 9.095492,10.323358 9.133073,10.323331" style="fill: white" /><polygon type="contour" points="9.094641,9.941727 9.133073,9.941727 9.190278,9.941423 9.190278,9.951429 9.189975,9.998628 9.189975,10.037061 9.190438,10.095202 9.180222,10.095202 9.133073,10.094807 9.095492,10.094575 9.037017,10.094684 9.0365,10.008891 9.036895,9.998627 9.036501,9.941412" style="fill: white" /><polygon type="contour" points="8.808351,9.711208 8.773961,9.711102 8.518129,9.711102 8.518188,9.698579 8.516109,9.565578 8.518188,9.433186 8.518129,9.420602 8.773961,9.420602 8.808351,9.420496" style="fill: white" /><polygon type="contour" points="8.808217,9.951478 8.808372,9.998627 8.808345,10.036209 8.808151,10.094684 8.685879,10.094684 8.685844,10.036209 8.685725,10.017708 8.685871,9.998628 8.685896,9.950574 8.685879,9.941423 8.795407,9.941423 8.808217,9.941412" style="fill: white" /><polygon type="contour" points="8.807704,10.323999 8.807704,10.33308 8.807412,10.358607 8.806223,10.5141 8.806223,10.55701 8.806203,10.587314 8.80588,10.590112 8.805027,10.615507 8.568087,10.613179 8.551519,10.613655 8.517047,10.614654 8.518321,10.571743 8.518982,10.531494 8.519153,10.512265 8.518915,10.323829 8.672228,10.323829" style="fill: white" />
</svg>
