<svg width="19.131698" height="19.131699">
<polygon type="contour" points="10.290364,8.805718 10.291895,8.9897 10.291743,9.012887 10.278651,9.012701 10.117274,9.014429 10.117274,8.819524 10.117696,8.804753 10.16637,8.804666" style="fill: white" /><polygon type="contour" points="9.014005,8.804753 9.014427,8.819524 9.014427,9.014429 8.853049,9.012702 8.839966,9.012919 8.839806,8.989699 8.841335,8.805719 8.96533,8.804666 8.971319,8.804605" style="fill: white" /><polygon type="contour" points="9.014427,10.31218 9.014005,10.326952 8.96533,10.327039 8.841335,10.325986 8.839806,10.142005 8.840001,10.118817 8.853049,10.119003 9.014427,10.117276" style="fill: white" /><polygon type="contour" points="10.00335,10.003352 9.12835,10.003352 9.12835,9.128352 10.00335,9.128352" style="fill: white" /><polygon type="contour" points="10.278652,10.119003 10.291735,10.118785 10.291895,10.142005 10.290364,10.325986 10.16637,10.327038 10.16038,10.3271 10.117696,10.326952 10.117274,10.31218 10.117274,10.117276" style="fill: white" />
</svg>
