<svg width="19.131698" height="19.131699">
<polygon type="contour" points="11.119249,8.049641 11.119101,8.055684 11.119128,8.285295 10.900599,8.285295 10.846502,8.285198 10.845815,8.121495 10.845815,8.079608 10.846848,8.012228 10.972684,8.013239 11.056751,8.012184 11.099758,8.011706 11.120369,8.011334" style="fill: white" /><polygon type="contour" points="11.119101,11.076019 11.119249,11.082063 11.120369,11.12037 11.099758,11.119999 11.05675,11.119518 10.972684,11.118464 10.846848,11.119476 10.845815,11.052095 10.845815,11.010207 10.846502,10.846505 10.900599,10.846407 11.119128,10.846407" style="fill: white" /><polygon type="contour" points="10.315235,10.663578 10.315235,10.71346 10.264893,10.71346 10.219329,10.713335 10.219333,10.663578 10.219066,10.608653 10.265275,10.608524 10.314946,10.608524" style="fill: white" /><polygon type="contour" points="10.314946,10.896628 10.314946,10.951011 10.271974,10.951177 10.219024,10.951302 10.219329,10.888534 10.219329,10.84594 10.276328,10.84594 10.315235,10.845816" style="fill: white" /><polygon type="contour" points="10.713035,10.845917 10.713035,10.909285 10.713251,10.951367 10.663576,10.951182 10.608523,10.951011 10.60846,10.895698 10.60846,10.845816 10.663577,10.845816" style="fill: white" /><polygon type="contour" points="10.713458,10.663579 10.713251,10.713253 10.650242,10.713253 10.60846,10.71346 10.608523,10.662907 10.608523,10.608524 10.663577,10.608462 10.713458,10.608462" style="fill: white" /><polygon type="contour" points="10.896625,10.608524 10.951009,10.608524 10.951184,10.654682 10.951364,10.713253 10.845943,10.713253 10.845943,10.650244 10.845814,10.608462" style="fill: white" /><polygon type="contour" points="10.951129,10.26554 10.951009,10.314948 10.895696,10.315237 10.845814,10.315237 10.845814,10.264895 10.845939,10.219331 10.907738,10.219026 10.9513,10.219026" style="fill: white" /><polygon type="contour" points="10.663576,10.219336 10.713333,10.219331 10.713333,10.276329 10.713458,10.315237 10.662904,10.314948 10.608523,10.314948 10.608651,10.26554 10.608651,10.219067" style="fill: white" /><polygon type="contour" points="10.314967,10.219068 10.314946,10.265277 10.314946,10.314948 10.265538,10.314969 10.219066,10.314969 10.219066,10.265541 10.219024,10.219026 10.275139,10.219026" style="fill: white" /><polygon type="contour" points="10.08021,10.275139 10.080329,10.314969 9.901782,10.315148 9.740653,10.315148 9.696901,10.314948 9.649552,10.314871 9.649716,10.268745 9.649716,10.21936 9.701987,10.219476 9.740595,10.219234 9.740595,10.21929 9.958817,10.219026 10.08021,10.219026" style="fill: white" /><polygon type="contour" points="8.243167,10.219331 8.285761,10.219331 8.285761,10.276329 8.285885,10.315237 8.234736,10.314948 8.180353,10.314948 8.180138,10.271975 8.1804,10.219026" style="fill: white" /><polygon type="contour" points="8.523178,10.265277 8.523178,10.314948 8.468121,10.315237 8.418241,10.315237 8.418241,10.264895 8.418366,10.219331 8.468121,10.219336 8.52305,10.219068" style="fill: white" /><polygon type="contour" points="8.468795,10.608524 8.523178,10.608524 8.52324,10.663578 8.52324,10.71346 8.468121,10.71346 8.418448,10.713253 8.418448,10.650244 8.418241,10.608462" style="fill: white" /><polygon type="contour" points="8.285885,10.663578 8.285756,10.713253 8.180336,10.713253 8.180519,10.663579 8.180354,10.608524 8.236002,10.608462 8.285885,10.608462" style="fill: white" /><polygon type="contour" points="8.285196,10.846505 8.285884,11.010207 8.285884,11.052096 8.284852,11.119476 8.159015,11.118464 8.074948,11.119519 8.031943,11.119998 8.011332,11.12037 8.012449,11.082064 8.0126,11.076019 8.012572,10.846407 8.231099,10.846407" style="fill: white" /><polygon type="contour" points="8.523178,10.896627 8.523178,10.951011 8.477019,10.951185 8.418448,10.951366 8.418664,10.909285 8.418664,10.845917 8.481614,10.845917 8.52324,10.845816" style="fill: white" /><polygon type="contour" points="8.91237,10.845939 8.912676,10.90774 8.912676,10.951302 8.866162,10.951131 8.816752,10.951011 8.816465,10.895697 8.816465,10.845816 8.866807,10.845816" style="fill: white" /><polygon type="contour" points="8.866161,10.608653 8.912635,10.608653 8.912367,10.663578 8.912371,10.713335 8.866807,10.71346 8.816465,10.71346 8.816752,10.662907 8.816752,10.608524" style="fill: white" /><polygon type="contour" points="8.912676,10.275139 8.912635,10.314969 8.866423,10.314948 8.816752,10.314948 8.816733,10.26554 8.816733,10.219068 8.866161,10.219068 8.912676,10.219026" style="fill: white" /><polygon type="contour" points="8.862956,9.65008 8.912343,9.65008 8.912227,9.702284 8.912468,9.740596 8.912411,9.740596 8.912676,9.95882 8.912676,10.080212 8.856561,10.080212 8.816733,10.080332 8.816555,9.901784 8.816555,9.740654 8.816752,9.696904 8.816828,9.64994" style="fill: white" /><polygon type="contour" points="8.523108,9.702284 8.522795,9.748403 8.52305,9.938541 8.52305,10.080332 8.468122,10.080384 8.418537,10.08048 8.41804,9.881837 8.417938,9.748842 8.418107,9.702284 8.418527,9.650022 8.465537,9.64994 8.523495,9.64994" style="fill: white" /><polygon type="contour" points="8.232446,9.650022 8.285919,9.650022 8.285714,9.702284 8.285501,9.740655 8.285149,9.740655 8.285165,9.882062 8.285279,10.080761 8.104267,10.080782 8.012584,10.080782 8.012866,9.882062 8.013087,9.787693 8.05628,9.787702 8.180238,9.787702 8.180713,9.702285 8.180427,9.64994" style="fill: white" /><polygon type="contour" points="8.031942,8.011705 8.074949,8.012185 8.159015,8.013239 8.284852,8.012228 8.285884,8.079607 8.285884,8.121495 8.285196,8.285198 8.231099,8.285295 8.012572,8.285295 8.0126,8.055684 8.01245,8.049641 8.011332,8.011334" style="fill: white" /><polygon type="contour" points="8.912371,8.418368 8.912367,8.468123 8.912635,8.523052 8.866423,8.52318 8.816752,8.52318 8.816465,8.468123 8.816465,8.418243 8.866807,8.418243" style="fill: white" /><polygon type="contour" points="8.912676,8.180402 8.912371,8.243169 8.912371,8.285762 8.855371,8.285762 8.816465,8.285886 8.816752,8.234739 8.816752,8.180357 8.859724,8.18014" style="fill: white" /><polygon type="contour" points="8.468121,8.180521 8.523178,8.180357 8.52324,8.236005 8.52324,8.285886 8.468122,8.285886 8.418448,8.285757 8.418448,8.180338" style="fill: white" /><polygon type="contour" points="8.285756,8.481459 8.285885,8.523242 8.234736,8.52318 8.180354,8.52318 8.180126,8.47702 8.180336,8.41845 8.285756,8.41845" style="fill: white" /><polygon type="contour" points="8.523178,8.468797 8.523178,8.52318 8.468121,8.523242 8.418241,8.523242 8.418241,8.468123 8.418448,8.41845 8.481458,8.41845 8.52324,8.418243" style="fill: white" /><polygon type="contour" points="8.48019,9.051282 8.52305,9.051373 8.522848,9.229919 8.522848,9.391049 8.523177,9.434797 8.523495,9.482149 8.471998,9.482039 8.418527,9.482039 8.418107,9.429714 8.417938,9.382809 8.41804,9.249865 8.418537,9.051225" style="fill: white" /><polygon type="contour" points="8.175918,9.050944 8.285196,9.051138 8.285099,9.250247 8.285183,9.391049 8.285501,9.391049 8.285699,9.445509 8.285919,9.482039 8.238382,9.482149 8.180427,9.482149 8.180713,9.429715 8.18024,9.344002 8.012966,9.344002 8.012866,9.249641 8.012584,9.050922" style="fill: white" /><polygon type="contour" points="8.285885,8.866808 8.285761,8.912373 8.223962,8.912677 8.1804,8.912677 8.180571,8.866164 8.180354,8.816755 8.236002,8.816467 8.285885,8.816467" style="fill: white" /><polygon type="contour" points="8.468795,8.816755 8.523178,8.816755 8.52305,8.866163 8.52305,8.912637 8.468121,8.912368 8.418366,8.912373 8.418366,8.855374 8.418241,8.816467" style="fill: white" /><polygon type="contour" points="8.912635,8.866164 8.912676,8.912677 8.85656,8.912677 8.816733,8.912637 8.816752,8.866426 8.816752,8.816755 8.866161,8.816735 8.912635,8.816735" style="fill: white" /><polygon type="contour" points="8.912676,9.051492 8.912468,9.248958 8.912468,9.391107 8.912676,9.444055 8.912344,9.481987 8.869375,9.482149 8.816828,9.482149 8.816622,9.429714 8.816521,9.372192 8.816733,9.193162 8.816733,9.051373 8.866161,9.051373" style="fill: white" /><polygon type="contour" points="9.359409,9.050829 9.444602,9.05142 9.481622,9.051427 9.481509,9.220305 9.481509,9.391209 9.481761,9.431921 9.481761,9.482149 9.429416,9.481807 9.344111,9.481807 9.203216,9.481987 9.051426,9.481987 9.051109,9.429714 9.050798,9.35842 9.051134,9.170506 9.050994,9.050995 9.249638,9.050717" style="fill: white" /><polygon type="contour" points="9.434796,8.816755 9.481761,8.81683 9.481622,8.862958 9.481622,8.912345 9.429417,8.912229 9.391106,8.91247 9.391106,8.912413 9.172882,8.912677 9.051491,8.912677 9.051491,8.856563 9.051372,8.816735 9.229917,8.816556 9.391046,8.816556" style="fill: white" /><polygon type="contour" points="9.445505,8.417462 9.48168,8.418529 9.481761,8.46554 9.481761,8.523496 9.429417,8.523109 9.383259,8.522795 9.19316,8.523052 9.051372,8.523052 9.051479,8.480282 9.051416,8.41845 9.25047,8.41797 9.391046,8.41797 9.391046,8.417178" style="fill: white" /><polygon type="contour" points="9.342848,8.011252 9.344042,8.123111 9.344042,8.180241 9.429416,8.180714 9.481761,8.180429 9.48168,8.232449 9.48168,8.285921 9.429416,8.285716 9.391046,8.285503 9.391046,8.285075 9.168153,8.285198 9.051136,8.285198 9.051193,8.222776 9.051193,8.123918 9.051157,8.06971 9.051157,8.012622 9.295847,8.010179" style="fill: white" /><polygon type="contour" points="9.975375,8.013095 10.080675,8.012592 10.080675,8.039308 10.080617,8.103768 10.080565,8.285198 9.881453,8.285101 9.740654,8.285101 9.740654,8.285502 9.701987,8.285716 9.649664,8.285921 9.649552,8.238386 9.649552,8.180429 9.701987,8.180714 9.787718,8.180242 9.787657,8.123112 9.788852,8.011252" style="fill: white" /><polygon type="contour" points="9.963268,8.41845 10.080284,8.41845 10.080221,8.480282 10.080329,8.523052 9.901781,8.522848 9.740653,8.522848 9.696902,8.523179 9.649552,8.523495 9.649664,8.471999 9.649664,8.418529 9.701988,8.418109 9.760916,8.417897" style="fill: white" /><polygon type="contour" points="10.315145,9.229919 10.315145,9.391048 10.314946,9.434797 10.31487,9.482149 10.268742,9.481987 10.219357,9.481987 10.219473,9.429714 10.219232,9.391108 10.219288,9.391108 10.219024,9.172884 10.219024,9.051492 10.275138,9.051492 10.314967,9.051373" style="fill: white" /><polygon type="contour" points="9.961195,9.051135 10.080707,9.050995 10.080986,9.24964 10.080863,9.36739 10.080591,9.429714 10.080275,9.481987 9.911396,9.481807 9.740493,9.481807 9.69978,9.482149 9.649552,9.482149 9.649896,9.429715 9.649896,9.344114 9.649716,9.203218 9.649716,9.051427 9.701987,9.051111 9.773104,9.050799" style="fill: white" /><polygon type="contour" points="9.93854,8.816735 10.080329,8.816735 10.08021,8.856563 10.08021,8.912677 9.882744,8.91247 9.740594,8.91247 9.687645,8.912677 9.649716,8.912345 9.649552,8.869377 9.649552,8.81683 9.701988,8.816624 9.759408,8.816522" style="fill: white" /><polygon type="contour" points="10.265275,8.816755 10.314946,8.816755 10.314967,8.866163 10.314967,8.912637 10.265538,8.912637 10.219024,8.912677 10.219024,8.856562 10.219065,8.816735" style="fill: white" /><polygon type="contour" points="10.314946,8.468797 10.314946,8.52318 10.265537,8.523052 10.219066,8.523052 10.219334,8.468123 10.219329,8.418368 10.264893,8.418243 10.315235,8.418243" style="fill: white" /><polygon type="contour" points="10.315235,8.236005 10.315235,8.285886 10.264893,8.285886 10.219329,8.285762 10.219024,8.223963 10.219024,8.180403 10.265538,8.180573 10.314946,8.180357" style="fill: white" /><polygon type="contour" points="10.713251,8.180338 10.713035,8.222418 10.713035,8.285786 10.650086,8.285786 10.60846,8.285886 10.608523,8.234738 10.608523,8.180357 10.654682,8.180128" style="fill: white" /><polygon type="contour" points="10.713251,8.41845 10.713251,8.481459 10.713458,8.523242 10.662905,8.52318 10.608523,8.52318 10.60846,8.468123 10.60846,8.418243 10.663577,8.418243" style="fill: white" /><polygon type="contour" points="10.951181,8.468123 10.951009,8.52318 10.895696,8.523242 10.845814,8.523242 10.845814,8.468123 10.845943,8.41845 10.951364,8.41845" style="fill: white" /><polygon type="contour" points="10.896625,8.816755 10.951009,8.816755 10.951176,8.859727 10.9513,8.912677 10.888532,8.912373 10.845939,8.912373 10.845939,8.855374 10.845814,8.816467" style="fill: white" /><polygon type="contour" points="10.713458,8.866808 10.713333,8.912373 10.663576,8.912368 10.608651,8.912637 10.608523,8.866425 10.608523,8.816755 10.663577,8.816467 10.713458,8.816467" style="fill: white" /><polygon type="contour" points="10.713251,9.051418 10.713731,9.250472 10.713731,9.391049 10.714523,9.391049 10.713592,9.429715 10.713172,9.482039 10.666162,9.482149 10.608206,9.482149 10.608591,9.429715 10.608905,9.383275 10.608651,9.193161 10.608651,9.051373 10.663577,9.051321" style="fill: white" /><polygon type="contour" points="11.118833,9.249641 11.118613,9.344011 10.951461,9.344011 10.950987,9.429715 10.95096,9.482149 10.899251,9.482039 10.84578,9.482039 10.845986,9.429715 10.84613,9.391119 10.8465,9.391119 10.8466,9.250248 10.846503,9.051138 11.027933,9.051085 11.119116,9.050922" style="fill: white" /><polygon type="contour" points="10.950987,9.702285 10.951463,9.787702 11.118734,9.787702 11.118833,9.882062 11.119116,10.080782 10.95578,10.080761 10.846503,10.080566 10.8466,9.881455 10.846516,9.740585 10.84613,9.740585 10.845915,9.68626 10.84578,9.650022 10.893002,9.64994 10.95096,9.64994" style="fill: white" /><polygon type="contour" points="10.659699,9.650022 10.713172,9.650022 10.713593,9.702285 10.714523,9.740655 10.713766,9.740655 10.713659,9.881837 10.713162,10.08048 10.651509,10.080422 10.608651,10.080331 10.608853,9.901783 10.608853,9.740654 10.608522,9.696904 10.608206,9.64994" style="fill: white" /><polygon type="contour" points="10.315075,9.702284 10.315178,9.75926 10.314967,9.938541 10.314967,10.080332 10.265537,10.080332 10.219024,10.080212 10.219232,9.882745 10.219232,9.740596 10.219024,9.687647 10.219356,9.65008 10.262324,9.64994 10.31487,9.64994" style="fill: white" /><polygon type="contour" points="9.701988,9.650194 9.787587,9.650194 9.928481,9.65008 10.080275,9.65008 10.080591,9.702285 10.080903,9.773105 10.080567,9.961197 10.080707,10.08071 9.882062,10.080988 9.76431,10.080865 9.701987,10.080592 9.649716,10.080277 9.649896,9.911398 9.649896,9.740494 9.649552,9.699782 9.649552,9.64994" style="fill: white" /><polygon type="contour" points="9.481509,9.702284 9.481509,9.787587 9.481622,9.928483 9.481622,10.080277 9.429416,10.080593 9.35861,10.080905 9.170504,10.08057 9.050994,10.08071 9.050715,9.882062 9.050827,9.772192 9.051419,9.687099 9.051426,9.65008 9.220302,9.650194 9.391207,9.650194 9.431918,9.64994 9.481761,9.64994" style="fill: white" /><polygon type="contour" points="9.481622,10.219359 9.481761,10.262326 9.481761,10.314871 9.429417,10.315078 9.372539,10.315181 9.19316,10.314969 9.051372,10.314969 9.051491,10.275139 9.051491,10.219026 9.248956,10.219234 9.391105,10.219234 9.444054,10.219026" style="fill: white" /><polygon type="contour" points="9.701987,10.608594 9.748458,10.608908 9.93854,10.608653 10.080329,10.608653 10.080221,10.651422 10.080284,10.713253 9.88123,10.713732 9.740653,10.713732 9.740653,10.714524 9.686194,10.714241 9.649664,10.713174 9.649552,10.666164 9.649552,10.608208" style="fill: white" /><polygon type="contour" points="9.48168,10.659703 9.48168,10.713174 9.429416,10.713595 9.370728,10.713804 9.168432,10.713253 9.051416,10.713253 9.051479,10.651422 9.051372,10.608653 9.229918,10.608856 9.391046,10.608856 9.434797,10.608523 9.481761,10.608207" style="fill: white" /><polygon type="contour" points="9.481761,10.893004 9.481761,10.950962 9.429416,10.950989 9.343981,10.951465 9.344042,11.008591 9.342848,11.120453 9.156324,11.118609 9.051026,11.119112 9.051026,11.092395 9.051083,11.027935 9.051136,10.846505 9.250246,10.846603 9.391117,10.846603 9.391117,10.846132 9.445441,10.845917 9.48168,10.845782" style="fill: white" /><polygon type="contour" points="9.701987,10.845986 9.740654,10.846201 9.740654,10.846629 9.963548,10.846505 10.080565,10.846505 10.080508,10.908927 10.080508,11.007785 10.080544,11.061992 10.080544,11.119082 9.835853,11.121525 9.788852,11.120453 9.787658,11.008592 9.787658,10.951463 9.701987,10.950988 9.649552,10.950962 9.649664,10.899253 9.649664,10.845781" style="fill: white" />
</svg>
