<svg width="19.131698" height="19.131699">
<polygon type="contour" points="16.327695,17.894586 16.33981,17.894586 16.339617,17.997434 16.339617,18.210765 16.33981,18.245842 16.33981,18.2547 16.328962,18.254705 16.190452,18.254781 16.190452,18.344811 16.190389,18.439512 16.190387,18.440666 16.190379,18.442794 16.190379,18.443319 16.19038,18.443443 16.190379,18.443455 16.190379,18.44508 15.874397,18.445824 15.857925,18.445824 15.857915,18.440229 15.857903,18.437402 15.857903,18.350549 15.745257,18.35047 15.31556,18.35047 15.317144,18.264049 15.331985,18.16659 15.334168,17.997433 15.331322,17.916082 15.331752,17.894538 15.777911,17.894406 16.236804,17.894406" style="fill: white" /><polygon type="contour" points="18.254882,17.997433 18.254882,18.112082 18.38646,18.112082 18.439722,18.111893 18.440797,18.11189 18.443488,18.111878 18.445078,18.111878 18.445078,18.11355 18.44581,18.441743 18.44581,18.445812 18.428148,18.445832 18.428042,18.445814 18.111876,18.44508 18.111883,18.443542 18.111878,18.443461 18.11188,18.442853 18.11188,18.442594 18.111888,18.440799 18.111891,18.439724 18.11208,18.386462 18.11208,18.254884 17.997429,18.254884 17.894582,18.2547 17.89471,18.210765 17.89471,17.997433 17.894582,17.894586 17.997429,17.894712 18.210764,17.894712 18.245839,17.894586 18.254698,17.894586" style="fill: white" /><polygon type="contour" points="18.350312,15.557021 18.350572,15.736296 18.350603,15.805213 18.35061,15.857903 18.4374,15.857903 18.440228,15.857915 18.44035,15.857917 18.445822,15.857925 18.445822,15.874397 18.445078,16.190381 18.444283,16.190378 18.443442,16.190382 18.443135,16.190379 18.440664,16.190389 18.43951,16.190391 18.344809,16.190455 18.254776,16.190455 18.254698,16.339812 18.210764,16.339619 17.99743,16.339619 17.894582,16.339812 17.894404,16.236807 17.894404,15.777913 17.894582,15.372305 17.894582,15.331792 17.916078,15.331323 17.99743,15.33417 18.166585,15.331987 18.350312,15.329414" style="fill: white" /><polygon type="contour" points="16.339837,15.331753 16.339732,15.777914 16.339732,16.236808 16.33981,16.327696 16.33981,16.339812 16.236805,16.339733 15.77791,16.339733 15.331752,16.339839 15.334485,16.236808 15.333692,16.086407 15.334075,16.045382 15.334704,15.61231 15.33299,15.353352 15.334096,15.334098 15.612308,15.334706 16.045377,15.334078 16.086404,15.333695 16.236804,15.334487 16.327148,15.331471" style="fill: white" /><polygon type="contour" points="18.254704,2.80274 18.254776,2.941249 18.34481,2.941249 18.439509,2.941312 18.440664,2.941315 18.442792,2.941324 18.443317,2.941324 18.443441,2.941323 18.443453,2.941324 18.445078,2.941324 18.445822,3.257306 18.445822,3.273778 18.440227,3.273789 18.4374,3.273801 18.350701,3.273801 18.350466,3.386444 18.350466,3.816142 18.166586,3.799716 17.99743,3.797535 17.916077,3.800337 17.894534,3.799952 17.894404,3.35379 17.894404,2.894895 17.894582,2.804008 17.894582,2.791893 17.99743,2.792086 18.210763,2.792086 18.24584,2.791893 18.254697,2.791893" style="fill: white" /><polygon type="contour" points="18.44581,0.685891 18.44581,0.68996 18.445078,1.018152 18.445078,1.019825 18.443564,1.019819 18.44346,1.019823 18.442851,1.019822 18.442591,1.019822 18.440798,1.019813 18.439721,1.01981 18.38646,1.019622 18.254882,1.019622 18.254882,1.134269 18.254698,1.237117 18.210763,1.236991 17.997429,1.236991 17.894582,1.237117 17.89471,1.13427 17.89471,0.920938 17.894582,0.885861 17.894582,0.877004 17.99743,0.876821 18.11208,0.876821 18.11208,0.745242 18.111891,0.691979 18.111888,0.690904 18.111876,0.688211 18.111876,0.686623 18.428041,0.685891 18.428147,0.685873" style="fill: white" /><polygon type="contour" points="16.190379,0.686623 16.190376,0.687416 16.19038,0.68826 16.190377,0.688565 16.190388,0.691038 16.19039,0.692191 16.190452,0.786891 16.190452,0.876924 16.33981,0.877004 16.339617,0.920937 16.339617,1.134269 16.33981,1.237117 16.236805,1.237297 15.777911,1.237297 15.372303,1.237117 15.33179,1.237117 15.331321,1.215622 15.334168,1.13427 15.331985,0.965113 15.317144,0.867654 15.31556,0.781234 15.745258,0.781234 15.857903,0.781153 15.857903,0.694301 15.857915,0.691473 15.857917,0.691351 15.857925,0.68588 15.874397,0.68588" style="fill: white" /><polygon type="contour" points="15.777911,2.79197 16.236805,2.79197 16.327694,2.791893 16.33981,2.791893 16.339732,2.894895 16.339732,3.35379 16.339837,3.799952 16.236805,3.797218 16.086403,3.798009 16.045378,3.797626 15.612307,3.796996 15.358373,3.79787 15.334096,3.797603 15.334704,3.519391 15.334075,3.086322 15.333692,3.045295 15.334485,2.894895 15.331469,2.804554 15.331752,2.791865" style="fill: white" /><polygon type="contour" points="3.797215,2.894896 3.798008,3.045294 3.797625,3.086322 3.796995,3.51939 3.798708,3.778348 3.797603,3.797604 3.51939,3.796996 3.08632,3.797626 3.045292,3.798009 2.894893,3.797218 2.804553,3.800235 2.791863,3.799952 2.791969,3.353791 2.791969,2.894895 2.791891,2.804008 2.791891,2.791893 2.894894,2.79197 3.353788,2.79197 3.79995,2.791865" style="fill: white" /><polygon type="contour" points="3.273787,0.691474 3.273799,0.694301 3.273799,0.781088 3.326487,0.781099 3.395404,0.781128 3.574682,0.781388 3.802289,0.781388 3.799715,0.965113 3.797533,1.134269 3.800335,1.215622 3.79995,1.237166 3.353788,1.237297 2.894893,1.237297 2.804006,1.237117 2.791891,1.237117 2.792084,1.134269 2.792084,0.920938 2.791891,0.885861 2.791891,0.877004 2.802738,0.876998 2.941247,0.876924 2.941247,0.78689 2.94131,0.692192 2.941314,0.691039 2.941321,0.689144 2.941325,0.688882 2.941322,0.688261 2.941323,0.688245 2.941323,0.686623 3.257304,0.68588 3.273776,0.68588" style="fill: white" /><polygon type="contour" points="0.703657,0.685891 1.019824,0.686624 1.019821,0.687218 1.019821,0.688849 1.019819,0.689109 1.019812,0.690904 1.019809,0.691979 1.019621,0.745242 1.019621,0.876821 1.134267,0.876821 1.237115,0.877004 1.236989,0.920938 1.236989,1.13427 1.237115,1.237117 1.134268,1.236991 0.920935,1.236991 0.88586,1.237117 0.877002,1.237117 0.87682,1.134269 0.87682,1.019622 0.74524,1.019622 0.691979,1.01981 0.690901,1.019813 0.688509,1.019825 0.686621,1.019825 0.686622,1.018152 0.685889,0.68996 0.685889,0.685891 0.703552,0.685873" style="fill: white" /><polygon type="contour" points="1.237295,2.894895 1.237295,3.35379 1.237115,3.759401 1.237115,3.799913 1.21562,3.800336 1.134267,3.797535 0.965111,3.799716 0.781232,3.816142 0.781232,3.386443 0.780995,3.273801 0.694301,3.273801 0.691472,3.273789 0.691351,3.273787 0.685878,3.273778 0.685878,3.257306 0.686622,2.941324 0.687415,2.941327 0.688258,2.941323 0.688564,2.941325 0.691036,2.941315 0.69219,2.941312 0.786889,2.941249 0.876922,2.941249 0.877002,2.791893 0.920935,2.792086 1.134267,2.792086 1.237115,2.791893" style="fill: white" /><polygon type="contour" points="0.965112,15.331987 1.134267,15.33417 1.21562,15.331323 1.237164,15.331753 1.237295,15.777913 1.237295,16.236807 1.237115,16.327696 1.237115,16.339812 1.134267,16.339619 0.920936,16.339619 0.885859,16.339812 0.877002,16.339812 0.876996,16.328964 0.876922,16.190455 0.78689,16.190455 0.692189,16.190392 0.691036,16.190389 0.688907,16.190381 0.688383,16.190381 0.688258,16.190382 0.688247,16.190381 0.686622,16.190381 0.685878,15.874397 0.685878,15.857925 0.691471,15.857915 0.694301,15.857903 0.781086,15.857903 0.781097,15.805214 0.781127,15.736297 0.781386,15.55702 0.781386,15.329414" style="fill: white" /><polygon type="contour" points="2.894894,15.334487 3.045292,15.333695 3.08632,15.334078 3.519389,15.334706 3.773324,15.333807 3.797603,15.334098 3.796995,15.61231 3.797625,16.045382 3.798008,16.086408 3.797215,16.236807 3.800232,16.327149 3.799949,16.339839 3.353789,16.339733 2.894893,16.339733 2.804005,16.339812 2.79189,16.339812 2.791968,16.236808 2.791969,15.777913 2.791863,15.331753" style="fill: white" /><polygon type="contour" points="3.759399,17.894586 3.79991,17.894586 3.800334,17.916081 3.797533,17.997434 3.799715,18.16659 3.802289,18.350316 3.574682,18.350316 3.395404,18.350574 3.326487,18.350604 3.273799,18.35061 3.273799,18.437402 3.273787,18.440229 3.273785,18.440351 3.273776,18.445824 3.257304,18.445824 2.941323,18.445079 2.941325,18.444285 2.941322,18.443443 2.941325,18.442822 2.941321,18.442558 2.941313,18.440665 2.94131,18.439511 2.941247,18.344812 2.941247,18.254781 2.791891,18.2547 2.792084,18.210766 2.792084,17.997434 2.791891,17.894586 2.894894,17.894406 3.353788,17.894406" style="fill: white" /><polygon type="contour" points="1.236989,17.997433 1.236989,18.210766 1.237115,18.245841 1.237115,18.2547 1.134268,18.254884 1.019621,18.254884 1.019621,18.386462 1.019808,18.439723 1.019811,18.440799 1.01982,18.442594 1.019821,18.442872 1.019824,18.44508 0.703657,18.445814 0.703552,18.445832 0.685889,18.445812 0.685889,18.441743 0.686622,18.11355 0.686621,18.111878 0.688162,18.111885 0.688239,18.111879 0.688848,18.111882 0.689107,18.111882 0.690902,18.11189 0.691978,18.111893 0.74524,18.112082 0.87682,18.112082 0.87682,17.997433 0.877002,17.894586 0.920936,17.894712 1.134268,17.894712 1.237115,17.894586" style="fill: white" />
</svg>
