<svg width="19.131698" height="19.131699">
<polygon type="contour" points="7.920484,8.528127 7.924374,8.528127 7.924475,8.584796 7.924615,8.83332 7.924615,8.930823 7.924374,9.027969 7.924374,9.032622 7.878789,9.032586 7.762673,9.032586 7.715104,9.032603 7.710978,9.032603 7.710961,9.028632 7.711233,8.909028 7.559832,8.909028 7.542524,8.909007 7.542794,8.64348 7.542824,8.615388 7.551395,8.615356 7.576805,8.615307 7.711513,8.615307 7.710967,8.528127 7.762674,8.527957 7.87879,8.527957" style="fill: white" /><polygon type="contour" points="7.685034,7.532155 7.82669,7.542908 7.832137,7.542922 7.832307,7.558599 7.832184,7.591301 7.832184,7.711205 7.924374,7.710969 7.924417,7.762677 7.924417,7.878792 7.924374,7.920486 7.924374,7.924376 7.878789,7.924419 7.762674,7.924419 7.715262,7.924376 7.710967,7.924376 7.710959,7.921046 7.711218,7.832591 7.626893,7.831884 7.550504,7.830963 7.550239,7.830897 7.541221,7.830827 7.541244,7.802363 7.530944,7.530946" style="fill: white" /><polygon type="contour" points="8.908476,7.541848 8.908179,7.618292 8.909017,7.625489 8.909017,7.711235 9.02863,7.710963 9.032577,7.710981 9.032585,7.762676 9.032585,7.878791 9.032577,7.920598 9.032619,7.924376 8.930821,7.924616 8.833318,7.924616 8.584795,7.924479 8.531557,7.924376 8.528126,7.924376 8.527955,7.878791 8.527955,7.762677 8.528126,7.715264 8.528126,7.710969 8.53111,7.710961 8.615306,7.711531 8.615306,7.576806 8.615388,7.542825 8.64348,7.542796 8.880295,7.541755" style="fill: white" /><polygon type="contour" points="9.027967,8.528127 9.03262,8.528127 9.031989,8.584796 9.032681,8.83332 9.032681,8.930822 9.032577,9.028109 9.032577,9.032603 8.93082,9.032683 8.833318,9.032683 8.584795,9.03199 8.531453,9.032603 8.528125,9.032622 8.527738,8.930823 8.528015,8.776897 8.528015,8.584796 8.528126,8.531558 8.528126,8.528127 8.584796,8.528017 8.776895,8.528017 8.930821,8.527739" style="fill: white" /><polygon type="contour" points="11.416437,8.528127 11.420734,8.528127 11.420742,8.531111 11.420171,8.615307 11.554894,8.615307 11.588876,8.615388 11.589166,8.899965 11.589175,8.909007 11.58568,8.908992 11.571866,8.909028 11.420466,8.909028 11.42074,9.028632 11.420722,9.032603 11.369026,9.032586 11.252908,9.032586 11.211103,9.032602 11.207325,9.032622 11.207085,8.930823 11.207085,8.83332 11.207224,8.584796 11.207325,8.531558 11.207325,8.528127 11.252908,8.527957 11.369026,8.527957" style="fill: white" /><polygon type="contour" points="11.600592,7.680501 11.590483,7.830823 11.581194,7.830962 11.504806,7.831884 11.420498,7.832591 11.420734,7.924376 11.369025,7.924419 11.252908,7.924419 11.211214,7.924376 11.207325,7.924376 11.207282,7.878791 11.207282,7.762677 11.207325,7.715264 11.207325,7.710969 11.210654,7.710961 11.299516,7.711223 11.299516,7.5913 11.299562,7.542923 11.305008,7.542909 11.600755,7.530946" style="fill: white" /><polygon type="contour" points="10.488221,7.542796 10.516313,7.542825 10.516344,7.551396 10.516395,7.576807 10.516395,7.711516 10.603575,7.710969 10.603745,7.762677 10.603745,7.878792 10.603575,7.920486 10.603575,7.924376 10.546905,7.924479 10.298381,7.924616 10.200878,7.924616 10.103733,7.924376 10.099081,7.924376 10.099116,7.878792 10.099116,7.762677 10.0991,7.715106 10.0991,7.710981 10.10307,7.710963 10.222671,7.711235 10.222683,7.625488 10.223224,7.541848" style="fill: white" /><polygon type="contour" points="10.354805,8.528017 10.546904,8.528017 10.600144,8.528127 10.603575,8.528127 10.603685,8.584796 10.603685,8.776896 10.603963,8.930823 10.603575,9.027969 10.603575,9.032622 10.546905,9.03199 10.298382,9.032683 10.200879,9.032683 10.103593,9.032603 10.0991,9.032603 10.09902,8.930822 10.09902,8.83332 10.099712,8.584797 10.0991,8.531454 10.099081,8.528127 10.200878,8.527739" style="fill: white" /><polygon type="contour" points="10.546904,10.099715 10.600248,10.099125 10.603575,10.099083 10.603963,10.20088 10.603685,10.354807 10.603685,10.546906 10.603575,10.600146 10.603575,10.603577 10.546904,10.603687 10.354805,10.603687 10.200878,10.603965 10.103733,10.603577 10.099081,10.603577 10.099712,10.546907 10.09902,10.298383 10.09902,10.200881 10.0991,10.103595 10.0991,10.099126 10.200879,10.099022 10.298382,10.099022" style="fill: white" /><polygon type="contour" points="11.252908,10.099118 11.369026,10.099118 11.416596,10.099126 11.420722,10.099126 11.42074,10.103072 11.420466,10.222676 11.571866,10.222676 11.58568,10.222712 11.589176,10.222697 11.588906,10.488223 11.588876,10.516316 11.580306,10.516347 11.554894,10.516397 11.420186,10.516397 11.420734,10.603577 11.369025,10.603747 11.252908,10.603747 11.211214,10.603577 11.207325,10.603577 11.207224,10.546906 11.207085,10.298383 11.207085,10.20088 11.207325,10.103735 11.207325,10.099083" style="fill: white" /><polygon type="contour" points="11.416437,11.207326 11.420734,11.207326 11.420742,11.210655 11.42048,11.299109 11.504806,11.29982 11.581194,11.300741 11.58146,11.300806 11.590477,11.300876 11.590455,11.32934 11.600756,11.600758 11.446666,11.599549 11.305009,11.588796 11.299562,11.588782 11.299392,11.573105 11.299516,11.540402 11.299516,11.420498 11.207325,11.420735 11.207282,11.369026 11.207282,11.252909 11.207325,11.211215 11.207325,11.207326 11.252909,11.207284 11.369026,11.207284" style="fill: white" /><polygon type="contour" points="10.546905,11.207225 10.600143,11.207326 10.603575,11.207326 10.603745,11.252909 10.603745,11.369027 10.603575,11.416438 10.603575,11.420735 10.600589,11.420743 10.516395,11.420173 10.516395,11.554897 10.516313,11.588879 10.488221,11.588908 10.251404,11.589949 10.223224,11.589855 10.223521,11.513411 10.222683,11.506214 10.222683,11.420468 10.10307,11.420741 10.0991,11.420723 10.099116,11.369027 10.099116,11.25291 10.0991,11.211103 10.099081,11.207326 10.200878,11.207087 10.298381,11.207087" style="fill: white" /><polygon type="contour" points="9.027967,11.207326 9.03262,11.207326 9.032585,11.252909 9.032585,11.369027 9.032577,11.416597 9.032577,11.420723 9.02863,11.420741 8.909028,11.420468 8.909016,11.506215 8.908476,11.589856 8.643479,11.588908 8.615388,11.588879 8.615357,11.580309 8.615306,11.554896 8.615306,11.420188 8.528126,11.420735 8.527955,11.369026 8.527955,11.25291 8.528126,11.211214 8.528126,11.207326 8.584795,11.207225 8.833318,11.207087 8.930821,11.207087" style="fill: white" /><polygon type="contour" points="9.028107,10.099126 9.032577,10.099126 9.032681,10.200881 9.032681,10.298383 9.031989,10.546906 9.032577,10.60025 9.03262,10.603577 8.930821,10.603965 8.776895,10.603687 8.584796,10.603687 8.531556,10.603577 8.528126,10.603577 8.528015,10.546906 8.528015,10.354806 8.527737,10.20088 8.528126,10.103735 8.528126,10.099083 8.584795,10.099715 8.833318,10.099022 8.93082,10.099022" style="fill: white" /><polygon type="contour" points="7.924615,10.20088 7.924615,10.298383 7.924475,10.546906 7.924374,10.600146 7.924374,10.603577 7.87879,10.603747 7.762673,10.603747 7.715263,10.603577 7.710967,10.603577 7.710959,10.600591 7.711528,10.516397 7.576805,10.516397 7.542824,10.516316 7.542533,10.231738 7.542524,10.222697 7.546019,10.222712 7.559833,10.222676 7.711233,10.222676 7.710961,10.103071 7.710978,10.099126 7.762673,10.099118 7.878789,10.099118 7.920596,10.099126 7.924374,10.099083" style="fill: white" /><polygon type="contour" points="7.920484,11.207326 7.924374,11.207326 7.924417,11.252909 7.924417,11.369026 7.924374,11.416439 7.924374,11.420735 7.921044,11.420743 7.832184,11.42048 7.832184,11.540402 7.832137,11.588782 7.82669,11.588796 7.530944,11.600758 7.531108,11.451202 7.541215,11.300881 7.550503,11.300741 7.626893,11.29982 7.7112,11.299109 7.710966,11.207326 7.762674,11.207284 7.87879,11.207284" style="fill: white" />
</svg>
