<svg width="19.131698" height="19.131699">
<polygon type="contour" points="10.490641,8.460424 10.672092,8.459609 10.671593,8.592049 10.671539,8.744371 10.604563,8.744371 10.443774,8.744537 10.387165,8.744537 10.387165,8.721276 10.386858,8.531219 10.386688,8.526955 10.386688,8.493743 10.387994,8.459137" style="fill: white" /><polygon type="contour" points="10.674592,9.482571 10.674191,9.566202 10.674592,9.649429 10.675532,9.711102 10.386605,9.711102 10.386605,9.420602 10.675532,9.420602" style="fill: white" /><polygon type="contour" points="10.503957,9.05486 10.503886,9.079461 10.50409,9.179242 10.504126,9.199588 10.413341,9.199588 10.386873,9.199871 10.386873,9.177427 10.38647,9.103094 10.386338,9.078849 10.386968,8.963974 10.504244,8.963974" style="fill: white" /><polygon type="contour" points="9.711101,9.199588 9.4206,9.199588 9.4206,8.963974 9.711101,8.963974" style="fill: white" /><polygon type="contour" points="10.028606,8.964095 10.07684,8.964095 10.167729,8.963974 10.167729,9.03974 10.167605,9.054859 10.167605,9.110973 10.167729,9.201898 10.076841,9.199808 10.068908,9.199709 10.020865,9.199709 9.932114,9.199588 9.932114,9.177559 9.931919,9.056813 9.931895,9.05486 9.931831,8.963941 9.954274,8.963941" style="fill: white" /><polygon type="contour" points="10.167729,8.744733 10.144632,8.744733 10.068849,8.745231 10.068848,8.745231 10.049203,8.74536 9.931831,8.744827 9.932114,8.718359 9.932114,8.627576 10.020866,8.627753 10.054225,8.627813 10.146592,8.62752 10.167729,8.627458" style="fill: white" /><polygon type="contour" points="9.658028,8.460059 9.711101,8.460262 9.711101,8.745096 9.4206,8.745096 9.4206,8.460262 9.473417,8.460059 9.565906,8.457467" style="fill: white" /><polygon type="contour" points="8.745012,8.493743 8.744841,8.531219 8.744841,8.580591 8.744534,8.744537 8.721275,8.744537 8.559785,8.744371 8.460161,8.744371 8.460107,8.592049 8.459608,8.459609 8.641056,8.460424 8.743706,8.459137" style="fill: white" /><polygon type="contour" points="9.054859,8.627744 9.079397,8.627814 9.17924,8.627612 9.199586,8.627576 9.199586,8.718359 9.199869,8.744828 9.177425,8.744828 9.103093,8.745231 9.103092,8.745231 9.078848,8.745362 8.963972,8.744733 8.963972,8.627458" style="fill: white" /><polygon type="contour" points="9.199806,9.05486 9.199707,9.062792 9.199707,9.110834 9.199586,9.199588 9.177558,9.199588 9.056755,9.199784 9.054858,9.199808 8.963972,9.201898 8.963972,9.179127 8.964092,9.103093 8.964092,9.05486 8.963972,8.963974 9.040031,8.963941 9.054859,8.964095 9.110973,8.964095 9.199869,8.963941" style="fill: white" /><polygon type="contour" points="8.744731,8.98707 8.745358,9.082496 8.744825,9.199871 8.718357,9.199588 8.627575,9.199588 8.627752,9.110834 8.627812,9.077437 8.627518,8.985111 8.627456,8.963974 8.744731,8.963974" style="fill: white" /><polygon type="contour" points="8.744534,10.410427 8.744841,10.600484 8.745012,10.604749 8.745012,10.63796 8.743706,10.672566 8.641056,10.67128 8.459608,10.672095 8.460107,10.539655 8.46016,10.387333 8.527136,10.387333 8.687925,10.387167 8.744534,10.387167" style="fill: white" /><polygon type="contour" points="8.744826,9.932314 8.744826,9.954276 8.745229,10.028609 8.74536,10.052854 8.744731,10.167731 8.627457,10.167731 8.627743,10.076843 8.627814,10.052242 8.627611,9.952461 8.627575,9.932116 8.718356,9.932116" style="fill: white" /><polygon type="contour" points="8.745094,9.711522 8.721963,9.711102 8.456168,9.711102 8.457108,9.649132 8.45751,9.565502 8.457108,9.482274 8.456168,9.420602 8.745094,9.420602" style="fill: white" /><polygon type="contour" points="9.199586,9.711102 9.062791,9.711102 9.054859,9.711271 8.963972,9.71159 8.963972,9.420602 9.199586,9.420602" style="fill: white" /><polygon type="contour" points="9.199586,9.932116 9.199586,9.954143 9.19973,10.042748 9.199389,10.167764 9.177424,10.167764 9.103092,10.167607 9.054859,10.167607 8.963971,10.167731 8.963938,10.091669 8.964092,10.076844 8.964092,10.020899 8.963938,9.932314 9.090527,9.931967" style="fill: white" /><polygon type="contour" points="9.199389,10.386874 9.199454,10.413278 9.199454,10.503986 9.110814,10.503901 9.110834,10.503951 9.077436,10.50389 8.985108,10.504184 8.963972,10.504246 8.963972,10.386969 8.987068,10.386969 9.062851,10.386471 9.067153,10.386442 9.082467,10.386342" style="fill: white" /><polygon type="contour" points="10.167729,10.386969 10.167729,10.504246 10.07684,10.503959 10.052239,10.503888 9.952459,10.504092 9.932114,10.504128 9.932114,10.413344 9.931831,10.386874 9.954274,10.386874 10.028606,10.386471 10.028607,10.386471 10.052851,10.386339" style="fill: white" /><polygon type="contour" points="10.571914,10.387333 10.671539,10.387333 10.671593,10.539655 10.672092,10.672094 10.490641,10.67128 10.387994,10.672566 10.386688,10.63796 10.386858,10.600484 10.386858,10.551112 10.387165,10.387167 10.410425,10.387167" style="fill: white" /><polygon type="contour" points="10.413341,9.932116 10.504126,9.932116 10.503948,10.020869 10.503888,10.054266 10.504182,10.146593 10.504244,10.167731 10.386968,10.167731 10.386968,10.144634 10.38634,10.049206 10.386873,9.931833" style="fill: white" /><polygon type="contour" points="10.167729,9.952575 10.167605,10.028609 10.167605,10.076843 10.167729,10.167731 10.091959,10.167731 10.076841,10.167607 10.020727,10.167607 9.929802,10.167731 9.931895,10.076843 9.931994,10.068911 9.931994,10.020869 9.932114,9.932116 9.954141,9.932116 10.074944,9.931919 10.07684,9.931896 10.167729,9.929804" style="fill: white" /><polygon type="contour" points="10.167729,9.711102 9.932114,9.711102 9.932114,9.420602 10.167729,9.420602" style="fill: white" /><polygon type="contour" points="9.711101,9.711102 9.4206,9.711102 9.4206,9.420602 9.711101,9.420602" style="fill: white" /><polygon type="contour" points="9.711101,10.167731 9.420113,10.167731 9.4206,10.144906 9.4206,9.932116 9.711101,9.932116" style="fill: white" /><polygon type="contour" points="9.711101,10.671442 9.658029,10.671645 9.5655,10.674237 9.473417,10.671644 9.4206,10.671441 9.4206,10.442938 9.42032,10.409685 9.42018,10.386607 9.711101,10.386607" style="fill: white" />
</svg>
