<svg width="19.131698" height="19.131699">
<polygon type="contour" points="10.428081,8.934717 10.426711,9.007863 10.35697,9.007863 10.16409,9.007931 10.123834,9.007869 10.123834,8.938268 10.124014,8.749847 10.124162,8.744985 10.124162,8.72481 10.12483,8.704325 10.278867,8.700572 10.432536,8.699165" style="fill: white" /><polygon type="contour" points="10.259879,9.19168 10.259879,9.213584 10.25987,9.23536 10.260092,9.280957 10.142624,9.280957 10.123093,9.280857 10.123029,9.23536 10.123073,9.19013 10.123165,9.158688 10.123165,9.146809 10.141314,9.146809 10.260104,9.146677" style="fill: white" /><polygon type="contour" points="10.181408,9.420194 10.208676,9.42017 10.268802,9.420236 10.339777,9.420602 10.42684,9.420602 10.427161,9.49317 10.428178,9.566201 10.427471,9.682085 10.42684,9.711102 10.123165,9.711102 10.123165,9.420508 10.12384,9.419902" style="fill: white" /><polygon type="contour" points="9.711101,9.19168 9.711101,9.280957 9.4206,9.280957 9.4206,9.146677 9.711201,9.146677" style="fill: white" /><polygon type="contour" points="9.896342,9.146459 9.94002,9.146586 9.972369,9.146677 9.985025,9.146677 9.985115,9.19168 9.985115,9.235833 9.985025,9.281224 9.94002,9.281282 9.927224,9.281323 9.850744,9.280957 9.850629,9.23536 9.850629,9.191816 9.850845,9.146454" style="fill: white" /><polygon type="contour" points="9.984892,8.990388 9.984892,9.008538 9.94157,9.00863 9.894344,9.00863 9.862558,9.008538 9.850678,9.008538 9.850845,8.89114 9.850744,8.87161 9.896341,8.87183 9.917945,8.871821 9.94002,8.871821 9.985025,8.871598" style="fill: white" /><polygon type="contour" points="9.609935,8.703667 9.640417,8.704466 9.658322,8.704998 9.711101,8.705009 9.711101,8.990389 9.711195,9.008538 9.4206,9.008538 9.4206,8.705009 9.473632,8.704998 9.491622,8.704467 9.566,8.703385" style="fill: white" /><polygon type="contour" points="8.852832,8.700572 9.006871,8.704325 9.007432,8.722915 9.007539,8.724809 9.007687,8.749848 9.007866,8.938268 9.007929,9.007931 8.96761,9.007931 8.774728,9.007863 8.704988,9.007863 8.703619,8.934718 8.699164,8.699165" style="fill: white" /><polygon type="contour" points="9.191679,8.871821 9.213582,8.871821 9.235358,8.87183 9.280955,8.87161 9.280955,9.008609 9.235358,9.008674 9.190129,9.00863 9.158687,9.008538 9.146808,9.008538 9.146808,8.990388 9.146675,8.871598" style="fill: white" /><polygon type="contour" points="9.008666,9.19168 9.008628,9.237357 9.008536,9.269144 9.008536,9.281119 8.891138,9.280957 8.871608,9.280957 8.871828,9.23536 8.871819,9.213584 8.87182,9.19168 8.871596,9.146677 9.008597,9.146677" style="fill: white" /><polygon type="contour" points="9.281321,9.146677 9.28128,9.19168 9.28107,9.235359 9.280955,9.268072 9.280955,9.280957 9.235358,9.281071 9.191678,9.281282 9.159232,9.281323 9.146675,9.281323 9.146585,9.235834 9.146585,9.191681 9.146675,9.159332 9.146675,9.146677 9.191679,9.146587 9.235832,9.146587" style="fill: white" /><polygon type="contour" points="9.280955,9.711102 9.159232,9.711102 9.146675,9.711202 9.146675,9.420602 9.280955,9.420602" style="fill: white" /><polygon type="contour" points="9.204839,9.850745 9.280955,9.850745 9.28107,9.896343 9.28107,9.939889 9.280855,9.98525 9.235357,9.985244 9.191679,9.985117 9.15933,9.985027 9.146675,9.985027 9.146584,9.940022 9.146457,9.896344 9.146452,9.850846 9.191814,9.850631" style="fill: white" /><polygon type="contour" points="9.008536,9.711196 9.007861,9.711802 8.950292,9.71151 8.923024,9.711534 8.862897,9.711467 8.791922,9.711102 8.70486,9.711102 8.704539,9.638882 8.703522,9.566202 8.704229,9.449758 8.70486,9.420602 9.008536,9.420602" style="fill: white" /><polygon type="contour" points="9.008536,9.85068 9.008628,9.894346 9.008628,9.941572 9.008536,9.973015 9.008536,9.984895 8.990386,9.984895 8.871596,9.985027 8.87182,9.940023 8.871819,9.917946 8.871828,9.896344 8.871608,9.850745 8.990387,9.850586" style="fill: white" /><polygon type="contour" points="9.007867,10.123836 9.007867,10.193436 9.007687,10.381856 9.007539,10.386547 9.007539,10.406893 9.006871,10.427379 8.852833,10.431131 8.699164,10.432537 8.703618,10.196987 8.704988,10.123842 8.774728,10.123842 8.96761,10.123774" style="fill: white" /><polygon type="contour" points="9.26807,10.123096 9.280855,10.123096 9.280855,10.240563 9.280955,10.260094 9.235357,10.259873 9.213583,10.259881 9.191678,10.259881 9.146675,10.260106 9.146675,10.123106 9.191678,10.123037 9.235358,10.123031" style="fill: white" /><polygon type="contour" points="9.972368,10.123106 9.985025,10.123106 9.985025,10.260106 9.940021,10.259881 9.917945,10.259881 9.896341,10.259873 9.850744,10.260094 9.850584,10.141314 9.850584,10.123167 9.894345,10.123075 9.94002,10.123037" style="fill: white" /><polygon type="contour" points="9.711394,10.123841 9.711101,10.18141 9.711101,10.426693 9.658068,10.426705 9.640077,10.427237 9.565501,10.428319 9.521764,10.428036 9.491282,10.427237 9.473378,10.426705 9.4206,10.426693 9.4206,10.141315 9.420506,10.123167 9.711101,10.123167" style="fill: white" /><polygon type="contour" points="9.711101,9.985027 9.4205,9.985027 9.4206,9.940023 9.4206,9.850745 9.711101,9.850745" style="fill: white" /><polygon type="contour" points="9.711101,9.711102 9.4206,9.711102 9.4206,9.420602 9.711101,9.420602" style="fill: white" /><polygon type="contour" points="9.985025,9.711102 9.850744,9.711102 9.850744,9.420602 9.972467,9.420602 9.985025,9.420502" style="fill: white" /><polygon type="contour" points="9.985115,9.89587 9.985115,9.940022 9.985025,9.972371 9.985025,9.985027 9.94002,9.985117 9.895868,9.985117 9.85038,9.985027 9.850421,9.940022 9.850628,9.896344 9.850744,9.86363 9.850744,9.850745 9.896342,9.850631 9.94002,9.850423 9.972467,9.850382 9.985025,9.850382" style="fill: white" /><polygon type="contour" points="10.240561,9.850745 10.260092,9.850745 10.25987,9.896343 10.259879,9.917947 10.259879,9.940023 10.260104,9.985027 10.141314,9.984895 10.123165,9.984895 10.123073,9.941573 10.123073,9.894346 10.123165,9.86256 10.123165,9.850586" style="fill: white" /><polygon type="contour" points="10.35697,10.123842 10.426711,10.123842 10.428081,10.196987 10.432536,10.432538 10.278867,10.431131 10.12483,10.427379 10.124269,10.408788 10.124162,10.406894 10.124014,10.381855 10.123834,10.193436 10.123772,10.123774 10.16409,10.123774" style="fill: white" />
</svg>
