<svg width="19.131698" height="19.131699">
<polygon type="contour" points="16.104402,16.558122 16.021165,16.558188 15.908715,16.558281 15.908715,16.487852 15.908937,16.415389 15.982367,16.41532 16.104402,16.41532" style="fill: white" /><polygon type="contour" points="16.748252,16.415052 16.748135,16.532866 16.748525,16.707351 16.748525,16.748527 16.569753,16.748715 16.568693,16.748532 16.414972,16.748175 16.415264,16.692296 16.415264,16.636127 16.415182,16.63423 16.41522,16.591331 16.415248,16.573054 16.41532,16.558122 16.41532,16.415321 16.55812,16.415321 16.573053,16.415249 16.591329,16.415222 16.634229,16.415185 16.692295,16.415266 16.695017,16.415035" style="fill: white" /><polygon type="contour" points="16.558209,15.995038 16.55812,16.104403 16.415319,16.104403 16.415387,16.021165 16.415387,15.908938 16.476128,15.908938 16.558278,15.908718" style="fill: white" /><polygon type="contour" points="16.104237,15.908938 16.104402,15.982367 16.104402,16.104403 16.021165,16.104239 15.908937,16.104239 15.908937,16.021165 15.908715,15.908718 16.005035,15.908718" style="fill: white" /><polygon type="contour" points="15.06864,15.908717 15.06864,16.005039 15.068638,16.104239 14.858031,16.104394 14.736286,16.104545 14.736277,16.032877 14.736277,15.908651 14.858032,15.908651" style="fill: white" /><polygon type="contour" points="15.068638,16.476129 15.06864,16.55828 14.932117,16.558159 14.736355,16.55848 14.736355,16.415679 14.858031,16.415736 15.068638,16.415389" style="fill: white" /><polygon type="contour" points="14.30084,16.415606 14.352643,16.415717 14.493596,16.415798 14.493596,16.536796 14.493682,16.558582 14.493633,16.57051 14.493294,16.588988 14.493609,16.632858 14.493353,16.636127 14.493353,16.692297 14.493532,16.695021 14.493552,16.748254 14.32746,16.748645 14.160743,16.748645 14.160567,16.653213 14.067873,16.653274 13.709429,16.653046 13.713073,16.610618 13.695512,16.415202" style="fill: white" /><polygon type="contour" points="14.493725,15.971084 14.493725,16.104545 13.798418,16.104618 13.69585,16.104618 13.698389,16.064954 13.693915,15.908973 14.251641,15.908719 14.493535,15.908651" style="fill: white" /><polygon type="contour" points="14.245961,14.736239 14.493682,14.736358 14.493682,14.971502 14.493534,15.06878 14.258994,15.06878 14.111872,15.06837 13.708067,15.068503 13.702667,14.998308 13.707017,14.735646" style="fill: white" /><polygon type="contour" points="15.068778,14.858033 15.06864,15.068642 14.904652,15.068642 14.736277,15.06878 14.736355,14.971502 14.736355,14.736358 14.858031,14.736279 15.068778,14.736279" style="fill: white" /><polygon type="contour" points="15.971081,14.736288 16.104543,14.736288 16.104392,14.858033 16.104237,15.06864 16.021164,15.06864 15.908715,15.068642 15.908715,14.904655 15.908649,14.736279" style="fill: white" /><polygon type="contour" points="16.558157,14.932118 16.558278,15.068642 16.487849,15.068642 16.415386,15.06864 16.415272,14.95347 16.415676,14.736358 16.558477,14.736358" style="fill: white" /><polygon type="contour" points="16.653105,13.846016 16.653114,13.944553 16.653353,14.060174 16.653214,14.106818 16.653232,14.160602 16.748643,14.160744 16.748643,14.327461 16.748252,14.493554 16.692295,14.493354 16.632856,14.493612 16.588985,14.493295 16.570506,14.493636 16.558579,14.493685 16.436685,14.493685 16.415795,14.493599 16.415734,14.35129 16.415767,14.247882 16.415296,13.70198 16.479653,13.704821 16.652884,13.695346" style="fill: white" /><polygon type="contour" points="16.104614,13.695852 16.104614,13.79842 16.104543,14.493728 16.032877,14.493538 15.908649,14.493538 15.908936,13.816976 15.908936,13.694203 15.940511,13.691832" style="fill: white" /><polygon type="contour" points="15.068009,13.707528 15.068009,13.839948 15.068778,14.493537 14.9715,14.493685 14.736355,14.493685 14.736355,14.316804 14.736015,13.716452 15.015674,13.704281" style="fill: white" /><polygon type="contour" points="14.493471,13.6986 14.49372,14.323675 14.493627,14.353256 14.493682,14.493685 14.351576,14.493722 14.274306,14.493534 13.704458,14.493447 13.716433,14.167904 13.718161,14.101508 13.855802,14.100509 13.879649,14.100378 13.882554,14.100333 13.883492,14.100442 13.974608,14.098737 13.983954,14.098281 14.02254,14.096066 14.03146,14.094712 14.093792,14.093789 14.094709,14.031462 14.096064,14.022543 14.098278,13.983956 14.098735,13.97461 14.100439,13.883495 14.10033,13.882557 14.100375,13.879652 14.100505,13.855806 14.101507,13.718165 14.388437,13.704878 14.432794,13.697302" style="fill: white" /><polygon type="contour" points="14.493552,2.38345 14.493353,2.439406 14.493609,2.498845 14.493294,2.542714 14.493633,2.561193 14.493682,2.57312 14.493682,2.695014 14.493596,2.715904 14.352643,2.715985 14.30084,2.716095 13.695512,2.716501 13.712892,2.521945 13.709148,2.478519 14.067872,2.478428 14.160601,2.478487 14.160743,2.383059 14.32746,2.383059" style="fill: white" /><polygon type="contour" points="14.493725,3.027159 14.493725,3.160619 14.493535,3.223053 14.258994,3.223053 14.251641,3.222985 13.693916,3.22273 13.691243,3.19119 13.69585,3.027086 13.798418,3.027086" style="fill: white" /><polygon type="contour" points="14.858032,3.027309 15.068638,3.027463 15.068638,3.110536 15.06864,3.222985 14.904652,3.222985 14.736277,3.223053 14.736286,3.16062 14.736286,3.027159" style="fill: white" /><polygon type="contour" points="15.06864,2.573422 15.06864,2.643851 15.068638,2.716315 14.953467,2.71643 14.736355,2.716023 14.736355,2.573223 14.858032,2.573167" style="fill: white" /><polygon type="contour" points="15.995036,2.573493 16.104402,2.573582 16.104402,2.716382 16.021165,2.716315 15.908937,2.716315 15.908937,2.655573 15.908715,2.573422" style="fill: white" /><polygon type="contour" points="16.748525,2.383176 16.748525,2.424353 16.748135,2.598838 16.748252,2.716651 16.692295,2.716438 16.636125,2.716438 16.634229,2.716519 16.591329,2.716481 16.573053,2.716455 16.558119,2.716382 16.41532,2.716382 16.41532,2.573582 16.415248,2.55865 16.415221,2.540371 16.415182,2.497472 16.415265,2.439407 16.415032,2.436683 16.414972,2.383528 16.568694,2.383172 16.569754,2.382989" style="fill: white" /><polygon type="contour" points="16.558185,3.110535 16.558278,3.222985 16.48785,3.222985 16.415387,3.222764 16.415319,3.149335 16.415319,3.027301 16.55812,3.027301" style="fill: white" /><polygon type="contour" points="16.104237,3.110536 16.104237,3.222764 16.021164,3.222764 15.908715,3.222985 15.908715,3.126663 15.908937,3.027463 15.982366,3.027301 16.104402,3.027301" style="fill: white" /><polygon type="contour" points="16.104543,4.835419 16.104402,5.435579 15.94051,5.439873 15.908936,5.437501 15.908936,5.314728 15.908649,4.638167 15.971082,4.637976 16.104543,4.637976" style="fill: white" /><polygon type="contour" points="16.570506,4.638069 16.588984,4.638408 16.632857,4.638093 16.636125,4.63835 16.692294,4.63835 16.695017,4.638169 16.748252,4.638151 16.748643,4.804242 16.748643,4.970958 16.653209,4.971136 16.65336,5.063555 16.653213,5.422617 16.598451,5.416382 16.415434,5.429601 16.415767,4.883822 16.415734,4.780414 16.415795,4.638106 16.536791,4.638106 16.558579,4.638019" style="fill: white" /><polygon type="contour" points="16.558157,4.199584 16.558477,4.395346 16.415676,4.395346 16.415272,4.178233 16.415387,4.063063 16.476127,4.063063 16.558278,4.063061" style="fill: white" /><polygon type="contour" points="16.104237,4.063063 16.104392,4.273669 16.104543,4.395416 16.032876,4.395425 15.908649,4.395425 15.908649,4.273669 15.908715,4.063061 16.005035,4.063061" style="fill: white" /><polygon type="contour" points="15.06864,4.063061 15.06864,4.227049 15.068778,4.395425 14.971501,4.395346 14.736355,4.395346 14.736277,4.273668 14.736277,4.062924 14.858032,4.062924" style="fill: white" /><polygon type="contour" points="14.493682,4.160202 14.493682,4.395346 14.316802,4.395346 14.245962,4.395466 13.707017,4.396058 13.711796,4.280265 13.708066,4.0632 14.111872,4.063335 14.493534,4.062924" style="fill: white" /><polygon type="contour" points="14.858032,4.638167 15.068778,4.638167 15.068009,5.291754 15.068009,5.424174 14.783498,5.413501 14.736015,5.415252 14.736015,5.350797 14.736355,4.638019" style="fill: white" /><polygon type="contour" points="14.493682,4.638019 14.493627,4.778447 14.49372,4.808028 14.493471,5.433104 14.432794,5.434402 14.388437,5.426826 14.101507,5.413538 14.100439,5.248207 14.098735,5.157092 14.098277,5.147745 14.096064,5.10916 14.09471,5.10024 14.093792,5.037916 14.031459,5.036989 14.02254,5.035637 13.974607,5.032965 13.883492,5.03126 13.882554,5.03137 13.879649,5.031324 13.855803,5.031194 13.718162,5.030193 13.70749,4.744417 13.704458,4.638257 14.274305,4.63817 14.351577,4.637983" style="fill: white" /><polygon type="contour" points="2.715902,4.638106 2.715964,4.780414 2.715932,4.883822 2.716267,5.429602 2.533248,5.416381 2.478486,5.422616 2.478338,5.063556 2.478485,4.971102 2.383057,4.970958 2.383057,4.804242 2.383448,4.638151 2.439405,4.63835 2.498843,4.638093 2.542713,4.638408 2.561192,4.638069 2.573119,4.638019 2.695012,4.638019" style="fill: white" /><polygon type="contour" points="3.098822,4.638167 3.223051,4.638167 3.222762,5.314729 3.222762,5.437501 3.191189,5.439873 3.027084,5.43585 3.027084,5.333281 3.027156,4.637976" style="fill: white" /><polygon type="contour" points="3.222983,4.227049 3.223051,4.395425 3.160619,4.395416 3.027157,4.395416 3.027307,4.273669 3.027462,4.063063 3.110535,4.063063 3.222983,4.063061" style="fill: white" /><polygon type="contour" points="2.716313,4.063063 2.716428,4.178233 2.716021,4.395346 2.573222,4.395346 2.573542,4.199584 2.573421,4.063061 2.64385,4.063061" style="fill: white" /><polygon type="contour" points="2.563006,2.383172 2.716728,2.383528 2.716436,2.439406 2.716436,2.495576 2.716518,2.497473 2.71648,2.540371 2.716453,2.55865 2.716381,2.573583 2.716381,2.716382 2.573582,2.716382 2.558648,2.716455 2.540369,2.716481 2.497471,2.716519 2.439405,2.716438 2.436682,2.716669 2.383448,2.716651 2.383565,2.598838 2.383174,2.424353 2.383174,2.383176 2.561945,2.382989" style="fill: white" /><polygon type="contour" points="2.716313,3.110536 2.716313,3.222764 2.655572,3.222764 2.573421,3.222985 2.573491,3.136665 2.573581,3.027301 2.716381,3.027301" style="fill: white" /><polygon type="contour" points="3.110534,3.027463 3.222762,3.027463 3.222762,3.110535 3.222983,3.222985 3.126662,3.222985 3.027462,3.222764 3.027299,3.149334 3.027299,3.027301" style="fill: white" /><polygon type="contour" points="3.222983,2.64385 3.222762,2.716315 3.149332,2.716382 3.027299,2.716382 3.027299,2.573583 3.110535,2.573514 3.222983,2.573422" style="fill: white" /><polygon type="contour" points="5.43331,3.066747 5.437785,3.22273 4.880057,3.222985 4.638165,3.223053 4.637974,3.160619 4.637974,3.027159 5.33328,3.027086 5.435848,3.027086" style="fill: white" /><polygon type="contour" points="4.971134,2.478466 5.024883,2.478485 5.071527,2.478345 5.187147,2.478586 5.285686,2.478596 5.436355,2.478818 5.443053,2.515603 5.436187,2.716501 4.830858,2.716095 4.779057,2.715985 4.638104,2.715904 4.638104,2.594907 4.638018,2.573121 4.638067,2.561193 4.638406,2.542714 4.638091,2.498844 4.638348,2.495577 4.638348,2.439406 4.638166,2.436683 4.638149,2.38345 4.80424,2.383059 4.970956,2.383059" style="fill: white" /><polygon type="contour" points="4.395345,2.716023 4.273667,2.715966 4.063061,2.716315 4.063061,2.655573 4.063059,2.573422 4.199582,2.573543 4.395345,2.573223" style="fill: white" /><polygon type="contour" points="4.395423,3.098824 4.395423,3.223053 4.273667,3.223053 4.063059,3.222985 4.063059,3.126663 4.063061,3.027463 4.273666,3.027309 4.395415,3.027159" style="fill: white" /><polygon type="contour" points="4.395345,4.160202 4.395345,4.395346 4.273667,4.395425 4.062923,4.395425 4.062923,4.273669 4.063059,4.063061 4.227047,4.063061 4.395423,4.062924" style="fill: white" /><polygon type="contour" points="5.019825,4.063335 5.423633,4.0632 5.429034,4.133394 5.424682,4.396058 4.885738,4.395466 4.638018,4.395346 4.638018,4.160202 4.638165,4.062924 4.872705,4.062924" style="fill: white" /><polygon type="contour" points="4.857394,4.63817 5.427242,4.638257 5.415264,4.963798 5.413536,5.030193 5.248205,5.03126 5.15709,5.032965 5.147745,5.033422 5.109159,5.035636 5.100239,5.03699 5.03791,5.037916 5.036988,5.100241 5.035635,5.10916 5.03342,5.147746 5.032963,5.157092 5.031259,5.248207 5.031369,5.249145 5.031323,5.252051 5.031192,5.275897 5.030191,5.413538 4.74326,5.426826 4.698903,5.434402 4.638228,5.433104 4.63798,4.808029 4.638073,4.778447 4.638018,4.638019 4.780122,4.637983" style="fill: white" /><polygon type="contour" points="4.395345,4.8149 4.395683,5.415251 4.116025,5.42742 4.063691,5.424173 4.063691,5.291754 4.062923,4.638167 4.160201,4.638019 4.395345,4.638019" style="fill: white" /><polygon type="contour" points="4.74326,13.704878 5.030191,13.718165 5.031192,13.855806 5.031322,13.879652 5.031369,13.882558 5.031259,13.883496 5.032963,13.97461 5.033419,13.983956 5.035635,14.022544 5.036988,14.031462 5.03791,14.093789 5.100238,14.094712 5.109157,14.096065 5.15709,14.098737 5.248205,14.100442 5.249143,14.100333 5.252048,14.100378 5.275894,14.100508 5.413536,14.10151 5.424209,14.387286 5.427241,14.493447 4.857393,14.493534 4.780122,14.493722 4.638018,14.493685 4.638073,14.353256 4.63798,14.323674 4.638228,13.698599 4.698903,13.697301" style="fill: white" /><polygon type="contour" points="4.348199,13.718202 4.395683,13.716452 4.395683,13.780906 4.395345,14.493685 4.273666,14.493537 4.062923,14.493537 4.063691,13.839948 4.063691,13.707528" style="fill: white" /><polygon type="contour" points="3.222762,13.694203 3.222762,13.816974 3.223051,14.493537 3.160619,14.493728 3.027157,14.493728 3.027157,14.296284 3.027299,13.696123 3.191188,13.691832" style="fill: white" /><polygon type="contour" points="2.716267,13.702101 2.715932,14.24788 2.715964,14.351289 2.715902,14.493598 2.594906,14.493599 2.57312,14.493685 2.561192,14.493636 2.542713,14.493295 2.498844,14.493612 2.495575,14.493354 2.439405,14.493354 2.436682,14.493534 2.383448,14.493554 2.383057,14.327461 2.383057,14.160744 2.478458,14.160568 2.478483,14.106819 2.478343,14.060174 2.478584,13.944553 2.478593,13.846016 2.478815,13.695346 2.525588,13.691942" style="fill: white" /><polygon type="contour" points="2.716428,14.95347 2.716313,15.06864 2.655572,15.06864 2.573421,15.068642 2.573542,14.932118 2.573222,14.736358 2.674209,14.736357 2.716021,14.736357" style="fill: white" /><polygon type="contour" points="3.223051,14.858033 3.222983,15.068642 3.126662,15.068642 3.027462,15.06864 3.027307,14.858033 3.027157,14.736288 3.098822,14.736279 3.223051,14.736279" style="fill: white" /><polygon type="contour" points="4.160201,14.736358 4.395345,14.736358 4.395423,14.858033 4.395423,15.06878 4.273667,15.06878 4.063059,15.068642 4.063059,14.904654 4.062923,14.736279" style="fill: white" /><polygon type="contour" points="5.419903,14.851438 5.423633,15.068504 5.019826,15.06837 4.638165,15.068779 4.638018,14.971502 4.638018,14.736358 4.814898,14.736358 4.885737,14.736239 5.424682,14.735646" style="fill: white" /><polygon type="contour" points="5.42999,16.478718 5.436355,16.652887 5.285685,16.653108 5.187147,16.653117 5.071527,16.653356 5.024882,16.653218 4.9711,16.65323 4.970956,16.748645 4.80424,16.748645 4.638149,16.748254 4.638348,16.692297 4.638091,16.632858 4.638405,16.588988 4.638067,16.57051 4.638018,16.558583 4.638018,16.436686 4.638104,16.415798 4.779057,16.415717 4.830858,16.415606 5.436117,16.41538" style="fill: white" /><polygon type="contour" points="4.880057,15.90872 5.437783,15.908973 5.440457,15.940513 5.435848,16.104618 5.33328,16.104618 4.637974,16.104545 4.637974,15.971084 4.638165,15.908651 4.872704,15.908651" style="fill: white" /><polygon type="contour" points="4.395415,15.971083 4.395415,16.104545 4.273667,16.104394 4.063061,16.104239 4.063061,16.021165 4.063059,15.908718 4.227046,15.908718 4.395423,15.908651" style="fill: white" /><polygon type="contour" points="4.395345,16.415678 4.395345,16.558479 4.199581,16.558158 4.18736,16.558111 4.063059,16.558281 4.063059,16.487852 4.063061,16.415389 4.178232,16.415274" style="fill: white" /><polygon type="contour" points="3.110534,16.415389 3.222762,16.415389 3.222762,16.476129 3.222983,16.558281 3.136663,16.558211 3.027299,16.558122 3.027299,16.41532" style="fill: white" /><polygon type="contour" points="3.222983,16.005039 3.222762,16.104239 3.149333,16.104403 3.027299,16.104403 3.027462,16.021166 3.027462,15.908938 3.110534,15.908938 3.222983,15.908718" style="fill: white" /><polygon type="contour" points="2.716313,15.908938 2.716381,15.982367 2.716381,16.104403 2.573582,16.104403 2.573512,16.021165 2.573421,15.908718 2.643849,15.908718" style="fill: white" /><polygon type="contour" points="2.439405,16.415266 2.495575,16.415266 2.497471,16.415184 2.540369,16.415222 2.558648,16.415249 2.573582,16.415321 2.716381,16.415321 2.716381,16.558121 2.716454,16.573055 2.71648,16.591331 2.716518,16.634231 2.716435,16.692296 2.716667,16.695021 2.716728,16.748175 2.563006,16.748532 2.561945,16.748715 2.383174,16.748527 2.383174,16.707351 2.383565,16.532866 2.383448,16.415052" style="fill: white" />
</svg>
