<svg width="19.131698" height="19.131699">
<polygon type="contour" points="11.287058,8.661744 11.486238,8.661736 11.536467,8.661736 11.536571,8.747881 11.536961,8.955306 11.485438,8.955306 11.287763,8.955696 11.249655,8.955817 11.249655,8.860015 11.249252,8.661719" style="fill: white" /><polygon type="contour" points="8.955776,11.346508 8.955527,11.428038 8.955519,11.483459 8.955173,11.537038 8.765289,11.536359 8.661955,11.536678 8.661955,11.479595 8.662002,11.343145 8.661972,11.249519 8.955972,11.249519" style="fill: white" /><polygon type="contour" points="8.956782,10.992347 8.95689,11.028033 8.66335,11.028033 8.663397,10.991899 8.66366,10.920684 8.725998,10.920657 8.957017,10.920657" style="fill: white" /><polygon type="contour" points="8.956676,10.729559 8.957017,10.793863 8.893669,10.793799 8.66366,10.793799 8.663295,10.729886 8.663295,10.698931 8.956821,10.698931" style="fill: white" /><polygon type="contour" points="9.819807,10.174941 9.819953,10.272038 9.819953,10.468324 9.777814,10.468324 9.692734,10.46813 9.692459,10.397609 9.692459,10.174767 9.723231,10.174767" style="fill: white" /><polygon type="contour" points="9.438438,10.246389 9.438438,10.46813 9.407356,10.46813 9.311747,10.468324 9.311893,10.372549 9.311893,10.174941 9.353686,10.174941 9.43871,10.174767" style="fill: white" /><polygon type="contour" points="7.78546,7.588058 7.882189,7.595401 7.882189,7.882192 7.763397,7.882192 7.736472,7.882266 7.679103,7.881784 7.628329,7.881172 7.627334,7.880925 7.593522,7.880664 7.593608,7.773943 7.586495,7.586497" style="fill: white" /><polygon type="contour" points="7.88203,8.751328 7.882045,8.955817 7.843936,8.955695 7.646261,8.955306 7.594739,8.955306 7.595128,8.747881 7.595233,8.661736 7.846027,8.661736 7.88203,8.661712" style="fill: white" /><polygon type="contour" points="8.139801,8.663398 8.211018,8.663662 8.211046,8.726001 8.211046,8.957018 8.187276,8.957085 8.103669,8.956893 8.103669,8.663352" style="fill: white" /><polygon type="contour" points="8.759152,9.311894 8.956762,9.311894 8.956762,9.353688 8.956934,9.439244 8.885312,9.438968 8.663571,9.438968 8.663571,9.407886 8.663378,9.311748" style="fill: white" /><polygon type="contour" points="8.358447,9.69231 8.432834,9.693265 8.432834,9.724347 8.432772,9.820434 8.402142,9.820293 8.33784,9.820164 8.337943,9.794221 8.337943,9.692082" style="fill: white" /><polygon type="contour" points="8.211046,9.719266 8.211046,9.820164 8.187276,9.8202 8.103542,9.81987 8.103542,9.776538 8.103466,9.69302 8.128022,9.693024 8.210981,9.692082" style="fill: white" /><polygon type="contour" points="7.883559,9.725075 7.883318,9.820031 7.844205,9.819974 7.764723,9.81981 7.764631,9.779678 7.765022,9.693024 7.795387,9.69302 7.883559,9.69302" style="fill: white" /><polygon type="contour" points="7.883559,9.407153 7.883559,9.439209 7.855618,9.439219 7.765022,9.439219 7.764631,9.352025 7.764723,9.311894 7.843954,9.311894 7.883512,9.311834" style="fill: white" /><polygon type="contour" points="8.210981,9.337483 8.210981,9.439622 8.187276,9.439604 8.103466,9.439209 8.103466,9.407154 8.103542,9.311834 8.138541,9.311894 8.211046,9.31154" style="fill: white" /><polygon type="contour" points="8.432772,9.352697 8.432834,9.438968 8.411013,9.439218 8.337943,9.439621 8.33784,9.412436 8.33784,9.31154 8.358446,9.311446 8.432772,9.31127" style="fill: white" /><polygon type="contour" points="8.432772,8.956822 8.402143,8.956677 8.33784,8.957018 8.337903,8.89367 8.337903,8.663662 8.358447,8.663662 8.432772,8.663296" style="fill: white" /><polygon type="contour" points="8.955593,8.747881 8.955303,8.955306 8.749744,8.955694 8.661835,8.955836 8.661955,8.856058 8.661955,8.661956 8.868197,8.661736 8.955734,8.661736" style="fill: white" /><polygon type="contour" points="8.955173,7.594666 8.954983,7.643633 8.955519,7.648245 8.955519,7.701146 8.955526,7.703665 8.955776,7.785195 8.955972,7.882185 8.661972,7.882185 8.662002,7.843097 8.662002,7.78856 8.661955,7.691117 8.661955,7.595026 8.834816,7.594266" style="fill: white" /><polygon type="contour" points="8.432772,7.764792 8.432772,7.844151 8.432702,7.883455 8.401039,7.883455 8.337855,7.883756 8.337943,7.859101 8.337943,7.764774 8.403502,7.764594" style="fill: white" /><polygon type="contour" points="8.187277,7.764834 8.210981,7.764774 8.211004,7.791661 8.211004,7.883756 8.187277,7.883756 8.103669,7.883504 8.103669,7.764698" style="fill: white" /><polygon type="contour" points="8.211004,8.103905 8.210981,8.125586 8.210981,8.210983 8.187276,8.211005 8.103902,8.211005 8.103902,8.187278 8.103669,8.103671 8.140591,8.103671" style="fill: white" /><polygon type="contour" points="7.883503,8.140592 7.883754,8.211005 7.859099,8.210983 7.764772,8.210983 7.764596,8.137863 7.764697,8.103671 7.883503,8.103671" style="fill: white" /><polygon type="contour" points="7.883754,8.358945 7.883453,8.432703 7.844151,8.432773 7.764791,8.432773 7.7649,8.358448 7.764772,8.337944 7.791659,8.337856 7.883754,8.337856" style="fill: white" /><polygon type="contour" points="8.125584,8.337944 8.210981,8.337944 8.211018,8.358448 8.211018,8.432555 8.187277,8.43251 8.103499,8.432703 8.103902,8.358945 8.103902,8.337856" style="fill: white" /><polygon type="contour" points="8.432553,8.358447 8.432772,8.432773 8.401814,8.432773 8.337903,8.432555 8.337943,8.413292 8.337943,8.337943 8.358446,8.337905 8.432553,8.337905" style="fill: white" /><polygon type="contour" points="8.432508,8.187277 8.432553,8.21102 8.413291,8.210983 8.337943,8.210983 8.337855,8.187278 8.337855,8.103905 8.358944,8.103905 8.432702,8.103501" style="fill: white" /><polygon type="contour" points="8.957083,8.187278 8.957017,8.211047 8.893668,8.21102 8.66366,8.21102 8.663397,8.139804 8.66335,8.103671 8.95689,8.103671" style="fill: white" /><polygon type="contour" points="8.957112,8.358447 8.956932,8.370168 8.955846,8.401037 8.956821,8.432773 8.663295,8.432773 8.663295,8.401817 8.66366,8.337905 8.725997,8.337841 8.957017,8.337841" style="fill: white" /><polygon type="contour" points="9.820256,8.358447 9.820431,8.432773 9.779004,8.432773 9.692734,8.432835 9.692484,8.411015 9.69208,8.337944 9.719265,8.337841 9.820163,8.337841" style="fill: white" /><polygon type="contour" points="9.819867,8.103544 9.820341,8.174979 9.820198,8.187278 9.820163,8.211047 9.794219,8.210983 9.692079,8.210983 9.692098,8.187277 9.692493,8.103468 9.724547,8.103468" style="fill: white" /><polygon type="contour" points="9.819807,7.764724 9.819972,7.844207 9.820028,7.88332 9.77718,7.88332 9.692493,7.883562 9.692484,7.855621 9.692484,7.765025 9.779676,7.764633" style="fill: white" /><polygon type="contour" points="9.438679,7.765025 9.438683,7.79539 9.438683,7.883562 9.406628,7.883562 9.311672,7.88332 9.311728,7.844207 9.311893,7.764724 9.352023,7.764633" style="fill: white" /><polygon type="contour" points="9.438679,8.128022 9.43962,8.210983 9.412434,8.211047 9.311538,8.211047 9.311503,8.187277 9.311833,8.103544 9.355164,8.103544 9.438683,8.103468" style="fill: white" /><polygon type="contour" points="9.33748,8.337944 9.43962,8.337944 9.439392,8.358447 9.438438,8.432835 9.407355,8.432835 9.311269,8.432773 9.311409,8.402144 9.311538,8.337841" style="fill: white" /><polygon type="contour" points="9.438438,8.663572 9.43871,8.734093 9.43871,8.956937 9.407937,8.956937 9.311893,8.956763 9.311747,8.859665 9.311747,8.66338 9.353887,8.66338" style="fill: white" /><polygon type="contour" points="9.819807,8.759154 9.819807,8.956763 9.778013,8.956763 9.692459,8.956937 9.692734,8.885314 9.692734,8.663572 9.723817,8.663572 9.819953,8.66338" style="fill: white" /><polygon type="contour" points="10.275643,8.661956 10.469746,8.661956 10.469965,8.868199 10.469965,8.955735 10.383821,8.955595 10.176395,8.955306 10.176248,8.864383 10.175967,8.661736" style="fill: white" /><polygon type="contour" points="10.238031,8.337905 10.46804,8.337905 10.468405,8.401817 10.468405,8.432773 10.17488,8.432773 10.175025,8.402144 10.174684,8.337841" style="fill: white" /><polygon type="contour" points="10.468302,8.139804 10.46804,8.21102 10.405701,8.211047 10.174684,8.211047 10.174616,8.187277 10.174916,8.174979 10.176036,8.139343 10.174807,8.103671 10.46835,8.103671" style="fill: white" /><polygon type="contour" points="10.366409,7.595345 10.469746,7.595026 10.469746,7.65211 10.469697,7.788559 10.469727,7.882185 10.175727,7.882185 10.175847,7.843506 10.176173,7.703665 10.17618,7.648245 10.176527,7.594666" style="fill: white" /><polygon type="contour" points="10.793845,7.791661 10.793845,7.883756 10.772753,7.883756 10.69904,7.883592 10.698971,7.844519 10.698929,7.764792 10.773253,7.764902 10.793756,7.764774" style="fill: white" /><polygon type="contour" points="11.028031,7.764698 11.028031,7.883505 10.991108,7.883505 10.920696,7.883756 10.920718,7.859101 10.920718,7.764774 10.993838,7.764598" style="fill: white" /><polygon type="contour" points="11.544994,7.779605 11.538198,7.880647 11.503371,7.881171 11.452596,7.881784 11.395228,7.882267 11.368303,7.882192 11.249511,7.882192 11.249511,7.595401 11.332909,7.595084 11.545206,7.586497" style="fill: white" /><polygon type="contour" points="11.366866,8.187277 11.366927,8.210983 11.340037,8.211005 11.247947,8.211005 11.247947,8.187277 11.248197,8.103671 11.367003,8.103671" style="fill: white" /><polygon type="contour" points="11.272601,8.337944 11.366927,8.337944 11.367108,8.403505 11.36691,8.432773 11.326733,8.432703 11.248247,8.432703 11.248247,8.401041 11.247947,8.337856" style="fill: white" /><polygon type="contour" points="11.027798,8.358945 11.028201,8.432703 10.944422,8.43251 10.920682,8.432555 10.920718,8.413292 10.920718,8.337944 10.944422,8.337856 11.027798,8.337856" style="fill: white" /><polygon type="contour" points="11.028031,8.140592 11.027798,8.211005 11.006116,8.210983 10.920718,8.210983 10.920696,8.187277 10.920696,8.103905 10.944423,8.103905 11.028031,8.103671" style="fill: white" /><polygon type="contour" points="10.793845,8.103905 10.793756,8.125587 10.793756,8.210983 10.773252,8.21102 10.699147,8.21102 10.699192,8.187277 10.698998,8.103501 10.73066,8.103501" style="fill: white" /><polygon type="contour" points="10.71841,8.337944 10.793755,8.337944 10.793796,8.358448 10.793796,8.432555 10.773252,8.432555 10.698929,8.432773 10.698929,8.401816 10.699147,8.337905" style="fill: white" /><polygon type="contour" points="10.793796,8.663662 10.79386,8.726 10.79386,8.957018 10.773253,8.957113 10.698929,8.956823 10.698929,8.663296 10.729884,8.663296" style="fill: white" /><polygon type="contour" points="11.028031,8.956893 10.992345,8.956784 10.920654,8.957018 10.920682,8.893669 10.920682,8.663662 10.944422,8.663631 11.028031,8.663352" style="fill: white" /><polygon type="contour" points="11.287763,10.176008 11.485439,10.176397 11.536961,10.176397 11.536571,10.383822 11.536467,10.469968 11.285674,10.469968 11.249671,10.469993 11.249671,10.380375 11.249655,10.175887" style="fill: white" /><polygon type="contour" points="11.452596,11.249919 11.50337,11.250532 11.504364,11.250777 11.538177,11.251039 11.538091,11.357759 11.545206,11.545207 11.34624,11.543646 11.249511,11.536304 11.249511,11.249512 11.368303,11.249512 11.395227,11.249437" style="fill: white" /><polygon type="contour" points="11.366798,10.773256 11.366927,10.793759 11.340038,10.793848 11.247947,10.793848 11.247947,10.772757 11.248247,10.699 11.287549,10.698931 11.366909,10.698931" style="fill: white" /><polygon type="contour" points="11.272601,10.920721 11.366927,10.920721 11.367104,10.99384 11.367003,11.028033 11.248197,11.028033 11.248197,10.991111 11.247947,10.920699" style="fill: white" /><polygon type="contour" points="10.71841,10.920721 10.793755,10.920721 10.793845,10.944424 10.793845,11.027799 10.772754,11.027799 10.698998,11.028203 10.699192,10.944425 10.699147,10.920684" style="fill: white" /><polygon type="contour" points="10.793796,10.69915 10.793756,10.718412 10.793756,10.793759 10.773252,10.793799 10.699147,10.793799 10.699147,10.773256 10.698929,10.698931 10.729885,10.698931" style="fill: white" /><polygon type="contour" points="11.027798,10.772757 11.027798,10.793848 11.006115,10.793759 10.920718,10.793759 10.920682,10.773255 10.920682,10.69915 10.944423,10.699194 11.028201,10.699" style="fill: white" /><polygon type="contour" points="11.027798,10.944425 11.028031,11.028033 10.991108,11.028033 10.920696,11.027799 10.920718,11.006117 10.920718,10.920721 10.944422,10.920699 11.027798,10.920699" style="fill: white" /><polygon type="contour" points="11.028031,11.2482 11.028031,11.367006 10.944423,11.366868 10.920718,11.366929 10.920696,11.340039 10.920696,11.247949 10.944422,11.247949" style="fill: white" /><polygon type="contour" points="10.793756,11.272603 10.793756,11.366929 10.728197,11.36711 10.698929,11.366912 10.698929,11.287551 10.698998,11.248249 10.730661,11.248249 10.793845,11.247949" style="fill: white" /><polygon type="contour" points="10.469697,11.288607 10.469697,11.343145 10.469746,11.440586 10.469746,11.536678 10.296883,11.537438 10.176527,11.537038 10.176717,11.48807 10.17618,11.483459 10.17618,11.430558 10.176172,11.428037 10.175921,11.346509 10.175727,11.249519 10.469727,11.249519" style="fill: white" /><polygon type="contour" points="9.819867,11.24819 9.819807,11.287747 9.819807,11.366979 9.779675,11.367071 9.692484,11.366679 9.692492,11.336314 9.692495,11.248143 9.72455,11.248143" style="fill: white" /><polygon type="contour" points="9.43868,11.276083 9.438679,11.366678 9.352024,11.36707 9.311892,11.366978 9.311728,11.287497 9.311672,11.248384 9.406629,11.248143 9.438685,11.248143" style="fill: white" /><polygon type="contour" points="9.337481,10.920721 9.43962,10.920721 9.439602,10.944424 9.438682,11.028234 9.406628,11.028234 9.311833,11.028159 9.311358,10.956724 9.311503,10.944424 9.311538,10.920657" style="fill: white" /><polygon type="contour" points="9.438678,10.720689 9.43962,10.793759 9.412434,10.793863 9.311538,10.793863 9.311444,10.773255 9.311269,10.698931 9.352695,10.698931 9.438438,10.698869" style="fill: white" /><polygon type="contour" points="9.820431,10.698931 9.820291,10.729559 9.820163,10.793863 9.794219,10.793759 9.69208,10.793759 9.692308,10.773255 9.692734,10.698869 9.723816,10.698869" style="fill: white" /><polygon type="contour" points="9.820198,10.944425 9.819867,11.02816 9.724548,11.028234 9.692493,11.028234 9.692484,11.003678 9.69208,10.920721 9.719265,10.920657 9.820162,10.920657" style="fill: white" /><polygon type="contour" points="10.238032,10.920684 10.46804,10.920684 10.468302,10.991899 10.46835,11.028033 10.174807,11.028033 10.174916,10.992347 10.174684,10.920657" style="fill: white" /><polygon type="contour" points="10.468405,10.729886 10.46804,10.793799 10.405702,10.793863 10.174684,10.793863 10.175025,10.729559 10.17488,10.698931 10.468405,10.698931" style="fill: white" /><polygon type="contour" points="10.469746,10.275645 10.469746,10.469748 10.263503,10.469968 10.175967,10.469968 10.176106,10.383823 10.176395,10.176397 10.381954,10.176008 10.469865,10.175867" style="fill: white" /><polygon type="contour" points="10.793796,10.238033 10.793796,10.468042 10.773252,10.468042 10.698929,10.468408 10.698929,10.174881 10.729557,10.175026 10.79386,10.174686" style="fill: white" /><polygon type="contour" points="11.028031,10.174809 11.028031,10.468352 10.991898,10.468306 10.920682,10.468042 10.920654,10.405702 10.920654,10.174686 10.944423,10.174619" style="fill: white" /><polygon type="contour" points="10.79386,9.719267 10.79386,9.820164 10.773252,9.820258 10.698929,9.820434 10.698929,9.779007 10.698867,9.693265 10.720687,9.693024 10.793756,9.692082" style="fill: white" /><polygon type="contour" points="10.944422,9.692099 11.028232,9.69302 11.028232,9.725074 11.028158,9.81987 10.993158,9.81981 10.920654,9.820164 10.920718,9.79422 10.920718,9.692081" style="fill: white" /><polygon type="contour" points="11.276083,9.693024 11.366678,9.693024 11.367068,9.779678 11.366976,9.81981 11.287745,9.81981 11.248188,9.81987 11.248188,9.776538 11.248142,9.69302" style="fill: white" /><polygon type="contour" points="11.287745,9.311894 11.366977,9.311894 11.367069,9.352025 11.366678,9.439219 11.336313,9.439209 11.248142,9.439209 11.248142,9.407154 11.248188,9.311834" style="fill: white" /><polygon type="contour" points="11.028158,9.311834 11.028158,9.355164 11.028232,9.439209 11.003676,9.439219 10.920718,9.439622 10.920654,9.412436 10.920654,9.31154 10.944423,9.311504" style="fill: white" /><polygon type="contour" points="10.729558,9.311411 10.79386,9.31154 10.793756,9.337483 10.793756,9.439622 10.773252,9.439394 10.698867,9.438968 10.698867,9.407886 10.698929,9.31127" style="fill: white" /><polygon type="contour" points="10.468323,9.353887 10.468128,9.438968 10.397606,9.439244 10.174767,9.439244 10.174767,9.40847 10.174938,9.311894 10.372548,9.311894 10.468323,9.311748" style="fill: white" /><polygon type="contour" points="10.246388,9.693265 10.468128,9.693265 10.468128,9.724347 10.468323,9.819956 10.372548,9.81981 10.174939,9.81981 10.174939,9.778015 10.174767,9.692993" style="fill: white" /><polygon type="contour" points="9.820558,9.723764 9.819807,9.81981 9.723232,9.82056 9.692459,9.82056 9.692484,9.791169 9.692484,9.693024 9.723232,9.692993 9.820558,9.692993" style="fill: white" /><polygon type="contour" points="9.819807,9.311894 9.820558,9.408471 9.820558,9.439244 9.791166,9.439219 9.692484,9.439219 9.692459,9.40847 9.692459,9.311144 9.723232,9.311144" style="fill: white" /><polygon type="contour" points="9.438679,9.340534 9.438679,9.439219 9.407937,9.439244 9.311143,9.439244 9.311143,9.40847 9.311893,9.311894 9.407938,9.311144 9.43871,9.311144" style="fill: white" /><polygon type="contour" points="9.340533,9.693024 9.438679,9.693024 9.43871,9.723765 9.43871,9.82056 9.407938,9.82056 9.311893,9.81981 9.311143,9.723764 9.311143,9.692993" style="fill: white" /><polygon type="contour" points="8.956934,9.723765 8.956762,9.81981 8.859664,9.819956 8.663378,9.819956 8.663378,9.777816 8.663571,9.693264 8.73409,9.692993 8.956934,9.692993" style="fill: white" /><polygon type="contour" points="8.747878,10.176109 8.955303,10.176397 8.955449,10.267319 8.955734,10.469968 8.856056,10.469748 8.661955,10.469748 8.661735,10.263505 8.661735,10.175969" style="fill: white" /><polygon type="contour" points="8.432772,10.174881 8.432772,10.468408 8.401814,10.468408 8.337903,10.468042 8.33784,10.405702 8.33784,10.174686 8.358446,10.174591" style="fill: white" /><polygon type="contour" points="8.211018,10.238034 8.211018,10.468041 8.187277,10.468072 8.103669,10.468351 8.103669,10.174809 8.139355,10.174918 8.211046,10.174686" style="fill: white" /><polygon type="contour" points="7.882176,10.268991 7.882448,10.469985 7.844642,10.46996 7.645461,10.469968 7.595233,10.469968 7.595128,10.383822 7.594739,10.176397 7.64626,10.176397 7.845124,10.175911 7.882176,10.175794" style="fill: white" /><polygon type="contour" points="7.804965,10.699 7.883453,10.699 7.883453,10.730663 7.883754,10.793848 7.859098,10.793759 7.764772,10.793759 7.764592,10.728199 7.764791,10.698931" style="fill: white" /><polygon type="contour" points="8.210981,11.272603 8.210981,11.366929 8.137861,11.367107 8.103669,11.367006 8.103669,11.2482 8.140591,11.2482 8.211004,11.247949" style="fill: white" /><polygon type="contour" points="8.432702,11.248249 8.432772,11.287552 8.432772,11.366911 8.358446,11.3668 8.337943,11.366929 8.337855,11.34004 8.337855,11.247949 8.358944,11.247949" style="fill: white" /><polygon type="contour" points="8.432508,10.944425 8.432702,11.028203 8.40104,11.028203 8.337855,11.027799 8.337943,11.006116 8.337943,10.920721 8.358447,10.920684 8.432553,10.920684" style="fill: white" /><polygon type="contour" points="8.432772,10.729887 8.432553,10.793799 8.41329,10.793759 8.337943,10.793759 8.337903,10.773255 8.337903,10.69915 8.358446,10.69915 8.432772,10.698931" style="fill: white" /><polygon type="contour" points="8.187276,10.699194 8.211018,10.69915 8.210981,10.718411 8.210981,10.793758 8.187276,10.793848 8.103902,10.793848 8.103902,10.772757 8.103499,10.699" style="fill: white" /><polygon type="contour" points="8.125583,10.920721 8.210981,10.920721 8.211004,10.944424 8.211004,11.027799 8.187276,11.027799 8.103669,11.028033 8.103669,10.991111 8.103902,10.920699" style="fill: white" /><polygon type="contour" points="7.883754,10.944424 7.883502,11.028033 7.764697,11.028033 7.764832,10.944424 7.764772,10.920721 7.79166,10.920699 7.883754,10.920699" style="fill: white" /><polygon type="contour" points="7.763397,11.249512 7.882189,11.249512 7.882189,11.536304 7.79879,11.536621 7.586495,11.545207 7.586707,11.352097 7.5935,11.251057 7.628329,11.250532 7.679103,11.249918 7.736472,11.249437" style="fill: white" />
</svg>
