<svg width="19.131698" height="19.131699">
<polygon type="contour" points="17.067822,14.444173 17.154222,14.443983 17.154088,14.488479 17.1541,14.516678 17.15408,14.66124 17.207886,14.661476 17.208787,14.661492 17.24945,14.661552 17.24945,14.783933 17.248956,14.994257 17.209276,14.994116 17.167127,14.994298 17.136017,14.994074 17.122915,14.994315 17.059026,14.994578 17.028202,14.994578 16.916312,14.994117 16.916182,14.69302 16.916182,14.436727" style="fill: white" /><polygon type="contour" points="16.626295,14.704448 16.626671,14.994258 16.426922,14.994632 16.294391,14.994499 16.293842,14.762499 16.293901,14.444766 16.459973,14.44957 16.626295,14.444452" style="fill: white" /><polygon type="contour" points="16.997227,15.352362 17.058874,15.352362 17.058596,15.451958 17.05854,15.54824 16.97847,15.548106 16.916082,15.548106 16.916082,15.437738 16.916158,15.352232" style="fill: white" /><polygon type="contour" points="16.626754,15.352232 16.626765,15.437738 16.626765,15.548106 16.481495,15.548106 16.293842,15.54824 16.294391,15.448144 16.294391,15.352208 16.481495,15.352106" style="fill: white" /><polygon type="contour" points="16.41033,16.916212 16.626671,16.916212 16.626671,17.059016 16.446055,17.058642 16.293842,17.058542 16.294267,16.978473 16.294267,16.916084" style="fill: white" /><polygon type="contour" points="17.248956,16.915756 17.248872,16.999298 17.249364,17.21914 17.249364,17.249366 17.118132,17.249504 17.117354,17.249368 16.915698,17.2489 16.915904,17.209278 16.915904,17.169448 16.915846,17.168102 16.915874,17.137682 16.915894,17.124721 16.91621,17.059016 16.91621,16.916214 17.059011,16.916214 17.12472,16.915894 17.13768,16.915875 17.168099,16.91585 17.209275,16.915906 17.211205,16.915742" style="fill: white" /><polygon type="contour" points="17.05864,16.446057 17.059014,16.626674 16.91621,16.626674 16.91621,16.410332 16.916082,16.294268 16.979974,16.293844 17.05854,16.293844" style="fill: white" /><polygon type="contour" points="16.481494,16.294268 16.626765,16.294268 16.626765,16.481497 16.626671,16.626674 16.500173,16.626758 16.481494,16.626767 16.294267,16.626767 16.294267,16.481497 16.293842,16.293844" style="fill: white" /><polygon type="contour" points="14.677431,16.293934 14.994498,16.294392 14.994187,16.481498 14.994256,16.626674 14.701836,16.626835 14.447474,16.627018 14.439896,16.479067 14.444305,16.29381" style="fill: white" /><polygon type="contour" points="14.994114,16.916316 14.994114,16.942329 14.994577,17.05903 14.994312,17.122917 14.994072,17.13602 14.994296,17.16713 14.994114,17.169447 14.994114,17.209277 14.994241,17.211209 14.994255,17.248956 14.783933,17.249452 14.661551,17.249452 14.661475,17.207888 14.661239,17.154082 14.443804,17.154222 14.437315,17.154062 14.426918,16.985969 14.44163,16.916148 14.700526,16.916148" style="fill: white" /><polygon type="contour" points="15.548238,16.979975 15.548238,17.058542 15.451956,17.058598 15.352361,17.058876 15.35223,16.970523 15.35223,16.916162 15.473613,16.916162 15.548104,16.916084" style="fill: white" /><polygon type="contour" points="15.548104,16.481498 15.548104,16.626767 15.437736,16.626767 15.352229,16.626758 15.352105,16.481498 15.352207,16.294392 15.440402,16.293844 15.548238,16.293844" style="fill: white" /><polygon type="contour" points="15.548238,15.440403 15.548238,15.54824 15.448143,15.54785 15.352207,15.54785 15.352207,15.448143 15.352361,15.352362 15.46335,15.352362 15.547849,15.352208" style="fill: white" /><polygon type="contour" points="14.994577,15.352362 14.994577,15.463353 14.994498,15.54785 14.677048,15.547618 14.440573,15.547933 14.443921,15.459484 14.439924,15.352352 14.671251,15.352352" style="fill: white" /><polygon type="contour" points="14.99445,14.673272 14.994577,14.994578 14.663967,14.994664 14.434827,14.994664 14.45047,14.6152 14.455146,14.505519 14.502785,14.502786 14.505518,14.455149 14.613066,14.453268 14.99445,14.441221" style="fill: white" /><polygon type="contour" points="15.54793,14.440576 15.547615,14.67705 15.547849,14.994499 15.463351,14.994578 15.352361,14.994578 15.35235,14.671254 15.35235,14.439926 15.428559,14.436179" style="fill: white" /><polygon type="contour" points="15.548104,2.650204 15.548238,2.83786 15.448142,2.837312 15.352206,2.837312 15.352105,2.650204 15.352229,2.504946 15.473613,2.504946 15.548104,2.504936" style="fill: white" /><polygon type="contour" points="14.701836,2.504867 14.994256,2.505029 14.99463,2.704779 14.994497,2.837312 14.677432,2.837769 14.444305,2.837894 14.450556,2.631681 14.447475,2.504684" style="fill: white" /><polygon type="contour" points="14.994255,1.882747 14.994114,1.922425 14.994295,1.964574 14.994072,1.995683 14.994312,2.008785 14.994577,2.072673 14.994577,2.103496 14.994114,2.215387 14.700526,2.215557 14.441631,2.215557 14.426918,2.145735 14.437315,1.977641 14.443804,1.97748 14.661239,1.977618 14.661475,1.923816 14.661491,1.922912 14.661551,1.882252 14.783933,1.882252" style="fill: white" /><polygon type="contour" points="15.451956,2.073103 15.548238,2.073161 15.548104,2.153229 15.548104,2.215619 15.473613,2.215542 15.35223,2.215542 15.352361,2.134471 15.352361,2.072825" style="fill: white" /><polygon type="contour" points="17.249364,1.882338 17.249364,1.912564 17.248872,2.132406 17.248956,2.215948 17.209276,2.215797 17.169446,2.215797 17.168099,2.215855 17.13768,2.215828 17.124719,2.215808 17.059011,2.21549 16.916214,2.21549 16.916214,2.190546 16.91621,2.07269 16.915894,2.006981 16.915874,1.99402 16.915846,1.963601 16.915906,1.922426 16.91574,1.920495 16.915698,1.882803 17.117353,1.882335 17.118131,1.882201" style="fill: white" /><polygon type="contour" points="16.626674,2.165602 16.626674,2.21549 16.410329,2.21549 16.294265,2.215619 16.293842,2.151728 16.293842,2.073161 16.446055,2.073061 16.626671,2.07269" style="fill: white" /><polygon type="contour" points="16.626673,2.505029 16.626671,2.721371 16.626765,2.837436 16.481494,2.837436 16.293842,2.83786 16.294265,2.650204 16.294265,2.504936 16.481498,2.504936" style="fill: white" /><polygon type="contour" points="17.05864,2.685645 17.05854,2.83786 16.97847,2.837436 16.916082,2.837436 16.91621,2.721371 16.916212,2.505029 17.059014,2.505029" style="fill: white" /><polygon type="contour" points="17.058796,3.683558 17.058874,3.779341 16.97052,3.779038 16.916158,3.779038 16.916158,3.658087 16.916082,3.583598 16.979973,3.583463 17.05854,3.583463" style="fill: white" /><polygon type="contour" points="17.122915,4.137389 17.136018,4.13763 17.167127,4.137407 17.169446,4.137589 17.209276,4.137589 17.211205,4.13746 17.248956,4.137448 17.24945,4.34777 17.24945,4.470151 17.207886,4.470228 17.154078,4.470463 17.15443,4.687855 17.154409,4.694367 16.985098,4.71153 16.916182,4.694977 16.916182,4.438684 16.916312,4.137588 16.942325,4.137588 17.059026,4.137125" style="fill: white" /><polygon type="contour" points="16.626671,4.137445 16.626295,4.427255 16.626295,4.687251 16.459973,4.682132 16.293901,4.686937 16.294375,4.453797 16.294391,4.137203 16.426923,4.13707" style="fill: white" /><polygon type="contour" points="16.481495,3.583598 16.626765,3.583598 16.626765,3.69357 16.626754,3.779038 16.481495,3.779203 16.294391,3.779496 16.293842,3.6913 16.293842,3.583463" style="fill: white" /><polygon type="contour" points="15.547849,3.683559 15.547849,3.779496 15.448142,3.779496 15.352361,3.779341 15.352361,3.668349 15.352207,3.583854 15.4404,3.583463 15.548237,3.583463" style="fill: white" /><polygon type="contour" points="15.547849,4.137204 15.547615,4.454653 15.54793,4.691128 15.459482,4.687781 15.35235,4.691778 15.35235,4.460449 15.352361,4.137125 15.463351,4.137125" style="fill: white" /><polygon type="contour" points="14.994577,4.137125 14.99445,4.45843 14.99445,4.690481 14.613066,4.678437 14.505518,4.676556 14.502782,4.628864 14.455156,4.62621 14.45047,4.516503 14.434827,4.13704 14.663967,4.13704" style="fill: white" /><polygon type="contour" points="14.677048,3.584087 14.994498,3.583854 14.994498,3.683558 14.994577,3.779341 14.671252,3.779352 14.439924,3.779352 14.436176,3.70314 14.440573,3.583772" style="fill: white" /><polygon type="contour" points="4.681231,4.516502 4.676554,4.626184 4.628917,4.628919 4.626182,4.676556 4.518634,4.678437 4.137249,4.690481 4.137249,4.45843 4.137122,4.137125 4.467734,4.13704 4.696874,4.13704" style="fill: white" /><polygon type="contour" points="4.687779,3.67222 4.691777,3.779352 4.460447,3.779352 4.137123,3.779341 4.137123,3.668349 4.137202,3.583854 4.454651,3.584087 4.691127,3.583772" style="fill: white" /><polygon type="contour" points="4.691804,2.652636 4.687395,2.837894 4.454266,2.837769 4.137202,2.837312 4.137512,2.650205 4.137444,2.505029 4.429865,2.504867 4.684226,2.504684" style="fill: white" /><polygon type="contour" points="4.470226,1.923817 4.470461,1.977618 4.615023,1.977601 4.643223,1.977612 4.68772,1.977478 4.695229,2.094945 4.690069,2.215557 4.431173,2.215557 4.137586,2.215387 4.137586,2.189372 4.137123,2.072673 4.137387,2.008786 4.137629,1.995683 4.137405,1.964574 4.137587,1.962257 4.137587,1.922425 4.137458,1.920494 4.137446,1.882747 4.347768,1.882252 4.470149,1.882252" style="fill: white" /><polygon type="contour" points="3.779037,2.504946 3.779202,2.650205 3.779494,2.837312 3.691297,2.83786 3.583461,2.83786 3.583596,2.650204 3.583596,2.504936 3.693569,2.504936" style="fill: white" /><polygon type="contour" points="3.779037,2.161177 3.779037,2.215542 3.658085,2.215542 3.583596,2.215619 3.583461,2.151727 3.583461,2.073161 3.679741,2.073103 3.779339,2.072825" style="fill: white" /><polygon type="contour" points="2.014346,1.882335 2.216002,1.882803 2.215795,1.922425 2.215795,1.962256 2.215853,1.963601 2.215826,1.99402 2.215808,2.006981 2.215488,2.07269 2.215488,2.21549 2.072689,2.21549 2.00698,2.215809 1.994018,2.215828 1.963599,2.215855 1.922425,2.215797 1.920493,2.215961 1.882745,2.215948 1.882828,2.132407 1.882336,1.912564 1.882336,1.882338 2.013567,1.882201" style="fill: white" /><polygon type="contour" points="2.685644,2.073061 2.837858,2.073161 2.837434,2.15323 2.837434,2.215619 2.721369,2.21549 2.505027,2.21549 2.505027,2.07269" style="fill: white" /><polygon type="contour" points="2.837434,2.650204 2.837858,2.83786 2.650202,2.837436 2.504934,2.837436 2.504934,2.650204 2.505027,2.505029 2.631524,2.504946 2.650203,2.504936 2.837434,2.504936" style="fill: white" /><polygon type="contour" points="2.215488,2.72137 2.215617,2.837436 2.151727,2.83786 2.07316,2.83786 2.07306,2.685646 2.072689,2.505029 2.215488,2.505029" style="fill: white" /><polygon type="contour" points="2.153227,3.583598 2.215617,3.583598 2.215617,3.69357 2.21554,3.779038 2.134469,3.779341 2.072823,3.779341 2.073102,3.679743 2.07316,3.583463" style="fill: white" /><polygon type="contour" points="2.215385,4.137588 2.215519,4.438684 2.215519,4.694977 2.146605,4.71153 1.977292,4.694367 1.97727,4.687856 1.977616,4.470463 1.923814,4.470227 1.922911,4.470212 1.88225,4.470151 1.88225,4.34777 1.882745,4.137448 1.922424,4.137589 1.964573,4.137407 1.995681,4.13763 2.008783,4.13739 2.072673,4.137125 2.103494,4.137125" style="fill: white" /><polygon type="contour" points="2.837311,4.137204 2.837858,4.369202 2.837798,4.686937 2.671725,4.682132 2.505403,4.687251 2.505403,4.427255 2.505027,4.137446 2.704779,4.137071" style="fill: white" /><polygon type="contour" points="2.837311,3.683558 2.837311,3.779496 2.650203,3.779203 2.504944,3.779038 2.504934,3.69357 2.504934,3.583598 2.650202,3.583598 2.837858,3.583463" style="fill: white" /><polygon type="contour" points="3.683558,3.583854 3.779494,3.583854 3.779494,3.683558 3.779339,3.779341 3.668348,3.779341 3.583852,3.779496 3.583461,3.6913 3.583461,3.583463" style="fill: white" /><polygon type="contour" points="3.779351,4.46045 3.779351,4.691778 3.703138,4.695525 3.583769,4.691128 3.584085,4.454653 3.583852,4.137204 3.668348,4.137125 3.779339,4.137125" style="fill: white" /><polygon type="contour" points="2.671725,14.449571 2.837798,14.444766 2.837326,14.677906 2.837309,14.9945 2.704778,14.994633 2.505027,14.994257 2.505403,14.704448 2.505403,14.444452" style="fill: white" /><polygon type="contour" points="2.215519,14.436727 2.215519,14.69302 2.215385,14.994117 2.189371,14.994117 2.072672,14.994579 2.008784,14.994315 1.99568,14.994074 1.964573,14.994298 1.962255,14.994116 1.922425,14.994116 1.920493,14.994243 1.882745,14.994257 1.88225,14.783934 1.88225,14.661552 1.923815,14.661476 1.977616,14.66124 1.977599,14.516678 1.977611,14.488479 1.977477,14.443982 2.094944,14.436474" style="fill: white" /><polygon type="contour" points="2.21554,15.473616 2.215617,15.548106 2.151726,15.54824 2.07316,15.54824 2.072903,15.448145 2.072823,15.352362 2.161176,15.352232 2.21554,15.352232" style="fill: white" /><polygon type="contour" points="2.837309,15.352208 2.837858,15.440403 2.837858,15.54824 2.650202,15.548106 2.504934,15.548106 2.504934,15.437738 2.504944,15.352232 2.650202,15.352106" style="fill: white" /><polygon type="contour" points="4.683965,17.068902 4.68772,17.154223 4.643222,17.154091 4.615023,17.154102 4.470461,17.154082 4.470226,17.207887 4.470209,17.208792 4.470148,17.249452 4.347768,17.249452 4.137446,17.248958 4.137587,17.209278 4.137405,17.167127 4.137629,17.13602 4.137388,17.122917 4.137123,17.05903 4.137123,17.028206 4.137586,16.916316 4.431173,16.916148 4.690069,16.916148" style="fill: white" /><polygon type="contour" points="4.681143,16.500019 4.684226,16.627018 4.429864,16.626835 4.137444,16.626674 4.137068,16.426922 4.137202,16.294392 4.454267,16.293934 4.687395,16.29381" style="fill: white" /><polygon type="contour" points="4.695524,15.428562 4.691126,15.547933 4.454651,15.547618 4.137202,15.54785 4.137202,15.448144 4.137123,15.352362 4.460448,15.352352 4.691777,15.352352" style="fill: white" /><polygon type="contour" points="4.518634,14.453267 4.626182,14.455149 4.62892,14.502839 4.676543,14.505493 4.681231,14.615201 4.696874,14.994664 4.467734,14.994664 4.137123,14.994578 4.137249,14.673272 4.137249,14.441221" style="fill: white" /><polygon type="contour" points="3.779351,14.671253 3.779338,14.994578 3.668348,14.994578 3.583852,14.994499 3.584085,14.67705 3.583769,14.440576 3.672218,14.443923 3.779351,14.439926" style="fill: white" /><polygon type="contour" points="3.779339,15.352362 3.779339,15.463353 3.779494,15.54785 3.691297,15.54824 3.583461,15.54824 3.583852,15.448143 3.583852,15.352208 3.683558,15.352208" style="fill: white" /><polygon type="contour" points="3.683558,16.294392 3.779494,16.294392 3.779202,16.481497 3.779037,16.626758 3.658086,16.626758 3.583596,16.626767 3.583596,16.481498 3.583461,16.293844" style="fill: white" /><polygon type="contour" points="3.658085,16.916162 3.779037,16.916162 3.779339,16.997231 3.779339,17.058876 3.67974,17.058598 3.583461,17.058542 3.583596,16.978474 3.583596,16.916084" style="fill: white" /><polygon type="contour" points="2.837858,16.979976 2.837858,17.058542 2.685643,17.058642 2.505027,17.059016 2.505027,16.916212 2.72137,16.916212 2.837434,16.916084" style="fill: white" /><polygon type="contour" points="2.837434,16.481497 2.837434,16.626767 2.650202,16.626767 2.505027,16.626674 2.505027,16.410332 2.504934,16.294268 2.650202,16.294268 2.837858,16.293844" style="fill: white" /><polygon type="contour" points="2.153228,16.294268 2.215617,16.294268 2.215488,16.410333 2.215488,16.626674 2.072689,16.626674 2.07306,16.446057 2.07316,16.293844" style="fill: white" /><polygon type="contour" points="1.922424,16.915906 1.962254,16.915906 1.963599,16.91585 1.994018,16.915875 2.006981,16.915894 2.072689,16.916214 2.215488,16.916214 2.215488,17.059016 2.215808,17.124722 2.215826,17.137681 2.215853,17.168104 2.215795,17.209277 2.215959,17.211209 2.216002,17.2489 2.014345,17.249368 2.013566,17.249504 1.882336,17.249366 1.882336,17.21914 1.882828,16.999297 1.882745,16.915756" style="fill: white" />
</svg>
