<svg width="19.131698" height="19.131699">
<polygon type="contour" points="8.039964,9.368277 8.039964,9.404385 8.039827,9.480591 8.016594,9.480499 7.927966,9.480499 7.927978,9.456149 7.928151,9.368868 8.003837,9.368246" style="fill: white" /><polygon type="contour" points="8.039827,9.676517 8.039781,9.762809 8.003328,9.762836 7.928151,9.762836 7.927978,9.676102 7.927966,9.651762 7.95323,9.651658 8.039827,9.651658" style="fill: white" /><polygon type="contour" points="11.372945,11.273671 11.373443,11.28713 11.375037,11.314515 11.37653,11.376532 11.27367,11.372947 11.093117,11.372867 11.093117,11.334933 11.093226,11.220068 11.093159,11.129719 11.093159,11.093162 11.18388,11.093162 11.372673,11.092926" style="fill: white" /><polygon type="contour" points="11.203733,10.629218 11.203802,10.648123 11.180602,10.648221 11.091985,10.648221 11.091985,10.628819 11.091906,10.553023 11.127254,10.552957 11.203422,10.552957" style="fill: white" /><polygon type="contour" points="11.113279,10.763258 11.203802,10.763258 11.203823,10.836631 11.203682,10.869073 11.09169,10.869073 11.09169,10.834062 11.091985,10.763211" style="fill: white" /><polygon type="contour" points="10.869052,10.784895 10.869071,10.869073 10.796201,10.868816 10.784894,10.869054 10.76321,10.869054 10.763257,10.849224 10.763257,10.763258 10.784895,10.763211 10.869052,10.763211" style="fill: white" /><polygon type="contour" points="10.869071,11.203683 10.784894,11.203717 10.763257,11.203804 10.76321,11.180605 10.76321,11.091988 10.784894,11.091988 10.869071,11.091692" style="fill: white" /><polygon type="contour" points="10.64822,11.091988 10.648122,11.113281 10.648122,11.203804 10.580894,11.203525 10.552955,11.203424 10.55302,11.167388 10.550293,11.091739 10.580985,11.091739" style="fill: white" /><polygon type="contour" points="10.322331,11.129063 10.322331,11.182171 10.322352,11.275617 10.322352,11.37268 10.179973,11.373696 10.030298,11.374617 10.029662,11.332574 10.029662,11.29119 10.029734,11.287447 10.029587,11.129298 10.02943,11.093162 10.322484,11.093162" style="fill: white" /><polygon type="contour" points="9.389166,10.763258 9.480254,10.763258 9.480345,10.784896 9.480045,10.869124 9.455185,10.869124 9.365798,10.869073 9.365747,10.834651 9.368325,10.763249" style="fill: white" /><polygon type="contour" points="9.479974,10.553141 9.479939,10.572475 9.480255,10.648123 9.457909,10.648088 9.368326,10.648088 9.368326,10.629175 9.368957,10.553033 9.403758,10.552956" style="fill: white" /><polygon type="contour" points="9.762744,10.582577 9.763375,10.648088 9.742534,10.648123 9.651445,10.648123 9.651418,10.629219 9.651178,10.553141 9.675553,10.552889 9.762744,10.552596" style="fill: white" /><polygon type="contour" points="9.763355,10.784895 9.762806,10.868989 9.675971,10.869124 9.651112,10.869124 9.651204,10.847489 9.651445,10.763258 9.67379,10.763249 9.763375,10.763249" style="fill: white" /><polygon type="contour" points="9.762807,11.091922 9.762834,11.128372 9.762834,11.203548 9.675553,11.203724 9.651204,11.203736 9.651112,11.178471 9.651112,11.091876 9.675971,11.091876" style="fill: white" /><polygon type="contour" points="9.455184,11.091876 9.480045,11.091876 9.47994,11.115109 9.47994,11.203735 9.455599,11.203723 9.368867,11.203548 9.368244,11.127865 9.368275,11.091739" style="fill: white" /><polygon type="contour" points="9.102112,11.129297 9.101966,11.287448 9.102037,11.332574 9.101403,11.374616 8.951726,11.373695 8.809349,11.372679 8.809349,11.314829 8.80937,11.182172 8.809217,11.093162 9.102268,11.093162" style="fill: white" /><polygon type="contour" points="8.868895,10.763249 9.103492,10.763249 9.103139,10.834652 9.103292,10.869073 8.809762,10.869073 8.809921,10.834707 8.810245,10.763195" style="fill: white" /><polygon type="contour" points="8.901756,10.553034 9.103361,10.553034 9.103361,10.582578 9.103492,10.648088 9.045129,10.64818 8.810245,10.64818 8.81014,10.582595 8.81014,10.552957" style="fill: white" /><polygon type="contour" points="9.102455,10.121094 9.10212,10.322811 9.014336,10.322315 8.808896,10.322806 8.808401,10.234645 8.808891,10.029582 8.897547,10.029582 9.102455,10.029246" style="fill: white" /><polygon type="contour" points="9.479975,10.092198 9.479975,10.321847 9.4556,10.322208 9.368802,10.322263 9.368802,10.2339 9.368866,10.028807 9.404738,10.028807 9.480022,10.028604" style="fill: white" /><polygon type="contour" points="9.762834,10.028807 9.762834,10.321631 9.727178,10.321549 9.651178,10.321847 9.651132,10.257947 9.651132,10.028604 9.675554,10.028604" style="fill: white" /><polygon type="contour" points="10.179972,7.758005 10.322352,7.759024 10.322352,7.816874 10.32233,7.949531 10.322484,8.038542 10.02943,8.038542 10.029587,8.002404 10.029734,7.844254 10.029661,7.799128 10.030298,7.757085" style="fill: white" /><polygon type="contour" points="11.372675,8.89706 11.372889,9.102457 11.128279,9.102457 11.092801,9.102608 11.0931,8.901466 11.0931,8.809261 11.128018,8.809409 11.322266,8.808899 11.372592,8.808899" style="fill: white" /><polygon type="contour" points="10.3233,8.897059 10.32281,9.102123 10.234153,9.102123 10.029244,9.102457 10.029244,8.809158 10.15376,8.809265 10.322804,8.808899" style="fill: white" /><polygon type="contour" points="10.321558,8.549107 10.321558,8.578747 10.229941,8.579108 10.028339,8.579108 10.028339,8.549125 10.028767,8.483616 10.087129,8.483524 10.321456,8.483524" style="fill: white" /><polygon type="contour" points="10.321778,8.296997 10.321456,8.368508 10.262805,8.368455 10.028767,8.368455 10.02856,8.297052 10.028408,8.262631 10.321939,8.262631" style="fill: white" /><polygon type="contour" points="10.64822,7.951099 10.64822,8.039716 10.628817,8.039716 10.55302,8.039796 10.552955,8.004448 10.552955,7.928279 10.629218,7.927967 10.648122,7.9279" style="fill: white" /><polygon type="contour" points="10.869071,7.928019 10.869071,8.04001 10.834059,8.04001 10.76321,8.039716 10.763257,8.018421 10.763257,7.9279 10.83663,7.927878" style="fill: white" /><polygon type="contour" points="11.373443,7.844573 11.372945,7.858032 11.372673,8.038778 11.092923,8.038778 11.092923,8.001988 11.093117,7.79677 11.093117,7.758837 11.27367,7.758757 11.37653,7.755172" style="fill: white" /><polygon type="contour" points="11.203715,8.346808 11.203802,8.368446 11.180603,8.368493 11.091985,8.368493 11.091985,8.346808 11.09169,8.262631 11.203682,8.262631" style="fill: white" /><polygon type="contour" points="11.113279,8.483581 11.203801,8.483581 11.203523,8.550807 11.203422,8.578747 11.167386,8.578682 11.091736,8.58141 11.091736,8.550717 11.091985,8.483483" style="fill: white" /><polygon type="contour" points="10.869052,8.502886 10.868814,8.578682 10.784894,8.578682 10.763194,8.578724 10.763257,8.561007 10.763257,8.483581 10.784894,8.483483 10.869052,8.483483" style="fill: white" /><polygon type="contour" points="10.869071,8.297642 10.869051,8.368493 10.849224,8.368446 10.763257,8.368446 10.76321,8.346807 10.76321,8.26265 10.784894,8.26265 10.869071,8.262631" style="fill: white" /><polygon type="contour" points="10.648122,8.282479 10.648122,8.368446 10.629218,8.368508 10.552979,8.368508 10.553021,8.346807 10.55302,8.262887 10.583251,8.262887 10.64822,8.26265" style="fill: white" /><polygon type="contour" points="10.570695,8.483581 10.648122,8.483581 10.648178,8.502484 10.648178,8.578724 10.629217,8.578724 10.552955,8.578747 10.552955,8.549108 10.552979,8.483524" style="fill: white" /><polygon type="contour" points="10.648178,8.810247 10.648087,8.868897 10.648087,9.103495 10.629174,9.103495 10.552813,9.10294 10.552736,9.01199 10.552955,8.810142 10.582593,8.810142" style="fill: white" /><polygon type="contour" points="10.869071,9.103293 10.83465,9.103141 10.763248,9.103495 10.763194,9.045132 10.763194,8.810247 10.784895,8.810145 10.869071,8.809763" style="fill: white" /><polygon type="contour" points="11.203547,9.368868 11.203722,9.456149 11.203734,9.480498 11.178469,9.480591 11.091873,9.480591 11.091873,9.45573 11.091736,9.368277 11.127862,9.368246" style="fill: white" /><polygon type="contour" points="11.115106,9.651762 11.203733,9.651762 11.203721,9.676103 11.203547,9.762836 11.12837,9.762836 11.091919,9.762809 11.091873,9.676517 11.091873,9.651658" style="fill: white" /><polygon type="contour" points="11.128278,10.029246 11.372889,10.029246 11.372675,10.234644 11.372592,10.322806 11.322266,10.322806 11.128018,10.322295 11.0931,10.322443 11.0931,10.230237 11.092801,10.029094" style="fill: white" /><polygon type="contour" points="10.869071,10.321941 10.834704,10.321779 10.763194,10.321458 10.763248,10.262807 10.763248,10.028768 10.784894,10.028674 10.869071,10.028411" style="fill: white" /><polygon type="contour" points="10.784894,10.553021 10.868814,10.553023 10.869052,10.628818 10.869052,10.648221 10.849224,10.648123 10.763257,10.648123 10.763194,10.629218 10.763194,10.55298" style="fill: white" /><polygon type="contour" points="10.648178,10.55298 10.648122,10.570696 10.648122,10.648123 10.629217,10.64818 10.552979,10.64818 10.552979,10.629219 10.552955,10.552957 10.582593,10.552957" style="fill: white" /><polygon type="contour" points="10.570695,10.763258 10.648122,10.763258 10.64822,10.784895 10.64822,10.869054 10.628816,10.869054 10.55302,10.868817 10.553021,10.784895 10.552979,10.763195" style="fill: white" /><polygon type="contour" points="10.321779,10.834707 10.321939,10.869073 10.028408,10.869073 10.028561,10.834652 10.028767,10.763249 10.087129,10.763195 10.321456,10.763195" style="fill: white" /><polygon type="contour" points="10.119569,10.552957 10.321558,10.552957 10.321558,10.582596 10.321456,10.64818 10.262805,10.648088 10.028767,10.648088 10.028339,10.582577 10.028339,10.552596" style="fill: white" /><polygon type="contour" points="10.322605,10.118618 10.322804,10.322806 10.234643,10.322881 10.02958,10.322391 10.02958,10.234155 10.029393,10.029395 10.232989,10.029384 10.322681,10.029384" style="fill: white" /><polygon type="contour" points="10.648087,10.028769 10.648178,10.087133 10.648178,10.321458 10.629218,10.321458 10.552955,10.321561 10.552593,10.229944 10.552376,10.028764 10.582265,10.028764" style="fill: white" /><polygon type="contour" points="10.648087,9.673792 10.648087,9.763377 10.628892,9.763377 10.552593,9.762746 10.552955,9.727942 10.553139,9.651728 10.572473,9.651762 10.648122,9.651447" style="fill: white" /><polygon type="contour" points="10.869123,9.651658 10.869123,9.676517 10.869071,9.765905 10.834651,9.765956 10.763248,9.763377 10.763257,9.742536 10.763257,9.651447 10.784895,9.651357" style="fill: white" /><polygon type="contour" points="10.869123,9.45573 10.869123,9.480591 10.847488,9.480499 10.763257,9.480257 10.763248,9.457911 10.763248,9.368328 10.784894,9.368348 10.869071,9.365799" style="fill: white" /><polygon type="contour" points="10.648122,9.389168 10.648122,9.480257 10.629218,9.480284 10.553139,9.480524 10.553192,9.456149 10.553031,9.368958 10.582575,9.368958 10.648087,9.368328" style="fill: white" /><polygon type="contour" points="10.321764,9.402178 10.321845,9.480524 10.257945,9.480571 10.028602,9.480571 10.028602,9.456148 10.028804,9.368868 10.123192,9.368868 10.32226,9.368803" style="fill: white" /><polygon type="contour" points="10.092196,9.651728 10.321845,9.651728 10.321901,9.676102 10.32163,9.762836 10.028805,9.762836 10.028805,9.726964 10.028602,9.651681" style="fill: white" /><polygon type="contour" points="9.763132,9.676102 9.762834,9.762836 9.675553,9.763134 9.651132,9.763134 9.651204,9.740389 9.651204,9.651762 9.675554,9.651681 9.763132,9.651681" style="fill: white" /><polygon type="contour" points="9.102895,9.40474 9.103099,9.480571 9.039504,9.480524 8.809856,9.480524 8.8098,9.456148 8.810071,9.368868 9.102895,9.368868" style="fill: white" /><polygon type="contour" points="9.103099,9.676102 9.102895,9.762836 8.897802,9.7629 8.809441,9.7629 8.809937,9.729524 8.809856,9.651728 8.873755,9.651681 9.103099,9.651681" style="fill: white" /><polygon type="contour" points="9.391312,9.651762 9.47994,9.651762 9.480022,9.676102 9.480022,9.763134 9.4556,9.763134 9.368867,9.762836 9.368867,9.726964 9.368569,9.651681" style="fill: white" /><polygon type="contour" points="9.47994,9.391315 9.47994,9.480499 9.4556,9.480571 9.368569,9.480571 9.368569,9.456149 9.368867,9.368868 9.455599,9.368571 9.480022,9.368571" style="fill: white" /><polygon type="contour" points="9.762834,9.368868 9.762834,9.404739 9.763132,9.480571 9.740387,9.480499 9.651204,9.480499 9.651132,9.456149 9.651132,9.368571 9.675553,9.368571" style="fill: white" /><polygon type="contour" points="9.762834,8.810073 9.762834,9.102897 9.726962,9.102897 9.651132,9.103101 9.651178,9.039505 9.651178,8.809858 9.675553,8.809802" style="fill: white" /><polygon type="contour" points="9.480022,8.873757 9.480022,9.103101 9.455599,9.103101 9.368867,9.102897 9.368867,8.810073 9.404522,8.810155 9.479975,8.809858" style="fill: white" /><polygon type="contour" points="9.102121,8.809314 9.102121,8.897549 9.102307,9.102308 8.898711,9.10232 8.80902,9.10232 8.809096,9.013085 8.808897,8.808898 8.897057,8.808824" style="fill: white" /><polygon type="contour" points="9.102037,7.799128 9.102037,7.840511 9.101966,7.844253 9.102112,8.002404 9.102268,8.038542 8.809217,8.038542 8.80937,8.002638 8.80937,7.949532 8.809349,7.856085 8.809349,7.759024 8.951726,7.758006 9.101403,7.757085" style="fill: white" /><polygon type="contour" points="9.480045,7.953232 9.480045,8.039828 9.455184,8.039828 9.368275,8.039965 9.368244,8.003837 9.368867,7.928153 9.455599,7.92798 9.47994,7.927968" style="fill: white" /><polygon type="contour" points="9.675553,7.92798 9.762834,7.928153 9.762834,8.00333 9.762807,8.039782 9.675971,8.039828 9.651112,8.039828 9.651204,8.016595 9.651204,7.927968" style="fill: white" /><polygon type="contour" points="9.765902,8.262631 9.765953,8.297053 9.763375,8.368455 9.742534,8.368446 9.651445,8.368446 9.651354,8.346807 9.651112,8.262578 9.675972,8.262578" style="fill: white" /><polygon type="contour" points="9.67379,8.483616 9.763375,8.483616 9.763375,8.50281 9.762744,8.579108 9.727941,8.578747 9.651178,8.578563 9.651203,8.559228 9.651445,8.483581" style="fill: white" /><polygon type="contour" points="9.480282,8.502484 9.479975,8.578563 9.455599,8.578816 9.368957,8.579108 9.368957,8.549126 9.368326,8.483616 9.389166,8.483581 9.480255,8.483581" style="fill: white" /><polygon type="contour" points="9.47994,8.284213 9.480255,8.368446 9.45791,8.368455 9.368326,8.368455 9.368346,8.346807 9.368894,8.262716 9.455185,8.262578 9.480045,8.262578" style="fill: white" /><polygon type="contour" points="9.103139,8.297053 9.103492,8.368455 9.045129,8.368508 8.810245,8.368508 8.809922,8.296997 8.809762,8.262631 9.103292,8.262631" style="fill: white" /><polygon type="contour" points="8.868895,8.483616 9.103492,8.483616 9.103361,8.549125 9.103361,8.579108 9.01213,8.578747 8.81014,8.578747 8.81014,8.549108 8.810245,8.483524" style="fill: white" /><polygon type="contour" points="7.85803,7.758757 8.038584,7.758837 8.038584,7.79677 8.038473,7.911635 8.038541,8.001984 8.038541,8.038542 7.947818,8.038542 7.759027,8.038778 7.758755,7.858031 7.758258,7.844574 7.756664,7.81719 7.755171,7.755172" style="fill: white" /><polygon type="contour" points="8.36849,7.951098 8.36849,8.039716 8.346804,8.039716 8.26263,8.04001 8.26263,7.928019 8.346804,7.927987 8.368443,7.9279" style="fill: white" /><polygon type="contour" points="8.550805,7.928179 8.578746,7.928279 8.57868,7.964315 8.57868,8.039796 8.548449,8.039796 8.48348,8.039716 8.483578,8.018421 8.483578,7.9279" style="fill: white" /><polygon type="contour" points="8.57868,8.262887 8.57868,8.346807 8.578722,8.368508 8.561004,8.368446 8.483578,8.368446 8.48348,8.346807 8.48348,8.26265 8.502883,8.26265" style="fill: white" /><polygon type="contour" points="8.578722,8.502484 8.578746,8.578747 8.549106,8.578747 8.483522,8.578724 8.483578,8.561007 8.483578,8.483581 8.502482,8.483524 8.578722,8.483524" style="fill: white" /><polygon type="contour" points="8.282476,8.483581 8.368443,8.483581 8.368505,8.502484 8.368505,8.578724 8.346804,8.578682 8.262886,8.578682 8.262649,8.502885 8.262649,8.483483" style="fill: white" /><polygon type="contour" points="8.335498,8.262887 8.346804,8.26265 8.36849,8.26265 8.368443,8.282479 8.368443,8.368445 8.346804,8.368493 8.262649,8.368493 8.262649,8.346808 8.26263,8.262631" style="fill: white" /><polygon type="contour" points="8.040008,8.297643 8.039715,8.368493 8.01842,8.368446 7.927899,8.368446 7.927876,8.295072 7.928017,8.262631 8.040008,8.262631" style="fill: white" /><polygon type="contour" points="8.039715,8.502885 8.039794,8.578682 8.004446,8.578747 7.928277,8.578747 7.927966,8.502484 7.927899,8.483581 7.951098,8.483483 8.039715,8.483483" style="fill: white" /><polygon type="contour" points="8.004576,8.809389 8.038599,8.809245 8.038599,8.899104 8.038899,9.102608 8.00342,9.102457 7.75881,9.102457 7.759024,8.89706 7.759108,8.808899 7.809433,8.808899" style="fill: white" /><polygon type="contour" points="8.296993,8.809923 8.368505,8.810247 8.368452,8.868897 8.368452,9.103495 8.346804,9.103587 8.26263,9.103293 8.26263,8.809763" style="fill: white" /><polygon type="contour" points="8.579107,8.901758 8.579107,9.103363 8.549123,9.103363 8.483613,9.103495 8.483522,9.045132 8.483522,8.810247 8.502481,8.810247 8.578746,8.810142" style="fill: white" /><polygon type="contour" points="8.579107,9.368958 8.578746,9.40376 8.578561,9.480524 8.559225,9.480499 8.483578,9.480257 8.483613,9.457911 8.483613,9.368328 8.502807,9.368328" style="fill: white" /><polygon type="contour" points="8.368452,9.368328 8.368443,9.389168 8.368443,9.480257 8.346805,9.480347 8.262576,9.48059 8.262576,9.45573 8.26263,9.365799 8.29705,9.365749" style="fill: white" /><polygon type="contour" points="8.368452,9.673792 8.368452,9.763377 8.346805,9.763357 8.262713,9.762809 8.262576,9.676518 8.262576,9.651658 8.284211,9.651762 8.368443,9.651447" style="fill: white" /><polygon type="contour" points="8.578561,9.651728 8.578508,9.676102 8.578669,9.762746 8.549124,9.762746 8.483613,9.763377 8.483578,9.742536 8.483578,9.651446 8.502481,9.651419" style="fill: white" /><polygon type="contour" points="8.578746,10.119572 8.578746,10.321561 8.549106,10.321561 8.483522,10.321458 8.483613,10.262807 8.483613,10.028769 8.502526,10.028769 8.578668,10.028341" style="fill: white" /><polygon type="contour" points="8.297049,10.028563 8.368452,10.028769 8.368505,10.087133 8.368505,10.321458 8.346804,10.32156 8.26263,10.321941 8.26263,10.028411" style="fill: white" /><polygon type="contour" points="8.002402,10.029589 8.038541,10.029432 8.0386,10.230237 8.0386,10.322444 8.00368,10.322296 7.809433,10.322806 7.759108,10.322806 7.759024,10.234644 7.75881,10.029246 7.81117,10.029246" style="fill: white" /><polygon type="contour" points="8.039964,10.580986 8.039715,10.648221 8.01842,10.648123 7.927899,10.648123 7.928178,10.580895 7.928277,10.552957 7.964313,10.553023 8.039964,10.550294" style="fill: white" /><polygon type="contour" points="8.039715,10.784895 8.040008,10.869073 7.928017,10.869073 7.927986,10.784895 7.927899,10.763258 7.951097,10.763211 8.039715,10.763211" style="fill: white" /><polygon type="contour" points="8.282476,10.763258 8.368442,10.763258 8.36849,10.784896 8.36849,10.869054 8.346805,10.869054 8.26263,10.869073 8.26263,10.834062 8.262649,10.763211" style="fill: white" /><polygon type="contour" points="8.368443,10.570697 8.368443,10.648123 8.346805,10.648221 8.262649,10.648221 8.262649,10.628819 8.262886,10.553023 8.346804,10.553021 8.368505,10.552979" style="fill: white" /><polygon type="contour" points="8.578746,10.582595 8.578722,10.64818 8.561005,10.648123 8.483578,10.648123 8.483522,10.629219 8.483522,10.55298 8.502482,10.55298 8.578746,10.552957" style="fill: white" /><polygon type="contour" points="8.57868,10.784895 8.57868,10.868817 8.548448,10.868817 8.48348,10.869054 8.483578,10.849224 8.483578,10.763258 8.502482,10.763195 8.578722,10.763195" style="fill: white" /><polygon type="contour" points="8.578746,11.127254 8.578746,11.203423 8.502481,11.203735 8.483578,11.203804 8.48348,11.180604 8.48348,11.091988 8.502882,11.091988 8.57868,11.091908" style="fill: white" /><polygon type="contour" points="8.36849,11.091988 8.368443,11.113281 8.368443,11.203803 8.29507,11.203824 8.26263,11.203683 8.26263,11.091692 8.29764,11.091692" style="fill: white" /><polygon type="contour" points="8.038777,11.129715 8.038584,11.334933 8.038584,11.372867 7.85803,11.372947 7.75517,11.376532 7.758258,11.287129 7.758755,11.273672 7.759027,11.092926 8.038777,11.092926" style="fill: white" />
</svg>
