<svg width="19.131698" height="19.131699">
<polygon type="contour" points="10.361704,8.595493 10.381701,8.598103 10.39364,8.601552 10.413199,8.607203 10.424076,8.612508 10.441898,8.621202 10.451982,8.628365 10.468501,8.6401 10.477256,8.648856 10.491598,8.663201 10.498763,8.673284 10.510498,8.689802 10.515804,8.70068 10.524499,8.718503 10.527948,8.730441 10.533601,8.750002 10.535192,8.762206 10.537801,8.782203 10.53727,8.794406 10.536401,8.814401 10.534012,8.826605 10.530099,8.846601 10.525588,8.85801 10.5182,8.876701 10.511833,8.887313 10.501398,8.904702 10.493438,8.913988 10.480399,8.929202 10.480399,10.2025 10.501399,10.227002 10.507766,10.237614 10.5182,10.255002 10.522711,10.266411 10.530098,10.285101 10.532488,10.297307 10.5364,10.317303 10.536931,10.329507 10.537801,10.349502 10.536208,10.361707 10.5336,10.381702 10.53015,10.393641 10.524499,10.4132 10.519192,10.424079 10.510499,10.4419 10.503334,10.451984 10.491599,10.468502 10.4685,10.491601 10.458418,10.498764 10.441899,10.5105 10.43102,10.515808 10.413199,10.524501 10.401259,10.527951 10.381701,10.533602 10.369496,10.535193 10.3495,10.537803 10.337296,10.537272 10.317301,10.536403 10.305097,10.534014 10.285099,10.530101 10.273691,10.525591 10.254999,10.518202 10.244387,10.511835 10.227,10.501401 10.217713,10.493441 10.202499,10.480402 8.929199,10.480402 8.904699,10.501401 8.894087,10.507768 8.8767,10.518203 8.865291,10.522713 8.846601,10.5301 8.834395,10.53249 8.814399,10.536402 8.802195,10.536933 8.7822,10.537803 8.769995,10.53621 8.749999,10.533602 8.738059,10.530152 8.718501,10.524502 8.707623,10.519195 8.6898,10.510501 8.679717,10.503336 8.663199,10.491601 8.654444,10.482846 8.640099,10.468502 8.632936,10.458419 8.621202,10.441901 8.615896,10.431023 8.607202,10.413201 8.603751,10.401261 8.598099,10.381701 8.596508,10.369497 8.5939,10.349501 8.59443,10.337298 8.5953,10.317303 8.597688,10.305099 8.601602,10.285101 8.606112,10.273693 8.6135,10.255002 8.619868,10.244389 8.6303,10.227001 8.63826,10.217715 8.651301,10.202501 8.651301,8.929202 8.630299,8.904701 8.623932,8.894089 8.6135,8.876701 8.608989,8.865292 8.601602,8.846602 8.599212,8.834396 8.5953,8.814401 8.594769,8.802197 8.5939,8.782202 8.595492,8.769997 8.598099,8.750002 8.60155,8.738062 8.607201,8.718503 8.612507,8.707625 8.621202,8.689802 8.628365,8.679719 8.6401,8.6632 8.648855,8.654444 8.663199,8.6401 8.673281,8.632938 8.689801,8.621202 8.700678,8.615897 8.7185,8.607203 8.73044,8.603753 8.749999,8.598103 8.762204,8.59651 8.7822,8.593902 8.794404,8.594432 8.814399,8.595302 8.826603,8.59769 8.846601,8.601604 8.858009,8.606114 8.8767,8.613502 8.887312,8.619868 8.9047,8.630301 8.913986,8.638261 8.9292,8.651302 10.202499,8.651302 10.227,8.6303 10.237612,8.623934 10.255,8.613502 10.266408,8.608992 10.2851,8.601604 10.297305,8.599214 10.317301,8.595302 10.329505,8.594771 10.3495,8.593902" style="fill: white" />
</svg>
