<svg width="19.131698" height="19.131699">
<polygon type="contour" points="10.425173,8.915431 10.423388,9.010694 10.382934,9.010694 10.257481,9.010737 10.256772,9.152577 10.256756,9.214894 10.256772,9.277786 10.257465,9.420602 10.423748,9.420602 10.423988,9.474838 10.42526,9.566202 10.424622,9.670956 10.423748,9.711102 10.257465,9.711102 10.256772,9.853917 10.256756,9.916809 10.256772,9.979127 10.257481,10.120967 10.382934,10.121011 10.423388,10.121011 10.425173,10.216272 10.4292,10.429202 10.290289,10.42793 10.121388,10.423816 10.121283,10.420355 10.121264,10.420003 10.121236,10.415343 10.121203,10.380277 10.121092,10.257481 9.979124,10.256774 9.916807,10.25676 9.853916,10.256773 9.711101,10.257464 9.711101,10.423379 9.680338,10.423386 9.658019,10.424045 9.565501,10.425388 9.511242,10.425037 9.473428,10.424045 9.451215,10.423386 9.4206,10.423379 9.4206,10.257464 9.277784,10.256773 9.214893,10.25676 9.152576,10.256774 9.010498,10.257482 9.010498,10.380277 9.010465,10.415343 9.010437,10.416217 9.010437,10.420003 9.010313,10.423816 8.841411,10.42793 8.7025,10.429202 8.706526,10.216272 8.70831,10.121011 8.748764,10.121011 8.87422,10.120967 8.874926,9.979127 8.874941,9.916809 8.874926,9.853917 8.874237,9.711102 8.707952,9.711102 8.707712,9.657126 8.706439,9.566201 8.707078,9.460942 8.707952,9.420602 8.874237,9.420602 8.874926,9.277786 8.874941,9.214894 8.874926,9.152577 8.87422,9.010737 8.748764,9.010694 8.70831,9.010694 8.706527,8.915432 8.7025,8.702501 8.841411,8.703773 9.010313,8.707888 9.010417,8.711348 9.010436,8.7117 9.010465,8.71636 9.010497,8.751426 9.010608,8.874224 9.152575,8.874928 9.214893,8.874941 9.277784,8.874928 9.4206,8.874241 9.4206,8.708323 9.451361,8.708316 9.473682,8.707658 9.565952,8.706316 9.620456,8.706666 9.658273,8.707659 9.680485,8.708316 9.711101,8.708323 9.711101,8.874241 9.853916,8.874928 9.916807,8.874941 9.979125,8.874928 10.121203,8.874224 10.121203,8.751426 10.121236,8.71636 10.121264,8.715455 10.121264,8.711701 10.121388,8.707888 10.290289,8.703773 10.4292,8.702501" style="fill: white" />
</svg>
