<svg width="19.131698" height="19.131699">
<polygon type="contour" points="9.588913,9.334492 9.61514,9.33783 9.627858,9.341623 9.652653,9.349255 9.664703,9.355279 9.68807,9.3672 9.698779,9.375232 9.719763,9.390969 9.729136,9.400565 9.747255,9.419163 9.754619,9.43032 9.769401,9.452255 9.77498,9.464528 9.785947,9.488369 9.789295,9.501312 9.795494,9.526585 9.79661,9.539974 9.798996,9.566202 9.79788,9.579367 9.795494,9.605118 9.792146,9.618061 9.785947,9.643333 9.780369,9.655605 9.769401,9.679449 9.762037,9.690607 9.747254,9.712542 9.737883,9.722136 9.719763,9.740734 9.709053,9.748766 9.68807,9.764504 9.676019,9.770529 9.652654,9.782448 9.639935,9.786242 9.61514,9.793874 9.601974,9.795658 9.575746,9.798997 9.562359,9.798327 9.53613,9.796896 9.522964,9.794219 9.497691,9.788973 9.485195,9.78384 9.460876,9.773825 9.449495,9.766907 9.427084,9.753556 9.417041,9.744629 9.397491,9.726987 9.389011,9.716723 9.372321,9.696696 9.365849,9.684868 9.353453,9.66198 9.348991,9.649484 9.339929,9.624687 9.337696,9.611521 9.333404,9.585771 9.333404,9.545933 9.335636,9.532766 9.339929,9.507016 9.344391,9.494519 9.353452,9.469725 9.359924,9.457898 9.372321,9.435008 9.3808,9.424745 9.397491,9.404717 9.407533,9.39579 9.427084,9.378146 9.438464,9.371227 9.460876,9.357875 9.473372,9.352743 9.497692,9.34273 9.510856,9.340052 9.53613,9.334807 9.549517,9.334138 9.575746,9.332707" style="fill: white" />
</svg>
