<svg width="19.131698" height="19.131699">
<polygon type="contour" points="1.175674,17.639054 1.191904,17.639054 1.192452,17.639032 1.204846,17.639042 1.210126,17.639049 1.246672,17.639226 1.268586,17.639287 1.349327,17.639572 1.492128,17.639572 1.492128,17.782376 1.492413,17.863116 1.492475,17.885031 1.492653,17.921575 1.492659,17.926855 1.492671,17.93925 1.492647,17.956027 1.492714,17.956814 1.492732,17.972172 1.221837,17.9728 1.221466,17.972864 1.158903,17.972798 1.158903,17.958389 1.159541,17.673032 1.159508,17.638992" style="fill: white" /><polygon type="contour" points="1.492239,16.470692 1.492562,16.667679 1.492631,16.701218 1.492423,16.758148 1.492128,16.850914 1.492128,16.86329 1.349328,16.86329 1.349359,16.852207 1.349623,16.758148 1.34983,16.701217 1.349761,16.667678 1.349507,16.466292 1.349457,16.426118 1.492256,16.426118" style="fill: white" /><polygon type="contour" points="2.464024,16.425709 2.657291,16.426118 2.705584,16.426118 2.70599,16.667679 2.706052,16.758148 2.705922,16.849763 2.705922,16.863248 2.527228,16.863184 2.373551,16.863184 2.280784,16.86329 2.268409,16.86329 2.268517,16.758149 2.268517,16.604474 2.268451,16.42578 2.373551,16.425649" style="fill: white" /><polygon type="contour" points="2.705584,17.782244 2.464024,17.78194 2.430484,17.78187 2.373551,17.782078 2.279491,17.782339 2.268409,17.782372 2.268409,17.639576 2.373552,17.639655 2.430484,17.639651 2.464024,17.63965 2.661007,17.639462 2.705584,17.639444" style="fill: white" /><polygon type="contour" points="4.043925,17.639458 4.034398,17.74341 4.044335,17.87752 3.933456,17.877567 3.879793,17.877576 3.746841,17.87756 3.746841,17.943008 3.746798,17.953024 3.74679,17.953456 3.746761,17.97284 3.688417,17.97284 3.414208,17.972194 3.414266,17.956028 3.414192,17.938854 3.414283,17.926179 3.414185,17.92084 3.414025,17.882291 3.413975,17.858809 3.413923,17.782078 3.413923,17.700255 3.414011,17.639502 3.90428,17.639428" style="fill: white" /><polygon type="contour" points="4.032252,16.426144 4.033746,16.468195 4.026359,16.667679 4.026627,16.701217 4.026112,16.758149 4.029363,16.851633 4.028973,16.86329 3.447417,16.86329 3.414288,16.863248 3.414247,16.758149 3.414131,16.701217 3.414063,16.667679 3.413757,16.474408 3.413757,16.426118 3.955652,16.426118" style="fill: white" /><polygon type="contour" points="4.039057,15.092645 4.034432,15.447518 4.03768,15.717646 3.914793,15.717756 3.413923,15.71778 3.414117,15.224726 3.414117,15.085424 3.909414,15.082655" style="fill: white" /><polygon type="contour" points="2.705297,15.100098 2.705584,15.641227 2.705584,15.717945 2.464023,15.717639 2.430484,15.717571 2.373551,15.717455 2.281935,15.717415 2.268451,15.717415 2.268451,15.139381 2.268409,15.102728 2.280064,15.102339 2.373551,15.105591 2.430484,15.105076 2.464023,15.105345 2.489908,15.105489 2.49686,15.105615 2.666333,15.098763" style="fill: white" /><polygon type="contour" points="1.492214,15.091046 1.492219,15.216534 1.492199,15.717691 1.413021,15.717691 1.349624,15.71778 1.272891,15.717728 1.249411,15.717678 1.210861,15.717517 1.205523,15.717419 1.192847,15.717511 1.191903,15.717437 1.175675,15.717437 1.174887,15.717489 1.159508,15.717495 1.158862,15.443283 1.158862,15.38494 1.178677,15.384904 1.188694,15.38486 1.254141,15.38486 1.254124,15.251907 1.254133,15.198245 1.254183,15.087367 1.386927,15.087367" style="fill: white" /><polygon type="contour" points="1.221836,1.158903 1.492732,1.159532 1.492648,1.175677 1.492648,1.191906 1.492671,1.192452 1.492659,1.204848 1.492653,1.210128 1.492475,1.246673 1.492412,1.268588 1.492128,1.349329 1.492128,1.49213 1.349326,1.49213 1.268586,1.492415 1.246672,1.492476 1.210126,1.492654 1.204846,1.492661 1.192451,1.492673 1.175675,1.492649 1.174888,1.492716 1.159508,1.492711 1.159541,1.458671 1.158903,1.173315 1.158903,1.158905 1.221465,1.15884" style="fill: white" /><polygon type="contour" points="3.914792,3.413947 4.03768,3.414057 4.034432,3.684185 4.049046,3.909416 4.039057,4.039059 3.660376,4.03696 3.414117,4.046279 3.414117,3.906977 3.413923,3.413925" style="fill: white" /><polygon type="contour" points="2.705297,3.96076 2.705297,4.031605 2.49686,4.026089 2.489908,4.026215 2.464023,4.02636 2.430484,4.026628 2.373551,4.026113 2.280064,4.029365 2.268409,4.028976 2.268409,3.447418 2.268451,3.414289 2.373551,3.414248 2.430484,3.414132 2.464024,3.414064 2.657291,3.413759 2.705584,3.413759" style="fill: white" /><polygon type="contour" points="1.492199,3.414013 1.492199,3.779528 1.492202,4.040506 1.376578,4.03011 1.312299,4.04065 1.254394,4.041793 1.254021,3.864156 1.253976,3.850549 1.254141,3.746843 1.188693,3.746843 1.178678,3.7468 1.178246,3.746792 1.158862,3.746763 1.158862,3.688419 1.159508,3.41421 1.175674,3.414268 1.192847,3.414194 1.205523,3.414284 1.210861,3.414187 1.249411,3.414027 1.272892,3.413976 1.349623,3.413925 1.431445,3.413925" style="fill: white" /><polygon type="contour" points="1.492423,2.373554 1.492631,2.430485 1.492562,2.464024 1.492239,2.66101 1.492256,2.705586 1.349456,2.705586 1.349761,2.464025 1.34983,2.430486 1.349623,2.373553 1.349358,2.279492 1.349328,2.268411 1.492128,2.268411" style="fill: white" /><polygon type="contour" points="2.373551,2.268519 2.527228,2.268519 2.705922,2.268453 2.706051,2.373554 2.705922,2.396377 2.705584,2.705586 2.464023,2.705992 2.373552,2.706054 2.281934,2.705923 2.268451,2.705923 2.268517,2.52723 2.268517,2.373553 2.268409,2.280786 2.268409,2.268411" style="fill: white" /><polygon type="contour" points="2.279491,1.349361 2.37355,1.349624 2.430483,1.349832 2.464022,1.349764 2.665409,1.349508 2.705584,1.349459 2.705584,1.492258 2.661008,1.492241 2.464024,1.492563 2.430483,1.492633 2.373552,1.492425 2.280784,1.49213 2.268409,1.49213 2.268409,1.349329" style="fill: white" /><polygon type="contour" points="3.746798,1.178678 3.746841,1.188696 3.746841,1.254142 3.879794,1.254126 3.933455,1.254135 4.044336,1.254185 4.034399,1.388291 4.043925,1.492242 3.90428,1.492273 3.414011,1.492201 3.414011,1.413023 3.413923,1.349624 3.413975,1.272894 3.414025,1.249412 3.414185,1.210863 3.414283,1.205525 3.414192,1.192849 3.414266,1.191905 3.414266,1.175677 3.414214,1.174889 3.414208,1.15951 3.688417,1.158864 3.746761,1.158864" style="fill: white" /><polygon type="contour" points="4.029363,2.280066 4.026112,2.373553 4.026626,2.430485 4.026359,2.464025 4.032252,2.705559 3.491465,2.705559 3.413757,2.705586 3.413757,2.657294 3.414063,2.464024 3.414131,2.430486 3.414247,2.373553 3.414288,2.281937 3.414288,2.268453 3.992321,2.268453 4.028974,2.268411" style="fill: white" /><polygon type="contour" points="15.717493,1.15951 15.717435,1.175676 15.717509,1.19285 15.717417,1.205525 15.717515,1.210863 15.717676,1.249412 15.717728,1.272893 15.717777,1.349625 15.717777,1.431446 15.71769,1.492201 15.439726,1.49213 15.087673,1.492434 15.091049,1.312299 15.089878,1.254539 15.267681,1.25441 15.281132,1.254077 15.38486,1.254142 15.38486,1.188695 15.384903,1.178679 15.384911,1.178249 15.38494,1.158864 15.443283,1.158864" style="fill: white" /><polygon type="contour" points="15.717412,2.268453 15.717453,2.373553 15.717567,2.430485 15.717635,2.464024 15.717942,2.657294 15.717942,2.705586 15.176047,2.705586 15.099448,2.705559 15.097954,2.663507 15.105341,2.464025 15.105074,2.430485 15.105588,2.373553 15.102336,2.280066 15.102725,2.268411 15.684282,2.268411" style="fill: white" /><polygon type="contour" points="17.858808,3.413976 17.882287,3.414027 17.920838,3.414186 17.926175,3.414284 17.938851,3.414192 17.939795,3.414268 17.956026,3.414268 17.956812,3.414214 17.972192,3.414209 17.972838,3.688419 17.972838,3.746763 17.953021,3.7468 17.943003,3.746843 17.877556,3.746843 17.877724,3.85055 17.877677,3.864156 17.877304,4.041793 17.755121,4.03011 17.639498,4.040506 17.6395,3.779528 17.6395,3.414013 17.718675,3.414013 17.782073,3.413925" style="fill: white" /><polygon type="contour" points="17.782335,2.279493 17.782074,2.373553 17.781866,2.430485 17.781936,2.464025 17.782191,2.665409 17.782242,2.705586 17.639444,2.705586 17.639461,2.66101 17.639648,2.464024 17.639649,2.430486 17.639654,2.373554 17.639574,2.280785 17.639574,2.268411 17.782368,2.268411" style="fill: white" /><polygon type="contour" points="17.972796,1.158905 17.972796,1.173315 17.972158,1.458671 17.972192,1.492711 17.956025,1.492649 17.939796,1.492649 17.939248,1.492673 17.926853,1.492661 17.921574,1.492654 17.885029,1.492476 17.863114,1.492415 17.782374,1.49213 17.639572,1.49213 17.639572,1.349328 17.639286,1.268588 17.639224,1.246673 17.639047,1.210128 17.639039,1.204847 17.639028,1.192453 17.639052,1.175676 17.638986,1.174889 17.638968,1.159532 17.909863,1.158902 17.910233,1.15884" style="fill: white" /><polygon type="contour" points="16.863288,1.49213 16.758146,1.492425 16.701216,1.492633 16.667677,1.492564 16.47069,1.492241 16.426116,1.492258 16.426116,1.349458 16.667676,1.349763 16.701215,1.349832 16.758147,1.349624 16.852205,1.349361 16.863288,1.349329" style="fill: white" /><polygon type="contour" points="16.86318,2.373554 16.86318,2.52723 16.863246,2.705923 16.758146,2.706054 16.667677,2.705992 16.474406,2.705586 16.426116,2.705586 16.425706,2.464025 16.425646,2.373553 16.42578,2.281936 16.42578,2.268453 16.604472,2.268519 16.758147,2.268519 16.850911,2.268411 16.863288,2.268411" style="fill: white" /><polygon type="contour" points="16.667676,3.414064 16.701215,3.414132 16.758147,3.414248 16.849761,3.414289 16.863246,3.414289 16.863246,3.992323 16.863288,4.028975 16.851631,4.029364 16.758147,4.026113 16.701215,4.026628 16.667676,4.026359 16.641792,4.026215 16.634841,4.026089 16.465364,4.03294 16.426403,4.031605 16.426116,3.490475 16.426116,3.413759" style="fill: white" /><polygon type="contour" points="15.717583,3.906977 15.717583,4.046279 15.222285,4.049049 15.092643,4.039059 15.097268,3.684185 15.094021,3.414057 15.216906,3.413947 15.717777,3.413925" style="fill: white" /><polygon type="contour" points="17.877566,15.198245 17.877576,15.251907 17.877558,15.38486 17.943003,15.38486 17.953022,15.384904 17.953453,15.384912 17.972838,15.38494 17.972838,15.443283 17.972192,15.717495 17.956026,15.717437 17.938851,15.717511 17.926175,15.71742 17.920838,15.717518 17.882287,15.717677 17.858808,15.717729 17.782073,15.71778 17.700251,15.71778 17.6395,15.717691 17.63948,15.216534 17.639486,15.091046 17.753345,15.091046 17.877516,15.087367" style="fill: white" /><polygon type="contour" points="16.63484,15.105614 16.641792,15.105489 16.667676,15.105345 16.701215,15.105076 16.758147,15.105591 16.851631,15.10234 16.863288,15.102729 16.863288,15.684285 16.863246,15.717415 16.758147,15.717455 16.701215,15.717571 16.667677,15.717638 16.474406,15.717945 16.426116,15.717945 16.426403,15.170942 16.426403,15.100098" style="fill: white" /><polygon type="contour" points="15.717583,15.224726 15.717777,15.717779 15.216905,15.717756 15.094021,15.717647 15.097268,15.447518 15.082651,15.222288 15.092643,15.092645 15.471323,15.094743 15.717583,15.085425" style="fill: white" /><polygon type="contour" points="16.470691,17.639462 16.667676,17.63965 16.701215,17.639651 16.758147,17.639656 16.850911,17.639576 16.863288,17.639576 16.863288,17.782372 16.852206,17.78234 16.758146,17.782077 16.701216,17.78187 16.667676,17.78194 16.466289,17.782194 16.426116,17.782244 16.426116,17.639444" style="fill: white" /><polygon type="contour" points="15.71769,17.639502 15.71769,17.718679 15.717776,17.782078 15.717728,17.85881 15.717676,17.882291 15.717515,17.92084 15.717418,17.926179 15.717509,17.938854 15.717435,17.939798 15.717435,17.956027 15.717487,17.956814 15.717493,17.972194 15.443283,17.97284 15.38494,17.97284 15.384904,17.953024 15.38486,17.943007 15.38486,17.87756 15.281132,17.877626 15.267681,17.877292 15.089878,17.877164 15.08654,17.694694 15.087775,17.639458 15.22742,17.639428" style="fill: white" /><polygon type="contour" points="15.717942,16.474408 15.717636,16.667679 15.717567,16.701218 15.717452,16.758149 15.717412,16.849763 15.717412,16.863248 15.139378,16.863248 15.102726,16.86329 15.102337,16.851633 15.105588,16.758149 15.105074,16.701217 15.105341,16.667679 15.099448,16.426144 15.640232,16.426144 15.717942,16.426118" style="fill: white" /><polygon type="contour" points="16.849762,16.425781 16.863246,16.425781 16.86318,16.604474 16.86318,16.758149 16.863288,16.850913 16.863288,16.86329 16.758147,16.863184 16.604472,16.863184 16.42578,16.863248 16.425646,16.758149 16.42578,16.735322 16.426116,16.426118 16.667676,16.425709 16.758146,16.425649" style="fill: white" /><polygon type="contour" points="17.781936,16.667678 17.781866,16.701218 17.782073,16.758148 17.782336,16.852208 17.782368,16.86329 17.639574,16.86329 17.639653,16.758148 17.639649,16.701217 17.639648,16.667679 17.639461,16.470692 17.639444,16.426118 17.782242,16.426118" style="fill: white" /><polygon type="contour" points="17.972192,17.638992 17.972158,17.673032 17.972796,17.958389 17.972796,17.972798 17.910234,17.972864 17.909864,17.972799 17.638968,17.972172 17.639052,17.956028 17.639052,17.9398 17.639028,17.939249 17.63904,17.926855 17.639047,17.921576 17.639224,17.885031 17.639286,17.863115 17.639572,17.782376 17.639572,17.70645 17.639574,17.639572 17.782373,17.639572 17.863114,17.639287 17.885029,17.639226 17.921574,17.639049 17.926853,17.639042 17.939248,17.639032 17.956025,17.639054 17.956811,17.638988" style="fill: white" />
</svg>
