<svg width="19.131698" height="19.131699">
<polygon type="contour" points="10.540533,8.868853 10.539741,8.88852 10.456701,8.88847 10.456701,9.420602 10.542488,9.420602 10.541916,9.541301 10.542295,9.565615 10.541916,9.589818 10.542488,9.711102 10.456701,9.711102 10.456701,10.243233 10.539741,10.243183 10.540533,10.262847 10.549029,10.54903 10.287149,10.541436 10.243736,10.540192 10.243268,10.456703 9.711101,10.456703 9.711101,10.540135 9.674478,10.540024 9.566087,10.541956 9.527515,10.54078 9.457398,10.540024 9.4206,10.540135 9.4206,10.456703 8.888474,10.456703 8.887964,10.540192 8.84455,10.541436 8.582671,10.549031 8.591167,10.262847 8.59196,10.243183 8.674999,10.243092 8.674999,9.711102 8.589212,9.711102 8.589784,9.590402 8.589404,9.566087 8.589784,9.541885 8.589212,9.420602 8.674999,9.420602 8.674999,8.88847 8.59196,8.88852 8.591167,8.868853 8.582671,8.582673 8.844549,8.590267 8.887964,8.591513 8.888431,8.675001 9.4206,8.675001 9.4206,8.591569 9.457223,8.591679 9.5655,8.589745 9.604184,8.590923 9.674301,8.59168 9.711101,8.59157 9.711101,8.675001 10.243225,8.675001 10.243736,8.591513 10.28715,8.590267 10.549029,8.582673" style="fill: white" />
</svg>
