<svg width="19.131698" height="19.131699">
<polygon type="contour" points="9.600208,9.284016 9.645163,9.290068 9.649041,9.291059 9.692302,9.308632 9.693983,9.309305 9.695929,9.310379 9.747436,9.345915 9.768199,9.362202 9.769165,9.362537 9.769799,9.364498 9.776926,9.378108 9.801937,9.401927 9.804124,9.40477 9.825753,9.445331 9.826641,9.446891 9.842191,9.49083 9.842792,9.492533 9.850901,9.538502 9.851214,9.540279 9.851894,9.587598 9.851894,9.589375 9.843779,9.635343 9.843468,9.637118 9.827921,9.681059 9.827321,9.682763 9.811065,9.712971 9.804277,9.724791 9.769192,9.767298 9.768466,9.769167 9.767837,9.76938 9.741504,9.793221 9.74016,9.794398 9.730242,9.801246 9.703389,9.816915 9.68827,9.824038 9.662637,9.835848 9.651091,9.839969 9.605124,9.850109 9.603373,9.850493 9.534417,9.851169 9.532618,9.851241 9.530843,9.851001 9.461891,9.83275 9.460163,9.832247 9.42943,9.816969 9.417411,9.810601 9.417254,9.810423 9.413705,9.80774 9.379284,9.778291 9.364297,9.769734 9.362535,9.769166 9.362,9.767602 9.341624,9.741594 9.322467,9.714578 9.312547,9.694904 9.299346,9.670796 9.295931,9.662342 9.283765,9.61705 9.283309,9.615321 9.279252,9.568676 9.279109,9.566877 9.283164,9.520233 9.283309,9.518432 9.29779,9.464646 9.298826,9.460719 9.301619,9.453661 9.352659,9.373041 9.359609,9.363855 9.362641,9.360518 9.378756,9.353834 9.413369,9.322563 9.415268,9.321253 9.456504,9.300971 9.458111,9.300156 9.52436,9.281906 9.526087,9.281379 9.527862,9.281139 9.533098,9.281052" style="fill: white" />
</svg>
