<svg width="19.131698" height="19.131699">
<polygon type="contour" points="14.823845,4.20701 14.84066,4.210852 14.920852,4.210852 14.920852,4.29636 14.923534,4.305318 14.924064,4.3099 14.924799,12.419082 14.924879,14.821801 14.924399,14.825667 14.922418,14.833884 14.920852,14.841046 14.920852,14.920853 14.839102,14.920853 14.821798,14.924031 11.144979,14.923471 4.309198,14.924882 4.308107,14.92502 4.304786,14.924061 4.302149,14.923884 4.295244,14.920853 4.21085,14.920853 4.21085,14.835629 4.208385,14.827323 4.207671,14.821801 4.20823,11.145226 4.20682,4.3099 4.2069,4.30702 4.207937,4.30104 4.208775,4.297152 4.21085,4.291688 4.21085,4.210852 4.295439,4.210852 4.309898,4.207638 7.197976,4.20804 14.822498,4.20682" style="fill: white" /><polygon type="hole" points="7.180937,7.18094 7.180937,7.500851 7.29085,7.500851 7.29085,7.71085 7.180937,7.71085 7.180937,8.154185 7.29085,8.154185 7.29085,8.364188 7.181,8.364188 7.181,8.807517 7.29085,8.807517 7.29085,9.017516 7.18102,9.017516 7.18102,9.460851 7.29085,9.460851 7.29085,9.670854 7.18102,9.670854 7.18102,10.114188 7.29085,10.114188 7.29085,10.324187 7.180979,10.324187 7.180979,10.767516 7.29085,10.767516 7.29085,10.977519 7.180937,10.977519 7.180937,11.420854 7.29085,11.420854 7.29085,11.630853 7.180937,11.630853 7.180937,11.950763 7.500849,11.950763 7.500849,11.840852 7.710849,11.840852 7.710849,11.950763 8.154183,11.950763 8.154183,11.840852 8.364186,11.840852 8.364186,11.950721 8.807515,11.950721 8.807515,11.840852 9.017514,11.840852 9.017514,11.95068 9.460849,11.95068 9.460849,11.840852 9.670852,11.840852 9.670852,11.95068 10.114186,11.95068 10.114186,11.840852 10.324185,11.840852 10.324185,11.950722 10.767514,11.950722 10.767514,11.840852 10.977517,11.840852 10.977517,11.950763 11.420852,11.950763 11.420852,11.840852 11.630851,11.840852 11.630851,11.950763 11.950762,11.950763 11.950762,11.630853 11.84085,11.630853 11.84085,11.420854 11.950762,11.420854 11.950762,10.977519 11.84085,10.977519 11.84085,10.767516 11.950721,10.767516 11.950721,10.324187 11.84085,10.324187 11.84085,10.114188 11.950721,10.114188 11.950721,9.670854 11.84085,9.670854 11.84085,9.460851 11.950742,9.460851 11.950742,9.017516 11.84085,9.017516 11.84085,8.807517 11.950742,8.807517 11.950742,8.364188 11.84085,8.364188 11.84085,8.154185 11.950762,8.154185 11.950762,7.71085 11.84085,7.71085 11.84085,7.500851 11.950762,7.500851 11.950762,7.18094 11.630851,7.18094 11.630851,7.290852 11.420852,7.290852 11.420852,7.18094 10.977517,7.18094 10.977517,7.290852 10.767514,7.290852 10.767514,7.180981 10.324185,7.180981 10.324185,7.290852 10.114186,7.290852 10.114186,7.180981 9.670852,7.180981 9.670852,7.290852 9.460849,7.290852 9.460849,7.180981 9.017514,7.180981 9.017514,7.290852 8.807515,7.290852 8.807515,7.180981 8.364186,7.180981 8.364186,7.290852 8.154183,7.290852 8.154183,7.18094 7.710849,7.18094 7.710849,7.290852 7.500849,7.290852 7.500849,7.18094" style="fill: black" />
</svg>
