<svg width="19.131698" height="19.131699">
<polygon type="contour" points="7.624054,8.375734 7.624054,8.414879 7.623708,8.526635 7.623708,8.727768 7.624212,8.893993 7.624054,9.086263 7.593346,9.08633 7.47246,9.086371 7.41909,9.086371 7.32123,9.08633 7.321221,9.054347 7.321485,8.865817 7.163781,8.866301 7.155069,8.866297 7.149519,8.86633 7.149673,8.681534 7.149673,8.571303 7.321159,8.571303 7.321221,8.406623 7.321232,8.375734 7.342004,8.375734 7.41909,8.375383 7.47246,8.375383" style="fill: white" /><polygon type="contour" points="7.188976,7.149666 7.208211,7.149818 7.418563,7.149538 7.449841,7.149543 7.449841,7.321043 7.541444,7.321235 7.624054,7.321235 7.624054,7.342004 7.624085,7.419093 7.624085,7.472461 7.624054,7.624057 7.591757,7.624057 7.472459,7.624088 7.419091,7.624088 7.321233,7.624057 7.321233,7.541447 7.321041,7.449844 7.14954,7.449844 7.149536,7.418565 7.149815,7.208214 7.149721,7.193259 7.14905,7.172043 7.148478,7.148481" style="fill: white" /><polygon type="contour" points="8.838341,7.149756 8.838341,7.234751 8.866295,7.235709 8.865829,7.321486 9.054345,7.321222 9.08622,7.321232 9.08622,7.34094 9.08637,7.419093 9.08637,7.472462 9.086261,7.624057 9.045747,7.624057 8.893991,7.624213 8.727767,7.62371 8.526633,7.62371 8.375731,7.624057 8.375731,7.59176 8.375381,7.472461 8.375381,7.419093 8.375731,7.321235 8.40662,7.321222 8.571302,7.321161 8.571302,7.149676 8.670301,7.149676" style="fill: white" /><polygon type="contour" points="9.086261,8.375734 9.08622,8.412933 9.086257,8.526635 9.086257,8.727767 9.086222,8.893992 9.08622,9.08633 9.047775,9.08633 8.893991,9.086224 8.727766,9.08626 8.526633,9.08626 8.375731,9.086263 8.375731,9.045749 8.37557,8.893992 8.375691,8.727767 8.375691,8.526635 8.375731,8.375734 8.414876,8.375734 8.526633,8.375693 8.727767,8.375693 8.893991,8.375571" style="fill: white" /><polygon type="contour" points="11.810467,8.375734 11.810478,8.406623 11.81054,8.571303 11.982025,8.571303 11.982025,8.681533 11.982178,8.86633 11.977403,8.866305 11.976627,8.866297 11.810213,8.865827 11.810479,9.054347 11.81047,9.08633 11.790759,9.08633 11.71261,9.086371 11.659241,9.086371 11.507646,9.086263 11.507646,9.045748 11.507488,8.893993 11.507992,8.727768 11.507992,8.526635 11.507646,8.375734 11.539942,8.375734 11.659241,8.375383 11.712609,8.375383" style="fill: white" /><polygon type="contour" points="11.982595,7.172044 11.981978,7.193258 11.981997,7.199722 11.981884,7.208213 11.982164,7.417938 11.982158,7.449308 11.982117,7.449517 11.900795,7.449517 11.810526,7.449885 11.810467,7.541446 11.810467,7.624057 11.789697,7.624057 11.712609,7.624088 11.659241,7.624088 11.507646,7.624057 11.507646,7.591759 11.507612,7.472462 11.507612,7.419093 11.507646,7.321234 11.590256,7.321234 11.681858,7.321043 11.681817,7.239762 11.682185,7.149585 11.713762,7.149538 11.923489,7.149818 11.942723,7.149666 11.983222,7.148481" style="fill: white" /><polygon type="contour" points="10.560398,7.321161 10.725079,7.321222 10.755968,7.321235 10.755968,7.342004 10.756319,7.419093 10.756319,7.472462 10.755968,7.624057 10.716823,7.624057 10.605065,7.62371 10.403933,7.62371 10.237705,7.624214 10.04544,7.624057 10.045372,7.593349 10.04533,7.472462 10.04533,7.419092 10.045373,7.321232 10.077355,7.321222 10.265879,7.321486 10.2654,7.242795 10.265405,7.23571 10.29336,7.23475 10.29336,7.149757 10.497225,7.149757 10.560398,7.149676" style="fill: white" /><polygon type="contour" points="10.403932,8.375693 10.605064,8.375693 10.755968,8.375734 10.755968,8.414878 10.75601,8.526635 10.75601,8.727767 10.756131,8.893992 10.755968,9.086263 10.718768,9.08633 10.605065,9.08626 10.403933,9.08626 10.237705,9.086224 10.045373,9.08633 10.045373,9.047777 10.045478,8.893992 10.045443,8.727767 10.045443,8.526635 10.04544,8.375734 10.085954,8.375734 10.237705,8.375571" style="fill: white" /><polygon type="contour" points="10.755968,10.085956 10.756131,10.237707 10.75601,10.403935 10.75601,10.605066 10.755968,10.75597 10.716823,10.75597 10.605065,10.756011 10.403932,10.756011 10.237706,10.756132 10.04544,10.75597 10.045373,10.718769 10.045443,10.605067 10.045443,10.403935 10.045479,10.237707 10.045373,10.045483 10.083925,10.045483 10.237706,10.045481 10.403932,10.045444 10.605064,10.045444 10.755968,10.045442" style="fill: white" /><polygon type="contour" points="11.81047,10.045483 11.810479,10.077357 11.810213,10.265883 11.967914,10.265403 11.976627,10.265407 11.982178,10.265373 11.982025,10.450169 11.982025,10.5604 11.81054,10.5604 11.810478,10.72508 11.810467,10.75597 11.789696,10.75597 11.71261,10.756321 11.65924,10.756321 11.507646,10.75597 11.507646,10.716824 11.507992,10.605067 11.507992,10.403935 11.507488,10.237707 11.507645,10.045442 11.538352,10.045483 11.659241,10.045333 11.71261,10.045333" style="fill: white" /><polygon type="contour" points="11.810467,11.507647 11.810467,11.590257 11.810659,11.681861 11.982158,11.681861 11.982164,11.713138 11.981884,11.923489 11.981978,11.938444 11.982594,11.959658 11.983222,11.983223 11.942724,11.982037 11.923488,11.981884 11.713136,11.982165 11.681859,11.982161 11.681859,11.810662 11.590255,11.81047 11.507646,11.81047 11.507646,11.789699 11.507612,11.712611 11.507612,11.659241 11.507646,11.507647 11.539943,11.507647 11.65924,11.507613 11.712609,11.507613" style="fill: white" /><polygon type="contour" points="10.403933,11.507993 10.605065,11.507993 10.755968,11.507647 10.755968,11.539943 10.756319,11.659242 10.756319,11.712612 10.755968,11.81047 10.725079,11.810481 10.560398,11.810542 10.560398,11.982027 10.461399,11.982027 10.29336,11.981945 10.29336,11.896977 10.265406,11.895994 10.265865,11.810215 10.077355,11.810482 10.045373,11.810473 10.045373,11.790763 10.04533,11.712611 10.04533,11.659241 10.04544,11.507647 10.085954,11.507647 10.237705,11.50749" style="fill: white" /><polygon type="contour" points="9.086261,11.507647 9.08622,11.538353 9.08637,11.659242 9.08637,11.712612 9.08622,11.810473 9.054345,11.810482 8.865816,11.810215 8.866298,11.888909 8.866294,11.895994 8.838341,11.896976 8.838341,11.981945 8.634475,11.981945 8.571302,11.982027 8.571302,11.810542 8.40662,11.810481 8.375731,11.81047 8.375731,11.789698 8.375381,11.712612 8.375381,11.659242 8.375731,11.507647 8.414876,11.507647 8.526633,11.507993 8.727766,11.507993 8.893992,11.50749" style="fill: white" /><polygon type="contour" points="8.412931,10.045483 8.526633,10.045444 8.727767,10.045444 8.893991,10.04548 9.08622,10.045483 9.08622,10.083927 9.086222,10.237708 9.086257,10.403934 9.086257,10.605067 9.086261,10.75597 9.045747,10.75597 8.893991,10.756133 8.727767,10.756011 8.526634,10.756011 8.375731,10.75597 8.375731,10.716824 8.375691,10.605067 8.375691,10.403935 8.37557,10.237707 8.37573,10.045442" style="fill: white" /><polygon type="contour" points="7.624054,10.045442 7.624054,10.085956 7.624212,10.237707 7.623708,10.403935 7.623708,10.605067 7.624054,10.75597 7.591757,10.75597 7.472459,10.756321 7.41909,10.756321 7.321232,10.75597 7.321221,10.72508 7.321159,10.5604 7.149673,10.5604 7.149673,10.450168 7.149519,10.265372 7.154292,10.265398 7.155069,10.265406 7.321485,10.265874 7.321221,10.077357 7.32123,10.045483 7.340939,10.045483 7.419091,10.045333 7.47246,10.045333" style="fill: white" /><polygon type="contour" points="7.624054,11.507646 7.624054,11.539943 7.624085,11.659242 7.624085,11.712611 7.624054,11.81047 7.541444,11.81047 7.449841,11.810661 7.449883,11.891941 7.449515,11.982118 7.417937,11.982165 7.20821,11.981885 7.188975,11.982037 7.148478,11.983223 7.149049,11.959659 7.149721,11.938443 7.149815,11.923489 7.149537,11.713138 7.149541,11.681861 7.321041,11.681861 7.321233,11.590257 7.321233,11.507647 7.342003,11.507647 7.419091,11.507613 7.47246,11.507613" style="fill: white" />
</svg>
