<svg width="19.131698" height="19.131699">
<polygon type="contour" points="12.168113,6.609401 12.184901,6.610801 12.210954,6.617104 12.228301,6.621301 12.257296,6.633067 12.2766,6.6409 12.308958,6.659392 12.330501,6.671703 12.364537,6.699017 12.387198,6.717202 12.418716,6.75124 12.439699,6.773902 12.463651,6.8092 12.479599,6.832701 12.504801,6.887301 12.513204,6.915876 12.5188,6.934903 12.522162,6.959694 12.524402,6.976201 12.524402,12.150465 12.523002,12.167811 12.519638,12.192605 12.515163,12.209951 12.50676,12.238526 12.498925,12.25783 12.483376,12.290187 12.470785,12.311731 12.449354,12.344928 12.431169,12.36759 12.398392,12.40331 12.37461,12.425133 12.340573,12.452446 12.316791,12.467835 12.284855,12.486743 12.264991,12.495977 12.234315,12.508165 12.21529,12.513759 12.190496,12.520063 12.173989,12.522302 12.147935,12.524403 6.988801,12.524403 6.963587,12.522302 6.946798,12.520902 6.920745,12.514599 6.903399,12.510403 6.874404,12.498637 6.855098,12.490802 6.822743,12.472312 6.8012,12.460001 6.76716,12.432686 6.744498,12.414502 6.712983,12.380464 6.691999,12.3578 6.668048,12.322503 6.652099,12.299001 6.636971,12.266225 6.626898,12.244401 6.618494,12.215826 6.612898,12.1968 6.609537,12.172009 6.607299,12.155501 6.607299,6.981238 6.608698,6.96389 6.612059,6.939099 6.616536,6.921752 6.624939,6.893178 6.632774,6.873593 6.646642,6.843756 6.659233,6.822493 6.682344,6.786775 6.700531,6.764111 6.733307,6.728393 6.757088,6.70657 6.791125,6.679258 6.814909,6.663868 6.848105,6.644538 6.867969,6.635304 6.896124,6.623959 6.915149,6.618363 6.942044,6.611639 6.958549,6.609402 6.983764,6.607301 12.142899,6.607301" style="fill: white" />
</svg>
