<svg width="19.131698" height="19.131699">
<polygon type="contour" points="9.601162,9.313353 9.619552,9.315847 9.643241,9.323225 9.661007,9.328525 9.68314,9.339785 9.69997,9.3482 9.719774,9.362567 9.734736,9.373789 9.751821,9.391651 9.764913,9.405054 9.778502,9.425634 9.788789,9.44122 9.799272,9.46374 9.807066,9.480884 9.813278,9.504569 9.817954,9.522648 9.819896,9.5475 9.821454,9.566202 9.819513,9.590276 9.817954,9.608665 9.811741,9.632742 9.807066,9.650821 9.796582,9.673341 9.788789,9.690485 9.775198,9.711065 9.764913,9.72665 9.747826,9.744511 9.734735,9.757913 9.714931,9.772282 9.69997,9.783503 9.677839,9.794763 9.661006,9.803179 9.63732,9.810557 9.619552,9.815857 9.595089,9.818963 9.576698,9.821456 9.552236,9.820291 9.533534,9.819355 9.50946,9.814308 9.491069,9.810568 9.46816,9.801248 9.450706,9.794079 9.429737,9.781265 9.41384,9.771602 9.395203,9.755294 9.381174,9.742825 9.365643,9.723411 9.353798,9.709073 9.341761,9.687717 9.332721,9.671196 9.324566,9.647899 9.318333,9.630444 9.314063,9.60598 9.310946,9.587588 9.310946,9.544114 9.315216,9.51965 9.318334,9.501259 9.326488,9.477961 9.33272,9.460508 9.344759,9.43915 9.353799,9.42263 9.36933,9.403216 9.381175,9.388877 9.399814,9.372569 9.41384,9.360101 9.43481,9.347287 9.450705,9.337623 9.473614,9.328303 9.491069,9.321135 9.515143,9.316086 9.533535,9.312346 9.557998,9.311181 9.576698,9.310248" style="fill: white" />
</svg>
