<svg width="19.131698" height="19.131699">
<polygon type="contour" points="9.630399,8.430722 9.711101,8.433175 9.711101,8.516202 10.416698,8.516202 10.419649,8.429351 10.693858,8.432788 10.69906,8.432641 10.698894,8.438738 10.698879,8.439668 10.69869,8.562936 10.698642,8.715291 10.6155,8.715001 10.6155,9.420602 10.70367,9.420602 10.703703,9.423578 10.703019,9.566202 10.702988,9.569499 10.70367,9.711102 10.6155,9.711102 10.6155,10.416702 10.677241,10.416308 10.698642,10.416413 10.69869,10.568767 10.698879,10.692035 10.698894,10.692966 10.698991,10.696034 10.699054,10.696653 10.69906,10.699063 10.693858,10.698915 10.419649,10.70235 10.416698,10.615502 9.711101,10.615502 9.711101,10.698529 9.630009,10.700982 9.56907,10.702975 9.5655,10.703019 9.501301,10.700982 9.4206,10.698529 9.4206,10.615502 8.715001,10.615502 8.712051,10.70235 8.437841,10.698915 8.432639,10.699063 8.432805,10.692965 8.43282,10.692035 8.43301,10.568767 8.433058,10.416413 8.5162,10.416702 8.5162,9.711102 8.42803,9.711102 8.427997,9.708125 8.428682,9.565502 8.428713,9.562204 8.42803,9.420602 8.5162,9.420602 8.5162,8.715001 8.454458,8.715396 8.433058,8.715291 8.43301,8.562936 8.43282,8.439668 8.432806,8.438737 8.432708,8.435669 8.432645,8.43505 8.432639,8.432641 8.437841,8.432788 8.712051,8.429351 8.715001,8.516202 9.4206,8.516202 9.4206,8.433175 9.50169,8.430721 9.562629,8.428728 9.566199,8.428685" style="fill: white" />
</svg>
