<svg width="19.131698" height="19.131699">
<polygon type="contour" points="10.48768,8.693577 10.487456,8.699111 10.486856,8.753697 10.48661,8.784978 10.486548,8.94708 10.393492,8.94708 10.202531,8.946866 10.184836,8.946866 10.184836,8.92917 10.18561,8.721766 10.185897,8.714725 10.185897,8.679658 10.18703,8.643333 10.422811,8.644431 10.489196,8.642506" style="fill: white" /><polygon type="contour" points="10.48661,10.346725 10.486856,10.378005 10.487457,10.432592 10.48768,10.438126 10.489196,10.489198 10.422811,10.487273 10.18703,10.48837 10.185957,10.455549 10.185897,10.452043 10.18561,10.409936 10.18561,10.347474 10.184836,10.184838 10.202531,10.184838 10.393492,10.184624 10.486548,10.184624" style="fill: white" /><polygon type="contour" points="8.929168,10.184838 8.946864,10.184838 8.946864,10.202534 8.946091,10.409936 8.945802,10.416976 8.945802,10.452044 8.944671,10.48837 8.708888,10.487273 8.642503,10.489198 8.644019,10.438126 8.644243,10.432592 8.644844,10.378005 8.64509,10.346725 8.645152,10.184624 8.738208,10.184624" style="fill: white" /><polygon type="contour" points="9.258115,10.184476 9.258192,10.204224 9.258192,10.32006 9.199981,10.319805 9.183796,10.319685 9.16782,10.31982 9.120264,10.320198 9.10837,10.320108 9.10837,10.184517 9.122049,10.184517 9.167821,10.184471 9.199981,10.184456" style="fill: white" /><polygon type="contour" points="9.258192,9.711102 9.122021,9.711102 9.10837,9.711312 9.10837,9.420602 9.258192,9.420602" style="fill: white" /><polygon type="contour" points="9.167821,9.873788 9.199982,9.87399 9.258192,9.873511 9.258192,9.886785 9.257713,9.931721 9.257915,9.96388 9.25861,10.023332 9.19976,10.023396 9.167821,10.023396 9.10837,10.023332 9.10837,10.009654 9.108305,9.96388 9.108305,9.931941 9.10837,9.873092" style="fill: white" /><polygon type="contour" points="8.947226,9.873588 8.947226,9.886821 8.947244,9.93172 8.947227,9.96388 8.947185,10.023332 8.811595,10.023332 8.811883,9.96388 8.812018,9.947905 8.811896,9.931721 8.811543,9.885151 8.811641,9.873511 8.927477,9.873511" style="fill: white" /><polygon type="contour" points="8.947472,9.711286 8.929867,9.711102 8.640712,9.711102 8.640587,9.678715 8.641131,9.566202 8.641245,9.531342 8.640712,9.420602 8.947472,9.420602" style="fill: white" /><polygon type="contour" points="8.708888,8.644431 8.944671,8.643333 8.945743,8.676153 8.945802,8.679659 8.946091,8.721766 8.946091,8.784228 8.946864,8.946866 8.929168,8.946866 8.738208,8.94708 8.645152,8.94708 8.64509,8.784978 8.644844,8.753697 8.644243,8.699111 8.644019,8.693577 8.642503,8.642506" style="fill: white" /><polygon type="contour" points="8.947185,9.12205 8.947226,9.167822 8.947244,9.199984 8.947226,9.258324 8.927477,9.258194 8.811641,9.258194 8.811896,9.199983 8.812017,9.183798 8.811882,9.167822 8.811503,9.120266 8.811595,9.108372 8.947185,9.108372" style="fill: white" /><polygon type="contour" points="9.258821,9.108372 9.257915,9.167823 9.257713,9.199984 9.258192,9.258194 9.244917,9.258194 9.199981,9.257714 9.167364,9.257714 9.108311,9.258324 9.108311,9.244882 9.108281,9.199983 9.108305,9.167823 9.10837,9.108372 9.122048,9.108372 9.167821,9.108307 9.199759,9.108307" style="fill: white" /><polygon type="contour" points="9.258192,8.811644 9.258192,8.927479 9.258322,8.947228 9.24488,8.947228 9.199981,8.947246 9.167821,8.94723 9.10837,8.947186 9.10837,8.811597 9.16782,8.811885 9.183796,8.81202 9.199982,8.811898 9.246551,8.811546" style="fill: white" /><polygon type="contour" points="9.63297,8.642867 9.711101,8.645122 9.711101,8.722324 9.711752,8.784978 9.711285,8.947474 9.4206,8.947474 9.4206,8.644878 9.498354,8.642868 9.513017,8.642175 9.565501,8.641174" style="fill: white" /><polygon type="contour" points="10.02333,8.811597 10.02333,8.947187 10.009651,8.947187 9.963878,8.94723 9.931719,8.947246 9.873586,8.947228 9.873509,8.927479 9.873509,8.811644 9.931719,8.811899 9.947905,8.81202 9.963879,8.811884 10.011435,8.811507" style="fill: white" /><polygon type="contour" points="9.711101,9.122023 9.711101,9.258194 9.4206,9.258194 9.4206,9.108372 9.711311,9.108372" style="fill: white" /><polygon type="contour" points="9.963878,9.108306 10.02333,9.108372 10.02333,9.12205 10.023393,9.167822 10.023418,9.199984 10.023389,9.258324 9.964335,9.257714 9.931718,9.257714 9.873509,9.258194 9.873509,9.244919 9.873988,9.199983 9.873988,9.167366 9.873586,9.108314 9.931719,9.108283" style="fill: white" /><polygon type="contour" points="10.319817,9.167823 10.319683,9.183798 10.319805,9.199984 10.320158,9.246553 10.32006,9.258194 10.204222,9.258194 10.184474,9.258324 10.184474,9.244883 10.184454,9.199983 10.184471,9.167822 10.184515,9.108372 10.320106,9.108372" style="fill: white" /><polygon type="contour" points="10.491112,9.452988 10.490569,9.565501 10.490455,9.600361 10.490988,9.711102 10.184228,9.711102 10.184228,9.420602 10.490988,9.420602" style="fill: white" /><polygon type="contour" points="10.204222,9.873511 10.32006,9.873511 10.319805,9.931721 10.319683,9.947905 10.319818,9.963881 10.320197,10.011437 10.320106,10.023332 10.184515,10.023332 10.184515,10.009654 10.184471,9.96388 10.184454,9.93172 10.184474,9.873381" style="fill: white" /><polygon type="contour" points="10.02333,9.88656 10.023394,9.931942 10.023394,9.96388 10.02333,10.023332 10.009651,10.023332 9.963879,10.023395 9.931718,10.023419 9.873379,10.02339 9.873988,9.964337 9.873988,9.93172 9.873509,9.873511 9.886783,9.873511 9.931719,9.873989 9.963878,9.873788 10.02333,9.872882" style="fill: white" /><polygon type="contour" points="10.02333,9.711102 9.873509,9.711102 9.873509,9.420602 10.02333,9.420602" style="fill: white" /><polygon type="contour" points="9.711101,9.711102 9.4206,9.711102 9.4206,9.420602 9.711101,9.420602" style="fill: white" /><polygon type="contour" points="9.711101,10.023332 9.42039,10.023332 9.4206,10.00968 9.4206,9.873511 9.711101,9.873511" style="fill: white" /><polygon type="contour" points="9.963878,10.184471 10.02333,10.184517 10.02333,10.320107 9.963878,10.319819 9.947905,10.319685 9.931718,10.319806 9.885149,10.320159 9.873509,10.320061 9.873509,10.204224 9.873379,10.184476 9.886819,10.184476 9.931719,10.184456" style="fill: white" /><polygon type="contour" points="9.711101,10.486825 9.63297,10.488835 9.618237,10.489529 9.565656,10.490529 9.498355,10.488836 9.4206,10.486582 9.4206,10.409381 9.419949,10.346725 9.420416,10.18423 9.711101,10.18423" style="fill: white" />
</svg>
