<svg width="19.131698" height="19.131699">
<polygon type="contour" points="9.575226,9.36949 9.576762,9.36966 9.606987,9.37352 9.608011,9.373861 9.638236,9.383507 9.639489,9.383906 9.641424,9.384874 9.669076,9.398378 9.670906,9.399827 9.695296,9.41844 9.696019,9.418962 9.69693,9.420044 9.718795,9.442552 9.736157,9.468275 9.737466,9.47021 9.738434,9.47226 9.751296,9.500554 9.751864,9.502773 9.75958,9.532356 9.759637,9.533325 9.762211,9.564836 9.762325,9.566202 9.762268,9.567511 9.759694,9.598378 9.759465,9.599688 9.75175,9.629271 9.751523,9.63041 9.751182,9.631205 9.73832,9.659501 9.737864,9.660811 9.73741,9.661493 9.736898,9.662404 9.719535,9.688127 9.718737,9.68921 9.696872,9.711717 9.69602,9.71274 9.695337,9.713309 9.694824,9.713765 9.692946,9.715016 9.668506,9.733667 9.666457,9.734578 9.638806,9.748081 9.60858,9.757728 9.606417,9.758298 9.60471,9.758412 9.574486,9.76227 9.573861,9.762327 9.572552,9.76227 9.541041,9.760985 9.539731,9.760756 9.538422,9.760472 9.508197,9.75404 9.507001,9.753527 9.478063,9.741954 9.476867,9.741442 9.475159,9.740417 9.448795,9.723696 9.448282,9.72324 9.42513,9.702662 9.423935,9.70158 9.404642,9.677788 9.403162,9.67591 9.387729,9.648899 9.386648,9.646964 9.385852,9.644802 9.37556,9.615217 9.375219,9.613169 9.370075,9.582943 9.370075,9.551433 9.370018,9.550124 9.370075,9.548757 9.370301,9.547449 9.375446,9.517226 9.375675,9.516086 9.376357,9.51438 9.386649,9.484796 9.387046,9.483944 9.38773,9.482804 9.403162,9.455795 9.403959,9.454713 9.423252,9.43092 9.423934,9.430124 9.425301,9.428871 9.448453,9.408292 9.474819,9.39157 9.476696,9.390319 9.47887,9.389447 9.507748,9.377898 9.509847,9.377264 9.540073,9.370833 9.541097,9.370776 9.572608,9.36949 9.574486,9.369376" style="fill: white" />
</svg>
