<svg width="19.131698" height="19.131699">
<polygon type="contour" points="13.909398,2.967604 13.909132,3.042551 13.909475,3.12216 13.90922,3.157705 13.90922,3.203525 13.909277,3.260218 13.909429,3.300771 13.685211,3.300492 13.680842,3.300722 13.678139,3.300759 13.66303,3.300516 13.640078,3.300628 13.607104,3.300921 13.597047,3.300845 13.5748,3.300675 13.574989,3.223731 13.575796,3.187507 13.575796,3.156077 13.575901,3.13396 13.576239,3.062762 13.576331,3.041522 13.57636,3.03991 13.576468,2.967334 13.794908,2.967334" style="fill: white" /><polygon type="contour" points="14.636627,5.222314 14.636484,5.512356 14.636893,5.556491 14.441011,5.556491 14.441214,5.526832 14.441305,5.222257 14.511527,5.222257" style="fill: white" /><polygon type="contour" points="15.367942,5.222399 15.36764,5.517825 15.367419,5.556638 15.034916,5.556638 15.034907,5.554463 15.034733,5.222314 15.135047,5.222172" style="fill: white" /><polygon type="contour" points="15.135047,4.49526 15.36802,4.49526 15.36802,4.554006 15.36805,4.690397 15.135047,4.69056 15.034733,4.690567 15.034732,4.643547 15.034732,4.495162" style="fill: white" /><polygon type="contour" points="14.488155,4.495162 14.636541,4.495162 14.636627,4.54846 14.636627,4.690567 14.583241,4.690567 14.441305,4.690397 14.441305,4.620175 14.441136,4.495075" style="fill: white" /><polygon type="contour" points="14.636443,3.763682 14.636443,3.996655 14.636541,4.096971 14.583241,4.09697 14.441136,4.09697 14.441143,3.996655 14.441305,3.763652 14.517636,3.763652" style="fill: white" /><polygon type="contour" points="14.504036,3.157756 14.636541,3.157866 14.636443,3.200825 14.636443,3.300671 14.517636,3.300575 14.441305,3.300575 14.441305,3.157706" style="fill: white" /><polygon type="contour" points="16.164213,2.967488 16.164213,3.021438 16.163941,3.143009 16.164098,3.300804 16.08915,3.300519 16.013919,3.300519 16.011379,3.300628 15.973906,3.300594 15.831108,3.300594 15.831108,3.157794 15.831074,3.120323 15.831183,3.042551 15.830872,3.038903 15.830792,2.967709 15.928589,2.967482 15.929979,2.967242" style="fill: white" /><polygon type="contour" points="15.367942,3.300507 15.22129,3.300507 15.035031,3.300671 15.035031,3.200824 15.034732,3.157866 15.135047,3.157871 15.367942,3.157707" style="fill: white" /><polygon type="contour" points="15.367942,3.76376 15.36805,3.966195 15.36802,3.996656 15.36802,4.096671 15.135047,4.096671 15.034732,4.096971 15.035031,3.996656 15.035031,3.763682 15.135047,3.763682" style="fill: white" /><polygon type="contour" points="15.974025,3.886211 15.973835,4.096971 15.930876,4.096671 15.83103,4.096671 15.831194,3.91041 15.831194,3.76376 15.973996,3.76376" style="fill: white" /><polygon type="contour" points="15.973944,4.627665 15.973994,4.690397 15.831127,4.690397 15.831127,4.614065 15.83103,4.49526 15.930877,4.49526 15.973835,4.495162" style="fill: white" /><polygon type="contour" points="16.01392,5.222571 16.08915,5.222571 16.092799,5.222327 16.164098,5.222303 16.164368,5.336794 16.164368,5.555233 16.09018,5.555371 16.068935,5.555464 15.975624,5.555905 15.952927,5.555905 15.8432,5.556257 15.831367,5.556257 15.831228,5.365104 15.83135,5.311985 15.83146,5.290275 15.831433,5.279529 15.831484,5.222378 15.838454,5.222404 15.973995,5.222481 16.009541,5.222226" style="fill: white" /><polygon type="contour" points="15.973683,5.987985 16.057485,5.987985 16.068886,5.988069 16.068873,5.993307 16.069084,6.167104 16.069035,6.300332 16.069178,6.340004 16.068808,6.469326 16.069178,6.869374 15.945884,6.86965 15.831223,6.859249 15.830978,6.475784 15.830941,6.307567 15.830875,6.307566 15.830897,6.106707 15.830889,6.072111 15.830901,6.072111 15.83091,5.991965 15.830885,5.988068 15.83099,5.913469 15.831068,5.898847 15.889238,5.89856 15.973823,5.898117" style="fill: white" /><polygon type="contour" points="15.367891,5.988069 15.367873,5.998925 15.367672,6.268392 15.367967,6.307084 15.367648,6.341868 15.368347,6.827598 15.368344,6.832819 15.184264,6.861256 15.0351,6.850755 15.034828,6.468138 15.03518,6.262229 15.035379,6.001075 15.035362,5.996186 15.035379,5.988517 15.035392,5.988069 15.035916,5.898847 15.368416,5.898847" style="fill: white" /><polygon type="contour" points="14.636977,5.988068 14.63697,5.996185 14.636968,6.001043 14.636549,6.263001 14.636992,6.770394 14.636988,6.834529 14.59683,6.833039 14.441188,6.84723 14.441404,6.342402 14.441225,6.303231 14.44112,6.246641 14.440976,5.997567 14.440969,5.988517 14.440979,5.988068 14.440822,5.898847 14.636821,5.898847" style="fill: white" /><polygon type="contour" points="13.909489,5.913468 13.909345,5.925334 13.909369,5.997567 13.90938,6.001056 13.90947,6.303222 13.909516,6.844555 13.852605,6.838095 13.614128,6.839594 13.614732,6.469219 13.614994,6.340713 13.614796,6.314623 13.615069,6.275665 13.615221,6.197184 13.616245,5.994812 13.616283,5.988068 13.616501,5.898847 13.909568,5.898847" style="fill: white" /><polygon type="contour" points="13.232855,5.5152 13.143631,5.515418 13.136887,5.515455 12.934514,5.51648 12.856034,5.516633 12.817078,5.516907 12.790988,5.516709 12.662482,5.516967 12.550531,5.517455 12.292106,5.517573 12.291568,5.29438 12.282764,5.222485 12.654615,5.222358 12.787907,5.222394 12.847183,5.222558 13.134131,5.222333 13.206367,5.222356 13.218233,5.222211 13.219057,5.222169 13.232855,5.222133" style="fill: white" /><polygon type="contour" points="13.581774,5.22218 13.90922,5.222481 13.909229,5.5354 13.909742,5.542412 13.909522,5.549927 13.909462,5.556689 13.620045,5.55586 13.617842,5.555865 13.628343,5.503355 13.575838,5.513857 13.5759,5.250206 13.575863,5.222189 13.577935,5.222179" style="fill: white" /><polygon type="contour" points="13.592336,4.495032 13.602884,4.495327 13.603994,4.494956 13.604686,4.495031 13.909388,4.495075 13.909446,4.620175 13.909446,4.690397 13.597016,4.690367 13.586498,4.690718 13.575305,4.690823 13.575305,4.494824" style="fill: white" /><polygon type="contour" points="13.232855,4.494881 13.232855,4.690881 13.14363,4.690722 13.134133,4.690726 12.885057,4.690579 12.829917,4.690523 12.789883,4.690411 12.653277,4.690457 12.259847,4.690484 12.243165,4.625189 12.260578,4.495093 13.128501,4.494735 13.130606,4.494729 13.135513,4.494729 13.143181,4.494734 13.143631,4.494722" style="fill: white" /><polygon type="contour" points="13.232855,4.095786 13.143631,4.096309 13.135513,4.09634 13.130617,4.096335 13.119477,4.096313 12.27298,4.096292 12.298604,3.774067 12.297874,3.763831 12.790184,3.763835 12.820659,3.763796 12.824618,3.763736 12.863307,3.764029 13.132774,3.763827 13.14318,3.763822 13.14363,3.763809 13.232855,3.763285" style="fill: white" /><polygon type="contour" points="13.600452,3.763474 13.610507,3.764415 13.909302,3.763759 13.909076,3.899541 13.909388,4.096969 13.661682,4.09644 13.599118,4.096039 13.573931,4.095967 13.573931,3.763467" style="fill: white" /><polygon type="contour" points="12.790783,3.062852 12.830059,3.062605 12.964595,3.062617 13.13839,3.06283 13.143631,3.062816 13.143628,3.157924 13.20846,3.15749 13.233313,3.157666 13.232998,3.213209 13.232998,3.222047 13.232855,3.300632 13.147338,3.301006 13.147295,3.301052 13.133163,3.301052 13.117023,3.301044 12.676281,3.300721 12.295835,3.300458 12.297628,3.290598 12.266304,3.163365 12.262784,3.062476" style="fill: white" /><polygon type="contour" points="6.854063,3.062512 6.837038,3.156164 6.859247,3.300395 6.819306,3.300416 6.638153,3.30038 6.263499,3.300607 5.988066,3.300199 5.913467,3.300711 5.898845,3.300632 5.898557,3.242461 5.898115,3.157879 5.987982,3.158015 5.987982,3.074217 5.988066,3.062816 5.995336,3.062829 6.206937,3.062617 6.625331,3.062455 6.651987,3.062399" style="fill: white" /><polygon type="contour" points="3.20311,2.967482 3.300908,2.967709 3.300517,3.042551 3.300517,3.117784 3.300626,3.120322 3.300593,3.157794 3.300593,3.300594 3.157792,3.300594 3.12032,3.300628 3.042548,3.300518 3.0389,3.300829 2.967602,3.300804 2.967758,3.143009 2.967486,3.021439 2.967486,2.967488 3.201719,2.967243" style="fill: white" /><polygon type="contour" points="3.300345,5.898561 3.300631,5.898561 3.301005,5.984253 3.301051,5.984406 3.301051,5.998538 3.301034,6.013888 3.30037,6.859081 3.160828,6.871686 3.062522,6.869375 3.062919,6.339606 3.062665,6.300332 3.062615,6.167103 3.062829,5.993307 3.062815,5.987985 3.157922,5.987985 3.157643,5.922424 3.157552,5.9103 3.157806,5.900972 3.157878,5.898117 3.221221,5.898117" style="fill: white" /><polygon type="contour" points="3.300675,5.549977 3.300687,5.555838 3.157737,5.555838 3.157717,5.555905 3.156076,5.555905 3.146139,5.555858 3.06276,5.555463 3.041521,5.555371 3.039907,5.555341 2.967332,5.555233 2.967332,5.336794 2.967602,5.222304 3.042549,5.222571 3.12216,5.222226 3.157704,5.222481 3.203523,5.222481 3.260217,5.222424 3.300721,5.222223" style="fill: white" /><polygon type="contour" points="4.096791,5.554463 4.096782,5.556638 3.764282,5.556638 3.764285,5.554222 3.763759,5.222399 3.899539,5.222626 4.096967,5.222314" style="fill: white" /><polygon type="contour" points="4.096307,5.988068 4.096338,5.996186 4.09632,6.001075 4.09652,6.262228 4.096874,6.468138 4.0966,6.850755 3.766134,6.8326 3.76335,6.832808 3.763353,6.828482 3.763353,6.827597 3.764054,6.341868 3.763735,6.307083 3.764027,6.268392 3.763826,5.998925 3.76382,5.988517 3.763807,5.988068 3.763283,5.898847 4.095784,5.898847" style="fill: white" /><polygon type="contour" points="4.690719,5.988069 4.690724,5.997566 4.690578,6.246641 4.690472,6.303231 4.690296,6.342402 4.690296,6.345614 4.690512,6.84723 4.666391,6.848284 4.53487,6.833039 4.509695,6.83535 4.494711,6.834529 4.494707,6.770393 4.495151,6.263001 4.49473,6.001043 4.494728,5.996185 4.494733,5.988518 4.494721,5.988069 4.494879,5.898847 4.690878,5.898847" style="fill: white" /><polygon type="contour" points="4.690875,5.527243 4.69103,5.557206 4.49503,5.557206 4.494983,5.51305 4.495073,5.222314 4.548458,5.222314 4.690395,5.222257" style="fill: white" /><polygon type="contour" points="4.690558,3.996655 4.690565,4.09697 4.643544,4.096971 4.49516,4.096971 4.495258,3.996655 4.495258,3.763682 4.554004,3.763682 4.690395,3.763652" style="fill: white" /><polygon type="contour" points="4.690565,4.54846 4.690395,4.690397 4.620173,4.690397 4.495073,4.690567 4.495159,4.643548 4.495159,4.495162 4.548459,4.495075 4.690565,4.495075" style="fill: white" /><polygon type="contour" points="4.096967,4.54846 4.096967,4.690567 3.996653,4.69056 3.763651,4.690397 3.763651,4.614064 3.76368,4.49526 3.996653,4.49526 4.096969,4.495162" style="fill: white" /><polygon type="contour" points="3.200824,4.49526 3.300668,4.49526 3.300573,4.614065 3.300573,4.690397 3.157705,4.690397 3.157755,4.627665 3.157865,4.495162" style="fill: white" /><polygon type="contour" points="3.300506,3.91041 3.300668,4.096671 3.200824,4.096671 3.157865,4.096971 3.157869,3.996656 3.157705,3.76376 3.300506,3.76376" style="fill: white" /><polygon type="contour" points="3.996654,3.763682 4.096669,3.763682 4.096669,3.996655 4.096969,4.096971 3.996653,4.096671 3.76368,4.096671 3.76368,3.996655 3.763759,3.76376 3.966194,3.763652" style="fill: white" /><polygon type="contour" points="4.096969,3.157866 4.096669,3.200825 4.096669,3.300671 3.910408,3.300507 3.763759,3.300507 3.763759,3.157707 3.886209,3.157678" style="fill: white" /><polygon type="contour" points="4.690395,3.300575 4.614063,3.300575 4.495258,3.300671 4.495258,3.200825 4.49516,3.157866 4.627663,3.157756 4.690395,3.157706" style="fill: white" /><polygon type="contour" points="5.555369,3.041522 5.555462,3.062763 5.55537,3.157877 5.555799,3.157834 5.555799,3.171503 5.555699,3.178306 5.55626,3.213877 5.556899,3.300675 5.436071,3.300608 5.399911,3.300581 5.334695,3.300363 5.30011,3.300229 5.284376,3.300274 5.281389,3.300258 5.276553,3.300192 5.222376,3.300217 5.222403,3.293245 5.222479,3.157705 5.222225,3.122161 5.222569,3.117784 5.222569,3.042551 5.222325,3.038902 5.222301,2.967604 5.336792,2.967334 5.555231,2.967334" style="fill: white" /><polygon type="contour" points="5.988065,3.763809 5.995998,3.763827 6.197523,3.764029 6.268389,3.764029 6.307082,3.763736 6.31104,3.763796 6.341516,3.763835 6.833826,3.763831 6.834056,3.777589 6.870697,3.91198 6.858717,4.096293 6.012218,4.096313 6.001078,4.096334 5.996182,4.09634 5.988515,4.096323 5.988066,4.09631 5.898845,4.095786 5.898845,3.763285" style="fill: white" /><polygon type="contour" points="5.557922,4.096114 5.53258,4.09604 5.222312,4.09697 5.22217,3.996655 5.222397,3.76376 5.55134,3.763693 5.557922,3.763613" style="fill: white" /><polygon type="contour" points="5.556395,4.494823 5.556395,4.690823 5.545202,4.690718 5.53468,4.690367 5.222255,4.690397 5.222255,4.620174 5.222312,4.495075 5.494308,4.495093 5.539839,4.49476" style="fill: white" /><polygon type="contour" points="5.996182,4.49473 6.001089,4.494729 6.003194,4.494735 6.87112,4.495093 6.857288,4.589417 6.871853,4.690484 6.480116,4.690418 6.343608,4.690354 6.301779,4.690523 6.246639,4.690579 5.997563,4.690726 5.988515,4.690733 5.988066,4.690721 5.898845,4.690881 5.898845,4.494881 5.988066,4.494723" style="fill: white" /><polygon type="contour" points="5.913467,5.222211 5.925333,5.222356 5.997564,5.222333 6.001053,5.222322 6.303219,5.222232 6.844553,5.222186 6.838094,5.279095 6.839593,5.517573 6.469217,5.516967 6.34071,5.516709 6.314623,5.516906 6.275661,5.516632 6.197182,5.51648 5.994808,5.515456 5.988066,5.515418 5.898845,5.5152 5.898845,5.222133" style="fill: white" /><polygon type="contour" points="5.555836,5.222188 5.555799,5.250207 5.555863,5.513857 5.503552,5.504345 5.513855,5.555865 5.511652,5.55586 5.222238,5.556689 5.222178,5.549927 5.221957,5.542411 5.222471,5.5354 5.22248,5.222481 5.553766,5.222179" style="fill: white" /><polygon type="contour" points="5.515416,5.988069 5.515454,5.994812 5.516478,6.197184 5.516631,6.275665 5.516904,6.314624 5.516706,6.340712 5.516966,6.46922 5.517453,6.58117 5.517571,6.839594 5.279095,6.838096 5.222185,6.844555 5.222138,6.476871 5.222226,6.343749 5.222556,6.284517 5.222331,5.997566 5.222326,5.988517 5.222314,5.988068 5.222131,5.898847 5.515197,5.898847" style="fill: white" /><polygon type="contour" points="5.511652,13.575844 5.513856,13.575839 5.503552,13.627354 5.555863,13.617844 5.555799,13.881495 5.555836,13.909514 5.553766,13.909523 5.549926,13.909523 5.22248,13.909221 5.222471,13.596301 5.221957,13.589293 5.222177,13.581776 5.222237,13.575015" style="fill: white" /><polygon type="contour" points="5.294378,12.29157 5.517572,12.292107 5.516966,12.662483 5.516706,12.790991 5.516904,12.81708 5.516632,12.856036 5.516479,12.934516 5.515454,13.136889 5.515416,13.143633 5.515197,13.232857 5.222131,13.232857 5.222313,13.143633 5.222332,13.134134 5.222521,12.88506 5.222556,12.847186 5.222392,12.787909 5.222356,12.654618 5.222483,12.282766" style="fill: white" /><polygon type="contour" points="3.290227,12.295668 3.300462,12.295816 3.300462,12.328756 3.300646,12.740155 3.300821,13.143263 3.300653,13.32048 3.3007,13.232856 3.242461,13.233141 3.157878,13.233586 3.158013,13.143716 3.074216,13.143716 3.062815,13.143633 3.062828,13.13636 3.062616,12.924761 3.062454,12.505829 3.062396,12.479153 3.06251,12.277155" style="fill: white" /><polygon type="contour" points="4.096601,12.280948 4.096874,12.663565 4.09652,12.869475 4.09632,13.130625 4.096338,13.135515 4.09632,13.143183 4.096308,13.143633 4.095784,13.232857 3.763283,13.232857 3.763807,13.143633 3.763826,13.132776 3.764027,12.863309 3.763733,12.82462 3.764053,12.789835 3.763353,12.304106 3.763356,12.298885 3.947437,12.270448" style="fill: white" /><polygon type="contour" points="4.690295,12.786089 4.690472,12.828469 4.690578,12.885059 4.690724,13.134134 4.690732,13.143182 4.69072,13.143632 4.690878,13.232857 4.494879,13.232857 4.494721,13.143632 4.494728,13.135516 4.494729,13.130657 4.495151,12.868702 4.494707,12.36131 4.494711,12.297175 4.534869,12.298665 4.690512,12.284473" style="fill: white" /><polygon type="contour" points="4.69103,13.574498 4.691049,13.581775 4.690395,13.909447 4.620172,13.909447 4.495073,13.90939 4.495215,13.619349 4.494807,13.575212 4.646183,13.57443" style="fill: white" /><polygon type="contour" points="4.096791,13.577241 4.096967,13.90939 3.996654,13.909533 3.763759,13.909306 3.764058,13.613877 3.764281,13.575067 4.096782,13.575067" style="fill: white" /><polygon type="contour" points="3.300471,13.766598 3.300347,13.819719 3.300239,13.841427 3.300257,13.850313 3.300215,13.909326 3.293243,13.909298 3.157704,13.909221 3.12216,13.909478 3.117781,13.909133 3.042548,13.909133 3.0389,13.909374 2.967602,13.9094 2.967332,13.794907 2.967332,13.576469 3.041521,13.576333 3.062761,13.57624 3.157875,13.576332 3.157888,13.575866 3.300687,13.575866" style="fill: white" /><polygon type="contour" points="3.042548,15.831185 3.117782,15.831185 3.12032,15.831077 3.157792,15.83111 3.300593,15.83111 3.300593,15.973908 3.300626,16.011381 3.300516,16.089153 3.300827,16.092802 3.300908,16.163994 3.20311,16.164222 3.201719,16.164461 2.967486,16.164216 2.967486,16.110265 2.967758,15.988696 2.967602,15.830898" style="fill: white" /><polygon type="contour" points="3.200823,15.035031 3.300669,15.035031 3.300506,15.22129 3.300506,15.367943 3.157705,15.367943 3.157677,15.245491 3.157865,15.034732" style="fill: white" /><polygon type="contour" points="3.300573,14.441307 3.300573,14.517638 3.300669,14.636444 3.200824,14.636444 3.157865,14.636542 3.157755,14.504038 3.157705,14.441306 3.249343,14.441306" style="fill: white" /><polygon type="contour" points="4.096969,14.488156 4.096969,14.636542 3.996653,14.636444 3.76368,14.636444 3.76368,14.577697 3.763651,14.441307 3.996654,14.441144 4.096967,14.441137" style="fill: white" /><polygon type="contour" points="4.690395,14.441306 4.690395,14.511528 4.690565,14.636628 4.643544,14.636542 4.49516,14.636542 4.495073,14.583241 4.495073,14.441137 4.548458,14.441137" style="fill: white" /><polygon type="contour" points="4.548458,15.034733 4.690565,15.034733 4.690558,15.135047 4.690395,15.368052 4.614062,15.368052 4.495258,15.368021 4.495258,15.135048 4.49516,15.034732" style="fill: white" /><polygon type="contour" points="4.096669,15.135047 4.096669,15.368021 3.996653,15.368021 3.763759,15.367943 3.763651,15.165506 3.76368,15.135048 3.76368,15.035031 3.996654,15.035031 4.096969,15.034732" style="fill: white" /><polygon type="contour" points="4.096669,15.930878 4.096969,15.973838 3.996653,15.973833 3.763759,15.973997 3.763759,15.831195 3.910408,15.831195 4.096669,15.831031" style="fill: white" /><polygon type="contour" points="4.614062,15.831129 4.690395,15.831129 4.690395,15.973997 4.627662,15.973945 4.49516,15.973838 4.495258,15.930878 4.495258,15.831031" style="fill: white" /><polygon type="contour" points="5.534652,15.830857 5.5569,15.831029 5.556261,15.917823 5.555699,15.953397 5.555799,15.9602 5.555799,15.973869 5.55537,15.973826 5.555462,16.06894 5.555369,16.090182 5.55534,16.091795 5.555231,16.16437 5.336792,16.164371 5.222302,16.164101 5.222569,16.089152 5.222225,16.009541 5.22248,15.973997 5.22248,15.928178 5.222423,15.871484 5.22227,15.830932 5.524596,15.830783" style="fill: white" /><polygon type="contour" points="5.967196,15.83104 5.998922,15.830877 6.001057,15.830879 6.024956,15.83112 6.049136,15.831131 6.209534,15.83069 6.412722,15.831029 6.421497,15.831264 6.427988,15.83112 6.434396,15.831164 6.859079,15.831332 6.837038,15.975538 6.854063,16.069192 6.651849,16.069167 6.345481,16.068839 6.30488,16.068851 6.207198,16.068796 5.995336,16.068875 5.988066,16.068888 5.988066,15.973686 5.898385,15.974039 5.898703,15.909657 5.898385,15.909657 5.898558,15.831069 5.898439,15.830781 5.910304,15.830448" style="fill: white" /><polygon type="contour" points="6.001077,15.035369 6.012218,15.03539 6.858717,15.035411 6.833094,15.357633 6.833824,15.367871 6.341516,15.367868 6.31104,15.367908 6.307082,15.367968 6.268389,15.367675 5.998922,15.367875 5.988515,15.36788 5.988066,15.367892 5.898845,15.368417 5.898845,15.035917 5.988065,15.035393 5.996183,15.035363" style="fill: white" /><polygon type="contour" points="5.532579,15.035662 5.557922,15.035589 5.557922,15.368091 5.55134,15.368011 5.222397,15.367943 5.222625,15.232162 5.222312,15.034733" style="fill: white" /><polygon type="contour" points="5.556395,14.63688 5.53984,14.636943 5.494308,14.63661 5.465339,14.636598 5.222312,14.636628 5.222255,14.511528 5.222255,14.441306 5.545201,14.440986 5.556395,14.440881" style="fill: white" /><polygon type="contour" points="5.988066,14.440983 5.997563,14.440979 6.246638,14.441123 6.301779,14.44118 6.341815,14.441293 6.478423,14.441247 6.871853,14.44122 6.888535,14.506515 6.87112,14.63661 6.003194,14.63697 6.00109,14.636976 5.996183,14.636975 5.988515,14.636971 5.988066,14.636982 5.898845,14.636824 5.898845,14.440825" style="fill: white" /><polygon type="contour" points="6.838094,13.852608 6.844553,13.909518 6.476869,13.909564 6.343747,13.909477 6.284515,13.909146 5.997563,13.90937 5.988515,13.909375 5.988066,13.909387 5.898845,13.909569 5.898845,13.616505 5.988065,13.616286 5.994809,13.616248 6.197181,13.615224 6.275661,13.615071 6.314623,13.614798 6.34071,13.614995 6.469217,13.614735 6.581167,13.614248 6.839593,13.614131" style="fill: white" /><polygon type="contour" points="12.662482,13.614735 12.790989,13.614995 12.817077,13.614798 12.856034,13.615072 12.934514,13.615224 13.136887,13.616249 13.14363,13.616286 13.232855,13.616505 13.232855,13.909569 13.14363,13.909386 13.134132,13.90937 12.885058,13.909181 12.847184,13.909146 12.787906,13.909311 12.654615,13.909346 12.282764,13.909217 12.291568,13.837321 12.292106,13.614131" style="fill: white" /><polygon type="contour" points="13.909345,12.654618 13.909309,12.787908 13.909144,12.847186 13.909369,13.134134 13.909345,13.206368 13.909489,13.218236 13.909531,13.21906 13.909568,13.232857 13.616502,13.232857 13.616283,13.143632 13.616246,13.136889 13.615221,12.934516 13.615069,12.856036 13.614796,12.81708 13.614994,12.79099 13.614733,12.662483 13.614245,12.550533 13.614128,12.292107 13.83732,12.29157 13.909215,12.282766" style="fill: white" /><polygon type="contour" points="14.59683,12.298665 14.622003,12.296354 14.636988,12.297175 14.636992,12.361309 14.636549,12.868702 14.63697,13.130657 14.636972,13.135515 14.636968,13.143183 14.636979,13.143633 14.636821,13.232857 14.440822,13.232857 14.44098,13.143632 14.440976,13.134135 14.44112,12.885059 14.441226,12.82847 14.441404,12.78609 14.441189,12.284473 14.465309,12.28342" style="fill: white" /><polygon type="contour" points="15.365564,12.299104 15.368349,12.298896 15.368347,12.303222 15.368347,12.304106 15.367647,12.789836 15.367965,12.82462 15.367672,12.863309 15.367873,13.132776 15.367878,13.143182 15.367891,13.143632 15.368416,13.232857 15.035916,13.232857 15.035392,13.143633 15.035362,13.135515 15.03538,13.130625 15.03518,12.869475 15.034826,12.663565 15.035099,12.280948" style="fill: white" /><polygon type="contour" points="16.069303,12.479152 16.069242,12.785815 16.068847,12.82682 16.068793,12.924499 16.068874,13.136361 16.068886,13.143716 15.973683,13.143716 15.973823,13.233586 15.910168,13.233275 15.831067,13.232857 15.83078,13.232942 15.830446,13.220778 15.831039,13.164505 15.830874,13.132775 15.831114,13.111818 15.831108,13.106033 15.830619,12.994437 15.830692,12.915188 15.830971,12.747668 15.831239,12.328756 15.831257,12.316058 15.831239,12.295816 15.841471,12.295668 16.069189,12.277155" style="fill: white" /><polygon type="contour" points="15.952877,13.575799 15.975624,13.575799 16.068935,13.576239 16.09018,13.576333 16.091791,13.576362 16.164368,13.576469 16.164368,13.794907 16.164098,13.9094 16.089151,13.909133 16.00954,13.909478 15.973994,13.909221 15.928175,13.909221 15.871481,13.90928 15.830978,13.909481 15.831407,13.583105 15.831367,13.575448 15.843201,13.575448" style="fill: white" /><polygon type="contour" points="15.367415,13.577482 15.368667,13.605776 15.367487,13.6106 15.367942,13.909306 15.23216,13.909078 15.034733,13.90939 15.034907,13.577241 15.034916,13.575067 15.367419,13.575067" style="fill: white" /><polygon type="contour" points="14.63665,13.581775 14.636594,13.598571 14.636834,13.605042 14.636627,13.90939 14.583241,13.90939 14.441305,13.909447 14.440824,13.604461 14.44067,13.574498 14.636669,13.574498" style="fill: white" /><polygon type="contour" points="13.909522,13.581776 13.909742,13.589292 13.909229,13.596301 13.90922,13.90922 13.577934,13.909523 13.575863,13.909514 13.5759,13.881495 13.575838,13.617843 13.628343,13.628345 13.617842,13.575839 13.620045,13.575844 13.909462,13.575015" style="fill: white" /><polygon type="contour" points="13.909529,15.135047 13.909303,15.367943 13.580359,15.368011 13.573778,15.368091 13.573778,15.035589 13.599118,15.035662 13.661681,15.035264 13.909388,15.034733" style="fill: white" /><polygon type="contour" points="13.586498,14.440986 13.909446,14.441306 13.909446,14.511528 13.909388,14.636628 13.66636,14.636598 13.637391,14.63661 13.591859,14.636943 13.575305,14.63688 13.575305,14.440881" style="fill: white" /><polygon type="contour" points="13.232855,14.636824 13.14363,14.636982 13.135514,14.636975 13.130606,14.636976 13.128501,14.63697 12.260577,14.636611 12.27441,14.542287 12.259846,14.44122 12.651583,14.441285 12.788092,14.441349 12.829917,14.44118 12.885058,14.441122 13.134132,14.440978 13.143181,14.440971 13.14363,14.440982 13.232855,14.440825" style="fill: white" /><polygon type="contour" points="13.143181,15.03538 13.143631,15.035393 13.232855,15.035917 13.232855,15.368418 13.143631,15.367893 13.137975,15.367875 12.989317,15.367674 12.863307,15.367674 12.824618,15.367968 12.820659,15.367908 12.790184,15.367868 12.297876,15.367871 12.297645,15.354113 12.261002,15.219724 12.272981,15.035412 13.119477,15.03539 13.130617,15.035369 13.135513,15.035363" style="fill: white" /><polygon type="contour" points="13.23314,15.88924 13.233584,15.973825 13.143714,15.973687 13.143714,16.057486 13.143631,16.068887 13.138398,16.068872 12.964751,16.069058 12.83006,16.069099 12.790783,16.068851 12.661286,16.0689 12.262784,16.069227 12.297628,15.841105 12.295835,15.831246 12.328753,15.831241 12.790031,15.831033 13.137975,15.830876 13.14329,15.830873 13.232853,15.830838" style="fill: white" /><polygon type="contour" points="13.695628,15.831094 13.731789,15.831123 13.797005,15.83134 13.830311,15.831422 13.847324,15.831429 13.850311,15.831444 13.855147,15.831511 13.909323,15.831487 13.909297,15.838457 13.90922,15.973998 13.909475,16.009541 13.909132,16.013921 13.909132,16.089152 13.909372,16.092802 13.909398,16.1641 13.794908,16.16437 13.576468,16.16437 13.57633,16.090182 13.576239,16.068939 13.576329,15.973826 13.575901,15.97387 13.575901,15.9602 13.576001,15.953397 13.575437,15.917823 13.574799,15.831029" style="fill: white" /><polygon type="contour" points="14.636443,15.930878 14.636541,15.973838 14.504037,15.973945 14.441305,15.973997 14.441305,15.831129 14.517638,15.831129 14.636443,15.831031" style="fill: white" /><polygon type="contour" points="15.22129,15.831195 15.367942,15.831195 15.367942,15.973997 15.245491,15.974026 15.034732,15.973837 15.035031,15.930879 15.035031,15.831031" style="fill: white" /><polygon type="contour" points="15.135046,15.035031 15.36802,15.035031 15.36802,15.135047 15.367942,15.367943 15.165506,15.368051 15.135046,15.368021 15.035031,15.368021 15.035031,15.135048 15.034732,15.034732" style="fill: white" /><polygon type="contour" points="14.636443,15.135048 14.636443,15.368021 14.577696,15.368021 14.441305,15.368052 14.441143,15.135047 14.441136,15.034733 14.488156,15.034732 14.636541,15.034732" style="fill: white" /><polygon type="contour" points="14.636541,14.488156 14.636541,14.636541 14.58324,14.636628 14.441136,14.636628 14.441136,14.583242 14.441305,14.441306 14.511527,14.441306 14.636627,14.441138" style="fill: white" /><polygon type="contour" points="15.135046,14.441144 15.36805,14.441307 15.36805,14.517638 15.36802,14.636444 15.135047,14.636444 15.034732,14.636542 15.034733,14.583242 15.034733,14.441137" style="fill: white" /><polygon type="contour" points="15.973944,14.504038 15.973835,14.636542 15.930877,14.636444 15.83103,14.636444 15.831127,14.517638 15.831127,14.441307 15.882355,14.441306 15.973994,14.441306" style="fill: white" /><polygon type="contour" points="15.97383,15.135048 15.973994,15.367943 15.894175,15.367944 15.831194,15.367944 15.831194,15.221292 15.83103,15.035031 15.930876,15.035031 15.973835,15.034732" style="fill: white" /><polygon type="contour" points="16.164098,15.830898 16.163942,15.988696 16.164213,16.110266 16.164213,16.164216 15.92998,16.164461 15.928589,16.164222 15.830792,16.163994 15.831182,16.089152 15.831182,16.013922 15.831074,16.01138 15.831108,15.973908 15.831108,15.83111 15.973906,15.83111 16.011378,15.831077 16.089151,15.831185 16.092799,15.830875" style="fill: white" />
</svg>
