<svg width="19.131698" height="19.131699">
<polygon type="contour" points="10.067648,8.887842 10.210371,8.888002 10.210765,9.054032 10.212026,9.070605 10.213416,9.149805 10.00335,9.147408 10.00335,9.984295 10.213416,9.981899 10.212026,10.061098 10.210765,10.077671 10.210371,10.243702 10.074994,10.243702 10.067648,10.243384 10.063183,10.243442 9.982859,10.246803 9.982201,10.190366 9.975625,10.1276 9.982377,10.003352 9.148361,10.003352 9.149499,10.190366 9.148841,10.246803 9.068516,10.243442 9.064052,10.243384 8.921329,10.243702 8.920932,10.077672 8.919674,10.061097 8.918283,9.981899 9.12835,9.984295 9.12835,9.147408 8.918283,9.149805 8.919674,9.070606 8.920932,9.054031 8.921329,8.888002 9.056704,8.888002 9.064051,8.887842 9.068517,8.887768 9.148841,8.884733 9.149499,8.941335 9.156075,9.004102 9.149322,9.128352 9.983338,9.128352 9.982201,8.941335 9.982859,8.884733" style="fill: white" />
</svg>
