<svg width="19.131698" height="19.131699">
<polygon type="contour" points="10.561123,8.806101 10.560143,8.86592 10.314721,8.866066 10.265724,8.865978 10.265514,8.761296 10.265432,8.605838 10.265477,8.603168 10.265477,8.587608 10.266016,8.571581 10.290133,8.571818 10.294935,8.571273 10.373334,8.569028 10.56833,8.563372" style="fill: white" /><polygon type="contour" points="10.392985,9.126337 10.39285,9.142787 10.392962,9.158987 10.393286,9.220274 10.264895,9.220274 10.26486,9.158987 10.264881,9.126338 10.265052,9.078967 10.265052,9.066515 10.393342,9.066515" style="fill: white" /><polygon type="contour" points="10.562973,9.509485 10.563852,9.565765 10.562973,9.621788 10.563395,9.711102 10.264923,9.711102 10.264923,9.420602 10.563395,9.420602" style="fill: white" /><polygon type="contour" points="9.220272,10.264896 9.220272,10.393288 9.158984,10.392963 9.142785,10.392851 9.126335,10.392986 9.066513,10.393344 9.066513,10.265054 9.078966,10.265054 9.126335,10.264885 9.158984,10.264862" style="fill: white" /><polygon type="contour" points="9.711101,10.560076 9.681404,10.561363 9.565937,10.563422 9.4758,10.56067 9.4206,10.560076 9.4206,10.264925 9.711101,10.264925" style="fill: white" /><polygon type="contour" points="9.711101,10.065187 9.4206,10.065187 9.4206,9.91143 9.711101,9.91143" style="fill: white" /><polygon type="contour" points="10.005364,10.264885 10.052732,10.265054 10.065186,10.265054 10.065186,10.393344 10.005364,10.392986 9.988914,10.392851 9.972715,10.392963 9.911428,10.393288 9.911428,10.264896 9.972715,10.264862" style="fill: white" /><polygon type="contour" points="10.560143,10.265782 10.561123,10.325599 10.568329,10.568332 10.373334,10.562676 10.294935,10.560431 10.290133,10.559887 10.266016,10.560124 10.265414,10.545697 10.265477,10.544096 10.265432,10.525864 10.265432,10.500519 10.265514,10.370408 10.265506,10.357701 10.265635,10.265637 10.314721,10.265637" style="fill: white" /><polygon type="contour" points="10.392962,9.972716 10.39285,9.988916 10.392984,10.005365 10.393342,10.065189 10.265052,10.065189 10.265052,10.052734 10.264882,10.005366 10.26486,9.972716 10.264895,9.91143 10.393286,9.91143" style="fill: white" /><polygon type="contour" points="10.052691,9.910867 10.065185,9.910867 10.065122,9.97198 10.065122,10.005366 10.065186,10.052734 10.065186,10.065189 10.005364,10.065124 9.971979,10.065124 9.910866,10.065187 9.910863,10.005366 9.91109,9.972716 9.911428,9.924472 9.911428,9.91143 9.972716,9.91109 10.005363,9.910864" style="fill: white" /><polygon type="contour" points="10.065185,9.711102 9.911428,9.711102 9.911428,9.420602 10.065185,9.420602" style="fill: white" /><polygon type="contour" points="9.711101,9.711102 9.4206,9.711102 9.4206,9.420602 9.711101,9.420602" style="fill: white" /><polygon type="contour" points="9.711101,9.220274 9.4206,9.220274 9.4206,9.066422 9.711101,9.066422" style="fill: white" /><polygon type="contour" points="9.972716,9.0661 10.005364,9.066581 10.052732,9.066515 10.065186,9.066515 10.065122,9.126337 10.065602,9.158986 10.066379,9.220274 10.005347,9.220611 9.992282,9.220274 9.911428,9.220274 9.91109,9.158986 9.91109,9.126356 9.911428,9.065227" style="fill: white" /><polygon type="contour" points="10.065186,8.86665 10.052732,8.86665 10.005364,8.866816 9.972716,8.86684 9.911428,8.866711 9.911428,8.738416 9.972716,8.738741 9.988913,8.738852 10.005364,8.738717 10.065186,8.73836" style="fill: white" /><polygon type="contour" points="9.6559,8.571033 9.711101,8.571629 9.711101,8.866659 9.4206,8.866659 9.4206,8.571629 9.450155,8.570341 9.5655,8.568279" style="fill: white" /><polygon type="contour" points="8.758365,8.569028 8.836764,8.571273 8.841567,8.571818 8.865685,8.571581 8.866287,8.586007 8.866223,8.587608 8.866269,8.605838 8.866269,8.631185 8.866187,8.761296 8.866195,8.774003 8.866064,8.866066 8.816979,8.866066 8.571558,8.86592 8.570577,8.806101 8.56337,8.563372" style="fill: white" /><polygon type="contour" points="9.126335,8.738717 9.142786,8.738852 9.158983,8.738741 9.220272,8.738416 9.220272,8.866711 9.158983,8.86684 9.126336,8.866816 9.078965,8.86665 9.066513,8.86665 9.066513,8.73836" style="fill: white" /><polygon type="contour" points="9.220837,9.126337 9.220609,9.158986 9.220272,9.207232 9.220272,9.220274 9.158983,9.220611 9.126336,9.220838 9.079008,9.220837 9.06642,9.220837 9.066579,9.159724 9.066579,9.126338 9.066513,9.078967 9.066513,9.066515 9.126335,9.066581 9.15972,9.066581 9.220835,9.066422" style="fill: white" /><polygon type="contour" points="8.866647,9.078968 8.866816,9.126337 8.866838,9.158987 8.866708,9.220274 8.738414,9.220274 8.738737,9.158987 8.738849,9.142787 8.738715,9.126337 8.738358,9.066515 8.866647,9.066515" style="fill: white" /><polygon type="contour" points="8.866658,9.662795 8.866775,9.711102 8.568306,9.711102 8.568726,9.622218 8.567847,9.565938 8.568726,9.509914 8.568306,9.420602 8.866658,9.420602" style="fill: white" /><polygon type="contour" points="9.220272,9.711102 9.066515,9.711102 9.066515,9.45988 9.06642,9.420602 9.220272,9.420602" style="fill: white" /><polygon type="contour" points="9.139417,9.91143 9.220272,9.91143 9.220608,9.972716 9.220837,10.005366 9.220835,10.065187 9.15972,10.065124 9.126335,10.065124 9.078966,10.065189 9.066513,10.065189 9.066579,10.005366 9.066097,9.972716 9.065321,9.91143 9.126353,9.911091" style="fill: white" /><polygon type="contour" points="8.866838,9.972717 8.866816,10.005365 8.866647,10.052734 8.866647,10.065189 8.738358,10.065189 8.738715,10.005365 8.738849,9.988916 8.738737,9.972716 8.738414,9.91143 8.866805,9.91143" style="fill: white" /><polygon type="contour" points="8.865976,10.265725 8.866186,10.370408 8.866269,10.525865 8.866223,10.528535 8.866223,10.544096 8.865685,10.560124 8.841567,10.559887 8.836764,10.560431 8.758365,10.562676 8.56337,10.568332 8.570576,10.3256 8.571558,10.265782 8.816979,10.265637" style="fill: white" />
</svg>
