<svg width="19.131698" height="19.131699">
<polygon type="contour" points="17.209902,14.554437 17.237568,14.553216 17.23758,14.583527 17.237558,14.744702 17.293862,14.744948 17.294711,14.744963 17.332918,14.74502 17.332918,14.860012 17.332406,15.077707 17.295439,15.077576 17.256172,15.077746 17.227189,15.077536 17.214984,15.077762 17.142432,15.078061 17.126788,15.078061 16.999731,15.077535 16.99968,14.959663 16.99968,14.544115" style="fill: white" /><polygon type="contour" points="16.821084,14.549143 16.886196,14.547139 16.886196,14.964137 16.886342,15.077592 16.621332,15.078088 16.554065,15.078021 16.553257,14.736483 16.553294,14.541396" style="fill: white" /><polygon type="contour" points="16.886376,15.259475 16.88638,15.292948 16.88638,15.455426 16.829509,15.455426 16.553257,15.455624 16.554065,15.308268 16.554065,15.259576 16.829509,15.259426" style="fill: white" /><polygon type="contour" points="17.111068,15.259654 17.142356,15.259654 17.141974,15.396507 17.14194,15.455624 17.024066,15.455426 16.999642,15.455426 16.999642,15.292949 16.999672,15.259475" style="fill: white" /><polygon type="contour" points="17.332406,16.999206 17.332328,17.077035 17.332836,17.304438 17.332836,17.332838 17.209527,17.332968 17.208797,17.332842 16.999152,17.332356 16.999344,17.295439 16.999344,17.258333 16.999289,17.257081 16.999315,17.22874 16.999334,17.216668 16.999692,17.142497 16.999692,16.999696 17.142496,16.999696 17.216663,16.999336 17.228738,16.999318 17.25708,16.999294 17.295439,16.999346 17.297237,16.999194" style="fill: white" /><polygon type="contour" points="17.142002,16.646717 17.142496,16.886346 16.999692,16.886346 16.999692,16.599321 16.999642,16.553884 17.0937,16.553259 17.14194,16.553259" style="fill: white" /><polygon type="contour" points="16.829509,16.553884 16.88638,16.553884 16.88638,16.829511 16.886342,16.886346 16.836821,16.88638 16.82951,16.886382 16.553882,16.886382 16.553882,16.829511 16.553257,16.553259" style="fill: white" /><polygon type="contour" points="16.599318,16.999696 16.886342,16.999696 16.886342,17.142498 16.646716,17.142004 16.553257,17.141942 16.553882,17.024067 16.553882,16.999644" style="fill: white" /><polygon type="contour" points="15.455423,16.829511 15.455423,16.886382 15.292947,16.886382 15.259473,16.88638 15.259424,16.829511 15.259575,16.554065 15.389409,16.553259 15.455622,16.553259" style="fill: white" /><polygon type="contour" points="15.455622,17.093702 15.455622,17.141942 15.396504,17.141976 15.259653,17.14236 15.259473,17.020956 15.259473,16.999676 15.426261,16.999676 15.455423,16.999644" style="fill: white" /><polygon type="contour" points="15.077533,16.999736 15.077533,17.009919 15.07806,17.142436 15.077759,17.214986 15.077535,17.227193 15.077743,17.256174 15.077574,17.258334 15.077574,17.295439 15.077691,17.297239 15.077705,17.332408 14.860011,17.33292 14.745019,17.33292 14.744947,17.293863 14.744701,17.23756 14.54042,17.237692 14.530119,17.237438 14.52236,17.112016 14.546032,16.99967 14.9626,16.99967" style="fill: white" /><polygon type="contour" points="14.917093,16.553833 15.078019,16.554064 15.077562,16.829511 15.077589,16.886346 14.963111,16.88641 14.55428,16.886702 14.5421,16.648903 14.544367,16.553635" style="fill: white" /><polygon type="contour" points="15.455622,15.389411 15.455622,15.455624 15.308266,15.455049 15.259575,15.455049 15.259575,15.308267 15.259653,15.259654 15.412161,15.259654 15.455048,15.259576" style="fill: white" /><polygon type="contour" points="15.07806,15.259654 15.07806,15.412162 15.078019,15.455049 14.916898,15.454932 14.538821,15.455435 14.544174,15.314023 14.542145,15.259649 14.913955,15.259649" style="fill: white" /><polygon type="contour" points="15.077995,14.91498 15.07806,15.078061 14.910258,15.078104 14.539558,15.078104 14.553417,14.741907 14.554137,14.571373 14.5691,14.569101 14.571372,14.554139 14.741906,14.553419 15.077995,14.542804" style="fill: white" /><polygon type="contour" points="15.455432,14.538823 15.454929,14.916899 15.455048,15.078021 15.41216,15.078061 15.259653,15.078061 15.259647,14.913956 15.259647,14.542146 15.382139,14.536123" style="fill: white" /><polygon type="contour" points="14.916897,3.676773 15.078019,3.676655 15.078019,3.823435 15.07806,3.872049 14.913955,3.872055 14.542145,3.872055 14.536121,3.74956 14.538821,3.676269" style="fill: white" /><polygon type="contour" points="15.07806,4.053643 15.077995,4.216722 15.077995,4.588899 14.741906,4.578285 14.571372,4.577565 14.5691,4.5626 14.554137,4.560329 14.553417,4.389795 14.539558,4.0536 14.910258,4.0536" style="fill: white" /><polygon type="contour" points="15.455048,3.823434 15.455048,3.872128 15.308266,3.872128 15.259653,3.87205 15.259653,3.719541 15.259575,3.676655 15.389408,3.67608 15.45562,3.67608" style="fill: white" /><polygon type="contour" points="15.455048,4.053683 15.454929,4.214804 15.455431,4.59288 15.314022,4.587528 15.259647,4.589557 15.259647,4.217747 15.259653,4.053643 15.41216,4.053643" style="fill: white" /><polygon type="contour" points="16.886342,4.054113 16.886196,4.167567 16.886196,4.584564 16.821084,4.58256 16.553294,4.590307 16.554057,4.21437 16.554065,4.053683 16.621332,4.053614" style="fill: white" /><polygon type="contour" points="17.214984,4.053943 17.227189,4.054167 17.256171,4.053959 17.258331,4.054129 17.29544,4.054129 17.297237,4.054009 17.332406,4.053997 17.332918,4.271691 17.332918,4.386683 17.293861,4.386756 17.237556,4.387001 17.237888,4.591244 17.237854,4.601609 17.11142,4.614427 16.99968,4.587588 16.99968,4.17204 16.999732,4.054168 17.009915,4.054168 17.142432,4.053643" style="fill: white" /><polygon type="contour" points="17.142316,3.823434 17.142356,3.87205 17.020954,3.871633 16.999672,3.871633 16.999672,3.705439 16.999642,3.676277 17.093699,3.67608 17.14194,3.67608" style="fill: white" /><polygon type="contour" points="16.829509,3.676277 16.88638,3.676277 16.88638,3.838174 16.886376,3.871633 16.82951,3.871697 16.554065,3.872128 16.553257,3.742291 16.553257,3.67608" style="fill: white" /><polygon type="contour" points="17.332836,1.798865 17.332836,1.827266 17.332328,2.054668 17.332406,2.132498 17.295439,2.132357 17.258331,2.132357 17.257079,2.132411 17.228738,2.132385 17.216663,2.132368 17.142496,2.132008 16.999696,2.132008 16.999696,2.122243 16.999692,1.989208 16.999334,1.915037 16.999315,1.902962 16.99929,1.874623 16.999346,1.836263 16.999192,1.834464 16.999152,1.799348 17.208797,1.798862 17.209527,1.798736" style="fill: white" /><polygon type="contour" points="17.142002,2.484985 17.14194,2.578444 17.024066,2.57782 16.999642,2.57782 16.999692,2.532382 16.999694,2.245357 17.142496,2.245357" style="fill: white" /><polygon type="contour" points="16.886346,2.112477 16.886346,2.132008 16.599316,2.132008 16.55388,2.132058 16.553257,2.038002 16.553257,1.989762 16.646716,1.9897 16.886342,1.989208" style="fill: white" /><polygon type="contour" points="16.886346,2.245357 16.886342,2.532383 16.88638,2.57782 16.829509,2.57782 16.553257,2.578444 16.55388,2.302189 16.55388,2.24532 16.829511,2.24532" style="fill: white" /><polygon type="contour" points="15.455423,2.30219 15.455622,2.578444 15.308265,2.577638 15.259573,2.577638 15.259424,2.302189 15.259473,2.245324 15.426262,2.245324 15.455423,2.24532" style="fill: white" /><polygon type="contour" points="15.396505,1.989727 15.455622,1.989762 15.455423,2.107634 15.455423,2.132058 15.426262,2.132028 15.259473,2.132028 15.259653,2.02063 15.259653,1.989343" style="fill: white" /><polygon type="contour" points="15.077706,1.799297 15.077574,1.836263 15.077743,1.875529 15.077535,1.90451 15.077759,1.916717 15.07806,1.989267 15.07806,2.004909 15.077533,2.131968 14.9626,2.132034 14.546034,2.132034 14.52236,2.019689 14.530119,1.894266 14.540419,1.89401 14.744701,1.89414 14.744946,1.837839 14.744961,1.83699 14.745019,1.798784 14.860011,1.798784" style="fill: white" /><polygon type="contour" points="14.963113,2.245294 15.077589,2.245357 15.078085,2.51037 15.078018,2.577638 14.91709,2.57787 14.544367,2.578069 14.554363,2.248376 14.554281,2.244998" style="fill: white" /><polygon type="contour" points="4.5896,2.4828 4.587333,2.578069 4.214608,2.57787 4.053681,2.577638 4.054138,2.30219 4.054111,2.245357 4.168587,2.245294 4.577418,2.244998" style="fill: white" /><polygon type="contour" points="4.386754,1.837839 4.386999,1.89414 4.548173,1.894121 4.578487,1.894133 4.577266,1.921797 4.587686,2.084816 4.585666,2.132034 4.1691,2.132034 4.054167,2.131968 4.054167,2.121784 4.053641,1.989267 4.053942,1.916717 4.054166,1.90451 4.053958,1.875529 4.054127,1.87337 4.054127,1.836262 4.054007,1.834463 4.053995,1.799297 4.271689,1.798784 4.386681,1.798784" style="fill: white" /><polygon type="contour" points="3.871631,2.245324 3.871695,2.302189 3.872126,2.577638 3.742289,2.578444 3.676078,2.578444 3.676276,2.30219 3.676276,2.24532 3.838173,2.24532" style="fill: white" /><polygon type="contour" points="3.871631,2.110746 3.871631,2.132028 3.705436,2.132028 3.676276,2.132058 3.676078,2.038002 3.676078,1.989762 3.735192,1.989727 3.872048,1.989343" style="fill: white" /><polygon type="contour" points="1.922902,1.798862 2.132548,1.799348 2.132355,1.836262 2.132355,1.87337 2.132409,1.874623 2.132384,1.902962 2.132366,1.915038 2.132006,1.989207 2.132006,2.132008 1.989205,2.132008 1.915036,2.132368 1.90296,2.132385 1.874621,2.132411 1.83626,2.132357 1.834461,2.13251 1.799295,2.132498 1.799372,2.054668 1.798863,1.827266 1.798863,1.798865 1.92217,1.798736" style="fill: white" /><polygon type="contour" points="2.484982,1.9897 2.578442,1.989762 2.577819,2.107634 2.577819,2.132058 2.532381,2.132008 2.245355,2.132008 2.245355,1.989208" style="fill: white" /><polygon type="contour" points="2.577819,2.302189 2.578442,2.578444 2.302188,2.57782 2.245318,2.57782 2.245318,2.302189 2.245355,2.245357 2.294876,2.245323 2.302187,2.24532 2.577819,2.24532" style="fill: white" /><polygon type="contour" points="2.132006,2.532382 2.132057,2.57782 2.038001,2.578444 1.989761,2.578444 1.989699,2.484984 1.989206,2.245357 2.132006,2.245357" style="fill: white" /><polygon type="contour" points="2.131966,4.054168 2.132018,4.17204 2.132018,4.587588 2.020282,4.614426 1.893848,4.60161 1.893812,4.591243 1.894138,4.387001 1.837836,4.386756 1.836988,4.386741 1.798782,4.386683 1.798782,4.271691 1.799295,4.053998 1.83626,4.054129 1.875528,4.053959 1.904508,4.054167 1.916715,4.053943 1.989265,4.053642 2.004908,4.053642" style="fill: white" /><polygon type="contour" points="2.107632,3.676277 2.132057,3.676277 2.132057,3.838174 2.132026,3.871633 2.02063,3.872049 1.989342,3.872049 1.989725,3.735195 1.989761,3.67608" style="fill: white" /><polygon type="contour" points="2.577637,3.823434 2.577637,3.872128 2.302187,3.871697 2.245322,3.871633 2.245318,3.838174 2.245318,3.676277 2.302188,3.676277 2.578442,3.67608" style="fill: white" /><polygon type="contour" points="2.577637,4.053682 2.578442,4.395217 2.578406,4.590307 2.310612,4.58256 2.245502,4.584564 2.245502,4.167568 2.245355,4.054113 2.51037,4.053614" style="fill: white" /><polygon type="contour" points="3.872053,4.217747 3.872053,4.589557 3.749559,4.59558 3.676266,4.59288 3.676771,4.214805 3.676653,4.053683 3.719539,4.053643 3.872048,4.053643" style="fill: white" /><polygon type="contour" points="3.823433,3.676655 3.872126,3.676655 3.872126,3.823434 3.872048,3.87205 3.719539,3.87205 3.676653,3.872128 3.676078,3.74229 3.676078,3.67608" style="fill: white" /><polygon type="contour" points="4.587526,3.81768 4.589556,3.872055 4.217745,3.872055 4.053641,3.87205 4.053641,3.719541 4.053681,3.676655 4.214803,3.676773 4.592879,3.676269" style="fill: white" /><polygon type="contour" points="4.578284,4.389796 4.577563,4.56033 4.562598,4.5626 4.560327,4.577565 4.389793,4.578285 4.053705,4.588899 4.053705,4.216722 4.053641,4.053643 4.221442,4.0536 4.592143,4.0536" style="fill: white" /><polygon type="contour" points="2.132018,14.544115 2.132018,14.959663 2.131966,15.077536 2.121782,15.077536 1.989265,15.078062 1.916715,15.077761 1.904509,15.077536 1.875527,15.077746 1.873368,15.077576 1.836261,15.077576 1.834462,15.077694 1.799295,15.077707 1.798782,14.860012 1.798782,14.74502 1.837836,14.744948 1.894138,14.744702 1.894119,14.583527 1.894131,14.553216 1.921796,14.554437 2.084815,14.544016" style="fill: white" /><polygon type="contour" points="2.132026,15.426263 2.132057,15.455426 2.038001,15.455624 1.989761,15.455624 1.989382,15.308269 1.989342,15.259655 2.110743,15.259475 2.132026,15.259475" style="fill: white" /><polygon type="contour" points="2.577636,15.259576 2.578442,15.389412 2.578442,15.455624 2.302188,15.455426 2.245318,15.455426 2.245318,15.292948 2.245322,15.259475 2.302188,15.259426" style="fill: white" /><polygon type="contour" points="2.577644,14.917335 2.577636,15.078021 2.51037,15.078089 2.245355,15.077592 2.245502,14.964136 2.245502,14.547139 2.310612,14.549143 2.578405,14.541396" style="fill: white" /><polygon type="contour" points="4.389793,14.553419 4.560328,14.554139 4.562598,14.569101 4.577563,14.571372 4.578284,14.741907 4.592143,15.078104 4.221442,15.078104 4.053641,15.078061 4.053705,14.91498 4.053705,14.542804" style="fill: white" /><polygon type="contour" points="3.817678,14.544175 3.872053,14.542146 3.872053,14.913956 3.872048,15.078061 3.719539,15.078061 3.676653,15.07802 3.676771,14.916898 3.676267,14.538823" style="fill: white" /><polygon type="contour" points="3.872048,15.259654 3.872048,15.412162 3.872126,15.455049 3.742288,15.455624 3.676078,15.455624 3.676653,15.308268 3.676653,15.259576 3.823433,15.259576" style="fill: white" /><polygon type="contour" points="4.595578,15.382141 4.592879,15.455435 4.214802,15.454932 4.053681,15.455049 4.053681,15.308268 4.053641,15.259654 4.217745,15.259649 4.589556,15.259649" style="fill: white" /><polygon type="contour" points="4.577265,17.209906 4.578486,17.237572 4.548173,17.237582 4.386999,17.23756 4.386754,17.293864 4.386739,17.294714 4.386681,17.33292 4.271689,17.33292 4.053995,17.332408 4.054127,17.29544 4.053958,17.256173 4.054166,17.227193 4.053942,17.214986 4.053641,17.142435 4.053641,17.126791 4.054167,16.999735 4.1691,16.99967 4.585666,16.99967" style="fill: white" /><polygon type="contour" points="4.577337,16.883323 4.577419,16.886702 4.168588,16.88641 4.054111,16.886346 4.053612,16.621331 4.05368,16.554065 4.214608,16.553833 4.587332,16.553635" style="fill: white" /><polygon type="contour" points="3.823433,16.554065 3.872126,16.554065 3.871695,16.829512 3.871631,16.88638 3.705436,16.88638 3.676276,16.886382 3.676276,16.829511 3.676078,16.553259" style="fill: white" /><polygon type="contour" points="3.705437,16.999676 3.871631,16.999676 3.872048,17.111072 3.872048,17.14236 3.735193,17.141976 3.676078,17.141942 3.676276,17.024068 3.676276,16.999644" style="fill: white" /><polygon type="contour" points="2.578442,17.093702 2.578442,17.141942 2.484983,17.142004 2.245355,17.142498 2.245355,16.999696 2.532382,16.999696 2.577819,16.999644" style="fill: white" /><polygon type="contour" points="2.577819,16.829512 2.577819,16.886382 2.302188,16.886382 2.245355,16.886346 2.245355,16.599321 2.245318,16.553884 2.302188,16.553884 2.578442,16.553259" style="fill: white" /><polygon type="contour" points="2.107631,16.553884 2.132057,16.553884 2.132006,16.599321 2.132006,16.886346 1.989206,16.886346 1.989699,16.646718 1.989761,16.553259" style="fill: white" /><polygon type="contour" points="1.836261,16.999346 1.873368,16.999346 1.87462,16.999294 1.902961,16.999318 1.915036,16.999336 1.989205,16.999696 2.132006,16.999696 2.132006,17.142498 2.132367,17.216667 2.132383,17.228739 2.132409,17.257082 2.132355,17.295439 2.132508,17.297239 2.132548,17.332356 1.922902,17.332842 1.92217,17.332968 1.798863,17.332838 1.798863,17.304438 1.799372,17.077035 1.799295,16.999206" style="fill: white" />
</svg>
