<svg width="19.131698" height="19.131699">
<polygon type="contour" points="3.690808,3.41267 3.745997,3.412798 3.745531,3.502089 3.745531,3.591845 3.745661,3.594875 3.745654,3.602857 3.745654,3.745655 3.602854,3.745655 3.594873,3.745663 3.502088,3.745533 3.497735,3.745903 3.412671,3.745874 3.412857,3.557614 3.412675,3.476362 3.412675,3.412677 3.689166,3.412388" style="fill: white" /><polygon type="contour" points="4.195594,3.602946 4.195799,3.696115 4.195799,3.745795 4.135768,3.745608 3.999908,3.745608 3.999908,3.602809 4.121228,3.602709" style="fill: white" /><polygon type="contour" points="4.067987,4.000043 4.195799,4.000043 4.195799,4.067988 4.195594,4.195595 4.112613,4.195595 4.000042,4.195801 3.999908,4.13577 3.999908,3.99991" style="fill: white" /><polygon type="contour" points="3.745606,4.135771 3.745794,4.195801 3.663616,4.195595 3.602944,4.195595 3.602995,4.067989 3.602807,3.99991 3.745606,3.99991" style="fill: white" /><polygon type="contour" points="4.195789,5.782039 4.195929,5.791266 4.195634,5.802248 4.195729,5.8148 4.195675,5.827104 4.195721,6.022268 4.195732,6.026725 4.195779,6.031527 4.195755,6.033876 4.19565,6.037352 3.9999,6.037352 3.999777,6.033578 4.000396,6.030697 3.999936,5.971705 4.00003,5.95912 4.000312,5.82414 4.000367,5.812735 4.000275,5.800548 4.00038,5.791265 4.000412,5.780585 4.000283,5.772656 4.00028,5.667382 4.147802,5.667382 4.19567,5.667358" style="fill: white" /><polygon type="contour" points="4.195594,5.290473 4.19567,5.481444 4.055201,5.481444 4.00028,5.481412 4.00037,5.387898 4.000042,5.148906 4.067986,5.148906 4.195594,5.148902" style="fill: white" /><polygon type="contour" points="3.696113,5.148906 3.745794,5.148906 3.745645,5.243104 3.745744,5.481187 3.602942,5.481187 3.603056,5.387898 3.602944,5.148902" style="fill: white" /><polygon type="contour" points="3.602941,5.667323 3.729715,5.667323 3.745806,5.667306 3.745664,5.769009 3.745876,5.775088 3.745741,5.783115 3.745735,5.791514 3.745789,5.793557 3.745901,5.802249 3.745958,5.804721 3.745841,5.816614 3.74584,5.827103 3.745565,6.023939 3.745677,6.024911 3.745697,6.028943 3.745351,6.031099 3.745426,6.037361 3.703561,6.037337 3.602961,6.037393 3.601823,5.999699 3.543173,6.000759 3.507889,6.000592 3.500067,6.000558 3.498163,6.000524 3.412494,6.000395 3.412494,5.742549 3.412671,5.667374 3.502087,5.667692 3.597067,5.667281" style="fill: white" /><polygon type="contour" points="3.638054,6.459871 3.745707,6.459871 3.745692,6.486774 3.745786,6.560943 3.602986,6.560943 3.603233,6.52854 3.60308,6.459699" style="fill: white" /><polygon type="contour" points="4.195574,6.486773 4.195777,6.560943 4.000477,6.560943 4.000387,6.528763 4.000199,6.459871 4.1955,6.459871" style="fill: white" /><polygon type="contour" points="4.195777,7.083086 4.195784,7.1158 4.000484,7.1158 4.000324,7.065814 4.000105,7.015025 4.108548,7.015025 4.196017,7.01496" style="fill: white" /><polygon type="contour" points="3.74565,7.015025 3.745821,7.075628 3.745962,7.1158 3.603163,7.1158 3.603023,7.065467 3.602831,7.014665 3.666639,7.014638" style="fill: white" /><polygon type="contour" points="3.745657,7.605912 3.74545,7.609153 3.745732,9.341738 3.745774,9.37878 3.745751,9.665039 3.745774,9.753532 3.745733,9.790561 3.745918,10.631037 3.745657,11.52579 3.74547,11.556887 3.745449,11.562199 3.609382,11.562199 3.603327,11.562171 3.603258,11.526555 3.507515,11.526555 3.507676,11.41606 3.507742,9.584736 3.507529,9.419943 3.507518,9.32135 3.507619,8.843749 3.507791,8.574311 3.507832,8.477083 3.507667,8.403254 3.507665,7.77752 3.507968,7.605148 3.603258,7.605148 3.603327,7.569533 3.741972,7.569533 3.745449,7.569505" style="fill: white" /><polygon type="contour" points="4.196149,7.569522 4.196036,7.605912 4.195807,7.73567 4.195858,7.792578 4.196115,8.48717 4.196244,8.567381 4.195933,8.862203 4.195659,9.154502 4.195659,9.904028 4.195932,10.208521 4.196118,10.563301 4.196,10.643437 4.195833,11.338601 4.195834,11.3795 4.196037,11.52579 4.19614,11.556887 4.196148,11.562182 4.187832,11.562199 4.000155,11.562199 4.000036,11.52579 4.000149,11.52255 4.000132,10.662545 4.000258,10.585975 4.000182,10.352364 4.000123,10.308127 4.000165,9.794735 4.000165,8.962541 4.000297,8.81845 4.000354,8.574981 4.000219,8.495268 3.999881,7.796409 3.999856,7.706687 4.000036,7.605912 4.000178,7.574815 4.000155,7.569505 4.187832,7.569505" style="fill: white" /><polygon type="contour" points="5.168,7.569543 5.481499,7.569543 5.481573,7.605913 5.481656,7.650308 5.481238,7.91647 5.480976,7.965518 5.481155,8.087914 5.480884,8.110579 5.481058,8.150574 5.481304,8.355656 5.481274,8.639828 5.481331,8.673417 5.481331,9.985666 5.481517,10.215373 5.481439,10.493961 5.481477,10.544701 5.481326,10.594732 5.481141,10.888425 5.480968,11.02082 5.481095,11.083901 5.480977,11.166185 5.481657,11.481396 5.481573,11.52579 5.4815,11.5564 5.4815,11.562161 5.168,11.562161 5.149016,11.562182 5.149074,11.525789 5.149159,11.468413 5.148786,11.155466 5.148547,11.102823 5.148399,11.021402 5.148357,11.019453 5.14871,10.78888 5.14871,9.574642 5.149221,9.564023 5.148819,9.118325 5.148357,9.071809 5.149013,9.053411 5.148405,8.818124 5.148265,8.584 5.148831,8.492213 5.148397,8.210188 5.148627,8.111114 5.148547,8.028879 5.14916,7.66329 5.149073,7.605912 5.149025,7.574814 5.149016,7.569522" style="fill: white" /><polygon type="contour" points="5.895012,7.574279 5.895024,7.574815 5.895046,7.605912 5.894971,7.61128 5.895108,7.658051 5.895961,7.938678 5.896128,8.00446 5.896033,8.058932 5.896071,8.110579 5.896851,8.34211 5.897073,8.38104 5.897575,8.50785 5.898268,8.773193 5.898526,9.083043 5.898619,9.112021 5.898755,9.147949 5.899743,9.523645 5.899743,9.555808 5.899759,9.55977 5.899954,9.562084 5.899954,9.566202 5.899759,9.572526 5.899743,9.576473 5.899743,9.608636 5.898755,9.983754 5.898619,10.019681 5.898269,10.358509 5.897575,10.623853 5.897073,10.750663 5.896851,10.789592 5.896071,11.021123 5.896034,11.072769 5.896128,11.127244 5.895961,11.193025 5.895108,11.473651 5.895046,11.52579 5.895024,11.556887 5.895004,11.557759 5.89502,11.560625 5.89502,11.561955 5.89501,11.562171 5.672359,11.562171 5.667621,11.562161 5.667606,11.52579 5.667531,11.389312 5.667541,11.339646 5.667267,10.645624 5.66744,10.565342 5.667435,10.229315 5.6674,10.16897 5.6674,8.946696 5.667435,8.887011 5.667622,8.565345 5.667435,8.484993 5.667578,7.79154 5.66755,7.738501 5.667606,7.605912 5.667621,7.575302 5.667621,7.569543 5.882779,7.569543 5.89501,7.569533" style="fill: white" /><polygon type="contour" points="5.893555,7.015146 5.89375,7.08849 5.893842,7.088839 5.893831,7.1158 5.762949,7.1158 5.667359,7.115671 5.667215,7.067899 5.667215,7.015019 5.782021,7.015019" style="fill: white" /><polygon type="contour" points="5.323127,7.015019 5.481195,7.015019 5.481331,7.067918 5.481331,7.115671 5.306353,7.115671 5.149041,7.1158 5.148922,7.065814 5.148777,7.01496" style="fill: white" /><polygon type="contour" points="5.481396,6.486773 5.481142,6.561218 5.373656,6.561218 5.148936,6.560942 5.149057,6.528763 5.148989,6.459871 5.481488,6.459871" style="fill: white" /><polygon type="contour" points="5.892033,6.486774 5.892411,6.560943 5.8055,6.560943 5.667375,6.561218 5.667377,6.530959 5.667381,6.459871 5.731429,6.459674 5.892145,6.459674" style="fill: white" /><polygon type="contour" points="6.561217,5.749292 6.560941,5.892413 6.528083,5.892569 6.459672,5.892147 6.459672,5.731431 6.459869,5.667382 6.486771,5.667381 6.561217,5.667376" style="fill: white" /><polygon type="contour" points="7.067916,5.66736 7.115669,5.66736 7.115669,5.792976 7.115798,5.893833 7.070023,5.893712 7.060801,5.893848 7.015144,5.893557 7.015144,5.727441 7.015018,5.667217" style="fill: white" /><polygon type="contour" points="7.083084,5.148943 7.115798,5.149043 7.115798,5.331355 7.115669,5.481332 7.067897,5.481196 7.015018,5.481196 7.015018,5.323129 7.014957,5.148779" style="fill: white" /><polygon type="contour" points="6.560941,5.148938 6.560941,5.262976 6.561217,5.481143 6.530959,5.481246 6.459869,5.481491 6.459869,5.148991 6.486772,5.148898" style="fill: white" /><polygon type="contour" points="6.038983,5.42259 6.038948,5.481527 6.032755,5.48185 6.031503,5.481918 6.030801,5.481173 5.83556,5.481427 5.827102,5.481403 5.820813,5.48158 5.812104,5.481195 5.802324,5.481376 5.790655,5.481553 5.778927,5.481229 5.667243,5.481187 5.667356,5.387898 5.667356,5.148747 5.778927,5.148729 5.790656,5.149053 5.801987,5.149065 5.812104,5.148695 5.820813,5.14908 5.828592,5.148978 5.835561,5.148927 5.842298,5.148726 5.848462,5.148652 5.851426,5.148778 5.854638,5.148904 5.861359,5.148861 5.866652,5.148747 5.872143,5.148786 5.876227,5.148832 5.954734,5.148371 5.98494,5.148342 6.039021,5.148342" style="fill: white" /><polygon type="contour" points="6.037091,5.667554 6.036717,5.792392 6.036664,5.890831 6.019792,5.891197 6.009773,5.891063 6.005537,5.891142 5.982764,5.891123 5.980182,5.890869 5.94874,5.891043 5.942722,5.891278 5.892171,5.892173 5.891042,5.948742 5.891122,5.982766 5.891141,6.005538 5.891062,6.009774 5.891233,6.022542 5.891252,6.022614 5.891235,6.022682 5.891364,6.03229 5.891133,6.036568 5.674305,6.036252 5.667397,6.036258 5.667424,6.028541 5.667221,6.02807 5.6674,5.840376 5.667339,5.827103 5.667341,5.816614 5.667458,5.804721 5.6674,5.793619 5.667214,5.783439 5.667375,5.775088 5.667447,5.769489 5.667309,5.766109 5.667333,5.765364 5.667294,5.764404 5.667269,5.748883 5.66737,5.743586 5.667313,5.73853 5.667245,5.733807 5.667289,5.729603 5.667332,5.727934 5.667265,5.726103 5.66732,5.72504 5.667322,5.667323 5.722467,5.667272 5.72295,5.667272 5.724896,5.667254 5.727606,5.667347 5.731514,5.667276 5.735967,5.667316 5.740906,5.667272 5.74193,5.667328 5.746029,5.667286 5.747585,5.667213 5.751357,5.66727 5.756697,5.667243 5.759275,5.667286 5.761828,5.667329 5.763993,5.667235 5.764212,5.667267 5.769006,5.667378 5.775086,5.667376 5.783437,5.667215 5.793617,5.6674 5.804721,5.667459 5.816611,5.667342 5.827102,5.667341 5.840376,5.667401 6.027787,5.667531 6.030527,5.667401 6.033236,5.667178" style="fill: white" /><polygon type="contour" points="5.481574,5.775202 5.481228,5.778928 5.481551,5.790656 5.481564,5.80199 5.481195,5.812105 5.481579,5.820816 5.481403,5.827104 5.481425,5.835562 5.481852,6.030489 5.480986,6.030745 5.48084,6.039022 5.14834,6.039022 5.148433,6.035991 5.148385,6.034404 5.148447,6.032956 5.148421,6.031618 5.148421,6.030699 5.148724,5.839825 5.148724,5.837626 5.149051,5.830635 5.148484,5.823326 5.149105,5.814433 5.148967,5.805063 5.148726,5.794244 5.148746,5.667358 5.223328,5.667244 5.481186,5.667244" style="fill: white" /><polygon type="contour" points="5.481186,5.223329 5.481186,5.481186 5.387896,5.481444 5.148746,5.481444 5.148746,5.387897 5.1489,5.148902 5.290472,5.148902 5.481443,5.148747" style="fill: white" /><polygon type="contour" points="5.387897,4.000372 5.481411,4.000282 5.481443,4.055203 5.481443,4.195672 5.387896,4.195672 5.1489,4.195595 5.1489,4.112614 5.148904,4.000043" style="fill: white" /><polygon type="contour" points="5.481186,3.745745 5.387897,3.745858 5.148904,3.745795 5.148904,3.696114 5.1489,3.602946 5.387897,3.603057 5.481186,3.602943" style="fill: white" /><polygon type="contour" points="6.000556,3.500068 6.00059,3.50789 6.000556,3.543155 6.000092,3.602833 6.037368,3.602868 6.037368,3.745667 6.039807,3.745804 6.039807,3.745805 6.027555,3.745914 6.022656,3.746005 6.01843,3.745969 5.814433,3.745753 5.783266,3.745796 5.783155,3.745849 5.763993,3.745736 5.667308,3.745691 5.667308,3.627076 5.667322,3.602943 5.66728,3.597068 5.667689,3.591845 5.667689,3.502089 5.667399,3.497737 5.667371,3.412673 5.742547,3.412496 6.000393,3.412496" style="fill: white" /><polygon type="contour" points="6.037351,3.999901 6.037351,4.195652 6.032844,4.195743 6.028071,4.195734 5.8412,4.195701 5.829813,4.19574 5.818166,4.195859 5.806276,4.195621 5.795127,4.195726 5.784813,4.195687 5.667356,4.195672 5.667381,4.147804 5.667381,4.000282 5.784813,4.000386 5.795127,4.000426 5.806276,4.000322 5.818167,4.000289 5.829812,4.000442 5.839824,4.000402 5.976614,4.00014 6.032661,3.999779" style="fill: white" /><polygon type="contour" points="6.486771,4.000275 6.560941,4.000478 6.560941,4.195779 6.528761,4.195688 6.459869,4.195502 6.459869,4.000201" style="fill: white" /><polygon type="contour" points="6.560941,3.602987 6.560941,3.745788 6.528761,3.745812 6.459869,3.745709 6.459697,3.710734 6.459697,3.603082 6.486772,3.602894" style="fill: white" /><polygon type="contour" points="7.088488,3.603043 7.115798,3.603164 7.115798,3.745963 7.065812,3.745824 7.015023,3.745651 7.014636,3.666641 7.014662,3.602833" style="fill: white" /><polygon type="contour" points="7.075625,4.000306 7.115798,4.000486 7.115798,4.195785 7.065812,4.195975 7.014957,4.196018 7.015023,4.10855 7.015023,4.000106" style="fill: white" /><polygon type="contour" points="7.796408,3.999883 8.495266,4.000221 8.574979,4.000356 8.715835,4.00024 8.96254,4.000166 9.408743,4.000125 10.308125,4.000125 10.352362,4.000184 10.585973,4.00026 10.662542,4.000134 11.339238,3.999865 11.525789,4.000038 11.556886,4.000179 11.562198,4.000157 11.562198,4.187835 11.562181,4.19615 11.525789,4.196038 11.379498,4.195837 11.338599,4.195835 10.643435,4.196001 10.563299,4.19612 10.208519,4.195936 9.904027,4.195661 9.154501,4.195661 8.862202,4.195936 8.567379,4.196245 8.487168,4.196116 7.792577,4.19586 7.735669,4.19581 7.605911,4.196038 7.574812,4.196143 7.569519,4.19615 7.569502,4.187835 7.569502,4.000157 7.60591,4.000038 7.706686,3.999858" style="fill: white" /><polygon type="contour" points="9.389475,3.50764 9.414808,3.50762 9.721847,3.507619 9.811004,3.507662 10.288077,3.507782 10.55739,3.507792 10.654618,3.507834 10.728446,3.507668 11.358445,3.50802 11.525789,3.507659 11.526554,3.540993 11.526554,3.60326 11.56217,3.603329 11.56217,3.741974 11.562198,3.745451 11.525789,3.745659 11.52255,3.745452 9.790559,3.745734 9.753529,3.745776 9.467299,3.745751 9.378777,3.745776 9.341736,3.745734 8.500973,3.745919 7.605911,3.745659 7.574813,3.745472 7.569502,3.745451 7.569502,3.609384 7.56953,3.603328 7.605911,3.603207 7.605911,3.508106 7.713543,3.508039 7.793697,3.507997 8.489672,3.507565 8.841634,3.507531 9.048581,3.507519" style="fill: white" /><polygon type="contour" points="15.719024,3.412677 15.719024,3.476362 15.718842,3.557615 15.719029,3.745874 15.629612,3.745533 15.539857,3.745533 15.536827,3.745663 15.528846,3.745655 15.386046,3.745655 15.386046,3.602856 15.386038,3.594876 15.38617,3.502088 15.385798,3.497736 15.385703,3.412798 15.440892,3.41267 15.442532,3.412388" style="fill: white" /><polygon type="contour" points="15.528995,4.12123 15.528758,4.195595 15.435585,4.1958 15.385906,4.195801 15.386093,4.13577 15.386093,3.99991 15.528894,3.99991" style="fill: white" /><polygon type="contour" points="15.131792,3.745608 15.063713,3.745795 14.935901,3.745795 14.935901,3.696115 14.936107,3.602946 15.063712,3.602997 15.131792,3.602809" style="fill: white" /><polygon type="contour" points="15.131658,4.067989 15.131658,4.195801 15.063713,4.195801 14.936107,4.195595 14.936107,4.112614 14.935901,4.000043 14.995929,3.99991 15.131792,3.99991" style="fill: white" /><polygon type="contour" points="13.982795,4.067989 13.9828,4.195595 13.841227,4.195595 13.650258,4.195672 13.650289,4.147803 13.650289,4.000282 13.743803,4.000372 13.982795,4.000043" style="fill: white" /><polygon type="contour" points="13.743803,3.603057 13.9828,3.602946 13.982795,3.696115 13.982795,3.745795 13.743803,3.745858 13.650514,3.745745 13.650514,3.602943" style="fill: white" /><polygon type="contour" points="13.464329,3.412673 13.464011,3.502088 13.464421,3.597068 13.464379,3.602943 13.464379,3.729716 13.464395,3.745807 13.36221,3.745736 13.356894,3.745675 13.348587,3.745742 13.340187,3.745736 13.338144,3.74579 13.329452,3.745902 13.326978,3.74596 13.315088,3.745842 13.302709,3.745537 13.142167,3.745691 13.14429,3.695768 13.094332,3.695768 13.094332,3.602868 13.132023,3.602833 13.130943,3.543174 13.13111,3.50789 13.131144,3.500068 13.131178,3.498164 13.131305,3.412496 13.389153,3.412496" style="fill: white" /><polygon type="contour" points="13.155085,4.00014 13.291875,4.000402 13.301888,4.000442 13.313531,4.000289 13.325423,4.000322 13.336572,4.000426 13.346886,4.000386 13.464319,4.000282 13.464319,4.147803 13.464343,4.195672 13.346886,4.195687 13.336572,4.195726 13.325423,4.195622 13.313532,4.195858 13.301887,4.19574 13.2905,4.1957 13.103628,4.195734 13.098855,4.195743 13.094349,4.195652 13.094349,3.999901 13.099038,3.999779" style="fill: white" /><polygon type="contour" points="12.671831,4.195502 12.644928,4.195576 12.570759,4.195779 12.570759,4.000478 12.602939,4.000388 12.671831,4.000201" style="fill: white" /><polygon type="contour" points="12.60316,3.603235 12.672004,3.603082 12.671831,3.638055 12.671831,3.745709 12.644927,3.745693 12.570759,3.745788 12.570759,3.696811 12.570758,3.602987" style="fill: white" /><polygon type="contour" points="12.117064,3.666641 12.116677,3.745651 12.056073,3.745822 12.015901,3.745963 12.015901,3.603164 12.066235,3.603025 12.117038,3.602833" style="fill: white" /><polygon type="contour" points="12.116677,4.10855 12.116743,4.196018 12.048615,4.195779 12.015901,4.195785 12.015901,4.000486 12.065887,4.000325 12.116677,4.000106" style="fill: white" /><polygon type="contour" points="11.021399,5.148401 11.102822,5.148548 11.46841,5.149161 11.525789,5.149075 11.556886,5.149028 11.562181,5.149018 11.56216,5.168002 11.56216,5.481501 11.525788,5.481575 11.481394,5.481658 11.21523,5.481241 11.166184,5.480978 11.083899,5.481096 11.020818,5.480969 10.888424,5.481142 10.845011,5.481313 10.5447,5.481479 10.493958,5.481441 10.215371,5.481518 8.989285,5.481518 8.673415,5.481332 8.639826,5.481275 8.355654,5.481306 8.150572,5.481059 8.110578,5.480885 8.087911,5.481156 7.965515,5.480977 7.650307,5.481658 7.60591,5.481574 7.5753,5.481501 7.56954,5.481501 7.56954,5.168002 7.569519,5.149018 7.605911,5.149076 7.663288,5.14916 7.976235,5.148788 8.028877,5.148548 8.111112,5.148628 8.210186,5.148398 8.492211,5.148832 8.747219,5.149198 9.622747,5.149198 9.688383,5.14849 9.854809,5.148634 10.196835,5.149385 10.282061,5.148602 10.536505,5.149223 10.782619,5.148821 11.01945,5.148359" style="fill: white" /><polygon type="contour" points="11.339644,5.667543 11.38931,5.667532 11.525789,5.667607 11.5564,5.667622 11.56216,5.667622 11.56216,5.882782 11.56217,5.895013 11.557424,5.895014 11.556887,5.895026 11.525788,5.895049 11.523961,5.8951 11.507338,5.895098 11.40124,5.895423 11.375802,5.895488 11.352486,5.895511 11.078461,5.89616 11.042852,5.896334 10.855507,5.896841 10.620646,5.897153 10.27959,5.897937 10.138975,5.898386 10.065296,5.898527 10.035936,5.898621 9.655347,5.899623 9.640795,5.899623 9.608632,5.899745 9.57647,5.899745 9.572524,5.899761 9.570247,5.899956 9.566198,5.899956 9.559766,5.899762 9.555805,5.899745 9.523642,5.899745 9.147947,5.898757 9.112018,5.898621 8.878118,5.898019 8.614685,5.897247 8.535395,5.897225 8.276191,5.896841 8.088847,5.896333 8.004458,5.89613 7.755898,5.895489 7.730459,5.895423 7.624361,5.895098 7.607739,5.8951 7.605911,5.895049 7.574812,5.895026 7.574275,5.895014 7.56953,5.895013 7.56953,5.67236 7.569539,5.667622 7.605911,5.667606 7.7385,5.667551 7.791539,5.667579 8.484991,5.667437 8.565344,5.667624 8.887009,5.667436 8.946694,5.667401 10.168968,5.667401 10.229312,5.667437 10.56534,5.667442 10.645622,5.667269" style="fill: white" /><polygon type="contour" points="13.982625,7.605913 13.982541,7.663289 13.982913,7.976237 13.983153,8.02888 13.983074,8.111113 13.983303,8.210188 13.982869,8.492213 13.982504,8.747222 13.982504,9.622748 13.983213,9.688385 13.983068,9.854811 13.982316,10.196837 13.983099,10.282063 13.982478,10.536507 13.982881,10.782622 13.983343,11.019452 13.983301,11.021402 13.983152,11.102824 13.982541,11.468413 13.982625,11.525789 13.982673,11.556887 13.982684,11.562182 13.963699,11.562161 13.6502,11.562161 13.650126,11.52579 13.650043,11.481395 13.650462,11.215233 13.650724,11.166185 13.650605,11.0839 13.650733,11.020821 13.650559,10.888425 13.650388,10.845013 13.650222,10.544702 13.65026,10.493961 13.650184,10.215373 13.650184,8.989286 13.650369,8.673417 13.650426,8.639828 13.650395,8.355656 13.650642,8.150573 13.650816,8.110579 13.650545,8.087914 13.650724,7.965517 13.650042,7.650308 13.650126,7.605912 13.6502,7.575303 13.6502,7.569543 13.963699,7.569543 13.982684,7.569522" style="fill: white" /><polygon type="contour" points="13.464079,7.569543 13.464094,7.605913 13.464151,7.738501 13.464123,7.79154 13.464266,8.484992 13.464077,8.565346 13.464263,8.887012 13.464299,8.946696 13.464299,10.168971 13.464263,10.229314 13.46426,10.565342 13.464434,10.645624 13.464159,11.339646 13.46417,11.389313 13.464094,11.525789 13.464079,11.556401 13.464079,11.562161 13.248919,11.562161 13.236689,11.562171 13.236688,11.557425 13.236676,11.556888 13.236652,11.525789 13.236603,11.523962 13.236606,11.50734 13.23628,11.401242 13.236215,11.375804 13.236192,11.352488 13.235542,11.078464 13.235366,11.042853 13.234861,10.85551 13.234548,10.620648 13.233764,10.279593 13.233314,10.102208 13.233174,10.065297 13.23308,10.035938 13.23208,9.65535 13.23208,9.640796 13.231957,9.608636 13.231957,9.576473 13.231941,9.572527 13.231747,9.57025 13.231747,9.566201 13.231941,9.55977 13.231958,9.555808 13.231957,9.523645 13.232943,9.147948 13.233079,9.112022 13.233682,8.878119 13.234455,8.614688 13.234475,8.535397 13.234861,8.276193 13.235366,8.08885 13.235573,8.004459 13.236214,7.7559 13.23628,7.730461 13.236606,7.624363 13.236603,7.607741 13.236652,7.605912 13.236676,7.574814 13.236688,7.574278 13.236689,7.569533 13.459339,7.569533" style="fill: white" /><polygon type="contour" points="13.464341,7.067918 13.464341,7.115671 13.338725,7.115671 13.237869,7.1158 13.237988,7.070247 13.237853,7.060803 13.238144,7.015146 13.404262,7.015146 13.464485,7.015019" style="fill: white" /><polygon type="contour" points="13.982758,7.083087 13.982659,7.1158 13.800346,7.1158 13.650369,7.115671 13.650506,7.067898 13.650506,7.015019 13.808572,7.015019 13.982923,7.01496" style="fill: white" /><polygon type="contour" points="13.982803,6.486773 13.982764,6.560943 13.868724,6.560943 13.650558,6.561218 13.650453,6.530959 13.65021,6.459871 13.98271,6.459871" style="fill: white" /><polygon type="contour" points="13.464319,6.459871 13.46432,6.486773 13.464325,6.561218 13.382409,6.561218 13.23929,6.560943 13.239135,6.528086 13.239557,6.459674 13.400272,6.459674" style="fill: white" /><polygon type="contour" points="13.101173,5.667402 13.10391,5.66753 13.291324,5.667401 13.30298,5.66731 13.315088,5.667342 13.326978,5.667459 13.338084,5.667401 13.348262,5.667215 13.356613,5.667376 13.362693,5.667378 13.365591,5.667311 13.366337,5.667335 13.380338,5.667343 13.384116,5.667213 13.385671,5.667285 13.389769,5.667328 13.390793,5.667272 13.395123,5.667302 13.399845,5.66726 13.403768,5.667332 13.406802,5.667254 13.40875,5.667272 13.464379,5.667323 13.46438,5.72504 13.464435,5.726103 13.464368,5.727934 13.464411,5.729604 13.464455,5.733807 13.464386,5.73853 13.464329,5.743586 13.46443,5.748883 13.464406,5.764404 13.464366,5.765364 13.46439,5.766109 13.464253,5.769489 13.4643,5.774806 13.464487,5.783439 13.4643,5.793618 13.464242,5.804721 13.46436,5.816614 13.464391,5.828992 13.464299,5.839825 13.464479,6.027743 13.463988,6.029014 13.4643,6.035861 13.464251,6.036327 13.327726,6.036646 13.240566,6.036569 13.24052,6.035698 13.240515,6.035374 13.240515,6.035279 13.240516,6.034971 13.241255,6.015894 13.240572,6.015021 13.24064,6.009775 13.240559,6.005539 13.240579,5.982765 13.241028,5.980875 13.240658,5.948743 13.240424,5.942723 13.239529,5.892172 13.182959,5.891044 13.148932,5.891123 13.12616,5.891142 13.121924,5.891063 13.116678,5.89113 13.116084,5.890664 13.097016,5.890854 13.09654,5.890855 13.096115,5.890853 13.095036,5.890831 13.094983,5.792392 13.094609,5.667554 13.098464,5.667178" style="fill: white" /><polygon type="contour" points="12.600739,5.667378 12.671831,5.667383 12.672028,5.731431 12.672028,5.892147 12.644928,5.892036 12.570759,5.892413 12.570759,5.805502 12.570482,5.667376" style="fill: white" /><polygon type="contour" points="12.116683,5.782023 12.116556,5.893557 12.043211,5.893751 12.015901,5.893833 12.015901,5.762951 12.016029,5.66736 12.063803,5.667217 12.116683,5.667217" style="fill: white" /><polygon type="contour" points="12.116683,5.323129 12.116683,5.481196 12.063783,5.481332 12.01603,5.481332 12.01603,5.306354 12.015901,5.149043 12.065886,5.148924 12.116743,5.148779" style="fill: white" /><polygon type="contour" points="12.602938,5.149059 12.671831,5.148991 12.671831,5.481491 12.644927,5.481398 12.570482,5.481143 12.570482,5.373656 12.570759,5.148938" style="fill: white" /><polygon type="contour" points="13.101125,5.148691 13.291874,5.148726 13.296138,5.148927 13.303108,5.148979 13.310885,5.14908 13.319595,5.148696 13.329376,5.148618 13.341043,5.149053 13.352772,5.148729 13.464343,5.148748 13.464458,5.223329 13.464458,5.481187 13.359429,5.481542 13.352772,5.481228 13.349465,5.48111 13.340436,5.48119 13.329712,5.481566 13.319595,5.481196 13.310885,5.48158 13.304597,5.481404 13.296138,5.481427 13.100898,5.481173 13.100197,5.481918 13.092752,5.481527 13.092717,5.422591 13.092717,5.14884 13.100474,5.147911" style="fill: white" /><polygon type="contour" points="13.9828,5.148902 13.9828,5.290474 13.982952,5.481444 13.908369,5.481187 13.650514,5.481187 13.650258,5.387897 13.650258,5.148748 13.743804,5.148748" style="fill: white" /><polygon type="contour" points="13.982952,5.667358 13.982551,5.782515 13.982973,5.794243 13.98273,5.805064 13.982594,5.814433 13.983215,5.823326 13.982922,5.830086 13.982975,5.837626 13.982975,5.844226 13.982847,5.850222 13.983141,5.856373 13.98284,5.86136 13.983237,5.86828 13.982883,5.873628 13.983359,5.984941 13.98336,6.039022 13.650861,6.039022 13.650714,6.030746 13.649847,6.030489 13.650274,5.835562 13.650297,5.827104 13.650122,5.820816 13.65024,5.812371 13.650135,5.80199 13.650511,5.791265 13.650472,5.778928 13.650514,5.667244 13.908369,5.667244" style="fill: white" /><polygon type="contour" points="14.983897,5.667382 15.13142,5.667382 15.131416,5.772656 15.131197,5.780313 15.13119,5.789803 15.131364,5.802249 15.131231,5.812372 15.131388,5.824141 15.131324,5.827103 15.131592,5.962313 15.131764,5.971704 15.131303,6.030692 15.131924,6.033578 15.131801,6.037352 14.936052,6.037352 14.935947,6.033876 14.93592,6.031527 14.935967,6.026725 14.935977,6.022026 14.936024,5.826559 14.936135,5.814433 14.936065,5.802249 14.936021,5.791265 14.935911,5.782038 14.935972,5.774806 14.93603,5.667358" style="fill: white" /><polygon type="contour" points="15.131658,5.148906 15.131329,5.387898 15.13142,5.481412 15.076498,5.481444 14.93603,5.481444 14.93603,5.387897 14.936107,5.148902 15.019086,5.148902" style="fill: white" /><polygon type="contour" points="15.528645,5.387898 15.528758,5.481187 15.385956,5.481187 15.385844,5.387897 15.385906,5.148906 15.435586,5.148906 15.528758,5.148902" style="fill: white" /><polygon type="contour" points="15.539857,5.667692 15.629611,5.667692 15.633964,5.667402 15.719029,5.667374 15.719206,5.742549 15.719206,6.000395 15.631633,6.000558 15.62381,6.000591 15.588527,6.000759 15.529886,5.999699 15.528737,6.037393 15.429817,6.037393 15.427645,6.037337 15.385785,6.037361 15.38568,6.033375 15.386212,6.033133 15.385949,5.814433 15.385886,5.804803 15.385741,5.8042 15.385898,5.774664 15.385774,5.774526 15.386003,5.76674 15.38601,5.667309 15.504625,5.667309 15.528758,5.667323 15.534634,5.667281" style="fill: white" /><polygon type="contour" points="15.528808,6.486774 15.528714,6.560943 15.385913,6.560943 15.385889,6.528763 15.385991,6.459871 15.420965,6.459699 15.528619,6.459699" style="fill: white" /><polygon type="contour" points="15.131425,6.486773 15.131224,6.560943 14.935924,6.560943 14.936013,6.528762 14.9362,6.459871 15.1315,6.459871" style="fill: white" /><polygon type="contour" points="15.02315,7.015025 15.131595,7.015025 15.131396,7.075627 15.131216,7.1158 14.935916,7.1158 14.935725,7.065814 14.935681,7.01496" style="fill: white" /><polygon type="contour" points="15.528869,7.014665 15.528657,7.08849 15.528537,7.1158 15.385736,7.1158 15.385876,7.065814 15.386049,7.015025 15.46506,7.014638" style="fill: white" /><polygon type="contour" points="15.528372,7.569533 15.528441,7.605913 15.624042,7.605913 15.624249,7.609152 15.62424,7.70033 15.623789,8.531665 15.623708,9.568695 15.623838,9.572602 15.623868,9.615307 15.623919,9.703586 15.62404,10.083464 15.624009,10.362414 15.62398,10.56231 15.624136,10.64203 15.624057,11.332993 15.624023,11.416059 15.623731,11.526555 15.52844,11.526555 15.528372,11.562171 15.38973,11.562171 15.386253,11.562199 15.386044,11.525789 15.386253,11.52255 15.385968,9.790562 15.385926,9.753532 15.38595,9.467302 15.385926,9.37878 15.385968,9.341739 15.385782,8.500974 15.386044,7.605912 15.386233,7.574814 15.386253,7.569505 15.522316,7.569505" style="fill: white" /><polygon type="contour" points="15.131663,7.605913 15.131844,7.706687 15.131818,7.796409 15.13148,8.495268 15.13098,8.57498 15.131127,8.715837 15.131536,8.962542 15.131576,9.408745 15.131576,10.308127 15.131516,10.352364 15.13108,10.585974 15.131567,10.662544 15.131836,11.33924 15.131663,11.525789 15.131522,11.556887 15.131544,11.562199 14.943864,11.562199 14.93555,11.562182 14.935663,11.52579 14.935865,11.379501 14.935867,11.3386 14.9357,10.643437 14.935582,10.563301 14.935766,10.208521 14.936041,9.904028 14.936041,9.154502 14.935766,8.862204 14.935456,8.56738 14.935585,8.48717 14.935841,7.792578 14.935893,7.73567 14.935663,7.605913 14.935557,7.574814 14.935549,7.569522 14.943864,7.569505 15.131543,7.569505" style="fill: white" /><polygon type="contour" points="15.528676,12.066235 15.528869,12.117039 15.46506,12.117066 15.38605,12.116679 15.385877,12.056076 15.385736,12.015903 15.528537,12.015903" style="fill: white" /><polygon type="contour" points="15.131375,12.065887 15.131595,12.116679 15.02315,12.116679 14.935682,12.116745 14.935923,12.048617 14.935916,12.015903 15.131216,12.015903" style="fill: white" /><polygon type="contour" points="15.131313,12.60294 15.1315,12.671833 14.9362,12.671833 14.936125,12.644929 14.935923,12.570761 15.131224,12.570761" style="fill: white" /><polygon type="contour" points="15.528466,12.603163 15.528619,12.672005 15.493646,12.671833 15.385991,12.671833 15.386007,12.644929 15.385913,12.570761 15.528714,12.570761" style="fill: white" /><polygon type="contour" points="15.528879,13.132022 15.588527,13.130945 15.62381,13.131112 15.631633,13.131146 15.633537,13.13118 15.719206,13.131307 15.719206,13.389153 15.719029,13.46433 15.629611,13.464012 15.534634,13.464424 15.528759,13.464381 15.401984,13.464381 15.385893,13.464398 15.386065,13.366341 15.385966,13.362213 15.386025,13.356896 15.385959,13.348588 15.385965,13.340189 15.385911,13.338146 15.385799,13.329456 15.385741,13.326981 15.38586,13.315089 15.38586,13.304599 15.386083,13.144226 15.43554,13.142844 15.435568,13.094335 15.528833,13.094335" style="fill: white" /><polygon type="contour" points="15.131924,13.098126 15.131303,13.101011 15.131764,13.159998 15.13167,13.172582 15.131388,13.307562 15.131332,13.319236 15.131425,13.331155 15.13119,13.3419 15.131197,13.35139 15.131416,13.359047 15.13142,13.464322 14.983897,13.464322 14.93603,13.464346 14.936058,13.349705 14.936021,13.340437 14.936065,13.329455 14.93597,13.316903 14.936024,13.305145 14.935977,13.109677 14.935967,13.104978 14.93592,13.100177 14.935947,13.097827 14.936052,13.094352 15.131801,13.094352" style="fill: white" /><polygon type="contour" points="15.13142,13.650292 15.131329,13.743805 15.131658,13.982797 15.063712,13.982797 14.936107,13.982802 14.936107,13.841229 14.93603,13.65026 15.076498,13.65026" style="fill: white" /><polygon type="contour" points="15.528645,13.743806 15.528758,13.982802 15.435586,13.982798 15.385906,13.982797 15.386055,13.888598 15.385956,13.650517 15.528758,13.650517" style="fill: white" /><polygon type="contour" points="15.719029,15.385829 15.718842,15.574089 15.719024,15.655342 15.719024,15.719026 15.442531,15.719316 15.440891,15.719033 15.385703,15.718905 15.386168,15.629613 15.386168,15.53986 15.386038,15.536828 15.386046,15.528847 15.386046,15.386049 15.528845,15.386049 15.536827,15.386042 15.629611,15.386171 15.633964,15.385801" style="fill: white" /><polygon type="contour" points="15.468083,14.936109 15.528757,14.93611 15.528706,15.063716 15.528894,15.131794 15.429909,15.131794 15.386093,15.131795 15.385906,15.063714 15.385906,14.935902" style="fill: white" /><polygon type="contour" points="15.131792,14.995931 15.131792,15.131794 15.063712,15.131661 14.935901,15.131661 14.935901,15.063714 14.936107,14.936109 15.019086,14.936109 15.131657,14.935902" style="fill: white" /><polygon type="contour" points="14.995929,15.386095 15.131792,15.386095 15.131792,15.528895 15.010471,15.528996 14.936107,15.528759 14.935901,15.435589 14.935901,15.385908" style="fill: white" /><polygon type="contour" points="13.982795,15.385908 13.982795,15.435588 13.9828,15.528759 13.743803,15.528645 13.650514,15.52876 13.650514,15.385959 13.743803,15.385846" style="fill: white" /><polygon type="contour" points="13.9828,14.936109 13.9828,15.019089 13.982795,15.131661 13.743803,15.131332 13.650289,15.131422 13.650258,15.076501 13.650258,14.936033 13.743803,14.936033" style="fill: white" /><polygon type="contour" points="13.464343,14.936033 13.464319,14.9839 13.464319,15.131422 13.355529,15.131286 13.346886,15.131318 13.336572,15.131277 13.325423,15.131382 13.313531,15.131415 13.301888,15.131262 13.291875,15.131302 13.155085,15.131564 13.099038,15.131924 13.094349,15.131802 13.094349,14.936054 13.099038,14.935962 13.10424,14.935969 13.291875,14.936003 13.301888,14.935962 13.313531,14.935846 13.325423,14.936083 13.336572,14.935978 13.346886,14.936017 13.355529,14.935759" style="fill: white" /><polygon type="contour" points="13.317268,15.38595 13.348193,15.385907 13.348305,15.385855 13.367707,15.385967 13.464392,15.386013 13.464392,15.504627 13.464379,15.52876 13.464421,15.534634 13.464011,15.539858 13.464011,15.629614 13.464298,15.633967 13.464329,15.71903 13.389153,15.719208 13.131305,15.719208 13.131144,15.631635 13.13111,15.623812 13.131144,15.588548 13.13161,15.528869 13.094332,15.528835 13.094332,15.386035 13.091892,15.385899 13.104027,15.38579 13.108429,15.385827 13.113267,15.385735" style="fill: white" /><polygon type="contour" points="11.525789,15.386045 11.556886,15.386233 11.562198,15.386253 11.562198,15.522319 11.56217,15.528375 11.526554,15.528494 11.526554,15.623732 11.522549,15.623601 10.728447,15.624036 10.654991,15.62387 10.557755,15.62391 10.287951,15.624082 10.208754,15.623962 9.894049,15.623955 9.414809,15.624084 9.389475,15.624064 9.048581,15.624184 8.769618,15.624011 8.569762,15.623982 8.489671,15.624138 7.798709,15.624059 7.715641,15.624025 7.605146,15.624186 7.605146,15.528495 7.56953,15.528376 7.56953,15.38973 7.569502,15.386253 7.60591,15.386045 7.60915,15.386253 9.341735,15.38597 9.378778,15.385928 9.665036,15.385952 9.753529,15.385928 9.790559,15.38597 10.631034,15.385784" style="fill: white" /><polygon type="contour" points="12.116677,15.023152 12.116677,15.131598 12.056073,15.131399 12.015901,15.131218 12.015901,14.935919 12.065886,14.935729 12.116743,14.935685" style="fill: white" /><polygon type="contour" points="12.065886,15.385877 12.116677,15.386052 12.117064,15.465061 12.117038,15.52887 12.04321,15.528659 12.015901,15.52854 12.015901,15.385738" style="fill: white" /><polygon type="contour" points="12.671831,15.385993 12.672004,15.420966 12.672004,15.528622 12.644927,15.52881 12.570759,15.528716 12.570759,15.385914 12.602938,15.385891" style="fill: white" /><polygon type="contour" points="12.602938,14.936015 12.671831,14.936202 12.671831,15.131501 12.644927,15.131426 12.570759,15.131226 12.570759,14.935926" style="fill: white" /><polygon type="contour" points="12.671831,13.982713 12.644927,13.982806 12.570759,13.982766 12.570759,13.868726 12.570482,13.650561 12.60074,13.650456 12.671831,13.650212" style="fill: white" /><polygon type="contour" points="13.100898,13.65053 13.296139,13.650278 13.303108,13.650225 13.310885,13.650124 13.319595,13.650508 13.329712,13.650138 13.340436,13.650514 13.352773,13.650473 13.464458,13.650517 13.464343,13.743806 13.464343,13.982955 13.349464,13.983092 13.340435,13.983013 13.329376,13.983086 13.319595,13.983008 13.310886,13.982623 13.304598,13.982798 13.296138,13.982776 13.289399,13.982977 13.283237,13.983051 13.280275,13.982925 13.27706,13.982798 13.27106,13.982965 13.265049,13.982955 13.259556,13.982915 13.255472,13.98287 13.176965,13.983331 13.146758,13.983362 13.092679,13.983362 13.092717,13.709113 13.092752,13.650176 13.098944,13.649853 13.100196,13.649785" style="fill: white" /><polygon type="contour" points="13.982952,13.743805 13.9828,13.982802 13.841228,13.982802 13.650258,13.982954 13.650514,13.908372 13.650514,13.650517 13.743803,13.65026 13.982952,13.65026" style="fill: white" /><polygon type="contour" points="13.983267,13.095713 13.983316,13.0973 13.98327,13.098453 13.983281,13.100084 13.983281,13.101004 13.982975,13.291878 13.982975,13.294078 13.982647,13.301068 13.983215,13.308377 13.982787,13.316903 13.982731,13.326639 13.982972,13.337459 13.982951,13.464346 13.908369,13.46446 13.650514,13.46446 13.650125,13.356501 13.650472,13.352775 13.650149,13.341047 13.650135,13.329713 13.650504,13.319597 13.650122,13.310888 13.650297,13.304599 13.650274,13.296141 13.649847,13.101211 13.650714,13.100958 13.65086,13.092682 13.983359,13.092682" style="fill: white" /><polygon type="contour" points="13.464341,12.016032 13.464485,12.063803 13.464485,12.116685 13.349677,12.116685 13.238144,12.116558 13.237949,12.043212 13.237869,12.015903 13.368749,12.015903" style="fill: white" /><polygon type="contour" points="13.982777,12.065888 13.982923,12.116745 13.808571,12.116685 13.650506,12.116685 13.650369,12.063786 13.650369,12.016032 13.825346,12.016032 13.982659,12.015903" style="fill: white" /><polygon type="contour" points="13.982764,12.570761 13.982642,12.602941 13.98271,12.671833 13.65021,12.671833 13.650302,12.64493 13.650558,12.570484 13.758044,12.570484" style="fill: white" /><polygon type="contour" points="13.464322,12.600742 13.464319,12.671833 13.400272,12.67203 13.239556,12.67203 13.239668,12.644929 13.23929,12.570761 13.326198,12.570761 13.464325,12.570484" style="fill: white" /><polygon type="contour" points="13.243582,13.095139 13.457394,13.095452 13.464303,13.095446 13.464275,13.103161 13.464479,13.103632 13.4643,13.291327 13.464391,13.302711 13.46436,13.315089 13.464242,13.326981 13.4643,13.338086 13.464487,13.348264 13.464325,13.356614 13.464253,13.362213 13.46439,13.365594 13.464366,13.36634 13.464406,13.3673 13.46443,13.382821 13.464329,13.388117 13.464386,13.393173 13.464455,13.397896 13.46441,13.402101 13.464369,13.403769 13.464435,13.4056 13.46438,13.406663 13.464379,13.464381 13.409233,13.464432 13.407167,13.464356 13.404093,13.464358 13.400185,13.464429 13.395733,13.464387 13.390793,13.464432 13.389769,13.464375 13.385671,13.464418 13.384116,13.464491 13.380341,13.464433 13.375002,13.464462 13.372423,13.464417 13.369871,13.464374 13.367707,13.464469 13.367488,13.464436 13.362693,13.464326 13.356613,13.464328 13.348262,13.464489 13.338084,13.464303 13.326978,13.464245 13.315088,13.464362 13.30298,13.464394 13.291324,13.464303 13.10391,13.464172 13.101173,13.464302 13.098465,13.464525 13.094609,13.464148 13.094983,13.33931 13.095036,13.240872 13.096095,13.240849 13.096494,13.240844 13.096609,13.240844 13.09699,13.240845 13.1162,13.240949 13.116679,13.240575 13.121924,13.240641 13.126161,13.240561 13.148932,13.240581 13.151517,13.240835 13.182958,13.24066 13.188978,13.240425 13.239529,13.239531 13.240657,13.182961 13.240578,13.148934 13.240549,13.115731 13.239531,13.114707 13.240566,13.095134" style="fill: white" /><polygon type="contour" points="12.672028,13.239557 12.672028,13.400274 12.671831,13.464321 12.644928,13.464322 12.570482,13.464328 12.570482,13.382412 12.570759,13.239291 12.603616,13.239135" style="fill: white" /><polygon type="contour" points="12.068199,13.238008 12.068387,13.237891 12.116556,13.238144 12.116556,13.404262 12.116683,13.464487 12.063783,13.464343 12.01603,13.464343 12.01603,13.338727 12.015901,13.237871" style="fill: white" /><polygon type="contour" points="12.063802,13.650508 12.116683,13.650508 12.116683,13.808574 12.116743,13.982926 12.048615,13.982759 12.015901,13.98266 12.015901,13.800348 12.01603,13.650372" style="fill: white" /><polygon type="contour" points="11.525789,13.650129 11.556399,13.650203 11.56216,13.650203 11.56216,13.963702 11.562181,13.982687 11.525788,13.982629 11.46841,13.982544 11.155465,13.982915 11.102821,13.983154 11.0214,13.983302 11.01945,13.983344 10.788878,13.982993 9.57464,13.982993 9.564021,13.98248 9.118324,13.982882 9.071807,13.983343 9.053409,13.982687 8.818122,13.983298 8.583999,13.983436 8.492211,13.98287 8.210186,13.983304 8.111111,13.983075 8.028878,13.983154 7.663288,13.982545 7.60591,13.982629 7.574813,13.982676 7.569519,13.982687 7.56954,13.963702 7.56954,13.650203 7.605911,13.650128 7.650306,13.650046 7.916469,13.650463 7.965515,13.650726 8.087912,13.650547 8.110578,13.650818 8.150572,13.650645 8.355654,13.650398 8.639826,13.650429 8.673415,13.650372 9.985664,13.650372 10.215371,13.650186 10.493959,13.650262 10.5447,13.650224 10.594731,13.650375 10.888423,13.650561 11.020818,13.650735 11.083899,13.650608 11.166183,13.650726 11.481394,13.650046" style="fill: white" /><polygon type="contour" points="9.572523,13.231942 9.57647,13.231959 9.608633,13.231959 9.983752,13.232944 10.019681,13.233081 10.358506,13.233431 10.623851,13.234124 10.750661,13.234627 10.789589,13.234849 11.02112,13.23563 11.072769,13.235667 11.127242,13.235574 11.193024,13.235742 11.473648,13.23659 11.525789,13.236654 11.556886,13.236676 11.557758,13.236696 11.560624,13.236681 11.561954,13.236681 11.56217,13.23669 11.56217,13.459342 11.56216,13.464082 11.525789,13.464097 11.38931,13.464172 11.339644,13.464161 10.645623,13.464435 10.565341,13.464261 10.229311,13.464265 10.168968,13.464302 8.946694,13.464302 8.887009,13.464265 8.565344,13.464078 8.48499,13.464267 7.791539,13.464125 7.7385,13.464152 7.605911,13.464097 7.575299,13.464082 7.56954,13.464082 7.56954,13.24892 7.56953,13.23669 7.574275,13.236689 7.574812,13.236676 7.60591,13.236654 7.61128,13.236728 7.65805,13.23659 7.938675,13.235742 8.004458,13.235574 8.058932,13.235667 8.110578,13.23563 8.34211,13.234849 8.381038,13.234626 8.507848,13.234123 8.773193,13.233431 9.083041,13.233177 9.112019,13.23308 9.147947,13.232944 9.523642,13.231959 9.555805,13.231959 9.559767,13.231942 9.562082,13.231748 9.566199,13.231748" style="fill: white" /><polygon type="contour" points="8.862203,14.935768 9.154501,14.936043 9.904027,14.936043 10.208519,14.935768 10.563299,14.935584 10.643435,14.935703 11.338599,14.93587 11.379498,14.935868 11.525788,14.935666 11.556886,14.935561 11.562181,14.935553 11.562198,14.943867 11.562198,15.131547 11.525789,15.131665 11.522549,15.131552 10.662542,15.131569 10.585972,15.131083 10.352362,15.131519 10.308125,15.131579 9.794733,15.131537 8.962539,15.131538 8.818449,15.131406 8.574979,15.130983 8.495266,15.131483 7.796408,15.131819 7.706686,15.131845 7.60591,15.131665 7.574813,15.131525 7.569502,15.131547 7.569502,14.943867 7.569519,14.935553 7.605911,14.935666 7.735669,14.935895 7.792577,14.935843 8.487168,14.935587 8.567378,14.935458" style="fill: white" /><polygon type="contour" points="5.223328,13.650517 5.481185,13.650517 5.481443,13.743806 5.481443,13.982955 5.387896,13.982955 5.1489,13.982802 5.1489,13.84123 5.148746,13.65026" style="fill: white" /><polygon type="contour" points="4.19567,13.743805 4.195593,13.982802 4.112612,13.982802 4.000042,13.982797 4.00037,13.743806 4.00028,13.650292 4.055201,13.65026 4.19567,13.65026" style="fill: white" /><polygon type="contour" points="3.745857,13.743805 3.745794,13.982797 3.696113,13.982798 3.602944,13.982802 3.603056,13.743806 3.602942,13.650517 3.745744,13.650517" style="fill: white" /><polygon type="contour" points="3.70426,13.09439 3.745445,13.09439 3.745257,13.102096 3.745329,13.104027 3.74529,13.108546 3.745373,13.109714 3.74551,13.117019 3.745752,13.317691 3.74558,13.347743 3.745741,13.34835 3.745741,13.348588 3.745646,13.356589 3.745827,13.358553 3.745822,13.36716 3.745689,13.464395 3.627074,13.464395 3.602941,13.46438 3.597067,13.464424 3.591844,13.464012 3.502088,13.464012 3.497736,13.464299 3.412671,13.46433 3.412494,13.389153 3.412494,13.131307 3.500067,13.131146 3.507888,13.131112 3.543153,13.131146 3.602831,13.131609 3.602866,13.094335" style="fill: white" /><polygon type="contour" points="4.195755,13.097828 4.195779,13.100177 4.195732,13.104978 4.195721,13.109435 4.195675,13.304599 4.195564,13.317268 4.195635,13.329456 4.195738,13.339826 4.195789,13.349664 4.195728,13.356896 4.19567,13.464346 4.147802,13.464322 4.00028,13.464322 4.000283,13.359047 4.000501,13.35139 4.00051,13.3419 4.000275,13.331155 4.000469,13.31933 4.000312,13.307562 4.000375,13.3046 4.000107,13.16939 3.999936,13.159999 4.000396,13.101006 3.999777,13.098125 3.9999,13.094352 4.19565,13.094352" style="fill: white" /><polygon type="contour" points="4.195688,12.60294 4.195499,12.671833 4.000199,12.671833 4.000273,12.64493 4.000477,12.570761 4.195778,12.570761" style="fill: white" /><polygon type="contour" points="3.74581,12.60294 3.745707,12.671833 3.710734,12.672005 3.60308,12.672005 3.602892,12.644929 3.602986,12.570761 3.745785,12.570761" style="fill: white" /><polygon type="contour" points="3.745823,12.065887 3.74565,12.116679 3.666639,12.117066 3.602831,12.117039 3.603043,12.043212 3.603162,12.015903 3.745962,12.015903" style="fill: white" /><polygon type="contour" points="4.195972,12.065888 4.196016,12.116745 4.108547,12.116679 4.000105,12.116679 4.000304,12.056075 4.000484,12.015903 4.195784,12.015903" style="fill: white" /><polygon type="contour" points="5.481331,12.016032 5.481195,12.063803 5.481195,12.116685 5.323128,12.116685 5.148777,12.116745 5.148941,12.048617 5.149041,12.015903 5.331353,12.015903" style="fill: white" /><polygon type="contour" points="5.893692,12.068202 5.893809,12.068389 5.893555,12.116558 5.727437,12.116558 5.667215,12.116685 5.667359,12.063785 5.667359,12.016032 5.792974,12.016032 5.893831,12.015903" style="fill: white" /><polygon type="contour" points="5.892411,12.570761 5.892566,12.603617 5.892145,12.67203 5.731429,12.67203 5.667381,12.671833 5.667379,12.644929 5.667375,12.570484 5.74929,12.570484" style="fill: white" /><polygon type="contour" points="5.481246,12.600742 5.481489,12.671833 5.148989,12.671833 5.148896,12.644929 5.148936,12.570761 5.262975,12.570761 5.481142,12.570484" style="fill: white" /><polygon type="contour" points="5.480986,13.100959 5.481852,13.101211 5.481425,13.296141 5.481477,13.303111 5.481579,13.310887 5.481461,13.31933 5.481376,13.329379 5.481189,13.340437 5.481228,13.352775 5.481186,13.46446 5.223328,13.46446 5.148746,13.464346 5.149148,13.349189 5.148725,13.337459 5.148967,13.326639 5.14891,13.316903 5.148484,13.308377 5.148776,13.301617 5.148724,13.294077 5.148724,13.287476 5.14885,13.281482 5.148557,13.275329 5.148787,13.269181 5.148462,13.263422 5.148814,13.258074 5.14834,13.146759 5.14834,13.092682 5.48084,13.092682" style="fill: white" /><polygon type="contour" points="5.891133,13.095134 5.89118,13.096004 5.891185,13.096329 5.891185,13.096423 5.891184,13.096731 5.890445,13.115809 5.891129,13.11668 5.891062,13.121926 5.891141,13.126163 5.891122,13.148934 5.890673,13.150827 5.891042,13.182961 5.891042,13.186535 5.891298,13.188833 5.892056,13.238959 5.948741,13.24066 5.982764,13.240582 6.005538,13.240562 6.012301,13.240689 6.015682,13.24003 6.015847,13.240439 6.036664,13.240872 6.036717,13.33931 6.037091,13.464148 6.033235,13.464525 6.030526,13.464301 6.027786,13.464172 5.840375,13.464303 5.828991,13.464394 5.816611,13.464362 5.804721,13.464245 5.793617,13.464303 5.783437,13.464489 5.775086,13.464327 5.769489,13.464255 5.766108,13.464393 5.765362,13.464368 5.751362,13.464361 5.747585,13.464491 5.746029,13.464418 5.74193,13.464375 5.740906,13.464432 5.735967,13.464388 5.731853,13.464443 5.727932,13.464371 5.724897,13.46445 5.72295,13.464433 5.667322,13.464381 5.66732,13.406663 5.667265,13.4056 5.667331,13.40377 5.667289,13.402101 5.667245,13.397896 5.667313,13.393173 5.66737,13.388117 5.66727,13.382821 5.667294,13.3673 5.667332,13.36634 5.66731,13.365594 5.667376,13.362695 5.6674,13.356896 5.667214,13.348265 5.667399,13.338086 5.667458,13.326981 5.667341,13.315089 5.667339,13.304599 5.6674,13.291877 5.667221,13.103958 5.667712,13.102693 5.667398,13.095843 5.667449,13.095377 5.803972,13.095056" style="fill: white" /><polygon type="contour" points="6.038948,13.650177 6.038983,13.709112 6.038983,13.982863 6.031224,13.983788 6.030574,13.983011 5.839825,13.982977 5.835561,13.982776 5.827102,13.982798 5.820814,13.982622 5.812104,13.983008 5.802324,13.983086 5.790655,13.982649 5.667356,13.982955 5.667243,13.908371 5.667243,13.650517 5.768989,13.650424 5.778926,13.650474 5.790656,13.650152 5.802324,13.650326 5.812104,13.650508 5.820814,13.650124 5.827102,13.650299 5.835561,13.650278 6.030801,13.65053 6.031502,13.649785" style="fill: white" /><polygon type="contour" points="6.486772,13.650304 6.561217,13.65056 6.561217,13.758047 6.560941,13.982766 6.52876,13.982644 6.459869,13.982713 6.459869,13.650212" style="fill: white" /><polygon type="contour" points="6.560941,13.326199 6.561217,13.464328 6.530959,13.464326 6.459869,13.464321 6.459672,13.400274 6.459672,13.239557 6.486772,13.239669 6.560941,13.239291" style="fill: white" /><polygon type="contour" points="7.115798,13.237871 7.115798,13.368751 7.115669,13.464343 7.067897,13.464487 7.015018,13.464487 7.015018,13.34968 7.015144,13.238145 7.088489,13.237951 7.088838,13.23786" style="fill: white" /><polygon type="contour" points="7.115669,13.825348 7.115798,13.98266 7.065813,13.982779 7.014957,13.982926 7.015018,13.808574 7.015018,13.650509 7.067916,13.650372 7.115669,13.650372" style="fill: white" /><polygon type="contour" points="7.115798,15.52854 7.065464,15.528679 7.014662,15.52887 7.014636,15.465061 7.015023,15.386052 7.075625,15.38588 7.115798,15.385738" style="fill: white" /><polygon type="contour" points="7.083083,14.935926 7.115798,14.935919 7.115798,15.131219 7.065812,15.131378 7.015023,15.131599 7.015023,15.023152 7.014957,14.935685" style="fill: white" /><polygon type="contour" points="6.560941,15.131226 6.52876,15.131315 6.459869,15.131501 6.459869,14.936202 6.486771,14.936127 6.560941,14.935926" style="fill: white" /><polygon type="contour" points="6.560941,15.528716 6.528538,15.528469 6.459697,15.528622 6.459869,15.493647 6.459869,15.385992 6.486772,15.386008 6.560941,15.385914" style="fill: white" /><polygon type="contour" points="6.02767,15.38579 6.039807,15.385899 6.037368,15.386035 6.037368,15.528835 6.000092,15.528869 6.000556,15.588547 6.00059,15.623812 6.000556,15.631635 6.000522,15.633539 6.000393,15.719208 5.742547,15.719209 5.667371,15.719032 5.667689,15.629614 5.66728,15.534633 5.667322,15.528759 5.667322,15.401987 5.667305,15.385897 5.769006,15.386039 5.774805,15.386026 5.783113,15.385961 5.791513,15.385968 5.793556,15.385914 5.802246,15.385802 5.804721,15.385744 5.816612,15.385862 5.827102,15.385863 6.022656,15.385699" style="fill: white" /><polygon type="contour" points="5.829813,14.935962 5.839824,14.936003 6.027459,14.935969 6.032661,14.935962 6.037351,14.936054 6.037351,15.131802 6.032661,15.131924 5.976614,15.131564 5.839824,15.131302 5.829812,15.131261 5.818167,15.131414 5.806276,15.131382 5.795127,15.131277 5.784813,15.131317 5.77617,15.131285 5.667381,15.131421 5.667381,14.983899 5.667356,14.936033 5.784814,14.936017 5.795127,14.935978 5.806276,14.936083 5.818166,14.935846" style="fill: white" /><polygon type="contour" points="5.481411,14.9839 5.481411,15.131421 5.387896,15.131331 5.148904,15.131661 5.148904,15.063715 5.1489,14.936109 5.290471,14.936109 5.481443,14.936033" style="fill: white" /><polygon type="contour" points="5.481186,15.385959 5.481186,15.528759 5.387897,15.528646 5.1489,15.528759 5.148904,15.435589 5.148904,15.385908 5.387897,15.385846" style="fill: white" /><polygon type="contour" points="4.195799,15.435589 4.195594,15.528759 4.067987,15.528707 3.999908,15.528896 3.999908,15.386095 4.067986,15.385908 4.195799,15.385908" style="fill: white" /><polygon type="contour" points="4.195594,14.936109 4.195594,15.019089 4.195799,15.131661 4.135768,15.131794 3.999908,15.131794 4.000042,15.063714 4.000042,14.935902 4.067986,14.935902" style="fill: white" /><polygon type="contour" points="3.745606,14.99593 3.745606,15.131794 3.602807,15.131794 3.602707,15.010473 3.602944,14.93611 3.696113,14.935903 3.745794,14.935902" style="fill: white" /><polygon type="contour" points="3.502087,15.386171 3.591843,15.386171 3.594873,15.386042 3.602855,15.386049 3.745654,15.386049 3.745654,15.528847 3.745661,15.536829 3.745531,15.629613 3.745901,15.633967 3.745997,15.718905 3.690807,15.719033 3.689165,15.719316 3.412675,15.719026 3.412675,15.655342 3.412856,15.57409 3.412671,15.385829" style="fill: white" />
</svg>
