<svg width="19.131698" height="19.131699">
<polygon type="contour" points="9.874104,10.344891 9.874104,10.367993 9.873959,10.49483 9.874019,10.49483 9.874019,10.514749 9.874104,10.605797 9.789189,10.605915 9.717117,10.605823 9.717117,10.772613 9.706294,10.773106 9.5655,10.772784 9.558352,10.772617 9.414584,10.772613 9.4156,10.693402 9.41561,10.605822 9.342511,10.605915 9.257596,10.605797 9.257596,10.579888 9.257734,10.442562 9.257682,10.442562 9.257682,10.4248 9.257596,10.344891 9.282018,10.344891 9.361428,10.344783 9.789189,10.344783" style="fill: white" /><polygon type="contour" points="10.494829,10.345306 10.494829,10.345135 10.514747,10.345135 10.605795,10.344891 10.605874,10.4248 10.60595,10.495056 10.701828,10.495056 10.730067,10.495005 10.759862,10.494993 10.772676,10.494993 10.776606,10.619397 10.777062,10.630455 10.780057,10.659914 10.780358,10.780361 10.570246,10.774418 10.539302,10.773193 10.523552,10.772989 10.495577,10.773339 10.495276,10.76448 10.495276,10.757878 10.49484,10.737821 10.494774,10.725626 10.494774,10.678882 10.494786,10.665727 10.494786,10.605947 10.424798,10.605876 10.344889,10.605797 10.344889,10.579888 10.345282,10.442562 10.345133,10.442562 10.345133,10.4248 10.344889,10.344891 10.36799,10.344891" style="fill: white" /><polygon type="contour" points="10.772908,8.625061 10.772676,8.636711 10.605949,8.636711 10.605874,8.706904 10.605795,8.786813 10.579887,8.786813 10.44256,8.786419 10.44256,8.786569 10.424798,8.786569 10.344889,8.786813 10.344889,8.763711 10.345304,8.636874 10.345133,8.636874 10.345133,8.616954 10.344889,8.525905 10.424798,8.525827 10.494786,8.525756 10.494786,8.465977 10.494774,8.406077 10.494841,8.393882 10.495225,8.376132 10.495275,8.367223 10.495577,8.358365 10.523552,8.358716 10.570246,8.357285 10.780358,8.351343" style="fill: white" /><polygon type="contour" points="10.494829,9.257744 10.494829,9.257684 10.514746,9.257684 10.605795,9.257598 10.605875,9.342509 10.605781,9.41525 10.6934,9.415603 10.772682,9.414598 10.772686,9.553388 10.772833,9.566201 10.772686,9.578963 10.772682,9.717107 10.605825,9.717107 10.605913,9.78919 10.605795,9.874106 10.579886,9.874106 10.44256,9.873967 10.44256,9.87402 10.424798,9.87402 10.344889,9.874106 10.344889,9.849683 10.344781,9.770273 10.344781,9.342513 10.344889,9.257598 10.367991,9.257598" style="fill: white" /><polygon type="contour" points="8.561454,8.357286 8.592396,8.35851 8.608148,8.358716 8.636124,8.358365 8.636425,8.367223 8.636425,8.37382 8.636859,8.393881 8.636927,8.406078 8.636927,8.452819 8.636915,8.465977 8.636915,8.525756 8.706902,8.525827 8.786812,8.525905 8.786812,8.551813 8.786418,8.689142 8.786568,8.689142 8.786568,8.706903 8.786812,8.786813 8.763709,8.786813 8.636872,8.786397 8.636872,8.786569 8.616953,8.786569 8.525903,8.786813 8.525825,8.706904 8.525753,8.636648 8.429872,8.636648 8.401633,8.636699 8.371837,8.636711 8.359024,8.636711 8.355094,8.512308 8.354636,8.501248 8.351642,8.47179 8.351342,8.351343" style="fill: white" /><polygon type="contour" points="9.566199,8.35892 9.573346,8.359087 9.717117,8.359091 9.717117,8.52588 9.789189,8.525789 9.874104,8.525905 9.874104,8.551813 9.873966,8.689142 9.874019,8.689142 9.874019,8.706903 9.874104,8.786813 9.849681,8.786813 9.770272,8.786921 9.34251,8.786921 9.257596,8.786813 9.257596,8.76371 9.257742,8.636874 9.257682,8.636874 9.257682,8.616954 9.257596,8.525905 9.342511,8.525789 9.414584,8.52588 9.414584,8.359091 9.425406,8.358598" style="fill: white" /><polygon type="contour" points="9.41511,9.257983 9.41511,9.257828 9.78919,9.257828 9.874104,9.257598 9.874104,9.282021 9.873713,9.415111 9.873871,9.415113 9.873871,9.789191 9.874104,9.874106 9.84968,9.874106 9.716591,9.873717 9.716591,9.873874 9.342511,9.873874 9.257596,9.874106 9.257596,9.849682 9.257981,9.716593 9.257826,9.716591 9.257826,9.342513 9.257596,9.257598 9.282019,9.257598" style="fill: white" /><polygon type="contour" points="8.689141,9.257736 8.689141,9.257684 8.706902,9.257684 8.786812,9.257598 8.786812,9.282021 8.78692,9.361431 8.78692,9.789191 8.786812,9.874106 8.763708,9.874106 8.636872,9.873959 8.636872,9.87402 8.616953,9.87402 8.525903,9.874106 8.525825,9.788621 8.525921,9.716085 8.4383,9.716102 8.359018,9.717107 8.359014,9.578315 8.358868,9.565502 8.359015,9.55274 8.359018,9.414598 8.525878,9.414598 8.525787,9.342513 8.525903,9.257598 8.55181,9.257598" style="fill: white" /><polygon type="contour" points="8.689141,10.345284 8.689141,10.345135 8.706902,10.345135 8.786812,10.344891 8.786812,10.367992 8.786396,10.49483 8.786568,10.49483 8.786568,10.514749 8.786812,10.605797 8.706902,10.605876 8.636915,10.605947 8.636915,10.665726 8.636927,10.725626 8.636859,10.737821 8.636475,10.755573 8.636425,10.764481 8.636124,10.773339 8.608149,10.772989 8.561454,10.774418 8.351342,10.780361 8.358791,10.506642 8.359024,10.494993 8.371837,10.494993 8.401633,10.495005 8.429872,10.495056 8.525753,10.495056 8.525824,10.424801 8.525903,10.344891 8.551811,10.344891" style="fill: white" />
</svg>
