<svg width="19.131698" height="19.131699">
<polygon type="contour" points="9.711101,10.731762 9.649181,10.733787 9.565501,10.734805 9.486374,10.732294 9.4206,10.731762 9.4206,10.451514 9.711101,10.451514" style="fill: white" /><polygon type="contour" points="10.732096,10.571528 10.732431,10.593362 10.734561,10.660804 10.734776,10.665993 10.73618,10.679813 10.736322,10.736324 10.637742,10.733536 10.623226,10.732961 10.615835,10.732866 10.45445,10.734887 10.452713,10.683783 10.452713,10.634768 10.452425,10.632392 10.451935,10.609826 10.451745,10.565313 10.451745,10.451747 10.731911,10.451747" style="fill: white" /><polygon type="contour" points="10.732431,8.538341 10.732096,8.560175 10.731911,8.679957 10.451745,8.679957 10.451745,8.56639 10.451935,8.521877 10.452425,8.499311 10.452713,8.447919 10.45445,8.396816 10.615835,8.398839 10.637742,8.398168 10.736322,8.39538" style="fill: white" /><polygon type="contour" points="9.711101,8.965849 9.711101,9.147024 9.4206,9.147024 9.4206,9.04794 9.420295,8.951183 9.711406,8.951183" style="fill: white" /><polygon type="contour" points="9.711101,9.711102 9.4206,9.711102 9.4206,9.420602 9.711101,9.420602" style="fill: white" /><polygon type="contour" points="9.711101,10.180522 9.4206,10.180522 9.4206,9.98468 9.711101,9.98468" style="fill: white" /><polygon type="contour" points="10.078795,10.451454 10.083764,10.451461 10.18052,10.451486 10.18052,10.564685 10.083763,10.564861 10.081313,10.564875 10.078795,10.564855 9.997696,10.564537 9.984678,10.564548 9.984678,10.467139 9.984423,10.451369 9.99872,10.451369" style="fill: white" /><polygon type="contour" points="10.467137,9.98468 10.564545,9.98468 10.564853,10.078796 10.564873,10.081314 10.564859,10.083765 10.564647,10.166788 10.564682,10.180522 10.451484,10.180522 10.451484,10.165754 10.451459,10.083765 10.451452,10.078795 10.451367,9.984425" style="fill: white" /><polygon type="contour" points="10.18052,9.996134 10.180298,10.078765 10.180298,10.083764 10.18052,10.180522 10.165753,10.180522 10.083763,10.180299 10.078795,10.180296 9.984423,10.180449 9.984396,10.083902 9.984396,10.078795 9.984678,9.98468 9.998697,9.98468 10.078795,9.984398 10.083763,9.984229 10.18052,9.98147" style="fill: white" /><polygon type="contour" points="10.18052,9.711102 9.984678,9.711102 9.984678,9.420602 10.165853,9.420602 10.18052,9.420297" style="fill: white" /><polygon type="contour" points="10.46347,9.420602 10.734424,9.420602 10.735186,9.4904 10.734823,9.566201 10.734099,9.643524 10.734424,9.711102 10.451512,9.711102 10.451512,9.420376" style="fill: white" /><polygon type="contour" points="10.564859,9.047939 10.564873,9.05039 10.564853,9.052908 10.564534,9.134006 10.564545,9.147024 10.467137,9.147024 10.451367,9.146982 10.451367,9.132982 10.451452,9.052908 10.451459,9.047939 10.451484,8.951183 10.564682,8.951183" style="fill: white" /><polygon type="contour" points="10.18052,8.96595 10.180298,9.047939 10.180298,9.05294 10.18052,9.149929 10.083763,9.147474 10.078795,9.147306 9.984678,9.147024 9.984678,9.133005 9.984396,9.052908 9.984396,9.047801 9.98472,8.951256 10.078795,8.951408 10.083764,8.951404 10.18052,8.951183" style="fill: white" /><polygon type="contour" points="10.083764,8.566841 10.166786,8.567055 10.18052,8.56702 10.18052,8.680218 10.165752,8.680218 10.083764,8.680243 10.078794,8.68025 9.98472,8.680335 9.984678,8.664564 9.984678,8.567157 10.078794,8.566848 10.081313,8.566827" style="fill: white" /><polygon type="contour" points="9.645326,8.39941 9.711101,8.399943 9.711101,8.650414 9.711327,8.680188 9.420374,8.680188 9.4206,8.66823 9.4206,8.399943 9.482519,8.397917 9.566198,8.396899" style="fill: white" /><polygon type="contour" points="8.493958,8.398168 8.508474,8.398742 8.515864,8.398839 8.677251,8.396816 8.678987,8.44792 8.678987,8.496935 8.679275,8.499312 8.679764,8.521876 8.679955,8.566391 8.679955,8.679957 8.399789,8.679957 8.399604,8.560175 8.399269,8.538341 8.397139,8.4709 8.396923,8.46571 8.395519,8.45189 8.395379,8.39538" style="fill: white" /><polygon type="contour" points="9.052906,8.566848 9.134003,8.567168 9.147022,8.567157 9.147022,8.664564 9.14698,8.680335 9.132979,8.680335 9.052905,8.680249 9.047936,8.680242 8.951181,8.680218 8.951181,8.56702 9.047936,8.56684 9.050386,8.566827" style="fill: white" /><polygon type="contour" points="9.047936,8.951404 9.052936,8.951404 9.149926,8.951183 9.147473,9.047939 9.147304,9.052908 9.147022,9.147024 9.133002,9.147024 9.052906,9.147306 9.047799,9.147306 8.951255,9.147279 8.951255,9.132981 8.951406,9.052909 8.951402,9.04794 8.951181,8.951183 8.965948,8.951183" style="fill: white" /><polygon type="contour" points="8.680216,8.96595 8.680241,9.047939 8.680248,9.052909 8.680333,9.147279 8.664562,9.147024 8.567156,9.147024 8.566847,9.052909 8.566826,9.050389 8.56684,9.047939 8.567054,8.964915 8.567019,8.951183 8.680216,8.951183" style="fill: white" /><polygon type="contour" points="8.680333,9.984723 8.680333,9.998721 8.680248,10.078795 8.68024,10.083765 8.680216,10.180522 8.567019,10.180522 8.56684,10.083765 8.566826,10.081314 8.566847,10.078795 8.567167,9.997698 8.567156,9.98468 8.664563,9.98468" style="fill: white" /><polygon type="contour" points="8.680186,9.711328 8.668228,9.711102 8.397276,9.711102 8.396514,9.641302 8.396877,9.565502 8.397602,9.48818 8.397276,9.420602 8.680186,9.420602" style="fill: white" /><polygon type="contour" points="9.147022,9.711102 8.965847,9.711102 8.951181,9.711408 8.951181,9.420602 9.147022,9.420602" style="fill: white" /><polygon type="contour" points="9.047936,9.984229 9.052906,9.984398 9.147022,9.98468 9.147022,9.998699 9.147304,10.078795 9.147472,10.083764 9.150231,10.180522 9.052937,10.1803 9.047936,10.1803 8.951181,10.180522 8.951181,10.165754 8.951402,10.083764 8.951402,10.078764 8.951181,9.981775" style="fill: white" /><polygon type="contour" points="9.147022,10.467139 9.147022,10.564548 9.052905,10.564855 9.050387,10.564875 9.047936,10.564861 8.964913,10.56465 8.951181,10.564685 8.951181,10.451486 8.965948,10.451486 9.047936,10.451461 9.052906,10.451454 9.147277,10.451369" style="fill: white" /><polygon type="contour" points="8.679955,10.565312 8.679764,10.609827 8.679275,10.632393 8.678987,10.683783 8.677251,10.734887 8.515864,10.732866 8.493957,10.733536 8.395379,10.736324 8.39927,10.593362 8.399604,10.571528 8.399789,10.451747 8.679955,10.451747" style="fill: white" />
</svg>
