<svg width="19.131698" height="19.131699">
<polygon type="contour" points="11.276294,8.117299 11.27575,8.132026 11.191959,8.132122 11.191959,8.898147 11.27544,8.898334 11.275659,9.069285 11.275786,9.191452 11.191959,9.191447 11.191959,9.940244 11.275798,9.940291 11.275555,10.124233 11.27544,10.23337 11.191959,10.233271 11.191959,10.99942 11.27575,10.999677 11.276293,11.014401 11.281129,11.097491 11.285661,11.285663 11.018776,11.276363 11.00025,11.276512 11.000003,11.269713 11.000003,11.263139 11.000013,11.262797 10.999311,11.191961 10.233555,11.191961 10.233368,11.275441 10.056612,11.275679 9.940736,11.27644 9.940278,11.191961 9.191358,11.191961 9.190963,11.276439 9.075087,11.275678 8.898332,11.275441 8.89843,11.191961 8.132385,11.191961 8.131687,11.262798 8.131697,11.269713 8.131628,11.270181 8.131451,11.276512 8.112924,11.276363 7.846039,11.285663 7.855406,11.014401 7.855951,10.999677 7.939741,10.999578 7.939741,10.233556 7.85626,10.233369 7.85604,10.062419 7.855913,9.940253 7.939741,9.940254 7.939741,9.191456 7.855903,9.191412 7.856144,9.007469 7.85626,8.898334 7.939741,8.898432 7.939741,8.132282 7.855951,8.132026 7.855406,8.1173 7.850571,8.034212 7.846039,7.846041 8.112924,7.855341 8.131451,7.855192 8.131697,7.861991 8.131697,7.868508 8.131687,7.868906 8.132385,7.939743 8.898144,7.939743 8.898332,7.856262 9.075087,7.856025 9.190963,7.855263 9.19142,7.939743 9.940342,7.939743 9.940736,7.855263 10.056611,7.856025 10.233368,7.856262 10.233269,7.939743 10.999311,7.939743 11.000014,7.868905 11.000003,7.86199 11.000071,7.861522 11.000249,7.855192 11.018776,7.855341 11.285662,7.846041" style="fill: white" />
</svg>
