<svg width="19.131698" height="19.131699">
<polygon type="contour" points="7.562508,8.45802 7.562508,8.458712 7.562502,8.460687 7.562502,8.993715 7.56251,8.996653 7.562507,9.000054 7.561965,9.000055 7.559827,9.000056 7.335407,9.000056 7.333677,9.000055 7.333677,8.999488 7.333681,8.996654 7.333681,8.874449 7.164523,8.874449 7.162209,8.874455 7.162171,8.874456 7.162173,8.871187 7.162173,8.579062 7.333676,8.579062 7.333676,8.460687 7.333677,8.458565 7.333677,8.45802 7.334045,8.45802 7.335407,8.458014 7.559828,8.458014" style="fill: white" /><polygon type="contour" points="7.186898,7.162235 7.198966,7.16233 7.33095,7.162155 7.462471,7.162173 7.462471,7.333678 7.562508,7.333678 7.562508,7.334045 7.562509,7.335409 7.562509,7.55983 7.562508,7.562511 7.561936,7.562511 7.559828,7.562512 7.335407,7.562512 7.333677,7.562511 7.333677,7.462474 7.162171,7.462474 7.162153,7.330952 7.162328,7.198969 7.162269,7.189587 7.161848,7.176276 7.161489,7.161491" style="fill: white" /><polygon type="contour" points="8.844392,7.162177 8.844392,7.246772 8.874453,7.248276 8.874447,7.24945 8.874447,7.333682 8.996652,7.333682 8.999486,7.333678 9.000051,7.333678 9.000051,7.334027 9.000054,7.335408 9.000054,7.559831 9.000052,7.562511 8.999335,7.562511 8.996651,7.562514 8.993713,7.562505 8.460685,7.562505 8.458017,7.562511 8.458017,7.561939 8.458011,7.559831 8.458011,7.335409 8.458017,7.333678 8.458562,7.333678 8.460685,7.333677 8.57906,7.333677 8.57906,7.162175 8.841421,7.162175" style="fill: white" /><polygon type="contour" points="11.798023,8.45802 11.798023,8.458565 11.798024,8.460687 11.798024,8.579062 11.969523,8.579062 11.969523,8.871188 11.969526,8.874456 11.969444,8.874455 11.967172,8.874449 11.798019,8.874449 11.798019,8.996654 11.798023,8.999488 11.798023,9.000055 11.797675,9.000055 11.796292,9.000056 11.571873,9.000056 11.569192,9.000054 11.569192,8.999337 11.569189,8.996653 11.569198,8.993715 11.569198,8.460688 11.569192,8.45802 11.569763,8.45802 11.571872,8.458014 11.796293,8.458014" style="fill: white" /><polygon type="contour" points="11.969818,7.176275 11.969431,7.189587 11.969442,7.193642 11.969372,7.19897 11.969546,7.330557 11.969525,7.462464 11.969523,7.462476 11.798023,7.462476 11.798023,7.562511 11.797656,7.562511 11.796292,7.562512 11.571873,7.562512 11.569192,7.562511 11.569192,7.333678 11.669227,7.333678 11.669227,7.162175 11.753176,7.162226 11.801144,7.162155 11.932732,7.16233 11.9448,7.162235 11.970211,7.161491" style="fill: white" /><polygon type="contour" points="10.552641,7.333677 10.671014,7.333677 10.673137,7.333678 10.673683,7.333678 10.673683,7.334046 10.673689,7.335408 10.673689,7.559831 10.673683,7.562511 10.67299,7.562511 10.671015,7.562505 10.137987,7.562505 10.135049,7.562513 10.131649,7.56251 10.131648,7.561968 10.131647,7.55983 10.131647,7.335408 10.131648,7.333678 10.132214,7.333678 10.135048,7.333682 10.257253,7.333682 10.257253,7.249449 10.257247,7.248401 10.257247,7.248276 10.287309,7.246772 10.287309,7.162177 10.551524,7.162177 10.552641,7.162175" style="fill: white" /><polygon type="contour" points="10.137988,8.458019 10.673683,8.458019 10.673683,8.458712 10.673684,8.460687 10.673684,8.993714 10.673685,8.996653 10.673682,9.000054 10.673024,9.000055 10.671015,9.000054 10.137987,9.000054 10.135048,9.000053 10.131648,9.000055 10.131648,8.999372 10.13165,8.996653 10.131649,8.993714 10.131649,8.45802 10.132365,8.45802 10.135048,8.458017" style="fill: white" /><polygon type="contour" points="9.000052,8.45802 9.000051,8.458678 9.000052,8.460687 9.000052,8.993714 9.000051,8.996653 9.000051,9.000055 8.99937,9.000055 8.996651,9.000053 8.993713,9.000054 8.458017,9.000054 8.458017,8.999337 8.458014,8.996653 8.458016,8.993714 8.458016,8.45802 8.458709,8.45802 8.460684,8.458019 8.993712,8.458019 8.996651,8.458017" style="fill: white" /><polygon type="contour" points="8.996651,10.131652 9.000051,10.131652 9.000051,10.135051 9.000052,10.137989 9.000052,10.673684 8.999335,10.673684 8.996652,10.673686 8.993712,10.673685 8.460684,10.673685 8.458017,10.673684 8.458017,10.672991 8.458016,10.671015 8.458016,10.13799 8.458014,10.135051 8.458017,10.131651 8.458675,10.131652 8.460684,10.131651 8.993713,10.131651" style="fill: white" /><polygon type="contour" points="7.562508,10.131651 7.562508,10.132367 7.562511,10.13505 7.562502,10.137989 7.562502,10.671015 7.562508,10.673684 7.561936,10.673684 7.559828,10.67369 7.335408,10.67369 7.333677,10.673684 7.333677,10.673138 7.333676,10.671015 7.333676,10.552643 7.162173,10.552643 7.162173,10.260516 7.162171,10.257248 7.16225,10.257248 7.164523,10.257255 7.333681,10.257255 7.333681,10.13505 7.333677,10.132216 7.333677,10.131652 7.334026,10.131652 7.335407,10.131649 7.559828,10.131649" style="fill: white" /><polygon type="contour" points="7.562508,11.569763 7.562509,11.571874 7.562509,11.796296 7.562508,11.798026 7.462474,11.798026 7.462474,11.969526 7.378521,11.969477 7.330556,11.969549 7.198966,11.969373 7.186898,11.969467 7.161489,11.970211 7.161848,11.955426 7.162269,11.942116 7.162328,11.932734 7.162153,11.800751 7.162171,11.66923 7.333677,11.66923 7.333677,11.569193 7.562508,11.569193" style="fill: white" /><polygon type="contour" points="9.000052,11.569193 9.000051,11.569735 9.000054,11.571874 9.000054,11.796296 9.000051,11.798026 8.999486,11.798026 8.996652,11.798022 8.874447,11.798022 8.874447,11.882255 8.874453,11.883303 8.874453,11.883429 8.844392,11.884932 8.844392,11.969525 8.580176,11.969525 8.57906,11.969526 8.57906,11.798027 8.460685,11.798027 8.458562,11.798026 8.458017,11.798026 8.458017,11.797658 8.458011,11.796296 8.458011,11.571874 8.458017,11.569193 8.458709,11.569193 8.460684,11.569199 8.993713,11.569199 8.996651,11.56919" style="fill: white" /><polygon type="contour" points="10.137987,11.569199 10.671014,11.569199 10.673683,11.569193 10.673683,11.569764 10.673689,11.571873 10.673689,11.796296 10.673683,11.798026 10.673137,11.798026 10.671014,11.798027 10.552641,11.798027 10.552641,11.969526 10.290279,11.969526 10.287309,11.969525 10.287309,11.884932 10.257247,11.883429 10.257253,11.882254 10.257253,11.798022 10.135048,11.798022 10.132214,11.798026 10.131648,11.798026 10.131648,11.797678 10.131647,11.796295 10.131647,11.571874 10.131649,11.569193 10.132365,11.569193 10.135049,11.56919" style="fill: white" /><polygon type="contour" points="10.673683,10.132367 10.673685,10.13505 10.673684,10.13799 10.673684,10.671016 10.673683,10.673684 10.67299,10.673684 10.671015,10.673685 10.137988,10.673685 10.135049,10.673686 10.131649,10.673683 10.131648,10.673025 10.131649,10.671016 10.131649,10.137989 10.13165,10.13505 10.131648,10.131652 10.135049,10.131652 10.137987,10.131651 10.673683,10.131651" style="fill: white" /><polygon type="contour" points="11.798023,10.131652 11.798023,10.132216 11.798019,10.13505 11.798019,10.257255 11.967171,10.257255 11.969487,10.257248 11.969526,10.257247 11.969523,10.260515 11.969523,10.552643 11.798024,10.552643 11.798024,10.671015 11.798023,10.673138 11.798023,10.673684 11.797655,10.673684 11.796293,10.67369 11.571873,10.67369 11.569192,10.673684 11.569192,10.672991 11.569198,10.671016 11.569198,10.137989 11.569189,10.135051 11.569192,10.13165 11.569734,10.131651 11.571873,10.131649 11.796293,10.131649" style="fill: white" /><polygon type="contour" points="11.798023,11.66923 11.969525,11.66923 11.969547,11.800751 11.969372,11.932734 11.969431,11.942115 11.969818,11.955427 11.970211,11.970212 11.9448,11.969468 11.932732,11.969373 11.80075,11.969549 11.669229,11.969528 11.669229,11.798026 11.569192,11.798026 11.569192,11.569193 11.798023,11.569193" style="fill: white" />
</svg>
