<svg width="19.131698" height="19.131699">
<polygon type="contour" points="5.545034,7.283761 5.574331,7.285836 5.626366,7.284016 5.62835,7.528314 5.628621,7.587156 5.495501,7.585591 5.3231,7.585401 5.32379,7.378795 5.323626,7.292215 5.396647,7.291869 5.411143,7.291886 5.427096,7.292028 5.43288,7.292527 5.43429,7.292533 5.440309,7.292912 5.49978,7.292981 5.499624,7.283714" style="fill: white" /><polygon type="contour" points="5.628551,6.558446 5.628,6.809571 5.589448,6.810601 5.49908,6.810132 5.499111,6.805361 5.49917,6.796571 5.498867,6.762035 5.499071,6.717878 5.500008,6.514393 5.61105,6.514393 5.628493,6.514345" style="fill: white" /><polygon type="contour" points="5.628493,6.320387 5.628493,6.350583 5.517791,6.350583 5.500008,6.350528 5.499988,6.320387 5.499424,6.135985 5.628158,6.135985" style="fill: white" /><polygon type="contour" points="5.450545,5.314693 5.626117,5.321717 5.626063,5.49537 5.626063,5.626065 5.495369,5.626065 5.431704,5.62612 5.321717,5.62612 5.321342,5.53173 5.313491,5.313493" style="fill: white" /><polygon type="contour" points="6.19378,5.499462 6.350526,5.500011 6.350526,5.611053 6.350581,5.628496 6.194826,5.62816 6.135984,5.62816 6.135984,5.499426" style="fill: white" /><polygon type="contour" points="6.809112,5.499535 6.809112,5.543961 6.809406,5.54752 6.809374,5.576084 6.809569,5.628003 6.558444,5.628554 6.514343,5.628496 6.514343,5.517793 6.514391,5.50001 6.717875,5.499074" style="fill: white" /><polygon type="contour" points="6.808853,6.135957 6.809144,6.318486 6.809144,6.350572 6.558444,6.350572 6.514391,6.350528 6.514391,6.165253 6.514343,6.135681 6.558444,6.135669" style="fill: white" /><polygon type="contour" points="6.350581,6.320387 6.350526,6.350528 6.16525,6.350528 6.135678,6.350583 6.135984,6.194827 6.135984,6.135985 6.320385,6.135681 6.350581,6.135681" style="fill: white" /><polygon type="contour" points="6.350526,6.514393 6.350526,6.768463 6.35057,6.809145 6.318483,6.809145 6.135955,6.808855 6.135667,6.558446 6.135678,6.514345 6.320386,6.514345" style="fill: white" /><polygon type="contour" points="6.809005,6.711816 6.809005,6.809007 6.558445,6.809145 6.51434,6.809145 6.51434,6.558446 6.514391,6.514393 6.768461,6.514393 6.809144,6.514342" style="fill: white" /><polygon type="contour" points="6.318484,7.283749 6.35057,7.283749 6.35057,7.543978 6.350526,7.587582 6.320386,7.58757 6.135984,7.586593 6.135984,7.363435 6.135955,7.28373" style="fill: white" /><polygon type="contour" points="6.711814,7.283864 6.809005,7.283864 6.809005,7.586327 6.717875,7.586104 6.514391,7.587582 6.514391,7.323854 6.51434,7.283749" style="fill: white" /><polygon type="contour" points="7.588258,7.286066 7.579038,7.57904 7.286065,7.58826 7.283552,7.588404 7.283552,7.580337 7.283969,7.383881 7.283969,7.283972 7.580335,7.283553 7.588402,7.283553" style="fill: white" /><polygon type="contour" points="7.58758,6.514393 7.586103,6.717877 7.586326,6.809007 7.283861,6.809007 7.283747,6.558447 7.283747,6.514342 7.543975,6.514342" style="fill: white" /><polygon type="contour" points="7.586589,6.135985 7.587568,6.320387 7.58758,6.350528 7.323853,6.350528 7.283747,6.350572 7.283747,6.318485 7.283727,6.135957 7.502477,6.135957" style="fill: white" /><polygon type="contour" points="7.58102,5.43643 7.582943,5.468758 7.5873,5.600188 7.587064,5.628734 7.528313,5.628352 7.284013,5.626368 7.284059,5.587926 7.284073,5.49772 7.292981,5.496812 7.293023,5.371609 7.292213,5.323628 7.377785,5.323847 7.58519,5.323218" style="fill: white" /><polygon type="contour" points="11.752906,5.323791 11.839488,5.323628 11.838974,5.356677 11.83898,5.357699 11.838978,5.361167 11.839923,5.371476 11.840242,5.499456 11.847988,5.499627 11.84794,5.545036 11.847765,5.574593 11.847685,5.626368 11.603383,5.628353 11.544543,5.628624 11.546111,5.495503 11.5463,5.323101" style="fill: white" /><polygon type="contour" points="12.413823,5.499074 12.617308,5.500011 12.617308,5.611053 12.617356,5.628496 12.573256,5.628554 12.322132,5.628003 12.322132,5.589769 12.322694,5.499225 12.335129,5.499171 12.369666,5.498869" style="fill: white" /><polygon type="contour" points="11.74782,7.283972 11.847731,7.283972 11.848148,7.580336 11.848148,7.588403 11.845634,7.58826 11.552663,7.57904 11.543437,7.286066 11.543294,7.283553 11.551361,7.283553" style="fill: white" /><polygon type="contour" points="11.847953,6.318485 11.847953,6.350572 11.587723,6.350572 11.54412,6.350528 11.544132,6.320387 11.54511,6.135985 11.768268,6.135985 11.847973,6.135957" style="fill: white" /><polygon type="contour" points="11.847839,6.711816 11.847839,6.809007 11.545374,6.809007 11.545597,6.717877 11.54412,6.514393 11.807848,6.514393 11.847953,6.514342" style="fill: white" /><polygon type="contour" points="12.996033,6.558446 12.995743,6.808855 12.813215,6.809145 12.78113,6.809145 12.78113,6.558446 12.781174,6.514393 12.966449,6.514393 12.996022,6.514345" style="fill: white" /><polygon type="contour" points="12.617308,6.514393 12.617308,6.768462 12.61736,6.809144 12.419885,6.809007 12.322695,6.809007 12.322556,6.558447 12.322556,6.514342 12.573255,6.514342" style="fill: white" /><polygon type="contour" points="12.617356,6.13568 12.617356,6.320387 12.617308,6.350528 12.363237,6.350528 12.322556,6.350572 12.322556,6.318486 12.322847,6.135957 12.573256,6.135669" style="fill: white" /><polygon type="contour" points="12.936875,6.135985 12.995715,6.135985 12.996022,6.320387 12.996022,6.350583 12.811314,6.350583 12.781174,6.350528 12.781174,6.165253 12.781119,6.135681" style="fill: white" /><polygon type="contour" points="12.995716,5.62816 12.811315,5.628496 12.781119,5.628496 12.781119,5.517794 12.781174,5.500011 12.937919,5.499462 12.995716,5.499426" style="fill: white" /><polygon type="contour" points="13.810359,5.53173 13.809995,5.626415 13.717055,5.626415 13.587037,5.62612 13.505582,5.62612 13.505582,5.431705 13.505498,5.321806 13.588889,5.320739 13.599972,5.321343 13.818209,5.313494" style="fill: white" /><polygon type="contour" points="13.632238,6.193783 13.63169,6.350528 13.520649,6.350528 13.503207,6.350583 13.503542,6.194827 13.503542,6.135985 13.632272,6.135985" style="fill: white" /><polygon type="contour" points="13.63169,6.514394 13.6317,6.559214 13.63262,6.810132 13.542251,6.810601 13.5037,6.809571 13.503149,6.558446 13.503207,6.514345 13.613907,6.514345" style="fill: white" /><polygon type="contour" points="13.631945,7.291456 13.691427,7.29141 13.720555,7.291885 13.735054,7.291869 13.808074,7.292215 13.807854,7.377789 13.808483,7.585193 13.634979,7.585452 13.503079,7.587156 13.50335,7.528314 13.505334,7.284016 13.586664,7.283761 13.632072,7.283714" style="fill: white" /><polygon type="contour" points="12.995744,7.50248 12.995716,7.586592 12.811315,7.587569 12.781174,7.587581 12.781174,7.323855 12.78113,7.283749 12.813215,7.283749 12.995744,7.28373" style="fill: white" /><polygon type="contour" points="12.61736,7.543977 12.617308,7.587582 12.413823,7.586103 12.322695,7.586327 12.322695,7.283864 12.573255,7.283749 12.61736,7.283749" style="fill: white" /><polygon type="contour" points="11.848148,11.551364 11.847731,11.747821 11.847731,11.847732 11.551362,11.848151 11.543294,11.848151 11.543437,11.845637 11.552663,11.552664 11.845634,11.543441 11.848148,11.543297" style="fill: white" /><polygon type="contour" points="13.662943,11.548759 13.69527,11.550681 13.808601,11.546303 13.807911,11.752908 13.808074,11.839489 13.735054,11.839835 13.720555,11.839817 13.704604,11.839676 13.698819,11.839176 13.697409,11.839171 13.69139,11.838791 13.63192,11.838722 13.632071,11.84799 13.586664,11.847942 13.557369,11.845867 13.505335,11.847687 13.503349,11.603385 13.502968,11.544635 13.531515,11.5444" style="fill: white" /><polygon type="contour" points="12.937919,11.545093 12.995716,11.545111 12.995716,11.768269 12.995744,11.847974 12.813216,11.847954 12.78113,11.847954 12.78113,11.587725 12.781174,11.544122" style="fill: white" /><polygon type="contour" points="12.617308,11.807848 12.61736,11.847954 12.419885,11.847839 12.322695,11.847839 12.322695,11.545376 12.413823,11.5456 12.617308,11.544122" style="fill: white" /><polygon type="contour" points="12.995744,12.322848 12.996033,12.573257 12.996022,12.617358 12.811314,12.617358 12.781174,12.61731 12.781174,12.36324 12.78113,12.322559 12.813216,12.322559" style="fill: white" /><polygon type="contour" points="13.632589,12.32634 13.632529,12.335132 13.632832,12.369668 13.632627,12.413825 13.63169,12.61731 13.520649,12.61731 13.503207,12.617358 13.503149,12.573256 13.5037,12.322621 13.542252,12.321589 13.63262,12.321572" style="fill: white" /><polygon type="contour" points="13.63169,12.781176 13.632238,12.937921 13.632272,12.995719 13.503542,12.995719 13.503207,12.811315 13.503207,12.781121 13.613908,12.781121" style="fill: white" /><polygon type="contour" points="13.810359,13.599974 13.818209,13.81821 13.681153,13.817011 13.505582,13.809986 13.505582,13.505584 13.809984,13.505584" style="fill: white" /><polygon type="contour" points="12.617356,13.503207 12.617356,13.61391 12.617308,13.631692 12.413823,13.63263 12.322588,13.632169 12.322588,13.587741 12.322294,13.584183 12.322325,13.55562 12.322132,13.503702 12.573255,13.50315" style="fill: white" /><polygon type="contour" points="12.936874,13.503544 12.995716,13.503544 12.995716,13.632276 12.937919,13.632241 12.781174,13.631692 12.781174,13.520649 12.781119,13.503207" style="fill: white" /><polygon type="contour" points="12.995716,12.936877 12.995716,12.995719 12.811315,12.996023 12.781119,12.996023 12.781119,12.811316 12.781174,12.781176 12.966449,12.781176 12.996022,12.781121" style="fill: white" /><polygon type="contour" points="12.617308,12.781176 12.617308,12.96645 12.617356,12.996023 12.573256,12.996033 12.322847,12.995746 12.322556,12.813217 12.322556,12.781133 12.573255,12.781133" style="fill: white" /><polygon type="contour" points="12.61736,12.573256 12.617308,12.61731 12.363238,12.61731 12.322556,12.617362 12.322695,12.419887 12.322695,12.322697 12.573255,12.322559 12.61736,12.322559" style="fill: white" /><polygon type="contour" points="11.847953,12.573257 11.847953,12.617362 11.587724,12.617362 11.54412,12.61731 11.545597,12.413825 11.545374,12.322697 11.847838,12.322697" style="fill: white" /><polygon type="contour" points="11.847953,12.813218 11.847973,12.995747 11.629222,12.995747 11.54511,12.995719 11.544132,12.811316 11.54412,12.781176 11.807847,12.781176 11.847953,12.781133" style="fill: white" /><polygon type="contour" points="11.603383,13.503351 11.847685,13.505336 11.847685,13.543461 11.847731,13.633697 11.838721,13.626732 11.838678,13.760093 11.839488,13.808075 11.753914,13.807856 11.546508,13.808484 11.54625,13.634982 11.544543,13.503079" style="fill: white" /><polygon type="contour" points="6.809144,12.813217 6.808852,12.995746 6.558444,12.996033 6.514343,12.996022 6.514343,12.811315 6.514391,12.781176 6.768461,12.781176 6.809144,12.781133" style="fill: white" /><polygon type="contour" points="6.711814,12.322697 6.809005,12.322697 6.809144,12.573256 6.809144,12.617362 6.558445,12.617362 6.514391,12.61731 6.514391,12.363241 6.51434,12.322559" style="fill: white" /><polygon type="contour" points="6.35057,12.573257 6.350526,12.61731 6.16525,12.61731 6.135678,12.617358 6.135667,12.573257 6.135955,12.322847 6.318483,12.322559 6.35057,12.322559" style="fill: white" /><polygon type="contour" points="6.350526,12.781176 6.350526,12.96645 6.350581,12.996023 6.194826,12.995719 6.135984,12.995719 6.135678,12.811315 6.135678,12.781121 6.320385,12.781121" style="fill: white" /><polygon type="contour" points="6.350581,13.61391 6.350526,13.631692 6.320386,13.631712 6.135984,13.632276 6.135984,13.503544 6.320385,13.503208 6.350581,13.503208" style="fill: white" /><polygon type="contour" points="6.809569,13.503702 6.809569,13.541935 6.809005,13.632479 6.79657,13.632532 6.762033,13.632835 6.717876,13.63263 6.514391,13.631692 6.514391,13.52065 6.514343,13.503208 6.558445,13.50315" style="fill: white" /><polygon type="contour" points="7.5873,13.531516 7.582943,13.662944 7.58102,13.695272 7.5854,13.808603 7.378794,13.807912 7.292213,13.808075 7.292727,13.775023 7.292589,13.774393 7.292722,13.770534 7.291777,13.760227 7.291456,13.632246 7.283712,13.632074 7.283759,13.586665 7.283931,13.557111 7.284013,13.505336 7.528313,13.503351 7.587064,13.50297" style="fill: white" /><polygon type="contour" points="7.58758,12.781176 7.586609,12.937922 7.58659,12.995719 7.363432,12.995719 7.283727,12.995747 7.283747,12.813218 7.283747,12.781133 7.543975,12.781133" style="fill: white" /><polygon type="contour" points="7.586102,12.413825 7.58758,12.61731 7.323853,12.61731 7.283747,12.617362 7.283862,12.419887 7.283862,12.322697 7.586326,12.322697" style="fill: white" /><polygon type="contour" points="7.286065,11.54344 7.579038,11.552664 7.588258,11.845637 7.588402,11.848151 7.580335,11.848151 7.383879,11.847732 7.283969,11.847732 7.283552,11.551364 7.283552,11.543297" style="fill: white" /><polygon type="contour" points="6.717875,11.5456 6.809005,11.545376 6.809005,11.847839 6.558445,11.847954 6.51434,11.847954 6.51434,11.587726 6.514391,11.544122" style="fill: white" /><polygon type="contour" points="6.350526,11.807848 6.35057,11.847954 6.318483,11.847954 6.135955,11.847974 6.135955,11.629222 6.135984,11.545111 6.320385,11.544134 6.350526,11.544122" style="fill: white" /><polygon type="contour" points="5.628731,11.544635 5.628349,11.603386 5.626366,11.847687 5.545033,11.847942 5.499625,11.84799 5.499754,11.840245 5.440273,11.840293 5.411143,11.839818 5.396647,11.839835 5.323626,11.839489 5.323845,11.753915 5.323216,11.54651 5.436428,11.550682 5.468756,11.548759 5.600185,11.5444" style="fill: white" /><polygon type="contour" points="5.589447,12.321589 5.628,12.322621 5.628551,12.573256 5.628493,12.617358 5.51779,12.617358 5.500008,12.61731 5.499999,12.572488 5.499079,12.321572" style="fill: white" /><polygon type="contour" points="5.628158,12.936877 5.628158,12.995719 5.499424,12.995719 5.49946,12.937922 5.500008,12.781176 5.61105,12.781176 5.628493,12.781121" style="fill: white" /><polygon type="contour" points="5.544661,13.505584 5.626117,13.505584 5.626117,13.809986 5.54281,13.810965 5.531726,13.810361 5.313492,13.81821 5.321342,13.599973 5.321705,13.505288 5.414641,13.505288" style="fill: white" />
</svg>
