<svg width="19.131698" height="19.131699">
<polygon type="contour" points="8.913749,8.683502 8.988515,8.685323 8.990683,8.757138 8.990683,8.853145 9.043029,8.853158 9.111171,8.853428 9.111171,8.905112 9.111169,8.991058 9.111169,9.04303 9.111171,9.111173 9.077589,9.111173 9.021568,9.11117 8.958028,9.11117 8.853426,9.111173 8.853156,9.043031 8.853143,8.990953 8.739455,8.990953 8.686494,8.990937 8.686441,8.972826 8.686027,8.927457 8.681373,8.681375" style="fill: white" /><polygon type="contour" points="8.991055,9.299619 9.043028,9.299619 9.111171,9.299358 9.111171,9.333201 9.111169,9.389921 9.111169,9.76341 9.111171,9.832346 9.077588,9.832346 9.021569,9.832082 8.958027,9.832082 8.853427,9.832346 8.853156,9.763411 8.853158,9.711102 8.684784,9.711102 8.684965,9.673416 8.685882,9.566201 8.685778,9.544622 8.684784,9.420602 8.853158,9.420602 8.853156,9.368292 8.853427,9.299358 8.905112,9.299358" style="fill: white" /><polygon type="contour" points="9.389919,9.299619 9.76341,9.299619 9.832345,9.299358 9.832345,9.333202 9.83208,9.38992 9.83208,9.76341 9.832345,9.832346 9.7985,9.832346 9.741781,9.832082 9.36829,9.832082 9.299355,9.832346 9.299355,9.798502 9.299617,9.741783 9.299617,9.368293 9.299355,9.299358 9.3332,9.299358" style="fill: white" /><polygon type="contour" points="9.592559,8.686618 9.711101,8.6865 9.711101,8.85316 9.76341,8.853158 9.832345,8.853428 9.832345,8.905112 9.83208,8.991058 9.83208,9.043031 9.832345,9.111173 9.798499,9.111173 9.741781,9.11117 9.36829,9.11117 9.299355,9.111173 9.299355,9.077591 9.299617,9.021571 9.299617,8.958029 9.299355,8.853428 9.36829,8.853158 9.4206,8.85316 9.4206,8.6865 9.53971,8.686618 9.544527,8.686512 9.566107,8.685946" style="fill: white" /><polygon type="contour" points="10.445672,8.927457 10.445257,8.972825 10.445205,8.990937 10.278556,8.990937 10.278544,9.043031 10.278273,9.111173 10.226587,9.111173 10.140644,9.11117 10.088671,9.11117 10.02053,9.111173 10.02053,9.07759 10.020531,9.02157 10.020531,8.958028 10.02053,8.853428 10.088671,8.853158 10.140676,8.853145 10.141018,8.757138 10.141058,8.750573 10.143186,8.685323 10.217951,8.683502 10.450327,8.681375" style="fill: white" /><polygon type="contour" points="10.110131,9.299619 10.173672,9.299619 10.278273,9.299358 10.278543,9.368292 10.278541,9.420602 10.446916,9.420602 10.446734,9.458288 10.445818,9.566097 10.445921,9.587676 10.446916,9.711102 10.278541,9.711102 10.278543,9.763411 10.278273,9.832346 10.226587,9.832346 10.140644,9.832082 10.088672,9.832082 10.02053,9.832346 10.02053,9.798501 10.020531,9.741783 10.020531,9.368292 10.02053,9.299358 10.05411,9.299358" style="fill: white" /><polygon type="contour" points="10.11013,10.020532 10.173672,10.020532 10.278273,10.020531 10.278544,10.088674 10.278556,10.140752 10.392242,10.140752 10.445205,10.140768 10.445257,10.158879 10.445672,10.204247 10.450327,10.450329 10.217951,10.448202 10.143186,10.446381 10.141018,10.374565 10.141018,10.278558 10.088671,10.278546 10.02053,10.278276 10.02053,10.22659 10.020531,10.140646 10.020531,10.088673 10.02053,10.020531 10.054111,10.020531" style="fill: white" /><polygon type="contour" points="9.389918,10.020532 9.76341,10.020532 9.832345,10.020531 9.832345,10.054112 9.83208,10.110132 9.83208,10.173675 9.832345,10.278276 9.76341,10.278546 9.711101,10.278543 9.711101,10.445202 9.591988,10.445086 9.587173,10.445189 9.5655,10.445758 9.53914,10.445086 9.4206,10.445202 9.4206,10.278543 9.36829,10.278546 9.299355,10.278276 9.299355,10.22659 9.299617,10.140646 9.299617,10.088673 9.299355,10.020531 9.3332,10.020531" style="fill: white" /><polygon type="contour" points="8.991055,10.020532 9.043029,10.020532 9.111171,10.020531 9.111171,10.054112 9.111169,10.110132 9.111169,10.173675 9.111171,10.278276 9.043029,10.278546 8.991024,10.278558 8.990682,10.374566 8.990642,10.38113 8.988515,10.446381 8.913749,10.448202 8.681373,10.450329 8.686027,10.204247 8.686441,10.158878 8.686494,10.140768 8.853143,10.140768 8.853156,10.088674 8.853427,10.020531 8.905111,10.020531" style="fill: white" />
</svg>
