<svg width="19.131698" height="19.131699">
<polygon type="contour" points="7.756734,11.291327 7.782795,11.292817 7.837171,11.294529 7.838883,11.348904 7.840373,11.374965 7.840952,11.409072 7.837976,11.585265 7.546436,11.585265 7.546436,11.293725 7.722627,11.290748" style="fill: white" /><polygon type="contour" points="7.089321,11.290763 7.214499,11.291317 7.214499,11.585309 7.107683,11.585309 7.00175,11.585135 7.00175,11.410887 7.0017,11.290735" style="fill: white" /><polygon type="contour" points="7.214499,11.917201 7.214499,12.024018 7.21455,12.129952 7.129572,12.130002 7.0017,12.130002 7.00175,12.042378 7.00175,11.917152 7.089321,11.917152" style="fill: white" /><polygon type="contour" points="7.840556,12.000572 7.840968,12.130002 7.720813,12.129952 7.546566,12.129952 7.546566,12.042378 7.546392,11.917201 7.722212,11.916899 7.840535,11.916899" style="fill: white" /><polygon type="contour" points="7.840968,12.611358 7.840448,12.78213 7.840694,12.893232 7.713179,12.893232 7.546688,12.893324 7.546623,12.735848 7.546566,12.611314 7.720814,12.611314" style="fill: white" /><polygon type="contour" points="7.71055,13.187326 7.838527,13.187326 7.836454,13.307668 7.837829,13.486405 7.720718,13.48575 7.546436,13.486539 7.546436,13.356134 7.546662,13.250834 7.546727,13.187269" style="fill: white" /><polygon type="contour" points="7.214499,13.248859 7.214499,13.30952 7.110363,13.309516 7.0017,13.309635 7.001918,13.254445 7.001918,13.186004 7.095824,13.186004 7.214707,13.185988" style="fill: white" /><polygon type="contour" points="7.214719,12.735848 7.214706,12.893331 7.095825,12.893462 7.001918,12.893462 7.0017,12.780872 7.0017,12.611358 7.089322,12.611314 7.21455,12.611314" style="fill: white" /><polygon type="contour" points="6.52034,12.735848 6.52034,12.893462 6.395853,12.893462 6.238379,12.893324 6.238379,12.736442 6.238241,12.611361 6.35083,12.611358 6.520344,12.611358" style="fill: white" /><polygon type="contour" points="6.520344,13.236025 6.520344,13.309635 6.383123,13.309976 6.238379,13.310076 6.238266,13.253607 6.238266,13.186297 6.389808,13.186297 6.52034,13.186004" style="fill: white" /><polygon type="contour" points="5.944451,13.187251 5.944451,13.349904 5.94429,13.486643 5.862047,13.48616 5.637929,13.493773 5.644991,13.280578 5.646311,13.186647 5.720325,13.186363 5.73505,13.18619 5.798132,13.18619" style="fill: white" /><polygon type="contour" points="5.877257,12.611361 5.945699,12.611361 5.945699,12.735848 5.945628,12.892944 5.87805,12.892944 5.821625,12.893324 5.821725,12.748578 5.822067,12.611358" style="fill: white" /><polygon type="contour" points="5.945715,12.030279 5.945699,12.129783 5.895676,12.130002 5.822067,12.130002 5.822186,12.021339 5.822183,11.917201 5.888753,11.916995 5.945715,11.916995" style="fill: white" /><polygon type="contour" points="6.520388,11.917152 6.520344,12.00213 6.520344,12.130002 6.395852,12.129783 6.238241,12.129783 6.238241,12.035876 6.23837,11.916995 6.395853,11.916983" style="fill: white" /><polygon type="contour" points="6.520388,11.410886 6.520388,11.585135 6.395853,11.585078 6.238379,11.585012 6.23847,11.418521 6.23847,11.291007 6.349571,11.291253 6.520344,11.290735" style="fill: white" /><polygon type="contour" points="5.944376,11.421151 5.944451,11.585129 5.916455,11.585155 5.875295,11.585155 5.77557,11.585265 5.645164,11.585265 5.645951,11.410982 5.645296,11.293874 5.824032,11.295247 5.944376,11.293174" style="fill: white" /><polygon type="contour" points="5.880487,7.5465 5.944451,7.546575 5.944376,7.710551 5.944376,7.838528 5.824032,7.836456 5.645296,7.837831 5.64595,7.72072 5.645164,7.546438 5.775569,7.546438" style="fill: white" /><polygon type="contour" points="5.877256,7.001921 5.945699,7.001921 5.945699,7.095826 5.945715,7.214709 5.882844,7.214501 5.822183,7.214501 5.822186,7.110364 5.822067,7.001702" style="fill: white" /><polygon type="contour" points="5.862046,5.645545 5.896101,5.641824 5.94429,5.645061 5.94429,5.780383 5.944451,5.876743 5.944451,5.944453 5.876741,5.944453 5.735051,5.945512 5.646311,5.945055 5.641513,5.799848 5.637928,5.63793" style="fill: white" /><polygon type="contour" points="5.87805,6.23876 5.945628,6.23876 5.945628,6.390903 5.945699,6.520342 5.895677,6.520346 5.822067,6.520346 5.821725,6.383125 5.821625,6.23838" style="fill: white" /><polygon type="contour" points="6.520344,6.350832 6.520344,6.520346 6.395853,6.520342 6.238241,6.520342 6.238241,6.395854 6.238379,6.23838 6.395258,6.23838 6.52034,6.238242" style="fill: white" /><polygon type="contour" points="6.383123,5.821728 6.520344,5.822068 6.52034,5.877258 6.52034,5.9457 6.395853,5.9457 6.238266,5.945406 6.238266,5.878095 6.238379,5.821626" style="fill: white" /><polygon type="contour" points="7.720719,5.645953 7.837829,5.645298 7.836453,5.824033 7.838527,5.944377 7.710549,5.944377 7.546727,5.944435 7.546547,5.916457 7.546547,5.875297 7.546436,5.77557 7.546436,5.645165" style="fill: white" /><polygon type="contour" points="7.110363,5.822188 7.214499,5.822185 7.214707,5.888756 7.214707,5.945716 7.101422,5.945716 7.001918,5.9457 7.0017,5.895678 7.0017,5.822069" style="fill: white" /><polygon type="contour" points="7.214706,6.238371 7.214719,6.395854 7.21455,6.52039 7.129572,6.520345 7.0017,6.520346 7.001918,6.395855 7.001918,6.238242 7.095825,6.238242" style="fill: white" /><polygon type="contour" points="7.713179,6.238472 7.840694,6.238472 7.840448,6.349572 7.840968,6.520346 7.720814,6.52039 7.546566,6.52039 7.546624,6.395853 7.546688,6.23838" style="fill: white" /><polygon type="contour" points="7.840939,7.089324 7.840384,7.214501 7.546392,7.214501 7.546392,7.107685 7.546566,7.001752 7.720813,7.001752 7.840968,7.001702" style="fill: white" /><polygon type="contour" points="7.089322,7.001752 7.21455,7.001752 7.21455,7.089323 7.214499,7.214501 7.107683,7.214501 7.00175,7.214552 7.0017,7.129574 7.0017,7.001702" style="fill: white" /><polygon type="contour" points="6.520388,7.089323 6.520388,7.214552 6.395852,7.214722 6.23837,7.214709 6.238241,7.095827 6.238241,7.001921 6.35083,7.001702 6.520344,7.001702" style="fill: white" /><polygon type="contour" points="6.520388,7.720815 6.520344,7.84097 6.395852,7.841182 6.238379,7.840533 6.238379,7.546691 6.395852,7.546626 6.520388,7.546568" style="fill: white" /><polygon type="contour" points="7.214803,7.722213 7.214803,7.840537 7.131131,7.840558 7.0017,7.840969 7.00175,7.720815 7.00175,7.546568 7.089322,7.546568 7.214499,7.546394" style="fill: white" /><polygon type="contour" points="7.840952,7.722629 7.840372,7.756737 7.838883,7.782797 7.837171,7.837174 7.782796,7.838885 7.756733,7.840375 7.722628,7.840953 7.546663,7.838148 7.546663,7.719146 7.546436,7.546438 7.837976,7.546438" style="fill: white" /><polygon type="contour" points="11.585263,7.837977 11.409071,7.840953 11.374965,7.840375 11.348902,7.838885 11.294528,7.837174 11.292816,7.782797 11.291324,7.756736 11.290747,7.72263 11.293551,7.546665 11.412553,7.546665 11.585263,7.546438" style="fill: white" /><polygon type="contour" points="13.486706,5.851126 13.485389,5.945055 13.411373,5.94534 13.396649,5.945512 13.333568,5.945512 13.187249,5.944452 13.187249,5.7818 13.187409,5.645061 13.269652,5.645545 13.493772,5.63793" style="fill: white" /><polygon type="contour" points="13.309975,6.383124 13.309633,6.520346 13.254442,6.520342 13.186001,6.520342 13.186001,6.395853 13.186071,6.23876 13.253649,6.23876 13.310075,6.23838" style="fill: white" /><polygon type="contour" points="12.893322,6.23838 12.893322,6.39526 12.893459,6.520342 12.780868,6.520346 12.611357,6.520346 12.611361,6.395854 12.611361,6.238242 12.735846,6.238242" style="fill: white" /><polygon type="contour" points="12.893434,5.878095 12.893434,5.945406 12.741892,5.945406 12.611361,5.9457 12.611358,5.895679 12.611358,5.822069 12.748578,5.821727 12.893322,5.821627" style="fill: white" /><polygon type="contour" points="11.585263,5.77557 11.585036,5.88087 11.584973,5.944435 11.421149,5.944377 11.293172,5.944377 11.295246,5.824033 11.293871,5.645298 11.41098,5.645953 11.585263,5.645165" style="fill: white" /><polygon type="contour" points="12.129782,5.877258 12.129782,5.9457 12.035876,5.9457 11.916993,5.945716 11.9172,5.882844 11.9172,5.822185 12.021336,5.822188 12.13,5.822069" style="fill: white" /><polygon type="contour" points="12.13,6.350831 12.13,6.520346 12.042377,6.52039 11.91715,6.52039 11.916981,6.395854 11.916993,6.238371 12.035875,6.238242 12.129782,6.238242" style="fill: white" /><polygon type="contour" points="11.585076,6.395853 11.585133,6.52039 11.410885,6.52039 11.290733,6.520346 11.29052,6.395854 11.291168,6.23838 11.58501,6.23838" style="fill: white" /><polygon type="contour" points="11.410886,7.001752 11.585133,7.001752 11.585133,7.089323 11.585308,7.214501 11.409488,7.214805 11.291164,7.214805 11.291145,7.131132 11.290733,7.001702" style="fill: white" /><polygon type="contour" points="12.12995,7.089324 12.12995,7.214552 12.042378,7.214552 11.9172,7.214501 11.9172,7.107684 11.91715,7.001752 12.002128,7.001702 12.13,7.001702" style="fill: white" /><polygon type="contour" points="12.12995,7.546568 12.12995,7.720815 12.13,7.84097 12.042377,7.84094 11.9172,7.840385 11.9172,7.546394 12.024016,7.546394" style="fill: white" /><polygon type="contour" points="12.735847,7.546626 12.893322,7.546691 12.89323,7.713181 12.89323,7.840695 12.782129,7.84045 12.611357,7.84097 12.611313,7.720815 12.611313,7.546568" style="fill: white" /><polygon type="contour" points="12.735847,7.001921 12.893459,7.001921 12.893459,7.095826 12.893328,7.214708 12.735846,7.214721 12.611313,7.214552 12.611357,7.129573 12.611357,7.001702" style="fill: white" /><polygon type="contour" points="13.309515,7.110364 13.309518,7.214501 13.242945,7.214709 13.185985,7.214709 13.185985,7.101424 13.186001,7.001921 13.236024,7.001702 13.309633,7.001702" style="fill: white" /><polygon type="contour" points="13.485748,7.720721 13.486403,7.837831 13.354417,7.839808 13.187323,7.838528 13.187323,7.710552 13.187249,7.546575 13.215244,7.546549 13.256404,7.546549 13.35613,7.546438 13.486536,7.546438" style="fill: white" /><polygon type="contour" points="12.893328,11.916995 12.893459,12.035877 12.893459,12.129783 12.780869,12.130002 12.611357,12.130002 12.611313,12.042378 12.611313,11.917152 12.735846,11.916983" style="fill: white" /><polygon type="contour" points="13.248855,11.917201 13.309518,11.917201 13.309515,12.021339 13.309633,12.130002 13.254443,12.129783 13.186001,12.129783 13.186001,12.035877 13.185985,11.916995" style="fill: white" /><polygon type="contour" points="13.307665,11.295247 13.486403,11.293874 13.485748,11.410983 13.486536,11.585265 13.356131,11.585265 13.251213,11.585203 13.187249,11.585129 13.187323,11.42115 13.187323,11.293174" style="fill: white" /><polygon type="contour" points="12.782128,11.291253 12.89323,11.291007 12.89323,11.418522 12.893322,11.585012 12.735846,11.585078 12.611313,11.585135 12.611313,11.410886 12.611357,11.290735" style="fill: white" /><polygon type="contour" points="12.12995,11.410887 12.12995,11.585135 12.042377,11.585135 11.9172,11.585309 11.916897,11.409489 11.916897,11.291166 12.000569,11.291146 12.13,11.290735" style="fill: white" /><polygon type="contour" points="11.585037,11.293553 11.585037,11.412555 11.585263,11.585265 11.293723,11.585265 11.290746,11.409072 11.291324,11.374966 11.292815,11.348904 11.294528,11.294529 11.348903,11.292817 11.374964,11.291327 11.409071,11.290748" style="fill: white" /><polygon type="contour" points="11.585308,12.024019 11.585133,12.129952 11.410886,12.129952 11.290733,12.130002 11.29076,12.042379 11.291315,11.917201 11.585308,11.917201" style="fill: white" /><polygon type="contour" points="12.13,12.00213 12.13,12.130002 12.042377,12.129952 11.91715,12.129952 11.91715,12.042378 11.9172,11.917201 12.024017,11.917201 12.12995,11.917152" style="fill: white" /><polygon type="contour" points="12.002128,12.611358 12.13,12.611358 12.129782,12.735848 12.129782,12.893462 12.035876,12.893462 11.916993,12.893331 11.916981,12.735849 11.91715,12.611314" style="fill: white" /><polygon type="contour" points="11.585077,12.735848 11.585011,12.893324 11.418521,12.893232 11.291006,12.893232 11.291251,12.782131 11.290733,12.611357 11.410885,12.611314 11.585133,12.611314" style="fill: white" /><polygon type="contour" points="11.585154,13.215247 11.585154,13.256407 11.585263,13.356133 11.585263,13.486539 11.41098,13.48575 11.293871,13.486405 11.291893,13.354419 11.293172,13.187326 11.421148,13.187326 11.584973,13.187269" style="fill: white" /><polygon type="contour" points="12.129782,13.186004 12.13,13.236025 12.13,13.309635 12.021336,13.309516 11.9172,13.30952 11.916993,13.242948 11.916993,13.185989 12.030277,13.185988" style="fill: white" /><polygon type="contour" points="12.893434,13.186297 12.893434,13.253607 12.893322,13.310076 12.748576,13.309976 12.611357,13.309635 12.611361,13.254444 12.611361,13.186004 12.735846,13.186004" style="fill: white" /><polygon type="contour" points="12.735846,12.611361 12.893459,12.611361 12.893459,12.735848 12.893321,12.893324 12.736442,12.893324 12.611361,12.893462 12.611358,12.780872 12.611358,12.611359" style="fill: white" /><polygon type="contour" points="13.309975,12.748578 13.310075,12.893324 13.253649,12.892944 13.186072,12.892944 13.186072,12.7408 13.186001,12.611361 13.236023,12.611358 13.309633,12.611358" style="fill: white" /><polygon type="contour" points="13.485389,13.186647 13.490187,13.331853 13.493772,13.493773 13.269653,13.48616 13.235598,13.48988 13.187409,13.486643 13.187409,13.351318 13.187249,13.254959 13.187249,13.187251 13.254958,13.187251 13.396648,13.18619" style="fill: white" />
</svg>
