<svg width="19.131698" height="19.131699">
<polygon type="contour" points="16.394341,13.218625 16.402819,13.217756 16.402815,13.224501 16.402815,13.226874 16.402818,13.227615 16.40259,13.447689 16.402622,13.556217 16.402763,13.651612 16.402785,13.910199 16.498239,13.910341 16.498239,14.099224 16.4979,14.243202 16.433803,14.242974 16.365722,14.243269 16.30804,14.242852 16.307869,14.34128 16.307792,14.367214 16.307792,16.024815 16.307742,16.041062 16.307709,16.164906 16.367294,16.164853 16.433804,16.164946 16.436923,16.16468 16.4979,16.1647 16.497766,16.299649 16.498106,16.451458 16.498106,16.498107 16.295564,16.49832 16.294363,16.498113 16.16461,16.497812 16.164943,16.433806 16.164943,16.369469 16.16485,16.367295 16.164904,16.307711 16.041061,16.307743 16.024811,16.307793 14.367212,16.307793 14.341278,16.307871 14.242851,16.308044 14.243266,16.365723 14.242973,16.369468 14.242973,16.433806 14.243178,16.436927 14.2432,16.497902 14.099223,16.498241 13.91034,16.498241 13.910164,16.402792 13.564351,16.402701 13.460555,16.40269 13.443664,16.402645 13.379468,16.402714 13.185385,16.402771 13.194857,16.252684 13.193374,16.248678 13.211558,16.060482 13.214981,16.041062 13.216709,16.024815 13.216709,14.367214 13.213735,14.34128 13.20683,14.243042 13.1937,14.089478 13.200146,14.071249 13.213837,13.894422 13.263408,13.894519 13.282969,13.894618 13.288778,13.89465 13.459928,13.893818 13.563958,13.89455 13.575233,13.894719 13.655737,13.894134 13.719209,13.893784 13.726944,13.893665 13.729439,13.893956 13.774725,13.893108 13.779371,13.892881 13.798551,13.89178 13.802984,13.891107 13.822849,13.890814 13.827911,13.890703 13.83841,13.890479 13.889897,13.888995 13.890479,13.838413 13.890702,13.827914 13.890812,13.822852 13.891105,13.802987 13.891778,13.798554 13.892878,13.779374 13.893106,13.774729 13.893953,13.729442 13.893662,13.726946 13.893783,13.719213 13.894131,13.655739 13.894716,13.575236 13.894547,13.56396 13.893816,13.45993 13.894648,13.288781 13.894615,13.282971 13.894516,13.26341 13.89442,13.213839 14.071247,13.200148 14.089476,13.193702 14.24304,13.206831 14.341278,13.213736 14.367212,13.21671 16.024811,13.21671 16.041061,13.214982 16.164909,13.206048 16.250264,13.182849" style="fill: white" /><polygon type="contour" points="16.498106,2.633595 16.498106,2.680246 16.497766,2.832055 16.4979,2.967002 16.433803,2.966758 16.369466,2.966758 16.367294,2.966851 16.307709,2.966798 16.307742,3.090641 16.307792,3.106888 16.307792,4.764488 16.307869,4.790423 16.30804,4.888849 16.365722,4.888436 16.369467,4.888731 16.433803,4.888731 16.436924,4.888523 16.4979,4.888502 16.498239,5.032479 16.498239,5.221362 16.402783,5.221539 16.402776,5.56848 16.402786,5.672076 16.402742,5.688911 16.402821,5.752836 16.402749,5.94601 16.253183,5.936621 16.164909,5.925655 16.041061,5.916721 16.024811,5.914994 14.367213,5.914994 14.341278,5.917966 14.24304,5.924871 14.089475,5.938001 14.071246,5.931556 13.89442,5.917865 13.894516,5.868293 13.894615,5.848731 13.894648,5.842923 13.893816,5.671773 13.894547,5.567743 13.894716,5.556465 13.894538,5.52024 13.894459,5.516035 13.89468,5.51483 13.893953,5.402262 13.893105,5.356973 13.892878,5.352328 13.891778,5.33315 13.891105,5.328716 13.890812,5.30885 13.890701,5.303788 13.890479,5.293289 13.889897,5.242695 13.83841,5.241224 13.827912,5.241002 13.822849,5.240888 13.802984,5.240595 13.798551,5.239923 13.774725,5.238594 13.729439,5.237747 13.726944,5.238039 13.719209,5.237919 13.655737,5.237569 13.575234,5.236984 13.563959,5.237153 13.459928,5.237886 13.288779,5.237054 13.282969,5.237085 13.263408,5.237185 13.213837,5.237282 13.200146,5.060454 13.1937,5.042226 13.20683,4.88866 13.213735,4.790422 13.216709,4.764489 13.216709,3.106889 13.214981,3.09064 13.211632,3.070776 13.195081,2.878519 13.185684,2.728864 13.378865,2.72888 13.44279,2.728958 13.459627,2.728915 13.56322,2.728925 13.910197,2.728915 13.91034,2.633463 14.099223,2.633463 14.2432,2.633802 14.242973,2.697896 14.243266,2.76598 14.242851,2.823659 14.341278,2.823831 14.367212,2.823911 16.024811,2.823911 16.041061,2.823961 16.164904,2.823992 16.16485,2.764409 16.164944,2.697896 16.164678,2.694776 16.16461,2.633891 16.294364,2.63359 16.295565,2.633383" style="fill: white" /><polygon type="contour" points="2.837336,2.63359 2.96709,2.633891 2.966757,2.697896 2.966757,2.762236 2.96685,2.764408 2.966796,2.823992 3.090639,2.823961 3.106886,2.823911 4.764488,2.823911 4.790421,2.823831 4.888848,2.823659 4.888435,2.765981 4.888728,2.762236 4.888728,2.697897 4.88852,2.694777 4.8885,2.633802 5.032476,2.633463 5.22136,2.633463 5.221537,2.728913 5.480088,2.728939 5.575484,2.72908 5.684289,2.729111 5.904096,2.728884 5.904828,2.728885 5.907199,2.728883 5.913954,2.728881 5.913176,2.737757 5.948853,2.881438 5.924986,3.073466 5.916718,3.09064 5.914992,3.106888 5.914992,4.764489 5.917964,4.790422 5.924869,4.88866 5.938,5.042226 5.931554,5.060454 5.917863,5.237282 5.868291,5.237185 5.84873,5.237085 5.842921,5.237054 5.671772,5.237886 5.567741,5.237154 5.556464,5.236984 5.520237,5.237164 5.516032,5.237242 5.514828,5.237021 5.402258,5.237747 5.356971,5.238594 5.352327,5.238821 5.333147,5.239923 5.328714,5.240595 5.308847,5.240889 5.303788,5.241001 5.293287,5.241224 5.241794,5.242695 5.241221,5.29329 5.241,5.303788 5.240887,5.30885 5.240592,5.328716 5.23992,5.333149 5.238818,5.352328 5.238592,5.356973 5.237745,5.402262 5.238037,5.404758 5.237917,5.41249 5.237567,5.475963 5.236982,5.556466 5.237151,5.567742 5.237884,5.671773 5.237052,5.842922 5.237083,5.848731 5.237183,5.868293 5.23728,5.917865 5.060453,5.931556 5.042224,5.938001 4.888659,5.924871 4.790421,5.917966 4.764487,5.914994 3.106886,5.914994 3.09064,5.916721 2.966792,5.925656 2.878517,5.936621 2.72895,5.94601 2.728878,5.752836 2.728956,5.688909 2.728913,5.671805 2.728923,5.568481 2.728913,5.221504 2.633461,5.221362 2.633461,5.032479 2.6338,4.888502 2.697895,4.888731 2.765978,4.888435 2.823658,4.888849 2.82383,4.790422 2.823909,4.764489 2.823909,3.106888 2.82396,3.09064 2.82399,2.966798 2.764407,2.966851 2.697895,2.966758 2.694776,2.967023 2.6338,2.967002 2.633933,2.832055 2.633593,2.680246 2.633593,2.633595 2.836133,2.633384" style="fill: white" /><polygon type="contour" points="2.966792,13.206048 3.09064,13.214983 3.106886,13.21671 4.764488,13.21671 4.790421,13.213736 4.888659,13.206831 5.042223,13.193702 5.060453,13.200148 5.23728,13.213839 5.237183,13.26341 5.237083,13.282971 5.237052,13.288781 5.237884,13.459931 5.237152,13.563959 5.236982,13.575236 5.237567,13.655739 5.237916,13.719212 5.238037,13.726946 5.237745,13.729442 5.238592,13.774729 5.238819,13.779374 5.239921,13.798554 5.240593,13.802987 5.240886,13.822852 5.241,13.827915 5.241222,13.838412 5.241794,13.888995 5.293287,13.890479 5.303787,13.890702 5.308848,13.890814 5.328713,13.891108 5.333146,13.89178 5.356971,13.893108 5.402258,13.893955 5.404755,13.893665 5.412488,13.893784 5.475961,13.894133 5.556464,13.894719 5.567741,13.89455 5.671772,13.893817 5.842921,13.89465 5.84873,13.894618 5.868291,13.894519 5.917863,13.894422 5.931554,14.071249 5.938,14.089478 5.924869,14.243042 5.917964,14.34128 5.914992,14.367215 5.914992,16.024815 5.916717,16.041062 5.924986,16.058239 5.948853,16.250267 5.913179,16.393934 5.913947,16.402819 5.907201,16.402815 5.904828,16.402815 5.904096,16.402818 5.684289,16.402592 5.575484,16.402623 5.480088,16.402763 5.221502,16.402788 5.22136,16.498241 5.032476,16.498242 4.8885,16.497903 4.888727,16.433806 4.888435,16.365721 4.888848,16.308044 4.790422,16.307872 4.764488,16.307793 3.106886,16.307793 3.090639,16.307743 2.966796,16.307711 2.96685,16.367296 2.966757,16.433805 2.967022,16.436926 2.96709,16.497812 2.837337,16.498113 2.836134,16.49832 2.633593,16.498107 2.633593,16.451458 2.633932,16.29965 2.6338,16.1647 2.697896,16.164946 2.762234,16.164946 2.764406,16.164853 2.82399,16.164906 2.82396,16.041063 2.823909,16.024815 2.823909,14.367214 2.82383,14.341279 2.823658,14.242852 2.765979,14.243269 2.762235,14.242974 2.697896,14.242974 2.694776,14.24318 2.6338,14.243202 2.633461,14.099224 2.633461,13.910341 2.728911,13.910165 2.728937,13.651612 2.729078,13.556216 2.729109,13.447412 2.728883,13.227606 2.728884,13.226875 2.728881,13.224503 2.728879,13.21774 2.737339,13.218629 2.881436,13.182849" style="fill: white" />
</svg>
