<svg width="19.131698" height="19.131699">
<polygon type="contour" points="10.586526,8.502382 10.629513,8.502189 10.629215,8.581134 10.629157,8.658278 10.629322,8.789733 10.462632,8.789733 10.462668,8.850371 10.462991,8.927917 10.366037,8.927902 10.30026,8.927902 10.231226,8.927917 10.203782,8.927917 10.2038,8.850371 10.2038,8.789847 10.203782,8.703765 10.203782,8.668711 10.226774,8.668707 10.342231,8.669237 10.343118,8.591666 10.343534,8.570947 10.343534,8.535855 10.344315,8.500003" style="fill: white" /><polygon type="contour" points="8.928094,9.358197 8.928094,9.754315 8.927916,9.821964 8.927916,9.849007 8.850369,9.848735 8.789844,9.848735 8.703764,9.849007 8.668709,9.849007 8.668721,9.82617 8.668503,9.711981 8.590852,9.711102 8.501204,9.711102 8.502018,9.657475 8.501133,9.565502 8.502018,9.473971 8.501204,9.420602 8.590853,9.420602 8.66859,9.419722 8.668581,9.358197 8.668709,9.282697 8.765662,9.282969 8.831438,9.282969 8.900471,9.282697 8.927916,9.282697" style="fill: white" /><polygon type="contour" points="8.787941,8.525881 8.788167,8.535855 8.788581,8.591665 8.788581,8.669069 8.850369,8.669034 8.927916,8.668711 8.9279,8.765664 8.9279,8.83144 8.927916,8.900474 8.927916,8.927917 8.850369,8.927902 8.789844,8.927902 8.703764,8.927917 8.668709,8.927917 8.668705,8.904924 8.669234,8.789733 8.502375,8.789733 8.502541,8.658278 8.502485,8.581135 8.502187,8.502189 8.545173,8.502382 8.787386,8.500003" style="fill: white" /><polygon type="contour" points="9.643226,8.501964 9.711101,8.502291 9.711101,8.590854 9.711981,8.668592 9.773505,8.668583 9.849006,8.668711 9.848733,8.765664 9.848733,8.831439 9.849006,8.900473 9.849006,8.927917 9.773505,8.928096 9.377386,8.928096 9.309736,8.927917 9.282694,8.927917 9.282967,8.850371 9.282967,8.789846 9.282694,8.703765 9.282694,8.668711 9.30553,8.668723 9.4206,8.668503 9.4206,8.502291 9.477126,8.502033 9.565501,8.501606" style="fill: white" /><polygon type="contour" points="9.848814,9.358197 9.848814,9.754316 9.849006,9.821964 9.849006,9.849007 9.773505,9.848815 9.377386,9.848815 9.309735,9.849007 9.282694,9.849007 9.282886,9.773506 9.282886,9.377387 9.282694,9.309739 9.282694,9.282697 9.358196,9.282889 9.754315,9.282889 9.821963,9.282697 9.849006,9.282697" style="fill: white" /><polygon type="contour" points="10.462978,9.305534 10.463196,9.419723 10.540846,9.420602 10.630496,9.420602 10.629682,9.474228 10.630567,9.566201 10.629682,9.657732 10.630496,9.711102 10.540847,9.711102 10.463109,9.711982 10.463119,9.773506 10.462991,9.849007 10.366037,9.848735 10.30026,9.848735 10.231226,9.849007 10.203782,9.849007 10.203606,9.773506 10.203606,9.377387 10.203782,9.309739 10.203782,9.282697 10.281329,9.282969 10.341854,9.282969 10.427936,9.282697 10.462991,9.282697" style="fill: white" /><polygon type="contour" points="10.462995,10.226777 10.462465,10.341969 10.629322,10.341969 10.629157,10.473424 10.629215,10.550569 10.629513,10.629515 10.586526,10.629322 10.344315,10.631701 10.34376,10.605822 10.343534,10.595848 10.343119,10.540037 10.343119,10.462634 10.281329,10.46267 10.203782,10.462993 10.2038,10.366038 10.2038,10.300261 10.203782,10.231228 10.203782,10.203785 10.281328,10.203802 10.341853,10.203802 10.427936,10.203785 10.462991,10.203785" style="fill: white" /><polygon type="contour" points="9.821964,10.203785 9.849006,10.203785 9.848733,10.281331 9.848733,10.341856 9.849006,10.427937 9.849006,10.462993 9.826168,10.46298 9.711101,10.4632 9.711101,10.629411 9.6543,10.629671 9.5655,10.630098 9.488147,10.629737 9.4206,10.629197 9.4206,10.463111 9.358195,10.463121 9.282694,10.462993 9.282967,10.366037 9.282967,10.300262 9.282694,10.231228 9.282694,10.203785 9.358195,10.203608 9.754314,10.203608" style="fill: white" /><polygon type="contour" points="8.9279,10.281331 8.9279,10.341856 8.927916,10.427938 8.927916,10.462993 8.904922,10.462997 8.789468,10.462466 8.788581,10.540037 8.788167,10.560756 8.788167,10.595849 8.787386,10.631701 8.545173,10.629321 8.502187,10.629515 8.502485,10.550568 8.502541,10.473424 8.502375,10.341969 8.669067,10.341969 8.669032,10.281331 8.668709,10.203785 8.765662,10.203802 8.831437,10.203802 8.900472,10.203785 8.927916,10.203785" style="fill: white" />
</svg>
