<svg width="19.131698" height="19.131699">
<polygon type="contour" points="10.891771,10.743017 10.892143,10.892145 10.870284,10.891527 10.620842,10.894759 10.620466,10.882461 10.620466,10.870653 10.62041,10.869562 10.619669,10.744615 10.618814,10.618815 10.892274,10.618815" style="fill: white" /><polygon type="contour" points="9.839115,9.839117 9.292585,9.839117 9.292585,9.292588 9.839115,9.292588" style="fill: white" /><polygon type="contour" points="9.838318,10.141566 9.838325,10.231075 9.838198,10.318749 9.838175,10.335964 9.293522,10.335964 9.293498,10.318749 9.293374,10.231004 9.293383,10.141567 9.293383,10.126528 9.838318,10.126528" style="fill: white" /><polygon type="contour" points="9.005174,10.141567 9.004807,10.230819 9.004901,10.232991 9.005875,10.33603 8.909663,10.336513 8.898711,10.336513 8.795153,10.335964 8.79508,10.247469 8.79519,10.23299 8.79519,10.222108 8.79508,10.126595 8.896449,10.126864 8.90018,10.126864 8.90018,10.126897 9.005174,10.126528" style="fill: white" /><polygon type="contour" points="9.005875,10.618247 9.005174,10.634614 9.005174,10.724569 8.900184,10.724469 8.900184,10.724475 8.811471,10.724374 8.795154,10.724376 8.795154,10.618093 8.812599,10.618093 8.90018,10.618084 8.900181,10.618084 8.90912,10.618083" style="fill: white" /><polygon type="contour" points="8.512886,10.636868 8.512031,10.744615 8.51129,10.853611 8.51129,10.869562 8.511234,10.882461 8.511163,10.883755 8.510858,10.894759 8.261415,10.891527 8.239557,10.892145 8.239988,10.876327 8.240354,10.857926 8.24047,10.850628 8.239714,10.618816 8.308787,10.618816 8.46638,10.618815 8.512886,10.618815" style="fill: white" /><polygon type="contour" points="8.423712,10.126595 8.513454,10.126595 8.513454,10.141716 8.513619,10.223506 8.513619,10.223907 8.513609,10.335964 8.407327,10.335964 8.407227,10.23299 8.40723,10.227232 8.407164,10.140698 8.407134,10.126528" style="fill: white" /><polygon type="contour" points="8.511234,8.249243 8.511234,8.26105 8.51129,8.262141 8.512031,8.387088 8.512886,8.512889 8.239424,8.512889 8.239929,8.388686 8.239557,8.239559 8.261415,8.240177 8.510858,8.236946" style="fill: white" /><polygon type="contour" points="8.513466,8.810476 8.513619,8.900182 8.513619,8.900183 8.513627,8.904937 8.513454,9.005877 8.497086,9.005177 8.407134,9.005177 8.407233,8.900186 8.407228,8.900186 8.407328,8.811472 8.407326,8.795155 8.495413,8.792663 8.513466,8.792663" style="fill: white" /><polygon type="contour" points="8.37429,9.292382 8.512793,9.292592 8.512886,9.733931 8.512886,9.840333 8.388043,9.839552 8.374291,9.839321 8.264059,9.839434 8.239228,9.839434 8.237441,9.598783 8.23726,9.591487 8.237103,9.582979 8.236831,9.577594 8.236693,9.565502 8.236831,9.553458 8.237103,9.548088 8.237261,9.539602 8.237441,9.532324 8.239228,9.29227 8.264059,9.29227" style="fill: white" /><polygon type="contour" points="9.005174,9.293385 9.005174,9.838319 8.990134,9.838319 8.900162,9.838327 8.89871,9.838394 8.795154,9.838998 8.795154,9.293523 8.812366,9.2935 8.900705,9.293376" style="fill: white" /><polygon type="contour" points="9.004901,8.898713 9.004838,8.900181 9.004838,8.90958 9.005174,9.005177 8.990134,9.005177 8.900882,9.00481 8.89871,9.004904 8.79508,9.005877 8.79508,8.989985 8.79519,8.908233 8.79519,8.898712 8.795154,8.795155 8.812599,8.795155 8.90018,8.795192 8.909662,8.795192 9.005875,8.795082" style="fill: white" /><polygon type="contour" points="9.005875,8.423713 9.005875,8.513457 8.989983,8.513457 8.90425,8.513627 8.792662,8.513468 8.792662,8.495415 8.795154,8.407328 8.858383,8.407266 8.871751,8.407254 8.898711,8.407228 8.904438,8.407231 8.991004,8.407165 9.005174,8.407134" style="fill: white" /><polygon type="contour" points="9.566199,8.236698 9.583611,8.237106 9.592098,8.237264 9.599376,8.237444 9.61494,8.237634 9.839438,8.239306 9.83955,8.388045 9.84033,8.512889 9.521565,8.51257 9.292667,8.51257 9.292612,8.474033 9.292336,8.320449 9.292263,8.239306 9.517313,8.237635 9.532918,8.237443 9.540213,8.237263 9.548721,8.237106 9.558063,8.23668" style="fill: white" /><polygon type="contour" points="10.870284,8.240177 10.892142,8.239559 10.891711,8.255376 10.891345,8.273777 10.891229,8.281075 10.891984,8.512888 10.822911,8.512888 10.665319,8.512889 10.618814,8.512889 10.618814,8.494835 10.619668,8.387088 10.62041,8.278092 10.62041,8.26214 10.620466,8.249244 10.620537,8.247948 10.620842,8.236946" style="fill: white" /><polygon type="contour" points="10.706693,8.795155 10.724374,8.795155 10.724474,8.898713 10.72447,8.904471 10.724537,8.991005 10.724567,9.005176 10.707988,9.005877 10.618246,9.005877 10.618246,8.989985 10.618074,8.904266 10.618234,8.792663" style="fill: white" /><polygon type="contour" points="10.231516,8.407234 10.231516,8.407229 10.319636,8.407331 10.335963,8.407328 10.335963,8.425009 10.339038,8.513468 10.321226,8.513468 10.226795,8.513628 10.126593,8.513457 10.126526,8.49709 10.126526,8.407135" style="fill: white" /><polygon type="contour" points="9.838197,8.812368 9.838325,8.900631 9.838318,8.990137 9.838318,9.005177 9.293383,9.005177 9.293383,8.990136 9.293374,8.900702 9.293499,8.812367 9.293522,8.795155 9.838995,8.795155" style="fill: white" /><polygon type="contour" points="10.222106,8.795192 10.232988,8.795192 10.335963,8.795155 10.336046,8.908234 10.336511,8.908234 10.336511,8.909664 10.336029,9.005877 10.232989,9.004904 10.231519,9.004841 10.22212,9.004841 10.126526,9.005177 10.126526,8.990137 10.126896,8.900182 10.126863,8.900182 10.126869,8.898713 10.126593,8.795082" style="fill: white" /><polygon type="contour" points="10.335963,9.293523 10.335963,9.838178 10.318748,9.838201 10.231005,9.838327 10.126526,9.838318 10.126526,9.293385 10.141565,9.293385 10.230981,9.293376 10.23103,9.293376" style="fill: white" /><polygon type="contour" points="10.894259,9.53292 10.894439,9.540216 10.894598,9.548724 10.894869,9.55411 10.895008,9.566202 10.894869,9.578244 10.894598,9.583615 10.894439,9.592101 10.894259,9.599379 10.892472,9.839434 10.86764,9.839434 10.757409,9.839321 10.618906,9.839112 10.618906,9.292592 10.757409,9.292382 10.86764,9.29227 10.892472,9.29227" style="fill: white" /><polygon type="contour" points="10.634613,10.126528 10.724567,10.126528 10.724467,10.231518 10.724473,10.231518 10.724372,10.319637 10.724374,10.335964 10.618091,10.335964 10.618091,10.318517 10.618081,10.22347 10.618081,10.222581 10.618246,10.125828" style="fill: white" /><polygon type="contour" points="10.336029,10.141716 10.336511,10.223469 10.336537,10.227986 10.335963,10.335964 10.318516,10.335964 10.227317,10.336539 10.125826,10.33603 10.1268,10.232991 10.126863,10.231522 10.126863,10.222122 10.126526,10.126528 10.141565,10.126528 10.230817,10.126894 10.232989,10.126801 10.336029,10.125828" style="fill: white" /><polygon type="contour" points="10.335963,10.618093 10.335963,10.724376 10.272266,10.724437 10.262082,10.724447 10.232988,10.724476 10.227261,10.724472 10.140695,10.724538 10.126526,10.724569 10.125826,10.70799 10.125826,10.618247 10.141714,10.618247 10.223867,10.618083" style="fill: white" /><polygon type="contour" points="9.839181,10.670318 9.839438,10.83651 9.839438,10.892398 9.614385,10.894069 9.598781,10.894261 9.591486,10.894441 9.582978,10.894599 9.573637,10.895025 9.5655,10.895007 9.548088,10.8946 9.539599,10.89444 9.532323,10.894261 9.516758,10.894068 9.292263,10.892398 9.292263,10.83651 9.292593,10.618971 9.839107,10.618971" style="fill: white" />
</svg>
