<svg width="19.131698" height="19.131699">
<polygon type="contour" points="3.660327,3.384846 3.718179,3.38498 3.717718,3.473367 3.717718,3.562218 3.717847,3.565215 3.717838,3.57504 3.717838,3.717839 3.575038,3.717839 3.565213,3.717848 3.473366,3.717719 3.469058,3.718085 3.384854,3.718057 3.385038,3.531701 3.384851,3.447928 3.384851,3.384853 3.658701,3.384567" style="fill: white" /><polygon type="contour" points="4.226496,3.575168 4.226676,3.656857 4.226676,3.718011 4.152783,3.71778 4.030811,3.71778 4.030811,3.574981 4.139728,3.574892" style="fill: white" /><polygon type="contour" points="4.114613,4.030977 4.226676,4.030977 4.226676,4.114615 4.226496,4.226498 4.129675,4.226498 4.030975,4.226678 4.030811,4.152784 4.030811,4.030812" style="fill: white" /><polygon type="contour" points="3.717779,4.152785 3.71801,4.226678 3.645957,4.226498 3.575166,4.226498 3.575211,4.114613 3.57498,4.030812 3.717779,4.030812" style="fill: white" /><polygon type="contour" points="4.22672,5.790448 4.226904,5.802587 4.226518,5.817036 4.226641,5.833551 4.22657,5.849738 4.226606,6.005601 4.226628,6.014341 4.22672,6.023761 4.226701,6.025633 4.226441,6.034234 4.226626,6.048169 4.030822,6.048169 4.03111,6.033564 4.030807,6.024228 4.031329,6.0218 4.03118,6.012242 4.030845,5.96928 4.030961,5.95379 4.031186,5.845838 4.031259,5.830832 4.031138,5.814797 4.031276,5.802587 4.031318,5.788534 4.031149,5.778103 4.031145,5.639598 4.163586,5.639598 4.226563,5.639566" style="fill: white" /><polygon type="contour" points="4.226496,5.227527 4.226563,5.394967 4.103401,5.394967 4.031145,5.394925 4.031263,5.271892 4.030975,5.062348 4.114613,5.062348 4.226496,5.062345" style="fill: white" /><polygon type="contour" points="3.656856,5.062348 3.71801,5.062348 3.717827,5.178302 3.717916,5.39463 3.575115,5.39463 3.575264,5.271892 3.575166,5.062345" style="fill: white" /><polygon type="contour" points="3.575114,5.63952 3.696827,5.63952 3.717998,5.639499 3.717812,5.773304 3.71809,5.781302 3.717913,5.791864 3.717904,5.802914 3.717975,5.805602 3.718123,5.817036 3.718199,5.820289 3.718044,5.835935 3.718041,5.849738 3.717822,6.006935 3.717912,6.007713 3.717961,6.017252 3.717685,6.018972 3.717847,6.0325 3.71782,6.035885 3.7177,6.048302 3.615697,6.048302 3.575012,6.048237 3.575355,6.034884 3.57507,6.025395 3.574855,6.022954 3.574135,5.971962 3.519136,5.972956 3.480069,5.972772 3.471407,5.972734 3.469521,5.972699 3.384672,5.972573 3.384672,5.717189 3.384854,5.639557 3.473365,5.639872 3.567385,5.639465" style="fill: white" /><polygon type="contour" points="3.624768,6.494228 3.71785,6.494228 3.717828,6.532284 3.717908,6.59527 3.654784,6.595271 3.575108,6.595271 3.575427,6.553508 3.575295,6.493985" style="fill: white" /><polygon type="contour" points="4.226534,6.532284 4.226707,6.595271 4.140374,6.59527 4.031406,6.59527 4.031289,6.553794 4.031128,6.494228 4.226428,6.494228" style="fill: white" /><polygon type="contour" points="4.226996,7.802253 4.226713,7.962044 4.226912,8.186328 4.227091,8.666805 4.22718,8.722288 4.226762,9.119197 4.226596,9.295321 4.226596,9.746942 4.226762,9.930413 4.227011,10.408038 4.226929,10.463364 4.226814,10.943307 4.226821,11.1045 4.227061,11.279698 4.227036,11.489817 4.226978,11.665745 4.03119,11.665745 4.031108,11.479706 4.031128,11.155542 4.031114,10.490126 4.031198,10.438564 4.031147,10.281246 4.031076,10.226794 4.031127,9.594834 4.031127,9.075969 4.03129,8.898599 4.031329,8.732521 4.031237,8.678145 4.031007,8.201429 4.030904,7.847816 4.031138,7.717381 4.03119,7.465959 4.226978,7.465959" style="fill: white" /><polygon type="contour" points="3.661973,7.466145 3.717984,7.466145 3.717944,7.595201 3.717896,7.767831 3.717982,7.854551 3.717982,9.46517 3.717926,9.566201 3.717923,9.594702 3.717857,9.665953 3.717857,11.280086 3.71786,11.433479 3.717984,11.66556 3.661973,11.66556 3.479773,11.665744 3.479726,11.394513 3.47993,11.255216 3.479981,9.820625 3.479721,9.61931 3.479708,9.498864 3.479831,8.915413 3.479947,8.73162 3.480005,8.600724 3.479889,8.549269 3.479888,8.113151 3.480233,7.916408 3.480284,7.642831 3.48026,7.465959" style="fill: white" /><polygon type="contour" points="3.717832,7.049372 3.718043,7.123971 3.718134,7.150057 3.575336,7.150057 3.575156,7.085185 3.575019,7.048915 3.620574,7.048896" style="fill: white" /><polygon type="contour" points="4.226711,7.128813 4.226715,7.150057 4.031415,7.150057 4.031209,7.085633 4.031053,7.049372 4.16454,7.049372 4.22699,7.049325" style="fill: white" /><polygon type="contour" points="5.870055,7.049458 5.870275,7.132323 5.870335,7.13255 5.870328,7.150057 5.701641,7.150057 5.639567,7.149974 5.639379,7.087122 5.639379,7.049368 5.790423,7.049368" style="fill: white" /><polygon type="contour" points="5.871068,7.471806 5.871611,7.656139 5.872348,7.898564 5.872581,7.9907 5.872501,8.037787 5.872551,8.107317 5.873208,8.302317 5.873479,8.349903 5.873893,8.454496 5.874646,8.742288 5.874924,9.07835 5.875025,9.109781 5.875113,9.133172 5.876185,9.540654 5.876185,9.559962 5.876194,9.562341 5.876311,9.563729 5.876311,9.566201 5.876194,9.569998 5.876185,9.572369 5.876185,9.591675 5.875112,9.998531 5.875025,10.021923 5.874646,10.389414 5.873893,10.677208 5.873479,10.7818 5.873208,10.829386 5.872551,11.024386 5.872501,11.093916 5.872581,11.141003 5.872348,11.233139 5.871611,11.475564 5.871525,11.547932 5.871178,11.654405 5.87115,11.665745 5.639761,11.665745 5.639846,11.490359 5.63977,11.309317 5.639678,11.143171 5.63972,10.947428 5.639529,10.466426 5.63965,10.410787 5.639643,9.958406 5.639622,9.92218 5.639622,9.188426 5.639643,9.152594 5.639895,8.719549 5.639765,8.663755 5.639865,8.182236 5.639753,7.973205 5.639822,7.810756 5.639761,7.465959 5.87115,7.465959" style="fill: white" /><polygon type="contour" points="5.394936,7.486728 5.394936,7.561372 5.395054,7.625617 5.394676,7.867461 5.394439,7.912025 5.394679,8.076802 5.394313,8.107318 5.39446,8.141001 5.394784,8.410819 5.394744,8.784691 5.39482,8.828881 5.39482,9.681014 5.395064,9.98323 5.394962,10.349757 5.395011,10.416514 5.39491,10.450352 5.394659,10.845741 5.394426,11.023978 5.394598,11.108901 5.394439,11.219678 5.395056,11.506085 5.394936,11.570329 5.394936,11.644975 5.394944,11.665745 5.062444,11.665745 5.06245,11.650747 5.06245,11.535544 5.06257,11.454919 5.062243,11.180533 5.062033,11.134377 5.061835,11.024759 5.061777,11.022136 5.062073,10.828514 5.062073,9.808865 5.062698,9.795887 5.062398,9.464003 5.061777,9.401381 5.062661,9.376612 5.06184,9.059855 5.061653,8.744664 5.062416,8.621094 5.061831,8.241415 5.06214,8.108035 5.062033,7.997328 5.06257,7.676783 5.06245,7.596159 5.06245,7.480956 5.062444,7.465959 5.394944,7.465959" style="fill: white" /><polygon type="contour" points="5.186678,7.049368 5.394641,7.049368 5.39482,7.118963 5.39482,7.149974 5.16461,7.149974 5.062456,7.150057 5.062303,7.085633 5.062199,7.049325" style="fill: white" /><polygon type="contour" points="5.394785,6.532285 5.394571,6.595504 5.253156,6.595504 5.06232,6.59527 5.062476,6.553795 5.062417,6.494228 5.394917,6.494228" style="fill: white" /><polygon type="contour" points="5.868581,6.532285 5.868902,6.59527 5.756888,6.59527 5.639589,6.595504 5.639591,6.555694 5.639594,6.494228 5.730197,6.493949 5.868739,6.493949" style="fill: white" /><polygon type="contour" points="6.595503,5.747362 6.595269,5.868904 6.55292,5.869105 6.493948,5.868741 6.493948,5.730199 6.494227,5.639597 6.532282,5.639595 6.595503,5.639591" style="fill: white" /><polygon type="contour" points="7.118962,5.639569 7.149972,5.639569 7.149972,5.804835 7.150055,5.870329 7.088672,5.870168 7.082054,5.870264 7.049456,5.870057 7.049456,5.682378 7.049366,5.639381" style="fill: white" /><polygon type="contour" points="7.128811,5.062392 7.150055,5.062457 7.150055,5.297429 7.149972,5.394821 7.08712,5.394642 7.049366,5.394642 7.049366,5.186679 7.049323,5.062201" style="fill: white" /><polygon type="contour" points="6.595269,5.062322 6.595269,5.209301 6.595503,5.394572 6.555693,5.394709 6.494227,5.39492 6.494227,5.062419 6.532282,5.062288" style="fill: white" /><polygon type="contour" points="6.048304,5.343415 6.048304,5.395047 6.043248,5.395216 6.042585,5.395192 6.030778,5.394817 6.024597,5.395139 6.020289,5.395375 6.019689,5.394738 5.860864,5.394945 5.849735,5.394915 5.841463,5.395146 5.830004,5.394641 5.817135,5.39488 5.801785,5.395111 5.786353,5.394685 5.639415,5.39463 5.639565,5.271893 5.639565,5.062208 5.786353,5.062184 5.801785,5.062611 5.816693,5.062627 5.830003,5.062141 5.841463,5.062647 5.851696,5.062513 5.860864,5.062445 5.869729,5.062181 5.877838,5.062084 5.881736,5.062249 5.885963,5.062416 5.894805,5.062358 5.901769,5.062208 5.908993,5.06226 5.914366,5.06232 6.017656,5.061714 6.048887,5.061684" style="fill: white" /><polygon type="contour" points="6.048528,5.75762 6.048018,5.785297 6.048001,5.867201 6.037211,5.867072 6.028901,5.86725 6.006653,5.867588 6.005326,5.86757 5.986607,5.867318 5.980167,5.867438 5.945547,5.867409 5.943345,5.867193 5.916536,5.867342 5.867229,5.869263 5.867408,5.945547 5.867437,5.980168 5.867316,5.986609 5.867568,6.005173 5.86751,6.028976 5.86707,6.037211 5.8672,6.048002 5.782937,6.047675 5.755114,6.04806 5.639444,6.048141 5.63956,6.041658 5.639534,6.039569 5.639573,6.028913 5.639666,6.016988 5.63948,6.016557 5.639621,5.867199 5.639542,5.849738 5.639544,5.835935 5.639698,5.820289 5.639622,5.805681 5.639377,5.792289 5.639589,5.781303 5.639685,5.773937 5.639504,5.76949 5.639535,5.768507 5.639482,5.767244 5.639451,5.746824 5.639585,5.739856 5.639509,5.733206 5.639418,5.726991 5.639476,5.721459 5.639532,5.719264 5.639444,5.716855 5.639517,5.715457 5.639519,5.63952 5.712072,5.639454 5.712706,5.639453 5.715268,5.63943 5.718832,5.639551 5.723975,5.639458 5.729832,5.639512 5.73633,5.639453 5.737678,5.639529 5.74307,5.639471 5.745117,5.639376 5.750082,5.639452 5.757107,5.639415 5.760498,5.639472 5.763857,5.63953 5.766705,5.639405 5.766994,5.639447 5.773301,5.639593 5.781301,5.639591 5.792287,5.639379 5.80568,5.639623 5.820289,5.6397 5.835933,5.639545 5.849736,5.639544 5.867198,5.639624 6.016332,5.639727 6.018512,5.639623 6.020667,5.639446 6.025085,5.639876 6.03056,5.639833 6.035917,5.639667 6.040038,5.639174 6.048166,5.639157" style="fill: white" /><polygon type="contour" points="5.395141,5.781451 5.394684,5.786354 5.395109,5.801785 5.395126,5.816696 5.39464,5.830005 5.395145,5.841465 5.394914,5.849738 5.394943,5.860865 5.39529,6.019491 5.394367,6.019764 5.394182,6.048888 5.061682,6.048888 5.061722,6.044092 5.061976,6.035738 5.061821,6.030528 5.062024,6.025777 5.061937,6.021382 5.061937,6.018362 5.062179,5.866476 5.062179,5.86358 5.062607,5.854382 5.061863,5.844767 5.06268,5.833069 5.062498,5.820741 5.062181,5.806505 5.062208,5.639566 5.160331,5.639417 5.394628,5.639417" style="fill: white" /><polygon type="contour" points="5.394628,5.160334 5.394628,5.39463 5.271892,5.394967 5.062208,5.394967 5.062208,5.271892 5.062343,5.062345 5.227525,5.062345 5.394966,5.062209" style="fill: white" /><polygon type="contour" points="5.271891,4.031265 5.394924,4.031147 5.394966,4.103403 5.394966,4.226565 5.271892,4.226565 5.062343,4.226498 5.062343,4.129677 5.062346,4.030977" style="fill: white" /><polygon type="contour" points="5.394628,3.717917 5.271891,3.718066 5.062346,3.718011 5.062346,3.656858 5.062343,3.575168 5.271892,3.575266 5.394628,3.575116" style="fill: white" /><polygon type="contour" points="5.972731,3.471408 5.97277,3.48007 5.972732,3.519115 5.9723,3.574365 6.022876,3.575064 6.025394,3.575071 6.035022,3.575081 6.048167,3.574926 6.048604,3.664245 6.048604,3.71789 6.036031,3.71789 6.032736,3.71784 6.01586,3.717991 6.00591,3.718175 5.997329,3.718101 5.833067,3.717928 5.792062,3.717985 5.791916,3.718054 5.766704,3.717906 5.639501,3.717847 5.639501,3.606866 5.639519,3.575115 5.639463,3.567387 5.639869,3.562218 5.639869,3.473367 5.639582,3.469059 5.639554,3.384856 5.717186,3.384674 5.97257,3.384674" style="fill: white" /><polygon type="contour" points="6.031523,4.031111 6.035237,4.031122 6.048167,4.030823 6.048167,4.226627 6.035156,4.226422 6.031931,4.226411 6.020785,4.226638 6.016987,4.22663 5.868283,4.226604 5.8533,4.226657 5.837979,4.226811 5.822336,4.226498 5.807667,4.226637 5.794098,4.226585 5.639565,4.226565 5.639597,4.163587 5.639597,4.031147 5.794098,4.031284 5.807667,4.031337 5.822336,4.031198 5.837978,4.031156 5.853301,4.031357 5.866473,4.031304 5.975325,4.031096 6.019925,4.030809" style="fill: white" /><polygon type="contour" points="6.532282,4.031234 6.595269,4.031407 6.595269,4.226708 6.553793,4.226591 6.494227,4.22643 6.494227,4.03113" style="fill: white" /><polygon type="contour" points="6.595269,3.575109 6.595269,3.71791 6.553793,3.717941 6.494227,3.717852 6.493983,3.668378 6.493983,3.575296 6.532282,3.57503" style="fill: white" /><polygon type="contour" points="7.132321,3.575258 7.150055,3.575337 7.150055,3.718136 7.085632,3.717958 7.04937,3.717833 7.048893,3.620576 7.048911,3.57502" style="fill: white" /><polygon type="contour" points="7.123968,4.0313 7.150055,4.031417 7.150055,4.226716 7.085631,4.22696 7.049323,4.226992 7.04937,4.164542 7.04937,4.031054" style="fill: white" /><polygon type="contour" points="8.201428,4.031007 8.678144,4.031238 8.73252,4.03133 8.922148,4.031175 9.075966,4.031129 9.625219,4.031077 10.226791,4.031077 10.281244,4.03115 10.438562,4.0312 10.490125,4.031116 10.94582,4.030935 11.15554,4.03113 11.479705,4.03111 11.665744,4.031192 11.665744,4.226979 11.489816,4.227037 11.279697,4.227064 11.104498,4.226823 10.943306,4.226815 10.463362,4.226929 10.408037,4.227012 9.930412,4.226765 9.746941,4.226599 9.295319,4.226599 9.119196,4.226765 8.722286,4.227182 8.666802,4.227092 8.186327,4.226915 7.962043,4.226716 7.802251,4.226997 7.465957,4.226979 7.465957,4.031192 7.717379,4.03114 7.847815,4.030906" style="fill: white" /><polygon type="contour" points="10.947425,5.63972 11.143169,5.63968 11.309315,5.639771 11.490358,5.639847 11.665744,5.639763 11.665744,5.871152 11.6514,5.87115 11.413009,5.871884 11.355852,5.872029 11.303466,5.872079 11.072677,5.872625 11.022799,5.87287 10.760398,5.873581 10.431443,5.874017 10.206,5.874535 10.11305,5.874832 10.064348,5.874924 10.032505,5.875027 9.619716,5.876114 9.61098,5.876114 9.591672,5.876187 9.572365,5.876187 9.569995,5.876197 9.56863,5.876314 9.566198,5.876314 9.562338,5.876197 9.559958,5.876187 9.540652,5.876187 9.13317,5.875114 9.109779,5.875027 8.95749,5.874634 8.785975,5.874132 8.734349,5.874117 8.371301,5.873581 8.108899,5.87287 7.990698,5.872583 7.775847,5.872029 7.718691,5.871884 7.480299,5.87115 7.465957,5.871152 7.465957,5.639763 7.810753,5.639823 7.973204,5.639755 8.182235,5.639865 8.663753,5.639767 8.719549,5.639897 9.152593,5.639644 9.188422,5.639623 9.922177,5.639623 9.958403,5.639645 10.410786,5.639651 10.466425,5.639532" style="fill: white" /><polygon type="contour" points="11.024757,5.061836 11.134374,5.062034 11.454918,5.062572 11.535543,5.062452 11.650746,5.062452 11.665744,5.062446 11.665744,5.394946 11.644889,5.395314 11.570328,5.394938 11.506084,5.395058 11.26424,5.394678 11.219676,5.394439 11.108899,5.394599 11.023976,5.394427 10.845739,5.39466 10.811618,5.394795 10.416513,5.395013 10.349754,5.394964 9.983227,5.395065 9.244458,5.395065 8.82888,5.394821 8.78469,5.394746 8.410817,5.394786 8.141,5.394461 8.107315,5.394314 8.076801,5.39468 7.912024,5.394439 7.625617,5.395058 7.56137,5.394938 7.486726,5.394938 7.465957,5.394946 7.465957,5.062446 7.480953,5.062452 7.596156,5.062452 7.676782,5.062572 7.951168,5.062245 7.997325,5.062035 8.108034,5.06214 8.241415,5.061833 8.621091,5.062416 8.797492,5.06267 9.403126,5.06267 9.483355,5.061804 9.68678,5.06198 10.104848,5.062899 10.209019,5.061942 10.520033,5.062701 10.703298,5.062401 11.022135,5.061779" style="fill: white" /><polygon type="contour" points="15.746848,3.384853 15.746848,3.447928 15.746659,3.531702 15.746846,3.718057 15.658333,3.717719 15.569486,3.717719 15.566486,3.717848 15.556661,3.717839 15.413862,3.717839 15.413862,3.575039 15.413854,3.565216 15.413984,3.473367 15.413616,3.46906 15.413522,3.38498 15.471373,3.384846 15.472998,3.384567" style="fill: white" /><polygon type="contour" points="15.100889,3.71778 15.017087,3.718011 14.905024,3.718011 14.905024,3.656857 14.905204,3.575168 15.017086,3.575213 15.100889,3.574981" style="fill: white" /><polygon type="contour" points="15.100724,4.114615 15.100724,4.226678 15.017086,4.226678 14.905204,4.226498 14.905204,4.129677 14.905024,4.030977 14.978915,4.030812 15.100889,4.030812" style="fill: white" /><polygon type="contour" points="15.556813,4.13973 15.556535,4.226498 15.474843,4.226678 15.41369,4.226678 15.41392,4.152784 15.41392,4.030812 15.556722,4.030812" style="fill: white" /><polygon type="contour" points="15.651598,8.069475 15.6515,9.337057 15.651659,9.341831 15.651696,9.394034 15.651757,9.501937 15.651905,9.96627 15.651886,10.137351 15.651848,10.40646 15.651954,10.461393 15.651899,10.937504 15.651769,11.255215 15.651401,11.394513 15.651439,11.665745 15.469727,11.66556 15.413715,11.66556 15.413839,11.433479 15.413844,11.280086 15.413844,9.665953 15.413777,9.594702 15.413775,9.566201 15.413805,9.422557 15.413805,7.767831 15.413755,7.595201 15.413715,7.466145 15.469727,7.466145 15.651927,7.465959" style="fill: white" /><polygon type="contour" points="15.100562,7.717382 15.100795,7.847815 15.100693,8.201429 15.100463,8.678145 15.100122,8.732521 15.100318,8.92215 15.100574,9.075969 15.100624,9.625221 15.100624,10.226794 15.100549,10.281246 15.100256,10.438563 15.100584,10.490127 15.100765,10.945822 15.100571,11.155542 15.10059,11.479706 15.100509,11.665745 14.904722,11.665745 14.904662,11.489816 14.904636,11.279698 14.904879,11.104501 14.904887,10.943307 14.904772,10.463364 14.904689,10.408037 14.904936,9.930413 14.905103,9.746942 14.905103,9.295321 14.904936,9.119197 14.90452,8.722288 14.904608,8.666805 14.904787,8.186328 14.904986,7.962044 14.904703,7.802253 14.904722,7.465959 15.100509,7.465959" style="fill: white" /><polygon type="contour" points="15.556681,7.048915 15.556442,7.132323 15.556364,7.150057 15.413563,7.150057 15.413743,7.085633 15.413868,7.049372 15.511123,7.048896" style="fill: white" /><polygon type="contour" points="14.967158,7.049372 15.100647,7.049372 15.100401,7.123971 15.100285,7.150057 14.904985,7.150057 14.904739,7.085633 14.904709,7.049325" style="fill: white" /><polygon type="contour" points="15.100466,6.532284 15.100295,6.59527 14.904994,6.59527 14.90511,6.553794 14.905272,6.494228 15.100572,6.494228" style="fill: white" /><polygon type="contour" points="15.556672,6.532285 15.556592,6.595271 15.476914,6.595271 15.413791,6.59527 15.413761,6.553794 15.413849,6.494228 15.463322,6.493985 15.556404,6.493985" style="fill: white" /><polygon type="contour" points="15.569487,5.639872 15.658333,5.639872 15.662642,5.639585 15.746846,5.639557 15.747028,5.717189 15.747028,5.972573 15.660293,5.972734 15.651629,5.972772 15.612563,5.972956 15.557547,5.971961 15.556845,6.022954 15.55663,6.025395 15.556341,6.034884 15.556684,6.048237 15.516,6.048302 15.413999,6.048302 15.413879,6.035806 15.413932,6.032419 15.413626,6.020636 15.413999,6.020465 15.413774,5.833068 15.413692,5.820397 15.413501,5.819604 15.413708,5.780746 15.413544,5.780562 15.413845,5.770318 15.413854,5.639502 15.524835,5.639502 15.556586,5.63952 15.564314,5.639465" style="fill: white" /><polygon type="contour" points="15.556436,5.271892 15.556585,5.39463 15.413784,5.39463 15.413635,5.271892 15.41369,5.062348 15.474843,5.062348 15.556535,5.062345" style="fill: white" /><polygon type="contour" points="15.100724,5.062348 15.100436,5.271892 15.100555,5.394925 15.028298,5.394967 14.905137,5.394967 14.905137,5.271892 14.905204,5.062345 15.002022,5.062345" style="fill: white" /><polygon type="contour" points="14.968113,5.639598 15.100555,5.639598 15.10055,5.778104 15.100264,5.788175 15.100252,5.800662 15.100482,5.817036 15.100307,5.830355 15.100514,5.845839 15.100428,5.849737 15.100643,5.957719 15.100855,5.96928 15.10052,6.012242 15.100371,6.0218 15.100894,6.024227 15.10059,6.033564 15.100878,6.048169 14.905075,6.048169 14.90526,6.034234 14.905001,6.025633 14.904979,6.023762 14.90507,6.014342 14.905092,6.005126 14.905129,5.849019 14.905275,5.833068 14.905183,5.817036 14.905125,5.802587 14.90498,5.790447 14.905059,5.780932 14.905137,5.639566" style="fill: white" /><polygon type="contour" points="13.111617,5.061963 13.111812,5.061748 13.112149,5.062153 13.265226,5.062181 13.270835,5.062445 13.280003,5.062512 13.290237,5.062646 13.301697,5.062141 13.314563,5.062038 13.329915,5.062611 13.345346,5.062184 13.492134,5.062208 13.492285,5.160334 13.492285,5.39463 13.354105,5.395097 13.345345,5.394685 13.340994,5.394528 13.329115,5.394634 13.315005,5.395128 13.301697,5.394641 13.290237,5.395146 13.281963,5.394915 13.270835,5.394945 13.11201,5.394738 13.111409,5.395375 13.103984,5.394983 13.089716,5.395224 13.089113,5.395191 13.088448,5.395215 13.083394,5.395047 13.083394,5.343415 13.082812,5.061684" style="fill: white" /><polygon type="contour" points="13.095782,5.639667 13.101139,5.639833 13.106615,5.639876 13.111033,5.639446 13.113187,5.639623 13.115366,5.639727 13.264501,5.639624 13.279838,5.639503 13.295766,5.639545 13.31141,5.6397 13.32602,5.639624 13.339412,5.639378 13.350399,5.639591 13.358398,5.639593 13.362212,5.639505 13.363194,5.639536 13.381613,5.639547 13.386583,5.639376 13.388629,5.639471 13.394021,5.639529 13.395369,5.639453 13.401064,5.639493 13.407279,5.639439 13.412437,5.639534 13.416431,5.63943 13.418994,5.639453 13.492181,5.63952 13.492183,5.715457 13.492256,5.716855 13.492167,5.719264 13.492223,5.721459 13.492282,5.726991 13.49219,5.733206 13.492116,5.739856 13.492249,5.746825 13.492217,5.767245 13.492165,5.768508 13.492196,5.769489 13.492016,5.773938 13.492077,5.780931 13.492324,5.792289 13.492077,5.805682 13.492,5.82029 13.492157,5.835935 13.492197,5.852223 13.492078,5.866476 13.492225,6.02111 13.491825,6.024823 13.491868,6.030562 13.492165,6.03952 13.492255,6.04814 13.376584,6.048059 13.348761,6.047675 13.264452,6.048019 13.264472,6.040192 13.26463,6.037212 13.26419,6.028976 13.264103,6.023225 13.264103,6.021579 13.264119,6.016116 13.264441,6.007792 13.264065,6.006254 13.264134,6.005989 13.264385,5.98661 13.264263,5.980168 13.264292,5.945548 13.264675,5.943936 13.26436,5.916538 13.262438,5.867232 13.186151,5.867409 13.151531,5.867438 13.145091,5.867318 13.12631,5.867555 13.124535,5.86716 13.116183,5.867243 13.109252,5.867268 13.103098,5.86725 13.094626,5.867072 13.083699,5.867201 13.083681,5.785297 13.083172,5.757621 13.083172,5.639278 13.091661,5.639174" style="fill: white" /><polygon type="contour" points="12.576005,5.639593 12.637474,5.639597 12.637753,5.730199 12.637753,5.868741 12.599417,5.868584 12.536432,5.868904 12.536432,5.756889 12.536196,5.639591" style="fill: white" /><polygon type="contour" points="12.082334,5.790425 12.082244,5.870057 11.999377,5.870277 11.981644,5.87033 11.981644,5.701643 11.981728,5.639569 12.044579,5.639381 12.082334,5.639381" style="fill: white" /><polygon type="contour" points="12.082334,5.186679 12.082334,5.394642 12.012736,5.394821 11.981728,5.394821 11.981728,5.164611 11.981644,5.062457 12.046067,5.062305 12.082377,5.062201" style="fill: white" /><polygon type="contour" points="12.577907,5.062478 12.637474,5.062419 12.637474,5.39492 12.599416,5.394788 12.536196,5.394572 12.536196,5.253156 12.536431,5.062322" style="fill: white" /><polygon type="contour" points="12.578192,3.575429 12.637718,3.575296 12.637474,3.624769 12.637474,3.717852 12.599417,3.717829 12.536432,3.71791 12.536432,3.654785 12.53643,3.575109" style="fill: white" /><polygon type="contour" points="11.665744,3.479775 11.665558,3.661974 11.665558,3.717986 11.433477,3.717862 11.280084,3.717858 9.66595,3.717858 9.594699,3.717924 9.465166,3.717983 7.854549,3.717983 7.767829,3.717897 7.595199,3.717946 7.466143,3.717986 7.466143,3.661974 7.465957,3.480262 7.737188,3.4803 7.874842,3.480214 8.190746,3.480044 8.670309,3.479747 8.912831,3.479722 9.165642,3.479709 9.374712,3.479783 9.39025,3.479771 9.578556,3.47977 9.633237,3.479796 10.216373,3.479943 10.400081,3.47995 10.530976,3.480006 10.582433,3.479891 11.021521,3.480136 11.215294,3.479718 11.488872,3.479677" style="fill: white" /><polygon type="contour" points="12.082807,3.620577 12.08233,3.717833 12.007731,3.718045 11.981644,3.718136 11.981644,3.575337 12.046516,3.575157 12.082788,3.575021" style="fill: white" /><polygon type="contour" points="12.08233,4.164542 12.082377,4.226992 12.002888,4.226712 11.981644,4.226716 11.981644,4.031417 12.046067,4.031212 12.08233,4.031054" style="fill: white" /><polygon type="contour" points="12.637474,4.22643 12.599417,4.226536 12.536432,4.226708 12.536432,4.031407 12.577907,4.031291 12.637474,4.03113" style="fill: white" /><polygon type="contour" points="13.156374,4.031095 13.265226,4.031304 13.278398,4.031357 13.293718,4.031157 13.309364,4.031199 13.324033,4.031337 13.337601,4.031283 13.492103,4.031147 13.492103,4.163588 13.492134,4.226565 13.337602,4.226584 13.324033,4.226637 13.309364,4.226499 13.293719,4.226811 13.278398,4.226657 13.263416,4.226604 13.114712,4.22663 13.110915,4.226638 13.099769,4.226411 13.096543,4.226422 13.083534,4.226628 13.083534,4.030823 13.096543,4.031041 13.100177,4.031111 13.111776,4.030809" style="fill: white" /><polygon type="contour" points="13.492146,3.384856 13.491831,3.473367 13.492237,3.567386 13.492181,3.575116 13.492181,3.69683 13.492203,3.717999 13.357763,3.717905 13.350768,3.717826 13.339839,3.717914 13.328787,3.717906 13.3261,3.717976 13.314664,3.718124 13.31141,3.7182 13.295766,3.718045 13.279479,3.717644 13.101737,3.717815 13.098735,3.717915 13.095595,3.71789 13.083097,3.71789 13.083097,3.57509 13.096676,3.575081 13.106306,3.575071 13.108747,3.574857 13.159739,3.574136 13.158746,3.519136 13.158931,3.48007 13.158968,3.471408 13.159002,3.469523 13.159128,3.384674 13.414514,3.384674" style="fill: white" /><polygon type="contour" points="13.859808,3.575266 14.069358,3.575168 14.069353,3.656858 14.069353,3.718011 13.859809,3.718066 13.737072,3.717917 13.737072,3.575116" style="fill: white" /><polygon type="contour" points="14.069353,4.114615 14.069358,4.226498 13.904175,4.226498 13.736734,4.226564 13.736776,4.163588 13.736776,4.031147 13.859808,4.031265 14.069353,4.030977" style="fill: white" /><polygon type="contour" points="14.069358,5.062345 14.069358,5.227527 14.069491,5.394967 13.971365,5.39463 13.737072,5.39463 13.736734,5.271892 13.736734,5.062209 13.859809,5.062209" style="fill: white" /><polygon type="contour" points="14.069491,5.639566 14.068962,5.791073 14.069518,5.806505 14.069199,5.82074 14.069019,5.833069 14.069836,5.844767 14.06945,5.853661 14.06952,5.86358 14.06952,5.872265 14.069352,5.880152 14.069739,5.888247 14.069343,5.894807 14.069865,5.903913 14.069401,5.910948 14.069976,6.04587 14.070017,6.048888 13.737519,6.048888 13.737213,6.01973 13.736409,6.019491 13.736757,5.860865 13.736786,5.849738 13.736556,5.841464 13.73671,5.830356 13.736573,5.816695 13.737067,5.802586 13.737016,5.786354 13.737072,5.639417 13.971366,5.639417" style="fill: white" /><polygon type="contour" points="14.069413,6.532285 14.06938,6.595271 13.922398,6.59527 13.737129,6.595504 13.736992,6.555694 13.736782,6.494228 14.069282,6.494228" style="fill: white" /><polygon type="contour" points="13.492105,6.494228 13.492108,6.532284 13.492111,6.595504 13.384339,6.595504 13.262798,6.59527 13.262598,6.552922 13.262962,6.49395 13.401505,6.49395" style="fill: white" /><polygon type="contour" points="13.492131,7.118963 13.492131,7.149974 13.326866,7.149974 13.261371,7.150057 13.261532,7.088733 13.261436,7.082057 13.261644,7.049458 13.449324,7.049458 13.492322,7.049368" style="fill: white" /><polygon type="contour" points="14.069309,7.128813 14.069245,7.150057 13.834271,7.150057 13.73688,7.149974 13.73706,7.087121 13.73706,7.049368 13.945022,7.049368 14.069501,7.049325" style="fill: white" /><polygon type="contour" points="14.06925,7.480956 14.06925,7.596159 14.069131,7.676784 14.069457,7.951171 14.069667,7.997328 14.06956,8.108034 14.069868,8.241416 14.069283,8.621094 14.069032,8.797493 14.069032,9.403128 14.069898,9.483356 14.069721,9.686782 14.068802,10.10485 14.069759,10.209021 14.069001,10.520034 14.0693,10.703301 14.069923,11.022136 14.069866,11.024759 14.069667,11.134376 14.069131,11.454919 14.06925,11.535544 14.06925,11.650747 14.069255,11.665745 13.736756,11.665745 13.736764,11.644975 13.736764,11.570329 13.736644,11.506086 13.737025,11.264242 13.737262,11.219677 13.737102,11.108901 13.737274,11.023979 13.73704,10.84574 13.736905,10.81162 13.736686,10.416514 13.736737,10.349757 13.736637,9.98323 13.736637,9.24446 13.73688,8.828881 13.736956,8.784692 13.736915,8.410818 13.73724,8.141001 13.737387,8.107317 13.737022,8.076803 13.737262,7.912025 13.736643,7.625618 13.736764,7.561373 13.736764,7.486728 13.736756,7.465959 14.069255,7.465959" style="fill: white" /><polygon type="contour" points="13.491877,7.810756 13.491946,7.973205 13.491836,8.182236 13.491934,8.663755 13.491804,8.719549 13.492055,9.152595 13.492077,9.188425 13.492077,9.92218 13.492055,9.958405 13.49205,10.410787 13.492171,10.466426 13.491981,10.947427 13.492021,11.143172 13.491929,11.309317 13.491854,11.490359 13.491937,11.665745 13.26055,11.665745 13.260552,11.651402 13.259818,11.413011 13.259673,11.355854 13.259625,11.303469 13.259077,11.072679 13.258831,11.022802 13.258122,10.760401 13.257685,10.431445 13.257165,10.206001 13.256869,10.088748 13.256777,10.06435 13.256674,10.032507 13.255589,9.619718 13.255589,9.610983 13.255516,9.591675 13.255516,9.572369 13.255506,9.569999 13.255389,9.568631 13.255389,9.566201 13.255505,9.562341 13.255516,9.559961 13.255516,9.540655 13.256585,9.133172 13.256673,9.109781 13.257066,8.957492 13.257569,8.785977 13.257583,8.734351 13.258122,8.371302 13.25883,8.108901 13.259119,7.9907 13.259673,7.775849 13.259818,7.718692 13.260552,7.480301 13.26055,7.465959 13.491938,7.465959" style="fill: white" /><polygon type="contour" points="11.665558,15.469729 11.665744,15.651441 11.488871,15.651416 11.215294,15.651466 10.582432,15.651814 10.531237,15.651698 10.40033,15.651753 10.216288,15.65187 10.162265,15.651789 9.947592,15.651783 9.39025,15.651933 9.374712,15.651921 9.165642,15.651995 8.994554,15.651889 8.725495,15.651849 8.67031,15.651957 8.194198,15.651901 7.876486,15.651771 7.737188,15.651975 7.465957,15.651928 7.466143,15.469729 7.466143,15.413718 7.572114,15.413755 7.767829,15.413807 7.85455,15.41372 9.465167,15.41372 9.566198,15.413776 9.594698,15.413779 9.66595,15.413846 11.280084,15.413846 11.433477,15.413842 11.665558,15.413718" style="fill: white" /><polygon type="contour" points="12.046068,15.413744 12.08233,15.413869 12.082807,15.511125 12.082788,15.556683 11.999378,15.556445 11.981644,15.556368 11.981644,15.413566" style="fill: white" /><polygon type="contour" points="12.08233,14.96716 12.08233,15.10065 12.00773,15.100403 11.981644,15.100287 11.981644,14.904988 12.046068,14.904743 12.082377,14.904711" style="fill: white" /><polygon type="contour" points="12.577906,14.905112 12.637474,14.905273 12.637474,15.100573 12.599417,15.100467 12.536432,15.100296 12.536432,14.904997" style="fill: white" /><polygon type="contour" points="12.637474,15.41385 12.637718,15.463323 12.637718,15.556408 12.599417,15.556674 12.536432,15.556594 12.536432,15.413792 12.577907,15.413762" style="fill: white" /><polygon type="contour" points="13.298634,15.413776 13.339321,15.413719 13.339468,15.41365 13.364994,15.413798 13.492199,15.413857 13.492199,15.524836 13.492181,15.556586 13.492237,15.564316 13.491831,15.569488 13.491831,15.658334 13.492114,15.662644 13.492146,15.746848 13.414514,15.74703 13.159128,15.74703 13.158967,15.660294 13.158931,15.651633 13.158968,15.612587 13.159397,15.557543 13.108746,15.556846 13.106305,15.556631 13.096677,15.556622 13.083097,15.556614 13.083097,15.413814 13.095595,15.413813 13.098887,15.413863 13.115601,15.413713 13.124543,15.413789 13.134368,15.413602" style="fill: white" /><polygon type="contour" points="13.492134,14.905139 13.492103,14.968115 13.492103,15.100556 13.348973,15.100378 13.337601,15.10042 13.324033,15.100367 13.309364,15.100505 13.293718,15.100547 13.278399,15.100346 13.265226,15.100399 13.156374,15.100608 13.111776,15.100895 13.100177,15.100593 13.096462,15.100581 13.083534,15.10088 13.083534,14.905077 13.096462,14.905282 13.100177,14.905294 13.111775,14.905068 13.115916,14.905074 13.265226,14.9051 13.278398,14.905047 13.293719,14.904894 13.309363,14.905205 13.324033,14.905067 13.337602,14.905119 13.348973,14.904779" style="fill: white" /><polygon type="contour" points="14.069358,14.905206 14.069358,15.002025 14.069353,15.100727 13.859808,15.100439 13.736776,15.100557 13.736734,15.0283 13.736734,14.905139 13.859809,14.905139" style="fill: white" /><polygon type="contour" points="14.069353,15.413691 14.069353,15.474845 14.069358,15.556536 13.859809,15.556437 13.737072,15.556586 13.737072,15.413787 13.859809,15.413637" style="fill: white" /><polygon type="contour" points="15.746846,15.413646 15.74666,15.600002 15.746848,15.683776 15.746848,15.746849 15.472997,15.747137 15.471372,15.746857 15.413522,15.746723 15.413982,15.658335 15.413982,15.569489 15.413854,15.566486 15.413862,15.556663 15.413862,15.413865 15.556661,15.413865 15.566486,15.413856 15.658333,15.413985 15.662642,15.413618" style="fill: white" /><polygon type="contour" points="14.978915,15.413923 15.100889,15.413923 15.100889,15.556723 14.991971,15.556814 14.905203,15.556536 14.905024,15.474846 14.905024,15.413692" style="fill: white" /><polygon type="contour" points="15.100889,14.978916 15.100889,15.100891 15.017086,15.100727 14.905024,15.100727 14.905024,15.017089 14.905204,14.905207 15.002022,14.905207 15.100724,14.905025" style="fill: white" /><polygon type="contour" points="15.485742,14.905207 15.556535,14.905207 15.55649,15.017089 15.556721,15.100891 15.467855,15.100891 15.41392,15.100892 15.41369,15.01709 15.41369,14.905025" style="fill: white" /><polygon type="contour" points="15.100489,12.046069 15.100647,12.082332 14.967158,12.082332 14.904709,12.082379 14.904989,12.00289 14.904985,11.981646 15.100285,11.981646" style="fill: white" /><polygon type="contour" points="15.556543,12.046517 15.556681,12.082789 15.511123,12.082808 15.413868,12.082332 15.413654,12.007732 15.413563,11.981646 15.556364,11.981646" style="fill: white" /><polygon type="contour" points="15.556273,12.578196 15.556405,12.637719 15.506932,12.637476 15.413849,12.637476 15.413871,12.599419 15.413791,12.536434 15.556592,12.536434" style="fill: white" /><polygon type="contour" points="15.100411,12.577909 15.100572,12.637476 14.905272,12.637476 14.905166,12.599419 14.904994,12.536434 15.100295,12.536434" style="fill: white" /><polygon type="contour" points="15.10059,13.098139 15.100894,13.107476 15.100371,13.109903 15.10052,13.119461 15.100855,13.162424 15.100738,13.177911 15.100514,13.285863 15.10044,13.301221 15.100562,13.316905 15.100252,13.33104 15.100264,13.343527 15.10055,13.353599 15.100555,13.492106 14.968113,13.492106 14.905137,13.492138 14.905173,13.341308 14.905125,13.329116 14.905183,13.314668 14.905058,13.298151 14.905128,13.282684 14.905092,13.126577 14.90507,13.117361 14.904979,13.107941 14.905001,13.10607 14.90526,13.097469 14.905075,13.083535 15.100878,13.083535" style="fill: white" /><polygon type="contour" points="15.556619,13.096678 15.55663,13.106309 15.556845,13.108747 15.557564,13.159739 15.612563,13.158748 15.651629,13.158932 15.660293,13.15897 15.662178,13.159004 15.747028,13.15913 15.747028,13.414514 15.746846,13.492147 15.658333,13.491832 15.564314,13.49224 15.556585,13.492184 15.434872,13.492184 15.413702,13.492206 15.413927,13.363196 15.413797,13.357765 15.413874,13.350771 15.413787,13.33984 15.413795,13.32879 15.413724,13.326101 15.413577,13.314668 15.413501,13.311413 15.413657,13.295768 15.413657,13.281965 15.413874,13.126938 15.414846,13.117627 15.413742,13.114298 15.413924,13.111203 15.413586,13.099087 15.413533,13.095783 15.413885,13.083467 15.456473,13.083535 15.556611,13.083099" style="fill: white" /><polygon type="contour" points="15.556436,13.859812 15.556535,14.06936 15.474843,14.069356 15.41369,14.069355 15.413873,13.9534 15.413784,13.737074 15.556586,13.737074" style="fill: white" /><polygon type="contour" points="15.100555,13.736779 15.100436,13.859811 15.100724,14.069355 15.017087,14.069355 14.905204,14.069359 14.905204,13.904176 14.905137,13.736737 15.028298,13.736737" style="fill: white" /><polygon type="contour" points="14.069491,13.85981 14.069358,14.069359 13.904174,14.069359 13.736734,14.069494 13.737072,13.971368 13.737072,13.737074 13.859809,13.736737 14.069491,13.736737" style="fill: white" /><polygon type="contour" points="14.069977,13.087609 14.069724,13.095966 14.069879,13.101174 14.069728,13.104963 14.069764,13.110321 14.069764,13.113341 14.06952,13.265228 14.06952,13.268123 14.06909,13.27732 14.069836,13.286938 14.069275,13.298151 14.0692,13.310962 14.069517,13.325197 14.06949,13.492138 13.971365,13.492288 13.737072,13.492288 13.73656,13.350252 13.737016,13.345348 13.736591,13.329918 13.736573,13.315007 13.737059,13.301697 13.736556,13.29024 13.736786,13.281965 13.736757,13.270839 13.736409,13.112209 13.737363,13.11193 13.737519,13.082814 14.070017,13.082814" style="fill: white" /><polygon type="contour" points="13.492131,11.981729 13.492322,12.04458 13.492322,12.082336 13.341275,12.082336 13.261644,12.082246 13.261424,11.999379 13.261372,11.981646 13.430057,11.981646" style="fill: white" /><polygon type="contour" points="14.069396,12.046069 14.069501,12.082379 13.945022,12.082336 13.73706,12.082336 13.73688,12.01274 13.73688,11.981729 13.96709,11.981729 14.069245,11.981646" style="fill: white" /><polygon type="contour" points="14.06938,12.536434 14.069223,12.577909 14.069282,12.637476 13.736782,12.637476 13.736911,12.599419 13.737129,12.536199 13.878543,12.536199" style="fill: white" /><polygon type="contour" points="13.492107,12.576007 13.492105,12.637475 13.401503,12.637754 13.262962,12.637754 13.26312,12.599419 13.262799,12.536434 13.374811,12.536434 13.492111,12.536199" style="fill: white" /><polygon type="contour" points="13.492139,13.090046 13.492166,13.092134 13.492126,13.102791 13.492034,13.114714 13.492221,13.115145 13.492078,13.264504 13.492197,13.279481 13.492157,13.295768 13.492,13.311413 13.492077,13.326021 13.492324,13.339414 13.49211,13.350401 13.492015,13.357764 13.492196,13.362213 13.492164,13.363196 13.492218,13.364459 13.492249,13.384878 13.492116,13.391847 13.49219,13.398497 13.492282,13.404712 13.492223,13.410244 13.492167,13.41244 13.492256,13.414848 13.492183,13.416246 13.492181,13.492184 13.419628,13.49225 13.416909,13.492151 13.412867,13.492151 13.407725,13.492246 13.401866,13.492193 13.395368,13.492251 13.394021,13.492176 13.388629,13.492233 13.386582,13.492328 13.381617,13.492252 13.374591,13.49229 13.3712,13.492232 13.367842,13.492175 13.364995,13.492299 13.364705,13.492256 13.358398,13.492111 13.350399,13.492113 13.339412,13.492326 13.326019,13.49208 13.31141,13.492004 13.295765,13.492159 13.279838,13.4922 13.264501,13.49208 13.115366,13.491976 13.113187,13.49208 13.111032,13.492257 13.106615,13.491826 13.101139,13.491869 13.095782,13.492035 13.09166,13.49253 13.083534,13.492547 13.083172,13.374081 13.083682,13.346406 13.083699,13.264503 13.094488,13.264632 13.102798,13.264453 13.108608,13.264365 13.110271,13.264365 13.115793,13.264382 13.123972,13.264427 13.125445,13.264066 13.125723,13.264139 13.14509,13.264387 13.151532,13.264265 13.186152,13.264295 13.188355,13.264511 13.215163,13.264362 13.26447,13.26245 13.264292,13.186154 13.26425,13.136183 13.263838,13.135771 13.263944,13.135662 13.264174,13.109264 13.26419,13.102727 13.26463,13.094492 13.2645,13.083702 13.348761,13.084029 13.376585,13.083643 13.492256,13.083562" style="fill: white" /><polygon type="contour" points="12.637753,13.262963 12.637753,13.401506 12.637474,13.492107 12.599417,13.492108 12.536196,13.492113 12.536196,13.38434 12.536432,13.2628 12.57878,13.262599" style="fill: white" /><polygon type="contour" points="13.11201,13.736965 13.270835,13.73676 13.280003,13.736691 13.290238,13.736558 13.301696,13.737062 13.315006,13.736576 13.329114,13.737069 13.345346,13.737018 13.492285,13.737074 13.492134,13.859811 13.492134,14.069494 13.340995,14.069674 13.329115,14.06957 13.314563,14.069665 13.301697,14.069563 13.290237,14.069057 13.281963,14.069287 13.270836,14.069257 13.261968,14.069522 13.253861,14.069619 13.249963,14.069453 13.245735,14.069287 13.23784,14.069508 13.229931,14.069494 13.222707,14.069443 13.217333,14.069382 13.114043,14.069988 13.082812,14.070019 13.083394,13.788286 13.083394,13.736654 13.088449,13.736487 13.089113,13.736511 13.100921,13.736887 13.107102,13.736564 13.111409,13.736329" style="fill: white" /><polygon type="contour" points="12.637474,14.069283 12.599416,14.069415 12.536432,14.069382 12.536432,13.922401 12.536196,13.737132 12.576004,13.736996 12.637474,13.736784" style="fill: white" /><polygon type="contour" points="12.04458,13.737063 12.082334,13.737063 12.082334,13.945025 12.082377,14.069504 12.002887,14.069309 11.981644,14.069246 11.981644,13.834274 11.981728,13.736883" style="fill: white" /><polygon type="contour" points="12.047718,13.261547 12.047852,13.261463 12.082244,13.261645 12.082244,13.449325 12.082334,13.492323 12.012737,13.492133 11.981728,13.492133 11.981728,13.326867 11.981644,13.261374" style="fill: white" /><polygon type="contour" points="9.569995,13.255507 9.572365,13.255517 9.591672,13.255517 9.998529,13.256586 10.021921,13.256675 10.389413,13.257056 10.677205,13.257805 10.781798,13.258221 10.829382,13.258494 11.024383,13.25915 11.093914,13.259201 11.141001,13.25912 11.233137,13.259354 11.475561,13.260088 11.547931,13.260176 11.654404,13.260523 11.665744,13.260551 11.665744,13.491941 11.490359,13.491856 11.309315,13.491933 11.143169,13.492023 10.947425,13.491983 10.466425,13.492173 10.410786,13.492052 9.958403,13.492057 9.922177,13.492079 9.188422,13.492079 9.152593,13.492057 8.719549,13.491806 8.663753,13.491936 8.182235,13.491838 7.973204,13.491949 7.810753,13.49188 7.465957,13.491941 7.465957,13.260551 7.471806,13.260632 7.656138,13.260088 7.898562,13.259354 7.990698,13.25912 8.037785,13.259201 8.107316,13.25915 8.302316,13.258492 8.349901,13.258219 8.454493,13.257805 8.742287,13.257056 9.078349,13.256779 9.109779,13.256674 9.133171,13.256585 9.540651,13.255517 9.559958,13.255517 9.562338,13.255507 9.563727,13.25539 9.566199,13.25539" style="fill: white" /><polygon type="contour" points="9.119196,14.904938 9.295319,14.905105 9.746941,14.905105 9.930412,14.904939 10.408037,14.904692 10.463362,14.904774 10.943306,14.904889 11.104498,14.904881 11.279698,14.904639 11.489815,14.904665 11.665744,14.904725 11.665744,15.100512 11.479705,15.100593 11.15554,15.100574 10.490125,15.100587 10.438561,15.100259 10.281244,15.100552 10.226791,15.100627 9.594833,15.100575 9.075967,15.100575 8.898598,15.100412 8.73252,15.100125 8.678144,15.100466 8.201428,15.100695 7.847815,15.100796 7.717379,15.100563 7.465957,15.100513 7.465957,14.904725 7.802251,14.904706 7.962043,14.904988 8.186326,14.904789 8.666803,14.90461 8.722286,14.904522" style="fill: white" /><polygon type="contour" points="5.160332,13.737074 5.394628,13.737074 5.394966,13.859811 5.394966,14.069494 5.271891,14.069494 5.062343,14.069359 5.062343,13.904175 5.062208,13.736737" style="fill: white" /><polygon type="contour" points="4.226563,13.85981 4.226496,14.069359 4.129676,14.069359 4.030975,14.069355 4.031263,13.859811 4.031145,13.736779 4.103401,13.736737 4.226563,13.736737" style="fill: white" /><polygon type="contour" points="3.718065,13.859811 3.71801,14.069355 3.656856,14.069356 3.575166,14.06936 3.575264,13.859812 3.575115,13.737074 3.717916,13.737074" style="fill: white" /><polygon type="contour" points="3.717888,13.095671 3.717838,13.098888 3.717467,13.114076 3.717525,13.115604 3.717447,13.124777 3.717511,13.125709 3.717732,13.137389 3.717927,13.298635 3.717664,13.311306 3.717856,13.311756 3.717702,13.338727 3.717913,13.339525 3.717913,13.33984 3.717788,13.350366 3.718025,13.352952 3.71802,13.364274 3.717846,13.492202 3.606864,13.492202 3.575115,13.492184 3.567384,13.49224 3.562215,13.491832 3.473366,13.491832 3.469057,13.492117 3.384854,13.492147 3.384672,13.414514 3.384672,13.15913 3.471407,13.15897 3.480068,13.158932 3.519113,13.15897 3.574157,13.159399 3.574855,13.108748 3.575069,13.106309 3.57508,13.096678 3.575089,13.083099 3.717889,13.083099" style="fill: white" /><polygon type="contour" points="4.226441,13.097469 4.226701,13.106071 4.22672,13.107941 4.226628,13.117361 4.226606,13.126102 4.22657,13.281965 4.226424,13.298634 4.226518,13.314667 4.226653,13.32831 4.22672,13.341257 4.22664,13.350771 4.226563,13.492138 4.163586,13.492106 4.031145,13.492106 4.031149,13.353599 4.031435,13.343528 4.031448,13.331041 4.031138,13.316905 4.031393,13.301347 4.031186,13.285864 4.031271,13.281966 4.031057,13.173984 4.030845,13.162423 4.03118,13.119461 4.031329,13.109903 4.030807,13.107475 4.03111,13.098139 4.030822,13.083535 4.226626,13.083535" style="fill: white" /><polygon type="contour" points="4.226591,12.577908 4.226428,12.637476 4.031128,12.637476 4.031233,12.599419 4.031406,12.536434 4.226707,12.536434" style="fill: white" /><polygon type="contour" points="3.717938,12.577908 3.717849,12.637476 3.668376,12.637719 3.575295,12.637719 3.575028,12.599418 3.575108,12.536434 3.717907,12.536434" style="fill: white" /><polygon type="contour" points="3.717955,12.04607 3.717832,12.082332 3.620574,12.082808 3.575019,12.082789 3.575258,11.999379 3.575336,11.981646 3.718133,11.981646" style="fill: white" /><polygon type="contour" points="4.226958,12.04607 4.226989,12.082379 4.164539,12.082332 4.031053,12.082332 4.031299,12.007733 4.031415,11.981646 4.226715,11.981646" style="fill: white" /><polygon type="contour" points="5.39482,11.981729 5.394641,12.04458 5.394641,12.082336 5.186678,12.082336 5.062199,12.082379 5.06239,12.00289 5.062456,11.981646 5.297428,11.981646" style="fill: white" /><polygon type="contour" points="5.870153,12.047722 5.870236,12.047854 5.870055,12.082246 5.682374,12.082246 5.639379,12.082336 5.639568,12.012739 5.639568,11.981729 5.804834,11.981729 5.870328,11.981646" style="fill: white" /><polygon type="contour" points="5.868902,12.536434 5.869102,12.578781 5.868739,12.637754 5.730196,12.637754 5.639595,12.637476 5.639592,12.599418 5.639589,12.536199 5.74736,12.536199" style="fill: white" /><polygon type="contour" points="5.394707,12.576006 5.394917,12.637476 5.062417,12.637476 5.062286,12.599418 5.06232,12.536434 5.209299,12.536434 5.394571,12.536199" style="fill: white" /><polygon type="contour" points="5.394482,13.111973 5.39529,13.11221 5.394943,13.270839 5.395012,13.280007 5.395145,13.290239 5.39499,13.301348 5.394878,13.314567 5.394632,13.329116 5.394683,13.345348 5.394628,13.492288 5.160332,13.492288 5.062208,13.492138 5.062736,13.34063 5.062181,13.325198 5.062498,13.310962 5.062424,13.298151 5.061863,13.286938 5.062248,13.278041 5.062179,13.268123 5.062179,13.259439 5.062345,13.25155 5.061959,13.243456 5.062262,13.235367 5.061834,13.227791 5.062297,13.220754 5.061722,13.085832 5.061681,13.082814 5.394182,13.082814" style="fill: white" /><polygon type="contour" points="5.755114,13.083644 5.782937,13.084029 5.867247,13.083685 5.867228,13.091512 5.86707,13.094491 5.867509,13.102726 5.867597,13.108477 5.867597,13.110123 5.86758,13.115587 5.867258,13.123911 5.867635,13.125449 5.867563,13.12572 5.867316,13.145093 5.867437,13.151534 5.867408,13.186153 5.867024,13.187768 5.867906,13.264474 5.945547,13.264294 5.980166,13.264265 5.986608,13.264387 5.993212,13.264297 5.995552,13.26384 5.995765,13.264365 6.028901,13.264453 6.037211,13.264632 6.048001,13.264503 6.048018,13.346406 6.048528,13.374082 6.048528,13.492425 6.040039,13.49253 6.035917,13.492035 6.03056,13.491869 6.025084,13.491826 6.020666,13.492257 6.018512,13.49208 6.016332,13.491976 5.867198,13.49208 5.852221,13.4922 5.835933,13.492159 5.820289,13.492004 5.805681,13.49208 5.792288,13.492326 5.7813,13.492112 5.773936,13.492018 5.769488,13.492199 5.768505,13.492168 5.750086,13.492157 5.745116,13.492328 5.74307,13.492233 5.737678,13.492176 5.736331,13.492251 5.729833,13.492192 5.724421,13.492264 5.719261,13.492171 5.715267,13.492274 5.712706,13.492251 5.639519,13.492184 5.639517,13.416246 5.639444,13.414848 5.639532,13.41244 5.639476,13.410244 5.639418,13.404712 5.639509,13.398497 5.639585,13.391847 5.639451,13.384879 5.639482,13.364459 5.639534,13.363196 5.639505,13.362213 5.639591,13.358399 5.639622,13.350771 5.639377,13.339415 5.639622,13.326022 5.639698,13.311414 5.639544,13.295767 5.639542,13.281965 5.639622,13.265229 5.639475,13.110585 5.639874,13.10688 5.639832,13.101141 5.639534,13.092183 5.639444,13.083562" style="fill: white" /><polygon type="contour" points="6.027714,13.73672 6.041982,13.736477 6.042585,13.73651 6.043248,13.736486 6.048304,13.736654 6.048304,13.788287 6.048887,14.07002 6.020004,14.069826 6.019887,14.069954 6.019549,14.069549 5.866473,14.069522 5.860864,14.069258 5.849736,14.069287 5.841463,14.069057 5.830003,14.069563 5.817136,14.069665 5.801784,14.069092 5.639565,14.069494 5.639415,13.971367 5.639415,13.737073 5.773277,13.736952 5.786353,13.737018 5.801785,13.736594 5.817136,13.736824 5.830004,13.737062 5.841462,13.736558 5.849736,13.736789 5.860863,13.73676 6.019689,13.736965 6.020289,13.736329" style="fill: white" /><polygon type="contour" points="6.532283,13.736914 6.595503,13.737132 6.595503,13.878546 6.595268,14.069382 6.553794,14.069225 6.494227,14.069285 6.494227,13.736784" style="fill: white" /><polygon type="contour" points="6.595269,13.374813 6.595503,13.492113 6.555693,13.49211 6.494227,13.492107 6.493948,13.401506 6.493948,13.262963 6.532282,13.263121 6.595269,13.2628" style="fill: white" /><polygon type="contour" points="7.150055,13.261374 7.150055,13.430059 7.149972,13.492133 7.087119,13.492323 7.049366,13.492323 7.049366,13.341276 7.049456,13.261645 7.132322,13.261426 7.132549,13.261366" style="fill: white" /><polygon type="contour" points="7.56137,13.736766 7.625616,13.736647 7.867459,13.737025 7.912023,13.737265 8.076801,13.737024 8.107315,13.737389 8.141,13.737242 8.410816,13.736918 8.78469,13.736959 8.82888,13.736883 9.681012,13.736883 9.983228,13.736638 10.349753,13.736739 10.416513,13.73669 10.450352,13.736791 10.845738,13.737043 11.023976,13.737276 11.108899,13.737105 11.219675,13.737265 11.506084,13.736646 11.570328,13.736766 11.644974,13.736766 11.665744,13.736759 11.665744,14.069258 11.650746,14.069252 11.535543,14.069252 11.454917,14.069134 11.180531,14.069458 11.134374,14.069668 11.024757,14.069867 11.022134,14.069924 10.828512,14.069629 9.808864,14.069629 9.795885,14.069003 9.464001,14.069302 9.401378,14.069923 9.37661,14.06904 9.059854,14.06986 8.744663,14.070048 8.621091,14.069285 8.241414,14.06987 8.108034,14.069561 7.997326,14.069668 7.676782,14.069134 7.596156,14.069252 7.480953,14.069252 7.465957,14.069258 7.465957,13.736759 7.486812,13.73639" style="fill: white" /><polygon type="contour" points="7.149972,13.967091 7.150055,14.069246 7.085632,14.069399 7.049323,14.069504 7.049366,13.945025 7.049366,13.737064 7.118961,13.736884 7.149972,13.736884" style="fill: white" /><polygon type="contour" points="7.128811,14.904992 7.150055,14.904988 7.150055,15.100288 7.085631,15.100493 7.04937,15.100651 7.04937,14.96716 7.049323,14.904711" style="fill: white" /><polygon type="contour" points="7.150055,15.556368 7.085182,15.556546 7.048912,15.556683 7.048894,15.511125 7.04937,15.413869 7.123969,15.413658 7.150055,15.413566" style="fill: white" /><polygon type="contour" points="6.595269,15.556594 6.553506,15.556274 6.493983,15.556408 6.494227,15.506934 6.494227,15.41385 6.532282,15.413872 6.595269,15.413792" style="fill: white" /><polygon type="contour" points="6.595269,15.100296 6.553793,15.100412 6.494227,15.100573 6.494227,14.905274 6.532282,14.905167 6.595269,14.904997" style="fill: white" /><polygon type="contour" points="5.394924,14.968115 5.394924,15.100556 5.271891,15.100438 5.062346,15.100727 5.062346,15.017089 5.062343,14.905207 5.227524,14.905207 5.394966,14.905139" style="fill: white" /><polygon type="contour" points="5.853301,14.905047 5.866473,14.9051 6.015783,14.905074 6.019925,14.905068 6.031523,14.905294 6.035237,14.905281 6.048167,14.905077 6.048167,15.10088 6.035237,15.100581 6.031523,15.100593 6.019925,15.100895 5.975324,15.100608 5.866473,15.100398 5.853301,15.100346 5.837979,15.100547 5.822335,15.100503 5.807667,15.100366 5.794098,15.100419 5.782726,15.100378 5.639597,15.100556 5.639597,14.968116 5.639565,14.905139 5.794098,14.905119 5.807667,14.905067 5.822336,14.905205 5.837978,14.904894" style="fill: white" /><polygon type="contour" points="5.835933,15.413659 5.849735,15.41366 6.005911,15.413529 6.016096,15.413713 6.032812,15.413863 6.036031,15.413813 6.048604,15.413814 6.048604,15.556614 6.035022,15.556622 6.025393,15.556631 6.022877,15.556639 5.972301,15.55736 5.972731,15.612588 5.97277,15.651633 5.972732,15.660295 5.972698,15.66218 5.97257,15.74703 5.717186,15.747032 5.639554,15.746848 5.639869,15.658334 5.639463,15.564315 5.639519,15.556587 5.639519,15.434875 5.639498,15.413705 5.773302,15.413891 5.78093,15.413876 5.791861,15.413788 5.802912,15.413798 5.805601,15.413726 5.817034,15.41358 5.820289,15.413503" style="fill: white" /><polygon type="contour" points="5.394628,15.413787 5.394628,15.556587 5.271892,15.556436 5.062343,15.556536 5.062346,15.474845 5.062346,15.413691 5.271891,15.413637" style="fill: white" /><polygon type="contour" points="4.226676,15.474846 4.226496,15.556536 4.114613,15.556491 4.030811,15.556723 4.030811,15.413923 4.114612,15.413692 4.226676,15.413692" style="fill: white" /><polygon type="contour" points="4.226496,14.905207 4.226496,15.002026 4.226676,15.100727 4.152783,15.100891 4.030811,15.100891 4.030975,15.01709 4.030975,14.905025 4.114612,14.905025" style="fill: white" /><polygon type="contour" points="3.717779,14.978916 3.717779,15.100891 3.57498,15.100891 3.57489,14.991973 3.575165,14.905207 3.656856,14.905025 3.71801,14.905025" style="fill: white" /><polygon type="contour" points="3.473366,15.413985 3.562215,15.413985 3.565214,15.413856 3.575038,15.413865 3.717838,15.413865 3.717838,15.556663 3.717847,15.566488 3.717718,15.658334 3.718084,15.662644 3.718179,15.746723 3.660326,15.746856 3.6587,15.747137 3.384851,15.746849 3.384851,15.683775 3.385038,15.600002 3.384854,15.413646" style="fill: white" />
</svg>
