<svg width="19.131698" height="19.131699">
<polygon type="contour" points="11.486854,7.935932 11.268461,7.939622 11.194531,7.93717 11.198762,7.669121 11.195553,7.645131 11.271289,7.645131 11.486854,7.644847" style="fill: white" /><polygon type="contour" points="12.236575,7.644861 12.345584,7.645085 12.449136,7.645203 12.449136,7.915535 12.449137,7.940161 12.345583,7.940485 12.236576,7.940532 12.099178,7.940054 12.063738,7.940118 12.063738,7.644772" style="fill: white" /><polygon type="contour" points="13.354718,7.644848 13.353736,7.861874 13.351562,7.939154 13.351578,7.940759 13.350485,7.940774 13.350001,7.940782 13.058004,7.936011 13.057809,7.677845 13.057817,7.644959 13.07188,7.644959 13.125548,7.64491 13.225255,7.64491 13.281358,7.644847 13.318184,7.644847" style="fill: white" /><polygon type="contour" points="13.177443,6.699429 13.177227,6.786117 13.177209,6.848312 13.176926,6.895125 13.176889,7.032523 13.176821,7.067964 13.05549,7.067964 13.055126,6.895125 13.055427,6.786117 13.055878,6.699766 13.055878,6.682566 13.177453,6.682566" style="fill: white" /><polygon type="contour" points="13.353905,5.869489 13.352102,5.998076 13.352939,6.075026 13.325026,6.075519 13.321811,6.07561 13.071307,6.073894 13.057809,6.073894 13.057809,6.040623 13.058118,5.77687 13.257354,5.778041 13.357049,5.774654" style="fill: white" /><polygon type="contour" points="12.449137,6.075822 12.431935,6.075822 12.345584,6.076273 12.236576,6.076574 12.063738,6.076212 12.063738,5.954883 12.099179,5.954813 12.236575,5.954775 12.283389,5.954491 12.345583,5.954474 12.432274,5.954259 12.449137,5.954249" style="fill: white" /><polygon type="contour" points="12.431936,6.682566 12.449137,6.682566 12.449499,6.786117 12.449499,6.930552 12.449136,7.067385 12.345584,7.067518 12.236575,7.067812 12.101663,7.067964 12.063738,7.067964 12.063889,6.895126 12.064184,6.786117 12.064318,6.682567 12.201149,6.682201 12.345583,6.682201" style="fill: white" /><polygon type="contour" points="11.486616,6.786117 11.48684,6.895125 11.486931,7.030038 11.486931,7.067964 11.191584,7.067964 11.191648,7.032522 11.191169,6.895125 11.191217,6.786117 11.191542,6.682566 11.486497,6.682566" style="fill: white" /><polygon type="contour" points="11.486854,5.850342 11.486451,6.037135 11.486451,6.073847 11.2317,6.073847 11.195402,6.073855 11.1908,5.783296 11.190815,5.782241 11.190849,5.779838 11.194365,5.779876 11.269827,5.777964 11.486854,5.776983" style="fill: white" /><polygon type="contour" points="7.861872,5.777964 7.939187,5.78014 7.940758,5.780124 7.940773,5.781218 7.94078,5.7817 7.936009,6.073696 7.67989,6.073855 7.645249,6.073847 7.645249,6.05904 7.644908,6.006151 7.644908,5.906445 7.644846,5.850342 7.644846,5.776983" style="fill: white" /><polygon type="contour" points="6.039017,7.644959 6.073883,7.644959 6.073883,7.901543 6.073891,7.936014 5.783293,7.940902 5.782239,7.940887 5.779836,7.940854 5.779873,7.937336 5.777962,7.861873 5.776982,7.644847 5.850341,7.644847" style="fill: white" /><polygon type="contour" points="6.075821,6.699766 6.076272,6.786118 6.076517,6.786484 6.076574,6.895125 6.076211,7.067964 5.95488,7.067964 5.954773,6.895125 5.95449,6.848311 5.954472,6.786117 5.954256,6.699428 5.954247,6.682566 6.075821,6.682566" style="fill: white" /><polygon type="contour" points="6.073581,5.77687 6.073581,5.854753 6.073891,6.040623 6.073891,6.073893 5.830689,6.07561 5.809889,6.07561 5.806674,6.075519 5.778762,6.075026 5.779599,5.998076 5.774652,5.774653 5.874346,5.778041 5.956843,5.769027" style="fill: white" /><polygon type="contour" points="6.699427,5.954259 6.786115,5.954474 6.84831,5.954491 6.895124,5.954775 7.03252,5.954813 7.067962,5.954883 7.067962,6.076212 6.895123,6.076574 6.786116,6.076273 6.699764,6.075822 6.682563,6.075822 6.682563,5.954249" style="fill: white" /><polygon type="contour" points="7.067383,6.682567 7.067517,6.786118 7.067811,6.895125 7.067962,7.030037 7.067962,7.067964 6.895124,7.067812 6.786115,7.067518 6.682565,7.067384 6.682199,6.930553 6.682199,6.786117 6.682563,6.699767 6.682563,6.682565 6.786115,6.682201 6.930551,6.682201" style="fill: white" /><polygon type="contour" points="7.940484,6.786117 7.94051,6.848311 7.940531,6.895125 7.940052,7.032522 7.940117,7.067964 7.644768,7.067964 7.644859,6.895126 7.645083,6.786117 7.6452,6.682567 7.915533,6.682567 7.940159,6.682566" style="fill: white" /><polygon type="contour" points="7.93962,7.863239 7.939175,7.881747 7.936954,7.909297 7.937168,7.93717 7.669119,7.932938 7.645129,7.936148 7.645129,7.860412 7.644846,7.644847 7.935931,7.644847" style="fill: white" /><polygon type="contour" points="7.067962,7.940118 7.032521,7.940054 6.895123,7.940532 6.786116,7.940485 6.682563,7.940161 6.682563,7.668639 6.682565,7.645203 6.786115,7.645085 6.895124,7.644862 7.030036,7.644772 7.067962,7.644772" style="fill: white" /><polygon type="contour" points="6.073694,11.195692 6.073891,11.453858 6.073883,11.486744 6.059819,11.486744 6.006151,11.486794 5.906444,11.486794 5.850341,11.486856 5.776982,11.486856 5.777962,11.26983 5.780138,11.192512 5.780122,11.190941 5.781216,11.190926 5.781697,11.190919" style="fill: white" /><polygon type="contour" points="7.032521,11.19165 7.067962,11.191586 7.067962,11.486932 6.895124,11.486842 6.786116,11.486617 6.682565,11.486498 6.682565,11.216168 6.682563,11.191543 6.786115,11.191219 6.848309,11.191192 6.895124,11.191172" style="fill: white" /><polygon type="contour" points="7.881745,11.192525 7.909295,11.194745 7.937168,11.194531 7.939175,11.249955 7.93962,11.268463 7.935931,11.486856 7.644846,11.486856 7.644846,11.195771 7.863237,11.192081" style="fill: white" /><polygon type="contour" points="7.94053,12.236577 7.940511,12.283391 7.940483,12.345586 7.940145,12.432275 7.940159,12.449138 7.668635,12.449138 7.6452,12.449137 7.645083,12.345586 7.64486,12.236577 7.644769,12.101665 7.644769,12.06374 7.940117,12.06374" style="fill: white" /><polygon type="contour" points="7.06781,12.236578 7.067517,12.345585 7.067383,12.449137 6.93055,12.449501 6.786116,12.449501 6.699764,12.449138 6.682563,12.449138 6.682199,12.345585 6.682199,12.20115 6.682565,12.064319 6.786116,12.064186 6.895123,12.063892 7.030036,12.06374 7.067961,12.06374" style="fill: white" /><polygon type="contour" points="6.076574,12.236578 6.076272,12.345585 6.075821,12.431937 6.075821,12.449138 5.954247,12.449138 5.954256,12.432275 5.954472,12.345586 5.95449,12.283392 5.954774,12.236577 5.954811,12.099181 5.95488,12.06374 6.076211,12.06374" style="fill: white" /><polygon type="contour" points="6.060391,13.05781 6.073891,13.05781 6.073891,13.09108 6.073581,13.354835 5.874345,13.353664 5.774652,13.35705 5.777794,13.262215 5.779599,13.133624 5.778762,13.056675 5.806674,13.056181 5.809889,13.056091" style="fill: white" /><polygon type="contour" points="6.895123,13.055129 7.067962,13.055492 7.067962,13.176822 6.895124,13.176927 6.848309,13.177211 6.786115,13.177229 6.699426,13.177446 6.682563,13.177455 6.682563,13.115612 6.692924,13.12252 6.72027,13.085114 6.732355,13.070522 6.732418,13.05571 6.835657,13.055171 6.835657,13.055097" style="fill: white" /><polygon type="contour" points="7.940901,13.348407 7.940885,13.349461 7.940852,13.351865 7.938415,13.351837 7.937333,13.351828 7.861873,13.353739 7.644846,13.354721 7.644846,13.281362 7.645249,13.094568 7.645249,13.057857 7.9,13.057857 7.936298,13.057849" style="fill: white" /><polygon type="contour" points="11.486451,13.057857 11.486451,13.072663 11.486792,13.125552 11.486792,13.225258 11.486854,13.281361 11.486854,13.354721 11.269826,13.353739 11.192546,13.351564 11.190941,13.35158 11.190926,13.350487 11.190918,13.350003 11.19569,13.058006 11.451809,13.057849" style="fill: white" /><polygon type="contour" points="12.345584,13.05543 12.431935,13.055881 12.449137,13.055881 12.449137,13.177455 12.432274,13.177446 12.345583,13.177229 12.28339,13.177211 12.236575,13.176927 12.099178,13.17689 12.063738,13.176822 12.063738,13.055492 12.236576,13.055129" style="fill: white" /><polygon type="contour" points="12.236575,12.063892 12.345583,12.064186 12.449136,12.064319 12.449499,12.201151 12.449499,12.345586 12.449137,12.431936 12.449137,12.449138 12.345584,12.449501 12.20115,12.449501 12.064318,12.449137 12.064184,12.345586 12.063888,12.236577 12.063738,12.101666 12.063738,12.06374" style="fill: white" /><polygon type="contour" points="11.48684,12.236577 11.486616,12.345586 11.486497,12.449137 11.216167,12.449137 11.191542,12.449138 11.191217,12.345585 11.191169,12.236577 11.191648,12.099181 11.191584,12.06374 11.486931,12.06374" style="fill: white" /><polygon type="contour" points="11.46258,11.198764 11.486571,11.195555 11.486571,11.27129 11.486854,11.486856 11.195767,11.486856 11.192078,11.268463 11.194531,11.194532" style="fill: white" /><polygon type="contour" points="12.28339,11.191192 12.345584,11.191219 12.432274,11.191557 12.449137,11.191543 12.449137,11.463062 12.449136,11.486498 12.345583,11.486617 12.236576,11.486842 12.101663,11.486932 12.063738,11.486932 12.063738,11.191586 12.099178,11.19165 12.236575,11.191172" style="fill: white" /><polygon type="contour" points="13.34946,11.190817 13.351864,11.190851 13.351836,11.193288 13.351826,11.194367 13.353736,11.269829 13.354718,11.486856 13.281358,11.486856 13.092682,11.486744 13.057817,11.486744 13.057817,11.230161 13.057809,11.19569 13.348406,11.190802" style="fill: white" /><polygon type="contour" points="13.176889,12.09918 13.176926,12.236578 13.177209,12.28339 13.177227,12.345584 13.177443,12.432274 13.177453,12.449138 13.055878,12.449138 13.055877,12.431936 13.055427,12.345586 13.055183,12.34522 13.055126,12.236577 13.05549,12.06374 13.176821,12.06374" style="fill: white" /><polygon type="contour" points="13.325026,13.056181 13.352939,13.056675 13.352102,13.133624 13.357049,13.35705 13.257353,13.353664 13.174857,13.362677 13.058118,13.354835 13.058118,13.276948 13.057809,13.09108 13.057809,13.05781 13.30101,13.056091 13.321811,13.056091" style="fill: white" />
</svg>
