<svg width="19.131698" height="19.131699">
<polygon type="contour" points="9.623601,9.280952 9.646223,9.28687 9.656439,9.291193 9.697501,9.3076 9.707834,9.312801 9.731639,9.316157 9.743092,9.318997 9.745345,9.319241 9.745389,9.319254 9.769809,9.324257 9.799867,9.332457 9.811768,9.382926 9.812017,9.385214 9.819028,9.420373 9.819887,9.427333 9.8343,9.457919 9.842175,9.475991 9.847844,9.495047 9.84921,9.502713 9.855502,9.543 9.8574,9.594203 9.847245,9.639273 9.844576,9.647709 9.833439,9.67508 9.819887,9.704375 9.819029,9.711329 9.812693,9.743102 9.812444,9.745389 9.810792,9.755116 9.799867,9.799246 9.769808,9.807446 9.749423,9.812014 9.749376,9.812027 9.74669,9.812317 9.731638,9.815547 9.712444,9.818173 9.704067,9.821955 9.662288,9.838459 9.609739,9.850821 9.594685,9.855409 9.563667,9.856702 9.525288,9.853201 9.502667,9.849335 9.485391,9.844801 9.460856,9.835695 9.457703,9.835343 9.428516,9.819972 9.385009,9.812317 9.382323,9.812027 9.360776,9.80707 9.360733,9.807054 9.331982,9.79972 9.327865,9.783163 9.319809,9.747753 9.319536,9.745245 9.313368,9.714818 9.311276,9.708539 9.31046,9.702147 9.299966,9.678668 9.291751,9.661616 9.284339,9.633702 9.279378,9.614735 9.275778,9.586344 9.274801,9.563235 9.277523,9.523545 9.279275,9.514277 9.279993,9.510262 9.290399,9.468203 9.310472,9.42946 9.311275,9.423166 9.313369,9.416884 9.319536,9.384435 9.319809,9.381926 9.328581,9.344537 9.332307,9.332308 9.360733,9.324649 9.386311,9.319253 9.386354,9.319241 9.388608,9.318998 9.407792,9.314916 9.408915,9.31479 9.433213,9.311223 9.461905,9.296009 9.488727,9.286733 9.523945,9.277738 9.549276,9.275945 9.578546,9.275829" style="fill: white" />
</svg>
