<svg width="19.131698" height="19.131699">
<polygon type="contour" points="7.098557,10.322456 7.104678,10.322519 7.194525,10.322771 7.233703,10.322454 7.233757,10.322555 7.299042,10.322408 7.360879,10.322353 7.360879,10.474418 7.360982,10.617269 7.214227,10.617065 7.061916,10.617065 7.059081,10.564846 7.061129,10.533269 7.060953,10.322251" style="fill: white" /><polygon type="contour" points="8.598431,7.061132 8.694123,7.061395 8.792427,7.061741 8.791731,7.147149 8.809183,7.147752 8.80893,7.194527 8.809248,7.233706 8.809145,7.233758 8.809293,7.299044 8.810028,7.360882 8.657961,7.360882 8.514433,7.360983 8.514636,7.214229 8.514636,7.061919 8.566854,7.059083" style="fill: white" /><polygon type="contour" points="7.361188,7.81428 7.361208,7.856265 7.361402,8.040181 7.361408,8.053693 7.359627,8.053692 7.234011,8.053692 7.234007,8.051402 7.233999,8.04018 7.233809,7.856264 7.233799,7.800386 7.353826,7.800386 7.361188,7.80036" style="fill: white" /><polygon type="contour" points="7.203517,7.06168 7.27292,7.062229 7.361097,7.062112 7.360835,7.174621 7.360835,7.281718 7.360879,7.360881 7.295458,7.360612 7.281715,7.360837 7.169204,7.3611 7.06211,7.3611 7.062226,7.272922 7.061887,7.218967 7.059464,7.142421 7.057401,7.057404" style="fill: white" /><polygon type="contour" points="7.856262,7.23381 8.040177,7.234002 8.0514,7.23401 8.053689,7.234013 8.05369,7.235879 8.05369,7.36141 8.040177,7.361403 7.856263,7.361211 7.800358,7.36119 7.800358,7.233831 7.811414,7.233795" style="fill: white" /><polygon type="contour" points="8.053703,7.816528 8.053703,8.04018 8.053689,8.053692 8.050912,8.053692 8.040177,8.053706 7.816527,8.053706 7.800065,8.053693 7.800065,8.050781 7.800078,8.04018 7.800346,7.856265 7.800358,7.800359 8.036637,7.800067 8.040177,7.800079 8.05369,7.800067" style="fill: white" /><polygon type="contour" points="9.441581,8.514049 9.690074,8.514049 9.708108,8.514048 9.708108,8.809436 9.704073,8.809436 9.690073,8.809447 9.441581,8.809447 9.423593,8.809436 9.423593,8.514047 9.427569,8.514046" style="fill: white" /><polygon type="contour" points="12.069473,11.85878 12.069812,11.912736 12.072036,11.989282 12.074298,12.0743 11.928179,12.070022 11.858779,12.069475 11.770603,12.069592 11.770866,11.957081 11.770866,11.849986 11.770821,11.770823 11.836243,11.771092 11.849985,11.770867 11.962495,11.770604 12.069591,11.770604" style="fill: white" /><polygon type="contour" points="10.617656,11.078013 10.617656,11.080789 10.617618,11.091523 10.617196,11.275438 10.617266,11.331344 10.322525,11.331344 10.322542,11.31786 10.322498,11.275437 10.322267,11.091521 10.322265,11.078018 10.326396,11.078012" style="fill: white" /><polygon type="contour" points="10.617064,10.467245 10.617064,10.617065 10.471233,10.617057 10.322356,10.617057 10.322356,10.471234 10.322553,10.322555 10.471842,10.322555 10.617055,10.322357" style="fill: white" /><polygon type="contour" points="11.09152,10.322268 11.275436,10.3225 11.331342,10.322527 11.331342,10.617269 11.275436,10.6172 11.091521,10.617619 11.078011,10.617657 11.078017,10.613473 11.078017,10.322266" style="fill: white" /><polygon type="contour" points="12.07057,10.53327 12.069784,10.617065 11.919458,10.617269 11.770719,10.617269 11.770719,10.46852 11.770821,10.322353 11.832657,10.322408 11.918924,10.322602 11.958402,10.322482 12.02702,10.322519 12.070745,10.322251" style="fill: white" /><polygon type="contour" points="11.772072,11.078012 11.897686,11.078012 11.897689,11.080299 11.897698,11.091521 11.897892,11.275437 11.897902,11.331318 11.777873,11.331318 11.770512,11.331344 11.770512,11.317423 11.770491,11.275437 11.770298,11.091521 11.770292,11.078011" style="fill: white" /><polygon type="contour" points="11.331635,11.078011 11.331635,11.080921 11.331622,11.091522 11.331354,11.275437 11.331342,11.331344 11.095062,11.331637 11.09152,11.331624 11.07801,11.331637 11.077997,11.315174 11.077997,11.091522 11.078011,11.078012 11.080787,11.078012 11.091521,11.077998 11.315172,11.077998" style="fill: white" /><polygon type="contour" points="11.09152,11.7703 11.275435,11.770493 11.331342,11.770514 11.331342,11.897873 11.320285,11.897909 11.275436,11.897893 11.091521,11.8977 11.080298,11.897691 11.078011,11.897688 11.07801,11.895822 11.07801,11.770294" style="fill: white" /><polygon type="contour" points="10.617064,11.917473 10.617064,12.069785 10.564844,12.07262 10.533267,12.070571 10.437575,12.070307 10.339273,12.069963 10.339967,11.984556 10.322517,11.983952 10.322769,11.937175 10.322453,11.897995 10.322553,11.897943 10.322406,11.832658 10.322351,11.770822 10.474416,11.770822 10.617267,11.77072" style="fill: white" /><polygon type="contour" points="9.708115,11.770984 9.70809,11.773849 9.70809,11.897676 9.690073,11.897698 9.5655,11.897855 9.441582,11.897698 9.423623,11.897691 9.423586,11.895822 9.423586,11.770984 9.42776,11.770984 9.441582,11.770954 9.690073,11.770954" style="fill: white" /><polygon type="contour" points="9.690729,11.077948 9.708798,11.078018 9.708798,11.080819 9.708694,11.091522 9.708043,11.315826 9.708115,11.332327 9.690074,11.332318 9.441582,11.332318 9.423586,11.332327 9.423593,11.328915 9.423658,11.315825 9.423658,11.09087 9.423593,11.077329 9.441582,11.077293" style="fill: white" /><polygon type="contour" points="9.708108,10.322266 9.708108,10.617656 9.70413,10.617657 9.690074,10.617655 9.441581,10.617655 9.423593,10.617656 9.423593,10.322266 9.427627,10.322266 9.441582,10.322255 9.690073,10.322255" style="fill: white" /><polygon type="contour" points="9.708108,9.423594 9.708108,9.427629 9.708121,9.441627 9.708121,9.690121 9.708108,9.708111 9.704072,9.708111 9.690074,9.708124 9.441581,9.708124 9.423593,9.708111 9.423593,9.704075 9.42358,9.690122 9.42358,9.441627 9.423592,9.423594 9.441581,9.423581 9.690074,9.423581" style="fill: white" /><polygon type="contour" points="10.617656,9.427571 10.617654,9.441627 10.617654,9.690122 10.617655,9.708111 10.322265,9.708111 10.322265,9.704076 10.322254,9.690121 10.322254,9.441628 10.322265,9.423594 10.617655,9.423594" style="fill: white" /><polygon type="contour" points="11.091521,9.423005 11.315823,9.423659 11.332325,9.423587 11.332325,9.427761 11.332316,9.441628 11.332316,9.690121 11.332325,9.708118 11.328913,9.708111 11.315823,9.708046 11.090868,9.708046 11.077327,9.708111 11.077321,9.704134 11.077291,9.690121 11.077947,9.44097 11.078017,9.422902 11.080819,9.422902" style="fill: white" /><polygon type="contour" points="11.773847,9.423612 11.897674,9.423612 11.897696,9.441628 11.897853,9.566202 11.897696,9.690121 11.897689,9.708081 11.89582,9.708118 11.770982,9.708118 11.770982,9.703941 11.770952,9.690121 11.770952,9.441628 11.770982,9.423587" style="fill: white" /><polygon type="contour" points="12.072036,7.142421 12.069813,7.218966 12.069878,7.242286 12.069474,7.272922 12.069591,7.360837 11.849984,7.360837 11.770821,7.360881 11.770821,7.295658 11.770866,7.281718 11.770866,7.062112 11.858779,7.062229 11.92818,7.06168 12.074298,7.057404" style="fill: white" /><polygon type="contour" points="11.897908,7.811416 11.897892,7.856264 11.897698,8.040181 11.89769,8.051402 11.897686,8.053692 11.89582,8.053693 11.770292,8.053693 11.770298,8.040181 11.770491,7.856265 11.770512,7.80036 11.897871,7.80036" style="fill: white" /><polygon type="contour" points="11.917472,8.514638 12.069784,8.514638 12.072619,8.566855 12.070571,8.598431 12.070745,8.809452 12.033141,8.809248 12.02702,8.809185 11.937172,8.808932 11.897992,8.809251 11.897941,8.809145 11.832657,8.809295 11.770821,8.81003 11.770821,8.657963 11.770719,8.514434" style="fill: white" /><polygon type="contour" points="11.091521,8.514084 11.275436,8.514504 11.331342,8.514435 11.331342,8.809178 11.317858,8.809161 11.275436,8.809204 11.09152,8.809434 11.078017,8.809436 11.078011,8.805304 11.078011,8.514047 11.080787,8.514047" style="fill: white" /><polygon type="contour" points="10.617055,8.660467 10.617055,8.808992 10.471232,8.808992 10.322553,8.809146 10.322553,8.659857 10.322356,8.514646 10.467244,8.514638 10.617064,8.514638" style="fill: white" /><polygon type="contour" points="10.617197,7.856264 10.617618,8.04018 10.617656,8.053692 10.613472,8.053686 10.322265,8.053686 10.322267,8.04018 10.322498,7.856264 10.322525,7.80036 10.617266,7.80036" style="fill: white" /><polygon type="contour" points="11.091521,7.800079 11.275435,7.800348 11.331342,7.80036 11.331342,7.814281 11.331354,7.856264 11.331621,8.04018 11.331634,8.053693 11.315172,8.053706 11.091521,8.053706 11.078011,8.053692 11.078011,8.050915 11.077997,8.04018 11.077997,7.816528 11.07801,7.800067 11.08092,7.800067" style="fill: white" /><polygon type="contour" points="11.331342,7.233831 11.331342,7.36119 11.317421,7.36119 11.275435,7.361211 11.091521,7.361403 11.07801,7.36141 11.078011,7.359629 11.078011,7.234013 11.080299,7.234009 11.091521,7.234002 11.275436,7.23381 11.320285,7.233795" style="fill: white" /><polygon type="contour" points="10.617064,7.061918 10.617267,7.212244 10.617267,7.360983 10.468519,7.360983 10.321673,7.360882 10.321807,7.296775 10.322625,7.227609 10.322479,7.203554 10.322517,7.147752 10.3411,7.14711 10.34062,7.088238 10.339272,7.061741 10.437575,7.061395" style="fill: white" /><polygon type="contour" points="9.690073,7.234004 9.708078,7.234011 9.708115,7.235879 9.708115,7.360721 9.70394,7.360721 9.690073,7.36075 9.441582,7.36075 9.423586,7.360721 9.423611,7.357853 9.423611,7.234026 9.441582,7.234003 9.5655,7.233849" style="fill: white" /><polygon type="contour" points="9.441581,7.799386 9.690074,7.799386 9.708115,7.799377 9.708108,7.802787 9.708043,7.815877 9.708694,8.04018 9.708798,8.053686 9.69073,8.053711 9.440923,8.053711 9.422899,8.053686 9.422899,8.050883 9.423001,8.040181 9.423658,7.815877 9.423586,7.799377 9.427761,7.799377" style="fill: white" /><polygon type="contour" points="8.809159,7.813843 8.809203,7.856264 8.809432,8.04018 8.809434,8.053686 8.805302,8.053692 8.514044,8.053692 8.514044,8.050914 8.514081,8.040181 8.514503,7.856264 8.514434,7.80036 8.809176,7.80036" style="fill: white" /><polygon type="contour" points="8.660465,8.514646 8.80899,8.514646 8.80899,8.660468 8.809145,8.809146 8.659857,8.809146 8.514644,8.808992 8.514636,8.664102 8.514636,8.514638" style="fill: white" /><polygon type="contour" points="8.053683,8.51823 8.053683,8.809436 8.040178,8.809434 7.856262,8.809204 7.800358,8.809178 7.800358,8.514435 7.856263,8.514504 8.040177,8.514084 8.053689,8.514047" style="fill: white" /><polygon type="contour" points="7.360982,8.663182 7.360879,8.80935 7.296774,8.809202 7.206383,8.809121 7.173296,8.809223 7.104677,8.809185 7.060952,8.809452 7.061129,8.598431 7.061916,8.514637 7.212242,8.514434 7.360982,8.514434" style="fill: white" /><polygon type="contour" points="7.360719,9.427761 7.360748,9.441628 7.360748,9.690121 7.360719,9.708118 7.357851,9.708093 7.234023,9.708093 7.234001,9.690122 7.233848,9.566201 7.234001,9.441628 7.234008,9.423624 7.235876,9.423587 7.360719,9.423587" style="fill: white" /><polygon type="contour" points="8.053688,9.426878 8.053708,9.44097 8.053708,9.690775 8.053683,9.7088 8.05088,9.7088 8.040177,9.708696 7.815876,9.708046 7.799376,9.708118 7.799376,9.703941 7.799384,9.690121 7.799384,9.441627 7.799376,9.423587 7.802786,9.423593 7.815876,9.423659 8.040177,9.423005 8.053683,9.422902" style="fill: white" /><polygon type="contour" points="8.809434,9.427628 8.809445,9.441628 8.809445,9.690121 8.809434,9.708111 8.514044,9.708111 8.514043,9.704134 8.514046,9.690122 8.514046,9.441627 8.514045,9.423594 8.809434,9.423594" style="fill: white" /><polygon type="contour" points="8.809145,10.322555 8.809145,10.471844 8.80899,10.617057 8.664099,10.617065 8.514636,10.617065 8.514644,10.471234 8.514644,10.322357 8.660466,10.322357" style="fill: white" /><polygon type="contour" points="8.053689,10.326397 8.053689,10.617657 8.050911,10.617657 8.040177,10.61762 7.856263,10.6172 7.800358,10.617269 7.800358,10.322527 7.813841,10.322544 7.856262,10.3225 8.040178,10.322268 8.053683,10.322266" style="fill: white" /><polygon type="contour" points="8.053689,11.772074 8.053689,11.897688 8.051399,11.897692 8.040177,11.8977 7.856262,11.897893 7.811414,11.897909 7.800358,11.897873 7.800358,11.770514 7.814278,11.770514 7.856263,11.770493 8.040178,11.7703 8.05369,11.770294" style="fill: white" /><polygon type="contour" points="8.810028,11.770823 8.809292,11.832659 8.809115,11.910835 8.809222,11.92815 8.809183,11.983952 8.790599,11.984595 8.791079,12.043465 8.792428,12.069963 8.694123,12.070307 8.514635,12.069785 8.514433,11.919458 8.514433,11.77072 8.66318,11.77072" style="fill: white" /><polygon type="contour" points="8.518227,11.078018 8.809434,11.078018 8.809432,11.091521 8.809202,11.275438 8.809176,11.331344 8.514434,11.331344 8.514503,11.275438 8.514081,11.091522 8.514044,11.078012" style="fill: white" /><polygon type="contour" points="8.053689,11.078012 8.053689,11.080788 8.053703,11.091522 8.053703,11.315174 8.05369,11.331637 8.050778,11.331637 8.040177,11.331624 7.856263,11.331356 7.800358,11.331344 7.800358,11.317422 7.800346,11.275438 7.800077,11.091521 7.800065,11.078011 7.816527,11.077998 8.040178,11.077998" style="fill: white" /><polygon type="contour" points="7.361402,11.091521 7.361208,11.275437 7.361188,11.331344 7.241174,11.331344 7.233799,11.331318 7.233793,11.320287 7.233809,11.275437 7.233999,11.091522 7.234007,11.080299 7.234011,11.078012 7.235876,11.078011 7.361408,11.078011" style="fill: white" /><polygon type="contour" points="7.17462,11.770867 7.281715,11.770867 7.360879,11.770823 7.360879,11.836046 7.360835,11.849985 7.360835,12.069592 7.272919,12.069475 7.203517,12.070022 7.057401,12.0743 7.059464,11.989282 7.061887,11.912736 7.062226,11.858781 7.06211,11.770604" style="fill: white" />
</svg>
