<svg width="19.131698" height="19.131699">
<polygon type="contour" points="9.299652,10.187861 9.299845,10.236996 9.299845,10.323124 9.225607,10.322799 9.209446,10.322902 9.209447,10.322467 9.092664,10.323398 9.063432,10.323175 9.063432,10.187891 9.09705,10.187891 9.154925,10.187835 9.225609,10.187835" style="fill: white" /><polygon type="contour" points="8.895782,10.188129 8.943573,10.188129 8.943573,10.235919 8.942999,10.38984 8.942624,10.398972 8.942624,10.444453 8.941157,10.491567 8.724742,10.490562 8.638644,10.493058 8.64061,10.426817 8.640899,10.419641 8.641679,10.348842 8.641999,10.308272 8.642044,10.18797 8.754065,10.18797" style="fill: white" /><polygon type="contour" points="8.944024,9.7116 8.896483,9.711102 8.637776,9.711102 8.637613,9.669095 8.63811,9.566202 8.638258,9.520988 8.637776,9.420602 8.944024,9.420602" style="fill: white" /><polygon type="contour" points="8.943841,9.83205 8.943841,9.864976 8.943864,9.922163 8.943864,9.993097 8.943811,10.06827 8.808527,10.06827 8.808892,9.993098 8.808801,9.976755 8.809214,9.976755 8.808335,9.86082 8.808578,9.831858 8.894706,9.831858" style="fill: white" /><polygon type="contour" points="9.138604,9.832562 9.15497,9.832469 9.225607,9.832469 9.299845,9.831858 9.299845,9.864886 9.298652,9.976732 9.299234,9.976732 9.299141,9.993098 9.30002,10.06827 9.225609,10.06835 9.138603,10.06835 9.063432,10.06827 9.063432,10.034653 9.063351,9.976776 9.063351,9.906093 9.063432,9.831682" style="fill: white" /><polygon type="contour" points="9.299845,9.711102 9.096985,9.711102 9.063432,9.711619 9.063432,9.420602 9.299845,9.420602" style="fill: white" /><polygon type="contour" points="9.711101,9.096987 9.711101,9.299847 9.4206,9.299847 9.4206,9.063434 9.711618,9.063434" style="fill: white" /><polygon type="contour" points="8.724743,8.641143 8.941157,8.640135 8.942549,8.682703 8.942624,8.687249 8.942999,8.741863 8.942999,8.822874 8.943573,8.943575 8.895782,8.943575 8.754065,8.943734 8.642044,8.943734 8.641999,8.823431 8.641678,8.782859 8.640899,8.712062 8.64061,8.704886 8.638644,8.638646" style="fill: white" /><polygon type="contour" points="8.943811,9.09705 8.943864,9.154927 8.943864,9.225861 8.943841,9.300169 8.894706,9.299847 8.808578,9.299847 8.808904,9.225609 8.808801,9.209447 8.809235,9.209449 8.808304,9.092666 8.808527,9.063434 8.943811,9.063434" style="fill: white" /><polygon type="contour" points="9.300537,9.063434 9.299392,9.138605 9.298707,9.209509 9.299234,9.209509 9.299234,9.225609 9.299845,9.299847 9.266814,9.299847 9.183613,9.298958 9.138603,9.299393 9.063389,9.300169 9.063389,9.266728 9.063351,9.209541 9.063351,9.138605 9.063432,9.063434 9.097049,9.063434 9.154924,9.063353 9.225859,9.063353" style="fill: white" /><polygon type="contour" points="9.299845,8.808581 9.299845,8.894708 9.300167,8.943843 9.266726,8.943843 9.209539,8.943867 9.138604,8.943867 9.063432,8.943812 9.063432,8.80853 9.138603,8.808894 9.154947,8.808802 9.154946,8.809215 9.270882,8.808337" style="fill: white" /><polygon type="contour" points="9.653009,8.640363 9.711101,8.642038 9.711101,8.742169 9.711945,8.823431 9.711598,8.944026 9.4206,8.944026 9.4206,8.641858 9.478413,8.640362 9.497429,8.639464 9.565501,8.638166" style="fill: white" /><polygon type="contour" points="10.491089,8.704886 10.490801,8.712062 10.49002,8.78286 10.489702,8.823431 10.489657,8.943734 10.377635,8.943734 10.235917,8.943575 10.188127,8.943575 10.188127,8.895784 10.188701,8.741862 10.189074,8.732731 10.189074,8.68725 10.190543,8.640135 10.406957,8.641143 10.493055,8.638646" style="fill: white" /><polygon type="contour" points="10.068268,8.80853 10.068268,8.943813 10.034651,8.943813 9.976774,8.943867 9.906091,8.943867 9.832049,8.943843 9.831856,8.894707 9.831856,8.808581 9.906093,8.808906 9.922254,8.808803 9.922252,8.809237 10.039035,8.808307" style="fill: white" /><polygon type="contour" points="10.068268,9.063434 10.068268,9.09705 10.068348,9.154926 10.068348,9.225862 10.068311,9.300169 9.993096,9.299393 9.922192,9.298708 9.922192,9.299235 9.906094,9.299235 9.831856,9.299847 9.831856,9.266816 9.833048,9.154972 9.832466,9.154972 9.832559,9.138606 9.832049,9.063391 9.906091,9.063353 9.993096,9.063353" style="fill: white" /><polygon type="contour" points="10.322809,9.138605 10.3229,9.154949 10.322486,9.154948 10.323366,9.270885 10.323123,9.299847 10.236995,9.299847 10.187859,9.300169 10.187859,9.266728 10.187834,9.209541 10.187834,9.138605 10.187889,9.063434 10.323174,9.063434" style="fill: white" /><polygon type="contour" points="10.494086,9.462608 10.493589,9.565501 10.493442,9.610715 10.493925,9.711102 10.187676,9.711102 10.187676,9.420602 10.493925,9.420602" style="fill: white" /><polygon type="contour" points="10.489702,10.308271 10.490021,10.348843 10.490801,10.419641 10.491089,10.426817 10.493055,10.493058 10.406957,10.490562 10.190543,10.491567 10.189152,10.449 10.189073,10.444452 10.188701,10.38984 10.188701,10.308828 10.188127,10.188129 10.235917,10.188129 10.377635,10.18797 10.489657,10.18797" style="fill: white" /><polygon type="contour" points="10.068268,10.187891 10.068268,10.323175 9.993096,10.322811 9.976752,10.322902 9.976753,10.322489 9.860817,10.323367 9.831856,10.323124 9.831856,10.236997 9.831534,10.187861 9.864974,10.187861 9.922161,10.187835 9.993096,10.187835" style="fill: white" /><polygon type="contour" points="10.236995,9.831858 10.323123,9.831858 10.322796,9.906094 10.322899,9.922255 10.322465,9.922254 10.323397,10.039037 10.323174,10.06827 10.187889,10.06827 10.187889,10.034653 10.187834,9.976776 10.187834,9.905842 10.187859,9.831536" style="fill: white" /><polygon type="contour" points="10.068268,9.864782 10.068348,9.922163 10.068348,9.993098 10.068268,10.06827 10.034651,10.06827 9.976774,10.06835 9.905839,10.06835 9.831534,10.068313 9.832308,9.993098 9.832993,9.922194 9.832467,9.922194 9.832467,9.906095 9.831856,9.831858 9.864884,9.831858 9.948108,9.832745 9.993095,9.832311 10.068268,9.831165" style="fill: white" /><polygon type="contour" points="10.068268,9.711102 9.831856,9.711102 9.831856,9.420602 10.068268,9.420602" style="fill: white" /><polygon type="contour" points="9.711101,9.711102 9.4206,9.711102 9.4206,9.420602 9.711101,9.420602" style="fill: white" /><polygon type="contour" points="9.711101,10.06827 9.420083,10.06827 9.4206,10.034717 9.4206,9.831858 9.711101,9.831858" style="fill: white" /><polygon type="contour" points="9.711101,10.489845 9.653008,10.491341 9.633899,10.49224 9.565703,10.493537 9.478412,10.49134 9.4206,10.489665 9.4206,10.389536 9.419756,10.308271 9.420102,10.187678 9.711101,10.187678" style="fill: white" />
</svg>
