<svg width="19.131698" height="19.131699">
<polygon type="contour" points="7.700607,10.589291 7.701342,10.58929 7.701342,10.886779 7.698081,10.886776 7.587872,10.886427 7.497143,10.88681 7.449826,10.886893 7.449826,10.589625 7.459226,10.589634 7.497142,10.589443 7.587873,10.589626 7.698082,10.589285" style="fill: white" /><polygon type="contour" points="8.341299,10.596546 8.532251,10.59945 8.53638,10.756915 8.538093,10.886622 8.245081,10.886622 8.245081,10.593609" style="fill: white" /><polygon type="contour" points="8.542418,11.43362 8.542076,11.543828 8.54226,11.634558 8.542069,11.672476 8.542078,11.681877 8.244809,11.681877 8.244798,11.672024 8.244891,11.634558 8.245275,11.543827 8.244927,11.43362 8.244924,11.431154 8.244924,11.43036 8.542413,11.43036" style="fill: white" /><polygon type="contour" points="8.534074,12.200326 8.537845,12.200331 8.537854,12.212838 8.538987,12.490099 8.478371,12.490976 8.245081,12.491418 8.245204,12.351277 8.245204,12.199904" style="fill: white" /><polygon type="contour" points="6.918891,12.200295 6.925825,12.200304 6.931369,12.200331 6.931366,12.212797 6.931427,12.429111 6.931427,12.491023 6.782699,12.489218 6.641386,12.490317 6.642911,12.348266 6.64076,12.200167 6.670488,12.199889 6.678285,12.199569 6.703086,12.199569" style="fill: white" /><polygon type="contour" points="7.68517,12.19766 7.698081,12.19769 7.701342,12.197704 7.701342,12.315317 7.698081,12.315302 7.587873,12.314854 7.497143,12.315212 7.459227,12.315472 7.449826,12.315456 7.450091,12.22522 7.450091,12.197288" style="fill: white" /><polygon type="contour" points="7.700548,11.43036 7.701342,11.43036 7.701345,11.43362 7.701325,11.446532 7.701325,11.681677 7.685169,11.681677 7.497142,11.681826 7.449826,11.681877 7.450024,11.446531 7.450024,11.430378 7.685169,11.430378 7.698081,11.430358" style="fill: white" /><polygon type="contour" points="6.934008,11.433621 6.934038,11.446531 6.934413,11.681611 6.906479,11.681611 6.816246,11.681877 6.81623,11.672475 6.81649,11.634559 6.816847,11.543828 6.8164,11.43362 6.816385,11.43036 6.933996,11.43036" style="fill: white" /><polygon type="contour" points="6.702534,10.593584 6.918861,10.593848 6.928634,10.593891 6.931369,10.593857 6.931369,10.882851 6.931374,10.886473 6.92982,10.886473 6.918902,10.886484 6.676198,10.886741 6.64057,10.886741 6.641649,10.786681 6.641775,10.592507" style="fill: white" /><polygon type="contour" points="6.702588,8.245018 6.780424,8.245206 6.931798,8.245206 6.931373,8.534077 6.931368,8.537847 6.918861,8.537856 6.641601,8.538989 6.640724,8.478372 6.64057,8.244963 6.676198,8.244963" style="fill: white" /><polygon type="contour" points="7.497143,8.244893 7.587872,8.245277 7.698082,8.244928 7.700547,8.244925 7.701342,8.244925 7.701342,8.542414 7.698082,8.542419 7.587873,8.542077 7.497142,8.542261 7.459226,8.54207 7.449826,8.542079 7.449826,8.244811 7.459678,8.2448" style="fill: white" /><polygon type="contour" points="7.685169,7.450026 7.701325,7.450026 7.701325,7.685171 7.701342,7.701344 7.698081,7.701347 7.68517,7.701326 7.450024,7.701326 7.450024,7.685171 7.449876,7.497145 7.449826,7.449827" style="fill: white" /><polygon type="contour" points="6.906479,7.450093 6.934248,7.450093 6.933994,7.685172 6.934008,7.698082 6.933996,7.701344 6.816385,7.701344 6.8164,7.698083 6.816847,7.587875 6.81649,7.497144 6.81623,7.459228 6.816246,7.449827" style="fill: white" /><polygon type="contour" points="6.931369,6.640147 6.931369,6.93137 6.874201,6.93162 6.678284,6.932134 6.670489,6.931694 6.640759,6.931536 6.642911,6.783438 6.641386,6.641387 6.918855,6.640072" style="fill: white" /><polygon type="contour" points="7.497143,6.816492 7.587873,6.816849 7.698082,6.816401 7.701342,6.816387 7.701342,6.933997 7.698081,6.93401 7.68517,6.93404 7.450091,6.934416 7.450091,6.906482 7.449826,6.816249 7.459226,6.816232" style="fill: white" /><polygon type="contour" points="8.345019,6.641651 8.539197,6.641777 8.538119,6.702537 8.538129,6.93162 8.248849,6.93137 8.245228,6.931375 8.245228,6.927612 8.245203,6.780425 8.24508,6.721955 8.244961,6.6762 8.244961,6.640572" style="fill: white" /><polygon type="contour" points="8.542069,7.459229 8.54226,7.497144 8.542076,7.587875 8.542418,7.698083 8.542412,7.700609 8.542413,7.701344 8.244924,7.701344 8.244927,7.698082 8.245275,7.587876 8.244891,7.497145 8.244809,7.449827 8.542078,7.449827" style="fill: white" /><polygon type="contour" points="8.535155,8.341302 8.532251,8.532253 8.409264,8.531318 8.396305,8.534304 8.374786,8.536383 8.245081,8.538095 8.245081,8.245082 8.538093,8.245082" style="fill: white" /><polygon type="contour" points="12.490049,8.345021 12.489924,8.539198 12.429163,8.53812 12.212836,8.537856 12.203063,8.537812 12.200329,8.537846 12.200329,8.248852 12.200324,8.245231 12.201877,8.245231 12.212795,8.245219 12.4555,8.244963 12.491129,8.244963" style="fill: white" /><polygon type="contour" points="11.681677,7.685172 11.681677,7.701326 11.446529,7.701326 11.433618,7.701347 11.431152,7.701344 11.430361,7.701344 11.430356,7.698083 11.430376,7.685171 11.430376,7.450026 11.44653,7.450026 11.634556,7.449878 11.681875,7.449826" style="fill: white" /><polygon type="contour" points="12.315471,7.459228 12.315211,7.497144 12.314854,7.587875 12.315301,7.698083 12.315316,7.701344 12.197702,7.701344 12.197689,7.698083 12.197659,7.685171 12.197287,7.450093 12.225219,7.450093 12.315455,7.449827" style="fill: white" /><polygon type="contour" points="12.349,6.642485 12.490315,6.641387 12.488789,6.783438 12.49094,6.931536 12.461211,6.931694 12.453415,6.932134 12.428613,6.932134 12.212806,6.931406 12.205858,6.931397 12.200329,6.93137 12.200332,6.918903 12.200272,6.702591 12.200272,6.677705 12.200271,6.640678" style="fill: white" /><polygon type="contour" points="11.681875,6.816249 11.681609,6.906482 11.681609,6.93425 11.446529,6.933996 11.433619,6.93401 11.430358,6.933997 11.430358,6.816386 11.433618,6.816401 11.543827,6.816849 11.634557,6.816492 11.672474,6.816232" style="fill: white" /><polygon type="contour" points="10.886497,6.780425 10.886497,6.9318 10.597626,6.931375 10.593856,6.93137 10.593847,6.918862 10.592714,6.641603 10.65333,6.640726 10.88662,6.640285" style="fill: white" /><polygon type="contour" points="10.886902,7.459679 10.886809,7.497144 10.886424,7.587875 10.886774,7.698083 10.886776,7.700549 10.886779,7.701344 10.589287,7.701344 10.589282,7.698083 10.589624,7.587876 10.589441,7.497144 10.589632,7.459229 10.589623,7.449827 10.886891,7.449827" style="fill: white" /><polygon type="contour" points="10.88662,8.400767 10.88662,8.538095 10.756913,8.536383 10.735392,8.534303 10.599448,8.532253 10.600383,8.409266 10.597398,8.396307 10.595319,8.374788 10.593607,8.245082 10.886991,8.245082" style="fill: white" /><polygon type="contour" points="11.681875,8.542079 11.672474,8.54207 11.634556,8.542261 11.543826,8.542077 11.433619,8.542419 11.431092,8.542413 11.430358,8.542414 11.430358,8.245851 11.430361,8.244925 11.433619,8.244928 11.543827,8.245277 11.634556,8.244893 11.681875,8.244811" style="fill: white" /><polygon type="contour" points="12.490973,10.653332 12.491129,10.886741 12.4555,10.886741 12.429109,10.886684 12.351275,10.886499 12.199902,10.886499 12.200324,10.597627 12.200329,10.593857 12.212836,10.593848 12.490098,10.592716" style="fill: white" /><polygon type="contour" points="12.315301,11.43362 12.314854,11.543828 12.315211,11.634559 12.315471,11.672475 12.315455,11.681877 12.225219,11.681611 12.197287,11.681611 12.197659,11.446531 12.197689,11.43362 12.197702,11.43036 12.315316,11.43036" style="fill: white" /><polygon type="contour" points="10.886991,10.749294 10.886991,10.886622 10.593607,10.886622 10.595319,10.756915 10.597398,10.735394 10.599448,10.59945 10.756914,10.59532 10.88662,10.593609" style="fill: white" /><polygon type="contour" points="11.543827,10.589626 11.634556,10.589443 11.672474,10.589634 11.681875,10.589625 11.681875,10.886893 11.672022,10.886904 11.634556,10.88681 11.543827,10.886427 11.433618,10.886776 11.431152,10.886779 11.430361,10.886779 11.430361,10.590216 11.430358,10.589289 11.433618,10.589285" style="fill: white" /><polygon type="contour" points="11.44653,11.430378 11.681677,11.430378 11.681677,11.446532 11.681823,11.634558 11.681875,11.681877 11.44653,11.681677 11.430376,11.681677 11.430376,11.446532 11.430361,11.43036 11.433619,11.430358" style="fill: white" /><polygon type="contour" points="10.886774,11.43362 10.886424,11.543828 10.886809,11.634558 10.886891,11.681877 10.589623,11.681877 10.589632,11.672476 10.589441,11.634558 10.589624,11.543827 10.589283,11.43362 10.589289,11.431094 10.589288,11.43036 10.886779,11.43036" style="fill: white" /><polygon type="contour" points="10.88285,12.200331 10.886472,12.200326 10.886472,12.204089 10.886496,12.351276 10.88662,12.409746 10.886739,12.455501 10.886739,12.49113 10.786679,12.490049 10.592504,12.489924 10.593582,12.429164 10.593571,12.200084" style="fill: white" /><polygon type="contour" points="11.681609,12.22522 11.681875,12.315456 11.672473,12.315472 11.634557,12.315212 11.543827,12.314855 11.433618,12.315303 11.430358,12.315318 11.430358,12.197703 11.433618,12.19769 11.446529,12.19766 11.681609,12.197288" style="fill: white" /><polygon type="contour" points="12.461212,12.199889 12.49094,12.200167 12.488789,12.348266 12.490315,12.490317 12.212842,12.491632 12.200329,12.491557 12.200329,12.487942 12.200081,12.200084 12.257499,12.200084 12.453416,12.199569" style="fill: white" />
</svg>
