<svg width="19.131698" height="19.131699">
<polygon type="contour" points="12.1429,6.867996 12.147038,6.868309 12.164225,6.870274 12.177043,6.874896 12.211689,6.893951 12.220231,6.900749 12.22941,6.911924 12.254097,6.947516 12.25971,6.962688 12.263861,6.985107 12.264251,6.988802 12.264351,7.847818 12.263705,12.142901 12.263391,12.14704 12.26115,12.166053 12.254294,12.18665 12.244155,12.202242 12.223432,12.229241 12.169662,12.260556 12.164959,12.263133 12.164029,12.263248 12.163051,12.263352 12.159175,12.263653 12.142899,12.264253 11.283883,12.264353 6.9888,12.263707 6.978161,12.262136 6.95572,12.258762 6.946589,12.255076 6.938095,12.248929 6.901311,12.221183 6.89617,12.214454 6.879599,12.188167 6.871163,12.172962 6.870596,12.169451 6.867449,12.1429 6.867349,11.283885 6.867994,6.988802 6.868331,6.985912 6.870662,6.963009 6.880562,6.945751 6.899974,6.914097 6.915352,6.900056 6.944441,6.880224 6.963755,6.870891 6.975799,6.869735 6.9888,6.867508 7.847817,6.867351" style="fill: white" />
</svg>
