<svg width="19.131698" height="19.131699">
<polygon type="contour" points="9.98119,10.57502 9.98119,10.579023 9.981181,10.635594 9.981181,10.702444 9.98119,10.769026 9.887964,10.768802 9.887964,10.896899 9.88803,10.924339 9.888019,10.936078 9.683267,10.936188 9.536246,10.935501 9.536246,10.935777 9.380602,10.935864 9.243682,10.936078 9.243737,10.896899 9.243737,10.768802 9.150508,10.769026 9.150508,10.764675 9.150518,10.702443 9.150518,10.635594 9.150508,10.575021 9.154858,10.575021 9.206082,10.574924 9.925618,10.574924" style="fill: white" /><polygon type="contour" points="10.635592,10.575055 10.702442,10.575055 10.769024,10.575021 10.769236,10.663728 10.905052,10.663728 10.927689,10.663611 10.935859,10.663559 10.935889,10.670161 10.937894,10.854055 10.940416,10.940418 10.706487,10.936204 10.664232,10.936752 10.663963,10.867878 10.663963,10.769237 10.57502,10.769026 10.57502,10.764674 10.575052,10.702444 10.575052,10.635594 10.57502,10.575021 10.579022,10.575021" style="fill: white" /><polygon type="contour" points="10.937894,8.277647 10.935889,8.461543 10.935859,8.468144 10.905053,8.467976 10.769236,8.467976 10.769024,8.556683 10.764672,8.556683 10.702442,8.55665 10.635591,8.55665 10.57502,8.556683 10.57502,8.55268 10.575052,8.496109 10.575052,8.42926 10.57502,8.362678 10.663619,8.362467 10.663963,8.263825 10.663893,8.233184 10.664232,8.194953 10.706488,8.1955 10.940416,8.191286" style="fill: white" /><polygon type="contour" points="10.635591,9.15052 10.702441,9.15052 10.769024,9.15051 10.7688,9.243739 10.896897,9.243739 10.924336,9.243673 10.936075,9.243684 10.935862,9.380603 10.935649,9.595344 10.935708,9.595345 10.935678,9.605941 10.935861,9.7511 10.936075,9.888021 10.896897,9.887966 10.7688,9.887966 10.769024,9.981192 10.764673,9.981192 10.702441,9.981183 10.635592,9.981183 10.57502,9.981192 10.57502,9.97684 10.574923,9.92562 10.574923,9.206083 10.57502,9.15051 10.579023,9.15051" style="fill: white" /><polygon type="contour" points="8.425211,8.1955 8.467467,8.194953 8.467737,8.263825 8.467737,8.362466 8.556681,8.362678 8.556681,8.367029 8.556649,8.429259 8.556649,8.496109 8.556681,8.556683 8.552678,8.556683 8.496107,8.55665 8.429257,8.55665 8.362676,8.556683 8.362465,8.467976 8.226647,8.467976 8.204011,8.468093 8.195842,8.468144 8.195811,8.461543 8.193806,8.277647 8.191284,8.191286" style="fill: white" /><polygon type="contour" points="9.595454,8.1962 9.595454,8.195925 9.751098,8.195838 9.888019,8.195627 9.887964,8.234804 9.887964,8.362901 9.98119,8.362678 9.98119,8.367028 9.981181,8.42926 9.981181,8.496109 9.98119,8.556683 9.976839,8.556683 9.925617,8.556779 9.206082,8.556779 9.150508,8.556683 9.150508,8.552679 9.150518,8.49611 9.150518,8.42926 9.150508,8.362678 9.243737,8.362901 9.243737,8.234804 9.243671,8.207364 9.243682,8.195627 9.448432,8.195516" style="fill: white" /><polygon type="contour" points="9.206082,9.150571 9.925617,9.150571 9.98119,9.15051 9.98119,9.15486 9.981129,9.206084 9.981129,9.925619 9.98119,9.981192 9.976838,9.981192 9.925618,9.981132 9.206082,9.981132 9.150508,9.981192 9.150508,9.97684 9.15057,9.92562 9.15057,9.206084 9.150508,9.15051 9.154858,9.15051" style="fill: white" /><polygon type="contour" points="8.429258,9.15052 8.496107,9.15052 8.556681,9.15051 8.556681,9.154861 8.556777,9.206083 8.556777,9.92562 8.556681,9.981192 8.552678,9.981192 8.496107,9.981183 8.429257,9.981183 8.362676,9.981192 8.362899,9.887966 8.234802,9.887966 8.207363,9.888032 8.195625,9.888021 8.195836,9.751101 8.196047,9.536359 8.19599,9.536359 8.196021,9.525762 8.195837,9.380604 8.195625,9.243684 8.234802,9.243739 8.362899,9.243739 8.362676,9.15051 8.367026,9.15051" style="fill: white" /><polygon type="contour" points="8.429257,10.575055 8.496107,10.575055 8.556681,10.575021 8.556681,10.579023 8.556649,10.635594 8.556649,10.702443 8.556681,10.769026 8.46808,10.769236 8.467737,10.867878 8.467807,10.898519 8.467468,10.936752 8.425212,10.936204 8.191284,10.940418 8.193806,10.854055 8.19581,10.670161 8.195841,10.66356 8.226646,10.663728 8.362465,10.663728 8.362676,10.575021 8.367027,10.575021" style="fill: white" />
</svg>
