<svg width="19.131698" height="19.131699">
<polygon type="contour" points="16.196439,16.053641 16.248656,16.053594 16.318919,16.053692 16.322215,16.053412 16.386633,16.053433 16.386491,16.195998 16.386808,16.337726 16.386808,16.386811 16.173703,16.387034 16.172439,16.386816 16.053337,16.38654 16.05369,16.318921 16.05369,16.250953 16.053591,16.248657 16.053639,16.19644 15.780696,16.196505 15.727191,16.196457 15.728144,16.059671 15.728144,16.046607 15.727191,15.727194 16.046605,15.728145 16.059671,15.728145 16.196456,15.727194" style="fill: white" /><polygon type="contour" points="14.389006,16.046607 14.389006,16.059672 14.389318,16.196457 14.355679,16.196485 14.13164,16.196666 14.132003,16.246995 14.131692,16.250951 14.131692,16.318922 14.131908,16.322217 14.131933,16.386634 13.997784,16.386951 13.799049,16.386951 13.798925,16.319454 13.798803,16.291502 13.798837,16.255882 13.798837,16.196079 13.743805,16.196271 13.655817,16.196308 13.655817,16.291508 13.53119,16.291475 13.3684,16.291461 13.341909,16.291388 13.24123,16.291495 12.93684,16.291585 12.951695,16.056198 12.949368,16.049914 12.951424,16.028636 12.941668,15.9506 12.938205,15.727592 13.136548,15.727354 13.329317,15.727785 13.970674,15.727531 14.0485,15.72733 14.063984,15.727231 14.081555,15.727304 14.131659,15.727197 14.131659,15.727198 14.351646,15.727194 14.389318,15.727194" style="fill: white" /><polygon type="contour" points="14.389427,13.13655 14.389315,13.329319 14.389315,13.895097 14.38944,14.027737 14.389636,14.048504 14.38963,14.062995 14.389549,14.074805 14.389559,14.083472 14.38962,14.089586 14.389609,14.09346 14.389603,14.095417 14.389632,14.096173 14.389566,14.193668 14.389608,14.193668 14.389318,14.351649 14.389318,14.389319 14.210237,14.389609 14.13166,14.389609 14.0799,14.389602 14.06988,14.389641 14.057143,14.389504 14.0485,14.389638 13.970674,14.389543 13.895094,14.389318 13.329316,14.389318 13.155214,14.389445 13.136548,14.389428 12.94525,14.389454 12.948664,14.278065 12.943937,14.131801 12.939349,14.131814 12.948664,13.992043 12.936673,13.851826 12.948416,13.818618 12.949778,13.801023 13.153776,13.80142 13.234275,13.801828 13.258182,13.801961 13.367998,13.801428 13.531035,13.802574 13.535431,13.802639 13.566818,13.802412 13.647903,13.801965 13.657783,13.801813 13.660969,13.802184 13.68589,13.801716 13.688447,13.801593 13.698999,13.800987 13.701438,13.800617 13.723797,13.800286 13.729494,13.80016 13.74131,13.79991 13.745642,13.799784 13.761514,13.799734 13.785046,13.784874 13.799676,13.761597 13.79991,13.741312 13.80016,13.729496 13.800283,13.7238 13.800614,13.701442 13.800984,13.699003 13.80159,13.688448 13.801715,13.685892 13.802181,13.660973 13.80181,13.657784 13.801964,13.647907 13.802409,13.566819 13.802637,13.535435 13.802571,13.531038 13.801425,13.368 13.801959,13.258184 13.801826,13.234277 13.801418,13.153778 13.801021,12.94978 13.818616,12.948418 13.851823,12.936676 13.992042,12.948665 14.131812,12.939351 14.131791,12.947189 14.253676,12.931781 14.389334,12.926071" style="fill: white" /><polygon type="contour" points="16.291475,13.1245 16.291502,13.196704 16.291541,13.219187 16.291395,13.360397 16.291445,13.528019 16.291498,13.56521 16.291507,13.655818 16.196306,13.655818 16.196268,13.743808 16.196421,13.798637 16.256091,13.798637 16.291499,13.798803 16.319451,13.798926 16.32092,13.798952 16.386949,13.79905 16.386949,13.997785 16.386633,14.131935 16.31892,14.131694 16.246995,14.132005 16.196661,14.131642 16.196483,14.35568 16.196455,14.389319 16.059671,14.389007 16.046605,14.389007 15.727191,14.389319 15.727194,14.210238 15.727194,14.131661 15.727214,14.092929 15.727247,14.085293 15.727227,14.070184 15.727327,14.048503 15.72753,13.970675 15.727784,13.329318 15.727421,13.155215 15.727351,13.13655 15.728113,12.933955 16.050861,12.952778 16.056125,12.951346 16.060347,12.952394 16.111248,12.937853 16.291587,12.919361" style="fill: white" /><polygon type="contour" points="16.386808,2.744893 16.386808,2.793978 16.386491,2.935705 16.386633,3.07827 16.318919,3.078011 16.250951,3.078011 16.248656,3.07811 16.196438,3.078063 16.196504,3.351004 16.196456,3.40451 16.05967,3.403555 16.046606,3.403555 15.727191,3.40451 15.728144,3.085096 15.728144,3.072032 15.727191,2.935247 16.053639,2.935261 16.053591,2.883047 16.05369,2.812781 16.05341,2.809486 16.053336,2.745164 16.172438,2.744887 16.173702,2.74467" style="fill: white" /><polygon type="contour" points="16.196482,4.776022 16.196661,5.00006 16.246995,4.999699 16.250951,5.000011 16.31892,5.000011 16.322215,4.999791 16.386633,4.99977 16.386949,5.133918 16.386949,5.332652 16.319451,5.332778 16.291499,5.332899 16.256091,5.333067 16.19608,5.333067 16.196268,5.387895 16.19634,5.475683 16.258837,5.475885 16.291507,5.475885 16.291504,5.600952 16.29152,5.763896 16.291453,5.790375 16.291576,5.890926 16.291463,6.194767 16.056209,6.18 16.053639,6.179682 16.046606,6.179173 15.951027,6.19118 15.728114,6.197749 15.727351,5.995152 15.727784,5.802385 15.72753,5.161026 15.727327,5.0832 15.727227,5.061517 15.727247,5.046408 15.727214,5.038773 15.727194,5.000041 15.727195,5.000041 15.727191,4.780055 15.727191,4.742385 16.046606,4.742696 16.059671,4.742696 16.196455,4.742385" style="fill: white" /><polygon type="contour" points="14.096129,4.742088 14.193666,4.742102 14.193666,4.742094 14.351647,4.742385 14.389318,4.742385 14.389608,4.921464 14.389608,5.00004 14.389587,5.042233 14.389559,5.04823 14.38955,5.056898 14.38963,5.068707 14.389636,5.0832 14.389541,5.161026 14.389315,5.236606 14.389315,5.802385 14.389443,5.976487 14.389425,5.995153 14.389334,6.205633 14.288259,6.19647 14.131986,6.189656 14.131993,6.19182 13.992041,6.183038 13.851824,6.195028 13.818616,6.183286 13.801021,6.181924 13.801418,5.977924 13.801826,5.897425 13.801959,5.87352 13.801425,5.763702 13.80257,5.600665 13.802636,5.596268 13.802364,5.540935 13.802243,5.534512 13.802581,5.532672 13.802181,5.470729 13.801715,5.44581 13.801589,5.443253 13.800984,5.4327 13.800614,5.43026 13.800283,5.407902 13.80016,5.402207 13.79991,5.390391 13.799676,5.370103 13.784992,5.346795 13.761515,5.33197 13.745642,5.331918 13.74131,5.331794 13.729494,5.331544 13.723797,5.331416 13.701439,5.331086 13.699,5.330716 13.685889,5.329985 13.66097,5.329519 13.657782,5.329891 13.647904,5.329738 13.566817,5.329292 13.535431,5.329064 13.531036,5.329129 13.367998,5.330276 13.258182,5.329743 13.234275,5.329875 13.153776,5.330283 12.949778,5.330682 12.948416,5.313086 12.936674,5.279879 12.948664,5.13966 12.93935,4.999889 12.950487,4.999919 12.9412,4.873432 12.94525,4.74225 13.136548,4.742274 13.329317,4.742387 13.895095,4.742387 14.027734,4.742263 14.0485,4.742065 14.057142,4.742199 14.069881,4.742063 14.079899,4.742101 14.087189,4.742097 14.095529,4.742022" style="fill: white" /><polygon type="contour" points="14.131933,2.745069 14.131692,2.812782 14.132003,2.884707 14.13164,2.935037 14.355679,2.935218 14.389318,2.935246 14.389004,3.072031 14.389004,3.085095 14.389318,3.40451 14.210236,3.404506 14.13166,3.404506 14.081555,3.404399 14.063984,3.404472 14.0485,3.404372 13.970674,3.404171 13.329316,3.403917 13.155214,3.40428 13.136548,3.40435 12.938205,3.404111 12.951424,3.103066 12.952528,3.085096 12.951701,3.075492 12.936921,2.8401 13.240775,2.840126 13.341323,2.840249 13.367805,2.84018 13.530748,2.840199 13.655817,2.840194 13.655817,2.935393 13.743805,2.935433 13.798635,2.935623 13.798635,2.875608 13.798803,2.840197 13.798925,2.81225 13.798951,2.810781 13.799049,2.744753 13.997784,2.744753" style="fill: white" /><polygon type="contour" points="2.959261,2.744887 3.078363,2.745164 3.07801,2.812782 3.07801,2.880753 3.078108,2.883046 3.078062,2.935262 3.351002,2.935199 3.404509,2.935247 3.403554,3.072032 3.403554,3.085095 3.404509,3.40451 3.085094,3.403555 3.072031,3.403555 2.935246,3.40451 2.935259,3.078063 2.883044,3.07811 2.81278,3.078011 2.809484,3.078292 2.745067,3.07827 2.745208,2.935706 2.744891,2.793978 2.744891,2.744893 2.957995,2.74467" style="fill: white" /><polygon type="contour" points="5.332776,2.81225 5.332896,2.840198 5.332863,2.875819 5.332863,2.935624 5.387892,2.935433 5.475882,2.935394 5.475882,2.840194 5.566489,2.840204 5.603681,2.840258 5.771733,2.840306 5.91277,2.84016 5.934996,2.8402 6.007112,2.840128 6.21254,2.840049 6.196631,3.021675 6.18175,3.064349 6.179172,3.085096 6.180274,3.103067 6.190032,3.181102 6.193495,3.404111 5.995149,3.40435 5.802382,3.403917 5.161025,3.404171 5.083199,3.404372 5.067716,3.404472 5.050144,3.404399 5.040427,3.404385 5.000039,3.404506 5.000039,3.404504 4.780054,3.40451 4.742383,3.40451 4.742695,3.085096 4.742695,3.072031 4.742383,2.935247 4.776021,2.935218 5.000059,2.935037 4.999698,2.884708 5.000008,2.880752 5.000008,2.812782 4.999789,2.809486 4.999767,2.745069 5.133916,2.744753 5.33265,2.744753" style="fill: white" /><polygon type="contour" points="5.074557,4.742199 5.083198,4.742066 5.161026,4.742162 5.236603,4.742387 5.802382,4.742387 5.976485,4.742259 5.995149,4.742275 6.18645,4.74225 6.183036,4.853637 6.187756,4.999722 6.191817,4.999709 6.183036,5.139661 6.195026,5.279879 6.183284,5.313086 6.181922,5.330682 5.977922,5.330283 5.897423,5.329875 5.873518,5.329743 5.763701,5.330276 5.600662,5.32913 5.596266,5.329064 5.540933,5.329338 5.53451,5.329458 5.53267,5.329119 5.470727,5.329519 5.445808,5.329984 5.443251,5.33011 5.432699,5.330716 5.430259,5.331086 5.407901,5.331416 5.402205,5.331544 5.390388,5.331794 5.386055,5.331918 5.370188,5.33197 5.34674,5.346742 5.332021,5.370106 5.331792,5.39039 5.331541,5.402207 5.331414,5.407903 5.331083,5.430261 5.330713,5.432701 5.330107,5.443253 5.329981,5.44581 5.329516,5.470729 5.32989,5.473918 5.329736,5.483795 5.329289,5.564883 5.329062,5.596267 5.329128,5.600665 5.330275,5.763703 5.329741,5.87352 5.329873,5.897425 5.330281,5.977924 5.330679,6.181923 5.313083,6.183286 5.279877,6.195028 5.139659,6.183038 4.999706,6.19182 4.999747,6.184533 4.878023,6.199923 4.742365,6.205633 4.742273,5.995153 4.742385,5.802384 4.742385,5.236606 4.742158,5.161026 4.742063,5.0832 4.74207,5.068707 4.74215,5.056898 4.742141,5.048229 4.742079,5.042116 4.742111,4.938034 4.742092,4.938035 4.742382,4.780055 4.742382,4.742385 4.921463,4.742094 5.000039,4.742094 5.04451,4.742097 5.0518,4.742101 5.061818,4.742063" style="fill: white" /><polygon type="contour" points="3.404504,4.921464 3.404504,5.00004 3.404484,5.038773 3.404452,5.046408 3.404471,5.061517 3.404371,5.0832 3.404169,5.161026 3.403915,5.802385 3.404279,5.976488 3.404349,5.995152 3.403587,6.197749 3.085095,6.179174 3.078061,6.179682 3.075491,6.18 2.840237,6.194768 2.840124,5.890926 2.840247,5.790375 2.840178,5.763472 2.840197,5.600951 2.840192,5.475885 2.935392,5.475885 2.935432,5.387895 2.935283,5.333067 2.875606,5.333067 2.840196,5.332899 2.812247,5.332778 2.81078,5.332751 2.744751,5.332652 2.744751,5.133918 2.745067,4.99977 2.812779,5.000011 2.884706,4.999699 2.935035,5.00006 2.935217,4.776023 2.935246,4.742385 3.07203,4.742696 3.085094,4.742696 3.404509,4.742385" style="fill: white" /><polygon type="contour" points="3.020452,12.937853 3.071353,12.952394 3.075575,12.951346 3.081559,12.952974 3.180673,12.940523 3.403587,12.933955 3.404349,13.136551 3.403915,13.329318 3.404169,13.970675 3.404372,14.048503 3.404471,14.070184 3.404452,14.085293 3.404484,14.092929 3.404504,14.131661 3.404502,14.131661 3.404509,14.351649 3.404509,14.389319 3.085095,14.389007 3.07203,14.389007 2.935245,14.389319 2.935217,14.35568 2.935035,14.131642 2.884706,14.132005 2.880751,14.131694 2.812779,14.131694 2.809484,14.13191 2.745067,14.131935 2.744751,13.997785 2.744751,13.79905 2.812248,13.798926 2.840195,13.798804 2.875817,13.798838 2.935623,13.798838 2.935432,13.743807 2.935391,13.655818 2.840192,13.655818 2.840202,13.56521 2.840256,13.528018 2.840304,13.359969 2.840159,13.218931 2.840199,13.196704 2.840126,13.12459 2.840047,12.918896" style="fill: white" /><polygon type="contour" points="4.843439,12.935233 4.999894,12.942053 4.999886,12.93935 5.139658,12.948664 5.279877,12.936676 5.313084,12.948418 5.33068,12.94978 5.330282,13.153778 5.329874,13.234277 5.32974,13.258183 5.330275,13.368 5.329128,13.531038 5.329062,13.535435 5.329289,13.566819 5.329736,13.647907 5.32989,13.657784 5.329517,13.660973 5.329982,13.685892 5.330107,13.688448 5.330714,13.699003 5.331084,13.701442 5.331414,13.723799 5.331542,13.729496 5.331791,13.741311 5.332021,13.761595 5.346685,13.784927 5.370189,13.799734 5.386056,13.799785 5.390388,13.79991 5.402205,13.80016 5.4079,13.800285 5.430257,13.800617 5.432698,13.800987 5.445806,13.801716 5.470726,13.802183 5.473916,13.801813 5.483794,13.801965 5.564879,13.802412 5.596266,13.802639 5.600662,13.802574 5.763701,13.801428 5.873518,13.801961 5.897423,13.801828 5.977922,13.80142 6.181922,13.801023 6.183284,13.818618 6.195026,13.851826 6.183036,13.992042 6.191817,14.131994 6.181223,14.131935 6.1905,14.258271 6.186449,14.389454 5.99515,14.389429 5.802381,14.389318 5.236603,14.389318 5.161025,14.389543 5.083199,14.389638 5.074556,14.389504 5.061819,14.389641 5.051799,14.389602 4.941716,14.389615 4.780053,14.389319 4.742383,14.389319 4.742092,14.210237 4.742092,14.131661 4.742113,14.089468 4.742141,14.083471 4.74215,14.074804 4.74207,14.062994 4.742064,14.048503 4.742159,13.970674 4.742385,13.895097 4.742385,13.329318 4.742258,13.155216 4.742273,13.13655 4.742365,12.926071" style="fill: white" /><polygon type="contour" points="4.921463,15.727197 5.00004,15.727197 5.040427,15.727318 5.050144,15.727304 5.067716,15.727231 5.083199,15.72733 5.161025,15.727531 5.802382,15.727785 5.976486,15.727423 5.995149,15.727354 6.193495,15.727592 6.180274,16.028636 6.179172,16.046608 6.18175,16.067355 6.196632,16.110027 6.212341,16.29159 6.007201,16.291476 5.934997,16.291501 5.91277,16.291542 5.771734,16.291398 5.603681,16.291445 5.566489,16.291499 5.475882,16.291508 5.475882,16.196308 5.387892,16.196271 5.332863,16.196079 5.332863,16.255882 5.332897,16.291502 5.332776,16.319454 5.332749,16.320922 5.33265,16.386951 5.133916,16.386952 4.999767,16.386636 5.000008,16.318922 4.999698,16.246995 5.000059,16.196666 4.776021,16.196485 4.742383,16.196457 4.742695,16.059672 4.742695,16.046607 4.742383,15.727194" style="fill: white" /><polygon type="contour" points="3.403554,16.046608 3.403554,16.059671 3.404509,16.196457 3.078062,16.196441 3.078109,16.248657 3.07801,16.318922 3.07829,16.322218 3.078363,16.38654 2.95926,16.386816 2.957995,16.387034 2.744891,16.386811 2.744891,16.337726 2.745208,16.195997 2.745067,16.053433 2.81278,16.053692 2.880751,16.053692 2.883044,16.053594 2.93526,16.053641 2.935198,15.780698 2.935246,15.727194 3.07203,15.728145 3.085095,15.728145 3.404509,15.727194" style="fill: white" />
</svg>
