<svg width="19.131698" height="19.131699">
<polygon type="contour" points="9.679194,8.452019 9.711101,8.452141 9.711101,8.736114 9.4206,8.736114 9.4206,8.452141 9.452351,8.452019 9.565998,8.448834" style="fill: white" /><polygon type="contour" points="9.287733,9.711102 9.191206,9.711102 9.191206,9.420602 9.287733,9.420602" style="fill: white" /><polygon type="contour" points="9.287733,9.843968 9.287733,9.895738 9.287806,9.940497 9.248515,9.940515 9.191188,9.940515 9.191206,9.897324 9.191206,9.843896 9.234378,9.843896" style="fill: white" /><polygon type="contour" points="9.234377,10.165743 9.287806,10.165743 9.287417,10.210061 9.287268,10.264517 9.23565,10.264517 9.191131,10.264423 9.191188,10.224191 9.191188,10.165619" style="fill: white" /><polygon type="contour" points="9.287268,10.395748 9.287423,10.457803 9.287423,10.512198 9.234267,10.512147 9.234378,10.512426 9.191188,10.512348 9.191131,10.460279 9.191131,10.395507 9.234212,10.395507" style="fill: white" /><polygon type="contour" points="8.966084,10.442556 8.966084,10.512348 8.91635,10.512506 8.867205,10.51265 8.867205,10.395806 8.920904,10.395806 8.966294,10.395507" style="fill: white" /><polygon type="contour" points="8.735777,10.456458 8.735961,10.57029 8.736224,10.576869 8.736224,10.628111 8.734209,10.681503 8.575833,10.679521 8.451624,10.680078 8.451966,10.589419 8.452034,10.396023 8.492148,10.396023 8.588448,10.395924 8.735777,10.395924" style="fill: white" /><polygon type="contour" points="8.736193,10.210061 8.735893,10.264497 8.619053,10.264497 8.619223,10.210062 8.619355,10.165619 8.671422,10.165409 8.736193,10.165409" style="fill: white" /><polygon type="contour" points="8.907507,10.165619 8.966084,10.165619 8.966294,10.210061 8.966294,10.264423 8.921639,10.264423 8.867205,10.264497 8.867184,10.21894 8.867277,10.210062 8.867277,10.165409" style="fill: white" /><polygon type="contour" points="8.736112,9.712196 8.675913,9.711102 8.447724,9.711102 8.448368,9.66868 8.448863,9.565502 8.448368,9.462819 8.447724,9.420602 8.736112,9.420602" style="fill: white" /><polygon type="contour" points="8.735952,9.844435 8.735952,9.896051 8.736193,9.940572 8.689144,9.940515 8.619355,9.940515 8.619256,9.891785 8.61917,9.843969 8.673745,9.843969" style="fill: white" /><polygon type="contour" points="8.966084,9.883186 8.966084,9.940515 8.92164,9.940572 8.867277,9.940572 8.867277,9.89749 8.867184,9.844435 8.921639,9.844286 8.965958,9.843896" style="fill: white" /><polygon type="contour" points="8.965958,9.711102 8.92164,9.712045 8.867205,9.712236 8.867205,9.420602 8.965958,9.420602" style="fill: white" /><polygon type="contour" points="8.907508,9.191189 8.966084,9.191189 8.965958,9.234378 8.965958,9.287808 8.921639,9.288362 8.867205,9.289614 8.867205,9.23667 8.867277,9.191132" style="fill: white" /><polygon type="contour" points="8.736193,9.235156 8.735952,9.2884 8.673746,9.287735 8.61917,9.287735 8.619277,9.234378 8.619355,9.191189 8.671422,9.191132 8.736193,9.191132" style="fill: white" /><polygon type="contour" points="8.735894,8.920906 8.736193,8.966295 8.689144,8.966086 8.619355,8.966086 8.619196,8.916352 8.619053,8.867207 8.735894,8.867207" style="fill: white" /><polygon type="contour" points="8.92164,8.867279 8.966294,8.867279 8.966084,8.907511 8.966084,8.966085 8.921639,8.966295 8.867277,8.966295 8.867277,8.921641 8.867205,8.867207 8.912759,8.867187" style="fill: white" /><polygon type="contour" points="8.736224,8.503592 8.735961,8.561413 8.735961,8.637587 8.735777,8.735779 8.675243,8.735779 8.578522,8.73568 8.452034,8.73568 8.451966,8.542285 8.451624,8.451626 8.575834,8.452183 8.734209,8.450198" style="fill: white" /><polygon type="contour" points="8.921639,8.619224 8.966084,8.619357 8.966294,8.671424 8.966294,8.736195 8.92164,8.736195 8.867205,8.735895 8.867205,8.619054" style="fill: white" /><polygon type="contour" points="9.287733,8.673747 9.288398,8.735954 9.235649,8.735954 9.191131,8.736195 9.191188,8.689146 9.191188,8.619357 9.239917,8.619256 9.287733,8.619171" style="fill: white" /><polygon type="contour" points="9.28836,8.921641 9.287806,8.96596 9.248515,8.966086 9.191188,8.966086 9.191131,8.921641 9.191131,8.867279 9.235154,8.867279 9.288398,8.867187" style="fill: white" /><polygon type="contour" points="9.234378,9.191207 9.287806,9.191207 9.287806,9.234378 9.287732,9.287735 9.235963,9.287735 9.191206,9.287808 9.191188,9.248517 9.191188,9.191189" style="fill: white" /><polygon type="contour" points="9.940494,9.234379 9.940494,9.287808 9.897323,9.287808 9.843967,9.287734 9.843967,9.235965 9.843895,9.191207 9.883184,9.191189 9.940512,9.191189" style="fill: white" /><polygon type="contour" points="9.711101,9.287735 9.4206,9.287735 9.4206,9.191207 9.711101,9.191207" style="fill: white" /><polygon type="contour" points="9.711101,8.96596 9.4206,8.96596 9.4206,8.867207 9.711101,8.867207" style="fill: white" /><polygon type="contour" points="9.940569,8.867279 9.940512,8.907511 9.940512,8.966086 9.897323,8.96596 9.843894,8.96596 9.843341,8.921641 9.843303,8.867187 9.896049,8.867187" style="fill: white" /><polygon type="contour" points="9.897323,8.619278 9.940512,8.619357 9.940569,8.671424 9.940569,8.736195 9.896545,8.736195 9.843303,8.735954 9.843967,8.673747 9.843967,8.619171" style="fill: white" /><polygon type="contour" points="10.555865,8.452183 10.680076,8.451626 10.679734,8.542285 10.679666,8.73568 10.639551,8.73568 10.543251,8.735779 10.395922,8.735779 10.395922,8.675245 10.395738,8.561414 10.395476,8.554833 10.395476,8.503591 10.397491,8.450198" style="fill: white" /><polygon type="contour" points="10.512477,8.92164 10.512346,8.966086 10.460277,8.966295 10.395506,8.966295 10.395506,8.921641 10.395804,8.867207 10.512648,8.867207" style="fill: white" /><polygon type="contour" points="10.264495,8.735896 10.210796,8.735896 10.165407,8.736195 10.165617,8.689146 10.165617,8.619357 10.21535,8.619197 10.264495,8.619053" style="fill: white" /><polygon type="contour" points="10.264495,8.912584 10.264421,8.921641 10.264421,8.966295 10.22419,8.966086 10.165617,8.966086 10.165407,8.92164 10.165407,8.867279 10.210059,8.867279 10.264495,8.867207" style="fill: white" /><polygon type="contour" points="10.264421,9.235156 10.264495,9.289614 10.210059,9.288362 10.165741,9.287808 10.165617,9.248517 10.165617,9.191189 10.210059,9.191132 10.264421,9.191132" style="fill: white" /><polygon type="contour" points="10.442555,9.191189 10.512346,9.191189 10.512445,9.239918 10.512531,9.287735 10.457953,9.287735 10.395747,9.2884 10.395747,9.235652 10.395506,9.191132" style="fill: white" /><polygon type="contour" points="10.683332,9.463023 10.682838,9.566202 10.683332,9.668884 10.683976,9.711102 10.395587,9.711102 10.395587,9.420602 10.683976,9.420602" style="fill: white" /><polygon type="contour" points="10.553178,10.396023 10.679666,10.396023 10.679734,10.589419 10.680076,10.680078 10.555866,10.679521 10.397491,10.681503 10.395476,10.628111 10.395738,10.57029 10.395738,10.494115 10.395922,10.395924 10.456457,10.395924" style="fill: white" /><polygon type="contour" points="10.264495,10.395806 10.264495,10.51265 10.210059,10.512479 10.165617,10.512348 10.165407,10.460278 10.165407,10.395507 10.210059,10.395507" style="fill: white" /><polygon type="contour" points="10.264421,10.210062 10.264495,10.264497 10.219115,10.264497 10.210058,10.264423 10.165407,10.264423 10.165617,10.224192 10.165617,10.165619 10.210058,10.165409 10.264421,10.165409" style="fill: white" /><polygon type="contour" points="10.442555,10.165619 10.512346,10.165619 10.512504,10.215352 10.512648,10.264497 10.395804,10.264497 10.395804,10.210798 10.395506,10.165409" style="fill: white" /><polygon type="contour" points="10.457953,9.843969 10.512531,9.843969 10.512423,9.897325 10.512346,9.940515 10.460277,9.940572 10.395506,9.940572 10.395506,9.896547 10.395747,9.843304" style="fill: white" /><polygon type="contour" points="10.264495,9.711102 10.165741,9.711102 10.165741,9.420602 10.264495,9.420602" style="fill: white" /><polygon type="contour" points="10.264495,9.895032 10.264421,9.940572 10.224191,9.940515 10.165617,9.940515 10.165741,9.897325 10.165741,9.843896 10.210059,9.843341 10.264495,9.84209" style="fill: white" /><polygon type="contour" points="9.940512,9.883186 9.940512,9.940515 9.897322,9.940497 9.843895,9.940497 9.843895,9.897325 9.843967,9.843969 9.895736,9.843969 9.940494,9.843896" style="fill: white" /><polygon type="contour" points="9.940494,9.711102 9.843967,9.711102 9.843967,9.420602 9.940494,9.420602" style="fill: white" /><polygon type="contour" points="9.711101,9.711102 9.4206,9.711102 9.4206,9.420602 9.711101,9.420602" style="fill: white" /><polygon type="contour" points="9.711101,9.940497 9.4206,9.940497 9.4206,9.843969 9.711101,9.843969" style="fill: white" /><polygon type="contour" points="9.711101,10.264497 9.419467,10.264497 9.4206,10.211429 9.4206,10.165743 9.711101,10.165743" style="fill: white" /><polygon type="contour" points="9.940569,10.210061 9.940569,10.264423 9.896545,10.264423 9.842088,10.264497 9.843341,10.210062 9.843895,10.165743 9.883185,10.165619 9.940512,10.165619" style="fill: white" /><polygon type="contour" points="9.940512,10.442556 9.940512,10.512348 9.891782,10.512447 9.843967,10.512533 9.843967,10.457955 9.843303,10.395748 9.89605,10.395748 9.940569,10.395507" style="fill: white" /><polygon type="contour" points="9.711101,10.679563 9.679194,10.679685 9.565501,10.68287 9.452351,10.679685 9.4206,10.679563 9.4206,10.542194 9.419872,10.455649 9.419507,10.395589 9.711101,10.395589" style="fill: white" />
</svg>
