<svg width="19.131698" height="19.131699">
<polygon type="contour" points="9.566198,8.332994 9.671842,8.335463 9.738042,8.335465 9.738042,8.404018 9.735712,8.517187 9.736245,8.612158 9.395455,8.612158 9.395988,8.517187 9.393659,8.404018 9.393659,8.335464 9.453545,8.332737" style="fill: white" /><polygon type="contour" points="8.5978,8.335273 8.612348,8.335849 8.611718,8.513602 8.611452,8.611453 8.572439,8.611524 8.406319,8.611588 8.334887,8.611588 8.332454,8.534605 8.331865,8.520384 8.328016,8.482505 8.32763,8.327631" style="fill: white" /><polygon type="contour" points="8.995909,8.502602 8.998992,8.50259 9.001864,8.502617 9.099248,8.502741 9.099248,8.59621 9.099324,8.612252 9.001865,8.61248 8.995908,8.61246 8.90378,8.611997 8.90378,8.502508" style="fill: white" /><polygon type="contour" points="8.41475,9.393991 8.612156,9.395457 8.612186,9.635301 8.612186,9.736217 8.588414,9.736075 8.335127,9.737993 8.334872,9.732931 8.332952,9.565502 8.334872,9.398757 8.335127,9.39371" style="fill: white" /><polygon type="contour" points="8.612458,8.99591 8.612468,9.002065 8.612124,9.085109 8.612124,9.099778 8.596485,9.099704 8.502739,9.099251 8.502617,9.001867 8.502589,8.998992 8.502601,8.99591 8.502507,8.903781 8.611996,8.903781" style="fill: white" /><polygon type="contour" points="8.995909,9.396503 8.998991,9.39651 9.001865,9.396519 9.099248,9.395835 9.099458,9.656788 9.099458,9.736018 9.001864,9.735185 8.998991,9.735193 8.995909,9.7352 8.90416,9.736157 8.90416,9.647076 8.90378,9.435915 8.90378,9.395642" style="fill: white" /><polygon type="contour" points="9.09951,8.995909 9.099488,9.001867 9.099248,9.084326 9.099248,9.099251 9.001864,9.099491 8.995909,9.099512 8.90378,9.099629 8.903892,9.002236 8.903892,8.99591 8.90378,8.917109 8.90378,8.903781 8.995909,8.903893 9.002235,8.903893 9.099627,8.903781" style="fill: white" /><polygon type="contour" points="9.735199,8.99591 9.735191,8.998992 9.735183,9.001866 9.735867,9.084325 9.735867,9.099251 9.395833,9.099251 9.396517,9.001866 9.396508,8.998992 9.396501,8.99591 9.395633,8.917148 9.395639,8.903781 9.736156,8.903781" style="fill: white" /><polygon type="contour" points="10.798108,8.546644 10.796813,8.611588 10.701648,8.611588 10.570763,8.611387 10.520249,8.611453 10.519649,8.445157 10.519284,8.33572 10.5339,8.335273 10.80407,8.327631" style="fill: white" /><polygon type="contour" points="10.796829,9.398771 10.798748,9.566202 10.796829,9.732946 10.796574,9.737993 10.71695,9.737712 10.519545,9.736247 10.519515,9.496402 10.519515,9.395487 10.543286,9.395629 10.796574,9.393711" style="fill: white" /><polygon type="contour" points="10.629099,8.99591 10.629111,8.998992 10.629083,9.001867 10.628954,9.099226 10.51945,9.099226 10.519224,9.001866 10.519242,8.99591 10.519705,8.903781 10.629193,8.903781" style="fill: white" /><polygon type="contour" points="10.230833,8.596471 10.230833,8.612125 10.135823,8.61247 10.129835,8.61248 10.047424,8.612252 10.032478,8.612252 10.032453,8.59621 10.032453,8.502741 10.129836,8.502617 10.132708,8.50259 10.135791,8.502602 10.22792,8.502508" style="fill: white" /><polygon type="contour" points="10.227808,8.99591 10.227808,9.002235 10.22792,9.099533 10.135792,9.099512 10.129835,9.09949 10.047377,9.099251 10.032453,9.099251 10.032211,9.001867 10.03219,8.995909 10.032169,8.903781 10.129466,8.903893 10.135791,8.903893 10.214592,8.903781 10.22792,8.903781" style="fill: white" /><polygon type="contour" points="10.22754,9.484627 10.22792,9.695788 10.22792,9.736062 10.135791,9.7352 10.132709,9.735193 10.129835,9.735185 10.032453,9.735869 10.032242,9.474914 10.032242,9.395686 10.129835,9.396519 10.132709,9.39651 10.135791,9.396503 10.22754,9.395547" style="fill: white" /><polygon type="contour" points="9.736078,9.736079 9.395623,9.736079 9.395623,9.395626 9.736078,9.395626" style="fill: white" /><polygon type="contour" points="9.735183,10.129838 9.735191,10.132712 9.735199,10.135795 9.736066,10.214555 9.73606,10.227923 9.39564,10.227923 9.396501,10.135794 9.396508,10.132712 9.396517,10.129837 9.395833,10.047378 9.395833,10.032454 9.735867,10.032454" style="fill: white" /><polygon type="contour" points="10.799245,10.597099 10.799832,10.611319 10.803683,10.649199 10.80407,10.804072 10.5339,10.796431 10.519353,10.795856 10.519983,10.6181 10.520249,10.52025 10.559261,10.52018 10.725379,10.520117 10.796813,10.520117" style="fill: white" /><polygon type="contour" points="10.535215,10.032 10.628961,10.032454 10.629083,10.129837 10.629111,10.132712 10.629099,10.135794 10.629193,10.227923 10.519704,10.227923 10.519242,10.135794 10.519233,10.129639 10.519577,10.046595 10.519577,10.031927" style="fill: white" /><polygon type="contour" points="10.227808,10.129469 10.227808,10.135794 10.22792,10.214594 10.22792,10.227923 10.135791,10.227811 10.129465,10.227811 10.032074,10.227923 10.03219,10.135795 10.032211,10.129837 10.032453,10.047378 10.032453,10.032454 10.129836,10.032212 10.135791,10.032192 10.22792,10.032075" style="fill: white" /><polygon type="contour" points="10.135792,10.519244 10.22792,10.519708 10.22792,10.629196 10.135791,10.629102 10.132708,10.629114 10.129836,10.629086 10.032453,10.628963 10.032453,10.535493 10.032377,10.519453 10.129835,10.519225" style="fill: white" /><polygon type="contour" points="9.735712,10.614517 9.738042,10.727685 9.738042,10.796239 9.678154,10.798968 9.5655,10.798711 9.459858,10.796241 9.393659,10.796239 9.395988,10.614517 9.395455,10.519547 9.736245,10.519547" style="fill: white" /><polygon type="contour" points="9.084276,10.519453 9.099324,10.519453 9.099248,10.535493 9.099248,10.628963 9.001864,10.629086 8.998992,10.629114 8.995909,10.629102 8.90378,10.629196 8.90378,10.519708 8.995908,10.519244 9.001865,10.519225" style="fill: white" /><polygon type="contour" points="8.995908,10.032191 9.001864,10.032212 9.084324,10.032454 9.099248,10.032454 9.099489,10.129837 9.09951,10.135794 9.099627,10.227923 9.002235,10.227811 8.995909,10.227811 8.917108,10.227923 8.90378,10.227923 8.903892,10.135794 8.903892,10.129468 8.90378,10.03217" style="fill: white" /><polygon type="contour" points="8.612251,10.032479 8.612477,10.129837 8.612467,10.135826 8.612124,10.230835 8.596471,10.230835 8.502507,10.227923 8.502601,10.135794 8.502589,10.132712 8.502617,10.129837 8.502746,10.032378 8.596195,10.032378" style="fill: white" /><polygon type="contour" points="8.572439,10.52018 8.611452,10.52025 8.61205,10.686546 8.612417,10.795984 8.5978,10.79643 8.32763,10.804072 8.333591,10.58506 8.334887,10.520117 8.40632,10.520117" style="fill: white" />
</svg>
