<svg width="19.131698" height="19.131699">
<polygon type="contour" points="7.832299,6.988803 8.003098,6.988803 8.003098,6.928295 8.085698,6.928295 8.085698,6.988803 8.256501,6.988803 8.256501,6.928295 8.339801,6.928295 8.339801,6.988803 8.5099,6.988803 8.5099,6.928295 8.5932,6.928295 8.5932,6.988803 8.763301,6.988803 8.763301,6.928295 8.846601,6.928295 8.846601,6.988803 9.0167,6.988803 9.0167,6.928295 9.099999,6.928295 9.099999,6.988803 9.270799,6.988803 9.270799,6.928295 9.319013,6.928294 9.3534,6.928294 9.3534,6.988803 9.524199,6.988803 9.524199,6.928295 9.57785,6.928957 9.607499,6.928646 9.607499,6.988803 9.7783,6.988803 9.7783,6.928295 9.860902,6.928295 9.860902,6.988803 10.031701,6.988803 10.031701,6.928295 10.115001,6.928295 10.115001,6.988803 10.2851,6.988803 10.2851,6.928295 10.3684,6.928295 10.3684,6.988803 10.538501,6.988803 10.538501,6.928295 10.6218,6.928295 10.6218,6.988803 10.7919,6.988803 10.7919,6.928295 10.875199,6.928295 10.875199,6.988802 11.045999,6.988802 11.045999,6.928295 11.128598,6.928295 11.128598,6.988803 11.299401,6.988803 11.299401,6.928295 11.382701,6.928295 11.382701,6.988803 11.5528,6.988803 11.5528,6.928295 11.6361,6.928295 11.6361,6.988803 11.806201,6.988803 11.806201,6.928295 11.889501,6.928295 11.889501,6.988803 12.0596,6.988803 12.0596,6.928295 12.1429,6.928295 12.1429,6.988803 12.203407,6.988803 12.203407,7.072102 12.1429,7.072102 12.1429,7.2422 12.203408,7.242203 12.203407,7.290824 12.203407,7.325502 12.1429,7.325502 12.1429,7.495601 12.203407,7.495601 12.203407,7.578901 12.1429,7.578901 12.1429,7.749001 12.203407,7.749001 12.203408,7.797623 12.203408,7.832301 12.1429,7.832301 12.1429,8.0031 12.203407,8.0031 12.203407,8.085701 12.1429,8.085701 12.1429,8.256503 12.203407,8.256503 12.203407,8.339802 12.1429,8.339802 12.1429,8.509903 12.203408,8.509903 12.203407,8.558525 12.203407,8.593203 12.1429,8.593203 12.1429,8.763303 12.203407,8.763303 12.203407,8.846602 12.1429,8.846602 12.1429,9.016702 12.203408,9.016702 12.203407,9.065324 12.203407,9.100001 12.1429,9.100001 12.1429,9.270802 12.203407,9.270802 12.203407,9.353401 12.1429,9.353401 12.1429,9.524201 12.203407,9.524201 12.202744,9.577852 12.203055,9.607501 12.1429,9.607501 12.1429,9.778303 12.203407,9.778303 12.203407,9.860903 12.1429,9.860903 12.1429,10.031703 12.203407,10.031703 12.203407,10.115003 12.1429,10.115003 12.1429,10.285102 12.203407,10.285102 12.203407,10.368402 12.1429,10.368402 12.1429,10.538502 12.203407,10.538502 12.203407,10.621801 12.1429,10.621801 12.1429,10.791902 12.203407,10.791902 12.203407,10.875201 12.1429,10.875201 12.1429,11.046 12.203407,11.046 12.203407,11.128601 12.1429,11.128601 12.1429,11.299403 12.203407,11.299403 12.203407,11.382703 12.1429,11.382703 12.1429,11.552803 12.203407,11.552803 12.203407,11.636103 12.1429,11.636103 12.1429,11.806202 12.203407,11.806202 12.203407,11.889502 12.1429,11.889502 12.1429,12.059602 12.203407,12.059602 12.203407,12.142901 12.1429,12.142901 12.1429,12.203409 12.0596,12.203409 12.0596,12.142901 11.889501,12.142901 11.889501,12.203409 11.806201,12.203409 11.806201,12.142901 11.6361,12.142901 11.6361,12.203409 11.5528,12.203409 11.5528,12.142901 11.382701,12.142901 11.382701,12.203409 11.299401,12.203409 11.299401,12.142901 11.128598,12.142901 11.128598,12.203409 11.045999,12.203409 11.045999,12.142901 10.875199,12.142901 10.875199,12.203409 10.7919,12.203409 10.7919,12.142901 10.6218,12.142901 10.6218,12.203409 10.538501,12.203409 10.538501,12.142901 10.3684,12.142901 10.3684,12.203409 10.2851,12.203409 10.2851,12.142901 10.115001,12.142901 10.115001,12.203409 10.031701,12.203409 10.031701,12.142901 9.860902,12.142901 9.860902,12.203409 9.7783,12.203409 9.7783,12.142901 9.607499,12.142901 9.607499,12.203409 9.553847,12.202747 9.524199,12.203058 9.524199,12.142901 9.3534,12.142901 9.3534,12.203409 9.270799,12.203409 9.270799,12.142901 9.099999,12.142901 9.099999,12.203409 9.0167,12.203409 9.0167,12.142901 8.920331,12.142902 8.846601,12.142902 8.846601,12.203409 8.763301,12.203409 8.763301,12.142901 8.5932,12.142901 8.5932,12.203409 8.5099,12.203409 8.5099,12.142901 8.339801,12.142901 8.339801,12.203409 8.256501,12.203409 8.256501,12.142901 8.085698,12.142901 8.085698,12.203409 8.003098,12.203409 8.003098,12.142901 7.832299,12.142901 7.832299,12.203409 7.748999,12.203409 7.748999,12.142901 7.5789,12.142901 7.5789,12.203409 7.4956,12.203409 7.4956,12.142901 7.325499,12.142901 7.325499,12.203409 7.2422,12.203409 7.2422,12.142901 7.0721,12.142901 7.0721,12.203409 6.988801,12.203409 6.988801,12.142901 6.928294,12.142901 6.928294,12.059602 6.988801,12.059602 6.988801,11.889502 6.928294,11.889502 6.928294,11.806202 6.988801,11.806202 6.988801,11.636103 6.928294,11.636103 6.928294,11.552803 6.988801,11.552803 6.988801,11.382703 6.928294,11.382703 6.928294,11.299403 6.988801,11.299403 6.988801,11.128601 6.928294,11.128601 6.928294,11.046 6.988801,11.046 6.988801,10.875201 6.928294,10.875201 6.928294,10.791902 6.988801,10.791902 6.988801,10.621801 6.928294,10.621801 6.928294,10.538502 6.988801,10.538502 6.988801,10.368402 6.928294,10.368402 6.928294,10.285102 6.988801,10.285102 6.988801,10.115003 6.928294,10.115003 6.928294,10.031703 6.988801,10.031703 6.988801,9.860903 6.928294,9.860903 6.928294,9.778303 6.988801,9.778303 6.988801,9.607501 6.928294,9.607501 6.928956,9.553849 6.928645,9.524201 6.988801,9.524201 6.988801,9.353401 6.928294,9.353401 6.928294,9.270802 6.988801,9.270802 6.988801,9.100001 6.928294,9.100001 6.928294,9.016702 6.988801,9.016702 6.988801,8.846602 6.928294,8.846602 6.928294,8.763303 6.988801,8.763303 6.988801,8.593203 6.928294,8.593203 6.928294,8.509903 6.988801,8.509903 6.988801,8.339802 6.928294,8.339802 6.928294,8.256503 6.988801,8.256503 6.988801,8.085701 6.928294,8.085701 6.928294,8.0031 6.988801,8.0031 6.988801,7.832301 6.928294,7.832301 6.928294,7.749001 6.988801,7.749001 6.988801,7.578901 6.928294,7.578901 6.928294,7.495601 6.988801,7.495601 6.988801,7.325502 6.928294,7.325502 6.928294,7.242202 6.988801,7.242202 6.988801,7.072102 6.928294,7.072102 6.928294,6.988803 6.988801,6.988803 6.988801,6.928294 7.037423,6.928295 7.0721,6.928295 7.0721,6.988803 7.2422,6.988803 7.2422,6.928295 7.325499,6.928295 7.325499,6.988803 7.4956,6.988803 7.4956,6.928295 7.5789,6.928295 7.5789,6.988803 7.748999,6.988803 7.748999,6.928295 7.797621,6.928294 7.832299,6.928294" style="fill: white" />
</svg>
