<svg width="19.131698" height="19.131699">
<polygon type="contour" points="11.168075,8.033138 11.166781,8.238205 10.998941,8.238205 10.999101,8.328903 10.998979,8.401397 10.968203,8.401397 10.825533,8.401347 10.825533,8.401371 10.802798,8.401371 10.730306,8.401397 10.730306,8.373861 10.730358,8.238469 10.730332,8.238468 10.730332,8.21306 10.730306,8.132227 10.802798,8.1326 10.893575,8.132756 10.893439,8.038841 10.894221,8.033528 10.896235,7.961684 11.106493,7.963374 11.170562,7.961142" style="fill: white" /><polygon type="contour" points="10.893232,10.73036 10.893233,10.730334 10.918641,10.730334 10.998978,10.730308 10.9991,10.8028 10.998941,10.893443 11.166725,10.893443 11.167647,11.049535 11.170562,11.170563 11.106493,11.16833 10.896235,11.17002 10.893439,11.092863 10.893439,10.998947 10.802798,10.999103 10.730306,10.99898 10.730306,10.968205 10.730355,10.825535 10.730332,10.825535 10.730332,10.8028 10.730306,10.730308 10.757841,10.730308" style="fill: white" /><polygon type="contour" points="9.721715,10.730308 9.899505,10.730308 10.191954,10.730364 10.191954,10.730352 10.215982,10.730352 10.297448,10.730308 10.297448,10.757842 10.297667,10.825535 10.297667,10.918643 10.297448,10.99898 10.215982,10.999105 10.128323,10.999352 10.128323,11.166777 9.913866,11.170221 9.837395,11.170207 9.835478,11.094192 9.835478,10.998403 9.718152,10.998906 9.695274,10.998859 9.695274,10.966063 9.695235,10.89312 9.695235,10.801126 9.695274,10.730227" style="fill: white" /><polygon type="contour" points="9.436208,10.759571 9.436286,10.825468 9.436286,10.920323 9.436208,10.998859 9.366576,10.998595 9.29584,10.998658 9.29622,11.094192 9.295594,11.100026 9.294305,11.170207 9.217833,11.170221 9.003376,11.166777 9.003376,10.999352 8.915718,10.999105 8.834252,10.99898 8.834252,10.968205 8.834033,10.893234 8.834033,10.8028 8.834252,10.730308 8.864822,10.730308 9.003557,10.730389 9.003557,10.730352 9.070072,10.730352 9.296025,10.730308 9.296025,10.730449 9.366575,10.730247 9.436208,10.730227" style="fill: white" /><polygon type="contour" points="8.025206,7.963374 8.235465,7.961684 8.238261,8.038841 8.238261,8.132756 8.328901,8.132601 8.401395,8.132227 8.401395,8.163001 8.401345,8.306169 8.401369,8.306169 8.401369,8.328903 8.401395,8.401397 8.373859,8.401397 8.238467,8.401344 8.238467,8.401371 8.213058,8.401371 8.132225,8.401397 8.132599,8.328903 8.132759,8.238261 7.964976,8.238261 7.964053,8.082169 7.961139,7.961142" style="fill: white" /><polygon type="contour" points="9.294305,7.961497 9.29622,8.037511 9.29622,8.132697 9.413544,8.132273 9.436208,8.132361 9.436208,8.165157 9.436286,8.238583 9.436286,8.330577 9.436208,8.401476 9.40998,8.401397 9.232191,8.401397 8.939746,8.401338 8.939746,8.401351 8.915718,8.401351 8.834252,8.401397 8.834252,8.373861 8.834033,8.306169 8.834033,8.213059 8.834252,8.132227 8.915718,8.132599 9.003376,8.132351 9.003376,7.964927 9.217833,7.961482" style="fill: white" /><polygon type="contour" points="10.128323,7.964927 10.128323,8.132351 10.215981,8.132599 10.297448,8.132227 10.297448,8.163002 10.297667,8.238468 10.297667,8.328902 10.297448,8.401397 10.266877,8.401397 10.128143,8.401311 10.128143,8.401351 10.061627,8.401351 9.835672,8.401396 9.835672,8.401258 9.764958,8.401457 9.695274,8.401476 9.695274,8.372132 9.695235,8.306235 9.695235,8.211378 9.695274,8.132361 9.764958,8.132572 9.835856,8.132399 9.835478,8.03751 9.836106,8.031677 9.837395,7.961496 9.913866,7.961483" style="fill: white" /><polygon type="contour" points="10.297448,8.834253 10.297448,8.864825 10.297654,8.939747 10.297654,9.070074 10.297364,9.327395 10.297442,9.366741 10.297502,9.436426 10.26492,9.436426 10.191991,9.436489 10.05674,9.436489 9.835564,9.436446 9.764957,9.436446 9.695274,9.436426 9.695274,9.408377 9.695255,9.345443 9.695256,9.345443 9.695256,9.227495 9.695214,9.003497 9.695214,8.913955 9.695274,8.834199 9.721715,8.834253 9.786345,8.834302 9.899505,8.834302 10.128143,8.834049 10.215981,8.834049" style="fill: white" /><polygon type="contour" points="10.998979,8.834253 10.999104,8.915719 10.999348,9.00342 11.11411,9.00342 11.166708,9.00336 11.166742,9.060114 11.166856,9.295933 10.9984,9.295933 10.998904,9.413547 10.998857,9.436426 10.966061,9.436426 10.893117,9.436467 10.801125,9.436467 10.730226,9.436425 10.730306,9.409983 10.730305,9.345352 10.730305,9.232192 10.730363,8.939747 10.730351,8.939747 10.730351,8.915719 10.730306,8.834253 10.757841,8.834253 10.825533,8.834036 10.918642,8.834036" style="fill: white" /><polygon type="contour" points="10.998857,9.695491 10.998593,9.765124 10.998656,9.83574 11.11608,9.83574 11.151331,9.835789 11.166879,9.835789 11.166825,9.88929 11.166708,10.128342 10.999348,10.128342 10.999104,10.215984 10.998979,10.297451 10.968203,10.297451 10.893232,10.297668 10.802799,10.297668 10.730306,10.297451 10.730306,10.266879 10.730389,10.128144 10.730351,10.128145 10.730351,10.061629 10.730305,9.835675 10.730446,9.835675 10.730244,9.765124 10.730226,9.695492 10.75957,9.695492 10.825466,9.695416 10.920322,9.695416" style="fill: white" /><polygon type="contour" points="10.297502,9.695492 10.297448,9.721717 10.2974,9.786349 10.2974,9.899507 10.297654,10.128145 10.297654,10.215984 10.297448,10.297451 10.266876,10.297451 10.191953,10.297655 10.061627,10.297655 9.804257,10.297366 9.764957,10.297444 9.695274,10.297505 9.695274,10.264923 9.695214,10.191992 9.695214,10.056741 9.695256,9.835566 9.695256,9.765124 9.695274,9.695492 9.723323,9.695492 9.786254,9.695422 9.904202,9.695422 10.128203,9.695385 10.217746,9.695385" style="fill: white" /><polygon type="contour" points="9.296133,9.695422 9.366575,9.695422 9.436208,9.695492 9.436208,9.723326 9.43628,9.786256 9.43628,9.904205 9.436316,10.128204 9.436316,10.217748 9.436208,10.297505 9.409981,10.297451 9.345351,10.297402 9.232192,10.297402 9.003556,10.297655 8.915718,10.297655 8.834252,10.297451 8.834252,10.266879 8.834046,10.191956 8.834046,10.061628 8.834335,9.804218 8.834258,9.765124 8.834198,9.695492 8.866779,9.695492 8.939708,9.695385 9.074959,9.695385" style="fill: white" /><polygon type="contour" points="9.327527,8.834337 9.366576,8.834259 9.436208,8.834199 9.436208,8.86678 9.436316,8.939709 9.436316,9.07496 9.43628,9.296134 9.43628,9.366741 9.436208,9.436426 9.408374,9.436426 9.345442,9.436446 9.227494,9.436446 9.003496,9.436489 8.913953,9.436489 8.834198,9.436426 8.834252,9.409984 8.8343,9.345352 8.8343,9.232193 8.834046,9.003558 8.834046,8.915719 8.834252,8.834253 8.864823,8.834253 8.939746,8.834049 9.070071,8.834049" style="fill: white" /><polygon type="contour" points="8.401395,8.834253 8.401395,8.864825 8.401309,9.003558 8.401349,9.003557 8.401349,9.070074 8.401396,9.296027 8.401255,9.296027 8.401457,9.36674 8.401475,9.436426 8.37213,9.436426 8.306235,9.436467 8.211376,9.436467 8.132359,9.436426 8.13257,9.366741 8.132401,9.295933 8.015735,9.295933 7.980369,9.295912 7.964822,9.295912 7.964875,9.242411 7.964992,9.00336 8.132349,9.00336 8.132597,8.915719 8.132225,8.834253 8.163,8.834253 8.238467,8.834036 8.328901,8.834036" style="fill: white" /><polygon type="contour" points="8.238582,9.695416 8.330575,9.695416 8.401474,9.695492 8.401394,9.721718 8.401396,9.786348 8.401396,9.899507 8.401335,10.191956 8.401349,10.191956 8.401349,10.215983 8.401395,10.297451 8.373858,10.297451 8.306166,10.297668 8.213057,10.297668 8.132225,10.297451 8.132597,10.215984 8.132349,10.128342 7.964992,10.128342 7.964957,10.071587 7.964844,9.835768 8.132697,9.835768 8.132272,9.718154 8.132359,9.695492 8.165155,9.695492 8.238582,9.695415" style="fill: white" /><polygon type="contour" points="8.306167,10.730357 8.306167,10.730334 8.328902,10.730334 8.401395,10.730308 8.401395,10.757842 8.401342,10.893234 8.401369,10.893235 8.401369,10.918643 8.401395,10.99898 8.328902,10.999103 8.238124,10.998947 8.238261,11.092862 8.237479,11.098174 8.235465,11.170019 8.025206,11.16833 7.961139,11.170563 7.963625,11.098564 7.964919,10.893498 8.132759,10.893498 8.1326,10.8028 8.132225,10.730308 8.162999,10.730308" style="fill: white" />
</svg>
