<svg width="19.131698" height="19.131699">
<polygon type="contour" points="10.45556,10.151448 10.455896,10.267989 10.45617,10.297759 10.459223,10.459225 10.187492,10.456737 10.152365,10.455883 10.151346,10.422139 10.151346,10.389131 10.15121,10.383993 10.151317,10.189396 10.151367,10.151369 10.186252,10.151369" style="fill: white" /><polygon type="contour" points="9.711101,10.455533 9.652017,10.455476 9.636287,10.455815 9.565501,10.457671 9.479399,10.455476 9.4206,10.455533 9.4206,10.185462 9.42052,10.166475 9.42052,10.166395 9.420439,10.150749 9.711101,10.150749" style="fill: white" /><polygon type="contour" points="9.711101,9.711102 9.4206,9.711102 9.4206,9.420602 9.711101,9.420602" style="fill: white" /><polygon type="contour" points="9.711101,9.998888 9.420426,9.998888 9.4206,9.987673 9.4206,9.864892 9.711101,9.864892" style="fill: white" /><polygon type="contour" points="9.954115,10.150694 9.998886,10.150871 9.998886,10.288683 9.954115,10.288594 9.931591,10.288586 9.908782,10.288575 9.874202,10.288661 9.864889,10.288644 9.864862,10.166422 9.864768,10.150749 9.875136,10.150749 9.907279,10.15063" style="fill: white" /><polygon type="contour" points="10.167458,9.864892 10.288642,9.864892 10.288575,9.908784 10.288584,9.931594 10.288592,9.954117 10.288693,9.989289 10.288682,9.998888 10.15087,9.998888 10.15087,9.987643 10.150694,9.954118 10.150676,9.908784 10.150835,9.864792" style="fill: white" /><polygon type="contour" points="9.998989,9.875787 9.999082,9.908784 9.999024,9.954117 9.998886,9.998888 9.987641,9.998888 9.954115,9.999026 9.908781,9.999084 9.864789,9.998991 9.864792,9.954749 9.864792,9.908784 9.864889,9.864892 9.875749,9.864892 9.908781,9.864795 9.954747,9.864795 9.998989,9.864792" style="fill: white" /><polygon type="contour" points="9.998886,9.711102 9.864889,9.711102 9.864889,9.420602 9.954116,9.420602 9.998886,9.420428" style="fill: white" /><polygon type="contour" points="10.45617,8.833944 10.455896,8.863714 10.45556,8.980257 10.380156,8.980257 10.186251,8.980336 10.151367,8.980336 10.151367,8.964582 10.151317,8.942308 10.15121,8.806743 10.15121,8.74771 10.151346,8.709563 10.151364,8.70648 10.152365,8.675821 10.187492,8.674966 10.459223,8.672479" style="fill: white" /><polygon type="contour" points="10.288591,9.177587 10.288584,9.20011 10.288575,9.22292 10.28866,9.257498 10.288642,9.266813 10.167457,9.266813 10.150835,9.266742 10.150835,9.255916 10.150676,9.22292 10.150694,9.177587 10.15087,9.132816 10.288682,9.132816" style="fill: white" /><polygon type="contour" points="10.166421,9.420602 10.45867,9.420602 10.45831,9.495153 10.457709,9.565892 10.458017,9.630117 10.45867,9.711102 10.150748,9.711102 10.150748,9.420441" style="fill: white" /><polygon type="contour" points="9.711101,9.14403 9.711101,9.266813 9.4206,9.266813 9.4206,9.132816 9.711275,9.132816" style="fill: white" /><polygon type="contour" points="9.954116,9.132678 9.998886,9.132815 9.998989,9.212015 9.999082,9.22292 9.998989,9.266742 9.954748,9.26691 9.908781,9.26691 9.864889,9.266813 9.864889,9.255952 9.864792,9.22292 9.864792,9.176952 9.86496,9.132712 9.908782,9.132619" style="fill: white" /><polygon type="contour" points="9.998886,8.843021 9.998886,8.980833 9.987641,8.980833 9.954116,8.981008 9.908781,8.981027 9.86496,8.980867 9.864908,8.964187 9.864908,8.843056 9.908782,8.843128 9.931591,8.843118 9.954116,8.84311 9.989287,8.84301" style="fill: white" /><polygon type="contour" points="9.652301,8.676228 9.711101,8.67617 9.711101,8.946241 9.711181,8.965228 9.711262,8.980955 9.4206,8.980955 9.4206,8.67617 9.479683,8.676228 9.495413,8.675886 9.565898,8.674033" style="fill: white" /><polygon type="contour" points="8.944207,8.674966 8.979336,8.675821 8.980355,8.709564 8.980355,8.742572 8.980491,8.747711 8.980384,8.942308 8.980334,8.980336 8.945448,8.980336 8.676139,8.980257 8.675803,8.863713 8.67553,8.833945 8.672477,8.672479" style="fill: white" /><polygon type="contour" points="9.177584,8.84311 9.200109,8.843118 9.222918,8.843128 9.257497,8.843043 9.266812,8.843061 9.266839,8.965281 9.266933,8.980955 9.256563,8.980955 9.224421,8.981073 9.177585,8.981009 9.132814,8.980832 9.132814,8.843021" style="fill: white" /><polygon type="contour" points="9.268004,9.132816 9.267536,9.177586 9.266909,9.22292 9.266812,9.266813 9.255951,9.266813 9.222919,9.26691 9.176951,9.26691 9.13271,9.266913 9.13271,9.255916 9.132617,9.222919 9.132676,9.177586 9.132814,9.132816 9.144059,9.132816 9.177584,9.132678 9.222976,9.132678" style="fill: white" /><polygon type="contour" points="8.980831,9.144061 8.981008,9.177586 8.981025,9.22292 8.980866,9.266913 8.964242,9.266813 8.843059,9.266813 8.843126,9.22292 8.843116,9.20011 8.843108,9.177587 8.843008,9.142413 8.843019,9.132816 8.980831,9.132816" style="fill: white" /><polygon type="contour" points="8.980866,9.875788 8.981025,9.908784 8.981008,9.954118 8.980831,9.998888 8.843019,9.998888 8.843107,9.954118 8.843117,9.931593 8.843126,9.908784 8.843041,9.874206 8.843059,9.864892 8.964242,9.864892 8.980866,9.864792" style="fill: white" /><polygon type="contour" points="8.980953,9.711102 8.67303,9.711102 8.67339,9.636551 8.673991,9.566201 8.673683,9.501978 8.67303,9.420602 8.980953,9.420602" style="fill: white" /><polygon type="contour" points="9.266812,9.711102 9.132814,9.711102 9.132814,9.420602 9.266812,9.420602" style="fill: white" /><polygon type="contour" points="9.177584,9.864166 9.222919,9.864795 9.266812,9.864892 9.266812,9.875752 9.266909,9.908784 9.266909,9.95475 9.266741,9.998991 9.222918,9.999084 9.177584,9.999026 9.132814,9.998888 9.132814,9.919834 9.132675,9.908726 9.132814,9.863698" style="fill: white" /><polygon type="contour" points="9.266741,10.150837 9.266793,10.167431 9.266793,10.288648 9.222918,10.288576 9.200109,10.288586 9.177585,10.288593 9.142411,10.288694 9.132814,10.288683 9.132814,10.150871 9.144058,10.150871 9.177584,10.150695 9.222919,10.150677" style="fill: white" /><polygon type="contour" points="8.980334,10.167122 8.980383,10.189396 8.980491,10.32496 8.980491,10.383993 8.980354,10.42214 8.980337,10.425223 8.979336,10.455883 8.944207,10.456738 8.672477,10.459225 8.67553,10.297758 8.675803,10.26799 8.676139,10.151448 8.751543,10.151448 8.945449,10.151369 8.980334,10.151369" style="fill: white" />
</svg>
