<svg width="19.131698" height="19.131699">
<polygon type="contour" points="13.175226,6.044388 13.17744,6.247948 12.999361,6.251098 12.999266,6.371336 12.999221,6.454131 12.999216,6.455896 12.998008,6.455896 12.952039,6.455791 12.760365,6.45579 12.675806,6.455896 12.675806,6.45378 12.675912,6.371334 12.675912,6.179662 12.675806,6.132486 12.67757,6.132481 12.760367,6.132435 12.880431,6.132342 12.880429,5.975402 12.880417,5.95803 12.976444,5.957868 13.178272,5.95343" style="fill: white" /><polygon type="contour" points="12.999216,7.538462 12.999216,7.54068 12.999152,7.573151 12.99909,7.779565 13.117402,7.779565 13.146896,7.779518 13.173839,7.779518 13.174056,7.796183 13.17678,8.065713 12.968239,8.068682 12.880423,8.069928 12.871384,8.06993 12.760366,8.06989 12.675806,8.069829 12.675806,8.066901 12.675835,8.034097 12.675835,7.57315 12.675806,7.538462 12.677921,7.538462 12.760366,7.538357 12.95204,7.538357" style="fill: white" /><polygon type="contour" points="11.593241,7.538462 11.593241,7.541251 11.5933,7.57315 11.5933,8.034097 11.593241,8.069829 11.591023,8.069821 11.558551,8.06988 11.352184,8.070018 11.344196,8.069621 11.071134,8.060567 11.074035,7.876868 11.06208,7.787505 11.061682,7.779517 11.06182,7.57315 11.061879,7.540681 11.061871,7.538462 11.064798,7.538462 11.097601,7.538404 11.558552,7.538404" style="fill: white" /><polygon type="contour" points="11.335518,5.957646 11.352184,5.957862 11.352184,5.984806 11.352176,6.01746 11.352176,6.132731 11.558552,6.132549 11.591022,6.132486 11.593241,6.132486 11.593241,6.133692 11.593346,6.179662 11.593346,6.371336 11.593241,6.455896 11.590453,6.455896 11.558551,6.455868 11.097602,6.455868 11.061871,6.455896 11.061811,6.371335 11.061771,6.260315 11.061774,6.251276 11.062987,6.163765 11.065941,5.954777" style="fill: white" /><polygon type="contour" points="6.455894,7.538462 6.455894,7.541251 6.455865,7.57315 6.455865,8.034098 6.455894,8.069829 6.371333,8.06989 6.260313,8.06993 6.251274,8.069928 6.163762,8.068716 5.954774,8.065761 5.957644,7.796183 5.957861,7.779518 5.984805,7.779518 6.017459,7.779526 6.132728,7.779526 6.132548,7.57315 6.132485,7.538462 6.133691,7.538462 6.17966,7.538357 6.371334,7.538357" style="fill: white" /><polygon type="contour" points="6.247342,5.957836 6.251275,5.958 6.251269,5.975402 6.251269,6.132342 6.371333,6.132434 6.454129,6.132481 6.455894,6.132486 6.455894,6.133692 6.455789,6.179662 6.455789,6.371336 6.455894,6.455896 6.453778,6.455896 6.371334,6.455791 6.17966,6.455791 6.132485,6.455896 6.132479,6.454131 6.132433,6.371336 6.132338,6.251098 5.954261,6.247948 5.956475,6.044388 5.953427,5.95343 6.040364,5.943931" style="fill: white" /><polygon type="contour" points="8.068681,6.163463 8.069926,6.251276 8.069928,6.260314 8.069887,6.371335 8.069826,6.455896 8.066897,6.455896 8.034095,6.455868 7.573147,6.455868 7.538459,6.455896 7.538459,6.45378 7.538354,6.371336 7.538354,6.179661 7.538459,6.132486 7.540677,6.132486 7.573148,6.13255 7.779525,6.132731 7.779525,6.01746 7.779517,5.957862 7.854162,5.957288 8.065711,5.954922" style="fill: white" /><polygon type="contour" points="8.069825,7.538462 8.069817,7.540681 8.069877,7.57315 8.069987,7.747749 8.070017,7.779518 8.068588,7.839025 8.059707,7.949153 8.060565,8.060567 7.876865,8.057667 7.787504,8.069621 7.779516,8.070018 7.573148,8.06988 7.540678,8.06982 7.538459,8.069828 7.538459,8.066901 7.538401,8.034097 7.538401,7.57315 7.538459,7.538462 7.541248,7.538462 7.573147,7.538404 8.034094,7.538404" style="fill: white" /><polygon type="contour" points="7.839023,11.063115 7.949151,11.071992 8.060565,11.071136 8.068588,11.292677 8.070017,11.352186 8.069987,11.383954 8.069876,11.558553 8.069826,11.593242 8.066898,11.593242 8.034094,11.593301 7.573147,11.593301 7.538459,11.593242 7.538459,11.590454 7.538401,11.558552 7.538401,11.097602 7.538459,11.061872 7.540678,11.06188 7.573147,11.061821 7.747748,11.061715 7.779516,11.061686" style="fill: white" /><polygon type="contour" points="6.371333,11.061812 6.455894,11.061872 6.455894,11.064799 6.455865,11.097602 6.455865,11.558553 6.455894,11.593242 6.453778,11.593242 6.371334,11.593347 6.17966,11.593347 6.132485,11.593242 6.132485,11.591023 6.132549,11.558553 6.132728,11.352178 6.017459,11.352178 5.957861,11.352186 5.957287,11.277539 5.95492,11.065989 6.163459,11.063021 6.251275,11.061776 6.260313,11.061773" style="fill: white" /><polygon type="contour" points="6.17966,12.675914 6.371334,12.675914 6.455894,12.675808 6.455894,12.677923 6.455789,12.760366 6.455789,12.95204 6.455894,12.999218 6.454129,12.999223 6.371333,12.999269 6.251269,12.999361 6.251269,13.156301 6.251282,13.173675 6.155256,13.173835 5.953427,13.178274 5.956475,13.087316 5.954261,12.883755 6.132338,12.880603 6.132433,12.760366 6.13248,12.677572 6.132484,12.675808 6.133691,12.675808" style="fill: white" /><polygon type="contour" points="7.573147,12.675837 8.034095,12.675837 8.069826,12.675808 8.069819,12.677572 8.069886,12.760366 8.069928,12.871386 8.069926,12.880425 8.068713,12.967939 8.06576,13.176927 7.85384,13.174484 7.779517,13.173842 7.779564,13.117404 7.779564,12.999092 7.573147,12.999154 7.538459,12.999218 7.538459,12.99801 7.538354,12.95204 7.538354,12.760366 7.538459,12.675808 7.541248,12.675808" style="fill: white" /><polygon type="contour" points="11.097601,12.675837 11.558552,12.675837 11.593241,12.675808 11.593241,12.677923 11.593346,12.760366 11.593346,12.95204 11.593241,12.999218 11.591022,12.999218 11.558552,12.999154 11.352137,12.999092 11.352137,13.117404 11.352184,13.173842 11.335518,13.174057 11.065988,13.176782 11.063019,12.968241 11.061773,12.880424 11.061771,12.871386 11.061811,12.760366 11.061871,12.675808 11.064798,12.675808" style="fill: white" /><polygon type="contour" points="11.558551,11.061821 11.591023,11.061879 11.593241,11.061871 11.593241,11.064799 11.5933,11.097602 11.5933,11.558553 11.593241,11.593242 11.590453,11.593242 11.558551,11.593301 11.097601,11.593301 11.06187,11.593242 11.061878,11.591024 11.06182,11.558552 11.061682,11.352186 11.062079,11.344199 11.071134,11.071136 11.254834,11.074037 11.344195,11.062083 11.352184,11.061686" style="fill: white" /><polygon type="contour" points="12.880424,11.061776 12.967938,11.062988 13.176926,11.065943 13.174483,11.277861 13.173839,11.352186 12.99909,11.352186 12.999152,11.558553 12.999216,11.591023 12.999216,11.593242 12.998009,11.593242 12.952039,11.593348 12.760366,11.593348 12.675806,11.593242 12.675806,11.590453 12.675835,11.558553 12.675835,11.097602 12.675806,11.061872 12.677571,11.061879 12.760365,11.061812 12.871385,11.061773" style="fill: white" /><polygon type="contour" points="12.760366,12.675914 12.952039,12.675914 12.999216,12.675808 12.999221,12.677572 12.999266,12.760366 12.999361,12.880603 13.17744,12.883755 13.175226,13.087315 13.178272,13.178274 13.091336,13.187773 12.884356,13.173868 12.880424,13.173704 12.880429,13.156301 12.880429,12.999362 12.760366,12.999269 12.67757,12.999223 12.675806,12.999218 12.675806,12.99801 12.675912,12.952041 12.675912,12.760366 12.675806,12.675808 12.67792,12.675808" style="fill: white" />
</svg>
