<svg width="19.131698" height="19.131699">
<polygon type="contour" points="8.319169,8.130155 8.403391,8.131093 8.405354,8.1828 8.405482,8.1877 8.405637,8.245739 8.405637,8.315522 8.405411,8.405413 8.365227,8.405413 8.24972,8.405589 8.133772,8.405589 8.133141,8.347748 8.126686,8.126688" style="fill: white" /><polygon type="contour" points="10.99856,10.783956 11.005014,11.005016 10.81253,11.001549 10.728309,11.00061 10.726346,10.948904 10.726218,10.944003 10.726064,10.885964 10.726064,10.816182 10.72629,10.726292 10.766472,10.726292 10.881979,10.726115 10.997929,10.726115" style="fill: white" /><polygon type="contour" points="10.518776,10.203353 10.519062,10.263535 10.493245,10.263418 10.414073,10.263418 10.41398,10.238242 10.41398,10.16701 10.442147,10.165624 10.518776,10.165323" style="fill: white" /><polygon type="contour" points="10.763854,10.167268 10.830125,10.167268 10.830011,10.238242 10.830058,10.263418 10.802113,10.263535 10.725197,10.263535 10.725197,10.236386 10.725384,10.165323" style="fill: white" /><polygon type="contour" points="10.750885,10.414076 10.830058,10.414076 10.830114,10.481324 10.830043,10.518743 10.790134,10.518743 10.725429,10.520596 10.725429,10.480144 10.725197,10.414066" style="fill: white" /><polygon type="contour" points="10.519062,10.442148 10.518741,10.518743 10.478564,10.518743 10.414063,10.519064 10.414073,10.493246 10.414073,10.414076 10.442146,10.414066 10.519062,10.414066" style="fill: white" /><polygon type="contour" points="10.520594,10.725431 10.518741,10.790136 10.518741,10.830045 10.442146,10.830013 10.414073,10.83006 10.414063,10.802114 10.414063,10.725199 10.442147,10.725199" style="fill: white" /><polygon type="contour" points="10.263416,10.750886 10.263416,10.83006 10.200683,10.830198 10.167267,10.830127 10.165322,10.791048 10.165322,10.725387 10.20335,10.725387 10.263533,10.725199" style="fill: white" /><polygon type="contour" points="9.954838,10.726292 9.954823,10.765865 9.954823,10.829332 9.954905,10.911397 9.954905,10.998005 9.836487,11.000378 9.664113,11.000314 9.662782,10.948172 9.6625,10.94329 9.6625,10.830883 9.567627,10.829531 9.563385,10.829531 9.469201,10.830883 9.469201,10.943289 9.467587,11.000313 9.272295,10.998015 9.176795,10.998005 9.176795,10.945469 9.176878,10.829332 9.174975,10.726292 9.310081,10.726292 9.564178,10.725227 9.564179,10.725227 9.567775,10.725211" style="fill: white" /><polygon type="contour" points="9.954261,10.479061 9.954281,10.518743 9.821965,10.518743 9.566836,10.51908 9.563197,10.519084 9.175545,10.518743 9.177439,10.479061 9.177354,10.413983 9.261204,10.414076 9.566789,10.414081 9.573004,10.414075 9.954346,10.413983" style="fill: white" /><polygon type="contour" points="10.190577,10.414076 10.263416,10.414076 10.263533,10.442149 10.263533,10.519064 10.236384,10.519064 10.165322,10.518777 10.165621,10.442148 10.167007,10.413983" style="fill: white" /><polygon type="contour" points="10.263416,10.190578 10.263416,10.263418 10.23824,10.263428 10.167008,10.263428 10.167008,10.238243 10.167267,10.167268 10.202639,10.167268 10.263425,10.16701" style="fill: white" /><polygon type="contour" points="9.954315,10.167268 9.954315,10.202641 9.954346,10.263428 9.870496,10.263418 9.566611,10.26288 9.55801,10.262881 9.177354,10.263428 9.177386,10.20264 9.177386,10.167268 9.304676,10.167268 9.566829,10.166978 9.567757,10.166977" style="fill: white" /><polygon type="contour" points="9.564185,9.177837 9.573004,9.177837 9.954681,9.177021 9.954681,9.310001 9.953865,9.564873 9.953865,9.573692 9.954681,9.954683 9.8217,9.954683 9.566828,9.953867 9.55801,9.953867 9.177019,9.954683 9.177019,9.821703 9.177835,9.567517 9.177835,9.558698 9.177019,9.177021 9.310001,9.177021" style="fill: white" /><polygon type="contour" points="10.99856,8.347747 10.997929,8.405589 10.881979,8.405589 10.766472,8.405413 10.72629,8.405413 10.72629,8.36523 10.726064,8.245739 10.726218,8.241315 10.726218,8.187701 10.728309,8.131093 10.81253,8.130155 11.005014,8.126688" style="fill: white" /><polygon type="contour" points="10.238239,8.301691 10.263416,8.301643 10.263533,8.329587 10.263533,8.406505 10.237694,8.406505 10.167158,8.406317 10.167267,8.367848 10.167267,8.301577" style="fill: white" /><polygon type="contour" points="10.518741,8.301659 10.518741,8.406392 10.478563,8.406392 10.414063,8.406505 10.414073,8.380816 10.414073,8.301643 10.481321,8.301587" style="fill: white" /><polygon type="contour" points="10.519062,8.894007 10.518776,8.964545 10.442146,8.96477 10.41398,8.964694 10.414073,8.941124 10.414073,8.868286 10.442147,8.86817 10.519062,8.86817" style="fill: white" /><polygon type="contour" points="10.518741,8.612962 10.518776,8.678147 10.519062,8.689555 10.519062,8.717639 10.493245,8.717628 10.414073,8.717628 10.414063,8.689555 10.414063,8.612639 10.442146,8.612639" style="fill: white" /><polygon type="contour" points="10.830011,8.689554 10.830058,8.717628 10.802113,8.717639 10.725197,8.717639 10.725197,8.689554 10.725309,8.612962 10.830043,8.612962" style="fill: white" /><polygon type="contour" points="10.750884,8.868286 10.830058,8.868286 10.830196,8.931018 10.830125,8.964435 10.791045,8.964545 10.725385,8.964545 10.725385,8.928352 10.725197,8.86817" style="fill: white" /><polygon type="contour" points="10.765864,9.17688 10.933266,9.177021 10.997733,9.177021 10.998046,9.257972 10.998659,9.46868 10.980201,9.468707 10.97663,9.46883 10.831386,9.469437 10.82953,9.564868 10.82953,9.568317 10.831144,9.662355 10.954996,9.662874 10.97663,9.662874 10.998659,9.663025 10.998368,9.743875 10.997733,9.954683 10.82933,9.954825 10.72629,9.95484 10.72629,9.821621 10.725214,9.564867 10.72521,9.563901 10.72629,9.174977" style="fill: white" /><polygon type="contour" points="10.518741,9.309737 10.519077,9.564866 10.519081,9.568479 10.51874,9.954283 10.479059,9.954263 10.41398,9.954348 10.414073,9.870498 10.414079,9.564921 10.414073,9.558698 10.41398,9.177356 10.442147,9.176032 10.518741,9.175546" style="fill: white" /><polygon type="contour" points="10.263416,9.261206 10.262878,9.565091 10.262879,9.573692 10.263424,9.954348 10.23824,9.954348 10.167267,9.954317 10.167267,9.827027 10.166976,9.564874 10.166975,9.563945 10.167267,9.177388 10.202639,9.177388 10.263425,9.177356" style="fill: white" /><polygon type="contour" points="9.954315,8.929062 9.954315,8.964436 9.827024,8.964436 9.566829,8.964723 9.566828,8.964723 9.563248,8.964726 9.177386,8.964436 9.177386,8.929063 9.177354,8.868277 9.261203,8.868286 9.564401,8.868823 9.573004,8.868822 9.954346,8.868277" style="fill: white" /><polygon type="contour" points="10.190576,8.868286 10.263416,8.868286 10.263425,8.893461 10.263425,8.964694 10.23824,8.964694 10.167267,8.964436 10.167267,8.929062 10.167008,8.868277" style="fill: white" /><polygon type="contour" points="10.263416,8.638453 10.263416,8.717628 10.238239,8.717722 10.167008,8.717722 10.166932,8.689555 10.167158,8.612927 10.203351,8.612927 10.263533,8.612639" style="fill: white" /><polygon type="contour" points="9.956156,8.612962 9.954261,8.652644 9.954346,8.717722 9.870497,8.717628 9.564223,8.717622 9.558009,8.717629 9.177354,8.717722 9.177439,8.652643 9.17742,8.612962 9.309736,8.612962 9.566836,8.61262 9.567807,8.612619" style="fill: white" /><polygon type="contour" points="9.467587,8.13139 9.468918,8.183531 9.469201,8.188413 9.469201,8.300817 9.563386,8.302173 9.567627,8.302173 9.6625,8.300818 9.6625,8.188414 9.664113,8.13139 9.859404,8.133689 9.954905,8.1337 9.954905,8.186235 9.954822,8.30237 9.956725,8.405413 9.821619,8.405413 9.564179,8.406486 9.563229,8.40649 9.176863,8.405413 9.176878,8.365837 9.176878,8.302371 9.176795,8.220306 9.176795,8.1337 9.295212,8.131326" style="fill: white" /><polygon type="contour" points="8.964434,8.301577 8.966379,8.340655 8.966379,8.406317 8.92835,8.406317 8.868168,8.406505 8.868285,8.380817 8.868285,8.301642 8.931017,8.301505" style="fill: white" /><polygon type="contour" points="8.717638,8.329587 8.717638,8.406505 8.689554,8.406505 8.611106,8.406273 8.61296,8.341567 8.61296,8.301659 8.689554,8.30169 8.717627,8.301643" style="fill: white" /><polygon type="contour" points="8.406271,8.651558 8.406503,8.717639 8.380813,8.717628 8.301642,8.717628 8.301585,8.65038 8.301657,8.612962 8.341565,8.612962 8.406271,8.611108" style="fill: white" /><polygon type="contour" points="8.406503,8.895317 8.406315,8.966381 8.367845,8.964436 8.301574,8.964436 8.30169,8.893462 8.301642,8.868285 8.329586,8.86817 8.406503,8.86817" style="fill: white" /><polygon type="contour" points="8.638452,8.868286 8.717627,8.868286 8.717721,8.893462 8.717721,8.964694 8.689553,8.96608 8.612925,8.966381 8.612925,8.928351 8.612637,8.86817" style="fill: white" /><polygon type="contour" points="8.717627,8.638454 8.717627,8.717628 8.689553,8.717639 8.612637,8.717639 8.612637,8.689555 8.61296,8.612962 8.653136,8.612962 8.717638,8.612639" style="fill: white" /><polygon type="contour" points="8.966379,8.612927 8.966079,8.689555 8.964692,8.717722 8.941122,8.717628 8.868285,8.717628 8.868168,8.689554 8.868168,8.612639 8.895316,8.612639" style="fill: white" /><polygon type="contour" points="8.964692,8.893461 8.964434,8.964436 8.929061,8.964436 8.868276,8.964694 8.868285,8.941125 8.868285,8.868286 8.89346,8.868277 8.964692,8.868277" style="fill: white" /><polygon type="contour" points="8.964434,9.177388 8.964434,9.304677 8.964722,9.564874 8.964725,9.568454 8.964434,9.954317 8.92906,9.954317 8.868276,9.954348 8.868285,9.870499 8.868821,9.567301 8.86882,9.558698 8.868276,9.177356 8.89346,9.177356" style="fill: white" /><polygon type="contour" points="8.717627,9.261205 8.71762,9.567471 8.717627,9.573692 8.717721,9.954348 8.689553,9.955672 8.61296,9.956158 8.61296,9.821966 8.612624,9.567524 8.612624,9.567523 8.612619,9.563921 8.61296,9.177421 8.652641,9.177441 8.717721,9.177356" style="fill: white" /><polygon type="contour" points="8.405411,9.310083 8.406484,9.567524 8.406488,9.568499 8.405411,9.956728 8.365836,9.954825 8.198433,9.954683 8.133967,9.954683 8.133654,9.873732 8.133042,9.663025 8.151499,9.662998 8.15507,9.662874 8.300311,9.662265 8.30217,9.567524 8.30217,9.564076 8.300556,9.469347 8.176703,9.468831 8.15507,9.468831 8.133042,9.46868 8.133331,9.387829 8.133967,9.177021 8.302369,9.17688 8.405411,9.176865" style="fill: white" /><polygon type="contour" points="8.406315,10.203352 8.406503,10.263535 8.380814,10.263418 8.301642,10.263418 8.301503,10.200683 8.301574,10.167268 8.340654,10.167159 8.406315,10.167159" style="fill: white" /><polygon type="contour" points="8.717627,10.750886 8.717627,10.83006 8.650377,10.830116 8.61296,10.830045 8.611106,10.765613 8.611106,10.725431 8.651556,10.725431 8.717638,10.725199" style="fill: white" /><polygon type="contour" points="8.964543,10.725387 8.964434,10.763854 8.964434,10.830127 8.893461,10.830013 8.868285,10.83006 8.868168,10.802115 8.868168,10.725199 8.894006,10.725199" style="fill: white" /><polygon type="contour" points="8.964768,10.442149 8.964543,10.518777 8.928349,10.518777 8.868168,10.519064 8.868285,10.493247 8.868285,10.414076 8.893461,10.413983 8.964692,10.413983" style="fill: white" /><polygon type="contour" points="8.964434,10.167268 8.964434,10.20264 8.964692,10.263428 8.941122,10.263418 8.868285,10.263418 8.868276,10.238242 8.868276,10.16701 8.89346,10.16701" style="fill: white" /><polygon type="contour" points="8.717721,10.16701 8.717627,10.190579 8.717627,10.263418 8.689553,10.263535 8.612637,10.263535 8.612637,10.237698 8.612925,10.167159 8.689554,10.166934" style="fill: white" /><polygon type="contour" points="8.638452,10.414076 8.717627,10.414076 8.717638,10.442149 8.717638,10.519064 8.689554,10.519064 8.61296,10.518743 8.612925,10.453557 8.612637,10.442148 8.612637,10.414066" style="fill: white" /><polygon type="contour" points="8.406503,10.442149 8.406271,10.520596 8.366088,10.520596 8.301657,10.518743 8.30169,10.442149 8.301642,10.414076 8.329587,10.414066 8.406503,10.414066" style="fill: white" /><polygon type="contour" points="8.365227,10.726292 8.405411,10.726292 8.405411,10.766473 8.405637,10.885964 8.405483,10.890387 8.405483,10.944003 8.403391,11.00061 8.319169,11.001549 8.126686,11.005016 8.133141,10.783955 8.133772,10.726115 8.24972,10.726115" style="fill: white" />
</svg>
