<svg width="19.131698" height="19.131699">
<polygon type="contour" points="12.656722,10.783951 12.662517,10.784785 12.717837,10.785026 12.777456,10.785612 12.776232,10.870953 12.776377,10.871088 12.775539,10.918009 12.773949,11.025694 12.774477,11.07373 12.715646,11.073739 12.485622,11.073739 12.485518,10.917675 12.48555,10.783042" style="fill: white" /><polygon type="contour" points="12.336097,10.782054 12.335913,10.91776 12.335629,11.073779 12.172435,11.073779 12.128458,11.073676 12.128713,10.917761 12.128956,10.782028 12.255146,10.782028" style="fill: white" /><polygon type="contour" points="12.172434,11.196582 12.335629,11.196582 12.33566,11.266444 12.33593,11.463732 12.273464,11.463732 12.128814,11.463815 12.128814,11.376834 12.128459,11.196579" style="fill: white" /><polygon type="contour" points="12.600744,11.395378 12.600463,11.463815 12.562892,11.463815 12.484917,11.463732 12.48495,11.266443 12.48517,11.196578 12.60067,11.196578" style="fill: white" /><polygon type="contour" points="12.778559,12.612186 12.785745,12.785746 12.535722,12.776174 12.485782,12.77468 12.485782,12.622221 12.485865,12.574055 12.485865,12.485867 12.730597,12.485513 12.773776,12.485135" style="fill: white" /><polygon type="contour" points="12.600462,12.128816 12.600702,12.184497 12.600635,12.335917 12.485134,12.335917 12.485134,12.180015 12.484917,12.128731 12.519736,12.128731" style="fill: white" /><polygon type="contour" points="12.335914,12.180015 12.335914,12.335917 12.273464,12.335932 12.128729,12.335932 12.128729,12.273466 12.128813,12.128816 12.196212,12.128816 12.33593,12.128731" style="fill: white" /><polygon type="contour" points="12.180013,12.485137 12.335914,12.485137 12.335914,12.600636 12.184496,12.600703 12.128814,12.600465 12.128814,12.562893 12.128729,12.48492" style="fill: white" /><polygon type="contour" points="11.463813,12.128816 11.463813,12.196214 11.463729,12.335933 11.266442,12.335663 11.19658,12.335632 11.196577,12.281526 11.196577,12.128462 11.266441,12.128462" style="fill: white" /><polygon type="contour" points="11.46373,12.519741 11.463813,12.600465 11.395375,12.600745 11.196576,12.600671 11.196685,12.577305 11.196685,12.485155 11.266441,12.484951 11.46373,12.484921" style="fill: white" /><polygon type="contour" points="11.073737,12.485623 11.073737,12.577744 11.073678,12.589747 11.073678,12.745532 11.073707,12.757721 11.073728,12.774479 11.025509,12.77394 10.918008,12.775541 10.87116,12.776442 10.785558,12.777416 10.785025,12.717839 10.784784,12.662519 10.783949,12.656725 10.783041,12.485552 10.917675,12.485519" style="fill: white" /><polygon type="contour" points="11.073777,12.172438 11.073777,12.335632 10.917759,12.335916 10.782052,12.3361 10.782052,12.215429 10.782027,12.128956 10.917759,12.128716 11.073674,12.128462" style="fill: white" /><polygon type="contour" points="11.073759,11.196578 11.073759,11.410113 11.073674,11.463979 10.917342,11.463764 10.782115,11.463639 10.782115,11.300347 10.781944,11.196364 10.917342,11.196364" style="fill: white" /><polygon type="contour" points="11.266441,11.196579 11.463976,11.196579 11.463976,11.266443 11.463813,11.463815 11.376833,11.463815 11.196577,11.463979 11.196577,11.266444 11.196579,11.253374 11.196576,11.196578" style="fill: white" /><polygon type="contour" points="11.463636,10.782116 11.463761,10.917344 11.463976,11.073676 11.41011,11.073761 11.196576,11.073761 11.196362,10.917344 11.196362,10.781945 11.339428,10.781945" style="fill: white" /><polygon type="contour" points="11.073707,10.782576 11.073707,11.073709 10.782574,11.073709 10.781569,10.916971 10.783581,10.783583 10.846598,10.781931 10.89243,10.781895 10.916968,10.78157" style="fill: white" /><polygon type="contour" points="10.871159,6.35526 10.918008,6.356163 11.025577,6.357753 11.073728,6.357225 11.073728,6.505981 11.073737,6.553958 11.073737,6.646081 10.917675,6.646185 10.783041,6.646151 10.783949,6.474979 10.784784,6.469185 10.785025,6.413862 10.785611,6.354246" style="fill: white" /><polygon type="contour" points="10.917759,6.795787 11.073777,6.796072 11.073777,6.959265 11.073674,7.003242 10.917759,7.002988 10.782027,7.002747 10.782027,6.876553 10.782052,6.795604" style="fill: white" /><polygon type="contour" points="11.463813,6.531239 11.463813,6.568809 11.46373,6.646784 11.266442,6.646753 11.196685,6.646548 11.196685,6.554398 11.196576,6.531033 11.395375,6.530958" style="fill: white" /><polygon type="contour" points="11.46373,6.858235 11.463813,7.002887 11.376833,7.002887 11.196577,7.003242 11.19658,6.959266 11.19658,6.796072 11.266441,6.79604 11.46373,6.795772" style="fill: white" /><polygon type="contour" points="12.180013,6.795787 12.335914,6.795787 12.33593,6.858235 12.33593,7.002972 12.273463,7.002972 12.128812,7.002887 12.128812,6.935489 12.128729,6.795772" style="fill: white" /><polygon type="contour" points="12.335914,6.531066 12.335914,6.646567 12.180013,6.646567 12.128729,6.646784 12.128729,6.611964 12.128814,6.531239 12.184496,6.530999" style="fill: white" /><polygon type="contour" points="12.775066,6.615565 12.773776,6.646567 12.633185,6.646424 12.574054,6.645836 12.485865,6.645836 12.485865,6.357106 12.591968,6.352471 12.785745,6.345958" style="fill: white" /><polygon type="contour" points="12.600701,6.947206 12.600462,7.002887 12.56289,7.002887 12.484917,7.002972 12.485134,6.951687 12.485134,6.795787 12.600635,6.795787" style="fill: white" /><polygon type="contour" points="12.33593,7.667971 12.33566,7.865258 12.335629,7.935121 12.281524,7.935125 12.128459,7.935125 12.128459,7.865258 12.128814,7.667888 12.196212,7.667888" style="fill: white" /><polygon type="contour" points="12.600744,7.736326 12.60067,7.935126 12.577304,7.935017 12.485155,7.935017 12.484949,7.865258 12.484917,7.667971 12.519737,7.667971 12.600462,7.667888" style="fill: white" /><polygon type="contour" points="12.774477,8.057974 12.773972,8.106215 12.775538,8.213694 12.77644,8.260543 12.777414,8.346144 12.717837,8.346677 12.662517,8.346919 12.656722,8.347753 12.48555,8.348662 12.485518,8.214028 12.485622,8.057965 12.715646,8.057965" style="fill: white" /><polygon type="contour" points="12.335913,8.213941 12.336097,8.349649 12.215428,8.349649 12.128956,8.349673 12.128713,8.21394 12.128459,8.058028 12.172435,8.057925 12.335629,8.057925" style="fill: white" /><polygon type="contour" points="11.463976,8.058028 11.46376,8.214358 11.463636,8.349586 11.300344,8.349586 11.196362,8.349758 11.196362,8.214358 11.196576,8.057943 11.41011,8.057943" style="fill: white" /><polygon type="contour" points="11.463813,7.667888 11.463813,7.754869 11.463976,7.935125 11.266441,7.935125 11.253373,7.935121 11.196576,7.935126 11.196577,7.865259 11.196577,7.667724 11.266442,7.667724" style="fill: white" /><polygon type="contour" points="11.073759,7.721591 11.073759,7.935126 10.917342,7.93534 10.781944,7.93534 10.782115,7.831356 10.781988,7.667888 10.996858,7.667724 11.073673,7.667724" style="fill: white" /><polygon type="contour" points="11.073707,8.057995 11.073707,8.349128 10.916969,8.350133 10.783581,8.348121 10.785693,8.070395 10.782774,8.057728 10.917675,8.057728" style="fill: white" /><polygon type="contour" points="8.350131,8.214734 8.349807,8.239272 8.349771,8.285104 8.348389,8.330414 8.348119,8.348121 8.070396,8.34601 8.057727,8.348929 8.057727,8.214028 8.057993,8.057995 8.214024,8.057728 8.348926,8.057728" style="fill: white" /><polygon type="contour" points="7.935338,8.214358 7.935338,8.349758 7.831355,8.349586 7.667886,8.349712 7.667723,8.134844 7.667723,8.058028 7.72159,8.057943 7.935124,8.057943" style="fill: white" /><polygon type="contour" points="7.935123,7.865258 7.935119,7.878328 7.935124,7.935126 7.865257,7.935125 7.667723,7.935125 7.667723,7.865258 7.667886,7.667888 7.754867,7.667888 7.935123,7.667724" style="fill: white" /><polygon type="contour" points="8.214356,7.66794 8.349584,7.668064 8.349584,7.831357 8.349756,7.93534 8.214356,7.93534 8.057941,7.935126 8.057941,7.721591 8.058026,7.667724" style="fill: white" /><polygon type="contour" points="8.349647,6.916273 8.349671,7.002747 8.213939,7.002988 8.058026,7.003242 8.057923,6.959265 8.057923,6.796072 8.213939,6.795787 8.349647,6.795604" style="fill: white" /><polygon type="contour" points="8.346675,6.413863 8.347751,6.474978 8.348659,6.646151 8.214024,6.646185 8.057963,6.646081 8.057963,6.553958 8.058021,6.541956 8.058021,6.386171 8.057992,6.373983 8.057972,6.357225 8.10619,6.357764 8.213693,6.356162 8.260541,6.35526 8.346142,6.354288" style="fill: white" /><polygon type="contour" points="7.935124,6.531033 7.935015,6.554398 7.935015,6.646548 7.865256,6.646753 7.667969,6.646784 7.667969,6.611963 7.667886,6.531239 7.736323,6.530958" style="fill: white" /><polygon type="contour" points="7.865257,6.79604 7.935119,6.796071 7.935123,6.850176 7.935123,7.003242 7.865257,7.003242 7.667886,7.002888 7.667886,6.935489 7.667969,6.795772" style="fill: white" /><polygon type="contour" points="6.595599,6.355345 6.645732,6.356836 6.645741,6.402903 6.645674,6.425721 6.645835,6.557645 6.645835,6.645836 6.401104,6.646189 6.357925,6.646567 6.353141,6.519517 6.345956,6.345958" style="fill: white" /><polygon type="contour" points="7.002885,6.531238 7.002885,6.568809 7.002971,6.646784 6.951686,6.646567 6.795786,6.646567 6.795786,6.531067 6.947205,6.531" style="fill: white" /><polygon type="contour" points="7.002971,6.858236 7.002885,7.002888 6.935486,7.002888 6.795771,7.002972 6.795786,6.951687 6.795786,6.795787 6.858234,6.795772 7.002971,6.795772" style="fill: white" /><polygon type="contour" points="6.646566,6.951687 6.646783,7.002972 6.611962,7.002972 6.531238,7.002888 6.530998,6.947207 6.531065,6.795787 6.646566,6.795787" style="fill: white" /><polygon type="contour" points="6.646783,7.667971 6.64675,7.865258 6.646531,7.935126 6.531031,7.935126 6.530957,7.736326 6.531238,7.667888 6.568808,7.667888" style="fill: white" /><polygon type="contour" points="7.002885,7.754869 7.00324,7.935125 6.959265,7.935121 6.796071,7.935121 6.796039,7.865259 6.795771,7.667971 6.858234,7.667971 7.002885,7.667888" style="fill: white" /><polygon type="contour" points="7.00324,8.058028 7.002986,8.213941 7.002745,8.349673 6.876553,8.349673 6.795603,8.349649 6.795786,8.213941 6.796071,8.057925 6.959265,8.057925" style="fill: white" /><polygon type="contour" points="6.646183,8.214028 6.64615,8.348662 6.474977,8.347753 6.469183,8.346918 6.41386,8.346677 6.354244,8.346091 6.355259,8.260542 6.355323,8.260407 6.35616,8.213695 6.357751,8.10601 6.357223,8.057974 6.416053,8.057965 6.646079,8.057965" style="fill: white" /><polygon type="contour" points="6.646183,10.917675 6.646079,11.073739 6.416053,11.073739 6.357223,11.073729 6.357728,11.025489 6.356161,10.91801 6.355259,10.871162 6.354286,10.78556 6.413861,10.785027 6.474976,10.783951 6.64615,10.783042" style="fill: white" /><polygon type="contour" points="6.64675,11.266443 6.646783,11.463732 6.611962,11.463732 6.531237,11.463815 6.530957,11.395378 6.531031,11.196578 6.646531,11.196578" style="fill: white" /><polygon type="contour" points="7.00324,11.266444 7.002885,11.463815 6.935486,11.463815 6.795771,11.463732 6.796039,11.266443 6.79607,11.196582 6.850175,11.196579 7.00324,11.196579" style="fill: white" /><polygon type="contour" points="7.002986,10.917761 7.00324,11.073676 6.959265,11.073779 6.796071,11.073779 6.795786,10.91776 6.795603,10.782054 6.916272,10.782054 7.002745,10.782028" style="fill: white" /><polygon type="contour" points="8.23927,10.781895 8.285102,10.781931 8.330412,10.783313 8.348118,10.783583 8.349772,10.846601 8.350131,10.91697 8.349126,11.073709 8.057993,11.073709 8.057727,10.917675 8.057727,10.782775 8.214732,10.781571" style="fill: white" /><polygon type="contour" points="7.935338,10.917344 7.935124,11.073761 7.72159,11.073761 7.667723,11.073676 7.667939,10.917344 7.668064,10.782116 7.831354,10.782116 7.935338,10.781945" style="fill: white" /><polygon type="contour" points="7.935123,11.266443 7.935123,11.463979 7.865256,11.463979 7.667886,11.463815 7.667886,11.376834 7.667723,11.196579 7.865256,11.196579 7.878326,11.196581 7.935124,11.196578" style="fill: white" /><polygon type="contour" points="8.349584,11.300346 8.34971,11.463815 8.134841,11.463979 8.058026,11.463979 8.057941,11.410113 8.057941,11.196578 8.214356,11.196364 8.349756,11.196364" style="fill: white" /><polygon type="contour" points="8.348659,12.485552 8.347751,12.656725 8.346917,12.662519 8.346675,12.717839 8.346089,12.777457 8.26054,12.776442 8.213693,12.775541 8.106121,12.773952 8.057972,12.774479 8.057972,12.625722 8.057963,12.577744 8.057963,12.485623 8.214024,12.485519" style="fill: white" /><polygon type="contour" points="8.213939,12.128716 8.349671,12.128957 8.349671,12.255149 8.349647,12.3361 8.213939,12.335916 8.057923,12.335632 8.057923,12.172438 8.058026,12.128462" style="fill: white" /><polygon type="contour" points="7.935119,12.172437 7.935119,12.335632 7.865257,12.335663 7.667969,12.335932 7.667969,12.273467 7.667886,12.128816 7.754868,12.128816 7.935123,12.128462" style="fill: white" /><polygon type="contour" points="7.865256,12.48495 7.935124,12.485171 7.935124,12.600671 7.736323,12.600745 7.667886,12.600465 7.667886,12.562893 7.667969,12.48492" style="fill: white" /><polygon type="contour" points="7.002971,12.51974 7.002885,12.600465 6.947205,12.600703 6.795786,12.600636 6.795786,12.485137 6.951686,12.485137 7.002971,12.48492" style="fill: white" /><polygon type="contour" points="7.002885,12.128816 7.002885,12.196214 7.002971,12.335932 6.951686,12.335917 6.795786,12.335917 6.795771,12.273467 6.795771,12.128731 6.858235,12.128731" style="fill: white" /><polygon type="contour" points="6.646566,12.180015 6.646566,12.335917 6.531065,12.335917 6.530998,12.184496 6.531238,12.128816 6.568808,12.128816 6.646783,12.128731" style="fill: white" /><polygon type="contour" points="6.498512,12.485281 6.557644,12.485867 6.645835,12.485867 6.645835,12.774597 6.539729,12.779234 6.345956,12.785746 6.356634,12.516136 6.357925,12.485135" style="fill: white" />
</svg>
