<svg width="19.131698" height="19.131699">
<polygon type="contour" points="14.82763,4.143824 14.862496,4.152467 14.887285,4.161424 14.90546,4.174364 14.920852,4.187123 14.938836,4.202031 14.952637,4.21856 14.974,4.255238 14.978723,4.267836 14.989295,4.309901 15.046892,4.309901 15.046748,4.352128 15.046748,4.393202 14.986835,4.393202 14.986835,4.635401 15.046748,4.635401 15.046748,4.718703 14.986835,4.718703 14.986835,4.961601 15.046748,4.961601 15.046748,5.044902 14.986835,5.044902 14.986835,5.287802 15.046748,5.287802 15.046748,5.370402 14.986835,5.370402 14.986835,5.613302 15.046748,5.613302 15.046748,5.696602 14.986835,5.696602 14.986835,5.939502 15.046748,5.939502 15.046748,6.022802 14.986835,6.022802 14.986835,6.265002 15.046748,6.265002 15.046748,6.348302 14.986835,6.348302 14.986835,6.591202 15.046748,6.591202 15.046748,6.674501 14.986835,6.674501 14.986835,6.917402 15.046748,6.917402 15.046748,7.000002 14.986835,7.000002 14.986835,7.242902 15.046748,7.242902 15.046748,7.326201 14.986835,7.326201 14.986835,7.569101 15.046748,7.569101 15.046748,7.652401 14.986835,7.652401 14.986835,7.894602 15.046748,7.894602 15.046748,7.977901 14.986835,7.977901 14.986835,8.220801 15.046748,8.220801 15.046748,8.304101 14.986835,8.304101 14.986835,8.546302 15.046748,8.546302 15.046748,8.629601 14.986835,8.629601 14.986835,8.872501 15.046749,8.872501 15.046748,8.914728 15.046748,8.955801 14.986835,8.955801 14.986835,9.198701 15.046748,9.198701 15.046748,9.281301 14.986835,9.281301 14.986835,9.524201 15.046748,9.524201 15.046331,9.565676 15.046331,9.607501 14.986835,9.607501 14.986835,9.850401 15.046748,9.850401 15.046748,9.933001 14.986835,9.933001 14.986835,10.1759 15.046748,10.1759 15.046748,10.259203 14.986835,10.259203 14.986835,10.502103 15.046748,10.502103 15.046748,10.585402 14.986835,10.585402 14.986835,10.8276 15.046748,10.8276 15.046748,10.910903 14.986835,10.910903 14.986835,11.153803 15.046748,11.153803 15.046748,11.237103 14.986835,11.237103 14.986835,11.479303 15.046748,11.479303 15.046748,11.562603 14.986835,11.562603 14.986835,11.805503 15.046748,11.805503 15.046748,11.888803 14.986835,11.888803 14.986835,12.131702 15.046748,12.131702 15.046748,12.214302 14.986835,12.214302 14.986835,12.457203 15.046748,12.457203 15.046748,12.540503 14.986835,12.540503 14.986835,12.783402 15.046748,12.783402 15.046748,12.866702 14.986835,12.866702 14.986835,13.108902 15.046748,13.108902 15.046748,13.192202 14.986835,13.192202 14.986835,13.435102 15.046748,13.435102 15.046748,13.518402 14.986835,13.518402 14.986835,13.761302 15.046748,13.761302 15.046748,13.843903 14.986835,13.843903 14.986835,14.086802 15.046748,14.086802 15.046748,14.170101 14.986835,14.170101 14.986835,14.413002 15.046748,14.413002 15.046748,14.496302 14.986835,14.496302 14.986835,14.738503 15.046748,14.738503 15.047029,14.779342 15.047029,14.821802 14.988531,14.821802 14.975875,14.870938 14.968233,14.889305 14.947803,14.918057 14.945276,14.920853 14.926831,14.941258 14.888032,14.967435 14.880374,14.97257 14.866472,14.978881 14.822401,14.985659 14.822268,15.035435 14.822154,15.046749 14.7385,15.046749 14.7385,14.986836 14.496299,14.986836 14.496299,15.046749 14.412999,15.046749 14.412999,14.986836 14.1701,14.986836 14.1701,15.046749 14.127873,15.046749 14.086801,15.046748 14.086801,14.986836 13.8439,14.986836 13.8439,15.046749 13.7613,15.046749 13.7613,14.986836 13.518399,14.986836 13.518399,15.046749 13.4351,15.046749 13.4351,14.986836 13.192201,14.986836 13.192201,15.046748 13.149973,15.046749 13.108901,15.046749 13.108901,14.986836 12.8667,14.986836 12.8667,15.046749 12.783401,15.046749 12.783401,14.986836 12.5405,14.986836 12.5405,15.046749 12.4572,15.046749 12.4572,14.986836 12.214301,14.986836 12.214301,15.046749 12.131701,15.046749 12.131701,14.986836 11.888801,14.986836 11.888801,15.046749 11.846574,15.046749 11.805501,15.046747 11.805501,14.986836 11.5626,14.986836 11.5626,15.046749 11.4793,15.046749 11.4793,14.986836 11.237102,14.986836 11.237102,15.046749 11.153802,15.046749 11.153802,14.986836 10.910901,14.986836 10.910901,15.046749 10.8276,15.046749 10.8276,14.986836 10.585401,14.986836 10.585401,15.046749 10.502101,15.046749 10.502101,14.986836 10.259202,14.986836 10.259202,15.046749 10.175899,15.046749 10.175899,14.986835 10.114007,14.986835 9.933,14.986836 9.933,15.046749 9.850398,15.046749 9.850398,14.986836 9.607499,14.986836 9.607499,15.046749 9.566425,15.046748 9.524199,15.046748 9.524199,14.986836 9.281299,14.986836 9.281299,15.046749 9.198699,15.046749 9.198699,14.986836 8.955798,14.986836 8.955798,15.046749 8.872499,15.046749 8.872499,14.986836 8.6296,14.986836 8.6296,15.046749 8.5463,15.046749 8.5463,14.986836 8.304099,14.986836 8.304099,15.046749 8.220799,15.046749 8.220799,14.986836 7.977898,14.986836 7.977898,15.046749 7.894599,15.046749 7.894599,14.986835 7.6524,14.986835 7.6524,15.046749 7.5691,15.046749 7.5691,14.986836 7.326199,14.986836 7.326199,15.046748 7.283971,15.046749 7.2429,15.046749 7.2429,14.986836 7.181007,14.986836 6.999999,14.986837 6.999999,15.046749 6.917399,15.046749 6.917399,14.986837 6.855507,14.986837 6.6745,14.986836 6.6745,15.046749 6.632272,15.046748 6.591201,15.046748 6.591201,14.986836 6.3483,14.986836 6.3483,15.046749 6.265,15.046749 6.265,14.986835 6.203286,14.986835 6.022799,14.986836 6.022799,15.046749 5.9395,15.046749 5.9395,14.986836 5.696601,14.986836 5.696601,15.046749 5.613301,15.046749 5.613301,14.986836 5.3704,14.986836 5.3704,15.046749 5.287801,15.046749 5.287801,14.986836 5.0449,14.986836 5.0449,15.046749 4.961599,15.046749 4.961599,14.986836 4.718701,14.986836 4.718701,15.046749 4.6354,15.046749 4.6354,14.986836 4.393201,14.986836 4.393201,15.046749 4.352126,15.046749 4.309554,15.046893 4.309899,15.044929 4.309899,14.987848 4.267805,14.979232 4.246134,14.970429 4.228787,14.960311 4.213969,14.948023 4.199751,14.935903 4.195737,14.932481 4.181224,14.914818 4.165882,14.893721 4.153607,14.858047 4.142863,14.821802 4.085021,14.821802 4.084952,14.779575 4.084952,14.738503 4.144865,14.738503 4.144865,14.496302 4.084952,14.496302 4.084952,14.413002 4.086441,14.413002 4.090968,14.413001 4.144865,14.413001 4.144865,14.170101 4.084952,14.170101 4.084952,14.086802 4.144865,14.086802 4.144865,13.843903 4.084952,13.843903 4.084952,13.761302 4.144865,13.761302 4.144865,13.518402 4.084952,13.518402 4.084952,13.435102 4.144865,13.435102 4.144865,13.192202 4.084952,13.192202 4.084952,13.108902 4.144865,13.108902 4.144865,12.866702 4.084952,12.866702 4.084952,12.783402 4.144865,12.783402 4.144865,12.540503 4.084953,12.540503 4.084952,12.498275 4.084952,12.457203 4.144865,12.457203 4.144865,12.214302 4.084952,12.214302 4.084952,12.131702 4.144865,12.131702 4.144865,11.888803 4.084953,11.888803 4.084952,11.846575 4.084952,11.805503 4.144865,11.805503 4.144865,11.562603 4.084952,11.562603 4.084952,11.479303 4.144865,11.479303 4.144865,11.237103 4.084952,11.237103 4.084952,11.153803 4.144865,11.153803 4.144865,10.910903 4.084952,10.910903 4.084952,10.8276 4.144865,10.8276 4.144865,10.585402 4.084952,10.585402 4.084952,10.502103 4.144865,10.502103 4.144865,10.259203 4.084952,10.259203 4.084952,10.1759 4.144865,10.1759 4.144865,9.933001 4.084952,9.933001 4.084952,9.850401 4.144865,9.850401 4.144865,9.607501 4.084952,9.607501 4.085369,9.566025 4.085369,9.524201 4.144865,9.524201 4.144865,9.281301 4.084952,9.281301 4.084952,9.198701 4.144865,9.198701 4.144865,8.955801 4.084952,8.955801 4.084953,8.913573 4.084953,8.872501 4.144865,8.872501 4.144865,8.629601 4.084952,8.629601 4.084952,8.546302 4.144865,8.546302 4.144865,8.304101 4.084952,8.304101 4.084952,8.220801 4.144865,8.220801 4.144865,7.977901 4.084952,7.977901 4.084952,7.894602 4.144865,7.894602 4.144865,7.652401 4.084952,7.652401 4.084952,7.569101 4.144865,7.569101 4.144865,7.326201 4.084952,7.326201 4.084953,7.283974 4.084953,7.242902 4.144865,7.242902 4.144865,7.000002 4.084952,7.000002 4.084952,6.917402 4.144865,6.917402 4.144865,6.674501 4.084952,6.674501 4.084952,6.591202 4.144865,6.591202 4.144865,6.348302 4.084952,6.348302 4.084952,6.265002 4.144865,6.265002 4.144865,6.022802 4.084952,6.022802 4.084952,5.939502 4.144865,5.939502 4.144865,5.696602 4.084952,5.696602 4.084952,5.613302 4.144865,5.613302 4.144865,5.370402 4.084952,5.370402 4.084952,5.287802 4.144865,5.287802 4.144865,5.044902 4.084952,5.044902 4.084952,4.961601 4.144865,4.961601 4.144865,4.718703 4.084952,4.718703 4.084952,4.635401 4.144865,4.635401 4.144865,4.393202 4.084952,4.393202 4.085021,4.351381 4.085021,4.309901 4.13965,4.309901 4.156301,4.256965 4.1703,4.236424 4.195547,4.199033 4.21085,4.185823 4.212289,4.18458 4.240436,4.165541 4.264147,4.153205 4.309269,4.141985 4.309439,4.09504 4.309517,4.08612 4.309899,4.084811 4.352167,4.084811 4.393201,4.084954 4.393201,4.144867 4.6354,4.144867 4.6354,4.084954 4.718701,4.084954 4.718701,4.144867 4.961599,4.144867 4.961599,4.084954 5.0449,4.084954 5.0449,4.144867 5.287801,4.144867 5.287801,4.084954 5.3704,4.084954 5.3704,4.144867 5.613301,4.144867 5.613301,4.084954 5.696601,4.084954 5.696601,4.144867 5.9395,4.144867 5.9395,4.084954 6.022799,4.084954 6.022799,4.144867 6.265,4.144867 6.265,4.084954 6.3483,4.084954 6.3483,4.144867 6.591201,4.144867 6.591201,4.084954 6.6745,4.084954 6.6745,4.144867 6.917399,4.144867 6.917399,4.084954 6.999999,4.084954 6.999999,4.144867 7.2429,4.144867 7.2429,4.084954 7.326199,4.084954 7.326199,4.144867 7.5691,4.144867 7.5691,4.084954 7.6524,4.084954 7.6524,4.144867 7.894599,4.144867 7.894599,4.084954 7.977898,4.084954 7.977898,4.144867 8.220799,4.144867 8.220799,4.084954 8.304099,4.084954 8.304099,4.144867 8.5463,4.144867 8.5463,4.084954 8.6296,4.084954 8.6296,4.144867 8.872499,4.144867 8.872499,4.084954 8.955798,4.084954 8.955798,4.144867 9.198699,4.144867 9.198699,4.084954 9.281299,4.084954 9.281299,4.144867 9.524199,4.144867 9.524199,4.084954 9.565674,4.08537 9.607499,4.08537 9.607499,4.144867 9.850398,4.144867 9.850398,4.084954 9.933,4.084954 9.933,4.144867 10.175899,4.144867 10.175899,4.084954 10.259202,4.084954 10.259202,4.144867 10.502101,4.144867 10.502101,4.084954 10.585401,4.084954 10.585401,4.144867 10.8276,4.144867 10.8276,4.084954 10.910901,4.084954 10.910901,4.144867 11.153802,4.144867 11.153802,4.084954 11.237102,4.084954 11.237102,4.144867 11.4793,4.144867 11.4793,4.084954 11.5626,4.084954 11.5626,4.144867 11.805501,4.144867 11.805501,4.084954 11.888801,4.084954 11.888801,4.144867 12.131701,4.144867 12.131701,4.084954 12.214301,4.084954 12.214301,4.144867 12.457206,4.144867 12.4572,4.09097 12.4572,4.084954 12.5405,4.084954 12.5405,4.144867 12.783401,4.144867 12.783401,4.084954 12.8667,4.084954 12.8667,4.144867 13.108907,4.144867 13.108901,4.09097 13.108901,4.084954 13.1922,4.084954 13.1922,4.09097 13.192203,4.144867 13.435106,4.144867 13.4351,4.09097 13.4351,4.084954 13.518399,4.084954 13.518399,4.144867 13.7613,4.144867 13.7613,4.084954 13.8439,4.084954 13.8439,4.144867 14.0868,4.144867 14.0868,4.084954 14.1701,4.084954 14.1701,4.144867 14.412999,4.144867 14.412999,4.084954 14.496299,4.084954 14.496299,4.144867 14.7385,4.144867 14.7385,4.084954 14.779572,4.084954 14.826641,4.084795" style="fill: white" /><polygon type="hole" points="7.063539,6.989181 7.04988,6.989181 6.990119,6.990181 6.989179,7.041031 6.989179,7.046597 6.989183,7.052486 6.989289,7.063633 6.989103,7.070478 6.989179,7.0729 6.989179,7.826752 6.989432,7.856851 6.989432,7.990145 6.989653,8.011433 6.989684,8.033902 6.989684,8.166438 6.989937,8.196538 6.989937,8.80699 6.99012,8.823224 6.99019,8.849482 6.99019,9.381561 6.990443,9.411661 6.990443,9.544703 6.990587,9.552196 6.990705,9.566201 6.990786,9.577559 6.990587,9.579974 6.990443,9.587448 6.990443,9.720489 6.99019,9.750589 6.99019,10.282221 6.99012,10.308479 6.989937,10.324714 6.989937,10.457249 6.989684,10.487349 6.989684,11.0978 6.989653,11.120272 6.989432,11.141558 6.989432,11.274852 6.989179,11.304951 6.989179,12.058801 6.989102,12.061225 6.989289,12.06807 6.989183,12.079006 6.990197,12.141679 7.04553,12.14239 7.052484,12.142518 7.06363,12.142413 7.070476,12.142598 7.072897,12.142523 7.826749,12.142523 7.856849,12.14227 7.990144,12.14227 8.01143,12.142048 8.033902,12.142017 8.219637,12.142017 8.591151,12.142016 8.644353,12.142018 8.674453,12.141765 8.806988,12.141765 8.823222,12.141581 8.849481,12.141511 8.916001,12.141511 9.287962,12.14151 9.381559,12.14151 9.411658,12.141258 9.544701,12.141258 9.552193,12.141114 9.566199,12.140994 9.577556,12.140914 9.579971,12.141113 9.587445,12.141258 9.720488,12.141258 9.750586,12.14151 10.282219,12.14151 10.308476,12.141581 10.324711,12.141764 10.457246,12.141764 10.487346,12.142017 11.097799,12.142017 11.120268,12.142048 11.141555,12.14227 11.27485,12.14227 11.30495,12.142523 12.058801,12.142523 12.061223,12.142597 12.068069,12.142413 12.079006,12.142517 12.141357,12.141147 12.142387,12.08617 12.142517,12.079006 12.142411,12.06807 12.142595,12.061224 12.142521,12.058802 12.142521,11.25175 12.142268,11.221651 12.142268,11.088356 12.142016,11.0446 12.142016,10.115388 12.141763,10.085288 12.141763,9.952752 12.141509,9.910259 12.141509,9.776964 12.141257,9.746866 12.141257,9.587448 12.141113,9.579974 12.140993,9.566201 12.140912,9.554652 12.141113,9.552195 12.141257,9.544703 12.141257,9.41166 12.141509,9.381562 12.141509,9.248267 12.141763,9.205774 12.141763,9.073239 12.142016,9.043139 12.142016,8.910603 12.142268,8.866847 12.142268,7.910052 12.142521,7.879953 12.142521,7.0729 12.142597,7.070478 12.142411,7.063633 12.142517,7.052486 12.141622,6.99008 12.086169,6.989314 12.079005,6.989185 12.068069,6.989291 12.061223,6.989106 12.058801,6.989181 11.251748,6.989181 11.221649,6.989434 11.088354,6.989434 11.044597,6.989687 10.115385,6.989687 10.085287,6.989939 9.952751,6.989939 9.910257,6.990192 9.776963,6.990192 9.746865,6.990446 9.587445,6.990446 9.57997,6.99059 9.566198,6.990708 9.554649,6.990789 9.552193,6.99059 9.544701,6.990446 9.411658,6.990446 9.381559,6.990192 9.221439,6.990192 9.178948,6.989939 9.046411,6.989939 9.016313,6.989687 8.087102,6.989687 8.043345,6.989434 7.91005,6.989434 7.87995,6.989181 7.072897,6.989181 7.067714,6.98902" style="fill: black" />
</svg>
