<svg width="19.131698" height="19.131699">
<polygon type="contour" points="9.770967,9.15335 9.932383,9.156825 9.971829,9.159873 9.976131,9.29028 9.978289,9.35329 9.978928,9.361385 9.979885,9.410475 9.979911,9.451668 9.979885,9.644767 9.979824,9.700921 9.979885,9.720926 9.978928,9.770318 9.978289,9.778413 9.976131,9.841423 9.971829,9.971831 9.932383,9.974878 9.770967,9.978353 9.719567,9.979839 9.412133,9.979839 9.360732,9.978353 9.199316,9.974878 9.159871,9.971831 9.155568,9.841423 9.153411,9.778413 9.152772,9.770318 9.151815,9.720926 9.151789,9.615645 9.151789,9.451668 9.151815,9.410475 9.152772,9.361385 9.153411,9.35329 9.155568,9.29028 9.159871,9.159873 9.199316,9.156825 9.360732,9.15335 9.412133,9.151865 9.719567,9.151865" style="fill: white" />
</svg>
