<svg width="19.131698" height="19.131699">
<polygon type="contour" points="9.679457,9.042574 9.809098,9.043852 9.850368,9.042598 9.865859,9.04289 9.907253,9.043556 10.058111,9.045094 10.058396,9.157819 10.059017,9.182148 10.060365,9.2667 10.060857,9.305202 10.062306,9.494251 10.062306,9.638048 10.060858,9.826502 10.059018,9.949554 10.058597,9.973028 10.058111,10.08661 9.943336,10.087071 9.907253,10.088147 9.865859,10.088814 9.850367,10.089106 9.809098,10.087853 9.679457,10.089131 9.608698,10.090566 9.52237,10.090566 9.452241,10.089131 9.322599,10.087852 9.28133,10.089106 9.26584,10.088814 9.224446,10.088147 9.073589,10.08661 9.073303,9.973885 9.072682,9.949555 9.071334,9.865002 9.070841,9.826501 9.069395,9.638049 9.069395,9.494251 9.070842,9.305202 9.072682,9.182148 9.073101,9.158676 9.073589,9.045094 9.188363,9.044633 9.224446,9.043556 9.265839,9.042891 9.28133,9.042599 9.322599,9.043852 9.452242,9.042574 9.52237,9.041136 9.608697,9.041136" style="fill: white" />
</svg>
