<svg width="19.131698" height="19.131699">
<polygon type="contour" points="6.465777,6.292299 6.585444,6.295856 6.585464,6.405816 6.585305,6.460283 6.585397,6.535269 6.585397,6.585398 6.446289,6.585598 6.29767,6.586902 6.294401,6.500095 6.285518,6.28552" style="fill: white" /><polygon type="contour" points="8.305118,6.374101 8.306241,6.585788 8.227173,6.58598 8.015552,6.58584 8.015552,6.533477 8.015711,6.501059 8.015711,6.374385 8.015635,6.341471 8.015578,6.296211 8.1458,6.297667 8.305766,6.295284" style="fill: white" /><polygon type="contour" points="7.683804,6.47156 7.68351,6.534663 7.68351,6.587101 7.495115,6.587654 7.416498,6.587667 7.416498,6.504316 7.416465,6.472147 7.570289,6.471517" style="fill: white" /><polygon type="contour" points="7.151464,6.472148 7.151464,6.556593 7.151498,6.587667 7.028739,6.587148 6.944336,6.587148 6.944336,6.471647 7.026313,6.471611" style="fill: white" /><polygon type="contour" points="6.585979,8.227176 6.585788,8.306244 6.529322,8.306951 6.295266,8.305713 6.297633,8.14531 6.296209,8.01558 6.455089,8.015554 6.585838,8.015554" style="fill: white" /><polygon type="contour" points="6.587665,7.4165 6.587652,7.495119 6.587058,7.683807 6.471557,7.683807 6.471515,7.570292 6.472147,7.416467 6.556591,7.416467" style="fill: white" /><polygon type="contour" points="6.587146,7.028741 6.587665,7.151501 6.504316,7.151501 6.472147,7.151467 6.471609,7.026315 6.471645,6.944338 6.587146,6.944338" style="fill: white" /><polygon type="contour" points="7.151498,7.093823 7.151464,7.151467 6.999977,7.151467 6.9443,7.151501 6.944336,7.028741 6.944336,6.944338 7.093821,6.944302 7.151498,6.944302" style="fill: white" /><polygon type="contour" points="7.495116,6.944409 7.683792,6.944493 7.683801,7.090612 7.683801,7.151608 7.495115,7.151608 7.416465,7.151467 7.416465,6.999979 7.416498,6.944302" style="fill: white" /><polygon type="contour" points="8.305215,8.028863 8.307359,8.307361 8.292359,8.307124 8.285064,8.3081 8.280025,8.30835 8.015188,8.30632 8.015188,8.277813 8.015635,8.015637 8.277811,8.015188 8.306317,8.015188" style="fill: white" /><polygon type="contour" points="7.684098,8.229295 7.684098,8.308477 7.570477,8.308685 7.416465,8.308804 7.416399,8.223179 7.416399,8.015726 7.561876,8.015497 7.683804,8.015497" style="fill: white" /><polygon type="contour" points="7.151605,8.015726 7.151331,8.184431 7.151331,8.308767 7.09093,8.30861 6.944114,8.30861 6.944114,8.22273 6.944491,8.015447 7.032841,8.015447" style="fill: white" /><polygon type="contour" points="7.151464,7.611972 7.151606,7.683804 7.032842,7.683794 6.94449,7.683794 6.944407,7.495119 6.9443,7.4165 7.093822,7.4165 7.151464,7.416467" style="fill: white" /><polygon type="contour" points="7.683801,7.495118 7.683792,7.530414 7.683804,7.683807 7.495116,7.683804 7.416399,7.683804 7.416399,7.495118 7.416465,7.416467 7.611969,7.416467 7.683801,7.416402" style="fill: white" /><polygon type="contour" points="8.183831,7.416634 8.308683,7.416634 8.308475,7.488544 8.308475,7.684098 8.229293,7.684099 8.015495,7.683807 8.015495,7.561879 8.015724,7.416402" style="fill: white" /><polygon type="contour" points="8.308765,7.03176 8.308765,7.151334 8.184429,7.151334 8.015724,7.151608 8.015445,7.032843 8.015445,6.944493 8.222728,6.944115 8.308608,6.944115" style="fill: white" /><polygon type="contour" points="11.116255,6.944493 11.116255,7.032844 11.115977,7.151608 10.94727,7.151334 10.822934,7.151334 10.823091,7.090933 10.823091,6.944115 10.908971,6.944115" style="fill: white" /><polygon type="contour" points="10.986083,6.297635 11.116122,6.296211 11.116122,6.403902 11.116147,6.533476 11.116147,6.58584 10.904526,6.58598 10.825459,6.585789 10.824615,6.529324 10.825851,6.295268" style="fill: white" /><polygon type="contour" points="11.715233,6.472148 11.715233,6.556593 11.7152,6.587667 11.636581,6.587654 11.448189,6.587101 11.448189,6.534662 11.447896,6.47156 11.56141,6.471517" style="fill: white" /><polygon type="contour" points="12.187364,6.471647 12.187364,6.587148 12.102961,6.587148 11.9802,6.587667 11.9802,6.504316 11.980233,6.472148 12.105386,6.471611" style="fill: white" /><polygon type="contour" points="12.838471,6.480195 12.834031,6.586902 12.737973,6.586803 12.596429,6.585398 12.546302,6.585398 12.546302,6.296206 12.606612,6.293572 12.846183,6.28552" style="fill: white" /><polygon type="contour" points="12.660091,7.026315 12.659553,7.151467 12.575108,7.151467 12.544035,7.151501 12.544554,7.028741 12.544554,6.944338 12.660055,6.944338" style="fill: white" /><polygon type="contour" points="12.835491,8.01558 12.834129,8.145863 12.836458,8.305739 12.757599,8.30512 12.545912,8.306244 12.545721,8.227176 12.545862,8.015554 12.67661,8.015554" style="fill: white" /><polygon type="contour" points="12.660185,7.570292 12.660143,7.683807 12.597039,7.683512 12.544602,7.683512 12.544048,7.495118 12.544035,7.4165 12.627385,7.4165 12.659554,7.416467" style="fill: white" /><polygon type="contour" points="12.187401,7.4165 12.187292,7.495119 12.187209,7.683794 12.041088,7.683804 11.980092,7.683804 11.980092,7.495119 11.980233,7.416467 12.131723,7.416467" style="fill: white" /><polygon type="contour" points="12.10296,6.944338 12.187364,6.944338 12.187401,7.093823 12.187401,7.151501 12.037876,7.151501 11.980233,7.151467 11.980233,6.999978 11.9802,6.944301" style="fill: white" /><polygon type="contour" points="11.7152,7.093824 11.715233,7.151467 11.519729,7.151467 11.447899,7.151608 11.447907,7.032843 11.447907,6.944492 11.636581,6.944409 11.7152,6.944301" style="fill: white" /><polygon type="contour" points="11.715233,7.416467 11.715233,7.611972 11.715298,7.683804 11.636582,7.683804 11.601286,7.683794 11.447896,7.683807 11.447899,7.495119 11.447899,7.416402 11.636581,7.416402" style="fill: white" /><polygon type="contour" points="11.116206,7.561879 11.116206,7.683807 10.902405,7.684099 10.823224,7.684099 10.823015,7.570479 10.822897,7.416467 10.908521,7.416402 11.115977,7.416402" style="fill: white" /><polygon type="contour" points="11.116065,8.015636 11.116065,8.306655 10.851675,8.30835 10.846637,8.3081 10.824342,8.307361 10.824579,8.292361 10.823603,8.285066 10.823352,8.280027 10.825383,8.015188 10.853889,8.015188" style="fill: white" /><polygon type="contour" points="11.715298,8.015726 11.715066,8.183833 11.715066,8.308685 11.643156,8.308477 11.447603,8.308477 11.447603,8.229295 11.447896,8.015497 11.569824,8.015497" style="fill: white" /><polygon type="contour" points="12.187586,8.22273 12.187586,8.30861 12.099939,8.308767 11.980368,8.308767 11.980368,8.18443 11.980092,8.015726 12.098857,8.015447 12.187208,8.015447" style="fill: white" /><polygon type="contour" points="11.116206,11.447897 11.116206,11.569824 11.115977,11.715301 10.947868,11.715069 10.823016,11.715069 10.823224,11.643158 10.823224,11.447604 10.902405,11.447604" style="fill: white" /><polygon type="contour" points="11.116065,10.825049 11.116065,11.116067 10.825047,11.116067 10.823352,10.851676 10.823603,10.846638 10.824342,10.824344 10.839341,10.824581 10.846637,10.823605 10.851674,10.823354" style="fill: white" /><polygon type="contour" points="12.836433,10.825991 12.834065,10.986394 12.835491,11.116124 12.67661,11.116148 12.545861,11.116148 12.54572,10.904526 12.545912,10.82546 12.602376,10.824753" style="fill: white" /><polygon type="contour" points="12.040769,10.823093 12.187586,10.823093 12.187586,10.908972 12.187209,11.116257 12.098857,11.116257 11.980092,11.115978 11.980368,10.947272 11.980368,10.822935" style="fill: white" /><polygon type="contour" points="11.715066,10.947869 11.715298,11.115978 11.569824,11.116208 11.447896,11.116208 11.447603,10.902406 11.447603,10.823225 11.56122,10.823018 11.715066,10.823018" style="fill: white" /><polygon type="contour" points="11.636582,11.447901 11.715298,11.447901 11.715298,11.636583 11.715233,11.715235 11.51973,11.715235 11.447899,11.715301 11.447899,11.636583 11.447907,11.601288 11.447896,11.447897" style="fill: white" /><polygon type="contour" points="12.098858,11.447909 12.187209,11.447909 12.187292,11.636583 12.187401,11.715202 12.037875,11.715202 11.980233,11.715235 11.980233,11.519731 11.980092,11.447901" style="fill: white" /><polygon type="contour" points="12.660185,11.561411 12.659554,11.715235 12.575108,11.715235 12.544035,11.715202 12.544048,11.636583 12.544642,11.447897 12.660143,11.447897" style="fill: white" /><polygon type="contour" points="12.659554,11.980235 12.660092,12.105388 12.660055,12.187366 12.544554,12.187366 12.544554,12.102961 12.544035,11.980202 12.627385,11.980202" style="fill: white" /><polygon type="contour" points="12.837299,12.631608 12.846183,12.846184 12.66565,12.839273 12.546105,12.835695 12.546105,12.711724 12.546302,12.59643 12.546302,12.546304 12.68541,12.546103 12.834031,12.544801" style="fill: white" /><polygon type="contour" points="11.7152,12.627388 11.715233,12.659556 11.56141,12.660187 11.447896,12.660144 11.448189,12.597041 11.448189,12.544603 11.636582,12.544049 11.7152,12.544037" style="fill: white" /><polygon type="contour" points="12.102961,12.544556 12.187364,12.544556 12.187364,12.660056 12.105386,12.660093 11.980233,12.659556 11.980233,12.575109 11.9802,12.544037" style="fill: white" /><polygon type="contour" points="12.187364,12.102961 12.187364,12.187366 12.037876,12.187403 11.9802,12.187403 11.9802,12.037877 11.980233,11.980235 12.131723,11.980235 12.187401,11.980202" style="fill: white" /><polygon type="contour" points="11.715233,11.980235 11.715233,12.131725 11.715199,12.187403 11.636581,12.187294 11.447907,12.187211 11.447899,12.041089 11.447899,11.980094 11.636582,11.980094" style="fill: white" /><polygon type="contour" points="11.116255,12.09886 11.116255,12.187211 10.908971,12.187589 10.82309,12.187589 10.822934,12.099942 10.822934,11.980369 10.94727,11.980369 11.115977,11.980094" style="fill: white" /><polygon type="contour" points="11.116147,12.545864 11.116147,12.598225 11.115988,12.630643 11.115988,12.757317 11.116064,12.790233 11.116121,12.835493 10.985899,12.834038 10.825935,12.836419 10.826583,12.7576 10.825459,12.545914 10.904526,12.545724" style="fill: white" /><polygon type="contour" points="8.306241,12.545914 8.307086,12.60238 8.30585,12.836436 8.145616,12.834068 8.015578,12.835493 8.015578,12.727801 8.015552,12.598225 8.015552,12.545864 8.227173,12.545724" style="fill: white" /><polygon type="contour" points="7.495115,12.544049 7.683804,12.544644 7.683804,12.660144 7.570289,12.660187 7.416465,12.659556 7.416465,12.575109 7.416498,12.544037" style="fill: white" /><polygon type="contour" points="7.151498,12.627387 7.151464,12.659556 7.026313,12.660093 6.944336,12.660056 6.944336,12.544556 7.028739,12.544556 7.151498,12.544037" style="fill: white" /><polygon type="contour" points="6.585979,10.904526 6.585838,11.116148 6.455089,11.116148 6.296209,11.116124 6.297572,10.985841 6.295241,10.825965 6.374099,10.826585 6.585788,10.82546" style="fill: white" /><polygon type="contour" points="7.151331,10.947271 7.151606,11.115978 7.032841,11.116257 6.944491,11.116257 6.944114,10.908972 6.944114,10.823093 7.03176,10.822935 7.151331,10.822935" style="fill: white" /><polygon type="contour" points="7.488542,10.823225 7.684098,10.823225 7.684098,10.902406 7.683804,11.116208 7.561876,11.116208 7.416399,11.115978 7.416632,10.947869 7.416632,10.823018" style="fill: white" /><polygon type="contour" points="8.308349,10.851677 8.306653,11.116067 8.015635,11.116067 8.015188,10.853889 8.015188,10.825384 8.028861,10.826486 8.307358,10.824344" style="fill: white" /><polygon type="contour" points="8.308683,11.561223 8.308802,11.715235 8.223177,11.715301 8.015724,11.715301 8.015495,11.569824 8.015495,11.447897 8.229293,11.447604 8.308475,11.447604" style="fill: white" /><polygon type="contour" points="8.184429,11.980369 8.308765,11.980369 8.308608,12.040771 8.308608,12.187589 8.222728,12.187589 8.015445,12.187211 8.015445,12.098859 8.015724,11.980094" style="fill: white" /><polygon type="contour" points="7.683801,11.636583 7.683801,11.715301 7.495115,11.715301 7.416465,11.715235 7.416465,11.519732 7.416399,11.447901 7.495115,11.447901 7.530412,11.447909 7.683804,11.447897" style="fill: white" /><polygon type="contour" points="7.683792,12.09886 7.683792,12.187211 7.495116,12.187294 7.416498,12.187403 7.416498,12.037877 7.416465,11.980235 7.61197,11.980235 7.683801,11.980094" style="fill: white" /><polygon type="contour" points="7.151464,11.980235 7.151464,12.131725 7.151498,12.187403 7.02874,12.187366 6.944336,12.187366 6.9443,12.037877 6.9443,11.980202 7.093822,11.980202" style="fill: white" /><polygon type="contour" points="7.151606,11.636583 7.151464,11.715235 6.999977,11.715235 6.9443,11.715201 6.944407,11.636583 6.944491,11.447909 7.09061,11.447901 7.151606,11.447901" style="fill: white" /><polygon type="contour" points="6.587652,11.636583 6.587664,11.715202 6.504315,11.715202 6.472147,11.715235 6.471515,11.561411 6.471557,11.447897 6.587058,11.447897" style="fill: white" /><polygon type="contour" points="6.587146,12.102961 6.587146,12.187366 6.471645,12.187366 6.471609,12.105388 6.472147,11.980235 6.556591,11.980235 6.587665,11.980202" style="fill: white" /><polygon type="contour" points="6.393726,12.544901 6.535267,12.546304 6.585397,12.546304 6.585397,12.835497 6.525086,12.838132 6.285518,12.846184 6.293229,12.651506 6.29767,12.544801" style="fill: white" />
</svg>
