<svg width="19.131698" height="19.131699">
<polygon type="contour" points="7.79801,7.739125 8.01971,7.739224 8.01971,7.747674 8.019686,7.773266 8.019817,7.948791 8.019817,8.019819 7.843564,8.019819 7.739457,8.019949 7.739123,7.798011 7.738827,7.790027 7.737883,7.773785 7.736997,7.736999" style="fill: white" /><polygon type="contour" points="10.259952,7.738828 10.340284,7.739403 10.340284,7.772042 10.340272,7.846889 10.340568,8.019819 10.047089,8.019819 10.047395,7.949612 10.047478,7.860804 10.047376,7.796984 10.048275,7.737527" style="fill: white" /><polygon type="contour" points="9.848594,7.90782 9.897605,7.907917 9.897605,7.95013 9.897552,8.020502 9.849668,8.020528 9.785721,8.020528 9.785956,7.960765 9.785956,7.907789" style="fill: white" /><polygon type="contour" points="9.899259,8.143389 9.899356,8.209292 9.897908,8.249388 9.840549,8.249362 9.7861,8.249362 9.785855,8.189807 9.785721,8.14336 9.849667,8.14336" style="fill: white" /><polygon type="contour" points="9.847603,8.566348 9.897908,8.566348 9.897908,8.619176 9.897554,8.66202 9.8292,8.661311 9.785891,8.661207 9.785956,8.61147 9.7861,8.566253" style="fill: white" /><polygon type="contour" points="9.897605,8.791715 9.897605,9.084747 9.828353,9.084747 9.785772,9.084861 9.785891,8.921273 9.785891,8.791705 9.848593,8.791562" style="fill: white" /><polygon type="contour" points="9.897605,9.234098 9.897605,9.303349 9.897772,9.34593 9.839266,9.345745 9.785956,9.345745 9.785772,9.283109 9.785772,9.233931 9.848594,9.233931" style="fill: white" /><polygon type="contour" points="10.56545,9.291152 10.56545,9.345601 10.51342,9.345676 10.470496,9.345811 10.470632,9.283109 10.470541,9.234148 10.528566,9.234148 10.565354,9.233795" style="fill: white" /><polygon type="contour" points="10.339952,9.301607 10.339998,9.345811 10.175625,9.34593 10.046842,9.34593 10.046842,9.283108 10.046955,9.234098 10.229173,9.234098 10.340956,9.234061" style="fill: white" /><polygon type="contour" points="10.34154,8.969161 10.341265,9.084312 10.162266,9.084312 10.047202,9.0845 10.047202,8.904566 10.047203,8.791201 10.245163,8.791371 10.340539,8.791164" style="fill: white" /><polygon type="contour" points="10.565605,8.791924 10.565354,8.953348 10.565354,9.085082 10.513297,9.085082 10.470419,9.084771 10.470268,8.905749 10.470392,8.791865 10.528601,8.791865" style="fill: white" /><polygon type="contour" points="10.519168,8.566253 10.56545,8.566253 10.565605,8.618283 10.565605,8.661298 10.513419,8.661298 10.470392,8.661311 10.470392,8.603099 10.470405,8.566097" style="fill: white" /><polygon type="contour" points="10.339836,8.6031 10.339836,8.661311 10.1599,8.66202 10.046694,8.66202 10.046694,8.603134 10.046934,8.566348 10.207569,8.566097 10.339779,8.566097" style="fill: white" /><polygon type="contour" points="10.339961,8.209185 10.339779,8.249533 10.178354,8.249388 10.046934,8.249388 10.046818,8.209292 10.046526,8.143389 10.340268,8.143389" style="fill: white" /><polygon type="contour" points="10.56545,8.197974 10.56545,8.249362 10.51342,8.249533 10.470405,8.249533 10.47052,8.189807 10.47052,8.143531 10.529893,8.143531 10.565721,8.1434" style="fill: white" /><polygon type="contour" points="10.565721,7.971598 10.565721,8.020466 10.512316,8.020466 10.47052,8.02051 10.470392,7.951085 10.470392,7.908111 10.51342,7.907935 10.56545,7.907748" style="fill: white" /><polygon type="contour" points="11.392873,7.790027 11.392577,7.798011 11.392243,8.019949 11.111753,8.019949 11.111753,7.999662 11.11199,7.747674 11.11199,7.739224 11.33369,7.739125 11.394704,7.736999" style="fill: white" /><polygon type="contour" points="10.988312,7.908005 10.988312,8.020628 10.921279,8.020628 10.88221,8.020466 10.882341,7.961857 10.882341,7.907748 10.926199,7.907735" style="fill: white" /><polygon type="contour" points="11.223714,8.189806 11.223954,8.249362 11.160102,8.249493 11.111235,8.249493 11.111235,8.189806 11.111072,8.143389 11.223696,8.143389" style="fill: white" /><polygon type="contour" points="10.988312,8.210422 10.988302,8.249493 10.933727,8.249362 10.882341,8.249362 10.88221,8.189806 10.88221,8.1434 10.941894,8.1434 10.988312,8.143389" style="fill: white" /><polygon type="contour" points="10.988302,8.619385 10.988171,8.661182 10.941894,8.661183 10.882168,8.661298 10.882341,8.612533 10.882341,8.566253 10.941895,8.565982 10.988302,8.565982" style="fill: white" /><polygon type="contour" points="11.169844,8.566253 11.223954,8.566253 11.223786,8.606437 11.22359,8.661311 11.152814,8.661182 11.111098,8.662687 11.111098,8.603058 11.111235,8.565982" style="fill: white" /><polygon type="contour" points="11.181045,8.791452 11.290642,8.791164 11.39225,8.791164 11.392417,8.969162 11.392538,9.0845 11.181518,9.0845 11.111685,9.084797 11.11185,8.97388 11.11185,8.791157" style="fill: white" /><polygon type="contour" points="11.223784,9.234098 11.223882,9.283109 11.223913,9.345745 11.158926,9.345982 11.111173,9.345982 11.111173,9.282033 11.111098,9.233808 11.181283,9.233747" style="fill: white" /><polygon type="contour" points="10.988312,9.085174 10.92241,9.084883 10.882315,9.085082 10.882168,8.924447 10.882168,8.791923 10.941894,8.791645 10.988312,8.791434" style="fill: white" /><polygon type="contour" points="10.988341,9.282033 10.988341,9.345982 10.932689,9.345744 10.882341,9.345601 10.882315,9.284098 10.882315,9.233795 10.941895,9.233848 10.988312,9.232443" style="fill: white" /><polygon type="contour" points="10.988341,9.786022 10.988341,9.84997 10.988312,9.89926 10.922409,9.899357 10.882315,9.89791 10.882341,9.840551 10.882341,9.786101 10.941894,9.785857" style="fill: white" /><polygon type="contour" points="11.170935,9.786291 11.223913,9.786291 11.223882,9.848902 11.223784,9.897607 11.18157,9.897607 11.111199,9.897554 11.111173,9.84997 11.111173,9.786022" style="fill: white" /><polygon type="contour" points="11.181517,10.047204 11.392538,10.047204 11.392417,10.162542 11.39225,10.340541 11.290642,10.340541 11.181045,10.340253 11.11185,10.340548 11.11185,10.157822 11.111685,10.046905" style="fill: white" /><polygon type="contour" points="9.897854,10.941897 9.897552,10.988269 9.849668,10.988343 9.78572,10.988343 9.785956,10.93269 9.7861,10.882342 9.847603,10.882316 9.897907,10.882316" style="fill: white" /><polygon type="contour" points="9.897552,11.111202 9.897605,11.181572 9.897605,11.223784 9.848593,11.223883 9.785956,11.223915 9.785721,11.158929 9.785721,11.111176 9.849668,11.111176" style="fill: white" /><polygon type="contour" points="10.340272,11.181636 10.340272,11.284814 10.340284,11.337537 10.340284,11.392301 10.259953,11.392874 10.048275,11.394177 10.047376,11.334718 10.047376,11.276191 10.047478,11.270896 10.047394,11.18209 10.047089,11.111885 10.340568,11.111885" style="fill: white" /><polygon type="contour" points="10.339961,10.922516 10.340268,10.988315 10.046526,10.988315 10.046818,10.922411 10.046934,10.882316 10.20757,10.882169 10.339779,10.882169" style="fill: white" /><polygon type="contour" points="10.519169,10.882342 10.56545,10.882342 10.565721,10.941897 10.565721,10.988305 10.512316,10.988305 10.47052,10.988174 10.47052,10.941897 10.470405,10.882169" style="fill: white" /><polygon type="contour" points="10.565721,11.111238 10.56545,11.169846 10.56545,11.223956 10.525263,11.223788 10.470392,11.223591 10.47052,11.152817 10.469016,11.111101 10.528643,11.111101" style="fill: white" /><polygon type="contour" points="11.392577,11.333692 11.392872,11.341675 11.393818,11.357919 11.394704,11.394706 11.33369,11.392578 11.11199,11.392481 11.11199,11.384029 11.112015,11.358438 11.111883,11.182911 11.111883,11.111885 11.288135,11.111885 11.392243,11.111755" style="fill: white" /><polygon type="contour" points="10.988312,11.223698 10.941894,11.223716 10.882341,11.223956 10.88221,11.160104 10.88221,11.111238 10.941894,11.111238 10.988312,11.111075" style="fill: white" /><polygon type="contour" points="10.988302,10.941897 10.988312,10.988315 10.948129,10.988174 10.941894,10.988305 10.88221,10.988305 10.882341,10.933729 10.882341,10.882342 10.941895,10.882211 10.988302,10.882211" style="fill: white" /><polygon type="contour" points="11.169845,10.882342 11.223954,10.882342 11.223967,10.9262 11.223696,10.988315 11.111072,10.988315 11.111072,10.921281 11.111235,10.882211" style="fill: white" /><polygon type="contour" points="11.223765,10.513421 11.223954,10.565451 11.160101,10.565722 11.111235,10.565722 11.111235,10.512318 11.111191,10.470522 11.180615,10.470394 11.22359,10.470394" style="fill: white" /><polygon type="contour" points="10.988312,10.34027 10.922514,10.339961 10.882168,10.339781 10.882315,10.178356 10.882315,10.046937 10.941894,10.046673 10.988312,10.046528" style="fill: white" /><polygon type="contour" points="10.941894,10.470522 10.988171,10.470522 10.988302,10.512318 10.988302,10.565722 10.933727,10.565451 10.882341,10.565451 10.882168,10.513421 10.882168,10.470407" style="fill: white" /><polygon type="contour" points="10.565605,10.470407 10.56545,10.519169 10.56545,10.565451 10.51342,10.565607 10.470405,10.565607 10.470405,10.51342 10.470392,10.470394 10.528602,10.470394" style="fill: white" /><polygon type="contour" points="9.897605,10.046957 9.897605,10.33999 9.82877,10.339832 9.785891,10.34 9.785772,10.175627 9.785772,10.046844 9.848594,10.046844" style="fill: white" /><polygon type="contour" points="9.897772,9.848903 9.897605,9.897607 9.848594,9.897774 9.785772,9.897774 9.785956,9.839268 9.785956,9.786291 9.848594,9.786081 9.897772,9.786081" style="fill: white" /><polygon type="contour" points="10.210429,9.786202 10.339998,9.786202 10.340141,9.848902 10.339988,9.897607 10.046956,9.897607 10.046956,9.828354 10.046842,9.786081" style="fill: white" /><polygon type="contour" points="10.565354,9.847605 10.565354,9.89791 10.512526,9.89791 10.469682,9.897556 10.470392,9.829202 10.470496,9.786202 10.52023,9.786291 10.56545,9.786102" style="fill: white" /><polygon type="contour" points="10.565354,10.046937 10.565605,10.207572 10.565605,10.339781 10.51342,10.339781 10.470392,10.339839 10.469682,10.159902 10.46956,10.046934 10.528393,10.046934" style="fill: white" /><polygon type="contour" points="10.340427,10.225337 10.340539,10.340541 10.162541,10.340692 10.047391,10.340417 10.047391,10.162267 10.047286,10.047288 10.161611,10.047282 10.340579,10.047282" style="fill: white" /><polygon type="contour" points="10.225872,10.470394 10.339836,10.470394 10.339836,10.528603 10.339779,10.565607 10.178354,10.565356 10.046934,10.565356 10.046694,10.528569 10.046694,10.469684" style="fill: white" /><polygon type="contour" points="9.897554,10.528569 9.897908,10.565356 9.840548,10.565451 9.786099,10.565451 9.786025,10.51342 9.785891,10.470498 9.848594,10.469849 9.897554,10.469684" style="fill: white" /><polygon type="contour" points="8.249359,10.519169 8.249359,10.565451 8.189804,10.565722 8.143398,10.565722 8.143398,10.512318 8.143528,10.470522 8.189804,10.470522 8.24953,10.470407" style="fill: white" /><polygon type="contour" points="8.020602,10.528645 8.020465,10.565722 7.961856,10.565451 7.907747,10.565451 7.907913,10.525266 7.908109,10.470394 7.978886,10.470521 8.020602,10.469018" style="fill: white" /><polygon type="contour" points="8.01985,10.157821 8.01985,10.340548 7.950652,10.340253 7.841056,10.340541 7.73945,10.340541 7.739282,10.162542 7.739162,10.047204 7.842225,10.047204 7.94961,10.047397 8.019817,10.047091" style="fill: white" /><polygon type="contour" points="8.209291,10.046821 8.249385,10.046937 8.24953,10.207572 8.24953,10.339781 8.189804,10.34006 8.143388,10.34027 8.143388,10.046528" style="fill: white" /><polygon type="contour" points="8.020527,9.84997 8.020501,9.897554 7.950128,9.897607 7.907915,9.897607 7.907817,9.848903 7.907786,9.786291 7.972774,9.786022 8.020527,9.786022" style="fill: white" /><polygon type="contour" points="8.199008,9.786291 8.249359,9.786102 8.249385,9.847605 8.249385,9.89791 8.189805,9.897857 8.143434,9.897554 8.143359,9.849969 8.143359,9.786022" style="fill: white" /><polygon type="contour" points="8.249385,9.233795 8.249359,9.291151 8.249359,9.345601 8.189805,9.345846 8.143359,9.345982 8.143359,9.282033 8.143388,9.232443 8.209291,9.232346" style="fill: white" /><polygon type="contour" points="8.020602,9.233808 8.020602,9.303958 8.020527,9.345982 7.960763,9.345745 7.907787,9.345745 7.907818,9.283108 7.907915,9.234098 7.950415,9.233748" style="fill: white" /><polygon type="contour" points="8.019849,8.972578 8.020015,9.084797 7.950181,9.0845 7.739162,9.0845 7.739282,8.969162 7.73945,8.791164 7.841055,8.791164 7.951157,8.791441 8.019849,8.791148" style="fill: white" /><polygon type="contour" points="8.209182,8.791741 8.24953,8.791924 8.249385,8.953348 8.249385,9.085082 8.189805,9.085337 8.143388,9.085174 8.143388,8.791434" style="fill: white" /><polygon type="contour" points="8.020465,8.619385 8.020509,8.661182 7.951083,8.661311 7.908109,8.661311 7.907933,8.618282 7.907746,8.566253 7.971597,8.565982 8.020465,8.565982" style="fill: white" /><polygon type="contour" points="8.197972,8.566253 8.249359,8.566253 8.24953,8.618282 8.24953,8.661298 8.189804,8.661183 8.143529,8.661182 8.143398,8.619385 8.143398,8.565982" style="fill: white" /><polygon type="contour" points="8.020626,8.210422 8.020465,8.249493 7.961856,8.249362 7.907747,8.249362 7.907733,8.205503 7.908004,8.143389 8.020626,8.143389" style="fill: white" /><polygon type="contour" points="8.18357,8.143531 8.189805,8.1434 8.24949,8.1434 8.249359,8.197974 8.249359,8.249362 8.189804,8.249493 8.143398,8.249493 8.143398,8.189806 8.143388,8.143389" style="fill: white" /><polygon type="contour" points="8.24949,7.971599 8.24949,8.020466 8.189804,8.020466 8.143388,8.020628 8.143388,7.908006 8.189805,7.907988 8.249359,7.907748" style="fill: white" /><polygon type="contour" points="8.606436,7.907915 8.661309,7.908111 8.661181,7.978888 8.661181,8.02051 8.601806,8.02051 8.565979,8.020466 8.56625,7.961857 8.56625,7.907748" style="fill: white" /><polygon type="contour" points="8.661181,8.143531 8.661181,8.189807 8.661296,8.249533 8.612531,8.249362 8.56625,8.249362 8.565979,8.189806 8.565979,8.1434 8.619382,8.1434" style="fill: white" /><polygon type="contour" points="9.084882,8.209292 9.08508,8.249388 8.924446,8.249533 8.791922,8.249533 8.791739,8.209185 8.791433,8.143389 9.085173,8.143389" style="fill: white" /><polygon type="contour" points="9.084323,7.796984 9.084323,7.855511 9.084223,7.860804 9.084305,7.949612 9.084609,8.019819 8.791133,8.019819 8.791429,7.950066 8.791429,7.846889 8.791417,7.794166 8.791417,7.739403 8.871748,7.738828 9.083426,7.737527" style="fill: white" /><polygon type="contour" points="9.34568,7.972776 9.34568,8.020528 9.281732,8.020528 9.233807,8.020603 9.233745,7.950416 9.234096,7.907916 9.282799,7.907819 9.345409,7.907788" style="fill: white" /><polygon type="contour" points="9.34541,8.199011 9.345599,8.249362 9.284097,8.249388 9.233793,8.249388 9.233846,8.189806 9.234148,8.143436 9.281731,8.14336 9.34568,8.14336" style="fill: white" /><polygon type="contour" points="9.345674,8.618283 9.345501,8.661207 9.282799,8.661856 9.234147,8.66202 9.234147,8.603134 9.233793,8.566348 9.291149,8.566253 9.345599,8.566253" style="fill: white" /><polygon type="contour" points="9.345621,8.956077 9.345621,9.084861 9.2828,9.084861 9.234096,9.084746 9.234096,8.791715 9.302928,8.791873 9.345501,8.791705" style="fill: white" /><polygon type="contour" points="9.08431,8.791288 9.08431,8.969436 9.084414,9.084415 8.970088,9.084423 8.791122,9.084423 8.791274,8.906366 8.791162,8.791164 8.969159,8.791012" style="fill: white" /><polygon type="contour" points="8.953346,8.566348 9.08508,8.566348 9.085006,8.603134 9.085006,8.66202 8.905827,8.661311 8.791863,8.661311 8.791863,8.6031 8.791922,8.566097" style="fill: white" /><polygon type="contour" points="8.661296,8.618283 8.661309,8.661311 8.603097,8.661311 8.566095,8.661298 8.56625,8.612534 8.56625,8.566253 8.618281,8.566097 8.661296,8.566097" style="fill: white" /><polygon type="contour" points="8.662019,8.9718 8.662019,9.085008 8.603132,9.085008 8.566346,9.085082 8.566095,8.924448 8.566095,8.791924 8.61828,8.791924 8.661309,8.791865" style="fill: white" /><polygon type="contour" points="8.662019,9.234148 8.661308,9.302501 8.661205,9.345811 8.611469,9.345745 8.56625,9.345601 8.566346,9.284098 8.566346,9.233795 8.619174,9.233795" style="fill: white" /><polygon type="contour" points="9.084745,9.303348 9.084859,9.34593 8.921271,9.345811 8.791703,9.345811 8.79156,9.283109 8.791713,9.234098 9.084745,9.234098" style="fill: white" /><polygon type="contour" points="9.34541,9.292436 9.34541,9.345745 9.282799,9.34593 9.233929,9.34593 9.233929,9.283108 9.234096,9.234098 9.282799,9.233931 9.345621,9.233931" style="fill: white" /><polygon type="contour" points="9.292434,9.786291 9.34541,9.786291 9.345621,9.848902 9.345621,9.897774 9.282799,9.897774 9.234096,9.897607 9.234096,9.828355 9.233929,9.786081" style="fill: white" /><polygon type="contour" points="9.084859,9.848902 9.084745,9.897606 8.969578,9.897642 8.790745,9.897642 8.791749,9.830096 8.791703,9.786202 8.956076,9.786081 9.084859,9.786081" style="fill: white" /><polygon type="contour" points="8.661205,9.786202 8.661069,9.848903 8.661159,9.897556 8.603132,9.897556 8.566346,9.89791 8.56625,9.840551 8.56625,9.786102 8.61828,9.786028" style="fill: white" /><polygon type="contour" points="8.661309,10.225874 8.661309,10.339839 8.603097,10.339839 8.566095,10.339781 8.566346,10.178356 8.566346,10.046937 8.618402,10.046937 8.661159,10.046696" style="fill: white" /><polygon type="contour" points="8.661309,10.528604 8.661296,10.565607 8.612532,10.565451 8.56625,10.565451 8.566095,10.51342 8.566095,10.470407 8.618281,10.470407 8.661309,10.470394" style="fill: white" /><polygon type="contour" points="8.971798,10.470544 9.085006,10.470544 9.085006,10.528569 9.08508,10.565356 8.924446,10.565607 8.791922,10.565607 8.791863,10.528603 8.791863,10.470394" style="fill: white" /><polygon type="contour" points="9.084498,10.227996 9.08431,10.341267 8.907072,10.340264 8.791162,10.340541 8.790161,10.162543 8.790436,10.047393 8.969435,10.047393 9.084498,10.047204" style="fill: white" /><polygon type="contour" points="9.345501,10.21043 9.345501,10.34 9.2828,10.340928 9.23406,10.340959 9.23406,10.162124 9.234096,10.046958 9.303347,10.046958 9.345621,10.046844" style="fill: white" /><polygon type="contour" points="9.345501,10.470498 9.34541,10.520232 9.345599,10.565451 9.284096,10.565356 9.233793,10.565356 9.233793,10.5133 9.234147,10.470543 9.302498,10.470394" style="fill: white" /><polygon type="contour" points="9.291149,10.882342 9.345599,10.882342 9.345845,10.941896 9.34568,10.988343 9.281732,10.988343 9.232441,10.988315 9.232345,10.92241 9.233793,10.882316" style="fill: white" /><polygon type="contour" points="9.281732,11.111176 9.34568,11.111176 9.34541,11.170938 9.34541,11.223915 9.282799,11.223883 9.234096,11.223785 9.233746,11.181285 9.233807,11.111101" style="fill: white" /><polygon type="contour" points="9.084305,11.182091 9.084223,11.270897 9.084323,11.334717 9.083426,11.394177 8.871747,11.392874 8.791417,11.392301 8.791417,11.359662 8.791429,11.284814 8.791133,11.111885 9.084609,11.111885" style="fill: white" /><polygon type="contour" points="8.953346,10.882316 9.08508,10.882316 9.084882,10.922411 9.085173,10.988315 8.791433,10.988315 8.79174,10.922516 8.791922,10.882169" style="fill: white" /><polygon type="contour" points="8.661181,10.941897 8.661181,10.988174 8.601806,10.988174 8.565979,10.988305 8.56625,10.933728 8.56625,10.882341 8.61828,10.882169 8.661296,10.882169" style="fill: white" /><polygon type="contour" points="8.661309,11.180615 8.661309,11.223591 8.618281,11.223767 8.56625,11.223956 8.565979,11.160105 8.565979,11.111238 8.619383,11.111238 8.661181,11.111194" style="fill: white" /><polygon type="contour" points="8.24949,11.111238 8.249359,11.169846 8.249359,11.223956 8.205501,11.223968 8.143388,11.223698 8.143388,11.111075 8.210421,11.111075" style="fill: white" /><polygon type="contour" points="8.197972,10.882342 8.249359,10.882342 8.24949,10.941896 8.24949,10.988305 8.189804,10.988305 8.143388,10.988315 8.143388,10.921281 8.143398,10.882211" style="fill: white" /><polygon type="contour" points="8.020465,10.941896 8.020626,10.988315 7.908004,10.988315 7.907987,10.941897 7.907747,10.882342 7.971598,10.882211 8.020465,10.882211" style="fill: white" /><polygon type="contour" points="8.019948,11.132042 8.01971,11.384029 8.01971,11.392481 7.79801,11.392578 7.736997,11.394706 7.738827,11.341675 7.739123,11.333692 7.739457,11.111755 8.019948,11.111755" style="fill: white" />
</svg>
