<svg width="19.131698" height="19.131699">
<polygon type="contour" points="18.517528,16.024859 18.612167,16.024859 18.612758,16.02486 18.612758,16.026556 18.61267,16.064228 18.61267,18.573213 18.612756,18.61234 18.612756,18.612758 18.610939,18.61276 18.610929,18.612758 18.573212,18.612672 16.064228,18.612672 16.026555,18.61276 16.024861,18.61276 16.02486,18.612183 16.024859,18.611893 16.024859,18.517544 15.381267,18.517544 15.38143,18.508653 15.382956,18.498627 15.38333,18.469641 15.38333,15.49822 15.383132,15.460565 15.383847,15.38385 15.460563,15.383134 15.498218,15.383332 18.469637,15.383332 18.498624,15.382957 18.517524,15.382694" style="fill: white" /><polygon type="contour" points="18.612756,0.518945 18.612756,0.519364 18.61267,0.558488 18.61267,3.067475 18.612758,3.105147 18.612758,3.106843 18.612181,3.106844 18.611891,3.106845 18.51754,3.106845 18.51754,3.750435 18.498624,3.748746 18.469637,3.748372 15.498218,3.748372 15.460563,3.74857 15.383847,3.747853 15.383132,3.671138 15.38333,3.633483 15.38333,0.66206 15.382956,0.633074 15.381429,0.623048 15.381266,0.614158 16.024859,0.614158 16.024859,0.519531 16.02486,0.518944 16.026556,0.518944 16.064227,0.519033 18.573211,0.519033 18.61093,0.518945 18.61094,0.518943" style="fill: white" /><polygon type="contour" points="0.52077,0.518945 0.558486,0.519033 3.067473,0.519033 3.105145,0.518944 3.106841,0.518944 3.106842,0.519519 3.106843,0.51981 3.106843,0.614174 3.749009,0.614174 3.748743,0.633074 3.74837,0.66206 3.74837,3.633484 3.748569,3.671137 3.747852,3.747853 3.671136,3.74857 3.633482,3.748372 0.662057,3.748372 0.633073,3.748746 0.614157,3.750435 0.614157,3.106845 0.519809,3.106845 0.519226,3.106843 0.518942,3.106843 0.518942,3.105147 0.519031,3.067475 0.519031,0.558488 0.518943,0.519364 0.518943,0.518945 0.520759,0.518943" style="fill: white" /><polygon type="contour" points="0.633072,15.382957 0.662057,15.383332 3.633482,15.383332 3.671136,15.383134 3.747852,15.38385 3.748569,15.460565 3.74837,15.498219 3.74837,18.469641 3.748743,18.498627 3.749009,18.517528 3.106843,18.517528 3.106843,18.611894 3.106841,18.612473 3.106841,18.61276 3.105145,18.61276 3.067473,18.612672 0.558487,18.612672 0.520771,18.612758 0.52076,18.61276 0.518943,18.612758 0.518943,18.61234 0.519031,18.573213 0.519031,16.064228 0.518942,16.026556 0.518942,16.024861 0.519517,16.02486 0.519808,16.024859 0.614173,16.024859 0.614173,15.382694" style="fill: white" />
</svg>
