<svg width="19.131698" height="19.131699">
<polygon type="contour" points="8.403286,8.277105 8.550178,8.275203 8.552411,8.348263 8.552411,8.445398 8.627731,8.445596 8.705577,8.445475 8.705577,8.471612 8.705714,8.553126 8.705714,8.627734 8.705577,8.705579 8.681676,8.705579 8.608978,8.705715 8.532616,8.705715 8.445474,8.705579 8.445594,8.627734 8.445397,8.552972 8.278685,8.552972 8.274013,8.506998 8.27343,8.273433" style="fill: white" /><polygon type="contour" points="8.553124,9.178128 8.62773,9.178128 8.705577,9.178183 8.705577,9.203976 8.705603,9.283331 8.705603,9.86763 8.705577,9.953522 8.681676,9.953522 8.608978,9.953577 8.532616,9.953577 8.445474,9.953522 8.445322,9.86763 8.444983,9.79562 8.278402,9.79562 8.278161,9.763215 8.27709,9.719875 8.276151,9.669328 8.274539,9.637339 8.273714,9.565502 8.274539,9.493959 8.27615,9.462058 8.277091,9.411634 8.278162,9.368408 8.278403,9.336084 8.444983,9.336084 8.445322,9.264073 8.445474,9.178183 8.471611,9.178183 8.553124,9.178127" style="fill: white" /><polygon type="contour" points="9.336351,9.178428 9.336351,9.17833 9.867628,9.17833 9.95352,9.178183 9.95352,9.203975 9.953271,9.336354 9.953371,9.336354 9.953371,9.86763 9.95352,9.953522 9.927727,9.953522 9.795348,9.953271 9.795348,9.953372 9.26407,9.953372 9.178181,9.953522 9.178181,9.927729 9.178426,9.79535 9.178328,9.79535 9.178328,9.264073 9.178181,9.178183 9.203974,9.178183" style="fill: white" /><polygon type="contour" points="9.566199,8.273735 9.669643,8.276152 9.720064,8.277093 9.763294,8.278164 9.79563,8.278562 9.795762,8.3189 9.79563,8.374488 9.79563,8.444988 9.867629,8.445325 9.95352,8.445475 9.95352,8.471612 9.953576,8.553126 9.953576,8.627733 9.95352,8.705579 9.927726,8.705579 9.848371,8.705606 9.26407,8.705606 9.178181,8.705579 9.178181,8.681676 9.178125,8.60898 9.178125,8.532619 9.178181,8.445475 9.264071,8.445325 9.336118,8.444988 9.33607,8.374489 9.335938,8.3189 9.33607,8.278562 9.368485,8.278164 9.411821,8.277093 9.462373,8.276152 9.517863,8.273625" style="fill: white" /><polygon type="contour" points="10.85571,8.367403 10.85353,8.476717 10.852848,8.520071 10.852955,8.552972 10.686302,8.552972 10.686106,8.627734 10.686226,8.705579 10.660088,8.705579 10.578577,8.705715 10.503969,8.705715 10.426124,8.705579 10.426124,8.681676 10.425985,8.60898 10.425986,8.60898 10.425986,8.532618 10.426124,8.445475 10.503969,8.445596 10.578867,8.445398 10.579289,8.348263 10.579711,8.340573 10.581521,8.275203 10.728414,8.277106 10.858269,8.273433" style="fill: white" /><polygon type="contour" points="10.686226,9.178183 10.686377,9.264073 10.686716,9.336084 10.853297,9.336084 10.853537,9.368488 10.854607,9.411825 10.85555,9.462375 10.857161,9.494364 10.857985,9.566201 10.857161,9.637744 10.85555,9.669646 10.854607,9.720066 10.853537,9.763296 10.853297,9.79562 10.686716,9.79562 10.686377,9.86763 10.686226,9.953522 10.660088,9.953522 10.578576,9.953577 10.503969,9.953577 10.426124,9.953522 10.426124,9.927728 10.426097,9.848373 10.426097,9.264072 10.426124,9.178183 10.450024,9.178183 10.522721,9.178128 10.599084,9.178128" style="fill: white" /><polygon type="contour" points="10.686226,10.426125 10.686105,10.50397 10.686303,10.578733 10.853012,10.578733 10.857684,10.624706 10.858269,10.858271 10.728414,10.854597 10.581521,10.856502 10.57929,10.783441 10.57929,10.686306 10.503969,10.686108 10.426124,10.686229 10.426124,10.660092 10.425986,10.578578 10.425986,10.50397 10.426124,10.426125 10.450024,10.426125 10.522722,10.425989 10.599083,10.425989" style="fill: white" /><polygon type="contour" points="9.95352,10.426124 9.95352,10.450027 9.953576,10.522724 9.953576,10.599085 9.95352,10.686229 9.867629,10.686379 9.79563,10.686715 9.79563,10.757214 9.795762,10.812802 9.79563,10.853141 9.763213,10.853539 9.719875,10.854608 9.669326,10.855551 9.613836,10.85808 9.5655,10.85797 9.462055,10.85555 9.411632,10.854609 9.368405,10.853539 9.33607,10.853141 9.335938,10.812802 9.33607,10.757214 9.33607,10.686715 9.264071,10.686379 9.178181,10.686229 9.178181,10.660091 9.178125,10.578579 9.178125,10.50397 9.178181,10.426125 9.203974,10.426125 9.283328,10.426098 9.867629,10.426098" style="fill: white" /><polygon type="contour" points="8.705577,10.426125 8.705577,10.450027 8.705714,10.522723 8.705714,10.599086 8.705577,10.686229 8.627731,10.686108 8.552831,10.686304 8.552411,10.783441 8.55199,10.791131 8.550179,10.856502 8.403287,10.854597 8.273431,10.858271 8.275989,10.7643 8.27817,10.654986 8.27885,10.611634 8.278743,10.578733 8.445396,10.578733 8.445594,10.50397 8.445474,10.426125 8.47161,10.426125 8.553124,10.425989 8.62773,10.425989" style="fill: white" />
</svg>
