<svg width="19.131698" height="19.131699">
<polygon type="contour" points="11.115725,7.974746 11.158446,7.973257 11.156788,8.021263 11.155349,8.249356 10.988046,8.249356 10.987885,8.345464 10.98053,8.345464 10.882343,8.345429 10.881182,8.345429 10.786239,8.345464 10.786239,8.338883 10.786273,8.250228 10.786273,8.249033 10.786239,8.143166 10.882347,8.143663 10.882221,8.057456 10.883079,8.051635 10.885286,7.972892" style="fill: white" /><polygon type="contour" points="10.110197,7.976261 10.117259,7.976342 10.117319,7.987821 10.117319,8.143632 10.219328,8.143166 10.219328,8.15052 10.219615,8.249358 10.219615,8.249359 10.219616,8.249951 10.219328,8.345464 10.212022,8.345464 10.128375,8.345412 10.067703,8.345412 9.808446,8.345464 9.73928,8.345483 9.73928,8.338471 9.739228,8.250229 9.739228,8.250228 9.739227,8.249675 9.73928,8.143198 9.824803,8.143457 9.824458,8.057139 9.825158,8.050646 9.826592,7.972536 9.87764,7.972527" style="fill: white" /><polygon type="contour" points="9.305108,7.972536 9.307239,8.057138 9.307239,8.143466 9.386949,8.143177 9.392365,8.143198 9.392365,8.151034 9.39247,8.24936 9.39247,8.249961 9.392365,8.345483 9.386098,8.345464 9.32325,8.345464 9.063995,8.345412 9.003322,8.345412 8.912372,8.345464 8.912372,8.338883 8.912083,8.249683 8.912372,8.143166 9.014381,8.143632 9.014381,7.987821 9.014426,7.979836 9.01444,7.976342 9.021501,7.976261 9.254059,7.972527" style="fill: white" /><polygon type="contour" points="8.249479,8.057455 8.249479,8.143662 8.345462,8.143166 8.345462,8.150519 8.345428,8.249358 8.345428,8.25052 8.345462,8.345464 8.338881,8.345464 8.250226,8.345429 8.249031,8.345429 8.143165,8.345464 8.143662,8.249357 7.976352,8.249357 7.975198,8.053956 7.973255,7.973257 8.015974,7.974746 8.246414,7.972893" style="fill: white" /><polygon type="contour" points="8.345462,8.912373 8.345462,8.919678 8.34541,9.003324 8.34541,9.063996 8.345463,9.323251 8.345481,9.392419 8.338469,9.392419 8.249673,9.392474 8.143197,9.392419 8.143456,9.306975 7.996242,9.306975 7.982831,9.306857 7.976172,9.306872 7.976179,9.28807 7.97634,9.014441 7.987818,9.014382 8.143631,9.014382 8.143165,8.912373 8.150518,8.912373 8.249357,8.912088 8.249949,8.912086" style="fill: white" /><polygon type="contour" points="8.345481,9.739334 8.345462,9.745601 8.345463,9.808449 8.34541,10.067705 8.34541,10.128378 8.345462,10.219331 8.338882,10.219331 8.250226,10.219616 8.249681,10.219617 8.143165,10.219331 8.143631,10.117321 7.987818,10.117321 7.979834,10.117275 7.97634,10.117261 7.976334,10.103334 7.976172,9.824829 7.996243,9.824726 8.143466,9.824726 8.143176,9.744748 8.143197,9.739334 8.151034,9.739334 8.249959,9.739231" style="fill: white" /><polygon type="contour" points="8.249358,10.786275 8.250517,10.786275 8.345462,10.78624 8.345462,10.79282 8.345428,10.881475 8.345428,10.882671 8.345462,10.987886 8.249353,10.988049 8.249479,11.074246 8.248621,11.080067 8.246414,11.158811 8.015974,11.156958 7.973255,11.158447 7.974912,11.11044 7.976352,10.882348 8.143662,10.882348 8.143165,10.78624 8.150519,10.78624" style="fill: white" /><polygon type="contour" points="10.881474,10.786275 10.882668,10.786275 10.987885,10.78624 10.988046,10.882347 11.155348,10.882347 11.156502,11.077749 11.158446,11.158447 11.115725,11.156958 10.885285,11.158811 10.882221,11.074248 10.882221,10.988049 10.786239,10.987886 10.786239,10.980531 10.786273,10.882345 10.786273,10.881183 10.786239,10.78624 10.792819,10.78624" style="fill: white" /><polygon type="contour" points="10.21934,9.739334 10.219328,9.7456 10.219281,9.80845 10.219557,10.067704 10.219557,10.128377 10.219328,10.219331 10.212022,10.219331 10.128375,10.219559 10.067702,10.219559 9.808446,10.219282 9.73928,10.219344 9.73928,10.211557 9.739211,10.128378 9.739211,10.067704 9.739262,9.80845 9.73928,9.739334 9.745982,9.739334 9.808446,9.739264 10.067703,9.739212 10.128376,9.739212" style="fill: white" /><polygon type="contour" points="10.987855,9.739334 10.987532,9.824726 11.135458,9.824726 11.148868,9.824844 11.155528,9.824829 11.15552,9.84363 11.15536,10.117261 11.14388,10.117321 10.98804,10.117321 10.987885,10.219331 10.980529,10.219331 10.881752,10.219617 10.786239,10.219331 10.786239,10.212025 10.786289,10.128377 10.786289,10.067704 10.786238,9.80845 10.78622,9.739334 10.793232,9.739334 10.881472,9.739232 10.881473,9.739232 10.882028,9.739231" style="fill: white" /><polygon type="contour" points="10.987885,8.912373 10.98804,9.014382 11.14388,9.014382 11.151865,9.014427 11.15536,9.014441 11.155367,9.028368 11.155528,9.306872 11.135458,9.306975 10.987524,9.306975 10.987867,9.386952 10.987855,9.392419 10.980018,9.392419 10.881742,9.392474 10.78622,9.392419 10.786239,9.386099 10.786237,9.32325 10.786289,9.063997 10.786289,9.003324 10.786239,8.912373 10.792818,8.912373 10.881473,8.912088 10.88202,8.912086" style="fill: white" /><polygon type="contour" points="10.219328,8.912373 10.219328,8.919679 10.219557,9.003323 10.219557,9.063997 10.219281,9.32325 10.219341,9.392419 10.211555,9.392419 10.128375,9.392491 10.067703,9.392491 9.808446,9.392438 9.73928,9.392419 9.73928,9.385716 9.739261,9.32325 9.739211,9.063997 9.739211,9.003323 9.739279,8.91236 9.745598,8.912373 9.808447,8.912421 10.067702,8.912145 10.128376,8.912145" style="fill: white" /><polygon type="contour" points="9.32325,8.912421 9.392365,8.91236 9.392365,8.920146 9.392488,9.003323 9.392488,9.063997 9.392437,9.32325 9.392364,9.392419 9.385712,9.392419 9.32325,9.392438 9.063995,9.392491 9.003323,9.392491 8.912359,9.392419 8.912371,9.3861 8.912419,9.32325 8.912143,9.063997 8.912143,9.003324 8.912372,8.912373 8.919678,8.912373 9.003322,8.912145 9.063996,8.912145" style="fill: white" /><polygon type="contour" points="9.32325,9.739264 9.392365,9.739334 9.392365,9.745985 9.392437,9.80845 9.392488,10.067704 9.392488,10.128378 9.392365,10.219344 9.386098,10.219331 9.323249,10.219283 9.063996,10.219559 9.003323,10.219559 8.912372,10.219331 8.912372,10.212024 8.912143,10.128378 8.912143,10.067704 8.912419,9.80845 8.912359,9.739334 8.920145,9.739334 9.003322,9.739212 9.063995,9.739212" style="fill: white" /><polygon type="contour" points="9.745598,10.78624 9.808447,10.78624 10.067702,10.78629 10.128375,10.78629 10.219328,10.78624 10.219328,10.79282 10.219616,10.882022 10.219328,10.987886 10.117319,10.988043 10.117319,11.143883 10.117273,11.151867 10.117259,11.155362 10.110196,11.155443 9.87764,11.159178 9.826592,11.159168 9.824458,11.074564 9.824458,10.987527 9.744746,10.987869 9.73928,10.987857 9.73928,10.98002 9.739227,10.881744 9.73928,10.786221" style="fill: white" /><polygon type="contour" points="9.392365,10.793233 9.39247,10.881475 9.39247,10.88203 9.392364,10.987857 9.306893,10.987534 9.307239,11.074565 9.306542,11.081058 9.305108,11.159168 9.254059,11.159178 9.021501,11.155442 9.01444,11.155362 9.014381,11.143883 9.014381,10.988043 8.912372,10.987886 8.912372,10.980531 8.912082,10.881475 8.912083,10.881754 8.912372,10.78624 8.919678,10.78624 9.003322,10.78629 9.063996,10.78629 9.32325,10.78624 9.392365,10.786221" style="fill: white" />
</svg>
