<svg width="19.131698" height="19.131699">
<polygon type="contour" points="8.633788,10.19044 8.633788,10.333746 8.5851,10.333746 8.53857,10.333673 8.538768,10.206508 8.538768,10.040881 8.579777,10.040881 8.633663,10.040578" style="fill: white" /><polygon type="contour" points="8.633657,9.741376 8.633549,9.791302 8.633663,9.852619 8.58513,9.852619 8.538767,9.853066 8.538693,9.80788 8.538693,9.741216 8.579681,9.741157" style="fill: white" /><polygon type="contour" points="11.386396,7.808209 11.386033,7.818018 11.385719,8.026225 11.105476,8.026225 11.105476,8.000438 11.105699,7.764039 11.105699,7.745761 11.313684,7.745668 11.388646,7.743057" style="fill: white" /><polygon type="contour" points="10.233292,7.745221 10.334306,7.745943 10.334306,7.786985 10.334292,7.881104 10.33454,8.02606 10.041203,8.02606 10.041459,7.96721 10.041562,7.855287 10.041472,7.797698 10.042282,7.744045" style="fill: white" /><polygon type="contour" points="10.33546,8.945128 10.335114,9.090249 10.186228,9.090249 10.041216,9.090485 10.041216,8.797187 10.214694,8.797336 10.334627,8.797076" style="fill: white" /><polygon type="contour" points="10.59313,8.798032 10.592932,8.925196 10.592932,9.09122 10.551923,9.09122 10.497884,9.090827 10.497758,8.941163 10.497913,8.797957 10.546599,8.797957" style="fill: white" /><polygon type="contour" points="10.536343,8.538696 10.593007,8.538696 10.59313,8.579684 10.59313,8.633773 10.552019,8.633773 10.497913,8.633789 10.497913,8.585103 10.49793,8.538573" style="fill: white" /><polygon type="contour" points="10.333744,8.585103 10.333744,8.633789 10.183248,8.634383 10.040576,8.634383 10.040576,8.58513 10.040878,8.538771 10.167424,8.538573 10.333671,8.538573" style="fill: white" /><polygon type="contour" points="10.333899,8.238456 10.333671,8.289191 10.206505,8.289077 10.040878,8.289077 10.040733,8.238546 10.040487,8.183137 10.334158,8.183137" style="fill: white" /><polygon type="contour" points="10.593007,8.226142 10.593007,8.289056 10.552019,8.289191 10.49793,8.289191 10.498021,8.24214 10.49802,8.183316 10.54768,8.183316 10.59322,8.18315" style="fill: white" /><polygon type="contour" points="10.59322,7.964766 10.59322,8.026882 10.55115,8.026882 10.49802,8.026939 10.497913,7.968873 10.497913,7.914834 10.552019,7.914613 10.593007,7.914466" style="fill: white" /><polygon type="contour" points="10.948565,7.914677 10.948565,8.027089 10.892206,8.027089 10.842543,8.026882 10.842647,7.980711 10.842647,7.914466 10.896342,7.914449" style="fill: white" /><polygon type="contour" points="11.217048,8.242141 11.217237,8.289056 11.166936,8.28916 11.104819,8.28916 11.104819,8.24214 11.104611,8.183137 11.217025,8.183137" style="fill: white" /><polygon type="contour" points="10.948565,8.239497 10.948552,8.28916 10.905559,8.289056 10.842647,8.289056 10.842543,8.24214 10.842543,8.18315 10.88956,8.18315 10.948565,8.183137" style="fill: white" /><polygon type="contour" points="10.948552,8.580552 10.948386,8.633682 10.88956,8.633682 10.84251,8.633773 10.842647,8.595358 10.842647,8.538696 10.889561,8.538482 10.948552,8.538482" style="fill: white" /><polygon type="contour" points="11.15099,8.538696 11.217237,8.538696 11.217032,8.587893 11.216867,8.633789 11.157671,8.633682 11.104644,8.635595 11.104644,8.58561 11.104818,8.538482" style="fill: white" /><polygon type="contour" points="11.385836,8.945127 11.385988,9.090485 11.163772,9.090485 11.10539,9.090734 11.1056,8.949742 11.1056,8.797192 11.16337,8.797438 11.301183,8.797076 11.385698,8.797076" style="fill: white" /><polygon type="contour" points="11.217038,9.279021 11.217162,9.340789 11.217187,9.390663 11.16544,9.390852 11.10474,9.390852 11.10474,9.339932 11.104644,9.278632 11.163477,9.278581" style="fill: white" /><polygon type="contour" points="10.948565,9.091214 10.893157,9.090969 10.842625,9.09122 10.84251,8.964676 10.84251,8.798032 10.889561,8.797811 10.948565,8.797544" style="fill: white" /><polygon type="contour" points="10.948602,9.339932 10.948602,9.390852 10.904289,9.390662 10.842647,9.390486 10.842626,9.342036 10.842626,9.278639 10.88956,9.278681 10.948565,9.276895" style="fill: white" /><polygon type="contour" points="10.593007,9.323823 10.593007,9.390486 10.552018,9.390546 10.498043,9.390716 10.498152,9.340789 10.498038,9.279085 10.54657,9.279085 10.592932,9.278639" style="fill: white" /><polygon type="contour" points="10.333888,9.335131 10.333947,9.390715 10.203064,9.390811 10.040762,9.390811 10.040762,9.340789 10.040906,9.279021 10.193846,9.279021 10.334724,9.278975" style="fill: white" /><polygon type="contour" points="9.852681,10.040908 9.852681,10.33387 9.794906,10.333738 9.740987,10.333949 9.740892,10.203066 9.740892,10.040764 9.790914,10.040764" style="fill: white" /><polygon type="contour" points="9.852892,9.791302 9.852681,9.852683 9.790913,9.852894 9.740892,9.852894 9.741039,9.806307 9.741039,9.741448 9.790913,9.741281 9.852892,9.741281" style="fill: white" /><polygon type="contour" points="10.171018,9.741377 10.333947,9.741377 10.334061,9.791303 10.333869,9.852683 10.040906,9.852683 10.040906,9.794557 10.040762,9.741281" style="fill: white" /><polygon type="contour" points="11.386033,11.313685 11.386396,11.323494 11.387557,11.343451 11.388646,11.388648 11.313683,11.386035 11.105699,11.385943 11.105699,11.367663 11.105752,11.312314 11.105642,11.165181 11.105642,11.105644 11.253384,11.105644 11.385719,11.105479" style="fill: white" /><polygon type="contour" points="11.217088,10.552021 11.217237,10.593007 11.166935,10.593222 11.104819,10.593222 11.104819,10.551151 11.104763,10.498022 11.162828,10.497915 11.216867,10.497915" style="fill: white" /><polygon type="contour" points="11.150989,10.842648 11.217237,10.842648 11.217252,10.896344 11.217025,10.948568 11.104611,10.948568 11.104611,10.892208 11.104819,10.842544" style="fill: white" /><polygon type="contour" points="10.948552,10.889562 10.948565,10.948568 10.897486,10.948388 10.88956,10.948554 10.842543,10.948554 10.842647,10.905561 10.842647,10.842648 10.889561,10.842544 10.948552,10.842544" style="fill: white" /><polygon type="contour" points="10.948565,11.217026 10.889561,11.21705 10.842647,11.217238 10.842543,11.166938 10.842543,11.104822 10.889561,11.104822 10.948565,11.104614" style="fill: white" /><polygon type="contour" points="10.59322,11.104821 10.593007,11.150992 10.593007,11.217238 10.543807,11.217034 10.497913,11.216869 10.49802,11.157673 10.496108,11.104647 10.546091,11.104647" style="fill: white" /><polygon type="contour" points="10.334292,11.164112 10.334292,11.250599 10.334306,11.316897 10.334306,11.385761 10.233292,11.386482 10.042282,11.387657 10.041472,11.334004 10.041472,11.28119 10.041562,11.276414 10.041459,11.164493 10.041203,11.105644 10.33454,11.105644" style="fill: white" /><polygon type="contour" points="10.333899,10.893245 10.334158,10.948568 10.040487,10.948568 10.040732,10.893158 10.040878,10.842627 10.167424,10.842511 10.333671,10.842511" style="fill: white" /><polygon type="contour" points="10.536344,10.842648 10.593007,10.842648 10.59322,10.889562 10.59322,10.948554 10.55115,10.948554 10.49802,10.948388 10.498021,10.889563 10.49793,10.842511" style="fill: white" /><polygon type="contour" points="10.59313,10.497931 10.593007,10.536345 10.593007,10.593008 10.552019,10.593131 10.49793,10.593131 10.49793,10.552021 10.497913,10.497915 10.546598,10.497915" style="fill: white" /><polygon type="contour" points="10.88956,10.498022 10.948386,10.498022 10.948552,10.551151 10.948552,10.593222 10.905558,10.593008 10.842647,10.593008 10.84251,10.55202 10.84251,10.497931" style="fill: white" /><polygon type="contour" points="10.948565,10.33416 10.893244,10.333901 10.84251,10.333673 10.842626,10.206507 10.842626,10.040881 10.88956,10.040674 10.948565,10.040489" style="fill: white" /><polygon type="contour" points="11.163771,10.041218 11.385988,10.041218 11.385836,10.186577 11.385698,10.334629 11.301183,10.334629 11.16337,10.334267 11.1056,10.334513 11.1056,10.18196 11.10539,10.040968" style="fill: white" /><polygon type="contour" points="11.152326,9.741448 11.217186,9.741448 11.217161,9.791303 11.217038,9.852683 11.163836,9.852683 11.104772,9.852639 11.10474,9.792152 11.10474,9.741234" style="fill: white" /><polygon type="contour" points="10.948602,9.741234 10.948602,9.792152 10.948565,9.854809 10.893157,9.854891 10.842626,9.853066 10.842647,9.80788 10.842647,9.741217 10.889561,9.741023" style="fill: white" /><polygon type="contour" points="10.592932,9.789668 10.592932,9.853066 10.551315,9.853066 10.497319,9.852619 10.497913,9.795449 10.498043,9.741377 10.537645,9.741448 10.593007,9.741217" style="fill: white" /><polygon type="contour" points="10.592932,10.040881 10.59313,10.167426 10.59313,10.333673 10.552018,10.333673 10.497912,10.333746 10.497319,10.18325 10.497166,10.040877 10.54635,10.040877" style="fill: white" /><polygon type="contour" points="10.334485,10.189765 10.334627,10.334629 10.186574,10.334755 10.041454,10.334408 10.041454,10.18623 10.041322,10.041324 10.185403,10.041316 10.334612,10.041316" style="fill: white" /><polygon type="contour" points="10.190438,10.497915 10.333744,10.497915 10.333744,10.5466 10.333671,10.593131 10.206506,10.592933 10.040878,10.592933 10.040576,10.546572 10.040576,10.497321" style="fill: white" /><polygon type="contour" points="9.852617,10.546572 9.853064,10.592933 9.807878,10.593008 9.741215,10.593008 9.741156,10.552021 9.740987,10.498045 9.790913,10.497529 9.852617,10.497321" style="fill: white" /><polygon type="contour" points="9.853021,10.889562 9.852637,10.948509 9.791769,10.948604 9.740851,10.948604 9.741039,10.90429 9.741215,10.842648 9.789665,10.842627 9.853064,10.842627" style="fill: white" /><polygon type="contour" points="9.852637,11.104775 9.852681,11.163838 9.852681,11.217038 9.790913,11.217163 9.741039,11.217189 9.740851,11.165443 9.740851,11.104743 9.791769,11.104743" style="fill: white" /><polygon type="contour" points="9.09024,11.164493 9.090138,11.276413 9.090228,11.334004 9.089418,11.387657 8.898407,11.386481 8.797394,11.385761 8.797394,11.344718 8.797408,11.250599 8.797161,11.105644 9.090496,11.105644" style="fill: white" /><polygon type="contour" points="9.339549,11.104743 9.390468,11.104743 9.390254,11.152328 9.390254,11.217189 9.340399,11.217163 9.27902,11.217039 9.278579,11.163478 9.27863,11.104647" style="fill: white" /><polygon type="contour" points="9.323821,10.842648 9.390483,10.842648 9.390679,10.889563 9.390468,10.948604 9.339549,10.948604 9.276893,10.948568 9.276812,10.893158 9.278637,10.842627" style="fill: white" /><polygon type="contour" points="9.390326,10.498045 9.390254,10.537647 9.390484,10.593008 9.342034,10.592933 9.278637,10.592933 9.278637,10.551925 9.279084,10.49804 9.336253,10.497915" style="fill: white" /><polygon type="contour" points="9.090483,10.192362 9.090247,10.335116 8.942826,10.334281 8.797074,10.334629 8.796241,10.186576 8.796587,10.041456 8.945473,10.041456 9.090483,10.041218" style="fill: white" /><polygon type="contour" points="9.390326,10.17102 9.390326,10.333949 9.340399,10.334688 9.278974,10.334727 9.278974,10.186049 9.27902,10.040908 9.337143,10.040908 9.390422,10.040764" style="fill: white" /><polygon type="contour" points="9.325392,9.741448 9.390254,9.741448 9.390422,9.791303 9.390422,9.852894 9.3404,9.852894 9.27902,9.852682 9.27902,9.794557 9.278809,9.741281" style="fill: white" /><polygon type="contour" points="9.090939,9.791302 9.090795,9.852683 8.945653,9.852728 8.796977,9.852728 8.797812,9.796572 8.797754,9.741377 8.928636,9.741281 9.090939,9.741281" style="fill: white" /><polygon type="contour" points="9.090795,9.337145 9.090939,9.390811 8.960681,9.390716 8.797754,9.390716 8.79764,9.340789 8.797832,9.279021 9.090795,9.279021" style="fill: white" /><polygon type="contour" points="9.390254,9.325394 9.390254,9.390662 9.340399,9.390811 9.278809,9.390811 9.278809,9.340789 9.27902,9.27902 9.340399,9.278811 9.390422,9.278811" style="fill: white" /><polygon type="contour" points="9.852681,9.279021 9.852681,9.337146 9.852892,9.390811 9.806305,9.390663 9.741039,9.390663 9.740892,9.340789 9.740892,9.278811 9.790914,9.278811" style="fill: white" /><polygon type="contour" points="9.852681,8.797833 9.852681,9.090797 9.794555,9.090797 9.740892,9.090941 9.740987,8.960683 9.740987,8.797756 9.790914,8.797641" style="fill: white" /><polygon type="contour" points="9.789666,8.538771 9.853064,8.538771 9.853064,8.580387 9.852617,8.634383 9.795447,8.633789 9.740987,8.633659 9.741038,8.594057 9.741215,8.538696" style="fill: white" /><polygon type="contour" points="9.854807,8.183137 9.854888,8.238546 9.853064,8.289077 9.807878,8.289056 9.741215,8.289056 9.741022,8.242141 9.740851,8.183099 9.791769,8.183099" style="fill: white" /><polygon type="contour" points="9.790914,7.91454 9.852681,7.914661 9.852681,7.967864 9.852637,8.026929 9.791769,8.026961 9.740851,8.026961 9.741039,7.979374 9.741039,7.914515" style="fill: white" /><polygon type="contour" points="7.818016,7.745669 8.026001,7.745761 8.026001,7.764039 8.025948,7.819389 8.026058,7.966522 8.026058,8.02606 7.878315,8.02606 7.745981,8.026225 7.745667,7.818017 7.745305,7.80821 7.744143,7.788252 7.743055,7.743057" style="fill: white" /><polygon type="contour" points="7.968964,8.797424 8.026099,8.79718 8.026099,8.948087 8.02631,9.090734 7.967927,9.090485 7.745711,9.090485 7.745864,8.945127 7.746003,8.797076 7.830514,8.797076" style="fill: white" /><polygon type="contour" points="8.238453,8.797802 8.289188,8.798032 8.289074,8.925197 8.289074,9.091219 8.242138,9.09142 8.183135,9.091214 8.183135,8.797544" style="fill: white" /><polygon type="contour" points="8.22614,8.538696 8.289053,8.538696 8.289188,8.579683 8.289188,8.633773 8.242139,8.633682 8.183315,8.633682 8.183149,8.580552 8.183149,8.538482" style="fill: white" /><polygon type="contour" points="8.026881,8.580552 8.026937,8.633682 7.968871,8.633789 7.914832,8.633789 7.914612,8.579684 7.914464,8.538696 7.964765,8.538482 8.026881,8.538482" style="fill: white" /><polygon type="contour" points="8.027087,8.239496 8.026881,8.28916 7.98071,8.289056 7.914464,8.289056 7.914447,8.235359 7.914674,8.183137 8.027087,8.183137" style="fill: white" /><polygon type="contour" points="8.234213,8.183316 8.242139,8.18315 8.289157,8.18315 8.289053,8.226142 8.289053,8.289056 8.242138,8.28916 8.183149,8.28916 8.183149,8.242141 8.183135,8.183137" style="fill: white" /><polygon type="contour" points="8.289157,7.964765 8.289157,8.026882 8.242139,8.026882 8.183135,8.027089 8.183135,7.914677 8.242138,7.914655 8.289053,7.914466" style="fill: white" /><polygon type="contour" points="8.587892,7.914669 8.633788,7.914833 8.633681,7.974029 8.633681,8.026939 8.584019,8.026939 8.53848,8.026882 8.538693,7.980711 8.538693,7.914466" style="fill: white" /><polygon type="contour" points="8.633681,8.183316 8.63368,8.24214 8.633771,8.289191 8.595356,8.289056 8.538693,8.289056 8.53848,8.24214 8.53848,8.18315 8.58055,8.18315" style="fill: white" /><polygon type="contour" points="9.090968,8.238546 9.091217,8.289077 8.964673,8.289191 8.79803,8.289191 8.797801,8.238456 8.797543,8.183137 9.091213,8.183137" style="fill: white" /><polygon type="contour" points="9.090228,7.797698 9.090228,7.850511 9.090138,7.855288 9.09024,7.96721 9.090496,8.02606 8.797161,8.02606 8.797409,7.967589 8.797409,7.881103 8.797394,7.814807 8.797394,7.745942 8.898408,7.745221 9.089418,7.744046" style="fill: white" /><polygon type="contour" points="9.390468,7.96626 9.390468,8.026961 9.339549,8.026961 9.27863,8.027057 9.278579,7.968223 9.27902,7.914662 9.340399,7.91454 9.390254,7.914515" style="fill: white" /><polygon type="contour" points="9.390254,8.227412 9.390484,8.289056 9.342034,8.289077 9.278637,8.289077 9.278679,8.24214 9.279063,8.183196 9.33955,8.183099 9.390468,8.183099" style="fill: white" /><polygon type="contour" points="9.390544,8.579684 9.390326,8.633658 9.3404,8.634175 9.279084,8.634382 9.279084,8.585131 9.278637,8.538771 9.323821,8.538696 9.390483,8.538696" style="fill: white" /><polygon type="contour" points="9.390422,8.928638 9.390422,9.090941 9.3404,9.090941 9.27902,9.090797 9.27902,8.797834 9.336794,8.797967 9.390326,8.797756" style="fill: white" /><polygon type="contour" points="9.090247,8.797297 9.090247,8.945474 9.090378,9.09038 8.946297,9.090388 8.797088,9.090388 8.797215,8.941939 8.797074,8.797076 8.945126,8.79695" style="fill: white" /><polygon type="contour" points="8.925194,8.538771 9.091217,8.538771 9.091125,8.58513 9.091125,8.634383 8.941262,8.633789 8.797955,8.633789 8.797955,8.585103 8.79803,8.538573" style="fill: white" /><polygon type="contour" points="8.633771,8.579683 8.633788,8.633789 8.585101,8.633789 8.53857,8.633773 8.538693,8.595358 8.538693,8.538696 8.579681,8.538573 8.633771,8.538573" style="fill: white" /><polygon type="contour" points="8.634382,8.948452 8.634382,9.091127 8.58513,9.091127 8.538768,9.09122 8.53857,8.964675 8.53857,8.798032 8.579681,8.798032 8.633788,8.797957" style="fill: white" /><polygon type="contour" points="8.634382,9.279085 8.633788,9.336254 8.633657,9.390716 8.594055,9.390663 8.538693,9.390486 8.538768,9.342036 8.538768,9.278639 8.580385,9.278639" style="fill: white" /><polygon type="contour" points="8.289074,9.278639 8.289053,9.323823 8.289053,9.390486 8.242139,9.390681 8.183098,9.390852 8.183098,9.339932 8.183135,9.276895 8.238543,9.276814" style="fill: white" /><polygon type="contour" points="8.027056,9.278632 8.027056,9.337434 8.02696,9.390852 7.979374,9.390663 7.914513,9.390663 7.914538,9.340789 7.91466,9.279021 7.968221,9.278581" style="fill: white" /><polygon type="contour" points="8.02696,9.792152 8.026927,9.852639 7.967862,9.852683 7.91466,9.852683 7.914538,9.791303 7.914513,9.741448 7.966259,9.741234 8.02696,9.741234" style="fill: white" /><polygon type="contour" points="8.289074,9.789667 8.289074,9.853066 8.242138,9.853023 8.183194,9.852639 8.183098,9.792153 8.183098,9.741234 8.22741,9.741448 8.289053,9.741217" style="fill: white" /><polygon type="contour" points="8.238544,10.040735 8.289074,10.040881 8.289188,10.167425 8.289188,10.333673 8.242138,10.333893 8.183135,10.33416 8.183135,10.040489" style="fill: white" /><polygon type="contour" points="8.0261,10.18196 8.0261,10.334513 7.968328,10.334267 7.830515,10.334629 7.746003,10.334629 7.745863,10.186576 7.745711,10.041218 7.831874,10.041218 7.967208,10.041461 8.026058,10.041205" style="fill: white" /><polygon type="contour" points="8.027056,10.546093 8.026881,10.593222 7.980711,10.593008 7.914464,10.593008 7.914668,10.54381 7.914832,10.497915 7.974028,10.498022 8.027056,10.49611" style="fill: white" /><polygon type="contour" points="8.289053,10.536345 8.289053,10.593008 8.242138,10.593222 8.183149,10.593222 8.183149,10.551151 8.183315,10.498022 8.242139,10.498022 8.289188,10.497931" style="fill: white" /><polygon type="contour" points="8.633788,10.5466 8.633771,10.593131 8.595356,10.593008 8.538693,10.593008 8.53857,10.55202 8.53857,10.497931 8.57968,10.497931 8.633788,10.497915" style="fill: white" /><polygon type="contour" points="8.948451,10.49804 9.091125,10.49804 9.091125,10.546573 9.091217,10.592933 8.964672,10.593131 8.79803,10.593131 8.797955,10.5466 8.797955,10.497915" style="fill: white" /><polygon type="contour" points="8.925195,10.842627 9.091217,10.842627 9.090968,10.893158 9.091213,10.948568 8.797543,10.948568 8.797801,10.893246 8.79803,10.842511" style="fill: white" /><polygon type="contour" points="8.63368,10.889563 8.633681,10.948388 8.584019,10.948388 8.53848,10.948554 8.538693,10.905561 8.538693,10.842648 8.57968,10.842511 8.633771,10.842511" style="fill: white" /><polygon type="contour" points="8.633788,11.162828 8.633788,11.216869 8.579681,11.217089 8.538693,11.217237 8.53848,11.166937 8.53848,11.104822 8.58055,11.104822 8.633681,11.104765" style="fill: white" /><polygon type="contour" points="8.289157,11.104822 8.289053,11.150992 8.289053,11.217238 8.235357,11.217253 8.183135,11.217026 8.183135,11.104614 8.239495,11.104614" style="fill: white" /><polygon type="contour" points="8.226141,10.842648 8.289053,10.842648 8.289157,10.889562 8.289157,10.948554 8.242139,10.948554 8.183135,10.948568 8.183135,10.892208 8.183149,10.842544" style="fill: white" /><polygon type="contour" points="8.026881,10.889562 8.027087,10.948568 7.914675,10.948568 7.914653,10.889562 7.914464,10.842647 7.964764,10.842544 8.026881,10.842544" style="fill: white" /><polygon type="contour" points="8.026224,11.131265 8.026001,11.367664 8.026001,11.385943 7.818015,11.386035 7.743054,11.388648 7.745304,11.323494 7.745667,11.313686 7.745981,11.105479 8.026224,11.105479" style="fill: white" />
</svg>
