<svg width="19.131698" height="19.131699">
<polygon type="contour" points="5.076191,13.619086 5.0762,13.620807 5.076195,13.621574 5.075843,13.64489 5.077053,13.811347 5.077232,13.843999 5.077295,13.847978 5.077145,13.849261 5.078658,13.930192 5.079064,13.938494 5.081032,13.972768 5.082234,13.98069 5.082463,13.996195 5.082551,14.000146 5.083569,14.048132 5.131555,14.04915 5.135505,14.049237 5.15101,14.049467 5.158932,14.050669 5.201507,14.053042 5.282438,14.054556 5.283724,14.054407 5.2877,14.054468 5.320354,14.054648 5.486811,14.055859 5.510127,14.055507 5.510895,14.055502 5.512615,14.05551 5.524164,14.427953 5.52315,14.437852 5.46085,14.437852 4.806863,14.437952 4.766994,14.438049 4.693673,14.43803 4.693701,14.365573 4.693653,14.350308 4.69392,13.677455 4.69392,13.605397 4.705456,13.604043" style="fill: white" /><polygon type="contour" points="4.559312,13.619255 4.565745,13.619119 4.569183,13.619252 4.569183,13.640019 4.568734,13.859408 4.56846,14.43803 4.505677,14.437954 4.236,14.437954 4.23691,13.663428 4.236931,13.611261" style="fill: white" /><polygon type="contour" points="4.286192,14.563243 4.56846,14.563243 4.5685,14.626023 4.5685,14.895703 4.505678,14.895703 4.236174,14.895527 4.236174,14.778662 4.236,14.563202" style="fill: white" /><polygon type="contour" points="5.526897,14.86638 5.528174,14.895665 5.450048,14.895678 4.890676,14.895492 4.693749,14.895703 4.693673,14.84551 4.693673,14.563243 4.784937,14.563243 4.821489,14.563181 5.464538,14.562473 5.52187,14.562473" style="fill: white" /><polygon type="contour" points="5.539535,16.574599 5.5426,16.580966 5.543724,16.59001 5.54194,16.597197 5.531262,16.597186 5.526138,16.597187 5.328887,16.597476 5.189527,16.59749 5.102429,16.597669 5.026745,16.597445 5.026601,16.693 4.85496,16.693 4.693782,16.69262 4.693988,16.634853 4.693723,16.573494 4.694048,16.528206 4.693698,16.509133 4.693673,16.502977 4.693673,16.370962 4.693717,16.360185 4.766444,16.360143 4.793174,16.360086 5.440256,16.359844 5.53211,16.35979" style="fill: white" /><polygon type="contour" points="4.818559,15.970474 5.426906,15.97075 5.53828,15.970782 5.532933,16.157135 5.53211,16.166448 5.440256,16.166461 4.69365,16.166383 4.69365,16.002651 4.693749,15.970438 4.814765,15.970438" style="fill: white" /><polygon type="contour" points="4.568496,16.002652 4.568496,16.166383 4.505678,16.166305 4.236177,16.166107 4.236177,16.114418 4.236174,15.970523 4.353039,15.970523 4.5685,15.970438" style="fill: white" /><polygon type="contour" points="4.56846,16.360123 4.56846,16.502925 4.333466,16.502539 4.324757,16.502505 4.236174,16.502626 4.236174,16.452435 4.236177,16.359708 4.307838,16.359636" style="fill: white" /><polygon type="contour" points="2.496847,16.359639 2.554832,16.359639 2.556789,16.359556 2.601075,16.359595 2.619945,16.359621 2.629236,16.359667 2.772036,16.359667 2.772036,16.502467 2.772081,16.511757 2.772108,16.530626 2.772147,16.574912 2.772063,16.634853 2.772302,16.637666 2.772364,16.692539 2.623968,16.692883 2.622876,16.69307 2.438823,16.692879 2.438823,16.650486 2.439202,16.481039 2.439082,16.359418" style="fill: white" /><polygon type="contour" points="3.017283,16.359709 3.160894,16.359709 3.160894,16.397503 3.161178,16.502626 3.099663,16.502577 2.965494,16.502467 2.965494,16.359666" style="fill: white" /><polygon type="contour" points="3.161178,16.039166 3.160894,16.166107 3.115206,16.166209 2.965494,16.166209 2.965595,16.114418 2.965595,15.970806 3.017284,15.970806 3.161178,15.970523" style="fill: white" /><polygon type="contour" points="2.771994,15.970806 2.772036,16.016495 2.772036,16.166209 2.629236,16.166209 2.629193,16.114417 2.629076,15.970523 2.679265,15.970523" style="fill: white" /><polygon type="contour" points="2.772065,14.823863 2.771994,14.895525 2.734199,14.895525 2.629076,14.895527 2.629162,14.798234 2.628778,14.563243 2.750003,14.563242 2.771577,14.563242" style="fill: white" /><polygon type="contour" points="3.161265,14.626023 3.161178,14.895527 3.092534,14.895527 2.965595,14.895525 2.965395,14.626023 2.965319,14.563207 3.002295,14.563202 3.161265,14.563202" style="fill: white" /><polygon type="contour" points="3.160952,13.705406 3.161264,14.437954 3.12905,14.438052 2.965319,14.438052 2.965319,14.336176 2.965494,13.599893 3.144394,13.595208 3.160926,13.594203" style="fill: white" /><polygon type="contour" points="2.557102,13.592165 2.771965,13.603612 2.771531,14.311201 2.771548,14.364557 2.771515,14.437985 2.639967,14.437986 2.628724,14.43803 2.622571,14.438005 2.603494,14.437653 2.558207,14.43798 2.554832,14.437714 2.496847,14.437714 2.494036,14.437899 2.439082,14.43792 2.438703,14.27674 2.438703,14.105099 2.534258,14.104923 2.53403,14.029272 2.534212,13.942173 2.534226,13.802814 2.534516,13.605562 2.534517,13.600436 2.534506,13.589761 2.541692,13.587977" style="fill: white" /><polygon type="contour" points="2.623968,2.43882 2.772364,2.439165 2.772063,2.496849 2.772063,2.554835 2.772147,2.556791 2.772108,2.601077 2.77208,2.619945 2.772036,2.629238 2.772036,2.772037 2.629235,2.772037 2.619944,2.772082 2.601076,2.772108 2.556789,2.772149 2.496848,2.772064 2.494035,2.772303 2.439082,2.772285 2.439202,2.650664 2.438823,2.481218 2.438823,2.438825 2.622875,2.438633" style="fill: white" /><polygon type="contour" points="3.161178,2.679267 3.160894,2.771994 3.115205,2.772037 2.965494,2.772037 2.965494,2.629238 3.017283,2.629196 3.161178,2.629077" style="fill: white" /><polygon type="contour" points="3.017283,2.965596 3.160894,2.965596 3.160894,3.017285 3.161178,3.16118 3.092535,3.16118 2.965595,3.160895 2.965494,3.115208 2.965494,2.965495" style="fill: white" /><polygon type="contour" points="2.771994,3.017284 2.771994,3.160896 2.734199,3.160896 2.629076,3.16118 2.629125,3.099664 2.629236,2.965495 2.772036,2.965495" style="fill: white" /><polygon type="contour" points="2.771994,4.236178 2.772065,4.30784 2.771577,4.568461 2.628778,4.568461 2.629162,4.333469 2.629076,4.236176 2.679266,4.236176" style="fill: white" /><polygon type="contour" points="2.771515,4.693719 2.771548,4.767146 2.771531,4.820502 2.771965,5.528091 2.534685,5.51095 2.534198,5.511006 2.534026,5.096423 2.534137,5.026746 2.438703,5.026603 2.438703,4.854961 2.439082,4.693785 2.496847,4.69399 2.558207,4.693724 2.603494,4.69405 2.62257,4.6937 2.628725,4.693674 2.760736,4.693674" style="fill: white" /><polygon type="contour" points="3.002295,4.69375 3.161264,4.69375 3.160952,5.426297 3.160926,5.537501 2.974988,5.532845 2.965253,5.532111 2.96524,5.440257 2.965319,4.693652" style="fill: white" /><polygon type="contour" points="3.161178,4.353042 3.161265,4.568502 3.12905,4.568497 2.965319,4.568497 2.965395,4.505679 2.965595,4.236179 3.017283,4.236179 3.161178,4.236176" style="fill: white" /><polygon type="contour" points="4.56846,4.784939 4.568735,5.272296 4.569183,5.491684 4.569183,5.512452 4.559312,5.512447 4.236931,5.520441 4.23691,5.468273 4.236,4.69375 4.286193,4.693674 4.56846,4.693674" style="fill: white" /><polygon type="contour" points="4.806864,4.693752 5.46085,4.693851 5.52315,4.693851 5.524164,4.703749 5.512615,5.076194 5.510895,5.076202 5.510127,5.076196 5.48681,5.075844 5.484021,5.075859 5.483697,5.075865 5.483605,5.075847 5.282438,5.077147 5.201508,5.078661 5.193207,5.079066 5.158934,5.081034 5.151011,5.082236 5.135505,5.082465 5.131556,5.082552 5.083569,5.083571 5.082551,5.131557 5.082463,5.135507 5.082233,5.151012 5.081032,5.158936 5.079064,5.193208 5.078658,5.20151 5.077145,5.282442 5.077295,5.283726 5.077232,5.287704 5.077053,5.320356 5.075843,5.486813 5.076195,5.510129 5.076201,5.510897 5.076192,5.512617 4.705456,5.527661 4.69392,5.526307 4.69392,5.454249 4.693653,4.781395 4.693701,4.76613 4.693673,4.693674 4.766994,4.693655" style="fill: white" /><polygon type="contour" points="4.56846,4.286193 4.56846,4.568461 4.505677,4.568502 4.236,4.568502 4.236,4.505679 4.236174,4.236176 4.353039,4.236176 4.5685,4.236002" style="fill: white" /><polygon type="contour" points="4.890676,4.236213 5.450048,4.236027 5.528174,4.236039 5.522613,4.559505 5.52187,4.56923 5.464537,4.56923 4.82149,4.568523 4.693673,4.568461 4.693673,4.286194 4.693749,4.236002 4.814764,4.236002" style="fill: white" /><polygon type="contour" points="4.5685,3.002298 4.5685,3.161266 4.505678,3.161266 4.236174,3.16118 4.236174,3.092536 4.236177,2.965596 4.505678,2.965398 4.568496,2.965321" style="fill: white" /><polygon type="contour" points="4.56846,2.771578 4.505677,2.771549 4.236177,2.771995 4.236177,2.734201 4.236174,2.629077 4.333467,2.629163 4.56846,2.628779" style="fill: white" /><polygon type="contour" points="5.026779,2.53426 5.102429,2.534031 5.189527,2.534213 5.328886,2.534228 5.526138,2.534518 5.531262,2.534519 5.54194,2.534508 5.543724,2.541694 5.5426,2.550737 5.539535,2.557104 5.532186,2.77211 4.793173,2.771615 4.766444,2.771559 4.693717,2.771517 4.693717,2.639968 4.693673,2.628725 4.693698,2.622571 4.694048,2.603496 4.693722,2.558209 4.693988,2.554835 4.693988,2.496848 4.6938,2.494037 4.693781,2.439084 4.85496,2.438705 5.026601,2.438705" style="fill: white" /><polygon type="contour" points="5.53211,2.965255 5.537134,3.144395 5.538281,3.160922 5.426908,3.160953 4.818558,3.16123 4.693749,3.161266 4.69365,3.129052 4.69365,2.965321 5.440255,2.965242" style="fill: white" /><polygon type="contour" points="14.895524,4.236176 14.895524,4.353042 14.895702,4.568502 14.845509,4.568461 14.56324,4.568461 14.5632,4.505679 14.5632,4.236002 14.626021,4.236002" style="fill: white" /><polygon type="contour" points="14.626022,4.69375 14.895701,4.69375 14.894789,5.468274 14.89477,5.520441 14.572386,5.512447 14.565954,5.512585 14.562517,5.512452 14.562517,5.491685 14.562964,5.272295 14.56324,4.693674" style="fill: white" /><polygon type="contour" points="14.438027,4.693674 14.437998,4.76613 14.438046,4.781395 14.437779,5.454249 14.437779,5.526307 14.426242,5.527661 14.055508,5.512617 14.0555,5.510897 14.055505,5.510129 14.055856,5.486813 14.055842,5.484023 14.055836,5.483699 14.055853,5.483607 14.054553,5.282442 14.05304,5.20151 14.052633,5.193208 14.050667,5.158936 14.049464,5.151013 14.049236,5.135507 14.049149,5.131557 14.048131,5.083572 14.000144,5.082553 13.996193,5.082465 13.980687,5.082236 13.972765,5.081034 13.930189,5.07866 13.849258,5.077147 13.847975,5.077297 13.843996,5.077234 13.811344,5.077055 13.644887,5.075845 13.621573,5.076197 13.620805,5.076202 13.619084,5.076194 13.607534,4.703749 13.608549,4.693851 13.670848,4.693851 14.324835,4.693752 14.364705,4.693655" style="fill: white" /><polygon type="contour" points="14.438027,4.286194 14.438027,4.568461 14.346762,4.568461 14.310209,4.568523 13.66716,4.56923 13.609829,4.56923 13.604801,4.265323 13.603525,4.236039 13.68165,4.236027 14.241023,4.236213 14.437951,4.236002" style="fill: white" /><polygon type="contour" points="14.437918,2.439084 14.437713,2.496849 14.437978,2.558208 14.437652,2.603497 14.438002,2.622571 14.438027,2.628725 14.438027,2.760737 14.437983,2.771517 14.365255,2.771559 14.338526,2.771615 13.599512,2.772111 13.62073,2.534586 13.620697,2.5342 14.035072,2.534095 14.104957,2.534139 14.105098,2.438705 14.276741,2.438705" style="fill: white" /><polygon type="contour" points="14.438049,2.965321 14.438049,3.129053 14.437951,3.161266 14.316934,3.161266 14.313141,3.161231 13.704792,3.160953 13.59342,3.160922 13.598765,2.974568 13.599589,2.965255 13.691443,2.965242" style="fill: white" /><polygon type="contour" points="14.626021,2.965398 14.895522,2.965596 14.895522,3.017284 14.895524,3.16118 14.77866,3.16118 14.5632,3.161266 14.563204,3.129052 14.563204,2.965321" style="fill: white" /><polygon type="contour" points="14.895524,2.629077 14.895524,2.679267 14.895522,2.771995 14.82386,2.772067 14.56324,2.771578 14.56324,2.628779 14.626022,2.62875" style="fill: white" /><polygon type="contour" points="16.032037,2.629127 16.166208,2.629238 16.166208,2.772037 16.114417,2.771995 15.970805,2.771995 15.970805,2.7342 15.970521,2.629077" style="fill: white" /><polygon type="contour" points="16.692876,2.438825 16.692876,2.481218 16.692497,2.650665 16.692618,2.772285 16.634851,2.772065 16.576868,2.772065 16.57491,2.772149 16.530623,2.772108 16.511755,2.772082 16.502465,2.772037 16.359666,2.772037 16.359666,2.645903 16.359665,2.629238 16.35962,2.619945 16.359593,2.601078 16.359553,2.556791 16.359638,2.496849 16.359398,2.494038 16.359336,2.439165 16.507732,2.43882 16.508823,2.438633" style="fill: white" /><polygon type="contour" points="16.502505,3.017284 16.502624,3.16118 16.452432,3.16118 16.359707,3.160896 16.359665,3.115207 16.359665,2.965495 16.502465,2.965495" style="fill: white" /><polygon type="contour" points="16.166105,3.017284 16.166105,3.160896 16.114416,3.160896 15.970521,3.16118 15.970521,3.092536 15.970805,2.965596 16.016494,2.965495 16.166208,2.965495" style="fill: white" /><polygon type="contour" points="16.166105,4.236179 16.166303,4.505679 16.166381,4.568497 16.129403,4.568502 15.970436,4.568502 15.970436,4.505679 15.970521,4.236176 16.039162,4.236176" style="fill: white" /><polygon type="contour" points="16.502537,4.333468 16.502921,4.568461 16.360122,4.568461 16.359636,4.30784 16.359707,4.236179 16.3975,4.236179 16.502624,4.236176" style="fill: white" /><polygon type="contour" points="16.509128,4.6937 16.528203,4.694048 16.573494,4.693725 16.576869,4.69399 16.634852,4.69399 16.637664,4.693803 16.692618,4.693785 16.692998,4.854961 16.692998,5.026603 16.597557,5.026781 16.597671,5.096424 16.597501,5.511006 16.597012,5.510951 16.359736,5.528091 16.360168,4.820502 16.360152,4.767146 16.360183,4.693719 16.491731,4.693719 16.502974,4.693674" style="fill: white" /><polygon type="contour" points="16.166381,4.795527 16.166208,5.53181 15.987305,5.536496 15.970773,5.537501 15.970746,5.426296 15.970436,4.69375 16.00265,4.693652 16.166381,4.693652" style="fill: white" /><polygon type="contour" points="16.502537,14.798235 16.502624,14.895527 16.452433,14.895527 16.359707,14.895525 16.359636,14.823863 16.360122,14.563243 16.502921,14.563243" style="fill: white" /><polygon type="contour" points="16.00265,14.563207 16.166381,14.563207 16.166302,14.626024 16.166105,14.895525 16.114417,14.895525 15.970521,14.895527 15.970521,14.778662 15.970436,14.563202" style="fill: white" /><polygon type="contour" points="16.597193,13.589761 16.597182,13.600449 16.597183,13.605562 16.597474,13.802815 16.597486,13.942173 16.597666,14.029273 16.597439,14.104956 16.692998,14.105099 16.692998,14.27674 16.692618,14.43792 16.634851,14.437714 16.573494,14.43798 16.528202,14.437653 16.509129,14.438004 16.502973,14.43803 16.370962,14.43803 16.360182,14.437986 16.360152,14.364558 16.360168,14.311202 16.359625,13.681016 16.359572,13.603469 16.574597,13.592165 16.590007,13.587977" style="fill: white" /><polygon type="contour" points="16.156708,13.598858 16.166444,13.599591 16.166457,13.691446 16.166381,14.438052 16.129402,14.437954 15.970436,14.437954 15.970746,13.705407 15.970773,13.594203" style="fill: white" /><polygon type="contour" points="14.437779,13.605396 14.437779,13.677455 14.438046,14.350308 14.437998,14.365573 14.438027,14.43803 14.364705,14.438049 14.324835,14.437952 13.670848,14.437852 13.608549,14.437852 13.607535,14.427953 13.619082,14.05551 13.620803,14.055502 13.621571,14.055507 13.644885,14.055858 13.811344,14.054647 13.843997,14.054468 13.847974,14.054407 13.849257,14.054556 13.930189,14.053042 13.938492,14.052636 13.972764,14.050669 13.980688,14.049467 13.996193,14.049236 14.000143,14.049151 14.048131,14.048131 14.04915,14.000145 14.049235,13.996195 14.049464,13.98069 14.050667,13.972767 14.052633,13.938494 14.05304,13.930192 14.054553,13.849261 14.054404,13.847978 14.054466,13.843999 14.054644,13.811347 14.055856,13.64489 14.055505,13.621574 14.0555,13.620806 14.055508,13.619086 14.426242,13.604043" style="fill: white" /><polygon type="contour" points="14.894789,13.663427 14.895702,14.437954 14.845508,14.43803 14.56324,14.43803 14.56324,14.346764 14.562964,13.859408 14.562517,13.640018 14.562517,13.619252 14.572387,13.619256 14.89477,13.611261" style="fill: white" /><polygon type="contour" points="14.895702,14.626023 14.895524,14.895527 14.778659,14.895527 14.5632,14.895703 14.56324,14.845511 14.56324,14.563243 14.626022,14.563202 14.895702,14.563202" style="fill: white" /><polygon type="contour" points="14.310209,14.56318 14.438027,14.563243 14.438027,14.84551 14.437951,14.895703 14.316935,14.895703 14.241023,14.895492 13.681652,14.895677 13.603526,14.895664 13.609084,14.572198 13.609829,14.562474 13.66716,14.562474" style="fill: white" /><polygon type="contour" points="14.338525,16.360086 14.365255,16.360143 14.437983,16.360185 14.437983,16.491735 14.438026,16.502978 14.438001,16.509133 14.437652,16.528206 14.437978,16.573495 14.437713,16.57687 14.437713,16.634853 14.437898,16.637666 14.437918,16.69262 14.276741,16.693 14.105098,16.693 14.104922,16.597561 14.035071,16.597607 13.624631,16.597346 13.622385,16.597345 13.621387,16.597345 13.620339,16.597346 13.62039,16.596535 13.620383,16.596514 13.620599,16.594265 13.599512,16.359592" style="fill: white" /><polygon type="contour" points="14.438049,16.002652 14.438049,16.166383 13.691442,16.166461 13.599589,16.166448 13.594566,15.987308 13.59342,15.970782 13.704793,15.97075 14.31314,15.970473 14.437951,15.970438" style="fill: white" /><polygon type="contour" points="14.895524,15.970523 14.895524,16.039167 14.895522,16.166107 14.626021,16.166305 14.563204,16.166383 14.5632,16.129404 14.5632,15.970438 14.626021,15.970438" style="fill: white" /><polygon type="contour" points="14.895522,16.397503 14.895524,16.502626 14.798231,16.502539 14.56324,16.502925 14.56324,16.360123 14.626021,16.360153 14.895522,16.359709" style="fill: white" /><polygon type="contour" points="16.166208,16.502467 16.064557,16.502549 15.970521,16.502626 15.970521,16.452436 15.970805,16.359709 16.016493,16.359666 16.166208,16.359666" style="fill: white" /><polygon type="contour" points="16.166105,15.970806 16.166208,16.016495 16.166208,16.166209 16.114416,16.166107 15.970805,16.166107 15.970805,16.114417 15.970521,15.970523 16.039162,15.970523" style="fill: white" /><polygon type="contour" points="16.502575,16.032039 16.502465,16.166209 16.359665,16.166209 16.359707,16.114418 16.359707,15.970806 16.397501,15.970806 16.502624,15.970523" style="fill: white" /><polygon type="contour" points="16.692618,16.359418 16.692497,16.481039 16.692876,16.650486 16.692876,16.692879 16.508822,16.693071 16.507731,16.692883 16.359336,16.692539 16.359637,16.634853 16.359637,16.57687 16.359553,16.574912 16.359593,16.530625 16.35962,16.511757 16.359665,16.502467 16.359665,16.359667 16.502465,16.359667 16.511756,16.359621 16.530623,16.359595 16.57491,16.359556 16.634851,16.359639 16.637664,16.3594" style="fill: white" />
</svg>
