<svg width="19.131698" height="19.131699">
<polygon type="contour" points="10.83051,8.44582 10.827848,8.579286 10.80805,8.579286 10.780824,8.579245 10.76229,8.579269 10.660847,8.579269 10.661012,8.688219 10.660723,8.763051 10.582746,8.762954 10.552123,8.762954 10.552123,8.762842 10.403552,8.763051 10.368652,8.763051 10.368748,8.688219 10.368748,8.659158 10.368854,8.659158 10.368652,8.507752 10.368652,8.470976 10.398513,8.47105 10.552307,8.47039 10.552307,8.363023 10.553997,8.301983 10.629105,8.302956 10.834557,8.297145" style="fill: white" /><polygon type="contour" points="8.763197,9.249023 8.763197,9.854427 8.763049,9.919242 8.763049,9.951804 8.688218,9.951659 8.659156,9.951659 8.659156,9.951498 8.507751,9.951804 8.470974,9.951804 8.471134,9.923618 8.471239,9.76837 8.395739,9.767775 8.304191,9.767775 8.303485,9.729772 8.300935,9.679162 8.299631,9.565502 8.300935,9.452308 8.303485,9.401835 8.304191,9.363927 8.395739,9.363927 8.471609,9.363327 8.47104,9.249022 8.470974,9.179901 8.548955,9.180044 8.579578,9.180044 8.579578,9.180208 8.728144,9.179901 8.763049,9.179901" style="fill: white" /><polygon type="contour" points="8.502595,8.302956 8.577704,8.301983 8.579312,8.354642 8.579394,8.363022 8.579583,8.470853 8.688218,8.470689 8.763049,8.470976 8.762952,8.548957 8.762952,8.579579 8.76284,8.579579 8.763049,8.728147 8.763049,8.763051 8.688217,8.762954 8.659156,8.762954 8.659156,8.762846 8.50775,8.763051 8.470974,8.763051 8.471048,8.733188 8.470388,8.579286 8.303852,8.579286 8.303345,8.563271 8.302589,8.544988 8.297639,8.496282 8.297143,8.297145" style="fill: white" /><polygon type="contour" points="9.566198,8.299661 9.729866,8.303487 9.767773,8.304193 9.767699,8.345839 9.767772,8.39574 9.770983,8.471594 9.882677,8.471041 9.951802,8.470976 9.951658,8.548956 9.951658,8.579579 9.951491,8.579579 9.951802,8.728147 9.951802,8.763051 9.882676,8.763199 9.277271,8.763199 9.212458,8.763051 9.179899,8.763051 9.180042,8.688219 9.180042,8.659157 9.1802,8.659157 9.179899,8.507753 9.179899,8.470975 9.208083,8.471134 9.363328,8.47124 9.363925,8.395741 9.364001,8.345838 9.363925,8.304193 9.401928,8.303487 9.489725,8.299486" style="fill: white" /><polygon type="contour" points="9.951729,9.249022 9.951729,9.768048 9.951631,9.768048 9.951802,9.919242 9.951802,9.951804 9.882677,9.951731 9.36365,9.951731 9.36365,9.951633 9.212458,9.951804 9.179899,9.951804 9.179972,9.882679 9.179972,9.363653 9.180069,9.363653 9.179899,9.21246 9.179899,9.179901 9.249019,9.179974 9.768046,9.179974 9.768046,9.180071 9.91924,9.179901 9.951802,9.179901" style="fill: white" /><polygon type="contour" points="10.660564,9.208084 10.660463,9.36333 10.735961,9.363927 10.827508,9.363927 10.828216,9.401932 10.830766,9.452542 10.832069,9.566202 10.830766,9.679395 10.828216,9.729868 10.827508,9.767775 10.735961,9.767775 10.66009,9.768373 10.660659,9.882678 10.660722,9.951804 10.582745,9.951659 10.552123,9.951659 10.552123,9.951491 10.403553,9.951804 10.368652,9.951804 10.368503,9.882678 10.368503,9.277273 10.368652,9.21246 10.368652,9.179901 10.443483,9.180044 10.472544,9.180044 10.472544,9.180202 10.623946,9.179901 10.660723,9.179901" style="fill: white" /><polygon type="contour" points="10.660649,10.398514 10.661315,10.552419 10.827848,10.552419 10.828352,10.568432 10.829109,10.586717 10.83406,10.635421 10.834557,10.834559 10.629105,10.828748 10.553997,10.829722 10.552389,10.777062 10.552307,10.768681 10.552117,10.66085 10.443483,10.661015 10.368652,10.660725 10.368748,10.582748 10.368748,10.552126 10.368858,10.552126 10.368652,10.403555 10.368652,10.368654 10.443483,10.36875 10.472544,10.36875 10.472544,10.368856 10.623946,10.368654 10.660723,10.368654" style="fill: white" /><polygon type="contour" points="9.919241,10.368654 9.951802,10.368654 9.951658,10.443485 9.951658,10.472546 9.951498,10.472546 9.951802,10.623949 9.951802,10.660726 9.923617,10.660567 9.768509,10.660466 9.768581,10.759361 9.767773,10.827509 9.72977,10.828217 9.641976,10.832219 9.5655,10.832044 9.401834,10.828217 9.363925,10.827509 9.364001,10.785865 9.363925,10.735962 9.360714,10.660109 9.24902,10.660662 9.179899,10.660726 9.180042,10.582749 9.180042,10.552126 9.180206,10.552126 9.179899,10.403555 9.179899,10.368653 9.249019,10.368505 9.854425,10.368505" style="fill: white" /><polygon type="contour" points="8.762952,10.443485 8.762952,10.472546 8.762844,10.472546 8.763049,10.623948 8.763049,10.660726 8.733186,10.660652 8.579394,10.661315 8.579394,10.768681 8.577704,10.829722 8.502595,10.828748 8.297143,10.834559 8.30119,10.685883 8.303852,10.552419 8.470852,10.552419 8.470687,10.443484 8.470974,10.368654 8.548955,10.36875 8.579578,10.36875 8.579578,10.36886 8.728145,10.368654 8.763049,10.368654" style="fill: white" />
</svg>
