<svg width="19.131698" height="19.131699">
<polygon type="contour" points="3.111666,2.884009 3.217453,2.884254 3.217077,2.956387 3.217077,3.028896 3.217182,3.031345 3.217144,3.074344 3.217144,3.217145 3.074343,3.217145 3.031342,3.217184 2.956386,3.217079 2.95287,3.217376 2.884151,3.217353 2.884301,3.06527 2.884013,2.936141 2.884013,2.884014 3.110322,2.883778" style="fill: white" /><polygon type="contour" points="3.837296,3.074384 3.836731,3.155358 3.836731,3.217193 3.721383,3.217091 3.503978,3.217091 3.503978,3.074291 3.685506,3.074249" style="fill: white" /><polygon type="contour" points="3.648207,3.503931 3.836731,3.503931 3.836731,3.648209 3.837296,3.837298 3.648207,3.836733 3.503929,3.836733 3.503929,3.648208 3.503978,3.503979 3.629343,3.503912" style="fill: white" /><polygon type="contour" points="3.21709,3.721384 3.217191,3.836733 3.155357,3.836733 3.074383,3.837298 3.074391,3.648208 3.074289,3.503979 3.21709,3.503979" style="fill: white" /><polygon type="contour" points="3.155357,4.588055 3.217191,4.588055 3.217132,4.66163 3.217132,4.783254 3.074223,4.783254 3.074304,4.683298 3.074383,4.587871" style="fill: white" /><polygon type="contour" points="3.837294,4.688337 3.837294,4.783368 3.648207,4.783355 3.503911,4.783253 3.503911,4.66163 3.503929,4.588055 3.648207,4.588055 3.837296,4.587871" style="fill: white" /><polygon type="contour" points="3.705268,5.13917 3.837294,5.138962 3.837176,5.361079 3.836992,5.404875 3.837103,5.491517 3.836814,5.554558 3.504313,5.554558 3.504499,5.484036 3.504232,5.390371 3.504304,5.344328 3.503978,5.138834" style="fill: white" /><polygon type="contour" points="3.217256,5.530103 3.217287,5.552974 3.074486,5.552974 3.074458,5.542814 3.073909,5.472449 2.979298,5.472001 2.955543,5.471899 2.953984,5.471871 2.883865,5.471765 2.883865,5.260717 2.884151,5.138854 2.956385,5.139111 3.033115,5.138779 3.074222,5.139074 3.104863,5.139074 3.142776,5.139035 3.209827,5.138703 3.217174,5.138676" style="fill: white" /><polygon type="contour" points="3.217426,5.784532 3.217428,6.070402 3.217094,6.380942 3.216918,6.603447 3.180183,6.606765 2.979188,6.602041 2.979404,6.313882 2.979266,6.29252 2.979181,6.063537 2.979361,5.917208 2.97926,5.878055 2.979271,5.784016 3.217271,5.784016" style="fill: white" /><polygon type="contour" points="3.836645,5.942848 3.836842,5.995797 3.836339,6.129386 3.836451,6.274643 3.836962,6.571902 3.787168,6.570431 3.504083,6.58697 3.504473,6.317077 3.503963,6.261481 3.504144,6.23752 3.504019,6.070643 3.50387,5.786377 3.503814,5.784388 3.836314,5.784388" style="fill: white" /><polygon type="contour" points="6.567993,5.416636 6.568186,5.447261 6.520625,5.447183 6.315228,5.446769 6.27353,5.447085 6.250036,5.44692 6.114958,5.446655 5.958289,5.445863 5.911764,5.445603 5.878613,5.445765 5.784386,5.445102 5.784386,5.138773 5.975077,5.138866 5.985216,5.13899 6.033517,5.138975 6.128843,5.138651 6.297464,5.138601 6.599552,5.138575" style="fill: white" /><polygon type="contour" points="5.995795,4.587559 6.129841,4.587541 6.187338,4.587714 6.595881,4.587882 6.568522,4.77444 6.569798,4.783292 6.535484,4.783286 6.317981,4.783185 6.294988,4.783278 6.200081,4.783376 6.033518,4.783473 5.786375,4.783679 5.784386,4.783629 5.784386,4.58763 5.942847,4.587513" style="fill: white" /><polygon type="contour" points="5.552579,4.588162 5.552579,4.783582 5.493252,4.783528 5.435794,4.783172 5.393996,4.783725 5.376068,4.783231 5.138922,4.783254 5.138922,4.671364 5.13896,4.587708 5.393996,4.587724 5.435795,4.587745 5.493253,4.587527" style="fill: white" /><polygon type="contour" points="5.482887,5.138714 5.532749,5.138772 5.552972,5.138788 5.552972,5.220238 5.552317,5.275038 5.552379,5.328915 5.55265,5.444267 5.531716,5.444577 5.525227,5.444721 5.511765,5.445007 5.506828,5.445147 5.488744,5.445207 5.462116,5.462028 5.445265,5.488649 5.445004,5.511767 5.444719,5.525229 5.444573,5.531719 5.444264,5.552653 5.396417,5.552735 5.29022,5.552735 5.237814,5.55281 5.138747,5.552837 5.138618,5.541204 5.138424,5.494359 5.138732,5.435797 5.138865,5.397659 5.139031,5.37558 5.138975,5.369934 5.13887,5.358047 5.138722,5.353019 5.139067,5.34833 5.139073,5.139074 5.360612,5.138872 5.383837,5.138979 5.401383,5.138748 5.418005,5.138923 5.436368,5.138733 5.467633,5.138584" style="fill: white" /><polygon type="contour" points="5.445763,5.878614 5.445601,5.911765 5.445862,5.958292 5.446655,6.114962 5.446918,6.250037 5.447082,6.273533 5.446767,6.31523 5.447181,6.520628 5.447244,6.535003 5.447259,6.568189 5.416634,6.567996 5.138573,6.599555 5.138547,6.394371 5.138596,6.320082 5.139123,6.225412 5.138973,6.033521 5.138825,5.786378 5.138771,5.784388 5.4451,5.784388" style="fill: white" /><polygon type="contour" points="4.783448,5.975078 4.783472,6.03352 4.783375,6.200083 4.783192,6.297485 4.783094,6.319379 4.783094,6.321174 4.783215,6.601554 4.684336,6.605873 4.587574,6.594658 4.587853,6.276098 4.587616,6.1285 4.587557,5.995797 4.587679,5.786378 4.587628,5.784388 4.783628,5.784388" style="fill: white" /><polygon type="contour" points="4.783632,5.380255 4.783433,5.415319 4.783426,5.46503 4.782897,5.532752 4.783054,5.552974 4.587567,5.552974 4.587575,5.532751 4.588034,5.46503 4.587982,5.415319 4.587632,5.380254 4.587705,5.138962 4.688335,5.138962 4.783253,5.138923" style="fill: white" /><polygon type="contour" points="4.783366,4.688337 4.783253,4.783254 4.671363,4.783254 4.587705,4.783368 4.587868,4.694738 4.587868,4.587871 4.688336,4.587708 4.783366,4.587708" style="fill: white" /><polygon type="contour" points="4.783353,3.648209 4.783366,3.837296 4.694735,3.837298 4.587869,3.837298 4.588053,3.648209 4.588053,3.503931 4.698786,3.503931 4.783252,3.503912" style="fill: white" /><polygon type="contour" points="4.783253,3.217133 4.661628,3.217133 4.588053,3.217193 4.588053,3.155358 4.587869,3.074384 4.683297,3.074305 4.783253,3.074224" style="fill: white" /><polygon type="contour" points="5.471896,2.955544 5.472,2.979301 5.471909,3.073803 5.547113,3.074696 5.552495,3.074677 5.552495,3.097067 5.552269,3.131763 5.552764,3.216859 5.543286,3.216729 5.138819,3.216911 5.139021,3.164862 5.139073,3.074223 5.138778,3.033116 5.139108,3.028896 5.139108,2.956387 5.138873,2.95287 5.138852,2.884153 5.260713,2.883866 5.471763,2.883866" style="fill: white" /><polygon type="contour" points="5.41314,3.503975 5.523654,3.503889 5.553386,3.503958 5.553386,3.836932 5.527069,3.8371 5.426302,3.836681 5.37057,3.836602 5.13896,3.837296 5.138691,3.648209 5.138832,3.503979 5.342543,3.503937 5.354296,3.503795" style="fill: white" /><polygon type="contour" points="5.944849,3.503913 5.990745,3.50402 6.115548,3.504145 6.237518,3.504145 6.261479,3.503964 6.267806,3.50406 6.316516,3.504121 6.587131,3.50412 6.589668,3.656045 6.567186,3.783727 6.573295,3.806135 6.571349,3.836083 6.43381,3.836086 6.129518,3.836683 5.995794,3.836844 5.786376,3.836373 5.784386,3.836316 5.784386,3.503815" style="fill: white" /><polygon type="contour" points="6.579054,3.055745 6.603882,3.21698 6.500612,3.217035 6.032215,3.216942 5.784546,3.217092 5.784546,3.108053 5.784386,2.979272 5.881038,2.9793 5.923612,2.979256 5.97271,2.979343 6.132002,2.979184 6.585775,2.979009" style="fill: white" /><polygon type="contour" points="12.815722,2.979296 12.836933,2.979162 13.068162,2.979182 13.214491,2.979362 13.253028,2.979262 13.347313,2.979272 13.347313,3.217273 13.347169,3.217428 13.061298,3.217429 12.73478,3.21725 12.545606,3.217112 12.537791,3.185369 12.530594,2.979093" style="fill: white" /><polygon type="contour" points="15.627789,6.00782 15.62768,6.070643 15.627555,6.237519 15.627739,6.261482 15.627229,6.317077 15.627617,6.586971 15.481276,6.591548 15.29474,6.571903 15.295249,6.274643 15.295361,6.129386 15.294858,5.995797 15.295328,5.786377 15.295386,5.784388 15.627887,5.784388" style="fill: white" /><polygon type="contour" points="16.108207,5.784494 16.15243,5.784388 16.152439,5.878673 16.152341,5.917208 16.152519,6.063537 16.152434,6.29252 16.152511,6.314099 16.152311,6.38444 16.152511,6.602042 15.934497,6.602527 15.914526,6.603806 15.914526,6.557956 15.914475,5.784312 16.079406,5.784312" style="fill: white" /><polygon type="contour" points="15.483494,4.588055 15.627771,4.588055 15.627771,4.698788 15.62779,4.783254 15.483493,4.783355 15.294406,4.783368 15.294404,4.694737 15.294404,4.587871" style="fill: white" /><polygon type="contour" points="15.627723,5.138834 15.627467,5.390371 15.6272,5.484036 15.627386,5.554558 15.294885,5.554558 15.294596,5.491517 15.294708,5.404874 15.294522,5.36108 15.294406,5.138962 15.483494,5.138693" style="fill: white" /><polygon type="contour" points="16.102806,5.139111 16.175314,5.139111 16.178829,5.138877 16.247548,5.138854 16.247836,5.260717 16.247836,5.471765 16.176157,5.471898 16.152397,5.472002 16.058649,5.472445 16.057006,5.547115 16.057024,5.552497 15.952175,5.552974 15.914413,5.552974 15.914444,5.530103 15.91479,5.138821 15.966836,5.139023 16.057475,5.139074 16.098586,5.138779" style="fill: white" /><polygon type="contour" points="16.057395,4.683298 16.057476,4.783254 15.914569,4.783254 15.914569,4.66163 15.914509,4.588055 15.976343,4.588055 16.057318,4.587871" style="fill: white" /><polygon type="contour" points="16.247686,2.884014 16.247686,2.936141 16.247398,3.065271 16.247549,3.217354 16.175314,3.217079 16.102806,3.217079 16.100358,3.217184 16.057355,3.217145 15.914557,3.217145 15.914557,3.074345 15.914518,3.031344 15.914624,2.956388 15.914324,2.952871 15.914247,2.884254 16.020034,2.884008 16.021375,2.883778" style="fill: white" /><polygon type="contour" points="16.057455,3.685509 16.057318,3.837298 15.976343,3.836733 15.914509,3.836733 15.91461,3.721384 15.91461,3.503979 16.057411,3.503979" style="fill: white" /><polygon type="contour" points="15.627723,3.217091 15.410315,3.217091 15.294968,3.217193 15.294968,3.155359 15.294404,3.074384 15.483494,3.074392 15.627723,3.074291" style="fill: white" /><polygon type="contour" points="15.627723,3.503979 15.62779,3.629345 15.627771,3.648209 15.627771,3.836733 15.483494,3.836733 15.294404,3.837298 15.294968,3.648209 15.294968,3.503931 15.483493,3.503931" style="fill: white" /><polygon type="contour" points="14.543647,3.50393 14.543647,3.648208 14.543832,3.837298 14.443365,3.837296 14.348335,3.837296 14.348347,3.648209 14.348448,3.503912 14.470071,3.503912" style="fill: white" /><polygon type="contour" points="14.448403,3.074305 14.543832,3.074384 14.543647,3.155358 14.543647,3.217193 14.470071,3.217133 14.348448,3.217133 14.348448,3.074224" style="fill: white" /><polygon type="contour" points="13.992849,2.884153 13.992591,2.956388 13.992923,3.033115 13.992628,3.074223 13.992628,3.104864 13.992666,3.142778 13.992945,3.217255 13.581149,3.216742 13.578937,3.216859 13.579431,3.131763 13.579204,3.074677 13.584585,3.074696 13.659252,3.073809 13.6597,2.9793 13.659804,2.955544 13.659832,2.953987 13.659936,2.883866 13.870985,2.883866" style="fill: white" /><polygon type="contour" points="13.8016,3.503801 13.807825,3.504384 13.992866,3.503979 13.992531,3.705269 13.99274,3.837296 13.705396,3.836681 13.604631,3.837099 13.578314,3.836931 13.578314,3.503958 13.608045,3.503889 13.718559,3.503976 13.777402,3.503795" style="fill: white" /><polygon type="contour" points="13.347313,3.836316 13.188852,3.836647 13.135901,3.836844 13.002178,3.836683 12.697886,3.836086 12.560348,3.836083 12.564511,3.783728 12.544569,3.50412 12.815183,3.504121 12.863893,3.50406 12.87022,3.503964 12.89418,3.504145 13.061057,3.50402 13.345321,3.503872 13.347313,3.503814" style="fill: white" /><polygon type="contour" points="13.135902,4.587559 13.345321,4.587681 13.347313,4.58763 13.347313,4.783629 13.156623,4.78345 13.098178,4.783474 12.931616,4.783376 12.836709,4.783277 12.814705,4.783215 12.596363,4.78329 12.561901,4.783293 12.527622,4.64912 12.535818,4.587882 12.94436,4.587714 13.001857,4.587541" style="fill: white" /><polygon type="contour" points="13.347313,5.445102 13.253087,5.445765 13.219936,5.445603 13.173406,5.445864 13.016738,5.446656 12.881662,5.44692 12.858169,5.447085 12.816471,5.446769 12.611074,5.447183 12.596699,5.447246 12.563514,5.447261 12.563445,5.4186 12.529193,5.138914 12.73704,5.138843 12.811543,5.138863 12.906289,5.139125 13.098178,5.138974 13.146483,5.13899 13.156623,5.138866 13.347313,5.138773" style="fill: white" /><polygon type="contour" points="13.695329,5.138733 13.713694,5.138923 13.730317,5.138748 13.74786,5.138979 13.771088,5.138872 13.773655,5.138872 13.992628,5.139074 13.992633,5.348331 13.992977,5.353019 13.99283,5.358047 13.992723,5.369935 13.992668,5.375579 13.992953,5.400858 13.993163,5.438455 13.992922,5.495468 13.993083,5.541204 13.992952,5.552836 13.893885,5.55281 13.841478,5.552735 13.736244,5.552697 13.687433,5.552653 13.687124,5.531718 13.686983,5.52523 13.686698,5.511768 13.686431,5.488647 13.669615,5.462081 13.642958,5.445207 13.624868,5.445147 13.619933,5.445007 13.606472,5.444721 13.599981,5.444576 13.579048,5.444267 13.579319,5.328916 13.579383,5.275037 13.578728,5.138788 13.59895,5.138772 13.648811,5.138714 13.664066,5.138584" style="fill: white" /><polygon type="contour" points="13.788096,4.587767 13.788514,4.587628 13.788977,4.587678 13.99274,4.587708 13.992779,4.671365 13.992779,4.783254 13.75563,4.783231 13.737703,4.783725 13.695905,4.783171 13.638446,4.783528 13.579119,4.783582 13.579119,4.588162 13.638446,4.587527 13.695905,4.587745 13.737703,4.587724 13.76459,4.587482" style="fill: white" /><polygon type="contour" points="14.436964,4.587871 14.543831,4.587871 14.543995,4.688338 14.543995,4.783368 14.443365,4.783368 14.348448,4.783254 14.348448,4.671365 14.348335,4.587708" style="fill: white" /><polygon type="contour" points="14.543995,5.138962 14.543875,5.38093 14.543718,5.415319 14.543666,5.46503 14.544123,5.532752 14.544132,5.552974 14.348645,5.552974 14.348802,5.532752 14.348274,5.46503 14.348267,5.415318 14.348376,5.38093 14.348448,5.138923 14.460336,5.138923" style="fill: white" /><polygon type="contour" points="14.544188,5.942848 14.544141,5.995798 14.544083,6.128499 14.543846,6.276098 14.544125,6.594658 14.462124,6.591193 14.348486,6.601554 14.348606,6.319379 14.348507,6.297484 14.348324,6.200083 14.348228,6.033521 14.348021,5.786377 14.348072,5.784388 14.544072,5.784388" style="fill: white" /><polygon type="contour" points="13.992834,5.975078 13.99271,5.985218 13.992726,6.03352 13.993053,6.128845 13.993103,6.297467 13.993128,6.599555 13.715062,6.567996 13.684437,6.568188 13.684515,6.520627 13.684934,6.315231 13.684618,6.273532 13.684782,6.250037 13.685044,6.114962 13.685838,5.958291 13.686097,5.911765 13.685936,5.878614 13.686599,5.784388 13.992929,5.784388" style="fill: white" /><polygon type="contour" points="13.345321,15.295328 13.347313,15.295387 13.347313,15.627889 13.23585,15.62779 13.203124,15.627682 13.111061,15.627558 12.894181,15.627558 12.87022,15.62774 12.863893,15.627644 12.815183,15.62758 12.54457,15.627582 12.542033,15.475655 12.564513,15.347976 12.558403,15.325567 12.560349,15.295621 12.697887,15.295618 13.002179,15.295019 13.135901,15.294858" style="fill: white" /><polygon type="contour" points="13.347,15.914439 13.347001,15.914439 13.346655,15.914527 13.347154,16.02365 13.347313,16.152431 13.253207,16.152422 13.214715,16.152316 13.068431,16.152472 12.836932,16.152541 12.815722,16.152407 12.745792,16.152434 12.530594,16.15261 12.550603,16.021611 12.545369,15.91465 12.680603,15.91465 13.203123,15.914415 13.298783,15.914343" style="fill: white" /><polygon type="contour" points="13.992679,15.96684 13.992628,16.05748 13.992923,16.098588 13.992592,16.102807 13.992592,16.175316 13.992824,16.178832 13.992849,16.247551 13.870985,16.247838 13.659936,16.247838 13.659804,16.176158 13.6597,16.1524 13.659789,16.057895 13.584585,16.057008 13.579204,16.057026 13.579204,16.034635 13.579431,15.99994 13.578937,15.914845 13.588415,15.914975 13.992881,15.914792" style="fill: white" /><polygon type="contour" points="13.993009,15.483494 13.992867,15.627725 13.789156,15.627767 13.777403,15.627908 13.718558,15.627727 13.608045,15.627815 13.578314,15.627746 13.578314,15.294772 13.60463,15.294605 13.705395,15.295023 13.992739,15.294407" style="fill: white" /><polygon type="contour" points="14.543648,15.483494 14.543648,15.627773 14.432913,15.627773 14.348448,15.627793 14.348347,15.483494 14.348335,15.294407 14.436965,15.294406 14.543832,15.294406" style="fill: white" /><polygon type="contour" points="14.543648,15.976345 14.543832,16.05732 14.448403,16.057397 14.348448,16.057478 14.348448,15.914571 14.470072,15.914571 14.543648,15.91451" style="fill: white" /><polygon type="contour" points="15.410315,15.914612 15.627723,15.914612 15.627723,16.057413 15.446192,16.057456 15.294404,16.05732 15.294968,15.976344 15.294968,15.91451" style="fill: white" /><polygon type="contour" points="16.247549,15.914349 16.247398,16.066433 16.247686,16.195563 16.247686,16.247689 16.021375,16.247926 16.020033,16.247694 15.914247,16.247449 15.914623,16.175316 15.914623,16.102807 15.914518,16.100359 15.914557,16.057357 15.914557,15.914559 16.057355,15.914559 16.100358,15.91452 16.175313,15.914625 16.178829,15.914326" style="fill: white" /><polygon type="contour" points="16.057309,15.483494 16.05741,15.627725 15.91461,15.627725 15.91461,15.410317 15.914509,15.294969 15.976342,15.294969 16.057318,15.294406" style="fill: white" /><polygon type="contour" points="15.483494,15.294969 15.627771,15.294969 15.627771,15.483494 15.627723,15.627725 15.502356,15.627793 15.483494,15.627773 15.294968,15.627773 15.294968,15.483494 15.294404,15.294406" style="fill: white" /><polygon type="contour" points="16.057395,14.448404 16.057318,14.543833 15.976343,14.543649 15.914509,14.543649 15.914569,14.470073 15.914569,14.34845 15.996195,14.348449 16.057476,14.348449" style="fill: white" /><polygon type="contour" points="15.483493,14.34835 15.62779,14.34845 15.62779,14.470073 15.62777,14.543649 15.483494,14.543649 15.294404,14.543832 15.294406,14.443365 15.294406,14.348336" style="fill: white" /><polygon type="contour" points="15.6272,13.647667 15.627467,13.741332 15.627397,13.787375 15.628172,13.804897 15.627442,13.807885 15.627723,13.992871 15.42643,13.992533 15.294406,13.992741 15.294522,13.770623 15.294708,13.726828 15.294596,13.640188 15.294885,13.577146 15.627386,13.577146" style="fill: white" /><polygon type="contour" points="16.057242,13.588889 16.057795,13.659254 16.152397,13.659701 16.176156,13.659805 16.177714,13.659833 16.247836,13.659937 16.247836,13.870986 16.247549,13.99285 16.175314,13.992593 16.098585,13.992926 16.057475,13.992629 16.026835,13.992629 15.988922,13.992668 15.921871,13.993001 15.914526,13.993028 15.914444,13.6016 15.914413,13.578729 16.057214,13.578729" style="fill: white" /><polygon type="contour" points="16.152614,12.8082 16.152391,12.831377 16.1523,12.9995 16.152359,13.15899 16.152445,13.208654 16.152401,13.251282 16.15243,13.347687 15.942673,13.347068 15.914511,13.347068 15.914526,13.301218 15.914475,13.123884 15.91406,13.12384 15.914514,13.080709 15.914412,13.06106 15.914561,13.04808 15.914508,12.988733 15.914239,12.927285 15.914457,12.688047 15.914523,12.649255 15.914589,12.545608 15.995076,12.54979 16.152666,12.545525" style="fill: white" /><polygon type="contour" points="15.627229,12.814627 15.627738,12.870221 15.627555,12.894183 15.627679,13.061059 15.627828,13.345324 15.627886,13.347316 15.295386,13.347316 15.295054,13.188855 15.294857,13.135903 15.295361,13.002316 15.295248,12.85706 15.294739,12.559802 15.344533,12.561274 15.627617,12.544733" style="fill: white" /><polygon type="contour" points="14.544125,12.537047 14.543846,12.855604 14.544084,13.003202 14.544143,13.135904 14.544021,13.345323 14.544072,13.347316 14.348072,13.347316 14.348252,13.156625 14.348227,13.098181 14.348324,12.931617 14.348506,12.834218 14.348606,12.810528 14.348486,12.530149 14.447363,12.52583" style="fill: white" /><polygon type="contour" points="13.99286,12.737042 13.99284,12.811545 13.992577,12.90629 13.992727,13.09818 13.992711,13.146484 13.992833,13.156626 13.992928,13.347316 13.686599,13.347316 13.685935,13.253089 13.686097,13.219938 13.685838,13.173409 13.685045,13.016739 13.684782,12.881664 13.684618,12.858171 13.684934,12.816472 13.684517,12.611075 13.684454,12.5967 13.684439,12.563515 13.713099,12.563446 13.992787,12.529195" style="fill: white" /><polygon type="contour" points="13.993083,13.590499 13.993277,13.637342 13.992967,13.695907 13.992835,13.734043 13.992668,13.756124 13.992723,13.761768 13.99283,13.773656 13.992977,13.778684 13.992633,13.783371 13.992628,13.992629 13.771088,13.992831 13.74786,13.992724 13.730317,13.992954 13.713694,13.992779 13.695329,13.992971 13.664066,13.99312 13.648811,13.99299 13.589885,13.992703 13.579204,13.992726 13.579204,13.944433 13.579559,13.903066 13.57947,13.852309 13.579048,13.687436 13.599981,13.687126 13.606472,13.686983 13.619932,13.686699 13.624869,13.686556 13.642957,13.686496 13.669726,13.669552 13.686431,13.643052 13.686698,13.619935 13.686983,13.606474 13.687124,13.599984 13.687433,13.579051 13.735278,13.578968 13.841478,13.578969 13.893885,13.578894 13.992952,13.578867" style="fill: white" /><polygon type="contour" points="14.544123,13.598951 14.543666,13.666673 14.543718,13.716383 14.544068,13.751449 14.54401,13.773656 14.543973,13.784889 14.544133,13.789215 14.543995,13.992742 14.443364,13.992741 14.348448,13.99278 14.348066,13.751448 14.348266,13.716383 14.348273,13.666672 14.348803,13.598952 14.348646,13.578729 14.544132,13.578729" style="fill: white" /><polygon type="contour" points="14.543832,14.436966 14.543832,14.543832 14.443364,14.543996 14.348335,14.543996 14.348335,14.443365 14.348448,14.348449 14.460337,14.348449 14.543995,14.348337" style="fill: white" /><polygon type="contour" points="13.764591,14.348222 13.992779,14.348449 13.992779,14.460338 13.99274,14.543996 13.695905,14.543959 13.638445,14.544177 13.579119,14.543541 13.579119,14.348121 13.638446,14.348174 13.695904,14.348531 13.737703,14.347979" style="fill: white" /><polygon type="contour" points="13.347313,14.348074 13.347313,14.544075 13.188852,14.544191 13.135902,14.544145 13.001856,14.544163 12.94436,14.543991 12.535818,14.543822 12.563177,14.357264 12.561902,14.348412 12.596215,14.348417 12.813718,14.348519 12.836709,14.348426 12.931616,14.348325 13.098178,14.34823 13.345322,14.348023" style="fill: white" /><polygon type="contour" points="12.611074,13.684518 12.81647,13.684935 12.858169,13.684619 12.881662,13.684785 13.016737,13.685048 13.173406,13.68584 13.219936,13.6861 13.253086,13.685938 13.347313,13.686602 13.347313,13.992931 13.156623,13.992835 13.098179,13.992728 12.931615,13.992601 12.906289,13.992579 12.811544,13.992842 12.73704,13.99286 12.529193,13.992789 12.563445,13.713102 12.563514,13.684442" style="fill: white" /><polygon type="contour" points="6.567993,13.715065 6.599552,13.99313 6.394369,13.993155 6.320081,13.993107 6.22541,13.992579 6.033517,13.992728 5.786376,13.992878 5.784386,13.992931 5.784386,13.686602 5.878613,13.685939 5.911764,13.6861 5.95829,13.685841 6.114958,13.685048 6.250036,13.684783 6.27353,13.684619 6.315229,13.684935 6.520624,13.684519 6.535,13.684457 6.568186,13.684442" style="fill: white" /><polygon type="contour" points="3.217132,14.34845 3.217132,14.470073 3.217191,14.543649 3.155357,14.543649 3.074383,14.543833 3.074304,14.448404 3.074223,14.348449 3.135503,14.348449" style="fill: white" /><polygon type="contour" points="3.837296,14.436966 3.837296,14.543833 3.648207,14.543649 3.503929,14.543649 3.503929,14.432916 3.503911,14.34845 3.648207,14.34835 3.837294,14.348336" style="fill: white" /><polygon type="contour" points="3.837102,13.640188 3.836992,13.726827 3.837176,13.770624 3.837294,13.992741 3.648206,13.993011 3.503978,13.992871 3.504232,13.741332 3.504499,13.647667 3.504313,13.577146 3.836813,13.577146" style="fill: white" /><polygon type="contour" points="3.21749,13.591314 3.217174,13.619158 3.21691,13.992883 3.164861,13.99268 3.074222,13.992629 3.033114,13.992926 3.028894,13.992593 2.956386,13.992593 2.95287,13.992826 2.884151,13.99285 2.883865,13.870986 2.883865,13.659937 2.955543,13.659805 2.979299,13.659702 3.073805,13.659792 3.074694,13.584588 3.074675,13.579207 3.217475,13.579207" style="fill: white" /><polygon type="contour" points="3.217182,13.285863 3.217176,13.297168 3.167097,13.297184 3.167333,13.347093 2.979271,13.347316 2.979298,13.250665 2.979254,13.20809 2.979342,13.158989 2.979182,12.999696 2.979008,12.545341 3.056411,12.553475 3.217111,12.544955" style="fill: white" /><polygon type="contour" points="3.836962,12.559802 3.836451,12.85706 3.83634,13.002315 3.836842,13.135903 3.836371,13.345324 3.836314,13.347316 3.503814,13.347316 3.503912,13.123884 3.504019,13.061059 3.504144,12.894182 3.503963,12.870221 3.504472,12.814627 3.504083,12.544733 3.650423,12.540156" style="fill: white" /><polygon type="contour" points="5.418598,12.563446 5.447259,12.563515 5.447181,12.611075 5.446767,12.816473 5.447083,12.858171 5.446918,12.881664 5.446655,13.016739 5.445862,13.173408 5.445601,13.219939 5.445763,13.25309 5.4451,13.347316 5.138771,13.347316 5.138864,13.156625 5.138973,13.09818 5.139099,12.931618 5.139122,12.906289 5.138861,12.811546 5.138841,12.737042 5.138912,12.529195" style="fill: white" /><polygon type="contour" points="4.783094,12.810529 4.783192,12.834218 4.783374,12.931617 4.783471,13.09818 4.783678,13.345323 4.783627,13.347316 4.587628,13.347316 4.587512,13.188855 4.587558,13.135903 4.587615,13.003202 4.587853,12.855604 4.587574,12.537047 4.669574,12.540511 4.783215,12.530149" style="fill: white" /><polygon type="contour" points="5.237814,13.578894 5.29022,13.578969 5.396419,13.578968 5.444265,13.579051 5.444574,13.599984 5.444718,13.606474 5.445004,13.619936 5.445265,13.64305 5.462006,13.669605 5.488745,13.686496 5.506829,13.686556 5.511765,13.686699 5.525227,13.686983 5.531717,13.687126 5.55265,13.687436 5.552379,13.802787 5.552317,13.856666 5.552972,13.992915 5.532749,13.992932 5.482887,13.99299 5.467633,13.99312 5.436368,13.992971 5.418005,13.992779 5.401383,13.992953 5.383837,13.992724 5.360612,13.992831 5.358045,13.992831 5.139073,13.992629 5.139067,13.783371 5.138722,13.778683 5.13887,13.773656 5.138975,13.761769 5.139031,13.756124 5.138746,13.730845 5.138732,13.695907 5.138423,13.637342 5.138618,13.590499 5.138747,13.578867" style="fill: white" /><polygon type="contour" points="4.782897,13.598952 4.783426,13.666672 4.783433,13.716383 4.783632,13.751447 4.78369,13.773656 4.783253,13.99278 4.671363,13.99278 4.587705,13.992741 4.587823,13.750772 4.587982,13.716384 4.588034,13.666671 4.587576,13.598952 4.587568,13.578729 4.783054,13.578729" style="fill: white" /><polygon type="contour" points="4.783253,14.348449 4.783253,14.460338 4.783366,14.543996 4.694736,14.543833 4.587869,14.543833 4.587705,14.443364 4.587705,14.348336 4.688335,14.348336" style="fill: white" /><polygon type="contour" points="5.435795,14.348531 5.493252,14.348174 5.552579,14.348121 5.552579,14.543541 5.493252,14.544176 5.435795,14.543959 5.13896,14.543996 5.138922,14.460338 5.138922,14.348449 5.36711,14.348223 5.393995,14.347978" style="fill: white" /><polygon type="contour" points="5.975077,14.348254 6.033517,14.348229 6.200081,14.348325 6.294987,14.348426 6.316996,14.348488 6.535336,14.348414 6.569798,14.348412 6.604079,14.482585 6.595881,14.543822 6.187338,14.543991 6.129842,14.544163 5.995794,14.544145 5.786376,14.544024 5.784386,14.544075 5.784386,14.348074" style="fill: white" /><polygon type="contour" points="6.129518,15.295019 6.43381,15.295618 6.571349,15.295621 6.567185,15.347975 6.587129,15.627582 6.316516,15.62758 6.267806,15.627644 6.261479,15.62774 6.237518,15.627559 6.070639,15.627682 5.786375,15.62783 5.784386,15.627889 5.784386,15.295387 5.942846,15.295057 5.995795,15.294859" style="fill: white" /><polygon type="contour" points="6.050992,15.914516 6.07064,15.914415 6.128926,15.914484 6.142152,15.914619 6.39022,15.914729 6.432447,15.914613 6.485938,15.914702 6.488249,15.914764 6.489958,15.914726 6.491644,15.914737 6.603446,15.914782 6.589728,16.004537 6.585696,16.152669 6.323272,16.152388 6.300322,16.152395 6.132199,16.152301 5.972709,16.15236 5.923612,16.152447 5.881038,16.152403 5.784386,16.152431 5.784633,15.942674 5.784633,15.914512 5.830482,15.914527 6.007329,15.914478 6.007386,15.914062" style="fill: white" /><polygon type="contour" points="5.386113,15.914581 5.423305,15.914564 5.488383,15.914468 5.512544,15.914527 5.552764,15.914845 5.552269,15.99994 5.552495,16.057026 5.547113,16.057008 5.471909,16.057895 5.472,16.1524 5.471897,16.176159 5.471868,16.177718 5.471763,16.247838 5.260714,16.247838 5.138852,16.247551 5.139108,16.175316 5.138778,16.098586 5.139073,16.057478 5.139073,16.026839 5.139034,15.988925 5.138753,15.914449 5.359514,15.91434" style="fill: white" /><polygon type="contour" points="5.370569,15.2951 5.426304,15.295022 5.527069,15.294605 5.553386,15.294772 5.553386,15.627746 5.523654,15.627815 5.41314,15.627727 5.354296,15.627909 5.342543,15.627767 5.138832,15.627725 5.139168,15.426433 5.13896,15.294407" style="fill: white" /><polygon type="contour" points="4.688336,15.294407 4.783366,15.294407 4.783353,15.483494 4.783253,15.627793 4.661628,15.627793 4.588053,15.627772 4.588053,15.483494 4.587869,15.294406" style="fill: white" /><polygon type="contour" points="4.661628,15.914571 4.783253,15.914571 4.783253,16.057478 4.683297,16.057397 4.587869,16.05732 4.588053,15.976345 4.588053,15.91451" style="fill: white" /><polygon type="contour" points="3.836731,15.976345 3.837296,16.05732 3.648207,16.057311 3.503978,16.057413 3.503978,15.914612 3.721383,15.914612 3.836731,15.91451" style="fill: white" /><polygon type="contour" points="3.836731,15.483494 3.836731,15.627773 3.648207,15.627773 3.503978,15.627725 3.503911,15.502358 3.503929,15.483495 3.503929,15.294969 3.648206,15.294969 3.837296,15.294406" style="fill: white" /><polygon type="contour" points="3.155358,15.294969 3.217191,15.294969 3.21709,15.410316 3.21709,15.627725 3.074288,15.627725 3.074247,15.446195 3.074383,15.294406" style="fill: white" /><polygon type="contour" points="2.956386,15.914625 3.028894,15.914625 3.031342,15.91452 3.074343,15.914559 3.217144,15.914559 3.217144,16.057357 3.217182,16.10036 3.217077,16.175315 3.217376,16.178832 3.217453,16.247449 3.111666,16.247694 3.110322,16.247926 2.884013,16.247689 2.884013,16.195563 2.884301,16.066434 2.884151,15.914349" style="fill: white" />
</svg>
