<svg width="19.131698" height="19.131699">
<polygon type="contour" points="11.271416,11.051634 11.271596,11.15744 11.352012,11.157216 11.355634,11.157246 11.35884,11.157286 11.361189,11.157864 11.441046,11.158483 11.440845,11.410541 11.44204,11.442042 11.159733,11.439827 11.157438,11.439653 11.157438,11.271597 11.051633,11.271416 11.051633,11.260075 11.051417,11.149812 11.051633,11.051634 11.060801,11.051634 11.153244,11.051418" style="fill: white" /><polygon type="contour" points="10.496025,11.051634 10.496025,11.060801 10.496156,11.146608 10.496166,11.153246 10.496025,11.271416 10.383475,11.271894 10.383475,11.439908 10.381346,11.439918 10.314115,11.439694 10.138829,11.439291 10.090169,11.439539 10.089894,11.407795 10.089785,11.362706 10.089726,11.271789 9.956143,11.271449 9.94679,11.271395 9.94679,11.260445 9.94606,11.150368 9.946811,11.051634 9.957676,11.051634 10.057633,11.051482 10.110482,11.051482 10.389029,11.051406 10.390269,11.051406" style="fill: white" /><polygon type="contour" points="10.496025,9.946813 10.496025,9.957679 10.496178,10.057635 10.496178,10.110484 10.496144,10.383439 10.496144,10.39113 10.496025,10.496026 10.485567,10.496026 10.389029,10.496145 10.389029,10.496143 10.089632,10.496181 10.052731,10.496185 9.946811,10.496026 9.94679,10.485937 9.946026,10.389033 9.946017,10.387977 9.946265,10.089634 9.946265,10.049985 9.946304,10.042272 9.94679,9.946858 9.957282,9.946858 10.057615,9.946316 10.109746,9.946316 10.391032,9.946033 10.391161,9.946033" style="fill: white" /><polygon type="contour" points="11.271395,9.946858 11.271449,9.956145 11.271787,10.089769 11.422795,10.089738 11.439865,10.08977 11.439832,10.106811 11.439901,10.383482 11.271892,10.383482 11.271416,10.496026 11.260075,10.496026 11.14981,10.496167 11.051633,10.496025 11.051633,10.485568 11.051404,10.387926 11.05148,10.089634 11.05148,10.049673 11.051492,10.041467 11.051633,9.946813 11.060517,9.946858 11.146619,9.946135 11.14662,9.946135 11.153188,9.946079" style="fill: white" /><polygon type="contour" points="11.271416,8.635678 11.271892,8.748222 11.439901,8.748222 11.439909,8.752921 11.439865,9.041933 11.271787,9.041933 11.271449,9.175556 11.271395,9.18491 11.260444,9.18491 11.153911,9.185617 11.150364,9.185641 11.051633,9.184889 11.051633,9.174022 11.05148,9.074068 11.05148,9.02122 11.051407,8.748265 11.051405,8.741422 11.051632,8.635678 11.0608,8.635678 11.151602,8.635538 11.153244,8.635535" style="fill: white" /><polygon type="contour" points="11.44174,7.963658 11.4411,7.973178 11.358841,7.974418 11.355634,7.974457 11.352013,7.974488 11.271596,7.974263 11.271416,8.080069 11.260074,8.080069 11.157368,8.08027 11.150056,8.080284 11.14981,8.080284 11.051633,8.080069 11.051633,8.0709 11.051406,7.974334 11.051416,7.978457 11.051633,7.860285 11.157438,7.860103 11.157438,7.692052 11.406363,7.691105 11.44204,7.689662" style="fill: white" /><polygon type="contour" points="10.383475,7.859808 10.496025,7.860285 10.496025,7.871626 10.496156,7.974333 10.496165,7.981891 10.496025,8.080069 10.485566,8.080069 10.389029,8.080293 10.387943,8.080295 10.089631,8.080222 10.049671,8.080222 10.044283,8.080213 9.946811,8.080069 9.94679,8.071185 9.946107,7.985083 9.946054,7.978514 9.94679,7.860306 9.956143,7.860251 10.089804,7.859914 10.089785,7.768997 10.089894,7.755347 10.089894,7.723908 10.090169,7.692163 10.314115,7.69201 10.383475,7.691796" style="fill: white" /><polygon type="contour" points="10.383437,8.635559 10.391128,8.635559 10.39214,8.63556 10.496025,8.635678 10.496025,8.646135 10.496144,8.742672 10.496142,8.742672 10.496178,9.04207 10.496182,9.079094 10.496025,9.184888 10.485936,9.184909 10.389031,9.185676 10.387973,9.185684 10.089632,9.185436 10.049934,9.185436 10.04219,9.185396 9.94679,9.18491 9.94679,9.174418 9.946265,9.074087 9.946265,9.021956 9.946021,8.742671 9.94602,8.741983 9.946811,8.635678 9.957676,8.635678 10.057633,8.635523 10.110482,8.635523" style="fill: white" /><polygon type="contour" points="9.184886,8.635678 9.184841,8.645766 9.185661,8.74267 9.18567,8.743792 9.185387,9.042069 9.185387,9.081636 9.184842,9.18491 9.174415,9.18491 9.074085,9.185436 9.021954,9.185436 8.74267,9.18568 8.741981,9.185681 8.635675,9.184889 8.635675,9.174022 8.635522,9.074069 8.635522,9.02122 8.635557,8.748264 8.635557,8.740573 8.635558,8.739583 8.635675,8.635678 8.646132,8.635678 8.742672,8.635559 8.742671,8.63556 9.042068,8.635523 9.07897,8.635518" style="fill: white" /><polygon type="contour" points="8.817584,7.69201 8.99287,7.692412 9.04153,7.692164 9.041805,7.723908 9.041915,7.768997 9.041974,7.859915 9.175555,7.860252 9.184842,7.860306 9.184842,7.871255 9.185404,7.951167 9.185627,7.982926 9.184887,8.080069 9.17402,8.080069 9.074066,8.080222 9.021217,8.080222 8.742672,8.080294 8.741407,8.080294 8.635675,8.080068 8.635675,8.070901 8.635533,7.978457 8.635675,7.860285 8.748226,7.859808 8.748226,7.691795 8.750354,7.691786" style="fill: white" /><polygon type="contour" points="7.971966,7.691877 7.974262,7.692052 7.974262,7.860103 8.080067,7.860285 8.080067,7.871626 8.080269,7.974333 8.080283,7.981891 8.080067,8.080069 8.070898,8.080069 7.985092,8.08027 7.978455,8.080285 7.860283,8.080069 7.860101,7.974263 7.779686,7.974488 7.776065,7.974457 7.772859,7.974419 7.770509,7.973837 7.690653,7.973221 7.690856,7.721162 7.68966,7.689662" style="fill: white" /><polygon type="contour" points="8.080067,8.635678 8.080067,8.646135 8.080292,8.743749 8.08022,9.04207 8.08022,9.082032 8.080067,9.184889 8.071183,9.18491 7.978512,9.185647 7.860304,9.18491 7.860249,9.175556 7.859914,9.041935 7.708905,9.041967 7.691836,9.041933 7.691868,9.024893 7.6918,8.748222 7.859806,8.748222 7.860283,8.635678 7.871623,8.635678 7.974331,8.635546 7.974332,8.635546 7.981889,8.635536" style="fill: white" /><polygon type="contour" points="8.080067,9.946813 8.080067,9.957679 8.08022,10.057635 8.08022,10.110484 8.08029,10.383438 8.080291,10.390302 8.080066,10.496026 8.070899,10.496026 7.980105,10.496165 7.978455,10.496168 7.860283,10.496026 7.859806,10.383482 7.6918,10.383482 7.691791,10.378782 7.691836,10.089771 7.859914,10.089771 7.860249,9.956145 7.860304,9.946858 7.871255,9.946858 7.950962,9.946298 7.982927,9.946074" style="fill: white" /><polygon type="contour" points="9.042068,9.946316 9.081717,9.946316 9.184842,9.946858 9.184842,9.957283 9.185387,10.057617 9.185387,10.109748 9.185668,10.391024 9.185669,10.39113 9.184887,10.496026 9.17402,10.496026 9.074067,10.496181 9.021218,10.496181 8.748263,10.496145 8.740571,10.496145 8.73956,10.496143 8.635675,10.496026 8.635675,10.485567 8.635557,10.389031 8.635558,10.389031 8.635518,10.057635 8.635517,10.05269 8.635675,9.946813 8.645763,9.946858 8.743797,9.946031" style="fill: white" /><polygon type="contour" points="9.042069,11.051482 9.082029,11.051482 9.184887,11.051633 9.184842,11.060517 9.185622,11.15319 9.184842,11.271395 9.175554,11.271449 9.041974,11.271789 9.041915,11.362707 9.041806,11.376354 9.041806,11.407795 9.04153,11.43954 8.817585,11.439694 8.748226,11.439908 8.748226,11.271894 8.635675,11.271416 8.635675,11.260075 8.635534,11.149812 8.635674,11.051634 8.646133,11.051634 8.743789,11.051405" style="fill: white" /><polygon type="contour" points="8.080067,11.051634 8.080067,11.060802 8.080269,11.146608 8.080269,11.146609 8.080284,11.153246 8.080067,11.271416 7.974262,11.271597 7.974262,11.439653 7.725336,11.440599 7.68966,11.442042 7.689961,11.168045 7.690601,11.158526 7.77286,11.157285 7.776065,11.157246 7.779686,11.157217 7.860101,11.15744 7.860283,11.051634 7.871624,11.051634 7.981889,11.051419" style="fill: white" />
</svg>
