<svg width="19.131698" height="19.131699">
<polygon type="contour" points="10.071149,11.187649 10.07084,11.338476 10.07101,11.338476 10.07101,11.36915 10.071149,11.460847 9.979825,11.460752 9.943423,11.460724 9.943423,11.421276 9.943661,11.338366 9.944101,11.338367 9.943518,11.22783 9.943263,11.160964 9.985394,11.160964 10.071039,11.16085" style="fill: white" /><polygon type="contour" points="10.633017,11.161177 10.633017,11.161084 10.662592,11.161084 10.742582,11.160964 10.742582,11.192215 10.742624,11.254941 10.742624,11.374026 10.742582,11.460672 10.662593,11.460903 10.553963,11.461107 10.553963,11.629532 10.493286,11.629469 10.259908,11.62995 10.260286,11.567218 10.259907,11.502473 10.258665,11.347257 10.258687,11.338131 10.259756,11.33813 10.259007,11.186871 10.25895,11.16085 10.353018,11.16085" style="fill: white" /><polygon type="contour" points="11.46067,11.160964 11.460883,11.227831 11.46085,11.339064 11.630166,11.339064 11.630283,11.372958 11.640435,11.640437 11.518399,11.639479 11.406209,11.630963 11.340242,11.630794 11.339453,11.557978 11.339453,11.460856 11.227829,11.460885 11.160962,11.460672 11.160962,11.419467 11.160938,11.338281 11.160938,11.22783 11.160962,11.160964 11.192212,11.160964 11.254939,11.16094 11.374024,11.16094" style="fill: white" /><polygon type="contour" points="11.549911,10.260091 11.630044,10.25993 11.629893,10.333947 11.629424,10.553888 11.461105,10.553888 11.460901,10.662594 11.46067,10.742584 11.419464,10.742584 11.338278,10.742627 11.227828,10.742627 11.160962,10.742584 11.160962,10.706703 11.161214,10.553066 11.161083,10.553066 11.161083,10.47273 11.160848,10.258952 11.18687,10.25901 11.338143,10.259758 11.338144,10.258697" style="fill: white" /><polygon type="contour" points="11.190923,9.943646 11.338364,9.944127 11.338364,9.943855 11.372489,9.943855 11.460722,9.943646 11.46075,9.979826 11.460845,10.071151 11.426493,10.071151 11.255583,10.070879 11.255583,10.071011 11.227829,10.070919 11.160848,10.071041 11.160848,10.030375 11.160962,9.943265" style="fill: white" /><polygon type="contour" points="10.742582,9.985396 10.742426,10.071041 10.662592,10.07141 10.658327,10.071523 10.484428,10.071523 10.259114,10.071151 10.258876,10.032513 10.258876,9.944018 10.348864,9.944018 10.55299,9.944337 10.552995,9.945206 10.662593,9.94401 10.742582,9.943265" style="fill: white" /><polygon type="contour" points="10.742426,10.258952 10.742426,10.353019 10.741866,10.633018 10.742026,10.633018 10.742026,10.662595 10.742582,10.742584 10.706701,10.742584 10.553064,10.741424 10.553064,10.742028 10.472728,10.742028 10.25895,10.742429 10.258874,10.662594 10.259014,10.632848 10.259492,10.632848 10.259516,10.490102 10.259721,10.259723 10.335163,10.259723 10.632846,10.259445 10.632846,10.259016 10.662592,10.258876" style="fill: white" /><polygon type="contour" points="9.978873,10.259116 10.071149,10.259116 10.071149,10.340362 10.071616,10.607748 10.071408,10.662595 10.071039,10.742429 10.030374,10.742429 9.943263,10.742584 9.943423,10.707881 9.944927,10.552992 9.944153,10.552992 9.944153,10.476368 9.943802,10.258878" style="fill: white" /><polygon type="contour" points="10.071414,9.944018 10.071149,9.978875 10.071149,10.071151 10.032298,10.071417 9.943802,10.071417 9.943802,10.032513 9.943423,9.943646 9.983978,9.943646" style="fill: white" /><polygon type="contour" points="7.6133,7.492225 7.725489,7.500741 7.791457,7.50091 7.792246,7.573725 7.792246,7.670844 7.90387,7.67082 7.970738,7.671032 7.970738,7.712237 7.970763,7.793422 7.970763,7.903872 7.970738,7.970739 7.939486,7.970739 7.87676,7.970764 7.757674,7.970764 7.67103,7.970739 7.670818,7.903872 7.670842,7.79264 7.501532,7.79264 7.501415,7.758745 7.491265,7.491266" style="fill: white" /><polygon type="contour" points="8.871414,7.564485 8.871792,7.62923 8.873035,7.784446 8.873013,7.793572 8.871943,7.793573 8.872692,7.944831 8.87275,7.970853 8.778683,7.970853 8.498683,7.970524 8.498683,7.970618 8.469106,7.970618 8.389118,7.970739 8.389118,7.939487 8.389076,7.876761 8.389077,7.876761 8.389077,7.757676 8.389118,7.671032 8.469105,7.670802 8.577736,7.670597 8.577736,7.502172 8.638413,7.502235 8.871792,7.501754" style="fill: white" /><polygon type="contour" points="9.151875,7.670951 9.188057,7.67098 9.188057,7.710427 9.187846,7.793338 9.186817,7.793334 9.188182,7.903873 9.188438,7.970739 9.146307,7.970739 9.06066,7.970853 9.060451,7.94483 9.06069,7.837058 9.06069,7.762552 9.060551,7.670857" style="fill: white" /><polygon type="contour" points="10.071149,7.705207 10.070877,7.876907 10.071098,7.876907 10.070918,7.903872 10.071039,7.970853 10.030374,7.970853 9.943263,7.970739 9.943423,7.940777 9.943973,7.793338 9.943662,7.793338 9.943662,7.759211 9.943423,7.67098 9.979825,7.670951 10.071149,7.670857" style="fill: white" /><polygon type="contour" points="10.553963,7.502172 10.553963,7.670597 10.662592,7.670802 10.742582,7.671032 10.742582,7.712237 10.742624,7.793421 10.742624,7.903872 10.742582,7.970739 10.706701,7.970739 10.553064,7.970486 10.553063,7.970618 10.472728,7.970618 10.25895,7.970853 10.259008,7.944831 10.259756,7.793558 10.258695,7.793557 10.260089,7.58179 10.259908,7.501754 10.336083,7.501687" style="fill: white" /><polygon type="contour" points="11.640305,7.609711 11.630283,7.758744 11.630166,7.79264 11.46085,7.79264 11.460883,7.903872 11.46067,7.970739 11.419464,7.970739 11.338278,7.970764 11.227828,7.970764 11.160962,7.970739 11.160962,7.939488 11.160938,7.876762 11.160938,7.757677 11.160962,7.671032 11.227829,7.67082 11.339027,7.670844 11.339453,7.573725 11.340178,7.568005 11.340242,7.500911 11.406209,7.500741 11.640435,7.491267" style="fill: white" /><polygon type="contour" points="11.46067,8.38912 11.4609,8.469106 11.461106,8.578395 11.561632,8.577706 11.629424,8.577814 11.629553,8.641509 11.630044,8.871774 11.549911,8.871613 11.338145,8.873007 11.338142,8.871945 11.18687,8.872694 11.160848,8.872752 11.160848,8.778684 11.161176,8.498684 11.161083,8.498684 11.161083,8.469106 11.160962,8.38912 11.192213,8.38912 11.25494,8.389078 11.374024,8.389078" style="fill: white" /><polygon type="contour" points="11.460751,9.151877 11.460722,9.18828 11.421274,9.18828 11.338363,9.18804 11.338365,9.187601 11.227828,9.188184 11.160962,9.18844 11.160962,9.146309 11.160848,9.060663 11.187647,9.060553 11.338474,9.060863 11.338474,9.060693 11.369149,9.060693 11.460845,9.060553" style="fill: white" /><polygon type="contour" points="10.662593,9.060294 10.742426,9.060663 10.742426,9.101327 10.742582,9.18844 10.707879,9.18828 10.55299,9.186773 10.55299,9.187549 10.476366,9.187549 10.258876,9.187901 10.259114,9.152829 10.259114,9.060553 10.34036,9.060553 10.607746,9.060085" style="fill: white" /><polygon type="contour" points="10.742582,8.425 10.741422,8.578637 10.742026,8.578637 10.742026,8.658972 10.742426,8.872752 10.662593,8.872829 10.632846,8.872688 10.632846,8.872268 10.490099,8.872185 10.259721,8.871982 10.259607,8.79805 10.259353,8.498854 10.259014,8.498854 10.258919,8.473338 10.258874,8.469107 10.25895,8.389276 10.353017,8.389276 10.633017,8.389835 10.633017,8.389676 10.662593,8.389676 10.742582,8.38912" style="fill: white" /><polygon type="contour" points="10.071039,8.389276 10.071149,8.419321 10.071521,8.498845 10.071521,8.647272 10.071149,8.872588 10.032298,8.872827 9.943802,8.872827 9.943802,8.782838 9.944153,8.57871 9.944537,8.578708 9.944008,8.469106 9.943263,8.38912 9.985394,8.38912" style="fill: white" /><polygon type="contour" points="9.978873,9.060553 10.071149,9.060553 10.071414,9.099404 10.071414,9.187901 10.032297,9.187901 9.943423,9.18828 9.943423,9.147724 9.943802,9.060288" style="fill: white" /><polygon type="contour" points="8.578528,9.060443 8.578528,9.060181 8.647271,9.060181 8.872586,9.060553 8.872825,9.099403 8.872825,9.187901 8.782835,9.187901 8.578708,9.187548 8.578706,9.187164 8.469106,9.187693 8.389118,9.18844 8.389118,9.146308 8.389274,9.060663 8.469106,9.060294 8.473337,9.060097" style="fill: white" /><polygon type="contour" points="9.187686,9.099403 9.188057,9.18828 9.147723,9.18828 9.060286,9.187901 9.060551,9.152829 9.060551,9.060553 9.099188,9.060288 9.187686,9.060288" style="fill: white" /><polygon type="contour" points="9.188057,8.423822 9.186633,8.578711 9.187366,8.578711 9.187366,8.655334 9.187686,8.872827 9.152828,8.872588 9.060551,8.872588 9.060551,8.791341 9.060083,8.523953 9.060292,8.469106 9.060661,8.389276 9.101325,8.389276 9.188438,8.38912" style="fill: white" /><polygon type="contour" points="8.578636,8.390279 8.578636,8.389676 8.65897,8.389676 8.87275,8.389276 8.872827,8.469106 8.872686,8.498854 8.872209,8.498854 8.872183,8.6416 8.87198,8.871982 8.796537,8.871982 8.498853,8.872258 8.498853,8.872688 8.469106,8.872829 8.389274,8.872752 8.389274,8.778684 8.389833,8.498684 8.389674,8.498684 8.389674,8.469106 8.389118,8.38912 8.424998,8.38912" style="fill: white" /><polygon type="contour" points="7.970738,8.38912 7.970738,8.425 7.970483,8.578636 7.970616,8.578636 7.970616,8.658972 7.970851,8.872752 7.944828,8.872694 7.793557,8.871945 7.793555,8.873007 7.581787,8.871613 7.501656,8.871774 7.501806,8.797756 7.502276,8.577814 7.670595,8.577814 7.6708,8.469107 7.67103,8.38912 7.712235,8.38912 7.793421,8.389078 7.90387,8.389078" style="fill: white" /><polygon type="contour" points="7.876905,9.060826 7.876905,9.060605 7.90387,9.060785 7.970851,9.060663 7.970851,9.101327 7.970738,9.18844 7.940775,9.188279 7.793336,9.187729 7.793336,9.188041 7.75921,9.188041 7.670979,9.18828 7.670949,9.151877 7.670855,9.060553 7.705206,9.060553" style="fill: white" /><polygon type="contour" points="7.793558,10.259758 7.944828,10.25901 7.970851,10.258952 7.970851,10.353019 7.970522,10.633018 7.970616,10.633018 7.970616,10.662594 7.970738,10.742584 7.939485,10.742584 7.87676,10.742627 7.757675,10.742627 7.67103,10.742584 7.6708,10.662594 7.670594,10.553307 7.570067,10.553996 7.502276,10.553888 7.502146,10.490193 7.501656,10.25993 7.581787,10.260091 7.793555,10.258697" style="fill: white" /><polygon type="contour" points="7.970738,9.985395 7.970851,10.071041 7.944827,10.07125 7.836604,10.071011 7.762551,10.071011 7.670855,10.071151 7.67095,9.979826 7.670979,9.943646 7.710427,9.943646 7.793335,9.943854 7.793332,9.944884 7.903871,9.943519 7.970738,9.943265" style="fill: white" /><polygon type="contour" points="8.42382,9.943645 8.578709,9.945069 8.578709,9.944337 8.655333,9.944337 8.872825,9.944018 8.872586,9.978874 8.872586,10.071151 8.791339,10.071151 8.523952,10.071618 8.469106,10.07141 8.389274,10.071041 8.389274,10.030375 8.389118,9.943265" style="fill: white" /><polygon type="contour" points="8.498853,10.259016 8.498853,10.259435 8.641599,10.259519 8.87198,10.259723 8.872092,10.333654 8.872346,10.632848 8.872686,10.632848 8.872827,10.662595 8.87275,10.742429 8.778683,10.742429 8.498683,10.741867 8.498683,10.742028 8.469105,10.742028 8.389118,10.742584 8.389118,10.706703 8.390277,10.553066 8.389674,10.553066 8.389674,10.47273 8.389274,10.258952 8.469106,10.258876" style="fill: white" /><polygon type="contour" points="9.188057,9.98398 9.187686,10.071417 9.152827,10.071151 9.060551,10.071151 9.060286,10.032513 9.060286,9.944018 9.099188,9.944018 9.188057,9.943646" style="fill: white" /><polygon type="contour" points="9.187686,10.348866 9.187366,10.552991 9.186496,10.552997 9.187692,10.662594 9.188438,10.742584 9.146306,10.742584 9.060661,10.742429 9.060551,10.712382 9.060179,10.632855 9.060179,10.48443 9.060551,10.259116 9.099188,10.258878 9.187686,10.258878" style="fill: white" /><polygon type="contour" points="9.188438,11.160964 9.188057,11.190925 9.187573,11.338366 9.187847,11.338366 9.187847,11.372492 9.188057,11.460724 9.151875,11.460752 9.060551,11.460847 9.060551,11.426496 9.06082,11.255585 9.06069,11.255585 9.060782,11.22783 9.060661,11.16085 9.101326,11.16085" style="fill: white" /><polygon type="contour" points="8.872692,11.186871 8.871943,11.338146 8.873005,11.338148 8.871611,11.549913 8.871792,11.62995 8.795616,11.630017 8.577736,11.629532 8.577736,11.461107 8.469105,11.460902 8.389118,11.460672 8.389118,11.419467 8.389077,11.33828 8.389077,11.22783 8.389118,11.160964 8.424997,11.160964 8.578635,11.161214 8.578636,11.161084 8.658969,11.161084 8.87275,11.16085" style="fill: white" /><polygon type="contour" points="7.970738,11.160964 7.970738,11.192214 7.970763,11.254941 7.970763,11.374027 7.970738,11.460672 7.90387,11.460885 7.792672,11.460856 7.792246,11.557979 7.791521,11.563697 7.791457,11.630794 7.72549,11.630963 7.491265,11.640437 7.491394,11.521992 7.501414,11.372959 7.501531,11.339064 7.670842,11.339064 7.670818,11.22783 7.67103,11.160964 7.712234,11.160964 7.793421,11.16094 7.90387,11.16094" style="fill: white" />
</svg>
