<svg width="19.131698" height="19.131699">
<polygon type="contour" points="6.530688,6.323822 6.615588,6.326346 6.615603,6.40436 6.61549,6.443001 6.615616,6.546457 6.615616,6.615617 6.423696,6.615893 6.327798,6.616735 6.323771,6.509806 6.315737,6.315739" style="fill: white" /><polygon type="contour" points="7.809462,7.680188 7.809456,7.704371 7.809464,7.809466 7.680187,7.809464 7.542061,7.809464 7.542061,7.680188 7.542175,7.542178 7.683419,7.542178 7.809462,7.542063" style="fill: white" /><polygon type="contour" points="8.329749,8.326835 8.329742,8.327363 8.329742,8.328351 8.329712,8.329327 8.329706,8.329708 8.036509,8.327479 8.036321,8.327522 8.036321,8.325528 8.036814,8.036815 8.325525,8.036322 8.32752,8.036322" style="fill: white" /><polygon type="contour" points="7.809861,8.326139 7.809861,8.329056 7.807621,8.329053 7.542175,8.329258 7.542061,8.179011 7.542061,8.036877 7.641733,8.03672 7.809464,8.03672" style="fill: white" /><polygon type="contour" points="6.616151,8.325528 6.61615,8.327519 6.325694,8.325977 6.325659,8.325971 6.324736,8.325964 6.324744,8.325285 6.324744,8.325283 6.324751,8.324912 6.327693,8.125659 6.326716,8.036777 6.435572,8.036759 6.615958,8.036759" style="fill: white" /><polygon type="contour" points="7.077423,8.036877 7.076952,8.325369 7.076946,8.329195 6.872031,8.329195 6.869751,8.329194 6.869756,8.325368 6.870281,8.036686 6.996053,8.036686" style="fill: white" /><polygon type="contour" points="7.077175,7.68342 7.077423,7.809464 6.996053,7.809458 6.870281,7.809458 6.870224,7.680188 6.870035,7.542236 6.976027,7.542236 7.077175,7.542178" style="fill: white" /><polygon type="contour" points="6.617224,7.542236 6.6172,7.680188 6.616794,7.809466 6.544345,7.809466 6.501294,7.809467 6.501236,7.653309 6.501692,7.542178 6.562699,7.542178" style="fill: white" /><polygon type="contour" points="6.616856,6.990214 6.617224,7.077236 6.558138,7.077236 6.501692,7.077177 6.501303,6.986761 6.501355,6.870063 6.616856,6.870063" style="fill: white" /><polygon type="contour" points="7.077234,6.976029 7.077175,7.077177 6.967731,7.077177 6.870035,7.077236 6.870061,6.990215 6.870061,6.870063 6.976028,6.870037 7.077234,6.870037" style="fill: white" /><polygon type="contour" points="7.077175,6.501694 7.077175,6.562702 7.077234,6.617225 6.990212,6.616858 6.870061,6.616858 6.870061,6.501357 6.986758,6.501306" style="fill: white" /><polygon type="contour" points="8.325965,6.32521 8.325975,6.325695 8.327516,6.616151 8.325525,6.616152 8.036757,6.615961 8.036757,6.543718 8.036866,6.521507 8.036866,6.380278 8.036813,6.357726 8.036774,6.326718 8.125994,6.327714 8.324911,6.324752 8.325283,6.324745 8.325962,6.324738" style="fill: white" /><polygon type="contour" points="7.809464,6.501296 7.809263,6.544529 7.809263,6.616825 7.680187,6.617204 7.542233,6.617225 7.542233,6.55814 7.542175,6.501694 7.653307,6.501238" style="fill: white" /><polygon type="contour" points="7.680186,6.870224 7.809456,6.870283 7.809462,6.970394 7.809462,7.077425 7.680187,7.077425 7.542175,7.077177 7.542175,6.967733 7.542233,6.870037" style="fill: white" /><polygon type="contour" points="8.329192,7.074511 8.329193,7.076949 8.325367,7.076955 8.036875,7.077425 8.036684,6.996055 8.036684,6.870283 8.325366,6.869757 8.329192,6.869752" style="fill: white" /><polygon type="contour" points="8.326137,7.542462 8.329051,7.542466 8.329051,7.807622 8.329054,7.809863 8.326137,7.809863 8.036718,7.809467 8.036718,7.641735 8.036875,7.542063" style="fill: white" /><polygon type="contour" points="11.589523,7.542178 11.589523,7.683421 11.589637,7.809464 11.451511,7.809464 11.42733,7.809458 11.322236,7.809466 11.322238,7.680189 11.322238,7.542063 11.451511,7.542063" style="fill: white" /><polygon type="contour" points="11.589637,8.036877 11.589238,8.32614 11.589236,8.329053 11.324079,8.329053 11.321839,8.329056 11.321839,8.326139 11.322236,8.03672 11.489967,8.03672" style="fill: white" /><polygon type="contour" points="11.094886,8.036816 11.094886,8.327892 10.804866,8.329751 10.801995,8.329708 10.804224,8.036509 10.804181,8.036322 10.806175,8.036322" style="fill: white" /><polygon type="contour" points="11.094982,7.641735 11.094982,7.809465 10.805559,7.809863 10.802644,7.809863 10.802648,7.807623 10.802443,7.542177 10.952689,7.542063 11.094824,7.542063" style="fill: white" /><polygon type="contour" points="10.80633,6.869756 11.095016,6.870283 11.095016,6.996055 11.094825,7.077425 10.806331,7.076956 10.802506,7.076949 10.802506,6.872032 10.802507,6.869751" style="fill: white" /><polygon type="contour" points="10.806417,6.324745 10.80679,6.324753 11.00583,6.327694 11.094925,6.326718 11.094925,6.45494 11.094942,6.543718 11.094942,6.615961 10.806175,6.616152 10.804185,6.616151 10.805726,6.325695 10.805729,6.325672 10.805738,6.324738" style="fill: white" /><polygon type="contour" points="11.589523,6.501694 11.589523,6.562701 11.589465,6.617225 11.451512,6.617204 11.322437,6.616825 11.322437,6.544529 11.322236,6.501296 11.478393,6.501238" style="fill: white" /><polygon type="contour" points="11.589465,6.976029 11.589523,7.077177 11.448281,7.077177 11.322238,7.077425 11.322244,6.996055 11.322244,6.870283 11.451512,6.870224 11.589465,6.870037" style="fill: white" /><polygon type="contour" points="12.141486,6.870063 12.261639,6.870063 12.261665,6.976029 12.261665,7.077236 12.155669,7.077236 12.054523,7.077177 12.054523,6.967733 12.054464,6.870037" style="fill: white" /><polygon type="contour" points="12.261639,6.501356 12.261639,6.616858 12.141487,6.616858 12.054464,6.617225 12.054464,6.55814 12.054524,6.501694 12.144942,6.501306" style="fill: white" /><polygon type="contour" points="12.806768,6.547881 12.803903,6.616735 12.685579,6.616613 12.585242,6.615617 12.516084,6.615617 12.516084,6.326657 12.59929,6.323021 12.815964,6.315739" style="fill: white" /><polygon type="contour" points="12.630396,6.98676 12.630007,7.077177 12.569,7.077177 12.514476,7.077236 12.514844,6.990214 12.514844,6.870063 12.630345,6.870063" style="fill: white" /><polygon type="contour" points="12.261665,7.542236 12.261477,7.680188 12.261419,7.809458 12.161306,7.809464 12.054276,7.809464 12.054276,7.680189 12.054524,7.542178 12.163968,7.542178" style="fill: white" /><polygon type="contour" points="12.630465,7.653308 12.630406,7.809466 12.587172,7.809265 12.514878,7.809265 12.514499,7.680189 12.514476,7.542236 12.57356,7.542236 12.630008,7.542178" style="fill: white" /><polygon type="contour" points="12.804984,8.036777 12.804051,8.126039 12.806948,8.324912 12.806956,8.325285 12.806964,8.325964 12.80604,8.325971 12.806005,8.325977 12.51555,8.327519 12.51555,8.325528 12.515742,8.036759 12.696128,8.036759" style="fill: white" /><polygon type="contour" points="12.261943,8.325368 12.261949,8.329194 12.057191,8.329194 12.054754,8.329195 12.054747,8.325369 12.054276,8.036877 12.135646,8.036686 12.261419,8.036686" style="fill: white" /><polygon type="contour" points="12.807929,12.621897 12.815964,12.815965 12.600687,12.807724 12.515943,12.805188 12.515943,12.666973 12.516084,12.585243 12.516084,12.516086 12.708003,12.515808 12.803902,12.514968" style="fill: white" /><polygon type="contour" points="11.451511,11.32224 11.589637,11.32224 11.589637,11.451513 11.589523,11.589525 11.44828,11.589525 11.322238,11.58964 11.322238,11.451513 11.322244,11.427332 11.322236,11.322238" style="fill: white" /><polygon type="contour" points="11.094982,11.322238 11.094982,11.489969 11.094825,11.58964 10.805559,11.589241 10.802648,11.589239 10.802648,11.32408 10.802644,11.321841 10.805559,11.321841" style="fill: white" /><polygon type="contour" points="11.094886,10.803812 11.094886,11.094888 10.80381,11.094888 10.801951,10.804869 10.801995,10.801997 10.803351,10.801961 10.804339,10.80196 10.804867,10.801953" style="fill: white" /><polygon type="contour" points="11.589236,10.802649 11.589238,10.80556 11.589637,11.094827 11.489967,11.094984 11.322236,11.094984 11.321839,10.80556 11.321839,10.802645 11.586561,10.802645" style="fill: white" /><polygon type="contour" points="12.806006,10.805728 12.806029,10.805731 12.806964,10.80574 12.806954,10.806418 12.806949,10.806791 12.804007,11.006044 12.804984,11.094927 12.696129,11.094943 12.515742,11.094943 12.51555,10.806175 12.51555,10.804184" style="fill: white" /><polygon type="contour" points="12.261949,10.802508 12.261944,10.806331 12.261419,11.095018 12.135646,11.095018 12.054276,11.094827 12.054747,10.806331 12.054754,10.802507 12.259668,10.802507" style="fill: white" /><polygon type="contour" points="12.135646,11.322246 12.261419,11.322246 12.261477,11.451514 12.261665,11.589467 12.15567,11.589467 12.054524,11.589525 12.054524,11.448283 12.054276,11.32224" style="fill: white" /><polygon type="contour" points="12.630465,11.478394 12.630007,11.589525 12.569,11.589525 12.514476,11.589467 12.514499,11.451513 12.514906,11.322238 12.630406,11.322238" style="fill: white" /><polygon type="contour" points="12.630008,12.054526 12.630397,12.144942 12.630344,12.261641 12.514844,12.261641 12.514844,12.141489 12.514476,12.054467 12.573561,12.054467" style="fill: white" /><polygon type="contour" points="12.261639,12.141488 12.261639,12.261641 12.15567,12.261668 12.054464,12.261668 12.054464,12.155672 12.054524,12.054526 12.163969,12.054526 12.261665,12.054467" style="fill: white" /><polygon type="contour" points="12.141486,12.514847 12.261639,12.514847 12.261639,12.630345 12.144941,12.630398 12.054524,12.63001 12.054524,12.569001 12.054464,12.514478" style="fill: white" /><polygon type="contour" points="11.589465,12.573564 11.589523,12.63001 11.478393,12.630465 11.322236,12.630408 11.322437,12.587172 11.322437,12.514879 11.451512,12.5145 11.589465,12.514479" style="fill: white" /><polygon type="contour" points="11.589523,12.054526 11.589523,12.16397 11.589465,12.261668 11.451512,12.261479 11.322244,12.261422 11.322238,12.161308 11.322238,12.054278 11.451511,12.054278" style="fill: white" /><polygon type="contour" points="11.095016,12.135648 11.095016,12.261422 10.80633,12.261947 10.802507,12.261952 10.802507,12.057192 10.802506,12.054755 10.806331,12.054748 11.094825,12.054278" style="fill: white" /><polygon type="contour" points="11.094942,12.515743 11.094942,12.587985 11.094833,12.610195 11.094833,12.751424 11.094886,12.773977 11.094925,12.804986 11.005704,12.803989 10.80679,12.80695 10.806417,12.806958 10.805738,12.806966 10.805729,12.806031 10.805726,12.806008 10.804185,12.515553 10.806174,12.515553" style="fill: white" /><polygon type="contour" points="8.325975,12.806007 8.325969,12.806042 8.325962,12.806966 8.325283,12.806958 8.324911,12.806951 8.125868,12.80401 8.036775,12.804986 8.036775,12.676761 8.036757,12.587985 8.036757,12.515743 8.325526,12.515553 8.327516,12.515553" style="fill: white" /><polygon type="contour" points="7.076953,10.806332 7.077423,11.094827 6.996053,11.095018 6.870281,11.095018 6.869756,10.806331 6.869751,10.802508 7.074508,10.802508 7.076946,10.802507" style="fill: white" /><polygon type="contour" points="6.616151,10.806175 6.615958,11.094943 6.435571,11.094943 6.326716,11.094927 6.32765,11.005664 6.324751,10.806792 6.324743,10.806419 6.324736,10.805741 6.325208,10.805736 6.325693,10.805728 6.61615,10.804185" style="fill: white" /><polygon type="contour" points="6.6172,11.451513 6.617223,11.589467 6.558139,11.589467 6.501692,11.589525 6.501236,11.478395 6.501294,11.322238 6.616794,11.322238" style="fill: white" /><polygon type="contour" points="7.077423,11.451513 7.077175,11.589525 6.967732,11.589525 6.870035,11.589467 6.870224,11.451514 6.870281,11.322246 6.970392,11.32224 7.077423,11.32224" style="fill: white" /><polygon type="contour" points="7.809462,11.451513 7.809462,11.58964 7.680187,11.58964 7.542175,11.589525 7.542175,11.448282 7.542061,11.32224 7.680187,11.32224 7.704369,11.322246 7.809464,11.322238" style="fill: white" /><polygon type="contour" points="7.809861,10.80556 7.809464,11.094984 7.641733,11.094984 7.542061,11.094827 7.542461,10.805561 7.542465,10.802649 7.807621,10.802649 7.809861,10.802645" style="fill: white" /><polygon type="contour" points="8.327361,10.801959 8.328348,10.801961 8.329325,10.801991 8.329706,10.801997 8.329742,10.803353 8.329749,10.804868 8.327889,11.094888 8.036814,11.094888 8.036321,10.806175 8.036321,10.804181 8.326833,10.801953" style="fill: white" /><polygon type="contour" points="8.329051,11.324081 8.329256,11.589525 8.17901,11.58964 8.036874,11.58964 8.036718,11.489969 8.036718,11.322238 8.326137,11.321841 8.329054,11.321841" style="fill: white" /><polygon type="contour" points="8.325367,12.054748 8.329193,12.054755 8.329193,12.259671 8.329192,12.261952 8.325366,12.261946 8.036684,12.261422 8.036684,12.135648 8.036875,12.054278" style="fill: white" /><polygon type="contour" points="7.809456,12.135648 7.809456,12.261422 7.680186,12.261479 7.542233,12.261668 7.542233,12.155673 7.542175,12.054526 7.683418,12.054526 7.809462,12.054278" style="fill: white" /><polygon type="contour" points="7.680187,12.5145 7.809464,12.514907 7.809464,12.630408 7.653307,12.630465 7.542175,12.630009 7.542175,12.569001 7.542233,12.514478" style="fill: white" /><polygon type="contour" points="7.077234,12.573564 7.077175,12.63001 6.986759,12.630398 6.870061,12.630345 6.870061,12.514847 6.990212,12.514847 7.077234,12.514478" style="fill: white" /><polygon type="contour" points="7.077175,12.054526 7.077175,12.163971 7.077234,12.261668 6.990212,12.261641 6.870061,12.261641 6.870035,12.155672 6.870035,12.054467 6.976028,12.054467" style="fill: white" /><polygon type="contour" points="6.616856,12.141489 6.616856,12.261641 6.501355,12.261641 6.501303,12.144942 6.501692,12.054526 6.562699,12.054526 6.617224,12.054467" style="fill: white" /><polygon type="contour" points="6.44612,12.515091 6.546455,12.516086 6.615616,12.516086 6.615616,12.805048 6.532408,12.808682 6.315737,12.815965 6.324931,12.583822 6.327798,12.514968" style="fill: white" />
</svg>
