<svg width="19.131698" height="19.131699">
<polygon type="contour" points="12.152445,6.729484 12.170099,6.7319 12.198572,6.738283 12.20623,6.741494 12.265398,6.771101 12.321045,6.821466 12.349258,6.856173 12.367444,6.879788 12.380712,6.903402 12.387051,6.916433 12.399662,6.956071 12.39981,6.956695 12.39993,6.957608 12.402329,6.988802 12.402448,10.793017 12.402505,12.142901 12.402183,12.153452 12.398216,12.178052 12.38726,12.207576 12.375787,12.235271 12.365854,12.251797 12.350403,12.276753 12.345504,12.284169 12.338485,12.292247 12.31232,12.319796 12.29087,12.338579 12.270891,12.353656 12.258119,12.362142 12.236699,12.374742 12.212464,12.387114 12.194613,12.393676 12.171221,12.399801 12.155425,12.401901 12.1429,12.402249 9.279511,12.402212 8.046052,12.402332 6.988801,12.401901 6.979663,12.401901 6.961464,12.399458 6.938339,12.394171 6.915697,12.384676 6.887,12.371125 6.851597,12.3487 6.810655,12.310237 6.783855,12.276991 6.759277,12.241835 6.747416,12.222002 6.744382,12.213601 6.731954,12.175909 6.73013,12.158054 6.729371,12.142901 6.729251,8.338685 6.729251,6.988803 6.729802,6.976426 6.733852,6.949705 6.748932,6.909702 6.755932,6.893369 6.764566,6.880301 6.782829,6.853171 6.80074,6.832556 6.819379,6.811909 6.847355,6.787449 6.866503,6.772998 6.884929,6.761797 6.919236,6.743889 6.937087,6.737589 6.965086,6.730371 6.970878,6.729803 6.988801,6.72936 10.854375,6.729278 12.1429,6.729101" style="fill: white" />
</svg>
