<svg width="19.131698" height="19.131699">
<polygon type="contour" points="10.444361,8.939145 10.443927,8.986464 10.44391,8.992272 10.277357,8.992272 10.276962,9.091698 10.243721,9.091698 10.139391,9.091693 10.122727,9.091693 10.040006,9.091698 10.040006,8.854739 10.139402,8.854344 10.139727,8.763086 10.139768,8.756086 10.142039,8.68651 10.221758,8.684568 10.449215,8.682487" style="fill: white" /><polygon type="contour" points="10.129608,9.320462 10.149982,9.320462 10.276962,9.320144 10.277356,9.420602 10.445447,9.420602 10.445287,9.453679 10.444331,9.566124 10.444409,9.582371 10.445447,9.711102 10.277356,9.711102 10.276962,9.81156 10.243721,9.81156 10.139391,9.811239 10.122727,9.811239 10.040006,9.81156 10.040006,9.320144 10.061602,9.320144" style="fill: white" /><polygon type="contour" points="8.909943,8.684568 8.989662,8.68651 8.991974,8.763085 8.991974,8.854343 9.091695,8.854739 9.091695,8.887978 9.091693,8.992311 9.091693,9.008975 9.091695,9.091698 9.070099,9.091698 9.002093,9.091693 8.981717,9.091693 8.854738,9.091698 8.854342,8.992277 8.704771,8.992277 8.687787,8.992272 8.68777,8.986463 8.687339,8.939146 8.682485,8.682487" style="fill: white" /><polygon type="contour" points="9.585092,8.687916 9.711101,8.687792 9.711101,8.854345 9.811558,8.854739 9.811558,8.887978 9.811236,8.992311 9.811236,9.008976 9.811558,9.091698 9.789792,9.091698 9.720938,9.091693 9.403826,9.091693 9.320142,9.091698 9.320142,9.0701 9.32046,9.002094 9.32046,8.981719 9.320142,8.854739 9.4206,8.854345 9.4206,8.687792 9.547215,8.687916 9.550666,8.687841 9.566132,8.687435" style="fill: white" /><polygon type="contour" points="9.410761,9.320462 9.727874,9.320462 9.811558,9.320144 9.811558,9.341909 9.811236,9.410763 9.811236,9.727875 9.811558,9.81156 9.789791,9.81156 9.720938,9.811239 9.403826,9.811239 9.320142,9.81156 9.320142,9.789794 9.32046,9.72094 9.32046,9.403828 9.320142,9.320144 9.341907,9.320144" style="fill: white" /><polygon type="contour" points="8.992308,9.320462 9.008973,9.320462 9.091695,9.320144 9.091695,9.341909 9.091693,9.410763 9.091693,9.727874 9.091695,9.81156 9.070098,9.81156 9.002093,9.811239 8.981718,9.811239 8.854738,9.81156 8.854343,9.711102 8.686253,9.711102 8.686412,9.678024 8.687369,9.566201 8.68729,9.549954 8.686253,9.420602 8.854343,9.420602 8.854738,9.320144 8.887976,9.320144" style="fill: white" /><polygon type="contour" points="8.992308,10.040008 9.008973,10.040008 9.091695,10.040007 9.091695,10.061603 9.091693,10.12961 9.091693,10.149985 9.091695,10.276965 8.992298,10.277359 8.991974,10.368618 8.991931,10.375617 8.989662,10.445194 8.909943,10.447136 8.682485,10.449216 8.687339,10.192559 8.68777,10.145241 8.687787,10.139433 8.854342,10.139433 8.854738,10.040007 8.887976,10.040007" style="fill: white" /><polygon type="contour" points="9.410761,10.040008 9.727873,10.040008 9.811558,10.040007 9.811558,10.061604 9.811236,10.129609 9.811236,10.149985 9.811558,10.276965 9.711101,10.277358 9.711101,10.443911 9.584484,10.443787 9.581034,10.443861 9.565501,10.444269 9.546608,10.443788 9.4206,10.443911 9.4206,10.277358 9.320142,10.276965 9.320142,10.243725 9.32046,10.139393 9.32046,10.122729 9.320142,10.040007 9.341908,10.040007" style="fill: white" /><polygon type="contour" points="10.129607,10.040008 10.149982,10.040008 10.276962,10.040007 10.277357,10.139428 10.426927,10.139428 10.44391,10.139433 10.443927,10.14524 10.444361,10.192559 10.449215,10.449217 10.221758,10.447136 10.142039,10.445194 10.139727,10.368618 10.139727,10.27736 10.040006,10.276965 10.040006,10.040007 10.061602,10.040007" style="fill: white" />
</svg>
