<svg width="19.131698" height="19.131699">
<polygon type="contour" points="9.619126,9.309488 9.62088,9.309704 9.661936,9.321819 9.663608,9.322332 9.701968,9.341848 9.703534,9.342659 9.737858,9.368234 9.739289,9.369287 9.768901,9.399572 9.770116,9.40084 9.793671,9.436511 9.794643,9.437968 9.81214,9.477001 9.812869,9.478593 9.823638,9.519648 9.824097,9.521347 9.828135,9.564421 9.82827,9.566201 9.824231,9.607929 9.824097,9.609682 9.813328,9.651411 9.81287,9.65311 9.795371,9.692145 9.794643,9.693736 9.771086,9.729407 9.770116,9.730863 9.740503,9.761148 9.739289,9.762416 9.704963,9.787992 9.703534,9.789045 9.665174,9.808561 9.663609,9.809371 9.622552,9.821487 9.620879,9.822 9.57848,9.827383 9.576726,9.8276 9.534326,9.826252 9.532571,9.82617 9.490846,9.816749 9.489119,9.816371 9.449412,9.800892 9.447767,9.800245 9.411422,9.777361 9.409937,9.776443 9.377632,9.748176 9.37631,9.747017 9.34939,9.714039 9.348284,9.712664 9.32742,9.675647 9.326557,9.67411 9.312424,9.63373 9.31183,9.632057 9.305099,9.589655 9.304802,9.587928 9.304802,9.543773 9.311532,9.501374 9.31183,9.499647 9.325963,9.459267 9.326557,9.457595 9.347419,9.420579 9.348283,9.419041 9.375205,9.386062 9.376311,9.384686 9.408616,9.35642 9.409937,9.35526 9.446282,9.332377 9.447767,9.331459 9.487472,9.315978 9.489118,9.31533 9.530845,9.305907 9.532571,9.30553 9.574971,9.304185 9.576726,9.304104" style="fill: white" />
</svg>
