<svg width="19.131698" height="19.131699">
<polygon type="contour" points="7.215489,5.078567 7.37325,5.078285 7.376326,5.274077 7.375313,5.312633 7.374709,5.385814 7.142736,5.385814 7.070386,5.385499 7.070389,5.279988 7.070393,5.253967 7.072305,5.253775 7.072193,5.078096" style="fill: white" /><polygon type="contour" points="7.143423,5.487428 7.375261,5.487428 7.374775,5.686903 7.375075,5.783278 7.166711,5.783 7.07037,5.783113 7.070372,5.541465 7.070327,5.487355" style="fill: white" /><polygon type="contour" points="6.922325,5.541465 6.922192,5.783113 6.762722,5.783426 6.707572,5.783426 6.707554,5.541465 6.707554,5.487405 6.883123,5.487405 6.922476,5.487285" style="fill: white" /><polygon type="contour" points="6.922476,5.365922 6.922476,5.385934 6.740607,5.385934 6.707554,5.385944 6.707572,5.288107 6.707572,5.254766 6.754762,5.254511 6.922392,5.254392" style="fill: white" /><polygon type="contour" points="5.36534,5.077088 5.38548,5.077894 5.385461,5.13867 5.385461,5.385463 5.363178,5.385482 5.077892,5.385482 5.076919,5.140652 5.074541,5.074542" style="fill: white" /><polygon type="contour" points="5.541464,5.254728 5.605143,5.254766 5.783423,5.254766 5.782802,5.362244 5.782802,5.385945 5.541464,5.385943 5.487354,5.385889 5.487354,5.254594" style="fill: white" /><polygon type="contour" points="5.541464,5.487405 5.782802,5.487405 5.783423,5.707368 5.783423,5.783426 5.541464,5.782804 5.487403,5.782804 5.487403,5.541465 5.487354,5.487355 5.532687,5.487284" style="fill: white" /><polygon type="contour" points="5.385888,5.739893 5.385943,5.782804 5.288107,5.783426 5.254764,5.783426 5.254726,5.541465 5.254592,5.487355 5.385888,5.487355" style="fill: white" /><polygon type="contour" points="5.707364,6.707574 5.783423,6.707574 5.78311,6.869532 5.78311,6.922195 5.541464,6.922327 5.487284,6.922478 5.487403,6.883125 5.487403,6.707556" style="fill: white" /><polygon type="contour" points="5.385943,6.883125 5.385932,6.922478 5.28161,6.922394 5.25439,6.922394 5.254509,6.754765 5.254763,6.707574 5.362242,6.707556 5.385943,6.707556" style="fill: white" /><polygon type="contour" points="5.541464,7.070373 5.78311,7.070372 5.78311,7.146267 5.783423,7.375258 5.686901,7.374776 5.487427,7.375263 5.487427,7.143423 5.487354,7.070329" style="fill: white" /><polygon type="contour" points="5.365609,7.070373 5.385498,7.070387 5.385812,7.142738 5.385812,7.374711 5.272644,7.376142 5.077974,7.372909 5.078372,7.216609 5.078094,7.072195 5.09665,7.072389 5.166344,7.072389 5.254441,7.07249 5.254535,7.070372" style="fill: white" /><polygon type="contour" points="5.312631,11.756388 5.385812,11.756991 5.385812,11.988965 5.385498,12.061317 5.279986,12.061312 5.254535,12.061332 5.254442,12.059234 5.166309,12.059337 5.147808,12.059509 5.078094,12.059509 5.078449,11.916654 5.078093,11.758635 5.2743,11.755457" style="fill: white" /><polygon type="contour" points="5.686901,11.756928 5.783275,11.756627 5.782997,11.96499 5.78311,12.061332 5.541464,12.061331 5.487354,12.061376 5.487427,11.988279 5.487427,11.756439" style="fill: white" /><polygon type="contour" points="5.541464,12.209377 5.78311,12.209509 5.783423,12.368977 5.783423,12.424128 5.541464,12.424148 5.487403,12.424148 5.487403,12.248578 5.487284,12.209226" style="fill: white" /><polygon type="contour" points="5.385932,12.391094 5.385943,12.424148 5.288106,12.424128 5.254764,12.424128 5.254509,12.376936 5.25439,12.20931 5.36592,12.209226 5.385932,12.209226" style="fill: white" /><polygon type="contour" points="5.362242,13.3489 5.385943,13.3489 5.385943,13.590237 5.385888,13.644348 5.254592,13.644348 5.254726,13.590237 5.254764,13.34828" style="fill: white" /><polygon type="contour" points="5.200505,13.74603 5.291983,13.74603 5.376136,13.746221 5.38548,13.746221 5.38548,14.05381 5.169398,14.05635 5.14065,14.054782 5.074541,14.05716 5.076919,13.99105 5.077377,13.871386 5.077884,13.74603 5.182837,13.745798" style="fill: white" /><polygon type="contour" points="5.783423,13.843595 5.783423,13.876938 5.541464,13.876973 5.487354,13.877108 5.487354,13.745814 5.739891,13.745814 5.782802,13.745759" style="fill: white" /><polygon type="contour" points="5.782802,13.590237 5.782802,13.644298 5.541465,13.644298 5.487354,13.644348 5.487354,13.39181 5.487403,13.3489 5.707365,13.348281 5.783422,13.348281" style="fill: white" /><polygon type="contour" points="6.86953,13.348591 6.922193,13.348591 6.922325,13.590237 6.922476,13.644417 6.740606,13.644417 6.707554,13.644298 6.707572,13.424337 6.707572,13.34828" style="fill: white" /><polygon type="contour" points="6.922476,13.745769 6.922392,13.850093 6.922392,13.877314 6.754762,13.877193 6.707572,13.876938 6.707554,13.769458 6.707554,13.745759 6.883123,13.745759" style="fill: white" /><polygon type="contour" points="7.376399,13.859057 7.373445,14.053728 7.216941,14.053329 7.072193,14.053607 7.072305,13.877271 7.07037,13.877167 7.070372,13.766091 7.070386,13.746204 7.142737,13.74589 7.374709,13.74589" style="fill: white" /><polygon type="contour" points="7.374774,13.444803 7.375261,13.644275 7.143423,13.644275 7.070327,13.644348 7.070309,13.407151 7.07037,13.348591 7.166712,13.348704 7.375075,13.348428" style="fill: white" /><polygon type="contour" points="12.424147,13.590236 12.424147,13.644298 12.248576,13.644298 12.209224,13.644417 12.209375,13.590237 12.209507,13.348591 12.368975,13.34828 12.424126,13.34828" style="fill: white" /><polygon type="contour" points="12.424126,13.843595 12.424126,13.876938 12.376934,13.877193 12.209309,13.877314 12.209224,13.76578 12.209224,13.745769 12.391093,13.745769 12.424147,13.745759" style="fill: white" /><polygon type="contour" points="12.061315,13.746204 12.061311,13.851715 12.061324,13.877692 12.059395,13.876214 12.059507,14.053607 11.91621,14.053136 11.758451,14.05342 11.755373,13.857627 11.756386,13.819068 11.75699,13.74589 11.988963,13.74589" style="fill: white" /><polygon type="contour" points="11.964988,13.348704 12.06133,13.348591 12.061329,13.590237 12.061374,13.644348 11.988277,13.644275 11.756437,13.644275 11.756926,13.444801 11.756625,13.348428" style="fill: white" /><polygon type="contour" points="10.977517,12.050852 10.767514,12.050852 10.767514,11.840852 10.977517,11.840852" style="fill: white" /><polygon type="contour" points="10.324185,12.050852 10.114186,12.050852 10.114186,11.840852 10.324185,11.840852" style="fill: white" /><polygon type="contour" points="9.670852,12.050852 9.460849,12.050852 9.460849,11.840852 9.670852,11.840852" style="fill: white" /><polygon type="contour" points="9.017514,12.050852 8.807515,12.050852 8.807515,11.840852 9.017514,11.840852" style="fill: white" /><polygon type="contour" points="8.364186,12.050852 8.154183,12.050852 8.154183,11.840852 8.364186,11.840852" style="fill: white" /><polygon type="contour" points="7.710849,12.050852 7.500849,12.050852 7.500849,11.840852 7.710849,11.840852" style="fill: white" /><polygon type="contour" points="6.922392,12.379283 6.922193,12.424237 6.762722,12.424128 6.707572,12.424128 6.707466,12.26217 6.707466,12.209509 6.86953,12.209509 6.922392,12.20931" style="fill: white" /><polygon type="contour" points="7.166726,12.209362 7.374409,12.209362 7.374758,12.35362 7.375219,12.424165 7.167168,12.424261 7.07037,12.424236 7.07037,12.26217 7.070343,12.20931" style="fill: white" /><polygon type="contour" points="6.778078,11.756942 6.92234,11.757292 6.92234,11.964974 6.922392,12.061359 6.752419,12.061359 6.707466,12.061332 6.707441,11.964533 6.707535,11.756484" style="fill: white" /><polygon type="contour" points="7.173038,11.76444 7.370547,11.761154 7.375291,11.964094 7.373747,12.061395 7.341242,12.061325 7.070376,12.061325 7.070307,12.012288 7.070378,11.966319 7.070378,11.758004" style="fill: white" /><polygon type="contour" points="7.29085,11.630853 7.080851,11.630853 7.080851,11.420854 7.29085,11.420854" style="fill: white" /><polygon type="contour" points="7.29085,10.977519 7.080851,10.977519 7.080851,10.767516 7.29085,10.767516" style="fill: white" /><polygon type="contour" points="7.29085,10.324187 7.080851,10.324187 7.080851,10.114188 7.29085,10.114188" style="fill: white" /><polygon type="contour" points="7.29085,9.670854 7.080851,9.670854 7.080851,9.460851 7.29085,9.460851" style="fill: white" /><polygon type="contour" points="7.29085,9.017516 7.080851,9.017516 7.080851,8.807517 7.29085,8.807517" style="fill: white" /><polygon type="contour" points="7.29085,8.364188 7.080851,8.364188 7.080851,8.154185 7.29085,8.154185" style="fill: white" /><polygon type="contour" points="7.29085,7.71085 7.080851,7.71085 7.080851,7.500851 7.29085,7.500851" style="fill: white" /><polygon type="contour" points="7.375218,6.707538 7.374759,6.778081 7.374408,6.922342 7.166726,6.922342 7.070343,6.922394 7.07037,6.869533 7.07037,6.707468 7.167167,6.707442" style="fill: white" /><polygon type="contour" points="6.922193,6.869532 6.922392,6.922394 6.752418,6.922394 6.707466,6.922195 6.707572,6.762724 6.707572,6.707574 6.86953,6.707468 6.922193,6.707468" style="fill: white" /><polygon type="contour" points="6.92234,7.166729 6.92234,7.374411 6.778078,7.374761 6.707535,7.375221 6.707441,7.16717 6.707466,7.070372 6.869531,7.070372 6.922392,7.070345" style="fill: white" /><polygon type="contour" points="7.165382,7.07038 7.373698,7.07038 7.367262,7.17304 7.370547,7.37055 7.167607,7.375293 7.070307,7.373749 7.070376,7.341244 7.070376,7.070379 7.119412,7.07031" style="fill: white" /><polygon type="contour" points="7.710849,7.290852 7.500849,7.290852 7.500849,7.080852 7.710849,7.080852" style="fill: white" /><polygon type="contour" points="8.364186,7.290852 8.154183,7.290852 8.154183,7.080852 8.364186,7.080852" style="fill: white" /><polygon type="contour" points="9.017514,7.290852 8.807515,7.290852 8.807515,7.080852 9.017514,7.080852" style="fill: white" /><polygon type="contour" points="9.670852,7.290852 9.460849,7.290852 9.460849,7.080852 9.670852,7.080852" style="fill: white" /><polygon type="contour" points="10.324185,7.290852 10.114186,7.290852 10.114186,7.080852 10.324185,7.080852" style="fill: white" /><polygon type="contour" points="10.977517,7.290852 10.767514,7.290852 10.767514,7.080852 10.977517,7.080852" style="fill: white" /><polygon type="contour" points="12.061391,5.724552 12.06133,5.783113 11.985435,5.783113 11.756444,5.783426 11.756926,5.686902 11.756437,5.487428 11.988277,5.487428 12.061373,5.487355" style="fill: white" /><polygon type="contour" points="11.914759,5.078374 12.059507,5.078096 12.059395,5.254433 12.061331,5.254537 12.061329,5.365611 12.061314,5.385499 11.988964,5.385814 11.75699,5.385814 11.7553,5.272646 11.758256,5.077975" style="fill: white" /><polygon type="contour" points="12.376934,5.254511 12.424126,5.254766 12.424147,5.362244 12.424147,5.385944 12.248576,5.385944 12.209224,5.385934 12.209309,5.281611 12.209309,5.254392" style="fill: white" /><polygon type="contour" points="12.424147,5.487405 12.424126,5.707367 12.424126,5.783426 12.26217,5.783113 12.209507,5.783113 12.209375,5.541465 12.209224,5.487285 12.391094,5.487285" style="fill: white" /><polygon type="contour" points="14.054781,5.140651 14.05432,5.260316 14.053815,5.385673 13.948861,5.385905 13.931193,5.385673 13.839714,5.385673 13.755561,5.385482 13.746218,5.385482 13.746218,5.36318 13.746201,5.340459 13.746201,5.077912 13.904433,5.076094 13.962302,5.075355 13.991049,5.07692 14.057159,5.074543" style="fill: white" /><polygon type="contour" points="13.644345,5.254594 13.644345,5.385889 13.391808,5.38589 13.348898,5.385945 13.348278,5.288107 13.348278,5.254766 13.409767,5.254575" style="fill: white" /><polygon type="contour" points="13.876972,5.541465 13.876935,5.783426 13.769454,5.782804 13.745756,5.782804 13.745756,5.541465 13.745811,5.487355 13.877107,5.487355" style="fill: white" /><polygon type="contour" points="13.644345,5.739892 13.644295,5.782804 13.424335,5.783426 13.348278,5.783426 13.348898,5.541466 13.348898,5.487405 13.590233,5.487405 13.644345,5.487355" style="fill: white" /><polygon type="contour" points="13.843593,6.707574 13.876935,6.707574 13.87719,6.754765 13.877311,6.922394 13.765777,6.922478 13.745766,6.922478 13.745766,6.740609 13.745756,6.707556" style="fill: white" /><polygon type="contour" points="13.644295,6.883125 13.644415,6.922478 13.590233,6.922326 13.34859,6.922195 13.348278,6.762724 13.348278,6.707574 13.590233,6.707556 13.644295,6.707556" style="fill: white" /><polygon type="contour" points="13.877258,7.07247 13.965388,7.072367 13.983889,7.072195 14.053605,7.072195 14.05325,7.215049 14.053608,7.373069 13.857398,7.376245 13.819067,7.375314 13.745887,7.374711 13.745887,7.142738 13.746201,7.070387 13.851713,7.070391 13.877164,7.070372" style="fill: white" /><polygon type="contour" points="13.644272,7.143423 13.644272,7.375263 13.444799,7.374776 13.348425,7.375077 13.348702,7.166713 13.34859,7.070372 13.590234,7.070373 13.644345,7.070329" style="fill: white" /><polygon type="contour" points="12.424235,7.070372 12.424235,7.146267 12.424126,7.375258 12.353618,7.37476 12.209361,7.374411 12.209361,7.166729 12.209309,7.070345 12.37928,7.070345" style="fill: white" /><polygon type="contour" points="12.368975,6.707574 12.424126,6.707574 12.424235,6.869532 12.424235,6.922195 12.26217,6.922195 12.209309,6.922394 12.209309,6.75242 12.209507,6.707468" style="fill: white" /><polygon type="contour" points="12.06133,6.707468 12.06133,6.869532 12.061358,6.922394 11.964973,6.922342 11.757291,6.922342 11.75694,6.778081 11.756482,6.707538 11.964532,6.707443" style="fill: white" /><polygon type="contour" points="11.790458,7.070379 12.061324,7.070379 12.061393,7.119414 12.061323,7.165385 12.061323,7.3737 11.958661,7.367264 11.761153,7.37055 11.75641,7.167611 11.757953,7.07031" style="fill: white" /><polygon type="contour" points="11.630851,7.290852 11.420852,7.290852 11.420852,7.080852 11.630851,7.080852" style="fill: white" /><polygon type="contour" points="12.050849,7.71085 11.84085,7.71085 11.84085,7.500851 12.050849,7.500851" style="fill: white" /><polygon type="contour" points="12.050849,8.364188 11.84085,8.364188 11.84085,8.154185 12.050849,8.154185" style="fill: white" /><polygon type="contour" points="12.050849,9.017516 11.84085,9.017516 11.84085,8.807517 12.050849,8.807517" style="fill: white" /><polygon type="contour" points="12.050849,9.670854 11.84085,9.670854 11.84085,9.460851 12.050849,9.460851" style="fill: white" /><polygon type="contour" points="12.050849,10.324187 11.84085,10.324187 11.84085,10.114188 12.050849,10.114188" style="fill: white" /><polygon type="contour" points="12.050849,10.977519 11.84085,10.977519 11.84085,10.767516 12.050849,10.767516" style="fill: white" /><polygon type="contour" points="12.050849,11.630853 11.84085,11.630853 11.84085,11.420854 12.050849,11.420854" style="fill: white" /><polygon type="contour" points="12.061393,11.757955 12.061324,11.790459 12.061324,12.061325 12.012286,12.061395 11.966318,12.061324 11.758002,12.061324 11.764439,11.958661 11.761153,11.761154 11.964092,11.756411" style="fill: white" /><polygon type="contour" points="11.630851,12.050852 11.420852,12.050852 11.420852,11.840852 11.630851,11.840852" style="fill: white" /><polygon type="contour" points="12.06133,12.262171 12.06133,12.424237 11.985435,12.424237 11.756444,12.424127 11.756941,12.35362 11.757291,12.209362 11.964973,12.209362 12.061358,12.20931" style="fill: white" /><polygon type="contour" points="12.424235,12.209508 12.424126,12.368977 12.424126,12.424128 12.262169,12.424237 12.209507,12.424237 12.209507,12.26217 12.209309,12.20931 12.379281,12.20931" style="fill: white" /><polygon type="contour" points="12.424259,11.964533 12.424234,12.061332 12.262169,12.061332 12.209309,12.061359 12.209361,11.964974 12.209361,11.757292 12.353618,11.756943 12.424163,11.756484" style="fill: white" /><polygon type="contour" points="14.053726,11.758795 14.053327,11.915094 14.053605,12.059509 14.035048,12.059315 13.965354,12.059315 13.877259,12.059213 13.877164,12.061332 13.766088,12.061331 13.746201,12.061317 13.745887,11.988965 13.745887,11.756991 13.859054,11.75556" style="fill: white" /><polygon type="contour" points="13.644272,11.988279 13.644345,12.061376 13.590234,12.061331 13.34859,12.061332 13.348702,11.96499 13.348425,11.756627 13.444798,11.756928 13.644272,11.756439" style="fill: white" /><polygon type="contour" points="13.85009,12.20931 13.877311,12.20931 13.877189,12.376936 13.876935,12.424127 13.769454,12.424148 13.745756,12.424148 13.745756,12.248578 13.745766,12.209226" style="fill: white" /><polygon type="contour" points="13.644295,12.248578 13.644295,12.424148 13.424335,12.424128 13.348278,12.424128 13.34859,12.26217 13.34859,12.209509 13.590233,12.209377 13.644415,12.209226" style="fill: white" /><polygon type="contour" points="13.877126,13.40977 13.877107,13.644348 13.745811,13.644348 13.745811,13.39181 13.745756,13.3489 13.843593,13.34828 13.876935,13.34828" style="fill: white" /><polygon type="contour" points="13.590234,13.3489 13.644295,13.3489 13.644295,13.590236 13.644345,13.644348 13.599011,13.644417 13.590233,13.644298 13.348898,13.644298 13.348278,13.424337 13.348278,13.34828" style="fill: white" /><polygon type="contour" points="13.644345,13.745814 13.644345,13.877107 13.590234,13.876972 13.526558,13.876938 13.348278,13.876938 13.348898,13.769458 13.348898,13.745759 13.590234,13.745759" style="fill: white" /><polygon type="contour" points="14.054781,13.99105 14.057159,14.05716 13.766357,14.054616 13.746218,14.05381 13.746218,13.746221 14.053808,13.746221" style="fill: white" /><polygon type="contour" points="14.264602,14.920853 14.054599,14.920853 14.054599,14.710852 14.264602,14.710852" style="fill: white" /><polygon type="contour" points="13.608352,14.920853 13.398349,14.920853 13.398349,14.710852 13.608352,14.710852" style="fill: white" /><polygon type="contour" points="12.952102,14.920853 12.742099,14.920853 12.742099,14.710852 12.952102,14.710852" style="fill: white" /><polygon type="contour" points="12.295852,14.920853 12.085849,14.920853 12.085849,14.710852 12.295852,14.710852" style="fill: white" /><polygon type="contour" points="11.639602,14.920853 11.429599,14.920853 11.429599,14.710852 11.639602,14.710852" style="fill: white" /><polygon type="contour" points="10.983352,14.920853 10.773349,14.920853 10.773349,14.710852 10.983352,14.710852" style="fill: white" /><polygon type="contour" points="10.327102,14.920853 10.117099,14.920853 10.117099,14.710852 10.327102,14.710852" style="fill: white" /><polygon type="contour" points="9.670852,14.920853 9.460849,14.920853 9.460849,14.710852 9.670852,14.710852" style="fill: white" /><polygon type="contour" points="9.014602,14.920853 8.804599,14.920853 8.804599,14.710852 9.014602,14.710852" style="fill: white" /><polygon type="contour" points="8.358351,14.920853 8.148349,14.920853 8.148349,14.710852 8.358351,14.710852" style="fill: white" /><polygon type="contour" points="7.702101,14.920853 7.492099,14.920853 7.492099,14.710852 7.702101,14.710852" style="fill: white" /><polygon type="contour" points="7.045851,14.920853 6.835849,14.920853 6.835849,14.710852 7.045851,14.710852" style="fill: white" /><polygon type="contour" points="6.389601,14.920853 6.179599,14.920853 6.179599,14.710852 6.389601,14.710852" style="fill: white" /><polygon type="contour" points="5.733351,14.920853 5.52335,14.920853 5.52335,14.710852 5.733351,14.710852" style="fill: white" /><polygon type="contour" points="5.0771,14.920853 4.8671,14.920853 4.8671,14.710852 5.0771,14.710852" style="fill: white" /><polygon type="contour" points="4.42085,14.920853 4.21085,14.920853 4.21085,14.710852 4.42085,14.710852" style="fill: white" /><polygon type="contour" points="4.42085,14.264603 4.21085,14.264603 4.21085,14.054602 4.42085,14.054602" style="fill: white" /><polygon type="contour" points="4.42085,13.608353 4.21085,13.608353 4.21085,13.398351 4.42085,13.398351" style="fill: white" /><polygon type="contour" points="4.42085,12.952103 4.21085,12.952103 4.21085,12.742101 4.42085,12.742101" style="fill: white" /><polygon type="contour" points="4.42085,12.295853 4.21085,12.295853 4.21085,12.085851 4.42085,12.085851" style="fill: white" /><polygon type="contour" points="4.42085,11.639603 4.21085,11.639603 4.21085,11.429601 4.42085,11.429601" style="fill: white" /><polygon type="contour" points="4.42085,10.983354 4.21085,10.983354 4.210851,10.81295 4.210851,10.773351 4.42085,10.773351" style="fill: white" /><polygon type="contour" points="4.42085,10.327104 4.21085,10.327104 4.21085,10.117101 4.42085,10.117101" style="fill: white" /><polygon type="contour" points="4.42085,9.670854 4.21085,9.670854 4.21085,9.460851 4.42085,9.460851" style="fill: white" /><polygon type="contour" points="4.42085,9.014604 4.21085,9.014604 4.21085,8.804601 4.42085,8.804601" style="fill: white" /><polygon type="contour" points="4.42085,8.358353 4.21085,8.358353 4.21085,8.14835 4.42085,8.14835" style="fill: white" /><polygon type="contour" points="4.42085,7.702103 4.21085,7.702103 4.21085,7.492101 4.42085,7.492101" style="fill: white" /><polygon type="contour" points="4.42085,6.87545 4.420849,7.045853 4.21085,7.045853 4.21085,6.835851 4.42085,6.835851" style="fill: white" /><polygon type="contour" points="4.42085,6.389603 4.21085,6.389603 4.21085,6.179601 4.42085,6.179601" style="fill: white" /><polygon type="contour" points="4.42085,5.733353 4.21085,5.733353 4.21085,5.523352 4.42085,5.523352" style="fill: white" /><polygon type="contour" points="4.42085,5.077102 4.21085,5.077102 4.21085,4.867102 4.42085,4.867102" style="fill: white" /><polygon type="contour" points="4.42085,4.420852 4.21085,4.420852 4.21085,4.210852 4.42085,4.210852" style="fill: white" /><polygon type="contour" points="5.0771,4.420852 4.8671,4.420852 4.8671,4.210852 5.0771,4.210852" style="fill: white" /><polygon type="contour" points="5.733351,4.420852 5.52335,4.420852 5.52335,4.210852 5.733351,4.210852" style="fill: white" /><polygon type="contour" points="6.389601,4.420852 6.179599,4.420852 6.179599,4.210852 6.389601,4.210852" style="fill: white" /><polygon type="contour" points="7.045851,4.420852 6.835849,4.420852 6.835849,4.210852 7.045851,4.210852" style="fill: white" /><polygon type="contour" points="7.702101,4.420852 7.492099,4.420852 7.492099,4.210852 7.702101,4.210852" style="fill: white" /><polygon type="contour" points="8.358351,4.420852 8.148349,4.420852 8.148349,4.210852 8.358351,4.210852" style="fill: white" /><polygon type="contour" points="9.014602,4.420852 8.804599,4.420852 8.804599,4.210852 9.014602,4.210852" style="fill: white" /><polygon type="contour" points="9.670852,4.420852 9.460849,4.420852 9.460849,4.210852 9.670852,4.210852" style="fill: white" /><polygon type="contour" points="10.327102,4.420852 10.117099,4.420852 10.117099,4.210852 10.327102,4.210852" style="fill: white" /><polygon type="contour" points="10.983352,4.420852 10.773349,4.420852 10.773349,4.210852 10.983352,4.210852" style="fill: white" /><polygon type="contour" points="11.639602,4.420852 11.429599,4.420852 11.429599,4.210852 11.639602,4.210852" style="fill: white" /><polygon type="contour" points="12.295852,4.420852 12.085849,4.420852 12.085849,4.210852 12.295852,4.210852" style="fill: white" /><polygon type="contour" points="12.952102,4.420852 12.742099,4.420852 12.742099,4.210852 12.952102,4.210852" style="fill: white" /><polygon type="contour" points="13.608352,4.420852 13.398349,4.420852 13.398349,4.210852 13.608352,4.210852" style="fill: white" /><polygon type="contour" points="14.264602,4.420852 14.054599,4.420852 14.054599,4.210852 14.264602,4.210852" style="fill: white" /><polygon type="contour" points="14.920852,4.420852 14.710849,4.420852 14.710849,4.210852 14.920852,4.210852" style="fill: white" /><polygon type="contour" points="14.920852,5.077102 14.710849,5.077102 14.710849,4.867102 14.920852,4.867102" style="fill: white" /><polygon type="contour" points="14.920852,5.733353 14.710849,5.733353 14.710849,5.523352 14.920852,5.523352" style="fill: white" /><polygon type="contour" points="14.920852,6.389603 14.710849,6.389603 14.710849,6.179601 14.920852,6.179601" style="fill: white" /><polygon type="contour" points="14.920852,7.045853 14.710849,7.045853 14.710849,6.835851 14.920852,6.835851" style="fill: white" /><polygon type="contour" points="14.920852,7.702103 14.710849,7.702103 14.710849,7.492101 14.920852,7.492101" style="fill: white" /><polygon type="contour" points="14.920852,8.358353 14.710849,8.358353 14.710849,8.14835 14.920852,8.14835" style="fill: white" /><polygon type="contour" points="14.920852,9.014604 14.710849,9.014604 14.710849,8.804601 14.920852,8.804601" style="fill: white" /><polygon type="contour" points="14.920852,9.670854 14.710849,9.670854 14.710849,9.460851 14.920852,9.460851" style="fill: white" /><polygon type="contour" points="14.920852,10.327104 14.710849,10.327104 14.710849,10.117101 14.920852,10.117101" style="fill: white" /><polygon type="contour" points="14.920852,10.983354 14.710849,10.983354 14.710849,10.773351 14.920852,10.773351" style="fill: white" /><polygon type="contour" points="14.920852,11.639603 14.710849,11.639603 14.710849,11.429601 14.920852,11.429601" style="fill: white" /><polygon type="contour" points="14.920852,12.295853 14.710849,12.295853 14.710849,12.085851 14.920852,12.085851" style="fill: white" /><polygon type="contour" points="14.920852,12.952103 14.710849,12.952103 14.710849,12.742101 14.920852,12.742101" style="fill: white" /><polygon type="contour" points="14.920852,13.608353 14.710849,13.608353 14.710849,13.398351 14.920852,13.398351" style="fill: white" /><polygon type="contour" points="14.920852,14.264603 14.710849,14.264603 14.710849,14.054602 14.920852,14.054602" style="fill: white" /><polygon type="contour" points="14.920852,14.920853 14.710849,14.920853 14.710849,14.710852 14.920852,14.710852" style="fill: white" />
</svg>
