<svg width="19.131698" height="19.131699">
<polygon type="contour" points="10.577607,8.449436 10.682737,8.448964 10.682448,8.525698 10.682375,8.732783 10.651214,8.732783 10.57641,8.73286 10.398841,8.73286 10.398841,8.659901 10.398697,8.571477 10.398405,8.564126 10.398405,8.506875 10.400656,8.447218" style="fill: white" /><polygon type="contour" points="10.515316,8.877235 10.51515,8.933842 10.44883,8.934109 10.398518,8.934109 10.398518,8.877234 10.398749,8.834951 10.51545,8.834951" style="fill: white" /><polygon type="contour" points="10.29675,8.732951 10.232851,8.732951 10.197593,8.733183 10.19786,8.673259 10.19786,8.616553 10.23827,8.616423 10.29675,8.616252" style="fill: white" /><polygon type="contour" points="10.29675,8.8702 10.296693,8.877234 10.296693,8.934109 10.245452,8.933842 10.19786,8.933842 10.197593,8.877234 10.197593,8.835007 10.254465,8.835007 10.29675,8.834951" style="fill: white" /><polygon type="contour" points="8.886245,10.197862 8.93384,10.197862 8.934108,10.254467 8.934108,10.296695 8.877232,10.296695 8.834949,10.296752 8.834933,10.261365 8.835005,10.254467 8.835005,10.197595" style="fill: white" /><polygon type="contour" points="8.733181,10.254467 8.732949,10.296752 8.616251,10.296752 8.616384,10.254467 8.616551,10.197862 8.682867,10.197595 8.733181,10.197595" style="fill: white" /><polygon type="contour" points="8.732858,10.471803 8.732999,10.560226 8.733294,10.567577 8.733294,10.624829 8.731043,10.684483 8.554092,10.682267 8.448963,10.68274 8.449252,10.606005 8.449325,10.39892 8.480485,10.39892 8.555289,10.398843 8.732858,10.398843" style="fill: white" /><polygon type="contour" points="8.93384,10.458443 8.93384,10.515152 8.893431,10.515279 8.834949,10.515451 8.834949,10.398751 8.898849,10.398751 8.934108,10.398519" style="fill: white" /><polygon type="contour" points="9.316562,10.398706 9.316746,10.472645 9.316746,10.514937 9.275418,10.514897 9.275559,10.515251 9.220549,10.515152 9.220477,10.448833 9.220477,10.398519 9.275348,10.398519" style="fill: white" /><polygon type="contour" points="9.275558,10.19802 9.317172,10.19802 9.316677,10.254467 9.316562,10.296768 9.255058,10.296768 9.220477,10.296695 9.220549,10.245453 9.220549,10.197862" style="fill: white" /><polygon type="contour" points="9.317116,9.814586 9.317116,9.876271 9.317172,9.911131 9.267128,9.911154 9.220549,9.911154 9.220572,9.856142 9.220572,9.81453 9.275559,9.81453" style="fill: white" /><polygon type="contour" points="9.317116,9.711102 9.220572,9.711102 9.220572,9.420602 9.317116,9.420602" style="fill: white" /><polygon type="contour" points="8.933681,9.711102 8.877232,9.712304 8.834949,9.712452 8.834949,9.420602 8.933681,9.420602" style="fill: white" /><polygon type="contour" points="8.93384,9.864572 8.93384,9.911153 8.877232,9.911226 8.835005,9.911226 8.835005,9.856354 8.834933,9.815141 8.877233,9.815025 8.933681,9.81453" style="fill: white" /><polygon type="contour" points="8.732993,9.815142 8.732993,9.876642 8.733181,9.911226 8.673257,9.911154 8.616551,9.911154 8.61647,9.871558 8.616369,9.814586 8.658875,9.814586" style="fill: white" /><polygon type="contour" points="8.733118,9.712421 8.660563,9.711102 8.444909,9.711102 8.445454,9.675197 8.445981,9.565502 8.445453,9.456334 8.444908,9.420602 8.733118,9.420602" style="fill: white" /><polygon type="contour" points="8.733294,8.506875 8.733,8.571477 8.733,8.656584 8.732858,8.73286 8.659898,8.73286 8.584768,8.732783 8.449325,8.732783 8.449252,8.525698 8.448963,8.448964 8.554092,8.449436 8.731043,8.447218" style="fill: white" /><polygon type="contour" points="8.877233,8.616385 8.93384,8.616553 8.934108,8.68287 8.934108,8.733183 8.877232,8.733183 8.834949,8.732951 8.834949,8.616252" style="fill: white" /><polygon type="contour" points="8.877232,8.835007 8.934108,8.835007 8.93384,8.886249 8.93384,8.933842 8.877233,8.934109 8.835005,8.934109 8.835005,8.877235 8.834949,8.834951 8.870335,8.834935" style="fill: white" /><polygon type="contour" points="8.732949,8.898851 8.733181,8.934109 8.673257,8.933842 8.616551,8.933842 8.616422,8.893433 8.61625,8.834951 8.732949,8.834951" style="fill: white" /><polygon type="contour" points="8.733181,9.276549 8.732993,9.317909 8.658874,9.317118 8.616369,9.317118 8.616452,9.27556 8.616551,9.22055 8.682867,9.220478 8.733181,9.220478" style="fill: white" /><polygon type="contour" points="8.886246,9.22055 8.93384,9.22055 8.933681,9.275561 8.933681,9.317174 8.877233,9.31788 8.834949,9.318852 8.834949,9.255851 8.835005,9.220478" style="fill: white" /><polygon type="contour" points="9.275559,9.220573 9.317172,9.220573 9.317172,9.275561 9.317116,9.317118 9.255431,9.317118 9.220572,9.317174 9.220549,9.26713 9.220549,9.22055" style="fill: white" /><polygon type="contour" points="9.317878,8.877234 9.317172,8.933682 9.267129,8.933842 9.220549,8.933842 9.220477,8.877234 9.220477,8.835007 9.276549,8.835007 9.317907,8.834935" style="fill: white" /><polygon type="contour" points="9.317116,8.658876 9.317907,8.732995 9.255059,8.732995 9.220477,8.733183 9.220549,8.673259 9.220549,8.616553 9.260142,8.616472 9.317116,8.61637" style="fill: white" /><polygon type="contour" points="9.686251,8.44934 9.711101,8.449435 9.711101,8.73312 9.4206,8.73312 9.4206,8.449435 9.445331,8.44934 9.566029,8.445956" style="fill: white" /><polygon type="contour" points="9.856141,8.616453 9.911151,8.616553 9.911223,8.682869 9.911223,8.733183 9.855151,8.733183 9.813794,8.732995 9.814585,8.658876 9.814585,8.61637" style="fill: white" /><polygon type="contour" points="9.911223,8.835007 9.911151,8.886248 9.911151,8.933842 9.856141,8.933682 9.814529,8.933682 9.813823,8.877234 9.813794,8.834935 9.87664,8.834935" style="fill: white" /><polygon type="contour" points="9.711101,8.933682 9.4206,8.933682 9.4206,8.834951 9.711101,8.834951" style="fill: white" /><polygon type="contour" points="9.711101,9.317118 9.4206,9.317118 9.4206,9.220573 9.711101,9.220573" style="fill: white" /><polygon type="contour" points="9.911128,9.275561 9.911128,9.317174 9.85614,9.317174 9.814585,9.317118 9.814585,9.255432 9.814529,9.220573 9.864571,9.22055 9.911151,9.22055" style="fill: white" /><polygon type="contour" points="10.296693,9.27655 10.29675,9.318852 10.254464,9.31788 10.198019,9.317174 10.19786,9.267131 10.19786,9.22055 10.254464,9.220478 10.296693,9.220478" style="fill: white" /><polygon type="contour" points="10.458442,9.22055 10.51515,9.22055 10.51523,9.260145 10.515332,9.317118 10.472825,9.317118 10.398705,9.317909 10.398705,9.25506 10.398518,9.220478" style="fill: white" /><polygon type="contour" points="10.686246,9.456506 10.68572,9.566201 10.686246,9.675369 10.686791,9.711102 10.398581,9.711102 10.398581,9.420602 10.686791,9.420602" style="fill: white" /><polygon type="contour" points="10.546932,10.39892 10.682375,10.39892 10.682448,10.606005 10.682737,10.68274 10.577607,10.682268 10.400656,10.684484 10.398405,10.624829 10.398698,10.560226 10.398698,10.475116 10.398841,10.398843 10.471802,10.398843" style="fill: white" /><polygon type="contour" points="10.29675,10.398751 10.29675,10.515452 10.254464,10.515318 10.19786,10.515152 10.197593,10.448832 10.197593,10.398519 10.254464,10.398519" style="fill: white" /><polygon type="contour" points="10.296693,10.254468 10.29675,10.296752 10.261499,10.296752 10.254465,10.296695 10.197593,10.296695 10.19786,10.245454 10.19786,10.197862 10.254464,10.197595 10.296693,10.197595" style="fill: white" /><polygon type="contour" points="10.458443,10.197862 10.51515,10.197862 10.515277,10.23827 10.51545,10.296752 10.398749,10.296752 10.398749,10.232853 10.398518,10.197595" style="fill: white" /><polygon type="contour" points="10.472825,9.814586 10.515332,9.814586 10.515248,9.856143 10.51515,9.911154 10.448831,9.911226 10.398518,9.911226 10.398518,9.855154 10.398705,9.813795" style="fill: white" /><polygon type="contour" points="10.29675,9.711102 10.198019,9.711102 10.198019,9.420602 10.29675,9.420602" style="fill: white" /><polygon type="contour" points="10.29675,9.875851 10.296693,9.911226 10.245452,9.911154 10.19786,9.911154 10.198019,9.856142 10.198019,9.81453 10.254465,9.813824 10.29675,9.812851" style="fill: white" /><polygon type="contour" points="9.911151,9.864573 9.911151,9.911154 9.85614,9.911131 9.814529,9.911131 9.814529,9.856142 9.814585,9.814586 9.876268,9.814586 9.911128,9.81453" style="fill: white" /><polygon type="contour" points="9.911128,9.711102 9.814585,9.711102 9.814585,9.420602 9.911128,9.420602" style="fill: white" /><polygon type="contour" points="9.711101,9.711102 9.4206,9.711102 9.4206,9.420602 9.711101,9.420602" style="fill: white" /><polygon type="contour" points="9.711101,9.911131 9.4206,9.911131 9.4206,9.814586 9.711101,9.814586" style="fill: white" /><polygon type="contour" points="9.711101,10.296752 9.419251,10.296752 9.4206,10.233602 9.4206,10.19802 9.711101,10.19802" style="fill: white" /><polygon type="contour" points="9.911223,10.254467 9.911223,10.296695 9.855151,10.296695 9.81285,10.296752 9.813823,10.254467 9.814529,10.19802 9.864571,10.197862 9.911151,10.197862" style="fill: white" /><polygon type="contour" points="9.911151,10.458443 9.911151,10.515152 9.871557,10.515231 9.814585,10.515334 9.814585,10.472825 9.813794,10.398707 9.87664,10.398707 9.911223,10.398519" style="fill: white" /><polygon type="contour" points="9.711101,10.682269 9.686251,10.682364 9.5655,10.685748 9.445331,10.682364 9.4206,10.682269 9.4206,10.575278 9.419721,10.470969 9.419282,10.398583 9.711101,10.398583" style="fill: white" />
</svg>
