<svg width="19.131698" height="19.131699">
<polygon type="contour" points="6.913216,6.787949 6.948091,6.789213 7.055516,6.791892 7.085216,6.79207 7.085216,6.964361 7.145404,6.964672 7.326817,6.964185 7.326817,6.980541 7.327287,7.085506 7.327287,7.145404 7.326817,7.326819 7.299038,7.326819 7.126387,7.327288 7.074308,7.327288 6.964183,7.326819 6.96467,7.145405 6.96436,7.085508 6.854494,7.0855 6.821247,7.085001 6.791694,7.084649 6.790709,7.053554 6.784171,6.784173" style="fill: white" /><polygon type="contour" points="7.326817,8.073591 7.326817,8.108339 7.326691,8.325495 7.326691,8.357326 7.326817,8.63778 7.304279,8.637718 7.126421,8.638183 7.126421,8.637819 7.055863,8.637867 6.790832,8.635626 6.78924,8.505932 6.789951,8.480239 6.790353,8.475766 6.791146,8.432843 6.792361,8.358073 6.792352,8.344004 6.797108,8.344015 6.964787,8.344015 6.964183,8.073591 6.980539,8.073591 7.085505,8.073203 7.145404,8.073203" style="fill: white" /><polygon type="contour" points="8.637778,8.073591 8.637711,8.100495 8.638134,8.330454 8.633523,8.633525 8.595643,8.633238 8.591652,8.634156 8.585024,8.634796 8.329806,8.638166 8.07359,8.63778 8.07359,8.59674 8.07352,8.328755 8.07359,8.073591 8.108338,8.073591 8.339383,8.073522" style="fill: white" /><polygon type="contour" points="8.635623,6.790833 8.637866,7.055865 8.637868,7.126422 8.638181,7.126422 8.638214,7.145404 8.637778,7.326819 8.596738,7.326819 8.344013,7.326694 8.314224,7.326694 8.07359,7.326819 8.07359,7.299039 8.073201,7.126388 8.073201,7.074308 8.073589,6.964185 8.344014,6.964788 8.344014,6.802127 8.344013,6.797112 8.344008,6.795119 8.344002,6.792355 8.358072,6.792364 8.433179,6.790887 8.475386,6.790356 8.480238,6.789952 8.505931,6.789241 8.522232,6.788785 8.522746,6.788752 8.530652,6.788437 8.567694,6.786426" style="fill: white" /><polygon type="contour" points="10.651462,6.789952 10.656314,6.790356 10.698521,6.790887 10.773628,6.792364 10.787691,6.792337 10.787687,6.797111 10.787687,6.964788 11.058109,6.964185 11.058109,6.980541 11.0585,7.085506 11.0585,7.145404 11.058109,7.326818 11.02336,7.326818 10.806207,7.326694 10.774375,7.326694 10.493922,7.326819 10.493984,7.304281 10.493519,7.126422 10.493882,7.126422 10.493834,7.055864 10.496075,6.790833 10.62577,6.789242" style="fill: white" /><polygon type="contour" points="11.058109,8.107736 11.058173,8.325494 11.058177,8.339407 11.058109,8.63778 11.031204,8.637713 10.799727,8.638137 10.546675,8.634797 10.540045,8.634157 10.498175,8.633525 10.498463,8.595644 10.497542,8.591653 10.496903,8.585026 10.493534,8.3298 10.493922,8.073591 10.534961,8.073591 10.806206,8.073522 10.821282,8.073518 11.058109,8.072988" style="fill: white" /><polygon type="contour" points="12.340359,7.053554 12.339456,7.084649 12.309991,7.085001 12.277007,7.085501 12.167339,7.085501 12.16703,7.145405 12.167517,7.326819 12.151159,7.326819 12.046194,7.327288 11.986295,7.327288 11.804884,7.326819 11.804884,7.29904 11.804411,7.126388 11.804411,7.074309 11.804884,6.964185 11.986295,6.964671 12.046491,6.964361 12.046491,6.792124 12.076183,6.791892 12.183608,6.789213 12.218481,6.78795 12.347528,6.784173" style="fill: white" /><polygon type="contour" points="12.167517,8.073591 12.166912,8.251538 12.16701,8.344004 12.339345,8.344004 12.339336,8.358073 12.341346,8.475388 12.341748,8.480239 12.342459,8.505932 12.343263,8.530655 12.345275,8.567694 12.340868,8.635626 12.252496,8.635238 12.022389,8.638153 11.986295,8.638216 11.804884,8.63778 11.804884,8.59674 11.805009,8.344015 11.805009,8.314226 11.804884,8.073591 11.832663,8.073591 12.005311,8.073203 12.057391,8.073203" style="fill: white" /><polygon type="contour" points="12.167517,11.804885 12.16703,11.986298 12.167339,12.046195 12.277007,12.046203 12.309991,12.046703 12.339456,12.047055 12.340359,12.078149 12.347528,12.347531 12.218481,12.343752 12.183607,12.342489 12.076184,12.339813 12.046484,12.339635 12.046484,12.167341 11.986295,12.167031 11.804884,12.167519 11.804884,12.15116 11.804411,12.046197 11.804411,11.986298 11.804884,11.804885 11.832663,11.804885 12.005312,11.804413 12.057392,11.804413" style="fill: white" /><polygon type="contour" points="12.005279,10.493882 12.075836,10.493837 12.340868,10.496078 12.342459,10.625772 12.341748,10.651464 12.341346,10.656316 12.340554,10.698861 12.339336,10.773631 12.339345,10.787701 12.334588,10.787689 12.166912,10.787689 12.167517,11.058111 12.151159,11.058111 12.046194,11.058502 11.986296,11.058502 11.804884,11.05811 11.804884,11.023362 11.805009,10.806208 11.805009,10.774377 11.804884,10.493924 11.827421,10.493986 12.005279,10.493521" style="fill: white" /><polygon type="contour" points="11.058109,10.493924 11.058109,10.534963 11.058173,10.787687 11.058176,10.802929 11.058109,11.058716 11.02336,11.058716 10.806207,11.058175 10.774375,11.058175 10.493922,11.058111 10.493989,11.031206 10.493563,10.799734 10.496903,10.546677 10.497543,10.540047 10.498175,10.498177 10.546675,10.496904 10.801901,10.493537" style="fill: white" /><polygon type="contour" points="10.787685,11.805011 10.817476,11.805011 11.058109,11.804885 11.058109,11.832664 11.0585,12.005314 11.0585,12.057395 11.058109,12.167519 10.787686,12.166916 10.787686,12.329574 10.787687,12.334589 10.787691,12.336582 10.787699,12.339347 10.773629,12.339338 10.698521,12.340815 10.655935,12.341347 10.651463,12.341749 10.62577,12.342459 10.60485,12.343016 10.601047,12.343265 10.564006,12.345276 10.496075,12.340869 10.493834,12.075838 10.493831,12.005281 10.493519,12.005281 10.493486,11.986298 10.493922,11.804885 10.534961,11.804885" style="fill: white" /><polygon type="contour" points="8.637716,11.827424 8.638181,12.005282 8.637817,12.005282 8.637865,12.075839 8.635624,12.34087 8.505931,12.34246 8.480237,12.341749 8.475763,12.341347 8.43318,12.340816 8.358072,12.339338 8.344009,12.339364 8.344013,12.33459 8.344013,12.166915 8.07359,12.167519 8.07359,12.15116 8.073201,12.046196 8.073201,11.986298 8.07359,11.804885 8.108338,11.804885 8.325492,11.805011 8.357324,11.805011 8.637778,11.804884" style="fill: white" /><polygon type="contour" points="8.633523,10.498177 8.634795,10.546676 8.638165,10.801895 8.637778,11.058111 8.596738,11.058111 8.328753,11.058178 8.07359,11.058111 8.07359,11.023363 8.073519,10.792318 8.07359,10.493924 8.100494,10.493991 8.330443,10.493568" style="fill: white" /><polygon type="contour" points="7.326817,10.493924 7.326817,10.534963 7.326691,10.787687 7.326691,10.817478 7.326817,11.058111 7.299038,11.058111 7.126387,11.058502 7.074307,11.058502 6.964183,11.058111 6.964786,10.880164 6.96469,10.787701 6.792352,10.787701 6.792361,10.77363 6.790354,10.656317 6.78995,10.651464 6.78924,10.625772 6.788435,10.60105 6.786424,10.564009 6.790832,10.496078 6.879203,10.496465 7.109321,10.49355 7.145403,10.493488" style="fill: white" /><polygon type="contour" points="7.326817,11.804885 7.326817,11.832665 7.327287,12.005315 7.327287,12.057394 7.326817,12.167519 7.145404,12.167031 7.085209,12.167341 7.085209,12.33958 7.055515,12.339813 6.948092,12.342489 6.913216,12.343753 6.784172,12.347531 6.790709,12.078149 6.791694,12.047055 6.821247,12.046702 6.854494,12.046203 6.96436,12.046203 6.96467,11.986298 6.964183,11.804885 6.98054,11.804885 7.085506,11.804413 7.145403,11.804413" style="fill: white" />
</svg>
