<svg width="19.131698" height="19.131699">
<polygon type="contour" points="8.342147,8.139631 8.412714,8.140417 8.41436,8.183741 8.414467,8.187846 8.414596,8.236476 8.414596,8.294944 8.414296,8.414298 8.395129,8.414298 8.241762,8.414533 8.142645,8.414533 8.141808,8.337733 8.135914,8.135916" style="fill: white" /><polygon type="contour" points="9.382448,9.187069 9.748899,9.187069 9.945053,9.18665 9.945053,9.251817 9.944633,9.382803 9.944633,9.749254 9.945053,9.945055 9.879885,9.945055 9.748899,9.944635 9.382448,9.944635 9.186648,9.945055 9.186648,9.879887 9.187067,9.749254 9.187067,9.382803 9.186648,9.18665 9.251815,9.18665" style="fill: white" /><polygon type="contour" points="8.9061,9.187133 8.9061,9.244789 8.906237,9.368659 8.906237,9.763371 8.9061,9.944571 8.890077,9.944571 8.794278,9.944621 8.791571,9.944748 8.689872,9.945394 8.689872,9.882165 8.689706,9.756242 8.689706,9.375802 8.689871,9.187195 8.708568,9.187204 8.799024,9.187084" style="fill: white" /><polygon type="contour" points="8.414296,9.25 8.414828,9.377602 8.414828,9.754446 8.414296,9.946149 8.395419,9.945242 8.1745,9.945055 8.142908,9.945055 8.142754,9.905384 8.142022,9.653491 8.145071,9.653486 8.145662,9.653466 8.309343,9.652779 8.310843,9.569811 8.310843,9.566201 8.309358,9.478908 8.149238,9.478239 8.145663,9.478239 8.142022,9.478214 8.14207,9.464851 8.142908,9.18665 8.365147,9.186462 8.414296,9.186455" style="fill: white" /><polygon type="contour" points="8.415439,8.706708 8.415746,8.794445 8.415773,8.802263 8.415497,8.906983 8.398072,8.906102 8.310614,8.906102 8.310766,8.812439 8.31076,8.809861 8.310773,8.809861 8.310688,8.707505 8.310722,8.689874 8.329525,8.689874 8.415439,8.687413" style="fill: white" /><polygon type="contour" points="8.708802,8.689874 8.802584,8.689404 8.906981,8.689828 8.906583,8.791572 8.906441,8.794454 8.906441,8.812438 8.9061,8.906102 8.890077,8.906102 8.792998,8.906514 8.791571,8.906584 8.689826,8.906983 8.689826,8.889757 8.689401,8.801201 8.689872,8.689874" style="fill: white" /><polygon type="contour" points="8.9061,8.310616 8.906981,8.328318 8.906981,8.415499 8.889755,8.415499 8.809849,8.415749 8.800967,8.415776 8.687411,8.415441 8.689872,8.329527 8.689872,8.310724 8.791571,8.310767 8.794443,8.310762 8.794444,8.310796 8.890964,8.310583" style="fill: white" /><polygon type="contour" points="9.477355,8.140599 9.478479,8.184644 9.478718,8.188768 9.478718,8.309696 9.56033,8.31087 9.565501,8.310845 9.570773,8.31087 9.652983,8.309696 9.652983,8.188768 9.654345,8.140599 9.819317,8.142541 9.945348,8.142554 9.945348,8.211885 9.94524,8.365149 9.946147,8.414298 9.881702,8.414298 9.7541,8.41483 9.377257,8.41483 9.186454,8.414298 9.186461,8.395421 9.186461,8.365149 9.186353,8.256848 9.186353,8.142554 9.28744,8.140527" style="fill: white" /><polygon type="contour" points="9.945391,8.689874 9.944499,8.70857 9.944616,8.798867 9.944569,8.890079 9.944569,8.906102 9.886912,8.906102 9.763043,8.906239 9.36833,8.906239 9.187131,8.906102 9.187131,8.890079 9.187083,8.798839 9.187202,8.70857 9.187193,8.689874 9.249537,8.689874 9.375461,8.689707 9.7559,8.689707" style="fill: white" /><polygon type="contour" points="10.319262,8.310766 10.321839,8.310761 10.32184,8.310774 10.424196,8.31069 10.441829,8.310724 10.441829,8.415599 10.422897,8.415599 10.326358,8.415768 10.225551,8.415499 10.225601,8.398074 10.225601,8.310616" style="fill: white" /><polygon type="contour" points="10.989893,8.337733 10.989056,8.414533 10.889937,8.414533 10.73657,8.414298 10.717404,8.414298 10.717404,8.395131 10.717104,8.236476 10.717233,8.23277 10.717233,8.187846 10.718985,8.140417 10.789552,8.13963 10.995786,8.135916" style="fill: white" /><polygon type="contour" points="10.820935,8.791572 10.82094,8.794444 10.820906,8.794445 10.821118,8.890965 10.821086,8.906102 10.803383,8.906152 10.716203,8.906152 10.716203,8.889758 10.715935,8.804004 10.716103,8.689874 10.820978,8.689874" style="fill: white" /><polygon type="contour" points="10.441829,8.689874 10.441892,8.80985 10.442255,8.80985 10.442255,8.812494 10.441875,8.906152 10.340129,8.90645 10.337248,8.906443 10.319263,8.906443 10.225601,8.906102 10.225601,8.89008 10.225223,8.801426 10.225551,8.689828 10.241945,8.689828 10.321851,8.689445 10.330408,8.689403" style="fill: white" /><polygon type="contour" points="10.441829,9.24954 10.441995,9.375802 10.441995,9.756242 10.441829,9.94451 10.423131,9.944501 10.337248,9.944613 10.332646,9.944619 10.225601,9.944571 10.225601,9.886915 10.225464,9.763371 10.225464,9.368659 10.225601,9.187133 10.241623,9.187133 10.337422,9.187082 10.34013,9.186956 10.441829,9.186311" style="fill: white" /><polygon type="contour" points="10.73628,9.186463 10.957199,9.18665 10.988793,9.18665 10.988945,9.226319 10.989679,9.478213 10.986627,9.478218 10.986037,9.478239 10.822357,9.478922 10.820857,9.562499 10.820857,9.566202 10.822342,9.652793 10.982463,9.653466 10.986037,9.653466 10.989679,9.653491 10.98963,9.666853 10.988793,9.945054 10.766552,9.945242 10.717404,9.945249 10.717404,9.881704 10.716871,9.754446 10.716871,9.377602 10.717404,9.185555" style="fill: white" /><polygon type="contour" points="10.989893,10.79397 10.995786,10.995788 10.789552,10.992073 10.718985,10.991286 10.717341,10.947963 10.717233,10.943857 10.717104,10.895227 10.717104,10.836759 10.717404,10.717406 10.73657,10.717406 10.889937,10.717171 10.989056,10.717171" style="fill: white" /><polygon type="contour" points="10.44429,10.716263 10.441829,10.802174 10.441829,10.82098 10.340129,10.820937 10.337257,10.820942 10.337256,10.820908 10.240736,10.82112 10.225601,10.821088 10.224719,10.803385 10.224719,10.716205 10.241945,10.716205 10.321851,10.715955 10.330733,10.715927" style="fill: white" /><polygon type="contour" points="10.733627,10.225602 10.821086,10.225602 10.820935,10.319265 10.82094,10.321843 10.820927,10.321843 10.821011,10.4242 10.820978,10.441831 10.802173,10.441831 10.716261,10.444291 10.716261,10.424995 10.715926,10.329441 10.716203,10.224721" style="fill: white" /><polygon type="contour" points="10.441875,10.241946 10.442255,10.321854 10.442295,10.330415 10.441829,10.441831 10.422897,10.441831 10.337256,10.442257 10.329108,10.442297 10.224719,10.441876 10.225116,10.340133 10.225259,10.337249 10.225259,10.319265 10.225601,10.225602 10.241623,10.225602 10.338702,10.225189 10.340129,10.225119 10.441875,10.224721" style="fill: white" /><polygon type="contour" points="9.944569,10.225602 9.944569,10.241624 9.944616,10.332836 9.944499,10.423133 9.944508,10.441831 9.882164,10.441831 9.755899,10.441997 9.37546,10.441997 9.186309,10.441831 9.187202,10.423133 9.187083,10.332864 9.187131,10.241624 9.187131,10.225602 9.244788,10.225602 9.36833,10.225465 9.763043,10.225465" style="fill: white" /><polygon type="contour" points="9.945247,10.717406 9.94524,10.736282 9.94524,10.766554 9.945348,10.874854 9.945348,10.989151 9.84426,10.991176 9.654345,10.991105 9.653222,10.947059 9.652983,10.942935 9.652983,10.822006 9.570773,10.820833 9.565501,10.820858 9.56033,10.820833 9.478718,10.822006 9.478718,10.942934 9.477355,10.991105 9.312382,10.989162 9.186353,10.989151 9.186353,10.919818 9.186461,10.766554 9.185554,10.717406 9.249998,10.717406 9.377256,10.716873 9.754099,10.716873" style="fill: white" /><polygon type="contour" points="8.90615,10.716205 8.9061,10.733629 8.9061,10.821088 8.812438,10.820937 8.809861,10.820942 8.80986,10.820929 8.707502,10.821013 8.689872,10.82098 8.687411,10.735429 8.687411,10.716263 8.706706,10.716263 8.794445,10.715955 8.80224,10.715927" style="fill: white" /><polygon type="contour" points="8.794452,10.225261 8.812437,10.225261 8.9061,10.225602 8.9061,10.241624 8.906353,10.301322 8.906476,10.330279 8.90615,10.441876 8.889755,10.441876 8.8013,10.442297 8.689872,10.441831 8.689808,10.321855 8.689443,10.321855 8.689443,10.319211 8.689826,10.225552 8.791571,10.225254" style="fill: white" /><polygon type="contour" points="8.415497,10.241946 8.415773,10.330739 8.415439,10.444291 8.396272,10.444291 8.310722,10.441831 8.310766,10.340132 8.310761,10.33726 8.310795,10.337259 8.31058,10.240737 8.310613,10.225602 8.328316,10.225552 8.415497,10.225552" style="fill: white" /><polygon type="contour" points="8.395129,10.717406 8.414296,10.717406 8.414296,10.736572 8.414596,10.895227 8.414467,10.898932 8.414467,10.943857 8.412714,10.991286 8.342147,10.992073 8.135914,10.995788 8.141808,10.79397 8.142645,10.717171 8.241762,10.717171" style="fill: white" />
</svg>
