<svg width="19.131698" height="19.131699">
<polygon type="contour" points="11.77143,13.419211 11.77143,13.511463 11.771448,13.546556 11.766894,13.543033 11.76992,13.722284 11.487419,13.72156 11.473969,13.721636 11.476783,13.527671 11.474655,13.418336 11.640009,13.418143" style="fill: white" /><polygon type="contour" points="11.771534,13.129084 11.771542,13.20007 11.686469,13.20007 11.475376,13.2 11.474955,13.120561 11.474899,12.985477 11.591785,12.985477 11.771534,12.985282" style="fill: white" /><polygon type="contour" points="12.251045,12.985477 12.251045,13.067593 12.251261,13.200131 12.053606,13.200181 11.956222,13.20007 11.956108,13.129084 11.956108,12.985282 12.053606,12.985282" style="fill: white" /><polygon type="contour" points="12.251261,13.418618 12.251261,13.466307 12.251045,13.546007 12.160858,13.546423 12.080998,13.546019 11.956411,13.545837 11.956413,13.543905 11.955943,13.418576 12.053605,13.418361" style="fill: white" /><polygon type="contour" points="13.723064,13.460303 13.732868,13.73287 13.650723,13.732152 13.419641,13.722906 13.419641,13.419642 13.722904,13.419642" style="fill: white" /><polygon type="contour" points="13.052324,13.418763 13.199998,13.418763 13.199998,13.546338 13.054947,13.546251 12.985476,13.546007 12.985476,13.496791 12.985228,13.418618" style="fill: white" /><polygon type="contour" points="13.199998,13.052328 13.199998,13.199999 13.12056,13.200131 12.985228,13.200131 12.985228,13.120562 12.985476,12.985477 13.067591,12.985477 13.20013,12.985231" style="fill: white" /><polygon type="contour" points="13.546006,12.985476 13.546249,13.054948 13.546336,13.2 13.418761,13.2 13.418618,13.120562 13.418618,12.985231 13.466306,12.985231" style="fill: white" /><polygon type="contour" points="13.721845,11.473782 13.721755,11.489703 13.722283,11.76992 13.678815,11.770127 13.634828,11.770077 13.580827,11.769593 13.545113,11.767028 13.41921,11.771431 13.418142,11.640012 13.418335,11.474657 13.487429,11.476949 13.539405,11.48004 13.70709,11.473561" style="fill: white" /><polygon type="contour" points="13.546334,11.964349 13.5462,11.984098 13.54688,12.061673 13.546421,12.160861 13.546006,12.251048 13.496792,12.251048 13.418618,12.251263 13.41836,12.053607 13.418574,11.956134 13.51164,11.953643 13.546404,11.953637" style="fill: white" /><polygon type="contour" points="13.200068,11.956222 13.200181,12.053607 13.20013,12.251263 13.120561,12.251263 12.985476,12.251048 12.985476,12.138441 12.985279,11.95611 13.129082,11.95611" style="fill: white" /><polygon type="contour" points="13.054946,11.475331 13.199998,11.475378 13.199998,11.571511 13.200068,11.771543 13.129082,11.771535 12.985279,11.771535 12.985279,11.670332 12.985476,11.474901" style="fill: white" /><polygon type="contour" points="11.77161,11.65619 11.771448,11.732593 11.771448,11.771449 11.656189,11.771612 11.474243,11.771612 11.477485,11.714917 11.484732,11.484733 11.714914,11.477487 11.77161,11.474246" style="fill: white" /><polygon type="contour" points="11.771534,12.053606 11.771534,12.251278 11.67033,12.251278 11.474899,12.251048 11.475554,12.16086 11.475052,11.956164 11.77149,11.956164" style="fill: white" /><polygon type="contour" points="12.251277,12.053607 12.251045,12.251048 12.138439,12.251048 11.956108,12.251278 11.956162,12.17448 11.956162,11.956164 12.053606,11.95611 12.251277,11.95611" style="fill: white" /><polygon type="contour" points="12.251045,11.591786 12.251277,11.771535 12.174479,11.77149 11.956162,11.77149 11.956162,11.475054 12.160858,11.475556 12.251045,11.474901" style="fill: white" /><polygon type="contour" points="11.771534,6.002617 11.771534,6.146423 11.670331,6.146423 11.474899,6.146226 11.474955,6.011142 11.475376,5.931704 11.571508,5.931704 11.771542,5.931632" style="fill: white" /><polygon type="contour" points="11.768042,5.530182 11.768357,5.586316 11.771631,5.586119 11.771626,5.587214 11.77143,5.712492 11.640009,5.713561 11.474654,5.713368 11.473515,5.440814 11.473781,5.409858 11.4897,5.409949 11.76992,5.409419" style="fill: white" /><polygon type="contour" points="12.160858,5.58528 12.251045,5.585696 12.251045,5.634911 12.251261,5.713086 12.053606,5.713343 11.955943,5.713129 11.955943,5.620832 11.956162,5.585619 11.984095,5.585499 12.061671,5.584821" style="fill: white" /><polygon type="contour" points="12.251261,5.931573 12.251261,6.011141 12.251045,6.146226 12.138438,6.146226 11.956108,6.146423 11.956108,6.002617 11.956222,5.931632 12.053606,5.931521" style="fill: white" /><polygon type="contour" points="13.052324,5.931704 13.199998,5.931704 13.20013,6.011141 13.20013,6.146473 13.12056,6.146473 12.985476,6.146226 12.985476,6.06411 12.985228,5.931573" style="fill: white" /><polygon type="contour" points="13.199998,5.712941 13.12056,5.713086 12.985228,5.713086 12.985228,5.665397 12.985476,5.585695 13.054946,5.585452 13.199998,5.585364" style="fill: white" /><polygon type="contour" points="13.723065,5.6714 13.722908,5.712189 13.58286,5.712189 13.526848,5.712062 13.419641,5.712062 13.419641,5.456179 13.419604,5.408836 13.455528,5.408377 13.460303,5.408636 13.732869,5.398833" style="fill: white" /><polygon type="contour" points="13.546249,6.076755 13.546006,6.146226 13.496791,6.146226 13.418618,6.146473 13.418762,6.079376 13.418762,5.931704 13.546336,5.931704" style="fill: white" /><polygon type="contour" points="13.546006,6.880654 13.54605,7.08154 13.546404,7.178067 13.51164,7.178247 13.418574,7.175759 13.41836,7.078095 13.418618,6.880439 13.466306,6.880439" style="fill: white" /><polygon type="contour" points="13.200181,7.078095 13.200068,7.175481 13.129081,7.175594 12.985279,7.175594 12.985279,7.078096 12.985476,6.880655 13.067592,6.880655 13.20013,6.880439" style="fill: white" /><polygon type="contour" points="13.545576,7.360168 13.634827,7.361626 13.678815,7.361576 13.722283,7.361782 13.721558,7.644279 13.721634,7.657731 13.527669,7.654917 13.418335,7.657045 13.418142,7.49169 13.41921,7.360272 13.484083,7.360069 13.545581,7.360067" style="fill: white" /><polygon type="contour" points="13.200068,7.445232 13.199998,7.656327 13.12056,7.656747 12.985476,7.656803 12.985476,7.539916 12.985279,7.360169 13.129081,7.360168 13.200068,7.360161" style="fill: white" /><polygon type="contour" points="12.251277,7.461371 12.251045,7.656803 12.160858,7.656148 11.956162,7.656648 11.956162,7.360213 12.053606,7.360168 12.251277,7.360168" style="fill: white" /><polygon type="contour" points="12.251045,6.880655 12.251045,6.99326 12.251277,7.175594 12.174479,7.17554 11.956162,7.17554 11.956108,7.078095 11.956108,6.880425 12.053606,6.880425" style="fill: white" /><polygon type="contour" points="11.77149,6.957222 11.77149,7.17554 11.475052,7.17554 11.475554,6.97084 11.474899,6.880655 11.591785,6.880655 11.771534,6.880425" style="fill: white" /><polygon type="contour" points="11.732591,7.360255 11.771448,7.360255 11.77161,7.475512 11.77161,7.657456 11.714914,7.654213 11.484732,7.64697 11.477484,7.416786 11.474243,7.360092 11.656189,7.360092" style="fill: white" /><polygon type="contour" points="7.654212,7.416785 7.646968,7.64697 7.416785,7.654213 7.36009,7.657456 7.36009,7.475512 7.360252,7.399109 7.360252,7.360255 7.47551,7.360092 7.657455,7.360092" style="fill: white" /><polygon type="contour" points="6.95722,7.360213 7.175537,7.360213 7.175537,7.656648 6.970838,7.656148 6.880653,7.656803 6.880653,7.539917 6.880423,7.360168" style="fill: white" /><polygon type="contour" points="7.175537,6.957222 7.175537,7.17554 7.078093,7.175594 6.880423,7.175594 6.880423,7.078095 6.880653,6.880655 6.993258,6.880655 7.175592,6.880425" style="fill: white" /><polygon type="contour" points="7.656801,6.880655 7.656145,6.97084 7.656647,7.17554 7.36021,7.17554 7.360166,7.078096 7.360166,6.880425 7.461369,6.880425" style="fill: white" /><polygon type="contour" points="7.644276,5.410144 7.657728,5.410067 7.657915,5.422521 7.651661,5.592295 7.654753,5.644272 7.657044,5.713368 7.491687,5.713561 7.360269,5.712493 7.360382,5.619475 7.360387,5.584774 7.364732,5.584332 7.361779,5.409419" style="fill: white" /><polygon type="contour" points="7.656325,5.931704 7.656746,6.011142 7.656801,6.146226 7.539914,6.146226 7.360166,6.146423 7.360166,6.002617 7.360158,5.931632 7.44523,5.931632" style="fill: white" /><polygon type="contour" points="7.175478,5.931632 7.175592,6.002618 7.175592,6.146423 7.078093,6.146423 6.880653,6.146226 6.880653,6.06411 6.880437,5.931573 7.078093,5.931521" style="fill: white" /><polygon type="contour" points="7.050699,5.585685 7.175288,5.585865 7.175286,5.587796 7.175757,5.713128 7.078093,5.713342 6.880437,5.713086 6.880437,5.665397 6.880653,5.585696 6.970838,5.58528" style="fill: white" /><polygon type="contour" points="5.480974,5.399552 5.712059,5.408799 5.712036,5.483604 5.712036,5.712039 5.483603,5.712039 5.456178,5.712062 5.408797,5.712062 5.408635,5.6714 5.398831,5.398833" style="fill: white" /><polygon type="contour" points="5.713083,6.011141 5.713083,6.146473 5.665393,6.146473 5.585693,6.146226 5.585604,6.011141 5.585361,5.931704 5.712938,5.931704" style="fill: white" /><polygon type="contour" points="6.076754,5.585452 6.146224,5.585695 6.146224,5.63491 6.146472,5.713086 6.079375,5.712941 5.931702,5.712941 5.931702,5.585364" style="fill: white" /><polygon type="contour" points="6.146472,6.011141 6.146224,6.146226 6.064109,6.146226 5.93157,6.146473 5.931702,6.079375 5.931702,5.931704 6.011139,5.931573 6.146472,5.931573" style="fill: white" /><polygon type="contour" points="6.146224,6.880655 6.146224,6.993261 6.146421,7.175594 6.002615,7.175594 5.931631,7.175481 5.931517,7.078095 5.93157,6.880439 6.011138,6.880439" style="fill: white" /><polygon type="contour" points="5.713339,7.078095 5.713125,7.175759 5.620059,7.178247 5.585296,7.178067 5.585365,7.167354 5.585498,7.147605 5.584819,7.07003 5.585278,6.97084 5.585693,6.880655 5.634908,6.880655 5.713083,6.880439" style="fill: white" /><polygon type="contour" points="6.002616,7.360168 6.146421,7.360168 6.146421,7.461371 6.146224,7.656803 6.011139,7.656747 5.931702,7.656327 5.931702,7.560193 5.931631,7.360161" style="fill: white" /><polygon type="contour" points="5.713558,7.49169 5.713365,7.657045 5.440813,7.658186 5.409857,7.65792 5.409947,7.641999 5.409418,7.361782 5.452885,7.361576 5.496872,7.361626 5.550005,7.362101 5.586587,7.364676 5.712489,7.360272" style="fill: white" /><polygon type="contour" points="5.620059,11.953643 5.713126,11.956134 5.71334,12.053607 5.713082,12.251263 5.665393,12.251263 5.585693,12.251048 5.585649,12.050162 5.585296,11.953637" style="fill: white" /><polygon type="contour" points="5.592294,11.480039 5.644269,11.476949 5.713365,11.474657 5.713558,11.640012 5.71249,11.771431 5.647615,11.771635 5.586116,11.771633 5.586122,11.771532 5.496871,11.770077 5.452885,11.770127 5.409418,11.769921 5.410142,11.48742 5.410065,11.473971 5.422519,11.473784" style="fill: white" /><polygon type="contour" points="6.146224,11.591787 6.146421,11.771535 6.002615,11.771535 5.931631,11.771543 5.931631,11.68647 5.931702,11.475378 6.011138,11.474957 6.146224,11.474901" style="fill: white" /><polygon type="contour" points="6.146421,12.053607 6.146224,12.251047 6.064108,12.251047 5.93157,12.251263 5.931517,12.053607 5.931631,11.956222 6.002616,11.95611 6.146421,11.95611" style="fill: white" /><polygon type="contour" points="6.95722,11.956164 7.175537,11.956164 7.175592,12.053606 7.175592,12.251278 7.078093,12.251278 6.880653,12.251048 6.880653,12.138442 6.880423,11.95611" style="fill: white" /><polygon type="contour" points="6.970838,11.475555 7.175537,11.475054 7.175537,11.77149 7.078093,11.771535 6.880423,11.771535 6.880423,11.670331 6.880652,11.474901" style="fill: white" /><polygon type="contour" points="7.416785,11.477487 7.646968,11.484733 7.654212,11.714918 7.657455,11.771612 7.47551,11.771612 7.399107,11.771449 7.360252,11.771449 7.36009,11.656191 7.36009,11.474246" style="fill: white" /><polygon type="contour" points="7.656145,12.160861 7.656801,12.251048 7.539915,12.251048 7.360166,12.251278 7.36021,12.17448 7.36021,11.956164 7.656647,11.956164" style="fill: white" /><polygon type="contour" points="7.657044,13.418336 7.654753,13.487431 7.651661,13.539407 7.658142,13.707091 7.657919,13.721847 7.641997,13.721756 7.361779,13.722284 7.363658,13.601518 7.363156,13.599216 7.365013,13.545328 7.360066,13.545584 7.360072,13.544488 7.360269,13.419211 7.491687,13.418143" style="fill: white" /><polygon type="contour" points="7.656801,12.985477 7.65637,13.054947 7.656325,13.2 7.560191,13.2 7.360158,13.20007 7.360166,13.129084 7.360166,12.985282 7.461369,12.985282" style="fill: white" /><polygon type="contour" points="7.175592,13.129083 7.175479,13.20007 7.078094,13.200182 6.880437,13.200131 6.880437,13.120562 6.880653,12.985477 6.993259,12.985477 7.175592,12.985282" style="fill: white" /><polygon type="contour" points="7.175757,13.418576 7.175757,13.510869 7.175537,13.546083 7.147605,13.546202 7.070028,13.546882 6.970838,13.546422 6.880653,13.546007 6.880653,13.496793 6.880437,13.418619 7.078094,13.418361" style="fill: white" /><polygon type="contour" points="6.146472,13.466307 6.146224,13.546007 6.011139,13.546095 5.931702,13.546338 5.931702,13.418763 6.011138,13.418619 6.146472,13.418619" style="fill: white" /><polygon type="contour" points="6.146224,12.985477 6.146224,13.067593 6.146472,13.200131 6.079375,13.2 5.931702,13.2 5.93157,13.120561 5.93157,12.985231 6.011138,12.985231" style="fill: white" /><polygon type="contour" points="5.712938,13.052327 5.712938,13.2 5.585361,13.2 5.58545,13.054947 5.585693,12.985477 5.634908,12.985477 5.713083,12.985231" style="fill: white" /><polygon type="contour" points="5.604849,13.419642 5.712059,13.419642 5.712059,13.722906 5.676171,13.723327 5.671396,13.723067 5.398831,13.73287 5.408635,13.460303 5.408792,13.419515 5.548837,13.419515" style="fill: white" />
</svg>
