<svg width="19.131698" height="19.131699">
<polygon type="contour" points="7.717981,7.712949 7.742832,7.71296 7.866588,7.713173 7.994686,7.713214 7.994737,7.724007 7.994815,7.747169 7.994752,7.786138 7.99485,7.881265 8.09058,7.880879 8.09072,7.948584 8.09072,8.027435 8.09058,8.085303 8.09058,8.090583 8.027432,8.090722 7.948581,8.090722 7.886436,8.090583 7.880877,8.090583 7.880876,8.086077 7.881274,7.994816 7.747166,7.994816 7.726543,7.994684 7.713068,7.99458 7.713171,7.866589 7.712946,7.717722 7.712841,7.715912 7.712764,7.712767" style="fill: white" /><polygon type="contour" points="8.085301,8.676482 8.09058,8.676482 8.09083,8.752217 8.090616,8.965984 8.090616,9.083047 8.09058,9.160464 8.09058,9.166059 8.027433,9.16632 7.948581,9.16632 7.886324,9.166073 7.880881,9.166073 7.880933,9.060604 7.734466,9.060604 7.712908,9.060542 7.712892,9.045037 7.713175,8.767461 7.730125,8.767495 7.881205,8.767495 7.880877,8.676482 7.948581,8.676195 8.027432,8.676195" style="fill: white" /><polygon type="contour" points="9.083045,8.676611 9.160463,8.676482 9.166057,8.676482 9.166166,8.752218 9.166317,8.965983 9.166317,9.083046 9.166037,9.160597 9.166037,9.166073 9.083044,9.166319 8.965981,9.166319 8.752216,9.166168 8.681124,9.166072 8.67648,9.166059 8.676609,9.083047 8.676253,8.84445 8.676253,8.752218 8.67648,8.681236 8.67648,8.676482 8.752215,8.676255 8.844448,8.676255" style="fill: white" /><polygon type="contour" points="9.060704,7.794128 9.060704,7.880935 9.166037,7.880883 9.166318,7.948584 9.166318,8.027434 9.166037,8.085409 9.166057,8.090583 9.083044,8.090619 8.965982,8.090619 8.752215,8.090832 8.681234,8.090583 8.676479,8.090583 8.676193,8.027435 8.676193,7.948583 8.67648,7.886438 8.67648,7.880879 8.680608,7.880896 8.767493,7.881206 8.767493,7.730127 8.767372,7.713173 8.838653,7.712807 9.059457,7.711448" style="fill: white" /><polygon type="contour" points="10.293046,7.712806 10.364242,7.713177 10.364208,7.730127 10.364208,7.881207 10.45522,7.880879 10.455507,7.948583 10.455507,8.027435 10.45522,8.085303 10.45522,8.090583 10.379485,8.090833 10.165718,8.090619 10.048655,8.090619 9.971234,8.090583 9.965642,8.090583 9.965381,8.027434 9.965381,7.948584 9.965627,7.886325 9.965627,7.880883 10.071132,7.880935 10.070995,7.794128 10.072244,7.711448" style="fill: white" /><polygon type="contour" points="11.418753,7.718029 11.41853,7.866589 11.418641,7.994572 11.407693,7.994739 11.384534,7.994816 11.250437,7.994816 11.250823,8.090583 11.183117,8.090722 11.104267,8.090722 11.046398,8.090583 11.041119,8.090583 11.040981,8.027435 11.040981,7.948583 11.04112,7.886438 11.04112,7.880879 11.045625,7.880878 11.136849,7.881276 11.136949,7.786137 11.136885,7.747169 11.136962,7.724007 11.137013,7.713214 11.265112,7.713173 11.388867,7.71296 11.413718,7.712949 11.418935,7.712767" style="fill: white" /><polygon type="contour" points="11.245263,8.676482 11.250823,8.676482 11.250806,8.680609 11.250494,8.767495 11.401574,8.767495 11.418526,8.767461 11.418808,9.045037 11.418792,9.060542 11.412951,9.060533 11.397233,9.060604 11.250765,9.060604 11.250819,9.166073 11.183117,9.16632 11.104266,9.16632 11.046293,9.166073 11.041119,9.166059 11.041085,9.083047 11.041085,8.965983 11.040867,8.752218 11.04112,8.681236 11.04112,8.676482 11.104267,8.676195 11.183118,8.676195" style="fill: white" /><polygon type="contour" points="10.450466,8.676482 10.45522,8.676482 10.455447,8.752217 10.455447,8.84445 10.455091,9.083047 10.45522,9.160465 10.45522,9.166059 10.379484,9.166168 10.165719,9.166319 10.048655,9.166319 9.971103,9.166073 9.965627,9.166073 9.965382,9.083047 9.965382,8.965983 9.965532,8.752218 9.965627,8.681127 9.965642,8.676482 10.048654,8.676611 10.287251,8.676255 10.379484,8.676255" style="fill: white" /><polygon type="contour" points="10.450466,11.041121 10.45522,11.041121 10.455507,11.104268 10.455507,11.18312 10.45522,11.245265 10.45522,11.250825 10.451091,11.250806 10.364208,11.250495 10.364208,11.401576 10.364329,11.418532 10.293047,11.418896 10.072244,11.420256 10.070995,11.337575 10.070995,11.250766 9.965626,11.25082 9.965381,11.18312 9.965381,11.104269 9.965627,11.046293 9.965642,11.041121 10.048655,11.041085 10.165718,11.041085 10.379484,11.040868" style="fill: white" /><polygon type="contour" points="11.245263,11.041121 11.250823,11.041121 11.250825,11.045626 11.250426,11.136888 11.384534,11.136888 11.405157,11.137019 11.418632,11.137124 11.41853,11.265114 11.418754,11.413981 11.41886,11.415791 11.418935,11.418937 11.413718,11.418756 11.388867,11.418744 11.265113,11.418532 11.137013,11.41849 11.136961,11.407696 11.136885,11.384536 11.136949,11.345565 11.136849,11.250439 11.04112,11.250825 11.040981,11.183119 11.040981,11.104268 11.04112,11.0464 11.04112,11.041121 11.104267,11.040982 11.183118,11.040982" style="fill: white" /><polygon type="contour" points="11.245377,9.965663 11.250819,9.965663 11.250765,10.0711 11.397232,10.0711 11.418792,10.071163 11.418515,10.350565 11.418525,10.364244 11.414147,10.364227 11.401574,10.364209 11.250493,10.364209 11.250823,10.455222 11.183118,10.455509 11.104267,10.455509 11.046398,10.455222 11.04112,10.455222 11.040867,10.379486 11.041085,10.165721 11.041085,10.048656 11.04112,9.971237 11.04112,9.965644 11.104266,9.965383 11.183117,9.965383" style="fill: white" /><polygon type="contour" points="10.379485,9.965535 10.450574,9.965663 10.45522,9.965644 10.455091,10.048656 10.455447,10.287253 10.455447,10.379486 10.45522,10.450467 10.45522,10.455221 10.379484,10.455449 10.287251,10.455449 10.048654,10.455093 9.971235,10.455222 9.965642,10.455222 9.965533,10.379486 9.965382,10.16572 9.965382,10.048657 9.965627,9.971105 9.965627,9.965662 10.048654,9.965384 10.165719,9.965384" style="fill: white" /><polygon type="contour" points="9.160595,9.965663 9.166037,9.965663 9.166317,10.048657 9.166317,10.16572 9.166166,10.379486 9.166037,10.450577 9.166057,10.455222 9.083045,10.455093 8.844448,10.455449 8.752216,10.455449 8.681234,10.455222 8.67648,10.455222 8.676253,10.379486 8.676253,10.287253 8.676609,10.048656 8.67648,9.971237 8.67648,9.965644 8.752216,9.965534 8.965981,9.965384 9.083044,9.965384" style="fill: white" /><polygon type="contour" points="8.085406,9.965663 8.090579,9.965644 8.090616,10.048656 8.090616,10.16572 8.090829,10.379487 8.09058,10.450466 8.09058,10.455222 8.027432,10.455509 7.948581,10.455509 7.886436,10.455222 7.880877,10.455222 7.880894,10.451093 7.881204,10.364209 7.730125,10.364209 7.713175,10.364244 7.712892,10.086667 7.712908,10.071163 7.718748,10.071172 7.734467,10.0711 7.880933,10.0711 7.880881,9.965663 7.948581,9.965383 8.027433,9.965383" style="fill: white" /><polygon type="contour" points="8.085301,11.041121 8.09058,11.041121 8.09072,11.104269 8.09072,11.18312 8.09058,11.245265 8.09058,11.250825 8.086074,11.250826 7.99485,11.250429 7.994751,11.345566 7.994815,11.384536 7.994738,11.407696 7.994686,11.41849 7.866587,11.418532 7.742832,11.418744 7.717982,11.418756 7.712765,11.418937 7.712947,11.413679 7.713171,11.265114 7.713059,11.137132 7.724005,11.136965 7.747167,11.136888 7.881263,11.136888 7.880877,11.041121 7.948582,11.040982 8.027432,11.040982" style="fill: white" /><polygon type="contour" points="8.965982,11.041085 9.083045,11.041085 9.160462,11.041121 9.166057,11.041121 9.166318,11.104269 9.166318,11.183119 9.166037,11.245378 9.166037,11.25082 9.060568,11.250766 9.060704,11.337575 9.059457,11.420256 8.838653,11.418896 8.767459,11.418528 8.767493,11.401576 8.767493,11.250494 8.67648,11.250825 8.676193,11.18312 8.676193,11.104268 8.67648,11.0464 8.67648,11.041121 8.752215,11.040869" style="fill: white" />
</svg>
