<svg width="19.131698" height="19.131699">
<polygon type="contour" points="16.987478,14.24558 16.987129,14.361259 16.987137,14.382976 16.987124,14.493663 17.036944,14.494548 17.082514,14.494616 17.082514,14.631776 17.082054,14.827356 17.036948,14.827195 16.989037,14.827403 16.953674,14.827147 16.938779,14.827422 16.89221,14.827614 16.83103,14.827614 16.749474,14.827277 16.749232,14.271678 16.749248,14.222028 16.943667,14.22162 16.987424,14.219404" style="fill: white" /><polygon type="contour" points="14.276972,16.749161 14.827274,16.749475 14.827274,16.807152 14.827612,16.892213 14.827418,16.938782 14.827146,16.953676 14.8274,16.989039 14.827194,16.991674 14.827194,17.036949 14.827338,17.039145 14.827354,17.082056 14.631775,17.082516 14.494615,17.082516 14.49444,16.987125 14.264673,16.987274 14.239872,16.987258 14.244631,16.931854 14.232779,16.749066" style="fill: white" /><polygon type="contour" points="16.032355,16.749247 16.107327,16.749247 16.107327,16.89205 16.044734,16.891921 15.755681,16.891731 15.562862,16.891842 15.537777,16.891912 15.537744,16.869657 15.537744,16.749135 15.568316,16.749135 15.754853,16.74894" style="fill: white" /><polygon type="contour" points="17.082054,16.748854 17.08196,16.84382 17.082418,17.048544 17.082418,17.08242 16.935339,17.082574 16.934467,17.082424 16.74879,17.081992 16.749024,17.03695 16.749024,16.991675 16.748959,16.990146 16.74899,16.955565 16.74901,16.940834 16.749246,16.892049 16.749246,16.749249 16.892047,16.749249 16.940831,16.749012 16.955564,16.748992 16.990143,16.748961 17.036948,16.749027 17.039144,16.748839" style="fill: white" /><polygon type="contour" points="16.769549,15.537778 16.89191,15.537778 16.89184,15.562863 16.891729,15.755682 16.891919,16.044736 16.892048,16.107329 16.749245,16.107329 16.749245,16.032356 16.748937,15.753645 16.749131,15.537745" style="fill: white" /><polygon type="contour" points="16.107512,15.537745 16.107535,15.727316 16.107535,15.785467 16.107327,16.107328 15.826876,16.107515 15.785467,16.107535 15.727315,16.107535 15.537744,16.107515 15.537466,15.785467 15.537471,15.775044 15.537471,15.727896 15.537777,15.537778 15.565731,15.537778 15.73345,15.537472 15.73345,15.537491 15.785466,15.537467" style="fill: white" /><polygon type="contour" points="14.827613,15.537778 14.827613,15.565732 14.827415,15.775043 14.827455,15.775043 14.827437,15.785467 14.827588,16.107329 14.388445,16.107572 14.233818,16.107572 14.239992,15.853257 14.244997,15.759959 14.242214,15.684467 14.235705,15.537766 14.443608,15.537766" style="fill: white" /><polygon type="contour" points="14.827395,14.279356 14.827612,14.827614 14.27281,14.827758 14.225277,14.827642 14.241289,14.452732 14.244928,14.372723 14.256731,14.372147 14.321194,14.368445 14.362216,14.362221 14.368444,14.321197 14.372144,14.256732 14.372721,14.244931 14.542119,14.24299 14.827525,14.238046" style="fill: white" /><polygon type="contour" points="15.668787,14.240587 15.765483,14.245728 15.902399,14.245007 16.106954,14.239053 16.106758,14.388231 16.107327,14.827591 16.038105,14.827721 15.754969,14.827436 15.565731,14.827614 15.537777,14.827614 15.537764,14.443611 15.537764,14.235708" style="fill: white" /><polygon type="contour" points="14.827588,3.024375 14.827719,3.093598 14.827455,3.35666 14.827455,3.403806 14.827613,3.593925 14.443609,3.593938 14.235705,3.593938 14.240584,3.462914 14.244824,3.383149 14.242214,3.273389 14.233819,3.024132 14.388446,3.024132" style="fill: white" /><polygon type="contour" points="14.827354,2.049648 14.827194,2.094752 14.827399,2.142664 14.827146,2.178027 14.827418,2.19292 14.827612,2.23949 14.827612,2.300668 14.827274,2.382226 14.276971,2.382544 14.232779,2.382638 14.244631,2.199848 14.239853,2.144435 14.264673,2.144428 14.493661,2.144574 14.494547,2.094758 14.494615,2.049188 14.631775,2.049188" style="fill: white" /><polygon type="contour" points="17.082418,2.049284 17.082418,2.08316 17.08196,2.287884 17.082054,2.382849 17.036948,2.382677 16.991672,2.382677 16.990144,2.382743 16.955563,2.382712 16.940832,2.382691 16.892047,2.382454 16.749249,2.382454 16.749249,2.327153 16.749246,2.239653 16.749011,2.190871 16.74899,2.176138 16.748959,2.141557 16.749025,2.094752 16.748838,2.092558 16.74879,2.049711 16.934468,2.04928 16.93534,2.04913" style="fill: white" /><polygon type="contour" points="16.107328,2.271853 16.107328,2.382454 16.032353,2.382454 15.754962,2.382763 15.568316,2.382569 15.537744,2.382569 15.537777,2.36215 15.537777,2.239788 15.562861,2.239858 15.75531,2.239972 16.044735,2.239783 16.107327,2.239654" style="fill: white" /><polygon type="contour" points="16.107328,3.024375 16.107327,3.099348 16.10754,3.362894 16.107512,3.593848 15.785466,3.594215 15.751585,3.59427 15.537777,3.593925 15.537777,3.565969 15.537471,3.398253 15.53749,3.398252 15.537466,3.346235 15.537744,3.024189 15.568316,3.024189 15.733465,3.024166 15.785466,3.024166" style="fill: white" /><polygon type="contour" points="16.891919,3.086967 16.89172,3.389584 16.891756,3.403807 16.89191,3.593925 16.869656,3.593848 16.749131,3.593848 16.749131,3.563383 16.748938,3.376728 16.749244,3.099348 16.749246,3.024375 16.892048,3.024375" style="fill: white" /><polygon type="contour" points="16.938779,4.304282 16.953674,4.304556 16.989038,4.304302 16.991671,4.30451 17.036948,4.30451 17.039144,4.304363 17.082054,4.304349 17.082514,4.499927 17.082514,4.637087 16.987121,4.637263 16.987494,4.86635 16.987481,4.89228 16.951586,4.888193 16.749248,4.909677 16.749232,4.860026 16.749474,4.304427 16.807147,4.304427 16.89221,4.30409" style="fill: white" /><polygon type="contour" points="16.107327,4.304112 16.106758,4.743472 16.106954,4.892651 15.9024,4.886698 15.850299,4.887377 15.777239,4.886067 15.684465,4.889488 15.537764,4.895997 15.537764,4.688092 15.537777,4.30409 15.565732,4.30409 15.755036,4.304266 16.038105,4.303982" style="fill: white" /><polygon type="contour" points="14.827612,4.30409 14.827395,4.852345 14.827525,4.893656 14.542119,4.888711 14.372721,4.886772 14.372144,4.874969 14.368445,4.810507 14.362217,4.769481 14.321194,4.763257 14.244939,4.759006 14.240864,4.663616 14.225277,4.304062 14.272811,4.303947" style="fill: white" /><polygon type="contour" points="4.906425,4.304062 4.89041,4.678971 4.886769,4.75898 4.874968,4.759556 4.810506,4.763257 4.769476,4.769482 4.763255,4.810508 4.759554,4.874968 4.758977,4.886772 4.589579,4.888711 4.304174,4.893656 4.304303,4.852346 4.304087,4.30409 4.85889,4.303947" style="fill: white" /><polygon type="contour" points="4.891707,3.278445 4.886703,3.371728 4.889486,3.447237 4.895995,3.593938 4.68809,3.593938 4.304088,3.593925 4.304088,3.565968 4.304282,3.35666 4.304244,3.356659 4.304261,3.346236 4.30411,3.024375 4.743254,3.024132 4.897882,3.024132" style="fill: white" /><polygon type="contour" points="4.637261,2.144575 4.748723,2.144561 4.770444,2.14457 4.886124,2.144222 4.9123,2.144277 4.903165,2.351606 4.898921,2.382638 4.854727,2.382544 4.304426,2.382226 4.304426,2.32455 4.304088,2.23949 4.304281,2.19292 4.304554,2.178027 4.304301,2.142664 4.304507,2.14003 4.304507,2.094752 4.304361,2.092557 4.304347,2.049648 4.499925,2.049188 4.637085,2.049188" style="fill: white" /><polygon type="contour" points="2.382452,3.099347 2.382739,3.356666 2.382739,3.356667 2.382762,3.377999 2.382568,3.593848 2.362147,3.593925 2.239787,3.593925 2.239857,3.568839 2.239971,3.376493 2.239782,3.086966 2.239653,3.024375 2.271851,3.024375 2.382452,3.024374" style="fill: white" /><polygon type="contour" points="2.197233,2.049279 2.382911,2.049711 2.382676,2.094753 2.382676,2.14003 2.382741,2.141557 2.382711,2.176137 2.38269,2.19087 2.382452,2.239654 2.382452,2.382454 2.239653,2.382454 2.190869,2.382691 2.176135,2.382712 2.141556,2.382743 2.094752,2.382677 2.092556,2.382864 2.049646,2.382849 2.04974,2.287884 2.049282,2.08316 2.049282,2.049284 2.19636,2.04913" style="fill: white" /><polygon type="contour" points="3.086964,2.239783 3.37639,2.239972 3.568837,2.239858 3.593923,2.239789 3.593847,2.262042 3.593847,2.382569 3.563383,2.382569 3.376738,2.382763 3.099346,2.382454 3.024373,2.382454 3.024373,2.239654" style="fill: white" /><polygon type="contour" points="3.593847,3.024189 3.594214,3.346235 3.59423,3.356659 3.594267,3.380831 3.593923,3.593925 3.565967,3.593925 3.378653,3.594267 3.346234,3.594215 3.024187,3.593848 3.024165,3.404364 3.024165,3.346235 3.024373,3.024375 3.304822,3.024188 3.346233,3.024166 3.404363,3.024166" style="fill: white" /><polygon type="contour" points="3.376664,4.304266 3.565967,4.30409 3.593923,4.30409 3.593936,4.688092 3.593936,4.895997 3.462913,4.891118 3.366216,4.885976 3.229299,4.886698 3.024745,4.892651 3.024942,4.743472 3.024373,4.304112 3.093596,4.303982" style="fill: white" /><polygon type="contour" points="2.382224,4.304427 2.38247,4.860026 2.382455,4.909677 2.180115,4.888192 2.144218,4.892279 2.144207,4.866351 2.144571,4.63804 2.094756,4.637155 2.049186,4.637087 2.049186,4.499927 2.049646,4.304349 2.094751,4.30451 2.142662,4.304302 2.178026,4.304556 2.192919,4.304283 2.239489,4.30409 2.300667,4.30409" style="fill: white" /><polygon type="contour" points="2.349112,14.219855 2.382455,14.222028 2.38247,14.271678 2.382224,14.827277 2.324549,14.827277 2.239489,14.827615 2.192919,14.827421 2.178026,14.827147 2.142663,14.827403 2.140029,14.827195 2.094751,14.827195 2.092555,14.82734 2.049646,14.827356 2.049186,14.631776 2.049186,14.494616 2.144573,14.494439 2.144559,14.382977 2.144567,14.361258 2.144221,14.24558 2.144276,14.219403" style="fill: white" /><polygon type="contour" points="3.563383,16.749135 3.593847,16.749135 3.593923,16.769554 3.593923,16.891912 3.568837,16.891842 3.37602,16.891731 3.086965,16.891921 3.024373,16.89205 3.024373,16.749247 3.099345,16.749247 3.376847,16.74894" style="fill: white" /><polygon type="contour" points="4.906194,16.918988 4.9123,16.987424 4.886123,16.987478 4.770442,16.987133 4.748724,16.987142 4.638037,16.987126 4.637152,17.036946 4.637085,17.082516 4.499925,17.082516 4.304347,17.082056 4.304507,17.036949 4.304301,16.989038 4.304554,16.953675 4.304281,16.938782 4.304088,16.892213 4.304088,16.831034 4.304426,16.749475 4.854726,16.749161 4.898921,16.749066" style="fill: white" /><polygon type="contour" points="4.891115,15.668789 4.886875,15.74857 4.889485,15.858314 4.897882,16.107572 4.743254,16.107572 4.30411,16.107329 4.30398,16.038105 4.304244,15.775044 4.304244,15.727895 4.304088,15.537778 4.688091,15.537766 4.895995,15.537766" style="fill: white" /><polygon type="contour" points="4.589579,14.242991 4.758977,14.244931 4.759553,14.256732 4.763255,14.321197 4.76948,14.362221 4.810506,14.368446 4.88676,14.372696 4.890835,14.468087 4.906425,14.827642 4.858891,14.827758 4.304088,14.827614 4.304303,14.279355 4.304174,14.238046" style="fill: white" /><polygon type="contour" points="3.593936,14.443611 3.593923,14.827614 3.565968,14.827614 3.376731,14.827436 3.093596,14.827721 3.024373,14.82759 3.024942,14.388231 3.024745,14.239053 3.229299,14.245007 3.2814,14.244328 3.35446,14.245637 3.447234,14.242217 3.593936,14.235708" style="fill: white" /><polygon type="contour" points="3.356657,15.537472 3.403806,15.537472 3.593923,15.537778 3.593923,15.565733 3.594264,15.752421 3.594214,15.785468 3.593847,16.107515 3.563382,16.107515 3.398236,16.107535 3.346234,16.107535 3.024373,16.107329 3.024373,16.032356 3.02416,15.769046 3.024187,15.537745 3.346234,15.537467" style="fill: white" /><polygon type="contour" points="2.382568,15.568318 2.382761,15.755023 2.382452,16.032355 2.382452,16.107329 2.239653,16.107329 2.239782,16.044737 2.23998,15.742081 2.239945,15.727896 2.239787,15.537778 2.262039,15.537745 2.382568,15.537745" style="fill: white" /><polygon type="contour" points="2.094751,16.749027 2.140028,16.749027 2.141556,16.748961 2.176136,16.748992 2.190869,16.749012 2.239653,16.749249 2.382452,16.749249 2.382452,16.89205 2.38269,16.940834 2.382711,16.955565 2.382741,16.990145 2.382676,17.03695 2.382862,17.039146 2.382911,17.081992 2.197233,17.082424 2.19636,17.082574 2.049282,17.08242 2.049282,17.048544 2.04974,16.84382 2.049646,16.748854" style="fill: white" />
</svg>
