<svg width="19.131698" height="19.131699">
<polygon type="contour" points="8.108307,7.861027 8.136925,7.860797 8.137306,7.871299 8.137306,7.881366 8.13729,7.881979 8.13794,7.947896 8.137851,8.02931 8.237907,8.029643 8.23742,8.111379 8.23742,8.157532 8.237907,8.231159 8.237907,8.237909 8.157532,8.237422 8.111379,8.237422 8.03648,8.237909 8.029642,8.237909 8.029628,8.232151 8.029308,8.137875 7.882415,8.137875 7.861969,8.137813 7.861883,8.135481 7.856831,8.048681 7.852097,7.852099" style="fill: white" /><polygon type="contour" points="11.102071,10.899552 11.102392,10.993827 11.249284,10.993827 11.269732,10.993889 11.269818,10.99622 11.27487,11.083023 11.279604,11.279605 11.023394,11.270677 10.994775,11.270907 10.994395,11.260404 10.994395,11.250252 10.99441,11.249724 10.993757,11.183808 10.993847,11.102393 10.893793,11.102061 10.89428,11.020321 10.89428,10.974168 10.893793,10.900545 10.893793,10.893795 10.974166,10.894282 11.020319,10.894282 11.095219,10.893795 11.102057,10.893795" style="fill: white" /><polygon type="contour" points="10.322673,10.974169 10.322673,11.020322 10.323026,11.095221 10.323026,11.102061 10.317775,11.102102 10.227734,11.102037 10.227996,11.218066 10.227735,11.268487 10.227733,11.269337 9.961526,11.269696 9.934785,11.269872 9.934731,11.259824 9.934667,11.241235 9.934605,11.10231 9.846596,11.102055 9.846753,11.020322 9.846753,10.974168 9.846596,10.900565 9.846596,10.89385 9.904736,10.893961 10.224006,10.89433 10.228507,10.89433 10.316946,10.893795 10.323026,10.893795" style="fill: white" /><polygon type="contour" points="10.316917,9.846642 10.323141,9.846642 10.323194,9.904736 10.323194,10.087535 10.322738,10.228508 10.323026,10.316948 10.323026,10.323027 10.228507,10.322739 10.087533,10.323195 9.904736,10.323195 9.852972,10.323027 9.846596,10.323142 9.846402,10.228508 9.846538,10.087535 9.846538,9.904736 9.846596,9.852999 9.846596,9.846642 9.904736,9.84654 10.087533,9.84654 10.228507,9.846403" style="fill: white" /><polygon type="contour" points="11.102308,9.934623 11.234993,9.934623 11.241233,9.934668 11.269723,9.934683 11.269337,10.227084 11.269337,10.227736 11.269114,10.227736 11.268485,10.227738 11.102035,10.227738 11.102058,10.323027 11.02032,10.322674 10.974167,10.322674 10.900542,10.323027 10.893793,10.323027 10.894328,10.228508 10.894328,10.224008 10.89396,9.904737 10.893793,9.852973 10.893848,9.846642 10.974167,9.846755 11.02032,9.846755 11.095247,9.846642 11.102053,9.846642" style="fill: white" /><polygon type="contour" points="11.269818,8.135481 11.269732,8.137813 11.263251,8.13782 11.249284,8.137875 11.102391,8.137875 11.102058,8.237909 11.020319,8.237422 10.974166,8.237422 10.900543,8.237909 10.893793,8.237909 10.89428,8.157532 10.89428,8.11138 10.893793,8.036481 10.893793,8.029643 10.89955,8.029629 10.993847,8.029309 10.993757,7.947895 10.99441,7.88198 10.994395,7.871299 10.994501,7.870576 10.994775,7.860797 11.023394,7.861027 11.279604,7.852099" style="fill: white" /><polygon type="contour" points="11.102099,8.813926 11.102035,8.903966 11.268486,8.903966 11.269337,8.903968 11.269669,9.161433 11.269706,9.197083 11.234992,9.197081 11.102308,9.197081 11.102053,9.285108 11.020319,9.284948 10.974166,9.284948 10.900563,9.285108 10.893848,9.285108 10.89396,9.226967 10.894328,8.907695 10.894328,8.903194 10.893793,8.814754 10.893793,8.808675 10.974167,8.80903 11.020319,8.80903 11.095219,8.808675 11.102058,8.808675" style="fill: white" /><polygon type="contour" points="10.228506,8.808966 10.316946,8.808675 10.323026,8.808675 10.322738,8.903194 10.323194,9.044168 10.323194,9.226967 10.323026,9.278731 10.323141,9.285107 10.228506,9.285301 10.087533,9.285165 9.904736,9.285165 9.852997,9.285108 9.846596,9.285108 9.846538,9.226967 9.846538,9.044168 9.846402,8.903194 9.846596,8.814783 9.846596,8.80865 9.904736,8.808508 10.087534,8.808508" style="fill: white" /><polygon type="contour" points="9.961526,7.862008 10.227734,7.862364 10.227734,7.862586 10.227736,7.863215 10.227996,7.913636 10.227996,7.9656 10.227735,8.029666 10.323026,8.029642 10.322673,8.111379 10.322673,8.157532 10.323026,8.231159 10.323026,8.237909 10.228507,8.237374 10.224006,8.237374 9.904736,8.237743 9.852972,8.237909 9.846596,8.237944 9.846753,8.157532 9.846753,8.11138 9.846596,8.036452 9.846596,8.029648 9.934605,8.029392 9.934667,7.890468 9.934731,7.873513 9.934785,7.861832" style="fill: white" /><polygon type="contour" points="9.196967,7.871879 9.197032,7.890469 9.197094,8.029392 9.28506,8.029648 9.284945,8.11138 9.284945,8.157532 9.28506,8.231139 9.28506,8.237944 9.226964,8.237743 8.907693,8.237374 8.903193,8.237374 8.814751,8.23791 8.808673,8.23791 8.809027,8.157533 8.809027,8.11138 8.808673,8.036481 8.808673,8.029643 8.813923,8.029602 8.903965,8.029666 8.903704,7.913636 8.903964,7.863214 8.903966,7.862364 9.170172,7.862008 9.196914,7.861832" style="fill: white" /><polygon type="contour" points="9.278728,8.808675 9.28506,8.80865 9.285299,8.903194 9.285162,9.044168 9.285162,9.226967 9.28506,9.278706 9.28506,9.285108 9.226965,9.285165 9.044166,9.285165 8.903193,9.2853 8.81478,9.285108 8.808558,9.285108 8.808506,9.226967 8.808506,9.044167 8.808963,8.903195 8.808673,8.814754 8.808673,8.808675 8.903193,8.808966 9.044165,8.808508 9.226964,8.808508" style="fill: white" /><polygon type="contour" points="8.237373,8.903195 8.237373,8.907695 8.23774,9.226967 8.237907,9.278731 8.237853,9.285108 8.157531,9.284948 8.111379,9.284948 8.036451,9.285108 8.029647,9.285108 8.029391,9.197081 7.896708,9.197081 7.890466,9.197034 7.861977,9.197019 7.86236,8.904619 7.862362,8.903968 7.862584,8.903968 7.863213,8.903966 8.029665,8.903966 8.029641,8.808675 8.111379,8.80903 8.157531,8.80903 8.231157,8.808675 8.237907,8.808675" style="fill: white" /><polygon type="contour" points="8.23774,9.904737 8.237373,10.224008 8.237373,10.228509 8.237907,10.316947 8.237907,10.323027 8.157531,10.322674 8.111378,10.322674 8.036481,10.323027 8.029642,10.323027 8.029601,10.317776 8.029665,10.227738 7.863212,10.227738 7.862362,10.227736 7.862031,9.97027 7.861995,9.934622 7.896708,9.934623 8.029391,9.934623 8.029646,9.846642 8.111379,9.846755 8.157531,9.846755 8.231137,9.846642 8.237853,9.846642" style="fill: white" /><polygon type="contour" points="9.044166,9.84654 9.226964,9.84654 9.278703,9.846642 9.28506,9.846642 9.285162,9.904737 9.285162,10.087535 9.285299,10.228508 9.28506,10.316919 9.28506,10.323142 9.226965,10.323195 9.044166,10.323195 8.903193,10.322739 8.814751,10.323027 8.808673,10.323027 8.808963,10.228508 8.808506,10.087536 8.808506,9.904737 8.808673,9.852973 8.808558,9.846642 8.903192,9.846403" style="fill: white" /><polygon type="contour" points="8.903193,10.89433 8.907693,10.89433 9.226964,10.893961 9.278727,10.893795 9.28506,10.89385 9.284945,10.974168 9.284945,11.020321 9.28506,11.095251 9.28506,11.102056 9.197094,11.10231 9.197032,11.241234 9.196968,11.25819 9.196914,11.269872 9.170172,11.269696 8.903966,11.269338 8.903966,11.269115 8.903964,11.268487 8.903704,11.218066 8.903704,11.166103 8.903964,11.102037 8.808673,11.102061 8.809027,11.020321 8.809027,10.974169 8.808673,10.900543 8.808673,10.893794" style="fill: white" /><polygon type="contour" points="8.23742,10.974168 8.23742,11.020321 8.237907,11.095222 8.237907,11.102061 8.232148,11.102075 8.137851,11.102394 8.13794,11.183809 8.13729,11.249723 8.137306,11.260404 8.137199,11.261127 8.136925,11.270907 8.108307,11.270677 7.852097,11.279605 7.861882,10.99622 7.861969,10.993889 7.868449,10.993882 7.882416,10.993827 8.029309,10.993827 8.029642,10.893795 8.111378,10.894282 8.157531,10.894282 8.231157,10.893795 8.237907,10.893795" style="fill: white" />
</svg>
