<svg width="19.131698" height="19.131699">
<polygon type="contour" points="8.807146,8.713377 8.927454,8.716307 8.944085,8.717045 8.964699,8.717045 9.016244,8.717051 9.016453,8.762592 9.017485,8.808293 9.018128,8.883762 9.108323,8.883861 9.108261,9.016669 9.108261,9.019361 9.108323,9.08852 9.108323,9.108324 9.020349,9.108263 9.018139,9.108263 8.913329,9.108324 8.883858,9.108324 8.883843,9.093207 8.883759,9.01813 8.717158,9.01813 8.717158,9.017101 8.717131,8.95803 8.715251,8.857575 8.712508,8.71251" style="fill: white" /><polygon type="contour" points="9.107905,9.416581 9.107905,9.713351 9.108323,9.782296 9.108323,9.801945 9.020349,9.80193 9.018139,9.80193 8.913329,9.801945 8.883858,9.801945 8.883846,9.787036 8.883809,9.711102 8.717212,9.711102 8.717207,9.710174 8.715192,9.566202 8.715627,9.494489 8.717206,9.421534 8.717211,9.420602 8.883809,9.420602 8.883858,9.329759 9.016667,9.329774 9.01936,9.329774 9.088519,9.329759 9.108323,9.329759" style="fill: white" /><polygon type="contour" points="10.416448,8.857575 10.414567,8.958031 10.414542,9.0171 10.414537,9.018129 10.41336,9.01813 10.24794,9.01813 10.247842,9.108324 10.115032,9.108263 10.112341,9.108263 10.043181,9.108324 10.023378,9.108324 10.023439,9.020351 10.023439,9.018141 10.023378,8.913331 10.023378,8.883861 10.038494,8.883846 10.113572,8.883762 10.114216,8.808293 10.115248,8.762592 10.115457,8.759653 10.115457,8.717051 10.167001,8.717045 10.187615,8.717045 10.204246,8.716307 10.324554,8.713377 10.419192,8.71251" style="fill: white" /><polygon type="contour" points="9.652023,8.715662 9.711101,8.717213 9.711101,8.721307 9.711788,8.883813 9.801943,8.883861 9.801929,9.016669 9.801929,9.019361 9.801943,9.08852 9.801943,9.108324 9.715121,9.107907 9.41835,9.107907 9.349405,9.108324 9.329757,9.108324 9.329771,9.02035 9.329771,9.018141 9.329757,8.913332 9.329757,8.883861 9.344664,8.883849 9.4206,8.883812 9.4206,8.717214 9.421528,8.717209 9.565807,8.715107" style="fill: white" /><polygon type="contour" points="9.782295,9.329759 9.801943,9.329759 9.802235,9.41658 9.802235,9.713351 9.801943,9.782296 9.801943,9.801945 9.715122,9.802237 9.41835,9.802237 9.349405,9.801945 9.329757,9.801945 9.329465,9.715122 9.329465,9.418352 9.329757,9.349407 9.329757,9.329759 9.416578,9.329467 9.713349,9.329467" style="fill: white" /><polygon type="contour" points="10.247853,9.344667 10.24789,9.420602 10.414488,9.420602 10.414493,9.421534 10.416508,9.566202 10.416073,9.637568 10.414492,9.710174 10.414487,9.711102 10.24789,9.711102 10.247842,9.801945 10.115033,9.80193 10.112341,9.80193 10.043181,9.801945 10.023378,9.801945 10.023795,9.715122 10.023795,9.418352 10.023378,9.349407 10.023378,9.329759 10.111351,9.329774 10.113561,9.329774 10.218371,9.329759 10.247842,9.329759" style="fill: white" /><polygon type="contour" points="10.247856,10.038496 10.24794,10.113575 10.414542,10.113575 10.414542,10.114604 10.414567,10.173672 10.416448,10.274129 10.419192,10.419194 10.324554,10.418326 10.204246,10.415396 10.187615,10.414659 10.167001,10.414659 10.115457,10.414653 10.115248,10.369112 10.114215,10.32341 10.113572,10.247941 10.023378,10.247843 10.023439,10.115034 10.023439,10.112343 10.023378,10.043183 10.023378,10.02338 10.111351,10.023441 10.113561,10.023441 10.218371,10.02338 10.247842,10.02338" style="fill: white" /><polygon type="contour" points="9.801929,10.111354 9.801929,10.113564 9.801943,10.218371 9.801943,10.247843 9.787035,10.247854 9.711101,10.247891 9.711101,10.41449 9.710168,10.414495 9.5655,10.416595 9.479676,10.416039 9.4206,10.41449 9.4206,10.410396 9.419912,10.24789 9.329757,10.247843 9.329771,10.115035 9.329771,10.112342 9.329757,10.043183 9.329757,10.02338 9.416579,10.023797 9.71335,10.023797 9.782295,10.02338 9.801943,10.02338" style="fill: white" /><polygon type="contour" points="9.108261,10.111354 9.108261,10.113564 9.108323,10.218372 9.108323,10.247843 9.093206,10.247857 9.018128,10.247941 9.017485,10.32341 9.016453,10.369112 9.016244,10.37205 9.016244,10.414653 8.964699,10.414659 8.944085,10.414659 8.927454,10.415397 8.807146,10.418326 8.712508,10.419194 8.715252,10.274128 8.717131,10.173673 8.717158,10.114603 8.717163,10.113576 8.718339,10.113575 8.883759,10.113575 8.883858,10.02338 9.016668,10.023441 9.019359,10.023441 9.088519,10.02338 9.108323,10.02338" style="fill: white" />
</svg>
