<svg width="19.131698" height="19.131699">
<polygon type="contour" points="9.64525,9.486451 9.645546,9.524523 9.645546,9.60739 9.64525,9.645253 9.607177,9.645549 9.524312,9.645549 9.48645,9.645253 9.486154,9.60739 9.486154,9.524523 9.48645,9.486451 9.524312,9.486155 9.607177,9.486155" style="fill: white" /><polygon type="contour" points="9.64525,10.154477 9.645265,10.16457 9.645265,10.447785 9.640884,10.447785 9.607178,10.447708 9.524313,10.447708 9.486435,10.447785 9.48645,10.437828 9.48645,10.154477 9.490794,10.154477 9.524313,10.154409 9.607177,10.154409" style="fill: white" /><polygon type="contour" points="9.645256,11.226337 9.64525,11.230449 9.64525,11.34406 9.641078,11.344069 9.607177,11.343916 9.565501,11.343709 9.524312,11.343917 9.490622,11.344069 9.48645,11.34406 9.486214,11.23009 9.486209,11.226621 9.51965,11.226535 9.607179,11.226318" style="fill: white" /><polygon type="contour" points="9.645955,10.780521 9.645944,10.782998 9.645913,10.798394 9.645356,10.880303 9.645256,10.90553 9.607177,10.905559 9.524801,10.905438 9.524312,10.905559 9.486444,10.90553 9.485752,10.801375 9.485787,10.798394 9.485745,10.780521 9.489095,10.780521 9.516875,10.780501 9.614654,10.780501" style="fill: white" /><polygon type="contour" points="10.798392,10.780574 10.885294,10.780574 10.905589,10.780527 10.905493,10.798394 10.905258,10.875064 10.905342,10.905344 10.900563,10.905344 10.875061,10.90526 10.798392,10.905495 10.780525,10.905591 10.780572,10.885296 10.780572,10.798394 10.780519,10.780521 10.783023,10.780521" style="fill: white" /><polygon type="contour" points="10.447903,10.783025 10.447816,10.798394 10.447734,10.839067 10.447661,10.875064 10.447756,10.900667 10.447762,10.905344 10.154429,10.905344 10.154443,10.900725 10.15436,10.875064 10.154434,10.839067 10.154517,10.798394 10.154599,10.782999 10.154587,10.780521 10.447903,10.780521" style="fill: white" /><polygon type="contour" points="10.449767,11.231125 10.449767,11.235102 10.449837,11.375699 10.449837,11.514347 10.316376,11.514934 10.156514,11.514402 10.156658,11.477208 10.156251,11.473707 10.156251,11.433526 10.156244,11.431611 10.156053,11.369688 10.155771,11.228275 10.449769,11.228275" style="fill: white" /><polygon type="contour" points="10.905342,11.226351 10.905342,11.344107 10.875062,11.344057 10.839065,11.344068 10.798393,11.34408 10.782887,11.344124 10.780519,11.344108 10.780519,11.229601 10.780525,11.226423 10.783085,11.226423 10.798393,11.22635 10.875062,11.22626" style="fill: white" /><polygon type="contour" points="11.430221,11.228534 11.470016,11.229013 11.471324,11.229335 11.515762,11.22968 11.51565,11.36994 11.521398,11.5214 11.3032,11.519688 11.228263,11.514 11.228263,11.228265 11.345997,11.228265 11.385255,11.228155" style="fill: white" /><polygon type="contour" points="11.344079,10.798394 11.344067,10.839067 11.344054,10.875064 11.344117,10.900918 11.344104,10.905344 11.226348,10.905344 11.226348,10.900564 11.226258,10.875064 11.226348,10.798394 11.226421,10.780527 11.229599,10.780521 11.344106,10.780521" style="fill: white" /><polygon type="contour" points="11.230473,10.156009 11.51392,10.156565 11.514598,10.156565 11.514467,10.226484 11.51405,10.446653 11.514051,10.450149 11.228486,10.450149 11.228487,10.322128 11.228474,10.156002" style="fill: white" /><polygon type="contour" points="10.905342,10.154431 10.905342,10.447764 10.900665,10.447758 10.875062,10.447663 10.798392,10.447818 10.780519,10.447906 10.780519,10.154588 10.782997,10.1546 10.798392,10.154518 10.875062,10.154362" style="fill: white" /><polygon type="contour" points="10.450009,10.156012 10.450009,10.157275 10.449837,10.299978 10.449837,10.44984 10.159804,10.450149 10.156157,10.450149 10.156465,10.226485 10.156563,10.156565 10.296366,10.156301 10.448797,10.15601" style="fill: white" /><polygon type="contour" points="10.447784,9.490816 10.447707,9.524522 10.447707,9.607389 10.447784,9.645268 10.437827,9.645253 10.154475,9.645253 10.154475,9.640908 10.154407,9.607389 10.154407,9.524522 10.154475,9.486451 10.437827,9.486451 10.447784,9.486436" style="fill: white" /><polygon type="contour" points="10.782996,9.485758 10.798393,9.485789 10.8803,9.486344 10.905528,9.486445 10.905528,9.490948 10.905556,9.524523 10.905437,9.525052 10.905557,9.607389 10.905528,9.645259 10.901889,9.645253 10.8803,9.645359 10.798393,9.645915 10.780519,9.645957 10.780519,9.642606 10.780499,9.614826 10.780499,9.517047 10.780519,9.485747" style="fill: white" /><polygon type="contour" points="11.230447,9.486451 11.344057,9.486451 11.344067,9.490623 11.343915,9.524523 11.343708,9.566201 11.343916,9.60739 11.344068,9.64108 11.344058,9.645253 11.230447,9.645253 11.226335,9.645259 11.226335,9.640755 11.226317,9.607389 11.226317,9.524522 11.226335,9.486445" style="fill: white" /><polygon type="contour" points="11.514466,8.905217 11.514598,8.975137 11.513919,8.975137 11.230473,8.975695 11.228474,8.975702 11.228474,8.970677 11.227886,8.681559 11.228891,8.681559 11.339663,8.681555 11.514051,8.681555" style="fill: white" /><polygon type="contour" points="11.521166,7.82208 11.515792,7.902 11.470017,7.90269 11.430221,7.903169 11.385255,7.903548 11.345997,7.903439 11.228263,7.903439 11.228263,7.617705 11.349861,7.617242 11.521398,7.610304" style="fill: white" /><polygon type="contour" points="11.344054,8.256639 11.344067,8.292635 11.344079,8.333308 11.344122,8.348815 11.344106,8.351183 11.340855,8.351178 11.226421,8.351178 11.226421,8.348616 11.226348,8.333308 11.226258,8.256639 11.226348,8.226359 11.344104,8.226359" style="fill: white" /><polygon type="contour" points="10.798392,8.683885 10.875062,8.684041 10.905342,8.68394 10.905342,8.97727 10.900723,8.977256 10.875062,8.977341 10.798392,8.977186 10.780519,8.977116 10.780519,8.683798 10.783023,8.683798" style="fill: white" /><polygon type="contour" points="10.299976,8.681864 10.449837,8.681864 10.450146,8.971897 10.450146,8.975545 10.226482,8.975234 10.156563,8.975137 10.15656,8.973939 10.156466,8.905218 10.156151,8.68505 10.156157,8.681555 10.159803,8.681555" style="fill: white" /><polygon type="contour" points="10.447756,8.231036 10.447661,8.256639 10.447734,8.292635 10.447815,8.333309 10.447903,8.348678 10.447903,8.351183 10.154587,8.351183 10.154599,8.348705 10.154517,8.333309 10.154589,8.330329 10.156221,8.278369 10.154429,8.226359 10.447762,8.226359" style="fill: white" /><polygon type="contour" points="10.798392,8.226208 10.875061,8.226443 10.905342,8.226359 10.905342,8.231137 10.905258,8.256639 10.905493,8.333309 10.90559,8.351178 10.885294,8.351131 10.798392,8.351131 10.780519,8.351183 10.780519,8.348678 10.780572,8.333309 10.780572,8.246408 10.780525,8.226111 10.783086,8.226111" style="fill: white" /><polygon type="contour" points="10.905342,7.787598 10.905342,7.905353 10.900563,7.905353 10.875061,7.905444 10.796872,7.905517 10.780585,7.90548 10.78058,7.90263 10.780518,7.787596 10.798393,7.787622 10.839065,7.787634 10.875062,7.787647 10.900916,7.787585" style="fill: white" /><polygon type="contour" points="10.300736,7.617818 10.449837,7.617357 10.449837,7.699721 10.449767,7.896601 10.449769,7.90343 10.155771,7.90343 10.15578,7.900608 10.156245,7.700092 10.15625,7.657997 10.156514,7.617302" style="fill: white" /><polygon type="contour" points="9.64525,7.787644 9.645486,7.901613 9.645492,7.905084 9.64169,7.905084 9.611865,7.905169 9.519651,7.905169 9.486209,7.905083 9.486214,7.901613 9.48645,7.787644 9.490622,7.787634 9.524313,7.787787 9.565501,7.787995 9.607177,7.787787 9.641078,7.787634" style="fill: white" /><polygon type="contour" points="9.645256,8.226175 9.645948,8.330328 9.645913,8.333309 9.645955,8.351183 9.642603,8.351183 9.614654,8.351203 9.516874,8.351203 9.485745,8.351183 9.485756,8.348706 9.485787,8.333308 9.486344,8.251399 9.486444,8.226175 9.490948,8.226175 9.524313,8.226144 9.524802,8.226263 9.607178,8.226144" style="fill: white" /><polygon type="contour" points="9.524312,8.683995 9.607177,8.683995 9.645265,8.683919 9.64525,8.693875 9.64525,8.977227 9.640905,8.977227 9.607177,8.977295 9.524313,8.977295 9.48645,8.977227 9.486435,8.967133 9.486435,8.683919 9.490815,8.683919" style="fill: white" /><polygon type="contour" points="8.975231,8.905218 8.975134,8.975137 8.835332,8.9754 8.682902,8.975691 8.681691,8.975689 8.681691,8.974426 8.681864,8.831725 8.681864,8.681864 8.971896,8.681555 8.975544,8.681555" style="fill: white" /><polygon type="contour" points="8.977338,8.256639 8.977273,8.260854 8.975707,8.305393 8.977114,8.351183 8.683797,8.351183 8.683797,8.348678 8.683884,8.333309 8.683965,8.292635 8.684039,8.256639 8.683944,8.231036 8.683938,8.226359 8.977268,8.226359" style="fill: white" /><polygon type="contour" points="8.975186,7.617302 8.975041,7.654495 8.975449,7.657997 8.975449,7.698177 8.975455,7.700092 8.975644,7.762015 8.97593,7.90343 8.681929,7.90343 8.681931,7.900579 8.681931,7.8966 8.681864,7.756005 8.681864,7.617357 8.815324,7.616771" style="fill: white" /><polygon type="contour" points="7.8285,7.612016 7.903437,7.617704 7.903437,7.903439 7.785701,7.903439 7.746444,7.903549 7.701478,7.903169 7.661681,7.902691 7.660374,7.902367 7.615937,7.902024 7.616049,7.761762 7.610302,7.610304" style="fill: white" /><polygon type="contour" points="8.351182,7.787596 8.351182,7.902102 8.351176,7.905281 8.348614,7.905281 8.333307,7.905354 8.256638,7.905444 8.226358,7.905353 8.226358,7.787598 8.256638,7.787647 8.292634,7.787634 8.333307,7.787622 8.348813,7.78758" style="fill: white" /><polygon type="contour" points="8.351129,8.246408 8.351129,8.333309 8.351182,8.351183 8.348678,8.351183 8.333306,8.351131 8.246405,8.351131 8.22611,8.351178 8.226208,8.333308 8.226442,8.25664 8.226358,8.226359 8.231137,8.226359 8.256638,8.226444 8.333306,8.226209 8.351176,8.22611" style="fill: white" /><polygon type="contour" points="7.905352,8.231138 7.905443,8.256639 7.905353,8.333308 7.90528,8.351178 7.902099,8.351183 7.787594,8.351183 7.787621,8.333309 7.787632,8.292634 7.787646,8.256639 7.787583,8.230785 7.787597,8.226359 7.905352,8.226359" style="fill: white" /><polygon type="contour" points="7.903214,8.809576 7.903226,8.975702 7.901228,8.975696 7.61778,8.975137 7.617102,8.975137 7.617233,8.905217 7.617649,8.68505 7.617649,8.681555 7.903215,8.681555" style="fill: white" /><polygon type="contour" points="8.351182,8.977115 8.348703,8.977103 8.333306,8.977186 8.256639,8.977341 8.226358,8.977271 8.226358,8.68394 8.231035,8.683946 8.256638,8.684041 8.333306,8.683886 8.351182,8.683797" style="fill: white" /><polygon type="contour" points="8.693872,9.486451 8.977226,9.486451 8.977226,9.490795 8.977294,9.524522 8.977294,9.607389 8.977226,9.645253 8.967132,9.645268 8.683916,9.645268 8.683916,9.640887 8.683993,9.60739 8.683993,9.524522 8.683916,9.486436" style="fill: white" /><polygon type="contour" points="8.351182,9.489098 8.351202,9.517047 8.351202,9.614827 8.351182,9.645957 8.348703,9.645946 8.333306,9.645915 8.251399,9.645359 8.226172,9.645259 8.226172,9.640755 8.226142,9.60739 8.226262,9.6069 8.226142,9.524522 8.226172,9.486445 8.22981,9.486451 8.251399,9.486344 8.333306,9.485789 8.351182,9.485747" style="fill: white" /><polygon type="contour" points="7.905383,9.524523 7.905167,9.612051 7.905081,9.645494 7.901611,9.645489 7.787642,9.645253 7.787632,9.64108 7.787785,9.607389 7.787992,9.566202 7.787785,9.524523 7.787633,9.490622 7.787642,9.486451 7.901252,9.486451 7.905365,9.486445" style="fill: white" /><polygon type="contour" points="7.903418,10.157094 7.903815,10.450145 7.902809,10.450145 7.792037,10.450149 7.617649,10.450149 7.617232,10.226484 7.617102,10.156565 7.617779,10.156565 7.90293,10.155868 7.903418,10.155868" style="fill: white" /><polygon type="contour" points="8.333306,10.154518 8.351182,10.154588 8.351182,10.447906 8.348678,10.447906 8.333306,10.447818 8.256639,10.447663 8.226358,10.447764 8.226358,10.154431 8.230976,10.154445 8.256639,10.154362" style="fill: white" /><polygon type="contour" points="8.905215,10.156468 8.975134,10.156565 8.975136,10.157762 8.975231,10.226484 8.97555,10.446652 8.975544,10.450149 8.971897,10.450149 8.831723,10.44984 8.681864,10.44984 8.681554,10.159805 8.681554,10.156159" style="fill: white" /><polygon type="contour" points="8.977102,10.782999 8.977184,10.798394 8.977267,10.839068 8.977338,10.875063 8.977253,10.900725 8.977267,10.905344 8.683938,10.905344 8.683944,10.900667 8.684039,10.875064 8.683965,10.839067 8.683884,10.798394 8.683797,10.783025 8.683797,10.780521 8.977114,10.780521" style="fill: white" /><polygon type="contour" points="8.975643,11.369688 8.975454,11.431612 8.975449,11.473706 8.975186,11.514402 8.830962,11.513886 8.681864,11.514347 8.681864,11.431981 8.681931,11.235103 8.681929,11.228275 8.97593,11.228275" style="fill: white" /><polygon type="contour" points="8.333307,11.22635 8.351176,11.226423 8.351182,11.229601 8.351182,11.344108 8.333307,11.344081 8.292634,11.344068 8.256638,11.344057 8.230784,11.34412 8.226358,11.344107 8.226358,11.226351 8.231137,11.226351 8.256638,11.22626" style="fill: white" /><polygon type="contour" points="8.351182,10.783025 8.351129,10.798394 8.351129,10.885296 8.351176,10.905592 8.348615,10.905592 8.333306,10.905495 8.256639,10.90526 8.226358,10.905344 8.226358,10.900565 8.226441,10.875063 8.226207,10.798394 8.22611,10.780527 8.246405,10.780574 8.333306,10.780574 8.351182,10.780521" style="fill: white" /><polygon type="contour" points="7.790843,10.780527 7.90528,10.780527 7.90528,10.783087 7.905353,10.798395 7.905443,10.875063 7.905352,10.905344 7.787596,10.905344 7.787645,10.875064 7.787632,10.839068 7.787621,10.798394 7.787578,10.782889 7.787594,10.780521" style="fill: white" /><polygon type="contour" points="7.785701,11.228265 7.903437,11.228265 7.903437,11.514 7.781838,11.514462 7.610302,11.5214 7.610535,11.309623 7.615908,11.229704 7.661682,11.229012 7.701478,11.228534 7.746444,11.228155" style="fill: white" />
</svg>
