<svg width="19.131698" height="19.131699">
<polygon type="contour" points="11.278625,11.024501 11.278762,11.104735 11.278994,11.164523 11.355336,11.16431 11.363094,11.164376 11.369957,11.164458 11.372202,11.165011 11.448518,11.165603 11.448324,11.406481 11.449976,11.449978 11.17408,11.447813 11.164521,11.447087 11.164521,11.278995 11.104734,11.278764 11.024501,11.278625 11.024501,11.254339 11.024325,11.16423 11.024325,11.104736 11.024501,11.024502 11.044134,11.024502 11.119417,11.024327 11.182391,11.024327" style="fill: white" /><polygon type="contour" points="10.537033,11.024502 10.537033,11.044136 10.537148,11.119419 10.537148,11.182392 10.537033,11.278625 10.445001,11.279016 10.390111,11.279265 10.390111,11.447351 10.374849,11.447419 10.096474,11.446494 10.096482,11.444624 10.096461,11.444448 10.096461,11.442335 10.09645,11.439223 10.096436,11.431758 10.096337,11.279142 9.921835,11.278696 9.901806,11.278581 9.901806,11.25513 9.901119,11.151687 9.901241,11.104736 9.90185,11.024502 9.925118,11.024502 10.012817,11.024369 10.150355,11.024369 10.389834,11.024304 10.445,11.024304" style="fill: white" /><polygon type="contour" points="10.537033,9.901852 10.537033,9.92512 10.537167,10.012819 10.537167,10.150356 10.537137,10.389835 10.537137,10.445002 10.537033,10.537034 10.514636,10.537034 10.429938,10.537138 10.348849,10.537138 10.096091,10.537169 9.992096,10.537169 9.90185,10.537034 9.901806,10.515429 9.901132,10.429957 9.901132,10.350384 9.90141,10.012771 9.901342,10.012771 9.901342,9.992907 9.901806,9.901948 9.924273,9.901948 10.012768,9.90147 10.148437,9.90147 10.389838,9.901228 10.389839,9.901387 10.445,9.901168" style="fill: white" /><polygon type="contour" points="11.27858,9.901948 11.278696,9.921837 11.279139,10.09639 11.402916,10.096365 11.447338,10.096451 11.447254,10.140794 11.447316,10.390149 11.279263,10.390149 11.279014,10.445003 11.278625,10.537034 11.254337,10.537034 11.164227,10.537149 11.104733,10.537149 11.024501,10.537034 11.024501,10.514637 11.024303,10.429939 11.024303,10.348851 11.024388,10.012819 11.024367,10.012818 11.024367,9.992096 11.024501,9.901852 11.043525,9.901948 11.119469,9.90131 11.181709,9.90131" style="fill: white" /><polygon type="contour" points="11.278625,8.59467 11.279014,8.6867 11.279263,8.741555 11.447316,8.741555 11.447378,8.775258 11.447338,9.035253 11.279139,9.035253 11.278696,9.209864 11.27858,9.229895 11.25513,9.229895 11.151939,9.23058 11.104734,9.230462 11.024501,9.229849 11.024501,9.206582 11.024367,9.118886 11.024367,8.981348 11.024303,8.741868 11.024303,8.6867 11.024501,8.59467 11.044134,8.59467 11.119417,8.594555 11.182391,8.594555" style="fill: white" /><polygon type="contour" points="11.449682,7.9495 11.448569,7.96606 11.369957,7.967246 11.363094,7.967328 11.355337,7.967394 11.278994,7.96718 11.278763,8.026968 11.278625,8.107201 11.254337,8.107201 11.164226,8.107377 11.104733,8.107377 11.024501,8.107201 11.024501,8.087568 11.024325,8.012284 11.024325,7.949311 11.024501,7.853076 11.104733,7.852938 11.164521,7.852706 11.164521,7.684617 11.400712,7.683719 11.449976,7.681726" style="fill: white" /><polygon type="contour" points="10.390111,7.852438 10.445,7.852686 10.537033,7.853076 10.537033,7.877363 10.537148,7.967474 10.537148,8.026968 10.537033,8.107201 10.514636,8.107201 10.429937,8.107397 10.34885,8.107397 10.012817,8.107314 10.012816,8.107335 9.992095,8.107335 9.90185,8.107201 9.901806,8.088177 9.901203,8.012231 9.901203,7.949992 9.901806,7.853121 9.921834,7.853005 10.096404,7.852563 10.096436,7.699945 10.096461,7.689368 10.096461,7.687255 10.096474,7.685211 10.103718,7.685237 10.390111,7.684352" style="fill: white" /><polygon type="contour" points="10.389834,8.594566 10.445,8.594566 10.537033,8.59467 10.537033,8.617066 10.537137,8.701763 10.537137,8.782851 10.537167,9.035612 10.537167,9.139606 10.537033,9.22985 10.515427,9.229895 10.429955,9.23057 10.350382,9.23057 10.012769,9.230289 10.012769,9.230359 9.992781,9.230359 9.901806,9.229895 9.901806,9.207426 9.901342,9.118933 9.901342,8.983264 9.901106,8.712897 9.901166,8.6867 9.90185,8.59467 9.925118,8.59467 10.012816,8.594535 10.150355,8.594535" style="fill: white" /><polygon type="contour" points="9.229848,8.59467 9.229753,8.616276 9.230474,8.701747 9.230474,8.781318 9.230154,9.118934 9.230233,9.118934 9.230233,9.138921 9.229753,9.229895 9.207424,9.229895 9.118931,9.230359 8.983262,9.230359 8.712934,9.230595 8.686699,9.230536 8.594667,9.22985 8.594667,9.206581 8.594534,9.118885 8.594534,8.981348 8.594564,8.741867 8.594564,8.686701 8.594667,8.59467 8.617063,8.59467 8.701763,8.594566 8.782851,8.594566 9.035609,8.594535 9.139605,8.594535" style="fill: white" /><polygon type="contour" points="9.035224,7.685211 9.035216,7.687079 9.035238,7.687255 9.035238,7.689368 9.035248,7.69248 9.035263,7.699945 9.035363,7.852563 9.209863,7.853005 9.229753,7.853121 9.229753,7.876571 9.230392,7.967491 9.230188,7.967489 9.230459,8.026968 9.229848,8.107201 9.20658,8.107201 9.118884,8.107335 8.981345,8.107335 8.741866,8.107397 8.6867,8.107397 8.594667,8.107201 8.594667,8.087568 8.594553,8.012285 8.594553,7.949311 8.594667,7.853076 8.686699,7.852687 8.74159,7.852438 8.74159,7.684352 8.756851,7.684285" style="fill: white" /><polygon type="contour" points="7.957619,7.683891 7.967179,7.684617 7.967179,7.852706 8.026966,7.852937 8.107199,7.853076 8.107199,7.877362 8.107376,7.967475 8.107376,8.026968 8.107199,8.107201 8.087566,8.107201 8.012282,8.107377 7.949309,8.107377 7.853074,8.107201 7.852935,8.026968 7.852704,7.96718 7.776363,7.967394 7.768607,7.967329 7.761741,7.967246 7.759496,7.96669 7.683182,7.966101 7.683375,7.725223 7.681725,7.681726" style="fill: white" /><polygon type="contour" points="8.107199,8.59467 8.107199,8.617066 8.107395,8.701764 8.107395,8.782851 8.107312,9.118885 8.107333,9.118885 8.107333,9.139606 8.107199,9.22985 8.088174,9.229895 8.012229,9.230499 7.94999,9.230499 7.853119,9.229895 7.853002,9.209864 7.852563,9.035314 7.728784,9.03534 7.684362,9.035253 7.684445,8.99091 7.684385,8.741555 7.852436,8.741555 7.852684,8.686701 7.853074,8.59467 7.877361,8.59467 7.967473,8.594555 8.026967,8.594555" style="fill: white" /><polygon type="contour" points="8.107199,9.901852 8.107199,9.92512 8.107333,10.012819 8.107333,10.150356 8.107395,10.389836 8.107395,10.445003 8.107199,10.537034 8.087565,10.537034 8.012282,10.537149 7.949308,10.537149 7.853074,10.537034 7.852684,10.445002 7.852436,10.390149 7.684385,10.390149 7.684322,10.356444 7.684362,10.096451 7.852563,10.096451 7.853002,9.921837 7.853119,9.901948 7.876569,9.901948 7.967488,9.90131 7.967487,9.901516 8.026966,9.901242" style="fill: white" /><polygon type="contour" points="9.118932,9.901549 9.118932,9.90147 9.138795,9.90147 9.229753,9.901947 9.229753,9.924274 9.230233,10.01277 9.230233,10.14844 9.230474,10.389841 9.230314,10.389841 9.230534,10.445002 9.229848,10.537034 9.206579,10.537034 9.118883,10.537169 8.981344,10.537169 8.741866,10.537138 8.6867,10.537138 8.594667,10.537034 8.594667,10.514637 8.594564,10.42994 8.594563,10.429939 8.594564,10.429939 8.594564,10.348852 8.594534,10.096092 8.594534,9.992097 8.594667,9.901852 8.616272,9.901948 8.701745,9.901228 8.781318,9.901228" style="fill: white" /><polygon type="contour" points="9.118883,11.02439 9.118883,11.024369 9.139604,11.024369 9.229848,11.024501 9.229753,11.043526 9.230392,11.119472 9.230392,11.18171 9.229752,11.278581 9.209863,11.278696 9.035363,11.279142 9.035263,11.431758 9.035248,11.439223 9.035238,11.442335 9.035238,11.444449 9.035225,11.446494 9.02798,11.446468 8.74159,11.447351 8.74159,11.279265 8.686699,11.279016 8.594667,11.278625 8.594667,11.254339 8.594553,11.164229 8.594553,11.104735 8.594667,11.024502 8.617062,11.024502 8.701763,11.024304 8.782851,11.024304" style="fill: white" /><polygon type="contour" points="8.107199,11.024502 8.107199,11.044136 8.107376,11.119419 8.107376,11.182393 8.107199,11.278625 8.026967,11.278763 7.967179,11.278995 7.967179,11.447087 7.730987,11.447986 7.681725,11.449978 7.682018,11.182203 7.683132,11.165644 7.761742,11.164457 7.768607,11.164375 7.776363,11.16431 7.852704,11.164523 7.852936,11.104735 7.853074,11.024502 7.877361,11.024502 7.967472,11.024327 8.026967,11.024327" style="fill: white" />
</svg>
