<svg width="19.131698" height="19.131699">
<polygon type="contour" points="16.430592,13.27345 16.430388,13.469512 16.430416,13.563265 16.430578,13.673212 16.430601,13.938022 16.526062,13.938163 16.526062,14.124584 16.525717,14.271019 16.462526,14.270794 16.395402,14.271085 16.335907,14.270655 16.335678,14.402516 16.335639,14.415737 16.335639,16.073338 16.335551,16.102299 16.335527,16.192722 16.396952,16.192668 16.462526,16.192759 16.465602,16.192498 16.525717,16.192517 16.525585,16.325563 16.52593,16.479889 16.52593,16.525931 16.326029,16.526142 16.324844,16.525937 16.192428,16.52563 16.192756,16.462528 16.192756,16.399097 16.192665,16.396954 16.19272,16.335529 16.102296,16.335552 16.073335,16.335641 14.415735,16.335641 14.402514,16.33568 14.270654,16.335911 14.271082,16.395404 14.270793,16.399096 14.270793,16.462527 14.270995,16.465603 14.271017,16.525719 14.124582,16.526064 13.938162,16.526064 13.937987,16.430604 13.572643,16.430507 13.483593,16.430499 13.469102,16.430459 13.414028,16.430518 13.247522,16.430567 13.255648,16.301805 13.254375,16.298367 13.269977,16.136912 13.276076,16.102299 13.279155,16.073338 13.279155,14.415738 13.277639,14.402515 13.26839,14.27091 13.257957,14.148892 13.263078,14.134407 13.279852,13.917772 13.290816,13.917793 13.295142,13.917814 13.296428,13.917822 13.482909,13.916916 13.572188,13.917543 13.585183,13.917739 13.677966,13.917063 13.737036,13.916739 13.744234,13.916628 13.746556,13.916897 13.796935,13.915956 13.802104,13.915703 13.823438,13.914479 13.828369,13.91373 13.847614,13.913445 13.852516,13.913338 13.862686,13.913122 13.912557,13.911678 13.913122,13.862688 13.913337,13.852518 13.913444,13.847615 13.913727,13.828373 13.914476,13.823442 13.915701,13.802105 13.915953,13.796938 13.916894,13.746559 13.916625,13.744236 13.916736,13.73704 13.917061,13.677967 13.917735,13.585188 13.917541,13.572191 13.916914,13.482912 13.91782,13.29643 13.917812,13.295144 13.917791,13.290818 13.91777,13.279854 14.134405,13.26308 14.148889,13.257959 14.270907,13.268391 14.402514,13.277641 14.415735,13.279157 16.073334,13.279157 16.102296,13.276078 16.192728,13.269553 16.298799,13.240724" style="fill: white" /><polygon type="contour" points="16.52593,2.605771 16.52593,2.651814 16.525585,2.806141 16.525717,2.939186 16.462525,2.938945 16.399094,2.938945 16.396952,2.939037 16.335527,2.938982 16.335551,3.029404 16.335639,3.058365 16.335639,4.715965 16.335679,4.729186 16.335907,4.861046 16.395402,4.86062 16.399094,4.860911 16.462525,4.860911 16.465601,4.860706 16.525717,4.860686 16.526062,5.00712 16.526062,5.193538 16.430601,5.193716 16.430594,5.560363 16.430603,5.649119 16.430566,5.663544 16.430632,5.718314 16.430571,5.88382 16.302426,5.875776 16.192728,5.862149 16.102296,5.855624 16.073334,5.852547 14.415735,5.852547 14.402513,5.854063 14.270907,5.863312 14.148889,5.873745 14.134405,5.868624 13.91777,5.85185 13.917791,5.840885 13.917812,5.836559 13.91782,5.835273 13.916914,5.64879 13.91754,5.559512 13.917736,5.546515 13.917581,5.515066 13.917513,5.511414 13.917704,5.510368 13.916894,5.385144 13.915953,5.334765 13.9157,5.329596 13.914476,5.308262 13.913728,5.303329 13.913444,5.284087 13.913337,5.279185 13.913121,5.269014 13.912557,5.219999 13.862685,5.218582 13.852516,5.218365 13.847613,5.218256 13.82837,5.217972 13.823439,5.217224 13.796935,5.215747 13.746555,5.214804 13.744233,5.215076 13.737036,5.214964 13.677966,5.214639 13.585184,5.213964 13.572189,5.21416 13.48291,5.214788 13.296428,5.213882 13.295142,5.213889 13.290816,5.213911 13.279852,5.213932 13.263078,4.997297 13.257957,4.982813 13.26839,4.860792 13.277639,4.729187 13.279155,4.715966 13.279155,3.058365 13.276077,3.029404 13.270106,2.993997 13.255925,2.829274 13.247875,2.701054 13.413387,2.701069 13.468157,2.701136 13.482582,2.701097 13.571338,2.701108 13.93802,2.701095 13.938162,2.60564 14.124582,2.60564 14.271017,2.605985 14.270793,2.669176 14.271082,2.736298 14.270654,2.795792 14.402513,2.796022 14.415735,2.796063 16.073335,2.796063 16.102297,2.796152 16.19272,2.796175 16.192665,2.734748 16.192758,2.669176 16.192495,2.6661 16.192428,2.606073 16.324844,2.605766 16.326029,2.605562" style="fill: white" /><polygon type="contour" points="2.806855,2.605766 2.939272,2.606073 2.938943,2.669176 2.938943,2.732607 2.939035,2.734749 2.93898,2.796175 3.029403,2.796152 3.058365,2.796063 4.715964,2.796063 4.729185,2.796022 4.861045,2.795792 4.860619,2.736298 4.860908,2.732608 4.860908,2.669176 4.860703,2.6661 4.860683,2.605985 5.007117,2.60564 5.193537,2.60564 5.193714,2.701095 5.458487,2.701123 5.568434,2.701286 5.662429,2.701312 5.858253,2.70111 5.890977,2.832903 5.870359,2.99879 5.855622,3.029405 5.852545,3.058365 5.852545,4.715965 5.854061,4.729187 5.86331,4.860793 5.873743,4.982812 5.868622,4.997297 5.851848,5.213932 5.840883,5.213911 5.836556,5.213888 5.835273,5.213882 5.648789,5.214788 5.559509,5.214159 5.546514,5.213964 5.515064,5.21412 5.511412,5.214188 5.510366,5.213996 5.385142,5.214804 5.334762,5.215747 5.329594,5.216 5.308259,5.217224 5.303328,5.217971 5.284084,5.218257 5.279182,5.218366 5.269013,5.218581 5.219132,5.219999 5.21858,5.269015 5.218364,5.279184 5.218255,5.284086 5.217969,5.30333 5.217222,5.308262 5.215997,5.329596 5.215743,5.334765 5.214802,5.385144 5.215074,5.387467 5.214962,5.394662 5.214636,5.453735 5.213962,5.546515 5.214159,5.559511 5.214787,5.648791 5.21388,5.835273 5.213887,5.836559 5.213909,5.840885 5.21393,5.85185 4.997295,5.868623 4.98281,5.873745 4.860792,5.863312 4.729185,5.854062 4.715963,5.852547 3.058364,5.852547 3.029404,5.855624 2.938973,5.862149 2.829274,5.875776 2.701128,5.88382 2.701067,5.718313 2.701134,5.663544 2.701096,5.648888 2.701106,5.560362 2.701093,5.193682 2.605638,5.193539 2.605638,5.00712 2.605983,4.860686 2.669174,4.860911 2.736297,4.86062 2.79579,4.861046 2.796021,4.729186 2.796061,4.715965 2.796061,3.058365 2.796151,3.029405 2.796173,2.938982 2.734747,2.939037 2.669174,2.938945 2.666099,2.939206 2.605983,2.939186 2.606114,2.806141 2.605769,2.651814 2.605769,2.605771 2.805667,2.605562" style="fill: white" /><polygon type="contour" points="2.938974,13.269554 3.029404,13.276078 3.058364,13.279157 4.715963,13.279157 4.729185,13.277641 4.860792,13.268391 4.98281,13.257959 4.997294,13.26308 5.21393,13.279854 5.213909,13.290818 5.213887,13.295144 5.21388,13.29643 5.214787,13.482912 5.214159,13.572191 5.213962,13.585188 5.214636,13.677967 5.214962,13.73704 5.215074,13.744235 5.214803,13.746558 5.215745,13.796938 5.215996,13.802105 5.217222,13.823442 5.217969,13.828372 5.218255,13.847616 5.218363,13.852518 5.21858,13.862688 5.219131,13.911678 5.269012,13.913123 5.279182,13.913337 5.284085,13.913446 5.303327,13.91373 5.30826,13.914479 5.334762,13.915956 5.385141,13.916898 5.387465,13.916628 5.394661,13.916739 5.453731,13.917063 5.546514,13.917739 5.55951,13.917542 5.648788,13.916916 5.835273,13.917822 5.836556,13.917815 5.840883,13.917793 5.851848,13.917772 5.868621,14.134407 5.873743,14.148892 5.86331,14.270909 5.85406,14.402516 5.852545,14.415738 5.852545,16.073338 5.855622,16.102298 5.870359,16.132914 5.890977,16.298802 5.858253,16.430592 5.662429,16.430392 5.568435,16.430418 5.458487,16.43058 5.19368,16.430605 5.193537,16.526064 5.007117,16.526064 4.860683,16.52572 4.860908,16.462528 4.860619,16.395404 4.861045,16.335911 4.729185,16.33568 4.715964,16.335641 3.058365,16.335641 3.029403,16.335552 2.93898,16.335529 2.939035,16.396954 2.938943,16.462528 2.939204,16.465604 2.939272,16.52563 2.806856,16.525937 2.805668,16.526142 2.605769,16.525932 2.605769,16.479889 2.606114,16.325563 2.605983,16.192517 2.669174,16.192759 2.732606,16.192759 2.734747,16.192667 2.796173,16.192722 2.796151,16.102298 2.796061,16.073338 2.796061,14.415737 2.796021,14.402516 2.79579,14.270655 2.736298,14.271085 2.732606,14.270794 2.669175,14.270794 2.666099,14.270997 2.605983,14.271019 2.605638,14.124584 2.605638,13.938163 2.701093,13.937988 2.701122,13.673213 2.701283,13.563265 2.70131,13.469273 2.701108,13.27345 2.8329,13.240724" style="fill: white" />
</svg>
