<svg width="19.131698" height="19.131699">
<polygon type="contour" points="11.171393,10.51115 11.171393,10.614086 11.171442,10.805649 11.119019,10.805713 10.920251,10.805713 10.920251,10.743526 10.919697,10.510979 10.988997,10.510874" style="fill: white" /><polygon type="contour" points="11.171442,10.988998 11.171393,11.171853 11.084236,11.171853 10.919638,11.171444 10.920144,10.988998 10.920304,10.974997 10.920251,10.919699 10.989503,10.91964 11.171442,10.91964" style="fill: white" /><polygon type="contour" points="10.806309,10.776884 10.806309,10.805681 10.511882,10.805681 10.514796,10.584902 10.515699,10.575566 10.516588,10.51659 10.584899,10.514799 10.805678,10.511886" style="fill: white" /><polygon type="contour" points="10.806154,10.988998 10.805647,11.171444 10.723727,11.171444 10.511148,11.171395 10.511317,11.103914 10.510977,10.919699 10.806265,10.919699" style="fill: white" /><polygon type="contour" points="10.805647,12.306758 10.805653,12.337624 10.805679,12.349884 10.805722,12.366903 10.719129,12.366846 10.66352,12.367941 10.631991,12.368334 10.628679,12.368632 10.609656,12.369157 10.594157,12.36957 10.591351,12.369754 10.563927,12.371243 10.513631,12.367981 10.511971,12.171753 10.511967,12.074399 10.581799,12.074459 10.805647,12.074174" style="fill: white" /><polygon type="contour" points="10.805647,11.737535 10.805743,11.781634 10.805743,11.937831 10.740349,11.937831 10.510927,11.937875 10.510818,11.874949 10.511148,11.73744 10.614085,11.73744" style="fill: white" /><polygon type="contour" points="11.171393,11.807118 11.17169,11.937984 10.988997,11.93793 10.919758,11.937831 10.919638,11.88248 10.919638,11.737535 10.988998,11.737535 11.171393,11.73744" style="fill: white" /><polygon type="contour" points="11.17169,12.073497 11.17169,12.110615 11.171393,12.194088 10.988997,12.193682 10.919697,12.193994 10.919697,12.073624 10.988997,12.073353" style="fill: white" /><polygon type="contour" points="12.339915,12.073503 12.353452,12.073708 12.365543,12.073852 12.365913,12.086611 12.37355,12.373553 12.278126,12.370758 12.25234,12.369825 12.172906,12.367845 12.074456,12.367257 12.074456,12.143889 12.074396,12.074399 12.088257,12.074399 12.171516,12.07418 12.252138,12.07418 12.309064,12.0735" style="fill: white" /><polygon type="contour" points="11.78771,12.07365 11.937872,12.07365 11.937872,12.194043 11.874945,12.193718 11.737438,12.194088 11.737438,12.153058 11.73708,12.073497" style="fill: white" /><polygon type="contour" points="11.937872,11.787711 11.937872,11.937875 11.874945,11.937984 11.73708,11.937984 11.73708,11.874949 11.737438,11.73744 11.807115,11.73744 11.937981,11.737081" style="fill: white" /><polygon type="contour" points="12.194086,11.73744 12.193717,11.874949 12.194042,11.937875 12.073648,11.937875 12.073648,11.787712 12.073494,11.737082 12.110612,11.737082" style="fill: white" /><polygon type="contour" points="12.193678,10.988999 12.194086,11.171395 12.153056,11.171395 12.073493,11.171692 12.073351,10.988998 12.073623,10.919699 12.193991,10.919699" style="fill: white" /><polygon type="contour" points="11.781632,10.91976 11.93783,10.91976 11.937929,10.988998 11.937981,11.171692 11.874946,11.171692 11.737438,11.171394 11.737438,11.084239 11.737533,10.91964" style="fill: white" /><polygon type="contour" points="11.937872,10.586064 11.93783,10.805745 11.781633,10.805745 11.737533,10.805649 11.737533,10.72373 11.737438,10.51115 11.79397,10.511305 11.937872,10.510929" style="fill: white" /><polygon type="contour" points="12.367979,10.513633 12.369157,10.609659 12.368631,10.62868 12.368333,10.632273 12.367746,10.663772 12.366845,10.719131 12.366902,10.805725 12.337621,10.805655 12.074084,10.805655 12.074171,10.74508 12.074456,10.512038 12.17175,10.511974" style="fill: white" /><polygon type="contour" points="12.366845,8.412572 12.368333,8.499431 12.368631,8.503024 12.369156,8.522045 12.369753,8.540351 12.371242,8.567774 12.367979,8.61807 12.243509,8.617524 12.074456,8.619666 12.074456,8.549902 12.074172,8.326055 12.170202,8.326055 12.245607,8.32598 12.366902,8.32598" style="fill: white" /><polygon type="contour" points="11.93783,8.391353 11.937872,8.620775 11.874945,8.620884 11.737438,8.620553 11.737438,8.517616 11.737533,8.326055 11.781633,8.325959 11.93783,8.325959" style="fill: white" /><polygon type="contour" points="11.937929,8.142705 11.93783,8.211944 11.882478,8.212065 11.737533,8.212065 11.737533,8.142704 11.737438,7.960307 11.807114,7.960307 11.937981,7.960013" style="fill: white" /><polygon type="contour" points="12.194086,7.960306 12.193628,8.09519 12.193677,8.142704 12.19399,8.212005 12.073623,8.212005 12.073351,8.142704 12.073494,7.960013 12.110613,7.960013" style="fill: white" /><polygon type="contour" points="12.365913,7.045092 12.365543,7.057852 12.353452,7.057995 12.339916,7.058202 12.314719,7.058202 12.309064,7.058204 12.269455,7.058204 12.074456,7.057245 12.074477,6.959725 12.074477,6.764627 12.172906,6.763859 12.252339,6.761879 12.278126,6.760944 12.37355,6.758151" style="fill: white" /><polygon type="contour" points="12.193717,7.256754 12.194086,7.394264 12.153055,7.394264 12.073494,7.39462 12.073648,7.343989 12.073648,7.19383 12.194042,7.19383" style="fill: white" /><polygon type="contour" points="11.874945,6.937985 11.937872,6.937661 11.937872,7.058054 11.78771,7.058054 11.73708,7.058206 11.73708,7.021089 11.737438,6.937616" style="fill: white" /><polygon type="contour" points="11.787709,7.193829 11.937872,7.193829 11.937981,7.256754 11.937981,7.39462 11.874945,7.39462 11.737438,7.394264 11.737438,7.324587 11.73708,7.19372" style="fill: white" /><polygon type="contour" points="10.628679,6.76307 10.63227,6.763368 10.66352,6.763762 10.71913,6.764855 10.805679,6.764691 10.805653,6.794078 10.805653,7.057619 10.745078,7.057529 10.512036,7.057245 10.511972,6.95995 10.513631,6.763721 10.609655,6.762544" style="fill: white" /><polygon type="contour" points="11.171393,6.978645 11.17169,7.058206 10.988997,7.05835 10.919697,7.058079 10.919697,6.937711 10.988997,6.938023 11.171393,6.937616" style="fill: white" /><polygon type="contour" points="11.17169,7.256754 11.171393,7.394264 11.084237,7.394264 10.919638,7.394169 10.919758,7.350069 10.919758,7.193872 10.988997,7.193774 11.17169,7.19372" style="fill: white" /><polygon type="contour" points="10.805743,7.193872 10.805743,7.350068 10.805647,7.394169 10.723728,7.394169 10.511148,7.394264 10.511303,7.337732 10.510926,7.19383 10.586063,7.19383" style="fill: white" /><polygon type="contour" points="10.80571,8.012681 10.806265,8.212005 10.510977,8.212005 10.510872,8.142704 10.511148,7.960307 10.614085,7.960307 10.805647,7.960259" style="fill: white" /><polygon type="contour" points="11.171393,8.047006 11.171442,8.212065 11.119018,8.212005 10.920251,8.212005 10.920144,8.142705 10.919638,7.960259 10.988997,7.960259 11.171393,7.959851" style="fill: white" /><polygon type="contour" points="10.989503,8.326055 11.171442,8.326055 11.171442,8.407974 11.171393,8.620553 11.103912,8.620385 10.919697,8.620724 10.919697,8.558536 10.920251,8.325991" style="fill: white" /><polygon type="contour" points="10.805679,8.59102 10.805679,8.619818 10.5849,8.616904 10.575564,8.616002 10.516588,8.615112 10.516993,8.561758 10.515699,8.556135 10.514796,8.5468 10.511883,8.326024 10.806309,8.326024" style="fill: white" /><polygon type="contour" points="6.794075,8.32605 7.057617,8.32605 7.057527,8.386624 7.057244,8.619666 6.959948,8.61973 6.76372,8.618069 6.762542,8.522045 6.763068,8.503023 6.763365,8.49971 6.763953,8.467931 6.764851,8.412573 6.764796,8.32598" style="fill: white" /><polygon type="contour" points="7.058348,8.142704 7.058077,8.212005 6.937709,8.212005 6.938022,8.142704 6.937614,7.960307 6.978642,7.960307 7.058205,7.960013" style="fill: white" /><polygon type="contour" points="7.394167,8.326055 7.394167,8.407973 7.394262,8.620553 7.33773,8.620399 7.193828,8.620775 7.193828,8.545638 7.19387,8.325959 7.350066,8.325959" style="fill: white" /><polygon type="contour" points="7.394262,7.960307 7.394262,8.047462 7.394167,8.212065 7.350067,8.211944 7.193871,8.211944 7.193771,8.142704 7.193719,7.960013 7.256753,7.960013" style="fill: white" /><polygon type="contour" points="6.853572,6.760944 6.879359,6.761878 6.958794,6.763859 7.057244,6.764447 7.057244,7.057245 7.043442,7.057305 6.960183,7.057524 6.879562,7.057524 6.822164,7.058204 6.79129,7.058201 6.777645,7.057995 6.765518,7.057852 6.765113,7.045091 6.75815,6.758151" style="fill: white" /><polygon type="contour" points="7.058052,7.343989 7.058205,7.39462 7.021086,7.39462 6.937614,7.394264 6.937983,7.256754 6.937658,7.19383 7.058052,7.19383" style="fill: white" /><polygon type="contour" points="7.394618,7.256754 7.394262,7.394264 7.324584,7.394264 7.193719,7.39462 7.193828,7.34399 7.193828,7.19383 7.256754,7.19372 7.394618,7.19372" style="fill: white" /><polygon type="contour" points="7.394262,6.978644 7.394618,7.058206 7.343988,7.058054 7.193828,7.058054 7.193828,6.937661 7.256754,6.937985 7.394262,6.937616" style="fill: white" /><polygon type="contour" points="8.618069,6.763722 8.619729,6.95995 8.619733,7.057305 8.5499,7.057245 8.326053,7.057529 8.326053,6.824942 8.326048,6.794077 8.326021,6.781817 8.325978,6.764798 8.41257,6.764855 8.46818,6.763762 8.49943,6.763368 8.503021,6.76307 8.522045,6.762543 8.534114,6.762204 8.534494,6.76218 8.540349,6.761947 8.567773,6.760459" style="fill: white" /><polygon type="contour" points="8.142703,6.938023 8.212003,6.937711 8.212003,7.058079 8.142703,7.05835 7.960011,7.058206 7.960011,7.021088 7.960306,6.937616" style="fill: white" /><polygon type="contour" points="8.142703,7.193774 8.211943,7.193873 8.212063,7.249223 8.212063,7.394169 8.142702,7.394169 7.960306,7.394264 7.960306,7.324587 7.960011,7.19372" style="fill: white" /><polygon type="contour" points="8.620882,7.256754 8.620552,7.394264 8.517614,7.394264 8.326053,7.394169 8.325958,7.35007 8.325958,7.193873 8.391351,7.193873 8.620773,7.19383" style="fill: white" /><polygon type="contour" points="8.619201,8.3462 8.61511,8.615112 8.561756,8.614707 8.556133,8.616002 8.546798,8.616904 8.326022,8.619818 8.326022,8.326024 8.619817,8.326024" style="fill: white" /><polygon type="contour" points="8.620552,7.960307 8.620384,8.027788 8.620723,8.212005 8.325989,8.212005 8.326053,8.142705 8.326053,7.960259 8.407971,7.960259" style="fill: white" /><polygon type="contour" points="8.212063,8.142705 8.211943,8.156706 8.212003,8.212005 8.142702,8.212065 7.960256,8.212065 7.960256,8.142705 7.960306,7.960307 8.047461,7.960307 8.212063,7.960259" style="fill: white" /><polygon type="contour" points="8.212003,8.620724 8.142703,8.620829 7.960306,8.620553 7.960306,8.517616 7.960256,8.326055 8.012678,8.325991 8.212003,8.325991" style="fill: white" /><polygon type="contour" points="7.394262,10.51115 7.394262,10.614087 7.394167,10.805649 7.350066,10.805745 7.193871,10.805745 7.193871,10.740351 7.193828,10.510929 7.256753,10.51082" style="fill: white" /><polygon type="contour" points="7.057244,10.581802 7.057527,10.805649 6.961495,10.805649 6.886092,10.805725 6.764796,10.805725 6.764852,10.719131 6.763366,10.632273 6.763067,10.62868 6.762542,10.609659 6.761945,10.591353 6.760457,10.563929 6.76372,10.513633 6.88819,10.514179 7.057244,10.512038" style="fill: white" /><polygon type="contour" points="7.058348,10.988998 7.058205,11.171692 7.021087,11.171692 6.937614,11.171394 6.938071,11.036514 6.938022,10.988998 6.937709,10.919699 7.058077,10.919699" style="fill: white" /><polygon type="contour" points="7.394167,10.988999 7.394262,11.171395 7.324584,11.171395 7.193719,11.171692 7.193771,10.988999 7.193871,10.91976 7.249221,10.91964 7.394167,10.91964" style="fill: white" /><polygon type="contour" points="8.620828,10.988998 8.620552,11.171395 8.517615,11.171395 8.326052,11.171444 8.325989,11.119021 8.325989,10.919699 8.620723,10.919699" style="fill: white" /><polygon type="contour" points="8.346198,10.512502 8.61511,10.51659 8.616902,10.584902 8.619817,10.805681 8.326022,10.805681 8.326022,10.511886" style="fill: white" /><polygon type="contour" points="8.212003,10.805713 8.142703,10.805649 7.960256,10.805649 7.960256,10.72373 7.960306,10.51115 8.027786,10.511319 8.212003,10.51098" style="fill: white" /><polygon type="contour" points="8.012679,10.919699 8.212003,10.919699 8.212063,10.988998 8.212063,11.171444 8.142703,11.171444 7.960306,11.171395 7.960306,11.084239 7.960256,10.91964" style="fill: white" /><polygon type="contour" points="8.212063,11.737535 8.211943,11.781634 8.211943,11.937831 8.142703,11.93793 7.960011,11.937984 7.960011,11.874948 7.960306,11.73744 8.047461,11.73744" style="fill: white" /><polygon type="contour" points="8.620397,11.793972 8.620773,11.937875 8.545637,11.937875 8.325958,11.937831 8.325958,11.781634 8.326053,11.737535 8.407971,11.737535 8.620552,11.73744" style="fill: white" /><polygon type="contour" points="8.386623,12.074174 8.619664,12.074459 8.619729,12.171753 8.618069,12.367981 8.522045,12.369158 8.503021,12.368632 8.499709,12.368334 8.46818,12.367941 8.412571,12.366846 8.326022,12.36701 8.326048,12.337623 8.326048,12.074086" style="fill: white" /><polygon type="contour" points="8.212003,12.073624 8.212003,12.193993 8.142703,12.193681 7.960306,12.194088 7.960306,12.153058 7.960011,12.073497 8.142703,12.073353" style="fill: white" /><polygon type="contour" points="7.394618,12.110616 7.394262,12.194088 7.256754,12.193718 7.193828,12.194043 7.193828,12.07365 7.343988,12.07365 7.394618,12.073497" style="fill: white" /><polygon type="contour" points="7.394262,11.73744 7.394262,11.807116 7.394618,11.937984 7.343988,11.937875 7.193828,11.937875 7.193719,11.874948 7.193719,11.737082 7.256753,11.737082" style="fill: white" /><polygon type="contour" points="7.058052,11.787712 7.058052,11.937875 6.937658,11.937875 6.937982,11.874949 6.937614,11.73744 6.978643,11.73744 7.058205,11.737082" style="fill: white" /><polygon type="contour" points="7.057244,12.074459 7.057222,12.171977 7.057222,12.367076 6.958794,12.367845 6.87936,12.369825 6.853571,12.370759 6.758149,12.373553 6.765113,12.086612 6.765518,12.073852 6.777645,12.073708 6.79129,12.073503 6.816485,12.073503 6.822165,12.0735 6.861772,12.0735" style="fill: white" />
</svg>
