<svg width="19.131698" height="19.131699">
<polygon type="contour" points="10.361017,10.19616 10.361016,10.196066 10.395499,10.196066 10.480531,10.195979 10.48031,10.26451 10.480423,10.361213 10.581736,10.361213 10.628121,10.361261 10.647159,10.361261 10.647169,10.390368 10.648141,10.648142 10.44215,10.647219 10.361815,10.648008 10.360807,10.601045 10.360807,10.554907 10.360947,10.543631 10.361131,10.480424 10.264507,10.48031 10.195977,10.480532 10.195977,10.43898 10.19614,10.292667 10.196064,10.292667 10.196064,10.26451 10.195977,10.195979 10.229907,10.195979" style="fill: white" /><polygon type="contour" points="10.647169,8.741336 10.647159,8.770444 10.480423,8.770444 10.48031,8.867193 10.480531,8.935722 10.438978,8.935722 10.292665,8.935558 10.292665,8.935635 10.264508,8.935635 10.195977,8.935722 10.195977,8.901793 10.196158,8.770684 10.196064,8.770685 10.196064,8.736203 10.195977,8.651171 10.264507,8.651393 10.360947,8.651279 10.360947,8.588071 10.360807,8.530659 10.361003,8.520941 10.361815,8.483696 10.44215,8.484485 10.648141,8.483561" style="fill: white" /><polygon type="contour" points="10.480531,9.254064 10.480258,9.32439 10.480268,9.420602 10.650199,9.420602 10.648369,9.541217 10.648249,9.566202 10.648369,9.591065 10.650199,9.711102 10.480268,9.711102 10.480258,9.807312 10.480531,9.877638 10.438978,9.877638 10.361017,9.877657 10.264507,9.877657 10.195977,9.877638 10.195977,9.842969 10.196336,9.711102 10.196152,9.711102 10.196152,9.324391 10.195977,9.254065 10.229907,9.254065 10.292665,9.254046 10.395499,9.254046" style="fill: white" /><polygon type="contour" points="9.877636,9.254064 9.877636,9.288733 9.878009,9.352891 9.878009,9.807311 9.877635,9.877638 9.842968,9.877638 9.778812,9.87801 9.324388,9.87801 9.254063,9.877638 9.254063,9.842969 9.253691,9.778813 9.253691,9.32439 9.254063,9.254065 9.288732,9.254065 9.352889,9.253693 9.807311,9.253693" style="fill: white" /><polygon type="contour" points="9.594528,8.484178 9.711101,8.484624 9.711101,8.651437 9.807311,8.651444 9.877636,8.651171 9.877636,8.692722 9.877655,8.770685 9.877655,8.867192 9.877636,8.935722 9.842969,8.935722 9.711101,8.935368 9.711101,8.93555 9.324389,8.93555 9.254063,8.935722 9.254063,8.901792 9.254044,8.839037 9.254044,8.736203 9.254063,8.651171 9.324388,8.651444 9.4206,8.651437 9.4206,8.484624 9.536612,8.484178 9.565627,8.483365" style="fill: white" /><polygon type="contour" points="8.689549,8.484485 8.769884,8.483696 8.770893,8.530659 8.770893,8.576795 8.770754,8.588072 8.770568,8.651279 8.867191,8.651393 8.935721,8.651171 8.935721,8.692722 8.935557,8.839038 8.935634,8.839038 8.935634,8.867192 8.935721,8.935722 8.901791,8.935722 8.770682,8.93554 8.770683,8.935635 8.736201,8.935635 8.651169,8.935722 8.65139,8.867193 8.651276,8.770492 8.549963,8.770492 8.503578,8.770444 8.484541,8.770444 8.484531,8.741336 8.483559,8.483561" style="fill: white" /><polygon type="contour" points="8.935721,9.254065 8.935721,9.288733 8.935363,9.420602 8.935547,9.420602 8.935547,9.807311 8.935721,9.877638 8.90179,9.877638 8.839035,9.877657 8.736201,9.877657 8.651169,9.877638 8.651442,9.807312 8.651431,9.711102 8.481501,9.711102 8.48333,9.590486 8.483451,9.565501 8.48333,9.540638 8.481501,9.420602 8.651431,9.420602 8.651442,9.32439 8.651169,9.254065 8.69272,9.254065 8.770683,9.254046 8.867192,9.254046" style="fill: white" /><polygon type="contour" points="8.839036,10.196142 8.839036,10.196066 8.867191,10.196066 8.935721,10.195979 8.935721,10.22991 8.935539,10.361019 8.935634,10.361018 8.935634,10.395501 8.935721,10.480533 8.867191,10.480311 8.770754,10.480424 8.770754,10.543632 8.770893,10.601045 8.770696,10.610763 8.769884,10.648008 8.689549,10.647219 8.483559,10.648142 8.484531,10.390368 8.484541,10.361261 8.651276,10.361261 8.65139,10.26451 8.651169,10.195979 8.69272,10.195979" style="fill: white" /><polygon type="contour" points="9.4206,10.196336 9.4206,10.196153 9.807311,10.196153 9.877636,10.195979 9.877636,10.22991 9.877655,10.292667 9.877655,10.395501 9.877636,10.480533 9.807311,10.48026 9.711101,10.480266 9.711101,10.64708 9.594528,10.647526 9.565501,10.648339 9.536612,10.647526 9.4206,10.64708 9.4206,10.480266 9.324388,10.48026 9.254063,10.480533 9.254063,10.43898 9.254044,10.361018 9.254044,10.264509 9.254063,10.195979 9.288732,10.195979" style="fill: white" />
</svg>
