<svg width="19.131698" height="19.131699">
<polygon type="contour" points="12.050849,10.977519 11.84085,10.977519 11.84085,10.767516 12.050849,10.767516" style="fill: white" /><polygon type="contour" points="12.050849,10.324187 11.84085,10.324187 11.84085,10.114188 12.050849,10.114188" style="fill: white" /><polygon type="contour" points="12.050849,9.670854 11.84085,9.670854 11.84085,9.460851 12.050849,9.460851" style="fill: white" /><polygon type="contour" points="12.050849,9.017516 11.84085,9.017516 11.84085,8.807517 12.050849,8.807517" style="fill: white" /><polygon type="contour" points="12.050849,8.364188 11.84085,8.364188 11.84085,8.154185 12.050849,8.154185" style="fill: white" /><polygon type="contour" points="12.050849,7.71085 11.84085,7.71085 11.84085,7.500851 12.050849,7.500851" style="fill: white" /><polygon type="contour" points="11.630851,7.290852 11.420852,7.290852 11.420852,7.080852 11.630851,7.080852" style="fill: white" /><polygon type="contour" points="10.977517,7.290852 10.767514,7.290852 10.767514,7.080852 10.977517,7.080852" style="fill: white" /><polygon type="contour" points="10.324185,7.290852 10.114186,7.290852 10.114186,7.080852 10.324185,7.080852" style="fill: white" /><polygon type="contour" points="9.670852,7.290852 9.460849,7.290852 9.460849,7.080852 9.670852,7.080852" style="fill: white" /><polygon type="contour" points="9.017514,7.290852 8.807515,7.290852 8.807515,7.080852 9.017514,7.080852" style="fill: white" /><polygon type="contour" points="8.364186,7.290852 8.154183,7.290852 8.154183,7.080852 8.364186,7.080852" style="fill: white" /><polygon type="contour" points="7.710849,7.290852 7.500849,7.290852 7.500849,7.080852 7.710849,7.080852" style="fill: white" /><polygon type="contour" points="7.29085,7.71085 7.080851,7.71085 7.080851,7.500851 7.29085,7.500851" style="fill: white" /><polygon type="contour" points="7.29085,8.364188 7.080851,8.364188 7.080851,8.154185 7.29085,8.154185" style="fill: white" /><polygon type="contour" points="7.29085,9.017516 7.080851,9.017516 7.080851,8.807517 7.29085,8.807517" style="fill: white" /><polygon type="contour" points="7.29085,9.670854 7.080851,9.670854 7.080851,9.460851 7.29085,9.460851" style="fill: white" /><polygon type="contour" points="7.29085,10.324187 7.080851,10.324187 7.080851,10.114188 7.29085,10.114188" style="fill: white" /><polygon type="contour" points="7.29085,10.977519 7.080851,10.977519 7.080851,10.767516 7.29085,10.767516" style="fill: white" /><polygon type="contour" points="7.081966,11.840211 7.185223,11.846685 7.286704,11.844997 7.29149,12.049734 7.292103,12.199284 7.292103,13.754217 7.291115,13.950129 7.288193,14.14264 7.077379,14.142103 5.207785,14.142103 5.181571,14.142277 5.036037,14.143988 5.00098,14.142076 4.989202,14.142499 4.989626,14.130721 4.989707,14.109399 4.989892,14.063619 4.989925,14.03963 4.989598,13.923917 4.989598,12.054321 4.989123,11.843702 5.181572,11.840585 5.377486,11.839599 6.932414,11.839599" style="fill: white" /><polygon type="contour" points="7.29085,11.630853 7.080851,11.630853 7.080851,11.420854 7.29085,11.420854" style="fill: white" /><polygon type="contour" points="7.710849,12.050852 7.500849,12.050852 7.500849,11.840852 7.710849,11.840852" style="fill: white" /><polygon type="contour" points="8.364186,12.050852 8.154183,12.050852 8.154183,11.840852 8.364186,11.840852" style="fill: white" /><polygon type="contour" points="9.017514,12.050852 8.807515,12.050852 8.807515,11.840852 9.017514,11.840852" style="fill: white" /><polygon type="contour" points="9.670852,12.050852 9.460849,12.050852 9.460849,11.840852 9.670852,11.840852" style="fill: white" /><polygon type="contour" points="10.324185,12.050852 10.114186,12.050852 10.114186,11.840852 10.324185,11.840852" style="fill: white" /><polygon type="contour" points="10.977517,12.050852 10.767514,12.050852 10.767514,11.840852 10.977517,11.840852" style="fill: white" /><polygon type="contour" points="11.630851,12.050852 11.420852,12.050852 11.420852,11.840852 11.630851,11.840852" style="fill: white" /><polygon type="contour" points="12.050849,11.630853 11.84085,11.630853 11.84085,11.420854 12.050849,11.420854" style="fill: white" /><polygon type="contour" points="13.950127,11.840585 14.142638,11.843784 14.142101,12.054322 14.142101,13.923916 14.141775,14.039631 14.141808,14.063619 14.142075,14.13072 14.142498,14.142499 14.063616,14.141809 13.950127,14.142277 13.923913,14.142103 12.05432,14.142103 11.843607,14.142482 11.840584,13.950129 11.839597,13.754216 11.839597,12.199284 11.84021,12.049734 11.846684,11.946477 11.844996,11.844997 12.049733,11.840212 12.199283,11.839599 13.754212,11.839599" style="fill: white" /><polygon type="contour" points="14.264602,14.920853 14.054599,14.920853 14.054599,14.710852 14.264602,14.710852" style="fill: white" /><polygon type="contour" points="13.608352,14.920853 13.398349,14.920853 13.398349,14.710852 13.608352,14.710852" style="fill: white" /><polygon type="contour" points="12.952102,14.920853 12.742099,14.920853 12.742099,14.710852 12.952102,14.710852" style="fill: white" /><polygon type="contour" points="12.295852,14.920853 12.085849,14.920853 12.085849,14.710852 12.295852,14.710852" style="fill: white" /><polygon type="contour" points="11.639602,14.920853 11.429599,14.920853 11.429599,14.710852 11.639602,14.710852" style="fill: white" /><polygon type="contour" points="10.983352,14.920853 10.773349,14.920853 10.773349,14.710852 10.983352,14.710852" style="fill: white" /><polygon type="contour" points="10.327102,14.920853 10.117099,14.920853 10.117099,14.710852 10.327102,14.710852" style="fill: white" /><polygon type="contour" points="9.670852,14.920853 9.460849,14.920853 9.460849,14.710852 9.670852,14.710852" style="fill: white" /><polygon type="contour" points="9.014602,14.920853 8.804599,14.920853 8.804599,14.710852 9.014602,14.710852" style="fill: white" /><polygon type="contour" points="8.358351,14.920853 8.148349,14.920853 8.148349,14.710852 8.358351,14.710852" style="fill: white" /><polygon type="contour" points="7.702101,14.920853 7.492099,14.920853 7.492099,14.710852 7.702101,14.710852" style="fill: white" /><polygon type="contour" points="7.045851,14.920853 6.835849,14.920853 6.835849,14.710852 7.045851,14.710852" style="fill: white" /><polygon type="contour" points="6.389601,14.920853 6.179599,14.920853 6.179599,14.710852 6.389601,14.710852" style="fill: white" /><polygon type="contour" points="5.733351,14.920853 5.52335,14.920853 5.52335,14.710852 5.733351,14.710852" style="fill: white" /><polygon type="contour" points="5.0771,14.920853 4.8671,14.920853 4.8671,14.710852 5.0771,14.710852" style="fill: white" /><polygon type="contour" points="4.42085,14.920853 4.21085,14.920853 4.21085,14.710852 4.42085,14.710852" style="fill: white" /><polygon type="contour" points="4.42085,14.264603 4.21085,14.264603 4.21085,14.054602 4.42085,14.054602" style="fill: white" /><polygon type="contour" points="4.42085,13.608353 4.21085,13.608353 4.21085,13.398351 4.42085,13.398351" style="fill: white" /><polygon type="contour" points="4.42085,12.952103 4.21085,12.952103 4.21085,12.742101 4.42085,12.742101" style="fill: white" /><polygon type="contour" points="4.42085,12.295853 4.21085,12.295853 4.21085,12.085851 4.42085,12.085851" style="fill: white" /><polygon type="contour" points="4.42085,11.639603 4.21085,11.639603 4.21085,11.429601 4.42085,11.429601" style="fill: white" /><polygon type="contour" points="4.42085,10.983354 4.21085,10.983354 4.210851,10.842951 4.210851,10.773351 4.42085,10.773351" style="fill: white" /><polygon type="contour" points="4.42085,10.327104 4.21085,10.327104 4.21085,10.117101 4.42085,10.117101" style="fill: white" /><polygon type="contour" points="4.42085,9.670854 4.21085,9.670854 4.21085,9.460851 4.42085,9.460851" style="fill: white" /><polygon type="contour" points="4.42085,9.014604 4.21085,9.014604 4.21085,8.804601 4.42085,8.804601" style="fill: white" /><polygon type="contour" points="4.42085,8.358353 4.21085,8.358353 4.21085,8.14835 4.42085,8.14835" style="fill: white" /><polygon type="contour" points="4.42085,7.702103 4.21085,7.702103 4.21085,7.492101 4.42085,7.492101" style="fill: white" /><polygon type="contour" points="4.420849,6.90545 4.420849,7.045853 4.21085,7.045853 4.21085,6.835851 4.42085,6.835851" style="fill: white" /><polygon type="contour" points="4.42085,6.389603 4.21085,6.389603 4.21085,6.179601 4.42085,6.179601" style="fill: white" /><polygon type="contour" points="4.42085,5.733353 4.21085,5.733353 4.21085,5.523352 4.42085,5.523352" style="fill: white" /><polygon type="contour" points="4.42085,4.420852 4.21085,4.420852 4.21085,4.210852 4.42085,4.210852" style="fill: white" /><polygon type="contour" points="4.42085,5.077102 4.21085,5.077102 4.21085,4.867102 4.42085,4.867102" style="fill: white" /><polygon type="contour" points="5.068083,4.989893 5.181571,4.989427 5.207786,4.9896 7.07738,4.9896 7.288093,4.989223 7.291115,5.181573 7.292103,5.37749 7.292103,6.932417 7.29149,7.081969 7.285016,7.185226 7.286704,7.286707 7.081966,7.291492 6.932414,7.292105 5.377487,7.292105 5.181572,7.291117 4.989062,7.287919 4.989598,7.077381 4.989598,5.207788 4.989925,5.092071 4.989892,5.068084 4.989626,5.000981 4.989202,4.989203" style="fill: white" /><polygon type="contour" points="5.0771,4.420852 4.8671,4.420852 4.8671,4.210852 5.0771,4.210852" style="fill: white" /><polygon type="contour" points="5.733351,4.420852 5.52335,4.420852 5.52335,4.210852 5.733351,4.210852" style="fill: white" /><polygon type="contour" points="6.389601,4.420852 6.179599,4.420852 6.179599,4.210852 6.389601,4.210852" style="fill: white" /><polygon type="contour" points="7.045851,4.420852 6.835849,4.420852 6.835849,4.210852 7.045851,4.210852" style="fill: white" /><polygon type="contour" points="7.702101,4.420852 7.492099,4.420852 7.492099,4.210852 7.702101,4.210852" style="fill: white" /><polygon type="contour" points="8.358351,4.420852 8.148349,4.420852 8.148349,4.210852 8.358351,4.210852" style="fill: white" /><polygon type="contour" points="9.014602,4.420852 8.804599,4.420852 8.804599,4.210852 9.014602,4.210852" style="fill: white" /><polygon type="contour" points="9.670852,4.420852 9.460849,4.420852 9.460849,4.210852 9.670852,4.210852" style="fill: white" /><polygon type="contour" points="10.327102,4.420852 10.117099,4.420852 10.117099,4.210852 10.327102,4.210852" style="fill: white" /><polygon type="contour" points="10.983352,4.420852 10.773349,4.420852 10.773349,4.210852 10.983352,4.210852" style="fill: white" /><polygon type="contour" points="11.639602,4.420852 11.429599,4.420852 11.429599,4.210852 11.639602,4.210852" style="fill: white" /><polygon type="contour" points="12.295852,4.420852 12.085849,4.420852 12.085849,4.210852 12.295852,4.210852" style="fill: white" /><polygon type="contour" points="12.952102,4.420852 12.742099,4.420852 12.742099,4.210852 12.952102,4.210852" style="fill: white" /><polygon type="contour" points="13.608352,4.420852 13.398349,4.420852 13.398349,4.210852 13.608352,4.210852" style="fill: white" /><polygon type="contour" points="14.13072,4.989627 14.142498,4.989203 14.142075,5.000981 14.141992,5.022303 14.141808,5.068083 14.141775,5.092071 14.142101,5.207788 14.142101,7.077381 14.142577,7.288001 13.950127,7.291117 13.754213,7.292105 12.199283,7.292105 12.049733,7.291492 11.946476,7.285019 11.844996,7.286707 11.84021,7.081969 11.839597,6.932417 11.839597,5.377489 11.840584,5.181573 11.843507,4.989064 12.05432,4.9896 13.923913,4.9896 13.950127,4.989426 14.065929,4.988097 14.095664,4.987717" style="fill: white" /><polygon type="contour" points="14.264602,4.420852 14.054599,4.420852 14.054599,4.210852 14.264602,4.210852" style="fill: white" /><polygon type="contour" points="14.920852,4.420852 14.710849,4.420852 14.710849,4.210852 14.920852,4.210852" style="fill: white" /><polygon type="contour" points="14.920852,5.077102 14.710849,5.077102 14.710849,4.867102 14.920852,4.867102" style="fill: white" /><polygon type="contour" points="14.920852,5.733353 14.710849,5.733353 14.710849,5.523352 14.920852,5.523352" style="fill: white" /><polygon type="contour" points="14.920852,6.389603 14.710849,6.389603 14.710849,6.179601 14.920852,6.179601" style="fill: white" /><polygon type="contour" points="14.920852,7.045853 14.710849,7.045853 14.710849,6.835851 14.920852,6.835851" style="fill: white" /><polygon type="contour" points="14.920852,7.702103 14.710849,7.702103 14.710849,7.492101 14.920852,7.492101" style="fill: white" /><polygon type="contour" points="14.920852,8.358353 14.710849,8.358353 14.710849,8.14835 14.920852,8.14835" style="fill: white" /><polygon type="contour" points="14.920852,9.014604 14.710849,9.014604 14.710849,8.804601 14.920852,8.804601" style="fill: white" /><polygon type="contour" points="14.920852,9.670854 14.710849,9.670854 14.710849,9.460851 14.920852,9.460851" style="fill: white" /><polygon type="contour" points="14.920852,10.327104 14.710849,10.327104 14.710849,10.117101 14.920852,10.117101" style="fill: white" /><polygon type="contour" points="14.920852,10.983354 14.710849,10.983354 14.710849,10.773351 14.920852,10.773351" style="fill: white" /><polygon type="contour" points="14.920852,11.639603 14.710849,11.639603 14.710849,11.429601 14.920852,11.429601" style="fill: white" /><polygon type="contour" points="14.920852,12.295853 14.710849,12.295853 14.710849,12.085851 14.920852,12.085851" style="fill: white" /><polygon type="contour" points="14.920852,12.952103 14.710849,12.952103 14.710849,12.742101 14.920852,12.742101" style="fill: white" /><polygon type="contour" points="14.920852,13.608353 14.710849,13.608353 14.710849,13.398351 14.920852,13.398351" style="fill: white" /><polygon type="contour" points="14.920852,14.264603 14.710849,14.264603 14.710849,14.054602 14.920852,14.054602" style="fill: white" /><polygon type="contour" points="14.920852,14.920853 14.710849,14.920853 14.710849,14.710852 14.920852,14.710852" style="fill: white" />
</svg>
