<svg width="19.131698" height="19.131699">
<polygon type="contour" points="8.805192,9.241171 8.840797,9.241171 8.840625,9.310673 8.840625,9.711102 8.840409,9.711102 8.840797,9.855665 8.840797,9.890533 8.768862,9.890641 8.660676,9.890641 8.588203,9.890533 8.548423,9.890533 8.548541,9.860577 8.548419,9.711102 8.380501,9.711102 8.379341,9.604853 8.37953,9.565501 8.380632,9.447802 8.380501,9.420602 8.548747,9.420602 8.548389,9.310674 8.548423,9.241171 8.627544,9.241064 8.739208,9.241064" style="fill: white" /><polygon type="contour" points="8.52511,8.379299 8.547208,8.380174 8.558457,8.38032 8.658269,8.379069 8.659343,8.410676 8.659343,8.440989 8.659521,8.442459 8.660291,8.478011 8.660593,8.548469 8.768862,8.548269 8.840797,8.548424 8.84071,8.627545 8.84071,8.660678 8.840606,8.660678 8.840797,8.805195 8.840797,8.8408 8.768863,8.840712 8.739209,8.840712 8.739209,8.840616 8.588203,8.8408 8.548423,8.8408 8.548502,8.810178 8.548122,8.660594 8.38154,8.660594 8.381486,8.625904 8.380977,8.592671 8.377733,8.490011 8.377406,8.482113 8.375268,8.461073 8.375054,8.375055" style="fill: white" /><polygon type="contour" points="9.607321,8.380866 9.711101,8.381707 9.711101,8.455415 9.711808,8.54875 9.821029,8.54839 9.890532,8.548424 9.89064,8.627545 9.89064,8.739211 9.890532,8.805195 9.890532,8.8408 9.821028,8.840627 9.420599,8.840627 9.420595,8.84041 9.276036,8.8408 9.241168,8.8408 9.241061,8.768865 9.241061,8.660678 9.241168,8.588203 9.241168,8.548424 9.271123,8.548542 9.4206,8.548422 9.4206,8.381707 9.43882,8.38111 9.566198,8.379561" style="fill: white" /><polygon type="contour" points="9.855664,9.241171 9.890532,9.241171 9.89092,9.310673 9.89092,9.791521 9.890532,9.855666 9.890532,9.890533 9.821029,9.890921 9.34018,9.890921 9.276035,9.890533 9.241168,9.890533 9.24078,9.82103 9.24078,9.340182 9.241168,9.276037 9.241168,9.241171 9.310671,9.240783 9.79152,9.240783" style="fill: white" /><polygon type="contour" points="10.750722,8.592672 10.750214,8.625904 10.75016,8.660594 10.583236,8.660594 10.583433,8.768866 10.583277,8.8408 10.504155,8.840712 10.471024,8.840712 10.471024,8.840607 10.326506,8.8408 10.290902,8.8408 10.290991,8.768865 10.290991,8.739211 10.291087,8.739211 10.290902,8.588204 10.290902,8.548424 10.321521,8.548503 10.471108,8.548126 10.471407,8.47801 10.47218,8.442459 10.472358,8.410676 10.473431,8.379069 10.573243,8.38032 10.606589,8.379299 10.756646,8.375055" style="fill: white" /><polygon type="contour" points="10.543498,9.241171 10.583277,9.241171 10.58316,9.271125 10.583281,9.420602 10.751199,9.420602 10.752359,9.52685 10.75217,9.566202 10.751068,9.683901 10.751199,9.711102 10.582953,9.711102 10.583312,9.821029 10.583277,9.890533 10.504156,9.890641 10.392491,9.890641 10.326506,9.890533 10.290902,9.890533 10.291076,9.821029 10.291076,9.420602 10.291294,9.420602 10.290902,9.276037 10.290902,9.241171 10.362837,9.241064 10.471023,9.241064" style="fill: white" /><polygon type="contour" points="10.583199,10.321523 10.583578,10.47111 10.75016,10.47111 10.750214,10.505799 10.750722,10.539032 10.753966,10.641692 10.754292,10.64959 10.756431,10.67063 10.756646,10.756649 10.606589,10.752404 10.584492,10.75153 10.573242,10.751384 10.473431,10.752634 10.472358,10.721029 10.472358,10.690715 10.472179,10.689244 10.471407,10.653693 10.471106,10.583234 10.362837,10.583435 10.290902,10.58328 10.290991,10.504158 10.290991,10.471026 10.291096,10.471026 10.290902,10.326508 10.290902,10.290903 10.362837,10.290993 10.392491,10.290993 10.392491,10.29109 10.543497,10.290903 10.583277,10.290903" style="fill: white" /><polygon type="contour" points="9.89064,10.362838 9.89064,10.471025 9.890532,10.543501 9.890532,10.58328 9.860576,10.583163 9.711101,10.58328 9.711101,10.749998 9.692878,10.750594 9.565501,10.752143 9.524379,10.750839 9.4206,10.749998 9.4206,10.582954 9.310672,10.583313 9.241168,10.58328 9.241061,10.504158 9.241061,10.392493 9.241168,10.326508 9.241168,10.290903 9.310671,10.291077 9.711101,10.291077 9.711101,10.291295 9.855663,10.290903 9.890532,10.290903" style="fill: white" /><polygon type="contour" points="8.84071,10.362839 8.84071,10.392493 8.840615,10.392493 8.840797,10.543501 8.840797,10.58328 8.810176,10.583202 8.660591,10.583576 8.660291,10.653692 8.659521,10.689245 8.659343,10.721028 8.658269,10.752634 8.558458,10.751384 8.52511,10.752404 8.375054,10.756649 8.380977,10.539031 8.381486,10.505799 8.38154,10.47111 8.548467,10.47111 8.548267,10.362839 8.548423,10.290903 8.627544,10.290993 8.660676,10.290993 8.660676,10.2911 8.805192,10.290903 8.840797,10.290903" style="fill: white" />
</svg>
