<svg width="19.131698" height="19.131699">
<polygon type="contour" points="8.756454,8.634566 8.93413,8.633738 8.936159,8.695801 8.936268,8.702431 8.936953,8.802216 8.996489,8.802505 9.064797,8.802125 9.064708,8.903258 9.064708,8.973533 9.064797,9.030593 9.064797,9.064798 8.996489,9.064709 8.937078,9.064709 8.852515,9.064798 8.802123,9.064798 8.801905,9.037466 8.80267,8.93704 8.635829,8.93704 8.635815,8.900339 8.635349,8.841186 8.634212,8.737964 8.633791,8.727502 8.630923,8.630925" style="fill: white" /><polygon type="contour" points="9.064893,9.360131 9.064893,9.748738 9.064797,9.805695 9.064797,9.839117 8.996489,9.83873 8.937079,9.83873 8.852514,9.839117 8.802123,9.839117 8.801919,9.812156 8.802767,9.711102 8.631902,9.711102 8.631665,9.649857 8.632068,9.566202 8.632285,9.500282 8.631902,9.420602 8.802288,9.420602 8.802554,9.360132 8.802123,9.292587 8.903256,9.292974 8.97353,9.292974 9.030593,9.292587 9.064797,9.292587" style="fill: white" /><polygon type="contour" points="10.497909,8.727502 10.497488,8.737964 10.49635,8.841186 10.495886,8.900339 10.495872,8.93704 10.329485,8.93704 10.329198,8.996491 10.329578,9.064798 10.228443,9.064709 10.158169,9.064709 10.101107,9.064798 10.066904,9.064798 10.066993,8.996491 10.066993,8.93708 10.066904,8.852517 10.066904,8.802125 10.094235,8.801907 10.195429,8.802678 10.195429,8.702431 10.197571,8.633738 10.375245,8.634566 10.500776,8.630925" style="fill: white" /><polygon type="contour" points="9.693086,8.635353 9.711101,8.635872 9.711101,8.80229 9.771569,8.802556 9.839115,8.802125 9.838729,8.903257 9.838729,8.973533 9.839115,9.030593 9.839115,9.064797 9.771569,9.064895 9.382963,9.064895 9.326007,9.064798 9.292585,9.064798 9.292971,8.996491 9.292971,8.937081 9.292585,8.852517 9.292585,8.802125 9.319545,8.801921 9.4206,8.802769 9.4206,8.635816 9.438528,8.635352 9.466255,8.634042 9.5655,8.63215" style="fill: white" /><polygon type="contour" points="9.838858,9.360131 9.838858,9.748739 9.839115,9.805694 9.839115,9.839117 9.77157,9.83886 9.382962,9.83886 9.326007,9.839117 9.292585,9.839117 9.292839,9.771571 9.292839,9.382964 9.292585,9.326009 9.292585,9.292587 9.36013,9.292841 9.748738,9.292841 9.805693,9.292587 9.839115,9.292587" style="fill: white" /><polygon type="contour" points="10.329782,9.319547 10.328933,9.420602 10.499798,9.420602 10.500034,9.481846 10.499629,9.565502 10.499414,9.631421 10.499798,9.711102 10.329412,9.711102 10.329147,9.771571 10.329578,9.839117 10.228444,9.83873 10.158168,9.83873 10.101106,9.839117 10.066904,9.839117 10.066808,9.771571 10.066808,9.382965 10.066904,9.326008 10.066904,9.292587 10.135211,9.292974 10.19462,9.292974 10.279185,9.292587 10.329578,9.292587" style="fill: white" /><polygon type="contour" points="10.329795,10.094237 10.32903,10.194664 10.495872,10.194664 10.495886,10.231363 10.496351,10.290516 10.497487,10.393738 10.49791,10.404201 10.500777,10.500779 10.375245,10.497138 10.197571,10.497965 10.195542,10.435902 10.195429,10.429271 10.194747,10.329487 10.13521,10.329199 10.066904,10.32958 10.066993,10.228445 10.066993,10.158171 10.066904,10.101109 10.066904,10.066906 10.135211,10.066996 10.19462,10.066996 10.279185,10.066906 10.329577,10.066906" style="fill: white" /><polygon type="contour" points="9.805693,10.066906 9.839115,10.066906 9.838729,10.135212 9.838729,10.194622 9.839115,10.279187 9.839115,10.329579 9.812154,10.329784 9.711101,10.328935 9.711101,10.495887 9.693086,10.496351 9.665224,10.497661 9.565795,10.499552 9.438527,10.49635 9.4206,10.495831 9.4206,10.329414 9.36013,10.329149 9.292585,10.32958 9.292971,10.228445 9.292971,10.158171 9.292585,10.101109 9.292585,10.066906 9.360129,10.06681 9.748737,10.06681" style="fill: white" /><polygon type="contour" points="9.064708,10.135212 9.064708,10.194622 9.064797,10.279186 9.064797,10.32958 9.037465,10.329798 8.936268,10.329026 8.936268,10.429271 8.93413,10.497965 8.756454,10.497137 8.630923,10.500779 8.63379,10.404201 8.634212,10.393739 8.635348,10.290516 8.635815,10.231364 8.635829,10.194664 8.802215,10.194664 8.802502,10.135212 8.802123,10.066906 8.903255,10.066996 8.97353,10.066996 9.030592,10.066906 9.064797,10.066906" style="fill: white" />
</svg>
