<svg width="19.131698" height="19.131699">
<polygon type="contour" points="7.892165,11.239679 7.892166,11.24188 7.892166,11.432979 7.892165,11.436018 7.88982,11.436026 7.816794,11.436026 7.816794,11.518607 7.816785,11.520775 7.81594,11.527438 7.815865,11.605587 7.786209,11.605663 7.515073,11.616629 7.515223,11.479518 7.526276,11.315117 7.528269,11.315087 7.547426,11.314856 7.608876,11.314908 7.695677,11.314908 7.695677,11.241879 7.695685,11.239535 7.892165,11.239535" style="fill: white" /><polygon type="contour" points="9.014014,11.239535 9.014012,11.239674 9.014005,11.241879 9.014005,11.432979 9.014012,11.436018 9.013843,11.436018 9.002382,11.43603 8.894836,11.43603 8.894836,11.513029 8.894795,11.515561 8.894799,11.519654 8.894836,11.528366 8.895177,11.598351 8.895134,11.604947 8.877797,11.604884 8.6011,11.604593 8.600806,11.522325 8.600806,11.436024 8.518421,11.436024 8.516306,11.436018 8.516306,11.435826 8.516305,11.432979 8.516305,11.241879 8.516306,11.239535 8.516473,11.239535 8.51842,11.239539 8.5512,11.23952 9.002381,11.23952" style="fill: white" /><polygon type="contour" points="8.516468,10.117691 8.51842,10.117709 8.551199,10.117739 9.002382,10.117739 9.014012,10.117691 9.014012,10.117877 9.013964,10.129321 9.013964,10.580502 9.013994,10.61328 9.014014,10.615396 9.013818,10.615396 9.002381,10.615375 8.551199,10.615375 8.518421,10.615381 8.516306,10.615396 8.516306,10.615228 8.516321,10.61328 8.516327,10.580502 8.516327,10.129321 8.516306,10.117689" style="fill: white" /><polygon type="contour" points="7.892165,10.117885 7.892181,10.12932 7.892181,10.580501 7.892162,10.613281 7.892165,10.615396 7.892019,10.615396 7.889821,10.615397 7.698721,10.615397 7.695685,10.615396 7.695679,10.61328 7.695679,10.530895 7.609377,10.530895 7.552368,10.53066 7.527109,10.530601 7.527031,10.455733 7.526799,10.236533 7.603336,10.236866 7.695672,10.236866 7.695672,10.12932 7.695684,10.117859 7.695684,10.117691 7.695867,10.117691 7.698722,10.117698 7.88982,10.117698 7.892165,10.117689" style="fill: white" /><polygon type="contour" points="7.65634,7.516183 7.786209,7.526041 7.815864,7.526117 7.816785,7.610928 7.816785,7.695679 7.889821,7.695679 7.892165,7.695686 7.892165,7.695877 7.892166,7.698723 7.892166,7.889822 7.892165,7.892167 7.892019,7.892167 7.889821,7.892168 7.698721,7.892168 7.695685,7.892167 7.695677,7.889822 7.695677,7.816796 7.608876,7.816796 7.547426,7.816848 7.526277,7.816592 7.526283,7.810483 7.515073,7.515074" style="fill: white" /><polygon type="contour" points="7.892165,8.516308 7.892165,8.516474 7.892162,8.518423 7.892181,8.551201 7.892181,9.002383 7.892165,9.014016 7.892025,9.014015 7.889821,9.014007 7.698722,9.014007 7.695684,9.014015 7.695684,9.013845 7.695672,9.002383 7.695672,8.894838 7.603336,8.894838 7.533349,8.895179 7.526799,8.895171 7.526817,8.877799 7.527109,8.601101 7.609376,8.600807 7.695679,8.600807 7.695679,8.518422 7.695685,8.516308 7.695875,8.516308 7.698722,8.516307 7.88982,8.516307" style="fill: white" /><polygon type="contour" points="8.518421,8.516323 8.551199,8.516329 9.002381,8.516329 9.014014,8.516308 9.014011,8.51647 9.013994,8.518422 9.013964,8.551201 9.013964,9.002384 9.014012,9.014015 9.013824,9.014015 9.002382,9.013966 8.551199,9.013966 8.518421,9.013996 8.516306,9.014016 8.516306,9.01382 8.516327,9.002383 8.516327,8.551201 8.516321,8.518423 8.516306,8.516308 8.516473,8.516308" style="fill: white" /><polygon type="contour" points="8.895133,7.526758 8.894835,7.603338 8.894791,7.610885 8.894836,7.618674 8.894836,7.695674 9.002382,7.695674 9.013843,7.695686 9.014012,7.695686 9.014012,7.695869 9.014005,7.698723 9.014005,7.889822 9.014014,7.892167 9.013817,7.892167 9.002382,7.892183 8.5512,7.892183 8.51842,7.892164 8.516306,7.892167 8.516306,7.892021 8.516305,7.889822 8.516305,7.698723 8.516306,7.695686 8.518421,7.69568 8.600806,7.69568 8.600806,7.609379 8.60104,7.55237 8.6011,7.527111 8.877797,7.52682 8.893289,7.526751" style="fill: white" /><polygon type="contour" points="10.129319,8.516329 10.5805,8.516329 10.613278,8.516323 10.615394,8.516308 10.615394,8.516475 10.615379,8.518423 10.615373,8.551201 10.615373,9.002383 10.615394,9.014016 10.615232,9.014015 10.613278,9.013995 10.5805,9.013966 10.129318,9.013966 10.117688,9.014015 10.117688,9.013826 10.117737,9.002384 10.117737,8.551201 10.117707,8.518423 10.117687,8.516308 10.117882,8.516308" style="fill: white" /><polygon type="contour" points="10.253902,7.52682 10.530599,7.527111 10.530893,7.609378 10.530893,7.69568 10.613278,7.69568 10.615394,7.695686 10.615394,7.695877 10.615395,7.698723 10.615395,7.889822 10.615394,7.892167 10.615227,7.892167 10.613278,7.892164 10.580499,7.892183 10.129318,7.892183 10.117687,7.892167 10.117688,7.892027 10.117696,7.889823 10.117696,7.698724 10.117688,7.695686 10.117857,7.695686 10.129318,7.695674 10.236864,7.695674 10.236864,7.618674 10.236905,7.616142 10.236901,7.612049 10.236863,7.603337 10.236523,7.533353 10.236566,7.526758" style="fill: white" /><polygon type="contour" points="11.616476,7.652185 11.605421,7.816587 11.60343,7.816616 11.584272,7.816848 11.522822,7.816796 11.436024,7.816796 11.436024,7.889822 11.436016,7.892167 11.435824,7.892167 11.432978,7.892168 11.241877,7.892168 11.239533,7.892167 11.239533,7.695686 11.241877,7.695679 11.314906,7.695679 11.314906,7.613096 11.314916,7.610927 11.315758,7.604265 11.315833,7.526118 11.345488,7.526042 11.616628,7.515075" style="fill: white" /><polygon type="contour" points="11.436016,8.516308 11.436022,8.518422 11.436022,8.600807 11.522322,8.600807 11.57933,8.601041 11.604592,8.601101 11.604668,8.675968 11.604901,8.895171 11.528363,8.894838 11.436028,8.894838 11.436028,9.002383 11.436016,9.013845 11.436016,9.014015 11.435833,9.014015 11.432977,9.014007 11.241877,9.014007 11.239533,9.014016 11.239533,9.01382 11.239518,9.002383 11.239518,8.551201 11.239537,8.518422 11.239533,8.516308 11.239677,8.516308 11.241878,8.516307 11.432977,8.516307" style="fill: white" /><polygon type="contour" points="11.239672,10.117691 11.241877,10.117698 11.432977,10.117698 11.436016,10.117691 11.436016,10.117859 11.436028,10.12932 11.436028,10.236866 11.528363,10.236866 11.604901,10.236533 11.604884,10.253903 11.604592,10.530601 11.522322,10.530895 11.436022,10.530895 11.436022,10.61328 11.436016,10.615396 11.435824,10.615396 11.432978,10.615397 11.241877,10.615397 11.239533,10.615396 11.239533,10.615228 11.239537,10.613281 11.239518,10.580501 11.239518,10.129321 11.239533,10.117689" style="fill: white" /><polygon type="contour" points="10.615394,10.117884 10.615373,10.129321 10.615373,10.580502 10.615379,10.61328 10.615394,10.615396 10.615226,10.615396 10.613278,10.615381 10.5805,10.615375 10.129319,10.615375 10.117687,10.615396 10.117687,10.615234 10.117707,10.61328 10.117737,10.580502 10.117737,10.129321 10.117688,10.117691 10.117875,10.117691 10.129319,10.117739 10.5805,10.117739 10.613278,10.117709 10.615394,10.117689" style="fill: white" /><polygon type="contour" points="10.613279,11.239539 10.615394,11.239535 10.615394,11.239679 10.615395,11.24188 10.615395,11.432979 10.615394,11.436018 10.613278,11.436024 10.530893,11.436024 10.530893,11.522326 10.53066,11.579331 10.530599,11.604593 10.253902,11.604884 10.238409,11.604953 10.236566,11.604947 10.236864,11.528365 10.236909,11.520818 10.236864,11.513029 10.236864,11.43603 10.129318,11.43603 10.117857,11.436018 10.117688,11.436018 10.117688,11.435835 10.117696,11.432979 10.117696,11.241879 10.117687,11.239535 10.117882,11.239535 10.129319,11.23952 10.580499,11.23952" style="fill: white" /><polygon type="contour" points="11.436024,11.241879 11.436024,11.314908 11.522822,11.314908 11.584272,11.314856 11.605421,11.315111 11.605416,11.321219 11.616627,11.616629 11.475359,11.615521 11.345488,11.605663 11.315834,11.605587 11.314916,11.520776 11.314916,11.436026 11.241877,11.436026 11.239533,11.436018 11.239533,11.239535 11.436016,11.239535" style="fill: white" />
</svg>
