<svg width="19.131698" height="19.131699">
<polygon type="contour" points="8.629086,8.537165 8.667149,8.538257 8.669481,8.538521 8.827774,8.536966 8.831003,8.614389 8.831003,8.706929 8.949396,8.70641 8.949396,8.731542 8.949476,8.850066 8.949396,8.949399 8.930226,8.949399 8.854963,8.949467 8.854962,8.949467 8.839633,8.94948 8.706409,8.949399 8.706926,8.831181 8.565923,8.831181 8.552869,8.831198 8.540181,8.831198 8.540201,8.815604 8.539729,8.762793 8.537917,8.652262 8.534418,8.534421" style="fill: white" /><polygon type="contour" points="9.830757,10.182305 9.830757,10.201473 9.830847,10.292068 9.830757,10.425294 9.711101,10.425567 9.711101,10.591477 9.703459,10.591513 9.677016,10.592226 9.62177,10.59462 9.565713,10.59562 9.454519,10.592225 9.428205,10.591513 9.4206,10.591453 9.4206,10.425567 9.300943,10.425294 9.300943,10.400161 9.300853,10.281638 9.300943,10.182305 9.320536,10.182305 9.397577,10.182279 9.744858,10.182279" style="fill: white" /><polygon type="contour" points="10.425291,10.182305 10.424773,10.300524 10.565777,10.300524 10.578831,10.300507 10.591519,10.300507 10.5915,10.316101 10.591971,10.368909 10.593783,10.479438 10.597281,10.597283 10.502613,10.594538 10.46455,10.593446 10.462218,10.593183 10.303927,10.594738 10.300698,10.517314 10.300698,10.424774 10.182304,10.425294 10.182304,10.400161 10.182223,10.281638 10.182304,10.182305 10.201473,10.182305 10.276737,10.182237 10.276738,10.182237 10.292067,10.182223" style="fill: white" /><polygon type="contour" points="10.425291,9.300945 10.425565,9.420602 10.594755,9.420602 10.59456,9.461759 10.596188,9.56599 10.59456,9.669745 10.594755,9.711102 10.425565,9.711102 10.425291,9.830759 10.400158,9.830759 10.300408,9.830833 10.300407,9.830833 10.281637,9.830846 10.182304,9.830759 10.182304,9.811164 10.182277,9.734125 10.182277,9.386845 10.182304,9.300945 10.201473,9.300945 10.276737,9.300871 10.276738,9.300871 10.292067,9.300855" style="fill: white" /><polygon type="contour" points="10.593783,8.652262 10.591971,8.762793 10.5915,8.815604 10.591519,8.831198 10.578831,8.831198 10.565777,8.831181 10.424773,8.831181 10.425291,8.949399 10.400158,8.949399 10.281637,8.949479 10.182304,8.949399 10.182304,8.930229 10.182236,8.854966 10.182236,8.854965 10.182222,8.839636 10.182304,8.70641 10.300636,8.706929 10.300697,8.614389 10.301583,8.606702 10.303927,8.536966 10.462218,8.538521 10.46455,8.538257 10.502613,8.537165 10.597281,8.534421" style="fill: white" /><polygon type="contour" points="9.677017,8.539479 9.703458,8.54019 9.711101,8.540226 9.711101,8.706134 9.830757,8.70641 9.830757,8.731542 9.830832,8.831295 9.830832,8.831296 9.830846,8.850066 9.830757,8.949399 9.811163,8.949399 9.734124,8.949425 9.386843,8.949425 9.300943,8.949399 9.300943,8.930229 9.300844,8.831295 9.300852,8.839636 9.300942,8.70641 9.4206,8.706134 9.4206,8.540227 9.428205,8.540191 9.45452,8.539479 9.509501,8.537083 9.5655,8.536082" style="fill: white" /><polygon type="contour" points="9.397577,9.300978 9.744857,9.300978 9.830757,9.300945 9.830757,9.320539 9.830723,9.397578 9.830723,9.744859 9.830757,9.830759 9.811162,9.830759 9.734124,9.830726 9.386843,9.830726 9.300943,9.830759 9.300943,9.811163 9.300977,9.734125 9.300977,9.386844 9.300943,9.300945 9.320537,9.300945" style="fill: white" /><polygon type="contour" points="8.949396,9.300945 8.949396,9.320538 8.949423,9.397579 8.949423,9.744858 8.949396,9.830759 8.930226,9.830759 8.839633,9.830848 8.706409,9.830759 8.706131,9.711102 8.536945,9.711102 8.53714,9.669944 8.535512,9.565713 8.53714,9.461958 8.536945,9.420602 8.706131,9.420602 8.706409,9.300945 8.731541,9.300945 8.850063,9.300857" style="fill: white" /><polygon type="contour" points="8.949396,10.182305 8.949396,10.201474 8.949464,10.276738 8.949464,10.276739 8.949477,10.292068 8.949396,10.425294 8.831064,10.424774 8.831003,10.517314 8.830114,10.525001 8.827774,10.594738 8.669481,10.593183 8.667149,10.593446 8.629086,10.594538 8.534419,10.597283 8.537917,10.479438 8.53973,10.368909 8.540201,10.316101 8.540181,10.300507 8.552869,10.300507 8.565923,10.300524 8.706926,10.300524 8.706409,10.182305 8.731541,10.182305 8.850063,10.182224" style="fill: white" />
</svg>
