<svg width="19.131698" height="19.131699">
<polygon type="contour" points="11.054416,8.275727 11.053618,8.307982 11.053623,8.349884 11.013744,8.349884 10.974307,8.349813 10.88596,8.349813 10.885996,8.479382 10.886097,8.542395 10.84579,8.542395 10.781458,8.542638 10.652319,8.542638 10.589307,8.542395 10.589307,8.50585 10.589061,8.446978 10.589061,8.314506 10.589307,8.245605 10.652319,8.245706 10.782137,8.245742 10.782565,8.162119 10.782725,8.115367 10.78306,8.107388 10.784252,8.075149 10.950399,8.073299 11.060384,8.071318" style="fill: white" /><polygon type="contour" points="10.78145,8.920065 10.781458,8.919881 10.817196,8.919881 10.886097,8.919769 10.886049,8.990162 10.886041,9.117967 10.976825,9.117967 11.053679,9.11783 11.053481,9.201502 11.053398,9.410821 10.885971,9.410821 10.88614,9.49735 10.885057,9.60608 10.885855,9.606081 10.885856,9.662372 10.886206,9.720889 11.053475,9.720889 11.053537,9.779395 11.053679,10.013874 10.886041,10.013874 10.886049,10.141541 10.886097,10.211935 10.84579,10.211935 10.684729,10.211657 10.684722,10.211824 10.65232,10.211824 10.589307,10.211935 10.589307,10.171626 10.589115,10.106839 10.589115,9.916914 10.589582,9.729323 10.58962,9.662372 10.589389,9.606081 10.589588,9.606081 10.589306,9.493064 10.589604,9.440495 10.589604,9.340876 10.589115,9.11809 10.589115,8.990162 10.589307,8.919769 10.625851,8.919769" style="fill: white" /><polygon type="contour" points="8.1813,8.0733 8.347447,8.075149 8.348975,8.115366 8.348975,8.154055 8.349135,8.162119 8.349135,8.245742 8.47938,8.245706 8.542393,8.245605 8.542393,8.285911 8.542636,8.350244 8.542636,8.479381 8.542393,8.542395 8.505848,8.542395 8.446976,8.542638 8.314504,8.542638 8.245603,8.542395 8.245704,8.479382 8.245743,8.349813 8.157393,8.349813 8.117956,8.349884 8.078077,8.349884 8.078082,8.307982 8.077284,8.275727 8.071316,8.071318" style="fill: white" /><polygon type="contour" points="9.408981,8.076141 9.410495,8.135496 9.410495,8.193115 9.41134,8.24573 9.497348,8.245561 9.605726,8.246657 9.605725,8.245847 9.662133,8.245846 9.720729,8.245497 9.721204,8.135497 9.721246,8.12822 9.722719,8.076141 9.888465,8.078091 9.935781,8.078402 10.013783,8.078029 10.013783,8.24566 10.141539,8.245652 10.211933,8.245605 10.211933,8.285911 10.211655,8.446972 10.211822,8.446979 10.211822,8.479381 10.211933,8.542395 10.171626,8.542395 10.106838,8.542586 9.916913,8.542586 9.729942,8.54212 9.662133,8.542081 9.605726,8.542312 9.605726,8.542107 9.493062,8.542395 9.440493,8.542098 9.340874,8.542098 9.118088,8.542586 8.990161,8.542586 8.919767,8.542395 8.919767,8.50585 8.920063,8.350251 8.919879,8.350243 8.919879,8.314505 8.919767,8.245605 8.99016,8.245652 9.11794,8.24566 9.11794,8.078035 9.160997,8.077605 9.195918,8.078402 9.243234,8.078091 9.341851,8.076116" style="fill: white" /><polygon type="contour" points="9.118089,8.919995 9.118089,8.919862 9.214787,8.919862 9.440494,8.920278 9.440494,8.920224 9.469329,8.920262 9.525622,8.919915 9.525622,8.92027 9.638638,8.919769 9.691206,8.920224 9.790826,8.920224 10.013611,8.919862 10.141539,8.919862 10.211933,8.919769 10.211933,8.960076 10.211706,9.118091 10.21184,9.118091 10.21184,9.214789 10.211424,9.440496 10.211479,9.440496 10.211441,9.469569 10.211788,9.525977 10.211431,9.525977 10.211933,9.638641 10.211479,9.691207 10.211479,9.790827 10.21184,10.013613 10.21184,10.141541 10.211933,10.211935 10.171625,10.211935 10.013611,10.211708 10.013611,10.211842 9.916912,10.211842 9.691207,10.211426 9.691207,10.211481 9.662134,10.211443 9.605726,10.211789 9.605726,10.211429 9.493061,10.211935 9.440493,10.211481 9.340874,10.211481 9.118088,10.211842 8.99016,10.211842 8.919767,10.211935 8.919767,10.171626 8.919993,10.013613 8.91986,10.013613 8.91986,9.916914 8.920276,9.691208 8.920222,9.691208 8.92026,9.662373 8.919913,9.606081 8.920268,9.606081 8.919767,9.493064 8.920222,9.440496 8.920222,9.340876 8.91986,9.118091 8.91986,8.990162 8.919767,8.919769 8.960074,8.919769" style="fill: white" /><polygon type="contour" points="8.44697,8.920049 8.446976,8.919881 8.479379,8.919881 8.542393,8.919769 8.542393,8.960077 8.542585,9.024864 8.542585,9.214789 8.542116,9.402469 8.54208,9.469569 8.542311,9.525977 8.542109,9.525977 8.542393,9.638641 8.542096,9.691208 8.542096,9.790827 8.542585,10.013613 8.542585,10.141541 8.542393,10.211935 8.505849,10.211935 8.350241,10.211641 8.350242,10.211824 8.314504,10.211824 8.245603,10.211935 8.24565,10.141541 8.245658,10.013874 8.078022,10.013874 8.07822,9.9302 8.078302,9.720883 8.24573,9.720883 8.24556,9.634354 8.246652,9.525976 8.245845,9.525977 8.245844,9.469569 8.245496,9.410815 8.078224,9.410815 8.078162,9.352308 8.078022,9.11783 8.245658,9.11783 8.24565,8.990162 8.245603,8.919769 8.285908,8.919769" style="fill: white" /><polygon type="contour" points="8.542393,10.589309 8.542393,10.625854 8.542636,10.684726 8.542636,10.817197 8.542393,10.886099 8.47938,10.885998 8.349563,10.885961 8.349135,10.969584 8.348975,11.016335 8.348638,11.024313 8.347447,11.056552 8.1813,11.058405 8.071316,11.060386 8.077284,10.855976 8.078082,10.823721 8.078077,10.78182 8.117956,10.78182 8.157393,10.781891 8.245743,10.781891 8.245704,10.652321 8.245603,10.589309 8.285908,10.589309 8.350242,10.589064 8.479379,10.589064" style="fill: white" /><polygon type="contour" points="9.402356,10.589584 9.469329,10.589622 9.525622,10.589391 9.525622,10.58959 9.638638,10.589308 9.691207,10.589606 9.790826,10.589606 10.013611,10.589118 10.141538,10.589118 10.211933,10.589309 10.211933,10.625853 10.211639,10.781452 10.211822,10.78146 10.211822,10.817197 10.211933,10.886099 10.141539,10.886051 10.01376,10.886043 10.01376,11.053669 9.970702,11.054099 9.935781,11.053302 9.888465,11.053612 9.789848,11.055588 9.722718,11.055563 9.721205,10.996208 9.721205,10.938587 9.720359,10.885973 9.634352,10.886143 9.525622,10.88506 9.525621,10.885858 9.469329,10.885858 9.41097,10.886207 9.410495,10.996207 9.410454,11.003484 9.408981,11.055563 9.243234,11.053612 9.195919,11.053302 9.117917,11.053674 9.117917,10.886043 8.99016,10.886051 8.919767,10.886099 8.919767,10.845793 8.920047,10.684726 8.919879,10.684725 8.919879,10.652322 8.919767,10.589309 8.960075,10.589309 9.024862,10.589118 9.214786,10.589118" style="fill: white" /><polygon type="contour" points="10.684723,10.589064 10.817195,10.589064 10.886097,10.589309 10.885996,10.652321 10.88596,10.781891 10.974307,10.781891 11.013744,10.78182 11.053623,10.78182 11.053618,10.823721 11.054416,10.855976 11.060384,11.060386 10.950399,11.058405 10.784252,11.056552 10.782725,11.016334 10.782725,10.977645 10.782565,10.969584 10.782565,10.885961 10.652319,10.885998 10.589307,10.886099 10.589307,10.845793 10.589061,10.78146 10.589061,10.652321 10.589306,10.589309 10.625852,10.589309 10.684723,10.589063" style="fill: white" />
</svg>
