<svg width="19.131698" height="19.131699">
<polygon type="contour" points="10.328546,10.154191 10.328716,10.328718 10.210609,10.328818 10.035517,10.3284 10.035517,10.210192 10.035357,10.035359 10.209196,10.03535 10.328647,10.03535" style="fill: white" /><polygon type="contour" points="10.620509,10.034825 10.620654,10.127279 10.620654,10.327566 10.590619,10.327566 10.525434,10.327654 10.524956,10.206596 10.524771,10.034821 10.564308,10.034821" style="fill: white" /><polygon type="contour" points="10.620509,9.73173 10.620509,9.808221 10.590105,9.808221 10.524956,9.807682 10.525434,9.761696 10.525591,9.696552 10.55506,9.696604 10.620564,9.696331" style="fill: white" /><polygon type="contour" points="11.379919,7.826391 11.379489,7.838024 11.379196,8.032502 11.0992,8.032502 11.0992,8.001213 11.099408,7.780405 11.099408,7.752299 11.293677,7.752213 11.382588,7.749114" style="fill: white" /><polygon type="contour" points="11.379256,8.921094 11.379439,9.096471 11.146025,9.096471 11.099096,9.096671 11.09935,8.925605 11.09935,8.803226 11.145693,8.803424 11.311726,8.802987 11.379145,8.802987" style="fill: white" /><polygon type="contour" points="11.210293,9.323945 11.210442,9.398468 11.210461,9.435581 11.171954,9.435721 11.098306,9.435721 11.098306,9.397831 11.09819,9.323454 11.14567,9.323413" style="fill: white" /><polygon type="contour" points="10.908818,9.097253 10.863904,9.097055 10.802937,9.097357 10.802852,9.004904 10.802852,8.804139 10.837227,8.803979 10.908818,8.803654" style="fill: white" /><polygon type="contour" points="7.838023,7.752213 8.032293,7.752299 8.032293,7.780405 8.03221,7.865512 8.0323,7.984253 8.0323,8.032301 7.913067,8.032301 7.752504,8.032502 7.75221,7.838024 7.751781,7.826392 7.750404,7.802721 7.749113,7.749114" style="fill: white" /><polygon type="contour" points="8.606744,8.925106 8.606744,9.097245 8.567126,9.097245 8.511191,9.097357 8.511046,9.004903 8.511046,8.804139 8.541081,8.804139 8.606267,8.80405" style="fill: white" /><polygon type="contour" points="7.986771,8.803406 8.032349,8.803212 8.032349,8.923595 8.032604,9.096671 7.985673,9.096471 7.75226,9.096471 7.752444,8.921093 7.752555,8.802987 7.819973,8.802987" style="fill: white" /><polygon type="contour" points="8.267723,8.803863 8.328847,8.804139 8.328763,8.897047 8.328763,9.097357 8.294471,9.097504 8.222883,9.097253 8.222883,8.803654" style="fill: white" /><polygon type="contour" points="8.254308,8.511138 8.328748,8.511138 8.328847,8.541084 8.328847,8.606249 8.294471,8.606182 8.2231,8.606182 8.222899,8.541718 8.222899,8.510982" style="fill: white" /><polygon type="contour" points="8.033298,8.541718 8.033366,8.606182 7.986659,8.606268 7.921555,8.606268 7.921288,8.541083 7.92118,8.511138 7.957931,8.510982 8.033298,8.510982" style="fill: white" /><polygon type="contour" points="8.033547,8.268569 8.033298,8.328826 7.999564,8.328751 7.921181,8.328751 7.921161,8.265216 7.921346,8.222884 8.033547,8.222884" style="fill: white" /><polygon type="contour" points="8.284856,8.223102 8.294472,8.2229 8.328824,8.2229 8.328748,8.254311 8.328748,8.328751 8.294472,8.328826 8.222899,8.328826 8.222899,8.294473 8.222883,8.222884" style="fill: white" /><polygon type="contour" points="8.328824,7.957933 8.328824,8.033299 8.294471,8.033299 8.222883,8.033549 8.222883,7.921348 8.294471,7.921321 8.328748,7.921183" style="fill: white" /><polygon type="contour" points="8.569348,7.921424 8.606267,7.921557 8.60618,7.969173 8.60618,8.033367 8.566233,8.033367 8.51098,8.033299 8.511136,7.999567 8.511136,7.921183" style="fill: white" /><polygon type="contour" points="8.60618,8.223102 8.60618,8.294474 8.606247,8.32885 8.57818,8.328751 8.511136,8.328751 8.51098,8.294473 8.51098,8.2229 8.541715,8.2229" style="fill: white" /><polygon type="contour" points="8.606247,8.541084 8.606267,8.606268 8.567103,8.606268 8.511046,8.606249 8.511136,8.578181 8.511136,8.511138 8.541081,8.511049 8.606247,8.511049" style="fill: white" /><polygon type="contour" points="8.897044,8.511193 9.097354,8.511193 9.097243,8.567128 9.097243,8.606746 8.976695,8.606268 8.804048,8.606268 8.804048,8.567105 8.804137,8.511049" style="fill: white" /><polygon type="contour" points="9.097054,8.267799 9.097354,8.328766 9.004901,8.32885 8.804137,8.32885 8.803862,8.267726 8.803652,8.222884 9.097252,8.222884" style="fill: white" /><polygon type="contour" points="9.096132,7.798414 9.096132,7.845511 9.096052,7.849771 9.096176,7.984807 9.096382,8.032301 8.803189,8.032301 8.803389,7.985115 8.803389,7.915318 8.803372,7.835446 8.803372,7.752484 8.925067,7.751614 9.095411,7.750566" style="fill: white" /><polygon type="contour" points="10.206633,7.751614 10.328329,7.752484 10.328329,7.801929 10.328312,7.915318 10.328512,8.032301 10.035316,8.032301 10.035522,7.984806 10.035649,7.84977 10.035566,7.798413 10.036289,7.750566" style="fill: white" /><polygon type="contour" points="10.62072,7.957933 10.62072,8.033299 10.589984,8.033299 10.52552,8.033367 10.525434,7.98666 10.525434,7.921557 10.590619,7.92129 10.620564,7.921183" style="fill: white" /><polygon type="contour" points="10.908818,7.921348 10.908818,8.033549 10.863132,8.033549 10.802876,8.033299 10.802952,7.999566 10.802952,7.921183 10.866486,7.921163" style="fill: white" /><polygon type="contour" points="11.210381,8.294474 11.210519,8.328751 11.173768,8.328826 11.098402,8.328826 11.098402,8.294473 11.098151,8.222884 11.210353,8.222884" style="fill: white" /><polygon type="contour" points="11.132135,8.511138 11.210519,8.511138 11.210277,8.569351 11.210145,8.606268 11.162529,8.606182 11.09819,8.608503 11.09819,8.568164 11.098402,8.510982" style="fill: white" /><polygon type="contour" points="10.908802,8.541718 10.9086,8.606182 10.837227,8.606182 10.802852,8.606249 10.802952,8.578182 10.802952,8.511138 10.837228,8.510982 10.908802,8.510982" style="fill: white" /><polygon type="contour" points="10.908818,8.26857 10.908802,8.328826 10.87739,8.328751 10.802952,8.328751 10.802876,8.294474 10.802876,8.2229 10.837228,8.2229 10.908818,8.222884" style="fill: white" /><polygon type="contour" points="10.620564,8.25431 10.620564,8.328751 10.590618,8.32885 10.525454,8.32885 10.52552,8.294474 10.52552,8.223102 10.565466,8.223102 10.62072,8.2229" style="fill: white" /><polygon type="contour" points="10.327838,8.267726 10.327564,8.32885 10.234655,8.328766 10.034823,8.328766 10.034646,8.267798 10.034447,8.222884 10.328049,8.222884" style="fill: white" /><polygon type="contour" points="10.327651,8.567104 10.327651,8.606268 10.206595,8.606746 10.034458,8.606746 10.034458,8.567128 10.034823,8.511192 10.127276,8.511049 10.327564,8.511049" style="fill: white" /><polygon type="contour" points="10.55352,8.511138 10.620564,8.511138 10.620654,8.541083 10.620654,8.606249 10.590618,8.606249 10.525434,8.606268 10.525434,8.567104 10.525454,8.511049" style="fill: white" /><polygon type="contour" points="10.620654,8.804139 10.620509,8.897047 10.620509,9.097357 10.590547,9.097357 10.525348,9.096884 10.525247,8.976576 10.525434,8.80405 10.564596,8.80405" style="fill: white" /><polygon type="contour" points="10.32938,8.921094 10.328962,9.096186 10.210191,9.096186 10.03523,9.096471 10.03523,8.803173 10.184226,8.8033 10.328716,8.802987" style="fill: white" /><polygon type="contour" points="9.807758,9.323945 9.807758,9.370942 9.808012,9.435691 9.773347,9.435581 9.696121,9.435581 9.696012,9.398468 9.696012,9.323691 9.733234,9.323691" style="fill: white" /><polygon type="contour" points="9.807758,8.803954 9.807758,9.096847 9.760758,9.096847 9.696012,9.097021 9.696082,9.000094 9.696082,8.803807 9.733234,8.803722" style="fill: white" /><polygon type="contour" points="9.731728,8.511193 9.808219,8.511193 9.808219,8.541598 9.807681,8.606746 9.761694,8.606268 9.696082,8.606111 9.69612,8.576642 9.69633,8.511138" style="fill: white" /><polygon type="contour" points="9.810355,8.222884 9.810421,8.267799 9.808218,8.328766 9.775205,8.328751 9.69633,8.328751 9.696189,8.294474 9.695982,8.222839 9.733871,8.222839" style="fill: white" /><polygon type="contour" points="9.733233,7.92126 9.807758,7.921408 9.807758,7.985597 9.807722,8.033355 9.733871,8.033394 9.695982,8.033394 9.696121,7.997984 9.696121,7.921242" style="fill: white" /><polygon type="contour" points="9.435257,7.959747 9.435257,8.033394 9.397367,8.033394 9.323452,8.033511 9.323411,7.98603 9.323943,7.921408 9.397999,7.92126 9.435097,7.921242" style="fill: white" /><polygon type="contour" points="9.435097,8.255812 9.43537,8.328751 9.399971,8.328766 9.323482,8.328766 9.323511,8.294474 9.323978,8.222956 9.397367,8.222839 9.435257,8.222839" style="fill: white" /><polygon type="contour" points="9.435413,8.541084 9.43515,8.606111 9.397999,8.606496 9.32402,8.606746 9.32402,8.567128 9.323482,8.511193 9.356493,8.511138 9.43537,8.511138" style="fill: white" /><polygon type="contour" points="9.435222,8.901197 9.435222,9.097021 9.398,9.097021 9.323943,9.096847 9.323943,8.803954 9.370657,8.804061 9.43515,8.803807" style="fill: white" /><polygon type="contour" points="9.096184,8.803305 9.096184,8.921512 9.096342,9.096344 8.922503,9.096354 8.803054,9.096354 8.803154,8.977512 8.802985,8.802987 8.921091,8.802887" style="fill: white" /><polygon type="contour" points="9.096845,9.370942 9.097019,9.435691 9.000093,9.43562 8.803804,9.43562 8.80372,9.398469 8.803952,9.323945 9.096845,9.323945" style="fill: white" /><polygon type="contour" points="9.435097,9.358354 9.435097,9.435581 9.398,9.435691 9.323689,9.435691 9.323689,9.398468 9.323943,9.323945 9.397999,9.323691 9.435222,9.323691" style="fill: white" /><polygon type="contour" points="9.358352,9.696605 9.435097,9.696605 9.435222,9.733703 9.435222,9.808014 9.397999,9.808014 9.323943,9.80776 9.323943,9.76076 9.323689,9.696481" style="fill: white" /><polygon type="contour" points="9.097019,9.733702 9.096845,9.80776 8.921727,9.807814 8.803209,9.807814 8.803873,9.763048 8.803805,9.696552 8.901196,9.696481 9.097019,9.696481" style="fill: white" /><polygon type="contour" points="8.606267,10.155007 8.606267,10.327654 8.567104,10.327654 8.511046,10.327566 8.511191,10.234657 8.511191,10.034825 8.541152,10.034825 8.606165,10.03446" style="fill: white" /><polygon type="contour" points="8.033393,9.734335 8.033354,9.807724 7.985595,9.80776 7.921406,9.80776 7.921258,9.733703 7.92124,9.696605 7.959744,9.696446 8.033393,9.696446" style="fill: white" /><polygon type="contour" points="8.03351,9.323454 8.03351,9.37091 8.033393,9.435721 7.997984,9.435581 7.92124,9.435581 7.921258,9.398468 7.921406,9.323945 7.986028,9.323413" style="fill: white" /><polygon type="contour" points="8.328763,9.323484 8.328748,9.356496 8.328748,9.435372 8.294471,9.435514 8.222837,9.435721 8.222837,9.397832 8.222883,9.321347 8.267796,9.321281" style="fill: white" /><polygon type="contour" points="8.606744,9.324022 8.606267,9.370007 8.606109,9.43562 8.57664,9.435581 8.511136,9.435372 8.511191,9.399973 8.511191,9.323484 8.541596,9.323484" style="fill: white" /><polygon type="contour" points="8.606109,9.696552 8.606028,9.733703 8.606166,9.807683 8.567126,9.807683 8.511191,9.808221 8.511136,9.775207 8.511136,9.696332 8.541082,9.696289" style="fill: white" /><polygon type="contour" points="8.328763,9.73173 8.328763,9.808221 8.294471,9.80819 8.222954,9.807724 8.222837,9.734334 8.222837,9.696446 8.25581,9.696605 8.328748,9.696332" style="fill: white" /><polygon type="contour" points="8.267796,10.034648 8.328763,10.034825 8.328847,10.127279 8.328847,10.327566 8.294471,10.327726 8.222883,10.328051 8.222883,10.03445" style="fill: white" /><polygon type="contour" points="7.984804,10.035525 8.0323,10.035318 8.03235,10.206098 8.03235,10.328479 7.986005,10.328281 7.819973,10.328718 7.752555,10.328718 7.752444,10.210611 7.75226,10.035232 7.821522,10.035232" style="fill: white" /><polygon type="contour" points="8.03351,10.563539 8.033298,10.620722 7.999564,10.620566 7.921181,10.620566 7.921422,10.562353 7.921555,10.525436 7.969172,10.525523 8.03351,10.523202" style="fill: white" /><polygon type="contour" points="8.328824,11.098405 8.328748,11.132137 8.328748,11.210521 8.265214,11.210539 8.222883,11.210355 8.222883,11.098153 8.268567,11.098153" style="fill: white" /><polygon type="contour" points="8.606267,11.145042 8.606267,11.210146 8.541081,11.210412 8.511136,11.210521 8.51098,11.173772 8.51098,11.098405 8.541715,11.098405 8.60618,11.098337" style="fill: white" /><polygon type="contour" points="9.096176,11.146894 9.096052,11.28193 9.096132,11.333288 9.095411,11.381137 8.925068,11.380089 8.803372,11.379221 8.803372,11.329774 8.803389,11.216385 8.803189,11.099403 9.096382,11.099403" style="fill: white" /><polygon type="contour" points="9.43515,10.525592 9.435097,10.555062 9.43537,10.620566 9.399971,10.620511 9.323482,10.620511 9.323482,10.590549 9.32402,10.525537 9.370006,10.525436" style="fill: white" /><polygon type="contour" points="9.356494,10.802953 9.43537,10.802953 9.435512,10.837229 9.435257,10.908864 9.397366,10.908864 9.321345,10.90882 9.32128,10.863905 9.323482,10.802938" style="fill: white" /><polygon type="contour" points="9.397366,11.098309 9.435257,11.098309 9.435097,11.133718 9.435097,11.210462 9.397999,11.210442 9.323943,11.210294 9.32341,11.145671 9.323451,11.098193" style="fill: white" /><polygon type="contour" points="9.807722,11.098349 9.807758,11.146105 9.807758,11.210294 9.733234,11.210443 9.696121,11.210462 9.695982,11.171957 9.695982,11.098309 9.733871,11.098309" style="fill: white" /><polygon type="contour" points="9.808188,10.83723 9.807722,10.908749 9.733871,10.908864 9.695981,10.908864 9.69612,10.875889 9.696329,10.802953 9.731728,10.802938 9.808219,10.802938" style="fill: white" /><polygon type="contour" points="9.807681,10.564575 9.808219,10.620511 9.775205,10.620566 9.69633,10.620566 9.696287,10.59062 9.696082,10.525593 9.733234,10.525209 9.807681,10.524959" style="fill: white" /><polygon type="contour" points="10.155005,10.525436 10.327651,10.525436 10.327651,10.564599 10.327564,10.620655 10.234656,10.620511 10.034823,10.620511 10.034458,10.564574 10.034458,10.524959" style="fill: white" /><polygon type="contour" points="11.379489,11.293679 11.379919,11.305312 11.381296,11.328982 11.382587,11.38259 11.293677,11.379491 11.099408,11.379405 11.099408,11.351298 11.09949,11.266191 11.0994,11.14745 11.0994,11.099403 11.218632,11.099403 11.379196,11.099202" style="fill: white" /><polygon type="contour" points="11.21041,10.590619 11.210519,10.620566 11.173768,10.620722 11.098402,10.620722 11.098402,10.589985 11.098334,10.525523 11.14504,10.525436 11.210145,10.525436" style="fill: white" /><polygon type="contour" points="11.132135,10.802953 11.210519,10.802953 11.210538,10.866488 11.210353,10.90882 11.098151,10.90882 11.098151,10.863134 11.098402,10.802877" style="fill: white" /><polygon type="contour" points="10.908802,10.83723 10.908818,10.90882 10.846843,10.908602 10.837227,10.908804 10.802876,10.908804 10.802952,10.877392 10.802952,10.802953 10.837228,10.802877 10.908802,10.802877" style="fill: white" /><polygon type="contour" points="10.908818,11.210355 10.837228,11.210383 10.802952,11.210521 10.802876,11.173771 10.802876,11.098405 10.837228,11.098405 10.908818,11.098153" style="fill: white" /><polygon type="contour" points="10.62072,11.098405 10.620564,11.132136 10.620564,11.210521 10.562351,11.210279 10.525434,11.210146 10.52552,11.16253 10.5232,11.098193 10.563537,11.098193" style="fill: white" /><polygon type="contour" points="10.328312,11.146587 10.328312,11.216385 10.328329,11.296257 10.328329,11.379221 10.206632,11.380089 10.03629,11.381137 10.035567,11.333289 10.035567,11.286191 10.035649,11.281931 10.035523,11.146895 10.035316,11.099403 10.328512,11.099403" style="fill: white" /><polygon type="contour" points="10.327838,10.863976 10.328049,10.90882 10.034447,10.90882 10.034646,10.863905 10.034823,10.802938 10.127276,10.802853 10.327564,10.802853" style="fill: white" /><polygon type="contour" points="10.55352,10.802953 10.620564,10.802953 10.62072,10.83723 10.62072,10.908804 10.589984,10.908804 10.52552,10.908602 10.52552,10.837229 10.525453,10.802853" style="fill: white" /><polygon type="contour" points="10.620654,10.525455 10.620564,10.553522 10.620564,10.620566 10.590618,10.620655 10.525454,10.620655 10.525454,10.590619 10.525434,10.525436 10.564596,10.525436" style="fill: white" /><polygon type="contour" points="10.837227,10.525522 10.9086,10.525523 10.908802,10.589984 10.908802,10.620722 10.877391,10.620566 10.802952,10.620566 10.802852,10.590619 10.802852,10.525456" style="fill: white" /><polygon type="contour" points="10.908818,10.328051 10.863975,10.327841 10.802852,10.327566 10.802937,10.234657 10.802937,10.034825 10.837227,10.034674 10.908818,10.03445" style="fill: white" /><polygon type="contour" points="11.146025,10.035232 11.379439,10.035232 11.379256,10.21061 11.379145,10.328718 11.311726,10.328718 11.145693,10.328281 11.09935,10.328479 11.09935,10.206099 11.099096,10.035031" style="fill: white" /><polygon type="contour" points="11.133716,9.696605 11.210461,9.696605 11.210441,9.733703 11.210293,9.80776 11.146103,9.80776 11.098346,9.807724 11.098306,9.734334 11.098306,9.696446" style="fill: white" /><polygon type="contour" points="10.908862,9.696446 10.908862,9.734335 10.908818,9.810357 10.863904,9.810423 10.802937,9.80822 10.802952,9.775207 10.802952,9.696332 10.837228,9.69619" style="fill: white" /><polygon type="contour" points="10.908862,9.397831 10.908862,9.435721 10.875888,9.435581 10.802952,9.435372 10.802937,9.399973 10.802937,9.323484 10.837227,9.323514 10.908818,9.321347" style="fill: white" /><polygon type="contour" points="10.620564,9.356495 10.620564,9.435372 10.590618,9.435414 10.525591,9.43562 10.525672,9.398468 10.525534,9.324022 10.564573,9.324022 10.620509,9.323484" style="fill: white" /><polygon type="contour" points="10.327827,9.368654 10.327896,9.43562 10.230504,9.435691 10.034682,9.435691 10.034682,9.398468 10.034855,9.323945 10.15852,9.323945 10.328492,9.323889" style="fill: white" /><polygon type="contour" points="10.131606,9.696552 10.327896,9.696552 10.327981,9.733703 10.327749,9.80776 10.034855,9.80776 10.034855,9.760761 10.034682,9.696481" style="fill: white" /><polygon type="contour" points="9.808012,9.733703 9.807758,9.80776 9.733234,9.808014 9.696012,9.808014 9.696121,9.773348 9.696121,9.696605 9.733234,9.696481 9.808012,9.696481" style="fill: white" /><polygon type="contour" points="9.807758,10.034857 9.807758,10.327751 9.761042,10.327643 9.696082,10.327898 9.696012,10.230507 9.696012,10.034684 9.733233,10.034684" style="fill: white" /><polygon type="contour" points="9.43515,10.131608 9.43515,10.327898 9.398,10.328447 9.323888,10.328494 9.323888,10.209976 9.323943,10.034857 9.370941,10.034857 9.435222,10.034684" style="fill: white" /><polygon type="contour" points="9.096469,10.156729 9.096184,10.328964 8.978581,10.328299 8.802985,10.328718 8.80232,10.21061 8.802738,10.035519 8.92151,10.035519 9.096469,10.035232" style="fill: white" /><polygon type="contour" points="8.925103,10.525537 9.097243,10.525537 9.097243,10.564575 9.097354,10.620511 9.004901,10.620655 8.804137,10.620655 8.804048,10.564598 8.804048,10.525436" style="fill: white" /><polygon type="contour" points="8.897045,10.802938 9.097354,10.802938 9.097054,10.863904 9.097252,10.90882 8.803652,10.90882 8.803862,10.863976 8.804137,10.802853" style="fill: white" /><polygon type="contour" points="8.60618,10.83723 8.60618,10.908602 8.566233,10.908602 8.51098,10.908804 8.511136,10.877393 8.511136,10.802953 8.541082,10.802853 8.606247,10.802853" style="fill: white" /><polygon type="contour" points="8.606267,10.564599 8.606247,10.620655 8.578179,10.620566 8.511136,10.620566 8.511046,10.59062 8.511046,10.525456 8.541082,10.525456 8.606267,10.525436" style="fill: white" /><polygon type="contour" points="8.328748,10.553521 8.328748,10.620566 8.294471,10.620722 8.222899,10.620722 8.222899,10.589984 8.2231,10.525523 8.294472,10.525522 8.328847,10.525456" style="fill: white" /><polygon type="contour" points="8.254308,10.802953 8.328748,10.802953 8.328824,10.837229 8.328824,10.908804 8.294471,10.908804 8.222883,10.90882 8.222883,10.863134 8.222899,10.802877" style="fill: white" /><polygon type="contour" points="8.033298,10.83723 8.033547,10.90882 7.921346,10.90882 7.921319,10.837229 7.921181,10.802953 7.957931,10.802877 8.033298,10.802877" style="fill: white" /><polygon type="contour" points="8.032501,11.130491 8.032293,11.351298 8.032293,11.379405 7.838023,11.379491 7.749113,11.38259 7.751781,11.305311 7.75221,11.293679 7.752504,11.099202 8.032501,11.099202" style="fill: white" />
</svg>
