<svg width="19.131698" height="19.131699">
<polygon type="contour" points="8.120397,10.911276 8.127756,10.911276 8.220546,10.911155 8.220546,10.919058 8.220426,11.005788 8.220426,11.013447 8.220546,11.120709 8.120368,11.120518 8.120368,11.287874 8.118119,11.287875 7.833923,11.297779 7.842453,11.050765 7.843828,11.013583 7.843831,11.011331 8.011181,11.011331 8.010993,10.911155 8.020175,10.911155" style="fill: white" /><polygon type="contour" points="8.220546,9.840988 8.220546,9.849239 8.220779,9.93979 8.220779,9.939791 8.22078,9.940325 8.220761,10.244644 8.220761,10.245764 8.22076,10.2458 8.220546,10.352075 8.212643,10.352075 8.125912,10.351821 8.118254,10.351821 8.010993,10.352075 8.011352,10.244646 7.844714,10.244646 7.844043,10.244648 7.844042,10.243937 7.843618,9.951616 8.010997,9.951616 8.011,9.848102 8.011007,9.841007 8.020161,9.841007 8.125045,9.840789" style="fill: white" /><polygon type="contour" points="8.120397,8.779884 8.127755,8.779884 8.220546,8.77963 8.220546,8.788405 8.220761,8.886244 8.220761,8.886245 8.22076,8.886245 8.220779,9.180122 8.220779,9.195118 8.220546,9.290891 8.21266,9.290756 8.125911,9.290918 8.122493,9.290924 8.011007,9.290756 8.011,9.179759 7.851938,9.180088 7.843618,9.180088 7.843627,9.171465 7.844043,8.887056 8.011352,8.887056 8.010993,8.77963 8.020174,8.77963" style="fill: white" /><polygon type="contour" points="8.118119,7.843829 8.120368,7.84383 8.120368,8.011185 8.220546,8.010994 8.220546,8.020177 8.220426,8.120399 8.220426,8.127759 8.220546,8.220549 8.212643,8.220549 8.125913,8.220428 8.118255,8.220428 8.010993,8.220549 8.011181,8.120367 7.848407,8.120367 7.843831,8.120373 7.843828,8.118121 7.842452,8.080936 7.83805,8.005276 7.833923,7.833925" style="fill: white" /><polygon type="contour" points="9.179471,7.917605 9.180097,8.010999 9.283599,8.011002 9.290695,8.011009 9.290695,8.020163 9.290915,8.126426 9.290948,8.127759 9.290888,8.220549 9.282462,8.220549 9.191649,8.22078 8.887901,8.220763 8.885937,8.220763 8.779628,8.220549 8.779628,8.212646 8.779882,8.125915 8.779882,8.118258 8.779628,8.010994 8.887055,8.011353 8.887055,7.844045 8.888266,7.844037 9.179062,7.842125" style="fill: white" /><polygon type="contour" points="9.290888,8.77963 9.290695,8.788354 9.291189,8.886243 9.291188,8.886244 9.291302,9.180127 9.291302,9.180128 9.291307,9.194553 9.290695,9.290756 9.282468,9.290756 9.190342,9.291338 8.886264,9.291192 8.885938,9.291198 8.88509,9.291195 8.779628,9.290891 8.779628,9.282465 8.779238,9.191913 8.779206,9.184544 8.779845,8.887059 8.779845,8.88594 8.779628,8.77963 8.788402,8.77963 8.886241,8.779847 8.887901,8.779847 9.190316,8.779218" style="fill: white" /><polygon type="contour" points="10.243798,8.779847 10.245761,8.779847 10.352073,8.77963 10.352073,8.788404 10.351854,8.886244 10.351854,8.887905 10.352463,9.180121 10.352463,9.180122 10.352484,9.19026 10.352073,9.290717 10.343348,9.290755 10.245458,9.291193 10.245458,9.291192 9.951574,9.291329 9.937373,9.291335 9.840948,9.290756 9.840948,9.28247 9.840359,9.190313 9.84051,8.886244 9.84051,8.886051 9.840987,8.77963 9.849239,8.77963 9.943625,8.779223" style="fill: white" /><polygon type="contour" points="10.243433,7.844037 10.244645,7.844046 10.244645,8.011353 10.352073,8.010993 10.352073,8.020176 10.351819,8.120399 10.351819,8.127758 10.352073,8.220549 10.343298,8.220549 10.245458,8.220763 10.245457,8.220763 10.245457,8.220762 9.951579,8.22078 9.936637,8.22078 9.840987,8.220549 9.840947,8.212663 9.840785,8.125914 9.840778,8.122495 9.840948,8.011009 9.952228,8.011001 9.952228,7.917604 9.952304,7.913361 9.952636,7.842125" style="fill: white" /><polygon type="contour" points="11.289248,8.080936 11.287872,8.118121 11.287869,8.120373 11.120518,8.120373 11.120707,8.220549 11.111524,8.220549 11.011304,8.220428 11.003943,8.220428 10.911154,8.220549 10.911154,8.212646 10.911274,8.125916 10.911274,8.118257 10.911154,8.010994 11.011333,8.011185 11.011333,7.84383 11.013582,7.843829 11.297776,7.833925" style="fill: white" /><polygon type="contour" points="11.005788,8.779884 11.013445,8.779884 11.120707,8.77963 11.120347,8.887058 11.286985,8.887058 11.287656,8.887056 11.287656,8.887766 11.288082,9.180088 11.120697,9.180088 11.1207,9.283602 11.120693,9.290756 11.111538,9.290756 11.009612,9.29092 10.911154,9.290717 10.911154,9.282464 10.910919,9.191913 10.910917,9.191325 10.910939,8.88706 10.910939,8.88594 10.911154,8.77963 10.919057,8.77963" style="fill: white" /><polygon type="contour" points="11.120693,9.841007 11.120695,9.951944 11.279761,9.951616 11.288082,9.951616 11.288073,9.960238 11.287656,10.244648 11.120347,10.244648 11.120707,10.352075 11.111524,10.352075 11.011303,10.351821 11.003944,10.351821 10.911154,10.352075 10.911154,10.343299 10.910939,10.245459 10.910919,9.951582 10.910919,9.951581 10.910917,9.936622 10.911153,9.840814 10.919039,9.841007 11.005788,9.840799 11.005789,9.840799 11.009207,9.84079" style="fill: white" /><polygon type="contour" points="10.245444,9.840513 10.245761,9.840506 10.352073,9.840814 10.352073,9.849239 10.352494,9.947175 10.351854,10.244643 10.351854,10.245764 10.352073,10.352075 10.343297,10.352075 10.245457,10.351855 10.243798,10.351855 9.941447,10.352486 9.840987,10.352075 9.840947,10.343349 9.840509,10.245459 9.84051,10.245459 9.840364,9.939799 9.840363,9.937418 9.840948,9.841007 9.849232,9.841007 9.941057,9.840389" style="fill: white" /><polygon type="contour" points="9.290695,9.841007 9.290695,9.849232 9.291302,9.939799 9.29131,9.941042 9.291188,10.245446 9.291196,10.245763 9.290888,10.352075 9.282461,10.352075 9.188062,10.352481 8.887901,10.351855 8.885937,10.351855 8.779628,10.352075 8.779628,10.343299 8.779845,10.245459 8.779845,10.243798 8.779216,9.941432 8.779628,9.840988 8.788352,9.841007 8.88624,9.840513 8.886241,9.840513 9.180126,9.840398 9.180127,9.840398 9.194516,9.840392" style="fill: white" /><polygon type="contour" points="9.290888,10.911155 9.290694,10.91904 9.290903,11.005789 9.290903,11.00579 9.290911,11.009208 9.290695,11.120695 9.179471,11.120698 9.179471,11.214098 9.179396,11.218341 9.179062,11.289578 8.888267,11.287667 8.887055,11.287658 8.887055,11.12035 8.779628,11.120709 8.779628,11.111527 8.779882,11.011305 8.779882,11.003945 8.779628,10.911155 8.788402,10.911155 8.886241,10.910941 9.191911,10.91092 9.195078,10.910919" style="fill: white" /><polygon type="contour" points="10.243797,10.910941 10.245761,10.910941 10.352073,10.911155 10.352073,10.919058 10.351819,11.005788 10.351819,11.013447 10.352073,11.120709 10.244645,11.12035 10.244645,11.287658 10.243433,11.287666 9.952637,11.289578 9.952228,11.214099 9.951603,11.1207 9.848101,11.120702 9.840948,11.120695 9.840948,11.111541 9.840782,11.009601 9.840987,10.911155 9.849239,10.911155 9.940093,10.91092" style="fill: white" /><polygon type="contour" points="11.005787,10.911276 11.013445,10.911276 11.120707,10.911155 11.120518,11.011337 11.283291,11.011337 11.287869,11.011331 11.287872,11.013582 11.289247,11.050765 11.293651,11.126427 11.297776,11.297779 11.013582,11.287875 11.011333,11.287874 11.011333,11.120518 10.911154,11.120709 10.911154,11.111526 10.911274,11.011304 10.911274,11.003944 10.911154,10.911155 10.919057,10.911155" style="fill: white" />
</svg>
