<svg width="19.131698" height="19.131699">
<polygon type="contour" points="8.10499,10.698984 8.166754,10.698984 8.166754,10.743726 8.166386,10.804802 8.058905,10.804802 8.059062,10.743726 8.059212,10.698712" style="fill: white" /><polygon type="contour" points="8.104932,9.682089 8.166397,9.682089 8.166449,9.725089 8.166489,9.781138 8.058982,9.781138 8.059137,9.725089 8.059263,9.682026" style="fill: white" /><polygon type="contour" points="9.781136,9.350566 9.781136,9.402893 9.781348,9.45015 9.742995,9.450108 9.681595,9.450108 9.681553,9.40701 9.681553,9.350354 9.724692,9.350354" style="fill: white" /><polygon type="contour" points="9.781136,9.906775 9.781136,10.199745 9.730876,10.199649 9.681514,10.199774 9.681553,10.072555 9.681553,9.906549 9.724692,9.906549" style="fill: white" /><polygon type="contour" points="9.781348,9.725089 9.781136,9.781138 9.728808,9.781138 9.681553,9.78135 9.681595,9.742997 9.681595,9.682026 9.724691,9.68195 9.781348,9.68195" style="fill: white" /><polygon type="contour" points="11.072562,9.725089 11.072718,9.781138 11.021992,9.781146 10.964731,9.781146 10.965157,9.730369 10.965303,9.682089 11.007171,9.682026 11.072437,9.682026" style="fill: white" /><polygon type="contour" points="11.113318,9.907126 11.24103,9.907126 11.240888,10.04835 11.240917,10.050158 11.240774,10.200232 11.157646,10.200232 11.020274,10.200228 10.965837,10.200383 10.965396,10.046502 10.965396,9.906998 11.022657,9.906998" style="fill: white" /><polygon type="contour" points="10.804763,9.90674 10.804949,10.057528 10.8048,10.199853 10.751266,10.199688 10.698933,10.19982 10.698833,10.072313 10.698833,9.906594 10.744811,9.906594" style="fill: white" /><polygon type="contour" points="10.744113,9.682089 10.804769,9.682089 10.80462,9.725089 10.804618,9.781357 10.753966,9.781277 10.74481,9.781215 10.698832,9.781215 10.69871,9.742758 10.699232,9.682026" style="fill: white" /><polygon type="contour" points="10.804691,9.350566 10.804875,9.401544 10.804769,9.450018 10.763641,9.450108 10.699232,9.450108 10.699315,9.407011 10.698833,9.35049 10.74481,9.35049" style="fill: white" /><polygon type="contour" points="11.072718,9.350566 11.072563,9.40701 11.072437,9.450108 11.026766,9.450018 10.965303,9.450018 10.964948,9.40701 10.964731,9.350559 11.021993,9.350559" style="fill: white" /><polygon type="contour" points="11.240887,9.083353 11.240975,9.224633 10.96547,9.224633 10.965583,9.084535 10.966028,8.931473 11.020164,8.93163 11.157646,8.931472 11.240774,8.931472" style="fill: white" /><polygon type="contour" points="11.241443,8.110328 11.241093,8.165728 10.965972,8.165728 10.965972,8.057908 10.965904,7.996808 10.966394,7.947349 10.966351,7.917837 10.966646,7.91584 10.967403,7.888821 11.046477,7.889457 11.249314,7.882389" style="fill: white" /><polygon type="contour" points="10.200333,7.890518 10.200333,7.926314 10.200343,8.139926 10.200343,8.165729 10.057387,8.165862 9.906996,8.165939 9.906996,8.109044 9.907124,8.057971 9.907187,7.930944 9.907104,7.909929 9.907271,7.908379 9.907613,7.889744 10.149335,7.889699" style="fill: white" /><polygon type="contour" points="9.781136,8.16649 9.730154,8.166427 9.681683,8.166398 9.681595,8.124529 9.681595,8.059263 9.724692,8.059137 9.781136,8.058984" style="fill: white" /><polygon type="contour" points="9.724692,8.327083 9.781355,8.327084 9.781355,8.382799 9.781213,8.43287 9.742756,8.432993 9.681595,8.433329 9.681683,8.388396 9.681683,8.326932" style="fill: white" /><polygon type="contour" points="8.764576,8.058851 8.764669,8.113738 8.764669,8.166477 8.716347,8.166477 8.669472,8.166756 8.669273,8.124807 8.669273,8.059212 8.719635,8.058818" style="fill: white" /><polygon type="contour" points="8.085223,7.889456 8.164297,7.888821 8.165349,7.917838 8.165349,7.945657 8.165306,7.94735 8.165794,7.996807 8.165727,8.057908 8.165727,8.165728 8.03208,8.165862 7.890743,8.165862 7.888133,8.121021 7.882386,7.882389" style="fill: white" /><polygon type="contour" points="8.387974,8.059063 8.432991,8.059212 8.432718,8.104991 8.432718,8.166756 8.387975,8.166756 8.326899,8.166388 8.326899,8.058907" style="fill: white" /><polygon type="contour" points="8.387975,8.327019 8.432717,8.327019 8.432991,8.368255 8.432991,8.432993 8.387974,8.43272 8.327017,8.43272 8.327017,8.387976 8.326899,8.3269 8.378809,8.326761" style="fill: white" /><polygon type="contour" points="8.166387,8.381358 8.166754,8.43272 8.124806,8.432993 8.059212,8.432993 8.059078,8.377766 8.058905,8.3269 8.166387,8.3269" style="fill: white" /><polygon type="contour" points="8.10499,8.669474 8.166754,8.669474 8.166754,8.709772 8.166475,8.764671 8.112582,8.764578 8.058849,8.764578 8.059221,8.708835 8.059212,8.669275" style="fill: white" /><polygon type="contour" points="8.764606,9.083691 8.764646,9.224965 8.714829,9.224965 8.669149,9.225111 8.669395,9.10368 8.669395,8.931884 8.708832,8.931884 8.764535,8.931825" style="fill: white" /><polygon type="contour" points="8.764576,9.39999 8.764775,9.450189 8.727857,9.450108 8.668174,9.450108 8.668136,9.40701 8.669149,9.35049 8.710863,9.35049 8.764646,9.350428" style="fill: white" /><polygon type="contour" points="9.225154,9.407011 9.225154,9.45015 9.104007,9.450189 8.931928,9.450189 8.931854,9.407011 8.931956,9.350566 9.224925,9.350566" style="fill: white" /><polygon type="contour" points="9.449677,9.388704 9.449677,9.450108 9.406612,9.45015 9.350352,9.45015 9.350352,9.40701 9.350565,9.350566 9.406612,9.350354 9.449752,9.350354" style="fill: white" /><polygon type="contour" points="9.388703,9.682026 9.449677,9.682026 9.449752,9.725089 9.449752,9.78135 9.406612,9.78135 9.350565,9.781138 9.350565,9.72881 9.350352,9.68195" style="fill: white" /><polygon type="contour" points="9.449776,10.027695 9.449776,10.199774 9.406613,10.199848 9.350565,10.199744 9.350565,9.906775 9.406612,9.906549 9.449752,9.906549" style="fill: white" /><polygon type="contour" points="9.224576,9.907126 9.224576,9.977187 9.224631,10.04584 9.224631,10.200041 9.076708,10.199958 8.93147,10.200232 8.931401,10.04835 8.931662,9.907071 9.085862,9.907071" style="fill: white" /><polygon type="contour" points="9.059146,9.68195 9.225154,9.68195 9.225154,9.725089 9.224926,9.781138 8.931956,9.781138 8.932051,9.730877 8.931928,9.681926" style="fill: white" /><polygon type="contour" points="8.764826,9.725089 8.764646,9.781277 8.714829,9.781277 8.669148,9.781215 8.669272,9.742757 8.668174,9.682026 8.70769,9.681926 8.764775,9.681926" style="fill: white" /><polygon type="contour" points="8.764646,9.906738 8.764606,10.048012 8.764534,10.199879 8.717232,10.199879 8.669395,10.19982 8.669149,10.072313 8.669149,9.906594 8.710863,9.906594" style="fill: white" /><polygon type="contour" points="8.764576,10.367126 8.764576,10.414564 8.764596,10.462308 8.72758,10.462429 8.669273,10.462429 8.669395,10.422869 8.669395,10.367107 8.708833,10.367107" style="fill: white" /><polygon type="contour" points="8.432768,10.367107 8.432991,10.404122 8.432991,10.462429 8.387974,10.462231 8.327017,10.462231 8.327017,10.421931 8.326759,10.367033 8.387975,10.36703" style="fill: white" /><polygon type="contour" points="8.166475,10.415355 8.166754,10.462231 8.124806,10.462429 8.059212,10.462429 8.058817,10.412064 8.058849,10.367126 8.113736,10.367033 8.166475,10.367033" style="fill: white" /><polygon type="contour" points="8.165938,10.046502 8.165861,10.200383 8.111427,10.200228 7.974053,10.200232 7.890926,10.200232 7.890813,10.04835 7.890726,9.907071 8.165864,9.907071" style="fill: white" /><polygon type="contour" points="8.432768,10.028025 8.432768,10.19982 8.387974,10.199954 8.326899,10.199853 8.327082,10.045179 8.327082,9.906813 8.382798,9.906813 8.432868,9.906594" style="fill: white" /><polygon type="contour" points="8.432385,9.72509 8.432868,9.781215 8.386889,9.781215 8.327082,9.781357 8.326899,9.730314 8.32693,9.682089 8.368059,9.682026 8.432468,9.682026" style="fill: white" /><polygon type="contour" points="8.377734,9.350427 8.38689,9.35049 8.432868,9.35049 8.432991,9.388946 8.432468,9.450108 8.387586,9.450018 8.32693,9.450018 8.327081,9.40701 8.327082,9.350348" style="fill: white" /><polygon type="contour" points="8.166448,9.407011 8.166397,9.450018 8.124529,9.450108 8.059263,9.450108 8.059136,9.40701 8.058982,9.350566 8.109706,9.350559 8.166603,9.350559" style="fill: white" /><polygon type="contour" points="8.165938,9.085202 8.165864,9.224633 8.108818,9.224633 8.018383,9.224578 7.89067,9.224578 7.890812,9.083354 7.890784,9.081543 7.890925,8.931472 7.974053,8.931472 8.111427,8.931476 8.165861,8.931321" style="fill: white" /><polygon type="contour" points="8.380433,8.932015 8.432768,8.931884 8.432868,9.05939 8.432868,9.225111 8.38689,9.225111 8.327082,9.224892 8.326899,9.073697 8.326899,8.931849" style="fill: white" /><polygon type="contour" points="8.432768,8.708834 8.432768,8.764597 8.387975,8.764674 8.326759,8.764671 8.326759,8.716349 8.327016,8.669474 8.368253,8.669275 8.432991,8.669275" style="fill: white" /><polygon type="contour" points="8.708832,8.669397 8.764596,8.669397 8.764596,8.708834 8.764576,8.764578 8.717138,8.764578 8.669395,8.764597 8.669273,8.72758 8.669273,8.669275" style="fill: white" /><polygon type="contour" points="8.764672,8.387976 8.764596,8.432769 8.72758,8.432994 8.669273,8.432994 8.669472,8.387977 8.669472,8.327019 8.70977,8.327019 8.764669,8.326761" style="fill: white" /><polygon type="contour" points="9.08652,8.327084 9.22489,8.327084 9.22489,8.3828 9.225109,8.43287 9.103677,8.432769 8.931882,8.432769 8.932012,8.380435 8.931847,8.3269" style="fill: white" /><polygon type="contour" points="9.224086,7.889744 9.224594,7.909929 9.224594,7.929187 9.224509,7.930945 9.224575,8.05797 9.224704,8.109044 9.224704,8.165939 9.074312,8.165862 8.931319,8.165862 8.931329,8.012781 8.931367,7.926315 8.931367,7.890518 8.982364,7.889699" style="fill: white" /><polygon type="contour" points="9.406612,8.059137 9.449677,8.059263 9.449613,8.104934 9.449613,8.166397 9.406612,8.166451 9.350565,8.16649 9.350565,8.058984" style="fill: white" /><polygon type="contour" points="9.449613,8.326932 9.449677,8.368062 9.449677,8.433329 9.406612,8.433179 9.350488,8.43287 9.350488,8.386892 9.350565,8.327011 9.401543,8.326826" style="fill: white" /><polygon type="contour" points="9.449776,8.708513 9.449776,8.764778 9.406612,8.764829 9.350426,8.764648 9.350426,8.714831 9.350488,8.669151 9.388943,8.669275 9.449677,8.669035" style="fill: white" /><polygon type="contour" points="9.225109,8.710865 9.224963,8.764648 9.078894,8.764578 8.932096,8.764578 8.932096,8.71714 8.931882,8.669397 9.103678,8.669397 9.225109,8.669151" style="fill: white" /><polygon type="contour" points="9.224517,8.931553 9.224517,9.084536 9.224576,9.224578 9.155343,9.224578 9.084533,9.224519 8.931551,9.224519 8.931628,9.077812 8.93147,8.931472 9.083351,8.931403" style="fill: white" /><polygon type="contour" points="9.449752,9.059148 9.449752,9.225156 9.406613,9.225156 9.350565,9.224928 9.350565,8.931958 9.400824,8.932054 9.449776,8.93193" style="fill: white" /><polygon type="contour" points="9.781136,8.931958 9.781136,9.086361 9.78125,9.224965 9.724691,9.225156 9.681553,9.225156 9.681514,9.104009 9.681514,8.93193 9.724691,8.931855" style="fill: white" /><polygon type="contour" points="9.781213,8.669151 9.781213,8.710865 9.781275,8.764647 9.731712,8.764577 9.681514,8.764778 9.681595,8.72786 9.681595,8.669035 9.724691,8.66893" style="fill: white" /><polygon type="contour" points="10.028022,8.669397 10.199818,8.669397 10.199604,8.71714 10.199604,8.764578 10.052805,8.764578 9.906737,8.764648 9.906737,8.714831 9.906592,8.669151" style="fill: white" /><polygon type="contour" points="10.199852,8.3269 10.199686,8.380435 10.199818,8.432769 10.028023,8.432769 9.906592,8.43287 9.906592,8.386892 9.906738,8.326939 10.057525,8.326751" style="fill: white" /><polygon type="contour" points="10.46223,8.327019 10.462427,8.368255 10.462427,8.432993 10.422866,8.432769 10.367104,8.432769 10.367028,8.387976 10.367031,8.326761 10.415352,8.326761" style="fill: white" /><polygon type="contour" points="10.422866,8.059222 10.462427,8.059212 10.46223,8.104991 10.46223,8.166756 10.421929,8.166756 10.367031,8.166477 10.367124,8.112584 10.367124,8.058851" style="fill: white" /><polygon type="contour" points="10.804758,8.110942 10.804758,8.166544 10.750591,8.166544 10.698982,8.166756 10.69871,8.124806 10.69871,8.059211 10.753935,8.059079 10.8048,8.058906" style="fill: white" /><polygon type="contour" points="10.80494,8.378809 10.80468,8.387977 10.80468,8.43272 10.763445,8.432993 10.69871,8.432993 10.698982,8.387976 10.698982,8.327019 10.743725,8.327019 10.8048,8.3269" style="fill: white" /><polygon type="contour" points="11.072638,8.387976 11.072488,8.432993 11.026708,8.43272 10.964946,8.43272 10.964946,8.387977 10.965313,8.3269 11.072795,8.3269" style="fill: white" /><polygon type="contour" points="11.072883,8.719638 11.072851,8.764578 11.017962,8.764671 10.965224,8.764671 10.965224,8.71635 10.964946,8.669474 11.006893,8.669275 11.072488,8.669275" style="fill: white" /><polygon type="contour" points="10.8048,8.931849 10.804618,9.086524 10.804763,9.224965 10.749192,9.224965 10.698833,9.225111 10.698933,9.103679 10.698933,8.931884 10.743725,8.93175" style="fill: white" /><polygon type="contour" points="10.743725,8.669474 10.80468,8.669474 10.80468,8.709771 10.80494,8.764671 10.743725,8.764674 10.698933,8.764597 10.69871,8.72758 10.69871,8.669275" style="fill: white" /><polygon type="contour" points="10.462306,8.708835 10.462306,8.764597 10.422866,8.764597 10.367124,8.764578 10.367124,8.71714 10.367104,8.669397 10.40412,8.669275 10.462427,8.669275" style="fill: white" /><polygon type="contour" points="10.462306,8.931884 10.462552,9.05939 10.462552,9.225111 10.420836,9.225111 10.367052,9.224965 10.367091,9.083691 10.367165,8.931825 10.414468,8.931825" style="fill: white" /><polygon type="contour" points="10.200299,9.083353 10.200149,9.224519 10.047165,9.224519 9.907124,9.224578 9.907124,9.154516 9.90707,9.085865 9.90707,8.931663 10.054991,8.931746 10.20023,8.931472" style="fill: white" /><polygon type="contour" points="10.199743,9.350565 10.199647,9.400826 10.199772,9.450189 10.072553,9.45015 9.906547,9.45015 9.906547,9.40701 9.906738,9.350453 10.060938,9.350453" style="fill: white" /><polygon type="contour" points="10.462552,9.35049 10.462427,9.388947 10.463526,9.450108 10.424011,9.450189 10.366925,9.450189 10.366872,9.40701 10.367052,9.350428 10.416871,9.350428" style="fill: white" /><polygon type="contour" points="10.403841,9.682026 10.463525,9.682026 10.463564,9.725089 10.462551,9.781215 10.420836,9.781215 10.367052,9.781277 10.367124,9.731713 10.366925,9.681926" style="fill: white" /><polygon type="contour" points="10.199847,9.725089 10.199742,9.781138 10.04534,9.781138 9.906738,9.781252 9.906738,9.728993 9.906547,9.68195 10.027693,9.681926 10.199772,9.681926" style="fill: white" /><polygon type="contour" points="10.199956,10.054992 10.20023,10.200232 10.048348,10.200301 9.90707,10.200041 9.90707,10.04584 9.907124,9.907126 9.976357,9.907126 10.045837,9.907071 10.200038,9.907071" style="fill: white" /><polygon type="contour" points="10.462306,10.028024 10.462306,10.19982 10.422866,10.19982 10.367124,10.199607 10.367052,10.047338 10.367052,9.906738 10.416872,9.906738 10.462552,9.906594" style="fill: white" /><polygon type="contour" points="10.462427,10.404122 10.462427,10.462429 10.422866,10.462308 10.367104,10.462308 10.367104,10.422868 10.367124,10.367126 10.414561,10.367126 10.462306,10.367107" style="fill: white" /><polygon type="contour" points="10.80494,10.367033 10.80494,10.415355 10.80468,10.462231 10.763445,10.462429 10.69871,10.462429 10.698933,10.422869 10.698933,10.367107 10.743725,10.36703" style="fill: white" /><polygon type="contour" points="11.019119,10.367126 11.072851,10.367126 11.072479,10.422868 11.072488,10.462429 11.026709,10.462231 10.964946,10.462231 10.964946,10.421931 10.965224,10.367033" style="fill: white" /><polygon type="contour" points="11.243568,11.010683 11.249314,11.249316 11.046477,11.242247 10.967403,11.242883 10.966351,11.213865 10.966351,11.185813 10.966394,11.184354 10.965904,11.134895 10.965972,11.073795 10.965972,10.965974 11.099618,10.965841 11.240958,10.965841" style="fill: white" /><polygon type="contour" points="11.072622,10.753938 11.072795,10.804802 11.02076,10.804759 10.965157,10.804759 10.965157,10.750593 10.964946,10.698984 11.006894,10.698712 11.072488,10.698712" style="fill: white" /><polygon type="contour" points="10.8048,10.965315 10.8048,11.072797 10.743724,11.072641 10.69871,11.072491 10.698982,11.026711 10.698982,10.964948 10.743724,10.964948" style="fill: white" /><polygon type="contour" points="10.743725,10.698984 10.80468,10.698984 10.80468,10.743727 10.8048,10.804802 10.75289,10.804942 10.743724,10.804682 10.698982,10.804682 10.69871,10.763447 10.69871,10.698712" style="fill: white" /><polygon type="contour" points="10.46223,10.743726 10.46223,10.804682 10.42193,10.804682 10.367031,10.804942 10.367028,10.743726 10.367104,10.698935 10.40412,10.698712 10.462427,10.698712" style="fill: white" /><polygon type="contour" points="10.462427,11.006897 10.462427,11.07249 10.412063,11.072885 10.367123,11.072853 10.367031,11.017964 10.367031,10.965226 10.415352,10.965226 10.46223,10.964948" style="fill: white" /><polygon type="contour" points="10.057134,10.965801 10.200341,10.965801 10.200371,11.118922 10.200333,11.205388 10.200333,11.241186 10.149335,11.242005 9.907613,11.24196 9.907104,11.221775 9.907104,11.202354 9.907188,11.20059 9.907123,11.073567 9.906996,11.022659 9.906996,10.965398" style="fill: white" /><polygon type="contour" points="9.781144,11.021993 9.781136,11.07272 9.724692,11.072565 9.681595,11.07244 9.681683,11.026768 9.681683,10.965305 9.724691,10.96495 9.781144,10.964733" style="fill: white" /><polygon type="contour" points="9.781213,10.744812 9.781355,10.80462 9.73031,10.804802 9.681683,10.804771 9.681595,10.763642 9.681595,10.699234 9.724691,10.699317 9.781213,10.698835" style="fill: white" /><polygon type="contour" points="10.028023,10.698935 10.199818,10.698935 10.199686,10.751268 10.199811,10.804521 10.045178,10.80462 9.906811,10.80462 9.906811,10.748903 9.906592,10.698835" style="fill: white" /><polygon type="contour" points="10.052805,10.367126 10.199604,10.367126 10.199604,10.414564 10.199818,10.462308 10.028022,10.462308 9.906592,10.462554 9.906592,10.420838 9.906737,10.367054" style="fill: white" /><polygon type="contour" points="9.781275,10.367054 9.781275,10.416873 9.781213,10.462554 9.742756,10.462429 9.681595,10.463528 9.681514,10.424013 9.681514,10.366925 9.724691,10.366873" style="fill: white" /><polygon type="contour" points="9.449677,10.403842 9.449677,10.463527 9.406613,10.463566 9.350488,10.462553 9.350488,10.420838 9.350426,10.367054 9.399989,10.367126 9.449776,10.366926" style="fill: white" /><polygon type="contour" points="9.224963,10.416873 9.225109,10.462554 9.103678,10.462308 8.931882,10.462308 8.932096,10.414564 8.932096,10.367126 9.078893,10.367126 9.224963,10.367054" style="fill: white" /><polygon type="contour" points="9.225109,10.744812 9.224963,10.804765 9.074174,10.804951 8.931847,10.804801 8.932012,10.751268 8.931882,10.698935 9.103677,10.698935 9.225109,10.698835" style="fill: white" /><polygon type="contour" points="9.449677,10.699234 9.449613,10.744116 9.449613,10.804771 9.406613,10.804621 9.350346,10.80462 9.350346,10.748903 9.350488,10.698835 9.388943,10.698712" style="fill: white" /><polygon type="contour" points="9.406613,10.96495 9.449613,10.965305 9.449677,11.007173 9.449677,11.072439 9.406613,11.072564 9.350565,11.072719 9.350565,10.964845" style="fill: white" /><polygon type="contour" points="9.224704,11.022659 9.224576,11.073568 9.22451,11.200589 9.224593,11.221775 9.224428,11.223323 9.224086,11.241959 8.982364,11.242005 8.931367,11.241186 8.931367,11.205389 8.931357,10.991775 8.931357,10.965973 9.074313,10.965841 9.224704,10.965398" style="fill: white" /><polygon type="contour" points="8.764669,10.965226 8.764576,11.01912 8.764576,11.072853 8.708833,11.072482 8.669273,11.072491 8.669472,11.026711 8.669472,10.964948 8.70977,10.964948" style="fill: white" /><polygon type="contour" points="8.708833,10.698935 8.764596,10.698935 8.764672,10.743726 8.764669,10.804942 8.716347,10.804942 8.669472,10.804682 8.669273,10.763446 8.669273,10.698711" style="fill: white" /><polygon type="contour" points="8.432718,10.743727 8.432718,10.804682 8.387975,10.804682 8.326898,10.804802 8.326758,10.752892 8.327017,10.743726 8.327017,10.698984 8.368252,10.698712 8.432991,10.698712" style="fill: white" /><polygon type="contour" points="8.432991,11.006896 8.432991,11.072491 8.377763,11.072624 8.326899,11.072797 8.326942,11.020762 8.326942,10.965159 8.381108,10.965159 8.432718,10.964948" style="fill: white" /><polygon type="contour" points="8.165727,11.073795 8.165794,11.134896 8.165306,11.184353 8.165349,11.213865 8.165055,11.215863 8.164297,11.242883 8.085223,11.242247 7.882386,11.249316 7.890258,11.021372 7.890607,10.965974 8.165727,10.965974" style="fill: white" />
</svg>
