<svg width="19.131698" height="19.131699">
<polygon type="contour" points="9.598099,8.611913 9.609447,8.611929 9.711101,8.611438 9.711101,8.910869 9.4206,8.910869 9.4206,8.611438 9.521765,8.611929 9.5655,8.611095" style="fill: white" /><polygon type="contour" points="8.867443,8.611548 8.909533,8.611352 8.910429,8.638747 8.910429,8.665461 8.910415,8.669859 8.910217,8.900155 8.910217,8.910219 8.887611,8.910219 8.687509,8.910409 8.611708,8.910409 8.610807,8.828626 8.609921,8.806658 8.603902,8.603904" style="fill: white" /><polygon type="contour" points="9.128634,8.778719 9.165112,8.778727 9.201084,8.778758 9.221042,8.778734 9.221042,8.911102 9.201083,8.911057 9.128634,8.911018 9.109943,8.911051 9.109943,8.778687" style="fill: white" /><polygon type="contour" points="8.911016,9.128636 8.911055,9.201086 8.911135,9.221044 8.778732,9.221044 8.778756,9.201086 8.778725,9.165114 8.778717,9.128636 8.778685,9.109946 8.911049,9.109946" style="fill: white" /><polygon type="contour" points="9.221035,9.128636 9.221023,9.201085 9.221042,9.216415 9.221042,9.221044 9.201083,9.221026 9.128623,9.221026 9.113224,9.221044 9.1087,9.221044 9.108986,9.201085 9.110024,9.128636 9.109943,9.114179 9.109943,9.109946 9.128633,9.110026 9.202139,9.110026 9.221054,9.109932" style="fill: white" /><polygon type="contour" points="9.711101,9.221044 9.4206,9.221044 9.4206,9.109932 9.711101,9.109932" style="fill: white" /><polygon type="contour" points="9.930616,9.108987 10.003065,9.110025 10.017523,9.109946 10.021757,9.109946 10.021676,9.128636 10.022714,9.201085 10.023035,9.221044 10.003075,9.221026 9.998463,9.221044 9.910659,9.221044 9.910677,9.201085 9.910677,9.128625 9.910659,9.108666" style="fill: white" /><polygon type="contour" points="10.021757,8.911051 10.003065,8.911018 9.930617,8.911057 9.910659,8.911102 9.910659,8.778734 9.930617,8.778758 9.966586,8.778728 10.003065,8.778719 10.021757,8.778687" style="fill: white" /><polygon type="contour" points="10.521779,8.806658 10.520894,8.828626 10.519993,8.910409 10.44419,8.910409 10.244088,8.910219 10.221482,8.910219 10.221284,8.716335 10.221284,8.669859 10.221271,8.638748 10.221405,8.635788 10.222167,8.611352 10.264256,8.611548 10.527798,8.603904" style="fill: white" /><polygon type="contour" points="10.352984,9.128636 10.352975,9.165114 10.352945,9.201086 10.352969,9.221044 10.220599,9.221044 10.220645,9.201085 10.220684,9.128636 10.220651,9.109946 10.353016,9.109946" style="fill: white" /><polygon type="contour" points="10.520852,9.549178 10.520773,9.565501 10.520322,9.703896 10.520357,9.711102 10.22078,9.711102 10.22078,9.442504 10.220833,9.420602 10.520357,9.420602" style="fill: white" /><polygon type="contour" points="10.520894,10.303077 10.521779,10.325043 10.527798,10.5278 10.264256,10.520157 10.222167,10.520353 10.221271,10.492957 10.221271,10.466244 10.221284,10.461844 10.221482,10.231548 10.221482,10.221484 10.244088,10.221484 10.44419,10.221294 10.519993,10.221294" style="fill: white" /><polygon type="contour" points="10.352945,9.930619 10.352975,9.966588 10.352984,10.003067 10.353016,10.021758 10.220651,10.021758 10.220684,10.003067 10.220645,9.930618 10.220565,9.910661 10.352969,9.910661" style="fill: white" /><polygon type="contour" points="10.022713,9.930619 10.021676,10.003067 10.021757,10.017524 10.021757,10.021758 10.003066,10.021678 9.929561,10.021678 9.910647,10.02174 9.910666,10.003067 9.910677,9.930619 9.910659,9.915289 9.910659,9.910661 9.930617,9.910679 10.003076,9.910679 10.018475,9.910661 10.023,9.910661" style="fill: white" /><polygon type="contour" points="10.021771,9.697565 10.021739,9.711102 9.910659,9.711102 9.910659,9.420602 10.021771,9.420602" style="fill: white" /><polygon type="contour" points="9.711101,9.711102 9.4206,9.711102 9.4206,9.420602 9.711101,9.420602" style="fill: white" /><polygon type="contour" points="9.711101,10.02174 9.4206,10.02174 9.4206,9.910661 9.711101,9.910661" style="fill: white" /><polygon type="contour" points="9.930616,10.220647 10.003065,10.220686 10.021757,10.220653 10.021757,10.353018 10.003065,10.352986 9.966586,10.352977 9.930617,10.352947 9.910659,10.352971 9.910659,10.220567" style="fill: white" /><polygon type="contour" points="9.711101,10.520267 9.609935,10.519774 9.566117,10.520607 9.533601,10.519789 9.522252,10.519774 9.4206,10.520267 9.4206,10.220782 9.711101,10.220782" style="fill: white" /><polygon type="contour" points="9.221042,10.352971 9.201084,10.352947 9.165112,10.352977 9.128634,10.352986 9.109943,10.353018 9.109943,10.220653 9.128634,10.220686 9.201084,10.220647 9.221042,10.220567" style="fill: white" /><polygon type="contour" points="9.221042,9.910661 9.221023,9.930619 9.221034,10.003067 9.221054,10.02174 9.202138,10.021678 9.128634,10.021678 9.114176,10.021758 9.109943,10.021758 9.110024,10.003067 9.110024,9.929563 9.109961,9.91065 9.128634,9.910669 9.132957,9.91065" style="fill: white" /><polygon type="contour" points="9.221042,9.711102 9.109961,9.711102 9.109961,9.420602 9.221042,9.420602" style="fill: white" /><polygon type="contour" points="8.91092,9.711102 8.611344,9.711102 8.610847,9.582524 8.610926,9.566201 8.611379,9.427807 8.611344,9.420602 8.91092,9.420602" style="fill: white" /><polygon type="contour" points="8.911055,9.930618 8.911016,10.003067 8.911049,10.021758 8.778685,10.021758 8.778717,10.003067 8.778726,9.966588 8.778756,9.930619 8.778732,9.910661 8.911135,9.910661" style="fill: white" /><polygon type="contour" points="8.887611,10.221484 8.910217,10.221484 8.910415,10.415367 8.910415,10.461844 8.910429,10.492957 8.910294,10.495916 8.909533,10.520353 8.867443,10.520157 8.603902,10.5278 8.609922,10.325042 8.610807,10.303077 8.611708,10.221294 8.687509,10.221294" style="fill: white" />
</svg>
