<svg width="19.131698" height="19.131699">
<polygon type="contour" points="10.574188,8.744565 10.572422,8.852253 10.423363,8.852342 10.279361,8.852342 10.279361,8.790527 10.279297,8.668232 10.279443,8.659617 10.279443,8.60943 10.28118,8.557735 10.358967,8.558498 10.36278,8.558067 10.425045,8.556283 10.579911,8.551791" style="fill: white" /><polygon type="contour" points="10.575608,9.490395 10.576787,9.565855 10.575608,9.640971 10.575939,9.711102 10.279004,9.711102 10.279004,9.420602 10.575939,9.420602" style="fill: white" /><polygon type="contour" points="10.405908,9.263483 10.405635,9.305996 10.342463,9.305996 10.279004,9.30652 10.279004,9.258765 10.278951,9.213339 10.322007,9.213169 10.405685,9.213169" style="fill: white" /><polygon type="contour" points="10.405525,9.022732 10.405685,9.059906 10.356292,9.059863 10.278951,9.059863 10.278951,9.022731 10.279037,8.965723 10.405708,8.965723" style="fill: white" /><polygon type="contour" points="9.686928,8.559099 9.711101,8.55936 9.711101,8.852696 9.419909,8.852696 9.4206,8.791213 9.4206,8.55936 9.473893,8.557039 9.565501,8.555401" style="fill: white" /><polygon type="contour" points="8.706654,8.556283 8.768919,8.558067 8.772734,8.558499 8.850519,8.557735 8.85246,8.604269 8.852256,8.60943 8.852404,8.668233 8.852404,8.749986 8.852339,8.852342 8.708337,8.852342 8.559279,8.852253 8.557513,8.744566 8.551789,8.551791" style="fill: white" /><polygon type="contour" points="8.775407,10.07184 8.852749,10.07184 8.852749,10.108971 8.852664,10.165981 8.725992,10.165981 8.726173,10.108971 8.726014,10.071798" style="fill: white" /><polygon type="contour" points="8.852695,9.711793 8.79121,9.711102 8.55576,9.711102 8.556091,9.641308 8.554913,9.565848 8.556092,9.490732 8.555761,9.420602 8.79121,9.420602 8.852695,9.419912" style="fill: white" /><polygon type="contour" points="8.852696,9.825897 8.852696,9.872938 8.852749,9.918365 8.809692,9.918535 8.726014,9.918535 8.725792,9.868221 8.726065,9.825708 8.789235,9.825708" style="fill: white" /><polygon type="contour" points="9.059904,9.857382 9.059904,9.918535 9.022729,9.918365 8.965362,9.918365 8.965362,9.882059 8.965746,9.825897 9.02273,9.825538 9.059752,9.825393" style="fill: white" /><polygon type="contour" points="9.305994,9.825708 9.305994,9.872897 9.306308,9.918494 9.274317,9.918535 9.213168,9.918535 9.213208,9.882112 9.213208,9.825393 9.249589,9.825393" style="fill: white" /><polygon type="contour" points="9.305994,9.711102 9.213208,9.711102 9.213208,9.420602 9.305994,9.420602" style="fill: white" /><polygon type="contour" points="9.249588,9.21321 9.306308,9.21321 9.306308,9.249591 9.305994,9.305996 9.258804,9.305996 9.213208,9.30631 9.213168,9.27432 9.213168,9.213169" style="fill: white" /><polygon type="contour" points="9.013616,9.420602 9.059752,9.420602 9.059752,9.711102 9.02273,9.711652 8.965722,9.711817 8.965722,9.419888" style="fill: white" /><polygon type="contour" points="9.059752,9.249591 9.059752,9.30631 9.02273,9.306164 8.965722,9.30683 8.965362,9.249645 8.965362,9.213339 8.997834,9.213169 9.059904,9.213169" style="fill: white" /><polygon type="contour" points="8.775407,9.213339 8.852749,9.213339 8.852749,9.249645 8.852696,9.305808 8.789236,9.305996 8.726065,9.305996 8.726208,9.249591 8.726014,9.213169" style="fill: white" /><polygon type="contour" points="8.852664,9.013972 8.852749,9.059863 8.809693,9.059906 8.726013,9.059906 8.725759,9.009021 8.725992,8.965723 8.852664,8.965723" style="fill: white" /><polygon type="contour" points="9.059904,8.997838 9.059904,9.059906 9.022729,9.059863 8.965362,9.059863 8.965362,9.022732 8.965722,8.965723 9.011973,8.965723 9.02273,8.965364 9.05986,8.965364" style="fill: white" /><polygon type="contour" points="9.02273,8.726175 9.059904,8.726016 9.05986,8.775408 9.05986,8.852751 9.022729,8.852751 8.965722,8.852666 8.965722,8.725994" style="fill: white" /><polygon type="contour" points="9.305994,8.726067 9.305994,8.789238 9.305805,8.852698 9.258763,8.852698 9.213337,8.852751 9.213168,8.809695 9.213168,8.726016 9.263482,8.725794" style="fill: white" /><polygon type="contour" points="9.306827,8.965723 9.306161,9.022732 9.306308,9.059754 9.274318,9.059906 9.213168,9.059906 9.213337,9.022731 9.213337,8.965364 9.249643,8.965364" style="fill: white" /><polygon type="contour" points="9.711101,9.059754 9.420599,9.059754 9.42005,9.022732 9.419885,8.965723 9.711101,8.965723" style="fill: white" /><polygon type="contour" points="9.918532,8.997838 9.918532,9.059906 9.882111,9.059754 9.825391,9.059754 9.824987,9.022731 9.825182,8.965748 9.872936,8.965748 9.918363,8.965364" style="fill: white" /><polygon type="contour" points="9.918363,8.775408 9.918363,8.852751 9.881508,8.852751 9.825182,8.852698 9.825707,8.789239 9.825707,8.726067 9.88211,8.72621 9.918532,8.726016" style="fill: white" /><polygon type="contour" points="10.165979,8.725994 10.165979,8.852666 10.117728,8.852666 10.071838,8.852751 10.071796,8.809694 10.071796,8.726016 10.122681,8.725762" style="fill: white" /><polygon type="contour" points="10.165979,8.965723 10.165979,9.013972 10.166339,9.059863 10.133866,9.059906 10.071796,9.059906 10.071838,9.022732 10.071838,8.965364 10.108969,8.965364" style="fill: white" /><polygon type="contour" points="10.10897,9.213339 10.166339,9.213339 10.166339,9.250195 10.165954,9.30652 10.10897,9.306714 10.071948,9.30631 10.071796,9.27432 10.071796,9.213169" style="fill: white" /><polygon type="contour" points="9.918492,9.249591 9.918492,9.30631 9.882111,9.30631 9.825707,9.305995 9.825707,9.258807 9.825392,9.213209 9.85738,9.213169 9.918532,9.213169" style="fill: white" /><polygon type="contour" points="9.711101,9.305996 9.4206,9.305996 9.4206,9.21321 9.711101,9.21321" style="fill: white" /><polygon type="contour" points="9.918532,9.857382 9.918532,9.918535 9.882111,9.918494 9.825392,9.918494 9.825392,9.882112 9.825707,9.825708 9.872894,9.825708 9.918492,9.825393" style="fill: white" /><polygon type="contour" points="9.918492,9.711102 9.825707,9.711102 9.825707,9.420602 9.918492,9.420602" style="fill: white" /><polygon type="contour" points="9.711101,9.711102 9.4206,9.711102 9.4206,9.420602 9.711101,9.420602" style="fill: white" /><polygon type="contour" points="9.711101,9.918494 9.4206,9.918494 9.4206,9.825708 9.711101,9.825708" style="fill: white" /><polygon type="contour" points="9.711101,10.572345 9.65755,10.574665 9.565848,10.5763 9.444771,10.572605 9.4206,10.572345 9.4206,10.279007 9.711101,10.279007" style="fill: white" /><polygon type="contour" points="9.918532,10.322008 9.918532,10.405686 9.868217,10.40591 9.825707,10.405637 9.825707,10.342464 9.825182,10.279006 9.872936,10.279006 9.918363,10.278953" style="fill: white" /><polygon type="contour" points="10.165979,10.279038 10.165979,10.40571 10.108969,10.405527 10.071796,10.405686 10.071838,10.356293 10.071838,10.278953 10.10897,10.278953" style="fill: white" /><polygon type="contour" points="10.572422,10.279449 10.574187,10.387135 10.57991,10.579913 10.425045,10.57542 10.36278,10.573637 10.358967,10.573204 10.28118,10.57397 10.27924,10.527435 10.279443,10.522271 10.279297,10.463471 10.279297,10.381717 10.279361,10.279362 10.423364,10.279362" style="fill: white" /><polygon type="contour" points="10.40594,10.122682 10.405708,10.165981 10.279037,10.165981 10.279037,10.117731 10.278951,10.07184 10.322007,10.071798 10.405685,10.071798" style="fill: white" /><polygon type="contour" points="10.342463,9.825708 10.405635,9.825708 10.405491,9.882113 10.405685,9.918535 10.356291,9.918365 10.278951,9.918365 10.278951,9.881509 10.279004,9.825184" style="fill: white" /><polygon type="contour" points="10.165979,9.711102 10.071948,9.711102 10.071948,9.420602 10.165979,9.420602" style="fill: white" /><polygon type="contour" points="10.166339,9.881509 10.166339,9.918365 10.133866,9.918535 10.071796,9.918535 10.071948,9.882112 10.071948,9.825393 10.10897,9.824988 10.165979,9.82416" style="fill: white" /><polygon type="contour" points="10.108969,10.07184 10.166339,10.07184 10.166339,10.108971 10.165979,10.165981 10.119726,10.165981 10.10897,10.16634 10.071838,10.16634 10.071796,10.133867 10.071796,10.071798" style="fill: white" /><polygon type="contour" points="9.918363,10.108972 9.918363,10.16634 9.881507,10.16634 9.824158,10.165981 9.824987,10.108972 9.825392,10.07195 9.857381,10.071798 9.918532,10.071798" style="fill: white" /><polygon type="contour" points="9.711101,10.165981 9.4206,10.165981 9.4206,10.07195 9.711101,10.07195" style="fill: white" /><polygon type="contour" points="9.306518,10.279006 9.305994,10.342464 9.305994,10.405637 9.249588,10.405493 9.213168,10.405687 9.213337,10.356294 9.213337,10.278953 9.250192,10.278953" style="fill: white" /><polygon type="contour" points="9.249588,10.07195 9.306308,10.07195 9.306712,10.108971 9.307542,10.165981 9.25965,10.165981 9.213337,10.16634 9.213168,10.133867 9.213168,10.071798" style="fill: white" /><polygon type="contour" points="9.05986,10.108972 9.05986,10.16634 9.022729,10.16634 8.965722,10.165981 8.965722,10.11773 8.965362,10.07184 8.997834,10.071798 9.059904,10.071798" style="fill: white" /><polygon type="contour" points="9.059904,10.322008 9.059904,10.405687 9.009018,10.405942 8.965722,10.40571 8.965722,10.279038 9.013969,10.279038 9.05986,10.278953" style="fill: white" /><polygon type="contour" points="8.85234,10.341176 8.852404,10.463471 8.852256,10.472085 8.852256,10.522271 8.85052,10.57397 8.772734,10.573205 8.768919,10.573636 8.706654,10.57542 8.551789,10.579913 8.557513,10.387135 8.559279,10.279449 8.708336,10.279362 8.85234,10.279362" style="fill: white" />
</svg>
