<svg width="19.131698" height="19.131699">
<polygon type="contour" points="8.077899,8.030658 8.178286,8.031775 8.305673,8.033375 8.305634,8.147104 8.304971,8.304972 8.196285,8.305169 8.032728,8.305169 8.032748,8.133314 8.032399,8.119206 8.029788,8.029791" style="fill: white" /><polygon type="contour" points="8.306095,8.593323 8.306397,8.691234 8.306105,8.798619 8.286866,8.798714 8.200992,8.798714 8.201329,8.707019 8.20131,8.702732 8.201435,8.702732 8.200888,8.59187 8.200957,8.572687 8.306095,8.572687" style="fill: white" /><polygon type="contour" points="11.098952,10.99839 11.099301,11.012498 11.101912,11.101913 11.0538,11.101047 10.953413,11.099927 10.826026,11.098328 10.826066,10.9846 10.82673,10.826731 10.935413,10.826534 11.098973,10.826534" style="fill: white" /><polygon type="contour" points="10.558581,10.825549 10.558581,10.846202 10.559014,10.930745 10.459214,10.930377 10.440372,10.930318 10.34947,10.930671 10.332987,10.93071 10.333082,10.911169 10.333082,10.825597 10.350826,10.825597 10.440731,10.82531" style="fill: white" /><polygon type="contour" points="11.0993,8.119206 11.098952,8.133314 11.098973,8.305169 10.935413,8.305169 10.82673,8.304971 10.826066,8.147103 10.826026,8.033375 10.953413,8.031774 11.0538,8.030658 11.101912,8.029791" style="fill: white" /><polygon type="contour" points="10.559014,9.07232 10.559172,9.137512 10.559172,9.364973 10.535795,9.364973 10.454468,9.364739 10.423912,9.364739 10.333052,9.364995 10.332987,9.311669 10.332987,9.072366 10.350456,9.072366 10.441656,9.072091" style="fill: white" /><polygon type="contour" points="11.098897,9.135493 11.098359,9.364581 10.826597,9.364581 10.826762,9.136967 10.82673,9.071759 10.886148,9.071741 11.098988,9.071361" style="fill: white" /><polygon type="contour" points="10.930375,8.672487 10.930316,8.69135 10.93067,8.782229 10.930709,8.798714 10.911168,8.798619 10.825595,8.798619 10.825595,8.780875 10.825302,8.68914 10.825605,8.572687 10.930743,8.572687" style="fill: white" /><polygon type="contour" points="10.559014,8.572687 10.559014,8.593322 10.559484,8.68788 10.55918,8.798619 10.454449,8.798609 10.454449,8.798606 10.451504,8.798609 10.428971,8.798607 10.428971,8.798629 10.332987,8.798714 10.332987,8.781244 10.333096,8.677252 10.33307,8.677252 10.333093,8.672487 10.333082,8.572523 10.424625,8.572271 10.459214,8.572271" style="fill: white" /><polygon type="contour" points="10.559014,8.200959 10.558581,8.285501 10.558581,8.306154 10.538064,8.306154 10.454433,8.306356 10.438645,8.306394 10.333082,8.306107 10.332987,8.286868 10.332987,8.200995 10.424681,8.201331 10.428969,8.201311 10.428969,8.201437 10.539833,8.20089" style="fill: white" /><polygon type="contour" points="10.060093,8.095086 10.059961,8.245553 10.059944,8.304972 9.994734,8.304941 9.767273,8.304941 9.767273,8.281563 9.767038,8.0616 9.767339,8.033436 9.814302,8.0339 10.060093,8.032727" style="fill: white" /><polygon type="contour" points="9.824285,8.572687 10.05938,8.572687 10.059359,8.592938 10.059605,8.691098 10.059336,8.781244 10.059336,8.798714 9.997865,8.798649 9.766706,8.798649 9.766706,8.77851 9.766963,8.702715 9.766963,8.671678 9.76673,8.57253" style="fill: white" /><polygon type="contour" points="9.36497,8.595906 9.364737,8.677234 9.364737,8.70779 9.364994,8.798649 9.311668,8.798714 9.072365,8.798714 9.072365,8.781245 9.072094,8.691155 9.07234,8.592938 9.07232,8.572687 9.13751,8.57253 9.36497,8.57253" style="fill: white" /><polygon type="contour" points="9.496772,8.570701 9.561877,8.572623 9.56929,8.57283 9.653,8.57253 9.652932,8.671678 9.652932,8.707789 9.65279,8.798649 9.636306,8.798714 9.569811,8.798132 9.561255,8.798132 9.478911,8.798649 9.478911,8.77851 9.478768,8.702715 9.478765,8.570608" style="fill: white" /><polygon type="contour" points="9.652935,8.305918 9.569182,8.306379 9.561876,8.306379 9.478765,8.305918 9.478765,8.200916 9.561877,8.201378 9.5655,8.201401 9.569183,8.201377 9.652935,8.200916" style="fill: white" /><polygon type="contour" points="9.364361,8.033436 9.364661,8.061599 9.364661,8.078946 9.364427,8.304941 9.306853,8.304972 9.071757,8.304972 9.071776,8.284528 9.071776,8.252152 9.071706,8.145292 9.071706,8.032749 9.254354,8.030925" style="fill: white" /><polygon type="contour" points="8.798712,8.200994 8.798617,8.220533 8.798617,8.306107 8.780873,8.306107 8.702706,8.306356 8.702705,8.306356 8.689138,8.306399 8.572686,8.306097 8.572686,8.200959 8.672485,8.201327 8.677261,8.201312 8.677261,8.20144 8.782227,8.200912" style="fill: white" /><polygon type="contour" points="8.798617,8.572523 8.798607,8.677252 8.798604,8.677252 8.798607,8.680197 8.798605,8.702731 8.798627,8.702731 8.798712,8.798714 8.781243,8.798714 8.67725,8.798606 8.67725,8.798633 8.672485,8.79861 8.572521,8.798619 8.572521,8.780875 8.572214,8.685649 8.572686,8.572687 8.59332,8.572687 8.687911,8.572218" style="fill: white" /><polygon type="contour" points="8.59276,9.071952 8.67725,9.07213 8.707018,9.07213 8.798712,9.072365 8.798647,9.133836 8.798647,9.364995 8.778509,9.364995 8.702714,9.364739 8.671677,9.364739 8.572528,9.364973 8.572703,9.136039 8.572863,9.071933" style="fill: white" /><polygon type="contour" points="8.085423,9.071368 8.304971,9.071759 8.304939,9.136967 8.305075,9.36456 8.033045,9.36456 8.032802,9.135493 8.032711,9.071361" style="fill: white" /><polygon type="contour" points="8.220531,10.333084 8.306105,10.333084 8.306105,10.350826 8.306397,10.442563 8.306095,10.559016 8.200957,10.559016 8.201325,10.459216 8.201309,10.45444 8.201438,10.45444 8.20091,10.349471 8.200992,10.332989" style="fill: white" /><polygon type="contour" points="8.138192,9.767144 8.305075,9.767144 8.305101,9.996211 8.305138,10.060336 8.24672,10.060343 8.032711,10.060343 8.032802,9.99621 8.03334,9.767123" style="fill: white" /><polygon type="contour" points="8.30598,9.496775 8.306377,9.56252 8.306377,9.569824 8.305916,9.652936 8.200914,9.652936 8.201376,9.569824 8.201399,9.566202 8.201375,9.562519 8.200914,9.478768 8.305916,9.478768" style="fill: white" /><polygon type="contour" points="8.671676,9.47877 8.707787,9.47877 8.798647,9.478912 8.798712,9.495395 8.79813,9.561891 8.79813,9.570447 8.798647,9.652792 8.778508,9.652792 8.702713,9.652935 8.702714,9.652914 8.572528,9.653002 8.572828,9.569931 8.572828,9.562412 8.572528,9.478702" style="fill: white" /><polygon type="contour" points="8.798712,9.820034 8.798712,10.059338 8.781243,10.059338 8.716393,10.059532 8.702728,10.059574 8.702728,10.05952 8.572862,10.05977 8.572703,9.995664 8.572528,9.766731 8.595904,9.766731 8.677231,9.766965 8.707788,9.766965 8.798647,9.766709" style="fill: white" /><polygon type="contour" points="8.798712,10.350456 8.798604,10.454452 8.798631,10.454452 8.798608,10.459216 8.798617,10.559181 8.707074,10.559434 8.672484,10.559434 8.572686,10.559016 8.572686,10.53838 8.572216,10.443807 8.572521,10.333084 8.67725,10.333095 8.67725,10.333098 8.680619,10.333095 8.702729,10.333098 8.702729,10.333075 8.798712,10.332989" style="fill: white" /><polygon type="contour" points="9.133835,10.333053 9.364994,10.333053 9.364994,10.353191 9.364737,10.428988 9.364737,10.460025 9.36497,10.559173 9.307414,10.559016 9.07232,10.559016 9.07234,10.538765 9.072094,10.440548 9.072365,10.350456 9.072365,10.332989" style="fill: white" /><polygon type="contour" points="9.561254,10.333573 9.569811,10.333573 9.65279,10.333053 9.65279,10.353192 9.652932,10.428988 9.652931,10.428987 9.652935,10.561096 9.634926,10.561002 9.569182,10.559081 9.561771,10.558875 9.4787,10.559173 9.478768,10.460025 9.478768,10.423913 9.478911,10.333053 9.495394,10.332989" style="fill: white" /><polygon type="contour" points="9.652828,9.995664 9.652828,10.059862 9.569427,10.059497 9.561635,10.059497 9.478872,10.059862 9.478872,9.995664 9.477049,9.766585 9.561935,9.766838 9.569066,9.766838 9.654115,9.766585" style="fill: white" /><polygon type="contour" points="9.364557,9.880419 9.364316,9.994121 9.364316,10.060145 9.306982,10.060043 9.071384,10.060319 9.071294,9.99621 9.07153,9.767144 9.364557,9.767144" style="fill: white" /><polygon type="contour" points="9.561877,9.479118 9.569182,9.479118 9.652935,9.478768 9.652585,9.56252 9.652585,9.569825 9.652935,9.652936 9.569183,9.652587 9.561877,9.652587 9.478765,9.652936 9.478765,9.632608 9.479116,9.569824 9.479116,9.562519 9.478765,9.478768 9.499092,9.478768" style="fill: white" /><polygon type="contour" points="9.365116,9.49793 9.364859,9.562579 9.364833,9.569824 9.364857,9.652936 9.0721,9.652936 9.072223,9.635227 9.072235,9.569824 9.072205,9.562275 9.071841,9.478874 9.136039,9.478874 9.365116,9.477049" style="fill: white" /><polygon type="contour" points="9.364557,9.071532 9.364557,9.36456 9.25128,9.36456 9.137581,9.364318 9.071558,9.364318 9.07166,9.306982 9.071384,9.071385 9.135492,9.071295" style="fill: white" /><polygon type="contour" points="9.652828,9.136039 9.654115,9.365119 9.569067,9.364863 9.561935,9.364863 9.477049,9.365119 9.478765,9.138123 9.478765,9.0721 9.496473,9.072223 9.561876,9.072236 9.569427,9.072206 9.652828,9.071842" style="fill: white" /><polygon type="contour" points="10.060407,9.135493 10.060171,9.36456 9.767143,9.36456 9.767143,9.251284 9.767384,9.137582 9.767384,9.071559 9.824717,9.071661 10.060317,9.071385" style="fill: white" /><polygon type="contour" points="9.995662,9.478874 10.05986,9.478874 10.059495,9.562275 10.059495,9.570068 10.05986,9.65283 9.995661,9.65283 9.766584,9.654116 9.766835,9.569711 9.766863,9.562519 9.766843,9.478768" style="fill: white" /><polygon type="contour" points="9.994118,9.767386 10.060143,9.767386 10.060041,9.824721 10.060317,10.060319 9.996208,10.060409 9.767143,10.060172 9.767143,9.767144 9.880419,9.767144" style="fill: white" /><polygon type="contour" points="10.428985,9.766965 10.460022,9.766965 10.559172,9.766731 10.558997,9.995664 10.558837,10.059771 10.538939,10.059752 10.454449,10.059574 10.424682,10.059574 10.332987,10.059338 10.333052,9.997867 10.333052,9.766709 10.353189,9.766709" style="fill: white" /><polygon type="contour" points="10.55908,9.56252 10.55908,9.569824 10.561093,9.652936 10.460022,9.652935 10.423912,9.652935 10.333052,9.652792 10.332987,9.636309 10.33357,9.570447 10.33357,9.561892 10.333052,9.478912 10.35319,9.478912 10.428985,9.47877 10.561093,9.478768" style="fill: white" /><polygon type="contour" points="10.930324,9.562519 10.9303,9.566202 10.930323,9.569824 10.930786,9.652936 10.848863,9.652764 10.825618,9.652764 10.825547,9.635058 10.825306,9.569956 10.825306,9.562388 10.825618,9.47894 10.848863,9.47894 10.930786,9.478768" style="fill: white" /><polygon type="contour" points="11.098897,9.99621 11.098989,10.060343 11.046275,10.060336 10.82673,10.059945 10.826762,9.994736 10.826625,9.767144 11.098655,9.767144" style="fill: white" /><polygon type="contour" points="10.930371,10.424683 10.930324,10.444725 10.930683,10.539833 10.930743,10.559016 10.825605,10.559016 10.825605,10.53838 10.825302,10.440469 10.825595,10.333084 10.844833,10.332989 10.930709,10.332989" style="fill: white" /><polygon type="contour" points="10.45445,10.333098 10.45445,10.333072 10.459214,10.333095 10.55918,10.333084 10.55918,10.350827 10.559487,10.446073 10.559014,10.559016 10.538379,10.559016 10.443794,10.559486 10.333082,10.559181 10.333093,10.454451 10.333096,10.454451 10.333093,10.451082 10.333096,10.428973 10.333073,10.428973 10.332987,10.332989 10.350455,10.332989" style="fill: white" /><polygon type="contour" points="10.059336,10.350456 10.059605,10.440605 10.059359,10.538765 10.05938,10.559016 9.994187,10.559173 9.76673,10.559173 9.76673,10.535797 9.766963,10.454469 9.766963,10.423913 9.766706,10.333053 9.82003,10.332989 10.059336,10.332989" style="fill: white" /><polygon type="contour" points="10.059925,10.847174 10.059925,10.879551 10.059995,10.98641 10.059995,11.098955 9.877346,11.100779 9.767339,11.098268 9.767039,11.070104 9.767039,11.052757 9.767273,10.826763 9.824845,10.826731 10.059944,10.826731" style="fill: white" /><polygon type="contour" points="9.569183,10.825324 9.652935,10.825785 9.652935,10.930788 9.569183,10.930326 9.5655,10.930303 9.561877,10.930325 9.478765,10.930788 9.478938,10.848864 9.478938,10.825619 9.496643,10.825549 9.561746,10.825307" style="fill: white" /><polygon type="contour" points="9.136966,10.826763 9.364427,10.826763 9.364427,10.85014 9.364661,11.070103 9.364361,11.098268 9.317397,11.097804 9.071608,11.098976 9.071608,11.036617 9.07174,10.88615 9.071757,10.826731" style="fill: white" /><polygon type="contour" points="8.798617,10.825597 8.798712,10.844835 8.798712,10.930711 8.707017,10.930372 8.686976,10.930326 8.591868,10.930685 8.572686,10.930745 8.573119,10.846202 8.573119,10.825549 8.593635,10.825549 8.693091,10.825309" style="fill: white" /><polygon type="contour" points="8.304971,10.826731 8.305634,10.984599 8.305673,11.098328 8.178285,11.099927 8.077898,11.101047 8.029788,11.101913 8.032398,11.012498 8.032748,10.998389 8.032727,10.826534 8.196285,10.826534" style="fill: white" />
</svg>
