<svg width="19.131698" height="19.131699">
<polygon type="contour" points="17.833674,1.298027 17.833674,1.315477 17.833065,1.588237 17.833108,1.631795 17.81242,1.631716 17.791651,1.631716 17.790951,1.631746 17.77509,1.631732 17.768332,1.631722 17.721567,1.631495 17.693524,1.631416 17.643263,1.631239 17.500462,1.631239 17.500462,1.488437 17.500286,1.438179 17.500203,1.410135 17.49998,1.363369 17.49997,1.356611 17.499956,1.34075 17.499986,1.319282 17.4999,1.318275 17.499878,1.298622 17.757457,1.298025 17.757905,1.297948" style="fill: white" /><polygon type="contour" points="17.688011,3.552995 17.71806,3.55306 17.767391,3.553263 17.774223,3.553389 17.790443,3.553273 17.791651,3.553368 17.81242,3.553368 17.813426,3.553301 17.833108,3.553294 17.833724,3.815218 17.833724,3.885876 17.809727,3.885921 17.797594,3.885973 17.738426,3.885973 17.738628,4.01157 17.738573,4.028048 17.738332,4.142933 17.523151,4.122358 17.50038,4.12208 17.500366,4.05843 17.500366,3.553016 17.605874,3.553016 17.643033,3.552965" style="fill: white" /><polygon type="contour" points="17.642711,2.806033 17.64296,2.999981 17.643132,3.137764 17.500334,3.137764 17.500394,2.984888 17.500564,2.805994 17.594474,2.805994" style="fill: white" /><polygon type="contour" points="17.643056,2.187376 17.642712,2.309951 17.543124,2.309951 17.500564,2.309883 17.500464,2.195886 17.500464,2.114451 17.643262,2.114451" style="fill: white" /><polygon type="contour" points="17.017248,1.631239 16.888045,1.631601 16.82182,1.631601 16.82182,1.537225 16.821752,1.488987 16.894281,1.488783 17.017248,1.488438" style="fill: white" /><polygon type="contour" points="17.017116,2.243656 17.017116,2.309883 16.888046,2.309883 16.821752,2.309951 16.821752,2.173075 16.82182,2.114583 16.935814,2.114451 17.017248,2.114451" style="fill: white" /><polygon type="contour" points="15.578523,2.114732 15.578571,2.237077 15.578571,2.310108 15.413066,2.309979 15.00009,2.309979 14.995959,2.191146 14.998517,2.114451 15.360519,2.114451" style="fill: white" /><polygon type="contour" points="15.578835,2.972145 15.578835,3.137764 15.261196,3.137764 14.998497,3.137674 14.993373,2.993455 15.000313,2.806063 15.413287,2.806063 15.578571,2.805876" style="fill: white" /><polygon type="contour" points="15.578624,3.841973 15.578624,4.141761 15.288299,4.143385 15.00978,4.121922 15.011439,3.994571 15.007154,3.553119 15.127175,3.553119 15.285146,3.552978 15.578738,3.552965" style="fill: white" /><polygon type="contour" points="16.201754,3.553131 16.325826,3.553131 16.326082,3.718635 16.32582,4.130417 16.136912,4.138053 15.994107,4.13316 15.993939,3.81597 15.993939,3.552868" style="fill: white" /><polygon type="contour" points="16.92824,3.553179 17.016968,3.553179 17.016968,3.892 17.017248,4.133183 16.940554,4.135743 16.821724,4.131609 16.821724,3.718636 16.821594,3.553131" style="fill: white" /><polygon type="contour" points="17.016892,2.929948 17.016968,3.137962 16.894623,3.138114 16.821594,3.138114 16.821594,2.929948 16.821752,2.806033 16.958623,2.806033 17.017116,2.805994" style="fill: white" /><polygon type="contour" points="16.325669,2.806033 16.325669,3.039065 16.325827,3.138114 16.159555,3.137764 15.993939,3.137764 15.993586,2.929948 15.993586,2.805876 16.201753,2.805876" style="fill: white" /><polygon type="contour" points="16.325708,2.243655 16.325669,2.309951 16.092632,2.309951 15.993586,2.310108 15.993742,2.203457 15.993742,2.114732 16.201754,2.114808 16.325708,2.114583" style="fill: white" /><polygon type="contour" points="16.201753,1.488829 16.325669,1.488987 16.325669,1.589069 16.325708,1.631601 16.146811,1.631308 15.993939,1.631367 15.993939,1.488568" style="fill: white" /><polygon type="contour" points="15.578408,1.298594 15.578335,1.319282 15.57843,1.341259 15.578313,1.357477 15.578438,1.364309 15.578643,1.41364 15.578708,1.443687 15.578738,1.488665 15.578738,1.595721 15.578687,1.631333 15.20829,1.631239 14.989147,1.631428 14.99125,1.5193 14.988701,1.393681 15.103817,1.393598 15.120108,1.393193 15.24573,1.393273 15.24573,1.334105 15.245783,1.321975 15.245792,1.321452 15.245827,1.297977 15.316485,1.297977" style="fill: white" /><polygon type="contour" points="1.374243,1.298025 1.631822,1.298623 1.631714,1.319282 1.631714,1.340049 1.631745,1.340751 1.631731,1.356611 1.631721,1.36337 1.631493,1.410135 1.631415,1.438178 1.631237,1.488438 1.631237,1.631239 1.488435,1.631239 1.438178,1.631415 1.410134,1.631494 1.363367,1.631722 1.356609,1.631732 1.340749,1.631745 1.319281,1.631716 1.318273,1.631802 1.298591,1.631795 1.298634,1.588236 1.298025,1.315478 1.298025,1.298027 1.373793,1.297948" style="fill: white" /><polygon type="contour" points="2.187374,1.488643 2.309948,1.488987 2.309949,1.589069 2.309881,1.631601 2.195883,1.631239 2.114449,1.631239 2.114449,1.488438" style="fill: white" /><polygon type="contour" points="4.135741,2.191146 4.131609,2.309979 3.718633,2.309979 3.553129,2.310108 3.553177,2.203457 3.553177,2.114732 3.891998,2.114732 4.133182,2.114451" style="fill: white" /><polygon type="contour" points="3.885919,1.321975 3.885971,1.334105 3.885971,1.393272 4.046987,1.393253 4.111975,1.393265 4.122856,1.393269 4.121881,1.406428 4.142488,1.631309 3.840392,1.631376 3.553014,1.631333 3.553014,1.525827 3.552963,1.488664 3.552993,1.443688 3.553058,1.413639 3.553262,1.364309 3.553388,1.357477 3.553271,1.341259 3.553366,1.34005 3.553366,1.319281 3.553299,1.318274 3.553293,1.298594 3.815215,1.297977 3.885874,1.297977" style="fill: white" /><polygon type="contour" points="3.137762,1.631367 2.984888,1.631308 2.805993,1.631601 2.805992,1.537224 2.806031,1.488987 2.99998,1.488741 3.137762,1.488568" style="fill: white" /><polygon type="contour" points="2.929946,2.114808 3.13796,2.114732 3.138112,2.237077 3.138112,2.310108 2.929947,2.310108 2.806032,2.309951 2.806031,2.173075 2.805992,2.114583" style="fill: white" /><polygon type="contour" points="2.309977,3.718635 2.309977,4.131609 2.191144,4.135743 2.114449,4.133183 2.114449,3.771181 2.11473,3.553179 2.237076,3.553131 2.310106,3.553131" style="fill: white" /><polygon type="contour" points="1.631332,3.553016 1.631332,3.767267 1.631335,4.05843 1.631321,4.12208 1.519299,4.140451 1.393367,4.142933 1.393125,4.028048 1.393071,4.01157 1.393271,3.885973 1.334103,3.885973 1.321973,3.885921 1.321452,3.885911 1.297975,3.885876 1.297975,3.815217 1.298592,3.553295 1.319281,3.553368 1.341256,3.553273 1.357477,3.553389 1.364308,3.553264 1.413638,3.55306 1.443687,3.552995 1.488664,3.552965 1.595719,3.552965" style="fill: white" /><polygon type="contour" points="1.631306,2.984888 1.631365,3.137764 1.488566,3.137764 1.488829,2.929948 1.488985,2.806033 1.589067,2.806033 1.6316,2.805994" style="fill: white" /><polygon type="contour" points="1.6316,2.243656 1.6316,2.309883 1.537223,2.309883 1.488985,2.309951 1.48864,2.187376 1.488436,2.114451 1.631236,2.114451" style="fill: white" /><polygon type="contour" points="2.243654,2.114583 2.309881,2.114583 2.309881,2.243656 2.309949,2.309951 2.173074,2.309951 2.114582,2.309883 2.114449,2.195885 2.114449,2.114451" style="fill: white" /><polygon type="contour" points="2.309949,2.806033 2.309949,3.039065 2.310106,3.138114 2.203456,3.137962 2.11473,3.137962 2.114806,2.929948 2.114582,2.805994 2.243653,2.805994" style="fill: white" /><polygon type="contour" points="3.138112,2.929949 3.13796,2.956518 3.137762,3.137764 2.929946,3.138114 2.805874,3.138114 2.805874,2.929948 2.806032,2.806033 3.039063,2.806033 3.138112,2.805876" style="fill: white" /><polygon type="contour" points="3.718411,2.806063 4.131386,2.806063 4.128179,2.931753 4.133202,3.137674 3.81937,3.137674 3.552865,3.137764 3.552865,2.972145 3.553129,2.805876" style="fill: white" /><polygon type="contour" points="3.846554,3.552978 4.004526,3.553119 4.124547,3.553119 4.143383,3.843403 4.12192,4.121921 4.083046,4.121706 3.553077,4.141761 3.553077,3.841973 3.552963,3.552965" style="fill: white" /><polygon type="contour" points="3.137594,3.873498 3.137594,4.13316 2.923815,4.127503 2.80588,4.130417 2.805618,3.718635 2.805874,3.55313 2.972142,3.552868 3.137762,3.552868" style="fill: white" /><polygon type="contour" points="1.31928,17.499988 1.340047,17.499988 1.340749,17.499957 1.356609,17.499972 1.363368,17.499982 1.410133,17.500208 1.438178,17.500286 1.488435,17.500464 1.631237,17.500464 1.631237,17.643265 1.631415,17.693526 1.631492,17.721569 1.631721,17.768334 1.631731,17.775092 1.631745,17.790953 1.631714,17.812422 1.6318,17.813428 1.631822,17.833082 1.374242,17.833678 1.373793,17.833755 1.298025,17.833675 1.298025,17.816225 1.298635,17.543468 1.298592,17.499908" style="fill: white" /><polygon type="contour" points="4.133203,15.99403 4.138326,16.138248 4.131387,16.325642 3.718411,16.325642 3.553129,16.325828 3.552865,16.159558 3.552865,15.99394 3.870504,15.99394" style="fill: white" /><polygon type="contour" points="4.12192,15.009782 4.12026,15.137131 4.124547,15.578585 4.004526,15.578585 3.846553,15.578727 3.552963,15.57874 3.553077,15.28973 3.553077,14.989943 3.8434,14.988319" style="fill: white" /><polygon type="contour" points="1.631321,15.009623 1.631335,15.073272 1.631343,15.284929 1.631332,15.578688 1.525826,15.578688 1.488663,15.57874 1.443687,15.57871 1.413638,15.578645 1.364308,15.578441 1.357476,15.578314 1.341257,15.578432 1.340048,15.578337 1.319281,15.578337 1.318274,15.578403 1.298592,15.57841 1.297975,15.316486 1.297975,15.245827 1.321973,15.245782 1.334103,15.24573 1.39327,15.24573 1.393251,15.084714 1.393263,15.019724 1.393268,15.008845 1.406293,15.008845 1.478918,15.011383 1.608148,15.007106" style="fill: white" /><polygon type="contour" points="2.309977,15.000093 2.309977,15.413069 2.310106,15.578574 2.203455,15.578526 2.11473,15.578526 2.11473,15.239704 2.114449,14.998521 2.191144,14.995962" style="fill: white" /><polygon type="contour" points="3.137594,14.998544 3.137762,15.315732 3.137762,15.578837 2.929946,15.578574 2.805874,15.578574 2.805618,15.413068 2.80588,15.001287 2.994787,14.993649" style="fill: white" /><polygon type="contour" points="2.972142,15.99394 3.137762,15.99394 3.138112,16.201755 3.138112,16.325828 2.929947,16.325828 2.806032,16.32567 2.806032,16.092636 2.805874,15.993589" style="fill: white" /><polygon type="contour" points="2.310106,16.201755 2.309948,16.325671 2.173073,16.325671 2.114582,16.325711 2.114806,16.201756 2.11473,15.993743 2.237076,15.993589 2.310106,15.993589" style="fill: white" /><polygon type="contour" points="1.631306,16.146814 1.6316,16.325711 1.537223,16.325711 1.488985,16.325671 1.488739,16.13172 1.488566,15.99394 1.631365,15.99394" style="fill: white" /><polygon type="contour" points="1.6316,16.821822 1.631237,16.935815 1.631237,17.01725 1.488436,17.01725 1.488781,16.894283 1.488985,16.821754 1.589066,16.821754" style="fill: white" /><polygon type="contour" points="2.309949,16.958627 2.309881,17.01712 2.195883,17.01725 2.114449,17.01725 2.114582,16.888048 2.114582,16.821822 2.243654,16.821822 2.309949,16.821754" style="fill: white" /><polygon type="contour" points="2.243653,17.500566 2.309881,17.500566 2.309881,17.594477 2.309949,17.642716 2.187373,17.643058 2.114449,17.643264 2.114449,17.500466" style="fill: white" /><polygon type="contour" points="3.137762,17.643136 2.929946,17.642871 2.806031,17.642716 2.806031,17.543125 2.805993,17.500566 2.984888,17.500394 3.137762,17.500336" style="fill: white" /><polygon type="contour" points="3.13796,16.928242 3.13796,17.01697 2.929947,17.016896 2.805993,17.01712 2.805993,16.888048 2.806032,16.821754 3.039063,16.821754 3.138112,16.821596" style="fill: white" /><polygon type="contour" points="3.718634,16.821726 4.131609,16.821726 4.135741,16.940555 4.133182,17.01725 3.771179,17.01725 3.553177,17.01697 3.553129,16.894627 3.553129,16.821596" style="fill: white" /><polygon type="contour" points="4.142488,17.500392 4.121881,17.725275 4.122856,17.738434 4.111976,17.73844 4.046987,17.73845 3.885971,17.73843 3.885971,17.797596 3.885919,17.809729 3.885909,17.81025 3.885874,17.833726 3.815214,17.833728 3.553293,17.83311 3.553366,17.812421 3.553271,17.790446 3.553388,17.774226 3.553262,17.767394 3.553058,17.718064 3.552993,17.688015 3.552963,17.643038 3.552963,17.535982 3.553014,17.50037 3.840392,17.500326" style="fill: white" /><polygon type="contour" points="17.017248,17.643264 16.944321,17.643057 16.821752,17.642716 16.821752,17.543125 16.82182,17.500566 16.935814,17.500466 17.017248,17.500466" style="fill: white" /><polygon type="contour" points="16.146811,17.500394 16.325708,17.500566 16.325708,17.594477 16.325669,17.642716 16.131719,17.642961 15.993939,17.643136 15.993939,17.500336" style="fill: white" /><polygon type="contour" points="15.578687,17.50037 15.578687,17.605875 15.578738,17.643037 15.578709,17.688016 15.578643,17.718063 15.578438,17.767394 15.578313,17.774226 15.57843,17.790445 15.578335,17.791653 15.578335,17.812422 15.578401,17.813428 15.578408,17.83311 15.316485,17.833726 15.245827,17.833726 15.245783,17.80973 15.24573,17.797595 15.24573,17.73843 15.120108,17.73851 15.103817,17.738106 14.988701,17.738024 14.98654,17.619884 14.989211,17.500392 15.291308,17.500326" style="fill: white" /><polygon type="contour" points="15.578524,16.928241 15.578524,17.01697 15.239702,17.01697 14.998518,17.01725 14.995959,16.940555 15.00009,16.821726 15.413065,16.821726 15.578571,16.821596" style="fill: white" /><polygon type="contour" points="15.578835,16.159558 15.578571,16.325828 15.413287,16.325642 15.000313,16.325642 15.003521,16.199951 14.998497,15.99403 15.312328,15.99403 15.578835,15.993939" style="fill: white" /><polygon type="contour" points="15.578624,15.28973 15.578738,15.57874 15.285147,15.578727 15.127175,15.578585 15.007154,15.578585 14.988316,15.288302 15.00978,15.009782 15.048653,15.009997 15.578624,14.989942" style="fill: white" /><polygon type="contour" points="16.207886,15.004202 16.325821,15.001287 16.326082,15.413068 16.325827,15.578573 16.159555,15.578837 15.993939,15.578837 15.994107,15.258205 15.994107,14.998544" style="fill: white" /><polygon type="contour" points="17.017248,14.998521 17.017248,15.360523 17.016968,15.578526 16.894623,15.578574 16.821594,15.578574 16.821724,15.413068 16.821724,15.000093 16.940553,14.995962" style="fill: white" /><polygon type="contour" points="17.738438,15.019724 17.738448,15.084714 17.738428,15.24573 17.797593,15.24573 17.809728,15.245783 17.810248,15.245792 17.833724,15.245827 17.833724,15.316485 17.833108,15.57841 17.812419,15.578337 17.790444,15.578432 17.774224,15.578314 17.767392,15.578441 17.718059,15.578644 17.688011,15.57871 17.643034,15.57874 17.535977,15.57874 17.500366,15.578688 17.500354,15.284929 17.500366,15.073271 17.50038,15.009623 17.652782,15.011383 17.738432,15.008845" style="fill: white" /><polygon type="contour" points="17.642867,16.201756 17.642712,16.325671 17.543123,16.325671 17.500564,16.325711 17.500394,16.146815 17.500334,15.99394 17.643132,15.99394" style="fill: white" /><polygon type="contour" points="16.928239,15.993743 17.016968,15.993743 17.016892,16.201756 17.017116,16.325711 16.888046,16.325711 16.821752,16.325671 16.821752,16.092636 16.821594,15.993589" style="fill: white" /><polygon type="contour" points="16.325827,16.201755 16.325669,16.325671 16.092632,16.325671 15.993586,16.325828 15.993586,16.201755 15.993742,16.175184 15.993939,15.993939 16.201753,15.993589 16.325827,15.993589" style="fill: white" /><polygon type="contour" points="16.325669,16.821754 16.325669,16.958627 16.325708,17.01712 16.201753,17.016896 15.993741,17.01697 15.993586,16.894628 15.993586,16.821596 16.201753,16.821596" style="fill: white" /><polygon type="contour" points="17.017115,16.821822 17.017248,16.935816 17.017248,17.01725 16.888046,17.01712 16.82182,17.01712 16.82182,16.888048 16.821752,16.821754 16.958623,16.821754" style="fill: white" /><polygon type="contour" points="17.643055,16.944323 17.643262,17.01725 17.500464,17.01725 17.500564,16.888048 17.500564,16.821822 17.594473,16.821822 17.642712,16.821754" style="fill: white" /><polygon type="contour" points="17.833108,17.499908 17.833066,17.543468 17.833674,17.816226 17.833674,17.833675 17.757905,17.833756 17.757458,17.833678 17.499878,17.833082 17.499986,17.812422 17.499986,17.791653 17.499956,17.790952 17.49997,17.775091 17.49998,17.768333 17.500203,17.72157 17.500286,17.693525 17.500462,17.643266 17.500462,17.542091 17.500464,17.500464 17.643263,17.500464 17.693524,17.500285 17.721568,17.500208 17.768331,17.499982 17.77509,17.499971 17.790951,17.499958 17.81242,17.499988 17.813426,17.499902" style="fill: white" />
</svg>
