<svg width="19.131698" height="19.131699">
<polygon type="contour" points="9.60211,9.2359 9.608239,9.236232 9.614216,9.237404 9.662884,9.249179 9.686893,9.258716 9.714727,9.270218 9.737091,9.284032 9.762799,9.300101 9.802696,9.332895 9.805806,9.335695 9.808503,9.338961 9.840001,9.380401 9.8552,9.408002 9.8672,9.429302 9.877999,9.459301 9.886354,9.482489 9.89063,9.508142 9.895825,9.537829 9.895825,9.563812 9.895499,9.593803 9.890299,9.625003 9.886354,9.649214 9.877474,9.673552 9.867199,9.702003 9.852001,9.7296 9.840001,9.7509 9.819999,9.7757 9.80511,9.794942 9.785705,9.812045 9.7628,9.831601 9.719085,9.860384 9.715456,9.862561 9.709811,9.864933 9.662883,9.882526 9.637559,9.888118 9.608099,9.894104 9.5765,9.895301 9.551898,9.896201 9.520301,9.892203 9.496158,9.889526 9.471491,9.881961 9.442599,9.872801 9.4142,9.858802 9.3923,9.847701 9.3671,9.8289 9.3476,9.814501 9.3256,9.791701 9.308499,9.774 9.277773,9.731582 9.275439,9.728056 9.273676,9.724219 9.254001,9.6762 9.246,9.6454 9.239701,9.621701 9.236901,9.590502 9.234477,9.566202 9.236779,9.540219 9.239701,9.510002 9.247701,9.479202 9.253748,9.455518 9.272917,9.409216 9.275439,9.403647 9.277773,9.40012 9.308499,9.358102 9.330098,9.335302 9.347199,9.317602 9.372799,9.298802 9.3923,9.284402 9.420301,9.270002 9.442199,9.258903 9.472601,9.249701 9.496001,9.242501 9.527599,9.238502 9.551828,9.235178" style="fill: white" />
</svg>
