<svg width="19.131698" height="19.131699">
<polygon type="contour" points="10.799349,8.258642 10.875206,8.256496 10.873712,8.311389 10.872437,8.375248 10.872038,8.400573 10.872469,8.53293 10.598773,8.53293 10.599684,8.398871 10.599684,8.343512 10.599878,8.298753 10.600124,8.29426 10.601181,8.256074" style="fill: white" /><polygon type="contour" points="10.373228,8.497659 10.373228,8.533398 10.298015,8.53355 10.276313,8.53355 10.276313,8.451052 10.276351,8.4268 10.298015,8.426834 10.372666,8.42664" style="fill: white" /><polygon type="contour" points="10.120929,8.42676 10.144832,8.426801 10.144832,8.510866 10.144847,8.53355 10.075748,8.533372 10.039688,8.533265 10.039688,8.42638" style="fill: white" /><polygon type="contour" points="9.566198,8.255217 9.626628,8.256629 9.656081,8.257178 9.681335,8.257804 9.73535,8.258467 9.817545,8.259079 9.817641,8.386807 9.817669,8.532828 9.327981,8.532434 9.314396,8.532434 9.314396,8.529148 9.314386,8.514215 9.314155,8.259079 9.396551,8.258468 9.450701,8.257804 9.476018,8.257178 9.505548,8.256629 9.537963,8.255151" style="fill: white" /><polygon type="contour" points="8.49952,9.314335 8.533832,9.314335 8.533832,9.817369 8.49952,9.817369 8.344986,9.817527 8.258816,9.817527 8.257802,9.680999 8.257175,9.655681 8.256627,9.626154 8.255684,9.607466 8.255204,9.565502 8.255685,9.523709 8.256627,9.505073 8.257176,9.475617 8.257802,9.450367 8.258816,9.314177 8.344986,9.314177" style="fill: white" /><polygon type="contour" points="8.533369,9.055954 8.534471,9.092014 8.426378,9.092014 8.426758,9.010772 8.4268,8.986871 8.510864,8.986871 8.533548,8.986856" style="fill: white" /><polygon type="contour" points="8.533548,8.833687 8.533548,8.85539 8.451051,8.85539 8.4268,8.855352 8.426834,8.833687 8.426638,8.758569 8.497658,8.758474 8.533396,8.758474" style="fill: white" /><polygon type="contour" points="8.531822,8.298752 8.531822,8.339725 8.532017,8.343511 8.532928,8.497192 8.532928,8.53293 8.258995,8.53293 8.257137,8.514652 8.256494,8.256496 8.33235,8.258642 8.530519,8.256074" style="fill: white" /><polygon type="contour" points="8.833685,8.426835 8.855349,8.426801 8.855349,8.510866 8.855387,8.53355 8.790497,8.533398 8.758472,8.533398 8.758472,8.49766 8.758567,8.42664" style="fill: white" /><polygon type="contour" points="9.092012,8.533265 9.010771,8.533478 8.986853,8.53355 8.986853,8.451052 8.986869,8.426801 9.010771,8.42676 9.092012,8.42638" style="fill: white" /><polygon type="contour" points="9.09191,8.986912 9.09191,9.010773 9.091602,9.022054 9.092012,9.092014 9.010771,9.091912 8.986909,9.091912 8.986909,9.010773 8.986869,8.986871 9.069826,8.986871" style="fill: white" /><polygon type="contour" points="9.09191,8.832611 9.09191,8.855359 9.01077,8.855359 8.986869,8.855352 8.986869,8.778477 8.986853,8.758247 9.01077,8.757423 9.091602,8.757343" style="fill: white" /><polygon type="contour" points="8.855387,8.833687 8.855349,8.855352 8.778476,8.855352 8.758245,8.85539 8.758567,8.790864 8.758567,8.758569 8.833686,8.758247 8.855387,8.758247" style="fill: white" /><polygon type="contour" points="8.855349,8.986871 8.855349,9.069828 8.855356,9.091912 8.833403,9.091912 8.758523,9.091604 8.758216,9.010772 8.758245,8.986856 8.833685,8.986856" style="fill: white" /><polygon type="contour" points="8.833403,9.315315 8.855356,9.315315 8.855356,9.816389 8.791138,9.81662 8.758523,9.81662 8.758523,9.315082" style="fill: white" /><polygon type="contour" points="9.092012,9.81673 9.01077,9.816389 8.986909,9.816389 8.986909,9.315315 9.055685,9.314974 9.092012,9.314974" style="fill: white" /><polygon type="contour" points="9.092012,10.705324 9.010771,10.704944 8.986869,10.704903 8.986869,10.620838 8.986853,10.598154 9.055952,10.598331 9.092012,10.597228" style="fill: white" /><polygon type="contour" points="8.855387,10.680651 8.855349,10.704903 8.833685,10.704869 8.758567,10.705064 8.758567,10.598197 8.833685,10.598154 8.855387,10.598154" style="fill: white" /><polygon type="contour" points="8.532017,10.732833 8.532017,10.788192 8.531822,10.83295 8.531577,10.837442 8.530519,10.87563 8.33235,10.873062 8.256494,10.875208 8.257989,10.820313 8.259262,10.756455 8.25966,10.73113 8.259229,10.598775 8.370144,10.598775 8.49719,10.598774 8.532928,10.598774" style="fill: white" /><polygon type="contour" points="8.533506,10.34037 8.533506,10.372668 8.426638,10.372668 8.426834,10.298016 8.4268,10.276352 8.510864,10.276352 8.533548,10.276314" style="fill: white" /><polygon type="contour" points="8.534271,10.120931 8.533548,10.144848 8.45105,10.144848 8.4268,10.144833 8.426758,10.120931 8.426378,10.03969 8.534471,10.03969" style="fill: white" /><polygon type="contour" points="8.855356,10.12093 8.855349,10.144833 8.778475,10.144833 8.758245,10.144848 8.758216,10.120931 8.758523,10.0401 8.833404,10.039793 8.855356,10.039793" style="fill: white" /><polygon type="contour" points="8.855349,10.276352 8.855349,10.353226 8.855387,10.373458 8.790864,10.372668 8.758567,10.372668 8.758245,10.298016 8.758245,10.276314 8.833685,10.276314" style="fill: white" /><polygon type="contour" points="9.091602,10.340098 9.091602,10.372713 9.010771,10.373486 8.986853,10.373458 8.986853,10.298015 8.986869,10.276352 9.069826,10.276352 9.09191,10.276345" style="fill: white" /><polygon type="contour" points="9.09191,10.12093 9.09191,10.144791 9.01077,10.144791 8.986869,10.144833 8.986869,10.061877 8.986909,10.039793 9.055685,10.03969 9.092012,10.03969" style="fill: white" /><polygon type="contour" points="9.578021,10.039849 9.816858,10.039849 9.81656,10.102357 9.816387,10.144791 9.315313,10.144791 9.314972,10.076015 9.314972,10.03969" style="fill: white" /><polygon type="contour" points="9.817345,9.817347 9.314355,9.817347 9.314355,9.314357 9.817345,9.314357" style="fill: white" /><polygon type="contour" points="10.374279,9.452284 10.374279,9.816885 10.29909,9.816389 10.276344,9.816389 10.276344,9.315315 10.343419,9.314819 10.373199,9.314819" style="fill: white" /><polygon type="contour" points="10.120929,9.315315 10.14479,9.315315 10.14479,9.816389 10.076013,9.81673 10.039688,9.81673 10.039688,9.314974" style="fill: white" /><polygon type="contour" points="10.373484,9.010772 10.372712,9.091604 10.298295,9.091912 10.276344,9.091912 10.276344,9.010772 10.276351,8.986871 10.353225,8.986871 10.373456,8.986856" style="fill: white" /><polygon type="contour" points="10.144832,9.069827 10.14479,9.091912 10.076014,9.092014 10.039688,9.092014 10.039791,9.010772 10.039791,8.986912 10.120929,8.986912 10.144832,8.986871" style="fill: white" /><polygon type="contour" points="9.816729,9.055687 9.816729,9.092014 9.553678,9.091856 9.314842,9.091856 9.315139,9.029347 9.315313,8.986912 9.816387,8.986912" style="fill: white" /><polygon type="contour" points="9.816585,8.816138 9.816386,8.855359 9.315313,8.855359 9.31508,8.791141 9.314887,8.758317 9.816811,8.758317" style="fill: white" /><polygon type="contour" points="10.120929,8.757423 10.144847,8.758247 10.144847,8.833687 10.144832,8.855352 10.061874,8.855352 10.039791,8.855359 10.040098,8.791141 10.040098,8.757343" style="fill: white" /><polygon type="contour" points="10.340368,8.758569 10.372666,8.758569 10.373456,8.833687 10.373456,8.85539 10.298015,8.85539 10.276351,8.855352 10.276351,8.778478 10.276313,8.758247" style="fill: white" /><polygon type="contour" points="10.705062,8.758569 10.704866,8.833687 10.7049,8.855352 10.620835,8.855352 10.598152,8.85539 10.598305,8.790498 10.598305,8.758474 10.634041,8.758474" style="fill: white" /><polygon type="contour" points="10.704899,8.986871 10.704941,9.010772 10.705322,9.092014 10.597227,9.092014 10.597428,9.010772 10.598152,8.986856 10.680649,8.986856" style="fill: white" /><polygon type="contour" points="10.873898,9.450704 10.874523,9.476021 10.875074,9.505549 10.876015,9.524237 10.876496,9.566201 10.876015,9.607994 10.875073,9.626631 10.874522,9.656085 10.873898,9.681337 10.872884,9.817527 10.786713,9.817527 10.632179,9.817369 10.598947,9.817369 10.597867,9.679902 10.597867,9.314335 10.632179,9.314335 10.786713,9.314177 10.872884,9.314177" style="fill: white" /><polygon type="contour" points="10.874561,10.617051 10.875206,10.875208 10.799349,10.873062 10.601181,10.87563 10.599878,10.832951 10.599878,10.791977 10.599684,10.788192 10.598773,10.634511 10.598773,10.598774 10.872703,10.598774" style="fill: white" /><polygon type="contour" points="10.7049,10.276352 10.704866,10.298016 10.705062,10.372668 10.598195,10.372668 10.598152,10.298016 10.598152,10.276314 10.680648,10.276314" style="fill: white" /><polygon type="contour" points="10.704941,10.120931 10.7049,10.144833 10.620835,10.144833 10.598152,10.144848 10.598329,10.07575 10.598438,10.03969 10.705322,10.03969" style="fill: white" /><polygon type="contour" points="10.373894,10.0401 10.37428,10.12093 10.373456,10.144848 10.298015,10.144848 10.276351,10.144833 10.276351,10.061876 10.276344,10.039793 10.299091,10.039793" style="fill: white" /><polygon type="contour" points="10.120929,10.039793 10.14479,10.039793 10.14479,10.120931 10.144832,10.144833 10.061875,10.144833 10.039791,10.144791 10.039791,10.12093 10.040098,10.109184 10.039688,10.03969" style="fill: white" /><polygon type="contour" points="10.120929,10.59743 10.144847,10.598154 10.144847,10.680652 10.144832,10.704902 10.120929,10.704943 10.039688,10.705324 10.039688,10.597228" style="fill: white" /><polygon type="contour" points="10.340369,10.598197 10.372666,10.598197 10.372666,10.705064 10.298015,10.704869 10.276351,10.704903 10.276351,10.620837 10.276313,10.598154" style="fill: white" /><polygon type="contour" points="10.372666,10.340371 10.372666,10.372668 10.298015,10.373458 10.276313,10.373458 10.276313,10.298016 10.276351,10.276352 10.353224,10.276352 10.373456,10.276314" style="fill: white" /><polygon type="contour" points="10.144832,10.276352 10.144832,10.353227 10.144847,10.373458 10.120928,10.373486 10.040097,10.372713 10.039791,10.298296 10.039791,10.276345 10.120929,10.276345" style="fill: white" /><polygon type="contour" points="9.816618,10.340097 9.816618,10.372712 9.558601,10.373064 9.314886,10.373064 9.315114,10.315565 9.315313,10.276345 9.816387,10.276345" style="fill: white" /><polygon type="contour" points="9.817452,10.617824 9.817545,10.678669 9.817545,10.872623 9.735148,10.873235 9.680997,10.8739 9.655681,10.874524 9.626151,10.875075 9.593737,10.876553 9.565501,10.876488 9.505071,10.875074 9.475616,10.874525 9.450365,10.8739 9.396348,10.873234 9.314155,10.872623 9.314155,10.678669 9.314276,10.599024 9.817424,10.599024" style="fill: white" />
</svg>
