<svg width="19.131698" height="19.131699">
<polygon type="contour" points="10.336508,8.795193 10.336508,8.837397 10.336682,8.900718 10.336682,9.099637 10.336413,9.339352 10.336533,9.400559 10.336583,9.458429 10.291604,9.458429 10.231039,9.458482 10.024603,9.458482 9.764255,9.45843 9.764255,9.458446 9.731141,9.458446 9.673271,9.458429 9.673271,9.419706 9.673256,9.367444 9.673256,9.184041 9.673221,8.998021 9.673221,8.861351 9.673271,8.795119 9.709774,8.795193 9.841097,8.795293 9.841097,8.795235 9.940353,8.795235 10.133587,8.795021 10.267657,8.795021" style="fill: white" /><polygon type="contour" points="10.133863,7.959203 10.133863,8.126693 10.267656,8.127072 10.336508,8.126757 10.336508,8.169241 10.336694,8.233023 10.255745,8.233013 10.253786,8.330826 10.336694,8.334139 10.336694,8.368094 10.336508,8.429363 10.294304,8.429363 10.133587,8.429264 10.133587,8.429324 10.032063,8.429324 9.841097,8.429363 9.841097,8.429146 9.731141,8.429457 9.673271,8.429473 9.673271,8.388964 9.673239,8.33424 9.70112,8.334127 9.84104,8.334182 9.841039,8.333523 9.92571,8.334152 10.089502,8.33179 10.088815,8.232736 9.764441,8.23256 9.764441,8.232939 9.731141,8.233073 9.673239,8.233194 9.673239,8.192563 9.673271,8.126942 9.73114,8.127117 9.841384,8.126852 9.840987,8.027696 9.84158,8.022191 9.842796,7.955978 9.931979,7.955961" style="fill: white" /><polygon type="contour" points="11.173719,8.039076 11.172497,8.23263 10.899071,8.23263 10.899071,8.126502 10.899058,8.114197 10.899156,8.104237 10.899047,8.029532 10.899791,8.024475 10.90171,7.956079 11.101876,7.957688 11.176619,7.955084" style="fill: white" /><polygon type="contour" points="10.763606,8.127072 10.797575,8.127131 10.798688,8.159525 10.798688,8.233138 10.732387,8.233138 10.702362,8.233023 10.702362,8.195072 10.70234,8.126757" style="fill: white" /><polygon type="contour" points="10.797563,8.368095 10.797563,8.429341 10.763606,8.429341 10.70234,8.429363 10.70234,8.391348 10.702362,8.334139 10.731437,8.334127 10.797575,8.334127" style="fill: white" /><polygon type="contour" points="11.004629,8.368094 11.004525,8.429363 10.962039,8.429363 10.898679,8.429341 10.898656,8.400264 10.898656,8.334127 11.004569,8.334127" style="fill: white" /><polygon type="contour" points="11.004525,8.795193 11.00463,8.864043 11.00501,8.997904 11.092116,8.997904 11.172396,8.997813 11.172448,9.084436 11.172549,9.290458 11.003838,9.290458 11.004422,9.426846 11.004357,9.458429 10.959082,9.458429 10.898507,9.458463 10.898563,9.42994 10.898697,9.366591 10.899182,9.366591 10.899077,9.164679 10.800033,9.163979 10.797055,9.367259 10.797863,9.367259 10.797443,9.400559 10.797462,9.458463 10.761106,9.458463 10.702229,9.458429 10.70234,9.421924 10.702339,9.367303 10.702339,9.191346 10.702396,8.900718 10.702377,8.900718 10.702377,8.864043 10.70234,8.795193 10.740352,8.795193 10.797563,8.795009 10.800499,8.874707 10.898115,8.87326 10.898679,8.795009 10.936629,8.795009" style="fill: white" /><polygon type="contour" points="11.004357,9.673571 11.004139,9.731397 11.004232,9.841199 11.093595,9.841199 11.148406,9.841277 11.172583,9.841277 11.172498,9.924468 11.172396,10.13389 11.005009,10.13389 11.00463,10.267659 11.004525,10.336511 10.962039,10.336511 10.898679,10.336695 10.895393,10.253775 10.797579,10.255702 10.797563,10.336695 10.763607,10.336695 10.70234,10.336511 10.70234,10.294305 10.702433,10.133588 10.702377,10.133588 10.702377,10.032064 10.702339,9.841099 10.702559,9.841099 10.702244,9.731397 10.702229,9.673571 10.742739,9.673571 10.797462,9.673508 10.797575,9.701121 10.797515,9.841043 10.798178,9.841041 10.797548,9.925711 10.797564,10.007418 10.89661,10.008146 10.900233,9.765077 10.898697,9.765111 10.898629,9.731398 10.898507,9.673508 10.939137,9.673508" style="fill: white" /><polygon type="contour" points="10.336583,9.673571 10.336508,9.709777 10.336411,9.841099 10.336468,9.841099 10.336468,9.940355 10.336682,10.133589 10.336682,10.267658 10.336507,10.336511 10.294304,10.336511 10.230981,10.336684 10.032063,10.336684 9.792347,10.336415 9.73114,10.336535 9.673271,10.336586 9.673271,10.291607 9.673221,10.231042 9.673221,10.024605 9.67327,9.764258 9.673256,9.764258 9.673256,9.731397 9.673271,9.673571 9.711993,9.673571 9.764255,9.673513 9.947658,9.673513 10.133679,9.673483 10.270348,9.673483" style="fill: white" /><polygon type="contour" points="9.367443,9.673525 9.367443,9.673513 9.400303,9.673513 9.458129,9.673571 9.458129,9.711995 9.45819,9.764257 9.45819,9.947661 9.458219,10.133681 9.458219,10.270351 9.458129,10.336586 9.421922,10.33651 9.290602,10.336412 9.290602,10.33647 9.191345,10.33647 8.998112,10.336684 8.864043,10.336684 8.795192,10.336511 8.795192,10.294305 8.795018,10.230984 8.795018,10.032064 8.795288,9.792026 8.795167,9.731398 8.795117,9.673571 8.840094,9.673571 8.90066,9.673483 9.107096,9.673483" style="fill: white" /><polygon type="contour" points="9.339757,8.79529 9.400303,8.795169 9.458129,8.795119 9.458129,8.840097 9.458219,8.900661 9.458219,9.107096 9.458177,9.367445 9.45819,9.367445 9.45819,9.400558 9.458129,9.458429 9.419704,9.458429 9.367442,9.458446 9.18404,9.458446 8.99802,9.458482 8.86135,9.458482 8.795117,9.458429 8.795192,9.421924 8.79529,9.290603 8.795233,9.290603 8.795233,9.191345 8.795018,8.998114 8.795018,8.864043 8.795192,8.795193 8.837396,8.795193 8.900717,8.795021 9.099636,8.795021" style="fill: white" /><polygon type="contour" points="9.288903,7.955978 9.29071,8.027697 9.29071,8.127314 9.426843,8.12682 9.458129,8.126942 9.458129,8.172217 9.458194,8.233195 9.430525,8.233069 9.367258,8.232939 9.367258,8.232602 9.206158,8.232602 9.122532,8.232646 9.121837,8.331693 9.367258,8.335268 9.367258,8.333837 9.400303,8.334257 9.458194,8.33424 9.458194,8.370594 9.458129,8.429473 9.421923,8.429363 9.191344,8.429363 8.900717,8.429304 8.900717,8.429324 8.864042,8.429324 8.795192,8.429363 8.795192,8.391348 8.795007,8.334139 8.882486,8.330644 8.880818,8.233111 8.829471,8.232817 8.795007,8.233023 8.795007,8.195073 8.795192,8.126757 8.864043,8.127072 8.997836,8.126693 8.997836,7.959203 9.19972,7.955961" style="fill: white" /><polygon type="contour" points="8.029823,7.957688 8.22999,7.956079 8.232653,8.029533 8.232653,8.099953 8.232544,8.104238 8.232642,8.114197 8.232629,8.126502 8.232629,8.23263 8.14941,8.232714 7.959287,8.232714 7.958481,8.096274 7.955081,7.955084" style="fill: white" /><polygon type="contour" points="8.429361,8.169241 8.429339,8.233023 8.400262,8.233046 8.334125,8.233046 8.334125,8.127132 8.368093,8.127073 8.429361,8.126757" style="fill: white" /><polygon type="contour" points="8.368093,8.334139 8.429339,8.334139 8.429339,8.368095 8.429361,8.429363 8.391346,8.429363 8.334138,8.429341 8.334125,8.400265 8.334125,8.334127" style="fill: white" /><polygon type="contour" points="8.233044,8.400264 8.233022,8.429341 8.19507,8.429341 8.126755,8.429363 8.127072,8.368094 8.127131,8.334127 8.233044,8.334127" style="fill: white" /><polygon type="contour" points="8.429361,8.795193 8.429361,8.837397 8.429262,8.998114 8.429322,8.998114 8.429322,9.099637 8.429362,9.290603 8.429142,9.290603 8.429457,9.400559 8.429472,9.458429 8.388962,9.458429 8.334238,9.458463 8.334125,9.430581 8.33418,9.290616 8.33415,9.290617 8.33415,9.205989 8.334133,9.121384 8.235086,9.120655 8.231422,9.366625 8.233003,9.36659 8.233071,9.400559 8.233193,9.458463 8.19256,9.458463 8.12694,9.458429 8.127115,9.400559 8.12685,9.290458 8.038287,9.290458 7.983293,9.290425 7.959118,9.290425 7.959202,9.207233 7.959304,8.997813 8.126691,8.997813 8.12707,8.864044 8.126755,8.795193 8.16924,8.795193 8.233022,8.795009 8.236747,8.874756 8.334346,8.872346 8.334138,8.795009 8.368093,8.795009" style="fill: white" /><polygon type="contour" points="8.429472,9.673571 8.429361,9.709776 8.429362,9.764399 8.429362,9.940355 8.429301,10.230984 8.429322,10.230984 8.429322,10.267659 8.429361,10.336511 8.391347,10.336511 8.334138,10.336695 8.33412,10.2557 8.236305,10.253775 8.233022,10.336695 8.195071,10.336695 8.126755,10.336511 8.12707,10.267659 8.126691,10.13389 7.959304,10.13389 7.959251,10.047265 7.959152,9.841243 8.127313,9.841243 8.126819,9.704856 8.12694,9.673571 8.172215,9.673571 8.233193,9.673508 8.233067,9.701176 8.232938,9.764443 8.231412,9.764443 8.23507,10.00995 8.334117,10.009222 8.334164,9.764354 8.33415,9.764354 8.334255,9.731398 8.334238,9.673508 8.370592,9.673508" style="fill: white" /><polygon type="contour" points="8.233022,10.702364 8.233044,10.73144 8.233044,10.797577 8.127131,10.797577 8.127072,10.763609 8.126755,10.702341 8.169239,10.702341" style="fill: white" /><polygon type="contour" points="8.232629,11.005201 8.232642,11.017506 8.232544,11.027466 8.232653,11.10217 8.231908,11.107226 8.22999,11.175625 8.029823,11.174015 7.955081,11.17662 7.957981,11.092627 7.959203,10.899073 8.232629,10.899073" style="fill: white" /><polygon type="contour" points="8.429339,10.898681 8.429339,10.93663 8.429361,11.004527 8.368093,11.004631 8.334125,11.004572 8.333012,10.972178 8.333012,10.898566 8.399313,10.898566" style="fill: white" /><polygon type="contour" points="8.429361,10.740354 8.429339,10.797565 8.400263,10.797577 8.334125,10.797577 8.334138,10.763608 8.334138,10.702364 8.368093,10.702364 8.429361,10.702341" style="fill: white" /><polygon type="contour" points="9.458129,10.74274 9.458194,10.797464 9.43058,10.797577 9.290657,10.797517 9.290658,10.79818 9.205987,10.79755 9.042097,10.799913 9.042785,10.898967 9.367258,10.899143 9.367258,10.898765 9.400303,10.898631 9.458194,10.898509 9.458194,10.939139 9.458129,11.004359 9.400304,11.004141 9.290313,11.004234 9.29071,11.104006 9.290118,11.109511 9.288903,11.175726 9.19972,11.175743 8.997836,11.172501 8.997836,11.005014 8.864042,11.004631 8.795192,11.004527 8.795192,10.962041 8.795007,10.898681 8.873258,10.898117 8.874705,10.800501 8.795007,10.797565 8.795007,10.763609 8.795192,10.702341 8.837396,10.702341 8.998113,10.702437 8.998113,10.702379 9.099637,10.702379 9.290602,10.702341 9.290602,10.702561 9.400304,10.702246 9.458129,10.70223" style="fill: white" /><polygon type="contour" points="9.709775,10.702341 9.940353,10.702341 10.230982,10.702398 10.230982,10.702379 10.267656,10.702379 10.336508,10.702341 10.336508,10.740354 10.336694,10.797565 10.255712,10.797582 10.253785,10.895396 10.336694,10.898681 10.336694,10.93663 10.336508,11.004527 10.267657,11.004631 10.133863,11.005014 10.133863,11.172501 9.931979,11.175743 9.842796,11.175726 9.840987,11.104007 9.840987,11.003841 9.704853,11.004424 9.673271,11.004359 9.673271,10.959084 9.673239,10.898509 9.701763,10.898566 9.765108,10.898699 9.765099,10.899102 9.925539,10.899102 10.091343,10.896655 10.090623,10.797602 9.764352,10.797533 9.764352,10.79755 9.73114,10.797445 9.673239,10.797464 9.673239,10.761108 9.673271,10.70223" style="fill: white" /><polygon type="contour" points="10.797575,11.004572 10.763607,11.00463 10.70234,11.004527 10.70234,10.962041 10.702362,10.898681 10.731438,10.898658 10.797575,10.898658" style="fill: white" /><polygon type="contour" points="10.797563,10.702364 10.797575,10.731439 10.797575,10.797577 10.763606,10.797565 10.702362,10.797565 10.702362,10.763608 10.70234,10.702341 10.740352,10.702341" style="fill: white" /><polygon type="contour" points="11.004629,10.763609 11.004569,10.797577 10.931137,10.797577 10.899071,10.798672 10.898564,10.798689 10.898564,10.732389 10.898679,10.702364 10.936628,10.702364 11.004525,10.702341" style="fill: white" /><polygon type="contour" points="11.173218,11.035428 11.176619,11.176621 11.101876,11.174015 10.90171,11.175625 10.899047,11.102171 10.899047,11.03116 10.899156,11.027465 10.899058,11.017506 10.899071,11.005201 10.899071,10.899073 10.982288,10.89899 11.172413,10.89899" style="fill: white" />
</svg>
