<svg width="19.131698" height="19.131699">
<polygon type="contour" points="11.068927,11.255483 11.068927,11.374639 10.998083,11.374522 10.961662,11.374615 10.961628,11.333302 10.961628,11.25527 10.998083,11.25527" style="fill: white" /><polygon type="contour" points="11.460055,11.257048 11.514487,11.257704 11.515378,11.257924 11.545648,11.258158 11.545572,11.353699 11.553142,11.553143 11.360586,11.551632 11.256593,11.543738 11.256593,11.256594 11.375738,11.256594 11.398551,11.256531" style="fill: white" /><polygon type="contour" points="11.374416,10.735087 11.374614,10.76659 11.333299,10.766726 11.255268,10.766726 11.255268,10.73432 11.255523,10.671825 11.306867,10.671735 11.374511,10.671735" style="fill: white" /><polygon type="contour" points="11.29315,10.961664 11.374614,10.961664 11.374767,11.024812 11.374637,11.068929 11.25548,11.068929 11.25548,11.021293 11.255268,10.961631" style="fill: white" /><polygon type="contour" points="11.06873,10.998085 11.068927,11.068929 11.021291,11.068929 10.961628,11.068731 10.961662,11.035416 10.961662,10.961664 10.998084,10.961631 11.06873,10.961631" style="fill: white" /><polygon type="contour" points="11.06873,10.73432 11.06873,10.766726 11.035415,10.76659 10.961662,10.76659 10.961606,10.735086 10.961606,10.671921 10.998084,10.671989 11.069071,10.671825" style="fill: white" /><polygon type="contour" points="9.87859,10.671735 9.878405,10.711747 9.878297,10.766749 9.838436,10.76659 9.750223,10.76659 9.750573,10.735087 9.750937,10.671682 9.796237,10.671682" style="fill: white" /><polygon type="contour" points="9.380665,11.296157 9.380664,11.3744 9.305824,11.374738 9.253708,11.374619 9.253567,11.306633 9.253493,11.255639 9.333953,11.255434 9.380672,11.255434" style="fill: white" /><polygon type="contour" points="9.87807,11.255474 9.877992,11.306846 9.877992,11.374619 9.825875,11.374738 9.750572,11.3744 9.750585,11.330145 9.750587,11.255434 9.797305,11.255434" style="fill: white" /><polygon type="contour" points="9.878351,10.998086 9.87807,11.069036 9.797304,11.0691 9.750586,11.0691 9.750572,11.03331 9.750223,10.961664 9.791992,10.961566 9.878297,10.961566" style="fill: white" /><polygon type="contour" points="10.278873,10.961608 10.474928,10.961608 10.475152,11.02231 10.475213,11.068929 10.181599,11.068929 10.181741,11.022886 10.181542,10.961566" style="fill: white" /><polygon type="contour" points="10.47634,11.307767 10.47634,11.379159 10.476382,11.462215 10.476382,11.544122 10.290387,11.54494 10.183198,11.544584 10.183403,11.49169 10.182824,11.48671 10.182824,11.429569 10.182815,11.426846 10.182543,11.338782 10.182379,11.256601 10.476379,11.256601" style="fill: white" /><polygon type="contour" points="10.766588,11.29315 10.766588,11.374614 10.709967,11.374771 10.671732,11.374513 10.671732,11.306868 10.671823,11.255524 10.713185,11.255524 10.766723,11.25527" style="fill: white" /><polygon type="contour" points="10.701514,10.961664 10.766588,10.961664 10.766723,10.998086 10.766723,11.068731 10.734317,11.068731 10.671823,11.069073 10.671987,10.998086 10.671919,10.961608" style="fill: white" /><polygon type="contour" points="10.766649,10.671921 10.766588,10.701515 10.766588,10.76659 10.735083,10.766652 10.671919,10.766652 10.671919,10.735086 10.671732,10.671735 10.712173,10.671735" style="fill: white" /><polygon type="contour" points="10.475239,10.712175 10.474928,10.766652 10.379147,10.766749 10.181542,10.766749 10.181834,10.711747 10.181644,10.671735 10.475239,10.671735" style="fill: white" /><polygon type="contour" points="10.476382,10.267534 10.476382,10.476384 10.300584,10.476572 10.182571,10.476572 10.182758,10.360433 10.183006,10.183008 10.358835,10.182675 10.476484,10.182486" style="fill: white" /><polygon type="contour" points="10.766649,10.278876 10.766649,10.47493 10.735084,10.47493 10.671732,10.475242 10.671732,10.181646 10.711745,10.181835 10.766747,10.181544" style="fill: white" /><polygon type="contour" points="11.068927,10.181602 11.068927,10.475215 11.022308,10.475154 10.961606,10.47493 10.961563,10.379148 10.961563,10.181544 10.998084,10.18144" style="fill: white" /><polygon type="contour" points="11.30686,10.182675 11.475945,10.183008 11.544415,10.183008 11.544081,10.360433 11.543942,10.476572 11.305267,10.476572 11.256729,10.476605 11.256729,10.355783 11.256716,10.182515" style="fill: white" /><polygon type="contour" points="11.296155,9.751039 11.374399,9.751039 11.374736,9.825877 11.374616,9.877995 11.306844,9.877995 11.255473,9.878073 11.255473,9.8218 11.255433,9.751032" style="fill: white" /><polygon type="contour" points="10.998083,9.750253 11.069098,9.751032 11.069098,9.797751 11.069035,9.878073 11.023581,9.877995 10.961563,9.878298 10.961662,9.838436 10.961662,9.750224" style="fill: white" /><polygon type="contour" points="10.766747,9.791994 10.766747,9.878298 10.735083,9.878442 10.671732,9.878592 10.671732,9.824475 10.67168,9.75139 10.703481,9.751039 10.766588,9.750225" style="fill: white" /><polygon type="contour" points="10.388301,7.587854 10.476382,7.587582 10.476382,7.636238 10.47634,7.752546 10.476379,7.875104 10.182379,7.875104 10.182538,7.82447 10.182816,7.704856 10.182824,7.644994 10.183198,7.587121" style="fill: white" /><polygon type="contour" points="10.475152,8.109393 10.474928,8.170096 10.379146,8.170137 10.181542,8.170137 10.181438,8.133618 10.181693,8.123196 10.182641,8.093001 10.181599,8.062775 10.475213,8.062775" style="fill: white" /><polygon type="contour" points="10.278874,8.365052 10.474928,8.365052 10.475239,8.419529 10.475239,8.459969 10.181644,8.459969 10.181834,8.419957 10.181542,8.364954" style="fill: white" /><polygon type="contour" points="10.267533,8.65532 10.476382,8.65532 10.476569,8.831116 10.476569,8.949131 10.360429,8.948942 10.183006,8.948695 10.182809,8.827863 10.18257,8.655132" style="fill: white" /><polygon type="contour" points="10.766649,8.656774 10.766747,8.752555 10.766747,8.95016 10.735083,8.950304 10.671732,8.950058 10.671732,8.656462 10.712173,8.656462" style="fill: white" /><polygon type="contour" points="10.701513,8.365113 10.766588,8.365113 10.766649,8.396617 10.766649,8.459784 10.735084,8.459784 10.671732,8.459969 10.671732,8.41953 10.671919,8.365052" style="fill: white" /><polygon type="contour" points="11.37452,8.133618 11.374614,8.170039 11.3333,8.170073 11.255268,8.170073 11.255268,8.133617 11.25548,8.062775 11.374637,8.062775" style="fill: white" /><polygon type="contour" points="11.552935,7.765448 11.545667,7.873529 11.514487,7.873999 11.460055,7.874655 11.398551,7.875173 11.375738,7.875109 11.256593,7.875109 11.256593,7.587966 11.32726,7.587697 11.553141,7.578561" style="fill: white" /><polygon type="contour" points="11.068927,7.757065 11.068927,7.876222 11.021291,7.876222 10.961628,7.876435 10.961662,7.838553 10.961662,7.757088 11.024811,7.756935" style="fill: white" /><polygon type="contour" points="10.766723,7.7984 10.766723,7.876435 10.734318,7.876435 10.671858,7.876296 10.671769,7.825147 10.671732,7.757191 10.735083,7.757285 10.766588,7.757088" style="fill: white" /><polygon type="contour" points="10.766723,8.062973 10.766588,8.096287 10.766588,8.170038 10.735083,8.170096 10.671919,8.170096 10.671987,8.133617 10.671823,8.062631 10.713186,8.062631" style="fill: white" /><polygon type="contour" points="11.068927,8.11041 11.06873,8.170073 11.035415,8.170039 10.961662,8.170039 10.961628,8.133617 10.961628,8.062973 10.998084,8.062973 11.068927,8.062775" style="fill: white" /><polygon type="contour" points="11.06873,8.397381 11.069071,8.459879 10.998084,8.459715 10.961606,8.459784 10.961662,8.430188 10.961662,8.365113 10.998084,8.364978 11.06873,8.364978" style="fill: white" /><polygon type="contour" points="11.29315,8.365113 11.374613,8.365113 11.37477,8.421734 11.374511,8.459969 11.322027,8.459879 11.255523,8.459879 11.255523,8.418516 11.255268,8.364978" style="fill: white" /><polygon type="contour" points="11.306447,8.655139 11.476224,8.655132 11.543942,8.655132 11.544081,8.77127 11.544415,8.948695 11.475945,8.948695 11.30686,8.949029 11.256716,8.949188 11.256716,8.823127 11.256374,8.655106" style="fill: white" /><polygon type="contour" points="11.068927,8.9501 11.022884,8.94996 10.961563,8.95016 10.961606,8.852828 10.961606,8.656774 10.998083,8.656726 11.068927,8.65649" style="fill: white" /><polygon type="contour" points="11.306844,9.253709 11.374617,9.253709 11.374737,9.305826 11.374399,9.381131 11.330144,9.381117 11.255433,9.381117 11.255433,9.334397 11.255473,9.253631" style="fill: white" /><polygon type="contour" points="11.069035,9.253631 11.069035,9.309904 11.069098,9.381117 11.033309,9.381131 10.961662,9.38148 10.961563,9.339709 10.961563,9.253406 10.998084,9.253351" style="fill: white" /><polygon type="contour" points="10.711744,9.253295 10.766747,9.253406 10.766588,9.293266 10.766588,9.38148 10.735083,9.381127 10.67168,9.380766 10.67168,9.335463 10.671732,9.253111" style="fill: white" /><polygon type="contour" points="10.475169,9.308244 10.475003,9.380765 10.372222,9.381167 10.181613,9.381167 10.181613,9.336316 10.18176,9.253709 10.350788,9.253709 10.475169,9.253519" style="fill: white" /><polygon type="contour" points="10.285997,9.75139 10.475003,9.75139 10.475003,9.79669 10.475169,9.878185 10.350788,9.877995 10.18176,9.877995 10.18176,9.823718 10.181613,9.750993" style="fill: white" /><polygon type="contour" points="9.878635,9.795841 9.877992,9.877995 9.795386,9.878637 9.750536,9.878637 9.750572,9.835801 9.750572,9.751039 9.795385,9.750993 9.878635,9.750993" style="fill: white" /><polygon type="contour" points="9.877991,10.181762 9.878182,10.307862 9.878182,10.475171 9.823456,10.475171 9.750937,10.475005 9.750536,10.372224 9.750536,10.181613 9.795385,10.181613" style="fill: white" /><polygon type="contour" points="9.380314,10.285998 9.380314,10.475005 9.335012,10.475005 9.253518,10.475171 9.253708,10.350789 9.253708,10.181762 9.307984,10.181762 9.38071,10.181613" style="fill: white" /><polygon type="contour" points="9.380663,10.703483 9.381478,10.76659 9.339706,10.766749 9.253404,10.766749 9.25326,10.735086 9.25311,10.671735 9.307227,10.671735 9.380313,10.671682" style="fill: white" /><polygon type="contour" points="9.293264,10.961664 9.381478,10.961664 9.38145,10.998085 9.380671,11.0691 9.333952,11.0691 9.25363,11.069036 9.253228,11.008507 9.25335,10.998086 9.253404,10.961566" style="fill: white" /><polygon type="contour" points="8.949867,10.711746 8.950158,10.766749 8.852826,10.766652 8.656772,10.766652 8.656461,10.712175 8.656461,10.671735 8.950057,10.671735" style="fill: white" /><polygon type="contour" points="8.949958,11.022887 8.950097,11.068929 8.656488,11.068929 8.656548,11.02231 8.656772,10.961608 8.752552,10.961566 8.950158,10.961566" style="fill: white" /><polygon type="contour" points="8.949154,11.338782 8.948883,11.426847 8.948876,11.486709 8.948502,11.544584 8.7434,11.543849 8.655319,11.544122 8.655319,11.495465 8.655359,11.379158 8.65532,11.256601 8.94932,11.256601" style="fill: white" /><polygon type="contour" points="8.170037,11.29315 8.170037,11.374615 8.106888,11.374769 8.062773,11.374639 8.062773,11.255483 8.110409,11.255483 8.170072,11.25527" style="fill: white" /><polygon type="contour" points="8.459877,11.255524 8.459969,11.306867 8.459969,11.374513 8.396615,11.374418 8.365112,11.374615 8.364976,11.333302 8.364976,11.25527 8.39738,11.25527" style="fill: white" /><polygon type="contour" points="8.459713,10.998086 8.459877,11.069073 8.418514,11.069073 8.364976,11.068731 8.365112,11.035416 8.365112,10.961664 8.396616,10.961608 8.459782,10.961608" style="fill: white" /><polygon type="contour" points="8.459969,10.712174 8.459781,10.766652 8.430185,10.76659 8.365112,10.76659 8.365051,10.735087 8.365051,10.671921 8.396616,10.671921 8.459969,10.671735" style="fill: white" /><polygon type="contour" points="7.876267,9.79775 7.876063,9.87821 7.825068,9.878135 7.757083,9.877995 7.756964,9.825878 7.757301,9.751039 7.801556,9.751032 7.876267,9.751032" style="fill: white" /><polygon type="contour" points="8.170136,9.791994 8.170136,9.878298 8.133615,9.878353 8.062665,9.878073 8.062665,9.821799 8.062601,9.751032 8.09839,9.751038 8.170037,9.750224" style="fill: white" /><polygon type="contour" points="8.396615,9.750575 8.460021,9.75139 8.460021,9.79669 8.459969,9.878592 8.419955,9.878408 8.364953,9.878298 8.365112,9.838437 8.365112,9.750225" style="fill: white" /><polygon type="contour" points="8.459969,8.950058 8.419955,8.949869 8.364953,8.95016 8.365051,8.852827 8.365051,8.656774 8.396615,8.656774 8.459969,8.656462" style="fill: white" /><polygon type="contour" points="8.780912,9.253709 8.949941,9.253709 8.949941,9.307985 8.950088,9.381167 8.845703,9.380766 8.656696,9.380766 8.656696,9.335464 8.656532,9.253519" style="fill: white" /><polygon type="contour" points="8.459969,9.30723 8.460021,9.380766 8.428218,9.381131 8.365112,9.38148 8.364953,9.339708 8.364953,9.253406 8.396616,9.25326 8.459969,9.253112" style="fill: white" /><polygon type="contour" points="8.170037,9.293267 8.170037,9.38148 8.133616,9.381451 8.062601,9.381116 8.062601,9.334397 8.062665,9.253631 8.108119,9.253709 8.170136,9.253406" style="fill: white" /><polygon type="contour" points="7.876267,9.334397 7.876267,9.381117 7.835544,9.381131 7.7573,9.381131 7.756964,9.305827 7.757083,9.253709 7.824855,9.253709 7.876228,9.253631" style="fill: white" /><polygon type="contour" points="7.874971,8.775919 7.874984,8.949187 7.82484,8.949029 7.655754,8.948695 7.587285,8.948695 7.587618,8.77127 7.587757,8.655132 7.826432,8.655132 7.874971,8.655099" style="fill: white" /><polygon type="contour" points="8.109391,8.656549 8.170094,8.656774 8.170136,8.752555 8.170136,8.95016 8.133616,8.950263 8.062773,8.9501 8.062773,8.65649" style="fill: white" /><polygon type="contour" points="7.771113,7.580072 7.875107,7.587966 7.875107,7.875109 7.755961,7.875109 7.733148,7.875173 7.671644,7.874655 7.617211,7.873999 7.61632,7.873779 7.586051,7.873545 7.586127,7.778004 7.578559,7.578561" style="fill: white" /><polygon type="contour" points="8.948502,7.587121 8.948296,7.640013 8.948876,7.644993 8.948876,7.702134 8.948884,7.704857 8.949153,7.79292 8.94932,7.875104 8.65532,7.875104 8.655359,7.823935 8.655359,7.752545 8.655319,7.669488 8.655319,7.587582 8.841313,7.586764" style="fill: white" /><polygon type="contour" points="8.459969,7.757191 8.459969,7.824836 8.459877,7.87618 8.418515,7.87618 8.364976,7.876435 8.365112,7.838552 8.365112,7.757088 8.421733,7.756932" style="fill: white" /><polygon type="contour" points="8.133615,7.75718 8.170037,7.757088 8.170072,7.7984 8.170072,7.876435 8.133616,7.876435 8.062773,7.876222 8.062773,7.757065" style="fill: white" /><polygon type="contour" points="8.170072,8.062973 8.170037,8.096286 8.170037,8.170039 8.133615,8.170073 8.06297,8.170073 8.06297,8.133618 8.062773,8.062775 8.110409,8.062775" style="fill: white" /><polygon type="contour" points="7.87622,8.11041 7.876432,8.170073 7.838551,8.170039 7.757084,8.170039 7.756934,8.10689 7.757064,8.062775 7.87622,8.062775" style="fill: white" /><polygon type="contour" points="7.876432,8.397381 7.876178,8.459879 7.824833,8.459969 7.757189,8.459969 7.757283,8.396617 7.757085,8.365113 7.798399,8.364978 7.876432,8.364978" style="fill: white" /><polygon type="contour" points="8.096284,8.365113 8.170036,8.365113 8.170094,8.396617 8.170094,8.459784 8.133615,8.459715 8.062629,8.459879 8.06297,8.397381 8.06297,8.364978" style="fill: white" /><polygon type="contour" points="8.459782,8.396617 8.459969,8.459969 8.419527,8.459969 8.365051,8.459784 8.365112,8.430188 8.365112,8.365113 8.396616,8.365052 8.459782,8.365052" style="fill: white" /><polygon type="contour" points="8.459713,8.133617 8.459782,8.170096 8.430186,8.170039 8.365112,8.170039 8.364976,8.133617 8.364976,8.062973 8.39738,8.062973 8.459877,8.062631" style="fill: white" /><polygon type="contour" points="8.950261,8.133617 8.950158,8.170137 8.852827,8.170096 8.656772,8.170096 8.656548,8.109393 8.656488,8.062775 8.950097,8.062775" style="fill: white" /><polygon type="contour" points="8.950304,8.396616 8.95015,8.406607 8.949226,8.432919 8.950057,8.459969 8.656461,8.459969 8.656461,8.419529 8.656772,8.365052 8.752552,8.364954 8.950158,8.364954" style="fill: white" /><polygon type="contour" points="8.948942,8.77127 8.948693,8.948695 8.772864,8.949028 8.655216,8.949217 8.655319,8.864168 8.655319,8.65532 8.831116,8.655132 8.94913,8.655132" style="fill: white" /><polygon type="contour" points="9.380314,8.656697 9.38071,8.759477 9.38071,8.950091 9.335861,8.950091 9.253708,8.949942 9.253518,8.823841 9.253518,8.656533 9.308244,8.656533" style="fill: white" /><polygon type="contour" points="9.293264,8.365113 9.381478,8.365113 9.381127,8.396616 9.380314,8.460022 9.335011,8.460022 9.25311,8.459969 9.253294,8.419957 9.253404,8.364954" style="fill: white" /><polygon type="contour" points="9.380664,8.098391 9.381478,8.170039 9.339706,8.170137 9.253404,8.170137 9.25335,8.133617 9.253629,8.062668 9.309903,8.062668 9.380671,8.062603" style="fill: white" /><polygon type="contour" points="9.380663,7.757304 9.380671,7.801559 9.380671,7.87627 9.333951,7.87627 9.253493,7.876065 9.253567,7.82507 9.253708,7.757085 9.305824,7.756966" style="fill: white" /><polygon type="contour" points="9.877992,7.757084 9.878134,7.825071 9.878207,7.876065 9.822343,7.876065 9.750586,7.87627 9.750572,7.835547 9.750572,7.757303 9.825875,7.756965" style="fill: white" /><polygon type="contour" points="9.87807,8.062668 9.878472,8.123196 9.878351,8.133617 9.878297,8.170137 9.838436,8.170039 9.750222,8.170039 9.75025,8.133618 9.750586,8.062603 9.797304,8.062603" style="fill: white" /><polygon type="contour" points="9.878441,8.396616 9.87859,8.459969 9.824472,8.459969 9.750937,8.460022 9.750571,8.428219 9.750223,8.365113 9.791992,8.364954 9.878297,8.364954" style="fill: white" /><polygon type="contour" points="9.877992,8.780914 9.877992,8.949942 9.823716,8.949942 9.750536,8.950091 9.750937,8.845706 9.750937,8.656697 9.796238,8.656697 9.878182,8.656533" style="fill: white" /><polygon type="contour" points="9.877992,9.253709 9.878635,9.336317 9.878635,9.381167 9.835799,9.381131 9.750572,9.381131 9.750536,9.336316 9.750536,9.253067 9.795386,9.253067" style="fill: white" /><polygon type="contour" points="9.380664,9.295903 9.380664,9.381131 9.335861,9.381167 9.253066,9.381167 9.253066,9.336317 9.253708,9.253709 9.335861,9.253067 9.38071,9.253067" style="fill: white" /><polygon type="contour" points="9.295901,9.751039 9.380664,9.751039 9.38071,9.795842 9.38071,9.878637 9.335861,9.878637 9.253708,9.877995 9.253066,9.795841 9.253066,9.750993" style="fill: white" /><polygon type="contour" points="8.950088,9.795841 8.949941,9.877995 8.823841,9.878185 8.656532,9.878185 8.656532,9.823458 8.656696,9.75139 8.759475,9.750993 8.950088,9.750993" style="fill: white" /><polygon type="contour" points="8.77127,10.182761 8.948693,10.183008 8.948887,10.303838 8.94913,10.476572 8.864167,10.476384 8.655319,10.476384 8.655131,10.300587 8.655131,10.182573" style="fill: white" /><polygon type="contour" points="8.459969,10.181646 8.459969,10.475242 8.419527,10.475242 8.365051,10.47493 8.364953,10.379148 8.364953,10.181544 8.396616,10.181399" style="fill: white" /><polygon type="contour" points="8.170094,10.278875 8.170094,10.47493 8.133616,10.474979 8.062773,10.475215 8.062773,10.181602 8.108815,10.181743 8.170136,10.181544" style="fill: white" /><polygon type="contour" points="7.875096,10.30629 7.875326,10.476599 7.825251,10.476565 7.655475,10.476572 7.587758,10.476572 7.587618,10.360433 7.587285,10.183008 7.655755,10.183008 7.825855,10.182592 7.875096,10.182437" style="fill: white" /><polygon type="contour" points="7.809672,10.671825 7.876178,10.671825 7.876178,10.713187 7.876432,10.766726 7.838551,10.76659 7.757084,10.76659 7.756929,10.70997 7.757189,10.671735" style="fill: white" /><polygon type="contour" points="8.133615,10.671989 8.170094,10.671921 8.170037,10.701516 8.170037,10.76659 8.133616,10.766726 8.06297,10.766726 8.06297,10.73432 8.062629,10.671825" style="fill: white" /><polygon type="contour" points="8.096284,10.961664 8.170037,10.961664 8.170072,10.998085 8.170072,11.068731 8.133615,11.068731 8.062773,11.068929 8.062773,11.021293 8.06297,10.961631" style="fill: white" /><polygon type="contour" points="7.876432,10.998085 7.87622,11.068929 7.757064,11.068929 7.757178,10.998086 7.757085,10.961664 7.798398,10.961631 7.876432,10.961631" style="fill: white" /><polygon type="contour" points="7.755961,11.256594 7.875107,11.256594 7.875107,11.543738 7.804439,11.544007 7.578559,11.553143 7.578764,11.366255 7.58603,11.258175 7.617211,11.257704 7.671645,11.257048 7.733148,11.256531" style="fill: white" />
</svg>
