<svg width="19.131698" height="19.131699">
<polygon type="contour" points="5.243719,11.709893 5.437926,11.711496 5.437926,11.823524 5.437091,12.015531 5.361789,12.015527 5.307416,12.015569 5.307218,12.011087 5.218993,12.011191 5.180722,12.011547 5.130759,12.011547 5.131493,11.716067 5.131474,11.707593 5.141996,11.707423" style="fill: white" /><polygon type="contour" points="12.546604,13.280703 12.546604,13.424172 12.436075,13.424172 12.331644,13.424489 12.332044,13.280703 12.332127,13.128578 12.432519,13.128383 12.546591,13.128383" style="fill: white" /><polygon type="contour" points="12.546591,13.755021 12.546591,13.823986 12.448981,13.824513 12.331704,13.824597 12.331644,13.746564 12.331644,13.693456 12.458886,13.693456 12.546604,13.693429" style="fill: white" /><polygon type="contour" points="12.015529,13.694609 12.015526,13.769911 12.015554,13.825409 12.011431,13.822174 12.011545,14.000943 11.715155,13.999969 11.707357,13.999983 11.707205,13.990304 11.709892,13.887981 11.711494,13.693776 11.823523,13.693776" style="fill: white" /><polygon type="contour" points="12.015566,13.280703 12.015685,13.424303 11.821703,13.42411 11.710029,13.42411 11.710264,13.328026 11.709643,13.128688 11.809747,13.128821 12.015567,13.128578" style="fill: white" /><polygon type="contour" points="10.977517,12.050852 10.767514,12.050852 10.767514,11.840852 10.977517,11.840852" style="fill: white" /><polygon type="contour" points="10.324185,12.050852 10.114186,12.050852 10.114186,11.840852 10.324185,11.840852" style="fill: white" /><polygon type="contour" points="9.670852,12.050852 9.460849,12.050852 9.460849,11.840852 9.670852,11.840852" style="fill: white" /><polygon type="contour" points="9.017514,12.050852 8.807515,12.050852 8.807515,11.840852 9.017514,11.840852" style="fill: white" /><polygon type="contour" points="8.364186,12.050852 8.154183,12.050852 8.154183,11.840852 8.364186,11.840852" style="fill: white" /><polygon type="contour" points="6.799997,12.450625 6.799574,12.546661 6.69918,12.546593 6.585108,12.546593 6.585041,12.444633 6.585041,12.332129 6.687067,12.332129 6.799997,12.331705" style="fill: white" /><polygon type="contour" points="7.321985,12.331816 7.421236,12.331816 7.421403,12.400757 7.422355,12.546669 7.322928,12.546714 7.116133,12.546661 7.116133,12.444634 7.116075,12.331705" style="fill: white" /><polygon type="contour" points="7.321953,13.128821 7.422058,13.128688 7.421436,13.328027 7.421671,13.42411 7.309996,13.42411 7.116015,13.424303 7.116003,13.253685 7.116133,13.128578" style="fill: white" /><polygon type="contour" points="7.424691,13.9941 7.424595,14.00038 7.419546,14.000367 7.120155,14.000943 7.12022,13.899829 7.120614,13.824526 7.116133,13.824286 7.116134,13.747385 7.116171,13.694608 7.308176,13.693776 7.420205,13.693776" style="fill: white" /><polygon type="contour" points="6.800056,13.693456 6.799997,13.766446 6.799997,13.824597 6.682717,13.824513 6.585108,13.823986 6.585096,13.756322 6.585096,13.693429 6.695625,13.693429" style="fill: white" /><polygon type="contour" points="6.687067,13.128578 6.799574,13.128578 6.799656,13.280703 6.800056,13.424489 6.672812,13.424489 6.585096,13.424172 6.585108,13.285698 6.585108,13.128383" style="fill: white" /><polygon type="contour" points="6.002929,13.280704 6.002929,13.424172 5.850998,13.424172 5.707399,13.424303 5.707399,13.242651 5.707529,13.128773 5.846004,13.128383 6.00332,13.128383" style="fill: white" /><polygon type="contour" points="6.00332,13.755021 6.00332,13.823986 5.850997,13.824008 5.707399,13.824365 5.707399,13.693575 5.889051,13.693575 6.002928,13.693429" style="fill: white" /><polygon type="contour" points="5.163799,13.694147 5.188925,13.694147 5.412248,13.694656 5.437045,13.694656 5.437045,14.001562 5.249414,14.003768 5.224452,14.002406 5.125745,14.005956 5.129295,13.907248 5.129979,13.728579 5.130119,13.694146 5.158945,13.694083" style="fill: white" /><polygon type="contour" points="5.375378,13.128773 5.438273,13.128773 5.438273,13.280703 5.438127,13.424303 5.307336,13.424303 5.307693,13.280704 5.307716,13.128383" style="fill: white" /><polygon type="contour" points="5.438245,12.458888 5.438273,12.546605 5.376681,12.546593 5.307716,12.546593 5.30719,12.448983 5.307106,12.331705 5.385137,12.331646 5.438245,12.331646" style="fill: white" /><polygon type="contour" points="5.850998,12.332046 6.003122,12.332129 6.00332,12.432521 6.00332,12.546593 5.850997,12.546605 5.707529,12.546605 5.707529,12.436077 5.707212,12.331646" style="fill: white" /><polygon type="contour" points="6.002881,11.809747 6.003123,12.015569 5.850998,12.015568 5.707399,12.015686 5.707593,11.821704 5.707593,11.710031 5.803675,11.710266 6.003015,11.709644" style="fill: white" /><polygon type="contour" points="6.730944,11.710297 6.799886,11.710464 6.799886,11.809714 6.799997,12.015626 6.681077,12.015626 6.585041,12.015569 6.584987,11.808773 6.585032,11.709347" style="fill: white" /><polygon type="contour" points="7.29085,11.713011 7.420852,11.710849 7.42389,11.840852 7.710849,11.840852 7.710849,12.050852 7.500849,12.050852 7.500849,12.015875 7.350378,12.015555 7.116146,12.015555 7.115999,11.910795 7.11615,11.812587 7.11615,11.630853 7.080851,11.630853 7.080851,11.420854 7.29085,11.420854" style="fill: white" /><polygon type="contour" points="7.29085,10.977519 7.080851,10.977519 7.080851,10.767516 7.29085,10.767516" style="fill: white" /><polygon type="contour" points="7.29085,10.324187 7.080851,10.324187 7.080851,10.114188 7.29085,10.114188" style="fill: white" /><polygon type="contour" points="7.29085,9.670854 7.080851,9.670854 7.080851,9.460851 7.29085,9.460851" style="fill: white" /><polygon type="contour" points="7.29085,9.017516 7.080851,9.017516 7.080851,8.807517 7.29085,8.807517" style="fill: white" /><polygon type="contour" points="7.29085,8.364188 7.080851,8.364188 7.080851,8.154185 7.29085,8.154185" style="fill: white" /><polygon type="contour" points="7.416546,5.131736 7.424344,5.131722 7.424496,5.141399 7.421808,5.243722 7.420205,5.437928 7.308177,5.437928 7.116171,5.437094 7.116173,5.361792 7.116181,5.306199 7.120606,5.305743 7.12022,5.231875 7.120155,5.130761" style="fill: white" /><polygon type="contour" points="7.309997,5.707594 7.421671,5.707594 7.421436,5.803677 7.422058,6.003017 7.321954,6.002883 7.116133,6.003126 7.116134,5.850999 7.116015,5.7074" style="fill: white" /><polygon type="contour" points="6.799656,5.850999 6.799574,6.003126 6.69918,6.003322 6.585108,6.003322 6.585096,5.850998 6.585096,5.707531 6.695624,5.707531 6.800056,5.707214" style="fill: white" /><polygon type="contour" points="6.800056,5.385139 6.800056,5.438247 6.672813,5.438247 6.585096,5.438274 6.585108,5.376683 6.585108,5.307718 6.682717,5.30719 6.799997,5.307107" style="fill: white" /><polygon type="contour" points="5.383597,5.128003 5.437045,5.130142 5.436995,5.291431 5.436995,5.436996 5.377863,5.437047 5.130141,5.437047 5.129296,5.224454 5.125745,5.125746" style="fill: white" /><polygon type="contour" points="5.850997,5.307694 5.891086,5.307718 6.00332,5.307718 6.002929,5.37538 6.002929,5.438275 5.850997,5.438273 5.707399,5.438129 5.707399,5.307337" style="fill: white" /><polygon type="contour" points="5.850998,5.707531 6.002929,5.707532 6.00332,5.846006 6.00332,6.003322 5.850998,6.002931 5.707529,6.002931 5.707529,5.850998 5.707399,5.7074 5.827704,5.707214" style="fill: white" /><polygon type="contour" points="5.438127,5.889052 5.438273,6.002931 5.37668,6.003322 5.307716,6.003322 5.307693,5.850998 5.307336,5.7074 5.438127,5.7074" style="fill: white" /><polygon type="contour" points="5.846003,6.58511 6.00332,6.58511 6.003123,6.68707 6.003123,6.799575 5.850998,6.799658 5.707212,6.800058 5.707529,6.695626 5.707529,6.585098" style="fill: white" /><polygon type="contour" points="5.438273,6.695626 5.438245,6.800058 5.365256,6.799999 5.307106,6.799999 5.30719,6.682719 5.307716,6.58511 5.375378,6.585098 5.438273,6.585098" style="fill: white" /><polygon type="contour" points="5.384314,7.116136 5.437092,7.116173 5.437926,7.308179 5.437926,7.420207 5.137601,7.424007 5.13132,7.423903 5.131333,7.418861 5.130759,7.120158 5.169139,7.120558 5.219064,7.120558 5.307216,7.120661 5.307416,7.116135" style="fill: white" /><polygon type="contour" points="5.850998,7.116136 6.003123,7.116135 6.003123,7.278274 6.003319,7.422433 5.803676,7.421438 5.707593,7.421672 5.707593,7.309999 5.707399,7.116017" style="fill: white" /><polygon type="contour" points="6.799886,7.321987 6.799886,7.421238 6.730944,7.421404 6.585032,7.422357 6.584987,7.32293 6.585041,7.116135 6.687066,7.116135 6.799997,7.116077" style="fill: white" /><polygon type="contour" points="6.799574,6.687069 6.799997,6.799999 6.681077,6.799999 6.585041,6.799575 6.585108,6.699181 6.585108,6.58511 6.687067,6.585043 6.799574,6.585043" style="fill: white" /><polygon type="contour" points="7.422355,6.585035 7.421402,6.730947 7.421236,6.799889 7.321985,6.799889 7.116075,6.799999 7.116133,6.687069 7.116133,6.585043 7.322928,6.584989" style="fill: white" /><polygon type="contour" points="7.710849,7.290852 7.418689,7.290852 7.420852,7.420855 7.29085,7.423893 7.29085,7.71085 7.080851,7.71085 7.080851,7.500851 7.115827,7.500851 7.116146,7.350379 7.116146,7.116149 7.220905,7.116001 7.319114,7.116152 7.500849,7.116152 7.500849,7.080852 7.710849,7.080852" style="fill: white" /><polygon type="contour" points="8.364186,7.290852 8.154183,7.290852 8.154183,7.080852 8.364186,7.080852" style="fill: white" /><polygon type="contour" points="9.017514,7.290852 8.807515,7.290852 8.807515,7.080852 9.017514,7.080852" style="fill: white" /><polygon type="contour" points="9.670852,7.290852 9.460849,7.290852 9.460849,7.080852 9.670852,7.080852" style="fill: white" /><polygon type="contour" points="10.324185,7.290852 10.114186,7.290852 10.114186,7.080852 10.324185,7.080852" style="fill: white" /><polygon type="contour" points="10.977517,7.290852 10.767514,7.290852 10.767514,7.080852 10.977517,7.080852" style="fill: white" /><polygon type="contour" points="12.015698,5.878019 12.015567,6.003126 11.853427,6.003126 11.709268,6.003322 11.710264,5.803677 11.710029,5.707594 11.821702,5.707594 12.015684,5.7074" style="fill: white" /><polygon type="contour" points="12.011481,5.231874 12.011086,5.30718 12.015567,5.307418 12.015567,5.384316 12.015529,5.437093 11.823522,5.437928 11.711494,5.437928 11.70701,5.137602 11.707105,5.131324 11.712153,5.131336 12.011545,5.130761" style="fill: white" /><polygon type="contour" points="12.448981,5.30719 12.546591,5.307718 12.546604,5.37538 12.546604,5.438274 12.436074,5.438274 12.331644,5.438247 12.331704,5.365258 12.331704,5.307108" style="fill: white" /><polygon type="contour" points="12.546604,5.707531 12.546591,5.846006 12.546591,6.003322 12.444632,6.003126 12.332127,6.003126 12.332044,5.850999 12.331644,5.707214 12.458887,5.707214" style="fill: white" /><polygon type="contour" points="13.4243,5.307337 13.4243,5.438129 13.242648,5.438129 13.128771,5.438275 13.128381,5.376683 13.128381,5.307718 13.255567,5.307324" style="fill: white" /><polygon type="contour" points="14.002405,5.224455 14.001718,5.403123 14.001579,5.437555 13.972752,5.437619 13.967899,5.437555 13.942772,5.437555 13.719449,5.437047 13.694654,5.437047 13.694654,5.377864 13.694607,5.317566 13.694607,5.13019 13.807535,5.128893 13.882285,5.127937 13.907247,5.129297 14.005955,5.125746" style="fill: white" /><polygon type="contour" points="13.824006,5.850998 13.823983,6.003322 13.75632,6.002931 13.693427,6.002931 13.693427,5.850998 13.693572,5.7074 13.824363,5.7074" style="fill: white" /><polygon type="contour" points="13.4243,5.889052 13.42417,6.002931 13.285695,6.003322 13.128381,6.003322 13.128771,5.851 13.128771,5.707532 13.280701,5.707531 13.4243,5.7074" style="fill: white" /><polygon type="contour" points="13.42417,6.695627 13.424486,6.800058 13.280701,6.799658 13.128577,6.799575 13.128381,6.699182 13.128381,6.58511 13.280702,6.585098 13.42417,6.585098" style="fill: white" /><polygon type="contour" points="13.755018,6.58511 13.823983,6.58511 13.82451,6.682719 13.824594,6.799999 13.746561,6.800058 13.693453,6.800058 13.693453,6.672815 13.693427,6.585098" style="fill: white" /><polygon type="contour" points="13.824481,7.120616 13.912704,7.120513 13.950975,7.120158 14.000941,7.120158 14.000207,7.415635 14.000226,7.424109 13.989704,7.424279 13.887978,7.42181 13.693774,7.420207 13.693774,7.30818 13.694607,7.116173 13.76991,7.116176 13.824283,7.116135" style="fill: white" /><polygon type="contour" points="13.424107,7.309998 13.424107,7.421672 13.328024,7.421438 13.128686,7.422059 13.128819,7.321955 13.128577,7.116135 13.280701,7.116136 13.4243,7.116017" style="fill: white" /><polygon type="contour" points="12.54666,7.116135 12.54666,7.278275 12.546591,7.422433 12.400754,7.421405 12.331814,7.421238 12.331814,7.321987 12.331704,7.116077 12.450622,7.116077" style="fill: white" /><polygon type="contour" points="12.432519,6.58511 12.546591,6.58511 12.54666,6.687069 12.54666,6.799575 12.444633,6.799575 12.331704,6.799999 12.331704,6.681078 12.332126,6.585043" style="fill: white" /><polygon type="contour" points="12.015567,6.585043 12.015567,6.687069 12.015626,6.799999 11.809713,6.799888 11.710463,6.799888 11.710295,6.730946 11.709345,6.585035 11.808772,6.584989" style="fill: white" /><polygon type="contour" points="11.630851,7.115828 11.781322,7.116149 12.015554,7.116149 12.015702,7.220907 12.015551,7.319116 12.015551,7.500851 12.050849,7.500851 12.050849,7.71085 11.84085,7.71085 11.84085,7.418692 11.710848,7.420855 11.707809,7.290852 11.420852,7.290852 11.420852,7.080852 11.630851,7.080852" style="fill: white" /><polygon type="contour" points="12.050849,8.364188 11.84085,8.364188 11.84085,8.154185 12.050849,8.154185" style="fill: white" /><polygon type="contour" points="12.050849,9.017516 11.84085,9.017516 11.84085,8.807517 12.050849,8.807517" style="fill: white" /><polygon type="contour" points="12.050849,9.670854 11.84085,9.670854 11.84085,9.460851 12.050849,9.460851" style="fill: white" /><polygon type="contour" points="12.050849,10.324187 11.84085,10.324187 11.84085,10.114188 12.050849,10.114188" style="fill: white" /><polygon type="contour" points="12.050849,10.977519 11.84085,10.977519 11.84085,10.767516 12.050849,10.767516" style="fill: white" /><polygon type="contour" points="12.050849,11.630853 12.015874,11.630853 12.015554,11.781324 12.015554,12.015555 11.910794,12.015703 11.812586,12.015552 11.630851,12.015552 11.630851,12.050852 11.420852,12.050852 11.420852,11.840852 11.71301,11.840852 11.710848,11.710849 11.84085,11.70781 11.84085,11.420854 12.050849,11.420854" style="fill: white" /><polygon type="contour" points="12.015567,12.444634 12.015567,12.546661 11.853427,12.546661 11.709268,12.546593 11.710296,12.400756 11.710463,12.331816 11.809713,12.331816 12.015626,12.331705" style="fill: white" /><polygon type="contour" points="12.54666,12.332129 12.546591,12.43252 12.546591,12.546593 12.444633,12.546661 12.332127,12.546661 12.332127,12.444634 12.331704,12.331705 12.450623,12.331705" style="fill: white" /><polygon type="contour" points="12.546713,11.808774 12.54666,12.015569 12.444632,12.015569 12.331704,12.015626 12.331814,11.809714 12.331814,11.710464 12.400755,11.710297 12.546667,11.709347" style="fill: white" /><polygon type="contour" points="13.328024,11.710266 13.424107,11.710031 13.424107,11.821705 13.4243,12.015687 13.280701,12.015568 13.128577,12.015569 13.128819,11.809748 13.128686,11.709645" style="fill: white" /><polygon type="contour" points="14.000379,11.707801 14.000366,11.712842 14.000941,12.011547 13.962559,12.011146 13.912633,12.011146 13.824483,12.011044 13.824282,12.015569 13.747382,12.015567 13.694607,12.015531 13.693774,11.823525 13.693774,11.711496 13.9941,11.707696" style="fill: white" /><polygon type="contour" points="13.766443,12.331705 13.824594,12.331705 13.82451,12.448983 13.823983,12.546593 13.756319,12.546605 13.693427,12.546605 13.693427,12.436076 13.693453,12.331646" style="fill: white" /><polygon type="contour" points="13.42417,12.436076 13.42417,12.546605 13.285696,12.546593 13.128381,12.546593 13.128577,12.444634 13.128577,12.332129 13.280701,12.332046 13.424486,12.331646" style="fill: white" /><polygon type="contour" points="13.824377,13.255569 13.824363,13.424303 13.693572,13.424303 13.693572,13.242651 13.693427,13.128773 13.755018,13.128383 13.823983,13.128383" style="fill: white" /><polygon type="contour" points="13.280702,13.128773 13.42417,13.128773 13.42417,13.280704 13.4243,13.424303 13.303994,13.424489 13.280702,13.424172 13.128771,13.424172 13.128381,13.285698 13.128381,13.128383" style="fill: white" /><polygon type="contour" points="13.4243,13.693575 13.4243,13.824365 13.280702,13.824008 13.240614,13.823986 13.128381,13.823986 13.128771,13.756323 13.128771,13.693429 13.280701,13.693429" style="fill: white" /><polygon type="contour" points="14.002405,13.907248 14.005955,14.005956 13.748099,14.0037 13.694654,14.001562 13.694654,13.694656 14.00156,13.694656" style="fill: white" /><polygon type="contour" points="14.264602,14.920853 14.054599,14.920853 14.054599,14.710852 14.264602,14.710852" style="fill: white" /><polygon type="contour" points="13.608352,14.920853 13.398349,14.920853 13.398349,14.710852 13.608352,14.710852" style="fill: white" /><polygon type="contour" points="12.952102,14.920853 12.742099,14.920853 12.742099,14.710852 12.952102,14.710852" style="fill: white" /><polygon type="contour" points="12.295852,14.920853 12.085849,14.920853 12.085849,14.710852 12.295852,14.710852" style="fill: white" /><polygon type="contour" points="11.639602,14.920853 11.429599,14.920853 11.429599,14.710852 11.639602,14.710852" style="fill: white" /><polygon type="contour" points="10.983352,14.920853 10.773349,14.920853 10.773349,14.710852 10.983352,14.710852" style="fill: white" /><polygon type="contour" points="10.327102,14.920853 10.117099,14.920853 10.117099,14.710852 10.327102,14.710852" style="fill: white" /><polygon type="contour" points="9.670852,14.920853 9.460849,14.920853 9.460849,14.710852 9.670852,14.710852" style="fill: white" /><polygon type="contour" points="9.014602,14.920853 8.804599,14.920853 8.804599,14.710852 9.014602,14.710852" style="fill: white" /><polygon type="contour" points="8.358351,14.920853 8.148349,14.920853 8.148349,14.710852 8.358351,14.710852" style="fill: white" /><polygon type="contour" points="7.702101,14.920853 7.492099,14.920853 7.492099,14.710852 7.702101,14.710852" style="fill: white" /><polygon type="contour" points="7.045851,14.920853 6.835849,14.920853 6.835849,14.710852 7.045851,14.710852" style="fill: white" /><polygon type="contour" points="6.389601,14.920853 6.179599,14.920853 6.179599,14.710852 6.389601,14.710852" style="fill: white" /><polygon type="contour" points="5.733351,14.920853 5.52335,14.920853 5.52335,14.710852 5.733351,14.710852" style="fill: white" /><polygon type="contour" points="5.0771,14.920853 4.8671,14.920853 4.8671,14.710852 5.0771,14.710852" style="fill: white" /><polygon type="contour" points="4.42085,14.920853 4.21085,14.920853 4.21085,14.710852 4.42085,14.710852" style="fill: white" /><polygon type="contour" points="4.42085,14.264603 4.21085,14.264603 4.21085,14.054602 4.42085,14.054602" style="fill: white" /><polygon type="contour" points="4.42085,13.608353 4.21085,13.608353 4.21085,13.398351 4.42085,13.398351" style="fill: white" /><polygon type="contour" points="4.42085,12.952103 4.21085,12.952103 4.21085,12.742101 4.42085,12.742101" style="fill: white" /><polygon type="contour" points="4.42085,12.295853 4.21085,12.295853 4.21085,12.085851 4.42085,12.085851" style="fill: white" /><polygon type="contour" points="4.42085,11.639603 4.21085,11.639603 4.21085,11.429601 4.42085,11.429601" style="fill: white" /><polygon type="contour" points="4.42085,10.983354 4.21085,10.983354 4.210851,10.79495 4.210851,10.773351 4.42085,10.773351" style="fill: white" /><polygon type="contour" points="4.42085,10.327104 4.21085,10.327104 4.21085,10.117101 4.42085,10.117101" style="fill: white" /><polygon type="contour" points="4.42085,9.670854 4.21085,9.670854 4.21085,9.460851 4.42085,9.460851" style="fill: white" /><polygon type="contour" points="4.42085,9.014604 4.21085,9.014604 4.21085,8.804601 4.42085,8.804601" style="fill: white" /><polygon type="contour" points="4.42085,8.358353 4.21085,8.358353 4.21085,8.14835 4.42085,8.14835" style="fill: white" /><polygon type="contour" points="4.42085,7.702103 4.21085,7.702103 4.21085,7.492101 4.42085,7.492101" style="fill: white" /><polygon type="contour" points="4.42085,6.85745 4.420849,7.045853 4.21085,7.045853 4.21085,6.835851 4.42085,6.835851" style="fill: white" /><polygon type="contour" points="4.42085,6.389603 4.21085,6.389603 4.21085,6.179601 4.42085,6.179601" style="fill: white" /><polygon type="contour" points="4.42085,5.733353 4.21085,5.733353 4.21085,5.523352 4.42085,5.523352" style="fill: white" /><polygon type="contour" points="4.42085,5.077102 4.21085,5.077102 4.21085,4.867102 4.42085,4.867102" style="fill: white" /><polygon type="contour" points="4.42085,4.420852 4.21085,4.420852 4.21085,4.210852 4.42085,4.210852" style="fill: white" /><polygon type="contour" points="5.0771,4.420852 4.8671,4.420852 4.8671,4.210852 5.0771,4.210852" style="fill: white" /><polygon type="contour" points="5.733351,4.420852 5.52335,4.420852 5.52335,4.210852 5.733351,4.210852" style="fill: white" /><polygon type="contour" points="6.389601,4.420852 6.179599,4.420852 6.179599,4.210852 6.389601,4.210852" style="fill: white" /><polygon type="contour" points="7.045851,4.420852 6.835849,4.420852 6.835849,4.210852 7.045851,4.210852" style="fill: white" /><polygon type="contour" points="7.702101,4.420852 7.492099,4.420852 7.492099,4.210852 7.702101,4.210852" style="fill: white" /><polygon type="contour" points="8.358351,4.420852 8.148349,4.420852 8.148349,4.210852 8.358351,4.210852" style="fill: white" /><polygon type="contour" points="9.014602,4.420852 8.804599,4.420852 8.804599,4.210852 9.014602,4.210852" style="fill: white" /><polygon type="contour" points="9.670852,4.420852 9.460849,4.420852 9.460849,4.210852 9.670852,4.210852" style="fill: white" /><polygon type="contour" points="10.327102,4.420852 10.117099,4.420852 10.117099,4.210852 10.327102,4.210852" style="fill: white" /><polygon type="contour" points="10.983352,4.420852 10.773349,4.420852 10.773349,4.210852 10.983352,4.210852" style="fill: white" /><polygon type="contour" points="11.639602,4.420852 11.429599,4.420852 11.429599,4.210852 11.639602,4.210852" style="fill: white" /><polygon type="contour" points="12.295852,4.420852 12.085849,4.420852 12.085849,4.210852 12.295852,4.210852" style="fill: white" /><polygon type="contour" points="12.952102,4.420852 12.742099,4.420852 12.742099,4.210852 12.952102,4.210852" style="fill: white" /><polygon type="contour" points="13.608352,4.420852 13.398349,4.420852 13.398349,4.210852 13.608352,4.210852" style="fill: white" /><polygon type="contour" points="14.264602,4.420852 14.054599,4.420852 14.054599,4.210852 14.264602,4.210852" style="fill: white" /><polygon type="contour" points="14.920852,4.420852 14.710849,4.420852 14.710849,4.210852 14.920852,4.210852" style="fill: white" /><polygon type="contour" points="14.920852,5.077102 14.710849,5.077102 14.710849,4.867102 14.920852,4.867102" style="fill: white" /><polygon type="contour" points="14.920852,5.733353 14.710849,5.733353 14.710849,5.523352 14.920852,5.523352" style="fill: white" /><polygon type="contour" points="14.920852,6.389603 14.710849,6.389603 14.710849,6.179601 14.920852,6.179601" style="fill: white" /><polygon type="contour" points="14.920852,7.045853 14.710849,7.045853 14.710849,6.835851 14.920852,6.835851" style="fill: white" /><polygon type="contour" points="14.920852,7.702103 14.710849,7.702103 14.710849,7.492101 14.920852,7.492101" style="fill: white" /><polygon type="contour" points="14.920852,8.358353 14.710849,8.358353 14.710849,8.14835 14.920852,8.14835" style="fill: white" /><polygon type="contour" points="14.920852,9.014604 14.710849,9.014604 14.710849,8.804601 14.920852,8.804601" style="fill: white" /><polygon type="contour" points="14.920852,9.670854 14.710849,9.670854 14.710849,9.460851 14.920852,9.460851" style="fill: white" /><polygon type="contour" points="14.920852,10.327104 14.710849,10.327104 14.710849,10.117101 14.920852,10.117101" style="fill: white" /><polygon type="contour" points="14.920852,10.983354 14.710849,10.983354 14.710849,10.773351 14.920852,10.773351" style="fill: white" /><polygon type="contour" points="14.920852,11.639603 14.710849,11.639603 14.710849,11.429601 14.920852,11.429601" style="fill: white" /><polygon type="contour" points="14.920852,12.295853 14.710849,12.295853 14.710849,12.085851 14.920852,12.085851" style="fill: white" /><polygon type="contour" points="14.920852,12.952103 14.710849,12.952103 14.710849,12.742101 14.920852,12.742101" style="fill: white" /><polygon type="contour" points="14.920852,13.608353 14.710849,13.608353 14.710849,13.398351 14.920852,13.398351" style="fill: white" /><polygon type="contour" points="14.920852,14.264603 14.710849,14.264603 14.710849,14.054602 14.920852,14.054602" style="fill: white" /><polygon type="contour" points="14.920852,14.920853 14.710849,14.920853 14.710849,14.710852 14.920852,14.710852" style="fill: white" />
</svg>
