<svg width="19.131698" height="19.131699">
<polygon type="contour" points="7.530142,5.604048 7.513701,5.659945 7.442257,5.659824 7.165942,5.659146 7.160565,5.659062 6.7895,5.657926 6.473843,5.657005 6.473843,5.389433 6.860427,5.389416 7.542992,5.389352" style="fill: white" /><polygon type="contour" points="4.615879,5.463467 4.6157,5.473958 4.615689,5.475295 4.615657,5.492711 4.615523,5.521252 4.615624,5.526418 4.615897,5.573551 4.615528,5.706427 4.615491,5.802064 4.35828,5.80153 4.283242,5.80153 4.28331,5.793313 4.283293,5.792543 4.28332,5.791656 4.28332,5.412681 4.2833,5.411672 4.283325,5.410599 4.283345,5.409058 4.283318,5.407384 4.283314,5.405455 4.283288,5.403325 4.283339,5.401311 4.28332,5.389529 4.288081,5.389537 4.308999,5.389504 4.422923,5.389272 4.504692,5.389104 4.593367,5.38897 4.615611,5.38897" style="fill: white" /><polygon type="contour" points="3.385997,3.134427 3.467816,3.134617 3.467397,3.214877 3.467397,3.295556 3.467514,3.29828 3.467491,3.324692 3.467491,3.467492 3.324691,3.467492 3.298278,3.467516 3.214876,3.467399 3.210964,3.46773 3.134503,3.467705 3.13467,3.298487 3.134432,3.192034 3.134432,3.134434 3.384512,3.134172" style="fill: white" /><polygon type="contour" points="4.308998,3.324556 4.422922,3.324972 4.504692,3.324805 4.615611,3.32467 4.615611,3.46747 4.504691,3.467605 4.345669,3.467359 4.308999,3.467357 4.288463,3.467339 4.283321,3.467339 4.283321,3.324539 4.287614,3.324538" style="fill: white" /><polygon type="contour" points="4.616357,4.345671 4.615916,4.504694 4.615611,4.593369 4.615611,4.615613 4.504692,4.615917 4.345669,4.616359 4.283288,4.616359 4.283288,4.345671 4.283312,4.309 4.283321,4.283323 4.345669,4.28329 4.616357,4.28329" style="fill: white" /><polygon type="contour" points="3.467337,4.288465 3.467355,4.309 3.467357,4.345671 3.467603,4.504694 3.46746,4.595075 3.467469,4.615613 3.324669,4.615613 3.324804,4.504693 3.324971,4.422924 3.324556,4.309 3.324538,4.283323 3.467337,4.283323" style="fill: white" /><polygon type="contour" points="3.324668,5.389297 3.400846,5.389297 3.467727,5.38923 3.467509,5.546117 3.467402,5.576026 3.467554,5.62499 3.467527,5.705937 3.467499,5.801301 3.426698,5.801301 3.324512,5.800802 3.324651,5.785694 3.324602,5.776157 3.32933,5.722858 3.229684,5.722387 3.213475,5.722316 3.211753,5.722285 3.134268,5.722169 3.134268,5.488952 3.134503,5.389206 3.214876,5.389492 3.300249,5.389122" style="fill: white" /><polygon type="contour" points="3.467504,6.986905 3.467692,7.552277 3.36577,7.56427 3.229715,7.555334 3.229714,6.920115 3.229655,6.90062 3.229931,6.473144 3.402201,6.473144 3.467063,6.473335 3.467063,6.47347 3.467229,6.473335 3.46723,6.473336 3.467496,6.473121" style="fill: white" /><polygon type="contour" points="3.368653,6.295552 3.467167,6.295387 3.467308,6.326655 3.467271,6.348882 3.325095,6.348882 3.32482,6.347208 3.324551,6.331357 3.324907,6.28204 3.324656,6.269298 3.324721,6.267019 3.324729,6.248568 3.368495,6.248421" style="fill: white" /><polygon type="contour" points="4.34567,6.469827 4.504693,6.472323 4.527396,6.473582 4.615664,6.473582 4.615581,6.474766 4.615613,6.481644 4.615643,6.483243 4.61564,6.491219 4.61564,7.39731 4.615651,7.403409 4.615615,7.426366 4.615593,7.430598 4.615724,7.520615 4.546067,7.52903 4.475624,7.567209 4.433203,7.533805 4.306432,7.505624 4.295864,7.502896 4.282711,7.503881 4.283307,6.500903 4.283314,6.469863 4.34567,6.468777" style="fill: white" /><polygon type="contour" points="4.504692,6.248156 4.615753,6.248138 4.615753,6.327429 4.615559,6.348915 4.504691,6.348956 4.345669,6.348788 4.283314,6.348907 4.283364,6.338113 4.283364,6.247992 4.32971,6.247992 4.34567,6.247987" style="fill: white" /><polygon type="contour" points="5.657872,6.673504 5.657925,6.789501 5.658446,6.919258 5.659061,7.160567 5.659145,7.165944 5.659822,7.442257 5.659887,7.513486 5.560859,7.512616 5.38935,7.542995 5.389368,6.914185 5.389337,6.778301 5.38932,6.641871 5.389431,6.473844 5.657003,6.473844" style="fill: white" /><polygon type="contour" points="5.656626,6.3272 5.656631,6.349506 5.389397,6.349506 5.389339,6.266743 5.389283,6.248254 5.656395,6.248254" style="fill: white" /><polygon type="contour" points="5.738599,5.389081 5.760795,5.388964 5.77151,5.389147 5.782119,5.389327 5.788275,5.389058 5.790701,5.390101 5.8008,5.388952 5.801242,5.558346 5.800618,5.597294 5.800607,5.65492 5.787805,5.654888 5.779329,5.655181 5.778029,5.655106 5.732324,5.655217 5.721901,5.655236 5.708888,5.655339 5.654147,5.652316 5.655337,5.708892 5.655234,5.720408 5.655234,5.723399 5.655115,5.773166 5.65518,5.779331 5.654886,5.787809 5.654919,5.80061 5.597293,5.80062 5.558344,5.801244 5.389172,5.801244 5.389426,5.79061 5.389272,5.786453 5.389434,5.780979 5.388999,5.777943 5.388979,5.770652 5.389142,5.768427 5.389079,5.728306 5.389503,5.706291 5.389264,5.685278 5.388976,5.665643 5.38916,5.648172 5.389338,5.641232 5.38906,5.633625 5.389289,5.629207 5.389296,5.389297 5.618514,5.389087 5.620518,5.389084 5.62861,5.389013 5.639873,5.389397 5.656117,5.389101 5.674626,5.38927 5.695155,5.389086 5.69941,5.389325 5.716446,5.389143 5.722913,5.388842" style="fill: white" /><polygon type="contour" points="6.3272,5.389356 6.328552,5.389375 6.349505,5.389399 6.349362,5.454349 6.349362,5.656644 6.287447,5.656435 6.248252,5.656396 6.248252,5.389285" style="fill: white" /><polygon type="contour" points="6.532692,4.283332 7.507449,4.283332 7.50574,4.306368 7.535013,4.434742 7.567206,4.475626 7.529028,4.546069 7.520613,4.615726 7.430595,4.615594 7.403407,4.615653 7.397308,4.615642 6.491217,4.615642 6.483241,4.615645 6.474763,4.615583 6.473581,4.615666 6.472321,4.504694 6.469825,4.345671 6.46986,4.283316" style="fill: white" /><polygon type="contour" points="6.349838,4.345672 6.348786,4.345672 6.348954,4.504693 6.348913,4.615561 6.258537,4.615561 6.248137,4.615755 6.248153,4.504693 6.247986,4.345672 6.247989,4.283366 6.266356,4.283316 6.348906,4.283316" style="fill: white" /><polygon type="contour" points="5.801527,4.358282 5.801449,4.455894 5.802313,4.492623 5.801765,4.615661 5.706426,4.61553 5.673011,4.615246 5.573547,4.615899 5.526416,4.615625 5.52125,4.615524 5.492709,4.615659 5.475293,4.615691 5.457962,4.615638 5.388968,4.615613 5.389103,4.504693 5.38927,4.422925 5.389502,4.309 5.389528,4.283322 5.401591,4.283319 5.402792,4.283305 5.404775,4.283356 5.406801,4.283334 5.408421,4.283335 5.410097,4.283307 5.411358,4.283292 5.790547,4.283292 5.791032,4.283309 5.79315,4.283285 5.801527,4.283244" style="fill: white" /><polygon type="contour" points="5.722314,3.213477 5.722385,3.229685 5.722294,3.324055 5.774876,3.324702 5.777064,3.324701 5.786141,3.324701 5.801298,3.324702 5.800678,3.467254 5.808458,3.467551 5.777942,3.467501 5.770827,3.467482 5.763845,3.467346 5.757743,3.467539 5.755449,3.467354 5.682831,3.467383 5.389239,3.467247 5.389239,3.42498 5.389296,3.32467 5.389121,3.300251 5.389489,3.295556 5.389489,3.214878 5.389228,3.210965 5.389203,3.134504 5.488949,3.13427 5.722167,3.13427" style="fill: white" /><polygon type="contour" points="6.326654,3.325054 6.348879,3.325098 6.349505,3.451919 6.349505,3.467274 6.266739,3.467841 6.248252,3.467785 6.248566,3.373872 6.248566,3.324731" style="fill: white" /><polygon type="contour" points="7.511822,3.265571 7.552864,3.467734 6.797535,3.467339 6.473843,3.467232 6.473843,3.229425 6.912724,3.229803 7.515282,3.229169" style="fill: white" /><polygon type="contour" points="15.997267,3.134434 15.997267,3.192034 15.997029,3.298487 15.997198,3.467705 15.916823,3.467399 15.836147,3.467399 15.833422,3.467516 15.807009,3.467492 15.66421,3.467492 15.66421,3.324692 15.664186,3.29828 15.664304,3.214877 15.663969,3.210965 15.663884,3.134617 15.745702,3.134427 15.747186,3.134172" style="fill: white" /><polygon type="contour" points="14.627007,5.389104 14.708777,5.389273 14.822701,5.389503 14.848379,5.389529 14.848369,5.399886 14.848361,5.40131 14.848412,5.403325 14.848386,5.405456 14.848382,5.407384 14.848354,5.409058 14.848376,5.410489 14.8484,5.411672 14.84838,5.412607 14.84838,5.791581 14.848408,5.792542 14.848389,5.793313 14.848457,5.80153 14.675807,5.801452 14.63908,5.802315 14.516042,5.801768 14.516173,5.706427 14.516457,5.673014 14.515803,5.57355 14.516076,5.526418 14.516178,5.521251 14.516011,5.475295 14.515999,5.473957 14.516064,5.457965 14.51609,5.38897 14.538332,5.38897" style="fill: white" /><polygon type="contour" points="14.848336,6.247992 14.848387,6.266358 14.848387,6.348908 14.78603,6.348788 14.627008,6.348956 14.516141,6.348915 14.516141,6.258538 14.515947,6.248138 14.627007,6.248156 14.78603,6.247988" style="fill: white" /><polygon type="contour" points="14.848387,6.469863 14.84837,6.532694 14.848965,7.503925 14.835835,7.502896 14.825267,7.505624 14.698496,7.533805 14.656077,7.567209 14.585633,7.529029 14.515976,7.520614 14.516108,7.430596 14.516049,7.403408 14.51606,7.397309 14.51606,6.491219 14.516057,6.483243 14.516118,6.474766 14.516035,6.473582 14.627007,6.472323 14.786031,6.469828" style="fill: white" /><polygon type="contour" points="15.901805,6.639094 15.902047,6.90062 15.901987,6.920115 15.901985,7.555334 15.765928,7.56427 15.664007,7.552277 15.664361,6.797536 15.664467,6.473844 15.729498,6.473653 15.902278,6.473653" style="fill: white" /><polygon type="contour" points="15.757829,6.248568 15.806972,6.248568 15.806644,6.326656 15.806602,6.348882 15.679781,6.349506 15.664426,6.349506 15.663861,6.266743 15.663917,6.248254" style="fill: white" /><polygon type="contour" points="15.66442,5.80583 15.66442,5.805831 15.664397,5.803457 15.664413,5.802882" style="fill: white" /><polygon type="contour" points="15.836146,5.389492 15.916823,5.389492 15.920735,5.389231 15.997198,5.389205 15.997432,5.488952 15.997432,5.722169 15.918225,5.722315 15.902014,5.722386 15.800427,5.722867 15.807001,5.777066 15.806729,5.786014 15.80713,5.800847 15.664424,5.800847 15.664453,5.389241 15.70672,5.389241 15.80703,5.389297 15.831451,5.389122" style="fill: white" /><polygon type="contour" points="15.807165,4.287616 15.807147,4.309 15.80673,4.422925 15.806895,4.504693 15.807029,4.615613 15.66423,4.615613 15.664096,4.504693 15.66434,4.345671 15.664343,4.309 15.664361,4.288465 15.664361,4.283323 15.807164,4.283323" style="fill: white" /><polygon type="contour" points="14.822702,4.283314 14.848379,4.283323 14.848413,4.345671 14.848413,4.616359 14.78603,4.616359 14.627007,4.615918 14.538332,4.615613 14.51609,4.615613 14.515784,4.504694 14.515342,4.345671 14.515342,4.28329 14.786031,4.28329" style="fill: white" /><polygon type="contour" points="14.848379,3.467339 14.843237,3.467339 14.822701,3.467357 14.786031,3.467359 14.627008,3.467605 14.51609,3.467471 14.51609,3.32467 14.627008,3.324805 14.708776,3.324972 14.822702,3.324557 14.848379,3.324539" style="fill: white" /><polygon type="contour" points="13.742498,3.134505 13.742212,3.214877 13.74258,3.300252 13.742404,3.32467 13.742404,3.400846 13.742472,3.467729 13.586744,3.46762 13.555675,3.467403 13.506711,3.467556 13.425763,3.467529 13.330401,3.467501 13.330401,3.324702 13.346004,3.324653 13.355546,3.324602 13.358076,3.324567 13.408865,3.324567 13.409316,3.229685 13.409385,3.213477 13.409417,3.211754 13.409532,3.13427 13.642749,3.13427" style="fill: white" /><polygon type="contour" points="12.658366,3.229933 12.658798,3.395308 12.658586,3.467136 12.656601,3.467195 12.543547,3.46715 12.508171,3.467195 12.138246,3.467507 11.599129,3.467556 11.560236,3.365773 11.576366,3.229717 12.211215,3.229716 12.230699,3.229656" style="fill: white" /><polygon type="contour" points="12.883132,3.324731 12.883446,3.418395 12.883446,3.467785 12.804501,3.46731 12.782196,3.467274 12.78282,3.340452 12.78282,3.325098 12.864679,3.324723" style="fill: white" /><polygon type="contour" points="13.338545,4.283285 13.339418,4.283295 13.340117,4.283322 13.719094,4.283322 13.720343,4.283292 13.720903,4.283317 13.723089,4.283284 13.724899,4.283334 13.726924,4.283356 13.742173,4.283323 13.742165,4.288083 13.742197,4.309 13.742428,4.422925 13.742596,4.504693 13.742733,4.593369 13.742733,4.615613 13.66334,4.615881 13.656406,4.615691 13.638991,4.615659 13.61045,4.615524 13.605285,4.615625 13.558151,4.615899 13.425272,4.61553 13.329636,4.615493 13.33017,4.358282 13.33017,4.283244" style="fill: white" /><polygon type="contour" points="12.793587,4.283366 12.88371,4.283366 12.88371,4.329712 12.883714,4.345671 12.883546,4.504693 12.883563,4.615755 12.8045,4.619683 12.782196,4.620052 12.782308,4.50476 12.782794,4.344409 12.782794,4.283316" style="fill: white" /><polygon type="contour" points="12.661842,4.344409 12.65918,4.504759 12.657858,4.528203 12.657858,4.619322 12.656617,4.619476 12.649431,4.619987 12.647765,4.62007 12.639441,4.620217 11.734392,4.615642 11.728294,4.615653 11.705334,4.615616 11.701105,4.615594 11.617278,4.615715 11.608016,4.548217 11.574701,4.478748 11.605991,4.422925 11.60152,4.413542 11.625958,4.306368 11.624301,4.283325 12.630052,4.283326 12.661842,4.283316" style="fill: white" /><polygon type="contour" points="12.217345,5.38951 12.341956,5.389438 12.489765,5.389387 12.657858,5.389433 12.657858,5.657005 12.458197,5.657874 12.342198,5.657927 12.212444,5.658448 11.971133,5.659062 11.965757,5.659146 11.689444,5.659823 11.618217,5.659888 11.618043,5.566691 11.586111,5.389374" style="fill: white" /><polygon type="contour" points="12.883446,5.656396 12.804501,5.656628 12.782196,5.656634 12.782196,5.389399 12.864956,5.38934 12.883446,5.389285" style="fill: white" /><polygon type="contour" points="13.415252,5.389143 13.432288,5.389325 13.436545,5.389086 13.454541,5.389209 13.474171,5.389042 13.49047,5.389339 13.503089,5.389013 13.511182,5.389084 13.742404,5.389297 13.742411,5.629207 13.742639,5.633624 13.742362,5.641232 13.742539,5.648171 13.742722,5.665644 13.742435,5.685278 13.742198,5.706291 13.74262,5.728307 13.742556,5.768427 13.74272,5.770652 13.7427,5.777943 13.742263,5.780979 13.742428,5.786453 13.742275,5.790611 13.74253,5.801244 13.573354,5.801244 13.534406,5.80062 13.476781,5.80061 13.476814,5.787808 13.476521,5.779332 13.476344,5.734681 13.476467,5.723398 13.476624,5.718921 13.476363,5.708892 13.477512,5.654188 13.422811,5.655339 13.409799,5.655236 13.359336,5.655116 13.35367,5.655106 13.352371,5.655181 13.343894,5.654888 13.331093,5.65492 13.331082,5.597295 13.330458,5.557902 13.3309,5.388952 13.338974,5.389447 13.343546,5.389245 13.348002,5.38939 13.350371,5.388943 13.351153,5.389181 13.360906,5.389364 13.393084,5.389383 13.408787,5.388842" style="fill: white" /><polygon type="contour" points="13.742345,6.327201 13.74228,6.328738 13.742303,6.349506 13.677352,6.349363 13.475058,6.349363 13.475266,6.287451 13.475305,6.248254 13.742416,6.248254" style="fill: white" /><polygon type="contour" points="13.742284,6.860429 13.742348,7.542995 13.527652,7.530144 13.471757,7.513703 13.471879,7.442258 13.472556,7.165944 13.47264,7.160568 13.473776,6.789501 13.474698,6.473844 13.742268,6.473844" style="fill: white" /><polygon type="contour" points="12.186742,15.664378 12.657858,15.664471 12.658049,15.7295 12.658558,15.901769 12.492275,15.901833 12.231081,15.902047 12.211586,15.901988 11.576366,15.901986 11.611142,15.737203 11.59923,15.664224" style="fill: white" /><polygon type="contour" points="13.354636,15.664202 13.36105,15.664222 13.367963,15.66426 13.374216,15.66424 13.37625,15.664351 13.448868,15.66432 13.742462,15.664456 13.742462,15.706721 13.742404,15.807034 13.74258,15.831451 13.742212,15.836147 13.742212,15.916826 13.742469,15.920739 13.742498,15.9972 13.64275,15.997434 13.409532,15.997434 13.409385,15.918226 13.409316,15.902016 13.409405,15.807138 13.358078,15.807138 13.355545,15.807101 13.346005,15.80705 13.3304,15.807002 13.331021,15.664445 13.323241,15.664153" style="fill: white" /><polygon type="contour" points="12.883446,15.663918 12.883132,15.75783 12.883132,15.806974 12.805046,15.806647 12.78282,15.806605 12.782196,15.679784 12.782196,15.66443 12.864956,15.663863" style="fill: white" /><polygon type="contour" points="12.883546,14.627009 12.883714,14.786031 12.88371,14.848337 12.865343,14.848388 12.782794,14.848388 12.781862,14.786032 12.782914,14.786032 12.782745,14.627009 12.782788,14.516142 12.873162,14.516142 12.883563,14.515948" style="fill: white" /><polygon type="contour" points="13.605284,14.516077 13.61045,14.516179 13.638991,14.516044 13.656407,14.516012 13.673737,14.516065 13.742733,14.516091 13.742597,14.627008 13.742428,14.708778 13.742198,14.822703 13.742173,14.84838 13.730108,14.848383 13.728907,14.848398 13.726924,14.848347 13.724899,14.848335 13.723278,14.848367 13.721601,14.848396 13.720343,14.848411 13.341148,14.848411 13.340685,14.848394 13.338545,14.848419 13.33017,14.848459 13.33017,14.773421 13.330249,14.675808 13.329388,14.639081 13.329933,14.516042 13.425272,14.516174 13.458688,14.516458 13.558152,14.515804" style="fill: white" /><polygon type="contour" points="15.806895,14.62701 15.80673,14.708778 15.807145,14.822702 15.807163,14.84838 15.666568,14.848381 15.664361,14.848381 15.664361,14.843239 15.664343,14.822703 15.66434,14.786032 15.664095,14.627008 15.664238,14.536627 15.66423,14.516091 15.807029,14.516091" style="fill: white" /><polygon type="contour" points="15.997198,15.663998 15.997029,15.833217 15.997267,15.93967 15.997267,15.99727 15.747187,15.997532 15.745702,15.997275 15.663884,15.997086 15.664302,15.916825 15.664302,15.836149 15.664186,15.833423 15.66421,15.80701 15.66421,15.664212 15.807009,15.664212 15.833421,15.664188 15.916823,15.664305 15.920735,15.663972" style="fill: white" /><polygon type="contour" points="14.78603,15.664341 14.822702,15.664344 14.843237,15.664362 14.848379,15.664362 14.848379,15.807165 14.844085,15.807166 14.822702,15.807148 14.708776,15.806731 14.627008,15.806898 14.51609,15.807033 14.51609,15.664233 14.627008,15.664098" style="fill: white" /><polygon type="contour" points="14.848413,14.786032 14.848387,14.822703 14.848379,14.84838 14.786031,14.848414 14.515342,14.848414 14.515342,14.786031 14.515784,14.627008 14.51609,14.538333 14.51609,14.516091 14.627008,14.515785 14.78603,14.515345 14.848413,14.515345" style="fill: white" /><polygon type="contour" points="14.78603,12.782915 14.848386,12.782796 14.848336,12.793589 14.848336,12.883712 14.801989,12.883712 14.78603,12.883716 14.627008,12.883548 14.515947,12.883565 14.515947,12.804274 14.516141,12.782789 14.627008,12.782748" style="fill: white" /><polygon type="contour" points="14.773419,13.330172 14.848458,13.330172 14.84839,13.338277 14.848408,13.339159 14.84838,13.34012 14.84838,13.719096 14.8484,13.720031 14.848376,13.721214 14.848354,13.722645 14.848382,13.72432 14.848355,13.726248 14.848379,13.742175 14.843619,13.742167 14.822701,13.742201 14.708777,13.742429 14.627007,13.742598 14.538332,13.742734 14.51609,13.742734 14.515821,13.668237 14.515999,13.657745 14.51601,13.656408 14.516043,13.638992 14.516178,13.610451 14.516076,13.605285 14.515803,13.558152 14.516173,13.425273 14.516209,13.329638" style="fill: white" /><polygon type="contour" points="15.806778,13.346144 15.807099,13.355546 15.802348,13.408846 15.902013,13.409316 15.918224,13.409387 15.919946,13.409418 15.997432,13.409533 15.997432,13.642751 15.997198,13.742499 15.916823,13.742213 15.83145,13.742583 15.807031,13.742406 15.730852,13.742406 15.663971,13.742475 15.664297,13.555677 15.664145,13.506713 15.663917,13.427576 15.664328,13.330857 15.80713,13.330857" style="fill: white" /><polygon type="contour" points="15.791246,12.782822 15.806602,12.782822 15.80698,12.864682 15.806972,12.883134 15.713306,12.883448 15.663917,12.883448 15.66439,12.804503 15.664427,12.782198" style="fill: white" /><polygon type="contour" points="15.858063,11.616098 15.902534,11.616419 15.9019,12.219364 15.902278,12.658052 15.736604,12.658588 15.664564,12.658588 15.664506,12.656603 15.664588,12.59939 15.664505,12.508173 15.664193,12.138248 15.664144,11.59913" style="fill: white" /><polygon type="contour" points="14.708777,11.605994 14.717982,11.602229 14.825266,11.626075 14.835835,11.628808 14.848989,11.627824 14.848392,12.630799 14.848385,12.661841 14.786031,12.661876 14.627007,12.659381 14.604304,12.658121 14.516036,12.658121 14.516119,12.656938 14.516086,12.650057 14.516057,12.648461 14.51606,12.640484 14.51606,11.734393 14.516049,11.728296 14.516085,11.705336 14.516108,11.701107 14.515987,11.61728 14.583484,11.608019 14.652954,11.574702" style="fill: white" /><polygon type="contour" points="13.74219,12.217347 13.742262,12.34196 13.742314,12.489767 13.742268,12.65786 13.474698,12.65786 13.473828,12.458198 13.473775,12.3422 13.473253,12.212445 13.472639,11.971136 13.472554,11.965759 13.471877,11.689446 13.471813,11.618219 13.565009,11.618045 13.742327,11.586113" style="fill: white" /><polygon type="contour" points="13.742359,12.864957 13.742416,12.883448 13.475305,12.883448 13.475074,12.804503 13.475069,12.782198 13.742303,12.782198" style="fill: white" /><polygon type="contour" points="13.74275,13.330902 13.742274,13.338533 13.742427,13.341605 13.742428,13.345247 13.742262,13.350724 13.7427,13.35376 13.74272,13.361051 13.742558,13.363276 13.742619,13.403397 13.742198,13.425411 13.742435,13.446425 13.742723,13.466059 13.74254,13.483533 13.742363,13.490472 13.742639,13.498078 13.742411,13.502495 13.742404,13.742406 13.513185,13.742615 13.504598,13.742301 13.491826,13.742307 13.475582,13.742603 13.457072,13.742434 13.436546,13.742619 13.432289,13.74238 13.415251,13.74256 13.408788,13.742861 13.393099,13.742622 13.370902,13.74274 13.360187,13.742557 13.34958,13.742378 13.343425,13.742647 13.341666,13.741886 13.330458,13.742531 13.330458,13.573356 13.331082,13.534407 13.331093,13.476783 13.343894,13.476816 13.352371,13.476523 13.35367,13.476598 13.399376,13.476486 13.409799,13.476467 13.42281,13.476365 13.477552,13.479405 13.476363,13.422812 13.476467,13.411295 13.476467,13.408306 13.476586,13.358536 13.476521,13.352371 13.476814,13.343895 13.476781,13.331094 13.534406,13.331084 13.573798,13.33046" style="fill: white" /><polygon type="contour" points="12.844248,13.475268 12.883446,13.475308 12.883446,13.742419 12.804501,13.742348 12.782196,13.742306 12.782339,13.677355 12.782339,13.475059" style="fill: white" /><polygon type="contour" points="11.689444,13.47188 11.965758,13.472558 11.971133,13.47264 12.342198,13.473777 12.657858,13.474699 12.657858,13.742271 12.489765,13.742315 12.341956,13.742264 12.217345,13.742192 11.586111,13.742329 11.602022,13.527779 11.617998,13.471758" style="fill: white" /><polygon type="contour" points="11.701105,14.516109 11.728294,14.51605 11.734392,14.516062 12.640483,14.516062 12.648459,14.516059 12.656936,14.51612 12.65812,14.516038 12.659379,14.627008 12.661875,14.786032 12.66184,14.848388 12.599007,14.848373 11.624249,14.848373 11.625958,14.825336 11.601519,14.718162 11.605991,14.708778 11.574701,14.652955 11.608017,14.583486 11.617278,14.515988" style="fill: white" /><polygon type="contour" points="6.349391,14.626944 6.348906,14.787294 6.348906,14.848387 6.338113,14.848336 6.247989,14.848337 6.247989,14.801991 6.247986,14.786031 6.248153,14.627009 6.248137,14.515948 6.327199,14.512021 6.349505,14.511652" style="fill: white" /><polygon type="contour" points="5.706425,14.516173 5.802061,14.516211 5.801527,14.773421 5.801527,14.848459 5.79331,14.848391 5.792277,14.848409 5.79139,14.848381 5.412419,14.848381 5.411357,14.848411 5.410777,14.848385 5.40861,14.84842 5.406801,14.848336 5.404775,14.848347 5.402792,14.848398 5.401591,14.848383 5.389528,14.84838 5.389536,14.84362 5.389501,14.822702 5.38927,14.708778 5.389102,14.627008 5.388968,14.538333 5.388968,14.516091 5.475294,14.516012 5.492709,14.516044 5.52125,14.516179 5.526415,14.516077 5.573548,14.515804" style="fill: white" /><polygon type="contour" points="5.603919,11.602022 5.659943,11.618001 5.659823,11.689445 5.659145,11.965759 5.659061,11.971136 5.657924,12.342201 5.657003,12.65786 5.389432,12.65786 5.389386,12.489767 5.389435,12.34196 5.389508,12.217347 5.389372,11.586112" style="fill: white" /><polygon type="contour" points="4.548215,11.608019 4.615713,11.61728 4.615593,11.701107 4.615652,11.728295 4.61564,11.734393 4.61564,12.640484 4.615643,12.64846 4.615581,12.656938 4.615664,12.658121 4.504693,12.65938 4.345669,12.661876 4.283314,12.661841 4.28333,12.599008 4.282734,11.627778 4.295863,11.628807 4.306433,11.626075 4.413718,11.602229 4.422923,11.605994 4.478746,11.574702" style="fill: white" /><polygon type="contour" points="3.467323,12.186745 3.467229,12.65786 3.402199,12.658052 3.229423,12.658052 3.229801,12.219364 3.229168,11.616419 3.273636,11.616098 3.467554,11.599131" style="fill: white" /><polygon type="contour" points="3.467761,13.347222 3.467771,13.350771 3.467762,13.353965 3.467791,13.35662 3.467767,13.358574 3.467724,13.390526 3.467246,13.742463 3.424978,13.742463 3.324669,13.742406 3.300249,13.742583 3.295554,13.742213 3.214876,13.742213 3.210963,13.742471 3.134503,13.742499 3.134268,13.64275 3.134268,13.409533 3.213475,13.409388 3.229684,13.409317 3.324318,13.409407 3.324955,13.356757 3.324699,13.354638 3.324971,13.345687 3.324571,13.330857 3.46737,13.330857" style="fill: white" /><polygon type="contour" points="3.46784,12.864957 3.467784,12.883448 3.373871,12.883134 3.324729,12.883134 3.325053,12.805047 3.325096,12.782822 3.451916,12.782198 3.467271,12.782198" style="fill: white" /><polygon type="contour" points="4.34567,12.782915 4.504691,12.782748 4.615559,12.782789 4.615559,12.873164 4.615753,12.883565 4.504691,12.883548 4.34567,12.883716 4.283364,12.883712 4.283314,12.865345 4.283314,12.782796 4.34567,12.781864" style="fill: white" /><polygon type="contour" points="4.615659,13.329935 4.615528,13.425273 4.615244,13.458689 4.615897,13.558153 4.615624,13.605285 4.615522,13.610452 4.615688,13.656407 4.615701,13.657745 4.615637,13.673739 4.615611,13.742734 4.593367,13.742734 4.504692,13.742598 4.422923,13.74243 4.308998,13.742201 4.28332,13.742176 4.28333,13.731818 4.28334,13.730393 4.283288,13.728378 4.283314,13.726248 4.283319,13.724319 4.283344,13.722645 4.283324,13.721214 4.2833,13.720031 4.28332,13.719022 4.28332,13.340045 4.283293,13.339158 4.28331,13.338388 4.283242,13.330172 4.455893,13.33025 4.492621,13.329389" style="fill: white" /><polygon type="contour" points="5.454347,12.782341 5.656641,12.782341 5.656434,12.844251 5.656395,12.883448 5.389283,12.883448 5.389355,12.804503 5.389397,12.782198" style="fill: white" /><polygon type="contour" points="5.597293,13.331084 5.654919,13.331094 5.654886,13.343895 5.655179,13.352371 5.655355,13.397022 5.655234,13.408306 5.655076,13.412781 5.655337,13.422812 5.654187,13.477515 5.708888,13.476365 5.718919,13.476625 5.723395,13.476468 5.773165,13.476588 5.778029,13.476598 5.779328,13.476522 5.787805,13.476816 5.800607,13.476783 5.800618,13.534407 5.801242,13.573356 5.8008,13.742752 5.791804,13.742296 5.788151,13.742459 5.783697,13.742311 5.781328,13.742761 5.780548,13.742521 5.770792,13.742339 5.738614,13.742321 5.722913,13.742862 5.716447,13.74256 5.69941,13.74238 5.695155,13.742619 5.674626,13.742435 5.657528,13.742662 5.641229,13.742364 5.628611,13.742691 5.620517,13.742619 5.389296,13.742406 5.389288,13.502494 5.38906,13.498079 5.389338,13.490472 5.389161,13.483533 5.388977,13.466058 5.389265,13.446424 5.389503,13.425412 5.389079,13.403397 5.389142,13.363276 5.38898,13.361051 5.389,13.354637 5.389433,13.351429 5.389272,13.345687 5.389425,13.341399 5.388949,13.330902 5.557901,13.33046" style="fill: white" /><polygon type="contour" points="6.349505,13.742306 6.266739,13.742363 6.248252,13.742419 6.248252,13.475307 6.327199,13.475075 6.349505,13.47507" style="fill: white" /><polygon type="contour" points="7.512613,13.570842 7.542992,13.74235 6.914185,13.742332 6.778299,13.742364 6.64187,13.742381 6.473843,13.742271 6.473843,13.474699 6.673503,13.47383 6.789501,13.473777 6.919256,13.473255 7.160566,13.472641 7.165942,13.472557 7.442256,13.47188 7.513484,13.471816" style="fill: white" /><polygon type="contour" points="7.397308,14.516062 7.403406,14.516049 7.426365,14.516086 7.430595,14.516109 7.520613,14.515977 7.529029,14.585634 7.567207,14.656077 7.535013,14.696961 7.50574,14.825335 7.507397,14.848378 6.501649,14.848378 6.46986,14.848388 6.46986,14.787295 6.472521,14.626943 6.473843,14.6035 6.473843,14.512382 6.475084,14.512228 6.482267,14.511718 6.483935,14.511634 6.492259,14.511487" style="fill: white" /><polygon type="contour" points="7.513252,15.858065 7.515282,15.902535 6.912338,15.901902 6.473143,15.90177 6.473143,15.728991 6.473187,15.713862 6.52302,15.714009 6.523018,15.664205 6.986906,15.664196 7.552276,15.664009" style="fill: white" /><polygon type="contour" points="6.34888,15.806605 6.331355,15.806535 6.282039,15.806794 6.267017,15.806982 6.248566,15.806974 6.248252,15.743988 6.248252,15.713587 6.296749,15.713587 6.298173,15.663874 6.326654,15.663847 6.34888,15.663804" style="fill: white" /><polygon type="contour" points="5.546115,15.664192 5.576024,15.6643 5.624988,15.664148 5.705935,15.664172 5.801298,15.664202 5.801298,15.807002 5.786141,15.807002 5.777064,15.807004 5.774944,15.806747 5.722294,15.807398 5.722385,15.902017 5.722314,15.918226 5.722283,15.919949 5.722167,15.997434 5.488949,15.997435 5.389203,15.9972 5.389489,15.916825 5.389121,15.831451 5.389296,15.807032 5.389296,15.730857 5.389228,15.663974" style="fill: white" /><polygon type="contour" points="4.615611,15.664233 4.615611,15.807033 4.504692,15.806898 4.422922,15.806731 4.308999,15.807148 4.283321,15.807166 4.283321,15.664362 4.288463,15.664362 4.308998,15.664344 4.34567,15.664341 4.504692,15.664098" style="fill: white" /><polygon type="contour" points="4.504692,14.515786 4.593367,14.516091 4.615611,14.516091 4.615916,14.627009 4.616357,14.786031 4.616357,14.848414 4.345669,14.848414 4.308998,14.848388 4.283321,14.84838 4.283288,14.786032 4.283288,14.515345 4.345669,14.515345" style="fill: white" /><polygon type="contour" points="3.467603,14.627008 3.467357,14.786032 3.467355,14.822702 3.467337,14.843238 3.467337,14.84838 3.324538,14.84838 3.324537,14.844086 3.324555,14.822703 3.324971,14.708779 3.324804,14.627009 3.324669,14.516091 3.467469,14.516091" style="fill: white" /><polygon type="contour" points="3.214875,15.664305 3.295554,15.664305 3.298279,15.664188 3.324691,15.664212 3.467491,15.664212 3.467491,15.807011 3.467514,15.833423 3.467397,15.916826 3.46773,15.920739 3.467816,15.997086 3.385996,15.997275 3.384511,15.997532 3.134432,15.99727 3.134432,15.93967 3.13467,15.833217 3.134503,15.663998" style="fill: white" />
</svg>
