<svg width="19.131698" height="19.131699">
<polygon type="contour" points="11.029479,8.362685 11.029197,8.374106 10.945358,8.374007 10.945358,9.143258 11.029209,9.143218 11.029236,9.197988 11.029894,9.368752 11.030089,9.435309 10.945358,9.435435 10.945358,9.695815 11.030089,9.696395 11.029236,9.933716 11.029209,9.988486 11.001519,9.98852 10.945358,9.98846 10.945358,10.757696 11.029197,10.757598 11.029479,10.769018 11.037313,11.037315 10.892953,11.034714 10.760942,11.033243 10.757606,10.94536 9.988458,10.94536 9.988518,11.001521 9.988483,11.029211 9.972321,11.029317 9.80928,11.032584 9.6983,11.032543 9.696075,10.94536 9.435867,10.94536 9.4334,11.032542 9.159379,11.029317 9.143216,11.029211 9.14318,11.00152 9.143241,10.94536 8.374005,10.94536 8.370757,11.033243 8.238746,11.034715 8.094387,11.037315 8.102221,10.769018 8.102503,10.757598 8.186342,10.757696 8.186342,9.988445 8.102492,9.988486 8.102464,9.933715 8.101805,9.762951 8.101611,9.696395 8.186342,9.696269 8.186342,9.435889 8.101611,9.435309 8.102465,9.197988 8.102492,9.143218 8.130182,9.143182 8.186342,9.143243 8.186342,8.374007 8.102503,8.374106 8.102221,8.362685 8.094387,8.094389 8.238745,8.096989 8.370757,8.098459 8.374094,8.186344 9.143256,8.186344 9.143216,8.102493 9.159378,8.102388 9.322419,8.099119 9.4334,8.099161 9.435625,8.186344 9.695833,8.186344 9.6983,8.099161 9.97232,8.102388 9.988484,8.102493 9.988518,8.130182 9.988458,8.186344 10.757694,8.186344 10.760942,8.098459 10.892954,8.09699 11.037314,8.094388" style="fill: white" />
</svg>
