<svg width="19.131698" height="19.131699">
<polygon type="contour" points="14.966601,14.592702 14.96675,14.96675 14.581868,14.966851 14.399916,14.966851 14.412338,14.66553 14.420103,14.483404 14.479967,14.479966 14.483402,14.420105 14.661985,14.416981 14.966601,14.407361" style="fill: white" /><polygon type="contour" points="15.578762,14.407827 15.578511,14.597101 15.578782,14.966659 15.480414,14.966751 15.383262,14.966751 15.383251,14.590353 15.383251,14.405852 15.444034,14.402864" style="fill: white" /><polygon type="contour" points="15.579111,15.4574 15.579111,15.579112 15.494768,15.578784 15.383084,15.578784 15.383084,15.494769 15.383262,15.383264 15.480415,15.383264 15.578782,15.383085" style="fill: white" /><polygon type="contour" points="14.96675,15.383264 14.96675,15.480415 14.966657,15.578784 14.597099,15.578513 14.407824,15.578765 14.410504,15.507971 14.40585,15.383253 14.59035,15.383253" style="fill: white" /><polygon type="contour" points="14.597545,16.207301 14.966657,16.207834 14.966396,16.365492 14.966478,16.540116 14.614742,16.540311 14.411872,16.540456 14.405828,16.422454 14.41095,16.207202" style="fill: white" /><polygon type="contour" points="14.966307,16.88851 14.966307,16.9198 14.96675,17.031225 14.966497,17.09223 14.96625,17.10563 14.96648,17.137447 14.966294,17.139817 14.966294,17.180555 14.966424,17.182532 14.966438,17.22114 14.758573,17.22163 14.633728,17.22163 14.63365,17.179227 14.63342,17.126256 14.411599,17.1264 14.40638,17.12627 14.395103,16.943956 14.406829,16.888306 14.613168,16.888306" style="fill: white" /><polygon type="contour" points="15.579111,16.942065 15.579111,17.030742 15.470442,17.030804 15.383263,17.03105 15.383149,16.953713 15.383149,16.888324 15.489396,16.888324 15.578997,16.88823" style="fill: white" /><polygon type="contour" points="15.578997,16.365492 15.578997,16.540228 15.485999,16.540228 15.383149,16.540217 15.382998,16.365492 15.383084,16.207834 15.457398,16.207372 15.579111,16.207372" style="fill: white" /><polygon type="contour" points="16.36549,16.20773 16.540226,16.20773 16.540226,16.365492 16.540114,16.540115 16.387956,16.540217 16.36549,16.540228 16.207728,16.540228 16.207728,16.365493 16.207371,16.207372" style="fill: white" /><polygon type="contour" points="16.347334,16.888384 16.540114,16.888384 16.540114,17.031188 16.379168,17.030855 16.207371,17.030742 16.207728,16.963274 16.207728,16.88823" style="fill: white" /><polygon type="contour" points="17.221138,16.887938 17.221054,16.973383 17.22154,17.190708 17.22154,17.221542 17.087666,17.221682 17.086872,17.221543 16.88788,17.221082 16.888092,17.180556 16.888092,17.139819 16.888031,17.138443 16.888059,17.10733 16.88808,17.094073 16.888382,17.031188 16.888382,16.888386 17.031185,16.888386 17.094071,16.88808 17.107328,16.888061 17.138441,16.888034 17.180554,16.888094 17.18253,16.887926" style="fill: white" /><polygon type="contour" points="17.030853,16.37917 17.031186,16.540116 16.888382,16.540116 16.888382,16.347336 16.888228,16.20773 16.942063,16.207372 17.03074,16.207372" style="fill: white" /><polygon type="contour" points="16.959281,15.383264 17.031046,15.383264 17.030802,15.470443 17.03074,15.579112 16.963272,15.578999 16.888228,15.578999 16.888228,15.486002 16.88832,15.383151" style="fill: white" /><polygon type="contour" points="16.540214,15.383151 16.540226,15.486001 16.540226,15.578999 16.365491,15.578999 16.207371,15.579112 16.207833,15.494769 16.207833,15.383085 16.36549,15.383" style="fill: white" /><polygon type="contour" points="16.539662,14.617885 16.540114,14.966481 16.36212,14.966814 16.207833,14.966659 16.207371,14.771171 16.207437,14.412556 16.339603,14.41638 16.539662,14.410223" style="fill: white" /><polygon type="contour" points="17.008581,14.406835 17.126444,14.406576 17.126262,14.467274 17.126272,14.494394 17.126254,14.633421 17.179225,14.63365 17.180148,14.633668 17.221628,14.633729 17.221628,14.758573 17.221138,14.96644 17.180553,14.966296 17.137445,14.966482 17.105628,14.966252 17.092225,14.9665 17.031221,14.966751 16.99534,14.966751 16.888506,14.96631 16.888348,14.60414 16.888348,14.400931" style="fill: white" /><polygon type="contour" points="17.22154,1.910161 17.22154,1.940997 17.221054,2.158319 17.221138,2.243765 17.180553,2.24361 17.139818,2.24361 17.138442,2.243669 17.107327,2.243642 17.094072,2.243623 17.031185,2.243317 16.888386,2.243317 16.888386,2.213315 16.888382,2.100516 16.88808,2.03763 16.888059,2.024373 16.888032,1.99326 16.888092,1.951148 16.887924,1.949172 16.88788,1.910621 17.086872,1.910159 17.087666,1.910021" style="fill: white" /><polygon type="contour" points="16.540116,2.183311 16.540116,2.243317 16.347333,2.243317 16.207727,2.243473 16.207371,2.189636 16.207371,2.100961 16.379169,2.100847 16.540113,2.100517" style="fill: white" /><polygon type="contour" points="16.540115,2.591587 16.540114,2.784368 16.540226,2.923974 16.365491,2.923974 16.207371,2.924331 16.207727,2.766209 16.207727,2.591474 16.365493,2.591474" style="fill: white" /><polygon type="contour" points="17.030853,2.752532 17.03074,2.924331 16.963272,2.923974 16.888228,2.923974 16.888381,2.784368 16.888384,2.591587 17.031186,2.591587" style="fill: white" /><polygon type="contour" points="17.030955,3.636933 17.031046,3.748439 16.95371,3.748173 16.88832,3.748173 16.88832,3.642302 16.888228,3.552704 16.942064,3.552591 17.03074,3.552591" style="fill: white" /><polygon type="contour" points="17.092226,4.165205 17.105628,4.165451 17.137445,4.165222 17.139817,4.165409 17.180553,4.165409 17.18253,4.165278 17.221138,4.165265 17.221628,4.37313 17.221628,4.497974 17.179225,4.498052 17.126252,4.498282 17.126612,4.72006 17.126594,4.725286 16.942991,4.743898 16.888348,4.730773 16.888348,4.527564 16.888506,4.165394 16.919795,4.165394 17.031221,4.164953" style="fill: white" /><polygon type="contour" points="16.540114,4.165223 16.539662,4.513818 16.539662,4.72148 16.339603,4.715323 16.207437,4.719147 16.207814,4.533605 16.207833,4.165044 16.36212,4.16489" style="fill: white" /><polygon type="contour" points="16.365491,3.552704 16.540226,3.552705 16.540226,3.64537 16.540214,3.748173 16.365491,3.748371 16.207833,3.748618 16.207371,3.674303 16.207371,3.552591" style="fill: white" /><polygon type="contour" points="14.966657,3.636934 14.96675,3.748439 14.590351,3.748451 14.40585,3.748451 14.402861,3.687667 14.407824,3.552939 14.597099,3.553191 14.966657,3.55292" style="fill: white" /><polygon type="contour" points="14.96675,4.164953 14.966601,4.539 14.966601,4.724342 14.661985,4.714722 14.483402,4.711599 14.479963,4.651678 14.42012,4.648343 14.412338,4.466173 14.399916,4.164853 14.581868,4.164853" style="fill: white" /><polygon type="contour" points="15.578782,4.165044 15.578511,4.534603 15.578762,4.723877 15.507969,4.721198 15.383251,4.725852 15.383251,4.54135 15.383262,4.164953 15.480414,4.164953" style="fill: white" /><polygon type="contour" points="15.578782,3.636934 15.578782,3.748618 15.494768,3.748618 15.383263,3.748439 15.383263,3.651286 15.383084,3.552919 15.457397,3.552591 15.57911,3.552591" style="fill: white" /><polygon type="contour" points="15.578997,2.76621 15.579111,2.924331 15.494768,2.92387 15.383083,2.92387 15.382998,2.766209 15.383149,2.591486 15.489397,2.591486 15.578997,2.591474" style="fill: white" /><polygon type="contour" points="15.470441,2.100896 15.579111,2.100961 15.578997,2.168427 15.578997,2.243473 15.489397,2.24338 15.383149,2.24338 15.383263,2.172417 15.383263,2.100652" style="fill: white" /><polygon type="contour" points="14.966438,1.910564 14.966294,1.951148 14.96648,1.994256 14.966251,2.026074 14.966497,2.039474 14.96675,2.100476 14.96675,2.136359 14.966307,2.243194 14.613168,2.243398 14.406828,2.243398 14.395103,2.18775 14.406381,2.005433 14.411599,2.005303 14.63342,2.005444 14.63365,1.952475 14.633667,1.951553 14.633728,1.910075 14.758574,1.910075" style="fill: white" /><polygon type="contour" points="14.614744,2.591393 14.966478,2.591587 14.96681,2.769583 14.966656,2.92387 14.597544,2.924402 14.41095,2.924502 14.415954,2.75945 14.411873,2.591246" style="fill: white" /><polygon type="contour" points="4.719362,4.466173 4.711598,4.6483 4.651733,4.651735 4.648298,4.711599 4.469714,4.714721 4.165098,4.724342 4.165098,4.539001 4.164951,4.164953 4.549832,4.164853 4.731784,4.164853" style="fill: white" /><polygon type="contour" points="2.044827,1.910159 2.24382,1.910621 2.243609,1.951147 2.243609,1.991885 2.243668,1.993261 2.24364,2.024373 2.243621,2.03763 2.243315,2.100517 2.243315,2.243317 2.100516,2.243317 2.037628,2.243623 2.024372,2.243642 1.993259,2.243669 1.951146,2.24361 1.949171,2.243778 1.910562,2.243765 1.910647,2.158319 1.910161,1.940997 1.910161,1.910162 2.044032,1.910022" style="fill: white" /><polygon type="contour" points="2.75253,2.100847 2.92433,2.100961 2.923973,2.168427 2.923973,2.243473 2.784365,2.243317 2.591585,2.243317 2.591585,2.100517" style="fill: white" /><polygon type="contour" points="2.243192,4.165394 2.243353,4.527565 2.243353,4.730773 2.188712,4.743897 2.005106,4.725286 2.005089,4.720059 2.005442,4.498282 1.952473,4.498052 1.951552,4.498036 1.910073,4.497974 1.910073,4.373129 1.910562,4.165265 1.951146,4.165409 1.994254,4.165223 2.026072,4.165451 2.039474,4.165205 2.100475,4.164952 2.136356,4.164952" style="fill: white" /><polygon type="contour" points="2.168427,3.552704 2.243471,3.552704 2.243471,3.64537 2.243378,3.748173 2.172415,3.748438 2.100651,3.748438 2.100895,3.661258 2.10096,3.552591" style="fill: white" /><polygon type="contour" points="2.243315,2.784366 2.243471,2.923974 2.189635,2.924331 2.10096,2.924331 2.100846,2.752532 2.100516,2.591587 2.243315,2.591587" style="fill: white" /><polygon type="contour" points="2.923973,2.766209 2.92433,2.924331 2.766208,2.923974 2.591472,2.923974 2.591472,2.766209 2.591585,2.591587 2.743741,2.591485 2.766208,2.591474 2.923973,2.591474" style="fill: white" /><polygon type="contour" points="3.748172,2.591486 3.748371,2.76621 3.748617,2.92387 3.6743,2.924331 3.552589,2.924331 3.552703,2.76621 3.552703,2.591474 3.645369,2.591474" style="fill: white" /><polygon type="contour" points="3.748172,2.177989 3.748172,2.24338 3.642302,2.24338 3.552703,2.243473 3.552589,2.189637 3.552589,2.100961 3.661257,2.100897 3.748437,2.100652" style="fill: white" /><polygon type="contour" points="4.49805,1.952475 4.49828,2.005444 4.637306,2.005427 4.664427,2.005437 4.725128,2.005256 4.731077,2.098323 4.724871,2.243398 4.518531,2.243398 4.165393,2.243194 4.165393,2.211902 4.164951,2.100477 4.165204,2.039474 4.16545,2.026074 4.165221,1.994256 4.165407,1.991886 4.165407,1.951148 4.165275,1.949172 4.165263,1.910564 4.373126,1.910075 4.497971,1.910075" style="fill: white" /><polygon type="contour" points="4.725872,2.709249 4.720749,2.924502 4.534154,2.924402 4.165042,2.92387 4.165304,2.76621 4.165222,2.591587 4.516957,2.591393 4.719828,2.591246" style="fill: white" /><polygon type="contour" points="4.534601,3.553191 4.723876,3.552939 4.721197,3.623733 4.72585,3.748451 4.541349,3.748451 4.164951,3.748439 4.164951,3.651286 4.165042,3.55292" style="fill: white" /><polygon type="contour" points="3.636931,3.55292 3.748617,3.55292 3.748617,3.636933 3.748437,3.748439 3.651285,3.748439 3.552919,3.748618 3.552589,3.674302 3.552589,3.552591" style="fill: white" /><polygon type="contour" points="2.923869,3.636933 2.923869,3.748618 2.766209,3.748372 2.591484,3.748173 2.591472,3.64537 2.591472,3.552704 2.766208,3.552704 2.92433,3.552591" style="fill: white" /><polygon type="contour" points="2.923869,4.165044 2.92433,4.360531 2.924262,4.719147 2.792095,4.715323 2.592037,4.72148 2.592037,4.513818 2.591585,4.165223 2.769582,4.16489" style="fill: white" /><polygon type="contour" points="3.74845,4.54135 3.74845,4.725852 3.687666,4.72884 3.552937,4.723876 3.553189,4.534604 3.552919,4.165044 3.651285,4.164953 3.748437,4.164953" style="fill: white" /><polygon type="contour" points="2.243353,14.400931 2.243353,14.604139 2.243192,14.96631 2.211901,14.96631 2.100475,14.966752 2.039474,14.9665 2.026071,14.966252 1.994254,14.966482 1.991883,14.966296 1.951146,14.966296 1.949171,14.966426 1.910561,14.96644 1.910073,14.758574 1.910073,14.633729 1.952473,14.633651 2.005442,14.633421 2.005424,14.494393 2.005437,14.467275 2.005255,14.406576 2.09832,14.400626" style="fill: white" /><polygon type="contour" points="2.792095,14.41638 2.924262,14.412555 2.923886,14.598098 2.923868,14.966659 2.769581,14.966813 2.591585,14.96648 2.592037,14.617885 2.592037,14.410223" style="fill: white" /><polygon type="contour" points="2.92433,16.942066 2.92433,17.030742 2.75253,17.030855 2.591585,17.031188 2.591585,16.888384 2.784366,16.888384 2.923973,16.88823" style="fill: white" /><polygon type="contour" points="2.923973,16.365493 2.923973,16.540228 2.766209,16.540228 2.591585,16.540116 2.591585,16.347336 2.591472,16.20773 2.766209,16.20773 2.92433,16.207372" style="fill: white" /><polygon type="contour" points="3.636932,16.207834 3.748617,16.207834 3.748371,16.365492 3.748172,16.540217 3.642301,16.540217 3.552703,16.540228 3.552703,16.365492 3.552589,16.207372" style="fill: white" /><polygon type="contour" points="3.642302,16.888324 3.748172,16.888324 3.748437,16.959286 3.748437,17.03105 3.661257,17.030804 3.552589,17.030742 3.552703,16.963273 3.552703,16.88823" style="fill: white" /><polygon type="contour" points="4.720005,17.010049 4.725127,17.126446 4.664426,17.126266 4.637306,17.126276 4.49828,17.126256 4.498051,17.179227 4.498034,17.180149 4.497971,17.22163 4.373127,17.22163 4.165263,17.22114 4.165407,17.180555 4.165221,17.137447 4.16545,17.10563 4.165204,17.09223 4.164951,17.031225 4.164951,16.995344 4.165393,16.888509 4.518531,16.888306 4.724871,16.888306" style="fill: white" /><polygon type="contour" points="4.715745,16.372252 4.719828,16.540456 4.516957,16.540311 4.165222,16.540116 4.164887,16.36212 4.165042,16.207834 4.534154,16.207301 4.720749,16.207202" style="fill: white" /><polygon type="contour" points="4.728839,15.444036 4.723876,15.578765 4.534601,15.578513 4.165042,15.578784 4.165042,15.494769 4.164951,15.383264 4.54135,15.383253 4.72585,15.383253" style="fill: white" /><polygon type="contour" points="4.469713,14.416982 4.648298,14.420105 4.651736,14.480024 4.71158,14.48336 4.719362,14.66553 4.731784,14.966851 4.549832,14.966851 4.164951,14.96675 4.165098,14.592701 4.165098,14.407361" style="fill: white" /><polygon type="contour" points="3.74845,14.590353 3.748437,14.966751 3.651284,14.966751 3.552918,14.966659 3.553189,14.5971 3.552937,14.407827 3.623731,14.410505 3.74845,14.405852" style="fill: white" /><polygon type="contour" points="3.748437,15.383264 3.748437,15.480415 3.748617,15.578784 3.6743,15.579112 3.552589,15.579112 3.552919,15.49477 3.552919,15.383085 3.636932,15.383085" style="fill: white" /><polygon type="contour" points="2.923868,15.383086 2.92433,15.4574 2.92433,15.579112 2.766208,15.578999 2.591472,15.578999 2.591472,15.486001 2.591484,15.383151 2.766209,15.383" style="fill: white" /><polygon type="contour" points="2.243378,15.489399 2.243471,15.578999 2.189636,15.579112 2.10096,15.579112 2.100743,15.49477 2.100651,15.383265 2.177987,15.383151 2.243378,15.383151" style="fill: white" /><polygon type="contour" points="2.168426,16.20773 2.243471,16.20773 2.243315,16.347337 2.243315,16.540116 2.100516,16.540116 2.100846,16.379171 2.10096,16.207372" style="fill: white" /><polygon type="contour" points="1.951146,16.888094 1.991884,16.888094 1.993259,16.888034 2.024372,16.888062 2.037628,16.88808 2.100516,16.888386 2.243315,16.888386 2.243315,17.031188 2.243622,17.094073 2.24364,17.10733 2.243668,17.138443 2.243609,17.180556 2.243777,17.182532 2.24382,17.221082 2.044827,17.221544 2.044032,17.221682 1.910161,17.221542 1.910161,17.190708 1.910646,16.973383 1.910562,16.887938" style="fill: white" />
</svg>
