<svg width="19.131698" height="19.131699">
<polygon type="contour" points="18.46179,15.848278 18.461964,15.969207 18.553727,15.969207 18.55517,15.969213 18.557112,15.969216 18.557112,15.975835 18.556766,16.123024 18.556766,18.402612 18.557108,18.555475 18.557108,18.55711 18.550007,18.557118 18.549965,18.55711 18.40261,18.556768 16.123023,18.556768 15.975835,18.557114 15.969215,18.557114 15.969211,18.554865 15.969207,18.553729 15.969207,18.461852 15.359365,18.461852 15.360001,18.42712 15.365966,18.387947 15.367427,18.274704 15.367427,15.816291 15.366652,15.66918 15.368977,15.419898 15.369042,15.375567 15.376085,15.376085 15.375563,15.369045 15.419895,15.368981 15.669176,15.366654 15.816289,15.367429 18.274699,15.367429 18.387945,15.365968 18.461786,15.364934" style="fill: white" /><polygon type="contour" points="18.557108,0.574594 18.557108,0.576229 18.556766,0.72909 18.556766,3.008679 18.557112,3.155867 18.557112,3.162488 18.554863,3.162492 18.553727,3.162497 18.461848,3.162497 18.461848,3.772337 18.387945,3.765735 18.2747,3.764276 15.81629,3.764276 15.669176,3.76505 15.419895,3.762722 15.375563,3.762658 15.376085,3.755618 15.369042,3.756137 15.368977,3.711805 15.366652,3.462523 15.367427,3.315412 15.367427,0.857 15.365966,0.743753 15.360001,0.704583 15.359365,0.66985 15.969207,0.66985 15.969207,0.577974 15.969211,0.576872 15.969216,0.574589 15.975835,0.574589 16.123023,0.574936 18.40261,0.574936 18.549965,0.574594 18.550007,0.574585" style="fill: white" /><polygon type="contour" points="0.581732,0.574594 0.72909,0.574936 3.008677,0.574936 3.155865,0.574589 3.162486,0.574589 3.16249,0.576838 3.162495,0.577974 3.162495,0.669737 3.283423,0.669912 3.766769,0.669912 3.765733,0.743754 3.764274,0.856999 3.764274,3.315411 3.765047,3.462524 3.762721,3.711805 3.762656,3.756136 3.755467,3.755468 3.756135,3.762658 3.711804,3.762722 3.462522,3.765049 3.31541,3.764276 0.856997,3.764276 0.743751,3.765736 0.669849,3.772337 0.669849,3.162497 0.577973,3.162497 0.576528,3.16249 0.574587,3.162488 0.574587,3.155867 0.574934,3.008679 0.574934,0.72909 0.574592,0.576229 0.574592,0.574593 0.58169,0.574585" style="fill: white" /><polygon type="contour" points="0.743751,15.365967 0.856998,15.367429 3.315411,15.367429 3.462521,15.366654 3.711804,15.368981 3.756135,15.369045 3.755615,15.376085 3.762656,15.375567 3.762721,15.419898 3.765047,15.669179 3.764274,15.816292 3.764274,18.274704 3.765733,18.387947 3.766769,18.46179 3.283423,18.46179 3.162495,18.461964 3.162495,18.553729 3.162488,18.555172 3.162486,18.557114 3.155865,18.557114 3.008677,18.556768 0.72909,18.556768 0.581732,18.55711 0.58169,18.557118 0.574592,18.55711 0.574592,18.555475 0.574934,18.402612 0.574934,16.123024 0.574587,15.975835 0.574587,15.969216 0.576836,15.969212 0.577973,15.969207 0.669737,15.969207 0.66991,15.848277 0.66991,15.364934" style="fill: white" />
</svg>
