<svg width="19.131698" height="19.131699">
<polygon type="contour" points="10.81971,8.479428 10.817503,8.590053 10.772583,8.590053 10.710803,8.589959 10.668751,8.590013 10.541689,8.590013 10.541689,8.539898 10.541134,8.389051 10.541203,8.384124 10.541203,8.349497 10.542201,8.31346 10.586544,8.314035 10.824394,8.307306" style="fill: white" /><polygon type="contour" points="9.757779,10.666703 9.756002,10.816497 9.755675,10.816503 9.654035,10.821135 9.5655,10.820933 9.376024,10.816503 9.375698,10.816497 9.375698,10.815709 9.375675,10.815167 9.371747,10.541315 9.757688,10.541315" style="fill: white" /><polygon type="contour" points="10.043811,10.577602 10.043811,10.650223 9.988156,10.649908 9.946393,10.649882 9.944098,10.600243 9.944098,10.541233 9.99107,10.541232 10.043738,10.540987" style="fill: white" /><polygon type="contour" points="10.043774,9.946474 10.043811,9.979516 10.043811,10.043813 10.00857,10.043776 9.946473,10.043776 9.946473,10.008573 9.946393,9.946395 9.990492,9.946395" style="fill: white" /><polygon type="contour" points="9.756682,9.756684 9.375016,9.756684 9.375016,9.375019 9.756682,9.375019" style="fill: white" /><polygon type="contour" points="9.75693,9.990493 9.756602,10.043776 9.375097,10.043776 9.374768,9.990494 9.374768,9.946395 9.75693,9.946395" style="fill: white" /><polygon type="contour" points="9.757102,10.312645 9.757019,10.360224 9.570593,10.360224 9.372405,10.360223 9.374597,10.312645 9.375097,10.256249 9.756602,10.256249" style="fill: white" /><polygon type="contour" points="9.979515,10.256325 10.043811,10.256325 10.043738,10.294473 10.043738,10.360416 10.006152,10.360417 9.944098,10.360416 9.944635,10.294473 9.946473,10.256249" style="fill: white" /><polygon type="contour" points="10.294472,10.256374 10.360414,10.256374 10.360414,10.294473 10.360221,10.360223 10.30443,10.360415 10.294471,10.360416 10.256372,10.360416 10.256323,10.325245 10.256323,10.256325" style="fill: white" /><polygon type="contour" points="10.360221,10.541397 10.360221,10.650272 10.294472,10.650371 10.256323,10.650224 10.256372,10.610471 10.256372,10.540987 10.294472,10.540987" style="fill: white" /><polygon type="contour" points="10.818651,10.577988 10.819351,10.594918 10.823934,10.640013 10.824394,10.824397 10.586543,10.817669 10.542201,10.818243 10.541251,10.787154 10.541203,10.782206 10.541134,10.742653 10.541134,10.694226 10.541689,10.541691 10.591803,10.541691 10.695823,10.541651 10.817503,10.541651" style="fill: white" /><polygon type="contour" points="10.650075,10.315291 10.65027,10.360223 10.541395,10.360223 10.541395,10.312137 10.540984,10.256374 10.5776,10.256325 10.650222,10.256325" style="fill: white" /><polygon type="contour" points="10.590498,9.944551 10.64988,9.946395 10.650189,10.008572 10.650221,10.043813 10.610469,10.043739 10.540984,10.043739 10.540984,10.007956 10.541312,9.94453" style="fill: white" /><polygon type="contour" points="10.360414,10.007956 10.360414,10.043739 10.325241,10.043813 10.256323,10.043813 10.256247,10.008572 10.256247,9.946474 10.294471,9.946439 10.360413,9.946352" style="fill: white" /><polygon type="contour" points="10.360221,9.759295 10.312643,9.757104 10.256247,9.756604 10.256247,9.375099 10.312642,9.374599 10.360221,9.372407" style="fill: white" /><polygon type="contour" points="10.590498,9.373922 10.815708,9.3757 10.816495,9.3757 10.816501,9.376026 10.819453,9.434618 10.820962,9.566202 10.819453,9.697245 10.816502,9.755677 10.816496,9.756004 10.815708,9.756004 10.590498,9.757781 10.541312,9.759954 10.541312,9.371749" style="fill: white" /><polygon type="contour" points="10.649906,9.143546 10.64988,9.185308 10.60024,9.185351 10.54123,9.185351 10.54123,9.140632 10.540984,9.087964 10.5776,9.087892 10.650222,9.087892" style="fill: white" /><polygon type="contour" points="10.650369,8.83723 10.650222,8.87538 10.610469,8.875331 10.540984,8.875331 10.540984,8.83723 10.541395,8.771481 10.65027,8.771481" style="fill: white" /><polygon type="contour" points="10.360505,8.540275 10.360505,8.59039 10.312653,8.59039 10.256372,8.590718 10.256323,8.554101 10.256323,8.481479 10.315288,8.481624 10.360221,8.481432" style="fill: white" /><polygon type="contour" points="10.360221,8.771481 10.360221,8.819565 10.360414,8.875331 10.325241,8.87538 10.256323,8.87538 10.256372,8.83723 10.256372,8.771286 10.294471,8.771286" style="fill: white" /><polygon type="contour" points="10.294472,9.087964 10.360414,9.087964 10.360414,9.123746 10.360413,9.185351 10.294471,9.185263 10.256247,9.185229 10.256323,9.152187 10.256323,9.087892" style="fill: white" /><polygon type="contour" points="10.043774,9.375099 10.043774,9.756604 9.990493,9.756932 9.946393,9.756932 9.946393,9.37477 9.990492,9.37477" style="fill: white" /><polygon type="contour" points="10.043774,9.123129 10.043774,9.185229 10.00857,9.185229 9.946393,9.185308 9.946393,9.14121 9.946473,9.087929 9.979516,9.087892 10.043811,9.087892" style="fill: white" /><polygon type="contour" points="9.75693,9.141211 9.75693,9.185308 9.374768,9.185308 9.374768,9.14121 9.375097,9.087929 9.756602,9.087929" style="fill: white" /><polygon type="contour" points="9.757102,8.819058 9.756602,8.875456 9.375097,8.875456 9.374597,8.819058 9.374681,8.771481 9.759293,8.771481" style="fill: white" /><polygon type="contour" points="10.043811,8.806457 10.043811,8.87538 10.00857,8.875456 9.946473,8.875456 9.946437,8.83723 9.94635,8.771289 9.991069,8.771289 10.043737,8.771286" style="fill: white" /><polygon type="contour" points="10.043738,8.521233 10.043738,8.590718 10.007954,8.590718 9.94635,8.590473 9.946393,8.541531 9.946393,8.481822 10.008571,8.481512 10.043811,8.481479" style="fill: white" /><polygon type="contour" points="9.566199,8.310772 9.755675,8.3152 9.756002,8.315206 9.756002,8.315994 9.756025,8.316537 9.759951,8.59039 9.374011,8.59039 9.373919,8.541203 9.375698,8.315995 9.375698,8.315207 9.376024,8.315201 9.477664,8.31057" style="fill: white" /><polygon type="contour" points="8.545156,8.314035 8.5895,8.31346 8.590449,8.344549 8.590498,8.349498 8.590567,8.389051 8.590567,8.437477 8.590012,8.590013 8.539897,8.590013 8.435877,8.590053 8.314197,8.590053 8.313048,8.553715 8.312348,8.536787 8.307764,8.491689 8.307305,8.307307" style="fill: white" /><polygon type="contour" points="8.590389,9.374013 8.590389,9.759954 8.541202,9.757781 8.315992,9.756004 8.315205,9.756004 8.315199,9.755677 8.312247,9.697085 8.310738,9.565501 8.312247,9.434458 8.315198,9.376026 8.315204,9.3757 8.315992,9.3757 8.541202,9.373922" style="fill: white" /><polygon type="contour" points="8.521231,9.087964 8.590717,9.087964 8.590717,9.125549 8.590389,9.189438 8.541202,9.187152 8.48182,9.185308 8.48151,9.123129 8.481477,9.087892" style="fill: white" /><polygon type="contour" points="8.590306,8.819565 8.590717,8.875331 8.5541,8.87538 8.481477,8.87538 8.481623,8.816412 8.48143,8.771481 8.590306,8.771481" style="fill: white" /><polygon type="contour" points="8.875378,8.806456 8.875378,8.87538 8.837228,8.875331 8.771284,8.875331 8.771284,8.837231 8.77148,8.771481 8.82727,8.771289 8.837229,8.771286 8.875329,8.771286" style="fill: white" /><polygon type="contour" points="8.875378,8.481479 8.875329,8.521234 8.875329,8.590718 8.837228,8.590718 8.77148,8.590308 8.77148,8.481432 8.837228,8.481332" style="fill: white" /><polygon type="contour" points="9.143544,8.481793 9.185305,8.481822 9.187603,8.53146 9.187603,8.590472 9.14063,8.590472 9.087962,8.590718 9.08789,8.5541 9.08789,8.481479" style="fill: white" /><polygon type="contour" points="9.187603,8.771289 9.187065,8.837231 9.185226,8.875456 9.152184,8.87538 9.08789,8.87538 9.087962,8.83723 9.087962,8.771286 9.125548,8.771286" style="fill: white" /><polygon type="contour" points="9.123127,9.087929 9.185226,9.087929 9.185226,9.12313 9.185305,9.185308 9.141208,9.185308 9.087927,9.185229 9.08789,9.152187 9.08789,9.087892" style="fill: white" /><polygon type="contour" points="8.875454,9.123129 8.875454,9.185228 8.837229,9.187067 8.771288,9.187605 8.771284,9.125549 8.771284,9.087964 8.806454,9.087892 8.875378,9.087892" style="fill: white" /><polygon type="contour" points="8.875454,9.375099 8.875454,9.756604 8.819057,9.757104 8.77148,9.759295 8.77148,9.374683 8.819057,9.374599" style="fill: white" /><polygon type="contour" points="9.185305,9.756932 9.141207,9.756932 9.087927,9.756604 9.087927,9.375099 9.141208,9.37477 9.185305,9.37477" style="fill: white" /><polygon type="contour" points="9.185305,9.990494 9.185226,10.043776 9.152185,10.043813 9.08789,10.043813 9.087927,10.008572 9.087927,9.946474 9.123128,9.946474 9.185305,9.946395" style="fill: white" /><polygon type="contour" points="9.18526,10.294473 9.185349,10.360415 9.140629,10.360416 9.087962,10.360417 9.08789,10.325244 9.08789,10.256325 9.123127,10.256249 9.185226,10.256249" style="fill: white" /><polygon type="contour" points="9.185349,10.541232 9.185305,10.590171 9.185305,10.649882 9.123127,10.650192 9.08789,10.650224 9.087962,10.610471 9.087962,10.540987 9.123744,10.540987" style="fill: white" /><polygon type="contour" points="8.875378,10.577603 8.875378,10.650224 8.816412,10.650078 8.77148,10.650272 8.77148,10.541397 8.819564,10.541397 8.875329,10.540987" style="fill: white" /><polygon type="contour" points="8.875329,10.294474 8.875329,10.360416 8.837229,10.360416 8.77148,10.360223 8.77148,10.312137 8.771284,10.256374 8.806454,10.256325 8.875378,10.256325" style="fill: white" /><polygon type="contour" points="8.837229,9.946439 8.875454,9.946474 8.875378,9.979516 8.875378,10.043813 8.837229,10.043739 8.771284,10.043739 8.771284,10.007956 8.771288,9.946352" style="fill: white" /><polygon type="contour" points="8.590471,9.99107 8.590717,10.043739 8.5541,10.043813 8.481477,10.043813 8.481792,9.988157 8.48182,9.946395 8.531459,9.946352 8.590471,9.946352" style="fill: white" /><polygon type="contour" points="8.521232,10.256374 8.590717,10.256374 8.590717,10.294474 8.590389,10.360507 8.540274,10.360507 8.481429,10.360223 8.48133,10.294474 8.481477,10.256325" style="fill: white" /><polygon type="contour" points="8.539897,10.541691 8.590012,10.541691 8.590012,10.591804 8.590566,10.742653 8.590498,10.747578 8.590498,10.782206 8.5895,10.818244 8.545157,10.81767 8.307306,10.824397 8.311989,10.652275 8.314197,10.541651 8.435877,10.541651" style="fill: white" />
</svg>
