<svg width="19.131698" height="19.131699">
<polygon type="contour" points="9.571623,9.396108 9.59075,9.397442 9.59764,9.398209 9.602233,9.399739 9.621806,9.404631 9.62742,9.406418 9.641242,9.412201 9.641687,9.412646 9.650324,9.416965 9.654341,9.418737 9.663675,9.424991 9.671835,9.431101 9.676736,9.434219 9.680745,9.436893 9.687179,9.447149 9.694921,9.451906 9.699003,9.456752 9.70345,9.46298 9.70932,9.471657 9.719106,9.489894 9.720442,9.493899 9.72478,9.503084 9.729226,9.516874 9.731779,9.526826 9.733114,9.533498 9.733369,9.537836 9.735592,9.55118 9.735289,9.56257 9.735289,9.566201 9.735107,9.569833 9.735658,9.575098 9.735402,9.580967 9.734382,9.586836 9.731267,9.606853 9.730247,9.611957 9.728716,9.615529 9.722934,9.632877 9.720893,9.638747 9.71885,9.641809 9.710845,9.657378 9.708549,9.66146 9.704976,9.666308 9.698748,9.675206 9.689375,9.683204 9.686469,9.686836 9.683201,9.689378 9.676735,9.697475 9.674438,9.699516 9.666017,9.70513 9.651781,9.714471 9.633543,9.722477 9.624357,9.72656 9.614662,9.729111 9.595089,9.734005 9.587081,9.73445 9.579426,9.73496 9.57004,9.734928 9.5655,9.735292 9.561141,9.734929 9.554824,9.735215 9.548954,9.734959 9.540948,9.734516 9.53508,9.733495 9.52921,9.732218 9.509193,9.727326 9.503833,9.725028 9.498476,9.722732 9.484685,9.716504 9.479348,9.713837 9.471694,9.709244 9.46769,9.70702 9.465392,9.704977 9.455607,9.698305 9.448135,9.689197 9.445047,9.686654 9.442142,9.682841 9.435569,9.677889 9.428934,9.669469 9.423595,9.66146 9.418747,9.652784 9.410295,9.637216 9.404489,9.619829 9.400932,9.610176 9.397829,9.592378 9.396297,9.583191 9.39585,9.572071 9.39641,9.566201 9.396592,9.561479 9.396298,9.548512 9.397318,9.542641 9.400425,9.523934 9.401441,9.518855 9.40449,9.511234 9.410295,9.494298 9.41208,9.490471 9.416086,9.483352 9.419147,9.47825 9.423151,9.470244 9.429378,9.461347 9.432951,9.456498 9.436013,9.452926 9.442323,9.448498 9.445228,9.444867 9.448497,9.442324 9.451138,9.437801 9.457263,9.432188 9.471498,9.422847 9.479918,9.417232 9.495486,9.410116 9.504919,9.406029 9.508927,9.404691 9.524075,9.401128 9.533497,9.398588 9.53809,9.398333 9.54921,9.396999 9.564459,9.396712 9.568307,9.395598" style="fill: white" />
</svg>
