<svg width="19.131698" height="19.131699">
<polygon type="contour" points="7.976105,13.219644 7.975748,13.245409 7.974918,13.304155 7.915348,13.303467 7.888948,13.303239 7.835491,13.304594 7.68175,13.30529 7.68175,13.253321 7.682035,13.120998 7.682035,13.009464 7.8625,13.009464 7.972775,13.009439" style="fill: white" /><polygon type="contour" points="7.870094,11.157231 7.920165,11.161268 7.970821,11.160878 7.974469,11.261605 7.975277,11.295243 7.972664,11.449952 7.68175,11.449952 7.68175,11.159038 7.836457,11.156424" style="fill: white" /><polygon type="contour" points="7.976159,12.079758 7.976069,12.140259 7.739022,12.140259 7.681812,12.140361 7.681695,11.967743 7.681695,11.858616 7.97563,11.858616" style="fill: white" /><polygon type="contour" points="7.97551,12.499174 7.975568,12.569067 7.779135,12.569067 7.682001,12.569063 7.681812,12.402017 7.681812,12.356303 7.913752,12.356303 7.976069,12.356252" style="fill: white" /><polygon type="contour" points="7.272892,12.356303 7.272892,12.402017 7.272676,12.569063 7.051943,12.569651 6.991389,12.569662 6.991389,12.399419 6.991443,12.356252 7.217254,12.356252" style="fill: white" /><polygon type="contour" points="7.272892,12.079759 7.272892,12.140361 7.051942,12.140361 6.991443,12.140259 6.991443,11.914447 6.991341,11.858811 7.163957,11.858616 7.273086,11.858616" style="fill: white" /><polygon type="contour" points="6.775399,12.079759 6.77545,12.140259 6.604125,12.140259 6.562037,12.140313 6.562049,12.079759 6.562639,11.859026 6.729684,11.858811 6.775399,11.858811" style="fill: white" /><polygon type="contour" points="6.77545,12.527574 6.775396,12.569662 6.633928,12.569067 6.562634,12.569067 6.562037,12.399418 6.562037,12.356306 6.732281,12.356306 6.77545,12.356252" style="fill: white" /><polygon type="contour" points="7.051942,13.007323 7.273086,13.007789 7.273086,13.128236 7.051942,13.12837 6.991443,13.128482 6.991443,13.030744 6.991389,13.007277" style="fill: white" /><polygon type="contour" points="6.775396,13.104398 6.77545,13.128482 6.632527,13.128839 6.562634,13.128878 6.562634,13.066856 6.574505,13.074396 6.601219,13.037807 6.612274,13.02443 6.612345,13.007922 6.633927,13.008016 6.775396,13.007277" style="fill: white" /><polygon type="contour" points="6.079613,13.009411 6.122289,13.009411 6.122289,13.114592 6.122064,13.305407 5.878959,13.303977 5.825923,13.305779 5.827594,13.255328 5.828555,13.18692 5.826625,13.009514 5.890977,13.008376 5.898387,13.008168" style="fill: white" /><polygon type="contour" points="6.124425,12.356306 6.123685,12.497773 6.123685,12.569067 6.002823,12.569067 6.002863,12.499173 6.003219,12.356252 6.100957,12.356252" style="fill: white" /><polygon type="contour" points="6.124378,12.079758 6.124425,12.140313 6.027301,12.140313 6.003219,12.140259 6.003267,11.960592 6.003466,11.858616 6.123914,11.858616" style="fill: white" /><polygon type="contour" points="6.122147,11.159134 6.122289,11.345905 6.122265,11.449874 6.077806,11.449874 6.039785,11.449909 5.918123,11.449909 5.878382,11.449952 5.826413,11.449952 5.827108,11.296211 5.828649,11.241464 5.828448,11.215365 5.827794,11.156864 5.885463,11.156043 5.910902,11.155683" style="fill: white" /><polygon type="contour" points="6.77545,11.155633 6.77545,11.392679 6.775399,11.449891 6.729685,11.449891 6.562639,11.449699 6.562639,11.258197 6.562634,11.156133 6.732282,11.155602" style="fill: white" /><polygon type="contour" points="7.171108,11.156257 7.273086,11.156073 7.273086,11.450006 7.051942,11.449891 6.991341,11.449891 6.991341,11.21795 6.991443,11.155633" style="fill: white" /><polygon type="contour" points="7.273086,7.16396 7.273086,7.273088 7.051943,7.272893 6.991341,7.272893 6.991341,7.051944 6.991443,6.991445 7.217255,6.991445 7.272892,6.991343" style="fill: white" /><polygon type="contour" points="7.976069,6.991444 7.975443,7.171111 7.97563,7.273088 7.681695,7.273088 7.681812,7.051944 7.681812,6.991343 7.913753,6.991343" style="fill: white" /><polygon type="contour" points="7.976101,6.732283 7.976069,6.775452 7.739022,6.775452 7.681812,6.775402 7.681812,6.729686 7.682001,6.562641 7.873504,6.562641 7.975568,6.562636" style="fill: white" /><polygon type="contour" points="7.835491,5.827109 7.890235,5.828651 7.916333,5.82845 7.974836,5.827796 7.975656,5.885465 7.976017,5.910904 7.972566,6.122148 7.787277,6.122262 7.682035,6.12224 7.682035,6.077253 7.681794,6.039787 7.681794,5.918125 7.68175,5.878382 7.68175,5.826415" style="fill: white" /><polygon type="contour" points="6.122065,5.826298 6.122065,5.882643 6.122289,6.01711 6.122289,6.122291 5.946344,6.123533 5.898387,6.123533 5.890977,6.123324 5.826625,6.122187 5.828555,5.944781 5.825923,5.825925 5.878959,5.827726 5.979621,5.816728" style="fill: white" /><polygon type="contour" points="6.632527,6.002865 6.77545,6.00322 6.77545,6.100958 6.775396,6.124427 6.633928,6.123687 6.562634,6.123687 6.562634,6.002826" style="fill: white" /><polygon type="contour" points="7.171109,6.00327 7.273086,6.003469 7.273086,6.123914 7.051942,6.12438 6.991389,6.124427 6.991389,6.027302 6.991443,6.00322" style="fill: white" /><polygon type="contour" points="7.051942,6.562051 7.272676,6.562641 7.272892,6.729686 7.272892,6.775402 7.051943,6.775402 6.991443,6.775452 6.991443,6.604127 6.991389,6.562039" style="fill: white" /><polygon type="contour" points="6.77545,6.991445 6.77545,7.217257 6.775399,7.272893 6.729685,7.272893 6.562639,7.272678 6.562049,7.051944 6.562037,6.991391 6.732281,6.991391" style="fill: white" /><polygon type="contour" points="6.775396,6.732283 6.77545,6.775452 6.604125,6.775452 6.562037,6.775398 6.562634,6.633929 6.562634,6.562636 6.732282,6.562039 6.775396,6.562039" style="fill: white" /><polygon type="contour" points="6.123685,6.63393 6.124425,6.775398 6.027301,6.775398 6.003219,6.775452 6.002863,6.63253 6.002823,6.562636 6.123685,6.562636" style="fill: white" /><polygon type="contour" points="6.124378,7.051944 6.123914,7.273088 6.003466,7.273088 6.00333,7.051944 6.003219,6.991445 6.100957,6.991445 6.124425,6.991391" style="fill: white" /><polygon type="contour" points="6.012038,7.68183 6.122265,7.68183 6.122265,7.863593 6.122289,7.972571 5.912056,7.976107 5.88629,7.975749 5.827546,7.974919 5.828461,7.888948 5.827108,7.835492 5.826413,7.681751 5.878382,7.681751" style="fill: white" /><polygon type="contour" points="6.775399,7.913753 6.77545,7.97607 6.732282,7.976102 6.562634,7.975571 6.562634,7.779136 6.562639,7.682003 6.729684,7.681813 6.775399,7.681813" style="fill: white" /><polygon type="contour" points="7.273086,7.975631 7.171108,7.975445 6.991443,7.97607 6.991443,7.739023 6.991341,7.681813 7.163957,7.681697 7.273086,7.681697" style="fill: white" /><polygon type="contour" points="7.975278,7.83646 7.97447,7.870096 7.970432,7.920166 7.970822,7.970824 7.725777,7.966954 7.68195,7.972817 7.68195,7.834456 7.68175,7.681751 7.972664,7.681751" style="fill: white" /><polygon type="contour" points="13.304592,7.835492 13.303051,7.890237 13.303906,7.974836 13.246235,7.975659 13.220798,7.976019 13.009551,7.972568 13.00941,7.785798 13.009435,7.68183 13.053893,7.68183 13.091913,7.681795 13.213575,7.681795 13.253319,7.681751 13.305287,7.681751" style="fill: white" /><polygon type="contour" points="13.304105,5.876375 13.303146,5.944782 13.305076,6.122187 13.240722,6.123324 13.233312,6.123533 13.052086,6.122291 13.00941,6.122291 13.009411,6.079616 13.00941,6.017111 13.009634,5.826298 13.252741,5.827726 13.305777,5.825925" style="fill: white" /><polygon type="contour" points="13.128838,6.632529 13.12848,6.775452 13.030742,6.775452 13.007275,6.775398 13.008014,6.633929 13.008014,6.562636 13.128877,6.562636" style="fill: white" /><polygon type="contour" points="13.12848,6.991445 13.128433,7.171111 13.128234,7.273088 13.007787,7.273088 13.007322,7.051944 13.007275,6.991391 13.104397,6.991391" style="fill: white" /><polygon type="contour" points="11.450005,7.163959 11.450005,7.273088 11.156071,7.273088 11.156256,7.171111 11.15563,6.991445 11.392676,6.991445 11.449889,6.991343" style="fill: white" /><polygon type="contour" points="11.449697,6.562641 11.449889,6.729687 11.449889,6.775402 11.217947,6.775402 11.15563,6.775452 11.1556,6.732284 11.156132,6.562636 11.352563,6.562636" style="fill: white" /><polygon type="contour" points="11.44995,5.878382 11.449665,6.010706 11.449665,6.12224 11.269198,6.12224 11.158925,6.122263 11.155595,5.912059 11.155952,5.886293 11.156783,5.827549 11.242753,5.828464 11.296208,5.827108 11.44995,5.826415" style="fill: white" /><polygon type="contour" points="12.140257,6.100958 12.140311,6.124427 12.079757,6.12438 11.858614,6.123914 11.858614,6.003469 11.96059,6.00327 12.140257,6.00322" style="fill: white" /><polygon type="contour" points="12.569066,6.123687 12.497771,6.123687 12.356304,6.124427 12.356304,6.027302 12.35625,6.00322 12.499173,6.002865 12.569066,6.002826" style="fill: white" /><polygon type="contour" points="12.497772,6.562636 12.569066,6.562636 12.56966,6.732284 12.56966,6.775398 12.399418,6.775398 12.35625,6.775452 12.35625,6.604127 12.356304,6.562039" style="fill: white" /><polygon type="contour" points="12.140311,6.732283 12.140257,6.775452 11.914445,6.775452 11.858808,6.775402 11.858808,6.729687 11.859025,6.562641 12.079757,6.562051 12.140311,6.562039" style="fill: white" /><polygon type="contour" points="12.140257,6.991445 12.140257,7.217256 12.140359,7.272893 11.967742,7.273088 11.858614,7.273088 11.858808,7.051944 11.858808,6.991343 12.079757,6.991343" style="fill: white" /><polygon type="contour" points="12.569648,7.051944 12.569061,7.272678 12.402014,7.272893 12.356301,7.272893 12.356301,7.051944 12.35625,6.991445 12.527571,6.991445 12.56966,6.991391" style="fill: white" /><polygon type="contour" points="12.569061,7.682003 12.569061,7.873506 12.569066,7.975571 12.399417,7.976102 12.35625,7.97607 12.35625,7.739023 12.356301,7.681813 12.402015,7.681813" style="fill: white" /><polygon type="contour" points="12.079757,7.681813 12.140359,7.681813 12.140359,7.913754 12.140257,7.97607 11.960591,7.975445 11.858614,7.975631 11.858614,7.681697" style="fill: white" /><polygon type="contour" points="11.44995,7.972665 11.295241,7.975279 11.160877,7.970824 11.164746,7.725779 11.158883,7.681952 11.297244,7.681952 11.44995,7.681751" style="fill: white" /><polygon type="contour" points="11.44975,11.297247 11.44995,11.449952 11.159035,11.449952 11.156421,11.295243 11.160877,11.160878 11.405923,11.164748 11.44975,11.158885" style="fill: white" /><polygon type="contour" points="11.449889,12.079759 11.449889,12.140361 11.217947,12.140361 11.15563,12.140258 11.156256,11.960592 11.156071,11.858616 11.450004,11.858616" style="fill: white" /><polygon type="contour" points="11.449889,12.356303 11.449889,12.402016 11.449697,12.569063 11.258195,12.569063 11.156132,12.569067 11.1556,12.399418 11.15563,12.356252 11.392677,12.356252" style="fill: white" /><polygon type="contour" points="11.449665,13.009463 11.449665,13.05445 11.449907,13.091915 11.449907,13.213579 11.44995,13.253321 11.44995,13.30529 11.296208,13.304593 11.241463,13.303053 11.156863,13.303908 11.156042,13.246238 11.155681,13.220799 11.159133,13.009553 11.344423,13.009439" style="fill: white" /><polygon type="contour" points="12.497772,13.008016 12.569066,13.008016 12.569066,13.128878 12.499173,13.128839 12.35625,13.128482 12.35625,13.030744 12.356304,13.007277" style="fill: white" /><polygon type="contour" points="12.140311,13.104398 12.140257,13.128482 11.960591,13.128435 11.858614,13.128236 11.858614,13.007789 12.079757,13.007323 12.140311,13.007277" style="fill: white" /><polygon type="contour" points="12.140257,12.527574 12.140311,12.569662 12.079756,12.569651 11.859025,12.569063 11.858808,12.402016 11.858808,12.356303 12.079757,12.356303 12.140257,12.356252" style="fill: white" /><polygon type="contour" points="12.56966,12.356306 12.569066,12.497773 12.569066,12.569067 12.399418,12.569662 12.356304,12.569662 12.356304,12.399419 12.35625,12.356252 12.527571,12.356252" style="fill: white" /><polygon type="contour" points="13.245408,11.155954 13.304154,11.156785 13.303467,11.216353 13.303238,11.242755 13.304592,11.296211 13.305287,11.449952 13.253318,11.449952 13.119661,11.449874 13.009435,11.449874 13.009435,11.26811 13.00941,11.159133 13.219643,11.155597" style="fill: white" /><polygon type="contour" points="12.499172,11.15619 12.569066,11.156133 12.569066,11.352564 12.569061,11.449699 12.402014,11.449891 12.356301,11.449891 12.356301,11.21795 12.35625,11.155633" style="fill: white" /><polygon type="contour" points="12.140257,11.392678 12.140359,11.449891 11.967742,11.450007 11.858614,11.450007 11.858614,11.156073 11.960591,11.156257 12.140257,11.155633" style="fill: white" /><polygon type="contour" points="12.079756,11.858811 12.140359,11.858811 12.140359,12.079759 12.140257,12.140259 11.914444,12.140259 11.858808,12.140361 11.858614,11.967743 11.858614,11.858616" style="fill: white" /><polygon type="contour" points="12.569061,11.859027 12.569648,12.079758 12.56966,12.140313 12.399418,12.140313 12.35625,12.140259 12.35625,11.914448 12.356301,11.858811 12.402015,11.858811" style="fill: white" /><polygon type="contour" points="13.128433,11.960592 13.12848,12.140258 13.030741,12.140259 13.007275,12.140313 13.007322,12.079759 13.007787,11.858616 13.128234,11.858616" style="fill: white" /><polygon type="contour" points="13.128838,12.499174 13.128877,12.569067 13.008014,12.569067 13.008014,12.497774 13.007275,12.356306 13.104396,12.356304 13.12848,12.356251" style="fill: white" /><polygon type="contour" points="13.240722,13.008376 13.305076,13.009515 13.303146,13.18692 13.305777,13.305779 13.252741,13.303977 13.152077,13.314976 13.009634,13.305407 13.009634,13.249059 13.00941,13.114593 13.00941,13.052087 13.009411,13.009412 13.185354,13.008168 13.233312,13.008168" style="fill: white" />
</svg>
