<svg width="19.131698" height="19.131699">
<polygon type="contour" points="16.625289,13.824415 16.625299,13.943363 16.62551,14.044724 16.625245,14.132779 16.72082,14.132922 16.72082,14.3021 16.720434,14.465737 16.663572,14.465533 16.603175,14.465796 16.558593,14.465474 16.539818,14.465819 16.530775,14.465857 16.403823,14.465857 16.38799,14.465792 16.387942,14.357924 16.387968,14.279541 16.387426,13.652718 16.415909,13.653975 16.625022,13.642538" style="fill: white" /><polygon type="contour" points="16.135541,13.647707 16.135541,13.691732 16.135462,14.46589 16.081139,14.465746 15.939543,14.465746 15.93987,13.694585 15.93987,13.644203 15.952827,13.64323" style="fill: white" /><polygon type="contour" points="15.986865,14.649747 16.135462,14.649747 16.135347,14.742028 16.135171,14.982082 16.06779,14.982082 15.939618,14.982084 15.939618,14.841658 15.939543,14.64974" style="fill: white" /><polygon type="contour" points="16.530347,14.865176 16.530451,14.982084 16.470141,14.982084 16.387547,14.982082 16.387454,14.888666 16.387899,14.6498 16.530699,14.6498" style="fill: white" /><polygon type="contour" points="16.135305,16.530294 16.06779,16.530349 15.939618,16.530453 15.939618,16.470143 15.939871,16.387549 15.999429,16.387493 16.135305,16.387493" style="fill: white" /><polygon type="contour" points="16.720435,16.387235 16.720316,16.506953 16.7207,16.678918 16.7207,16.720703 16.539287,16.720893 16.538211,16.720707 16.387154,16.720357 16.38745,16.663574 16.38745,16.606499 16.387368,16.60457 16.387406,16.560978 16.387434,16.542405 16.387492,16.530293 16.387492,16.387494 16.530292,16.387494 16.542403,16.387434 16.560976,16.387409 16.604569,16.38737 16.663573,16.387452 16.666341,16.387217" style="fill: white" /><polygon type="contour" points="16.530392,16.013538 16.530292,16.135306 16.387492,16.135306 16.387547,16.067792 16.387547,15.939872 16.436814,15.939872 16.530451,15.939621" style="fill: white" /><polygon type="contour" points="16.135171,15.939872 16.135305,15.999431 16.135305,16.135306 16.06779,16.135173 15.939871,16.135173 15.939871,16.067792 15.939618,15.939621 16.0221,15.939621" style="fill: white" /><polygon type="contour" points="14.982082,15.939621 14.982082,16.022103 14.98208,16.135173 14.742025,16.13535 14.649744,16.135464 14.649738,16.081141 14.649738,15.939544 14.742026,15.939544" style="fill: white" /><polygon type="contour" points="14.98208,16.436815 14.982082,16.530452 14.865173,16.530349 14.649797,16.530702 14.649797,16.387901 14.742026,16.387944 14.98208,16.387549" style="fill: white" /><polygon type="contour" points="14.319683,16.387846 14.358948,16.38793 14.465789,16.387991 14.465789,16.514266 14.465855,16.530779 14.465817,16.539821 14.465473,16.558598 14.465793,16.603177 14.465533,16.606499 14.465533,16.663575 14.465715,16.666344 14.465735,16.720437 14.302099,16.720822 14.132921,16.720822 14.132744,16.625387 14.051472,16.625441 13.665225,16.625195 13.667011,16.604392 13.647512,16.387397" style="fill: white" /><polygon type="contour" points="14.465887,15.986867 14.465887,16.135463 13.691727,16.135545 13.647704,16.135545 13.648794,16.11852 13.643671,15.939887 14.28239,15.939597 14.465743,15.939544" style="fill: white" /><polygon type="contour" points="14.278085,14.64971 14.465855,14.6498 14.465855,14.908507 14.465743,14.982241 14.287965,14.982241 14.176449,14.98193 13.6558,14.982102 13.65341,14.951036 13.658413,14.649028" style="fill: white" /><polygon type="contour" points="14.982239,14.742028 14.982081,14.982084 14.841655,14.982084 14.649738,14.982241 14.649797,14.908506 14.649797,14.6498 14.742025,14.64974 14.982239,14.64974" style="fill: white" /><polygon type="contour" points="14.981363,13.659391 14.981363,13.72077 14.982239,14.465746 14.908504,14.465857 14.649797,14.465857 14.649797,14.331783 14.649423,13.671276 14.957105,13.657886" style="fill: white" /><polygon type="contour" points="14.46561,13.651975 14.465883,14.336992 14.465812,14.359413 14.465855,14.465857 14.358141,14.465885 14.29957,14.465743 13.656495,14.465644 13.670008,14.098269 13.670517,14.078763 13.833574,14.077577 13.861823,14.077423 13.865265,14.07737 13.866374,14.077499 13.952398,14.075888 13.961224,14.075458 13.997652,14.073367 14.006074,14.072089 14.020955,14.071869 14.070777,14.070778 14.071868,14.020957 14.072087,14.006075 14.073365,13.997655 14.075456,13.961225 14.075887,13.952401 14.077496,13.866377 14.077367,13.865267 14.07742,13.861825 14.077575,13.833575 14.07876,13.670522 14.41867,13.654781 14.438494,13.651395" style="fill: white" /><polygon type="contour" points="14.465735,2.411267 14.465533,2.468127 14.465793,2.528526 14.465473,2.573105 14.465817,2.591883 14.465855,2.600923 14.465855,2.727876 14.465789,2.743711 14.358948,2.743772 14.319683,2.743856 13.647512,2.744307 13.666811,2.528266 13.664922,2.506359 14.051471,2.506261 14.132778,2.506313 14.132921,2.410882 14.302099,2.410882" style="fill: white" /><polygon type="contour" points="14.465887,2.99624 14.465887,3.144836 14.465743,3.192159 14.287965,3.192159 14.28239,3.192108 13.643671,3.191817 13.642574,3.178872 13.647704,2.996158 13.691728,2.996158" style="fill: white" /><polygon type="contour" points="14.742025,2.996352 14.98208,2.99653 14.98208,3.063911 14.982082,3.192082 14.841655,3.192082 14.649738,3.192159 14.649744,3.144835 14.649744,2.99624" style="fill: white" /><polygon type="contour" points="14.982082,2.60125 14.982082,2.661559 14.982079,2.744155 14.888664,2.744248 14.649797,2.743801 14.649797,2.601001 14.742026,2.600958" style="fill: white" /><polygon type="contour" points="16.013537,2.60131 16.135305,2.601411 16.135305,2.74421 16.067791,2.744155 15.939871,2.744155 15.939871,2.694887 15.939618,2.60125" style="fill: white" /><polygon type="contour" points="16.7207,2.411001 16.7207,2.452786 16.720316,2.624751 16.720435,2.744468 16.663572,2.744251 16.606497,2.744251 16.604569,2.744334 16.560976,2.744295 16.542403,2.744269 16.530292,2.74421 16.387493,2.74421 16.387493,2.623137 16.387492,2.60141 16.387434,2.589298 16.387407,2.570725 16.387368,2.527132 16.387451,2.468127 16.387215,2.465361 16.387154,2.411347 16.538212,2.410996 16.539288,2.410811" style="fill: white" /><polygon type="contour" points="16.530345,3.06391 16.530451,3.192082 16.47014,3.192082 16.387547,3.19183 16.387492,3.132271 16.387492,2.996398 16.530292,2.996398" style="fill: white" /><polygon type="contour" points="16.135171,3.06391 16.135171,3.19183 16.067791,3.19183 15.939618,3.192082 15.939618,3.109599 15.939871,2.99653 15.99943,2.996398 16.135305,2.996398" style="fill: white" /><polygon type="contour" points="16.135462,4.815473 16.135305,5.483695 15.952827,5.488475 15.93987,5.487501 15.93987,5.437118 15.939542,4.665959 15.986865,4.665814 16.135462,4.665814" style="fill: white" /><polygon type="contour" points="16.539818,4.665884 16.558594,4.666229 16.603174,4.665909 16.606497,4.66617 16.663572,4.66617 16.66634,4.665986 16.720434,4.665968 16.72082,4.829603 16.72082,4.998781 16.625383,4.998958 16.625515,5.079989 16.625357,5.466812 16.597732,5.463666 16.387585,5.478847 16.387968,4.852161 16.387942,4.77378 16.38799,4.665912 16.514261,4.665912 16.530776,4.665847" style="fill: white" /><polygon type="contour" points="16.530347,4.266527 16.530699,4.481904 16.387899,4.481904 16.387454,4.243036 16.387547,4.149621 16.436813,4.149621 16.530451,4.149619" style="fill: white" /><polygon type="contour" points="16.135171,4.149621 16.135347,4.389675 16.135462,4.481956 16.081139,4.481964 15.939543,4.481964 15.939543,4.389674 15.939618,4.149619 16.0221,4.149619" style="fill: white" /><polygon type="contour" points="14.982082,4.149619 14.982082,4.290046 14.982239,4.481964 14.908504,4.481904 14.649797,4.481904 14.649738,4.389674 14.649738,4.149463 14.742026,4.149463" style="fill: white" /><polygon type="contour" points="14.465855,4.223198 14.465855,4.481904 14.331781,4.481904 14.278086,4.481994 13.658413,4.482675 13.660608,4.429474 13.655799,4.1496 14.176448,4.149775 14.465743,4.149463" style="fill: white" /><polygon type="contour" points="14.742026,4.665959 14.982239,4.665959 14.981363,5.410931 14.981363,5.472311 14.657071,5.460146 14.649423,5.460428 14.649423,5.450046 14.649797,4.665847" style="fill: white" /><polygon type="contour" points="14.465855,4.665847 14.465812,4.77229 14.465883,4.794711 14.46561,5.479729 14.438494,5.480309 14.41867,5.476922 14.078761,5.461182 14.077495,5.265324 14.075887,5.179301 14.075456,5.170477 14.073365,5.134048 14.072087,5.125627 14.071868,5.110745 14.070777,5.060937 14.020956,5.059834 14.006074,5.059613 13.997652,5.058336 13.952398,5.055812 13.866375,5.054204 13.865265,5.054334 13.861823,5.05428 13.833574,5.054125 13.670519,5.052939 13.657876,4.714397 13.656495,4.666059 14.29957,4.665961 14.358141,4.665819" style="fill: white" /><polygon type="contour" points="4.481903,4.799919 4.482275,5.460428 4.174594,5.473816 4.150337,5.472311 4.150337,5.410931 4.149462,4.665959 4.223197,4.665847 4.481903,4.665847" style="fill: white" /><polygon type="contour" points="4.832129,4.665961 5.475204,4.666059 5.461688,5.033433 5.46118,5.052939 5.265322,5.054204 5.1793,5.055813 5.170475,5.056245 5.134045,5.058336 5.125625,5.059613 5.110743,5.059834 5.060947,5.060937 5.059831,5.110744 5.059611,5.125627 5.058333,5.134048 5.056241,5.170477 5.055811,5.179301 5.054201,5.265325 5.054332,5.266436 5.054278,5.269876 5.054123,5.298127 5.052937,5.461182 4.713027,5.476922 4.693203,5.480309 4.666088,5.479729 4.665817,4.794711 4.665886,4.77229 4.665845,4.665847 4.773558,4.665819" style="fill: white" /><polygon type="contour" points="4.481903,4.223198 4.481903,4.481904 4.389673,4.481964 4.149462,4.481964 4.149462,4.389675 4.149617,4.149619 4.290043,4.149619 4.481962,4.149463" style="fill: white" /><polygon type="contour" points="4.955251,4.149775 5.4759,4.149601 5.478291,4.180667 5.473286,4.482676 4.853613,4.481995 4.665845,4.481904 4.665845,4.223198 4.665957,4.149463 4.843734,4.149463" style="fill: white" /><polygon type="contour" points="5.482905,3.013182 5.48803,3.191817 4.849308,3.192108 4.665957,3.192159 4.665812,3.144836 4.665812,2.99624 5.439969,2.996158 5.483994,2.996158" style="fill: white" /><polygon type="contour" points="4.998956,2.506451 5.086978,2.506189 5.188337,2.5064 5.307286,2.506412 5.489163,2.50668 5.491812,2.521225 5.484187,2.744307 4.812015,2.743856 4.772751,2.743772 4.665911,2.743711 4.665911,2.617437 4.665845,2.600923 4.665882,2.591883 4.666228,2.573105 4.665908,2.528526 4.666168,2.525205 4.666168,2.468128 4.665984,2.465361 4.665966,2.411266 4.829599,2.410882 4.998779,2.410882" style="fill: white" /><polygon type="contour" points="4.481962,3.050561 4.481962,3.192159 4.389672,3.192159 4.149617,3.192082 4.149617,3.109599 4.14962,2.99653 4.389673,2.996352 4.481955,2.99624" style="fill: white" /><polygon type="contour" points="4.481903,2.743801 4.389672,2.743758 4.14962,2.744155 4.14962,2.694886 4.149617,2.60125 4.266525,2.601354 4.481903,2.601001" style="fill: white" /><polygon type="contour" points="2.593487,2.410996 2.744546,2.411347 2.74425,2.468128 2.74425,2.525206 2.744332,2.527131 2.744294,2.570724 2.744268,2.589298 2.744209,2.601411 2.744209,2.74421 2.601408,2.74421 2.589297,2.744269 2.570723,2.744294 2.52713,2.744334 2.468127,2.744251 2.465358,2.744487 2.411265,2.744468 2.411383,2.624751 2.410999,2.452786 2.410999,2.411001 2.592409,2.410811" style="fill: white" /><polygon type="contour" points="3.192081,2.66156 3.191828,2.744155 3.13227,2.74421 2.996396,2.74421 2.996396,2.60141 3.063908,2.601355 3.192081,2.60125" style="fill: white" /><polygon type="contour" points="3.063908,2.99653 3.191828,2.99653 3.191828,3.06391 3.192081,3.192082 3.109598,3.192082 2.996529,3.19183 2.996396,3.132271 2.996396,2.996398" style="fill: white" /><polygon type="contour" points="2.744154,3.06391 2.744154,3.19183 2.694886,3.19183 2.601248,3.192082 2.601309,3.118164 2.601409,2.996398 2.744209,2.996398" style="fill: white" /><polygon type="contour" points="2.744154,4.149621 2.744247,4.243036 2.743799,4.481904 2.601,4.481904 2.601351,4.266527 2.601248,4.149619 2.661557,4.149619" style="fill: white" /><polygon type="contour" points="3.192081,4.290046 3.192158,4.481964 3.144835,4.481957 2.996237,4.481957 2.996351,4.389675 2.996529,4.149621 3.063909,4.149621 3.192081,4.149619" style="fill: white" /><polygon type="contour" points="3.050558,4.665959 3.192158,4.665959 3.191829,5.437119 3.191829,5.487501 3.178872,5.488475 2.996156,5.483995 2.996156,5.439972 2.996237,4.665814" style="fill: white" /><polygon type="contour" points="2.743709,4.665912 2.743757,4.773781 2.743731,4.852162 2.744116,5.478847 2.533967,5.463666 2.506342,5.466811 2.506182,5.07999 2.506311,4.998923 2.41088,4.998781 2.41088,4.829603 2.411265,4.665968 2.468126,4.66617 2.528526,4.665909 2.573104,4.666229 2.591881,4.665884 2.600923,4.665847 2.727875,4.665847" style="fill: white" /><polygon type="contour" points="2.744247,14.888666 2.744154,14.982082 2.694886,14.982082 2.601248,14.982084 2.601351,14.865176 2.601,14.6498 2.712106,14.649799 2.743799,14.649799" style="fill: white" /><polygon type="contour" points="3.192158,14.742028 3.192081,14.982084 3.109597,14.982084 2.996529,14.982082 2.996351,14.742028 2.996237,14.649747 3.050559,14.64974 3.192158,14.64974" style="fill: white" /><polygon type="contour" points="2.744116,13.652856 2.743731,14.279541 2.743757,14.357922 2.743709,14.465791 2.617437,14.465792 2.600923,14.465857 2.591881,14.46582 2.573105,14.465474 2.528525,14.465796 2.525204,14.465534 2.468127,14.465534 2.465359,14.465717 2.411265,14.465737 2.41088,14.3021 2.41088,14.132922 2.506451,14.132745 2.506187,14.044724 2.506398,13.943364 2.50641,13.824414 2.506677,13.642538 2.525171,13.641192" style="fill: white" /><polygon type="contour" points="3.191829,13.644203 3.191829,13.694584 3.192158,14.465745 3.144835,14.46589 2.996237,14.46589 2.996237,14.316231 2.996396,13.648008 3.178872,13.64323" style="fill: white" /><polygon type="contour" points="4.713027,13.654781 5.052937,13.670522 5.054122,13.833575 5.054278,13.861826 5.054332,13.865268 5.054202,13.866378 5.055811,13.952402 5.056241,13.961225 5.058334,13.997656 5.059611,14.006075 5.059831,14.020958 5.060947,14.070778 5.110743,14.071869 5.125623,14.072089 5.134045,14.073367 5.179299,14.075889 5.265321,14.077499 5.266433,14.07737 5.269874,14.077423 5.298125,14.077578 5.46118,14.078764 5.473822,14.417305 5.475204,14.465644 4.832129,14.465743 4.773558,14.465885 4.665845,14.465857 4.665886,14.359413 4.665817,14.336992 4.666088,13.651975 4.693203,13.651395" style="fill: white" /><polygon type="contour" points="4.474627,13.671558 4.482275,13.671276 4.482275,13.681657 4.481902,14.465857 4.389672,14.465745 4.149462,14.465745 4.150337,13.72077 4.150337,13.659391" style="fill: white" /><polygon type="contour" points="4.223197,14.6498 4.481903,14.6498 4.481962,14.742028 4.481962,14.982241 4.389673,14.982241 4.149617,14.982084 4.149617,14.841658 4.149462,14.64974" style="fill: white" /><polygon type="contour" points="5.471091,14.702228 5.4759,14.982103 4.95525,14.98193 4.665957,14.982241 4.665845,14.908507 4.665845,14.6498 4.799917,14.6498 4.853614,14.649709 5.473286,14.649028" style="fill: white" /><polygon type="contour" points="5.481479,16.414781 5.489163,16.625026 5.307286,16.625292 5.188337,16.625303 5.086978,16.625512 4.998921,16.625251 4.998779,16.720822 4.829599,16.720822 4.665966,16.720438 4.666167,16.663574 4.665908,16.603176 4.666228,16.558598 4.665882,16.539821 4.665845,16.53078 4.665845,16.403825 4.665911,16.387991 4.772751,16.38793 4.812015,16.387846 5.48411,16.387595" style="fill: white" /><polygon type="contour" points="4.849307,15.939597 5.488029,15.939887 5.489126,15.952829 5.483994,16.135545 5.43997,16.135545 4.665812,16.135464 4.665812,15.986867 4.665957,15.939544 4.843734,15.939544" style="fill: white" /><polygon type="contour" points="4.481956,15.986868 4.481956,16.135464 4.389672,16.13535 4.14962,16.135173 4.14962,16.067792 4.149617,15.939621 4.290044,15.939621 4.481962,15.939543" style="fill: white" /><polygon type="contour" points="4.481903,16.387901 4.481903,16.530702 4.266524,16.530349 4.256059,16.530308 4.149617,16.530453 4.149617,16.470144 4.14962,16.387549 4.243035,16.387456" style="fill: white" /><polygon type="contour" points="3.063908,16.387549 3.191828,16.387549 3.191828,16.436815 3.192081,16.530453 3.118163,16.530394 2.996396,16.530294 2.996396,16.387493" style="fill: white" /><polygon type="contour" points="3.192081,16.022103 3.191828,16.135173 3.132269,16.135306 2.996396,16.135306 2.996529,16.067791 2.996529,15.939872 3.063908,15.939872 3.192081,15.939621" style="fill: white" /><polygon type="contour" points="2.744154,15.939872 2.744209,15.99943 2.744209,16.135306 2.601409,16.135306 2.601354,16.067792 2.601248,15.939621 2.661558,15.939621" style="fill: white" /><polygon type="contour" points="2.468127,16.387452 2.525204,16.387452 2.52713,16.38737 2.570723,16.387409 2.589297,16.387435 2.601408,16.387494 2.744209,16.387494 2.744209,16.530294 2.744268,16.542405 2.744294,16.560978 2.744332,16.604571 2.74425,16.663574 2.744485,16.666343 2.744546,16.720357 2.593488,16.720707 2.59241,16.720893 2.410999,16.720703 2.410999,16.678918 2.411383,16.506953 2.411265,16.387235" style="fill: white" />
</svg>
