<svg width="19.131698" height="19.131699">
<polygon type="contour" points="10.453546,8.857323 10.453236,8.890991 10.452971,8.982927 10.35831,8.982927 10.164745,8.983006 10.148698,8.983006 10.14859,8.846051 10.14859,8.770364 10.148764,8.721458 10.148788,8.717503 10.15007,8.678197 10.195107,8.677099 10.456999,8.674702" style="fill: white" /><polygon type="contour" points="10.455416,9.485936 10.454736,9.565944 10.454992,9.619506 10.455732,9.711102 10.148079,9.711102 10.148079,9.420602 10.455732,9.420602" style="fill: white" /><polygon type="contour" points="10.286079,9.174506 10.286067,9.201368 10.286058,9.227893 10.286056,9.264675 10.148157,9.264675 10.148158,9.227894 10.148179,9.174506 10.148188,9.138713 10.286087,9.138713" style="fill: white" /><polygon type="contour" points="9.711101,9.264675 9.4206,9.264675 9.4206,9.138713 9.711101,9.138713" style="fill: white" /><polygon type="contour" points="9.94765,9.138713 9.957195,9.138619 9.983489,9.138713 9.992989,9.138713 9.993082,9.174506 9.993822,9.227894 9.994099,9.264675 9.957263,9.264738 9.903809,9.264738 9.876867,9.264675 9.867027,9.264675 9.866964,9.227894 9.866964,9.174437 9.867027,9.137601" style="fill: white" /><polygon type="contour" points="9.992989,8.983515 9.957196,8.983522 9.903809,8.983544 9.867027,8.983546 9.867027,8.845647 9.903809,8.845645 9.930334,8.845633 9.957196,8.845623 9.992989,8.845616" style="fill: white" /><polygon type="contour" points="9.637366,8.678825 9.711101,8.678751 9.711101,8.983624 9.4206,8.983624 9.4206,8.678752 9.49469,8.678825 9.507691,8.678543 9.565951,8.677012" style="fill: white" /><polygon type="contour" points="8.936593,8.6771 8.981631,8.678197 8.982937,8.721458 8.982937,8.763777 8.983111,8.770365 8.983003,8.966958 8.983003,8.983006 8.947569,8.983006 8.678727,8.982927 8.678462,8.890991 8.678154,8.857323 8.674701,8.674703" style="fill: white" /><polygon type="contour" points="9.174504,8.845623 9.201366,8.845633 9.227891,8.845645 9.264674,8.845647 9.2672,8.967576 9.2672,8.983624 9.227915,8.983593 9.174504,8.983522 9.138711,8.983515 9.138711,8.845616" style="fill: white" /><polygon type="contour" points="8.98352,9.174506 8.983542,9.227893 8.983544,9.264675 8.845645,9.264675 8.845643,9.227893 8.845633,9.201368 8.845621,9.174506 8.845614,9.138713 8.983513,9.138713" style="fill: white" /><polygon type="contour" points="9.264776,9.138713 9.264804,9.174506 9.264737,9.227893 9.264674,9.254833 9.264674,9.264675 9.227891,9.264738 9.174434,9.264738 9.147365,9.264675 9.137599,9.264675 9.13871,9.184052 9.138618,9.174506 9.138711,9.14821 9.138711,9.138713 9.174504,9.13862 9.228636,9.13862" style="fill: white" /><polygon type="contour" points="9.227891,9.866965 9.254832,9.867029 9.264674,9.867029 9.264737,9.903811 9.264737,9.957264 9.264674,9.994101 9.18405,9.992991 9.174504,9.993084 9.148208,9.992991 9.138711,9.992991 9.138618,9.957197 9.138618,9.903065 9.138711,9.866926 9.174504,9.866898" style="fill: white" /><polygon type="contour" points="9.264674,9.711102 9.138711,9.711102 9.138711,9.420602 9.264674,9.420602" style="fill: white" /><polygon type="contour" points="8.983622,9.711102 8.675968,9.711102 8.676284,9.645767 8.676964,9.566201 8.676706,9.512639 8.675968,9.420602 8.983622,9.420602" style="fill: white" /><polygon type="contour" points="8.983542,9.903811 8.98352,9.957197 8.983513,9.992991 8.845614,9.992991 8.845621,9.957197 8.845633,9.930335 8.845643,9.903811 8.845645,9.867029 8.983544,9.867029" style="fill: white" /><polygon type="contour" points="8.983111,10.285652 8.983111,10.361338 8.982936,10.410247 8.982913,10.4142 8.98163,10.453507 8.936593,10.454604 8.674701,10.457001 8.678154,10.27438 8.678462,10.240712 8.678727,10.148778 8.773389,10.148778 8.966955,10.148699 8.983003,10.148699" style="fill: white" /><polygon type="contour" points="9.264674,10.286057 9.227891,10.286059 9.201366,10.28607 9.174504,10.28608 9.138711,10.286088 9.138711,10.148189 9.174504,10.14818 9.227892,10.148159 9.264674,10.148158" style="fill: white" /><polygon type="contour" points="9.711101,10.452951 9.637011,10.452879 9.624008,10.45316 9.565501,10.454692 9.494335,10.452879 9.4206,10.452951 9.4206,10.14808 9.711101,10.14808" style="fill: white" /><polygon type="contour" points="9.903784,10.148108 9.957196,10.14818 9.992989,10.148189 9.992989,10.286088 9.957196,10.28608 9.930334,10.28607 9.903809,10.286059 9.867027,10.286057 9.864501,10.164127 9.864501,10.148079" style="fill: white" /><polygon type="contour" points="9.711101,9.992991 9.4206,9.992991 9.4206,9.867029 9.711101,9.867029" style="fill: white" /><polygon type="contour" points="9.711101,9.711102 9.4206,9.711102 9.4206,9.420602 9.711101,9.420602" style="fill: white" /><polygon type="contour" points="9.992989,9.711102 9.867027,9.711102 9.867027,9.420602 9.992989,9.420602" style="fill: white" /><polygon type="contour" points="9.984333,9.867029 9.994099,9.867029 9.992989,9.947651 9.993081,9.957196 9.992989,9.983492 9.992989,9.992991 9.957196,9.993084 9.903808,9.993824 9.867027,9.994101 9.866964,9.957264 9.866964,9.903811 9.867027,9.87687 9.867027,9.867029 9.903809,9.866966 9.957264,9.866966" style="fill: white" /><polygon type="contour" points="10.286058,9.903811 10.286067,9.930335 10.286079,9.957197 10.286087,9.992991 10.148188,9.992991 10.148179,9.957197 10.148158,9.90381 10.148157,9.867029 10.286056,9.867029" style="fill: white" /><polygon type="contour" points="10.452971,10.148778 10.453236,10.240712 10.453546,10.274381 10.456998,10.457001 10.195107,10.454604 10.15007,10.453507 10.148764,10.410246 10.148764,10.367926 10.14859,10.361338 10.148698,10.164746 10.148698,10.148699 10.18413,10.148699" style="fill: white" />
</svg>
