<svg width="19.131698" height="19.131699">
<polygon type="contour" points="12.180802,11.771163 12.180374,11.930624 12.181044,12.060738 12.255445,12.059849 12.308462,12.059853 12.331722,12.060205 12.352499,12.060454 12.353137,12.082381 12.360539,12.360542 12.248304,12.357255 12.217974,12.356158 12.124545,12.353829 12.06047,12.353446 12.06047,12.181043 11.930621,12.180375 11.771161,12.180803 11.771161,12.152109 11.770746,12.059846 11.770746,11.930623 11.771161,11.771163 11.819889,11.771163 11.971646,11.770748 12.084001,11.770748" style="fill: white" /><polygon type="contour" points="10.862923,11.771305 10.862923,11.771273 10.903237,11.771273 11.114751,11.771163 11.114751,11.819891 11.115095,11.97165 11.115095,12.084005 11.114751,12.180804 10.903236,12.180332 10.796667,12.180813 10.796667,12.318167 10.79667,12.336106 10.796684,12.343232 10.796711,12.353125 10.74638,12.353092 10.681021,12.354378 10.643962,12.354841 10.640071,12.355191 10.617712,12.355809 10.599505,12.356293 10.5962,12.356508 10.563966,12.358258 10.504853,12.354425 10.502903,12.123795 10.502895,11.971577 10.502223,11.971577 10.502152,11.930624 10.502535,11.771163 10.574524,11.771163" style="fill: white" /><polygon type="contour" points="11.114751,10.502537 11.114751,10.574525 11.114808,10.796668 11.114808,10.903238 11.114751,11.115284 11.053798,11.115284 10.796667,11.114644 10.796667,11.114809 10.749051,11.114809 10.502535,11.114753 10.502653,11.067559 10.502233,10.839849 10.50585,10.565788 10.50662,10.557807 10.507382,10.507384 10.565787,10.505851 10.833219,10.502324 10.903236,10.502218" style="fill: white" /><polygon type="contour" points="11.971576,10.503005 12.123793,10.502904 12.354423,10.504855 12.355808,10.617715 12.355189,10.640073 12.354839,10.644295 12.354149,10.681317 12.353089,10.746381 12.353123,10.796713 12.336105,10.796672 12.180809,10.796672 12.180328,10.903239 12.180802,11.114753 12.152108,11.114753 12.059844,11.115097 11.930621,11.115097 11.771161,11.114753 11.771161,11.0538 11.771309,10.796669 11.771271,10.796668 11.771271,10.749053 11.771161,10.502537 11.810695,10.502644 11.971576,10.502225" style="fill: white" /><polygon type="contour" points="12.353137,7.049323 12.3525,7.07125 12.331722,7.071498 12.308462,7.071851 12.265165,7.071851 12.255446,7.071855 12.181039,7.071855 12.180374,7.201079 12.180802,7.360541 12.152107,7.360541 12.059843,7.360954 11.93062,7.360954 11.771161,7.360541 11.771161,7.311812 11.770746,7.160054 11.770746,7.047699 11.771161,6.950901 11.930621,6.951329 12.060484,6.950659 12.060484,6.778376 12.124545,6.777876 12.217973,6.775546 12.248305,6.774446 12.360539,6.771162" style="fill: white" /><polygon type="contour" points="12.180802,8.016948 12.180269,8.173365 12.180328,8.228464 12.180809,8.334992 12.353123,8.334992 12.353089,8.385322 12.354839,8.487408 12.355189,8.491631 12.355808,8.513989 12.356508,8.535502 12.358258,8.567734 12.354423,8.626848 12.248002,8.626381 12.008542,8.629414 11.93062,8.62955 11.771161,8.629167 11.771161,8.557177 11.771303,8.26878 11.771271,8.26878 11.771271,8.228464 11.771161,8.016949 11.819888,8.016949 11.971647,8.016608 12.084002,8.016608" style="fill: white" /><polygon type="contour" points="11.114751,8.07737 11.114808,8.26878 11.114808,8.382649 11.114751,8.629167 11.067557,8.629049 10.839839,8.629467 10.565787,8.625851 10.557804,8.625079 10.507382,8.624319 10.507728,8.578702 10.506621,8.573895 10.50585,8.565912 10.502321,8.298497 10.502215,8.228464 10.502535,8.016949 10.574524,8.016949 10.796667,8.016893 10.903236,8.016893 11.114751,8.01642" style="fill: white" /><polygon type="contour" points="10.640071,6.776512 10.644293,6.776862 10.68102,6.777323 10.746379,6.77861 10.796685,6.778515 10.79667,6.795595 10.79667,6.950891 10.903237,6.951373 11.114751,6.9509 11.114751,6.979594 11.115095,7.071856 11.115095,7.201079 11.11475,7.360541 11.053798,7.360541 10.796667,7.360392 10.796666,7.360431 10.749051,7.360431 10.502535,7.360541 10.502643,7.321007 10.502223,7.160126 10.503003,7.160126 10.502903,7.007907 10.504853,6.777276 10.617712,6.775892" style="fill: white" /><polygon type="contour" points="6.883394,6.774447 6.913726,6.775546 7.007154,6.777875 7.07123,6.778258 7.07123,6.95066 7.201078,6.951329 7.360539,6.9509 7.360539,6.979593 7.360953,7.071857 7.360953,7.201079 7.360538,7.360541 7.311811,7.360541 7.160052,7.360954 7.047697,7.360954 6.950898,7.360541 6.951326,7.201079 6.950655,7.070969 6.875947,7.071855 6.822892,7.071851 6.799446,7.071499 6.778606,7.07125 6.777911,7.049323 6.771161,6.771162" style="fill: white" /><polygon type="contour" points="8.626846,6.777277 8.628797,7.007907 8.628804,7.160126 8.629477,7.160126 8.629548,7.201079 8.629165,7.360541 8.557175,7.360541 8.268778,7.360399 8.268778,7.360432 8.228462,7.360432 8.016948,7.360541 8.016948,7.311813 8.016606,7.160055 8.016606,7.047699 8.016948,6.9509 8.228462,6.951373 8.335034,6.950891 8.335034,6.813534 8.335031,6.795595 8.335016,6.788469 8.334989,6.778577 8.38532,6.77861 8.45068,6.777323 8.487407,6.776862 8.491629,6.776512 8.513987,6.775893 8.528173,6.775494 8.528619,6.775467 8.5355,6.775193 8.567734,6.773443" style="fill: white" /><polygon type="contour" points="8.268778,8.016893 8.382648,8.016893 8.629165,8.016949 8.629047,8.064141 8.629509,8.314965 8.628538,8.346745 8.624317,8.624319 8.578699,8.623972 8.573893,8.625078 8.56591,8.625851 8.298495,8.629379 8.228463,8.629485 8.016948,8.629167 8.016948,8.557178 8.01689,8.335036 8.01689,8.228464 8.016948,8.016949 8.0779,8.016949 8.268778,8.016892" style="fill: white" /><polygon type="contour" points="7.360539,8.016949 7.360539,8.077901 7.36039,8.335035 7.360429,8.335036 7.360429,8.38265 7.360539,8.629167 7.321005,8.629059 7.160125,8.629478 7.160125,8.628698 7.007906,8.628799 6.777276,8.626848 6.775891,8.513988 6.77651,8.491632 6.77686,8.487737 6.777549,8.450388 6.778607,8.385322 6.778574,8.334992 6.795591,8.335033 6.950892,8.335033 6.951371,8.228464 6.950898,8.016949 6.979592,8.016949 7.071855,8.016608 7.201079,8.016608" style="fill: white" /><polygon type="contour" points="7.360539,10.502537 7.360539,10.574526 7.360396,10.862925 7.360429,10.862925 7.360429,10.903239 7.360539,11.114753 7.31181,11.114753 7.160052,11.115097 7.047697,11.115097 6.950898,11.114753 6.951429,10.95834 6.951371,10.903238 6.950892,10.796713 6.778574,10.796713 6.778607,10.746382 6.77686,10.644295 6.77651,10.640072 6.77589,10.617715 6.775191,10.596202 6.77344,10.563969 6.777276,10.504855 6.883697,10.505322 7.123182,10.502289 7.201078,10.502154" style="fill: white" /><polygon type="contour" points="8.346743,10.503164 8.624317,10.507384 8.625848,10.565789 8.629378,10.833181 8.629485,10.903239 8.629165,11.114753 8.557175,11.114753 8.335033,11.114809 8.228462,11.114809 8.016948,11.114753 8.016948,11.053801 8.01689,10.862924 8.01689,10.749053 8.016948,10.502537 8.064141,10.502654 8.31497,10.502194" style="fill: white" /><polygon type="contour" points="8.335033,11.771311 8.335034,11.771273 8.382648,11.771273 8.629165,11.771163 8.629057,11.810697 8.629477,11.971578 8.628696,11.971578 8.628797,12.123795 8.626846,12.354425 8.513988,12.355809 8.491629,12.35519 8.487737,12.354841 8.450679,12.354378 8.385321,12.353092 8.335016,12.353187 8.335031,12.336106 8.335031,12.180812 8.228462,12.180331 8.016948,12.180804 8.016948,12.152108 8.016606,12.059847 8.016606,11.930623 8.016947,11.771163 8.0779,11.771163" style="fill: white" /><polygon type="contour" points="7.360539,11.771163 7.360539,11.819891 7.360953,11.971649 7.360953,12.084005 7.360539,12.180804 7.201078,12.180375 7.071216,12.181044 7.071216,12.353328 7.007154,12.353829 6.913725,12.356158 6.883394,12.357255 6.771161,12.360542 6.777912,12.08238 6.778606,12.060454 6.799446,12.060204 6.822893,12.059853 6.866187,12.059853 6.875947,12.059849 6.95066,12.059849 6.951326,11.930624 6.950898,11.771163 6.979591,11.771163 7.071856,11.770748 7.201079,11.770748" style="fill: white" />
</svg>
