<svg width="19.131698" height="19.131699">
<polygon type="contour" points="7.527222,7.444308 7.604049,7.45014 7.74264,7.450496 7.743169,7.499319 7.743169,7.548046 7.743394,7.550574 7.74359,7.619706 7.74359,7.743592 7.451004,7.743592 7.450601,7.626822 7.44365,7.443653" style="fill: white" /><polygon type="contour" points="11.687961,7.524764 11.681098,7.626822 11.680695,7.743592 11.38811,7.743592 11.38811,7.619706 11.388305,7.550575 11.388529,7.499318 11.389015,7.495484 11.389058,7.450496 11.527651,7.45014 11.68805,7.443653" style="fill: white" /><polygon type="contour" points="9.703569,10.30446 9.722162,10.30446 9.722162,10.556151 9.722237,10.599031 9.602283,10.598374 9.59495,10.598374 9.59495,10.598012 9.429146,10.599031 9.409464,10.599031 9.409464,10.349859 9.409539,10.30446 9.529233,10.303722 9.594922,10.303722 9.594922,10.303721" style="fill: white" /><polygon type="contour" points="9.702554,10.887857 9.722237,10.887857 9.721827,10.99565 9.721806,11.000201 9.722162,11.08684 9.722134,11.100529 9.602106,11.098406 9.594911,11.098406 9.594905,11.097242 9.428917,11.100529 9.409567,11.100529 9.409882,11.004917 9.409855,10.990177 9.409539,10.903881 9.409464,10.887856 9.528759,10.887328 9.594949,10.887328" style="fill: white" /><polygon type="contour" points="9.702784,11.386089 9.722134,11.386089 9.722134,11.491763 9.722162,11.51024 9.70376,11.51022 9.56543,11.510111 9.42794,11.510221 9.409539,11.51024 9.409539,11.403824 9.409567,11.386089 9.528934,11.385709 9.594912,11.385709" style="fill: white" /><polygon type="contour" points="11.681098,11.504879 11.68805,11.688051 11.604479,11.687395 11.527651,11.681564 11.389058,11.681208 11.388529,11.632384 11.388529,11.583658 11.388305,11.581129 11.38811,11.511997 11.38811,11.388112 11.680695,11.388112" style="fill: white" /><polygon type="contour" points="11.680014,10.536281 11.679876,10.601625 11.640507,10.601625 11.406989,10.602013 11.387087,10.601691 11.387633,10.371929 11.387701,10.307187 11.432239,10.307481 11.680482,10.306981" style="fill: white" /><polygon type="contour" points="11.509982,10.99565 11.509966,11.000697 11.509982,11.004916 11.509957,11.097814 11.385774,11.097814 11.385774,11.083903 11.385392,10.999254 11.38606,10.887829 11.510185,10.887829" style="fill: white" /><polygon type="contour" points="11.002826,11.38541 11.083903,11.385776 11.097813,11.385776 11.097813,11.50996 11.004914,11.509984 11.000694,11.509968 10.995647,11.509984 10.887827,11.510187 10.887827,11.386062 10.99925,11.385394" style="fill: white" /><polygon type="contour" points="10.602011,11.406991 10.6019,11.644663 10.6019,11.680264 10.381965,11.680034 10.306917,11.680189 10.307038,11.660016 10.306918,11.639196 10.306518,11.589282 10.307,11.387365 10.542137,11.387145 10.601689,11.38709" style="fill: white" /><polygon type="contour" points="10.598641,10.99565 10.598641,11.003822 10.598707,11.083693 10.598707,11.097844 10.348461,11.097844 10.304196,11.097814 10.30413,11.084433 10.303937,10.998133 10.304457,10.887829 10.599036,10.887829" style="fill: white" /><polygon type="contour" points="10.995647,10.888445 11.00382,10.888445 11.083693,10.888185 11.097842,10.888185 11.098332,11.000156 11.098285,11.007821 11.097813,11.083903 11.097813,11.097814 11.010809,11.098281 11.004914,11.098313 10.996959,11.098313 10.995648,11.098316 10.888183,11.097844 10.888444,11.004941 10.888444,10.996952 10.887827,10.906382 10.887827,10.887829" style="fill: white" /><polygon type="contour" points="11.084431,10.304131 11.097813,10.304198 11.097813,10.555194 11.097842,10.598709 11.083692,10.598709 11.003819,10.598643 10.995647,10.598643 10.887827,10.599037 10.887827,10.304459 10.99813,10.303939" style="fill: white" /><polygon type="contour" points="10.600828,10.37042 10.600468,10.60047 10.531282,10.60047 10.306239,10.60076 10.30628,10.37042 10.306337,10.306339 10.540049,10.306339 10.600828,10.306282" style="fill: white" /><polygon type="contour" points="10.598374,9.529419 10.598374,9.536752 10.598013,9.536752 10.599029,9.702555 10.599029,9.722238 10.349857,9.722238 10.304458,9.722163 10.30372,9.602469 10.30372,9.536779 10.304458,9.428133 10.304458,9.409541 10.556149,9.409541 10.599029,9.409466" style="fill: white" /><polygon type="contour" points="10.995648,9.409876 11.000198,9.409896 11.086837,9.409541 11.100526,9.409569 11.098405,9.529595 11.098405,9.536791 11.097242,9.536797 11.100526,9.702784 11.100526,9.722135 11.004914,9.72182 10.995288,9.721837 10.980184,9.722238 10.887854,9.722238 10.887326,9.602942 10.887326,9.536751 10.887854,9.429147 10.887854,9.409466" style="fill: white" /><polygon type="contour" points="11.510218,9.427942 11.510109,9.566272 11.510219,9.703761 11.510238,9.722163 11.403822,9.722163 11.386087,9.722135 11.385706,9.602767 11.385706,9.536791 11.385705,9.536791 11.386087,9.428918 11.386087,9.409569 11.491763,9.409569 11.510238,9.409541" style="fill: white" /><polygon type="contour" points="11.679876,8.530079 11.680346,8.760955 11.680482,8.824723 11.432238,8.824224 11.387701,8.824517 11.387143,8.589564 11.387088,8.530013 11.434151,8.529689" style="fill: white" /><polygon type="contour" points="11.509982,8.126787 11.509966,8.131006 11.509982,8.136052 11.510185,8.243875 11.38606,8.243875 11.385392,8.13245 11.385408,8.128875 11.385774,8.0478 11.385774,8.03389 11.509957,8.03389" style="fill: white" /><polygon type="contour" points="10.995648,8.533061 11.003819,8.533061 11.083692,8.532995 11.097842,8.532995 11.097842,8.78324 11.097813,8.827507 11.084431,8.827573 10.99813,8.827765 10.887827,8.827246 10.887827,8.532666" style="fill: white" /><polygon type="contour" points="10.600467,8.531234 10.600688,8.759015 10.600688,8.825556 10.370418,8.825422 10.306337,8.825365 10.305988,8.596331 10.305933,8.530699 10.375117,8.530699" style="fill: white" /><polygon type="contour" points="10.598707,8.04801 10.598641,8.127881 10.598641,8.136053 10.599036,8.243875 10.304457,8.243875 10.304024,8.127884 10.303949,8.127885 10.303957,8.124317 10.30413,8.04727 10.304196,8.03389 10.555193,8.03389 10.598707,8.03386" style="fill: white" /><polygon type="contour" points="11.006033,8.033403 11.083903,8.03389 11.097813,8.03389 11.09831,8.126787 11.09831,8.13474 11.098313,8.136052 11.097842,8.243519 11.004938,8.243259 10.995648,8.243259 10.980313,8.243519 10.887827,8.243875 10.888444,8.136053 10.888444,8.12788 10.888183,8.048009 10.888183,8.03386 11.000255,8.033367" style="fill: white" /><polygon type="contour" points="10.995647,7.621719 11.000694,7.621735 11.004913,7.62172 11.097813,7.621742 11.097813,7.745928 11.083903,7.745928 10.999244,7.746306 10.887827,7.745642 10.887827,7.621517" style="fill: white" /><polygon type="contour" points="10.6019,7.45144 10.6019,7.48704 10.601496,7.53391 10.601496,7.744302 10.371927,7.744066 10.307185,7.743999 10.307479,7.69946 10.306918,7.451515 10.542902,7.451309" style="fill: white" /><polygon type="contour" points="9.722162,7.727879 9.722134,7.745615 9.602107,7.745995 9.536129,7.745995 9.428916,7.745615 9.409567,7.745615 9.409567,7.63994 9.409539,7.621464 9.42794,7.621483 9.56543,7.621592 9.70376,7.621483 9.722162,7.621464" style="fill: white" /><polygon type="contour" points="9.703545,8.03389 9.722439,8.03389 9.721819,8.126787 9.721845,8.141526 9.722162,8.227824 9.722237,8.243847 9.602283,8.244376 9.536092,8.244376 9.429145,8.243847 9.409464,8.243847 9.409874,8.136052 9.4099,8.130378 9.409233,8.047271 9.409262,8.03389 9.528935,8.033297 9.594911,8.033297 9.594911,8.033296" style="fill: white" /><polygon type="contour" points="9.722237,8.781845 9.722162,8.827245 9.601805,8.827983 9.536116,8.827983 9.428132,8.827245 9.409539,8.827245 9.409539,8.575552 9.409464,8.532673 9.528759,8.53333 9.536092,8.53333 9.536092,8.533689 9.702554,8.532673 9.722237,8.532673" style="fill: white" /><polygon type="contour" points="9.703569,9.409541 9.722162,9.409541 9.722983,9.529897 9.722983,9.595586 9.722162,9.703569 9.722162,9.722163 9.601805,9.722986 9.536116,9.722986 9.428132,9.722163 9.409539,9.722163 9.408718,9.602469 9.408718,9.536779 9.409539,9.428134 9.409539,9.409541 9.529233,9.408719 9.594922,9.408719" style="fill: white" /><polygon type="contour" points="8.827243,9.409541 8.827981,9.529897 8.827981,9.595585 8.827243,9.70357 8.827243,9.722163 8.57555,9.722163 8.532671,9.722238 8.533327,9.602943 8.533327,9.595611 8.533685,9.595611 8.532671,9.429148 8.532671,9.409466 8.781843,9.409466" style="fill: white" /><polygon type="contour" points="8.82542,8.761284 8.825363,8.825366 8.59165,8.825366 8.530872,8.825422 8.530872,8.761284 8.531231,8.531234 8.600417,8.531234 8.825461,8.530941" style="fill: white" /><polygon type="contour" points="8.783238,8.03386 8.827505,8.03389 8.82757,8.04727 8.827763,8.13357 8.827244,8.243875 8.532664,8.243875 8.53306,8.136052 8.53306,8.127881 8.532993,8.04801 8.532993,8.03386 8.782644,8.033266" style="fill: white" /><polygon type="contour" points="8.749735,7.451669 8.824783,7.451514 8.824662,7.471686 8.824783,7.492506 8.825182,7.54242 8.824701,7.744337 8.589561,7.74456 8.530011,7.744614 8.529689,7.724713 8.5298,7.48704 8.5298,7.45144" style="fill: white" /><polygon type="contour" points="8.243873,7.745642 8.132456,7.746306 8.047797,7.745928 8.033887,7.745928 8.033887,7.621742 8.126786,7.62172 8.131005,7.621735 8.136052,7.621719 8.243873,7.621517" style="fill: white" /><polygon type="contour" points="8.136507,8.03339 8.243517,8.03386 8.243256,8.126762 8.243256,8.134751 8.243873,8.225321 8.243873,8.243875 8.136052,8.243259 8.127879,8.243259 8.048006,8.243519 8.033857,8.243519 8.033367,8.131446 8.033403,8.125651 8.033887,8.047799 8.033887,8.03389 8.126786,8.03339 8.134739,8.03339 8.136051,8.033388" style="fill: white" /><polygon type="contour" points="7.745926,8.047799 7.746289,8.12888 7.746305,8.132454 7.74564,8.243875 7.621515,8.243875 7.621718,8.136052 7.621733,8.131006 7.621718,8.126787 7.62174,8.03389 7.745926,8.03389" style="fill: white" /><polygon type="contour" points="7.744612,8.530013 7.744065,8.759775 7.743998,8.824517 7.699459,8.824224 7.451218,8.824723 7.451685,8.595422 7.451825,8.530079 7.491194,8.530079 7.72471,8.52969" style="fill: white" /><polygon type="contour" points="8.243873,8.827246 8.133569,8.827765 8.047268,8.827573 8.033887,8.827507 8.033887,8.576508 8.033857,8.532995 8.048007,8.532995 8.12788,8.533061 8.136051,8.533061 8.243873,8.532666" style="fill: white" /><polygon type="contour" points="8.243846,9.409466 8.244374,9.529419 8.244374,9.59561 8.243846,9.702555 8.243846,9.722238 8.136051,9.721828 8.130374,9.721801 8.047267,9.72247 8.033887,9.722441 8.033295,9.602768 8.033295,9.53679 8.033887,9.428156 8.033887,9.409264 8.126786,9.409884 8.13625,9.409866 8.151384,9.409164" style="fill: white" /><polygon type="contour" points="7.745613,9.409569 7.745994,9.529595 7.745994,9.595573 7.745613,9.702785 7.745613,9.722135 7.639938,9.722135 7.621462,9.722163 7.621481,9.703761 7.62159,9.566272 7.621481,9.427942 7.621462,9.409541 7.727877,9.409541" style="fill: white" /><polygon type="contour" points="7.699458,10.307481 7.743998,10.307187 7.744558,10.54214 7.744612,10.601691 7.697549,10.602013 7.451825,10.601625 7.451353,10.370748 7.451218,10.306981" style="fill: white" /><polygon type="contour" points="8.243873,10.304459 8.243873,10.599037 8.136052,10.598643 8.12788,10.598643 8.048007,10.598709 8.033857,10.598709 8.033857,10.349077 8.033166,10.348352 8.033906,10.347217 8.033887,10.304198 8.047268,10.304131 8.133569,10.303939" style="fill: white" /><polygon type="contour" points="8.761283,10.306282 8.825364,10.306339 8.825711,10.535371 8.825768,10.601005 8.756582,10.601005 8.531232,10.60047 8.531012,10.372689 8.531012,10.306149" style="fill: white" /><polygon type="contour" points="8.827763,10.998133 8.827743,11.007386 8.82757,11.084433 8.827505,11.097814 8.576506,11.097814 8.532993,11.097844 8.532993,11.083693 8.53306,11.003822 8.53306,10.995651 8.532664,10.887829 8.827244,10.887829" style="fill: white" /><polygon type="contour" points="8.759773,11.387635 8.824515,11.387703 8.824222,11.43224 8.824783,11.680189 8.588797,11.680395 8.5298,11.680264 8.5298,11.644663 8.530204,11.597793 8.530204,11.3874" style="fill: white" /><polygon type="contour" points="8.243873,11.386062 8.243873,11.510187 8.136052,11.509984 8.131005,11.509968 8.126785,11.509984 8.033887,11.50996 8.033887,11.385776 8.047797,11.385776 8.132449,11.385394" style="fill: white" /><polygon type="contour" points="8.243256,10.99565 8.243256,11.003823 8.243517,11.083694 8.243517,11.097844 8.131542,11.098335 8.123907,11.098288 8.047796,11.097814 8.033887,11.097814 8.03339,11.004916 8.03339,10.996962 8.033388,10.995651 8.03339,10.995192 8.033857,10.888185 8.126761,10.888445 8.136052,10.888445 8.151384,10.888185 8.243873,10.887829" style="fill: white" /><polygon type="contour" points="7.746305,10.999249 7.745926,11.083903 7.745926,11.097814 7.62174,11.097814 7.621718,11.004916 7.621733,11.000697 7.621717,10.99565 7.621515,10.887829 7.74564,10.887829" style="fill: white" /><polygon type="contour" points="7.74359,11.511997 7.743394,11.581128 7.743169,11.632385 7.742683,11.63622 7.74264,11.681208 7.604049,11.681564 7.44365,11.688051 7.443739,11.606939 7.450601,11.504879 7.451003,11.388112 7.74359,11.388112" style="fill: white" />
</svg>
