<svg width="19.131698" height="19.131699">
<polygon type="contour" points="14.893195,4.074901 14.908405,4.080534 14.912895,4.082651 14.955054,4.109802 14.968821,4.119682 14.991758,4.139969 15.013217,4.163627 15.024203,4.17809 15.033299,4.193301 15.049297,4.2223 15.058773,4.249558 15.073532,4.309901 15.076845,4.309901 15.076602,4.381012 15.076602,4.393202 15.06928,4.393202 15.06928,4.635401 15.076602,4.635401 15.076602,4.718703 15.06928,4.718703 15.06928,4.961601 15.076602,4.961601 15.076602,5.044902 15.06928,5.044902 15.06928,5.287802 15.076602,5.287802 15.076602,5.370402 15.06928,5.370402 15.06928,5.613302 15.076602,5.613302 15.076602,5.696602 15.06928,5.696602 15.06928,5.939502 15.076602,5.939502 15.076602,6.022802 15.06928,6.022802 15.06928,6.265002 15.076602,6.265002 15.076602,6.348302 15.06928,6.348302 15.06928,6.591202 15.076602,6.591202 15.076602,6.674501 15.06928,6.674501 15.06928,6.917402 15.076602,6.917402 15.076602,7.000002 15.06928,7.000002 15.06928,7.242902 15.076602,7.242902 15.076602,7.326201 15.06928,7.326201 15.06928,7.569101 15.076602,7.569101 15.076602,7.652401 15.06928,7.652401 15.06928,7.894602 15.076602,7.894602 15.076602,7.977901 15.06928,7.977901 15.06928,8.220801 15.076602,8.220801 15.076602,8.304101 15.06928,8.304101 15.06928,8.546302 15.076602,8.546302 15.076602,8.629601 15.06928,8.629601 15.06928,8.872501 15.076603,8.872501 15.076602,8.943612 15.076602,8.955801 15.06928,8.955801 15.06928,9.198701 15.076602,9.198701 15.076602,9.281301 15.06928,9.281301 15.06928,9.524201 15.076602,9.524201 15.076478,9.536508 15.076478,9.607501 15.06928,9.607501 15.06928,9.850401 15.076602,9.850401 15.076602,9.933001 15.06928,9.933001 15.06928,10.1759 15.076602,10.1759 15.076602,10.259203 15.06928,10.259203 15.06928,10.502103 15.076602,10.502103 15.076602,10.585402 15.06928,10.585402 15.06928,10.8276 15.076602,10.8276 15.076602,10.910903 15.06928,10.910903 15.06928,11.153803 15.076602,11.153803 15.076602,11.237103 15.06928,11.237103 15.06928,11.479303 15.076602,11.479303 15.076602,11.562603 15.06928,11.562603 15.06928,11.805503 15.076602,11.805503 15.076602,11.888803 15.06928,11.888803 15.06928,12.131702 15.076602,12.131702 15.076602,12.214302 15.06928,12.214302 15.06928,12.457203 15.076602,12.457203 15.076602,12.540503 15.06928,12.540503 15.06928,12.783402 15.076602,12.783402 15.076602,12.866702 15.06928,12.866702 15.06928,13.108902 15.076602,13.108902 15.076602,13.192202 15.06928,13.192202 15.06928,13.435102 15.076602,13.435102 15.076602,13.518402 15.06928,13.518402 15.06928,13.761302 15.076602,13.761302 15.076602,13.843903 15.06928,13.843903 15.06928,14.086802 15.076602,14.086802 15.076602,14.170101 15.06928,14.170101 15.06928,14.413002 15.076602,14.413002 15.076602,14.496302 15.06928,14.496302 15.06928,14.738503 15.076602,14.738503 15.077076,14.807275 15.077076,14.821802 15.07327,14.821802 15.061753,14.874159 15.050855,14.902465 15.040417,14.924898 15.029053,14.946739 15.012109,14.968796 14.992173,14.990764 14.969467,15.010834 14.950782,15.024868 14.911504,15.051176 14.911201,15.051297 14.862495,15.066812 14.82241,15.075208 14.822397,15.076603 14.7385,15.076603 14.7385,15.069282 14.496299,15.069282 14.496299,15.076603 14.412999,15.076603 14.412999,15.069282 14.1701,15.069282 14.1701,15.076603 14.086801,15.076603 14.086801,15.069282 13.8439,15.069282 13.8439,15.076603 13.7613,15.076603 13.7613,15.069282 13.518399,15.069282 13.518399,15.076603 13.4351,15.076603 13.4351,15.069282 13.192201,15.069282 13.192201,15.076602 13.121089,15.076603 13.108901,15.076603 13.108901,15.069282 12.8667,15.069282 12.8667,15.076603 12.783401,15.076603 12.783401,15.069282 12.5405,15.069282 12.5405,15.076603 12.4572,15.076603 12.4572,15.069282 12.214301,15.069282 12.214301,15.076603 12.131701,15.076603 12.131701,15.069282 11.888801,15.069282 11.888801,15.076603 11.805501,15.076603 11.805501,15.069282 11.5626,15.069282 11.5626,15.076603 11.4793,15.076603 11.4793,15.069282 11.237102,15.069282 11.237102,15.076603 11.153802,15.076603 11.153802,15.069281 11.070521,15.069282 10.910901,15.069282 10.910901,15.076603 10.8276,15.076603 10.8276,15.069282 10.585401,15.069282 10.585401,15.076603 10.502101,15.076603 10.502101,15.069282 10.259202,15.069282 10.259202,15.076603 10.175899,15.076603 10.175899,15.069282 9.933,15.069282 9.933,15.076603 9.850398,15.076603 9.850398,15.069282 9.607499,15.069282 9.607499,15.076603 9.524199,15.076603 9.524199,15.069282 9.281299,15.069282 9.281299,15.076603 9.198699,15.076603 9.198699,15.069282 8.955798,15.069282 8.955798,15.076603 8.872499,15.076603 8.872499,15.069282 8.6296,15.069282 8.6296,15.076603 8.5463,15.076603 8.5463,15.069282 8.46326,15.069282 8.304099,15.069283 8.304099,15.076603 8.220799,15.076603 8.220799,15.069281 7.977898,15.069281 7.977898,15.076603 7.894599,15.076603 7.894599,15.069282 7.6524,15.069282 7.6524,15.076603 7.5691,15.076603 7.5691,15.069282 7.326199,15.069282 7.326199,15.076602 7.255088,15.076603 7.2429,15.076603 7.2429,15.069282 6.999999,15.069282 6.999999,15.076603 6.917399,15.076603 6.917399,15.069282 6.834119,15.069281 6.6745,15.069281 6.6745,15.076603 6.603389,15.076602 6.591201,15.076602 6.591201,15.069282 6.507919,15.069281 6.3483,15.069281 6.3483,15.076603 6.265,15.076603 6.265,15.069281 6.18196,15.069281 6.022799,15.069282 6.022799,15.076603 5.9395,15.076603 5.9395,15.069282 5.696601,15.069282 5.696601,15.076603 5.613301,15.076603 5.613301,15.069282 5.3704,15.069282 5.3704,15.076603 5.287801,15.076603 5.287801,15.069282 5.0449,15.069282 5.0449,15.076603 4.961599,15.076603 4.961599,15.069282 4.718701,15.069282 4.718701,15.076603 4.6354,15.076603 4.6354,15.069282 4.393201,15.069282 4.393201,15.076603 4.381012,15.076603 4.303933,15.076864 4.264876,15.065663 4.217637,15.049233 4.21467,15.04766 4.178376,15.023295 4.162962,15.012214 4.139939,14.991732 4.11848,14.968075 4.107964,14.95462 4.104229,14.948439 4.086051,14.915493 4.077624,14.896937 4.068093,14.868783 4.062089,14.821802 4.055213,14.821802 4.055098,14.750691 4.055098,14.738503 4.06242,14.738503 4.06242,14.496302 4.055098,14.496302 4.055098,14.413002 4.06242,14.413002 4.06242,14.170101 4.055098,14.170101 4.055098,14.086802 4.06242,14.086802 4.06242,13.843903 4.055098,13.843903 4.055098,13.761302 4.06242,13.761302 4.06242,13.518402 4.055098,13.518402 4.055098,13.435102 4.06242,13.435102 4.06242,13.192202 4.055098,13.192202 4.055098,13.108902 4.06242,13.108902 4.06242,12.866702 4.055098,12.866702 4.055098,12.783402 4.06242,12.783402 4.06242,12.540503 4.055099,12.540503 4.055098,12.469391 4.055098,12.457203 4.06242,12.457203 4.06242,12.214302 4.055098,12.214302 4.055098,12.131702 4.06242,12.131702 4.06242,11.888803 4.055099,11.888803 4.055098,11.817691 4.055098,11.805503 4.062419,11.805503 4.06242,11.722222 4.06242,11.562603 4.055098,11.562603 4.055098,11.479303 4.06242,11.479303 4.06242,11.237103 4.055098,11.237103 4.055098,11.153803 4.06242,11.153803 4.06242,10.910903 4.055098,10.910903 4.055098,10.8276 4.06242,10.8276 4.06242,10.585402 4.055098,10.585402 4.055098,10.502103 4.06242,10.502103 4.06242,10.259203 4.055098,10.259203 4.055098,10.1759 4.06242,10.1759 4.06242,9.933001 4.055098,9.933001 4.055098,9.850401 4.06242,9.850401 4.06242,9.76712 4.062419,9.607501 4.055098,9.607501 4.055221,9.595192 4.055221,9.524201 4.06242,9.524201 4.06242,9.281301 4.055098,9.281301 4.055098,9.198701 4.06242,9.198701 4.06242,9.11542 4.062419,8.955801 4.055098,8.955801 4.055099,8.884689 4.055099,8.872501 4.06242,8.872501 4.06242,8.78922 4.062419,8.629601 4.055098,8.629601 4.055098,8.546302 4.06242,8.546302 4.06242,8.463261 4.062419,8.304101 4.055098,8.304101 4.055098,8.220801 4.06242,8.220801 4.06242,8.13752 4.062419,7.977901 4.055098,7.977901 4.055098,7.894602 4.06242,7.894602 4.06242,7.81156 4.062419,7.652401 4.055098,7.652401 4.055098,7.569101 4.06242,7.569101 4.06242,7.48582 4.062419,7.326201 4.055098,7.326201 4.055099,7.25509 4.055099,7.242902 4.06242,7.242902 4.06242,7.000002 4.055098,7.000002 4.055098,6.917402 4.06242,6.917402 4.06242,6.674501 4.055098,6.674501 4.055098,6.591202 4.06242,6.591202 4.06242,6.348302 4.055098,6.348302 4.055098,6.265002 4.06242,6.265002 4.06242,6.022802 4.055098,6.022802 4.055098,5.939502 4.06242,5.939502 4.06242,5.696602 4.055098,5.696602 4.055098,5.613302 4.06242,5.613302 4.06242,5.370402 4.055098,5.370402 4.055098,5.287802 4.06242,5.287802 4.06242,5.044902 4.055098,5.044902 4.055098,4.961601 4.06242,4.961601 4.06242,4.718703 4.055098,4.718703 4.055098,4.635401 4.06242,4.635401 4.06242,4.393202 4.055098,4.393202 4.055213,4.322773 4.055213,4.309901 4.061382,4.309901 4.067567,4.263357 4.071589,4.248647 4.086657,4.215596 4.098899,4.192102 4.1077,4.179501 4.119589,4.162908 4.139525,4.140937 4.161398,4.122648 4.186114,4.104306 4.220748,4.081657 4.22689,4.079246 4.246937,4.072034 4.269084,4.06564 4.307902,4.061693 4.309899,4.054858 4.3241,4.054858 4.393201,4.0551 4.393201,4.062422 4.6354,4.062422 4.6354,4.0551 4.718701,4.0551 4.718701,4.062422 4.961599,4.062422 4.961599,4.0551 5.0449,4.0551 5.0449,4.062422 5.287801,4.062422 5.287801,4.0551 5.3704,4.0551 5.3704,4.062422 5.613301,4.062422 5.613301,4.0551 5.696601,4.0551 5.696601,4.062422 5.9395,4.062422 5.9395,4.0551 6.022799,4.0551 6.022799,4.062422 6.265,4.062422 6.265,4.0551 6.3483,4.0551 6.3483,4.062422 6.591201,4.062422 6.591201,4.0551 6.6745,4.0551 6.6745,4.062422 6.917399,4.062422 6.917399,4.0551 6.999999,4.0551 6.999999,4.062422 7.2429,4.062422 7.2429,4.0551 7.326199,4.0551 7.326199,4.062422 7.409479,4.062422 7.5691,4.062421 7.5691,4.0551 7.6524,4.0551 7.6524,4.062422 7.894599,4.062422 7.894599,4.0551 7.977898,4.0551 7.977898,4.062422 8.220799,4.062422 8.220799,4.0551 8.304099,4.0551 8.304099,4.062421 8.387138,4.062421 8.5463,4.062422 8.5463,4.0551 8.6296,4.0551 8.6296,4.062422 8.872499,4.062422 8.872499,4.0551 8.955798,4.0551 8.955798,4.062422 9.198699,4.062422 9.198699,4.0551 9.281299,4.0551 9.281299,4.062422 9.524199,4.062422 9.524199,4.0551 9.536507,4.055223 9.607499,4.055223 9.607499,4.062422 9.850398,4.062422 9.850398,4.0551 9.933,4.0551 9.933,4.062422 10.175899,4.062422 10.175899,4.0551 10.259202,4.0551 10.259202,4.062422 10.502101,4.062422 10.502101,4.0551 10.585401,4.0551 10.585401,4.062422 10.8276,4.062422 10.8276,4.0551 10.910901,4.0551 10.910901,4.062422 11.153802,4.062422 11.153802,4.0551 11.237102,4.0551 11.237102,4.062422 11.4793,4.062422 11.4793,4.0551 11.5626,4.0551 11.5626,4.062421 11.805501,4.062421 11.805501,4.0551 11.888801,4.0551 11.888801,4.062422 12.131701,4.062422 12.131701,4.0551 12.214301,4.0551 12.214301,4.062422 12.4572,4.062422 12.4572,4.0551 12.5405,4.0551 12.5405,4.062422 12.783401,4.062422 12.783401,4.0551 12.8667,4.0551 12.8667,4.062422 13.108901,4.062422 13.108901,4.0551 13.192201,4.0551 13.192201,4.062422 13.4351,4.062422 13.4351,4.0551 13.518399,4.0551 13.518399,4.062422 13.7613,4.062422 13.7613,4.0551 13.8439,4.0551 13.8439,4.062422 14.086801,4.062422 14.086801,4.0551 14.1701,4.0551 14.1701,4.062422 14.412999,4.062422 14.412999,4.0551 14.496299,4.0551 14.496299,4.062422 14.7385,4.062422 14.7385,4.0551 14.750688,4.0551 14.828375,4.054837" style="fill: white" /><polygon type="hole" points="7.078979,7.013151 7.066886,7.013151 7.013149,7.01405 7.013149,7.063978 7.013153,7.069193 7.013246,7.07906 7.013082,7.08512 7.013149,7.087265 7.013149,7.86883 7.013373,7.895476 7.013373,8.013477 7.013568,8.032322 7.013596,8.052214 7.013596,8.169543 7.01382,8.19619 7.01382,8.822457 7.013982,8.836828 7.014044,8.860074 7.014044,9.402745 7.014268,9.429392 7.014268,9.54717 7.014395,9.553802 7.014501,9.566202 7.014572,9.576256 7.014396,9.578394 7.014268,9.58501 7.014268,9.702787 7.014044,9.729434 7.014044,10.271628 7.013982,10.294875 7.01382,10.309245 7.01382,10.426575 7.013596,10.453222 7.013596,11.079489 7.013568,11.099382 7.013373,11.118226 7.013373,11.236227 7.013149,11.262873 7.013149,12.044436 7.013082,12.046582 7.013246,12.052642 7.013153,12.062323 7.01405,12.117806 7.063034,12.118434 7.06919,12.118549 7.079059,12.118455 7.085119,12.118619 7.087262,12.118552 7.868829,12.118552 7.895473,12.118329 8.013476,12.118329 8.032319,12.118132 8.052213,12.118105 8.226195,12.118105 8.621824,12.118104 8.67848,12.118105 8.705126,12.117882 8.822455,12.117882 8.836827,12.117719 8.860073,12.117657 8.918961,12.117657 9.315066,12.117656 9.402744,12.117656 9.429388,12.117433 9.547166,12.117433 9.553799,12.117306 9.566199,12.117199 9.576253,12.117128 9.578391,12.117305 9.585008,12.117433 9.702786,12.117433 9.72943,12.117656 10.271627,12.117656 10.294872,12.117719 10.309243,12.117881 10.426573,12.117881 10.453219,12.118105 11.079486,12.118105 11.09938,12.118132 11.118223,12.118329 11.236226,12.118329 11.26287,12.118552 12.044435,12.118552 12.046581,12.118619 12.052641,12.118455 12.062323,12.118549 12.11752,12.117334 12.118433,12.068665 12.118547,12.062323 12.118453,12.052642 12.118618,12.046582 12.118551,12.044436 12.118551,11.206219 12.118327,11.179572 12.118327,11.061572 12.118104,11.022834 12.118104,10.057116 12.11788,10.03047 12.11788,9.91314 12.117655,9.875524 12.117655,9.757521 12.117432,9.730877 12.117432,9.58501 12.117304,9.578394 12.117198,9.566201 12.117126,9.555977 12.117304,9.553803 12.117432,9.54717 12.117432,9.429392 12.117655,9.402745 12.117655,9.284744 12.11788,9.247128 12.11788,9.129798 12.118104,9.103151 12.118104,8.985823 12.118327,8.947085 12.118327,7.95213 12.118551,7.925484 12.118551,7.087264 12.118618,7.085121 12.118454,7.079061 12.118547,7.069193 12.117754,7.013947 12.068663,7.013267 12.062322,7.013155 12.052641,7.013248 12.046581,7.013084 12.044435,7.013151 11.206217,7.013151 11.179571,7.013375 11.06157,7.013375 11.022832,7.013599 10.057113,7.013599 10.030469,7.013822 9.913139,7.013822 9.875521,7.014046 9.75752,7.014046 9.730875,7.014271 9.585008,7.014271 9.57839,7.014398 9.566198,7.014503 9.555975,7.014575 9.553799,7.014398 9.547166,7.014271 9.429389,7.014271 9.402743,7.014046 9.256177,7.014046 9.218559,7.013822 9.10123,7.013822 9.074583,7.013599 8.108867,7.013599 8.070129,7.013375 7.952128,7.013375 7.925482,7.013151 7.087263,7.013151 7.082691,7.013008" style="fill: black" />
</svg>
