<svg width="19.131698" height="19.131699">
<polygon type="contour" points="9.60337,8.432615 9.711101,8.435889 9.711101,8.519143 10.413338,8.519143 10.415064,8.469958 10.416485,8.43232 10.686312,8.435702 10.696043,8.435658 10.696016,8.442759 10.695994,8.506751 10.695928,8.718231 10.612559,8.717941 10.612559,9.420602 10.700865,9.420602 10.700814,9.423924 10.700132,9.566202 10.700813,9.707794 10.700865,9.711102 10.612559,9.711102 10.612559,10.413061 10.695928,10.413472 10.695994,10.624952 10.696016,10.688944 10.696043,10.696046 10.686312,10.696002 10.416485,10.699382 10.415064,10.661744 10.413338,10.612561 9.711101,10.612561 9.711101,10.695815 9.60285,10.699089 9.5655,10.700136 9.52833,10.699089 9.4206,10.695815 9.4206,10.612561 8.718361,10.612561 8.716635,10.661744 8.715215,10.699382 8.445387,10.696002 8.435657,10.696046 8.435684,10.688944 8.435705,10.624952 8.435772,10.413472 8.519141,10.413761 8.519141,9.711102 8.430835,9.711102 8.430886,9.707778 8.431569,9.565502 8.430885,9.423908 8.430834,9.420602 8.519141,9.420602 8.519141,8.718642 8.435772,8.71823 8.435705,8.506751 8.435684,8.442759 8.435657,8.435658 8.445387,8.435702 8.715215,8.43232 8.716635,8.469958 8.718361,8.519143 9.4206,8.519143 9.4206,8.435889 9.528849,8.432614 9.566182,8.431568" style="fill: white" />
</svg>
