<svg width="19.131698" height="19.131699">
<polygon type="contour" points="8.071374,7.906515 8.180721,7.905636 8.182175,7.945761 8.182175,7.984231 8.182116,7.986571 8.182506,8.026155 8.182453,8.075056 8.182453,8.182454 7.965485,8.182671 7.907976,8.182671 7.906915,8.164426 7.90056,7.900562" style="fill: white" /><polygon type="contour" points="8.183523,8.466619 8.18412,8.550001 8.184244,8.567328 8.183667,8.68086 8.162369,8.680824 8.076359,8.680824 8.076955,8.591593 8.076939,8.544297 8.076747,8.465134 8.076677,8.444108 8.183523,8.444108" style="fill: white" /><polygon type="contour" points="11.224785,10.967277 11.231139,11.231142 11.060327,11.225189 10.95098,11.226068 10.949525,11.185941 10.949525,11.14715 10.949585,11.145131 10.949192,11.105548 10.949247,11.056646 10.949247,10.949249 11.166215,10.949033 11.223724,10.949033" style="fill: white" /><polygon type="contour" points="10.96933,10.45088 11.05534,10.45088 11.054745,10.540111 11.054752,10.584305 11.054951,10.666568 11.055022,10.687595 10.970546,10.687525 10.947923,10.687525 10.947923,10.665486 10.947486,10.55858 10.948033,10.450844" style="fill: white" /><polygon type="contour" points="10.68782,10.450844 10.68782,10.469938 10.687398,10.54604 10.687398,10.588442 10.687593,10.687595 10.60332,10.687822 10.588439,10.687401 10.539967,10.687401 10.450842,10.687822 10.450836,10.588441 10.450847,10.581694 10.450847,10.540111 10.450878,10.45088 10.469623,10.45088 10.575703,10.450838" style="fill: white" /><polygon type="contour" points="10.687593,10.948179 10.687593,11.055025 10.588439,11.054771 10.556829,11.054664 10.468636,11.055355 10.450878,11.055342 10.450842,11.033651 10.450842,10.948034 10.469937,10.948034 10.567389,10.947456" style="fill: white" /><polygon type="contour" points="9.95154,10.949016 10.183769,10.949016 10.183781,11.011318 10.183716,11.16174 10.183716,11.224015 10.094996,11.225439 9.891409,11.225401 9.890575,11.192332 9.890575,11.160515 9.890713,11.157625 9.890661,11.056347 9.890451,10.97215 9.890451,10.948853" style="fill: white" /><polygon type="contour" points="9.682306,10.971051 9.682293,11.054945 9.588941,11.05469 9.565514,11.054619 9.542106,11.054689 9.449408,11.054945 9.449408,10.947938 9.542105,10.948111 9.565519,10.948303 9.58894,10.948111 9.682306,10.947752" style="fill: white" /><polygon type="contour" points="9.241249,10.97215 9.241038,11.056347 9.240985,11.157624 9.241123,11.192333 9.240851,11.194871 9.24029,11.225401 9.036703,11.225439 8.947984,11.224015 8.947984,11.161741 8.947977,10.991136 8.947977,10.949247 9.180057,10.949033 9.241249,10.948853" style="fill: white" /><polygon type="contour" points="9.241678,10.470538 9.24192,10.546087 9.241978,10.564474 9.241678,10.687761 9.179832,10.687837 8.948772,10.687595 8.94884,10.665465 8.948575,10.558794 8.948973,10.469626 8.948973,10.45088 9.183956,10.45088 9.241678,10.450852" style="fill: white" /><polygon type="contour" points="9.682521,10.450852 9.682521,10.470538 9.68242,10.546088 9.68242,10.588605 9.682654,10.68752 9.661553,10.687595 9.548437,10.687521 9.548437,10.687544 9.542106,10.687522 9.449047,10.68752 9.449047,10.664488 9.449281,10.581679 9.449281,10.539804 9.44918,10.450852 9.468765,10.45088 9.532816,10.450623 9.567541,10.450484" style="fill: white" /><polygon type="contour" points="9.947742,10.45088 10.182727,10.45088 10.182727,10.469626 10.183126,10.558888 10.182858,10.665465 10.182909,10.687478 10.118986,10.68752 9.890145,10.68752 9.890145,10.664488 9.88971,10.565753 9.890021,10.450852" style="fill: white" /><polygon type="contour" points="10.183289,9.951242 10.183728,10.18373 10.124231,10.183757 9.890572,10.183326 9.890572,10.12008 9.890661,9.890664 10.005167,9.890664 10.120076,9.890573 10.183323,9.890573" style="fill: white" /><polygon type="contour" points="10.571534,8.948664 10.58844,8.948612 10.687593,8.948774 10.687518,9.012713 10.687759,9.24168 10.664965,9.24168 10.581678,9.241922 10.581677,9.241922 10.561429,9.24198 10.45085,9.24168 10.450915,9.008028 10.450944,8.948538 10.469473,8.948538" style="fill: white" /><polygon type="contour" points="10.183755,9.00747 10.183506,9.240941 10.122275,9.240941 9.890661,9.24104 9.890661,9.125166 9.890572,9.011624 9.890572,8.948378 9.951241,8.948412 10.183728,8.947973" style="fill: white" /><polygon type="contour" points="10.183716,7.907689 10.183716,7.969962 10.183723,8.140565 10.183723,8.182455 9.951642,8.182671 9.890451,8.182702 9.890451,8.159552 9.890661,8.075083 9.890713,7.973801 9.890574,7.93937 9.890849,7.936832 9.891409,7.906303 10.094996,7.906265" style="fill: white" /><polygon type="contour" points="10.182926,8.444108 10.182858,8.466239 10.183126,8.572817 10.182727,8.662077 10.182727,8.680824 9.947741,8.680824 9.890021,8.680851 9.890021,8.661165 9.889722,8.567144 9.890023,8.443942 9.951868,8.443867" style="fill: white" /><polygon type="contour" points="10.546037,8.4443 10.588439,8.4443 10.687593,8.444108 10.68782,8.528381 10.687398,8.543262 10.687398,8.591735 10.68782,8.68086 10.588439,8.680865 10.581692,8.680854 10.540109,8.680854 10.450878,8.680824 10.450878,8.662077 10.450835,8.556557 10.450842,8.443882 10.469937,8.443882" style="fill: white" /><polygon type="contour" points="10.540109,8.076956 10.587438,8.07694 10.666567,8.076749 10.687593,8.076679 10.687524,8.161154 10.687524,8.183778 10.665483,8.183778 10.581701,8.184121 10.558631,8.184215 10.450842,8.18367 10.450878,8.162372 10.450878,8.076361" style="fill: white" /><polygon type="contour" points="11.224512,8.092516 11.223944,8.182454 10.949247,8.182454 10.949247,8.075057 10.949192,8.026155 10.949585,7.986572 10.949525,7.945761 10.949931,7.943 10.950979,7.905636 11.060327,7.906515 11.23114,7.900562" style="fill: white" /><polygon type="contour" points="11.054768,8.543263 11.054661,8.574886 11.055353,8.663064 11.05534,8.680824 11.033649,8.68086 10.948033,8.68086 10.948033,8.661765 10.947516,8.574886 10.947454,8.564337 10.948177,8.444108 11.055023,8.444108" style="fill: white" /><polygon type="contour" points="11.223682,9.00747 11.223826,9.24113 10.948971,9.24113 10.949158,9.009426 10.949337,8.948164 10.971005,8.948226 11.191073,8.947974 11.223638,8.947974" style="fill: white" /><polygon type="contour" points="11.054943,9.449409 11.054687,9.542761 11.054616,9.566188 11.054687,9.589596 11.054943,9.682295 10.971048,9.682307 10.94775,9.682307 10.947923,9.661646 10.948236,9.55832 10.948109,9.542762 10.94775,9.449397 10.971048,9.449397" style="fill: white" /><polygon type="contour" points="11.122089,9.890664 11.223918,9.890664 11.223682,10.124233 11.223694,10.12494 11.223638,10.18373 11.191073,10.18373 10.971178,10.183723 10.94903,10.183786 10.94885,10.121174 10.94885,9.890452 10.972149,9.890452" style="fill: white" /><polygon type="contour" points="10.687759,9.890025 10.687835,9.95187 10.687593,10.182927 10.665463,10.182859 10.556676,10.183134 10.450878,10.18273 10.45085,10.122557 10.45085,9.890022 10.470536,9.890022 10.546085,9.889783 10.564602,9.889724" style="fill: white" /><polygon type="contour" points="10.546086,9.449283 10.588604,9.449283 10.687638,9.449409 10.687714,9.4704 10.687468,9.583266 10.687543,9.583266 10.687521,9.589597 10.687518,9.682656 10.603745,9.682523 10.588603,9.682422 10.539802,9.682422 10.45085,9.682523 10.450878,9.662938 10.450483,9.56416 10.45085,9.449181 10.470537,9.449181" style="fill: white" /><polygon type="contour" points="10.182834,9.449408 10.182795,9.470104 10.183045,9.568748 10.182835,9.682295 10.119257,9.682295 9.890023,9.682482 9.890023,9.661048 9.889633,9.564862 9.890023,9.449222 9.953268,9.449222" style="fill: white" /><polygon type="contour" points="9.682293,9.449409 9.682293,9.470955 9.682724,9.567632 9.682293,9.682295 9.660746,9.682295 9.582589,9.682644 9.56407,9.682726 9.449408,9.682295 9.449408,9.660748 9.449056,9.583233 9.448973,9.564881 9.449408,9.449409 9.542106,9.449058 9.588941,9.449058" style="fill: white" /><polygon type="contour" points="9.682293,9.890086 9.682293,10.182836 9.661596,10.182797 9.562959,10.183047 9.449408,10.182836 9.449408,9.890086 9.542106,9.88971 9.58894,9.88971" style="fill: white" /><polygon type="contour" points="9.241038,9.890663 9.241038,10.006538 9.241128,10.120079 9.241128,10.183326 9.180457,10.183292 8.947972,10.18373 8.947945,10.124233 8.948377,9.890573 9.011623,9.890573" style="fill: white" /><polygon type="contour" points="9.241993,9.542761 9.241993,9.589596 9.241617,9.682295 8.948863,9.682295 8.948902,9.661599 8.948656,9.563752 8.948863,9.449409 9.241617,9.449409" style="fill: white" /><polygon type="contour" points="9.240939,8.948196 9.240939,9.009426 9.241038,9.24104 9.126534,9.24104 9.009423,9.240941 8.948194,9.240941 8.948223,9.182223 8.947972,8.947973 9.007468,8.947946" style="fill: white" /><polygon type="contour" points="9.682293,8.948866 9.682293,9.012443 9.68248,9.24168 9.58894,9.241995 9.542106,9.241995 9.449408,9.241619 9.449408,8.948866 9.470103,8.948905 9.567939,8.948656" style="fill: white" /><polygon type="contour" points="9.582608,8.444235 9.582608,8.44416 9.58894,8.444182 9.682654,8.444184 9.682654,8.467216 9.68242,8.550024 9.68242,8.5919 9.682521,8.680851 9.662935,8.680824 9.563489,8.681218 9.44918,8.680851 9.44918,8.661165 9.449281,8.585617 9.449281,8.543098 9.449408,8.444064 9.4704,8.443988" style="fill: white" /><polygon type="contour" points="9.682293,8.183614 9.661299,8.183588 9.559404,8.183527 9.542105,8.183549 9.449408,8.183614 9.449408,8.076759 9.542106,8.077014 9.565514,8.077084 9.588941,8.077013 9.682293,8.076759" style="fill: white" /><polygon type="contour" points="9.24029,7.906303 9.241123,7.939371 9.241123,7.970923 9.240985,7.973802 9.241038,8.075083 9.241249,8.159552 9.241249,8.182702 9.180056,8.182671 8.947915,8.182671 8.947919,8.120384 8.947984,7.969963 8.947984,7.907689 9.036703,7.906265" style="fill: white" /><polygon type="contour" points="8.680822,8.076361 8.680858,8.098051 8.680858,8.18367 8.661762,8.18367 8.585663,8.184121 8.564312,8.184247 8.444106,8.183525 8.444106,8.076679 8.54326,8.076931 8.57519,8.077035 8.663062,8.076349" style="fill: white" /><polygon type="contour" points="9.012711,8.444184 9.241556,8.444184 9.241556,8.467215 9.24192,8.550024 9.24199,8.566034 9.241678,8.680851 9.183957,8.680824 8.948973,8.680824 8.948973,8.662078 8.948575,8.57291 8.94884,8.466239 8.948772,8.444108" style="fill: white" /><polygon type="contour" points="8.680864,8.543263 8.680853,8.55001 8.680853,8.591593 8.680822,8.680824 8.662076,8.680824 8.555997,8.680865 8.44388,8.68086 8.44388,8.661765 8.444299,8.585665 8.444299,8.543262 8.444106,8.444108 8.528379,8.443882 8.543261,8.4443 8.591732,8.4443 8.680858,8.443882" style="fill: white" /><polygon type="contour" points="8.680783,9.008028 8.680849,9.24168 8.661162,9.24168 8.585614,9.241922 8.573486,9.24196 8.562883,9.241994 8.444182,9.241558 8.444106,9.179057 8.444106,8.948774 8.466236,8.948843 8.550007,8.948633 8.550008,8.948677 8.680756,8.948538" style="fill: white" /><polygon type="contour" points="8.182701,9.010528 8.182579,9.24113 8.159182,9.24113 8.009609,9.24104 7.907782,9.24104 7.908018,9.00747 7.908007,9.006761 7.908062,8.947974 7.940627,8.947974 8.160521,8.94798 8.18267,8.947917" style="fill: white" /><polygon type="contour" points="8.183547,9.542761 8.183517,9.566183 8.183547,9.589597 8.183612,9.682295 8.076757,9.682295 8.077013,9.589596 8.077083,9.566188 8.077012,9.542761 8.076756,9.449409 8.160651,9.449397 8.183801,9.449397" style="fill: white" /><polygon type="contour" points="8.527954,9.44918 8.543097,9.449283 8.591898,9.449283 8.680849,9.449181 8.680822,9.468766 8.681216,9.568386 8.680849,9.682523 8.661163,9.682523 8.585615,9.682422 8.543096,9.682422 8.444182,9.682656 8.444106,9.661555 8.444179,9.549095 8.444157,9.549095 8.444179,9.542761 8.444182,9.449049" style="fill: white" /><polygon type="contour" points="8.680849,9.890022 8.680783,10.123675 8.680756,10.183166 8.662226,10.183166 8.560166,10.183039 8.54326,10.183092 8.444106,10.182927 8.444182,10.118987 8.444182,9.890147 8.467213,9.890147 8.565908,9.889713" style="fill: white" /><polygon type="contour" points="8.182701,10.121175 8.18267,10.183787 8.160521,10.183724 7.940627,10.18373 7.908062,10.18373 7.908018,10.124233 7.907875,9.890573 8.182579,9.890573" style="fill: white" /><polygon type="contour" points="8.183667,10.469939 8.184246,10.567362 8.183523,10.687595 8.076677,10.687595 8.076931,10.588441 8.077034,10.5565 8.076347,10.468639 8.076359,10.45088 8.098049,10.450844 8.183667,10.450844" style="fill: white" /><polygon type="contour" points="8.550008,10.45085 8.591591,10.45085 8.680822,10.45088 8.680822,10.469626 8.680864,10.575148 8.680858,10.687822 8.661763,10.687822 8.585662,10.687401 8.54326,10.687401 8.444106,10.687595 8.443879,10.603322 8.444299,10.588442 8.444299,10.53997 8.44388,10.450844 8.543261,10.450839" style="fill: white" /><polygon type="contour" points="8.680858,10.948033 8.680822,10.969331 8.680822,11.055342 8.591591,11.054748 8.547383,11.054755 8.465132,11.054954 8.444106,11.055025 8.444176,10.970548 8.444176,10.947925 8.466215,10.947925 8.573099,10.947488" style="fill: white" /><polygon type="contour" points="8.182453,11.056647 8.182506,11.105548 8.182116,11.145131 8.182175,11.185942 8.181768,11.188704 8.180721,11.226068 8.071374,11.225189 7.90056,11.231142 7.907189,11.039186 7.907756,10.949249 8.182453,10.949249" style="fill: white" />
</svg>
