<svg width="19.131698" height="19.131699">
<polygon type="contour" points="17.881942,15.287394 17.881942,15.952035 17.881916,16.079055 17.618473,16.079201 17.54893,16.0793 17.549182,15.507616 17.549182,15.282533 17.668608,15.27993" style="fill: white" /><polygon type="contour" points="18.227293,15.290923 18.238872,15.290923 18.23925,15.552261 18.2393,15.662398 18.239304,15.68661 18.239296,15.746599 18.321071,15.746599 18.325591,15.746618 18.325785,15.746622 18.334532,15.746635 18.334532,15.772958 18.333812,16.079112 18.329399,16.079097 18.324714,16.079118 18.321256,16.079093 18.319799,16.07912 18.309282,16.079162 18.302873,16.079177 18.143578,16.079283 18.127368,16.079283 18.001246,16.079098 18.00124,15.948307 18.00124,15.284897" style="fill: white" /><polygon type="contour" points="18.111218,16.267408 18.143624,16.267408 18.143595,16.317679 18.14352,16.462857 18.026906,16.462346 18.001204,16.462346 18.001204,16.302198 18.001234,16.267009" style="fill: white" /><polygon type="contour" points="17.881974,16.431669 17.881892,16.462346 17.822172,16.462346 17.549182,16.462857 17.54893,16.317678 17.54893,16.267446 17.822171,16.267046 17.881974,16.267009" style="fill: white" /><polygon type="contour" points="18.333812,18.000612 18.333802,18.0099 18.334514,18.328013 18.334514,18.334516 18.306286,18.334544 18.306118,18.334516 18.000604,18.333808 18.000626,18.329401 18.000626,18.324973 18.00062,18.324823 18.000624,18.321441 18.000626,18.320002 18.000674,18.310029 18.00069,18.304052 18.001254,18.144058 18.001254,18.133778 18.001258,18.001256 18.144056,18.001256 18.30405,18.000692 18.310027,18.000676 18.32,18.000628 18.321439,18.000626 18.324822,18.000621 18.329399,18.000628 18.329615,18.00061" style="fill: white" /><polygon type="contour" points="18.144006,17.822173 18.144056,17.881918 18.001258,17.881918 18.001256,17.597293 18.001204,17.54952 18.094306,17.549186 18.14352,17.549186" style="fill: white" /><polygon type="contour" points="17.822171,17.54952 17.881892,17.54952 17.881896,17.822173 17.88192,17.881918 17.597293,17.881918 17.54952,17.881894 17.54952,17.822173 17.549182,17.549186" style="fill: white" /><polygon type="contour" points="17.597293,18.001258 17.88192,18.001258 17.88192,18.021818 17.881916,18.144058 17.822172,18.144008 17.549182,18.143522 17.54952,18.026907 17.54952,18.001206" style="fill: white" /><polygon type="contour" points="16.462855,18.094307 16.462855,18.143522 16.402589,18.143556 16.267405,18.143626 16.267005,18.023639 16.267005,18.001236 16.431666,18.001236 16.462344,18.001206" style="fill: white" /><polygon type="contour" points="15.953071,18.001228 16.079098,18.001248 16.079098,18.011968 16.079279,18.143581 16.079176,18.302875 16.07916,18.309284 16.079118,18.319802 16.079091,18.321258 16.079116,18.324716 16.079096,18.324974 16.079096,18.329402 16.07911,18.329618 16.079112,18.333814 15.772958,18.334534 15.746635,18.334534 15.746618,18.325594 15.746598,18.321073 15.746598,18.240484 15.693728,18.239178 15.566583,18.239086 15.271755,18.239086 15.274286,18.10098 15.289486,18.001168 15.938955,18.001168" style="fill: white" /><polygon type="contour" points="16.079297,17.548932 16.079197,17.618475 16.079055,17.881918 15.952035,17.881944 15.287393,17.881944 15.279929,17.66861 15.282318,17.548914 15.900931,17.548732" style="fill: white" /><polygon type="contour" points="16.395546,17.549186 16.462855,17.549186 16.462344,17.822174 16.462344,17.881894 16.302194,17.881894 16.267005,17.881976 16.267043,17.822173 16.267443,17.548932" style="fill: white" /><polygon type="contour" points="16.462746,16.267446 16.462855,16.395548 16.462855,16.462857 16.317674,16.462747 16.267443,16.462747 16.267443,16.317678 16.267405,16.267408 16.418388,16.267408" style="fill: white" /><polygon type="contour" points="16.079323,16.267408 16.079323,16.418388 16.079297,16.462747 15.900932,16.462864 15.282318,16.463011 15.286106,16.320153 15.284926,16.267303 15.899485,16.267303" style="fill: white" /><polygon type="contour" points="16.079145,15.85111 16.079208,15.897969 16.079279,16.079283 15.893963,16.079274 15.281014,16.079274 15.277232,15.507498 15.289732,15.289734 15.725681,15.290687 16.079145,15.288269" style="fill: white" /><polygon type="contour" points="16.463009,15.282319 16.462863,15.900935 16.462747,16.079299 16.418388,16.079327 16.267405,16.079327 16.267299,15.899489 16.267299,15.284929 16.392508,15.280749" style="fill: white" /><polygon type="contour" points="16.079055,1.249783 16.079197,1.513224 16.079297,1.58277 15.507615,1.582517 15.282532,1.582517 15.279929,1.463093 15.287393,1.249758 15.952035,1.249758" style="fill: white" /><polygon type="contour" points="16.079112,0.79789 16.079096,0.802302 16.079116,0.806987 16.079091,0.810445 16.079118,0.811902 16.079161,0.822421 16.079175,0.828826 16.079279,0.988121 16.079279,1.00433 16.079098,1.130456 16.041458,1.130446 15.938955,1.130535 15.289486,1.130535 15.274286,1.030723 15.271756,0.892618 15.566583,0.892618 15.693728,0.892526 15.746598,0.89121 15.746598,0.810629 15.746618,0.806111 15.746622,0.805916 15.746635,0.79717 15.772959,0.79717" style="fill: white" /><polygon type="contour" points="16.317674,0.988103 16.462855,0.988181 16.462344,1.104794 16.462344,1.130497 16.302194,1.130497 16.267005,1.130466 16.267405,1.020481 16.267405,0.988076" style="fill: white" /><polygon type="contour" points="16.462344,1.249809 16.462344,1.309528 16.462855,1.582517 16.317675,1.58277 16.267443,1.58277 16.267043,1.309529 16.267005,1.249727 16.431667,1.249727" style="fill: white" /><polygon type="contour" points="18.334514,0.797188 18.334514,0.80369 18.333802,1.121804 18.333812,1.131092 18.3294,1.131075 18.324971,1.131075 18.324821,1.131082 18.321439,1.131078 18.319999,1.131077 18.310028,1.131028 18.30405,1.131011 18.144055,1.130446 18.001254,1.130446 18.001254,0.987646 18.000689,0.827652 18.000673,0.821672 18.000626,0.811702 18.000624,0.81026 18.00062,0.806878 18.000626,0.802302 18.000607,0.802087 18.000603,0.797897 18.306117,0.797188 18.306285,0.797159" style="fill: white" /><polygon type="contour" points="17.881916,1.130446 17.597292,1.130446 17.549518,1.130497 17.549182,1.037395 17.549182,0.988181 17.822172,0.987695 17.881916,0.987646" style="fill: white" /><polygon type="contour" points="17.881974,1.30189 17.881892,1.309528 17.881892,1.582183 17.822171,1.582183 17.549182,1.582517 17.549518,1.309529 17.549518,1.249809 17.822172,1.249809 17.881915,1.249784" style="fill: white" /><polygon type="contour" points="18.144006,1.309529 18.14352,1.582517 18.026905,1.582183 18.001204,1.582183 18.001204,1.309528 18.001256,1.249784 18.144056,1.249784" style="fill: white" /><polygon type="contour" points="18.302874,3.052528 18.309281,3.05254 18.319799,3.052585 18.321256,3.052612 18.324714,3.052587 18.324972,3.052607 18.3294,3.052607 18.329616,3.052593 18.333812,3.052591 18.334532,3.358744 18.334532,3.385068 18.325592,3.385084 18.321071,3.385105 18.239537,3.385105 18.239348,3.438036 18.239082,3.565118 18.239082,3.859946 18.046133,3.84271 18.001244,3.846747 18.001246,3.811408 18.001246,3.052602 18.011966,3.052602 18.143578,3.052421" style="fill: white" /><polygon type="contour" points="18.143554,2.729112 18.143624,2.864295 18.023637,2.864695 18.001234,2.864695 18.001234,2.700035 18.001204,2.669358 18.094306,2.668846 18.14352,2.668846" style="fill: white" /><polygon type="contour" points="17.822172,2.669358 17.881892,2.669358 17.881892,2.829505 17.881974,2.864695 17.822171,2.864656 17.54893,2.864257 17.549182,2.736154 17.549182,2.668846" style="fill: white" /><polygon type="contour" points="17.618474,3.052503 17.881916,3.052645 17.881942,3.179532 17.881942,3.844177 17.668608,3.851523 17.548912,3.849386 17.54873,3.230768 17.54893,3.052404" style="fill: white" /><polygon type="contour" points="16.079208,3.233734 16.079145,3.280361 16.079145,3.843204 15.564293,3.844974 15.289732,3.841969 15.290685,3.406019 15.281015,3.052429 15.893963,3.052429 16.079279,3.052421" style="fill: white" /><polygon type="contour" points="16.462747,3.052404 16.462863,3.230768 16.463009,3.849385 16.32015,3.845595 16.267299,3.846775 16.267299,3.232214 16.267405,3.052377 16.418388,3.052377" style="fill: white" /><polygon type="contour" points="16.462747,2.814023 16.462747,2.864257 16.317674,2.864257 16.267405,2.864295 16.267405,2.713314 16.267443,2.668955 16.395546,2.668846 16.462855,2.668846" style="fill: white" /><polygon type="contour" points="15.900932,2.668839 16.079297,2.668955 16.079297,2.814023 16.079323,2.864295 15.899485,2.864401 15.284926,2.864401 15.280747,2.739193 15.282318,2.668693" style="fill: white" /><polygon type="contour" points="1.130445,1.534407 1.130495,1.582183 1.037394,1.582517 0.988179,1.582517 0.987695,1.309528 0.987644,1.249784 1.130445,1.249784" style="fill: white" /><polygon type="contour" points="0.825581,0.797188 1.131097,0.797897 1.131074,0.802302 1.131074,0.806729 1.131079,0.806878 1.131076,0.810261 1.131075,0.811702 1.131026,0.821672 1.13101,0.827652 1.130445,0.987646 1.130445,1.130446 0.987644,1.130446 0.82765,1.131011 0.821671,1.131028 0.8117,1.131077 0.81026,1.131078 0.806878,1.131082 0.802299,1.131075 0.802085,1.131094 0.797889,1.131092 0.797898,1.121805 0.797187,0.803689 0.797187,0.797188 0.825414,0.797159" style="fill: white" /><polygon type="contour" points="1.309527,0.987696 1.582516,0.988181 1.582181,1.104794 1.582181,1.130497 1.534405,1.130446 1.249782,1.130446 1.249782,0.987646" style="fill: white" /><polygon type="contour" points="1.582181,1.249809 1.582181,1.309528 1.582515,1.582517 1.309527,1.582183 1.249808,1.582183 1.249808,1.309528 1.249782,1.249784 1.534405,1.249784" style="fill: white" /><polygon type="contour" points="2.864656,1.309528 2.864254,1.58277 2.736152,1.582517 2.668844,1.582517 2.669357,1.309529 2.669357,1.249809 2.829504,1.249809 2.864694,1.249727" style="fill: white" /><polygon type="contour" points="2.864694,1.108064 2.864694,1.130467 2.700034,1.130467 2.669357,1.130497 2.668844,1.037394 2.668844,0.988181 2.679183,0.988175 2.864292,0.988076" style="fill: white" /><polygon type="contour" points="3.385083,0.806111 3.385103,0.810629 3.385103,0.892405 3.44509,0.892397 3.469304,0.892402 3.57944,0.89245 3.84078,0.892827 3.839589,0.905652 3.842068,1.130535 3.192597,1.130535 3.178627,1.130475 3.052601,1.130456 3.052601,1.119734 3.052418,0.988121 3.052526,0.828826 3.052539,0.822421 3.052583,0.811902 3.05261,0.810445 3.052585,0.806987 3.052605,0.806729 3.052605,0.802301 3.052591,0.802086 3.05259,0.797891 3.358741,0.79717 3.385067,0.79717" style="fill: white" /><polygon type="contour" points="3.851521,1.463093 3.849383,1.582789 3.230766,1.58297 3.052401,1.58277 3.052501,1.513224 3.052644,1.249784 3.17953,1.249758 3.844174,1.249758" style="fill: white" /><polygon type="contour" points="3.845593,2.811548 3.846774,2.864401 3.232212,2.864401 3.052374,2.864295 3.052374,2.713314 3.052401,2.668956 3.230765,2.668839 3.849384,2.668693" style="fill: white" /><polygon type="contour" points="3.237734,3.052429 3.850685,3.052429 3.854466,3.624204 3.841967,3.841969 3.406016,3.841017 3.052553,3.843204 3.052553,3.280361 3.05249,3.233735 3.052418,3.052421" style="fill: white" /><polygon type="contour" points="2.864399,3.232214 2.864399,3.846775 2.739191,3.850957 2.668691,3.849386 2.668837,3.230767 2.668953,3.052404 2.713312,3.052377 2.864293,3.052377" style="fill: white" /><polygon type="contour" points="2.814022,2.668956 2.864254,2.668956 2.864254,2.814024 2.864293,2.864295 2.713312,2.864295 2.668954,2.864257 2.668844,2.736154 2.668844,2.668846" style="fill: white" /><polygon type="contour" points="1.582768,2.814024 1.582768,2.864257 1.309527,2.864656 1.249726,2.864694 1.249726,2.700034 1.249808,2.669358 1.309526,2.669358 1.582515,2.668846" style="fill: white" /><polygon type="contour" points="1.104793,2.669358 1.130495,2.669358 1.130495,2.829505 1.130464,2.864695 1.020479,2.864295 0.988075,2.864295 0.988102,2.814023 0.988179,2.668846" style="fill: white" /><polygon type="contour" points="1.130454,3.052602 1.130454,3.811408 1.130455,3.846747 1.085566,3.84271 0.892616,3.859946 0.892616,3.565119 0.892348,3.438035 0.892167,3.385105 0.810627,3.385105 0.806108,3.385085 0.805914,3.385082 0.797168,3.385069 0.797168,3.358743 0.797889,3.052592 0.8023,3.052607 0.806985,3.052586 0.810443,3.052612 0.8119,3.052585 0.822419,3.052541 0.828826,3.052528 0.988118,3.052421 1.004329,3.052421" style="fill: white" /><polygon type="contour" points="1.582516,3.624088 1.582516,3.849171 1.463092,3.851523 1.249757,3.844176 1.249757,3.179532 1.249782,3.052645 1.513222,3.052503 1.582768,3.052404" style="fill: white" /><polygon type="contour" points="1.130465,16.431668 1.130495,16.462346 1.037393,16.462857 0.988179,16.462857 0.988173,16.452518 0.988075,16.267408 1.108061,16.267009 1.130465,16.267009" style="fill: white" /><polygon type="contour" points="1.309527,16.267046 1.582768,16.267446 1.582516,16.395548 1.582516,16.462857 1.309526,16.462346 1.249808,16.462346 1.249808,16.302198 1.249726,16.267009" style="fill: white" /><polygon type="contour" points="1.13046,15.948307 1.130454,16.079098 1.119732,16.079098 0.988119,16.079283 0.828826,16.079177 0.822419,16.079163 0.8119,16.07912 0.810443,16.079093 0.806985,16.079118 0.806727,16.079098 0.802299,16.079098 0.802085,16.079112 0.797889,16.079113 0.797168,15.772959 0.797168,15.746635 0.806108,15.746618 0.810627,15.746599 0.892403,15.746599 0.892395,15.686611 0.8924,15.662397 0.892448,15.552262 0.892826,15.290923 1.084916,15.284897 1.13046,15.284897" style="fill: white" /><polygon type="contour" points="1.582787,15.282319 1.582968,15.900935 1.582768,16.0793 1.513222,16.079201 1.249782,16.079055 1.249757,15.952035 1.249757,15.287394 1.463092,15.27993" style="fill: white" /><polygon type="contour" points="3.841967,15.289734 3.841015,15.725685 3.850685,16.079274 3.237734,16.079274 3.052418,16.079283 3.05249,15.897968 3.052553,15.85111 3.052553,15.288269 3.567404,15.286446" style="fill: white" /><polygon type="contour" points="2.811546,15.28611 2.864399,15.284929 2.864399,15.899489 2.864293,16.079327 2.713312,16.079327 2.668953,16.079299 2.668837,15.900936 2.668691,15.282319" style="fill: white" /><polygon type="contour" points="2.864293,16.418389 2.864254,16.462747 2.736151,16.462857 2.668844,16.462857 2.668954,16.317678 2.668954,16.267446 2.814022,16.267446 2.864293,16.267408" style="fill: white" /><polygon type="contour" points="3.850955,16.392511 3.849384,16.463011 3.230765,16.462864 3.052401,16.462747 3.052401,16.317678 3.052374,16.267408 3.232212,16.267303 3.846774,16.267303" style="fill: white" /><polygon type="contour" points="3.839589,18.22605 3.84078,18.238876 3.57944,18.239251 3.469303,18.239302 3.445091,18.239306 3.385103,18.239298 3.385103,18.321073 3.385083,18.325593 3.38508,18.325787 3.385067,18.334534 3.358742,18.334534 3.05259,18.333813 3.052605,18.329401 3.052584,18.324716 3.05261,18.321258 3.052583,18.319801 3.05254,18.309284 3.052526,18.302875 3.052418,18.143582 3.052418,18.127371 3.052601,18.001248 3.178627,18.001228 3.192597,18.001168 3.842068,18.001168" style="fill: white" /><polygon type="contour" points="3.624086,17.549186 3.849169,17.549186 3.851521,17.668609 3.844175,17.881944 3.17953,17.881944 3.052644,17.881918 3.052501,17.618475 3.052401,17.548932" style="fill: white" /><polygon type="contour" points="2.864656,17.822173 2.864694,17.881976 2.700033,17.881976 2.669357,17.881894 2.669357,17.822173 2.668844,17.549186 2.814022,17.548932 2.864254,17.548932" style="fill: white" /><polygon type="contour" points="2.864694,18.001236 2.864293,18.11122 2.864293,18.143626 2.814021,18.143599 2.668844,18.143522 2.669357,18.026907 2.669357,18.001206 2.829504,18.001206" style="fill: white" /><polygon type="contour" points="1.582516,18.094307 1.582516,18.143522 1.309527,18.144007 1.249782,18.144058 1.249782,18.001258 1.534406,18.001258 1.582181,18.001206" style="fill: white" /><polygon type="contour" points="1.582181,17.822174 1.582181,17.881894 1.309526,17.881894 1.249782,17.881918 1.249726,17.829812 1.249808,17.822173 1.249808,17.54952 1.309527,17.54952 1.582515,17.549186" style="fill: white" /><polygon type="contour" points="1.104793,17.54952 1.130495,17.54952 1.130495,17.822173 1.130445,17.881918 0.987644,17.881918 0.987695,17.822173 0.988179,17.549186" style="fill: white" /><polygon type="contour" points="0.8023,18.000628 0.806728,18.000628 0.806878,18.000622 0.81026,18.000626 0.811699,18.000628 0.821672,18.000676 0.82765,18.000691 0.987644,18.001256 1.130445,18.001256 1.130445,18.144057 1.13101,18.304052 1.131026,18.31003 1.131075,18.320001 1.131076,18.321441 1.13108,18.324824 1.131074,18.329401 1.131092,18.329617 1.131097,18.333808 0.825581,18.334516 0.825414,18.334544 0.797187,18.334516 0.797187,18.328013 0.797898,18.0099 0.797889,18.000612" style="fill: white" />
</svg>
