<svg width="19.131698" height="19.131699">
<polygon type="contour" points="13.686664,7.603458 13.686669,7.695224 13.686705,7.796473 13.646016,7.792566 13.469516,7.79008 13.424469,7.790483 13.424576,7.636193 13.424647,7.594287 13.426516,6.83321 13.426743,6.818405 13.427009,6.731461 13.427226,6.657501 13.686626,6.657501" style="fill: white" /><polygon type="contour" points="15.846138,6.695684 15.846194,6.756961 15.84618,6.76153 15.846177,7.830049 15.794784,7.833425 15.608422,7.811496 15.608503,7.637771 15.608828,6.6575 15.805764,6.656921 15.846248,6.656921" style="fill: white" /><polygon type="contour" points="14.884569,3.522989 14.690709,3.523524 14.671842,3.523524 14.342975,3.523126 14.342975,3.380325 14.65494,3.380705 14.681848,3.38072 14.695318,3.380712 14.884569,3.380189" style="fill: white" /><polygon type="contour" points="15.941618,3.190082 15.941618,3.2489 15.941392,3.350311 15.941564,3.523339 15.859381,3.523026 15.776888,3.523026 15.774103,3.523145 15.751375,3.523125 15.608577,3.523125 15.608577,3.380325 15.608556,3.357598 15.608677,3.272319 15.608335,3.268319 15.608248,3.190253 15.684741,3.190076 15.686256,3.189816" style="fill: white" /><polygon type="contour" points="15.751533,4.269234 15.750988,4.439756 15.750977,4.459858 15.751376,4.788727 15.608575,4.788727 15.608163,4.447813 15.608183,4.441405 15.608711,4.271883 15.608711,4.247133 15.751515,4.247133" style="fill: white" /><polygon type="contour" points="14.884231,4.418367 14.884187,4.456442 14.884187,4.463992 14.884502,4.789519 14.677527,4.789639 14.412338,4.788727 14.342975,4.788727 14.34206,4.456571 14.342061,4.456441 14.342181,4.274075 14.342181,4.2472 14.671842,4.247518 14.715141,4.247454 14.859819,4.247133 14.884569,4.247133" style="fill: white" /><polygon type="contour" points="14.668425,5.445015 14.857627,5.445112 14.884502,5.445112 14.884494,5.647979 14.884519,5.678481 14.884289,5.712154 14.884476,5.754529 14.88429,5.791166 14.769744,5.791166 14.694102,5.790622 14.569396,5.792116 14.343014,5.792604 14.342728,5.713844 14.342692,5.70967 14.342892,5.659794 14.342975,5.444625 14.412339,5.444625" style="fill: white" /><polygon type="contour" points="15.776888,5.445132 15.859382,5.445132 15.863381,5.444865 15.941564,5.444839 15.941787,5.539672 15.941787,5.777814 15.860906,5.777965 15.846373,5.778027 15.749601,5.778485 15.751073,5.790257 15.743758,5.790257 15.60874,5.790258 15.608764,5.444854 15.6663,5.444854 15.751377,5.444902 15.772087,5.444754" style="fill: white" /><polygon type="contour" points="15.608679,5.848688 15.6083,5.810368 15.608575,5.800973" style="fill: white" /><polygon type="contour" points="15.648331,6.179967 15.751298,6.179967 15.751159,6.213176 15.75103,6.280484 15.6552,6.280957 15.608701,6.280957 15.608274,6.218419 15.608391,6.179833" style="fill: white" /><polygon type="contour" points="14.884183,6.225434 14.884464,6.280389 14.692478,6.280632 14.66915,6.280632 14.343136,6.280509 14.343136,6.212219 14.342529,6.179784 14.651059,6.179833 14.68886,6.179833 14.777494,6.1797 14.884183,6.1797" style="fill: white" /><polygon type="contour" points="14.738838,6.656258 14.884211,6.656258 14.884211,6.922894 14.884149,7.11145 14.884601,7.845413 14.703764,7.797172 14.672367,7.79706 14.590771,7.861313 14.559858,7.844559 14.342621,7.818313 14.343031,7.537581 14.342848,7.452787 14.342883,7.433768 14.342883,6.712443 14.342874,6.687568 14.343066,6.66113 14.342809,6.65744 14.622282,6.654268 14.688868,6.654268" style="fill: white" /><polygon type="contour" points="13.686859,6.213407 13.686662,6.218064 13.68673,6.280957 13.490034,6.280523 13.428319,6.280523 13.428382,6.261635 13.428463,6.179833 13.686889,6.179833" style="fill: white" /><polygon type="contour" points="13.409336,5.444771 13.423785,5.444926 13.427395,5.444723 13.442657,5.444828 13.459305,5.444686 13.47313,5.444938 13.483832,5.444661 13.490696,5.444722 13.686799,5.444902 13.686805,5.648375 13.686998,5.652121 13.686764,5.658572 13.686914,5.664457 13.68707,5.679275 13.686824,5.695929 13.686624,5.713749 13.686982,5.732421 13.686895,5.787136 13.686768,5.790223 13.664793,5.790223 13.645567,5.790066 13.560472,5.790445 13.429758,5.790445 13.429664,5.775933 13.429614,5.767126 13.429571,5.755164 13.429362,5.702256 13.376538,5.702131 13.364576,5.702088 13.355769,5.702038 13.341257,5.701945 13.341257,5.57123 13.341637,5.486134 13.34148,5.466907 13.34148,5.444933 13.341481,5.444945 13.390535,5.444975 13.403853,5.444516" style="fill: white" /><polygon type="contour" points="12.951868,5.703237 12.918293,5.703337 12.850745,5.703351 12.850745,5.444972 12.913279,5.444928 12.951868,5.444812" style="fill: white" /><polygon type="contour" points="12.370984,5.445093 12.400183,5.445075 12.434814,5.445064 12.4742,5.445075 12.4742,5.704475 12.427417,5.704679 12.400238,5.704692 12.369837,5.704814 12.313295,5.704958 12.29849,5.705189 11.537413,5.707056 11.341226,5.707233 11.34075,5.450534 11.33973,5.44487" style="fill: white" /><polygon type="contour" points="12.474319,3.285575 12.474493,3.352033 12.474493,3.522835 12.352451,3.522938 11.967134,3.522972 11.752456,3.523003 11.310062,3.523109 11.333393,3.435928 11.295559,3.336917 11.301652,3.285526 12.369548,3.285524 12.374114,3.28551" style="fill: white" /><polygon type="contour" points="12.951734,3.380404 12.951868,3.420237 12.951868,3.523311 12.918292,3.523108 12.850745,3.522999 12.851217,3.427169 12.851217,3.380671 12.913071,3.380387" style="fill: white" /><polygon type="contour" points="13.686864,3.190138 13.686572,3.272319 13.686948,3.359615 13.686799,3.380324 13.686799,3.466621 13.686857,3.523345 13.402109,3.523146 13.345299,3.52275 13.341445,3.522762 13.341494,3.390079 13.341494,3.380257 13.353225,3.380106 13.353674,3.285326 13.353738,3.270794 13.353769,3.269037 13.353886,3.189915 13.59203,3.189915" style="fill: white" /><polygon type="contour" points="13.68659,4.274074 13.686684,4.462968 13.687078,4.719361 13.687078,4.788727 13.43948,4.789564 13.417858,4.788973 13.363542,4.788872 13.339109,4.788757 13.340591,4.581646 13.341333,4.416601 13.341185,4.402591 13.341185,4.247458 13.363204,4.247422 13.457783,4.247592 13.502744,4.247429 13.524653,4.247345 13.68659,4.2472" style="fill: white" /><polygon type="contour" points="12.952002,4.247518 12.95187,4.428646 12.95187,4.480642 12.951918,4.789172 12.918293,4.790842 12.850745,4.79196 12.851089,4.442832 12.85107,4.442831 12.851312,4.291083 12.851312,4.247238 12.929563,4.247238" style="fill: white" /><polygon type="contour" points="12.020249,4.247553 12.208807,4.247492 12.475444,4.247492 12.477435,4.411713 12.477435,4.45644 12.4742,4.513806 12.4742,4.78975 12.470441,4.790216 12.448684,4.791762 12.443633,4.792015 12.418429,4.792461 11.697933,4.788818 11.678914,4.788854 11.607313,4.788742 11.594121,4.788671 11.332694,4.789047 11.303813,4.578548 11.288418,4.546447 11.341477,4.45179 11.333457,4.394992 11.3122,4.247371" style="fill: white" /><polygon type="contour" points="3.446958,3.190076 3.523452,3.190253 3.523024,3.272319 3.523024,3.354814 3.523144,3.357598 3.523124,3.380325 3.523124,3.523125 3.380322,3.523125 3.357598,3.523145 3.272318,3.523026 3.268318,3.523366 3.190136,3.523339 3.190307,3.350312 3.19008,3.2489 3.19008,3.190082 3.445442,3.189816" style="fill: white" /><polygon type="contour" points="4.439748,3.380714 4.459856,3.380726 4.788726,3.380325 4.788726,3.523126 4.447569,3.523538 4.27188,3.522989 4.247131,3.522989 4.247131,3.380189 4.269231,3.380171" style="fill: white" /><polygon type="contour" points="4.456441,4.247543 4.456441,4.247513 4.46504,4.247513 4.789518,4.2472 4.789637,4.45419 4.788726,4.719362 4.788726,4.788727 4.459857,4.789632 4.440809,4.789632 4.247199,4.789519 4.247516,4.459859 4.247452,4.41656 4.247131,4.271882 4.247131,4.247133" style="fill: white" /><polygon type="contour" points="3.522987,4.271882 3.523536,4.447398 3.523097,4.724681 3.523124,4.788727 3.380323,4.788727 3.380703,4.476759 3.380718,4.449853 3.38071,4.436372 3.380188,4.247133 3.522987,4.247133" style="fill: white" /><polygon type="contour" points="3.380323,5.444902 3.466619,5.444902 3.523343,5.444845 3.522944,5.731716 3.522749,5.786402 3.522761,5.790258 3.380624,5.790258 3.381676,5.778483 3.285324,5.778027 3.270793,5.777965 3.269035,5.777933 3.189913,5.777814 3.189913,5.539672 3.190136,5.444839 3.272319,5.445132 3.359613,5.444754" style="fill: white" /><polygon type="contour" points="3.523105,6.187906 3.523145,6.19512 3.523026,6.19531 3.523107,6.213177 3.522997,6.280485 3.380669,6.280485 3.38046,6.279221 3.380257,6.267242 3.380526,6.229979 3.380499,6.22861 3.470133,6.22846 3.470133,6.179967 3.523201,6.179967 3.523308,6.179833" style="fill: white" /><polygon type="contour" points="3.522872,6.657382 3.522934,6.657331 3.522936,6.777713 3.523278,7.811496 3.336913,7.833425 3.285523,7.830049 3.285522,6.76153 3.285508,6.756961 3.285573,6.656802 3.325936,6.656802" style="fill: white" /><polygon type="contour" points="4.513616,6.65744 4.788891,6.65744 4.788633,6.66113 4.788733,6.682585 4.788826,6.687568 4.788817,6.712443 4.788817,7.433768 4.788852,7.452787 4.78874,7.524388 4.788669,7.537582 4.789079,7.818313 4.571842,7.844559 4.54093,7.861312 4.452556,7.791723 4.356519,7.845023 4.247099,7.845413 4.247552,7.11145 4.24749,6.922894 4.24749,6.656258 4.411713,6.654268 4.456438,6.654268" style="fill: white" /><polygon type="contour" points="4.428644,6.179833 4.480641,6.179833 4.78917,6.179784 4.78917,6.213505 4.788565,6.280509 4.446565,6.280637 4.291082,6.280389 4.247236,6.280389 4.247236,6.202138 4.247516,6.1797" style="fill: white" /><polygon type="contour" points="4.789563,5.676954 4.789008,5.709671 4.78897,5.713844 4.78887,5.768158 4.788755,5.792592 4.581644,5.791111 4.417577,5.790766 4.361954,5.791166 4.247408,5.791166 4.247223,5.754529 4.247412,5.712154 4.247182,5.678481 4.247205,5.64798 4.247199,5.445112 4.274072,5.445112 4.463275,5.445015 4.719359,5.444625 4.788726,5.444625" style="fill: white" /><polygon type="contour" points="7.792563,5.485683 7.790078,5.662186 7.790481,5.707235 7.636191,5.707126 7.594286,5.707055 6.833209,5.705189 6.818403,5.704958 6.73146,5.704691 6.6575,5.704476 6.6575,5.445075 7.603456,5.445035 7.695221,5.44503 7.79647,5.444994" style="fill: white" /><polygon type="contour" points="7.79717,4.427938 7.797058,4.459335 7.861312,4.540932 7.844558,4.571844 7.81831,4.789081 7.53758,4.788671 7.452786,4.788854 7.433766,4.788819 6.712441,4.788819 6.687566,4.788828 6.661127,4.788634 6.657439,4.788893 6.654265,4.509421 6.654265,4.442832 6.656257,4.392863 6.656257,4.247492 6.922892,4.247492 7.111448,4.247553 7.845411,4.247101" style="fill: white" /><polygon type="contour" points="7.840603,3.284947 7.797457,3.453477 7.81163,3.52329 7.637771,3.523199 6.6575,3.522874 6.6575,3.285456 6.760333,3.285544 6.970162,3.285324 7.171437,3.284788" style="fill: white" /><polygon type="contour" points="6.213175,3.380542 6.280483,3.380671 6.280955,3.476498 6.280955,3.522999 6.218416,3.523427 6.179832,3.523311 6.179965,3.483372 6.179965,3.380404" style="fill: white" /><polygon type="contour" points="5.777963,3.270795 5.778026,3.285326 5.777934,3.380258 5.790206,3.380258 5.790206,3.39008 5.790236,3.473525 5.761487,3.473535 5.761855,3.523082 5.444853,3.522936 5.444853,3.4654 5.444901,3.380324 5.444752,3.359615 5.445129,3.354814 5.445129,3.272319 5.444862,3.26832 5.444836,3.190138 5.539669,3.189915 5.777812,3.189915" style="fill: white" /><polygon type="contour" points="5.607046,4.247345 5.628955,4.247429 5.673916,4.247592 5.768495,4.247422 5.790515,4.247458 5.790515,4.402591 5.790273,4.425464 5.791637,4.562304 5.792591,4.788757 5.768156,4.788873 5.713843,4.788973 5.659791,4.788807 5.444623,4.788727 5.445008,4.472342 5.445024,4.442819 5.445024,4.442818 5.445111,4.274074 5.445111,4.2472" style="fill: white" /><polygon type="contour" points="6.28063,4.439222 6.28063,4.462552 6.280508,4.788567 6.212218,4.788567 6.179783,4.789172 6.17983,4.480643 6.17983,4.44284 6.179699,4.354207 6.179699,4.247518 6.225432,4.247518 6.280388,4.247238" style="fill: white" /><polygon type="contour" points="6.213407,5.444842 6.217505,5.444899 6.280955,5.444972 6.280521,5.641666 6.280521,5.703382 6.261632,5.703319 6.179832,5.703237 6.179832,5.444812" style="fill: white" /><polygon type="contour" points="5.741152,5.444719 5.759975,5.444619 5.769063,5.444775 5.77806,5.444928 5.785691,5.444594 5.787134,5.444804 5.79022,5.444932 5.79022,5.466907 5.790063,5.486134 5.790443,5.57123 5.790443,5.701944 5.775931,5.702038 5.767124,5.702087 5.755162,5.702131 5.702256,5.702261 5.702129,5.755164 5.702085,5.767126 5.702036,5.775933 5.701942,5.790445 5.571227,5.790445 5.486132,5.790066 5.466905,5.790223 5.444931,5.790223 5.444802,5.787137 5.444717,5.732421 5.445076,5.713749 5.444874,5.695929 5.44463,5.679275 5.444787,5.664457 5.444936,5.658571 5.4447,5.65212 5.444894,5.648374 5.444901,5.444902 5.639305,5.444725 5.641004,5.444722 5.647868,5.444661 5.657419,5.444987 5.671196,5.444736 5.686894,5.444879 5.704304,5.444723 5.707914,5.444926 5.722362,5.444771 5.727848,5.444516" style="fill: white" /><polygon type="contour" points="5.703335,6.213408 5.703349,6.280957 5.444968,6.280957 5.444924,6.218419 5.444809,6.179833 5.703235,6.179833" style="fill: white" /><polygon type="contour" points="5.704677,6.704283 5.70469,6.731461 5.704812,6.761863 5.704957,6.818404 5.705187,6.833211 5.707054,7.594288 5.70723,7.790476 5.662183,7.79008 5.485682,7.792566 5.444992,7.796473 5.445028,7.695224 5.445033,7.603458 5.445058,6.760675 5.445051,6.728837 5.445047,6.696871 5.445073,6.657501 5.704474,6.657501" style="fill: white" /><polygon type="contour" points="5.458573,11.340748 5.707232,11.341221 5.707125,11.495509 5.707054,11.537415 5.705187,12.298492 5.704957,12.313299 5.70469,12.400242 5.704474,12.474203 5.445073,12.474203 5.445062,12.434817 5.445073,12.400186 5.445091,12.370987 5.444868,11.339732" style="fill: white" /><polygon type="contour" points="4.578545,11.303814 4.789045,11.332696 4.78867,11.594122 4.788853,11.678915 4.788817,11.697936 4.788817,12.41926 4.788826,12.444135 4.788633,12.470575 4.788891,12.474264 4.509419,12.477436 4.442831,12.477436 4.392861,12.475446 4.24749,12.475446 4.24749,12.208809 4.247552,12.020252 4.247369,11.312202 4.430178,11.338376 4.451737,11.341507 4.546446,11.28842" style="fill: white" /><polygon type="contour" points="3.442786,11.310064 3.523108,11.310064 3.523002,11.752458 3.522972,11.967136 3.522872,12.474203 3.325936,12.474783 3.285453,12.474783 3.285542,12.371996 3.285321,12.162031 3.284786,11.960264 3.284945,11.291099" style="fill: white" /><polygon type="contour" points="3.523426,12.913281 3.52331,12.95187 3.483369,12.951736 3.380402,12.951736 3.38054,12.918527 3.380669,12.851219 3.476498,12.850747 3.522997,12.850747" style="fill: white" /><polygon type="contour" points="3.523409,13.329075 3.523401,13.344073 3.522935,13.68685 3.465398,13.68685 3.380323,13.686801 3.359613,13.68695 3.354813,13.686573 3.272318,13.686573 3.268319,13.686837 3.190136,13.686865 3.189913,13.592031 3.189913,13.353888 3.270794,13.353739 3.285325,13.353676 3.382154,13.353769 3.380624,13.341446 3.522843,13.341446 3.523338,13.30023" style="fill: white" /><polygon type="contour" points="3.523536,14.684132 3.523522,14.68887 3.522987,14.85982 3.522987,14.884571 3.380188,14.884571 3.380169,14.862469 3.380712,14.691955 3.380724,14.671846 3.380323,14.342976 3.523124,14.342976" style="fill: white" /><polygon type="contour" points="3.272318,15.608678 3.354812,15.608678 3.357598,15.608559 3.380322,15.60858 3.523124,15.60858 3.523124,15.751377 3.523144,15.774104 3.523024,15.859384 3.523363,15.863383 3.523452,15.94145 3.446958,15.941627 3.445441,15.941888 3.19008,15.941621 3.19008,15.882803 3.190307,15.781391 3.190136,15.608364" style="fill: white" /><polygon type="contour" points="4.460681,15.60818 4.788726,15.608577 4.788726,15.751378 4.476835,15.750998 4.449852,15.750983 4.436393,15.750991 4.247131,15.751516 4.247131,15.608712 4.439147,15.608185 4.440992,15.60818 4.456441,15.60818 4.459856,15.608179 4.460438,15.608179" style="fill: white" /><polygon type="contour" points="5.731713,15.608758 5.786399,15.608955 5.790255,15.608943 5.790255,15.751078 5.777932,15.749548 5.778026,15.846375 5.777963,15.860908 5.777931,15.862667 5.777812,15.941789 5.539669,15.94179 5.444836,15.941566 5.445129,15.859383 5.444752,15.772087 5.444901,15.751378 5.444901,15.665083 5.444844,15.608359" style="fill: white" /><polygon type="contour" points="6.280483,15.751033 6.267241,15.75098 6.229977,15.751175 6.218626,15.751317 6.179965,15.7513 6.179832,15.724512 6.179832,15.711464 6.179897,15.709488 6.1799,15.707081 6.1799,15.658194 6.228325,15.658194 6.229754,15.60833 6.280483,15.608233" style="fill: white" /><polygon type="contour" points="6.28061,14.688871 6.28063,14.688871 6.28063,14.688872 6.280388,14.840619 6.280388,14.884463 6.202135,14.884464 6.179699,14.884186 6.17983,14.703057 6.17983,14.651061 6.179783,14.34253 6.213407,14.340859 6.280955,14.339744" style="fill: white" /><polygon type="contour" points="5.768156,14.34283 5.792591,14.342946 5.791108,14.550056 5.790367,14.715168 5.790515,14.729113 5.790515,14.884246 5.768495,14.884283 5.677991,14.88452 5.628956,14.884273 5.445111,14.884503 5.445111,14.857629 5.445013,14.668307 5.444623,14.41234 5.444623,14.342976 5.713843,14.342732" style="fill: white" /><polygon type="contour" points="4.71936,14.342976 4.788726,14.342976 4.789639,14.675159 4.789636,14.679146 4.789518,14.857629 4.789518,14.884503 4.459856,14.884186 4.427739,14.884223 4.27188,14.884571 4.247131,14.884571 4.247541,14.675261 4.247511,14.675261 4.247511,14.666645 4.247199,14.342184 4.454188,14.342064" style="fill: white" /><polygon type="contour" points="4.788971,13.417859 4.789009,13.422031 4.788807,13.47191 4.788726,13.687079 4.719359,13.687079 4.463014,13.686687 4.274072,13.686593 4.247199,13.686593 4.247205,13.483724 4.247182,13.453223 4.247412,13.419547 4.247224,13.377175 4.247409,13.340538 4.361954,13.340538 4.437659,13.341081 4.562302,13.339588 4.788685,13.3391" style="fill: white" /><polygon type="contour" points="4.788565,12.851194 4.788565,12.919482 4.78917,12.95192 4.480641,12.951871 4.442839,12.951871 4.354205,12.952004 4.247516,12.952004 4.247516,12.906269 4.247236,12.851314 4.439221,12.851072 4.46255,12.851072" style="fill: white" /><polygon type="contour" points="5.641664,12.851181 5.70338,12.851181 5.703317,12.870067 5.703236,12.95187 5.44481,12.95187 5.444839,12.918295 5.44497,12.850747" style="fill: white" /><polygon type="contour" points="5.702036,13.355771 5.702085,13.364577 5.702129,13.376539 5.702337,13.429445 5.755162,13.429573 5.767124,13.429616 5.775931,13.429665 5.790443,13.42976 5.790443,13.560473 5.790063,13.645569 5.79022,13.664795 5.79022,13.686769 5.790218,13.686757 5.741163,13.686729 5.727848,13.687187 5.722362,13.686932 5.707914,13.686779 5.704305,13.686982 5.686894,13.686826 5.672394,13.687018 5.658569,13.686766 5.647868,13.687043 5.641004,13.686982 5.444901,13.686801 5.444895,13.483327 5.444701,13.479583 5.444937,13.473132 5.444787,13.467246 5.44463,13.452427 5.444875,13.435774 5.445075,13.417953 5.444717,13.399282 5.444802,13.344566 5.44493,13.341481 5.466904,13.341481 5.486131,13.341638 5.571227,13.341259 5.701943,13.341259" style="fill: white" /><polygon type="contour" points="6.280955,13.686733 6.218417,13.686775 6.179832,13.686892 6.179832,13.428464 6.213406,13.428366 6.280955,13.428353" style="fill: white" /><polygon type="contour" points="7.790077,13.469517 7.792562,13.646018 7.79647,13.686708 7.695221,13.686673 7.603456,13.686666 6.760674,13.686642 6.728836,13.68665 6.69687,13.686654 6.6575,13.686628 6.6575,13.427227 6.704282,13.427024 6.731461,13.427011 6.761862,13.426889 6.818404,13.426745 6.833208,13.426515 7.594287,13.424648 7.790474,13.424471" style="fill: white" /><polygon type="contour" points="7.433766,14.342885 7.452787,14.34285 7.524385,14.34296 7.53758,14.343032 7.81831,14.342622 7.844558,14.559858 7.861312,14.590771 7.791722,14.679146 7.845021,14.775183 7.845411,14.884603 7.111448,14.884151 6.922892,14.884212 6.656257,14.884212 6.654265,14.719989 6.654265,14.675263 6.6575,14.617896 6.6575,14.341955 6.661257,14.341487 6.683016,14.339942 6.688067,14.33969 6.71327,14.339242" style="fill: white" /><polygon type="contour" points="7.797457,15.678226 7.840603,15.846758 7.171437,15.846916 6.96967,15.846381 6.759706,15.84616 6.6568,15.846129 6.6568,15.805646 6.657233,15.658609 6.707232,15.658757 6.70723,15.608766 6.777713,15.608765 7.811495,15.608423" style="fill: white" /><polygon type="contour" points="11.752455,15.608698 11.967133,15.60873 12.4742,15.60883 12.474781,15.805766 12.4749,15.846129 12.435939,15.846143 12.374739,15.846193 12.370171,15.84618 11.301652,15.846178 11.333393,15.695775 11.310062,15.608593" style="fill: white" /><polygon type="contour" points="11.59412,14.343032 11.678913,14.342849 11.697934,14.342885 12.419259,14.342885 12.444133,14.342875 12.470571,14.343069 12.474262,14.342811 12.477435,14.622283 12.477435,14.688871 12.475443,14.73884 12.475443,14.884212 12.208807,14.884212 12.020249,14.88415 11.3122,14.884334 11.338374,14.701523 11.341505,14.679964 11.288418,14.585257 11.303813,14.553156 11.332694,14.342656" style="fill: white" /><polygon type="contour" points="11.495507,13.424577 11.537413,13.424648 12.298491,13.426515 12.313295,13.426745 12.400238,13.427011 12.4742,13.427227 12.4742,13.686628 12.434814,13.686638 12.400183,13.686626 12.370984,13.68661 11.33973,13.686832 11.340746,13.673127 11.341219,13.42447" style="fill: white" /><polygon type="contour" points="13.686608,12.370987 13.686624,12.400186 13.686636,12.434817 13.686626,12.474203 13.427226,12.474203 13.427022,12.42742 13.42701,12.400242 13.426888,12.369839 13.426743,12.313298 13.426514,12.298492 13.424647,11.537415 13.42447,11.341228 13.681165,11.340752 13.68683,11.339732" style="fill: white" /><polygon type="contour" points="14.679911,11.341479 14.736709,11.333458 14.884332,11.312202 14.884149,12.020252 14.884211,12.208809 14.884211,12.475445 14.719987,12.477436 14.675261,12.477436 14.618082,12.474264 14.342808,12.474264 14.343065,12.470575 14.342967,12.449118 14.342873,12.444135 14.342883,12.41926 14.342883,11.697935 14.342848,11.678916 14.342961,11.607315 14.343031,11.594122 14.342654,11.332696 14.553154,11.303815 14.585255,11.28842" style="fill: white" /><polygon type="contour" points="15.846914,11.960264 15.846381,12.162031 15.84616,12.371996 15.846248,12.474783 15.77967,12.474999 15.608867,12.474495 15.608763,12.352454 15.608729,11.967137 15.608696,11.752458 15.608591,11.310064 15.725063,11.291099 15.846755,11.291099" style="fill: white" /><polygon type="contour" points="15.704529,12.851219 15.75103,12.851219 15.751316,12.913073 15.751298,12.951736 15.711462,12.95187 15.608391,12.95187 15.608593,12.918295 15.608702,12.850747" style="fill: white" /><polygon type="contour" points="15.750023,13.353221 15.846373,13.353676 15.860906,13.35374 15.862664,13.353771 15.941787,13.353888 15.941787,13.592031 15.941564,13.686865 15.859382,13.686573 15.772088,13.686951 15.751376,13.686801 15.66508,13.686801 15.608356,13.68686 15.608952,13.345301 15.60894,13.341446 15.751075,13.341446" style="fill: white" /><polygon type="contour" points="14.859818,15.608712 14.884569,15.608712 14.884569,15.751516 14.862467,15.751534 14.691946,15.750989 14.671842,15.750978 14.342975,15.751378 14.342975,15.608578 14.683871,15.608164" style="fill: white" /><polygon type="contour" points="13.346008,15.60861 13.686848,15.608767 13.686848,15.666303 13.686799,15.751378 13.686948,15.772087 13.686572,15.776889 13.686572,15.859384 13.686834,15.863383 13.686864,15.941566 13.59203,15.941789 13.353886,15.941789 13.353738,15.860909 13.353674,15.846375 13.353763,15.751604 13.341494,15.751446 13.341494,15.741624 13.341445,15.608943 13.319942,15.608601 13.330662,15.60852" style="fill: white" /><polygon type="contour" points="12.951868,15.608392 12.951734,15.648332 12.951734,15.7513 12.918525,15.751162 12.851217,15.751033 12.850745,15.655203 12.850745,15.608705 12.913279,15.608276" style="fill: white" /><polygon type="contour" points="12.95187,14.651062 12.95187,14.688862 12.952002,14.777494 12.952002,14.884186 12.906266,14.884186 12.851312,14.884465 12.85107,14.69248 12.85107,14.669152 12.851192,14.343137 12.91948,14.343137 12.951917,14.34253" style="fill: white" /><polygon type="contour" points="13.471909,14.342893 13.687077,14.342976 13.686688,14.660234 13.68668,14.675263 13.68659,14.857629 13.68659,14.884503 13.502744,14.884273 13.453707,14.88452 13.363203,14.884283 13.341185,14.884246 13.341185,14.729113 13.341426,14.706267 13.340063,14.5694 13.339109,14.342946 13.363542,14.34283 13.417857,14.342732" style="fill: white" /><polygon type="contour" points="12.870066,13.428383 12.951868,13.428465 12.951868,13.686892 12.918292,13.686862 12.850745,13.686733 12.851179,13.490034 12.851179,13.428319" style="fill: white" /><polygon type="contour" points="13.645567,13.341638 13.664793,13.341481 13.686768,13.341481 13.686896,13.344566 13.686981,13.399282 13.686624,13.417953 13.686825,13.435774 13.68707,13.452427 13.686914,13.467245 13.686764,13.473131 13.686998,13.479582 13.686805,13.483327 13.686799,13.686801 13.492395,13.686977 13.485112,13.686711 13.47428,13.686716 13.460502,13.686968 13.444805,13.686826 13.427395,13.686982 13.423785,13.686779 13.409335,13.686932 13.403854,13.687187 13.390546,13.686984 13.371723,13.687085 13.362634,13.686929 13.353639,13.686777 13.346008,13.687111 13.344565,13.686898 13.34148,13.68677 13.34148,13.664795 13.341637,13.645569 13.341257,13.560473 13.341257,13.42976 13.355768,13.429665 13.364575,13.429616 13.376538,13.429572 13.429444,13.429444 13.429572,13.376539 13.429615,13.364577 13.429665,13.355771 13.429758,13.341259 13.560472,13.341259" style="fill: white" /><polygon type="contour" points="13.686774,12.913281 13.686889,12.95187 13.428463,12.95187 13.428365,12.918294 13.428351,12.850747 13.68673,12.850747" style="fill: white" /><polygon type="contour" points="14.688869,12.851072 14.68887,12.851072 14.840619,12.851314 14.884464,12.851314 14.884464,12.929566 14.884183,12.952004 14.703055,12.951871 14.651059,12.951871 14.342529,12.95192 14.342529,12.918198 14.343136,12.851194 14.685122,12.851066" style="fill: white" /><polygon type="contour" points="14.550054,13.340593 14.713981,13.340938 14.769744,13.340538 14.88429,13.340538 14.884476,13.377174 14.884289,13.419548 14.884519,13.453222 14.884494,13.483725 14.884502,13.686593 14.857627,13.686593 14.668685,13.686687 14.412339,13.687079 14.342975,13.687079 14.342137,13.454748 14.342691,13.422031 14.342729,13.417858 14.342829,13.363545 14.342944,13.339112" style="fill: white" /><polygon type="contour" points="14.884502,14.342184 14.884183,14.671845 14.88422,14.703879 14.884569,14.85982 14.884569,14.884571 14.713483,14.884234 14.675259,14.88419 14.667683,14.88419 14.342181,14.884503 14.342062,14.677495 14.342975,14.41234 14.342975,14.342976 14.671842,14.342072 14.690891,14.342072" style="fill: white" /><polygon type="contour" points="15.750997,14.654788 15.750982,14.681851 15.75099,14.695332 15.751513,14.884571 15.733481,14.884571 15.608711,14.884572 15.608163,14.685072 15.608602,14.40702 15.608575,14.342976 15.751376,14.342976" style="fill: white" /><polygon type="contour" points="15.941564,15.608364 15.941392,15.781392 15.941618,15.882804 15.941618,15.941621 15.686256,15.941888 15.68474,15.941627 15.608248,15.94145 15.608675,15.859384 15.608675,15.77689 15.608556,15.774104 15.608577,15.751377 15.608577,15.60858 15.751375,15.60858 15.774102,15.608559 15.859382,15.608678 15.863382,15.608338" style="fill: white" />
</svg>
