<svg width="19.131698" height="19.131699">
<polygon type="contour" points="14.860428,4.021328 14.863301,4.021626 14.86476,4.021957 14.916901,4.037592 14.917163,4.037689 14.959061,4.059919 14.979065,4.072823 15.007676,4.095693 15.048211,4.135918 15.048617,4.136356 15.086845,4.196524 15.087663,4.197849 15.088321,4.199488 15.105036,4.25655 15.10859,4.274128 15.112039,4.30483 15.1123,4.309901 15.1123,14.821801 15.110394,14.859962 15.110074,14.863609 15.10563,14.880258 15.096556,14.910343 15.095386,14.914292 15.089467,14.926346 15.062457,14.974929 15.050488,14.990008 15.025791,15.018349 15.004015,15.039857 14.990077,15.050979 14.972228,15.062492 14.93969,15.080988 14.919599,15.092901 14.911786,15.096106 14.872342,15.106352 14.860152,15.109281 14.826155,15.111983 14.821798,15.112303 8.583551,15.112718 4.309198,15.113002 4.29978,15.112498 4.273898,15.110381 4.263217,15.107512 4.215629,15.094383 4.21471,15.094088 4.209633,15.091568 4.162676,15.067716 4.159307,15.065603 4.124632,15.036266 4.098483,15.009626 4.085925,14.995487 4.0707,14.976271 4.055722,14.952194 4.045199,14.932203 4.033523,14.903958 4.024264,14.868873 4.022019,14.856841 4.020149,14.835802 4.0194,14.821802 4.0194,4.3099 4.019595,4.301859 4.021807,4.281962 4.027683,4.241901 4.027824,4.241313 4.02795,4.240967 4.04899,4.193149 4.062609,4.169626 4.074124,4.152053 4.087184,4.133649 4.111169,4.107148 4.125164,4.094888 4.154431,4.070846 4.1659,4.06237 4.17442,4.057476 4.207785,4.042276 4.221239,4.036806 4.266671,4.023257 4.271807,4.022065 4.29173,4.020357 4.309898,4.019402 14.822498,4.019402" style="fill: white" /><polygon type="hole" points="7.062438,7.062915 7.061039,7.114406 7.061088,7.115993 7.061088,7.952987 7.061254,7.972724 7.061254,8.06014 7.061399,8.0741 7.06142,8.088837 7.06142,8.175754 7.061586,8.195492 7.061586,8.853391 7.061706,8.864038 7.061752,8.881258 7.061752,9.445114 7.061918,9.464852 7.061918,9.552102 7.062012,9.557016 7.06209,9.566202 7.062143,9.573649 7.062012,9.575232 7.061918,9.580135 7.061918,9.667385 7.061752,9.687123 7.061752,10.250445 7.061706,10.267665 7.061586,10.278312 7.061586,10.36523 7.06142,10.384968 7.06142,11.042866 7.061399,11.057604 7.061254,11.071563 7.061254,11.158979 7.061088,11.178717 7.061088,12.015707 7.061038,12.017296 7.06245,12.069261 7.114404,12.070662 7.115991,12.070613 7.952984,12.070613 7.972722,12.070447 8.060139,12.070447 8.074098,12.070302 8.088834,12.070281 8.239312,12.070281 8.68317,12.07028 8.746734,12.070281 8.766472,12.070116 8.85339,12.070116 8.864037,12.069996 8.881257,12.06995 8.924881,12.06995 9.369273,12.069949 9.445112,12.069949 9.464849,12.069783 9.552099,12.069783 9.557013,12.069689 9.566199,12.06961 9.573647,12.069558 9.57523,12.069688 9.580132,12.069783 9.667382,12.069783 9.68712,12.069949 10.250443,12.069949 10.267662,12.069995 10.278309,12.070115 10.365227,12.070115 10.384965,12.070281 11.042865,12.070281 11.0576,12.070302 11.071562,12.070447 11.158977,12.070447 11.178715,12.070613 12.015706,12.070613 12.017296,12.070662 12.069249,12.069261 12.070661,12.017296 12.070612,12.015707 12.070612,11.115155 12.070446,11.095418 12.070446,11.008001 12.07028,10.979306 12.07028,9.940574 12.070114,9.920836 12.070114,9.833918 12.069948,9.806052 12.069948,9.718635 12.069782,9.698898 12.069782,9.580135 12.069688,9.575233 12.069609,9.566201 12.069557,9.558628 12.069688,9.557017 12.069782,9.552102 12.069782,9.464852 12.069948,9.445114 12.069948,9.357699 12.070114,9.329832 12.070114,9.242913 12.07028,9.223176 12.07028,9.136257 12.070446,9.107562 12.070446,8.036285 12.070612,8.016547 12.070612,7.115994 12.070661,7.114406 12.069249,7.062452 12.017295,7.06104 12.015706,7.061091 11.115155,7.061091 11.095415,7.061256 11.007999,7.061256 10.979304,7.061422 9.940572,7.061422 9.920834,7.061588 9.833916,7.061588 9.80605,7.061754 9.718634,7.061754 9.698896,7.06192 9.580132,7.06192 9.57523,7.062014 9.566198,7.062092 9.558625,7.062145 9.557014,7.062014 9.552099,7.06192 9.464849,7.06192 9.445112,7.061754 9.325648,7.061754 9.297781,7.061588 9.210863,7.061588 9.191125,7.061422 8.152395,7.061422 8.123699,7.061256 8.036284,7.061256 8.016544,7.061091 7.115991,7.061091 7.112616,7.060984" style="fill: black" />
</svg>
