<svg width="19.131698" height="19.131699">
<polygon type="contour" points="14.744657,4.275192 14.818439,4.275192 14.856468,4.275232 14.856468,4.357775 14.856462,4.360915 14.856646,4.546839 14.856646,14.584863 14.856461,14.77079 14.856468,14.773929 14.856468,14.856472 14.818439,14.856511 14.744657,14.856511 14.584861,14.856649 6.536291,14.856649 6.187305,14.856648 6.127611,14.856649 4.546837,14.856649 4.387042,14.856511 4.313258,14.856511 4.27523,14.856472 4.27523,14.77393 4.275237,14.77079 4.275053,14.584863 4.275053,4.546839 4.275237,4.360914 4.27523,4.357775 4.27523,4.275232 4.313258,4.275192 4.387042,4.275192 4.546837,4.275055 14.584861,4.275055" style="fill: white" /><polygon type="hole" points="6.831968,6.629634 6.794802,6.629634 6.632383,6.632353 6.631007,6.69639 6.629632,6.770717 6.629632,6.78586 6.629644,6.801886 6.629931,6.832216 6.629426,6.850842 6.629632,6.857432 6.629632,7.195585 6.63032,7.277483 6.63032,7.640174 6.630922,7.698093 6.631007,7.759236 6.631007,8.119862 6.631695,8.201759 6.631695,8.574982 6.632194,8.619152 6.632383,8.690601 6.632383,9.063802 6.633073,9.145701 6.633073,9.507702 6.633464,9.528093 6.633787,9.566201 6.634007,9.597103 6.633464,9.603673 6.633073,9.624012 6.633073,9.986014 6.632383,10.067913 6.632383,10.441102 6.632194,10.512549 6.631695,10.556721 6.631695,10.91735 6.631007,10.999247 6.631007,11.372467 6.630921,11.433609 6.63032,11.491528 6.63032,11.854219 6.629632,11.936117 6.629632,12.274268 6.629426,12.280861 6.629931,12.299487 6.629644,12.329247 6.632396,12.499316 6.696389,12.500007 6.703958,12.500695 6.782962,12.501709 6.801883,12.502058 6.832213,12.501771 6.850841,12.502275 6.85743,12.50207 7.195583,12.50207 7.27748,12.501383 7.640172,12.501383 7.698092,12.500779 7.759236,12.500695 8.132455,12.500695 8.214352,12.500007 8.574979,12.500007 8.61915,12.499508 8.690599,12.499316 9.0638,12.499316 9.145698,12.498628 9.507701,12.498628 9.528091,12.498238 9.566199,12.497914 9.597101,12.497695 9.603671,12.498238 9.624009,12.498628 9.986014,12.498628 10.067911,12.499316 10.441101,12.499316 10.512547,12.499508 10.556721,12.500007 10.917348,12.500007 10.999245,12.500695 11.372464,12.500695 11.433606,12.500779 11.491526,12.501383 11.854219,12.501383 11.936115,12.50207 12.274267,12.50207 12.280858,12.502275 12.299486,12.501771 12.329246,12.502058 12.391264,12.500695 12.499315,12.499316 12.500006,12.439441 12.501706,12.348736 12.502056,12.329247 12.501769,12.299487 12.502273,12.28086 12.502068,12.274269 12.502068,11.934715 12.50138,11.852817 12.50138,11.490127 12.500694,11.371065 12.500694,10.989444 12.500006,10.907547 12.500006,10.54692 12.499315,10.431298 12.499315,10.068607 12.498627,9.98671 12.498627,9.624012 12.498235,9.603673 12.497912,9.566201 12.497692,9.534775 12.498236,9.528093 12.498627,9.507702 12.498627,9.1457 12.499315,9.063803 12.499315,8.701111 12.500006,8.585492 12.500006,8.224863 12.500694,8.142966 12.500694,7.78234 12.50138,7.663278 12.50138,7.278885 12.502068,7.196987 12.502068,6.857432 12.502274,6.850842 12.501769,6.832217 12.502056,6.801886 12.499623,6.63208 12.348736,6.629994 12.329246,6.629645 12.299486,6.629933 12.280858,6.629428 12.274267,6.629634 11.934713,6.629634 11.852817,6.630321 11.490124,6.630321 11.371063,6.631009 10.989442,6.631009 10.907545,6.631697 10.546919,6.631697 10.431297,6.632385 10.068606,6.632385 9.986709,6.633076 9.624009,6.633076 9.603671,6.633466 9.566198,6.63379 9.534773,6.634009 9.528091,6.633466 9.507701,6.633076 9.145698,6.633076 9.0638,6.632385 8.700401,6.632385 8.584782,6.631697 8.224155,6.631697 8.142257,6.631009 7.760637,6.631009 7.641574,6.630321 7.278882,6.630321 7.196985,6.629634 6.85743,6.629634 6.843355,6.629196" style="fill: black" />
</svg>
