<svg width="19.131698" height="19.131699">
<polygon type="contour" points="7.429022,4.031948 14.822498,4.031948 14.85277,4.033684 14.862854,4.034754 14.870788,4.036839 14.913858,4.05074 14.942548,4.064222 14.96115,4.074998 14.971689,4.082881 15.010276,4.114964 15.036511,4.143482 15.053483,4.165942 15.074637,4.206644 15.085252,4.230046 15.091387,4.256208 15.097622,4.281085 15.098536,4.292664 15.099605,4.30069 15.099773,4.309901 15.099773,7.995893 15.099808,11.933918 15.099791,14.821802 15.098036,14.845402 15.09611,14.862717 15.083233,14.912094 15.081854,14.915566 15.07744,14.924843 15.055384,14.96326 15.034039,14.991053 15.024195,15.003063 15.007036,15.020074 14.983547,15.041284 14.943726,15.066864 14.926363,15.077167 14.877165,15.092252 14.860002,15.096994 14.843013,15.098301 14.821798,15.099775 11.135564,15.099775 4.309199,15.099794 4.296698,15.09904 4.268809,15.095862 4.25293,15.093375 4.202499,15.075503 4.193791,15.071984 4.191495,15.070588 4.186629,15.067856 4.139331,15.03384 4.110976,15.007883 4.094761,14.989761 4.060147,14.937798 4.057367,14.931603 4.042014,14.885429 4.03524,14.857 4.033882,14.847056 4.033164,14.839039 4.032095,14.831013 4.031927,14.821802 4.031946,11.702885 4.031929,7.742359 4.031946,4.309901 4.03302,4.298411 4.036029,4.278363 4.039784,4.243895 4.041135,4.239748 4.061819,4.196625 4.070004,4.180149 4.090766,4.146893 4.098933,4.136484 4.114149,4.1214 4.148152,4.09042 4.186057,4.06588 4.201519,4.057108 4.239671,4.042757 4.256968,4.038514 4.283335,4.034761 4.30621,4.032321 4.309899,4.031929" style="fill: white" /><polygon type="hole" points="11.704215,7.08506 11.672189,7.085061 11.069623,7.085061 11.053338,7.085197 10.981216,7.085197 10.957539,7.085334 9.882302,7.085334 9.866017,7.085471 9.794306,7.085471 9.771313,7.085608 9.699191,7.085608 9.682906,7.085745 9.577695,7.085745 9.573651,7.085823 9.566198,7.085887 9.55995,7.085931 9.558621,7.085823 9.554566,7.085745 9.482581,7.085745 9.466295,7.085608 9.360383,7.085608 9.337393,7.085471 9.265681,7.085471 9.249395,7.085334 8.17416,7.085334 8.150483,7.085197 8.078361,7.085197 8.062076,7.085061 7.085058,7.085061 7.085058,7.995064 7.085195,8.011349 7.085195,8.083472 7.085315,8.094989 7.085332,8.107148 7.085332,8.178859 7.085468,8.195145 7.085468,8.86886 7.085568,8.877642 7.085605,8.891851 7.085605,9.466298 7.085742,9.482583 7.085742,9.554568 7.08582,9.558624 7.085884,9.566201 7.085928,9.572346 7.085819,9.573653 7.085742,9.577697 7.085742,9.649683 7.085605,9.665968 7.085605,10.239852 7.085568,10.25406 7.085468,10.262845 7.085468,10.334556 7.085332,10.350841 7.085332,11.024555 7.085315,11.036714 7.085195,11.048231 7.085195,11.120354 7.085058,11.136639 7.085058,12.046643 7.995062,12.046643 8.011347,12.046506 8.08347,12.046506 8.094987,12.046386 8.107146,12.046369 8.713844,12.046369 8.78086,12.04637 8.797146,12.046233 8.868858,12.046233 8.877641,12.046134 8.89185,12.046096 8.927841,12.046096 9.396377,12.046095 9.466295,12.046095 9.482581,12.045958 9.554567,12.045958 9.55862,12.045881 9.566198,12.045816 9.572343,12.045773 9.573651,12.045881 9.577695,12.045958 9.64968,12.045958 9.665966,12.046095 10.239849,12.046095 10.254058,12.046133 10.262841,12.046232 10.334553,12.046232 10.350839,12.046369 11.024553,12.046369 11.036712,12.046386 11.048229,12.046506 11.120352,12.046506 11.136637,12.046643 12.046642,12.046643 12.046642,11.069625 12.046505,11.053339 12.046505,10.981218 12.046368,10.957541 12.046368,9.882304 12.046231,9.866019 12.046231,9.794306 12.046094,9.771316 12.046094,9.699193 12.045957,9.682908 12.045957,9.577698 12.04588,9.573653 12.045814,9.566201 12.045772,9.559953 12.04588,9.558624 12.045957,9.554569 12.045957,9.482583 12.046094,9.466298 12.046094,9.394175 12.046231,9.371185 12.046231,9.299472 12.046368,9.283187 12.046368,9.211476 12.046505,9.187799 12.046505,8.078363 12.046642,8.062078 12.046642,7.085062 11.969455,7.08506" style="fill: black" />
</svg>
