<svg width="19.131698" height="19.131699">
<polygon type="contour" points="1.03895,0.991957 1.325823,0.992624 1.325767,1.00335 1.325767,1.014131 1.325783,1.014495 1.325776,1.022731 1.325771,1.026239 1.325651,1.05052 1.325612,1.065079 1.325197,1.182398 1.325197,1.325199 1.182397,1.325199 1.065077,1.325613 1.050518,1.325654 1.026237,1.325772 1.022728,1.325777 1.014494,1.325785 1.003348,1.325769 1.002824,1.325813 0.992607,1.32581 0.992629,1.303195 0.991957,1.002718 0.991957,0.991959 1.038673,0.99191" style="fill: white" /><polygon type="contour" points="3.579853,1.006724 3.579885,1.014203 3.579885,1.087187 3.679161,1.087174 3.719232,1.087182 3.901501,1.087262 3.950222,1.087333 3.930085,1.304196 3.930321,1.325592 3.868529,1.325592 3.806529,1.325324 3.247206,1.325242 3.247206,1.277659 3.247075,1.182776 3.247152,1.06794 3.247186,1.052338 3.247292,1.026728 3.247357,1.023181 3.247297,1.01476 3.247346,1.014132 3.247346,1.003349 3.247311,1.002826 3.247308,0.992609 3.53626,0.991928 3.579825,0.991928" style="fill: white" /><polygon type="contour" points="2.649106,1.225863 2.649106,1.325288 2.589785,1.325288 2.453638,1.325423 2.453513,1.302579 2.453513,1.182741 2.600259,1.182662 2.648961,1.182636" style="fill: white" /><polygon type="contour" points="2.119983,1.182622 2.186966,1.182741 2.186884,1.211354 2.186884,1.325423 1.974851,1.325199 1.854831,1.325199 1.854831,1.182399" style="fill: white" /><polygon type="contour" points="2.187028,2.489136 2.187028,2.648842 2.119983,2.64894 1.854579,2.649108 1.854579,2.589787 1.854943,2.45364 2.119984,2.45364 2.186966,2.453514" style="fill: white" /><polygon type="contour" points="2.489134,2.453541 2.64884,2.453541 2.64884,2.489136 2.648961,2.648964 2.594569,2.648964 2.453539,2.648842 2.453513,2.617409 2.453513,2.453514" style="fill: white" /><polygon type="contour" points="2.648938,2.119985 2.64884,2.18703 2.617408,2.186968 2.453513,2.186968 2.453638,2.119985 2.453639,1.854945 2.492934,1.854945 2.649106,1.854582" style="fill: white" /><polygon type="contour" points="2.186885,1.854945 2.186884,2.119985 2.186966,2.186968 2.119984,2.186885 1.854943,2.186885 1.854943,2.119986 1.854831,1.854833 1.97485,1.854833" style="fill: white" /><polygon type="contour" points="1.325197,1.974853 1.325421,2.186884 1.302577,2.186968 1.182739,2.186968 1.18262,2.119985 1.182397,1.854833 1.325197,1.854833" style="fill: white" /><polygon type="contour" points="1.211352,2.45364 1.325421,2.45364 1.325421,2.492933 1.325287,2.649108 1.285662,2.648964 1.182635,2.648964 1.182719,2.489136 1.182739,2.453514" style="fill: white" /><polygon type="contour" points="1.32524,3.247208 1.32524,3.794242 1.325242,3.951079 1.12602,3.933165 1.087537,3.936603 1.087537,3.877799 1.087096,3.667485 1.087061,3.657325 1.087185,3.579887 1.014201,3.579887 1.006722,3.579855 1.0064,3.579849 0.991927,3.579827 0.991927,3.536261 0.992607,3.247309 1.003348,3.247348 1.014757,3.247298 1.023179,3.247359 1.026726,3.247294 1.052337,3.247187 1.067939,3.247154 1.182774,3.247077 1.234315,3.247077" style="fill: white" /><polygon type="contour" points="2.186966,3.387294 2.186966,3.935372 1.896167,3.9411 1.854718,3.939671 1.854718,3.810538 1.854831,3.247398 1.965917,3.247338 2.187028,3.247022" style="fill: white" /><polygon type="contour" points="2.649299,3.818701 2.649299,3.938902 2.62481,3.93972 2.45314,3.935894 2.453169,3.8141 2.453539,3.247022 2.594568,3.246936 2.648961,3.246936" style="fill: white" /><polygon type="contour" points="3.836254,3.247103 3.951334,3.247103 3.952043,3.354451 3.945081,3.475766 3.939466,3.939468 3.406832,3.932165 3.247448,3.931272 3.247301,3.823533 3.247075,3.247076" style="fill: white" /><polygon type="contour" points="3.935146,2.481267 3.9389,2.649301 3.818699,2.649301 3.246934,2.648964 3.246934,2.59457 3.24702,2.453541 3.8141,2.45317 3.935893,2.453143" style="fill: white" /><polygon type="contour" points="3.941098,1.896167 3.935893,2.187629 3.8141,2.187665 3.24702,2.187029 3.247335,1.96592 3.247397,1.854833 3.810536,1.854719 3.939671,1.854719" style="fill: white" /><polygon type="contour" points="18.139742,0.991959 18.139742,1.002718 18.139072,1.303194 18.139094,1.32581 18.128352,1.325769 18.11757,1.325769 18.117206,1.325785 18.108971,1.325776 18.105462,1.325772 18.081181,1.325654 18.066621,1.325612 17.949304,1.325199 17.806502,1.325199 17.806502,1.182397 17.806087,1.06508 17.806046,1.05052 17.805929,1.026239 17.805924,1.022731 17.805918,1.014495 17.805931,1.00335 17.805888,1.002827 17.805876,0.992624 18.09275,0.991958 18.093027,0.99191" style="fill: white" /><polygon type="contour" points="15.317599,2.45317 15.884679,2.453541 15.884679,2.489136 15.884764,2.648964 15.313,2.649301 15.192799,2.649301 15.191982,2.624812 15.195807,2.453143" style="fill: white" /><polygon type="contour" points="15.884303,1.854833 15.884363,1.965919 15.884679,2.18703 15.744408,2.186968 15.196329,2.186968 15.189991,1.896168 15.191441,1.854719 15.320574,1.854719" style="fill: white" /><polygon type="contour" points="15.884394,0.992609 15.884356,1.00335 15.884405,1.014759 15.884344,1.023181 15.884409,1.026727 15.884514,1.052338 15.88455,1.06794 15.884624,1.182777 15.884624,1.234315 15.884494,1.325242 15.717448,1.325199 15.262522,1.325592 15.200732,1.325592 15.199286,1.316096 15.195099,1.087539 15.253902,1.087539 15.464318,1.087387 15.474362,1.087137 15.551816,1.087187 15.551816,1.014204 15.551849,1.006723 15.551854,1.006403 15.551876,0.991928 15.595441,0.991928" style="fill: white" /><polygon type="contour" points="16.59269,1.182695 16.678186,1.182741 16.67806,1.211354 16.67806,1.325423 16.638765,1.325423 16.482593,1.325288 16.482737,1.285664 16.482737,1.182636" style="fill: white" /><polygon type="contour" points="17.276866,1.325199 17.156845,1.325199 16.944814,1.325423 16.944732,1.302579 16.944732,1.182741 17.011714,1.182622 17.276866,1.182399" style="fill: white" /><polygon type="contour" points="18.063761,3.247154 18.079362,3.247187 18.104973,3.247292 18.108521,3.247358 18.116942,3.247298 18.11757,3.247347 18.128351,3.247347 18.128875,3.247313 18.139094,3.247309 18.139774,3.536261 18.139774,3.579827 18.124978,3.579855 18.117495,3.579887 18.044512,3.579887 18.044635,3.657326 18.044604,3.667485 18.044162,3.877799 18.044162,3.936603 18.005678,3.933165 17.806458,3.951079 17.806458,3.247208 17.854041,3.247208 17.948922,3.247077" style="fill: white" /><polygon type="contour" points="17.94904,2.600262 17.949064,2.648964 17.905838,2.649108 17.806414,2.649108 17.806414,2.589786 17.806278,2.45364 17.829121,2.453514 17.948955,2.453514" style="fill: white" /><polygon type="contour" points="17.949076,2.119985 17.948956,2.186968 17.920344,2.186885 17.806278,2.186885 17.806278,2.119985 17.806503,1.854833 17.9493,1.854833" style="fill: white" /><polygon type="contour" points="17.27712,2.086086 17.276758,2.119986 17.276758,2.186885 17.011713,2.186885 16.944732,2.186968 16.944814,2.119985 16.944814,1.854945 17.011713,1.854945 17.276866,1.854833" style="fill: white" /><polygon type="contour" points="16.67806,1.854945 16.67806,2.119986 16.678186,2.186968 16.642563,2.18703 16.482857,2.18703 16.482759,2.119985 16.482593,1.854582 16.541915,1.854582" style="fill: white" /><polygon type="contour" points="16.678159,2.489136 16.678159,2.648842 16.642563,2.648842 16.482737,2.648964 16.482737,2.594571 16.482857,2.453541 16.514289,2.453514 16.678186,2.453514" style="fill: white" /><polygon type="contour" points="17.011713,2.45364 17.276758,2.45364 17.276758,2.492933 17.27712,2.649108 17.011714,2.64894 16.94467,2.648842 16.944732,2.61741 16.944732,2.453514" style="fill: white" /><polygon type="contour" points="17.165778,3.247338 17.276866,3.247398 17.276982,3.810537 17.276982,3.939672 17.235532,3.9411 16.944072,3.935894 16.944035,3.8141 16.944669,3.247022" style="fill: white" /><polygon type="contour" points="16.678159,3.247022 16.678531,3.8141 16.678559,3.935894 16.650434,3.935148 16.482401,3.938902 16.482401,3.818701 16.482737,3.246936 16.537131,3.246936" style="fill: white" /><polygon type="contour" points="15.884397,3.823533 15.884251,3.931272 15.651728,3.93692 15.192234,3.939467 15.186617,3.475765 15.180365,3.247103 15.295444,3.247103 15.884624,3.247077" style="fill: white" /><polygon type="contour" points="15.724868,15.199005 15.884251,15.199895 15.884397,15.308169 15.884624,15.884627 15.295443,15.8846 15.180365,15.8846 15.179654,15.77725 15.186618,15.655938 15.192234,15.192236" style="fill: white" /><polygon type="contour" points="17.848578,15.181481 18.044368,15.181481 18.044438,15.2302 18.044519,15.412469 18.044528,15.45254 18.044514,15.551816 18.117495,15.551816 18.124977,15.551849 18.125299,15.551855 18.139774,15.551876 18.139774,15.595441 18.139094,15.884396 18.128351,15.884357 18.116942,15.884407 18.108521,15.884346 18.104973,15.884411 18.079362,15.884517 18.063762,15.884551 17.948922,15.884627 17.897382,15.884627 17.806458,15.884494 17.806436,15.304034 17.806436,15.180358" style="fill: white" /><polygon type="contour" points="17.276982,15.191441 17.276982,15.320575 17.276866,15.884305 17.165777,15.884366 16.94467,15.884681 16.944732,15.744409 16.944732,15.196331 17.235531,15.189991" style="fill: white" /><polygon type="contour" points="16.678559,15.19581 16.678531,15.317603 16.678159,15.884681 16.537131,15.884767 16.482737,15.884767 16.482401,15.313003 16.482401,15.192802 16.50689,15.191985" style="fill: white" /><polygon type="contour" points="16.678186,17.829123 16.678186,17.94896 16.53144,17.949042 16.482737,17.949068 16.482593,17.905839 16.482593,17.806414 16.541915,17.806414 16.67806,17.80628" style="fill: white" /><polygon type="contour" points="17.156848,17.806506 17.276868,17.806506 17.276868,17.897758 17.276866,17.949304 17.011714,17.94908 16.944732,17.94896 16.944814,17.920348 16.944814,17.80628" style="fill: white" /><polygon type="contour" points="18.139094,17.805894 18.139072,17.828508 18.139742,18.128985 18.139742,18.139744 18.093028,18.139794 18.09275,18.139746 17.805876,18.13908 17.805932,18.128353 17.805932,18.117571 17.805918,18.117207 17.805924,18.108973 17.805929,18.105464 17.806046,18.081183 17.806087,18.066623 17.806502,17.949306 17.806502,17.903678 17.806506,17.806504 17.949304,17.806504 18.066622,17.806089 18.081181,17.80605 18.105461,17.805932 18.108972,17.805925 18.117205,17.80592 18.128352,17.805934 18.128876,17.80589" style="fill: white" /><polygon type="contour" points="17.949076,17.011716 17.9493,17.276868 17.806506,17.276868 17.806504,17.156847 17.806278,16.944816 17.829121,16.944734 17.948956,16.944734" style="fill: white" /><polygon type="contour" points="17.846035,16.48274 17.949063,16.48274 17.948976,16.642565 17.948956,16.678188 17.920344,16.678062 17.806278,16.678062 17.806278,16.638767 17.806414,16.482596" style="fill: white" /><polygon type="contour" points="17.27712,16.541916 17.276758,16.678062 17.011713,16.678062 16.944732,16.678188 16.94467,16.642565 16.94467,16.48286 17.011713,16.482762 17.27712,16.482596" style="fill: white" /><polygon type="contour" points="17.011714,16.944816 17.276758,16.944816 17.276758,17.011715 17.276868,17.276868 17.156848,17.276868 16.944814,17.276759 16.944814,17.011716 16.944732,16.944734" style="fill: white" /><polygon type="contour" points="16.678159,16.48286 16.678186,16.514291 16.678186,16.678188 16.642563,16.678161 16.482857,16.678161 16.482857,16.642566 16.482737,16.48274 16.53713,16.48274" style="fill: white" /><polygon type="contour" points="16.514289,16.944734 16.678186,16.944734 16.67806,17.011715 16.67806,17.27676 16.638765,17.27676 16.482593,17.277122 16.482759,17.011715 16.482857,16.944672" style="fill: white" /><polygon type="contour" points="15.884764,16.48274 15.884764,16.537132 15.884678,16.678161 15.3176,16.678531 15.195807,16.678561 15.196553,16.650434 15.1928,16.482404 15.313,16.482404" style="fill: white" /><polygon type="contour" points="15.884679,16.944671 15.884363,17.16578 15.884303,17.276868 15.320574,17.276984 15.19144,17.276984 15.18999,17.235536 15.195807,16.944074 15.3176,16.944037" style="fill: white" /><polygon type="contour" points="15.32517,17.806376 15.884494,17.806462 15.884494,17.854044 15.884624,17.948925 15.88455,18.063763 15.884515,18.079364 15.884409,18.104975 15.884344,18.108523 15.884405,18.116944 15.884356,18.117572 15.884356,18.128353 15.88439,18.128877 15.884394,18.139096 15.595442,18.139776 15.551876,18.139776 15.551849,18.124979 15.551816,18.117499 15.551816,18.044515 15.474362,18.044566 15.464318,18.044316 15.253902,18.044166 15.195099,18.044166 15.199286,17.815606 15.200732,17.80611 15.262521,17.80611" style="fill: white" /><polygon type="contour" points="3.930084,17.827505 3.950222,18.044372 3.9015,18.044442 3.719232,18.044522 3.679162,18.044528 3.579885,18.044516 3.579885,18.1175 3.579853,18.124979 3.579847,18.125302 3.579825,18.139776 3.536259,18.139776 3.247308,18.139096 3.247346,18.128353 3.247297,18.116944 3.247357,18.108523 3.247291,18.104975 3.247185,18.079364 3.247152,18.063764 3.247075,17.948926 3.247075,17.897386 3.247206,17.806462 3.80653,17.806376 3.868529,17.80611 3.93032,17.80611" style="fill: white" /><polygon type="contour" points="1.325263,15.304034 1.32524,15.884494 1.277658,15.884494 1.182774,15.884627 1.067939,15.884551 1.052337,15.884516 1.026725,15.884411 1.023179,15.884346 1.014758,15.884407 1.01413,15.884357 1.003347,15.884357 1.002825,15.884392 0.992607,15.884396 0.991927,15.595441 0.991927,15.551876 1.006723,15.551849 1.014202,15.551816 1.087185,15.551816 1.087172,15.45254 1.08718,15.412469 1.087261,15.2302 1.087331,15.181481 1.123141,15.180358 1.325263,15.180358" style="fill: white" /><polygon type="contour" points="2.187628,15.19581 2.187663,15.317602 2.187027,15.884681 1.965918,15.884366 1.854831,15.884305 1.854718,15.320574 1.854718,15.191441 1.896166,15.189991" style="fill: white" /><polygon type="contour" points="2.649299,15.313003 2.648961,15.884767 2.594568,15.884767 2.453539,15.884681 2.453169,15.317603 2.45314,15.19581 2.481266,15.196556 2.649299,15.192803" style="fill: white" /><polygon type="contour" points="3.94508,15.655937 3.951334,15.8846 3.836255,15.8846 3.247075,15.884627 3.247301,15.308169 3.247448,15.199896 3.479972,15.194783 3.939466,15.192236" style="fill: white" /><polygon type="contour" points="3.939718,16.506892 3.935892,16.678561 3.814099,16.678531 3.24702,16.678161 3.24702,16.642566 3.246934,16.482739 3.818699,16.482404 3.9389,16.482404" style="fill: white" /><polygon type="contour" points="3.387292,16.944734 3.935371,16.944734 3.941098,17.235535 3.939671,17.276984 3.810535,17.276984 3.247397,17.276868 3.247336,17.165779 3.24702,16.944672" style="fill: white" /><polygon type="contour" points="2.649106,17.806414 2.648961,17.846037 2.648961,17.949068 2.489133,17.948979 2.453513,17.94896 2.453638,17.920348 2.453638,17.80628 2.492933,17.80628" style="fill: white" /><polygon type="contour" points="2.186966,17.829123 2.186966,17.94896 2.119983,17.94908 1.854831,17.949304 1.854831,17.806506 1.974851,17.806506 2.186884,17.80628" style="fill: white" /><polygon type="contour" points="2.186884,17.011716 2.186884,17.27676 2.119983,17.27676 1.854831,17.276868 1.85458,17.045616 1.854943,17.011715 1.854943,16.944816 2.119983,16.944816 2.186966,16.944734" style="fill: white" /><polygon type="contour" points="2.648938,17.011715 2.649106,17.277122 2.589784,17.277122 2.453638,17.27676 2.453638,17.011716 2.453513,16.944734 2.489133,16.944672 2.64884,16.944672" style="fill: white" /><polygon type="contour" points="2.648961,16.537133 2.64884,16.678161 2.617408,16.678188 2.453512,16.678188 2.453539,16.642565 2.453539,16.48286 2.489133,16.48286 2.648961,16.48274" style="fill: white" /><polygon type="contour" points="2.119984,16.482762 2.187028,16.48286 2.186966,16.514291 2.186966,16.678188 2.119984,16.678062 1.854943,16.678062 1.854943,16.638767 1.85458,16.482596" style="fill: white" /><polygon type="contour" points="1.325287,16.541917 1.325421,16.678062 1.302577,16.678188 1.182739,16.678188 1.18266,16.531441 1.182635,16.48274 1.225862,16.482596 1.325287,16.482596" style="fill: white" /><polygon type="contour" points="1.211352,16.944816 1.325421,16.944816 1.325421,17.011715 1.325197,17.276868 1.182397,17.276868 1.18262,17.011715 1.182739,16.944734" style="fill: white" /><polygon type="contour" points="1.003347,17.805934 1.01413,17.805934 1.014493,17.80592 1.022729,17.805926 1.026237,17.805931 1.050518,17.80605 1.065077,17.806089 1.182397,17.806504 1.325197,17.806504 1.325197,17.949305 1.325612,18.066624 1.325651,18.081183 1.325771,18.105464 1.325776,18.108973 1.325783,18.117207 1.325767,18.128353 1.325812,18.128877 1.325823,18.13908 1.03895,18.139746 1.038673,18.139794 0.991957,18.139744 0.991957,18.128986 0.992628,17.828508 0.992606,17.805894" style="fill: white" />
</svg>
