<svg width="19.131698" height="19.131699">
<polygon type="contour" points="13.393052,12.988129 13.393245,13.268033 13.569383,13.26894 13.578387,13.541476 13.579224,13.579225 13.27734,13.56897 13.273561,13.569382 13.268216,13.569023 13.268216,13.393246 12.988127,13.393055 12.953495,13.392969 12.953504,13.275656 12.953504,13.235605 12.953497,12.996281 12.953497,12.953498 13.218115,12.953504 13.268059,12.953504 13.374387,12.953497 13.392967,12.953497" style="fill: white" /><polygon type="contour" points="11.89804,12.953497 11.930315,12.953497 11.929852,13.218118 11.929852,13.268062 11.930315,13.374389 11.930315,13.392969 11.902888,13.392939 11.646769,13.392947 11.646769,13.568925 11.609673,13.568757 11.358203,13.570163 11.353954,13.286747 11.354345,13.235579 11.353856,13.235579 11.354385,12.996598 11.354254,12.953497 11.609653,12.953403 11.717409,12.953403" style="fill: white" /><polygon type="contour" points="11.930208,11.609654 11.930208,11.646742 11.930166,11.646742 11.930315,11.898044 11.930315,11.930318 11.744062,11.930211 11.609653,11.930211 11.354254,11.930318 11.354314,11.744063 11.354432,11.717421 11.356139,11.717421 11.354311,11.609268 11.355558,11.535778 11.358769,11.479623 11.362458,11.362459 11.47962,11.358771 11.535778,11.35556 11.609267,11.354313 11.717355,11.356035 11.717355,11.354402 11.897647,11.35436 11.930315,11.354256" style="fill: white" /><polygon type="contour" points="13.526176,11.358542 13.570161,11.358204 13.568754,11.609674 13.568922,11.64677 13.392943,11.64677 13.392936,11.902891 13.392966,11.930318 13.275653,11.929853 13.235602,11.929853 12.996278,11.930318 12.953495,11.930318 12.953402,11.744063 12.953402,11.609654 12.953495,11.354256 12.996596,11.354387 13.252145,11.353821" style="fill: white" /><polygon type="contour" points="13.569708,5.839649 13.569383,5.862763 13.393245,5.86344 13.393053,6.143572 13.392967,6.178207 13.275653,6.178199 13.235602,6.178199 12.996279,6.178207 12.953495,6.178207 12.953504,5.913586 12.953504,5.86364 12.953497,5.757314 12.953497,5.738735 12.988129,5.73865 13.268198,5.738455 13.268198,5.577852 13.268216,5.562681 13.27734,5.562735 13.579224,5.552479" style="fill: white" /><polygon type="contour" points="13.392936,7.228811 13.392943,7.484932 13.568922,7.484932 13.568754,7.522027 13.570161,7.7735 13.286745,7.777745 13.235576,7.777353 13.235576,7.777844 12.996596,7.777317 12.953495,7.777448 12.953402,7.522047 12.953402,7.414292 12.953495,7.23366 12.953495,7.201387 13.218115,7.201852 13.268059,7.201852 13.374388,7.201387 13.392966,7.201387" style="fill: white" /><polygon type="contour" points="11.930208,7.387638 11.930208,7.522047 11.930315,7.777447 11.744062,7.777384 11.71742,7.777267 11.71742,7.775559 11.609267,7.777388 11.535778,7.776142 11.47962,7.77293 11.362458,7.769244 11.358769,7.65208 11.355558,7.595922 11.354311,7.522433 11.356033,7.414346 11.3544,7.414346 11.354358,7.234053 11.354254,7.201387 11.609653,7.201493 11.646741,7.201493 11.646741,7.201534 11.898041,7.201387 11.930314,7.201387" style="fill: white" /><polygon type="contour" points="11.609673,5.562947 11.646769,5.562779 11.646769,5.738757 11.902888,5.738766 11.930315,5.738736 11.929852,5.856047 11.929852,5.896099 11.930315,6.135423 11.930315,6.178207 11.744063,6.178301 11.609653,6.178301 11.354254,6.178207 11.353802,5.913585 11.35398,5.870175 11.358541,5.605524 11.358203,5.56154" style="fill: white" /><polygon type="contour" points="5.854358,5.562735 5.858137,5.562322 5.863484,5.562681 5.863484,5.738455 6.143572,5.73865 6.178205,5.738735 6.178197,5.856047 6.178197,5.896099 6.178205,6.135422 6.178205,6.178207 5.913584,6.178199 5.86364,6.178199 5.757311,6.178207 5.738733,6.178207 5.738648,6.143574 5.738452,5.863669 5.562315,5.862763 5.553312,5.590226 5.552476,5.552478" style="fill: white" /><polygon type="contour" points="7.773159,5.605524 7.777879,5.879606 7.777315,6.135104 7.777446,6.178207 7.522045,6.178301 7.41429,6.178301 7.233659,6.178206 7.201386,6.178206 7.201849,5.913585 7.201849,5.86364 7.201386,5.757314 7.201386,5.738736 7.22881,5.738766 7.48493,5.738757 7.48493,5.562779 7.522024,5.562947 7.773497,5.56154" style="fill: white" /><polygon type="contour" points="7.777384,7.387638 7.777266,7.414281 7.775558,7.414281 7.777387,7.522433 7.776141,7.595922 7.772929,7.65208 7.769241,7.769244 7.652078,7.77293 7.59592,7.776142 7.522431,7.777388 7.414344,7.775665 7.414344,7.777299 7.234052,7.777344 7.201386,7.777448 7.201492,7.522047 7.201492,7.48496 7.201533,7.48496 7.201386,7.23366 7.201386,7.201387 7.387636,7.201493 7.522045,7.201493 7.777446,7.201387" style="fill: white" /><polygon type="contour" points="6.178298,7.387638 6.178298,7.522047 6.178205,7.777448 5.913584,7.777898 5.870258,7.777719 5.605521,7.773162 5.561537,7.7735 5.562945,7.522027 5.562777,7.484932 5.738755,7.484932 5.738764,7.228811 5.738734,7.201387 5.856047,7.201852 5.896097,7.201852 6.135421,7.201387 6.178205,7.201387" style="fill: white" /><polygon type="contour" points="6.135104,11.354387 6.178205,11.354256 6.178298,11.609654 6.178298,11.717409 6.178205,11.898044 6.178205,11.930318 5.913584,11.929853 5.86364,11.929853 5.757311,11.930318 5.738734,11.930318 5.738764,11.902891 5.738755,11.64677 5.562777,11.64677 5.562945,11.609674 5.561538,11.358204 5.605521,11.358542 5.879554,11.353821" style="fill: white" /><polygon type="contour" points="7.387636,11.354316 7.414279,11.354434 7.414279,11.356141 7.522431,11.354313 7.59592,11.35556 7.652078,11.358771 7.769241,11.362459 7.772929,11.479623 7.776141,11.535778 7.777387,11.609268 7.775559,11.717356 7.777298,11.717356 7.777341,11.89765 7.777446,11.930318 7.522045,11.930211 7.484958,11.930211 7.484958,11.930169 7.23366,11.930318 7.201386,11.930318 7.201492,11.744063 7.201492,11.609654 7.201386,11.354256" style="fill: white" /><polygon type="contour" points="7.777446,12.953496 7.777315,12.996598 7.777879,13.252097 7.773159,13.526179 7.773497,13.570163 7.522024,13.568757 7.48493,13.568925 7.48493,13.392948 7.22881,13.392939 7.201386,13.392969 7.201849,13.275656 7.201849,13.235604 7.201386,12.99628 7.201386,12.953496 7.387635,12.953403 7.522045,12.953403" style="fill: white" /><polygon type="contour" points="6.178197,13.218118 6.178197,13.268061 6.178205,13.37439 6.178205,13.392969 6.143572,13.393055 5.863502,13.393246 5.863502,13.553851 5.863484,13.569023 5.854359,13.56897 5.552476,13.579225 5.561991,13.292055 5.562315,13.26894 5.738452,13.268262 5.738648,12.988129 5.738733,12.953497 5.856046,12.953504 5.896097,12.953504 6.135421,12.953497 6.178205,12.953497" style="fill: white" />
</svg>
