<svg width="19.131698" height="19.131699">
<polygon type="contour" points="7.199362,7.086818 7.254432,7.087254 7.386457,7.087079 7.386064,7.255537 7.386064,7.330607 7.386095,7.386097 7.340236,7.385908 7.330604,7.386066 7.162145,7.38646 7.087077,7.38646 7.087252,7.254433 7.086982,7.211622 7.085061,7.150884 7.083423,7.083426" style="fill: white" /><polygon type="contour" points="12.044448,11.877268 12.044717,11.920081 12.046481,11.980818 12.048277,12.048278 11.932335,12.044884 11.877267,12.044449 11.745243,12.044625 11.745637,11.876166 11.745637,11.801097 11.745606,11.745607 11.791463,11.745796 11.801095,11.745638 11.969554,11.745245 12.044624,11.745245" style="fill: white" /><polygon type="contour" points="9.790965,11.745723 9.863199,11.745723 9.863199,11.835801 9.86285,11.872676 9.80306,11.87276 9.565448,11.872693 9.328641,11.87276 9.26885,11.872676 9.26885,11.782521 9.268906,11.745723 9.490494,11.745259 9.61398,11.745259" style="fill: white" /><polygon type="contour" points="10.60081,11.846322 10.60081,12.044705 10.564923,12.046653 10.543224,12.045246 10.477464,12.045064 10.325206,12.04453 10.325363,12.025309 10.327639,11.959564 10.3062,11.958821 10.306514,11.900387 10.306292,11.872899 10.306362,11.872863 10.306259,11.827061 10.306187,11.745607 10.412778,11.745607 10.600949,11.745472" style="fill: white" /><polygon type="contour" points="11.155629,11.74526 11.167426,11.745269 11.209015,11.745269 11.398449,11.745363 11.398449,11.840165 11.39827,11.872943 11.208983,11.872701 11.20348,11.87269 11.167404,11.87269 10.984796,11.872759 10.926873,11.872782 10.926873,11.74517" style="fill: white" /><polygon type="contour" points="11.84632,8.530891 12.044704,8.530891 12.046652,8.566777 12.045244,8.588474 12.04544,8.825703 12.017215,8.825549 12.012622,8.825503 11.900385,8.825186 11.872898,8.82541 11.872862,8.825335 11.827059,8.825441 11.745606,8.826409 11.745606,8.719817 11.745471,8.530752" style="fill: white" /><polygon type="contour" points="9.791173,9.268851 9.86285,9.268851 9.863126,9.491171 9.863126,9.614628 9.86285,9.791176 9.86285,9.862853 9.640531,9.863128 9.517075,9.863128 9.340527,9.862853 9.26885,9.862853 9.268574,9.641156 9.268574,9.5177 9.26885,9.340528 9.26885,9.268851 9.490545,9.268576 9.614,9.268576" style="fill: white" /><polygon type="contour" points="9.862838,8.736502 9.86285,8.825546 9.64053,8.825261 9.614001,8.825261 9.614001,8.825104 9.340527,8.825546 9.26885,8.825546 9.26885,8.61535 9.268862,8.530474 9.488902,8.530606 9.517082,8.530606 9.517082,8.530679 9.787657,8.530474 9.862838,8.530474" style="fill: white" /><polygon type="contour" points="9.86285,7.259025 9.86285,7.349181 9.862795,7.385981 9.64058,7.386445 9.517096,7.386445 9.340734,7.385981 9.268906,7.385981 9.268906,7.295901 9.26885,7.259026 9.328641,7.258942 9.565448,7.259011 9.80306,7.258942" style="fill: white" /><polygon type="contour" points="9.862875,7.922686 9.862884,7.931803 9.862795,7.931803 9.863348,8.135327 9.863327,8.204828 9.642177,8.204776 9.613999,8.204776 9.614,8.204746 9.343552,8.204829 9.268371,8.204829 9.268842,7.964288 9.268898,7.964288 9.268871,7.949092 9.268905,7.931802 9.268841,7.931802 9.268489,7.733253 9.490495,7.733358 9.517095,7.733358 9.517096,7.733412 9.799627,7.733253 9.863211,7.733253" style="fill: white" /><polygon type="contour" points="10.600948,7.733289 10.60105,7.92211 10.60105,7.964294 10.601228,8.131978 10.601228,8.204829 10.30604,8.204829 10.306353,7.976072 10.306415,7.937507 10.306303,7.922686 10.305967,7.733253 10.52526,7.733253" style="fill: white" /><polygon type="contour" points="10.60081,7.086999 10.600949,7.190304 10.600949,7.386231 10.498729,7.386231 10.305293,7.386097 10.305387,7.341161 10.306413,7.25459 10.306171,7.214764 10.3062,7.172883 10.329528,7.172077 10.325207,7.087174 10.477463,7.08664" style="fill: white" /><polygon type="contour" points="11.39827,7.353564 11.398449,7.386341 11.209015,7.386435 11.167426,7.386435 10.996593,7.386478 10.926873,7.386533 10.926873,7.258921 10.984796,7.258942 11.167404,7.259014 11.20348,7.259014 11.208984,7.259002 11.39827,7.258761" style="fill: white" /><polygon type="contour" points="12.046481,7.150884 12.044717,7.211622 12.04477,7.230125 12.044448,7.254433 12.044624,7.386066 11.801095,7.386066 11.745606,7.386097 11.745606,7.340378 11.745637,7.330607 11.745637,7.087079 11.877267,7.087254 11.932336,7.086819 12.048277,7.083426" style="fill: white" /><polygon type="contour" points="11.872941,7.733432 11.8727,7.922717 11.87269,7.925772 11.872689,7.928222 11.872689,7.964296 11.872757,8.146906 11.87278,8.204829 11.745168,8.204829 11.745276,7.931795 11.745268,7.931795 11.745361,7.78394 11.745361,7.733253 11.840163,7.733253" style="fill: white" /><polygon type="contour" points="11.397909,7.964276 11.398007,7.964275 11.398007,7.978858 11.398413,8.205044 11.209591,8.204427 11.167407,8.204427 10.999724,8.204829 10.926873,8.204829 10.927275,7.976072 10.927275,7.92211 10.926658,7.733289 11.155629,7.733701 11.205258,7.733679 11.347759,7.733253 11.398449,7.733253" style="fill: white" /><polygon type="contour" points="11.199934,8.530686 11.199934,8.530652 11.34543,8.530752 11.398413,8.530752 11.398413,8.746356 11.398449,8.825736 11.25801,8.825983 11.209015,8.8254 11.19529,8.825297 10.996375,8.825546 10.926873,8.825449 10.926873,8.530473" style="fill: white" /><polygon type="contour" points="10.600804,8.631106 10.600804,8.825135 10.500592,8.825135 10.306363,8.825336 10.306363,8.720598 10.306104,8.530897 10.405673,8.530891 10.60081,8.530891" style="fill: white" /><polygon type="contour" points="10.601228,9.268863 10.601096,9.489524 10.601096,9.517703 10.601022,9.517703 10.601228,9.787659 10.601228,9.862841 10.395198,9.862841 10.306155,9.862853 10.306441,9.641156 10.306441,9.614628 10.306597,9.614628 10.306155,9.340527 10.306155,9.268851 10.51635,9.268851" style="fill: white" /><polygon type="contour" points="11.15563,9.26882 11.20221,9.268812 11.347832,9.26844 11.398449,9.268491 11.398344,9.49112 11.398344,9.517721 11.398289,9.517721 11.398449,9.799628 11.398449,9.863571 11.209015,9.862941 11.200822,9.862891 11.155629,9.862884 10.926385,9.862841 10.926923,9.642799 10.926923,9.614621 10.92695,9.61462 10.926873,9.343555 10.926873,9.268374" style="fill: white" /><polygon type="contour" points="11.872758,9.328642 11.872692,9.566254 11.872758,9.803063 11.872674,9.862853 11.782518,9.862853 11.745721,9.863202 11.745257,9.641357 11.745257,9.517721 11.745721,9.340736 11.745721,9.268907 11.835798,9.268907 11.872673,9.268851" style="fill: white" /><polygon type="contour" points="12.045243,10.543227 12.044704,10.600811 11.941397,10.600951 11.745471,10.600951 11.745471,10.49873 11.745605,10.306189 11.827059,10.306262 11.887416,10.306397 11.961119,10.306173 12.012622,10.306201 12.04544,10.306" style="fill: white" /><polygon type="contour" points="11.872757,10.984797 11.872689,11.167407 11.872689,11.203482 11.8727,11.208986 11.872941,11.398272 11.778138,11.398272 11.745361,11.398451 11.745268,11.209017 11.745268,11.167428 11.745258,11.155631 11.745168,10.926874 11.87278,10.926874" style="fill: white" /><polygon type="contour" points="11.398002,11.155631 11.398023,11.205274 11.398449,11.347761 11.398449,11.398451 11.167425,11.39791 11.167426,11.398008 11.152851,11.398008 10.926658,11.398415 10.927275,11.209593 10.927275,11.167409 10.926873,10.999726 10.926873,10.926874 11.15563,10.927277 11.20959,10.927277 11.398413,10.926659" style="fill: white" /><polygon type="contour" points="11.155629,10.306354 11.175658,10.306386 11.209016,10.306367 11.398449,10.306327 11.398449,10.525622 11.398413,10.600951 11.209591,10.601052 11.155629,10.601052 10.926873,10.601229 10.926873,10.306042" style="fill: white" /><polygon type="contour" points="10.51207,10.926875 10.601228,10.926875 10.601015,11.199936 10.60105,11.199936 10.600948,11.345433 10.600948,11.398415 10.385344,11.398415 10.306324,11.398451 10.306121,11.25801 10.306366,11.209018 10.306384,11.17722 10.306154,10.996375 10.30604,10.926874" style="fill: white" /><polygon type="contour" points="10.60081,10.405675 10.60081,10.600811 10.500592,10.600806 10.306104,10.600806 10.306104,10.500595 10.306363,10.306365 10.411101,10.306365 10.600804,10.306106" style="fill: white" /><polygon type="contour" points="9.86285,10.516352 9.862838,10.601229 9.642177,10.601098 9.614,10.601098 9.614,10.601024 9.344043,10.601229 9.268862,10.601229 9.268862,10.395199 9.26885,10.306156 9.490545,10.306443 9.517075,10.306443 9.517075,10.3066 9.791173,10.306156 9.86285,10.306156" style="fill: white" /><polygon type="contour" points="9.488903,10.926925 9.517081,10.926925 9.517082,10.926953 9.788145,10.926874 9.863326,10.926874 9.862882,11.155632 9.862889,11.200824 9.862939,11.209017 9.863569,11.398451 9.640731,11.398346 9.613981,11.398346 9.613981,11.398291 9.332074,11.398451 9.268489,11.398451 9.268898,11.167415 9.268817,11.167415 9.268849,10.995879 9.268862,10.926387" style="fill: white" /><polygon type="contour" points="8.825314,11.155632 8.825378,11.206469 8.825398,11.209017 8.825733,11.398451 8.606439,11.398451 8.530751,11.398415 8.530651,11.209593 8.530651,11.167409 8.530472,10.999725 8.530472,10.926874 8.825447,10.926874" style="fill: white" /><polygon type="contour" points="8.826407,11.745607 8.825439,11.82706 8.825314,11.881911 8.82553,11.916938 8.825501,11.958821 8.802172,11.95963 8.806494,12.04453 8.654236,12.045063 8.53089,12.044704 8.53075,11.941398 8.53075,11.745472 8.63297,11.745472" style="fill: white" /><polygon type="contour" points="8.204827,11.872782 8.146903,11.872759 7.964295,11.87269 7.92822,11.87269 7.922715,11.872701 7.73343,11.872942 7.73343,11.77814 7.733251,11.745363 7.922684,11.745269 7.964273,11.745269 8.135106,11.745226 8.204827,11.74517" style="fill: white" /><polygon type="contour" points="7.11448,10.306153 7.119075,10.306201 7.231313,10.306515 7.258799,10.306294 7.258836,10.306365 7.30464,10.306262 7.386095,10.306189 7.386095,10.41278 7.38623,10.600951 7.285379,10.600811 7.086996,10.600811 7.085048,10.564925 7.086456,10.543226 7.086257,10.306" style="fill: white" /><polygon type="contour" points="7.386443,9.490971 7.386443,9.614607 7.385979,9.790969 7.385979,9.863202 7.295899,9.863202 7.259023,9.862852 7.258939,9.803063 7.259009,9.566254 7.258939,9.328642 7.259023,9.268851 7.349181,9.268851 7.385979,9.268502" style="fill: white" /><polygon type="contour" points="7.922684,9.268762 7.930877,9.268812 7.97607,9.26882 8.204827,9.268374 8.204775,9.489524 8.204775,9.517702 8.204745,9.517702 8.204827,9.788148 8.204827,9.863329 7.976071,9.862884 7.929483,9.862891 7.783867,9.863263 7.733251,9.863571 7.733356,9.641356 7.733356,9.614607 7.73341,9.614606 7.733251,9.332074 7.733251,9.268132" style="fill: white" /><polygon type="contour" points="7.38623,8.632972 7.386095,8.825513 7.341159,8.82541 7.239668,8.825318 7.170577,8.825531 7.119075,8.825503 7.086256,8.825703 7.086455,8.588474 7.086995,8.530891 7.190301,8.530752 7.38623,8.530752" style="fill: white" /><polygon type="contour" points="7.386432,7.922686 7.386432,7.964275 7.386441,7.976072 7.386532,8.204829 7.258918,8.204829 7.258939,8.146906 7.259012,7.964297 7.259012,7.928221 7.259,7.922718 7.25876,7.733432 7.353562,7.733432 7.386338,7.733253" style="fill: white" /><polygon type="contour" points="7.964274,7.733793 7.964274,7.733696 7.978849,7.733696 8.205042,7.733289 8.204426,7.92211 8.204426,7.964294 8.204827,8.131978 8.204827,8.204829 7.97607,8.204427 7.922108,8.204427 7.733287,8.205044 7.733698,7.976073 7.733676,7.92643 7.733251,7.783941 7.733251,7.733253" style="fill: white" /><polygon type="contour" points="7.922715,7.259002 7.92822,7.259014 7.964294,7.259014 8.146903,7.258942 8.204827,7.258921 8.204827,7.386533 7.976071,7.386444 7.964274,7.386435 7.922684,7.386435 7.733251,7.38634 7.733251,7.291538 7.73343,7.258762" style="fill: white" /><polygon type="contour" points="8.588473,7.086458 8.654235,7.086639 8.806494,7.087174 8.806337,7.106394 8.80406,7.172142 8.825501,7.172883 8.825185,7.231314 8.825407,7.258802 8.825335,7.258839 8.825438,7.30464 8.826407,7.386097 8.719815,7.386097 8.53075,7.386231 8.53089,7.28538 8.53089,7.086999 8.566776,7.085051" style="fill: white" /><polygon type="contour" points="8.825981,7.873692 8.825397,7.922686 8.825293,7.936429 8.825544,8.135328 8.825447,8.204829 8.530472,8.204829 8.530685,7.931767 8.530651,7.931766 8.530751,7.786271 8.530751,7.733289 8.746355,7.733289 8.825734,7.733253" style="fill: white" /><polygon type="contour" points="8.631105,8.530897 8.825133,8.530897 8.825133,8.631107 8.825335,8.825336 8.720597,8.825336 8.530896,8.825135 8.53089,8.725564 8.53089,8.530891" style="fill: white" /><polygon type="contour" points="8.204827,8.825449 7.976071,8.825317 7.964286,8.825332 7.964286,8.825328 7.733251,8.825377 7.733251,8.60608 7.733287,8.530752 7.922108,8.530652 7.976071,8.530652 8.204827,8.530474" style="fill: white" /><polygon type="contour" points="8.825259,9.491171 8.825259,9.517701 8.825102,9.517701 8.825544,9.791176 8.825544,9.862853 8.615348,9.862853 8.530472,9.862841 8.530604,9.6428 8.530604,9.614621 8.530677,9.614621 8.530472,9.344045 8.530472,9.268864 8.7365,9.268864 8.825544,9.268851" style="fill: white" /><polygon type="contour" points="8.825335,10.306364 8.825335,10.411103 8.825133,10.600805 8.725562,10.600811 8.53089,10.600811 8.530896,10.500595 8.530896,10.306106 8.631106,10.306106" style="fill: white" /><polygon type="contour" points="8.204827,10.601229 7.931765,10.601017 7.931765,10.601052 7.931764,10.601052 7.786268,10.600951 7.733287,10.600951 7.733287,10.385346 7.733251,10.306327 7.87369,10.306124 7.922683,10.306368 7.954481,10.306385 8.135325,10.306155 8.204827,10.306042" style="fill: white" /><polygon type="contour" points="7.922109,10.927277 7.964292,10.927277 8.131976,10.926874 8.204827,10.926874 8.204426,11.155631 8.204426,11.209593 8.205042,11.398415 7.976071,11.398003 7.926442,11.398024 7.783939,11.398451 7.733251,11.398451 7.73379,11.167427 7.733693,11.167427 7.733693,11.152846 7.733287,10.926659" style="fill: white" /><polygon type="contour" points="7.386423,11.199908 7.386431,11.199908 7.386339,11.347762 7.386339,11.398451 7.291537,11.398451 7.25876,11.398272 7.259,11.208986 7.259012,11.203482 7.259012,11.167406 7.258939,10.984797 7.258918,10.926874 7.386532,10.926874" style="fill: white" /><polygon type="contour" points="7.255535,11.745638 7.330604,11.745638 7.386095,11.745607 7.386095,11.791326 7.386064,11.801097 7.386064,12.044625 7.254432,12.044449 7.199362,12.044884 7.083423,12.048278 7.085061,11.980817 7.086982,11.920082 7.087252,11.877268 7.087077,11.745245" style="fill: white" />
</svg>
