<svg width="19.131698" height="19.131699">
<polygon type="contour" points="10.192706,10.145507 10.250507,10.145507 10.250507,10.192707 10.250584,10.250585 10.198772,10.250585 10.145505,10.250509 10.145343,10.21057 10.145343,10.145344" style="fill: white" /><polygon type="contour" points="10.658595,10.192707 10.656233,10.250494 10.612665,10.250494 10.560856,10.250585 10.560856,10.198773 10.560699,10.145507 10.597267,10.14527 10.658908,10.14527" style="fill: white" /><polygon type="contour" points="10.890966,10.192708 10.891005,10.250585 10.839195,10.250585 10.786302,10.250494 10.786341,10.209735 10.786397,10.145344 10.890963,10.145344" style="fill: white" /><polygon type="contour" points="11.058656,10.84313 11.059403,10.873368 11.064999,11.065 10.961887,11.063143 10.788914,11.061214 10.787897,11.034437 10.787897,11.008679 10.78779,11.003312 10.78779,10.968061 10.786883,10.786884 10.952014,10.786884 11.00504,10.786788 11.058662,10.786788" style="fill: white" /><polygon type="contour" points="10.891005,10.560858 10.890922,10.612667 10.890909,10.656269 10.786334,10.656269 10.786302,10.612666 10.786302,10.560656 10.834355,10.560656" style="fill: white" /><polygon type="contour" points="10.656423,10.786309 10.656423,10.849781 10.656267,10.890911 10.612665,10.890924 10.560856,10.891007 10.560856,10.839197 10.560654,10.786304 10.612665,10.786304" style="fill: white" /><polygon type="contour" points="10.656267,10.597962 10.656267,10.656269 10.612664,10.656236 10.560654,10.656236 10.560654,10.612666 10.560856,10.560858 10.60783,10.560858 10.656234,10.560656" style="fill: white" /><polygon type="contour" points="10.250584,10.560858 10.250584,10.607832 10.250492,10.656236 10.192705,10.656285 10.145268,10.656323 10.145505,10.61349 10.145505,10.560701 10.192706,10.560701" style="fill: white" /><polygon type="contour" points="10.192706,10.784041 10.250492,10.786304 10.250492,10.834356 10.250584,10.891007 10.192705,10.890968 10.145343,10.890964 10.145343,10.783789" style="fill: white" /><polygon type="contour" points="9.451704,10.787481 9.451704,10.786381 9.497286,10.786395 9.565862,10.786321 9.627867,10.786389 9.679625,10.786445 9.679625,10.786842 9.817908,10.786842 10.018864,10.784341 10.018897,10.835249 10.018897,11.058701 9.96033,11.059286 9.912827,11.058202 9.871694,11.058471 9.78596,11.060189 9.727603,11.060167 9.726287,11.008567 9.726287,10.958475 9.725202,10.890877 9.630829,10.891063 9.537215,10.890129 9.537215,10.890696 9.497287,10.890696 9.40592,10.891242 9.405413,11.008567 9.405378,11.014892 9.404097,11.060167 9.260006,11.058471 9.218872,11.058202 9.112772,11.058708 9.112772,10.925059 9.112837,10.851155 9.112837,10.784341 9.225256,10.784341" style="fill: white" /><polygon type="contour" points="9.452142,10.561218 9.452142,10.561103 9.497287,10.561127 9.537215,10.560963 9.537215,10.561104 9.636337,10.560858 9.679558,10.561103 9.835523,10.561103 10.018695,10.560701 10.018594,10.59727 10.018594,10.656323 9.906175,10.656323 9.728915,10.656336 9.634042,10.656701 9.538688,10.656734 9.503526,10.656269 9.449192,10.65634 9.225524,10.656323 9.113105,10.656323 9.113005,10.61349 9.113005,10.560701 9.244537,10.560701" style="fill: white" /><polygon type="contour" points="9.679624,10.144971 9.907749,10.145344 10.018592,10.145344 10.018695,10.192707 10.018695,10.250509 9.887162,10.250509 9.679559,10.250126 9.679559,10.250212 9.634043,10.250152 9.594033,10.250398 9.594033,10.250144 9.495363,10.250585 9.452142,10.250212 9.296177,10.250212 9.113005,10.250509 9.113108,10.21057 9.113108,10.145344 9.22395,10.145344 9.452076,10.144971 9.452076,10.144888 9.497286,10.145151 9.568605,10.145514 9.627243,10.145146 9.679624,10.144888" style="fill: white" /><polygon type="contour" points="8.169812,8.068562 8.342785,8.070487 8.343802,8.097263 8.343802,8.123021 8.343909,8.128388 8.343909,8.163639 8.344817,8.34482 8.179685,8.34482 8.12666,8.344916 8.073038,8.344916 8.073045,8.288574 8.072296,8.258336 8.066702,8.066704" style="fill: white" /><polygon type="contour" points="9.404097,8.071537 9.405414,8.123137 9.405414,8.173228 9.406498,8.240826 9.500871,8.240641 9.594033,8.241581 9.594033,8.241008 9.634042,8.241008 9.72578,8.240462 9.726287,8.123137 9.726322,8.116811 9.727603,8.071537 9.871693,8.073233 9.912827,8.073502 10.018928,8.072996 10.018928,8.206644 10.018864,8.280548 10.018864,8.344776 9.906443,8.344776 9.679625,8.344884 9.679625,8.345259 9.634042,8.345308 9.565595,8.345381 9.503832,8.345314 9.452076,8.345259 9.452076,8.344862 9.313791,8.344862 9.112837,8.347361 9.112803,8.296452 9.112803,8.073003 9.171369,8.072418 9.218872,8.073502 9.260005,8.073233 9.345739,8.071515" style="fill: white" /><polygon type="contour" points="10.250584,8.93293 10.250507,8.986197 10.192705,8.986197 10.185609,8.986434 10.145343,8.986359 10.145505,8.938996 10.145505,8.881196 10.192706,8.881196 10.250584,8.881119" style="fill: white" /><polygon type="contour" points="10.018829,9.314078 10.018736,9.405676 10.018685,9.405676 10.018538,9.497659 10.018635,9.537626 10.018384,9.537626 10.018781,9.627857 10.018463,9.726126 10.018725,9.726127 10.018919,9.90618 10.019049,10.019051 9.817624,10.018831 9.726027,10.018738 9.726027,10.018687 9.634043,10.01854 9.594077,10.018637 9.594077,10.018386 9.503845,10.018784 9.405576,10.018465 9.405576,10.018727 9.225522,10.018921 9.112651,10.019051 9.11287,9.817625 9.112964,9.726028 9.11323,9.726028 9.113162,9.634415 9.113065,9.594504 9.11331,9.594504 9.112919,9.503847 9.113237,9.405577 9.112976,9.405576 9.11278,9.225523 9.112651,9.112653 9.314076,9.112872 9.405674,9.112966 9.405674,9.11323 9.497287,9.113164 9.537199,9.113067 9.537199,9.113314 9.627855,9.11292 9.726124,9.113238 9.726124,9.112977 9.906176,9.112783 10.019049,9.112653" style="fill: white" /><polygon type="contour" points="10.250507,9.244539 10.250124,9.452144 10.25021,9.452144 10.25015,9.497659 10.250396,9.53767 10.25014,9.53767 10.250583,9.636339 10.25021,9.679559 10.25021,9.835524 10.250507,10.018696 10.210567,10.018594 10.145343,10.018594 10.145343,9.907751 10.144969,9.679626 10.144886,9.679626 10.145151,9.634415 10.145514,9.563029 10.145144,9.504459 10.144885,9.452077 10.145045,9.452078 10.145045,9.31545 10.145343,9.113109 10.192705,9.113008 10.250507,9.113008" style="fill: white" /><polygon type="contour" points="11.058444,9.226467 11.058373,9.405685 10.890873,9.405685 10.891061,9.500873 10.890127,9.594487 10.890693,9.594487 10.890694,9.634415 10.891242,9.726028 11.058495,9.726028 11.058592,9.817625 11.058714,10.019051 10.955418,10.019051 10.851154,10.018866 10.786926,10.018866 10.78684,9.81791 10.786757,9.679993 10.78638,9.679998 10.786394,9.634415 10.78635,9.59448 10.786421,9.59448 10.786307,9.503511 10.78638,9.451706 10.787414,9.451706 10.784274,9.226466 10.78434,9.112838 10.954176,9.112838 11.058714,9.112653" style="fill: white" /><polygon type="contour" points="10.656322,9.113107 10.656322,9.225527 10.656334,9.402792 10.656699,9.49766 10.656734,9.591282 10.656503,9.627869 10.656524,9.679625 10.655675,9.679624 10.658907,9.906176 10.659906,10.018784 10.6158,10.018696 10.560699,10.018696 10.560699,9.887164 10.561216,9.67956 10.561101,9.67956 10.561125,9.634415 10.560961,9.594488 10.561102,9.594488 10.560856,9.495365 10.561101,9.452144 10.561101,9.296179 10.560699,9.113008 10.613489,9.113008" style="fill: white" /><polygon type="contour" points="10.656234,8.881211 10.656282,8.938995 10.656322,8.986434 10.613489,8.986197 10.560699,8.986197 10.560699,8.938996 10.560856,8.881119 10.607829,8.881119" style="fill: white" /><polygon type="contour" points="10.890966,8.938995 10.890963,8.986359 10.783788,8.986359 10.78404,8.938995 10.786302,8.881211 10.834354,8.881211 10.891005,8.881119" style="fill: white" /><polygon type="contour" points="11.059403,8.258336 11.058656,8.288574 11.058662,8.344916 11.00504,8.344916 10.952014,8.34482 10.850296,8.34482 10.822114,8.344839 10.786864,8.344839 10.786864,8.309587 10.787789,8.128389 10.787897,8.097262 10.78812,8.091951 10.788914,8.070487 10.961888,8.068562 11.064999,8.066704" style="fill: white" /><polygon type="contour" points="10.890922,8.519036 10.891005,8.570846 10.839195,8.570846 10.786302,8.571046 10.786302,8.519036 10.786334,8.475435 10.890909,8.475435" style="fill: white" /><polygon type="contour" points="10.656234,8.519037 10.656234,8.571046 10.612664,8.571046 10.560856,8.570846 10.560856,8.523872 10.560654,8.475469 10.597959,8.475435 10.656267,8.475435" style="fill: white" /><polygon type="contour" points="10.612665,8.24078 10.656267,8.240793 10.656267,8.304208 10.656423,8.345395 10.612665,8.3454 10.560654,8.3454 10.560654,8.297346 10.560856,8.240697" style="fill: white" /><polygon type="contour" points="10.250584,8.292505 10.250492,8.3454 10.209733,8.34536 10.145343,8.345306 10.145343,8.240739 10.192706,8.240736 10.250584,8.240697" style="fill: white" /><polygon type="contour" points="10.192705,8.473106 10.250492,8.475469 10.250492,8.519036 10.250584,8.570846 10.198772,8.570846 10.145505,8.571003 10.145505,8.5159 10.145268,8.472794" style="fill: white" /><polygon type="contour" points="10.018594,8.472794 10.018695,8.5159 10.018695,8.571003 9.887162,8.571003 9.679559,8.570485 9.679559,8.570601 9.634043,8.570575 9.594033,8.570739 9.594033,8.570593 9.495363,8.570846 9.452142,8.570601 9.296177,8.570601 9.113005,8.571003 9.113105,8.534433 9.113105,8.475379 9.225524,8.475379 9.403206,8.475368 9.497287,8.475004 9.592459,8.474968 9.628174,8.475435 9.713304,8.475324 9.904963,8.472535" style="fill: white" /><polygon type="contour" points="9.679558,8.881492 9.835523,8.881492 10.018695,8.881196 10.018592,8.921133 10.018592,8.986359 9.907749,8.986359 9.679625,8.986731 9.679625,8.986816 9.634042,8.986923 9.537199,8.986559 9.537198,8.986773 9.504457,8.986557 9.452075,8.986816 9.452076,8.986731 9.22395,8.986359 9.113107,8.986359 9.113005,8.938996 9.113005,8.881196 9.244537,8.881196 9.452142,8.881577 9.452142,8.881491 9.497287,8.881552 9.537215,8.881306 9.537215,8.881559 9.636337,8.881119" style="fill: white" /><polygon type="contour" points="8.921132,9.11311 8.986357,9.11311 8.986357,9.223952 8.98673,9.452078 8.986814,9.452078 8.986921,9.497659 8.986556,9.594503 8.986771,9.594504 8.986555,9.627243 8.986815,9.679626 8.986655,9.679625 8.986655,9.816253 8.986357,10.018594 8.938994,10.018696 8.881194,10.018696 8.881194,9.887164 8.881575,9.67956 8.88149,9.67956 8.881551,9.634415 8.881305,9.594488 8.881557,9.594488 8.881117,9.495365 8.88149,9.452144 8.88149,9.296179 8.881194,9.113008" style="fill: white" /><polygon type="contour" points="8.986195,8.881196 8.986357,8.921133 8.986357,8.986359 8.938994,8.986197 8.881194,8.986197 8.881194,8.938996 8.881117,8.881119 8.932928,8.881119" style="fill: white" /><polygon type="contour" points="8.986195,8.518211 8.986195,8.571003 8.938994,8.571003 8.881117,8.570846 8.881117,8.523871 8.881209,8.475469 8.938994,8.475417 8.986432,8.475379" style="fill: white" /><polygon type="contour" points="8.938993,8.240736 8.986357,8.240739 8.986357,8.347913 8.938993,8.347662 8.881209,8.3454 8.881209,8.297347 8.881117,8.240697" style="fill: white" /><polygon type="contour" points="8.570844,8.292506 8.571044,8.3454 8.519035,8.3454 8.475433,8.345369 8.475433,8.240793 8.519034,8.24078 8.570844,8.240697" style="fill: white" /><polygon type="contour" points="8.519035,8.475469 8.571044,8.475469 8.571044,8.519037 8.570844,8.570846 8.52387,8.570846 8.475467,8.571046 8.475433,8.533739 8.475433,8.475435" style="fill: white" /><polygon type="contour" points="8.345398,8.519036 8.345398,8.571046 8.297344,8.571046 8.240695,8.570846 8.240778,8.519036 8.240791,8.475435 8.345367,8.475435" style="fill: white" /><polygon type="contour" points="8.345398,8.881211 8.345359,8.921967 8.345304,8.986359 8.240737,8.986359 8.240734,8.938995 8.240695,8.881119 8.292503,8.881119" style="fill: white" /><polygon type="contour" points="8.570844,8.93293 8.571001,8.986197 8.534432,8.986434 8.472792,8.986434 8.473106,8.938996 8.475467,8.881211 8.519034,8.881211 8.570844,8.881119" style="fill: white" /><polygon type="contour" points="8.515899,9.113008 8.571001,9.113008 8.571001,9.244539 8.570483,9.452144 8.570599,9.452144 8.570574,9.497659 8.570738,9.53767 8.570594,9.53767 8.570844,9.636339 8.570599,9.67956 8.570599,9.835524 8.571,10.018696 8.515899,10.018696 8.471793,10.018784 8.472792,9.906176 8.475601,9.709379 8.475002,9.634415 8.474966,9.539242 8.475433,9.503526 8.4753,9.401264 8.472792,9.225527 8.471793,9.11292" style="fill: white" /><polygon type="contour" points="8.280546,9.112838 8.344774,9.112838 8.34486,9.313793 8.344943,9.452078 8.345257,9.452078 8.345306,9.497659 8.345379,9.566107 8.345312,9.627869 8.345257,9.679626 8.34491,9.679626 8.344926,9.817625 8.344854,10.019051 8.072987,10.019051 8.073256,9.905236 8.073326,9.726019 8.240826,9.726019 8.240639,9.63083 8.241579,9.537669 8.241006,9.537669 8.241006,9.49766 8.240459,9.405676 8.073205,9.405676 8.073106,9.314077 8.072987,9.112653 8.176281,9.112653" style="fill: white" /><polygon type="contour" points="8.345349,10.192707 8.345398,10.250494 8.297345,10.250494 8.240695,10.250585 8.240734,10.192708 8.240737,10.145344 8.345304,10.145344" style="fill: white" /><polygon type="contour" points="8.515898,10.145507 8.571001,10.145507 8.571001,10.192707 8.570844,10.250585 8.523869,10.250585 8.475467,10.250494 8.473105,10.192707 8.472792,10.14527" style="fill: white" /><polygon type="contour" points="8.986357,10.145344 8.986195,10.192707 8.986195,10.250509 8.938994,10.250509 8.881117,10.250585 8.881117,10.198773 8.881193,10.145507 8.938994,10.145507 8.946089,10.14527" style="fill: white" /><polygon type="contour" points="8.986195,10.61349 8.986432,10.656323 8.938994,10.656285 8.881209,10.656236 8.881209,10.612667 8.881117,10.560858 8.932928,10.560858 8.986195,10.560701" style="fill: white" /><polygon type="contour" points="8.986357,10.890965 8.938993,10.890968 8.881117,10.891007 8.881117,10.839197 8.881209,10.786304 8.921966,10.786343 8.986357,10.783789" style="fill: white" /><polygon type="contour" points="8.571044,10.834357 8.570844,10.891007 8.519034,10.890924 8.475433,10.890911 8.475433,10.827495 8.475277,10.786308 8.519034,10.786304 8.571044,10.786304" style="fill: white" /><polygon type="contour" points="8.570844,10.560858 8.570844,10.607832 8.571044,10.656236 8.533737,10.656269 8.475433,10.656269 8.475467,10.612666 8.475467,10.560656 8.519035,10.560656" style="fill: white" /><polygon type="contour" points="8.345398,10.612666 8.345367,10.656269 8.240791,10.656269 8.240778,10.612667 8.240695,10.560858 8.292504,10.560858 8.345398,10.560656" style="fill: white" /><polygon type="contour" points="8.179685,10.786884 8.281403,10.786884 8.309585,10.786866 8.344837,10.786866 8.344837,10.822116 8.343909,11.003311 8.343802,11.034437 8.343578,11.03975 8.342785,11.061214 8.169812,11.063143 8.066702,11.065 8.072297,10.873367 8.073045,10.843129 8.073038,10.786788 8.12666,10.786788" style="fill: white" />
</svg>
