<svg width="19.131698" height="19.131699">
<polygon type="contour" points="7.96437,13.262564 7.964127,13.280094 7.963563,13.320058 7.923037,13.319591 7.905076,13.319436 7.844285,13.320975 7.669449,13.321767 7.669449,13.262669 7.669773,13.112187 7.669773,13.025595 7.875001,13.025595 7.960617,13.025576" style="fill: white" /><polygon type="contour" points="7.963722,12.476873 7.963765,12.52909 7.742302,12.52909 7.669734,12.529087 7.669519,12.339122 7.669519,12.316333 7.933285,12.316333 7.964349,12.316308" style="fill: white" /><polygon type="contour" points="7.964395,12.178476 7.964349,12.208636 7.698037,12.208636 7.669519,12.208687 7.669386,12.012383 7.669386,11.926991 7.963792,11.926991" style="fill: white" /><polygon type="contour" points="7.204491,12.316333 7.204491,12.339121 7.204245,12.529087 6.953224,12.529756 6.923039,12.529762 6.923039,12.337826 6.923066,12.316308 7.176755,12.316308" style="fill: white" /><polygon type="contour" points="7.204491,12.178476 7.204491,12.208687 6.953224,12.208687 6.923066,12.208636 6.923066,11.954947 6.923015,11.927212 7.119317,11.926991 7.204712,11.926991" style="fill: white" /><polygon type="contour" points="6.815369,12.178476 6.815394,12.208636 6.622917,12.208636 6.601937,12.208663 6.601943,12.178477 6.602614,11.927457 6.79258,11.927212 6.815369,11.927212" style="fill: white" /><polygon type="contour" points="6.815394,12.508781 6.815368,12.529762 6.655874,12.52909 6.60261,12.52909 6.601937,12.337826 6.601937,12.316335 6.793875,12.316335 6.815394,12.316308" style="fill: white" /><polygon type="contour" points="6.953224,13.023161 7.204712,13.02369 7.204712,13.144431 6.953224,13.144584 6.923066,13.14464 6.923066,13.034836 6.923039,13.023137" style="fill: white" /><polygon type="contour" points="6.815368,13.132634 6.815394,13.14464 6.654826,13.145041 6.60261,13.145071 6.60261,13.082848 6.614173,13.090207 6.64091,13.053568 6.652301,13.039794 6.652369,13.023955 6.655874,13.023971 6.815368,13.023137" style="fill: white" /><polygon type="contour" points="6.073206,13.025544 6.106156,13.025544 6.106156,13.106756 6.105903,13.321883 5.87742,13.320539 5.808833,13.32287 5.810995,13.257623 5.812236,13.169156 5.810671,13.025235 5.862876,13.024311 5.868887,13.024142" style="fill: white" /><polygon type="contour" points="6.108564,12.316335 6.107731,12.475828 6.107731,12.52909 5.986631,12.52909 5.986661,12.476873 5.987061,12.316308 6.096865,12.316308" style="fill: white" /><polygon type="contour" points="6.10854,12.178476 6.108564,12.208663 5.999066,12.208663 5.98706,12.208636 5.987115,12.006787 5.98727,11.926991 6.108013,11.926991" style="fill: white" /><polygon type="contour" points="6.105996,11.171321 6.106156,11.381889 6.106138,11.462164 6.071811,11.462164 6.028573,11.462204 5.91423,11.462204 5.869035,11.462254 5.809936,11.462254 5.810725,11.287418 5.812479,11.225159 5.812343,11.207594 5.811903,11.168223 5.850714,11.167671 5.867834,11.167428" style="fill: white" /><polygon type="contour" points="6.815394,11.167353 6.815394,11.433663 6.815369,11.462184 6.79258,11.462184 6.602614,11.461965 6.602614,11.244187 6.60261,11.167937 6.793875,11.167338" style="fill: white" /><polygon type="contour" points="7.124913,11.168056 7.204712,11.167911 7.204712,11.462315 6.953225,11.462184 6.923015,11.462184 6.923015,11.198417 6.923066,11.167353" style="fill: white" /><polygon type="contour" points="7.873978,11.168996 7.916542,11.172426 7.959604,11.172096 7.962705,11.257722 7.963392,11.286315 7.96042,11.462254 7.669449,11.462254 7.669449,11.171282 7.845384,11.168309" style="fill: white" /><polygon type="contour" points="7.844285,5.810727 7.906541,5.812481 7.924105,5.812345 7.963476,5.811905 7.964028,5.850716 7.964272,5.867835 7.960379,6.105997 7.75148,6.106127 7.669773,6.106109 7.669773,6.071182 7.669499,6.028575 7.669499,5.914231 7.669449,5.869036 7.669449,5.809938" style="fill: white" /><polygon type="contour" points="7.963392,7.845386 7.962705,7.873979 7.959273,7.916544 7.959604,7.959606 7.706891,7.955616 7.669676,7.960595 7.669676,7.843108 7.669449,7.66945 7.96042,7.66945" style="fill: white" /><polygon type="contour" points="7.204712,7.963793 7.124913,7.963648 6.923066,7.96435 6.923066,7.69804 6.923015,7.66952 7.119317,7.669389 7.204712,7.669389" style="fill: white" /><polygon type="contour" points="6.815369,7.933286 6.815394,7.964351 6.793875,7.964366 6.60261,7.963768 6.60261,7.742303 6.602613,7.669735 6.79258,7.66952 6.815369,7.66952" style="fill: white" /><polygon type="contour" points="6.021031,7.66954 6.106138,7.66954 6.106138,7.876243 6.106156,7.960384 5.869135,7.964371 5.851606,7.964128 5.811643,7.963564 5.812266,7.905078 5.810725,7.844285 5.809936,7.66945 5.869035,7.66945" style="fill: white" /><polygon type="contour" points="6.108541,6.953226 6.108013,7.204713 5.987271,7.204713 5.987116,6.953226 5.987061,6.923068 6.096865,6.923068 6.108564,6.923041" style="fill: white" /><polygon type="contour" points="6.107731,6.655875 6.108564,6.81537 5.999065,6.81537 5.987061,6.815396 5.98666,6.654829 5.986631,6.602613 6.107731,6.602613" style="fill: white" /><polygon type="contour" points="6.105903,5.809821 6.105903,5.873347 6.106156,6.024947 6.106156,6.106159 5.907794,6.107559 5.868887,6.107559 5.862876,6.107389 5.810671,6.106467 5.812236,5.962547 5.808833,5.808834 5.877421,5.811165 5.972029,5.800827" style="fill: white" /><polygon type="contour" points="6.654826,5.986662 6.815394,5.987062 6.815394,6.096867 6.815368,6.108566 6.655874,6.107732 6.60261,6.107732 6.60261,5.986634" style="fill: white" /><polygon type="contour" points="7.124912,5.987118 7.204712,5.987273 7.204712,6.108013 6.953224,6.108542 6.923039,6.108565 6.923039,5.999067 6.923066,5.987062" style="fill: white" /><polygon type="contour" points="6.953224,6.601946 7.204245,6.602617 7.204491,6.792582 7.204491,6.815371 6.953225,6.815371 6.923066,6.815396 6.923066,6.62292 6.923039,6.60194" style="fill: white" /><polygon type="contour" points="6.815368,6.793878 6.815394,6.815396 6.622918,6.815396 6.601937,6.815369 6.60261,6.655876 6.60261,6.602613 6.793876,6.60194 6.815368,6.60194" style="fill: white" /><polygon type="contour" points="6.815394,6.923068 6.815394,7.176756 6.815369,7.204492 6.79258,7.204492 6.602614,7.204247 6.601943,6.953226 6.601937,6.923041 6.793875,6.923041" style="fill: white" /><polygon type="contour" points="7.204712,7.119319 7.204712,7.204713 6.953225,7.204492 6.923015,7.204492 6.923015,6.953226 6.923066,6.923068 7.176755,6.923068 7.204491,6.923017" style="fill: white" /><polygon type="contour" points="7.964349,6.923068 7.963646,7.124915 7.963792,7.204713 7.669386,7.204713 7.669519,6.953227 7.669519,6.923017 7.933284,6.923017" style="fill: white" /><polygon type="contour" points="7.964365,6.793877 7.964349,6.815396 7.698038,6.815396 7.669519,6.815371 7.669519,6.792582 7.669734,6.602617 7.887514,6.602617 7.963765,6.602613" style="fill: white" /><polygon type="contour" points="11.462251,5.869035 11.461927,6.019516 11.461927,6.106109 11.2567,6.106109 11.171084,6.106127 11.16733,5.869137 11.167572,5.85161 11.168138,5.811645 11.226623,5.812268 11.287415,5.810727 11.462251,5.809938" style="fill: white" /><polygon type="contour" points="11.461964,6.602616 11.462182,6.792582 11.462182,6.815371 11.198414,6.815371 11.16735,6.815396 11.167335,6.793877 11.167934,6.602613 11.389396,6.602613" style="fill: white" /><polygon type="contour" points="11.462314,7.119319 11.462314,7.204713 11.167908,7.204713 11.168054,7.124916 11.16735,6.923068 11.433661,6.923068 11.462181,6.923017" style="fill: white" /><polygon type="contour" points="13.320974,7.844285 13.319221,7.906543 13.319797,7.963478 13.280985,7.96403 13.263866,7.964273 13.025702,7.960381 13.025543,7.749814 13.025562,7.66954 13.059888,7.66954 13.103125,7.6695 13.21747,7.6695 13.262664,7.66945 13.321764,7.66945" style="fill: white" /><polygon type="contour" points="13.144638,6.923068 13.144586,7.124915 13.14443,7.204713 13.023687,7.204713 13.023159,6.953227 13.023136,6.923041 13.132632,6.923041" style="fill: white" /><polygon type="contour" points="13.14504,6.654829 13.144638,6.815396 13.034834,6.815396 13.023135,6.81537 13.023969,6.655876 13.023969,6.602613 13.14507,6.602613" style="fill: white" /><polygon type="contour" points="13.320706,5.87408 13.319464,5.962547 13.32103,6.106467 13.268823,6.10739 13.262812,6.107559 13.058493,6.106159 13.025543,6.106159 13.025544,6.073209 13.025543,6.024947 13.025796,5.809822 13.254279,5.811165 13.322868,5.808834" style="fill: white" /><polygon type="contour" points="12.529089,6.016417 12.529089,6.107732 12.475826,6.107732 12.316333,6.108566 12.316333,5.999067 12.316306,5.987062 12.476873,5.986662 12.52909,5.986634" style="fill: white" /><polygon type="contour" points="12.208634,6.096867 12.208661,6.108566 12.178475,6.108542 11.926988,6.108013 11.926988,5.987273 12.006787,5.987118 12.208634,5.987062" style="fill: white" /><polygon type="contour" points="12.475826,6.602613 12.529089,6.602613 12.529759,6.793877 12.529759,6.81537 12.337825,6.81537 12.316306,6.815396 12.316306,6.62292 12.316333,6.60194" style="fill: white" /><polygon type="contour" points="12.208661,6.793877 12.208634,6.815396 11.954944,6.815396 11.927209,6.815371 11.927209,6.792583 11.927456,6.602617 12.178475,6.601946 12.208661,6.60194" style="fill: white" /><polygon type="contour" points="12.208634,6.923068 12.208634,7.176756 12.208685,7.204491 12.012381,7.204713 11.926988,7.204713 11.927209,6.953227 11.927209,6.923017 12.178475,6.923017" style="fill: white" /><polygon type="contour" points="12.529753,6.953226 12.529086,7.204247 12.339119,7.204492 12.316331,7.204492 12.316331,6.953227 12.316306,6.923068 12.508778,6.923068 12.529759,6.923041" style="fill: white" /><polygon type="contour" points="12.529086,7.669736 12.529086,7.887516 12.529089,7.963768 12.337825,7.964366 12.316306,7.964351 12.316306,7.69804 12.316331,7.66952 12.339119,7.66952" style="fill: white" /><polygon type="contour" points="12.178474,7.66952 12.208685,7.66952 12.208685,7.933286 12.208634,7.96435 12.006786,7.963648 11.926988,7.963793 11.926988,7.669389" style="fill: white" /><polygon type="contour" points="11.462251,7.960421 11.286313,7.963393 11.172095,7.959606 11.176085,7.706894 11.171106,7.669679 11.288593,7.669679 11.462251,7.66945" style="fill: white" /><polygon type="contour" points="11.462024,11.288594 11.462251,11.462254 11.171279,11.462254 11.168307,11.286315 11.172095,11.172096 11.424808,11.176087 11.462024,11.171109" style="fill: white" /><polygon type="contour" points="11.462182,12.178477 11.462182,12.208687 11.198414,12.208687 11.16735,12.208636 11.168054,12.006787 11.167908,11.926991 11.462314,11.926991" style="fill: white" /><polygon type="contour" points="11.462182,12.316333 11.462182,12.339122 11.461964,12.529087 11.244185,12.529087 11.167935,12.52909 11.167335,12.337826 11.16735,12.316308 11.433661,12.316308" style="fill: white" /><polygon type="contour" points="11.461927,13.025595 11.461927,13.060522 11.462202,13.103127 11.462202,13.217473 11.462251,13.262667 11.462251,13.321767 11.287414,13.320975 11.225157,13.319224 11.168222,13.319799 11.16767,13.280987 11.167427,13.263867 11.171319,13.025704 11.380218,13.025576" style="fill: white" /><polygon type="contour" points="12.208661,13.132633 12.208634,13.14464 12.006787,13.144587 11.926988,13.144431 11.926988,13.02369 12.178475,13.023161 12.208661,13.023137" style="fill: white" /><polygon type="contour" points="12.475826,13.023971 12.52909,13.023971 12.529089,13.053756 12.529089,13.145071 12.476873,13.145041 12.316306,13.14464 12.316306,13.034836 12.316333,13.023137" style="fill: white" /><polygon type="contour" points="12.208634,12.508781 12.208661,12.529762 12.178475,12.529756 11.927456,12.529087 11.927209,12.339121 11.927209,12.316333 12.178474,12.316333 12.208634,12.316308" style="fill: white" /><polygon type="contour" points="12.529759,12.316335 12.529089,12.475828 12.52909,12.529091 12.337824,12.529762 12.316333,12.529762 12.316333,12.337826 12.316306,12.316308 12.508778,12.316308" style="fill: white" /><polygon type="contour" points="13.280093,11.167575 13.320057,11.16814 13.31959,11.208664 13.319435,11.226626 13.320974,11.287417 13.321764,11.462254 13.262664,11.462254 13.110668,11.462164 13.025562,11.462164 13.025562,11.25546 13.025543,11.171319 13.262564,11.167332" style="fill: white" /><polygon type="contour" points="12.476872,11.167979 12.529089,11.167937 12.529089,11.389396 12.529086,11.461965 12.339119,11.462184 12.316331,11.462184 12.316331,11.198417 12.316306,11.167353" style="fill: white" /><polygon type="contour" points="12.208634,11.433663 12.208685,11.462184 12.012381,11.462315 11.926988,11.462315 11.926988,11.167911 12.006786,11.168056 12.208634,11.167353" style="fill: white" /><polygon type="contour" points="12.178474,11.927212 12.208685,11.927212 12.208685,12.178477 12.208634,12.208636 11.954944,12.208636 11.927209,12.208687 11.926988,12.012383 11.926988,11.926991" style="fill: white" /><polygon type="contour" points="12.529086,11.927457 12.529753,12.178477 12.529759,12.208663 12.337824,12.208663 12.316306,12.208636 12.316306,11.954947 12.316331,11.927212 12.339119,11.927212" style="fill: white" /><polygon type="contour" points="13.144586,12.006787 13.144638,12.208635 13.034834,12.208636 13.023136,12.208663 13.023159,12.178476 13.023687,11.926991 13.14443,11.926991" style="fill: white" /><polygon type="contour" points="13.14504,12.476873 13.14507,12.52909 13.115285,12.529091 13.023969,12.529091 13.023969,12.475827 13.023135,12.316335 13.132631,12.316334 13.144638,12.316307" style="fill: white" /><polygon type="contour" points="13.268823,13.024311 13.32103,13.025235 13.319464,13.169155 13.322868,13.32287 13.254278,13.320539 13.159671,13.330875 13.025796,13.321882 13.025796,13.258355 13.025543,13.106756 13.025543,13.058494 13.025544,13.025544 13.223907,13.024142 13.262812,13.024142" style="fill: white" />
</svg>
