<svg width="19.131698" height="19.131699">
<polygon type="contour" points="10.443201,7.715591 10.443134,7.901706 10.443134,7.910543 10.171764,7.910543 10.14916,7.910513 10.149164,7.887216 10.149602,7.6989 10.149607,7.661248 10.149843,7.624848 10.278845,7.625309 10.443201,7.624801" style="fill: white" /><polygon type="contour" points="10.807563,7.795138 10.834372,7.795146 10.864665,7.795157 10.902148,7.79501 10.902148,7.912413 10.896805,7.912413 10.864664,7.912479 10.807593,7.912516 10.755858,7.912482 10.757564,7.803448 10.757564,7.794912" style="fill: white" /><polygon type="contour" points="11.513223,7.836237 11.508322,7.909118 11.458899,7.909863 11.422762,7.910298 11.381931,7.910642 11.338562,7.910522 11.221181,7.910522 11.221181,7.62514 11.355511,7.624629 11.513463,7.61824" style="fill: white" /><polygon type="contour" points="11.507126,10.149889 11.506629,10.412669 11.506636,10.443482 11.221343,10.443482 11.221345,10.173882 11.221378,10.149381 11.243881,10.149376" style="fill: white" /><polygon type="contour" points="9.64716,10.147884 9.654222,10.147884 9.654222,10.422575 9.654249,10.441217 9.592013,10.441133 9.539299,10.441133 9.48489,10.441217 9.477451,10.441217 9.477451,10.167402 9.477478,10.147884 9.539299,10.147834 9.592013,10.147834" style="fill: white" /><polygon type="contour" points="9.646929,11.219315 9.654255,11.219315 9.654255,11.329222 9.654222,11.336692 9.647366,11.336675 9.592014,11.336356 9.5655,11.336224 9.539299,11.336355 9.484333,11.336675 9.477478,11.336692 9.471879,11.227427 9.471856,11.219608 9.539,11.219273 9.592014,11.219145" style="fill: white" /><polygon type="contour" points="9.654247,10.803912 9.654129,10.864666 9.654042,10.896971 9.65407,10.90215 9.596467,10.902211 9.534875,10.902211 9.483916,10.90215 9.477631,10.90215 9.477572,10.864667 9.477635,10.858326 9.477451,10.756855 9.539299,10.757113 9.592013,10.757113 9.646809,10.756855 9.654249,10.756855" style="fill: white" /><polygon type="contour" points="10.441214,10.807566 10.441162,10.834372 10.4411,10.864666 10.441149,10.896721 10.441149,10.902149 10.164569,10.902149 10.147824,10.90215 10.147799,10.864666 10.147862,10.834372 10.147916,10.807565 10.148026,10.765176 10.148065,10.757566 10.441363,10.757566" style="fill: white" /><polygon type="contour" points="10.443201,11.35407 10.443201,11.506903 10.322873,11.507432 10.149843,11.506857 10.149972,11.473588 10.149607,11.470456 10.149607,11.434516 10.149601,11.432803 10.149431,11.377413 10.149164,11.244487 10.149156,11.22959 10.149161,11.221192 10.420874,11.221192 10.443134,11.221162" style="fill: white" /><polygon type="contour" points="10.896805,11.219292 10.902148,11.219292 10.902148,11.336695 10.864664,11.336547 10.834372,11.336556 10.807563,11.336565 10.757564,11.336792 10.757564,11.219401 10.807564,11.219292 10.864664,11.219225" style="fill: white" /><polygon type="contour" points="11.422762,11.221405 11.458899,11.221841 11.46031,11.222188 11.508291,11.22256 11.508169,11.374 11.513463,11.513464 11.288853,11.511701 11.221181,11.506565 11.221181,11.221182 11.338563,11.221182 11.38193,11.221061" style="fill: white" /><polygon type="contour" points="11.336564,10.807565 11.336556,10.834372 11.336545,10.864667 11.336692,10.90215 11.219289,10.90215 11.219289,10.896807 11.219222,10.864666 11.21929,10.807565 11.219399,10.757566 11.33679,10.757566" style="fill: white" /><polygon type="contour" points="10.896719,10.757334 10.902147,10.757334 10.902058,10.799945 10.902058,10.864666 10.902148,10.896807 10.902148,10.90215 10.864664,10.90206 10.799944,10.90206 10.757333,10.902149 10.757289,10.864666 10.757415,10.807565 10.757564,10.765529 10.757564,10.757566 10.807564,10.757417 10.864664,10.75729" style="fill: white" /><polygon type="contour" points="10.896969,10.14782 10.902148,10.147826 10.902148,10.424665 10.902147,10.441151 10.896719,10.441151 10.864664,10.441102 10.807564,10.441216 10.757564,10.441366 10.757564,10.148066 10.807564,10.147918 10.864664,10.147801" style="fill: white" /><polygon type="contour" points="10.443355,10.149427 10.443355,10.179429 10.443201,10.308089 10.443201,10.443203 10.181708,10.443482 10.149558,10.443482 10.149926,10.177744 10.149887,10.149889 10.414612,10.149383" style="fill: white" /><polygon type="contour" points="10.441131,9.539687 10.441131,9.592404 10.441216,9.646811 10.441216,9.654252 10.1674,9.654252 10.147882,9.654225 10.147832,9.592403 10.147832,9.539687 10.147882,9.48454 10.147882,9.477479 10.422574,9.477479 10.441216,9.477452" style="fill: white" /><polygon type="contour" points="10.803912,9.477455 10.864664,9.477573 10.896969,9.47766 10.902148,9.477632 10.902209,9.535235 10.902209,9.596827 10.902148,9.647785 10.902148,9.654071 10.864665,9.65413 10.803912,9.654249 10.763647,9.654225 10.756854,9.654252 10.757112,9.592403 10.757112,9.539688 10.756854,9.484891 10.756854,9.477452" style="fill: white" /><polygon type="contour" points="11.336691,9.477479 11.336673,9.484334 11.336353,9.539688 11.336222,9.566201 11.336353,9.592403 11.336673,9.647369 11.33669,9.654225 11.226553,9.654225 11.219313,9.654258 11.219143,9.592403 11.219143,9.539687 11.219313,9.484771 11.219313,9.477446 11.32922,9.477446" style="fill: white" /><polygon type="contour" points="11.506636,8.688222 11.50713,8.953956 11.507126,8.981814 11.491887,8.981814 11.230484,8.982329 11.221378,8.982324 11.220834,8.714564 11.220799,8.688221 11.246553,8.688221" style="fill: white" /><polygon type="contour" points="11.336545,8.267036 11.336555,8.29733 11.336564,8.324138 11.33679,8.374138 11.219399,8.374138 11.21929,8.324138 11.219222,8.267037 11.219289,8.234896 11.219289,8.229554 11.336692,8.229554" style="fill: white" /><polygon type="contour" points="10.807564,8.690487 10.864664,8.690601 10.896719,8.690553 10.902147,8.690553 10.902147,8.967131 10.902148,8.983876 10.896969,8.983881 10.864664,8.983902 10.807564,8.983786 10.757564,8.983638 10.757564,8.690338" style="fill: white" /><polygon type="contour" points="10.902058,8.267037 10.902058,8.331759 10.902147,8.374371 10.864665,8.374414 10.807563,8.374287 10.765527,8.374138 10.757564,8.374138 10.757414,8.324137 10.757289,8.267036 10.757333,8.229555 10.799944,8.229644 10.864664,8.229644 10.896805,8.229554 10.902148,8.229554" style="fill: white" /><polygon type="contour" points="10.441149,8.229555 10.4411,8.267037 10.441161,8.29733 10.441214,8.324137 10.441363,8.366175 10.441363,8.374138 10.148065,8.374138 10.149616,8.324711 10.147847,8.273376 10.147799,8.267037 10.147818,8.234732 10.147824,8.229554 10.424663,8.229554" style="fill: white" /><polygon type="contour" points="10.308087,8.688501 10.443201,8.688501 10.443479,8.949992 10.443479,8.982144 10.177742,8.981774 10.149887,8.981813 10.149511,8.719034 10.149558,8.688222 10.181708,8.688222" style="fill: white" /><polygon type="contour" points="9.654249,8.964301 9.654222,8.98382 9.592014,8.98387 9.539299,8.98387 9.484539,8.98382 9.477478,8.98382 9.477478,8.709128 9.477451,8.690487 9.539299,8.690571 9.592013,8.690571 9.646809,8.690487 9.654249,8.690487" style="fill: white" /><polygon type="contour" points="9.654105,9.539688 9.654105,9.592403 9.654222,9.647163 9.654222,9.654225 9.592014,9.654108 9.539299,9.654108 9.484539,9.654225 9.477478,9.654225 9.477595,9.592404 9.477595,9.539688 9.477478,9.48454 9.477478,9.477479 9.539298,9.477597 9.592014,9.477597 9.647159,9.477479 9.654222,9.477479" style="fill: white" /><polygon type="contour" points="8.983819,9.477479 8.983869,9.539687 8.983869,9.592403 8.983819,9.647163 8.983819,9.654225 8.709127,9.654225 8.690484,9.654252 8.690569,9.592404 8.690569,9.539687 8.690484,9.484892 8.690484,9.477452 8.9643,9.477452" style="fill: white" /><polygon type="contour" points="8.981772,8.953956 8.981811,8.981814 8.717088,8.98232 8.688345,8.982274 8.688345,8.952274 8.6885,8.823613 8.6885,8.688501 8.949992,8.688222 8.982143,8.688222" style="fill: white" /><polygon type="contour" points="8.982327,8.273511 8.983666,8.317095 8.983785,8.324138 8.983674,8.366528 8.983635,8.374138 8.690337,8.374138 8.690485,8.324137 8.690538,8.29733 8.6906,8.267037 8.690551,8.234981 8.690551,8.229555 8.967128,8.229555 8.983873,8.229554" style="fill: white" /><polygon type="contour" points="9.647784,8.229554 9.65407,8.229554 9.654129,8.267037 9.654065,8.273375 9.654249,8.374847 9.592013,8.37459 9.539298,8.37459 9.484891,8.374847 9.477451,8.374847 9.477454,8.32779 9.477572,8.267037 9.477658,8.234733 9.47763,8.229554 9.534875,8.229493 9.596466,8.229493" style="fill: white" /><polygon type="contour" points="9.484332,7.795027 9.539299,7.795348 9.5655,7.79548 9.592014,7.795347 9.647367,7.795028 9.654221,7.79501 9.659821,7.904275 9.659844,7.912097 9.592298,7.912432 9.539001,7.912432 9.479765,7.912097 9.471856,7.912097 9.477445,7.802481 9.477478,7.795009" style="fill: white" /><polygon type="contour" points="8.981857,7.624847 8.981726,7.658116 8.982092,7.661248 8.982092,7.697187 8.982097,7.6989 8.982267,7.754289 8.982535,7.887215 8.982545,7.902114 8.98254,7.910513 8.710823,7.910513 8.688564,7.910543 8.6885,7.777634 8.6885,7.6248 8.808828,7.624272" style="fill: white" /><polygon type="contour" points="7.842846,7.620002 7.910519,7.625139 7.910519,7.910522 7.793136,7.910522 7.749768,7.910643 7.708937,7.910298 7.672799,7.909863 7.671387,7.909514 7.623409,7.909144 7.62353,7.757703 7.618238,7.61824" style="fill: white" /><polygon type="contour" points="8.374137,7.912303 8.324136,7.912411 8.267035,7.912479 8.234894,7.912413 8.229552,7.912413 8.229552,7.79501 8.267034,7.795157 8.297328,7.795146 8.324136,7.795138 8.374137,7.794912" style="fill: white" /><polygon type="contour" points="8.267035,8.229644 8.331756,8.229644 8.374368,8.229555 8.374412,8.267036 8.374286,8.324138 8.374137,8.366174 8.374137,8.374138 8.324136,8.374286 8.267034,8.374414 8.234981,8.374371 8.229553,8.374371 8.229642,8.331759 8.229642,8.267037 8.229552,8.234896 8.229552,8.229554" style="fill: white" /><polygon type="contour" points="7.912412,8.234896 7.912478,8.267036 7.91241,8.324138 7.912301,8.374138 7.79491,8.374138 7.795136,8.324138 7.795144,8.29733 7.795155,8.267036 7.795008,8.229554 7.912412,8.229554" style="fill: white" /><polygon type="contour" points="7.910356,8.957822 7.910323,8.982324 7.887819,8.982329 7.624574,8.981814 7.625071,8.719034 7.625064,8.688222 7.910358,8.688222" style="fill: white" /><polygon type="contour" points="8.374137,8.983638 8.324135,8.983786 8.267035,8.983902 8.234732,8.983882 8.229552,8.983876 8.229552,8.707038 8.229553,8.690553 8.23498,8.690553 8.267035,8.690601 8.324136,8.690486 8.374137,8.690338" style="fill: white" /><polygon type="contour" points="8.374588,9.539687 8.374588,9.592404 8.374845,9.646811 8.374845,9.654252 8.327788,9.654249 8.267034,9.65413 8.234732,9.654043 8.229552,9.654071 8.229491,9.596827 8.229491,9.535236 8.229552,9.483918 8.229552,9.477633 8.267035,9.477574 8.327788,9.477455 8.36805,9.477479 8.374845,9.477452" style="fill: white" /><polygon type="contour" points="7.912558,9.539688 7.91243,9.592701 7.912095,9.651937 7.912095,9.659847 7.80248,9.654258 7.795009,9.654225 7.795026,9.647369 7.795346,9.592403 7.795478,9.566201 7.795346,9.539688 7.795026,9.484334 7.795009,9.477479 7.905147,9.477479 7.912387,9.477446" style="fill: white" /><polygon type="contour" points="7.910502,10.149259 7.910865,10.417139 7.910901,10.443483 7.885147,10.443483 7.625064,10.443482 7.62457,10.177744 7.624574,10.149889 7.639811,10.149889 7.900144,10.149253" style="fill: white" /><polygon type="contour" points="8.324135,10.147918 8.374137,10.148066 8.374137,10.441366 8.324136,10.441217 8.267035,10.441102 8.23498,10.441151 8.229553,10.441151 8.229553,10.164571 8.229552,10.147826 8.234732,10.14782 8.267035,10.147801" style="fill: white" /><polygon type="contour" points="8.953953,10.149928 8.981811,10.149889 8.98219,10.412669 8.982143,10.443482 8.949991,10.443482 8.823613,10.443203 8.6885,10.443203 8.688221,10.18171 8.688221,10.14956" style="fill: white" /><polygon type="contour" points="8.983785,10.807565 8.983838,10.834372 8.9839,10.864666 8.983879,10.896971 8.983873,10.90215 8.707036,10.90215 8.690551,10.902149 8.6906,10.864666 8.690537,10.834372 8.690485,10.807565 8.690337,10.765529 8.690337,10.757566 8.983636,10.757566" style="fill: white" /><polygon type="contour" points="8.982539,11.221192 8.982545,11.22959 8.982534,11.244488 8.982267,11.377414 8.982097,11.432803 8.982092,11.470456 8.981857,11.506857 8.852853,11.506395 8.6885,11.506903 8.6885,11.416111 8.688564,11.229997 8.688564,11.221162 8.959936,11.221162" style="fill: white" /><polygon type="contour" points="8.324136,11.219292 8.374137,11.219401 8.374137,11.336792 8.324136,11.336565 8.297328,11.336556 8.267035,11.336547 8.229552,11.336695 8.229552,11.219292 8.234894,11.219292 8.267035,11.219225" style="fill: white" /><polygon type="contour" points="8.324136,10.757417 8.366172,10.757566 8.374137,10.757566 8.374286,10.807565 8.374412,10.864667 8.374368,10.902149 8.331756,10.90206 8.267035,10.90206 8.234894,10.90215 8.229552,10.90215 8.229642,10.864666 8.229642,10.799945 8.229553,10.757334 8.267035,10.75729" style="fill: white" /><polygon type="contour" points="7.91241,10.807565 7.912478,10.864666 7.912412,10.896807 7.912412,10.90215 7.795008,10.90215 7.795155,10.864667 7.795143,10.834372 7.795136,10.807565 7.79491,10.757566 7.912301,10.757566" style="fill: white" /><polygon type="contour" points="7.793136,11.221182 7.910519,11.221182 7.910519,11.506565 7.776189,11.507076 7.618238,11.513464 7.618476,11.295466 7.623377,11.222586 7.6728,11.22184 7.708937,11.221405 7.749768,11.221062" style="fill: white" />
</svg>
