<svg width="19.131698" height="19.131699">
<polygon type="contour" points="8.146833,8.059086 8.333292,8.061162 8.333462,8.061164 8.333462,8.0617 8.334832,8.334834 8.22427,8.334834 8.144067,8.334979 8.062961,8.334979 8.062971,8.249758 8.062322,8.223553 8.057473,8.057476" style="fill: white" /><polygon type="contour" points="8.291799,9.102581 8.334803,9.102581 8.33486,9.237126 8.335003,9.475326 8.335544,9.475326 8.335641,9.566355 8.33558,9.621805 8.335544,9.656378 8.334946,9.656378 8.334974,9.894088 8.334925,10.029406 8.062916,10.029406 8.063328,9.855309 8.063374,9.736292 8.231019,9.736292 8.230799,9.623782 8.231328,9.571301 8.231328,9.553842 8.230389,9.395397 8.063165,9.395397 8.062997,9.237616 8.062916,9.102298 8.13231,9.102298" style="fill: white" /><polygon type="contour" points="8.908861,8.597878 8.908861,8.627836 8.83666,8.627836 8.803816,8.627746 8.803816,8.559914 8.803868,8.532448 8.83666,8.532418 8.909224,8.532359" style="fill: white" /><polygon type="contour" points="8.908861,8.803862 8.909109,8.864953 8.909109,8.909111 8.836659,8.908863 8.80386,8.908863 8.80386,8.836661 8.803816,8.803818 8.878634,8.803818" style="fill: white" /><polygon type="contour" points="8.864951,9.102997 8.909109,9.102997 8.909109,9.272547 8.909441,9.475326 8.909586,9.475326 8.909793,9.563718 8.909654,9.58473 8.909411,9.621386 8.909585,9.656377 8.909311,9.656377 8.909311,9.891721 8.909108,10.028707 8.83666,10.028863 8.80386,10.028863 8.80386,9.827665 8.804174,9.656265 8.804028,9.656265 8.804132,9.578502 8.804087,9.571302 8.804132,9.571302 8.803816,9.499965 8.804718,9.39552 8.804028,9.39552 8.804028,9.206784 8.80386,9.102841" style="fill: white" /><polygon type="contour" points="8.596565,9.102841 8.627835,9.102841 8.627835,9.304038 8.627407,9.475439 8.627607,9.475439 8.627564,9.553843 8.627593,9.561057 8.627567,9.561057 8.627745,9.631737 8.627157,9.736184 8.627607,9.736184 8.627607,9.924918 8.627835,10.028863 8.596565,10.028863 8.529098,10.028997 8.530625,9.856747 8.533479,9.656932 8.53235,9.656932 8.531635,9.567532 8.532395,9.509434 8.53235,9.474771 8.533479,9.474784 8.530625,9.274956 8.529098,9.102707" style="fill: white" /><polygon type="contour" points="8.627745,8.878636 8.627835,8.908863 8.571897,8.909226 8.530626,8.909226 8.531106,8.836661 8.532446,8.80387 8.598344,8.80387 8.627745,8.803818" style="fill: white" /><polygon type="contour" points="8.33571,8.80387 8.33565,8.865518 8.335613,8.909111 8.230906,8.909111 8.230902,8.836661 8.230879,8.803818 8.305693,8.803818" style="fill: white" /><polygon type="contour" points="8.33571,8.598346 8.33571,8.627861 8.263025,8.627861 8.230879,8.627747 8.230926,8.598347 8.230946,8.532397 8.335662,8.532397" style="fill: white" /><polygon type="contour" points="8.598345,8.532448 8.627859,8.532448 8.627859,8.598346 8.627745,8.627747 8.559914,8.627747 8.532446,8.627861 8.532395,8.571433 8.532395,8.532397" style="fill: white" /><polygon type="contour" points="8.627745,8.305695 8.627859,8.335712 8.598344,8.335712 8.532395,8.335664 8.532395,8.230948 8.598345,8.230927 8.627745,8.230881" style="fill: white" /><polygon type="contour" points="8.836659,8.230904 8.909109,8.230908 8.909109,8.33738 8.83666,8.336995 8.803868,8.335712 8.803868,8.263028 8.803816,8.230881" style="fill: white" /><polygon type="contour" points="9.264778,8.063703 9.293547,8.063515 9.353512,8.062313 9.394329,8.062328 9.39525,8.098419 9.39525,8.133454 9.395458,8.146358 9.395365,8.231024 9.507918,8.2308 9.5604,8.231331 9.57786,8.231331 9.736243,8.23039 9.736243,8.146357 9.736449,8.098419 9.736475,8.093995 9.737371,8.062328 9.838152,8.063515 9.866922,8.063703 10.02922,8.062928 10.02922,8.178756 10.029121,8.291801 10.029121,8.334805 9.857154,8.334805 9.656377,8.334899 9.656377,8.335546 9.565347,8.335643 9.509898,8.335583 9.475324,8.335546 9.475324,8.334862 9.237125,8.334862 9.10258,8.336536 9.102529,8.258661 9.102529,8.062939 9.192115,8.062045" style="fill: white" /><polygon type="contour" points="10.028708,8.530628 10.028862,8.596567 10.028862,8.627836 9.827663,8.627836 9.656263,8.62741 9.656263,8.627609 9.57786,8.627564 9.570646,8.627593 9.570646,8.627566 9.499964,8.627747 9.395518,8.627159 9.395518,8.627609 9.206782,8.627609 9.102838,8.627836 9.102991,8.571897 9.102991,8.532359 9.274954,8.532359 9.475324,8.532347 9.475324,8.532026 9.566781,8.531672 9.570434,8.53172 9.622266,8.532397 9.656929,8.532352 9.656921,8.533114 9.854891,8.530233" style="fill: white" /><polygon type="contour" points="9.736182,8.80472 9.736182,8.80403 9.924918,8.80403 10.028862,8.803862 10.028705,8.864953 10.028705,8.909111 9.859154,8.909111 9.656377,8.909441 9.656377,8.909587 9.567998,8.909795 9.510314,8.909414 9.475323,8.909587 9.475324,8.909441 9.272545,8.909111 9.102996,8.909111 9.102838,8.836661 9.102838,8.803862 9.304036,8.803862 9.475437,8.804176 9.475437,8.80403 9.5532,8.804134 9.560401,8.804089 9.560401,8.804134 9.631736,8.803818" style="fill: white" /><polygon type="contour" points="10.029256,9.237616 10.029095,9.395397 10.029006,9.395397 10.028754,9.553843 10.028823,9.583216 10.028995,9.622325 10.028625,9.736476 10.029075,9.736476 10.029204,9.85675 10.029404,10.029406 9.894085,10.029258 9.736306,10.029097 9.736306,10.029008 9.577859,10.028756 9.548486,10.028825 9.509377,10.028996 9.395226,10.028627 9.395226,10.029077 9.274951,10.029206 9.102296,10.029406 9.102443,9.894087 9.102606,9.736307 9.103065,9.736307 9.102946,9.578501 9.102875,9.548649 9.102706,9.509379 9.103075,9.395227 9.102625,9.395227 9.102495,9.274953 9.102296,9.102298 9.237615,9.102445 9.395394,9.102608 9.395394,9.103065 9.553201,9.102948 9.582931,9.102877 9.622324,9.102707 9.736474,9.103076 9.736474,9.102627 9.856748,9.102497 10.029404,9.102298" style="fill: white" /><polygon type="contour" points="10.327841,9.304039 10.327524,9.475439 10.327672,9.475439 10.327569,9.553842 10.327614,9.561057 10.327568,9.561057 10.327884,9.631737 10.326981,9.736184 10.327672,9.736184 10.327672,9.924918 10.327841,10.028863 10.266747,10.028707 10.22259,10.028707 10.22259,9.859157 10.222259,9.656378 10.222115,9.656378 10.222571,9.578501 10.222637,9.565654 10.222287,9.510316 10.222115,9.475325 10.222389,9.475326 10.222389,9.239981 10.22259,9.102997 10.295039,9.102841 10.327841,9.102841" style="fill: white" /><polygon type="contour" points="10.599342,9.102992 10.599342,9.274957 10.599356,9.475326 10.599676,9.475326 10.60002,9.564976 10.599663,9.621804 10.599676,9.656377 10.598214,9.656375 10.601074,9.856746 10.602602,10.028997 10.535134,10.028863 10.503865,10.028863 10.503865,9.827665 10.504292,9.656265 10.504093,9.656265 10.504136,9.578502 10.504106,9.571302 10.504131,9.571302 10.503955,9.499966 10.504542,9.39552 10.504093,9.39552 10.504093,9.206785 10.503865,9.102841 10.533822,9.102841" style="fill: white" /><polygon type="contour" points="11.069378,8.223553 11.06873,8.249758 11.06874,8.334979 10.987633,8.334979 10.907429,8.334834 10.839327,8.334834 10.79684,8.334863 10.798237,8.0617 10.798237,8.061164 10.798406,8.061162 10.984865,8.059086 11.074227,8.057476" style="fill: white" /><polygon type="contour" points="10.533354,8.230927 10.599306,8.230948 10.599306,8.273405 10.599541,8.335704 10.533354,8.335712 10.50384,8.335712 10.50384,8.263027 10.503955,8.23088" style="fill: white" /><polygon type="contour" points="10.327884,8.305695 10.327832,8.335712 10.266183,8.335652 10.22259,8.335615 10.22259,8.230908 10.29504,8.230904 10.327884,8.230881" style="fill: white" /><polygon type="contour" points="10.29504,8.531108 10.327832,8.532448 10.327832,8.598346 10.327884,8.627747 10.253066,8.627747 10.222839,8.627836 10.222839,8.596568 10.222476,8.530628" style="fill: white" /><polygon type="contour" points="10.327884,8.878635 10.327841,8.908863 10.29504,8.908863 10.284185,8.909226 10.22259,8.909111 10.222839,8.836661 10.222839,8.803862 10.29504,8.803862 10.327884,8.803818" style="fill: white" /><polygon type="contour" points="10.599255,8.80387 10.599282,8.836661 10.599341,8.909226 10.533822,8.908863 10.503865,8.908863 10.503865,8.836662 10.503955,8.803818 10.571787,8.803818" style="fill: white" /><polygon type="contour" points="10.599255,8.598347 10.599255,8.627861 10.533354,8.627861 10.503955,8.627747 10.503955,8.559914 10.50384,8.532448 10.560267,8.532397 10.599306,8.532397" style="fill: white" /><polygon type="contour" points="10.900774,8.598347 10.900821,8.627747 10.826006,8.627747 10.795991,8.627861 10.795991,8.598346 10.796038,8.532397 10.900754,8.532397" style="fill: white" /><polygon type="contour" points="10.900797,8.836661 10.900794,8.909111 10.794321,8.909111 10.794707,8.836661 10.795991,8.80387 10.868673,8.80387 10.90082,8.803818" style="fill: white" /><polygon type="contour" points="11.068372,9.276395 11.068325,9.395412 10.90068,9.395412 10.900901,9.507922 10.900372,9.561056 10.900372,9.578501 10.901314,9.736307 11.068535,9.736307 11.068703,9.894087 11.068784,10.029406 10.999389,10.029406 10.8399,10.029123 10.796898,10.029123 10.79684,9.894577 10.796697,9.657011 10.796047,9.657018 10.796071,9.578502 10.796063,9.571301 10.796075,9.571301 10.795998,9.509409 10.796047,9.474685 10.79783,9.474685 10.795065,9.276395 10.795166,9.102581 10.908876,9.102581 11.068784,9.102298" style="fill: white" /><polygon type="contour" points="11.06873,10.881945 11.069378,10.90815 11.074227,11.074228 10.984865,11.072618 10.798407,11.070539 10.798237,11.070537 10.798237,11.07 10.796868,10.79687 10.907429,10.79687 10.987633,10.796725 11.06874,10.796725" style="fill: white" /><polygon type="contour" points="10.900821,10.503957 10.900774,10.533356 10.900754,10.599308 10.796038,10.599308 10.795991,10.533356 10.795991,10.503842 10.868674,10.503842" style="fill: white" /><polygon type="contour" points="10.900797,10.295042 10.90082,10.327886 10.826005,10.327886 10.795991,10.327834 10.79605,10.266185 10.796088,10.222592 10.900794,10.222592" style="fill: white" /><polygon type="contour" points="10.600595,10.295041 10.599255,10.327834 10.533355,10.327834 10.503955,10.327886 10.503955,10.253069 10.503865,10.222841 10.559802,10.222478 10.601074,10.222478" style="fill: white" /><polygon type="contour" points="10.295039,10.794708 10.327832,10.795992 10.327832,10.868675 10.327884,10.900822 10.29504,10.900799 10.22259,10.900796 10.22259,10.794321" style="fill: white" /><polygon type="contour" points="10.599541,10.796 10.599541,10.838543 10.599306,10.900756 10.533354,10.900776 10.503955,10.900823 10.503955,10.826008 10.50384,10.795992 10.533354,10.795992" style="fill: white" /><polygon type="contour" points="10.599306,10.560269 10.599306,10.599308 10.533355,10.599257 10.50384,10.599257 10.50384,10.533356 10.503955,10.503957 10.571787,10.503957 10.599255,10.503842" style="fill: white" /><polygon type="contour" points="10.327884,10.503957 10.327884,10.571789 10.327831,10.599257 10.29504,10.599284 10.222476,10.599343 10.222839,10.533824 10.222839,10.503868 10.295039,10.503868" style="fill: white" /><polygon type="contour" points="10.295039,10.222841 10.327841,10.222841 10.327841,10.295042 10.327884,10.327886 10.253066,10.327886 10.222839,10.327843 10.22259,10.26675 10.22259,10.222592" style="fill: white" /><polygon type="contour" points="9.656376,10.222261 9.859154,10.222592 10.028705,10.222592 10.028862,10.295042 10.028862,10.327843 9.827662,10.327843 9.656263,10.327526 9.656263,10.327674 9.57786,10.327571 9.570646,10.327616 9.570646,10.32757 9.499963,10.327886 9.395518,10.326983 9.395518,10.327674 9.206782,10.327674 9.102838,10.327843 9.102996,10.26675 9.102996,10.222592 9.272545,10.222592 9.475324,10.222261 9.475324,10.222117 9.5532,10.222571 9.56604,10.222638 9.621386,10.222289 9.656377,10.222117" style="fill: white" /><polygon type="contour" points="8.627859,10.868676 8.627745,10.900823 8.598345,10.900776 8.532395,10.900756 8.532395,10.858297 8.532159,10.796 8.598345,10.795992 8.627859,10.795992" style="fill: white" /><polygon type="contour" points="8.909109,10.900796 8.836659,10.900799 8.803816,10.900822 8.803816,10.826008 8.803868,10.795992 8.865517,10.796051 8.909109,10.794322" style="fill: white" /><polygon type="contour" points="9.474684,10.797943 9.474684,10.796048 9.570647,10.796077 9.570648,10.796063 9.621802,10.79612 9.656377,10.796158 9.656377,10.796842 9.894574,10.796842 10.029121,10.795167 10.029172,10.87304 10.029172,11.068763 9.939583,11.069659 9.866922,11.068001 9.838152,11.068189 9.778187,11.069391 9.737371,11.069376 9.73645,11.033284 9.73645,10.998249 9.736243,10.985345 9.736335,10.900679 9.623781,10.900904 9.570646,10.900374 9.553201,10.900374 9.395458,10.901315 9.395458,10.985345 9.395249,11.033285 9.395225,11.037708 9.394329,11.069375 9.293548,11.068189 9.264777,11.068 9.102481,11.068775 9.102481,10.952947 9.10258,10.839902 9.10258,10.795167 9.274545,10.795167" style="fill: white" /><polygon type="contour" points="9.475437,10.504293 9.475437,10.504095 9.5532,10.504138 9.560401,10.504108 9.560401,10.504133 9.631736,10.503957 9.736182,10.504544 9.736182,10.504095 9.924917,10.504095 10.028862,10.503868 10.028708,10.559806 10.028708,10.599344 9.856744,10.599344 9.656377,10.599358 9.656377,10.599679 9.564208,10.600032 9.509433,10.599308 9.470476,10.599358 9.274955,10.599344 9.102991,10.599344 9.102838,10.533823 9.102838,10.503868 9.304036,10.503868" style="fill: white" /><polygon type="contour" points="8.909109,10.222592 8.908861,10.295042 8.908861,10.327843 8.836659,10.327843 8.803816,10.327886 8.803816,10.253069 8.80386,10.222841 8.836659,10.222841 8.847513,10.222478" style="fill: white" /><polygon type="contour" points="8.908861,10.533824 8.909224,10.599343 8.836659,10.599284 8.803868,10.599257 8.803868,10.533357 8.803816,10.503957 8.878633,10.503957 8.908861,10.503868" style="fill: white" /><polygon type="contour" points="8.627745,10.503957 8.627745,10.57179 8.627859,10.599257 8.571431,10.599308 8.532395,10.599308 8.532446,10.533357 8.532446,10.503842 8.598345,10.503842" style="fill: white" /><polygon type="contour" points="8.596566,10.222841 8.627835,10.222841 8.627835,10.295041 8.627744,10.327886 8.559913,10.327886 8.532446,10.327834 8.531106,10.295042 8.530626,10.222478" style="fill: white" /><polygon type="contour" points="8.335682,10.295041 8.33571,10.327834 8.263026,10.327834 8.230879,10.327886 8.230902,10.295042 8.230906,10.222592 8.335613,10.222592" style="fill: white" /><polygon type="contour" points="8.33571,10.533356 8.335662,10.599308 8.230945,10.599308 8.230926,10.533356 8.230879,10.503957 8.305693,10.503957 8.33571,10.503842" style="fill: white" /><polygon type="contour" points="8.22427,10.79687 8.292374,10.79687 8.33486,10.796842 8.333462,11.070001 8.333462,11.070537 8.333292,11.070538 8.146833,11.072619 8.057473,11.074228 8.062322,10.90815 8.062971,10.881945 8.062961,10.796725 8.144067,10.796725" style="fill: white" />
</svg>
