<svg width="19.131698" height="19.131699">
<polygon type="contour" points="4.553898,9.607501 4.242891,9.607501 4.242891,9.575982 4.242697,9.524201 4.553898,9.524201" style="fill: white" /><polygon type="contour" points="4.385424,9.886402 4.525208,9.886401 4.553898,9.886401 4.553275,9.991402 4.553275,10.078377 4.553898,10.184003 4.44813,10.184001 4.436298,10.184001 4.436292,10.182994 4.277875,10.184003 4.243019,10.184003 4.243019,10.184002 4.243037,10.184002 4.242999,10.078377 4.242978,10.076501 4.242978,9.993201 4.242999,9.991402 4.243038,9.886401 4.385424,9.886401" style="fill: white" /><polygon type="contour" points="4.517248,12.338684 4.553682,12.338684 4.553682,12.395693 4.553398,12.490942 4.553606,12.490942 4.553899,12.744632 4.553899,12.832548 4.553275,12.8937 4.553898,12.970012 4.553898,12.998702 4.243037,12.998702 4.242374,12.8937 4.243149,12.824373 4.1625,12.824606 4.090979,12.824529 4.052458,12.824543 4.052414,12.805882 4.052414,12.491386 4.086471,12.491324 4.09098,12.491329 4.167086,12.491469 4.243234,12.491441 4.242821,12.40318 4.242563,12.338415 4.292009,12.338444 4.359029,12.338561 4.380327,12.338202 4.436204,12.338202" style="fill: white" /><polygon type="contour" points="4.553898,11.484203 4.242891,11.484203 4.242892,11.452684 4.242697,11.400901 4.553898,11.400901" style="fill: white" /><polygon type="contour" points="4.525208,11.763104 4.553898,11.763104 4.553275,11.868102 4.553275,11.955076 4.553899,12.060703 4.44821,12.060702 4.436297,12.060702 4.436293,12.060021 4.381699,12.060021 4.24298,12.060703 4.242999,11.955076 4.242978,11.9532 4.242978,11.948723 4.242979,11.869901 4.243,11.868102 4.243038,11.763104 4.381733,11.7631 4.385424,11.7631" style="fill: white" /><polygon type="contour" points="4.9161,11.955075 4.916101,12.031841 4.916101,12.060703 4.832284,12.060703 4.832799,11.955076 4.832799,11.763104 4.9161,11.763104" style="fill: white" /><polygon type="contour" points="5.380621,12.33824 5.385099,12.33824 5.386899,12.338277 5.455466,12.338684 5.491899,12.338684 5.491899,12.832548 5.4919,12.8937 5.491899,12.970012 5.491899,12.998702 5.386899,12.998701 5.300033,12.998701 5.22299,12.998702 5.194471,12.998702 5.194924,12.8937 5.194301,12.832548 5.194301,12.744631 5.194671,12.421209 5.194592,12.421209 5.194592,12.373089 5.194517,12.338684 5.300033,12.338273 5.301799,12.338236" style="fill: white" /><polygon type="contour" points="11.122001,14.298903 10.824399,14.298903 10.824399,14.215603 11.122001,14.215603" style="fill: white" /><polygon type="contour" points="12.824374,10.462902 12.832548,10.462902 12.893699,10.462901 12.998701,10.462901 12.998701,10.545501 12.893699,10.545501 12.832548,10.545502 12.824374,10.545502 12.768758,10.545501 12.689995,10.545501 12.689731,10.514247 12.689731,10.462901 12.768758,10.462901" style="fill: white" /><polygon type="contour" points="12.790681,10.824402 12.832547,10.824402 12.893699,10.825027 12.970011,10.824401 12.998701,10.824401 12.998701,11.122003 12.893699,11.122001 12.832547,11.122002 12.790682,11.122002 12.690965,11.119412 12.690957,11.119304 12.690965,11.110588 12.69055,10.927964 12.690779,10.847067 12.690663,10.8244" style="fill: white" /><polygon type="contour" points="12.832547,12.338369 12.8937,12.338277 12.962266,12.338684 12.998701,12.338684 12.998701,12.490942 12.998699,12.744632 12.998699,12.832548 12.998075,12.8937 12.998701,12.970012 12.998701,12.998702 12.8937,12.998076 12.832546,12.998702 12.338682,12.998702 12.338274,12.8937 12.338366,12.832548 12.338264,12.824374 12.338493,12.75783 12.338412,12.744494 12.338412,12.693358 12.363741,12.693256 12.421101,12.693318 12.421105,12.694806 12.690597,12.690585 12.694326,12.421102 12.693316,12.421102 12.693387,12.40318 12.693357,12.338415 12.744493,12.338415 12.757829,12.338496 12.824373,12.338267" style="fill: white" /><polygon type="contour" points="11.8681,12.692602 11.942475,12.692602 11.980861,12.692305 11.992727,12.692305 12.0607,12.692335 12.0607,12.832548 12.060075,12.893701 12.0607,12.969847 12.0607,12.998703 11.955075,12.998701 11.868101,12.998701 11.763101,12.998702 11.763101,12.8937 11.7631,12.832548 11.7631,12.791018 11.763101,12.719048 11.763101,12.692066" style="fill: white" /><polygon type="contour" points="12.0607,13.361418 11.955074,13.360903 11.763101,13.360903 11.763101,13.2776 12.031837,13.2776 12.0607,13.277085" style="fill: white" /><polygon type="contour" points="12.060075,13.744802 12.0607,13.819801 12.0607,13.937747 11.955075,13.936776 11.868101,13.936776 11.763101,13.937232 11.763101,13.639803 12.0607,13.639803" style="fill: white" /><polygon type="contour" points="12.0607,14.299418 11.955074,14.298903 11.763101,14.298903 11.763101,14.215603 12.0607,14.215603" style="fill: white" /><polygon type="contour" points="12.0607,14.695404 12.060461,14.695405 12.060197,14.786355 12.0607,14.888721 11.955074,14.888703 11.953199,14.888724 11.8699,14.888724 11.868101,14.888703 11.763101,14.888664 11.763101,14.786355 11.763099,14.714062 11.763101,14.606492 11.763101,14.577803 11.8681,14.578427 11.955075,14.578427 12.031837,14.577803 12.0607,14.577803" style="fill: white" /><polygon type="contour" points="14.298902,14.888812 14.267383,14.888811 14.215602,14.888811 14.215602,14.577803 14.298902,14.577803" style="fill: white" /><polygon type="contour" points="13.937231,14.298903 13.639802,14.298903 13.639802,14.215603 13.937231,14.215603" style="fill: white" /><polygon type="contour" points="13.744799,14.578427 13.757399,14.578427 13.831666,14.577803 13.937231,14.577803 13.93733,14.683571 13.93733,14.695403 13.937161,14.695403 13.936896,14.786355 13.937231,14.853825 13.937231,14.888664 13.831665,14.888982 13.829899,14.889017 13.751077,14.888724 13.746599,14.888724 13.7448,14.888703 13.662469,14.888672 13.639802,14.888664 13.639801,14.786355 13.639802,14.726603 13.639802,14.577802" style="fill: white" /><polygon type="contour" points="13.360902,14.888812 13.277598,14.888812 13.277598,14.577803 13.360902,14.577803" style="fill: white" /><polygon type="contour" points="12.893699,14.578427 12.970011,14.577803 12.998701,14.577803 12.998701,14.695402 12.9987,14.695402 12.9987,14.786356 12.998701,14.853825 12.998701,14.888664 12.893699,14.889327 12.824372,14.888552 12.824605,14.969201 12.824528,15.040723 12.824542,15.079244 12.805881,15.079288 12.491384,15.079288 12.491322,15.045229 12.491327,15.040722 12.491467,14.964616 12.491439,14.888467 12.40318,14.888881 12.338413,14.889138 12.338442,14.839692 12.338559,14.772671 12.338061,14.718537 12.338199,14.695498 12.338199,14.695497 12.338682,14.614453 12.338682,14.578019 12.39569,14.578019 12.49094,14.578302 12.49094,14.578095 12.744631,14.577802 12.832547,14.577802" style="fill: white" /><polygon type="contour" points="12.998701,14.298903 12.338412,14.298903 12.338412,14.215603 12.998701,14.215603" style="fill: white" /><polygon type="contour" points="13.360902,14.298903 13.277598,14.298903 13.277598,14.215603 13.360902,14.215603" style="fill: white" /><polygon type="contour" points="13.360902,13.937232 13.277598,13.937232 13.277598,13.639803 13.360902,13.639803" style="fill: white" /><polygon type="contour" points="12.744631,13.639803 12.998701,13.639803 12.9987,13.744802 12.9987,13.831667 12.998701,13.908712 12.998701,13.937232 12.8937,13.936776 12.832546,13.937402 12.744631,13.937402 12.421207,13.937029 12.421207,13.93711 12.373087,13.93711 12.338682,13.937186 12.33827,13.831667 12.338234,13.829901 12.338234,13.825698 12.338237,13.746602 12.338274,13.744802 12.338682,13.676236 12.338682,13.639803 12.49094,13.639803 12.49094,13.639802" style="fill: white" /><polygon type="contour" points="12.79775,13.277601 12.832547,13.277601 12.893699,13.2776 12.998701,13.2776 12.998701,13.360903 12.338412,13.360903 12.338412,13.2776 12.670912,13.2776" style="fill: white" /><polygon type="contour" points="13.360902,12.998702 13.277598,12.998702 13.277598,12.338415 13.360902,12.338415" style="fill: white" /><polygon type="contour" points="13.360902,13.360903 13.277598,13.360903 13.277598,13.2776 13.360902,13.2776" style="fill: white" /><polygon type="contour" points="14.298902,13.360903 14.215602,13.360903 14.215602,13.2776 14.298902,13.2776" style="fill: white" /><polygon type="contour" points="13.937231,13.360903 13.639802,13.360903 13.639802,13.2776 13.937231,13.2776" style="fill: white" /><polygon type="contour" points="13.936774,13.744801 13.937399,13.819801 13.937399,13.831667 13.937231,13.908712 13.937231,13.937232 13.831665,13.937401 13.757399,13.936776 13.744799,13.936776 13.639802,13.937232 13.639802,13.831668 13.639801,13.757401 13.639801,13.744802 13.639802,13.639803 13.937231,13.639803" style="fill: white" /><polygon type="contour" points="14.298902,13.937232 14.215602,13.937232 14.215602,13.825698 14.2156,13.746602 14.2156,13.744801 14.215602,13.668493 14.215602,13.639803 14.298902,13.639803" style="fill: white" /><polygon type="contour" points="14.298902,14.298903 14.215602,14.298903 14.215602,14.215603 14.298902,14.215603" style="fill: white" /><polygon type="contour" points="14.695402,14.577803 14.888661,14.577803 14.888475,14.683572 14.888465,14.746222 14.983941,14.746017 15.04072,14.746028 15.079242,14.746042 15.079011,14.978094 15.079064,15.001391 15.079064,15.079066 14.796873,15.079362 14.784194,15.079362 14.74619,15.079394 14.74619,14.889359 14.600369,14.888598 14.577802,14.888664 14.5778,14.786355 14.577798,14.71094 14.577802,14.606493 14.577802,14.577803 14.683571,14.577802 14.695402,14.577802" style="fill: white" /><polygon type="contour" points="14.888809,14.298903 14.577802,14.298903 14.577802,14.215603 14.888809,14.215603" style="fill: white" /><polygon type="contour" points="14.888701,13.744802 14.888722,13.746601 14.889016,13.825698 14.889016,13.829902 14.888981,13.831667 14.88867,13.914734 14.888661,13.937232 14.749967,13.936702 14.746276,13.936702 14.746275,13.936398 14.606491,13.937232 14.577802,13.937232 14.577801,13.831668 14.577801,13.819801 14.578425,13.744801 14.577802,13.668493 14.577802,13.639803 14.888661,13.639803" style="fill: white" /><polygon type="contour" points="14.888809,13.360903 14.577802,13.360903 14.577802,13.2776 14.888809,13.2776" style="fill: white" /><polygon type="contour" points="14.889136,12.338415 14.889017,12.363743 14.888526,12.490966 14.964613,12.491469 14.976861,12.491423 15.04072,12.491329 15.079286,12.491386 15.079286,12.805882 15.079242,12.824543 15.049963,12.824439 15.040721,12.824529 14.88855,12.824347 14.889326,12.893701 14.88867,12.976034 14.888661,12.998702 14.577802,12.998702 14.578425,12.8937 14.577801,12.832548 14.577801,12.744632 14.578173,12.421209 14.578093,12.421209 14.578093,12.373089 14.578018,12.338684 14.679661,12.338202 14.751372,12.338202" style="fill: white" /><polygon type="contour" points="14.888719,11.763104 14.888661,11.763104 14.888701,11.868102 14.888722,11.869901 14.888722,11.9532 14.8887,11.955076 14.888715,12.036635 14.888718,12.060703 14.75,12.060021 14.695402,12.060021 14.695402,12.060701 14.606655,12.060703 14.577802,12.060703 14.578425,11.955075 14.578425,11.868102 14.577802,11.791793 14.577802,11.763104 14.68357,11.763102 14.746276,11.763102 14.746276,11.7631 14.853823,11.763104 14.888506,11.76293" style="fill: white" /><polygon type="contour" points="14.888577,11.455922 14.888577,11.484203 14.577802,11.484203 14.577802,11.400901 14.888809,11.400901" style="fill: white" /><polygon type="contour" points="14.695402,10.825408 14.853822,10.824401 14.88862,10.824402 14.88864,10.824401 14.88866,10.824401 14.888769,10.927964 14.888769,10.929803 14.888789,10.931581 14.888829,10.963497 14.888597,10.985108 14.888769,11.013103 14.888769,11.015359 14.888661,11.122003 14.746276,11.122003 14.746276,11.122001 14.606491,11.122003 14.577802,11.122003 14.577802,10.824401 14.695402,10.824401" style="fill: white" /><polygon type="contour" points="14.888809,10.494155 14.888567,10.545501 14.577802,10.545501 14.577802,10.462901 14.888809,10.462901" style="fill: white" /><polygon type="contour" points="14.88864,9.886401 14.888661,9.886401 14.888701,9.991402 14.888722,9.993201 14.888908,10.020992 14.888908,10.076502 14.888701,10.076502 14.888661,10.184003 14.749967,10.183318 14.695406,10.183318 14.695402,10.184001 14.606491,10.184003 14.577802,10.184003 14.578425,10.078377 14.578425,9.991402 14.577802,9.915091 14.577802,9.886401 14.683571,9.886402 14.746276,9.886402 14.746276,9.886401 14.853823,9.886401 14.88862,9.886223" style="fill: white" /><polygon type="contour" points="14.888809,9.55572 14.888567,9.607501 14.577802,9.607501 14.577802,9.524201 14.888809,9.524201" style="fill: white" /><polygon type="contour" points="14.695407,8.948705 14.853822,8.947702 14.888661,8.947702 14.888701,9.053326 14.888722,9.055202 14.888722,9.138502 14.888701,9.140301 14.888661,9.245301 14.695402,9.245301 14.695402,9.245302 14.606491,9.245301 14.577802,9.245301 14.578425,9.140301 14.578425,9.053327 14.577802,8.947702 14.695402,8.947702" style="fill: white" /><polygon type="contour" points="14.888729,8.640925 14.888729,8.668801 14.577802,8.668801 14.577802,8.586201 14.888809,8.586201" style="fill: white" /><polygon type="contour" points="14.839126,8.086883 14.888716,8.064292 14.888769,8.116344 14.888769,8.118602 14.888597,8.146595 14.888769,8.196929 14.888769,8.203739 14.88866,8.307303 14.749967,8.306619 14.695402,8.306619 14.695402,8.307302 14.606491,8.307303 14.577802,8.307303 14.577802,8.009701 14.838741,8.009701" style="fill: white" /><polygon type="contour" points="14.889031,7.704595 14.889031,7.7308 14.577802,7.7308 14.577802,7.647501 14.888809,7.647501" style="fill: white" /><polygon type="contour" points="14.888701,7.176626 14.888722,7.178501 14.888722,7.261802 14.888701,7.263601 14.888661,7.3686 14.749966,7.368601 14.746276,7.368601 14.746276,7.3686 14.577802,7.3686 14.578425,7.263601 14.578425,7.176626 14.577802,7.071001 14.68349,7.071002 14.695402,7.071002 14.695406,7.071683 14.75,7.071683 14.888718,7.071001" style="fill: white" /><polygon type="contour" points="14.889326,6.238003 14.88855,6.307329 14.9692,6.307098 15.040721,6.307174 15.079242,6.307161 15.079286,6.325821 15.079286,6.640315 15.045227,6.640379 15.040721,6.640373 14.964613,6.640234 14.888476,6.640267 14.888879,6.727971 14.889136,6.793289 14.839689,6.79326 14.772668,6.793142 14.751373,6.793503 14.695496,6.793503 14.614451,6.793018 14.578018,6.793018 14.578018,6.735525 14.57815,6.69015 14.577801,6.38707 14.577801,6.299155 14.578425,6.238003 14.577802,6.161691 14.577802,6.133001 14.683571,6.133002 14.746276,6.133002 14.746276,6.133001 14.888661,6.133001" style="fill: white" /><polygon type="contour" points="14.888809,5.854101 14.577802,5.854101 14.577802,5.770801 14.888809,5.770801" style="fill: white" /><polygon type="contour" points="14.888981,5.300035 14.889016,5.3018 14.889016,5.306002 14.888722,5.385102 14.888701,5.386901 14.88867,5.469232 14.888661,5.491901 14.695401,5.491901 14.695401,5.491902 14.606491,5.491901 14.577802,5.491901 14.578424,5.386901 14.577801,5.3119 14.577801,5.300035 14.577802,5.222992 14.577802,5.194473 14.683571,5.195002 14.695401,5.195002 14.695401,5.19525 14.853822,5.194473 14.888661,5.194473" style="fill: white" /><polygon type="contour" points="14.888809,4.916102 14.577802,4.916102 14.577802,4.832801 14.888809,4.832801" style="fill: white" /><polygon type="contour" points="14.784194,4.052342 14.796874,4.052342 15.079064,4.052637 15.079064,4.130313 15.07901,4.153612 15.079242,4.38566 15.049962,4.385549 15.040721,4.385674 14.888369,4.385467 14.888669,4.531233 14.888661,4.553901 14.577802,4.553901 14.577798,4.424839 14.577799,4.4051 14.577801,4.345347 14.577802,4.277878 14.577802,4.24304 14.683571,4.242596 14.74628,4.242671 14.74619,4.05231" style="fill: white" /><polygon type="contour" points="12.824542,4.05246 12.824438,4.081738 12.824528,4.090981 12.824348,4.243151 12.8937,4.242377 12.976034,4.24303 12.998701,4.243039 12.9987,4.345348 12.9987,4.436301 12.998701,4.436301 12.998701,4.553901 12.893699,4.553277 12.832547,4.553901 12.744631,4.553901 12.421207,4.553528 12.421207,4.553609 12.373087,4.553609 12.338682,4.553684 12.338123,4.436207 12.338451,4.436207 12.338259,4.385484 12.338441,4.292011 12.338412,4.242565 12.363741,4.242682 12.490965,4.243177 12.491467,4.167089 12.491419,4.154838 12.491327,4.090981 12.491384,4.052416 12.805881,4.052416" style="fill: white" /><polygon type="contour" points="10.99969,4.243105 11.0131,4.242932 11.015357,4.242932 11.122001,4.24304 11.122,4.345348 11.122,4.405101 11.121998,4.405101 11.122001,4.52521 11.122001,4.553901 11.015356,4.553902 10.927962,4.553902 10.853089,4.553901 10.824399,4.553901 10.824399,4.436301 10.824637,4.436301 10.824904,4.345348 10.824399,4.277877 10.824399,4.24304 10.927962,4.242932 10.929801,4.242932 10.944385,4.243105 10.955645,4.242591 10.989339,4.242591" style="fill: white" /><polygon type="contour" points="10.494152,4.242893 10.545499,4.242893 10.545499,4.553901 10.462899,4.553901 10.462899,4.242786 10.467781,4.242795 10.475553,4.242786 10.490775,4.242509" style="fill: white" /><polygon type="contour" points="10.076501,4.243 10.184001,4.24304 10.183999,4.243096 10.183497,4.345348 10.183763,4.436301 10.184,4.436301 10.184001,4.52521 10.184001,4.553901 10.078375,4.553277 9.9914,4.553277 9.886399,4.553901 9.8864,4.448132 9.8864,4.436301 9.886401,4.436301 9.886401,4.345348 9.886399,4.277877 9.886399,4.24304 9.991401,4.243001 9.993201,4.242979 10.020991,4.242794 10.076501,4.242794" style="fill: white" /><polygon type="contour" points="9.555717,4.242893 9.607499,4.242893 9.607499,4.553901 9.524199,4.553901 9.524199,4.242509 9.55231,4.242509" style="fill: white" /><polygon type="contour" points="9.140298,4.243001 9.245299,4.24304 9.245299,4.345348 9.2453,4.417641 9.245299,4.52521 9.245299,4.553901 9.140299,4.553277 9.053325,4.553277 8.9477,4.553901 8.9477,4.436301 8.947938,4.436299 8.948203,4.345348 8.9477,4.277877 8.9477,4.24304 9.053324,4.243001 9.0552,4.24298 9.138499,4.24298" style="fill: white" /><polygon type="contour" points="7.263599,4.243001 7.368599,4.24304 7.368599,4.553901 7.2636,4.553277 7.176624,4.553277 7.099862,4.553901 7.071,4.553901 7.071001,4.448212 7.071001,4.436301 7.071238,4.436299 7.071503,4.345348 7.071,4.242982 7.176624,4.243001 7.1785,4.24298 7.2618,4.24298" style="fill: white" /><polygon type="contour" points="6.640376,4.086474 6.640371,4.09098 6.640232,4.167088 6.640265,4.243225 6.727968,4.242823 6.793287,4.242565 6.793258,4.292011 6.79314,4.359031 6.79364,4.413173 6.793016,4.517251 6.793016,4.553684 6.735522,4.553684 6.690147,4.553551 6.387068,4.553901 6.299152,4.553901 6.237999,4.553277 6.16169,4.553901 6.132998,4.553901 6.132999,4.448132 6.132999,4.345347 6.132998,4.277878 6.132998,4.24304 6.238,4.242377 6.307327,4.243151 6.307096,4.162501 6.307171,4.090981 6.307158,4.05246 6.325818,4.052416 6.640313,4.052416" style="fill: white" /><polygon type="contour" points="4.385423,6.133002 4.525208,6.133001 4.553898,6.133001 4.553275,6.238003 4.553899,6.299155 4.553899,6.387071 4.553525,6.709793 4.553606,6.709793 4.553606,6.75832 4.553682,6.793018 4.45204,6.793503 4.380327,6.793503 4.242563,6.793289 4.242681,6.767747 4.243174,6.640267 4.167086,6.640234 4.154836,6.64028 4.09098,6.640373 4.052414,6.640315 4.052414,6.325821 4.052458,6.307161 4.081736,6.307265 4.090979,6.307174 4.243149,6.307355 4.242375,6.238002 4.243029,6.155668 4.243038,6.133001 4.385423,6.133001" style="fill: white" /><polygon type="contour" points="4.553898,5.854101 4.242891,5.854101 4.242891,5.770801 4.553898,5.770801" style="fill: white" /><polygon type="contour" points="4.385507,4.24234 4.53123,4.243031 4.553899,4.24304 4.553899,4.345348 4.5539,4.422991 4.553898,4.52521 4.553898,4.553901 4.243038,4.553901 4.243225,4.448132 4.24323,4.385482 4.147757,4.385685 4.090979,4.385674 4.052458,4.38566 4.052687,4.153612 4.052635,4.130313 4.052635,4.052637 4.334823,4.052342 4.347503,4.052342 4.385507,4.05231" style="fill: white" /><polygon type="contour" points="5.380622,4.24298 5.3851,4.24298 5.386899,4.243001 5.469231,4.24303 5.491899,4.24304 5.491899,4.4363 5.4919,4.52521 5.4919,4.553901 5.3869,4.553277 5.374299,4.553277 5.300033,4.553901 5.194471,4.553901 5.194371,4.448132 5.194371,4.436301 5.194537,4.436301 5.194802,4.345348 5.194471,4.277877 5.194471,4.24304 5.300032,4.242722 5.301798,4.242686" style="fill: white" /><polygon type="contour" points="4.9161,4.4363 4.916101,4.52521 4.916101,4.553901 4.832799,4.553901 4.832799,4.242893 4.9161,4.242893" style="fill: white" /><polygon type="contour" points="4.9161,4.916102 4.832799,4.916102 4.832799,4.832801 4.9161,4.832801" style="fill: white" /><polygon type="contour" points="4.553898,4.916102 4.242891,4.916102 4.242891,4.832801 4.553898,4.832801" style="fill: white" /><polygon type="contour" points="4.5539,5.300034 4.5539,5.3119 4.553275,5.386902 4.553898,5.46321 4.553898,5.4919 4.448129,5.491902 4.436297,5.491902 4.436297,5.491901 4.243038,5.491901 4.242999,5.386901 4.242978,5.385102 4.242684,5.306002 4.242684,5.3018 4.242719,5.300035 4.243029,5.21697 4.243038,5.194473 4.381732,5.195001 4.385424,5.195001 4.385424,5.195304 4.525208,5.194473 4.553898,5.194473" style="fill: white" /><polygon type="contour" points="4.9161,5.491901 4.8328,5.491901 4.832799,5.386902 4.832799,5.194473 4.9161,5.194473" style="fill: white" /><polygon type="contour" points="4.9161,5.854101 4.832799,5.854101 4.832799,5.770801 4.9161,5.770801" style="fill: white" /><polygon type="contour" points="4.9161,6.238003 4.916101,6.299155 4.916101,6.333952 4.9161,6.460787 4.9161,6.793289 4.832799,6.793289 4.832799,6.460787 4.8328,6.333952 4.8328,6.299155 4.832799,6.238003 4.832799,6.133001 4.9161,6.133001" style="fill: white" /><polygon type="contour" points="4.553275,7.176626 4.553275,7.263601 4.553898,7.33991 4.553898,7.3686 4.385423,7.3686 4.385423,7.368601 4.34278,7.3686 4.34278,7.2688 4.243,7.2688 4.242999,7.263601 4.242978,7.261802 4.242978,7.178501 4.242998,7.176626 4.242983,7.095067 4.24298,7.071001 4.381699,7.071683 4.436298,7.071683 4.436298,7.071002 4.525044,7.071001 4.554414,7.071001" style="fill: white" /><polygon type="contour" points="4.9161,7.176626 4.9161,7.3686 4.832799,7.3686 4.832799,7.071001 4.916616,7.071001" style="fill: white" /><polygon type="contour" points="4.9161,7.7308 4.832799,7.7308 4.832799,7.647501 4.9161,7.647501" style="fill: white" /><polygon type="contour" points="4.553898,7.7308 4.242891,7.7308 4.242891,7.683369 4.242455,7.679019 4.242662,7.678977 4.242662,7.647501 4.553898,7.647501" style="fill: white" /><polygon type="contour" points="4.5539,8.116344 4.5539,8.20374 4.553898,8.307303 4.448129,8.307302 4.436297,8.307302 4.436298,8.306295 4.277876,8.307303 4.243039,8.307303 4.242931,8.203739 4.242931,8.201901 4.242897,8.200122 4.242589,8.168206 4.243103,8.146596 4.242931,8.118602 4.242931,8.116344 4.243029,8.033039 4.243038,8.009701 4.553898,8.009701" style="fill: white" /><polygon type="contour" points="4.9161,8.307303 4.8328,8.307303 4.832799,8.20374 4.832799,8.009701 4.9161,8.009701" style="fill: white" /><polygon type="contour" points="4.9161,8.668801 4.832799,8.668801 4.832799,8.586201 4.9161,8.586201" style="fill: white" /><polygon type="contour" points="4.553898,8.668801 4.342307,8.668801 4.342307,8.586201 4.553898,8.586201" style="fill: white" /><polygon type="contour" points="4.553275,9.053327 4.553275,9.140302 4.553898,9.21661 4.553898,9.2453 4.448129,9.245302 4.436297,9.245302 4.436297,9.245301 4.243038,9.245301 4.242999,9.140301 4.242978,9.138501 4.242792,9.110711 4.242792,9.055202 4.242998,9.055202 4.243019,8.997601 4.292674,8.997621 4.292918,8.947947 4.381667,8.948383 4.436293,8.948383 4.436298,8.947702 4.553898,8.947702" style="fill: white" /><polygon type="contour" points="4.9161,9.245301 4.8328,9.245301 4.832799,9.140302 4.832799,8.947702 4.9161,8.947702" style="fill: white" /><polygon type="contour" points="4.9161,9.607501 4.832799,9.607501 4.832799,9.524201 4.9161,9.524201" style="fill: white" /><polygon type="contour" points="4.9161,10.184003 4.832799,10.184003 4.832799,9.886401 4.9161,9.886401" style="fill: white" /><polygon type="contour" points="4.9161,10.545501 4.832799,10.545501 4.832799,10.462901 4.9161,10.462901" style="fill: white" /><polygon type="contour" points="4.553898,10.545501 4.242891,10.545501 4.242891,10.498505 4.242455,10.494155 4.242507,10.494144 4.242507,10.462901 4.553898,10.462901" style="fill: white" /><polygon type="contour" points="4.5539,10.927963 4.5539,11.015359 4.553898,11.092457 4.553898,11.122003 4.448129,11.122002 4.385424,11.122002 4.385424,11.122003 4.243038,11.122003 4.242931,11.015359 4.242931,11.013103 4.243103,10.985108 4.242931,10.934774 4.242931,10.927963 4.243028,10.847069 4.243038,10.824401 4.381733,10.825085 4.436293,10.825085 4.436298,10.824401 4.553898,10.824401" style="fill: white" /><polygon type="contour" points="4.9161,11.122003 4.832799,11.122003 4.832799,10.824401 4.9161,10.824401" style="fill: white" /><polygon type="contour" points="4.916101,11.43242 4.9161,11.484203 4.832799,11.484203 4.832799,11.400901 4.916101,11.400901" style="fill: white" /><polygon type="contour" points="5.491899,11.463879 5.491899,11.484203 5.194471,11.484203 5.194471,11.400901 5.4919,11.400901" style="fill: white" /><polygon type="contour" points="5.491898,11.763104 5.4919,11.868101 5.4919,11.955076 5.492415,12.060703 5.3869,12.060076 5.374299,12.060076 5.300033,12.060701 5.223155,12.060703 5.193956,12.060703 5.194924,11.955076 5.194924,11.942476 5.194925,11.868101 5.194471,11.791793 5.194471,11.763104 5.300032,11.763103 5.3743,11.763102 5.3869,11.763102" style="fill: white" /><polygon type="contour" points="5.833775,11.763105 5.854098,11.763105 5.854098,12.060703 5.770798,12.060703 5.770798,11.763104" style="fill: white" /><polygon type="contour" points="5.854098,11.484203 5.770798,11.484203 5.770798,11.400901 5.854098,11.400901" style="fill: white" /><polygon type="contour" points="5.854098,11.122003 5.770798,11.122003 5.770798,10.824401 5.854098,10.824401" style="fill: white" /><polygon type="contour" points="5.4919,10.927963 5.4919,11.015358 5.491899,11.092458 5.491899,11.122003 5.3869,11.122001 5.3743,11.122001 5.300032,11.122002 5.22299,11.122003 5.194471,11.122003 5.1943,11.015359 5.194299,10.942002 5.194299,10.927964 5.194471,10.824401 5.300033,10.824402 5.311898,10.824402 5.386899,10.825026 5.463208,10.824401 5.491899,10.824401" style="fill: white" /><polygon type="contour" points="5.491899,10.545501 5.194471,10.545501 5.194471,10.462901 5.491899,10.462901" style="fill: white" /><polygon type="contour" points="5.854098,10.545501 5.770798,10.545501 5.770798,10.462901 5.854098,10.462901" style="fill: white" /><polygon type="contour" points="5.854098,10.184003 5.770798,10.184003 5.770798,9.886401 5.854098,9.886401" style="fill: white" /><polygon type="contour" points="5.4919,9.991401 5.4919,10.078376 5.491899,10.184003 5.3869,10.183376 5.374299,10.183376 5.300033,10.184001 5.22299,10.184003 5.194471,10.184003 5.194924,10.078376 5.194924,9.991401 5.194471,9.915092 5.194471,9.886401 5.300032,9.886403 5.3869,9.886403 5.491899,9.886401" style="fill: white" /><polygon type="contour" points="5.491899,9.607501 5.194471,9.607501 5.194471,9.524201 5.491899,9.524201" style="fill: white" /><polygon type="contour" points="5.854098,9.607501 5.770798,9.607501 5.770798,9.524201 5.854098,9.524201" style="fill: white" /><polygon type="contour" points="5.854098,9.245301 5.770798,9.245301 5.770798,8.947702 5.854098,8.947702" style="fill: white" /><polygon type="contour" points="5.4919,9.053326 5.4919,9.140301 5.491899,9.216611 5.491899,9.245301 5.386899,9.245302 5.3743,9.245302 5.300032,9.245301 5.194471,9.245301 5.194924,9.140302 5.194924,9.053327 5.194471,8.947702 5.300033,8.947703 5.374299,8.948328 5.386899,8.948328 5.491899,8.947702" style="fill: white" /><polygon type="contour" points="5.491899,8.668801 5.194471,8.668801 5.194471,8.586201 5.491899,8.586201" style="fill: white" /><polygon type="contour" points="6.440785,8.033038 6.44115,8.116344 6.44115,8.20374 6.440921,8.284634 6.441036,8.307303 6.341017,8.307302 6.299152,8.307302 6.237999,8.306677 6.16169,8.307303 6.132998,8.307303 6.132999,8.203739 6.132999,8.116345 6.132998,8.039244 6.132998,8.009701 6.238,8.009703 6.299152,8.009702 6.341017,8.009702 6.413711,8.009701 6.440694,8.009701" style="fill: white" /><polygon type="contour" points="6.440303,7.7308 6.132998,7.7308 6.132998,7.647501 6.440303,7.647501" style="fill: white" /><polygon type="contour" points="6.439101,7.176626 6.439046,7.178502 6.439082,7.182979 6.439101,7.189227 6.439101,7.263601 6.439521,7.346067 6.439636,7.3686 6.340682,7.368602 6.299152,7.368602 6.188099,7.3686 6.132998,7.3686 6.132999,7.263601 6.132999,7.071001 6.237999,7.071628 6.299153,7.071002 6.340682,7.071002 6.412573,7.071001 6.439367,7.071001" style="fill: white" /><polygon type="contour" points="6.793287,5.854101 6.132998,5.854101 6.132998,5.770801 6.793287,5.770801" style="fill: white" /><polygon type="contour" points="6.793426,6.238002 6.793333,6.299155 6.793436,6.30733 6.793206,6.373871 6.793287,6.387208 6.793287,6.438346 6.767746,6.438447 6.709898,6.438385 6.709898,6.436898 6.441104,6.44112 6.437382,6.709901 6.438384,6.7099 6.438445,6.767747 6.438343,6.793289 6.387206,6.793289 6.373869,6.793208 6.307327,6.793438 6.299152,6.793335 6.238,6.793427 6.169432,6.793018 6.132998,6.793018 6.132998,6.735525 6.133001,6.640469 6.132999,6.640469 6.133001,6.38707 6.133001,6.299155 6.133625,6.238003 6.132998,6.161691 6.132998,6.133001 6.237999,6.133628 6.299153,6.133002 6.758317,6.133002 6.793016,6.133001" style="fill: white" /><polygon type="contour" points="7.176625,6.133001 7.368599,6.133001 7.368599,6.238003 7.3686,6.299155 7.3686,6.340684 7.368599,6.412654 7.368599,6.439638 7.263599,6.439102 7.189225,6.439102 7.182977,6.439083 7.1785,6.439047 7.176625,6.439102 7.071,6.439369 7.071001,6.340684 7.071001,6.299155 7.071625,6.238003 7.071,6.161856 7.071,6.132486" style="fill: white" /><polygon type="contour" points="7.176625,5.770801 7.368599,5.770801 7.368599,5.854101 7.071,5.854101 7.071,5.770286" style="fill: white" /><polygon type="contour" points="7.368599,5.491901 7.263599,5.491902 7.176625,5.491902 7.099861,5.491901 7.071,5.491901 7.071625,5.386902 7.071001,5.3119 7.071001,5.300035 7.071,5.223156 7.071,5.194474 7.176624,5.194926 7.2636,5.194926 7.368599,5.194473" style="fill: white" /><polygon type="contour" points="7.730799,5.491901 7.6475,5.491901 7.6475,5.194473 7.730799,5.194473" style="fill: white" /><polygon type="contour" points="7.730799,5.854101 7.6475,5.854101 7.6475,5.770801 7.730799,5.770801" style="fill: white" /><polygon type="contour" points="7.730799,6.440305 7.6475,6.440305 7.6475,6.133001 7.730799,6.133001" style="fill: white" /><polygon type="contour" points="9.607499,6.443727 9.607466,6.443729 9.566199,6.443729 9.566108,6.443727 9.524199,6.443727 9.524199,6.133001 9.607499,6.133001" style="fill: white" /><polygon type="contour" points="11.4842,6.440305 11.400899,6.440305 11.400899,6.133001 11.4842,6.133001" style="fill: white" /><polygon type="contour" points="12.790684,8.009702 12.832548,8.009702 12.893699,8.009703 12.97001,8.009701 12.998701,8.009701 12.998701,8.307303 12.8937,8.306677 12.832547,8.307302 12.790684,8.307302 12.717988,8.307303 12.690665,8.307303 12.69055,8.203739 12.69055,8.116344 12.690913,8.033039 12.691007,8.009701 12.717988,8.009701" style="fill: white" /><polygon type="contour" points="12.998701,7.7308 12.691397,7.7308 12.691397,7.647501 12.998701,7.647501" style="fill: white" /><polygon type="contour" points="13.360902,6.793289 13.277598,6.793289 13.277598,6.133001 13.360902,6.133001" style="fill: white" /><polygon type="contour" points="12.9987,7.176626 12.9987,7.263601 12.998701,7.33991 12.998701,7.3686 12.893699,7.368601 12.832547,7.368602 12.791016,7.368602 12.719047,7.3686 12.692065,7.3686 12.692599,7.263601 12.692599,7.189227 12.692617,7.182979 12.692655,7.178501 12.692599,7.176627 12.692334,7.071001 12.791017,7.071003 12.832547,7.071003 12.893699,7.071628 12.969847,7.071001 12.999216,7.071001" style="fill: white" /><polygon type="contour" points="13.360902,7.3686 13.277598,7.3686 13.277598,7.071001 13.360902,7.071001" style="fill: white" /><polygon type="contour" points="13.360902,7.7308 13.277598,7.7308 13.277598,7.647501 13.360902,7.647501" style="fill: white" /><polygon type="contour" points="13.360902,8.307303 13.277598,8.307303 13.277598,8.009701 13.360902,8.009701" style="fill: white" /><polygon type="contour" points="13.360902,8.668801 13.277598,8.668801 13.277598,8.586201 13.360902,8.586201" style="fill: white" /><polygon type="contour" points="12.998701,8.668801 12.689731,8.668801 12.689731,8.617454 12.689995,8.586201 12.998701,8.586201" style="fill: white" /><polygon type="contour" points="12.8937,8.948328 12.970011,8.947702 12.998701,8.947702 12.9987,9.053327 12.9987,9.140302 12.998701,9.2453 12.893699,9.245302 12.832547,9.245301 12.688734,9.245301 12.689099,9.140302 12.689099,9.053326 12.688946,8.97037 12.689076,8.947702 12.832546,8.947702" style="fill: white" /><polygon type="contour" points="13.360902,9.245301 13.277598,9.245301 13.277598,8.947702 13.360902,8.947702" style="fill: white" /><polygon type="contour" points="13.360902,9.607501 13.277598,9.607501 13.277598,9.524201 13.360902,9.524201" style="fill: white" /><polygon type="contour" points="12.998701,9.607501 12.687975,9.607501 12.687972,9.607469 12.687972,9.566202 12.687975,9.566111 12.687975,9.524201 12.998701,9.524201" style="fill: white" /><polygon type="contour" points="12.9987,9.991402 12.9987,10.078376 12.998701,10.155312 12.998701,10.184003 12.8937,10.183376 12.832546,10.184002 12.790179,10.184002 12.716399,10.184003 12.689076,10.184003 12.689099,10.078376 12.689099,9.991401 12.688812,9.909069 12.688734,9.886401 12.790179,9.886402 12.832547,9.886402 12.893699,9.886403 12.97001,9.886401 12.998701,9.886401" style="fill: white" /><polygon type="contour" points="13.360902,10.184003 13.277598,10.184003 13.277598,9.886401 13.360902,9.886401" style="fill: white" /><polygon type="contour" points="13.360902,10.545501 13.277598,10.545501 13.277598,10.462901 13.360902,10.462901" style="fill: white" /><polygon type="contour" points="13.360902,11.122003 13.277598,11.122003 13.277598,10.824401 13.360902,10.824401" style="fill: white" /><polygon type="contour" points="13.360902,11.484203 13.277598,11.484203 13.277598,11.400901 13.360902,11.400901" style="fill: white" /><polygon type="contour" points="12.998701,11.484203 12.691397,11.484203 12.691397,11.400901 12.998701,11.400901" style="fill: white" /><polygon type="contour" points="12.97001,11.763104 12.998701,11.763104 12.9987,11.868102 12.9987,11.955075 12.999216,12.060703 12.8937,12.060076 12.832546,12.060702 12.791017,12.060702 12.719127,12.060703 12.692334,12.060703 12.692599,11.955075 12.692655,11.953201 12.692599,11.942475 12.692599,11.868101 12.69218,11.785637 12.692065,11.763104 12.791017,11.763103 12.832547,11.763103 12.893699,11.763102" style="fill: white" /><polygon type="contour" points="13.360902,12.03184 13.361417,12.060703 13.277598,12.060703 13.277598,11.763104 13.360902,11.763104" style="fill: white" /><polygon type="contour" points="13.831665,12.338273 13.90075,12.338684 13.937184,12.338684 13.937184,12.395694 13.936904,12.490942 13.937108,12.490942 13.937399,12.744632 13.937399,12.832548 13.936774,12.8937 13.937231,12.970012 13.937231,12.998702 13.831665,12.998701 13.7448,12.998701 13.639802,12.998702 13.639801,12.8937 13.6398,12.832548 13.6398,12.490941 13.639801,12.490941 13.639801,12.373089 13.639802,12.338684 13.7448,12.338277 13.7466,12.33824 13.751078,12.33824 13.829899,12.338236" style="fill: white" /><polygon type="contour" points="14.240956,12.338415 14.298902,12.338415 14.298902,12.998702 14.2156,12.998702 14.2156,12.8937 14.215602,12.832548 14.215602,12.40318 14.215601,12.338414" style="fill: white" /><polygon type="contour" points="14.298902,12.03184 14.299417,12.060703 14.215086,12.060703 14.215602,11.955075 14.215602,11.763104 14.298902,11.763104" style="fill: white" /><polygon type="contour" points="13.831666,11.763103 13.908711,11.763104 13.937231,11.763104 13.936774,11.868102 13.936774,11.955075 13.93723,12.060703 13.831666,12.060701 13.757399,12.060076 13.744799,12.060076 13.639802,12.060703 13.639801,11.955076 13.639801,11.868102 13.639802,11.791793 13.639802,11.763104 13.744799,11.763102 13.757399,11.763102" style="fill: white" /><polygon type="contour" points="13.937231,11.484203 13.639802,11.484203 13.639802,11.400901 13.937231,11.400901" style="fill: white" /><polygon type="contour" points="14.298902,11.484203 14.215602,11.484203 14.215602,11.400901 14.298902,11.400901" style="fill: white" /><polygon type="contour" points="14.298902,11.122003 14.215602,11.122003 14.215602,10.927963 14.2156,10.853092 14.2156,10.824401 14.298902,10.824401" style="fill: white" /><polygon type="contour" points="13.937401,10.927963 13.937401,11.015358 13.937231,11.092458 13.937231,11.122003 13.831666,11.122002 13.757399,11.122001 13.744799,11.122001 13.639802,11.122003 13.639799,11.015359 13.639799,10.927964 13.639802,10.824401 13.7448,10.825027 13.819799,10.824402 13.831665,10.824402 13.908711,10.824401 13.937231,10.824401" style="fill: white" /><polygon type="contour" points="13.937231,10.545501 13.639802,10.545501 13.639802,10.462901 13.937231,10.462901" style="fill: white" /><polygon type="contour" points="14.298902,10.545501 14.215602,10.545501 14.215602,10.462901 14.298902,10.462901" style="fill: white" /><polygon type="contour" points="14.298902,10.184003 14.215602,10.184003 14.215602,9.886401 14.298902,9.886401" style="fill: white" /><polygon type="contour" points="13.936774,9.991401 13.936774,10.078376 13.937231,10.184003 13.831666,10.184001 13.757399,10.183376 13.744799,10.183376 13.639802,10.184003 13.639801,10.078377 13.639801,9.991402 13.639802,9.915091 13.639802,9.886401 13.744799,9.886403 13.831666,9.886403 13.90871,9.886401 13.937231,9.886401" style="fill: white" /><polygon type="contour" points="13.937231,9.607501 13.639802,9.607501 13.639802,9.524201 13.937231,9.524201" style="fill: white" /><polygon type="contour" points="14.298902,9.607501 14.215602,9.607501 14.215602,9.524201 14.298902,9.524201" style="fill: white" /><polygon type="contour" points="14.298902,9.245301 14.2156,9.245301 14.215602,9.140302 14.215602,8.947702 14.298902,8.947702" style="fill: white" /><polygon type="contour" points="13.936774,9.053327 13.936774,9.140302 13.937231,9.21661 13.937231,9.245301 13.831666,9.245301 13.757399,9.245302 13.7448,9.245302 13.639802,9.245301 13.639801,9.140302 13.639801,9.053327 13.639802,8.947702 13.7448,8.948328 13.757399,8.948328 13.831665,8.947703 13.908711,8.947702 13.937231,8.947702" style="fill: white" /><polygon type="contour" points="13.937231,8.668801 13.639802,8.668801 13.639802,8.586201 13.937231,8.586201" style="fill: white" /><polygon type="contour" points="14.298902,8.668801 14.215602,8.668801 14.215602,8.586201 14.298902,8.586201" style="fill: white" /><polygon type="contour" points="14.298902,8.307303 14.215602,8.307303 14.215602,8.009701 14.298902,8.009701" style="fill: white" /><polygon type="contour" points="13.937401,8.116345 13.937401,8.20374 13.937231,8.307303 13.831666,8.307301 13.819799,8.307301 13.7448,8.306677 13.66849,8.307303 13.6398,8.307303 13.639799,8.20374 13.639799,8.116344 13.639802,8.039245 13.639802,8.009701 13.744799,8.009703 13.831666,8.009703 13.90871,8.009701 13.937231,8.009701" style="fill: white" /><polygon type="contour" points="14.298902,7.7308 14.215602,7.7308 14.215602,7.647501 14.298902,7.647501" style="fill: white" /><polygon type="contour" points="13.937231,7.7308 13.639802,7.7308 13.639802,7.647501 13.937231,7.647501" style="fill: white" /><polygon type="contour" points="13.936774,7.176627 13.936774,7.263601 13.937231,7.33991 13.937231,7.3686 13.831665,7.368601 13.7448,7.368601 13.639802,7.3686 13.639801,7.263602 13.639801,7.176626 13.639287,7.071001 13.7448,7.071627 13.757399,7.071628 13.831666,7.071002 13.908546,7.071001 13.937746,7.071001" style="fill: white" /><polygon type="contour" points="14.298902,7.176627 14.298902,7.3686 14.215602,7.3686 14.215602,7.176626 14.2156,7.099862 14.2156,7.071001 14.299417,7.071001" style="fill: white" /><polygon type="contour" points="14.298902,6.793289 14.215602,6.793289 14.215602,6.299155 14.2156,6.238002 14.2156,6.133001 14.298902,6.133001" style="fill: white" /><polygon type="contour" points="13.831666,6.133003 13.90871,6.133001 13.937231,6.133001 13.936773,6.238002 13.937399,6.299155 13.937399,6.387071 13.937029,6.709793 13.937109,6.709793 13.937109,6.758321 13.937184,6.793018 13.831665,6.793432 13.829899,6.793467 13.751078,6.793465 13.7466,6.793465 13.7448,6.793427 13.676235,6.793018 13.639802,6.793018 13.639802,6.735525 13.6398,6.68406 13.6398,6.299154 13.639801,6.188102 13.639802,6.161691 13.639802,6.133001 13.7574,6.133001" style="fill: white" /><polygon type="contour" points="13.937231,5.854101 13.639802,5.854101 13.639802,5.770801 13.937231,5.770801" style="fill: white" /><polygon type="contour" points="14.298902,5.854101 14.2156,5.854101 14.215601,5.802319 14.215602,5.770801 14.298902,5.770801" style="fill: white" /><polygon type="contour" points="14.298902,5.491901 14.2156,5.491901 14.2156,5.385101 14.215602,5.306003 14.215602,5.194473 14.298902,5.194473" style="fill: white" /><polygon type="contour" points="13.90871,5.194473 13.93723,5.194473 13.937399,5.300035 13.937399,5.3119 13.936774,5.386902 13.937231,5.46321 13.937231,5.491901 13.831666,5.491901 13.757399,5.491902 13.7448,5.491902 13.639802,5.491901 13.639801,5.386902 13.639801,5.374302 13.639802,5.300034 13.639802,5.194473 13.744799,5.194926 13.757399,5.194926 13.831666,5.194301" style="fill: white" /><polygon type="contour" points="13.937231,4.916102 13.639802,4.916102 13.639802,4.832801 13.937231,4.832801" style="fill: white" /><polygon type="contour" points="14.298902,4.916102 14.215602,4.916102 14.215602,4.832801 14.298902,4.832801" style="fill: white" /><polygon type="contour" points="14.298902,4.553901 14.215602,4.553901 14.215602,4.375259 14.215601,4.33166 14.215602,4.242893 14.298902,4.242893" style="fill: white" /><polygon type="contour" points="13.831666,4.242722 13.914733,4.24303 13.937231,4.243039 13.936897,4.345348 13.937161,4.4363 13.93733,4.436301 13.937231,4.52521 13.937231,4.553901 13.831666,4.553901 13.757399,4.553277 13.7448,4.553277 13.639802,4.553901 13.639802,4.405101 13.6398,4.345347 13.639802,4.277878 13.639802,4.24304 13.7448,4.243001 13.746599,4.24298 13.751078,4.24298 13.829899,4.242686" style="fill: white" /><polygon type="contour" points="13.360902,4.553901 13.277598,4.553901 13.277598,4.242893 13.360902,4.242893" style="fill: white" /><polygon type="contour" points="13.360902,4.916102 13.277598,4.916102 13.277598,4.832801 13.360902,4.832801" style="fill: white" /><polygon type="contour" points="12.824373,4.832802 12.832547,4.832802 12.893699,4.832801 12.998701,4.832801 12.998701,4.916102 12.338412,4.916102 12.338412,4.832801 12.658041,4.832801" style="fill: white" /><polygon type="contour" points="12.8937,5.194926 12.97001,5.194473 12.998701,5.194473 12.9987,5.300035 12.9987,5.386901 12.998701,5.46321 12.998701,5.491901 12.893699,5.491902 12.832547,5.491901 12.338684,5.491901 12.338274,5.386901 12.338237,5.385101 12.338234,5.306003 12.338234,5.3018 12.338269,5.300035 12.338682,5.230951 12.338682,5.194519 12.395691,5.194519 12.49094,5.194798 12.49094,5.194594 12.74463,5.194303 12.832547,5.194303" style="fill: white" /><polygon type="contour" points="13.360902,5.491901 13.277598,5.491901 13.277598,5.194473 13.360902,5.194473" style="fill: white" /><polygon type="contour" points="13.360902,5.854101 13.277598,5.854101 13.277598,5.770801 13.360902,5.770801" style="fill: white" /><polygon type="contour" points="12.998701,5.854101 12.338413,5.854101 12.338413,5.796156 12.338412,5.770801 12.998701,5.770801" style="fill: white" /><polygon type="contour" points="12.49094,6.133004 12.49094,6.133002 12.832547,6.133002 12.893699,6.133628 12.970011,6.133001 12.998701,6.133001 12.998075,6.238003 12.998699,6.299155 12.998699,6.387071 12.998701,6.640469 12.998701,6.793018 12.8937,6.793428 12.832547,6.793335 12.824372,6.793438 12.75783,6.793208 12.744493,6.793289 12.693357,6.793289 12.693255,6.767747 12.693316,6.7099 12.694803,6.7099 12.690582,6.441106 12.421101,6.437373 12.421101,6.438385 12.403179,6.438314 12.338412,6.438345 12.338412,6.387208 12.338493,6.373872 12.338264,6.307328 12.338366,6.299155 12.338274,6.238002 12.338682,6.169435 12.338682,6.133001 12.395691,6.133001" style="fill: white" /><polygon type="contour" points="12.060075,6.238003 12.0607,6.299155 12.0607,6.439369 11.955074,6.439102 11.953199,6.439047 11.942474,6.439102 11.8681,6.439102 11.785634,6.439522 11.763101,6.439638 11.7631,6.340684 11.7631,6.299155 11.763101,6.238003 11.763101,6.133001 12.0607,6.133001" style="fill: white" /><polygon type="contour" points="12.0607,5.854616 11.955074,5.854101 11.763101,5.854101 11.763101,5.770801 12.0607,5.770801" style="fill: white" /><polygon type="contour" points="12.0607,5.3119 12.060075,5.386902 12.0607,5.463046 12.0607,5.492416 11.955074,5.491902 11.868101,5.491902 11.763101,5.4919 11.763101,5.194473 11.8681,5.194926 11.955074,5.194926 12.031837,5.194472 12.0607,5.193957" style="fill: white" /><polygon type="contour" points="12.0607,4.916102 11.763101,4.916102 11.763101,4.832801 12.0607,4.832801" style="fill: white" /><polygon type="contour" points="11.955075,4.243 12.036633,4.242985 12.0607,4.242982 12.060197,4.345348 12.060461,4.436301 12.0607,4.436301 12.0607,4.554416 11.955074,4.553277 11.8681,4.553277 11.763101,4.553901 11.763099,4.420636 11.7631,4.405102 11.7631,4.405101 11.763101,4.345348 11.763101,4.277878 11.762927,4.243021 11.763101,4.242982 11.763101,4.24304 11.868101,4.243001 11.8699,4.24298 11.9532,4.24298" style="fill: white" /><polygon type="contour" points="11.4842,4.553901 11.400899,4.553901 11.400899,4.242893 11.452681,4.242893 11.455921,4.242663 11.4842,4.242663" style="fill: white" /><polygon type="contour" points="11.015357,5.194302 11.092456,5.194473 11.122001,5.194473 11.122,5.300035 11.122,5.386901 11.122001,5.46321 11.122001,5.491901 10.824399,5.491901 10.825026,5.386902 10.824401,5.3119 10.824401,5.300034 10.824399,5.222993 10.824399,5.194473 10.927962,5.194301 10.942,5.194301" style="fill: white" /><polygon type="contour" points="11.122001,4.916102 10.824399,4.916102 10.824399,4.832801 11.122001,4.832801" style="fill: white" /><polygon type="contour" points="11.4842,4.916102 11.400899,4.916102 11.400899,4.832801 11.4842,4.832801" style="fill: white" /><polygon type="contour" points="11.4842,5.386901 11.484199,5.46321 11.484199,5.491901 11.400899,5.491901 11.400899,5.194473 11.4842,5.194473" style="fill: white" /><polygon type="contour" points="11.4842,5.854101 11.400899,5.854101 11.400899,5.770801 11.4842,5.770801" style="fill: white" /><polygon type="contour" points="11.122001,5.854101 10.824399,5.854101 10.824399,5.770801 11.122001,5.770801" style="fill: white" /><polygon type="contour" points="11.122,6.238003 11.122,6.34102 11.11941,6.440736 11.119302,6.440744 11.110586,6.440736 10.927961,6.441152 10.847067,6.440922 10.824399,6.441038 10.8244,6.341019 10.8244,6.299156 10.825026,6.238002 10.824399,6.161691 10.824399,6.133001 11.122001,6.133001" style="fill: white" /><polygon type="contour" points="10.545499,6.441706 10.514244,6.441972 10.462899,6.441972 10.462899,6.133001 10.545499,6.133001" style="fill: white" /><polygon type="contour" points="10.183375,6.238003 10.184,6.299155 10.184,6.341522 10.184001,6.415301 10.184001,6.442626 10.078375,6.4426 9.9914,6.4426 9.909066,6.442889 9.886399,6.442968 9.8864,6.341522 9.8864,6.299155 9.886402,6.238003 9.886399,6.161692 9.886399,6.133001 10.184001,6.133001" style="fill: white" /><polygon type="contour" points="10.184001,5.854101 9.886399,5.854101 9.886399,5.770801 10.184001,5.770801" style="fill: white" /><polygon type="contour" points="10.545499,5.854101 10.462899,5.854101 10.462899,5.770801 10.545499,5.770801" style="fill: white" /><polygon type="contour" points="10.545499,5.491901 10.462899,5.491901 10.462899,5.194473 10.545499,5.194473" style="fill: white" /><polygon type="contour" points="10.184,5.300035 10.184,5.3119 10.183375,5.386901 10.184001,5.46321 10.184001,5.491901 10.078375,5.491902 9.991401,5.491902 9.915089,5.491901 9.886399,5.491901 9.886402,5.386901 9.8864,5.311901 9.8864,5.300035 9.886399,5.222992 9.886399,5.194473 9.991401,5.194926 10.078375,5.194926 10.184001,5.194473" style="fill: white" /><polygon type="contour" points="10.545499,4.916102 10.462899,4.916102 10.462899,4.832801 10.545499,4.832801" style="fill: white" /><polygon type="contour" points="10.184001,4.916102 9.886399,4.916102 9.886399,4.832801 10.184001,4.832801" style="fill: white" /><polygon type="contour" points="9.607499,4.916102 9.524199,4.916102 9.524199,4.832801 9.607499,4.832801" style="fill: white" /><polygon type="contour" points="9.245299,4.916102 8.9477,4.916102 8.9477,4.832801 9.245299,4.832801" style="fill: white" /><polygon type="contour" points="9.2453,5.300034 9.2453,5.3119 9.245299,5.386902 9.245299,5.4919 9.140298,5.491902 9.053325,5.491902 8.9477,5.491901 8.948325,5.386901 8.9477,5.3119 8.9477,5.194473 9.053325,5.194926 9.140299,5.194926 9.216608,5.194473 9.245298,5.194473" style="fill: white" /><polygon type="contour" points="9.607499,5.491901 9.524199,5.491901 9.524199,5.194473 9.607499,5.194473" style="fill: white" /><polygon type="contour" points="9.607499,5.854101 9.524199,5.854101 9.524199,5.770801 9.607499,5.770801" style="fill: white" /><polygon type="contour" points="9.245299,5.854101 8.9477,5.854101 8.9477,5.770801 9.245299,5.770801" style="fill: white" /><polygon type="contour" points="9.245299,6.238003 9.2453,6.299155 9.2453,6.341522 9.245299,6.415301 9.245299,6.442968 9.140299,6.4426 9.053324,6.4426 8.970367,6.442755 8.9477,6.442626 8.9477,6.299155 8.948325,6.238003 8.9477,6.161691 8.9477,6.133001 9.245299,6.133001" style="fill: white" /><polygon type="contour" points="8.668799,6.441972 8.617452,6.441972 8.5862,6.441706 8.5862,6.133001 8.668799,6.133001" style="fill: white" /><polygon type="contour" points="8.306674,6.238002 8.3073,6.299156 8.3073,6.341019 8.307301,6.413713 8.307301,6.441038 8.203737,6.441152 8.116343,6.441152 8.033037,6.440787 8.0097,6.440696 8.0097,6.413713 8.009701,6.341019 8.009701,6.299154 8.0097,6.238003 8.0097,6.133001 8.307301,6.133001" style="fill: white" /><polygon type="contour" points="8.307301,5.854101 8.0097,5.854101 8.0097,5.770801 8.307301,5.770801" style="fill: white" /><polygon type="contour" points="8.668799,5.854101 8.5862,5.854101 8.5862,5.770801 8.668799,5.770801" style="fill: white" /><polygon type="contour" points="8.668799,5.491901 8.5862,5.491901 8.5862,5.194473 8.668799,5.194473" style="fill: white" /><polygon type="contour" points="8.307301,5.194473 8.307299,5.300034 8.307299,5.3119 8.306674,5.386901 8.307301,5.46321 8.307301,5.491901 8.0097,5.491901 8.0097,5.386902 8.009701,5.3119 8.009701,5.300035 8.0097,5.222992 8.0097,5.194473 8.116343,5.194302 8.189699,5.194301 8.203737,5.194301" style="fill: white" /><polygon type="contour" points="8.307301,4.916102 8.0097,4.916102 8.0097,4.832801 8.307301,4.832801" style="fill: white" /><polygon type="contour" points="8.668799,4.916102 8.5862,4.916102 8.5862,4.832801 8.668799,4.832801" style="fill: white" /><polygon type="contour" points="8.668799,4.553901 8.5862,4.553901 8.5862,4.242893 8.637546,4.242893 8.640924,4.242509 8.668799,4.242509" style="fill: white" /><polygon type="contour" points="8.146594,4.243105 8.196926,4.242932 8.203737,4.242932 8.307301,4.24304 8.306797,4.345348 8.307061,4.436301 8.3073,4.436301 8.307301,4.52521 8.307301,4.553901 8.203737,4.553902 8.116344,4.553902 8.0097,4.553901 8.0097,4.277877 8.00952,4.242942 8.00952,4.242941 8.009523,4.24304 8.116343,4.242932 8.118599,4.242932" style="fill: white" /><polygon type="contour" points="7.730799,4.553901 7.6475,4.553901 7.6475,4.242893 7.730799,4.242893" style="fill: white" /><polygon type="contour" points="7.730799,4.916102 7.6475,4.916102 7.6475,4.832801 7.730799,4.832801" style="fill: white" /><polygon type="contour" points="7.176625,4.832801 7.368599,4.832801 7.368599,4.916102 7.099861,4.916102 7.071,4.916618 7.071,4.832286" style="fill: white" /><polygon type="contour" points="6.70979,5.194673 6.70979,5.194594 6.758318,5.194594 6.793016,5.194519 6.793431,5.300035 6.793466,5.3018 6.793466,5.306003 6.793464,5.385101 6.793426,5.386901 6.793016,5.455466 6.793016,5.491901 6.299152,5.491901 6.238,5.491902 6.161689,5.491901 6.132998,5.491901 6.132999,5.386901 6.133001,5.311901 6.133001,5.300034 6.132998,5.222993 6.132998,5.194473 6.238,5.194926 6.299152,5.194303 6.387068,5.194303" style="fill: white" /><polygon type="contour" points="6.299152,4.832802 6.333949,4.832802 6.460786,4.832801 6.793287,4.832801 6.793287,4.916102 6.536325,4.916102 6.473657,4.917152 6.307327,4.916102 6.132998,4.916102 6.132998,4.832801 6.238,4.832801" style="fill: white" /><polygon type="contour" points="5.854098,4.553901 5.770798,4.553901 5.770798,4.242893 5.854098,4.242893" style="fill: white" /><polygon type="contour" points="5.854098,4.916102 5.770798,4.916102 5.770798,4.832801 5.854098,4.832801" style="fill: white" /><polygon type="contour" points="5.491899,4.916102 5.194471,4.916102 5.194471,4.832801 5.491899,4.832801" style="fill: white" /><polygon type="contour" points="5.374299,5.194926 5.3869,5.194926 5.491899,5.194473 5.491899,5.300034 5.4919,5.374302 5.4919,5.386901 5.491898,5.4919 5.3869,5.491901 5.194471,5.491901 5.194924,5.386902 5.1943,5.3119 5.1943,5.300034 5.194471,5.222993 5.194471,5.194473 5.300033,5.194302" style="fill: white" /><polygon type="contour" points="5.854098,5.491901 5.770798,5.491901 5.770798,5.194473 5.854098,5.194473" style="fill: white" /><polygon type="contour" points="5.854098,5.854101 5.770798,5.854101 5.770798,5.770801 5.854098,5.770801" style="fill: white" /><polygon type="contour" points="5.491899,5.854101 5.194471,5.854101 5.194471,5.770801 5.491899,5.770801" style="fill: white" /><polygon type="contour" points="5.4919,6.238003 5.491899,6.299155 5.491899,6.793018 5.386899,6.793428 5.3851,6.793465 5.380621,6.793465 5.301799,6.793467 5.300033,6.793432 5.23095,6.793018 5.194517,6.793018 5.194517,6.735525 5.194649,6.690198 5.194301,6.38707 5.194301,6.299155 5.194924,6.238002 5.194471,6.161692 5.194471,6.133001 5.300033,6.133003 5.374299,6.133001 5.491898,6.133001" style="fill: white" /><polygon type="contour" points="5.854098,6.793289 5.770798,6.793289 5.770798,6.133001 5.854098,6.133001" style="fill: white" /><polygon type="contour" points="5.4919,7.189226 5.491899,7.263601 5.491899,7.3686 5.386899,7.368601 5.300033,7.368601 5.222989,7.3686 5.194471,7.3686 5.194924,7.263602 5.194924,7.176626 5.194472,7.071001 5.300033,7.071003 5.374299,7.071628 5.386899,7.071628 5.4919,7.071001" style="fill: white" /><polygon type="contour" points="5.854098,7.176626 5.854098,7.3686 5.770798,7.3686 5.770798,7.099863 5.770283,7.071001 5.854614,7.071001" style="fill: white" /><polygon type="contour" points="5.854098,7.7308 5.770798,7.7308 5.770798,7.647501 5.854098,7.647501" style="fill: white" /><polygon type="contour" points="5.491899,7.7308 5.194471,7.7308 5.194471,7.647501 5.491899,7.647501" style="fill: white" /><polygon type="contour" points="5.4919,8.116344 5.4919,8.203739 5.491899,8.307303 5.386899,8.306677 5.311898,8.307301 5.300032,8.307301 5.22299,8.307303 5.194471,8.307303 5.194299,8.203739 5.194299,8.189701 5.1943,8.116344 5.194471,8.039244 5.194471,8.009701 5.300032,8.009703 5.3869,8.009703 5.491899,8.009701" style="fill: white" /><polygon type="contour" points="5.854098,8.307303 5.770798,8.307303 5.770798,8.009701 5.854098,8.009701" style="fill: white" /><polygon type="contour" points="5.854098,8.668801 5.770798,8.668801 5.770798,8.586201 5.854098,8.586201" style="fill: white" /><polygon type="contour" points="6.441704,8.637547 6.441969,8.668801 6.132998,8.668801 6.132998,8.586201 6.441704,8.586201" style="fill: white" /><polygon type="contour" points="6.442599,9.053327 6.442599,9.127701 6.443084,9.240539 6.443088,9.245303 6.435909,9.245303 6.299153,9.2453 6.238,9.245302 6.161689,9.245301 6.132998,9.245301 6.132999,9.140301 6.132999,9.053327 6.132998,8.976392 6.132998,8.947702 6.237999,8.948327 6.299153,8.947702 6.442625,8.947702" style="fill: white" /><polygon type="contour" points="6.443728,9.524233 6.443728,9.566201 6.443726,9.566291 6.443726,9.607501 6.132998,9.607501 6.132998,9.524201 6.443726,9.524201" style="fill: white" /><polygon type="contour" points="6.442599,9.991401 6.442446,10.183993 6.442452,10.184001 6.432778,10.184001 6.299153,10.184002 6.238,10.183376 6.161689,10.184003 6.132998,10.184003 6.132999,10.078376 6.132999,9.991401 6.132998,9.886401 6.238,9.886403 6.299152,9.886402 6.341519,9.886402 6.4153,9.886401 6.442966,9.886401" style="fill: white" /><polygon type="contour" points="6.441969,10.514247 6.441704,10.545501 6.132998,10.545501 6.132998,10.462901 6.441969,10.462901" style="fill: white" /><polygon type="contour" points="6.44115,10.927964 6.44115,11.001321 6.440735,11.110588 6.440735,11.119412 6.427604,11.119412 6.299152,11.122002 6.238,11.122001 6.16169,11.122003 6.132998,11.122003 6.132999,11.015358 6.132999,10.927963 6.132998,10.824401 6.238,10.825027 6.299152,10.824402 6.341017,10.824402 6.413711,10.824401 6.441036,10.824401" style="fill: white" /><polygon type="contour" points="6.440303,11.484203 6.132998,11.484203 6.132998,11.400901 6.238,11.400902 6.299152,11.400901 6.440303,11.400901" style="fill: white" /><polygon type="contour" points="6.412652,11.763104 6.439636,11.763104 6.439101,11.868102 6.439101,11.942475 6.439398,11.980865 6.439398,11.992731 6.439367,12.060703 6.340682,12.060702 6.299153,12.060702 6.237999,12.060076 6.161852,12.060703 6.132483,12.060703 6.132999,11.955075 6.132999,11.868102 6.132998,11.791793 6.132998,11.763104 6.237999,11.763102 6.340683,11.763102" style="fill: white" /><polygon type="contour" points="6.37387,12.338496 6.387206,12.338415 6.438343,12.338415 6.438445,12.363744 6.438384,12.421102 6.436895,12.421102 6.441117,12.690598 6.709899,12.69432 6.709898,12.693318 6.767747,12.693256 6.793287,12.693358 6.793287,12.744494 6.793206,12.757831 6.793436,12.824373 6.793333,12.832548 6.793426,12.8937 6.793016,12.962268 6.793016,12.998702 6.299153,12.998702 6.237999,12.998076 6.16169,12.998702 6.132998,12.998702 6.133625,12.893701 6.133001,12.832548 6.133001,12.744632 6.132998,12.490941 6.132999,12.490941 6.132999,12.373089 6.132998,12.338684 6.238,12.338277 6.299152,12.338369 6.307326,12.338267" style="fill: white" /><polygon type="contour" points="7.730799,14.888812 7.679018,14.888812 7.675779,14.888578 7.6475,14.888577 7.6475,14.577803 7.730799,14.577803" style="fill: white" /><polygon type="contour" points="5.854098,14.888812 5.770798,14.888812 5.770798,14.577803 5.854098,14.577803" style="fill: white" /><polygon type="contour" points="4.9161,14.888812 4.832799,14.888812 4.832799,14.577803 4.9161,14.577803" style="fill: white" /><polygon type="contour" points="5.374299,14.578427 5.3869,14.578427 5.491899,14.577803 5.491899,14.888664 5.386899,14.888703 5.3851,14.888724 5.380622,14.888724 5.301798,14.889017 5.300033,14.888982 5.216867,14.888598 5.194471,14.888664 5.194802,14.786355 5.194537,14.695403 5.194371,14.695403 5.194471,14.606492 5.194471,14.577803 5.300033,14.577803" style="fill: white" /><polygon type="contour" points="5.491899,14.298903 5.194471,14.298903 5.194471,14.215603 5.491899,14.215603" style="fill: white" /><polygon type="contour" points="5.4919,13.744801 5.4919,13.757401 5.491899,13.831668 5.491899,13.937232 5.3869,13.936776 5.374299,13.936776 5.300033,13.937401 5.222989,13.937232 5.194471,13.937232 5.1943,13.831667 5.1943,13.819801 5.194924,13.744802 5.194471,13.668492 5.194471,13.639803 5.491899,13.639803" style="fill: white" /><polygon type="contour" points="5.854098,13.937232 5.770798,13.937232 5.770798,13.639803 5.854098,13.639803" style="fill: white" /><polygon type="contour" points="5.854098,14.298903 5.770798,14.298903 5.770798,14.215603 5.854098,14.215603" style="fill: white" /><polygon type="contour" points="6.793287,14.298903 6.132998,14.298903 6.132998,14.215603 6.793287,14.215603" style="fill: white" /><polygon type="contour" points="6.70979,14.578175 6.70979,14.578095 6.758318,14.578095 6.793016,14.57802 6.793577,14.695498 6.793245,14.695498 6.793442,14.746221 6.793257,14.839691 6.793286,14.889138 6.767745,14.889019 6.640265,14.888528 6.640232,14.964616 6.640279,14.976865 6.640371,15.040722 6.640313,15.079288 6.325818,15.079289 6.307158,15.079245 6.307262,15.049966 6.307171,15.040723 6.307352,14.888552 6.237999,14.889328 6.155665,14.888673 6.132998,14.888665 6.132999,14.786356 6.132999,14.695402 6.132998,14.606492 6.132998,14.577803 6.237999,14.578427 6.299152,14.577802 6.387069,14.577802" style="fill: white" /><polygon type="contour" points="7.176624,14.578427 7.2636,14.578427 7.368599,14.577803 7.368599,14.788922 7.268799,14.788922 7.268799,14.888701 7.263599,14.888703 7.2618,14.888724 7.1785,14.888724 7.176624,14.888703 7.095066,14.888718 7.071001,14.888721 7.071503,14.786355 7.071238,14.695403 7.071001,14.695403 7.071,14.606656 7.071,14.577287" style="fill: white" /><polygon type="contour" points="7.368599,14.298903 7.071,14.298903 7.071,14.215603 7.368599,14.215603" style="fill: white" /><polygon type="contour" points="7.730799,13.937232 7.6475,13.937232 7.6475,13.639803 7.730799,13.639803" style="fill: white" /><polygon type="contour" points="7.730799,14.298903 7.6475,14.298903 7.6475,14.215603 7.730799,14.215603" style="fill: white" /><polygon type="contour" points="9.245299,14.298903 8.9477,14.298903 8.9477,14.215603 9.245299,14.215603" style="fill: white" /><polygon type="contour" points="9.245301,12.695791 9.2453,12.832548 9.245299,12.8937 9.245299,12.998702 9.140298,12.998701 9.053325,12.998701 8.97639,12.998702 8.9477,12.998702 8.948325,12.893701 8.9477,12.832548 8.9477,12.689078 9.053325,12.689101 9.127698,12.689101 9.240537,12.688617 9.245301,12.688613" style="fill: white" /><polygon type="contour" points="9.566289,12.687978 9.607499,12.687978 9.607499,12.998702 9.524199,12.998702 9.524199,12.687978 9.524231,12.687975 9.566199,12.687975" style="fill: white" /><polygon type="contour" points="9.991401,12.689101 10.183992,12.689254 10.184,12.689248 10.184,12.832548 10.183375,12.8937 10.184001,12.970012 10.184001,12.998702 10.078375,12.998701 9.991401,12.998701 9.886399,12.998702 9.886402,12.8937 9.8864,12.832548 9.8864,12.790181 9.886399,12.716402 9.886399,12.688737" style="fill: white" /><polygon type="contour" points="10.545499,12.689997 10.545499,12.998702 10.462899,12.998702 10.462899,12.689732 10.514245,12.689732" style="fill: white" /><polygon type="contour" points="11.110586,12.690968 11.11941,12.690968 11.11941,12.704098 11.122,12.832547 11.122,12.8937 11.122001,12.970012 11.122001,12.998702 10.824399,12.998702 10.825026,12.893701 10.8244,12.832547 10.8244,12.790683 10.824399,12.71799 10.824399,12.690666 10.927962,12.690552" style="fill: white" /><polygon type="contour" points="11.4842,12.998702 11.400899,12.998702 11.400899,12.691398 11.4842,12.691398" style="fill: white" /><polygon type="contour" points="11.4842,13.360903 11.400899,13.360903 11.400899,13.2776 11.4842,13.2776" style="fill: white" /><polygon type="contour" points="11.122001,13.360903 10.824399,13.360903 10.824399,13.2776 11.122001,13.2776" style="fill: white" /><polygon type="contour" points="11.122001,13.639803 11.122,13.744802 11.122,13.831667 11.122001,13.908712 11.122001,13.937232 11.015356,13.937402 10.927961,13.937402 10.824399,13.937232 10.824401,13.831667 10.824401,13.819801 10.825026,13.744802 10.824399,13.668493 10.824399,13.639803 10.927961,13.639801 11.001319,13.6398 11.015357,13.6398" style="fill: white" /><polygon type="contour" points="11.4842,13.937232 11.400899,13.937232 11.400899,13.639803 11.4842,13.639803" style="fill: white" /><polygon type="contour" points="11.4842,14.298903 11.400899,14.298903 11.400899,14.215603 11.4842,14.215603" style="fill: white" /><polygon type="contour" points="11.4842,14.888812 11.400899,14.888812 11.400899,14.577803 11.4842,14.577803" style="fill: white" /><polygon type="contour" points="11.121998,14.726603 11.122,14.726603 11.122,14.786356 11.122001,14.853825 11.122001,14.888664 11.015357,14.888772 11.0131,14.888772 10.999691,14.888599 10.955644,14.888829 10.944385,14.888598 10.929801,14.888772 10.927962,14.888772 10.824399,14.888664 10.824904,14.786355 10.824637,14.695404 10.824399,14.695402 10.824399,14.577803 11.015356,14.577803 11.122001,14.577802" style="fill: white" /><polygon type="contour" points="10.545499,14.888812 10.494153,14.888812 10.490774,14.88873 10.462899,14.88873 10.462899,14.577803 10.545499,14.577803" style="fill: white" /><polygon type="contour" points="10.184,14.683572 10.184,14.695403 10.183763,14.695404 10.183496,14.786355 10.184001,14.853824 10.184,14.888623 10.184001,14.888664 10.078376,14.888703 10.0765,14.888724 9.9932,14.888724 9.991401,14.888703 9.886399,14.888664 9.886401,14.786356 9.886401,14.695403 9.8864,14.695403 9.886399,14.606492 9.886399,14.577803 9.9914,14.578427 10.078375,14.578427 10.184001,14.577803" style="fill: white" /><polygon type="contour" points="10.184001,14.298903 9.886399,14.298903 9.886399,14.215603 10.184001,14.215603" style="fill: white" /><polygon type="contour" points="10.545499,14.298903 10.462899,14.298903 10.462899,14.215603 10.545499,14.215603" style="fill: white" /><polygon type="contour" points="10.545499,13.937232 10.462899,13.937232 10.462899,13.639803 10.545499,13.639803" style="fill: white" /><polygon type="contour" points="10.183375,13.744801 10.184,13.819801 10.184,13.831666 10.184001,13.908712 10.184001,13.937232 10.078376,13.936776 9.9914,13.936776 9.91509,13.937232 9.886399,13.937232 9.8864,13.831667 9.8864,13.819801 9.886402,13.744802 9.886399,13.668493 9.886399,13.639803 10.184001,13.639803" style="fill: white" /><polygon type="contour" points="10.545499,13.360903 10.462899,13.360903 10.462899,13.2776 10.545499,13.2776" style="fill: white" /><polygon type="contour" points="10.184001,13.360903 9.886399,13.360903 9.886399,13.2776 10.184001,13.2776" style="fill: white" /><polygon type="contour" points="9.607499,13.360903 9.524199,13.360903 9.524199,13.2776 9.607499,13.2776" style="fill: white" /><polygon type="contour" points="9.245299,13.360903 8.9477,13.360903 8.9477,13.2776 9.245299,13.2776" style="fill: white" /><polygon type="contour" points="9.245299,13.744801 9.2453,13.819802 9.2453,13.831667 9.245299,13.908712 9.245299,13.937232 9.140298,13.936776 9.053324,13.936776 8.9477,13.937232 8.9477,13.819801 8.948325,13.744801 8.9477,13.668492 8.9477,13.639803 9.245299,13.639803" style="fill: white" /><polygon type="contour" points="9.607499,13.937232 9.524199,13.937232 9.524199,13.639803 9.607499,13.639803" style="fill: white" /><polygon type="contour" points="9.607499,14.298903 9.524199,14.298903 9.524199,14.215603 9.607499,14.215603" style="fill: white" /><polygon type="contour" points="9.607499,14.888812 9.524199,14.888812 9.524199,14.577803 9.607499,14.577803" style="fill: white" /><polygon type="contour" points="9.2453,14.711068 9.2453,14.726603 9.245299,14.786355 9.245299,14.888664 9.140298,14.888703 9.138499,14.888724 9.136919,14.888713 9.104805,14.888829 9.08299,14.88891 9.0552,14.888724 9.053324,14.888703 8.9477,14.888664 8.948203,14.786356 8.947938,14.695404 8.9477,14.695403 8.9477,14.577803 9.053324,14.578427 9.127699,14.578428 9.140299,14.578428 9.245299,14.577803" style="fill: white" /><polygon type="contour" points="8.668799,14.888812 8.637546,14.888811 8.5862,14.888811 8.5862,14.577803 8.668799,14.577803" style="fill: white" /><polygon type="contour" points="8.3073,14.683572 8.3073,14.695403 8.307061,14.695403 8.306797,14.786356 8.307301,14.853825 8.307301,14.888663 8.203737,14.888772 8.201898,14.888772 8.20012,14.888792 8.168205,14.88883 8.146593,14.888599 8.118599,14.888772 8.116343,14.888772 8.0097,14.888664 8.0097,14.577803 8.307301,14.577803" style="fill: white" /><polygon type="contour" points="8.307301,14.298903 8.0097,14.298903 8.0097,14.215603 8.307301,14.215603" style="fill: white" /><polygon type="contour" points="8.668799,14.298903 8.5862,14.298903 8.5862,14.215603 8.668799,14.215603" style="fill: white" /><polygon type="contour" points="8.668799,13.937232 8.5862,13.937232 8.5862,13.639803 8.668799,13.639803" style="fill: white" /><polygon type="contour" points="8.203738,13.639801 8.278609,13.639803 8.307301,13.639803 8.306674,13.7448 8.307299,13.819802 8.307299,13.831668 8.307301,13.908711 8.307301,13.937232 8.203738,13.937402 8.116343,13.937402 8.039244,13.937232 8.0097,13.937232 8.009701,13.831666 8.009701,13.819801 8.0097,13.744801 8.0097,13.639803 8.116343,13.6398 8.130381,13.6398" style="fill: white" /><polygon type="contour" points="8.307301,13.360903 8.0097,13.360903 8.0097,13.2776 8.307301,13.2776" style="fill: white" /><polygon type="contour" points="8.668799,13.360903 8.5862,13.360903 8.5862,13.2776 8.668799,13.2776" style="fill: white" /><polygon type="contour" points="8.668799,12.998702 8.5862,12.998702 8.5862,12.689997 8.617453,12.689732 8.668799,12.689732" style="fill: white" /><polygon type="contour" points="8.284632,12.690782 8.307301,12.690666 8.3073,12.790683 8.3073,12.832547 8.306674,12.893701 8.307301,12.970012 8.307301,12.998702 8.0097,12.998702 8.0097,12.8937 8.009701,12.832548 8.009701,12.790683 8.0097,12.71799 8.0097,12.691008 8.033037,12.690916 8.116343,12.690552 8.203738,12.690552" style="fill: white" /><polygon type="contour" points="7.3686,12.791018 7.3686,12.832548 7.368599,12.8937 7.368599,12.998702 7.263599,12.998701 7.176625,12.998701 7.099861,12.998702 7.071,12.999218 7.071625,12.8937 7.071001,12.832548 7.071001,12.719129 7.071,12.692334 7.176625,12.692602 7.1785,12.692657 7.182977,12.69262 7.189225,12.692602 7.263599,12.692602 7.346066,12.69218 7.368599,12.692066" style="fill: white" /><polygon type="contour" points="7.730799,12.998702 7.6475,12.998702 7.6475,12.691398 7.730799,12.691398" style="fill: white" /><polygon type="contour" points="7.730799,13.360903 7.6475,13.360903 7.6475,13.2776 7.730799,13.2776" style="fill: white" /><polygon type="contour" points="7.368599,13.360903 7.071,13.360903 7.071,13.2776 7.368599,13.2776" style="fill: white" /><polygon type="contour" points="7.176625,13.639803 7.368599,13.639803 7.368599,13.937232 7.2636,13.936776 7.176624,13.936776 7.099862,13.937232 7.071,13.937747 7.071001,13.831667 7.071001,13.819801 7.071625,13.744801 7.071,13.668657 7.071,13.639288" style="fill: white" /><polygon type="contour" points="6.793016,13.639803 6.793426,13.744802 6.793464,13.746602 6.793466,13.825698 6.793466,13.829902 6.793431,13.831667 6.793016,13.900751 6.793016,13.937186 6.735522,13.937186 6.690333,13.937052 6.387068,13.937402 6.299153,13.937402 6.237999,13.936776 6.161689,13.937232 6.132998,13.937232 6.133001,13.831667 6.133001,13.819801 6.132999,13.744802 6.132998,13.668492 6.132998,13.639803 6.387068,13.639803 6.640467,13.639802 6.758317,13.639802" style="fill: white" /><polygon type="contour" points="6.48269,13.277601 6.640265,13.2776 6.727969,13.2776 6.793287,13.277601 6.793287,13.360903 6.299152,13.360903 6.238,13.360904 6.161689,13.360903 6.132998,13.360903 6.132998,13.2776 6.238,13.277601 6.299152,13.2776 6.460785,13.2776" style="fill: white" /><polygon type="contour" points="5.854098,12.998702 5.770798,12.998702 5.770798,12.338415 5.854098,12.338415" style="fill: white" /><polygon type="contour" points="5.854098,13.360903 5.770798,13.360903 5.770798,13.2776 5.854098,13.2776" style="fill: white" /><polygon type="contour" points="5.4919,13.297923 5.491899,13.360903 5.194471,13.360903 5.194471,13.2776 5.4919,13.2776" style="fill: white" /><polygon type="contour" points="4.9161,12.998702 4.832799,12.998702 4.832799,12.8937 4.8328,12.832548 4.8328,12.79775 4.832799,12.670915 4.832799,12.338415 4.9161,12.338415" style="fill: white" /><polygon type="contour" points="4.916101,13.329383 4.9161,13.360903 4.832799,13.360903 4.832799,13.2776 4.916101,13.2776" style="fill: white" /><polygon type="contour" points="4.385424,13.277601 4.525208,13.2776 4.553898,13.2776 4.553898,13.360903 4.242891,13.360903 4.242891,13.309119 4.242892,13.2776 4.385424,13.2776" style="fill: white" /><polygon type="contour" points="4.553275,13.744802 4.553899,13.819801 4.553899,13.831667 4.553898,13.908712 4.553898,13.937232 4.44813,13.936702 4.436298,13.936702 4.436298,13.936452 4.277876,13.937232 4.243038,13.937232 4.242718,13.831667 4.242684,13.829902 4.242684,13.825698 4.242978,13.746601 4.242999,13.744802 4.243028,13.66247 4.243038,13.639803 4.553898,13.639803" style="fill: white" /><polygon type="contour" points="4.9161,13.937232 4.832799,13.937232 4.832799,13.639803 4.9161,13.639803" style="fill: white" /><polygon type="contour" points="4.9161,14.298903 4.832799,14.298903 4.832799,14.215603 4.9161,14.215603" style="fill: white" /><polygon type="contour" points="4.553898,14.298903 4.242891,14.298903 4.242891,14.215603 4.553898,14.215603" style="fill: white" /><polygon type="contour" points="4.525208,14.577803 4.553898,14.577803 4.5539,14.695403 4.553899,14.786356 4.553898,14.853825 4.553898,14.888664 4.44813,14.889108 4.385418,14.889192 4.385507,15.079394 4.347503,15.079362 4.334824,15.079362 4.052635,15.079066 4.052635,15.001392 4.052687,14.978093 4.052458,14.746042 4.081736,14.746154 4.09098,14.746028 4.243331,14.746236 4.243029,14.60047 4.243038,14.577803 4.436298,14.577803 4.436298,14.577802" style="fill: white" />
</svg>
