<svg width="19.131698" height="19.131699">
<polygon type="contour" points="10.852714,9.686395 10.953108,9.686395 11.021109,9.686861 11.020211,9.936431 11.020084,9.978754 10.986275,9.978783 10.852792,9.978802 10.852701,10.035683 10.852855,10.117357 10.762196,10.117737 10.711079,10.117737 10.627326,10.117358 10.606113,10.117358 10.605812,10.035684 10.605812,9.978686 10.606113,9.706664 10.606115,9.625488 10.692468,9.625521 10.748311,9.625521 10.825227,9.625488 10.852714,9.625488" style="fill: white" /><polygon type="contour" points="10.831643,10.606116 10.852854,10.606116 10.852869,10.624133 10.852635,10.748474 11.020111,10.748474 11.020225,10.758919 11.028085,11.028087 10.869974,11.025239 10.751618,11.023919 10.74886,10.951256 10.748679,10.944369 10.748436,10.852724 10.697189,10.852702 10.606113,10.852857 10.606079,10.762199 10.606079,10.711081 10.606113,10.627327 10.606113,10.606116 10.697188,10.606082 10.748307,10.606082" style="fill: white" /><polygon type="contour" points="10.09784,10.606116 10.117356,10.606116 10.117735,10.69719 10.117735,10.748309 10.117356,10.831644 10.117356,10.852856 10.100547,10.852894 9.978781,10.852633 9.978781,10.986277 9.978797,11.002753 9.978797,11.020141 9.817054,11.023382 9.688532,11.023334 9.686686,10.950954 9.686293,10.944177 9.686293,10.852716 9.625302,10.852716 9.625395,10.766805 9.625395,10.711084 9.625302,10.633788 9.625302,10.606117 9.902124,10.605832 10.018856,10.605804" style="fill: white" /><polygon type="contour" points="9.425037,10.606116 9.506215,10.606117 9.506182,10.69247 9.506182,10.748313 9.506215,10.825229 9.506215,10.852716 9.445408,10.852716 9.445408,10.944178 9.443168,11.023334 9.172075,11.020143 9.152903,11.020141 9.152903,11.009593 9.152919,10.986278 9.150454,10.852789 9.096018,10.852702 9.014344,10.852857 9.013966,10.762199 9.013966,10.71108 9.014344,10.627327 9.014344,10.606116 9.096018,10.605814 9.153015,10.605814" style="fill: white" /><polygon type="contour" points="8.261725,8.106465 8.380081,8.107783 8.382839,8.180447 8.38302,8.187334 8.383263,8.278979 8.434512,8.279002 8.525584,8.278845 8.525621,8.369504 8.525621,8.420622 8.525584,8.504372 8.525584,8.525586 8.434512,8.525622 8.383393,8.525622 8.300056,8.525586 8.278843,8.525586 8.278828,8.507567 8.279065,8.38323 8.111589,8.38323 8.111475,8.372784 8.103615,8.103617" style="fill: white" /><polygon type="contour" points="9.443168,8.10837 9.445015,8.180749 9.445408,8.187525 9.445408,8.278987 9.506215,8.278987 9.506182,8.364899 9.506182,8.420619 9.506215,8.497913 9.506215,8.525584 9.229438,8.525871 9.112831,8.525899 9.033859,8.525586 9.014344,8.525586 9.013966,8.434513 9.013966,8.383396 9.014344,8.300058 9.014344,8.278845 9.031152,8.278808 9.152919,8.279069 9.152919,8.145426 9.152903,8.128951 9.152903,8.111563 9.314645,8.108322" style="fill: white" /><polygon type="contour" points="9.959624,8.111561 9.978797,8.111563 9.978797,8.122111 9.978781,8.145426 9.981245,8.278913 10.035681,8.279001 10.117356,8.278845 10.117735,8.369504 10.117735,8.420623 10.117356,8.504373 10.117356,8.525586 10.035682,8.52589 9.978684,8.52589 9.706662,8.525586 9.625302,8.525584 9.625395,8.439234 9.625395,8.383389 9.625302,8.306472 9.625302,8.278987 9.686293,8.278987 9.686293,8.187526 9.688532,8.10837" style="fill: white" /><polygon type="contour" points="11.020225,8.372784 11.020111,8.38323 10.852722,8.38323 10.8527,8.434514 10.852855,8.525586 10.762196,8.525622 10.711079,8.525622 10.627326,8.525586 10.606113,8.525586 10.606079,8.434514 10.606079,8.383395 10.606113,8.300057 10.606113,8.278845 10.62413,8.27883 10.748679,8.279067 10.748679,8.187335 10.751618,8.107783 10.869975,8.106464 11.028085,8.103617" style="fill: white" /><polygon type="contour" points="10.831643,9.014345 10.852855,9.014345 10.852892,9.031153 10.852633,9.15295 11.020084,9.15295 11.020795,9.337101 11.021109,9.444844 10.964133,9.444929 10.953109,9.445309 10.919924,9.445448 10.853898,9.445448 10.852714,9.506401 10.766803,9.506308 10.711082,9.506308 10.633785,9.506401 10.606115,9.506401 10.60583,9.229577 10.605802,9.112852 10.606113,9.03386 10.606113,9.014345 10.697189,9.013968 10.748306,9.013968" style="fill: white" /><polygon type="contour" points="10.097839,9.014345 10.117356,9.014345 10.117386,9.096019 10.117386,9.153017 10.117356,9.42504 10.117212,9.506401 10.040284,9.506632 9.978588,9.506632 9.7275,9.506401 9.625302,9.506401 9.625069,9.229577 9.625069,9.110326 9.625302,9.039762 9.625302,9.014489 9.902124,9.014426 9.98742,9.014304" style="fill: white" /><polygon type="contour" points="10.021375,9.62521 10.091938,9.625488 10.117212,9.625488 10.117277,9.902263 10.117399,9.987898 10.117356,10.097842 10.117356,10.117358 10.035682,10.117388 9.978684,10.117388 9.706662,10.117358 9.625302,10.117214 9.625069,10.040285 9.625069,9.978589 9.625302,9.727501 9.625302,9.625488 9.902124,9.62521 10.021374,9.62521 10.021374,9.625209" style="fill: white" /><polygon type="contour" points="9.404201,9.625488 9.506215,9.625488 9.506494,9.902264 9.506494,10.021376 9.506215,10.09194 9.506215,10.117214 9.229438,10.117279 9.143803,10.117401 9.033858,10.117358 9.014344,10.117358 9.014315,10.035684 9.014315,9.978686 9.014344,9.706664 9.014487,9.625488 9.091415,9.62521 9.153111,9.62521" style="fill: white" /><polygon type="contour" points="9.425038,9.014345 9.506215,9.014489 9.506494,9.091417 9.506494,9.153113 9.506215,9.404202 9.506215,9.506401 9.229438,9.506632 9.110324,9.506632 9.039761,9.506401 9.014487,9.506401 9.014424,9.229577 9.014302,9.144035 9.014344,9.033861 9.014344,9.014345 9.096018,9.014317 9.153015,9.014317" style="fill: white" /><polygon type="contour" points="8.50437,9.014345 8.525584,9.014345 8.525888,9.096019 8.525888,9.153016 8.525584,9.42504 8.525582,9.506401 8.439232,9.506308 8.383387,9.506308 8.30647,9.506401 8.278985,9.506401 8.278985,9.44531 8.178591,9.44531 8.110591,9.444844 8.111489,9.195272 8.111616,9.15295 8.145425,9.152921 8.278907,9.152901 8.278999,9.09602 8.278843,9.014345 8.369502,9.013968 8.42062,9.013968" style="fill: white" /><polygon type="contour" points="8.525869,9.902263 8.525897,10.01887 8.525584,10.097841 8.525584,10.117358 8.434512,10.117737 8.383392,10.117737 8.300056,10.117358 8.278843,10.117358 8.278806,10.100548 8.279067,9.978754 8.111615,9.978754 8.110905,9.794603 8.110591,9.686861 8.167566,9.686776 8.178591,9.686395 8.211775,9.686256 8.277791,9.686256 8.278985,9.625488 8.364897,9.625521 8.420618,9.625521 8.497911,9.625488 8.525582,9.625488" style="fill: white" /><polygon type="contour" points="8.504371,10.606116 8.525584,10.606116 8.525621,10.69719 8.525621,10.748308 8.525584,10.831643 8.525584,10.852857 8.507565,10.852872 8.383021,10.852636 8.383021,10.944368 8.380081,11.023919 8.261724,11.025239 8.103615,11.028087 8.111475,10.758919 8.111589,10.748474 8.278977,10.748474 8.279,10.69719 8.278843,10.606116 8.369502,10.606082 8.420621,10.606082" style="fill: white" />
</svg>
