<svg width="19.131698" height="19.131699">
<polygon type="contour" points="9.607499,6.988803 9.7783,6.988803 9.7783,6.785956 9.860902,6.785956 9.860902,6.988803 10.031701,6.988803 10.031701,6.785956 10.115001,6.785956 10.115001,6.988803 10.2851,6.988803 10.2851,6.785956 10.3684,6.785956 10.3684,6.988803 10.538501,6.988803 10.538501,6.785956 10.6218,6.785956 10.6218,6.988803 10.7919,6.988803 10.7919,6.785956 10.875199,6.785956 10.875199,6.988803 11.045999,6.988801 11.045999,6.785956 11.128598,6.785956 11.128598,6.988803 11.299401,6.988803 11.299401,6.785956 11.382701,6.785956 11.382701,6.988803 11.5528,6.988803 11.5528,6.785956 11.6361,6.785956 11.6361,6.988803 11.806201,6.988803 11.806201,6.785956 11.889501,6.785956 11.889501,6.988803 12.0596,6.988803 12.0596,6.785956 12.1429,6.785956 12.1429,6.988803 12.345746,6.988803 12.345746,7.072102 12.1429,7.072102 12.1429,7.242201 12.235673,7.242203 12.345746,7.242203 12.345746,7.325502 12.1429,7.325502 12.1429,7.495601 12.345746,7.495601 12.345746,7.578901 12.1429,7.578901 12.1429,7.749001 12.345746,7.749001 12.345746,7.810827 12.345747,7.832301 12.1429,7.832301 12.1429,8.0031 12.345746,8.0031 12.345746,8.085701 12.1429,8.085701 12.1429,8.256503 12.345746,8.256503 12.345746,8.339802 12.1429,8.339802 12.1429,8.509903 12.345746,8.509903 12.345748,8.571729 12.345748,8.593203 12.1429,8.593203 12.1429,8.763303 12.345746,8.763303 12.345746,8.846602 12.1429,8.846602 12.1429,9.016702 12.345746,9.016702 12.345746,9.100001 12.1429,9.100001 12.1429,9.270802 12.345746,9.270802 12.345746,9.353401 12.1429,9.353401 12.1429,9.524201 12.345746,9.524201 12.345746,9.586027 12.345891,9.607501 12.1429,9.607501 12.1429,9.778303 12.345746,9.778303 12.345746,9.860903 12.1429,9.860903 12.1429,10.031703 12.345746,10.031703 12.345746,10.115003 12.1429,10.115003 12.1429,10.285102 12.345746,10.285102 12.345746,10.368402 12.1429,10.368402 12.1429,10.538502 12.345746,10.538502 12.345746,10.621801 12.1429,10.621801 12.1429,10.791902 12.345746,10.791902 12.345746,10.875201 12.1429,10.875201 12.1429,11.046 12.345746,11.046 12.345746,11.128601 12.1429,11.128601 12.1429,11.299403 12.345746,11.299403 12.345746,11.382703 12.1429,11.382703 12.1429,11.552803 12.345746,11.552803 12.345746,11.636103 12.1429,11.636103 12.1429,11.806202 12.345746,11.806202 12.345746,11.889502 12.1429,11.889502 12.1429,12.059602 12.345746,12.059602 12.345746,12.142901 12.1429,12.142901 12.1429,12.345748 12.0596,12.345748 12.0596,12.142901 11.889501,12.142901 11.889501,12.345748 11.806201,12.345748 11.806201,12.142901 11.6361,12.142901 11.6361,12.345748 11.5528,12.345748 11.5528,12.142901 11.382701,12.142901 11.382701,12.345748 11.299401,12.345748 11.299401,12.142901 11.128598,12.142901 11.128598,12.345748 11.045999,12.345748 11.045999,12.142901 10.875199,12.142901 10.875199,12.345748 10.7919,12.345748 10.7919,12.142901 10.6218,12.142901 10.6218,12.345748 10.538501,12.345748 10.538501,12.142901 10.3684,12.142901 10.3684,12.345748 10.2851,12.345748 10.2851,12.142901 10.115001,12.142901 10.115001,12.345748 10.031701,12.345748 10.031701,12.142901 9.860902,12.142901 9.860902,12.345748 9.7783,12.345748 9.7783,12.142901 9.607499,12.142901 9.607499,12.345748 9.545671,12.345748 9.524199,12.345892 9.524199,12.142901 9.3534,12.142901 9.3534,12.345748 9.270799,12.345748 9.270799,12.142901 9.099999,12.142901 9.099999,12.345748 9.0167,12.345748 9.0167,12.1429 8.846601,12.142902 8.846601,12.345748 8.763301,12.345748 8.763301,12.142901 8.5932,12.142901 8.5932,12.345748 8.5099,12.345748 8.5099,12.142901 8.339801,12.142901 8.339801,12.345748 8.256501,12.345748 8.256501,12.142901 8.085698,12.142901 8.085698,12.345748 8.003098,12.345748 8.003098,12.142901 7.832299,12.142901 7.832299,12.345748 7.748999,12.345748 7.748999,12.142901 7.5789,12.142901 7.5789,12.345748 7.4956,12.345748 7.4956,12.142901 7.325499,12.142901 7.325499,12.345748 7.2422,12.345748 7.2422,12.142901 7.0721,12.142901 7.0721,12.345748 6.988801,12.345748 6.988801,12.142901 6.785953,12.142901 6.785953,12.059602 6.988801,12.059602 6.988801,11.889502 6.785953,11.889502 6.785953,11.806202 6.988801,11.806202 6.988801,11.636103 6.785953,11.636103 6.785953,11.552803 6.988801,11.552803 6.988801,11.382703 6.785953,11.382703 6.785953,11.299403 6.988801,11.299403 6.988801,11.128601 6.785953,11.128601 6.785953,11.046 6.988801,11.046 6.988801,10.875201 6.785953,10.875201 6.785953,10.791902 6.988801,10.791902 6.988801,10.621801 6.785953,10.621801 6.785953,10.538502 6.988801,10.538502 6.988801,10.368402 6.785953,10.368402 6.785953,10.285102 6.988801,10.285102 6.988801,10.115003 6.785953,10.115003 6.785953,10.031703 6.988801,10.031703 6.988801,9.860903 6.785953,9.860903 6.785953,9.778303 6.988801,9.778303 6.988801,9.607501 6.785953,9.607501 6.785953,9.545673 6.785809,9.524201 6.988801,9.524201 6.988801,9.353401 6.785953,9.353401 6.785953,9.270802 6.988801,9.270802 6.988801,9.100001 6.785953,9.100001 6.785953,9.016702 6.988801,9.016702 6.988801,8.846602 6.785953,8.846602 6.785953,8.763303 6.988801,8.763303 6.988801,8.593203 6.785953,8.593203 6.785953,8.509903 6.988801,8.509903 6.988801,8.339802 6.785953,8.339802 6.785953,8.256503 6.988801,8.256503 6.988801,8.085701 6.785953,8.085701 6.785953,8.0031 6.988801,8.0031 6.988801,7.832301 6.785953,7.832301 6.785953,7.749001 6.988801,7.749001 6.988801,7.578901 6.785953,7.578901 6.785953,7.495601 6.896026,7.495602 6.988801,7.4956 6.988801,7.325502 6.785953,7.325502 6.785953,7.242202 6.988801,7.242202 6.988801,7.072102 6.785953,7.072102 6.785953,6.988803 6.988801,6.988803 6.988801,6.785956 7.0721,6.785956 7.0721,6.988803 7.2422,6.988803 7.2422,6.785956 7.325499,6.785956 7.325499,6.988803 7.4956,6.988803 7.4956,6.785956 7.5789,6.785956 7.5789,6.988803 7.748999,6.988803 7.748999,6.785956 7.832299,6.785956 7.832299,6.988803 8.003098,6.988803 8.003098,6.785956 8.085698,6.785956 8.085698,6.988803 8.256501,6.988803 8.256501,6.785956 8.339801,6.785956 8.339801,6.988803 8.5099,6.988803 8.5099,6.785956 8.5932,6.785956 8.5932,6.988803 8.763301,6.988803 8.763301,6.785956 8.846601,6.785956 8.846601,6.988803 9.0167,6.988803 9.0167,6.785956 9.099999,6.785956 9.099999,6.988803 9.270799,6.988803 9.270799,6.785956 9.3534,6.785956 9.3534,6.988803 9.524199,6.988803 9.524199,6.785956 9.586026,6.785956 9.607499,6.785812" style="fill: white" />
</svg>
