<svg width="19.131698" height="19.131699">
<polygon type="contour" points="8.61185,8.532918 8.644534,8.533855 8.646536,8.534082 8.822719,8.532351 8.825492,8.598832 8.825492,8.702536 8.945835,8.702032 9.002778,8.701783 9.002778,8.758412 9.002824,8.826355 9.002824,8.945837 9.002778,9.002781 8.959586,9.002781 8.908322,9.002827 8.777169,9.002827 8.701782,9.002781 8.702031,8.945837 8.702532,8.825958 8.624602,8.825958 8.579393,8.826015 8.535455,8.826015 8.535524,8.772011 8.535119,8.726664 8.533563,8.631752 8.530558,8.53056" style="fill: white" /><polygon type="contour" points="9.889476,10.128923 9.889476,10.172114 9.889527,10.223378 9.889527,10.354532 9.889476,10.429921 9.830968,10.430054 9.711101,10.429653 9.711101,10.596256 9.683965,10.596387 9.661259,10.596999 9.61382,10.599055 9.565682,10.599912 9.470202,10.596999 9.447606,10.596387 9.4206,10.596171 9.4206,10.429653 9.300732,10.430054 9.242224,10.429921 9.242224,10.373292 9.242173,10.305349 9.242173,10.185867 9.242224,10.128923 9.286373,10.128923 9.338847,10.128906 9.830968,10.128906" style="fill: white" /><polygon type="contour" points="10.429918,10.128923 10.429668,10.185867 10.429164,10.305747 10.507097,10.305747 10.552307,10.30569 10.596245,10.30569 10.596177,10.359693 10.59658,10.405039 10.598138,10.499951 10.601142,10.601144 10.519849,10.598785 10.487166,10.59785 10.485164,10.597623 10.308982,10.599354 10.306209,10.532871 10.306209,10.429164 10.185864,10.429671 10.128922,10.429921 10.128922,10.373292 10.128876,10.305349 10.128876,10.185867 10.128922,10.128923 10.172113,10.128923 10.223377,10.128877 10.35453,10.128877" style="fill: white" /><polygon type="contour" points="10.429918,9.242226 10.430052,9.300734 10.429651,9.420602 10.598936,9.420602 10.598771,9.455397 10.6005,9.56602 10.598771,9.676138 10.598936,9.711102 10.429651,9.711102 10.430052,9.830969 10.429918,9.889478 10.37329,9.889478 10.305347,9.889528 10.185864,9.889528 10.128922,9.889478 10.128922,9.845327 10.128904,9.792855 10.128904,9.300734 10.128922,9.242226 10.172112,9.242226 10.223377,9.242176 10.35453,9.242176" style="fill: white" /><polygon type="contour" points="10.598138,8.631752 10.59658,8.726664 10.596177,8.77201 10.596245,8.826015 10.552307,8.826015 10.507097,8.825958 10.429164,8.825958 10.429669,8.945838 10.429918,9.002781 10.373289,9.002781 10.305347,9.002827 10.185865,9.002827 10.128922,9.002781 10.128922,8.959589 10.128876,8.908325 10.128876,8.777172 10.128922,8.701783 10.185865,8.702033 10.30614,8.702536 10.306209,8.598833 10.306969,8.592231 10.308982,8.532351 10.485163,8.534082 10.487165,8.533855 10.519849,8.532918 10.601142,8.53056" style="fill: white" /><polygon type="contour" points="9.66126,8.534706 9.683964,8.535317 9.711101,8.535448 9.711101,8.702046 9.830967,8.701649 9.889476,8.701783 9.889476,8.758412 9.889527,8.826355 9.889527,8.945837 9.889475,9.002781 9.845325,9.002781 9.792854,9.002798 9.300732,9.002798 9.242224,9.002781 9.242224,8.95959 9.242173,8.908326 9.242173,8.777172 9.242224,8.701783 9.300732,8.701649 9.4206,8.702046 9.4206,8.535448 9.447606,8.535317 9.470202,8.534705 9.517414,8.532649 9.5655,8.531789" style="fill: white" /><polygon type="contour" points="9.4206,9.242284 9.4206,9.242249 9.830968,9.242249 9.889476,9.242226 9.889476,9.286374 9.889417,9.420602 9.889453,9.420602 9.889453,9.830969 9.889476,9.889478 9.845326,9.889478 9.711101,9.889419 9.711101,9.889455 9.300732,9.889455 9.242224,9.889478 9.242224,9.845328 9.242282,9.711102 9.242247,9.711102 9.242247,9.300734 9.242224,9.242226 9.286372,9.242226" style="fill: white" /><polygon type="contour" points="9.002778,9.242226 9.002778,9.286375 9.002796,9.338848 9.002796,9.830968 9.002778,9.889478 8.959587,9.889478 8.908323,9.889528 8.777169,9.889528 8.701782,9.889478 8.701647,9.830969 8.702044,9.711102 8.532764,9.711102 8.532928,9.676306 8.5312,9.565683 8.532928,9.455565 8.532764,9.420602 8.702044,9.420602 8.701647,9.300734 8.701782,9.242226 8.758409,9.242226 8.826353,9.242176 8.945835,9.242176" style="fill: white" /><polygon type="contour" points="9.002778,10.128923 9.002778,10.172115 9.002824,10.223379 9.002824,10.354532 9.002778,10.429921 8.945834,10.42967 8.82556,10.429164 8.825492,10.53287 8.824729,10.539469 8.822719,10.599354 8.646536,10.597623 8.644534,10.59785 8.61185,10.598785 8.530558,10.601144 8.533562,10.499951 8.535119,10.405039 8.535524,10.359693 8.535455,10.30569 8.579393,10.30569 8.624602,10.305747 8.702532,10.305747 8.702031,10.185867 8.701782,10.128923 8.75841,10.128923 8.826352,10.128877 8.945834,10.128877" style="fill: white" />
</svg>
