<svg width="19.131698" height="19.131699">
<polygon type="contour" points="10.847794,10.644524 10.857415,10.644524 10.857422,10.652695 10.857232,10.752946 11.024548,10.752946 11.024559,10.753913 11.032699,11.032701 10.881464,11.029977 10.75628,11.028581 10.753362,10.951726 10.753172,10.944442 10.75294,10.857231 10.644521,10.857417 10.644482,10.751756 10.644521,10.654144 10.644521,10.644524 10.750668,10.644485" style="fill: white" /><polygon type="contour" points="9.991725,10.644177 10.079293,10.644524 10.088144,10.644524 10.088585,10.750669 10.088144,10.847795 10.088144,10.857417 10.08052,10.857434 9.983572,10.857226 9.983572,11.017665 9.983576,11.021025 9.983576,11.024569 9.813168,11.027983 9.693416,11.027938 9.691467,10.951511 9.691052,10.944356 9.691052,10.857352 9.636996,10.857352 9.637106,10.754643 9.637106,10.749484 9.636996,10.657073 9.636996,10.644525 9.988031,10.644163" style="fill: white" /><polygon type="contour" points="9.457805,10.644524 9.494622,10.644525 9.494583,10.747762 9.494583,10.75293 9.494622,10.844885 9.494622,10.857352 9.440649,10.857352 9.440649,10.944356 9.438284,11.027938 9.152032,11.024569 9.148124,11.024569 9.148124,11.022419 9.148128,11.017665 9.145165,10.857223 9.043555,10.857417 9.043115,10.751756 9.043555,10.654145 9.043555,10.644524 9.139212,10.64417 9.139444,10.64417" style="fill: white" /><polygon type="contour" points="8.477553,9.043556 8.487176,9.043556 8.487531,9.139214 8.487531,9.139446 8.487176,9.457807 8.487175,9.494707 8.38394,9.494597 8.37877,9.494597 8.286813,9.494707 8.274347,9.494707 8.274347,9.440605 8.183294,9.440605 8.106101,9.440077 8.107119,9.156762 8.107146,9.148135 8.114036,9.14813 8.274483,9.148106 8.274283,9.043556 8.379945,9.043117" style="fill: white" /><polygon type="contour" points="8.250235,8.101728 8.375419,8.103121 8.378337,8.179977 8.378528,8.187261 8.378759,8.274472 8.487176,8.274285 8.487217,8.379947 8.487217,8.382219 8.487176,8.477556 8.487176,8.487177 8.381032,8.487218 8.283903,8.487177 8.274283,8.487177 8.274276,8.479005 8.274467,8.378758 8.107152,8.378758 8.107142,8.377792 8.099001,8.099003" style="fill: white" /><polygon type="contour" points="9.438284,8.103766 9.440233,8.180192 9.440649,8.187349 9.440649,8.274349 9.494622,8.274349 9.494583,8.377061 9.494583,8.382219 9.494622,8.474627 9.494622,8.487177 9.143658,8.48754 9.139971,8.487526 9.052407,8.487177 9.043555,8.487177 9.043115,8.381034 9.043126,8.378774 9.043555,8.283906 9.043555,8.274285 9.051179,8.274268 9.148128,8.274477 9.148128,8.114038 9.148124,8.110679 9.148124,8.107136 9.318533,8.103721" style="fill: white" /><polygon type="contour" points="9.979667,8.107136 9.983576,8.107136 9.983576,8.109286 9.983572,8.114038 9.986534,8.274479 10.088144,8.274285 10.088585,8.379947 10.088575,8.382219 10.088144,8.477556 10.088144,8.487177 9.992487,8.487534 9.992255,8.487533 9.673895,8.487177 9.636996,8.487177 9.637106,8.383942 9.637106,8.378772 9.636996,8.286815 9.636996,8.274349 9.691052,8.274349 9.691052,8.187349 9.693416,8.103766" style="fill: white" /><polygon type="contour" points="11.024559,8.377792 11.024548,8.378758 10.857229,8.378758 10.857415,8.487177 10.751754,8.487218 10.749482,8.487218 10.654141,8.487177 10.644521,8.487177 10.644482,8.381034 10.644521,8.283905 10.644521,8.274285 10.652692,8.274278 10.753172,8.27447 10.753172,8.187262 10.75628,8.103121 10.881464,8.101727 11.032699,8.099003" style="fill: white" /><polygon type="contour" points="10.752929,9.043128 10.847794,9.043556 10.857415,9.043556 10.857432,9.051179 10.857225,9.148135 11.024555,9.148135 11.025344,9.352926 11.025598,9.440077 10.960919,9.440173 10.948405,9.440604 10.933354,9.440668 10.858401,9.440668 10.85735,9.494707 10.754641,9.494597 10.749482,9.494597 10.65707,9.494707 10.644522,9.494707 10.644161,9.143668 10.644521,9.052408 10.644521,9.043556 10.750667,9.043117" style="fill: white" /><polygon type="contour" points="10.857351,9.6911 10.948405,9.6911 11.025599,9.691628 11.024581,9.974941 11.024554,9.983569 11.017662,9.983574 10.857217,9.983597 10.857415,10.088146 10.751754,10.088587 10.654142,10.088146 10.644521,10.088146 10.644168,9.992489 10.644168,9.992257 10.644521,9.673897 10.644522,9.637081 10.74776,9.63712 10.752928,9.63712 10.844883,9.637081 10.857351,9.637081" style="fill: white" /><polygon type="contour" points="10.076616,9.637081 10.088079,9.637081 10.088161,9.992257 10.088178,9.992256 10.088144,10.079294 10.088144,10.088146 9.992487,10.08818 9.992255,10.08818 9.673895,10.088145 9.636996,10.088081 9.636708,9.99316 9.636708,9.992256 9.636996,9.683348 9.636996,9.637081 9.987316,9.636728" style="fill: white" /><polygon type="contour" points="10.079292,9.043556 10.088144,9.043556 10.088178,9.139214 10.088178,9.148148 10.088143,9.457807 10.088079,9.494707 9.993158,9.494992 9.983533,9.494984 9.683346,9.494707 9.636996,9.494707 9.6367,9.144385 9.636996,9.055083 9.636996,9.043622 9.992255,9.043541 9.992255,9.043525" style="fill: white" /><polygon type="contour" points="9.457805,9.043556 9.494622,9.043622 9.494966,9.138543 9.494965,9.139448 9.494622,9.448355 9.494622,9.494707 9.144378,9.495 9.055082,9.494707 9.04362,9.494707 9.043539,9.139446 9.043522,9.139446 9.043555,9.052407 9.043555,9.043556 9.139212,9.043524 9.139445,9.043524" style="fill: white" /><polygon type="contour" points="9.148166,9.636748 9.148167,9.636748 9.448354,9.637081 9.494622,9.637081 9.494975,9.987323 9.494622,10.076617 9.494622,10.088081 9.139444,10.088163 9.139445,10.08818 9.052407,10.088146 9.043555,10.088146 9.043522,9.992489 9.043523,9.983555 9.043523,9.983554 9.043554,9.673898 9.043621,9.637081 9.138541,9.636737" style="fill: white" /><polygon type="contour" points="8.487538,9.988033 8.487176,10.079294 8.487176,10.088146 8.381032,10.088587 8.378772,10.088577 8.378771,10.088577 8.283904,10.088146 8.274283,10.088146 8.274266,10.080522 8.274474,9.983569 8.107146,9.983569 8.106354,9.778776 8.106101,9.691628 8.17078,9.691531 8.183294,9.6911 8.198345,9.691037 8.273289,9.691037 8.274347,9.637081 8.377059,9.63712 8.382217,9.63712 8.474625,9.637081 8.487175,9.637081" style="fill: white" /><polygon type="contour" points="8.477554,10.644524 8.487176,10.644524 8.487217,10.750669 8.487176,10.847796 8.487176,10.857417 8.479003,10.857424 8.378529,10.857234 8.378529,10.944442 8.375419,11.028581 8.250235,11.029977 8.099001,11.032701 8.107142,10.753912 8.107152,10.752946 8.27447,10.752946 8.274283,10.644524 8.379945,10.644485" style="fill: white" />
</svg>
