<svg width="19.131698" height="19.131699">
<polygon type="contour" points="9.206621,9.162006 9.206621,9.206867 9.11963,9.206936 9.078834,9.206936 9.078834,9.119855 9.079151,9.079152 9.119629,9.078836 9.20671,9.078836" style="fill: white" /><polygon type="contour" points="7.728073,7.556113 7.853859,7.565662 7.853859,7.734025 7.972634,7.734219 8.047206,7.734029 8.047276,7.818617 8.047276,7.940177 8.047206,8.008386 8.047206,8.047207 7.972633,8.047277 7.854468,8.047277 7.776906,8.047207 7.734026,8.047207 7.733946,8.013967 7.734418,7.853985 7.649269,7.85327 7.583856,7.852481 7.583279,7.852338 7.563636,7.852186 7.563686,7.790184 7.554752,7.554754" style="fill: white" /><polygon type="contour" points="8.008384,8.44662 8.047206,8.44662 8.047322,8.511121 8.047322,8.54147 8.04728,8.541469 8.047408,8.83222 8.047408,8.929586 7.972634,8.929796 7.940084,8.929722 7.940084,8.929577 7.767549,8.929029 7.684236,8.928864 7.564922,8.928864 7.565086,8.841443 7.565335,8.635321 7.734247,8.635321 7.734431,8.511121 7.734026,8.44662 7.818615,8.446342 7.940174,8.446342" style="fill: white" /><polygon type="contour" points="8.016851,9.079152 8.047408,9.079003 8.047206,9.160619 8.047206,9.207051 7.972633,9.206992 7.854392,9.206434 7.854392,9.206839 7.775324,9.206867 7.73414,9.206867 7.733962,9.16723 7.734163,9.079152 7.767557,9.079152 7.899822,9.07895" style="fill: white" /><polygon type="contour" points="8.541559,9.078686 8.846191,9.079152 8.929477,9.079152 8.929477,9.170878 8.929549,9.206936 8.726877,9.206157 8.636072,9.206157 8.636072,9.20507 8.479836,9.206867 8.446619,9.207051 8.446293,9.121526 8.446293,9.079003 8.511121,9.078707 8.541559,9.078635" style="fill: white" /><polygon type="contour" points="8.929883,8.511121 8.929809,8.515921 8.929365,8.528563 8.929764,8.541559 8.92947,8.541559 8.928985,8.841442 8.928862,8.928864 8.842227,8.929027 8.541559,8.929511 8.541559,8.929765 8.473393,8.929443 8.446293,8.929586 8.446493,8.7303 8.446493,8.541469 8.446619,8.480872 8.446619,8.44662 8.511121,8.446495 8.541469,8.446495 8.541469,8.446591 8.832218,8.446295 8.929584,8.446295" style="fill: white" /><polygon type="contour" points="9.160617,8.44662 9.207049,8.44662 9.20633,8.511121 9.20473,8.63607 9.20594,8.636073 9.20671,8.835632 9.20671,8.929552 9.11963,8.929552 9.079151,8.929479 9.07883,8.716374 9.07883,8.541559 9.078634,8.541559 9.078947,8.473395 9.079001,8.446295" style="fill: white" /><polygon type="contour" points="8.928489,7.564485 8.928238,7.629153 8.928946,7.635241 8.928946,7.705104 8.928955,7.708431 8.929286,7.8161 8.929535,7.940087 8.929719,7.940087 8.929795,7.972635 8.929584,8.047409 8.730299,8.047324 8.541468,8.047324 8.480871,8.047207 8.446619,8.047207 8.446341,7.972635 8.446341,7.854471 8.446619,7.776908 8.446619,7.734029 8.476421,7.733947 8.63543,7.735023 8.63543,7.644503 8.635411,7.604601 8.635411,7.565251 8.860805,7.564259" style="fill: white" /><polygon type="contour" points="9.206621,7.734143 9.206634,7.820069 9.206634,7.940007 9.206621,8.009494 9.207049,8.047207 9.121525,8.047409 9.079001,8.047409 9.07889,7.972635 9.079358,7.854302 9.078956,7.854301 9.07908,7.767664 9.079151,7.734165 9.167228,7.733964" style="fill: white" /><polygon type="contour" points="10.052549,7.734165 10.052619,7.767664 10.052744,7.854301 10.05211,7.854301 10.052866,7.967848 10.052809,7.972635 10.0527,8.047409 9.971083,8.047207 9.924652,8.047207 9.924709,7.972635 9.925267,7.854393 9.924863,7.854395 9.924836,7.775327 9.924836,7.734143 9.964473,7.733964" style="fill: white" /><polygon type="contour" points="10.453974,7.565381 10.49629,7.565251 10.49629,7.588627 10.496269,7.644504 10.496298,7.734249 10.620578,7.734433 10.685082,7.734029 10.685359,7.818617 10.685359,7.940178 10.685082,8.008387 10.685082,8.047207 10.620579,8.047324 10.590231,8.047324 10.590232,8.047282 10.299481,8.047409 10.202116,8.047409 10.201903,7.972635 10.202019,7.967848 10.202455,7.953974 10.201977,7.940087 10.202063,7.940087 10.202607,7.767367 10.202744,7.708431 10.202753,7.635241 10.203211,7.564485" style="fill: white" /><polygon type="contour" points="11.576764,7.722974 11.568076,7.852176 11.547841,7.85248 11.48243,7.85327 11.397676,7.853982 11.397483,7.972636 11.397674,8.047207 11.313084,8.047277 11.191525,8.047277 11.123315,8.047207 11.084493,8.047207 11.084424,7.972635 11.084424,7.854471 11.084423,7.854471 11.084493,7.776909 11.084493,7.734029 11.117732,7.733948 11.277841,7.73442 11.277841,7.565662 11.310308,7.565539 11.576949,7.554754" style="fill: white" /><polygon type="contour" points="11.354794,8.44662 11.397674,8.44662 11.397756,8.476422 11.39668,8.635321 11.566366,8.635321 11.566614,8.841443 11.566778,8.928864 11.447464,8.928864 11.364151,8.929029 11.191616,8.929577 11.191616,8.929722 11.114506,8.929488 11.084292,8.929586 11.084378,8.7303 11.084378,8.541469 11.084493,8.480873 11.084493,8.44662 11.159066,8.446342 11.277231,8.446342" style="fill: white" /><polygon type="contour" points="11.277325,9.079356 11.277326,9.07902 11.364143,9.079152 11.397536,9.079152 11.397738,9.16723 11.397561,9.206867 11.311634,9.206839 11.277308,9.206839 11.277308,9.206804 11.122206,9.206867 11.084493,9.207051 11.084292,9.121526 11.084292,9.079003 11.159066,9.078892" style="fill: white" /><polygon type="contour" points="10.658305,9.078949 10.685407,9.079003 10.685082,9.160619 10.685082,9.207051 10.620578,9.206332 10.495629,9.205614 10.495628,9.206156 10.296069,9.206936 10.202151,9.206936 10.202151,9.119854 10.202223,9.079152 10.285508,9.079152 10.590141,9.078686 10.590141,9.078634" style="fill: white" /><polygon type="contour" points="10.401401,8.446495 10.590231,8.446495 10.590231,8.446494 10.650828,8.44662 10.685082,8.44662 10.685207,8.511121 10.685207,8.54147 10.68511,8.54147 10.685407,8.83222 10.685407,8.929585 10.620578,8.929884 10.590142,8.929765 10.590142,8.929471 10.290258,8.928985 10.202837,8.928864 10.202497,8.718306 10.202249,8.541559 10.201936,8.541559 10.20226,8.473396 10.202116,8.446295" style="fill: white" /><polygon type="contour" points="10.052994,8.511121 10.053066,8.541559 10.053014,8.541559 10.052549,8.846195 10.052549,8.929479 9.960825,8.929479 9.924767,8.929552 9.925545,8.726878 9.925545,8.636073 9.926629,8.636073 9.924836,8.479837 9.924652,8.44662 10.010175,8.446295 10.0527,8.446295" style="fill: white" /><polygon type="contour" points="10.052549,9.079152 10.052866,9.119855 10.052866,9.206936 9.969696,9.206867 9.924836,9.206867 9.924767,9.119855 9.924767,9.078836 10.011846,9.078836" style="fill: white" /><polygon type="contour" points="10.052866,10.012072 10.052549,10.052552 10.011846,10.052868 9.924767,10.052868 9.924836,9.969698 9.924836,9.925082 10.011847,9.924993 10.052866,9.924993" style="fill: white" /><polygon type="contour" points="10.052549,10.202225 10.05287,10.415329 10.05287,10.590144 10.053066,10.590144 10.052753,10.658308 10.0527,10.685409 9.971083,10.685084 9.924652,10.685084 9.92537,10.620581 9.926087,10.495632 9.925544,10.49563 9.924767,10.296071 9.924767,10.202152 10.011847,10.202152" style="fill: white" /><polygon type="contour" points="11.354793,11.084495 11.397674,11.084495 11.397754,11.117734 11.397281,11.277718 11.48243,11.278433 11.547841,11.279223 11.548419,11.279365 11.568063,11.279517 11.568012,11.341519 11.576949,11.57695 11.403626,11.57559 11.277841,11.566042 11.277841,11.397682 11.159066,11.397485 11.084493,11.397675 11.084424,11.313085 11.084424,11.191525 11.084493,11.123315 11.084493,11.084495 11.159065,11.084427 11.277231,11.084427" style="fill: white" /><polygon type="contour" points="11.191616,10.20198 11.191616,10.202121 11.36415,10.202675 11.447464,10.202839 11.566778,10.202839 11.566613,10.290261 11.566366,10.496383 11.397456,10.496383 11.397269,10.620582 11.397674,10.685084 11.313084,10.685362 11.191525,10.685362 11.123315,10.685084 11.084493,10.685084 11.084378,10.620581 11.084378,10.590235 11.084419,10.590235 11.084292,10.299483 11.084292,10.202118 11.159065,10.201906" style="fill: white" /><polygon type="contour" points="11.159065,9.924711 11.277308,9.926008 11.277308,9.925069 11.356376,9.925082 11.397561,9.925082 11.397738,9.964475 11.397537,10.052552 11.364143,10.052552 11.231877,10.052753 11.114848,10.052552 11.084292,10.052701 11.084493,9.971086 11.084493,9.924654" style="fill: white" /><polygon type="contour" points="10.685407,10.010177 10.685407,10.052701 10.620579,10.052996 10.590142,10.053069 10.590142,10.053017 10.285508,10.052552 10.202223,10.052552 10.202223,9.960826 10.202151,9.924993 10.404824,9.925764 10.495628,9.925764 10.495628,9.926807 10.651864,9.925082 10.685082,9.924654" style="fill: white" /><polygon type="contour" points="10.658306,10.202261 10.685407,10.202118 10.685207,10.401403 10.685207,10.590234 10.685082,10.65083 10.685082,10.685084 10.620579,10.685209 10.590232,10.685209 10.590232,10.685112 10.299481,10.685409 10.202116,10.685409 10.20226,10.658307 10.201936,10.590145 10.202228,10.590145 10.202716,10.29026 10.202837,10.202839 10.289473,10.202674 10.590142,10.202191 10.590142,10.201939" style="fill: white" /><polygon type="contour" points="10.401401,11.08438 10.590231,11.08438 10.650828,11.084495 10.685082,11.084495 10.685359,11.159067 10.685359,11.277232 10.685082,11.354795 10.685082,11.397675 10.655279,11.397757 10.49627,11.39668 10.49627,11.4872 10.49629,11.527103 10.49629,11.566454 10.270895,11.567445 10.203211,11.56722 10.203462,11.502551 10.202753,11.496463 10.202753,11.4266 10.202744,11.423272 10.202411,11.315604 10.202161,11.191617 10.201977,11.191617 10.202213,11.114509 10.202115,11.084295" style="fill: white" /><polygon type="contour" points="10.05281,11.159067 10.052342,11.277326 10.052681,11.277327 10.052549,11.364145 10.052549,11.397539 9.964472,11.39774 9.924836,11.397562 9.924863,11.311634 9.924864,11.277309 9.924896,11.277309 9.924836,11.122206 9.924652,11.084495 10.010174,11.084295 10.0527,11.084295" style="fill: white" /><polygon type="contour" points="8.929485,11.114508 8.929719,11.191617 8.929535,11.191617 8.929286,11.315604 8.928956,11.423273 8.928946,11.496462 8.928489,11.56722 8.677727,11.566323 8.635411,11.566454 8.635411,11.543078 8.63543,11.487199 8.635401,11.397454 8.511122,11.39727 8.446619,11.397674 8.446341,11.313085 8.446341,11.191525 8.446619,11.123316 8.446619,11.084495 8.511121,11.08438 8.541469,11.08438 8.541468,11.084421 8.832218,11.084295 8.929584,11.084295" style="fill: white" /><polygon type="contour" points="9.160617,11.084495 9.207049,11.084495 9.206991,11.159067 9.205697,11.277309 9.206634,11.277309 9.206621,11.356377 9.206621,11.397562 9.167227,11.39774 9.079151,11.397539 9.07908,11.364039 9.078956,11.277402 9.079589,11.277401 9.078834,11.163854 9.078889,11.159068 9.079001,11.084295" style="fill: white" /><polygon type="contour" points="9.20594,10.404826 9.20594,10.495631 9.204897,10.495631 9.206621,10.651867 9.207049,10.685083 9.121524,10.685409 9.079001,10.685409 9.078706,10.620582 9.078634,10.590145 9.078685,10.590145 9.079151,10.285508 9.079151,10.202225 9.170875,10.202225 9.20671,10.202152" style="fill: white" /><polygon type="contour" points="9.162004,9.925082 9.206621,9.925082 9.20671,10.012072 9.20671,10.052868 9.119629,10.052868 9.079151,10.052552 9.078834,10.012072 9.078834,9.924993" style="fill: white" /><polygon type="contour" points="8.541559,10.201939 8.541559,10.202232 8.841441,10.202718 8.928862,10.202839 8.929202,10.413396 8.92945,10.590145 8.929764,10.590145 8.92944,10.658308 8.929584,10.685409 8.730299,10.685209 8.541469,10.685209 8.480872,10.685084 8.446619,10.685084 8.446493,10.620582 8.446493,10.590235 8.446589,10.590235 8.446293,10.299483 8.446293,10.202118 8.511122,10.20182" style="fill: white" /><polygon type="contour" points="8.511121,9.925372 8.636069,9.926976 8.636071,9.925764 8.83563,9.924993 8.929549,9.924993 8.929549,10.012073 8.929477,10.052552 8.716373,10.052873 8.541559,10.052873 8.541559,10.053069 8.473393,10.052754 8.446293,10.052701 8.446619,9.971085 8.446619,9.924654" style="fill: white" /><polygon type="contour" points="8.047408,10.010176 8.047408,10.052701 7.972633,10.052812 7.854299,10.052347 7.854297,10.052747 7.767661,10.052621 7.734163,10.052552 7.733962,9.964475 7.73414,9.925082 7.820066,9.925069 7.940004,9.925069 8.009493,9.925082 8.047206,9.924654" style="fill: white" /><polygon type="contour" points="8.017193,10.202216 8.047408,10.202118 8.047322,10.401403 8.047322,10.590234 8.047206,10.650831 8.047206,10.685084 7.972633,10.685362 7.854468,10.685362 7.776906,10.685084 7.734026,10.685084 7.733945,10.655281 7.73502,10.496383 7.565335,10.496383 7.565086,10.290261 7.564922,10.202839 7.684236,10.202839 7.768048,10.202634 7.940084,10.202089 7.940084,10.20198" style="fill: white" /><polygon type="contour" points="8.008384,11.084495 8.047205,11.084495 8.047276,11.159067 8.047276,11.277232 8.047206,11.354795 8.047206,11.397675 8.013966,11.397756 7.853859,11.397285 7.853859,11.566043 7.821391,11.566166 7.554752,11.57695 7.554936,11.408728 7.563623,11.279528 7.583856,11.279223 7.649269,11.278433 7.734023,11.277721 7.734216,11.159067 7.734026,11.084495 7.818615,11.084427 7.940174,11.084427" style="fill: white" />
</svg>
