<svg width="19.131698" height="19.131699">
<polygon type="contour" points="4.8143,4.734963 4.814205,4.814206 4.688426,4.814206 4.618583,4.814301 4.618771,4.711802 4.618771,4.618773 4.734961,4.618585 4.8143,4.618585" style="fill: white" /><polygon type="contour" points="4.814522,5.312626 4.814357,5.341902 4.81435,5.383403 4.813908,5.439943 4.814446,5.509329 4.814532,5.579413 4.618532,5.579413 4.618446,5.50933 4.618474,5.439942 4.618856,5.383404 4.618813,5.341901 4.618521,5.312627 4.618583,5.111178 4.734962,5.111178 4.814205,5.111146" style="fill: white" /><polygon type="contour" points="6.488508,5.369544 6.485238,5.423816 6.306734,5.423456 6.259833,5.423811 6.241493,5.423682 6.087552,5.423381 5.946115,5.422665 5.904115,5.422431 5.85563,5.422667 5.71782,5.421698 5.71782,5.110961 5.996711,5.111098 6.005176,5.111201 6.045502,5.111189 6.171441,5.11076 6.295546,5.110723 6.517886,5.110705" style="fill: white" /><polygon type="contour" points="5.995666,4.618502 6.172759,4.618479 6.248719,4.618706 6.504135,4.618812 6.484049,4.755764 6.487177,4.814212 6.309438,4.814129 6.292724,4.814196 6.184562,4.814308 6.045502,4.81439 5.718996,4.814662 5.71782,4.814631 5.71782,4.618633 5.949575,4.618462" style="fill: white" /><polygon type="contour" points="5.46795,4.619085 5.509329,4.618449 5.579411,4.618535 5.579411,4.814534 5.509329,4.814448 5.46795,4.814491 5.406966,4.814435 5.358995,4.814138 5.324099,4.814599 5.309131,4.814187 5.111144,4.814206 5.111144,4.688427 5.111176,4.618585 5.324099,4.618598 5.358996,4.618616 5.406966,4.618434" style="fill: white" /><polygon type="contour" points="5.398312,5.110971 5.439941,5.111019 5.509328,5.111076 5.579411,5.111027 5.579411,5.421424 5.561629,5.421512 5.552986,5.421673 5.550511,5.421218 5.539197,5.42129 5.53291,5.421408 5.531803,5.421577 5.506953,5.421945 5.500624,5.422086 5.487489,5.422364 5.482674,5.422501 5.465034,5.42256 5.438902,5.439043 5.422616,5.464949 5.422361,5.487492 5.422082,5.500625 5.421942,5.506955 5.421574,5.531806 5.420922,5.53608 5.421743,5.54308 5.421555,5.555102 5.421421,5.579413 5.111025,5.579413 5.111073,5.509329 5.111144,5.469728 5.11089,5.446999 5.110728,5.40789 5.110986,5.358999 5.111095,5.327158 5.111234,5.308723 5.111189,5.30401 5.111101,5.294086 5.110978,5.289888 5.111265,5.285974 5.11127,5.111271 5.296228,5.111102 5.315618,5.111192 5.330266,5.110999 5.344143,5.111146 5.359474,5.110987 5.385577,5.110862" style="fill: white" /><polygon type="contour" points="5.422665,5.855632 5.422429,5.904116 5.422663,5.946118 5.42338,6.087554 5.42368,6.241494 5.423808,6.259835 5.423453,6.306736 5.423813,6.485241 5.369542,6.488511 5.110703,6.517888 5.110682,6.36687 5.110718,6.312194 5.111312,6.205712 5.111187,6.045506 5.110992,5.718998 5.110959,5.717822 5.421696,5.717822" style="fill: white" /><polygon type="contour" points="4.814368,5.996712 4.814388,6.045506 4.814307,6.184564 4.814099,6.295568 4.814026,6.311705 4.814026,6.313028 4.814115,6.519662 4.690318,6.525069 4.618546,6.516751 4.618753,6.280464 4.618577,6.170984 4.618501,5.995669 4.618661,5.718997 4.618631,5.717822 4.814631,5.717822" style="fill: white" /><polygon type="contour" points="3.750172,5.949575 3.750343,5.995669 3.74968,6.172156 3.749761,6.278781 3.750137,6.496982 3.623737,6.493246 3.417662,6.505287 3.417946,6.308813 3.417372,6.24628 3.417516,6.22723 3.417416,6.094547 3.417222,5.718997 3.417188,5.717822 3.749688,5.717822" style="fill: white" /><polygon type="contour" points="3.189551,5.717908 3.189553,6.094357 3.189112,6.503295 3.189101,6.518237 3.186634,6.51846 2.95141,6.51293 2.951566,6.305308 2.951466,6.289915 2.951369,6.029015 2.951538,5.891842 2.951444,5.855137 2.951458,5.717602 3.18946,5.717602" style="fill: white" /><polygon type="contour" points="3.189416,5.422069 3.189521,5.498404 3.189526,5.579413 3.046726,5.579413 3.046742,5.544145 3.046643,5.507836 3.046149,5.444629 2.951478,5.444181 2.926884,5.444075 2.925343,5.444047 2.856042,5.443943 2.856042,5.235356 2.856334,5.111037 2.927664,5.111291 3.003433,5.110963 3.046395,5.111271 3.071976,5.111271 3.103629,5.111239 3.159608,5.110961 3.189352,5.110853" style="fill: white" /><polygon type="contour" points="3.640511,5.111352 3.750736,5.111178 3.750638,5.296618 3.750484,5.333181 3.750577,5.405517 3.7501,5.509329 3.749918,5.579413 3.417418,5.579413 3.417501,5.498403 3.417799,5.385443 3.417586,5.310971 3.417643,5.274363 3.417384,5.110979" style="fill: white" /><polygon type="contour" points="3.750736,4.734962 3.750736,4.814301 3.532057,4.814287 3.417331,4.814207 3.417331,4.677484 3.417345,4.618987 3.532057,4.618987 3.750739,4.618773" style="fill: white" /><polygon type="contour" points="3.140202,4.618987 3.189365,4.618987 3.189318,4.677484 3.189318,4.814207 3.097556,4.814206 3.046395,4.814206 3.046487,4.701843 3.046555,4.618773" style="fill: white" /><polygon type="contour" points="3.081186,2.856184 3.189635,2.856436 3.189264,2.927665 3.189264,2.999267 3.189367,3.001685 3.189328,3.046529 3.189328,3.189329 3.046527,3.189329 3.001682,3.189369 2.927664,3.189264 2.924192,3.18956 2.856335,3.189537 2.856483,3.039357 2.856188,2.907708 2.856188,2.85619 3.079856,2.855957" style="fill: white" /><polygon type="contour" points="3.189285,3.658374 3.189365,3.750087 3.140203,3.750087 3.046555,3.750741 3.046565,3.532059 3.046484,3.417385 3.189285,3.417385" style="fill: white" /><polygon type="contour" points="3.532057,3.417347 3.750085,3.417347 3.750085,3.532059 3.750739,3.750741 3.532057,3.750087 3.417345,3.750087 3.417345,3.532059 3.417384,3.417385 3.51706,3.417332" style="fill: white" /><polygon type="contour" points="3.750739,3.046556 3.750085,3.140204 3.750085,3.189367 3.658373,3.189286 3.417384,3.189286 3.417384,3.046486 3.618605,3.046439" style="fill: white" /><polygon type="contour" points="4.814285,3.53206 4.8143,3.750738 4.711799,3.750741 4.618772,3.750741 4.618985,3.532059 4.618985,3.417347 4.747047,3.417347 4.814205,3.417332" style="fill: white" /><polygon type="contour" points="4.814205,3.189319 4.677482,3.189319 4.618985,3.189367 4.618985,3.140204 4.618772,3.046556 4.701841,3.046488 4.814205,3.046397" style="fill: white" /><polygon type="contour" points="5.444073,2.926886 5.444179,2.951479 5.444088,3.046055 5.511699,3.046855 5.544141,3.046743 5.57941,3.046727 5.57941,3.084138 5.579226,3.084138 5.579226,3.189343 5.498402,3.189522 5.454422,3.188988 5.110967,3.189143 5.111227,3.122068 5.11127,3.046397 5.110962,3.003433 5.111288,2.999267 5.111288,2.927665 5.111057,2.924194 5.111035,2.856336 5.235354,2.856044 5.443941,2.856044" style="fill: white" /><polygon type="contour" points="5.329075,3.417383 5.416942,3.417313 5.498403,3.417503 5.579411,3.417419 5.579411,3.749919 5.509329,3.750102 5.435197,3.750575 5.351071,3.750225 5.304541,3.750159 5.111176,3.750738 5.110865,3.532059 5.110977,3.417385 5.272943,3.417352 5.282288,3.417239" style="fill: white" /><polygon type="contour" points="5.952504,3.417333 5.988993,3.417418 6.088223,3.417517 6.227227,3.417517 6.246278,3.417373 6.253393,3.417481 6.308182,3.417552 6.5049,3.41755 6.508251,3.618262 6.48514,3.749519 6.172332,3.750132 5.995666,3.750345 5.718995,3.749723 5.71782,3.749689 5.71782,3.417189" style="fill: white" /><polygon type="contour" points="6.50061,3.071306 6.51876,3.189175 6.39438,3.189241 5.830236,3.189129 5.718054,3.189197 5.718054,3.139808 5.71782,2.951461 5.859177,2.951501 5.921445,2.951437 5.965166,2.951515 6.107025,2.951373 6.511129,2.951217" style="fill: white" /><polygon type="contour" points="12.824036,2.951444 12.839223,2.951349 13.102684,2.951371 13.239858,2.951539 13.275984,2.951445 13.413879,2.951461 13.413879,3.189461 13.413793,3.189553 13.037344,3.189555 12.627441,3.18933 12.627864,3.180604 12.619864,2.951299" style="fill: white" /><polygon type="contour" points="15.714368,6.044599 15.714283,6.094548 15.714184,6.227229 15.714329,6.246281 15.713756,6.308814 15.714039,6.505287 15.518489,6.511402 15.381565,6.496982 15.381939,6.27878 15.382021,6.172157 15.381357,5.995668 15.381978,5.718997 15.382011,5.717822 15.714512,5.717822" style="fill: white" /><polygon type="contour" points="16.115565,5.717977 16.180241,5.717822 16.180255,5.855717 16.180163,5.891841 16.18033,6.029015 16.180233,6.289915 16.180289,6.305464 16.180144,6.356147 16.180289,6.51293 16.023206,6.513281 15.942349,6.518457 15.942349,6.332822 15.942308,5.717712 16.073441,5.717712" style="fill: white" /><polygon type="contour" points="15.599643,4.618987 15.714355,4.618987 15.714355,4.747048 15.71437,4.814207 15.599643,4.814287 15.380963,4.814301 15.380962,4.711802 15.380962,4.618773" style="fill: white" /><polygon type="contour" points="15.714317,5.110979 15.714113,5.310971 15.713901,5.385443 15.714198,5.498403 15.714282,5.579413 15.38178,5.579413 15.381598,5.50933 15.381122,5.405516 15.381216,5.333181 15.38106,5.296617 15.380962,5.111178 15.599643,5.110867" style="fill: white" /><polygon type="contour" points="16.132436,5.111291 16.204035,5.111291 16.207507,5.11106 16.275365,5.111037 16.275658,5.235357 16.275658,5.443942 16.204815,5.444075 16.180218,5.44418 16.086321,5.444625 16.084847,5.511701 16.084958,5.544144 16.084974,5.56295 16.085033,5.578373 16.084973,5.579413 15.942174,5.579413 15.942179,5.551976 15.942179,5.498403 15.942283,5.42207 15.942558,5.110969 16.009631,5.111229 16.085302,5.111271 16.128268,5.110963" style="fill: white" /><polygon type="contour" points="16.085213,4.701843 16.085302,4.814206 16.034141,4.814206 15.942383,4.814207 15.942383,4.677484 15.942335,4.618987 15.991498,4.618987 16.085146,4.618773" style="fill: white" /><polygon type="contour" points="16.275511,2.85619 16.275511,2.907708 16.275216,3.039357 16.275366,3.189537 16.204034,3.189265 16.132435,3.189265 16.130017,3.189369 16.085172,3.189329 15.942373,3.189329 15.942373,3.046528 15.942331,3.001685 15.942438,2.927666 15.942141,2.924193 15.942065,2.856436 16.050515,2.856184 16.051841,2.855957" style="fill: white" /><polygon type="contour" points="16.085264,3.618608 16.085146,3.750741 15.991497,3.750087 15.942335,3.750087 15.942416,3.658374 15.942416,3.417385 16.085216,3.417385" style="fill: white" /><polygon type="contour" points="15.714317,3.189286 15.473325,3.189286 15.381614,3.189367 15.381614,3.140204 15.380962,3.046556 15.599642,3.046566 15.714317,3.046486" style="fill: white" /><polygon type="contour" points="15.714317,3.417385 15.71437,3.517062 15.714355,3.532059 15.714355,3.750087 15.599643,3.750087 15.380962,3.750741 15.381614,3.53206 15.381614,3.417347 15.599643,3.417347" style="fill: white" /><polygon type="contour" points="14.512715,3.417347 14.512715,3.532059 14.512929,3.750741 14.396739,3.750738 14.317401,3.750738 14.317416,3.532059 14.317495,3.417332 14.454216,3.417332" style="fill: white" /><polygon type="contour" points="14.429858,3.046488 14.512929,3.046556 14.512715,3.140203 14.512715,3.189367 14.454217,3.189319 14.317495,3.189319 14.317495,3.046397" style="fill: white" /><polygon type="contour" points="14.020666,2.856336 14.020411,2.927665 14.020739,3.003433 14.02043,3.046396 14.02043,3.071977 14.020462,3.10363 14.020784,3.189415 13.677277,3.188988 13.633295,3.189522 13.552288,3.189527 13.552288,3.046726 13.587554,3.046742 13.619999,3.046855 13.687072,3.046061 13.68752,2.95148 13.687628,2.926885 13.687656,2.925345 13.687758,2.856044 13.896345,2.856044" style="fill: white" /><polygon type="contour" points="13.868648,3.417243 13.873599,3.417708 14.020721,3.417385 14.02035,3.640512 14.020524,3.750737 13.780627,3.750225 13.696501,3.750575 13.62237,3.750102 13.552288,3.749919 13.552288,3.417419 13.633295,3.417503 13.714756,3.417313 13.802623,3.417383 13.84941,3.417238" style="fill: white" /><polygon type="contour" points="13.413879,3.749689 13.182126,3.750174 13.13603,3.750345 12.959366,3.750132 12.646557,3.749518 12.647258,3.704377 12.6268,3.41755 12.823517,3.417552 12.878304,3.417481 12.885421,3.417373 12.90447,3.417518 13.037152,3.417417 13.412702,3.417223 13.413879,3.417189" style="fill: white" /><polygon type="contour" points="13.136031,4.618502 13.412701,4.618663 13.413879,4.618633 13.413879,4.814632 13.134989,4.81437 13.086194,4.81439 12.947136,4.814308 12.838974,4.814195 12.822977,4.814151 12.644521,4.814212 12.645877,4.772224 12.647649,4.755764 12.622441,4.657097 12.627565,4.618812 12.88298,4.618706 12.95894,4.618479" style="fill: white" /><polygon type="contour" points="13.413879,5.421697 13.276068,5.422667 13.227585,5.422431 13.185581,5.422666 13.044146,5.423381 12.890206,5.423682 12.871865,5.423811 12.824965,5.423456 12.646462,5.423816 12.643026,5.369825 12.611336,5.111057 12.764514,5.111005 12.819423,5.11102 12.925989,5.111314 13.086194,5.111188 13.126523,5.111201 13.134988,5.111098 13.413879,5.110961" style="fill: white" /><polygon type="contour" points="13.772224,5.110987 13.787556,5.111146 13.801433,5.110999 13.81608,5.111192 13.835472,5.111102 13.837615,5.111102 14.02043,5.111271 14.020435,5.285974 14.020722,5.289888 14.020598,5.294086 14.02051,5.30401 14.020464,5.308724 14.020702,5.329827 14.020877,5.361217 14.020676,5.408816 14.02081,5.446999 14.020555,5.469727 14.020625,5.50933 14.020674,5.579413 13.710278,5.579413 13.710189,5.561631 13.710028,5.552989 13.710482,5.550514 13.710409,5.539198 13.710291,5.53293 13.710123,5.531805 13.709755,5.506955 13.709617,5.500624 13.709339,5.487491 13.709081,5.464937 13.692657,5.438988 13.666669,5.42256 13.649023,5.422501 13.644208,5.422364 13.631075,5.422085 13.624745,5.421945 13.599894,5.421577 13.595631,5.420925 13.588621,5.421744 13.576598,5.421558 13.552288,5.421424 13.552288,5.111027 13.62237,5.111076 13.691758,5.111019 13.733387,5.110971 13.746121,5.110862" style="fill: white" /><polygon type="contour" points="13.849674,4.618635 13.850021,4.618519 13.850407,4.61856 14.020524,4.618585 14.020556,4.688427 14.020556,4.814206 13.822567,4.814187 13.8076,4.814599 13.772704,4.814138 13.724732,4.814435 13.663746,4.814491 13.62237,4.814448 13.552288,4.814534 13.552288,4.618535 13.619996,4.618471 13.62237,4.618449 13.663747,4.619086 13.724732,4.618434 13.772704,4.618616 13.807601,4.618598 13.830047,4.618396" style="fill: white" /><polygon type="contour" points="14.419902,4.618773 14.512929,4.618773 14.513118,4.734962 14.513118,4.814301 14.396738,4.814301 14.317495,4.814206 14.317495,4.688428 14.317401,4.618585" style="fill: white" /><polygon type="contour" points="14.513118,5.111178 14.513018,5.313192 14.512886,5.341901 14.512843,5.383404 14.513225,5.439943 14.513254,5.509329 14.513168,5.579413 14.317168,5.579413 14.317254,5.509329 14.317792,5.439943 14.317351,5.383404 14.317345,5.341901 14.317435,5.313191 14.317495,5.111146 14.443274,5.111146" style="fill: white" /><polygon type="contour" points="14.513239,5.949576 14.513198,5.995668 14.51312,6.170985 14.512946,6.280463 14.513152,6.516751 14.401335,6.512026 14.317584,6.519662 14.317673,6.311705 14.3176,6.295568 14.317392,6.184564 14.317312,6.045506 14.317039,5.718997 14.317069,5.717822 14.513069,5.717822" style="fill: white" /><polygon type="contour" points="14.020603,5.996713 14.0205,6.005178 14.020513,6.045506 14.020943,6.171443 14.020979,6.295548 14.020999,6.517888 13.762154,6.48851 13.707884,6.48524 13.708248,6.306737 13.707892,6.259835 13.70802,6.241496 13.70832,6.087553 13.709036,5.946118 13.70927,5.904116 13.709034,5.855632 13.710003,5.717822 14.02074,5.717822" style="fill: white" /><polygon type="contour" points="13.412702,15.381979 13.413879,15.382013 13.413879,15.714515 13.250861,15.714371 13.22484,15.714285 13.151643,15.714186 12.904471,15.714186 12.885421,15.71433 12.878304,15.714223 12.823517,15.714151 12.6268,15.714152 12.62345,15.513439 12.646559,15.382185 12.959366,15.381569 13.136031,15.381358" style="fill: white" /><polygon type="contour" points="13.413576,15.942428 13.41342,15.942467 13.413645,15.991894 13.413878,16.180242 13.276247,16.18023 13.240153,16.18013 13.102989,16.180278 12.839224,16.180355 12.824036,16.180259 12.77396,16.180278 12.619864,16.180405 12.634191,16.0866 12.627137,15.942448 12.809394,15.942448 13.224839,15.942261 13.300897,15.942204" style="fill: white" /><polygon type="contour" points="13.633295,15.942182 13.677279,15.942716 14.020733,15.942561 14.020473,16.009635 14.02043,16.085306 14.020739,16.128268 14.020412,16.132436 14.020412,16.204036 14.020641,16.20751 14.020666,16.275368 13.896345,16.27566 13.687757,16.27566 13.687628,16.204818 13.687521,16.180221 13.68761,16.085647 13.619999,16.084848 13.587555,16.084961 13.552288,16.084976 13.552288,15.942177" style="fill: white" /><polygon type="contour" points="14.020835,15.599644 14.020723,15.714319 13.858756,15.714352 13.849411,15.714465 13.802625,15.714321 13.714756,15.714391 13.633296,15.714202 13.552288,15.714285 13.552288,15.381783 13.62237,15.381601 13.696501,15.38113 13.780628,15.381479 14.020524,15.380965" style="fill: white" /><polygon type="contour" points="14.512716,15.599644 14.512716,15.714357 14.384652,15.714357 14.317495,15.714373 14.317416,15.599643 14.3174,15.380965 14.419901,15.380963 14.512929,15.380963" style="fill: white" /><polygon type="contour" points="14.512716,15.991501 14.512929,16.085147 14.429857,16.085215 14.317495,16.085307 14.317495,15.942385 14.454218,15.942385 14.512716,15.942337" style="fill: white" /><polygon type="contour" points="15.473325,15.942417 15.714317,15.942417 15.714317,16.085218 15.513093,16.085265 15.380962,16.085147 15.381614,15.9915 15.381614,15.942337" style="fill: white" /><polygon type="contour" points="16.275366,15.942166 16.275216,16.092347 16.275511,16.223995 16.275511,16.275513 16.05184,16.275748 16.050514,16.275519 15.942065,16.275267 15.942436,16.204037 15.942436,16.132437 15.942332,16.130019 15.942373,16.085173 15.942373,15.942376 16.085172,15.942376 16.130018,15.942335 16.204034,15.942439 16.207506,15.942144" style="fill: white" /><polygon type="contour" points="16.085135,15.599644 16.085216,15.714319 15.942416,15.714319 15.942416,15.473326 15.942335,15.381614 15.991498,15.381614 16.085146,15.380963" style="fill: white" /><polygon type="contour" points="15.599642,15.381614 15.714355,15.381614 15.714355,15.599643 15.714317,15.714319 15.614639,15.714373 15.599643,15.714357 15.381614,15.714357 15.381614,15.599643 15.380962,15.380963" style="fill: white" /><polygon type="contour" points="16.085214,14.429859 16.085146,14.51293 15.991497,14.512717 15.942335,14.512717 15.942383,14.454219 15.942383,14.317498 16.034141,14.317496 16.085303,14.317496" style="fill: white" /><polygon type="contour" points="15.599643,14.317418 15.71437,14.317498 15.71437,14.454218 15.714355,14.512717 15.599643,14.512717 15.380962,14.51293 15.380963,14.396739 15.380963,14.317402" style="fill: white" /><polygon type="contour" points="15.714198,13.633299 15.713901,13.746262 15.714113,13.820731 15.714058,13.857341 15.714674,13.871272 15.714093,13.873648 15.714317,14.020726 15.491188,14.020351 15.380963,14.020525 15.38106,13.835086 15.381216,13.798521 15.381122,13.726186 15.381598,13.622372 15.381781,13.55229 15.714282,13.55229" style="fill: white" /><polygon type="contour" points="16.084958,13.587557 16.085059,13.623868 16.085554,13.687074 16.180217,13.687521 16.204816,13.68763 16.206355,13.687657 16.275658,13.68776 16.275658,13.896346 16.275366,14.020667 16.204034,14.020414 16.128267,14.020742 16.085303,14.020432 16.059722,14.020432 16.028069,14.020464 15.972091,14.020741 15.942349,14.02085 15.942284,13.709633 15.942179,13.633298 15.942174,13.55229 16.084973,13.55229" style="fill: white" /><polygon type="contour" points="16.180404,12.815663 16.180239,12.832896 16.180135,13.0245 16.180188,13.166532 16.180264,13.210761 16.1802,13.273105 16.180241,13.4141 16.05631,13.413734 15.942289,13.413734 15.942349,13.2281 15.942308,13.087105 15.941978,13.08707 15.942339,13.052777 15.942257,13.037154 15.942376,13.026835 15.942308,12.949634 15.942112,12.904901 15.942367,12.627407 15.949995,12.626577 16.180443,12.620339" style="fill: white" /><polygon type="contour" points="15.713756,12.822889 15.714329,12.885422 15.714184,12.904473 15.714283,13.037154 15.714478,13.412703 15.714513,13.413881 15.382012,13.413881 15.381528,13.182128 15.381357,13.136033 15.382021,12.959545 15.381939,12.852923 15.381564,12.634722 15.507963,12.638458 15.714039,12.626417" style="fill: white" /><polygon type="contour" points="14.513152,12.614953 14.512946,12.85124 14.513122,12.960717 14.5132,13.136032 14.513038,13.412703 14.513068,13.413881 14.317069,13.413881 14.317332,13.134991 14.317312,13.086195 14.317392,12.947137 14.3176,12.836133 14.317673,12.818676 14.317584,12.612041 14.44138,12.606634" style="fill: white" /><polygon type="contour" points="14.020699,12.764516 14.020684,12.819425 14.020388,12.925991 14.020513,13.086195 14.0205,13.126524 14.020603,13.13499 14.02074,13.413881 13.710003,13.413881 13.709034,13.276071 13.70927,13.227587 13.709036,13.185583 13.70832,13.044147 13.70802,12.890208 13.707892,12.871868 13.708248,12.824966 13.707885,12.646463 13.761875,12.643027 14.020646,12.611337" style="fill: white" /><polygon type="contour" points="14.020625,13.622372 14.020555,13.661976 14.02081,13.684704 14.020972,13.723812 14.020713,13.772706 14.020604,13.804544 14.020464,13.822979 14.02051,13.827692 14.020598,13.837616 14.020722,13.841814 14.020435,13.845727 14.02043,14.020432 13.835471,14.020599 13.81608,14.02051 13.801433,14.020702 13.787556,14.020557 13.772223,14.020717 13.746122,14.020841 13.733387,14.020733 13.684191,14.020493 13.622369,14.020627 13.552288,14.020676 13.552288,13.71028 13.576598,13.710145 13.588622,13.70996 13.595598,13.710772 13.599894,13.710126 13.624744,13.709758 13.631076,13.709618 13.644207,13.709341 13.649024,13.709202 13.666672,13.709144 13.692767,13.692593 13.709081,13.666763 13.70934,13.64421 13.709618,13.631078 13.709755,13.624748 13.710123,13.599897 13.710769,13.595601 13.709957,13.588623 13.710145,13.5766 13.710278,13.55229 14.020674,13.55229" style="fill: white" /><polygon type="contour" points="14.513232,13.619999 14.513254,13.622373 14.513225,13.69176 14.512843,13.748298 14.512886,13.789802 14.513178,13.819075 14.513129,13.837618 14.513099,13.846994 14.513233,13.850606 14.513118,14.020526 14.396738,14.020525 14.317495,14.020557 14.317177,13.819075 14.317344,13.789802 14.317351,13.748298 14.317792,13.691759 14.317254,13.622373 14.317168,13.55229 14.513168,13.55229" style="fill: white" /><polygon type="contour" points="14.512929,14.419902 14.512929,14.51293 14.396739,14.513119 14.317401,14.513119 14.317401,14.396739 14.317495,14.317496 14.443273,14.317497 14.513118,14.317403" style="fill: white" /><polygon type="contour" points="13.830048,14.317308 14.020556,14.317496 14.020556,14.443275 14.020524,14.513119 13.772703,14.513088 13.724732,14.51327 13.663747,14.512616 13.62237,14.513255 13.552288,14.51317 13.552288,14.317169 13.62237,14.317255 13.663746,14.317213 13.724732,14.317267 13.772703,14.317565 13.807601,14.317105" style="fill: white" /><polygon type="contour" points="13.413879,14.317071 13.413879,14.513072 13.182126,14.513242 13.136031,14.513202 12.95894,14.513225 12.88298,14.512997 12.627565,14.512893 12.64765,14.37594 12.644521,14.317492 12.822261,14.317575 12.838975,14.317507 12.947136,14.317393 13.086195,14.317313 13.412701,14.317041" style="fill: white" /><polygon type="contour" points="12.824964,13.708249 12.871866,13.707893 12.890206,13.708022 13.044146,13.708323 13.185581,13.709038 13.227585,13.709272 13.276069,13.709037 13.413879,13.710006 13.413879,14.020742 13.134989,14.020604 13.086195,14.020514 12.947135,14.020408 12.925989,14.02039 12.819423,14.020685 12.764514,14.0207 12.611336,14.020647 12.643026,13.761877 12.646462,13.707887" style="fill: white" /><polygon type="contour" points="6.488508,13.762158 6.517886,14.021 6.366869,14.021019 6.312192,14.020983 6.20571,14.02039 6.045502,14.020514 5.718996,14.020712 5.71782,14.020743 5.71782,13.710006 5.85563,13.709037 5.904114,13.709272 5.946115,13.709038 6.087552,13.708321 6.241492,13.708022 6.259833,13.707893 6.306735,13.708249 6.485238,13.707887" style="fill: white" /><polygon type="contour" points="3.189318,14.317498 3.189318,14.454219 3.189365,14.512717 3.140203,14.512717 3.046555,14.51293 3.046487,14.429859 3.046395,14.317496 3.097556,14.317496" style="fill: white" /><polygon type="contour" points="3.750739,14.419902 3.750739,14.51293 3.532057,14.512717 3.417345,14.512717 3.417345,14.384655 3.417331,14.317498 3.532057,14.317418 3.750736,14.317402" style="fill: white" /><polygon type="contour" points="3.7501,13.622373 3.750577,13.726186 3.750484,13.798521 3.750638,13.835086 3.750736,14.020525 3.532057,14.020837 3.417384,14.020726 3.417586,13.820731 3.417799,13.746262 3.417501,13.633299 3.417418,13.55229 3.749918,13.55229" style="fill: white" /><polygon type="contour" points="3.18952,13.633298 3.189602,13.701456 3.189352,13.723593 3.189142,14.020735 3.122066,14.020473 3.046395,14.020432 3.003433,14.020742 2.999266,14.020414 2.927665,14.020414 2.924192,14.020643 2.856335,14.020667 2.856042,13.896347 2.856042,13.68776 2.926883,13.68763 2.951479,13.687522 3.046055,13.687612 3.046854,13.620002 3.046741,13.587557 3.046725,13.55229 3.189341,13.55229" style="fill: white" /><polygon type="contour" points="3.072348,12.632781 3.189332,12.626579 3.189385,13.165934 3.189352,13.2281 3.189395,13.363834 3.139457,13.363849 3.139691,13.413431 3.075391,13.413733 2.951459,13.413881 2.951499,13.272526 2.951435,13.210259 2.951513,13.166532 2.951371,13.024675 2.951216,12.620052" style="fill: white" /><polygon type="contour" points="3.750137,12.634721 3.749761,12.852922 3.74968,12.959545 3.750343,13.136033 3.749722,13.412703 3.749688,13.413881 3.417187,13.413881 3.417331,13.087106 3.417417,13.037153 3.417516,12.904473 3.417372,12.885422 3.417945,12.822889 3.417662,12.626417 3.61321,12.620302" style="fill: white" /><polygon type="contour" points="4.814026,12.818676 4.814098,12.836133 4.814307,12.947137 4.814387,13.086195 4.814659,13.412704 4.81463,13.413881 4.618631,13.413881 4.618461,13.182128 4.618501,13.136033 4.618577,12.960717 4.618753,12.851239 4.618546,12.614953 4.730364,12.619677 4.814115,12.612041" style="fill: white" /><polygon type="contour" points="5.369823,12.643027 5.423814,12.646463 5.423453,12.824967 5.423809,12.871868 5.42368,12.890208 5.42338,13.044147 5.422665,13.185583 5.422428,13.227587 5.422665,13.276071 5.421696,13.413881 5.110959,13.413881 5.111096,13.13499 5.111187,13.086196 5.111292,12.947137 5.111312,12.925991 5.111017,12.819425 5.111002,12.764516 5.111055,12.611338" style="fill: white" /><polygon type="contour" points="5.421555,13.5766 5.421742,13.588624 5.420923,13.595631 5.421574,13.599897 5.421942,13.624748 5.422082,13.631078 5.422362,13.644211 5.422616,13.666752 5.438793,13.692538 5.465031,13.709144 5.482673,13.709202 5.48749,13.709341 5.500623,13.709618 5.506954,13.709758 5.531803,13.710126 5.536103,13.710772 5.543077,13.70996 5.5551,13.710146 5.579411,13.71028 5.579411,14.020676 5.509329,14.020627 5.439941,14.020685 5.398312,14.020733 5.385576,14.020841 5.359475,14.020717 5.344143,14.020557 5.330267,14.020703 5.315618,14.02051 5.296228,14.0206 5.294084,14.0206 5.11127,14.020432 5.111265,13.845727 5.110978,13.841814 5.111101,13.837616 5.11119,13.827691 5.111235,13.82298 5.110997,13.801875 5.110986,13.772705 5.110727,13.723812 5.110889,13.684704 5.111144,13.661976 5.111073,13.622373 5.111025,13.55229 5.421421,13.55229" style="fill: white" /><polygon type="contour" points="4.814446,13.622373 4.813908,13.691759 4.81435,13.748298 4.814357,13.789802 4.814522,13.819075 4.81457,13.837616 4.814205,14.020557 4.688425,14.020557 4.618583,14.020525 4.618681,13.818511 4.618814,13.789802 4.618857,13.748298 4.618474,13.691759 4.618445,13.622373 4.618532,13.55229 4.814532,13.55229" style="fill: white" /><polygon type="contour" points="4.814205,14.317496 4.814205,14.443275 4.8143,14.513119 4.7118,14.51293 4.618772,14.51293 4.618583,14.39674 4.618583,14.317402 4.734962,14.317402" style="fill: white" /><polygon type="contour" points="5.358996,14.317564 5.406966,14.317267 5.467951,14.317213 5.509328,14.317255 5.579411,14.317169 5.579411,14.513169 5.509328,14.513254 5.467951,14.512616 5.406966,14.51327 5.358997,14.513088 5.111176,14.513119 5.111144,14.443275 5.111144,14.317496 5.301651,14.317308 5.324099,14.317104" style="fill: white" /><polygon type="contour" points="5.996711,14.317333 6.045503,14.317314 6.184562,14.317394 6.292725,14.317507 6.308722,14.317552 6.487178,14.317492 6.485823,14.35948 6.48405,14.37594 6.50926,14.474608 6.504135,14.512892 6.248719,14.512997 6.172759,14.513225 5.995666,14.513202 5.718995,14.513042 5.71782,14.513072 5.71782,14.317071" style="fill: white" /><polygon type="contour" points="6.172331,15.381569 6.48514,15.382185 6.484439,15.427327 6.504899,15.714152 6.308182,15.714151 6.253394,15.714223 6.246278,15.714331 6.227227,15.714187 6.094545,15.714285 5.718995,15.71448 5.71782,15.714515 5.71782,15.382013 5.949575,15.38153 5.995666,15.381358" style="fill: white" /><polygon type="contour" points="6.078923,15.942341 6.094545,15.942261 6.171548,15.942354 6.181218,15.942451 6.503915,15.942595 6.506751,15.942587 6.510343,15.942593 6.510457,15.942595 6.518234,15.942598 6.517314,15.948625 6.511005,16.180446 6.315869,16.180238 6.298803,16.180243 6.1072,16.180136 5.965166,16.180189 5.921444,16.180266 5.859177,16.180201 5.71782,16.180242 5.717966,16.056311 5.717966,15.942291 5.903601,15.94235 6.044208,15.942311 6.044252,15.94198" style="fill: white" /><polygon type="contour" points="5.579411,16.084976 5.544142,16.084961 5.511699,16.084848 5.444088,16.085647 5.444179,16.180221 5.444073,16.204818 5.444045,16.206358 5.443941,16.27566 5.235353,16.275661 5.111035,16.275368 5.111288,16.204036 5.110961,16.128268 5.11127,16.085307 5.11127,16.059726 5.111238,16.028073 5.110915,15.942288 5.286438,15.942201 5.307586,15.942393 5.337156,15.94238 5.388899,15.942303 5.408109,15.94235 5.454422,15.942716 5.498403,15.942182 5.579411,15.942176" style="fill: white" /><polygon type="contour" points="5.304541,15.381544 5.351071,15.381479 5.435198,15.38113 5.509329,15.381601 5.579411,15.381783 5.579411,15.714285 5.498402,15.714202 5.416943,15.714391 5.329074,15.714321 5.282288,15.714465 5.272943,15.714352 5.110977,15.714319 5.111351,15.49119 5.111176,15.380965" style="fill: white" /><polygon type="contour" points="4.734961,15.380965 4.8143,15.380965 4.814285,15.599643 4.814205,15.714373 4.677482,15.714373 4.618985,15.714357 4.618985,15.599644 4.618772,15.380963" style="fill: white" /><polygon type="contour" points="4.677482,15.942385 4.814205,15.942385 4.814205,16.085307 4.701842,16.085215 4.618772,16.085147 4.618985,15.991501 4.618985,15.942337" style="fill: white" /><polygon type="contour" points="3.750085,15.991501 3.750739,16.085147 3.532057,16.085137 3.417384,16.085218 3.417384,15.942417 3.658373,15.942417 3.750085,15.942337" style="fill: white" /><polygon type="contour" points="3.750085,15.599644 3.750085,15.714357 3.532057,15.714357 3.417384,15.714319 3.417331,15.614641 3.417345,15.599644 3.417345,15.381614 3.532058,15.381614 3.750739,15.380963" style="fill: white" /><polygon type="contour" points="3.140202,15.381614 3.189365,15.381614 3.189285,15.473326 3.189285,15.714319 3.046484,15.714319 3.046438,15.513095 3.046555,15.380963" style="fill: white" /><polygon type="contour" points="2.927664,15.942439 2.999266,15.942439 3.001683,15.942335 3.046526,15.942376 3.189328,15.942376 3.189328,16.085175 3.189366,16.130019 3.189264,16.204037 3.189559,16.207509 3.189635,16.275267 3.081186,16.275518 3.079856,16.275748 2.856188,16.275513 2.856188,16.223995 2.856483,16.092347 2.856335,15.942166" style="fill: white" />
</svg>
