<svg width="19.131698" height="19.131699">
<polygon type="contour" points="14.517659,16.120668 14.938817,16.121276 14.938604,16.249487 14.9387,16.453559 14.527651,16.453786 14.376269,16.453895 14.371759,16.365842 14.377595,16.120594" style="fill: white" /><polygon type="contour" points="14.938501,16.860702 14.938501,16.897272 14.938922,17.003424 14.938681,17.06154 14.93843,17.075239 14.938664,17.107766 14.938474,17.11019 14.938474,17.151836 14.938607,17.153856 14.938621,17.193324 14.733213,17.193806 14.605906,17.193806 14.605825,17.150569 14.605599,17.09843 14.379394,17.098576 14.375446,17.098478 14.363289,16.901939 14.372028,16.860466 14.52581,16.860466" style="fill: white" /><polygon type="contour" points="15.609983,16.904157 15.609983,17.002942 15.488926,17.003012 15.414166,17.003222 15.414068,16.936902 15.414068,16.860486 15.50518,16.860486 15.609891,16.860378" style="fill: white" /><polygon type="contour" points="16.284339,16.860558 16.453556,16.860558 16.453556,17.00336 16.312281,17.00307 16.120899,17.002942 16.12119,16.948075 16.12119,16.860378" style="fill: white" /><polygon type="contour" points="17.193322,16.860122 17.193234,16.947472 17.193714,17.162273 17.193714,17.193716 17.057202,17.19386 17.056392,17.19372 16.860062,17.193264 16.860278,17.151836 16.860278,17.110189 16.860218,17.108784 16.860246,17.076975 16.860266,17.063426 16.860556,17.00336 16.860556,16.860558 17.003358,16.860558 17.063424,16.860268 17.076973,16.860248 17.108782,16.86022 17.151834,16.86028 17.153852,16.860108" style="fill: white" /><polygon type="contour" points="17.003068,16.312283 17.003358,16.453559 16.860554,16.453559 16.860554,16.28434 16.860374,16.12119 16.904155,16.1209 17.00294,16.1209" style="fill: white" /><polygon type="contour" points="16.921335,15.414167 17.003218,15.414167 17.00301,15.488927 17.00294,15.609985 16.948074,15.609892 16.860374,15.609892 16.860374,15.534265 16.860482,15.414069" style="fill: white" /><polygon type="contour" points="16.453674,15.414069 16.453688,15.534264 16.453688,15.609892 16.249486,15.609892 16.120899,15.609985 16.121275,15.541395 16.121275,15.413962 16.249486,15.413893" style="fill: white" /><polygon type="contour" points="16.249485,16.121191 16.453688,16.121191 16.453688,16.249487 16.453556,16.453559 16.27574,16.453677 16.249486,16.45369 16.12119,16.45369 16.12119,16.249487 16.120899,16.1209" style="fill: white" /><polygon type="contour" points="15.609891,16.249488 15.609891,16.45369 15.534263,16.45369 15.414068,16.453677 15.413892,16.249487 15.413962,16.121276 15.474396,16.1209 15.609983,16.1209" style="fill: white" /><polygon type="contour" points="15.609983,15.474397 15.609983,15.609985 15.541393,15.609717 15.413962,15.609717 15.413962,15.541394 15.414165,15.414167 15.497477,15.414167 15.609716,15.413963" style="fill: white" /><polygon type="contour" points="14.938922,15.414167 14.938922,15.49748 14.938817,15.609717 14.517149,15.609409 14.375075,15.609598 14.377085,15.556457 14.371775,15.414154 14.509449,15.414154" style="fill: white" /><polygon type="contour" points="14.938753,14.512131 14.938922,14.938924 14.499771,14.939037 14.365006,14.939037 14.374206,14.715859 14.38506,14.461288 14.45715,14.45715 14.461286,14.385062 14.710904,14.380696 14.938753,14.3735" style="fill: white" /><polygon type="contour" points="15.609595,14.375077 15.609406,14.517151 15.609716,14.938818 15.497478,14.938923 15.414166,14.938923 15.414152,14.509452 15.414152,14.371779 15.459507,14.369549" style="fill: white" /><polygon type="contour" points="16.453028,14.531321 16.453556,14.938703 16.297317,14.938995 16.121275,14.938818 16.120899,14.779843 16.120972,14.380347 16.219232,14.383189 16.453028,14.375995" style="fill: white" /><polygon type="contour" points="16.94934,14.369496 17.098666,14.369168 17.098436,14.446072 17.098446,14.47211 17.098428,14.6056 17.150568,14.605827 17.151508,14.605844 17.193804,14.605906 17.193804,14.733214 17.193322,14.938623 17.151833,14.938476 17.107763,14.938666 17.075235,14.938431 17.061535,14.938684 17.00342,14.938924 16.962477,14.938924 16.860699,14.938504 16.860516,14.515259 16.860516,14.365135" style="fill: white" /><polygon type="contour" points="17.193714,1.937987 17.193714,1.96943 17.193234,2.184232 17.193322,2.271582 17.151834,2.271424 17.110187,2.271424 17.108782,2.271484 17.076973,2.271455 17.063424,2.271437 17.003358,2.271145 16.860558,2.271145 16.860558,2.236082 16.860556,2.128345 16.860266,2.068279 16.860246,2.054727 16.860218,2.022919 16.860277,1.979869 16.860106,1.977849 16.860062,1.938439 17.056391,1.937982 17.057201,1.937844" style="fill: white" /><polygon type="contour" points="16.453558,2.201019 16.453558,2.271144 16.284336,2.271144 16.121189,2.271326 16.120899,2.227545 16.120899,2.128761 16.312282,2.128634 16.453556,2.128345" style="fill: white" /><polygon type="contour" points="16.453558,2.678145 16.453556,2.847364 16.453688,3.010513 16.249486,3.010513 16.120899,3.010803 16.121189,2.882214 16.121189,2.678012 16.249488,2.678012" style="fill: white" /><polygon type="contour" points="17.003068,2.819419 17.00294,3.010803 16.948074,3.010513 16.860374,3.010513 16.860553,2.847364 16.860556,2.678145 17.003358,2.678145" style="fill: white" /><polygon type="contour" points="17.003116,3.590308 17.003218,3.717536 16.9369,3.717308 16.860482,3.717308 16.860482,3.62652 16.860374,3.521811 16.904155,3.521719 17.00294,3.521719" style="fill: white" /><polygon type="contour" points="17.061536,4.193021 17.075235,4.193272 17.107764,4.193038 17.110188,4.193229 17.151833,4.193229 17.153851,4.193095 17.193322,4.193081 17.193804,4.398489 17.193804,4.525796 17.150567,4.525877 17.098426,4.526103 17.098792,4.752263 17.09878,4.756204 16.900884,4.776266 16.860516,4.76657 16.860516,4.616445 16.8607,4.193201 16.897268,4.193201 17.00342,4.19278" style="fill: white" /><polygon type="contour" points="16.453555,4.193001 16.453028,4.600382 16.453028,4.755709 16.219233,4.748514 16.120973,4.751357 16.121253,4.613414 16.121275,4.192884 16.297317,4.192708" style="fill: white" /><polygon type="contour" points="16.249486,3.521811 16.453688,3.521811 16.453688,3.597169 16.453674,3.717308 16.249486,3.71754 16.121275,3.71774 16.120899,3.657305 16.120899,3.521719" style="fill: white" /><polygon type="contour" points="14.938817,3.590308 14.938922,3.717536 14.50945,3.71755 14.371776,3.71755 14.369546,3.672192 14.375075,3.522107 14.517149,3.522296 14.938817,3.521987" style="fill: white" /><polygon type="contour" points="14.938922,4.19278 14.938753,4.61957 14.938753,4.758203 14.710905,4.751007 14.461286,4.746642 14.457147,4.674493 14.385084,4.670476 14.374206,4.415844 14.365006,4.192667 14.499771,4.192667" style="fill: white" /><polygon type="contour" points="15.609716,4.192884 15.609406,4.614553 15.609595,4.756627 15.556456,4.754615 15.414152,4.759925 15.414152,4.622251 15.414165,4.19278 15.497477,4.19278" style="fill: white" /><polygon type="contour" points="15.609716,3.590308 15.609716,3.717741 15.541393,3.717741 15.414166,3.717536 15.414166,3.634222 15.413962,3.521986 15.474394,3.521719 15.609982,3.521719" style="fill: white" /><polygon type="contour" points="15.609891,2.882214 15.609983,3.010803 15.541392,3.010428 15.413961,3.010428 15.413892,2.882214 15.414068,2.678027 15.50518,2.678027 15.609891,2.678012" style="fill: white" /><polygon type="contour" points="15.488926,2.128689 15.609983,2.128761 15.609891,2.183627 15.609891,2.271326 15.50518,2.271218 15.414068,2.271218 15.414166,2.210364 15.414166,2.12848" style="fill: white" /><polygon type="contour" points="14.938621,1.938381 14.938474,1.979869 14.938664,2.023938 14.93843,2.056464 14.938681,2.070163 14.938922,2.128279 14.938922,2.169221 14.938501,2.271 14.52581,2.271239 14.372028,2.271239 14.363288,2.229764 14.375445,2.033225 14.379394,2.033126 14.605599,2.03327 14.605825,1.981135 14.605843,1.980194 14.605906,1.937897 14.733214,1.937897" style="fill: white" /><polygon type="contour" points="14.527653,2.677918 14.9387,2.678145 14.938992,2.834386 14.938816,3.010428 14.517658,3.011034 14.377596,3.011109 14.381352,2.887218 14.376271,2.677808" style="fill: white" /><polygon type="contour" points="2.075308,1.937982 2.271638,1.938439 2.271422,1.979869 2.271422,2.021515 2.271483,2.02292 2.271454,2.054726 2.271434,2.068279 2.271143,2.128344 2.271143,2.271145 2.128342,2.271145 2.068277,2.271436 2.054724,2.271456 2.022919,2.271484 1.979866,2.271424 1.977847,2.271595 1.938379,2.271582 1.938465,2.184233 1.937985,1.96943 1.937985,1.937986 2.074498,1.937843" style="fill: white" /><polygon type="contour" points="2.819416,2.128634 3.010801,2.128761 3.010511,2.183626 3.010511,2.271326 2.847362,2.271144 2.678142,2.271144 2.678142,2.128345" style="fill: white" /><polygon type="contour" points="2.270998,4.1932 2.271186,4.616446 2.271186,4.76657 2.23082,4.776266 2.032921,4.756204 2.032907,4.752263 2.033268,4.526103 1.981133,4.525877 1.980193,4.52586 1.937896,4.525796 1.937896,4.398489 1.938379,4.193082 1.979867,4.193229 2.023935,4.193038 2.056463,4.193272 2.070162,4.193021 2.128278,4.19278 2.16922,4.19278" style="fill: white" /><polygon type="contour" points="2.183626,3.521811 2.271325,3.521811 2.271325,3.597169 2.271216,3.717308 2.210361,3.717536 2.128478,3.717536 2.128688,3.642774 2.12876,3.521719" style="fill: white" /><polygon type="contour" points="2.271143,2.847363 2.271325,3.010512 2.227544,3.010803 2.12876,3.010803 2.128634,2.819418 2.128343,2.678145 2.201018,2.678145 2.271143,2.678144" style="fill: white" /><polygon type="contour" points="3.010511,2.882214 3.010801,3.010803 2.882213,3.010513 2.678011,3.010513 2.678011,2.882214 2.678142,2.678145 2.855956,2.678027 2.882214,2.678012 3.010511,2.678012" style="fill: white" /><polygon type="contour" points="4.757495,4.415843 4.74664,4.670415 4.674552,4.674554 4.670413,4.746641 4.420793,4.751007 4.192946,4.758203 4.192946,4.619569 4.192777,4.19278 4.631929,4.192667 4.766695,4.192667" style="fill: white" /><polygon type="contour" points="4.614551,3.522296 4.756625,3.522107 4.754614,3.575245 4.759924,3.71755 4.62225,3.71755 4.192778,3.717536 4.192778,3.634222 4.192882,3.521987" style="fill: white" /><polygon type="contour" points="4.75994,2.76586 4.754103,3.011109 4.614039,3.011034 4.192882,3.010428 4.193095,2.882215 4.192999,2.678145 4.604048,2.677918 4.75543,2.677808" style="fill: white" /><polygon type="contour" points="4.525875,1.981135 4.526101,2.03327 4.659591,2.033254 4.68563,2.033264 4.762534,2.033034 4.766924,2.101699 4.759672,2.271239 4.605889,2.271239 4.1932,2.271 4.1932,2.234431 4.192778,2.12828 4.193019,2.070164 4.193271,2.056464 4.193037,2.023937 4.193227,2.021514 4.193227,1.979868 4.193093,1.977848 4.193079,1.938381 4.398487,1.937897 4.525794,1.937897" style="fill: white" /><polygon type="contour" points="3.717307,2.1948 3.717307,2.271218 3.626518,2.271218 3.52181,2.271326 3.521717,2.227546 3.521717,2.128761 3.642772,2.128689 3.717534,2.12848" style="fill: white" /><polygon type="contour" points="3.717307,2.678027 3.717539,2.882214 3.717739,3.010428 3.657303,3.010803 3.521717,3.010803 3.52181,2.882214 3.52181,2.678012 3.597168,2.678012" style="fill: white" /><polygon type="contour" points="3.590307,3.521987 3.717739,3.521987 3.717739,3.590308 3.717534,3.717536 3.634222,3.717536 3.521985,3.717741 3.521717,3.657305 3.521717,3.521719" style="fill: white" /><polygon type="contour" points="3.010427,3.590309 3.010427,3.717741 2.882213,3.71754 2.678025,3.717308 2.678011,3.597169 2.678011,3.521811 2.882213,3.521811 3.010801,3.521719" style="fill: white" /><polygon type="contour" points="3.010427,4.192884 3.010801,4.351858 3.010726,4.751357 2.912465,4.748514 2.67867,4.755709 2.67867,4.600382 2.678142,4.193001 2.834385,4.192708" style="fill: white" /><polygon type="contour" points="3.717549,4.622252 3.717549,4.759925 3.672191,4.762156 3.522105,4.756627 3.522294,4.614552 3.521985,4.192884 3.634222,4.19278 3.717534,4.19278" style="fill: white" /><polygon type="contour" points="2.271186,14.365134 2.271186,14.515258 2.270998,14.938503 2.234431,14.938504 2.128278,14.938924 2.070162,14.938684 2.056463,14.93843 2.023935,14.938666 2.021512,14.938476 1.979867,14.938476 1.977847,14.938609 1.938379,14.938623 1.937896,14.733214 1.937896,14.605906 1.981133,14.605826 2.033268,14.6056 2.033252,14.47211 2.033262,14.446072 2.033033,14.369168 2.101698,14.364778" style="fill: white" /><polygon type="contour" points="2.912466,14.383189 3.010726,14.380347 3.010447,14.518288 3.010426,14.938819 2.834384,14.938995 2.678142,14.938703 2.67867,14.531321 2.67867,14.375995" style="fill: white" /><polygon type="contour" points="3.717549,14.509451 3.717534,14.938923 3.634221,14.938923 3.521985,14.938818 3.522294,14.517151 3.522105,14.375078 3.575243,14.377089 3.717549,14.371779" style="fill: white" /><polygon type="contour" points="4.420794,14.380696 4.670413,14.385062 4.674555,14.457211 4.746616,14.461227 4.757495,14.71586 4.766695,14.939037 4.631929,14.939037 4.192777,14.938924 4.192946,14.512132 4.192946,14.3735" style="fill: white" /><polygon type="contour" points="4.762154,15.45951 4.756625,15.609598 4.614551,15.609409 4.192882,15.609717 4.192882,15.541395 4.192778,15.414167 4.622251,15.414154 4.759923,15.414154" style="fill: white" /><polygon type="contour" points="4.750347,16.244483 4.75543,16.453895 4.604048,16.453786 4.192999,16.453559 4.192706,16.297316 4.192882,16.121275 4.614039,16.120668 4.754103,16.120594" style="fill: white" /><polygon type="contour" points="4.756046,16.951199 4.762535,17.098668 4.685629,17.098439 4.659591,17.098448 4.526101,17.09843 4.525875,17.15057 4.525858,17.15151 4.525794,17.193806 4.398487,17.193808 4.193079,17.193324 4.193227,17.151836 4.193037,17.107765 4.193271,17.075239 4.193019,17.061539 4.192778,17.003424 4.192778,16.962481 4.1932,16.860702 4.605889,16.860466 4.759672,16.860466" style="fill: white" /><polygon type="contour" points="3.626518,16.860486 3.717307,16.860486 3.717534,16.921339 3.717534,17.003222 3.642773,17.003012 3.521717,17.002942 3.52181,16.948076 3.52181,16.860378" style="fill: white" /><polygon type="contour" points="3.010801,16.904158 3.010801,17.002942 2.819417,17.00307 2.678142,17.00336 2.678142,16.860558 2.847361,16.860558 3.010511,16.860378" style="fill: white" /><polygon type="contour" points="3.010511,16.249488 3.010511,16.45369 2.882214,16.45369 2.678142,16.453559 2.678142,16.284339 2.678011,16.121191 2.882214,16.121191 3.010801,16.1209" style="fill: white" /><polygon type="contour" points="3.590306,16.121276 3.717739,16.121276 3.717538,16.249488 3.717307,16.453677 3.626518,16.453677 3.52181,16.45369 3.52181,16.249488 3.521717,16.1209" style="fill: white" /><polygon type="contour" points="3.717534,15.414166 3.717534,15.497479 3.717739,15.609717 3.657303,15.609985 3.521717,15.609985 3.521985,15.541394 3.521985,15.413963 3.590307,15.413963" style="fill: white" /><polygon type="contour" points="3.010426,15.413963 3.010801,15.474398 3.010801,15.609985 2.882213,15.609892 2.678011,15.609892 2.678011,15.534264 2.678025,15.414069 2.882213,15.413893" style="fill: white" /><polygon type="contour" points="2.271216,15.505183 2.271325,15.609892 2.227545,15.609985 2.128759,15.609985 2.128584,15.541395 2.128478,15.414167 2.194797,15.414069 2.271216,15.414069" style="fill: white" /><polygon type="contour" points="2.183626,16.121191 2.271325,16.121191 2.271143,16.284339 2.271143,16.453559 2.128343,16.453559 2.128634,16.312284 2.12876,16.1209" style="fill: white" /><polygon type="contour" points="1.979866,16.86028 2.021513,16.86028 2.022919,16.860219 2.054724,16.860247 2.068277,16.860268 2.128342,16.860558 2.271143,16.860558 2.271143,17.00336 2.271435,17.063426 2.271453,17.076975 2.271483,17.108784 2.271421,17.151836 2.271593,17.153856 2.271637,17.193264 2.075307,17.19372 2.074497,17.19386 1.937985,17.193716 1.937985,17.162273 1.938465,16.947472 1.938379,16.860122" style="fill: white" />
</svg>
