<svg width="19.131698" height="19.131699">
<polygon type="contour" points="10.361223,8.59543 10.3817,8.598103 10.393168,8.601415 10.413199,8.607203 10.423647,8.612299 10.441899,8.621203 10.451584,8.628083 10.4685,8.640099 10.476909,8.648509 10.491599,8.663201 10.498479,8.672885 10.510499,8.689803 10.515595,8.700251 10.524498,8.718502 10.527813,8.729971 10.533601,8.750002 10.535129,8.761725 10.537801,8.782203 10.537291,8.793924 10.536401,8.814401 10.534107,8.826124 10.530099,8.846601 10.525766,8.85756 10.518201,8.876701 10.512084,8.886894 10.501399,8.904702 10.493752,8.913622 10.480399,8.929201 10.480399,10.202501 10.501399,10.227002 10.507515,10.237195 10.518201,10.255003 10.522532,10.26596 10.530099,10.285101 10.532392,10.296825 10.536401,10.317304 10.53691,10.329025 10.537801,10.349501 10.536272,10.361224 10.533601,10.381702 10.530286,10.39317 10.524498,10.413201 10.519402,10.423649 10.510498,10.441901 10.503618,10.451585 10.491599,10.468502 10.468501,10.4916 10.458815,10.498482 10.441899,10.510501 10.43145,10.515597 10.413198,10.524502 10.40173,10.527815 10.3817,10.533602 10.369976,10.535131 10.349499,10.537803 10.337778,10.537293 10.317302,10.536403 10.305578,10.534109 10.2851,10.530101 10.27414,10.525768 10.255,10.518203 10.244805,10.512085 10.227,10.501401 10.21808,10.493756 10.202499,10.480402 8.929199,10.480402 8.9047,10.5014 8.894506,10.507517 8.8767,10.518202 8.865741,10.522535 8.8466,10.530101 8.834877,10.532394 8.814399,10.536403 8.802677,10.536912 8.782201,10.537803 8.770477,10.536274 8.749998,10.533601 8.738531,10.530289 8.718501,10.524502 8.708052,10.519405 8.6898,10.5105 8.680116,10.50362 8.663199,10.491601 8.654788,10.483191 8.6401,10.468503 8.63322,10.458818 8.621202,10.441901 8.616105,10.431452 8.607202,10.413201 8.603887,10.401732 8.5981,10.381702 8.59657,10.369978 8.5939,10.349501 8.594409,10.33778 8.5953,10.317304 8.597593,10.30558 8.601602,10.285102 8.605934,10.274143 8.6135,10.255003 8.619616,10.244808 8.6303,10.227001 8.637945,10.218082 8.651301,10.202502 8.651301,8.929201 8.6303,8.904702 8.624183,8.894507 8.6135,8.876701 8.609167,8.865742 8.601602,8.846602 8.599308,8.834878 8.5953,8.8144 8.59479,8.802679 8.5939,8.782203 8.595428,8.770479 8.5981,8.750002 8.601414,8.738533 8.607202,8.718503 8.612298,8.708054 8.621202,8.689803 8.628081,8.680118 8.6401,8.6632 8.648509,8.654791 8.663198,8.6401 8.672884,8.633219 8.689801,8.621202 8.700249,8.616106 8.718501,8.607203 8.729969,8.603889 8.749998,8.598103 8.761722,8.596574 8.782201,8.593902 8.793922,8.594411 8.814399,8.595302 8.826122,8.597595 8.846601,8.601604 8.857559,8.605936 8.8767,8.613502 8.886893,8.619617 8.9047,8.630301 8.913619,8.637946 8.929199,8.651302 10.161621,8.651302 10.161621,8.669525 10.191996,8.651302 10.2025,8.651302 10.226999,8.630301 10.255,8.613501 10.265959,8.609169 10.2851,8.601604 10.296823,8.59931 10.317302,8.595302 10.329023,8.594792 10.3495,8.593902" style="fill: white" />
</svg>
