<svg width="19.131698" height="19.131699">
<polygon type="contour" points="6.615325,12.772259 6.615325,12.802382 6.616296,12.904116 6.616296,12.920451 6.585793,12.920573 6.329223,12.919874 6.329223,13.075389 6.329211,13.085303 6.329211,13.094996 6.311836,13.095527 6.23929,13.098234 6.028839,13.102863 6.035204,12.912822 6.034033,12.805154 6.142312,12.803238 6.211826,12.802248 6.211129,12.545908 6.211251,12.515406 6.324633,12.516378 6.348595,12.516378 6.578478,12.515406 6.616296,12.515406" style="fill: white" /><polygon type="contour" points="8.084545,12.515406 8.126124,12.515406 8.126058,12.545907 8.126569,12.812039 8.122536,13.09741 7.878079,13.094592 7.835591,13.094827 7.835591,12.92018 7.600205,12.920545 7.575495,12.920451 7.576396,12.807068 7.576396,12.783105 7.575495,12.553222 7.575495,12.515406 7.761445,12.515207 7.83561,12.515207" style="fill: white" /><polygon type="contour" points="7.967268,11.016196 8.116655,11.015047 8.126247,11.279939 8.125803,11.348866 8.126453,11.348866 8.126089,11.531497 8.126124,11.556207 7.865971,11.556061 7.835611,11.556061 7.835611,11.556017 7.604799,11.556207 7.575495,11.556207 7.575641,11.370255 7.575641,11.34886 7.575671,11.34886 7.575495,11.047156 7.575495,11.005577 7.600206,11.005612 7.830323,11.005155" style="fill: white" /><polygon type="contour" points="6.585793,11.005644 6.616296,11.005577 6.616495,11.26573 6.616495,11.34886 6.616296,11.526903 6.616296,11.556207 6.35944,11.555306 6.329317,11.555306 6.227586,11.556207 6.211251,11.556207 6.211157,11.531496 6.21152,11.296111 6.036874,11.296111 6.037109,11.253622 6.034374,11.009193 6.319544,11.005133" style="fill: white" /><polygon type="contour" points="6.196152,6.031348 6.311836,6.036176 6.329219,6.036693 6.329223,6.056313 6.329223,6.211952 6.495816,6.211145 6.616296,6.211253 6.615325,6.324635 6.615325,6.348598 6.616296,6.578481 6.616296,6.616298 6.35944,6.615326 6.329317,6.615326 6.227585,6.616298 6.211251,6.616298 6.211129,6.585795 6.211826,6.329455 6.142312,6.328465 6.034033,6.326549 6.035203,6.21888 6.028839,6.028839 6.078327,6.023433" style="fill: white" /><polygon type="contour" points="6.616495,7.761447 6.616495,7.835612 6.616296,8.084547 6.616296,8.126126 6.585794,8.12606 6.319661,8.126571 6.034292,8.122538 6.035914,7.970208 6.037108,7.878081 6.036874,7.835593 6.21152,7.835593 6.211157,7.600207 6.211251,7.575496 6.324633,7.576397 6.348595,7.576397 6.578479,7.575496 6.616295,7.575496" style="fill: white" /><polygon type="contour" points="8.12609,7.600207 8.126547,7.830323 8.115505,7.967269 8.116655,8.116657 7.971296,8.114362 7.900585,8.123821 7.851763,8.126248 7.782835,8.125719 7.782835,8.126454 7.600206,8.126092 7.575495,8.126126 7.575641,7.865973 7.575641,7.835613 7.575684,7.835613 7.575495,7.604799 7.575495,7.575496 7.761445,7.575643 7.782842,7.575643 7.782842,7.575674 8.084545,7.575496 8.126124,7.575496" style="fill: white" /><polygon type="contour" points="8.126569,6.319615 8.126058,6.585796 8.126124,6.616298 7.865971,6.616497 7.782842,6.616497 7.604799,6.616298 7.575495,6.616298 7.576396,6.359443 7.576396,6.32932 7.575495,6.227588 7.575495,6.211253 7.600205,6.211159 7.835591,6.211523 7.835591,6.036875 7.878079,6.037109 8.122508,6.034375" style="fill: white" /><polygon type="contour" points="13.096497,6.21888 13.097668,6.326549 12.989388,6.328464 12.919873,6.329455 12.920571,6.585795 12.920449,6.616298 12.807066,6.615326 12.783103,6.615326 12.553221,6.616298 12.515404,6.616298 12.516376,6.359442 12.516376,6.329319 12.515404,6.227588 12.515404,6.211253 12.545906,6.211131 12.802477,6.211828 12.802479,6.056313 12.802491,6.0464 12.802491,6.036708 12.819865,6.036176 12.89241,6.033469 13.102862,6.02884" style="fill: white" /><polygon type="contour" points="11.161494,6.035915 11.253619,6.03711 11.296109,6.036875 11.296109,6.211523 11.531495,6.211159 11.556205,6.211253 11.555304,6.324635 11.555304,6.348598 11.556205,6.57848 11.556205,6.616298 11.370254,6.616497 11.296089,6.616497 11.047155,6.616298 11.005576,6.616298 11.005643,6.585796 11.005131,6.3196 11.009165,6.034294" style="fill: white" /><polygon type="contour" points="11.556059,7.761447 11.556059,7.782844 11.556028,7.782844 11.556205,8.084547 11.556205,8.126126 11.531494,8.126091 11.348865,8.126454 11.348865,8.125804 11.279936,8.126247 11.231114,8.12382 11.015045,8.116657 11.017339,7.971298 11.007881,7.900587 11.005454,7.851764 11.005982,7.782837 11.005248,7.782837 11.005611,7.600207 11.005576,7.575496 11.265728,7.575643 11.296089,7.575643 11.296089,7.575686 11.526901,7.575496 11.556205,7.575496" style="fill: white" /><polygon type="contour" points="12.920543,7.600207 12.920179,7.835593 13.094825,7.835593 13.09459,7.878081 13.095787,7.970208 13.097326,8.12251 12.812087,8.126571 12.545905,8.12606 12.515404,8.126126 12.515204,7.865973 12.515204,7.782844 12.515404,7.604799 12.515404,7.575496 12.772259,7.576397 12.802382,7.576397 12.904113,7.575497 12.920449,7.575496" style="fill: white" /><polygon type="contour" points="13.097409,11.009167 13.09459,11.253621 13.094825,11.296111 12.920179,11.296111 12.920543,11.531496 12.920449,11.556207 12.807066,11.555306 12.783104,11.555306 12.553221,11.556207 12.515404,11.556207 12.515204,11.370255 12.515204,11.29609 12.515404,11.047157 12.515404,11.005577 12.545905,11.005644 12.812118,11.005134" style="fill: white" /><polygon type="contour" points="11.531494,11.005612 11.556205,11.005577 11.556059,11.26573 11.556059,11.296091 11.556015,11.296091 11.556205,11.526903 11.556205,11.556207 11.370254,11.556061 11.348858,11.556061 11.348858,11.55603 11.047155,11.556207 11.005576,11.556207 11.005611,11.531497 11.005248,11.348866 11.005893,11.348866 11.005454,11.279939 11.007881,11.231116 11.015045,11.015047 11.160403,11.017342 11.231115,11.007882 11.279936,11.005456 11.348865,11.005895 11.348865,11.005249" style="fill: white" /><polygon type="contour" points="11.526901,12.515406 11.556205,12.515406 11.555304,12.77226 11.555304,12.802382 11.556205,12.904116 11.556205,12.920451 11.531495,12.920545 11.296109,12.92018 11.296109,13.094827 11.253619,13.094591 11.161494,13.095788 11.009191,13.097328 11.005131,12.812148 11.005643,12.545908 11.005576,12.515406 11.265728,12.515207 11.348858,12.515207" style="fill: white" /><polygon type="contour" points="12.920571,12.545908 12.919873,12.802248 12.989388,12.803238 13.097668,12.805154 13.096497,12.912822 13.102862,13.102864 13.053373,13.108271 12.935547,13.100355 12.819863,13.095527 12.802477,13.095008 12.802477,13.092116 12.802489,13.085302 12.802477,13.075389 12.802477,12.919751 12.635884,12.920559 12.515404,12.920451 12.516376,12.807068 12.516376,12.783104 12.515404,12.553222 12.515404,12.515406 12.772259,12.516378 12.802382,12.516378 12.904113,12.515406 12.920449,12.515406" style="fill: white" />
</svg>
