<svg width="19.131698" height="19.131699">
<polygon type="contour" points="6.636688,7.392709 6.636688,7.483552 6.485316,7.48454 6.421771,7.485281 6.421771,7.320695 6.421808,7.177152 6.443782,7.177152 6.636804,7.177053" style="fill: white" /><polygon type="contour" points="6.263708,7.177152 6.296474,7.177152 6.296474,7.454284 6.296516,7.485334 6.156066,7.484634 6.001022,7.483501 6.001022,7.407491 6.000792,7.176935" style="fill: white" /><polygon type="contour" points="5.505884,7.17722 5.506866,7.40316 5.507225,7.480994 5.280889,7.482864 5.201327,7.482776 5.201515,7.426371 5.201383,7.407956 5.201258,7.329742 5.200979,7.184108 5.265793,7.184784 5.289357,7.184784 5.313182,7.184812 5.377584,7.184877 5.377924,7.177152 5.409253,7.177152" style="fill: white" /><polygon type="contour" points="5.407943,5.195891 5.505799,5.199805 5.505707,5.495113 5.505707,5.505708 5.397441,5.505801 5.199805,5.505801 5.199131,5.336191 5.194016,5.194018" style="fill: white" /><polygon type="contour" points="5.50778,6.087934 5.508046,6.296434 5.494779,6.296518 5.378319,6.296518 5.378314,6.26371 5.37766,6.000793 5.50778,6.000793" style="fill: white" /><polygon type="contour" points="5.508046,6.445627 5.507996,6.636831 5.476787,6.636806 5.377394,6.636806 5.37743,6.586659 5.378319,6.421824 5.392892,6.421822 5.508046,6.421822" style="fill: white" /><polygon type="contour" points="6.030856,6.421824 6.296516,6.421824 6.296474,6.443784 6.296474,6.636081 6.263708,6.636098 6.00045,6.636831 6.001031,6.445627 6.001031,6.421822" style="fill: white" /><polygon type="contour" points="6.63608,6.443784 6.636804,6.636806 6.585955,6.636806 6.421808,6.636082 6.421822,6.614459 6.421822,6.421824 6.443782,6.42181 6.63608,6.42181" style="fill: white" /><polygon type="contour" points="6.636098,6.26371 6.63608,6.296476 6.614457,6.296518 6.421822,6.296518 6.42182,6.26371 6.42182,6.001033 6.445625,6.001033 6.636829,6.000452" style="fill: white" /><polygon type="contour" points="6.263708,6.001032 6.296432,6.001034 6.296516,6.030858 6.296516,6.296518 6.263709,6.296434 6.001031,6.296434 6.001031,6.26371 6.000791,6.000792 6.221061,6.000451" style="fill: white" /><polygon type="contour" points="6.263709,5.378316 6.272342,5.378321 6.296516,5.378321 6.296432,5.392894 6.296432,5.508048 6.263709,5.508048 6.000792,5.507781 6.000792,5.377662" style="fill: white" /><polygon type="contour" points="6.636829,5.41076 6.636829,5.507998 6.582421,5.507998 6.42182,5.508048 6.421822,5.494782 6.421822,5.378321 6.586657,5.377432 6.636804,5.377396" style="fill: white" /><polygon type="contour" points="7.331081,5.201464 7.407954,5.201385 7.426369,5.201516 7.482744,5.201346 7.482122,5.218218 7.482408,5.223036 7.483057,5.242625 7.480872,5.507373 7.403156,5.506867 7.177218,5.505886 7.177219,5.470864 7.177233,5.375843 7.184796,5.375077 7.184134,5.248805 7.184105,5.20098" style="fill: white" /><polygon type="contour" points="7.407489,6.001023 7.4835,6.001023 7.484187,6.222444 7.485071,6.296305 7.322221,6.296305 7.17715,6.296476 7.17715,6.26371 7.176933,6.000793" style="fill: white" /><polygon type="contour" points="7.484538,6.485317 7.483551,6.63669 7.392707,6.63669 7.177051,6.636806 7.17715,6.443784 7.17715,6.42181 7.320693,6.421773 7.48528,6.421773" style="fill: white" /><polygon type="contour" points="7.481121,7.177114 7.485391,7.437685 7.483936,7.483939 7.437683,7.485394 7.176921,7.481256 7.177173,7.362563 7.177173,7.177175 7.356229,7.176922" style="fill: white" /><polygon type="contour" points="11.769138,7.177175 11.954528,7.177175 11.95478,7.356232 11.954588,7.481124 11.694018,7.485394 11.647765,7.483939 11.646309,7.437686 11.650444,7.176922" style="fill: white" /><polygon type="contour" points="11.95455,6.42181 11.95455,6.443785 11.95465,6.636806 11.738991,6.63669 11.648149,6.63669 11.647162,6.485317 11.64642,6.421773 11.811006,6.421773" style="fill: white" /><polygon type="contour" points="11.954774,6.08264 11.95455,6.296476 11.677416,6.296476 11.646367,6.296518 11.647066,6.156068 11.648201,6.001023 11.724211,6.001023 11.954767,6.000793" style="fill: white" /><polygon type="contour" points="11.947565,5.248806 11.946892,5.377518 11.954551,5.377926 11.95455,5.409254 11.95448,5.505886 11.728543,5.506867 11.650709,5.507227 11.648838,5.280891 11.648926,5.201329 11.70533,5.201517 11.723745,5.201385 11.801625,5.201261 11.947596,5.20098" style="fill: white" /><polygon type="contour" points="12.545042,5.377432 12.709878,5.378321 12.709881,5.392893 12.709881,5.508048 12.686074,5.508048 12.494871,5.507998 12.494896,5.476789 12.494896,5.377396" style="fill: white" /><polygon type="contour" points="13.130908,5.377662 13.130908,5.507781 13.043767,5.507782 12.835269,5.508048 12.835185,5.494781 12.835185,5.378321 13.049965,5.377655" style="fill: white" /><polygon type="contour" points="13.93257,5.33619 13.931916,5.506332 13.904932,5.506332 13.671298,5.505801 13.6259,5.505801 13.6259,5.397442 13.625815,5.287042 13.625815,5.199894 13.678337,5.19929 13.775596,5.198047 13.795511,5.199132 13.937684,5.194018" style="fill: white" /><polygon type="contour" points="13.754116,7.184877 13.814263,7.184741 13.842462,7.184708 13.907087,7.184108 13.930721,7.184108 13.930356,7.331251 13.930316,7.407957 13.930183,7.42637 13.930354,7.482745 13.85081,7.482864 13.624476,7.480994 13.624835,7.403159 13.625814,7.17722 13.660838,7.177221 13.753774,7.177152" style="fill: white" /><polygon type="contour" points="13.753384,6.26371 13.753379,6.296518 13.738805,6.296434 13.623654,6.296434 13.623654,6.26371 13.62392,6.000793 13.754038,6.000793" style="fill: white" /><polygon type="contour" points="13.636919,6.421824 13.753378,6.421824 13.75427,6.586659 13.754306,6.636806 13.72094,6.636831 13.623703,6.636831 13.623703,6.582423 13.623654,6.421822" style="fill: white" /><polygon type="contour" points="13.130668,6.445627 13.131249,6.636831 12.867991,6.636098 12.835227,6.636082 12.835185,6.614458 12.835185,6.421824 12.867992,6.421822 13.130668,6.421822" style="fill: white" /><polygon type="contour" points="13.130908,6.087934 13.130668,6.296434 13.100843,6.296518 12.835185,6.296518 12.835269,6.263711 12.835269,6.001034 12.867992,6.001032 13.130908,6.000793" style="fill: white" /><polygon type="contour" points="12.709881,6.001032 12.709878,6.030859 12.709878,6.296518 12.687917,6.296476 12.49562,6.296476 12.495602,6.26371 12.494871,6.000452 12.549279,6.000452" style="fill: white" /><polygon type="contour" points="12.517242,6.421824 12.709878,6.421824 12.709893,6.443784 12.709893,6.636082 12.687917,6.636082 12.494896,6.636806 12.494896,6.585957 12.49562,6.42181" style="fill: white" /><polygon type="contour" points="12.709893,7.177152 12.709893,7.454284 12.709878,7.485334 12.609605,7.484627 12.495012,7.483552 12.495012,7.392709 12.494896,7.177053 12.545745,7.177053" style="fill: white" /><polygon type="contour" points="13.130678,7.407491 13.130678,7.483501 12.909258,7.484188 12.835398,7.485073 12.835398,7.322223 12.835226,7.177152 12.867992,7.177152 13.130908,7.176935" style="fill: white" /><polygon type="contour" points="13.908662,11.649293 13.91348,11.649581 13.930372,11.648928 13.930183,11.705332 13.930316,11.723746 13.930441,11.80196 13.930722,11.947597 13.865906,11.94692 13.842341,11.94692 13.818518,11.946893 13.754115,11.946827 13.753773,11.954552 13.722444,11.954551 13.625815,11.954482 13.624834,11.728543 13.624331,11.650829 13.889075,11.648644" style="fill: white" /><polygon type="contour" points="12.709878,13.636921 12.709878,13.753381 12.545042,13.754273 12.494896,13.754309 12.494871,13.720943 12.494871,13.623706 12.549279,13.623706 12.709881,13.623656" style="fill: white" /><polygon type="contour" points="13.130908,13.623922 13.130908,13.75404 12.867991,13.753387 12.859358,13.753382 12.835185,13.753382 12.835269,13.738808 12.835269,13.623656 12.867992,13.623656" style="fill: white" /><polygon type="contour" points="13.93257,13.795512 13.937684,13.937685 13.723755,13.935813 13.6259,13.931898 13.6259,13.625903 13.931896,13.625903" style="fill: white" /><polygon type="contour" points="13.754044,13.049968 13.754038,13.130911 13.62392,13.130911 13.62392,13.04377 13.623654,12.83527 13.63692,12.835186 13.753379,12.835186" style="fill: white" /><polygon type="contour" points="13.654911,12.494898 13.754306,12.494898 13.75427,12.545044 13.753379,12.709879 13.738806,12.709882 13.623654,12.709882 13.623654,12.686075 13.623703,12.494873" style="fill: white" /><polygon type="contour" points="11.95478,11.650447 11.954528,11.769141 11.954528,11.954529 11.775469,11.954782 11.650579,11.954589 11.646309,11.694018 11.647765,11.647766 11.694018,11.64631" style="fill: white" /><polygon type="contour" points="12.909258,11.647515 13.130678,11.648202 13.130678,11.724212 13.130908,11.954769 12.867991,11.954551 12.835227,11.954552 12.835398,11.80948 12.835398,11.64663" style="fill: white" /><polygon type="contour" points="12.70993,11.811008 12.709893,11.954552 12.687918,11.954552 12.494896,11.95465 12.495012,11.738992 12.495012,11.64815 12.646384,11.647164 12.70993,11.646421" style="fill: white" /><polygon type="contour" points="12.709893,12.495623 12.709878,12.517245 12.709878,12.709879 12.687917,12.709894 12.49562,12.709894 12.49562,12.687919 12.494896,12.494898 12.545745,12.494898" style="fill: white" /><polygon type="contour" points="13.130668,12.686076 13.130668,12.709882 13.100843,12.709879 12.835185,12.709879 12.835227,12.687918 12.835227,12.495623 12.867992,12.495605 13.131249,12.494873" style="fill: white" /><polygon type="contour" points="12.867991,12.83527 13.130668,12.83527 13.130668,12.867993 13.130908,13.130911 12.910638,13.13125 12.867991,13.13067 12.835269,13.13067 12.835185,13.100845 12.835185,12.835186" style="fill: white" /><polygon type="contour" points="12.709881,12.867992 12.709881,13.13067 12.686074,13.13067 12.494871,13.13125 12.495602,12.867992 12.49562,12.835228 12.517243,12.835186 12.709878,12.835186" style="fill: white" /><polygon type="contour" points="11.95455,12.687918 11.95455,12.709894 11.677416,12.709894 11.646367,12.709879 11.647072,12.609608 11.648149,12.495014 11.738991,12.495014 11.95465,12.494898" style="fill: white" /><polygon type="contour" points="11.954549,12.867993 11.954767,13.130911 11.724211,13.130681 11.648201,13.130681 11.647514,12.909259 11.646628,12.835399 11.809478,12.835399 11.95455,12.835228" style="fill: white" /><polygon type="contour" points="11.728542,13.624835 11.95448,13.625817 11.954479,13.66084 11.954528,13.755696 11.946868,13.749746 11.947565,13.882897 11.947596,13.930724 11.800619,13.930241 11.723744,13.930318 11.705331,13.930185 11.648957,13.930356 11.648838,13.850811 11.650709,13.624478" style="fill: white" /><polygon type="contour" points="7.483058,13.889077 7.482409,13.908664 7.482122,13.913483 7.482775,13.930374 7.42637,13.930184 7.407954,13.930318 7.330076,13.930442 7.184105,13.930724 7.184134,13.882898 7.184809,13.754185 7.177149,13.753776 7.17715,13.722447 7.177218,13.625817 7.403156,13.624836 7.480873,13.624332" style="fill: white" /><polygon type="contour" points="6.636829,13.623706 6.636804,13.654914 6.636804,13.754309 6.586657,13.754273 6.421822,13.753382 6.42182,13.738808 6.42182,13.623656 6.445626,13.623656" style="fill: white" /><polygon type="contour" points="6.296516,13.636922 6.296516,13.753382 6.263708,13.753387 6.000792,13.75404 6.000792,13.623922 6.087932,13.623922 6.296432,13.623656" style="fill: white" /><polygon type="contour" points="5.507371,11.650829 5.506866,11.728543 5.505884,11.954482 5.470862,11.954481 5.377923,11.954552 5.377583,11.946827 5.317436,11.946963 5.289238,11.946996 5.22461,11.947597 5.200979,11.947597 5.201344,11.800452 5.201383,11.723747 5.201515,11.705333 5.201344,11.648958 5.218216,11.64958 5.223034,11.649294 5.242623,11.648644" style="fill: white" /><polygon type="contour" points="6.296303,11.80948 6.296474,11.954552 6.263709,11.954551 6.000792,11.954769 6.001022,11.724212 6.001022,11.648202 6.222441,11.647515 6.296303,11.646629" style="fill: white" /><polygon type="contour" points="6.485317,11.647165 6.636688,11.64815 6.636688,11.738992 6.636804,11.95465 6.585955,11.95465 6.421808,11.954552 6.421771,11.811008 6.421771,11.646421" style="fill: white" /><polygon type="contour" points="7.483936,11.647766 7.485391,11.694019 7.481254,11.954782 7.36256,11.954529 7.177173,11.954529 7.176921,11.775471 7.177112,11.65058 7.437682,11.64631" style="fill: white" /><polygon type="contour" points="7.392707,12.495014 7.483551,12.495014 7.484538,12.646386 7.48528,12.709931 7.320693,12.709931 7.17715,12.709894 7.17715,12.687919 7.177051,12.494898" style="fill: white" /><polygon type="contour" points="7.322221,12.835399 7.485071,12.835399 7.484187,12.909259 7.4835,13.130681 7.407489,13.130681 7.176933,13.130911 7.176927,13.049064 7.17715,12.835227" style="fill: white" /><polygon type="contour" points="6.636804,12.545746 6.636079,12.709894 6.614458,12.709879 6.421822,12.709879 6.421808,12.687918 6.421808,12.495623 6.443782,12.495623 6.636804,12.494898" style="fill: white" /><polygon type="contour" points="6.443782,12.835228 6.63608,12.835228 6.636098,12.867992 6.636829,13.13125 6.582422,13.13125 6.42182,13.13067 6.421822,13.100844 6.421822,12.835186" style="fill: white" /><polygon type="contour" points="6.296432,12.867992 6.296432,13.13067 6.263709,13.13067 6.000792,13.13091 6.000792,13.04377 6.001031,12.83527 6.030855,12.835186 6.296516,12.835186" style="fill: white" /><polygon type="contour" points="6.263708,12.495605 6.296474,12.495623 6.296516,12.517246 6.296516,12.709879 6.263709,12.709882 6.001031,12.709882 6.001031,12.686076 6.00045,12.494872" style="fill: white" /><polygon type="contour" points="5.507996,12.54928 5.508046,12.709882 5.49478,12.709879 5.378319,12.709879 5.37743,12.545044 5.377394,12.494898 5.410759,12.494873 5.507996,12.494873" style="fill: white" /><polygon type="contour" points="5.392893,12.83527 5.508046,12.83527 5.508046,12.867992 5.50778,13.130911 5.37766,13.130911 5.378314,12.867993 5.378319,12.835186" style="fill: white" /><polygon type="contour" points="5.460399,13.625903 5.505799,13.625903 5.505799,13.931898 5.356104,13.933658 5.336188,13.932571 5.194016,13.937685 5.199131,13.795512 5.199782,13.62537 5.226766,13.62537" style="fill: white" />
</svg>
