<svg width="19.131698" height="19.131699">
<polygon type="contour" points="4.393201,4.114808 4.393201,4.159195 4.6354,4.159195 4.6354,4.114808 4.718701,4.114808 4.718701,4.159195 4.961599,4.159195 4.961599,4.114808 5.0449,4.114808 5.0449,4.159195 5.287801,4.159195 5.287801,4.114808 5.3704,4.114808 5.3704,4.159195 5.613301,4.159195 5.613301,4.114808 5.696601,4.114808 5.696601,4.159195 5.9395,4.159195 5.9395,4.114808 6.022799,4.114808 6.022799,4.159195 6.265,4.159195 6.265,4.114808 6.3483,4.114808 6.3483,4.159195 6.591201,4.159195 6.591201,4.114808 6.6745,4.114808 6.6745,4.159195 6.917399,4.159195 6.917399,4.114808 6.999999,4.114808 6.999999,4.159195 7.2429,4.159195 7.2429,4.114808 7.326199,4.114808 7.326199,4.159195 7.5691,4.159195 7.5691,4.114808 7.6524,4.114808 7.6524,4.159195 7.894599,4.159195 7.894599,4.114808 7.977898,4.114808 7.977898,4.159195 8.220799,4.159195 8.220799,4.114808 8.304099,4.114808 8.304099,4.159195 8.5463,4.159195 8.5463,4.114808 8.6296,4.114808 8.6296,4.159195 8.872499,4.159195 8.872499,4.114808 8.955798,4.114808 8.955798,4.159195 9.198699,4.159195 9.198699,4.114808 9.281299,4.114808 9.281299,4.159195 9.524199,4.159195 9.524199,4.114808 9.59484,4.115517 9.607499,4.115517 9.607499,4.159195 9.850398,4.159195 9.850398,4.114808 9.933,4.114808 9.933,4.159195 10.175899,4.159195 10.175899,4.114808 10.259202,4.114808 10.259202,4.159195 10.502101,4.159195 10.502101,4.114808 10.585401,4.114808 10.585401,4.159195 10.8276,4.159195 10.8276,4.114808 10.910901,4.114808 10.910901,4.159195 11.153802,4.159195 11.153802,4.114808 11.237102,4.114808 11.237102,4.159195 11.4793,4.159195 11.4793,4.114808 11.5626,4.114808 11.5626,4.159195 11.805501,4.159195 11.805501,4.114808 11.888801,4.114808 11.888801,4.159195 12.131701,4.159195 12.131701,4.114808 12.214301,4.114808 12.214301,4.159195 12.4572,4.159195 12.4572,4.114808 12.5405,4.114808 12.5405,4.159195 12.783401,4.159195 12.783401,4.114808 12.8667,4.114808 12.8667,4.159195 13.108901,4.159195 13.108901,4.114808 13.192199,4.114808 13.192199,4.159195 13.4351,4.159195 13.4351,4.114808 13.518399,4.114808 13.518399,4.159195 13.7613,4.159195 13.7613,4.114808 13.8439,4.114808 13.8439,4.159195 14.086799,4.159195 14.086799,4.114808 14.1701,4.114808 14.1701,4.159195 14.412999,4.159195 14.412999,4.114808 14.496299,4.114808 14.496299,4.159195 14.7385,4.159195 14.7385,4.114808 14.808454,4.114808 14.821908,4.114763 14.815632,4.150455 14.832886,4.150402 14.832954,4.154474 14.863099,4.166768 14.891628,4.180281 14.908174,4.191653 14.92584,4.208955 14.94513,4.233344 14.965729,4.264206 14.966348,4.265856 14.966805,4.267678 14.973234,4.309901 15.01694,4.309901 15.016894,4.323245 15.016894,4.393202 14.972507,4.393202 14.972507,4.635401 15.016894,4.635401 15.016894,4.718703 14.972507,4.718703 14.972507,4.961601 15.016894,4.961601 15.016894,5.044902 14.972507,5.044902 14.972507,5.287802 15.016894,5.287802 15.016894,5.370402 14.972507,5.370402 14.972507,5.613302 15.016894,5.613302 15.016894,5.696602 14.972507,5.696602 14.972507,5.939502 15.016894,5.939502 15.016894,6.022802 14.972507,6.022802 14.972507,6.265002 15.016894,6.265002 15.016894,6.348302 14.972507,6.348302 14.972507,6.591202 15.016894,6.591202 15.016894,6.674501 14.972507,6.674501 14.972507,6.917402 15.016894,6.917402 15.016894,7.000002 14.972507,7.000002 14.972507,7.242902 15.016894,7.242902 15.016894,7.326201 14.972507,7.326201 14.972507,7.569101 15.016894,7.569101 15.016894,7.652401 14.972507,7.652401 14.972507,7.894602 15.016894,7.894602 15.016894,7.977901 14.972507,7.977901 14.972507,8.220801 15.016894,8.220801 15.016894,8.304101 14.972507,8.304101 14.972507,8.546302 15.016894,8.546302 15.016894,8.629601 14.972507,8.629601 14.972507,8.872501 15.016895,8.872501 15.016894,8.885845 15.016894,8.955801 14.972507,8.955801 14.972507,9.198701 15.016894,9.198701 15.016894,9.281301 14.972507,9.281301 14.972507,9.524201 15.016894,9.524201 15.016186,9.594843 15.016186,9.607501 14.972507,9.607501 14.972507,9.850401 15.016894,9.850401 15.016894,9.933001 14.972507,9.933001 14.972507,10.1759 15.016894,10.1759 15.016894,10.259203 14.972507,10.259203 14.972507,10.502103 15.016894,10.502103 15.016894,10.585402 14.972507,10.585402 14.972507,10.8276 15.016894,10.8276 15.016894,10.910903 14.972507,10.910903 14.972507,11.153803 15.016894,11.153803 15.016894,11.237103 14.972507,11.237103 14.972507,11.479303 15.016894,11.479303 15.016894,11.562603 14.972507,11.562603 14.972507,11.805503 15.016894,11.805503 15.016894,11.888803 14.972507,11.888803 14.972507,12.131702 15.016894,12.131702 15.016894,12.214302 14.972507,12.214302 14.972507,12.457203 15.016894,12.457203 15.016894,12.540503 14.972507,12.540503 14.972507,12.783402 15.016894,12.783402 15.016894,12.866702 14.972507,12.866702 14.972507,13.108902 15.016894,13.108902 15.016894,13.192202 14.972507,13.192202 14.972507,13.435102 15.016894,13.435102 15.016894,13.518402 14.972507,13.518402 14.972507,13.761302 15.016894,13.761302 15.016894,13.843903 14.972507,13.843903 14.972507,14.086802 15.016894,14.086802 15.016894,14.170101 14.972507,14.170101 14.972507,14.413002 15.016894,14.413002 15.016894,14.496302 14.972507,14.496302 14.972507,14.738503 15.016894,14.738503 15.016983,14.751408 15.016983,14.821802 14.978775,14.821802 14.959275,14.875519 14.951263,14.893166 14.926389,14.921778 14.910382,14.939147 14.897101,14.946607 14.876094,14.958126 14.864045,14.965097 14.8223,14.978196 14.82191,15.016895 14.7385,15.016895 14.7385,14.972509 14.496299,14.972509 14.496299,15.016895 14.412999,15.016895 14.412999,14.972509 14.1701,14.972509 14.1701,15.016895 14.086801,15.016895 14.086801,14.972509 13.8439,14.972509 13.8439,15.016895 13.7613,15.016895 13.7613,14.972509 13.518399,14.972509 13.518399,15.016895 13.4351,15.016895 13.4351,14.972509 13.192201,14.972509 13.192201,15.016895 13.108901,15.016895 13.108901,14.972509 12.8667,14.972509 12.8667,15.016895 12.783401,15.016895 12.783401,14.972509 12.5405,14.972509 12.5405,15.016895 12.4572,15.016895 12.4572,14.972509 12.214301,14.972509 12.214301,15.016895 12.131701,15.016895 12.131701,14.972509 11.888801,14.972509 11.888801,15.016895 11.805501,15.016895 11.805501,14.972509 11.5626,14.972509 11.5626,15.016895 11.4793,15.016895 11.4793,14.972509 11.237102,14.972509 11.237102,15.016895 11.153802,15.016895 11.153802,14.972509 10.910901,14.972509 10.910901,15.016895 10.8276,15.016895 10.8276,14.972509 10.585401,14.972509 10.585401,15.016895 10.502101,15.016895 10.502101,14.972509 10.259202,14.972509 10.259202,15.016895 10.175899,15.016895 10.175899,14.972508 10.118746,14.972508 9.933,14.972509 9.933,15.016895 9.850398,15.016895 9.850398,14.972509 9.607499,14.972509 9.607499,15.016895 9.524199,15.016895 9.524199,14.972509 9.281299,14.972509 9.281299,15.016895 9.198699,15.016895 9.198699,14.972509 8.955798,14.972509 8.955798,15.016895 8.872499,15.016895 8.872499,14.97251 8.815346,14.97251 8.6296,14.972509 8.6296,15.016895 8.5463,15.016895 8.5463,14.972509 8.304099,14.972509 8.304099,15.016895 8.290754,15.016895 8.220799,15.016896 8.220799,14.972509 7.977898,14.972509 7.977898,15.016895 7.894599,15.016895 7.894599,14.972509 7.6524,14.972509 7.6524,15.016895 7.5691,15.016895 7.5691,14.972509 7.326199,14.972509 7.326199,15.016895 7.2429,15.016895 7.2429,14.972509 7.185747,14.972509 6.999999,14.97251 6.999999,15.016895 6.917399,15.016895 6.917399,14.97251 6.860247,14.97251 6.6745,14.972509 6.6745,15.016895 6.661155,15.016895 6.591201,15.016894 6.591201,14.972509 6.3483,14.972509 6.3483,15.016895 6.265,15.016895 6.265,14.972508 6.208012,14.972508 6.022799,14.972509 6.022799,15.016895 5.9395,15.016895 5.9395,14.972509 5.696601,14.972509 5.696601,15.016895 5.613301,15.016895 5.613301,14.972509 5.3704,14.972509 5.3704,15.016895 5.287801,15.016895 5.287801,14.972509 5.0449,14.972509 5.0449,15.016895 4.961599,15.016895 4.961599,14.972509 4.718701,14.972509 4.718701,15.016895 4.6354,15.016895 4.6354,14.972509 4.393201,14.972509 4.393201,15.016895 4.323244,15.016895 4.30979,15.016941 4.315859,14.982417 4.245149,14.953577 4.23395,14.949028 4.221875,14.939404 4.204814,14.920853 4.204055,14.920853 4.183145,14.893167 4.168908,14.871298 4.154326,14.821802 4.114828,14.821802 4.114806,14.808458 4.114806,14.738503 4.159194,14.738503 4.159194,14.496302 4.114806,14.496302 4.114806,14.413002 4.159194,14.413002 4.159194,14.170101 4.114806,14.170101 4.114806,14.086802 4.159194,14.086802 4.159194,13.843903 4.114806,13.843903 4.114806,13.761302 4.159194,13.761302 4.159194,13.518402 4.114806,13.518402 4.114806,13.435102 4.159194,13.435102 4.159194,13.192202 4.114806,13.192202 4.114806,13.108902 4.159194,13.108902 4.159194,12.866702 4.114806,12.866702 4.114806,12.783402 4.159194,12.783402 4.159194,12.540503 4.114806,12.540503 4.114806,12.457203 4.159194,12.457203 4.159194,12.214302 4.114806,12.214302 4.114806,12.131702 4.159194,12.131702 4.159194,11.888803 4.114806,11.888803 4.114806,11.805503 4.159194,11.805503 4.159194,11.562603 4.114806,11.562603 4.114806,11.479303 4.159194,11.479303 4.159194,11.237103 4.114806,11.237103 4.114806,11.153803 4.159194,11.153803 4.159194,10.910903 4.114806,10.910903 4.114806,10.8276 4.159194,10.8276 4.159194,10.585402 4.114806,10.585402 4.114806,10.502103 4.159194,10.502103 4.159194,10.259203 4.114806,10.259203 4.114806,10.1759 4.159194,10.1759 4.159194,9.933001 4.114806,9.933001 4.114806,9.850401 4.159194,9.850401 4.159194,9.607501 4.114806,9.607501 4.115515,9.536859 4.115515,9.524201 4.159194,9.524201 4.159194,9.281301 4.114806,9.281301 4.114806,9.198701 4.159194,9.198701 4.159194,8.955801 4.114806,8.955801 4.114806,8.872501 4.159194,8.872501 4.159194,8.629601 4.114806,8.629601 4.114806,8.546302 4.159194,8.546302 4.159194,8.304101 4.114806,8.304101 4.114806,8.220801 4.159194,8.220801 4.159194,7.977901 4.114806,7.977901 4.114806,7.894602 4.159194,7.894602 4.159194,7.652401 4.114806,7.652401 4.114806,7.569101 4.159194,7.569101 4.159194,7.326201 4.114806,7.326201 4.114806,7.242902 4.159194,7.242902 4.159194,7.000002 4.114806,7.000002 4.114806,6.917402 4.159194,6.917402 4.159194,6.674501 4.114806,6.674501 4.114806,6.591202 4.159194,6.591202 4.159194,6.348302 4.114806,6.348302 4.114806,6.265002 4.159194,6.265002 4.159194,6.022802 4.114806,6.022802 4.114806,5.939502 4.159194,5.939502 4.159194,5.696602 4.114806,5.696602 4.114806,5.613302 4.159194,5.613302 4.159194,5.370402 4.114806,5.370402 4.114806,5.287802 4.159194,5.287802 4.159194,5.044902 4.114806,5.044902 4.114806,4.961601 4.159194,4.961601 4.159194,4.718703 4.114806,4.718703 4.114806,4.635401 4.159194,4.635401 4.159194,4.393202 4.114806,4.393202 4.114828,4.379986 4.114828,4.309901 4.157437,4.309901 4.167292,4.262844 4.188821,4.228264 4.203568,4.208763 4.237077,4.182412 4.253004,4.174055 4.309624,4.15375 4.309754,4.117994 4.309778,4.115176 4.309899,4.114763 4.380234,4.114763" style="fill: white" /><polygon type="hole" points="7.048101,6.965212 7.032876,6.965212 6.966258,6.966327 6.965209,7.023011 6.965209,7.029214 6.965214,7.035779 6.965331,7.048205 6.965125,7.055836 6.965209,7.058535 6.965209,7.784675 6.965491,7.818227 6.965491,7.966814 6.965738,7.990544 6.965773,8.015593 6.965773,8.163334 6.966055,8.196885 6.966055,8.791524 6.966258,8.809618 6.966337,8.838891 6.966337,9.360379 6.966619,9.39393 6.966619,9.542235 6.966779,9.550588 6.966911,9.566201 6.967002,9.578861 6.966779,9.581553 6.966619,9.589885 6.966619,9.738191 6.966337,9.771742 6.966337,10.292813 6.966259,10.322083 6.966055,10.340181 6.966055,10.487923 6.965773,10.521474 6.965773,11.116111 6.965737,11.14116 6.965491,11.164889 6.965491,11.313476 6.965209,11.347028 6.965209,12.073166 6.965125,12.075867 6.965332,12.083497 6.965214,12.095689 6.966345,12.165551 7.028026,12.166344 7.035777,12.166487 7.048203,12.166369 7.055833,12.166576 7.058533,12.166492 7.784673,12.166492 7.818224,12.16621 7.966812,12.16621 7.990542,12.165963 8.015591,12.165928 8.560477,12.165928 8.610228,12.165929 8.643779,12.165647 8.791521,12.165647 8.809618,12.165442 8.838888,12.165364 9.360376,12.165364 9.393927,12.165082 9.542233,12.165082 9.550586,12.164922 9.566198,12.164789 9.578858,12.164699 9.58155,12.164922 9.589882,12.165082 9.738189,12.165082 9.77174,12.165364 10.292811,12.165364 10.322081,12.165442 10.340178,12.165646 10.48792,12.165646 10.521471,12.165928 11.116108,12.165928 11.141157,12.165963 11.164887,12.16621 11.313475,12.16621 11.347026,12.166492 12.073165,12.166492 12.075866,12.166576 12.083496,12.166369 12.095687,12.166487 12.165193,12.164957 12.166343,12.103673 12.166485,12.095689 12.166368,12.083497 12.166574,12.075867 12.166491,12.073165 12.166491,11.29728 12.166209,11.263728 12.166209,11.11514 12.165927,11.066364 12.165927,10.173657 12.165646,10.140104 12.165646,9.992362 12.165363,9.944995 12.165363,9.796407 12.165081,9.762856 12.165081,9.589885 12.164921,9.581553 12.164787,9.566201 12.164698,9.553327 12.16492,9.550589 12.165081,9.542236 12.165081,9.39393 12.165363,9.360379 12.165363,9.211791 12.165646,9.164423 12.165646,9.016682 12.165927,8.983129 12.165927,8.835387 12.166209,8.786611 12.166209,7.867974 12.166491,7.834423 12.166491,7.058535 12.166575,7.055836 12.166368,7.048205 12.166484,7.035779 12.165489,6.966213 12.103672,6.965358 12.095687,6.965216 12.083497,6.965334 12.075865,6.965127 12.073164,6.965212 11.297279,6.965212 11.263726,6.965493 11.115139,6.965493 11.06636,6.965775 10.173654,6.965775 10.140103,6.966057 9.992361,6.966057 9.944993,6.966339 9.796405,6.966339 9.762854,6.966622 9.589882,6.966622 9.581551,6.966782 9.566198,6.966914 9.553324,6.967004 9.550587,6.966782 9.542234,6.966622 9.393927,6.966622 9.360376,6.966339 9.186705,6.966339 9.139337,6.966057 8.991595,6.966057 8.958044,6.965775 8.065339,6.965775 8.01656,6.965493 7.867973,6.965493 7.83442,6.965212 7.058533,6.965212 7.052766,6.965032" style="fill: black" />
</svg>
