<svg width="19.131698" height="19.131699">
<polygon type="contour" points="8.360869,8.207934 8.479311,8.2064 8.479539,8.265214 8.479962,8.279906 8.480805,8.375121 8.594009,8.375129 8.593827,8.477616 8.593827,8.489507 8.594009,8.58297 8.594009,8.594012 8.492693,8.593829 8.480842,8.593829 8.386315,8.594012 8.375127,8.594012 8.375138,8.584559 8.375121,8.480821 8.208482,8.480821 8.208527,8.469728 8.208141,8.385059 8.206806,8.262626 8.205127,8.205129" style="fill: white" /><polygon type="contour" points="8.582967,9.147742 8.594009,9.147742 8.593754,9.240389 8.593754,9.886995 8.594009,9.973804 8.594009,9.983962 8.486562,9.984006 8.480843,9.984004 8.480842,9.984004 8.386316,9.983962 8.375127,9.983962 8.37512,9.975142 8.374908,9.87687 8.208264,9.873971 8.20794,9.671164 8.2073,9.584968 8.2073,9.565989 8.20794,9.480006 8.20794,9.460539 8.208264,9.257734 8.374897,9.25783 8.375127,9.147742 8.483834,9.147695" style="fill: white" /><polygon type="contour" points="10.924894,8.262626 10.923559,8.385059 10.923172,8.469729 10.923208,8.480821 10.756581,8.480821 10.756574,8.594012 10.654086,8.593829 10.642193,8.593829 10.548729,8.594012 10.537688,8.594012 10.537874,8.492694 10.537874,8.480843 10.537688,8.386317 10.537688,8.375129 10.547076,8.37514 10.651738,8.375123 10.651738,8.279907 10.652389,8.2064 10.77083,8.207934 10.926573,8.205129" style="fill: white" /><polygon type="contour" points="9.651696,8.207942 9.671162,8.207942 9.87397,8.208266 9.874256,8.280195 9.873936,8.374899 9.983961,8.375129 9.984004,8.483835 9.983961,8.58297 9.983961,8.594012 9.891314,8.593756 9.244705,8.593756 9.157897,8.594012 9.14774,8.594012 9.147693,8.486563 9.14774,8.386318 9.14774,8.375129 9.156559,8.375122 9.257764,8.374903 9.257445,8.280195 9.25773,8.208266 9.460537,8.207942 9.546733,8.207302 9.565713,8.207302" style="fill: white" /><polygon type="contour" points="9.973802,9.147742 9.983961,9.147742 9.984262,9.240389 9.984262,9.886995 9.983961,9.973804 9.983961,9.983962 9.891314,9.984264 9.244705,9.984264 9.157898,9.983962 9.14774,9.983962 9.147438,9.891315 9.147438,9.244709 9.14774,9.157899 9.14774,9.147742 9.240386,9.14744 9.886995,9.14744" style="fill: white" /><polygon type="contour" points="10.650856,9.147698 10.650857,9.147698 10.745384,9.147742 10.756573,9.147742 10.75658,9.15656 10.756798,9.25783 10.923436,9.257733 10.923759,9.460539 10.924399,9.546735 10.924399,9.566201 10.923759,9.652184 10.923759,9.671164 10.923436,9.873971 10.756802,9.873874 10.756573,9.983962 10.647865,9.984006 10.642193,9.984004 10.54873,9.983962 10.537688,9.983962 10.537947,9.891315 10.537947,9.244709 10.537688,9.157899 10.537688,9.147742 10.645137,9.147695" style="fill: white" /><polygon type="contour" points="10.756563,10.547078 10.756579,10.650883 10.923217,10.650883 10.923172,10.661975 10.923559,10.746644 10.924894,10.869077 10.926573,10.926575 10.770829,10.92377 10.652389,10.925305 10.652159,10.866489 10.651738,10.851797 10.650894,10.756583 10.537688,10.756575 10.537874,10.654088 10.537874,10.642195 10.537688,10.548731 10.537688,10.53769 10.639007,10.537876 10.650856,10.537876 10.745384,10.53769 10.756574,10.53769" style="fill: white" /><polygon type="contour" points="9.984004,10.64514 9.984002,10.65086 9.983961,10.745386 9.983961,10.756575 9.975141,10.756582 9.873936,10.7568 9.874256,10.851508 9.87397,10.923438 9.671162,10.923761 9.584966,10.924401 9.565501,10.924401 9.479518,10.923761 9.460537,10.923761 9.257731,10.923438 9.257445,10.851508 9.257764,10.756804 9.14774,10.756575 9.147693,10.647868 9.14774,10.548732 9.14774,10.53769 9.240386,10.537949 9.886994,10.537949 9.973802,10.53769 9.983961,10.53769" style="fill: white" /><polygon type="contour" points="8.593827,10.63901 8.593827,10.650859 8.594009,10.745386 8.594009,10.756575 8.584556,10.756564 8.479962,10.756581 8.479962,10.851796 8.479311,10.925305 8.36087,10.92377 8.205127,10.926575 8.206806,10.869077 8.208141,10.746644 8.208527,10.661974 8.208491,10.650883 8.375119,10.650883 8.375127,10.53769 8.477614,10.537876 8.489506,10.537876 8.582967,10.53769 8.594009,10.53769" style="fill: white" />
</svg>
