<svg width="19.131698" height="19.131699">
<polygon type="contour" points="10.558947,8.816356 10.558097,8.868198 10.345406,8.868324 10.263523,8.868177 10.263173,8.693236 10.263121,8.595439 10.26315,8.593759 10.26315,8.583971 10.263488,8.573889 10.278659,8.574038 10.283627,8.573475 10.364716,8.571152 10.5664,8.565302" style="fill: white" /><polygon type="contour" points="10.390769,9.134564 10.390671,9.134564 10.390717,9.143258 10.390659,9.153055 10.390769,9.153055 10.391266,9.247091 10.262633,9.247091 10.262575,9.14739 10.262871,9.065155 10.262871,9.04204 10.391323,9.04204" style="fill: white" /><polygon type="contour" points="10.560867,9.512667 10.561697,9.56575 10.560867,9.618592 10.561304,9.711102 10.262657,9.711102 10.262657,9.420602 10.561304,9.420602" style="fill: white" /><polygon type="contour" points="9.247089,10.262634 9.247089,10.391268 9.153052,10.39077 9.153052,10.390659 9.143256,10.390718 9.13456,10.390672 9.13456,10.39077 9.042038,10.391325 9.042038,10.262873 9.065154,10.262873 9.147374,10.262579" style="fill: white" /><polygon type="contour" points="9.711101,10.558031 9.685379,10.559146 9.565952,10.561276 9.480971,10.558682 9.4206,10.558031 9.4206,10.26266 9.711101,10.26266" style="fill: white" /><polygon type="contour" points="9.711101,10.08966 9.4206,10.08966 9.4206,9.884613 9.711101,9.884613" style="fill: white" /><polygon type="contour" points="10.066545,10.262873 10.089661,10.262873 10.089661,10.391325 9.997139,10.39077 9.997139,10.390672 9.988443,10.390718 9.978647,10.390659 9.978647,10.39077 9.884611,10.391268 9.884611,10.262634 9.984325,10.262579" style="fill: white" /><polygon type="contour" points="10.558097,10.263504 10.558947,10.315343 10.5664,10.566402 10.364717,10.560553 10.283627,10.558229 10.278659,10.557666 10.263489,10.557815 10.26311,10.54874 10.26315,10.547732 10.263121,10.536264 10.263121,10.520318 10.263173,10.438468 10.263159,10.417231 10.263377,10.263379 10.345406,10.263379" style="fill: white" /><polygon type="contour" points="10.390769,9.978649 10.390659,9.978649 10.390717,9.988445 10.390671,9.99714 10.390769,9.99714 10.391323,10.089663 10.262871,10.089663 10.262871,10.066548 10.262575,9.984313 10.262633,9.884613 10.391266,9.884613" style="fill: white" /><polygon type="contour" points="10.066467,9.884125 10.089658,9.884125 10.089565,9.973613 10.08957,10.000331 10.089661,10.066547 10.089661,10.089663 10.007326,10.089573 9.978622,10.089568 9.97265,10.089568 9.884124,10.08966 9.884118,9.978772 9.88412,9.97862 9.884611,9.908559 9.884611,9.884613 9.973856,9.884119 9.97862,9.884119" style="fill: white" /><polygon type="contour" points="10.089658,9.711102 9.884611,9.711102 9.884611,9.420602 10.089658,9.420602" style="fill: white" /><polygon type="contour" points="9.711101,9.711102 9.4206,9.711102 9.4206,9.420602 9.711101,9.420602" style="fill: white" /><polygon type="contour" points="9.711101,9.247091 9.4206,9.247091 9.4206,9.041868 9.711101,9.041868" style="fill: white" /><polygon type="contour" points="9.973613,9.0421 9.981574,9.042158 10.066545,9.04204 10.089661,9.04204 10.089571,9.124376 10.089566,9.15308 10.089566,9.158168 10.090692,9.247091 10.002061,9.247582 9.997165,9.247582 9.997165,9.247091 9.884611,9.247091 9.88412,9.158089 9.88412,9.129604 9.884611,9.040833" style="fill: white" /><polygon type="contour" points="10.089661,8.86883 10.066545,8.86883 9.987842,8.869109 9.884611,8.868891 9.884611,8.740436 9.978648,8.740933 9.978648,8.741044 9.988443,8.740985 9.997139,8.741031 9.997139,8.740933 10.089661,8.740379" style="fill: white" /><polygon type="contour" points="9.650728,8.573022 9.711101,8.573674 9.711101,8.868847 9.4206,8.868847 9.4206,8.573674 9.446197,8.572559 9.565501,8.570427" style="fill: white" /><polygon type="contour" points="8.766983,8.571152 8.848072,8.573474 8.853041,8.574038 8.868212,8.573889 8.868591,8.582964 8.86855,8.583972 8.86858,8.595439 8.86858,8.611386 8.868528,8.693236 8.868541,8.714472 8.868321,8.868324 8.786294,8.868324 8.573604,8.868198 8.572754,8.816356 8.5653,8.565302" style="fill: white" /><polygon type="contour" points="9.134561,8.740933 9.134561,8.741031 9.143256,8.740985 9.153052,8.741044 9.153052,8.740933 9.247089,8.740436 9.247089,8.868891 9.143857,8.869109 9.065154,8.86883 9.042038,8.86883 9.042038,8.740379" style="fill: white" /><polygon type="contour" points="9.24758,9.152968 9.247089,9.223144 9.247089,9.247091 9.157903,9.247583 9.134534,9.247582 9.065233,9.247579 9.041866,9.247579 9.042098,9.158089 9.042156,9.150128 9.042038,9.065155 9.042038,9.04204 9.129657,9.042137 9.153076,9.042137 9.158087,9.042099 9.247577,9.041867" style="fill: white" /><polygon type="contour" points="8.868828,9.065155 8.869108,9.143864 8.868889,9.247091 8.740434,9.247091 8.74093,9.153055 8.74104,9.153055 8.740982,9.143258 8.741028,9.134563 8.74093,9.134563 8.740377,9.04204 8.868828,9.04204" style="fill: white" /><polygon type="contour" points="8.868846,9.630372 8.869041,9.711102 8.570396,9.711102 8.570832,9.619037 8.570003,9.565953 8.570832,9.513111 8.570396,9.420602 8.868846,9.420602" style="fill: white" /><polygon type="contour" points="9.247089,9.711102 9.042042,9.711102 9.042042,9.493511 9.041866,9.420602 9.247089,9.420602" style="fill: white" /><polygon type="contour" points="9.134535,9.884613 9.247089,9.884613 9.24758,9.973613 9.24758,10.002061 9.247577,10.08966 9.158087,10.089567 9.131369,10.089572 9.065154,10.089663 9.042038,10.089663 9.042129,10.007194 9.042135,9.978623 9.042135,9.973535 9.041008,9.884613 9.129638,9.884121 9.134535,9.884121" style="fill: white" /><polygon type="contour" points="8.86912,9.98431 8.868828,10.066548 8.868828,10.089663 8.740377,10.089663 8.74093,9.99714 8.741028,9.99714 8.740982,9.988445 8.74104,9.978648 8.74093,9.978648 8.740434,9.884613 8.869067,9.884613" style="fill: white" /><polygon type="contour" points="8.868175,10.263525 8.868527,10.438467 8.86858,10.536264 8.868551,10.537944 8.868551,10.547733 8.868212,10.557815 8.85304,10.557666 8.848072,10.558229 8.766982,10.560553 8.5653,10.566402 8.572754,10.315344 8.573604,10.263504 8.786295,10.263378" style="fill: white" />
</svg>
