<svg width="19.131698" height="19.131699">
<polygon type="contour" points="10.647582,8.428933 10.650269,8.42939 10.657212,8.431608 10.659997,8.43229 10.669079,8.438562 10.691346,8.457769 10.699161,8.469624 10.702146,8.480744 10.702415,8.4847 10.702776,10.247131 10.702646,10.650418 10.702436,10.652261 10.692949,10.671356 10.690463,10.675242 10.686248,10.679057 10.662514,10.697978 10.655787,10.701186 10.649876,10.702417 8.936812,10.702917 8.484697,10.70277 8.482402,10.702684 8.474576,10.7006 8.461477,10.692416 8.451697,10.68504 8.437764,10.669256 8.432275,10.659973 8.429574,10.651323 8.428924,8.885485 8.428924,8.480371 8.430881,8.474211 8.433444,8.468738 8.442685,8.455645 8.459828,8.438112 8.469873,8.432377 8.475753,8.431257 8.484697,8.429287 10.195907,8.428787" style="fill: white" />
</svg>
