<svg width="19.131698" height="19.131699">
<polygon type="contour" points="8.296192,8.120679 8.394067,8.121769 8.396349,8.181859 8.396498,8.187554 8.396677,8.255002 8.396677,8.336098 8.396525,8.396527 8.335326,8.396527 8.257678,8.396646 8.124899,8.396646 8.124475,8.357762 8.117458,8.11746" style="fill: white" /><polygon type="contour" points="9.457819,8.122182 9.459356,8.182419 9.459684,8.188058 9.459684,8.291941 9.526289,8.292899 9.604925,8.292899 9.672017,8.29194 9.672017,8.188058 9.673881,8.122182 9.899492,8.124838 9.964462,8.124845 9.964462,8.160585 9.964406,8.239593 9.967303,8.396527 9.761533,8.396527 9.590259,8.397241 9.423377,8.397241 9.167272,8.396527 9.167294,8.336254 9.167294,8.239593 9.167238,8.183763 9.167238,8.124845 9.302986,8.122125" style="fill: white" /><polygon type="contour" points="10.595677,10.164758 10.595869,10.205216 10.546876,10.204994 10.490889,10.204994 10.490713,10.157218 10.490713,10.108759 10.544163,10.106128 10.595677,10.105926" style="fill: white" /><polygon type="contour" points="10.79408,10.108935 10.839165,10.108935 10.839087,10.157218 10.839177,10.204994 10.786147,10.205216 10.734441,10.205216 10.734441,10.153697 10.734566,10.105926" style="fill: white" /><polygon type="contour" points="11.007226,10.773941 11.014243,11.014244 10.835508,11.011025 10.737633,11.009933 10.735351,10.949844 10.735202,10.94415 10.735024,10.876702 10.735024,10.795605 10.735175,10.735177 10.796373,10.735177 10.874021,10.735059 11.006802,10.735059" style="fill: white" /><polygon type="contour" points="10.783187,10.490892 10.839177,10.490892 10.839217,10.538448 10.839108,10.595655 10.778093,10.595655 10.734597,10.596901 10.734597,10.535292 10.734441,10.490872" style="fill: white" /><polygon type="contour" points="10.595869,10.544165 10.595653,10.595655 10.534229,10.595655 10.490869,10.595871 10.490889,10.54688 10.490889,10.490891 10.544163,10.490872 10.595869,10.490872" style="fill: white" /><polygon type="contour" points="10.596899,10.734599 10.595653,10.778095 10.595653,10.83911 10.544163,10.839088 10.490889,10.839179 10.490869,10.786149 10.490869,10.734443 10.544163,10.734443" style="fill: white" /><polygon type="contour" points="10.204992,10.783189 10.204992,10.839178 10.160628,10.839277 10.108932,10.839166 10.105924,10.778709 10.105924,10.734569 10.164757,10.734569 10.205213,10.734443" style="fill: white" /><polygon type="contour" points="9.964428,10.735177 9.964406,10.795449 9.964406,10.89211 9.964462,10.947939 9.964462,11.006859 9.828713,11.009579 9.673881,11.009522 9.672344,10.949285 9.672017,10.943644 9.672017,10.839761 9.604925,10.838805 9.526288,10.838805 9.459684,10.839761 9.459684,10.943645 9.457819,11.009521 9.232208,11.006866 9.167238,11.00686 9.167238,10.971119 9.167293,10.89211 9.164397,10.735177 9.370166,10.735177 9.54098,10.734462 9.707862,10.734462" style="fill: white" /><polygon type="contour" points="9.964024,10.534987 9.964054,10.595655 9.761766,10.595655 9.590259,10.595882 9.42171,10.595882 9.16478,10.595655 9.167676,10.534988 9.167618,10.490715 9.326737,10.490892 9.589345,10.490896 9.704652,10.490778 9.964082,10.490715" style="fill: white" /><polygon type="contour" points="10.153482,10.490892 10.204992,10.490892 10.205213,10.544165 10.205213,10.595871 10.153695,10.595871 10.105923,10.595678 10.106124,10.544166 10.108757,10.490715" style="fill: white" /><polygon type="contour" points="10.204992,10.153484 10.204992,10.204994 10.157216,10.205012 10.108757,10.205012 10.108757,10.157218 10.108933,10.108935 10.163657,10.108935 10.205009,10.108759" style="fill: white" /><polygon type="contour" points="9.964061,10.108935 9.964061,10.163658 9.964082,10.205012 9.804962,10.204994 9.584428,10.204603 9.42658,10.204641 9.167618,10.205012 9.16764,10.163658 9.16764,10.108935 9.364562,10.108935 9.541109,10.108739 9.704652,10.108739" style="fill: white" /><polygon type="contour" points="10.204991,9.326739 10.204601,9.547274 10.204639,9.705121 10.205009,9.964084 10.157216,9.964084 10.108933,9.964063 10.108933,9.767141 10.108736,9.590593 10.108737,9.590593 10.108737,9.427049 10.108933,9.167642 10.163656,9.167642 10.205008,9.16762" style="fill: white" /><polygon type="contour" points="10.595653,9.369935 10.595879,9.541442 10.595879,9.708326 10.595653,9.964057 10.534985,9.964026 10.490713,9.964084 10.490889,9.804964 10.490895,9.542571 10.490776,9.427049 10.490713,9.16762 10.544164,9.165107 10.595653,9.164781" style="fill: white" /><polygon type="contour" points="10.795446,9.167296 10.909332,9.167393 11.006674,9.167393 11.007145,9.289624 11.007639,9.459144 10.973774,9.459195 10.967221,9.459422 10.840389,9.459952 10.838803,9.541481 10.838803,9.605414 10.839944,9.671914 10.92753,9.672283 10.967221,9.672283 11.007639,9.672559 11.007105,9.820898 11.006674,9.964312 10.892107,9.964408 10.735175,9.964431 10.735175,9.761536 10.734461,9.590722 10.734461,9.422173 10.735175,9.164398" style="fill: white" /><polygon type="contour" points="10.595869,8.975519 10.595677,9.022938 10.544164,9.023088 10.490713,9.022944 10.490889,8.978218 10.490889,8.926709 10.544164,8.926489 10.595869,8.926489" style="fill: white" /><polygon type="contour" points="10.783187,8.926709 10.839177,8.926709 10.839275,8.971072 10.839165,9.022769 10.778706,9.022938 10.734567,9.022938 10.734567,8.966946 10.734441,8.926489" style="fill: white" /><polygon type="contour" points="11.007226,8.357762 11.006802,8.396646 10.874021,8.396646 10.796373,8.396527 10.735175,8.396527 10.735175,8.335328 10.735024,8.255002 10.735202,8.249862 10.735202,8.187555 10.737633,8.121769 10.835507,8.120679 11.014243,8.11746" style="fill: white" /><polygon type="contour" points="10.839086,8.587539 10.839177,8.640811 10.786146,8.640832 10.734441,8.640832 10.734441,8.587538 10.734517,8.53605 10.839108,8.53605" style="fill: white" /><polygon type="contour" points="10.595653,8.292593 10.595653,8.397185 10.534229,8.397185 10.490869,8.397262 10.490889,8.348513 10.490889,8.292524 10.538445,8.292484" style="fill: white" /><polygon type="contour" points="10.595653,8.53605 10.595677,8.57987 10.595869,8.587538 10.595869,8.640832 10.546876,8.640811 10.490889,8.640811 10.490869,8.587539 10.490869,8.535832 10.544164,8.535832" style="fill: white" /><polygon type="contour" points="9.966921,8.53605 9.964024,8.596716 9.964082,8.640989 9.804962,8.640811 9.541859,8.640806 9.42658,8.640926 9.167618,8.640989 9.167676,8.596716 9.167646,8.53605 9.369933,8.53605 9.54098,8.535823 9.709528,8.535823" style="fill: white" /><polygon type="contour" points="10.205213,8.345555 10.205213,8.397262 10.156182,8.397262 10.108764,8.397135 10.108933,8.337622 10.108933,8.292537 10.157216,8.292615 10.204992,8.292524" style="fill: white" /><polygon type="contour" points="10.204992,8.584822 10.204992,8.640811 10.157216,8.640989 10.108757,8.640989 10.108612,8.587539 10.108764,8.536026 10.164756,8.536026 10.205213,8.535832" style="fill: white" /><polygon type="contour" points="10.153482,8.926709 10.204992,8.926709 10.205009,8.974484 10.205009,9.022945 10.157217,9.022945 10.108933,9.022769 10.108933,8.968046 10.108757,8.926693" style="fill: white" /><polygon type="contour" points="9.964061,8.968046 9.964061,9.022769 9.767137,9.022769 9.590125,9.022965 9.426581,9.022965 9.16764,9.022769 9.16764,8.968046 9.167618,8.926693 9.326737,8.926709 9.546391,8.927098 9.704652,8.927063 9.964082,8.926693" style="fill: white" /><polygon type="contour" points="9.541108,9.167948 9.704653,9.167948 9.96431,9.167393 9.96431,9.368186 9.963754,9.541576 9.963754,9.705121 9.96431,9.964312 9.763515,9.964312 9.590125,9.963756 9.426581,9.963756 9.167391,9.964312 9.167391,9.763517 9.167946,9.590594 9.167946,9.427049 9.167391,9.167393 9.368185,9.167393" style="fill: white" /><polygon type="contour" points="9.022767,9.167642 9.022767,9.364563 9.022963,9.541576 9.022963,9.705121 9.022767,9.964063 8.968044,9.964063 8.926692,9.964084 8.926708,9.804965 8.927097,9.585119 8.927062,9.42705 8.926692,9.16762 8.974484,9.16762" style="fill: white" /><polygon type="contour" points="9.022943,8.974484 9.022767,9.022769 8.968043,9.022769 8.926692,9.022945 8.926708,8.978218 8.926708,8.926709 8.974483,8.926693 9.022943,8.926693" style="fill: white" /><polygon type="contour" points="9.025777,8.536026 9.025575,8.587539 9.022943,8.640989 8.978218,8.640811 8.926708,8.640811 8.926488,8.587538 8.926488,8.535832 8.978005,8.535832" style="fill: white" /><polygon type="contour" points="9.022767,8.292537 9.025777,8.352995 9.025777,8.397135 8.966944,8.397135 8.926488,8.397262 8.926708,8.348512 8.926708,8.292524 8.971071,8.292426" style="fill: white" /><polygon type="contour" points="8.640831,8.345555 8.640831,8.397262 8.587537,8.397262 8.534802,8.397106 8.536048,8.353608 8.536048,8.292593 8.587537,8.292615 8.64081,8.292524" style="fill: white" /><polygon type="contour" points="8.64081,8.584822 8.64081,8.640811 8.587537,8.640832 8.53583,8.640832 8.53583,8.587538 8.536048,8.53605 8.59747,8.53605 8.640831,8.535832" style="fill: white" /><polygon type="contour" points="8.397104,8.596411 8.397259,8.640832 8.34851,8.640811 8.292522,8.640811 8.292482,8.593255 8.292591,8.53605 8.353606,8.53605 8.397104,8.534804" style="fill: white" /><polygon type="contour" points="8.397259,8.978006 8.397133,9.025778 8.337619,9.022769 8.292535,9.022769 8.292613,8.974484 8.292522,8.926709 8.345552,8.926489 8.397259,8.926489" style="fill: white" /><polygon type="contour" points="8.584819,8.926709 8.64081,8.926709 8.640988,8.974484 8.640988,9.022945 8.587537,9.025576 8.536024,9.025778 8.536024,8.966946 8.53583,8.926489" style="fill: white" /><polygon type="contour" points="8.64081,9.326738 8.640803,9.589632 8.640924,9.705121 8.640988,9.964084 8.587536,9.966597 8.536048,9.966923 8.536048,9.761768 8.535822,9.590722 8.535822,9.423839 8.536048,9.167648 8.596714,9.167678 8.640987,9.16762" style="fill: white" /><polygon type="contour" points="8.396525,9.370169 8.397239,9.541442 8.397239,9.709991 8.396525,9.967306 8.336252,9.964408 8.222367,9.964312 8.125027,9.964312 8.124555,9.842081 8.124062,9.672559 8.157926,9.672509 8.164478,9.672283 8.291306,9.67175 8.292896,9.59071 8.292896,9.526776 8.291755,9.459787 8.204169,9.459422 8.164478,9.459422 8.124062,9.459145 8.124595,9.310806 8.125027,9.167393 8.239591,9.167296 8.396525,9.167274" style="fill: white" /><polygon type="contour" points="8.397133,10.164758 8.397259,10.205216 8.348511,10.204994 8.292522,10.204994 8.292424,10.16063 8.292535,10.108935 8.352993,10.108766 8.397133,10.108766" style="fill: white" /><polygon type="contour" points="8.640988,10.108759 8.64081,10.153483 8.64081,10.204994 8.587537,10.205216 8.53583,10.205216 8.53583,10.156185 8.536024,10.108766 8.587536,10.108615" style="fill: white" /><polygon type="contour" points="9.022767,10.108935 9.022767,10.163658 9.022943,10.205012 8.978217,10.204994 8.926708,10.204994 8.926692,10.157218 8.926692,10.108759 8.974483,10.108759" style="fill: white" /><polygon type="contour" points="9.023088,10.544165 9.022936,10.595678 8.966944,10.595678 8.926488,10.595871 8.926708,10.54688 8.926708,10.490892 8.974483,10.490715 9.022943,10.490715" style="fill: white" /><polygon type="contour" points="9.022936,10.734569 9.022767,10.794081 9.022767,10.839166 8.974483,10.839088 8.926708,10.839179 8.926488,10.786148 8.926488,10.734443 8.975518,10.734443" style="fill: white" /><polygon type="contour" points="8.64081,10.78319 8.64081,10.839179 8.593253,10.839219 8.536048,10.83911 8.534802,10.795797 8.534802,10.734599 8.596408,10.734599 8.640831,10.734443" style="fill: white" /><polygon type="contour" points="8.584819,10.490892 8.64081,10.490892 8.640831,10.544165 8.640831,10.595871 8.587536,10.595871 8.536048,10.595655 8.536024,10.551833 8.53583,10.544166 8.53583,10.490872" style="fill: white" /><polygon type="contour" points="8.397259,10.544165 8.397103,10.596901 8.335904,10.596901 8.292591,10.595655 8.292614,10.544165 8.292522,10.490892 8.345552,10.490872 8.397259,10.490872" style="fill: white" /><polygon type="contour" points="8.335326,10.735177 8.396525,10.735177 8.396525,10.796375 8.396677,10.876701 8.396498,10.88184 8.396498,10.94415 8.394067,11.009933 8.296191,11.011025 8.117458,11.014244 8.124474,10.773941 8.124899,10.735059 8.257678,10.735059" style="fill: white" />
</svg>
