<svg width="19.131698" height="19.131699">
<polygon type="contour" points="13.452546,11.331505 13.453582,11.560662 13.337438,11.560662 13.199485,11.56058 13.154869,11.56053 13.15497,11.338236 13.15497,11.268804 13.220261,11.269929 13.4529,11.268141" style="fill: white" /><polygon type="contour" points="11.560564,13.192823 11.560564,13.24862 11.560661,13.33744 11.560661,13.453585 11.331503,13.452547 11.268139,13.452901 11.267068,13.381486 11.268802,13.154972 11.338236,13.154972 11.560318,13.154895" style="fill: white" /><polygon type="contour" points="12.209754,13.15318 12.209875,13.18068 12.209875,13.276301 12.068717,13.276147 11.997112,13.27615 11.99697,13.230376 11.99697,13.153159 12.074863,13.153159" style="fill: white" /><polygon type="contour" points="12.756568,13.153578 12.756568,13.200266 12.756415,13.276816 12.652756,13.276745 12.474501,13.276301 12.474504,13.245959 12.474504,13.15318 12.542939,13.15318" style="fill: white" /><polygon type="contour" points="13.451791,13.15373 13.454906,13.248005 13.459591,13.459592 13.266579,13.453036 13.220413,13.45808 13.155086,13.453691 13.155086,13.332726 13.154869,13.202097 13.154869,13.154871 13.202097,13.154871 13.394176,13.153433" style="fill: white" /><polygon type="contour" points="13.276744,12.652758 13.276815,12.756417 13.200323,12.755902 13.153274,12.755902 13.153274,12.649974 13.153178,12.474504 13.180678,12.474503 13.2763,12.474503" style="fill: white" /><polygon type="contour" points="13.196385,11.997113 13.276148,11.997113 13.276146,12.068719 13.2763,12.209876 13.245958,12.209756 13.153178,12.209756 13.153178,12.15813 13.153156,11.996971" style="fill: white" /><polygon type="contour" points="12.756426,11.996971 12.756602,12.158129 12.756602,12.209756 12.694705,12.209876 12.474501,12.209876 12.474477,12.161704 12.474477,11.997048 12.54294,11.996956" style="fill: white" /><polygon type="contour" points="12.542939,12.474504 12.756602,12.474504 12.756602,12.542942 12.756415,12.756417 12.644066,12.756417 12.474504,12.756605 12.474502,12.694708 12.474502,12.474503" style="fill: white" /><polygon type="contour" points="12.209875,12.043766 12.209875,12.209876 12.161704,12.209849 11.997047,12.209849 11.997047,12.161705 11.997112,11.997113 12.070558,11.997113 12.209847,11.997048" style="fill: white" /><polygon type="contour" points="12.043764,12.474503 12.209875,12.474503 12.209755,12.542941 12.209755,12.756605 12.158128,12.756605 11.99697,12.756428 11.996954,12.542941 11.997046,12.474478" style="fill: white" /><polygon type="contour" points="11.560459,12.542941 11.560369,12.756417 11.334671,12.756293 11.265866,12.756293 11.265999,12.696343 11.265324,12.474503 11.331378,12.474478 11.56049,12.474478" style="fill: white" /><polygon type="contour" points="11.560719,12.070561 11.56049,12.209849 11.331377,12.209849 11.265324,12.209876 11.26534,12.161705 11.266069,11.997113 11.560719,11.997113" style="fill: white" /><polygon type="contour" points="11.560363,11.26901 11.560363,11.333573 11.560661,11.560662 11.269234,11.560662 11.265321,11.328993 11.265632,11.310639 11.266434,11.296615 11.267356,11.267356 11.296615,11.266435 11.310638,11.265634 11.328991,11.265322" style="fill: white" /><polygon type="contour" points="12.209847,11.33138 12.209847,11.560491 12.161703,11.560491 11.997112,11.56072 11.996714,11.329541 11.996714,11.265871 12.041738,11.265861 12.209875,11.265326" style="fill: white" /><polygon type="contour" points="12.696341,11.266 12.756291,11.265867 12.756291,11.334672 12.756415,11.56037 12.542939,11.56046 12.474477,11.560491 12.474477,11.33138 12.474501,11.265325" style="fill: white" /><polygon type="contour" points="13.453507,5.855716 13.451791,5.977972 13.403737,5.978157 13.394177,5.978269 13.353221,5.978269 13.154869,5.976833 13.154869,5.86338 13.155086,5.678014 13.266578,5.678669 13.459591,5.672111" style="fill: white" /><polygon type="contour" points="11.560661,7.862465 11.328992,7.866379 11.310638,7.866067 11.296614,7.865265 11.267356,7.864345 11.266434,7.835086 11.265632,7.821062 11.265321,7.802708 11.269008,7.571339 11.333571,7.571339 11.560661,7.57104" style="fill: white" /><polygon type="contour" points="12.209847,7.571212 12.209847,7.800323 12.209875,7.866379 12.161704,7.866362 11.997112,7.865633 11.997112,7.570983 12.070559,7.570983" style="fill: white" /><polygon type="contour" points="12.54294,7.571244 12.756415,7.571332 12.756291,7.79703 12.756291,7.865836 12.696341,7.865704 12.474501,7.866379 12.474477,7.800323 12.474477,7.571212" style="fill: white" /><polygon type="contour" points="13.453582,7.571041 13.452545,7.800198 13.4529,7.863563 13.381485,7.864633 13.15497,7.862898 13.15497,7.793466 13.154869,7.571174 13.19282,7.571139 13.248617,7.571139 13.337437,7.57104 13.395741,7.57104" style="fill: white" /><polygon type="contour" points="13.276146,7.062984 13.276148,7.13459 13.230372,7.134733 13.153156,7.134733 13.153156,7.056839 13.153178,6.921948 13.180678,6.921828 13.2763,6.921828" style="fill: white" /><polygon type="contour" points="13.276744,6.478945 13.2763,6.657201 13.245959,6.657199 13.153178,6.657199 13.153178,6.588762 13.153274,6.375802 13.200323,6.375802 13.276815,6.375287" style="fill: white" /><polygon type="contour" points="11.560661,5.794264 11.560362,5.932717 11.560319,5.976809 11.338236,5.97673 11.268802,5.97673 11.269926,5.911438 11.268139,5.678801 11.331503,5.679155 11.560661,5.67812" style="fill: white" /><polygon type="contour" points="12.209755,5.885743 12.209755,5.978524 12.158129,5.978524 11.99697,5.978544 11.997112,5.935315 11.997112,5.855555 12.068716,5.855557 12.209875,5.855402" style="fill: white" /><polygon type="contour" points="12.756568,5.931436 12.756568,5.978125 12.651453,5.978125 12.474504,5.978524 12.474502,5.951023 12.474502,5.855402 12.652756,5.854959 12.756415,5.854887" style="fill: white" /><polygon type="contour" points="12.756415,6.375287 12.756415,6.487637 12.756602,6.657199 12.694705,6.657201 12.474501,6.657201 12.474504,6.588762 12.474504,6.375099 12.542939,6.375099" style="fill: white" /><polygon type="contour" points="12.542939,6.921948 12.756602,6.921948 12.756602,6.973574 12.756426,7.134733 12.54294,7.134749 12.474477,7.134655 12.474501,7.087939 12.474501,6.921828" style="fill: white" /><polygon type="contour" points="12.209847,6.969998 12.209847,7.134655 12.161704,7.134655 11.997112,7.13459 11.997112,7.061143 11.997047,6.921855 12.043764,6.921828 12.209875,6.921828" style="fill: white" /><polygon type="contour" points="12.209875,6.436995 12.209875,6.657201 12.161703,6.657226 11.997047,6.657226 11.996954,6.588762 11.99697,6.375274 12.158128,6.375099 12.209755,6.375099" style="fill: white" /><polygon type="contour" points="11.560459,6.588762 11.56049,6.657226 11.331378,6.657226 11.265324,6.657201 11.265207,6.588761 11.266085,6.375287 11.560368,6.375287" style="fill: white" /><polygon type="contour" points="11.331377,6.921855 11.56049,6.921855 11.56049,6.969998 11.560719,7.13459 11.32954,7.134988 11.26587,7.134988 11.265859,7.089964 11.265324,6.921828" style="fill: white" /><polygon type="contour" points="7.800197,5.679155 7.863562,5.678801 7.861772,5.911439 7.862896,5.97673 7.793463,5.97673 7.571382,5.976809 7.571137,5.93888 7.571137,5.883084 7.571039,5.794263 7.571039,5.67812" style="fill: white" /><polygon type="contour" points="5.932214,7.571121 5.976831,7.571174 5.976729,7.793466 5.976729,7.862898 5.911437,7.861774 5.678799,7.863563 5.679153,7.800198 5.678118,7.57104 5.794263,7.57104" style="fill: white" /><polygon type="contour" points="5.885741,6.921948 5.978522,6.921948 5.978522,6.973573 5.978543,7.134733 5.935313,7.13459 5.855553,7.13459 5.855555,7.062985 5.8554,6.921828" style="fill: white" /><polygon type="contour" points="5.931375,6.375802 5.978426,6.375802 5.978426,6.481728 5.978522,6.657199 5.951021,6.657201 5.8554,6.657201 5.854957,6.478946 5.854885,6.375287" style="fill: white" /><polygon type="contour" points="5.865122,5.678669 5.911287,5.673624 5.976613,5.678014 5.976613,5.798976 5.976831,5.929604 5.976831,5.976833 5.929601,5.976833 5.737523,5.978269 5.679909,5.977972 5.676794,5.883697 5.672109,5.672111" style="fill: white" /><polygon type="contour" points="6.478944,5.854959 6.657199,5.855402 6.657197,5.885742 6.657197,5.978524 6.588759,5.978524 6.375132,5.978125 6.375132,5.931436 6.375285,5.854887" style="fill: white" /><polygon type="contour" points="7.062983,5.855557 7.134588,5.855555 7.13473,5.901328 7.13473,5.978545 7.056836,5.978545 6.921946,5.978523 6.921826,5.951023 6.921826,5.855402" style="fill: white" /><polygon type="contour" points="6.969995,6.921856 7.134654,6.921855 7.134654,6.969997 7.134588,7.13459 7.061141,7.13459 6.921854,7.134656 6.921826,7.087938 6.921826,6.921828" style="fill: white" /><polygon type="contour" points="6.657223,6.969999 6.657223,7.134656 6.58876,7.134749 6.375273,7.134733 6.375098,6.973574 6.375098,6.921947 6.436994,6.921828 6.657199,6.921828" style="fill: white" /><polygon type="contour" points="6.657199,6.436995 6.657199,6.657202 6.588759,6.6572 6.375098,6.657199 6.375098,6.588761 6.375285,6.375287 6.487634,6.375287 6.657197,6.375099" style="fill: white" /><polygon type="contour" points="7.13473,6.375275 7.134747,6.588762 7.134654,6.657226 7.087936,6.657201 6.921826,6.657201 6.921946,6.588762 6.921946,6.375099 6.973571,6.375099" style="fill: white" /><polygon type="contour" points="7.797028,6.37541 7.865834,6.37541 7.865702,6.43536 7.866377,6.657201 7.800321,6.657226 7.57121,6.657226 7.57124,6.588762 7.571329,6.375287" style="fill: white" /><polygon type="contour" points="7.86636,6.969998 7.865631,7.13459 7.57098,7.13459 7.57098,7.061142 7.57121,6.921855 7.800322,6.921855 7.866376,6.921828" style="fill: white" /><polygon type="contour" points="7.866378,7.802708 7.866066,7.821061 7.865263,7.835086 7.864343,7.864345 7.835084,7.865265 7.82106,7.866067 7.802706,7.866379 7.571337,7.862692 7.571337,7.798128 7.571039,7.57104 7.862464,7.57104" style="fill: white" /><polygon type="contour" points="7.134987,7.802162 7.134987,7.865832 7.089961,7.865843 6.921826,7.866379 6.921854,7.800323 6.921854,7.571212 6.969996,7.571212 7.134588,7.570983" style="fill: white" /><polygon type="contour" points="6.657223,7.800323 6.657199,7.866379 6.588759,7.866495 6.375285,7.865617 6.375285,7.571332 6.588759,7.571244 6.657223,7.571212" style="fill: white" /><polygon type="contour" points="5.88574,12.474504 5.978522,12.474504 5.978522,12.542941 5.978426,12.755902 5.931375,12.755902 5.854885,12.756417 5.854957,12.652757 5.8554,12.474503" style="fill: white" /><polygon type="contour" points="5.978544,12.074865 5.978522,12.209756 5.951021,12.209876 5.8554,12.209876 5.855555,12.068718 5.855553,11.997113 5.901326,11.996971 5.978544,11.996971" style="fill: white" /><polygon type="contour" points="5.911437,11.269929 5.976729,11.268804 5.976729,11.338236 5.97683,11.56053 5.938879,11.560565 5.883082,11.560565 5.794263,11.560662 5.678118,11.560662 5.679153,11.331505 5.678799,11.268141" style="fill: white" /><polygon type="contour" points="6.657223,11.33138 6.657223,11.560491 6.58876,11.56046 6.375285,11.56037 6.375409,11.334672 6.375409,11.265867 6.435358,11.266 6.657199,11.265325" style="fill: white" /><polygon type="contour" points="6.969996,11.265342 7.134588,11.266071 7.134588,11.56072 7.061141,11.56072 6.921854,11.560491 6.921854,11.33138 6.921826,11.265326" style="fill: white" /><polygon type="contour" points="7.82106,11.265634 7.835083,11.266435 7.864343,11.267356 7.865264,11.296615 7.866066,11.31064 7.866378,11.328993 7.862464,11.560662 7.571039,11.560662 7.571039,11.269237 7.802706,11.265322" style="fill: white" /><polygon type="contour" points="7.793463,13.154972 7.862896,13.154972 7.861772,13.220262 7.863562,13.452901 7.800197,13.452547 7.571039,13.453585 7.571039,13.337441 7.571337,13.198985 7.571382,13.154895" style="fill: white" /><polygon type="contour" points="7.866377,12.474502 7.865702,12.696343 7.865834,12.756293 7.797028,12.756293 7.571329,12.756417 7.57124,12.542941 7.57121,12.474478 7.800321,12.474478" style="fill: white" /><polygon type="contour" points="7.865841,12.04174 7.866377,12.209876 7.800322,12.209849 7.57121,12.209849 7.57121,12.161705 7.57098,11.997113 7.802159,11.996715 7.86583,11.996715" style="fill: white" /><polygon type="contour" points="7.134588,11.997113 7.134588,12.07056 7.134654,12.209848 7.087936,12.209876 6.921826,12.209876 6.921854,12.161705 6.921854,11.997048 6.969995,11.997048" style="fill: white" /><polygon type="contour" points="6.657223,11.997048 6.657199,12.043766 6.657199,12.209876 6.58876,12.209756 6.375098,12.209756 6.375098,12.158129 6.375273,11.996971 6.588759,11.996956" style="fill: white" /><polygon type="contour" points="6.657197,12.542942 6.657197,12.756605 6.58876,12.756605 6.375285,12.756417 6.375285,12.644065 6.375098,12.474504 6.436994,12.474503 6.657199,12.474503" style="fill: white" /><polygon type="contour" points="7.134747,12.542941 7.13473,12.756427 6.973571,12.756605 6.921946,12.756605 6.921826,12.694709 6.921826,12.474503 6.969996,12.474478 7.134654,12.474478" style="fill: white" /><polygon type="contour" points="7.134588,13.196388 7.134588,13.27615 7.062982,13.276147 6.921826,13.276302 6.921946,13.24596 6.921946,13.15318 6.97357,13.15318 7.13473,13.153159" style="fill: white" /><polygon type="contour" points="6.657199,13.18068 6.657199,13.276302 6.478943,13.276745 6.375285,13.276816 6.375132,13.200266 6.375132,13.153578 6.480245,13.153578 6.657197,13.15318" style="fill: white" /><polygon type="contour" points="5.976831,13.154871 5.976831,13.268325 5.976613,13.453691 5.865122,13.453035 5.672109,13.459592 5.678193,13.275987 5.679909,13.15373 5.727962,13.153545 5.737522,13.153433 5.778479,13.153433" style="fill: white" />
</svg>
