<svg width="19.131698" height="19.131699">
<polygon type="contour" points="8.582223,8.344707 8.618219,8.346131 8.622878,8.346191 8.622321,8.550211 8.622126,8.622127 8.601301,8.622127 8.499236,8.622313 8.391541,8.622355 8.345231,8.622355 8.342156,8.525048 8.341624,8.512184 8.338141,8.477913 8.337792,8.337794" style="fill: white" /><polygon type="contour" points="9.566198,8.344105 9.629629,8.345587 9.729074,8.345591 9.729074,8.448571 9.725573,8.618569 9.725597,8.622805 9.406103,8.622805 9.406127,8.618569 9.402627,8.448571 9.402627,8.345591 9.441486,8.34382" style="fill: white" /><polygon type="contour" points="9.211776,9.63475 9.211776,9.727796 9.178909,9.727796 9.108157,9.727188 9.108157,9.404516 9.143834,9.404516 9.211591,9.40404" style="fill: white" /><polygon type="contour" points="10.023542,9.987868 10.02364,10.023643 9.953396,10.023643 9.919942,10.023545 9.92011,9.96617 9.92011,9.920111 9.987867,9.919943 10.023542,9.919943" style="fill: white" /><polygon type="contour" points="10.02364,10.221981 10.02364,10.288426 10.023604,10.319842 9.987626,10.319842 9.919679,10.31992 9.91976,10.255646 9.919942,10.221936 9.987866,10.221936" style="fill: white" /><polygon type="contour" points="10.789542,10.606655 10.790075,10.61952 10.793558,10.653791 10.793908,10.793909 10.549476,10.786996 10.513481,10.785572 10.508823,10.785512 10.509378,10.581491 10.509573,10.509575 10.530396,10.509575 10.632464,10.50939 10.740158,10.50935 10.786469,10.50935" style="fill: white" /><polygon type="contour" points="10.619142,10.255646 10.619208,10.31992 10.509082,10.31992 10.50876,10.255646 10.50876,10.222084 10.58075,10.222084 10.619108,10.221981" style="fill: white" /><polygon type="contour" points="10.558243,9.919816 10.619073,9.920111 10.619158,9.987869 10.619108,10.023643 10.544594,10.023643 10.50876,10.023606 10.508999,9.965777 10.508999,9.919585" style="fill: white" /><polygon type="contour" points="10.31984,9.987628 10.31984,10.023606 10.255643,10.023606 10.221978,10.023643 10.221978,9.953398 10.221933,9.919943 10.255643,9.919763 10.319918,9.919681" style="fill: white" /><polygon type="contour" points="10.31984,10.222084 10.319918,10.277058 10.319918,10.31992 10.255643,10.319842 10.222081,10.319842 10.222081,10.255646 10.221978,10.221981 10.288424,10.221981" style="fill: white" /><polygon type="contour" points="10.319918,10.509084 10.319918,10.61921 10.255644,10.619144 10.221978,10.619111 10.221978,10.544595 10.222081,10.508761 10.255643,10.508761" style="fill: white" /><polygon type="contour" points="10.023604,10.580753 10.02364,10.619111 9.987867,10.619159 9.92011,10.619075 9.92011,10.558425 9.919877,10.508918 9.987626,10.508761 10.023604,10.508761" style="fill: white" /><polygon type="contour" points="9.725574,10.513135 9.729074,10.683133 9.729074,10.786112 9.690214,10.787884 9.565501,10.787599 9.50207,10.786116 9.402627,10.786113 9.406127,10.513136 9.406103,10.5089 9.725598,10.5089" style="fill: white" /><polygon type="contour" points="9.727792,10.276931 9.727775,10.31992 9.403926,10.31992 9.404527,10.255645 9.404514,10.221936 9.727186,10.221936" style="fill: white" /><polygon type="contour" points="9.727187,9.987869 9.727187,10.023545 9.404514,10.023545 9.404038,9.96617 9.404038,9.920111 9.727663,9.920111" style="fill: white" /><polygon type="contour" points="9.727799,9.7278 9.403901,9.7278 9.403901,9.403904 9.727799,9.403904" style="fill: white" /><polygon type="contour" points="10.02364,9.178305 10.023542,9.211761 9.966168,9.211594 9.92011,9.211594 9.919942,9.143835 9.919942,9.108159 9.987866,9.108159 10.02364,9.108062" style="fill: white" /><polygon type="contour" points="10.023542,9.404516 10.023542,9.727188 9.987866,9.727188 9.92011,9.727664 9.919924,9.496954 9.919924,9.403908 9.952789,9.403908" style="fill: white" /><polygon type="contour" points="10.319918,9.598267 10.319918,9.727776 10.255643,9.727175 10.221933,9.727188 10.221933,9.404516 10.288911,9.403828 10.319568,9.403621" style="fill: white" /><polygon type="contour" points="10.786369,9.455199 10.787642,9.566201 10.786368,9.676749 10.786368,9.729037 10.735511,9.729037 10.523964,9.725711 10.508898,9.725599 10.508896,9.707293 10.508896,9.406107 10.523965,9.405992 10.786368,9.402668" style="fill: white" /><polygon type="contour" points="10.787308,8.580252 10.786469,8.622355 10.666179,8.622355 10.517913,8.622127 10.509573,8.622127 10.509379,8.550212 10.508697,8.345956 10.549476,8.344707 10.793908,8.337794" style="fill: white" /><polygon type="contour" points="10.619141,8.876058 10.619107,8.909724 10.544594,8.909724 10.50876,8.909621 10.50876,8.876057 10.509082,8.811784 10.619208,8.811784" style="fill: white" /><polygon type="contour" points="10.619142,9.143834 10.619052,9.211516 10.508917,9.211516 10.50876,9.143835 10.50876,9.108098 10.58075,9.108098 10.619108,9.108062" style="fill: white" /><polygon type="contour" points="10.31984,9.108098 10.31984,9.143834 10.319918,9.211715 10.255644,9.2117 10.221933,9.211761 10.221933,9.143835 10.221978,9.108062 10.288423,9.108062" style="fill: white" /><polygon type="contour" points="10.31984,8.876058 10.31984,8.909621 10.255643,8.909621 10.221978,8.909724 10.221978,8.843276 10.22208,8.811862 10.277055,8.811784 10.319918,8.811784" style="fill: white" /><polygon type="contour" points="10.321807,8.573411 10.321807,8.622703 10.255643,8.622944 10.222081,8.622944 10.222081,8.55095 10.221978,8.512593 10.255644,8.512559 10.319918,8.512494" style="fill: white" /><polygon type="contour" points="10.02364,8.512593 10.02364,8.587108 10.023604,8.622944 9.966314,8.622785 9.920188,8.622785 9.92011,8.573279 9.92011,8.512629 9.987867,8.512544" style="fill: white" /><polygon type="contour" points="9.987867,8.811862 10.023604,8.811862 10.023604,8.876058 10.02364,8.909724 9.953396,8.909724 9.919942,8.909769 9.920002,8.876058 9.919987,8.811784" style="fill: white" /><polygon type="contour" points="9.727414,8.876058 9.727187,8.909769 9.404514,8.909769 9.403909,8.854773 9.403926,8.811784 9.728082,8.811784" style="fill: white" /><polygon type="contour" points="9.727663,9.165531 9.727663,9.211594 9.404038,9.211594 9.404514,9.143835 9.404514,9.108159 9.727187,9.108159" style="fill: white" /><polygon type="contour" points="9.211759,9.108159 9.211591,9.165531 9.211591,9.211594 9.143833,9.211761 9.108157,9.211761 9.108157,9.143836 9.10806,9.108062 9.178303,9.108062" style="fill: white" /><polygon type="contour" points="9.211939,8.876058 9.211759,8.909769 9.143833,8.909769 9.10806,8.909724 9.10806,8.843276 9.108097,8.811862 9.144074,8.811862 9.212021,8.811784" style="fill: white" /><polygon type="contour" points="9.211591,8.512629 9.211591,8.573279 9.211824,8.622785 9.144074,8.622944 9.108097,8.622944 9.108097,8.550951 9.10806,8.512593 9.143833,8.512544" style="fill: white" /><polygon type="contour" points="8.876056,8.512559 8.909722,8.512593 8.909722,8.587108 8.90962,8.622944 8.876056,8.622944 8.811782,8.62262 8.811782,8.512494" style="fill: white" /><polygon type="contour" points="8.876057,8.811862 8.90962,8.811862 8.90962,8.876058 8.909722,8.909724 8.843275,8.909724 8.811861,8.909621 8.811782,8.854644 8.811782,8.811784" style="fill: white" /><polygon type="contour" points="8.622941,8.876057 8.622941,8.909621 8.55095,8.909621 8.512591,8.909724 8.512557,8.876057 8.512493,8.811784 8.622619,8.811784" style="fill: white" /><polygon type="contour" points="8.622941,9.108098 8.622702,9.165926 8.622702,9.21212 8.573457,9.211888 8.512627,9.211594 8.512542,9.143835 8.512591,9.108062 8.587105,9.108062" style="fill: white" /><polygon type="contour" points="8.909722,9.178306 8.909768,9.211761 8.876057,9.211941 8.811782,9.212022 8.811861,9.144076 8.811861,9.108098 8.876056,9.108098 8.909722,9.108062" style="fill: white" /><polygon type="contour" points="8.876056,9.404529 8.909768,9.404516 8.909768,9.727188 8.842789,9.727875 8.812132,9.728083 8.811782,9.533436 8.811782,9.403928" style="fill: white" /><polygon type="contour" points="8.607735,9.405993 8.622803,9.406105 8.622805,9.42441 8.622805,9.725597 8.607735,9.725711 8.345333,9.729037 8.345332,9.676504 8.344059,9.565502 8.345332,9.454954 8.345333,9.402668 8.39619,9.402668" style="fill: white" /><polygon type="contour" points="8.622784,9.920189 8.622941,9.987869 8.622941,10.023606 8.55095,10.023606 8.512591,10.023643 8.512558,9.987628 8.512648,9.919878 8.573231,9.919878" style="fill: white" /><polygon type="contour" points="8.909768,9.987868 8.909722,10.023643 8.843275,10.023643 8.811861,10.023606 8.811861,9.98787 8.811782,9.91999 8.876057,9.920003 8.909768,9.919943" style="fill: white" /><polygon type="contour" points="9.165529,9.920111 9.211591,9.920111 9.211759,9.987868 9.211759,10.023545 9.143834,10.023545 9.10806,10.023643 9.10806,9.953398 9.108157,9.919943" style="fill: white" /><polygon type="contour" points="9.211939,10.255645 9.212021,10.31992 9.144074,10.319842 9.108097,10.319842 9.108097,10.255645 9.10806,10.221981 9.178303,10.221981 9.211759,10.221936" style="fill: white" /><polygon type="contour" points="9.165386,10.508919 9.211824,10.508919 9.211591,10.558425 9.211591,10.619075 9.143833,10.61916 9.10806,10.619111 9.10806,10.544595 9.108097,10.508761" style="fill: white" /><polygon type="contour" points="8.90962,10.580752 8.909722,10.619111 8.876056,10.619144 8.811782,10.619209 8.811782,10.509084 8.876057,10.508761 8.90962,10.508761" style="fill: white" /><polygon type="contour" points="8.909722,10.288426 8.90962,10.319842 8.854643,10.31992 8.811782,10.31992 8.811861,10.255645 8.811861,10.222084 8.876056,10.222084 8.909722,10.221981" style="fill: white" /><polygon type="contour" points="8.622941,10.222084 8.622941,10.255645 8.622702,10.321808 8.573409,10.321808 8.512493,10.31992 8.512557,10.255646 8.512591,10.221981 8.587105,10.221981" style="fill: white" /><polygon type="contour" points="8.499236,10.50939 8.601301,10.509575 8.622126,10.509575 8.622321,10.581491 8.623004,10.785748 8.582223,10.786997 8.337792,10.79391 8.344392,10.551452 8.345231,10.50935 8.391542,10.50935" style="fill: white" />
</svg>
