<svg width="19.131698" height="19.131699">
<polygon type="contour" points="7.636157,5.86863 7.63606,5.918639 7.568108,5.918589 7.564776,5.918513 7.53531,5.918505 7.53531,5.724755 7.535374,5.69533 7.612631,5.695299 7.636157,5.695299" style="fill: white" /><polygon type="contour" points="7.624312,5.235698 7.63606,5.235723 7.63606,5.497932 7.636157,5.568117 7.571134,5.56796 7.535374,5.56796 7.535374,5.353419 7.535243,5.235556" style="fill: white" /><polygon type="contour" points="3.721288,3.440494 3.773815,3.440616 3.773345,3.530809 3.773345,3.621475 3.773476,3.624535 3.773471,3.630672 3.773471,3.773472 3.63067,3.773472 3.624533,3.773477 3.530808,3.773346 3.526413,3.77372 3.440488,3.77369 3.440676,3.583528 3.440499,3.504795 3.440499,3.440501 3.71963,3.440209" style="fill: white" /><polygon type="contour" points="4.164691,3.630724 4.164921,3.735372 4.164921,3.773579 4.118754,3.773435 3.969005,3.773435 3.969005,3.630636 4.102728,3.630526" style="fill: white" /><polygon type="contour" points="4.021361,3.96911 4.164921,3.96911 4.164921,4.021362 4.164691,4.164692 4.095548,4.164692 3.969108,4.164923 3.969005,4.118756 3.969005,3.969007" style="fill: white" /><polygon type="contour" points="3.773434,4.118756 3.773578,4.164923 3.681276,4.164692 3.630722,4.164692 3.630779,4.021363 3.630634,3.969007 3.773434,3.969007" style="fill: white" /><polygon type="contour" points="3.630769,5.695125 3.762602,5.695125 3.773614,5.695114 3.773517,5.764713 3.773662,5.768873 3.77357,5.774367 3.773565,5.780114 3.773602,5.781514 3.773679,5.78746 3.773718,5.789152 3.773638,5.797291 3.773637,5.804471 3.773312,6.037675 3.773139,6.039321 3.63034,6.039321 3.631134,6.027404 3.567212,6.028562 3.53571,6.028413 3.528725,6.028382 3.526803,6.028348 3.440317,6.028218 3.440317,5.767908 3.440488,5.695191 3.530808,5.695512 3.626749,5.695097" style="fill: white" /><polygon type="contour" points="3.73537,5.235464 3.773578,5.235464 3.773463,5.307908 3.773571,5.567745 3.630769,5.567745 3.630846,5.503902 3.630722,5.23546" style="fill: white" /><polygon type="contour" points="4.164691,5.35342 4.164777,5.56792 4.006999,5.56792 3.969415,5.567898 3.969477,5.503903 3.969108,5.235464 4.021362,5.235464 4.164691,5.23546" style="fill: white" /><polygon type="contour" points="4.164857,5.773631 4.164954,5.779944 4.164753,5.78746 4.164817,5.796051 4.16478,5.804471 4.164835,6.039016 4.164838,6.039291 4.164836,6.039421 3.969501,6.039421 3.969535,6.03926 3.969027,5.974129 3.969099,5.964451 3.969437,5.802443 3.969475,5.794637 3.969412,5.786296 3.969482,5.779945 3.969506,5.772635 3.969418,5.76721 3.969415,5.695166 4.132019,5.695166 4.164777,5.695149" style="fill: white" /><polygon type="contour" points="4.164614,6.441262 4.164848,6.526616 4.117212,6.526615 3.969548,6.526615 3.969484,6.503731 3.96927,6.425514 4.164571,6.425514" style="fill: white" /><polygon type="contour" points="3.651339,6.425514 3.773565,6.425514 3.773556,6.441263 3.773664,6.526615 3.738833,6.526616 3.630864,6.526616 3.63104,6.503572 3.630866,6.425413" style="fill: white" /><polygon type="contour" points="3.773467,6.980679 3.773599,7.027285 3.773789,7.081543 3.63099,7.081543 3.63089,7.045748 3.630644,6.980415 3.712704,6.980381" style="fill: white" /><polygon type="contour" points="4.164843,7.037358 4.164851,7.081543 3.969553,7.081543 3.96944,7.045994 3.969157,6.980679 4.052555,6.980679 4.165043,6.980594" style="fill: white" /><polygon type="contour" points="4.165139,8.307535 4.165308,8.412472 4.165105,8.605209 4.164721,9.013683 4.164721,10.061115 4.165105,10.48663 4.165225,10.718562 4.16507,10.823511 4.164942,11.356645 3.968942,11.356645 3.96916,11.350417 3.96915,10.834962 3.969316,10.733387 3.969216,10.42348 3.969171,10.389462 3.969203,9.994634 3.969203,8.849113 3.969305,8.7383 3.969379,8.417441 3.969202,8.312389 3.968942,7.775059 4.164942,7.775059" style="fill: white" /><polygon type="contour" points="3.773714,7.775059 3.773314,7.781286 3.773484,8.81973 3.773622,8.942917 3.773545,9.894892 3.773622,10.189184 3.773484,10.312331 3.773714,11.356645 3.700856,11.356645 3.535443,11.35837 3.535443,11.014283 3.535502,9.348847 3.535337,9.220578 3.535328,9.143835 3.535406,8.772085 3.535632,8.417003 3.53566,8.353441 3.535445,8.25724 3.535443,7.773334 3.60722,7.773334" style="fill: white" /><polygon type="contour" points="3.773793,7.619333 3.773849,7.636061 3.66042,7.636442 3.63074,7.636442 3.63111,7.56811 3.631024,7.564572 3.631075,7.535313 3.751724,7.535313 3.773313,7.535139" style="fill: white" /><polygon type="contour" points="4.165153,7.535246 4.164878,7.624314 4.164877,7.636062 3.969026,7.636062 3.969335,7.568111 3.969195,7.535139 4.11353,7.535139" style="fill: white" /><polygon type="contour" points="5.353417,7.535376 5.567958,7.535376 5.568115,7.612632 5.568115,7.636158 5.313214,7.636158 5.235721,7.636062 5.235614,7.56811 5.235554,7.535246" style="fill: white" /><polygon type="contour" points="5.5678,7.965482 5.567514,8.01901 5.567632,8.099024 5.567455,8.113842 5.567656,8.160147 5.567823,8.300493 5.567804,8.494964 5.567843,8.517951 5.567843,10.290317 5.56797,10.447517 5.567917,10.638167 5.567943,10.67289 5.567744,10.739112 5.567623,10.931111 5.56751,11.017662 5.567593,11.058901 5.567515,11.112693 5.568035,11.353512 5.568099,11.356645 5.2356,11.356645 5.235329,11.1304 5.23506,11.071271 5.234965,11.018043 5.234937,11.016769 5.235346,10.749245 5.235346,9.340417 5.235742,9.33216 5.235239,8.772646 5.234937,8.742237 5.235365,8.73021 5.234968,8.576394 5.234876,8.423336 5.235247,8.363331 5.234963,8.17896 5.235113,8.114192 5.235061,8.060432 5.235534,7.77819 5.2356,7.775059 5.568099,7.775059" style="fill: white" /><polygon type="contour" points="5.919573,7.97879 5.919674,8.018218 5.919568,8.080079 5.919592,8.113842 5.920494,8.381905 5.920667,8.41218 5.921259,8.561206 5.921893,8.804099 5.922128,9.087734 5.922213,9.114261 5.922397,9.162725 5.923301,9.506636 5.923301,9.551652 5.923324,9.557199 5.923596,9.560439 5.923596,9.566201 5.923324,9.575053 5.923301,9.58058 5.923301,9.625595 5.922397,9.968979 5.922212,10.017442 5.921893,10.327604 5.921259,10.570497 5.920667,10.719523 5.920493,10.749799 5.919592,11.01786 5.919568,11.051623 5.919674,11.113484 5.919573,11.152912 5.918955,11.356645 5.695214,11.356645 5.695004,10.82482 5.695229,10.719898 5.695226,10.500222 5.695178,10.415762 5.695178,8.704969 5.695197,8.671298 5.69535,8.411142 5.695105,8.306231 5.695214,7.775059 5.918955,7.775059" style="fill: white" /><polygon type="contour" points="5.918512,7.564777 5.918586,7.568111 5.918636,7.636062 5.740335,7.636062 5.695298,7.636158 5.695329,7.571135 5.695329,7.535376 5.842572,7.535376 5.918503,7.535313" style="fill: white" /><polygon type="contour" points="5.917055,6.980833 5.917225,7.044657 5.917348,7.045129 5.917334,7.081543 5.824257,7.081543 5.69515,7.081368 5.695051,7.048676 5.695051,6.98067 5.773618,6.98067" style="fill: white" /><polygon type="contour" points="5.459577,6.98067 5.56775,6.98067 5.567843,7.016871 5.567843,7.081368 5.448097,7.081368 5.235626,7.081543 5.235541,7.045994 5.235355,6.980594" style="fill: white" /><polygon type="contour" points="5.567713,6.526932 5.494156,6.526932 5.235552,6.526615 5.235638,6.503731 5.23556,6.425514 5.568059,6.425514" style="fill: white" /><polygon type="contour" points="5.915485,6.441263 5.91592,6.526615 5.854114,6.526615 5.695161,6.526932 5.695162,6.506224 5.695166,6.425514 5.732661,6.425399 5.915551,6.425399" style="fill: white" /><polygon type="contour" points="6.526931,5.75122 6.526614,5.915922 6.503246,5.916033 6.425397,5.915553 6.425397,5.732663 6.425512,5.695169 6.44126,5.695168 6.526931,5.695162" style="fill: white" /><polygon type="contour" points="7.01687,5.695151 7.081367,5.695151 7.081367,5.781115 7.081541,5.917336 7.051317,5.917256 7.039549,5.917431 6.980831,5.917057 6.980831,5.772502 6.980669,5.695053" style="fill: white" /><polygon type="contour" points="7.037356,5.235493 7.081541,5.235628 7.081541,5.365279 7.081367,5.567844 7.048673,5.567751 6.980669,5.567751 6.980669,5.459579 6.980592,5.235357" style="fill: white" /><polygon type="contour" points="6.526614,5.235553 6.526614,5.316653 6.52693,5.567714 6.425512,5.568063 6.425512,5.235562 6.441261,5.235507" style="fill: white" /><polygon type="contour" points="6.041914,5.235072 6.041833,5.507443 6.041802,5.567631 6.041763,5.567608 6.038632,5.565721 6.038642,5.567612 5.810257,5.567909 5.804468,5.567893 5.800166,5.568013 5.794206,5.567751 5.787511,5.567875 5.779527,5.567995 5.7715,5.567773 5.69507,5.567745 5.695148,5.503902 5.695148,5.235286 5.771501,5.235273 5.779527,5.235494 5.787283,5.235502 5.794205,5.23525 5.800166,5.235513 5.805488,5.235444 5.810258,5.235408 5.814868,5.235271 5.819087,5.235221 5.821115,5.235307 5.823312,5.235393 5.827912,5.235363 5.831534,5.235285 5.835291,5.235311 5.838087,5.235343 5.891814,5.235027 5.912484,5.235008 5.978316,5.235008" style="fill: white" /><polygon type="contour" points="5.56801,5.768951 5.567772,5.771501 5.567993,5.779527 5.568002,5.787284 5.56775,5.794207 5.568012,5.800166 5.567892,5.804471 5.567907,5.810259 5.568414,6.041803 5.427654,6.041818 5.414151,6.041916 5.23507,6.041916 5.235007,5.978316 5.23527,5.813176 5.23527,5.81167 5.235493,5.806887 5.235105,5.801885 5.23553,5.7958 5.235436,5.789388 5.235271,5.781982 5.235284,5.695149 5.286324,5.695072 5.567743,5.695072" style="fill: white" /><polygon type="contour" points="5.752633,5.695089 5.756288,5.69507 5.758053,5.695101 5.759798,5.69513 5.761279,5.695065 5.761956,5.695163 5.768873,5.695162 5.774587,5.695052 5.781554,5.695179 5.789151,5.695219 5.79729,5.695138 5.804468,5.695138 5.813552,5.695179 6.03503,5.695333 6.039309,5.69532 6.039672,5.764909 6.039672,5.914701 6.038935,5.914865 6.038329,5.914707 6.030907,5.914846 6.019984,5.914837 6.017021,5.914545 5.980945,5.914746 5.97404,5.915015 5.916039,5.91604 5.914744,5.980948 5.914836,6.019985 5.914845,6.030908 5.914705,6.038352 5.914869,6.038974 5.914698,6.039673 5.764907,6.040151 5.695362,6.040271 5.695255,6.04026 5.694963,6.039584 5.695178,5.813553 5.695136,5.80447 5.695137,5.797291 5.695218,5.789152 5.695178,5.781555 5.69505,5.774589 5.69516,5.768874 5.69521,5.765042 5.695106,5.762493 5.695089,5.75094 5.695157,5.747315 5.695118,5.743855 5.695072,5.740623 5.695117,5.736241 5.695085,5.735352 5.695123,5.734624 5.695124,5.695125 5.732863,5.69509 5.733192,5.69509 5.734525,5.695079 5.736379,5.695142 5.739054,5.695093 5.742102,5.69512 5.745481,5.695091 5.746181,5.695129 5.748986,5.6951 5.750052,5.69505" style="fill: white" /><polygon type="contour" points="5.567743,5.286325 5.567743,5.567745 5.503901,5.56792 5.235284,5.56792 5.235284,5.503902 5.235457,5.23546 5.353418,5.23546 5.567919,5.235286" style="fill: white" /><polygon type="contour" points="5.503901,3.969479 5.567897,3.969417 5.567919,4.007001 5.567919,4.164778 5.503901,4.164778 5.235457,4.164692 5.235457,4.09555 5.235462,3.96911" style="fill: white" /><polygon type="contour" points="5.5039,3.630848 5.567743,3.630771 5.567743,3.773572 5.5039,3.77365 5.235462,3.773579 5.235462,3.735372 5.235457,3.630724" style="fill: white" /><polygon type="contour" points="6.02838,3.528728 6.028411,3.535712 6.02838,3.567194 6.028244,3.58466 6.028102,3.628522 6.039141,3.630638 6.03913,3.630648 6.039323,3.768048 6.039318,3.77381 6.038392,3.773832 6.03503,3.773832 5.795799,3.773578 5.774468,3.773608 5.774395,3.773643 5.761279,3.773566 5.695115,3.773536 5.695115,3.647285 5.695124,3.630771 5.695096,3.62675 5.695509,3.621475 5.695509,3.53081 5.695216,3.526413 5.695188,3.44049 5.767905,3.440319 6.028215,3.440319" style="fill: white" /><polygon type="contour" points="6.039419,3.969502 6.039419,4.164838 6.039157,4.164838 5.814116,4.164798 5.806324,4.164826 5.798353,4.164906 5.790217,4.164744 5.782587,4.164816 5.775528,4.164787 5.695148,4.164778 5.695165,4.132021 5.695165,3.969417 5.775529,3.969489 5.782586,3.969516 5.790216,3.969444 5.798354,3.969422 5.806324,3.969527 5.813175,3.969499 5.977905,3.969184 6.02641,3.968872" style="fill: white" /><polygon type="contour" points="6.44126,3.969315 6.526614,3.969549 6.526614,4.164849 6.503728,4.164784 6.425512,4.164573 6.425512,3.969272" style="fill: white" /><polygon type="contour" points="6.526614,3.630865 6.526614,3.773666 6.503728,3.773683 6.425512,3.773566 6.425411,3.753092 6.425411,3.630868 6.441261,3.630756" style="fill: white" /><polygon type="contour" points="7.044656,3.630829 7.081541,3.630991 7.081541,3.773791 7.045993,3.773692 6.980677,3.773467 6.980379,3.712706 6.980412,3.630646" style="fill: white" /><polygon type="contour" points="7.027283,3.969311 7.081541,3.969553 7.081541,4.164854 7.045992,4.164989 6.980592,4.165045 6.980677,4.052557 6.980677,3.969158" style="fill: white" /><polygon type="contour" points="7.63606,3.969028 7.63606,4.16488 7.568107,4.165108 7.535243,4.165155 7.535137,4.11353 7.535137,3.969197 7.619333,3.968922" style="fill: white" /><polygon type="contour" points="7.63606,3.743663 7.63606,3.773851 7.568107,3.77344 7.535137,3.773315 7.535137,3.668671 7.53531,3.631077 7.564975,3.630979 7.568107,3.631112 7.636441,3.630742" style="fill: white" /><polygon type="contour" points="9.404237,3.535497 9.439367,3.535469 9.865137,3.535469 9.988771,3.535527 10.35978,3.53562 10.714699,3.535635 10.77826,3.535662 10.874461,3.535446 11.356643,3.535715 11.356643,3.773716 11.350415,3.773316 10.312327,3.773485 10.189181,3.773624 9.237299,3.773546 8.942914,3.773624 8.819728,3.773484 7.775058,3.773716 7.775058,3.535715 8.309034,3.535384 8.770439,3.535338 8.931519,3.53533" style="fill: white" /><polygon type="contour" points="12.628128,3.631041 12.706289,3.630868 12.706189,3.651342 12.706189,3.773566 12.690439,3.773557 12.605087,3.773666 12.605087,3.738835 12.605085,3.630865" style="fill: white" /><polygon type="contour" points="15.162498,8.312388 15.161837,8.417441 15.161933,8.509524 15.162498,8.849113 15.162529,9.192269 15.162529,10.389462 15.162483,10.42348 15.161904,10.733386 15.16255,10.834963 15.162757,11.356645 14.966757,11.356645 14.966631,10.823511 14.966475,10.718563 14.966595,10.48663 14.966979,10.061115 14.966979,9.013683 14.966594,8.605209 14.966392,8.412472 14.966561,8.307535 14.966758,7.775059 15.162757,7.775059" style="fill: white" /><polygon type="contour" points="15.596386,7.781287 15.596331,8.347343 15.595978,8.993857 15.595917,9.800332 15.596018,9.80337 15.596041,9.836582 15.596081,9.905235 15.596175,10.200657 15.596132,10.587478 15.596113,10.718158 15.596317,10.822666 15.596256,11.35837 15.524478,11.35837 15.357985,11.356645 15.358388,11.350416 15.358217,10.312331 15.358078,10.189185 15.358155,9.237301 15.358078,8.942917 15.358217,8.819731 15.357985,7.775059 15.595986,7.775059" style="fill: white" /><polygon type="contour" points="15.500624,7.535313 15.500675,7.564572 15.500589,7.568111 15.50096,7.636442 15.388038,7.636062 15.357849,7.636062 15.358262,7.568111 15.358389,7.535139 15.463028,7.535139" style="fill: white" /><polygon type="contour" points="15.162779,7.619334 15.162674,7.636062 15.00811,7.636062 14.966822,7.63606 14.966592,7.56811 14.966546,7.535246 15.018168,7.535139 15.162504,7.535139" style="fill: white" /><polygon type="contour" points="15.079143,6.980679 15.162543,6.980679 15.162389,7.027285 15.162148,7.081543 14.966847,7.081543 14.966712,7.045995 14.966656,6.980594" style="fill: white" /><polygon type="contour" points="15.501056,6.980415 15.500872,7.044657 15.50071,7.081543 15.357909,7.081543 15.358008,7.045994 15.358233,6.980679 15.418994,6.980381" style="fill: white" /><polygon type="contour" points="15.500944,6.441263 15.500836,6.526616 15.392865,6.526616 15.358035,6.526615 15.358018,6.50373 15.358134,6.425514 15.378607,6.425413 15.500834,6.425413" style="fill: white" /><polygon type="contour" points="15.162385,6.441262 15.162153,6.526615 14.966853,6.526615 14.966915,6.503731 14.967129,6.425514 15.162429,6.425514" style="fill: white" /><polygon type="contour" points="14.99968,5.695166 15.162284,5.695166 15.162282,5.767209 15.162132,5.772449 15.162126,5.778944 15.162246,5.78746 15.162155,5.794388 15.162263,5.802443 15.162219,5.80447 15.162541,5.966906 15.162672,5.974129 15.162165,6.03926 15.1622,6.039421 14.966863,6.039421 14.966861,6.039291 14.966862,6.039111 14.966919,5.804098 14.966995,5.795799 14.966946,5.78746 14.966917,5.779945 14.966842,5.773631 14.966882,5.768681 14.966923,5.695149" style="fill: white" /><polygon type="contour" points="15.510229,5.695512 15.600891,5.695512 15.605288,5.695219 15.691212,5.695191 15.691384,5.767908 15.691384,6.028218 15.602974,6.028382 15.595989,6.028413 15.564489,6.028562 15.500565,6.027404 15.50136,6.039321 15.358561,6.039321 15.358389,6.037676 15.358412,6.035053 15.358123,5.795799 15.358081,5.789209 15.357981,5.788795 15.358089,5.768584 15.358003,5.768489 15.358161,5.76316 15.358165,5.695116 15.484416,5.695116 15.50093,5.695125 15.504951,5.695096" style="fill: white" /><polygon type="contour" points="15.500854,5.503902 15.500931,5.567745 15.358129,5.567745 15.358052,5.503902 15.358122,5.235464 15.396329,5.235464 15.50098,5.23546" style="fill: white" /><polygon type="contour" points="15.162591,5.235464 15.162222,5.503903 15.162284,5.567898 15.124699,5.56792 14.966923,5.56792 14.966923,5.503902 14.96701,5.23546 15.036149,5.23546" style="fill: white" /><polygon type="contour" points="15.691199,3.440501 15.691199,3.504795 15.691023,3.583527 15.691212,3.77369 15.60089,3.773346 15.510228,3.773346 15.507166,3.773477 15.501029,3.773472 15.35823,3.773472 15.35823,3.630673 15.358224,3.624535 15.358357,3.53081 15.35798,3.526413 15.357884,3.440616 15.410411,3.440494 15.412067,3.44021" style="fill: white" /><polygon type="contour" points="15.501178,4.10273 15.50098,4.164692 15.396328,4.164923 15.358122,4.164923 15.358266,4.118756 15.358266,3.969007 15.501067,3.969007" style="fill: white" /><polygon type="contour" points="15.162695,3.773435 15.110337,3.773579 14.966778,3.773579 14.966778,3.735373 14.96701,3.630724 15.110337,3.630781 15.162695,3.630636" style="fill: white" /><polygon type="contour" points="15.162591,4.021362 15.162591,4.164923 15.110337,4.164923 14.96701,4.164692 14.96701,4.09555 14.966778,3.96911 15.012944,3.969007 15.162695,3.969007" style="fill: white" /><polygon type="contour" points="13.896237,4.021362 13.896243,4.164692 13.778282,4.164692 13.563781,4.164778 13.563803,4.13202 13.563803,3.969417 13.627798,3.969479 13.896237,3.96911" style="fill: white" /><polygon type="contour" points="13.896237,3.735373 13.896237,3.773579 13.627799,3.77365 13.563957,3.773572 13.563957,3.630771 13.627799,3.630848 13.896243,3.630724" style="fill: white" /><polygon type="contour" points="13.436512,3.440489 13.436191,3.53081 13.436605,3.626749 13.436576,3.630771 13.436576,3.762603 13.436587,3.773615 13.366658,3.773566 13.36302,3.773525 13.357334,3.773571 13.351586,3.773566 13.350187,3.773603 13.344239,3.77368 13.342548,3.773719 13.334409,3.773638 13.325938,3.77343 13.209182,3.773542 13.109673,3.773494 13.096643,3.77294 13.093305,3.773137 13.092379,3.77314 13.092379,3.630361 13.092329,3.630346 13.104265,3.629371 13.10314,3.567213 13.10329,3.535711 13.10332,3.528727 13.103354,3.526805 13.103482,3.440319 13.363794,3.440319" style="fill: white" /><polygon type="contour" points="13.153794,3.969184 13.318523,3.969499 13.325376,3.969527 13.333345,3.969422 13.341483,3.969444 13.349113,3.969516 13.35617,3.969489 13.436535,3.969417 13.436535,4.132021 13.436552,4.164778 13.356171,4.164787 13.349112,4.164816 13.341483,4.164743 13.333345,4.164906 13.325376,4.164825 13.317584,4.164798 13.092543,4.164838 13.092281,4.164838 13.092281,3.969502 13.10529,3.968872" style="fill: white" /><polygon type="contour" points="12.706189,4.164573 12.690438,4.164617 12.605087,4.164849 12.605087,3.969549 12.62797,3.969485 12.706189,3.969272" style="fill: white" /><polygon type="contour" points="12.151024,4.052557 12.151109,4.165045 12.094343,4.164844 12.050159,4.164854 12.050159,3.969554 12.085705,3.969441 12.151024,3.969158" style="fill: white" /><polygon type="contour" points="12.151322,3.712706 12.151024,3.773468 12.104416,3.7736 12.050159,3.773791 12.050159,3.630991 12.085954,3.630891 12.151288,3.630646" style="fill: white" /><polygon type="contour" points="11.563592,3.631112 11.567128,3.631025 11.59639,3.631077 11.59639,3.751725 11.596563,3.773315 11.512366,3.773796 11.495606,3.773756 11.495222,3.658804 11.49526,3.630742" style="fill: white" /><polygon type="contour" points="11.563592,3.969336 11.596563,3.969197 11.596563,4.11353 11.596457,4.165155 11.507388,4.164881 11.49564,4.16488 11.49564,3.969028" style="fill: white" /><polygon type="contour" points="11.356643,4.164944 10.823509,4.16507 10.718562,4.165227 10.486628,4.165107 10.061114,4.164723 9.013682,4.164723 8.605208,4.165107 8.41247,4.165309 8.307533,4.165141 7.775058,4.164944 7.775058,3.968944 8.312388,3.969204 8.417439,3.969381 8.509523,3.969306 8.849112,3.969204 9.192265,3.969172 10.389459,3.969172 10.423478,3.969218 10.733384,3.969318 10.834961,3.969151 11.356643,3.968944" style="fill: white" /><polygon type="contour" points="11.018041,5.234966 11.071269,5.235061 11.35351,5.235535 11.356643,5.235601 11.356643,5.568102 11.16622,5.567803 11.112691,5.567516 11.058899,5.567593 11.01766,5.567511 10.931109,5.567624 10.878404,5.567831 10.672888,5.567944 10.638164,5.567918 10.447515,5.567971 8.734113,5.567971 8.517948,5.567844 8.494964,5.567805 8.300491,5.567826 8.160145,5.567657 8.113841,5.567455 8.099024,5.567632 8.019007,5.567516 7.778189,5.568036 7.775058,5.568102 7.775058,5.235601 8.001301,5.235331 8.06043,5.235062 8.114189,5.235114 8.17896,5.234964 8.36333,5.235248 8.696948,5.235726 9.842366,5.235726 9.893412,5.235176 10.022837,5.235288 10.288825,5.235872 10.355102,5.235263 10.552979,5.235746 10.86194,5.235239 11.016766,5.234937" style="fill: white" /><polygon type="contour" points="11.356643,5.695216 11.356865,5.89352 11.356865,5.919048 11.084246,5.919694 11.062902,5.919798 10.950616,5.920103 10.809849,5.920289 10.353181,5.921339 10.164899,5.921942 10.066243,5.922129 10.039368,5.922214 9.690976,5.923132 9.670608,5.923132 9.625593,5.923303 9.580577,5.923303 9.575052,5.923326 9.571866,5.923598 9.566198,5.923598 9.557196,5.923326 9.551651,5.923303 9.506634,5.923303 9.162723,5.922399 9.11426,5.922215 8.798744,5.921403 8.443397,5.920361 8.336438,5.920333 8.181084,5.920103 8.068797,5.919798 8.018216,5.919675 7.774835,5.919048 7.774835,5.893521 7.775058,5.695216 8.306229,5.695107 8.41114,5.695351 8.621426,5.695228 8.704965,5.695179 10.415758,5.695179 10.50022,5.695229 10.719897,5.695231 10.824819,5.695006" style="fill: white" /><polygon type="contour" points="11.560567,5.69533 11.596327,5.69533 11.596327,5.842574 11.59639,5.918505 11.566923,5.918513 11.563591,5.918589 11.49564,5.918639 11.49564,5.740338 11.495544,5.695299" style="fill: white" /><polygon type="contour" points="11.596327,5.353419 11.596327,5.56796 11.519068,5.568117 11.495544,5.568117 11.495544,5.313216 11.49564,5.235723 11.563591,5.235617 11.596457,5.235556" style="fill: white" /><polygon type="contour" points="12.151031,5.459578 12.151031,5.567751 12.114829,5.567844 12.050332,5.567844 12.050332,5.4481 12.050159,5.235628 12.085706,5.235543 12.151109,5.235357" style="fill: white" /><polygon type="contour" points="12.151031,5.773619 12.150869,5.917057 12.087043,5.917227 12.050159,5.917336 12.050159,5.824259 12.050332,5.695151 12.083024,5.695053 12.151031,5.695053" style="fill: white" /><polygon type="contour" points="12.625474,5.695163 12.706188,5.695169 12.706304,5.732663 12.706304,5.915553 12.690438,5.915488 12.605087,5.915922 12.605087,5.854115 12.604768,5.695162" style="fill: white" /><polygon type="contour" points="12.62797,5.23564 12.706189,5.235562 12.706189,5.568063 12.690439,5.568009 12.604768,5.567715 12.604768,5.494156 12.605087,5.235554" style="fill: white" /><polygon type="contour" points="13.0901,5.23523 13.318524,5.235271 13.321443,5.235409 13.326211,5.235444 13.331533,5.235514 13.337494,5.235251 13.344188,5.235197 13.352172,5.235495 13.360199,5.235273 13.436552,5.235286 13.43663,5.286325 13.43663,5.567745 13.364755,5.567988 13.360199,5.567774 13.357935,5.567692 13.351757,5.567746 13.344417,5.568004 13.337495,5.567751 13.331533,5.568013 13.32723,5.567893 13.321443,5.567909 13.093054,5.567612 13.093064,5.565697 13.089899,5.567631 13.089899,5.234987" style="fill: white" /><polygon type="contour" points="13.896243,5.23546 13.896243,5.353421 13.896414,5.56792 13.845374,5.567745 13.563957,5.567745 13.563781,5.503903 13.563781,5.235286 13.627798,5.235286" style="fill: white" /><polygon type="contour" points="13.896414,5.695149 13.896139,5.773956 13.896428,5.781983 13.896262,5.789387 13.896168,5.7958 13.896593,5.801885 13.896393,5.806512 13.896429,5.81167 13.896429,5.816188 13.896342,5.82029 13.896543,5.8245 13.896336,5.827913 13.896608,5.83265 13.896367,5.83631 13.896692,5.912485 13.896693,5.978317 13.89663,6.041916 13.717548,6.041916 13.704044,6.041818 13.563285,6.041803 13.563792,5.810259 13.563808,5.804471 13.563688,5.800167 13.563769,5.794388 13.563697,5.787284 13.563954,5.779944 13.563928,5.771501 13.563957,5.695072 13.845373,5.695072" style="fill: white" /><polygon type="contour" points="13.382713,5.6951 13.385518,5.695129 13.386218,5.695091 13.389181,5.695111 13.392414,5.695083 13.395096,5.695132 13.397174,5.695079 13.398507,5.69509 13.436576,5.695125 13.436576,5.734624 13.436615,5.735352 13.436582,5.736241 13.436628,5.740623 13.436581,5.743855 13.436542,5.747315 13.436611,5.75094 13.436593,5.762493 13.43649,5.765042 13.436522,5.768681 13.43665,5.774588 13.436521,5.781555 13.436481,5.789152 13.436563,5.797292 13.436584,5.805763 13.436523,5.813177 13.436738,6.039477 13.436446,6.040231 13.436338,6.04027 13.366792,6.040151 13.217002,6.039674 13.216831,6.038973 13.216995,6.03835 13.216856,6.030908 13.216865,6.019985 13.21738,6.017816 13.216955,5.980947 13.216687,5.974042 13.21566,5.916041 13.150753,5.914746 13.111714,5.914836 13.100791,5.914845 13.093374,5.914706 13.092766,5.914865 13.092028,5.914701 13.092028,5.764908 13.09239,5.69532 13.096667,5.695333 13.318148,5.695179 13.326125,5.695117 13.334409,5.695137 13.342547,5.695218 13.350147,5.695179 13.357113,5.695052 13.362826,5.695162 13.366987,5.695162 13.368971,5.695117 13.369483,5.695134 13.379063,5.695139 13.381649,5.69505" style="fill: white" /><polygon type="contour" points="13.436533,6.425514 13.436535,6.441262 13.43654,6.526932 13.380481,6.526932 13.21578,6.526615 13.21567,6.503248 13.21615,6.425399 13.39904,6.425399" style="fill: white" /><polygon type="contour" points="13.896193,6.441263 13.896148,6.526616 13.815047,6.526615 13.563986,6.526932 13.563916,6.506225 13.563639,6.425514 13.896138,6.425514" style="fill: white" /><polygon type="contour" points="13.896208,7.037358 13.896074,7.081543 13.766421,7.081543 13.563857,7.081369 13.563951,7.048676 13.563951,6.98067 13.672123,6.98067 13.896345,6.980594" style="fill: white" /><polygon type="contour" points="13.43655,7.016871 13.43655,7.081369 13.350585,7.081369 13.214366,7.081543 13.214443,7.05176 13.21427,7.039551 13.214644,6.980833 13.359199,6.980833 13.436649,6.98067" style="fill: white" /><polygon type="contour" points="13.436486,7.775059 13.436596,8.30623 13.43635,8.411142 13.436472,8.621428 13.436522,8.704968 13.436522,10.415761 13.436472,10.500222 13.436469,10.719898 13.436697,10.824821 13.436486,11.356645 13.238183,11.356867 13.212656,11.356867 13.212007,11.084248 13.211903,11.062905 13.2116,10.950617 13.211413,10.809852 13.210361,10.353182 13.20976,10.115667 13.209573,10.066246 13.209485,10.039369 13.20857,9.69098 13.20857,9.670611 13.208399,9.625596 13.208399,9.58058 13.208376,9.575053 13.208104,9.571868 13.208104,9.566201 13.208376,9.557199 13.2084,9.551653 13.208399,9.506636 13.209301,9.162725 13.209486,9.114261 13.210298,8.798746 13.211341,8.443399 13.211369,8.336441 13.2116,8.181084 13.211903,8.068799 13.212026,8.018217 13.212656,7.774837 13.238183,7.774837" style="fill: white" /><polygon type="contour" points="13.436371,7.535376 13.436403,7.612633 13.436403,7.636158 13.26307,7.636158 13.213061,7.636062 13.213112,7.56811 13.213188,7.564778 13.213197,7.535313 13.406945,7.535313" style="fill: white" /><polygon type="contour" points="13.896005,7.624313 13.895979,7.636061 13.633769,7.636061 13.563584,7.636158 13.563742,7.571135 13.563742,7.535376 13.778282,7.535376 13.896146,7.535246" style="fill: white" /><polygon type="contour" points="13.89637,8.001303 13.896639,8.060431 13.896587,8.114192 13.896737,8.17896 13.896453,8.363331 13.895976,8.696951 13.895976,9.842369 13.896527,9.893413 13.896414,10.022839 13.89583,10.288827 13.896439,10.355104 13.895956,10.552981 13.896461,10.861942 13.896764,11.016768 13.896736,11.018042 13.896638,11.071272 13.896167,11.353511 13.896101,11.356645 13.5636,11.356645 13.563899,11.166222 13.564185,11.112694 13.564108,11.058901 13.56419,11.017663 13.564077,10.931111 13.56387,10.878406 13.563757,10.67289 13.563783,10.638166 13.563731,10.447517 13.563731,8.734114 13.563857,8.517951 13.563896,8.494964 13.563875,8.300493 13.564043,8.160147 13.564246,8.113842 13.564068,8.099024 13.564185,8.01901 13.563665,7.778191 13.5636,7.775059 13.896101,7.775059" style="fill: white" /><polygon type="contour" points="11.596563,15.018172 11.596563,15.162507 11.512366,15.16278 11.49564,15.162675 11.49564,14.966825 11.563591,14.966595 11.596457,14.966549" style="fill: white" /><polygon type="contour" points="11.356643,15.430844 11.358368,15.596258 11.350414,15.595998 10.87446,15.596259 10.778748,15.596042 10.715179,15.596069 10.359615,15.596294 10.255244,15.596138 9.840505,15.596127 9.439367,15.596235 9.404237,15.596207 8.931519,15.596374 8.544682,15.596134 8.414029,15.596116 8.309035,15.59632 7.773333,15.596258 7.773333,15.52448 7.775058,15.357988 7.781285,15.358388 8.819727,15.358218 8.942915,15.35808 9.894888,15.358158 10.189182,15.35808 10.312328,15.358218 11.356643,15.357988" style="fill: white" /><polygon type="contour" points="11.563592,15.358263 11.596563,15.35839 11.596563,15.463032 11.59639,15.500627 11.566725,15.500724 11.563592,15.500592 11.49526,15.500962 11.49564,15.38804 11.49564,15.357852" style="fill: white" /><polygon type="contour" points="12.085706,15.35801 12.151024,15.358235 12.151322,15.418997 12.151287,15.501058 12.087043,15.500874 12.050159,15.500713 12.050159,15.357911" style="fill: white" /><polygon type="contour" points="12.151024,15.079146 12.151024,15.162545 12.104416,15.162392 12.050159,15.16215 12.050159,14.96685 12.085706,14.966715 12.151109,14.966658" style="fill: white" /><polygon type="contour" points="12.62797,14.966918 12.706189,14.96713 12.706189,15.16243 12.690439,15.162386 12.605087,15.162155 12.605087,14.966855" style="fill: white" /><polygon type="contour" points="12.706189,15.358136 12.706289,15.378609 12.706289,15.500836 12.690438,15.500946 12.605087,15.500838 12.605087,15.358036 12.62797,15.35802" style="fill: white" /><polygon type="contour" points="13.335902,15.358126 13.357065,15.358097 13.357142,15.358061 13.370419,15.358138 13.436585,15.358168 13.436585,15.484417 13.436576,15.500933 13.436605,15.504952 13.436191,15.51023 13.436191,15.600892 13.436481,15.60529 13.436512,15.691214 13.363794,15.691386 13.103482,15.691386 13.10332,15.602975 13.10329,15.595991 13.103319,15.564508 13.10382,15.500593 13.092379,15.50136 13.092379,15.364012 13.092355,15.357899 13.093304,15.357873 13.096666,15.357873" style="fill: white" /><polygon type="contour" points="13.436552,14.966926 13.436535,14.999683 13.436535,15.162287 13.362085,15.162194 13.356171,15.162216 13.349112,15.162188 13.341483,15.16226 13.333345,15.162282 13.325376,15.162177 13.318523,15.162205 13.153794,15.16252 13.10529,15.162832 13.092281,15.1622 13.092281,14.966865 13.092565,14.966866 13.318523,14.966906 13.325377,14.966877 13.333345,14.966798 13.341482,14.96696 13.349113,14.966888 13.35617,14.966916 13.362086,14.966739" style="fill: white" /><polygon type="contour" points="13.896243,14.967012 13.896243,15.036153 13.896237,15.162594 13.627798,15.162225 13.563803,15.162287 13.563781,15.124702 13.563781,14.966926 13.627798,14.966926" style="fill: white" /><polygon type="contour" points="13.896237,15.358125 13.896237,15.39633 13.896243,15.500981 13.627799,15.500855 13.563957,15.500933 13.563957,15.358132 13.627799,15.358054" style="fill: white" /><polygon type="contour" points="15.691212,15.358012 15.691023,15.548176 15.691199,15.626909 15.691199,15.691202 15.412067,15.691493 15.410411,15.691208 15.357885,15.691087 15.358355,15.600893 15.358355,15.510231 15.358224,15.507167 15.35823,15.501031 15.35823,15.358232 15.501029,15.358232 15.507166,15.358227 15.600891,15.358358 15.605287,15.357984" style="fill: white" /><polygon type="contour" points="15.012944,15.358268 15.162695,15.358268 15.162695,15.501068 15.028971,15.501179 14.96701,15.500981 14.966778,15.39633 14.966778,15.358125" style="fill: white" /><polygon type="contour" points="15.162695,15.012945 15.162695,15.162697 15.110338,15.162594 14.966778,15.162594 14.966778,15.11034 14.96701,14.967012 15.03615,14.967012 15.162591,14.96678" style="fill: white" /><polygon type="contour" points="15.450425,14.967012 15.50098,14.967012 15.500921,15.11034 15.501066,15.162697 15.358266,15.162697 15.358122,15.11034 15.358122,14.96678" style="fill: white" /><polygon type="contour" points="15.500854,13.627802 15.50098,13.896244 15.396329,13.896239 15.358122,13.896239 15.358236,13.823794 15.358129,13.563959 15.500931,13.563959" style="fill: white" /><polygon type="contour" points="15.162284,13.563806 15.162221,13.627802 15.162591,13.896239 15.110338,13.896239 14.96701,13.896244 14.96701,13.778283 14.966923,13.563784 15.124699,13.563784" style="fill: white" /><polygon type="contour" points="15.162165,13.092443 15.162673,13.157574 15.162601,13.167252 15.162263,13.329261 15.162224,13.337248 15.162288,13.345406 15.162126,13.352759 15.162132,13.359254 15.162282,13.364494 15.162284,13.436538 14.99968,13.436538 14.966923,13.436555 14.966942,13.3581 14.966917,13.351758 14.966947,13.344243 14.966882,13.335652 14.966919,13.327606 14.966862,13.092591 14.966861,13.092412 14.966863,13.092283 15.1622,13.092283" style="fill: white" /><polygon type="contour" points="15.501359,13.092379 15.500566,13.104293 15.564488,13.103143 15.595989,13.10329 15.602974,13.103322 15.604896,13.103356 15.691384,13.103484 15.691384,13.363794 15.691212,13.436514 15.600891,13.436192 15.504951,13.436608 15.50093,13.436579 15.369097,13.436579 15.358086,13.43659 15.358203,13.369485 15.358136,13.366661 15.358176,13.363022 15.35813,13.357337 15.358135,13.351589 15.358098,13.350191 15.358021,13.344242 15.357982,13.342551 15.358063,13.334412 15.358063,13.327232 15.358388,13.094026 15.35856,13.09238 15.495241,13.09238 15.501313,13.092372" style="fill: white" /><polygon type="contour" points="15.50066,12.628131 15.500834,12.70629 15.480359,12.70619 15.358134,12.70619 15.358143,12.69044 15.358035,12.605089 15.500836,12.605089" style="fill: white" /><polygon type="contour" points="15.162216,12.627973 15.162428,12.70619 14.967128,12.70619 14.967085,12.690441 14.966853,12.605089 15.162153,12.605089" style="fill: white" /><polygon type="contour" points="15.16226,12.085706 15.162542,12.151026 15.079144,12.151026 14.966656,12.15111 14.966856,12.094345 14.966848,12.05016 15.162147,12.05016" style="fill: white" /><polygon type="contour" points="15.500809,12.085955 15.501056,12.151289 15.418994,12.151323 15.358233,12.151026 15.358099,12.104419 15.357909,12.05016 15.50071,12.05016" style="fill: white" /><polygon type="contour" points="15.500589,11.563592 15.500675,11.567131 15.500624,11.596391 15.379979,11.596391 15.358389,11.596564 15.357905,11.512369 15.357849,11.495642 15.471279,11.495262 15.50096,11.495262" style="fill: white" /><polygon type="contour" points="15.162365,11.563593 15.162504,11.596564 15.018169,11.596564 14.966546,11.596457 14.966822,11.50739 14.966822,11.495642 15.162674,11.495642" style="fill: white" /><polygon type="contour" points="13.436371,11.560568 13.436371,11.596328 13.289127,11.596328 13.213197,11.596391 13.213188,11.566924 13.213112,11.563593 13.213061,11.495642 13.391363,11.495642 13.436403,11.495546" style="fill: white" /><polygon type="contour" points="13.89598,11.495642 13.896084,11.563593 13.896146,11.596458 13.778282,11.596328 13.563742,11.596328 13.563584,11.51907 13.563584,11.495546 13.818486,11.495546" style="fill: white" /><polygon type="contour" points="13.896158,12.085707 13.896345,12.15111 13.672123,12.151034 13.563951,12.151034 13.563857,12.114832 13.563857,12.050334 13.683601,12.050334 13.896073,12.05016" style="fill: white" /><polygon type="contour" points="13.43655,12.050333 13.436649,12.083026 13.436649,12.151034 13.358081,12.151034 13.214644,12.15087 13.214474,12.087045 13.214366,12.05016 13.307441,12.05016" style="fill: white" /><polygon type="contour" points="13.436537,12.625476 13.436533,12.70619 13.39904,12.706305 13.21615,12.706305 13.216215,12.69044 13.21578,12.605089 13.277586,12.605089 13.43654,12.60477" style="fill: white" /><polygon type="contour" points="13.896148,12.605089 13.896062,12.627973 13.896139,12.70619 13.563639,12.70619 13.563693,12.69044 13.563986,12.60477 13.637543,12.60477" style="fill: white" /><polygon type="contour" points="13.896414,13.627801 13.896243,13.896244 13.778281,13.896244 13.563781,13.896417 13.563957,13.845376 13.563957,13.563959 13.627798,13.563784 13.896414,13.563784" style="fill: white" /><polygon type="contour" points="13.896694,13.153387 13.896429,13.318526 13.896429,13.320032 13.896205,13.324817 13.896593,13.329819 13.896302,13.335652 13.896262,13.342316 13.896428,13.34972 13.896414,13.436555 13.845374,13.436633 13.563957,13.436633 13.56369,13.362752 13.563928,13.360202 13.563706,13.352175 13.563696,13.34442 13.56395,13.337497 13.563688,13.331537 13.563808,13.327232 13.563793,13.321445 13.563285,13.0899 13.704044,13.089885 13.717548,13.089787 13.89663,13.089787" style="fill: white" /><polygon type="contour" points="13.436446,13.091443 13.436737,13.092118 13.436523,13.31815 13.436584,13.325941 13.436563,13.334412 13.436481,13.342551 13.436521,13.350148 13.43665,13.357115 13.43654,13.362829 13.43649,13.366661 13.436593,13.369211 13.436611,13.380763 13.436542,13.384388 13.436581,13.387848 13.436628,13.39108 13.436582,13.395462 13.436615,13.396351 13.436576,13.397079 13.436576,13.436579 13.398836,13.436613 13.397422,13.436562 13.39532,13.436562 13.392645,13.436611 13.389599,13.436584 13.386219,13.436614 13.385518,13.436575 13.382713,13.436604 13.381648,13.436654 13.379066,13.436614 13.37541,13.436634 13.373647,13.436604 13.3719,13.436574 13.37042,13.436639 13.369743,13.43654 13.362826,13.436542 13.357113,13.436653 13.350147,13.436525 13.342547,13.436485 13.334409,13.436566 13.326125,13.436587 13.318148,13.436525 13.096667,13.43637 13.09239,13.436383 13.092028,13.366794 13.092028,13.217003 13.092728,13.216832 13.093364,13.217 13.100791,13.216858 13.111714,13.216868 13.114679,13.217159 13.150754,13.216958 13.157659,13.21669 13.215661,13.215663 13.216956,13.150755 13.216826,13.095254 13.216219,13.094645 13.21641,13.09445 13.217002,13.092031 13.218792,13.092025 13.366793,13.091552 13.436338,13.091433" style="fill: white" /><polygon type="contour" points="13.337495,13.563953 13.344417,13.5637 13.351757,13.563956 13.360199,13.56393 13.43663,13.563959 13.436552,13.627802 13.436552,13.896417 13.357935,13.896511 13.351756,13.896456 13.344188,13.896506 13.337494,13.896452 13.331533,13.896189 13.32723,13.896309 13.321443,13.896294 13.31683,13.896431 13.312613,13.896482 13.310586,13.896396 13.308386,13.896309 13.30428,13.896423 13.300165,13.896417 13.296408,13.89639 13.293612,13.896359 13.239885,13.896674 13.219214,13.896695 13.153383,13.896695 13.089785,13.896631 13.089865,13.624258 13.089899,13.564071 13.093064,13.565961 13.093054,13.564091 13.321443,13.563796 13.326211,13.56376 13.331533,13.563691" style="fill: white" /><polygon type="contour" points="12.706304,13.216151 12.706304,13.399042 12.706189,13.436535 12.690439,13.436535 12.604768,13.436542 12.604768,13.380484 12.605087,13.215781 12.628453,13.215671" style="fill: white" /><polygon type="contour" points="12.706189,13.896142 12.690438,13.896196 12.605087,13.89615 12.605087,13.81505 12.604768,13.563989 12.625473,13.563919 12.706189,13.56364" style="fill: white" /><polygon type="contour" points="12.083024,13.563954 12.151031,13.563954 12.151031,13.672126 12.151109,13.896347 12.094344,13.896209 12.050159,13.896075 12.050159,13.766424 12.050332,13.56386" style="fill: white" /><polygon type="contour" points="12.150869,13.214645 12.150869,13.3592 12.151031,13.436651 12.114829,13.436553 12.050332,13.436553 12.050332,13.350589 12.050159,13.214368 12.088679,13.214468 12.08892,13.214318" style="fill: white" /><polygon type="contour" points="11.563592,13.213114 11.568929,13.213235 11.586788,13.213138 11.595055,13.213138 11.59639,13.213197 11.59639,13.406948 11.596327,13.436374 11.519069,13.436405 11.495544,13.436405 11.495544,13.263072 11.49564,13.213063" style="fill: white" /><polygon type="contour" points="11.560566,13.563745 11.596327,13.563745 11.596327,13.778285 11.596457,13.896148 11.507387,13.896007 11.49564,13.895982 11.49564,13.633771 11.495544,13.563587" style="fill: white" /><polygon type="contour" points="11.356643,13.896103 11.130398,13.896371 11.07127,13.896639 11.01804,13.896737 11.016766,13.896764 10.749243,13.896357 9.340415,13.896357 9.332158,13.895959 8.772645,13.896462 8.742236,13.896764 8.730208,13.896335 8.576391,13.896734 8.423336,13.896825 8.36333,13.896454 8.17896,13.896738 8.114189,13.896588 8.06043,13.89664 7.77819,13.89617 7.775058,13.896104 7.775058,13.563603 7.96548,13.5639 8.019007,13.564188 8.099024,13.564071 8.113841,13.564248 8.160145,13.564047 8.300491,13.563878 8.494964,13.563899 8.517949,13.56386 10.290315,13.56386 10.447515,13.563733 10.638163,13.563785 10.672888,13.563759 10.739109,13.563958 10.931108,13.56408 11.017661,13.564193 11.058899,13.564111 11.112691,13.564188 11.35351,13.563668 11.356643,13.563602" style="fill: white" /><polygon type="contour" points="9.575051,13.208378 9.580577,13.208401 9.625593,13.208401 9.968976,13.209302 10.017439,13.209487 10.327601,13.209809 10.570496,13.210441 10.719522,13.211033 10.749796,13.211206 11.017859,13.212109 11.051622,13.212134 11.113482,13.212028 11.15291,13.212128 11.356643,13.212745 11.356643,13.436488 10.82482,13.436698 10.719897,13.43647 10.50022,13.436473 10.415759,13.436524 8.704965,13.436524 8.621426,13.436472 8.41114,13.43635 8.306229,13.436597 7.775058,13.436488 7.775058,13.212745 7.978788,13.212128 8.018217,13.212028 8.080077,13.212134 8.113841,13.212109 8.381903,13.211205 8.412177,13.211032 8.561203,13.210441 8.804099,13.209809 9.087733,13.209575 9.11426,13.209486 9.162723,13.209303 9.506633,13.208401 9.551651,13.208401 9.557195,13.208378 9.560436,13.208106 9.566199,13.208106" style="fill: white" /><polygon type="contour" points="5.286323,13.563959 5.567743,13.563959 5.567919,13.627802 5.567919,13.896417 5.503901,13.896417 5.235457,13.896244 5.235457,13.778282 5.235284,13.563784" style="fill: white" /><polygon type="contour" points="3.773649,13.627802 3.773578,13.896239 3.73537,13.896239 3.630722,13.896244 3.630847,13.627802 3.630769,13.563959 3.773571,13.563959" style="fill: white" /><polygon type="contour" points="4.164777,13.627801 4.164691,13.896244 4.095548,13.896244 3.969108,13.896239 3.969477,13.627802 3.969415,13.563806 4.006999,13.563784 4.164777,13.563784" style="fill: white" /><polygon type="contour" points="4.164837,13.092412 4.164835,13.092686 4.164779,13.327233 4.164704,13.335904 4.164753,13.344243 4.164823,13.351339 4.164858,13.358074 4.164816,13.363022 4.164777,13.436555 4.132019,13.436538 3.969415,13.436538 3.969418,13.364493 3.969566,13.359254 3.969573,13.352759 3.969412,13.345406 3.969544,13.337315 3.969437,13.329261 3.96948,13.327233 3.969159,13.164797 3.969027,13.157574 3.969535,13.092443 3.969501,13.092283 4.164835,13.092283" style="fill: white" /><polygon type="contour" points="3.630359,13.09238 3.773139,13.09238 3.773233,13.093717 3.773287,13.096647 3.773577,13.336181 3.77346,13.356757 3.77357,13.357172 3.77357,13.357336 3.773504,13.362812 3.773627,13.364156 3.773625,13.370046 3.773534,13.436588 3.647284,13.436588 3.630768,13.436579 3.626749,13.436608 3.621472,13.436192 3.530809,13.436192 3.526412,13.436483 3.440488,13.436514 3.440317,13.363794 3.440317,13.103484 3.528726,13.103321 3.53571,13.103291 3.567193,13.103322 3.629407,13.103806 3.630343,13.092331 3.630344,13.09233" style="fill: white" /><polygon type="contour" points="3.773681,12.627973 3.773565,12.70619 3.75309,12.70629 3.630866,12.70629 3.630756,12.69044 3.630864,12.605089 3.773663,12.605089" style="fill: white" /><polygon type="contour" points="4.164784,12.627973 4.16457,12.70619 3.96927,12.70619 3.969313,12.690441 3.969548,12.605089 4.164849,12.605089" style="fill: white" /><polygon type="contour" points="4.164987,12.085707 4.165043,12.15111 4.052554,12.151026 3.969157,12.151026 3.96931,12.104418 3.969553,12.05016 4.164851,12.05016" style="fill: white" /><polygon type="contour" points="3.77369,12.085706 3.773467,12.151026 3.712704,12.151323 3.630644,12.151289 3.630827,12.087046 3.63099,12.05016 3.773789,12.05016" style="fill: white" /><polygon type="contour" points="3.743661,11.495642 3.773849,11.495642 3.773439,11.563593 3.773313,11.596564 3.668669,11.596564 3.631075,11.596391 3.631024,11.567131 3.63111,11.563593 3.63074,11.495262" style="fill: white" /><polygon type="contour" points="4.165107,11.563593 4.165153,11.596458 4.113529,11.596564 3.969195,11.596564 3.96892,11.512368 3.969026,11.495642 4.164877,11.495642" style="fill: white" /><polygon type="contour" points="5.918636,11.495641 5.918586,11.563592 5.918465,11.569011 5.918563,11.586789 5.918563,11.595056 5.918503,11.596391 5.724754,11.596391 5.695329,11.596328 5.695298,11.519071 5.695298,11.495546 5.868628,11.495546" style="fill: white" /><polygon type="contour" points="5.567958,11.560568 5.567958,11.596328 5.353417,11.596328 5.235554,11.596458 5.235697,11.507389 5.23572,11.495642 5.49793,11.495642 5.568115,11.495546" style="fill: white" /><polygon type="contour" points="5.567843,12.050334 5.56775,12.083027 5.56775,12.151034 5.459577,12.151034 5.235355,12.15111 5.235492,12.094345 5.235626,12.05016 5.365278,12.05016" style="fill: white" /><polygon type="contour" points="5.917232,12.088682 5.917382,12.088922 5.917055,12.15087 5.772501,12.15087 5.695051,12.151034 5.69515,12.114832 5.69515,12.050334 5.781114,12.050334 5.917334,12.05016" style="fill: white" /><polygon type="contour" points="5.91592,12.605088 5.916031,12.628455 5.915551,12.706305 5.732661,12.706305 5.695167,12.70619 5.695166,12.690441 5.695161,12.60477 5.751219,12.60477" style="fill: white" /><polygon type="contour" points="5.567785,12.625476 5.568059,12.70619 5.23556,12.70619 5.235505,12.69044 5.235552,12.605089 5.316651,12.605089 5.567712,12.60477" style="fill: white" /><polygon type="contour" points="5.427654,13.089885 5.568414,13.0899 5.567907,13.321445 5.567943,13.326214 5.568012,13.331536 5.567932,13.337314 5.567873,13.344191 5.567745,13.351758 5.567771,13.360202 5.567742,13.436633 5.286323,13.436633 5.235284,13.436555 5.23556,13.357747 5.235271,13.349721 5.235436,13.342315 5.235397,13.335652 5.235105,13.329818 5.235306,13.325192 5.23527,13.320033 5.23527,13.315515 5.235356,13.311412 5.235155,13.307202 5.235313,13.302994 5.23509,13.299053 5.235331,13.295394 5.235005,13.219216 5.235007,13.153387 5.23507,13.089787 5.414151,13.089787" style="fill: white" /><polygon type="contour" points="5.764906,13.091552 5.914698,13.092031 5.914869,13.092731 5.914705,13.093351 5.914845,13.100793 5.914836,13.111716 5.91432,13.113888 5.914744,13.150755 5.914744,13.154857 5.915037,13.157493 5.915908,13.215008 5.980946,13.216958 6.019984,13.216868 6.032548,13.216856 6.035996,13.216185 6.039672,13.217002 6.039672,13.366793 6.039308,13.436383 6.03503,13.43637 5.813553,13.436525 5.805761,13.436587 5.79729,13.436566 5.789151,13.436484 5.781554,13.436524 5.774588,13.436653 5.768872,13.436541 5.765042,13.436492 5.762728,13.436587 5.762217,13.436569 5.752637,13.436564 5.750051,13.436654 5.748986,13.436603 5.746181,13.436575 5.74548,13.436614 5.742102,13.436584 5.739287,13.436621 5.736602,13.436571 5.734525,13.436626 5.733193,13.436614 5.695124,13.436579 5.695123,13.397079 5.695085,13.396352 5.695117,13.395462 5.695072,13.39108 5.695118,13.387848 5.695157,13.384388 5.695089,13.380763 5.695106,13.369458 5.695162,13.36699 5.695178,13.363022 5.69505,13.357115 5.695178,13.350148 5.695218,13.342551 5.695137,13.334413 5.695136,13.327232 5.695177,13.318526 5.694963,13.092227 5.695255,13.091473 5.695361,13.091433" style="fill: white" /><polygon type="contour" points="5.804468,13.56381 5.810258,13.563796 6.038642,13.564091 6.038633,13.565937 6.041761,13.564095 6.041802,13.564071 6.041802,13.896716 6.041597,13.896472 5.813176,13.896431 5.810258,13.896294 5.804469,13.896308 5.800166,13.896188 5.794206,13.896452 5.787511,13.896506 5.779527,13.896208 5.695148,13.896417 5.69507,13.845376 5.69507,13.563959 5.7647,13.563896 5.771501,13.563929 5.779527,13.563709 5.787511,13.563828 5.794206,13.563953 5.800166,13.563691" style="fill: white" /><polygon type="contour" points="6.526614,13.277587 6.526931,13.436542 6.506223,13.436541 6.425512,13.436535 6.425397,13.399042 6.425397,13.216151 6.44126,13.216216 6.526614,13.215781" style="fill: white" /><polygon type="contour" points="6.441261,13.563694 6.526931,13.563989 6.526931,13.637546 6.526614,13.89615 6.503729,13.896064 6.425512,13.896142 6.425512,13.56364" style="fill: white" /><polygon type="contour" points="7.081367,13.683603 7.081541,13.896075 7.045992,13.89616 6.980592,13.896347 6.980669,13.672125 6.980669,13.563954 7.01687,13.56386 7.081367,13.56386" style="fill: white" /><polygon type="contour" points="7.081541,13.214368 7.081541,13.307443 7.081367,13.436553 7.048674,13.436651 6.980669,13.436651 6.980669,13.358084 6.980831,13.214645 7.044656,13.214476 7.045128,13.214353" style="fill: white" /><polygon type="contour" points="7.63606,13.391364 7.636157,13.436405 7.571133,13.436374 7.535374,13.436374 7.535374,13.28913 7.53531,13.213198 7.564776,13.21319 7.568107,13.213114 7.63606,13.213063" style="fill: white" /><polygon type="contour" points="7.636157,13.81849 7.63606,13.895983 7.568108,13.896087 7.535243,13.896148 7.535374,13.778285 7.535374,13.563745 7.612632,13.563588 7.636157,13.563588" style="fill: white" /><polygon type="contour" points="8.605209,14.966597 9.013682,14.96698 10.061113,14.96698 10.486628,14.966596 10.718562,14.966477 10.823509,14.966633 11.356643,14.966759 11.356643,15.162758 11.350415,15.162542 10.834961,15.162552 10.733384,15.161907 10.423478,15.162486 10.389459,15.162531 9.994632,15.1625 8.849111,15.1625 8.738299,15.162399 8.41744,15.161841 8.312387,15.1625 7.775058,15.162758 7.775058,14.966759 8.307533,14.966563 8.41247,14.966394" style="fill: white" /><polygon type="contour" points="7.624313,14.966824 7.63606,14.966825 7.63606,15.162675 7.568107,15.162367 7.535137,15.162507 7.535137,15.018172 7.535243,14.966549" style="fill: white" /><polygon type="contour" points="7.636441,15.471281 7.636441,15.500963 7.568108,15.500593 7.564975,15.500725 7.53531,15.500628 7.53531,15.379979 7.535137,15.35839 7.619332,15.357908 7.63606,15.357852" style="fill: white" /><polygon type="contour" points="7.081541,15.500713 7.045745,15.500812 6.980412,15.501058 6.980379,15.418997 6.980677,15.358235 7.027282,15.358103 7.081541,15.357911" style="fill: white" /><polygon type="contour" points="7.037357,14.966859 7.081541,14.96685 7.081541,15.16215 7.045992,15.162263 6.980677,15.162547 6.980677,15.079146 6.980592,14.966658" style="fill: white" /><polygon type="contour" points="6.526614,15.162155 6.503728,15.162218 6.425512,15.16243 6.425512,14.967129 6.44126,14.967086 6.526614,14.966855" style="fill: white" /><polygon type="contour" points="6.526614,15.500838 6.50357,15.500662 6.425411,15.500836 6.425512,15.480362 6.425512,15.358135 6.441261,15.358144 6.526614,15.358036" style="fill: white" /><polygon type="contour" points="6.039319,15.357894 6.039324,15.363626 6.039332,15.363749 6.039135,15.501046 6.039141,15.501063 6.028102,15.503187 6.028244,15.547042 6.02838,15.564508 6.028411,15.595991 6.028379,15.602976 6.028346,15.604898 6.028215,15.691386 5.767905,15.691386 5.695188,15.691215 5.695508,15.600893 5.695096,15.504951 5.695124,15.500931 5.695124,15.3691 5.695113,15.358089 5.764712,15.358186 5.768679,15.358178 5.774366,15.358133 5.780113,15.358138 5.781511,15.358101 5.78746,15.358023 5.789151,15.357985 5.79729,15.358066 5.804468,15.358066 6.035031,15.357873 6.038392,15.357873" style="fill: white" /><polygon type="contour" points="5.806324,14.966878 5.813175,14.966906 6.039134,14.966866 6.039419,14.966865 6.039419,15.1622 6.026409,15.162832 5.977905,15.16252 5.813175,15.162203 5.806324,15.162176 5.798354,15.162281 5.790216,15.162258 5.782587,15.162187 5.775528,15.162215 5.769614,15.162193 5.695165,15.162286 5.695165,14.999683 5.695148,14.966926 5.775529,14.966916 5.782586,14.966888 5.790217,14.96696 5.798353,14.966798" style="fill: white" /><polygon type="contour" points="5.567897,14.999684 5.567897,15.162286 5.503901,15.162225 5.235462,15.162594 5.235462,15.110341 5.235457,14.967012 5.353417,14.967012 5.567919,14.966926" style="fill: white" /><polygon type="contour" points="5.567743,15.358132 5.567743,15.500932 5.503901,15.500854 5.235457,15.50098 5.235462,15.396331 5.235462,15.358124 5.5039,15.358054" style="fill: white" /><polygon type="contour" points="4.164921,15.396331 4.164691,15.500981 4.021362,15.500924 3.969005,15.501068 3.969005,15.358268 4.021361,15.358125 4.164921,15.358125" style="fill: white" /><polygon type="contour" points="4.164691,14.967012 4.164691,15.036153 4.164921,15.162594 4.118754,15.162697 3.969005,15.162697 3.969108,15.11034 3.969108,14.96678 4.021362,14.96678" style="fill: white" /><polygon type="contour" points="3.773434,15.012945 3.773434,15.162697 3.630634,15.162697 3.630524,15.028973 3.630722,14.967012 3.735371,14.96678 3.773578,14.96678" style="fill: white" /><polygon type="contour" points="3.530809,15.358358 3.621473,15.358358 3.624533,15.358227 3.63067,15.358232 3.773471,15.358232 3.773471,15.501031 3.773476,15.507168 3.773345,15.600893 3.773718,15.60529 3.773815,15.691087 3.721288,15.691208 3.71963,15.691493 3.440499,15.691202 3.440499,15.626909 3.440676,15.548176 3.440488,15.358012" style="fill: white" />
</svg>
