<svg width="19.131698" height="19.131699">
<polygon type="contour" points="12.152156,6.608072 12.1849,6.6108 12.194465,6.613115 12.228301,6.621301 12.238945,6.62562 12.276601,6.640901 12.288479,6.647689 12.330501,6.671703 12.342995,6.68173 12.387198,6.717202 12.398768,6.729697 12.439699,6.773902 12.448493,6.78686 12.479599,6.832701 12.485154,6.844734 12.504802,6.887301 12.507887,6.897792 12.518799,6.934902 12.520034,6.944003 12.524402,6.976201 12.524402,12.145678 12.521672,12.179514 12.520437,12.188616 12.511706,12.222452 12.508622,12.23294 12.493337,12.270598 12.48763,12.282475 12.463073,12.324497 12.455206,12.336683 12.419732,12.38089 12.407701,12.394001 12.361312,12.436568 12.348816,12.446596 12.302428,12.476612 12.290705,12.483554 12.25196,12.501562 12.240698,12.506037 12.203587,12.516949 12.194484,12.519264 12.162288,12.523631 12.152723,12.524403 6.9888,12.524403 6.979545,12.523632 6.946799,12.520903 6.937234,12.518588 6.903399,12.510402 6.892754,12.506083 6.855099,12.490803 6.843221,12.484014 6.8012,12.460001 6.788704,12.449973 6.744498,12.414501 6.732928,12.402006 6.692,12.357801 6.683207,12.344843 6.652099,12.299001 6.646546,12.286969 6.626899,12.244402 6.623814,12.233912 6.612899,12.1968 6.611664,12.187699 6.607299,12.155502 6.607299,6.986025 6.610029,6.952189 6.611263,6.943088 6.619993,6.909252 6.623079,6.898762 6.638358,6.860561 6.64345,6.849608 6.668009,6.808132 6.676493,6.79502 6.711967,6.750813 6.723998,6.737702 6.770385,6.695134 6.782879,6.685109 6.829271,6.655091 6.841456,6.647996 6.880203,6.629985 6.890538,6.625821 6.92765,6.614905 6.937523,6.612438 6.969719,6.608072 6.978975,6.607301 12.1429,6.607301" style="fill: white" />
</svg>
