<svg width="19.131698" height="19.131699">
<polygon type="contour" points="11.608534,7.666343 11.597953,7.823705 11.592312,7.823789 11.512661,7.82475 11.512661,8.608045 11.596734,8.608244 11.596916,8.787966 11.597039,8.902089 11.512661,8.901721 11.512661,10.229982 11.597039,10.229615 11.596894,10.371064 11.596734,10.523459 11.512661,10.523759 11.512661,11.306953 11.592312,11.307914 11.592473,11.307954 11.597949,11.307996 11.597935,11.32528 11.608692,11.608694 11.461013,11.607535 11.325248,11.597229 11.307697,11.597184 11.306782,11.512663 10.839766,11.512663 10.523658,11.512664 10.523456,11.596736 10.371061,11.596896 10.244906,11.597451 10.229895,11.597401 10.230223,11.512663 8.902352,11.512663 8.901804,11.597401 8.760638,11.596896 8.608244,11.596736 8.607942,11.512663 7.824082,11.512663 7.824001,11.597183 7.806451,11.597228 7.523008,11.608694 7.523166,11.46536 7.533745,11.307998 7.539385,11.307914 7.619039,11.306953 7.619039,10.523658 7.534967,10.523459 7.534783,10.343736 7.534661,10.229615 7.619039,10.229982 7.619039,8.902193 7.534661,8.902089 7.534806,8.760639 7.534967,8.608244 7.619039,8.607943 7.619039,7.82475 7.539385,7.823789 7.539224,7.82375 7.533749,7.823708 7.533763,7.806424 7.523008,7.52301 7.670687,7.524168 7.806451,7.534475 7.824001,7.53452 7.824917,7.61904 8.608042,7.61904 8.608244,7.534968 8.760639,7.534808 8.886793,7.534253 8.901805,7.534303 8.901476,7.61904 10.229347,7.61904 10.229895,7.534302 10.371061,7.534807 10.523456,7.534968 10.523756,7.61904 11.307617,7.61904 11.307698,7.53452 11.325248,7.534475 11.608691,7.52301" style="fill: white" />
</svg>
