<svg width="19.131698" height="19.131699">
<polygon type="contour" points="11.846448,11.585182 11.935511,11.58543 11.97376,11.58543 11.973667,11.846831 12.060322,11.847192 12.102509,11.847192 12.144826,11.847232 12.145099,11.890701 12.1487,12.014672 12.152364,12.152366 11.915715,12.145437 11.847336,12.144898 11.847179,12.092944 11.847189,12.060323 11.847189,12.058267 11.847193,11.973114 11.643248,11.973783 11.585429,11.973762 11.585156,11.842137 11.585429,11.657516 11.585429,11.58543 11.836337,11.585153" style="fill: white" /><polygon type="contour" points="10.632009,11.585047 10.708466,11.585047 10.846762,11.58543 10.906028,11.58543 10.906522,11.836338 10.906472,11.846448 10.906028,11.935512 10.906028,11.973762 10.856851,11.973728 10.666044,11.973398 10.665826,12.130929 10.665826,12.145027 10.564605,12.150522 10.503398,12.146552 10.381577,12.146215 10.380797,12.120989 10.381295,12.059684 10.37147,12.059345 10.371534,12.047537 10.371438,12.035693 10.371438,11.972992 10.182066,11.973363 10.037686,11.973757 10.037662,11.842207 10.037665,11.825316 10.037686,11.65891 10.037686,11.585606 10.292175,11.585025 10.32786,11.584952" style="fill: white" /><polygon type="contour" points="10.631258,10.03771 10.708372,10.03771 10.845513,10.037902 10.905994,10.037902 10.90624,10.292248 10.906252,10.321336 10.906207,10.321336 10.906485,10.632009 10.906485,10.708254 10.906028,10.846763 10.906028,10.90603 10.731114,10.906488 10.665819,10.906488 10.400743,10.906255 10.321334,10.906255 10.122883,10.90603 10.037686,10.905997 10.037626,10.731588 10.037626,10.665879 10.03718,10.40144 10.03718,10.321452 10.037686,10.124669 10.037686,10.037902 10.292175,10.037253 10.371083,10.037253" style="fill: white" /><polygon type="contour" points="10.906485,10.708467 10.906485,10.708254 10.906625,10.665822" style="fill: white" /><polygon type="contour" points="11.846447,10.03771 11.93486,10.037902 11.973756,10.037902 11.973184,10.292247 11.973233,10.371419 12.070214,10.371471 12.146659,10.371003 12.14655,10.5034 12.145025,10.665827 11.973396,10.666059 11.973727,10.856853 11.973761,10.90603 11.842136,10.906517 11.657515,10.90603 11.585429,10.90603 11.585046,10.731115 11.585046,10.665821 11.584965,10.400744 11.584965,10.321336 11.585428,10.122886 11.585605,10.037902 11.836291,10.037687" style="fill: white" /><polygon type="contour" points="12.1487,7.11703 12.145098,7.241002 12.145207,7.278768 12.145127,7.284774 12.121376,7.284774 11.973114,7.285225 11.973782,7.488454 11.973761,7.546273 11.842136,7.546547 11.82528,7.546522 11.825279,7.546522 11.657515,7.546273 11.585429,7.546273 11.585152,7.295364 11.585181,7.285253 11.585429,7.196192 11.585429,7.157942 11.643247,7.157921 11.847191,7.158588 11.847189,7.073436 11.847189,7.071381 11.847179,7.038759 11.847336,7.012754 11.847336,6.986805 11.915714,6.986264 12.152364,6.979338" style="fill: white" /><polygon type="contour" points="11.846447,8.225231 11.846448,8.225231 11.93551,8.225673 11.973761,8.225673 11.973727,8.27485 11.973396,8.465657 12.130927,8.465876 12.145025,8.465876 12.150521,8.567096 12.14655,8.6283 12.146659,8.7607 12.080916,8.760343 12.070215,8.760233 12.047534,8.760169 12.035691,8.760265 11.972991,8.760265 11.973363,8.949636 11.973756,9.094016 11.842206,9.094036 11.658909,9.094016 11.585605,9.094016 11.585024,8.839525 11.584951,8.80384 11.585046,8.499693 11.585046,8.423236 11.585045,8.423236 11.585046,8.423235 11.585429,8.28494 11.585429,8.225673 11.836337,8.22518" style="fill: white" /><polygon type="contour" points="10.846762,8.225673 10.906028,8.225673 10.906485,8.400588 10.906485,8.465881 10.906252,8.730957 10.906252,8.810365 10.906028,9.008817 10.905994,9.094016 10.731587,9.094077 10.665877,9.094077 10.401438,9.094524 10.32145,9.094524 10.124666,9.094016 10.037686,9.094016 10.03718,8.839525 10.03718,8.760616 10.037626,8.500444 10.037626,8.423249 10.037625,8.423249 10.037686,8.285975 10.037686,8.225708 10.292175,8.225461 10.321335,8.225448 10.321335,8.225492 10.632008,8.225215 10.708467,8.225215" style="fill: white" /><polygon type="contour" points="10.607724,6.986507 10.665826,6.986677 10.666058,7.158304 10.856851,7.157974 10.906028,7.157941 10.906516,7.289566 10.906028,7.474185 10.906028,7.546273 10.731114,7.546657 10.665819,7.546657 10.400743,7.546738 10.321335,7.546738 10.122883,7.546273 10.037686,7.546097 10.037662,7.295411 10.037665,7.285255 10.037686,7.196843 10.037686,7.157947 10.292175,7.158519 10.371411,7.158469 10.37147,7.072359 10.381295,7.072019 10.380797,7.010713 10.381576,6.985488" style="fill: white" /><polygon type="contour" points="7.215982,6.986263 7.284363,6.986805 7.284363,7.012754 7.284599,7.028789 7.28451,7.029193 7.284512,7.07138 7.284512,7.073436 7.284509,7.158588 7.488453,7.157921 7.546271,7.157942 7.546545,7.289566 7.54652,7.306422 7.54652,7.306423 7.546271,7.474186 7.546271,7.546273 7.295362,7.54655 7.285252,7.546522 7.285251,7.546522 7.196189,7.546273 7.157939,7.546273 7.158032,7.284872 7.071377,7.284512 7.029191,7.284512 6.986874,7.284473 6.986601,7.241001 6.982678,7.117031 6.979336,6.979338" style="fill: white" /><polygon type="contour" points="8.6283,6.985152 8.750123,6.985488 8.750903,7.010713 8.750403,7.072019 8.760231,7.07236 8.760167,7.084167 8.760263,7.096011 8.760263,7.158711 8.949635,7.158339 9.093801,7.157947 9.09401,7.289496 9.093801,7.472793 9.093801,7.546097 8.839452,7.546676 8.803945,7.546751 8.49969,7.546657 8.423232,7.546657 8.284938,7.546273 8.225672,7.546273 8.225178,7.295364 8.225672,7.196191 8.225672,7.157942 8.274848,7.157974 8.465655,7.158304 8.465874,7.000773 8.465874,6.986677 8.567095,6.981181" style="fill: white" /><polygon type="contour" points="8.730955,8.225448 8.810364,8.225448 9.008816,8.225673 9.093801,8.225708 9.093993,8.400114 9.093993,8.465824 9.094449,8.730262 9.094449,8.81025 9.093801,9.007035 9.093801,9.094016 8.839452,9.094524 8.760615,9.094524 8.500441,9.094077 8.423246,9.094077 8.285973,9.094016 8.225706,9.094016 8.225458,8.839525 8.225447,8.810366 8.225491,8.810366 8.225214,8.499694 8.225214,8.423235 8.225672,8.28494 8.225672,8.225673 8.400585,8.225215 8.465879,8.225215" style="fill: white" /><polygon type="contour" points="7.474183,8.225673 7.546271,8.225673 7.546655,8.400587 7.546655,8.465881 7.546735,8.730957 7.546735,8.810366 7.54627,9.008818 7.546095,9.094016 7.295408,9.094037 7.285252,9.094035 7.196839,9.094016 7.157945,9.094016 7.158516,8.839525 7.158466,8.760286 7.061485,8.760232 6.985038,8.760699 6.98515,8.6283 6.986675,8.465876 7.158303,8.465643 7.157972,8.274851 7.157939,8.225673 7.289564,8.225186" style="fill: white" /><polygon type="contour" points="7.472792,10.037902 7.546095,10.037902 7.546675,10.292248 7.546748,10.327777 7.546655,10.632009 7.546655,10.708467 7.546271,10.846763 7.546271,10.90603 7.295362,10.906523 7.196188,10.90603 7.157939,10.90603 7.157972,10.856853 7.158303,10.666045 7.000772,10.665827 6.986675,10.665827 6.981178,10.564606 6.98515,10.5034 6.985039,10.371003 7.050782,10.37136 7.061484,10.37147 7.084165,10.371535 7.096008,10.371439 7.158708,10.371441 7.158337,10.182069 7.157945,10.037902 7.289494,10.03769" style="fill: white" /><polygon type="contour" points="9.007034,10.037902 9.093801,10.037902 9.094449,10.292247 9.094449,10.371084 9.093993,10.63126 9.093993,10.708373 9.093801,10.845516 9.093801,10.905997 8.839451,10.906243 8.810364,10.906255 8.810364,10.90621 8.499691,10.906488 8.423233,10.906488 8.284939,10.90603 8.225672,10.90603 8.225214,10.731115 8.225214,10.665822 8.225447,10.400744 8.225447,10.321335 8.225671,10.122886 8.225706,10.037902 8.400111,10.03771 8.465821,10.03771 8.730259,10.037253 8.810248,10.037253" style="fill: white" /><polygon type="contour" points="9.008817,11.58543 9.0938,11.585606 9.094012,11.836292 9.093991,11.846448 9.093801,11.934862 9.093801,11.973757 8.839452,11.973185 8.760289,11.973234 8.760231,12.059343 8.750403,12.059683 8.750902,12.120989 8.750122,12.146215 8.523975,12.145196 8.465874,12.145027 8.465641,11.973398 8.274848,11.973728 8.225672,11.973762 8.225184,11.842137 8.225229,11.82528 8.225672,11.657516 8.225672,11.58543 8.400584,11.585047 8.465879,11.585047 8.730955,11.584966 8.810363,11.584966" style="fill: white" /><polygon type="contour" points="7.474184,11.58543 7.546271,11.58543 7.546548,11.836338 7.546271,11.935511 7.546271,11.973762 7.488452,11.973783 7.284509,11.973114 7.284512,12.058268 7.284512,12.060323 7.284521,12.092944 7.284363,12.118951 7.284363,12.144898 7.215983,12.145437 6.979336,12.152366 6.982677,12.014672 6.986601,11.890701 6.986874,11.847232 7.084499,11.847232 7.158027,11.84693 7.157919,11.643248 7.157939,11.58543 7.289564,11.585157" style="fill: white" />
</svg>
