<svg width="19.131698" height="19.131699">
<polygon type="contour" points="10.248747,10.048304 10.248821,10.114386 10.368785,10.114386 10.415418,10.114284 10.415438,10.162022 10.417417,10.267699 10.420304,10.420306 10.320747,10.419394 10.194185,10.416311 10.176689,10.415536 10.159335,10.415536 10.115939,10.415531 10.115761,10.377188 10.114669,10.32877 10.113986,10.24882 10.041903,10.248743 10.04193,10.189573 10.04193,10.081099 10.041903,10.050288 10.041903,10.041905 10.081097,10.041932 10.18957,10.041932 10.236266,10.041905 10.248742,10.041905" style="fill: white" /><polygon type="contour" points="9.783861,10.0811 9.783861,10.189572 9.783867,10.236268 9.783867,10.248743 9.777557,10.248748 9.711101,10.248779 9.711101,10.415379 9.705861,10.415535 9.5655,10.417573 9.483183,10.417038 9.425814,10.415535 9.4206,10.41538 9.4206,10.24878 9.347833,10.248743 9.347839,10.189573 9.347839,10.081099 9.347833,10.050288 9.347833,10.041905 9.388226,10.0421 9.743474,10.0421 9.77555,10.041905 9.783867,10.041905" style="fill: white" /><polygon type="contour" points="8.810952,8.71231 8.937514,8.715393 8.955011,8.716168 8.972365,8.716168 9.015762,8.716173 9.015939,8.754515 9.017032,8.802935 9.017714,8.882883 9.089798,8.882961 9.08977,8.942131 9.08977,9.050603 9.089798,9.081416 9.089798,9.089799 9.050603,9.089772 8.942129,9.089772 8.895433,9.089799 8.882958,9.089799 8.882952,9.083399 8.882878,9.017319 8.762915,9.017319 8.716281,9.017421 8.71626,8.969682 8.714282,8.864004 8.711396,8.711398" style="fill: white" /><polygon type="contour" points="9.648516,8.714663 9.705886,8.716168 9.711101,8.716323 9.711101,8.882923 9.783867,8.882961 9.783861,8.942131 9.783861,9.050604 9.783867,9.081415 9.783867,9.089799 9.743473,9.089604 9.388225,9.089604 9.356149,9.089799 9.347833,9.089799 9.347839,9.050603 9.347839,8.942132 9.347833,8.895436 9.347833,8.882961 9.354142,8.882956 9.4206,8.882924 9.4206,8.716323 9.425839,8.716168 9.565823,8.714131" style="fill: white" /><polygon type="contour" points="10.417417,8.864004 10.415438,8.969681 10.415418,9.01742 10.391989,9.017511 10.368784,9.017319 10.248819,9.017319 10.248742,9.089799 10.18957,9.089772 10.081097,9.089772 10.050286,9.089799 10.041903,9.089799 10.04193,9.050604 10.04193,8.942132 10.041903,8.895436 10.041903,8.882961 10.048301,8.882955 10.113986,8.882882 10.114669,8.802935 10.115762,8.754515 10.115939,8.752042 10.115939,8.716173 10.159335,8.716168 10.176689,8.716168 10.194185,8.715393 10.320747,8.71231 10.420304,8.711398" style="fill: white" /><polygon type="contour" points="10.248746,9.354144 10.248779,9.420602 10.415504,9.420602 10.415527,9.425955 10.41748,9.566202 10.417023,9.641278 10.415504,9.711102 10.248779,9.711102 10.248742,9.783869 10.189571,9.783863 10.081097,9.783863 10.050286,9.783869 10.041903,9.783869 10.042098,9.743475 10.042098,9.388227 10.041903,9.35615 10.041903,9.347835 10.081098,9.347841 10.18957,9.347841 10.236266,9.347835 10.248742,9.347835" style="fill: white" /><polygon type="contour" points="9.775551,9.347835 9.783867,9.347835 9.784003,9.388227 9.784003,9.743475 9.783867,9.775553 9.783867,9.783869 9.743473,9.784005 9.388226,9.784005 9.356148,9.783869 9.347833,9.783869 9.347697,9.743475 9.347697,9.388227 9.347833,9.35615 9.347833,9.347835 9.388226,9.347699 9.743473,9.347699" style="fill: white" /><polygon type="contour" points="9.089603,9.388228 9.089603,9.743476 9.089798,9.775552 9.089798,9.783869 9.050602,9.783863 8.942129,9.783863 8.895433,9.783869 8.882958,9.783869 8.882954,9.777559 8.88292,9.711102 8.716196,9.711102 8.716173,9.705774 8.71422,9.566201 8.714677,9.490763 8.716196,9.420602 8.88292,9.420602 8.882958,9.347835 8.942128,9.347841 9.050603,9.347841 9.081414,9.347835 9.089798,9.347835" style="fill: white" /><polygon type="contour" points="9.08977,10.0811 9.08977,10.189572 9.089798,10.236268 9.089798,10.248742 9.083399,10.248748 9.017714,10.248821 9.017032,10.32877 9.015939,10.377188 9.015762,10.379661 9.015762,10.415531 8.972365,10.415536 8.955011,10.415536 8.937514,10.41631 8.810952,10.419394 8.711396,10.420306 8.714282,10.267699 8.71626,10.162023 8.716281,10.114284 8.739711,10.114193 8.762915,10.114386 8.88288,10.114386 8.882958,10.041905 8.942129,10.041932 9.050603,10.041932 9.081414,10.041905 9.089798,10.041905" style="fill: white" />
</svg>
