<svg width="19.131698" height="19.131699">
<polygon type="contour" points="10.646998,8.3489 10.647,8.3489 10.680288,8.354046 10.689369,8.357456 10.701206,8.365218 10.730689,8.386778 10.757039,8.412506 10.75865,8.414482 10.759425,8.415918 10.78109,8.461958 10.781272,8.463319 10.781499,8.465501 10.783501,8.484699 10.783502,8.485318 10.782802,10.647 10.7828,10.647004 10.778812,10.670428 10.76841,10.699371 10.766964,10.702577 10.764465,10.706366 10.732246,10.745614 10.72751,10.749764 10.70895,10.760301 10.677837,10.777496 10.673039,10.77981 10.669072,10.779987 10.664849,10.78062 10.647014,10.783501 10.646998,10.783502 10.64638,10.783503 8.484697,10.782804 8.484683,10.782802 8.470232,10.782336 8.467155,10.781552 8.462361,10.780794 8.450913,10.775199 8.41274,10.756764 8.383688,10.726872 8.371325,10.713839 8.370407,10.71261 8.368639,10.709372 8.3534,10.675501 8.348198,10.647008 8.348197,10.647 8.348197,10.646382 8.349296,8.484699 8.349583,8.482959 8.35289,8.460902 8.364637,8.433317 8.369494,8.423176 8.374018,8.41519 8.401376,8.38465 8.403386,8.382697 8.43181,8.364452 8.442278,8.358702 8.464337,8.350385 8.4685,8.3498 8.484697,8.348199 8.485315,8.348199" style="fill: white" />
</svg>
