<svg width="19.131698" height="19.131699">
<polygon type="contour" points="11.190416,11.74734 11.190253,11.887718 11.190195,11.910031 11.190254,11.927322 11.190412,12.155067 10.896467,12.155067 10.896552,12.111059 10.896151,11.927321 10.896196,11.910032 10.89612,11.887718 10.896318,11.746385 10.896266,11.720171 11.190416,11.720171" style="fill: white" /><polygon type="contour" points="11.190031,12.702211 11.190031,12.777942 11.190192,12.84713 11.190313,12.942267 10.916583,12.939208 10.896623,12.939505 10.897489,12.834188 10.89933,12.747696 10.89978,12.65197 11.148827,12.651371 11.190279,12.651371" style="fill: white" /><polygon type="contour" points="12.154922,12.649388 12.154922,12.666051 12.155066,12.765403 11.927321,12.76479 11.910031,12.764787 11.887717,12.764782 11.746385,12.765319 11.72017,12.765279 11.72006,12.748916 11.716915,12.649388 11.746276,12.649388 11.887818,12.649269 11.937775,12.649269" style="fill: white" /><polygon type="contour" points="12.940093,12.665596 12.951949,12.95195 12.893021,12.949693 12.65167,12.942471 12.65167,12.868355 12.651969,12.693721 12.651919,12.65192 12.800183,12.650437 12.939476,12.649217" style="fill: white" /><polygon type="contour" points="12.939574,10.896871 12.939268,10.917619 12.942265,11.190314 12.748019,11.190343 12.667319,11.190322 12.651369,11.19028 12.651969,10.941235 12.65197,10.899782 12.747696,10.899332 12.831465,10.897685 12.909299,10.896709" style="fill: white" /><polygon type="contour" points="12.66492,11.720171 12.765277,11.720171 12.765317,11.746385 12.764779,11.887718 12.764783,11.910031 12.764787,11.927321 12.765521,12.111059 12.765402,12.155067 12.66605,12.154923 12.649387,12.154923 12.649387,12.11713 12.649268,11.937777 12.649279,11.887718 12.649435,11.720061" style="fill: white" /><polygon type="contour" points="12.154458,11.748804 12.154984,11.887718 12.155122,11.927322 12.155066,12.155067 12.107167,12.155067 11.927321,12.155123 11.887717,12.154985 11.72006,12.154461 11.720116,11.938688 11.720116,11.887718 11.72017,11.720171 11.747337,11.720171 11.887718,11.720117 11.938686,11.720117 12.154458,11.720061" style="fill: white" /><polygon type="contour" points="11.910031,10.896198 11.92732,10.896153 12.111058,10.896554 12.155067,10.89647 12.155067,11.138242 12.155066,11.190414 12.109457,11.190469 11.927321,11.190255 11.91003,11.190197 11.887718,11.190255 11.72017,11.190418 11.72017,10.896268 11.746385,10.89632 11.887717,10.896122" style="fill: white" /><polygon type="contour" points="11.190192,10.899377 11.190192,11.190194 10.899375,11.190194 10.898335,11.028019 10.899481,11.004954 10.902867,10.902869 10.971542,10.903953 11.00495,10.899484 11.028017,10.898337" style="fill: white" /><polygon type="contour" points="11.190313,6.225264 11.190342,6.383681 11.190321,6.464382 11.190279,6.480333 10.941232,6.479731 10.89978,6.479731 10.89933,6.384004 10.897247,6.300234 10.896083,6.2224 10.896243,6.192126 10.916968,6.192432 11.190313,6.189436" style="fill: white" /><polygon type="contour" points="11.190467,7.022244 11.190254,7.204382 11.190195,7.22167 11.190253,7.243983 11.190416,7.411534 11.152325,7.411534 10.896265,7.411533 10.896318,7.385318 10.89612,7.243983 10.896196,7.22167 10.896151,7.204382 10.896552,7.020643 10.896467,6.976636 11.190412,6.976636" style="fill: white" /><polygon type="contour" points="12.942265,7.941391 12.939402,8.215248 12.939689,8.234952 12.83526,8.234131 12.747696,8.232371 12.651969,8.231922 12.651369,7.982873 12.651369,7.941421 12.748019,7.941358" style="fill: white" /><polygon type="contour" points="12.76552,7.020643 12.764787,7.204382 12.764784,7.22167 12.764779,7.243983 12.765317,7.385317 12.765277,7.411534 12.748914,7.411643 12.649387,7.414785 12.649387,7.385423 12.649268,7.243884 12.649268,7.193927 12.649387,6.976779 12.666051,6.976779 12.765402,6.976636" style="fill: white" /><polygon type="contour" points="12.949432,6.243296 12.939477,6.482487 12.921352,6.482468 12.800183,6.481264 12.651919,6.479781 12.65197,6.437979 12.65197,6.189533 12.753433,6.186426 12.951949,6.179754" style="fill: white" /><polygon type="contour" points="12.155066,6.366301 12.154922,6.46565 12.154922,6.482316 12.117128,6.482316 11.937776,6.482433 11.887819,6.482433 11.716915,6.482316 11.716999,6.466495 11.72017,6.366426 11.746385,6.366385 11.887717,6.366921 11.910031,6.366917 11.927321,6.366915 12.111057,6.366181" style="fill: white" /><polygon type="contour" points="12.155066,6.976635 12.155066,7.024535 12.155122,7.204381 12.154985,7.243983 12.154458,7.411643 11.938686,7.411587 11.887717,7.411587 11.72017,7.411534 11.72017,7.384365 11.720116,7.243983 11.720116,7.193015 11.72006,6.977243 11.887717,6.976718 11.92732,6.97658" style="fill: white" /><polygon type="contour" points="11.887717,7.941448 11.910031,7.941507 11.92732,7.941449 12.155066,7.94129 12.155066,8.235235 12.111058,8.23515 11.92732,8.235551 11.910031,8.235506 11.887717,8.235582 11.746385,8.235384 11.72017,8.235436 11.72017,7.941286 11.747338,7.941286" style="fill: white" /><polygon type="contour" points="11.190192,7.94151 11.190192,8.232327 11.028017,8.233366 11.00495,8.23222 10.902867,8.228836 10.903951,8.160158 10.899482,8.126751 10.898335,8.103684 10.899581,7.941235 11.029376,7.941235" style="fill: white" /><polygon type="contour" points="8.227099,8.0035 8.228834,8.228836 8.160156,8.227751 8.126749,8.23222 8.103681,8.233367 7.941234,8.232122 7.941234,8.102325 7.941508,7.94151 8.102323,7.941235 8.23212,7.941235" style="fill: white" /><polygon type="contour" points="8.235148,7.020643 8.235549,7.204382 8.235504,7.22167 8.23558,7.243984 8.235382,7.385317 8.235434,7.411534 7.941284,7.411534 7.941284,7.384364 7.941446,7.243984 7.941505,7.221671 7.941447,7.204381 7.941288,6.976636 8.235233,6.976636" style="fill: white" /><polygon type="contour" points="8.215116,6.192496 8.235076,6.192199 8.23421,6.297515 8.23237,6.384004 8.23192,6.479731 7.982872,6.480333 7.941419,6.480333 7.941669,6.429493 7.941669,6.353761 7.941508,6.284573 7.941388,6.189436" style="fill: white" /><polygon type="contour" points="6.238589,6.181967 6.47994,6.189142 6.479979,6.410916 6.479778,6.479781 6.331516,6.481264 6.192224,6.482486 6.191607,6.466107 6.179752,6.179754" style="fill: white" /><polygon type="contour" points="6.465648,6.976779 6.482313,6.976779 6.482313,7.014571 6.482431,7.193926 6.482419,7.243983 6.482265,7.411643 6.46678,7.411534 6.366424,7.411534 6.366383,7.385318 6.36692,7.243984 6.366916,7.22167 6.366914,7.204381 6.366179,7.020644 6.366299,6.976636" style="fill: white" /><polygon type="contour" points="7.20438,6.366915 7.221668,6.366917 7.243982,6.366921 7.385314,6.366385 7.41153,6.366426 7.411639,6.382787 7.414783,6.482316 7.385421,6.482316 7.243881,6.482433 7.193925,6.482433 6.976777,6.482316 6.976777,6.46565 6.976634,6.366301" style="fill: white" /><polygon type="contour" points="7.243982,6.976718 7.41164,6.977242 7.411585,7.193015 7.411585,7.243983 7.411531,7.411534 7.384362,7.411534 7.243981,7.411588 7.193013,7.411588 6.977242,7.411643 6.977242,7.3829 6.976716,7.243983 6.976578,7.204381 6.976634,6.976636 7.024532,6.976636 7.204379,6.97658" style="fill: white" /><polygon type="contour" points="7.20438,7.941449 7.221669,7.941507 7.243981,7.941449 7.411531,7.941286 7.411531,8.235436 7.385314,8.235384 7.243982,8.235582 7.221668,8.235506 7.20438,8.235551 7.020641,8.23515 6.976634,8.235235 6.976634,7.941289 7.022241,7.941236" style="fill: white" /><polygon type="contour" points="6.46438,7.941379 6.480331,7.941421 6.479729,8.190468 6.479729,8.231922 6.384003,8.232371 6.300231,8.234019 6.222399,8.234993 6.192124,8.234833 6.19243,8.214084 6.189434,7.94139 6.383679,7.941359" style="fill: white" /><polygon type="contour" points="6.29644,10.897573 6.384002,10.899332 6.479729,10.899782 6.480331,11.148828 6.480331,11.19028 6.383679,11.190343 6.189433,11.190314 6.192297,10.916456 6.19201,10.896753" style="fill: white" /><polygon type="contour" points="7.243982,12.64928 7.41164,12.649437 7.411531,12.664921 7.411531,12.765278 7.385314,12.765319 7.243982,12.764782 7.221668,12.764787 7.204379,12.76479 7.020642,12.765523 6.976634,12.765403 6.976777,12.666052 6.976777,12.649388 7.014568,12.649388 7.193924,12.649269" style="fill: white" /><polygon type="contour" points="8.190467,12.65197 8.23192,12.65197 8.23237,12.747696 8.234454,12.831469 8.235617,12.909303 8.235457,12.939578 8.21473,12.939272 7.941388,12.942267 7.941388,12.906437 7.941357,12.748021 7.941377,12.66732 7.941419,12.651371" style="fill: white" /><polygon type="contour" points="8.235382,11.746386 8.23558,11.887718 8.235504,11.910032 8.235549,11.927321 8.235148,12.111059 8.235233,12.155067 7.941288,12.155067 7.941234,12.10946 7.941447,11.927321 7.941505,11.910032 7.941447,11.887719 7.941284,11.720171 8.235434,11.720171" style="fill: white" /><polygon type="contour" points="8.0035,10.904602 8.228834,10.902869 8.233366,11.028019 8.232326,11.190194 7.941508,11.190194 7.941234,11.029377 7.941234,10.899582" style="fill: white" /><polygon type="contour" points="7.385314,10.89632 7.411531,10.896268 7.411531,11.190418 7.384361,11.190418 7.243982,11.190255 7.221668,11.190197 7.20438,11.190256 6.976634,11.190414 6.976634,10.896469 7.020641,10.896554 7.20438,10.896153 7.221668,10.896198 7.243982,10.896122" style="fill: white" /><polygon type="contour" points="7.193013,11.720117 7.243981,11.720117 7.411531,11.720171 7.411531,11.747339 7.411585,11.887718 7.411585,11.938688 7.41164,12.154461 7.243982,12.154985 7.204379,12.155123 6.976634,12.155067 6.976634,12.107168 6.976578,11.927321 6.976716,11.887719 6.977242,11.720061" style="fill: white" /><polygon type="contour" points="6.482265,11.748803 6.482419,11.887718 6.482431,11.937777 6.482313,12.154923 6.465648,12.154923 6.366299,12.155067 6.366178,12.111059 6.366914,11.927322 6.366916,11.910032 6.36692,11.887718 6.366384,11.746386 6.366424,11.720171 6.382786,11.720061 6.482265,11.720061" style="fill: white" /><polygon type="contour" points="6.210348,12.649235 6.331516,12.650437 6.479779,12.651919 6.479729,12.693721 6.479729,12.942172 6.378265,12.945277 6.179752,12.95195 6.182268,12.888406 6.192224,12.649216" style="fill: white" />
</svg>
