<svg width="19.131698" height="19.131699">
<polygon type="contour" points="8.750037,8.729381 8.776539,8.730027 8.780203,8.730189 8.849693,8.730189 9.02346,8.73021 9.024228,8.896847 9.085064,8.896903 9.146435,8.896949 9.146435,8.955929 9.146281,9.024674 9.146281,9.085065 9.146435,9.146437 9.106162,9.146437 9.057867,9.146282 8.98484,9.146282 8.896946,9.146437 8.8969,9.085065 8.896847,9.02435 8.730218,9.02435 8.730213,8.79629 8.730206,8.783277 8.729792,8.761147 8.729188,8.72919" style="fill: white" /><polygon type="contour" points="9.024672,9.297381 9.085064,9.297381 9.146435,9.297299 9.146435,9.33757 9.146148,9.386405 9.146148,9.772785 9.146435,9.834406 9.106163,9.834406 9.057867,9.834324 8.984839,9.834324 8.896946,9.834406 8.896885,9.772785 8.89683,9.711102 8.730825,9.711102 8.730223,9.597919 8.729779,9.566201 8.729875,9.550404 8.730222,9.534331 8.730825,9.420602 8.89683,9.420602 8.896885,9.358918 8.896946,9.297299 8.955927,9.297299" style="fill: white" /><polygon type="contour" points="9.386402,9.297505 9.772784,9.297505 9.834404,9.297299 9.834404,9.33757 9.834197,9.386404 9.834197,9.772786 9.834404,9.834406 9.794132,9.834406 9.745298,9.834199 9.358916,9.834199 9.297297,9.834406 9.297297,9.794133 9.297504,9.745299 9.297504,9.358918 9.297297,9.297299 9.337567,9.297299" style="fill: white" /><polygon type="contour" points="9.704632,8.730658 9.711101,8.730827 9.711101,8.896831 9.772785,8.896888 9.834404,8.896949 9.834404,8.955929 9.834322,9.024673 9.834322,9.085065 9.834404,9.146437 9.794132,9.146437 9.745297,9.14615 9.358916,9.14615 9.297297,9.146437 9.297297,9.106165 9.297378,9.057868 9.297378,8.984842 9.297297,8.896949 9.358915,8.896888 9.4206,8.896831 9.4206,8.730827 9.533784,8.730225 9.565568,8.729763" style="fill: white" /><polygon type="contour" points="10.401907,8.761147 10.401493,8.783277 10.401487,8.796289 10.401241,8.851753 10.401298,9.024054 10.401345,9.024301 10.234852,9.024301 10.234799,9.085065 10.234754,9.146437 10.175771,9.146437 10.107026,9.146282 10.046635,9.146282 9.985265,9.146437 9.985265,9.106166 9.98542,9.057868 9.98542,8.984842 9.985265,8.896949 10.046636,8.896903 10.108241,8.896847 10.108241,8.73021 10.282007,8.730189 10.351496,8.730189 10.35516,8.730027 10.381662,8.729381 10.402512,8.72919" style="fill: white" /><polygon type="contour" points="10.073832,9.297381 10.14686,9.297381 10.234753,9.297299 10.234815,9.358918 10.234869,9.420602 10.400873,9.420602 10.401477,9.534332 10.401921,9.566201 10.401825,9.581924 10.401477,9.597918 10.400873,9.711102 10.234869,9.711102 10.234815,9.772785 10.234754,9.834406 10.175771,9.834406 10.107027,9.834324 10.046636,9.834324 9.985265,9.834406 9.985265,9.794133 9.985552,9.745299 9.985552,9.358918 9.985265,9.297299 10.025536,9.297299" style="fill: white" /><polygon type="contour" points="10.073832,9.985423 10.14686,9.985423 10.234754,9.985267 10.234799,10.046639 10.234852,10.107355 10.401482,10.107355 10.401487,10.335413 10.401493,10.348427 10.401907,10.370556 10.402512,10.402514 10.381662,10.402323 10.35516,10.401677 10.351496,10.401515 10.282007,10.401515 10.108241,10.401493 10.107472,10.234856 10.046636,10.2348 9.985265,10.234755 9.985265,10.175774 9.98542,10.107029 9.98542,10.046639 9.985265,9.985267 10.025536,9.985267" style="fill: white" /><polygon type="contour" points="9.386403,9.985554 9.772784,9.985554 9.834404,9.985267 9.834404,10.025538 9.834322,10.073835 9.834322,10.146863 9.834404,10.234755 9.772785,10.234815 9.711101,10.234872 9.711101,10.400875 9.597371,10.401478 9.5655,10.401941 9.427067,10.401044 9.4206,10.400875 9.4206,10.234872 9.358915,10.234815 9.297297,10.234755 9.297297,10.175773 9.297378,10.107029 9.297378,10.046639 9.297297,9.985267 9.337568,9.985267" style="fill: white" /><polygon type="contour" points="9.024673,9.985423 9.085064,9.985423 9.146435,9.985267 9.146435,10.025538 9.146281,10.073836 9.146281,10.146863 9.146435,10.234755 9.085064,10.2348 9.02346,10.234856 9.02346,10.401494 8.849693,10.401515 8.780203,10.401515 8.776539,10.401677 8.750037,10.402323 8.729188,10.402514 8.729792,10.370556 8.730207,10.348427 8.730213,10.335413 8.730459,10.279949 8.730401,10.107651 8.730355,10.107404 8.896847,10.107404 8.8969,10.046639 8.896946,9.985267 8.955927,9.985267" style="fill: white" />
</svg>
