<svg width="19.131698" height="19.131699">
<polygon type="contour" points="9.052605,8.921644 9.049614,9.025162 9.049885,9.031752 9.049962,9.033325 9.050151,9.050152 9.03578,9.049871 9.024145,9.050019 8.930874,9.05412 8.863537,9.052023 8.863537,8.926274 8.863966,8.909728 8.86463,8.829867 8.908529,8.829494 8.926261,8.829313 8.952097,8.829403 8.957623,8.829753 9.052605,8.828968" style="fill: white" /><polygon type="contour" points="10.179603,8.829403 10.200826,8.829534 10.223171,8.829494 10.267069,8.829867 10.267734,8.909728 10.268163,8.926275 10.268163,9.052023 10.107555,9.050018 10.09592,9.049871 10.08155,9.050152 10.081766,9.030865 10.076788,8.94152 10.079096,8.921644 10.079096,8.828968" style="fill: white" /><polygon type="contour" points="10.268163,10.07968 10.268163,10.205427 10.267734,10.221977 10.267069,10.301838 10.223171,10.30221 10.205437,10.302391 10.179603,10.302301 10.174076,10.301951 10.079096,10.302736 10.079096,10.21006 10.082087,10.106542 10.081815,10.099952 10.081738,10.098331 10.081549,10.081552 10.09592,10.081833 10.107555,10.081686 10.200826,10.077585" style="fill: white" /><polygon type="contour" points="10.00335,10.003352 9.12835,10.003352 9.12835,9.128352 10.00335,9.128352" style="fill: white" /><polygon type="contour" points="9.024145,10.081686 9.03578,10.081833 9.050151,10.081552 9.049933,10.10083 9.054911,10.190184 9.052605,10.21006 9.052605,10.302736 8.952098,10.302301 8.930873,10.302171 8.90853,10.302211 8.86463,10.301838 8.863966,10.221976 8.863537,10.205427 8.863537,10.07968" style="fill: white" />
</svg>
