<svg width="19.131698" height="19.131699">
<polygon type="contour" points="15.517097,14.473325 15.516719,14.757 15.516915,15.02234 15.446288,15.022406 15.321458,15.022406 15.321449,14.752155 15.321449,14.473999 15.413087,14.469494" style="fill: white" /><polygon type="contour" points="15.022298,14.753841 15.022405,15.022406 14.746064,15.022477 14.469737,15.022477 14.4886,14.564871 14.490189,14.527635 14.525599,14.525599 14.527634,14.490192 14.564145,14.489553 15.022298,14.475082" style="fill: white" /><polygon type="contour" points="15.517366,15.423405 15.517366,15.517368 15.401518,15.516916 15.32133,15.516916 15.32133,15.401518 15.321458,15.321459 15.446288,15.321459 15.516915,15.321331" style="fill: white" /><polygon type="contour" points="15.022405,15.321459 15.022405,15.446288 15.022338,15.516916 14.756998,15.516722 14.473323,15.5171 14.477339,15.410998 14.473997,15.321451 14.752152,15.321451" style="fill: white" /><polygon type="contour" points="14.757319,16.380567 15.022338,16.380949 15.021978,16.597503 15.022034,16.713231 14.788928,16.71336 14.483076,16.713579 14.473964,16.535678 14.477659,16.380418" style="fill: white" /><polygon type="contour" points="15.02192,16.944122 15.02192,16.964859 15.022405,17.086832 15.022128,17.153608 15.021893,17.166412 15.022112,17.196812 15.021934,17.199076 15.021934,17.237997 15.022058,17.239885 15.022072,17.276774 14.809293,17.277274 14.689374,17.277274 14.689299,17.236546 14.68906,17.181908 14.476009,17.182046 14.46825,17.181854 14.458732,17.027986 14.47643,16.943988 14.787884,16.943988" style="fill: white" /><polygon type="contour" points="15.51721,16.597503 15.51721,16.713306 15.389474,16.713306 15.321311,16.713298 15.321211,16.597503 15.32133,16.380949 15.423403,16.380316 15.517366,16.380316" style="fill: white" /><polygon type="contour" points="15.517366,17.017884 15.517366,17.086342 15.433473,17.08639 15.321458,17.086704 15.321311,16.987333 15.321311,16.944 15.457829,16.944 15.51721,16.943938" style="fill: white" /><polygon type="contour" points="16.473327,16.94404 16.713228,16.94404 16.713228,17.086842 16.512943,17.08643 16.380314,17.086342 16.380805,16.993672 16.380805,16.943938" style="fill: white" /><polygon type="contour" points="17.276772,16.943572 17.27669,17.025209 17.277188,17.247572 17.277188,17.27719 17.148598,17.277323 17.147836,17.277191 16.943516,17.27672 16.943718,17.237998 16.943718,17.199078 16.943662,17.197761 16.943687,17.168036 16.943706,17.15537 16.944038,17.086841 16.944038,16.94404 17.086839,16.94404 17.155368,16.943708 17.168034,16.943689 17.197759,16.943664 17.237996,16.94372 17.239884,16.94356" style="fill: white" /><polygon type="contour" points="17.086428,16.512943 17.08684,16.713231 16.944036,16.713231 16.944036,16.473329 16.943934,16.380807 17.017882,16.380316 17.08634,16.380316" style="fill: white" /><polygon type="contour" points="16.597499,16.380807 16.713303,16.380807 16.713303,16.597502 16.713228,16.713231 16.612388,16.713298 16.597499,16.713306 16.380805,16.713306 16.380805,16.597502 16.380313,16.380316" style="fill: white" /><polygon type="contour" points="17.035174,15.321459 17.086702,15.321459 17.086388,15.433475 17.08634,15.517368 16.993668,15.517213 16.943934,15.517213 16.943934,15.389475 16.943996,15.321313" style="fill: white" /><polygon type="contour" points="16.713294,15.321313 16.713303,15.389475 16.713303,15.517213 16.597499,15.517213 16.380314,15.517368 16.380949,15.401519 16.380949,15.321331 16.5975,15.321213" style="fill: white" /><polygon type="contour" points="16.580343,14.482761 16.712929,14.478681 16.712929,14.79101 16.713228,15.022036 16.491725,15.022451 16.380949,15.02234 16.380314,14.753827 16.380365,14.476976" style="fill: white" /><polygon type="contour" points="17.127063,14.481511 17.182,14.48139 17.181916,14.509681 17.181925,14.53896 17.181906,14.689061 17.236544,14.6893 17.23743,14.689314 17.277272,14.689374 17.277272,14.809294 17.276772,15.022074 17.237996,15.021936 17.196809,15.022114 17.166408,15.021893 17.153603,15.02213 17.086828,15.022406 17.061063,15.022406 16.944118,15.021923 16.944014,14.781901 16.944014,14.472523" style="fill: white" /><polygon type="contour" points="17.277188,1.854514 17.277188,1.884131 17.27669,2.106494 17.276772,2.188132 17.237996,2.187984 17.199076,2.187984 17.197759,2.18804 17.168034,2.188014 17.155367,2.187996 17.08684,2.187663 16.94404,2.187663 16.94404,2.167778 16.944038,2.044862 16.943706,1.976334 16.943687,1.963668 16.943662,1.933942 16.943718,1.893705 16.943558,1.891817 16.943516,1.854985 17.147836,1.85451 17.148598,1.854379" style="fill: white" /><polygon type="contour" points="16.713231,2.147895 16.713231,2.187663 16.473325,2.187663 16.380803,2.187766 16.380314,2.11382 16.380314,2.04536 16.512942,2.045274 16.713228,2.044862" style="fill: white" /><polygon type="contour" points="16.713231,2.418472 16.713228,2.658374 16.713303,2.750897 16.597499,2.750897 16.380314,2.751388 16.380803,2.5342 16.380803,2.418397 16.597503,2.418397" style="fill: white" /><polygon type="contour" points="17.086428,2.618759 17.08634,2.751388 16.993668,2.750897 16.943934,2.750897 16.944036,2.658374 16.94404,2.418472 17.08684,2.418472" style="fill: white" /><polygon type="contour" points="16.713228,4.109668 16.712929,4.340693 16.712929,4.653022 16.580343,4.648942 16.380365,4.654727 16.380935,4.373987 16.380949,4.109363 16.491725,4.109252" style="fill: white" /><polygon type="contour" points="17.153604,4.109574 17.166407,4.109809 17.196809,4.109591 17.199076,4.109769 17.237995,4.109769 17.239883,4.109643 17.276772,4.109631 17.277272,4.322409 17.277272,4.442328 17.236544,4.442403 17.181904,4.442642 17.18225,4.655651 17.182224,4.663448 17.027205,4.679162 16.944014,4.659181 16.944014,4.349803 16.944118,4.109781 16.964856,4.109781 17.086827,4.109298" style="fill: white" /><polygon type="contour" points="17.086636,3.730185 17.086702,3.810244 16.987332,3.809903 16.943996,3.809903 16.943996,3.673871 16.943934,3.614491 17.017881,3.614335 17.08634,3.614335" style="fill: white" /><polygon type="contour" points="16.5975,3.614491 16.713303,3.614491 16.713303,3.741771 16.713295,3.809903 16.5975,3.810035 16.380949,3.810373 16.380314,3.708296 16.380314,3.614335" style="fill: white" /><polygon type="contour" points="14.756998,3.614982 15.022338,3.614788 15.022338,3.730184 15.022405,3.810244 14.752153,3.810253 14.473997,3.810253 14.469491,3.718613 14.473323,3.614604" style="fill: white" /><polygon type="contour" points="15.022405,4.109298 15.022298,4.377861 15.022298,4.65662 14.564146,4.642152 14.527634,4.641513 14.525595,4.606052 14.490192,4.604078 14.4886,4.566831 14.469737,4.109226 14.746063,4.109226" style="fill: white" /><polygon type="contour" points="15.516915,4.109363 15.516719,4.374703 15.517097,4.658379 15.410996,4.654363 15.321449,4.657704 15.321449,4.379548 15.321458,4.109298 15.446287,4.109298" style="fill: white" /><polygon type="contour" points="15.516915,3.730185 15.516915,3.810373 15.401517,3.810373 15.321458,3.810244 15.321458,3.685414 15.32133,3.614788 15.423403,3.614335 15.517365,3.614335" style="fill: white" /><polygon type="contour" points="15.51721,2.534199 15.517366,2.751388 15.401516,2.750754 15.321328,2.750754 15.321211,2.534199 15.321311,2.418405 15.457828,2.418405 15.51721,2.418397" style="fill: white" /><polygon type="contour" points="15.433473,2.045312 15.517366,2.045361 15.51721,2.138031 15.51721,2.187766 15.457829,2.187704 15.321311,2.187704 15.321458,2.096524 15.321458,2.044998" style="fill: white" /><polygon type="contour" points="15.022072,1.85493 15.021934,1.893705 15.022112,1.934892 15.021893,1.965292 15.022128,1.978095 15.022405,2.044872 15.022405,2.070635 15.02192,2.187581 14.787883,2.187716 14.476432,2.187716 14.458732,2.103719 14.468249,1.94985 14.476009,1.949657 14.68906,1.949792 14.689298,1.895157 14.689315,1.894272 14.689374,1.854429 14.809292,1.854429" style="fill: white" /><polygon type="contour" points="14.788928,2.418342 15.022034,2.418472 15.022448,2.639976 15.022337,2.750754 14.757318,2.751136 14.477659,2.751284 14.485158,2.503913 14.483077,2.418122" style="fill: white" /><polygon type="contour" points="4.657736,2.596025 4.654041,2.751284 4.37438,2.751136 4.109361,2.750754 4.109721,2.534199 4.109666,2.418472 4.342773,2.418342 4.648622,2.418121" style="fill: white" /><polygon type="contour" points="4.442401,1.895157 4.44264,1.949792 4.592739,1.949774 4.622021,1.949786 4.650313,1.949701 4.659382,2.091569 4.655268,2.187716 4.343817,2.187716 4.10978,2.187581 4.10978,2.166843 4.109296,2.044871 4.109573,1.978095 4.109808,1.965292 4.109589,1.934893 4.109767,1.932627 4.109767,1.893704 4.109641,1.891817 4.109629,1.85493 4.322408,1.854429 4.442326,1.854429" style="fill: white" /><polygon type="contour" points="3.809901,2.418405 3.810033,2.5342 3.810371,2.750753 3.708294,2.751388 3.614333,2.751388 3.614489,2.534199 3.614489,2.418397 3.74177,2.418397" style="fill: white" /><polygon type="contour" points="3.809901,2.144367 3.809901,2.187704 3.673869,2.187704 3.614489,2.187766 3.614333,2.113819 3.614333,2.045361 3.698225,2.045312 3.810242,2.044998" style="fill: white" /><polygon type="contour" points="1.983865,1.85451 2.188184,1.854984 2.187982,1.893704 2.187982,1.932627 2.188038,1.933942 2.188012,1.963668 2.187994,1.976333 2.187661,2.044862 2.187661,2.187663 2.04486,2.187663 1.976331,2.187996 1.963666,2.188014 1.93394,2.18804 1.893703,2.187984 1.891816,2.188144 1.854929,2.188132 1.855009,2.106494 1.854512,1.884131 1.854512,1.854514 1.983101,1.854379" style="fill: white" /><polygon type="contour" points="2.618757,2.045274 2.751386,2.04536 2.750896,2.13803 2.750896,2.187766 2.658373,2.187663 2.41847,2.187663 2.41847,2.044862" style="fill: white" /><polygon type="contour" points="2.750896,2.5342 2.751386,2.751388 2.534197,2.750897 2.418395,2.750897 2.418395,2.534199 2.41847,2.418472 2.519308,2.418404 2.534198,2.418397 2.750896,2.418397" style="fill: white" /><polygon type="contour" points="2.187661,2.658374 2.187764,2.750897 2.113817,2.751388 2.045359,2.751388 2.045273,2.618759 2.044861,2.418472 2.187661,2.418472" style="fill: white" /><polygon type="contour" points="2.187579,4.109781 2.187685,4.349802 2.187685,4.659181 2.104497,4.679162 1.949477,4.663448 1.949451,4.655651 1.94979,4.442642 1.895155,4.442404 1.894269,4.442388 1.854428,4.442328 1.854428,4.32241 1.854929,4.109631 1.893704,4.109769 1.93489,4.109591 1.965291,4.109809 1.978094,4.109574 2.044871,4.109297 2.070632,4.109297" style="fill: white" /><polygon type="contour" points="2.13803,3.614491 2.187764,3.614491 2.187764,3.741771 2.187702,3.809903 2.096523,3.810244 2.044996,3.810244 2.04531,3.698227 2.04536,3.614335" style="fill: white" /><polygon type="contour" points="2.750753,3.730185 2.750753,3.810373 2.534198,3.810035 2.418403,3.809903 2.418395,3.741771 2.418395,3.614491 2.534197,3.614491 2.751386,3.614335" style="fill: white" /><polygon type="contour" points="2.750753,4.109363 2.751386,4.377874 2.751334,4.654727 2.551354,4.648942 2.418769,4.653022 2.418769,4.340693 2.41847,4.109668 2.639975,4.109252" style="fill: white" /><polygon type="contour" points="3.810251,4.379548 3.810251,4.657704 3.718613,4.66221 3.614602,4.658379 3.61498,4.374703 3.614786,4.109363 3.685412,4.109298 3.810242,4.109298" style="fill: white" /><polygon type="contour" points="3.730182,3.614788 3.810371,3.614788 3.810371,3.730185 3.810242,3.810244 3.685411,3.810244 3.614785,3.810373 3.614333,3.708297 3.614333,3.614335" style="fill: white" /><polygon type="contour" points="4.654362,3.720705 4.657703,3.810253 4.379546,3.810253 4.109296,3.810244 4.109296,3.685414 4.109361,3.614788 4.374702,3.614982 4.658377,3.614604" style="fill: white" /><polygon type="contour" points="4.643098,4.566832 4.641512,4.604069 4.606102,4.606104 4.604066,4.641513 4.567555,4.642152 4.109401,4.65662 4.109401,4.377861 4.109296,4.109298 4.385638,4.109226 4.661963,4.109226" style="fill: white" /><polygon type="contour" points="2.187685,14.472523 2.187685,14.781902 2.187579,15.021923 2.166841,15.021923 2.044871,15.022407 1.978094,15.02213 1.96529,15.021893 1.934891,15.022114 1.932625,15.021936 1.893704,15.021936 1.891816,15.02206 1.854929,15.022074 1.854428,14.809294 1.854428,14.689374 1.895155,14.6893 1.94979,14.689061 1.949772,14.538961 1.949784,14.509681 1.9497,14.48139 2.091568,14.472321" style="fill: white" /><polygon type="contour" points="2.187702,15.457832 2.187764,15.517213 2.113817,15.517368 2.045359,15.517368 2.045063,15.40152 2.044996,15.32146 2.144365,15.321313 2.187702,15.321313" style="fill: white" /><polygon type="contour" points="2.750752,15.321331 2.751386,15.423406 2.751386,15.517368 2.534198,15.517213 2.418395,15.517213 2.418395,15.389475 2.418403,15.321313 2.534197,15.321213" style="fill: white" /><polygon type="contour" points="2.750765,14.757716 2.750752,15.022339 2.639974,15.022451 2.41847,15.022036 2.418769,14.79101 2.418769,14.478681 2.551354,14.482761 2.751334,14.476976" style="fill: white" /><polygon type="contour" points="4.567555,14.489553 4.604067,14.490192 4.606104,14.52565 4.641508,14.527626 4.643098,14.56487 4.661963,15.022477 4.385637,15.022477 4.109296,15.022406 4.109401,14.753841 4.109401,14.475082" style="fill: white" /><polygon type="contour" points="3.720703,14.477341 3.810251,14.473999 3.810251,14.752155 3.810242,15.022406 3.685411,15.022406 3.614786,15.02234 3.61498,14.757 3.614602,14.473325" style="fill: white" /><polygon type="contour" points="3.810242,15.321459 3.810242,15.446289 3.810371,15.516916 3.708295,15.517368 3.614333,15.517368 3.614786,15.401518 3.614786,15.321331 3.730183,15.321331" style="fill: white" /><polygon type="contour" points="4.662208,15.41309 4.658376,15.5171 4.374702,15.516722 4.109361,15.516916 4.109361,15.401518 4.109296,15.321459 4.379547,15.321451 4.657702,15.321451" style="fill: white" /><polygon type="contour" points="4.647925,17.127752 4.650312,17.182004 4.62202,17.18192 4.592739,17.181928 4.44264,17.181908 4.442402,17.236546 4.442386,17.237432 4.442326,17.277274 4.322407,17.277274 4.109629,17.276774 4.109767,17.237997 4.109589,17.19681 4.109808,17.166412 4.109573,17.153608 4.109296,17.086831 4.109296,17.061068 4.10978,16.944122 4.343816,16.943988 4.655268,16.943988" style="fill: white" /><polygon type="contour" points="4.646541,16.627787 4.648623,16.713579 4.342772,16.71336 4.109666,16.713231 4.10925,16.491725 4.109361,16.380948 4.37438,16.380567 4.654041,16.380418" style="fill: white" /><polygon type="contour" points="3.730183,16.380949 3.810371,16.380949 3.810033,16.597502 3.809901,16.713298 3.673869,16.713298 3.614489,16.713306 3.614489,16.597503 3.614333,16.380316" style="fill: white" /><polygon type="contour" points="3.673869,16.944 3.809901,16.944 3.810242,17.035177 3.810242,17.086704 3.698225,17.08639 3.614333,17.086342 3.614489,16.993671 3.614489,16.943938" style="fill: white" /><polygon type="contour" points="2.751386,17.017883 2.751386,17.086342 2.618757,17.08643 2.41847,17.086842 2.41847,16.94404 2.658373,16.94404 2.750896,16.943938" style="fill: white" /><polygon type="contour" points="2.750896,16.597502 2.750896,16.713306 2.534197,16.713306 2.41847,16.713231 2.41847,16.473329 2.418395,16.380807 2.534197,16.380807 2.751386,16.380316" style="fill: white" /><polygon type="contour" points="2.138029,16.380807 2.187764,16.380807 2.187661,16.473329 2.187661,16.713231 2.044861,16.713231 2.045273,16.512943 2.04536,16.380316" style="fill: white" /><polygon type="contour" points="1.893704,16.94372 1.932625,16.94372 1.93394,16.943664 1.963666,16.943689 1.976332,16.943708 2.04486,16.94404 2.187661,16.94404 2.187661,17.086842 2.187994,17.155369 2.188012,17.168036 2.188038,17.197761 2.187982,17.237998 2.188142,17.239886 2.188184,17.27672 1.983865,17.277192 1.983101,17.277323 1.854512,17.277189 1.854512,17.247572 1.855009,17.025209 1.854929,16.943572" style="fill: white" />
</svg>
