<svg width="19.131698" height="19.131699">
<polygon type="contour" points="12.146756,6.730787 12.157898,6.731324 12.161979,6.731662 12.184713,6.736776 12.193556,6.739129 12.19507,6.739782 12.232877,6.757852 12.238027,6.760826 12.267403,6.780667 12.294713,6.806238 12.315645,6.825088 12.339202,6.850561 12.345299,6.8572 12.352428,6.867498 12.378933,6.908687 12.38375,6.918402 12.392899,6.9439 12.399123,6.962791 12.399595,6.966249 12.400911,6.988802 12.400911,11.949137 12.400903,12.142901 12.400937,12.144111 12.39888,12.161358 12.393031,12.187937 12.387785,12.204335 12.370824,12.234583 12.358961,12.254693 12.34655,12.272325 12.332235,12.289602 12.31603,12.308014 12.294763,12.326223 12.271728,12.345856 12.252952,12.359607 12.228304,12.376265 12.213246,12.382578 12.173749,12.396952 12.166698,12.398497 12.160393,12.399372 12.157066,12.399685 12.15336,12.400056 12.145025,12.400889 12.1429,12.400979 7.806911,12.400979 6.988801,12.400868 6.988051,12.400951 6.981877,12.399716 6.970352,12.397716 6.958561,12.395353 6.935309,12.389914 6.92506,12.385543 6.898683,12.370443 6.869078,12.3541 6.864297,12.351037 6.836986,12.325464 6.819605,12.309248 6.803267,12.293179 6.792245,12.281081 6.781451,12.265977 6.767323,12.245377 6.746372,12.208561 6.74242,12.20031 6.739699,12.192351 6.731681,12.160338 6.730965,12.154329 6.730654,12.144516 6.73077,12.142901 6.731132,7.879212 6.731253,6.988802 6.731455,6.977909 6.731909,6.973299 6.739664,6.939302 6.740686,6.93553 6.741321,6.93386 6.764842,6.891348 6.773934,6.876225 6.788233,6.854861 6.799009,6.842102 6.815671,6.823688 6.841165,6.801988 6.865959,6.780528 6.895435,6.758876 6.89742,6.757881 6.935793,6.741879 6.96484,6.733043 6.96899,6.732291 6.971318,6.731883 6.973146,6.731766 6.976434,6.731459 6.9888,6.730725 11.324789,6.730725 11.755373,6.730766 11.949137,6.730766 12.142899,6.730724" style="fill: white" />
</svg>
