<svg width="19.131698" height="19.131699">
<polygon type="contour" points="10.786308,10.60984 10.786822,10.622255 10.790183,10.655321 10.79052,10.790523 10.554669,10.783852 10.519937,10.782478 10.505195,10.782286 10.505315,10.738401 10.505943,10.505945 10.573255,10.505945 10.656864,10.505794 10.745085,10.505761 10.78302,10.505761" style="fill: white" /><polygon type="contour" points="8.577031,8.347851 8.611763,8.349227 8.626506,8.349418 8.626386,8.393301 8.625755,8.625757 8.558444,8.625757 8.474835,8.62591 8.386615,8.625944 8.348679,8.625944 8.34539,8.521863 8.344877,8.50945 8.341516,8.476382 8.34118,8.341181" style="fill: white" /><polygon type="contour" points="8.879056,9.938199 8.878995,9.986259 8.823384,9.986259 8.781181,9.986209 8.781181,9.938202 8.781116,9.882596 8.833768,9.882608 8.879056,9.882526" style="fill: white" /><polygon type="contour" points="8.626295,9.88276 8.626424,9.938202 8.626424,9.98621 8.56745,9.98621 8.515918,9.986259 8.515874,9.937877 8.515947,9.882378 8.565576,9.882378" style="fill: white" /><polygon type="contour" points="8.608596,9.408607 8.626315,9.408612 8.626315,9.723203 8.608557,9.723092 8.582084,9.723096 8.348754,9.726053 8.348752,9.651957 8.347761,9.565502 8.348752,9.4794 8.348754,9.40565 8.420487,9.40565" style="fill: white" /><polygon type="contour" points="8.833767,9.407183 8.879056,9.407165 8.879056,9.724539 8.824158,9.725102 8.781403,9.725392 8.781116,9.565943 8.781116,9.40669" style="fill: white" /><polygon type="contour" points="8.878995,9.204234 8.879056,9.249178 8.833767,9.249421 8.781116,9.249488 8.781181,9.193828 8.781181,9.145495 8.833768,9.145495 8.878995,9.145446" style="fill: white" /><polygon type="contour" points="8.626424,9.145495 8.626228,9.192866 8.626228,9.249567 8.56578,9.249282 8.515922,9.249041 8.515853,9.193506 8.515919,9.145446 8.578282,9.145446" style="fill: white" /><polygon type="contour" points="8.626424,8.833769 8.626424,8.878858 8.56745,8.878858 8.515918,8.878996 8.515875,8.83377 8.515821,8.781118 8.62616,8.781118" style="fill: white" /><polygon type="contour" points="8.833768,8.781182 8.878857,8.781182 8.878857,8.833769 8.878995,8.878996 8.823384,8.878996 8.78118,8.878858 8.781116,8.833823 8.781116,8.781118" style="fill: white" /><polygon type="contour" points="8.833767,8.515876 8.878995,8.515921 8.878995,8.578285 8.878857,8.626426 8.833768,8.626426 8.781116,8.626161 8.781116,8.515823" style="fill: white" /><polygon type="contour" points="10.783708,8.591454 10.78302,8.625944 10.654356,8.625944 10.532902,8.625757 10.505943,8.625757 10.505314,8.393301 10.505168,8.349367 10.554669,8.347851 10.79052,8.341181" style="fill: white" /><polygon type="contour" points="10.352131,8.565723 10.352131,8.626228 10.297932,8.626426 10.252844,8.626426 10.252844,8.567452 10.252706,8.515921 10.297932,8.515877 10.350584,8.515823" style="fill: white" /><polygon type="contour" points="10.35052,8.83377 10.35052,8.878858 10.297932,8.878858 10.252706,8.878996 10.252706,8.823385 10.252844,8.781182 10.297878,8.781118 10.350584,8.781118" style="fill: white" /><polygon type="contour" points="10.615824,8.83377 10.61578,8.878996 10.553416,8.878996 10.505277,8.878858 10.505277,8.833769 10.505541,8.781118 10.615879,8.781118" style="fill: white" /><polygon type="contour" points="10.782948,9.479746 10.783939,9.566201 10.782948,9.652303 10.782946,9.726054 10.711213,9.726054 10.523104,9.723097 10.505386,9.723092 10.505386,9.408501 10.523143,9.408501 10.549617,9.408607 10.782946,9.40565" style="fill: white" /><polygon type="contour" points="10.615825,9.193502 10.615752,9.248945 10.505406,9.248945 10.505277,9.193502 10.505277,9.145495 10.564249,9.145495 10.61578,9.145446" style="fill: white" /><polygon type="contour" points="10.35052,9.145495 10.35052,9.193502 10.350584,9.249109 10.297933,9.249097 10.252645,9.249178 10.252645,9.193506 10.252706,9.145446 10.308315,9.145446" style="fill: white" /><polygon type="contour" points="9.72504,9.725041 9.406661,9.725041 9.406661,9.406664 9.72504,9.406664" style="fill: white" /><polygon type="contour" points="9.724538,9.938199 9.724538,9.986127 9.407163,9.986127 9.406772,9.939101 9.406772,9.882664 9.724928,9.882664" style="fill: white" /><polygon type="contour" points="9.986124,9.938199 9.986256,9.986259 9.927467,9.986259 9.882525,9.986127 9.882663,9.939102 9.882663,9.882663 9.938196,9.882526 9.986124,9.882526" style="fill: white" /><polygon type="contour" points="9.986256,10.252709 9.986256,10.308317 9.986208,10.350522 9.937874,10.350522 9.882215,10.350586 9.882282,10.297934 9.882525,10.252647 9.938196,10.252647" style="fill: white" /><polygon type="contour" points="9.725034,10.297723 9.725013,10.350586 9.406688,10.350586 9.40718,10.297934 9.407163,10.252647 9.724538,10.252647" style="fill: white" /><polygon type="contour" points="9.723096,10.523106 9.726085,10.668283 9.726085,10.782738 9.694235,10.78419 9.5655,10.783896 9.51614,10.782742 9.405616,10.782738 9.408605,10.549618 9.40861,10.505387 9.723091,10.505387" style="fill: white" /><polygon type="contour" points="9.986208,10.564252 9.986256,10.615782 9.938196,10.615848 9.882663,10.615779 9.882663,10.566068 9.882377,10.505408 9.937874,10.505278 9.986208,10.505278" style="fill: white" /><polygon type="contour" points="10.350584,10.505543 10.350584,10.615881 10.297932,10.615826 10.252706,10.615782 10.252706,10.553418 10.252844,10.505278 10.297932,10.505278" style="fill: white" /><polygon type="contour" points="10.35052,10.252847 10.350584,10.297881 10.350584,10.350586 10.297933,10.350522 10.252844,10.350522 10.252844,10.297935 10.252706,10.252709 10.308316,10.252709" style="fill: white" /><polygon type="contour" points="10.615824,10.297934 10.615879,10.350586 10.505541,10.350586 10.505277,10.297934 10.505277,10.252847 10.56425,10.252847 10.61578,10.252709" style="fill: white" /><polygon type="contour" points="10.56592,9.882422 10.615777,9.882664 10.615847,9.938199 10.61578,9.986259 10.553416,9.986259 10.505277,9.98621 10.505473,9.938837 10.505473,9.882138" style="fill: white" /><polygon type="contour" points="10.35052,9.937876 10.35052,9.98621 10.297932,9.98621 10.252706,9.986259 10.252706,9.927469 10.252645,9.882526 10.297933,9.882282 10.350584,9.882216" style="fill: white" /><polygon type="contour" points="10.350584,9.56576 10.350584,9.725014 10.297932,9.724521 10.252645,9.724539 10.252645,9.407165 10.307541,9.406601 10.350297,9.406311" style="fill: white" /><polygon type="contour" points="9.986124,9.407164 9.986124,9.724539 9.938197,9.724539 9.882663,9.72493 9.88251,9.535833 9.88251,9.406667 9.928133,9.406667" style="fill: white" /><polygon type="contour" points="9.986256,9.204234 9.986124,9.249178 9.939099,9.249041 9.882663,9.249041 9.882525,9.193505 9.882525,9.145576 9.938197,9.145576 9.986256,9.145446" style="fill: white" /><polygon type="contour" points="9.724928,9.1926 9.724928,9.249041 9.406772,9.249041 9.407163,9.193506 9.407163,9.145576 9.724538,9.145576" style="fill: white" /><polygon type="contour" points="9.724844,8.833769 9.724538,8.879057 9.407163,8.879057 9.406667,8.83398 9.406688,8.781118 9.725391,8.781118" style="fill: white" /><polygon type="contour" points="9.938199,8.781182 9.986208,8.781182 9.986208,8.833769 9.986256,8.878996 9.927467,8.878996 9.882525,8.879057 9.882605,8.833769 9.882593,8.781118" style="fill: white" /><polygon type="contour" points="9.986256,8.51592 9.986256,8.578284 9.986207,8.626426 9.939276,8.626296 9.882757,8.626296 9.882663,8.565635 9.882663,8.515925 9.938197,8.515855" style="fill: white" /><polygon type="contour" points="9.566198,8.347809 9.61556,8.348962 9.726085,8.348966 9.726085,8.463421 9.723096,8.608597 9.723202,8.626317 9.40861,8.626317 9.408605,8.608598 9.405616,8.463421 9.405616,8.348966 9.437465,8.347515" style="fill: white" /><polygon type="contour" points="9.249038,8.515925 9.249038,8.565635 9.249324,8.626296 9.193826,8.626426 9.145493,8.626426 9.145493,8.567451 9.145444,8.515921 9.193504,8.515855" style="fill: white" /><polygon type="contour" points="9.249419,8.833769 9.249175,8.879057 9.193504,8.879057 9.145444,8.878996 9.145444,8.823386 9.145493,8.781182 9.193826,8.781182 9.249486,8.781118" style="fill: white" /><polygon type="contour" points="9.249176,9.145576 9.249038,9.1926 9.249038,9.249041 9.193503,9.249178 9.145574,9.249178 9.145574,9.193506 9.145444,9.145446 9.204232,9.145446" style="fill: white" /><polygon type="contour" points="9.24919,9.595871 9.24919,9.725037 9.203564,9.725037 9.145574,9.724539 9.145574,9.407165 9.193504,9.407165 9.249038,9.406775" style="fill: white" /><polygon type="contour" points="9.192597,9.882664 9.249038,9.882664 9.249176,9.938199 9.249176,9.986127 9.193504,9.986127 9.145444,9.986259 9.145444,9.927469 9.145574,9.882526" style="fill: white" /><polygon type="contour" points="9.249418,10.297934 9.249486,10.350586 9.193826,10.350522 9.145493,10.350522 9.145493,10.297934 9.145444,10.252709 9.204232,10.252709 9.249175,10.252647" style="fill: white" /><polygon type="contour" points="9.192422,10.505408 9.249324,10.505408 9.249038,10.566068 9.249038,10.615779 9.193503,10.615849 9.145444,10.615782 9.145444,10.553418 9.145493,10.505278" style="fill: white" /><polygon type="contour" points="8.878857,10.564252 8.878995,10.615782 8.833768,10.615826 8.781116,10.615881 8.781116,10.505543 8.833768,10.505278 8.878857,10.505278" style="fill: white" /><polygon type="contour" points="8.878995,10.308318 8.878857,10.350522 8.833822,10.350586 8.781116,10.350586 8.781181,10.297935 8.781181,10.252847 8.833768,10.252847 8.878995,10.252709" style="fill: white" /><polygon type="contour" points="8.626424,10.252847 8.626424,10.297934 8.626228,10.352132 8.565722,10.352132 8.515821,10.350586 8.515875,10.297934 8.515919,10.252709 8.578281,10.252709" style="fill: white" /><polygon type="contour" points="8.474835,10.505794 8.558444,10.505945 8.625756,10.505945 8.626386,10.738402 8.626533,10.782337 8.577032,10.783851 8.34118,10.790523 8.347992,10.540249 8.34868,10.505761 8.386614,10.505761" style="fill: white" />
</svg>
