<svg width="19.131698" height="19.131699">
<polygon type="contour" points="8.559344,8.317728 8.593432,8.317286 8.594162,8.341184 8.594199,8.344989 8.594252,8.375394 8.594252,8.412622 8.593594,8.593595 8.554364,8.593595 8.430951,8.593642 8.317645,8.593642 8.316283,8.550531 8.3156,8.534053 8.31114,8.490158 8.310693,8.310694" style="fill: white" /><polygon type="contour" points="8.912821,10.562154 8.912821,10.646723 8.844152,10.646554 8.808892,10.646706 8.808892,10.537761 8.846627,10.537761 8.912787,10.537274" style="fill: white" /><polygon type="contour" points="9.154672,10.537565 9.154638,10.575777 9.154638,10.646336 9.081164,10.646701 9.05722,10.646723 9.057269,10.619712 9.057269,10.537274 9.081582,10.537274" style="fill: white" /><polygon type="contour" points="9.753378,10.285474 9.753313,10.322811 9.376601,10.322811 9.378321,10.285474 9.378912,10.21883 9.752787,10.21883" style="fill: white" /><polygon type="contour" points="9.754178,10.635815 9.752773,10.754299 9.752609,10.783487 9.752989,10.801936 9.752989,10.813114 9.658055,10.81744 9.5655,10.817229 9.389504,10.813114 9.378711,10.813114 9.37909,10.783487 9.378926,10.754299 9.37582,10.537663 9.754107,10.537663" style="fill: white" /><polygon type="contour" points="10.074481,10.562154 10.074481,10.646723 10.00967,10.646357 9.977061,10.646336 9.975269,10.607578 9.975269,10.537565 10.011945,10.537565 10.07443,10.537274" style="fill: white" /><polygon type="contour" points="10.322808,10.537761 10.322808,10.646706 10.244802,10.646823 10.21888,10.646723 10.218913,10.619711 10.218913,10.537274 10.244801,10.537274" style="fill: white" /><polygon type="contour" points="10.815417,10.581174 10.816098,10.597651 10.820559,10.641545 10.821007,10.821008 10.572356,10.813976 10.538269,10.814419 10.537539,10.790519 10.537502,10.786715 10.537449,10.756308 10.537449,10.719082 10.538107,10.538109 10.577336,10.538109 10.700749,10.538062 10.814055,10.538062" style="fill: white" /><polygon type="contour" points="10.646551,10.287548 10.646703,10.322811 10.537758,10.322811 10.537758,10.285075 10.537271,10.218915 10.562151,10.218882 10.646721,10.218882" style="fill: white" /><polygon type="contour" points="10.576163,9.974884 10.646333,9.977063 10.646698,10.050537 10.646721,10.074483 10.619709,10.074433 10.537271,10.074433 10.537271,10.050119 10.53766,9.974867" style="fill: white" /><polygon type="contour" points="10.074456,9.378914 10.074456,9.752789 10.011494,9.753177 9.977061,9.753177 9.977061,9.378525 10.011494,9.378525" style="fill: white" /><polygon type="contour" points="9.752882,9.752884 9.378817,9.752884 9.378817,9.37882 9.752882,9.37882" style="fill: white" /><polygon type="contour" points="9.753175,10.011495 9.752787,10.074458 9.378912,10.074458 9.378523,10.011495 9.378523,9.977063 9.753175,9.977063" style="fill: white" /><polygon type="contour" points="10.074455,9.977155 10.074481,9.999608 10.074481,10.074483 10.050536,10.074458 9.977155,10.074458 9.977155,10.050537 9.977061,9.977063 10.011494,9.977063" style="fill: white" /><polygon type="contour" points="9.999607,10.218882 10.074481,10.218882 10.074431,10.244803 10.074431,10.323039 9.975269,10.323039 9.975906,10.244803 9.977155,10.21883" style="fill: white" /><polygon type="contour" points="10.244801,10.218915 10.323037,10.218915 10.323037,10.244804 10.322808,10.322811 10.256615,10.323039 10.218913,10.323039 10.21888,10.29914 10.21888,10.218882" style="fill: white" /><polygon type="contour" points="10.323037,10.050119 10.323037,10.074433 10.299138,10.074483 10.21888,10.074483 10.218828,10.050537 10.218828,9.977156 10.244802,9.977131 10.323036,9.977029" style="fill: white" /><polygon type="contour" points="10.322808,9.7551 10.285471,9.75338 10.218828,9.752789 10.218828,9.378914 10.285471,9.378323 10.322808,9.376603" style="fill: white" /><polygon type="contour" points="10.576163,9.377523 10.754297,9.378928 10.771873,9.379035 10.813168,9.378722 10.815682,9.428643 10.81726,9.566201 10.815682,9.703196 10.813168,9.752982 10.754297,9.752775 10.576163,9.754179 10.53766,9.755881 10.53766,9.375822" style="fill: white" /><polygon type="contour" points="10.646354,9.122033 10.646333,9.154641 10.607574,9.154675 10.537562,9.154675 10.537562,9.119758 10.537271,9.057271 10.562151,9.057222 10.646721,9.057222" style="fill: white" /><polygon type="contour" points="10.646821,8.8869 10.646721,8.912823 10.619709,8.912789 10.537271,8.912789 10.537271,8.8869 10.537758,8.808894 10.646703,8.808894" style="fill: white" /><polygon type="contour" points="10.816109,8.490631 10.814055,8.593642 10.76076,8.593642 10.687464,8.593529 10.637571,8.593595 10.538107,8.593595 10.538107,8.554366 10.537449,8.375395 10.537502,8.371607 10.537502,8.344988 10.538269,8.317286 10.572356,8.317728 10.821007,8.310694" style="fill: white" /><polygon type="contour" points="10.287546,8.485149 10.322808,8.484998 10.323145,8.554813 10.323145,8.594042 10.285686,8.594042 10.218913,8.594431 10.21888,8.56955 10.21888,8.48498" style="fill: white" /><polygon type="contour" points="10.074431,8.511992 10.074431,8.594431 10.050116,8.594431 9.977027,8.59414 9.977061,8.555926 9.977061,8.485368 10.050536,8.485003 10.074481,8.48498" style="fill: white" /><polygon type="contour" points="10.074481,8.83256 10.074481,8.912823 10.050535,8.912874 9.977154,8.912874 9.97713,8.8869 9.977027,8.808666 10.011944,8.808666 10.074431,8.808662" style="fill: white" /><polygon type="contour" points="10.322808,8.808894 10.322808,8.846628 10.323037,8.912789 10.299138,8.912823 10.21888,8.912823 10.218913,8.886901 10.218913,8.808662 10.244801,8.808662" style="fill: white" /><polygon type="contour" points="10.244802,9.057271 10.323037,9.057271 10.323037,9.081584 10.323036,9.154675 10.244802,9.154571 10.218828,9.154547 10.21888,9.132096 10.21888,9.057222" style="fill: white" /><polygon type="contour" points="10.074456,9.081165 10.074456,9.154547 10.050535,9.154547 9.977061,9.154641 9.977061,9.12021 9.977155,9.057247 9.999607,9.057222 10.074481,9.057222" style="fill: white" /><polygon type="contour" points="9.753175,9.120209 9.753175,9.154641 9.378523,9.154641 9.378523,9.120209 9.378912,9.057247 9.752787,9.057247" style="fill: white" /><polygon type="contour" points="9.755097,8.808894 9.753378,8.846229 9.752787,8.912874 9.378912,8.912874 9.378321,8.846229 9.378387,8.808893 9.599567,8.808893" style="fill: white" /><polygon type="contour" points="9.566199,8.314476 9.742195,8.31859 9.752989,8.31859 9.752989,8.329767 9.752609,8.348216 9.752773,8.377404 9.755879,8.594042 9.377592,8.594042 9.37752,8.555538 9.378926,8.377404 9.37909,8.348216 9.378712,8.329767 9.378712,8.31859 9.473645,8.314264" style="fill: white" /><polygon type="contour" points="9.12203,8.485346 9.154638,8.485368 9.156432,8.524125 9.156432,8.59414 9.119754,8.59414 9.057269,8.594431 9.05722,8.56955 9.05722,8.48498" style="fill: white" /><polygon type="contour" points="8.912821,8.48498 8.912787,8.511992 8.912787,8.594431 8.886898,8.594431 8.808892,8.593944 8.808892,8.484998 8.886898,8.484881" style="fill: white" /><polygon type="contour" points="8.594041,9.377595 8.594041,9.755881 8.555537,9.75418 8.377402,9.752774 8.359827,9.752669 8.318533,9.752982 8.316018,9.70306 8.31444,9.565501 8.316018,9.428508 8.318533,9.378722 8.377403,9.378929 8.555537,9.377523" style="fill: white" /><polygon type="contour" points="8.511991,9.057271 8.59443,9.057271 8.59443,9.082809 8.594041,9.158609 8.555537,9.15682 8.485367,9.154641 8.485001,9.081166 8.484978,9.057222" style="fill: white" /><polygon type="contour" points="8.593943,8.846628 8.59443,8.912789 8.569549,8.912823 8.484978,8.912823 8.485148,8.844155 8.484997,8.808894 8.593943,8.808894" style="fill: white" /><polygon type="contour" points="8.912821,8.83256 8.912821,8.912823 8.886898,8.912789 8.80866,8.912789 8.80866,8.8869 8.808892,8.808894 8.875085,8.808666 8.886899,8.808662 8.912787,8.808662" style="fill: white" /><polygon type="contour" points="9.156432,8.808665 9.155794,8.8869 9.154544,8.912874 9.132093,8.912823 9.05722,8.912823 9.057269,8.8869 9.057269,8.808662 9.082807,8.808662" style="fill: white" /><polygon type="contour" points="9.081163,9.057247 9.154544,9.057247 9.154544,9.081166 9.154638,9.154641 9.120207,9.154641 9.057245,9.154547 9.05722,9.132096 9.05722,9.057222" style="fill: white" /><polygon type="contour" points="8.912872,9.081165 8.912872,9.154546 8.886898,9.155796 8.808664,9.156434 8.80866,9.082809 8.80866,9.057271 8.832559,9.057222 8.912821,9.057222" style="fill: white" /><polygon type="contour" points="8.912872,9.378914 8.912872,9.752789 8.846228,9.75338 8.808892,9.7551 8.808892,9.378389 8.846228,9.378323" style="fill: white" /><polygon type="contour" points="9.154638,9.753177 9.120206,9.753177 9.057245,9.752789 9.057245,9.378914 9.120206,9.378525 9.154638,9.378525" style="fill: white" /><polygon type="contour" points="9.154638,10.011494 9.154544,10.074458 9.132093,10.074483 9.05722,10.074483 9.057245,10.050538 9.057245,9.977156 9.081163,9.977156 9.154638,9.977063" style="fill: white" /><polygon type="contour" points="9.154568,10.244804 9.154672,10.323039 9.119754,10.323039 9.057269,10.32304 9.05722,10.29914 9.05722,10.218882 9.081164,10.21883 9.154544,10.21883" style="fill: white" /><polygon type="contour" points="8.912787,10.244804 8.912787,10.323039 8.886899,10.323039 8.808892,10.32281 8.808892,10.285074 8.80866,10.218915 8.832559,10.218882 8.912821,10.218882" style="fill: white" /><polygon type="contour" points="8.886898,9.977131 8.912872,9.977156 8.912821,9.999607 8.912821,10.074483 8.886899,10.074433 8.80866,10.074433 8.80866,10.050119 8.808664,9.977029" style="fill: white" /><polygon type="contour" points="8.594139,10.011945 8.59443,10.074433 8.569549,10.074483 8.484978,10.074483 8.485345,10.009671 8.485367,9.977063 8.524125,9.977029 8.594139,9.977029" style="fill: white" /><polygon type="contour" points="8.51199,10.218915 8.59443,10.218915 8.59443,10.244803 8.594041,10.323147 8.55481,10.323147 8.484997,10.322811 8.484879,10.244804 8.484978,10.218882" style="fill: white" /><polygon type="contour" points="8.554364,10.538109 8.593594,10.538109 8.593594,10.577337 8.594252,10.756308 8.594199,10.760096 8.594199,10.786716 8.593432,10.814419 8.559344,10.813977 8.310692,10.821009 8.31559,10.641073 8.317645,10.538062 8.430951,10.538062" style="fill: white" />
</svg>
