<svg width="19.131698" height="19.131699">
<polygon type="contour" points="4.718701,4.309901 4.961597,4.309901 4.961598,4.301471 5.0449,4.301471 5.0449,4.309901 5.287801,4.309901 5.287801,4.301471 5.370401,4.301471 5.370401,4.309901 5.613301,4.309901 5.613301,4.301471 5.657106,4.301472 5.696601,4.301472 5.696601,4.309901 5.9395,4.309901 5.9395,4.301471 6.022799,4.301471 6.022799,4.309901 6.265,4.309901 6.265,4.301471 6.3483,4.301471 6.3483,4.309901 6.591201,4.309901 6.591201,4.301471 6.6745,4.301471 6.6745,4.309901 6.917399,4.309901 6.917399,4.301471 6.999999,4.301471 6.999999,4.309901 7.2429,4.309901 7.2429,4.301471 7.326199,4.301471 7.326199,4.309901 7.5691,4.309901 7.5691,4.301471 7.6524,4.301471 7.6524,4.309901 7.894599,4.309901 7.894599,4.301471 7.977898,4.301471 7.977898,4.309901 8.220799,4.309901 8.220799,4.301471 8.304099,4.301471 8.304099,4.309901 8.5463,4.309901 8.5463,4.301471 8.6296,4.301471 8.6296,4.309901 8.872499,4.309901 8.872499,4.301471 8.955798,4.301471 8.955798,4.309901 9.198699,4.309901 9.198699,4.301471 9.281299,4.301471 9.281299,4.309901 9.524199,4.309901 9.524199,4.301471 9.607499,4.301471 9.607499,4.309901 9.850398,4.309901 9.850398,4.301471 9.933,4.301471 9.933,4.309901 10.175899,4.309901 10.175899,4.301471 10.259202,4.301471 10.259202,4.309901 10.502101,4.309901 10.502101,4.301471 10.585401,4.301471 10.585401,4.309901 10.8276,4.309901 10.8276,4.301471 10.910901,4.301471 10.910901,4.309901 11.153802,4.309901 11.153802,4.301471 11.237102,4.301471 11.237102,4.309901 11.4793,4.309901 11.4793,4.301471 11.5626,4.301471 11.5626,4.309901 11.805501,4.309901 11.805501,4.301471 11.888801,4.301471 11.888801,4.309901 12.131701,4.309901 12.131701,4.301471 12.214301,4.301471 12.214301,4.309901 12.4572,4.309901 12.4572,4.301471 12.5405,4.301471 12.5405,4.309901 12.783401,4.309901 12.783401,4.301471 12.8667,4.301471 12.8667,4.309901 13.108901,4.309901 13.108901,4.301471 13.1922,4.301471 13.192201,4.309901 13.435099,4.309901 13.435101,4.301472 13.478904,4.301471 13.518399,4.301471 13.518399,4.309901 13.7613,4.309901 13.7613,4.301471 13.8439,4.301471 13.8439,4.309901 14.086801,4.309901 14.0868,4.301472 14.130605,4.301472 14.1701,4.301471 14.1701,4.309901 14.412999,4.309901 14.412999,4.301471 14.496299,4.301471 14.496299,4.309901 14.7385,4.309901 14.7385,4.301471 14.821799,4.301471 14.821799,4.309293 14.829897,4.309569 14.829897,4.353375 14.830229,4.393202 14.821799,4.393202 14.821799,4.635401 14.830228,4.635401 14.830229,4.679207 14.830229,4.718703 14.821799,4.718703 14.821799,4.961601 14.830229,4.961601 14.830229,5.044902 14.821799,5.044902 14.821799,5.287802 14.830229,5.287802 14.830229,5.370402 14.821799,5.370402 14.821799,5.613302 14.830229,5.613302 14.830229,5.696602 14.821799,5.696602 14.821799,5.939502 14.830229,5.939502 14.830229,6.022802 14.821799,6.022802 14.821799,6.265002 14.830229,6.265002 14.830229,6.348302 14.821799,6.348302 14.821799,6.591202 14.830229,6.591202 14.830229,6.674501 14.821799,6.674501 14.821799,6.917402 14.830229,6.917402 14.830229,7.000002 14.821799,7.000002 14.821799,7.242902 14.830229,7.242902 14.830229,7.326201 14.821799,7.326201 14.821799,7.569101 14.830229,7.569101 14.830229,7.652401 14.821799,7.652401 14.821799,7.894602 14.830229,7.894602 14.830229,7.977901 14.821799,7.977901 14.821799,8.220801 14.830229,8.220801 14.830229,8.304101 14.821799,8.304101 14.821799,8.546302 14.830229,8.546302 14.830229,8.629601 14.821799,8.629601 14.821799,8.872501 14.830229,8.872501 14.830229,8.955801 14.821799,8.955801 14.821799,9.198701 14.830229,9.198701 14.830229,9.281301 14.821799,9.281301 14.821799,9.524201 14.830229,9.524201 14.830153,9.564127 14.830153,9.607501 14.821799,9.607501 14.821799,9.850401 14.830229,9.850401 14.830229,9.933001 14.821799,9.933001 14.821799,10.1759 14.830229,10.1759 14.830229,10.259203 14.821799,10.259203 14.821799,10.502103 14.830229,10.502103 14.830229,10.585402 14.821799,10.585402 14.821799,10.8276 14.830229,10.8276 14.830229,10.910903 14.821799,10.910903 14.821799,11.153803 14.830229,11.153803 14.830229,11.237103 14.821799,11.237103 14.821799,11.479303 14.830229,11.479303 14.830229,11.562603 14.821799,11.562603 14.821799,11.805503 14.830229,11.805503 14.830229,11.888803 14.821799,11.888803 14.821799,12.131702 14.830229,12.131702 14.830229,12.214302 14.821799,12.214302 14.821799,12.457203 14.830229,12.457203 14.830229,12.540503 14.821799,12.540503 14.821799,12.783402 14.830229,12.783402 14.830229,12.866702 14.821799,12.866702 14.821799,13.108902 14.830229,13.108902 14.830229,13.192202 14.821799,13.192202 14.821799,13.435102 14.830229,13.435102 14.830229,13.518402 14.821799,13.518402 14.821799,13.761302 14.830229,13.761302 14.830229,13.843903 14.821799,13.843903 14.821799,14.086802 14.830229,14.086802 14.830229,14.170101 14.821799,14.170101 14.821799,14.413002 14.830229,14.413002 14.830229,14.496302 14.821799,14.496302 14.821799,14.738503 14.830229,14.738503 14.830229,14.821802 14.822408,14.821802 14.822131,14.8299 14.778327,14.8299 14.7385,14.830231 14.7385,14.821802 14.496299,14.821802 14.496299,14.830231 14.412999,14.830231 14.412999,14.821802 14.1701,14.821802 14.1701,14.830231 14.086801,14.830231 14.086801,14.821802 13.8439,14.821802 13.8439,14.830231 13.7613,14.830231 13.7613,14.821802 13.518399,14.821802 13.518399,14.830231 13.4351,14.830231 13.4351,14.821802 13.192201,14.821802 13.192201,14.830231 13.108901,14.830231 13.108901,14.821802 12.8667,14.821802 12.8667,14.830231 12.783401,14.830231 12.783401,14.821802 12.5405,14.821802 12.5405,14.830231 12.4572,14.830231 12.4572,14.821802 12.214301,14.821802 12.214301,14.830231 12.131701,14.830231 12.131701,14.821802 11.888801,14.821802 11.888801,14.830231 11.805501,14.830231 11.805501,14.821802 11.5626,14.821802 11.5626,14.830232 11.518794,14.830232 11.4793,14.830231 11.4793,14.821802 11.237102,14.821802 11.237102,14.830231 11.153802,14.830231 11.153802,14.821802 10.910901,14.821802 10.910901,14.830231 10.8276,14.830231 10.8276,14.821802 10.585401,14.821802 10.585401,14.830231 10.502101,14.830231 10.502101,14.821802 10.259202,14.821802 10.259202,14.830231 10.175899,14.830231 10.175899,14.821802 9.933,14.821802 9.933,14.830231 9.850398,14.830231 9.850398,14.821802 9.607499,14.821802 9.607499,14.830231 9.567572,14.830155 9.524199,14.829991 9.524199,14.821802 9.281299,14.821802 9.281299,14.830231 9.198699,14.830231 9.198699,14.821802 8.955798,14.821802 8.955798,14.830231 8.872499,14.830231 8.872499,14.821802 8.6296,14.821802 8.6296,14.830231 8.5463,14.830231 8.5463,14.821802 8.304099,14.821802 8.304099,14.830231 8.220799,14.830231 8.220799,14.821802 7.977898,14.821802 7.977898,14.830231 7.894599,14.830231 7.894599,14.821802 7.6524,14.821802 7.6524,14.830231 7.608594,14.830231 7.5691,14.830232 7.5691,14.821802 7.326199,14.821802 7.326199,14.830231 7.2429,14.830231 7.2429,14.821802 6.999999,14.821802 6.999999,14.830231 6.917399,14.830231 6.917399,14.821802 6.6745,14.821802 6.6745,14.830231 6.591201,14.830231 6.591201,14.821801 6.3483,14.821802 6.3483,14.830231 6.265,14.830231 6.265,14.821802 6.022799,14.821802 6.022799,14.830231 5.9395,14.830231 5.9395,14.821802 5.696601,14.821802 5.696601,14.830231 5.613301,14.830231 5.613301,14.821802 5.3704,14.821802 5.3704,14.830231 5.287801,14.830231 5.287801,14.821802 5.0449,14.821802 5.0449,14.830231 4.961599,14.830231 4.961599,14.821802 4.718701,14.821802 4.718701,14.830231 4.6354,14.830231 4.6354,14.821802 4.393201,14.821802 4.393201,14.830231 4.309899,14.830231 4.309899,14.82241 4.301801,14.822133 4.301801,14.778328 4.301469,14.738503 4.309899,14.738503 4.309899,14.496302 4.301469,14.496302 4.301469,14.413002 4.309899,14.413002 4.309899,14.170101 4.301469,14.170101 4.301469,14.086802 4.309899,14.086802 4.309899,13.843903 4.301469,13.843903 4.301469,13.761302 4.309899,13.761302 4.309899,13.518402 4.301469,13.518402 4.30147,13.474596 4.30147,13.435102 4.309899,13.435102 4.309899,13.192202 4.301469,13.192202 4.301469,13.108902 4.309899,13.108902 4.309899,12.866702 4.301469,12.866702 4.301469,12.783402 4.309899,12.783402 4.309899,12.540503 4.301469,12.540503 4.301469,12.457203 4.309899,12.457203 4.309899,12.214302 4.301469,12.214302 4.301469,12.131702 4.309899,12.131702 4.309899,11.888803 4.301469,11.888803 4.301469,11.805503 4.309899,11.805503 4.309899,11.562603 4.301469,11.562603 4.301469,11.479303 4.309899,11.479303 4.309899,11.237103 4.301469,11.237103 4.301469,11.153803 4.309899,11.153803 4.309899,10.910903 4.301469,10.910903 4.301469,10.8276 4.309899,10.8276 4.309899,10.585402 4.301469,10.585402 4.301469,10.502103 4.309899,10.502103 4.309899,10.259203 4.301469,10.259203 4.301469,10.1759 4.309899,10.1759 4.309897,9.933001 4.301469,9.933001 4.301469,9.850401 4.309899,9.850401 4.309899,9.607501 4.301469,9.607501 4.301545,9.567574 4.301545,9.524201 4.309899,9.524201 4.309898,9.281301 4.301469,9.281301 4.301469,9.198701 4.309899,9.198701 4.309899,8.955801 4.301469,8.955801 4.301469,8.872501 4.309899,8.872501 4.309899,8.629601 4.301469,8.629601 4.301469,8.546302 4.309899,8.546302 4.309899,8.304101 4.301469,8.304101 4.301469,8.220801 4.309899,8.220801 4.309899,7.977901 4.301469,7.977901 4.301469,7.894602 4.309899,7.894602 4.309899,7.652401 4.301469,7.652401 4.301469,7.569101 4.309899,7.569101 4.309899,7.326201 4.301469,7.326201 4.301469,7.242902 4.309899,7.242902 4.309899,7.000002 4.301469,7.000002 4.301469,6.917402 4.309899,6.917402 4.309899,6.674501 4.301469,6.674501 4.301469,6.591202 4.309899,6.591202 4.309899,6.348302 4.301469,6.348302 4.301469,6.265002 4.309899,6.265002 4.309899,6.022802 4.301469,6.022802 4.301469,5.939502 4.309899,5.939502 4.309899,5.696602 4.30147,5.696602 4.301469,5.652796 4.301469,5.613302 4.309899,5.613302 4.309899,5.370402 4.301469,5.370402 4.301469,5.287802 4.309899,5.287802 4.309899,5.044902 4.301469,5.044902 4.301469,4.961601 4.309899,4.961601 4.309899,4.718703 4.301469,4.718703 4.301469,4.635401 4.309899,4.635401 4.309899,4.393202 4.301469,4.393202 4.301469,4.309901 4.309291,4.309901 4.309567,4.301803 4.353372,4.301803 4.393201,4.301471 4.393201,4.309901 4.6354,4.309901 4.6354,4.301471 4.718701,4.301471" style="fill: white" /><polygon type="hole" points="6.878282,6.701543 6.845817,6.701543 6.703945,6.70392 6.702742,6.759855 6.701541,6.82478 6.701541,6.838006 6.701552,6.852006 6.701803,6.878499 6.701362,6.89477 6.701541,6.900525 6.701541,7.321819 6.702143,7.393356 6.702143,7.710169 6.702668,7.760761 6.702742,7.814169 6.702742,8.129178 6.703344,8.200714 6.703344,8.621384 6.703779,8.659965 6.703945,8.722378 6.703945,9.127355 6.704547,9.198892 6.704547,9.515102 6.704889,9.532914 6.705171,9.566201 6.705364,9.593193 6.704889,9.598934 6.704547,9.616699 6.704547,9.93291 6.703945,10.004447 6.703945,10.409325 6.703779,10.471735 6.703344,10.510321 6.703344,10.82533 6.702742,10.896867 6.702742,11.317534 6.702668,11.370942 6.702143,11.421534 6.702143,11.738347 6.701541,11.809883 6.701541,12.231175 6.701362,12.236933 6.701803,12.253204 6.701552,12.279199 6.703957,12.427755 6.759854,12.428358 6.766465,12.428959 6.835476,12.429845 6.852004,12.43015 6.878496,12.4299 6.894768,12.43034 6.900523,12.430161 7.321816,12.430161 7.393355,12.42956 7.710166,12.42956 7.760761,12.429033 7.814168,12.428959 8.234834,12.428959 8.306373,12.428358 8.621382,12.428358 8.659964,12.427922 8.722376,12.427755 9.127351,12.427755 9.19889,12.427154 9.515102,12.427154 9.53291,12.426813 9.566199,12.42653 9.593192,12.426339 9.598931,12.426813 9.616697,12.427154 9.932908,12.427154 10.004447,12.427755 10.409324,12.427755 10.471733,12.427922 10.510318,12.428358 10.825327,12.428358 10.896866,12.428959 11.317531,12.428959 11.370938,12.429033 11.421533,12.42956 11.738345,12.42956 11.809883,12.430161 12.231174,12.430161 12.236932,12.43034 12.253203,12.429899 12.279197,12.43015 12.333371,12.428959 12.427753,12.427755 12.428356,12.375455 12.429843,12.296222 12.430148,12.279198 12.429897,12.253204 12.430336,12.236933 12.430159,12.231175 12.430159,11.798122 12.429558,11.726584 12.429558,11.409772 12.428958,11.305772 12.428958,10.814634 12.428357,10.743094 12.428357,10.428086 12.427754,10.32709 12.427754,10.01028 12.427153,9.93874 12.427153,9.616699 12.426812,9.598934 12.426527,9.566201 12.426336,9.538751 12.426812,9.532914 12.427153,9.515103 12.427153,9.198893 12.427754,9.127354 12.427754,8.810543 12.428357,8.709548 12.428357,8.394539 12.428958,8.323 12.428958,8.007992 12.429558,7.903992 12.429558,7.405119 12.430159,7.33358 12.430159,6.900525 12.430338,6.89477 12.429898,6.878499 12.430148,6.852007 12.428023,6.703679 12.296221,6.701858 12.279198,6.701552 12.253203,6.701805 12.236931,6.701364 12.231173,6.701543 11.798121,6.701543 11.726583,6.702144 11.40977,6.702144 11.30577,6.702745 10.814632,6.702745 10.743092,6.703346 10.428084,6.703346 10.32709,6.703946 10.010278,6.703946 9.938739,6.70455 9.616697,6.70455 9.598931,6.704891 9.566199,6.705173 9.538748,6.705365 9.532911,6.704891 9.515102,6.70455 9.19889,6.70455 9.127351,6.703946 8.804609,6.703946 8.703615,6.703346 8.388607,6.703346 8.317068,6.702745 7.825931,6.702745 7.721928,6.702144 7.405117,6.702144 7.333578,6.701543 6.900522,6.701543 6.888227,6.70116" style="fill: black" />
</svg>
