<svg width="19.131698" height="19.131699">
<polygon type="contour" points="9.605334,9.345235 9.617126,9.347652 9.675775,9.371801 9.684214,9.375544 9.694015,9.382961 9.727267,9.412686 9.755136,9.446788 9.762166,9.456736 9.778165,9.4978 9.7825,9.510176 9.786584,9.533009 9.79004,9.563132 9.790341,9.572192 9.780259,9.633683 9.779154,9.638352 9.778506,9.640443 9.776411,9.644809 9.744905,9.697733 9.731049,9.714666 9.714497,9.72891 9.689919,9.749392 9.656217,9.772072 9.651831,9.774335 9.649706,9.775346 9.645301,9.776481 9.597002,9.785599 9.574607,9.786397 9.546062,9.787811 9.527619,9.785505 9.491803,9.777767 9.481462,9.77352 9.474789,9.770672 9.434583,9.747697 9.428805,9.743426 9.41968,9.734482 9.38616,9.698357 9.364109,9.66518 9.361628,9.661059 9.360647,9.659095 9.3558,9.644002 9.346332,9.608293 9.34464,9.600276 9.342549,9.579793 9.342109,9.549419 9.342647,9.540414 9.352757,9.50221 9.360674,9.475251 9.365862,9.464559 9.390189,9.42947 9.411778,9.402965 9.416304,9.399072 9.441791,9.379956 9.450566,9.373612 9.45791,9.369993 9.492319,9.356763 9.513103,9.350221 9.534658,9.347527 9.566776,9.343151" style="fill: white" />
</svg>
