<svg width="19.131698" height="19.131699">
<polygon type="contour" points="10.545499,14.972287 10.510962,14.972287 10.508689,14.972232 10.462899,14.972232 10.462899,14.607689 10.545499,14.607689" style="fill: white" /><polygon type="contour" points="8.668799,14.972288 8.620736,14.972286 8.5862,14.972286 8.5862,14.607689 8.668799,14.607689" style="fill: white" /><polygon type="contour" points="8.277415,12.762106 8.277526,12.812354 8.277526,12.931174 8.277415,12.968817 8.258251,12.968817 8.208259,12.968703 8.110796,12.968703 8.039586,12.968817 8.039586,12.949652 8.039476,12.931175 8.039433,12.870834 8.039433,12.762502 8.110796,12.762059 8.208258,12.762059" style="fill: white" /><polygon type="contour" points="8.668799,12.968817 8.5862,12.968817 8.5862,12.761365 8.634262,12.760957 8.668799,12.760957" style="fill: white" /><polygon type="contour" points="8.668799,13.907403 8.5862,13.907403 8.5862,13.669689 8.668799,13.669689" style="fill: white" /><polygon type="contour" points="8.668799,14.298903 8.5862,14.298903 8.5862,14.215603 8.668799,14.215603" style="fill: white" /><polygon type="contour" points="8.277415,14.298903 8.039586,14.298903 8.039586,14.215603 8.277415,14.215603" style="fill: white" /><polygon type="contour" points="8.110796,14.607803 8.208259,14.607803 8.277415,14.607689 8.277415,14.626852 8.2773,14.677872 8.2773,14.836322 8.277415,14.972124 8.208258,14.97199 8.201898,14.97199 8.178245,14.972247 8.154893,14.972275 8.124746,14.971952 8.118599,14.97199 8.110795,14.97199 8.039586,14.972124 8.03928,14.836323 8.03928,14.677872 8.039586,14.607689 8.059318,14.607689" style="fill: white" /><polygon type="contour" points="7.730799,14.972288 7.69597,14.972288 7.693791,14.97213 7.6475,14.972129 7.6475,14.607689 7.730799,14.607689" style="fill: white" /><polygon type="contour" points="5.854098,14.972287 5.770798,14.972287 5.770798,14.607689 5.854098,14.607689" style="fill: white" /><polygon type="contour" points="4.9161,14.972287 4.832799,14.972287 4.832799,14.607689 4.9161,14.607689" style="fill: white" /><polygon type="contour" points="4.295377,14.607802 4.453829,14.607802 4.524012,14.607689 4.524012,14.626851 4.523899,14.677873 4.523899,14.836324 4.524012,14.972124 4.508854,14.972105 4.453829,14.972269 4.4365,14.972445 4.432657,14.972425 4.367641,14.972425 4.35679,14.972269 4.302346,14.972239 4.302346,15.136574 4.30235,15.15481 4.302358,15.162543 4.300429,15.162547 4.298474,15.162883 3.969162,15.162539 3.969162,15.086689 3.969231,15.055832 3.969008,14.829492 4.009852,14.829649 4.022746,14.829475 4.159816,14.829661 4.159434,14.75748 4.159434,14.695202 4.159433,14.677872 4.159577,14.607688" style="fill: white" /><polygon type="contour" points="4.524012,14.298903 4.159415,14.298903 4.159415,14.215603 4.524012,14.215603" style="fill: white" /><polygon type="contour" points="4.524012,10.87345 4.523899,10.923443 4.523899,11.020907 4.524012,11.092117 4.504848,11.092117 4.453829,11.092422 4.295378,11.092422 4.159578,11.092117 4.159712,11.020907 4.159712,11.013103 4.159748,11.006956 4.159712,10.995904 4.159712,10.923442 4.159577,10.854287 4.295378,10.854401 4.453829,10.854401 4.524012,10.854287" style="fill: white" /><polygon type="contour" points="4.524012,10.545501 4.159415,10.545501 4.159415,10.513887 4.159122,10.510963 4.159157,10.510956 4.159157,10.462901 4.524012,10.462901" style="fill: white" /><polygon type="contour" points="4.523899,7.17149 4.523899,7.2186 4.5239,7.268531 4.524012,7.338714 4.504848,7.338714 4.453829,7.339021 4.295377,7.339021 4.159577,7.338714 4.159433,7.268531 4.159355,7.261801 4.159355,7.178501 4.159433,7.17149 4.159577,7.101001 4.295378,7.101002 4.453829,7.101002 4.524012,7.101001" style="fill: white" /><polygon type="contour" points="4.9161,7.338714 4.832799,7.338714 4.832799,7.101001 4.9161,7.101001" style="fill: white" /><polygon type="contour" points="4.9161,7.7308 4.832799,7.7308 4.832799,7.647501 4.9161,7.647501" style="fill: white" /><polygon type="contour" points="4.524012,7.7308 4.159415,7.7308 4.159415,7.698894 4.159122,7.695971 4.159261,7.695942 4.159261,7.647501 4.524012,7.647501" style="fill: white" /><polygon type="contour" points="4.524012,8.039587 4.523899,8.110796 4.523899,8.20826 4.524012,8.277417 4.504848,8.277417 4.453829,8.277303 4.295379,8.277303 4.159578,8.277417 4.159712,8.20826 4.159712,8.201901 4.159256,8.178246 4.159032,8.154896 4.159749,8.124747 4.159712,8.118602 4.159712,8.110797 4.159577,8.039587 4.295378,8.039282 4.453828,8.039282" style="fill: white" /><polygon type="contour" points="4.9161,8.277417 4.8328,8.277417 4.8328,8.258252 4.832799,8.20826 4.832799,8.039587 4.9161,8.039587" style="fill: white" /><polygon type="contour" points="4.9161,8.668801 4.832799,8.668801 4.832799,8.586201 4.9161,8.586201" style="fill: white" /><polygon type="contour" points="4.524012,8.668801 4.258957,8.668801 4.258957,8.586201 4.524012,8.586201" style="fill: white" /><polygon type="contour" points="4.524012,8.996752 4.5239,9.048191 4.523899,9.098122 4.523899,9.145232 4.524012,9.215415 4.504849,9.215415 4.453828,9.215721 4.295377,9.215721 4.159577,9.215415 4.159433,9.145231 4.159355,9.138502 4.159315,9.132639 4.159315,9.055202 4.159418,9.055202 4.159577,8.977588 4.295378,8.977702 4.453829,8.977702 4.524012,8.977588" style="fill: white" /><polygon type="contour" points="4.9161,9.215415 4.8328,9.215415 4.8328,9.196251 4.832799,9.145231 4.832799,8.977588 4.9161,8.977588" style="fill: white" /><polygon type="contour" points="4.9161,9.607501 4.832799,9.607501 4.832799,9.524201 4.9161,9.524201" style="fill: white" /><polygon type="contour" points="4.524012,9.607501 4.159415,9.607501 4.159415,9.559031 4.159285,9.524201 4.524012,9.524201" style="fill: white" /><polygon type="contour" points="4.524012,9.916287 4.523899,9.986471 4.523899,10.083513 4.524012,10.154117 4.504849,10.154117 4.453828,10.154002 4.295378,10.154002 4.159577,10.154117 4.159433,10.083513 4.159355,10.076501 4.159355,9.993201 4.159433,9.986471 4.159577,9.916287 4.295378,9.915982 4.453828,9.915982" style="fill: white" /><polygon type="contour" points="4.9161,10.154117 4.832799,10.154117 4.832799,9.916287 4.9161,9.916287" style="fill: white" /><polygon type="contour" points="4.9161,10.545501 4.832799,10.545501 4.832799,10.462901 4.9161,10.462901" style="fill: white" /><polygon type="contour" points="5.462014,11.414475 5.462013,11.484203 5.2243,11.484203 5.2243,11.400901 5.462014,11.400901" style="fill: white" /><polygon type="contour" points="5.462013,11.79299 5.462013,11.812152 5.462319,11.863172 5.462319,11.913102 5.462013,11.932266 5.462014,12.030703 5.44285,12.030703 5.39183,12.030702 5.294788,12.030702 5.2243,12.030703 5.224299,11.960212 5.224299,11.913101 5.2243,11.863172 5.2243,11.79299 5.243462,11.79299 5.294788,11.792683 5.391829,11.792683" style="fill: white" /><polygon type="contour" points="4.245631,12.338624 4.362793,12.338829 4.367641,12.338748 4.432657,12.338748 4.4365,12.338725 4.453829,12.338901 4.524012,12.338901 4.524012,12.421615 4.50477,12.421615 4.453829,12.421921 4.436501,12.422025 4.432657,12.422048 4.430028,12.422025 4.357309,12.422025 4.159552,12.421462 4.159368,12.382138 4.159195,12.338574" style="fill: white" /><polygon type="contour" points="4.523899,12.848703 4.524123,12.931174 4.524011,12.968817 4.504849,12.968817 4.453828,12.968702 4.295378,12.968702 4.159578,12.968817 4.159293,12.908121 4.022746,12.907974 3.969008,12.907994 3.968946,12.881962 3.968946,12.574854 4.016459,12.574767 4.022747,12.574774 4.12892,12.574969 4.356756,12.574887 4.35731,12.574796 4.411238,12.574769 4.430029,12.574797 4.432658,12.574925 4.436501,12.574768 4.453829,12.574769 4.480142,12.574739 4.523899,12.574739" style="fill: white" /><polygon type="contour" points="4.9161,12.968817 4.832799,12.968817 4.832799,12.574769 4.9161,12.574769" style="fill: white" /><polygon type="contour" points="4.916101,13.31243 4.9161,13.360903 4.832799,13.360903 4.832799,13.2776 4.916101,13.2776" style="fill: white" /><polygon type="contour" points="4.524012,13.360903 4.159415,13.360903 4.159415,13.326072 4.159416,13.2776 4.524012,13.2776" style="fill: white" /><polygon type="contour" points="4.524012,13.669689 4.524012,13.688851 4.523899,13.739871 4.523899,13.836913 4.524012,13.907403 4.504848,13.907403 4.453829,13.907402 4.295378,13.907402 4.159577,13.907403 4.159433,13.836913 4.159293,13.829901 4.159293,13.763286 4.159354,13.746602 4.159433,13.739872 4.159577,13.669689 4.295377,13.669383 4.453829,13.669383" style="fill: white" /><polygon type="contour" points="4.9161,13.907403 4.832799,13.907403 4.832799,13.669689 4.9161,13.669689" style="fill: white" /><polygon type="contour" points="4.9161,14.298903 4.832799,14.298903 4.832799,14.215603 4.9161,14.215603" style="fill: white" /><polygon type="contour" points="5.294789,14.607802 5.39183,14.607802 5.462013,14.607689 5.462013,14.626852 5.462319,14.677872 5.462319,14.836323 5.462013,14.972124 5.446944,14.972105 5.391829,14.972268 5.3851,14.972348 5.318426,14.972348 5.301798,14.97241 5.294788,14.972268 5.2243,14.972124 5.224299,14.836324 5.224299,14.607689 5.243462,14.607689" style="fill: white" /><polygon type="contour" points="5.462013,14.298903 5.2243,14.298903 5.2243,14.215603 5.462013,14.215603" style="fill: white" /><polygon type="contour" points="6.493602,13.277601 6.556746,13.277601 6.556746,13.360903 6.162884,13.360903 6.162884,13.2776 6.459918,13.2776" style="fill: white" /><polygon type="contour" points="6.793127,13.360903 6.709538,13.360903 6.709538,13.2776 6.793127,13.2776" style="fill: white" /><polygon type="contour" points="6.556963,13.713558 6.556933,13.739871 6.556854,13.746602 6.556932,13.763286 6.556932,13.836912 6.556962,13.907403 6.162884,13.907403 6.162884,13.888239 6.162999,13.836912 6.162999,13.739871 6.162884,13.669689 6.182048,13.669689 6.200526,13.669578 6.282999,13.669625 6.327015,13.66954 6.556963,13.66954" style="fill: white" /><polygon type="contour" points="6.792798,13.739871 6.792938,13.746601 6.792939,13.763286 6.792939,13.829902 6.792798,13.836913 6.792798,13.907403 6.709385,13.907403 6.709385,13.888276 6.709498,13.836912 6.709498,13.739871 6.709385,13.669689 6.792798,13.669689" style="fill: white" /><polygon type="contour" points="7.338713,13.669689 7.338713,13.688852 7.339019,13.739872 7.339019,13.836912 7.338713,13.907403 7.26853,13.907402 7.171489,13.907402 7.101,13.907403 7.101,13.669689 7.120163,13.669689 7.17149,13.669383 7.26853,13.669383" style="fill: white" /><polygon type="contour" points="7.338713,13.360903 7.101,13.360903 7.101,13.2776 7.338713,13.2776" style="fill: white" /><polygon type="contour" points="7.730799,13.360903 7.6475,13.360903 7.6475,13.2776 7.730799,13.2776" style="fill: white" /><polygon type="contour" points="7.730799,12.968817 7.6475,12.968817 7.6475,12.762766 7.730799,12.762766" style="fill: white" /><polygon type="contour" points="7.338824,12.813303 7.338824,12.931174 7.338712,12.968817 7.268529,12.969122 7.171489,12.969122 7.101,12.968817 7.101,12.949652 7.100776,12.931175 7.101,12.909158 7.101,12.763847 7.116045,12.763759 7.171489,12.764053 7.178499,12.76426 7.245172,12.7637 7.26853,12.763633 7.338713,12.763505" style="fill: white" /><polygon type="contour" points="6.793127,12.764771 6.793127,12.854165 6.792985,12.877478 6.79309,12.907974 6.792798,12.931175 6.792798,12.968817 6.709385,12.968817 6.709385,12.949575 6.709498,12.931175 6.709498,12.907974 6.709719,12.869898 6.709539,12.764636 6.748478,12.764594" style="fill: white" /><polygon type="contour" points="6.367107,12.382852 6.367067,12.421462 6.287852,12.421462 6.261803,12.421761 6.223726,12.421911 6.200527,12.421726 6.162884,12.421615 6.162884,12.338901 6.200527,12.338901 6.223726,12.33861 6.254223,12.338715 6.277535,12.338574 6.36693,12.338574" style="fill: white" /><polygon type="contour" points="6.288083,12.574871 6.319964,12.574857 6.333888,12.574769 6.366202,12.574769 6.367408,12.651776 6.368073,12.679385 6.369578,12.762373 6.452318,12.763629 6.479924,12.764293 6.556798,12.765357 6.556844,12.811736 6.55683,12.843617 6.556963,12.873069 6.556963,12.968965 6.327016,12.968965 6.282998,12.968881 6.200526,12.968927 6.162884,12.968817 6.162884,12.949652 6.162774,12.931174 6.16282,12.848703 6.162737,12.804685 6.162737,12.574739 6.258631,12.574739" style="fill: white" /><polygon type="contour" points="5.854098,12.968817 5.770798,12.968817 5.770798,12.574769 5.854098,12.574769" style="fill: white" /><polygon type="contour" points="5.854098,13.360903 5.770798,13.360903 5.770798,13.2776 5.854098,13.2776" style="fill: white" /><polygon type="contour" points="5.462013,13.347327 5.462013,13.360903 5.2243,13.360903 5.2243,13.2776 5.462014,13.2776" style="fill: white" /><polygon type="contour" points="5.462013,13.669689 5.462013,13.688851 5.462319,13.739871 5.462319,13.836912 5.462013,13.907403 5.442849,13.907403 5.39183,13.907402 5.294788,13.907402 5.2243,13.907403 5.224299,13.836913 5.224299,13.669689 5.294789,13.669383 5.39183,13.669383" style="fill: white" /><polygon type="contour" points="5.854098,13.907403 5.770798,13.907403 5.770798,13.669689 5.854098,13.669689" style="fill: white" /><polygon type="contour" points="5.854098,14.298903 5.770798,14.298903 5.770798,14.215603 5.854098,14.215603" style="fill: white" /><polygon type="contour" points="6.282999,14.607803 6.556963,14.607803 6.556963,14.651559 6.556933,14.677872 6.556934,14.695202 6.556934,14.757479 6.55679,14.760555 6.556816,14.774393 6.556746,14.825675 6.556746,14.972455 6.556733,15.002782 6.556797,15.019871 6.556926,15.108956 6.556845,15.162756 6.249738,15.162757 6.223708,15.162696 6.223853,15.121849 6.223724,15.108955 6.223888,14.972223 6.162884,14.972125 6.162999,14.836323 6.162999,14.677872 6.162884,14.607689 6.182048,14.607689 6.200526,14.607578" style="fill: white" /><polygon type="contour" points="6.556746,14.298903 6.162884,14.298903 6.162884,14.215603 6.556746,14.215603" style="fill: white" /><polygon type="contour" points="6.793127,14.298903 6.709538,14.298903 6.709538,14.215603 6.793127,14.215603" style="fill: white" /><polygon type="contour" points="6.792798,14.677872 6.792975,14.695202 6.792975,14.75748 6.792923,14.760554 6.793187,14.829581 6.793074,14.886069 6.793126,14.972506 6.748477,14.972299 6.709539,14.97215 6.709304,14.842485 6.709498,14.75748 6.709498,14.677872 6.709385,14.607689 6.792798,14.607689" style="fill: white" /><polygon type="contour" points="7.17149,14.607802 7.26853,14.607802 7.338713,14.607689 7.338713,14.626852 7.339019,14.677872 7.339019,14.836323 7.338713,14.972124 7.268529,14.972269 7.2618,14.972348 7.1785,14.972348 7.171489,14.972269 7.101,14.972124 7.101,14.607688 7.120163,14.607688" style="fill: white" /><polygon type="contour" points="7.338713,14.298903 7.101,14.298903 7.101,14.215603 7.338713,14.215603" style="fill: white" /><polygon type="contour" points="7.730799,14.298903 7.6475,14.298903 7.6475,14.215603 7.730799,14.215603" style="fill: white" /><polygon type="contour" points="7.730799,13.907403 7.6475,13.907403 7.6475,13.669689 7.730799,13.669689" style="fill: white" /><polygon type="contour" points="8.110795,13.669801 8.1597,13.669802 8.208258,13.669802 8.277415,13.669689 8.277415,13.688851 8.2773,13.739872 8.2773,13.836913 8.277415,13.907403 8.039586,13.907403 8.039586,13.888239 8.03928,13.836912 8.03928,13.739871 8.039586,13.669689 8.059319,13.669689" style="fill: white" /><polygon type="contour" points="8.277415,13.360903 8.039586,13.360903 8.039586,13.2776 8.277415,13.2776" style="fill: white" /><polygon type="contour" points="8.668799,13.360903 8.5862,13.360903 8.5862,13.2776 8.668799,13.2776" style="fill: white" /><polygon type="contour" points="9.607499,13.360903 9.524199,13.360903 9.524199,13.2776 9.607499,13.2776" style="fill: white" /><polygon type="contour" points="10.545499,13.360903 10.462899,13.360903 10.462899,13.2776 10.545499,13.2776" style="fill: white" /><polygon type="contour" points="10.154115,13.360903 9.916285,13.360903 9.916285,13.2776 10.154115,13.2776" style="fill: white" /><polygon type="contour" points="10.154115,13.669689 10.154115,13.688852 10.154001,13.739871 10.154001,13.836911 10.154115,13.907403 10.083511,13.907402 9.986469,13.907402 9.916285,13.907403 9.915981,13.836912 9.915981,13.739871 9.916285,13.669689 9.935449,13.669689 9.986469,13.669383 10.08351,13.669383" style="fill: white" /><polygon type="contour" points="10.545499,13.907403 10.462899,13.907403 10.462899,13.669689 10.545499,13.669689" style="fill: white" /><polygon type="contour" points="10.545499,14.298903 10.462899,14.298903 10.462899,14.215603 10.545499,14.215603" style="fill: white" /><polygon type="contour" points="10.154115,14.298903 9.916285,14.298903 9.916285,14.215603 10.154115,14.215603" style="fill: white" /><polygon type="contour" points="9.98647,14.607802 10.083511,14.607802 10.154115,14.607689 10.154115,14.626851 10.154001,14.677873 10.154001,14.836323 10.154115,14.972124 10.083511,14.972269 10.0765,14.972348 9.993201,14.972348 9.986469,14.972269 9.916285,14.972124 9.915981,14.836323 9.915981,14.677872 9.916285,14.607689 9.935448,14.607689" style="fill: white" /><polygon type="contour" points="9.607499,14.972287 9.524199,14.972287 9.524199,14.607689 9.607499,14.607689" style="fill: white" /><polygon type="contour" points="9.215413,14.626852 9.215719,14.677872 9.215719,14.836323 9.215413,14.972124 9.145228,14.972269 9.138499,14.972348 9.114991,14.97219 9.091494,14.972274 9.061061,14.972387 9.0552,14.972348 9.048189,14.972269 8.977586,14.972124 8.9777,14.836323 8.9777,14.677872 8.977586,14.607689 9.048189,14.607802 9.095298,14.607802 9.145229,14.607803 9.215413,14.607689" style="fill: white" /><polygon type="contour" points="9.215413,14.298903 8.977586,14.298903 8.977586,14.215603 9.215413,14.215603" style="fill: white" /><polygon type="contour" points="9.607499,14.298903 9.524199,14.298903 9.524199,14.215603 9.607499,14.215603" style="fill: white" /><polygon type="contour" points="9.607499,13.907403 9.524199,13.907403 9.524199,13.669689 9.607499,13.669689" style="fill: white" /><polygon type="contour" points="9.215413,13.669689 9.215413,13.688851 9.215719,13.739871 9.215719,13.836912 9.215413,13.907403 9.196249,13.907403 9.145229,13.907402 9.048189,13.907402 8.977586,13.907403 8.977586,13.888238 8.9777,13.836912 8.9777,13.739871 8.977586,13.669689 9.04819,13.669383 9.145229,13.669383" style="fill: white" /><polygon type="contour" points="9.215413,13.360903 8.977586,13.360903 8.977586,13.2776 9.215413,13.2776" style="fill: white" /><polygon type="contour" points="9.215524,12.810927 9.215524,12.931174 9.215413,12.968817 9.19625,12.968817 9.145228,12.969122 9.04819,12.969122 8.977586,12.968817 8.977586,12.949652 8.977476,12.931175 8.977586,12.908474 8.977586,12.760233 9.04819,12.760133 9.095299,12.760093 9.095296,12.760225 9.215413,12.760005" style="fill: white" /><polygon type="contour" points="9.579779,12.759319 9.607499,12.759319 9.607499,12.968817 9.524199,12.968817 9.524199,12.759319 9.529169,12.758902 9.566199,12.758902" style="fill: white" /><polygon type="contour" points="9.98647,12.760134 10.033443,12.76023 10.03358,12.760134 10.081104,12.76008 10.08351,12.760134 10.154115,12.760233 10.154225,12.810927 10.154225,12.931174 10.154115,12.968817 10.08351,12.969122 9.986469,12.969122 9.916285,12.968817 9.916285,12.949652 9.916175,12.931175 9.916285,12.908247 9.916285,12.760004" style="fill: white" /><polygon type="contour" points="10.545499,12.761365 10.545499,12.968817 10.462899,12.968817 10.462899,12.760957 10.497436,12.760957" style="fill: white" /><polygon type="contour" points="11.092115,12.762334 11.092115,12.790052 11.092225,12.812354 11.092225,12.931174 11.092115,12.968817 11.020904,12.968703 10.92344,12.968703 10.854285,12.968817 10.854285,12.949652 10.854175,12.931175 10.854285,12.908588 10.854285,12.762106 10.869443,12.762091 10.923441,12.762059 11.020904,12.762059" style="fill: white" /><polygon type="contour" points="11.4842,12.968817 11.400899,12.968817 11.400899,12.762766 11.4842,12.762766" style="fill: white" /><polygon type="contour" points="11.808055,12.763579 11.863171,12.763634 11.91028,12.763634 11.96021,12.764053 12.0307,12.763847 12.030924,12.813304 12.030924,12.931175 12.0307,12.968817 12.011535,12.968817 11.96021,12.969122 11.863171,12.969122 11.792987,12.968817 11.792987,12.949652 11.792876,12.931175 11.792987,12.908816 11.792987,12.763504" style="fill: white" /><polygon type="contour" points="12.968815,13.360903 12.574767,13.360903 12.574767,13.2776 12.968815,13.2776" style="fill: white" /><polygon type="contour" points="12.8487,13.669625 12.931172,13.669578 12.968815,13.669689 12.968815,13.688852 12.968701,13.739871 12.968701,13.836913 12.968815,13.907403 12.574737,13.907403 12.574737,13.863386 12.574767,13.836912 12.574768,13.829902 12.574768,13.763286 12.574846,13.746601 12.574767,13.739872 12.574737,13.66954 12.804684,13.66954" style="fill: white" /><polygon type="contour" points="14.298902,14.972287 14.250431,14.972286 14.215602,14.972286 14.215602,14.607689 14.298902,14.607689" style="fill: white" /><polygon type="contour" points="13.360902,14.972287 13.277598,14.972287 13.277598,14.607689 13.360902,14.607689" style="fill: white" /><polygon type="contour" points="12.968815,14.607689 12.968815,14.626851 12.968701,14.677873 12.968701,14.836323 12.968815,14.972124 12.908119,14.972047 12.907973,15.108956 12.907992,15.162694 12.881961,15.162756 12.574852,15.162756 12.574765,15.115242 12.574772,15.108955 12.574967,15.002782 12.574885,14.774947 12.574795,14.774393 12.574766,14.757479 12.574766,14.695202 12.574767,14.677873 12.574737,14.607803 12.8487,14.607803 12.931172,14.607578" style="fill: white" /><polygon type="contour" points="12.968815,14.298903 12.574767,14.298903 12.574767,14.215603 12.968815,14.215603" style="fill: white" /><polygon type="contour" points="12.0307,14.298903 11.792987,14.298903 11.792987,14.215603 12.0307,14.215603" style="fill: white" /><polygon type="contour" points="12.421462,14.298903 12.338571,14.298903 12.338571,14.215603 12.421462,14.215603" style="fill: white" /><polygon type="contour" points="12.421613,14.62693 12.421919,14.677872 12.422024,14.695202 12.422024,14.757479 12.421737,14.805245 12.421566,14.894304 12.421461,14.97215 12.382135,14.972334 12.338572,14.972507 12.338622,14.88607 12.338827,14.768907 12.338722,14.757479 12.338722,14.695202 12.338899,14.677872 12.338899,14.607689 12.421613,14.607689" style="fill: white" /><polygon type="contour" points="12.0307,14.972124 12.015654,14.972105 11.96021,14.972268 11.953199,14.972348 11.8699,14.972348 11.863171,14.972269 11.792987,14.972124 11.792681,14.836323 11.792681,14.677872 11.792987,14.607689 11.86317,14.607802 11.96021,14.607802 12.0307,14.607689" style="fill: white" /><polygon type="contour" points="11.4842,14.972287 11.400899,14.972287 11.400899,14.607689 11.4842,14.607689" style="fill: white" /><polygon type="contour" points="11.092115,14.626851 11.09242,14.677872 11.09242,14.836323 11.092115,14.972124 11.020905,14.97199 11.0131,14.97199 11.010157,14.971952 10.948709,14.972275 10.933003,14.971952 10.9298,14.97199 10.923441,14.97199 10.854285,14.972124 10.8544,14.836323 10.8544,14.677872 10.854285,14.607689 10.92344,14.607803 10.972001,14.607802 11.020904,14.607802 11.092115,14.607688" style="fill: white" /><polygon type="contour" points="11.092115,14.298903 10.854285,14.298903 10.854285,14.215603 11.092115,14.215603" style="fill: white" /><polygon type="contour" points="11.4842,14.298903 11.400899,14.298903 11.400899,14.215603 11.4842,14.215603" style="fill: white" /><polygon type="contour" points="11.4842,13.907403 11.400899,13.907403 11.400899,13.669689 11.4842,13.669689" style="fill: white" /><polygon type="contour" points="11.092115,13.688852 11.09242,13.739871 11.09242,13.836912 11.092115,13.907403 10.854285,13.907403 10.8544,13.836913 10.8544,13.739871 10.854285,13.669689 10.923441,13.669802 10.972,13.669802 11.020905,13.669801 11.092115,13.669689" style="fill: white" /><polygon type="contour" points="11.092115,13.360903 10.854285,13.360903 10.854285,13.2776 11.092115,13.2776" style="fill: white" /><polygon type="contour" points="11.4842,13.360903 11.400899,13.360903 11.400899,13.2776 11.4842,13.2776" style="fill: white" /><polygon type="contour" points="12.0307,13.360903 11.792987,13.360903 11.792987,13.2776 12.0307,13.2776" style="fill: white" /><polygon type="contour" points="12.0307,13.669689 12.0307,13.907403 12.011535,13.907403 11.96021,13.907402 11.86317,13.907402 11.792987,13.907403 11.792681,13.836912 11.792681,13.739871 11.792987,13.669689 11.86317,13.669383 11.96021,13.669383" style="fill: white" /><polygon type="contour" points="12.421613,13.66969 12.421613,13.688816 12.42192,13.739873 12.422061,13.746601 12.422061,13.829902 12.42192,13.836913 12.421613,13.907403 12.338899,13.907403 12.338899,13.836913 12.338759,13.829901 12.338759,13.746601 12.338899,13.739871 12.338899,13.669689 12.352474,13.669689" style="fill: white" /><polygon type="contour" points="12.421462,13.360903 12.338571,13.360903 12.338571,13.2776 12.421462,13.2776" style="fill: white" /><polygon type="contour" points="12.421461,12.764636 12.421759,12.869898 12.421909,12.907975 12.421724,12.931174 12.421613,12.968817 12.338899,12.968817 12.338899,12.931174 12.338608,12.907975 12.338712,12.877478 12.338571,12.854165 12.338571,12.764771 12.38285,12.764594" style="fill: white" /><polygon type="contour" points="15.162536,3.969164 15.162536,4.045015 15.162467,4.075873 15.162692,4.30221 15.121847,4.302054 15.108953,4.302228 14.971883,4.302043 14.972266,4.374223 14.972266,4.45383 14.97212,4.524015 14.836321,4.523902 14.67787,4.523902 14.607688,4.524015 14.607688,4.50485 14.6078,4.45383 14.6078,4.29538 14.607688,4.159579 14.622845,4.159509 14.677871,4.159434 14.695199,4.159259 14.699042,4.159279 14.764059,4.159279 14.77491,4.159434 14.829355,4.159464 14.829355,3.995126 14.82935,3.976892 14.829342,3.96916 14.83127,3.969156 14.833223,3.96882" style="fill: white" /><polygon type="contour" points="14.972285,4.916102 14.607688,4.916102 14.607688,4.832801 14.972285,4.832801" style="fill: white" /><polygon type="contour" points="14.972121,5.224302 14.972102,5.239347 14.972266,5.29479 14.972407,5.3018 14.972407,5.368417 14.972345,5.385102 14.972266,5.391831 14.972121,5.462015 14.83632,5.462321 14.67787,5.462321 14.607688,5.462015 14.607688,5.44285 14.6078,5.391832 14.6078,5.29479 14.607688,5.224302 14.626851,5.224302 14.67787,5.224301 14.83632,5.224301" style="fill: white" /><polygon type="contour" points="14.972285,5.854101 14.607688,5.854101 14.607688,5.770801 14.972285,5.770801" style="fill: white" /><polygon type="contour" points="14.67787,6.163002 14.83632,6.163002 14.972121,6.162887 14.972219,6.223584 15.108953,6.223728 15.162692,6.22371 15.162754,6.249741 15.162754,6.556846 15.11524,6.556936 15.108953,6.556928 15.002778,6.556734 14.972454,6.556747 14.825672,6.556747 14.774391,6.556818 14.70167,6.556818 14.699041,6.556778 14.695199,6.556935 14.67787,6.556935 14.651557,6.556965 14.607802,6.556965 14.607802,6.283002 14.607577,6.200529 14.607688,6.162887 14.626852,6.162887" style="fill: white" /><polygon type="contour" points="12.0307,4.916102 11.792987,4.916102 11.792987,4.832801 12.0307,4.832801" style="fill: white" /><polygon type="contour" points="12.0307,5.224302 12.0307,5.462015 12.011536,5.462015 11.960209,5.462321 11.86317,5.462321 11.792987,5.462015 11.792987,5.44285 11.792681,5.391831 11.792681,5.29479 11.792987,5.224301 11.96021,5.224301" style="fill: white" /><polygon type="contour" points="12.421613,5.243429 12.421919,5.294791 12.42206,5.3018 12.422063,5.368417 12.422063,5.385101 12.421921,5.391832 12.421614,5.462015 12.338901,5.462015 12.338901,5.391832 12.338761,5.385101 12.338759,5.368416 12.338758,5.301801 12.338899,5.29479 12.338899,5.224302 12.421613,5.224302" style="fill: white" /><polygon type="contour" points="12.421462,4.916102 12.338571,4.916102 12.338571,4.832801 12.421462,4.832801" style="fill: white" /><polygon type="contour" points="12.907992,3.96901 12.907847,4.009855 12.907973,4.022747 12.907812,4.15948 12.968815,4.159579 12.968701,4.29538 12.968701,4.453831 12.968815,4.524015 12.949651,4.524015 12.931173,4.524126 12.8487,4.523901 12.574737,4.523901 12.574737,4.480144 12.574767,4.453831 12.574766,4.436502 12.574766,4.374224 12.574909,4.37115 12.574795,4.357311 12.574767,4.30603 12.574767,4.159248 12.574967,4.128921 12.574902,4.111833 12.574772,4.022747 12.574852,3.968948 12.881961,3.968948" style="fill: white" /><polygon type="contour" points="12.38285,4.159402 12.421462,4.159553 12.421694,4.289217 12.422024,4.374223 12.422024,4.436503 12.42192,4.45383 12.421613,4.524015 12.338899,4.524015 12.338899,4.453831 12.338722,4.436502 12.338722,4.374223 12.338774,4.37115 12.338512,4.302122 12.338622,4.245634 12.338571,4.159196" style="fill: white" /><polygon type="contour" points="11.96021,4.159435 12.0307,4.159579 12.0307,4.524015 12.011536,4.524015 11.960209,4.523902 11.86317,4.523902 11.792987,4.524015 11.792987,4.504851 11.792681,4.45383 11.792681,4.295379 11.792987,4.159579 11.863171,4.159435 11.8699,4.159356 11.953199,4.159356" style="fill: white" /><polygon type="contour" points="8.2773,4.29538 8.2773,4.453831 8.277415,4.524015 8.208258,4.523902 8.110795,4.523902 8.039586,4.524015 8.039586,4.504851 8.03928,4.45383 8.03928,4.295379 8.039586,4.159579 8.110796,4.159714 8.1186,4.159714 8.124745,4.15975 8.135797,4.159714 8.208259,4.159714 8.277415,4.159579" style="fill: white" /><polygon type="contour" points="6.556746,4.916102 6.328674,4.916102 6.299954,4.916584 6.223726,4.916102 6.162884,4.916102 6.162884,4.832801 6.556746,4.832801" style="fill: white" /><polygon type="contour" points="6.793127,4.916102 6.709538,4.916102 6.709538,4.832801 6.793127,4.832801" style="fill: white" /><polygon type="contour" points="6.792798,5.294791 6.792939,5.3018 6.792939,5.368417 6.792938,5.385101 6.792798,5.391832 6.792798,5.462015 6.709385,5.462015 6.709385,5.442887 6.709498,5.391832 6.709498,5.29479 6.709385,5.224302 6.792798,5.224302" style="fill: white" /><polygon type="contour" points="6.556963,5.268318 6.556932,5.294791 6.556932,5.368417 6.556854,5.385102 6.556933,5.391831 6.556963,5.462163 6.327016,5.462163 6.282999,5.462079 6.200526,5.462126 6.162884,5.462015 6.162884,5.44285 6.162999,5.391832 6.162999,5.29479 6.162884,5.224302 6.556963,5.224302" style="fill: white" /><polygon type="contour" points="6.556746,5.854101 6.162884,5.854101 6.162884,5.770801 6.556746,5.770801" style="fill: white" /><polygon type="contour" points="6.793127,5.854101 6.709538,5.854101 6.709538,5.770801 6.793127,5.770801" style="fill: white" /><polygon type="contour" points="6.792798,6.20053 6.79309,6.223728 6.792985,6.254225 6.793127,6.277538 6.793127,6.366933 6.748478,6.36711 6.709539,6.367068 6.709539,6.287853 6.709719,6.261804 6.709498,6.223729 6.709498,6.20053 6.709385,6.162887 6.792798,6.162887" style="fill: white" /><polygon type="contour" points="6.556963,6.258634 6.55683,6.288085 6.556845,6.319966 6.556746,6.33389 6.556746,6.366204 6.479924,6.367411 6.452317,6.368075 6.369329,6.369544 6.368072,6.452319 6.367408,6.479927 6.366344,6.5568 6.319964,6.556846 6.288083,6.556832 6.258631,6.556965 6.162737,6.556965 6.162737,6.327019 6.16282,6.283001 6.162775,6.200529 6.162884,6.162887 6.182047,6.162887 6.200526,6.162777 6.282998,6.162823 6.327016,6.162739 6.556963,6.162739" style="fill: white" /><polygon type="contour" points="5.854098,6.556747 5.770798,6.556747 5.770798,6.162887 5.854098,6.162887" style="fill: white" /><polygon type="contour" points="5.854098,6.793129 5.770798,6.793129 5.770798,6.70954 5.854098,6.70954" style="fill: white" /><polygon type="contour" points="6.200527,6.709501 6.223726,6.709501 6.261804,6.709722 6.367067,6.709541 6.367107,6.748479 6.36693,6.793129 6.277535,6.793129 6.254223,6.792987 6.223727,6.793093 6.200526,6.792801 6.162884,6.792801 6.162884,6.709387 6.182125,6.709387" style="fill: white" /><polygon type="contour" points="6.222541,7.101001 6.367854,7.101001 6.367943,7.116046 6.367649,7.17149 6.367442,7.178501 6.368001,7.245175 6.368068,7.26853 6.368197,7.338714 6.318398,7.338825 6.200527,7.338825 6.162884,7.338714 6.162884,7.31955 6.162579,7.26853 6.162579,7.218601 6.162884,7.199436 6.162884,7.101001 6.182047,7.101001 6.200527,7.100777" style="fill: white" /><polygon type="contour" points="6.368936,7.7308 6.162884,7.7308 6.162884,7.647501 6.368936,7.647501" style="fill: white" /><polygon type="contour" points="6.369643,8.110797 6.369643,8.20826 6.369595,8.277417 6.319348,8.277527 6.200527,8.277527 6.162884,8.277417 6.162884,8.258252 6.162998,8.20826 6.162998,8.110797 6.162884,8.039587 6.182047,8.039587 6.200527,8.039477 6.260866,8.039434 6.3692,8.039434" style="fill: white" /><polygon type="contour" points="6.370336,8.620738 6.370744,8.668801 6.162884,8.668801 6.162884,8.586201 6.370336,8.586201" style="fill: white" /><polygon type="contour" points="6.223227,8.977588 6.37147,8.977588 6.371569,9.048191 6.371608,9.095302 6.371477,9.095298 6.371698,9.215415 6.320775,9.215526 6.200527,9.215526 6.162884,9.215415 6.162579,9.145231 6.162579,9.048191 6.162884,8.977588 6.182048,8.977588 6.200526,8.977477" style="fill: white" /><polygon type="contour" points="6.372801,9.529171 6.372801,9.566202 6.372384,9.579781 6.372384,9.607501 6.162884,9.607501 6.162884,9.524201 6.372384,9.524201" style="fill: white" /><polygon type="contour" points="6.223454,9.916287 6.371698,9.916287 6.371569,9.986471 6.371471,10.033444 6.371569,10.033582 6.371624,10.081107 6.371569,10.083512 6.37147,10.154117 6.320775,10.154227 6.200527,10.154227 6.162884,10.154117 6.162884,10.134952 6.162579,10.083512 6.162579,9.986471 6.162884,9.916287 6.182047,9.916287 6.200527,9.916177" style="fill: white" /><polygon type="contour" points="6.370744,10.497438 6.370336,10.545501 6.162884,10.545501 6.162884,10.462901 6.370744,10.462901" style="fill: white" /><polygon type="contour" points="6.223111,10.854287 6.369596,10.854287 6.369611,10.869445 6.369643,10.923442 6.369643,11.020907 6.369369,11.092117 6.34165,11.092117 6.319348,11.092227 6.200527,11.092227 6.162884,11.092117 6.162998,11.020906 6.162998,10.923442 6.162884,10.854287 6.182047,10.854287 6.200527,10.854177" style="fill: white" /><polygon type="contour" points="5.854098,11.092117 5.770798,11.092117 5.770798,10.854287 5.854098,10.854287" style="fill: white" /><polygon type="contour" points="5.854098,11.484203 5.770798,11.484203 5.770798,11.400901 5.854098,11.400901" style="fill: white" /><polygon type="contour" points="6.368936,11.484203 6.162884,11.484203 6.162884,11.400901 6.368936,11.400901" style="fill: white" /><polygon type="contour" points="6.222885,11.79299 6.368197,11.79299 6.368122,11.808058 6.368068,11.863173 6.368068,11.910282 6.367649,11.960212 6.367855,12.030703 6.318397,12.030927 6.200526,12.030927 6.162884,12.030703 6.162579,11.960212 6.162579,11.863172 6.162884,11.79299 6.182048,11.79299 6.200526,11.792879" style="fill: white" /><polygon type="contour" points="5.854098,12.030703 5.770798,12.030703 5.770798,11.79299 5.854098,11.79299" style="fill: white" /><polygon type="contour" points="5.854098,12.421463 5.770798,12.421463 5.770798,12.338574 5.854098,12.338574" style="fill: white" /><polygon type="contour" points="5.39183,12.338901 5.462013,12.338901 5.462013,12.421615 5.442886,12.421615 5.391829,12.421922 5.385099,12.422063 5.318426,12.422063 5.301799,12.422062 5.294788,12.421922 5.2243,12.421615 5.2243,12.338901 5.294788,12.338901 5.301799,12.338761 5.385099,12.338761" style="fill: white" /><polygon type="contour" points="5.294789,12.574769 5.301798,12.57477 5.368415,12.57477 5.3851,12.574848 5.391829,12.574769 5.462161,12.574739 5.462161,12.804685 5.462077,12.848702 5.462124,12.931174 5.462013,12.968817 5.44285,12.968817 5.391829,12.968702 5.294788,12.968702 5.2243,12.968817 5.2243,12.574739 5.268316,12.574739" style="fill: white" /><polygon type="contour" points="4.9161,12.421463 4.832799,12.421463 4.832799,12.338574 4.9161,12.338574" style="fill: white" /><polygon type="contour" points="4.9161,11.953201 4.916101,11.960211 4.916101,12.030703 4.832799,12.030703 4.832799,11.79299 4.9161,11.79299" style="fill: white" /><polygon type="contour" points="4.524012,11.79299 4.523899,11.863172 4.523899,11.960211 4.524012,12.030703 4.504848,12.030703 4.453829,12.030702 4.295378,12.030702 4.159577,12.030703 4.159597,12.01727 4.159597,12.015658 4.159433,11.960212 4.159355,11.9532 4.159355,11.869902 4.159433,11.863172 4.159577,11.79299 4.295377,11.792683 4.453828,11.792683" style="fill: white" /><polygon type="contour" points="4.524012,11.484203 4.159415,11.484203 4.159416,11.435731 4.159285,11.400901 4.524012,11.400901" style="fill: white" /><polygon type="contour" points="4.916101,11.449371 4.9161,11.484203 4.832799,11.484203 4.832799,11.400901 4.916101,11.400901" style="fill: white" /><polygon type="contour" points="4.9161,11.092117 4.832799,11.092117 4.832799,10.854287 4.9161,10.854287" style="fill: white" /><polygon type="contour" points="5.294789,10.854401 5.39183,10.854401 5.462013,10.854287 5.462013,10.87345 5.4619,10.923443 5.4619,11.020907 5.462013,11.092117 5.442849,11.092117 5.39183,11.092422 5.294789,11.092422 5.2243,11.092117 5.2243,10.972348 5.224298,10.923442 5.224299,10.854287 5.243462,10.854287" style="fill: white" /><polygon type="contour" points="5.462013,10.545501 5.2243,10.545501 5.2243,10.462901 5.462013,10.462901" style="fill: white" /><polygon type="contour" points="5.854098,10.545501 5.770798,10.545501 5.770798,10.462901 5.854098,10.462901" style="fill: white" /><polygon type="contour" points="5.854098,10.154117 5.770798,10.154117 5.770798,9.916287 5.854098,9.916287" style="fill: white" /><polygon type="contour" points="5.462012,9.916287 5.462319,9.986471 5.462319,10.083512 5.462013,10.154117 5.44285,10.154117 5.391829,10.154002 5.294788,10.154002 5.2243,10.154117 5.2243,10.134952 5.224299,10.083512 5.224299,9.916287 5.294789,9.915982 5.391829,9.915982" style="fill: white" /><polygon type="contour" points="5.462013,9.607501 5.2243,9.607501 5.2243,9.524201 5.462013,9.524201" style="fill: white" /><polygon type="contour" points="5.854098,9.607501 5.770798,9.607501 5.770798,9.524201 5.854098,9.524201" style="fill: white" /><polygon type="contour" points="5.854098,9.215415 5.770798,9.215415 5.770798,8.977588 5.854098,8.977588" style="fill: white" /><polygon type="contour" points="5.462013,8.996752 5.462319,9.048191 5.462319,9.145231 5.462013,9.215415 5.44285,9.215415 5.391829,9.215721 5.294789,9.215721 5.224299,9.215415 5.224299,9.048191 5.2243,8.977588 5.294788,8.977702 5.39183,8.977702 5.462013,8.977588" style="fill: white" /><polygon type="contour" points="5.462013,8.668801 5.2243,8.668801 5.2243,8.586201 5.462013,8.586201" style="fill: white" /><polygon type="contour" points="5.854098,8.668801 5.770798,8.668801 5.770798,8.586201 5.854098,8.586201" style="fill: white" /><polygon type="contour" points="5.854098,8.277417 5.770798,8.277417 5.770798,8.039587 5.854098,8.039587" style="fill: white" /><polygon type="contour" points="5.462013,8.039587 5.4619,8.110796 5.4619,8.20826 5.462013,8.277417 5.442849,8.277417 5.39183,8.277303 5.294788,8.277303 5.2243,8.277417 5.2243,8.258252 5.224299,8.20826 5.2243,8.159356 5.2243,8.039587 5.243463,8.039587 5.294788,8.039282 5.391829,8.039282" style="fill: white" /><polygon type="contour" points="5.462013,7.7308 5.2243,7.7308 5.2243,7.647501 5.462013,7.647501" style="fill: white" /><polygon type="contour" points="5.854098,7.7308 5.770798,7.7308 5.770798,7.647501 5.854098,7.647501" style="fill: white" /><polygon type="contour" points="5.854098,7.338714 5.770798,7.338714 5.770798,7.101001 5.854098,7.101001" style="fill: white" /><polygon type="contour" points="5.462319,7.17149 5.462319,7.26853 5.462013,7.338714 5.442849,7.338714 5.39183,7.339021 5.294788,7.339021 5.2243,7.338714 5.2243,7.31955 5.224299,7.26853 5.224299,7.2186 5.2243,7.199437 5.2243,7.101001 5.294788,7.101002 5.39183,7.101002 5.462013,7.101001" style="fill: white" /><polygon type="contour" points="5.294787,6.709501 5.39183,6.709501 5.462013,6.709387 5.462013,6.792801 5.39183,6.792801 5.385099,6.792941 5.301799,6.792941 5.294788,6.792801 5.2243,6.792801 5.2243,6.709387 5.243427,6.709387" style="fill: white" /><polygon type="contour" points="4.9161,6.793129 4.832799,6.793129 4.832799,6.70954 4.9161,6.70954" style="fill: white" /><polygon type="contour" points="4.524012,6.709387 4.524012,6.792801 4.453829,6.792801 4.4365,6.792978 4.432657,6.792955 4.36764,6.792954 4.302077,6.793233 4.256855,6.793281 4.159195,6.793129 4.1594,6.74848 4.159552,6.709541 4.237396,6.709819 4.35731,6.70959 4.430028,6.70959 4.432658,6.709501 4.4365,6.709501 4.524094,6.709306" style="fill: white" /><polygon type="contour" points="4.524013,6.18205 4.524123,6.20053 4.523899,6.283001 4.523899,6.556965 4.480142,6.556965 4.453829,6.556935 4.4365,6.556935 4.432658,6.556778 4.430029,6.556818 4.357309,6.556818 4.306028,6.556747 4.159245,6.556747 4.128921,6.556733 4.111832,6.556798 4.022747,6.556928 3.968946,6.556847 3.968946,6.249741 3.969008,6.22371 4.009852,6.223856 4.022747,6.223727 4.159478,6.223891 4.159577,6.162887 4.295378,6.163002 4.453829,6.163002 4.524012,6.162887" style="fill: white" /><polygon type="contour" points="4.524012,5.854101 4.159415,5.854101 4.159415,5.770801 4.524012,5.770801" style="fill: white" /><polygon type="contour" points="4.30043,3.969156 4.302359,3.96916 4.302334,3.973815 4.30235,3.976891 4.30235,4.159614 4.356789,4.159435 4.367641,4.159279 4.432657,4.159279 4.4365,4.159259 4.453828,4.159434 4.508854,4.159509 4.524012,4.159579 4.523899,4.295379 4.523899,4.453831 4.524012,4.524015 4.504848,4.524015 4.453829,4.523902 4.295377,4.523902 4.159577,4.524015 4.159507,4.508856 4.159433,4.45383 4.159434,4.436502 4.159434,4.374223 4.159291,4.37115 4.15932,4.302121 4.101955,4.302244 4.022747,4.302228 3.969008,4.30221 3.969231,4.075872 3.969162,4.045015 3.969162,3.969164 4.298475,3.96882" style="fill: white" /><polygon type="contour" points="5.318425,4.159356 5.3851,4.159356 5.391829,4.159434 5.462013,4.159579 5.462319,4.295379 5.46232,4.4039 5.46232,4.45383 5.462014,4.524015 5.442851,4.524015 5.391829,4.523902 5.294788,4.523902 5.2243,4.524015 5.2243,4.50485 5.224299,4.45383 5.224299,4.29538 5.2243,4.159579 5.239345,4.159509 5.294787,4.159435 5.301797,4.159294" style="fill: white" /><polygon type="contour" points="4.9161,4.436502 4.916101,4.45383 4.916101,4.524015 4.832799,4.524015 4.832799,4.159417 4.9161,4.159417" style="fill: white" /><polygon type="contour" points="4.9161,4.916102 4.832799,4.916102 4.832799,4.832801 4.9161,4.832801" style="fill: white" /><polygon type="contour" points="4.524012,4.916102 4.159415,4.916102 4.159415,4.832801 4.524012,4.832801" style="fill: white" /><polygon type="contour" points="4.5239,5.29479 4.5239,5.341899 4.523899,5.391832 4.524012,5.462015 4.504849,5.462015 4.453828,5.462321 4.295377,5.462321 4.159577,5.462015 4.159506,5.446945 4.159433,5.391831 4.159354,5.385101 4.159293,5.368417 4.159293,5.301801 4.159432,5.294791 4.159577,5.224302 4.295378,5.224301 4.524012,5.224301" style="fill: white" /><polygon type="contour" points="4.9161,5.462015 4.8328,5.462015 4.8328,5.44285 4.832799,5.391831 4.832799,5.224302 4.9161,5.224302" style="fill: white" /><polygon type="contour" points="4.9161,5.854101 4.832799,5.854101 4.832799,5.770801 4.9161,5.770801" style="fill: white" /><polygon type="contour" points="4.9161,6.20053 4.916101,6.223728 4.916101,6.391463 4.9161,6.459919 4.9161,6.556747 4.832799,6.556747 4.832799,6.162887 4.9161,6.162887" style="fill: white" /><polygon type="contour" points="5.294789,6.163002 5.39183,6.163002 5.462013,6.162887 5.462013,6.182051 5.462124,6.200529 5.462077,6.283002 5.462161,6.327019 5.462161,6.556965 5.418143,6.556965 5.391829,6.556935 5.3851,6.556856 5.368415,6.556934 5.294789,6.556934 5.2243,6.556965 5.2243,6.162887 5.243462,6.162887" style="fill: white" /><polygon type="contour" points="5.462013,5.854101 5.2243,5.854101 5.2243,5.770801 5.462013,5.770801" style="fill: white" /><polygon type="contour" points="5.854098,5.854101 5.770798,5.854101 5.770798,5.770801 5.854098,5.770801" style="fill: white" /><polygon type="contour" points="5.854098,5.462015 5.770798,5.462015 5.770798,5.224302 5.854098,5.224302" style="fill: white" /><polygon type="contour" points="5.462319,5.29479 5.462319,5.391831 5.462013,5.462015 5.44285,5.462015 5.391829,5.462321 5.294789,5.462321 5.2243,5.462015 5.2243,5.44285 5.224299,5.391831 5.224299,5.29479 5.2243,5.224302 5.243463,5.224302 5.294788,5.224301 5.462013,5.224301" style="fill: white" /><polygon type="contour" points="5.462013,4.916102 5.2243,4.916102 5.2243,4.832801 5.462013,4.832801" style="fill: white" /><polygon type="contour" points="5.854098,4.916102 5.770798,4.916102 5.770798,4.832801 5.854098,4.832801" style="fill: white" /><polygon type="contour" points="5.854098,4.524015 5.770798,4.524015 5.770798,4.159417 5.854098,4.159417" style="fill: white" /><polygon type="contour" points="6.556934,4.016461 6.556926,4.022747 6.556733,4.128921 6.556746,4.159248 6.556746,4.30603 6.556816,4.35731 6.556934,4.374223 6.556934,4.436502 6.556933,4.45383 6.556963,4.523901 6.282999,4.523901 6.200526,4.524126 6.162884,4.524015 6.162884,4.50485 6.162999,4.45383 6.162999,4.29538 6.162884,4.159578 6.223582,4.159298 6.223725,4.022747 6.223708,3.96901 6.249738,3.968948 6.556845,3.968948" style="fill: white" /><polygon type="contour" points="6.793076,4.245634 6.79287,4.362796 6.792975,4.374223 6.792975,4.436502 6.792798,4.453831 6.792798,4.524015 6.709385,4.524015 6.709385,4.504773 6.709498,4.453831 6.709498,4.326459 6.709816,4.237398 6.709539,4.159553 6.749192,4.159369 6.793127,4.159196" style="fill: white" /><polygon type="contour" points="7.268529,4.159434 7.338713,4.159579 7.339019,4.295379 7.339019,4.45383 7.338713,4.524015 7.26853,4.523902 7.171489,4.523902 7.101,4.524015 7.101,4.159579 7.114342,4.159598 7.171489,4.159434 7.1785,4.159356 7.2618,4.159356" style="fill: white" /><polygon type="contour" points="7.730799,4.524015 7.6475,4.524015 7.6475,4.159417 7.730799,4.159417" style="fill: white" /><polygon type="contour" points="7.730799,4.916102 7.6475,4.916102 7.6475,4.832801 7.730799,4.832801" style="fill: white" /><polygon type="contour" points="7.338713,4.916102 7.101,4.916102 7.101,4.832801 7.338713,4.832801" style="fill: white" /><polygon type="contour" points="7.339019,5.29479 7.339019,5.391831 7.338713,5.462015 7.26853,5.462321 7.171489,5.462321 7.101,5.462015 7.101,5.224302 7.120164,5.224302 7.171489,5.224301 7.338713,5.224301" style="fill: white" /><polygon type="contour" points="7.730799,5.462015 7.6475,5.462015 7.6475,5.224302 7.730799,5.224302" style="fill: white" /><polygon type="contour" points="7.730799,5.854101 7.6475,5.854101 7.6475,5.770801 7.730799,5.770801" style="fill: white" /><polygon type="contour" points="7.338713,5.854101 7.101,5.854101 7.101,5.770801 7.338713,5.770801" style="fill: white" /><polygon type="contour" points="7.338713,6.162887 7.338713,6.182051 7.338824,6.200529 7.338713,6.222886 7.338713,6.368199 7.323644,6.368124 7.26853,6.36807 7.245172,6.368003 7.1785,6.367442 7.17149,6.36765 7.101,6.367857 7.100776,6.318399 7.100776,6.200529 7.101,6.162887 7.120163,6.162887 7.17149,6.162581 7.26853,6.162581" style="fill: white" /><polygon type="contour" points="7.730799,6.368938 7.6475,6.368938 7.6475,6.162887 7.730799,6.162887" style="fill: white" /><polygon type="contour" points="9.607499,6.372385 9.602612,6.372802 9.566198,6.372802 9.552388,6.372385 9.524199,6.372385 9.524199,6.162887 9.607499,6.162887" style="fill: white" /><polygon type="contour" points="9.607499,4.916102 9.524199,4.916102 9.524199,4.832801 9.607499,4.832801" style="fill: white" /><polygon type="contour" points="9.215413,4.916102 8.977586,4.916102 8.977586,4.832801 9.215413,4.832801" style="fill: white" /><polygon type="contour" points="9.215719,5.29479 9.215719,5.391831 9.215413,5.462015 9.196249,5.462015 9.145229,5.462321 9.04819,5.462321 8.977586,5.462015 8.977586,5.44285 8.9777,5.391831 8.9777,5.29479 8.977586,5.224302 9.048189,5.224301 9.215413,5.224301" style="fill: white" /><polygon type="contour" points="9.607499,5.462015 9.524199,5.462015 9.524199,5.224302 9.607499,5.224302" style="fill: white" /><polygon type="contour" points="9.607499,5.854101 9.524199,5.854101 9.524199,5.770801 9.607499,5.770801" style="fill: white" /><polygon type="contour" points="9.215413,5.854101 8.977586,5.854101 8.977586,5.770801 9.215413,5.770801" style="fill: white" /><polygon type="contour" points="9.215413,6.162887 9.215413,6.182051 9.215524,6.200529 9.215413,6.223457 9.215413,6.371699 9.145229,6.371571 9.04819,6.371571 8.977586,6.371471 8.977476,6.320776 8.977476,6.200529 8.977586,6.162887 9.04819,6.162581 9.145229,6.162581" style="fill: white" /><polygon type="contour" points="8.668799,6.370747 8.634261,6.370747 8.5862,6.370338 8.5862,6.162887 8.668799,6.162887" style="fill: white" /><polygon type="contour" points="8.277415,6.182051 8.277526,6.200529 8.277415,6.223115 8.277415,6.369597 8.208258,6.369645 8.110796,6.369645 8.039586,6.36937 8.039476,6.319349 8.039476,6.200529 8.039586,6.162887 8.110796,6.163001 8.208259,6.163001 8.277415,6.162887" style="fill: white" /><polygon type="contour" points="8.277415,5.854101 8.039586,5.854101 8.039586,5.770801 8.277415,5.770801" style="fill: white" /><polygon type="contour" points="8.668799,5.854101 8.5862,5.854101 8.5862,5.770801 8.668799,5.770801" style="fill: white" /><polygon type="contour" points="8.668799,5.462015 8.5862,5.462015 8.5862,5.224302 8.668799,5.224302" style="fill: white" /><polygon type="contour" points="8.277415,5.224302 8.2773,5.29479 8.2773,5.391832 8.277415,5.462015 8.208259,5.461901 8.110796,5.461901 8.039586,5.462015 8.039586,5.44285 8.03928,5.391831 8.03928,5.29479 8.039586,5.224302 8.059319,5.224302 8.110795,5.224301 8.208259,5.224301" style="fill: white" /><polygon type="contour" points="8.277415,4.916102 8.039586,4.916102 8.039586,4.832801 8.277415,4.832801" style="fill: white" /><polygon type="contour" points="8.668799,4.916102 8.5862,4.916102 8.5862,4.832801 8.668799,4.832801" style="fill: white" /><polygon type="contour" points="8.668799,4.524015 8.5862,4.524015 8.5862,4.159417 8.620737,4.159417 8.623009,4.159159 8.668799,4.159159" style="fill: white" /><polygon type="contour" points="9.145228,4.159435 9.215413,4.159579 9.215719,4.295379 9.215719,4.45383 9.215413,4.524015 9.19625,4.524015 9.145228,4.523902 9.048189,4.523902 8.977586,4.524015 8.977586,4.50485 8.9777,4.453831 8.9777,4.29538 8.977586,4.159579 9.048189,4.159435 9.0552,4.159356 9.138499,4.159356" style="fill: white" /><polygon type="contour" points="9.572669,4.159417 9.607499,4.159417 9.607499,4.524015 9.524199,4.524015 9.524199,4.159159 9.570378,4.159159" style="fill: white" /><polygon type="contour" points="10.076501,4.15942 10.154115,4.159579 10.154001,4.29538 10.154001,4.453831 10.154115,4.524015 10.083511,4.523902 9.986469,4.523902 9.916285,4.524015 9.916285,4.50485 9.915981,4.45383 9.915981,4.295379 9.916285,4.159579 9.931443,4.159509 9.986469,4.159435 9.993201,4.159355 9.999062,4.159317 10.076501,4.159317" style="fill: white" /><polygon type="contour" points="10.510961,4.159417 10.545499,4.159417 10.545499,4.524015 10.462899,4.524015 10.462899,4.159345 10.476613,4.159371 10.498451,4.159345 10.508689,4.159159" style="fill: white" /><polygon type="contour" points="11.010157,4.15975 11.0131,4.159714 11.020904,4.159714 11.092115,4.159579 11.09242,4.29538 11.09242,4.45383 11.092115,4.524015 11.072381,4.524015 11.020904,4.523902 10.923441,4.523902 10.854285,4.524015 10.854285,4.50485 10.8544,4.45383 10.8544,4.29538 10.854285,4.159578 10.867742,4.159598 10.92344,4.159714 10.9298,4.159714 10.933002,4.159751 10.94871,4.159034 10.995714,4.159034" style="fill: white" /><polygon type="contour" points="11.4842,4.524015 11.400899,4.524015 11.400899,4.159417 11.435729,4.159417 11.437908,4.159262 11.4842,4.159262" style="fill: white" /><polygon type="contour" points="11.4842,4.916102 11.400899,4.916102 11.400899,4.832801 11.4842,4.832801" style="fill: white" /><polygon type="contour" points="11.4842,5.391832 11.484199,5.462015 11.400899,5.462015 11.400899,5.224302 11.4842,5.224302" style="fill: white" /><polygon type="contour" points="11.092115,5.224302 11.092115,5.243465 11.09242,5.29479 11.09242,5.391831 11.092115,5.462015 11.07238,5.462015 11.020905,5.461901 10.92344,5.461901 10.854285,5.462015 10.854285,5.44285 10.8544,5.391832 10.8544,5.29479 10.854285,5.224302 10.92344,5.224301 11.020904,5.224301" style="fill: white" /><polygon type="contour" points="11.092115,4.916102 10.854285,4.916102 10.854285,4.832801 11.092115,4.832801" style="fill: white" /><polygon type="contour" points="10.545499,4.916102 10.462899,4.916102 10.462899,4.832801 10.545499,4.832801" style="fill: white" /><polygon type="contour" points="10.154115,4.916102 9.916285,4.916102 9.916285,4.832801 10.154115,4.832801" style="fill: white" /><polygon type="contour" points="10.154115,5.243464 10.154001,5.294791 10.154001,5.391832 10.154115,5.462015 10.08351,5.462321 9.98647,5.462321 9.916285,5.462015 9.916285,5.442851 9.915981,5.391831 9.915981,5.29479 9.916285,5.224302 9.935449,5.224302 9.986469,5.224301 10.154115,5.224301" style="fill: white" /><polygon type="contour" points="10.545499,5.462015 10.462899,5.462015 10.462899,5.224302 10.545499,5.224302" style="fill: white" /><polygon type="contour" points="10.545499,5.854101 10.462899,5.854101 10.462899,5.770801 10.545499,5.770801" style="fill: white" /><polygon type="contour" points="10.154115,5.854101 9.916285,5.854101 9.916285,5.770801 10.154115,5.770801" style="fill: white" /><polygon type="contour" points="10.154115,6.162887 10.154115,6.18205 10.154224,6.200529 10.154115,6.22323 10.154115,6.371471 10.138956,6.371535 10.083511,6.371571 9.986469,6.371571 9.916285,6.371699 9.916175,6.320776 9.916175,6.200529 9.916285,6.162887 9.935449,6.162887 9.986469,6.162581 10.08351,6.162581" style="fill: white" /><polygon type="contour" points="10.545499,6.370338 10.497435,6.370747 10.462899,6.370747 10.462899,6.162887 10.545499,6.162887" style="fill: white" /><polygon type="contour" points="10.923441,6.163001 11.020904,6.163001 11.092115,6.162887 11.092115,6.18205 11.092225,6.200529 11.092267,6.260868 11.092267,6.369202 11.069168,6.369461 11.020904,6.369645 10.972001,6.369645 10.971407,6.36969 10.923441,6.369645 10.854285,6.369598 10.854175,6.31935 10.854175,6.200529 10.854285,6.162887 10.873448,6.162887" style="fill: white" /><polygon type="contour" points="11.092115,5.854101 10.854285,5.854101 10.854285,5.770801 11.092115,5.770801" style="fill: white" /><polygon type="contour" points="11.4842,5.854101 11.400899,5.854101 11.400899,5.770801 11.4842,5.770801" style="fill: white" /><polygon type="contour" points="11.4842,6.368938 11.400899,6.368938 11.400899,6.162887 11.4842,6.162887" style="fill: white" /><polygon type="contour" points="12.0307,6.162887 12.0307,6.18205 12.030924,6.20053 12.0307,6.222544 12.0307,6.367856 12.015654,6.367945 11.96021,6.367651 11.953199,6.367443 11.913101,6.36765 11.86317,6.36807 11.792987,6.368199 11.792876,6.3184 11.792876,6.200529 11.792987,6.162887 11.86317,6.162581 11.96021,6.162581" style="fill: white" /><polygon type="contour" points="12.0307,5.854101 11.792987,5.854101 11.792987,5.770801 12.0307,5.770801" style="fill: white" /><polygon type="contour" points="12.421463,5.810125 12.421463,5.854101 12.338573,5.854101 12.338573,5.815126 12.338571,5.770801 12.421462,5.770801" style="fill: white" /><polygon type="contour" points="12.421613,6.182129 12.421723,6.200529 12.421909,6.223729 12.42176,6.261804 12.421461,6.287853 12.421461,6.367068 12.382135,6.366911 12.338571,6.366933 12.338571,6.277537 12.338713,6.254224 12.338608,6.223729 12.338899,6.200529 12.338899,6.162887 12.421613,6.162887" style="fill: white" /><polygon type="contour" points="12.848701,6.162823 12.931172,6.162777 12.968815,6.162887 12.968815,6.182051 12.968926,6.200529 12.968879,6.283002 12.968964,6.327018 12.968964,6.556965 12.873068,6.556965 12.843616,6.556832 12.811735,6.556847 12.797811,6.556747 12.765498,6.556747 12.764291,6.479926 12.763627,6.452319 12.762158,6.369331 12.679382,6.368074 12.651774,6.367411 12.5749,6.366346 12.574855,6.319966 12.574869,6.288085 12.574737,6.258634 12.574737,6.162739 12.804683,6.162739" style="fill: white" /><polygon type="contour" points="12.968815,5.854101 12.574767,5.854101 12.574767,5.770801 12.968815,5.770801" style="fill: white" /><polygon type="contour" points="13.360902,5.854101 13.277598,5.854101 13.277598,5.770801 13.360902,5.770801" style="fill: white" /><polygon type="contour" points="13.360902,5.462015 13.277598,5.462015 13.277598,5.224302 13.360902,5.224302" style="fill: white" /><polygon type="contour" points="12.968815,5.243464 12.968701,5.294791 12.968702,5.344722 12.968702,5.391832 12.968815,5.462015 12.949651,5.462015 12.931173,5.462126 12.8487,5.462079 12.804683,5.462163 12.574737,5.462163 12.574737,5.418145 12.574767,5.391831 12.574846,5.385102 12.574768,5.368417 12.574768,5.3018 12.574767,5.294791 12.574737,5.224302 12.968815,5.224302" style="fill: white" /><polygon type="contour" points="12.968815,4.916102 12.574767,4.916102 12.574767,4.832801 12.968815,4.832801" style="fill: white" /><polygon type="contour" points="13.360902,4.916102 13.277598,4.916102 13.277598,4.832801 13.360902,4.832801" style="fill: white" /><polygon type="contour" points="13.360902,4.524015 13.277598,4.524015 13.277598,4.159417 13.360902,4.159417" style="fill: white" /><polygon type="contour" points="13.83691,4.159435 13.907402,4.159578 13.9074,4.295379 13.9074,4.45383 13.907402,4.524015 13.888238,4.524015 13.83691,4.523902 13.73987,4.523902 13.669688,4.524015 13.669688,4.504851 13.669382,4.45383 13.669382,4.295379 13.669688,4.159579 13.684757,4.159508 13.739871,4.159435 13.746599,4.159356 13.813272,4.159356 13.829897,4.159294" style="fill: white" /><polygon type="contour" points="14.298902,4.524015 14.215602,4.524015 14.215602,4.24845 14.215601,4.219124 14.215602,4.159417 14.298902,4.159417" style="fill: white" /><polygon type="contour" points="14.298902,4.916102 14.215602,4.916102 14.215602,4.832801 14.298902,4.832801" style="fill: white" /><polygon type="contour" points="13.907402,4.916102 13.669688,4.916102 13.669688,4.832801 13.907402,4.832801" style="fill: white" /><polygon type="contour" points="13.907402,5.224302 13.9074,5.294791 13.9074,5.391831 13.907402,5.462014 13.83691,5.462321 13.73987,5.462321 13.669688,5.462015 13.669688,5.44285 13.669382,5.391831 13.669382,5.29479 13.669688,5.224302 13.688851,5.224302 13.73987,5.224301 13.836911,5.224301" style="fill: white" /><polygon type="contour" points="14.298902,5.462015 14.2156,5.462015 14.2156,5.368417 14.215602,5.3018 14.215602,5.224302 14.298902,5.224302" style="fill: white" /><polygon type="contour" points="14.298902,5.854101 14.2156,5.854101 14.215601,5.81927 14.215602,5.770801 14.298902,5.770801" style="fill: white" /><polygon type="contour" points="13.907402,5.854101 13.669688,5.854101 13.669688,5.770801 13.907402,5.770801" style="fill: white" /><polygon type="contour" points="13.739871,6.163002 13.83691,6.163002 13.907402,6.162887 13.907402,6.18205 13.907401,6.20053 13.907401,6.283001 13.907402,6.327019 13.907402,6.556965 13.863384,6.556965 13.83691,6.556934 13.763284,6.556934 13.746599,6.556856 13.73987,6.556935 13.669538,6.556965 13.669539,6.327017 13.669624,6.283001 13.669577,6.200529 13.669688,6.162887 13.68885,6.162887" style="fill: white" /><polygon type="contour" points="13.73987,8.977702 13.83691,8.977702 13.907402,8.977588 13.907402,8.996752 13.9074,9.048191 13.9074,9.145231 13.907402,9.215414 13.83691,9.215721 13.73987,9.215721 13.669688,9.215415 13.669382,9.145231 13.669382,9.048191 13.669688,8.977588 13.688851,8.977588" style="fill: white" /><polygon type="contour" points="13.907402,8.668801 13.669688,8.668801 13.669688,8.586201 13.907402,8.586201" style="fill: white" /><polygon type="contour" points="14.298902,7.7308 14.215602,7.7308 14.215602,7.647501 14.298902,7.647501" style="fill: white" /><polygon type="contour" points="13.907402,7.7308 13.669688,7.7308 13.669688,7.647501 13.907402,7.647501" style="fill: white" /><polygon type="contour" points="13.907402,8.039586 13.907402,8.277417 13.888237,8.277417 13.836911,8.277303 13.739869,8.277303 13.669686,8.277417 13.669686,8.258253 13.669799,8.20826 13.669799,8.159356 13.6698,8.110796 13.669688,8.039587 13.688851,8.039587 13.73987,8.039282 13.836911,8.039282" style="fill: white" /><polygon type="contour" points="14.298902,8.277417 14.215602,8.277417 14.215602,8.039587 14.298902,8.039587" style="fill: white" /><polygon type="contour" points="14.298902,8.668801 14.215602,8.668801 14.215602,8.586201 14.298902,8.586201" style="fill: white" /><polygon type="contour" points="14.972285,9.572671 14.972122,9.607501 14.607688,9.607501 14.607688,9.524201 14.972285,9.524201" style="fill: white" /><polygon type="contour" points="14.972121,9.916287 14.972266,9.986472 14.972345,9.993201 14.972384,9.999063 14.972384,10.076502 14.97228,10.076502 14.972121,10.154117 14.83632,10.154002 14.67787,10.154002 14.607688,10.154117 14.607688,10.134952 14.6078,10.083513 14.6078,9.986471 14.607688,9.916287 14.626851,9.916287 14.67787,9.915982 14.83632,9.915982" style="fill: white" /><polygon type="contour" points="14.972285,10.510964 14.972122,10.545501 14.607688,10.545501 14.607688,10.462901 14.972285,10.462901" style="fill: white" /><polygon type="contour" points="14.298902,11.484203 14.215602,11.484203 14.215602,11.400901 14.298902,11.400901" style="fill: white" /><polygon type="contour" points="14.298902,11.092117 14.215602,11.092117 14.215602,10.929802 14.215601,10.923442 14.2156,10.854287 14.298902,10.854287" style="fill: white" /><polygon type="contour" points="14.67787,10.854401 14.83632,10.854401 14.972121,10.854287 14.971987,10.923443 14.971988,10.929802 14.972244,10.953457 14.972274,10.976808 14.971949,11.006955 14.971988,11.013103 14.971987,11.020907 14.972121,11.092117 14.83632,11.092422 14.677871,11.092422 14.607688,11.092117 14.607802,11.020906 14.607802,10.923442 14.607688,10.854287 14.626851,10.854287" style="fill: white" /><polygon type="contour" points="14.972129,11.43791 14.972129,11.484203 14.607688,11.484203 14.607688,11.400901 14.972285,11.400901" style="fill: white" /><polygon type="contour" points="14.972121,11.79299 14.972266,11.863173 14.972345,11.869901 14.972345,11.9532 14.972266,11.960212 14.972121,12.030703 14.83632,12.030702 14.67787,12.030702 14.607688,12.030703 14.6078,11.960212 14.6078,11.863172 14.607688,11.79299 14.626851,11.79299 14.67787,11.792683 14.83632,11.792683" style="fill: white" /><polygon type="contour" points="14.972505,12.338573 14.972297,12.382852 14.972149,12.421462 14.894303,12.421567 14.774391,12.422025 14.701671,12.422025 14.699041,12.422048 14.695198,12.422026 14.607607,12.421696 14.607688,12.421615 14.607688,12.338901 14.67787,12.338901 14.695199,12.338725 14.699042,12.338748 14.764058,12.338748 14.829623,12.33847 14.874844,12.338423" style="fill: white" /><polygon type="contour" points="14.67787,12.574769 14.695199,12.574768 14.699041,12.574925 14.701671,12.574797 14.774391,12.574797 14.825672,12.574769 14.972453,12.574769 15.002779,12.574969 15.019866,12.574905 15.108953,12.574774 15.162754,12.574854 15.162754,12.881962 15.162692,12.907994 15.121846,12.907848 15.108953,12.907974 14.972219,12.907811 14.97212,12.968817 14.83632,12.968702 14.67787,12.968702 14.607688,12.968817 14.607688,12.949652 14.607577,12.931175 14.607802,12.848702 14.607802,12.574739 14.651557,12.574739" style="fill: white" /><polygon type="contour" points="14.298902,12.968817 14.2156,12.968817 14.2156,12.949652 14.215601,12.931174 14.215602,12.907975 14.215602,12.574769 14.298902,12.574769" style="fill: white" /><polygon type="contour" points="13.73987,12.574769 13.7466,12.574848 13.763284,12.57477 13.8299,12.57477 13.83691,12.574769 13.907402,12.574739 13.907402,12.804685 13.907401,12.848703 13.907401,12.931175 13.907402,12.968817 13.888237,12.968817 13.836911,12.968702 13.73987,12.968702 13.669688,12.968817 13.669688,12.949652 13.669577,12.931175 13.669624,12.848702 13.669539,12.804686 13.669538,12.574739 13.713555,12.574739" style="fill: white" /><polygon type="contour" points="13.836911,12.338901 13.907402,12.338901 13.907402,12.421615 13.888274,12.421615 13.836911,12.421922 13.829899,12.422062 13.813272,12.422063 13.746599,12.422063 13.739871,12.421922 13.669688,12.421615 13.669688,12.338901 13.739871,12.338901 13.7466,12.338761 13.829899,12.338761" style="fill: white" /><polygon type="contour" points="14.259927,12.338574 14.298902,12.338574 14.298902,12.421463 14.215601,12.421463 14.215601,12.338573" style="fill: white" /><polygon type="contour" points="14.298902,12.030703 14.215602,12.030703 14.215602,11.79299 14.298902,11.79299" style="fill: white" /><polygon type="contour" points="13.907402,11.79299 13.907402,11.812152 13.9074,11.863172 13.9074,11.913101 13.907402,11.932266 13.907402,12.030703 13.836911,12.030702 13.73987,12.030702 13.669688,12.030703 13.669382,11.960211 13.669382,11.863172 13.669688,11.79299 13.688851,11.79299 13.73987,11.792683 13.83691,11.792683" style="fill: white" /><polygon type="contour" points="13.907402,11.484203 13.669688,11.484203 13.669688,11.400901 13.907402,11.400901" style="fill: white" /><polygon type="contour" points="12.931172,10.854177 12.968815,10.854287 12.968815,10.87345 12.968702,10.923443 12.968702,11.020907 12.968815,11.092117 12.949652,11.092117 12.931172,11.092227 12.870834,11.092269 12.762501,11.092269 12.762241,11.069171 12.762057,11.020906 12.762057,10.972003 12.762011,10.97141 12.762056,10.923442 12.762102,10.854286 12.812351,10.854176" style="fill: white" /><polygon type="contour" points="12.968815,10.545501 12.761362,10.545501 12.760956,10.497438 12.760956,10.462901 12.968815,10.462901" style="fill: white" /><polygon type="contour" points="13.360902,10.545501 13.277598,10.545501 13.277598,10.462901 13.360902,10.462901" style="fill: white" /><polygon type="contour" points="13.360902,10.154117 13.277598,10.154117 13.277598,9.916287 13.360902,9.916287" style="fill: white" /><polygon type="contour" points="12.968815,9.916287 12.969121,9.986471 12.969121,10.083512 12.968815,10.154117 12.949652,10.154117 12.931172,10.154227 12.908474,10.154117 12.760229,10.154117 12.760166,10.138958 12.760132,10.083512 12.760132,9.986471 12.760002,9.916287 12.810924,9.916177 12.931172,9.916177" style="fill: white" /><polygon type="contour" points="12.968815,9.607501 12.759316,9.607501 12.758899,9.602614 12.758899,9.566201 12.759316,9.552391 12.759316,9.524201 12.968815,9.524201" style="fill: white" /><polygon type="contour" points="13.360902,9.607501 13.277598,9.607501 13.277598,9.524201 13.360902,9.524201" style="fill: white" /><polygon type="contour" points="13.360902,9.215415 13.277598,9.215415 13.277598,8.977588 13.360902,8.977588" style="fill: white" /><polygon type="contour" points="12.968815,8.977588 12.968815,8.996752 12.969121,9.048191 12.969121,9.145231 12.968815,9.215415 12.949651,9.215415 12.931173,9.215526 12.908245,9.215415 12.760002,9.215415 12.760132,9.145231 12.760132,9.048191 12.76023,8.977588 12.810925,8.977477 12.931172,8.977477" style="fill: white" /><polygon type="contour" points="12.968815,8.668801 12.760956,8.668801 12.760956,8.634263 12.761362,8.586201 12.968815,8.586201" style="fill: white" /><polygon type="contour" points="13.360902,8.668801 13.277598,8.668801 13.277598,8.586201 13.360902,8.586201" style="fill: white" /><polygon type="contour" points="13.360902,8.277417 13.277598,8.277417 13.277598,8.039587 13.360902,8.039587" style="fill: white" /><polygon type="contour" points="12.968815,8.039587 12.968702,8.110796 12.968702,8.20826 12.968815,8.277417 12.949652,8.277417 12.931173,8.277527 12.908586,8.277417 12.762104,8.277417 12.762057,8.20826 12.762057,8.110796 12.762332,8.039587 12.812352,8.039477 12.931172,8.039477" style="fill: white" /><polygon type="contour" points="12.968815,7.7308 12.762764,7.7308 12.762764,7.647501 12.968815,7.647501" style="fill: white" /><polygon type="contour" points="13.360902,7.7308 13.277598,7.7308 13.277598,7.647501 13.360902,7.647501" style="fill: white" /><polygon type="contour" points="13.360902,7.338714 13.277598,7.338714 13.277598,7.101001 13.360902,7.101001" style="fill: white" /><polygon type="contour" points="12.931173,7.100777 12.968815,7.101001 12.969121,7.17149 12.969121,7.26853 12.968815,7.338714 12.949651,7.338714 12.931173,7.338825 12.908816,7.338714 12.763504,7.338714 12.763579,7.323645 12.763633,7.26853 12.763699,7.245175 12.764258,7.178501 12.764051,7.17149 12.763846,7.101 12.813303,7.100776" style="fill: white" /><polygon type="contour" points="12.968815,6.792801 12.931172,6.792801 12.907974,6.793092 12.877477,6.792987 12.854164,6.793129 12.76477,6.793129 12.764593,6.748479 12.764633,6.709541 12.843847,6.709541 12.869897,6.709722 12.907974,6.709501 12.931173,6.709501 12.968815,6.709387" style="fill: white" /><polygon type="contour" points="13.360902,6.556747 13.277598,6.556747 13.277598,6.162887 13.360902,6.162887" style="fill: white" /><polygon type="contour" points="13.360902,6.793129 13.277598,6.793129 13.277598,6.70954 13.360902,6.70954" style="fill: white" /><polygon type="contour" points="13.73987,6.709501 13.83691,6.709501 13.907402,6.709387 13.907402,6.792801 13.836911,6.792801 13.829899,6.792941 13.7466,6.792941 13.739871,6.792801 13.669688,6.792801 13.669688,6.709387 13.688815,6.709387" style="fill: white" /><polygon type="contour" points="13.73987,7.101001 13.907402,7.101001 13.9074,7.171491 13.9074,7.26853 13.907402,7.338714 13.888238,7.338714 13.83691,7.339021 13.739871,7.339021 13.669688,7.338713 13.669688,7.319551 13.669382,7.26853 13.669382,7.218601 13.669688,7.199436 13.669688,7.101 13.688851,7.101" style="fill: white" /><polygon type="contour" points="14.285327,7.101001 14.298902,7.101001 14.298902,7.338714 14.215602,7.338714 14.215602,7.178501 14.2156,7.17149 14.215599,7.101" style="fill: white" /><polygon type="contour" points="14.298902,6.556747 14.215602,6.556747 14.215602,6.223728 14.215601,6.200529 14.2156,6.162887 14.298902,6.162887" style="fill: white" /><polygon type="contour" points="14.298902,6.793129 14.215602,6.793129 14.215602,6.70954 14.298902,6.70954" style="fill: white" /><polygon type="contour" points="14.67787,6.709501 14.699041,6.709501 14.701671,6.70959 14.77439,6.70959 14.972149,6.709541 14.972332,6.749195 14.972505,6.793129 14.886066,6.793078 14.768905,6.792872 14.764059,6.792955 14.699042,6.792955 14.695198,6.792978 14.67787,6.792801 14.607688,6.792801 14.607688,6.709387 14.626929,6.709387" style="fill: white" /><polygon type="contour" points="14.67787,7.101002 14.83632,7.101002 14.972121,7.101001 14.972102,7.114344 14.972102,7.116046 14.972266,7.17149 14.972345,7.178501 14.972345,7.261802 14.972266,7.26853 14.972121,7.338714 14.83632,7.339021 14.677871,7.339021 14.607688,7.338714 14.6078,7.268531 14.6078,7.17149 14.607688,7.101001 14.626851,7.101001" style="fill: white" /><polygon type="contour" points="14.972434,7.685905 14.972434,7.7308 14.607688,7.7308 14.607688,7.647501 14.972285,7.647501" style="fill: white" /><polygon type="contour" points="14.972121,8.039587 14.971986,8.110796 14.971988,8.118601 14.971949,8.124748 14.971988,8.135798 14.971988,8.201901 14.971987,8.20826 14.972121,8.277417 14.83632,8.277303 14.67787,8.277303 14.607688,8.277417 14.607688,8.258252 14.607802,8.20826 14.607802,8.110797 14.607688,8.039587 14.626851,8.039587 14.67787,8.039282 14.83632,8.039282" style="fill: white" /><polygon type="contour" points="14.972231,8.623009 14.972231,8.668801 14.607688,8.668801 14.607688,8.586201 14.972285,8.586201" style="fill: white" /><polygon type="contour" points="14.67787,8.977702 14.83632,8.977702 14.972121,8.977588 14.972266,9.048191 14.972345,9.055202 14.972345,9.138502 14.972266,9.145231 14.972121,9.215415 14.83632,9.215721 14.67787,9.215721 14.607688,9.215415 14.6078,9.145232 14.6078,9.048192 14.607688,8.977588 14.626851,8.977588" style="fill: white" /><polygon type="contour" points="14.298902,9.215415 14.2156,9.215415 14.2156,9.196251 14.215601,9.145231 14.215602,9.138501 14.215602,8.977588 14.298902,8.977588" style="fill: white" /><polygon type="contour" points="14.298902,9.607501 14.215602,9.607501 14.215602,9.524201 14.298902,9.524201" style="fill: white" /><polygon type="contour" points="13.907402,9.607501 13.669688,9.607501 13.669688,9.524201 13.907402,9.524201" style="fill: white" /><polygon type="contour" points="13.907402,9.916287 13.9074,9.986472 13.9074,10.083512 13.907402,10.154117 13.83691,10.154002 13.73987,10.154002 13.669688,10.154117 13.669688,10.134952 13.669382,10.083512 13.669382,9.986471 13.669688,9.916287 13.688851,9.916287 13.73987,9.915982 13.836911,9.915982" style="fill: white" /><polygon type="contour" points="14.298902,10.154117 14.215602,10.154117 14.215602,9.916287 14.298902,9.916287" style="fill: white" /><polygon type="contour" points="14.298902,10.545501 14.215602,10.545501 14.215602,10.462901 14.298902,10.462901" style="fill: white" /><polygon type="contour" points="13.907402,10.545501 13.669688,10.545501 13.669688,10.462901 13.907402,10.462901" style="fill: white" /><polygon type="contour" points="13.73987,10.854401 13.83691,10.854401 13.907402,10.854287 13.907402,11.092117 13.888238,11.092117 13.83691,11.092422 13.739871,11.092422 13.669688,11.092116 13.6698,11.020907 13.6698,10.923443 13.669688,10.854287 13.688851,10.854287" style="fill: white" /><polygon type="contour" points="13.360902,11.092117 13.277598,11.092117 13.277598,10.854287 13.360902,10.854287" style="fill: white" /><polygon type="contour" points="13.360902,11.484203 13.277598,11.484203 13.277598,11.400901 13.360902,11.400901" style="fill: white" /><polygon type="contour" points="12.968815,11.484203 12.762764,11.484203 12.762764,11.400901 12.968815,11.400901" style="fill: white" /><polygon type="contour" points="12.968815,11.79299 12.968815,11.812152 12.969121,11.863172 12.969121,11.913102 12.968815,11.932267 12.968815,12.030703 12.949652,12.030703 12.931172,12.030927 12.909158,12.030703 12.763846,12.030703 12.763758,12.015657 12.764052,11.960212 12.764259,11.9532 12.764052,11.913102 12.763633,11.863172 12.763504,11.79299 12.813302,11.792879 12.931172,11.792879" style="fill: white" /><polygon type="contour" points="13.360902,12.030703 13.277598,12.030703 13.277598,11.79299 13.360902,11.79299" style="fill: white" /><polygon type="contour" points="13.360902,12.421463 13.277598,12.421463 13.277598,12.338574 13.360902,12.338574" style="fill: white" /><polygon type="contour" points="12.877477,12.338715 12.907973,12.33861 12.931173,12.338901 12.968815,12.338901 12.968815,12.421615 12.949573,12.421615 12.931173,12.421725 12.907973,12.421911 12.869897,12.421761 12.843847,12.421462 12.764633,12.421462 12.76479,12.382137 12.76477,12.338574 12.854164,12.338574" style="fill: white" /><polygon type="contour" points="12.968964,12.804686 12.968879,12.848702 12.968926,12.931174 12.968815,12.968817 12.949652,12.968817 12.931173,12.968927 12.848701,12.968881 12.804683,12.968965 12.574737,12.968965 12.574737,12.873069 12.574869,12.843617 12.574855,12.811736 12.574767,12.797812 12.574767,12.765499 12.651774,12.764293 12.679383,12.763628 12.76237,12.76216 12.763627,12.679384 12.764292,12.651776 12.765356,12.574902 12.811735,12.574857 12.843616,12.574871 12.873068,12.574739 12.968964,12.574739" style="fill: white" /><polygon type="contour" points="13.360902,12.968817 13.277598,12.968817 13.277598,12.574769 13.360902,12.574769" style="fill: white" /><polygon type="contour" points="13.360902,13.360903 13.277598,13.360903 13.277598,13.2776 13.360902,13.2776" style="fill: white" /><polygon type="contour" points="13.360902,13.907403 13.277598,13.907403 13.277598,13.669689 13.360902,13.669689" style="fill: white" /><polygon type="contour" points="13.360902,14.298903 13.277598,14.298903 13.277598,14.215603 13.360902,14.215603" style="fill: white" /><polygon type="contour" points="13.73987,14.607802 13.83691,14.607802 13.907402,14.607689 13.907402,14.626852 13.9074,14.677872 13.9074,14.836324 13.907402,14.972124 13.892356,14.972105 13.83691,14.972269 13.8299,14.97241 13.813272,14.972348 13.746599,14.972348 13.739871,14.972269 13.669688,14.972124 13.669382,14.836323 13.669382,14.677872 13.669688,14.607688 13.688851,14.607688" style="fill: white" /><polygon type="contour" points="13.907402,14.298903 13.669688,14.298903 13.669688,14.215603 13.907402,14.215603" style="fill: white" /><polygon type="contour" points="14.298902,14.298903 14.215602,14.298903 14.215602,14.215603 14.298902,14.215603" style="fill: white" /><polygon type="contour" points="14.298902,13.907403 14.215602,13.907403 14.215602,13.829902 14.2156,13.763286 14.2156,13.746601 14.215601,13.739871 14.215602,13.669689 14.298902,13.669689" style="fill: white" /><polygon type="contour" points="13.907402,13.669689 13.907402,13.688851 13.9074,13.739871 13.9074,13.836912 13.907402,13.907403 13.888237,13.907403 13.836911,13.907402 13.73987,13.907402 13.669688,13.907403 13.669382,13.836912 13.669382,13.739871 13.669688,13.669689 13.68885,13.669689 13.739871,13.669383 13.83691,13.669383" style="fill: white" /><polygon type="contour" points="13.907402,13.360903 13.669688,13.360903 13.669688,13.2776 13.907402,13.2776" style="fill: white" /><polygon type="contour" points="14.298902,13.360903 14.215602,13.360903 14.215602,13.2776 14.298902,13.2776" style="fill: white" /><polygon type="contour" points="14.972285,13.360903 14.607688,13.360903 14.607688,13.2776 14.972285,13.2776" style="fill: white" /><polygon type="contour" points="14.972121,13.669689 14.972102,13.684757 14.972265,13.739872 14.972345,13.746601 14.972407,13.763286 14.972407,13.829901 14.972266,13.836912 14.972121,13.907403 14.83632,13.907402 14.67787,13.907402 14.607688,13.907403 14.6078,13.836913 14.6078,13.739871 14.607688,13.669689 14.62685,13.669689 14.677871,13.669383 14.83632,13.669383" style="fill: white" /><polygon type="contour" points="14.972285,14.298903 14.607688,14.298903 14.607688,14.215603 14.972285,14.215603" style="fill: white" /><polygon type="contour" points="14.972102,14.622847 14.972266,14.677872 14.972266,14.75748 14.972409,14.760554 14.972379,14.829581 15.029742,14.82946 15.108953,14.829475 15.162692,14.829491 15.162467,15.055831 15.162536,15.086689 15.162536,15.162539 14.833222,15.162884 14.831269,15.162547 14.829342,15.162543 14.829366,15.157887 14.82935,15.154809 14.82935,14.972088 14.77491,14.972269 14.764059,14.972425 14.699042,14.972425 14.695199,14.972445 14.67787,14.972269 14.622845,14.972105 14.607688,14.972124 14.6078,14.836323 14.6078,14.677872 14.607688,14.607689 14.626851,14.607689 14.67787,14.607802 14.836321,14.607802 14.972121,14.607688" style="fill: white" />
</svg>
