<svg width="19.131698" height="19.131699">
<polygon type="contour" points="11.499652,10.143209 11.499206,10.378685 11.499221,10.436816 11.2142,10.436816 11.214202,10.19664 11.214274,10.14276 11.26376,10.142749" style="fill: white" /><polygon type="contour" points="8.99029,9.432656 8.990395,9.564819 8.990375,9.587547 8.99029,9.681155 8.99029,9.699048 8.744139,9.699048 8.696904,9.699116 8.697048,9.593703 8.697048,9.544833 8.696904,9.451439 8.696904,9.432588 8.940834,9.432588" style="fill: white" /><polygon type="contour" points="8.988411,8.93162 8.988491,8.988494 8.751274,8.988947 8.694998,8.988859 8.694998,8.930119 8.695136,8.815503 8.695136,8.695136 8.928087,8.694888 8.988742,8.694888" style="fill: white" /><polygon type="contour" points="10.434737,8.202393 10.434616,8.295366 10.434616,8.307613 10.434927,8.396301 10.434927,8.415086 10.141629,8.415086 10.143011,8.371055 10.141293,8.321206 10.141301,8.306436 10.141352,8.21692 10.14137,8.202391 10.388494,8.202391" style="fill: white" /><polygon type="contour" points="10.822106,8.697087 10.834572,8.697087 10.914082,8.696965 10.929309,8.696965 10.929309,8.943355 10.929311,8.99033 10.91478,8.990347 10.826735,8.990399 10.716616,8.990074 10.716616,8.696774" style="fill: white" /><polygon type="contour" points="10.316198,8.695137 10.436565,8.695137 10.436813,8.928088 10.436813,8.988743 10.200079,8.988414 10.143207,8.988494 10.14287,8.753019 10.142959,8.694888 10.203612,8.694888" style="fill: white" /><polygon type="contour" points="9.699114,8.940834 9.699045,8.990292 9.566884,8.990397 9.544155,8.990377 9.450547,8.990292 9.432655,8.990292 9.432655,8.744142 9.432587,8.696907 9.538,8.69705 9.586868,8.69705 9.68026,8.696907 9.699114,8.696907" style="fill: white" /><polygon type="contour" points="9.698846,9.538998 9.698846,9.587547 9.699045,9.681154 9.699045,9.699048 9.592703,9.698848 9.544155,9.698848 9.450547,9.699048 9.432655,9.699048 9.432855,9.593367 9.432855,9.54482 9.432655,9.450549 9.432655,9.432656 9.538334,9.432857 9.586881,9.432857 9.681151,9.432656 9.699045,9.432656" style="fill: white" /><polygon type="contour" points="9.586882,10.141328 9.681152,10.141413 9.699045,10.141413 9.699045,10.387561 9.699114,10.434797 9.593039,10.434654 9.54417,10.434654 9.451438,10.434797 9.432587,10.434797 9.432587,10.190868 9.432655,10.141413 9.563993,10.141307" style="fill: white" /><polygon type="contour" points="9.680566,11.212433 9.699128,11.212433 9.699128,11.310542 9.699045,11.329472 9.681674,11.329428 9.565443,11.328756 9.450024,11.329429 9.432655,11.329473 9.427637,11.23156 9.427582,11.212694 9.556784,11.212049" style="fill: white" /><polygon type="contour" points="9.699107,10.832209 9.698883,10.914782 9.698964,10.929313 9.567058,10.929452 9.546605,10.929427 9.544165,10.929425 9.450371,10.929313 9.432737,10.929313 9.432591,10.836305 9.432622,10.830336 9.432593,10.822106 9.432742,10.807275 9.432749,10.805764 9.432587,10.715985 9.538,10.716425 9.586869,10.716425 9.68026,10.715985 9.699114,10.715985" style="fill: white" /><polygon type="contour" points="10.434616,10.822106 10.434616,10.834574 10.434737,10.914084 10.434737,10.929311 10.188344,10.929311 10.141369,10.929313 10.141301,10.826267 10.14154,10.734568 10.141629,10.716618 10.434927,10.716618" style="fill: white" /><polygon type="contour" points="10.436565,11.33244 10.436565,11.499459 10.32937,11.49993 10.143172,11.499311 10.143286,11.469968 10.142964,11.467205 10.142964,11.435504 10.14296,11.433995 10.142808,11.385139 10.142573,11.267896 10.142552,11.233498 10.142563,11.214109 10.385112,11.214109 10.436506,11.214039" style="fill: white" /><polygon type="contour" points="10.914323,11.212412 10.929311,11.212412 10.929311,11.32946 10.836304,11.329095 10.82724,11.329079 10.822106,11.329099 10.716616,11.329579 10.716616,11.212471 10.826518,11.21223" style="fill: white" /><polygon type="contour" points="11.415304,11.214276 11.447781,11.214668 11.449297,11.215041 11.500819,11.215441 11.500689,11.378061 11.505527,11.505529 11.274507,11.503716 11.214098,11.49913 11.214098,11.2141 11.331128,11.2141 11.378606,11.213968" style="fill: white" /><polygon type="contour" points="11.329099,10.822106 11.329078,10.827241 11.329093,10.836304 11.329458,10.929313 11.21241,10.929313 11.21241,10.914324 11.212227,10.826533 11.212469,10.716618 11.329577,10.716618" style="fill: white" /><polygon type="contour" points="10.914081,10.716411 10.929309,10.716411 10.929087,10.822106 10.929087,10.834573 10.929311,10.914324 10.929311,10.929313 10.836303,10.929089 10.822105,10.929089 10.71641,10.929311 10.716291,10.827115 10.716616,10.735402 10.716616,10.716618 10.825987,10.716292" style="fill: white" /><polygon type="contour" points="10.91478,10.141354 10.929311,10.141372 10.929311,10.388496 10.929309,10.434739 10.914082,10.434739 10.834573,10.434617 10.822106,10.434617 10.716616,10.43493 10.716616,10.14163 10.826679,10.141304" style="fill: white" /><polygon type="contour" points="10.436702,10.142843 10.436702,10.201581 10.436565,10.316201 10.436565,10.436567 10.203613,10.436816 10.142959,10.436816 10.143287,10.200082 10.143207,10.143209 10.380425,10.142754" style="fill: white" /><polygon type="contour" points="10.434652,9.538662 10.434652,9.587532 10.434796,9.680264 10.434796,9.699116 10.190866,9.699116 10.141411,9.699048 10.141305,9.567708 10.141326,9.54482 10.141326,9.544819 10.141411,9.450548 10.141411,9.432656 10.38756,9.432656 10.434796,9.432588" style="fill: white" /><polygon type="contour" points="10.832244,9.432595 10.914781,9.432819 10.929311,9.432738 10.92945,9.564644 10.929311,9.68133 10.929311,9.698965 10.836304,9.699112 10.835954,9.69911 10.733198,9.699048 10.715984,9.699116 10.716424,9.593702 10.716424,9.544833 10.715984,9.451439 10.715984,9.432588" style="fill: white" /><polygon type="contour" points="11.32947,9.432656 11.329427,9.450025 11.328754,9.566259 11.329426,9.681677 11.329471,9.699048 11.230776,9.699048 11.212431,9.699131 11.21207,9.567765 11.212431,9.451134 11.212431,9.432573 11.31054,9.432573" style="fill: white" /><polygon type="contour" points="11.499661,8.931619 11.499651,8.988494 11.46854,8.988494 11.234299,8.988956 11.214274,8.988945 11.213789,8.749926 11.213716,8.694888 11.499221,8.694888" style="fill: white" /><polygon type="contour" points="11.505281,7.850396 11.500853,7.916236 11.447781,7.917036 11.415304,7.917427 11.378606,7.917736 11.331128,7.917604 11.214098,7.917604 11.214098,7.632574 11.361161,7.632015 11.505527,7.626176" style="fill: white" /><polygon type="contour" points="11.329093,8.295399 11.329078,8.30446 11.329099,8.309597 11.329577,8.415086 11.212469,8.415086 11.212227,8.305169 11.21241,8.217379 11.21241,8.202391 11.329458,8.202391" style="fill: white" /><polygon type="contour" points="10.929087,8.295398 10.929087,8.309597 10.929309,8.415293 10.827093,8.41541 10.824089,8.4154 10.824088,8.4154 10.735399,8.415086 10.716616,8.415086 10.716302,8.309597 10.716302,8.295367 10.71641,8.202393 10.822105,8.202615 10.834572,8.202615 10.914322,8.202391 10.929311,8.202391" style="fill: white" /><polygon type="contour" points="10.822105,7.802602 10.826986,7.802625 10.836303,7.802609 10.929311,7.802243 10.929311,7.919292 10.914323,7.919292 10.828983,7.919468 10.715097,7.919393 10.716616,7.822259 10.716616,7.802125" style="fill: white" /><polygon type="contour" points="10.436565,7.731463 10.436506,7.897263 10.436506,7.917665 10.194754,7.917665 10.142563,7.917596 10.142574,7.863806 10.14296,7.697709 10.142964,7.664498 10.143172,7.632393 10.256954,7.6328 10.436565,7.632244" style="fill: white" /><polygon type="contour" points="9.704063,7.900144 9.704118,7.91901 9.566952,7.919689 9.446666,7.91901 9.427583,7.91901 9.432572,7.821161 9.432655,7.802231 9.450024,7.802275 9.565443,7.802947 9.681674,7.802275 9.699045,7.802231" style="fill: white" /><polygon type="contour" points="9.586874,8.202279 9.681329,8.202391 9.698964,8.202391 9.69911,8.295399 9.699078,8.301363 9.699107,8.309597 9.698958,8.324446 9.698951,8.325926 9.699114,8.415717 9.59304,8.41528 9.544171,8.41528 9.451438,8.415717 9.432587,8.415717 9.432593,8.299493 9.432818,8.21692 9.432737,8.202391 9.563819,8.202251" style="fill: white" /><polygon type="contour" points="8.988947,8.24163 8.990439,8.290183 8.990398,8.305713 8.99016,8.397137 8.990072,8.415086 8.696773,8.415086 8.697084,8.309597 8.697084,8.297129 8.696963,8.217618 8.696963,8.202393 8.943353,8.202393 8.990328,8.202391" style="fill: white" /><polygon type="contour" points="8.988528,7.632393 8.988414,7.661735 8.988735,7.664499 8.988735,7.696198 8.988739,7.697708 8.988889,7.746564 8.989126,7.863806 8.989148,7.898207 8.989138,7.917596 8.746587,7.917596 8.695193,7.917665 8.695136,7.799263 8.695136,7.632244 8.80233,7.631774" style="fill: white" /><polygon type="contour" points="7.857193,7.627989 7.917602,7.632574 7.917602,7.917604 7.800571,7.917604 7.753094,7.917736 7.716395,7.917427 7.683917,7.917036 7.682402,7.916661 7.63088,7.916264 7.631011,7.753643 7.626174,7.626176" style="fill: white" /><polygon type="contour" points="8.415085,7.919234 8.305171,7.919473 8.217377,7.919292 8.202389,7.919292 8.202389,7.802243 8.295396,7.802609 8.30471,7.802625 8.309594,7.802603 8.415085,7.802125" style="fill: white" /><polygon type="contour" points="8.295396,8.202615 8.309595,8.202615 8.415291,8.202393 8.415409,8.304588 8.415085,8.396301 8.415085,8.415086 8.305713,8.415411 8.297127,8.4154 8.217616,8.415293 8.202392,8.415293 8.202613,8.309597 8.202613,8.297129 8.202389,8.217379 8.202389,8.202391" style="fill: white" /><polygon type="contour" points="7.919291,8.217379 7.919473,8.304925 7.919232,8.415086 7.802123,8.415086 7.8026,8.309597 7.802621,8.30446 7.802606,8.295399 7.802242,8.202391 7.919291,8.202391" style="fill: white" /><polygon type="contour" points="7.917499,8.935064 7.917426,8.988945 7.86794,8.988956 7.632048,8.988494 7.632493,8.753018 7.632479,8.694888 7.9175,8.694888" style="fill: white" /><polygon type="contour" points="8.415085,8.990074 8.304965,8.990399 8.216919,8.990347 8.202389,8.99033 8.202389,8.743207 8.202391,8.696965 8.217616,8.696965 8.297127,8.697087 8.309594,8.697087 8.415085,8.696774" style="fill: white" /><polygon type="contour" points="8.415277,9.538662 8.415277,9.587531 8.415715,9.680264 8.415715,9.699116 8.299491,9.699109 8.216918,9.698885 8.202389,9.698965 8.202249,9.567883 8.202389,9.450373 8.202389,9.432739 8.294591,9.432594 8.295397,9.432593 8.295775,9.432594 8.3985,9.432656 8.415715,9.432588" style="fill: white" /><polygon type="contour" points="7.91965,9.57163 7.919008,9.685037 7.919008,9.704121 7.821159,9.699131 7.802229,9.699048 7.802273,9.681677 7.802945,9.566259 7.802273,9.450025 7.802229,9.432656 7.900923,9.432656 7.919269,9.432573" style="fill: white" /><polygon type="contour" points="7.917586,10.14265 7.917911,10.381777 7.917985,10.436816 7.632479,10.436816 7.632039,10.200082 7.632048,10.143209 7.663158,10.143209 7.896442,10.142639" style="fill: white" /><polygon type="contour" points="8.415085,10.14163 8.415085,10.43493 8.309594,10.434617 8.297127,10.434617 8.217616,10.434739 8.202392,10.434739 8.202392,10.188347 8.202389,10.141372 8.216919,10.141354 8.305021,10.141304" style="fill: white" /><polygon type="contour" points="8.931617,10.143289 8.988491,10.143209 8.988831,10.378684 8.988741,10.436816 8.928087,10.436816 8.815502,10.436567 8.695135,10.436567 8.694887,10.203615 8.694887,10.142961" style="fill: white" /><polygon type="contour" points="8.990398,10.826751 8.990345,10.914782 8.990328,10.929313 8.743206,10.929313 8.696963,10.929311 8.697084,10.836337 8.697084,10.82409 8.696773,10.735401 8.696773,10.716618 8.990072,10.716618" style="fill: white" /><polygon type="contour" points="8.989138,11.214109 8.989148,11.233497 8.989126,11.267897 8.988889,11.385139 8.98874,11.433995 8.988735,11.467204 8.988528,11.499311 8.874744,11.498904 8.695136,11.499459 8.695136,11.40024 8.695193,11.234441 8.695193,11.214039 8.936945,11.214039" style="fill: white" /><polygon type="contour" points="8.415085,11.212471 8.415085,11.329579 8.309594,11.329099 8.304457,11.329079 8.295397,11.329094 8.202389,11.32946 8.202389,11.212412 8.217377,11.212412 8.305181,11.21223" style="fill: white" /><polygon type="contour" points="8.307611,10.716304 8.307612,10.716304 8.396301,10.716618 8.415085,10.716618 8.415399,10.822106 8.415399,10.836336 8.415291,10.929311 8.309595,10.929089 8.297126,10.929089 8.217377,10.929313 8.202389,10.929313 8.202613,10.836305 8.202613,10.822106 8.202392,10.716411 8.304607,10.716293" style="fill: white" /><polygon type="contour" points="7.919473,10.826777 7.919291,10.914324 7.919291,10.929313 7.802242,10.929313 7.802606,10.836304 7.802621,10.827241 7.8026,10.822106 7.802123,10.716618 7.919232,10.716618" style="fill: white" /><polygon type="contour" points="7.800571,11.2141 7.917602,11.2141 7.917602,11.49913 7.770539,11.49969 7.626174,11.505529 7.62642,11.281308 7.630847,11.215468 7.683917,11.214667 7.716395,11.214276 7.753094,11.213968" style="fill: white" />
</svg>
