<svg width="19.131698" height="19.131699">
<polygon type="contour" points="6.202901,11.098207 6.202952,11.165984 6.202901,11.388422 6.107782,11.388422 6.095845,11.388433 5.937592,11.388433 5.925114,11.388447 5.9088,11.388447 5.909018,11.340181 5.909502,11.322993 5.908973,11.254224 5.907248,11.100068 6.059212,11.097903 6.12624,11.096954" style="fill: white" /><polygon type="contour" points="6.575728,11.097033 6.575728,11.187753 6.57555,11.388428 6.415205,11.388428 6.362763,11.388367 6.362763,11.328246 6.362751,11.097117 6.424315,11.096925" style="fill: white" /><polygon type="contour" points="6.57555,11.586169 6.575728,11.798373 6.510158,11.798373 6.362535,11.798562 6.362578,11.586168 6.362763,11.516872 6.415205,11.516804 6.57555,11.516804" style="fill: white" /><polygon type="contour" points="6.203565,11.586169 6.203727,11.798562 6.168482,11.798562 6.08401,11.798373 6.084029,11.729611 6.084444,11.516743 6.203419,11.516743" style="fill: white" /><polygon type="contour" points="6.203727,12.556164 6.203459,12.607502 6.203459,12.768948 6.083784,12.768948 6.083873,12.610672 6.084009,12.555974 6.121415,12.555974" style="fill: white" /><polygon type="contour" points="6.111651,12.928747 6.202952,12.928747 6.202952,13.153781 6.202871,13.223027 6.01486,13.221921 5.978096,13.221983 5.908182,13.22352 5.909238,13.192012 5.906397,12.930915 6.031483,12.928701 6.045883,12.928296" style="fill: white" /><polygon type="contour" points="6.575538,12.963217 6.575728,13.047692 6.521028,13.047829 6.362751,13.047917 6.362751,12.928241 6.362583,12.928072 6.362616,12.928019 6.472834,12.928019 6.5242,12.92824 6.575538,12.927973" style="fill: white" /><polygon type="contour" points="6.575728,12.621542 6.575538,12.769165 6.5242,12.768948 6.362751,12.768948 6.362535,12.707383 6.362535,12.556164 6.424316,12.556164 6.575728,12.555974" style="fill: white" /><polygon type="contour" points="7.614899,12.556151 7.614899,12.716497 7.614831,12.768939 7.545533,12.769124 7.333139,12.769165 7.333139,12.707383 7.333327,12.555974 7.41975,12.555974" style="fill: white" /><polygon type="contour" points="7.545533,12.928136 7.61496,12.928283 7.61496,13.047258 7.545534,13.047301 7.333328,13.047692 7.333328,13.010285 7.333139,12.927973" style="fill: white" /><polygon type="contour" points="8.034779,13.00504 8.033852,13.071989 8.031694,13.224638 7.876905,13.222852 7.808304,13.22226 7.791522,13.222685 7.743256,13.222904 7.743256,13.206588 7.743346,13.165047 7.743346,12.928809 7.800001,12.928809 8.03357,12.928757" style="fill: white" /><polygon type="contour" points="8.034453,12.610672 8.034584,12.768948 7.963299,12.768948 7.743335,12.768939 7.743275,12.716497 7.743275,12.556151 7.81609,12.556151 8.034667,12.555974" style="fill: white" /><polygon type="contour" points="8.034984,11.586169 8.034667,11.798373 7.943945,11.798373 7.743275,11.798731 7.743239,11.744539 7.743239,11.516743 8.034816,11.516743" style="fill: white" /><polygon type="contour" points="7.614899,11.586169 7.614899,11.798732 7.545533,11.798732 7.333328,11.798373 7.333328,11.71195 7.332971,11.516804 7.387162,11.516743 7.61496,11.516743" style="fill: white" /><polygon type="contour" points="7.61496,11.388464 7.545534,11.388428 7.332971,11.388428 7.332971,11.315611 7.333328,11.097033 7.402089,11.097272 7.61496,11.096885" style="fill: white" /><polygon type="contour" points="7.850674,11.098408 7.938282,11.105471 8.026912,11.104789 8.033293,11.281026 8.034707,11.339876 8.033887,11.388447 7.743256,11.388447 7.743256,11.097816 7.791824,11.096995" style="fill: white" /><polygon type="contour" points="8.033797,6.059214 8.034747,6.126242 8.033495,6.202903 7.966253,6.202944 7.743346,6.202895 7.743346,6.107609 7.74327,6.095848 7.74327,5.937593 7.743256,5.925115 7.743256,5.908801 7.791522,5.909019 7.808708,5.909503 7.877477,5.908974 8.031633,5.90725" style="fill: white" /><polygon type="contour" points="8.034777,6.424317 8.034667,6.57573 7.943945,6.57573 7.743275,6.575553 7.743275,6.415206 7.743335,6.362765 7.803456,6.362765 8.034584,6.362753" style="fill: white" /><polygon type="contour" points="7.545534,6.36258 7.614831,6.362765 7.614899,6.415206 7.614899,6.575553 7.545533,6.575553 7.333328,6.57573 7.333328,6.51016 7.333139,6.362537" style="fill: white" /><polygon type="contour" points="7.40209,6.08403 7.61496,6.084446 7.61496,6.203421 7.545534,6.203566 7.333139,6.203728 7.333139,6.168483 7.333328,6.084011" style="fill: white" /><polygon type="contour" points="6.202871,5.908678 6.202871,5.929124 6.202952,5.977923 6.202952,6.202955 6.139103,6.203405 6.045883,6.203405 6.031484,6.203 5.906397,6.200788 5.909238,5.939691 5.908182,5.908183 6.017586,5.89623" style="fill: white" /><polygon type="contour" points="6.521029,6.083875 6.575728,6.08401 6.575728,6.121417 6.575538,6.203729 6.524199,6.203461 6.362751,6.203461 6.362751,6.083786" style="fill: white" /><polygon type="contour" points="6.575538,6.424318 6.575728,6.57573 6.510158,6.57573 6.362535,6.57554 6.362751,6.524202 6.362751,6.362753 6.424315,6.362537 6.575538,6.362537" style="fill: white" /><polygon type="contour" points="6.203459,6.524201 6.203727,6.57554 6.168481,6.57554 6.08401,6.57573 6.083873,6.521031 6.083784,6.362753 6.203459,6.362753" style="fill: white" /><polygon type="contour" points="6.575728,7.333331 6.575728,7.419753 6.57555,7.6149 6.415205,7.6149 6.362763,7.614832 6.362578,7.545535 6.362535,7.333142 6.424316,7.333142" style="fill: white" /><polygon type="contour" points="5.967074,7.743282 6.202901,7.743282 6.202901,7.800344 6.202952,8.033498 6.126659,8.034781 6.059711,8.033854 5.907064,8.031695 5.909443,7.808304 5.909018,7.791523 5.9088,7.743257 5.925115,7.743257" style="fill: white" /><polygon type="contour" points="6.203565,7.545534 6.203419,7.614961 6.084444,7.614961 6.084401,7.545534 6.08401,7.333331 6.121416,7.333331 6.203727,7.333142" style="fill: white" /><polygon type="contour" points="6.57555,7.816092 6.575728,8.034669 6.424315,8.034779 6.362751,8.034586 6.362751,7.963302 6.362763,7.743336 6.415205,7.743276 6.57555,7.743276" style="fill: white" /><polygon type="contour" points="7.61496,8.034819 7.402089,8.03443 7.333328,8.034669 7.333328,7.943946 7.332971,7.743276 7.387162,7.74324 7.61496,7.74324" style="fill: white" /><polygon type="contour" points="8.034707,7.791826 8.033293,7.850676 8.026229,7.938283 8.026912,8.026914 7.820206,8.02365 7.743319,8.033935 7.743319,7.791197 7.743256,7.743257 8.033887,7.743257" style="fill: white" /><polygon type="contour" points="7.61496,7.387164 7.61496,7.614961 7.545533,7.6149 7.332971,7.6149 7.332971,7.545534 7.333327,7.333331 7.41975,7.333331 7.614899,7.332972" style="fill: white" /><polygon type="contour" points="8.034667,7.333331 8.034427,7.402092 8.034817,7.614961 7.743239,7.614961 7.743275,7.545535 7.743275,7.332972 7.816091,7.332972" style="fill: white" /><polygon type="contour" points="11.798372,7.333331 11.798372,7.419753 11.79873,7.6149 11.744537,7.614961 11.51674,7.614961 11.516801,7.545534 11.516801,7.332973 11.586165,7.332973" style="fill: white" /><polygon type="contour" points="11.388444,8.033888 11.339875,8.034708 11.104788,8.026914 11.108051,7.820209 11.097765,7.74332 11.340504,7.74332 11.388444,7.743257" style="fill: white" /><polygon type="contour" points="11.586165,7.743276 11.79873,7.743276 11.79873,7.816091 11.798372,8.034669 11.72961,8.03443 11.51674,8.034819 11.51674,7.74324" style="fill: white" /><polygon type="contour" points="11.388461,7.387164 11.388461,7.614961 11.096883,7.614961 11.097271,7.402092 11.097031,7.333331 11.187753,7.333331 11.388425,7.332973" style="fill: white" /><polygon type="contour" points="11.323395,5.909444 11.340178,5.909019 11.388444,5.908801 11.388444,5.925115 11.388354,5.966657 11.388354,6.202895 11.331698,6.202895 11.098129,6.202944 11.096921,6.126662 11.097848,6.059713 11.100007,5.907066" style="fill: white" /><polygon type="contour" points="11.388365,6.362765 11.388425,6.415206 11.388425,6.575553 11.315609,6.575553 11.097031,6.57573 11.096922,6.424318 11.097116,6.362753 11.168399,6.362753" style="fill: white" /><polygon type="contour" points="11.798561,6.424318 11.798372,6.57573 11.711949,6.57573 11.516801,6.575553 11.516801,6.415206 11.516869,6.362765 11.586165,6.36258 11.798561,6.362537" style="fill: white" /><polygon type="contour" points="11.798372,6.121418 11.798561,6.203728 11.586165,6.203566 11.51674,6.203421 11.51674,6.084446 11.72961,6.08403 11.798372,6.084011" style="fill: white" /><polygon type="contour" points="13.222463,5.939691 13.225303,6.200788 13.100216,6.203 13.085815,6.203405 13.020049,6.202955 12.928746,6.202955 12.928748,6.111653 12.928746,5.977923 12.928828,5.908678 13.116837,5.909783 13.153604,5.909721 13.223519,5.908183" style="fill: white" /><polygon type="contour" points="12.607499,6.362753 12.768947,6.362753 12.769163,6.424317 12.769163,6.57554 12.707382,6.57554 12.555972,6.575729 12.555972,6.51016 12.556162,6.362537" style="fill: white" /><polygon type="contour" points="12.768947,6.174069 12.768947,6.203461 12.6075,6.203461 12.556162,6.203729 12.556162,6.168484 12.555972,6.084011 12.61067,6.083875 12.768949,6.083787" style="fill: white" /><polygon type="contour" points="13.047827,6.52103 13.04769,6.57573 13.010284,6.57573 12.927971,6.575539 12.928239,6.524201 12.928239,6.362753 13.047916,6.362753" style="fill: white" /><polygon type="contour" points="13.04769,7.333331 13.047672,7.402092 13.047256,7.614961 12.928282,7.614961 12.928136,7.545535 12.927973,7.333142 12.963217,7.333142" style="fill: white" /><polygon type="contour" points="12.769121,7.545534 12.768937,7.614832 12.716494,7.6149 12.55615,7.6149 12.55615,7.545534 12.555971,7.333331 12.62154,7.333331 12.769164,7.333142" style="fill: white" /><polygon type="contour" points="12.768937,7.743336 12.768937,7.803457 12.768947,8.034585 12.707382,8.034779 12.555972,8.034669 12.555972,7.943946 12.55615,7.743276 12.716494,7.743276" style="fill: white" /><polygon type="contour" points="13.222683,7.791523 13.222199,7.80871 13.224452,8.031635 13.072487,8.033799 13.005457,8.034749 12.928797,8.033497 12.928746,7.965719 12.928799,7.743282 13.023917,7.743282 13.035854,7.743271 13.194108,7.743271 13.206586,7.743257 13.222901,7.743257" style="fill: white" /><polygon type="contour" points="13.071989,11.09785 13.224637,11.100009 13.222852,11.254795 13.222258,11.323399 13.222683,11.340181 13.222901,11.388447 13.206585,11.388447 13.164625,11.388422 12.928799,11.388422 12.928799,11.331358 12.928746,11.098205 13.005039,11.096922" style="fill: white" /><polygon type="contour" points="13.047672,11.729611 13.04769,11.798373 13.010284,11.798373 12.927973,11.798563 12.928136,11.586168 12.928282,11.516743 13.047256,11.516743" style="fill: white" /><polygon type="contour" points="12.768937,11.516872 12.769121,11.586169 12.769163,11.798563 12.707383,11.798563 12.555972,11.798373 12.555972,11.71195 12.556149,11.516804 12.716494,11.516804" style="fill: white" /><polygon type="contour" points="12.61067,11.097246 12.768947,11.097117 12.768947,11.1684 12.768937,11.388367 12.716494,11.388428 12.55615,11.388428 12.55615,11.315611 12.555972,11.097033" style="fill: white" /><polygon type="contour" points="11.72961,11.097272 11.798372,11.097033 11.798372,11.187754 11.79873,11.388428 11.744537,11.388464 11.51674,11.388464 11.51674,11.096885" style="fill: white" /><polygon type="contour" points="11.388381,11.340506 11.388444,11.388447 11.097813,11.388447 11.096993,11.339876 11.104788,11.104789 11.311493,11.108053 11.388381,11.097768" style="fill: white" /><polygon type="contour" points="11.586166,11.516804 11.79873,11.516804 11.79873,11.586168 11.798371,11.798373 11.711949,11.798373 11.516801,11.798732 11.51674,11.744539 11.51674,11.516743" style="fill: white" /><polygon type="contour" points="11.388425,11.586168 11.388425,11.798732 11.315609,11.798732 11.097031,11.798373 11.097271,11.729611 11.096883,11.516743 11.388461,11.516743" style="fill: white" /><polygon type="contour" points="11.388354,12.928809 11.388354,13.024094 11.38843,13.035855 11.38843,13.194111 11.388444,13.206589 11.388444,13.222903 11.340178,13.222684 11.322991,13.222202 11.100066,13.224454 11.097903,13.07249 11.096952,13.005458 11.098205,12.928799 11.165446,12.928757" style="fill: white" /><polygon type="contour" points="11.388425,12.556151 11.388425,12.716497 11.388365,12.768939 11.328244,12.768939 11.097116,12.768948 11.096922,12.707383 11.097031,12.555974 11.187752,12.555974" style="fill: white" /><polygon type="contour" points="11.798372,12.621543 11.798561,12.769165 11.586166,12.769124 11.516869,12.768939 11.516801,12.716497 11.516801,12.556151 11.586166,12.556151 11.798372,12.555974" style="fill: white" /><polygon type="contour" points="11.798561,12.963218 11.798372,13.047692 11.729611,13.047674 11.51674,13.047258 11.51674,12.928283 11.586166,12.928136 11.798561,12.927973" style="fill: white" /><polygon type="contour" points="12.6075,12.928241 12.768949,12.928242 12.768947,13.018525 12.768947,13.047917 12.610671,13.047829 12.555972,13.047692 12.555972,13.010286 12.556162,12.927973" style="fill: white" /><polygon type="contour" points="12.769163,12.556164 12.768947,12.607501 12.768949,12.768949 12.707384,12.769165 12.556162,12.769165 12.556162,12.707383 12.555972,12.555974 12.621539,12.555974" style="fill: white" /><polygon type="contour" points="13.047827,12.610673 13.047916,12.768948 12.957633,12.768949 12.928241,12.768949 12.928239,12.607501 12.927971,12.556164 12.963215,12.556164 13.04769,12.555974" style="fill: white" /><polygon type="contour" points="13.100216,12.928701 13.225303,12.930915 13.222463,13.192012 13.223519,13.22352 13.114115,13.235474 12.928828,13.223027 12.928828,13.202579 12.928746,13.15378 12.928746,13.02005 12.928748,12.928748 12.992596,12.928297 13.085816,12.928296" style="fill: white" />
</svg>
