<svg width="19.131698" height="19.131699">
<polygon type="contour" points="17.225362,16.847377 17.225718,17.020458 17.225966,17.083177 17.30861,17.082775 17.319797,17.08276 17.346058,17.082738 17.381601,17.082788 17.383269,17.082646 17.415856,17.082656 17.415784,17.154773 17.41631,17.389735 17.41631,17.416312 17.300926,17.416432 17.30024,17.416313 17.082606,17.41581 17.082784,17.381603 17.082784,17.347222 17.082736,17.34606 17.08276,17.319799 17.082776,17.308612 17.083173,17.225968 17.020456,17.22572 16.847375,17.225364 16.812672,17.22534 16.813142,17.136684 16.813142,17.020457 16.812672,16.812674 17.020455,16.813144 17.136679,16.813144 17.207426,16.812674 17.225338,16.812674" style="fill: white" /><polygon type="contour" points="15.362856,17.020457 15.362856,17.136684 15.363005,17.207427 15.363005,17.22534 15.341052,17.225354 15.161541,17.225857 15.161205,17.307053 15.160998,17.318366 15.161191,17.345219 15.161034,17.347221 15.161034,17.381603 15.161144,17.383271 15.161156,17.415858 14.936091,17.416388 14.828487,17.416388 14.82842,17.379842 14.828162,17.321038 14.637033,17.321161 14.622922,17.320812 14.617803,17.238059 14.642667,17.12006 14.644034,17.020457 14.645059,16.86044 14.645003,16.832404 14.644304,16.818738 14.64443,16.81346 15.156752,16.813732 15.165798,16.813747 15.338417,16.812674 15.363005,16.812674" style="fill: white" /><polygon type="contour" points="15.362933,14.63707 15.362243,15.156748 15.362252,15.1682 15.363005,15.33842 15.363005,15.363007 15.170258,15.362256 15.161541,15.362249 15.153743,15.362249 14.637068,15.362937 14.644487,15.166946 14.645025,15.166946 14.643249,14.765997 14.640245,14.640246 14.759873,14.642645 14.765996,14.64325 15.121954,14.644827 15.15154,14.644702 15.175531,14.643943 15.335718,14.636067" style="fill: white" /><polygon type="contour" points="17.32106,14.650377 17.321036,14.828163 17.37984,14.828421 17.380633,14.828435 17.416386,14.828488 17.416386,14.936092 17.415856,15.161158 17.381601,15.161036 17.345218,15.161194 17.318362,15.161 17.307051,15.161208 17.225853,15.161542 17.225352,15.341055 17.225338,15.363007 17.13668,15.362859 17.020455,15.362859 16.812672,15.363007 16.81374,15.168391 16.81374,15.161541 16.812672,14.710469 16.812686,14.638026 17.020456,14.644036 17.119034,14.639053 17.321052,14.630139" style="fill: white" /><polygon type="contour" points="17.41631,1.715392 17.41631,1.741969 17.415784,1.97693 17.415856,2.049047 17.381601,2.048917 17.347219,2.048917 17.346057,2.048966 17.319797,2.048943 17.30861,2.048927 17.225966,2.048525 17.225717,2.111245 17.225362,2.284323 17.225338,2.319029 17.13668,2.31856 17.020456,2.31856 16.812672,2.319029 16.81314,2.111244 16.81314,1.99502 16.812672,1.924275 16.812672,1.906362 16.847375,1.90634 17.020456,1.905984 17.083173,1.905735 17.082776,1.823092 17.08276,1.811905 17.082736,1.785644 17.082786,1.7501 17.082644,1.748431 17.082606,1.715894 17.30024,1.715389 17.300926,1.715271" style="fill: white" /><polygon type="contour" points="17.225853,3.970161 17.307051,3.970496 17.318361,3.970704 17.345218,3.970511 17.34722,3.970669 17.381602,3.970669 17.383269,3.970558 17.415856,3.970547 17.416386,4.195611 17.416386,4.303215 17.37984,4.303282 17.321034,4.30354 17.321344,4.494632 17.321298,4.508853 17.237741,4.517324 17.120004,4.489043 17.020456,4.487666 16.812686,4.493677 16.813738,3.974943 16.813742,3.965099 16.812672,3.793283 16.812672,3.768696 17.020455,3.768845 17.136679,3.768845 17.207426,3.768696 17.225338,3.768696" style="fill: white" /><polygon type="contour" points="15.362254,3.961436 15.362247,3.970161 15.362247,3.977964 15.362934,4.494632 15.210688,4.48887 15.166945,4.487487 15.166945,4.486676 14.765996,4.488451 14.640245,4.491456 14.643229,4.368184 14.643249,4.365705 14.644825,4.009747 14.644701,3.980162 14.642493,3.926707 14.636066,3.795981 14.637068,3.768766 15.156746,3.769459 15.168197,3.769449 15.338415,3.768696 15.363003,3.768696" style="fill: white" /><polygon type="contour" points="15.161156,1.715846 15.161034,1.7501 15.161191,1.786484 15.160998,1.813339 15.161204,1.824649 15.161541,1.905845 15.341052,1.906349 15.363005,1.906362 15.362856,1.99502 15.362856,2.111245 15.363005,2.319029 15.168388,2.317964 15.161538,2.317964 15.156751,2.31797 14.64443,2.318244 14.645004,2.299298 14.64506,2.271262 14.644035,2.111245 14.642668,2.011643 14.617803,1.893643 14.622922,1.810892 14.637034,1.810541 14.828162,1.810662 14.828419,1.751862 14.828434,1.751067 14.828487,1.715316 14.936091,1.715316" style="fill: white" /><polygon type="contour" points="1.83146,1.715389 2.049093,1.715894 2.048915,1.7501 2.048915,1.784483 2.048965,1.785644 2.048942,1.811905 2.048926,1.823092 2.048523,1.905735 2.111241,1.905984 2.284322,1.90634 2.319027,1.906362 2.318558,1.995019 2.318558,2.111244 2.319027,2.319029 2.111241,2.31856 1.995017,2.31856 1.924274,2.319029 1.906361,2.319029 1.906338,2.284324 1.905983,2.111244 1.905734,2.048525 1.82309,2.048927 1.811903,2.048943 1.785641,2.048966 1.750097,2.048916 1.74843,2.049058 1.715844,2.049047 1.715916,1.97693 1.71539,1.741969 1.71539,1.715392 1.830774,1.715271" style="fill: white" /><polygon type="contour" points="4.303281,1.751862 4.303538,1.810662 4.481323,1.810641 4.501563,1.810649 4.492646,2.012666 4.487665,2.111245 4.486641,2.271263 4.486696,2.299297 4.487396,2.312965 4.48727,2.318243 3.974947,2.31797 3.965787,2.317957 3.79328,2.319029 3.768694,2.319029 3.768843,2.111245 3.768843,1.995019 3.768694,1.924276 3.768694,1.906362 3.790645,1.906349 3.970159,1.905845 3.970495,1.82465 3.970703,1.813338 3.97051,1.786484 3.970667,1.784483 3.970667,1.750099 3.970556,1.748432 3.970545,1.715846 4.195609,1.715316 4.303213,1.715316" style="fill: white" /><polygon type="contour" points="3.961444,3.769447 3.970159,3.769455 3.977953,3.769455 4.494631,3.768766 4.487212,3.964758 4.486674,3.964758 4.48845,4.365704 4.491454,4.491456 4.371825,4.489057 4.365702,4.488452 4.009745,4.486876 3.98016,4.487001 3.956114,4.48776 3.795979,4.495635 3.768764,4.494632 3.769457,3.974956 3.76945,3.963871 3.768694,3.793282 3.768694,3.768696" style="fill: white" /><polygon type="contour" points="2.317963,3.96331 2.317963,3.970161 2.319026,4.421234 2.319013,4.493677 2.111241,4.487666 2.011695,4.489044 1.89396,4.517324 1.810404,4.508853 1.810356,4.494632 1.81066,4.30354 1.75186,4.303283 1.751066,4.303269 1.715315,4.303215 1.715315,4.195611 1.715844,3.970547 1.750098,3.970669 1.786483,3.970511 1.813336,3.970704 1.824647,3.970497 1.905844,3.97016 1.906348,3.790647 1.906361,3.768696 1.995018,3.768845 2.111242,3.768845 2.319027,3.768696" style="fill: white" /><polygon type="contour" points="2.012664,14.639054 2.111241,14.644036 2.319013,14.638026 2.317962,15.156761 2.317962,15.166944 2.319027,15.33842 2.319027,15.363007 2.111242,15.362859 1.995017,15.362859 1.924274,15.363007 1.906361,15.363007 1.905843,15.161543 1.824648,15.161208 1.813337,15.161 1.786482,15.161193 1.784482,15.161036 1.750098,15.161036 1.748431,15.161145 1.715843,15.161157 1.715315,14.936092 1.715315,14.828488 1.75186,14.82842 1.81066,14.828163 1.810638,14.650378 1.810647,14.630139" style="fill: white" /><polygon type="contour" points="3.921008,14.642832 3.964756,14.644215 3.964756,14.645026 4.365702,14.64325 4.491454,14.640246 4.48847,14.763517 4.488449,14.765997 4.486874,15.121955 4.486999,15.151542 4.489208,15.205051 4.495633,15.335721 4.494631,15.362937 3.974953,15.362245 3.963501,15.362254 3.793279,15.363007 3.768694,15.363007 3.769448,15.169699 3.769454,15.161541 3.769454,15.154498 3.768764,14.637071" style="fill: white" /><polygon type="contour" points="3.963309,16.81374 3.970159,16.81374 3.974948,16.813732 4.48727,16.81346 4.486696,16.832403 4.486641,16.860439 4.487665,17.020457 4.492646,17.119037 4.501562,17.321056 4.481323,17.321062 4.303538,17.321038 4.303281,17.379842 4.303267,17.380635 4.303213,17.416388 4.195609,17.416388 3.970545,17.415858 3.970667,17.381603 3.970509,17.345219 3.970703,17.318366 3.970495,17.307053 3.970159,17.225857 3.790644,17.225354 3.768694,17.22534 3.768843,17.136683 3.768843,17.020457 3.768694,16.812674" style="fill: white" /><polygon type="contour" points="2.318558,17.020458 2.318558,17.136684 2.319027,17.207427 2.319027,17.22534 2.284322,17.225364 2.111241,17.22572 2.048523,17.225968 2.048926,17.308612 2.048942,17.319799 2.048965,17.346059 2.048915,17.381603 2.049057,17.383271 2.049093,17.41581 1.83146,17.416314 1.830774,17.416432 1.71539,17.416312 1.71539,17.389735 1.715916,17.154773 1.715844,17.082656 1.750098,17.082788 1.784481,17.082788 1.785642,17.082738 1.811903,17.08276 1.82309,17.082776 1.905734,17.083177 1.905983,17.020457 1.906338,16.847377 1.906361,16.812674 1.995018,16.813144 2.111241,16.813144 2.319026,16.812674" style="fill: white" />
</svg>
