<svg width="19.131698" height="19.131699">
<polygon type="contour" points="8.705179,8.49758 8.705179,8.591055 8.823382,8.590874 8.89038,8.590679 8.89038,8.632979 8.890058,8.791533 8.890232,8.791533 8.890232,8.823384 8.89038,8.890382 8.853786,8.890382 8.70592,8.89003 8.705921,8.890234 8.6691,8.890234 8.590677,8.890382 8.590872,8.823384 8.591048,8.705774 8.424121,8.705774 8.423761,8.472535 8.423659,8.465902 8.422969,8.444058 8.422521,8.439643 8.422478,8.422479 8.452421,8.423326 8.456829,8.423499 8.459074,8.423529 8.702559,8.420477" style="fill: white" /><polygon type="contour" points="10.425779,10.241674 10.425778,10.241471 10.462599,10.241471 10.541023,10.241323 10.540828,10.30832 10.540652,10.42593 10.707579,10.42593 10.707939,10.659168 10.70804,10.665801 10.70873,10.687645 10.709179,10.69206 10.709222,10.709225 10.679278,10.708377 10.67487,10.708204 10.672624,10.708175 10.42914,10.711224 10.426521,10.634123 10.426521,10.540649 10.308317,10.540831 10.241321,10.541026 10.241321,10.498725 10.241642,10.340171 10.241469,10.340171 10.241469,10.30832 10.241321,10.241323 10.277913,10.241323" style="fill: white" /><polygon type="contour" points="10.425779,9.233971 10.425779,9.233965 10.462598,9.233965 10.541024,9.23396 10.540744,9.303635 10.540427,9.420602 10.712057,9.420602 10.712288,9.441803 10.711692,9.566202 10.711473,9.589687 10.712058,9.711102 10.540427,9.711102 10.540743,9.828068 10.541024,9.897742 10.498723,9.897742 10.340167,9.897735 10.340167,9.897739 10.308318,9.897739 10.241321,9.897742 10.241321,9.859853 10.241586,9.711102 10.241436,9.711102 10.241436,9.303634 10.241321,9.23396 10.277912,9.23396" style="fill: white" /><polygon type="contour" points="10.672624,8.423529 10.679279,8.423325 10.709222,8.422479 10.70804,8.465902 10.707939,8.472535 10.707579,8.705774 10.540652,8.705774 10.540829,8.823384 10.541024,8.890382 10.498723,8.890382 10.340168,8.89006 10.340168,8.890234 10.308318,8.890234 10.241321,8.890382 10.241321,8.853789 10.241672,8.705922 10.241469,8.705923 10.241469,8.669102 10.241321,8.590679 10.308317,8.590873 10.425996,8.591054 10.426521,8.49758 10.42914,8.420477" style="fill: white" /><polygon type="contour" points="9.696,8.424135 9.711101,8.424257 9.711101,8.591273 9.828068,8.59096 9.897739,8.590679 9.897739,8.632979 9.897736,8.791533 9.897738,8.791533 9.897738,8.823384 9.897739,8.890382 9.859849,8.890382 9.711101,8.890116 9.711101,8.890267 9.303632,8.890267 9.233958,8.890382 9.233958,8.85379 9.233967,8.705923 9.233962,8.705923 9.233962,8.669103 9.233958,8.590679 9.303633,8.59096 9.4206,8.591273 9.4206,8.424256 9.540781,8.420325 9.566199,8.420016" style="fill: white" /><polygon type="contour" points="9.4206,9.23411 9.4206,9.234025 9.828068,9.234025 9.897739,9.23396 9.897739,9.271848 9.897595,9.420602 9.897677,9.420602 9.897677,9.828069 9.897739,9.897742 9.859849,9.897742 9.711101,9.897596 9.711101,9.897679 9.303632,9.897679 9.233958,9.897742 9.233958,9.859852 9.234108,9.711102 9.234023,9.711102 9.234023,9.303635 9.233958,9.23396 9.271847,9.23396" style="fill: white" /><polygon type="contour" points="8.791532,9.23397 8.791532,9.233965 8.823382,9.233965 8.89038,9.23396 8.89038,9.271849 8.890114,9.420602 8.890265,9.420602 8.890265,9.828068 8.89038,9.897742 8.853786,9.897742 8.705921,9.897734 8.705921,9.897739 8.6691,9.897739 8.590677,9.897742 8.590957,9.828068 8.591273,9.711102 8.419642,9.711102 8.419411,9.6899 8.420008,9.565502 8.420228,9.542016 8.419642,9.420602 8.591273,9.420602 8.590957,9.303635 8.590677,9.23396 8.632978,9.23396" style="fill: white" /><polygon type="contour" points="8.791532,10.241644 8.791532,10.241471 8.823382,10.241471 8.89038,10.241323 8.89038,10.277914 8.890028,10.425781 8.890232,10.42578 8.890232,10.462601 8.89038,10.541026 8.823382,10.540831 8.705703,10.54065 8.705178,10.634124 8.70256,10.711224 8.459075,10.708175 8.45242,10.708378 8.422478,10.709225 8.423659,10.665801 8.423761,10.659168 8.424121,10.42593 8.591048,10.42593 8.590872,10.30832 8.590677,10.241323 8.632977,10.241323" style="fill: white" /><polygon type="contour" points="9.4206,10.241588 9.4206,10.241438 9.828068,10.241438 9.897739,10.241323 9.897739,10.277915 9.897736,10.425781 9.897738,10.425781 9.897738,10.4626 9.897739,10.541026 9.828068,10.540745 9.711101,10.540431 9.711101,10.707447 9.590919,10.711379 9.565501,10.711688 9.4357,10.707569 9.4206,10.707447 9.4206,10.540431 9.303633,10.540745 9.233958,10.541026 9.233958,10.498724 9.233966,10.340171 9.233962,10.34017 9.233962,10.308319 9.233958,10.241323 9.271847,10.241323" style="fill: white" />
</svg>
