<svg width="19.131698" height="19.131699">
<polygon type="contour" points="9.565501,9.37077 9.585248,9.372416 9.589276,9.37255 9.612403,9.374423 9.616074,9.374873 9.62205,9.376635 9.657272,9.385935 9.660954,9.387279 9.664693,9.388943 9.696063,9.40325 9.699492,9.405211 9.714711,9.416173 9.718095,9.418504 9.720435,9.421898 9.7354,9.44987 9.737325,9.453239 9.738932,9.456848 9.750488,9.491152 9.75261,9.49693 9.752973,9.498384 9.757302,9.522202 9.757601,9.523474 9.757902,9.527146 9.758189,9.53219 9.76038,9.547549 9.76148,9.576077 9.758188,9.599117 9.757827,9.605281 9.757602,9.607603 9.757227,9.609102 9.7529,9.633538 9.752683,9.634701 9.750488,9.640552 9.738908,9.675293 9.737256,9.679002 9.72585,9.69963 9.723671,9.710765 9.721372,9.714293 9.703363,9.72421 9.699989,9.726435 9.689627,9.731343 9.686088,9.733365 9.682292,9.735055 9.658197,9.744976 9.654509,9.74632 9.62205,9.755068 9.619585,9.755716 9.616,9.756755 9.612328,9.75728 9.587327,9.759154 9.584929,9.759154 9.564301,9.761027 9.56168,9.760652 9.518548,9.756904 9.5175,9.756755 9.506199,9.754303 9.501503,9.752952 9.467958,9.743547 9.46419,9.742173 9.460364,9.740468 9.456794,9.738431 9.431166,9.726435 9.427788,9.724209 9.415229,9.716471 9.406394,9.700621 9.404175,9.697264 9.40216,9.693739 9.388391,9.669097 9.386726,9.665369 9.383968,9.649377 9.380678,9.638188 9.378938,9.633859 9.373988,9.603813 9.373398,9.60105 9.372963,9.59363 9.370165,9.566202 9.372414,9.539869 9.372773,9.5326 9.378397,9.500722 9.379073,9.497575 9.381318,9.491563 9.392815,9.456526 9.394511,9.452718 9.396541,9.449164 9.412898,9.418772 9.415297,9.415299 9.428297,9.407078 9.431712,9.404722 9.43523,9.402709 9.456553,9.391692 9.460269,9.390035 9.482327,9.383969 9.485509,9.382736 9.503073,9.378345 9.506271,9.377329 9.5182,9.374873 9.522244,9.374424 9.564751,9.370674" style="fill: white" />
</svg>
