<svg width="19.131698" height="19.131699">
<polygon type="contour" points="7.727209,6.749503 11.883851,6.75049 12.1429,6.750452 12.143372,6.750543 12.167865,6.753396 12.196358,6.76157 12.205911,6.765687 12.210201,6.767737 12.222842,6.775037 12.263985,6.802559 12.285264,6.820952 12.299374,6.834917 12.315222,6.851351 12.355752,6.905224 12.361591,6.916494 12.378744,6.960775 12.379614,6.967001 12.380019,6.970438 12.38231,6.988315 12.382344,6.988803 12.382342,7.009256 12.382348,7.080839 12.382198,7.727211 12.381213,11.883852 12.381226,12.142901 12.381201,12.144762 12.381318,12.152526 12.380378,12.158873 12.380065,12.16204 12.379053,12.166637 12.366694,12.207709 12.365925,12.209158 12.337254,12.251264 12.318215,12.274879 12.297741,12.298682 12.28117,12.313946 12.250498,12.33856 12.219962,12.360003 12.188196,12.373667 12.17499,12.378761 12.172005,12.379794 12.167894,12.380166 12.1429,12.382345 12.122446,12.382345 12.050862,12.382351 11.404489,12.3822 7.247849,12.381214 6.988801,12.381227 6.988329,12.38116 6.969798,12.378 6.942004,12.374675 6.941883,12.374637 6.941542,12.374488 6.899905,12.352346 6.874443,12.334666 6.8427,12.309267 6.836034,12.302935 6.828174,12.295 6.804745,12.265309 6.793375,12.249516 6.775895,12.223146 6.767734,12.206707 6.752386,12.170151 6.751974,12.168949 6.751855,12.168109 6.751816,12.167498 6.749701,12.14661 6.749357,12.142901 6.749357,12.122447 6.749339,12.050863 6.749501,11.404492 6.750487,7.24785 6.750449,6.988802 6.750563,6.988204 6.752902,6.966943 6.759743,6.939427 6.764202,6.928367 6.778424,6.905506 6.794121,6.881585 6.813483,6.856824 6.83396,6.833019 6.850528,6.817449 6.876166,6.796397 6.902776,6.77756 6.914273,6.771341 6.940954,6.759851 6.963911,6.750811 6.965742,6.750528 6.966999,6.750269 6.968082,6.750269 6.987151,6.749403 6.9888,6.749358 7.009254,6.749358 7.080838,6.74934" style="fill: white" />
</svg>
