<svg width="19.131698" height="19.131699">
<polygon type="contour" points="8.732509,8.562655 8.802842,8.564671 8.807151,8.565159 8.858103,8.564658 8.859374,8.595137 8.85924,8.598519 8.859337,8.637036 8.859337,8.690587 8.859231,8.859232 8.811015,8.859232 8.565418,8.859087 8.564045,8.775334 8.55758,8.557582" style="fill: white" /><polygon type="contour" points="9.711101,10.566211 9.669476,10.568015 9.565891,10.569862 9.460286,10.566638 9.4206,10.566211 9.4206,10.271885 9.711101,10.271885" style="fill: white" /><polygon type="contour" points="10.566283,10.272616 10.567655,10.356367 10.57412,10.574121 10.39919,10.569048 10.328857,10.567034 10.32455,10.566546 10.273598,10.567047 10.272327,10.536566 10.27246,10.533183 10.272364,10.494668 10.272364,10.441117 10.27247,10.272472 10.320685,10.272472" style="fill: white" /><polygon type="contour" points="10.567656,8.775334 10.566283,8.859087 10.320685,8.859232 10.27247,8.859232 10.27247,8.838536 10.272364,8.637035 10.27246,8.631393 10.27246,8.598519 10.273598,8.564658 10.32455,8.565159 10.328857,8.564671 10.39919,8.562655 10.57412,8.557582" style="fill: white" /><polygon type="contour" points="9.711101,9.232436 9.4206,9.232436 9.4206,9.139851 9.420329,9.046048 9.711101,9.046048" style="fill: white" /><polygon type="contour" points="10.085654,9.711102 9.899266,9.711102 9.899266,9.420602 10.085654,9.420602" style="fill: white" /><polygon type="contour" points="9.711101,9.711102 9.4206,9.711102 9.4206,9.420602 9.711101,9.420602" style="fill: white" /><polygon type="contour" points="9.711101,10.085656 9.4206,10.085656 9.4206,9.899268 9.711101,9.899268" style="fill: white" /><polygon type="contour" points="10.085654,10.271937 10.085654,10.399497 9.99179,10.399196 9.91523,10.399536 9.899266,10.399434 9.899266,10.295714 9.899069,10.271884 9.917001,10.271884 9.991748,10.271797 9.99185,10.271797" style="fill: white" /><polygon type="contour" points="10.086247,9.991748 10.086247,9.991852 10.085654,10.085656 10.009446,10.085656 9.991746,10.086248 9.897383,10.085656 9.89875,9.99158 9.899266,9.899268 9.916986,9.899268 9.991549,9.898752 10.085654,9.897384" style="fill: white" /><polygon type="contour" points="10.295713,9.899268 10.399432,9.899268 10.399194,9.991817 10.399583,10.069239 10.399495,10.085656 10.271936,10.085656 10.271936,10.067361 10.271795,9.991852 10.271795,9.99175 10.271883,9.899071" style="fill: white" /><polygon type="contour" points="10.569291,9.49994 10.57032,9.565809 10.569291,9.63138 10.569667,9.711102 10.271883,9.711102 10.271883,9.420602 10.569667,9.420602" style="fill: white" /><polygon type="contour" points="10.399194,9.139911 10.399534,9.21647 10.399432,9.232436 10.295713,9.232436 10.271883,9.232633 10.271883,9.2147 10.271795,9.139953 10.271795,9.139851 10.271936,9.046048 10.399495,9.046048" style="fill: white" /><polygon type="contour" points="10.085654,9.046048 10.085654,9.064341 10.086247,9.139851 10.086247,9.139954 10.085614,9.232632 9.99185,9.232951 9.991747,9.232951 9.899266,9.232436 9.899266,9.214715 9.89875,9.139953 9.89875,9.13985 9.899069,9.046089 9.917001,9.046089 9.991748,9.045457 9.991849,9.045457" style="fill: white" /><polygon type="contour" points="10.085654,8.732207 10.085654,8.859767 10.067359,8.859767 9.99185,8.859907 9.991747,8.859907 9.899069,8.85982 9.899266,8.835989 9.899266,8.73227 9.991815,8.732505 10.069237,8.732119" style="fill: white" /><polygon type="contour" points="9.671414,8.565065 9.711101,8.565494 9.711101,8.859816 9.420369,8.859816 9.4206,8.839229 9.4206,8.565494 9.462023,8.56369 9.565501,8.561841" style="fill: white" /><polygon type="contour" points="9.232434,8.73227 9.232434,8.835989 9.232363,8.85982 9.214698,8.85982 9.139951,8.859907 9.139849,8.859907 9.046046,8.859767 9.046046,8.732207 9.139909,8.732505 9.216469,8.732168" style="fill: white" /><polygon type="contour" points="9.234047,9.046048 9.232947,9.14025 9.232434,9.232436 9.214713,9.232436 9.14033,9.232948 9.046046,9.234048 9.045454,9.139954 9.045454,9.139851 9.046046,9.046048 9.122254,9.046048 9.139953,9.045457" style="fill: white" /><polygon type="contour" points="8.859764,9.06434 8.859905,9.139851 8.859905,9.139953 8.859817,9.232365 8.835986,9.232436 8.732268,9.232436 8.732503,9.139886 8.732117,9.062464 8.732205,9.046048 8.859764,9.046048" style="fill: white" /><polygon type="contour" points="9.064205,9.420602 9.232434,9.420602 9.232434,9.711102 9.139849,9.711102 9.046046,9.711373 9.046046,9.420331" style="fill: white" /><polygon type="contour" points="8.859815,9.711333 8.839228,9.711102 8.562033,9.711102 8.562409,9.631763 8.56138,9.565894 8.562409,9.500323 8.562033,9.420602 8.839228,9.420602 8.859815,9.420371" style="fill: white" /><polygon type="contour" points="8.859818,9.899339 8.859818,9.917003 8.859905,9.99175 8.859905,9.991851 8.859764,10.085656 8.732205,10.085656 8.732503,9.991792 8.732166,9.915233 8.732268,9.899268 8.835986,9.899268" style="fill: white" /><polygon type="contour" points="9.232434,9.899268 9.232434,9.916988 9.232947,9.991552 9.234318,10.085656 9.21616,10.085656 9.139952,10.086248 9.139849,10.086248 9.046046,10.085656 9.046046,10.067362 9.045454,9.991851 9.045454,9.991749 9.046087,9.899339 9.139849,9.898751 9.139952,9.898751" style="fill: white" /><polygon type="contour" points="9.232631,10.271884 9.232434,10.295714 9.232434,10.399434 9.139884,10.399196 9.062462,10.399585 9.046046,10.399497 9.046046,10.271937 9.064338,10.271937 9.13985,10.271797 9.139952,10.271797" style="fill: white" /><polygon type="contour" points="8.859231,10.293167 8.859337,10.494668 8.85924,10.500311 8.85924,10.533183 8.858103,10.567047 8.807151,10.566546 8.802842,10.567034 8.732509,10.569048 8.55758,10.574122 8.564045,10.356367 8.565417,10.272616 8.811015,10.272472 8.859231,10.272472" style="fill: white" />
</svg>
