<svg width="19.131698" height="19.131699">
<polygon type="contour" points="6.722154,8.20915 6.774355,8.209275 6.875879,8.209275 6.875587,8.407952 6.875587,8.501668 6.705154,8.503296 6.587236,8.503778 6.585295,8.369597 6.585189,8.209026 6.663872,8.209026" style="fill: white" /><polygon type="contour" points="8.429997,6.587574 8.504239,6.587622 8.501854,6.722119 8.501861,6.875761 8.303004,6.875588 8.20929,6.875588 8.209273,6.774358 8.209106,6.69535 8.209024,6.663874 8.209024,6.585191" style="fill: white" /><polygon type="contour" points="7.832809,6.760327 7.832809,6.841456 7.832884,6.877364 7.767122,6.877364 7.63189,6.877961 7.631958,6.859903 7.631958,6.761143 7.773701,6.7601" style="fill: white" /><polygon type="contour" points="7.474777,6.761143 7.47483,6.781616 7.47483,6.877961 7.430641,6.877961 7.223543,6.877624 7.223543,6.840411 7.223306,6.760116 7.304472,6.759975" style="fill: white" /><polygon type="contour" points="6.875587,6.875588 6.83828,6.875588 6.798981,6.875761 6.667586,6.876105 6.650329,6.875131 6.584521,6.874781 6.588428,6.605899 6.5881,6.597205 6.587707,6.58771 6.607469,6.588453 6.618061,6.588554 6.875587,6.585065" style="fill: white" /><polygon type="contour" points="6.840408,7.223545 6.877623,7.223545 6.877623,7.304027 6.877959,7.474832 6.8599,7.474779 6.761142,7.474779 6.759973,7.304473 6.760113,7.223308" style="fill: white" /><polygon type="contour" points="6.877959,7.667217 6.877362,7.832886 6.841454,7.83281 6.760325,7.83281 6.760097,7.773704 6.761142,7.63196 6.781614,7.631892 6.877959,7.631892" style="fill: white" /><polygon type="contour" points="7.262472,7.63196 7.474777,7.63196 7.47476,7.664928 7.47476,7.83275 7.43064,7.832791 7.223449,7.832886 7.223449,7.767124 7.223529,7.631892" style="fill: white" /><polygon type="contour" points="7.392491,7.223451 7.430641,7.223531 7.47483,7.223531 7.474777,7.262475 7.474777,7.474779 7.430641,7.474832 7.223529,7.474832 7.223529,7.430643 7.223306,7.223308" style="fill: white" /><polygon type="contour" points="7.832789,7.430642 7.832748,7.474762 7.801681,7.474779 7.631958,7.474779 7.63189,7.430642 7.63189,7.223531 7.667216,7.223531 7.832884,7.223451" style="fill: white" /><polygon type="contour" points="7.664926,7.631965 7.832748,7.631965 7.832748,7.664927 7.832809,7.83281 7.77072,7.83281 7.631963,7.83275 7.631958,7.801684 7.631958,7.63196" style="fill: white" /><polygon type="contour" points="7.47476,8.209327 7.474777,8.254546 7.474777,8.505291 7.304472,8.504433 7.223306,8.504511 7.223306,8.20901 7.308367,8.208914" style="fill: white" /><polygon type="contour" points="7.832809,8.504763 7.773701,8.504693 7.631958,8.505291 7.631963,8.45726 7.631963,8.209327 7.770721,8.208999 7.832809,8.208999" style="fill: white" /><polygon type="contour" points="8.497802,8.339125 8.495425,8.495427 8.34149,8.494257 8.325271,8.497993 8.298335,8.500596 8.209107,8.501774 8.209107,8.209108 8.501771,8.209108" style="fill: white" /><polygon type="contour" points="8.504692,7.773704 8.504761,7.83281 8.208998,7.83281 8.208998,7.770721 8.209324,7.631965 8.254544,7.63196 8.505289,7.63196" style="fill: white" /><polygon type="contour" points="8.504431,7.304474 8.505289,7.474779 8.457259,7.474762 8.209325,7.474762 8.209367,7.430643 8.209008,7.223308 8.504509,7.223308" style="fill: white" /><polygon type="contour" points="12.513638,6.588554 12.524237,6.588466 12.533392,6.588065 12.543994,6.587709 12.543273,6.605899 12.547179,6.874781 12.481371,6.875131 12.464113,6.876105 12.409211,6.876105 12.256112,6.875588 12.256069,6.722156 12.256069,6.667198 12.256068,6.585424" style="fill: white" /><polygon type="contour" points="10.922428,6.774359 10.922428,6.87588 10.72375,6.875588 10.630035,6.875588 10.628406,6.705154 10.627925,6.587237 10.762104,6.585297 10.922594,6.584994" style="fill: white" /><polygon type="contour" points="10.922594,8.31621 10.922594,8.501774 10.833363,8.500596 10.806428,8.497993 10.636275,8.495427 10.637445,8.341491 10.633707,8.325272 10.631106,8.298338 10.629929,8.209108 10.922849,8.209108" style="fill: white" /><polygon type="contour" points="10.674441,7.631965 10.922374,7.631965 10.922703,7.770722 10.922703,7.83281 10.62694,7.83281 10.627009,7.773703 10.626411,7.63196" style="fill: white" /><polygon type="contour" points="10.922788,7.308368 10.922375,7.474762 10.877155,7.474779 10.626411,7.474779 10.62727,7.304473 10.627191,7.223308 10.922692,7.223308" style="fill: white" /><polygon type="contour" points="11.49981,7.223531 11.499742,7.262474 11.499742,7.474779 11.466773,7.474762 11.298953,7.474762 11.29891,7.430642 11.298816,7.223451 11.364576,7.223451" style="fill: white" /><polygon type="contour" points="11.499742,6.761144 11.49981,6.781616 11.49981,6.877961 11.464484,6.877961 11.298816,6.877364 11.298892,6.841456 11.298892,6.760327 11.357997,6.760099" style="fill: white" /><polygon type="contour" points="11.908394,6.760116 11.908158,6.840409 11.908158,6.877625 11.827675,6.877625 11.65687,6.877961 11.656923,6.859902 11.656923,6.761144 11.827227,6.759975" style="fill: white" /><polygon type="contour" points="12.371727,7.304474 12.370559,7.474779 12.350086,7.474832 12.253741,7.474832 12.253741,7.430643 12.254077,7.223545 12.291292,7.223545 12.371588,7.223308" style="fill: white" /><polygon type="contour" points="12.271798,7.63196 12.370559,7.63196 12.371603,7.773703 12.371375,7.83281 12.290244,7.83281 12.254337,7.832886 12.254337,7.767124 12.253741,7.631892" style="fill: white" /><polygon type="contour" points="11.908252,7.392491 11.908171,7.430642 11.908171,7.474832 11.869227,7.474779 11.656923,7.474779 11.65687,7.430642 11.65687,7.223531 11.701058,7.223531 11.908394,7.223308" style="fill: white" /><polygon type="contour" points="11.908171,7.667217 11.908252,7.832886 11.701059,7.832791 11.65694,7.83275 11.656923,7.801683 11.656923,7.63196 11.701059,7.631892 11.908171,7.631892" style="fill: white" /><polygon type="contour" points="11.499737,7.664928 11.499737,7.83275 11.466773,7.83275 11.298892,7.83281 11.298892,7.770722 11.298953,7.631965 11.330018,7.63196 11.499742,7.63196" style="fill: white" /><polygon type="contour" points="11.499737,8.209327 11.499742,8.254546 11.499742,8.505291 11.357998,8.504693 11.298892,8.504763 11.298892,8.208999 11.360979,8.208999" style="fill: white" /><polygon type="contour" points="11.908394,8.504511 11.827227,8.504433 11.656923,8.505291 11.65694,8.457261 11.65694,8.209327 11.701058,8.209369 11.908394,8.20901" style="fill: white" /><polygon type="contour" points="12.544126,8.43 12.544078,8.50424 12.40958,8.501856 12.256112,8.501668 12.256112,8.209292 12.291358,8.209212 12.467826,8.209026 12.54651,8.209026" style="fill: white" /><polygon type="contour" points="12.546404,10.762106 12.546509,10.922678 12.467826,10.922678 12.409544,10.922554 12.357343,10.922429 12.255821,10.922429 12.256112,10.723752 12.256112,10.630036 12.426545,10.628408 12.544464,10.627927" style="fill: white" /><polygon type="contour" points="11.827227,10.62727 11.908394,10.627193 11.908394,10.922694 11.823333,10.92279 11.65694,10.922377 11.656923,10.877157 11.656923,10.626413" style="fill: white" /><polygon type="contour" points="11.499737,10.674443 11.499737,10.922376 11.360979,10.922705 11.298892,10.922705 11.298892,10.626941 11.357998,10.627011 11.499742,10.626413" style="fill: white" /><polygon type="contour" points="10.922849,10.737032 10.922849,10.922596 10.629929,10.922596 10.631106,10.833365 10.633708,10.80643 10.636275,10.636277 10.833364,10.631108 10.922594,10.62993" style="fill: white" /><polygon type="contour" points="10.828694,12.256114 10.922411,12.256114 10.922428,12.357345 10.922594,12.436352 10.922676,12.467828 10.922676,12.546512 10.701701,12.544127 10.627462,12.544079 10.629846,12.409581 10.629839,12.255943" style="fill: white" /><polygon type="contour" points="11.499742,12.271799 11.499742,12.37056 11.357998,12.371605 11.298892,12.371377 11.298892,12.290245 11.298816,12.254338 11.364576,12.254338 11.49981,12.253743" style="fill: white" /><polygon type="contour" points="11.908158,12.254078 11.908158,12.291293 11.908394,12.371589 11.827227,12.371728 11.656923,12.37056 11.65687,12.350087 11.65687,12.253743 11.701058,12.253743" style="fill: white" /><polygon type="contour" points="12.48137,12.256307 12.547179,12.256922 12.543272,12.525804 12.543599,12.534498 12.543994,12.543994 12.524236,12.543237 12.513639,12.54315 12.256112,12.546638 12.256112,12.453823 12.255941,12.255943 12.332718,12.255943 12.464114,12.255599" style="fill: white" /><polygon type="contour" points="12.271799,11.656925 12.370559,11.656925 12.371727,11.827229 12.371588,11.908396 12.291292,11.908159 12.254077,11.908159 12.254077,11.827676 12.253741,11.656872" style="fill: white" /><polygon type="contour" points="12.290244,11.298894 12.371375,11.298894 12.371603,11.358 12.370559,11.499744 12.350086,11.499812 12.253741,11.499812 12.253741,11.464486 12.254337,11.298818" style="fill: white" /><polygon type="contour" points="11.908252,11.364578 11.908171,11.499812 11.869227,11.499744 11.656923,11.499744 11.65694,11.466775 11.65694,11.298955 11.701059,11.298912 11.908252,11.298817" style="fill: white" /><polygon type="contour" points="11.908171,11.70106 11.908394,11.908396 11.739209,11.908252 11.701058,11.908173 11.65687,11.908173 11.656923,11.869229 11.656923,11.656925 11.701058,11.656872 11.908171,11.656872" style="fill: white" /><polygon type="contour" points="11.49981,11.701061 11.49981,11.908173 11.464484,11.908173 11.298815,11.908252 11.29891,11.701061 11.298953,11.656942 11.330019,11.656925 11.499741,11.656925" style="fill: white" /><polygon type="contour" points="11.499737,11.298955 11.499742,11.33002 11.499742,11.499744 11.466773,11.499739 11.298953,11.499739 11.298953,11.466776 11.298892,11.298894 11.360979,11.298894" style="fill: white" /><polygon type="contour" points="10.922703,11.360981 10.922374,11.499739 10.877155,11.499744 10.626411,11.499744 10.626381,11.466775 10.62694,11.298894 10.922703,11.298894" style="fill: white" /><polygon type="contour" points="10.67444,11.656942 10.922375,11.656942 10.922333,11.70106 10.922692,11.908396 10.627191,11.908396 10.62727,11.82723 10.626411,11.656925" style="fill: white" /><polygon type="contour" points="7.832884,12.254338 7.832809,12.290245 7.832809,12.371377 7.773701,12.371604 7.631958,12.370559 7.63189,12.350087 7.63189,12.253743 7.667216,12.253743" style="fill: white" /><polygon type="contour" points="7.474777,12.271799 7.474777,12.37056 7.304472,12.371728 7.223306,12.371589 7.223543,12.291293 7.223543,12.254078 7.304024,12.254078 7.47483,12.253743" style="fill: white" /><polygon type="contour" points="6.875587,12.256114 6.87563,12.409545 6.87563,12.546277 6.61806,12.543149 6.607462,12.543238 6.598308,12.543637 6.587707,12.543995 6.588428,12.525804 6.584522,12.256922 6.650329,12.256306 6.667585,12.255599 6.722488,12.255599" style="fill: white" /><polygon type="contour" points="6.722117,10.629848 6.875587,10.630036 6.875587,10.922412 6.84034,10.922491 6.663872,10.922678 6.585189,10.922678 6.587572,10.701704 6.58762,10.627464" style="fill: white" /><polygon type="contour" points="8.339123,10.633901 8.495425,10.636277 8.500593,10.833366 8.501771,10.922596 8.209107,10.922596 8.209107,10.62993" style="fill: white" /><polygon type="contour" points="7.832809,10.626941 7.832809,10.922705 7.770721,10.922705 7.631963,10.922377 7.631958,10.877157 7.631958,10.626413 7.664926,10.626383" style="fill: white" /><polygon type="contour" points="7.47476,10.674442 7.47476,10.922377 7.430641,10.922335 7.223306,10.922694 7.223306,10.627193 7.304472,10.62727 7.474777,10.626413" style="fill: white" /><polygon type="contour" points="7.43064,11.298912 7.47476,11.298955 7.474777,11.330021 7.474777,11.499743 7.43064,11.499812 7.223529,11.499812 7.223529,11.464485 7.223449,11.298817" style="fill: white" /><polygon type="contour" points="6.877362,11.364579 6.877959,11.499812 6.859901,11.499744 6.761141,11.499744 6.760097,11.357999 6.760325,11.298894 6.841454,11.298894 6.877362,11.298818" style="fill: white" /><polygon type="contour" points="6.877959,11.70106 6.877622,11.908159 6.840408,11.908159 6.760113,11.908396 6.759973,11.827229 6.761142,11.656925 6.781614,11.656872 6.877959,11.656872" style="fill: white" /><polygon type="contour" points="7.262473,11.656925 7.474777,11.656925 7.47483,11.70106 7.47483,11.908173 7.430641,11.908173 7.223306,11.908396 7.223449,11.739211 7.223529,11.701061 7.223529,11.656872" style="fill: white" /><polygon type="contour" points="7.664926,11.656942 7.832748,11.656942 7.832789,11.701061 7.832884,11.908252 7.767123,11.908252 7.63189,11.908173 7.631958,11.869229 7.631958,11.656925" style="fill: white" /><polygon type="contour" points="7.832809,11.360981 7.832748,11.499739 7.801682,11.499744 7.631958,11.499744 7.631963,11.466775 7.631963,11.298955 7.664925,11.298955 7.832809,11.298894" style="fill: white" /><polygon type="contour" points="8.504692,11.357999 8.505289,11.499744 8.457258,11.499739 8.209324,11.499739 8.208998,11.360982 8.208998,11.298894 8.504761,11.298894" style="fill: white" /><polygon type="contour" points="8.504431,11.827231 8.504509,11.908396 8.209008,11.908396 8.208912,11.823335 8.209325,11.656942 8.254544,11.656925 8.505289,11.656925" style="fill: white" /><polygon type="contour" points="8.407949,12.256114 8.501666,12.256114 8.503293,12.426547 8.503775,12.544464 8.369596,12.546406 8.209107,12.54671 8.209273,12.357344 8.209273,12.255823" style="fill: white" />
</svg>
