<svg width="19.131698" height="19.131699">
<polygon type="contour" points="16.458358,13.326168 16.458188,13.491335 16.458211,13.570314 16.458394,13.694812 16.458417,13.965843 16.553884,13.965986 16.553884,14.149943 16.553534,14.298836 16.491247,14.298614 16.425084,14.298901 16.363775,14.298457 16.363488,14.463753 16.363487,14.464261 16.363487,16.12186 16.363358,16.163535 16.363344,16.220538 16.426613,16.220482 16.491246,16.220572 16.494279,16.220314 16.553534,16.220334 16.553404,16.351475 16.553754,16.508322 16.553754,16.553757 16.356495,16.553964 16.355325,16.553762 16.220246,16.553448 16.22057,16.491248 16.22057,16.428726 16.22048,16.426614 16.220536,16.363346 16.163533,16.363361 16.121856,16.363489 14.464258,16.363489 14.463749,16.363491 14.298457,16.363779 14.298898,16.425086 14.298613,16.428726 14.298613,16.491249 14.298812,16.49428 14.298834,16.553536 14.149943,16.553886 13.965985,16.553886 13.965809,16.458448 13.878617,16.458393 13.580933,16.458313 13.506632,16.458306 13.494541,16.458273 13.448589,16.458323 13.309658,16.458363 13.316438,16.350926 13.315376,16.348058 13.328394,16.213343 13.337171,16.163535 13.341602,16.121861 13.341602,14.464578 13.329948,14.298777 13.322213,14.208305 13.32601,14.197565 13.340134,14.01516 13.337298,13.987479 13.338745,13.940826 13.505892,13.940014 13.580418,13.940536 13.595134,13.940759 13.700195,13.939995 13.754864,13.939694 13.761523,13.939591 13.763672,13.939841 13.819144,13.938802 13.824834,13.938526 13.848326,13.937177 13.853756,13.936353 13.872377,13.936078 13.87712,13.935974 13.886961,13.935764 13.934761,13.934387 13.935971,13.877124 13.936076,13.872378 13.93635,13.853758 13.937174,13.848329 13.938523,13.824836 13.938801,13.819146 13.939838,13.763676 13.939588,13.761525 13.939691,13.754867 13.939992,13.700197 13.940756,13.595138 13.940535,13.580421 13.940011,13.505894 13.940823,13.338747 13.987263,13.336862 14.015159,13.340136 14.197562,13.326013 14.208302,13.322215 14.298775,13.32995 14.464575,13.341603 16.121856,13.341603 16.163533,13.337172 16.220544,13.33306 16.347334,13.2986" style="fill: white" /><polygon type="contour" points="16.553754,2.577947 16.553754,2.623382 16.553404,2.780228 16.553534,2.911369 16.491246,2.911131 16.428724,2.911131 16.426612,2.911222 16.363344,2.911166 16.363358,2.968168 16.363487,3.009842 16.363487,4.667442 16.363489,4.667951 16.363775,4.833243 16.425084,4.832803 16.428723,4.833091 16.491246,4.833091 16.494279,4.832888 16.553534,4.832869 16.553884,4.98176 16.553884,5.165716 16.458454,5.165894 16.458418,5.254112 16.458411,5.552245 16.458419,5.626165 16.458388,5.638178 16.458444,5.683791 16.458393,5.821631 16.351669,5.81493 16.220544,5.798642 16.163533,5.79453 16.121856,5.790101 14.464575,5.790101 14.298775,5.801753 14.208302,5.809488 14.197562,5.80569 14.015159,5.791568 13.987263,5.794842 13.940824,5.792956 13.940011,5.625809 13.940535,5.551281 13.940756,5.536565 13.940625,5.509892 13.940567,5.506795 13.940729,5.505908 13.939838,5.368028 13.9388,5.312555 13.938523,5.306866 13.937174,5.283373 13.93635,5.277944 13.936076,5.259324 13.935972,5.25458 13.934761,5.197303 13.886961,5.195939 13.87712,5.19573 13.872377,5.195625 13.853755,5.19535 13.848326,5.194526 13.819143,5.192899 13.763673,5.191861 13.761523,5.192112 13.754864,5.192009 13.700195,5.191707 13.595136,5.190943 13.58042,5.191165 13.505893,5.191691 13.338745,5.190878 13.337298,5.144225 13.340134,5.116541 13.326011,4.934139 13.322213,4.923399 13.329948,4.832926 13.341602,4.667126 13.341602,3.009843 13.337172,2.968169 13.32858,2.917216 13.316771,2.780032 13.310066,2.673246 13.44791,2.673256 13.493523,2.673313 13.505536,2.673282 13.579457,2.67329 13.87759,2.67328 13.965842,2.673257 13.965985,2.577818 14.149943,2.577818 14.298834,2.578168 14.298613,2.640454 14.298898,2.706617 14.298457,2.767924 14.463749,2.768212 14.464258,2.768215 16.121856,2.768215 16.163533,2.768343 16.220536,2.768357 16.22048,2.705089 16.220571,2.640455 16.220312,2.637423 16.220246,2.578255 16.355325,2.577942 16.356495,2.577741" style="fill: white" /><polygon type="contour" points="2.776373,2.577942 2.911454,2.578255 2.91113,2.640455 2.91113,2.70298 2.91122,2.705089 2.911164,2.768357 2.968167,2.768343 3.009842,2.768215 4.66744,2.768215 4.66795,2.768212 4.833242,2.767924 4.832803,2.706617 4.833088,2.702979 4.833088,2.640454 4.832886,2.637423 4.832866,2.578168 4.981757,2.577818 5.165714,2.577818 5.165892,2.673279 5.436887,2.673308 5.561385,2.673491 5.640568,2.673513 5.805533,2.673342 5.833102,2.784368 5.815733,2.924115 5.794527,2.968169 5.790098,3.009842 5.790098,4.667126 5.80175,4.832924 5.809487,4.923398 5.805689,4.934139 5.791566,5.116541 5.794402,5.144225 5.792956,5.190878 5.625807,5.191691 5.551279,5.191166 5.536562,5.190944 5.509891,5.191076 5.506793,5.191134 5.505906,5.190971 5.368024,5.191861 5.312553,5.192899 5.306864,5.193176 5.283372,5.194526 5.277942,5.19535 5.259322,5.195624 5.254579,5.19573 5.244737,5.195939 5.196939,5.197303 5.195728,5.25458 5.195623,5.259323 5.195347,5.277944 5.194523,5.283373 5.193175,5.306866 5.192896,5.312556 5.191859,5.368027 5.192111,5.370177 5.192007,5.376837 5.191705,5.431505 5.190942,5.536564 5.191165,5.551282 5.191689,5.625809 5.190876,5.792956 5.144436,5.794842 5.116541,5.791568 4.934136,5.805691 4.923398,5.809488 4.832924,5.801753 4.667124,5.790101 3.009841,5.790101 2.968168,5.79453 2.911156,5.798642 2.78003,5.81493 2.673306,5.82163 2.673256,5.683792 2.673312,5.638176 2.67328,5.625972 2.673288,5.552244 2.673278,5.254112 2.673241,5.165859 2.577816,5.165717 2.577816,4.98176 2.578166,4.832869 2.640453,4.833091 2.706615,4.832804 2.767923,4.833243 2.768211,4.667952 2.768213,4.667442 2.768213,3.009842 2.768341,2.968169 2.768355,2.911166 2.705087,2.911222 2.640452,2.91113 2.637421,2.911389 2.578166,2.911369 2.578296,2.780229 2.577945,2.623382 2.577945,2.577947 2.775202,2.577741" style="fill: white" /><polygon type="contour" points="2.911156,13.33306 2.968167,13.337172 3.009841,13.341603 4.667124,13.341603 4.832924,13.32995 4.923398,13.322215 4.934136,13.326012 5.116541,13.340136 5.144436,13.336862 5.190876,13.338747 5.191689,13.505894 5.191165,13.58042 5.190942,13.595138 5.191705,13.700197 5.192007,13.754867 5.192111,13.761526 5.19186,13.763676 5.192897,13.819146 5.193174,13.824836 5.194524,13.848329 5.195348,13.853759 5.195622,13.872378 5.195729,13.877124 5.196939,13.934387 5.244738,13.935765 5.254578,13.935973 5.259322,13.936078 5.27794,13.936353 5.283372,13.937177 5.312553,13.938803 5.368024,13.939841 5.370174,13.93959 5.376835,13.939694 5.431501,13.939994 5.536563,13.940759 5.55128,13.940536 5.625806,13.940014 5.792956,13.940826 5.794402,13.987478 5.791566,14.01516 5.805689,14.197565 5.809487,14.208305 5.801751,14.298777 5.790098,14.464578 5.790098,16.121861 5.794526,16.163534 5.815733,16.207589 5.833102,16.347337 5.805534,16.45836 5.640567,16.458191 5.561385,16.458213 5.436887,16.458396 5.165857,16.458421 5.165714,16.553886 4.981757,16.553887 4.832866,16.553537 4.833088,16.491248 4.832803,16.425086 4.833242,16.363779 4.66795,16.363491 4.66744,16.363489 3.009842,16.363489 2.968167,16.36336 2.911164,16.363346 2.91122,16.426615 2.911129,16.491248 2.911387,16.49428 2.911454,16.553448 2.776374,16.553762 2.775202,16.553964 2.577945,16.553757 2.577945,16.508322 2.578296,16.351475 2.578166,16.220334 2.640453,16.220572 2.702978,16.220572 2.705088,16.220482 2.768355,16.220538 2.768341,16.163534 2.768213,16.121861 2.768213,14.464261 2.76821,14.463752 2.767923,14.298457 2.706616,14.298901 2.702978,14.298614 2.640452,14.298614 2.637421,14.298814 2.578166,14.298836 2.577816,14.149943 2.577816,13.965986 2.673277,13.96581 2.673306,13.694812 2.673489,13.570314 2.673511,13.491133 2.67334,13.326168 2.784366,13.2986" style="fill: white" />
</svg>
