<svg width="19.131698" height="19.131699">
<polygon type="contour" points="9.669223,8.661773 9.711101,8.662895 9.711101,8.746357 10.165204,8.746357 10.165731,8.662667 10.272862,8.663166 10.470343,8.661359 10.46929,8.717055 10.469196,8.727325 10.46876,8.878141 10.468487,8.966664 10.385345,8.966341 10.385345,9.420602 10.473362,9.420602 10.472779,9.541235 10.472572,9.565636 10.473137,9.683166 10.473362,9.711102 10.385345,9.711102 10.385345,10.16497 10.468487,10.16504 10.46876,10.253562 10.469196,10.404378 10.46929,10.414648 10.470343,10.470345 10.272862,10.468538 10.165731,10.469036 10.165011,10.385346 9.711101,10.385346 9.711101,10.468808 9.697681,10.469097 9.565501,10.472561 9.462275,10.469929 9.4206,10.468808 9.4206,10.385346 8.966496,10.385346 8.96597,10.469036 8.858837,10.468538 8.661357,10.470345 8.662409,10.414648 8.662503,10.404378 8.662939,10.253562 8.663213,10.16504 8.746354,10.165362 8.746354,9.711102 8.658338,9.711102 8.658921,9.590468 8.659128,9.566202 8.658562,9.448672 8.658338,9.420602 8.746354,9.420602 8.746354,8.966733 8.663213,8.966664 8.662939,8.878141 8.662503,8.727325 8.662409,8.717055 8.661357,8.661359 8.858837,8.663166 8.96597,8.662666 8.966687,8.746357 9.4206,8.746357 9.4206,8.662895 9.43402,8.662603 9.565638,8.659142" style="fill: white" />
</svg>
