<svg width="19.131698" height="19.131699">
<polygon type="contour" points="8.374912,8.26972 8.542315,8.267551 8.544175,8.328459 8.544175,8.386931 8.544453,8.392334 8.544953,8.476728 8.544953,8.544955 8.270809,8.544955 8.267263,8.510058 8.266656,8.266658" style="fill: white" /><polygon type="contour" points="8.547142,9.96895 8.545294,10.030086 8.49999,10.030086 8.438005,10.030046 8.437897,9.968951 8.437691,9.924885 8.547251,9.924885" style="fill: white" /><polygon type="contour" points="8.765505,9.96895 8.765486,10.030046 8.720395,10.030046 8.668684,10.030086 8.66861,9.968951 8.668776,9.925108 8.709393,9.924941 8.765505,9.924941" style="fill: white" /><polygon type="contour" points="8.765486,10.366216 8.765486,10.411306 8.765583,10.463018 8.73015,10.462584 8.668862,10.462584 8.668685,10.421588 8.668685,10.366119 8.710112,10.366119" style="fill: white" /><polygon type="contour" points="8.54527,10.401295 8.54527,10.462584 8.437983,10.462584 8.43809,10.421589 8.438005,10.366216 8.487312,10.366216 8.545294,10.366119" style="fill: white" /><polygon type="contour" points="8.544453,10.660368 8.544453,10.739368 8.544175,10.803244 8.543824,10.809656 8.542315,10.864153 8.374912,10.861984 8.266657,10.865046 8.268789,10.786705 8.270607,10.695573 8.271174,10.659432 8.270937,10.58675 8.40696,10.58675 8.476725,10.586749 8.544953,10.586749" style="fill: white" /><polygon type="contour" points="8.765583,10.631712 8.765486,10.693698 8.710112,10.693613 8.668862,10.69372 8.668862,10.586432 8.710112,10.586409 8.765583,10.586409" style="fill: white" /><polygon type="contour" points="9.206817,10.694011 9.16275,10.693804 9.101656,10.693698 9.101656,10.64439 9.101616,10.586409 9.139561,10.586506 9.206817,10.584449" style="fill: white" /><polygon type="contour" points="9.206594,10.400776 9.206594,10.462671 9.16275,10.46309 9.101616,10.463018 9.101616,10.421588 9.101656,10.366216 9.150315,10.366216 9.206761,10.366197" style="fill: white" /><polygon type="contour" points="9.206761,9.968951 9.206761,10.02994 9.16275,10.02994 9.101656,10.030046 9.101656,9.981388 9.101761,9.924941 9.139064,9.924885 9.206817,9.924885" style="fill: white" /><polygon type="contour" points="9.206817,9.80395 9.16275,9.803766 9.101761,9.803766 9.101761,9.327938 9.139064,9.327754 9.206817,9.327754" style="fill: white" /><polygon type="contour" points="8.765486,9.101658 8.765486,9.150317 8.765505,9.206763 8.709393,9.206763 8.668777,9.206596 8.66861,9.162752 8.668684,9.101619 8.710113,9.101619" style="fill: white" /><polygon type="contour" points="8.709394,9.327938 8.765505,9.327938 8.765505,9.803766 8.730672,9.803891 8.668777,9.803891 8.668777,9.327812" style="fill: white" /><polygon type="contour" points="8.477362,9.327407 8.546903,9.327407 8.546903,9.804297 8.477362,9.804297 8.393544,9.804383 8.270568,9.804383 8.270018,9.730328 8.269125,9.694199 8.268341,9.652058 8.266998,9.62539 8.266311,9.565502 8.266998,9.505858 8.268341,9.479264 8.269125,9.437228 8.270017,9.401192 8.270568,9.327321 8.393544,9.327321" style="fill: white" /><polygon type="contour" points="8.545196,9.139563 8.547251,9.206819 8.437691,9.206819 8.437897,9.162752 8.438005,9.101658 8.487312,9.101658 8.545294,9.101619" style="fill: white" /><polygon type="contour" points="8.545294,8.710114 8.545294,8.765585 8.49999,8.765585 8.438005,8.765488 8.43809,8.710114 8.437983,8.668864 8.476982,8.668812 8.54521,8.668812" style="fill: white" /><polygon type="contour" points="8.765583,8.710114 8.765485,8.765488 8.720396,8.765488 8.668685,8.765585 8.668862,8.730152 8.668862,8.668864 8.710112,8.668687 8.765583,8.668687" style="fill: white" /><polygon type="contour" points="8.710112,8.438091 8.765486,8.438006 8.765486,8.487314 8.765583,8.545296 8.729949,8.545212 8.66881,8.545212 8.66881,8.476985 8.668862,8.437984" style="fill: white" /><polygon type="contour" points="9.566198,8.266328 9.652437,8.268344 9.694471,8.269127 9.73051,8.27002 9.804408,8.270928 9.804415,8.273067 9.804408,8.276015 9.804408,8.279306 9.804459,8.54476 9.538849,8.544546 9.327439,8.544546 9.327439,8.493435 9.327292,8.276015 9.327285,8.273067 9.327292,8.270928 9.401372,8.27002 9.4375,8.269126 9.479642,8.268344 9.525904,8.266236" style="fill: white" /><polygon type="contour" points="9.206817,8.544997 9.16275,8.545113 9.101616,8.545296 9.101616,8.499991 9.101656,8.438006 9.16275,8.437899 9.206817,8.437693" style="fill: white" /><polygon type="contour" points="9.206761,8.707364 9.206761,8.765507 9.162751,8.765507 9.101656,8.765488 9.101656,8.720396 9.101616,8.668687 9.162751,8.666582 9.206594,8.666538" style="fill: white" /><polygon type="contour" points="9.206761,9.101763 9.206761,9.162753 9.206594,9.168872 9.206817,9.206819 9.16275,9.206763 9.101761,9.206763 9.101761,9.162753 9.101656,9.101658 9.150314,9.101658" style="fill: white" /><polygon type="contour" points="9.968949,9.327938 10.029939,9.327938 10.029939,9.803766 9.992634,9.80395 9.924883,9.80395 9.924883,9.327754" style="fill: white" /><polygon type="contour" points="10.030045,9.150317 10.029939,9.206763 9.992633,9.206819 9.924883,9.206819 9.924939,9.162752 9.924939,9.101763 9.968948,9.101763 10.030045,9.101658" style="fill: white" /><polygon type="contour" points="9.803949,9.139067 9.803949,9.206819 9.347636,9.206544 9.327526,9.206544 9.327526,9.201807 9.327936,9.101763 9.803764,9.101763" style="fill: white" /><polygon type="contour" points="9.804232,8.672419 9.803764,8.765507 9.327936,8.765507 9.32781,8.730674 9.327468,8.672419 9.327468,8.668266 9.804232,8.668266" style="fill: white" /><polygon type="contour" points="9.968949,8.666582 10.030085,8.668687 10.030085,8.710114 10.030045,8.765488 9.981385,8.765488 9.924939,8.765507 9.925106,8.730673 9.925106,8.666538" style="fill: white" /><polygon type="contour" points="9.968949,8.437899 10.030045,8.438006 10.030045,8.487313 10.030085,8.545296 9.992138,8.545197 9.924883,8.544997 9.924883,8.437693" style="fill: white" /><polygon type="contour" points="10.862911,8.344996 10.861092,8.43613 10.860523,8.472272 10.860761,8.544955 10.586748,8.544955 10.587248,8.471336 10.587248,8.392334 10.587525,8.328458 10.587876,8.322047 10.589384,8.267551 10.756788,8.26972 10.865044,8.266658" style="fill: white" /><polygon type="contour" points="10.462891,8.476984 10.462891,8.545212 10.421588,8.545296 10.366117,8.545296 10.366117,8.499992 10.366215,8.438006 10.421588,8.438091 10.462582,8.437984" style="fill: white" /><polygon type="contour" points="10.401292,8.668864 10.462582,8.668864 10.463016,8.710114 10.463016,8.765585 10.421588,8.765585 10.366215,8.765487 10.366215,8.720397 10.366117,8.668687" style="fill: white" /><polygon type="contour" points="10.693718,8.668864 10.69361,8.710114 10.693695,8.765488 10.644387,8.765488 10.586407,8.765585 10.586491,8.72995 10.586491,8.668812 10.654716,8.668812" style="fill: white" /><polygon type="contour" points="10.861681,9.401374 10.862574,9.437503 10.863359,9.479646 10.864703,9.506312 10.865389,9.566202 10.864703,9.625844 10.863359,9.65244 10.862574,9.694473 10.861682,9.730511 10.861131,9.804383 10.738157,9.804383 10.654336,9.804297 10.586983,9.804297 10.584795,9.525694 10.584795,9.327407 10.654336,9.327407 10.738157,9.327321 10.861132,9.327321" style="fill: white" /><polygon type="contour" points="10.693695,9.101658 10.693802,9.162752 10.69401,9.206819 10.584447,9.206819 10.584556,9.162753 10.586407,9.101619 10.63171,9.101619" style="fill: white" /><polygon type="contour" points="10.463088,9.162752 10.462669,9.206596 10.422304,9.206763 10.366195,9.206763 10.366195,9.162752 10.366215,9.101658 10.411304,9.101658 10.463016,9.101619" style="fill: white" /><polygon type="contour" points="10.465121,9.606272 10.465121,9.804035 10.424339,9.803766 10.366195,9.803766 10.366195,9.327938 10.402578,9.327669 10.462933,9.327669" style="fill: white" /><polygon type="contour" points="10.864436,10.621644 10.865044,10.865046 10.756788,10.861983 10.589385,10.864153 10.587525,10.803244 10.587525,10.744771 10.587248,10.739369 10.586748,10.654975 10.586748,10.586749 10.860889,10.586749" style="fill: white" /><polygon type="contour" points="10.401292,10.586432 10.462582,10.586432 10.462582,10.69372 10.421588,10.693613 10.366215,10.693698 10.366215,10.644389 10.366117,10.586409" style="fill: white" /><polygon type="contour" points="10.462582,10.401294 10.462582,10.462584 10.421587,10.463018 10.366117,10.463018 10.366117,10.421588 10.366215,10.366216 10.411304,10.366216 10.463016,10.366119" style="fill: white" /><polygon type="contour" points="10.693695,10.366216 10.69361,10.421588 10.693718,10.462584 10.58643,10.462584 10.586407,10.421588 10.586407,10.366119 10.63171,10.366119" style="fill: white" /><polygon type="contour" points="10.693802,9.968951 10.693695,10.030046 10.644388,10.030046 10.586407,10.030086 10.586505,9.99214 10.586706,9.924885 10.69401,9.924885" style="fill: white" /><polygon type="contour" points="10.464912,9.925108 10.465122,9.96895 10.463016,10.030086 10.421587,10.030086 10.366215,10.030046 10.366215,9.981388 10.366195,9.924941 10.424338,9.924941" style="fill: white" /><polygon type="contour" points="9.968949,9.924941 10.029939,9.924941 10.029939,9.968951 10.030045,10.030046 9.981386,10.030046 9.924939,10.02994 9.924939,9.968951 9.925105,9.962578 9.924883,9.924885" style="fill: white" /><polygon type="contour" points="9.804283,9.804285 9.327417,9.804285 9.327417,9.327419 9.804283,9.327419" style="fill: white" /><polygon type="contour" points="9.784062,9.925161 9.804174,9.925161 9.804174,9.929896 9.803763,10.02994 9.327936,10.02994 9.327752,9.992635 9.327752,9.924885" style="fill: white" /><polygon type="contour" points="9.803888,10.400776 9.803888,10.462671 9.345971,10.463293 9.327468,10.463293 9.327468,10.459284 9.327936,10.366197 9.803764,10.366197" style="fill: white" /><polygon type="contour" points="10.030045,10.366216 10.030045,10.411307 10.030085,10.463018 9.968949,10.46309 9.925106,10.462671 9.924939,10.422306 9.924939,10.366197 9.968948,10.366197" style="fill: white" /><polygon type="contour" points="9.968948,10.584558 10.030085,10.586409 10.030085,10.631712 10.030045,10.693698 9.968949,10.693804 9.924883,10.694011 9.924883,10.584449" style="fill: white" /><polygon type="contour" points="9.804408,10.855687 9.804415,10.858633 9.804407,10.860774 9.730326,10.861684 9.694197,10.862575 9.652057,10.863361 9.605796,10.865469 9.5655,10.865376 9.479262,10.863361 9.437225,10.862575 9.40119,10.861684 9.327292,10.860774 9.327285,10.858633 9.327292,10.855687 9.327292,10.586946 9.804408,10.586946" style="fill: white" />
</svg>
