<svg width="19.131698" height="19.131699">
<polygon type="contour" points="8.620468,8.535042 8.655841,8.536056 8.658008,8.536301 8.825246,8.534658 8.828248,8.606611 8.828248,8.704727 8.905814,8.704405 8.976087,8.704097 8.976087,8.744977 8.976144,8.828825 8.976144,8.905818 8.976087,8.97609 8.944907,8.97609 8.881642,8.976147 8.79713,8.976147 8.704095,8.97609 8.704403,8.905817 8.704724,8.82857 8.595263,8.82857 8.56613,8.828606 8.537818,8.828606 8.537862,8.793808 8.537424,8.744728 8.53574,8.642007 8.532488,8.53249" style="fill: white" /><polygon type="contour" points="9.860117,10.155614 9.860117,10.186793 9.86018,10.250058 9.86018,10.33457 9.860117,10.427607 9.787912,10.427772 9.711101,10.427516 9.711101,10.593867 9.693711,10.59395 9.669139,10.594611 9.617794,10.596838 9.565697,10.597767 9.462361,10.594612 9.437904,10.59395 9.4206,10.593812 9.4206,10.427516 9.343787,10.427772 9.271583,10.427607 9.271583,10.386726 9.27152,10.302878 9.27152,10.225887 9.271583,10.155614 9.303455,10.155614 9.368212,10.155592 9.787913,10.155592" style="fill: white" /><polygon type="contour" points="10.427605,10.155614 10.427297,10.225886 10.426972,10.303135 10.536437,10.303135 10.56557,10.303099 10.593882,10.303099 10.593838,10.337897 10.594276,10.386974 10.595959,10.489694 10.599212,10.599214 10.511231,10.596661 10.475858,10.595648 10.473692,10.595403 10.306455,10.597046 10.303453,10.525092 10.303453,10.426973 10.225884,10.427299 10.155613,10.427606 10.155613,10.386727 10.155556,10.302878 10.155556,10.225886 10.155613,10.155614 10.186792,10.155614 10.250058,10.155557 10.33457,10.155557" style="fill: white" /><polygon type="contour" points="10.427605,9.271585 10.42777,9.343789 10.427514,9.420602 10.596846,9.420602 10.596666,9.458578 10.598344,9.566004 10.596666,9.672942 10.596846,9.711102 10.427514,9.711102 10.42777,9.787914 10.427605,9.860119 10.386724,9.860119 10.302877,9.860181 10.225885,9.860181 10.155613,9.860119 10.155613,9.828245 10.15559,9.76349 10.15559,9.34379 10.155613,9.271585 10.186792,9.271585 10.250058,9.271523 10.334569,9.271523" style="fill: white" /><polygon type="contour" points="10.59596,8.642007 10.594276,8.744729 10.593838,8.793807 10.593882,8.828606 10.56557,8.828606 10.536437,8.82857 10.426972,8.82857 10.427297,8.905818 10.427604,8.97609 10.386724,8.97609 10.302877,8.976147 10.225884,8.976147 10.155613,8.97609 10.155613,8.94491 10.155556,8.881645 10.155556,8.797132 10.155613,8.704097 10.225885,8.704405 10.303388,8.704727 10.303453,8.606611 10.304276,8.599466 10.306455,8.534658 10.473692,8.536301 10.475858,8.536056 10.511231,8.535042 10.599212,8.53249" style="fill: white" /><polygon type="contour" points="9.669139,8.537092 9.693711,8.537754 9.711101,8.537837 9.711101,8.704185 9.787913,8.70393 9.860117,8.704097 9.860117,8.744976 9.86018,8.828826 9.86018,8.905817 9.860117,8.97609 9.828243,8.97609 9.763488,8.976112 9.343787,8.976112 9.271583,8.97609 9.271583,8.94491 9.271519,8.881645 9.27152,8.881645 9.27152,8.797133 9.271583,8.704097 9.343788,8.70393 9.4206,8.704185 9.4206,8.537837 9.437905,8.537754 9.46236,8.537092 9.513457,8.534867 9.565501,8.533937" style="fill: white" /><polygon type="contour" points="9.4206,9.271635 9.4206,9.271613 9.787912,9.271613 9.860117,9.271585 9.860117,9.303456 9.860064,9.420602 9.860088,9.420602 9.860088,9.787913 9.860117,9.860119 9.828244,9.860119 9.711101,9.860068 9.711101,9.860091 9.343788,9.860091 9.271583,9.860119 9.271583,9.828246 9.271635,9.711102 9.271612,9.711102 9.271612,9.34379 9.271583,9.271585 9.303454,9.271585" style="fill: white" /><polygon type="contour" points="8.976087,9.271585 8.976087,9.303457 8.97611,9.368213 8.97611,9.787913 8.976087,9.860119 8.944907,9.860119 8.881642,9.860181 8.797131,9.860181 8.704095,9.860119 8.703928,9.787913 8.704183,9.711102 8.534854,9.711102 8.535034,9.673125 8.533356,9.565699 8.535034,9.458761 8.534854,9.420602 8.704183,9.420602 8.703928,9.34379 8.704095,9.271585 8.744975,9.271585 8.828823,9.271523 8.905814,9.271523" style="fill: white" /><polygon type="contour" points="8.976087,10.155614 8.976087,10.186793 8.976144,10.250059 8.976144,10.334571 8.976087,10.427607 8.905815,10.427299 8.828312,10.426973 8.828248,10.525093 8.827422,10.532235 8.825246,10.597046 8.658008,10.595403 8.655841,10.595648 8.620468,10.596661 8.532488,10.599214 8.53574,10.489694 8.537424,10.386975 8.537862,10.337896 8.537818,10.303099 8.56613,10.303099 8.595263,10.303135 8.704724,10.303135 8.704402,10.225886 8.704095,10.155614 8.744975,10.155614 8.828822,10.155557 8.905815,10.155557" style="fill: white" />
</svg>
