<svg width="19.131698" height="19.131699">
<polygon type="contour" points="8.135345,8.054348 8.307457,8.056263 8.32883,8.056532 8.328807,8.124114 8.329839,8.329841 8.246564,8.329841 8.152769,8.330011 8.057922,8.330011 8.057934,8.230352 8.057335,8.206162 8.052859,8.052862" style="fill: white" /><polygon type="contour" points="8.330866,8.638002 8.330866,8.656268 8.245866,8.656268 8.225972,8.656198 8.226001,8.638002 8.226023,8.560877 8.330809,8.560877" style="fill: white" /><polygon type="contour" points="8.330866,8.7652 8.330796,8.837293 8.330767,8.870487 8.22599,8.870487 8.225985,8.785493 8.225972,8.765168 8.312288,8.765168" style="fill: white" /><polygon type="contour" points="8.297427,9.097453 8.329817,9.097453 8.329861,9.198794 8.330034,9.486951 8.330687,9.486951 8.330765,9.55931 8.330765,9.572983 8.330714,9.618772 8.330687,9.644753 8.329965,9.644753 8.329997,9.932319 8.329961,10.034584 8.057881,10.034584 8.058363,9.830345 8.058399,9.741428 8.150385,9.741428 8.22612,9.741443 8.225878,9.620258 8.226355,9.572984 8.226399,9.566202 8.226355,9.55931 8.225355,9.390257 8.058145,9.390257 8.057941,9.199384 8.057881,9.09712 8.110323,9.09712" style="fill: white" /><polygon type="contour" points="8.83686,9.097941 8.870485,9.097941 8.870485,9.296845 8.870797,9.486951 8.870971,9.486951 8.871141,9.55931 8.871141,9.572984 8.870841,9.618457 8.870971,9.644753 8.870639,9.644752 8.870639,9.929456 8.870485,10.033762 8.785491,10.033947 8.765193,10.033947 8.765193,9.797914 8.765474,9.644617 8.765297,9.644617 8.765381,9.581458 8.765381,9.550764 8.765165,9.502267 8.766131,9.390406 8.765297,9.390406 8.765297,9.162087 8.765193,9.097757" style="fill: white" /><polygon type="contour" points="8.636898,9.097757 8.656251,9.097757 8.656251,9.333788 8.655869,9.487087 8.65611,9.487087 8.656075,9.550764 8.656075,9.581458 8.656196,9.629437 8.655562,9.741298 8.65611,9.741298 8.65611,9.969616 8.656251,10.033947 8.636898,10.033947 8.557751,10.034103 8.559544,9.83203 8.562207,9.645424 8.560842,9.645424 8.560263,9.57304 8.560263,9.559256 8.560875,9.512387 8.560842,9.48628 8.562207,9.486294 8.559544,9.299673 8.557751,9.097601" style="fill: white" /><polygon type="contour" points="8.656196,8.851489 8.656251,8.870196 8.590628,8.870622 8.559544,8.870622 8.560107,8.785493 8.560936,8.7652 8.638,8.7652 8.656196,8.765168" style="fill: white" /><polygon type="contour" points="8.870194,8.765195 8.870485,8.836862 8.870485,8.870487 8.785491,8.870196 8.765193,8.870196 8.765193,8.785494 8.765166,8.765168 8.851486,8.765168" style="fill: white" /><polygon type="contour" points="8.870194,8.637713 8.870194,8.656253 8.785491,8.656253 8.765166,8.656198 8.765166,8.577937 8.765198,8.560937 8.785491,8.560919 8.87062,8.560849" style="fill: white" /><polygon type="contour" points="8.638,8.560937 8.656266,8.560937 8.656266,8.638002 8.656196,8.656198 8.577935,8.656198 8.560936,8.656268 8.560875,8.59028 8.560875,8.560877" style="fill: white" /><polygon type="contour" points="8.656196,8.31229 8.656266,8.330868 8.638001,8.330868 8.560875,8.330811 8.560875,8.226025 8.638001,8.226003 8.656196,8.225973" style="fill: white" /><polygon type="contour" points="8.785492,8.225987 8.870485,8.225992 8.870485,8.332114 8.785491,8.331662 8.765198,8.330868 8.765198,8.245869 8.765166,8.225973" style="fill: white" /><polygon type="contour" points="9.28773,8.058803 9.310319,8.058656 9.357398,8.057712 9.389445,8.057724 9.390168,8.086059 9.390168,8.113568 9.39033,8.123698 9.390219,8.226117 9.511442,8.22588 9.558719,8.226358 9.5655,8.226402 9.572392,8.226357 9.741437,8.225353 9.741369,8.164147 9.741369,8.123699 9.741532,8.086059 9.741551,8.082585 9.742254,8.057724 9.82138,8.058655 9.843969,8.058803 10.034365,8.057895 10.034365,8.164811 10.034249,8.297428 10.034249,8.329819 9.83251,8.329819 9.644752,8.329909 9.644752,8.330689 9.572391,8.330767 9.558719,8.330767 9.512929,8.330716 9.486948,8.330689 9.486948,8.329863 9.198792,8.329863 9.097452,8.331123 9.097391,8.239766 9.097391,8.057908 9.202489,8.056858" style="fill: white" /><polygon type="contour" points="11.073337,9.301358 11.073301,9.390276 10.905584,9.390276 10.905822,9.511445 10.905345,9.559311 10.905301,9.566202 10.905345,9.572984 10.906351,9.741447 11.073555,9.741447 11.073758,9.932319 11.073819,10.034584 11.021375,10.034584 10.834272,10.034251 10.801883,10.034251 10.801839,9.932909 10.801667,9.64552 10.80088,9.645529 10.800903,9.573013 10.800903,9.559283 10.800844,9.512358 10.80088,9.486175 10.803038,9.486175 10.800461,9.301359 10.800579,9.097453 10.886227,9.097453 11.073819,9.09712" style="fill: white" /><polygon type="contour" points="11.074365,8.206162 11.073767,8.230352 11.073779,8.330011 10.97893,8.330011 10.885136,8.329841 10.833841,8.329841 10.80184,8.329863 10.802892,8.124114 10.802869,8.056532 10.82424,8.056264 10.996355,8.054348 11.078841,8.052862" style="fill: white" /><polygon type="contour" points="10.9057,8.638002 10.905729,8.656198 10.819412,8.656198 10.800835,8.656268 10.800835,8.638002 10.800891,8.560877 10.905677,8.560877" style="fill: white" /><polygon type="contour" points="10.905715,8.785494 10.90571,8.870487 10.799588,8.870487 10.80004,8.785493 10.800835,8.7652 10.885832,8.7652 10.905729,8.765168" style="fill: white" /><polygon type="contour" points="10.03447,9.199385 10.034274,9.390257 10.034166,9.390257 10.033898,9.559228 10.033898,9.573067 10.034101,9.619559 10.033706,9.74165 10.034251,9.741652 10.034347,9.832036 10.034582,10.034584 9.932316,10.034472 9.741446,10.034276 9.741446,10.034168 9.572474,10.0339 9.558635,10.0339 9.512142,10.034103 9.390052,10.033708 9.390051,10.034253 9.299666,10.034349 9.097119,10.034584 9.09723,9.932318 9.097426,9.741447 9.097981,9.741447 9.097854,9.572983 9.097802,9.559227 9.097598,9.512144 9.097997,9.390053 9.09745,9.390052 9.097351,9.299666 9.097119,9.09712 9.199384,9.097231 9.390255,9.097428 9.390255,9.097981 9.558718,9.097857 9.572474,9.097803 9.619556,9.097601 9.741647,9.097995 9.741648,9.097451 9.832033,9.097354 10.034582,9.09712" style="fill: white" /><polygon type="contour" points="9.741296,8.766133 9.741296,8.765299 9.969615,8.765299 10.033945,8.765195 10.033761,8.836862 10.033761,8.870487 9.834855,8.870487 9.644752,8.870797 9.644752,8.870972 9.572392,8.871143 9.558719,8.871143 9.513243,8.870842 9.486948,8.870972 9.486948,8.870797 9.296844,8.870487 9.09794,8.870487 9.097755,8.785493 9.097755,8.765195 9.333787,8.765195 9.487085,8.765476 9.487085,8.765299 9.550244,8.765383 9.580937,8.765383 9.629434,8.765167" style="fill: white" /><polygon type="contour" points="10.033764,8.559546 10.033945,8.636901 10.033945,8.656253 9.797913,8.656253 9.644615,8.655871 9.644615,8.656112 9.580936,8.656076 9.550243,8.656076 9.502265,8.656198 9.390404,8.655564 9.390404,8.656112 9.162085,8.656112 9.097755,8.656253 9.097934,8.59063 9.097934,8.560849 9.29967,8.560849 9.486948,8.560838 9.486948,8.560449 9.558718,8.560173 9.572447,8.560266 9.619312,8.560877 9.645421,8.560844 9.645411,8.561766 9.829856,8.559082" style="fill: white" /><polygon type="contour" points="10.4937,8.226003 10.570825,8.226025 10.570825,8.258005 10.5711,8.330859 10.4937,8.330868 10.475433,8.330868 10.475433,8.245868 10.475503,8.225973" style="fill: white" /><polygon type="contour" points="10.366534,8.31229 10.366502,8.330868 10.294408,8.330798 10.261214,8.330769 10.261214,8.225993 10.346208,8.225987 10.366534,8.225973" style="fill: white" /><polygon type="contour" points="10.346207,8.560108 10.366502,8.560937 10.366502,8.638002 10.366534,8.656198 10.280214,8.656198 10.261506,8.656253 10.261506,8.636901 10.26108,8.559546" style="fill: white" /><polygon type="contour" points="10.570765,8.638002 10.570765,8.656268 10.4937,8.656268 10.475504,8.656198 10.475504,8.577937 10.475433,8.560937 10.541419,8.560877 10.570825,8.560877" style="fill: white" /><polygon type="contour" points="10.570765,8.7652 10.570781,8.785493 10.570852,8.870622 10.493988,8.870196 10.475449,8.870196 10.475449,8.785493 10.475504,8.765168 10.553764,8.765168" style="fill: white" /><polygon type="contour" points="10.366534,8.851489 10.366508,8.870196 10.346208,8.870196 10.333474,8.870621 10.261214,8.870486 10.261506,8.785494 10.261506,8.765195 10.346207,8.765195 10.366534,8.765168" style="fill: white" /><polygon type="contour" points="10.570852,9.097935 10.570852,9.299673 10.570866,9.486951 10.571253,9.486951 10.571531,9.559311 10.571531,9.572984 10.571242,9.618771 10.571253,9.644753 10.569483,9.644749 10.572156,9.83203 10.573948,10.034103 10.494801,10.033947 10.475449,10.033947 10.475449,9.797915 10.47583,9.644617 10.47559,9.644617 10.475624,9.581458 10.475624,9.550765 10.475504,9.502266 10.476137,9.390406 10.47559,9.390406 10.47559,9.162087 10.475449,9.097757 10.493989,9.097757" style="fill: white" /><polygon type="contour" points="10.366508,9.333788 10.366223,9.487087 10.366403,9.487087 10.36632,9.550764 10.36632,9.581458 10.366534,9.629437 10.365568,9.741298 10.366403,9.741298 10.366403,9.969616 10.366508,10.033947 10.294838,10.033763 10.261214,10.033763 10.261214,9.834858 10.260903,9.644753 10.260729,9.644753 10.26115,9.572984 10.26115,9.55931 10.26086,9.513246 10.260729,9.486951 10.261061,9.486951 10.261061,9.202248 10.261214,9.097941 10.346208,9.097757 10.366508,9.097757" style="fill: white" /><polygon type="contour" points="10.346207,10.800041 10.366502,10.800836 10.366502,10.885834 10.366534,10.90573 10.346208,10.905717 10.261214,10.905711 10.261214,10.799588" style="fill: white" /><polygon type="contour" points="10.5711,10.800845 10.5711,10.832926 10.570825,10.905679 10.4937,10.905702 10.475504,10.905731 10.475504,10.819413 10.475433,10.800836 10.4937,10.800836" style="fill: white" /><polygon type="contour" points="11.073767,10.901351 11.074365,10.925542 11.078841,11.078842 10.996356,11.077357 10.82424,11.075436 10.802869,11.075169 10.802892,11.007586 10.801861,10.801863 10.885136,10.801863 10.97893,10.801693 11.073779,10.801693" style="fill: white" /><polygon type="contour" points="10.905729,10.475506 10.9057,10.493702 10.905677,10.570827 10.800891,10.570827 10.800835,10.493701 10.800835,10.475435 10.885833,10.475435" style="fill: white" /><polygon type="contour" points="10.905715,10.346209 10.905729,10.366536 10.819412,10.366536 10.800834,10.366504 10.800904,10.294409 10.800933,10.261216 10.90571,10.261216" style="fill: white" /><polygon type="contour" points="10.571594,10.34621 10.570765,10.366504 10.4937,10.366504 10.475504,10.366536 10.475504,10.280216 10.475449,10.261508 10.541071,10.261082 10.572157,10.261082" style="fill: white" /><polygon type="contour" points="10.570825,10.541421 10.570825,10.570827 10.493699,10.570768 10.475433,10.570768 10.475433,10.493701 10.475504,10.475506 10.553764,10.475506 10.570765,10.475435" style="fill: white" /><polygon type="contour" points="10.366534,10.475506 10.366534,10.553767 10.366501,10.570768 10.346208,10.570784 10.26108,10.570854 10.261506,10.49399 10.261506,10.475451 10.346208,10.475451" style="fill: white" /><polygon type="contour" points="10.346208,10.261508 10.366508,10.261508 10.366508,10.346209 10.366534,10.366536 10.280214,10.366536 10.261506,10.36651 10.261214,10.294839 10.261214,10.261216" style="fill: white" /><polygon type="contour" points="9.644751,10.260903 9.834856,10.261216 10.033761,10.261216 10.033945,10.346209 10.033945,10.36651 9.797913,10.36651 9.644615,10.366225 9.644615,10.366405 9.580937,10.366322 9.550244,10.366322 9.502264,10.366536 9.390404,10.36557 9.390404,10.366405 9.162084,10.366405 9.097755,10.36651 9.09794,10.294839 9.09794,10.261216 9.296843,10.261216 9.486948,10.260903 9.486948,10.260732 9.558719,10.261151 9.572392,10.261151 9.618456,10.260862 9.644752,10.260732" style="fill: white" /><polygon type="contour" points="9.487085,10.475832 9.487085,10.475592 9.550244,10.475626 9.580936,10.475626 9.629435,10.475506 9.741296,10.476139 9.741296,10.475592 9.969614,10.475592 10.033945,10.475451 10.033765,10.541073 10.033765,10.570854 9.832029,10.570854 9.644752,10.570868 9.644752,10.571255 9.572391,10.571532 9.558663,10.571439 9.512387,10.570827 9.480938,10.570867 9.29967,10.570854 9.097934,10.570854 9.097755,10.49399 9.097755,10.475451 9.333786,10.475451" style="fill: white" /><polygon type="contour" points="9.486174,10.803172 9.486174,10.800882 9.558689,10.800904 9.572392,10.800936 9.618769,10.800985 9.644752,10.801015 9.644752,10.801841 9.932907,10.801841 10.034249,10.80058 10.034309,10.891935 10.034309,11.073796 9.92921,11.074846 9.843968,11.0729 9.821381,11.073047 9.774301,11.073992 9.742255,11.07398 9.741532,11.045644 9.741532,11.018135 9.741369,11.008005 9.741481,10.905586 9.620257,10.905824 9.572391,10.905347 9.5655,10.905303 9.558718,10.905347 9.390262,10.906353 9.390331,10.967556 9.390331,11.008004 9.390168,11.045644 9.390149,11.049118 9.389445,11.07398 9.310318,11.073048 9.287731,11.0729 9.097335,11.073809 9.097335,10.966892 9.097452,10.834275 9.097452,10.80058 9.299189,10.80058" style="fill: white" /><polygon type="contour" points="8.656266,10.885834 8.656196,10.905731 8.638,10.905702 8.560875,10.905679 8.560875,10.873698 8.5606,10.800845 8.638,10.800836 8.656266,10.800836" style="fill: white" /><polygon type="contour" points="8.870485,10.905712 8.785492,10.905717 8.765166,10.905731 8.765166,10.819413 8.765198,10.800836 8.837292,10.800906 8.870485,10.799589" style="fill: white" /><polygon type="contour" points="8.870485,10.261216 8.870194,10.346209 8.870194,10.36651 8.785492,10.36651 8.765166,10.366536 8.765166,10.280215 8.765193,10.261508 8.785491,10.261508 8.798226,10.261082" style="fill: white" /><polygon type="contour" points="8.870194,10.49399 8.87062,10.570854 8.785491,10.570784 8.765198,10.570768 8.765198,10.493702 8.765166,10.475506 8.851487,10.475506 8.870194,10.475451" style="fill: white" /><polygon type="contour" points="8.656196,10.475506 8.656196,10.553767 8.656266,10.570768 8.590279,10.570827 8.560875,10.570827 8.560936,10.493702 8.560936,10.475435 8.638001,10.475435" style="fill: white" /><polygon type="contour" points="8.636899,10.261508 8.656251,10.261508 8.656251,10.346209 8.656196,10.366536 8.577935,10.366536 8.560936,10.366503 8.560107,10.34621 8.559544,10.261082" style="fill: white" /><polygon type="contour" points="8.330848,10.346209 8.330866,10.366504 8.245866,10.366504 8.225972,10.366536 8.225985,10.34621 8.225989,10.261216 8.330767,10.261216" style="fill: white" /><polygon type="contour" points="8.330866,10.493701 8.330809,10.570827 8.226023,10.570827 8.226001,10.493702 8.225972,10.475506 8.312288,10.475506 8.330866,10.475435" style="fill: white" /><polygon type="contour" points="8.246564,10.801863 8.297858,10.801863 8.32986,10.801842 8.328807,11.007587 8.32883,11.075169 8.307457,11.075437 8.135345,11.077356 8.052859,11.078842 8.057335,10.925542 8.057934,10.901351 8.057922,10.801693 8.152769,10.801693" style="fill: white" />
</svg>
