<svg width="19.131698" height="19.131699">
<polygon type="contour" points="11.747416,10.621411 11.747326,10.665561 11.565892,10.667047 11.453169,10.667314 11.453169,10.474157 11.45336,10.371685 11.699196,10.370101 11.747707,10.369986" style="fill: white" /><polygon type="contour" points="11.751502,7.411501 11.748851,7.450928 11.748067,7.678194 11.453508,7.678194 11.453508,7.552336 11.453887,7.417784 11.453964,7.40011 11.454131,7.398789 11.454145,7.383277 11.689572,7.382673 11.751536,7.380166" style="fill: white" /><polygon type="contour" points="10.617468,7.384343 10.665614,7.384302 10.667374,7.486235 10.667374,7.60118 10.667214,7.678388 10.481117,7.678388 10.371603,7.678455 10.370092,7.436789 10.369966,7.384065" style="fill: white" /><polygon type="contour" points="10.889114,8.296058 10.889114,8.336388 10.835643,8.336388 10.795257,8.336445 10.795257,8.277455 10.795313,8.242588 10.846028,8.242477 10.889226,8.242477" style="fill: white" /><polygon type="contour" points="10.889114,8.465805 10.88922,8.631411 10.88922,8.761628 10.835644,8.761605 10.795251,8.761255 10.795251,8.582236 10.795217,8.46569 10.850964,8.46569" style="fill: white" /><polygon type="contour" points="10.664793,8.466907 10.664793,8.546262 10.664828,8.76243 10.601653,8.762446 10.369156,8.762545 10.369176,8.686812 10.369273,8.466874 10.434647,8.466874" style="fill: white" /><polygon type="contour" points="10.538887,8.242588 10.665896,8.242588 10.665896,8.296058 10.665955,8.336343 10.48607,8.336343 10.370609,8.336495 10.370599,8.282914 10.370075,8.242483" style="fill: white" /><polygon type="contour" points="10.666003,7.861423 10.665896,7.904212 10.500289,7.904286 10.370074,7.904286 10.370003,7.839792 10.370256,7.795296 10.548635,7.795296 10.665913,7.795155" style="fill: white" /><polygon type="contour" points="10.888908,7.795139 10.889226,7.8542 10.889226,7.904487 10.835644,7.904212 10.795313,7.904212 10.795104,7.839791 10.795031,7.79509 10.855893,7.79509" style="fill: white" /><polygon type="contour" points="10.889226,7.553028 10.888908,7.627974 10.888908,7.679211 10.833461,7.679211 10.795032,7.679063 10.795257,7.599253 10.795257,7.553014 10.835644,7.553006" style="fill: white" /><polygon type="contour" points="11.269948,7.553101 11.336511,7.553156 11.336511,7.679135 11.264796,7.679135 11.227364,7.679211 11.227213,7.610728 11.227213,7.553028" style="fill: white" /><polygon type="contour" points="11.336511,7.795191 11.336612,7.833436 11.336563,7.839792 11.336563,7.904339 11.277501,7.904487 11.227213,7.904487 11.227364,7.839792 11.227364,7.795139 11.291909,7.795139" style="fill: white" /><polygon type="contour" points="11.578616,7.839791 11.578672,7.859926 11.578672,7.904487 11.503727,7.904339 11.452489,7.904339 11.452489,7.839791 11.452567,7.795191 11.578544,7.795191" style="fill: white" /><polygon type="contour" points="11.701798,8.466034 11.747326,8.466143 11.747604,8.711178 11.747707,8.761718 11.563161,8.76028 11.453413,8.760002 11.453147,8.646664 11.453147,8.464388" style="fill: white" /><polygon type="contour" points="11.578661,8.280085 11.578689,8.336445 11.496395,8.336668 11.452639,8.336668 11.452639,8.275809 11.452489,8.242795 11.52097,8.242477 11.578672,8.242477" style="fill: white" /><polygon type="contour" points="11.291909,8.242795 11.336563,8.242795 11.336563,8.298237 11.336612,8.336668 11.291909,8.336592 11.22749,8.336388 11.227213,8.285672 11.227213,8.242477" style="fill: white" /><polygon type="contour" points="11.336592,8.648142 11.336482,8.761327 11.271603,8.761222 11.227416,8.761628 11.22749,8.592815 11.22749,8.465805 11.29191,8.465885 11.336592,8.465686" style="fill: white" /><polygon type="contour" points="11.532021,9.016621 11.57872,9.016621 11.57858,9.079275 11.578583,9.094029 11.578583,9.165975 11.500926,9.165721 11.45238,9.165721 11.45238,9.074393 11.452686,9.016426" style="fill: white" /><polygon type="contour" points="11.33662,9.114126 11.336567,9.165721 11.275081,9.165975 11.227213,9.165644 11.227416,9.082232 11.227416,9.016815 11.29191,9.016623 11.33662,9.016426" style="fill: white" /><polygon type="contour" points="10.88922,9.016815 10.889226,9.097303 10.889226,9.165644 10.835643,9.165292 10.795243,9.165586 10.795243,9.077756 10.795257,9.016784 10.85339,9.016696" style="fill: white" /><polygon type="contour" points="10.666206,9.016656 10.666206,9.10522 10.665814,9.165586 10.493708,9.165513 10.370267,9.165513 10.370267,9.079275 10.370528,9.016784 10.492632,9.016569" style="fill: white" /><polygon type="contour" points="10.114882,9.079274 10.114882,9.165513 10.031084,9.165975 9.965726,9.165975 9.966189,9.079275 9.966189,9.01682 10.052427,9.01682 10.115081,9.016621" style="fill: white" /><polygon type="contour" points="10.115133,8.63907 10.114919,8.761174 10.026595,8.761174 9.966189,8.761436 9.966116,8.586173 9.966116,8.465887 10.053945,8.465887 10.115046,8.465495" style="fill: white" /><polygon type="contour" points="10.049469,8.242483 10.114887,8.242483 10.11481,8.296058 10.114918,8.336445 10.021589,8.336445 9.966116,8.336459 9.965726,8.283667 9.966056,8.242477" style="fill: white" /><polygon type="contour" points="10.117308,7.795191 10.115205,7.833437 10.115078,7.839791 10.114887,7.904286 10.034395,7.904487 9.966056,7.904487 9.966263,7.839792 9.965979,7.795134 10.05731,7.795134" style="fill: white" /><polygon type="contour" points="10.115081,7.552982 10.115081,7.59968 10.115277,7.679016 10.017573,7.679016 9.965979,7.679322 9.965726,7.608041 9.965726,7.553115 10.024617,7.55297" style="fill: white" /><polygon type="contour" points="7.412448,7.38042 7.442128,7.382673 7.677551,7.383277 7.677733,7.40011 7.677733,7.416912 7.677811,7.417784 7.678192,7.552335 7.678192,7.678194 7.383633,7.678194 7.382849,7.450927 7.380164,7.380166" style="fill: white" /><polygon type="contour" points="8.761735,7.384065 8.760199,7.479981 8.759898,7.606067 8.760097,7.678455 8.58191,7.678455 8.464486,7.678388 8.464326,7.60118 8.464326,7.486235 8.466086,7.384302 8.713376,7.384014" style="fill: white" /><polygon type="contour" points="9.165666,7.553115 9.165448,7.630773 9.165448,7.679322 9.074119,7.679322 9.016424,7.679016 9.016619,7.59968 9.016619,7.552982 9.107081,7.55297" style="fill: white" /><polygon type="contour" points="9.165666,7.856618 9.165643,7.904487 9.082229,7.904286 9.016813,7.904286 9.016623,7.839792 9.014393,7.795191 9.112311,7.795191 9.165448,7.795134" style="fill: white" /><polygon type="contour" points="8.761442,7.795296 8.761351,7.857583 8.761626,7.904286 8.592812,7.904212 8.465803,7.904212 8.465882,7.839792 8.465787,7.795155 8.65188,7.795155" style="fill: white" /><polygon type="contour" points="8.336592,7.839792 8.336386,7.904212 8.28567,7.904487 8.242475,7.904487 8.242792,7.839792 8.242792,7.795139 8.298235,7.795139 8.336666,7.79509" style="fill: white" /><polygon type="contour" points="8.336666,7.635307 8.336666,7.679063 8.275805,7.679063 8.242792,7.679211 8.242475,7.610728 8.242475,7.553028 8.280083,7.553039 8.336443,7.553014" style="fill: white" /><polygon type="contour" points="7.904337,7.627975 7.904337,7.679211 7.83979,7.679211 7.795189,7.679134 7.795189,7.553155 7.839789,7.553085 7.904486,7.553028" style="fill: white" /><polygon type="contour" points="7.904486,7.854199 7.904486,7.904487 7.83979,7.904339 7.795137,7.904339 7.795137,7.839792 7.795189,7.795191 7.866905,7.795191 7.904337,7.795139" style="fill: white" /><polygon type="contour" points="7.679133,7.866907 7.67921,7.904339 7.610727,7.904487 7.553026,7.904487 7.5531,7.861752 7.553154,7.795191 7.679133,7.795191" style="fill: white" /><polygon type="contour" points="7.627972,8.242795 7.67921,8.242795 7.67921,8.298238 7.679061,8.336668 7.599251,8.336445 7.553011,8.336445 7.553003,8.296057 7.553026,8.284018 7.553026,8.242477" style="fill: white" /><polygon type="contour" points="7.679014,9.114126 7.67932,9.165721 7.60804,9.165975 7.553113,9.165975 7.552966,9.107082 7.552979,9.016621 7.599678,9.016621 7.679014,9.016426" style="fill: white" /><polygon type="contour" points="7.863572,9.014414 7.904284,9.016815 7.904486,9.097304 7.904486,9.165644 7.83979,9.165437 7.795132,9.165721 7.795132,9.074392 7.795189,9.014395" style="fill: white" /><polygon type="contour" points="7.678531,8.657545 7.67834,8.760018 7.432503,8.761602 7.383993,8.761718 7.384284,8.510292 7.384374,8.466143 7.565807,8.464657 7.678531,8.46439" style="fill: white" /><polygon type="contour" points="7.90421,8.465805 7.904284,8.631411 7.904284,8.761628 7.83979,8.761698 7.795216,8.761327 7.795216,8.576078 7.795107,8.465686 7.860008,8.465592" style="fill: white" /><polygon type="contour" points="7.90421,8.296058 7.90421,8.336388 7.83979,8.336593 7.795087,8.336668 7.795087,8.275808 7.795137,8.242795 7.854198,8.242477 7.904486,8.242477" style="fill: white" /><polygon type="contour" points="8.296055,8.242588 8.336386,8.242588 8.336386,8.296058 8.336443,8.336445 8.277453,8.336445 8.242587,8.336388 8.242475,8.285672 8.242475,8.242477" style="fill: white" /><polygon type="contour" points="8.336483,8.641671 8.336448,8.761255 8.280621,8.76127 8.242481,8.761628 8.242587,8.592816 8.242587,8.465805 8.296055,8.465805 8.336483,8.46569" style="fill: white" /><polygon type="contour" points="8.762445,8.530049 8.762545,8.762546 8.686811,8.762526 8.466872,8.76243 8.466872,8.697055 8.466904,8.466907 8.54626,8.466907 8.762428,8.466874" style="fill: white" /><polygon type="contour" points="8.761603,8.296057 8.761091,8.336495 8.589088,8.336495 8.465745,8.336343 8.465745,8.279359 8.465803,8.242588 8.631408,8.242483 8.761626,8.242483" style="fill: white" /><polygon type="contour" points="9.16529,8.296058 9.165298,8.336459 9.077469,8.336459 9.016782,8.336445 9.016694,8.278311 9.016813,8.242483 9.097301,8.242477 9.165642,8.242477" style="fill: white" /><polygon type="contour" points="9.165299,8.465887 9.165219,8.637994 9.165219,8.761436 9.078979,8.761436 9.016782,8.761174 9.016567,8.639069 9.016654,8.465495 9.105217,8.465495" style="fill: white" /><polygon type="contour" points="9.078979,9.01682 9.165219,9.01682 9.165666,9.100615 9.165666,9.165975 9.07898,9.165513 9.016819,9.165513 9.016819,9.079275 9.016619,9.016621" style="fill: white" /><polygon type="contour" points="8.761172,9.016784 8.761172,9.105106 8.761434,9.165513 8.586171,9.165586 8.465886,9.165586 8.465886,9.077757 8.465494,9.016656 8.639067,9.016569" style="fill: white" /><polygon type="contour" points="8.336443,9.110112 8.336457,9.165585 8.283664,9.165974 8.242475,9.165644 8.242481,9.082232 8.242481,9.016815 8.296056,9.016891 8.336443,9.016784" style="fill: white" /><polygon type="contour" points="8.296055,10.3701 8.336448,10.370449 8.336448,10.549468 8.336483,10.666014 8.280735,10.666014 8.242587,10.665897 8.242481,10.50029 8.242481,10.370076" style="fill: white" /><polygon type="contour" points="8.336443,10.854249 8.336386,10.889116 8.28567,10.889228 8.242475,10.889228 8.242587,10.835645 8.242587,10.795315 8.296056,10.795315 8.336443,10.795259" style="fill: white" /><polygon type="contour" points="8.296055,11.227492 8.336386,11.227492 8.336592,11.291911 8.336666,11.336614 8.275806,11.336614 8.242792,11.336565 8.242475,11.277503 8.242475,11.227215" style="fill: white" /><polygon type="contour" points="8.336666,11.452641 8.336443,11.53245 8.336443,11.57869 8.296055,11.578698 8.242475,11.578675 8.242792,11.503728 8.242792,11.452491 8.298236,11.452491" style="fill: white" /><polygon type="contour" points="8.761609,11.694914 8.761735,11.747639 8.514232,11.74736 8.466086,11.747402 8.464326,11.645468 8.464326,11.530522 8.464486,11.453315 8.650581,11.453315 8.760097,11.453247" style="fill: white" /><polygon type="contour" points="8.761695,11.291911 8.761442,11.336408 8.583064,11.336408 8.465787,11.336549 8.465697,11.27028 8.465803,11.227492 8.631409,11.227418 8.761626,11.227418" style="fill: white" /><polygon type="contour" points="9.165435,11.29191 9.165448,11.33657 9.07412,11.33657 9.016424,11.336623 9.016495,11.298266 9.016623,11.291911 9.016813,11.227418 9.097302,11.227215 9.165643,11.227215" style="fill: white" /><polygon type="contour" points="9.165666,11.52366 9.165666,11.578586 9.10708,11.578733 9.016619,11.578722 9.016619,11.532023 9.016424,11.452688 9.114125,11.452688 9.165448,11.452382" style="fill: white" /><polygon type="contour" points="10.115277,11.452688 10.115081,11.532023 10.115081,11.578722 10.024618,11.578733 9.965726,11.578586 9.965979,11.500929 9.965979,11.452382 10.057309,11.452382" style="fill: white" /><polygon type="contour" points="10.049469,11.227418 10.114887,11.227418 10.115078,11.291912 10.115277,11.336623 10.05731,11.33657 9.965979,11.33657 9.965725,11.275083 9.966055,11.227215" style="fill: white" /><polygon type="contour" points="10.114918,10.795259 10.115006,10.853392 10.114887,10.889222 10.034396,10.889228 9.966056,10.889228 9.966409,10.835646 9.966116,10.795245 10.053945,10.795245" style="fill: white" /><polygon type="contour" points="10.889114,10.538888 10.889114,10.665897 10.835643,10.665897 10.795217,10.666014 10.795217,10.490032 10.795251,10.370449 10.851077,10.370434 10.88922,10.370076" style="fill: white" /><polygon type="contour" points="10.889114,10.795315 10.889226,10.84603 10.889226,10.889228 10.835643,10.889116 10.795313,10.889116 10.795313,10.835645 10.795257,10.795259 10.854246,10.795259" style="fill: white" /><polygon type="contour" points="10.665955,10.795361 10.665955,10.852346 10.665896,10.889116 10.500289,10.889222 10.370075,10.889222 10.370097,10.835646 10.370609,10.795209 10.542612,10.795209" style="fill: white" /><polygon type="contour" points="10.538887,11.227492 10.665896,11.227492 10.665817,11.291911 10.665913,11.336549 10.479818,11.336549 10.370256,11.336408 10.370349,11.27412 10.370075,11.227418" style="fill: white" /><polygon type="contour" points="10.667214,11.453314 10.667374,11.530522 10.667374,11.645468 10.665614,11.747402 10.418323,11.747689 10.369966,11.747639 10.371501,11.651722 10.371802,11.525635 10.371603,11.453247 10.54979,11.453247" style="fill: white" /><polygon type="contour" points="10.888908,11.291911 10.888908,11.336565 10.833462,11.336565 10.795031,11.336614 10.795104,11.291911 10.795312,11.227492 10.846028,11.227215 10.889226,11.227215" style="fill: white" /><polygon type="contour" points="10.889226,11.520972 10.889226,11.578675 10.851616,11.578663 10.795257,11.57869 10.795032,11.496396 10.795032,11.452641 10.855893,11.452641 10.888908,11.452491" style="fill: white" /><polygon type="contour" points="11.748851,11.680776 11.751536,11.751537 11.719252,11.751284 11.689571,11.749031 11.454146,11.748427 11.453964,11.731593 11.453964,11.714792 11.453886,11.713919 11.453508,11.579369 11.453508,11.45351 11.748067,11.45351" style="fill: white" /><polygon type="contour" points="11.578597,11.269949 11.578545,11.336513 11.452567,11.336513 11.452567,11.264797 11.452489,11.227366 11.520969,11.227215 11.578672,11.227215" style="fill: white" /><polygon type="contour" points="11.336511,11.452569 11.336511,11.578547 11.29191,11.578619 11.227213,11.578675 11.227364,11.503728 11.227364,11.452491 11.29191,11.452491" style="fill: white" /><polygon type="contour" points="11.29191,11.227366 11.336563,11.227366 11.336563,11.291911 11.336511,11.336513 11.264795,11.336513 11.227364,11.336565 11.227213,11.277502 11.227213,11.227215" style="fill: white" /><polygon type="contour" points="11.336612,10.855895 11.336563,10.88891 11.277501,10.889228 11.227213,10.889228 11.22749,10.835645 11.22749,10.795315 11.29191,10.795108 11.336612,10.795034" style="fill: white" /><polygon type="contour" points="11.532448,10.795259 11.578689,10.795259 11.578697,10.835645 11.578672,10.847687 11.578672,10.889228 11.503726,10.88891 11.452489,10.88891 11.452489,10.833464 11.452639,10.795034" style="fill: white" /><polygon type="contour" points="11.336482,10.370376 11.336482,10.555625 11.336592,10.666018 11.27169,10.666112 11.22749,10.665897 11.227416,10.50029 11.227416,10.370076 11.291909,10.370005" style="fill: white" /><polygon type="contour" points="11.578729,10.024619 11.57872,10.115083 11.532021,10.115083 11.452686,10.115279 11.452686,10.017574 11.45238,9.966251 11.523657,9.966035 11.578583,9.966035" style="fill: white" /><polygon type="contour" points="11.291909,9.966266 11.336568,9.966252 11.336568,10.057583 11.33662,10.115279 11.26841,10.115083 11.227416,10.114889 11.227213,10.034399 11.227213,9.966059" style="fill: white" /><polygon type="contour" points="10.889226,9.966059 10.88922,10.049471 10.88922,10.114889 10.835644,10.114812 10.795257,10.11492 10.795257,10.021591 10.795243,9.966403 10.848035,9.966035" style="fill: white" /><polygon type="contour" points="10.665814,10.054233 10.666206,10.115049 10.492631,10.115135 10.370528,10.114921 10.370528,10.026598 10.370267,9.966484 10.545528,9.966403 10.665814,9.966403" style="fill: white" /><polygon type="contour" points="10.444889,10.369179 10.664828,10.369275 10.664828,10.43465 10.664793,10.664795 10.585436,10.664795 10.369273,10.66483 10.369256,10.601654 10.369156,10.369159" style="fill: white" /><polygon type="contour" points="10.114919,10.37053 10.115133,10.492633 10.115047,10.666209 10.026481,10.666209 9.966116,10.665817 9.966189,10.49371 9.966189,10.370269 10.052427,10.370269" style="fill: white" /><polygon type="contour" points="10.052427,9.966484 10.114882,9.966484 10.114882,10.052722 10.115081,10.115083 10.052427,10.114884 9.966189,10.114884 9.965726,10.031088 9.965726,9.966035" style="fill: white" /><polygon type="contour" points="9.165219,10.052723 9.165219,10.114884 9.078979,10.114884 9.016619,10.115083 9.016819,10.052722 9.016819,9.966484 9.100613,9.966035 9.165666,9.966035" style="fill: white" /><polygon type="contour" points="9.165299,10.54553 9.165299,10.665817 9.077469,10.665817 9.016654,10.666209 9.016567,10.492634 9.016782,10.37053 9.105104,10.37053 9.165219,10.370269" style="fill: white" /><polygon type="contour" points="9.165666,10.848037 9.165643,10.889227 9.082229,10.88922 9.016813,10.889222 9.01689,10.835645 9.016782,10.795259 9.11011,10.795259 9.165299,10.795245" style="fill: white" /><polygon type="contour" points="8.761101,10.848789 8.761626,10.889222 8.592813,10.889116 8.465803,10.889116 8.465803,10.835645 8.465745,10.795361 8.645629,10.795361 8.761091,10.795209" style="fill: white" /><polygon type="contour" points="8.762525,10.444892 8.762428,10.66483 8.697052,10.66483 8.466904,10.664795 8.466904,10.585438 8.466872,10.369275 8.530046,10.369258 8.762545,10.369159" style="fill: white" /><polygon type="contour" points="8.637991,9.966484 8.761434,9.966484 8.761434,10.052723 8.761172,10.114921 8.581791,10.114839 8.465494,10.115049 8.465494,10.026484 8.465886,9.966403" style="fill: white" /><polygon type="contour" points="8.296056,9.966412 8.336457,9.966403 8.336457,10.054233 8.336443,10.11492 8.278309,10.115008 8.242481,10.114889 8.242475,10.034399 8.242475,9.966059" style="fill: white" /><polygon type="contour" points="7.904486,9.966059 7.904284,10.049472 7.904284,10.114889 7.839789,10.11508 7.795189,10.11731 7.795132,10.057582 7.795132,9.966251 7.856617,9.966035" style="fill: white" /><polygon type="contour" points="7.630771,9.966252 7.67932,9.966252 7.67932,10.057583 7.679014,10.115279 7.599678,10.115083 7.55298,10.115083 7.553119,10.052723 7.553113,10.037981 7.553113,9.966035" style="fill: white" /><polygon type="contour" points="7.568538,10.371423 7.678287,10.371701 7.678553,10.485038 7.678553,10.667316 7.429901,10.665669 7.384374,10.665561 7.384096,10.420526 7.383993,10.369986" style="fill: white" /><polygon type="contour" points="7.90421,10.538889 7.90421,10.665897 7.839789,10.665818 7.795107,10.666018 7.795107,10.48356 7.795216,10.370376 7.860094,10.370482 7.904284,10.370076" style="fill: white" /><polygon type="contour" points="7.839789,10.795107 7.90421,10.795315 7.904486,10.84603 7.904486,10.889228 7.839789,10.88891 7.795137,10.88891 7.795137,10.833465 7.795087,10.795034" style="fill: white" /><polygon type="contour" points="7.679061,10.855896 7.67921,10.88891 7.610726,10.889228 7.553026,10.889228 7.553037,10.851618 7.553011,10.795259 7.635304,10.795034 7.679061,10.795034" style="fill: white" /><polygon type="contour" points="7.627972,11.227366 7.67921,11.227366 7.67921,11.291911 7.679133,11.336513 7.553154,11.336513 7.553083,11.291912 7.553026,11.271777 7.553026,11.227215" style="fill: white" /><polygon type="contour" points="7.904337,11.291912 7.904337,11.336565 7.83979,11.336565 7.795189,11.336513 7.795087,11.298267 7.795137,11.291912 7.795137,11.227366 7.854197,11.227215 7.904486,11.227215" style="fill: white" /><polygon type="contour" points="7.904486,11.520972 7.904486,11.578675 7.861749,11.5786 7.795189,11.578547 7.795189,11.452569 7.866905,11.452569 7.904337,11.452491" style="fill: white" /><polygon type="contour" points="7.678192,11.579368 7.67781,11.71392 7.677733,11.731592 7.677566,11.732915 7.677551,11.748427 7.442128,11.749031 7.380163,11.751537 7.380197,11.720203 7.382848,11.680776 7.383633,11.45351 7.678192,11.45351" style="fill: white" />
</svg>
