<svg width="19.131698" height="19.131699">
<polygon type="contour" points="8.811948,8.623057 8.921832,8.622545 8.92417,8.694066 8.92417,8.790611 9.043906,8.79097 9.043906,8.829082 9.043485,8.924196 9.043485,8.968406 9.043906,9.043907 9.017691,9.043907 8.952482,9.043487 8.901049,9.043487 8.790968,9.043907 8.790609,8.924107 8.663167,8.924107 8.634805,8.924134 8.624061,8.924134 8.622508,8.783294 8.621856,8.767081 8.617412,8.617414" style="fill: white" /><polygon type="contour" points="8.924193,9.299913 8.968403,9.299913 9.043906,9.299561 9.043906,9.326178 9.043802,9.392596 9.043802,9.75511 9.043906,9.832143 9.01769,9.832143 8.952482,9.831791 8.901049,9.831791 8.790968,9.832143 8.790642,9.711102 8.621623,9.711102 8.621256,9.616192 8.621498,9.566201 8.621832,9.464045 8.621623,9.420602 8.790642,9.420602 8.790968,9.299561 8.829079,9.299561" style="fill: white" /><polygon type="contour" points="9.392594,9.299618 9.755108,9.299618 9.83214,9.299561 9.83214,9.326179 9.832084,9.392596 9.832084,9.75511 9.83214,9.832143 9.805522,9.832143 9.739106,9.832086 9.376592,9.832086 9.29956,9.832143 9.29956,9.805524 9.299616,9.739107 9.299616,9.376593 9.29956,9.299561 9.326178,9.299561" style="fill: white" /><polygon type="contour" points="9.662925,8.624067 9.696842,8.624115 9.711101,8.624046 9.711101,8.790644 9.83214,8.79097 9.83214,8.829082 9.831789,8.924196 9.831789,8.968406 9.83214,9.043907 9.805523,9.043907 9.739105,9.043804 9.376591,9.043804 9.29956,9.043907 9.29956,9.017692 9.299911,8.952485 9.299911,8.901051 9.29956,8.79097 9.4206,8.790644 9.4206,8.624046 9.43479,8.624115 9.565501,8.621623" style="fill: white" /><polygon type="contour" points="10.509843,8.767081 10.509191,8.783294 10.507639,8.924134 10.496894,8.924134 10.468532,8.924107 10.341091,8.924107 10.340733,9.043907 10.30262,9.043907 10.207502,9.043487 10.163293,9.043487 10.087795,9.043907 10.087795,9.017691 10.088216,8.952485 10.088216,8.901051 10.087795,8.79097 10.20757,8.790611 10.20753,8.694066 10.207879,8.68634 10.209869,8.622545 10.319751,8.623057 10.514288,8.617414" style="fill: white" /><polygon type="contour" points="10.179214,9.299913 10.230647,9.299913 10.340733,9.299561 10.341058,9.420602 10.510078,9.420602 10.510443,9.515512 10.510201,9.565502 10.509868,9.667658 10.510078,9.711102 10.341058,9.711102 10.340733,9.832143 10.30262,9.832143 10.207502,9.831791 10.163294,9.831791 10.087795,9.832143 10.087795,9.805525 10.087899,9.739107 10.087899,9.376593 10.087795,9.299561 10.11401,9.299561" style="fill: white" /><polygon type="contour" points="10.179213,10.088218 10.230648,10.088218 10.340733,10.087797 10.341091,10.207594 10.468532,10.207594 10.496894,10.207567 10.507639,10.207567 10.509191,10.348409 10.509844,10.364621 10.514288,10.51429 10.31975,10.508648 10.209869,10.509159 10.20753,10.437636 10.20753,10.341093 10.087795,10.340735 10.087795,10.302622 10.088216,10.207504 10.088216,10.163295 10.087795,10.087797 10.114009,10.087797" style="fill: white" /><polygon type="contour" points="9.392594,10.087901 9.755109,10.087901 9.83214,10.087797 9.83214,10.114011 9.831789,10.179216 9.831789,10.230649 9.83214,10.340735 9.711101,10.34106 9.711101,10.507658 9.69691,10.507589 9.565955,10.51008 9.468775,10.507635 9.434857,10.507589 9.4206,10.507658 9.4206,10.34106 9.29956,10.340735 9.29956,10.302622 9.299911,10.207505 9.299911,10.163295 9.29956,10.087797 9.326178,10.087797" style="fill: white" /><polygon type="contour" points="8.924194,10.088218 8.968402,10.088218 9.043906,10.087797 9.043906,10.114011 9.043485,10.179215 9.043485,10.23065 9.043906,10.340735 8.924126,10.341093 8.92417,10.437637 8.923818,10.445363 8.921832,10.509159 8.811949,10.508648 8.617412,10.51429 8.621856,10.364621 8.622508,10.348409 8.624061,10.207567 8.634805,10.207567 8.663167,10.207594 8.790609,10.207594 8.790968,10.087797 8.82908,10.087797" style="fill: white" />
</svg>
