<svg width="19.131698" height="19.131699">
<polygon type="contour" points="10.904845,7.384023 10.904396,7.564481 10.904353,7.57499 10.904393,7.588131 10.90474,7.734688 10.90474,7.765449 10.608101,7.765449 10.608135,7.736164 10.607511,7.588131 10.607551,7.574989 10.60753,7.56448 10.608451,7.38185 10.608407,7.336568 10.904792,7.336568" style="fill: white" /><polygon type="contour" points="10.904462,6.777391 10.904462,6.903841 10.657005,6.903476 10.611949,6.903476 10.611166,6.821534 10.610319,6.614421 10.707717,6.613012 10.904607,6.61264" style="fill: white" /><polygon type="contour" points="12.466764,6.61595 12.516136,6.615567 12.515602,6.665195 12.519059,6.903158 12.471291,6.903413 12.458764,6.90412 12.418911,6.90412 12.228223,6.903476 12.22817,6.712374 12.22817,6.613052" style="fill: white" /><polygon type="contour" points="11.795135,6.788182 11.79484,6.88819 11.79484,6.906013 11.756297,6.906013 11.574905,6.906368 11.543569,6.906326 11.366215,6.905687 11.366253,6.887895 11.366253,6.788367 11.395536,6.788254 11.54357,6.789345 11.556712,6.789398 11.56722,6.789357 11.74985,6.788104" style="fill: white" /><polygon type="contour" points="11.794957,7.547289 11.79487,7.588132 11.794957,7.765487 11.573147,7.765386 11.543569,7.765386 11.366253,7.765449 11.366253,7.734687 11.366317,7.588132 11.366317,7.558553 11.366215,7.336746 11.398796,7.336746 11.543569,7.336831 11.567221,7.336811 11.795135,7.336567" style="fill: white" /><polygon type="contour" points="12.343599,7.38185 12.342346,7.564481 12.342305,7.574989 12.342358,7.588131 12.343449,7.736164 12.343336,7.765449 12.243804,7.765449 12.226013,7.765487 12.226013,7.732905 12.225376,7.588131 12.225333,7.556795 12.22569,7.336863 12.243512,7.336863 12.343521,7.336568" style="fill: white" /><polygon type="contour" points="12.517088,8.38751 12.517,8.521719 12.419372,8.519988 12.228223,8.519754 12.228223,8.227262 12.245168,8.227224 12.461663,8.226994 12.518819,8.226994" style="fill: white" /><polygon type="contour" points="11.795135,8.523295 11.749851,8.523251 11.567221,8.524172 11.556711,8.52415 11.54357,8.524191 11.395537,8.523567 11.366253,8.523601 11.366253,8.226962 11.397015,8.226962 11.543569,8.227308 11.556711,8.22735 11.567221,8.227305 11.795135,8.22691" style="fill: white" /><polygon type="contour" points="10.904607,8.358488 10.904607,8.519933 10.795138,8.518488 10.77091,8.516147 10.617862,8.51384 10.618914,8.375379 10.615553,8.36079 10.613213,8.336563 10.611768,8.227095 10.90492,8.227095" style="fill: white" /><polygon type="contour" points="7.564478,8.227305 7.574988,8.22735 7.588129,8.227308 7.734686,8.226962 7.765448,8.226962 7.765448,8.523601 7.736162,8.523567 7.588129,8.524191 7.574988,8.52415 7.564478,8.524172 7.381849,8.523251 7.336566,8.523295 7.336566,8.22691 7.384021,8.226857" style="fill: white" /><polygon type="contour" points="6.712372,8.227084 6.777389,8.227241 6.903839,8.227241 6.903475,8.474696 6.903475,8.519754 6.821531,8.520537 6.614418,8.521383 6.61301,8.423984 6.61288,8.226994 6.670035,8.226994" style="fill: white" /><polygon type="contour" points="6.903475,6.903476 6.885538,6.903476 6.83659,6.90369 6.672934,6.904119 6.660408,6.903413 6.612641,6.903158 6.616097,6.665195 6.615564,6.615567 6.721943,6.615062 6.903475,6.612603" style="fill: white" /><polygon type="contour" points="6.888188,7.336863 6.906011,7.336863 6.906011,7.375404 6.906366,7.556796 6.906324,7.588132 6.905685,7.765487 6.887895,7.765449 6.788365,7.765449 6.788252,7.736164 6.789343,7.588131 6.789395,7.574989 6.789353,7.56448 6.788101,7.38185 6.788179,7.336568" style="fill: white" /><polygon type="contour" points="7.547288,7.336746 7.588129,7.336831 7.765484,7.336746 7.765384,7.558554 7.765384,7.588131 7.765448,7.765449 7.734686,7.765449 7.588129,7.765386 7.558552,7.765386 7.336743,7.765486 7.336743,7.732905 7.336829,7.588131 7.336811,7.56448 7.336566,7.336568" style="fill: white" /><polygon type="contour" points="7.564479,6.789357 7.574987,6.789398 7.588129,6.789345 7.736163,6.788254 7.765448,6.788367 7.765448,6.887895 7.765485,6.905687 7.732903,6.905687 7.58813,6.906327 7.556793,6.90637 7.336861,6.906013 7.336861,6.88819 7.336566,6.788182 7.381849,6.788104" style="fill: white" /><polygon type="contour" points="8.387508,6.614612 8.521718,6.614699 8.519987,6.712328 8.519995,6.90369 8.272317,6.903476 8.227259,6.903476 8.227237,6.777391 8.227094,6.708654 8.226993,6.670037 8.226993,6.612882" style="fill: white" /><polygon type="contour" points="8.52325,7.38185 8.524169,7.56448 8.524148,7.57499 8.524189,7.588131 8.523566,7.736164 8.5236,7.765449 8.22696,7.765449 8.22696,7.734688 8.227306,7.588131 8.227348,7.57499 8.227303,7.56448 8.226909,7.336568 8.523294,7.336568" style="fill: white" /><polygon type="contour" points="8.516479,8.340213 8.513838,8.51384 8.375378,8.512788 8.360787,8.516148 8.336561,8.518489 8.227094,8.519934 8.227094,8.227095 8.519932,8.227095" style="fill: white" /><polygon type="contour" points="7.588129,12.225377 7.765485,12.226014 7.765448,12.243805 7.765448,12.343338 7.736163,12.343451 7.58813,12.342359 7.574987,12.342306 7.564479,12.342347 7.381849,12.3436 7.336566,12.343522 7.336861,12.243513 7.336861,12.225691 7.375402,12.225691 7.556794,12.225334" style="fill: white" /><polygon type="contour" points="6.903475,12.228225 6.903528,12.419327 6.903528,12.51865 6.664935,12.515754 6.615564,12.516138 6.616097,12.466508 6.612641,12.228545 6.660408,12.228098 6.672935,12.227584 6.712788,12.227584" style="fill: white" /><polygon type="contour" points="6.712326,10.611717 6.903475,10.61195 6.903475,10.904442 6.886528,10.90448 6.670035,10.904709 6.61288,10.904709 6.61461,10.744193 6.614697,10.609985" style="fill: white" /><polygon type="contour" points="6.905685,11.398798 6.906324,11.543572 6.906367,11.574907 6.906011,11.794841 6.888189,11.794841 6.78818,11.795137 6.788102,11.749852 6.789353,11.567223 6.789395,11.556714 6.789343,11.543572 6.788252,11.395538 6.788365,11.366255 6.887895,11.366255 6.905685,11.366217" style="fill: white" /><polygon type="contour" points="7.558551,11.366319 7.588129,11.366319 7.765448,11.366255 7.765448,11.397017 7.765384,11.543571 7.765384,11.573149 7.765485,11.794958 7.732904,11.794958 7.58813,11.794873 7.564478,11.794891 7.336566,11.795137 7.336743,11.584414 7.336829,11.543571 7.336743,11.366217" style="fill: white" /><polygon type="contour" points="7.765448,10.608103 7.765448,10.904742 7.734686,10.904742 7.588129,10.904395 7.574988,10.904355 7.564479,10.904398 7.336566,10.904793 7.336566,10.608409 7.381849,10.608453 7.564478,10.607532 7.574987,10.607553 7.58813,10.607513" style="fill: white" /><polygon type="contour" points="8.340211,10.615224 8.513838,10.617864 8.518487,10.79514 8.519931,10.904609 8.227094,10.904609 8.227094,10.61177" style="fill: white" /><polygon type="contour" points="8.523566,11.395539 8.524189,11.543572 8.524148,11.556713 8.524169,11.567223 8.52325,11.749853 8.523294,11.795137 8.226909,11.795137 8.226855,11.747679 8.227303,11.567223 8.227348,11.556713 8.227305,11.543571 8.22696,11.397017 8.22696,11.366255 8.5236,11.366255" style="fill: white" /><polygon type="contour" points="8.474695,12.228225 8.519752,12.228225 8.520534,12.310167 8.521381,12.517281 8.423984,12.518691 8.227094,12.519064 8.227238,12.35431 8.227238,12.227863" style="fill: white" /><polygon type="contour" points="10.859382,12.228225 10.904441,12.228225 10.904462,12.35431 10.904606,12.423048 10.904707,12.461665 10.904707,12.518821 10.744191,12.517088 10.609983,12.517002 10.611714,12.419372 10.611705,12.228013" style="fill: white" /><polygon type="contour" points="10.90474,11.397017 10.904394,11.543571 10.904353,11.556713 10.904397,11.567222 10.904792,11.795137 10.608407,11.795137 10.608451,11.749853 10.60753,11.567223 10.607551,11.556714 10.607511,11.543571 10.608101,11.366255 10.90474,11.366255" style="fill: white" /><polygon type="contour" points="10.90492,10.743163 10.90492,10.904609 10.611768,10.904609 10.613213,10.79514 10.615552,10.770912 10.617862,10.617864 10.795138,10.613214 10.904607,10.61177" style="fill: white" /><polygon type="contour" points="11.556712,10.607553 11.567221,10.607532 11.749851,10.608453 11.795135,10.608409 11.795135,10.904792 11.747677,10.904847 11.56722,10.904398 11.556711,10.904355 11.54357,10.904396 11.397015,10.904742 11.366253,10.904742 11.366253,10.608103 11.395537,10.608137 11.543569,10.607513" style="fill: white" /><polygon type="contour" points="12.518689,10.70772 12.518819,10.904709 12.461663,10.904709 12.419327,10.90462 12.354308,10.904464 12.227861,10.904464 12.228223,10.657006 12.228223,10.611949 12.310166,10.611167 12.517281,10.610321" style="fill: white" /><polygon type="contour" points="12.243804,11.366255 12.343336,11.366255 12.343449,11.395538 12.342358,11.543572 12.342305,11.556714 12.342346,11.567222 12.343599,11.749852 12.343521,11.795137 12.243511,11.794841 12.22569,11.794841 12.22569,11.756299 12.225333,11.574907 12.225376,11.543572 12.226013,11.366217" style="fill: white" /><polygon type="contour" points="11.794957,11.398798 11.794871,11.543572 11.794889,11.567223 11.795135,11.795136 11.584411,11.794957 11.54357,11.794873 11.366215,11.794958 11.366317,11.57315 11.366317,11.543572 11.366253,11.366255 11.397015,11.366255 11.543569,11.366319 11.573148,11.366319 11.794957,11.366216" style="fill: white" /><polygon type="contour" points="11.79484,12.225691 11.79484,12.243513 11.795135,12.343522 11.74985,12.3436 11.56722,12.342347 11.556712,12.342306 11.543569,12.342359 11.395537,12.343451 11.366253,12.343338 11.366253,12.243805 11.366215,12.226014 11.398796,12.226014 11.54357,12.225377 11.574906,12.225334" style="fill: white" /><polygon type="contour" points="12.471291,12.228098 12.519059,12.228545 12.515603,12.466508 12.516136,12.516138 12.409754,12.516642 12.228223,12.519101 12.228223,12.474476 12.228011,12.228014 12.295108,12.228014 12.458764,12.227584" style="fill: white" />
</svg>
