<svg width="19.131698" height="19.131699">
<polygon type="contour" points="5.444459,5.297721 5.608929,5.304302 5.608869,5.497723 5.608869,5.608871 5.497722,5.608871 5.426809,5.608931 5.304301,5.608931 5.303883,5.503796 5.296424,5.296425" style="fill: white" /><polygon type="contour" points="6.381657,7.268465 6.441123,7.268465 6.662732,7.268595 6.735698,7.268595 6.735698,7.572263 6.667284,7.572095 6.438989,7.573753 6.382235,7.573735 6.17684,7.572646 6.17684,7.324083 6.17682,7.268443" style="fill: white" /><polygon type="contour" points="5.550901,7.268582 5.571881,7.270068 5.609141,7.268764 5.61056,7.443699 5.611153,7.572092 5.515831,7.570972 5.305704,7.57074 5.306544,7.318926 5.306468,7.278302 5.385398,7.277928 5.393998,7.277938 5.40346,7.278022 5.406885,7.278318 5.407728,7.278322 5.411297,7.278545 5.482565,7.27863 5.482394,7.268511" style="fill: white" /><polygon type="contour" points="5.611575,6.382237 5.611575,6.441127 5.611593,6.454516 5.610975,6.736333 5.583326,6.737073 5.481837,6.736545 5.481859,6.732964 5.481903,6.726363 5.481677,6.700436 5.48183,6.667285 5.482899,6.434937 5.482865,6.382237 5.482237,6.176842 5.611202,6.176842" style="fill: white" /><polygon type="contour" points="6.735528,6.176822 6.735854,6.381659 6.735854,6.441126 6.735698,6.662734 6.735698,6.7357 6.454515,6.735856 6.381657,6.735856 6.17682,6.73553 6.176497,6.454516 6.176511,6.391404 6.1765,6.391404 6.17684,6.217917 6.17684,6.176841 6.382234,6.176503 6.441124,6.176503 6.454514,6.176498" style="fill: white" /><polygon type="contour" points="6.735779,5.482179 6.735779,5.547985 6.736215,5.553256 6.736191,5.573743 6.736331,5.610978 6.454514,5.611596 6.391402,5.611511 6.391403,5.611578 6.217915,5.611204 6.17684,5.611204 6.17684,5.482239 6.217186,5.482263 6.419635,5.482973 6.667284,5.481832" style="fill: white" /><polygon type="contour" points="7.566891,5.405256 7.568581,5.433655 7.572408,5.549108 7.571894,5.611397 7.443697,5.610563 7.268761,5.609143 7.268795,5.581615 7.26881,5.480309 7.278629,5.479316 7.278679,5.328982 7.278299,5.306469 7.318451,5.306572 7.570555,5.305808" style="fill: white" /><polygon type="contour" points="7.572643,6.176842 7.573733,6.382237 7.573751,6.438991 7.572094,6.667286 7.572262,6.7357 7.268592,6.7357 7.268463,6.454516 7.268463,6.381659 7.268441,6.176822 7.513926,6.176822" style="fill: white" /><polygon type="contour" points="7.573388,7.268326 7.573872,7.297895 7.565452,7.565454 7.297895,7.573874 7.268304,7.573405 7.268712,7.380836 7.268712,7.268715 7.559215,7.268305" style="fill: white" /><polygon type="contour" points="11.750865,7.268715 11.862987,7.268715 11.863396,7.559217 11.863375,7.57339 11.833805,7.573874 11.566249,7.565454 11.557824,7.297896 11.558294,7.268304" style="fill: white" /><polygon type="contour" points="11.863237,6.381659 11.863237,6.441126 11.863108,6.662734 11.863108,6.7357 11.559437,6.7357 11.559605,6.667286 11.557943,6.438315 11.557967,6.382237 11.559057,6.176842 11.807619,6.176842 11.863259,6.176822" style="fill: white" /><polygon type="contour" points="11.812775,5.306546 11.853401,5.306469 11.853132,5.323759 11.853606,5.328919 11.853988,5.482196 11.863191,5.482398 11.863119,5.550904 11.862994,5.572068 11.862936,5.609143 11.687998,5.610563 11.559607,5.611156 11.56073,5.515833 11.560961,5.305705" style="fill: white" /><polygon type="contour" points="12.464415,5.481832 12.712064,5.482973 12.914514,5.482263 12.95486,5.482239 12.95486,5.611204 12.749464,5.611578 12.690575,5.611578 12.677185,5.611596 12.395369,5.610978 12.395369,5.583557 12.396002,5.481946 12.405336,5.481906 12.431265,5.481679" style="fill: white" /><polygon type="contour" points="12.740297,6.176517 12.740296,6.176503 12.913783,6.176842 12.95486,6.176842 12.9552,6.382236 12.9552,6.441127 12.955204,6.454516 12.954879,6.73553 12.750043,6.735856 12.690576,6.735856 12.468967,6.7357 12.396002,6.7357 12.395846,6.454517 12.395846,6.381659 12.396172,6.176822 12.677186,6.176499" style="fill: white" /><polygon type="contour" points="13.827818,5.503795 13.827412,5.609261 13.743895,5.609261 13.599074,5.608931 13.522771,5.608931 13.522771,5.426811 13.522676,5.304399 13.615562,5.303212 13.627907,5.303884 13.835276,5.296426" style="fill: white" /><polygon type="contour" points="13.649436,6.217187 13.648816,6.394339 13.64883,6.454749 13.649863,6.736545 13.548373,6.737073 13.520725,6.736333 13.520107,6.454516 13.520191,6.391404 13.520125,6.391404 13.520499,6.217916 13.520499,6.176842 13.649461,6.176842" style="fill: white" /><polygon type="contour" points="13.649149,7.277711 13.720423,7.277656 13.737702,7.277938 13.746301,7.277928 13.825232,7.278302 13.825129,7.318454 13.825893,7.570557 13.614997,7.570872 13.520547,7.572093 13.521138,7.443699 13.52256,7.268764 13.580797,7.268582 13.649302,7.268511" style="fill: white" /><polygon type="contour" points="12.954879,7.513929 12.95486,7.572645 12.749464,7.573735 12.692709,7.573753 12.464414,7.572095 12.396002,7.572262 12.396002,7.268595 12.677186,7.268465 12.690577,7.268465 12.690577,7.268471 12.750043,7.268464 12.954879,7.268442" style="fill: white" /><polygon type="contour" points="13.827818,13.627908 13.835276,13.835277 13.68724,13.833982 13.522771,13.827402 13.522771,13.522772 13.8274,13.522772" style="fill: white" /><polygon type="contour" points="12.740297,13.520191 12.740297,13.520125 12.913784,13.5205 12.95486,13.5205 12.95486,13.649463 12.914513,13.649439 12.712033,13.648729 12.464415,13.649872 12.395921,13.649525 12.395921,13.583718 12.395485,13.578449 12.395509,13.557962 12.395369,13.520728 12.677185,13.520107" style="fill: white" /><polygon type="contour" points="12.954879,12.396173 12.955204,12.677188 12.955185,12.740299 12.9552,12.740299 12.95486,12.913786 12.95486,12.954863 12.749465,12.955201 12.690575,12.955201 12.677186,12.955205 12.396172,12.954882 12.395846,12.750045 12.395846,12.690578 12.396002,12.468968 12.396002,12.396003 12.677186,12.395849 12.750042,12.395849" style="fill: white" /><polygon type="contour" points="13.649839,12.39874 13.649795,12.405339 13.650023,12.431266 13.649869,12.464417 13.648728,12.712026 13.649436,12.914516 13.649461,12.954863 13.520499,12.954863 13.520125,12.749466 13.520125,12.690577 13.520107,12.677188 13.520725,12.395917 13.548373,12.395178 13.649863,12.395159" style="fill: white" /><polygon type="contour" points="13.698045,11.563121 13.726443,11.564811 13.825997,11.560964 13.825156,11.812777 13.825232,11.853402 13.746301,11.853776 13.737701,11.853767 13.728239,11.853682 13.724796,11.853385 13.723972,11.853383 13.720401,11.853158 13.649134,11.853073 13.649302,11.863193 13.580797,11.86312 13.55982,11.861635 13.52256,11.862938 13.521137,11.688 13.520306,11.559806 13.582595,11.559292" style="fill: white" /><polygon type="contour" points="12.914514,11.559045 12.95486,11.559058 12.95486,11.807621 12.954879,11.86326 12.750043,11.863238 12.690577,11.863238 12.468967,11.863109 12.396002,11.863109 12.396002,11.559441 12.464414,11.559609 12.713457,11.557799" style="fill: white" /><polygon type="contour" points="11.863396,11.558297 11.862988,11.750866 11.862988,11.862989 11.572481,11.863399 11.558309,11.863376 11.557824,11.833808 11.566249,11.56625 11.833806,11.557827" style="fill: white" /><polygon type="contour" points="11.863237,12.677188 11.863237,12.750045 11.863259,12.954882 11.617773,12.954882 11.559057,12.954863 11.557967,12.749466 11.557943,12.693388 11.559606,12.464417 11.559438,12.396003 11.863108,12.396003" style="fill: white" /><polygon type="contour" points="11.687998,13.52114 11.862936,13.522561 11.862936,13.549862 11.862988,13.651126 11.853073,13.643445 11.853021,13.80272 11.853401,13.825233 11.813248,13.82513 11.561144,13.825895 11.56083,13.614999 11.559607,13.520548" style="fill: white" /><polygon type="contour" points="6.736331,13.520728 6.736331,13.548147 6.735698,13.649757 6.726363,13.649797 6.700434,13.650025 6.667284,13.649872 6.434946,13.6488 6.382235,13.648835 6.17684,13.649463 6.17684,13.5205 6.382235,13.520126 6.441124,13.520126 6.454514,13.520108" style="fill: white" /><polygon type="contour" points="7.572408,13.582595 7.56858,13.698048 7.566891,13.726445 7.570739,13.825998 7.318925,13.825157 7.278299,13.825233 7.27854,13.809725 7.278476,13.80943 7.278538,13.807618 7.278095,13.802782 7.277711,13.649508 7.268509,13.649305 7.26858,13.580799 7.268702,13.559635 7.26876,13.522561 7.443697,13.52114 7.571894,13.520307" style="fill: white" /><polygon type="contour" points="7.565452,11.56625 7.573872,11.833808 7.573403,11.863399 7.380833,11.862989 7.268712,11.862989 7.268304,11.572484 7.268326,11.558312 7.297895,11.557827" style="fill: white" /><polygon type="contour" points="7.572094,12.464417 7.573902,12.713478 7.572656,12.914515 7.572643,12.954863 7.32408,12.954863 7.268441,12.954882 7.268463,12.750045 7.268463,12.690578 7.268592,12.468968 7.268592,12.396003 7.572262,12.396003" style="fill: white" /><polygon type="contour" points="6.662732,12.396003 6.735698,12.396003 6.735854,12.677187 6.735854,12.750045 6.735528,12.954882 6.454514,12.955205 6.391402,12.955186 6.391402,12.955201 6.217915,12.954863 6.17684,12.954863 6.1765,12.749467 6.1765,12.690578 6.176497,12.677187 6.17682,12.396173 6.381658,12.395849 6.441123,12.395849" style="fill: white" /><polygon type="contour" points="6.667283,11.559609 6.735698,11.559441 6.735698,11.863109 6.454514,11.863238 6.381657,11.863238 6.17682,11.86326 6.17682,11.617774 6.17684,11.559058 6.382234,11.55797 6.438315,11.557945" style="fill: white" /><polygon type="contour" points="5.611394,11.559806 5.610561,11.688 5.609141,11.862937 5.550901,11.863121 5.482395,11.863193 5.482548,11.853991 5.411277,11.854048 5.393997,11.853767 5.385398,11.853776 5.306468,11.853402 5.306571,11.813249 5.305805,11.561146 5.405255,11.564811 5.433652,11.563122 5.549105,11.559291" style="fill: white" /><polygon type="contour" points="5.583326,12.395178 5.610975,12.395917 5.611593,12.677188 5.611508,12.740299 5.611575,12.740299 5.611202,12.913787 5.611202,12.954863 5.482237,12.954863 5.482262,12.914516 5.482878,12.738308 5.482869,12.676953 5.481837,12.395159" style="fill: white" /><polygon type="contour" points="5.532623,13.522772 5.608929,13.522772 5.608929,13.827402 5.516137,13.828491 5.503792,13.827819 5.296424,13.835277 5.303883,13.627908 5.304287,13.522442 5.387802,13.522442" style="fill: white" />
</svg>
