<svg width="19.131698" height="19.131699">
<polygon type="contour" points="1.31328,1.242376 1.576186,1.242986 1.576088,1.26184 1.576088,1.280791 1.576115,1.281432 1.576102,1.295906 1.576094,1.302072 1.575886,1.34475 1.575814,1.370342 1.575594,1.432794 1.575594,1.575595 1.432793,1.575595 1.37034,1.575816 1.344748,1.575888 1.302071,1.576095 1.295905,1.576103 1.281429,1.576117 1.261839,1.576089 1.26092,1.576166 1.242958,1.57616 1.242998,1.53641 1.242376,1.258612 1.242376,1.242378 1.312862,1.242304" style="fill: white" /><polygon type="contour" points="1.575679,3.497415 1.575679,3.772173 1.575681,4.08522 1.546087,4.082559 1.436498,4.100531 1.337778,4.102477 1.337483,3.96249 1.337433,3.947162 1.337619,3.830321 1.27594,3.830321 1.264654,3.830271 1.26417,3.830264 1.24233,3.830231 1.24233,3.764497 1.242957,3.497661 1.261839,3.497728 1.281892,3.497641 1.296695,3.497747 1.30293,3.497633 1.347947,3.497447 1.375369,3.497388 1.433047,3.497349 1.53001,3.497349" style="fill: white" /><polygon type="contour" points="2.371548,3.584814 2.371548,4.088155 2.226712,4.093191 2.176033,4.0915 2.176033,3.641675 2.176218,3.497623 2.333115,3.497562 2.371616,3.497562" style="fill: white" /><polygon type="contour" points="2.964675,3.908403 2.964675,4.092538 2.690524,4.085283 2.633162,4.086701 2.632843,3.584813 2.632978,3.497562 2.846203,3.497224 2.964891,3.497224" style="fill: white" /><polygon type="contour" points="3.87385,3.497366 4.076434,3.497547 4.081493,3.497547 4.105648,3.869808 4.088775,4.088777 3.913978,4.087808 3.497493,4.103568 3.497493,3.867975 3.497347,3.497349" style="fill: white" /><polygon type="contour" points="3.830269,1.264656 3.830319,1.275942 3.830319,1.337621 3.98011,1.337601 4.040567,1.337612 4.091448,1.337636 4.086889,1.399172 4.103063,1.575682 3.865946,1.575734 3.497413,1.57568 3.497413,1.480706 3.497347,1.433048 3.497386,1.375369 3.497445,1.347949 3.497631,1.302932 3.497746,1.296697 3.49764,1.281894 3.497726,1.280791 3.497726,1.26184 3.497665,1.260921 3.497659,1.242959 3.764495,1.242332 3.830228,1.242332" style="fill: white" /><polygon type="contour" points="2.964891,1.575723 2.855335,1.57568 2.633041,1.576046 2.63304,1.458774 2.633061,1.433343 2.816188,1.433112 2.964891,1.432924" style="fill: white" /><polygon type="contour" points="2.224221,1.43293 2.371532,1.433343 2.371533,1.553623 2.371497,1.576046 2.229843,1.575595 2.176033,1.575595 2.176033,1.432795" style="fill: white" /><polygon type="contour" points="1.576044,2.336584 1.576044,2.371499 1.458772,2.371499 1.433342,2.371535 1.432928,2.224223 1.432793,2.176035 1.575594,2.176035" style="fill: white" /><polygon type="contour" points="1.575679,2.855337 1.575722,2.964893 1.432923,2.964893 1.433259,2.698389 1.433342,2.633063 1.55362,2.633063 1.576044,2.633042" style="fill: white" /><polygon type="contour" points="2.371533,2.633063 2.371533,2.913124 2.371616,2.965341 2.234848,2.965146 2.176217,2.965146 2.176317,2.69839 2.176198,2.633042 2.336583,2.633042" style="fill: white" /><polygon type="contour" points="2.336583,2.1762 2.371497,2.1762 2.371497,2.336584 2.371533,2.371535 2.207033,2.371535 2.176198,2.371499 2.176033,2.229845 2.176033,2.176035" style="fill: white" /><polygon type="contour" points="2.698387,2.176318 2.965145,2.176221 2.965339,2.333116 2.965339,2.371618 2.698387,2.371618 2.633061,2.371535 2.633061,2.207036 2.63304,2.1762" style="fill: white" /><polygon type="contour" points="2.965339,2.698389 2.965144,2.732462 2.964891,2.964893 2.698388,2.965341 2.632978,2.965341 2.632978,2.698389 2.633061,2.633063 2.913122,2.633063 2.965339,2.63298" style="fill: white" /><polygon type="contour" points="3.584694,2.633079 4.088036,2.633079 4.086345,2.699341 4.092823,2.964828 3.688208,2.964828 3.497222,2.964893 3.497222,2.846205 3.49756,2.63298" style="fill: white" /><polygon type="contour" points="4.09319,2.226714 4.088153,2.37155 3.584812,2.37155 3.49756,2.371618 3.497621,2.234849 3.497621,2.176221 3.932127,2.176221 4.091499,2.176035" style="fill: white" /><polygon type="contour" points="17.889324,1.242378 17.889324,1.258612 17.888702,1.53641 17.888742,1.576161 17.869862,1.576089 17.85091,1.576089 17.85027,1.576117 17.835796,1.576104 17.829627,1.576095 17.786952,1.575888 17.76136,1.575816 17.698907,1.575595 17.556106,1.575595 17.556106,1.432794 17.555886,1.370343 17.555811,1.34475 17.555605,1.302073 17.555598,1.295906 17.555584,1.281431 17.555612,1.26184 17.555533,1.260921 17.555513,1.242986 17.818419,1.242376 17.818837,1.242304" style="fill: white" /><polygon type="contour" points="17.756329,3.497388 17.783751,3.497446 17.82877,3.497633 17.835003,3.497747 17.849808,3.497641 17.85091,3.497728 17.869861,3.497728 17.870779,3.497667 17.888742,3.497661 17.88937,3.764497 17.88937,3.830231 17.867046,3.830271 17.855757,3.830321 17.794078,3.830321 17.794265,3.947163 17.794216,3.962491 17.793922,4.102476 17.585612,4.082559 17.55602,4.08522 17.55602,3.497415 17.650993,3.497415 17.69865,3.497349" style="fill: white" /><polygon type="contour" points="17.698356,2.633063 17.698651,2.866152 17.698776,2.964893 17.555978,2.964893 17.556022,2.855337 17.556231,2.633042 17.672925,2.633042" style="fill: white" /><polygon type="contour" points="17.698767,2.224223 17.698356,2.371535 17.578669,2.371535 17.556232,2.371499 17.556108,2.229846 17.556108,2.176035 17.698904,2.176035" style="fill: white" /><polygon type="contour" points="16.955664,1.575595 16.795118,1.576046 16.760204,1.576046 16.760204,1.458774 16.760168,1.433344 16.907475,1.43293 16.955664,1.432795" style="fill: white" /><polygon type="contour" points="16.433313,1.43326 16.49864,1.433344 16.49864,1.553623 16.49866,1.576046 16.276364,1.57568 16.16681,1.575723 16.16681,1.432924" style="fill: white" /><polygon type="contour" points="15.634042,1.24296 15.633975,1.26184 15.634062,1.281895 15.633955,1.296696 15.634069,1.302932 15.634256,1.347949 15.634316,1.375369 15.634354,1.433048 15.634354,1.530011 15.634288,1.57568 15.300864,1.575595 15.028558,1.575831 15.03117,1.436499 15.029172,1.338024 15.169363,1.337923 15.184518,1.337546 15.301382,1.337621 15.301382,1.275942 15.301431,1.264656 15.30144,1.26417 15.301472,1.242332 15.367205,1.242332" style="fill: white" /><polygon type="contour" points="15.634079,2.176221 15.63414,2.333117 15.63414,2.371618 15.546887,2.37155 15.043547,2.37155 15.03851,2.226714 15.040201,2.176035 15.490025,2.176035" style="fill: white" /><polygon type="contour" points="15.634478,2.846205 15.634478,2.964893 15.227137,2.964893 15.038877,2.964828 15.035206,2.861476 15.043664,2.633079 15.547004,2.633079 15.634139,2.63298" style="fill: white" /><polygon type="contour" points="16.49864,2.633063 16.49864,2.913124 16.498723,2.965341 16.285497,2.964893 16.16681,2.964893 16.166357,2.69839 16.166357,2.63298 16.433314,2.63298" style="fill: white" /><polygon type="contour" points="16.49866,2.336584 16.49864,2.371535 16.218573,2.371535 16.166357,2.371618 16.166557,2.234849 16.166557,2.176221 16.433314,2.176318 16.49866,2.1762" style="fill: white" /><polygon type="contour" points="16.9555,2.336585 16.9555,2.371499 16.795118,2.371499 16.760168,2.371535 16.760168,2.207035 16.760204,2.1762 16.901854,2.176035 16.955664,2.176035" style="fill: white" /><polygon type="contour" points="16.955382,2.69839 16.955478,2.965146 16.798585,2.965341 16.760085,2.965341 16.760085,2.698389 16.760168,2.633063 16.924663,2.633063 16.9555,2.633042" style="fill: white" /><polygon type="contour" points="16.896848,3.497623 16.955478,3.497623 16.955478,3.932128 16.955663,4.0915 16.904983,4.093191 16.760153,4.088155 16.760153,3.584814 16.760085,3.497562" style="fill: white" /><polygon type="contour" points="16.433314,3.497562 16.498723,3.497562 16.498858,3.584813 16.498539,4.086701 16.268292,4.096008 16.167025,4.092538 16.16681,3.685771 16.16681,3.497224" style="fill: white" /><polygon type="contour" points="15.634208,3.867975 15.634208,4.103567 15.261893,4.10565 15.042925,4.088777 15.050388,3.516151 15.050208,3.497547 15.055266,3.497547 15.25785,3.497366 15.634354,3.497349" style="fill: white" /><polygon type="contour" points="17.794088,15.091133 17.794099,15.151591 17.79408,15.301382 17.855758,15.301382 17.867045,15.301432 17.867529,15.30144 17.88937,15.301472 17.88937,15.367204 17.888742,15.634044 17.869861,15.633977 17.849807,15.634064 17.835004,15.633957 17.828769,15.634072 17.783751,15.634258 17.75633,15.634317 17.69865,15.634356 17.601688,15.634356 17.556019,15.634289 17.556004,15.257572 17.556016,15.046444 17.585158,15.046444 17.794066,15.040254" style="fill: white" /><polygon type="contour" points="16.955664,15.040204 16.955664,15.490028 16.955478,15.634082 16.798585,15.634143 16.760085,15.634143 16.760153,15.54689 16.760153,15.043549 16.904983,15.038513" style="fill: white" /><polygon type="contour" points="16.441176,15.046421 16.498539,15.045004 16.498858,15.546891 16.498723,15.634143 16.285496,15.63448 16.16681,15.63448 16.167025,15.223299 16.167025,15.039165" style="fill: white" /><polygon type="contour" points="15.634208,15.263729 15.634354,15.634356 15.25785,15.634339 15.055266,15.634157 15.050208,15.634157 15.026051,15.261896 15.042925,15.042927 15.217721,15.043896 15.634208,15.028136" style="fill: white" /><polygon type="contour" points="15.634478,16.285497 15.63414,16.498725 15.547004,16.498626 15.043664,16.498626 15.045355,16.432363 15.038877,16.166875 15.443489,16.166875 15.634478,16.166811" style="fill: white" /><polygon type="contour" points="15.634079,16.89685 15.634079,16.955482 15.199572,16.955482 15.040201,16.955666 15.03851,16.904988 15.043547,16.760155 15.546887,16.760155 15.634139,16.760087" style="fill: white" /><polygon type="contour" points="17.888742,17.555542 17.888702,17.595294 17.889324,17.873092 17.889324,17.889326 17.818837,17.8894 17.818419,17.889328 17.555514,17.888718 17.555612,17.869863 17.555612,17.850912 17.555584,17.850272 17.555598,17.835797 17.555606,17.829631 17.555811,17.786954 17.555886,17.761361 17.556106,17.698909 17.556106,17.607833 17.556108,17.556108 17.698908,17.556108 17.761359,17.555886 17.786951,17.555816 17.829628,17.555608 17.835796,17.5556 17.850269,17.555588 17.869862,17.555614 17.87078,17.555536" style="fill: white" /><polygon type="contour" points="17.698767,16.907477 17.698904,16.955666 17.556108,16.955666 17.556232,16.795119 17.556232,16.760206 17.672925,16.760206 17.698356,16.76017" style="fill: white" /><polygon type="contour" points="17.698437,16.433315 17.698356,16.498642 17.57867,16.498642 17.556232,16.498663 17.556022,16.276366 17.555978,16.166811 17.698776,16.166811" style="fill: white" /><polygon type="contour" points="16.896847,16.166558 16.955478,16.166558 16.955382,16.433314 16.9555,16.498663 16.795117,16.498663 16.760168,16.498642 16.760168,16.218577 16.760085,16.166361" style="fill: white" /><polygon type="contour" points="16.498723,16.433314 16.49864,16.498642 16.218573,16.498642 16.166357,16.498725 16.166357,16.433314 16.166557,16.399239 16.16681,16.16681 16.433313,16.166361 16.498723,16.166361" style="fill: white" /><polygon type="contour" points="16.49864,16.76017 16.49864,16.924668 16.49866,16.955504 16.433314,16.955386 16.166557,16.955482 16.166357,16.798587 16.166357,16.760087 16.433314,16.760087" style="fill: white" /><polygon type="contour" points="16.9555,16.760206 16.955664,16.901856 16.955664,16.955666 16.795117,16.955504 16.760204,16.955504 16.760204,16.79512 16.760168,16.76017 16.924664,16.76017" style="fill: white" /><polygon type="contour" points="16.955664,17.698908 16.907475,17.698771 16.760168,17.69836 16.760168,17.578671 16.760203,17.556234 16.901853,17.55611 16.955664,17.55611" style="fill: white" /><polygon type="contour" points="16.276363,17.556021 16.49866,17.556234 16.49866,17.672927 16.49864,17.69836 16.265547,17.698654 16.16681,17.69878 16.16681,17.55598" style="fill: white" /><polygon type="contour" points="15.634288,17.556022 15.634288,17.650997 15.634353,17.698654 15.634316,17.756333 15.634256,17.783754 15.634069,17.828772 15.633955,17.835008 15.634062,17.84981 15.633975,17.850912 15.633975,17.869864 15.634036,17.870783 15.634041,17.888744 15.367205,17.889372 15.301472,17.889372 15.301431,17.867048 15.301382,17.855759 15.301382,17.794082 15.184517,17.794156 15.169364,17.79378 15.029172,17.79368 15.02654,17.649807 15.028635,17.556018 15.265754,17.555966" style="fill: white" /><polygon type="contour" points="4.103063,17.556018 4.086889,17.732529 4.091448,17.794068 4.040567,17.79409 3.980109,17.7941 3.830319,17.794082 3.830319,17.85576 3.83027,17.867047 3.830262,17.867531 3.830229,17.889372 3.764495,17.889372 3.497659,17.888744 3.497726,17.869863 3.49764,17.849808 3.497746,17.835007 3.497631,17.828772 3.497445,17.783754 3.497385,17.756333 3.497347,17.698654 3.497347,17.601691 3.497413,17.556022 3.865946,17.555966" style="fill: white" /><polygon type="contour" points="2.964891,17.69878 2.698387,17.698441 2.633061,17.69836 2.633061,17.578672 2.633041,17.556234 2.855336,17.556021 2.964891,17.55598" style="fill: white" /><polygon type="contour" points="2.336583,17.556234 2.371497,17.556234 2.371497,17.672927 2.371533,17.69836 2.224221,17.698771 2.176033,17.698908 2.176033,17.55611" style="fill: white" /><polygon type="contour" points="2.846202,16.166811 2.964891,16.166811 2.965339,16.433315 2.965339,16.498725 2.698387,16.498725 2.633061,16.498642 2.633061,16.218577 2.632978,16.166361" style="fill: white" /><polygon type="contour" points="1.575685,15.046444 1.575693,15.257571 1.575678,15.634289 1.480703,15.634289 1.433048,15.634356 1.375368,15.634318 1.347947,15.634258 1.30293,15.634072 1.296694,15.633957 1.281892,15.634064 1.28079,15.633977 1.261839,15.633977 1.26092,15.634037 1.242958,15.634043 1.24233,15.367204 1.24233,15.301472 1.264654,15.301432 1.27594,15.301382 1.337619,15.301382 1.337599,15.151591 1.33761,15.091133 1.337634,15.040254 1.398546,15.040254" style="fill: white" /><polygon type="contour" points="2.371548,15.04355 2.371548,15.54689 2.371616,15.634143 2.234847,15.634082 2.176218,15.634082 2.176218,15.199574 2.176033,15.040204 2.226712,15.038513" style="fill: white" /><polygon type="contour" points="2.964675,15.039165 2.964891,15.44593 2.964891,15.63448 2.698388,15.634143 2.632978,15.634143 2.632843,15.546891 2.633162,15.045004 2.863405,15.035695" style="fill: white" /><polygon type="contour" points="4.088775,15.042927 4.081313,15.615552 4.081493,15.634157 4.076434,15.634157 3.87385,15.634339 3.497347,15.634356 3.497493,15.263729 3.497493,15.028136 3.869807,15.026054" style="fill: white" /><polygon type="contour" points="4.092823,16.166875 4.096494,16.270227 4.088036,16.498626 3.584694,16.498626 3.49756,16.498725 3.497222,16.285497 3.497222,16.166811 3.904563,16.166811" style="fill: white" /><polygon type="contour" points="3.584812,16.760155 4.088153,16.760155 4.09319,16.904988 4.091499,16.955666 3.641674,16.955666 3.497621,16.955482 3.49756,16.798587 3.49756,16.760087" style="fill: white" /><polygon type="contour" points="2.965145,16.89685 2.965145,16.955482 2.698388,16.955386 2.633041,16.955504 2.633041,16.795119 2.633061,16.76017 2.913122,16.76017 2.965339,16.760087" style="fill: white" /><polygon type="contour" points="2.371533,16.924668 2.371497,16.955504 2.229843,16.955666 2.176033,16.955666 2.176198,16.795119 2.176198,16.760206 2.336582,16.760206 2.371533,16.76017" style="fill: white" /><polygon type="contour" points="2.371616,16.433314 2.371533,16.498642 2.207034,16.498642 2.176198,16.498663 2.176317,16.433314 2.176218,16.166558 2.333115,16.166361 2.371616,16.166361" style="fill: white" /><polygon type="contour" points="1.575679,16.276365 1.576043,16.498663 1.458773,16.498663 1.433342,16.498642 1.433046,16.265549 1.432923,16.166811 1.575722,16.166811" style="fill: white" /><polygon type="contour" points="1.576044,16.760206 1.575594,16.901856 1.575594,16.955666 1.432793,16.955666 1.432927,16.907478 1.433342,16.76017 1.55362,16.76017" style="fill: white" /><polygon type="contour" points="1.261839,17.555614 1.280791,17.555614 1.28143,17.555588 1.295905,17.5556 1.302071,17.555607 1.344749,17.555816 1.370341,17.555886 1.432792,17.556108 1.575594,17.556108 1.575594,17.698909 1.575814,17.761362 1.575886,17.786954 1.576094,17.829631 1.576102,17.835798 1.576115,17.850271 1.576088,17.869863 1.576166,17.870783 1.576186,17.888718 1.31328,17.889328 1.312862,17.8894 1.242376,17.889326 1.242376,17.873092 1.242998,17.595294 1.242958,17.555542" style="fill: white" />
</svg>
