<svg width="19.131698" height="19.131699">
<polygon type="contour" points="8.753844,8.728314 8.786601,8.729112 8.791128,8.729313 8.857361,8.729313 9.022979,8.729332 9.023747,8.895992 9.118083,8.896077 9.164558,8.896112 9.164558,8.972378 9.164325,9.075911 9.164441,9.075911 9.164441,9.118085 9.164558,9.16456 9.112483,9.16456 9.024437,9.164275 9.024437,9.164442 8.962669,9.164442 8.89611,9.16456 8.896074,9.118084 8.895991,9.023935 8.729347,9.023935 8.729341,8.81101 8.729335,8.794927 8.728823,8.767576 8.728076,8.728078" style="fill: white" /><polygon type="contour" points="9.07591,9.278927 9.07591,9.278866 9.118084,9.278866 9.164558,9.278804 9.164558,9.330879 9.164031,9.420599 9.164341,9.420601 9.164341,9.806237 9.164558,9.8529 9.112483,9.8529 9.024437,9.85275 9.024437,9.852838 8.962669,9.852838 8.89611,9.8529 8.896063,9.806237 8.895979,9.711102 8.729918,9.711102 8.729356,9.605401 8.728807,9.566202 8.728926,9.546677 8.729356,9.526812 8.729918,9.420602 8.895979,9.420602 8.896063,9.325466 8.89611,9.278804 8.972377,9.278804" style="fill: white" /><polygon type="contour" points="9.4206,9.279182 9.4206,9.27896 9.806235,9.27896 9.852898,9.278804 9.852898,9.330878 9.852519,9.420602 9.852742,9.420602 9.852742,9.806237 9.852898,9.8529 9.800824,9.8529 9.711101,9.852521 9.711101,9.852744 9.325465,9.852744 9.278802,9.8529 9.278802,9.800825 9.279182,9.711102 9.278959,9.711102 9.278959,9.325466 9.278802,9.278804 9.330876,9.278804" style="fill: white" /><polygon type="contour" points="9.701125,8.729658 9.711101,8.72992 9.711101,8.89598 9.806236,8.896066 9.852898,8.896111 9.852898,8.972379 9.852776,9.075911 9.852837,9.075911 9.852837,9.118084 9.852898,9.16456 9.800823,9.16456 9.711103,9.164033 9.7111,9.164343 9.325464,9.164343 9.278802,9.16456 9.278802,9.112484 9.278951,9.024438 9.278864,9.024438 9.278864,8.962671 9.278802,8.896112 9.325464,8.896066 9.4206,8.89598 9.4206,8.72992 9.526301,8.729357 9.565585,8.728786" style="fill: white" /><polygon type="contour" points="10.402877,8.767575 10.402364,8.794927 10.402358,8.811011 10.402053,8.879561 10.4021,9.023652 10.402139,9.023859 10.235708,9.023859 10.235625,9.118084 10.23559,9.16456 10.159321,9.16456 10.055791,9.164325 10.055791,9.164442 10.013616,9.164442 9.967142,9.16456 9.967142,9.112484 9.967423,9.024438 9.967259,9.024438 9.967259,8.962672 9.967142,8.896112 10.013617,8.896077 10.108722,8.895991 10.108722,8.729332 10.274339,8.729313 10.340571,8.729313 10.345098,8.729112 10.377855,8.728314 10.403624,8.728078" style="fill: white" /><polygon type="contour" points="10.107263,9.278953 10.107263,9.278866 10.16903,9.278866 10.235589,9.278804 10.235636,9.325466 10.23572,9.420602 10.401781,9.420602 10.402343,9.526811 10.402893,9.566202 10.402774,9.585634 10.402344,9.605401 10.401781,9.711102 10.23572,9.711102 10.235636,9.806237 10.23559,9.8529 10.159321,9.8529 10.055791,9.852776 10.055791,9.852838 10.013617,9.852838 9.967142,9.8529 9.967142,9.800824 9.967668,9.711102 9.967359,9.711102 9.967359,9.325466 9.967142,9.278804 10.019217,9.278804" style="fill: white" /><polygon type="contour" points="10.107263,9.967428 10.107263,9.967262 10.16903,9.967262 10.23559,9.967144 10.235625,10.01362 10.235708,10.10777 10.402353,10.10777 10.402358,10.320693 10.402364,10.336776 10.402877,10.364128 10.403624,10.403626 10.377855,10.403389 10.345098,10.402592 10.340571,10.402391 10.274339,10.402391 10.108722,10.402372 10.107953,10.235711 10.013617,10.235626 9.967142,10.235592 9.967142,10.159323 9.967374,10.055793 9.967259,10.055793 9.967259,10.013619 9.967142,9.967144 10.019217,9.967144" style="fill: white" /><polygon type="contour" points="9.4206,9.967672 9.4206,9.967362 9.806236,9.967362 9.852898,9.967144 9.852898,10.019218 9.852751,10.107266 9.852837,10.107266 9.852837,10.169033 9.852898,10.235592 9.806236,10.235637 9.711101,10.235723 9.711101,10.401783 9.604891,10.402346 9.565501,10.402918 9.430575,10.402044 9.4206,10.401783 9.4206,10.235723 9.325464,10.235637 9.278802,10.235592 9.278802,10.159323 9.278925,10.055793 9.278864,10.055793 9.278864,10.01362 9.278802,9.967144 9.330875,9.967144" style="fill: white" /><polygon type="contour" points="9.07591,9.967378 9.07591,9.967262 9.118084,9.967262 9.164558,9.967144 9.164558,10.019219 9.164276,10.107266 9.164441,10.107266 9.164441,10.169033 9.164558,10.235592 9.118083,10.235626 9.022979,10.235712 9.022979,10.402372 8.857361,10.402391 8.791128,10.402391 8.786601,10.402592 8.753844,10.403389 8.728076,10.403626 8.728823,10.364127 8.729335,10.336776 8.729342,10.320693 8.729647,10.252141 8.729598,10.108053 8.72956,10.107846 8.895991,10.107846 8.896074,10.01362 8.89611,9.967144 8.972376,9.967144" style="fill: white" />
</svg>
