<svg width="19.131698" height="19.131699">
<polygon type="contour" points="14.739716,4.303048 14.821136,4.303048 14.828644,4.303056 14.828644,4.386207 14.828643,4.386828 14.828679,4.423535 14.828679,14.708169 14.828643,14.744877 14.828644,14.745497 14.828644,14.828647 14.821136,14.828655 14.739716,14.828655 14.708165,14.828682 6.651254,14.828682 6.580358,14.828681 6.511457,14.828681 6.304726,14.828682 4.423535,14.828682 4.391984,14.828655 4.310561,14.828655 4.303054,14.828647 4.303054,14.745498 4.303056,14.744877 4.303019,14.708169 4.303019,4.423535 4.303056,4.386827 4.303054,4.386207 4.303054,4.303056 4.310561,4.303048 4.391984,4.303048 4.423535,4.303021 14.708165,4.303021" style="fill: white" /><polygon type="hole" points="6.847405,6.653604 6.811807,6.653604 6.656237,6.656209 6.654918,6.717546 6.653602,6.788738 6.653602,6.803241 6.653613,6.818593 6.653888,6.847644 6.653404,6.865484 6.653602,6.871797 6.653602,7.237663 6.654261,7.316108 6.654261,7.663506 6.654836,7.718983 6.654919,7.777548 6.654919,8.122967 6.655578,8.201412 6.655578,8.59045 6.656056,8.632757 6.656237,8.701193 6.656237,9.084987 6.656898,9.16343 6.656898,9.51017 6.657271,9.529699 6.657582,9.566202 6.657793,9.5958 6.657272,9.602094 6.656898,9.621574 6.656898,9.968312 6.656237,10.046758 6.656237,10.430509 6.656055,10.498946 6.655578,10.541254 6.655578,10.886675 6.654919,10.965121 6.654919,11.354157 6.654837,11.412719 6.654261,11.468197 6.654261,11.815595 6.653602,11.89404 6.653602,12.259905 6.653405,12.266219 6.653888,12.284059 6.653613,12.312564 6.65625,12.475463 6.717543,12.476124 6.724792,12.476783 6.800467,12.477754 6.818591,12.478089 6.847642,12.477814 6.865482,12.478297 6.871794,12.4781 7.23766,12.4781 7.316106,12.477442 7.663503,12.477442 7.718983,12.476863 7.777546,12.476783 8.166582,12.476783 8.245025,12.476124 8.590447,12.476124 8.632755,12.475646 8.701192,12.475463 9.084985,12.475463 9.163427,12.474803 9.510169,12.474803 9.529698,12.474429 9.566198,12.474119 9.595798,12.473909 9.602092,12.47443 9.621572,12.474803 9.968312,12.474803 10.046756,12.475463 10.430507,12.475463 10.498944,12.475646 10.541253,12.476124 10.886673,12.476124 10.965119,12.476783 11.354154,12.476783 11.412716,12.476863 11.468196,12.477442 11.815595,12.477442 11.894038,12.4781 12.259903,12.4781 12.266216,12.478297 12.284059,12.477814 12.312563,12.478089 12.371966,12.476783 12.475462,12.475462 12.476123,12.418112 12.477752,12.331232 12.478086,12.312564 12.477812,12.284059 12.478294,12.266217 12.478098,12.259905 12.478098,11.889183 12.477439,11.810741 12.477439,11.463342 12.476782,11.349301 12.476782,10.931175 12.476123,10.852729 12.476123,10.507309 12.475462,10.396562 12.475462,10.049165 12.474802,9.97072 12.474802,9.621574 12.474428,9.602094 12.474117,9.566201 12.473907,9.536101 12.474428,9.529699 12.474802,9.51017 12.474802,9.163431 12.475462,9.084986 12.475462,8.737588 12.476123,8.626844 12.476123,8.281421 12.476782,8.202978 12.476782,7.857557 12.477439,7.743516 12.477439,7.320962 12.478098,7.242519 12.478098,6.871796 12.478295,6.865484 12.477812,6.847645 12.478086,6.818593 12.475756,6.655945 12.331231,6.653949 12.312562,6.653615 12.284059,6.65389 12.266216,6.653407 12.259903,6.653604 12.106311,6.653603 12.087095,6.653603 11.932839,6.653604 11.889183,6.653604 11.810739,6.654262 11.463341,6.654262 11.349297,6.654921 10.931173,6.654921 10.852727,6.65558 10.507308,6.65558 10.396561,6.656239 10.049163,6.656239 9.97072,6.6569 9.621571,6.6569 9.602092,6.657275 9.566198,6.657584 9.536098,6.657795 9.529698,6.657275 9.510168,6.6569 9.163428,6.6569 9.084984,6.656239 8.735137,6.656239 8.624393,6.65558 8.278972,6.65558 8.200527,6.654921 7.782402,6.654921 7.668358,6.654262 7.320961,6.654262 7.242515,6.653604 6.871794,6.653604 6.858333,6.653183" style="fill: black" />
</svg>
