<svg width="19.131698" height="19.131699">
<polygon type="contour" points="10.454524,8.651007 10.481476,8.650226 10.48086,8.67096 10.480769,8.673208 10.480526,8.695369 10.480426,8.708069 10.480333,8.953773 10.425205,8.953773 10.277183,8.953608 10.178094,8.953608 10.178987,8.799068 10.179426,8.681572 10.179542,8.678714 10.179542,8.664478 10.180002,8.649729" style="fill: white" /><polygon type="contour" points="9.592893,8.647877 9.711101,8.651288 9.711101,8.682631 9.711365,8.708069 9.711101,8.800123 9.711101,8.954079 9.4206,8.954079 9.4206,8.650919 9.538239,8.647878 9.544193,8.647596 9.565501,8.64719" style="fill: white" /><polygon type="contour" points="8.952134,8.663054 8.952158,8.664477 8.952275,8.681573 8.952275,8.706933 8.952712,8.799067 8.953606,8.908754 8.953606,8.953608 8.854516,8.953608 8.706495,8.953773 8.651367,8.953773 8.651273,8.708069 8.651173,8.695369 8.65093,8.673208 8.650839,8.67096 8.650224,8.650226 8.677175,8.651008 8.951699,8.649729" style="fill: white" /><polygon type="contour" points="9.166673,8.817997 9.186477,8.818072 9.206567,8.817997 9.289906,8.817653 9.289906,8.953892 9.206567,8.953918 9.166672,8.953918 9.084505,8.95386 9.084505,8.817625" style="fill: white" /><polygon type="contour" points="9.289471,9.084507 9.289625,9.166675 9.289625,9.198565 9.289906,9.261153 9.289906,9.289908 9.206568,9.289627 9.166672,9.289627 9.083623,9.289908 9.084494,9.174495 9.084252,9.174495 9.084252,9.174494 9.084505,9.112398 9.084505,9.084507 9.166672,9.084254 9.206568,9.084254" style="fill: white" /><polygon type="contour" points="8.953916,9.166674 8.953916,9.20657 8.95389,9.289908 8.817651,9.289908 8.817995,9.206569 8.81807,9.186479 8.817995,9.166675 8.817622,9.084507 8.953858,9.084507" style="fill: white" /><polygon type="contour" points="8.854516,10.178096 8.953606,10.178096 8.952713,10.332634 8.952275,10.450129 8.952158,10.452988 8.952158,10.467224 8.951699,10.481973 8.677176,10.480695 8.650224,10.481477 8.650839,10.460742 8.65093,10.458496 8.651173,10.436334 8.651273,10.423634 8.651367,10.177931 8.706495,10.177931" style="fill: white" /><polygon type="contour" points="8.953916,9.925133 8.953916,9.965028 8.953858,10.047197 8.817622,10.047197 8.817995,9.965028 8.81807,9.945224 8.817995,9.925134 8.817651,9.841797 8.95389,9.841797" style="fill: white" /><polygon type="contour" points="8.954077,9.711102 8.646585,9.711102 8.646535,9.697953 8.647171,9.566202 8.647218,9.552048 8.646586,9.420602 8.954077,9.420602" style="fill: white" /><polygon type="contour" points="9.289906,9.711102 9.084505,9.711102 9.084505,9.420602 9.289906,9.420602" style="fill: white" /><polygon type="contour" points="9.289517,9.957148 9.289625,9.957148 9.289471,10.019087 9.289471,10.047197 9.188229,10.047505 9.174493,10.04745 9.174492,10.04745 9.112396,10.047197 9.084505,10.047197 9.084252,9.965029 9.084252,9.925133 9.084505,9.842231 9.166673,9.842077 9.198564,9.842077 9.26115,9.841797 9.289906,9.841797" style="fill: white" /><polygon type="contour" points="9.289906,10.177812 9.289906,10.314052 9.206567,10.313707 9.186477,10.313632 9.166673,10.313707 9.084505,10.31408 9.084505,10.177844 9.166672,10.177786 9.206568,10.177786" style="fill: white" /><polygon type="contour" points="10.480426,10.423634 10.480526,10.436334 10.48077,10.458496 10.48086,10.460742 10.481476,10.481478 10.454524,10.480696 10.180002,10.481973 10.179567,10.468648 10.179541,10.467224 10.179426,10.450129 10.179426,10.424769 10.178987,10.332635 10.178094,10.222949 10.178094,10.178096 10.277183,10.178096 10.425205,10.177931 10.480333,10.177931" style="fill: white" /><polygon type="contour" points="10.047195,10.177844 10.047195,10.31408 9.965028,10.313708 9.945221,10.313632 9.925133,10.313707 9.841795,10.314052 9.841795,10.177812 9.925133,10.177786 9.965027,10.177786" style="fill: white" /><polygon type="contour" points="10.313705,9.925134 10.31363,9.945224 10.313705,9.965028 10.314079,10.047197 10.177842,10.047197 10.177784,9.965028 10.177784,9.925134 10.17781,9.841797 10.31405,9.841797" style="fill: white" /><polygon type="contour" points="10.485164,9.43375 10.484528,9.565501 10.484482,9.579655 10.485114,9.711102 10.177623,9.711102 10.177623,9.420602 10.485114,9.420602" style="fill: white" /><polygon type="contour" points="10.313705,9.166675 10.31363,9.186479 10.313705,9.206569 10.31405,9.289908 10.17781,9.289908 10.177784,9.206569 10.177784,9.166674 10.177842,9.084507 10.314079,9.084507" style="fill: white" /><polygon type="contour" points="10.047195,8.95386 9.965028,8.953918 9.925132,8.953918 9.841795,8.953892 9.841795,8.817653 9.925133,8.817997 9.945221,8.818072 9.965028,8.817996 10.047195,8.817625" style="fill: white" /><polygon type="contour" points="9.957207,9.084495 9.957208,9.084254 10.019303,9.084507 10.047195,9.084507 10.047448,9.166674 10.047448,9.20657 10.048077,9.289908 9.965027,9.289627 9.933137,9.289627 9.870549,9.289908 9.841795,9.289908 9.842076,9.20657 9.842076,9.174555 9.841795,9.111942 9.841795,9.083626" style="fill: white" /><polygon type="contour" points="9.711101,9.289908 9.4206,9.289908 9.4206,9.084507 9.711101,9.084507" style="fill: white" /><polygon type="contour" points="9.711101,9.711102 9.4206,9.711102 9.4206,9.420602 9.711101,9.420602" style="fill: white" /><polygon type="contour" points="10.047195,9.711102 9.841795,9.711102 9.841795,9.420602 10.047195,9.420602" style="fill: white" /><polygon type="contour" points="9.925133,9.842077 9.965027,9.842077 10.047195,9.842231 10.047503,9.943472 10.047496,9.945224 10.047195,10.019305 10.047195,10.047196 9.965027,10.04745 9.925133,10.04745 9.841795,10.048078 9.842076,9.965028 9.842076,9.933137 9.841795,9.870552 9.841795,9.841797" style="fill: white" /><polygon type="contour" points="9.711101,10.047197 9.4206,10.047197 9.4206,9.841797 9.711101,9.841797" style="fill: white" /><polygon type="contour" points="9.711101,10.480783 9.592893,10.483826 9.586912,10.484107 9.565563,10.484514 9.53824,10.483826 9.4206,10.480416 9.4206,10.449072 9.420336,10.423633 9.4206,10.33158 9.4206,10.177625 9.711101,10.177625" style="fill: white" />
</svg>
