<svg width="19.131698" height="19.131699">
<polygon type="contour" points="4.386643,8.848134 4.387339,8.848138 4.536296,8.848138 4.536299,8.847702 4.653899,8.847702 4.653433,8.926642 4.653433,9.055202 4.653432,9.110786 4.653432,9.138502 4.652701,9.138502 4.653899,9.284732 4.653899,9.345301 4.586054,9.345302 4.536298,9.345302 4.536298,9.345301 4.298636,9.345301 4.298607,9.266828 4.298598,9.244169 4.298592,9.227533 4.298592,9.11836 4.298443,9.096091 4.298443,9.055202 4.29856,9.055202 4.298633,8.847701" style="fill: white" /><polygon type="contour" points="7.730799,14.833162 7.667716,14.833162 7.663771,14.832877 7.6475,14.832876 7.6475,14.477803 7.730799,14.477803" style="fill: white" /><polygon type="contour" points="9.607499,14.833161 9.524199,14.833161 9.524199,14.477803 9.607499,14.477803" style="fill: white" /><polygon type="contour" points="10.545499,14.833161 10.482946,14.833161 10.478831,14.833062 10.462899,14.833062 10.462899,14.477803 10.545499,14.477803" style="fill: white" /><polygon type="contour" points="10.284,14.595403 10.282777,14.59541 10.284,14.759518 10.284,14.833067 10.20506,14.833095 10.182168,14.833103 10.1657,14.83311 9.90417,14.83311 9.864873,14.833096 9.786399,14.833067 9.786401,14.728462 9.786401,14.595403 9.7864,14.595403 9.786399,14.538371 9.786399,14.477803 9.864873,14.478269 10.205059,14.478269 10.284,14.477803" style="fill: white" /><polygon type="contour" points="10.284,14.298903 9.786399,14.298903 9.786399,14.215603 10.284,14.215603" style="fill: white" /><polygon type="contour" points="10.545499,14.298903 10.462899,14.298903 10.462899,14.215603 10.545499,14.215603" style="fill: white" /><polygon type="contour" points="10.545499,14.037042 10.462899,14.037042 10.462899,13.539803 10.545499,13.539803" style="fill: white" /><polygon type="contour" points="10.283533,13.618274 10.283533,13.657402 10.282783,13.657402 10.283999,13.802041 10.283999,13.829901 10.283997,13.829901 10.284,13.976833 10.284,14.037042 10.20506,14.036702 9.993201,14.036702 9.993201,14.03617 9.846969,14.037042 9.786399,14.037042 9.7864,13.958898 9.7864,13.829902 9.786401,13.774317 9.786401,13.746602 9.786404,13.746602 9.786399,13.600371 9.786399,13.539803 10.284,13.539803" style="fill: white" /><polygon type="contour" points="10.284,13.360903 9.786399,13.360903 9.786399,13.2776 10.284,13.2776" style="fill: white" /><polygon type="contour" points="10.545499,13.360903 10.462899,13.360903 10.462899,13.2776 10.545499,13.2776" style="fill: white" /><polygon type="contour" points="11.741573,12.644648 11.869901,12.645304 11.869901,12.644849 11.933058,12.644849 12.001025,12.645419 12.073884,12.64485 12.110583,12.644794 12.1607,12.644816 12.160699,12.737104 12.160697,12.808601 12.1607,12.808601 12.160235,12.863966 12.160235,12.891901 12.159501,12.891901 12.160701,13.037786 12.160701,13.098702 12.08207,13.098701 11.6631,13.098701 11.663101,13.020227 11.663101,12.981101 11.663102,12.981101 11.6631,12.832434 11.6631,12.644248" style="fill: white" /><polygon type="contour" points="12.736702,10.462902 12.808601,10.462902 12.864185,10.462901 13.0987,10.462901 13.0987,10.545501 12.9811,10.545501 12.9811,10.545499 12.832435,10.545502 12.736702,10.545502 12.692938,10.545501 12.642417,10.545501 12.642248,10.525453 12.642248,10.462901 12.692938,10.462901" style="fill: white" /><polygon type="contour" points="12.768908,4.108094 12.768832,4.129662 12.768898,4.13647 12.768706,4.29902 12.871758,4.298064 12.980931,4.298064 13.050846,4.29862 13.0987,4.298638 13.098699,4.403242 13.098699,4.536301 13.0987,4.536301 13.0987,4.653901 13.020225,4.653434 12.9811,4.653434 12.9811,4.652733 12.832432,4.653901 12.768743,4.653901 12.522833,4.653385 12.435096,4.653284 12.411074,4.653284 12.338441,4.653444 12.338199,4.602495 12.338199,4.385088 12.338319,4.322928 12.338305,4.298144 12.351002,4.298204 12.435101,4.29853 12.4358,4.192533 12.435765,4.183508 12.435697,4.136469 12.435739,4.108062 12.755162,4.108062" style="fill: white" /><polygon type="contour" points="14.774311,4.108055 14.802264,4.108055 15.023415,4.108286 15.023415,4.187178 15.023374,4.205438 15.023608,4.441294 15.00204,4.441212 14.995231,4.441304 14.832741,4.441083 14.833081,4.606047 14.833064,4.653901 14.477802,4.653901 14.4778,4.586055 14.4778,4.510155 14.477802,4.372185 14.477802,4.298638 14.545646,4.298353 14.690577,4.298527 14.690583,4.245493 14.690517,4.107983" style="fill: white" /><polygon type="contour" points="14.833159,4.916102 14.477802,4.916102 14.477802,4.832801 14.833159,4.832801" style="fill: white" /><polygon type="contour" points="14.8333,5.172805 14.833421,5.2811 14.833108,5.36496 14.833108,5.474133 14.833082,5.544047 14.833064,5.591901 14.595401,5.591901 14.595401,5.591902 14.538371,5.591901 14.477802,5.591901 14.478268,5.513429 14.478268,5.474302 14.479019,5.474302 14.477801,5.329661 14.477801,5.211902 14.477802,5.154871 14.477802,5.094663 14.545647,5.095002 14.595401,5.095002 14.595401,5.095467 14.759515,5.094663 14.833064,5.094663" style="fill: white" /><polygon type="contour" points="13.976832,5.094663 14.03704,5.094663 14.037166,5.172805 14.037166,5.301801 14.0367,5.357386 14.036699,5.385102 14.036166,5.385102 14.037041,5.531332 14.037041,5.591901 13.9198,5.591901 13.9198,5.591899 13.774315,5.591902 13.618274,5.591902 13.539802,5.591901 13.539801,5.513428 13.539801,5.385102 13.539802,5.329661 13.539802,5.094663 13.618274,5.095002 13.6574,5.095001 13.6574,5.095751 13.802039,5.094536 13.919799,5.094536 13.919799,5.094535" style="fill: white" /><polygon type="contour" points="14.037041,4.916102 13.539802,4.916102 13.539802,4.832801 14.037041,4.832801" style="fill: white" /><polygon type="contour" points="14.298902,4.916102 14.215602,4.916102 14.215602,4.832801 14.298902,4.832801" style="fill: white" /><polygon type="contour" points="14.298902,4.653901 14.215602,4.653901 14.215602,4.536301 14.215603,4.536301 14.2156,4.406683 14.215602,4.298543 14.298902,4.298543" style="fill: white" /><polygon type="contour" points="13.989546,4.298619 14.037041,4.298638 14.036699,4.403242 14.036696,4.536298 14.037105,4.536301 14.037041,4.593332 14.037041,4.653901 13.8299,4.653901 13.774315,4.653434 13.618273,4.653434 13.539802,4.653901 13.539802,4.44117 13.539801,4.44117 13.539802,4.372185 13.539802,4.298638 13.618273,4.298608 13.698423,4.298773 13.809639,4.298359 13.919628,4.298359" style="fill: white" /><polygon type="contour" points="13.360902,4.653901 13.277598,4.653901 13.277598,4.298543 13.360902,4.298543" style="fill: white" /><polygon type="contour" points="13.360902,4.916102 13.277598,4.916102 13.277598,4.832801 13.360902,4.832801" style="fill: white" /><polygon type="contour" points="12.864185,5.095002 12.8919,5.095002 12.8919,5.095532 13.03813,5.094663 13.0987,5.094663 13.098699,5.172805 13.098699,5.385102 13.098697,5.385102 13.0987,5.531331 13.0987,5.5919 13.020225,5.591902 12.8919,5.591902 12.832433,5.591901 12.411075,5.591901 12.338442,5.591902 12.338199,5.529598 12.338199,5.212232 12.338198,5.212232 12.338439,5.171675 12.338441,5.09476 12.367017,5.09476 12.42487,5.09493 12.522834,5.094817 12.803623,5.094458" style="fill: white" /><polygon type="contour" points="12.672674,4.832802 12.8086,4.832802 12.864184,4.832801 13.0987,4.832801 13.0987,4.916102 12.338306,4.916102 12.338306,4.832801 12.542239,4.832801" style="fill: white" /><polygon type="contour" points="12.1607,5.171789 12.1607,5.301801 12.160235,5.357168 12.160235,5.385102 12.159501,5.385102 12.160701,5.530985 12.160701,5.592989 12.08207,5.592606 11.9532,5.590319 11.9532,5.591902 11.741574,5.591902 11.6631,5.591901 11.663101,5.513428 11.663101,5.301801 11.663102,5.301801 11.6631,5.15487 11.6631,5.094663 11.741573,5.095002 11.9532,5.095002 11.9532,5.095529 12.099769,5.094662 12.160701,5.093576" style="fill: white" /><polygon type="contour" points="12.160701,4.916102 11.6631,4.916102 11.6631,4.832801 12.160701,4.832801" style="fill: white" /><polygon type="contour" points="11.6631,4.298637 11.741574,4.298608 11.764232,4.2986 11.780701,4.298594 12.0424,4.298594 12.0424,4.298536 12.109892,4.298524 12.160701,4.298517 12.160188,4.40285 12.160188,4.536301 12.1607,4.536301 12.160701,4.592984 12.160701,4.654989 12.082071,4.654141 11.9532,4.651844 11.9532,4.653434 11.741574,4.653434 11.6631,4.653901 11.6631,4.5363 11.663102,4.5363 11.6631,4.372185 11.662735,4.298598 11.6631,4.298515" style="fill: white" /><polygon type="contour" points="11.159629,5.094663 11.222,5.094663 11.221999,5.172805 11.221999,5.211902 11.221997,5.211902 11.222,5.357386 11.222,5.591901 10.724399,5.591901 10.724867,5.513428 10.724867,5.474302 10.725616,5.474302 10.724401,5.32966 10.724401,5.3018 10.724404,5.3018 10.724399,5.15487 10.724399,5.094663 10.803285,5.094532 11.100901,5.094532" style="fill: white" /><polygon type="contour" points="11.222,4.916102 10.724399,4.916102 10.724399,4.832801 11.222,4.832801" style="fill: white" /><polygon type="contour" points="11.4842,4.916102 11.400899,4.916102 11.400899,4.832801 11.4842,4.832801" style="fill: white" /><polygon type="contour" points="11.4842,4.653901 11.400899,4.653901 11.400899,4.298543 11.463981,4.298543 11.467929,4.298263 11.4842,4.298263" style="fill: white" /><polygon type="contour" points="10.992713,4.298674 11.003567,4.298534 11.100732,4.298534 11.140768,4.298556 11.222,4.298638 11.222,4.44117 11.221997,4.44117 11.222,4.593331 11.222,4.6539 11.140767,4.653902 10.842001,4.653902 10.784969,4.653901 10.724399,4.653901 10.724399,4.536301 10.725626,4.536301 10.724399,4.372184 10.724399,4.298638 10.803285,4.298555 10.842167,4.298534 10.940168,4.298534 10.951974,4.298674 10.960267,4.298295 10.985088,4.298295" style="fill: white" /><polygon type="contour" points="7.049629,4.832097 7.1785,4.834383 7.1785,4.832801 7.4686,4.832801 7.4686,4.916102 7.03193,4.916102 6.971,4.91719 6.971,4.831714" style="fill: white" /><polygon type="contour" points="7.049629,4.298531 7.0893,4.298536 7.0893,4.298594 7.350999,4.298594 7.390126,4.298608 7.4686,4.298638 7.468599,4.403242 7.468599,4.44117 7.468597,4.44117 7.4686,4.593331 7.4686,4.653901 7.390126,4.653434 7.1785,4.653434 7.1785,4.652707 7.03193,4.653901 6.971,4.653902 6.971,4.536301 6.971513,4.536297 6.971513,4.40285 6.971,4.298517" style="fill: white" /><polygon type="contour" points="6.696005,4.133149 6.696001,4.136469 6.695899,4.192532 6.695944,4.298528 6.793394,4.298144 6.79338,4.322929 6.793321,4.356523 6.793502,4.376165 6.793502,4.535904 6.793258,4.576527 6.793258,4.653444 6.764439,4.653444 6.70614,4.653272 6.608348,4.653385 6.331091,4.653967 6.267514,4.653435 6.2398,4.653434 6.2398,4.652703 6.093568,4.653901 6.032998,4.653901 6.032999,4.586056 6.032999,4.5363 6.033,4.5363 6.032998,4.372185 6.032998,4.298638 6.111472,4.298142 6.223471,4.297919 6.306103,4.29865 6.36306,4.29865 6.362746,4.189153 6.362801,4.136469 6.362792,4.108094 6.376537,4.108062 6.695958,4.108062" style="fill: white" /><polygon type="contour" points="4.441181,4.223079 4.441117,4.245492 4.441117,4.297837 4.606045,4.29862 4.653899,4.298638 4.6539,4.403242 4.653896,4.536301 4.653899,4.536301 4.653899,4.653901 4.298636,4.653901 4.298756,4.586055 4.298776,4.441056 4.178293,4.441312 4.136467,4.441303 4.108092,4.441294 4.108325,4.205438 4.108284,4.187178 4.108284,4.108286 4.329432,4.108055 4.357387,4.108055 4.441181,4.107983" style="fill: white" /><polygon type="contour" points="4.9161,4.44117 4.916098,4.44117 4.916101,4.593331 4.916101,4.653901 4.832799,4.653901 4.832799,4.406684 4.8328,4.298543 4.9161,4.298543" style="fill: white" /><polygon type="contour" points="5.474134,4.298925 5.474131,4.298594 5.544046,4.29862 5.591899,4.298638 5.591899,4.653901 5.513425,4.653434 5.4743,4.653434 5.4743,4.652682 5.329659,4.653901 5.094661,4.653901 5.094596,4.586055 5.094596,4.536301 5.095467,4.536301 5.094661,4.372184 5.094661,4.298638 5.172803,4.298402 5.21207,4.298359 5.32206,4.298359" style="fill: white" /><polygon type="contour" points="5.854098,4.653901 5.770798,4.653901 5.770798,4.298543 5.854098,4.298543" style="fill: white" /><polygon type="contour" points="6.299266,4.832802 6.362955,4.832802 6.461365,4.832801 6.793394,4.832801 6.793394,4.916102 6.674759,4.916102 6.58946,4.917532 6.459026,4.916708 6.362955,4.916102 6.032998,4.916102 6.032998,4.832801 6.2398,4.832801" style="fill: white" /><polygon type="contour" points="6.608349,5.094818 6.695984,5.094919 6.720005,5.094919 6.793258,5.09476 6.793502,5.156705 6.793502,5.474301 6.793258,5.514986 6.793258,5.591901 6.323099,5.591901 6.267515,5.591902 6.150601,5.591902 6.093569,5.591901 6.032998,5.591901 6.032999,5.513428 6.032999,5.385102 6.033,5.329661 6.033,5.301801 6.033003,5.301801 6.032998,5.15487 6.032998,5.094663 6.111472,5.095002 6.150601,5.095002 6.150601,5.09575 6.299266,5.094503 6.362955,5.094503" style="fill: white" /><polygon type="contour" points="6.486688,7.049631 6.486607,7.089302 6.485932,7.089299 6.486855,7.198643 6.486855,7.261802 6.486401,7.261802 6.48721,7.421029 6.487453,7.468601 6.394598,7.468602 6.3231,7.468602 6.267515,7.468601 6.032998,7.468601 6.032999,7.390127 6.032999,6.971002 6.111164,6.971468 6.1506,6.971468 6.1506,6.972167 6.299064,6.971003 6.363089,6.971003 6.43032,6.971002 6.486887,6.971002" style="fill: white" /><polygon type="contour" points="5.854802,7.049631 5.852512,7.178502 5.854098,7.178502 5.854098,7.468601 5.770798,7.468601 5.770798,7.031932 5.769711,6.971002 5.855187,6.971002" style="fill: white" /><polygon type="contour" points="5.854098,6.793396 5.770798,6.793396 5.770798,6.033001 5.854098,6.033001" style="fill: white" /><polygon type="contour" points="5.591899,6.79326 5.529596,6.793503 5.21223,6.793503 5.171672,6.79326 5.094758,6.79326 5.094758,6.764441 5.094928,6.706126 5.094816,6.608352 5.094457,6.328082 5.095,6.267517 5.095,6.239803 5.09553,6.239803 5.094661,6.093572 5.094661,6.033001 5.172803,6.033002 5.211898,6.033002 5.211898,6.033003 5.357384,6.033001 5.591899,6.033001" style="fill: white" /><polygon type="contour" points="5.5919,7.049631 5.591896,7.178502 5.591899,7.178502 5.591899,7.468601 5.094661,7.468601 5.095,7.390127 5.095,7.049631 5.094663,6.971002 5.172495,6.971003 5.301798,6.971003 5.357166,6.971468 5.513735,6.971468 5.5919,6.971002" style="fill: white" /><polygon type="contour" points="5.591899,7.7308 5.094661,7.7308 5.094661,7.647501 5.591899,7.647501" style="fill: white" /><polygon type="contour" points="5.854098,7.7308 5.770798,7.7308 5.770798,7.647501 5.854098,7.647501" style="fill: white" /><polygon type="contour" points="6.487881,7.7308 6.032998,7.7308 6.032998,7.647501 6.487881,7.647501" style="fill: white" /><polygon type="contour" points="6.488326,7.95897 6.488641,8.030968 6.488641,8.182 6.488995,8.223997 6.48861,8.359449 6.488854,8.407302 6.3231,8.407302 6.267515,8.406835 6.2398,8.406835 6.2398,8.406104 6.093568,8.407302 6.032998,8.407302 6.032999,8.328415 6.032999,8.118602 6.033,8.118602 6.032998,7.972073 6.032998,7.9097 6.111472,7.909702 6.362954,7.909702 6.431168,7.9097 6.488132,7.9097" style="fill: white" /><polygon type="contour" points="6.490319,9.864875 6.489875,9.993202 6.490184,9.993202 6.490184,10.05636 6.489261,10.165702 6.490013,10.165702 6.489906,10.254055 6.489754,10.284001 6.3231,10.284001 6.267515,10.283534 6.2398,10.283534 6.2398,10.282802 6.093569,10.284002 6.032998,10.284002 6.032999,10.20506 6.032999,9.864875 6.032998,9.786401 6.111473,9.786402 6.362955,9.786402 6.432187,9.786401 6.490594,9.786401" style="fill: white" /><polygon type="contour" points="6.491095,9.555464 6.491095,9.576759 6.491295,9.604921 6.491082,9.607501 6.032998,9.607501 6.032998,9.524201 6.491083,9.524201" style="fill: white" /><polygon type="contour" points="6.489854,8.926641 6.490014,8.966002 6.490014,9.11836 6.490184,9.138502 6.48978,9.138502 6.490581,9.315028 6.490674,9.345302 6.3954,9.345301 6.323099,9.345301 6.267515,9.345302 6.150601,9.345302 6.093569,9.345301 6.032998,9.345301 6.032999,9.266828 6.032999,9.055202 6.033,9.055202 6.032998,8.908272 6.032998,8.847702 6.111472,8.848169 6.150601,8.848169 6.150601,8.848869 6.299267,8.847702 6.489873,8.847702" style="fill: white" /><polygon type="contour" points="6.489283,8.648753 6.489453,8.668801 6.032998,8.668801 6.032998,8.586201 6.489283,8.586201" style="fill: white" /><polygon type="contour" points="5.854098,8.668801 5.770798,8.668801 5.770798,8.586201 5.854098,8.586201" style="fill: white" /><polygon type="contour" points="5.854098,8.407302 5.770798,8.407302 5.770798,7.9097 5.854098,7.9097" style="fill: white" /><polygon type="contour" points="5.591899,8.407302 5.513425,8.406835 5.474299,8.406835 5.474291,8.406085 5.329658,8.407301 5.301799,8.407301 5.301799,8.407299 5.154869,8.407302 5.094661,8.407302 5.09453,8.328415 5.09453,8.201901 5.094531,8.146025 5.094531,8.0308 5.094661,7.972072 5.094661,7.9097 5.172802,7.909702 5.513426,7.909702 5.591899,7.9097" style="fill: white" /><polygon type="contour" points="5.591899,8.668801 5.094661,8.668801 5.094661,8.586201 5.591899,8.586201" style="fill: white" /><polygon type="contour" points="5.591899,9.345301 5.513425,9.345302 5.3851,9.345302 5.329659,9.345301 5.094661,9.345301 5.095,9.266828 5.095,8.926641 5.094661,8.847702 5.172803,8.847703 5.301799,8.847703 5.357385,8.848169 5.513425,8.848169 5.591899,8.847702" style="fill: white" /><polygon type="contour" points="5.854098,9.345301 5.770798,9.345301 5.770798,8.847702 5.854098,8.847702" style="fill: white" /><polygon type="contour" points="5.854098,9.607501 5.770798,9.607501 5.770798,9.524201 5.854098,9.524201" style="fill: white" /><polygon type="contour" points="5.591899,9.607501 5.094661,9.607501 5.094661,9.524201 5.591899,9.524201" style="fill: white" /><polygon type="contour" points="4.653899,10.545501 4.298541,10.545501 4.298541,10.488233 4.29801,10.482948 4.298074,10.482935 4.298074,10.462901 4.653899,10.462901" style="fill: white" /><polygon type="contour" points="4.9161,10.545501 4.832799,10.545501 4.832799,10.462901 4.9161,10.462901" style="fill: white" /><polygon type="contour" points="4.9161,10.284002 4.832799,10.284002 4.832799,9.786401 4.9161,9.786401" style="fill: white" /><polygon type="contour" points="4.441169,9.786403 4.593329,9.786401 4.653899,9.786401 4.653432,9.864875 4.653432,10.205061 4.653899,10.284002 4.586054,10.284001 4.536298,10.284001 4.536292,10.282957 4.372183,10.284002 4.298635,10.284002 4.298606,10.20506 4.298599,10.18217 4.298592,10.165702 4.298592,9.904171 4.298606,9.864875 4.298636,9.786401 4.441169,9.786401" style="fill: white" /><polygon type="contour" points="4.653899,9.607501 4.298542,9.607501 4.298542,9.587282 4.298305,9.524201 4.653899,9.524201" style="fill: white" /><polygon type="contour" points="4.9161,9.607501 4.832799,9.607501 4.832799,9.524201 4.9161,9.524201" style="fill: white" /><polygon type="contour" points="4.9161,9.227702 4.916101,9.227702 4.916101,9.284732 4.9161,9.345301 4.832799,9.345301 4.832799,8.847702 4.9161,8.847702" style="fill: white" /><polygon type="contour" points="4.9161,8.668801 4.832799,8.668801 4.832799,8.586201 4.9161,8.586201" style="fill: white" /><polygon type="contour" points="4.653899,8.668801 4.397874,8.668801 4.397874,8.586201 4.653899,8.586201" style="fill: white" /><polygon type="contour" points="4.653899,8.407302 4.536299,8.407302 4.536299,8.40626 4.372184,8.407302 4.298636,8.407302 4.298554,8.328415 4.298533,8.289534 4.29938,8.289534 4.298293,8.177081 4.298672,8.161161 4.298533,8.138502 4.298533,8.030969 4.298617,7.95897 4.298636,7.9097 4.387602,7.909701 4.441169,7.909701 4.441169,7.909702 4.593329,7.9097 4.653899,7.9097" style="fill: white" /><polygon type="contour" points="4.9161,8.289701 4.916101,8.289701 4.916101,8.346733 4.9161,8.407302 4.832799,8.407302 4.832799,7.9097 4.9161,7.9097" style="fill: white" /><polygon type="contour" points="4.9161,7.7308 4.832799,7.7308 4.832799,7.647501 4.9161,7.647501" style="fill: white" /><polygon type="contour" points="4.653898,7.687896 4.653898,7.7308 4.298542,7.7308 4.298542,7.673002 4.29801,7.667717 4.298262,7.667666 4.298262,7.647501 4.653899,7.647501" style="fill: white" /><polygon type="contour" points="4.654138,7.049631 4.651844,7.178502 4.653432,7.178502 4.653433,7.234086 4.653433,7.261802 4.652704,7.261802 4.653899,7.408031 4.653899,7.468601 4.586054,7.4686 4.44117,7.4686 4.44117,7.468601 4.398313,7.468601 4.398313,7.368801 4.298599,7.368801 4.298598,7.367469 4.298592,7.351002 4.298592,7.089303 4.298534,7.089303 4.298522,7.021809 4.298515,6.971002 4.387119,6.971437 4.536298,6.971437 4.536299,6.971002 4.654986,6.971002" style="fill: white" /><polygon type="contour" points="4.916803,7.049632 4.914517,7.178502 4.9161,7.178502 4.9161,7.468601 4.832799,7.468601 4.832799,6.971002 4.917188,6.971002" style="fill: white" /><polygon type="contour" points="4.9161,6.150603 4.916098,6.150603 4.916101,6.299269 4.916101,6.362957 4.9161,6.461366 4.9161,6.793396 4.832799,6.793396 4.832799,6.362957 4.8328,6.362957 4.832799,6.267517 4.832799,6.033001 4.9161,6.033001" style="fill: white" /><polygon type="contour" points="4.653432,6.111475 4.653433,6.150603 4.652731,6.150603 4.653899,6.299269 4.653899,6.362957 4.653383,6.608351 4.653282,6.695987 4.653282,6.720009 4.653442,6.79326 4.602493,6.793503 4.367196,6.793503 4.298142,6.793395 4.2982,6.780593 4.298527,6.695947 4.192531,6.695901 4.183507,6.695935 4.136467,6.696003 4.10806,6.695961 4.10806,6.37654 4.108092,6.362795 4.12966,6.362871 4.136468,6.362803 4.299018,6.362997 4.298062,6.259944 4.298062,6.150772 4.298617,6.080854 4.298636,6.033001 4.653899,6.033001" style="fill: white" /><polygon type="contour" points="4.653899,5.854101 4.298542,5.854101 4.298542,5.770801 4.653899,5.770801" style="fill: white" /><polygon type="contour" points="4.9161,5.854101 4.832799,5.854101 4.832799,5.770801 4.9161,5.770801" style="fill: white" /><polygon type="contour" points="4.9161,5.591901 4.832799,5.591901 4.832799,5.094663 4.9161,5.094663" style="fill: white" /><polygon type="contour" points="4.6539,5.172805 4.6539,5.301801 4.653432,5.357387 4.653432,5.385102 4.652701,5.385102 4.653899,5.531332 4.653899,5.591901 4.586054,5.591902 4.536298,5.591902 4.536298,5.591901 4.298636,5.591901 4.298606,5.513428 4.298592,5.474133 4.298592,5.364959 4.29819,5.256948 4.298617,5.142156 4.298636,5.094663 4.387602,5.095001 4.441169,5.095001 4.44117,5.095567 4.593329,5.094663 4.653898,5.094663" style="fill: white" /><polygon type="contour" points="4.653899,4.916102 4.298542,4.916102 4.298542,4.832801 4.653899,4.832801" style="fill: white" /><polygon type="contour" points="4.9161,4.916102 4.832799,4.916102 4.832799,4.832801 4.9161,4.832801" style="fill: white" /><polygon type="contour" points="5.357385,5.095002 5.474299,5.095002 5.474299,5.095001 5.513425,5.095002 5.591899,5.094663 5.591899,5.591901 5.513425,5.591902 5.3851,5.591902 5.329659,5.591901 5.094661,5.591901 5.095,5.513428 5.095,5.474302 5.095749,5.474302 5.094534,5.32966 5.094534,5.211902 5.094661,5.15487 5.094661,5.094663 5.172803,5.094536 5.301799,5.094536" style="fill: white" /><polygon type="contour" points="5.591899,4.916102 5.094661,4.916102 5.094661,4.832801 5.591899,4.832801" style="fill: white" /><polygon type="contour" points="5.854098,4.916102 5.770798,4.916102 5.770798,4.832801 5.854098,4.832801" style="fill: white" /><polygon type="contour" points="5.854098,5.591901 5.770798,5.591901 5.770798,5.094663 5.854098,5.094663" style="fill: white" /><polygon type="contour" points="5.591899,5.854101 5.094661,5.854101 5.094661,5.770801 5.591899,5.770801" style="fill: white" /><polygon type="contour" points="5.854098,5.854101 5.770798,5.854101 5.770798,5.770801 5.854098,5.770801" style="fill: white" /><polygon type="contour" points="6.793502,6.095305 6.793502,6.410831 6.793354,6.453637 6.793394,6.460321 6.793394,6.485954 6.780591,6.486005 6.692072,6.48591 6.651348,6.48655 6.488953,6.488955 6.486845,6.641347 6.486512,6.6569 6.486178,6.674962 6.486178,6.677971 6.485915,6.697265 6.486003,6.780593 6.485952,6.793396 6.460319,6.793396 6.453635,6.793355 6.410828,6.793503 6.1506,6.793503 6.109916,6.79326 6.032998,6.79326 6.032998,6.764442 6.033,6.710118 6.033,6.323102 6.033467,6.267517 6.033467,6.239803 6.0342,6.239803 6.032998,6.093571 6.032998,6.033001 6.111472,6.033469 6.150601,6.033469 6.150601,6.034169 6.299267,6.033002 6.362956,6.033002 6.608349,6.033003 6.720006,6.033003 6.793258,6.033001" style="fill: white" /><polygon type="contour" points="6.793394,5.854101 6.032998,5.854101 6.032998,5.770801 6.793394,5.770801" style="fill: white" /><polygon type="contour" points="7.049629,5.770097 7.1785,5.772383 7.1785,5.770801 7.4686,5.770801 7.4686,5.854101 6.971,5.854101 6.971,5.769714" style="fill: white" /><polygon type="contour" points="7.049629,6.032297 7.1785,6.034583 7.1785,6.033001 7.4686,6.033001 7.468599,6.111475 7.468599,6.150603 7.468597,6.150603 7.4686,6.299268 7.4686,6.487455 7.390127,6.487055 7.380281,6.487024 7.2618,6.486341 7.2618,6.486856 7.198641,6.486856 7.0893,6.485938 7.0893,6.486609 7.049628,6.48669 6.971,6.486889 6.971001,6.394599 6.971001,6.323102 6.971465,6.267736 6.971465,6.239803 6.972196,6.239803 6.971,6.093917 6.971,6.031913" style="fill: white" /><polygon type="contour" points="7.730799,6.487884 7.6475,6.487884 7.6475,6.033001 7.730799,6.033001" style="fill: white" /><polygon type="contour" points="7.730799,5.854101 7.6475,5.854101 7.6475,5.770801 7.730799,5.770801" style="fill: white" /><polygon type="contour" points="7.730799,5.591901 7.6475,5.591901 7.6475,5.094663 7.730799,5.094663" style="fill: white" /><polygon type="contour" points="7.468599,5.172805 7.468599,5.385102 7.468597,5.385102 7.4686,5.531331 7.4686,5.591901 7.390126,5.591902 7.0893,5.591902 7.03193,5.5919 6.971,5.591902 6.971465,5.513737 6.971465,5.474302 6.972216,5.474302 6.971,5.32988 6.971,5.094665 7.049628,5.095002 7.390126,5.095002 7.4686,5.094663" style="fill: white" /><polygon type="contour" points="7.730799,4.916102 7.6475,4.916102 7.6475,4.832801 7.730799,4.832801" style="fill: white" /><polygon type="contour" points="7.730799,4.653901 7.6475,4.653901 7.6475,4.298543 7.730799,4.298543" style="fill: white" /><polygon type="contour" points="7.909327,4.298638 7.990931,4.298556 8.014132,4.298542 8.030967,4.298534 8.138501,4.298534 8.16116,4.298674 8.214287,4.298491 8.328413,4.298555 8.407301,4.298638 8.406785,4.403241 8.406785,4.536301 8.4073,4.536301 8.407301,4.593331 8.407301,4.6539 8.328413,4.653902 7.990932,4.653902 7.909699,4.6539 7.9097,4.586056 7.9097,4.536301 7.909701,4.536301 7.909699,4.372185 7.90932,4.298431" style="fill: white" /><polygon type="contour" points="8.668799,4.653901 8.5862,4.653901 8.5862,4.298543 8.648752,4.298543 8.652867,4.298076 8.668799,4.298076" style="fill: white" /><polygon type="contour" points="8.668799,4.916102 8.5862,4.916102 8.5862,4.832801 8.668799,4.832801" style="fill: white" /><polygon type="contour" points="8.407301,4.916102 7.909699,4.916102 7.909699,4.832801 8.407301,4.832801" style="fill: white" /><polygon type="contour" points="8.407301,5.094663 8.407299,5.172804 8.407299,5.301801 8.406832,5.357387 8.406832,5.385102 8.406098,5.38511 8.407301,5.531332 8.407301,5.591901 7.909699,5.591901 7.9097,5.513428 7.9097,5.3018 7.909701,5.3018 7.909699,5.15487 7.909699,5.094663 7.990931,5.094532 8.328413,5.094532" style="fill: white" /><polygon type="contour" points="8.668799,5.591901 8.5862,5.591901 8.5862,5.094663 8.668799,5.094663" style="fill: white" /><polygon type="contour" points="8.668799,5.854101 8.5862,5.854101 8.5862,5.770801 8.668799,5.770801" style="fill: white" /><polygon type="contour" points="8.407301,5.854101 7.909699,5.854101 7.909699,5.770801 8.407301,5.770801" style="fill: white" /><polygon type="contour" points="8.406832,6.111475 8.406832,6.150603 8.40613,6.150611 8.4073,6.299269 8.4073,6.362957 8.407301,6.431169 8.407301,6.488856 8.328414,6.488943 8.201899,6.488513 8.201899,6.488811 8.138501,6.488811 8.030967,6.487908 8.030967,6.488644 7.958969,6.488328 7.909699,6.488134 7.909699,6.431169 7.9097,6.362957 7.9097,6.239803 7.909701,6.239803 7.909699,6.093572 7.909699,6.033001 8.407301,6.033001" style="fill: white" /><polygon type="contour" points="8.668799,6.489455 8.606246,6.489455 8.5862,6.489285 8.5862,6.033001 8.668799,6.033001" style="fill: white" /><polygon type="contour" points="9.607499,6.491084 9.576756,6.491097 9.555462,6.491097 9.526822,6.491297 9.524199,6.491084 9.524199,6.033001 9.607499,6.033001" style="fill: white" /><polygon type="contour" points="9.345299,6.150603 9.345297,6.150603 9.3453,6.299268 9.3453,6.362957 9.345299,6.432188 9.345299,6.490596 9.266825,6.49032 9.138499,6.489876 9.138499,6.490185 9.075341,6.490185 8.966,6.489262 8.966,6.490015 8.895554,6.490146 8.8477,6.489875 8.8477,6.323102 8.848167,6.267517 8.848167,6.239803 8.848897,6.239803 8.8477,6.093571 8.8477,6.033001 9.345299,6.033001" style="fill: white" /><polygon type="contour" points="9.345299,5.854101 8.8477,5.854101 8.8477,5.770801 9.345299,5.770801" style="fill: white" /><polygon type="contour" points="9.607499,5.854101 9.524199,5.854101 9.524199,5.770801 9.607499,5.770801" style="fill: white" /><polygon type="contour" points="9.607499,5.591901 9.524199,5.591901 9.524199,5.094663 9.607499,5.094663" style="fill: white" /><polygon type="contour" points="9.607499,4.916102 9.524199,4.916102 9.524199,4.832801 9.607499,4.832801" style="fill: white" /><polygon type="contour" points="9.3453,5.172805 9.3453,5.301801 9.345299,5.357386 9.345299,5.591901 9.266825,5.591902 8.92664,5.591902 8.8477,5.591901 8.848167,5.513429 8.848167,5.474302 8.848918,5.474302 8.8477,5.329661 8.8477,5.094663 8.926639,5.095002 9.138499,5.095002 9.138499,5.095532 9.284729,5.094663 9.345298,5.094663" style="fill: white" /><polygon type="contour" points="9.345299,4.916102 8.8477,4.916102 8.8477,4.832801 9.345299,4.832801" style="fill: white" /><polygon type="contour" points="9.244166,4.298599 9.266825,4.298608 9.306226,4.298623 9.306516,4.348497 9.345299,4.348498 9.345299,4.5363 9.3453,4.5363 9.345299,4.593331 9.345299,4.653901 9.266825,4.653434 8.926639,4.653434 8.8477,4.653901 8.8477,4.5363 8.848922,4.536293 8.8477,4.372185 8.847699,4.298598 8.847699,4.298638 8.926639,4.298609 8.949335,4.2986 8.966,4.298594 9.22753,4.298594 9.22753,4.298593" style="fill: white" /><polygon type="contour" points="9.544417,4.298543 9.607499,4.298543 9.607499,4.653901 9.524199,4.653901 9.524199,4.298076 9.540266,4.298076" style="fill: white" /><polygon type="contour" points="10.076501,4.298561 10.182169,4.2986 10.1842,4.2986 10.1842,4.348499 10.283754,4.348499 10.283493,4.401399 10.283486,4.403072 10.283486,4.536301 10.284,4.536301 10.284,4.653901 10.20506,4.653434 9.864873,4.653434 9.786399,4.653901 9.7864,4.586056 9.7864,4.5363 9.786403,4.5363 9.786399,4.372184 9.786399,4.298638 9.864873,4.298608 9.90417,4.298594 10.013342,4.298594 10.035611,4.298445 10.076501,4.298445" style="fill: white" /><polygon type="contour" points="10.482947,4.298543 10.545499,4.298543 10.545499,4.653901 10.462899,4.653901 10.462899,4.298365 10.478831,4.298076" style="fill: white" /><polygon type="contour" points="10.545499,4.916102 10.462899,4.916102 10.462899,4.832801 10.545499,4.832801" style="fill: white" /><polygon type="contour" points="10.284,4.916102 9.786399,4.916102 9.786399,4.832801 10.284,4.832801" style="fill: white" /><polygon type="contour" points="10.283999,5.172805 10.283999,5.301801 10.283533,5.357387 10.283533,5.385102 10.282802,5.385102 10.284,5.531332 10.284,5.591901 10.205059,5.591902 9.904001,5.591902 9.846969,5.591901 9.786399,5.591901 9.786401,5.513429 9.786401,5.474302 9.786402,5.474302 9.7864,5.329661 9.7864,5.301801 9.786401,5.301801 9.786399,5.15487 9.786399,5.094663 9.864872,5.095002 10.20506,5.095002 10.284,5.094663" style="fill: white" /><polygon type="contour" points="10.545499,5.591901 10.462899,5.591901 10.462899,5.094663 10.545499,5.094663" style="fill: white" /><polygon type="contour" points="10.545499,5.854101 10.462899,5.854101 10.462899,5.770801 10.545499,5.770801" style="fill: white" /><polygon type="contour" points="10.284,5.854101 9.786399,5.854101 9.786399,5.770801 10.284,5.770801" style="fill: white" /><polygon type="contour" points="10.283533,6.111475 10.283533,6.150603 10.282833,6.150603 10.283999,6.299269 10.283999,6.362957 10.284,6.432188 10.284,6.489875 10.20506,6.489855 10.1657,6.490015 10.013342,6.490015 9.993201,6.490185 9.993201,6.489873 9.834253,6.490429 9.786399,6.490595 9.7864,6.395402 9.7864,6.323102 9.786401,6.267517 9.786401,6.239803 9.786404,6.239803 9.786399,6.093571 9.786399,6.033001 10.284,6.033001" style="fill: white" /><polygon type="contour" points="10.545499,6.489285 10.525451,6.489455 10.462899,6.489455 10.462899,6.033001 10.545499,6.033001" style="fill: white" /><polygon type="contour" points="11.4842,6.487884 11.400899,6.487884 11.400899,6.033001 11.4842,6.033001" style="fill: white" /><polygon type="contour" points="11.222,6.239803 11.221999,6.299268 11.221999,6.487966 11.220155,6.488162 11.140767,6.488482 11.129666,6.488476 11.100732,6.488644 11.100733,6.487908 10.993199,6.488811 10.842168,6.488811 10.772253,6.488612 10.724399,6.488856 10.7244,6.395001 10.7244,6.323102 10.724867,6.267517 10.724867,6.239802 10.725598,6.239794 10.724399,6.093572 10.724399,6.033001 11.222,6.033001" style="fill: white" /><polygon type="contour" points="11.222,5.854101 10.724399,5.854101 10.724399,5.770801 11.222,5.770801" style="fill: white" /><polygon type="contour" points="11.4842,5.591901 11.400899,5.591901 11.400899,5.094663 11.4842,5.094663" style="fill: white" /><polygon type="contour" points="11.4842,5.854101 11.400899,5.854101 11.400899,5.770801 11.4842,5.770801" style="fill: white" /><polygon type="contour" points="12.160701,5.855189 12.08207,5.854804 11.9532,5.852518 11.9532,5.854101 11.6631,5.854101 11.6631,5.770801 12.160701,5.770801" style="fill: white" /><polygon type="contour" points="12.160701,6.033002 12.160235,6.111167 12.160235,6.150602 12.159535,6.150602 12.1607,6.299067 12.1607,6.323102 12.160699,6.323102 12.160699,6.430322 12.160701,6.486889 12.082071,6.48669 12.042399,6.486609 12.042403,6.485938 11.933058,6.486856 11.869901,6.486856 11.869901,6.486401 11.71067,6.487213 11.6631,6.487455 11.6631,6.323102 11.663101,6.267517 11.663101,6.150602 11.6631,6.150602 11.6631,6.033001 12.09977,6.033001" style="fill: white" /><polygon type="contour" points="12.420883,6.033003 12.522833,6.033003 12.808582,6.033001 12.864186,6.033469 12.8919,6.033469 12.8919,6.0342 13.03813,6.033001 13.0987,6.033001 13.098232,6.111474 13.098232,6.150603 13.097532,6.150603 13.098698,6.299269 13.098698,6.362956 13.0987,6.608351 13.098701,6.695987 13.098701,6.709072 13.0987,6.793259 13.036396,6.793503 12.72087,6.793503 12.678064,6.793355 12.67138,6.793396 12.645748,6.793396 12.645697,6.780593 12.645789,6.69206 12.645151,6.651351 12.642823,6.488879 12.453762,6.486267 12.439148,6.486005 12.417208,6.485915 12.338306,6.485954 12.338306,6.460321 12.338346,6.453637 12.338199,6.410832 12.338199,6.150602 12.338441,6.109918 12.338441,6.033001 12.367016,6.033001" style="fill: white" /><polygon type="contour" points="13.0987,5.854101 12.338306,5.854101 12.338306,5.770801 13.0987,5.770801" style="fill: white" /><polygon type="contour" points="13.360902,5.591901 13.277598,5.591901 13.277598,5.094663 13.360902,5.094663" style="fill: white" /><polygon type="contour" points="13.360902,5.854101 13.277598,5.854101 13.277598,5.770801 13.360902,5.770801" style="fill: white" /><polygon type="contour" points="13.802039,6.033002 13.8299,6.033002 13.8299,6.033003 13.976832,6.033001 14.03704,6.033001 14.036699,6.111474 14.036699,6.150603 14.035948,6.150603 14.037199,6.299269 14.037199,6.362957 14.036883,6.608352 14.036784,6.695987 14.036784,6.720009 14.036942,6.79326 13.974995,6.793503 13.6574,6.793503 13.616716,6.79326 13.539801,6.79326 13.539801,6.764441 13.5398,6.710117 13.5398,6.323102 13.539801,6.267517 13.539801,6.150603 13.539802,6.093571 13.539802,6.033001 13.746599,6.033001" style="fill: white" /><polygon type="contour" points="14.03704,5.813704 14.03704,5.854101 13.539802,5.854101 13.539802,5.770801 14.037041,5.770801" style="fill: white" /><polygon type="contour" points="14.298902,5.591901 14.215601,5.591901 14.215601,5.385102 14.2156,5.385102 14.215601,5.357386 14.215603,5.211902 14.215602,5.211902 14.215602,5.094663 14.298902,5.094663" style="fill: white" /><polygon type="contour" points="14.298902,5.854101 14.2156,5.854101 14.215602,5.791019 14.215602,5.770801 14.298902,5.770801" style="fill: white" /><polygon type="contour" points="14.833159,5.854101 14.477802,5.854101 14.477802,5.770801 14.833159,5.770801" style="fill: white" /><polygon type="contour" points="14.69053,6.033003 14.69053,6.033001 14.833064,6.033001 14.83356,6.111474 14.833784,6.223327 14.833052,6.306105 14.833052,6.363062 14.942546,6.362748 14.995231,6.362804 15.023608,6.362794 15.02364,6.37654 15.02364,6.695961 14.998551,6.696007 14.995232,6.696003 14.939168,6.6959 14.833173,6.695947 14.833556,6.793396 14.808771,6.793381 14.775177,6.793322 14.764503,6.793503 14.595796,6.793503 14.555174,6.79326 14.478258,6.79326 14.478258,6.764441 14.478428,6.706126 14.478316,6.608351 14.477734,6.331067 14.478268,6.267517 14.478268,6.239803 14.478996,6.239803 14.477802,6.093572 14.477802,6.033001 14.545646,6.033001" style="fill: white" /><polygon type="contour" points="14.595403,6.971437 14.74458,6.971437 14.833184,6.971002 14.83317,7.049632 14.833166,7.089303 14.833108,7.089303 14.833108,7.351002 14.833093,7.390127 14.833064,7.468601 14.69053,7.468601 14.69053,7.468598 14.538371,7.468601 14.477802,7.468601 14.478268,7.390127 14.478268,7.178502 14.478274,7.178502 14.478265,7.049631 14.477801,6.971002 14.595401,6.971002" style="fill: white" /><polygon type="contour" points="14.298902,6.793396 14.215602,6.793396 14.215602,6.323101 14.215601,6.267517 14.2156,6.239803 14.2156,6.033001 14.298902,6.033001" style="fill: white" /><polygon type="contour" points="14.299606,7.049632 14.297319,7.178502 14.298902,7.178502 14.298902,7.468601 14.215602,7.468601 14.215602,7.178502 14.215603,7.178502 14.215601,7.031932 14.215601,6.971002 14.299989,6.971002" style="fill: white" /><polygon type="contour" points="14.037403,7.049632 14.035117,7.178502 14.0367,7.178502 14.0367,7.261802 14.036166,7.261802 14.037041,7.408032 14.037041,7.468601 13.539802,7.468601 13.539801,7.390127 13.539801,7.178502 13.541383,7.178502 13.539097,7.049632 13.538714,6.971002 13.61726,6.971468 13.6574,6.971468 13.6574,6.972219 13.80182,6.971003 13.8299,6.971003 13.8299,6.971004 13.976484,6.971002 14.038126,6.971002" style="fill: white" /><polygon type="contour" points="13.360902,6.793396 13.277598,6.793396 13.277598,6.033001 13.360902,6.033001" style="fill: white" /><polygon type="contour" points="13.099403,7.049631 13.097113,7.178502 13.098699,7.178502 13.098699,7.261802 13.098697,7.261802 13.0987,7.408031 13.0987,7.468601 12.9811,7.468601 12.9811,7.468599 12.832433,7.468602 12.768743,7.468602 12.70121,7.468601 12.644248,7.468601 12.644647,7.390128 12.644677,7.380283 12.64536,7.261802 12.644846,7.261802 12.644846,7.198643 12.645763,7.089303 12.645093,7.089303 12.645011,7.049631 12.644814,6.971002 12.737102,6.971003 12.808599,6.971003 12.863965,6.971468 12.8919,6.971468 12.8919,6.972201 13.037785,6.971002 13.099788,6.971002" style="fill: white" /><polygon type="contour" points="13.360902,7.468601 13.277598,7.468601 13.277598,6.971002 13.360902,6.971002" style="fill: white" /><polygon type="contour" points="13.360902,7.7308 13.277598,7.7308 13.277598,7.647501 13.360902,7.647501" style="fill: white" /><polygon type="contour" points="13.0987,7.7308 12.643819,7.7308 12.643819,7.647501 13.0987,7.647501" style="fill: white" /><polygon type="contour" points="12.768746,7.909702 12.891899,7.909702 12.8919,7.909705 13.038131,7.9097 13.0987,7.9097 13.0987,8.407302 13.020225,8.406835 12.9811,8.406835 12.9811,8.406134 12.832435,8.407302 12.642847,8.407302 12.642759,8.328415 12.643191,8.201901 12.642892,8.201901 12.642892,8.138503 12.643794,8.030969 12.643059,8.030969 12.643374,7.95897 12.643569,7.9097 12.70053,7.9097" style="fill: white" /><polygon type="contour" points="12.864184,8.848169 12.8919,8.848169 12.8919,8.848899 13.038131,8.847702 13.0987,8.847702 13.098699,8.926642 13.098699,9.266828 13.0987,9.345301 13.020225,9.345302 12.8919,9.345302 12.832433,9.345301 12.641106,9.345301 12.641379,9.266828 12.641823,9.138502 12.641515,9.138502 12.641515,9.075343 12.642432,8.966002 12.641684,8.966002 12.641555,8.895555 12.641827,8.847702 12.8086,8.847702" style="fill: white" /><polygon type="contour" points="13.0987,8.668801 12.642248,8.668801 12.642248,8.606248 12.642417,8.586201 13.0987,8.586201" style="fill: white" /><polygon type="contour" points="13.360902,8.407302 13.277598,8.407302 13.277598,7.9097 13.360902,7.9097" style="fill: white" /><polygon type="contour" points="13.360902,8.668801 13.277598,8.668801 13.277598,8.586201 13.360902,8.586201" style="fill: white" /><polygon type="contour" points="13.360902,9.345301 13.277598,9.345301 13.277598,8.847702 13.360902,8.847702" style="fill: white" /><polygon type="contour" points="13.360902,9.607501 13.277598,9.607501 13.277598,9.524201 13.360902,9.524201" style="fill: white" /><polygon type="contour" points="13.0987,9.607501 12.640618,9.607501 12.640604,9.576759 12.640604,9.555464 12.640404,9.526825 12.640618,9.524201 13.0987,9.524201" style="fill: white" /><polygon type="contour" points="13.098699,9.864875 13.098699,10.076502 13.098697,10.076502 13.0987,10.223432 13.0987,10.284002 13.020226,10.283534 12.9811,10.283534 12.9811,10.282833 12.832433,10.284001 12.808601,10.284002 12.808601,10.284 12.699512,10.284002 12.641827,10.284002 12.641845,10.205061 12.641683,10.165701 12.641684,10.165701 12.641684,10.013343 12.641515,9.993202 12.641824,9.993202 12.641272,9.834255 12.641106,9.786401 12.7363,9.786402 12.8919,9.786402 12.8919,9.786403 13.03813,9.786401 13.0987,9.786401" style="fill: white" /><polygon type="contour" points="13.360902,10.284002 13.277598,10.284002 13.277598,9.786401 13.360902,9.786401" style="fill: white" /><polygon type="contour" points="13.360902,10.545501 13.277598,10.545501 13.277598,10.462901 13.360902,10.462901" style="fill: white" /><polygon type="contour" points="13.960027,12.338444 14.036942,12.338444 14.036942,12.36702 14.036772,12.424861 14.036884,12.522835 14.037243,12.803624 14.0367,12.864185 14.036699,12.891901 14.036165,12.891901 14.03704,13.038133 14.037041,13.098701 13.958896,13.0987 13.9198,13.0987 13.9198,13.098698 13.774315,13.098701 13.539802,13.098701 13.539801,13.020227 13.539801,12.981101 13.539802,12.981101 13.5398,12.832434 13.5398,12.411075 13.539801,12.338444 13.602102,12.338202 13.919469,12.338202" style="fill: white" /><polygon type="contour" points="14.228311,12.338309 14.298902,12.338309 14.298902,13.098701 14.215601,13.098701 14.215601,13.020227 14.215599,12.945701 14.2156,12.832434 14.215602,12.808601 14.215602,12.338308" style="fill: white" /><polygon type="contour" points="14.298902,12.099771 14.299989,12.160702 14.214513,12.160702 14.214897,12.082072 14.217187,11.953201 14.215602,11.953201 14.215602,11.663104 14.298902,11.663104" style="fill: white" /><polygon type="contour" points="14.833556,12.338309 14.833497,12.351004 14.833171,12.435102 14.939168,12.435802 14.948191,12.435768 14.995232,12.435699 15.02364,12.435741 15.02364,12.755163 15.023608,12.76891 15.002039,12.768833 14.995231,12.768899 14.832681,12.768705 14.833639,12.871759 14.833639,12.980932 14.833082,13.050849 14.833064,13.098701 14.477802,13.098701 14.478268,13.020227 14.478268,12.981101 14.478968,12.981101 14.477801,12.832433 14.477801,12.768745 14.478315,12.522835 14.478417,12.435097 14.478417,12.411075 14.478258,12.338444 14.529206,12.338202 14.764503,12.338202" style="fill: white" /><polygon type="contour" points="14.833186,11.663102 14.833064,11.663103 14.833093,11.741575 14.833101,11.764233 14.833108,11.780702 14.833108,12.042401 14.833166,12.042401 14.833178,12.109895 14.833184,12.160702 14.74458,12.160267 14.595401,12.160267 14.5954,12.160702 14.477801,12.160702 14.478265,12.082072 14.478274,11.953201 14.478268,11.953201 14.478268,11.869902 14.478996,11.869902 14.477802,11.723672 14.477802,11.663104 14.545647,11.663102 14.69053,11.663102 14.69053,11.663101 14.759514,11.663104 14.832738,11.662737" style="fill: white" /><polygon type="contour" points="14.832876,11.467931 14.832876,11.484203 14.477802,11.484203 14.477802,11.400901 14.833159,11.400901" style="fill: white" /><polygon type="contour" points="14.595402,10.725445 14.759514,10.724401 14.83302,10.724402 14.833064,10.724401 14.833146,10.803287 14.833157,10.825914 14.833168,10.84217 14.833058,10.84217 14.833199,10.954623 14.833028,10.970543 14.833168,10.993201 14.833168,11.100736 14.833146,11.14077 14.833064,11.222002 14.477802,11.222002 14.477802,10.724401 14.595402,10.724401" style="fill: white" /><polygon type="contour" points="14.833159,10.482948 14.832864,10.545501 14.477802,10.545501 14.477802,10.462901 14.833159,10.462901" style="fill: white" /><polygon type="contour" points="14.833092,9.864874 14.833101,9.887729 14.833108,9.904171 14.833108,10.013343 14.833257,10.035612 14.833257,10.076502 14.833141,10.076502 14.833092,10.205061 14.833064,10.284002 14.744098,10.283563 14.595404,10.283563 14.595402,10.284001 14.538371,10.284002 14.477802,10.284002 14.478268,10.20506 14.478268,9.993202 14.478996,9.993202 14.477802,9.846971 14.477802,9.786401 14.545646,9.786402 14.69053,9.786402 14.69053,9.786401 14.759514,9.786401 14.833063,9.786025" style="fill: white" /><polygon type="contour" points="14.833159,9.544419 14.832864,9.607501 14.477802,9.607501 14.477802,9.524201 14.833159,9.524201" style="fill: white" /><polygon type="contour" points="14.833092,8.926641 14.833101,8.949337 14.833108,8.966002 14.833108,9.227533 14.833093,9.266828 14.833064,9.345301 14.595402,9.345301 14.595402,9.345302 14.538371,9.345301 14.477802,9.345301 14.478268,9.266829 14.478268,8.926642 14.477802,8.847702 14.595402,8.847702 14.595408,8.848739 14.759514,8.847702 14.833063,8.847701" style="fill: white" /><polygon type="contour" points="14.833061,8.652869 14.833061,8.668801 14.477802,8.668801 14.477802,8.586201 14.833159,8.586201" style="fill: white" /><polygon type="contour" points="14.783506,7.986801 14.833118,7.964095 14.833146,7.990934 14.833157,8.014133 14.833168,8.030969 14.833168,8.138503 14.833028,8.161162 14.83321,8.214289 14.833146,8.328415 14.833064,8.407302 14.744097,8.406864 14.595402,8.406864 14.595402,8.407302 14.477802,8.407302 14.477802,7.9097 14.545646,7.909701 14.595402,7.909701 14.595402,7.909702 14.759514,7.9097 14.783121,7.909582" style="fill: white" /><polygon type="contour" points="14.833428,7.717055 14.833428,7.7308 14.477802,7.7308 14.477802,7.647501 14.833159,7.647501" style="fill: white" /><polygon type="contour" points="14.298902,7.7308 14.215602,7.7308 14.215602,7.647501 14.298902,7.647501" style="fill: white" /><polygon type="contour" points="14.037041,7.7308 13.539802,7.7308 13.539802,7.647501 14.037041,7.647501" style="fill: white" /><polygon type="contour" points="14.037171,7.990933 14.037171,8.328416 14.037041,8.407302 13.958896,8.407301 13.8299,8.407301 13.774314,8.406835 13.746599,8.406835 13.746591,8.406104 13.600369,8.407302 13.539801,8.407302 13.5398,8.328415 13.5398,8.0308 13.539802,7.972073 13.539802,7.9097 13.618273,7.909702 13.8299,7.909702 13.8299,7.909705 13.976833,7.9097 14.037041,7.9097" style="fill: white" /><polygon type="contour" points="14.298902,8.407302 14.215602,8.407302 14.215602,7.9097 14.298902,7.9097" style="fill: white" /><polygon type="contour" points="14.298902,8.668801 14.215602,8.668801 14.215602,8.586201 14.298902,8.586201" style="fill: white" /><polygon type="contour" points="14.037041,8.668801 13.539802,8.668801 13.539802,8.586201 14.037041,8.586201" style="fill: white" /><polygon type="contour" points="14.0367,8.926642 14.0367,9.138502 14.036166,9.138502 14.037041,9.284732 14.037041,9.345301 13.9198,9.345301 13.9198,9.345299 13.774315,9.345302 13.618274,9.345302 13.539802,9.345301 13.539801,9.266828 13.539801,8.926642 13.539802,8.847702 13.618273,8.848169 13.6574,8.848169 13.6574,8.848918 13.802039,8.847703 13.8299,8.847703 13.8299,8.847704 13.976832,8.847702 14.037041,8.847702" style="fill: white" /><polygon type="contour" points="14.298902,9.345301 14.215601,9.345301 14.215602,9.266828 14.215602,8.847702 14.298902,8.847702" style="fill: white" /><polygon type="contour" points="14.298902,9.607501 14.215602,9.607501 14.215602,9.524201 14.298902,9.524201" style="fill: white" /><polygon type="contour" points="14.037041,9.607501 13.539802,9.607501 13.539802,9.524201 14.037041,9.524201" style="fill: white" /><polygon type="contour" points="14.0367,9.864874 14.0367,10.20506 14.037041,10.284002 13.958896,10.284001 13.8299,10.284001 13.774315,10.283534 13.618274,10.283534 13.539802,10.284002 13.539801,10.20506 13.539801,9.904002 13.539802,9.846971 13.539802,9.786401 13.618274,9.786402 13.746599,9.786402 13.802039,9.786403 13.8299,9.786403 13.8299,9.786406 13.976833,9.786401 14.037041,9.786401" style="fill: white" /><polygon type="contour" points="14.298902,10.284002 14.215602,10.284002 14.215602,9.786401 14.298902,9.786401" style="fill: white" /><polygon type="contour" points="14.298902,10.545501 14.215602,10.545501 14.215602,10.462901 14.298902,10.462901" style="fill: white" /><polygon type="contour" points="14.037041,10.545501 13.539802,10.545501 13.539802,10.462901 14.037041,10.462901" style="fill: white" /><polygon type="contour" points="14.037171,10.803286 14.037171,11.100903 14.037041,11.159631 14.037041,11.222002 13.958896,11.222001 13.618274,11.222001 13.539801,11.222002 13.5398,11.14077 13.5398,10.803286 13.539802,10.724401 13.618274,10.724869 13.6574,10.724869 13.6574,10.72562 13.80204,10.724402 13.8299,10.724402 13.8299,10.724403 13.976832,10.724401 14.037041,10.724401" style="fill: white" /><polygon type="contour" points="14.298902,11.222002 14.215602,11.222002 14.215602,10.929803 14.215603,10.929803 14.215601,10.784971 14.215601,10.724401 14.298902,10.724401" style="fill: white" /><polygon type="contour" points="14.298902,11.484203 14.215602,11.484203 14.215602,11.400901 14.298902,11.400901" style="fill: white" /><polygon type="contour" points="14.037041,11.484203 13.539802,11.484203 13.539802,11.400901 14.037041,11.400901" style="fill: white" /><polygon type="contour" points="13.802039,11.663103 13.919799,11.663103 13.976832,11.663104 14.037041,11.663104 14.0367,11.741574 14.0367,12.042401 14.036699,12.082071 14.037038,12.160702 13.959204,12.160701 13.8299,12.160701 13.774534,12.160236 13.617963,12.160236 13.539801,12.160702 13.539801,11.780702 13.539802,11.723673 13.539802,11.663104 13.618273,11.663102 13.746599,11.663102" style="fill: white" /><polygon type="contour" points="13.360902,11.484203 13.277598,11.484203 13.277598,11.400901 13.360902,11.400901" style="fill: white" /><polygon type="contour" points="13.360902,11.222002 13.277598,11.222002 13.277598,10.724401 13.360902,10.724401" style="fill: white" /><polygon type="contour" points="13.0987,11.222002 13.020225,11.222001 12.643737,11.222001 12.643539,11.220157 12.643221,11.140769 12.643226,11.129667 12.643059,11.100736 12.643794,11.100736 12.642892,10.993201 12.642892,10.84217 12.643089,10.772254 12.642846,10.724401 12.7367,10.724402 12.808601,10.724402 12.864185,10.724869 12.891899,10.724869 12.891908,10.7256 13.03813,10.724401 13.0987,10.724401" style="fill: white" /><polygon type="contour" points="13.0987,11.484203 12.643819,11.484203 12.643819,11.400901 13.0987,11.400901" style="fill: white" /><polygon type="contour" points="13.038131,11.663104 13.0987,11.663104 13.098699,11.741575 13.098699,11.953201 13.097113,11.953201 13.099403,12.082072 13.099787,12.160702 13.021238,12.160236 12.9811,12.160236 12.9811,12.159534 12.832634,12.160702 12.644814,12.160702 12.645011,12.082072 12.645093,12.0424 12.645763,12.042404 12.644846,11.933059 12.644846,11.869902 12.645299,11.869902 12.644489,11.710673 12.644248,11.663104 12.737101,11.663103 12.8086,11.663103 12.864184,11.663102 12.981099,11.663102" style="fill: white" /><polygon type="contour" points="13.360902,12.099771 13.361989,12.160702 13.277598,12.160702 13.277598,11.663104 13.360902,11.663104" style="fill: white" /><polygon type="contour" points="13.021783,12.338444 13.0987,12.338444 13.0987,12.36702 13.098701,12.42629 13.0987,12.522835 13.098697,12.808601 13.098698,12.808601 13.098232,12.864186 13.098232,12.891901 13.0975,12.891901 13.0987,13.038132 13.0987,13.098701 13.020225,13.098234 12.9811,13.098234 12.9811,13.097533 12.832432,13.098701 12.768744,13.098701 12.522833,13.098702 12.338441,13.098702 12.338199,13.036397 12.338199,12.72087 12.338346,12.678065 12.338306,12.671381 12.338306,12.645749 12.351001,12.645698 12.438953,12.645793 12.479806,12.645153 12.642747,12.642685 12.644853,12.490354 12.645021,12.475804 12.645434,12.453763 12.645702,12.438807 12.645785,12.417209 12.645748,12.338309 12.67138,12.338309 12.678064,12.338349 12.720869,12.338202 12.981099,12.338202" style="fill: white" /><polygon type="contour" points="13.360902,14.833161 13.277598,14.833161 13.277598,14.477803 13.360902,14.477803" style="fill: white" /><polygon type="contour" points="12.864184,14.478269 12.8919,14.478269 12.8919,14.478997 13.03813,14.477803 13.0987,14.477803 13.0987,14.595403 13.098697,14.595403 13.0987,14.759517 13.0987,14.833067 13.020226,14.833562 12.8919,14.833505 12.8919,14.83364 12.825596,14.833054 12.768639,14.833054 12.768953,14.94255 12.768897,14.995234 12.768907,15.02361 12.755162,15.023642 12.435739,15.023642 12.435692,14.998553 12.435697,14.995233 12.4358,14.939171 12.435761,14.833172 12.338307,14.833559 12.338322,14.808775 12.338381,14.775179 12.3382,14.755537 12.3382,14.746615 12.338197,14.596082 12.338441,14.555175 12.338441,14.47826 12.367017,14.47826 12.42487,14.47843 12.522833,14.478318 12.800635,14.477735" style="fill: white" /><polygon type="contour" points="13.0987,14.298903 12.338306,14.298903 12.338306,14.215603 13.0987,14.215603" style="fill: white" /><polygon type="contour" points="13.360902,14.037042 13.277598,14.037042 13.277598,13.539803 13.360902,13.539803" style="fill: white" /><polygon type="contour" points="13.360902,14.298903 13.277598,14.298903 13.277598,14.215603 13.360902,14.215603" style="fill: white" /><polygon type="contour" points="14.833159,14.298903 14.477802,14.298903 14.477802,14.215603 14.833159,14.215603" style="fill: white" /><polygon type="contour" points="14.595402,14.477803 14.833064,14.477803 14.832945,14.545647 14.832921,14.690648 14.953405,14.690391 14.995232,14.690399 15.023608,14.690408 15.023374,14.926267 15.023415,14.944526 15.023415,15.023418 14.802264,15.023649 14.774311,15.023649 14.690517,15.023721 14.690517,14.908626 14.690583,14.88621 14.690577,14.833789 14.525442,14.832925 14.477802,14.833067 14.477801,14.728462 14.477801,14.595403 14.4778,14.595403 14.477802,14.538371 14.477802,14.477802 14.595402,14.477802" style="fill: white" /><polygon type="contour" points="14.298902,14.833161 14.215602,14.833161 14.215602,14.477803 14.298902,14.477803" style="fill: white" /><polygon type="contour" points="14.037105,14.545647 14.037105,14.595402 14.036229,14.595402 14.037041,14.759518 14.037041,14.833067 13.958897,14.833302 13.919628,14.833344 13.809638,14.833344 13.657569,14.832779 13.657569,14.83311 13.587654,14.833083 13.539802,14.833067 13.539801,14.728462 13.539801,14.690535 13.539802,14.690535 13.539802,14.477803 13.618273,14.478269 13.6574,14.478269 13.6574,14.479018 13.802039,14.477803 14.037041,14.477803" style="fill: white" /><polygon type="contour" points="14.037041,14.298903 13.539802,14.298903 13.539802,14.215603 14.037041,14.215603" style="fill: white" /><polygon type="contour" points="14.298902,14.298903 14.215602,14.298903 14.215602,14.215603 14.298902,14.215603" style="fill: white" /><polygon type="contour" points="14.298902,14.037042 14.215602,14.037042 14.215602,13.919802 14.215603,13.919802 14.215601,13.774317 14.215599,13.736081 14.215602,13.600372 14.215602,13.539803 14.298902,13.539803" style="fill: white" /><polygon type="contour" points="14.833093,13.618274 14.832832,13.746602 14.833108,13.746602 14.833108,13.766743 14.833511,13.874829 14.833082,13.989548 14.833064,14.037042 14.744098,14.036702 14.69053,14.036702 14.690529,14.036134 14.538371,14.037042 14.477802,14.037042 14.477801,13.958898 14.477801,13.829902 14.478268,13.774317 14.478268,13.746602 14.478996,13.746602 14.477802,13.600372 14.477802,13.539803 14.833064,13.539803" style="fill: white" /><polygon type="contour" points="14.833159,13.360903 14.477802,13.360903 14.477802,13.2776 14.833159,13.2776" style="fill: white" /><polygon type="contour" points="14.298902,13.360903 14.215602,13.360903 14.215602,13.2776 14.298902,13.2776" style="fill: white" /><polygon type="contour" points="14.0367,13.618275 14.0367,13.657402 14.035949,13.657402 14.037165,13.802041 14.037169,13.918353 14.037041,13.976834 14.037041,14.037042 13.958896,14.037167 13.8299,14.037167 13.774315,14.036702 13.618274,14.036702 13.539802,14.037042 13.539802,13.919802 13.539803,13.919802 13.539801,13.774316 13.539801,13.618275 13.539802,13.539803 14.037041,13.539803" style="fill: white" /><polygon type="contour" points="14.037041,13.360903 13.539802,13.360903 13.539802,13.2776 14.037041,13.2776" style="fill: white" /><polygon type="contour" points="13.360902,13.098701 13.277598,13.098701 13.277598,12.338309 13.360902,12.338309" style="fill: white" /><polygon type="contour" points="13.360902,13.360903 13.277598,13.360903 13.277598,13.2776 13.360902,13.2776" style="fill: white" /><polygon type="contour" points="12.794213,13.277601 12.864184,13.2776 13.0987,13.2776 13.0987,13.360903 12.338306,13.360903 12.338306,13.2776 12.670333,13.2776" style="fill: white" /><polygon type="contour" points="12.768743,13.539803 13.0987,13.539803 13.098699,13.618275 13.098699,13.829902 13.098697,13.829902 13.0987,13.976833 13.0987,14.037042 13.020225,14.036702 12.9811,14.036702 12.9811,14.035952 12.832432,14.037202 12.768743,14.037202 12.522834,14.036886 12.435096,14.036785 12.411074,14.036785 12.338441,14.036944 12.338199,13.974996 12.338199,13.657402 12.338441,13.616718 12.338441,13.539802 12.367017,13.539803 12.420884,13.539802 12.522833,13.539802" style="fill: white" /><polygon type="contour" points="12.160701,13.36199 12.08207,13.361607 11.9532,13.35932 11.9532,13.360903 11.6631,13.360903 11.6631,13.2776 12.09977,13.2776 12.160701,13.276513" style="fill: white" /><polygon type="contour" points="12.160235,13.617966 12.160235,13.657402 12.159483,13.657402 12.1607,13.801822 12.1607,13.829902 12.160698,13.829902 12.160701,13.976485 12.160701,14.038127 12.08207,14.037405 11.9532,14.035119 11.9532,14.036702 11.741574,14.036702 11.6631,14.037042 11.663101,13.958898 11.663101,13.746602 11.663102,13.746602 11.6631,13.600372 11.6631,13.539803 12.09977,13.539803 12.160701,13.539802" style="fill: white" /><polygon type="contour" points="12.160701,14.299991 12.08207,14.299606 11.9532,14.29732 11.9532,14.298903 11.6631,14.298903 11.6631,14.215603 12.160701,14.215603" style="fill: white" /><polygon type="contour" points="12.1607,14.545308 12.1607,14.595403 12.16019,14.595406 12.160187,14.728852 12.160699,14.833186 12.082069,14.833172 12.0424,14.833168 12.0424,14.83311 11.780701,14.83311 11.741573,14.833095 11.6631,14.833067 11.663101,14.728461 11.663101,14.595403 11.6631,14.595403 11.6631,14.477803 11.741574,14.478269 11.9532,14.478269 11.9532,14.478993 12.09977,14.477803 12.160701,14.477803" style="fill: white" /><polygon type="contour" points="11.4842,14.833161 11.400899,14.833161 11.400899,14.477803 11.4842,14.477803" style="fill: white" /><polygon type="contour" points="11.221999,14.545647 11.221999,14.690535 11.222,14.690535 11.222,14.759517 11.222001,14.832894 11.222001,14.832982 11.222,14.833067 11.140767,14.833149 11.117569,14.83316 11.100732,14.83317 11.003567,14.83317 10.992713,14.833029 10.960268,14.8332 10.951974,14.83303 10.940168,14.83317 10.842168,14.83317 10.803285,14.833149 10.724399,14.833067 10.724915,14.728462 10.724915,14.595406 10.724399,14.595402 10.724399,14.477803 11.222,14.477803" style="fill: white" /><polygon type="contour" points="11.222,14.298903 10.724399,14.298903 10.724399,14.215603 11.222,14.215603" style="fill: white" /><polygon type="contour" points="11.4842,14.298903 11.400899,14.298903 11.400899,14.215603 11.4842,14.215603" style="fill: white" /><polygon type="contour" points="11.4842,14.037042 11.400899,14.037042 11.400899,13.539803 11.4842,13.539803" style="fill: white" /><polygon type="contour" points="11.222,13.539802 11.222,13.746602 11.221999,13.802041 11.221999,13.829902 11.221997,13.829902 11.222,13.976833 11.222,14.037042 11.140767,14.037172 10.803284,14.037172 10.724399,14.037042 10.724401,13.958898 10.724401,13.829902 10.724867,13.774316 10.724867,13.746602 10.725598,13.746602 10.724399,13.600371 10.724399,13.539803 10.803285,13.539802 10.842001,13.539802 10.842001,13.539803 10.985677,13.539801 11.140768,13.539801" style="fill: white" /><polygon type="contour" points="11.222,13.360903 10.724399,13.360903 10.724399,13.2776 11.222,13.2776" style="fill: white" /><polygon type="contour" points="11.4842,13.360903 11.400899,13.360903 11.400899,13.2776 11.4842,13.2776" style="fill: white" /><polygon type="contour" points="11.4842,13.098701 11.400899,13.098701 11.400899,12.64382 11.4842,12.64382" style="fill: white" /><polygon type="contour" points="10.929801,12.64319 10.929801,12.642893 10.9932,12.642893 11.100733,12.6438 11.100733,12.643061 11.192198,12.643642 11.221999,12.643738 11.221999,12.808601 11.222,12.864185 11.222,13.098701 10.724399,13.098701 10.724867,13.020227 10.724867,12.981101 10.725567,12.981101 10.7244,12.832433 10.7244,12.768745 10.724399,12.700533 10.724399,12.642848 10.803284,12.642761" style="fill: white" /><polygon type="contour" points="10.545499,12.642419 10.545499,13.098701 10.462899,13.098701 10.462899,12.642249 10.525451,12.642249" style="fill: white" /><polygon type="contour" points="9.864872,12.64138 9.993201,12.641825 9.993201,12.641517 10.056359,12.641517 10.165701,12.642434 10.165701,12.641686 10.254053,12.641794 10.283999,12.641948 10.283999,12.808601 10.283533,12.864186 10.283533,12.891901 10.282802,12.891901 10.284,13.038133 10.284,13.098701 9.786399,13.098701 9.786401,13.020228 9.786401,12.981101 9.786402,12.981101 9.7864,12.832434 9.7864,12.768745 9.786399,12.699514 9.786399,12.641109" style="fill: white" /><polygon type="contour" points="9.607499,12.64062 9.607499,13.098701 9.524199,13.098701 9.524199,12.64062 9.555462,12.640607 9.576757,12.640607 9.604918,12.640406" style="fill: white" /><polygon type="contour" points="9.3453,12.8086 9.345299,12.864185 9.345299,13.098701 8.8477,13.098701 8.848167,13.020227 8.848167,12.981101 8.848867,12.981101 8.8477,12.832433 8.8477,12.641829 8.926639,12.641846 8.966,12.641685 8.966,12.641686 9.118357,12.641686 9.138499,12.641517 9.138499,12.64192 9.315026,12.641119 9.3453,12.641027" style="fill: white" /><polygon type="contour" points="9.607499,13.360903 9.524199,13.360903 9.524199,13.2776 9.607499,13.2776" style="fill: white" /><polygon type="contour" points="9.345299,13.360903 8.8477,13.360903 8.8477,13.2776 9.345299,13.2776" style="fill: white" /><polygon type="contour" points="9.345299,13.657402 9.345297,13.657402 9.3453,13.802041 9.3453,13.919801 9.345299,13.976833 9.345299,14.037042 9.266825,14.036702 8.926639,14.036702 8.8477,14.037042 8.8477,13.829901 8.848167,13.774316 8.848167,13.746602 8.848897,13.746602 8.8477,13.600371 8.8477,13.539803 9.345299,13.539803" style="fill: white" /><polygon type="contour" points="9.607499,14.037042 9.524199,14.037042 9.524199,13.539803 9.607499,13.539803" style="fill: white" /><polygon type="contour" points="9.607499,14.298903 9.524199,14.298903 9.524199,14.215603 9.607499,14.215603" style="fill: white" /><polygon type="contour" points="9.345299,14.298903 8.8477,14.298903 8.8477,14.215603 9.345299,14.215603" style="fill: white" /><polygon type="contour" points="9.3453,14.545647 9.3453,14.595403 9.345299,14.595403 9.345299,14.759517 9.3453,14.832979 9.3453,14.833024 9.345299,14.833067 9.266826,14.833095 9.244166,14.833103 9.22753,14.83311 9.22753,14.832787 9.113679,14.833199 9.09761,14.833258 9.075341,14.83311 8.966,14.83311 8.92664,14.833096 8.8477,14.833067 8.848214,14.728462 8.848214,14.595406 8.8477,14.595403 8.8477,14.477803 8.92664,14.478269 9.0552,14.478269 9.110783,14.47827 9.266825,14.47827 9.345299,14.477803" style="fill: white" /><polygon type="contour" points="8.668799,14.833162 8.648751,14.833161 8.5862,14.833161 8.5862,14.477803 8.668799,14.477803" style="fill: white" /><polygon type="contour" points="8.4073,14.545647 8.4073,14.595403 8.406073,14.595403 8.407301,14.759518 8.407301,14.833067 8.328414,14.833149 8.30598,14.833161 8.289532,14.833169 8.289531,14.833064 8.177079,14.8332 8.161159,14.83303 8.138501,14.83317 8.030967,14.83317 7.990931,14.833148 7.909699,14.833067 7.9097,14.728462 7.9097,14.690535 7.909701,14.690535 7.909699,14.538371 7.909699,14.477803 8.407301,14.477803" style="fill: white" /><polygon type="contour" points="8.407301,14.298903 7.909699,14.298903 7.909699,14.215603 8.407301,14.215603" style="fill: white" /><polygon type="contour" points="8.668799,14.298903 8.5862,14.298903 8.5862,14.215603 8.668799,14.215603" style="fill: white" /><polygon type="contour" points="8.668799,14.037042 8.5862,14.037042 8.5862,13.539803 8.668799,13.539803" style="fill: white" /><polygon type="contour" points="7.4686,12.8086 7.468599,12.864185 7.468599,12.891901 7.468597,12.891901 7.4686,13.038132 7.4686,13.098701 7.03193,13.098701 6.971,13.099789 6.971465,13.021241 6.971465,12.981101 6.972163,12.981101 6.971001,12.832635 6.971001,12.70138 6.971,12.644816 7.049628,12.645014 7.089299,12.645095 7.089296,12.645766 7.198641,12.644849 7.2618,12.644849 7.2618,12.645305 7.421028,12.644491 7.4686,12.644248" style="fill: white" /><polygon type="contour" points="6.793394,13.277601 6.793394,13.360903 6.323099,13.360903 6.267515,13.360904 6.150601,13.360904 6.093569,13.360903 6.032998,13.360903 6.032998,13.2776 6.111473,13.277601 6.150601,13.277601 6.150601,13.277602 6.299266,13.2776 6.71382,13.2776" style="fill: white" /><polygon type="contour" points="6.793502,13.602105 6.793502,13.91947 6.793258,13.960028 6.793258,14.036944 6.764439,14.036944 6.706122,14.036773 6.608349,14.036885 6.328091,14.037246 6.267515,14.036702 6.2398,14.036702 6.2398,14.036167 6.093569,14.037042 6.032998,14.037042 6.033,13.958898 6.033,13.919802 6.033001,13.919802 6.032999,13.774316 6.032999,13.746602 6.033,13.746602 6.032998,13.600372 6.032998,13.539803 6.362955,13.539803 6.608349,13.539802 6.793258,13.539802" style="fill: white" /><polygon type="contour" points="7.049629,13.539099 7.1785,13.541385 7.1785,13.539803 7.4686,13.539803 7.468599,13.618276 7.468599,13.829902 7.468597,13.829902 7.4686,13.976833 7.4686,14.037042 7.390126,14.036702 7.1785,14.036702 7.1785,14.036173 7.031931,14.037042 6.971,14.038128 6.971,13.829902 6.971465,13.774536 6.971465,13.746602 6.972196,13.746602 6.971,13.600717 6.971,13.538715" style="fill: white" /><polygon type="contour" points="7.4686,13.360903 6.971,13.360903 6.971,13.2776 7.4686,13.2776" style="fill: white" /><polygon type="contour" points="7.730799,13.360903 7.6475,13.360903 7.6475,13.2776 7.730799,13.2776" style="fill: white" /><polygon type="contour" points="7.730799,13.098701 7.6475,13.098701 7.6475,12.64382 7.730799,12.64382" style="fill: white" /><polygon type="contour" points="8.359446,12.643092 8.407301,12.642848 8.4073,12.736701 8.4073,12.808601 8.406832,12.864185 8.406832,12.891901 8.406098,12.891901 8.407301,13.038133 8.407301,13.0987 8.328413,13.098702 8.201899,13.098702 8.146023,13.098701 7.909699,13.098701 7.9097,13.020227 7.9097,12.768746 7.909699,12.700533 7.909699,12.643569 7.958969,12.643375 8.030967,12.643061 8.181998,12.643061 8.223995,12.642706" style="fill: white" /><polygon type="contour" points="8.668799,13.098701 8.5862,13.098701 8.5862,12.642419 8.606246,12.642249 8.668799,12.642249" style="fill: white" /><polygon type="contour" points="8.668799,13.360903 8.5862,13.360903 8.5862,13.2776 8.668799,13.2776" style="fill: white" /><polygon type="contour" points="8.407301,13.360903 7.909699,13.360903 7.909699,13.2776 8.407301,13.2776" style="fill: white" /><polygon type="contour" points="8.174475,13.539802 8.289699,13.539802 8.34673,13.539803 8.407301,13.539803 8.406832,13.618274 8.406832,13.657401 8.40608,13.657401 8.407299,13.802041 8.407299,13.829902 8.407295,13.829902 8.407301,13.976834 8.407301,14.037042 8.328414,14.037172 8.030799,14.037172 7.97207,14.037042 7.909699,14.037042 7.9097,13.958897 7.9097,13.746602 7.909701,13.746602 7.909699,13.600372 7.909699,13.539803 7.990931,13.539801 8.1186,13.539801" style="fill: white" /><polygon type="contour" points="7.730799,14.037042 7.6475,14.037042 7.6475,13.539803 7.730799,13.539803" style="fill: white" /><polygon type="contour" points="7.730799,14.298903 7.6475,14.298903 7.6475,14.215603 7.730799,14.215603" style="fill: white" /><polygon type="contour" points="7.4686,14.298903 6.971,14.298903 6.971,14.215603 7.4686,14.215603" style="fill: white" /><polygon type="contour" points="7.049629,14.477563 7.1785,14.479856 7.1785,14.478269 7.390126,14.478269 7.4686,14.477803 7.468599,14.545648 7.468599,14.595403 7.468597,14.595403 7.468599,14.733388 7.3688,14.733388 7.3688,14.833102 7.367467,14.833103 7.350999,14.83311 7.0893,14.83311 7.0893,14.833168 7.021807,14.83318 6.971001,14.833186 6.971513,14.728852 6.971513,14.595403 6.971,14.595403 6.971,14.476715" style="fill: white" /><polygon type="contour" points="6.793394,14.298903 6.032998,14.298903 6.032998,14.215603 6.793394,14.215603" style="fill: white" /><polygon type="contour" points="6.608348,14.478318 6.695984,14.478419 6.720005,14.478419 6.793258,14.47826 6.793502,14.529208 6.793502,14.690689 6.793501,14.746616 6.793378,14.808773 6.793393,14.833559 6.78059,14.8335 6.695944,14.833174 6.695899,14.939171 6.695933,14.948194 6.696001,14.995233 6.695957,15.023642 6.376537,15.023644 6.362792,15.023612 6.362868,15.002043 6.362801,14.995234 6.362996,14.832683 6.259941,14.833641 6.150769,14.833641 6.080853,14.833085 6.032998,14.833067 6.032999,14.728461 6.032999,14.690535 6.033,14.690535 6.032998,14.538371 6.032998,14.477803 6.111472,14.478269 6.150601,14.478269 6.150601,14.478969 6.299267,14.477802 6.362955,14.477802" style="fill: white" /><polygon type="contour" points="5.854098,14.833161 5.770798,14.833161 5.770798,14.477803 5.854098,14.477803" style="fill: white" /><polygon type="contour" points="4.9161,14.833161 4.832799,14.833161 4.832799,14.477803 4.9161,14.477803" style="fill: white" /><polygon type="contour" points="5.357385,14.478269 5.513425,14.478269 5.591899,14.477803 5.591899,14.833067 5.513425,14.833096 5.47413,14.83311 5.474131,14.832779 5.322061,14.833344 5.232195,14.833344 5.141941,14.832926 5.094661,14.833067 5.095,14.728462 5.095,14.595405 5.094596,14.595402 5.094661,14.538372 5.094661,14.477803 5.301799,14.477803" style="fill: white" /><polygon type="contour" points="5.854098,14.037042 5.770798,14.037042 5.770798,13.539803 5.854098,13.539803" style="fill: white" /><polygon type="contour" points="5.854098,14.298903 5.770798,14.298903 5.770798,14.215603 5.854098,14.215603" style="fill: white" /><polygon type="contour" points="5.591899,14.298903 5.094661,14.298903 5.094661,14.215603 5.591899,14.215603" style="fill: white" /><polygon type="contour" points="5.591899,14.037042 5.513425,14.036702 5.4743,14.036702 5.4743,14.035953 5.329659,14.037167 5.211899,14.037167 5.154868,14.037042 5.094661,14.037042 5.094534,13.958898 5.094534,13.829902 5.095,13.774316 5.095,13.746602 5.09553,13.746602 5.094661,13.600372 5.094661,13.539803 5.591899,13.539803" style="fill: white" /><polygon type="contour" points="5.591899,13.360903 5.094661,13.360903 5.094661,13.2776 5.591899,13.2776" style="fill: white" /><polygon type="contour" points="5.854098,13.360903 5.770798,13.360903 5.770798,13.2776 5.854098,13.2776" style="fill: white" /><polygon type="contour" points="5.854098,13.098701 5.770798,13.098701 5.770798,12.338309 5.854098,12.338309" style="fill: white" /><polygon type="contour" points="5.514983,12.338444 5.591899,12.338444 5.591899,13.098701 5.3851,13.098701 5.329659,13.0987 5.301799,13.0987 5.301799,13.098698 5.15487,13.098701 5.094661,13.098701 5.095,13.020227 5.095,12.981101 5.095746,12.981101 5.094502,12.832433 5.094502,12.768746 5.094815,12.522835 5.094917,12.435097 5.094917,12.411075 5.094758,12.338443 5.156703,12.338202 5.474299,12.338202" style="fill: white" /><polygon type="contour" points="5.854098,12.160702 5.770798,12.160702 5.770798,11.663104 5.854098,11.663104" style="fill: white" /><polygon type="contour" points="6.453635,12.338349 6.460319,12.338309 6.485952,12.338309 6.486003,12.351005 6.485909,12.438985 6.486549,12.479807 6.488953,12.642749 6.641345,12.644856 6.656898,12.645024 6.658737,12.645191 6.677935,12.645437 6.696965,12.645788 6.780592,12.645698 6.793394,12.645749 6.793394,12.671381 6.793354,12.678065 6.793502,12.720871 6.793502,12.981101 6.793258,13.021785 6.793258,13.098702 6.608349,13.098702 6.3231,13.0987 6.267515,13.098234 6.2398,13.098234 6.2398,13.097503 6.093568,13.098701 6.032998,13.098701 6.033467,13.020228 6.033467,12.981101 6.034167,12.981101 6.033,12.832434 6.033,12.411075 6.032998,12.338444 6.095302,12.338202 6.410828,12.338202" style="fill: white" /><polygon type="contour" points="6.430489,11.663104 6.487453,11.663104 6.487054,11.741575 6.486401,11.869903 6.486855,11.869903 6.486855,11.933059 6.486283,12.000797 6.486852,12.073887 6.486909,12.110586 6.486887,12.160702 6.3231,12.160702 6.267733,12.160236 6.2398,12.160236 6.2398,12.159502 6.093914,12.160702 6.03191,12.160702 6.032294,12.082072 6.034584,11.953201 6.032999,11.953201 6.032999,11.869902 6.033,11.869902 6.032998,11.723673 6.032998,11.663104 6.111472,11.663102 6.362954,11.663102" style="fill: white" /><polygon type="contour" points="6.487881,11.484203 6.032998,11.484203 6.032998,11.400901 6.111473,11.400902 6.150601,11.400902 6.150601,11.400903 6.299266,11.400901 6.487881,11.400901" style="fill: white" /><polygon type="contour" points="6.488941,10.803286 6.488511,10.929803 6.488809,10.929803 6.488809,10.993202 6.487901,11.100736 6.488641,11.100736 6.488058,11.192201 6.487963,11.222001 6.2398,11.222001 6.2398,11.221999 6.093569,11.222002 6.032998,11.222002 6.032999,11.140769 6.032999,10.803287 6.032998,10.724401 6.111472,10.724869 6.150601,10.724869 6.1506,10.725569 6.299267,10.724402 6.362955,10.724402 6.431167,10.724401 6.488854,10.724401" style="fill: white" /><polygon type="contour" points="6.489453,10.525453 6.489283,10.545501 6.032998,10.545501 6.032998,10.462901 6.489453,10.462901" style="fill: white" /><polygon type="contour" points="5.854098,10.545501 5.770798,10.545501 5.770798,10.462901 5.854098,10.462901" style="fill: white" /><polygon type="contour" points="5.854098,10.284002 5.770798,10.284002 5.770798,9.786401 5.854098,9.786401" style="fill: white" /><polygon type="contour" points="5.591899,10.284002 5.513425,10.283534 5.4743,10.283534 5.4743,10.282782 5.329659,10.284001 5.301799,10.284001 5.301799,10.283999 5.154869,10.284002 5.094661,10.284002 5.095,10.205061 5.095,9.993202 5.09553,9.993202 5.094661,9.846971 5.094661,9.786401 5.172802,9.786403 5.211898,9.786403 5.211898,9.786404 5.357384,9.786402 5.513425,9.786402 5.591899,9.786401" style="fill: white" /><polygon type="contour" points="5.591899,10.545501 5.094661,10.545501 5.094661,10.462901 5.591899,10.462901" style="fill: white" /><polygon type="contour" points="5.591899,11.222002 5.513425,11.222001 5.301798,11.222001 5.301798,11.221999 5.15487,11.222002 5.094661,11.222002 5.094531,11.140769 5.094531,11.100903 5.094532,11.100903 5.09453,10.957226 5.09453,10.803287 5.094661,10.724401 5.172803,10.724402 5.301799,10.724402 5.357385,10.724869 5.3851,10.724869 5.385108,10.7256 5.53133,10.724401 5.591899,10.724401" style="fill: white" /><polygon type="contour" points="5.854098,11.222002 5.770798,11.222002 5.770798,10.724401 5.854098,10.724401" style="fill: white" /><polygon type="contour" points="5.854098,11.484203 5.770798,11.484203 5.770798,11.400901 5.854098,11.400901" style="fill: white" /><polygon type="contour" points="5.591899,11.663104 5.591899,11.953201 5.590316,11.953201 5.592602,12.082071 5.592987,12.160702 5.51444,12.160236 5.4743,12.160236 5.4743,12.159484 5.329878,12.160701 5.301799,12.160701 5.301799,12.160699 5.155216,12.160702 5.093574,12.160702 5.094294,12.082072 5.096585,11.953201 5.095,11.953201 5.095,11.869902 5.09553,11.869902 5.094661,11.723672 5.094661,11.663104 5.172803,11.663103 5.211898,11.663103 5.211898,11.663104 5.357384,11.663102 5.513426,11.663102" style="fill: white" /><polygon type="contour" points="5.591899,11.484203 5.094661,11.484203 5.094661,11.400901 5.591899,11.400901" style="fill: white" /><polygon type="contour" points="4.916101,11.421119 4.9161,11.484203 4.832799,11.484203 4.832799,11.400901 4.916101,11.400901" style="fill: white" /><polygon type="contour" points="4.9161,11.159631 4.916101,11.222002 4.832799,11.222002 4.832799,10.724401 4.9161,10.724401" style="fill: white" /><polygon type="contour" points="4.653899,11.222002 4.348327,11.222002 4.348327,11.196898 4.29861,11.196603 4.298553,11.140769 4.298542,11.117571 4.298533,11.100736 4.298533,10.993202 4.298672,10.970542 4.298455,10.90698 4.298616,10.772255 4.298634,10.724401 4.3876,10.72484 4.536296,10.72484 4.536299,10.724401 4.653899,10.724401" style="fill: white" /><polygon type="contour" points="4.653899,11.484203 4.298542,11.484203 4.298542,11.463984 4.298305,11.400901 4.653899,11.400901" style="fill: white" /><polygon type="contour" points="4.59333,11.663104 4.653899,11.663104 4.653432,11.741574 4.653432,11.953201 4.653425,11.953201 4.653435,12.082072 4.6539,12.160702 4.536298,12.160702 4.536296,12.160267 4.387119,12.160267 4.298515,12.160702 4.298529,12.082071 4.298534,12.042401 4.29859,12.042401 4.298593,11.890044 4.298593,11.780702 4.298608,11.741574 4.298636,11.663104 4.387601,11.663101 4.507783,11.663101" style="fill: white" /><polygon type="contour" points="4.9161,11.953201 4.916098,11.953201 4.916101,12.099771 4.916101,12.160702 4.831712,12.160702 4.832095,12.082071 4.834381,11.953201 4.832799,11.953201 4.832799,11.663104 4.9161,11.663104" style="fill: white" /><polygon type="contour" points="4.576525,12.338444 4.653442,12.338444 4.653442,12.36702 4.65327,12.424853 4.653383,12.522834 4.653965,12.800622 4.653433,12.864186 4.653432,12.891901 4.652701,12.891901 4.653899,13.038133 4.653899,13.098701 4.298635,13.098701 4.29814,13.020228 4.297915,12.908376 4.298648,12.825598 4.298648,12.768639 4.189153,12.768956 4.136467,12.768899 4.108092,12.76891 4.10806,12.755163 4.10806,12.435741 4.133148,12.435694 4.136468,12.435699 4.19253,12.435802 4.298529,12.435763 4.298142,12.338309 4.322925,12.338323 4.356521,12.338382 4.367196,12.338202 4.535903,12.338202 4.535903,12.338201" style="fill: white" /><polygon type="contour" points="4.44117,13.277602 4.593329,13.2776 4.653899,13.2776 4.653899,13.360903 4.298542,13.360903 4.298542,13.2776 4.44117,13.2776" style="fill: white" /><polygon type="contour" points="4.9161,13.038133 4.916101,13.098701 4.832799,13.098701 4.832799,12.832434 4.832801,12.768746 4.832799,12.768746 4.832799,12.338309 4.9161,12.338309" style="fill: white" /><polygon type="contour" points="4.9161,13.340684 4.9161,13.360903 4.832799,13.360903 4.832799,13.2776 4.916101,13.2776" style="fill: white" /><polygon type="contour" points="4.653432,13.618274 4.653432,13.657402 4.65268,13.657402 4.653899,13.802042 4.653899,14.037042 4.586053,14.036702 4.536299,14.036702 4.536299,14.036235 4.372184,14.037042 4.298636,14.037042 4.298399,13.958898 4.298281,13.850304 4.298592,13.766744 4.298592,13.657571 4.298616,13.587656 4.298636,13.539803 4.653899,13.539803" style="fill: white" /><polygon type="contour" points="4.9161,14.037042 4.832799,14.037042 4.832799,13.539803 4.9161,13.539803" style="fill: white" /><polygon type="contour" points="4.9161,14.298903 4.832799,14.298903 4.832799,14.215603 4.9161,14.215603" style="fill: white" /><polygon type="contour" points="4.653899,14.298903 4.298542,14.298903 4.298542,14.215603 4.653899,14.215603" style="fill: white" /><polygon type="contour" points="4.593329,14.477803 4.653899,14.477803 4.653899,14.833067 4.586054,14.833352 4.441117,14.833537 4.441117,14.88621 4.441181,15.023721 4.357387,15.023649 4.329432,15.023649 4.108284,15.023418 4.108284,14.944526 4.108325,14.926267 4.108092,14.690408 4.129659,14.690491 4.136467,14.690399 4.298961,14.69062 4.298617,14.525656 4.298636,14.477803 4.536299,14.477803 4.536299,14.477802" style="fill: white" />
</svg>
