<svg width="19.131698" height="19.131699">
<polygon type="contour" points="9.395588,9.341139 9.736111,9.341139 9.790771,9.340931 9.790771,9.350618 9.790561,9.39559 9.790561,9.736113 9.790771,9.790773 9.781084,9.790773 9.73611,9.790564 9.395588,9.790564 9.340929,9.790773 9.340929,9.781085 9.341137,9.736113 9.341137,9.39559 9.340929,9.340931 9.350616,9.340931" style="fill: white" /><polygon type="contour" points="8.938988,9.341139 9.018187,9.341139 9.07222,9.340931 9.07222,9.350618 9.072218,9.39559 9.072218,9.736112 9.07222,9.790773 9.062608,9.790773 9.018187,9.790564 8.938988,9.790564 8.856049,9.790773 8.855735,9.711102 8.687722,9.711102 8.68786,9.682632 8.688855,9.566202 8.688801,9.555284 8.687722,9.420602 8.855735,9.420602 8.856049,9.340931 8.870841,9.340931" style="fill: white" /><polygon type="contour" points="8.906134,8.685635 8.990809,8.687698 8.993265,8.769032 8.993265,8.855735 9.07222,8.85605 9.07222,8.870842 9.072218,8.93899 9.072218,9.018189 9.07222,9.072222 9.062608,9.072222 9.018187,9.072219 8.938988,9.072219 8.856049,9.072222 8.855735,8.993457 8.722303,8.993457 8.703695,8.993519 8.68904,8.993544 8.688651,8.950835 8.683597,8.683599" style="fill: white" /><polygon type="contour" points="9.577624,8.689215 9.673924,8.68912 9.711101,8.689049 9.711101,8.855736 9.790771,8.85605 9.790771,8.870843 9.790561,8.938989 9.790561,9.01819 9.790771,9.072222 9.781084,9.072222 9.73611,9.072219 9.395588,9.072219 9.340929,9.072222 9.340929,9.062609 9.341137,9.01819 9.341137,8.938989 9.340929,8.85605 9.4206,8.855736 9.4206,8.689048 9.457955,8.68912 9.554718,8.689215 9.556805,8.68917 9.566159,8.688924" style="fill: white" /><polygon type="contour" points="10.443049,8.950835 10.442657,8.993544 10.409395,8.993457 10.275964,8.993457 10.275651,9.072222 10.260857,9.072222 10.192712,9.072219 10.113512,9.072219 10.059481,9.072222 10.059481,9.06261 10.059482,9.018189 10.059482,8.93899 10.059481,8.85605 10.138127,8.855737 10.138435,8.769033 10.138481,8.761596 10.140891,8.687698 10.225565,8.685635 10.448103,8.683599" style="fill: white" /><polygon type="contour" points="10.113512,9.341139 10.192712,9.341139 10.275651,9.340931 10.275964,9.420602 10.443977,9.420602 10.443839,9.449071 10.442845,9.566149 10.442898,9.577067 10.443978,9.711102 10.275964,9.711102 10.275651,9.790773 10.260858,9.790773 10.192711,9.790564 10.113512,9.790564 10.059481,9.790773 10.059481,9.781086 10.059482,9.736112 10.059482,9.39559 10.059481,9.340931 10.069093,9.340931" style="fill: white" /><polygon type="contour" points="10.113513,10.059484 10.192711,10.059484 10.275651,10.059483 10.275964,10.138247 10.409396,10.138247 10.428003,10.138185 10.442656,10.138161 10.443048,10.180869 10.448103,10.448105 10.225565,10.446069 10.140892,10.444006 10.138436,10.362672 10.138436,10.275968 10.059481,10.275654 10.059481,10.26086 10.059482,10.192715 10.059482,10.113514 10.059481,10.059483 10.069092,10.059483" style="fill: white" /><polygon type="contour" points="9.395589,10.059484 9.736111,10.059484 9.790771,10.059483 9.790771,10.069095 9.790561,10.113514 9.790561,10.192714 9.790771,10.275654 9.711101,10.275967 9.711101,10.442653 9.673746,10.442583 9.576981,10.442489 9.574893,10.442534 9.565501,10.44278 9.554076,10.442489 9.457775,10.442583 9.4206,10.442653 9.4206,10.275967 9.340929,10.275654 9.340929,10.260861 9.341137,10.192714 9.341137,10.113515 9.340929,10.059483 9.350615,10.059483" style="fill: white" /><polygon type="contour" points="8.938987,10.059484 9.018188,10.059484 9.07222,10.059483 9.07222,10.069094 9.072218,10.113515 9.072218,10.192714 9.07222,10.275654 8.993573,10.275966 8.993265,10.362671 8.99322,10.370107 8.990809,10.444006 8.906134,10.446069 8.683597,10.448105 8.688651,10.180869 8.689041,10.138161 8.722302,10.138247 8.855735,10.138247 8.856049,10.059483 8.870842,10.059483" style="fill: white" />
</svg>
