<svg width="19.131698" height="19.131699">
<polygon type="contour" points="8.78422,8.5754 8.870687,8.577878 8.873223,8.578165 8.873234,8.595412 8.872839,8.872841 8.724924,8.872841 8.577697,8.872754 8.577107,8.836868 8.56916,8.569162" style="fill: white" /><polygon type="contour" points="9.640385,8.577 9.711101,8.577763 9.711101,8.873222 9.4206,8.873222 9.4206,8.577763 9.438285,8.576992 9.5655,8.57472" style="fill: white" /><polygon type="contour" points="10.554591,8.836869 10.554004,8.872754 10.406777,8.872841 10.259123,8.872575 10.258838,8.730495 10.258477,8.578165 10.261012,8.577878 10.347479,8.5754 10.56254,8.569162" style="fill: white" /><polygon type="contour" points="10.386921,9.053741 10.387032,9.085735 10.297871,9.085735 10.258337,9.085557 10.258509,9.037531 10.258509,8.99309 10.387284,8.99309" style="fill: white" /><polygon type="contour" points="10.386903,9.239237 10.387227,9.300726 10.25811,9.300726 10.258075,9.239236 10.258336,9.206549 10.342331,9.206549 10.387032,9.206389" style="fill: white" /><polygon type="contour" points="10.556656,9.51903 10.557385,9.565721 10.556656,9.612197 10.557123,9.711102 10.258126,9.711102 10.258126,9.420602 10.557123,9.420602" style="fill: white" /><polygon type="contour" points="10.138544,10.046146 10.13861,10.094171 10.13861,10.138613 10.077958,10.138547 10.046145,10.138547 10.046145,10.077961 10.045968,10.045969 10.110279,10.045969" style="fill: white" /><polygon type="contour" points="9.711101,10.553942 9.69333,10.554712 9.565982,10.556983 9.491315,10.554704 9.4206,10.553942 9.4206,10.258128 9.711101,10.258128" style="fill: white" /><polygon type="contour" points="9.085732,10.11028 9.085553,10.138547 9.037528,10.138613 8.993088,10.138613 8.993155,10.077961 8.993155,10.046146 9.053739,10.046146 9.085732,10.045969" style="fill: white" /><polygon type="contour" points="9.085554,10.342334 9.085732,10.387033 9.053739,10.386922 8.993088,10.387285 8.993088,10.258511 9.037527,10.258511 9.085554,10.25834" style="fill: white" /><polygon type="contour" points="9.300724,10.258111 9.300724,10.387229 9.239234,10.386904 9.206386,10.387033 9.206386,10.297874 9.206546,10.25834 9.239234,10.258076" style="fill: white" /><polygon type="contour" points="9.301063,10.046142 9.301063,10.078086 9.301061,10.138606 9.239233,10.138542 9.206546,10.138547 9.206546,10.077961 9.206386,10.045969 9.272159,10.045969" style="fill: white" /><polygon type="contour" points="9.711101,9.711102 9.4206,9.711102 9.4206,9.420602 9.711101,9.420602" style="fill: white" /><polygon type="contour" points="9.711101,9.925138 9.4206,9.925138 9.4206,9.830978 9.711101,9.830978" style="fill: white" /><polygon type="contour" points="9.711101,10.138606 9.4206,10.138606 9.4206,10.046142 9.711101,10.046142" style="fill: white" /><polygon type="contour" points="9.925314,10.11028 9.925154,10.138547 9.892465,10.138542 9.83064,10.138606 9.830637,10.078085 9.830637,10.046142 9.892466,10.046142 9.925314,10.045969" style="fill: white" /><polygon type="contour" points="9.925154,10.25834 9.925154,10.342334 9.925314,10.387033 9.892465,10.386904 9.830976,10.387229 9.830976,10.258111 9.892465,10.258076" style="fill: white" /><polygon type="contour" points="10.094169,10.258511 10.13861,10.258511 10.13861,10.387285 10.077959,10.386922 10.045968,10.387033 10.045968,10.297874 10.046145,10.25834" style="fill: white" /><polygon type="contour" points="10.554004,10.258948 10.554591,10.294832 10.56254,10.562542 10.347479,10.556304 10.261012,10.553827 10.258477,10.55354 10.258466,10.536292 10.258858,10.258861 10.406776,10.258861" style="fill: white" /><polygon type="contour" points="10.386921,10.077961 10.387284,10.138613 10.258509,10.138613 10.258509,10.094171 10.258337,10.046146 10.342332,10.046146 10.387032,10.045969" style="fill: white" /><polygon type="contour" points="10.386903,9.892466 10.387032,9.925315 10.297871,9.925315 10.258336,9.925155 10.258075,9.892467 10.25811,9.830978 10.387227,9.830978" style="fill: white" /><polygon type="contour" points="10.138604,9.711102 10.04614,9.711102 10.04614,9.420602 10.138604,9.420602" style="fill: white" /><polygon type="contour" points="10.094018,9.830641 10.138604,9.830641 10.13854,9.892466 10.138545,9.925155 10.077958,9.925155 10.045968,9.925315 10.045968,9.85954 10.04614,9.830638" style="fill: white" /><polygon type="contour" points="9.925137,9.892467 9.925314,9.925315 9.85954,9.925315 9.830637,9.925138 9.830976,9.876733 9.830976,9.830978 9.892465,9.830638 9.925137,9.830638" style="fill: white" /><polygon type="contour" points="9.925137,9.711102 9.830976,9.711102 9.830976,9.420602 9.925137,9.420602" style="fill: white" /><polygon type="contour" points="9.925314,9.272161 9.925137,9.301065 9.892466,9.301065 9.879358,9.300726 9.830976,9.300726 9.830637,9.239236 9.830637,9.206566 9.892466,9.206566 9.925314,9.206389" style="fill: white" /><polygon type="contour" points="10.138545,9.206549 10.13854,9.239237 10.139319,9.300726 10.078084,9.301065 10.04614,9.301065 10.04614,9.239237 10.045968,9.206389 10.110278,9.206389" style="fill: white" /><polygon type="contour" points="10.138545,9.053741 10.138545,9.085557 10.077959,9.085557 10.045968,9.085735 10.045968,9.021423 10.046145,8.993157 10.09417,8.99309 10.13861,8.99309" style="fill: white" /><polygon type="contour" points="10.13861,8.873192 10.09417,8.873192 10.046145,8.873361 10.046145,8.789369 10.045968,8.744671 10.077959,8.744782 10.13861,8.744419" style="fill: white" /><polygon type="contour" points="9.892465,8.7448 9.925314,8.744671 9.925314,8.833827 9.925154,8.873361 9.892466,8.873382 9.830976,8.873253 9.830976,8.744475" style="fill: white" /><polygon type="contour" points="9.892466,8.99292 9.925154,8.993157 9.925154,9.053741 9.925314,9.085735 9.859539,9.085735 9.830637,9.085563 9.830637,9.053375 9.830976,8.992044" style="fill: white" /><polygon type="contour" points="9.711101,9.085563 9.4206,9.085563 9.4206,8.992759 9.711101,8.992759" style="fill: white" /><polygon type="contour" points="9.711101,9.300726 9.4206,9.300726 9.4206,9.206566 9.711101,9.206566" style="fill: white" /><polygon type="contour" points="9.085732,9.272161 9.08556,9.301065 9.03768,9.301063 8.992757,9.301063 8.992918,9.239236 8.993155,9.206549 9.053739,9.206549 9.085732,9.206389" style="fill: white" /><polygon type="contour" points="9.301063,9.206566 9.300724,9.25497 9.300724,9.300726 9.239234,9.301065 9.206563,9.301065 9.206563,9.239236 9.206386,9.206389 9.272159,9.206389" style="fill: white" /><polygon type="contour" points="9.301063,9.053374 9.301063,9.085563 9.239234,9.085563 9.206386,9.085735 9.206386,9.021423 9.206546,8.993156 9.239233,8.992919 9.301061,8.992758" style="fill: white" /><polygon type="contour" points="9.300724,8.873253 9.239233,8.873382 9.206546,8.873361 9.206546,8.789369 9.206386,8.744671 9.239234,8.7448 9.300724,8.744475" style="fill: white" /><polygon type="contour" points="9.053739,8.744782 9.085732,8.744671 9.085732,8.833828 9.085554,8.873361 9.037528,8.873192 8.993088,8.873192 8.993088,8.744419" style="fill: white" /><polygon type="contour" points="9.053739,8.993157 9.085554,8.993157 9.085554,9.053742 9.085732,9.085735 9.021422,9.085735 8.993155,9.085557 8.993088,9.03753 8.993088,8.99309" style="fill: white" /><polygon type="contour" points="8.873189,9.03753 8.87336,9.085557 8.789366,9.085557 8.744668,9.085735 8.744778,9.053742 8.744416,8.99309 8.873189,8.99309" style="fill: white" /><polygon type="contour" points="8.87336,9.206549 8.873381,9.239236 8.873249,9.300726 8.744473,9.300726 8.744798,9.239237 8.744668,9.206389 8.833826,9.206389" style="fill: white" /><polygon type="contour" points="8.87322,9.565529 8.873572,9.711102 8.574578,9.711102 8.575043,9.612673 8.574314,9.565982 8.575043,9.519506 8.574578,9.420602 8.87322,9.420602" style="fill: white" /><polygon type="contour" points="9.08556,9.711102 8.993096,9.711102 8.993096,9.560772 8.992757,9.420602 9.08556,9.420602" style="fill: white" /><polygon type="contour" points="9.300724,9.711102 9.206563,9.711102 9.206563,9.420602 9.300724,9.420602" style="fill: white" /><polygon type="contour" points="9.252341,9.830978 9.300724,9.830978 9.301063,9.892466 9.301063,9.925138 9.239233,9.925138 9.206386,9.925315 9.206386,9.859541 9.206563,9.830638 9.239233,9.830638" style="fill: white" /><polygon type="contour" points="9.08556,9.892466 9.085732,9.925315 9.021421,9.925315 8.993155,9.925155 8.99316,9.892466 8.992381,9.830978 9.053614,9.830638 9.08556,9.830638" style="fill: white" /><polygon type="contour" points="8.873623,9.892466 8.873359,9.925155 8.789366,9.925155 8.744668,9.925315 8.744798,9.892466 8.744473,9.830978 8.87359,9.830978" style="fill: white" /><polygon type="contour" points="8.87336,10.046146 8.873189,10.094172 8.873189,10.138613 8.744417,10.138613 8.744779,10.07796 8.744668,10.045969 8.833827,10.045969" style="fill: white" /><polygon type="contour" points="8.872574,10.259126 8.872861,10.401207 8.873223,10.55354 8.870687,10.553827 8.78422,10.556304 8.56916,10.562542 8.577108,10.294833 8.577697,10.258948 8.724924,10.258861" style="fill: white" />
</svg>
