<svg width="19.131698" height="19.131699">
<polygon type="contour" points="9.565034,9.329878 9.595379,9.332584 9.629517,9.337798 9.635499,9.339314 9.668011,9.352195 9.672688,9.354014 9.693773,9.368088 9.706266,9.375738 9.726574,9.392195 9.736701,9.402189 9.742642,9.409656 9.760617,9.433948 9.779127,9.462648 9.781885,9.468203 9.789175,9.492235 9.79402,9.506003 9.798469,9.530925 9.800672,9.545426 9.802166,9.566153 9.801028,9.585314 9.79878,9.604434 9.79402,9.624811 9.78353,9.658826 9.781798,9.663502 9.776244,9.674395 9.761902,9.698013 9.745603,9.72109 9.739411,9.72805 9.737422,9.730481 9.728515,9.739031 9.706581,9.756134 9.698437,9.761223 9.671766,9.776018 9.656117,9.782462 9.635159,9.791835 9.608261,9.799539 9.599754,9.801097 9.596189,9.801771 9.58391,9.802743 9.558874,9.80214 9.527976,9.800311 9.518949,9.798656 9.515856,9.798271 9.509819,9.796999 9.477813,9.785272 9.44694,9.770898 9.441527,9.7678 9.412676,9.746478 9.409327,9.744003 9.403283,9.738177 9.382438,9.714293 9.370852,9.699063 9.36008,9.681258 9.349397,9.658114 9.343626,9.644602 9.33488,9.619938 9.332203,9.605753 9.330102,9.591761 9.330327,9.565978 9.330102,9.540195 9.332204,9.525949 9.334881,9.512017 9.343279,9.487292 9.356834,9.454503 9.358912,9.450002 9.365406,9.439536 9.381527,9.417228 9.388145,9.410271 9.409951,9.38874 9.420683,9.380692 9.441664,9.365186 9.453861,9.359086 9.477279,9.346338 9.503839,9.336519 9.512927,9.334372 9.51591,9.333433 9.527976,9.331393 9.552686,9.329723" style="fill: white" />
</svg>
