<svg width="19.131698" height="19.131699">
<polygon type="contour" points="8.095753,11.487664 8.13333,11.487664 8.252178,11.4862 8.25267,11.527874 8.251143,11.618452 8.251268,11.653236 8.252365,11.786809 8.208095,11.786809 8.123166,11.785346 8.083675,11.785346 7.952351,11.786378 7.951385,11.6929 7.953487,11.653237 7.953598,11.640973 7.953598,11.603508 7.951815,11.4862 7.999793,11.4862" style="fill: white" /><polygon type="contour" points="11.787414,11.935246 11.787414,12.062646 11.746351,12.062697 11.623853,12.062853 11.486197,12.062686 11.485829,12.018606 11.485829,11.935233 11.603004,11.934775 11.653233,11.934775" style="fill: white" /><polygon type="contour" points="12.062636,11.939031 12.148844,11.939031 12.169991,11.939089 12.235108,11.939868 12.238141,12.044295 12.243441,12.243443 11.979902,12.235726 11.939029,12.234247 11.939029,12.062638 11.935353,12.062532 11.935353,11.935354 12.06253,11.935354" style="fill: white" /><polygon type="contour" points="11.978088,11.4862 12.062685,11.4862 12.062678,11.518932 12.06285,11.625708 12.062697,11.746351 12.062644,11.787416 11.935244,11.787416 11.935244,11.73412 11.934774,11.641148 11.93469,11.624538 11.93523,11.485831" style="fill: white" /><polygon type="contour" points="11.787725,11.529373 11.785345,11.61357 11.785345,11.653236 11.787414,11.787416 11.734118,11.787416 11.641145,11.785346 11.603005,11.785346 11.485829,11.787727 11.487566,11.653237 11.487662,11.640972 11.487662,11.603507 11.486198,11.4862 11.528531,11.4862 11.622142,11.487809 11.653234,11.487568 11.787725,11.485831" style="fill: white" /><polygon type="contour" points="10.998366,7.953601 11.047452,7.953601 11.178881,7.952822 11.178881,8.003362 11.178102,8.095757 11.178102,8.133334 11.179421,8.251713 11.036037,8.251056 11.036037,8.250916 11.02506,8.251006 11.008575,8.250931 11.008575,8.251142 10.879497,8.252204 10.879497,8.209558 10.880785,8.095661 10.880475,8.095661 10.880591,8.084246 10.879986,7.952281" style="fill: white" /><polygon type="contour" points="12.134607,8.408911 12.234766,8.408911 12.235666,8.441476 12.237306,8.491871 12.241406,8.567375 12.235193,8.663148 12.235226,8.703822 12.186762,8.703559 12.148937,8.703559 12.148845,8.703498 12.117147,8.703498 12.070903,8.703255 12.062407,8.70325 12.0444,8.703318 11.975881,8.703896 11.934907,8.703896 11.934907,8.502467 11.935405,8.408605" style="fill: white" /><polygon type="contour" points="12.062697,8.971124 12.062677,9.165018 12.062683,9.165018 12.062564,9.298103 12.062521,9.348514 12.016187,9.349305 11.93513,9.349305 11.935267,9.187019 11.935267,9.085268 11.935244,8.917048 11.981351,8.917036 12.062514,8.917036" style="fill: white" /><polygon type="contour" points="11.613832,8.919763 11.653233,8.919751 11.787414,8.917048 11.787268,9.085269 11.787268,9.187019 11.787414,9.352971 11.735176,9.352242 11.640184,9.346451 11.603505,9.346516 11.486198,9.348658 11.486198,9.28704 11.486832,9.120357 11.48635,9.085833 11.485286,9.055319 11.485286,8.916996 11.52849,8.916996" style="fill: white" /><polygon type="contour" points="11.18007,9.085833 11.179423,9.164942 11.179887,9.164949 11.179887,9.185973 11.178881,9.349938 11.084598,9.347728 11.047452,9.346516 11.035928,9.346498 10.99838,9.346498 10.879497,9.34766 10.879497,9.287072 10.87933,9.145107 10.879368,9.085833 10.879536,8.917458 10.92274,8.917458 11.008524,8.919755 11.047732,8.919755 11.181366,8.917036" style="fill: white" /><polygon type="contour" points="10.722892,8.985153 10.722931,9.108011 10.722931,9.185693 10.722893,9.22972 10.72282,9.348514 10.61765,9.349402 10.428199,9.349402 10.428255,9.186503 10.428255,9.085833 10.428272,8.917036 10.724498,8.917036" style="fill: white" /><polygon type="contour" points="10.214664,8.986138 10.213935,9.165134 10.214168,9.165134 10.214168,9.186502 10.21445,9.349402 10.045868,9.348613 9.966855,9.347594 9.966855,9.348323 9.946008,9.348323 9.783189,9.348513 9.783189,9.283938 9.783375,9.164847 9.784101,9.164847 9.783086,9.085834 9.7823,8.917253 9.848048,8.917253 10.023768,8.917669 10.023768,8.917534 10.045867,8.917534 10.214664,8.917036" style="fill: white" /><polygon type="contour" points="10.214664,8.703428 10.145561,8.703428 10.023768,8.703447 9.945199,8.703447 9.7823,8.703501 9.783189,8.60021 9.783189,8.408882 9.847026,8.408882 9.966617,8.408771 9.966616,8.408837 10.045867,8.408745 10.214664,8.408729" style="fill: white" /><polygon type="contour" points="10.2131,7.951752 10.2131,8.003253 10.211947,8.095625 10.211947,8.13392 10.214244,8.253589 10.150635,8.252204 10.023691,8.252347 9.946007,8.252347 9.784043,8.252204 9.784043,8.209094 9.785242,8.120186 9.785186,8.084246 9.783119,7.951916 9.848029,7.951916 9.966752,7.951816 9.966765,7.952692 10.045867,7.95147 10.09205,7.950851" style="fill: white" /><polygon type="contour" points="10.533699,7.952822 10.724098,7.952822 10.72282,8.002489 10.722624,8.09566 10.722624,8.133319 10.722595,8.252204 10.622733,8.253589 10.427972,8.253589 10.427942,8.133919 10.427942,8.083851 10.428199,7.951752" style="fill: white" /><polygon type="contour" points="10.62404,8.408911 10.722792,8.408911 10.725762,8.606531 10.725762,8.70346 10.525169,8.70346 10.428125,8.703576 10.428125,8.504469 10.428241,8.40876" style="fill: white" /><polygon type="contour" points="11.17945,8.514051 11.17945,8.703501 11.047732,8.70376 10.998123,8.70376 10.879536,8.703728 10.879497,8.605702 10.879497,8.409108 10.92214,8.409108 11.036429,8.409067 11.047453,8.408784 11.178881,8.407603" style="fill: white" /><polygon type="contour" points="11.603506,8.408784 11.616337,8.409156 11.653233,8.409038 11.787414,8.408645 11.787414,8.703603 11.734911,8.703428 11.638399,8.703769 11.485286,8.703728 11.486198,8.603578 11.486198,8.407428" style="fill: white" /><polygon type="contour" points="11.621895,7.953773 11.653233,7.95349 11.786377,7.952354 11.786377,8.004043 11.785345,8.09559 11.785345,8.133907 11.786809,8.252366 11.613599,8.250944 11.613599,8.251226 11.603506,8.251109 11.486198,8.25218 11.486198,8.209376 11.487662,8.123065 11.487662,8.084247 11.486198,7.951816 11.528532,7.951816" style="fill: white" /><polygon type="contour" points="11.980274,7.952822 12.062585,7.952822 12.062862,8.103135 12.062837,8.119232 12.062677,8.218667 12.062625,8.252204 12.018605,8.252366 11.935231,8.252366 11.934774,8.133906 11.934774,8.083677 11.93513,7.952354" style="fill: white" /><polygon type="contour" points="12.238141,7.087408 12.235108,7.191837 12.169992,7.192614 12.148844,7.192672 12.062636,7.192672 12.06253,7.196349 12.022224,7.196349 11.935353,7.19635 11.935353,7.069173 11.939029,7.069063 11.939029,6.897456 11.979902,6.895974 12.243441,6.888261" style="fill: white" /><polygon type="contour" points="12.062696,7.38535 12.062837,7.495856 12.062852,7.507848 12.062685,7.645504 12.018605,7.645873 11.935231,7.645873 11.934774,7.528697 11.934774,7.478468 11.935244,7.344288 11.98233,7.344287 12.062644,7.344287" style="fill: white" /><polygon type="contour" points="11.74635,7.069004 11.787414,7.069058 11.787414,7.196458 11.734119,7.196458 11.624514,7.197013 11.485829,7.19647 11.486198,7.153613 11.486198,7.069018 11.51893,7.069024 11.625711,7.06885" style="fill: white" /><polygon type="contour" points="11.603004,7.346356 11.653233,7.346356 11.787413,7.344287 11.787725,7.438803 11.785345,7.478467 11.785345,7.528697 11.787725,7.645873 11.653234,7.644135 11.640969,7.64404 11.603505,7.64404 11.486198,7.645504 11.486198,7.60317 11.487807,7.509559 11.487566,7.478467 11.485829,7.343977" style="fill: white" /><polygon type="contour" points="10.722792,6.896937 10.723098,7.099869 10.723098,7.196296 10.522993,7.196296 10.427807,7.19635 10.428277,7.06868 10.427752,7.06868 10.427816,7.060169 10.428204,7.014554 10.428204,6.982857 10.42846,6.98288 10.431127,6.896612 10.524288,6.897032 10.606604,6.897061 10.690226,6.896036" style="fill: white" /><polygon type="contour" points="11.178881,7.069118 11.179349,7.115514 11.179349,7.196572 11.048021,7.196929 10.997793,7.196929 10.879335,7.19647 10.879497,7.154065 10.879497,7.069078 10.913032,7.069023 11.011294,7.068865 11.028914,7.068837" style="fill: white" /><polygon type="contour" points="11.00853,7.346356 11.048022,7.346356 11.179349,7.345326 11.180316,7.438803 11.178213,7.478468 11.178102,7.490731 11.178102,7.528196 11.179886,7.645504 11.131906,7.645504 11.035943,7.64404 10.998366,7.64404 10.879985,7.645968 10.879496,7.604295 10.88055,7.511467 10.880431,7.478468 10.879335,7.344894 10.923604,7.344894" style="fill: white" /><polygon type="contour" points="10.722893,7.396025 10.722552,7.515645 10.722916,7.528195 10.724274,7.645504 10.623196,7.645941 10.427972,7.645941 10.427942,7.528435 10.427942,7.490598 10.427903,7.478467 10.428098,7.344288 10.723058,7.344288" style="fill: white" /><polygon type="contour" points="10.214696,7.438803 10.211951,7.478467 10.211947,7.490598 10.211947,7.528435 10.214707,7.645941 10.149919,7.645504 9.966756,7.64483 9.966753,7.645039 9.945728,7.645039 9.783044,7.645504 9.78311,7.603362 9.785464,7.507387 9.785011,7.478467 9.778732,7.344288 9.944682,7.344435 10.046432,7.344435 10.214653,7.344288" style="fill: white" /><polygon type="contour" points="10.214653,7.116143 10.214653,7.196458 10.144283,7.196458 9.966516,7.196425 9.966516,7.196436 9.944683,7.196436 9.782398,7.196572 9.783189,7.151894 9.783189,7.069182 9.8336,7.069135 9.966684,7.069019 9.966683,7.069026 10.160575,7.069005 10.214411,7.068935" style="fill: white" /><polygon type="contour" points="7.151795,6.895974 7.192669,6.897456 7.192669,7.069063 7.196347,7.069173 7.196347,7.19635 7.06917,7.19635 7.069061,7.192672 6.982855,7.192672 6.961707,7.192613 6.896397,7.191837 6.893093,7.087409 6.888259,6.888261" style="fill: white" /><polygon type="contour" points="8.663146,6.896509 8.700572,6.896612 8.703239,6.98288 8.703496,6.982857 8.703496,7.037258 8.703498,7.044059 8.703417,7.044178 8.703249,7.06868 8.703316,7.0867 8.703893,7.15582 8.703893,7.19635 8.502464,7.19635 8.408603,7.196296 8.408909,6.997094 8.408909,6.896937 8.441474,6.896035 8.474704,6.895104 8.47575,6.895037 8.491869,6.894395 8.567374,6.890296" style="fill: white" /><polygon type="contour" points="9.165183,7.344504 9.165184,7.344435 9.187017,7.344435 9.352968,7.344288 9.351991,7.396524 9.345738,7.502674 9.346908,7.528195 9.350302,7.645504 9.287038,7.645504 9.120355,7.644869 9.085831,7.645352 9.055317,7.646416 8.916994,7.646416 8.916994,7.603211 8.919761,7.517869 8.919749,7.478468 8.917046,7.344288 8.987416,7.344288" style="fill: white" /><polygon type="contour" points="8.971123,7.069005 9.165016,7.069026 9.165016,7.06902 9.2981,7.069135 9.348266,7.069182 9.349303,7.115515 9.349303,7.196572 9.187016,7.196436 9.085266,7.196436 8.917046,7.196458 8.917036,7.150096 8.917036,7.068935" style="fill: white" /><polygon type="contour" points="8.703427,7.396791 8.703758,7.490597 8.703758,7.490598 8.703767,7.49323 8.703727,7.646416 8.604752,7.645504 8.408602,7.645504 8.409066,7.528196 8.409097,7.497125 8.409037,7.478467 8.408642,7.344288 8.703601,7.344288" style="fill: white" /><polygon type="contour" points="8.095586,7.346356 8.133904,7.346356 8.252365,7.344894 8.251268,7.478468 8.251143,7.513154 8.25139,7.528195 8.252888,7.645968 8.208907,7.645968 8.123061,7.64404 8.084244,7.64404 7.951815,7.645504 7.951815,7.60317 7.95377,7.509799 7.953487,7.478468 7.950457,7.344288 8.002976,7.344288" style="fill: white" /><polygon type="contour" points="8.120402,7.068865 8.218665,7.069024 8.252202,7.069078 8.252365,7.113098 8.252365,7.196471 8.208095,7.196471 8.123166,7.196929 8.10993,7.197 7.952351,7.196572 7.952819,7.151427 7.952819,7.069118 8.102781,7.068837" style="fill: white" /><polygon type="contour" points="7.645502,7.069018 7.645871,7.113097 7.645871,7.196471 7.528696,7.196929 7.478466,7.196929 7.344285,7.196458 7.344285,7.069058 7.385349,7.069004 7.508384,7.068847" style="fill: white" /><polygon type="contour" points="7.644133,7.478467 7.644038,7.490732 7.644038,7.528196 7.645502,7.645504 7.603169,7.645504 7.509558,7.643894 7.478467,7.644135 7.343974,7.645873 7.343974,7.602329 7.346354,7.518134 7.346354,7.478468 7.344285,7.344288 7.39784,7.344288 7.490612,7.346356 7.528695,7.346356 7.645871,7.343977" style="fill: white" /><polygon type="contour" points="7.196456,7.397842 7.19701,7.507199 7.196468,7.645873 7.153611,7.645504 7.069015,7.645504 7.069021,7.612772 7.068848,7.505946 7.069002,7.385351 7.069056,7.344288 7.196456,7.344288" style="fill: white" /><polygon type="contour" points="7.19657,8.004043 7.197,8.114693 7.196468,8.252366 7.154063,8.252204 7.069074,8.252204 7.069021,8.218667 7.068835,8.102723 7.069116,7.952822 7.115512,7.952354 7.19657,7.952354" style="fill: white" /><polygon type="contour" points="7.645502,7.999795 7.644038,8.095757 7.644038,8.133615 7.645502,8.253356 7.603827,8.252672 7.513254,8.251144 7.478467,8.25127 7.344892,8.252366 7.346354,8.133906 7.346354,8.083677 7.345323,7.952354 7.397117,7.952822 7.490731,7.953601 7.528194,7.953601 7.645502,7.951816" style="fill: white" /><polygon type="contour" points="8.252202,8.981068 8.252402,9.157728 8.252188,9.185693 8.251736,9.34766 8.209092,9.34766 8.103224,9.34623 8.084243,9.346911 7.952819,9.351672 7.952819,9.285028 7.951813,9.164949 7.952276,9.164942 7.95163,9.085833 7.95225,9.041 7.95225,8.918602 8.00325,8.918602 8.095622,8.919755 8.133574,8.919755 8.252163,8.917458" style="fill: white" /><polygon type="contour" points="7.645502,8.981784 7.644828,9.164945 7.645037,9.164948 7.645037,9.186535 7.645502,9.350304 7.603361,9.348593 7.507389,9.346237 7.478466,9.34669 7.344285,9.352971 7.344285,9.285187 7.344503,9.107937 7.344433,9.107936 7.344433,9.085269 7.344285,8.917048 7.396789,8.917036 7.490597,8.919755 7.528548,8.919755 7.646414,8.916996" style="fill: white" /><polygon type="contour" points="7.116142,8.917048 7.196456,8.917048 7.196456,8.987418 7.196422,9.165186 7.196433,9.165186 7.196433,9.187019 7.19657,9.349305 7.151892,9.348514 7.06918,9.348514 7.069133,9.298102 7.069017,9.165017 7.069022,9.165018 7.069003,8.971124 7.068933,8.917036" style="fill: white" /><polygon type="contour" points="7.196294,8.608709 7.196347,8.703896 7.110041,8.703576 7.068676,8.70325 7.044175,8.703417 7.044056,8.703499 7.037256,8.703498 6.982855,8.703498 6.944937,8.703559 6.930093,8.703617 6.896474,8.703822 6.896508,8.663148 6.897031,8.607412 6.89706,8.525098 6.896034,8.441476 6.896935,8.408911 7.099867,8.408605 7.196294,8.408605" style="fill: white" /><polygon type="contour" points="7.646414,8.508504 7.646414,8.703728 7.528548,8.70376 7.490597,8.70376 7.478467,8.703799 7.344285,8.703602 7.344285,8.408645 7.396023,8.408809 7.497232,8.409095 7.528194,8.409068 7.645502,8.408604" style="fill: white" /><polygon type="contour" points="8.084243,8.409067 8.095658,8.409077 8.133317,8.409077 8.252202,8.409108 8.252163,8.508966 8.252163,8.703728 8.208959,8.703728 8.095623,8.70377 8.090215,8.703772 7.95225,8.703501 7.952819,8.599239 7.952819,8.408843" style="fill: white" /><polygon type="contour" points="8.251391,8.084246 8.251225,8.09566 8.251225,8.133319 8.252202,8.252204 8.209558,8.252204 8.107675,8.251051 8.084243,8.251392 7.95228,8.25289 7.95228,8.20891 7.953598,8.123065 7.953598,8.084247 7.952819,7.952822 8.003359,7.952822 8.095754,7.953601 8.133612,7.953601 8.252888,7.952281" style="fill: white" /><polygon type="contour" points="8.7035,8.003252 8.703758,8.095625 8.703758,8.095626 8.703767,8.098874 8.703727,8.252164 8.605699,8.252204 8.409106,8.252204 8.409077,8.133319 8.409077,8.095661 8.409067,8.084246 8.408841,7.952822 8.514051,7.952252 8.7035,7.952252" style="fill: white" /><polygon type="contour" points="9.16494,7.952279 9.164947,7.951816 9.186532,7.951816 9.35167,7.952822 9.349628,8.00298 9.346441,8.095772 9.346441,8.13332 9.347425,8.252204 9.28707,8.252204 9.145105,8.25237 9.085831,8.252332 8.917456,8.252164 8.919753,8.133576 8.919753,8.083967 8.9186,7.952252 9.085831,7.951633" style="fill: white" /><polygon type="contour" points="9.085831,8.408256 9.165083,8.410093 9.165083,8.408771 9.185613,8.408771 9.348267,8.408882 9.3494,8.514052 9.3494,8.703501 9.1865,8.703447 9.085831,8.703447 8.917036,8.703428 8.917036,8.407203" style="fill: white" /><polygon type="contour" points="8.703459,8.606532 8.703575,8.703576 8.501628,8.703576 8.405939,8.70346 8.408909,8.507662 8.408909,8.408911 8.606531,8.405941 8.703459,8.405941" style="fill: white" /><polygon type="contour" points="8.703427,8.986138 8.703445,9.107933 8.703445,9.186502 8.7035,9.349402 8.599718,9.348514 8.40839,9.348514 8.408612,9.185693 8.409098,9.122218 8.408256,9.085833 8.407203,8.917036 8.703427,8.917036" style="fill: white" /><polygon type="contour" points="9.085832,8.917534 9.1865,8.917534 9.353106,8.917036 9.348611,9.085833 9.347314,9.164847 9.348242,9.164847 9.348242,9.185694 9.348267,9.348514 9.283935,9.348514 9.114579,9.348242 9.085832,9.348613 8.917036,9.353107 8.917036,9.28629 8.917767,9.107934 8.917533,9.107934 8.917533,9.085834 8.917036,8.917036 9.038332,8.917036" style="fill: white" /><polygon type="contour" points="9.085831,9.783088 9.164845,9.784381 9.164845,9.783457 9.185613,9.783457 9.348267,9.783437 9.348267,9.847767 9.348242,9.966857 9.347314,9.966846 9.348611,10.045869 9.3494,10.214452 9.28365,10.214452 9.107932,10.214033 9.107932,10.21417 9.085832,10.21417 8.917036,10.214666 8.917036,10.145563 8.917766,9.96657 8.917533,9.96657 8.917533,9.945201 8.91725,9.782302" style="fill: white" /><polygon type="contour" points="8.703445,9.945201 8.703445,10.045869 8.703427,10.214666 8.407203,10.214666 8.408808,10.146548 8.40877,10.023692 8.409209,10.023693 8.408611,9.946088 8.408309,9.90223 8.408389,9.783437 8.514051,9.782303 8.7035,9.782303" style="fill: white" /><polygon type="contour" points="8.047101,9.783976 8.084244,9.785188 8.095769,9.785261 8.133205,9.785261 8.251736,9.784278 8.252202,9.844632 8.252369,9.986505 8.252332,10.045869 8.252162,10.214247 8.208958,10.214247 8.123172,10.211949 8.083963,10.211949 7.950333,10.214666 7.95163,10.045869 7.952276,9.966761 7.951813,9.966754 7.951813,9.94573 7.951914,9.783122" style="fill: white" /><polygon type="contour" points="7.396523,9.779712 7.493699,9.785434 7.528194,9.785188 7.645502,9.783046 7.645502,9.844665 7.644867,10.011346 7.64535,10.045869 7.646414,10.076386 7.646414,10.214709 7.60321,10.214709 7.517868,10.21194 7.478466,10.211953 7.344285,10.214655 7.344433,10.046434 7.344433,9.944684 7.344285,9.778734" style="fill: white" /><polygon type="contour" points="7.196433,9.944684 7.196433,10.046435 7.196456,10.214655 7.150095,10.214412 7.068933,10.214412 7.069003,10.160577 7.069022,9.966686 7.069017,9.966686 7.069134,9.833601 7.06918,9.783437 7.115512,9.7824 7.19657,9.7824" style="fill: white" /><polygon type="contour" points="7.068677,10.42778 7.155818,10.427808 7.196347,10.427808 7.196347,10.629235 7.196293,10.723099 6.997092,10.722793 6.896935,10.722793 6.896033,10.690227 6.894393,10.639833 6.890292,10.564327 6.896508,10.468553 6.896474,10.42788 6.944937,10.428144 6.982764,10.428144 6.982855,10.428206 7.014552,10.428206 7.060166,10.427819 7.068677,10.427754" style="fill: white" /><polygon type="contour" points="7.196926,10.997794 7.196926,11.048023 7.19657,11.17935 7.151425,11.178882 7.069116,11.178882 7.068835,11.028978 7.06902,10.913034 7.069075,10.879498 7.113094,10.879337 7.196468,10.879337" style="fill: white" /><polygon type="contour" points="7.518102,10.880759 7.518102,10.880477 7.528194,10.880593 7.645502,10.879523 7.645502,10.922327 7.644038,11.008637 7.644038,11.047454 7.645502,11.179888 7.603168,11.179888 7.509805,11.17793 7.478466,11.178214 7.345323,11.17935 7.345323,11.12766 7.346354,11.036111 7.346354,10.997794 7.344892,10.879337" style="fill: white" /><polygon type="contour" points="7.646414,10.427974 7.645502,10.528123 7.645502,10.724276 7.528194,10.722918 7.515354,10.722547 7.478467,10.722665 7.344285,10.723058 7.344285,10.4281 7.396789,10.428274 7.490597,10.427944 7.491589,10.42794 7.493157,10.427934" style="fill: white" /><polygon type="contour" points="8.252163,10.427974 8.252202,10.526 8.252202,10.722597 8.209557,10.722597 8.095278,10.722636 8.084243,10.722918 7.952819,10.7241 7.95225,10.617651 7.95225,10.428201 8.083963,10.427944 8.133573,10.427944" style="fill: white" /><polygon type="contour" points="8.252202,10.922143 8.250914,11.036041 8.251225,11.036041 8.251109,11.047455 8.251712,11.179423 8.13333,11.178103 8.084244,11.178103 7.952819,11.178882 7.952819,11.12834 7.953598,11.035944 7.953598,10.998368 7.95228,10.879988 8.095659,10.880646 8.095659,10.880788 8.106705,10.880697 8.123122,10.880772 8.123122,10.880561 8.252202,10.879499" style="fill: white" /><polygon type="contour" points="8.508965,10.879538 8.703726,10.879538 8.703758,10.998124 8.703758,11.047849 8.7035,11.179952 8.597999,11.178882 8.407602,11.178882 8.408881,11.129214 8.409077,11.036041 8.409077,10.998382 8.409106,10.879499" style="fill: white" /><polygon type="contour" points="8.703575,10.630072 8.703459,10.725764 8.507659,10.722793 8.408909,10.722793 8.405939,10.525172 8.405939,10.428244 8.606531,10.428244 8.703575,10.428128" style="fill: white" /><polygon type="contour" points="9.348267,10.531492 9.348267,10.722822 9.284674,10.722822 9.165083,10.722933 9.165084,10.72161 9.085831,10.723447 8.917036,10.7245 8.917036,10.428274 8.986138,10.428274 9.107932,10.428256 9.107932,10.428257 9.186501,10.428257 9.3494,10.428201" style="fill: white" /><polygon type="contour" points="9.347425,10.879499 9.347425,10.922608 9.346198,11.029945 9.346908,11.047455 9.35167,11.178882 9.285026,11.178882 9.164947,11.179888 9.164934,11.179011 9.085832,11.180234 9.040999,11.179952 8.9186,11.179952 8.9186,11.12845 8.919753,11.036076 8.919753,10.998125 8.917456,10.879538 8.981065,10.879499 9.108008,10.879357 9.185613,10.879357" style="fill: white" /><polygon type="contour" points="10.045867,10.879371 10.214244,10.879538 10.211947,10.998125 10.211947,11.047735 10.214664,11.181368 10.045867,11.180071 9.966759,11.179421 9.966753,11.179888 9.945728,11.179888 9.781763,11.178882 9.781825,11.128723 9.785204,11.035929 9.785204,10.998382 9.784043,10.879499 9.84463,10.879499 9.986685,10.879333" style="fill: white" /><polygon type="contour" points="9.945198,10.428257 10.045867,10.428257 10.214664,10.428274 10.214664,10.7245 10.045868,10.723447 9.966617,10.72161 9.966617,10.722933 9.946007,10.722933 9.783189,10.722822 9.7823,10.617651 9.7823,10.428201" style="fill: white" /><polygon type="contour" points="10.214664,9.845411 10.213933,10.02377 10.214168,10.02377 10.214168,10.045869 10.214664,10.214666 10.093366,10.214666 10.045868,10.21417 9.945198,10.21417 9.778595,10.214666 9.783086,10.045869 9.784101,9.966857 9.783375,9.966857 9.783375,9.946088 9.783189,9.783437 9.847763,9.783437 9.966855,9.783457 9.966855,9.784381 10.045867,9.783089 10.214664,9.778597" style="fill: white" /><polygon type="contour" points="10.53149,9.783437 10.72282,9.783437 10.722931,9.946088 10.722931,9.966619 10.72161,9.966617 10.723444,10.045869 10.724498,10.214666 10.428272,10.214666 10.428272,10.145563 10.428254,10.023769 10.428255,10.023769 10.428255,9.9452 10.428199,9.782303" style="fill: white" /><polygon type="contour" points="10.725762,10.428244 10.722792,10.624041 10.722792,10.722793 10.52517,10.725764 10.428241,10.725764 10.428241,10.525171 10.428125,10.428128 10.630072,10.428128" style="fill: white" /><polygon type="contour" points="11.17945,10.428201 11.178881,10.532462 11.178881,10.722862 11.047453,10.722636 11.036038,10.722627 10.998379,10.722627 10.879497,10.722597 10.879536,10.622737 10.879536,10.427974 10.922739,10.427974 11.036074,10.427934 11.041773,10.427932" style="fill: white" /><polygon type="contour" points="11.178881,9.846674 11.179887,9.966754 11.179423,9.966761 11.180069,10.04587 11.17945,10.0907 11.17945,10.213103 11.128449,10.213103 11.036074,10.211949 10.998123,10.211949 10.879536,10.214247 10.879497,10.150637 10.879354,10.023692 10.879354,9.946088 10.879496,9.784278 10.922606,9.784278 11.029948,9.785503 11.047453,9.784792 11.178881,9.78003" style="fill: white" /><polygon type="contour" points="11.979808,9.783437 12.062521,9.783437 12.062564,9.833601 12.062682,9.966685 12.062677,9.966685 12.062697,10.160578 12.062514,10.214412 12.015558,10.214655 11.935244,10.214655 11.935244,10.144283 11.935277,9.966518 11.935267,9.966518 11.935267,9.944684 11.93513,9.7824" style="fill: white" /><polygon type="contour" points="11.787414,9.846517 11.787198,10.023766 11.787268,10.023767 11.787268,10.046434 11.787414,10.214655 11.734911,10.214666 11.641103,10.211949 11.603152,10.211949 11.485286,10.214709 11.486198,10.149921 11.486871,9.966758 11.486663,9.966755 11.486663,9.945168 11.486198,9.7814 11.528338,9.783343 11.626579,9.785549 11.653234,9.785013 11.787414,9.778734" style="fill: white" /><polygon type="contour" points="11.787414,10.4281 11.787414,10.723059 11.735676,10.722893 11.634468,10.722608 11.603506,10.722636 11.486197,10.7231 11.485286,10.623199 11.485286,10.427974 11.603151,10.427944 11.641103,10.427944 11.653233,10.427905" style="fill: white" /><polygon type="contour" points="12.094444,10.428206 12.148845,10.428206 12.186762,10.428144 12.201606,10.428086 12.235226,10.42788 12.235193,10.468552 12.234668,10.524291 12.234639,10.606605 12.235665,10.690228 12.234766,10.722793 12.031832,10.723099 11.935406,10.723099 11.935406,10.522994 11.934907,10.427808 12.021204,10.428128 12.062245,10.427852 12.062322,10.427754 12.062374,10.427786 12.087025,10.427786 12.087643,10.427707" style="fill: white" /><polygon type="contour" points="11.977636,10.879499 12.062625,10.879499 12.062677,10.913033 12.062837,11.012469 12.062862,11.028565 12.062585,11.178882 12.016187,11.17935 11.93513,11.17935 11.93513,11.12766 11.934774,11.036112 11.934699,11.017029 11.935231,10.879337" style="fill: white" /><polygon type="contour" points="11.527407,10.879499 11.620229,10.880553 11.653233,10.880434 11.786809,10.879337 11.785345,10.997795 11.785345,11.048024 11.787414,11.181246 11.734792,11.1808 11.64097,11.178103 11.603505,11.178103 11.486198,11.179888 11.486198,11.131908 11.487662,11.035945 11.487662,10.998086 11.485734,10.878813" style="fill: white" /><polygon type="contour" points="11.179421,10.922792 11.178102,11.008636 11.178102,11.047455 11.178881,11.178882 11.128339,11.178882 11.035943,11.178103 10.998084,11.178103 10.878811,11.179423 10.880309,11.047454 10.880475,11.036041 10.880475,10.998382 10.879497,10.879499 10.92214,10.879499 11.024014,10.880652 11.047452,10.880312 11.179421,10.878813" style="fill: white" /><polygon type="contour" points="10.722624,10.998382 10.722624,11.03604 10.722634,11.047455 10.72286,11.178882 10.61765,11.179451 10.428199,11.179451 10.428199,11.12845 10.427933,11.032912 10.427972,10.879538 10.525998,10.879499 10.722594,10.879499" style="fill: white" /><polygon type="contour" points="10.723098,11.935407 10.722792,12.134609 10.722792,12.234768 10.690226,12.235668 10.647585,12.2368 10.63983,12.237308 10.564325,12.241407 10.468551,12.235195 10.431127,12.235092 10.42846,12.148823 10.428204,12.148846 10.428204,12.094443 10.427706,12.087644 10.427785,12.087026 10.427785,12.062377 10.427752,12.062325 10.427776,12.062305 10.427807,11.975882 10.427807,11.934909 10.629234,11.934909" style="fill: white" /><polygon type="contour" points="11.179349,11.935132 11.178881,11.980275 11.178881,12.062586 11.028563,12.062863 11.012467,12.062838 10.913031,12.062678 10.879497,12.062626 10.879335,12.018606 10.879335,11.935233 10.923604,11.935233 11.021765,11.934703" style="fill: white" /><polygon type="contour" points="11.008635,11.487664 11.047452,11.487664 11.179886,11.4862 11.179886,11.528534 11.177929,11.621901 11.178213,11.653236 11.181243,11.787416 11.128723,11.787416 11.036109,11.785346 10.997792,11.785346 10.879335,11.786809 10.880431,11.653236 10.880556,11.618551 10.880309,11.603507 10.878811,11.485736 10.922789,11.485736" style="fill: white" /><polygon type="contour" points="10.526946,11.4862 10.723099,11.4862 10.722634,11.603507 10.722603,11.63458 10.722663,11.653236 10.723058,11.787416 10.428098,11.787416 10.428272,11.734913 10.427942,11.641105 10.427932,11.638545 10.427971,11.485288" style="fill: white" /><polygon type="contour" points="10.214707,11.528491 10.211938,11.613834 10.211951,11.653237 10.214653,11.787416 10.144282,11.787416 9.966517,11.7872 9.966516,11.78727 9.944683,11.78727 9.782398,11.787268 9.783189,11.73587 9.785248,11.638864 9.785186,11.603507 9.783044,11.4862 9.844663,11.4862 10.011344,11.486834 10.045867,11.486352 10.076384,11.485288 10.214707,11.485288" style="fill: white" /><polygon type="contour" points="9.944683,11.935268 10.046433,11.935268 10.214653,11.935246 10.214411,11.981352 10.214411,12.062515 10.160575,12.062698 9.966684,12.062678 9.966684,12.062684 9.883456,12.06261 9.783189,12.062523 9.782398,12.016189 9.782398,11.935132" style="fill: white" /><polygon type="contour" points="9.348267,11.97981 9.348267,12.062523 9.2981,12.062567 9.165015,12.062684 9.165016,12.062678 8.971124,12.062698 8.917036,12.062516 8.917046,12.015559 8.917046,11.935246 8.987416,11.935246 9.165184,11.935278 9.165184,11.935268 9.187016,11.935268 9.349303,11.935132" style="fill: white" /><polygon type="contour" points="8.98178,11.486199 9.164943,11.486873 9.164946,11.486665 9.186533,11.486665 9.350302,11.4862 9.348358,11.528341 9.346151,11.626579 9.346688,11.653237 9.352968,11.787416 9.187016,11.78727 9.085267,11.78727 8.917046,11.787416 8.917004,11.692901 8.919748,11.653237 8.919753,11.641105 8.919753,11.603269 8.916994,11.485763" style="fill: white" /><polygon type="contour" points="8.703758,11.603269 8.703758,11.641105 8.703797,11.653237 8.703601,11.787416 8.408643,11.787416 8.408807,11.735677 8.409148,11.616059 8.408785,11.603507 8.407426,11.4862 8.508504,11.485763 8.703727,11.485763" style="fill: white" /><polygon type="contour" points="8.703575,12.021205 8.703391,12.04445 8.703496,12.11715 8.703496,12.148846 8.703239,12.148823 8.700572,12.235092 8.607408,12.234672 8.525096,12.234643 8.441474,12.235668 8.408909,12.234768 8.408603,12.031834 8.408603,11.935407 8.608705,11.935407 8.703893,11.934909" style="fill: white" /><polygon type="contour" points="8.252365,11.935233 8.252202,11.977637 8.252202,12.062626 8.218666,12.062678 8.103132,12.062863 7.952819,12.062586 7.952351,12.016189 7.952351,11.935132 8.083674,11.934775 8.133903,11.934775" style="fill: white" /><polygon type="contour" points="7.645871,11.935233 7.645502,11.978089 7.645502,12.062686 7.61277,12.062679 7.505995,12.062851 7.385348,12.062697 7.344285,12.062646 7.344285,11.935246 7.397839,11.935246 7.490612,11.934775 7.507178,11.93469" style="fill: white" /><polygon type="contour" points="7.478467,11.487569 7.490731,11.487664 7.528194,11.487664 7.645502,11.4862 7.645502,11.528533 7.643892,11.622144 7.644133,11.653237 7.645871,11.787727 7.528695,11.785346 7.478467,11.785346 7.344284,11.787416 7.343974,11.692901 7.346354,11.653236 7.346354,11.603006 7.343974,11.485831" style="fill: white" /><polygon type="contour" points="7.196926,11.603007 7.196926,11.653236 7.196456,11.787416 7.069056,11.787416 7.069002,11.746351 7.068845,11.623386 7.069015,11.4862 7.113094,11.485831 7.196468,11.485831" style="fill: white" /><polygon type="contour" points="7.196347,12.062531 7.192669,12.062638 7.192669,12.234247 7.151795,12.235727 6.888259,12.243443 6.893093,12.044294 6.896397,11.939868 6.961707,11.939089 6.982855,11.939031 7.069061,11.939031 7.06917,11.935354 7.196347,11.935354" style="fill: white" />
</svg>
