<svg width="19.131698" height="19.131699">
<polygon type="contour" points="8.31906,10.826484 8.31727,11.105477 8.026224,11.105477 8.025752,10.828819 8.025752,10.814784 8.032485,10.815327 8.318577,10.813126" style="fill: white" /><polygon type="contour" points="8.318864,11.44025 8.319028,11.65238 8.201093,11.65247 8.026299,11.65247 8.026106,11.529897 8.026106,11.385067 8.280064,11.38472 8.318763,11.38472" style="fill: white" /><polygon type="contour" points="8.258667,12.017565 8.318978,12.017565 8.318902,12.046863 8.318902,12.224774 8.277244,12.224774 8.026065,12.224316 8.026065,12.117254 8.026299,12.017186" style="fill: white" /><polygon type="contour" points="8.31688,12.530731 8.317295,12.558534 8.315906,12.821701 8.135742,12.819039 8.026176,12.820239 8.026176,12.702282 8.026155,12.593105 8.026155,12.530803 8.277947,12.530637" style="fill: white" /><polygon type="contour" points="6.419922,12.529996 6.540862,12.531195 6.600506,12.531195 6.600506,12.820272 6.528746,12.823408 6.300628,12.831073 6.30908,12.617663 6.312734,12.529884" style="fill: white" /><polygon type="contour" points="6.602001,12.122225 6.602001,12.224503 6.486499,12.224503 6.486456,12.125166 6.48692,12.017381 6.559646,12.017381 6.602444,12.017334" style="fill: white" /><polygon type="contour" points="6.602426,11.544049 6.602444,11.652335 6.531226,11.652335 6.48692,11.65238 6.486376,11.519903 6.486426,11.385067 6.601926,11.385067" style="fill: white" /><polygon type="contour" points="7.114514,11.544048 7.114319,11.65238 6.983854,11.65238 6.907168,11.652335 6.907316,11.544049 6.907386,11.385077 7.0305,11.38507 7.114514,11.38507" style="fill: white" /><polygon type="contour" points="7.114319,12.017381 7.114319,12.147847 7.114366,12.224535 7.009475,12.224503 6.907199,12.224503 6.907168,12.096775 6.907168,12.017334 7.034924,12.017334" style="fill: white" /><polygon type="contour" points="7.114366,12.600476 7.114319,12.644783 7.006535,12.645246 6.907199,12.645201 6.907199,12.529701 7.009476,12.529701 7.114366,12.529258" style="fill: white" /><polygon type="contour" points="7.587651,12.529275 7.746634,12.529775 7.746634,12.645276 7.611799,12.645326 7.47932,12.644783 7.47932,12.572055 7.479365,12.529258" style="fill: white" /><polygon type="contour" points="7.746624,12.117254 7.746624,12.224316 7.587651,12.224387 7.479365,12.224535 7.479365,12.096775 7.47932,12.017381 7.647694,12.017381 7.746631,12.017186" style="fill: white" /><polygon type="contour" points="7.746631,11.544048 7.746631,11.65247 7.587651,11.65247 7.47932,11.65238 7.47932,11.484006 7.47923,11.38507 7.587651,11.38507 7.61739,11.385078 7.746634,11.385067" style="fill: white" /><polygon type="contour" points="7.514697,10.812937 7.746982,10.812937 7.746982,10.851636 7.746634,11.105596 7.601804,11.105596 7.47923,11.105402 7.479551,10.873855 7.479551,10.812835" style="fill: white" /><polygon type="contour" points="7.114136,10.873032 7.114513,11.105402 7.014447,11.105637 6.907386,11.105637 6.906929,10.854455 6.906929,10.812798 6.949443,10.812722 7.114136,10.812722" style="fill: white" /><polygon type="contour" points="6.601066,10.853751 6.600898,11.105546 6.44533,11.105546 6.311463,11.105526 6.312611,10.995752 6.309989,10.815853 6.349099,10.81616 6.600972,10.814821" style="fill: white" /><polygon type="contour" points="6.498232,6.308059 6.600516,6.311101 6.600533,6.405087 6.600397,6.451643 6.600506,6.540863 6.600506,6.600508 6.434993,6.600746 6.312734,6.601818 6.309087,6.504951 6.300628,6.30063" style="fill: white" /><polygon type="contour" points="7.114319,6.486921 7.114319,6.559648 7.114366,6.602446 7.009476,6.602003 6.907199,6.602003 6.907199,6.486501 7.006535,6.486458" style="fill: white" /><polygon type="contour" points="8.318978,6.949444 8.318978,7.114139 8.258667,7.114139 8.026299,7.114515 8.026065,7.01445 8.026065,6.907388 8.277244,6.90693 8.318902,6.90693" style="fill: white" /><polygon type="contour" points="7.746631,7.587653 7.746624,7.617393 7.746634,7.746637 7.587651,7.746634 7.47923,7.746634 7.47923,7.587653 7.47932,7.479322 7.647695,7.479322 7.746631,7.479232" style="fill: white" /><polygon type="contour" points="8.257844,7.479553 8.318865,7.479553 8.318763,7.514699 8.318763,7.746984 8.280064,7.746984 8.026106,7.746637 8.026106,7.601806 8.026299,7.479232" style="fill: white" /><polygon type="contour" points="8.316374,8.032486 8.318577,8.318579 8.311245,8.318463 8.307679,8.31894 8.305217,8.319062 8.025752,8.31692 8.025752,8.302884 8.026224,8.026226 8.302881,8.025753 8.316917,8.025753" style="fill: white" /><polygon type="contour" points="7.746982,8.280065 7.746982,8.318765 7.691451,8.318866 7.47932,8.319031 7.47923,8.201095 7.47923,8.026302 7.601804,8.026108 7.746634,8.026108" style="fill: white" /><polygon type="contour" points="6.601066,8.277951 6.600972,8.316882 6.573168,8.31723 6.310001,8.315839 6.312664,8.135485 6.311463,8.026179 6.445331,8.026157 6.600898,8.026157" style="fill: white" /><polygon type="contour" points="7.114514,8.026302 7.114136,8.258669 7.114136,8.31898 7.084838,8.318904 6.906929,8.318904 6.906929,8.277246 6.907386,8.026067 7.014447,8.026067" style="fill: white" /><polygon type="contour" points="7.114319,7.647696 7.114514,7.746634 7.014448,7.746626 6.907386,7.746626 6.907316,7.587653 6.907168,7.479368 7.034925,7.479368 7.114319,7.479322" style="fill: white" /><polygon type="contour" points="6.602444,7.479368 6.602426,7.587654 6.601926,7.746637 6.486426,7.746637 6.486376,7.6118 6.48692,7.479322 6.559645,7.479322" style="fill: white" /><polygon type="contour" points="6.602001,7.009478 6.602444,7.114368 6.531227,7.114368 6.48692,7.114322 6.486456,7.006537 6.486499,6.907201 6.602001,6.907201" style="fill: white" /><polygon type="contour" points="7.114366,7.034926 7.114319,7.114322 6.983853,7.114322 6.907168,7.114368 6.907199,7.009478 6.907199,6.907201 7.034924,6.907169 7.114366,6.907169" style="fill: white" /><polygon type="contour" points="7.587651,6.907317 7.746624,6.907388 7.746631,7.030504 7.746631,7.114516 7.587651,7.114516 7.47932,7.114322 7.47932,6.983855 7.479365,6.907169" style="fill: white" /><polygon type="contour" points="7.746634,6.486428 7.746386,6.539596 7.746386,6.601963 7.587651,6.602428 7.479365,6.602446 7.479365,6.531227 7.47932,6.486921 7.611799,6.486378" style="fill: white" /><polygon type="contour" points="8.315543,6.349101 8.31688,6.600973 8.277947,6.601067 8.026155,6.6009 8.026155,6.538598 8.026289,6.511283 8.026289,6.377331 8.026223,6.349599 8.026176,6.311464 8.135897,6.312691 8.315864,6.310011" style="fill: white" /><polygon type="contour" points="12.822619,6.514038 12.818967,6.601818 12.711776,6.601708 12.590835,6.600508 12.531193,6.600508 12.531193,6.311432 12.602952,6.308295 12.831073,6.30063" style="fill: white" /><polygon type="contour" points="12.645244,7.006537 12.644779,7.114322 12.572053,7.114322 12.529256,7.114369 12.529699,7.009478 12.529699,6.907201 12.6452,6.907201" style="fill: white" /><polygon type="contour" points="12.820238,8.026179 12.81909,8.135951 12.821711,8.315852 12.7826,8.315545 12.530728,8.316882 12.530634,8.277951 12.530802,8.026157 12.686369,8.026157" style="fill: white" /><polygon type="contour" points="12.645325,7.6118 12.645275,7.746637 12.592106,7.746388 12.52974,7.746388 12.529274,7.587653 12.529256,7.479368 12.600472,7.479368 12.644781,7.479322" style="fill: white" /><polygon type="contour" points="12.224533,7.479368 12.224385,7.587653 12.224314,7.746626 12.101197,7.746634 12.017184,7.746634 12.017184,7.587653 12.017379,7.479322 12.147846,7.479322" style="fill: white" /><polygon type="contour" points="11.105475,8.026226 11.105475,8.317273 10.826482,8.319062 10.824021,8.31894 10.813124,8.318579 10.81324,8.311247 10.812762,8.307681 10.81264,8.30522 10.814784,8.025753 10.828819,8.025753" style="fill: white" /><polygon type="contour" points="11.105594,7.601806 11.105594,7.746637 10.851634,7.746984 10.812936,7.746984 10.812834,7.691453 10.81267,7.479322 10.930605,7.479232 11.105401,7.479232" style="fill: white" /><polygon type="contour" points="11.105635,6.907388 11.105635,7.01445 11.105401,7.114515 10.873031,7.114139 10.812721,7.114139 10.812797,7.08484 10.812797,6.90693 10.854454,6.90693" style="fill: white" /><polygon type="contour" points="10.995957,6.312665 11.105524,6.311464 11.105524,6.429422 11.105544,6.538597 11.105544,6.6009 10.853752,6.601067 10.81482,6.600973 10.814404,6.57317 10.815794,6.310003" style="fill: white" /><polygon type="contour" points="11.652378,6.486921 11.652378,6.559647 11.652333,6.602446 11.544046,6.602428 11.385313,6.601963 11.385313,6.539596 11.385066,6.486428 11.519902,6.486378" style="fill: white" /><polygon type="contour" points="12.224501,6.486501 12.224501,6.602003 12.122223,6.602003 12.017332,6.602446 12.017332,6.531227 12.017378,6.486921 12.125164,6.486458" style="fill: white" /><polygon type="contour" points="12.122224,6.907201 12.224501,6.907201 12.224533,7.034926 12.224533,7.114369 12.096773,7.114369 12.017378,7.114322 12.017378,6.983855 12.017332,6.907169" style="fill: white" /><polygon type="contour" points="11.652333,7.034927 11.652378,7.114322 11.484006,7.114322 11.385069,7.114516 11.385076,7.014449 11.385076,6.907388 11.544047,6.907317 11.652333,6.907169" style="fill: white" /><polygon type="contour" points="11.652378,7.479322 11.652378,7.647697 11.652468,7.746634 11.544046,7.746634 11.514309,7.746626 11.385066,7.746637 11.385069,7.587654 11.385069,7.479232 11.544046,7.479232" style="fill: white" /><polygon type="contour" points="11.652467,8.026302 11.652148,8.257846 11.652148,8.318867 11.617003,8.318765 11.384718,8.318765 11.384718,8.280065 11.385066,8.026108 11.529894,8.026108" style="fill: white" /><polygon type="contour" points="12.224771,8.277246 12.224771,8.318904 12.182256,8.31898 12.017564,8.31898 12.017564,8.258669 12.017184,8.026302 12.117251,8.026067 12.224314,8.026067" style="fill: white" /><polygon type="contour" points="12.821699,10.815866 12.819036,10.996218 12.820238,11.105526 12.68637,11.105546 12.530802,11.105546 12.530634,10.853751 12.530728,10.814821 12.55853,10.814473" style="fill: white" /><polygon type="contour" points="12.645325,11.519903 12.644781,11.65238 12.572054,11.65238 12.529256,11.652335 12.529274,11.544049 12.529774,11.385067 12.645275,11.385067" style="fill: white" /><polygon type="contour" points="12.117251,11.385078 12.224314,11.385078 12.224385,11.544049 12.224533,11.652335 12.096772,11.652335 12.017379,11.65238 12.017379,11.484007 12.017184,11.38507" style="fill: white" /><polygon type="contour" points="12.046862,10.812798 12.224771,10.812798 12.224771,10.854455 12.224314,11.105637 12.117251,11.105637 12.017184,11.105402 12.017564,10.873032 12.017564,10.812722" style="fill: white" /><polygon type="contour" points="11.652148,10.873855 11.652468,11.105402 11.529894,11.105596 11.385066,11.105596 11.384718,10.851636 11.384718,10.812937 11.440248,10.812835 11.652148,10.812835" style="fill: white" /><polygon type="contour" points="11.105475,10.814431 11.105475,11.105477 10.814429,11.105477 10.81264,10.826484 10.812762,10.824023 10.813124,10.813126 10.820455,10.813242 10.824021,10.812764 10.826482,10.812642" style="fill: white" /><polygon type="contour" points="11.105594,11.385067 11.105594,11.529897 11.105401,11.65247 10.873855,11.652151 10.812834,11.652151 10.812936,11.617006 10.812936,11.38472 10.851634,11.38472" style="fill: white" /><polygon type="contour" points="11.544046,11.38507 11.652468,11.38507 11.652468,11.544048 11.652378,11.65238 11.484005,11.65238 11.385069,11.65247 11.385069,11.544049 11.385076,11.514309 11.385066,11.385067" style="fill: white" /><polygon type="contour" points="11.652378,12.017381 11.652378,12.147847 11.652333,12.224536 11.544046,12.224386 11.385076,12.224316 11.385069,12.101198 11.385069,12.017186 11.544046,12.017186" style="fill: white" /><polygon type="contour" points="11.105635,12.117254 11.105635,12.224315 10.854454,12.224774 10.812797,12.224774 10.812721,12.182259 10.812721,12.017565 10.873031,12.017565 11.105401,12.017186" style="fill: white" /><polygon type="contour" points="11.105544,12.530803 11.105544,12.593106 11.105411,12.620418 11.105411,12.754371 11.105475,12.782104 11.105524,12.820239 10.995802,12.819013 10.815837,12.821693 10.816158,12.782602 10.814821,12.530731 10.853752,12.530636" style="fill: white" /><polygon type="contour" points="11.652333,12.600476 11.652378,12.644783 11.519902,12.645326 11.385066,12.645276 11.385313,12.592106 11.385313,12.529741 11.544046,12.529275 11.652333,12.529258" style="fill: white" /><polygon type="contour" points="12.122223,12.529701 12.224501,12.529701 12.224501,12.645201 12.125164,12.645246 12.017379,12.644782 12.017379,12.572055 12.017332,12.529258" style="fill: white" /><polygon type="contour" points="12.224501,12.122226 12.224501,12.224503 12.096773,12.224535 12.017332,12.224535 12.017332,12.096776 12.017379,12.017381 12.147845,12.017381 12.224533,12.017334" style="fill: white" /><polygon type="contour" points="12.644781,12.017381 12.645245,12.125166 12.6452,12.224503 12.529699,12.224503 12.529699,12.122225 12.529256,12.017334 12.600472,12.017334" style="fill: white" /><polygon type="contour" points="12.822613,12.626752 12.831072,12.831074 12.633167,12.823497 12.531024,12.820441 12.531024,12.689348 12.531193,12.590837 12.531193,12.531195 12.696707,12.530955 12.818967,12.529884" style="fill: white" />
</svg>
