<svg width="19.131698" height="19.131699">
<polygon type="contour" points="9.799336,10.406346 9.799336,10.407776 9.799313,10.42775 9.799313,10.574751 9.799336,10.59914 9.77601,10.599173 9.711958,10.599173 9.711958,10.701179 9.71205,10.765822 9.654165,10.765787 9.619944,10.765929 9.565501,10.766592 9.55605,10.766291 9.511319,10.765929 9.477261,10.765787 9.419651,10.765822 9.419743,10.701179 9.419743,10.599173 9.355689,10.599173 9.332364,10.59914 9.332364,10.597536 9.332387,10.57475 9.332387,10.42775 9.332364,10.406346 9.333876,10.406346 9.355689,10.406316 9.77601,10.406316" style="fill: white" /><polygon type="contour" points="10.427749,10.406411 10.574749,10.406411 10.599138,10.406346 10.59916,10.42775 10.59916,10.487863 10.700732,10.487863 10.748688,10.487906 10.765877,10.48787 10.765966,10.493757 10.770137,10.625766 10.770557,10.635923 10.773307,10.662976 10.773583,10.773586 10.580629,10.768128 10.552214,10.767004 10.537749,10.766816 10.48925,10.767423 10.488728,10.752065 10.488728,10.737336 10.488641,10.736622 10.487973,10.705848 10.487858,10.684704 10.487858,10.599162 10.427748,10.599162 10.406344,10.59914 10.406344,10.597535 10.406409,10.574751 10.406409,10.427751 10.406344,10.406346 10.407773,10.406346" style="fill: white" /><polygon type="contour" points="10.765966,8.637945 10.765876,8.643834 10.700732,8.643841 10.59916,8.643841 10.59916,8.703952 10.599138,8.725358 10.597534,8.725358 10.574749,8.725293 10.427749,8.725293 10.406344,8.725358 10.406344,8.723928 10.406409,8.703952 10.406409,8.55695 10.406344,8.532562 10.427749,8.532541 10.487862,8.532541 10.487862,8.467509 10.487858,8.446999 10.487973,8.425855 10.488641,8.395082 10.488728,8.379638 10.48925,8.36428 10.537748,8.364888 10.580629,8.363576 10.773583,8.358118" style="fill: white" /><polygon type="contour" points="10.427748,9.332389 10.574749,9.332389 10.599138,9.332366 10.59916,9.355111 10.599171,9.355692 10.599171,9.419745 10.701176,9.419745 10.76582,9.419654 10.765804,9.477862 10.76667,9.557224 10.766627,9.566202 10.765804,9.654115 10.76582,9.712051 10.701177,9.711959 10.599171,9.711959 10.599171,9.776011 10.599138,9.799338 10.597533,9.799338 10.57475,9.799315 10.427748,9.799315 10.406344,9.799338 10.406344,9.797825 10.406314,9.776011 10.406314,9.355691 10.406344,9.332366 10.407774,9.332366" style="fill: white" /><polygon type="contour" points="8.551071,8.363576 8.579486,8.3647 8.593951,8.364888 8.642451,8.36428 8.642973,8.379638 8.642973,8.394368 8.643059,8.395082 8.643726,8.425856 8.643843,8.446999 8.643843,8.532541 8.70395,8.532541 8.725356,8.532562 8.725356,8.534166 8.725291,8.55695 8.725291,8.703952 8.725356,8.725358 8.723926,8.725358 8.70395,8.725293 8.556947,8.725293 8.532559,8.725358 8.532538,8.703952 8.532538,8.643841 8.430969,8.643841 8.383012,8.643797 8.365823,8.643834 8.365733,8.637946 8.361561,8.505937 8.361141,8.495782 8.358392,8.468728 8.358117,8.358118" style="fill: white" /><polygon type="contour" points="9.575649,8.365412 9.62038,8.365774 9.654439,8.365917 9.71205,8.365882 9.711958,8.430524 9.711958,8.53253 9.77601,8.53253 9.799336,8.532561 9.799336,8.534165 9.799313,8.556951 9.799313,8.703953 9.799336,8.725358 9.797823,8.725358 9.77601,8.725388 9.355689,8.725388 9.332364,8.725358 9.332364,8.723927 9.332387,8.703953 9.332387,8.55695 9.332364,8.532561 9.355689,8.53253 9.419743,8.53253 9.419743,8.430524 9.419651,8.365882 9.477534,8.365917 9.511756,8.365774 9.566198,8.365112" style="fill: white" /><polygon type="contour" points="9.35569,9.332429 9.77601,9.332429 9.799336,9.332366 9.799336,9.333877 9.799272,9.355692 9.799272,9.776011 9.799336,9.799338 9.797824,9.799338 9.776009,9.799274 9.35569,9.799274 9.332364,9.799338 9.332364,9.797825 9.332427,9.776011 9.332427,9.355691 9.332364,9.332366 9.333875,9.332366" style="fill: white" /><polygon type="contour" points="8.556948,9.332389 8.703951,9.332389 8.725356,9.332366 8.725356,9.333878 8.725386,9.355691 8.725386,9.776011 8.725356,9.799338 8.723925,9.799338 8.703951,9.799315 8.556947,9.799315 8.532559,9.799338 8.532538,9.77644 8.532527,9.776012 8.532527,9.711959 8.430522,9.711959 8.36588,9.712051 8.365897,9.65384 8.36503,9.57448 8.365074,9.565501 8.365897,9.477587 8.36588,9.419654 8.430523,9.419745 8.532527,9.419745 8.532527,9.355691 8.532558,9.332366 8.534162,9.332366" style="fill: white" /><polygon type="contour" points="8.556947,10.406411 8.70395,10.406411 8.725356,10.406346 8.725356,10.407775 8.725291,10.427751 8.725291,10.574751 8.725356,10.59914 8.703951,10.599162 8.643839,10.599162 8.643839,10.664194 8.643843,10.684704 8.643726,10.705847 8.643058,10.736622 8.642973,10.752065 8.642451,10.767423 8.593951,10.766816 8.551071,10.768129 8.358117,10.773586 8.365733,10.493758 8.365823,10.48787 8.430968,10.487863 8.532538,10.487863 8.532538,10.427751 8.532559,10.406346 8.534163,10.406346" style="fill: white" />
</svg>
