<svg width="19.131698" height="19.131699">
<polygon type="contour" points="10.720016,10.615349 10.720234,10.62958 10.721624,10.673545 10.721763,10.676927 10.72268,10.685937 10.722772,10.722774 10.65851,10.720956 10.649047,10.720583 10.64423,10.72052 10.441795,10.723055 10.439617,10.658953 10.439617,10.597471 10.439256,10.594491 10.438954,10.580582 10.438836,10.553147 10.438836,10.438838 10.719745,10.438838" style="fill: white" /><polygon type="contour" points="9.711101,9.711102 9.4206,9.711102 9.4206,9.420602 9.711101,9.420602" style="fill: white" /><polygon type="contour" points="9.711101,10.212296 9.4206,10.212296 9.4206,9.937326 9.711101,9.937326" style="fill: white" /><polygon type="contour" points="9.194376,10.438486 9.194376,10.552497 9.107379,10.55273 9.061394,10.552915 9.004387,10.552749 8.919793,10.552621 8.919793,10.43862 8.947926,10.43862 9.018724,10.438444 9.018724,10.438537 9.107379,10.438424" style="fill: white" /><polygon type="contour" points="8.692864,10.553147 8.692746,10.580582 8.692444,10.59449 8.692082,10.658954 8.689905,10.723055 8.487469,10.720519 8.473189,10.720956 8.408928,10.722775 8.411465,10.62958 8.411683,10.615349 8.411955,10.438838 8.692864,10.438838" style="fill: white" /><polygon type="contour" points="8.693306,9.618611 8.693083,9.711102 8.408459,9.711102 8.407963,9.665601 8.408443,9.565502 8.408915,9.515097 8.408459,9.420602 8.693306,9.420602" style="fill: white" /><polygon type="contour" points="8.693277,10.024323 8.693164,10.112978 8.693258,10.112979 8.693082,10.183776 8.693082,10.21191 8.579082,10.21191 8.578954,10.127315 8.578787,10.070304 8.578972,10.024323 8.579207,9.937326 8.693216,9.937326" style="fill: white" /><polygon type="contour" points="9.00411,9.937052 9.09245,9.937052 9.09245,9.937051 9.164766,9.937326 9.194376,9.937326 9.19465,10.024323 9.19465,10.127592 9.194811,10.212296 9.107378,10.211877 9.018726,10.210709 9.018723,10.211681 8.947926,10.21191 8.919793,10.21191 8.920022,10.127314 8.920022,10.112979 8.920993,10.112979 8.919824,10.024324 8.919407,9.93689" style="fill: white" /><polygon type="contour" points="9.194376,9.711102 8.919407,9.711102 8.919407,9.503796 8.919607,9.420602 9.194376,9.420602" style="fill: white" /><polygon type="contour" points="9.19465,9.004111 9.19465,9.092452 9.194376,9.164768 9.194376,9.194378 9.107378,9.194652 9.018731,9.194652 8.946452,9.194378 8.917655,9.194378 8.919927,9.10738 8.92018,9.067583 8.919793,8.947929 8.919793,8.919795 9.004387,8.920023 9.018724,8.920023 9.018724,8.920994 9.107378,8.919826 9.194811,8.919409" style="fill: white" /><polygon type="contour" points="8.693082,8.947929 8.693258,9.018725 8.692656,9.018725 8.693379,9.107379 8.693418,9.194378 8.579207,9.194378 8.578972,9.10738 8.578787,9.061397 8.578953,9.004388 8.579082,8.919795 8.693082,8.919795" style="fill: white" /><polygon type="contour" points="8.692083,8.472749 8.692083,8.534233 8.692444,8.537213 8.692746,8.551122 8.692864,8.578557 8.692864,8.692866 8.411955,8.692866 8.411683,8.516354 8.411465,8.502123 8.410075,8.458158 8.409935,8.454776 8.409019,8.445766 8.408927,8.408929 8.473189,8.410747 8.482653,8.411121 8.487469,8.411184 8.689905,8.408647" style="fill: white" /><polygon type="contour" points="9.107379,8.578974 9.194376,8.579207 9.194376,8.693218 9.107379,8.693279 9.018724,8.693166 9.018723,8.69326 8.947926,8.693084 8.919793,8.693084 8.919793,8.579084 9.004387,8.578956 9.061394,8.578789" style="fill: white" /><polygon type="contour" points="10.64423,8.411184 10.65851,8.410747 10.722772,8.408929 10.720234,8.502123 10.720016,8.516354 10.719745,8.692866 10.438836,8.692866 10.438836,8.578557 10.438954,8.551122 10.439256,8.537213 10.439617,8.472749 10.441795,8.408647" style="fill: white" /><polygon type="contour" points="10.127313,8.578956 10.211908,8.579084 10.211908,8.693084 10.183774,8.693084 10.112977,8.69326 10.112977,8.692658 10.024322,8.693381 9.937324,8.69342 9.937324,8.579208 10.024321,8.578974 10.070304,8.578789" style="fill: white" /><polygon type="contour" points="9.670662,8.411772 9.711101,8.4121 9.711101,8.693308 9.51309,8.693308 9.4206,8.693085 9.4206,8.4121 9.511649,8.409121 9.566199,8.408457" style="fill: white" /><polygon type="contour" points="9.711101,8.919609 9.711101,9.194378 9.4206,9.194378 9.4206,8.919409 9.627906,8.919409" style="fill: white" /><polygon type="contour" points="10.024321,8.919928 10.064046,8.92018 10.183773,8.919795 10.211908,8.919795 10.211678,9.004388 10.211678,9.018725 10.211209,9.018725 10.211773,9.10738 10.212093,9.194814 10.127489,9.194652 10.03925,9.194652 9.966933,9.194378 9.937324,9.194378 9.93705,9.10738 9.93705,9.004213 9.937324,8.917656" style="fill: white" /><polygon type="contour" points="10.552747,9.004388 10.552913,9.061397 10.552729,9.10738 10.552494,9.194378 10.438281,9.194378 10.43832,9.107379 10.439043,9.018726 10.438442,9.018725 10.438618,8.947929 10.438618,8.919795 10.552619,8.919795" style="fill: white" /><polygon type="contour" points="10.723738,9.466101 10.723258,9.566201 10.722786,9.616606 10.723241,9.711102 10.438393,9.711102 10.438393,9.420602 10.723241,9.420602" style="fill: white" /><polygon type="contour" points="10.552728,10.024323 10.552913,10.070304 10.552747,10.127315 10.552619,10.21191 10.438618,10.21191 10.438618,10.183776 10.438442,10.112979 10.439043,10.112979 10.43832,10.024324 10.438281,9.937326 10.552494,9.937326" style="fill: white" /><polygon type="contour" points="10.212093,9.711102 9.937324,9.711102 9.937324,9.420602 10.212093,9.420602" style="fill: white" /><polygon type="contour" points="10.211773,10.024323 10.211519,10.064192 10.211908,10.183775 10.211908,10.21191 10.127312,10.211681 10.112977,10.211681 10.112977,10.210709 10.024322,10.211877 9.937324,10.214251 9.93705,10.127592 9.93705,10.039252 9.937324,9.966935 9.937324,9.937326 10.024321,9.937052 10.03925,9.937052 10.03925,9.937221 10.183628,9.93689 10.212093,9.93689" style="fill: white" /><polygon type="contour" points="10.112976,10.438537 10.112977,10.438444 10.183774,10.43862 10.211908,10.43862 10.211908,10.552621 10.127313,10.552749 10.070304,10.552915 10.024321,10.552731 9.937324,10.552497 9.937324,10.438485 10.024321,10.438424" style="fill: white" /><polygon type="contour" points="9.711101,10.719604 9.620049,10.722583 9.5655,10.723247 9.461038,10.719932 9.4206,10.719604 9.4206,10.438618 9.711101,10.438618" style="fill: white" />
</svg>
