<svg width="19.131698" height="19.131699">
<polygon type="contour" points="15.830321,3.30138 15.830321,3.36263 15.830117,3.453964 15.830296,3.634606 15.744497,3.634279 15.658374,3.634279 15.655465,3.634404 15.64011,3.63439 15.497311,3.63439 15.497311,3.491591 15.497297,3.476236 15.497424,3.387204 15.497067,3.383028 15.496976,3.301526 15.562817,3.301373 15.564394,3.301102" style="fill: white" /><polygon type="contour" points="5.578853,10.489293 5.803742,10.494627 5.802847,10.837271 5.802697,10.875216 5.802277,10.948765 5.80199,11.034174 5.8019,11.157355 5.801943,11.182279 5.801508,11.35348 5.80112,11.481302 5.801073,11.519457 5.799437,12.021254 5.799375,12.047245 5.799361,12.05229 5.555949,12.05229 5.55594,12.051171 5.555908,11.921081 5.556158,11.78569 5.556282,11.648183 5.556476,11.248129 5.556152,10.482218" style="fill: white" /><polygon type="contour" points="5.135215,10.717685 5.134803,11.033453 5.135105,11.183901 5.134823,11.380153 5.135255,11.580156 5.135171,11.625018 5.135171,11.976812 5.135193,12.035485 5.135107,12.047246 5.13495,12.05229 4.802451,12.05229 4.802497,12.050285 4.802718,12.04262 4.802732,12.004016 4.802732,11.461074 4.802802,11.414441 4.802613,11.25573 4.802492,11.229034 4.80214,11.034837 4.802038,11.030188 4.802165,10.947419 4.802165,10.511538 4.803087,10.492394 4.814247,10.491077 4.840031,10.496112 5.135379,10.459453" style="fill: white" /><polygon type="contour" points="4.290509,10.472798 4.31972,10.463003 4.319625,11.245568 4.319491,11.643469 4.319567,11.749169 4.319869,11.900122 4.319824,12.05229 4.123937,12.05229 4.123894,11.826439 4.124112,11.628422 4.124138,11.592019 4.123966,11.197922 4.124012,10.405316" style="fill: white" /><polygon type="contour" points="3.583733,10.458072 3.633966,10.453381 3.63397,10.621256 3.634052,10.77375 3.634592,11.649977 3.634387,11.841898 3.634337,12.052289 3.434586,12.052289 3.411637,12.05229 3.396337,12.05229 3.396387,11.841898 3.396592,11.649978 3.39671,11.108221 3.396656,10.796411 3.39669,10.772682 3.3967,10.528293 3.396539,10.404104" style="fill: white" /><polygon type="contour" points="3.568883,3.301373 3.634724,3.301526 3.634278,3.387204 3.634278,3.47333 3.634402,3.476237 3.634389,3.49159 3.634389,3.63439 3.491588,3.63439 3.476236,3.634404 3.387203,3.634279 3.383026,3.634634 3.301403,3.634606 3.301582,3.453964 3.301378,3.36263 3.301378,3.301379 3.567303,3.301101" style="fill: white" /><polygon type="contour" points="3.58491,6.597299 3.634278,6.597299 3.634237,6.668817 3.634274,6.698253 3.491474,6.698253 3.492007,6.62841 3.491937,6.596842" style="fill: white" /><polygon type="contour" points="3.596087,7.079415 3.634337,7.079415 3.634349,7.080532 3.6344,7.23238 3.63463,7.383936 3.634611,7.488454 3.634494,7.865203 3.634267,8.675423 3.598112,8.671762 3.396539,8.706963 3.396689,7.890581 3.396634,7.495551 3.396732,7.442081 3.396459,7.266515 3.396337,7.078828" style="fill: white" /><polygon type="contour" points="4.319807,7.291091 4.319471,7.48352 4.319432,8.635068 4.315638,8.635083 4.228819,8.755116 4.124184,8.7349 4.12405,8.271203 4.124102,8.241933 4.124176,7.885567 4.123957,7.483735 4.123808,7.291204 4.123937,7.079415 4.319824,7.079415" style="fill: white" /><polygon type="contour" points="4.319413,6.668817 4.319494,6.698253 4.124194,6.698253 4.123999,6.628891 4.123914,6.597299 4.319214,6.597299" style="fill: white" /><polygon type="contour" points="5.134956,6.668818 5.134856,6.698362 4.891655,6.698362 4.802473,6.698253 4.802734,6.628892 4.802703,6.597299 5.135203,6.597299" style="fill: white" /><polygon type="contour" points="5.134974,7.084465 5.135193,7.096217 5.135171,7.154891 5.135171,7.506685 5.135254,7.551548 5.134989,7.72043 5.134823,7.751549 5.135248,8.04347 5.134601,8.097528 5.134665,8.112282 5.135223,8.576306 5.135216,8.647489 5.079017,8.639885 4.802654,8.673134 4.802133,8.335098 4.802681,8.098801 4.802492,7.90267 4.802802,7.717262 4.802732,7.670629 4.802733,7.127686 4.802718,7.089083 4.802606,7.084458 4.802451,7.079415 5.13495,7.079415" style="fill: white" /><polygon type="contour" points="5.799759,7.201721 5.800155,7.323474 5.801119,7.650401 5.801508,7.778223 5.801943,7.949424 5.8019,7.974348 5.80199,8.097528 5.802277,8.182938 5.802697,8.256487 5.802847,8.294433 5.803742,8.637077 5.568247,8.636306 5.556346,8.639856 5.556066,7.483519 5.555874,7.291091 5.555949,7.079415 5.799361,7.079415" style="fill: white" /><polygon type="contour" points="5.798225,6.668817 5.798375,6.698253 5.611048,6.698253 5.556232,6.698362 5.556235,6.629899 5.556236,6.629899 5.556238,6.597299 5.726499,6.596776 5.798521,6.596776" style="fill: white" /><polygon type="contour" points="7.483517,5.556068 8.639854,5.556349 8.636303,5.56825 8.637076,5.803745 8.169054,5.802477 7.949423,5.801946 7.835694,5.801652 7.683381,5.801264 7.323473,5.800158 7.201719,5.799762 7.079413,5.799363 7.079413,5.555952 7.291089,5.555877" style="fill: white" /><polygon type="contour" points="6.698361,5.741576 6.698252,5.798377 6.62743,5.798712 6.596774,5.798523 6.596774,5.726503 6.597298,5.556239 6.668816,5.556236 6.698361,5.556234" style="fill: white" /><polygon type="contour" points="5.746254,5.555994 5.758337,5.555931 5.764169,5.556031 5.769944,5.556129 5.774842,5.555914 5.775354,5.555989 5.786188,5.556237 5.799943,5.556234 5.818839,5.555869 5.84187,5.55629 5.866993,5.556422 5.8939,5.556155 5.917635,5.556152 5.947668,5.55629 5.982168,5.556314 5.982961,5.55625 5.983978,5.556348 6.008591,5.556155 6.009841,5.556005 6.013221,5.555998 6.021009,5.556079 6.041582,5.556291 6.061042,5.556232 6.078599,5.556001 6.089611,5.556054 6.143857,5.556117 6.143625,5.660884 6.143625,5.796803 6.09695,5.796776 6.089973,5.796818 6.078635,5.796414 6.063299,5.79649 6.044524,5.796496 6.03851,5.796525 6.015616,5.796404 6.014529,5.796444 6.010767,5.796399 6.008788,5.796441 5.986751,5.796776 5.982162,5.796776 5.934696,5.796056 5.934562,5.796319 5.923842,5.796174 5.915645,5.79611 5.904056,5.796327 5.796235,5.796236 5.796325,5.904058 5.796081,5.917111 5.796429,5.942787 5.79673,5.956976 5.796791,5.957202 5.796731,5.964167 5.796561,5.983771 5.796502,6.008807 5.796397,6.010769 5.796442,6.014532 5.796402,6.01562 5.796257,6.03957 5.796245,6.045567 5.796488,6.0633 5.796412,6.078637 5.796816,6.089973 5.796775,6.096952 5.796784,6.143859 5.556114,6.143859 5.556099,6.121771 5.556024,6.096951 5.556052,6.089613 5.555907,6.07712 5.556231,6.061044 5.556341,6.043694 5.556307,6.038347 5.556386,6.033965 5.556089,6.010265 5.556099,6.007726 5.556248,5.988482 5.556288,5.94767 5.55615,5.917637 5.556153,5.893902 5.55642,5.866994 5.556289,5.841873 5.555867,5.81884 5.556231,5.799947 5.556395,5.787279 5.556086,5.779631 5.556138,5.777941 5.556048,5.775769 5.555993,5.740652 5.556223,5.728668 5.556093,5.717229 5.555938,5.706542 5.556038,5.69703 5.556134,5.693252 5.555983,5.689112 5.556108,5.686708 5.556111,5.556112 5.680886,5.555998 5.681976,5.555997 5.686383,5.555958 5.692513,5.556167 5.701354,5.556006 5.711431,5.556098 5.722605,5.555998 5.724921,5.556127 5.734196,5.556028 5.737716,5.555865" style="fill: white" /><polygon type="contour" points="5.135837,5.800201 5.135051,5.808634 5.135783,5.835172 5.135811,5.860814 5.134975,5.883704 5.135844,5.903409 5.135446,5.917638 5.135496,5.936774 5.135575,5.972122 5.135737,5.986459 5.133842,5.987022 5.135189,6.028233 5.134881,6.041584 5.134881,6.056368 5.135239,6.063324 5.134919,6.071521 5.1347,6.078602 5.134949,6.085627 5.134999,6.096951 5.134577,6.143701 5.019438,6.143744 4.802206,6.143744 4.802251,6.089975 4.8022,6.078601 4.802455,6.075955 4.801897,6.060567 4.802466,6.046134 4.802541,6.037206 4.802609,6.034977 4.80213,6.018898 4.802754,6.004236 4.802487,5.990675 4.802487,5.981353 4.802543,5.946424 4.802543,5.941446 4.803281,5.925627 4.802,5.909089 4.803404,5.888971 4.803092,5.86777 4.802547,5.843289 4.802592,5.556192 4.971343,5.555935 5.134956,5.555935" style="fill: white" /><polygon type="contour" points="5.134956,4.971346 5.134956,5.134957 4.923877,5.135538 4.802592,5.135538 4.802592,4.923877 4.80267,4.802673 5.038685,4.802673 5.135536,4.802594" style="fill: white" /><polygon type="contour" points="4.319205,5.038687 4.319243,5.135538 4.248004,5.135538 4.123739,5.135466 4.123943,4.923877 4.123776,4.802675 4.254489,4.802675 4.319205,4.802673" style="fill: white" /><polygon type="contour" points="4.319512,5.815673 4.319828,5.836548 4.319165,5.861399 4.319377,5.889801 4.319255,5.917637 4.319264,5.955601 4.319316,5.977195 4.319544,6.000467 4.319538,6.000903 4.319478,6.002905 4.319542,6.007653 4.31937,6.028338 4.319553,6.035475 4.319734,6.055915 4.319604,6.072752 4.319758,6.086005 4.319907,6.094955 4.319719,6.143744 4.266126,6.143658 4.123862,6.143658 4.123862,6.116021 4.1241,6.096951 4.124231,6.093537 4.123789,6.083998 4.124058,6.069427 4.123947,6.052024 4.124146,6.03228 4.12401,6.025057 4.12387,6.003244 4.123967,5.998326 4.123897,5.996179 4.124017,5.995621 4.123651,5.972005 4.123573,5.962007 4.123753,5.937798 4.12381,5.910932 4.123935,5.885126 4.123727,5.85755 4.123964,5.836549 4.124038,5.812383 4.123747,5.794444 4.123739,5.556247 4.210937,5.556247 4.319242,5.556192" style="fill: white" /><polygon type="contour" points="3.491633,5.556112 3.598168,5.556112 3.634574,5.556076 3.634255,5.786189 3.634733,5.799947 3.634428,5.818108 3.634414,5.837112 3.634536,5.841736 3.634788,5.861398 3.634919,5.866995 3.634654,5.893901 3.634651,5.917637 3.634597,5.955925 3.634619,5.956116 3.634751,5.982307 3.634538,6.009387 3.634495,6.01375 3.634577,6.021502 3.634373,6.043694 3.634339,6.063302 3.634407,6.07712 3.634673,6.089089 3.634524,6.096952 3.634448,6.143692 3.491814,6.143692 3.491741,6.143245 3.491669,6.139014 3.491764,6.125855 3.491697,6.122454 3.491715,6.121845 3.491725,6.096951 3.491646,6.094695 3.491916,6.086952 3.491695,6.073964 3.491833,6.057318 3.491462,6.038006 3.49135,6.030988 3.491696,6.013749 3.491638,6.006069 3.491785,6.000326 3.49164,5.99867 3.491311,5.975442 3.491523,5.950227 3.490967,5.889757 3.396606,5.889309 3.38543,5.889261 3.383599,5.889229 3.301204,5.889105 3.301204,5.64111 3.301404,5.556107 3.387203,5.556411 3.47834,5.556017" style="fill: white" /><polygon type="contour" points="3.539084,4.802674 3.634658,4.802675 3.634371,4.983893 3.634434,5.134957 3.491633,5.134957 3.49189,4.923878 3.491833,4.802672" style="fill: white" /><polygon type="contour" points="3.634297,4.203826 3.634658,4.319311 3.592981,4.319206 3.491833,4.319206 3.491859,4.254491 3.491497,4.123521 3.634297,4.123521" style="fill: white" /><polygon type="contour" points="4.254489,4.123778 4.319309,4.123778 4.319309,4.254491 4.319205,4.319206 4.180865,4.319206 4.123776,4.319311 4.123519,4.203826 4.123519,4.123521" style="fill: white" /><polygon type="contour" points="4.319205,3.491834 4.319309,3.539085 4.319309,3.63466 4.203825,3.634298 4.123519,3.634298 4.123519,3.491499 4.19523,3.49144" style="fill: white" /><polygon type="contour" points="5.889259,3.385432 5.889308,3.396608 5.889218,3.490929 5.951479,3.491513 5.953396,3.491875 5.974819,3.491361 5.99865,3.491691 5.999235,3.491691 6.001477,3.491695 6.006067,3.49164 6.013747,3.491697 6.0215,3.49178 6.037389,3.491675 6.057317,3.491833 6.073964,3.491696 6.085625,3.491667 6.094694,3.491647 6.096951,3.491727 6.14369,3.491816 6.143857,3.52566 6.143857,3.634449 6.12177,3.6346 6.09695,3.634526 6.089087,3.634675 6.077118,3.634409 6.061042,3.634733 6.041582,3.634319 6.021009,3.634579 6.014055,3.634556 6.008885,3.634556 5.984659,3.634186 5.980777,3.634221 5.955675,3.634685 5.934028,3.634502 5.888968,3.634454 5.818452,3.634551 5.818201,3.634671 5.774841,3.634415 5.55608,3.634314 5.55608,3.546238 5.556111,3.491634 5.556016,3.478341 5.556409,3.47333 5.556409,3.387204 5.556131,3.383028 5.556104,3.301406 5.641108,3.301205 5.889102,3.301205" style="fill: white" /><polygon type="contour" points="5.134956,3.634435 4.923877,3.634691 4.802673,3.63466 4.802673,3.539086 4.80267,3.491835 4.923876,3.491891 5.134956,3.491634" style="fill: white" /><polygon type="contour" points="5.135536,4.248006 5.135536,4.319245 4.923877,4.319245 4.80267,4.319206 4.80267,4.180867 4.802673,4.123778 4.923876,4.123945 5.135464,4.123741" style="fill: white" /><polygon type="contour" points="5.821952,4.123978 5.845285,4.124068 5.870515,4.123831 5.897416,4.123758 5.923768,4.124104 5.946421,4.124013 5.971455,4.123965 5.981712,4.123899 5.98438,4.123968 6.009764,4.124048 6.014272,4.123944 6.02199,4.124079 6.042054,4.124101 6.063299,4.124039 6.076713,4.123889 6.08961,4.124118 6.096951,4.1241 6.143656,4.123864 6.143742,4.191666 6.143742,4.319721 6.089154,4.319927 6.076712,4.31989 6.061042,4.319702 6.042054,4.319629 6.021501,4.319589 6.013748,4.319419 6.009212,4.319346 5.987168,4.319268 5.984605,4.31932 5.983731,4.319318 5.949532,4.319312 5.923768,4.319402 5.897416,4.319669 5.870515,4.319132 5.845285,4.319369 5.821951,4.319279 5.55619,4.319245 5.556246,4.210939 5.556246,4.123741" style="fill: white" /><polygon type="contour" points="6.143742,4.802208 6.143742,5.01944 6.143699,5.134579 6.119581,5.134579 6.09695,5.135001 6.085626,5.134951 6.07152,5.134921 6.056365,5.134883 6.043692,5.135096 6.028232,5.135191 6.018249,5.135522 6.004309,5.135019 6.001518,5.13493 5.986646,5.135744 5.986352,5.135434 5.936774,5.135499 5.917636,5.135449 5.903407,5.135846 5.883701,5.134976 5.861571,5.135387 5.835171,5.135783 5.808632,5.135051 5.555933,5.134957 5.55619,4.923878 5.55619,4.802594 5.808632,4.802552 5.835171,4.803285 5.860812,4.803313 5.8837,4.802476 5.903407,4.803346 5.921007,4.803116 5.936773,4.803 5.95202,4.802545 5.965967,4.802379 5.972669,4.802663 5.979939,4.802949 5.995146,4.802851 6.007119,4.802593 6.019544,4.802682 6.028785,4.802786 6.085625,4.802452 6.096951,4.802177" style="fill: white" /><polygon type="contour" points="6.698252,4.802475 6.698252,5.048275 6.698361,5.134858 6.629898,5.135093 6.597298,5.135205 6.597298,4.802705 6.668817,4.802459" style="fill: white" /><polygon type="contour" points="6.668816,4.124114 6.698252,4.124195 6.698252,4.319496 6.628891,4.319301 6.597298,4.319216 6.597298,4.123916" style="fill: white" /><polygon type="contour" points="6.698252,3.491475 6.698252,3.634276 6.62889,3.634327 6.597298,3.63428 6.59684,3.541306 6.59684,3.491939 6.668816,3.491438" style="fill: white" /><polygon type="contour" points="7.289802,3.396389 7.481723,3.396592 8.02348,3.396711 8.335289,3.396755 8.35874,3.39674 8.727598,3.39654 8.644542,3.536065 8.675421,3.634268 7.865199,3.634497 7.488452,3.634613 7.383935,3.634632 7.232377,3.634401 7.079413,3.634339 7.079413,3.396339" style="fill: white" /><polygon type="contour" points="7.483733,4.123959 7.885565,4.124178 8.241931,4.124104 8.271201,4.124052 8.734898,4.124186 8.634122,4.316335 8.635068,4.319434 7.483518,4.319473 7.291089,4.319809 7.079413,4.319826 7.079413,4.123939 7.291202,4.123809" style="fill: white" /><polygon type="contour" points="8.673133,4.802655 8.639884,5.079019 8.647487,5.135218 8.576304,5.135225 8.112281,5.134667 8.097527,5.134603 8.043467,5.13525 7.751547,5.134824 7.551547,5.135256 7.506682,5.135172 7.154889,5.135172 7.096216,5.135194 7.084455,5.135107 7.079413,5.134952 7.079413,4.802452 7.081417,4.802498 7.08908,4.80272 7.127685,4.802734 7.670626,4.802734 7.717262,4.802804 7.875971,4.802615 7.902668,4.802492 8.0988,4.802682 8.335097,4.802135" style="fill: white" /><polygon type="contour" points="11.034834,4.802141 11.229032,4.802493 11.414439,4.802804 11.461072,4.802734 12.004015,4.802734 12.042618,4.802719 12.047243,4.802608 12.052287,4.802452 12.052287,5.134951 12.047187,5.135314 12.035372,5.135905 11.976406,5.136949 11.625017,5.135172 11.580154,5.135256 11.411272,5.134992 11.380152,5.134824 11.183898,5.135107 11.033451,5.134804 10.717684,5.135217 10.711439,5.135242 10.459451,5.135381 10.49611,4.840035 10.492392,4.803089 11.030186,4.802039" style="fill: white" /><polygon type="contour" points="12.052287,5.555951 12.052287,5.799363 11.92998,5.799762 11.808226,5.800158 11.448318,5.801264 11.296006,5.801652 11.156407,5.801784 11.055324,5.802022 10.962646,5.802477 10.494624,5.803745 10.489289,5.578855 10.482214,5.556154 11.248128,5.556477 11.648181,5.556284 11.785688,5.55616 11.921079,5.555911" style="fill: white" /><polygon type="contour" points="12.5018,5.556236 12.534402,5.556239 12.534926,5.726503 12.534926,5.798523 12.462884,5.798227 12.433449,5.798377 12.433449,5.61105 12.433339,5.556234" style="fill: white" /><polygon type="contour" points="14.329107,5.556192 14.328198,5.816749 14.329153,5.843288 14.328604,5.867769 14.328295,5.888971 14.3297,5.909089 14.329037,5.924388 14.329157,5.941445 14.329157,5.95638 14.328868,5.969946 14.329534,5.983865 14.328852,5.995147 14.32975,6.010806 14.328952,6.022906 14.329148,6.068947 14.329242,6.075954 14.329351,6.089681 14.329494,6.143744 14.112262,6.143743 13.997124,6.1437 13.997124,6.119583 13.996701,6.096951 13.996752,6.085627 13.997,6.078602 13.99678,6.07152 13.996462,6.063323 13.99682,6.056368 13.996817,6.041583 13.996374,6.025614 13.995968,5.986461 13.995962,5.98646 13.996126,5.972121 13.996202,5.936774 13.996253,5.917638 13.995857,5.903409 13.996123,5.884306 13.995887,5.860814 13.996736,5.836548 13.996649,5.808634 13.996743,5.555935 14.160355,5.555935" style="fill: white" /><polygon type="contour" points="14.920762,5.556247 15.007961,5.556247 15.007952,5.794444 15.00746,5.811766 15.00744,5.833242 15.007836,5.861399 15.007535,5.884305 15.00789,5.910932 15.007743,5.917638 15.007794,5.943939 15.008127,5.962006 15.008049,5.972005 15.007683,5.995621 15.007802,5.996179 15.007732,5.998326 15.00783,6.003244 15.007689,6.025057 15.007554,6.03228 15.007754,6.052024 15.007642,6.069428 15.007911,6.083997 15.007469,6.093538 15.0076,6.096951 15.007838,6.143658 14.940035,6.143744 14.811983,6.143744 14.811927,6.096953 14.811794,6.094955 14.811943,6.086005 14.812096,6.072752 14.811967,6.055916 14.812149,6.035474 14.812329,6.028339 14.812158,6.007652 14.812221,6.002905 14.81216,6.000903 14.812155,6.000467 14.812383,5.977194 14.812434,5.954427 14.812443,5.916405 14.812694,5.88897 14.812536,5.861398 14.812436,5.836549 14.812187,5.815673 14.812325,5.799306 14.812457,5.556192" style="fill: white" /><polygon type="contour" points="15.658373,5.556412 15.744496,5.556412 15.748673,5.556134 15.830296,5.556106 15.830497,5.64111 15.830497,5.889105 15.74627,5.889261 15.735092,5.88931 15.640732,5.889757 15.640166,5.951416 15.64019,5.951781 15.639929,5.955677 15.640388,5.974848 15.640059,5.99867 15.639913,6.000326 15.640061,6.006069 15.640004,6.013749 15.640348,6.030989 15.640237,6.038006 15.640066,6.05826 15.639775,6.074358 15.639784,6.086951 15.640055,6.094695 15.639974,6.096951 15.639885,6.143692 15.606041,6.143859 15.49725,6.143858 15.4971,6.121772 15.497175,6.096952 15.497147,6.089613 15.497198,6.078601 15.497359,6.063301 15.497327,6.043693 15.497435,6.036845 15.497202,6.013223 15.497159,6.008834 15.497532,5.985125 15.497461,5.982414 15.497503,5.982396 15.497027,5.956075 15.497097,5.955804 15.497302,5.933202 15.497248,5.88897 15.497107,5.867179 15.496779,5.865815 15.497136,5.798989 15.496853,5.798674 15.497371,5.781056 15.497387,5.556082 15.585462,5.556082 15.640067,5.556112 15.65336,5.556017" style="fill: white" /><polygon type="contour" points="15.639811,4.923877 15.640067,5.134957 15.497266,5.134957 15.497011,4.923877 15.497043,4.802675 15.592616,4.802674 15.639868,4.802672" style="fill: white" /><polygon type="contour" points="15.640264,4.195231 15.639868,4.319206 15.592617,4.31931 15.497043,4.319311 15.497402,4.203827 15.497402,4.123521 15.640204,4.123521" style="fill: white" /><polygon type="contour" points="15.008181,3.634298 14.877211,3.63466 14.812391,3.63466 14.812391,3.539086 14.812496,3.491835 14.87721,3.491861 15.008181,3.491499" style="fill: white" /><polygon type="contour" points="15.007922,4.254491 15.007922,4.319311 14.877211,4.319311 14.812496,4.319206 14.812496,4.180867 14.812391,4.123778 14.927875,4.123521 15.008181,4.123521" style="fill: white" /><polygon type="contour" points="15.007922,4.802675 15.007756,4.923878 15.007961,5.135466 14.883695,5.135538 14.812457,5.135538 14.812457,4.923877 14.812496,4.802673 14.950832,4.802673" style="fill: white" /><polygon type="contour" points="14.32903,4.802673 14.32903,5.038687 14.329107,5.135538 14.160355,5.134957 13.996744,5.134957 13.996164,4.923877 13.996164,4.802594 14.207824,4.802594" style="fill: white" /><polygon type="contour" points="14.207824,4.123945 14.329027,4.123778 14.329027,4.25449 14.32903,4.319206 14.093013,4.319206 13.996164,4.319245 13.996235,4.210939 13.996235,4.123741" style="fill: white" /><polygon type="contour" points="14.207824,3.491891 14.32903,3.491835 14.329027,3.539086 14.329027,3.63466 14.207823,3.634691 13.996744,3.634435 13.996744,3.491634" style="fill: white" /><polygon type="contour" points="13.575596,3.301406 13.575292,3.387204 13.575684,3.478341 13.575589,3.491634 13.575589,3.598169 13.575626,3.634576 13.344421,3.634414 13.332392,3.634279 13.313594,3.63443 13.294588,3.634415 13.289967,3.634537 13.270302,3.634791 13.264706,3.63492 13.2378,3.634654 13.20979,3.633964 13.167453,3.634005 13.14537,3.634742 13.122261,3.634556 13.117123,3.634556 13.110199,3.634579 13.090118,3.634319 13.070657,3.634733 13.05458,3.634408 13.042088,3.634554 13.034749,3.634526 12.987843,3.634449 12.98801,3.600604 12.98801,3.491816 13.009854,3.491716 13.034749,3.491727 13.037005,3.491647 13.044748,3.491918 13.056929,3.491926 13.074382,3.491834 13.09431,3.491675 13.110199,3.49178 13.117122,3.491757 13.124764,3.491697 13.130222,3.491695 13.132464,3.491691 13.133031,3.491642 13.156259,3.491313 13.181479,3.491524 13.241944,3.490968 13.242392,3.396608 13.242441,3.385431 13.242474,3.3836 13.242596,3.301205 13.490591,3.301205" style="fill: white" /><polygon type="contour" points="13.122486,4.123494 13.14732,4.123968 13.149987,4.123899 13.160244,4.123965 13.185278,4.124013 13.207933,4.124104 13.234279,4.123759 13.261184,4.123831 13.286414,4.124068 13.309747,4.123978 13.575454,4.123741 13.575454,4.210939 13.575509,4.319245 13.309748,4.319279 13.286414,4.319369 13.261185,4.319132 13.23428,4.319669 13.207932,4.319403 13.182166,4.319312 13.147969,4.319318 13.147094,4.31932 13.144531,4.319268 13.122487,4.319346 13.117951,4.319419 13.110199,4.319589 13.089643,4.319629 13.070658,4.319702 13.053099,4.319702 13.042087,4.319757 12.987958,4.319721 12.988044,4.266128 12.988044,4.123864 13.015679,4.123864 13.034749,4.124101 13.042087,4.124119 13.0531,4.124102 13.070657,4.123702 13.089646,4.124101 13.110198,4.123588 13.117952,4.123418" style="fill: white" /><polygon type="contour" points="12.503289,3.492009 12.53486,3.491939 12.534402,3.584912 12.534402,3.63428 12.462883,3.634238 12.433449,3.634276 12.433449,3.491475" style="fill: white" /><polygon type="contour" points="12.052287,3.634339 11.841897,3.634389 11.649976,3.634593 10.773747,3.634053 10.621255,3.633973 10.453379,3.633968 10.491061,3.579155 10.424739,3.39654 11.241117,3.396419 11.636149,3.396636 11.68962,3.396734 11.864594,3.396461 12.052287,3.396339" style="fill: white" /><polygon type="contour" points="12.052287,4.123938 12.052287,4.319826 11.900119,4.319871 11.749168,4.319568 11.643466,4.319493 11.245567,4.319627 10.463002,4.319722 10.472797,4.290511 10.405314,4.124014 11.197921,4.123968 11.592017,4.12414 11.62842,4.124114 11.826438,4.123894" style="fill: white" /><polygon type="contour" points="12.534402,4.319216 12.462883,4.319416 12.433449,4.319496 12.433449,4.124195 12.502809,4.124001 12.534402,4.123915" style="fill: white" /><polygon type="contour" points="12.502808,4.802735 12.534402,4.802704 12.534402,5.135205 12.462883,5.134958 12.433339,5.134858 12.433339,4.891657 12.433449,4.802475" style="fill: white" /><polygon type="contour" points="13.145221,4.802538 13.185277,4.802545 13.194927,4.803 13.210693,4.803116 13.228293,4.803347 13.248,4.802476 13.270128,4.802299 13.296528,4.803285 13.323067,4.802552 13.575509,4.802594 13.575768,4.971346 13.575768,5.134957 13.338129,5.135761 13.323066,5.135052 13.315583,5.134784 13.295152,5.134964 13.270888,5.135814 13.247999,5.134977 13.228293,5.135846 13.214064,5.135449 13.194926,5.135499 13.145342,5.135434 13.145051,5.135743 13.143343,5.135653 13.140061,5.135709 13.127389,5.135019 13.113448,5.135522 13.103466,5.13519 13.090119,5.134883 13.075334,5.134883 13.060179,5.134921 13.046072,5.134951 13.034748,5.135001 12.987843,5.135777 12.987958,5.01944 12.987958,4.802208 13.034749,4.802177 13.046072,4.802452 13.060179,4.802421 13.075334,4.802383 13.088006,4.802597 13.09713,4.802685 13.097714,4.802753 13.116869,4.802863 13.144656,4.801866" style="fill: white" /><polygon type="contour" points="13.397504,5.556028 13.406778,5.556127 13.409095,5.555998 13.418889,5.556065 13.429576,5.555974 13.438448,5.556136 13.445317,5.555958 13.449724,5.555997 13.575589,5.556112 13.575592,5.686708 13.575717,5.689112 13.575566,5.693252 13.575663,5.697031 13.575762,5.706541 13.575606,5.717229 13.575476,5.728668 13.575706,5.740652 13.575651,5.775769 13.57556,5.777942 13.575614,5.779631 13.575305,5.787279 13.575412,5.799307 13.575834,5.818839 13.575409,5.841873 13.575279,5.866994 13.575546,5.893901 13.575617,5.921913 13.575412,5.946423 13.575445,5.980813 13.57534,5.981083 13.575538,6.007585 13.575609,6.009718 13.575665,6.014988 13.57562,6.021011 13.575408,6.041583 13.575467,6.061043 13.575699,6.078601 13.575525,6.089088 13.575584,6.143859 13.470816,6.143627 13.334899,6.143627 13.334925,6.096951 13.335075,6.090266 13.335288,6.078637 13.335212,6.063301 13.335207,6.044526 13.335178,6.038512 13.335298,6.01562 13.335258,6.014532 13.335268,6.010118 13.335197,6.008807 13.334867,5.986784 13.334867,5.980477 13.334936,5.95726 13.334916,5.957175 13.334969,5.956975 13.335317,5.940704 13.335621,5.917113 13.335374,5.904058 13.335466,5.796236 13.227642,5.796327 13.214723,5.796085 13.213684,5.796094 13.176519,5.796568 13.175775,5.796402 13.147388,5.796505 13.124048,5.796442 13.12203,5.796399 13.118219,5.796444 13.117122,5.796405 13.09319,5.796525 13.087175,5.796496 13.0684,5.79649 13.053064,5.796414 13.041727,5.796818 13.034749,5.796776 12.987843,5.796786 12.987843,5.556116 13.009929,5.5561 13.034749,5.556027 13.042088,5.556054 13.05458,5.555909 13.070657,5.556233 13.090119,5.556292 13.110687,5.55608 13.117643,5.556057 13.121858,5.556005 13.123096,5.556153 13.147721,5.556348 13.148738,5.55625 13.149533,5.556314 13.184031,5.55629 13.210406,5.556084 13.237801,5.556156 13.264706,5.556422 13.289831,5.55629 13.312861,5.555869 13.331756,5.556234 13.345512,5.556237 13.35207,5.556087 13.35376,5.55614 13.385436,5.556159 13.393984,5.555865" style="fill: white" /><polygon type="contour" points="13.575826,7.291091 13.575632,7.483519 13.575352,8.639856 13.56345,8.636305 13.327958,8.637077 13.329223,8.169055 13.329756,7.949424 13.33005,7.835695 13.330438,7.683383 13.331544,7.323474 13.331937,7.201722 13.332338,7.079415 13.575751,7.079415" style="fill: white" /><polygon type="contour" points="13.575462,6.597299 13.575466,6.668817 13.575469,6.698362 13.390125,6.698362 13.333326,6.698252 13.332992,6.627433 13.333181,6.596776 13.405201,6.596776" style="fill: white" /><polygon type="contour" points="14.329243,6.668817 14.329227,6.698253 14.083425,6.698253 13.996843,6.698362 13.996608,6.629899 13.996497,6.597299 14.328997,6.597299" style="fill: white" /><polygon type="contour" points="14.329204,7.081419 14.328982,7.089084 14.328967,7.127686 14.328967,7.670628 14.328898,7.717262 14.329087,7.875973 14.329209,7.90267 14.32902,8.0988 14.329565,8.335098 14.329045,8.673134 14.052682,8.639886 13.996483,8.647489 13.996474,8.576307 13.997034,8.112282 13.997098,8.097529 13.996451,8.04347 13.996877,7.751549 13.996446,7.551548 13.996529,7.506685 13.996529,7.154891 13.996507,7.096218 13.996593,7.084457 13.99675,7.079415 14.32925,7.079415" style="fill: white" /><polygon type="contour" points="15.735259,7.080442 15.73524,7.267107 15.734967,7.442081 15.734874,8.642143 15.735119,8.649523 15.73516,8.706963 15.683439,8.712689 15.497433,8.675423 15.497205,7.865203 15.497086,7.488454 15.497067,7.383936 15.4973,7.232379 15.497362,7.079415 15.735362,7.079415" style="fill: white" /><polygon type="contour" points="15.640262,6.668817 15.640226,6.698253 15.497425,6.698253 15.497374,6.628891 15.497421,6.597299 15.590394,6.596842 15.639763,6.596842" style="fill: white" /><polygon type="contour" points="15.007587,6.668817 15.007507,6.698253 14.812207,6.698253 14.812399,6.628892 14.812486,6.597299 15.007786,6.597299" style="fill: white" /><polygon type="contour" points="15.007892,7.291204 15.007742,7.483735 15.007522,7.885567 15.007596,8.241933 15.00765,8.271204 15.007516,8.7349 14.815366,8.634123 14.812265,8.635069 14.812229,7.48352 14.811892,7.29109 14.811874,7.079415 15.007763,7.079415" style="fill: white" /><polygon type="contour" points="15.735161,10.404104 15.735008,10.772681 15.734945,10.796412 15.734989,11.108221 15.735108,11.649978 15.735312,11.842484 15.735362,12.052876 15.535612,12.05229 15.497362,12.05229 15.497312,11.841899 15.497106,11.649977 15.497643,10.77375 15.497726,10.621256 15.497731,10.453381 15.627313,10.395769" style="fill: white" /><polygon type="contour" points="15.007733,11.197921 15.007561,11.592018 15.007588,11.628423 15.007806,11.826439 15.007762,12.05229 14.811874,12.05229 14.811829,11.900121 14.812134,11.74917 14.812209,11.643469 14.812074,11.245568 14.811979,10.463003 14.84119,10.472798 15.007686,10.405316" style="fill: white" /><polygon type="contour" points="14.291667,10.496112 14.328612,10.492394 14.329662,11.030188 14.329561,11.034836 14.329208,11.229034 14.328898,11.41444 14.328967,11.461075 14.328967,12.004017 14.328982,12.04262 14.329093,12.047245 14.32925,12.05229 13.99675,12.05229 13.996727,12.047239 13.996507,12.035485 13.996529,11.976812 13.996529,11.625018 13.996445,11.580155 13.996712,11.411274 13.996877,11.380153 13.996594,11.1839 13.996899,11.033452 13.996484,10.717686 13.996459,10.711441 13.99632,10.459453" style="fill: white" /><polygon type="contour" points="13.575224,11.248129 13.575416,11.648183 13.575541,11.78569 13.575792,11.921081 13.575751,12.05229 13.332338,12.05229 13.331938,11.929982 13.331544,11.808229 13.330438,11.44832 13.33005,11.296008 13.329919,11.15641 13.329679,11.055327 13.329223,10.962648 13.327958,10.494627 13.552846,10.489293 13.575549,10.482218" style="fill: white" /><polygon type="contour" points="13.5756,13.009931 13.575674,13.03475 13.575525,13.042613 13.575792,13.054583 13.575468,13.070659 13.575359,13.088009 13.575393,13.093356 13.575314,13.097737 13.575609,13.121439 13.5756,13.123976 13.575451,13.14319 13.575411,13.184033 13.575616,13.20979 13.575546,13.237802 13.575279,13.264709 13.575409,13.28983 13.575834,13.312863 13.575468,13.331758 13.575305,13.344422 13.575614,13.352072 13.575561,13.353761 13.575652,13.355933 13.575706,13.391052 13.575476,13.403035 13.575606,13.414474 13.575762,13.425162 13.575663,13.434672 13.575566,13.438451 13.575717,13.442591 13.575592,13.444995 13.575589,13.575591 13.450814,13.575705 13.44614,13.575534 13.439186,13.575537 13.430344,13.575698 13.420268,13.575607 13.409095,13.575707 13.406778,13.575577 13.397503,13.575675 13.393984,13.575839 13.385444,13.575709 13.373361,13.575773 13.367529,13.575674 13.361754,13.575576 13.356858,13.57579 13.35635,13.575715 13.345512,13.575465 13.331755,13.575469 13.312862,13.575836 13.28983,13.575414 13.264706,13.575282 13.237801,13.575547 13.210406,13.57562 13.184031,13.575412 13.149526,13.575388 13.148737,13.575454 13.147721,13.575355 13.123107,13.575548 13.121858,13.575698 13.118477,13.575705 13.110687,13.575622 13.090118,13.575411 13.0684,13.575861 13.0531,13.575702 13.042088,13.57565 13.034749,13.575675 12.987843,13.575586 12.988074,13.470817 12.988074,13.3349 13.034748,13.334927 13.041437,13.335078 13.053064,13.33529 13.067051,13.33524 13.087071,13.334987 13.093133,13.334943 13.116083,13.3353 13.11717,13.33526 13.120933,13.335305 13.122912,13.335262 13.144948,13.334928 13.151259,13.334928 13.17419,13.335 13.174524,13.334918 13.174723,13.334971 13.191103,13.335321 13.214589,13.335621 13.227642,13.335375 13.335466,13.335468 13.335374,13.227644 13.335621,13.214446 13.334818,13.174925 13.334909,13.174554 13.335139,13.147933 13.335198,13.122896 13.335303,13.120934 13.335258,13.117171 13.335298,13.116084 13.334942,13.093136 13.334986,13.087072 13.335211,13.068402 13.335287,13.053065 13.335076,13.041438 13.334925,13.03475 13.334916,12.987845 13.575584,12.987845" style="fill: white" /><polygon type="contour" points="13.575463,12.501803 13.575462,12.534404 13.4052,12.534928 13.33318,12.534928 13.333476,12.462887 13.333326,12.433452 13.52065,12.433452 13.575469,12.433342" style="fill: white" /><polygon type="contour" points="14.329227,12.433452 14.328965,12.502812 14.328997,12.534404 13.996497,12.534404 13.996741,12.462887 13.996843,12.433342 14.240044,12.433342" style="fill: white" /><polygon type="contour" points="14.329449,13.041729 14.329501,13.053102 14.329243,13.055749 14.329804,13.071135 14.329233,13.085568 14.329157,13.094494 14.32909,13.096725 14.329568,13.112802 14.329104,13.124494 14.329213,13.141029 14.329213,13.150349 14.329157,13.185281 14.329157,13.190258 14.328417,13.206076 14.3297,13.222614 14.328735,13.241902 14.328605,13.263932 14.329153,13.288414 14.329107,13.575512 14.160355,13.57577 13.996743,13.57577 13.995864,13.331502 13.996649,13.323067 13.995917,13.296532 13.995887,13.270889 13.996723,13.248 13.995857,13.228293 13.996253,13.214065 13.996202,13.194928 13.996126,13.159582 13.995962,13.145241 13.996655,13.14504 13.996865,13.105601 13.996607,13.088009 13.99682,13.075336 13.996462,13.068379 13.996781,13.060181 13.997001,13.053102 13.996752,13.046076 13.996701,13.03475 13.997124,12.988003 14.112262,12.98796 14.329495,12.98796" style="fill: white" /><polygon type="contour" points="14.865574,12.988046 15.007838,12.988046 15.007838,13.015682 15.0076,13.03475 15.007469,13.038166 15.007911,13.047706 15.007642,13.062275 15.007754,13.079679 15.007554,13.099423 15.007689,13.106646 15.00783,13.128459 15.007732,13.133377 15.007802,13.135524 15.007683,13.136082 15.008049,13.159698 15.008127,13.169697 15.007946,13.193902 15.007889,13.220769 15.007763,13.24718 15.007974,13.274153 15.00744,13.298461 15.00746,13.319937 15.007952,13.337259 15.007961,13.575457 14.920762,13.575457 14.812457,13.575512 14.812519,13.316122 14.812436,13.295154 14.812536,13.270305 14.812321,13.241901 14.812443,13.215299 14.812434,13.177276 14.812383,13.154509 14.812155,13.131236 14.81216,13.1308 14.812221,13.128798 14.812158,13.124051 14.81233,13.103363 14.812148,13.096227 14.811966,13.075786 14.812095,13.05895 14.811942,13.045697 14.811793,13.036748 14.811982,12.98796" style="fill: white" /><polygon type="contour" points="15.0077,12.502811 15.007786,12.534404 14.812486,12.534404 14.812287,12.462887 14.812207,12.433452 15.007507,12.433452" style="fill: white" /><polygon type="contour" points="15.639693,12.503292 15.639763,12.534862 15.546789,12.534404 15.497421,12.534404 15.497462,12.462887 15.497425,12.433452 15.640226,12.433452" style="fill: white" /><polygon type="contour" points="15.531094,12.988012 15.639885,12.988012 15.639986,13.009856 15.639975,13.034751 15.640055,13.037007 15.639784,13.04475 15.639775,13.056931 15.639867,13.074386 15.640237,13.093697 15.640283,13.099973 15.639945,13.117124 15.640004,13.124766 15.640006,13.130224 15.640008,13.132466 15.640059,13.133034 15.640388,13.15626 15.64019,13.179922 15.640166,13.180286 15.639939,13.241944 15.735091,13.242393 15.74627,13.242443 15.7481,13.242475 15.830497,13.242597 15.830497,13.490593 15.830296,13.575598 15.744496,13.575292 15.653359,13.575688 15.640068,13.575591 15.533532,13.575591 15.497125,13.575629 15.497511,13.353762 15.497288,13.344421 15.497421,13.332395 15.497271,13.313594 15.497287,13.294592 15.497163,13.289967 15.496911,13.270305 15.49678,13.264709 15.497048,13.237801 15.497048,13.214065 15.497101,13.176305 15.49713,13.176025 15.497588,13.150329 15.497488,13.150028 15.497529,13.149318 15.497452,13.146531 15.497077,13.12284 15.497202,13.118479 15.49712,13.110689 15.497382,13.090121 15.497359,13.068401 15.497292,13.054582 15.497147,13.04209 15.497176,13.03475 15.497252,12.987845" style="fill: white" /><polygon type="contour" points="15.830296,15.497096 15.830117,15.67774 15.830321,15.769074 15.830321,15.830324 15.564394,15.830602 15.562817,15.83033 15.496976,15.830177 15.497422,15.744498 15.497422,15.658376 15.497297,15.655466 15.497311,15.640111 15.497311,15.497314 15.64011,15.497314 15.655465,15.4973 15.744496,15.497425 15.748672,15.49707" style="fill: white" /><polygon type="contour" points="14.329027,15.497044 14.329027,15.592617 14.32903,15.639869 14.207823,15.639811 13.996744,15.640069 13.996744,15.497269 14.207823,15.497013" style="fill: white" /><polygon type="contour" points="14.927875,15.497404 15.008181,15.497404 15.008181,15.640205 14.93647,15.640265 14.812496,15.639868 14.812391,15.592617 14.812391,15.497044" style="fill: white" /><polygon type="contour" points="15.008181,14.927875 15.008181,15.008182 14.87721,15.007925 14.812391,15.007925 14.812391,14.877212 14.812496,14.812498 14.950832,14.812498 15.007922,14.812393" style="fill: white" /><polygon type="contour" points="15.538718,14.812498 15.639868,14.812499 15.639842,14.877213 15.640203,15.008182 15.581695,15.008182 15.497402,15.008183 15.497043,14.877212 15.497043,14.812393" style="fill: white" /><polygon type="contour" points="15.639811,14.207827 15.639868,14.329032 15.592616,14.32903 15.497043,14.329029 15.497327,14.147809 15.497266,13.996746 15.640067,13.996746" style="fill: white" /><polygon type="contour" points="15.007961,13.996238 15.007756,14.207825 15.007922,14.329029 14.877211,14.329029 14.812496,14.329031 14.812496,14.093014 14.812457,13.996166 14.883695,13.996166" style="fill: white" /><polygon type="contour" points="14.329107,14.207825 14.32903,14.329031 14.093014,14.329031 13.996164,14.329109 13.996744,14.160356 13.996744,13.996746 14.207823,13.996166 14.329107,13.996166" style="fill: white" /><polygon type="contour" points="14.32903,14.812498 14.32903,14.950835 14.329027,15.007925 14.207823,15.007759 13.996235,15.007962 13.996164,14.883696 13.996164,14.812459 14.207823,14.812459" style="fill: white" /><polygon type="contour" points="13.070657,14.812001 13.088006,14.812183 13.109709,14.812114 13.117428,14.812284 13.121935,14.812356 13.14732,14.812436 13.149987,14.812384 13.150939,14.812386 13.185278,14.812391 13.207932,14.8123 13.23428,14.812036 13.261184,14.812572 13.286414,14.812335 13.309747,14.812424 13.329304,14.811839 13.575509,14.812459 13.575454,14.920764 13.575454,15.007962 13.329305,15.007655 13.309747,15.007727 13.286414,15.007635 13.261185,15.007871 13.234279,15.007945 13.207933,15.007599 13.185278,15.007691 13.160244,15.007739 13.149987,15.007805 13.14732,15.007736 13.121935,15.007656 13.117427,15.007759 13.109709,15.007624 13.088007,15.007714 13.070658,15.008001 13.053099,15.007602 13.042088,15.007585 13.034748,15.007602 12.988044,15.007839 12.987958,14.940036 12.987958,14.811983 13.042087,14.811946 13.054987,14.811815" style="fill: white" /><polygon type="contour" points="13.053099,15.497201 13.0684,15.497362 13.090118,15.497383 13.110199,15.497123 13.117123,15.497146 13.12226,15.497146 13.146484,15.497517 13.150327,15.497482 13.172885,15.497675 13.197672,15.497203 13.242732,15.497251 13.312704,15.497152 13.312956,15.497033 13.356858,15.497289 13.57562,15.49739 13.57562,15.585464 13.575589,15.640069 13.575684,15.653362 13.575292,15.658373 13.575292,15.744498 13.575566,15.748675 13.575596,15.830298 13.490591,15.830499 13.242596,15.830499 13.24244,15.746271 13.242392,15.735093 13.242481,15.640739 13.180285,15.640168 13.179921,15.640193 13.176025,15.639932 13.156852,15.640389 13.133032,15.64006 13.132463,15.640009 13.130222,15.640007 13.124764,15.640005 13.117123,15.639947 13.110198,15.639924 13.093695,15.640239 13.073441,15.640068 13.057737,15.640006 13.046072,15.640037 13.037005,15.640057 13.034749,15.639978 12.98801,15.639888 12.987843,15.606043 12.987843,15.497255 13.009929,15.497103 13.034748,15.497178 13.042612,15.497028" style="fill: white" /><polygon type="contour" points="12.534402,15.497422 12.53486,15.590395 12.53486,15.639765 12.462884,15.640264 12.433449,15.640228 12.433449,15.497426 12.502808,15.497376" style="fill: white" /><polygon type="contour" points="11.841896,15.497314 12.052287,15.497364 12.052875,15.697113 12.052875,15.735363 12.051869,15.735261 11.865188,15.735242 11.689619,15.73497 11.63615,15.735066 11.241118,15.735012 10.424739,15.735164 10.491061,15.552546 10.453379,15.497734 10.621254,15.497729 10.773748,15.497646 11.649975,15.497109" style="fill: white" /><polygon type="contour" points="12.052287,14.811876 12.052287,15.007766 11.826437,15.007809 11.628421,15.007591 11.592016,15.007564 11.19792,15.007736 10.405314,15.007689 10.472797,14.841191 10.463002,14.81198 11.245567,14.812075 11.643467,14.812212 11.749168,14.812136 11.900119,14.811831" style="fill: white" /><polygon type="contour" points="12.502808,14.812402 12.534402,14.812488 12.534402,15.007787 12.462884,15.007589 12.433449,15.007509 12.433449,14.812209" style="fill: white" /><polygon type="contour" points="12.534402,14.328998 12.462884,14.329245 12.433449,14.329229 12.433449,14.083427 12.433339,13.996846 12.501801,13.99661 12.534402,13.996499" style="fill: white" /><polygon type="contour" points="13.248,13.996726 13.270887,13.995888 13.295152,13.996739 13.323067,13.99665 13.575767,13.996746 13.575509,14.207826 13.575509,14.329109 13.315583,14.32942 13.295152,14.32924 13.270129,14.329404 13.247999,14.329228 13.228292,14.328357 13.214065,14.328754 13.194927,14.328704 13.179677,14.329158 13.165732,14.329324 13.159029,14.32904 13.151758,14.328753 13.138182,14.329135 13.124579,14.329109 13.112155,14.329022 13.102914,14.328917 13.046073,14.32925 13.034749,14.329526 12.987958,14.329495 12.987958,14.112263 12.988001,13.997125 13.012118,13.997125 13.034748,13.996702 13.046073,13.996753 13.060179,13.996781 13.075333,13.996821 13.088006,13.996609 13.103467,13.996512 13.113448,13.996182 13.12739,13.996684 13.130181,13.996773 13.145051,13.99596 13.145342,13.996269 13.194926,13.996205 13.210693,13.996087 13.228293,13.995859" style="fill: white" /><polygon type="contour" points="12.534926,13.333181 12.534926,13.405202 12.534402,13.575464 12.462884,13.575467 12.433339,13.57547 12.433339,13.390127 12.433449,13.333327 12.504268,13.332992" style="fill: white" /><polygon type="contour" points="10.837268,13.328851 10.875215,13.329003 10.948762,13.329424 11.034171,13.329711 11.157353,13.329801 11.182278,13.329759 11.353478,13.330193 11.481299,13.330579 11.519456,13.330627 12.021252,13.332263 12.047244,13.332326 12.052287,13.332339 12.052287,13.575752 12.05117,13.575762 11.921079,13.575793 11.785688,13.575543 11.648181,13.575419 11.248128,13.575227 10.482215,13.57555 10.48929,13.552847 10.494624,13.327959" style="fill: white" /><polygon type="contour" points="10.717683,13.996486 11.033451,13.9969 11.183899,13.996597 11.380151,13.996879 11.580153,13.996448 11.625016,13.996532 11.976811,13.996532 12.035483,13.99651 12.047244,13.996596 12.052287,13.996754 12.052287,14.329253 12.050283,14.329207 12.042618,14.328982 12.004016,14.32897 11.461073,14.32897 11.414438,14.328901 11.255728,14.329089 11.229032,14.329209 11.034834,14.329562 11.030186,14.329663 10.947417,14.329537 10.511537,14.329537 10.492392,14.328614 10.491075,14.317454 10.49611,14.291669 10.459451,13.996322" style="fill: white" /><polygon type="contour" points="8.636303,13.563453 8.639853,13.575355 7.483517,13.575634 7.291088,13.575828 7.079413,13.575752 7.079413,13.332339 7.20172,13.331938 7.323472,13.331545 7.6504,13.33058 7.778221,13.330193 7.949422,13.329758 7.974346,13.329801 8.097528,13.329711 8.182935,13.329424 8.256486,13.329002 8.294431,13.32885 8.637076,13.327958" style="fill: white" /><polygon type="contour" points="7.720608,15.497189 8.675556,15.497441 8.678846,15.53129 8.644541,15.595639 8.730011,15.629215 8.727598,15.735163 8.359019,15.735011 8.33529,15.735047 8.02348,15.734993 7.481723,15.735111 7.289803,15.735314 7.079413,15.735363 7.079413,15.497364 7.08053,15.497352 7.232377,15.4973 7.383935,15.497069" style="fill: white" /><polygon type="contour" points="4.971344,13.996746 5.134956,13.996746 5.135536,14.207825 5.135536,14.329109 4.923877,14.329109 4.80267,14.329031 4.80267,14.093015 4.802592,13.996166" style="fill: white" /><polygon type="contour" points="4.319309,15.592618 4.319205,15.639869 4.25449,15.639843 4.123519,15.640206 4.123519,15.497404 4.25449,15.497044 4.319309,15.497044" style="fill: white" /><polygon type="contour" points="5.134956,15.497269 5.134956,15.640069 4.923877,15.639811 4.80267,15.639869 4.802673,15.592617 4.802673,15.497044 4.923877,15.497013" style="fill: white" /><polygon type="contour" points="5.135464,14.920763 5.135464,15.007962 4.923876,15.007758 4.802673,15.007925 4.802673,14.877213 4.80267,14.812498 5.038686,14.812498 5.135536,14.812459" style="fill: white" /><polygon type="contour" points="6.143742,14.811982 6.143656,14.865575 6.143656,15.007839 6.116019,15.007839 6.096951,15.007601 6.089154,15.007776 6.0786,15.007602 6.061042,15.008 6.042053,15.007602 6.02199,15.007624 6.014272,15.007759 6.009764,15.007656 5.98438,15.007736 5.981712,15.007805 5.971455,15.007739 5.946421,15.007691 5.923767,15.007599 5.897416,15.007945 5.870515,15.007872 5.845286,15.007635 5.821951,15.007726 5.802395,15.007655 5.556246,15.007962 5.556246,14.920764 5.55619,14.812459 5.821952,14.812424 5.845285,14.812335 5.870515,14.812572 5.897416,14.812036 5.923767,14.8123 5.946422,14.812391 5.98076,14.812386 5.981711,14.812384 5.98438,14.812436 6.009764,14.812356 6.014271,14.812284 6.02199,14.812114 6.043693,14.812183 6.061042,14.812001 6.076712,14.811815 6.089153,14.811776" style="fill: white" /><polygon type="contour" points="5.893899,15.49705 5.917636,15.49705 5.955675,15.497019 5.981369,15.497482 5.985215,15.497517 6.008885,15.497146 6.014055,15.497146 6.021009,15.497123 6.041582,15.497383 6.061042,15.49697 6.077118,15.497294 6.089087,15.497028 6.09695,15.497178 6.14369,15.497088 6.14369,15.639888 6.139012,15.639869 6.125853,15.639937 6.121843,15.639989 6.09695,15.639978 6.094693,15.640057 6.08695,15.639786 6.073964,15.640007 6.057316,15.63987 6.037389,15.640027 6.021501,15.639924 6.014578,15.639947 6.006935,15.640005 6.001477,15.640007 5.999236,15.64001 5.998649,15.640012 5.975412,15.640342 5.951738,15.640142 5.951479,15.640192 5.889217,15.639973 5.889308,15.735093 5.889259,15.746272 5.889227,15.748103 5.889102,15.830499 5.641107,15.830499 5.556104,15.830299 5.556409,15.744499 5.556016,15.653361 5.556111,15.640068 5.556111,15.533534 5.556074,15.497128 5.786187,15.497448 5.799304,15.497423 5.818107,15.497273 5.83711,15.497289 5.841734,15.497167 5.861397,15.496913 5.866994,15.496783" style="fill: white" /><polygon type="contour" points="6.668816,15.497463 6.698252,15.497426 6.698252,15.640228 6.628409,15.639694 6.59684,15.639765 6.597298,15.546791 6.597298,15.497422" style="fill: white" /><polygon type="contour" points="6.698252,15.007509 6.628891,15.007701 6.597298,15.007787 6.597298,14.812489 6.668816,14.812288 6.698252,14.812209" style="fill: white" /><polygon type="contour" points="7.291089,14.811894 7.483517,14.812232 8.635068,14.812268 8.635082,14.816062 8.755114,14.902882 8.734898,15.007518 8.271201,15.007652 8.241931,15.007599 7.885565,15.007525 7.483733,15.007745 7.291202,15.007896 7.079413,15.007766 7.079413,14.811876" style="fill: white" /><polygon type="contour" points="7.506682,13.996532 7.551547,13.996448 7.720427,13.996712 7.751547,13.996879 8.043467,13.996453 8.097527,13.9971 8.112281,13.997036 8.576305,13.996478 8.647487,13.996485 8.639884,14.052684 8.673133,14.329047 8.335097,14.329567 8.0988,14.32902 7.902668,14.32921 7.717261,14.328901 7.670627,14.32897 7.127685,14.328969 7.089081,14.328983 7.084455,14.329095 7.079413,14.329253 7.079413,13.996754 7.084512,13.996392 7.096328,13.9958 7.155294,13.994754" style="fill: white" /><polygon type="contour" points="6.668816,13.333477 6.698252,13.333327 6.698252,13.520652 6.698361,13.57547 6.629899,13.575466 6.597298,13.575463 6.596774,13.405202 6.596774,13.333181" style="fill: white" /><polygon type="contour" points="6.668816,13.996743 6.698361,13.996846 6.698361,14.240046 6.698252,14.329229 6.62889,14.328967 6.597298,14.328999 6.597298,13.996499" style="fill: white" /><polygon type="contour" points="5.917636,13.996256 5.936774,13.996205 5.986352,13.996269 5.986645,13.995959 5.988353,13.996049 5.991634,13.995994 6.004309,13.996684 6.018248,13.996182 6.028232,13.996513 6.041581,13.996821 6.056365,13.996821 6.071519,13.996782 6.085625,13.996753 6.09695,13.996701 6.143857,13.995927 6.143742,14.112263 6.143742,14.329496 6.09695,14.329527 6.085626,14.329251 6.071519,14.329283 6.056366,14.32932 6.041581,14.329321 6.032265,14.329257 6.014829,14.328841 5.987034,14.32984 5.986476,14.329164 5.946421,14.329158 5.936774,14.328704 5.917635,14.328754 5.903408,14.328357 5.8837,14.329228 5.86157,14.329404 5.835171,14.328419 5.55619,14.329109 5.555933,14.160356 5.555933,13.996746 5.786146,13.996537 5.808633,13.99665 5.83517,13.99592 5.861571,13.996316 5.883701,13.996726 5.903407,13.995859" style="fill: white" /><polygon type="contour" points="5.660883,12.988076 5.796801,12.988076 5.796774,13.03475 5.796623,13.041438 5.796412,13.053065 5.796462,13.067051 5.796494,13.087178 5.796522,13.093191 5.796402,13.116084 5.796442,13.117171 5.796431,13.121585 5.796502,13.122895 5.796833,13.144919 5.796833,13.151226 5.796764,13.174446 5.796783,13.174526 5.79673,13.174726 5.79638,13.191106 5.796081,13.214591 5.796325,13.227645 5.796235,13.335468 5.904056,13.335375 5.934036,13.335939 5.934701,13.335269 5.955151,13.335129 5.955925,13.335301 5.98431,13.335199 6.008788,13.335262 6.010767,13.335305 6.014529,13.33526 6.015616,13.3353 6.03851,13.335179 6.044524,13.335208 6.063299,13.335213 6.078635,13.33529 6.089972,13.334886 6.096951,13.334927 6.143857,13.334918 6.143857,13.575587 6.12177,13.575602 6.09695,13.575676 6.089087,13.575528 6.077118,13.575794 6.061042,13.57547 6.041582,13.575411 6.021009,13.575623 6.014055,13.575646 6.009841,13.575698 6.008589,13.575548 5.983978,13.575355 5.982962,13.575454 5.982175,13.575388 5.947667,13.575413 5.92191,13.57562 5.8939,13.575548 5.866993,13.575282 5.84187,13.575413 5.818838,13.575836 5.799944,13.57547 5.787277,13.575306 5.779628,13.575617 5.77794,13.575563 5.746263,13.575544 5.737716,13.575839 5.734196,13.575675 5.724921,13.575577 5.722605,13.575707 5.711431,13.575607 5.702123,13.57573 5.693251,13.575569 5.686383,13.575746 5.681976,13.575707 5.556111,13.575591 5.556108,13.444995 5.555983,13.442591 5.556134,13.438451 5.556038,13.434673 5.555938,13.425161 5.556095,13.414473 5.556224,13.403035 5.555993,13.391052 5.556047,13.355934 5.556138,13.353762 5.556086,13.352072 5.556235,13.345513 5.556289,13.332395 5.555867,13.312863 5.556289,13.28983 5.55642,13.264709 5.556153,13.237801 5.556151,13.214065 5.556288,13.185281 5.556255,13.150891 5.556359,13.150624 5.55616,13.124117 5.556089,13.121983 5.556034,13.116714 5.556078,13.110689 5.55629,13.090121 5.556231,13.070659 5.555906,13.054583 5.556052,13.04209 5.556024,13.034751 5.556114,12.987845" style="fill: white" /><polygon type="contour" points="5.798375,12.433452 5.79871,12.504271 5.798521,12.534928 5.726499,12.534928 5.556238,12.534404 5.556234,12.462887 5.556232,12.433342 5.741574,12.433342" style="fill: white" /><polygon type="contour" points="5.135091,12.501803 5.135203,12.534404 4.802703,12.534404 4.802457,12.462887 4.802473,12.433452 5.048273,12.433452 5.134856,12.433342" style="fill: white" /><polygon type="contour" points="5.134577,12.988003 5.134577,13.01212 5.134999,13.034751 5.134949,13.046075 5.1347,13.053101 5.134919,13.060182 5.135239,13.068378 5.134881,13.075336 5.134881,13.09012 5.135325,13.106089 5.135728,13.145238 5.135736,13.14524 5.135575,13.159581 5.135497,13.194928 5.135615,13.210697 5.135844,13.228294 5.135578,13.247397 5.135384,13.27013 5.134962,13.295154 5.135051,13.323068 5.134956,13.57577 4.971343,13.57577 4.802592,13.575512 4.803502,13.314954 4.802546,13.288415 4.803091,13.263932 4.802964,13.241901 4.802,13.222614 4.802661,13.207317 4.802543,13.190257 4.802543,13.175322 4.80283,13.161758 4.802165,13.147835 4.802685,13.133925 4.80195,13.120897 4.802747,13.108797 4.802549,13.062755 4.802456,13.055749 4.802349,13.042022 4.802205,12.98796 5.019438,12.98796" style="fill: white" /><polygon type="contour" points="4.319774,13.03475 4.319906,13.036748 4.319757,13.045698 4.319604,13.05895 4.319734,13.075785 4.319553,13.096226 4.31937,13.103363 4.319542,13.12405 4.319479,13.128798 4.319538,13.1308 4.319544,13.131236 4.319316,13.154508 4.319264,13.176102 4.319255,13.214065 4.319004,13.242731 4.319165,13.270305 4.319398,13.293768 4.319512,13.316031 4.319374,13.332395 4.319243,13.575512 4.210937,13.575457 4.123739,13.575457 4.123746,13.337259 4.12424,13.319936 4.12426,13.298461 4.123726,13.274153 4.124166,13.247398 4.12381,13.220768 4.123955,13.214066 4.123903,13.187764 4.123573,13.169697 4.123651,13.159698 4.124017,13.136082 4.123897,13.135524 4.123967,13.133377 4.12387,13.128459 4.12401,13.106646 4.124146,13.099423 4.123947,13.079679 4.124058,13.062276 4.123789,13.047706 4.124232,13.038166 4.1241,13.034751 4.123862,12.988046 4.191664,12.98796 4.319719,12.98796" style="fill: white" /><polygon type="contour" points="4.3193,12.502811 4.319214,12.534404 4.123914,12.534404 4.124112,12.462887 4.124194,12.433452 4.319495,12.433452" style="fill: white" /><polygon type="contour" points="3.634325,12.502812 3.634278,12.534404 3.541304,12.534862 3.491937,12.534862 3.491437,12.462886 3.491474,12.433452 3.528708,12.433452 3.634273,12.433451" style="fill: white" /><polygon type="contour" points="3.634599,13.00993 3.634523,13.03475 3.634673,13.042614 3.634499,13.053102 3.634731,13.070659 3.634317,13.09012 3.634274,13.096276 3.634554,13.117645 3.634554,13.122814 3.634184,13.146485 3.634123,13.148979 3.633919,13.173042 3.634398,13.1985 3.634452,13.242732 3.634001,13.264525 3.63433,13.265298 3.634065,13.311682 3.634428,13.313055 3.634428,13.313594 3.634214,13.331699 3.634621,13.336144 3.634612,13.355616 3.634311,13.575622 3.546237,13.575622 3.491632,13.575591 3.47834,13.575688 3.473328,13.575292 3.387202,13.575292 3.383026,13.575568 3.301404,13.575598 3.301204,13.490592 3.301204,13.242597 3.38543,13.242443 3.396607,13.242394 3.491759,13.242486 3.491534,13.180286 3.49151,13.179922 3.49177,13.176026 3.491311,13.156854 3.49164,13.133033 3.491689,13.132467 3.491693,13.130224 3.491695,13.124766 3.491755,13.117125 3.491641,13.100564 3.491673,13.094311 3.491634,13.073443 3.491694,13.057739 3.491916,13.044749 3.491646,13.037006 3.491724,13.034751 3.491815,12.988012 3.525657,12.987845 3.634448,12.987845" style="fill: white" /><polygon type="contour" points="3.63469,14.207825 3.634658,14.329029 3.539084,14.32903 3.491833,14.329032 3.49189,14.207826 3.491633,13.996746 3.634434,13.996746" style="fill: white" /><polygon type="contour" points="4.319243,14.207825 4.319205,14.329031 4.180866,14.329031 4.123776,14.329029 4.123943,14.207826 4.123739,13.996238 4.248004,13.996166 4.319243,13.996166" style="fill: white" /><polygon type="contour" points="4.319205,14.812498 4.319205,14.950835 4.319309,15.007925 4.203824,15.008182 4.123519,15.008182 4.123776,14.877212 4.123776,14.812393 4.254489,14.812393" style="fill: white" /><polygon type="contour" points="3.634297,14.927875 3.634297,15.008182 3.491497,15.008182 3.491438,14.936472 3.491833,14.812499 3.539084,14.812394 3.634658,14.812393" style="fill: white" /><polygon type="contour" points="3.387203,15.497425 3.473329,15.497425 3.476236,15.4973 3.491588,15.497314 3.634389,15.497314 3.634389,15.640113 3.634402,15.655466 3.634278,15.744498 3.634632,15.748675 3.634724,15.830177 3.568884,15.83033 3.567304,15.830602 3.301378,15.830324 3.301378,15.769074 3.301581,15.677741 3.301404,15.497096" style="fill: white" />
</svg>
