<svg width="19.131698" height="19.131699">
<polygon type="contour" points="18.027826,17.694626 18.027796,17.724857 18.028446,18.015254 18.028446,18.028448 17.971165,18.028508 17.970825,18.028448 17.694604,18.027808 17.69468,18.01347 17.69468,17.999056 17.694658,17.99857 17.694667,17.987562 17.694676,17.982871 17.694832,17.950416 17.694887,17.930952 17.695216,17.838019 17.695216,17.772191 17.695218,17.695216 17.838017,17.695216 17.93095,17.694887 17.950413,17.694834 17.982869,17.694676 17.98756,17.694669 17.998567,17.69466 18.013468,17.694682 18.014166,17.694622" style="fill: white" /><polygon type="contour" points="15.773585,16.60035 15.773577,16.605796 15.773331,16.726451 15.77318,16.801542 15.773029,16.907095 15.773016,16.931125 15.556792,16.93117 15.136558,16.93117 15.138736,16.8227 15.139709,16.801541 15.139031,16.72645 15.139995,16.605796 15.139829,16.598989 15.773585,16.598989" style="fill: white" /><polygon type="contour" points="15.773291,17.695156 15.773291,17.763801 15.773393,17.837693 15.773334,17.927128 15.773289,17.947982 15.773147,17.982219 15.77306,17.98696 15.773141,17.998218 15.773075,17.999055 15.773075,18.01347 15.773121,18.014167 15.773126,18.027827 15.494002,18.028486 15.440585,18.028486 15.440552,18.010341 15.440512,18.001172 15.440512,17.933212 15.345543,17.933272 15.333228,17.932968 15.130349,17.932822 15.12654,17.724618 15.1272,17.695086 15.201863,17.695068" style="fill: white" /><polygon type="contour" points="16.605794,17.695094 16.726449,17.695104 16.80154,17.69511 16.905161,17.69522 16.931124,17.69522 16.931124,17.838016 16.80154,17.837906 16.726448,17.837632 16.605794,17.83788 16.600119,17.837886 16.598987,17.837888 16.598987,17.695088 16.600243,17.695088" style="fill: white" /><polygon type="contour" points="16.931468,16.615567 16.93107,16.801541 16.931124,16.931126 16.905161,16.931126 16.80154,16.931071 16.615565,16.93147 16.598969,16.93147 16.598969,16.615567 16.598987,16.598989 16.605794,16.598977 16.615564,16.598971 16.931468,16.598971" style="fill: white" /><polygon type="contour" points="17.837878,16.605796 17.837628,16.72645 17.837902,16.801541 17.838012,16.931126 17.695218,16.931126 17.695218,16.905163 17.695105,16.801541 17.6951,16.72645 17.695094,16.605796 17.695088,16.600244 17.695088,16.598989 17.837886,16.598989" style="fill: white" /><polygon type="contour" points="17.933218,15.269653 17.933225,15.318785 17.93321,15.440512 18.001167,15.440512 18.010339,15.440552 18.010735,15.440559 18.028484,15.440586 18.028484,15.494002 18.027826,15.773127 18.013467,15.773076 17.998216,15.773143 17.986957,15.773062 17.982215,15.773149 17.947979,15.773291 17.927126,15.773336 17.83769,15.773396 17.765962,15.773396 17.695151,15.773292 17.69513,15.189177 17.695134,15.120781 17.865472,15.120781 17.93315,15.118775" style="fill: white" /><polygon type="contour" points="16.931168,15.556794 16.931124,15.773019 16.907093,15.773032 16.80154,15.773181 16.726448,15.773334 16.605795,15.77358 16.600348,15.773588 16.598987,15.773588 16.599092,15.572203 16.599092,15.14011 16.605064,15.140002 16.605795,15.139997 16.726448,15.139033 16.80154,15.139712 16.931168,15.13656" style="fill: white" /><polygon type="contour" points="15.773166,15.198724 15.773393,15.773395 15.189609,15.773368 15.12281,15.773309 15.128289,15.317654 15.120387,15.195881 15.125788,15.125791 15.64039,15.128642 15.773166,15.123617" style="fill: white" /><polygon type="contour" points="15.773125,1.103876 15.773074,1.118234 15.773141,1.133485 15.77306,1.144744 15.773147,1.149485 15.773288,1.18372 15.773335,1.204576 15.773393,1.294009 15.773393,1.365737 15.773291,1.436548 15.532301,1.436486 15.127083,1.436836 15.13097,1.2295 15.130349,1.198883 15.333227,1.198736 15.345542,1.19843 15.440512,1.198491 15.440512,1.130531 15.440551,1.121361 15.440559,1.120967 15.440585,1.103219 15.494002,1.103219" style="fill: white" /><polygon type="contour" points="15.773016,2.200576 15.773029,2.224604 15.77318,2.330159 15.773331,2.405251 15.773576,2.525906 15.773585,2.531352 15.773585,2.532714 15.139829,2.532714 15.139787,2.531528 15.139995,2.525907 15.139031,2.405251 15.13971,2.330159 15.136558,2.200532 15.556792,2.200532" style="fill: white" /><polygon type="contour" points="17.927126,3.358369 17.947979,3.358413 17.982216,3.358555 17.986957,3.358642 17.998216,3.358562 17.999053,3.358628 18.013468,3.358628 18.014166,3.358581 18.027826,3.358577 18.028484,3.6377 18.028484,3.691118 18.010339,3.691151 18.001167,3.691191 17.933208,3.691191 17.93336,3.786141 17.933319,3.798599 17.932894,4.001336 17.868128,3.995143 17.695152,4.010697 17.695152,3.358411 17.763797,3.358411 17.83769,3.358309" style="fill: white" /><polygon type="contour" points="17.837902,2.330159 17.837628,2.405251 17.837878,2.525906 17.837884,2.531581 17.837886,2.532714 17.695088,2.532714 17.695088,2.531457 17.695094,2.525907 17.695102,2.405251 17.695108,2.330158 17.695218,2.200576 17.838012,2.200576" style="fill: white" /><polygon type="contour" points="18.028446,1.103256 18.028446,1.116449 18.027796,1.406846 18.027826,1.437077 18.013467,1.437022 17.999054,1.437022 17.998567,1.437043 17.98756,1.437034 17.98287,1.437027 17.950413,1.436868 17.93095,1.436814 17.838017,1.436486 17.695216,1.436486 17.695216,1.293684 17.694888,1.200752 17.694832,1.181289 17.694676,1.148832 17.694667,1.144141 17.694658,1.133134 17.69468,1.118233 17.69462,1.117535 17.694604,1.103896 17.970826,1.103255 17.971166,1.103197" style="fill: white" /><polygon type="contour" points="16.931124,1.436486 16.905161,1.436486 16.80154,1.436595 16.726448,1.436869 16.605795,1.436623 16.600242,1.436614 16.598987,1.436614 16.598987,1.293815 16.605795,1.293824 16.726448,1.294069 16.80154,1.293795 16.931124,1.293686" style="fill: white" /><polygon type="contour" points="16.801539,2.20063 16.931124,2.200576 16.931468,2.516135 16.931468,2.532732 16.615564,2.532732 16.605795,2.532726 16.600347,2.532714 16.598987,2.532714 16.598975,2.525906 16.598969,2.516136 16.598969,2.200232 16.615565,2.200232" style="fill: white" /><polygon type="contour" points="16.605795,3.358124 16.726448,3.358368 16.80154,3.358521 16.907093,3.358672 16.931124,3.358685 16.931168,3.574681 16.931168,3.994918 16.822698,3.992966 16.801539,3.991992 16.726448,3.992671 16.605795,3.991707 16.605064,3.991701 16.599092,3.991594 16.599092,3.559499 16.598987,3.360276 16.598987,3.358115" style="fill: white" /><polygon type="contour" points="15.773166,3.932978 15.773166,4.008086 15.195879,4.011314 15.125788,4.005913 15.128289,3.814049 15.122811,3.358395 15.18961,3.358335 15.773393,3.358309" style="fill: white" /><polygon type="contour" points="3.942089,3.358335 4.008889,3.358395 4.003411,3.814049 4.011313,3.935822 4.005911,4.005913 3.491308,4.003061 3.358533,4.008086 3.358533,3.932977 3.358307,3.358309" style="fill: white" /><polygon type="contour" points="3.992965,2.309002 3.991991,2.330159 3.99267,2.405251 3.991705,2.525906 3.991871,2.532714 3.358113,2.532714 3.358113,2.531352 3.358122,2.525906 3.358368,2.405251 3.358519,2.330159 3.35867,2.224604 3.358684,2.200575 3.57468,2.200532 3.994916,2.200532" style="fill: white" /><polygon type="contour" points="3.691149,1.121361 3.691189,1.130531 3.691189,1.198491 3.812916,1.198476 3.862047,1.198484 4.012927,1.198551 3.999406,1.381035 4.004499,1.436615 3.929835,1.436632 3.358409,1.436548 3.358409,1.367902 3.358307,1.294008 3.358367,1.204576 3.358412,1.18372 3.358554,1.149485 3.358641,1.144744 3.35856,1.133486 3.358626,1.132648 3.358626,1.118233 3.358579,1.117535 3.358575,1.103876 3.637698,1.103219 3.691116,1.103219" style="fill: white" /><polygon type="contour" points="1.160875,1.103255 1.437096,1.103896 1.437021,1.118234 1.437021,1.132648 1.437042,1.133134 1.437032,1.144141 1.437024,1.148832 1.436867,1.181288 1.436812,1.200752 1.436485,1.293684 1.436485,1.436486 1.293683,1.436486 1.200751,1.436813 1.181287,1.436868 1.14883,1.437027 1.14414,1.437034 1.133133,1.437043 1.118233,1.437022 1.117534,1.437081 1.103874,1.437077 1.103904,1.406845 1.103255,1.11645 1.103255,1.103256 1.160535,1.103197" style="fill: white" /><polygon type="contour" points="2.330157,1.293795 2.40525,1.294069 2.525904,1.293824 2.53158,1.293816 2.532712,1.293815 2.532712,1.436614 2.531455,1.436614 2.525905,1.436623 2.405249,1.436869 2.330156,1.436596 2.226534,1.436486 2.200573,1.436486 2.200573,1.293686" style="fill: white" /><polygon type="contour" points="1.436546,3.358411 1.436546,3.784433 1.436549,4.010697 1.263572,3.995143 1.229499,4.000731 1.198805,4.001336 1.19838,3.798598 1.198338,3.786141 1.198489,3.691191 1.130529,3.691191 1.121359,3.691151 1.120965,3.691144 1.103217,3.691118 1.103217,3.6377 1.103874,3.358577 1.118233,3.358628 1.133484,3.358561 1.144742,3.358643 1.149482,3.358556 1.18372,3.358413 1.204573,3.358369 1.294007,3.358309 1.365735,3.358309" style="fill: white" /><polygon type="contour" points="1.436485,2.226536 1.436594,2.330159 1.436868,2.405251 1.43662,2.525907 1.436611,2.531458 1.436612,2.532714 1.293812,2.532714 1.293821,2.525906 1.294067,2.405252 1.293793,2.330159 1.293684,2.200576 1.436485,2.200576" style="fill: white" /><polygon type="contour" points="2.532731,2.516135 2.532712,2.532714 2.525904,2.532726 2.516134,2.532732 2.200229,2.532732 2.200229,2.516136 2.200628,2.330159 2.200573,2.200576 2.226534,2.200576 2.330156,2.20063 2.516133,2.200232 2.532731,2.200232" style="fill: white" /><polygon type="contour" points="2.532607,3.559499 2.532607,3.991594 2.526633,3.991702 2.525904,3.991707 2.405249,3.992671 2.330157,3.991992 2.20053,3.994918 2.20053,3.574681 2.200573,3.358685 2.224602,3.358671 2.330157,3.35852 2.405249,3.358369 2.525904,3.358124 2.53135,3.358115 2.532712,3.358115" style="fill: white" /><polygon type="contour" points="1.436566,15.12078 1.436569,15.189177 1.436546,15.773292 1.367901,15.773292 1.294007,15.773396 1.204573,15.773336 1.18372,15.773291 1.149482,15.773149 1.144742,15.773062 1.133485,15.773143 1.132645,15.773077 1.118232,15.773077 1.117534,15.773123 1.103874,15.773128 1.103217,15.494003 1.103217,15.440586 1.121359,15.440552 1.130529,15.440512 1.198489,15.440512 1.198474,15.318784 1.198482,15.269654 1.198549,15.118775 1.379181,15.118775" style="fill: white" /><polygon type="contour" points="2.308999,15.138738 2.330157,15.139712 2.405249,15.139032 2.525905,15.139998 2.526633,15.140001 2.532607,15.14011 2.532607,15.572203 2.532712,15.771426 2.532712,15.773587 2.525904,15.773579 2.405249,15.773333 2.330157,15.773182 2.224601,15.773032 2.200572,15.773019 2.20053,15.556795 2.20053,15.13656" style="fill: white" /><polygon type="contour" points="4.005911,15.125791 4.003411,15.317654 4.008889,15.773309 3.942089,15.773368 3.358307,15.773395 3.358533,15.198725 3.358533,15.123617 3.935819,15.12039" style="fill: white" /><polygon type="contour" points="3.991914,16.600175 3.991705,16.605797 3.99267,16.72645 3.991991,16.801542 3.994916,16.93117 3.57468,16.93117 3.358684,16.931126 3.358671,16.907095 3.35852,16.801542 3.358367,16.72645 3.358122,16.605796 3.358113,16.600349 3.358113,16.598989 3.991871,16.598989" style="fill: white" /><polygon type="contour" points="4.004499,17.695086 3.999406,17.750664 4.012927,17.933152 3.862047,17.933218 3.812915,17.933228 3.691189,17.933212 3.691189,18.001172 3.691149,18.010341 3.691142,18.010737 3.691116,18.028486 3.637698,18.028486 3.358575,18.027828 3.358626,18.013469 3.358559,17.998218 3.358641,17.98696 3.358554,17.982219 3.358412,17.947982 3.358367,17.927128 3.358307,17.837694 3.358307,17.765966 3.358409,17.695156 3.929836,17.695068" style="fill: white" /><polygon type="contour" points="2.532712,17.837888 2.525904,17.83788 2.405249,17.837632 2.330157,17.837906 2.200573,17.838016 2.200573,17.69522 2.226534,17.69522 2.330156,17.69511 2.405249,17.695104 2.525905,17.695093 2.531455,17.695088 2.532712,17.695088" style="fill: white" /><polygon type="contour" points="2.525905,16.598977 2.53135,16.598989 2.532712,16.598989 2.532724,16.605796 2.532731,16.615566 2.532731,16.93147 2.516133,16.93147 2.330157,16.931072 2.200573,16.931126 2.20023,16.615567 2.20023,16.598971 2.516134,16.598971" style="fill: white" /><polygon type="contour" points="1.436612,16.600244 1.436621,16.605796 1.436867,16.72645 1.436594,16.801542 1.436485,16.931126 1.293684,16.931126 1.293793,16.801542 1.294067,16.72645 1.293821,16.605796 1.293815,16.600121 1.293813,16.598989 1.436613,16.598989" style="fill: white" /><polygon type="contour" points="1.118233,17.694682 1.132646,17.694682 1.133132,17.69466 1.14414,17.694669 1.148831,17.694676 1.181287,17.694834 1.200751,17.694888 1.293683,17.695216 1.436485,17.695216 1.436485,17.838019 1.436813,17.930952 1.436867,17.950415 1.437025,17.982872 1.437032,17.987562 1.437042,17.998569 1.437021,18.013469 1.43708,18.014167 1.437096,18.027808 1.160874,18.028448 1.160534,18.028508 1.103255,18.028448 1.103255,18.015253 1.103904,17.724858 1.103874,17.694626" style="fill: white" />
</svg>
