<svg width="19.131698" height="19.131699">
<polygon type="contour" points="9.57784,9.398958 9.585827,9.399516 9.599713,9.401058 9.608971,9.404143 9.617144,9.406186 9.628457,9.409786 9.634229,9.4122 9.634416,9.412387 9.651883,9.421122 9.653561,9.421862 9.657458,9.424474 9.673902,9.436786 9.67596,9.438095 9.677644,9.439218 9.681439,9.445269 9.688444,9.449574 9.696673,9.459344 9.698529,9.461943 9.710356,9.479428 9.714444,9.487045 9.715001,9.488716 9.723743,9.507229 9.7256,9.512988 9.730742,9.533042 9.7313,9.535829 9.731815,9.544573 9.732743,9.550145 9.732529,9.558183 9.733197,9.566201 9.733586,9.569916 9.733071,9.581744 9.731014,9.593572 9.729713,9.601932 9.727658,9.612216 9.724572,9.619416 9.722158,9.62666 9.718044,9.638487 9.713929,9.644659 9.710587,9.651161 9.705956,9.659389 9.698757,9.669159 9.696156,9.672875 9.689542,9.678519 9.684531,9.684532 9.68052,9.687875 9.675956,9.693589 9.671328,9.697703 9.654359,9.709015 9.648413,9.712917 9.640797,9.71626 9.622284,9.724487 9.602745,9.72963 9.594572,9.731673 9.591228,9.731858 9.5758,9.732888 9.569175,9.732866 9.565501,9.733199 9.561041,9.7334 9.549215,9.732888 9.545871,9.732701 9.534043,9.730645 9.522216,9.728074 9.513856,9.72603 9.503057,9.721402 9.492257,9.716773 9.486499,9.714174 9.484271,9.71306 9.468845,9.703804 9.467172,9.702874 9.462543,9.69876 9.458457,9.695973 9.453183,9.689545 9.446165,9.683196 9.441526,9.679702 9.428156,9.662733 9.425926,9.659388 9.416158,9.641904 9.412628,9.635402 9.410202,9.628141 9.403011,9.608618 9.401713,9.601185 9.398629,9.582673 9.398442,9.578028 9.398837,9.573887 9.398502,9.566201 9.398837,9.558182 9.398629,9.549031 9.400683,9.537202 9.401981,9.52939 9.404038,9.519114 9.410203,9.503703 9.412628,9.496629 9.416226,9.488917 9.417899,9.485945 9.424068,9.475659 9.425741,9.472315 9.428342,9.4686 9.43554,9.45883 9.441712,9.451631 9.446166,9.448505 9.448029,9.445314 9.460371,9.434002 9.466317,9.4301 9.483286,9.418787 9.489787,9.415815 9.508795,9.40758 9.510477,9.407019 9.516838,9.405522 9.535828,9.400402 9.545085,9.399886 9.549728,9.39933 9.558148,9.399172 9.569176,9.398503 9.571155,9.397931" style="fill: white" />
</svg>
