<svg width="19.131698" height="19.131699">
<polygon type="contour" points="5.973601,11.231405 6.025242,11.232249 6.025304,11.313888 6.025401,11.52363 5.972514,11.52368 5.894763,11.52368 5.822303,11.523759 5.72755,11.523759 5.728816,11.243449 5.729208,11.229527" style="fill: white" /><polygon type="contour" points="6.027788,12.141745 6.027767,12.269138 6.027717,12.342413 6.027623,12.55034 6.011364,12.55034 5.904775,12.551058 5.904804,12.509027 5.90525,12.329602 5.905257,12.303636 5.905466,12.269138 5.905608,12.139787 5.905607,12.116982 5.920185,12.116936 6.027788,12.116936" style="fill: white" /><polygon type="contour" points="6.025401,13.1063 6.025401,13.145956 6.025097,13.404263 5.869734,13.40335 5.723381,13.408321 5.727992,13.269101 5.730306,13.104354 5.739417,13.104319 5.74123,13.104298 5.748997,13.104298" style="fill: white" /><polygon type="contour" points="7.01472,13.117684 7.01472,13.226095 6.991914,13.226094 6.862563,13.226235 6.828065,13.226445 6.802099,13.226452 6.622674,13.226898 6.580644,13.226927 6.580431,13.120255 6.580431,13.1045 6.615903,13.1045 6.787036,13.104115 6.862562,13.103936 7.014765,13.103915" style="fill: white" /><polygon type="contour" points="7.814727,13.106406 7.899547,13.106406 7.901149,13.315238 7.902213,13.402529 7.888254,13.402884 7.607942,13.404153 7.607942,13.309402 7.608349,13.121213 7.608363,13.106335" style="fill: white" /><polygon type="contour" points="7.904176,12.269138 7.904162,12.303636 7.90415,12.329601 7.903456,12.550935 7.831738,12.550935 7.60829,12.551058 7.608198,12.329601 7.608075,12.269139 7.607863,12.116982 7.807928,12.116637 7.903674,12.116637" style="fill: white" /><polygon type="contour" points="7.01472,12.116982 7.01472,12.140374 7.014781,12.269138 7.014781,12.349451 7.014765,12.551072 6.862563,12.55124 6.8021,12.551252 6.580644,12.551057 6.580644,12.505501 6.58045,12.329602 6.580463,12.269138 6.580628,12.116936 6.782249,12.116921 6.862562,12.116921" style="fill: white" /><polygon type="contour" points="7.01472,11.2282 7.01472,11.523838 6.991327,11.523838 6.862562,11.523625 6.802099,11.523502 6.580644,11.523408 6.580767,11.299961 6.580767,11.228246 6.8021,11.227552 6.828065,11.22754 6.862562,11.227526" style="fill: white" /><polygon type="contour" points="7.893396,11.227819 7.898425,11.228223 7.903515,11.228184 7.903881,11.238303 7.903962,11.241682 7.899198,11.523759 7.607942,11.523759 7.607942,11.232504 7.890018,11.227738" style="fill: white" /><polygon type="contour" points="7.903962,7.890019 7.903881,7.893398 7.903476,7.898427 7.903515,7.903517 7.612459,7.898922 7.608308,7.899477 7.608308,7.886367 7.607942,7.607944 7.899198,7.607944" style="fill: white" /><polygon type="contour" points="7.015065,7.807931 7.015065,7.903676 6.862563,7.904178 6.802099,7.904152 6.580644,7.903241 6.580644,7.608293 6.802099,7.608201 6.862562,7.608078 7.01472,7.607866" style="fill: white" /><polygon type="contour" points="6.009806,7.608055 6.025401,7.608073 6.025304,7.817814 6.025304,7.899455 5.813202,7.901078 5.72917,7.902214 5.728816,7.888255 5.72755,7.607944 5.822302,7.607944" style="fill: white" /><polygon type="contour" points="6.011364,6.581364 6.027623,6.581364 6.027623,6.617966 6.027717,6.78929 6.027766,6.862564 6.027788,7.014767 6.014018,7.014722 5.905607,7.014722 5.905608,6.991916 5.905466,6.862565 5.905257,6.828067 5.90525,6.802101 5.904804,6.622676 5.904775,6.580646" style="fill: white" /><polygon type="contour" points="6.025097,5.727442 6.025097,5.826865 6.025401,6.008895 6.025401,6.025403 6.008893,6.025403 5.741231,6.027404 5.730306,6.027347 5.729714,6.009469 5.723381,5.723382 5.869733,5.728355 5.934064,5.721326" style="fill: white" /><polygon type="contour" points="6.622674,5.904806 6.802099,5.905252 6.828065,5.905259 6.862562,5.905468 6.991914,5.905611 7.01472,5.90561 7.014765,5.920189 7.014765,6.027788 6.989956,6.027788 6.862562,6.027768 6.787037,6.027589 6.580431,6.027204 6.580431,6.011448 6.580644,5.904777" style="fill: white" /><polygon type="contour" points="6.862563,6.580464 7.014765,6.58063 7.014781,6.782251 7.014781,6.862564 7.01472,7.014722 6.991326,7.014722 6.862563,7.014783 6.782249,7.014783 6.580628,7.014767 6.580463,6.862565 6.58045,6.802101 6.580644,6.580646 6.626199,6.580646 6.802099,6.580452" style="fill: white" /><polygon type="contour" points="7.831738,6.580769 7.903456,6.580769 7.90415,6.802101 7.904162,6.828067 7.904176,6.862564 7.903501,7.014722 7.607863,7.014722 7.607863,6.991328 7.608075,6.862564 7.608198,6.802102 7.60829,6.580646" style="fill: white" /><polygon type="contour" points="7.888254,5.728818 7.902176,5.72921 7.900295,5.973602 7.899451,6.025243 7.814726,6.025296 7.608363,6.025369 7.608023,5.972516 7.608023,5.894764 7.607942,5.822304 7.607942,5.727551" style="fill: white" /><polygon type="contour" points="13.403706,5.862602 13.401395,6.027346 13.392282,6.027381 13.390469,6.027404 13.382703,6.027404 13.106299,6.025403 13.106299,5.985748 13.106602,5.727442 13.261965,5.728355 13.40832,5.723382" style="fill: white" /><polygon type="contour" points="13.226897,6.622676 13.22645,6.802101 13.226443,6.828067 13.226234,6.862565 13.226093,6.991915 13.226094,7.014722 13.211514,7.014767 13.103912,7.014767 13.103912,6.989958 13.103933,6.862564 13.103982,6.78929 13.104077,6.581364 13.120334,6.581364 13.226926,6.580646" style="fill: white" /><polygon type="contour" points="12.551056,6.580645 12.551056,6.626201 12.55125,6.802101 12.551237,6.862565 12.551071,7.014767 12.34945,7.014783 12.269137,7.014783 12.11698,7.014722 12.11698,6.991328 12.116919,6.862565 12.116919,6.782251 12.116935,6.58063 12.269137,6.580464 12.329601,6.580452" style="fill: white" /><polygon type="contour" points="12.551269,6.011448 12.551269,6.027204 12.515796,6.027204 12.344663,6.027588 12.269138,6.027768 12.116935,6.027788 12.11698,6.014019 12.11698,5.90561 12.139785,5.905611 12.269137,5.905467 12.303635,5.905259 12.329601,5.905252 12.509026,5.904806 12.551056,5.904777" style="fill: white" /><polygon type="contour" points="11.523757,5.822303 11.523351,6.01049 11.523336,6.025369 11.316971,6.025296 11.232152,6.025296 11.230552,5.816463 11.229488,5.729172 11.243446,5.728817 11.523757,5.727551" style="fill: white" /><polygon type="contour" points="11.5235,6.802102 11.523623,6.862564 11.523837,7.014722 11.323771,7.015067 11.228026,7.015067 11.227524,6.862565 11.22755,6.802101 11.228462,6.580646 11.523407,6.580646" style="fill: white" /><polygon type="contour" points="11.523757,7.899199 11.241681,7.903964 11.228184,7.903516 11.232779,7.612462 11.232224,7.608311 11.245333,7.608311 11.523757,7.607944" style="fill: white" /><polygon type="contour" points="12.269137,7.608077 12.329601,7.608201 12.551056,7.608292 12.550933,7.831741 12.550933,7.903458 12.329601,7.904152 12.269137,7.904177 12.11698,7.903504 12.11698,7.607866 12.140372,7.607866" style="fill: white" /><polygon type="contour" points="13.402883,7.888255 13.402491,7.902177 13.158096,7.900297 13.106456,7.899453 13.106394,7.817814 13.106298,7.608073 13.159185,7.608025 13.236937,7.608025 13.309397,7.607944 13.404149,7.607944" style="fill: white" /><polygon type="contour" points="13.402883,11.243448 13.40415,11.523759 13.309398,11.523759 13.121893,11.523647 13.106299,11.52363 13.106395,11.313888 13.106395,11.232249 13.318496,11.230625 13.402529,11.22949" style="fill: white" /><polygon type="contour" points="12.269137,13.103936 12.344663,13.104115 12.551269,13.1045 12.551269,13.120255 12.551056,13.226927 12.509025,13.226898 12.3296,13.226451 12.303635,13.226444 12.269137,13.226234 12.139786,13.226094 12.11698,13.226095 12.116935,13.211515 12.116935,13.103916 12.141743,13.103915" style="fill: white" /><polygon type="contour" points="11.523678,13.159186 11.523678,13.23694 11.523757,13.3094 11.523757,13.404153 11.243446,13.402884 11.229524,13.402492 11.231403,13.158098 11.232247,13.106458 11.316971,13.106406 11.523336,13.106335" style="fill: white" /><polygon type="contour" points="11.523837,12.140373 11.523623,12.269139 11.5235,12.329601 11.523407,12.551058 11.29996,12.550935 11.228245,12.550935 11.22755,12.329602 11.227524,12.269138 11.228198,12.116982 11.523837,12.116982" style="fill: white" /><polygon type="contour" points="11.51924,11.23278 11.523392,11.232226 11.523392,11.245335 11.523757,11.523759 11.232501,11.523759 11.227737,11.241682 11.228184,11.228185" style="fill: white" /><polygon type="contour" points="12.303634,11.22754 12.3296,11.227552 12.550933,11.228246 12.550933,11.299961 12.551056,11.523408 12.329601,11.523502 12.269138,11.523625 12.11698,11.523838 12.116635,11.323772 12.116635,11.228028 12.269138,11.227526" style="fill: white" /><polygon type="contour" points="12.551071,12.116936 12.551237,12.269138 12.55125,12.329601 12.551056,12.551058 12.505501,12.551058 12.329601,12.551252 12.269137,12.551238 12.116935,12.551072 12.116919,12.349451 12.116919,12.269138 12.11698,12.116982 12.140372,12.116982 12.269137,12.116921 12.34945,12.116921" style="fill: white" /><polygon type="contour" points="13.11768,12.116982 13.226094,12.116982 13.226093,12.139788 13.226233,12.269138 13.226443,12.303636 13.22645,12.329602 13.226897,12.509027 13.226926,12.551058 13.120334,12.55034 13.104077,12.55034 13.104077,12.513737 13.103982,12.342413 13.103933,12.269139 13.103912,12.116936" style="fill: white" /><polygon type="contour" points="13.401395,13.104354 13.401985,13.122231 13.40832,13.408321 13.261966,13.40335 13.197635,13.410378 13.106602,13.404263 13.106602,13.304838 13.106299,13.122807 13.106299,13.106301 13.122806,13.106301 13.390469,13.104298" style="fill: white" />
</svg>
