<svg width="19.131698" height="19.131699">
<polygon type="contour" points="8.968515,7.609757 8.968355,7.650875 8.968806,7.654746 8.968806,7.699166 8.968812,7.701283 8.969021,7.769742 8.969277,7.896348 8.675277,7.896348 8.675288,7.881417 8.675288,7.860587 8.675228,7.734376 8.675228,7.609914 8.821822,7.609269" style="fill: white" /><polygon type="contour" points="7.814153,7.60403 7.896354,7.61027 7.896354,7.896357 7.778266,7.896357 7.743121,7.896455 7.69402,7.896042 7.650563,7.895518 7.64936,7.89522 7.608466,7.894904 7.608569,7.765823 7.602366,7.602368" style="fill: white" /><polygon type="contour" points="8.378378,7.779995 8.378378,7.882785 8.378351,7.898006 8.366089,7.898006 8.292809,7.898355 8.283629,7.898365 8.185462,7.89807 8.185462,7.779964 8.283629,7.780124 8.287939,7.780122 8.292808,7.780121 8.367044,7.779918" style="fill: white" /><polygon type="contour" points="7.898142,9.552665 7.898142,9.579723 7.897827,9.703673 7.882477,9.70365 7.780002,9.703437 7.779966,9.68728 7.780511,9.566228 7.779966,9.444424 7.780002,9.428266 7.882153,9.428266 7.898081,9.428241" style="fill: white" /><polygon type="contour" points="8.715631,9.428266 8.970405,9.428266 8.970405,9.445092 8.970626,9.555397 8.970648,9.566804 8.970405,9.703438 8.931309,9.703497 8.67707,9.703497 8.67707,9.68653 8.67732,9.577015 8.67732,9.552728 8.67707,9.428207" style="fill: white" /><polygon type="contour" points="8.378378,9.443631 8.378458,9.555374 8.378466,9.566863 8.378378,9.704116 8.366517,9.704062 8.292808,9.703914 8.283002,9.703847 8.185296,9.703463 8.185296,9.686016 8.185186,9.565633 8.185295,9.428241 8.199388,9.428266 8.283003,9.427856 8.292808,9.42779 8.378378,9.427588" style="fill: white" /><polygon type="contour" points="8.378378,8.970352 8.366517,8.970295 8.292809,8.970685 8.28363,8.970704 8.185462,8.970478 8.185462,8.677077 8.200624,8.677097 8.283629,8.677405 8.292808,8.677385 8.378378,8.676964" style="fill: white" /><polygon type="contour" points="7.896146,8.702145 7.896166,8.969073 7.88213,8.969028 7.627273,8.968526 7.609646,8.968526 7.610149,8.7011 7.610182,8.674943 7.885214,8.674943 7.896146,8.674936" style="fill: white" /><polygon type="contour" points="7.898069,8.200957 7.898364,8.28363 7.898353,8.29281 7.898004,8.378353 7.882784,8.37838 7.779993,8.37838 7.780119,8.29281 7.78012,8.28794 7.780121,8.28363 7.779921,8.19981 7.779963,8.185463 7.898069,8.185463" style="fill: white" /><polygon type="contour" points="8.378127,8.282406 8.378127,8.292809 8.378378,8.37838 8.36639,8.37838 8.292808,8.378129 8.282405,8.378129 8.18524,8.378353 8.185706,8.29281 8.185734,8.283631 8.185462,8.185463 8.200955,8.185463 8.283629,8.185738 8.292809,8.185709 8.378351,8.185241" style="fill: white" /><polygon type="contour" points="8.970702,8.283631 8.970493,8.297292 8.969086,8.337273 8.97035,8.37838 8.676963,8.37838 8.676963,8.366391 8.677383,8.292809 8.677392,8.28794 8.677402,8.28363 8.677095,8.200625 8.677075,8.185463 8.970476,8.185463" style="fill: white" /><polygon type="contour" points="8.968899,8.701099 8.968523,8.968526 8.703503,8.969027 8.675072,8.969073 8.675228,8.839835 8.675228,8.675228 8.942362,8.674943 8.968941,8.674943" style="fill: white" /><polygon type="contour" points="9.554687,8.677322 9.578974,8.677322 9.703494,8.677073 9.703436,8.715635 9.703436,8.970406 9.686607,8.970406 9.576305,8.970629 9.564898,8.970652 9.428264,8.970406 9.428206,8.93131 9.428206,8.677073 9.445173,8.677073" style="fill: white" /><polygon type="contour" points="9.70346,8.185298 9.704079,8.278545 9.703913,8.292809 9.704114,8.37838 9.68807,8.37838 9.564839,8.378468 9.427586,8.37838 9.42764,8.366517 9.427788,8.292809 9.427855,8.283003 9.42824,8.185298 9.445686,8.185298 9.554707,8.185198 9.566069,8.185187" style="fill: white" /><polygon type="contour" points="9.703436,7.780004 9.703647,7.882477 9.70367,7.897829 9.686854,7.897829 9.576309,7.898145 9.564839,7.898177 9.42803,7.897829 9.428052,7.882478 9.428264,7.780004 9.444423,7.779967 9.565474,7.780514 9.687276,7.779967" style="fill: white" /><polygon type="contour" points="10.322627,7.610326 10.456473,7.609914 10.456473,7.68385 10.45641,7.860588 10.456422,7.896348 10.162423,7.896348 10.162469,7.881573 10.162887,7.701283 10.162894,7.654745 10.163185,7.609757" style="fill: white" /><polygon type="contour" points="10.838891,8.677386 10.84807,8.677405 10.946239,8.677077 10.946239,8.970478 10.931264,8.970433 10.84807,8.970704 10.83889,8.970685 10.753322,8.970352 10.753322,8.676964 10.76531,8.676964" style="fill: white" /><polygon type="contour" points="10.291865,8.675228 10.456473,8.675228 10.456758,8.942363 10.456758,8.968942 10.430601,8.968899 10.163174,8.968526 10.163124,8.937421 10.16276,8.674943" style="fill: white" /><polygon type="contour" points="10.454605,8.200625 10.454298,8.28363 10.454307,8.28794 10.454316,8.292809 10.454737,8.366391 10.454737,8.37838 10.161351,8.37838 10.161407,8.366517 10.161017,8.292809 10.161366,8.278545 10.162826,8.232028 10.161221,8.185463 10.454625,8.185463" style="fill: white" /><polygon type="contour" points="10.83889,8.185709 10.84807,8.185738 10.946239,8.185463 10.946239,8.200956 10.945965,8.28363 10.945993,8.292809 10.946461,8.378353 10.849295,8.378129 10.83889,8.378129 10.753322,8.37838 10.753322,8.366392 10.753574,8.292809 10.753574,8.282405 10.753349,8.185241 10.765611,8.185241" style="fill: white" /><polygon type="contour" points="10.946239,7.779963 10.946239,7.89807 10.930744,7.89807 10.84807,7.898365 10.838708,7.898374 10.753403,7.898184 10.753377,7.88326 10.753322,7.779995 10.83889,7.780121 10.84376,7.780122 10.84807,7.780123 10.93189,7.779922" style="fill: white" /><polygon type="contour" points="11.529108,7.807922 11.523261,7.894882 11.481134,7.895518 11.43768,7.896042 11.388578,7.896455 11.353433,7.896357 11.235346,7.896357 11.235346,7.61027 11.34421,7.609856 11.529333,7.602368" style="fill: white" /><polygon type="contour" points="11.351576,8.28363 11.351578,8.28794 11.351579,8.292809 11.351784,8.367045 11.351707,8.37838 11.336148,8.378353 11.233696,8.378353 11.233696,8.366091 11.233348,8.292809 11.233337,8.28363 11.233631,8.185463 11.351737,8.185463" style="fill: white" /><polygon type="contour" points="11.52155,8.7011 11.522052,8.968526 11.504425,8.968526 11.249569,8.969029 11.235535,8.969074 11.235535,8.933791 11.235008,8.674945 11.248281,8.674954 11.506266,8.674943 11.521518,8.674943" style="fill: white" /><polygon type="contour" points="11.351579,10.838893 11.351578,10.843762 11.351576,10.848072 11.351779,10.931892 11.351737,10.94624 11.233631,10.94624 11.233631,10.930746 11.233337,10.848073 11.233348,10.838893 11.233696,10.753351 11.248916,10.753324 11.351707,10.753324" style="fill: white" /><polygon type="contour" points="11.43768,11.235662 11.481135,11.236186 11.482338,11.236482 11.523234,11.236799 11.523129,11.36588 11.529334,11.529335 11.317547,11.527673 11.235346,11.521433 11.235346,11.235347 11.353433,11.235347 11.388578,11.235249" style="fill: white" /><polygon type="contour" points="10.45641,11.250286 10.45641,11.271117 10.456473,11.397327 10.456473,11.521791 10.309878,11.522434 10.163185,11.521947 10.163344,11.480828 10.162894,11.476957 10.162894,11.432537 10.162888,11.430421 10.162676,11.361961 10.162423,11.235357 10.456422,11.235357" style="fill: white" /><polygon type="contour" points="10.946239,11.233634 10.946239,11.351739 10.848069,11.351578 10.84376,11.351579 10.838891,11.351581 10.764657,11.351785 10.753322,11.351708 10.753322,11.248918 10.753349,11.233698 10.765611,11.233698 10.83889,11.23335 10.84807,11.233339" style="fill: white" /><polygon type="contour" points="10.83889,10.753576 10.849294,10.753576 10.946461,10.753351 10.945993,10.838894 10.945965,10.848072 10.946239,10.94624 10.930745,10.94624 10.848069,10.945966 10.83889,10.945994 10.753349,10.946462 10.753574,10.849298 10.753574,10.838894 10.753322,10.753324 10.765311,10.753324" style="fill: white" /><polygon type="contour" points="10.454737,10.765312 10.454317,10.838893 10.454307,10.843762 10.454298,10.848073 10.454605,10.931077 10.454625,10.94624 10.16122,10.94624 10.161266,10.931265 10.160998,10.848072 10.161007,10.843762 10.161017,10.838893 10.161407,10.765186 10.161351,10.753324 10.454737,10.753324" style="fill: white" /><polygon type="contour" points="10.456473,10.291868 10.456473,10.456476 10.189338,10.456761 10.16276,10.456761 10.162802,10.430604 10.163174,10.163176 10.428197,10.162674 10.456629,10.162629" style="fill: white" /><polygon type="contour" points="10.946239,10.161224 10.946239,10.454627 10.931076,10.454607 10.84807,10.454299 10.838891,10.454318 10.753322,10.45474 10.753322,10.161352 10.765183,10.161409 10.83889,10.161019 10.848069,10.161" style="fill: white" /><polygon type="contour" points="11.249569,10.162675 11.504426,10.163176 11.522052,10.163176 11.52155,10.430603 11.521518,10.456761 11.246486,10.456761 11.235555,10.456768 11.235555,10.429557 11.235535,10.162631" style="fill: white" /><polygon type="contour" points="11.249547,9.428266 11.351698,9.428266 11.351735,9.444423 11.351188,9.566228 11.351735,9.68728 11.351698,9.703438 11.249547,9.703438 11.23362,9.703463 11.23362,9.686016 11.233558,9.576991 11.233552,9.565633 11.23362,9.428241" style="fill: white" /><polygon type="contour" points="10.765183,9.427642 10.838891,9.42779 10.848696,9.427857 10.946405,9.428241 10.946405,9.445688 10.946502,9.555394 10.946512,9.566827 10.946405,9.703463 10.932312,9.703438 10.848696,9.703847 10.838891,9.703914 10.753322,9.704116 10.753322,9.688072 10.753233,9.565596 10.753322,9.427588" style="fill: white" /><polygon type="contour" points="10.45463,9.445174 10.454378,9.555374 10.454378,9.579661 10.45463,9.703497 10.416068,9.703438 10.161296,9.703438 10.161296,9.686611 10.161052,9.565655 10.161296,9.428266 10.416068,9.428266 10.45463,9.428207" style="fill: white" /><polygon type="contour" points="9.703436,9.428266 9.704404,9.552777 9.704404,9.579611 9.703436,9.703438 9.578924,9.704407 9.552091,9.704407 9.428264,9.703438 9.427297,9.57961 9.427297,9.552778 9.428264,9.428266 9.552091,9.427298 9.578924,9.427298" style="fill: white" /><polygon type="contour" points="9.703436,10.161298 9.703494,10.200393 9.703494,10.454631 9.686527,10.454631 9.576328,10.45438 9.552041,10.45438 9.428206,10.454631 9.428264,10.416068 9.428264,10.161298 9.445091,10.161298 9.55471,10.161075 9.566047,10.161051" style="fill: white" /><polygon type="contour" points="9.704114,10.753324 9.704059,10.765186 9.703913,10.838893 9.703846,10.848699 9.70346,10.946406 9.579036,10.946504 9.55198,10.946504 9.42824,10.946406 9.427621,10.853158 9.427788,10.838893 9.427586,10.753324 9.443629,10.753324 9.566107,10.753235" style="fill: white" /><polygon type="contour" points="9.70346,11.233621 9.703436,11.249548 9.703436,11.3517 9.687276,11.351736 9.565474,11.351189 9.444423,11.351737 9.428264,11.3517 9.428052,11.249225 9.42803,11.233875 9.551981,11.23356 9.579038,11.23356" style="fill: white" /><polygon type="contour" points="8.969021,11.361962 8.968812,11.43042 8.968805,11.476958 8.968515,11.521947 8.809071,11.521377 8.675228,11.521791 8.675228,11.447852 8.675288,11.271117 8.675277,11.235357 8.969277,11.235357" style="fill: white" /><polygon type="contour" points="8.292809,11.23335 8.378351,11.233698 8.378378,11.248918 8.378378,11.351709 8.292808,11.351581 8.287939,11.351579 8.283629,11.351578 8.19981,11.351782 8.185462,11.35174 8.185462,11.233634 8.200955,11.233634 8.283629,11.233339" style="fill: white" /><polygon type="contour" points="8.378378,10.765312 8.378127,10.838894 8.378127,10.849297 8.378351,10.946462 8.36609,10.946462 8.292808,10.945994 8.283629,10.945966 8.185462,10.94624 8.185462,10.930747 8.185735,10.848072 8.185706,10.838893 8.18524,10.753351 8.282404,10.753576 8.292809,10.753576 8.378378,10.753324" style="fill: white" /><polygon type="contour" points="8.970293,10.765186 8.970684,10.838893 8.970693,10.843762 8.970702,10.848072 8.97043,10.931265 8.970476,10.94624 8.677075,10.94624 8.677095,10.931077 8.677401,10.848073 8.677392,10.843762 8.677383,10.838893 8.676963,10.765312 8.676963,10.753324 8.97035,10.753324" style="fill: white" /><polygon type="contour" points="8.701098,10.162804 8.968523,10.163176 8.968574,10.194281 8.968941,10.456761 8.839834,10.456476 8.675228,10.456476 8.674942,10.18934 8.674942,10.162762" style="fill: white" /><polygon type="contour" points="8.292809,10.161019 8.378378,10.161352 8.378378,10.45474 8.36639,10.45474 8.292809,10.454318 8.283629,10.454299 8.185462,10.454627 8.185462,10.161224 8.200436,10.161269 8.28363,10.161" style="fill: white" /><polygon type="contour" points="7.896337,10.194393 7.896693,10.456759 7.883419,10.45675 7.625433,10.456761 7.610182,10.456761 7.610149,10.430603 7.609647,10.163176 7.627273,10.163176 7.88366,10.16255 7.896337,10.16251" style="fill: white" /><polygon type="contour" points="7.795551,10.753351 7.898004,10.753351 7.898004,10.765613 7.898352,10.838893 7.898364,10.848072 7.898069,10.94624 7.779963,10.94624 7.780122,10.848072 7.78012,10.843762 7.780119,10.838894 7.779916,10.764659 7.779993,10.753324" style="fill: white" /><polygon type="contour" points="7.778266,11.235347 7.896354,11.235347 7.896354,11.521434 7.787489,11.521848 7.602366,11.529336 7.602592,11.323781 7.608438,11.236822 7.650563,11.236186 7.69402,11.235661 7.743121,11.235249" style="fill: white" />
</svg>
