<svg width="19.131698" height="19.131699">
<polygon type="contour" points="11.200781,10.909995 11.200781,11.200783 10.909993,11.200783 10.909047,11.053212 10.910322,11.027569 10.914085,10.914086 10.990429,10.915292 11.027567,10.910324 11.05321,10.909049" style="fill: white" /><polygon type="contour" points="11.200986,11.726419 11.200724,11.950501 11.200795,11.950501 11.200778,11.966667 11.200953,12.217871 10.907339,12.217871 10.907461,12.154543 10.906964,11.926893 10.907248,11.724897 10.907165,11.68304 11.200986,11.68304" style="fill: white" /><polygon type="contour" points="11.200609,12.712434 11.200609,12.780888 11.200781,12.855258 11.200911,12.95752 10.906961,12.954235 10.906724,12.954234 10.909625,12.818017 10.910334,12.667022 11.135446,12.666481 11.200833,12.666481" style="fill: white" /><polygon type="contour" points="12.217739,12.664687 12.217739,12.691051 12.21787,12.780855 11.966666,12.780179 11.95809,12.78022 11.901985,12.780169 11.724896,12.780842 11.683039,12.780777 11.682864,12.754651 11.680021,12.664688 11.726471,12.664688 11.89013,12.66455 11.966667,12.66455" style="fill: white" /><polygon type="contour" points="12.954778,12.670452 12.967058,12.967059 12.925503,12.965468 12.666751,12.957725 12.666751,12.890731 12.667021,12.732881 12.666942,12.666942 12.900809,12.664603 12.95454,12.664134" style="fill: white" /><polygon type="contour" points="12.689454,11.68304 12.780775,11.68304 12.78084,11.724896 12.780093,11.921082 12.781026,12.154543 12.780853,12.217871 12.69105,12.21774 12.664687,12.21774 12.664687,12.157949 12.664549,11.950574 12.664549,11.877627 12.664729,11.682865" style="fill: white" /><polygon type="contour" points="12.21732,11.728758 12.217932,11.89013 12.217932,11.966667 12.21787,12.217871 12.148944,12.217871 11.950573,12.217933 11.877626,12.217933 11.682864,12.217323 11.682929,11.966667 11.683151,11.890178 11.682976,11.890178 11.682976,11.878492 11.683039,11.68304 11.726417,11.68304 11.890177,11.682977 11.890177,11.683152 11.966666,11.68293 12.21732,11.682865" style="fill: white" /><polygon type="contour" points="12.154542,10.907463 12.21787,10.907342 12.21787,11.200955 12.152241,11.201033 11.890177,11.200726 11.890177,11.200797 11.878491,11.200797 11.683039,11.200988 11.683039,10.907166 11.724896,10.907249 11.926953,10.906966" style="fill: white" /><polygon type="contour" points="12.954309,10.906996 12.954297,10.907793 12.957519,11.200913 12.818929,11.200934 12.691637,11.2009 12.666479,11.200834 12.667021,10.97572 12.667022,10.910336 12.818016,10.909627 12.950153,10.907027 12.953145,10.90699" style="fill: white" /><polygon type="contour" points="12.965283,6.209453 12.95454,6.467569 12.947548,6.467562 12.900808,6.467098 12.666942,6.464758 12.667022,6.398821 12.667022,6.17425 12.827067,6.169349 12.967058,6.164645" style="fill: white" /><polygon type="contour" points="12.21787,6.350849 12.217739,6.440652 12.217739,6.467016 12.157949,6.467016 11.950573,6.467151 11.877627,6.467151 11.680021,6.467016 11.680154,6.441985 11.683038,6.350927 11.724895,6.350862 11.92108,6.351608 12.154542,6.350676" style="fill: white" /><polygon type="contour" points="12.21787,6.913833 12.21787,6.982757 12.217932,7.181128 12.217932,7.254075 12.21732,7.448839 11.966666,7.448774 11.890177,7.448551 11.890177,7.448727 11.878492,7.448727 11.683039,7.448664 11.683039,7.405285 11.682976,7.241526 11.683151,7.241525 11.682929,7.165035 11.682864,6.914382 11.877626,6.913771 11.966667,6.913771" style="fill: white" /><polygon type="contour" points="12.781026,6.977159 12.780093,7.210621 12.78084,7.406806 12.780775,7.448664 12.75465,7.448839 12.664687,7.451679 12.664687,7.405228 12.664549,7.241573 12.664549,7.165035 12.664687,6.913962 12.69105,6.913962 12.780854,6.913833" style="fill: white" /><polygon type="contour" points="12.957519,7.930791 12.954464,8.222952 12.954454,8.224819 12.818017,8.222077 12.667021,8.221368 12.666479,7.996253 12.666479,7.930868 12.81893,7.93077" style="fill: white" /><polygon type="contour" points="11.9505,7.930977 11.9505,7.930907 11.966666,7.930924 12.21787,7.930749 12.21787,8.224363 12.154543,8.224241 11.926923,8.224738 11.724896,8.224455 11.683039,8.224538 11.683039,7.930716 11.726417,7.930716" style="fill: white" /><polygon type="contour" points="11.200781,7.930921 11.200781,8.221709 11.05321,8.222655 11.027567,8.221379 10.914085,8.217618 10.91529,8.141272 10.910322,8.104135 10.909047,8.078491 10.910181,7.93067 11.054445,7.93067" style="fill: white" /><polygon type="contour" points="11.201031,6.979461 11.200724,7.241526 11.200795,7.241526 11.200795,7.253211 11.200986,7.448664 10.907165,7.448664 10.907248,7.406806 10.906964,7.204811 10.907461,6.977159 10.907339,6.913833 11.200953,6.913833" style="fill: white" /><polygon type="contour" points="11.200911,6.199745 11.200933,6.31277 11.200899,6.440064 11.200833,6.465223 10.975718,6.464679 10.910334,6.464679 10.909625,6.313684 10.906338,6.181547 10.906293,6.178554 10.906298,6.177391 10.907096,6.177403 11.200911,6.174182" style="fill: white" /><polygon type="contour" points="8.224739,6.177469 8.224976,6.17747 8.222076,6.313684 8.221367,6.464679 7.996252,6.465223 7.930866,6.465223 7.931091,6.419268 7.931091,6.350815 7.930918,6.276444 7.930789,6.174182" style="fill: white" /><polygon type="contour" points="6.206133,6.166204 6.464868,6.173897 6.464911,6.411643 6.464756,6.464758 6.23089,6.467099 6.17716,6.46757 6.176923,6.461251 6.164643,6.164645" style="fill: white" /><polygon type="contour" points="6.440649,6.913962 6.467013,6.913962 6.467013,6.973751 6.467149,7.181129 6.467149,7.254075 6.46697,7.448839 6.442245,7.448664 6.350926,7.448664 6.350861,7.406806 6.351607,7.210603 6.350674,6.977158 6.350846,6.913833" style="fill: white" /><polygon type="contour" points="7.165034,6.351525 7.17361,6.351484 7.229729,6.351535 7.406804,6.350862 7.448661,6.350927 7.448836,6.377052 7.451677,6.467016 7.405225,6.467016 7.24157,6.467151 7.165034,6.467151 6.91396,6.467016 6.91396,6.440652 6.91383,6.350849" style="fill: white" /><polygon type="contour" points="7.448836,6.914382 7.448772,7.165035 7.448549,7.241526 7.448725,7.241526 7.448725,7.253211 7.448661,7.448664 7.405282,7.448664 7.241523,7.448727 7.241523,7.448551 7.165034,7.448774 6.91438,7.448839 6.91438,7.402945 6.913769,7.241571 6.913769,7.165035 6.91383,6.913833 6.982755,6.913833 7.181126,6.913771 7.254073,6.913771" style="fill: white" /><polygon type="contour" points="8.224239,6.977159 8.224736,7.204778 8.224453,7.406806 8.224536,7.448664 7.930714,7.448664 7.930714,7.405285 7.930975,7.181202 7.930905,7.181202 7.930922,7.165035 7.930747,6.913833 8.224361,6.913833" style="fill: white" /><polygon type="contour" points="8.215939,7.999877 8.217616,8.217618 8.141271,8.216412 8.104133,8.221379 8.078489,8.222655 7.930669,8.221522 7.930669,8.077256 7.930919,7.930921 8.077254,7.93067 8.22152,7.93067" style="fill: white" /><polygon type="contour" points="7.241524,7.930977 7.241524,7.930907 7.253209,7.930907 7.448661,7.930715 7.448661,8.224538 7.406803,8.224455 7.204776,8.224738 6.977157,8.224241 6.91383,8.224363 6.91383,7.930749 6.979458,7.930671" style="fill: white" /><polygon type="contour" points="6.440061,7.930801 6.465221,7.930868 6.464677,8.155982 6.464677,8.221367 6.313682,8.222077 6.181544,8.224676 6.178553,8.224713 6.177388,8.224707 6.1774,8.223909 6.17418,7.930791 6.312769,7.930769" style="fill: white" /><polygon type="contour" points="6.313682,10.909626 6.464677,10.910336 6.465221,11.135449 6.465221,11.200834 6.312769,11.200934 6.17418,11.200913 6.177236,10.908751 6.177247,10.906884" style="fill: white" /><polygon type="contour" points="7.448836,12.664733 7.448661,12.689457 7.448661,12.780777 7.406803,12.780842 7.210614,12.780096 6.977157,12.781028 6.91383,12.780855 6.91396,12.691051 6.91396,12.664688 6.97375,12.664688 7.181127,12.66455 7.254074,12.66455" style="fill: white" /><polygon type="contour" points="8.15598,12.667022 8.221367,12.667022 8.222076,12.818017 8.225363,12.950157 8.225407,12.953149 8.225401,12.954312 8.224605,12.9543 7.930789,12.95752 7.930789,12.931956 7.930766,12.818932 7.9308,12.69164 7.930866,12.666481" style="fill: white" /><polygon type="contour" points="8.224453,11.724897 8.224736,11.926925 8.224239,12.154544 8.224361,12.217871 7.930747,12.217871 7.930669,12.152242 7.930975,11.890178 7.930905,11.890178 7.930905,11.878492 7.930713,11.68304 8.224536,11.68304" style="fill: white" /><polygon type="contour" points="7.999877,10.915761 8.217616,10.914085 8.222654,11.053212 8.221707,11.200783 7.930919,11.200783 7.930669,11.054447 7.930669,10.910182" style="fill: white" /><polygon type="contour" points="7.406803,10.907249 7.448661,10.907166 7.448661,11.200988 7.405282,11.200988 7.181201,11.200726 7.181201,11.200796 7.165034,11.200779 6.91383,11.200955 6.91383,10.907341 6.977157,10.907463 7.204747,10.906966" style="fill: white" /><polygon type="contour" points="7.165034,11.68293 7.241524,11.683152 7.241524,11.682977 7.253208,11.682977 7.448661,11.68304 7.448661,11.726419 7.448725,11.890177 7.448549,11.890178 7.448772,11.966667 7.448836,12.217323 7.254074,12.217933 7.165033,12.217933 6.91383,12.217871 6.91383,12.148945 6.913768,11.950574 6.913769,11.950574 6.913769,11.877627 6.91438,11.682865" style="fill: white" /><polygon type="contour" points="6.46697,11.728758 6.467149,11.890131 6.467149,11.966667 6.467013,12.21774 6.440649,12.21774 6.350846,12.217871 6.350674,12.154543 6.351607,11.9211 6.350861,11.724896 6.350926,11.68304 6.37705,11.682865 6.46697,11.682865" style="fill: white" /><polygon type="contour" points="6.184151,12.66414 6.230891,12.664604 6.464756,12.666943 6.464677,12.732881 6.464677,12.957454 6.304632,12.962354 6.164642,12.967059 6.166416,12.922249 6.17716,12.664134" style="fill: white" />
</svg>
