<svg width="19.131698" height="19.131699">
<polygon type="contour" points="8.284269,8.594342 8.284216,8.778219 8.248018,8.778229 8.190258,8.778771 8.190321,8.678413 8.190321,8.483119 8.222107,8.483119 8.284269,8.482942" style="fill: white" /><polygon type="contour" points="7.441142,7.396392 7.482608,7.39954 7.693823,7.400082 7.694092,7.424912 7.694092,7.449696 7.694207,7.450982 7.694541,7.569178 7.694541,7.694543 7.400475,7.694543 7.399787,7.494902 7.396036,7.396038" style="fill: white" /><polygon type="contour" points="8.284361,7.626516 8.284361,7.695922 8.242808,7.695922 8.190443,7.696157 8.190255,7.655445 8.190255,7.570333 8.245729,7.57035 8.284208,7.570332" style="fill: white" /><polygon type="contour" points="7.989237,7.614887 7.989237,7.696157 7.950865,7.696157 7.880118,7.696037 7.880118,7.570479 7.950865,7.570367 7.989325,7.570333" style="fill: white" /><polygon type="contour" points="7.614885,8.190446 7.696156,8.190446 7.696156,8.223406 7.69592,8.284362 7.64143,8.28421 7.57033,8.28421 7.570317,8.222109 7.570331,8.214951 7.570331,8.190257" style="fill: white" /><polygon type="contour" points="7.696035,7.929864 7.696156,7.989239 7.655443,7.989327 7.570331,7.989327 7.570439,7.92629 7.570478,7.880121 7.696035,7.880121" style="fill: white" /><polygon type="contour" points="7.989325,7.915149 7.989325,7.989327 7.950864,7.989239 7.880037,7.989239 7.880037,7.950866 7.880118,7.880121 7.929863,7.880121 7.989237,7.880039" style="fill: white" /><polygon type="contour" points="8.284243,7.950866 8.28412,7.989163 8.253971,7.989327 8.190255,7.989327 8.190443,7.950867 8.190443,7.880039 8.223403,7.880039 8.284361,7.879961" style="fill: white" /><polygon type="contour" points="8.222107,8.190323 8.28412,8.190323 8.28412,8.222109 8.284208,8.28421 8.243933,8.28421 8.190321,8.284122 8.190255,8.253972 8.190255,8.190257" style="fill: white" /><polygon type="contour" points="7.989161,8.222109 7.989161,8.284122 7.950864,8.284244 7.879958,8.284362 7.879958,8.242811 7.880037,8.190446 7.915148,8.190257 7.989325,8.190257" style="fill: white" /><polygon type="contour" points="7.989161,8.483119 7.989205,8.581569 7.989205,8.778771 7.950864,8.778812 7.880163,8.778224 7.880163,8.657951 7.879989,8.482851 7.921195,8.482792" style="fill: white" /><polygon type="contour" points="7.695079,8.613607 7.694776,8.776147 7.535167,8.777176 7.400796,8.777497 7.400985,8.61426 7.401258,8.48216 7.51628,8.481218 7.695079,8.480795" style="fill: white" /><polygon type="contour" points="7.695846,9.232373 7.696331,9.314211 7.651479,9.314371 7.57046,9.314371 7.570244,9.227501 7.570252,9.164935 7.640972,9.164935 7.695846,9.1648" style="fill: white" /><polygon type="contour" points="7.927552,9.161591 7.989205,9.165228 7.989325,9.213077 7.989325,9.313882 7.950865,9.313759 7.880029,9.314211 7.880029,9.256746 7.880118,9.161579" style="fill: white" /><polygon type="contour" points="8.284208,9.228827 8.28423,9.314127 8.251012,9.314371 8.190255,9.313883 8.190258,9.264295 8.190258,9.165228 8.222107,9.165273 8.284208,9.165108" style="fill: white" /><polygon type="contour" points="8.222108,10.352948 8.284216,10.353485 8.284216,10.469558 8.284269,10.648762 8.248979,10.648762 8.190321,10.648583 8.190258,10.550133 8.190258,10.352934" style="fill: white" /><polygon type="contour" points="7.989161,10.453289 7.989161,10.648583 7.950864,10.648536 7.879989,10.648853 7.879989,10.533009 7.880162,10.353479 7.922285,10.353548 7.989205,10.352934" style="fill: white" /><polygon type="contour" points="7.520612,10.355141 7.694691,10.355581 7.695115,10.535354 7.695115,10.650912 7.537478,10.649869 7.401258,10.649544 7.401082,10.494199 7.400797,10.354208" style="fill: white" /><polygon type="contour" points="7.619324,9.817922 7.696331,9.817922 7.696331,9.875388 7.695846,9.966905 7.640972,9.966769 7.570253,9.966769 7.570463,9.87233 7.57046,9.863055 7.57046,9.817785" style="fill: white" /><polygon type="contour" points="7.989325,9.81782 7.989205,9.867407 7.989205,9.966476 7.950864,9.96659 7.880118,9.970126 7.880029,9.875388 7.880029,9.817922 7.918717,9.817785" style="fill: white" /><polygon type="contour" points="8.222107,9.81803 8.28423,9.818017 8.28423,9.873281 8.284208,9.966596 8.244518,9.966656 8.190258,9.966476 8.190255,9.918626 8.190255,9.81782" style="fill: white" /><polygon type="contour" points="8.591536,9.818068 8.778477,9.818068 8.778477,9.87233 8.778082,9.966524 8.661465,9.966471 8.482641,9.966794 8.482641,9.9104 8.483243,9.818017" style="fill: white" /><polygon type="contour" points="9.966466,9.259817 9.966466,9.31408 9.913738,9.314371 9.817331,9.314371 9.817622,9.259816 9.817622,9.165236 9.871885,9.165236 9.966768,9.164935" style="fill: white" /><polygon type="contour" points="9.966594,10.847494 9.966654,10.887183 9.966474,10.941445 9.918623,10.941448 9.817817,10.941448 9.818027,10.909594 9.817576,10.847472 9.872839,10.847472" style="fill: white" /><polygon type="contour" points="9.966522,10.353621 9.966847,10.538536 9.966792,10.649062 9.910397,10.649062 9.817576,10.648459 9.817622,10.540165 9.817622,10.353225 9.871884,10.353225" style="fill: white" /><polygon type="contour" points="9.871885,9.818068 9.966466,9.818068 9.966466,9.872331 9.966768,9.966769 9.871885,9.966468 9.817622,9.966468 9.817331,9.913741 9.817331,9.817785" style="fill: white" /><polygon type="contour" points="9.313635,9.87233 9.313635,9.966468 9.259372,9.966468 9.164933,9.966769 9.165235,9.872331 9.165235,9.818068 9.217959,9.817785 9.313917,9.817785" style="fill: white" /><polygon type="contour" points="9.259372,9.165236 9.313635,9.165236 9.313917,9.217962 9.313917,9.314371 9.259372,9.31408 9.165235,9.31408 9.165235,9.259817 9.164933,9.164935" style="fill: white" /><polygon type="contour" points="8.778082,9.165181 8.778082,9.222598 8.778477,9.31408 8.668198,9.314127 8.483243,9.314127 8.483243,9.258861 8.482641,9.164911 8.593165,9.164856" style="fill: white" /><polygon type="contour" points="8.779294,8.72423 8.779302,8.779303 8.54389,8.778991 8.483731,8.778991 8.484054,8.527518 8.484124,8.484126 8.5338,8.484063 8.778989,8.483753" style="fill: white" /><polygon type="contour" points="8.778755,8.222109 8.777968,8.284287 8.672683,8.284287 8.483027,8.284053 8.483027,8.246862 8.483116,8.190323 8.581566,8.19026 8.778768,8.19026" style="fill: white" /><polygon type="contour" points="8.778408,7.880288 8.778352,7.91848 8.778768,7.989207 8.678412,7.989163 8.483116,7.989163 8.483163,7.950866 8.483012,7.880064 8.604624,7.880064" style="fill: white" /><polygon type="contour" points="8.777548,7.400991 8.776608,7.459702 8.776152,7.650649 8.776273,7.694958 8.667205,7.694958 8.48095,7.69485 8.480845,7.644397 8.480845,7.46765 8.481995,7.401038 8.643599,7.400849" style="fill: white" /><polygon type="contour" points="9.313917,7.570461 9.31378,7.619326 9.31378,7.696333 9.256314,7.696333 9.164798,7.695848 9.164933,7.640974 9.164933,7.570256 9.2275,7.570247" style="fill: white" /><polygon type="contour" points="9.313916,7.918718 9.313882,7.989327 9.264295,7.989207 9.165226,7.989207 9.165113,7.950867 9.161577,7.880121 9.229494,7.880121 9.31378,7.88003" style="fill: white" /><polygon type="contour" points="9.313673,8.222109 9.313686,8.284232 9.258421,8.284232 9.165106,8.28421 9.165046,8.24452 9.165226,8.19026 9.213075,8.190257 9.313882,8.190257" style="fill: white" /><polygon type="contour" points="9.313686,8.483245 9.313635,8.591538 9.313635,8.778479 9.259372,8.778479 9.165179,8.778083 9.164854,8.593167 9.164909,8.482642 9.221303,8.482642" style="fill: white" /><polygon type="contour" points="9.966847,8.593167 9.966522,8.778084 9.909103,8.778084 9.817622,8.778479 9.817576,8.6682 9.817576,8.483245 9.872839,8.483245 9.966792,8.482642" style="fill: white" /><polygon type="contour" points="9.867405,8.19026 9.966474,8.19026 9.966428,8.22211 9.966594,8.28421 9.902874,8.28421 9.817576,8.284232 9.817331,8.251013 9.817817,8.190257" style="fill: white" /><polygon type="contour" points="9.970124,7.880121 9.96679,7.940786 9.966587,7.950866 9.966474,7.989207 9.918623,7.989327 9.817817,7.989327 9.81794,7.950867 9.81749,7.88003 9.874956,7.88003" style="fill: white" /><polygon type="contour" points="9.966768,7.570256 9.966768,7.640974 9.966903,7.695848 9.899327,7.695848 9.81749,7.696333 9.817331,7.651482 9.817331,7.570462 9.904198,7.570247" style="fill: white" /><polygon type="contour" points="10.50565,7.401162 10.649705,7.401038 10.650855,7.467651 10.650855,7.644397 10.65075,7.694851 10.529136,7.694851 10.355426,7.694958 10.3545,7.547032 10.354153,7.400991" style="fill: white" /><polygon type="contour" points="11.735616,7.439817 11.731912,7.494902 11.731224,7.694543 11.437159,7.694543 11.437159,7.569178 11.437491,7.450981 11.437605,7.424912 11.437852,7.422962 11.437874,7.400082 11.64909,7.39954 11.735665,7.396038" style="fill: white" /><polygon type="contour" points="11.180836,8.190446 11.251663,8.190446 11.251663,8.223406 11.251742,8.284362 11.180835,8.284244 11.142539,8.284122 11.142375,8.253972 11.142375,8.190257" style="fill: white" /><polygon type="contour" points="10.94138,8.222109 10.94138,8.284122 10.909593,8.284122 10.847492,8.28421 10.847492,8.243935 10.847578,8.190323 10.877727,8.190257 10.941446,8.190257" style="fill: white" /><polygon type="contour" points="10.94138,8.483119 10.941443,8.581568 10.941443,8.778771 10.909593,8.778756 10.847483,8.778219 10.847483,8.662146 10.847431,8.482942 10.882721,8.482942" style="fill: white" /><polygon type="contour" points="11.251709,8.598693 11.251535,8.778224 11.209412,8.778156 11.142495,8.778771 11.142539,8.678414 11.142539,8.483119 11.180835,8.483166 11.251709,8.482851" style="fill: white" /><polygon type="contour" points="11.594221,8.481835 11.730442,8.48216 11.730619,8.637504 11.730903,8.777497 11.611087,8.776563 11.437007,8.776122 11.436585,8.596348 11.436585,8.480792" style="fill: white" /><polygon type="contour" points="11.561351,8.24573 11.56137,8.28421 11.505185,8.284362 11.43578,8.284362 11.43578,8.242811 11.435543,8.190445 11.476252,8.190257 11.561368,8.190257" style="fill: white" /><polygon type="contour" points="11.561334,7.950866 11.561368,7.962836 11.561368,7.989327 11.516813,7.989239 11.435543,7.989239 11.435543,7.950866 11.435665,7.880121 11.56122,7.880121" style="fill: white" /><polygon type="contour" points="11.251581,7.880121 11.251742,7.940786 11.251663,7.950866 11.251663,7.989239 11.216552,7.989327 11.142375,7.989327 11.142464,7.950867 11.142464,7.880039 11.180835,7.880039" style="fill: white" /><polygon type="contour" points="11.205411,7.570442 11.251581,7.57048 11.251581,7.696037 11.201836,7.696037 11.142464,7.696157 11.142375,7.655445 11.142375,7.570334" style="fill: white" /><polygon type="contour" points="10.941446,7.570334 10.941257,7.614887 10.941257,7.696157 10.908295,7.696157 10.847338,7.695922 10.847492,7.641432 10.847492,7.570332 10.909593,7.57032" style="fill: white" /><polygon type="contour" points="10.941257,7.880038 10.941446,7.91515 10.941446,7.989327 10.909593,7.989163 10.847578,7.989163 10.847455,7.950867 10.847338,7.879961 10.888891,7.879961" style="fill: white" /><polygon type="contour" points="10.648745,7.92337 10.648582,7.989163 10.55013,7.989207 10.352933,7.989207 10.35289,7.950866 10.353291,7.880288 10.462665,7.880288 10.648687,7.880064" style="fill: white" /><polygon type="contour" points="10.453289,8.190323 10.648582,8.190323 10.648582,8.22211 10.648673,8.284053 10.53127,8.284053 10.353733,8.284287 10.353727,8.25149 10.352933,8.19026" style="fill: white" /><polygon type="contour" points="10.601579,8.484016 10.647573,8.484126 10.647868,8.715668 10.647932,8.779025 10.401879,8.779329 10.352399,8.779303 10.352712,8.543892 10.352619,8.483683" style="fill: white" /><polygon type="contour" points="10.649059,9.164911 10.649059,9.221305 10.648457,9.314127 10.540164,9.31408 10.353223,9.31408 10.353223,9.259816 10.353619,9.165181 10.538534,9.164856" style="fill: white" /><polygon type="contour" points="10.941443,9.165228 10.941446,9.213076 10.941446,9.313883 10.909593,9.313674 10.84747,9.314127 10.84747,9.258861 10.847492,9.165108 10.887181,9.165048" style="fill: white" /><polygon type="contour" points="11.490727,9.164935 11.561447,9.164935 11.561233,9.259816 11.561236,9.2691 11.561236,9.314371 11.512372,9.314211 11.435369,9.314211 11.435369,9.256746 11.435854,9.1648" style="fill: white" /><polygon type="contour" points="11.251754,9.232373 11.25167,9.314211 11.212983,9.314371 11.142375,9.313883 11.142495,9.264296 11.142495,9.165228 11.180835,9.165114 11.251754,9.1648" style="fill: white" /><polygon type="contour" points="11.561454,9.9042 11.561447,9.966769 11.490727,9.966769 11.435854,9.966905 11.435854,9.899329 11.435369,9.817922 11.480219,9.817785 11.561236,9.817785" style="fill: white" /><polygon type="contour" points="11.180836,9.817943 11.251671,9.817922 11.251671,9.875388 11.251754,9.966905 11.204577,9.966769 11.142494,9.966476 11.142375,9.918626 11.142375,9.81782" style="fill: white" /><polygon type="contour" points="10.941446,9.81782 10.941443,9.867408 10.941443,9.966476 10.909593,9.966431 10.847492,9.966596 10.847492,9.902876 10.84747,9.818017 10.880688,9.817785" style="fill: white" /><polygon type="contour" points="10.648457,9.873281 10.649059,9.966794 10.538534,9.966849 10.353619,9.966524 10.353619,9.909105 10.353223,9.818068 10.463501,9.818017 10.648457,9.818017" style="fill: white" /><polygon type="contour" points="10.587809,10.352714 10.647969,10.352714 10.647642,10.604182 10.647573,10.647575 10.597896,10.647637 10.352711,10.64795 10.352406,10.407473 10.352399,10.352402" style="fill: white" /><polygon type="contour" points="10.94138,10.45329 10.94138,10.648583 10.909593,10.648583 10.847431,10.648762 10.847431,10.53736 10.847482,10.353485 10.88368,10.353474 10.941443,10.352934" style="fill: white" /><polygon type="contour" points="11.251535,10.353479 11.251535,10.473752 11.251709,10.648853 11.210503,10.648912 11.142539,10.648583 11.142495,10.550132 11.142495,10.352934 11.180836,10.352892" style="fill: white" /><polygon type="contour" points="11.730714,10.517444 11.730442,10.649544 11.615419,10.650485 11.436621,10.650909 11.436621,10.518094 11.436924,10.355557 11.596532,10.354529 11.730902,10.354208" style="fill: white" /><polygon type="contour" points="11.731911,11.636802 11.735665,11.735666 11.690557,11.735312 11.649091,11.732164 11.437874,11.731622 11.437605,11.706791 11.437605,11.682007 11.437491,11.680721 11.437159,11.562525 11.437159,11.437161 11.731224,11.437161" style="fill: white" /><polygon type="contour" points="11.251581,11.435667 11.251581,11.561223 11.180836,11.561337 11.142375,11.56137 11.142464,11.516814 11.142464,11.435545 11.180836,11.435545" style="fill: white" /><polygon type="contour" points="10.65075,11.436852 10.650855,11.487305 10.650855,11.664053 10.649705,11.730666 10.488101,11.730854 10.354153,11.730712 10.355093,11.672001 10.355549,11.481053 10.355426,11.436744 10.464496,11.436744" style="fill: white" /><polygon type="contour" points="10.941446,11.476255 10.941446,11.56137 10.885971,11.561353 10.847492,11.561372 10.847338,11.505186 10.847338,11.435782 10.888891,11.435782 10.941257,11.435545" style="fill: white" /><polygon type="contour" points="10.941257,11.180838 10.941257,11.251665 10.908295,11.251665 10.847338,11.251743 10.847455,11.180837 10.847578,11.142541 10.877727,11.142377 10.941446,11.142377" style="fill: white" /><polygon type="contour" points="11.180836,11.142466 11.251663,11.142466 11.251663,11.180837 11.251581,11.251583 11.201837,11.251583 11.142464,11.251665 11.142375,11.216553 11.142375,11.142377" style="fill: white" /><polygon type="contour" points="11.561256,11.205413 11.56122,11.251583 11.435665,11.251583 11.435665,11.201839 11.435543,11.142466 11.476252,11.142377 11.561368,11.142377" style="fill: white" /><polygon type="contour" points="11.490269,10.847494 11.56137,10.847494 11.561383,10.909594 11.561368,10.916752 11.561368,10.941448 11.516814,10.941259 11.435543,10.941259 11.435543,10.908297 11.43578,10.84734" style="fill: white" /><polygon type="contour" points="11.251742,10.888892 11.251663,10.941259 11.216551,10.941448 11.142375,10.941448 11.142539,10.909595 11.142539,10.84758 11.180836,10.847457 11.251742,10.84734" style="fill: white" /><polygon type="contour" points="10.94138,10.847579 10.941446,10.877729 10.941446,10.941448 10.909593,10.941382 10.847578,10.941382 10.847578,10.909594 10.847492,10.847494 10.887766,10.847494" style="fill: white" /><polygon type="contour" points="10.648673,10.847651 10.648673,10.884841 10.648582,10.941382 10.550131,10.941445 10.352933,10.941445 10.352946,10.909595 10.353733,10.847417 10.459016,10.847417" style="fill: white" /><polygon type="contour" points="10.453288,11.142541 10.648582,11.142541 10.648535,11.180837 10.648688,11.25164 10.527074,11.25164 10.353291,11.251416 10.353347,11.213223 10.352933,11.142497" style="fill: white" /><polygon type="contour" points="9.966903,11.435856 9.966768,11.490729 9.966768,11.561448 9.904199,11.561456 9.817331,11.56124 9.81749,11.512376 9.81749,11.435371 9.874956,11.435371" style="fill: white" /><polygon type="contour" points="9.867404,11.142497 9.966474,11.142497 9.966587,11.180837 9.966903,11.251757 9.874956,11.251673 9.81749,11.251673 9.817331,11.212984 9.817817,11.142377" style="fill: white" /><polygon type="contour" points="9.313917,11.480221 9.313917,11.56124 9.2275,11.561456 9.164933,11.561448 9.164933,11.490729 9.164798,11.435856 9.232371,11.435856 9.31378,11.435371" style="fill: white" /><polygon type="contour" points="9.313759,11.180837 9.31378,11.251673 9.256314,11.251673 9.164797,11.251757 9.16491,11.190918 9.165113,11.180838 9.165226,11.142496 9.213075,11.142377 9.313882,11.142376" style="fill: white" /><polygon type="contour" points="9.313917,10.88069 9.313882,10.941447 9.264295,10.941444 9.165225,10.941445 9.165271,10.909595 9.165106,10.847494 9.228825,10.847494 9.313686,10.847472" style="fill: white" /><polygon type="contour" points="9.313686,10.463503 9.313686,10.648459 9.258422,10.648459 9.164909,10.649062 9.164854,10.538536 9.165179,10.353621 9.222597,10.353621 9.313635,10.353225" style="fill: white" /><polygon type="contour" points="8.779302,10.352402 8.778989,10.587812 8.779082,10.64802 8.530116,10.647683 8.484124,10.647575 8.483831,10.416036 8.483768,10.352679 8.729821,10.352376" style="fill: white" /><polygon type="contour" points="8.777974,10.880215 8.778768,10.941445 8.678411,10.941382 8.483116,10.941382 8.483116,10.909594 8.483027,10.847651 8.600429,10.847651 8.777968,10.847417" style="fill: white" /><polygon type="contour" points="8.77881,11.180837 8.778408,11.251416 8.669033,11.251416 8.483012,11.25164 8.482954,11.208332 8.483116,11.142541 8.581567,11.142497 8.778768,11.142497" style="fill: white" /><polygon type="contour" points="8.7772,11.584669 8.777548,11.730712 8.62605,11.730542 8.481995,11.730666 8.480845,11.664053 8.480845,11.487305 8.48095,11.436852 8.602561,11.436852 8.776273,11.436744" style="fill: white" /><polygon type="contour" points="8.284361,11.435782 8.284208,11.490271 8.284208,11.561372 8.222107,11.561384 8.190255,11.56137 8.190443,11.516815 8.190443,11.435545 8.223403,11.435545" style="fill: white" /><polygon type="contour" points="7.614886,11.142466 7.696156,11.142466 7.696156,11.180837 7.696035,11.251583 7.570478,11.251583 7.570365,11.180838 7.570331,11.168868 7.570331,11.142377" style="fill: white" /><polygon type="contour" points="7.69592,10.888892 7.696156,10.941259 7.655443,10.941448 7.570331,10.941448 7.570347,10.885973 7.57033,10.847494 7.626515,10.84734 7.69592,10.84734" style="fill: white" /><polygon type="contour" points="7.950865,10.847457 7.989161,10.84758 7.989325,10.877729 7.989325,10.941448 7.950864,10.941259 7.880037,10.941259 7.880037,10.908298 7.879958,10.84734" style="fill: white" /><polygon type="contour" points="8.284208,10.887768 8.28412,10.941382 8.253971,10.941448 8.190255,10.941448 8.190321,10.909595 8.190321,10.84758 8.222107,10.84758 8.284208,10.847494" style="fill: white" /><polygon type="contour" points="8.222107,11.142541 8.284119,11.142541 8.284243,11.180838 8.284361,11.251743 8.242808,11.251743 8.190443,11.251665 8.190255,11.216553 8.190255,11.142377" style="fill: white" /><polygon type="contour" points="7.989237,11.180838 7.989237,11.251665 7.950864,11.251665 7.880118,11.251583 7.879958,11.190917 7.880037,11.180837 7.880037,11.142466 7.915148,11.142377 7.989325,11.142377" style="fill: white" /><polygon type="contour" points="7.989325,11.476255 7.989325,11.56137 7.926287,11.561259 7.880118,11.561223 7.880118,11.435667 7.929862,11.435667 7.989237,11.435545" style="fill: white" /><polygon type="contour" points="7.694541,11.562525 7.694207,11.680721 7.694092,11.706791 7.693844,11.708741 7.693823,11.731622 7.482608,11.732164 7.396036,11.735666 7.396084,11.691886 7.399787,11.636801 7.400475,11.437161 7.694541,11.437161" style="fill: white" />
</svg>
