<svg width="19.131698" height="19.131699">
<polygon type="contour" points="11.65465,8.553946 11.654949,8.701232 11.655263,8.848249 11.491075,8.847919 11.362923,8.848762 11.36263,8.725975 11.362473,8.554626 11.497891,8.553699" style="fill: white" /><polygon type="contour" points="11.664132,7.567238 11.65569,7.692783 11.655431,7.768116 11.363586,7.768116 11.363586,7.644971 11.363711,7.600371 11.363991,7.536522 11.364597,7.531744 11.36465,7.475704 11.466929,7.475441 11.664242,7.46746" style="fill: white" /><polygon type="contour" points="11.485432,8.015329 11.485324,8.049311 11.403103,8.049311 11.361846,8.049324 11.362079,7.997659 11.362079,7.955398 11.485416,7.955398" style="fill: white" /><polygon type="contour" points="11.485324,8.261931 11.485441,8.30258 11.485571,8.371365 11.362288,8.371365 11.361875,8.302579 11.361845,8.261909 11.441291,8.261909" style="fill: white" /><polygon type="contour" points="11.176694,8.302579 11.176394,8.371137 11.117125,8.370971 11.082451,8.370971 11.082451,8.302579 11.08239,8.261931 11.144747,8.261931 11.176625,8.261909" style="fill: white" /><polygon type="contour" points="10.577018,8.554683 10.577158,8.699994 10.577158,8.848888 10.430258,8.848803 10.283029,8.848674 10.282798,8.697191 10.282677,8.554342 10.433258,8.554342" style="fill: white" /><polygon type="contour" points="7.570261,7.468267 7.664769,7.475441 7.767048,7.475703 7.767708,7.536522 7.767708,7.59722 7.767988,7.600372 7.768114,7.644971 7.768114,7.768116 7.476268,7.768116 7.476008,7.692783 7.467458,7.46746" style="fill: white" /><polygon type="contour" points="8.848037,7.518087 8.848287,7.560868 8.849109,7.663433 8.848857,7.768954 8.725974,7.76907 8.554625,7.769227 8.553697,7.711964 8.553768,7.560342 8.553768,7.476806 8.694073,7.476952 8.848288,7.476634" style="fill: white" /><polygon type="contour" points="9.289908,7.646217 9.362101,7.646275 9.362101,7.724986 9.361988,7.769666 9.292822,7.769421 9.235129,7.769421 9.235129,7.701245 9.235045,7.646161" style="fill: white" /><polygon type="contour" points="9.362731,8.01533 9.362861,8.049311 9.278795,8.049311 9.23527,8.049369 9.234842,7.996051 9.234932,7.955398 9.312136,7.955016 9.361988,7.955016" style="fill: white" /><polygon type="contour" points="9.362101,8.331175 9.361729,8.371684 9.293503,8.371347 9.234822,8.371347 9.235083,8.30258 9.23527,8.26201 9.318592,8.26201 9.362861,8.261931" style="fill: white" /><polygon type="contour" points="9.310925,8.556021 9.361729,8.556021 9.361729,8.7332 9.361901,8.850405 9.29048,8.849916 9.235045,8.849916 9.235045,8.683447 9.234822,8.555601" style="fill: white" /><polygon type="contour" points="8.848802,8.701442 8.848672,8.848674 8.694093,8.848674 8.554452,8.848804 8.554452,8.701442 8.554682,8.554683 8.705262,8.554683 8.848828,8.554496" style="fill: white" /><polygon type="contour" points="8.850289,8.302579 8.849965,8.371365 8.555595,8.371365 8.555848,8.30258 8.555848,8.262213 8.741608,8.262213 8.850251,8.26201" style="fill: white" /><polygon type="contour" points="8.715446,7.955309 8.84993,7.955398 8.85013,7.99605 8.850251,8.049369 8.65751,8.049369 8.555848,8.04925 8.555805,7.998296 8.555805,7.955309 8.715067,7.954929" style="fill: white" /><polygon type="contour" points="8.370969,8.262213 8.371363,8.319992 8.371363,8.371365 8.302578,8.370971 8.262212,8.370971 8.262212,8.30258 8.261929,8.261931 8.333522,8.261931" style="fill: white" /><polygon type="contour" points="8.371136,7.955309 8.370969,8.014575 8.370969,8.04925 8.302579,8.04925 8.261929,8.049311 8.261929,7.986952 8.261908,7.955076 8.302578,7.955007" style="fill: white" /><polygon type="contour" points="8.371363,7.769413 8.302578,7.769825 8.261908,7.769854 8.261908,7.690409 8.261929,7.646378 8.302578,7.646261 8.371363,7.646131" style="fill: white" /><polygon type="contour" points="8.04931,7.646378 8.04931,7.728596 8.049323,7.769854 7.997656,7.769623 7.955396,7.769623 7.955396,7.646284 8.015328,7.64627" style="fill: white" /><polygon type="contour" points="7.769621,7.997658 7.769853,8.049324 7.690409,8.049324 7.646376,8.049311 7.646268,8.015329 7.646282,7.955398 7.769621,7.955398" style="fill: white" /><polygon type="contour" points="8.049323,8.015329 8.04931,8.049311 7.986951,8.049311 7.955075,8.049324 7.955396,7.997659 7.955396,7.955398 8.015328,7.955076 8.049323,7.955076" style="fill: white" /><polygon type="contour" points="8.04931,8.261931 8.04931,8.333525 8.049248,8.370971 7.998294,8.371137 7.955306,8.371137 7.955007,8.302579 7.955075,8.261909 8.015329,8.261909" style="fill: white" /><polygon type="contour" points="7.769823,8.302579 7.769413,8.371365 7.646129,8.371365 7.646258,8.30258 7.646376,8.261931 7.728594,8.261931 7.769853,8.261909" style="fill: white" /><polygon type="contour" points="7.769226,8.554626 7.768969,8.662477 7.768777,8.848762 7.640624,8.847919 7.476437,8.848249 7.476746,8.696589 7.47705,8.553946 7.562991,8.553946 7.711961,8.553699" style="fill: white" /><polygon type="contour" points="8.049248,8.555849 8.049248,8.74161 8.049368,8.850253 7.996047,8.850133 7.955396,8.849932 7.955396,8.688004 7.955306,8.555807 7.998293,8.555807" style="fill: white" /><polygon type="contour" points="8.371363,8.849967 8.302579,8.850291 8.262009,8.850253 8.262009,8.657511 8.262212,8.555849 8.302578,8.555849 8.371363,8.555597" style="fill: white" /><polygon type="contour" points="8.049368,10.474191 8.049248,10.575855 7.998293,10.575896 7.955306,10.575896 7.955306,10.416788 7.955457,10.416558 7.955396,10.281772 7.996047,10.281571 8.049368,10.281452" style="fill: white" /><polygon type="contour" points="7.769069,10.405728 7.769226,10.577077 7.633809,10.578005 7.477051,10.577756 7.476749,10.43047 7.476437,10.283456 7.640623,10.283786 7.768776,10.282942" style="fill: white" /><polygon type="contour" points="7.769822,10.829122 7.769852,10.869795 7.690408,10.869795 7.646376,10.869773 7.646259,10.829122 7.646129,10.760339 7.769413,10.760339" style="fill: white" /><polygon type="contour" points="8.014574,10.760732 8.049248,10.760732 8.049248,10.829122 8.04931,10.869773 7.986952,10.869773 7.955075,10.869795 7.955007,10.829122 7.955306,10.760566" style="fill: white" /><polygon type="contour" points="8.370969,10.829123 8.370969,10.869491 8.302579,10.869491 8.261929,10.869773 8.261929,10.798177 8.262212,10.760732 8.302579,10.760732 8.31236,10.760566 8.371363,10.760339" style="fill: white" /><polygon type="contour" points="8.370969,11.082454 8.371136,11.133406 8.371136,11.176395 8.302578,11.176696 8.261908,11.176628 8.261908,11.116373 8.261929,11.082392 8.333523,11.082392" style="fill: white" /><polygon type="contour" points="8.04931,11.082392 8.04931,11.14475 8.049323,11.176628 7.997656,11.176306 7.955396,11.176306 7.955075,11.116374 7.955075,11.08238 8.015328,11.08238" style="fill: white" /><polygon type="contour" points="7.769621,11.134045 7.769621,11.176306 7.646282,11.176306 7.646268,11.116373 7.646376,11.082392 7.728594,11.082392 7.769853,11.08238" style="fill: white" /><polygon type="contour" points="7.768114,11.486732 7.767988,11.531332 7.767707,11.595182 7.767102,11.599958 7.767048,11.656001 7.66477,11.656263 7.467458,11.664244 7.467567,11.564466 7.476008,11.43892 7.476268,11.363588 7.768114,11.363588" style="fill: white" /><polygon type="contour" points="8.049323,11.441292 8.04931,11.485326 8.015328,11.485434 7.955396,11.485419 7.955396,11.362081 7.997657,11.362081 8.049323,11.361848" style="fill: white" /><polygon type="contour" points="8.302578,11.361877 8.371363,11.36229 8.371363,11.485573 8.302578,11.485443 8.261929,11.485326 8.261929,11.403106 8.261908,11.361848" style="fill: white" /><polygon type="contour" points="8.662476,11.362732 8.84876,11.362925 8.847917,11.491077 8.848288,11.65507 8.692208,11.655206 8.553768,11.654898 8.553768,11.57136 8.554715,11.461382 8.554715,11.362622" style="fill: white" /><polygon type="contour" points="8.85013,11.135652 8.84993,11.176306 8.688001,11.176306 8.555805,11.176395 8.555805,11.133406 8.555848,11.082454 8.741608,11.082454 8.850251,11.082334" style="fill: white" /><polygon type="contour" points="8.850289,10.829122 8.850251,10.869694 8.65751,10.869694 8.555848,10.869491 8.555848,10.829122 8.555595,10.760339 8.849965,10.760339" style="fill: white" /><polygon type="contour" points="9.361901,10.465681 9.361729,10.575683 9.293503,10.576102 9.234822,10.576102 9.234822,10.417144 9.235045,10.281788 9.31421,10.2813 9.361901,10.2813" style="fill: white" /><polygon type="contour" points="9.362481,10.829122 9.362861,10.869773 9.278794,10.869773 9.23527,10.869694 9.235045,10.808132 9.234822,10.760357 9.310926,10.760019 9.361729,10.760019" style="fill: white" /><polygon type="contour" points="9.36286,11.082392 9.3621,11.142175 9.361988,11.176688 9.292821,11.178057 9.235129,11.178057 9.235332,11.116374 9.23527,11.082334 9.318592,11.082334" style="fill: white" /><polygon type="contour" points="9.361988,11.437883 9.362101,11.485429 9.289908,11.485487 9.235045,11.485543 9.235045,11.41516 9.235129,11.362283 9.312136,11.362038 9.361988,11.362038" style="fill: white" /><polygon type="contour" points="9.838878,11.362283 9.896572,11.362283 9.896572,11.430458 9.896656,11.485543 9.841792,11.485486 9.769158,11.485429 9.769158,11.406716 9.769287,11.362038" style="fill: white" /><polygon type="contour" points="9.896655,11.137244 9.896572,11.178057 9.819138,11.176688 9.769287,11.176688 9.768968,11.116373 9.768838,11.082392 9.852906,11.082392 9.896429,11.082334" style="fill: white" /><polygon type="contour" points="9.838197,10.760357 9.896879,10.760357 9.896618,10.829122 9.896429,10.869694 9.813107,10.869694 9.768839,10.869773 9.769158,10.800528 9.769552,10.760019" style="fill: white" /><polygon type="contour" points="9.841221,10.281788 9.896656,10.281788 9.896656,10.448255 9.896879,10.576102 9.820355,10.575683 9.769552,10.575683 9.769552,10.398502 9.769363,10.2813" style="fill: white" /><polygon type="contour" points="9.897199,9.769802 9.896656,9.841223 9.896656,9.896657 9.817051,9.897202 9.769363,9.897202 9.769363,9.817491 9.769158,9.769602 9.85008,9.769602" style="fill: white" /><polygon type="contour" points="9.362101,9.850082 9.361901,9.897202 9.29048,9.896657 9.235045,9.896657 9.234502,9.817491 9.234502,9.769802 9.314211,9.769802 9.362101,9.769602" style="fill: white" /><polygon type="contour" points="8.849914,9.841222 8.849914,9.896657 8.683446,9.896657 8.5556,9.896881 8.556018,9.820777 8.556018,9.769974 8.733199,9.769974 8.850403,9.769802" style="fill: white" /><polygon type="contour" points="8.70144,10.282901 8.848672,10.283031 8.848902,10.434512 8.849024,10.577361 8.698441,10.577361 8.554682,10.57702 8.554541,10.431708 8.554541,10.282815" style="fill: white" /><polygon type="contour" points="8.371363,10.281736 8.371363,10.576106 8.302579,10.575855 8.262212,10.575855 8.262212,10.390093 8.262009,10.281451 8.302578,10.281412" style="fill: white" /><polygon type="contour" points="8.331174,9.769602 8.371682,9.769974 8.371346,9.838198 8.371346,9.896881 8.302579,9.896619 8.262009,9.896432 8.262009,9.813109 8.261929,9.768841" style="fill: white" /><polygon type="contour" points="8.04931,9.852906 8.049368,9.896432 7.996047,9.89686 7.955396,9.89677 7.955014,9.819565 7.955014,9.769714 8.015328,9.768971 8.04931,9.768841" style="fill: white" /><polygon type="contour" points="7.769665,9.769714 7.76942,9.838879 7.76942,9.896573 7.701243,9.896573 7.646159,9.896657 7.646215,9.841793 7.646273,9.769602 7.724985,9.769602" style="fill: white" /><polygon type="contour" points="7.76942,9.235131 7.769665,9.312564 7.769665,9.362416 7.693819,9.362416 7.646273,9.362545 7.646215,9.28991 7.646159,9.235047 7.716542,9.235047" style="fill: white" /><polygon type="contour" points="8.015329,9.235334 8.049368,9.235272 8.049368,9.318594 8.04931,9.362863 7.989525,9.362545 7.955014,9.362416 7.955396,9.292331 7.955396,9.234934" style="fill: white" /><polygon type="contour" points="8.371346,9.234823 8.371682,9.311347 8.371682,9.362151 8.302578,9.362484 8.261929,9.362863 8.261929,9.278796 8.262009,9.235272 8.302579,9.235085 8.31236,9.234631" style="fill: white" /><polygon type="contour" points="8.849914,9.235047 8.850403,9.31465 8.850403,9.36234 8.666019,9.36234 8.556018,9.362151 8.5556,9.293504 8.5556,9.234823 8.714558,9.234823" style="fill: white" /><polygon type="contour" points="9.361901,9.31465 9.362101,9.362545 9.281619,9.362545 9.234502,9.36234 9.235045,9.290482 9.235045,9.235047 9.314211,9.234503 9.361901,9.234503" style="fill: white" /><polygon type="contour" points="9.84122,9.235047 9.896656,9.235047 9.897199,9.31465 9.897199,9.36234 9.817051,9.36234 9.769158,9.362545 9.769158,9.281621 9.769363,9.234503" style="fill: white" /><polygon type="contour" points="9.896879,8.714559 9.896656,8.849916 9.817052,8.850405 9.769363,8.850405 9.769363,8.666022 9.769552,8.556021 9.838197,8.555601 9.896879,8.555601" style="fill: white" /><polygon type="contour" points="9.89643,8.26201 9.896655,8.323571 9.896879,8.371347 9.820355,8.371684 9.769552,8.371684 9.769218,8.302579 9.768839,8.261931 9.852906,8.261931" style="fill: white" /><polygon type="contour" points="9.839371,7.955398 9.896769,7.955398 9.896368,8.01533 9.896429,8.049369 9.813107,8.049369 9.768839,8.049311 9.769158,7.989527 9.769287,7.955016" style="fill: white" /><polygon type="contour" points="9.896656,7.716543 9.896571,7.769421 9.819138,7.769666 9.769287,7.769666 9.769287,7.693821 9.769158,7.646275 9.841792,7.646217 9.896656,7.646161" style="fill: white" /><polygon type="contour" points="10.577931,7.476805 10.577931,7.560343 10.576984,7.670321 10.576984,7.769081 10.469223,7.76897 10.28294,7.768777 10.283784,7.640626 10.283413,7.476634 10.439492,7.476498" style="fill: white" /><polygon type="contour" points="10.829121,7.646261 10.869771,7.646378 10.869771,7.728595 10.869792,7.769854 10.829121,7.769825 10.760337,7.769413 10.760337,7.646131" style="fill: white" /><polygon type="contour" points="11.176304,7.646284 11.176304,7.769623 11.134044,7.769623 11.082378,7.769854 11.082378,7.69041 11.08239,7.646378 11.116371,7.64627" style="fill: white" /><polygon type="contour" points="11.134044,7.955398 11.176304,7.955398 11.176625,8.015329 11.176625,8.049324 11.116372,8.049324 11.08239,8.049311 11.08239,7.986952 11.082378,7.955076" style="fill: white" /><polygon type="contour" points="10.869792,7.955076 10.869792,8.01533 10.869771,8.049311 10.798176,8.049311 10.76073,8.04925 10.760564,7.998296 10.760564,7.955309 10.829121,7.955007" style="fill: white" /><polygon type="contour" points="10.575894,7.998295 10.575852,8.04925 10.390092,8.04925 10.28145,8.049369 10.281569,7.99605 10.28177,7.955398 10.443698,7.955398 10.575894,7.955309" style="fill: white" /><polygon type="contour" points="10.575853,8.262213 10.575853,8.302579 10.576104,8.371365 10.281735,8.371365 10.281516,8.312363 10.28141,8.302579 10.28145,8.26201 10.47419,8.26201" style="fill: white" /><polygon type="contour" points="10.869771,8.333525 10.869488,8.370971 10.82912,8.370971 10.819339,8.371137 10.760337,8.371365 10.76073,8.30258 10.76073,8.262213 10.82912,8.262213 10.869771,8.261931" style="fill: white" /><polygon type="contour" points="10.829121,8.555849 10.869488,8.555849 10.869488,8.74161 10.869692,8.850253 10.82912,8.850291 10.760337,8.849967 10.760337,8.555597" style="fill: white" /><polygon type="contour" points="11.176394,8.715448 11.176303,8.849932 11.135651,8.850133 11.082332,8.850253 11.082332,8.657511 11.08245,8.555849 11.133406,8.555807 11.176394,8.555807" style="fill: white" /><polygon type="contour" points="11.485484,9.28991 11.485427,9.362545 11.406713,9.362545 11.362035,9.362416 11.362281,9.292824 11.362281,9.235131 11.430456,9.235131 11.485542,9.235047" style="fill: white" /><polygon type="contour" points="11.178054,9.235131 11.176686,9.312565 11.176686,9.362416 11.116371,9.362733 11.08239,9.362863 11.08239,9.278797 11.082332,9.235272 11.137243,9.235047" style="fill: white" /><polygon type="contour" points="10.82912,9.235084 10.869692,9.235272 10.869692,9.318594 10.869771,9.362863 10.800526,9.362545 10.760017,9.36215 10.760354,9.293504 10.760354,9.234823" style="fill: white" /><polygon type="contour" points="10.575682,9.311347 10.575682,9.362151 10.3985,9.362151 10.281298,9.36234 10.281786,9.290481 10.281786,9.235047 10.448253,9.235047 10.5761,9.234823" style="fill: white" /><polygon type="contour" points="10.575682,9.769974 10.5761,9.838199 10.5761,9.896881 10.417141,9.896881 10.281786,9.896657 10.281298,9.817491 10.281298,9.769802 10.465681,9.769802" style="fill: white" /><polygon type="contour" points="10.869771,9.852907 10.869692,9.896432 10.829121,9.896618 10.819255,9.896881 10.760353,9.896881 10.760017,9.820777 10.760017,9.769974 10.82912,9.76922 10.869771,9.768841" style="fill: white" /><polygon type="contour" points="11.142174,9.769602 11.176686,9.769714 11.178054,9.838879 11.178054,9.896573 11.116372,9.89637 11.082332,9.896432 11.082332,9.813109 11.08239,9.768841" style="fill: white" /><polygon type="contour" points="11.485485,9.841794 11.485542,9.896657 11.415158,9.896657 11.362281,9.896573 11.362035,9.819564 11.362035,9.769714 11.43788,9.769714 11.485427,9.769602" style="fill: white" /><polygon type="contour" points="11.491074,10.283786 11.655263,10.283456 11.654954,10.435113 11.65465,10.577756 11.568708,10.577756 11.419738,10.578005 11.362474,10.577077 11.362729,10.469225 11.362923,10.282942" style="fill: white" /><polygon type="contour" points="11.135651,10.281571 11.176304,10.281772 11.176304,10.443699 11.176394,10.575896 11.133406,10.575896 11.082451,10.575855 11.082451,10.390094 11.082332,10.281452" style="fill: white" /><polygon type="contour" points="10.869692,10.281452 10.869692,10.474191 10.869488,10.575855 10.82912,10.575855 10.760337,10.576106 10.760337,10.281737 10.829121,10.281413" style="fill: white" /><polygon type="contour" points="10.577247,10.430261 10.577018,10.57702 10.426437,10.57702 10.282873,10.577205 10.282899,10.430261 10.283029,10.283031 10.437606,10.283031 10.577247,10.282901" style="fill: white" /><polygon type="contour" points="10.869771,11.14475 10.869792,11.176628 10.829121,11.176696 10.760564,11.176395 10.76073,11.117129 10.76073,11.082454 10.82912,11.082454 10.869771,11.082392" style="fill: white" /><polygon type="contour" points="10.829121,10.760732 10.869488,10.760732 10.869488,10.829122 10.869771,10.869773 10.798176,10.869773 10.76073,10.869491 10.760337,10.811711 10.760337,10.760339" style="fill: white" /><polygon type="contour" points="10.575853,10.829122 10.575853,10.869491 10.390091,10.869491 10.28145,10.869694 10.281411,10.829122 10.281735,10.760339 10.576104,10.760339" style="fill: white" /><polygon type="contour" points="10.575852,11.082454 10.575894,11.133407 10.575894,11.176395 10.416252,11.176395 10.28177,11.176306 10.281569,11.135652 10.28145,11.082334 10.474189,11.082334" style="fill: white" /><polygon type="contour" points="10.578003,11.41974 10.577931,11.57136 10.577931,11.654898 10.437626,11.654751 10.283413,11.65507 10.283661,11.613617 10.283412,11.570834 10.282591,11.46827 10.282843,11.362749 10.405726,11.362633 10.577075,11.362477" style="fill: white" /><polygon type="contour" points="10.869792,11.441292 10.869771,11.485326 10.829121,11.485443 10.760337,11.485573 10.760337,11.36229 10.829121,11.361877 10.869792,11.361848" style="fill: white" /><polygon type="contour" points="11.134043,11.362081 11.176304,11.362081 11.176304,11.485419 11.116371,11.485434 11.08239,11.485326 11.08239,11.403106 11.082378,11.361848" style="fill: white" /><polygon type="contour" points="11.176304,11.134044 11.176304,11.176306 11.116371,11.176628 11.082378,11.176628 11.082378,11.116374 11.08239,11.082392 11.144748,11.082392 11.176625,11.08238" style="fill: white" /><polygon type="contour" points="11.176694,10.829122 11.176625,10.869795 11.116371,10.869795 11.08239,10.869773 11.08239,10.798177 11.082451,10.760732 11.133406,10.760566 11.176394,10.760566" style="fill: white" /><polygon type="contour" points="11.485441,10.829122 11.485324,10.869773 11.403104,10.869773 11.361846,10.869795 11.361876,10.829122 11.362288,10.760339 11.485571,10.760339" style="fill: white" /><polygon type="contour" points="11.485324,11.082392 11.485432,11.116374 11.485416,11.176306 11.362079,11.176306 11.362079,11.134044 11.361846,11.08238 11.44129,11.08238" style="fill: white" /><polygon type="contour" points="11.65569,11.43892 11.664243,11.664244 11.561439,11.663437 11.466929,11.656262 11.364649,11.656001 11.363991,11.595182 11.363991,11.534483 11.363711,11.531333 11.363586,11.486732 11.363586,11.363588 11.655431,11.363588" style="fill: white" />
</svg>
