<svg width="19.131698" height="19.131699">
<polygon type="contour" points="5.633266,6.382118 5.633273,6.383109 5.633273,6.38354 5.634469,6.658116 5.634542,6.818521 5.635263,6.997955 5.636112,7.331649 5.636124,7.33231 5.636207,7.366243 5.636215,7.374991 5.624052,7.374884 5.361511,7.421388 5.361523,6.99094 5.36148,6.803034 5.361456,6.61437 5.361609,6.383191 5.36161,6.383024 5.361609,6.382195 5.361609,6.382119 5.361544,6.290904 5.36152,6.282464 5.632974,6.282464" style="fill: white" /><polygon type="contour" points="5.737325,5.361262 5.761204,5.361136 5.772733,5.361333 5.784149,5.361527 5.788795,5.361324 5.789225,5.361508 5.802321,5.36151 5.806038,5.361088 5.810745,5.361065 5.823017,5.361329 5.823629,5.361285 5.824959,5.361293 5.825527,5.361299 5.829116,5.361298 5.829116,5.631931 5.823629,5.631917 5.822834,5.631919 5.821471,5.631919 5.819846,5.631878 5.817881,5.631876 5.817185,5.631882 5.799435,5.631963 5.793577,5.631999 5.790187,5.631595 5.77838,5.631565 5.772087,5.631782 5.769649,5.631642 5.735755,5.631724 5.721693,5.63175 5.704136,5.631889 5.699886,5.631653 5.688544,5.631561 5.683936,5.631492 5.631562,5.631937 5.631558,5.688546 5.631887,5.70414 5.631748,5.719677 5.631748,5.723712 5.63166,5.760526 5.631781,5.772088 5.631563,5.778384 5.631594,5.79019 5.631996,5.793581 5.632028,5.800327 5.631906,5.817525 5.631904,5.819795 5.631896,5.821384 5.631921,5.822727 5.63193,5.829118 5.361296,5.829118 5.361286,5.822726 5.361321,5.821249 5.361289,5.819485 5.361294,5.817188 5.361294,5.814737 5.361222,5.793086 5.361538,5.779884 5.361424,5.776801 5.361544,5.772741 5.361222,5.770491 5.361187,5.757572 5.361306,5.755927 5.36126,5.726249 5.361716,5.702561 5.361459,5.679954 5.36115,5.658826 5.361348,5.640028 5.361538,5.632561 5.361239,5.624377 5.361486,5.619624 5.361493,5.361494 5.608118,5.361269 5.610274,5.361265 5.618982,5.361189 5.631098,5.361602 5.648576,5.361284 5.668493,5.361465 5.690579,5.361268 5.695159,5.361524 5.713488,5.361328 5.720447,5.361004" style="fill: white" /><polygon type="contour" points="4.535639,5.364524 4.535641,5.364972 4.535634,5.365474 4.535641,5.366162 4.535639,5.366946 4.535644,5.367785 4.535632,5.368652 4.535632,5.824119 4.535637,5.8245 4.535637,5.825039 4.535635,5.825605 4.535638,5.826152 4.535634,5.827123 4.535642,5.827335 4.535637,5.828722 4.533416,5.828722 4.529076,5.828708 4.241504,5.829027 4.196399,5.829118 4.196402,5.822727 4.196351,5.821209 4.196367,5.819428 4.196432,5.817766 4.196386,5.816116 4.19639,5.814455 4.196666,5.780983 4.196568,5.77668 4.196722,5.771725 4.196722,5.491033 4.196611,5.485393 4.196748,5.47939 4.196863,5.470784 4.196715,5.461434 4.196685,5.450659 4.196543,5.438759 4.196832,5.427501 4.196727,5.361674 4.223324,5.361718 4.340186,5.361533 4.410461,5.361391 4.529077,5.361148 4.535634,5.361146" style="fill: white" /><polygon type="contour" points="4.53565,6.376826 4.535632,6.380773 4.535632,6.386346 4.535635,6.394194 4.535645,6.407821 4.535645,7.373906 4.52902,7.37352 4.44297,7.420156 4.410461,7.394557 4.39637,7.400318 4.318068,7.382912 4.196151,7.392035 4.196648,6.555501 4.196686,6.384541 4.196689,6.383186 4.196689,6.383088 4.196696,6.382118 4.19697,6.323486 4.19697,6.282345 4.4559,6.282345 4.53565,6.282327" style="fill: white" /><polygon type="contour" points="3.439774,6.282373 3.439774,6.294821 3.439789,7.091501 3.439899,7.422668 3.380197,7.429693 3.20181,7.417976 3.20181,6.999407 3.201728,6.972449 3.202105,6.387456 3.20211,6.38248 3.202103,6.381411 3.210709,6.381391 3.210708,6.381265 3.296569,6.3812 3.297098,6.308073 3.296816,6.293772 3.296888,6.291215 3.296891,6.282869 3.414862,6.282473 3.425656,6.277171" style="fill: white" /><polygon type="contour" points="3.29684,5.361494 3.367959,5.361494 3.439919,5.361422 3.439792,5.453319 3.439729,5.470838 3.439818,5.499519 3.439802,5.546933 3.439776,5.63282 3.439811,5.745112 3.439793,5.811178 3.439786,5.81343 3.439767,5.814482 3.439774,5.815872 3.439811,5.818223 3.43976,5.820304 3.439759,5.82198 3.439776,5.823148 3.439807,5.82912 3.432791,5.829118 3.296996,5.829118 3.296962,5.822368 3.297006,5.820835 3.296971,5.818887 3.296957,5.816594 3.296635,5.795689 3.296652,5.788806 3.296784,5.774389 3.296748,5.767324 3.29691,5.765504 3.29691,5.751073 3.298087,5.695021 3.201862,5.694565 3.184816,5.694492 3.183112,5.694462 3.106446,5.694346 3.106446,5.463593 3.106686,5.361389 3.186154,5.361672 3.270567,5.361306" style="fill: white" /><polygon type="contour" points="3.355516,3.106603 3.439998,3.106799 3.439584,3.186156 3.439584,3.265928 3.4397,3.26862 3.439675,3.296876 3.439675,3.439676 3.296874,3.439676 3.268618,3.439701 3.186154,3.439586 3.182286,3.439914 3.106686,3.439889 3.10685,3.272573 3.106607,3.163602 3.106607,3.106609 3.354045,3.10635" style="fill: white" /><polygon type="contour" points="3.439532,4.225455 3.439632,4.340189 3.439647,4.529078 3.439642,4.53479 3.439642,4.535636 3.296841,4.535636 3.296842,4.53494 3.296847,4.529079 3.297089,4.410463 3.296833,4.340188 3.296732,4.196729 3.439532,4.196729" style="fill: white" /><polygon type="contour" points="4.535641,4.207754 4.535641,4.529078 4.535634,4.535636 4.534855,4.535636 4.529077,4.535643 4.207753,4.535643 4.196551,4.535636 4.196551,4.534789 4.196553,4.529078 4.196678,4.340189 4.196727,4.196729 4.527611,4.196552 4.529076,4.196554 4.535634,4.196552" style="fill: white" /><polygon type="contour" points="4.340185,3.296834 4.410461,3.29709 4.529077,3.296848 4.534939,3.296843 4.535634,3.296843 4.535634,3.439644 4.534788,3.439644 4.529076,3.439649 4.340186,3.439635 4.225453,3.439534 4.196727,3.439534 4.196727,3.296734 4.220713,3.296728" style="fill: white" /><polygon type="contour" points="6.388122,3.201415 6.98892,3.201932 7.405504,3.201494 7.3958,3.303602 7.423481,3.439957 6.388482,3.439416 6.382862,3.439416 6.290901,3.440047 6.282462,3.440022 6.282866,3.319124 6.282866,3.296894 6.38141,3.297304 6.382098,3.203004 6.382098,3.201417 6.384049,3.201413" style="fill: white" /><polygon type="contour" points="5.69449,3.184818 5.694564,3.201864 5.694474,3.296416 5.750984,3.296722 5.76731,3.296923 5.775666,3.296923 5.792332,3.296924 5.814452,3.296996 5.816646,3.296959 5.818994,3.297002 5.820928,3.296985 5.822366,3.296963 5.829116,3.296998 5.829116,3.439763 5.824959,3.439791 5.823629,3.439784 5.822696,3.439781 5.821248,3.439775 5.819482,3.43979 5.817062,3.439765 5.814735,3.439795 5.770488,3.439723 5.757884,3.439689 5.745516,3.439448 5.734706,3.43979 5.730642,3.43946 5.601991,3.439515 5.361432,3.439403 5.361432,3.404771 5.361493,3.296842 5.361305,3.270569 5.361669,3.265927 5.361669,3.186157 5.361411,3.182289 5.361386,3.106688 5.46359,3.106447 5.694344,3.106447" style="fill: white" /><polygon type="contour" points="5.815704,4.196402 5.817239,4.196369 5.81889,4.196424 5.820644,4.196394 5.822336,4.19637 5.823628,4.19636 5.829115,4.196401 5.82872,4.525287 5.828706,4.529079 5.82872,4.535639 5.827213,4.535637 5.826877,4.535644 5.826453,4.535637 5.825389,4.535635 5.824785,4.535647 5.824304,4.535641 5.369003,4.535641 5.368235,4.535646 5.367408,4.535646 5.36658,4.535643 5.365836,4.53564 5.365208,4.535644 5.364338,4.535635 5.361144,4.535636 5.361144,4.534857 5.361146,4.529078 5.361389,4.410463 5.361532,4.340189 5.361673,4.196729 5.429073,4.196715 5.435788,4.196631 5.446865,4.196916 5.458177,4.19679 5.467237,4.196795 5.476598,4.196641 5.483635,4.196558 5.765547,4.196558 5.770257,4.196724 5.775207,4.19657 5.780093,4.196514 5.814198,4.196351" style="fill: white" /><polygon type="contour" points="6.388389,4.19669 6.733111,4.196778 7.394845,4.196778 7.385296,4.325478 7.401399,4.396099 7.394554,4.410463 7.420154,4.442973 7.373488,4.529078 7.374482,4.535639 6.406328,4.535639 6.387833,4.535636 6.38632,4.535635 6.382075,4.535652 6.282325,4.535652 6.282325,4.508308 6.282342,4.196972 6.382117,4.196696 6.383087,4.196689 6.384613,4.196689" style="fill: white" /><polygon type="contour" points="7.412589,5.508482 7.375015,5.636223 7.366241,5.636208 7.332307,5.636125 7.331647,5.636114 6.81852,5.634543 6.385237,5.633279 6.383157,5.633275 6.383108,5.633276 6.382118,5.633269 6.300355,5.632992 6.282462,5.632975 6.282462,5.361522 6.382117,5.361612 6.388262,5.361611 7.421384,5.361513" style="fill: white" /><polygon type="contour" points="13.770314,3.106688 13.770032,3.186157 13.770396,3.270569 13.770207,3.296843 13.770207,3.367959 13.77028,3.439922 13.679063,3.439858 13.660863,3.439731 13.632182,3.43982 13.584767,3.439804 13.498882,3.439778 13.38659,3.439813 13.319355,3.439788 13.317248,3.439795 13.314637,3.439765 13.312323,3.439812 13.310452,3.439775 13.308976,3.439786 13.302583,3.439808 13.302584,3.432793 13.302584,3.296997 13.309333,3.296962 13.310724,3.296986 13.312705,3.297002 13.315108,3.296959 13.317558,3.296963 13.340171,3.296839 13.357311,3.296786 13.364376,3.29675 13.366251,3.296723 13.381079,3.296723 13.436688,3.296413 13.437136,3.201864 13.437209,3.184818 13.43724,3.183114 13.437354,3.106447 13.66811,3.106447" style="fill: white" /><polygon type="contour" points="12.744246,3.202107 12.749216,3.202111 12.750291,3.202105 12.750291,3.297303 12.840483,3.296891 12.84883,3.296894 12.849235,3.417475 12.849235,3.440022 12.749384,3.439421 12.743055,3.439608 12.365854,3.439457 12.247828,3.439608 12.031143,3.439791 11.715355,3.43982 11.692574,3.3802 11.713724,3.201812 12.132048,3.201812 12.158992,3.20173" style="fill: white" /><polygon type="contour" points="13.351603,4.196515 13.356489,4.19657 13.360393,4.196724 13.641086,4.196724 13.648063,4.196558 13.652311,4.19675 13.655103,4.196641 13.663412,4.196509 13.673522,4.19679 13.684834,4.196916 13.770028,4.196729 13.769983,4.223326 13.770167,4.340188 13.770309,4.410463 13.770555,4.529078 13.770558,4.534858 13.770558,4.535636 13.767364,4.535635 13.766492,4.535644 13.765864,4.53564 13.765136,4.535635 13.764291,4.535646 13.763466,4.535646 13.762698,4.535641 13.307395,4.535641 13.306916,4.535647 13.306112,4.535631 13.305272,4.535645 13.304823,4.535644 13.304469,4.535635 13.30298,4.535639 13.30298,4.533418 13.302994,4.529078 13.302674,4.241506 13.302584,4.196401 13.308071,4.19636 13.309363,4.19637 13.311056,4.196395 13.312809,4.196424 13.314623,4.196424 13.315996,4.196403 13.317502,4.196351" style="fill: white" /><polygon type="contour" points="12.749582,4.196696 12.808213,4.196972 12.849356,4.196972 12.849356,4.455903 12.849375,4.535652 12.749583,4.535737 12.748516,4.535734 12.748135,4.535734 12.743401,4.535735 11.757219,4.535639 11.758172,4.528995 11.717842,4.444899 11.737145,4.410463 11.730298,4.396099 11.746401,4.325479 11.737145,4.196743 12.572023,4.196743 12.747087,4.196689 12.748613,4.196689" style="fill: white" /><polygon type="contour" points="12.849235,5.632975 12.749583,5.633269 12.748593,5.633276 12.748519,5.633276 12.748161,5.633277 12.473585,5.634471 12.313177,5.634544 12.133747,5.635265 11.800051,5.636114 11.799392,5.636125 11.765458,5.636208 11.756712,5.636216 11.75669,5.624771 11.709302,5.361626 12.140525,5.361719 12.312844,5.361618 12.517239,5.361549 12.748511,5.361612 12.749582,5.361612 12.840794,5.361547 12.849235,5.361522" style="fill: white" /><polygon type="contour" points="13.317667,5.361098 13.320954,5.361065 13.325662,5.361088 13.33147,5.361094 13.334675,5.361044 13.342815,5.361543 13.347412,5.361465 13.355206,5.361118 13.355787,5.361298 13.370525,5.361572 13.394359,5.361586 13.411256,5.361004 13.41821,5.361328 13.43654,5.361524 13.44112,5.361268 13.460483,5.361401 13.481603,5.36122 13.499142,5.36154 13.512716,5.361189 13.521426,5.361265 13.770207,5.361494 13.770214,5.619624 13.77046,5.624376 13.770162,5.63256 13.770353,5.640028 13.77055,5.658826 13.77024,5.679954 13.769985,5.702562 13.770439,5.726249 13.770392,5.755926 13.770512,5.757572 13.770478,5.770491 13.770154,5.772741 13.770276,5.776802 13.770162,5.779885 13.770479,5.793086 13.770404,5.814737 13.770404,5.817187 13.770386,5.819379 13.770371,5.821383 13.770412,5.822727 13.770415,5.823631 13.770407,5.824962 13.770401,5.825531 13.770402,5.829118 13.49977,5.829118 13.499784,5.823631 13.499782,5.822836 13.499804,5.821383 13.499823,5.819848 13.499825,5.817885 13.499819,5.817078 13.499738,5.799148 13.499702,5.79358 13.500106,5.79019 13.500137,5.778384 13.499918,5.772088 13.499788,5.738935 13.499953,5.723711 13.500165,5.717672 13.499813,5.70414 13.500141,5.688545 13.500136,5.631931 13.447763,5.631492 13.443157,5.631561 13.427562,5.631889 13.410008,5.63175 13.372679,5.63166 13.362049,5.631642 13.359614,5.631782 13.353319,5.631565 13.341513,5.631595 13.338122,5.631446 13.331375,5.631474 13.314175,5.631907 13.312217,5.631908 13.311758,5.63187 13.308976,5.631922 13.302584,5.631931 13.302584,5.361298 13.30662,5.361299 13.312482,5.361001 13.3163,5.360991" style="fill: white" /><polygon type="contour" points="13.77009,6.382118 13.77009,6.388263 13.770187,7.421388 13.62322,7.412591 13.49548,7.375018 13.495495,7.366244 13.495578,7.332309 13.495588,7.331649 13.497158,6.818522 13.498423,6.385239 13.498427,6.38354 13.498427,6.383108 13.498433,6.382119 13.498708,6.300357 13.498726,6.282464 13.770179,6.282464" style="fill: white" /><polygon type="contour" points="15.865775,5.361672 15.945544,5.361672 15.949413,5.361414 16.025014,5.361389 16.025255,5.463593 16.025255,5.694346 15.946884,5.694492 15.929834,5.694565 15.833594,5.695021 15.834788,5.750713 15.834588,5.767363 15.834778,5.768934 15.834577,5.775572 15.834957,5.789672 15.835065,5.795689 15.834742,5.816593 15.834728,5.818886 15.834694,5.820835 15.834737,5.822368 15.834702,5.829118 15.691905,5.829118 15.691911,5.824961 15.691918,5.823631 15.691923,5.823148 15.69194,5.82198 15.691939,5.820304 15.691889,5.818223 15.691926,5.815872 15.691914,5.81343 15.692174,5.786788 15.692156,5.780245 15.692175,5.774491 15.692128,5.769964 15.692179,5.766881 15.692273,5.711817 15.692297,5.361434 15.726928,5.361434 15.834857,5.361494 15.861132,5.361306" style="fill: white" /><polygon type="contour" points="15.834976,4.220715 15.834868,4.340188 15.834611,4.410464 15.834851,4.529078 15.834857,4.53494 15.834857,4.535636 15.692057,4.535636 15.692057,4.53479 15.692052,4.529078 15.692065,4.340189 15.692166,4.225455 15.692166,4.196729 15.83497,4.196729" style="fill: white" /><polygon type="contour" points="16.025092,3.106609 16.025092,3.163602 16.024848,3.272573 16.025014,3.439889 15.945545,3.439586 15.865775,3.439586 15.863082,3.439701 15.834825,3.439676 15.692026,3.439676 15.692026,3.296875 15.692,3.268621 15.692116,3.186156 15.691787,3.182289 15.691702,3.106799 15.776184,3.106603 15.777652,3.10635" style="fill: white" /><polygon type="contour" points="14.934973,3.439534 14.906246,3.439534 14.791513,3.439635 14.602624,3.439649 14.596912,3.439644 14.596067,3.439644 14.596067,3.296843 14.596761,3.296843 14.602623,3.296848 14.721239,3.297091 14.791513,3.296834 14.934973,3.296734" style="fill: white" /><polygon type="contour" points="14.602624,4.196554 14.791513,4.196681 14.934973,4.196729 14.93515,4.527613 14.935148,4.529078 14.93515,4.535636 14.923947,4.535643 14.602623,4.535643 14.596067,4.535636 14.596067,4.534858 14.596059,4.529078 14.596059,4.207753 14.596067,4.196552 14.596912,4.196552" style="fill: white" /><polygon type="contour" points="14.602623,5.361148 14.721239,5.361391 14.791513,5.361533 14.934972,5.361674 14.934913,5.419543 14.934869,5.4275 14.935157,5.438759 14.935015,5.450659 14.934985,5.461434 14.934837,5.470784 14.934953,5.478777 14.935089,5.485393 14.934978,5.490614 14.934978,5.771305 14.935132,5.776681 14.935034,5.780983 14.935308,5.814454 14.935312,5.816116 14.935268,5.817765 14.935331,5.81948 14.935349,5.821209 14.935338,5.822769 14.9353,5.829118 14.918991,5.829118 14.890194,5.829027 14.602623,5.828708 14.596063,5.828722 14.596058,5.827335 14.596065,5.827163 14.596063,5.826151 14.596065,5.825606 14.596063,5.825039 14.596063,5.8245 14.596068,5.824119 14.596068,5.368652 14.596064,5.367763 14.596064,5.366889 14.596068,5.366106 14.596062,5.365465 14.596063,5.364922 14.596066,5.364518 14.596067,5.361146 14.596844,5.361146" style="fill: white" /><polygon type="contour" points="14.934729,6.282345 14.935006,6.382119 14.935013,6.383088 14.935011,6.383185 14.935014,6.384542 14.935012,6.38839 14.934925,6.733113 14.935328,7.392453 14.813621,7.382914 14.735328,7.400319 14.721238,7.394558 14.68873,7.420156 14.602624,7.373489 14.596055,7.373906 14.596055,6.407821 14.596064,6.394194 14.596064,6.388671 14.596068,6.380773 14.59605,6.376826 14.59605,6.282327 14.623393,6.282327" style="fill: white" /><polygon type="contour" points="15.812579,6.282869 15.834809,6.282869 15.834396,6.38141 15.928698,6.3821 15.930285,6.3821 15.930289,6.383179 15.929639,6.610799 15.929973,6.972449 15.929891,6.999407 15.929889,7.417976 15.751499,7.429693 15.6918,7.422668 15.692283,6.391694 15.692283,6.382851 15.691655,6.290904 15.691679,6.282464" style="fill: white" /><polygon type="contour" points="15.805468,11.725296 15.930209,11.726198 15.92977,12.143048 15.930286,12.74358 15.930289,12.747651 15.930289,12.748507 15.930279,12.749585 15.834395,12.750284 15.834813,12.840486 15.834809,12.848832 15.714227,12.849237 15.69168,12.849237 15.692279,12.749413 15.692092,12.743056 15.692366,12.552168 15.692091,12.247828 15.69191,12.031145 15.691881,11.715358" style="fill: white" /><polygon type="contour" points="14.721239,11.737146 14.735329,11.731383 14.813638,11.748789 14.935549,11.739669 14.935052,12.576203 14.935012,12.747161 14.935009,12.748519 14.935011,12.748616 14.935004,12.749584 14.934729,12.808215 14.934729,12.849358 14.675797,12.849358 14.59605,12.849377 14.59605,12.749626 14.596068,12.745358 14.596064,12.737509 14.596055,12.723882 14.596055,11.757797 14.602688,11.758184 14.686803,11.717844" style="fill: white" /><polygon type="contour" points="13.769982,12.140527 13.77008,12.312846 13.770151,12.517242 13.77009,12.748512 13.770088,12.748679 13.77009,12.749508 13.77009,12.749584 13.770154,12.840796 13.770179,12.849237 13.498726,12.849237 13.498433,12.749584 13.498427,12.748595 13.498427,12.748163 13.497231,12.473587 13.497159,12.31318 13.496437,12.133749 13.495586,11.800053 13.495576,11.799394 13.495493,11.76546 13.495485,11.756714 13.50693,11.756692 13.770075,11.709304" style="fill: white" /><polygon type="contour" points="13.7704,13.306602 13.770701,13.312484 13.770711,13.316301 13.770711,13.318931 13.770588,13.323016 13.770678,13.327958 13.770659,13.334363 13.770159,13.342379 13.770274,13.344682 13.770276,13.354899 13.770154,13.358961 13.770478,13.361212 13.770513,13.374131 13.770393,13.375777 13.770439,13.405454 13.769985,13.429141 13.77024,13.451749 13.77055,13.472876 13.770353,13.491675 13.770162,13.499143 13.77046,13.507327 13.770214,13.512078 13.770207,13.770209 13.523582,13.770433 13.514341,13.770096 13.500599,13.770102 13.48312,13.77042 13.463207,13.77024 13.441121,13.770438 13.436541,13.77018 13.41821,13.770375 13.411255,13.770699 13.394373,13.770441 13.370493,13.770568 13.358963,13.770371 13.347551,13.770178 13.342904,13.770381 13.342474,13.770195 13.328419,13.770193 13.324202,13.770436 13.319842,13.770453 13.309721,13.770395 13.308552,13.770383 13.302584,13.770405 13.302584,13.499773 13.30807,13.499787 13.308864,13.499785 13.310318,13.499807 13.311853,13.499826 13.313818,13.499828 13.314515,13.499821 13.332263,13.499739 13.338122,13.499703 13.341512,13.500108 13.353319,13.500139 13.359613,13.499921 13.362049,13.500061 13.395946,13.499977 13.410007,13.499954 13.427562,13.499815 13.431813,13.500051 13.443156,13.500142 13.447763,13.500211 13.500136,13.499766 13.500141,13.443158 13.499812,13.427563 13.499953,13.412026 13.499953,13.407991 13.500041,13.371177 13.499919,13.359615 13.500137,13.353319 13.500106,13.341513 13.500254,13.338123 13.500226,13.331375 13.499794,13.314177 13.499796,13.311909 13.499804,13.310319 13.499779,13.308976 13.49977,13.302585 13.770402,13.302585" style="fill: white" /><polygon type="contour" points="14.935339,13.308935 14.935349,13.310494 14.935331,13.312223 14.935268,13.313937 14.935313,13.315587 14.935309,13.317078 14.935034,13.350092 14.935132,13.355021 14.934978,13.360397 14.934978,13.641089 14.935089,13.646311 14.934953,13.652926 14.934837,13.660919 14.934986,13.670269 14.934838,13.681043 14.934973,13.770031 14.908375,13.769986 14.791514,13.77017 14.721238,13.770312 14.602624,13.770556 14.596066,13.770559 14.59606,13.76718 14.596059,13.766731 14.596066,13.766229 14.596067,13.765598 14.596061,13.764757 14.596064,13.763941 14.596055,13.763103 14.596055,13.307636 14.596063,13.307203 14.596063,13.306663 14.596065,13.306096 14.596063,13.305551 14.596065,13.304539 14.596058,13.304367 14.596063,13.302981 14.598283,13.302981 14.602624,13.302995 14.890194,13.302675 14.935299,13.302585" style="fill: white" /><polygon type="contour" points="15.834738,13.309334 15.834694,13.310868 15.834728,13.312817 15.834742,13.31511 15.835064,13.336014 15.835047,13.342897 15.834714,13.357414 15.834952,13.364379 15.83479,13.366199 15.83479,13.380992 15.833595,13.436682 15.929834,13.437138 15.946883,13.437212 15.948587,13.437241 16.025255,13.437356 16.025255,13.668109 16.025014,13.770316 15.945545,13.770032 15.861132,13.770399 15.834857,13.770209 15.76374,13.770209 15.691779,13.770283 15.69197,13.660867 15.69188,13.632184 15.691747,13.585831 15.692062,13.51162 15.691889,13.386591 15.691907,13.320525 15.691913,13.318273 15.691932,13.317222 15.691926,13.315829 15.691889,13.313479 15.691939,13.311399 15.691941,13.309723 15.691923,13.308555 15.691918,13.308072 15.691884,13.306863 15.691913,13.304163 15.691905,13.302585 15.834703,13.302585" style="fill: white" /><polygon type="contour" points="16.025014,15.691814 16.024848,15.85913 16.025092,15.968102 16.025092,16.025094 15.777651,16.025353 15.776183,16.0251 15.691702,16.024904 15.692116,15.945546 15.692116,15.865777 15.692,15.863083 15.692026,15.834826 15.692026,15.692028 15.834825,15.692028 15.863081,15.692003 15.945545,15.692118 15.949412,15.69179" style="fill: white" /><polygon type="contour" points="15.834857,14.596762 15.834852,14.602624 15.83461,14.721239 15.834867,14.791515 15.834968,14.934974 15.704503,14.934975 15.692166,14.934975 15.692166,14.906248 15.692065,14.791514 15.692052,14.602624 15.692057,14.596913 15.692057,14.596068 15.834857,14.596068" style="fill: white" /><polygon type="contour" points="14.93515,14.596068 14.93515,14.596913 14.935148,14.602624 14.935021,14.791514 14.934973,14.934974 14.604088,14.935152 14.602623,14.935151 14.596067,14.935152 14.596059,14.923951 14.596059,14.602624 14.596067,14.596068 14.596844,14.596068 14.602623,14.59606 14.923948,14.59606" style="fill: white" /><polygon type="contour" points="14.791513,15.692066 14.906246,15.692167 14.934973,15.692167 14.934973,15.834971 14.910987,15.834977 14.791513,15.834869 14.721239,15.834613 14.602623,15.834855 14.596761,15.83486 14.596067,15.83486 14.596067,15.69206 14.596912,15.69206 14.602623,15.692055" style="fill: white" /><polygon type="contour" points="12.849235,15.691681 12.84883,15.81258 12.84883,15.83481 12.750291,15.834399 12.750291,15.929598 12.749216,15.929591 12.520444,15.929678 12.159252,15.929974 12.132291,15.929891 11.713724,15.92989 11.736639,15.821309 11.715534,15.692019 12.743523,15.692289 12.748798,15.692286 12.840794,15.691656" style="fill: white" /><polygon type="contour" points="13.362766,15.691981 13.374128,15.692016 13.386378,15.692083 13.397453,15.692047 13.401057,15.692243 13.529708,15.692189 13.770269,15.6923 13.770269,15.726931 13.770207,15.83486 13.770396,15.861134 13.770032,15.865777 13.770032,15.945546 13.770286,15.949415 13.770314,16.025016 13.66811,16.025257 13.437354,16.025257 13.43721,15.946886 13.437136,15.929836 13.437227,15.833787 13.381078,15.834981 13.366252,15.834981 13.364378,15.834955 13.357311,15.834917 13.340171,15.834864 13.317558,15.83474 13.315053,15.834745 13.312706,15.834702 13.310724,15.834718 13.309333,15.834741 13.302584,15.834706 13.302584,15.691906 13.310457,15.691897" style="fill: white" /><polygon type="contour" points="13.307395,14.596063 13.762698,14.596063 13.763466,14.596057 13.764291,14.596057 13.765135,14.596067 13.765864,14.596063 13.766492,14.59606 13.766981,14.596064 13.770558,14.596068 13.770558,14.596844 13.770555,14.602624 13.770309,14.72124 13.770168,14.791514 13.770027,14.934974 13.702626,14.934988 13.695912,14.935073 13.684834,14.934787 13.673523,14.934727 13.664464,14.934906 13.655103,14.935062 13.648063,14.935145 13.366149,14.935145 13.361439,14.934979 13.356489,14.935133 13.351603,14.935188 13.317502,14.935353 13.315996,14.935301 13.31446,14.935335 13.312808,14.935279 13.311055,14.93531 13.309363,14.935333 13.308071,14.935344 13.302584,14.935303 13.30298,14.606415 13.302994,14.602624 13.30298,14.596064 13.304469,14.596068 13.30479,14.596069 13.305247,14.596066 13.30635,14.596068 13.306915,14.596056" style="fill: white" /><polygon type="contour" points="12.849375,14.623394 12.849356,14.934731 12.749582,14.935007 12.748614,14.935014 12.747087,14.935014 12.743312,14.935013 12.398587,14.934927 11.736854,14.934927 11.746401,14.806225 11.730298,14.735606 11.737145,14.72124 11.717842,14.686805 11.758212,14.602625 11.757218,14.596064 12.725372,14.596064 12.743866,14.596067 12.745379,14.596068 12.749625,14.596051 12.849375,14.596051" style="fill: white" /><polygon type="contour" points="11.765458,13.495496 11.799392,13.495579 11.800051,13.495589 12.313178,13.49716 12.746463,13.498424 12.748161,13.498428 12.748593,13.498428 12.749582,13.498434 12.831341,13.498711 12.849235,13.498729 12.849235,13.770182 12.749582,13.770092 12.748677,13.770091 12.74851,13.770093 12.51724,13.770154 12.312843,13.770082 12.140526,13.769984 11.709302,13.770077 11.720171,13.62351 11.756685,13.495481" style="fill: white" /><polygon type="contour" points="7.374882,13.507649 7.421385,13.770189 6.990939,13.770177 6.803031,13.770222 6.614369,13.770245 6.383189,13.770093 6.383023,13.770092 6.382194,13.770093 6.382118,13.770093 6.290901,13.770157 6.282462,13.770182 6.282462,13.498728 6.382118,13.498434 6.383107,13.498428 6.38354,13.498428 6.658113,13.497233 6.81852,13.49716 6.997953,13.496438 7.331647,13.495589 7.332307,13.495579 7.366241,13.495495 7.374989,13.495488" style="fill: white" /><polygon type="contour" points="5.508191,11.720173 5.636222,11.756687 5.636207,11.76546 5.636124,11.799394 5.636113,11.800054 5.634542,12.313179 5.633275,12.746466 5.633273,12.748163 5.633273,12.748595 5.633265,12.749585 5.632992,12.831342 5.632974,12.849237 5.36152,12.849237 5.36161,12.749584 5.361611,12.748679 5.36161,12.748512 5.361547,12.517242 5.361616,12.312847 5.361717,12.140526 5.361624,11.709304" style="fill: white" /><polygon type="contour" points="4.529077,11.758215 4.535646,11.757797 4.535646,12.723883 4.535636,12.737508 4.535633,12.745358 4.535651,12.749627 4.53565,12.754876 4.53565,12.849377 4.508306,12.849377 4.19697,12.849358 4.196695,12.749585 4.196688,12.748615 4.196688,12.748518 4.196685,12.747161 4.196689,12.743314 4.196776,12.398589 4.196371,11.73925 4.31807,11.748787 4.39637,11.731383 4.410461,11.737146 4.444897,11.717844" style="fill: white" /><polygon type="contour" points="3.439415,12.739886 3.439415,12.748857 3.440047,12.840796 3.440021,12.849237 3.319121,12.848832 3.296892,12.848832 3.297302,12.750293 3.203002,12.749605 3.201415,12.749605 3.201411,12.747651 3.201413,12.74358 3.20193,12.143048 3.201491,11.726198 3.326231,11.725295 3.439818,11.715358" style="fill: white" /><polygon type="contour" points="3.439786,13.312451 3.439811,13.313478 3.439783,13.315203 3.439781,13.317436 3.439786,13.318273 3.439823,13.344176 3.439524,13.344915 3.439894,13.36044 3.439923,13.37039 3.439898,13.379352 3.439981,13.386796 3.439912,13.392278 3.439793,13.481905 3.439402,13.77027 3.404769,13.77027 3.296841,13.770209 3.270567,13.770398 3.265926,13.770033 3.186155,13.770033 3.182287,13.770288 3.106686,13.770316 3.106446,13.668109 3.106446,13.437356 3.184816,13.437212 3.201862,13.437138 3.255556,13.437189 3.297765,13.420774 3.29691,13.380991 3.297111,13.36434 3.296922,13.362769 3.297123,13.356129 3.296742,13.342031 3.296635,13.336015 3.296957,13.315109 3.296971,13.312817 3.297006,13.310868 3.296962,13.309335 3.296996,13.302585 3.439795,13.302585" style="fill: white" /><polygon type="contour" points="4.241504,13.302675 4.529077,13.302995 4.535637,13.302981 4.535642,13.304367 4.535634,13.304579 4.535638,13.30555 4.535635,13.306097 4.535637,13.306663 4.535637,13.307203 4.535645,13.307636 4.535645,13.763102 4.535644,13.763919 4.535639,13.764758 4.535641,13.765541 4.535638,13.766238 4.53564,13.766731 4.535633,13.770559 4.534856,13.770559 4.529076,13.770556 4.410461,13.770311 4.340186,13.770171 4.196727,13.770031 4.196786,13.71216 4.196832,13.704202 4.196543,13.692945 4.196685,13.681044 4.196715,13.670269 4.196863,13.660919 4.196748,13.652926 4.196611,13.646311 4.196722,13.64067 4.196722,13.359977 4.196568,13.355022 4.196666,13.350717 4.19639,13.317249 4.196386,13.315587 4.196431,13.313936 4.196316,13.312223 4.196351,13.310494 4.196359,13.308935 4.196399,13.302585 4.212707,13.302585" style="fill: white" /><polygon type="contour" points="5.631916,13.308071 5.631918,13.308866 5.631895,13.31032 5.631877,13.311854 5.631874,13.313819 5.631881,13.314515 5.631406,13.332265 5.631445,13.338123 5.631594,13.341513 5.631563,13.353319 5.631781,13.359615 5.631911,13.392769 5.631748,13.407991 5.631534,13.414032 5.631887,13.427564 5.631558,13.443157 5.631562,13.499766 5.683936,13.500212 5.688544,13.500142 5.704136,13.499815 5.71767,13.500168 5.723709,13.499954 5.760524,13.500042 5.76965,13.500061 5.772086,13.499921 5.778381,13.500139 5.790187,13.500109 5.793578,13.499703 5.800324,13.499671 5.817524,13.499797 5.819482,13.499795 5.819941,13.499833 5.822723,13.499782 5.829116,13.499773 5.829116,13.770405 5.823147,13.770383 5.821977,13.770396 5.820301,13.770389 5.818222,13.770389 5.817076,13.770407 5.797023,13.770661 5.793676,13.770713 5.784287,13.770238 5.776492,13.770584 5.77591,13.770405 5.761173,13.770131 5.737339,13.770117 5.720446,13.770699 5.713489,13.770375 5.695158,13.770181 5.69058,13.770438 5.668492,13.770239 5.650097,13.770483 5.632559,13.770164 5.618982,13.770515 5.610275,13.770438 5.361493,13.770209 5.361486,13.512077 5.361239,13.507327 5.361538,13.499143 5.361348,13.491676 5.36115,13.472875 5.36146,13.451749 5.361716,13.429141 5.36126,13.405454 5.361306,13.375776 5.361187,13.37413 5.361222,13.362768 5.361544,13.360389 5.361424,13.35613 5.361538,13.35295 5.361043,13.34203 5.361294,13.317249 5.361294,13.314516 5.361311,13.312324 5.361325,13.31032 5.361281,13.309004 5.361296,13.302585 5.63193,13.302585" style="fill: white" /><polygon type="contour" points="5.825532,14.596071 5.826428,14.596059 5.826877,14.596059 5.827213,14.596066 5.82872,14.596064 5.82872,14.598284 5.828706,14.602625 5.829023,14.890196 5.829116,14.935303 5.823628,14.935344 5.822336,14.935333 5.820644,14.93531 5.818891,14.935279 5.81724,14.935334 5.815704,14.9353 5.814452,14.935312 5.780982,14.935035 5.775207,14.935133 5.770257,14.934979 5.489566,14.934979 5.483636,14.935145 5.479389,14.934954 5.476597,14.935063 5.468287,14.935194 5.458177,14.934727 5.446865,14.934787 5.435787,14.935073 5.429073,14.934988 5.361673,14.934974 5.361717,14.908376 5.361532,14.791515 5.361389,14.72124 5.361146,14.602624 5.361144,14.596844 5.361144,14.596068 5.36472,14.596064 5.365209,14.59606 5.365836,14.596063 5.36658,14.596059 5.367408,14.596057 5.368235,14.596057 5.369003,14.596063 5.824304,14.596063 5.824784,14.596056" style="fill: white" /><polygon type="contour" points="6.383184,14.59597 6.383564,14.59597 6.388299,14.595969 7.374482,14.596064 7.373528,14.602699 7.420154,14.68873 7.394555,14.721239 7.4014,14.735605 7.385295,14.806225 7.394553,14.93496 6.559677,14.93496 6.384613,14.935014 6.383086,14.935014 6.382117,14.935006 6.323485,14.934731 6.282342,14.934731 6.282342,14.6758 6.282325,14.596051 6.382117,14.595967" style="fill: white" /><polygon type="contour" points="6.284997,15.692117 6.293943,15.691674 6.379548,15.691594 6.451949,15.691924 7.0915,15.691912 7.422667,15.691803 7.399808,15.80547 7.405504,15.930211 6.988652,15.929772 6.387426,15.929592 6.383352,15.929592 6.382495,15.929591 6.381429,15.929591 6.381407,15.920928 6.381263,15.920927 6.381198,15.834219 6.308071,15.834602 6.291212,15.834814 6.282866,15.83481 6.282462,15.753724 6.282462,15.691681 6.282461,15.691681 6.28267,15.691384" style="fill: white" /><polygon type="contour" points="5.453317,15.69191 5.470836,15.691973 5.499517,15.691884 5.54693,15.691897 5.632818,15.691924 5.745109,15.69189 5.812345,15.691915 5.814734,15.691908 5.817062,15.691938 5.819375,15.691891 5.820052,15.691897 5.821248,15.691928 5.822723,15.691916 5.823629,15.691919 5.824807,15.691886 5.827537,15.691914 5.829116,15.691906 5.829116,15.834705 5.822366,15.83474 5.820976,15.834718 5.818995,15.834702 5.816591,15.834745 5.814452,15.834708 5.792332,15.83478 5.775666,15.83478 5.768934,15.834781 5.767362,15.834592 5.75107,15.834793 5.694472,15.833604 5.694564,15.929836 5.694489,15.946886 5.69446,15.94859 5.694344,16.025257 5.46359,16.025257 5.361386,16.025017 5.361669,15.945547 5.361305,15.861132 5.361493,15.83486 5.361493,15.763744 5.36142,15.691782" style="fill: white" /><polygon type="contour" points="4.534788,15.69206 4.535634,15.69206 4.535634,15.83486 4.534939,15.83486 4.529077,15.834855 4.410461,15.834613 4.340185,15.83487 4.196727,15.834971 4.196727,15.692167 4.225453,15.692167 4.340186,15.692066 4.529077,15.692055" style="fill: white" /><polygon type="contour" points="4.535634,14.596068 4.535634,14.596844 4.535641,14.602624 4.535641,14.92395 4.535634,14.935152 4.534788,14.935152 4.529076,14.935151 4.340186,14.935022 4.196727,14.934974 4.196551,14.604089 4.196553,14.602624 4.196551,14.596067 4.207752,14.59606 4.529077,14.59606" style="fill: white" /><polygon type="contour" points="3.439642,14.596913 3.439647,14.602624 3.439632,14.791514 3.439532,14.906247 3.439532,14.934974 3.296732,14.934974 3.296727,14.910987 3.296833,14.791514 3.297089,14.72124 3.296846,14.602624 3.296842,14.596762 3.29684,14.596068 3.439642,14.596068" style="fill: white" /><polygon type="contour" points="3.186155,15.692118 3.265926,15.692118 3.268619,15.692003 3.296874,15.692028 3.439675,15.692028 3.439675,15.834827 3.4397,15.863084 3.439584,15.945547 3.439912,15.949415 3.439998,16.024904 3.355515,16.0251 3.354045,16.025353 3.106607,16.025094 3.106607,15.968102 3.10685,15.859131 3.106686,15.691814" style="fill: white" />
</svg>
