<svg width="19.131698" height="19.131699">
<polygon type="contour" points="8.765253,10.576876 8.765253,10.608382 8.765312,10.632742 8.765229,10.636864 8.764883,10.652667 8.730799,10.652332 8.478236,10.653466 8.479103,10.423542 8.479123,10.367055 8.608776,10.367055 8.698409,10.366962 8.76474,10.366962" style="fill: white" /><polygon type="contour" points="8.765117,10.137332 8.764867,10.182239 8.764867,10.233863 8.646144,10.233863 8.646208,10.179288 8.646073,10.13728 8.717326,10.13728" style="fill: white" /><polygon type="contour" points="8.99442,10.195464 8.994367,10.233934 8.949463,10.233863 8.89784,10.233863 8.897769,10.179288 8.897769,10.137333 8.952412,10.137333 8.99442,10.13728" style="fill: white" /><polygon type="contour" points="8.994367,10.433504 8.99442,10.48563 8.952411,10.485494 8.89784,10.485558 8.89784,10.366834 8.949463,10.366834 8.994367,10.366585" style="fill: white" /><polygon type="contour" points="9.288416,10.366736 9.288416,10.485467 9.232674,10.485461 9.189564,10.48563 9.189564,10.414375 9.189552,10.366585 9.232674,10.366551" style="fill: white" /><polygon type="contour" points="9.288342,10.137386 9.288416,10.183145 9.288416,10.235523 9.232673,10.234292 9.189552,10.233934 9.189552,10.179288 9.189563,10.13728 9.249014,10.13728" style="fill: white" /><polygon type="contour" points="9.288342,9.899027 9.288342,9.942365 9.232673,9.942365 9.189564,9.942136 9.189564,9.882688 9.189336,9.84336 9.234907,9.843286 9.288416,9.843286" style="fill: white" /><polygon type="contour" points="9.288416,9.711102 9.189336,9.711102 9.189336,9.420602 9.288416,9.420602" style="fill: white" /><polygon type="contour" points="8.994314,9.711102 8.898149,9.711102 8.898149,9.420602 8.994314,9.420602" style="fill: white" /><polygon type="contour" points="8.952501,9.84336 8.994314,9.84336 8.994314,9.899027 8.99442,9.942136 8.936237,9.942136 8.897769,9.942148 8.89802,9.899026 8.896934,9.843286" style="fill: white" /><polygon type="contour" points="8.765761,9.899026 8.765117,9.942148 8.698198,9.942148 8.646073,9.942136 8.64624,9.899026 8.646234,9.843286 8.765719,9.843286" style="fill: white" /><polygon type="contour" points="8.765874,9.711102 8.475871,9.711102 8.477504,9.603517 8.477686,9.565502 8.477504,9.527669 8.475871,9.420602 8.765874,9.420602" style="fill: white" /><polygon type="contour" points="8.730799,8.479372 8.764884,8.479037 8.765312,8.498961 8.765312,8.518538 8.765253,8.523321 8.76474,8.698412 8.76474,8.764743 8.60609,8.764743 8.516069,8.76465 8.479123,8.76465 8.479103,8.708162 8.478236,8.478238" style="fill: white" /><polygon type="contour" points="9.608638,8.478818 9.711101,8.47921 9.711101,8.765098 9.4206,8.765098 9.4206,8.47921 9.522569,8.478818 9.56569,8.47761" style="fill: white" /><polygon type="contour" points="9.232674,8.646242 9.288416,8.646236 9.288416,8.764967 9.232674,8.765153 9.189552,8.765119 9.189552,8.698198 9.189564,8.646074" style="fill: white" /><polygon type="contour" points="8.99442,8.717328 8.994367,8.765119 8.949463,8.764869 8.89784,8.764869 8.89784,8.646146 8.952411,8.64621 8.99442,8.646074" style="fill: white" /><polygon type="contour" points="8.994367,8.952412 8.99442,8.994422 8.936238,8.994422 8.897769,8.994368 8.89784,8.949464 8.89784,8.897842 8.952412,8.897771 8.994367,8.897771" style="fill: white" /><polygon type="contour" points="8.764867,8.949464 8.765117,8.994368 8.698197,8.994368 8.646073,8.994422 8.646208,8.952412 8.646144,8.897842 8.764867,8.897842" style="fill: white" /><polygon type="contour" points="8.765761,9.232674 8.765719,9.288418 8.646234,9.288418 8.64624,9.232675 8.646073,9.189566 8.717325,9.189566 8.765117,9.189554" style="fill: white" /><polygon type="contour" points="8.99442,9.189566 8.99442,9.249015 8.994314,9.288344 8.94956,9.288438 8.898149,9.288438 8.898021,9.232675 8.897769,9.189554 8.952412,9.189554" style="fill: white" /><polygon type="contour" points="9.288342,9.232675 9.288416,9.242848 9.288416,9.288418 9.232673,9.288344 9.189336,9.288344 9.189336,9.232675 9.189564,9.189566 9.249013,9.189566 9.288342,9.189338" style="fill: white" /><polygon type="contour" points="9.288342,8.951893 9.288342,8.994316 9.232674,8.994316 9.189564,8.994422 9.189564,8.936239 9.189552,8.897771 9.232673,8.897412 9.288416,8.896182" style="fill: white" /><polygon type="contour" points="9.711101,8.994316 9.4206,8.994316 9.4206,8.897401 9.711101,8.897401" style="fill: white" /><polygon type="contour" points="10.652597,8.708162 10.652577,8.76465 10.522923,8.76465 10.43329,8.764743 10.36696,8.764743 10.366447,8.554827 10.366447,8.523322 10.366387,8.498961 10.36647,8.49484 10.366815,8.479037 10.4009,8.479372 10.653464,8.478238" style="fill: white" /><polygon type="contour" points="10.654196,9.528186 10.654014,9.566201 10.654196,9.604034 10.655829,9.711102 10.365827,9.711102 10.365827,9.582066 10.366605,9.420602 10.655829,9.420602" style="fill: white" /><polygon type="contour" points="10.485461,9.899026 10.485628,9.942136 10.414374,9.942136 10.366583,9.942148 10.365938,9.899026 10.36598,9.843286 10.485466,9.843286" style="fill: white" /><polygon type="contour" points="10.61563,10.367055 10.652577,10.367055 10.652597,10.423542 10.653464,10.653466 10.4009,10.652332 10.366815,10.652667 10.366387,10.632742 10.366387,10.613166 10.366447,10.608381 10.36696,10.433291 10.36696,10.366962 10.525609,10.366962" style="fill: white" /><polygon type="contour" points="10.485492,10.179289 10.485556,10.233863 10.366833,10.233863 10.366833,10.182239 10.366583,10.137333 10.433502,10.137333 10.485628,10.13728" style="fill: white" /><polygon type="contour" points="10.182236,10.366834 10.233861,10.366834 10.233861,10.485558 10.179286,10.485494 10.137277,10.48563 10.137277,10.414374 10.137331,10.366585" style="fill: white" /><polygon type="contour" points="10.233932,10.137333 10.233861,10.182239 10.233861,10.233863 10.179287,10.233934 10.137331,10.233934 10.137331,10.179288 10.137277,10.13728 10.19546,10.13728" style="fill: white" /><polygon type="contour" points="10.233679,9.899026 10.233932,9.942148 10.179286,9.942148 10.137277,9.942136 10.137277,9.882688 10.137385,9.84336 10.182139,9.843265 10.233552,9.843265" style="fill: white" /><polygon type="contour" points="10.234302,9.555363 10.233552,9.711102 10.137385,9.711102 10.137385,9.420602 10.234302,9.420602" style="fill: white" /><polygon type="contour" points="10.23429,9.232675 10.234302,9.288438 10.179808,9.288344 10.137385,9.288344 10.137385,9.232674 10.137277,9.189566 10.195461,9.189566 10.233932,9.189554" style="fill: white" /><polygon type="contour" points="10.485628,9.189566 10.485461,9.232675 10.485466,9.288418 10.366735,9.288418 10.366549,9.232675 10.366583,9.189554 10.433502,9.189554" style="fill: white" /><polygon type="contour" points="10.485492,8.952412 10.485628,8.994422 10.414374,8.994422 10.366583,8.994368 10.366833,8.949464 10.366833,8.897842 10.485556,8.897842" style="fill: white" /><polygon type="contour" points="10.182236,8.897842 10.23386,8.897842 10.233932,8.952413 10.233932,8.994368 10.179287,8.994368 10.137277,8.994422 10.137277,8.93624 10.137331,8.897771" style="fill: white" /><polygon type="contour" points="10.179286,8.64621 10.233861,8.646146 10.233861,8.764869 10.182235,8.764869 10.137331,8.765119 10.137331,8.698198 10.137277,8.646074" style="fill: white" /><polygon type="contour" points="9.942135,8.717327 9.942146,8.765119 9.899024,8.765153 9.843285,8.764967 9.843285,8.646236 9.899024,8.646242 9.942135,8.646074" style="fill: white" /><polygon type="contour" points="9.899025,8.897412 9.942146,8.897771 9.942146,8.952412 9.942135,8.994422 9.882686,8.994422 9.843359,8.994316 9.843285,8.948559 9.843285,8.896182" style="fill: white" /><polygon type="contour" points="9.942135,9.189566 9.942135,9.249015 9.942363,9.288344 9.896792,9.288418 9.843285,9.288418 9.843359,9.232675 9.843359,9.189338 9.899024,9.189338" style="fill: white" /><polygon type="contour" points="9.711101,9.288418 9.4206,9.288418 9.4206,9.189338 9.711101,9.189338" style="fill: white" /><polygon type="contour" points="9.711101,9.711102 9.4206,9.711102 9.4206,9.420602 9.711101,9.420602" style="fill: white" /><polygon type="contour" points="9.942363,9.711102 9.843285,9.711102 9.843285,9.420602 9.942363,9.420602" style="fill: white" /><polygon type="contour" points="9.899025,9.84336 9.942363,9.84336 9.942363,9.899026 9.942135,9.942136 9.882686,9.942136 9.843359,9.942365 9.843359,9.899027 9.843263,9.889051 9.843285,9.843286" style="fill: white" /><polygon type="contour" points="9.711101,9.942365 9.4206,9.942365 9.4206,9.843286 9.711101,9.843286" style="fill: white" /><polygon type="contour" points="9.711101,10.234304 9.4206,10.234304 9.4206,10.137387 9.711101,10.137387" style="fill: white" /><polygon type="contour" points="9.942135,10.195464 9.942146,10.233934 9.899025,10.234292 9.843263,10.234304 9.843359,10.179809 9.843359,10.137387 9.899024,10.137387 9.942135,10.13728" style="fill: white" /><polygon type="contour" points="9.942146,10.366585 9.942146,10.433504 9.942135,10.48563 9.899024,10.485462 9.843285,10.485468 9.843285,10.366736 9.899024,10.366551" style="fill: white" /><polygon type="contour" points="9.711101,10.652494 9.608638,10.652886 9.565501,10.654094 9.522569,10.652885 9.4206,10.652494 9.4206,10.366607 9.711101,10.366607" style="fill: white" />
</svg>
