<svg width="19.131698" height="19.131699">
<polygon type="contour" points="7.448723,10.330717 7.719298,10.331402 7.719957,10.610828 7.719957,10.626306 7.698842,10.626167 7.426584,10.625517 7.42656,10.604708 7.426003,10.33054" style="fill: white" /><polygon type="contour" points="8.803283,10.92735 8.80411,10.991232 8.804299,11.046198 8.803857,11.123928 8.79799,11.123928 8.508851,11.124277 8.508839,11.115413 8.509065,11.023953 8.509074,11.012066 8.50895,10.926085 8.53263,10.926085 8.803282,10.92573" style="fill: white" /><polygon type="contour" points="8.800584,11.419301 8.801266,11.705323 8.793776,11.705314 8.505859,11.705562 8.505624,11.691928 8.505624,11.422482 8.505645,11.412156 8.530534,11.412156 8.800539,11.411989" style="fill: white" /><polygon type="contour" points="8.116578,11.410145 8.205903,11.410494 8.205856,11.427002 8.205856,11.535394 8.116578,11.535411 8.114084,11.535424 8.111939,11.535405 8.023093,11.535249 8.007513,11.535237 8.007513,11.410316 8.0243,11.410316 8.11194,11.410134" style="fill: white" /><polygon type="contour" points="7.719066,11.537262 7.7188,11.630926 7.718631,11.669587 7.718263,11.672481 7.718232,11.706415 7.543328,11.706864 7.419843,11.711859 7.419912,11.649412 7.425194,11.570841 7.42574,11.412636 7.719066,11.412636" style="fill: white" /><polygon type="contour" points="7.721209,10.938388 7.721554,11.015123 7.721566,11.019762 7.721387,11.124188 7.596463,11.124188 7.596297,11.019763 7.596278,11.017618 7.59629,11.015122 7.596313,10.937503 7.596308,10.925846 7.613331,10.925799 7.721209,10.925799" style="fill: white" /><polygon type="contour" points="8.111166,10.92597 8.116578,10.92597 8.205856,10.925846 8.205856,10.938048 8.20573,11.015122 8.20573,11.020535 8.205903,11.124437 8.193312,11.124437 8.116579,11.124322 8.111939,11.124308 8.007513,11.124188 8.007264,11.029894 8.00738,11.015122 8.007264,10.925799" style="fill: white" /><polygon type="contour" points="8.205867,10.32804 8.205867,10.349693 8.205949,10.622885 8.201346,10.622885 8.124267,10.622649 8.102975,10.622677 8.007311,10.623105 8.007311,10.607185 8.007582,10.328135 8.01557,10.328148 8.10696,10.327309 8.120373,10.327299" style="fill: white" /><polygon type="contour" points="8.802159,10.329544 8.802101,10.373459 8.80249,10.624613 8.770015,10.624569 8.507755,10.623946 8.507716,10.593745 8.507453,10.32946 8.547084,10.329411" style="fill: white" /><polygon type="contour" points="8.80212,8.518252 8.802159,8.802161 8.758243,8.802103 8.507296,8.802103 8.507356,8.755189 8.507755,8.507757 8.791022,8.507395 8.802107,8.507382" style="fill: white" /><polygon type="contour" points="8.803857,8.007776 8.803854,8.009825 8.804299,8.085506 8.804111,8.140472 8.803282,8.205975 8.798076,8.205975 8.50895,8.205619 8.50895,8.198116 8.509074,8.119637 8.509065,8.107752 8.508851,8.007427 8.53374,8.007427" style="fill: white" /><polygon type="contour" points="8.801267,7.426381 8.801221,7.429283 8.800532,7.717522 8.800538,7.719713 8.795146,7.719713 8.505645,7.719545 8.505624,7.709218 8.505624,7.439775 8.505859,7.426142 8.538934,7.426103" style="fill: white" /><polygon type="contour" points="7.484181,7.42035 7.543328,7.424839 7.718232,7.425289 7.718631,7.462116 7.718631,7.498871 7.7188,7.500779 7.719066,7.594442 7.719066,7.719067 7.42574,7.719067 7.425194,7.560863 7.419843,7.419845" style="fill: white" /><polygon type="contour" points="8.116578,7.596292 8.194198,7.596315 8.205856,7.59631 8.205903,7.613333 8.205903,7.72121 8.193313,7.72121 8.116578,7.721555 8.11194,7.721567 8.007513,7.721389 8.007513,7.596465 8.111939,7.596299 8.114085,7.59628" style="fill: white" /><polygon type="contour" points="7.721387,8.024302 7.721566,8.111941 7.721554,8.11658 7.721209,8.205904 7.7047,8.205858 7.596308,8.205858 7.59629,8.11658 7.596278,8.114087 7.596297,8.111941 7.59645,8.023096 7.596463,8.007516 7.721387,8.007516" style="fill: white" /><polygon type="contour" points="8.20573,8.111168 8.20573,8.116581 8.205856,8.205858 8.193654,8.205858 8.116578,8.205731 8.111166,8.205731 8.007264,8.205904 8.007264,8.193315 8.007379,8.116581 8.007393,8.111941 8.007512,8.007516 8.0243,8.007516 8.111939,8.007395 8.116579,8.007381 8.205903,8.007267" style="fill: white" /><polygon type="contour" points="8.102976,8.509024 8.124267,8.509052 8.205949,8.508819 8.205949,8.52335 8.205867,8.803665 8.199115,8.803667 8.120373,8.804406 8.106961,8.804396 8.007582,8.80357 8.007582,8.780762 8.00731,8.508599 8.012974,8.50859" style="fill: white" /><polygon type="contour" points="7.719901,8.547702 7.71943,8.800342 7.689164,8.800536 7.426003,8.801164 7.426038,8.770211 7.426584,8.506186 7.44199,8.506061 7.719901,8.505402" style="fill: white" /><polygon type="contour" points="7.721093,9.409743 7.721848,9.536946 7.721848,9.602097 7.721093,9.744344 7.702916,9.744299 7.596164,9.744299 7.596481,9.601742 7.596481,9.59541 7.596626,9.59541 7.596161,9.40813 7.596164,9.387405 7.702916,9.387405 7.721093,9.38736" style="fill: white" /><polygon type="contour" points="8.023519,9.382358 8.11194,9.387573 8.116579,9.387832 8.205856,9.387595 8.205856,9.4069 8.205889,9.536937 8.205889,9.601852 8.205855,9.744109 8.19383,9.744128 8.116579,9.743871 8.11194,9.74413 8.007513,9.749351 8.007374,9.602097 8.007374,9.530275 8.007513,9.382354" style="fill: white" /><polygon type="contour" points="8.803445,9.387775 8.803445,9.398838 8.804043,9.536931 8.804043,9.601742 8.803445,9.743929 8.780975,9.743919 8.508362,9.744412 8.508362,9.736271 8.509661,9.536937 8.50928,9.536937 8.50928,9.530521 8.508362,9.387293 8.524313,9.387286" style="fill: white" /><polygon type="contour" points="9.743842,9.530631 9.743842,9.601743 9.744298,9.744299 9.601071,9.743844 9.52996,9.743844 9.387403,9.744299 9.387859,9.601743 9.387859,9.530631 9.387403,9.387405 9.52996,9.38786 9.601071,9.38786 9.744298,9.387405" style="fill: white" /><polygon type="contour" points="11.535403,8.111941 11.535423,8.114086 11.535409,8.116581 11.535386,8.194199 11.535392,8.205858 11.518368,8.205904 11.410491,8.205904 11.410491,8.193316 11.410143,8.11658 11.410132,8.111941 11.410314,8.007516 11.535234,8.007516" style="fill: white" /><polygon type="contour" points="11.711789,7.482289 11.706505,7.560863 11.70596,7.719067 11.412634,7.719067 11.412634,7.594443 11.412898,7.500778 11.413067,7.462116 11.413434,7.459222 11.413466,7.425289 11.58837,7.42484 11.711857,7.419845" style="fill: white" /><polygon type="contour" points="11.01976,7.596299 11.108606,7.596452 11.124186,7.596465 11.124186,7.721389 11.1074,7.721389 11.01976,7.721567 11.015121,7.721555 10.925797,7.72121 10.925844,7.704701 10.925844,7.59631 11.01512,7.596292 11.017616,7.59628" style="fill: white" /><polygon type="contour" points="10.626076,7.439775 10.626076,7.709218 10.626055,7.719545 10.601164,7.719545 10.331162,7.719713 10.331116,7.712398 10.330433,7.42638 10.337924,7.426389 10.625841,7.426142" style="fill: white" /><polygon type="contour" points="9.744298,7.596166 9.744298,7.702918 9.744343,7.721095 9.721958,7.721095 9.594755,7.72185 9.529605,7.72185 9.387358,7.721095 9.387403,7.702918 9.387403,7.596166 9.408129,7.596164 9.565439,7.596554 9.723571,7.596164" style="fill: white" /><polygon type="contour" points="9.749349,8.007516 9.744167,8.10181 9.743869,8.116581 9.744108,8.205858 9.724802,8.205858 9.594765,8.205891 9.52985,8.205891 9.387593,8.205857 9.387574,8.193833 9.387831,8.11658 9.387572,8.111942 9.382352,8.007516 9.40527,8.007516 9.536277,8.007375 9.601428,8.007375" style="fill: white" /><polygon type="contour" points="9.594766,8.509662 9.594766,8.509281 9.601181,8.509281 9.744409,8.508363 9.744416,8.524314 9.743927,8.803447 9.732864,8.803447 9.594771,8.804045 9.529959,8.804045 9.387774,8.803447 9.387284,8.524314 9.387291,8.508363 9.395429,8.508363" style="fill: white" /><polygon type="contour" points="10.361683,8.507133 10.623944,8.507757 10.623983,8.537958 10.624247,8.802245 10.584615,8.802293 10.329542,8.802161 10.3296,8.758245 10.329211,8.507091" style="fill: white" /><polygon type="contour" points="10.622861,8.016289 10.622632,8.107752 10.622623,8.119636 10.62275,8.205619 10.599068,8.205619 10.328419,8.205975 10.328418,8.204352 10.32759,8.140471 10.327401,8.085507 10.327842,8.007776 10.333708,8.007776 10.622849,8.007427" style="fill: white" /><polygon type="contour" points="11.015121,8.007382 11.01976,8.007395 11.124186,8.007516 11.124436,8.101809 11.12432,8.116581 11.124436,8.205904 11.020534,8.205731 11.01512,8.205731 10.925844,8.205858 10.925844,8.193655 10.925968,8.116581 10.925968,8.111168 10.925797,8.007267 10.938387,8.007267" style="fill: white" /><polygon type="contour" points="11.124385,8.524518 11.124114,8.80357 11.116127,8.803557 11.024738,8.804396 11.011327,8.804406 10.925831,8.803665 10.925831,8.782011 10.925751,8.508819 10.930354,8.508819 11.007432,8.509052 11.028723,8.509023 11.124385,8.508599" style="fill: white" /><polygon type="contour" points="11.432859,8.505537 11.705116,8.506187 11.705141,8.526995 11.705698,8.801165 11.682978,8.800988 11.412399,8.800303 11.411743,8.520875 11.411743,8.505397" style="fill: white" /><polygon type="contour" points="11.428784,9.387405 11.535536,9.387405 11.535215,9.530632 11.535216,9.531708 11.535216,9.536965 11.535068,9.536964 11.535539,9.723572 11.535536,9.744299 11.428784,9.744299 11.410607,9.744344 11.410607,9.721959 11.409852,9.595425 11.409852,9.530274 11.410606,9.38736" style="fill: white" /><polygon type="contour" points="11.124455,9.409743 11.124266,9.595425 11.124326,9.595425 11.124326,9.602098 11.124455,9.744344 11.108827,9.744298 11.019899,9.74388 11.015121,9.743872 10.925844,9.74411 10.925844,9.724805 10.925811,9.595436 10.925811,9.530521 10.925844,9.387595 10.937869,9.387576 11.01512,9.387832 11.019899,9.387824 11.124455,9.38736" style="fill: white" /><polygon type="contour" points="10.623338,9.387293 10.623338,9.395431 10.62204,9.595437 10.62242,9.595437 10.62242,9.601852 10.623337,9.744412 10.607386,9.744419 10.328255,9.743929 10.328255,9.732866 10.327658,9.595442 10.327658,9.530631 10.328255,9.387776 10.607386,9.387286" style="fill: white" /><polygon type="contour" points="10.62275,10.926085 10.62275,10.933587 10.622623,11.012066 10.622632,11.023953 10.622849,11.124277 10.597959,11.124277 10.327842,11.123928 10.327845,11.121878 10.327401,11.046197 10.32759,10.991233 10.328419,10.92573 10.333623,10.92573" style="fill: white" /><polygon type="contour" points="10.626055,11.412156 10.626076,11.422482 10.626076,11.691928 10.625841,11.705562 10.592765,11.705601 10.330433,11.705323 10.33048,11.702419 10.331168,11.414179 10.331162,11.411989 10.336554,11.411989" style="fill: white" /><polygon type="contour" points="9.744343,11.410608 9.744298,11.428786 9.744298,11.535537 9.723572,11.53554 9.565439,11.535147 9.408129,11.53554 9.387403,11.535537 9.387403,11.428786 9.387358,11.410609 9.409741,11.410609 9.536277,11.409854 9.601428,11.409854" style="fill: white" /><polygon type="contour" points="9.744108,10.925846 9.744126,10.937871 9.743868,11.015123 9.743877,11.019901 9.744343,11.124458 9.601427,11.124328 9.529604,11.124328 9.387358,11.124458 9.387533,11.029894 9.387831,11.015123 9.387593,10.925846 9.406897,10.925846 9.536266,10.925813 9.601181,10.925813" style="fill: white" /><polygon type="contour" points="9.743927,10.328256 9.744416,10.607389 9.744409,10.623341 9.736269,10.623341 9.536266,10.622043 9.536266,10.622423 9.52985,10.622423 9.387291,10.62334 9.387284,10.607389 9.387774,10.328257 9.398836,10.328257 9.53626,10.32766 9.601072,10.32766" style="fill: white" /><polygon type="contour" points="10.373457,10.329602 10.624404,10.329602 10.624343,10.376513 10.623944,10.623946 10.340677,10.624305 10.329594,10.624318 10.329581,10.613448 10.329542,10.329544" style="fill: white" /><polygon type="contour" points="11.024739,10.327309 11.124114,10.328135 11.124114,10.350942 11.124385,10.623105 11.118721,10.623114 11.028724,10.622677 11.007432,10.622649 10.925751,10.622885 10.925751,10.608354 10.925831,10.32804 10.932584,10.328038 11.011326,10.327299" style="fill: white" /><polygon type="contour" points="11.705662,10.361493 11.705117,10.625517 11.68971,10.625643 11.411799,10.626302 11.411799,10.584001 11.41227,10.331363 11.442535,10.331168 11.705698,10.33054" style="fill: white" /><polygon type="contour" points="11.426999,10.925846 11.535392,10.925846 11.53541,11.015123 11.535423,11.017618 11.535403,11.019762 11.535246,11.108607 11.535234,11.124188 11.410314,11.124188 11.410314,11.107401 11.410132,11.019762 11.410143,11.015123 11.410491,10.925799" style="fill: white" /><polygon type="contour" points="11.124436,10.938388 11.12432,11.015122 11.124307,11.019762 11.124186,11.124188 11.1074,11.124188 11.01976,11.124309 11.01512,11.124322 10.925797,11.124437 10.925968,11.020535 10.925968,11.015123 10.925844,10.925846 10.938046,10.925846 11.01512,10.92597 11.020534,10.92597 11.124436,10.925799" style="fill: white" /><polygon type="contour" points="11.124186,11.410316 11.124186,11.535237 11.019761,11.535404 11.017615,11.535424 11.01512,11.535411 10.937501,11.535388 10.925844,11.535394 10.925797,11.51837 10.925797,11.410494 10.938386,11.410494 11.015121,11.410145 11.01976,11.410134" style="fill: white" /><polygon type="contour" points="11.706504,11.57084 11.711857,11.711859 11.647519,11.711354 11.588371,11.706864 11.413466,11.706415 11.413067,11.669587 11.413067,11.632833 11.412898,11.630926 11.412634,11.537261 11.412634,11.412636 11.70596,11.412636" style="fill: white" />
</svg>
