<svg width="19.131698" height="19.131699">
<polygon type="contour" points="7.979084,8.473789 8.006262,8.473789 8.006398,8.549291 8.006398,8.568698 8.006371,8.568697 8.006499,8.858776 8.006499,9.020868 8.006262,9.116402 8.006262,9.148908 7.918972,9.14884 7.895473,9.148728 7.75525,9.148779 7.726419,9.148779 7.726295,9.121031 7.726749,8.922254 7.557467,8.922254 7.557575,8.864832 7.55786,8.628717 7.726694,8.628717 7.726813,8.549291 7.72634,8.473789 7.825353,8.473464 7.899242,8.473464" style="fill: white" /><polygon type="contour" points="7.713727,7.548128 7.846777,7.558226 7.846777,7.726448 7.918972,7.726565 8.006262,7.726342 8.006345,7.825357 8.006345,7.899245 8.006262,7.979087 8.006262,8.006264 7.918973,8.006346 7.847147,8.006346 7.756358,8.006264 7.72634,8.006264 7.726284,7.982993 7.726685,7.846854 7.641809,7.84614 7.57274,7.845308 7.572266,7.845191 7.556164,7.845067 7.556205,7.794244 7.546816,7.546818" style="fill: white" /><polygon type="contour" points="8.921818,7.556939 8.921551,7.625532 8.922303,7.63199 8.922303,7.726749 9.121029,7.726297 9.148606,7.726422 9.148621,7.826239 9.148621,7.899142 9.148606,7.979862 9.148906,8.006264 9.048797,8.0065 8.922726,8.0065 8.689457,8.0064 8.568698,8.0064 8.497766,8.006264 8.473788,8.006264 8.473462,7.918975 8.473462,7.84715 8.473788,7.756361 8.473788,7.726342 8.494651,7.726285 8.628787,7.727193 8.628787,7.608489 8.628775,7.582971 8.628775,7.557806 8.867302,7.556758" style="fill: white" /><polygon type="contour" points="9.1164,8.473789 9.148906,8.473789 9.148065,8.549291 9.147635,8.582746 9.14871,8.861016 9.14871,9.020759 9.148606,9.117373 9.148606,9.148779 9.047553,9.148859 8.922703,9.148859 8.687267,9.147955 8.629198,9.147955 8.629198,9.14726 8.497042,9.148778 8.473788,9.148908 8.473406,9.048799 8.473406,8.922728 8.473641,8.689456 8.473641,8.568697 8.473788,8.497767 8.473788,8.473789 8.549291,8.473642 8.568698,8.473642 8.568698,8.473703 8.858773,8.473408 9.020866,8.473408" style="fill: white" /><polygon type="contour" points="11.375341,8.473789 11.40536,8.473789 11.405418,8.494652 11.404509,8.628717 11.57384,8.628717 11.574124,8.864832 11.574233,8.922254 11.404951,8.922254 11.405406,9.12103 11.405281,9.148779 11.305464,9.148746 11.284599,9.148746 11.284599,9.148724 11.151838,9.148779 11.125437,9.148908 11.125201,9.048799 11.125201,8.922728 11.125303,8.689456 11.125303,8.568698 11.125437,8.497768 11.125437,8.473789 11.212727,8.473464 11.284552,8.473464" style="fill: white" /><polygon type="contour" points="11.584707,7.708816 11.575545,7.845058 11.558959,7.845307 11.489889,7.846141 11.405257,7.846852 11.405137,7.918975 11.40536,8.006264 11.306345,8.006346 11.232456,8.006346 11.152614,8.006264 11.125437,8.006264 11.125356,7.918975 11.125356,7.847149 11.125437,7.756361 11.125437,7.726342 11.148707,7.726286 11.284923,7.726687 11.284923,7.558227 11.304659,7.558152 11.584885,7.546818" style="fill: white" /><polygon type="contour" points="10.475864,7.55789 10.502926,7.557807 10.502926,7.572755 10.502914,7.60849 10.502951,7.7267 10.58241,7.726815 10.657913,7.726342 10.658238,7.825357 10.658238,7.899245 10.657913,7.979086 10.657913,8.006264 10.582409,8.0064 10.563003,8.0064 10.563003,8.006373 10.272925,8.0065 10.110834,8.0065 10.015301,8.006264 9.982795,8.006264 9.982862,7.918975 9.982972,7.895579 9.982924,7.755254 9.982924,7.726422 10.010672,7.726297 10.209383,7.726749 10.209397,7.63199 10.209882,7.556939" style="fill: white" /><polygon type="contour" points="10.442243,8.473642 10.563002,8.473642 10.563002,8.473641 10.633933,8.473789 10.657913,8.473789 10.658059,8.549291 10.658059,8.568698 10.657997,8.568698 10.658294,8.858776 10.658294,9.020868 10.657913,9.116402 10.657913,9.148908 10.58241,9.148066 10.538378,9.147815 10.270685,9.148859 10.110943,9.148859 10.014329,9.148779 9.982924,9.148779 9.982844,9.047702 9.982844,8.922704 9.983748,8.687269 9.983748,8.629198 9.984442,8.629198 9.982924,8.497043 9.982795,8.473789 10.082901,8.473408 10.208973,8.473408 10.208973,8.473407" style="fill: white" /><polygon type="contour" points="10.658294,10.082903 10.658294,10.208975 10.658059,10.442247 10.658059,10.563005 10.657913,10.633935 10.657913,10.657914 10.582409,10.658062 10.563003,10.658062 10.563003,10.658 10.272926,10.658296 10.110834,10.658296 10.0153,10.657915 9.982795,10.657915 9.983636,10.582412 9.983888,10.53851 9.982844,10.270687 9.982844,10.110945 9.982924,10.014331 9.982924,9.983097 10.084001,9.982993 10.208996,9.982993 10.444432,9.983889 10.502503,9.983889 10.502503,9.984556 10.634658,9.983097 10.657913,9.982797" style="fill: white" /><polygon type="contour" points="11.212727,9.982864 11.284599,9.983654 11.284599,9.983082 11.376449,9.983097 11.405281,9.983097 11.405406,10.010674 11.404951,10.20945 11.574233,10.20945 11.574124,10.266871 11.57384,10.502987 11.405005,10.502987 11.404887,10.582412 11.40536,10.657915 11.306346,10.65824 11.232457,10.65824 11.152614,10.657915 11.125437,10.657915 11.125303,10.582412 11.125303,10.563006 11.125329,10.563006 11.125201,10.272927 11.125201,10.110834 11.125437,10.015302 11.125437,9.982797" style="fill: white" /><polygon type="contour" points="11.375342,11.125439 11.405359,11.125439 11.405416,11.148708 11.405015,11.284848 11.489889,11.285563 11.558959,11.286396 11.559433,11.286511 11.575534,11.286636 11.575493,11.337459 11.584885,11.584886 11.417972,11.583576 11.284923,11.573477 11.284923,11.405259 11.212726,11.405139 11.125436,11.405362 11.125356,11.306347 11.125356,11.232458 11.125437,11.152615 11.125437,11.125439 11.212726,11.125359 11.284553,11.125359" style="fill: white" /><polygon type="contour" points="10.442243,11.125304 10.563003,11.125304 10.633933,11.125439 10.657913,11.125439 10.658238,11.212728 10.658238,11.284553 10.657913,11.375342 10.657913,11.405362 10.637049,11.405419 10.502914,11.40451 10.502914,11.523214 10.502926,11.548732 10.502926,11.573897 10.264397,11.574946 10.209882,11.574765 10.210148,11.50617 10.209397,11.499713 10.209397,11.404954 10.010672,11.405407 9.982924,11.405282 9.982956,11.305464 9.982956,11.2846 9.982976,11.2846 9.982924,11.151838 9.982795,11.125439 10.082902,11.125204 10.208973,11.125204" style="fill: white" /><polygon type="contour" points="9.1164,11.125439 9.148906,11.125439 9.148839,11.212728 9.148048,11.2846 9.148622,11.2846 9.148606,11.37645 9.148606,11.405281 9.121029,11.405406 8.922316,11.404954 8.922302,11.499713 8.921818,11.574765 8.655836,11.573814 8.628775,11.573898 8.628775,11.558948 8.628787,11.523213 8.628749,11.405006 8.549291,11.404888 8.473788,11.405362 8.473462,11.306347 8.473462,11.232457 8.473788,11.152615 8.473788,11.125439 8.549291,11.125304 8.568697,11.125304 8.568697,11.12533 8.858774,11.125204 9.020866,11.125204" style="fill: white" /><polygon type="contour" points="8.549291,9.983639 8.582757,9.984068 8.861014,9.982993 9.020757,9.982993 9.117371,9.983097 9.148606,9.983097 9.14871,10.084149 9.14871,10.208998 9.147815,10.444435 9.147815,10.502506 9.147148,10.502506 9.148606,10.634661 9.148906,10.657915 9.048797,10.658296 8.922726,10.658296 8.689457,10.658062 8.568698,10.658062 8.497767,10.657915 8.473788,10.657915 8.473641,10.582412 8.473641,10.563006 8.473702,10.563006 8.473406,10.272927 8.473406,10.110834 8.473788,10.015302 8.473788,9.982797" style="fill: white" /><polygon type="contour" points="8.006499,10.082904 8.006499,10.208975 8.006398,10.442246 8.006398,10.563005 8.006262,10.633936 8.006262,10.657915 7.918972,10.65824 7.847147,10.65824 7.756358,10.657915 7.72634,10.657915 7.726283,10.63705 7.727189,10.502987 7.55786,10.502987 7.557575,10.266871 7.557467,10.20945 7.726749,10.20945 7.726295,10.010674 7.726419,9.983097 7.826236,9.983082 7.899139,9.983082 7.97986,9.983097 8.006262,9.982797" style="fill: white" /><polygon type="contour" points="7.979084,11.125439 8.006262,11.125439 8.006345,11.212727 8.006345,11.284553 8.006262,11.375343 8.006262,11.405362 7.982991,11.405418 7.846777,11.405018 7.846777,11.573477 7.82704,11.573552 7.546816,11.584886 7.546994,11.422886 7.556154,11.286646 7.57274,11.286395 7.64181,11.285563 7.726446,11.28485 7.726563,11.212728 7.72634,11.125439 7.825353,11.125359 7.899242,11.125359" style="fill: white" />
</svg>
