<svg width="19.131698" height="19.131699">
<polygon type="contour" points="14.892404,14.669754 14.904032,14.670902 15.21942,14.672299 15.242037,14.673228 15.320245,14.669383 15.332102,14.66982 15.331782,14.910618 15.331782,15.242039 15.332132,15.321423 15.332132,15.332135 15.242037,15.331784 14.910616,15.331784 14.669818,15.332105 14.673227,15.242038 14.672297,15.219421 14.670902,14.904034 14.665196,14.665197" style="fill: white" /><polygon type="contour" points="15.332067,16.98967 15.332067,17.214516 15.332132,17.245335 15.332132,17.25314 15.322569,17.253146 15.242037,17.253372 15.189368,17.253861 15.189021,17.337743 15.188819,17.348756 15.189007,17.374902 15.188854,17.37685 15.188854,17.410325 15.188961,17.411949 15.188973,17.443674 14.961451,17.44421 14.85631,17.44421 14.856244,17.408502 14.855983,17.348864 14.669239,17.348986 14.653857,17.348604 14.649618,17.280075 14.670207,17.182358 14.672852,16.989669 14.67343,16.899538 14.910617,16.899638 15.242037,16.899638 15.32142,16.899146 15.332132,16.899146" style="fill: white" /><polygon type="contour" points="17.253148,16.914266 17.253303,16.989669 17.253784,17.111004 17.339258,17.11059 17.350149,17.110576 17.375718,17.110552 17.410324,17.1106 17.411946,17.110462 17.443672,17.110472 17.443604,17.180687 17.444134,17.418168 17.444134,17.444136 17.33139,17.444254 17.330722,17.444138 17.110424,17.443628 17.110598,17.410325 17.110598,17.376849 17.11055,17.37572 17.110572,17.350151 17.110588,17.33926 17.111,17.253786 16.989668,17.253306 16.914264,17.25315 16.899144,17.25314 16.899348,17.214516 16.899348,16.989669 16.899144,16.899146 16.989667,16.89935 17.214512,16.89935 17.245333,16.899146 17.253138,16.899146" style="fill: white" /><polygon type="contour" points="17.348886,14.672662 17.348862,14.855984 17.408499,14.856245 17.409275,14.856259 17.444208,14.85631 17.444208,14.961451 17.443672,15.188975 17.410323,15.188856 17.3749,15.189009 17.348751,15.188821 17.33774,15.189023 17.253854,15.18937 17.253369,15.242039 17.253144,15.322571 17.253138,15.332135 17.214511,15.33207 16.989668,15.33207 16.899144,15.332135 16.899638,15.242038 16.899638,14.910617 16.899144,14.701797 16.89915,14.670236 16.989667,14.672854 17.180375,14.663216 17.34888,14.65578" style="fill: white" /><polygon type="contour" points="17.444134,1.687568 17.444134,1.713536 17.443604,1.951016 17.443672,2.02123 17.410323,2.021103 17.376847,2.021103 17.375717,2.021152 17.350149,2.021129 17.339258,2.021114 17.253784,2.020697 17.253303,2.142033 17.253147,2.217438 17.253137,2.232557 17.214511,2.232353 16.989667,2.232353 16.899144,2.232557 16.899348,2.142033 16.899348,1.917187 16.899144,1.886367 16.899144,1.878563 16.914264,1.878552 16.989667,1.878398 17.111,1.877917 17.110588,1.792445 17.110572,1.781552 17.11055,1.755984 17.110598,1.721377 17.11046,1.719754 17.110424,1.688076 17.330722,1.687565 17.33139,1.68745" style="fill: white" /><polygon type="contour" points="17.25337,3.889663 17.253854,3.942333 17.337739,3.942681 17.348752,3.942883 17.3749,3.942695 17.376847,3.942849 17.410324,3.942849 17.411945,3.942741 17.443672,3.94273 17.444208,4.170251 17.444208,4.275393 17.4085,4.275459 17.34886,4.275719 17.349164,4.462427 17.349111,4.477935 17.27985,4.484956 17.182249,4.461514 16.989668,4.458848 16.89915,4.461467 16.899638,4.221085 16.899638,3.889664 16.899144,3.810279 16.899144,3.799568 16.989668,3.799633 17.214511,3.799633 17.245334,3.799568 17.253138,3.799568" style="fill: white" /><polygon type="contour" points="15.33178,3.889663 15.331782,4.221084 15.332102,4.461883 15.242037,4.458474 15.219421,4.459402 14.904032,4.4608 14.665196,4.466505 14.670864,4.232377 14.670902,4.227668 14.672297,3.912281 14.673227,3.889663 14.66938,3.811455 14.669817,3.799599 14.910616,3.79992 15.242035,3.79992 15.321419,3.799568 15.332131,3.799568" style="fill: white" /><polygon type="contour" points="15.188973,1.688029 15.188854,1.721378 15.189007,1.756803 15.188819,1.782947 15.189021,1.793961 15.189368,1.877841 15.242037,1.878331 15.322569,1.878557 15.332132,1.878563 15.332067,1.917187 15.332067,2.142032 15.332132,2.232557 15.242036,2.232064 14.910616,2.232064 14.67343,2.232166 14.672853,2.142033 14.670208,1.949345 14.649618,1.851629 14.653857,1.7831 14.669239,1.782718 14.855983,1.782836 14.856243,1.723203 14.856258,1.722426 14.85631,1.687494 14.96145,1.687494" style="fill: white" /><polygon type="contour" points="1.800978,1.687565 2.021275,1.688076 2.021102,1.721377 2.021102,1.754855 2.02115,1.755984 2.021127,1.781552 2.021112,1.792444 2.020695,1.877917 2.142031,1.878398 2.217436,1.878553 2.232555,1.878563 2.232351,1.917188 2.232351,2.142033 2.232555,2.232557 2.142031,2.232353 1.917185,2.232353 1.886366,2.232557 1.878562,2.232557 1.878552,2.217438 1.878396,2.142033 1.877916,2.020697 1.792442,2.021114 1.78155,2.021128 1.755983,2.021152 1.721376,2.021103 1.719753,2.021241 1.688028,2.02123 1.688097,1.951017 1.687566,1.713536 1.687566,1.687568 1.800309,1.68745" style="fill: white" /><polygon type="contour" points="4.275457,1.723203 4.275717,1.782836 4.45904,1.782814 4.475921,1.782821 4.468484,1.951325 4.458845,2.142033 4.45827,2.232166 4.221082,2.232064 3.889662,2.232064 3.810276,2.232557 3.799566,2.232557 3.799631,2.142032 3.799631,1.917187 3.799566,1.886367 3.799566,1.878563 3.809129,1.878557 3.889661,1.878331 3.942331,1.877841 3.942678,1.793961 3.942882,1.782947 3.942694,1.756803 3.942847,1.754854 3.942847,1.721378 3.942739,1.719754 3.942728,1.688029 4.17025,1.687494 4.275391,1.687494" style="fill: white" /><polygon type="contour" points="3.889661,3.79992 4.221083,3.79992 4.461881,3.799599 4.458473,3.889664 4.459402,3.912281 4.460797,4.227668 4.466503,4.466504 4.239295,4.461948 4.227666,4.460799 3.912279,4.459403 3.889661,4.458474 3.811454,4.46232 3.799596,4.461883 3.799918,4.221084 3.799918,3.889664 3.799566,3.810279 3.799566,3.799568" style="fill: white" /><polygon type="contour" points="2.232063,3.889664 2.232063,4.221084 2.232555,4.429905 2.232549,4.461467 2.14203,4.458848 1.949447,4.461514 1.851852,4.484956 1.782589,4.477935 1.782536,4.462427 1.782834,4.275719 1.723201,4.275459 1.722425,4.275445 1.687492,4.275393 1.687492,4.170251 1.688028,3.94273 1.721377,3.942849 1.756801,3.942695 1.782946,3.942883 1.793959,3.94268 1.87784,3.942333 1.87833,3.889663 1.878556,3.809131 1.878562,3.799568 1.917186,3.799633 2.14203,3.799633 2.232555,3.799568" style="fill: white" /><polygon type="contour" points="1.951323,14.663216 2.142031,14.672854 2.232549,14.670236 2.232062,14.910619 2.232062,15.24204 2.232555,15.321423 2.232555,15.332135 2.14203,15.33207 1.917185,15.33207 1.886366,15.332135 1.878562,15.332135 1.87833,15.24204 1.87784,15.18937 1.793958,15.189023 1.782947,15.188821 1.7568,15.189009 1.754852,15.188856 1.721376,15.188856 1.719753,15.188963 1.688027,15.188975 1.687492,14.961451 1.687492,14.85631 1.723201,14.856245 1.782834,14.855984 1.782812,14.672661 1.782819,14.65578" style="fill: white" /><polygon type="contour" points="4.460835,14.899325 4.460797,14.904034 4.459402,15.219421 4.458473,15.242039 4.462318,15.320248 4.461881,15.332105 4.221083,15.331784 3.889662,15.331784 3.810276,15.332135 3.799566,15.332135 3.799918,15.242039 3.799918,14.910618 3.799596,14.66982 3.889661,14.673228 3.912279,14.672298 4.227666,14.670903 4.466503,14.665197" style="fill: white" /><polygon type="contour" points="3.889662,16.899638 4.221082,16.899638 4.45827,16.899538 4.458846,16.989669 4.468484,17.180377 4.475922,17.348884 4.459039,17.34889 4.275717,17.348864 4.275457,17.408501 4.275443,17.409278 4.275391,17.44421 4.170249,17.44421 3.942728,17.443676 3.942847,17.410325 3.942693,17.3749 3.942882,17.348756 3.942679,17.337743 3.942331,17.253861 3.889661,17.253371 3.809129,17.253146 3.799566,17.25314 3.799631,17.214515 3.799631,16.98967 3.799566,16.899146" style="fill: white" /><polygon type="contour" points="2.232351,16.989669 2.232351,17.214516 2.232555,17.245335 2.232555,17.253139 2.217436,17.253149 2.142031,17.253305 2.020695,17.253786 2.021112,17.33926 2.021127,17.350151 2.02115,17.37572 2.021102,17.410326 2.02124,17.41195 2.021275,17.443628 1.800978,17.444138 1.800309,17.444254 1.687566,17.444136 1.687566,17.418167 1.688097,17.180688 1.688028,17.110472 1.721377,17.1106 1.754853,17.1106 1.755983,17.110551 1.781549,17.110575 1.792443,17.11059 1.877916,17.111004 1.878396,16.98967 1.878551,16.914266 1.878562,16.899146 1.917185,16.89935 2.142031,16.89935 2.232555,16.899146" style="fill: white" />
</svg>
