<svg width="19.131698" height="19.131699">
<polygon type="contour" points="11.95704,7.180507 11.956883,7.185914 11.956888,7.187561 11.956859,7.189725 11.956931,7.243177 11.956922,7.29808 11.956922,11.833623 11.956931,11.888366 11.956859,11.941978 11.956883,11.945788 11.95704,11.951196 11.9572,11.957201 11.946879,11.956899 11.941976,11.95686 11.888365,11.956932 11.833622,11.956923 10.429177,11.956924 9.160535,11.956924 7.756501,11.956923 7.298076,11.956923 7.262659,11.956903 7.243174,11.956932 7.189723,11.95686 7.18482,11.956899 7.1745,11.957201 7.174644,11.951196 7.174816,11.945788 7.17484,11.941977 7.174769,11.888366 7.174777,11.833623 7.174777,7.29808 7.174769,7.243336 7.17484,7.189725 7.174815,7.185914 7.174644,7.180506 7.1745,7.174502 7.18482,7.174804 7.189723,7.174843 7.243335,7.174771 7.298076,7.174779 11.833622,7.174779 11.869041,7.1748 11.888524,7.174771 11.941976,7.174843 11.946879,7.174804 11.9572,7.174502" style="fill: white" />
</svg>
