<svg width="19.131698" height="19.131699">
<polygon type="contour" points="8.801457,8.579647 8.877493,8.581827 8.877651,8.609915 8.877651,8.637577 8.877605,8.649763 8.877605,8.748058 8.977821,8.74866 9.036904,8.748454 9.036904,8.80464 9.036273,8.944177 9.036574,8.944177 9.036574,8.977824 9.036904,9.036906 8.996376,9.036906 8.877643,9.036159 8.877644,9.036578 8.830999,9.036578 8.748451,9.036906 8.748657,8.977823 8.748057,8.877358 8.663553,8.877358 8.58179,8.87731 8.581462,8.857379 8.57302,8.573022" style="fill: white" /><polygon type="contour" points="8.944173,9.260286 8.944175,9.260018 8.977821,9.260018 9.036904,9.259723 9.036904,9.30117 9.036192,9.420602 9.036586,9.420602 9.036586,9.811319 9.036904,9.871981 8.996377,9.871981 8.877648,9.87131 8.877644,9.871686 8.830998,9.871686 8.748451,9.871981 8.748692,9.811319 8.748161,9.711102 8.578759,9.711102 8.579255,9.606309 8.578625,9.566013 8.579255,9.525899 8.578759,9.420602 8.748161,9.420602 8.748692,9.320384 8.748451,9.259723 8.804636,9.259723" style="fill: white" /><polygon type="contour" points="9.4206,9.260454 9.4206,9.26005 9.811319,9.26005 9.87198,9.259723 9.87198,9.30117 9.871248,9.420602 9.871653,9.420602 9.871653,9.81132 9.87198,9.871981 9.83053,9.871981 9.711101,9.871249 9.711101,9.871654 9.32038,9.871654 9.25972,9.871981 9.25972,9.830531 9.260451,9.711102 9.260047,9.711102 9.260047,9.320383 9.25972,9.259723 9.301168,9.259723" style="fill: white" /><polygon type="contour" points="9.630042,8.580978 9.711101,8.581853 9.711101,8.748163 9.811318,8.748694 9.87198,8.748454 9.87198,8.80464 9.871414,8.944175 9.871684,8.944176 9.871684,8.977823 9.87198,9.036906 9.830531,9.036906 9.711101,9.036194 9.711101,9.036588 9.320381,9.036588 9.25972,9.036906 9.25972,8.996378 9.260393,8.877647 9.260016,8.877647 9.260016,8.831 9.25972,8.748454 9.320381,8.748694 9.4206,8.748163 9.4206,8.581853 9.430373,8.581426 9.5655,8.579012" style="fill: white" /><polygon type="contour" points="10.550238,8.857379 10.549911,8.87731 10.468146,8.877358 10.383646,8.877206 10.383043,8.977823 10.383249,9.036906 10.32706,9.036906 10.187523,9.036279 10.187523,9.036578 10.153876,9.036578 10.094796,9.036906 10.094796,8.996378 10.095542,8.877645 10.095124,8.877646 10.095124,8.831001 10.094796,8.748454 10.153875,8.74866 10.254326,8.748057 10.254094,8.649763 10.254048,8.609914 10.254076,8.602966 10.254207,8.581827 10.330242,8.579647 10.55868,8.573022" style="fill: white" /><polygon type="contour" points="10.254047,9.260393 10.25405,9.260018 10.300698,9.260018 10.383249,9.259723 10.383009,9.320383 10.383536,9.420602 10.552942,9.420602 10.552444,9.525394 10.553074,9.56569 10.552444,9.605803 10.552942,9.711102 10.383536,9.711102 10.383009,9.81132 10.383249,9.871981 10.32706,9.871981 10.187522,9.871417 10.187522,9.871686 10.153876,9.871686 10.094796,9.871981 10.094796,9.830532 10.095507,9.711102 10.095114,9.711102 10.095114,9.320384 10.094796,9.259723 10.135324,9.259723" style="fill: white" /><polygon type="contour" points="10.254052,10.095541 10.254051,10.095125 10.300699,10.095125 10.383249,10.094798 10.383043,10.153878 10.383645,10.254344 10.468147,10.254344 10.549911,10.254392 10.550238,10.27432 10.55868,10.558682 10.330242,10.552057 10.254207,10.549878 10.254049,10.521789 10.254049,10.494128 10.254094,10.48194 10.254094,10.383645 10.153875,10.383044 10.094796,10.38325 10.094796,10.327062 10.095422,10.187526 10.095124,10.187526 10.095124,10.153878 10.094796,10.094798 10.135323,10.094798" style="fill: white" /><polygon type="contour" points="9.4206,10.095511 9.4206,10.095117 9.811319,10.095117 9.87198,10.094798 9.87198,10.135326 9.871306,10.25405 9.871684,10.254054 9.871684,10.3007 9.87198,10.38325 9.811318,10.38301 9.711101,10.38354 9.711101,10.549852 9.701281,10.550277 9.566012,10.552689 9.501657,10.550725 9.4206,10.549852 9.4206,10.38354 9.320381,10.38301 9.25972,10.38325 9.25972,10.327062 9.260285,10.187525 9.260016,10.187526 9.260016,10.153878 9.25972,10.094798 9.301167,10.094798" style="fill: white" /><polygon type="contour" points="8.944175,10.095422 8.944175,10.095125 8.97782,10.095125 9.036904,10.094798 9.036904,10.135325 9.036153,10.254055 9.036574,10.254053 9.036574,10.3007 9.036904,10.38325 8.977821,10.383044 8.87737,10.383646 8.877605,10.481941 8.877651,10.52179 8.877623,10.528738 8.877492,10.549878 8.801457,10.552057 8.57302,10.558682 8.581463,10.27432 8.58179,10.254391 8.663553,10.254344 8.748056,10.254494 8.748657,10.153878 8.748451,10.094798 8.804637,10.094798" style="fill: white" />
</svg>
