<svg width="19.131698" height="19.131699">
<polygon type="contour" points="9.000415,9.394906 9.000415,9.72765 9.001013,9.798446 9.001013,9.819176 8.917092,9.819129 8.89279,9.819129 8.791788,9.819176 8.762039,9.819176 8.762017,9.802368 8.761852,9.711102 8.593394,9.711102 8.593994,9.584039 8.593715,9.566117 8.593995,9.548279 8.593394,9.420602 8.761851,9.420602 8.76204,9.312528 8.880341,9.312575 8.908352,9.312575 8.980125,9.312528 9.001013,9.312528" style="fill: white" /><polygon type="contour" points="8.861786,8.594516 8.892152,8.595387 8.892417,8.642724 8.892512,8.654301 8.892824,8.761762 9.001013,8.762042 9.000752,8.880343 9.000752,8.908353 9.001013,8.980127 9.001013,9.001015 8.917092,9.000754 8.892791,9.000754 8.791789,9.001015 8.76204,9.001015 8.762008,8.984103 8.761764,8.892762 8.595824,8.892762 8.595759,8.886906 8.594576,8.857545 8.586531,8.586533" style="fill: white" /><polygon type="contour" points="9.593841,8.594901 9.645211,8.595456 9.693861,8.595311 9.711101,8.595228 9.711101,8.619512 9.7117,8.761834 9.736987,8.761874 9.736988,8.761898 9.819174,8.762042 9.819127,8.880342 9.819127,8.908353 9.819174,8.980126 9.819174,9.001015 9.736796,9.000417 9.40405,9.000417 9.333255,9.001015 9.312526,9.001015 9.312573,8.917094 9.312573,8.892792 9.312526,8.79179 9.312526,8.762042 9.329335,8.76202 9.4206,8.761854 9.4206,8.595228 9.437755,8.59531 9.486174,8.595456 9.5655,8.594038" style="fill: white" /><polygon type="contour" points="9.798443,9.312528 9.819174,9.312528 9.819349,9.394905 9.819349,9.72765 9.819174,9.798446 9.819174,9.819176 9.736796,9.819352 9.40405,9.819352 9.333255,9.819176 9.312526,9.819176 9.312351,9.736797 9.312351,9.404053 9.312526,9.333257 9.312526,9.312528 9.394903,9.312352 9.72765,9.312352" style="fill: white" /><polygon type="contour" points="10.537123,8.857545 10.535941,8.886906 10.535876,8.892762 10.36994,8.892762 10.369661,9.001015 10.251358,9.000754 10.223347,9.000754 10.151574,9.001015 10.130687,9.001015 10.130949,8.917093 10.130949,8.892791 10.130687,8.791791 10.130687,8.762042 10.147598,8.76201 10.239188,8.761765 10.239188,8.654302 10.239548,8.595387 10.269913,8.594516 10.545169,8.586533" style="fill: white" /><polygon type="contour" points="10.369683,9.329337 10.369848,9.420602 10.538307,9.420602 10.537704,9.547664 10.537984,9.565586 10.537703,9.583424 10.538307,9.711102 10.369849,9.711102 10.369661,9.819176 10.251359,9.819129 10.223348,9.819129 10.151575,9.819176 10.130687,9.819176 10.131286,9.736797 10.131286,9.404052 10.130687,9.333258 10.130687,9.312528 10.214607,9.312575 10.238908,9.312575 10.339912,9.312528 10.36966,9.312528" style="fill: white" /><polygon type="contour" points="10.369692,10.1476 10.369936,10.238942 10.535876,10.238942 10.535941,10.244797 10.537122,10.274155 10.545169,10.545171 10.269913,10.537188 10.239548,10.536318 10.239283,10.48898 10.239188,10.477402 10.238875,10.369941 10.130687,10.369663 10.130949,10.25136 10.130949,10.22335 10.130687,10.151577 10.130687,10.130689 10.214607,10.13095 10.238908,10.13095 10.339912,10.130689 10.36966,10.130689" style="fill: white" /><polygon type="contour" points="9.819127,10.214609 9.819127,10.238912 9.819174,10.339914 9.819174,10.369663 9.802365,10.369685 9.711101,10.36985 9.711101,10.536477 9.693945,10.536394 9.645526,10.536248 9.566117,10.537664 9.537859,10.536802 9.48649,10.536248 9.437838,10.536394 9.4206,10.536477 9.4206,10.36985 9.312526,10.369663 9.312573,10.251361 9.312573,10.22335 9.312526,10.151577 9.312526,10.130689 9.394904,10.131287 9.727649,10.131287 9.798444,10.130689 9.819174,10.130689" style="fill: white" /><polygon type="contour" points="9.000752,10.214609 9.000752,10.238911 9.001013,10.339913 9.001013,10.369662 8.984101,10.369694 8.892512,10.369939 8.892512,10.477401 8.892152,10.536318 8.861786,10.537188 8.586531,10.545171 8.594577,10.274155 8.595759,10.244797 8.595824,10.238942 8.76176,10.238942 8.76204,10.130689 8.880342,10.13095 8.908352,10.13095 8.980126,10.130689 9.001013,10.130689" style="fill: white" />
</svg>
