<svg width="19.131698" height="19.131699">
<polygon type="contour" points="7.0721,6.988803 7.2422,6.988803 7.2422,6.667703 7.325499,6.667703 7.325499,6.988803 7.4956,6.988803 7.4956,6.667703 7.5789,6.667703 7.5789,6.988803 7.748999,6.988803 7.748999,6.667703 7.832299,6.667703 7.832299,6.988803 8.003098,6.988803 8.003098,6.667703 8.085698,6.667703 8.085698,6.988803 8.256501,6.988803 8.256501,6.667703 8.339801,6.667703 8.339801,6.988803 8.5099,6.988803 8.5099,6.667703 8.5932,6.667703 8.5932,6.988803 8.763301,6.988803 8.763301,6.667703 8.846601,6.667703 8.846601,6.988803 9.0167,6.988803 9.0167,6.667703 9.099999,6.667703 9.099999,6.988803 9.270799,6.988803 9.270799,6.667703 9.3534,6.667703 9.3534,6.988803 9.524199,6.988803 9.524199,6.667703 9.607499,6.667703 9.607499,6.988803 9.7783,6.988803 9.7783,6.667703 9.860902,6.667703 9.860902,6.988803 10.031701,6.988803 10.031701,6.667703 10.115001,6.667703 10.115001,6.988803 10.2851,6.988803 10.2851,6.667703 10.3684,6.667703 10.3684,6.988803 10.538501,6.988803 10.538501,6.667703 10.6218,6.667703 10.6218,6.988803 10.7919,6.988803 10.7919,6.667703 10.875199,6.667703 10.875199,6.988803 11.045999,6.988802 11.045999,6.667703 11.128598,6.667703 11.128598,6.988803 11.299401,6.988803 11.299401,6.667703 11.382701,6.667703 11.382701,6.988803 11.5528,6.988803 11.5528,6.667703 11.6361,6.667703 11.6361,6.988803 11.806201,6.988803 11.806201,6.667703 11.889501,6.667703 11.889501,6.988803 12.0596,6.988803 12.0596,6.667703 12.1429,6.667703 12.1429,6.988803 12.463999,6.988803 12.463999,7.072102 12.1429,7.072102 12.1429,7.242202 12.463999,7.242202 12.463999,7.325502 12.1429,7.325502 12.1429,7.495601 12.463999,7.495601 12.463999,7.578901 12.1429,7.578901 12.1429,7.749001 12.463999,7.749001 12.463999,7.832301 12.1429,7.832301 12.1429,8.0031 12.463999,8.0031 12.463999,8.085701 12.1429,8.085701 12.1429,8.256503 12.463999,8.256503 12.463999,8.339802 12.1429,8.339802 12.1429,8.509903 12.463999,8.509903 12.463999,8.560969 12.464,8.593203 12.1429,8.593203 12.1429,8.763303 12.463999,8.763303 12.463999,8.846602 12.1429,8.846602 12.1429,9.016702 12.463999,9.016702 12.463999,9.100001 12.1429,9.100001 12.1429,9.270802 12.463999,9.270802 12.463999,9.353401 12.1429,9.353401 12.1429,9.524201 12.463999,9.524201 12.463999,9.607501 12.1429,9.607501 12.1429,9.778303 12.463999,9.778303 12.463999,9.860903 12.1429,9.860903 12.1429,10.031703 12.463999,10.031703 12.463999,10.115003 12.1429,10.115003 12.1429,10.285102 12.463999,10.285102 12.463999,10.368402 12.1429,10.368402 12.1429,10.538502 12.463999,10.538502 12.463999,10.621801 12.1429,10.621801 12.1429,10.791902 12.463999,10.791902 12.463999,10.875201 12.1429,10.875201 12.1429,11.046 12.463999,11.046 12.463999,11.128601 12.1429,11.128601 12.1429,11.299403 12.463999,11.299403 12.463999,11.382703 12.1429,11.382703 12.1429,11.552803 12.463999,11.552803 12.463999,11.636103 12.1429,11.636103 12.1429,11.806202 12.463999,11.806202 12.463999,11.889502 12.1429,11.889502 12.1429,12.059602 12.463999,12.059602 12.463999,12.142901 12.1429,12.142901 12.1429,12.464 12.0596,12.464 12.0596,12.142901 11.889501,12.142901 11.889501,12.464 11.806201,12.464 11.806201,12.142901 11.6361,12.142901 11.6361,12.464 11.5528,12.464 11.5528,12.142901 11.382701,12.142901 11.382701,12.464 11.299401,12.464 11.299401,12.142901 11.128598,12.142901 11.128598,12.464 11.045999,12.464 11.045999,12.142901 10.875199,12.142901 10.875199,12.464 10.7919,12.464 10.7919,12.142901 10.6218,12.142901 10.6218,12.464 10.538501,12.464 10.538501,12.142901 10.3684,12.142901 10.3684,12.464 10.2851,12.464 10.2851,12.142901 10.115001,12.142901 10.115001,12.464 10.031701,12.464 10.031701,12.142901 9.860902,12.142901 9.860902,12.464 9.7783,12.464 9.7783,12.142901 9.607499,12.142901 9.607499,12.464 9.524199,12.464 9.524199,12.142901 9.3534,12.142901 9.3534,12.464 9.270799,12.464 9.270799,12.142901 9.099999,12.142901 9.099999,12.464 9.0167,12.464 9.0167,12.1429 8.846601,12.142902 8.846601,12.464 8.763301,12.464 8.763301,12.142901 8.5932,12.142901 8.5932,12.464 8.5099,12.464 8.5099,12.142901 8.339801,12.142901 8.339801,12.464 8.256501,12.464 8.256501,12.142901 8.085698,12.142901 8.085698,12.464 8.003098,12.464 8.003098,12.142901 7.832299,12.142901 7.832299,12.464 7.748999,12.464 7.748999,12.142901 7.5789,12.142901 7.5789,12.464 7.4956,12.464 7.4956,12.142901 7.325499,12.142901 7.325499,12.464 7.2422,12.464 7.2422,12.142901 7.0721,12.142901 7.0721,12.464 6.988801,12.464 6.988801,12.142901 6.667701,12.142901 6.667701,12.059602 6.988801,12.059602 6.988801,11.889502 6.667701,11.889502 6.667701,11.806202 6.988801,11.806202 6.988801,11.636103 6.667701,11.636103 6.667701,11.552803 6.988801,11.552803 6.988801,11.382703 6.667701,11.382703 6.667701,11.299403 6.988801,11.299403 6.988801,11.128601 6.667701,11.128601 6.667701,11.046 6.988801,11.046 6.988801,10.875201 6.667701,10.875201 6.667701,10.791902 6.988801,10.791902 6.988801,10.621801 6.667701,10.621801 6.667701,10.538502 6.988801,10.538502 6.988801,10.368402 6.667701,10.368402 6.667701,10.285102 6.988801,10.285102 6.988801,10.115003 6.667701,10.115003 6.667701,10.031703 6.988801,10.031703 6.988801,9.860903 6.667701,9.860903 6.667701,9.778303 6.988801,9.778303 6.988801,9.607501 6.667701,9.607501 6.667701,9.524201 6.988801,9.524201 6.988801,9.353401 6.667701,9.353401 6.667701,9.270802 6.988801,9.270802 6.988801,9.100001 6.667701,9.100001 6.667701,9.016702 6.988801,9.016702 6.988801,8.846602 6.667701,8.846602 6.667701,8.763303 6.988801,8.763303 6.988801,8.593203 6.667701,8.593203 6.667701,8.509903 6.988801,8.509903 6.988801,8.339802 6.667701,8.339802 6.667701,8.256503 6.988801,8.256503 6.988801,8.085701 6.667701,8.085701 6.667701,8.0031 6.988801,8.0031 6.988801,7.832301 6.667701,7.832301 6.667701,7.749001 6.988801,7.749001 6.988801,7.578901 6.667701,7.578901 6.667701,7.495601 6.988801,7.495601 6.988801,7.325502 6.667701,7.325502 6.667701,7.242202 6.988801,7.242202 6.988801,7.072102 6.667701,7.072102 6.667701,6.988803 6.988801,6.988803 6.988801,6.667703 7.0721,6.667703" style="fill: white" />
</svg>
