<svg width="19.131698" height="19.131699">
<polygon type="contour" points="9.711101,10.555986 9.689355,10.556929 9.565967,10.559129 9.486144,10.556693 9.4206,10.555986 9.4206,10.260394 9.711101,10.260394" style="fill: white" /><polygon type="contour" points="9.645556,8.575011 9.711101,8.575719 9.711101,8.871034 9.4206,8.871034 9.4206,8.575719 9.442242,8.574776 9.565501,8.572573" style="fill: white" /><polygon type="contour" points="8.871008,9.051342 8.871217,9.110047 8.871172,9.110047 8.871229,9.198663 8.871069,9.273909 8.742454,9.273909 8.74285,9.198663 8.742647,9.147233 8.74284,9.0917 8.742397,9.017565 8.871008,9.017565" style="fill: white" /><polygon type="contour" points="8.775601,8.573275 8.85938,8.575677 8.864512,8.576257 8.87074,8.576196 8.870895,8.579921 8.870879,8.580335 8.870891,8.585041 8.870891,8.591585 8.870869,8.625177 8.870887,8.654942 8.870581,8.870583 8.755609,8.870583 8.575651,8.870476 8.574931,8.826613 8.56723,8.567232" style="fill: white" /><polygon type="contour" points="9.091699,8.742842 9.147229,8.74265 9.19866,8.742854 9.273907,8.742456 9.273907,8.871072 9.19866,8.871231 9.110044,8.871174 9.110044,8.871219 9.051341,8.871011 9.017563,8.871011 9.017563,8.742399" style="fill: white" /><polygon type="contour" points="9.274321,9.091489 9.274321,9.179823 9.273907,9.239057 9.273907,9.273909 9.19866,9.274323 9.110048,9.274323 9.051457,9.274321 9.017312,9.274321 9.017508,9.198662 9.018152,9.11005 9.017645,9.110047 9.017563,9.051342 9.017563,9.017565 9.091699,9.017647 9.110044,9.017647 9.110044,9.018154 9.198659,9.01751 9.274319,9.017314" style="fill: white" /><polygon type="contour" points="9.711101,9.711102 9.4206,9.711102 9.4206,9.420602 9.711101,9.420602" style="fill: white" /><polygon type="contour" points="9.711101,9.273909 9.4206,9.273909 9.4206,9.017314 9.711101,9.017314" style="fill: white" /><polygon type="contour" points="9.93304,9.01751 10.021652,9.018154 10.021656,9.017647 10.080358,9.017565 10.114136,9.017565 10.114055,9.091701 10.114055,9.179813 10.114053,9.198663 10.115005,9.273909 10.040073,9.274323 9.933039,9.274323 9.917001,9.273909 9.857794,9.273909 9.857378,9.198662 9.857378,9.091489 9.857794,9.016438" style="fill: white" /><polygon type="contour" points="10.114136,8.871011 10.080357,8.871011 10.021656,8.871219 10.021656,8.871174 9.933039,8.871231 9.857794,8.871072 9.857794,8.742456 9.933039,8.742854 9.98447,8.74265 10.040001,8.742843 10.114136,8.742399" style="fill: white" /><polygon type="contour" points="10.55677,8.826613 10.55605,8.870476 10.376092,8.870583 10.261322,8.870376 10.260832,8.625178 10.260809,8.585042 10.260822,8.584351 10.260822,8.580335 10.260961,8.576196 10.267188,8.576257 10.272319,8.575677 10.356098,8.573275 10.56447,8.567232" style="fill: white" /><polygon type="contour" points="10.38886,9.0917 10.389052,9.147233 10.388849,9.198663 10.389247,9.273909 10.260372,9.273909 10.260328,9.198663 10.261037,9.110049 10.260479,9.110046 10.26069,9.051343 10.26069,9.017565 10.389303,9.017565" style="fill: white" /><polygon type="contour" points="10.558762,9.515849 10.559541,9.565735 10.558762,9.615394 10.559214,9.711102 10.260392,9.711102 10.260392,9.420602 10.559214,9.420602" style="fill: white" /><polygon type="contour" points="10.55605,10.261226 10.556769,10.305088 10.56447,10.564472 10.356097,10.558428 10.272319,10.556027 10.267188,10.555447 10.260961,10.555508 10.260806,10.551783 10.260821,10.551369 10.26081,10.546663 10.26081,10.540119 10.260832,10.506526 10.260812,10.476762 10.261118,10.26112 10.376092,10.26112" style="fill: white" /><polygon type="contour" points="10.388849,9.93304 10.389052,9.984471 10.38886,10.040002 10.389303,10.114138 10.26069,10.114138 10.26069,10.080359 10.260479,10.021657 10.261037,10.021657 10.260328,9.933041 10.260372,9.857795 10.389247,9.857795" style="fill: white" /><polygon type="contour" points="10.114131,9.711102 9.857794,9.711102 9.857794,9.420602 10.114131,9.420602" style="fill: white" /><polygon type="contour" points="10.080242,9.857383 10.114131,9.857383 10.114053,9.93304 10.114055,9.95189 10.113958,9.95189 10.114136,10.080359 10.114136,10.114138 10.04,10.114058 9.951887,10.114058 9.933039,10.114055 9.857382,10.114133 9.857378,10.040073 9.857378,9.95188 9.857794,9.892646 9.857794,9.857795 9.93304,9.857379 10.021652,9.857379" style="fill: white" /><polygon type="contour" points="10.021653,10.26104 10.021655,10.260482 10.080358,10.260692 10.114136,10.260692 10.114136,10.389305 10.040001,10.388861 9.98447,10.389053 9.933039,10.38885 9.857794,10.389248 9.857794,10.260373 9.93304,10.260331" style="fill: white" /><polygon type="contour" points="9.711101,10.114133 9.4206,10.114133 9.4206,9.857795 9.711101,9.857795" style="fill: white" /><polygon type="contour" points="9.273907,10.260373 9.273907,10.389248 9.19866,10.38885 9.147229,10.389053 9.091699,10.388861 9.017563,10.389305 9.017563,10.260692 9.051341,10.260692 9.110044,10.260482 9.110044,10.26104 9.198659,10.260331" style="fill: white" /><polygon type="contour" points="9.2147,9.857795 9.273907,9.857795 9.274321,9.93304 9.274321,10.040074 9.274319,10.114133 9.19866,10.114055 9.179812,10.114058 9.179812,10.113962 9.051341,10.114138 9.017563,10.114138 9.017645,10.040001 9.017645,9.951889 9.017648,9.933041 9.016695,9.857795 9.091626,9.857379 9.198659,9.857379" style="fill: white" /><polygon type="contour" points="9.273907,9.711102 9.017569,9.711102 9.017569,9.527142 9.017312,9.420602 9.273907,9.420602" style="fill: white" /><polygon type="contour" points="8.871033,9.597951 8.871306,9.711102 8.572487,9.711102 8.572938,9.615855 8.572158,9.565967 8.572938,9.516309 8.572487,9.420602 8.871033,9.420602" style="fill: white" /><polygon type="contour" points="8.871369,9.933041 8.870654,10.021654 8.871217,10.021656 8.871008,10.080359 8.871008,10.114138 8.742397,10.114138 8.74284,10.040002 8.742647,9.984471 8.74285,9.93304 8.742454,9.857795 8.871328,9.857795" style="fill: white" /><polygon type="contour" points="8.870375,10.261326 8.870869,10.506526 8.870891,10.546662 8.870879,10.547353 8.870879,10.551369 8.87074,10.555508 8.864512,10.555447 8.85938,10.556028 8.775602,10.558428 8.56723,10.564472 8.574931,10.305088 8.575651,10.261226 8.755609,10.26112" style="fill: white" />
</svg>
