<svg width="19.131698" height="19.131699">
<polygon type="contour" points="17.905392,15.233949 17.9054,15.285347 17.905384,15.412686 17.972086,15.412686 17.981681,15.412728 17.982093,15.412736 18.00066,15.412763 18.00066,15.468643 18.000009,15.745311 17.984746,15.745257 17.968533,15.745326 17.956567,15.745241 17.951528,15.745334 17.915134,15.745483 17.892966,15.745532 17.809881,15.745588 17.733107,15.745588 17.667326,15.745491 17.667304,15.202856 17.66731,15.105914 17.80941,15.105914 17.905332,15.103071" style="fill: white" /><polygon type="contour" points="18.00001,17.66681 17.999978,17.698944 18.00062,17.986821 18.00062,18.000624 17.940699,18.000685 17.940343,18.000624 17.666786,17.999989 17.666866,17.984748 17.666866,17.969428 17.666844,17.96891 17.666853,17.957208 17.666862,17.952223 17.667028,17.917724 17.667088,17.897033 17.667394,17.810197 17.667394,17.739319 17.667396,17.667394 17.810195,17.667394 17.897032,17.667087 17.917721,17.66703 17.952221,17.666864 17.957206,17.666855 17.968907,17.666846 17.984746,17.666868 17.98549,17.666804" style="fill: white" /><polygon type="contour" points="17.809906,16.636737 17.809748,16.713835 17.81018,16.832481 17.81019,16.84469 17.667396,16.84469 17.667396,16.842244 17.667385,16.832481 17.667376,16.713834 17.667372,16.636738 17.667276,16.535468 17.667266,16.512553 17.810064,16.512553" style="fill: white" /><polygon type="contour" points="16.84472,16.814961 16.844681,16.832482 16.844687,16.84469 16.842241,16.84469 16.83248,16.844684 16.814959,16.844722 16.512223,16.844722 16.512223,16.814962 16.512551,16.512553 16.636735,16.512343 16.81496,16.512224 16.84472,16.512224" style="fill: white" /><polygon type="contour" points="16.535466,17.667276 16.636736,17.667372 16.713833,17.667378 16.832479,17.667387 16.842242,17.667398 16.844688,17.667398 16.844688,17.810194 16.832479,17.810184 16.713833,17.809752 16.636736,17.80991 16.533204,17.81004 16.512551,17.810066 16.512551,17.667266" style="fill: white" /><polygon type="contour" points="15.745491,17.667327 15.745491,17.741239 15.745585,17.809886 15.745531,17.892969 15.745481,17.915136 15.745332,17.95153 15.745239,17.956569 15.745325,17.968536 15.745255,17.969427 15.745255,17.984747 15.745304,17.985492 15.74531,18.000012 15.468644,18.000662 15.412763,18.000662 15.412728,17.981683 15.412686,17.97209 15.412686,17.905385 15.313337,17.905449 15.300454,17.90513 15.110113,17.904994 15.10654,17.709656 15.107487,17.667272 15.214642,17.667248" style="fill: white" /><polygon type="contour" points="15.745764,16.537378 15.745606,16.636737 15.745449,16.713835 15.74521,16.832481 15.745195,16.842426 15.745194,16.84469 15.724825,16.844694 15.122827,16.844694 15.123032,16.834476 15.123125,16.832481 15.122051,16.713835 15.122668,16.636737 15.119639,16.512567 15.705813,16.512567 15.745764,16.512553" style="fill: white" /><polygon type="contour" points="15.745375,15.211725 15.745585,15.745588 15.203257,15.745563 15.108416,15.745478 15.112778,15.382586 15.10152,15.209085 15.109215,15.109218 15.555856,15.111693 15.745375,15.104521" style="fill: white" /><polygon type="contour" points="16.610191,15.122985 16.623429,15.122746 16.636735,15.122671 16.713833,15.122054 16.83248,15.123128 16.844692,15.122831 16.844692,15.724828 16.844688,15.745197 16.842424,15.745198 16.832479,15.745213 16.713832,15.745452 16.636736,15.745608 16.537377,15.745767 16.512551,15.745767 16.512862,15.153489 16.512862,15.120409" style="fill: white" /><polygon type="contour" points="18.00062,1.131081 18.00062,1.144882 17.999978,1.432758 18.00001,1.464894 17.984745,1.464836 17.969426,1.464836 17.968908,1.464858 17.957206,1.464848 17.952221,1.46484 17.917721,1.464673 17.897032,1.464615 17.810196,1.464308 17.667394,1.464308 17.667394,1.321507 17.667087,1.234669 17.667027,1.21398 17.666862,1.179481 17.666854,1.174495 17.666844,1.162793 17.666866,1.146955 17.666802,1.146212 17.666786,1.131714 17.940343,1.131079 17.940699,1.131018" style="fill: white" /><polygon type="contour" points="17.892966,3.386173 17.915134,3.38622 17.951527,3.38637 17.956567,3.386463 17.968534,3.386377 17.969426,3.386448 17.984745,3.386448 17.985489,3.386398 18.000009,3.386393 18.00066,3.66306 18.00066,3.71894 17.981682,3.718975 17.972085,3.719017 17.905382,3.719017 17.905542,3.818346 17.905498,3.831376 17.9051,4.021564 17.811623,4.012627 17.667326,4.025602 17.667326,3.386212 17.741238,3.386212 17.809881,3.386117" style="fill: white" /><polygon type="contour" points="17.81018,2.299217 17.809748,2.417869 17.809906,2.494965 17.810038,2.598496 17.810064,2.61915 17.667266,2.61915 17.667276,2.596234 17.667372,2.494965 17.667376,2.417868 17.667385,2.299218 17.667396,2.287011 17.810189,2.287011" style="fill: white" /><polygon type="contour" points="15.745194,2.287011 15.745195,2.289274 15.74521,2.299218 15.745449,2.417868 15.745605,2.494965 15.745764,2.594324 15.745764,2.61915 15.159017,2.61915 15.119639,2.619137 15.118871,2.597517 15.122668,2.494966 15.122052,2.417869 15.123125,2.299218 15.122828,2.287007 15.724825,2.287007" style="fill: white" /><polygon type="contour" points="15.74531,1.131693 15.745255,1.146955 15.745324,1.163168 15.745239,1.175134 15.745332,1.180173 15.745481,1.216566 15.745531,1.238735 15.745585,1.321817 15.745585,1.398592 15.745491,1.464374 15.486012,1.464308 15.107378,1.464635 15.11101,1.270899 15.110113,1.226711 15.300454,1.226574 15.313337,1.226254 15.412686,1.226316 15.412686,1.159613 15.412728,1.15002 15.412735,1.149608 15.412763,1.131041 15.468643,1.131041" style="fill: white" /><polygon type="contour" points="16.844688,1.464308 16.842242,1.464308 16.832479,1.464318 16.713832,1.464751 16.636736,1.464593 16.535466,1.464427 16.512551,1.464436 16.512551,1.321636 16.636735,1.321793 16.713833,1.32195 16.832479,1.321518 16.844688,1.321508" style="fill: white" /><polygon type="contour" points="16.83248,2.287016 16.844688,2.287011 16.84472,2.316738 16.84472,2.61948 16.81496,2.61948 16.636735,2.619359 16.537378,2.61915 16.512551,2.61915 16.51234,2.494965 16.512223,2.316737 16.512223,2.286979 16.81496,2.286979" style="fill: white" /><polygon type="contour" points="16.636736,3.386094 16.713832,3.38625 16.832479,3.38649 16.842424,3.386506 16.844688,3.386507 16.844692,3.406855 16.844692,4.008852 16.834474,4.008669 16.832479,4.008577 16.713833,4.00965 16.636735,4.009032 16.623428,4.008959 16.610192,4.008717 16.531054,4.011917 16.512862,4.011294 16.512551,3.425376 16.512551,3.385936" style="fill: white" /><polygon type="contour" points="15.745375,3.919978 15.745375,4.027182 15.209083,4.030182 15.109215,4.022485 15.112778,3.749118 15.108416,3.386226 15.203258,3.386141 15.745585,3.386117" style="fill: white" /><polygon type="contour" points="3.92844,3.386141 4.023284,3.386226 4.018922,3.749117 4.03018,3.922618 4.022483,4.022486 3.575842,4.020011 3.386325,4.027182 3.386325,3.919978 3.386115,3.386117" style="fill: white" /><polygon type="contour" points="4.008667,2.297224 4.008576,2.299218 4.009648,2.417869 4.009032,2.494965 4.012062,2.619137 3.425884,2.619137 3.385935,2.61915 3.385935,2.594324 3.386093,2.494965 3.386249,2.417869 3.386489,2.299218 3.386504,2.289274 3.386506,2.287011 3.406853,2.287007 4.008851,2.287007" style="fill: white" /><polygon type="contour" points="3.718974,1.150019 3.719015,1.159614 3.719015,1.226316 3.846355,1.226301 3.897751,1.22631 4.028632,1.226368 4.016903,1.384664 4.024212,1.464428 3.917057,1.464452 3.38621,1.464374 3.38621,1.390463 3.386115,1.321816 3.38617,1.238735 3.386219,1.216567 3.386369,1.180173 3.386462,1.175134 3.386376,1.163167 3.386446,1.162276 3.386446,1.146956 3.386396,1.146213 3.386392,1.131693 3.663058,1.131041 3.718938,1.131041" style="fill: white" /><polygon type="contour" points="1.191356,1.131079 1.464914,1.131714 1.464834,1.146955 1.464834,1.162277 1.464856,1.162793 1.464845,1.174495 1.464839,1.17948 1.46467,1.213981 1.464613,1.234669 1.464306,1.321507 1.464306,1.464308 1.321506,1.464308 1.234668,1.464615 1.21398,1.464672 1.179478,1.46484 1.174493,1.464848 1.162791,1.464858 1.146953,1.464836 1.14621,1.464899 1.131691,1.464894 1.131723,1.432759 1.131079,1.144881 1.131079,1.131081 1.191,1.131018" style="fill: white" /><polygon type="contour" points="2.299216,1.321518 2.417867,1.32195 2.494964,1.321793 2.598493,1.321663 2.619148,1.321637 2.619148,1.464436 2.596232,1.464427 2.494963,1.464593 2.417866,1.464751 2.299216,1.464318 2.289453,1.464308 2.287009,1.464308 2.287009,1.321508" style="fill: white" /><polygon type="contour" points="2.619479,2.316737 2.619148,2.61915 2.494964,2.619359 2.316736,2.61948 2.286976,2.61948 2.286976,2.316738 2.287014,2.299217 2.287009,2.287011 2.289454,2.287011 2.299215,2.287016 2.316735,2.286979 2.619479,2.286979" style="fill: white" /><polygon type="contour" points="1.464306,2.289457 1.464316,2.299217 1.464749,2.417869 1.464592,2.494965 1.464426,2.596234 1.464435,2.61915 1.321634,2.61915 1.321792,2.494965 1.321949,2.417869 1.321516,2.299218 1.321506,2.287011 1.464306,2.287011" style="fill: white" /><polygon type="contour" points="1.464373,3.386212 1.464373,3.781982 1.464375,4.025602 1.320075,4.012627 1.270899,4.020691 1.2266,4.021564 1.2262,3.831376 1.226157,3.818346 1.226315,3.719017 1.159611,3.719017 1.150019,3.718976 1.149605,3.718968 1.13104,3.71894 1.13104,3.663059 1.131691,3.386394 1.146954,3.386448 1.163166,3.386377 1.175133,3.386464 1.180172,3.386371 1.216565,3.38622 1.238733,3.386172 1.321815,3.386117 1.398589,3.386117" style="fill: white" /><polygon type="contour" points="2.618837,3.978212 2.618837,4.011294 2.521507,4.008717 2.508271,4.008959 2.494964,4.009032 2.417866,4.00965 2.299216,4.008577 2.287005,4.008852 2.287005,3.406855 2.287009,3.386507 2.289272,3.386506 2.299215,3.386491 2.417867,3.38625 2.494963,3.386094 2.594321,3.385937 2.619148,3.385937" style="fill: white" /><polygon type="contour" points="1.46439,15.105914 1.464394,15.202857 1.464373,15.745491 1.390461,15.745491 1.321816,15.745588 1.238732,15.745532 1.216565,15.745484 1.180172,15.745334 1.175133,15.745241 1.163166,15.745327 1.162275,15.745257 1.146953,15.745257 1.146211,15.745306 1.131691,15.745311 1.13104,15.468644 1.13104,15.412762 1.150019,15.412727 1.159611,15.412686 1.226315,15.412686 1.226299,15.285347 1.226309,15.233949 1.226366,15.103071 1.383053,15.103071" style="fill: white" /><polygon type="contour" points="2.618837,15.120409 2.619148,15.706326 2.619148,15.745767 2.494963,15.745609 2.417867,15.745452 2.299216,15.745213 2.289271,15.745198 2.287009,15.745196 2.287005,15.724828 2.287005,15.122831 2.297222,15.123035 2.299216,15.123128 2.417866,15.122054 2.494964,15.122671 2.50827,15.122746 2.521508,15.122984 2.600644,15.119785" style="fill: white" /><polygon type="contour" points="4.022484,15.109218 4.018922,15.382586 4.023284,15.745478 3.928441,15.745563 3.386115,15.745588 3.386325,15.211725 3.386325,15.104521 3.922616,15.101523" style="fill: white" /><polygon type="contour" points="4.012062,16.512567 4.01283,16.534184 4.009031,16.636738 4.009648,16.713835 4.008575,16.832481 4.00885,16.844694 3.406853,16.844694 3.386506,16.844689 3.386504,16.842426 3.386489,16.832481 3.386249,16.713834 3.386093,16.636738 3.385935,16.537378 3.385935,16.512553 3.972682,16.512553" style="fill: white" /><polygon type="contour" points="4.024212,17.667272 4.016903,17.747038 4.028631,17.905336 3.897752,17.905393 3.846354,17.905402 3.719015,17.905386 3.719015,17.972089 3.718974,17.981684 3.718966,17.982095 3.718938,18.000662 3.663057,18.000662 3.386391,18.000012 3.386445,17.984748 3.386376,17.968535 3.386462,17.956569 3.386369,17.95153 3.386219,17.915136 3.386171,17.89297 3.386115,17.809885 3.386115,17.733112 3.38621,17.667328 3.917057,17.667248" style="fill: white" /><polygon type="contour" points="2.619148,17.810066 2.494963,17.809909 2.417867,17.809752 2.299216,17.810183 2.287009,17.810193 2.287009,17.667398 2.289453,17.667398 2.299216,17.667387 2.417866,17.667378 2.494963,17.667372 2.596232,17.667276 2.619148,17.667266" style="fill: white" /><polygon type="contour" points="2.494964,16.512343 2.594321,16.512553 2.619148,16.512553 2.619357,16.636737 2.619479,16.814962 2.619479,16.844722 2.316736,16.844722 2.299215,16.844684 2.287009,16.84469 2.286976,16.814961 2.286976,16.512224 2.316735,16.512224" style="fill: white" /><polygon type="contour" points="1.464426,16.535468 1.464592,16.636738 1.464749,16.713834 1.464316,16.832481 1.464305,16.84469 1.321506,16.84469 1.321516,16.832481 1.321949,16.713834 1.321792,16.636737 1.32166,16.533206 1.321635,16.512553 1.464435,16.512553" style="fill: white" /><polygon type="contour" points="1.146954,17.666868 1.162275,17.666868 1.162791,17.666846 1.174493,17.666856 1.179478,17.666864 1.21398,17.66703 1.234668,17.667087 1.321506,17.667394 1.464306,17.667394 1.464306,17.810198 1.464613,17.897034 1.46467,17.917723 1.464839,17.952224 1.464845,17.957207 1.464856,17.968909 1.464834,17.984748 1.464896,17.985491 1.464913,17.99999 1.191356,18.000624 1.191,18.000686 1.131079,18.000624 1.131079,17.986822 1.131723,17.698944 1.131691,17.66681" style="fill: white" />
</svg>
