<svg width="19.131698" height="19.131699">
<polygon type="contour" points="10.871186,10.618583 10.871818,10.87182 10.785162,10.86937 10.597249,10.871804 10.595761,10.823048 10.595761,10.776243 10.595538,10.771916 10.594764,10.641333 10.594764,10.594766 10.868764,10.594766" style="fill: white" /><polygon type="contour" points="10.869826,9.434261 10.870539,9.463181 10.871169,9.496916 10.872244,9.518262 10.872794,9.566201 10.872244,9.613945 10.871169,9.635234 10.87054,9.66888 10.869825,9.697729 10.868967,9.813145 10.770528,9.813145 10.639565,9.813012 10.594959,9.813012 10.59351,9.628499 10.59351,9.318692 10.639565,9.318692 10.770528,9.318559 10.868967,9.318559" style="fill: white" /><polygon type="contour" points="10.870112,8.322591 10.868656,8.395542 10.868201,8.424473 10.868566,8.536938 10.749283,8.536938 10.641331,8.536939 10.594764,8.536939 10.595538,8.423026 10.595538,8.359786 10.59576,8.308655 10.596041,8.303523 10.597249,8.2599 10.785161,8.262334 10.871818,8.259883" style="fill: white" /><polygon type="contour" points="10.403115,8.490767 10.403115,8.537336 10.339205,8.537465 10.306247,8.537465 10.306247,8.467365 10.306306,8.430535 10.339206,8.430586 10.402638,8.430421" style="fill: white" /><polygon type="contour" points="10.360677,8.728667 10.402638,8.728667 10.403309,8.792496 10.403309,8.825455 10.339206,8.825455 10.306306,8.825397 10.306306,8.759117 10.306247,8.728394" style="fill: white" /><polygon type="contour" points="10.701281,8.728667 10.701114,8.792496 10.701165,8.825397 10.628686,8.825397 10.594237,8.825455 10.594367,8.770316 10.594367,8.728586 10.640934,8.728586" style="fill: white" /><polygon type="contour" points="10.701165,9.025133 10.701229,9.061432 10.701552,9.130283 10.592967,9.130283 10.593137,9.061433 10.594237,9.02511 10.664336,9.02511" style="fill: white" /><polygon type="contour" points="10.403352,9.061432 10.402698,9.129934 10.339631,9.130196 10.306294,9.130196 10.306294,9.061432 10.306306,9.025134 10.372584,9.025134 10.403309,9.02511" style="fill: white" /><polygon type="contour" points="10.40456,9.503614 10.40456,9.812602 10.340839,9.812181 10.306294,9.812181 10.306294,9.319523 10.363139,9.319102 10.403111,9.319102" style="fill: white" /><polygon type="contour" points="10.070269,9.319523 10.106506,9.319523 10.106506,9.812181 10.04822,9.81247 10.001419,9.81247 10.001419,9.319234" style="fill: white" /><polygon type="contour" points="10.106569,9.096658 10.106506,9.130196 10.048221,9.130283 10.001419,9.130283 10.001507,9.061433 10.001507,9.025196 10.070268,9.025196 10.106569,9.025134" style="fill: white" /><polygon type="contour" points="9.812469,9.083481 9.812469,9.130283 9.473567,9.130078 9.319064,9.130078 9.319256,9.089641 9.319521,9.025196 9.812179,9.025196" style="fill: white" /><polygon type="contour" points="9.812479,8.765844 9.812179,8.825408 9.319521,8.825408 9.319323,8.770984 9.319073,8.72834 9.812626,8.72834" style="fill: white" /><polygon type="contour" points="10.070268,8.727142 10.106593,8.728394 10.106593,8.792496 10.106569,8.825397 10.035045,8.825397 10.001507,8.825408 10.001768,8.770984 10.001768,8.727074" style="fill: white" /><polygon type="contour" points="10.070268,8.430473 10.106569,8.430536 10.106569,8.503015 10.106593,8.537465 10.047878,8.537314 10.001419,8.537175 10.001419,8.430151" style="fill: white" /><polygon type="contour" points="9.566199,8.258921 9.63523,8.260533 9.668879,8.261162 9.697726,8.261876 9.759433,8.262634 9.813167,8.263034 9.813229,8.346533 9.813266,8.536805 9.39827,8.536471 9.318744,8.536471 9.318744,8.517245 9.318683,8.429825 9.318534,8.263034 9.372399,8.262634 9.434259,8.261876 9.463179,8.261161 9.496913,8.260534 9.533942,8.258847" style="fill: white" /><polygon type="contour" points="8.346538,8.262334 8.534451,8.2599 8.53594,8.308654 8.53594,8.35546 8.536162,8.359787 8.536936,8.49037 8.536936,8.536939 8.262932,8.536939 8.260511,8.513121 8.259881,8.259883" style="fill: white" /><polygon type="contour" points="8.792494,8.430587 8.825395,8.430536 8.825395,8.503014 8.825453,8.537465 8.770315,8.537336 8.728585,8.537336 8.728585,8.490767 8.728666,8.430421" style="fill: white" /><polygon type="contour" points="9.130281,8.537175 9.06143,8.537357 9.025107,8.537465 9.025107,8.467366 9.025131,8.430536 9.061431,8.430473 9.130281,8.430151" style="fill: white" /><polygon type="contour" points="9.130194,8.790863 9.130194,8.825408 9.061431,8.825408 9.025131,8.825397 9.025131,8.759118 9.025107,8.728394 9.061431,8.727142 9.129932,8.727074" style="fill: white" /><polygon type="contour" points="9.130194,9.025196 9.130194,9.061433 9.129932,9.070993 9.130281,9.130283 9.061431,9.130196 9.025193,9.130196 9.025193,9.061432 9.025131,9.025134 9.096656,9.025134" style="fill: white" /><polygon type="contour" points="8.492134,9.318692 8.538189,9.318692 8.538189,9.813012 8.492134,9.813012 8.361171,9.813145 8.262733,9.813145 8.261874,9.697443 8.261158,9.66852 8.260532,9.634788 8.259456,9.613441 8.258906,9.565502 8.259456,9.517758 8.260532,9.496469 8.261158,9.462822 8.261874,9.433974 8.262732,9.318559 8.361171,9.318559" style="fill: white" /><polygon type="contour" points="8.537312,9.083824 8.538732,9.130283 8.430149,9.130283 8.430471,9.061433 8.430535,9.025134 8.503014,9.025134 8.537463,9.02511" style="fill: white" /><polygon type="contour" points="8.537463,8.792496 8.537463,8.825455 8.467363,8.825455 8.430535,8.825397 8.430586,8.792496 8.43042,8.728667 8.490766,8.728586 8.537334,8.728586" style="fill: white" /><polygon type="contour" points="8.825453,8.792496 8.825395,8.825397 8.759116,8.825397 8.728392,8.825455 8.728666,8.770626 8.728666,8.728667 8.792494,8.728394 8.825453,8.728394" style="fill: white" /><polygon type="contour" points="8.825395,9.025134 8.825395,9.096657 8.825406,9.130196 8.792066,9.130196 8.728608,9.129934 8.728348,9.061432 8.728392,9.02511 8.792495,9.02511" style="fill: white" /><polygon type="contour" points="8.792067,9.319523 8.825406,9.319523 8.825406,9.812181 8.770984,9.812377 8.728608,9.812377 8.728608,9.319325" style="fill: white" /><polygon type="contour" points="9.129932,10.360323 9.129932,10.402699 9.061431,10.403354 9.025107,10.403311 9.025107,10.339206 9.025131,10.306307 9.096655,10.306307 9.130194,10.306296" style="fill: white" /><polygon type="contour" points="9.130281,10.701553 9.061431,10.701231 9.025131,10.701168 9.025131,10.628688 9.025107,10.594239 9.083821,10.59439 9.130281,10.592968" style="fill: white" /><polygon type="contour" points="8.825453,10.664339 8.825395,10.701168 8.792494,10.701117 8.728666,10.701283 8.728666,10.594275 8.792494,10.594239 8.825453,10.594239" style="fill: white" /><polygon type="contour" points="8.536162,10.708678 8.536162,10.771916 8.53594,10.823049 8.535658,10.828181 8.534451,10.871804 8.346537,10.86937 8.259882,10.87182 8.261588,10.809112 8.263044,10.736161 8.263498,10.707231 8.263131,10.594766 8.536936,10.594766" style="fill: white" /><polygon type="contour" points="8.538562,10.070271 8.537463,10.106594 8.467364,10.106594 8.430535,10.106571 8.430471,10.070271 8.430149,10.001421 8.538732,10.001421" style="fill: white" /><polygon type="contour" points="8.537427,10.360679 8.537427,10.40264 8.43042,10.40264 8.430586,10.339207 8.430535,10.306307 8.503013,10.306307 8.537463,10.306249" style="fill: white" /><polygon type="contour" points="8.825395,10.306307 8.825395,10.372586 8.825453,10.403311 8.770625,10.40264 8.728666,10.40264 8.728392,10.339207 8.728392,10.306249 8.792494,10.306249" style="fill: white" /><polygon type="contour" points="8.825406,10.07027 8.825395,10.106571 8.759116,10.106571 8.728392,10.106594 8.728348,10.070271 8.728608,10.00177 8.792066,10.001509 8.825406,10.001509" style="fill: white" /><polygon type="contour" points="9.130281,9.81247 9.06143,9.812181 9.025193,9.812181 9.025193,9.319523 9.083479,9.319234 9.130281,9.319234" style="fill: white" /><polygon type="contour" points="9.130194,10.07027 9.130194,10.106507 9.06143,10.106507 9.025131,10.106571 9.025131,10.035046 9.025193,10.001509 9.083479,10.001421 9.130281,10.001421" style="fill: white" /><polygon type="contour" points="9.658132,10.001627 9.812636,10.001627 9.812444,10.042062 9.812179,10.106507 9.319521,10.106507 9.319232,10.048221 9.319232,10.001421" style="fill: white" /><polygon type="contour" points="9.812991,9.812993 9.318709,9.812993 9.318709,9.318711 9.812991,9.318711" style="fill: white" /><polygon type="contour" points="10.070268,10.001509 10.106506,10.001509 10.106506,10.07027 10.106569,10.106571 10.035044,10.106571 10.001507,10.106507 10.001507,10.07027 10.001768,10.060315 10.001419,10.001421" style="fill: white" /><polygon type="contour" points="10.404234,10.00177 10.404561,10.070271 10.403309,10.106594 10.339206,10.106594 10.306306,10.106571 10.306306,10.035047 10.306294,10.001509 10.340839,10.001509" style="fill: white" /><polygon type="contour" points="10.701229,10.070271 10.701165,10.106571 10.628686,10.106571 10.594237,10.106594 10.594388,10.047879 10.594528,10.001421 10.701552,10.001421" style="fill: white" /><polygon type="contour" points="10.701165,10.306307 10.701114,10.339207 10.701281,10.40264 10.594273,10.40264 10.594237,10.339207 10.594237,10.306249 10.664336,10.306249" style="fill: white" /><polygon type="contour" points="10.402638,10.360679 10.402638,10.40264 10.339206,10.403311 10.306247,10.403311 10.306247,10.339206 10.306306,10.306307 10.372584,10.306307 10.403309,10.306249" style="fill: white" /><polygon type="contour" points="10.360677,10.594275 10.402638,10.594275 10.402638,10.701283 10.339206,10.701117 10.306306,10.701168 10.306306,10.628689 10.306247,10.594239" style="fill: white" /><polygon type="contour" points="10.070268,10.593139 10.106593,10.594239 10.106593,10.664339 10.106569,10.701168 10.070268,10.701231 10.001419,10.701553 10.001419,10.592967" style="fill: white" /><polygon type="contour" points="10.106569,10.306307 10.106569,10.372586 10.106593,10.403311 10.070268,10.403354 10.001768,10.402699 10.001507,10.339632 10.001507,10.306296 10.070268,10.306296" style="fill: white" /><polygon type="contour" points="9.812375,10.360324 9.812375,10.402699 9.477155,10.403155 9.319073,10.403155 9.319221,10.365859 9.319521,10.306296 9.812179,10.306296" style="fill: white" /><polygon type="contour" points="9.813104,10.607323 9.813167,10.647102 9.813167,10.868668 9.7593,10.869067 9.69744,10.869828 9.668519,10.870542 9.634786,10.87117 9.597757,10.872858 9.5655,10.872785 9.496469,10.871171 9.462819,10.870542 9.433973,10.869828 9.372267,10.869068 9.318534,10.868668 9.318534,10.647101 9.318612,10.595034 9.813087,10.595034" style="fill: white" />
</svg>
