<svg width="19.131698" height="19.131699">
<polygon type="contour" points="10.452234,8.869011 10.451906,8.904631 10.451677,8.984262 10.347388,8.984262 10.179728,8.984331 10.147373,8.984331 10.14728,8.865704 10.14728,8.781691 10.147472,8.727405 10.147499,8.723015 10.148923,8.679384 10.198913,8.678167 10.455887,8.675815" style="fill: white" /><polygon type="contour" points="10.284812,9.195392 10.284809,9.201997 10.284808,9.208519 10.284804,9.285544 10.146905,9.285544 10.146907,9.20852 10.146912,9.195391 10.146932,9.119199 10.284831,9.119199" style="fill: white" /><polygon type="contour" points="10.453969,9.481328 10.45325,9.56597 10.453481,9.614201 10.454262,9.711102 10.146837,9.711102 10.146837,9.420602 10.454262,9.420602" style="fill: white" /><polygon type="contour" points="9.711101,10.451659 9.629507,10.45158 9.617868,10.451831 9.5655,10.453203 9.501801,10.45158 9.4206,10.451659 9.4206,10.146839 9.711101,10.146839" style="fill: white" /><polygon type="contour" points="9.711101,10.012505 9.4206,10.012505 9.4206,9.846161 9.711101,9.846161" style="fill: white" /><polygon type="contour" points="9.923177,10.146896 9.936312,10.146914 10.012503,10.146933 10.012503,10.284831 9.936311,10.284814 9.929706,10.284813 9.923183,10.284809 9.846159,10.284805 9.843971,10.179192 9.843971,10.146839" style="fill: white" /><polygon type="contour" points="10.451677,10.147443 10.451906,10.227073 10.452233,10.262692 10.455887,10.455889 10.198913,10.453536 10.148923,10.45232 10.147473,10.404299 10.147473,10.357323 10.14728,10.350012 10.147373,10.179728 10.147373,10.147374 10.218815,10.147374" style="fill: white" /><polygon type="contour" points="10.284808,9.923185 10.28481,9.929706 10.284812,9.936311 10.284831,10.012505 10.146932,10.012505 10.146912,9.936312 10.146907,9.923184 10.146905,9.846161 10.284804,9.846161" style="fill: white" /><polygon type="contour" points="9.993014,9.846161 10.013465,9.846161 10.012503,9.915993 10.0127,9.936312 10.012503,9.992286 10.012503,10.012505 9.936312,10.012702 9.923183,10.012885 9.846159,10.013467 9.846027,9.936328 9.846027,9.923184 9.846159,9.866771 9.846159,9.846161 9.923184,9.846029 9.936329,9.846029" style="fill: white" /><polygon type="contour" points="10.012503,9.711102 9.846159,9.711102 9.846159,9.420602 10.012503,9.420602" style="fill: white" /><polygon type="contour" points="9.711101,9.711102 9.4206,9.711102 9.4206,9.420602 9.711101,9.420602" style="fill: white" /><polygon type="contour" points="9.711101,9.285544 9.4206,9.285544 9.4206,9.119199 9.711101,9.119199" style="fill: white" /><polygon type="contour" points="9.915992,9.119199 9.936312,9.119001 9.992283,9.119199 10.012503,9.119199 10.012701,9.195391 10.012883,9.20852 10.013465,9.285544 9.936328,9.285675 9.923183,9.285675 9.866768,9.285544 9.846159,9.285544 9.846027,9.20852 9.846027,9.195374 9.846158,9.118235" style="fill: white" /><polygon type="contour" points="10.012503,8.984771 9.936311,8.984788 9.923183,8.984794 9.846159,8.984798 9.846159,8.846899 9.923183,8.846894 9.929706,8.84689 9.936311,8.846889 10.012503,8.846872" style="fill: white" /><polygon type="contour" points="9.629898,8.680124 9.711101,8.680044 9.711101,8.984866 9.4206,8.984866 9.4206,8.680044 9.502194,8.680124 9.51383,8.679872 9.565976,8.678501" style="fill: white" /><polygon type="contour" points="8.932786,8.678167 8.982778,8.679384 8.984228,8.727404 8.984228,8.77438 8.984421,8.781691 8.984328,8.951976 8.984328,8.984331 8.912884,8.984331 8.680022,8.984262 8.679791,8.90463 8.679466,8.869011 8.675813,8.675815" style="fill: white" /><polygon type="contour" points="9.195389,8.846889 9.201994,8.84689 9.208517,8.846894 9.285542,8.846899 9.28773,8.952511 9.28773,8.984866 9.208523,8.984806 9.195389,8.984788 9.119197,8.984771 9.119197,8.846872" style="fill: white" /><polygon type="contour" points="9.28563,9.119199 9.28569,9.195391 9.285673,9.208519 9.285542,9.264933 9.285542,9.285544 9.208517,9.285675 9.195371,9.285675 9.138684,9.285544 9.118233,9.285544 9.119197,9.21571 9.118999,9.195391 9.119197,9.139416 9.119197,9.119199 9.195389,9.119001 9.2087,9.119001" style="fill: white" /><polygon type="contour" points="8.984786,9.195392 8.984791,9.20852 8.984796,9.285544 8.846897,9.285544 8.846893,9.208519 8.846891,9.201997 8.846888,9.195392 8.84687,9.119199 8.984769,9.119199" style="fill: white" /><polygon type="contour" points="8.984791,9.923184 8.984786,9.936311 8.984769,10.012505 8.84687,10.012505 8.846888,9.936311 8.846891,9.929706 8.846893,9.923185 8.846897,9.846161 8.984796,9.846161" style="fill: white" /><polygon type="contour" points="8.984864,9.711102 8.677438,9.711102 8.677731,9.650374 8.67845,9.566202 8.678219,9.51797 8.677438,9.420602 8.984864,9.420602" style="fill: white" /><polygon type="contour" points="9.285542,9.711102 9.119197,9.711102 9.119197,9.420602 9.285542,9.420602" style="fill: white" /><polygon type="contour" points="9.208516,9.846029 9.264932,9.846161 9.285542,9.846161 9.285673,9.923185 9.285673,9.936329 9.285542,10.013467 9.215708,10.012505 9.195389,10.012703 9.139414,10.012505 9.119197,10.012505 9.118999,9.936312 9.118999,9.923 9.119197,9.846072 9.195389,9.846012" style="fill: white" /><polygon type="contour" points="9.285542,10.284805 9.208517,10.284809 9.201994,10.284813 9.195389,10.284814 9.119197,10.284832 9.119197,10.146933 9.195389,10.146913 9.208517,10.146909 9.285542,10.146906" style="fill: white" /><polygon type="contour" points="8.984421,10.266 8.984421,10.350012 8.984228,10.404299 8.984202,10.408688 8.982778,10.45232 8.932786,10.453536 8.675813,10.455889 8.679466,10.262692 8.679791,10.227074 8.680022,10.147443 8.784311,10.147443 8.951972,10.147374 8.984328,10.147374" style="fill: white" />
</svg>
