<svg width="19.131698" height="19.131699">
<polygon type="contour" points="9.911488,10.314163 9.911488,10.348101 9.911316,10.498313 9.911415,10.498313 9.911415,10.531249 9.911488,10.609126 9.838858,10.609226 9.720106,10.609077 9.720106,10.775988 9.702274,10.776801 9.565501,10.776488 9.544281,10.775992 9.411595,10.775987 9.413734,10.609074 9.292841,10.609226 9.220212,10.609126 9.220212,10.571065 9.220371,10.411882 9.220285,10.411882 9.220285,10.382512 9.220212,10.314163 9.25609,10.314163 9.32401,10.314071 9.838858,10.314071" style="fill: white" /><polygon type="contour" points="10.498312,10.314655 10.498312,10.314372 10.531248,10.314372 10.609123,10.314163 10.609191,10.382511 10.60931,10.498774 10.705665,10.498601 10.754937,10.498582 10.776124,10.498582 10.77984,10.616211 10.780316,10.627722 10.783432,10.658383 10.783745,10.783748 10.565053,10.777563 10.532847,10.776288 10.516453,10.776075 10.498741,10.776297 10.49855,10.770687 10.49855,10.76647 10.498274,10.753809 10.498232,10.746086 10.498232,10.716492 10.49824,10.708161 10.49824,10.663024 10.498385,10.609312 10.382509,10.609193 10.314161,10.609126 10.314161,10.571066 10.314618,10.411882 10.31437,10.411882 10.31437,10.382511 10.314161,10.314163 10.348098,10.314163" style="fill: white" /><polygon type="contour" points="10.776508,8.613858 10.776124,8.633122 10.60931,8.633122 10.609191,8.749192 10.609123,8.817541 10.571063,8.817541 10.41188,8.817083 10.41188,8.817332 10.382509,8.817332 10.314161,8.817541 10.314161,8.783602 10.314653,8.633391 10.31437,8.633391 10.31437,8.600453 10.314161,8.522577 10.38251,8.522509 10.498385,8.522391 10.49824,8.468679 10.49824,8.423543 10.498232,8.385617 10.498274,8.377894 10.498519,8.366656 10.49855,8.361016 10.498741,8.355407 10.516453,8.355629 10.565052,8.354142 10.783745,8.347956" style="fill: white" /><polygon type="contour" points="10.498312,9.220388 10.498312,9.220288 10.531248,9.220288 10.609123,9.220214 10.609192,9.29284 10.609031,9.413732 10.776104,9.411615 10.776106,9.52884 10.776535,9.566202 10.776106,9.60341 10.776104,9.720089 10.662615,9.720089 10.609074,9.719247 10.609225,9.83886 10.609123,9.911491 10.571064,9.911491 10.41188,9.911329 10.41188,9.911417 10.382509,9.911417 10.314161,9.911491 10.314161,9.875611 10.314069,9.807691 10.314069,9.292843 10.314161,9.220214 10.348099,9.220214" style="fill: white" /><polygon type="contour" points="8.566647,8.354142 8.598853,8.355416 8.615247,8.355629 8.63296,8.355407 8.633151,8.361016 8.633151,8.365228 8.633426,8.377894 8.633469,8.385616 8.633469,8.415212 8.633461,8.423542 8.633461,8.468679 8.633315,8.522391 8.749191,8.52251 8.817539,8.522577 8.817539,8.560637 8.817083,8.719822 8.817331,8.719822 8.817331,8.749191 8.817539,8.817541 8.783601,8.817541 8.633389,8.817048 8.633389,8.817332 8.600453,8.817332 8.522575,8.817541 8.522508,8.749191 8.52239,8.632927 8.426034,8.633103 8.376762,8.633122 8.355576,8.633122 8.351859,8.515492 8.351383,8.503982 8.348267,8.473321 8.347955,8.347956" style="fill: white" /><polygon type="contour" points="9.566198,8.355216 9.587418,8.355712 9.720106,8.355716 9.720106,8.522626 9.838859,8.522478 9.911488,8.522577 9.911488,8.560637 9.911328,8.719822 9.911415,8.719822 9.911415,8.749191 9.911488,8.817541 9.875609,8.817541 9.807689,8.817633 9.292842,8.817633 9.220212,8.817541 9.220212,8.783602 9.220383,8.633391 9.220285,8.633391 9.220285,8.600454 9.220212,8.522576 9.292841,8.522478 9.411595,8.522626 9.411595,8.355716 9.429427,8.354902" style="fill: white" /><polygon type="contour" points="9.412461,9.220665 9.412461,9.22041 9.838858,9.22041 9.911488,9.220214 9.911488,9.256091 9.911029,9.412461 9.911289,9.412463 9.911289,9.83886 9.911488,9.911491 9.875609,9.911491 9.71924,9.911032 9.71924,9.911292 9.292842,9.911292 9.220212,9.911491 9.220212,9.875611 9.220665,9.719243 9.220409,9.719241 9.220409,9.292843 9.220212,9.220214 9.256089,9.220214" style="fill: white" /><polygon type="contour" points="8.719821,9.220375 8.719821,9.220288 8.749191,9.220288 8.817539,9.220214 8.817539,9.256092 8.817632,9.324013 8.817632,9.83886 8.817539,9.911491 8.7836,9.911491 8.633389,9.911316 8.633389,9.911417 8.600452,9.911417 8.522575,9.911491 8.522509,9.838374 8.522668,9.717972 8.355597,9.720089 8.355594,9.602863 8.355165,9.565501 8.355594,9.528293 8.355597,9.411615 8.469085,9.411615 8.522626,9.412456 8.522475,9.292844 8.522574,9.220214 8.560633,9.220214" style="fill: white" /><polygon type="contour" points="8.719821,10.31462 8.719821,10.314372 8.749191,10.314372 8.817539,10.314163 8.817539,10.348101 8.817049,10.498313 8.817331,10.498313 8.817331,10.53125 8.817539,10.609126 8.749191,10.609193 8.633315,10.609312 8.633461,10.663024 8.633461,10.708161 8.633469,10.746087 8.633426,10.753809 8.633182,10.765047 8.633151,10.770687 8.63296,10.776297 8.615247,10.776075 8.566646,10.777563 8.347955,10.783748 8.355191,10.517845 8.355575,10.498582 8.376762,10.498582 8.426034,10.498601 8.52239,10.498774 8.522508,10.382512 8.522575,10.314163 8.560634,10.314163" style="fill: white" />
</svg>
