<svg width="19.131698" height="19.131699">
<polygon type="contour" points="8.668799,14.860987 8.643149,14.860986 8.5862,14.860986 8.5862,14.527803 8.668799,14.527803" style="fill: white" /><polygon type="contour" points="10.545499,14.860986 10.488549,14.860986 10.484803,14.860896 10.462899,14.860896 10.462899,14.527803 10.545499,14.527803" style="fill: white" /><polygon type="contour" points="11.813506,12.66867 11.8307,12.668758 11.944348,12.668758 11.974218,12.669007 12.030122,12.668572 12.046409,12.668547 12.1107,12.668575 12.1107,12.808601 12.110697,12.808874 12.110103,12.879625 12.110103,12.9311 12.1107,13.003816 12.1107,13.048702 12.009833,13.048701 11.813506,13.048701 11.713101,13.048702 11.713101,12.891901 11.713099,12.806789 11.713101,12.710129 11.713101,12.668157" style="fill: white" /><polygon type="contour" points="10.545499,13.360903 10.462899,13.360903 10.462899,13.2776 10.545499,13.2776" style="fill: white" /><polygon type="contour" points="10.234,13.360903 9.836399,13.360903 9.836399,13.2776 10.234,13.2776" style="fill: white" /><polygon type="contour" points="10.233402,13.690207 10.233402,13.746602 10.233999,13.817535 10.233999,13.8698 10.234,13.942773 10.234,13.987137 10.132998,13.986701 9.954,13.986701 9.88103,13.987137 9.836399,13.987137 9.8364,13.887153 9.8364,13.829901 9.836402,13.758782 9.836402,13.707401 9.836399,13.634432 9.836399,13.589803 10.234,13.589803" style="fill: white" /><polygon type="contour" points="10.545499,13.987137 10.462899,13.987137 10.462899,13.589803 10.545499,13.589803" style="fill: white" /><polygon type="contour" points="10.545499,14.298903 10.462899,14.298903 10.462899,14.215603 10.545499,14.215603" style="fill: white" /><polygon type="contour" points="10.234,14.298903 9.836399,14.298903 9.836399,14.215603 10.234,14.215603" style="fill: white" /><polygon type="contour" points="10.234,14.645402 10.232797,14.64541 10.234,14.806672 10.234,14.860866 10.132998,14.860901 10.115393,14.860909 9.954074,14.860909 9.936805,14.860901 9.836399,14.860866 9.836402,14.727024 9.836402,14.645402 9.8364,14.645402 9.836399,14.572432 9.836399,14.527803 9.936806,14.5284 10.132997,14.5284 10.234,14.527803" style="fill: white" /><polygon type="contour" points="9.607499,14.860986 9.524199,14.860986 9.524199,14.527803 9.607499,14.527803" style="fill: white" /><polygon type="contour" points="9.2953,14.61461 9.2953,14.645403 9.295299,14.645403 9.295299,14.8608 9.2953,14.860833 9.295299,14.860866 9.194893,14.860902 9.184936,14.860905 9.133501,14.860927 9.109242,14.861014 9.0903,14.861085 9.016,14.860586 9.016,14.860908 8.998703,14.860902 8.8977,14.860866 8.898358,14.727025 8.898358,14.645406 8.8977,14.645402 8.8977,14.527803 8.998703,14.5284 9.055199,14.5284 9.12632,14.528401 9.194894,14.528401 9.295299,14.527803" style="fill: white" /><polygon type="contour" points="9.295299,14.298903 8.8977,14.298903 8.8977,14.215603 9.295299,14.215603" style="fill: white" /><polygon type="contour" points="9.607499,14.298903 9.524199,14.298903 9.524199,14.215603 9.607499,14.215603" style="fill: white" /><polygon type="contour" points="9.607499,13.987137 9.524199,13.987137 9.524199,13.589803 9.607499,13.589803" style="fill: white" /><polygon type="contour" points="9.607499,13.360903 9.524199,13.360903 9.524199,13.2776 9.607499,13.2776" style="fill: white" /><polygon type="contour" points="9.295299,13.360903 8.8977,13.360903 8.8977,13.2776 9.295299,13.2776" style="fill: white" /><polygon type="contour" points="9.295299,13.746602 9.2953,13.817537 9.2953,13.869802 9.295299,13.942773 9.295299,13.987137 9.194893,13.986701 8.998703,13.986701 8.8977,13.987137 8.8977,13.8299 8.898298,13.758782 8.898298,13.707401 8.8977,13.634433 8.8977,13.589803 9.295299,13.589803" style="fill: white" /><polygon type="contour" points="8.668799,13.987137 8.5862,13.987137 8.5862,13.589803 8.668799,13.589803" style="fill: white" /><polygon type="contour" points="8.668799,14.298903 8.5862,14.298903 8.5862,14.215603 8.668799,14.215603" style="fill: white" /><polygon type="contour" points="8.357301,14.298903 7.9597,14.298903 7.9597,14.215603 8.357301,14.215603" style="fill: white" /><polygon type="contour" points="8.3573,14.61461 8.3573,14.645403 8.356095,14.645403 8.357301,14.806671 8.357301,14.860866 8.256366,14.860971 8.246709,14.860975 8.239626,14.86098 8.239626,14.860934 8.172641,14.861015 8.153877,14.860814 8.123579,14.861002 8.080871,14.86098 8.063636,14.860971 7.9597,14.860865 7.9597,14.527803 8.357301,14.527803" style="fill: white" /><polygon type="contour" points="7.730799,14.860987 7.673368,14.860987 7.669775,14.860727 7.6475,14.860727 7.6475,14.527803 7.730799,14.527803" style="fill: white" /><polygon type="contour" points="4.546887,12.338564 4.603562,12.338564 4.603562,12.381356 4.603409,12.432782 4.603742,12.722114 4.603919,12.80619 4.603302,12.87972 4.603302,12.9311 4.603898,13.004072 4.603898,13.048702 4.270836,13.048702 4.270202,12.948296 4.270104,12.899027 4.271011,12.796506 4.175826,12.796781 4.113724,12.796714 4.080274,12.796726 4.080237,12.780524 4.080237,12.463564 4.10981,12.463508 4.113723,12.463513 4.179809,12.463635 4.270886,12.463602 4.270639,12.410195 4.270353,12.338362 4.307467,12.338384 4.357775,12.338471 4.373761,12.338202 4.486053,12.338202" style="fill: white" /><polygon type="contour" points="6.413752,12.338422 6.423763,12.338362 6.462148,12.338362 6.462224,12.357373 6.462157,12.420982 6.46126,12.420982 6.463987,12.595051 6.465044,12.666658 6.644677,12.669142 6.651373,12.669214 6.652166,12.669286 6.660431,12.669392 6.67107,12.669587 6.77417,12.669477 6.793341,12.669553 6.793341,12.707937 6.79328,12.717949 6.793502,12.782049 6.793502,12.9311 6.793137,12.992026 6.793137,13.048702 6.409429,13.048702 6.3231,13.0487 6.3231,13.048701 6.32308,13.0487 6.25198,13.048103 6.2006,13.048103 6.127628,13.048702 6.082998,13.048702 6.083598,12.948296 6.083598,12.8919 6.083001,12.815814 6.083001,12.722115 6.082999,12.463019 6.082999,12.392082 6.082998,12.338564 6.176298,12.338202 6.349651,12.338202" style="fill: white" /><polygon type="contour" points="6.421571,11.713104 6.463544,11.713104 6.463032,11.813508 6.462946,11.830702 6.462946,11.944348 6.462694,11.974072 6.463131,12.030125 6.463156,12.046413 6.463127,12.110703 6.3231,12.110701 6.252075,12.110104 6.200599,12.110104 6.127883,12.110703 6.082197,12.110703 6.082689,12.009834 6.082999,11.992401 6.082999,11.830701 6.082998,11.757733 6.082998,11.713104 6.183404,11.713102 6.335162,11.713102" style="fill: white" /><polygon type="contour" points="6.464092,11.484203 6.082998,11.484203 6.082998,11.400901 6.183405,11.400902 6.239799,11.400902 6.315886,11.400901 6.464092,11.400901" style="fill: white" /><polygon type="contour" points="6.465056,10.875335 6.464999,10.892075 6.464999,11.039531 6.46424,11.158646 6.464197,11.172001 6.200599,11.172001 6.127628,11.172002 6.082998,11.172002 6.082999,11.068065 6.082999,10.875334 6.082998,10.774401 6.183405,10.775 6.2398,10.775 6.315886,10.774402 6.335161,10.774402 6.42244,10.774401 6.464945,10.774401" style="fill: white" /><polygon type="contour" points="6.465711,10.51985 6.465493,10.545501 6.082998,10.545501 6.082998,10.462901 6.465711,10.462901" style="fill: white" /><polygon type="contour" points="6.466428,9.936807 6.46637,9.954075 6.46637,10.067649 6.46635,10.069972 6.466169,10.219848 6.466096,10.234001 6.323099,10.234001 6.25198,10.233403 6.200599,10.233403 6.127628,10.234002 6.082998,10.234002 6.082999,10.132998 6.082999,9.936806 6.082998,9.836401 6.183404,9.836403 6.239799,9.836403 6.315887,9.836402 6.335162,9.836402 6.423744,9.836401 6.46678,9.836401" style="fill: white" /><polygon type="contour" points="6.467412,9.539674 6.467412,9.592285 6.467511,9.606224 6.467405,9.607501 6.082998,9.607501 6.082998,9.524201 6.467405,9.524201" style="fill: white" /><polygon type="contour" points="6.466225,8.998704 6.466295,9.016001 6.466295,9.129649 6.46637,9.138502 6.466192,9.138502 6.466838,9.280762 6.466883,9.295303 6.344981,9.295301 6.323099,9.295301 6.251979,9.295302 6.2006,9.295302 6.127628,9.295301 6.082998,9.295301 6.082999,9.194896 6.082999,9.015899 6.082998,8.942331 6.082998,8.897702 6.183404,8.8983 6.239799,8.8983 6.315887,8.897702 6.466249,8.897702" style="fill: white" /><polygon type="contour" points="6.465493,8.64315 6.465711,8.668801 6.082998,8.668801 6.082998,8.586201 6.465493,8.586201" style="fill: white" /><polygon type="contour" points="6.464556,7.996004 6.464927,8.080874 6.464927,8.239629 6.464999,8.239629 6.464765,8.322042 6.464945,8.357302 6.323099,8.357302 6.25198,8.356704 6.200599,8.356704 6.127628,8.357302 6.082998,8.357302 6.082999,8.256368 6.082999,8.080801 6.082998,8.005658 6.082998,7.959701 6.183404,7.959703 6.335162,7.959703 6.42244,7.959701 6.464413,7.959701" style="fill: white" /><polygon type="contour" points="6.464092,7.7308 6.082998,7.7308 6.082998,7.647501 6.464092,7.647501" style="fill: white" /><polygon type="contour" points="4.603612,7.121868 4.603301,7.139332 4.603303,7.249623 4.603303,7.301002 4.603898,7.37397 4.603898,7.4186 4.413297,7.4186 4.413297,7.418601 4.370547,7.4186 4.370547,7.3188 4.2708,7.3188 4.270799,7.318195 4.270793,7.300771 4.270793,7.139302 4.270768,7.139302 4.270752,7.058437 4.270747,7.021002 4.384409,7.02156 4.486298,7.02156 4.486299,7.021002 4.604699,7.021002" style="fill: white" /><polygon type="contour" points="4.91641,7.121868 4.9161,7.139302 4.9161,7.4186 4.832799,7.4186 4.832799,7.021002 4.916902,7.021002" style="fill: white" /><polygon type="contour" points="4.9161,7.7308 4.832799,7.7308 4.832799,7.647501 4.9161,7.647501" style="fill: white" /><polygon type="contour" points="4.603898,7.7308 4.270717,7.7308 4.270717,7.678134 4.270233,7.673369 4.270462,7.673322 4.270462,7.647501 4.603898,7.647501" style="fill: white" /><polygon type="contour" points="4.6039,8.063637 4.6039,8.256369 4.603898,8.357302 4.486299,8.357302 4.486299,8.356277 4.32503,8.357302 4.270837,8.357302 4.270733,8.256369 4.270698,8.199408 4.27044,8.172644 4.270887,8.153878 4.270677,8.119716 4.270678,8.118602 4.270723,8.080873 4.270823,7.996005 4.270837,7.959701 4.603898,7.959701" style="fill: white" /><polygon type="contour" points="4.9161,8.2397 4.916101,8.312672 4.9161,8.357302 4.832799,8.357302 4.832799,7.959701 4.9161,7.959701" style="fill: white" /><polygon type="contour" points="4.9161,8.668801 4.832799,8.668801 4.832799,8.586201 4.9161,8.586201" style="fill: white" /><polygon type="contour" points="4.603898,8.668801 4.37009,8.668801 4.37009,8.586201 4.603898,8.586201" style="fill: white" /><polygon type="contour" points="4.603303,8.998705 4.603303,9.055202 4.603302,9.126322 4.603302,9.177702 4.603898,9.25067 4.603898,9.295301 4.517091,9.295302 4.486298,9.295302 4.486298,9.295301 4.270837,9.295301 4.270799,9.194896 4.270793,9.177628 4.271114,9.177628 4.270617,9.103401 4.270617,9.055202 4.270778,9.055202 4.270817,8.947601 4.320462,8.947622 4.320706,8.897946 4.384155,8.898258 4.384526,8.898261 4.486295,8.898261 4.486299,8.897702 4.603898,8.897702" style="fill: white" /><polygon type="contour" points="4.9161,9.177702 4.916101,9.250671 4.9161,9.295301 4.832799,9.295301 4.832799,8.897702 4.9161,8.897702" style="fill: white" /><polygon type="contour" points="4.413297,9.836403 4.559269,9.836401 4.603898,9.836401 4.603302,9.936806 4.603302,10.132999 4.603898,10.234002 4.517091,10.234001 4.486299,10.234001 4.486292,10.232977 4.32503,10.234002 4.270837,10.234002 4.2708,10.132999 4.270793,10.115393 4.270793,9.954076 4.2708,9.936806 4.270837,9.836401 4.413297,9.836401" style="fill: white" /><polygon type="contour" points="4.603898,9.607501 4.270717,9.607501 4.270717,9.581633 4.270501,9.524201 4.603898,9.524201" style="fill: white" /><polygon type="contour" points="4.9161,9.607501 4.832799,9.607501 4.832799,9.524201 4.9161,9.524201" style="fill: white" /><polygon type="contour" points="4.9161,10.234002 4.832799,10.234002 4.832799,9.836401 4.9161,9.836401" style="fill: white" /><polygon type="contour" points="4.9161,10.545501 4.832799,10.545501 4.832799,10.462901 4.9161,10.462901" style="fill: white" /><polygon type="contour" points="4.603898,10.545501 4.270716,10.545501 4.270716,10.493403 4.270233,10.488552 4.27029,10.48854 4.27029,10.462901 4.603898,10.462901" style="fill: white" /><polygon type="contour" points="4.6039,10.875334 4.6039,11.050902 4.603898,11.126044 4.603898,11.172002 4.413297,11.172002 4.413297,11.172003 4.325029,11.172002 4.320583,11.172002 4.320583,11.135818 4.2708,11.135417 4.270732,11.068065 4.270723,11.051421 4.270723,11.050831 4.270699,11.008353 4.270887,10.977825 4.270689,10.919912 4.270823,10.809661 4.270836,10.774401 4.384667,10.774962 4.486295,10.774962 4.486299,10.774401 4.603898,10.774401" style="fill: white" /><polygon type="contour" points="4.9161,11.126044 4.916101,11.172002 4.832799,11.172002 4.832799,10.774401 4.9161,10.774401" style="fill: white" /><polygon type="contour" points="4.916101,11.42677 4.9161,11.484203 4.832799,11.484203 4.832799,11.400901 4.916101,11.400901" style="fill: white" /><polygon type="contour" points="4.603898,11.484203 4.270717,11.484203 4.270717,11.458333 4.270501,11.400901 4.603898,11.400901" style="fill: white" /><polygon type="contour" points="4.559268,11.713104 4.603898,11.713104 4.603302,11.813507 4.603302,11.9924 4.603303,12.009834 4.603899,12.110703 4.517301,12.110702 4.486299,12.110702 4.486295,12.110144 4.384409,12.110144 4.270748,12.110703 4.270766,12.009834 4.270768,11.992401 4.270792,11.992401 4.270794,11.830702 4.270801,11.813506 4.270837,11.713104 4.384666,11.713101 4.449814,11.713101" style="fill: white" /><polygon type="contour" points="4.9161,11.992401 4.916101,12.065807 4.916101,12.110703 4.831998,12.110703 4.83249,12.009835 4.832799,11.992401 4.832799,11.713104 4.9161,11.713104" style="fill: white" /><polygon type="contour" points="5.485224,12.338564 5.541899,12.338564 5.541899,12.808601 5.5419,12.879721 5.5419,12.931101 5.541899,13.004072 5.541899,13.048702 5.441494,13.048701 5.385099,13.048701 5.314163,13.0487 5.261898,13.0487 5.18893,13.048702 5.144566,13.048702 5.144999,12.948296 5.144996,12.891626 5.14434,12.81324 5.144346,12.808601 5.144457,12.722115 5.144755,12.463019 5.144755,12.392082 5.144637,12.338564 5.237401,12.338202 5.424299,12.338202" style="fill: white" /><polygon type="contour" points="5.854098,12.110703 5.770798,12.110703 5.770798,11.713104 5.854098,11.713104" style="fill: white" /><polygon type="contour" points="5.541899,11.713104 5.5419,11.813506 5.5419,11.992401 5.542209,12.009835 5.542701,12.110703 5.441939,12.110104 5.385099,12.110104 5.314261,12.110701 5.261899,12.110701 5.189185,12.110703 5.143766,12.110703 5.144689,12.009835 5.144998,11.992432 5.145,11.88208 5.145,11.830702 5.144566,11.757734 5.144566,11.713104 5.244547,11.713103 5.301799,11.713103 5.37292,11.713102 5.441495,11.713102" style="fill: white" /><polygon type="contour" points="5.541899,11.484203 5.144566,11.484203 5.144566,11.400901 5.541899,11.400901" style="fill: white" /><polygon type="contour" points="5.854098,11.484203 5.770798,11.484203 5.770798,11.400901 5.854098,11.400901" style="fill: white" /><polygon type="contour" points="5.854098,11.172002 5.770798,11.172002 5.770798,10.774401 5.854098,10.774401" style="fill: white" /><polygon type="contour" points="5.5419,10.875334 5.5419,11.050902 5.541899,11.126045 5.541899,11.172002 5.441494,11.172001 5.261898,11.172001 5.188929,11.172002 5.144566,11.172002 5.1444,11.068066 5.144399,11.050902 5.144399,10.875335 5.144566,10.774401 5.244547,10.774402 5.301799,10.774402 5.372919,10.775 5.4243,10.775 5.497269,10.774401 5.541899,10.774401" style="fill: white" /><polygon type="contour" points="5.541899,10.545501 5.144566,10.545501 5.144566,10.462901 5.541899,10.462901" style="fill: white" /><polygon type="contour" points="5.854098,10.545501 5.770798,10.545501 5.770798,10.462901 5.854098,10.462901" style="fill: white" /><polygon type="contour" points="5.854098,10.234002 5.770798,10.234002 5.770798,9.836401 5.854098,9.836401" style="fill: white" /><polygon type="contour" points="5.5419,9.936806 5.5419,10.132998 5.541899,10.234002 5.441495,10.233403 5.3851,10.233403 5.314163,10.234001 5.261898,10.234001 5.188929,10.234002 5.144566,10.234002 5.144999,10.132998 5.144999,9.954002 5.144566,9.88103 5.144566,9.836401 5.244546,9.836403 5.441495,9.836403 5.541899,9.836401" style="fill: white" /><polygon type="contour" points="5.541899,9.607501 5.144566,9.607501 5.144566,9.524201 5.541899,9.524201" style="fill: white" /><polygon type="contour" points="5.854098,9.607501 5.770798,9.607501 5.770798,9.524201 5.854098,9.524201" style="fill: white" /><polygon type="contour" points="5.854098,9.295301 5.770798,9.295301 5.770798,8.897702 5.854098,8.897702" style="fill: white" /><polygon type="contour" points="5.5419,8.998704 5.5419,9.177702 5.541899,9.250671 5.541899,9.295301 5.441494,9.295302 5.385099,9.295302 5.314163,9.295301 5.144566,9.295301 5.144998,9.194897 5.145002,9.138502 5.144999,9.138502 5.144999,8.998705 5.144566,8.897702 5.244547,8.897703 5.301798,8.897703 5.372919,8.8983 5.441494,8.8983 5.541899,8.897702" style="fill: white" /><polygon type="contour" points="5.541899,8.668801 5.144566,8.668801 5.144566,8.586201 5.541899,8.586201" style="fill: white" /><polygon type="contour" points="5.854098,8.668801 5.770798,8.668801 5.770798,8.586201 5.854098,8.586201" style="fill: white" /><polygon type="contour" points="5.854098,8.357302 5.770798,8.357302 5.770798,7.959701 5.854098,7.959701" style="fill: white" /><polygon type="contour" points="5.5419,8.063637 5.5419,8.256368 5.541899,8.357302 5.441494,8.356704 5.385099,8.356704 5.314164,8.357301 5.261898,8.357301 5.188929,8.357302 5.144566,8.357302 5.144399,8.256368 5.144399,8.080801 5.144566,8.005658 5.144566,7.959701 5.244547,7.959702 5.301799,7.959702 5.37292,7.959703 5.441495,7.959703 5.541898,7.959701" style="fill: white" /><polygon type="contour" points="5.541899,7.7308 5.144566,7.7308 5.144566,7.647501 5.541899,7.647501" style="fill: white" /><polygon type="contour" points="5.854098,7.7308 5.770798,7.7308 5.770798,7.647501 5.854098,7.647501" style="fill: white" /><polygon type="contour" points="5.854098,6.793342 5.770798,6.793342 5.770798,6.083001 5.854098,6.083001" style="fill: white" /><polygon type="contour" points="5.5419,7.178502 5.541899,7.249622 5.541899,7.4186 5.441494,7.418601 5.261898,7.418601 5.188929,7.4186 5.144566,7.4186 5.144999,7.318195 5.144999,7.121869 5.144567,7.021002 5.244411,7.021003 5.301799,7.021003 5.372824,7.0216 5.441631,7.0216 5.5419,7.021001" style="fill: white" /><polygon type="contour" points="5.854408,7.121868 5.854098,7.139302 5.854098,7.4186 5.770798,7.4186 5.770798,7.065896 5.769997,7.021001 5.8549,7.021001" style="fill: white" /><polygon type="contour" points="6.18327,7.0216 6.239799,7.0216 6.315797,7.021003 6.335202,7.021003 6.421447,7.021002 6.463127,7.021002 6.462872,7.121869 6.462778,7.167593 6.462946,7.187354 6.462946,7.301001 6.463365,7.383548 6.463544,7.4186 6.33489,7.418602 6.323099,7.418602 6.251979,7.418601 6.200599,7.418601 6.127628,7.4186 6.082998,7.4186 6.082999,7.318195 6.082999,7.021001" style="fill: white" /><polygon type="contour" points="7.959424,4.270839 8.063636,4.270734 8.1186,4.270706 8.1186,4.270704 8.123371,4.270701 8.153877,4.27089 8.207003,4.270707 8.256367,4.270734 8.357301,4.270839 8.356641,4.404678 8.356641,4.486301 8.357299,4.486301 8.357301,4.559271 8.357301,4.603901 8.256366,4.603902 8.063636,4.603902 7.9597,4.603901 7.9597,4.325032 7.95942,4.270686" style="fill: white" /><polygon type="contour" points="7.730799,4.603901 7.6475,4.603901 7.6475,4.270718 7.730799,4.270718" style="fill: white" /><polygon type="contour" points="7.730799,4.916102 7.6475,4.916102 7.6475,4.832801 7.730799,4.832801" style="fill: white" /><polygon type="contour" points="7.121866,4.832492 7.1393,4.832801 7.418599,4.832801 7.418599,4.916102 7.065896,4.916102 7.021,4.916904 7.021,4.832" style="fill: white" /><polygon type="contour" points="7.121866,4.270768 7.1393,4.27077 7.1393,4.270796 7.300999,4.270796 7.318194,4.270801 7.418599,4.270839 7.418599,4.603901 7.318195,4.603304 7.1393,4.603304 7.065895,4.603901 7.021,4.603901 7.021,4.4863 7.021658,4.486297 7.021658,4.404589 7.021,4.27075" style="fill: white" /><polygon type="contour" points="6.668191,4.109812 6.668186,4.113724 6.668066,4.179811 6.668104,4.270887 6.720894,4.27064 6.793341,4.270355 6.793319,4.307469 6.793229,4.357778 6.793502,4.387192 6.793502,4.486055 6.793137,4.546888 6.793137,4.603564 6.749982,4.603564 6.69816,4.603412 6.409429,4.603745 6.325514,4.603921 6.25198,4.603304 6.2006,4.603304 6.127628,4.603901 6.082998,4.603901 6.082999,4.517093 6.082999,4.486301 6.082998,4.325031 6.082998,4.270839 6.183405,4.270205 6.232504,4.270105 6.335194,4.271013 6.334921,4.175828 6.334986,4.113724 6.334975,4.080277 6.351177,4.080239 6.668136,4.080239" style="fill: white" /><polygon type="contour" points="4.413344,4.215816 4.413189,4.270089 4.568637,4.270825 4.603899,4.270839 4.6039,4.404678 4.6039,4.41333 4.603898,4.559271 4.603898,4.603901 4.270837,4.603901 4.27099,4.517094 4.271006,4.413269 4.163025,4.413498 4.113723,4.413489 4.080275,4.413477 4.080506,4.179524 4.080459,4.158746 4.080459,4.080461 4.332127,4.080198 4.352445,4.080198 4.413344,4.080146" style="fill: white" /><polygon type="contour" points="4.9161,4.413296 4.916098,4.413296 4.916101,4.559271 4.916101,4.603901 4.832799,4.603901 4.832799,4.270718 4.9161,4.270718" style="fill: white" /><polygon type="contour" points="5.381037,4.27078 5.506638,4.270824 5.541899,4.270839 5.541899,4.603901 5.441495,4.603304 5.385099,4.603304 5.314164,4.603901 5.144566,4.603901 5.144484,4.517093 5.144484,4.4863 5.145357,4.486301 5.144566,4.325031 5.144566,4.270839 5.244547,4.270537 5.299331,4.270475" style="fill: white" /><polygon type="contour" points="5.854098,4.603901 5.770798,4.603901 5.770798,4.270718 5.854098,4.270718" style="fill: white" /><polygon type="contour" points="5.854098,5.541901 5.770798,5.541901 5.770798,5.144568 5.854098,5.144568" style="fill: white" /><polygon type="contour" points="5.854098,5.854101 5.770798,5.854101 5.770798,5.770801 5.854098,5.770801" style="fill: white" /><polygon type="contour" points="5.541899,5.854101 5.144566,5.854101 5.144566,5.770801 5.541899,5.770801" style="fill: white" /><polygon type="contour" points="5.5419,6.183407 5.5419,6.239803 5.541899,6.315889 5.541899,6.793138 5.4486,6.793503 5.262045,6.793503 5.201312,6.793139 5.144637,6.793139 5.144637,6.749984 5.144789,6.698262 5.144457,6.409431 5.144348,6.324621 5.145,6.251982 5.144995,6.200052 5.144566,6.127631 5.144566,6.083001 5.244546,6.083003 5.301798,6.083003 5.372919,6.083001 5.541899,6.083001" style="fill: white" /><polygon type="contour" points="4.9161,6.239802 4.916101,6.323149 4.9161,6.461076 4.9161,6.793342 4.832799,6.793342 4.832799,6.461076 4.8328,6.327455 4.832799,6.251981 4.832799,6.083001 4.9161,6.083001" style="fill: white" /><polygon type="contour" points="4.603302,6.183408 4.603302,6.239803 4.60393,6.319959 4.603924,6.323102 4.603743,6.409431 4.603444,6.668227 4.603444,6.739164 4.603562,6.793139 4.527266,6.793503 4.373761,6.793503 4.270353,6.793342 4.27044,6.774171 4.270851,6.668107 4.179808,6.668068 4.169173,6.668107 4.113724,6.668188 4.080237,6.668138 4.080237,6.351179 4.080274,6.334978 4.105697,6.335068 4.113723,6.334989 4.27097,6.335176 4.269963,6.226523 4.270169,6.200676 4.270823,6.118262 4.270837,6.083001 4.603898,6.083001" style="fill: white" /><polygon type="contour" points="4.603898,5.854101 4.270717,5.854101 4.270717,5.770801 4.603898,5.770801" style="fill: white" /><polygon type="contour" points="4.9161,5.854101 4.832799,5.854101 4.832799,5.770801 4.9161,5.770801" style="fill: white" /><polygon type="contour" points="4.9161,5.541901 4.832799,5.541901 4.832799,5.144568 4.9161,5.144568" style="fill: white" /><polygon type="contour" points="4.6039,5.244548 4.6039,5.301801 4.603302,5.372921 4.603302,5.424302 4.603898,5.49727 4.603898,5.541901 4.517091,5.541902 4.486299,5.541902 4.486299,5.541901 4.270837,5.541901 4.2708,5.441497 4.270794,5.424228 4.270971,5.424228 4.270441,5.281877 4.270823,5.179563 4.270837,5.144568 4.384666,5.145001 4.413296,5.145001 4.413297,5.145436 4.559269,5.144568 4.603898,5.144568" style="fill: white" /><polygon type="contour" points="4.603898,4.916102 4.270717,4.916102 4.270717,4.832801 4.603898,4.832801" style="fill: white" /><polygon type="contour" points="4.9161,4.916102 4.832799,4.916102 4.832799,4.832801 4.9161,4.832801" style="fill: white" /><polygon type="contour" points="5.372919,5.145001 5.441494,5.145001 5.541899,5.144568 5.541899,5.301801 5.5419,5.372922 5.5419,5.441496 5.541899,5.541901 5.441494,5.541902 5.385099,5.541902 5.314163,5.541901 5.144566,5.541901 5.144999,5.441496 5.144999,5.385102 5.144404,5.314166 5.144404,5.2619 5.144566,5.188932 5.144566,5.144568 5.244547,5.144406 5.301798,5.144406" style="fill: white" /><polygon type="contour" points="5.541899,4.916102 5.144566,4.916102 5.144566,4.832801 5.541899,4.832801" style="fill: white" /><polygon type="contour" points="5.854098,4.916102 5.770798,4.916102 5.770798,4.832801 5.854098,4.832801" style="fill: white" /><polygon type="contour" points="6.315887,4.832802 6.335161,4.832802 6.461075,4.832801 6.793341,4.832801 6.793341,4.916102 6.605541,4.916102 6.53156,4.917342 6.364236,4.916285 6.335161,4.916102 6.082998,4.916102 6.082998,4.832801 6.2398,4.832801" style="fill: white" /><polygon type="contour" points="6.3231,5.144348 6.409429,5.144459 6.668225,5.144757 6.739162,5.144757 6.793137,5.144639 6.793502,5.237404 6.793502,5.424302 6.793137,5.485226 6.793137,5.541901 6.323099,5.541901 6.251979,5.541902 6.2006,5.541902 6.127628,5.541901 6.082998,5.541901 6.082999,5.441496 6.082999,5.385101 6.083001,5.314166 6.083001,5.2619 6.082998,5.188931 6.082998,5.144568 6.183405,5.145001 6.2398,5.145001 6.318441,5.144342" style="fill: white" /><polygon type="contour" points="6.793341,5.854101 6.082998,5.854101 6.082998,5.770801 6.793341,5.770801" style="fill: white" /><polygon type="contour" points="6.793502,6.1763 6.793502,6.349654 6.79328,6.413754 6.793341,6.423764 6.793341,6.46215 6.77417,6.462226 6.710017,6.462158 6.710017,6.461262 6.536411,6.463988 6.465044,6.465046 6.462561,6.644679 6.462417,6.651375 6.462273,6.659152 6.462273,6.660448 6.462117,6.671947 6.462224,6.774171 6.462148,6.793342 6.423762,6.793342 6.413752,6.79328 6.349651,6.793503 6.200599,6.793503 6.139674,6.793139 6.082998,6.793139 6.082998,6.749983 6.083,6.668228 6.082999,6.668228 6.083001,6.409431 6.083001,6.323102 6.083598,6.251982 6.083598,6.200603 6.082998,6.127632 6.082998,6.083001 6.183405,6.0836 6.239799,6.0836 6.315887,6.083002 6.739162,6.083002 6.793137,6.083001" style="fill: white" /><polygon type="contour" points="7.121866,6.082691 7.1393,6.083001 7.418599,6.083001 7.418599,6.239802 7.4186,6.324914 7.4186,6.335164 7.418599,6.421573 7.418599,6.463547 7.318194,6.463033 7.313868,6.463021 7.300999,6.462947 7.18735,6.462947 7.167592,6.462779 7.121865,6.462874 7.021,6.463129 7.021001,6.323102 7.021001,6.323101 7.021597,6.252077 7.021597,6.200603 7.021,6.127887 7.021,6.0822" style="fill: white" /><polygon type="contour" points="7.121866,5.770492 7.1393,5.770801 7.418599,5.770801 7.418599,5.854101 7.021,5.854101 7.021,5.77" style="fill: white" /><polygon type="contour" points="7.418599,5.541901 7.318194,5.541902 7.139299,5.541902 7.065895,5.541901 7.021,5.541901 7.021597,5.441633 7.021597,5.385102 7.021001,5.314263 7.021001,5.2619 7.021,5.189186 7.021,5.144569 7.121865,5.145001 7.318194,5.145001 7.418599,5.144568" style="fill: white" /><polygon type="contour" points="7.730799,5.541901 7.6475,5.541901 7.6475,5.144568 7.730799,5.144568" style="fill: white" /><polygon type="contour" points="7.730799,5.854101 7.6475,5.854101 7.6475,5.770801 7.730799,5.770801" style="fill: white" /><polygon type="contour" points="7.730799,6.464094 7.6475,6.464094 7.6475,6.083001 7.730799,6.083001" style="fill: white" /><polygon type="contour" points="9.607499,6.467406 9.592282,6.467413 9.539672,6.467413 9.525498,6.467512 9.524199,6.467406 9.524199,6.083001 9.607499,6.083001" style="fill: white" /><polygon type="contour" points="14.779253,4.080198 14.79957,4.080198 15.051239,4.080461 15.051239,4.158746 15.051192,4.179525 15.051425,4.413476 15.026001,4.413379 15.017975,4.413489 14.860554,4.413276 14.860875,4.568639 14.860863,4.603901 14.527802,4.603901 14.527799,4.517094 14.527799,4.457427 14.527802,4.325031 14.527802,4.270839 14.614608,4.270475 14.718444,4.270599 14.718354,4.080146" style="fill: white" /><polygon type="contour" points="14.860984,4.916102 14.527802,4.916102 14.527802,4.832801 14.860984,4.832801" style="fill: white" /><polygon type="contour" points="14.861164,5.244548 14.861217,5.292776 14.860728,5.424228 14.860907,5.424228 14.860875,5.506641 14.860863,5.541901 14.645402,5.541901 14.645402,5.541902 14.572431,5.541901 14.527802,5.541901 14.528398,5.441496 14.528398,5.385101 14.527801,5.314166 14.527801,5.261901 14.527802,5.188931 14.527802,5.144568 14.614608,5.145002 14.645402,5.145002 14.645401,5.145359 14.806668,5.144568 14.860863,5.144568" style="fill: white" /><polygon type="contour" points="14.298902,5.541901 14.215601,5.541901 14.2156,5.441497 14.2156,5.372921 14.215602,5.3018 14.215602,5.144568 14.298902,5.144568" style="fill: white" /><polygon type="contour" points="13.942771,5.144568 13.987136,5.144568 13.987295,5.244548 13.987295,5.301801 13.986699,5.372922 13.986699,5.424302 13.987136,5.49727 13.987136,5.541901 13.829899,5.541901 13.758779,5.541902 13.690206,5.541902 13.589802,5.541901 13.589801,5.441497 13.589801,5.385101 13.589802,5.314165 13.589802,5.144568 13.690206,5.145001 13.7466,5.145001 13.817534,5.144406 13.869799,5.144406" style="fill: white" /><polygon type="contour" points="13.987136,4.916102 13.589802,4.916102 13.589802,4.832801 13.987136,4.832801" style="fill: white" /><polygon type="contour" points="14.298902,4.916102 14.215602,4.916102 14.215602,4.832801 14.298902,4.832801" style="fill: white" /><polygon type="contour" points="14.298902,4.603901 14.215602,4.603901 14.215602,4.486301 14.215603,4.486301 14.215601,4.369171 14.215602,4.270718 14.298902,4.270718" style="fill: white" /><polygon type="contour" points="13.95214,4.270825 13.987136,4.270839 13.986699,4.404678 13.986699,4.486297 13.987218,4.4863 13.987136,4.55927 13.987136,4.603901 13.8299,4.603901 13.75878,4.603304 13.690205,4.603304 13.589802,4.603901 13.589802,4.413296 13.589801,4.413296 13.589802,4.325031 13.589802,4.270839 13.690205,4.270802 13.725634,4.270874 13.845262,4.270426" style="fill: white" /><polygon type="contour" points="13.360902,4.603901 13.277598,4.603901 13.277598,4.270718 13.360902,4.270718" style="fill: white" /><polygon type="contour" points="13.360902,4.916102 13.277598,4.916102 13.277598,4.832801 13.360902,4.832801" style="fill: white" /><polygon type="contour" points="12.879719,5.145001 12.931099,5.145001 13.004071,5.144568 13.0487,5.144568 13.048699,5.244549 13.048699,5.301801 13.0487,5.372922 13.0487,5.541901 12.948293,5.541902 12.891899,5.541902 12.815812,5.541901 12.338563,5.541901 12.338199,5.448602 12.338199,5.262048 12.338561,5.201313 12.338562,5.144639 12.381354,5.144639 12.432753,5.144791 12.722113,5.144459 12.807095,5.14435" style="fill: white" /><polygon type="contour" points="12.767463,4.832802 12.8086,4.832802 12.87972,4.832801 13.0487,4.832801 13.0487,4.916102 12.338359,4.916102 12.338359,4.832801 12.60014,4.832801" style="fill: white" /><polygon type="contour" points="12.796724,4.080277 12.796634,4.1057 12.796713,4.113724 12.796528,4.270973 12.905179,4.269964 12.931026,4.27017 13.01344,4.270825 13.0487,4.270839 13.048699,4.404679 13.048699,4.486301 13.048701,4.486301 13.0487,4.559271 13.0487,4.603901 12.948293,4.603304 12.8919,4.603304 12.811749,4.603932 12.8086,4.603926 12.722113,4.603744 12.463018,4.603447 12.392081,4.603447 12.338562,4.603564 12.338199,4.527269 12.338199,4.400554 12.338381,4.307469 12.338359,4.270355 12.357371,4.270442 12.463033,4.270854 12.463633,4.17981 12.463593,4.169174 12.463512,4.113724 12.463562,4.080239 12.780522,4.080239" style="fill: white" /><polygon type="contour" points="11.713101,4.270839 11.813506,4.270801 11.828443,4.270796 11.9924,4.270796 11.9924,4.27077 12.073263,4.270754 12.1107,4.27075 12.110043,4.40459 12.110043,4.486301 12.1107,4.486301 12.1107,4.604702 12.009833,4.603614 11.992399,4.603304 11.813505,4.603304 11.713101,4.603901 11.7131,4.517094 11.7131,4.4863 11.713101,4.4863 11.713101,4.325031 11.712831,4.270809 11.713101,4.270749" style="fill: white" /><polygon type="contour" points="11.4842,4.603901 11.400899,4.603901 11.400899,4.270718 11.458331,4.270718 11.461925,4.270463 11.4842,4.270463" style="fill: white" /><polygon type="contour" points="10.996201,4.27089 11.010625,4.270704 11.050829,4.270725 11.068064,4.270734 11.172,4.270839 11.172,4.413296 11.171997,4.413296 11.172,4.559271 11.172,4.603901 11.068063,4.603902 10.892,4.603902 10.819028,4.603901 10.774399,4.603901 10.774399,4.486301 10.775606,4.486301 10.774399,4.325032 10.774399,4.270839 10.875332,4.270734 10.929801,4.270704 10.932434,4.270703 10.94818,4.270889 10.957955,4.270443 10.987214,4.270443" style="fill: white" /><polygon type="contour" points="9.607499,4.916102 9.524199,4.916102 9.524199,4.832801 9.607499,4.832801" style="fill: white" /><polygon type="contour" points="9.295299,4.916102 8.8977,4.916102 8.8977,4.832801 9.295299,4.832801" style="fill: white" /><polygon type="contour" points="9.2953,5.244548 9.2953,5.301801 9.295299,5.372922 9.295299,5.541901 9.194893,5.541902 8.998703,5.541902 8.8977,5.541901 8.898298,5.441496 8.898298,5.385102 8.8977,5.314165 8.8977,5.144568 8.998703,5.145001 9.177698,5.145001 9.250668,5.144568 9.295299,5.144568" style="fill: white" /><polygon type="contour" points="9.607499,5.541901 9.524199,5.541901 9.524199,5.144568 9.607499,5.144568" style="fill: white" /><polygon type="contour" points="9.607499,5.854101 9.524199,5.854101 9.524199,5.770801 9.607499,5.770801" style="fill: white" /><polygon type="contour" points="9.295299,5.854101 8.8977,5.854101 8.8977,5.770801 9.295299,5.770801" style="fill: white" /><polygon type="contour" points="9.295299,6.239802 9.2953,6.323102 9.295299,6.423745 9.295299,6.466782 9.194893,6.46643 9.177625,6.466371 9.064052,6.466371 9.04816,6.466236 8.932961,6.466449 8.8977,6.46625 8.8977,6.323101 8.898298,6.251982 8.898298,6.200603 8.8977,6.127631 8.8977,6.083001 9.295299,6.083001" style="fill: white" /><polygon type="contour" points="8.668799,6.465714 8.611849,6.465714 8.5862,6.465496 8.5862,6.083001 8.668799,6.083001" style="fill: white" /><polygon type="contour" points="8.356701,6.183407 8.356701,6.239802 8.3573,6.315889 8.3573,6.335164 8.357301,6.422441 8.357301,6.464947 8.256366,6.465058 8.239626,6.465001 8.097386,6.465001 7.996003,6.464558 7.9597,6.464415 7.9597,6.422441 7.959701,6.328517 7.9597,6.251981 7.9597,6.083001 8.357301,6.083001" style="fill: white" /><polygon type="contour" points="8.357301,5.854101 7.9597,5.854101 7.9597,5.770801 8.357301,5.770801" style="fill: white" /><polygon type="contour" points="8.668799,5.854101 8.5862,5.854101 8.5862,5.770801 8.668799,5.770801" style="fill: white" /><polygon type="contour" points="8.668799,5.541901 8.5862,5.541901 8.5862,5.144568 8.668799,5.144568" style="fill: white" /><polygon type="contour" points="8.357301,5.144568 8.357298,5.244549 8.357298,5.3018 8.356701,5.372921 8.356701,5.424301 8.357301,5.497271 8.357301,5.541901 7.9597,5.541901 7.9597,5.385102 7.959701,5.314165 7.959701,5.2619 7.9597,5.188931 7.9597,5.144568 8.063636,5.144401 8.256366,5.144401" style="fill: white" /><polygon type="contour" points="8.357301,4.916102 7.9597,4.916102 7.9597,4.832801 8.357301,4.832801" style="fill: white" /><polygon type="contour" points="8.668799,4.916102 8.5862,4.916102 8.5862,4.832801 8.668799,4.832801" style="fill: white" /><polygon type="contour" points="8.668799,4.603901 8.5862,4.603901 8.5862,4.270718 8.643149,4.270718 8.646895,4.270292 8.668799,4.270292" style="fill: white" /><polygon type="contour" points="9.194893,4.270801 9.295299,4.270839 9.295299,4.4863 9.2953,4.4863 9.295299,4.559271 9.295299,4.603901 9.194894,4.603304 8.998703,4.603304 8.8977,4.603901 8.8977,4.486301 8.898902,4.486293 8.8977,4.325031 8.8977,4.270839 8.998702,4.270802 9.013663,4.270796 9.179956,4.270796" style="fill: white" /><polygon type="contour" points="9.550066,4.270718 9.607499,4.270718 9.607499,4.603901 9.524199,4.603901 9.524199,4.270292 9.546288,4.270292" style="fill: white" /><polygon type="contour" points="10.076501,4.270779 10.132998,4.270802 10.1342,4.270802 10.1342,4.32071 10.233754,4.32071 10.233344,4.404259 10.233342,4.404736 10.233342,4.486301 10.234,4.486301 10.234,4.603901 10.132997,4.603304 9.936806,4.603304 9.836399,4.603901 9.8364,4.517093 9.8364,4.486301 9.836404,4.486301 9.836399,4.325031 9.836399,4.270839 9.936805,4.270802 9.954075,4.270795 9.954074,4.271119 10.028301,4.270619 10.076501,4.270619" style="fill: white" /><polygon type="contour" points="10.48855,4.270718 10.545499,4.270718 10.545499,4.603901 10.462899,4.603901 10.462899,4.270599 10.464835,4.270602 10.467921,4.270599 10.484802,4.270292" style="fill: white" /><polygon type="contour" points="10.545499,4.916102 10.462899,4.916102 10.462899,4.832801 10.545499,4.832801" style="fill: white" /><polygon type="contour" points="10.234,4.916102 9.836399,4.916102 9.836399,4.832801 10.234,4.832801" style="fill: white" /><polygon type="contour" points="10.233999,5.244549 10.233999,5.3018 10.233402,5.372921 10.233402,5.424302 10.234,5.49727 10.234,5.541901 10.132997,5.541902 9.954001,5.541902 9.881029,5.541901 9.836399,5.541901 9.836402,5.441496 9.836402,5.385102 9.8364,5.314166 9.8364,5.2619 9.836399,5.188931 9.836399,5.144568 9.936806,5.145001 10.132997,5.145001 10.234,5.144568" style="fill: white" /><polygon type="contour" points="10.545499,5.541901 10.462899,5.541901 10.462899,5.144568 10.545499,5.144568" style="fill: white" /><polygon type="contour" points="10.545499,5.854101 10.462899,5.854101 10.462899,5.770801 10.545499,5.770801" style="fill: white" /><polygon type="contour" points="10.234,5.854101 9.836399,5.854101 9.836399,5.770801 10.234,5.770801" style="fill: white" /><polygon type="contour" points="10.233402,6.183407 10.233402,6.239803 10.233998,6.315861 10.233999,6.315889 10.233999,6.335163 10.234,6.423745 10.234,6.466251 10.132998,6.466226 10.115701,6.466296 10.002053,6.466296 9.993201,6.466371 9.993201,6.466233 9.87166,6.466659 9.836399,6.466782 9.8364,6.323102 9.8364,6.323101 9.836402,6.251982 9.836402,6.200603 9.836399,6.127631 9.836399,6.083001 10.234,6.083001" style="fill: white" /><polygon type="contour" points="10.545499,6.465496 10.519848,6.465714 10.462899,6.465714 10.462899,6.083001 10.545499,6.083001" style="fill: white" /><polygon type="contour" points="11.4842,6.464094 11.400899,6.464094 11.400899,6.083001 11.4842,6.083001" style="fill: white" /><polygon type="contour" points="11.172,6.239803 11.171999,6.315889 11.171999,6.464199 11.16964,6.464451 11.068063,6.46486 11.063284,6.464857 11.038372,6.465001 10.892073,6.465001 10.809659,6.464767 10.774399,6.464947 10.7744,6.323102 10.7744,6.323101 10.774998,6.251982 10.774998,6.200602 10.774399,6.127631 10.774399,6.083001 11.172,6.083001" style="fill: white" /><polygon type="contour" points="11.172,5.854101 10.774399,5.854101 10.774399,5.770801 11.172,5.770801" style="fill: white" /><polygon type="contour" points="11.4842,5.854101 11.400899,5.854101 11.400899,5.770801 11.4842,5.770801" style="fill: white" /><polygon type="contour" points="11.4842,5.424302 11.484199,5.497271 11.484199,5.541901 11.400899,5.541901 11.400899,5.144568 11.4842,5.144568" style="fill: white" /><polygon type="contour" points="11.126042,5.144568 11.172,5.144568 11.171999,5.244549 11.171999,5.301801 11.172,5.372922 11.172,5.541901 10.774399,5.541901 10.774998,5.441497 10.774998,5.385101 10.774401,5.314166 10.774401,5.2619 10.774399,5.188932 10.774399,5.144568 10.875333,5.144401 11.0509,5.144401" style="fill: white" /><polygon type="contour" points="11.172,4.916102 10.774399,4.916102 10.774399,4.832801 11.172,4.832801" style="fill: white" /><polygon type="contour" points="11.4842,4.916102 11.400899,4.916102 11.400899,4.832801 11.4842,4.832801" style="fill: white" /><polygon type="contour" points="12.1107,4.916102 11.713101,4.916102 11.713101,4.832801 12.1107,4.832801" style="fill: white" /><polygon type="contour" points="12.1107,5.301801 12.110103,5.372826 12.110103,5.424302 12.1107,5.497015 12.1107,5.542702 12.009833,5.542211 11.9924,5.541902 11.813506,5.541902 11.713101,5.541901 11.713101,5.144568 11.813506,5.145001 11.992399,5.145001 12.065804,5.144568 12.1107,5.143768" style="fill: white" /><polygon type="contour" points="12.1107,5.854903 12.009834,5.85441 11.9924,5.854101 11.713101,5.854101 11.713101,5.770801 12.1107,5.770801" style="fill: white" /><polygon type="contour" points="12.1107,6.083002 12.110103,6.183272 12.110103,6.239803 12.110698,6.315671 12.1107,6.315828 12.1107,6.323102 12.110698,6.323102 12.1107,6.421449 12.1107,6.463129 12.009834,6.462874 11.964108,6.462779 11.944347,6.462947 11.830701,6.462947 11.748152,6.463368 11.713101,6.463547 11.713099,6.331204 11.7131,6.323101 11.713101,6.251981 11.713101,6.200602 11.7131,6.127631 11.713101,6.083001 12.065803,6.083001" style="fill: white" /><polygon type="contour" points="12.722116,6.083003 12.808601,6.083003 12.879721,6.0836 12.9311,6.0836 13.004071,6.083001 13.0487,6.083001 13.048102,6.183407 13.048102,6.239802 13.048697,6.315855 13.048698,6.315889 13.048698,6.335163 13.048699,6.409431 13.048701,6.668227 13.048701,6.793139 12.955401,6.793503 12.782048,6.793503 12.717947,6.79328 12.707937,6.793342 12.669552,6.793342 12.669476,6.77417 12.669543,6.71002 12.670437,6.71002 12.667713,6.536413 12.666689,6.465013 12.420981,6.461616 12.420981,6.462158 12.410194,6.462115 12.338359,6.46215 12.338359,6.423765 12.33842,6.413753 12.338199,6.349652 12.338199,6.200602 12.338562,6.139677 12.338562,6.083001 12.413452,6.083001" style="fill: white" /><polygon type="contour" points="13.0487,5.854101 12.338359,5.854101 12.338359,5.770801 13.0487,5.770801" style="fill: white" /><polygon type="contour" points="13.360902,5.541901 13.277598,5.541901 13.277598,5.144568 13.360902,5.144568" style="fill: white" /><polygon type="contour" points="13.360902,5.854101 13.277598,5.854101 13.277598,5.770801 13.360902,5.770801" style="fill: white" /><polygon type="contour" points="13.817534,6.083003 13.869799,6.083003 13.942771,6.083001 13.987136,6.083001 13.986699,6.183407 13.986699,6.239803 13.987359,6.318436 13.987338,6.335164 13.987242,6.409432 13.986946,6.668229 13.986946,6.739165 13.987063,6.793139 13.894295,6.793503 13.7074,6.793503 13.646475,6.793139 13.589802,6.793139 13.589802,6.749984 13.5898,6.709955 13.5898,6.323101 13.589801,6.251981 13.589801,6.200603 13.589802,6.127631 13.589802,6.083001 13.746599,6.083001" style="fill: white" /><polygon type="contour" points="13.987136,5.854101 13.589802,5.854101 13.589802,5.770801 13.987136,5.770801" style="fill: white" /><polygon type="contour" points="14.298902,5.854101 14.2156,5.854101 14.215601,5.796668 14.215602,5.770801 14.298902,5.770801" style="fill: white" /><polygon type="contour" points="14.860984,5.854101 14.527802,5.854101 14.527802,5.770801 14.860984,5.770801" style="fill: white" /><polygon type="contour" points="14.718403,6.083004 14.718403,6.083001 14.860863,6.083001 14.861497,6.183407 14.861595,6.232677 14.860688,6.335196 14.955873,6.334923 15.017976,6.334989 15.051425,6.334978 15.051463,6.351179 15.051463,6.668138 15.021889,6.668193 15.017976,6.668188 14.951891,6.668068 14.860814,6.668107 14.861062,6.720897 14.861346,6.793342 14.824231,6.79332 14.773923,6.793232 14.757937,6.793503 14.645647,6.793503 14.584812,6.793139 14.528138,6.793139 14.528138,6.749984 14.528289,6.698133 14.527956,6.409432 14.52778,6.325503 14.528398,6.251982 14.528398,6.200602 14.527802,6.127632 14.527802,6.083001 14.614609,6.083001" style="fill: white" /><polygon type="contour" points="14.645405,7.02156 14.747289,7.02156 14.860951,7.021002 14.860935,7.121868 14.860932,7.139302 14.860907,7.139302 14.860907,7.301002 14.8609,7.318195 14.860863,7.4186 14.747032,7.418601 14.718402,7.418601 14.718402,7.4186 14.527802,7.4186 14.528398,7.318195 14.528398,7.139302 14.528396,7.121868 14.527801,7.021002 14.645401,7.021002" style="fill: white" /><polygon type="contour" points="14.298902,6.793342 14.215602,6.793342 14.215602,6.323102 14.2156,6.251982 14.2156,6.083001 14.298902,6.083001" style="fill: white" /><polygon type="contour" points="14.299703,7.021002 14.299211,7.121869 14.298902,7.139302 14.298902,7.4186 14.215602,7.4186 14.215602,7.139301 14.215601,7.065896 14.215601,7.021001 14.248195,7.021001" style="fill: white" /><polygon type="contour" points="13.68976,7.0216 13.746599,7.0216 13.817437,7.021003 13.8698,7.021003 13.942516,7.021002 13.987936,7.021002 13.987009,7.121868 13.986699,7.139302 13.986699,7.301002 13.987136,7.37397 13.987136,7.4186 13.887151,7.418601 13.690206,7.418601 13.589802,7.4186 13.589801,7.318196 13.589801,7.139302 13.589492,7.121869 13.589,7.021001" style="fill: white" /><polygon type="contour" points="13.360902,6.793342 13.277598,6.793342 13.277598,6.083001 13.360902,6.083001" style="fill: white" /><polygon type="contour" points="12.8086,7.021003 12.879624,7.0216 12.9311,7.0216 13.003816,7.021002 13.049502,7.021002 13.049009,7.121868 13.0487,7.139301 13.0487,7.4186 12.948293,7.418601 12.8919,7.418601 12.803519,7.418602 12.796537,7.418602 12.710128,7.4186 12.668156,7.4186 12.668667,7.318195 12.66868,7.313869 12.668755,7.301001 12.668755,7.187353 12.668919,7.167631 12.668828,7.121868 12.668574,7.021001" style="fill: white" /><polygon type="contour" points="12.79654,7.959703 12.931099,7.959703 13.00407,7.959701 13.0487,7.959701 13.048701,8.063637 13.048701,8.256368 13.0487,8.357302 12.948294,8.356704 12.8919,8.356704 12.815815,8.357302 12.666756,8.357302 12.666644,8.256369 12.666701,8.239628 12.666701,8.097344 12.667143,7.996005 12.667288,7.959701 12.709259,7.959701" style="fill: white" /><polygon type="contour" points="13.0487,7.7308 12.667608,7.7308 12.667608,7.647501 13.0487,7.647501" style="fill: white" /><polygon type="contour" points="13.360902,7.4186 13.277598,7.4186 13.277598,7.021002 13.360902,7.021002" style="fill: white" /><polygon type="contour" points="13.360902,7.7308 13.277598,7.7308 13.277598,7.647501 13.360902,7.647501" style="fill: white" /><polygon type="contour" points="13.360902,8.357302 13.277598,8.357302 13.277598,7.959701 13.360902,7.959701" style="fill: white" /><polygon type="contour" points="13.360902,8.668801 13.277598,8.668801 13.277598,8.586201 13.360902,8.586201" style="fill: white" /><polygon type="contour" points="13.0487,8.668801 12.665989,8.668801 12.665989,8.611852 12.666206,8.586201 13.0487,8.586201" style="fill: white" /><polygon type="contour" points="12.879719,8.8983 12.931099,8.8983 13.004071,8.897702 13.0487,8.897702 13.0487,9.295301 12.948293,9.295302 12.891899,9.295302 12.815812,9.295301 12.66492,9.295301 12.665269,9.194896 12.665329,9.177628 12.665329,9.064053 12.665461,9.04816 12.665251,8.932963 12.665451,8.897702 12.8086,8.897702" style="fill: white" /><polygon type="contour" points="13.0487,9.607501 12.664295,9.607501 12.664289,9.592285 12.664289,9.539674 12.664189,9.5255 12.664295,9.524201 13.0487,9.524201" style="fill: white" /><polygon type="contour" points="13.360902,9.295301 13.277598,9.295301 13.277598,8.897702 13.360902,8.897702" style="fill: white" /><polygon type="contour" points="13.360902,9.607501 13.277598,9.607501 13.277598,9.524201 13.360902,9.524201" style="fill: white" /><polygon type="contour" points="14.298902,11.172002 14.215602,11.172002 14.215602,10.892002 14.215601,10.819031 14.215601,10.774401 14.298902,10.774401" style="fill: white" /><polygon type="contour" points="13.817535,11.713103 13.8698,11.713103 13.942772,11.713104 13.987136,11.713104 13.986699,11.813507 13.986699,12.009835 13.987134,12.110703 13.887287,12.110701 13.8299,12.110701 13.758875,12.110104 13.690068,12.110104 13.589801,12.110703 13.589801,11.830701 13.589802,11.757733 13.589802,11.713104 13.690205,11.713102 13.7466,11.713102" style="fill: white" /><polygon type="contour" points="13.987136,11.484203 13.589802,11.484203 13.589802,11.400901 13.987136,11.400901" style="fill: white" /><polygon type="contour" points="14.298902,11.484203 14.215602,11.484203 14.215602,11.400901 14.298902,11.400901" style="fill: white" /><polygon type="contour" points="14.860953,11.713104 14.860863,11.713104 14.8609,11.813507 14.860907,11.830933 14.860907,11.992401 14.860932,11.992401 14.860946,12.073265 14.860951,12.110703 14.747289,12.110144 14.645402,12.110144 14.645402,12.110701 14.572685,12.110703 14.527801,12.110703 14.528396,12.009834 14.528398,11.9924 14.528398,11.830701 14.527802,11.757733 14.527802,11.713104 14.614609,11.713102 14.718402,11.713102 14.718402,11.713101 14.806668,11.713104 14.860622,11.712833" style="fill: white" /><polygon type="contour" points="14.860726,11.461926 14.860726,11.484203 14.527802,11.484203 14.527802,11.400901 14.860984,11.400901" style="fill: white" /><polygon type="contour" points="14.860968,10.875334 14.860973,10.885077 14.860977,10.892075 14.860929,10.892075 14.861014,10.95906 14.860812,10.977825 14.860999,11.008163 14.860977,11.05082 14.860968,11.068066 14.860863,11.172002 14.747032,11.172003 14.718403,11.172003 14.718403,11.172002 14.527802,11.172002 14.527802,10.774401 14.645402,10.774401 14.645402,10.775425 14.806669,10.774401 14.86083,10.774402 14.860863,10.7744" style="fill: white" /><polygon type="contour" points="14.860984,10.488552 14.860715,10.545501 14.527802,10.545501 14.527802,10.462901 14.860984,10.462901" style="fill: white" /><polygon type="contour" points="14.8609,9.936807 14.860906,9.954076 14.860585,9.954076 14.861083,10.028302 14.861083,10.076502 14.860922,10.076502 14.8609,10.132998 14.860863,10.234002 14.747032,10.233441 14.645405,10.233441 14.645401,10.234001 14.572431,10.234002 14.527802,10.234002 14.528398,10.132999 14.528398,9.954001 14.527802,9.881031 14.527802,9.836401 14.614609,9.836402 14.718402,9.836402 14.718402,9.836401 14.806668,9.836401 14.860862,9.836124" style="fill: white" /><polygon type="contour" points="14.860984,9.550068 14.860715,9.607501 14.527802,9.607501 14.527802,9.524201 14.860984,9.524201" style="fill: white" /><polygon type="contour" points="14.645408,8.898723 14.806668,8.897702 14.860863,8.897702 14.860899,8.998704 14.860907,9.016159 14.860907,9.177627 14.860899,9.194897 14.860863,9.295301 14.645402,9.295301 14.645402,9.295302 14.572431,9.295301 14.527802,9.295301 14.528398,9.194896 14.528398,8.998704 14.527802,8.897702 14.645401,8.897702" style="fill: white" /><polygon type="contour" points="14.860895,8.646896 14.860895,8.668801 14.527802,8.668801 14.527802,8.586201 14.860984,8.586201" style="fill: white" /><polygon type="contour" points="14.811318,8.036994 14.860918,8.014238 14.860968,8.063638 14.860995,8.118602 14.860997,8.118602 14.861,8.123352 14.860812,8.153878 14.860994,8.207032 14.860968,8.256369 14.860863,8.357302 14.747032,8.356741 14.645402,8.356741 14.645402,8.357302 14.527802,8.357302 14.527802,7.959701 14.806668,7.959701 14.810931,7.959679" style="fill: white" /><polygon type="contour" points="14.861229,7.710826 14.861229,7.7308 14.527802,7.7308 14.527802,7.647501 14.860984,7.647501" style="fill: white" /><polygon type="contour" points="14.298902,7.7308 14.215602,7.7308 14.215602,7.647501 14.298902,7.647501" style="fill: white" /><polygon type="contour" points="13.987136,7.7308 13.589802,7.7308 13.589802,7.647501 13.987136,7.647501" style="fill: white" /><polygon type="contour" points="13.987302,8.063638 13.987302,8.256369 13.987136,8.357302 13.887151,8.357301 13.829899,8.357301 13.75878,8.356704 13.7074,8.356704 13.63443,8.357302 13.589801,8.357302 13.589799,8.256369 13.589799,8.080801 13.589802,8.005659 13.589802,7.959701 13.690205,7.959703 13.7466,7.959703 13.817535,7.959702 13.8698,7.959702 13.942772,7.959701 13.987136,7.959701" style="fill: white" /><polygon type="contour" points="14.298902,8.357302 14.215602,8.357302 14.215602,7.959701 14.298902,7.959701" style="fill: white" /><polygon type="contour" points="14.298902,8.668801 14.215602,8.668801 14.215602,8.586201 14.298902,8.586201" style="fill: white" /><polygon type="contour" points="13.987136,8.668801 13.589802,8.668801 13.589802,8.586201 13.987136,8.586201" style="fill: white" /><polygon type="contour" points="13.986699,8.998704 13.986699,9.177702 13.987136,9.25067 13.987136,9.295301 13.829899,9.295301 13.758779,9.295302 13.690206,9.295302 13.589802,9.295301 13.589801,9.194897 13.589801,8.998705 13.589802,8.897702 13.690206,8.8983 13.7466,8.8983 13.817534,8.897703 13.8698,8.897703 13.942772,8.897702 13.987136,8.897702" style="fill: white" /><polygon type="contour" points="14.298902,9.295301 14.215601,9.295301 14.215602,9.194896 14.215602,8.897702 14.298902,8.897702" style="fill: white" /><polygon type="contour" points="14.298902,9.607501 14.215602,9.607501 14.215602,9.524201 14.298902,9.524201" style="fill: white" /><polygon type="contour" points="13.987136,9.607501 13.589802,9.607501 13.589802,9.524201 13.987136,9.524201" style="fill: white" /><polygon type="contour" points="13.986699,9.936806 13.986699,10.132999 13.987136,10.234002 13.887151,10.234001 13.829899,10.234001 13.75878,10.233403 13.690205,10.233403 13.589802,10.234002 13.589801,10.132999 13.589801,9.954002 13.589802,9.88103 13.589802,9.836401 13.690205,9.836403 13.869799,9.836403 13.942771,9.836401 13.987136,9.836401" style="fill: white" /><polygon type="contour" points="14.298902,10.234002 14.215602,10.234002 14.215602,9.836401 14.298902,9.836401" style="fill: white" /><polygon type="contour" points="14.298902,10.545501 14.215602,10.545501 14.215602,10.462901 14.298902,10.462901" style="fill: white" /><polygon type="contour" points="13.987136,10.545501 13.589802,10.545501 13.589802,10.462901 13.987136,10.462901" style="fill: white" /><polygon type="contour" points="13.987302,10.875334 13.987302,11.050903 13.987136,11.126045 13.987136,11.172002 13.887151,11.172001 13.690206,11.172001 13.589802,11.172002 13.589799,11.068065 13.589799,10.875335 13.589802,10.774401 13.690205,10.775 13.7466,10.775 13.817535,10.774402 13.869799,10.774402 13.942772,10.774401 13.987136,10.774401" style="fill: white" /><polygon type="contour" points="12.8086,10.774402 12.87972,10.775 12.9311,10.775 13.004071,10.774401 13.0487,10.774401 13.048701,10.875334 13.048701,11.050902 13.0487,11.126045 13.0487,11.172002 12.948293,11.172001 12.667503,11.172001 12.66725,11.169642 12.666843,11.068065 12.666845,11.063286 12.666701,11.038374 12.666701,10.892075 12.666934,10.80966 12.666754,10.7744" style="fill: white" /><polygon type="contour" points="12.786841,10.462902 12.808602,10.462902 12.879721,10.462901 13.0487,10.462901 13.0487,10.545501 12.8919,10.545501 12.815814,10.545502 12.786842,10.545502 12.730849,10.545501 12.666206,10.545501 12.665989,10.519849 12.665989,10.462901 12.730849,10.462901" style="fill: white" /><polygon type="contour" points="13.0487,10.234002 12.948294,10.233403 12.891899,10.233403 12.81584,10.234 12.815812,10.234001 12.8086,10.234002 12.8086,10.234 12.707955,10.234002 12.665451,10.234002 12.665474,10.132998 12.665403,10.115702 12.665403,10.002053 12.665329,9.993202 12.665465,9.993202 12.665042,9.871662 12.66492,9.836401 12.8086,9.836402 12.87972,9.836403 12.931099,9.836403 13.00407,9.836401 13.0487,9.836401" style="fill: white" /><polygon type="contour" points="13.360902,10.234002 13.277598,10.234002 13.277598,9.836401 13.360902,9.836401" style="fill: white" /><polygon type="contour" points="13.360902,10.545501 13.277598,10.545501 13.277598,10.462901 13.360902,10.462901" style="fill: white" /><polygon type="contour" points="13.360902,11.172002 13.277598,11.172002 13.277598,10.774401 13.360902,10.774401" style="fill: white" /><polygon type="contour" points="13.360902,11.484203 13.277598,11.484203 13.277598,11.400901 13.360902,11.400901" style="fill: white" /><polygon type="contour" points="13.0487,11.484203 12.667608,11.484203 12.667608,11.400901 13.0487,11.400901" style="fill: white" /><polygon type="contour" points="13.00407,11.713104 13.0487,11.713104 13.0487,11.9924 13.049009,12.009834 13.049502,12.110703 12.94874,12.110104 12.891899,12.110104 12.815902,12.110701 12.815873,12.110702 12.796497,12.110702 12.710253,12.110703 12.668574,12.110703 12.668828,12.009834 12.668919,11.964071 12.668755,11.944349 12.668755,11.830702 12.668334,11.748155 12.668156,11.713104 12.786961,11.713103 12.8086,11.713103 12.87972,11.713102 12.931099,11.713102" style="fill: white" /><polygon type="contour" points="12.992025,12.338564 13.048701,12.338564 13.048701,12.46302 13.048699,12.722114 13.048697,12.808601 13.048698,12.808601 13.048102,12.879721 13.048102,12.9311 13.0487,13.004072 13.0487,13.048702 12.948294,13.048103 12.8919,13.048103 12.815812,13.048701 12.796538,13.048701 12.722113,13.048702 12.338562,13.048702 12.338199,12.955401 12.338199,12.78205 12.33842,12.717949 12.338359,12.707937 12.338359,12.669553 12.357372,12.669477 12.42098,12.669546 12.420983,12.670441 12.59505,12.667714 12.666656,12.66663 12.669138,12.487021 12.669211,12.480756 12.670332,12.420982 12.669543,12.420982 12.669586,12.410194 12.669552,12.338362 12.707936,12.338362 12.717947,12.338422 12.782048,12.338202 12.931099,12.338202" style="fill: white" /><polygon type="contour" points="13.360902,12.065807 13.361703,12.110703 13.277598,12.110703 13.277598,11.713104 13.360902,11.713104" style="fill: white" /><polygon type="contour" points="13.930388,12.338564 13.987063,12.338564 13.987063,12.381357 13.986911,12.432797 13.987243,12.722115 13.987351,12.8071 13.986699,12.879721 13.986699,12.9311 13.987136,13.004072 13.987136,13.048702 13.887152,13.0487 13.829899,13.0487 13.758779,13.048701 13.690206,13.048701 13.589802,13.048702 13.589801,12.948296 13.589801,12.891901 13.5898,12.815814 13.5898,12.392082 13.589802,12.338564 13.683098,12.338202 13.869652,12.338202" style="fill: white" /><polygon type="contour" points="14.234633,12.338362 14.298902,12.338362 14.298902,13.048702 14.215601,13.048702 14.2156,12.948296 14.2156,12.8919 14.215602,12.815814 14.215602,12.338361" style="fill: white" /><polygon type="contour" points="14.298902,12.065807 14.299703,12.110703 14.2148,12.110703 14.215292,12.009834 14.215602,11.992401 14.215602,11.713104 14.298902,11.713104" style="fill: white" /><polygon type="contour" points="14.861346,12.338362 14.861257,12.357373 14.860848,12.463034 14.95189,12.463635 14.962526,12.463595 15.017975,12.463514 15.051463,12.463564 15.051463,12.780524 15.051425,12.796726 15.026002,12.796636 15.017976,12.796714 14.860728,12.796526 14.861737,12.905198 14.861532,12.931027 14.860876,13.013442 14.860863,13.048702 14.527802,13.048702 14.528398,12.948296 14.528398,12.891901 14.527769,12.81177 14.527775,12.808601 14.527956,12.722114 14.528255,12.463019 14.528255,12.392083 14.528138,12.338564 14.604432,12.338202 14.757937,12.338202" style="fill: white" /><polygon type="contour" points="14.860984,13.360903 14.527802,13.360903 14.527802,13.2776 14.860984,13.2776" style="fill: white" /><polygon type="contour" points="14.8609,13.690206 14.860784,13.746602 14.860907,13.746602 14.860907,13.755454 14.861258,13.849857 14.860876,13.952142 14.860863,13.987137 14.747032,13.986702 14.718402,13.986702 14.718402,13.986266 14.572431,13.987137 14.527802,13.987137 14.527801,13.887154 14.527801,13.829902 14.528398,13.758782 14.528398,13.707402 14.527802,13.634433 14.527802,13.589803 14.860863,13.589803" style="fill: white" /><polygon type="contour" points="14.860984,14.298903 14.527802,14.298903 14.527802,14.215603 14.860984,14.215603" style="fill: white" /><polygon type="contour" points="14.645402,14.527803 14.860863,14.527803 14.86071,14.61461 14.860696,14.718434 14.968673,14.718205 15.017976,14.718214 15.051425,14.718225 15.051191,14.95218 15.051239,14.972959 15.051239,15.051242 14.79957,15.051505 14.779252,15.051505 14.718354,15.051558 14.718354,14.915887 14.718512,14.861574 14.562906,14.860762 14.527802,14.860866 14.5278,14.727025 14.5278,14.645403 14.527799,14.645403 14.527802,14.572432 14.527802,14.527803 14.614609,14.527802 14.645402,14.527802" style="fill: white" /><polygon type="contour" points="14.298902,14.860986 14.215602,14.860986 14.215602,14.527803 14.298902,14.527803" style="fill: white" /><polygon type="contour" points="13.360902,14.860986 13.277598,14.860986 13.277598,14.527803 13.360902,14.527803" style="fill: white" /><polygon type="contour" points="12.879719,14.5284 12.931099,14.5284 13.004071,14.527803 13.048699,14.527803 13.048701,14.61461 13.048701,14.645403 13.048698,14.645403 13.0487,14.806672 13.0487,14.860866 12.948294,14.861499 12.8919,14.861475 12.8919,14.861532 12.796505,14.86069 12.796779,14.955875 12.796713,15.017978 12.796725,15.051427 12.780522,15.051465 12.463562,15.051465 12.463507,15.021891 12.463512,15.017978 12.463633,14.951892 12.4636,14.860811 12.410193,14.861064 12.33836,14.861349 12.338381,14.824234 12.33847,14.773925 12.3382,14.74451 12.338199,14.73115 12.338199,14.645647 12.338562,14.584815 12.338562,14.528139 12.381354,14.528139 12.432781,14.528291 12.722113,14.527958 12.806193,14.527781" style="fill: white" /><polygon type="contour" points="13.0487,14.298903 12.338359,14.298903 12.338359,14.215603 13.0487,14.215603" style="fill: white" /><polygon type="contour" points="13.360902,13.987137 13.277598,13.987137 13.277598,13.589803 13.360902,13.589803" style="fill: white" /><polygon type="contour" points="13.360902,14.298903 13.277598,14.298903 13.277598,14.215603 13.360902,14.215603" style="fill: white" /><polygon type="contour" points="13.690206,14.5284 13.7466,14.5284 13.817534,14.527803 13.987136,14.527803 13.987218,14.61461 13.987218,14.645403 13.986337,14.645402 13.987136,14.806671 13.987136,14.860866 13.887152,14.861166 13.869724,14.861185 13.831984,14.861226 13.751008,14.860925 13.625061,14.860877 13.589802,14.860866 13.589801,14.727025 13.589801,14.718408 13.589802,14.718408 13.589802,14.527802" style="fill: white" /><polygon type="contour" points="13.987136,14.298903 13.589802,14.298903 13.589802,14.215603 13.987136,14.215603" style="fill: white" /><polygon type="contour" points="14.298902,14.298903 14.215602,14.298903 14.215602,14.215603 14.298902,14.215603" style="fill: white" /><polygon type="contour" points="14.298902,13.987137 14.215602,13.987137 14.215602,13.829902 14.2156,13.758782 14.2156,13.707402 14.215602,13.634433 14.215602,13.589803 14.298902,13.589803" style="fill: white" /><polygon type="contour" points="13.986699,13.690207 13.986699,13.746601 13.987295,13.817537 13.987295,13.869802 13.987136,13.942772 13.987136,13.987137 13.887151,13.987297 13.8299,13.987297 13.758779,13.986701 13.690206,13.986701 13.589802,13.987137 13.589802,13.829901 13.589801,13.758781 13.589801,13.690207 13.589802,13.589803 13.987136,13.589803" style="fill: white" /><polygon type="contour" points="14.298902,13.360903 14.215602,13.360903 14.215602,13.2776 14.298902,13.2776" style="fill: white" /><polygon type="contour" points="13.987136,13.360903 13.589802,13.360903 13.589802,13.2776 13.987136,13.2776" style="fill: white" /><polygon type="contour" points="13.360902,13.048702 13.277598,13.048702 13.277598,12.338362 13.360902,12.338362" style="fill: white" /><polygon type="contour" points="13.360902,13.360903 13.277598,13.360903 13.277598,13.2776 13.360902,13.2776" style="fill: white" /><polygon type="contour" points="12.796537,13.589803 13.0487,13.589803 13.0487,13.746602 13.048699,13.817537 13.048699,13.869802 13.0487,13.942773 13.0487,13.987137 12.948293,13.986701 12.8919,13.986701 12.81325,13.987362 12.8086,13.987356 12.722113,13.987244 12.463018,13.986947 12.39208,13.986947 12.338562,13.987065 12.338199,13.894298 12.338199,13.707401 12.338562,13.646477 12.338562,13.589803 12.381354,13.589803 12.421045,13.589802 12.722113,13.589802" style="fill: white" /><polygon type="contour" points="12.804246,13.277601 12.87972,13.2776 13.0487,13.2776 13.0487,13.360903 12.338359,13.360903 12.338359,13.2776 12.670623,13.2776" style="fill: white" /><polygon type="contour" points="12.1107,13.361703 12.009833,13.361212 11.992399,13.360903 11.713101,13.360903 11.713101,13.2776 12.065804,13.2776 12.1107,13.276799" style="fill: white" /><polygon type="contour" points="12.110103,13.69007 12.110103,13.746601 12.1107,13.817439 12.1107,13.987937 12.009833,13.987011 11.992399,13.986701 11.813506,13.986701 11.713101,13.987137 11.713101,13.589803 12.1107,13.589803" style="fill: white" /><polygon type="contour" points="12.1107,14.299705 12.009834,14.299212 11.9924,14.298903 11.713101,14.298903 11.713101,14.215603 12.1107,14.215603" style="fill: white" /><polygon type="contour" points="12.1107,14.645404 12.110043,14.645407 12.110043,14.727113 12.1107,14.860954 12.009833,14.860935 11.9924,14.860934 11.9924,14.860909 11.830701,14.860909 11.813505,14.860901 11.713101,14.860866 11.713101,14.645403 11.7131,14.645403 11.713101,14.572432 11.713101,14.527803 11.813505,14.5284 11.992399,14.5284 12.065804,14.527803 12.1107,14.527803" style="fill: white" /><polygon type="contour" points="11.4842,14.860986 11.400899,14.860986 11.400899,14.527803 11.4842,14.527803" style="fill: white" /><polygon type="contour" points="11.171999,14.61461 11.171999,14.718408 11.172,14.718408 11.172,14.806672 11.172001,14.860737 11.172001,14.860804 11.172,14.860866 11.068064,14.860971 11.013101,14.860998 11.013101,14.861 11.010703,14.861002 10.996201,14.860814 10.957956,14.861015 10.94818,14.860814 10.932445,14.861001 10.929801,14.861 10.875332,14.860971 10.774399,14.860866 10.77506,14.727025 10.77506,14.645406 10.774399,14.645403 10.774399,14.527803 11.068063,14.527803 11.172,14.527802" style="fill: white" /><polygon type="contour" points="11.172,14.298903 10.774399,14.298903 10.774399,14.215603 11.172,14.215603" style="fill: white" /><polygon type="contour" points="11.4842,14.298903 11.400899,14.298903 11.400899,14.215603 11.4842,14.215603" style="fill: white" /><polygon type="contour" points="11.4842,13.987137 11.400899,13.987137 11.400899,13.589803 11.4842,13.589803" style="fill: white" /><polygon type="contour" points="11.172,13.589803 11.172,13.746602 11.171999,13.817537 11.171999,13.869802 11.172,13.942773 11.172,13.987137 11.068063,13.987303 10.875332,13.987303 10.774399,13.987137 10.774401,13.887153 10.774401,13.829901 10.774998,13.758782 10.774998,13.707401 10.774399,13.634432 10.774399,13.589803 10.875332,13.589801 10.929801,13.589801 11.001295,13.5898 11.068063,13.5898" style="fill: white" /><polygon type="contour" points="11.172,13.360903 10.774399,13.360903 10.774399,13.2776 11.172,13.2776" style="fill: white" /><polygon type="contour" points="11.4842,13.360903 11.400899,13.360903 11.400899,13.2776 11.4842,13.2776" style="fill: white" /><polygon type="contour" points="11.4842,13.048702 11.400899,13.048702 11.400899,12.667609 11.4842,12.667609" style="fill: white" /><polygon type="contour" points="10.892073,12.666703 11.039529,12.666703 11.158644,12.667462 11.171999,12.667504 11.171999,12.808601 11.172,12.879721 11.172,13.048702 10.774399,13.048702 10.774998,12.948296 10.774998,12.8919 10.7744,12.815842 10.7744,12.796538 10.774399,12.709261 10.774399,12.666757 10.875333,12.666646" style="fill: white" /><polygon type="contour" points="10.545499,12.666208 10.545499,13.048702 10.462899,13.048702 10.462899,12.66599 10.519848,12.66599" style="fill: white" /><polygon type="contour" points="9.936806,12.665271 9.954074,12.665331 10.067649,12.665331 10.069744,12.665348 10.219847,12.665533 10.233999,12.665605 10.233999,12.808601 10.233402,12.87972 10.233402,12.9311 10.234,13.004072 10.234,13.048702 10.132997,13.048701 9.936806,13.048701 9.836399,13.048702 9.836402,12.948295 9.836402,12.8919 9.8364,12.815814 9.8364,12.796539 9.836399,12.707957 9.836399,12.664923" style="fill: white" /><polygon type="contour" points="9.607499,12.664297 9.607499,13.048702 9.524199,13.048702 9.524199,12.664298 9.539672,12.664291 9.592282,12.664291 9.606222,12.664192" style="fill: white" /><polygon type="contour" points="9.295299,12.808601 9.2953,12.808601 9.295299,12.879721 9.295299,13.048702 9.194893,13.048701 9.015897,13.048701 8.942329,13.048702 8.8977,13.048702 8.898298,12.948296 8.898298,12.891901 8.8977,12.815814 8.8977,12.665454 8.998703,12.665476 9.015999,12.665405 9.129647,12.665405 9.138499,12.665331 9.138499,12.665508 9.280761,12.664862 9.295301,12.664819" style="fill: white" /><polygon type="contour" points="8.32204,12.666937 8.357301,12.666757 8.357299,12.808601 8.3573,12.808601 8.356701,12.879721 8.356701,12.9311 8.357301,13.004071 8.357301,13.048702 8.256366,13.048703 8.201899,13.048703 8.130405,13.048702 7.9597,13.048702 7.9597,12.8919 7.959701,12.815813 7.959701,12.796538 7.9597,12.709261 7.9597,12.667289 7.996004,12.667145 8.080871,12.666775 8.239627,12.666775 8.239627,12.666703" style="fill: white" /><polygon type="contour" points="8.668799,13.048702 8.5862,13.048702 8.5862,12.666208 8.611849,12.66599 8.668799,12.66599" style="fill: white" /><polygon type="contour" points="8.668799,13.360903 8.5862,13.360903 8.5862,13.2776 8.668799,13.2776" style="fill: white" /><polygon type="contour" points="8.239699,13.589801 8.31267,13.589803 8.357301,13.589803 8.356701,13.690207 8.356701,13.7466 8.357298,13.817536 8.357298,13.869802 8.357301,13.942772 8.357301,13.987137 8.256367,13.987303 8.0808,13.987303 8.005657,13.987137 7.9597,13.987137 7.959701,13.887152 7.959701,13.8299 7.9597,13.758781 7.9597,13.589803 8.063636,13.5898 8.1186,13.5898" style="fill: white" /><polygon type="contour" points="8.357301,13.360903 7.9597,13.360903 7.9597,13.2776 8.357301,13.2776" style="fill: white" /><polygon type="contour" points="7.730799,13.048702 7.6475,13.048702 7.6475,12.667609 7.730799,12.667609" style="fill: white" /><polygon type="contour" points="7.4186,12.800498 7.4186,12.808601 7.418599,12.879721 7.418599,13.048702 7.318194,13.048701 7.1393,13.048701 7.065895,13.048702 7.021,13.049503 7.021597,12.948741 7.021597,12.8919 7.021001,12.815875 7.021001,12.710255 7.021,12.668575 7.121865,12.668829 7.167474,12.668924 7.187351,12.668758 7.301,12.668758 7.383546,12.668336 7.418599,12.668157" style="fill: white" /><polygon type="contour" points="6.793341,13.277601 6.793341,13.360903 6.323099,13.360903 6.251979,13.360904 6.2006,13.360904 6.127628,13.360903 6.082998,13.360903 6.082998,13.2776 6.183405,13.277601 6.239799,13.277601 6.315886,13.2776 6.720894,13.2776" style="fill: white" /><polygon type="contour" points="6.793137,13.589803 6.793502,13.683101 6.793502,13.869654 6.793137,13.930389 6.793137,13.987065 6.749982,13.987065 6.698232,13.986912 6.409428,13.987245 6.324615,13.987354 6.251979,13.986701 6.2006,13.986701 6.127629,13.987137 6.082998,13.987137 6.083001,13.887153 6.083001,13.829902 6.082999,13.758782 6.082999,13.707402 6.082998,13.634432 6.082998,13.589803 6.335161,13.589803 6.409429,13.589802 6.739162,13.589802" style="fill: white" /><polygon type="contour" points="7.121865,13.589494 7.139299,13.589803 7.418599,13.589803 7.418599,13.987137 7.318194,13.986701 7.1393,13.986701 7.065895,13.987137 7.021,13.987937 7.021001,13.887604 7.021001,13.829902 7.021597,13.758877 7.021597,13.707401 7.021,13.634688 7.021,13.589001" style="fill: white" /><polygon type="contour" points="7.418599,13.360903 7.021,13.360903 7.021,13.2776 7.418599,13.2776" style="fill: white" /><polygon type="contour" points="7.730799,13.360903 7.6475,13.360903 7.6475,13.2776 7.730799,13.2776" style="fill: white" /><polygon type="contour" points="7.730799,13.987137 7.6475,13.987137 7.6475,13.589803 7.730799,13.589803" style="fill: white" /><polygon type="contour" points="7.730799,14.298903 7.6475,14.298903 7.6475,14.215603 7.730799,14.215603" style="fill: white" /><polygon type="contour" points="7.418599,14.298903 7.021,14.298903 7.021,14.215603 7.418599,14.215603" style="fill: white" /><polygon type="contour" points="7.121866,14.52809 7.1393,14.5284 7.318195,14.5284 7.418599,14.527803 7.418599,14.761155 7.318799,14.761155 7.318799,14.860901 7.318194,14.860902 7.300768,14.860909 7.1393,14.860909 7.1393,14.860934 7.058436,14.860949 7.021001,14.860954 7.021658,14.727112 7.021658,14.645403 7.021,14.645403 7.021,14.527001" style="fill: white" /><polygon type="contour" points="6.793341,14.298903 6.082998,14.298903 6.082998,14.215603 6.793341,14.215603" style="fill: white" /><polygon type="contour" points="6.335162,14.527802 6.409429,14.527958 6.668226,14.528257 6.739161,14.528257 6.793137,14.52814 6.793502,14.604434 6.793502,14.731149 6.793317,14.824233 6.793339,14.861348 6.774168,14.86126 6.668104,14.860851 6.668066,14.951893 6.668106,14.96253 6.668186,15.017978 6.668136,15.051465 6.351177,15.051466 6.334975,15.051428 6.335065,15.026003 6.334986,15.017978 6.335174,14.86073 6.22652,14.861739 6.11826,14.860879 6.082998,14.860866 6.082999,14.727024 6.082999,14.718408 6.083,14.718408 6.082998,14.572432 6.082998,14.527803 6.183405,14.5284 6.239799,14.5284 6.319952,14.52777" style="fill: white" /><polygon type="contour" points="5.854098,14.860986 5.770798,14.860986 5.770798,14.527803 5.854098,14.527803" style="fill: white" /><polygon type="contour" points="4.9161,14.860986 4.832799,14.860986 4.832799,14.527803 4.9161,14.527803" style="fill: white" /><polygon type="contour" points="5.372919,14.5284 5.441495,14.5284 5.541899,14.527803 5.541899,14.860866 5.441495,14.860901 5.380306,14.860926 5.288732,14.861266 5.179403,14.860762 5.144566,14.860866 5.144999,14.727024 5.144999,14.645406 5.144484,14.645403 5.144566,14.572433 5.144566,14.527803 5.301798,14.527803" style="fill: white" /><polygon type="contour" points="5.541899,14.298903 5.144566,14.298903 5.144566,14.215603 5.541899,14.215603" style="fill: white" /><polygon type="contour" points="5.854098,14.298903 5.770798,14.298903 5.770798,14.215603 5.854098,14.215603" style="fill: white" /><polygon type="contour" points="5.854098,13.987137 5.770798,13.987137 5.770798,13.589803 5.854098,13.589803" style="fill: white" /><polygon type="contour" points="5.5419,13.690206 5.5419,13.746602 5.541899,13.817537 5.541899,13.987137 5.441494,13.986701 5.3851,13.986701 5.314163,13.987297 5.261898,13.987297 5.18893,13.987137 5.144566,13.987137 5.144404,13.887153 5.144404,13.829901 5.144999,13.758782 5.144999,13.707402 5.144566,13.634432 5.144566,13.589803 5.541899,13.589803" style="fill: white" /><polygon type="contour" points="5.854098,13.048702 5.770798,13.048702 5.770798,12.338362 5.854098,12.338362" style="fill: white" /><polygon type="contour" points="5.854098,13.360903 5.770798,13.360903 5.770798,13.2776 5.854098,13.2776" style="fill: white" /><polygon type="contour" points="5.541899,13.360903 5.144566,13.360903 5.144566,13.2776 5.541899,13.2776" style="fill: white" /><polygon type="contour" points="4.9161,13.004071 4.916101,13.048702 4.832799,13.048702 4.832799,12.8919 4.8328,12.815813 4.8328,12.796538 4.832799,12.670626 4.832799,12.338362 4.9161,12.338362" style="fill: white" /><polygon type="contour" points="4.916101,13.335034 4.9161,13.360903 4.832799,13.360903 4.832799,13.2776 4.916101,13.2776" style="fill: white" /><polygon type="contour" points="4.413297,13.277602 4.559269,13.2776 4.603898,13.2776 4.603898,13.360903 4.270717,13.360903 4.270717,13.2776 4.413297,13.2776" style="fill: white" /><polygon type="contour" points="4.603302,13.690207 4.603302,13.746602 4.603899,13.817536 4.603899,13.869802 4.603898,13.942773 4.603898,13.987137 4.517092,13.986702 4.486298,13.986702 4.486299,13.986344 4.32503,13.987137 4.270837,13.987137 4.270535,13.887154 4.270482,13.838926 4.270971,13.707476 4.270793,13.707476 4.270793,13.707475 4.270822,13.625063 4.270837,13.589803 4.603898,13.589803" style="fill: white" /><polygon type="contour" points="4.9161,13.987137 4.832799,13.987137 4.832799,13.589803 4.9161,13.589803" style="fill: white" /><polygon type="contour" points="4.9161,14.298903 4.832799,14.298903 4.832799,14.215603 4.9161,14.215603" style="fill: white" /><polygon type="contour" points="4.603898,14.298903 4.270717,14.298903 4.270717,14.215603 4.603898,14.215603" style="fill: white" /><polygon type="contour" points="4.559269,14.527803 4.603897,14.527803 4.603899,14.61461 4.603899,14.718408 4.6039,14.718408 4.603898,14.806672 4.603898,14.860866 4.517092,14.86123 4.413255,14.861364 4.413344,15.051558 4.352446,15.051505 4.332127,15.051505 4.080459,15.051242 4.080459,14.972959 4.080505,14.952181 4.080275,14.718225 4.105697,14.718322 4.113723,14.718214 4.271146,14.718427 4.270823,14.563063 4.270837,14.527803 4.486299,14.527803 4.486299,14.527802" style="fill: white" />
</svg>
