<svg width="19.131698" height="19.131699">
<polygon type="contour" points="7.737989,7.719493 7.829287,7.719533 8.001057,7.719829 8.000976,7.769407 8.0011,7.888116 8.130275,7.887597 8.130525,8.009379 8.130275,8.113472 8.130275,8.130278 8.016884,8.130526 7.905291,8.130278 7.887595,8.130278 7.88759,8.115933 7.88809,8.001095 7.739308,8.001095 7.719887,8.001119 7.719491,7.737991 7.719399,7.735483 7.719101,7.73038 7.718822,7.718825" style="fill: white" /><polygon type="contour" points="8.024147,8.648481 8.113469,8.648925 8.130274,8.648925 8.130583,8.742556 8.130582,8.743871 8.130318,9.037798 8.130318,9.09926 8.130275,9.193137 8.130275,9.210944 8.01428,9.211424 8.010874,9.211411 7.904934,9.210991 7.887608,9.210991 7.887678,9.066542 7.719514,9.066542 7.71954,9.041264 7.719792,8.773429 7.888043,8.773429 7.887595,8.648924 8.009378,8.648407" style="fill: white" /><polygon type="contour" points="8.7736,8.64867 9.037797,8.649081 9.099258,8.649081 9.193134,8.648925 9.210942,8.648925 9.211065,8.734081 9.211007,8.748378 9.211221,9.038397 9.211221,9.099291 9.21088,9.193556 9.21088,9.210991 9.10144,9.211315 9.099289,9.211313 8.80304,9.211098 8.743848,9.211098 8.663711,9.210991 8.648922,9.210944 8.649079,9.110286 8.649079,9.06667 8.648668,8.803764 8.648668,8.743871 8.648922,8.664061 8.648922,8.648925 8.74759,8.648629" style="fill: white" /><polygon type="contour" points="9.066609,7.794842 9.066609,7.88768 9.21088,7.88761 9.211386,8.009461 9.21088,8.113811 9.210942,8.130278 9.110283,8.130321 9.066668,8.130321 8.803762,8.130559 8.743869,8.130559 8.664059,8.130278 8.648922,8.130278 8.648406,8.016885 8.648922,7.905293 8.648922,7.887597 8.662064,7.88765 8.773488,7.88805 8.773488,7.744246 8.773485,7.732247 8.773485,7.719783 8.791767,7.719652 9.065449,7.717968" style="fill: white" /><polygon type="contour" points="11.412302,7.735482 11.412209,7.737991 11.411813,8.001119 11.243585,8.001119 11.244106,8.130278 11.122321,8.130527 11.018231,8.130278 11.001425,8.130278 11.001174,8.016885 11.001425,7.905292 11.001425,7.887597 11.015769,7.887592 11.1306,7.888092 11.130723,7.769407 11.130643,7.719829 11.302413,7.719533 11.393712,7.719493 11.412877,7.718825" style="fill: white" /><polygon type="contour" points="10.339933,7.719652 10.358216,7.719783 10.358216,7.727211 10.358213,7.744247 10.358459,7.888045 10.482778,7.887597 10.483294,8.009379 10.483221,8.024149 10.482778,8.113472 10.482778,8.130277 10.389146,8.130586 10.387831,8.130585 10.093904,8.130321 10.032442,8.130321 9.938563,8.130278 9.920756,8.130278 9.920278,8.01426 9.920291,8.010919 9.920709,7.904935 9.920709,7.88761 10.065237,7.88768 10.06509,7.794843 10.066251,7.717968" style="fill: white" /><polygon type="contour" points="10.46764,8.648925 10.482778,8.648925 10.483072,8.747627 10.482621,9.037799 10.482621,9.099261 10.482778,9.193137 10.482778,9.210944 10.387852,9.211082 10.387852,9.211076 10.093304,9.21129 10.032412,9.21129 9.938143,9.210991 9.920709,9.210991 9.920386,9.101448 9.920388,9.099291 9.920604,8.803042 9.920604,8.74385 9.920709,8.663712 9.920756,8.648925 10.021417,8.649081 10.065102,8.649081 10.32801,8.64867 10.387831,8.64867" style="fill: white" /><polygon type="contour" points="11.226409,8.648925 11.244106,8.648925 11.244051,8.662067 11.24365,8.773429 11.411908,8.773429 11.412159,9.041264 11.412186,9.066542 11.24402,9.066542 11.244093,9.210991 11.122239,9.211435 11.017892,9.210991 11.001425,9.210944 11.001383,9.110285 11.001383,9.066669 11.001141,8.803764 11.001141,8.743871 11.001425,8.664061 11.001425,8.648925 11.114816,8.648408" style="fill: white" /><polygon type="contour" points="11.226766,9.92082 11.244093,9.92082 11.24402,10.065163 11.412186,10.065163 11.412159,10.09044 11.411908,10.358276 11.243654,10.358276 11.244106,10.482779 11.122321,10.483296 11.107552,10.483223 11.01823,10.482779 11.001425,10.482779 11.001112,10.389108 11.001141,10.358102 11.001383,10.093905 11.001383,10.032443 11.001425,9.938565 11.001425,9.920758 11.11177,9.920302" style="fill: white" /><polygon type="contour" points="11.226409,11.001426 11.244106,11.001426 11.24411,11.01577 11.243609,11.130609 11.392391,11.130609 11.411813,11.130585 11.412209,11.393713 11.412301,11.39622 11.412599,11.401324 11.412877,11.412879 11.393712,11.412212 11.302413,11.412171 11.130643,11.411875 11.130723,11.362296 11.1306,11.243587 11.001425,11.244107 11.001174,11.122324 11.001425,11.018231 11.001425,11.001426 11.114816,11.001175" style="fill: white" /><polygon type="contour" points="10.46764,11.001426 10.482778,11.001426 10.483293,11.114819 10.482778,11.22641 10.482778,11.244106 10.469635,11.244053 10.358213,11.243651 10.358213,11.387458 10.358216,11.399456 10.358216,11.411921 10.339933,11.412051 10.066251,11.413736 10.06509,11.33686 10.06509,11.244021 9.920709,11.244094 9.920267,11.122242 9.920708,11.017893 9.920756,11.001426 10.021417,11.001383 10.065101,11.001383 10.328009,11.001142 10.387832,11.001142" style="fill: white" /><polygon type="contour" points="10.032412,9.920456 10.064502,9.92048 10.065081,9.920481 10.32866,9.920676 10.387851,9.920676 10.387851,9.920675 10.387852,9.920676 10.467989,9.920819 10.482778,9.920757 10.482621,10.021419 10.482621,10.065104 10.483032,10.328012 10.483032,10.387833 10.482778,10.467643 10.482778,10.482779 10.38411,10.483074 10.3581,10.483034 10.093903,10.482623 10.032442,10.482623 9.938564,10.482779 9.920756,10.482779 9.92062,10.387853 9.920625,10.387853 9.920412,10.093306 9.920412,10.032414 9.920709,9.938146 9.920709,9.92082 10.029476,9.920454" style="fill: white" /><polygon type="contour" points="9.099289,9.920481 9.193554,9.92082 9.21088,9.92082 9.211247,10.029493 9.211245,10.032414 9.211026,10.328662 9.211026,10.387853 9.210879,10.46799 9.210941,10.482779 9.110284,10.482623 9.066668,10.482623 8.803762,10.483034 8.743868,10.483034 8.664058,10.482779 8.648922,10.482779 8.648627,10.384077 8.649079,10.093905 8.649079,10.032443 8.648922,9.938565 8.648922,9.920758 8.734078,9.920636 8.748376,9.920694 9.038395,9.920481 9.099288,9.920481 9.099288,9.92048" style="fill: white" /><polygon type="contour" points="8.113808,9.92082 8.130275,9.920758 8.130318,10.021419 8.130318,10.065104 8.130556,10.328011 8.130556,10.387833 8.130275,10.467642 8.130275,10.482778 8.016884,10.483295 7.90529,10.482779 7.887595,10.482779 7.887649,10.469636 7.888047,10.358276 7.719792,10.358276 7.71954,10.09044 7.719514,10.065163 7.887678,10.065163 7.887607,9.92082 8.00946,9.920316" style="fill: white" /><polygon type="contour" points="8.113468,11.001426 8.130275,11.001426 8.130525,11.114819 8.130275,11.226411 8.130275,11.244107 8.115931,11.244111 8.0011,11.243611 8.000976,11.362296 8.001057,11.411875 7.829287,11.412171 7.737988,11.412212 7.718823,11.412879 7.719399,11.39622 7.719491,11.393714 7.719887,11.130585 7.888114,11.130585 7.887595,11.001426 8.009378,11.001175" style="fill: white" /><polygon type="contour" points="8.743869,11.001115 8.744281,11.001116 8.773599,11.001143 9.037796,11.001383 9.099258,11.001383 9.099258,11.001382 9.193135,11.001426 9.210942,11.001426 9.211399,11.111788 9.21088,11.226767 9.21088,11.244094 9.066463,11.24402 9.066609,11.336861 9.065449,11.413736 8.791767,11.412051 8.773485,11.411921 8.773485,11.404493 8.773488,11.387457 8.773241,11.243655 8.648922,11.244107 8.648405,11.122324 8.648479,11.107554 8.648922,11.018231 8.648922,11.001426 8.742562,11.001114" style="fill: white" />
</svg>
