<svg width="19.131698" height="19.131699">
<polygon type="contour" points="7.862327,11.133702 7.927412,11.138949 7.993258,11.138443 7.997998,11.269373 7.999049,11.313097 7.997153,11.42535 7.706352,11.42535 7.706352,11.134549 7.818605,11.132652" style="fill: white" /><polygon type="contour" points="6.156146,12.436249 6.155595,12.541665 6.155595,12.649019 6.035207,12.649019 6.035267,12.543774 6.035535,12.436141 6.10914,12.436141" style="fill: white" /><polygon type="contour" points="6.092428,12.977146 6.154554,12.977146 6.154554,13.130269 6.154387,13.272455 5.882034,13.270853 5.860104,13.271598 5.860794,13.250738 5.861192,13.222452 5.858534,12.978075 5.94718,12.976506 5.957386,12.976219" style="fill: white" /><polygon type="contour" points="7.999575,13.133803 7.99899,13.176041 7.997627,13.272348 7.899971,13.271221 7.856689,13.270847 7.817904,13.27183 7.706352,13.272335 7.706352,13.234628 7.70656,13.138618 7.70656,12.977202 7.837501,12.977202 7.997094,12.977167" style="fill: white" /><polygon type="contour" points="7.999087,12.543774 7.999175,12.649019 7.852801,12.649019 7.706534,12.649013 7.706397,12.527809 7.706397,12.436242 7.874688,12.436242 7.999508,12.436141" style="fill: white" /><polygon type="contour" points="7.999689,11.882322 7.999507,12.003505 7.820991,12.003505 7.706397,12.003709 7.706313,11.878461 7.706313,11.721867 7.999305,11.721867" style="fill: white" /><polygon type="contour" points="7.409695,11.882322 7.409695,12.003709 7.24938,12.003709 7.128197,12.003504 7.128197,11.833448 7.127993,11.722008 7.25324,11.721867 7.409836,11.721867" style="fill: white" /><polygon type="contour" points="7.409695,12.436242 7.409695,12.527808 7.409538,12.649013 7.249379,12.64944 7.128089,12.649463 7.128089,12.522604 7.128196,12.436141 7.298252,12.436141" style="fill: white" /><polygon type="contour" points="7.249379,12.975648 7.409836,12.975986 7.409836,13.095845 7.249379,13.095942 7.128197,13.096166 7.128197,13.02256 7.128089,12.975555" style="fill: white" /><polygon type="contour" points="6.695453,13.047926 6.695561,13.096166 6.587927,13.096435 6.482681,13.096493 6.482681,12.976106 6.482335,12.975759 6.482404,12.97565 6.484565,12.97565 6.590036,12.976106 6.695453,12.975555" style="fill: white" /><polygon type="contour" points="6.695561,12.565162 6.695453,12.649463 6.590037,12.649019 6.482681,12.649019 6.482236,12.522605 6.482236,12.436249 6.609096,12.436249 6.695561,12.436141" style="fill: white" /><polygon type="contour" points="6.69546,11.882322 6.695561,12.003505 6.566537,12.003505 6.482236,12.003613 6.482261,11.882322 6.482689,11.722165 6.603893,11.722008 6.69546,11.722008" style="fill: white" /><polygon type="contour" points="6.156053,11.882322 6.156146,12.003613 6.083774,12.003613 6.035535,12.003505 6.035572,11.8682 6.035857,11.721867 6.155716,11.721867" style="fill: white" /><polygon type="contour" points="6.154448,11.134764 6.154554,11.273937 6.15452,11.425293 6.089796,11.425293 6.062209,11.425319 5.92591,11.425319 5.897075,11.42535 5.859368,11.42535 5.859872,11.313799 5.86099,11.274076 5.860658,11.230909 5.859576,11.134146 5.954962,11.132788 5.997037,11.132191" style="fill: white" /><polygon type="contour" points="6.695561,11.132193 6.695561,11.310708 6.69546,11.425306 6.603892,11.425306 6.482689,11.425166 6.482689,11.286217 6.482681,11.132527 6.609095,11.132131" style="fill: white" /><polygon type="contour" points="7.263501,11.132663 7.409836,11.132398 7.409836,11.42539 7.24938,11.425306 7.127993,11.425306 7.127993,11.257015 7.128197,11.132193" style="fill: white" /><polygon type="contour" points="7.409836,7.253242 7.409836,7.409837 7.24938,7.409696 7.127993,7.409696 7.127993,7.24938 7.128197,7.128199 7.298252,7.128199 7.409695,7.127995" style="fill: white" /><polygon type="contour" points="7.999048,7.818606 7.997998,7.862329 7.992751,7.927413 7.993258,7.993259 7.763548,7.989633 7.706498,7.997265 7.706498,7.817153 7.706352,7.706353 7.997153,7.706353" style="fill: white" /><polygon type="contour" points="7.409836,7.999306 7.263501,7.999039 7.128197,7.999509 7.128197,7.820993 7.127993,7.706398 7.25324,7.706314 7.409836,7.706314" style="fill: white" /><polygon type="contour" points="6.69546,7.874689 6.695561,7.99951 6.609096,7.999573 6.482681,7.999177 6.482681,7.852803 6.482689,7.706536 6.603893,7.706398 6.69546,7.706398" style="fill: white" /><polygon type="contour" points="5.994054,7.706411 6.15452,7.706411 6.15452,7.838294 6.154554,7.996941 5.997897,7.999576 5.955659,7.998991 5.859353,7.99763 5.860854,7.856692 5.859871,7.817904 5.859367,7.706353 5.897074,7.706353" style="fill: white" /><polygon type="contour" points="6.156053,7.249381 6.155716,7.409837 6.035857,7.409837 6.035758,7.249381 6.035535,7.128199 6.10914,7.128199 6.156146,7.128091" style="fill: white" /><polygon type="contour" points="6.695561,7.128198 6.695561,7.298254 6.69546,7.409696 6.603893,7.409696 6.482689,7.40954 6.482261,7.249381 6.482236,7.128091 6.609096,7.128091" style="fill: white" /><polygon type="contour" points="6.695453,6.609098 6.695561,6.695563 6.566537,6.695563 6.482236,6.695455 6.482681,6.590038 6.482681,6.482683 6.609096,6.482238 6.695453,6.482238" style="fill: white" /><polygon type="contour" points="6.155595,6.590038 6.156146,6.695455 6.083774,6.695455 6.035535,6.695563 6.035267,6.587929 6.035207,6.482683 6.155595,6.482683" style="fill: white" /><polygon type="contour" points="6.154387,5.85925 6.154387,5.901236 6.154554,6.001434 6.154554,6.154557 6.023448,6.155482 5.957386,6.155482 5.94718,6.155194 5.858534,6.153627 5.861191,5.909252 5.860103,5.860105 5.882034,5.86085 5.994807,5.848529" style="fill: white" /><polygon type="contour" points="6.587927,6.035269 6.695561,6.035536 6.695561,6.109142 6.695453,6.156148 6.590036,6.155596 6.482681,6.155596 6.482681,6.03521" style="fill: white" /><polygon type="contour" points="7.817903,5.859872 7.857625,5.860992 7.90079,5.86066 7.997555,5.859578 7.998913,5.954966 7.99951,5.997038 7.996937,6.15445 7.858868,6.154536 7.70656,6.154501 7.70656,6.089395 7.706384,6.062212 7.706384,5.925911 7.706352,5.897076 7.706352,5.859368" style="fill: white" /><polygon type="contour" points="7.2635,6.035573 7.409836,6.03586 7.409836,6.155717 7.249379,6.156055 7.128089,6.156148 7.128089,6.083775 7.128197,6.035535" style="fill: white" /><polygon type="contour" points="7.24938,6.482263 7.409538,6.482691 7.409695,6.603895 7.409695,6.695462 7.24938,6.695462 7.128197,6.695563 7.128197,6.566539 7.128089,6.482238" style="fill: white" /><polygon type="contour" points="7.999571,6.609098 7.999508,6.695563 7.820992,6.695563 7.706397,6.695462 7.706397,6.603894 7.706534,6.482691 7.845485,6.482691 7.999175,6.482683" style="fill: white" /><polygon type="contour" points="7.999507,7.128199 7.999036,7.263504 7.999305,7.409837 7.706313,7.409837 7.706397,7.249381 7.706397,7.127995 7.874687,7.127995" style="fill: white" /><polygon type="contour" points="11.425387,7.253242 11.425387,7.409837 11.132395,7.409837 11.132662,7.263503 11.132191,7.128199 11.310707,7.128199 11.425302,7.127995" style="fill: white" /><polygon type="contour" points="11.27501,5.860856 11.313797,5.859872 11.425348,5.859368 11.425348,5.897076 11.425141,5.993085 11.425141,6.154502 11.294199,6.154502 11.134606,6.154536 11.132126,5.9979 11.132711,5.955661 11.134072,5.859356" style="fill: white" /><polygon type="contour" points="11.425163,6.482691 11.425303,6.603895 11.425303,6.695462 11.257011,6.695462 11.132191,6.695563 11.132129,6.609097 11.132525,6.482683 11.278897,6.482683" style="fill: white" /><polygon type="contour" points="13.249667,5.86085 13.271596,5.860105 13.270905,5.880965 13.270508,5.909252 13.273167,6.153627 13.18452,6.155194 13.174314,6.155481 13.03927,6.154557 12.977145,6.154557 12.977146,6.092432 12.977145,6.001434 12.977312,5.85925" style="fill: white" /><polygon type="contour" points="13.272332,7.706354 13.271828,7.817904 13.270709,7.857626 13.272125,7.997556 13.176737,7.998914 13.134661,7.999511 12.97725,7.996939 12.977145,7.857766 12.977181,7.706411 13.041903,7.706411 13.06949,7.706386 13.205788,7.706386 13.234626,7.706353 13.253553,7.706353" style="fill: white" /><polygon type="contour" points="12.649011,7.706536 12.649011,7.845486 12.649018,7.999177 12.522603,7.999573 12.436139,7.99951 12.436139,7.820993 12.436241,7.706398 12.527806,7.706398" style="fill: white" /><polygon type="contour" points="12.649437,7.249381 12.649011,7.40954 12.527806,7.409696 12.436241,7.409696 12.436241,7.24938 12.436139,7.128199 12.565159,7.128199 12.649462,7.128092" style="fill: white" /><polygon type="contour" points="13.096164,7.128199 13.096129,7.263504 13.095843,7.409837 12.975984,7.409837 12.975647,7.249381 12.975554,7.128092 13.047925,7.128092" style="fill: white" /><polygon type="contour" points="13.096434,6.587929 13.096164,6.695563 13.022558,6.695563 12.975553,6.695455 12.976104,6.590038 12.976104,6.482683 13.096492,6.482683" style="fill: white" /><polygon type="contour" points="12.541663,6.482683 12.649018,6.482683 12.649461,6.609098 12.649461,6.695455 12.522603,6.695455 12.436139,6.695563 12.436139,6.566539 12.436247,6.482238" style="fill: white" /><polygon type="contour" points="12.649018,6.095243 12.649018,6.155596 12.541663,6.155596 12.436247,6.156148 12.436247,6.083775 12.436139,6.035536 12.543772,6.035269 12.649019,6.03521" style="fill: white" /><polygon type="contour" points="12.003503,6.109142 12.003611,6.156148 11.882321,6.156055 11.721864,6.155717 11.721864,6.03586 11.868199,6.035573 12.003503,6.035535" style="fill: white" /><polygon type="contour" points="12.003611,6.609098 12.003503,6.695563 11.833447,6.695563 11.722005,6.695462 11.722005,6.603894 11.722163,6.482691 11.88232,6.482263 12.003611,6.482238" style="fill: white" /><polygon type="contour" points="12.003503,7.128199 12.003503,7.298255 12.003707,7.409696 11.878459,7.409837 11.721864,7.409837 11.722005,7.249381 11.722005,7.127995 11.882321,7.127995" style="fill: white" /><polygon type="contour" points="11.88232,7.706398 12.003707,7.706398 12.003707,7.874688 12.003503,7.99951 11.868198,7.999039 11.721864,7.999306 11.721864,7.706314" style="fill: white" /><polygon type="contour" points="11.425348,7.997153 11.313094,7.999051 11.138441,7.99326 11.142068,7.763552 11.134436,7.706499 11.314547,7.706499 11.425348,7.706353" style="fill: white" /><polygon type="contour" points="11.425202,11.31455 11.425348,11.42535 11.134546,11.42535 11.13265,11.313096 11.138441,11.138442 11.36815,11.14207 11.425202,11.134438" style="fill: white" /><polygon type="contour" points="13.176041,11.132712 13.272347,11.134074 13.271221,11.231731 13.270846,11.275012 13.271827,11.313799 13.272332,11.42535 13.234625,11.42535 13.137647,11.425293 12.977181,11.425293 12.977181,11.29341 12.977145,11.134763 13.133802,11.132128" style="fill: white" /><polygon type="contour" points="13.096129,11.868199 13.096164,12.003504 13.022558,12.003505 12.975554,12.003613 12.975647,11.882322 12.975984,11.721867 13.095843,11.721867" style="fill: white" /><polygon type="contour" points="12.649011,11.722165 12.649437,11.882322 12.649462,12.003613 12.522605,12.003613 12.436139,12.003505 12.436139,11.833448 12.436241,11.722008 12.527806,11.722008" style="fill: white" /><polygon type="contour" points="12.543771,11.132611 12.649018,11.132527 12.649018,11.278899 12.649011,11.425166 12.527807,11.425306 12.436241,11.425306 12.436241,11.257015 12.436139,11.132193" style="fill: white" /><polygon type="contour" points="12.003503,11.310708 12.003707,11.425305 11.878459,11.42539 11.721864,11.42539 11.721864,11.132398 11.868198,11.132663 12.003503,11.132193" style="fill: white" /><polygon type="contour" points="11.88232,11.722008 12.003707,11.722008 12.003707,11.882323 12.003503,12.003505 11.833447,12.003505 11.722005,12.003709 11.721864,11.878461 11.721864,11.721867" style="fill: white" /><polygon type="contour" points="11.425303,11.882322 11.425303,12.003709 11.257012,12.003709 11.132191,12.003505 11.132662,11.8682 11.132395,11.721867 11.425387,11.721867" style="fill: white" /><polygon type="contour" points="11.425141,12.977201 11.425141,13.042308 11.425316,13.069491 11.425316,13.205791 11.425348,13.234629 11.425348,13.272335 11.313797,13.27183 11.274074,13.270713 11.134144,13.272127 11.132785,13.176737 11.13219,13.134662 11.134761,12.977251 11.272832,12.977167" style="fill: white" /><polygon type="contour" points="11.425303,12.436242 11.425303,12.527808 11.425164,12.649013 11.286215,12.649013 11.132526,12.649019 11.132128,12.522604 11.132191,12.436141 11.310706,12.436141" style="fill: white" /><polygon type="contour" points="12.003503,12.565162 12.003611,12.649463 11.882321,12.64944 11.722163,12.649013 11.722005,12.527809 11.722005,12.436242 11.88232,12.436242 12.003503,12.436141" style="fill: white" /><polygon type="contour" points="12.003611,13.047926 12.003503,13.096166 11.868199,13.09613 11.721864,13.095845 11.721864,12.975986 11.88232,12.975648 12.003611,12.975554" style="fill: white" /><polygon type="contour" points="12.541663,12.976106 12.649019,12.976107 12.649018,13.03614 12.649018,13.096494 12.543772,13.096435 12.436139,13.096166 12.436139,13.02256 12.436247,12.975555" style="fill: white" /><polygon type="contour" points="12.649461,12.436249 12.649018,12.541665 12.649019,12.64902 12.522605,12.649463 12.436247,12.649463 12.436247,12.522604 12.436139,12.436141 12.56516,12.436141" style="fill: white" /><polygon type="contour" points="13.096433,12.543773 13.096493,12.649019 13.036459,12.64902 12.976105,12.64902 12.976104,12.541665 12.975553,12.436249 13.047923,12.436249 13.096164,12.43614" style="fill: white" /><polygon type="contour" points="13.184519,12.976505 13.273167,12.978075 13.270507,13.222451 13.271595,13.271598 13.249666,13.270853 13.136893,13.283175 12.977312,13.272455 12.977312,13.230467 12.977145,13.130269 12.977145,13.039271 12.977146,12.977146 13.108252,12.97622 13.174313,12.976218" style="fill: white" />
</svg>
