<svg width="19.131698" height="19.131699">
<polygon type="contour" points="10.371552,10.163271 10.371759,10.24099 10.517328,10.24099 10.53772,10.240978 10.538828,10.268501 10.547099,10.547101 10.278531,10.539312 10.241642,10.538255 10.24132,10.480746 10.241204,10.466679 10.240928,10.37176 10.155075,10.371539 10.155294,10.272969 10.155294,10.225 10.155075,10.165198 10.155075,10.155077 10.224997,10.155295 10.272965,10.155295 10.357122,10.155077 10.371537,10.155077" style="fill: white" /><polygon type="contour" points="9.796623,10.225001 9.796623,10.272969 9.796662,10.357123 9.796662,10.371539 9.788517,10.371549 9.711101,10.371688 9.711101,10.53829 9.660002,10.538136 9.566101,10.53981 9.532686,10.538791 9.471944,10.538136 9.4206,10.53829 9.4206,10.371687 9.335038,10.371539 9.335077,10.272969 9.335077,10.225001 9.335038,10.165197 9.335038,10.155077 9.406477,10.155596 9.725222,10.155596 9.786617,10.155077 9.796662,10.155077" style="fill: white" /><polygon type="contour" points="8.853168,8.592391 8.890058,8.59345 8.890379,8.650957 8.890496,8.665024 8.890771,8.759944 8.976625,8.760166 8.976407,8.858734 8.976407,8.906703 8.976625,8.966505 8.976625,8.976627 8.906702,8.976409 8.858733,8.976409 8.774579,8.976627 8.760164,8.976627 8.760149,8.968432 8.759941,8.890714 8.614372,8.890714 8.593981,8.890726 8.592873,8.8632 8.584601,8.584602" style="fill: white" /><polygon type="contour" points="9.599013,8.592912 9.659755,8.593568 9.711101,8.593415 9.711101,8.760016 9.796662,8.760166 9.796623,8.858734 9.796623,8.906702 9.796662,8.966506 9.796662,8.976627 9.725222,8.976108 9.406477,8.976108 9.345082,8.976627 9.335038,8.976627 9.335077,8.906702 9.335077,8.858734 9.335038,8.774581 9.335038,8.760166 9.343182,8.760155 9.4206,8.760015 9.4206,8.593415 9.471697,8.593568 9.565501,8.591892" style="fill: white" /><polygon type="contour" points="10.538827,8.8632 10.53772,8.890726 10.517328,8.890714 10.371758,8.890714 10.371537,8.976627 10.272965,8.976409 10.224997,8.976409 10.165196,8.976627 10.155075,8.976627 10.155294,8.906703 10.155294,8.858734 10.155075,8.774581 10.155075,8.760166 10.16327,8.760151 10.241204,8.759942 10.241204,8.665024 10.241642,8.59345 10.278531,8.592391 10.547099,8.584602" style="fill: white" /><polygon type="contour" points="10.371548,9.343184 10.371687,9.420602 10.540398,9.420602 10.53981,9.544484 10.54014,9.565601 10.53981,9.586622 10.540398,9.711102 10.371686,9.711102 10.371537,9.796663 10.272966,9.796625 10.224998,9.796625 10.165195,9.796663 10.155075,9.796663 10.155595,9.725225 10.155595,9.406478 10.155075,9.345085 10.155075,9.335041 10.224997,9.335079 10.272966,9.335079 10.357121,9.335041 10.371537,9.335041" style="fill: white" /><polygon type="contour" points="9.786617,9.335041 9.796662,9.335041 9.796813,9.406478 9.796813,9.725224 9.796662,9.786618 9.796662,9.796663 9.725222,9.796816 9.406477,9.796816 9.345082,9.796663 9.335038,9.796663 9.334887,9.725224 9.334887,9.406478 9.335038,9.345085 9.335038,9.335041 9.406477,9.334888 9.725222,9.334888" style="fill: white" /><polygon type="contour" points="8.976106,9.406478 8.976106,9.725224 8.976625,9.786619 8.976625,9.796663 8.906702,9.796625 8.858733,9.796625 8.774579,9.796663 8.760164,9.796663 8.760153,9.788519 8.760013,9.711102 8.591303,9.711102 8.591889,9.58722 8.591559,9.566102 8.591889,9.545081 8.591303,9.420602 8.760014,9.420602 8.760164,9.335041 8.858733,9.335079 8.906701,9.335079 8.966504,9.335041 8.976625,9.335041" style="fill: white" /><polygon type="contour" points="8.976407,10.225 8.976407,10.272969 8.976625,10.357123 8.976625,10.371539 8.968429,10.371554 8.890496,10.371762 8.890496,10.466679 8.890057,10.538255 8.853168,10.539312 8.584601,10.547101 8.592873,10.268501 8.593981,10.240978 8.602805,10.240968 8.614371,10.24099 8.759942,10.24099 8.760164,10.155077 8.858733,10.155295 8.906702,10.155295 8.966503,10.155077 8.976625,10.155077" style="fill: white" />
</svg>
