<svg width="19.131698" height="19.131699">
<polygon type="contour" points="7.527733,13.735836 7.525495,13.803355 7.524507,13.819963 7.526757,13.878186 7.332328,13.877536 7.268856,13.877993 7.256057,13.878013 7.232066,13.878059 7.232071,13.870199 7.232957,13.701217 7.2229,13.700993 7.222944,13.657467 7.223003,13.574223 7.254055,13.574088 7.526382,13.572319" style="fill: white" /><polygon type="contour" points="6.390713,11.601377 6.514406,11.601627 6.515506,11.601635 6.515779,11.601634 6.515779,11.908918 6.514406,11.908918 6.510723,11.908921 6.299378,11.909014 6.220837,11.90908 6.22088,11.866069 6.22088,11.601918 6.262186,11.601789 6.299378,11.601344" style="fill: white" /><polygon type="contour" points="5.559382,11.605317 5.557612,11.877644 5.557479,11.908696 5.552665,11.908696 5.474232,11.908756 5.430706,11.908802 5.430872,11.898659 5.351494,11.898839 5.341921,11.898849 5.257526,11.899635 5.253643,11.899635 5.253703,11.875452 5.25371,11.862845 5.254163,11.799373 5.253575,11.605052 5.311735,11.607196 5.328344,11.606208 5.395863,11.603968" style="fill: white" /><polygon type="contour" points="5.433376,12.615921 5.560294,12.615921 5.560304,12.620978 5.560098,12.832325 5.560019,12.910866 5.430404,12.910866 5.430599,12.832325 5.430116,12.620978 5.430112,12.617295 5.430107,12.61592" style="fill: white" /><polygon type="contour" points="5.49651,13.574338 5.557364,13.574338 5.557364,13.87965 5.436121,13.881075 5.419991,13.880195 5.24522,13.886481 5.251507,13.711709 5.252035,13.573906 5.307284,13.573906" style="fill: white" /><polygon type="contour" points="6.515799,13.571408 6.515799,13.698326 6.515779,13.701596 6.515741,13.701596 6.515637,13.701597 6.515505,13.701595 6.514407,13.701591 6.510722,13.701586 6.299377,13.701102 6.220837,13.701297 6.220837,13.571683 6.237093,13.571683 6.299377,13.571604 6.510723,13.571398" style="fill: white" /><polygon type="contour" points="6.51578,12.617295 6.515775,12.620978 6.515775,12.911313 6.510722,12.911313 6.299377,12.910793 6.220837,12.910866 6.220837,12.894609 6.220908,12.832325 6.220386,12.620978 6.220386,12.615927 6.510722,12.615927 6.514407,12.615923 6.515778,12.615923" style="fill: white" /><polygon type="contour" points="7.530067,12.616195 7.530076,12.617295 7.530324,12.740987 7.530357,12.832324 7.529912,12.869516 7.529784,12.910824 7.265632,12.910824 7.222622,12.910866 7.222621,12.895597 7.222687,12.832325 7.22278,12.620978 7.222782,12.617294 7.222783,12.616213 7.222783,12.615923 7.530068,12.615923" style="fill: white" /><polygon type="contour" points="7.524694,11.607008 7.529632,11.763914 7.527328,11.909091 7.371696,11.908759 7.222943,11.908759 7.222612,11.673976 7.222718,11.604446 7.367789,11.602069" style="fill: white" /><polygon type="contour" points="7.524507,5.311738 7.525495,5.328345 7.527733,5.395867 7.526383,5.559385 7.254055,5.557616 7.223003,5.557481 7.223003,5.552668 7.223021,5.428075 7.232939,5.427056 7.232071,5.261504 7.232066,5.253645 7.256222,5.253724 7.268855,5.253711 7.332329,5.254166 7.526649,5.253576" style="fill: white" /><polygon type="contour" points="6.515779,5.43011 6.515779,5.560053 6.515799,5.560296 6.510723,5.560306 6.299377,5.5601 6.220837,5.560021 6.220837,5.430405 6.299377,5.4306 6.390714,5.430793 6.514407,5.430112 6.515505,5.430108" style="fill: white" /><polygon type="contour" points="5.4262,5.246805 5.557364,5.252054 5.557285,5.504781 5.557285,5.557287 5.50478,5.557287 5.412126,5.557366 5.252053,5.557366 5.251507,5.419993 5.24522,5.245222" style="fill: white" /><polygon type="contour" points="5.560019,6.237093 5.560098,6.299378 5.560304,6.510725 5.560294,6.515801 5.433375,6.515801 5.430107,6.515784 5.430107,6.515743 5.430106,6.51564 5.430107,6.515507 5.430112,6.514408 5.430116,6.510724 5.430599,6.299378 5.430404,6.220838 5.560019,6.220838" style="fill: white" /><polygon type="contour" points="5.474232,7.222946 5.557479,7.223006 5.557612,7.254057 5.55887,7.526803 5.527764,7.527059 5.253515,7.526757 5.254163,7.332332 5.25371,7.268859 5.253689,7.256005 5.253643,7.23207 5.338281,7.232954 5.342077,7.232954 5.345915,7.232958 5.430872,7.233044 5.430705,7.222902" style="fill: white" /><polygon type="contour" points="6.299377,7.222688 6.510723,7.222782 6.514406,7.222785 6.515779,7.222785 6.515779,7.530069 6.515506,7.530068 6.514407,7.530076 6.510722,7.530081 6.299377,7.53036 6.22088,7.529787 6.22088,7.265633 6.220837,7.222624" style="fill: white" /><polygon type="contour" points="6.515775,6.510724 6.515779,6.514408 6.515779,6.515779 6.514406,6.51578 6.510722,6.515777 6.220386,6.515777 6.220386,6.510725 6.220908,6.299378 6.220837,6.220838 6.510723,6.220388 6.515775,6.220388" style="fill: white" /><polygon type="contour" points="7.265631,6.220881 7.529784,6.220881 7.529911,6.262186 7.530357,6.299379 7.530324,6.390715 7.530076,6.514408 7.530068,6.515507 7.530069,6.51578 7.222783,6.51578 7.222781,6.514407 7.22278,6.510725 7.222686,6.299378 7.222622,6.220838" style="fill: white" /><polygon type="contour" points="7.527254,7.222721 7.529632,7.367791 7.524694,7.524696 7.367788,7.529634 7.222612,7.52733 7.222943,7.3717 7.222943,7.222945 7.457721,7.222614" style="fill: white" /><polygon type="contour" points="12.910821,7.265633 12.910821,7.529787 12.869515,7.529915 12.832322,7.530359 12.620977,7.530081 12.617292,7.530076 12.616193,7.530068 12.615921,7.530069 12.615921,7.222785 12.617293,7.222785 12.620976,7.222782 12.832322,7.222688 12.910864,7.222624" style="fill: white" /><polygon type="contour" points="13.700824,7.233044 13.780205,7.232865 13.789779,7.232854 13.874172,7.23207 13.878057,7.23207 13.877997,7.256252 13.877991,7.268858 13.877535,7.332332 13.878124,7.526651 13.603935,7.527061 13.57283,7.526804 13.574087,7.254057 13.574222,7.223006 13.579035,7.223006 13.657465,7.222947 13.70099,7.222902" style="fill: white" /><polygon type="contour" points="13.701099,6.299378 13.700907,6.390715 13.701587,6.514407 13.701592,6.515784 13.698324,6.515801 13.571405,6.515801 13.571395,6.510725 13.571602,6.299378 13.571681,6.220838 13.701294,6.220838" style="fill: white" /><polygon type="contour" points="13.880194,5.419992 13.879664,5.557796 13.824413,5.557796 13.635187,5.557366 13.574335,5.557366 13.574335,5.412127 13.574222,5.264149 13.574222,5.252172 13.58144,5.252088 13.695579,5.250629 13.711708,5.251507 13.88648,5.245222" style="fill: white" /><polygon type="contour" points="11.79937,5.254166 11.862844,5.253711 11.875643,5.253691 11.899634,5.253645 11.899629,5.261504 11.898743,5.430487 11.908801,5.430707 11.908754,5.474234 11.908694,5.557481 11.877642,5.557615 11.604899,5.558872 11.604642,5.527766 11.604943,5.253517" style="fill: white" /><polygon type="contour" points="12.617292,5.430112 12.740986,5.430793 12.832322,5.4306 12.895764,5.430404 12.910864,5.430405 12.910864,5.560021 12.894607,5.560021 12.832322,5.5601 12.620976,5.560306 12.615901,5.560296 12.615901,5.433378 12.615921,5.430109 12.615959,5.430108 12.616194,5.430108" style="fill: white" /><polygon type="contour" points="12.832322,6.22091 12.910864,6.220838 12.910864,6.237093 12.910792,6.299379 12.911312,6.510724 12.911312,6.515777 12.620977,6.515777 12.617292,6.515781 12.616211,6.51578 12.615921,6.51578 12.615921,6.514407 12.615925,6.510725 12.615925,6.220388 12.620976,6.220388" style="fill: white" /><polygon type="contour" points="11.90908,6.236106 11.909014,6.299378 11.908921,6.510724 11.908918,6.514408 11.908918,6.51578 11.601631,6.51578 11.601632,6.515507 11.601624,6.514408 11.601619,6.510724 11.601343,6.299379 11.601917,6.220881 11.866068,6.220881 11.909079,6.220838" style="fill: white" /><polygon type="contour" points="11.760003,7.222945 11.908758,7.222945 11.909088,7.457724 11.908981,7.527257 11.763911,7.529634 11.607007,7.524696 11.602067,7.36779 11.604368,7.222614" style="fill: white" /><polygon type="contour" points="11.909088,11.604372 11.908758,11.760003 11.908758,11.908759 11.673975,11.909091 11.604444,11.908983 11.602067,11.763913 11.607007,11.607008 11.763911,11.602069" style="fill: white" /><polygon type="contour" points="13.701593,12.61596 13.701594,12.616064 13.701592,12.616196 13.701588,12.617294 13.700907,12.740987 13.701099,12.832324 13.701295,12.895766 13.701294,12.910866 13.571681,12.910866 13.571681,12.894609 13.571602,12.832325 13.571395,12.620978 13.571405,12.615921 13.698323,12.615921 13.701593,12.61592" style="fill: white" /><polygon type="contour" points="13.803354,11.606208 13.819961,11.607196 13.878184,11.604946 13.877535,11.799372 13.877991,11.862846 13.87801,11.875699 13.878057,11.899635 13.793418,11.898751 13.789621,11.898751 13.785785,11.898746 13.700824,11.89866 13.70099,11.908802 13.657465,11.908756 13.574222,11.908696 13.574087,11.877644 13.572318,11.605317 13.735835,11.603968" style="fill: white" /><polygon type="contour" points="12.869514,11.601789 12.910821,11.601918 12.910821,11.866069 12.910864,11.90908 12.832321,11.909014 12.620976,11.908921 12.617293,11.908918 12.615921,11.908918 12.615921,11.601634 12.616193,11.601635 12.617293,11.601627 12.740987,11.601377 12.832321,11.601344" style="fill: white" /><polygon type="contour" points="12.620977,12.615927 12.911312,12.615927 12.911312,12.620978 12.910792,12.832325 12.910864,12.910865 12.620976,12.911313 12.615925,12.911313 12.615925,12.620979 12.615921,12.617294 12.615921,12.615923 12.617292,12.615923" style="fill: white" /><polygon type="contour" points="11.908918,12.617295 11.90892,12.620978 11.909014,12.832325 11.909079,12.910866 11.866067,12.910824 11.601917,12.910824 11.601788,12.869517 11.601343,12.832324 11.601619,12.620979 11.601624,12.617294 11.601632,12.616195 11.601631,12.615923 11.908918,12.615923" style="fill: white" /><polygon type="contour" points="11.877642,13.574088 11.908694,13.574223 11.908694,13.579036 11.908758,13.70341 11.898714,13.695622 11.899629,13.870199 11.899634,13.878059 11.875478,13.87798 11.862844,13.877993 11.799371,13.877536 11.60505,13.878124 11.604641,13.603938 11.604898,13.572832" style="fill: white" /><polygon type="contour" points="12.832322,13.571604 12.910864,13.571683 12.910864,13.701297 12.832321,13.701102 12.620977,13.701586 12.617292,13.701591 12.616193,13.701596 12.615921,13.701595 12.615921,13.57165 12.615901,13.571408 12.620976,13.571398" style="fill: white" /><polygon type="contour" points="13.880194,13.71171 13.88648,13.886481 13.705498,13.884898 13.574335,13.87965 13.574335,13.574338 13.879648,13.574338" style="fill: white" />
</svg>
