<svg width="19.131698" height="19.131699">
<polygon type="contour" points="6.669782,6.445382 6.734843,6.446007 6.734843,6.554406 6.734792,6.618932 6.88918,6.619067 7.982486,6.619067 8.118396,6.619333 8.118119,6.534304 8.118119,6.445921 8.158768,6.445753 8.406683,6.442936 8.408802,6.67982 8.409773,6.73492 8.410059,6.901848 8.410087,6.929585 8.410087,7.938078 8.410091,7.968216 8.410002,7.974998 8.409862,8.155362 8.404419,8.33368 8.403359,8.403361 8.172055,8.401602 8.147683,8.407218 8.118324,8.410053 8.052389,8.410049 7.938075,8.410089 6.929582,8.410089 6.901848,8.410062 6.899788,8.409765 6.679819,8.408805 6.442769,8.406474 6.445699,8.159501 6.44592,8.11812 6.534304,8.11812 6.619519,8.118528 6.619213,7.998484 6.619213,7.294509 6.619066,7.183459 6.619066,6.889182 6.618929,6.733824 6.443927,6.732892 6.445113,6.651227 6.44125,6.54865 6.436613,6.436615" style="fill: white" /><polygon type="contour" points="12.686588,6.651227 12.687774,6.732892 12.512771,6.733824 12.512635,6.889182 12.512635,7.183459 12.512488,7.294509 12.512488,7.998485 12.512182,8.11812 12.685779,8.11812 12.685945,8.158769 12.688766,8.406685 12.45188,8.408805 12.231911,8.409765 12.229851,8.410062 11.365517,8.410062 11.352764,8.410089 11.193624,8.410089 11.079311,8.410049 11.013376,8.410054 10.984016,8.407218 10.728341,8.403361 10.7301,8.172057 10.724485,8.147686 10.721649,8.118325 10.721653,8.05239 10.721614,7.938077 10.721614,6.929585 10.721641,6.901849 10.721937,6.89979 10.722897,6.67982 10.725229,6.442771 10.9722,6.4457 11.013582,6.445921 11.013582,6.61952 11.133216,6.619215 11.837191,6.619215 11.948243,6.619067 12.242371,6.619067 12.39657,6.618931 12.396569,6.528992 12.39678,6.446082 12.461984,6.445538 12.570001,6.440819 12.695088,6.436615" style="fill: white" /><polygon type="contour" points="11.193623,10.721615 12.202117,10.721615 12.229851,10.721642 12.231911,10.721938 12.45188,10.722899 12.688931,10.72523 12.685399,10.971602 12.685436,11.013241 12.597051,11.013241 12.512181,11.013516 12.512488,11.133219 12.512488,11.837194 12.512635,11.948244 12.512635,12.242373 12.512771,12.397173 12.687774,12.39881 12.686588,12.480474 12.690449,12.583053 12.695088,12.695089 12.461985,12.686166 12.396781,12.685622 12.396781,12.577041 12.396569,12.512772 12.242372,12.512636 11.149214,12.512636 11.013304,12.51237 11.013582,12.597396 11.013582,12.685781 10.972932,12.685947 10.725018,12.688767 10.722896,12.451882 10.721937,12.231913 10.721641,12.229853 10.721641,11.365519 10.721614,11.352766 10.721614,11.193626 10.721653,11.079313 10.721649,11.013378 10.724485,10.984018 10.728341,10.728343 10.97634,10.721838 11.156703,10.7217 11.163486,10.721611" style="fill: white" /><polygon type="contour" points="7.974997,10.7217 8.15536,10.721838 8.333679,10.727284 8.403358,10.728343 8.409862,10.976342 8.41005,11.013378 8.410046,11.079314 8.410087,11.193625 8.410087,11.352766 8.41006,11.365519 8.41006,12.229855 8.409764,12.231915 8.408802,12.451883 8.406472,12.688932 8.159501,12.686 8.118119,12.685781 8.118119,12.512182 7.998483,12.512489 7.294508,12.512489 7.183457,12.512636 6.889181,12.512636 6.734793,12.512772 6.734793,12.60271 6.734919,12.685622 6.669715,12.686166 6.561697,12.690884 6.436613,12.695089 6.445112,12.480474 6.443927,12.39881 6.618929,12.397173 6.619066,12.242373 6.619066,11.948244 6.619213,11.837194 6.619213,11.13322 6.619518,11.013584 6.44592,11.013584 6.445753,10.972935 6.442934,10.72502 6.679818,10.722899 6.734919,10.72193 6.901848,10.721642 6.929582,10.721615 7.938076,10.721615 7.968214,10.721611" style="fill: white" />
</svg>
