<svg width="19.131698" height="19.131699">
<polygon type="contour" points="12.679618,13.591474 12.782496,13.591682 12.80338,13.591524 12.847492,13.591833 12.907107,13.591951 13.165797,13.593258 13.165797,13.592963 13.25837,13.593202 13.270986,13.593165 13.270998,13.634402 13.2722,13.881275 13.266512,13.881213 13.161209,13.881594 12.869539,13.881374 12.827482,13.881336 12.780028,13.881467 12.627139,13.881507 12.20062,13.88136 12.200943,13.878728 12.201637,13.590694" style="fill: white" /><polygon type="contour" points="13.67195,15.803526 13.723856,15.803546 13.735059,15.803714 13.853071,15.803664 13.881496,15.803677 13.881496,15.80777 13.881417,15.94617 13.88166,15.979859 13.881312,15.984292 13.881312,16.060432 13.881554,16.064123 13.881582,16.136284 13.769547,16.136547 13.548645,16.136547 13.548506,16.061521 13.548418,16.041118 13.548507,15.946065 13.540601,15.946014 13.541153,15.833421 13.540943,15.80327" style="fill: white" /><polygon type="contour" points="13.260445,15.803287 13.271806,15.803254 13.271789,15.822891 13.272278,15.946291 13.255167,15.946337 13.066428,15.945365 13.066758,16.041108 12.930191,16.041254 12.827768,16.041285 12.78247,16.040999 12.633118,16.041056 12.173514,16.041432 12.196226,15.89274 12.179969,15.80336 12.478375,15.803316 13.066549,15.803051 13.066549,15.803185 13.239431,15.802998 13.260428,15.802989" style="fill: white" /><polygon type="contour" points="13.252362,14.949386 13.271995,14.949433 13.271995,15.281932 13.258369,15.28205 13.066525,15.280603 13.066519,15.281205 12.948736,15.281046 12.853017,15.281046 12.809417,15.281377 12.806248,15.281329 12.78185,15.281297 12.371657,15.2813 12.188268,15.28126 12.161868,15.184442 12.177191,14.948674 12.788659,14.94866 13.165166,14.948632" style="fill: white" /><polygon type="contour" points="13.266416,14.472274 13.271806,14.472222 13.271945,14.636935 13.271945,14.668047 13.263906,14.668109 13.06734,14.667416 13.067346,14.667764 12.788659,14.667797 12.168831,14.667541 12.178155,14.603961 12.159162,14.472156 12.67004,14.472242 12.779548,14.472293 12.827653,14.472099 12.869539,14.472054 13.136099,14.4719" style="fill: white" /><polygon type="contour" points="13.622594,14.472001 13.881668,14.472258 13.881668,14.528592 13.881604,14.667505 13.710265,14.667484 13.689843,14.667493 13.657742,14.667727 13.609361,14.667543 13.541957,14.667225 13.541274,14.667228 13.541274,14.471929 13.541725,14.471926 13.587221,14.471671" style="fill: white" /><polygon type="contour" points="13.881704,15.018898 13.881448,15.28135 13.592695,15.281409 13.563933,15.281773 13.539946,15.281154 13.539946,14.948656 13.583047,14.949183 13.633622,14.948745 13.662859,14.94883 13.706967,14.94855 13.881603,14.948175" style="fill: white" /><polygon type="contour" points="14.667444,14.505221 14.667444,14.667444 14.629867,14.667505 14.47207,14.667505 14.47207,14.629867 14.472257,14.472258 14.52859,14.472258 14.667505,14.472071" style="fill: white" /><polygon type="contour" points="15.018898,14.472076 15.28147,14.472259 15.28147,14.533494 15.281436,14.667375 15.018897,14.667375 14.948174,14.667444 14.948175,14.629867 14.948175,14.472071" style="fill: white" /><polygon type="contour" points="15.018898,14.948385 15.281436,14.948385 15.281436,15.018898 15.281348,15.28135 15.053222,15.281472 15.018897,15.281437 14.948385,15.281437 14.948385,15.018898 14.948174,14.948175" style="fill: white" /><polygon type="contour" points="14.667375,15.018897 14.667375,15.281437 14.625958,15.281437 14.472257,15.281472 14.472075,15.018898 14.47207,14.948175 14.667444,14.948175" style="fill: white" /><polygon type="contour" points="14.667375,15.915723 14.667444,15.94601 14.522582,15.946128 14.472257,15.94617 14.472257,15.803315 14.533492,15.803315 14.667375,15.803205" style="fill: white" /><polygon type="contour" points="15.158281,15.80339 15.281348,15.80339 15.281348,15.946192 15.17859,15.946216 14.948174,15.94601 14.948385,15.915724 14.948385,15.803205" style="fill: white" /><polygon type="contour" points="16.136282,15.803082 16.136123,15.962782 16.136389,16.081832 16.136389,16.136392 15.899513,16.13664 15.898108,16.136397 15.802974,16.136176 15.803369,16.060431 15.803369,15.984293 15.803258,15.98172 15.803292,15.946093 15.803292,15.803294 15.946091,15.803294 15.981719,15.803261 16.06043,15.803372 16.064121,15.803058" style="fill: white" /><polygon type="contour" points="15.946004,15.018898 15.946189,15.28135 15.803388,15.28135 15.803388,15.158283 15.803204,14.948385 15.915721,14.948385 15.946008,14.948175" style="fill: white" /><polygon type="contour" points="15.946166,14.472723 15.946008,14.667444 15.915721,14.667375 15.803204,14.667375 15.803313,14.533494 15.803313,14.472259 15.844409,14.472258 15.946167,14.472258" style="fill: white" /><polygon type="contour" points="16.0415,12.532852 16.041451,12.778354 16.041,12.8253 16.040959,12.899499 16.041022,13.066521 15.952643,13.066564 15.952643,13.066354 15.887146,13.065888 15.80296,13.065762 15.802746,13.016821 15.802768,12.990903 15.803121,12.780471 15.803313,12.478378 15.803479,12.36328 15.803312,12.179778 15.896083,12.178434 16.041295,12.166629" style="fill: white" /><polygon type="contour" points="15.946334,13.255168 15.946289,13.272279 15.864699,13.271902 15.803473,13.272202 15.803388,13.266515 15.803292,13.25837 15.802734,13.237995 15.803214,13.192436 15.803075,13.165799 15.945874,13.165799" style="fill: white" /><polygon type="contour" points="15.946056,13.54797 16.041115,13.548419 16.06152,13.548509 16.063151,13.548538 16.136545,13.548646 16.136545,13.769548 16.136282,13.881583 16.06043,13.881313 15.979859,13.881662 15.946166,13.881419 15.895287,13.881419 15.832333,13.881484 15.803126,13.881629 15.803447,13.637202 15.803282,13.580503 15.80343,13.540644 15.861183,13.541018 15.94601,13.540602" style="fill: white" /><polygon type="contour" points="15.280836,13.544838 15.281348,13.881451 15.167402,13.88126 14.948175,13.881606 14.948299,13.643203 14.948922,13.559511 14.94881,13.540675 15.281854,13.540675" style="fill: white" /><polygon type="contour" points="14.667626,13.540715 14.667734,13.54365 14.667505,13.881606 14.629866,13.881606 14.472257,13.881669 14.471871,13.637005 14.471704,13.604553 14.472194,13.568167 14.472274,13.540346 14.543768,13.540346" style="fill: white" /><polygon type="contour" points="13.881741,13.544319 13.881425,13.55041 13.881417,13.881419 13.565162,13.881707 13.553314,13.881274 13.540544,13.88128 13.540642,13.790857 13.541301,13.627757 13.541232,13.594288 13.541897,13.594279 13.592231,13.59224 13.594277,13.541897 13.594267,13.541209 13.622601,13.541233 13.881624,13.541085" style="fill: white" /><polygon type="contour" points="13.881506,12.627142 13.881465,12.78003 13.881333,12.827484 13.88152,13.065507 13.881596,13.104216 13.881556,13.226329 13.881673,13.235937 13.881765,13.237745 13.881822,13.259159 13.881822,13.271358 13.624858,13.271808 13.593123,13.271808 13.593102,13.266418 13.59296,13.165799 13.593256,13.165799 13.591947,12.907108 13.591831,12.847494 13.591522,12.803383 13.591681,12.782498 13.591471,12.679619 13.590843,12.535144 13.590692,12.201638 13.878726,12.200945 13.881358,12.200621" style="fill: white" /><polygon type="contour" points="14.667742,12.194665 14.667762,12.515348 14.667449,12.873069 14.667852,13.123372 14.667579,13.252364 14.667609,13.264135 14.667663,13.271908 14.471865,13.271908 14.471643,13.266241 14.471984,13.165871 14.492212,13.165871 14.492986,13.066851 14.471938,13.066522 14.472052,12.86954 14.472132,12.826554 14.472337,12.777943 14.472093,12.209427 14.472087,12.20164 14.59282,12.19056" style="fill: white" /><polygon type="contour" points="15.171871,12.195275 15.281789,12.187051 15.281688,12.357817 15.28168,12.392717 15.281119,12.781573 15.281375,12.809418 15.281044,12.853019 15.281203,13.066522 15.28074,13.066522 15.281964,13.265758 15.282013,13.271185 15.245689,13.271185 14.948891,13.271808 14.948804,13.266417 14.948639,13.16598 14.948714,13.16598 14.94849,12.873613 14.948241,12.728443 14.948628,12.183009" style="fill: white" /><polygon type="contour" points="16.136389,2.995312 16.136389,3.049872 16.136123,3.168921 16.136282,3.328621 16.060429,3.328332 15.984291,3.328332 15.981719,3.328442 15.946091,3.328411 15.803292,3.328411 15.803292,3.18561 15.803259,3.149983 15.803371,3.071272 15.803055,3.06758 15.802974,2.995527 15.898109,2.995306 15.899514,2.995065" style="fill: white" /><polygon type="contour" points="15.946334,5.876535 15.945362,6.065271 16.041107,6.064941 16.041273,6.201627 16.041236,6.302935 16.0414,6.34864 16.040974,6.497621 16.0414,6.958486 15.961035,6.958665 15.803462,6.944371 15.803126,6.417396 15.803078,6.204897 15.802982,6.204896 15.802997,6.067937 15.802943,6.059328 15.803174,5.895766 15.803292,5.873332 15.803388,5.865187 15.803473,5.859501 15.864699,5.859802 15.946289,5.859424" style="fill: white" /><polygon type="contour" points="15.984291,5.250391 16.060429,5.250391 16.064122,5.250145 16.136282,5.250121 16.136545,5.362155 16.136545,5.583056 16.06152,5.583195 16.041115,5.583284 15.946059,5.583734 15.946012,5.591101 15.867752,5.591102 15.803472,5.591599 15.803591,5.514022 15.803436,5.430306 15.803672,5.29161 15.803674,5.250206 15.807766,5.250206 15.946167,5.250284 15.979858,5.250041" style="fill: white" /><polygon type="contour" points="15.946166,4.658979 15.946167,4.659445 15.803313,4.659445 15.803313,4.598209 15.803204,4.464328 15.915721,4.464328 15.946008,4.464259" style="fill: white" /><polygon type="contour" points="15.946215,3.953112 15.946008,4.183529 15.91572,4.183317 15.803204,4.183317 15.803388,3.973419 15.803388,3.850354 15.94619,3.850354" style="fill: white" /><polygon type="contour" points="14.667375,3.850266 14.667375,4.112805 14.667444,4.183529 14.629867,4.183528 14.47207,4.183528 14.472075,4.112804 14.472257,3.850232 14.533492,3.850232" style="fill: white" /><polygon type="contour" points="13.881582,2.99542 13.881312,3.071271 13.88166,3.151843 13.881417,3.185534 13.881417,3.236413 13.881481,3.299366 13.881591,3.32861 13.719899,3.328409 13.716747,3.328576 13.714799,3.328601 13.703903,3.328426 13.687351,3.328507 13.663572,3.328718 13.65632,3.328663 13.612544,3.328328 13.552362,3.328465 13.540943,3.328429 13.541153,3.29828 13.540601,3.185689 13.547967,3.185641 13.548417,3.090583 13.548507,3.070181 13.548536,3.06855 13.548645,2.995157 13.769547,2.995157" style="fill: white" /><polygon type="contour" points="14.522582,3.185574 14.667444,3.185693 14.667375,3.215979 14.667375,3.328497 14.533492,3.328389 14.472257,3.328389 14.472257,3.185534" style="fill: white" /><polygon type="contour" points="15.281348,3.328313 15.158281,3.328313 14.948385,3.328497 14.948385,3.215979 14.948174,3.185693 15.018898,3.185697 15.281348,3.185511" style="fill: white" /><polygon type="contour" points="15.281348,3.850353 15.28147,4.078479 15.281436,4.112804 15.281436,4.183317 15.018898,4.183317 14.948174,4.183529 14.948385,4.112804 14.948385,3.850266 15.018898,3.850266" style="fill: white" /><polygon type="contour" points="15.018897,4.464328 15.281436,4.464328 15.281436,4.505744 15.28147,4.659445 15.018897,4.659629 14.948175,4.659633 14.948174,4.626483 14.948174,4.464259" style="fill: white" /><polygon type="contour" points="14.50522,4.464259 14.667444,4.464259 14.667505,4.501835 14.667505,4.659633 14.629866,4.659633 14.472257,4.659445 14.472257,4.603111 14.47207,4.464198" style="fill: white" /><polygon type="contour" points="14.667505,5.250098 14.667404,5.454581 14.667762,5.493198 14.667473,5.549871 14.667576,5.591359 14.598155,5.591599 14.472181,5.591599 14.471946,5.562894 14.471984,5.523563 14.472184,5.49437 14.472257,5.250035 14.52859,5.250035" style="fill: white" /><polygon type="contour" points="15.281348,5.250254 15.281094,5.498169 15.280899,5.532262 15.282137,5.580492 15.28201,5.591029 14.94881,5.591029 14.948922,5.572192 14.948299,5.488502 14.948175,5.250098 15.018898,5.249998" style="fill: white" /><polygon type="contour" points="15.281964,5.865946 15.28074,6.065174 15.281203,6.065179 15.281044,6.278682 15.281376,6.322285 15.281121,6.350132 15.28168,6.738987 15.281565,6.945079 15.161269,6.963662 14.948629,6.948694 14.948242,6.40326 14.94849,6.258091 14.948714,5.965721 14.948639,5.96572 14.949385,5.879338 14.949513,5.860518 15.282013,5.860518" style="fill: white" /><polygon type="contour" points="14.66761,5.867567 14.667837,6.016179 14.667449,6.258635 14.667762,6.616355 14.667742,6.937039 14.475027,6.929891 14.472087,6.930063 14.472093,6.922277 14.472093,6.922232 14.472337,6.350076 14.472133,6.305146 14.472052,6.26216 14.471938,6.065179 14.472321,6.065178 14.471642,5.865463 14.471865,5.859796 14.667664,5.859796" style="fill: white" /><polygon type="contour" points="13.881794,5.873332 13.881673,5.895766 13.881556,5.905373 13.881576,5.965903 13.881492,5.965903 13.881593,6.30514 13.881641,6.867466 13.881641,6.935287 13.6324,6.929801 13.590692,6.930063 13.591471,6.452083 13.591681,6.349206 13.591522,6.328321 13.591831,6.284206 13.591946,6.224592 13.593256,5.965903 13.59296,5.965903 13.593199,5.873331 13.593162,5.860713 13.608724,5.860713 13.881752,5.859896" style="fill: white" /><polygon type="contour" points="13.562399,5.249991 13.881417,5.250284 13.881426,5.581291 13.881741,5.587386 13.881624,5.590619 13.622601,5.59047 13.594267,5.590495 13.594277,5.589806 13.59223,5.539463 13.541897,5.537425 13.541232,5.537417 13.541232,5.5091 13.540104,5.352805 13.540104,5.25018 13.551232,5.249892" style="fill: white" /><polygon type="contour" points="13.26683,5.250483 13.272199,5.250428 13.271686,5.461987 13.271806,5.538578 13.266416,5.538598 13.165796,5.538742 13.165796,5.538446 12.907106,5.539754 12.847493,5.53987 12.80338,5.540181 12.782495,5.540022 12.679618,5.54023 12.535141,5.540858 12.201637,5.541011 12.200942,5.252974 12.200619,5.250342 12.62714,5.250196 12.780028,5.250238 12.827482,5.250368 13.065504,5.250182 13.092565,5.250103 13.226327,5.250145 13.235934,5.250028 13.237741,5.249936 13.259158,5.249879" style="fill: white" /><polygon type="contour" points="13.165978,4.463951 13.165979,4.46394 13.266415,4.464093 13.271806,4.464108 13.271806,4.659483 13.266416,4.659431 13.165869,4.659718 13.165869,4.639454 13.06685,4.638679 13.06652,4.659762 12.869538,4.659648 12.827652,4.659604 12.78161,4.659475 12.672249,4.659512 12.159163,4.659548 12.148346,4.617211 12.168831,4.464163 12.788659,4.463908" style="fill: white" /><polygon type="contour" points="13.543256,4.464149 13.881604,4.464198 13.881668,4.60311 13.881668,4.659445 13.631033,4.65942 13.622594,4.659703 13.58722,4.660033 13.541724,4.659777 13.541274,4.659775 13.541284,4.655117 13.541284,4.464467 13.542487,4.464067" style="fill: white" /><polygon type="contour" points="13.881257,3.964298 13.881604,4.183528 13.706968,4.183154 13.662859,4.182871 13.588457,4.182655 13.539992,4.183148 13.539992,3.850648 13.544734,3.851092 13.881447,3.850354" style="fill: white" /><polygon type="contour" points="13.271995,3.849771 13.271995,4.182271 13.252363,4.182317 13.165167,4.183071 12.78866,4.183044 12.17719,4.18303 12.1957,3.950269 12.18852,3.850412 12.339911,3.850412 12.371655,3.850402 12.78185,3.850406 12.806248,3.850375 12.809416,3.850326 12.853016,3.850657 13.06652,3.850497 13.06652,3.851099 13.25837,3.849651" style="fill: white" /><polygon type="contour" points="12.78247,3.090703 12.827768,3.090419 12.930072,3.090428 13.066758,3.090595 13.066428,3.186337 13.255166,3.185364 13.272033,3.185267 13.272373,3.229872 13.271805,3.328448 13.266137,3.328478 13.157299,3.328848 12.763612,3.328745 12.179969,3.328343 12.196226,3.238962 12.175808,3.156032 12.173514,3.09027" style="fill: white" /><polygon type="contour" points="6.964765,3.090407 6.933898,3.260201 6.944369,3.3282 6.925539,3.32821 6.840131,3.328193 6.663497,3.3283 6.506513,3.328066 6.506513,3.328419 6.065248,3.328652 6.065248,3.327364 5.895765,3.328527 5.873329,3.328407 5.860343,3.328378 5.860347,3.300255 5.859422,3.185412 5.876532,3.185364 6.065269,3.186337 6.064938,3.090595 6.231915,3.090428 6.550071,3.090306 6.598399,3.090202" style="fill: white" /><polygon type="contour" points="4.660056,5.865463 4.659716,5.965831 4.639583,5.965831 4.63881,6.064851 4.659761,6.065179 4.659645,6.262161 4.659565,6.305147 4.659363,6.350075 4.659363,6.353759 4.659608,6.922277 4.659614,6.930062 4.538879,6.941143 4.463958,6.937039 4.463938,6.616355 4.464251,6.258634 4.463849,6.008382 4.464121,5.879339 4.46409,5.867567 4.464036,5.859796 4.659834,5.859796" style="fill: white" /><polygon type="contour" points="4.659828,5.494699 4.659996,5.52715 4.659504,5.563539 4.659779,5.59099 4.464074,5.59099 4.464226,5.54987 4.464178,5.497831 4.464133,5.45507 4.464195,5.250098 4.501834,5.250098 4.659443,5.250035" style="fill: white" /><polygon type="contour" points="4.183399,5.488502 4.182776,5.572192 4.182888,5.591029 3.849689,5.591029 3.849563,5.580492 3.8508,5.532262 3.850352,5.250254 3.964296,5.250444 4.183525,5.250098" style="fill: white" /><polygon type="contour" points="4.182898,5.865285 4.182395,5.891653 4.182616,5.895787 4.183061,5.965721 4.182985,5.965721 4.18321,6.25809 4.18346,6.40326 4.18307,6.948693 3.959828,6.936429 3.84991,6.944654 3.850012,6.773885 3.85002,6.738986 3.850581,6.350131 3.850326,6.322284 3.850655,6.278681 3.850422,5.965902 3.850349,5.965903 3.850398,5.865285 3.85031,5.859896 4.182811,5.859896" style="fill: white" /><polygon type="contour" points="3.266999,5.859802 3.328227,5.859501 3.328311,5.865187 3.329297,6.061494 3.32886,6.061494 3.328542,6.493367 3.328187,6.944292 3.154376,6.959992 3.0903,6.958486 3.090757,6.348182 3.090464,6.302935 3.090426,6.201627 3.090594,6.064941 3.124401,6.065179 3.186335,6.065179 3.185361,5.876535 3.18541,5.859424" style="fill: white" /><polygon type="contour" points="3.185532,5.250284 3.236411,5.250284 3.299365,5.250221 3.328573,5.250076 3.328539,5.493308 3.328288,5.543322 3.328222,5.591158 3.270515,5.590685 3.185688,5.591101 3.185639,5.583734 3.090581,5.583284 3.070179,5.583195 3.068549,5.583166 2.995155,5.583056 2.995155,5.362155 2.995419,5.250121 3.07127,5.250391 3.15184,5.250042" style="fill: white" /><polygon type="contour" points="3.233591,2.995306 3.328726,2.995527 3.328331,3.071271 3.328331,3.147413 3.328441,3.149982 3.328409,3.18561 3.328409,3.328411 3.185608,3.328411 3.14998,3.328442 3.07127,3.328332 3.067579,3.328646 2.995419,3.328621 2.995575,3.168921 2.99531,3.049872 2.99531,2.995312 3.232184,2.995064" style="fill: white" /><polygon type="contour" points="3.328311,3.97342 3.328494,4.183317 3.215979,4.183317 3.185692,4.183529 3.185694,4.112804 3.185511,3.850354 3.328311,3.850354" style="fill: white" /><polygon type="contour" points="3.215978,4.464328 3.328494,4.464328 3.328387,4.598209 3.328387,4.659445 3.185532,4.659445 3.185572,4.60912 3.185692,4.464259" style="fill: white" /><polygon type="contour" points="4.183525,4.501835 4.183525,4.659633 4.112803,4.659629 3.850231,4.659445 3.850231,4.598209 3.850264,4.464328 4.112803,4.464328 4.183526,4.464259" style="fill: white" /><polygon type="contour" points="4.659631,4.501836 4.659443,4.659445 4.603108,4.659445 4.464196,4.659633 4.464257,4.626484 4.464257,4.464259 4.501833,4.464198 4.659631,4.464198" style="fill: white" /><polygon type="contour" points="4.659627,4.112804 4.659631,4.183528 4.626481,4.183529 4.464257,4.183529 4.464326,4.112805 4.464326,3.850266 4.505742,3.850266 4.659443,3.850232" style="fill: white" /><polygon type="contour" points="4.112802,3.850266 4.183315,3.850266 4.183315,4.112804 4.183526,4.183529 4.112802,4.183317 3.850264,4.183317 3.850264,4.112804 3.850352,3.850353 4.078477,3.850231" style="fill: white" /><polygon type="contour" points="4.183526,3.185693 4.183315,3.215979 4.183315,3.328497 3.973417,3.328313 3.850352,3.328313 3.850352,3.185512 3.95311,3.185488" style="fill: white" /><polygon type="contour" points="4.659443,3.328389 4.598207,3.328389 4.464326,3.328497 4.464326,3.215979 4.464257,3.185693 4.609117,3.185574 4.659443,3.185534" style="fill: white" /><polygon type="contour" points="5.583193,3.070181 5.583282,3.090583 5.583191,3.185638 5.591099,3.185689 5.590547,3.29828 5.590757,3.32843 5.459749,3.328177 5.407842,3.328158 5.39664,3.32799 5.278629,3.328039 5.250204,3.328026 5.250204,3.323932 5.250283,3.185534 5.250041,3.151842 5.250389,3.147413 5.250389,3.071272 5.250143,3.06758 5.250119,2.99542 5.362151,2.995157 5.583054,2.995157" style="fill: white" /><polygon type="contour" points="6.06517,3.851099 6.065176,3.850497 6.224849,3.850656 6.278679,3.850656 6.322284,3.850326 6.325452,3.850375 6.349849,3.850406 6.760044,3.850402 6.943434,3.850442 6.969831,3.947261 6.954506,4.18303 6.343036,4.183044 5.966529,4.183071 5.879336,4.182317 5.859702,4.182271 5.859702,3.84977 5.873329,3.849651" style="fill: white" /><polygon type="contour" points="5.591754,3.850549 5.591754,4.183048 5.548652,4.182521 5.498077,4.182957 5.46884,4.182872 5.250096,4.183528 5.249996,4.112804 5.250252,3.850354 5.539004,3.850295 5.567767,3.849931" style="fill: white" /><polygon type="contour" points="5.522337,4.46416 5.589742,4.464478 5.590419,4.464479 5.590419,4.659779 5.589974,4.659777 5.544476,4.660033 5.509105,4.659703 5.500666,4.65942 5.250033,4.659445 5.250033,4.603111 5.250096,4.464198 5.441857,4.46421 5.473957,4.463976" style="fill: white" /><polygon type="contour" points="6.064357,4.464287 6.06435,4.46394 6.343037,4.463908 6.962867,4.464164 6.953543,4.527742 6.972537,4.659548 6.461658,4.65946 6.352151,4.65941 6.304043,4.659604 6.262158,4.659648 6.021543,4.659788 5.867794,4.659594 5.859755,4.659657 5.859755,4.463658 5.867794,4.463595" style="fill: white" /><polygon type="contour" points="5.895766,5.250028 5.905372,5.250145 5.9659,5.250126 5.9659,5.25021 6.305136,5.250109 6.867464,5.250061 6.935284,5.25006 6.929798,5.499301 6.93006,5.541011 6.452081,5.540229 6.349204,5.540022 6.32832,5.54018 6.284204,5.539869 6.22459,5.539754 5.9659,5.538446 5.9659,5.538742 5.873329,5.538504 5.860711,5.538539 5.860698,5.497302 5.8595,5.250428 5.865186,5.250491 5.873329,5.249907" style="fill: white" /><polygon type="contour" points="5.591057,5.250253 5.591057,5.340847 5.590398,5.503947 5.590468,5.537417 5.589802,5.537425 5.539462,5.539463 5.537423,5.589805 5.537434,5.590495 5.509098,5.590471 5.250076,5.590619 5.249957,5.587385 5.250273,5.581291 5.250283,5.250284 5.566536,5.249995 5.569301,5.249991 5.580468,5.249892" style="fill: white" /><polygon type="contour" points="5.538596,5.865285 5.53874,5.965903 5.538443,5.965903 5.539753,6.224592 5.539868,6.284206 5.540177,6.328321 5.54002,6.349206 5.540227,6.452084 5.540856,6.596559 5.541009,6.930063 5.499298,6.929801 5.278679,6.932454 5.25006,6.935287 5.250052,6.901963 5.250001,6.50437 5.250103,6.351637 5.250365,6.304218 5.250181,6.066193 5.250179,6.065179 5.250282,6.065179 5.249963,5.865285 5.249945,5.859896 5.538575,5.859896" style="fill: white" /><polygon type="contour" points="5.252971,12.200945 5.54101,12.201638 5.540227,12.679619 5.54002,12.782498 5.540178,12.803383 5.53987,12.847494 5.539752,12.907109 5.538445,13.165799 5.538741,13.165799 5.538501,13.25837 5.538537,13.270989 5.522974,13.270989 5.249877,13.271358 5.249896,13.263266 5.250355,13.066522 5.250179,13.066522 5.250329,12.869541 5.250367,12.827483 5.250236,12.78003 5.250194,12.627143 5.25034,12.200622" style="fill: white" /><polygon type="contour" points="4.656674,12.201812 4.659614,12.201639 4.659608,12.209426 4.659363,12.777944 4.659565,12.826554 4.659645,12.86954 4.659761,13.066522 4.659379,13.066522 4.660056,13.26624 4.659834,13.271908 4.464035,13.271908 4.46409,13.264134 4.463861,13.115767 4.464251,12.873069 4.463938,12.515348 4.463957,12.194665" style="fill: white" /><polygon type="contour" points="4.18307,12.183008 4.18346,12.728443 4.18321,12.873613 4.182985,13.165979 4.183061,13.16598 4.182315,13.252363 4.182811,13.271808 3.886011,13.271185 3.849688,13.271185 3.849737,13.265757 3.850956,13.066526 3.850496,13.066521 3.850655,12.853018 3.850325,12.809419 3.850579,12.781573 3.85002,12.392716 3.850135,12.186625 3.970432,12.168042" style="fill: white" /><polygon type="contour" points="3.235616,12.178434 3.328386,12.179778 3.328386,12.478377 3.328672,13.114288 3.32848,13.318714 3.328505,13.272203 3.266999,13.271901 3.18541,13.272279 3.185362,13.255166 3.186335,13.06643 3.090594,13.06676 3.090427,12.899782 3.090305,12.581218 3.0902,12.532852 3.090405,12.166629" style="fill: white" /><polygon type="contour" points="3.328174,13.607742 3.328263,13.701395 3.328069,13.847423 3.328024,13.881498 3.323931,13.881498 3.185532,13.881419 3.15184,13.881662 3.147411,13.881313 3.07127,13.881313 3.067578,13.881557 2.995419,13.881583 2.995155,13.769548 2.995155,13.548646 3.070179,13.548509 3.090581,13.54842 3.185635,13.54851 3.185688,13.540603 3.270515,13.541018 3.328222,13.540546" style="fill: white" /><polygon type="contour" points="4.182777,13.559511 4.183399,13.643203 4.183525,13.881606 4.112803,13.881707 3.850352,13.881451 3.850603,13.633534 3.8508,13.599442 3.849563,13.551211 3.849689,13.540675 4.182889,13.540675" style="fill: white" /><polygon type="contour" points="4.659894,13.540445 4.659753,13.568812 4.659996,13.604553 4.659443,13.881669 4.603109,13.881669 4.464196,13.881606 4.464295,13.677122 4.463938,13.638504 4.463842,13.58305 4.463968,13.540106 4.533543,13.540106" style="fill: white" /><polygon type="contour" points="5.509098,13.541233 5.537434,13.541209 5.537423,13.541898 5.539461,13.592239 5.589802,13.594278 5.590468,13.594287 5.590468,13.622603 5.591596,13.778898 5.591596,13.881524 5.580469,13.881811 5.569302,13.881713 5.250283,13.881419 5.250273,13.550411 5.249957,13.544318 5.250076,13.541085" style="fill: white" /><polygon type="contour" points="6.929798,13.632403 6.932452,13.853022 6.935285,13.881643 6.90196,13.881651 6.504369,13.8817 6.351635,13.8816 6.304217,13.881336 6.066191,13.881521 5.991034,13.881669 5.865186,13.881212 5.8595,13.881274 5.860014,13.669716 5.859894,13.593125 5.865282,13.593105 5.9659,13.592963 5.9659,13.593259 6.224589,13.59195 6.284204,13.591832 6.32832,13.591524 6.349204,13.591682 6.452082,13.591473 6.596557,13.590845 6.930061,13.590694" style="fill: white" /><polygon type="contour" points="6.388317,15.803137 6.399247,15.80343 6.407333,15.803251 6.415314,15.803306 6.94429,15.803515 6.933898,15.871503 6.964765,16.041297 6.59815,16.041252 6.352884,16.04099 6.306397,16.041003 6.232198,16.040961 6.065176,16.041023 6.065176,15.945366 5.876532,15.946336 5.859667,15.946435 5.859326,15.901828 5.859894,15.803255 5.87333,15.803294 5.893205,15.802735 5.939264,15.803215 5.9659,15.803078 5.9659,15.80318 6.13523,15.802716" style="fill: white" /><polygon type="contour" points="6.343037,14.94866 6.954505,14.948675 6.935996,15.181433 6.943178,15.28129 6.791786,15.28129 6.760043,15.2813 6.349849,15.281297 6.325451,15.281329 6.322284,15.281377 6.27868,15.281047 6.065176,15.281205 6.065176,15.280603 5.87333,15.28205 5.859702,15.281932 5.859702,14.949433 5.895014,14.949079 5.895452,14.948692 5.974437,14.948633" style="fill: white" /><polygon type="contour" points="6.262157,14.472054 6.304044,14.472099 6.35009,14.472229 6.45945,14.472192 6.972537,14.472156 6.983354,14.514492 6.962867,14.66754 6.343037,14.667796 6.064351,14.667764 6.064351,14.667416 5.867793,14.668109 5.859755,14.668047 5.859755,14.472048 5.867794,14.47211 5.965828,14.471987 5.965828,14.492117 6.064848,14.49289 6.065176,14.471941" style="fill: white" /><polygon type="contour" points="5.589974,14.471925 5.590419,14.471924 5.590419,14.667224 5.589741,14.667225 5.522337,14.667543 5.473958,14.667727 5.441857,14.667493 5.421435,14.667484 5.250096,14.667505 5.250033,14.528591 5.250033,14.472258 5.509106,14.472 5.544476,14.471671" style="fill: white" /><polygon type="contour" points="5.46884,14.94883 5.498077,14.948745 5.543242,14.949047 5.591709,14.948556 5.591709,15.136346 5.591754,15.281154 5.567766,15.281773 5.539004,15.281409 5.250252,15.28135 5.250443,15.167404 5.250096,14.948175" style="fill: white" /><polygon type="contour" points="5.47538,15.80304 5.519154,15.803375 5.579337,15.803236 5.590757,15.803271 5.590546,15.833421 5.591099,15.946015 5.583191,15.946065 5.583281,16.041119 5.583192,16.061522 5.583164,16.063154 5.583054,16.136547 5.362152,16.136548 5.250119,16.136284 5.250389,16.060432 5.250041,15.979859 5.250283,15.94617 5.250283,15.89529 5.250219,15.832337 5.250109,15.803093 5.468128,15.802986" style="fill: white" /><polygon type="contour" points="4.183315,15.915724 4.183526,15.94601 4.112802,15.946007 3.850352,15.946192 3.850352,15.80339 3.973417,15.80339 4.183315,15.803205" style="fill: white" /><polygon type="contour" points="4.598208,15.803315 4.659443,15.803315 4.659443,15.94617 4.609117,15.946128 4.464257,15.94601 4.464326,15.915723 4.464326,15.803205" style="fill: white" /><polygon type="contour" points="4.183315,15.018898 4.183315,15.281437 4.112803,15.281437 3.850352,15.28135 3.850231,15.053224 3.850264,15.018898 3.850264,14.948385 4.112802,14.948385 4.183526,14.948175" style="fill: white" /><polygon type="contour" points="4.659627,15.018897 4.659443,15.281472 4.598207,15.281472 4.464326,15.281437 4.464326,15.018897 4.464257,14.948175 4.659631,14.948175" style="fill: white" /><polygon type="contour" points="4.659443,14.472258 4.659443,14.528592 4.659631,14.667505 4.626482,14.667444 4.464257,14.667444 4.464196,14.629867 4.464196,14.472071 4.501833,14.472071" style="fill: white" /><polygon type="contour" points="4.183526,14.505221 4.183526,14.667444 4.112803,14.667375 3.850264,14.667375 3.850264,14.625959 3.850231,14.472259 4.112802,14.472076 4.183525,14.472071" style="fill: white" /><polygon type="contour" points="3.328387,14.472259 3.328387,14.533494 3.328495,14.667375 3.215978,14.667375 3.185692,14.667444 3.185572,14.522582 3.185532,14.472258 3.287288,14.472258" style="fill: white" /><polygon type="contour" points="3.215978,14.948385 3.328495,14.948385 3.328311,15.158282 3.328311,15.28135 3.185511,15.28135 3.185487,15.178591 3.185692,14.948175" style="fill: white" /><polygon type="contour" points="3.07127,15.803372 3.147411,15.803372 3.14998,15.803262 3.185608,15.803294 3.328409,15.803294 3.328409,15.946093 3.328441,15.981721 3.328331,16.060431 3.328644,16.064124 3.328726,16.136176 3.23359,16.136397 3.232183,16.13664 2.99531,16.136392 2.99531,16.081832 2.995575,15.962782 2.995419,15.803082" style="fill: white" />
</svg>
