<svg width="19.131698" height="19.131699">
<polygon type="contour" points="8.72389,8.56053 8.791533,8.56247 8.795677,8.562939 8.855575,8.562351 8.85707,8.598182 8.856912,8.602156 8.857026,8.647435 8.857026,8.710386 8.856934,8.856936 8.776788,8.856936 8.563372,8.856809 8.561866,8.765077 8.55565,8.555652" style="fill: white" /><polygon type="contour" points="9.711101,9.256956 9.4206,9.256956 9.4206,9.164305 9.421358,9.164305 9.420417,9.100896 9.420181,9.019273 9.711101,9.019273" style="fill: white" /><polygon type="contour" points="9.711101,10.568256 9.665501,10.570232 9.565877,10.572008 9.455115,10.568628 9.4206,10.568256 9.4206,10.274259 9.711101,10.274259" style="fill: white" /><polygon type="contour" points="10.568329,10.274894 10.569833,10.366624 10.57605,10.576052 10.407809,10.571173 10.340166,10.569235 10.336022,10.568766 10.276126,10.569354 10.274631,10.533523 10.274787,10.529545 10.274675,10.484269 10.274675,10.421318 10.274767,10.274768 10.354912,10.274768" style="fill: white" /><polygon type="contour" points="10.112429,10.274304 10.112429,10.401568 10.030805,10.401307 10.01843,10.40136 10.01843,10.401133 9.899559,10.40166 9.874746,10.401502 9.874746,10.311298 9.87444,10.274258 9.902314,10.274258 9.967354,10.274183 10.030805,10.274183" style="fill: white" /><polygon type="contour" points="9.711101,10.112431 9.4206,10.112431 9.4206,9.874748 9.711101,9.874748" style="fill: white" /><polygon type="contour" points="9.711101,9.711102 9.4206,9.711102 9.4206,9.420602 9.711101,9.420602" style="fill: white" /><polygon type="contour" points="10.112429,9.711102 9.874746,9.711102 9.874746,9.420602 10.112429,9.420602" style="fill: white" /><polygon type="contour" points="10.112945,9.955086 10.112945,10.030807 10.112429,10.112431 10.046206,10.112431 10.030805,10.112946 9.955086,10.112946 9.872975,10.112431 9.874161,10.030807 9.874851,9.967399 9.874296,9.967399 9.874296,9.955288 9.874746,9.874748 9.902288,9.874748 9.967397,9.874297 9.967397,9.874852 10.030805,9.874162 10.112429,9.872976" style="fill: white" /><polygon type="contour" points="10.311297,9.874748 10.4015,9.874748 10.401294,9.955288 10.401358,9.967413 10.401102,9.967412 10.401702,10.087053 10.401566,10.112431 10.274303,10.112431 10.274303,10.084151 10.274181,10.018445 10.274181,9.955086 10.274256,9.874442" style="fill: white" /><polygon type="contour" points="10.571396,9.496758 10.572475,9.565824 10.571396,9.634577 10.571758,9.711102 10.274257,9.711102 10.274257,9.420602 10.571758,9.420602" style="fill: white" /><polygon type="contour" points="10.569833,8.765078 10.568329,8.856809 10.354912,8.856936 10.274767,8.856936 10.274767,8.822532 10.274675,8.647435 10.274787,8.640801 10.274787,8.602156 10.276126,8.562351 10.336022,8.562939 10.340166,8.56247 10.407809,8.56053 10.57605,8.555652" style="fill: white" /><polygon type="contour" points="10.401305,9.100896 10.401358,9.113272 10.401131,9.113271 10.401658,9.232142 10.4015,9.256956 10.311297,9.256956 10.274256,9.257262 10.274256,9.229387 10.274181,9.164347 10.274181,9.100896 10.274303,9.019273 10.401566,9.019273" style="fill: white" /><polygon type="contour" points="10.112429,9.019272 10.112429,9.047551 10.112945,9.113257 10.112945,9.176616 10.112394,9.257262 10.030804,9.257538 9.967397,9.256849 9.967397,9.257405 9.955286,9.257405 9.874746,9.256956 9.874746,9.229413 9.874296,9.164305 9.874851,9.164304 9.874162,9.100896 9.87444,9.019309 9.902314,9.019309 9.967354,9.018759 10.030805,9.018759" style="fill: white" /><polygon type="contour" points="10.112429,8.730135 10.112429,8.8574 10.08415,8.8574 10.018443,8.857521 9.955085,8.857521 9.87444,8.857446 9.874746,8.820405 9.874746,8.730202 9.955287,8.730407 9.967411,8.730342 9.96741,8.730596 10.087053,8.73" style="fill: white" /><polygon type="contour" points="9.676585,8.563076 9.711101,8.563448 9.711101,8.857443 9.420216,8.857443 9.4206,8.823224 9.4206,8.563449 9.465981,8.561472 9.5655,8.559695" style="fill: white" /><polygon type="contour" points="9.256954,8.730202 9.256954,8.820405 9.256843,8.857446 9.229385,8.857446 9.164345,8.857521 9.100894,8.857521 9.019272,8.8574 9.019272,8.730136 9.100895,8.730395 9.113269,8.730342 9.113269,8.730566 9.232139,8.730043" style="fill: white" /><polygon type="contour" points="9.258307,9.019273 9.257353,9.100897 9.257403,9.113221 9.257403,9.176415 9.256954,9.256956 9.229411,9.256956 9.145621,9.257533 9.100894,9.257356 9.019272,9.258309 9.018756,9.176434 9.018756,9.100896 9.019272,9.019273 9.085494,9.019273 9.100895,9.018759 9.176431,9.018759" style="fill: white" /><polygon type="contour" points="8.857397,9.04755 8.85752,9.113257 8.85752,9.176434 8.857444,9.256846 8.820402,9.256956 8.7302,9.256956 8.730405,9.176415 8.73034,9.164291 8.730594,9.164291 8.729998,9.04465 8.730134,9.019273 8.857397,9.019273" style="fill: white" /><polygon type="contour" points="9.047343,9.420602 9.256954,9.420602 9.256954,9.711102 9.164303,9.711102 9.164303,9.710343 9.100894,9.711285 9.019272,9.711521 9.019272,9.420183" style="fill: white" /><polygon type="contour" points="8.857442,9.711486 8.823223,9.711102 8.559943,9.711102 8.560303,9.634944 8.559224,9.565879 8.560303,9.497125 8.559943,9.420602 8.823223,9.420602 8.857442,9.420218" style="fill: white" /><polygon type="contour" points="8.857444,9.874858 8.857444,9.902316 8.85752,9.967356 8.85752,10.030807 8.857397,10.112431 8.730134,10.112431 8.730393,10.030807 8.730339,10.018431 8.730564,10.018432 8.730041,9.899562 8.7302,9.874748 8.820402,9.874748" style="fill: white" /><polygon type="contour" points="9.256954,9.874748 9.256954,9.90229 9.257402,9.967398 9.256847,9.967399 9.257537,10.030807 9.258726,10.112431 9.230657,10.112431 9.164345,10.112946 9.100895,10.112946 9.019272,10.112431 9.019272,10.084151 9.018756,10.018445 9.018756,9.955271 9.019307,9.874858 9.100895,9.874346 9.113218,9.874297 9.176413,9.874297" style="fill: white" /><polygon type="contour" points="9.25726,10.274258 9.256954,10.311298 9.256954,10.401502 9.176413,10.401296 9.164288,10.40136 9.164289,10.401104 9.044647,10.401704 9.019272,10.401568 9.019272,10.274304 9.047548,10.274304 9.113255,10.274183 9.176615,10.274183" style="fill: white" /><polygon type="contour" points="8.856934,10.309171 8.857026,10.484268 8.856912,10.490903 8.856912,10.529545 8.855574,10.569354 8.795677,10.568766 8.791534,10.569235 8.72389,10.571173 8.55565,10.576052 8.561867,10.366624 8.563372,10.274894 8.776788,10.274768 8.856934,10.274768" style="fill: white" />
</svg>
