<svg width="19.131698" height="19.131699">
<polygon type="contour" points="8.780237,8.629634 8.928859,8.628941 8.931366,8.705626 8.931501,8.713817 8.931559,8.722272 8.931559,8.797164 8.988682,8.797164 8.997186,8.797117 8.997175,8.809706 8.997175,8.988682 8.997186,8.995787 8.997186,8.997187 8.988682,8.997176 8.809704,8.997176 8.799177,8.997187 8.797115,8.997187 8.797106,8.996067 8.797162,8.988683 8.797162,8.931562 8.706723,8.931562 8.665201,8.931809 8.63097,8.931759 8.630602,8.884931 8.629196,8.757391 8.628676,8.744463 8.625133,8.625135" style="fill: white" /><polygon type="contour" points="8.997198,9.363667 8.997198,9.768036 8.997186,9.775395 8.997186,9.776763 8.988681,9.776715 8.809704,9.776715 8.799177,9.776763 8.797115,9.776763 8.797106,9.77566 8.79717,9.768036 8.79717,9.711102 8.627497,9.711102 8.627204,9.635429 8.627538,9.566202 8.627805,9.484751 8.627497,9.420602 8.79717,9.420602 8.79717,9.363667 8.797115,9.354941 8.809704,9.354989 8.988681,9.354989 8.995786,9.354941 8.997186,9.354941" style="fill: white" /><polygon type="contour" points="10.503025,8.744464 10.502504,8.757392 10.501098,8.88493 10.50073,8.931759 10.466498,8.931809 10.424976,8.931562 10.334539,8.931562 10.334539,8.988683 10.334586,8.997187 10.321996,8.997176 10.143019,8.997176 10.135914,8.997187 10.134515,8.997187 10.134526,8.988683 10.134526,8.809706 10.134515,8.799179 10.134515,8.797117 10.135634,8.797108 10.143018,8.797164 10.200195,8.797164 10.200195,8.713817 10.202841,8.628941 10.351462,8.629634 10.506567,8.625135" style="fill: white" /><polygon type="contour" points="9.699969,8.631014 9.711101,8.631029 9.711101,8.797172 9.768034,8.797172 9.776761,8.797117 9.776713,8.809706 9.776713,8.988682 9.776761,8.995787 9.776761,8.997187 9.768034,8.997199 9.363665,8.997199 9.356306,8.997187 9.354939,8.997187 9.354987,8.988682 9.354987,8.809706 9.354939,8.799179 9.354939,8.797117 9.356041,8.797108 9.363665,8.797172 9.4206,8.797172 9.4206,8.631029 9.442874,8.629977 9.565501,8.627639" style="fill: white" /><polygon type="contour" points="9.776728,9.363667 9.776728,9.768037 9.776761,9.775394 9.776761,9.776763 9.768034,9.77673 9.363664,9.77673 9.356307,9.776763 9.354939,9.776763 9.354972,9.768036 9.354972,9.363666 9.354939,9.356308 9.354939,9.354941 9.363665,9.354974 9.768035,9.354974 9.775392,9.354941 9.776761,9.354941" style="fill: white" /><polygon type="contour" points="10.334595,9.356043 10.334531,9.363667 10.334531,9.420602 10.504204,9.420602 10.504494,9.496273 10.504161,9.565502 10.503895,9.646952 10.504204,9.711102 10.334531,9.711102 10.334531,9.768036 10.334586,9.776763 10.321996,9.776715 10.143019,9.776715 10.135914,9.776763 10.134515,9.776763 10.134503,9.768036 10.134503,9.363666 10.134515,9.356308 10.134515,9.354941 10.143019,9.354989 10.321995,9.354989 10.332523,9.354941 10.334586,9.354941" style="fill: white" /><polygon type="contour" points="10.334595,10.135636 10.334539,10.14302 10.334539,10.200139 10.424977,10.200139 10.466497,10.199895 10.50073,10.199944 10.501097,10.24677 10.502504,10.374312 10.503024,10.387238 10.506567,10.506569 10.351463,10.502071 10.202841,10.502762 10.200334,10.426078 10.200194,10.417886 10.200137,10.409431 10.200137,10.334541 10.143018,10.334541 10.134515,10.334588 10.134526,10.321998 10.134526,10.143021 10.134515,10.135916 10.134515,10.134517 10.143019,10.134529 10.321995,10.134529 10.332523,10.134517 10.334586,10.134517" style="fill: white" /><polygon type="contour" points="9.775393,10.134517 9.776761,10.134517 9.776713,10.143021 9.776713,10.321997 9.776761,10.332525 9.776761,10.334588 9.775658,10.334597 9.768034,10.334533 9.711101,10.334533 9.711101,10.500675 9.688719,10.501726 9.565863,10.504063 9.43173,10.50069 9.4206,10.500675 9.4206,10.334533 9.363665,10.334533 9.354939,10.334588 9.354987,10.321998 9.354987,10.143021 9.354939,10.135916 9.354939,10.134517 9.363665,10.134505 9.768034,10.134505" style="fill: white" /><polygon type="contour" points="8.997175,10.14302 8.997175,10.321997 8.997186,10.332525 8.997186,10.334588 8.996066,10.334597 8.988682,10.334541 8.931501,10.334541 8.931501,10.417887 8.928859,10.502762 8.780236,10.502071 8.625133,10.506569 8.628676,10.387238 8.629197,10.374312 8.630602,10.24677 8.63097,10.199944 8.665202,10.199895 8.706722,10.200139 8.797162,10.200139 8.797162,10.14302 8.797115,10.134517 8.809704,10.134529 8.988681,10.134529 8.995786,10.134517 8.997186,10.134517" style="fill: white" />
</svg>
