<svg width="19.131698" height="19.131699">
<polygon type="contour" points="10.4116,8.825433 10.410209,8.899779 10.41019,8.943497 10.40985,9.020082 10.322148,9.020203 10.243515,9.020203 10.24336,9.185683 10.243328,9.216891 10.243388,9.297278 10.243449,9.420602 10.40995,9.420602 10.410154,9.459133 10.411645,9.566202 10.411323,9.61902 10.410155,9.672755 10.40995,9.711102 10.243468,9.711102 10.243352,9.877254 10.243333,9.917364 10.243396,9.989455 10.243533,10.111502 10.410189,10.111502 10.41019,10.188207 10.410209,10.231924 10.4116,10.30627 10.413632,10.413634 10.34359,10.412993 10.254551,10.410824 10.242241,10.410278 10.205337,10.410278 10.113052,10.410267 10.112676,10.328731 10.11195,10.296617 10.111498,10.24352 9.94602,10.243363 9.915161,10.243328 9.834424,10.24339 9.711101,10.243451 9.711101,10.409952 9.672569,10.410156 9.5655,10.411711 9.46214,10.411041 9.4206,10.409952 9.4206,10.243486 9.254483,10.243359 9.254447,10.243354 9.215179,10.243333 9.142247,10.243398 9.020202,10.243536 9.01975,10.296617 9.019025,10.328731 9.018649,10.333992 9.018649,10.410267 8.926363,10.410278 8.889458,10.410278 8.877148,10.410824 8.788109,10.412993 8.718068,10.413634 8.720098,10.306271 8.72149,10.231924 8.72151,10.188206 8.72185,10.111623 8.809551,10.111502 8.888184,10.111502 8.888339,9.946021 8.888371,9.914813 8.888311,9.834426 8.88825,9.711102 8.721749,9.711102 8.721544,9.672755 8.720055,9.566201 8.720377,9.513128 8.721544,9.459134 8.721749,9.420602 8.888231,9.420602 8.888348,9.25445 8.888366,9.21434 8.888303,9.142248 8.888166,9.020203 8.721511,9.020203 8.721509,8.943496 8.72149,8.899779 8.720098,8.825432 8.718068,8.71807 8.788109,8.718711 8.877148,8.720879 8.889458,8.721426 8.926363,8.721426 9.018649,8.721437 9.019024,8.802972 9.01975,8.835086 9.020202,8.888183 9.18568,8.88834 9.216539,8.888375 9.297276,8.888313 9.4206,8.888252 9.4206,8.721751 9.458947,8.721547 9.565727,8.719992 9.669559,8.720661 9.711101,8.721751 9.711101,8.888217 9.877217,8.888345 9.877253,8.88835 9.916521,8.88837 9.989453,8.888305 10.111498,8.888167 10.11195,8.835086 10.112676,8.802972 10.113052,8.797711 10.113052,8.721437 10.205337,8.721426 10.242241,8.721426 10.254551,8.720879 10.34359,8.718711 10.413632,8.71807" style="fill: white" />
</svg>
