<svg width="19.131698" height="19.131699">
<polygon type="contour" points="10.665526,8.420443 10.674087,8.42018 10.71261,8.419091 10.711088,8.474958 10.710958,8.483489 10.71062,8.702547 10.429155,8.702547 10.429155,8.587682 10.429218,8.573054 10.429379,8.565639 10.429795,8.491372 10.432304,8.41752" style="fill: white" /><polygon type="contour" points="9.93312,9.249098 9.93307,9.300832 9.894736,9.300686 9.831016,9.300686 9.830871,9.25457 9.830871,9.198632 9.877131,9.198632 9.93312,9.19858" style="fill: white" /><polygon type="contour" points="9.711101,9.300686 9.4206,9.300686 9.4206,9.198632 9.711101,9.198632" style="fill: white" /><polygon type="contour" points="9.300684,9.711102 9.19863,9.711102 9.19863,9.420602 9.300684,9.420602" style="fill: white" /><polygon type="contour" points="9.236963,9.831018 9.300684,9.831018 9.30083,9.877132 9.30083,9.933072 9.254569,9.933072 9.198578,9.933123 9.198578,9.882603 9.19863,9.830872" style="fill: white" /><polygon type="contour" points="9.30083,10.209321 9.30083,10.26411 9.300915,10.309009 9.254569,10.308787 9.198581,10.308048 9.198581,10.263068 9.198578,10.209229 9.249095,10.209229" style="fill: white" /><polygon type="contour" points="9.300684,10.428907 9.300684,10.543618 9.254568,10.543741 9.198578,10.543968 9.198578,10.487565 9.198581,10.428947 9.254568,10.428874" style="fill: white" /><polygon type="contour" points="8.702545,10.544021 8.702482,10.558649 8.702321,10.566065 8.701905,10.640331 8.699396,10.714182 8.466173,10.711261 8.457612,10.711523 8.41909,10.712613 8.420611,10.656745 8.420742,10.648214 8.42108,10.429157 8.702545,10.429157" style="fill: white" /><polygon type="contour" points="8.922355,10.480943 8.922474,10.543968 8.868634,10.54381 8.823532,10.543742 8.823532,10.429041 8.884609,10.429041 8.922355,10.428947" style="fill: white" /><polygon type="contour" points="8.922474,10.258018 8.922355,10.308048 8.88461,10.30817 8.823532,10.30817 8.823654,10.263068 8.823654,10.209348 8.868634,10.209348 8.922474,10.209229" style="fill: white" /><polygon type="contour" points="8.702755,10.209347 8.702661,10.247093 8.702661,10.30817 8.587961,10.30817 8.587892,10.263068 8.587735,10.209229 8.644137,10.209229" style="fill: white" /><polygon type="contour" points="8.702828,9.877133 8.702755,9.933121 8.650757,9.933121 8.587735,9.933123 8.587961,9.877132 8.588085,9.831018 8.702795,9.831018" style="fill: white" /><polygon type="contour" points="8.867592,9.830872 8.922381,9.830872 8.922381,9.877133 8.922474,9.933123 8.873683,9.933123 8.823654,9.933121 8.822915,9.877133 8.822694,9.830787" style="fill: white" /><polygon type="contour" points="8.922381,9.711102 8.822694,9.711102 8.822694,9.601214 8.823129,9.420602 8.922381,9.420602" style="fill: white" /><polygon type="contour" points="8.703172,9.525561 8.702725,9.711102 8.416847,9.711102 8.416549,9.683825 8.417116,9.565502 8.4174,9.535285 8.416847,9.420602 8.703172,9.420602" style="fill: white" /><polygon type="contour" points="8.701905,8.491372 8.701905,8.562205 8.702321,8.565639 8.702481,8.573054 8.702545,8.587682 8.702545,8.702547 8.42108,8.702547 8.420742,8.483489 8.420611,8.474958 8.419778,8.448603 8.419693,8.446574 8.419144,8.441173 8.419089,8.41909 8.457612,8.42018 8.463286,8.420406 8.466173,8.420442 8.699395,8.41752" style="fill: white" /><polygon type="contour" points="8.922474,8.644139 8.922355,8.702757 8.884609,8.702663 8.823532,8.702663 8.823532,8.587963 8.868634,8.587894 8.922474,8.587737" style="fill: white" /><polygon type="contour" points="8.868633,8.823656 8.922355,8.823656 8.922355,8.868634 8.922474,8.922476 8.873683,8.922476 8.823654,8.922357 8.823532,8.884612 8.823532,8.823534" style="fill: white" /><polygon type="contour" points="8.702661,8.884611 8.702755,8.922357 8.650758,8.922357 8.587735,8.922476 8.587892,8.868634 8.587961,8.823534 8.702661,8.823534" style="fill: white" /><polygon type="contour" points="8.702754,9.198582 8.70321,9.25457 8.703231,9.300686 8.588085,9.300686 8.587961,9.25457 8.587735,9.19858 8.644137,9.19858" style="fill: white" /><polygon type="contour" points="8.922474,9.249098 8.922381,9.300832 8.884068,9.300686 8.822094,9.300686 8.823297,9.254571 8.823654,9.198583 8.868634,9.198583 8.922474,9.19858" style="fill: white" /><polygon type="contour" points="9.30083,9.198632 9.300684,9.236965 9.300684,9.300686 9.254569,9.300832 9.19863,9.300832 9.19863,9.25457 9.198578,9.19858 9.249096,9.19858" style="fill: white" /><polygon type="contour" points="9.30083,8.867594 9.30083,8.922383 9.254569,8.922383 9.198578,8.922476 9.198578,8.873685 9.198581,8.823656 9.254568,8.822917 9.300915,8.822696" style="fill: white" /><polygon type="contour" points="9.254568,8.587963 9.300684,8.588087 9.300684,8.702797 9.254568,8.70283 9.198581,8.702757 9.198581,8.650759 9.198578,8.587737" style="fill: white" /><polygon type="contour" points="9.689666,8.421044 9.711101,8.421218 9.711101,8.703174 9.606141,8.703174 9.4206,8.702727 9.4206,8.421218 9.533499,8.417523 9.566198,8.417126" style="fill: white" /><polygon type="contour" points="9.711101,8.823131 9.711101,8.922383 9.4206,8.922383 9.4206,8.822696 9.530488,8.822696" style="fill: white" /><polygon type="contour" points="9.877132,8.8233 9.933119,8.823656 9.933119,8.868635 9.93312,8.922476 9.8826,8.922476 9.830871,8.922383 9.830871,8.867977 9.831016,8.822096" style="fill: white" /><polygon type="contour" points="9.93312,8.644139 9.933119,8.702757 9.877132,8.703212 9.831016,8.703234 9.831016,8.588087 9.877131,8.587963 9.93312,8.587737" style="fill: white" /><polygon type="contour" points="10.263067,8.587895 10.308168,8.587963 10.308168,8.702663 10.247091,8.702663 10.209346,8.702757 10.209346,8.65076 10.209227,8.587737" style="fill: white" /><polygon type="contour" points="10.543809,8.868634 10.543966,8.922476 10.487564,8.922476 10.428945,8.922357 10.429039,8.884611 10.429039,8.823534 10.54374,8.823534" style="fill: white" /><polygon type="contour" points="10.308046,8.868635 10.308046,8.922357 10.263066,8.922357 10.209227,8.922476 10.209227,8.873685 10.209346,8.823656 10.24709,8.823534 10.308168,8.823534" style="fill: white" /><polygon type="contour" points="10.308046,9.198583 10.308402,9.254571 10.308572,9.300917 10.263725,9.300832 10.20932,9.300832 10.20932,9.254571 10.209227,9.19858 10.258017,9.19858" style="fill: white" /><polygon type="contour" points="10.543739,9.25457 10.543616,9.300686 10.428468,9.300686 10.428489,9.25457 10.428945,9.198583 10.480942,9.198583 10.543966,9.19858" style="fill: white" /><polygon type="contour" points="10.715151,9.447878 10.714584,9.566201 10.714301,9.596418 10.714853,9.711102 10.428527,9.711102 10.428527,9.420602 10.714853,9.420602" style="fill: white" /><polygon type="contour" points="10.710958,10.648214 10.711088,10.656745 10.711922,10.6831 10.712006,10.685129 10.712555,10.69053 10.71261,10.712613 10.674087,10.711523 10.668413,10.711298 10.665526,10.711261 10.432304,10.714182 10.429795,10.640332 10.429795,10.569499 10.429379,10.566065 10.429218,10.558649 10.429155,10.544021 10.429155,10.429157 10.71062,10.429157" style="fill: white" /><polygon type="contour" points="10.247091,10.429041 10.308168,10.429041 10.308168,10.543741 10.263067,10.543809 10.209227,10.543968 10.209227,10.487566 10.209346,10.428947" style="fill: white" /><polygon type="contour" points="10.308046,10.209348 10.308168,10.247092 10.308168,10.30817 10.263066,10.308048 10.209346,10.308048 10.209346,10.263068 10.209227,10.209229 10.258016,10.209229" style="fill: white" /><polygon type="contour" points="10.543809,10.263068 10.54374,10.30817 10.429039,10.30817 10.429039,10.247093 10.428945,10.209348 10.480941,10.209348 10.543966,10.209229" style="fill: white" /><polygon type="contour" points="10.543739,9.877132 10.543966,9.933123 10.487563,9.933123 10.428945,9.933121 10.428489,9.877132 10.428468,9.831018 10.543616,9.831018" style="fill: white" /><polygon type="contour" points="10.308572,9.711102 10.20932,9.711102 10.20932,9.420602 10.308572,9.420602" style="fill: white" /><polygon type="contour" points="10.308402,9.877132 10.308045,9.933121 10.263067,9.933121 10.209227,9.933123 10.209227,9.882604 10.20932,9.830872 10.246772,9.830787 10.308572,9.830787" style="fill: white" /><polygon type="contour" points="9.93307,9.877133 9.93312,9.933123 9.882601,9.933123 9.830871,9.933072 9.831016,9.894738 9.831016,9.831018 9.877132,9.830872 9.93307,9.830872" style="fill: white" /><polygon type="contour" points="9.93307,9.711102 9.831016,9.711102 9.831016,9.420602 9.93307,9.420602" style="fill: white" /><polygon type="contour" points="9.711101,9.711102 9.4206,9.711102 9.4206,9.420602 9.711101,9.420602" style="fill: white" /><polygon type="contour" points="9.711101,9.933072 9.4206,9.933072 9.4206,9.831018 9.711101,9.831018" style="fill: white" /><polygon type="contour" points="9.711101,10.309009 9.4206,10.309009 9.4206,10.209321 9.711101,10.209321" style="fill: white" /><polygon type="contour" points="9.93312,10.258019 9.933119,10.308048 9.877132,10.308786 9.831016,10.310045 9.830871,10.26411 9.830871,10.209321 9.877132,10.209321 9.93312,10.209229" style="fill: white" /><polygon type="contour" points="9.933119,10.428947 9.933119,10.480944 9.93312,10.543968 9.877131,10.543741 9.831016,10.543618 9.831016,10.428906 9.877131,10.428874" style="fill: white" /><polygon type="contour" points="9.711101,10.710486 9.598201,10.71418 9.5655,10.714578 9.442034,10.71066 9.4206,10.710486 9.4206,10.428976 9.711101,10.428976" style="fill: white" />
</svg>
