<svg width="19.131698" height="19.131699">
<polygon type="contour" points="13.420306,5.860308 13.418194,6.010889 13.396101,6.010974 13.391705,6.011025 13.372876,6.011025 13.122489,6.009213 13.122489,5.944959 13.122764,5.710966 13.263504,5.711793 13.42541,5.706292" style="fill: white" /><polygon type="contour" points="12.619702,5.984777 12.619702,6.010844 12.561015,6.010844 12.337646,6.011347 12.280382,6.011347 12.076946,6.011374 12.077024,5.987785 12.077024,5.888925 12.116095,5.888926 12.289749,5.888735 12.289748,5.888853 12.556936,5.88819 12.619509,5.888147" style="fill: white" /><polygon type="contour" points="12.619509,6.512192 12.619509,6.580012 12.619744,6.794056 12.619744,6.851319 12.619522,7.054756 12.350033,7.054776 12.337642,7.054759 12.28103,7.054759 12.077024,7.054678 12.077024,7.0146 12.076943,6.841959 12.077008,6.841958 12.076926,6.781669 12.076946,6.512178 12.280383,6.511956 12.350033,6.511956" style="fill: white" /><polygon type="contour" points="13.243512,6.574766 13.242847,6.841954 13.242967,6.841954 13.242777,7.015606 13.242778,7.054678 13.217801,7.054756 13.120327,7.054756 13.120327,7.012252 13.120355,6.841975 13.120355,6.781669 13.120476,6.512844 13.146997,6.512844 13.243556,6.512193" style="fill: white" /><polygon type="contour" points="13.419343,7.879674 13.419397,7.889296 13.408555,7.889458 13.122617,7.887268 13.122617,7.876379 13.122489,7.595774 13.170397,7.595729 13.24083,7.595729 13.318744,7.595643 13.420627,7.595643" style="fill: white" /><polygon type="contour" points="12.337642,7.595934 12.337642,7.595856 12.350033,7.595861 12.619509,7.595973 12.619352,7.880878 12.619352,7.890977 12.610553,7.890957 12.332777,7.891801 12.281029,7.891784 12.077024,7.89088 12.077024,7.595572 12.117101,7.595572" style="fill: white" /><polygon type="contour" points="11.536058,7.886954 11.248913,7.891805 11.246314,7.891761 11.244326,7.891647 11.240183,7.891517 11.240053,7.887373 11.239938,7.885386 11.239895,7.882788 11.244465,7.596013 11.25459,7.596013 11.536058,7.595643" style="fill: white" /><polygon type="contour" points="11.53584,6.781668 11.535846,6.794061 11.535846,6.850672 11.536131,7.054678 11.249593,7.055172 11.240576,7.055172 11.240574,7.048794 11.239915,6.841954 11.239996,6.841954 11.239894,6.781669 11.241003,6.512193 11.535728,6.512193" style="fill: white" /><polygon type="contour" points="11.536058,5.812956 11.535687,5.984566 11.535664,6.009182 11.255321,6.009083 11.244433,6.009083 11.244609,5.998843 11.242406,5.712304 11.252025,5.712358 11.536058,5.711074" style="fill: white" /><polygon type="contour" points="7.879673,5.712358 7.889295,5.712304 7.88709,5.998842 7.887266,6.009083 7.876377,6.009083 7.596036,6.009182 7.595727,5.961304 7.595727,5.89087 7.595641,5.812957 7.595641,5.711073" style="fill: white" /><polygon type="contour" points="7.880877,6.512349 7.890975,6.512349 7.890955,6.521146 7.891795,6.797416 7.891783,6.850672 7.890879,7.054678 7.595569,7.054678 7.595569,7.0146 7.595933,6.794061 7.595854,6.794061 7.595858,6.781669 7.59597,6.512193" style="fill: white" /><polygon type="contour" points="7.054754,6.512178 7.054775,6.781669 7.054758,6.794061 7.054758,6.850672 7.054676,7.054678 7.014598,7.054678 6.841957,7.05476 6.841956,7.054694 6.781667,7.054777 6.512176,7.054756 6.511955,6.851319 6.511955,6.781668 6.51219,6.512193 6.580011,6.512193 6.794054,6.511956 6.851317,6.511956" style="fill: white" /><polygon type="contour" points="6.574764,5.88819 6.841952,5.888853 6.841952,5.888735 7.015604,5.888926 7.054676,5.888925 7.054754,5.913901 7.054754,6.011374 7.012249,6.011374 6.841974,6.011347 6.781667,6.011347 6.511998,6.010844 6.511998,5.984777 6.512191,5.888147" style="fill: white" /><polygon type="contour" points="6.008936,5.710966 6.008936,5.817568 6.009211,5.982465 6.009211,6.009213 5.982462,6.009213 5.739995,6.011025 5.713507,6.010889 5.712075,5.967546 5.70629,5.706292 5.868197,5.711793 5.926471,5.705426" style="fill: white" /><polygon type="contour" points="5.984701,6.512844 6.011224,6.512844 6.011224,6.572554 6.011345,6.794056 6.011345,6.851319 6.011373,7.054756 5.987784,7.054678 5.888922,7.054678 5.888924,7.015606 5.888733,6.841953 5.888852,6.841954 5.888188,6.574767 5.888145,6.512193" style="fill: white" /><polygon type="contour" points="5.983941,7.595744 6.009211,7.595774 6.009082,7.876379 6.009082,7.887268 5.998841,7.887092 5.712302,7.889296 5.712356,7.879674 5.711073,7.595643 5.812956,7.595643" style="fill: white" /><polygon type="contour" points="7.05517,7.882108 7.05517,7.891127 7.048793,7.891129 6.841952,7.891787 6.841952,7.891705 6.781667,7.891808 6.512191,7.8907 6.512191,7.595973 6.781666,7.595861 6.794058,7.595856 6.85067,7.595856 7.054676,7.595572" style="fill: white" /><polygon type="contour" points="7.891803,7.882788 7.891759,7.885386 7.891645,7.887373 7.891515,7.891517 7.887371,7.891647 7.885384,7.891761 7.882786,7.891805 7.59601,7.887236 7.59601,7.87711 7.595641,7.595643 7.886953,7.595643" style="fill: white" /><polygon type="contour" points="7.891127,12.082909 7.891859,12.31316 7.890955,12.610556 7.890975,12.619354 7.880876,12.619354 7.59597,12.619511 7.595858,12.350034 7.595854,12.337643 7.595854,12.281031 7.595569,12.077026 7.882106,12.076532 7.891125,12.076532" style="fill: white" /><polygon type="contour" points="7.885384,11.239939 7.887371,11.240054 7.891515,11.240184 7.891645,11.244327 7.891759,11.246315 7.891803,11.248913 7.886952,11.53606 7.595641,11.53606 7.595641,11.244748 7.882786,11.239896" style="fill: white" /><polygon type="contour" points="5.998842,11.244611 6.009082,11.244435 6.009082,11.255323 6.009211,11.535929 5.961302,11.535975 5.89087,11.535975 5.812955,11.53606 5.711073,11.53606 5.712356,11.252028 5.712302,11.242409" style="fill: white" /><polygon type="contour" points="6.850671,11.23992 7.054676,11.240824 7.054676,11.536132 7.014598,11.536132 6.794059,11.535769 6.794059,11.535848 6.781666,11.535842 6.512191,11.535729 6.512347,11.250824 6.512347,11.240726 6.521144,11.240746 6.798923,11.239902" style="fill: white" /><polygon type="contour" points="6.794059,12.076945 6.85067,12.076945 7.054676,12.077026 7.054676,12.117103 7.054758,12.289744 7.054692,12.289745 7.054775,12.350034 7.054754,12.619524 6.851318,12.619748 6.781666,12.619748 6.512191,12.619511 6.512191,12.55169 6.511955,12.337647 6.511955,12.280384 6.512176,12.076948 6.781667,12.076928" style="fill: white" /><polygon type="contour" points="6.011373,12.119451 6.011345,12.289728 6.011345,12.350034 6.011223,12.618861 5.984701,12.618861 5.888145,12.619511 5.888188,12.556936 5.888852,12.28975 5.888733,12.28975 5.888924,12.116097 5.888922,12.077026 5.913899,12.076948 6.011373,12.076948" style="fill: white" /><polygon type="contour" points="6.009211,13.122491 6.009211,13.186744 6.008936,13.420739 5.868196,13.419912 5.70629,13.425412 5.711393,13.271395 5.713507,13.120813 5.7356,13.120728 5.739994,13.120676 5.758823,13.120676" style="fill: white" /><polygon type="contour" points="7.054676,13.143918 7.054676,13.24278 7.015604,13.242778 6.841951,13.242969 6.841952,13.242849 6.574765,13.243514 6.512191,13.243557 6.511998,13.146925 6.511998,13.120859 6.570684,13.120859 6.794053,13.120357 6.851318,13.120357 7.054754,13.12033" style="fill: white" /><polygon type="contour" points="7.876376,13.122619 7.887266,13.122619 7.88709,13.132858 7.889295,13.419397 7.879673,13.419343 7.595641,13.42063 7.595641,13.318748 7.596011,13.147138 7.596036,13.122522" style="fill: white" /><polygon type="contour" points="12.289727,13.120357 12.350033,13.120357 12.619702,13.120859 12.619702,13.146925 12.619509,13.243557 12.556936,13.243514 12.289749,13.242848 12.289749,13.242968 12.116095,13.242777 12.077024,13.24278 12.076946,13.217802 12.076946,13.12033 12.11945,13.12033" style="fill: white" /><polygon type="contour" points="11.535973,13.170399 11.535973,13.240832 11.536058,13.318748 11.536058,13.42063 11.252025,13.419344 11.242406,13.419398 11.242244,13.408556 11.244433,13.122619 11.255322,13.122619 11.535664,13.122522" style="fill: white" /><polygon type="contour" points="11.536131,12.117102 11.535766,12.337643 11.535846,12.337643 11.53584,12.350035 11.535728,12.619511 11.250824,12.619354 11.240726,12.619354 11.240746,12.610555 11.2399,12.332784 11.239918,12.28103 11.240822,12.077026 11.536131,12.077026" style="fill: white" /><polygon type="contour" points="11.535689,11.244466 11.535689,11.254592 11.536058,11.53606 11.244745,11.53606 11.239894,11.248914 11.239939,11.246314 11.240053,11.244327 11.240183,11.240184 11.244326,11.240054 11.246313,11.23994 11.248912,11.239896" style="fill: white" /><polygon type="contour" points="13.419343,11.252028 13.420627,11.53606 13.318744,11.53606 13.147758,11.535959 13.122489,11.53593 13.122617,11.255323 13.122617,11.244435 13.132855,11.244611 13.419397,11.242409" style="fill: white" /><polygon type="contour" points="12.610553,11.240747 12.619352,11.240727 12.619352,11.250825 12.619509,11.535729 12.350033,11.535842 12.337641,11.535848 12.28103,11.535848 12.077024,11.536132 12.07653,11.249594 12.07653,11.240577 12.082907,11.240575 12.313159,11.239842" style="fill: white" /><polygon type="contour" points="12.619522,12.076948 12.619744,12.280384 12.619744,12.350034 12.619509,12.619511 12.55169,12.619511 12.337646,12.619747 12.337646,12.619741 12.280383,12.619748 12.076946,12.619524 12.076926,12.350034 12.076943,12.337642 12.076943,12.281031 12.077024,12.077026 12.1171,12.077026 12.289743,12.076945 12.289744,12.07701 12.350033,12.076928" style="fill: white" /><polygon type="contour" points="13.143915,12.077026 13.242778,12.077026 13.242777,12.116097 13.242967,12.28975 13.242847,12.289749 13.243512,12.556937 13.243556,12.619511 13.146997,12.618861 13.120476,12.618861 13.120476,12.559149 13.120355,12.337647 13.120355,12.280384 13.120327,12.076948" style="fill: white" /><polygon type="contour" points="13.418194,13.120813 13.419626,13.164155 13.42541,13.425412 13.263503,13.419912 13.205228,13.426279 13.122764,13.420739 13.122764,13.314134 13.122489,13.149237 13.122489,13.122491 13.149236,13.122491 13.391706,13.120676" style="fill: white" />
</svg>
