<svg width="19.131698" height="19.131699">
<polygon type="contour" points="8.740598,8.637854 8.937644,8.636937 8.939354,8.689251 8.939446,8.69484 8.940203,8.805082 9.067548,8.805699 9.109873,8.805463 9.109817,8.868127 9.109817,8.940474 9.109693,8.940474 9.109873,9.0538 9.109873,9.109875 9.067548,9.109819 9.018442,9.109819 9.018442,9.109735 8.888074,9.109875 8.805462,9.109875 8.805105,9.065067 8.806055,8.940387 8.638936,8.940387 8.638907,8.861884 8.638514,8.812022 8.637556,8.725013 8.6372,8.716194 8.634783,8.634785" style="fill: white" /><polygon type="contour" points="9.109932,9.292869 9.109932,9.790604 9.109873,9.825896 9.109873,9.880687 9.067548,9.880448 9.018442,9.880448 9.018442,9.880092 8.888073,9.880687 8.805461,9.880687 8.805126,9.836488 8.806178,9.711102 8.634839,9.711102 8.634639,9.659477 8.63509,9.566201 8.635272,9.510635 8.634839,9.420602 8.805166,9.420602 8.805729,9.292869 8.805462,9.251017 8.868126,9.251256 8.940471,9.251256 8.940471,9.251783 9.053798,9.251017 9.109873,9.251017" style="fill: white" /><polygon type="contour" points="10.494499,8.716194 10.494145,8.725013 10.493186,8.812021 10.492794,8.861884 10.492765,8.940387 10.326619,8.940387 10.326003,9.06755 10.326239,9.109875 10.263573,9.109819 10.191227,9.109819 10.191227,9.109695 10.0779,9.109875 10.021827,9.109875 10.021883,9.06755 10.021883,9.018444 10.021966,9.018444 10.021827,8.888076 10.021827,8.805464 10.066634,8.805107 10.189993,8.806047 10.192251,8.750736 10.192251,8.69484 10.194057,8.636937 10.391101,8.637854 10.496916,8.634785" style="fill: white" /><polygon type="contour" points="9.673047,8.637858 9.711101,8.638956 9.711101,8.805171 9.838832,8.805731 9.880685,8.805464 9.880446,8.868128 9.880446,8.940474 9.879918,8.940474 9.880685,9.0538 9.880685,9.109875 9.838832,9.109934 9.341097,9.109934 9.305806,9.109875 9.251015,9.109875 9.251254,9.06755 9.251254,9.018444 9.251609,9.018444 9.251015,8.888076 9.251015,8.805464 9.295214,8.805129 9.4206,8.806182 9.4206,8.638837 9.45847,8.637858 9.481843,8.636752 9.5655,8.635158" style="fill: white" /><polygon type="contour" points="9.880526,9.292869 9.880526,9.711102 9.880167,9.711102 9.880685,9.825896 9.880685,9.880687 9.838832,9.880528 9.4206,9.880528 9.4206,9.880169 9.305806,9.880687 9.251015,9.880687 9.251172,9.838834 9.251172,9.420602 9.251525,9.420602 9.251015,9.305807 9.251015,9.251017 9.292867,9.251174 9.711101,9.251174 9.711101,9.251527 9.825894,9.251017 9.880685,9.251017" style="fill: white" /><polygon type="contour" points="10.326574,9.295216 10.325522,9.420602 10.496862,9.420602 10.49706,9.472227 10.49661,9.565501 10.496429,9.621069 10.496862,9.711102 10.326534,9.711102 10.325972,9.838834 10.326239,9.880687 10.263573,9.880448 10.191227,9.880448 10.191227,9.87992 10.0779,9.880687 10.021827,9.880687 10.021768,9.838834 10.021768,9.341099 10.021827,9.305807 10.021827,9.251017 10.064152,9.251256 10.113257,9.251256 10.113257,9.251611 10.243624,9.251017 10.326239,9.251017" style="fill: white" /><polygon type="contour" points="10.326596,10.066636 10.325645,10.191317 10.492765,10.191317 10.492794,10.269819 10.493185,10.319679 10.494145,10.406689 10.4945,10.415509 10.496917,10.496919 10.391101,10.49385 10.194057,10.494766 10.192347,10.442451 10.192251,10.436863 10.191498,10.32662 10.064152,10.326005 10.021827,10.326241 10.021883,10.263575 10.021883,10.191228 10.022006,10.191228 10.021827,10.077902 10.021827,10.021829 10.064151,10.021885 10.113257,10.021885 10.113257,10.021968 10.243624,10.021829 10.326239,10.021829" style="fill: white" /><polygon type="contour" points="9.825894,10.021829 9.880685,10.021829 9.880446,10.064154 9.880446,10.113259 9.88009,10.113259 9.880685,10.243625 9.880685,10.326241 9.836487,10.326576 9.711101,10.325522 9.711101,10.492866 9.673046,10.493846 9.649562,10.494951 9.565748,10.496545 9.458471,10.493846 9.4206,10.492748 9.4206,10.326533 9.292867,10.325974 9.251015,10.326241 9.251254,10.263575 9.251254,10.191228 9.251781,10.191228 9.251015,10.077902 9.251015,10.021829 9.292867,10.02177 9.790603,10.02177" style="fill: white" /><polygon type="contour" points="9.109817,10.064153 9.109817,10.113259 9.109733,10.113259 9.109873,10.243625 9.109873,10.326241 9.065065,10.326598 8.941718,10.325657 8.939446,10.380967 8.939446,10.436862 8.937644,10.494765 8.740597,10.49385 8.634783,10.496919 8.6372,10.415508 8.637556,10.406689 8.638513,10.31968 8.638906,10.269819 8.638936,10.191317 8.805081,10.191317 8.805697,10.064153 8.805461,10.021829 8.868125,10.021885 8.940471,10.021885 8.940471,10.022008 9.053798,10.021829 9.109873,10.021829" style="fill: white" />
</svg>
