<svg width="19.131698" height="19.131699">
<polygon type="contour" points="9.592477,9.383299 9.644743,9.395402 9.667569,9.408452 9.673731,9.417868 9.684175,9.424833 9.690833,9.43149 9.702928,9.441446 9.708319,9.448185 9.712812,9.454476 9.730452,9.482024 9.737592,9.49533 9.738566,9.498251 9.756748,9.546352 9.757473,9.54992 9.757497,9.550745 9.756297,9.561203 9.746707,9.614228 9.745309,9.62321 9.742713,9.630997 9.739122,9.637982 9.720714,9.668309 9.715121,9.676299 9.684834,9.715368 9.682741,9.717378 9.6823,9.717791 9.61658,9.748722 9.609141,9.751761 9.55272,9.755483 9.544721,9.755883 9.503999,9.743401 9.482082,9.733605 9.475895,9.730811 9.473498,9.729613 9.471702,9.728615 9.446565,9.706294 9.437777,9.700303 9.430983,9.694708 9.424591,9.686319 9.419796,9.679125 9.403652,9.655993 9.397485,9.644634 9.392299,9.635462 9.388085,9.605284 9.3769,9.564951 9.377488,9.561183 9.377287,9.556193 9.377488,9.551002 9.3769,9.545001 9.390981,9.498801 9.396359,9.489374 9.399281,9.48418 9.402201,9.478341 9.419849,9.454165 9.426138,9.445178 9.433329,9.436192 9.441416,9.429901 9.455702,9.41628 9.46849,9.407889 9.488618,9.398576 9.502603,9.392184 9.506197,9.390984 9.519783,9.387788 9.52977,9.38659 9.558314,9.382383 9.567903,9.381584" style="fill: white" />
</svg>
