<svg width="19.131698" height="19.131699">
<polygon type="contour" points="11.572859,13.204035 11.572859,13.252512 11.572962,13.346787 11.572962,13.470062 11.371241,13.469149 11.281005,13.469653 11.27948,13.367953 11.280987,13.171149 11.379693,13.171149 11.572646,13.171082" style="fill: white" /><polygon type="contour" points="12.169769,13.169592 12.169937,13.208352 12.169937,13.292968 12.045027,13.292832 11.957156,13.292835 11.956982,13.236661 11.956982,13.169574 12.052571,13.169574" style="fill: white" /><polygon type="contour" points="12.639394,12.542933 12.82503,12.542933 12.82503,12.639395 12.824868,12.82487 12.690254,12.82487 12.542932,12.825033 12.54293,12.737789 12.54293,12.542931" style="fill: white" /><polygon type="contour" points="12.825001,13.169938 12.825001,13.226936 12.824868,13.293446 12.700667,13.293361 12.542929,13.292967 12.542932,13.250202 12.542932,13.169592 12.639393,13.169592" style="fill: white" /><polygon type="contour" points="13.46859,13.170189 13.472546,13.289929 13.476681,13.476683 13.268115,13.469598 13.228006,13.47398 13.171248,13.470167 13.171248,13.342022 13.171059,13.228528 13.171059,13.171061 13.228526,13.171061 13.395413,13.169812" style="fill: white" /><polygon type="contour" points="13.293359,12.700667 13.293445,12.82487 13.226985,12.824423 13.169673,12.824423 13.169673,12.695387 13.169589,12.542933 13.20835,12.54293 13.292967,12.54293" style="fill: white" /><polygon type="contour" points="13.22262,11.957157 13.292833,11.957157 13.29283,12.045028 13.292967,12.169939 13.2502,12.16977 13.16959,12.16977 13.16959,12.097003 13.169571,11.956983" style="fill: white" /><polygon type="contour" points="12.824877,11.956983 12.82503,12.097003 12.82503,12.16977 12.737786,12.169939 12.542928,12.169939 12.542895,12.102041 12.542895,11.9571 12.639393,11.956969" style="fill: white" /><polygon type="contour" points="12.169937,12.022947 12.169937,12.169939 12.10204,12.1699 11.957098,12.1699 11.957098,12.102041 11.957155,11.957157 12.047287,11.957157 12.169899,11.9571" style="fill: white" /><polygon type="contour" points="12.022946,12.54293 12.169937,12.54293 12.169769,12.639396 12.169769,12.825032 12.097002,12.825034 11.956982,12.82488 11.956968,12.639395 11.957098,12.542896" style="fill: white" /><polygon type="contour" points="11.572767,12.639396 11.57269,12.82487 11.376597,12.824763 11.278436,12.824763 11.278625,12.739236 11.278028,12.54293 11.371131,12.542896 11.572811,12.542896" style="fill: white" /><polygon type="contour" points="11.573013,12.047289 11.572811,12.1699 11.371131,12.1699 11.278028,12.169939 11.27805,12.102041 11.278691,11.957157 11.573013,11.957157" style="fill: white" /><polygon type="contour" points="11.5727,11.281281 11.5727,11.373065 11.572962,11.572964 11.281479,11.572964 11.278033,11.369032 11.278479,11.342803 11.279625,11.32276 11.280942,11.280943 11.322759,11.279626 11.342802,11.27848 11.36903,11.278035" style="fill: white" /><polygon type="contour" points="12.169899,11.371133 12.169899,11.572813 12.10204,11.572813 11.957156,11.573014 11.956805,11.369515 11.956805,11.278518 12.021153,11.278503 12.169937,11.27803" style="fill: white" /><polygon type="contour" points="12.739235,11.278627 12.82476,11.278437 12.82476,11.376598 12.824868,11.57269 12.639393,11.572769 12.542895,11.572813 12.542895,11.371133 12.542929,11.27803" style="fill: white" /><polygon type="contour" points="13.263962,11.282588 13.469652,11.281008 13.469147,11.371245 13.470059,11.572964 13.346784,11.572964 13.225348,11.572892 13.171059,11.57283 13.171147,11.379694 13.171147,11.280989" style="fill: white" /><polygon type="contour" points="13.469147,7.760458 13.469652,7.850697 13.367951,7.852221 13.171147,7.850713 13.171147,7.752008 13.171059,7.558874 13.204033,7.558844 13.252509,7.558844 13.346784,7.558739 13.470059,7.558739" style="fill: white" /><polygon type="contour" points="13.470107,5.85342 13.46859,5.961514 13.407554,5.961748 13.395412,5.96189 13.343395,5.96189 13.171059,5.960642 13.171059,5.82259 13.171248,5.661537 13.268116,5.662107 13.476681,5.65502" style="fill: white" /><polygon type="contour" points="12.825001,5.904766 12.825001,5.961766 12.696672,5.961766 12.542932,5.962112 12.54293,5.923351 12.54293,5.838735 12.700668,5.838344 12.824867,5.838257" style="fill: white" /><polygon type="contour" points="12.824868,6.306833 12.824868,6.441449 12.82503,6.58877 12.737786,6.588773 12.542929,6.588773 12.542932,6.492307 12.542932,6.306671 12.639393,6.306671" style="fill: white" /><polygon type="contour" points="13.293359,6.431036 13.292967,6.588773 13.2502,6.588771 13.16959,6.588771 13.16959,6.492308 13.169673,6.307281 13.226986,6.307281 13.293445,6.306833" style="fill: white" /><polygon type="contour" points="13.29283,7.086675 13.292833,7.174546 13.236659,7.174721 13.169571,7.174721 13.169571,7.079131 13.169589,6.961935 13.208351,6.961765 13.292967,6.961765" style="fill: white" /><polygon type="contour" points="11.572962,7.850221 11.369031,7.853666 11.342801,7.853222 11.322759,7.852076 11.280942,7.85076 11.279625,7.808941 11.278479,7.788898 11.278034,7.76267 11.281279,7.559002 11.373063,7.559002 11.572962,7.558739" style="fill: white" /><polygon type="contour" points="12.169899,7.55889 12.169899,7.76057 12.169937,7.853674 12.10204,7.853651 11.957156,7.853009 11.957156,7.558688 12.047288,7.558688" style="fill: white" /><polygon type="contour" points="12.639393,7.558934 12.824868,7.559011 12.82476,7.755105 12.82476,7.853265 12.739234,7.853077 12.542929,7.853674 12.542895,7.76057 12.542895,7.558889" style="fill: white" /><polygon type="contour" points="12.639393,6.961935 12.82503,6.961935 12.82503,7.0347 12.824877,7.174721 12.639394,7.174735 12.542895,7.174603 12.542929,7.108755 12.542929,6.961765" style="fill: white" /><polygon type="contour" points="12.169899,7.02966 12.169899,7.174603 12.102041,7.174603 11.957156,7.174546 11.957156,7.084414 11.957098,6.961804 12.022946,6.961765 12.169937,6.961765" style="fill: white" /><polygon type="contour" points="11.371131,6.961804 11.572811,6.961804 11.572811,7.029661 11.573013,7.174546 11.369514,7.174897 11.278517,7.174897 11.278502,7.110548 11.278028,6.961765" style="fill: white" /><polygon type="contour" points="11.572767,6.492307 11.572811,6.588808 11.371131,6.588808 11.278028,6.588773 11.277863,6.492308 11.278626,6.306833 11.57269,6.306833" style="fill: white" /><polygon type="contour" points="12.169937,6.393913 12.169937,6.588773 12.10204,6.588808 11.957098,6.588808 11.956968,6.492308 11.956982,6.306823 12.097003,6.306671 12.169769,6.306671" style="fill: white" /><polygon type="contour" points="12.169769,5.8815 12.169769,5.962112 12.097003,5.962112 11.956982,5.96213 11.957156,5.90908 11.957156,5.83887 12.045026,5.838873 12.169937,5.838735" style="fill: white" /><polygon type="contour" points="11.572962,5.784916 11.572698,5.906794 11.572646,5.960622 11.379692,5.960553 11.280987,5.960553 11.282587,5.867737 11.281005,5.662049 11.371241,5.662554 11.572962,5.661642" style="fill: white" /><polygon type="contour" points="7.760457,5.662554 7.850695,5.662049 7.849113,5.867737 7.850711,5.960553 7.752007,5.960553 7.559053,5.960622 7.558842,5.927669 7.558842,5.879191 7.558737,5.784916 7.558737,5.661642" style="fill: white" /><polygon type="contour" points="5.863583,5.662107 5.903693,5.657725 5.960452,5.661537 5.960452,5.789679 5.960641,5.903174 5.960641,5.960643 5.903171,5.960643 5.736287,5.96189 5.66311,5.961514 5.659154,5.841772 5.655019,5.655021" style="fill: white" /><polygon type="contour" points="5.904712,6.307281 5.962027,6.307281 5.962027,6.436316 5.96211,6.588771 5.923349,6.588774 5.838733,6.588774 5.838342,6.431035 5.838255,6.306833" style="fill: white" /><polygon type="contour" points="5.906351,7.558811 5.960641,7.558874 5.960552,7.752008 5.960552,7.850713 5.867735,7.849115 5.662047,7.850697 5.662552,7.760458 5.66164,7.558739 5.784915,7.558739" style="fill: white" /><polygon type="contour" points="5.881499,6.961935 5.96211,6.961935 5.96211,7.0347 5.962129,7.174721 5.909079,7.174546 5.838868,7.174546 5.838869,7.086675 5.838733,6.961765" style="fill: white" /><polygon type="contour" points="7.029659,6.961804 7.174602,6.961804 7.174602,7.02966 7.174544,7.174546 7.084412,7.174546 6.961802,7.174604 6.961763,7.108755 6.961763,6.961765" style="fill: white" /><polygon type="contour" points="6.588805,7.029661 6.588805,7.174604 6.492306,7.174735 6.306822,7.174721 6.30667,7.034699 6.30667,6.961935 6.393913,6.961765 6.588771,6.961765" style="fill: white" /><polygon type="contour" points="6.588772,6.393913 6.588772,6.588774 6.492305,6.588771 6.30667,6.588771 6.30667,6.492308 6.306832,6.306833 6.441447,6.306833 6.588769,6.306671" style="fill: white" /><polygon type="contour" points="6.431033,5.838344 6.588772,5.838735 6.588769,5.8815 6.588769,5.962112 6.492306,5.962112 6.306699,5.961766 6.306699,5.904766 6.306832,5.838257" style="fill: white" /><polygon type="contour" points="7.086673,5.838873 7.174544,5.83887 7.174719,5.895043 7.174719,5.96213 7.079129,5.96213 6.961932,5.962112 6.961763,5.92335 6.961763,5.838735" style="fill: white" /><polygon type="contour" points="7.174719,6.306823 7.174733,6.492308 7.174602,6.588808 7.108755,6.588773 6.961763,6.588774 6.961932,6.492308 6.961932,6.306671 7.034697,6.306671" style="fill: white" /><polygon type="contour" points="7.755103,6.306941 7.853264,6.306941 7.853075,6.392466 7.853672,6.588773 7.760568,6.588808 7.558887,6.588808 7.558932,6.492308 7.559009,6.306833" style="fill: white" /><polygon type="contour" points="7.85365,7.029661 7.853008,7.174546 7.558686,7.174546 7.558686,7.084414 7.558888,6.961804 7.760568,6.961804 7.853672,6.961765" style="fill: white" /><polygon type="contour" points="7.853665,7.76267 7.85322,7.788898 7.852074,7.808941 7.850757,7.85076 7.808939,7.852076 7.788897,7.853222 7.762667,7.853666 7.559,7.850421 7.559,7.758636 7.558737,7.558739 7.85022,7.558739" style="fill: white" /><polygon type="contour" points="7.174895,7.762187 7.174895,7.853185 7.110547,7.8532 6.961763,7.853674 6.961802,7.76057 6.961802,7.55889 7.029659,7.55889 7.174544,7.558688" style="fill: white" /><polygon type="contour" points="6.588805,7.760569 6.588771,7.853674 6.492305,7.853837 6.306832,7.853075 6.306832,7.559011 6.492306,7.558934 6.588805,7.558889" style="fill: white" /><polygon type="contour" points="5.881499,12.542933 5.96211,12.542933 5.96211,12.639395 5.962027,12.824423 5.904713,12.824423 5.838255,12.82487 5.838342,12.700668 5.838733,12.54293" style="fill: white" /><polygon type="contour" points="5.962129,12.052572 5.96211,12.16977 5.923348,12.169939 5.838733,12.169939 5.838869,12.045028 5.838868,11.957157 5.895041,11.956983 5.962129,11.956983" style="fill: white" /><polygon type="contour" points="5.960552,11.379694 5.960641,11.57283 5.927666,11.57286 5.87919,11.57286 5.784915,11.572964 5.661641,11.572964 5.662552,11.371245 5.662047,11.281008 5.867735,11.282588 5.960552,11.280989" style="fill: white" /><polygon type="contour" points="7.788896,11.27848 7.808939,11.279626 7.850757,11.280943 7.852074,11.32276 7.85322,11.342803 7.853665,11.369032 7.85022,11.572964 7.558737,11.572964 7.558737,11.281481 7.762668,11.278034" style="fill: white" /><polygon type="contour" points="7.029659,11.278052 7.174544,11.278693 7.174544,11.573014 7.084412,11.573014 6.961802,11.572813 6.961802,11.371133 6.961763,11.27803" style="fill: white" /><polygon type="contour" points="6.588805,11.371134 6.588805,11.572813 6.492306,11.572769 6.306832,11.572691 6.306939,11.376598 6.306939,11.278437 6.392465,11.278626 6.588771,11.27803" style="fill: white" /><polygon type="contour" points="6.588805,11.9571 6.588772,12.022947 6.588772,12.169939 6.492306,12.16977 6.30667,12.16977 6.30667,12.097004 6.306822,11.956983 6.492306,11.956969" style="fill: white" /><polygon type="contour" points="7.174544,11.957157 7.174544,12.047289 7.174602,12.1699 7.108754,12.169939 6.961763,12.169939 6.961802,12.102041 6.961802,11.9571 7.029658,11.9571" style="fill: white" /><polygon type="contour" points="7.853198,12.021155 7.853672,12.169939 7.760568,12.1699 7.558888,12.1699 7.558888,12.102041 7.558686,11.957157 7.762186,11.956807 7.853183,11.956807" style="fill: white" /><polygon type="contour" points="7.853672,12.54293 7.853075,12.739236 7.853264,12.824763 7.755103,12.824763 7.559009,12.82487 7.558932,12.639395 7.558887,12.542896 7.760568,12.542896" style="fill: white" /><polygon type="contour" points="7.752006,13.171149 7.850711,13.171149 7.849113,13.263964 7.850695,13.469653 7.760457,13.469148 7.558737,13.470062 7.558737,13.346787 7.559,13.22491 7.559054,13.171082" style="fill: white" /><polygon type="contour" points="7.174544,13.222624 7.174544,13.292835 7.086673,13.292832 6.961763,13.292969 6.961932,13.250202 6.961932,13.169592 7.034697,13.169592 7.174719,13.169574" style="fill: white" /><polygon type="contour" points="7.174733,12.639395 7.174719,12.824879 7.034697,12.825034 6.961932,12.825034 6.961763,12.737789 6.961763,12.54293 7.029658,12.542896 7.174602,12.542896" style="fill: white" /><polygon type="contour" points="6.588769,12.639396 6.588769,12.825034 6.492305,12.825034 6.306832,12.82487 6.306832,12.690253 6.30667,12.542933 6.393912,12.54293 6.588772,12.54293" style="fill: white" /><polygon type="contour" points="6.588772,13.208352 6.588772,13.292969 6.431033,13.293361 6.306832,13.293446 6.306699,13.226936 6.306699,13.169938 6.435028,13.169938 6.588769,13.169592" style="fill: white" /><polygon type="contour" points="5.960641,13.171061 5.960641,13.309113 5.960452,13.470167 5.863584,13.469598 5.655019,13.476683 5.661591,13.278282 5.66311,13.170189 5.724144,13.169954 5.736287,13.169812 5.788305,13.169812" style="fill: white" />
</svg>
