<svg width="19.131698" height="19.131699">
<polygon type="contour" points="10.85964,8.464185 10.85964,8.565336 10.699576,8.563223 10.682117,8.561536 10.571828,8.559873 10.572587,8.460097 10.570164,8.449583 10.568478,8.432125 10.566366,8.272063 10.860097,8.272063" style="fill: white" /><polygon type="contour" points="11.735637,8.501534 11.73565,8.568552 11.526723,8.568913 11.322032,8.568404 11.260138,8.568517 11.260138,8.35008 11.260324,8.271947 11.50358,8.272172 11.535107,8.272172 11.690009,8.271836 11.735637,8.271836" style="fill: white" /><polygon type="contour" points="12.449491,8.281286 12.449308,8.565416 12.443851,8.565319 12.424421,8.565295 12.216546,8.564383 12.158371,8.56512 12.158371,8.349202 12.158274,8.272172 12.19132,8.272172 12.423522,8.27194 12.446254,8.271915 12.449592,8.271915" style="fill: white" /><polygon type="contour" points="12.273748,7.5966 12.273634,7.5966 12.273687,7.608324 12.273625,7.620455 12.273742,7.620455 12.274874,7.871564 12.156343,7.871564 12.155338,7.615238 12.155419,7.588392 12.155871,7.439917 12.155871,7.396052 12.274782,7.396052" style="fill: white" /><polygon type="contour" points="12.448569,6.960801 12.448762,6.974103 12.446091,6.974117 12.445392,6.974156 12.443163,6.974156 12.423782,6.974091 12.275984,6.973907 12.158371,6.973328 12.158429,6.708176 12.158424,6.687917 12.158424,6.682118 12.172354,6.682287 12.451583,6.680118" style="fill: white" /><polygon type="contour" points="11.511246,6.85796 11.511246,6.858076 11.523257,6.858014 11.535102,6.858068 11.535102,6.857953 11.73565,6.856921 11.73565,6.975831 11.691784,6.975831 11.516275,6.97636 11.260138,6.975358 11.260138,6.856828" style="fill: white" /><polygon type="contour" points="11.532533,7.395707 11.691785,7.396052 11.73565,7.396052 11.735998,7.596226 11.735989,7.620444 11.735989,7.626052 11.735637,7.871351 11.53091,7.871796 11.511249,7.871774 11.511248,7.871774 11.327108,7.871564 11.260324,7.871564 11.259911,7.602817 11.260349,7.441692 11.260349,7.396065 11.523048,7.395686" style="fill: white" /><polygon type="contour" points="10.859866,7.396065 10.859866,7.441692 10.859511,7.605192 10.859755,7.804594 10.859941,7.871564 10.563184,7.871564 10.562787,7.610423 10.56326,7.438088 10.56315,7.396052 10.795693,7.396052" style="fill: white" /><polygon type="contour" points="10.859549,6.784977 10.859549,6.97374 10.646777,6.973426 10.566582,6.973328 10.566407,6.707277 10.566305,6.682377 10.571749,6.682298 10.85964,6.681754" style="fill: white" /><polygon type="contour" points="6.973327,6.68158 6.973327,6.973328 6.930614,6.973515 6.686309,6.974156 6.685608,6.974117 6.682938,6.974103 6.683132,6.960801 6.680117,6.680118 6.707162,6.67999" style="fill: white" /><polygon type="contour" points="7.605189,8.27219 7.804592,8.271947 7.871563,8.271947 7.871563,8.568517 7.610443,8.568912 7.438086,8.568442 7.396051,8.568552 7.396051,8.336008 7.396063,8.271836 7.44169,8.271836" style="fill: white" /><polygon type="contour" points="8.563171,8.342934 8.559871,8.559873 8.460096,8.559114 8.449581,8.561536 8.432124,8.563222 8.272061,8.565336 8.272061,8.272063 8.565334,8.272063" style="fill: white" /><polygon type="contour" points="8.568912,7.604981 8.568402,7.809668 8.568516,7.871564 8.271945,7.871564 8.27217,7.628143 8.27217,7.596595 8.271834,7.441692 8.271834,7.396065 8.501532,7.396065 8.56855,7.396052" style="fill: white" /><polygon type="contour" points="8.281284,6.682209 8.565414,6.682393 8.565318,6.687849 8.56533,6.973515 8.3492,6.973328 8.27217,6.973426 8.27217,6.893388 8.272152,6.784977 8.27206,6.741909 8.271913,6.685445 8.271913,6.682108" style="fill: white" /><polygon type="contour" points="7.871563,6.975358 7.615423,6.97636 7.439915,6.975831 7.396051,6.975831 7.396051,6.856921 7.596597,6.857953 7.596597,6.858068 7.608442,6.858014 7.620452,6.858076 7.620452,6.85796 7.871563,6.856828" style="fill: white" /><polygon type="contour" points="7.620441,7.395714 7.626746,7.395714 7.87135,7.396065 7.871772,7.590486 7.871772,7.628142 7.87135,7.677324 7.871563,7.871564 7.604166,7.871794 7.44169,7.871351 7.396063,7.871351 7.395684,7.608633 7.396051,7.439916 7.396051,7.396052 7.59466,7.395707" style="fill: white" /><polygon type="contour" points="6.97583,7.439916 6.976358,7.615444 6.975356,7.871564 6.856826,7.871564 6.857958,7.620456 6.858074,7.620456 6.858012,7.608436 6.858066,7.5966 6.857951,7.5966 6.856918,7.396052 6.97583,7.396052" style="fill: white" /><polygon type="contour" points="6.687914,8.27192 6.784974,8.272154 6.973738,8.272154 6.973424,8.484926 6.973327,8.56512 6.707275,8.565295 6.682375,8.565397 6.682295,8.559952 6.682106,8.271915 6.685443,8.271915" style="fill: white" /><polygon type="contour" points="6.707917,12.157613 6.855428,12.157796 6.973327,12.158374 6.973269,12.423524 6.973274,12.443784 6.973274,12.449583 6.959343,12.449414 6.680117,12.451586 6.683132,12.170902 6.682938,12.157601 6.685607,12.157576 6.686308,12.157547 6.688536,12.157547" style="fill: white" /><polygon type="contour" points="6.976358,11.516259 6.97627,11.545389 6.97583,11.691787 6.97583,11.735652 6.856918,11.735652 6.857951,11.535104 6.858066,11.535104 6.858012,11.523267 6.858074,11.511247 6.857958,11.511247 6.856826,11.26014 6.975356,11.26014" style="fill: white" /><polygon type="contour" points="6.687847,10.566386 6.707275,10.566408 6.915153,10.56732 6.973327,10.566584 6.973327,10.782501 6.973425,10.859532 6.940378,10.859532 6.708175,10.859763 6.685442,10.859788 6.682106,10.859788 6.682207,10.850416 6.682391,10.566289" style="fill: white" /><polygon type="contour" points="8.342933,10.568532 8.55987,10.57183 8.563221,10.699578 8.565334,10.859642 8.272061,10.859642 8.272061,10.566368" style="fill: white" /><polygon type="contour" points="7.809668,10.5633 7.871563,10.563187 7.871563,10.859757 7.62814,10.859532 7.596592,10.859532 7.44169,10.859868 7.396063,10.859868 7.396063,10.63017 7.396051,10.563151 7.60498,10.562788" style="fill: white" /><polygon type="contour" points="7.804591,11.26014 7.871563,11.26014 7.871792,11.527547 7.87135,11.690011 7.87135,11.735639 7.608351,11.736016 7.600248,11.735998 7.439914,11.735652 7.396051,11.735652 7.395704,11.53706 7.395711,11.51126 7.395711,11.504949 7.396063,11.260351 7.600821,11.259907" style="fill: white" /><polygon type="contour" points="7.871563,12.156344 7.871563,12.274876 7.620453,12.273744 7.620453,12.273627 7.60833,12.273689 7.596597,12.273636 7.596597,12.27375 7.396051,12.274783 7.396051,12.155872 7.439915,12.155872 7.615235,12.155339" style="fill: white" /><polygon type="contour" points="8.484923,12.158275 8.565118,12.158374 8.565294,12.424422 8.565396,12.449324 8.559952,12.449403 8.272061,12.449948 8.272152,12.346725 8.272152,12.157964" style="fill: white" /><polygon type="contour" points="8.568911,11.521256 8.568441,11.693614 8.56855,11.735652 8.336006,11.735652 8.271834,11.735638 8.271834,11.690011 8.272188,11.526511 8.271945,11.327109 8.271945,11.26014 8.568516,11.26014" style="fill: white" /><polygon type="contour" points="11.543309,12.15542 11.691784,12.155872 11.73565,12.155872 11.73565,12.274783 11.535103,12.27375 11.535103,12.273636 11.52336,12.273689 11.511246,12.273627 11.511246,12.273744 11.260138,12.274877 11.260138,12.156344 11.516463,12.155339" style="fill: white" /><polygon type="contour" points="10.782499,12.158374 10.85953,12.158276 10.85953,12.238313 10.859549,12.346725 10.859639,12.389791 10.859786,12.446256 10.859786,12.449593 10.850414,12.449492 10.566286,12.449309 10.566383,12.443852 10.56637,12.158189" style="fill: white" /><polygon type="contour" points="10.859552,11.503559 10.8595,11.521538 10.859866,11.690011 10.859866,11.735639 10.630168,11.735639 10.56315,11.735652 10.562786,11.52672 10.563298,11.322034 10.563184,11.26014 10.859941,11.26014" style="fill: white" /><polygon type="contour" points="10.860097,10.758491 10.860097,10.859642 10.566365,10.859642 10.568477,10.699578 10.570165,10.682119 10.571828,10.57183 10.699576,10.568479 10.85964,10.566368" style="fill: white" /><polygon type="contour" points="12.449402,10.571752 12.449592,10.859788 12.446254,10.859788 12.443784,10.859783 12.346724,10.859551 12.157961,10.859551 12.158273,10.646778 12.158371,10.566584 12.424422,10.566408 12.449322,10.566307" style="fill: white" /><polygon type="contour" points="11.693613,10.563262 11.73565,10.563152 11.73565,10.795695 11.735636,10.859868 11.690009,10.859868 11.52651,10.859513 11.327107,10.859757 11.260324,10.859757 11.260324,10.641318 11.260138,10.563186 11.521262,10.562789" style="fill: white" /><polygon type="contour" points="11.69001,11.260351 11.735637,11.260351 11.736014,11.523349 11.73565,11.691787 11.73565,11.735652 11.53549,11.736001 11.511259,11.735992 11.505643,11.735992 11.260349,11.735639 11.259891,11.52416 11.259928,11.51125 11.259928,11.505495 11.260509,11.454379 11.260324,11.26014 11.527507,11.259909" style="fill: white" /><polygon type="contour" points="12.273742,11.511247 12.273625,11.511247 12.273687,11.523379 12.273634,11.535103 12.273748,11.535103 12.274782,11.735652 12.155871,11.735652 12.155871,11.691786 12.155338,11.516464 12.156343,11.26014 12.274874,11.26014" style="fill: white" /><polygon type="contour" points="12.446092,12.157576 12.448762,12.157601 12.448569,12.170902 12.451583,12.451586 12.424537,12.451714 12.158371,12.450124 12.158371,12.373259 12.158186,12.158189 12.201085,12.158189 12.445392,12.157547" style="fill: white" />
</svg>
