<svg width="19.131698" height="19.131699">
<polygon type="contour" points="10.878066,8.228658 10.903502,8.228199 10.903228,8.237589 10.903009,8.257586 10.902947,8.271413 10.903693,8.500863 10.630839,8.500863 10.630839,8.450954 10.632419,8.251901 10.632546,8.249215 10.632546,8.237482 10.632653,8.225478" style="fill: white" /><polygon type="contour" points="10.904216,9.312332 10.906077,9.563022 10.906077,9.566202 10.904216,9.816271 10.904216,9.819371 10.904162,9.852494 10.861469,9.852469 10.630897,9.852121 10.630897,9.279584 10.86147,9.279234 10.904163,9.279209" style="fill: white" /><polygon type="contour" points="8.270229,9.279234 8.500802,9.279584 8.500861,9.560513 8.500861,9.854678 8.270229,9.853237 8.227537,9.852494 8.227483,9.819371 8.225623,9.568681 8.225623,9.56558 8.227484,9.315511 8.227484,9.312332 8.227537,9.279209" style="fill: white" /><polygon type="contour" points="8.499085,8.235084 8.499153,8.237482 8.499281,8.251902 8.499281,8.268461 8.500861,8.500863 8.227821,8.500863 8.228753,8.271413 8.22869,8.257586 8.228472,8.237589 8.228198,8.228199 8.253633,8.228658 8.499047,8.225478" style="fill: white" /><polygon type="contour" points="8.785368,8.395191 8.785298,8.434554 8.785298,8.501329 8.746453,8.501329 8.67895,8.501232 8.67895,8.451322 8.680536,8.395252 8.746454,8.395188" style="fill: white" /><polygon type="contour" points="8.785297,8.680561 8.785368,8.716458 8.785368,8.785371 8.746454,8.7853 8.680559,8.7853 8.680559,8.746455 8.680536,8.680537 8.729548,8.680537" style="fill: white" /><polygon type="contour" points="8.501231,8.728198 8.501328,8.7853 8.46502,8.785371 8.39519,8.785371 8.395258,8.726379 8.39525,8.680537 8.45132,8.678951 8.501231,8.678951" style="fill: white" /><polygon type="contour" points="8.501328,9.035835 8.501223,9.097078 8.452808,9.095007 8.395057,9.095007 8.395115,9.033635 8.39519,8.99805 8.434554,8.998033 8.501328,8.998033" style="fill: white" /><polygon type="contour" points="8.716455,8.99805 8.785368,8.99805 8.78527,9.033634 8.78527,9.094792 8.746453,9.096459 8.680489,9.097078 8.680489,9.050072 8.680559,8.998033" style="fill: white" /><polygon type="contour" points="9.095005,9.280038 9.095005,9.851667 9.050515,9.851667 8.997932,9.851672 8.997932,9.280033 9.033632,9.280033" style="fill: white" /><polygon type="contour" points="9.094789,9.033634 9.095005,9.095007 9.050516,9.095007 8.997932,9.094791 8.998048,9.061449 8.998048,8.99805 9.033631,8.997934 9.094789,8.997934" style="fill: white" /><polygon type="contour" points="9.096456,8.746456 9.094789,8.785272 9.061447,8.785371 8.998048,8.785371 8.998031,8.746455 8.998031,8.680561 9.035832,8.680561 9.097076,8.68049" style="fill: white" /><polygon type="contour" points="9.097076,8.444098 9.097076,8.501225 9.05007,8.501225 8.998031,8.501329 8.998048,8.465022 8.998048,8.395191 9.053086,8.395149 9.095005,8.395059" style="fill: white" /><polygon type="contour" points="9.81619,8.227486 9.819369,8.227486 9.852492,8.227539 9.852539,8.239286 9.852492,8.253122 9.853235,8.270232 9.854676,8.500863 9.65177,8.500661 9.279631,8.500661 9.279539,8.438007 9.279209,8.253122 9.279162,8.239286 9.279209,8.227539 9.312331,8.227486 9.56302,8.225625 9.56612,8.225625" style="fill: white" /><polygon type="contour" points="10.070254,8.99805 10.133652,8.99805 10.133768,9.033635 10.133768,9.094792 10.098067,9.094792 10.036696,9.095007 10.036696,9.050518 10.036912,8.997934" style="fill: white" /><polygon type="contour" points="9.851666,9.050518 9.851666,9.095007 9.280035,9.095007 9.280035,9.050517 9.28003,8.997934 9.85167,8.997934" style="fill: white" /><polygon type="contour" points="9.851589,8.728894 9.85167,8.785272 9.28003,8.785272 9.28011,8.728894 9.280175,8.680537 9.853827,8.680537" style="fill: white" /><polygon type="contour" points="10.097691,8.680561 10.133668,8.680561 10.133652,8.716457 10.133652,8.785371 10.098067,8.785272 10.036912,8.785272 10.03707,8.746456 10.036894,8.68049" style="fill: white" /><polygon type="contour" points="10.098068,8.395117 10.133652,8.395191 10.133668,8.434554 10.133668,8.501329 10.097691,8.501329 10.036894,8.501225 10.036696,8.45281 10.036696,8.395059" style="fill: white" /><polygon type="contour" points="10.404926,8.395259 10.450793,8.395252 10.450793,8.444924 10.45275,8.501232 10.403503,8.501232 10.346402,8.501329 10.346331,8.465022 10.346331,8.395191" style="fill: white" /><polygon type="contour" points="10.450835,8.737239 10.451141,8.746456 10.451141,8.785299 10.415243,8.785371 10.346331,8.785371 10.346402,8.746455 10.346402,8.680561 10.385245,8.680561 10.450793,8.680537" style="fill: white" /><polygon type="contour" points="10.686777,8.680537 10.73645,8.680537 10.736514,8.746455 10.736511,8.785371 10.697147,8.7853 10.630373,8.7853 10.630373,8.746455 10.630469,8.678951" style="fill: white" /><polygon type="contour" points="10.66668,8.99805 10.736511,8.99805 10.736553,9.053088 10.736643,9.095007 10.687602,9.097078 10.630477,9.097078 10.630477,9.050072 10.630373,8.998033" style="fill: white" /><polygon type="contour" points="10.451141,9.035834 10.450835,9.097078 10.385246,9.096459 10.346429,9.094792 10.346331,9.06145 10.346331,8.99805 10.385246,8.998033 10.451141,8.998033" style="fill: white" /><polygon type="contour" points="10.385245,9.280083 10.450793,9.280176 10.450793,9.851527 10.40243,9.851591 10.34643,9.851672 10.34643,9.280033" style="fill: white" /><polygon type="contour" points="9.851589,10.402432 9.851524,10.450794 9.280175,10.450794 9.280109,10.402432 9.28003,10.346432 9.85167,10.346432" style="fill: white" /><polygon type="contour" points="9.851666,10.081185 9.85167,10.13377 9.28003,10.13377 9.280035,10.081186 9.280035,10.036697 9.851666,10.036697" style="fill: white" /><polygon type="contour" points="9.852177,9.852179 9.279523,9.852179 9.279523,9.279526 9.852177,9.279526" style="fill: white" /><polygon type="contour" points="10.133768,9.851672 10.098067,9.851672 10.036696,9.851667 10.036696,9.280038 10.081184,9.280038 10.133768,9.280033" style="fill: white" /><polygon type="contour" points="10.133768,10.036913 10.133652,10.070255 10.133652,10.133654 10.098068,10.13377 10.036912,10.13377 10.036912,10.09807 10.036696,10.036697 10.081183,10.036697" style="fill: white" /><polygon type="contour" points="10.902947,10.86029 10.903009,10.874117 10.903228,10.894114 10.903502,10.903504 10.878065,10.903046 10.632653,10.906226 10.632615,10.896619 10.632546,10.894221 10.632419,10.879801 10.632419,10.863243 10.630839,10.630841 10.903878,10.630841" style="fill: white" /><polygon type="contour" points="10.450793,10.630381 10.450793,10.736452 10.385246,10.736516 10.346331,10.736513 10.346402,10.697149 10.346402,10.630375 10.385246,10.630375" style="fill: white" /><polygon type="contour" points="10.736443,10.404928 10.73645,10.450794 10.630378,10.450794 10.630378,10.401781 10.630373,10.346404 10.66668,10.346333 10.736511,10.346333" style="fill: white" /><polygon type="contour" points="10.678892,10.036697 10.736643,10.036697 10.736585,10.098069 10.736511,10.133654 10.697146,10.13367 10.630373,10.13367 10.630373,10.095869 10.630477,10.034627" style="fill: white" /><polygon type="contour" points="10.450835,10.081631 10.451141,10.13367 10.415244,10.133654 10.346331,10.133654 10.34643,10.098069 10.34643,10.036913 10.385246,10.035245 10.450835,10.034626" style="fill: white" /><polygon type="contour" points="10.385246,10.346404 10.451141,10.346404 10.451141,10.385247 10.450793,10.450794 10.401779,10.450794 10.346402,10.451144 10.346331,10.415246 10.346331,10.346333" style="fill: white" /><polygon type="contour" points="10.133668,10.385247 10.133668,10.451144 10.095867,10.451144 10.034625,10.450837 10.035245,10.385248 10.036912,10.346431 10.070253,10.346333 10.133652,10.346333" style="fill: white" /><polygon type="contour" points="10.133652,10.66668 10.133652,10.736513 10.078613,10.736555 10.036696,10.736645 10.034625,10.687605 10.034625,10.630479 10.081628,10.630479 10.133668,10.630375" style="fill: white" /><polygon type="contour" points="9.85222,10.701817 9.852491,10.878581 9.852539,10.892417 9.852492,10.904165 9.819369,10.904218 9.568679,10.906079 9.5655,10.906079 9.315431,10.904218 9.312331,10.904218 9.279209,10.904165 9.279162,10.892417 9.279209,10.878581 9.279233,10.861472 9.279583,10.63094 9.852117,10.63094" style="fill: white" /><polygon type="contour" points="9.097076,10.630479 9.095005,10.678893 9.095005,10.736645 9.033631,10.736587 8.998048,10.736513 8.998031,10.697148 8.998031,10.630375 9.035833,10.630375" style="fill: white" /><polygon type="contour" points="8.434553,10.346404 8.501328,10.346404 8.501328,10.385247 8.501322,10.450794 8.39525,10.450794 8.395187,10.385247 8.39519,10.346333" style="fill: white" /><polygon type="contour" points="8.444098,10.036896 8.501223,10.036896 8.501223,10.081631 8.501328,10.13367 8.465021,10.133654 8.39519,10.133654 8.395148,10.078615 8.395057,10.036697" style="fill: white" /><polygon type="contour" points="8.78527,9.851672 8.746454,9.853445 8.680536,9.853829 8.680536,9.280176 8.728893,9.280112 8.78527,9.280033" style="fill: white" /><polygon type="contour" points="8.746453,10.037071 8.785269,10.036913 8.785368,10.070255 8.785368,10.133654 8.746454,10.13367 8.680559,10.13367 8.680559,10.097694 8.680489,10.036896" style="fill: white" /><polygon type="contour" points="9.095005,10.081185 9.094789,10.13377 9.061446,10.133654 8.998048,10.133654 8.997932,10.098069 8.997932,10.036913 9.033631,10.036913 9.095005,10.036697" style="fill: white" /><polygon type="contour" points="9.033632,10.346432 9.094788,10.346432 9.096456,10.385248 9.097076,10.450837 9.035832,10.451144 8.998031,10.451144 8.998048,10.415246 8.998048,10.346333" style="fill: white" /><polygon type="contour" points="8.785298,10.385247 8.785298,10.451144 8.746453,10.451144 8.680536,10.450794 8.680489,10.394463 8.680559,10.385248 8.680559,10.346404 8.716456,10.346333 8.785368,10.346333" style="fill: white" /><polygon type="contour" points="8.785368,10.66668 8.785368,10.736513 8.726377,10.736445 8.680536,10.736452 8.680536,10.630381 8.729549,10.630381 8.785298,10.630375" style="fill: white" /><polygon type="contour" points="8.500861,10.680749 8.499281,10.879802 8.499154,10.882488 8.499154,10.894221 8.499047,10.906226 8.253634,10.903046 8.228198,10.903504 8.228472,10.894114 8.22869,10.874117 8.228753,10.86029 8.228005,10.630841 8.500861,10.630841" style="fill: white" />
</svg>
