<svg width="19.131698" height="19.131699">
<polygon type="contour" points="11.083841,10.940166 11.084339,10.960324 11.088069,11.088071 11.019334,11.086833 10.87591,11.085233 10.812132,11.084432 10.812203,10.88276 10.811847,10.811849 10.840552,10.811849 10.961522,10.811629 11.083856,10.811629" style="fill: white" /><polygon type="contour" points="8.112366,8.044872 8.255788,8.046467 8.319567,8.047269 8.319496,8.248942 8.319853,8.319855 8.291148,8.319855 8.170176,8.320074 8.047844,8.320074 8.047859,8.191537 8.047361,8.171379 8.043631,8.043633" style="fill: white" /><polygon type="contour" points="8.321156,8.688023 8.321153,8.713144 8.321086,8.780844 8.321076,8.793239 8.216158,8.793239 8.216154,8.713144 8.216156,8.701083 8.216156,8.688023 8.216178,8.617839 8.321105,8.617839" style="fill: white" /><polygon type="contour" points="9.122923,9.086804 9.379976,9.087069 9.379976,9.379978 9.21674,9.379978 9.087099,9.379701 9.087066,9.349096 9.086763,9.086765" style="fill: white" /><polygon type="contour" points="11.084339,8.171379 11.083841,8.191537 11.083856,8.320074 10.961523,8.320074 10.840551,8.319855 10.822871,8.319855 10.81184,8.319863 10.812203,8.248943 10.812132,8.047269 10.875909,8.046468 11.019334,8.044871 11.088069,8.043633" style="fill: white" /><polygon type="contour" points="10.430618,8.216158 10.443678,8.216158 10.513863,8.21618 10.513863,8.227203 10.514218,8.321168 10.443539,8.321176 10.418557,8.321155 10.350856,8.321088 10.338462,8.321078 10.338462,8.21616 10.418557,8.216156" style="fill: white" /><polygon type="contour" points="10.044656,8.136921 10.044506,8.308682 10.044506,8.319848 9.783223,8.319848 9.751871,8.319863 9.751621,8.096688 9.751621,8.078378 9.751695,8.061341 9.751703,8.05977 9.752022,8.048516 9.787839,8.048938 9.798063,8.049004 10.044656,8.047828" style="fill: white" /><polygon type="contour" points="10.043879,8.61738 10.044044,8.688022 10.044134,8.701083 10.044048,8.713144 10.043874,8.780683 10.043874,8.793239 9.786259,8.793239 9.751245,8.793296 9.751446,8.713144 9.751381,8.685974 9.751077,8.627609 9.751077,8.617197 9.779783,8.616779" style="fill: white" /><polygon type="contour" points="10.416029,8.617894 10.443678,8.617894 10.503727,8.617839 10.513863,8.617839 10.513808,8.688023 10.513808,8.715673 10.513872,8.793414 10.443678,8.793025 10.432049,8.793414 10.338462,8.793239 10.338737,8.713145 10.338677,8.688022 10.338288,8.61738" style="fill: white" /><polygon type="contour" points="10.915543,8.688023 10.915544,8.701083 10.915546,8.713144 10.915542,8.793239 10.810122,8.793239 10.810548,8.713144 10.810545,8.688023 10.810595,8.617839 10.915522,8.617839" style="fill: white" /><polygon type="contour" points="11.083264,9.351287 11.083253,9.380003 10.811653,9.380003 10.811253,9.351286 10.811405,9.087196 10.840926,9.087196 11.08389,9.086765" style="fill: white" /><polygon type="contour" points="10.915646,9.510199 10.915663,9.518494 10.915501,9.534701 10.915301,9.566202 10.915501,9.597202 10.915646,9.621505 10.903498,9.621505 10.810548,9.62255 10.810555,9.597337 10.810555,9.534571 10.810535,9.518258 10.810548,9.509154 10.823132,9.509154" style="fill: white" /><polygon type="contour" points="11.083868,10.00878 11.08389,10.044939 11.065346,10.044939 10.823019,10.044508 10.811855,10.044508 10.811839,10.009575 10.811685,9.751726 11.083595,9.751726" style="fill: white" /><polygon type="contour" points="10.915546,10.418559 10.915544,10.43062 10.915543,10.44368 10.915522,10.513865 10.810595,10.513865 10.810545,10.44368 10.810547,10.418559 10.810614,10.350857 10.810624,10.338463 10.915542,10.338463" style="fill: white" /><polygon type="contour" points="10.513808,10.416031 10.513808,10.44368 10.513863,10.50373 10.513863,10.513865 10.443678,10.513811 10.416028,10.513811 10.338288,10.513874 10.338677,10.443681 10.338737,10.418558 10.338462,10.351019 10.338462,10.338463 10.418557,10.338739 10.443679,10.338679 10.503606,10.33829 10.514322,10.33829" style="fill: white" /><polygon type="contour" points="10.418557,10.810549 10.443539,10.810528 10.514218,10.810536 10.514218,10.821689 10.513863,10.915523 10.443678,10.915545 10.430618,10.915546 10.418557,10.915548 10.338462,10.915543 10.338462,10.810123" style="fill: white" /><polygon type="contour" points="10.044583,10.929725 10.044583,11.08386 9.908464,11.085219 9.798063,11.082699 9.787838,11.082766 9.766528,11.083193 9.752022,11.083188 9.751695,11.070362 9.751695,11.05791 9.751621,11.053325 9.751871,10.824281 9.751871,10.811841 10.009574,10.811841 10.044506,10.811406" style="fill: white" /><polygon type="contour" points="8.793237,10.915544 8.713142,10.915548 8.701081,10.915546 8.688021,10.915545 8.617837,10.915524 8.617837,10.9045 8.617482,10.810536 8.68816,10.810528 8.713142,10.810548 8.780842,10.810615 8.793237,10.810123" style="fill: white" /><polygon type="contour" points="9.379829,10.811841 9.380079,11.035014 9.380079,11.053325 9.380004,11.070362 9.379996,11.071933 9.379678,11.083188 9.34386,11.082766 9.333636,11.082699 9.087044,11.083876 9.087044,10.994783 9.087195,10.82302 9.087195,10.811406 9.348476,10.811406" style="fill: white" /><polygon type="contour" points="9.534365,10.810556 9.597,10.8107 9.612706,10.810718 9.621504,10.810728 9.621504,10.915648 9.613208,10.915665 9.597001,10.915503 9.5655,10.915303 9.534499,10.915502 9.510196,10.915648 9.509153,10.823133 9.509153,10.810549" style="fill: white" /><polygon type="contour" points="9.786259,10.338463 10.043874,10.338463 10.044047,10.418558 10.044134,10.43062 10.044044,10.443681 10.043879,10.503608 10.043879,10.513874 9.782599,10.513874 9.751257,10.513877 9.751443,10.44368 9.751446,10.418559 9.751245,10.352373 9.751245,10.338406" style="fill: white" /><polygon type="contour" points="9.621375,10.41539 9.621375,10.444343 9.621504,10.50332 9.621504,10.514408 9.597,10.514502 9.534245,10.514076 9.518293,10.513865 9.509295,10.513877 9.510055,10.443681 9.510325,10.415389 9.510196,10.35019 9.510196,10.337961 9.534498,10.338103 9.597001,10.338103 9.612599,10.338005 9.621504,10.337961" style="fill: white" /><polygon type="contour" points="9.380254,10.418559 9.380257,10.44368 9.380443,10.502521 9.380443,10.513877 9.3491,10.513874 9.08782,10.513874 9.087656,10.443681 9.087566,10.43062 9.087652,10.418559 9.087827,10.351018 9.087827,10.338463 9.34544,10.338463 9.380455,10.338406" style="fill: white" /><polygon type="contour" points="9.379976,9.91496 9.379701,10.044603 9.349093,10.044637 9.086764,10.044939 9.086803,10.008779 9.087068,9.751726 9.379976,9.751726" style="fill: white" /><polygon type="contour" points="9.620779,9.783081 9.623442,10.044286 9.597376,10.044245 9.534113,10.044245 9.517675,10.044317 9.508258,10.044286 9.510299,9.783081 9.510299,9.751078 9.533372,9.751151 9.597628,9.751151 9.611438,9.751078 9.620779,9.751078" style="fill: white" /><polygon type="contour" points="9.348619,9.5103 9.380624,9.5103 9.38055,9.533563 9.380299,9.597202 9.380318,9.611558 9.380318,9.621505 9.087718,9.621505 9.0877,9.597202 9.087457,9.534324 9.087386,9.517677 9.087417,9.50826" style="fill: white" /><polygon type="contour" points="9.611556,9.510199 9.621504,9.510199 9.621601,9.534702 9.621601,9.597201 9.621504,9.611559 9.621504,9.621505 9.597,9.621602 9.534499,9.621602 9.520141,9.621505 9.510195,9.621505 9.510099,9.597202 9.510099,9.534701 9.510196,9.520145 9.510196,9.510198 9.534498,9.510102 9.597001,9.510102" style="fill: white" /><polygon type="contour" points="10.044243,9.534325 10.044243,9.597588 10.044315,9.614027 10.044284,9.623444 9.78308,9.62078 9.751077,9.62078 9.751148,9.59782 9.7514,9.534701 9.751382,9.520145 9.751382,9.510199 9.785461,9.510199 10.044284,9.50826" style="fill: white" /><polygon type="contour" points="10.044601,9.752002 10.044635,9.782608 10.044937,10.044939 10.008777,10.044899 9.751725,10.044635 9.751725,9.751726 9.914959,9.751726" style="fill: white" /><polygon type="contour" points="10.418557,9.751448 10.443678,9.751445 10.50252,9.751258 10.513875,9.751258 10.514321,9.7826 10.516644,10.044317 10.443626,10.044172 10.418557,10.044049 10.351017,10.043876 10.338462,10.043876 10.338462,9.786262 10.338405,9.751247" style="fill: white" /><polygon type="contour" points="10.514499,9.534701 10.514499,9.597202 10.514402,9.612706 10.514405,9.621505 10.444341,9.621377 10.415387,9.621377 10.350188,9.621505 10.337959,9.621505 10.338101,9.597202 10.338101,9.534701 10.338003,9.519103 10.337959,9.510199 10.415388,9.510327 10.444341,9.510327 10.503317,9.510199 10.514405,9.510199" style="fill: white" /><polygon type="contour" points="10.443679,9.087658 10.513872,9.08782 10.513872,9.349103 10.513875,9.380446 10.443678,9.380259 10.418556,9.380256 10.352373,9.380456 10.338405,9.380456 10.338405,9.126778 10.338462,9.087828 10.418557,9.087654" style="fill: white" /><polygon type="contour" points="10.044897,9.122924 10.044633,9.379978 9.751725,9.379978 9.751725,9.216742 9.751999,9.087101 9.782606,9.087066 10.044937,9.086764" style="fill: white" /><polygon type="contour" points="9.623442,9.087418 9.620779,9.348622 9.620779,9.380626 9.597628,9.380553 9.533372,9.380553 9.51964,9.380626 9.510299,9.380626 9.510299,9.348621 9.510196,9.087718 9.534498,9.0877 9.597377,9.087458 9.614024,9.087387" style="fill: white" /><polygon type="contour" points="9.380256,8.688023 9.380253,8.713144 9.380455,8.779327 9.380455,8.793296 9.34544,8.793239 9.087827,8.793239 9.087653,8.713144 9.087566,8.701083 9.087656,8.688022 9.08782,8.628094 9.08782,8.617829 9.349099,8.617829 9.380443,8.617827" style="fill: white" /><polygon type="contour" points="9.597252,8.617628 9.613406,8.617839 9.622406,8.617827 9.621644,8.688022 9.621375,8.716314 9.621504,8.781513 9.621504,8.793743 9.597,8.793801 9.534499,8.793801 9.5191,8.793699 9.510196,8.793743 9.510325,8.716313 9.510325,8.68736 9.510196,8.628383 9.510196,8.617296 9.534498,8.617203" style="fill: white" /><polygon type="contour" points="9.534498,8.2162 9.565501,8.216402 9.597,8.216201 9.621504,8.216056 9.621504,8.320976 9.597,8.321002 9.534499,8.321002 9.518993,8.320984 9.510196,8.320975 9.510196,8.216056 9.51849,8.21604" style="fill: white" /><polygon type="contour" points="9.333637,8.049004 9.343861,8.048938 9.365172,8.04851 9.379678,8.048516 9.380005,8.061341 9.380005,8.073793 9.380078,8.078378 9.379829,8.307422 9.379829,8.319863 9.122125,8.319863 9.087195,8.320297 9.087117,8.201976 9.087117,8.047844 9.223234,8.046485" style="fill: white" /><polygon type="contour" points="8.793237,8.21616 8.793237,8.32158 8.713142,8.321155 8.688021,8.321158 8.617837,8.321107 8.617837,8.21618 8.688021,8.216158 8.701081,8.216158 8.713142,8.216156" style="fill: white" /><polygon type="contour" points="8.793023,8.688023 8.792963,8.713145 8.793237,8.780682 8.793237,8.793239 8.713142,8.792965 8.68802,8.793025 8.628093,8.793414 8.617378,8.793414 8.617892,8.715672 8.617892,8.688023 8.617837,8.627973 8.617837,8.617839 8.688021,8.617894 8.71567,8.617894 8.793412,8.617829" style="fill: white" /><polygon type="contour" points="8.688073,9.087532 8.713143,9.087655 8.78068,9.087828 8.793237,9.087828 8.793237,9.345441 8.793295,9.380456 8.713142,9.380256 8.688021,9.380259 8.629179,9.380446 8.617825,9.380446 8.617378,9.349103 8.615056,9.087387" style="fill: white" /><polygon type="contour" points="8.30868,9.087196 8.319846,9.087196 8.319861,9.122128 8.320015,9.379978 8.048105,9.379978 8.047831,9.122923 8.047809,9.086765 8.066353,9.086765" style="fill: white" /><polygon type="contour" points="8.199625,9.751726 8.320015,9.751726 8.320045,10.008779 8.320032,10.044939 8.04781,10.044939 8.048435,9.780417 8.048447,9.751701 8.078154,9.751701" style="fill: white" /><polygon type="contour" points="8.321,9.534701 8.321,9.597201 8.320982,9.612707 8.320973,9.621505 8.216054,9.621505 8.216038,9.613211 8.216199,9.597201 8.216399,9.566202 8.216198,9.534701 8.216054,9.510199 8.320974,9.510199" style="fill: white" /><polygon type="contour" points="8.68802,9.510057 8.716313,9.510327 8.781512,9.510199 8.793742,9.510199 8.7938,9.534701 8.7938,9.597201 8.793698,9.6126 8.793742,9.621505 8.716312,9.621377 8.68802,9.621646 8.629179,9.622408 8.617825,9.622408 8.617626,9.597458 8.617626,9.53445 8.617837,9.518294 8.617825,9.509296" style="fill: white" /><polygon type="contour" points="8.793295,10.004924 8.793237,10.043876 8.713142,10.044049 8.688073,10.044172 8.615056,10.044317 8.617378,9.7826 8.617825,9.751258 8.688021,9.751445 8.713142,9.751448 8.779326,9.751248 8.793295,9.751248" style="fill: white" /><polygon type="contour" points="8.793237,10.338462 8.792963,10.418558 8.793022,10.44368 8.793412,10.513874 8.715671,10.513811 8.68802,10.513811 8.627972,10.513865 8.617837,10.513865 8.617892,10.44368 8.617892,10.416031 8.617378,10.33829 8.688021,10.338679 8.69965,10.338289" style="fill: white" /><polygon type="contour" points="8.321153,10.418558 8.321156,10.44368 8.321105,10.513865 8.216178,10.513865 8.216156,10.44368 8.216156,10.43062 8.216154,10.418559 8.216158,10.338463 8.321076,10.338463" style="fill: white" /><polygon type="contour" points="8.291148,10.811849 8.308829,10.811849 8.319861,10.811841 8.319497,10.88276 8.319567,11.084432 8.255789,11.085232 8.112365,11.086833 8.043631,11.088071 8.047361,10.960324 8.047859,10.940166 8.047844,10.811629 8.170176,10.811629" style="fill: white" />
</svg>
