<svg width="19.131698" height="19.131699">
<polygon type="contour" points="4.42085,4.309901 4.6354,4.309901 4.6354,4.259565 4.718701,4.259565 4.718701,4.309901 4.8671,4.309901 4.8671,4.210852 5.0771,4.210852 5.0771,4.309901 5.287801,4.309901 5.287801,4.259565 5.3704,4.259565 5.3704,4.309901 5.52335,4.309901 5.52335,4.210852 5.733351,4.210852 5.733351,4.309901 5.9395,4.309901 5.9395,4.259565 6.022799,4.259565 6.022799,4.309901 6.179599,4.309901 6.179599,4.210852 6.389601,4.210852 6.389601,4.309901 6.591201,4.309901 6.591201,4.259565 6.6745,4.259565 6.6745,4.309901 6.835849,4.309901 6.835849,4.210852 7.045851,4.210852 7.045851,4.309901 7.2429,4.309901 7.2429,4.259565 7.326199,4.259565 7.326199,4.309901 7.492099,4.309901 7.492099,4.210852 7.702101,4.210852 7.702101,4.309901 7.894599,4.309901 7.894599,4.259565 7.977898,4.259565 7.977898,4.309901 8.148349,4.309901 8.148349,4.210852 8.358351,4.210852 8.358351,4.309901 8.5463,4.309901 8.5463,4.259565 8.6296,4.259565 8.6296,4.309901 8.804599,4.309901 8.804599,4.210852 9.014602,4.210852 9.014602,4.309901 9.198699,4.309901 9.198699,4.259565 9.281299,4.259565 9.281299,4.309901 9.460849,4.309901 9.460849,4.210852 9.670852,4.210852 9.670852,4.309901 9.850398,4.309901 9.850398,4.259565 9.933,4.259565 9.933,4.309901 10.117099,4.309901 10.117099,4.210852 10.327102,4.210852 10.327102,4.309901 10.502101,4.309901 10.502101,4.259565 10.585401,4.259565 10.585401,4.309901 10.773349,4.309901 10.773349,4.210852 10.983352,4.210852 10.983352,4.309901 11.153802,4.309901 11.153802,4.259565 11.237102,4.259565 11.237102,4.309901 11.429599,4.309901 11.429599,4.210852 11.639602,4.210852 11.639602,4.309901 11.805501,4.309901 11.805501,4.259565 11.888801,4.259565 11.888801,4.309901 12.085849,4.309901 12.085849,4.210852 12.295852,4.210852 12.295852,4.309901 12.4572,4.309901 12.4572,4.259565 12.5405,4.259565 12.5405,4.309901 12.742099,4.309901 12.742099,4.210852 12.952102,4.210852 12.952102,4.309901 13.108901,4.309901 13.108901,4.259565 13.1922,4.259565 13.192199,4.309901 13.398349,4.309901 13.398349,4.210852 13.608352,4.210852 13.608352,4.309901 13.7613,4.309901 13.7613,4.259565 13.8439,4.259565 13.8439,4.309901 14.054599,4.309901 14.054599,4.210852 14.264602,4.210852 14.264602,4.309901 14.412999,4.309901 14.412999,4.259565 14.496299,4.259565 14.496299,4.309901 14.710849,4.309901 14.710849,4.210852 14.920852,4.210852 14.920852,4.420852 14.821799,4.420852 14.821799,4.635401 14.872135,4.635401 14.872135,4.718703 14.821799,4.718703 14.821799,4.867102 14.920852,4.867102 14.920852,5.077102 14.821799,5.077102 14.821799,5.287802 14.872135,5.287802 14.872135,5.370402 14.821799,5.370402 14.821799,5.523352 14.920852,5.523352 14.920852,5.733353 14.821799,5.733353 14.821799,5.939502 14.872135,5.939502 14.872135,6.022802 14.821799,6.022802 14.821799,6.179601 14.920852,6.179601 14.920852,6.389603 14.821799,6.389603 14.821799,6.591202 14.872135,6.591202 14.872135,6.674501 14.821799,6.674501 14.821799,6.835851 14.920852,6.835851 14.920852,7.045853 14.821799,7.045853 14.821799,7.242902 14.872135,7.242902 14.872135,7.326201 14.821799,7.326201 14.821799,7.492101 14.920852,7.492101 14.920852,7.702103 14.821799,7.702103 14.821799,7.894602 14.872135,7.894602 14.872135,7.977901 14.821799,7.977901 14.821799,8.14835 14.920852,8.14835 14.920852,8.358353 14.821799,8.358353 14.821799,8.546302 14.872135,8.546302 14.872135,8.629601 14.821799,8.629601 14.821799,8.804601 14.920852,8.804601 14.920852,9.014604 14.821799,9.014604 14.821799,9.198701 14.872135,9.198701 14.872135,9.281301 14.821799,9.281301 14.821799,9.460851 14.920852,9.460851 14.920852,9.670854 14.821799,9.670854 14.821799,9.850401 14.872135,9.850401 14.872135,9.933001 14.821799,9.933001 14.821799,10.117101 14.920852,10.117101 14.920852,10.327104 14.821799,10.327104 14.821799,10.502103 14.872135,10.502103 14.872135,10.585402 14.821799,10.585402 14.821799,10.773351 14.920852,10.773351 14.920852,10.983354 14.821799,10.983354 14.821799,11.153803 14.872135,11.153803 14.872135,11.237103 14.821799,11.237103 14.821799,11.429601 14.920852,11.429601 14.920852,11.639603 14.821799,11.639603 14.821799,11.805503 14.872135,11.805503 14.872135,11.888803 14.821799,11.888803 14.821799,12.085851 14.920852,12.085851 14.920852,12.295853 14.821799,12.295853 14.821799,12.457203 14.872135,12.457203 14.872135,12.540503 14.821799,12.540503 14.821799,12.742101 14.920852,12.742101 14.920852,12.952103 14.821799,12.952103 14.821799,13.108902 14.872135,13.108902 14.872135,13.192202 14.821799,13.192202 14.821799,13.398351 14.920852,13.398351 14.920852,13.608353 14.821799,13.608353 14.821799,13.761302 14.872135,13.761302 14.872135,13.843903 14.821799,13.843903 14.821799,14.054602 14.920852,14.054602 14.920852,14.264603 14.821799,14.264603 14.821799,14.413002 14.872135,14.413002 14.872135,14.496302 14.821799,14.496302 14.821799,14.710852 14.920852,14.710852 14.920852,14.920853 14.710849,14.920853 14.710849,14.821802 14.496299,14.821802 14.496299,14.872138 14.412999,14.872138 14.412999,14.821802 14.264602,14.821802 14.264602,14.920853 14.054599,14.920853 14.054599,14.821802 13.8439,14.821802 13.8439,14.872138 13.7613,14.872138 13.7613,14.821802 13.608352,14.821802 13.608352,14.920853 13.398349,14.920853 13.398349,14.821802 13.192201,14.821802 13.192201,14.872138 13.108901,14.872138 13.108901,14.821802 12.952102,14.821802 12.952102,14.920853 12.742099,14.920853 12.742099,14.821802 12.5405,14.821802 12.5405,14.872138 12.4572,14.872138 12.4572,14.821802 12.295852,14.821802 12.295852,14.920853 12.085849,14.920853 12.085849,14.821802 11.888801,14.821802 11.888801,14.872138 11.805501,14.872138 11.805501,14.821802 11.639602,14.821802 11.639602,14.920853 11.429599,14.920853 11.429599,14.821802 11.237102,14.821802 11.237102,14.872138 11.153802,14.872138 11.153802,14.821802 10.983352,14.821802 10.983352,14.920853 10.773349,14.920853 10.773349,14.821802 10.585401,14.821802 10.585401,14.872138 10.502101,14.872138 10.502101,14.821802 10.327102,14.821802 10.327102,14.920853 10.117099,14.920853 10.117099,14.821802 9.933,14.821802 9.933,14.872138 9.850398,14.872138 9.850398,14.821802 9.670852,14.821802 9.670852,14.920853 9.460849,14.920853 9.460849,14.821802 9.281299,14.821802 9.281299,14.872138 9.198699,14.872138 9.198699,14.821802 9.014602,14.821802 9.014602,14.920853 8.804599,14.920853 8.804599,14.821802 8.6296,14.821802 8.6296,14.872138 8.5463,14.872138 8.5463,14.821802 8.358351,14.821802 8.358351,14.920853 8.148349,14.920853 8.148349,14.821802 7.977898,14.821802 7.977898,14.872138 7.909744,14.872137 7.894599,14.872137 7.894599,14.821802 7.702101,14.821802 7.702101,14.920853 7.492099,14.920853 7.492099,14.821802 7.326199,14.821802 7.326199,14.872138 7.2429,14.872138 7.2429,14.821802 7.045851,14.821802 7.045851,14.920853 6.835849,14.920853 6.835849,14.821802 6.6745,14.821802 6.6745,14.872138 6.591201,14.872138 6.591201,14.821801 6.389601,14.821801 6.389601,14.920853 6.179599,14.920853 6.179599,14.821802 6.022799,14.821802 6.022799,14.872138 5.9395,14.872138 5.9395,14.821802 5.733351,14.821802 5.733351,14.920853 5.52335,14.920853 5.52335,14.821802 5.3704,14.821802 5.3704,14.872138 5.287801,14.872138 5.287801,14.821802 5.0771,14.821802 5.0771,14.920853 4.8671,14.920853 4.8671,14.821802 4.718701,14.821802 4.718701,14.872138 4.6354,14.872138 4.6354,14.821802 4.42085,14.821802 4.42085,14.920853 4.21085,14.920853 4.21085,14.710852 4.309899,14.710852 4.309899,14.496302 4.259563,14.496302 4.259563,14.413002 4.309899,14.413002 4.309899,14.264603 4.21085,14.264603 4.21085,14.054602 4.309899,14.054602 4.309899,13.843903 4.259563,13.843903 4.259563,13.761302 4.309899,13.761302 4.309899,13.608353 4.21085,13.608353 4.21085,13.398351 4.309899,13.398351 4.309899,13.192202 4.259563,13.192202 4.259563,13.108902 4.309899,13.108902 4.309899,12.952103 4.21085,12.952103 4.21085,12.742101 4.309899,12.742101 4.309899,12.540503 4.259563,12.540503 4.259563,12.457203 4.309899,12.457203 4.309899,12.295853 4.21085,12.295853 4.21085,12.085851 4.309899,12.085851 4.309899,11.888803 4.259563,11.888803 4.259563,11.805503 4.309899,11.805503 4.309899,11.639603 4.21085,11.639603 4.21085,11.429601 4.309899,11.429601 4.309899,11.237103 4.259563,11.237103 4.259563,11.153803 4.309899,11.153803 4.309899,10.983354 4.21085,10.983354 4.21085,10.974954 4.210851,10.773351 4.309899,10.773351 4.309899,10.585402 4.259563,10.585402 4.259563,10.502103 4.309899,10.502103 4.309899,10.327104 4.21085,10.327104 4.21085,10.117101 4.309899,10.117101 4.309899,10.062148 4.309898,9.933001 4.259563,9.933001 4.259563,9.850401 4.309899,9.850401 4.309899,9.670854 4.21085,9.670854 4.21085,9.460851 4.309899,9.460851 4.309899,9.395051 4.309897,9.281301 4.259563,9.281301 4.259563,9.198701 4.309899,9.198701 4.309899,9.014604 4.21085,9.014604 4.21085,8.804601 4.309899,8.804601 4.309899,8.629601 4.259563,8.629601 4.259563,8.546302 4.309899,8.546302 4.309899,8.358353 4.21085,8.358353 4.21085,8.14835 4.309899,8.14835 4.309899,7.977901 4.259563,7.977901 4.259563,7.894602 4.309899,7.894602 4.309899,7.702103 4.21085,7.702103 4.21085,7.492101 4.309899,7.492101 4.309899,7.326201 4.259563,7.326201 4.259563,7.242902 4.309899,7.242902 4.309899,7.045853 4.21085,7.045853 4.21085,6.835851 4.309899,6.835851 4.309899,6.674501 4.259563,6.674501 4.259563,6.591202 4.309899,6.591202 4.309899,6.389603 4.21085,6.389603 4.21085,6.179601 4.309899,6.179601 4.309899,6.022802 4.259563,6.022802 4.259563,5.939502 4.309899,5.939502 4.309899,5.733353 4.21085,5.733353 4.21085,5.523352 4.309899,5.523352 4.309899,5.370402 4.259563,5.370402 4.259563,5.287802 4.309899,5.287802 4.309899,5.077102 4.21085,5.077102 4.21085,4.867102 4.309899,4.867102 4.309899,4.718703 4.259563,4.718703 4.259563,4.635401 4.309899,4.635401 4.309899,4.420852 4.21085,4.420852 4.21085,4.210852 4.42085,4.210852" style="fill: white" /><polygon type="hole" points="6.940035,6.797423 6.913839,6.797423 6.799224,6.799342 6.797421,6.896864 6.797421,6.907536 6.797429,6.918833 6.797632,6.94021 6.797275,6.953339 6.797421,6.957984 6.797421,7.490131 6.797906,7.547854 6.797906,7.803495 6.79833,7.844318 6.79839,7.887414 6.79839,8.141598 6.798875,8.199322 6.798875,8.683252 6.799225,8.714384 6.79936,8.764747 6.79936,9.212091 6.799846,9.269815 6.799846,9.524969 6.800121,9.53934 6.80035,9.566202 6.800505,9.587981 6.800122,9.592614 6.799846,9.606948 6.799846,9.862103 6.79936,9.919827 6.79936,10.366957 6.799226,10.417316 6.798875,10.448452 6.798875,10.702636 6.79839,10.76036 6.79839,11.244289 6.79833,11.287385 6.797906,11.328208 6.797906,11.583849 6.797421,11.641572 6.797421,12.173718 6.797276,12.178364 6.797632,12.191493 6.797429,12.212467 6.799311,12.32872 6.849808,12.333312 6.905494,12.334026 6.91883,12.334273 6.940209,12.334071 6.953337,12.334426 6.957981,12.334281 7.490127,12.334281 7.547853,12.333797 7.803492,12.333797 7.844317,12.333371 7.887413,12.333312 8.16717,12.333312 8.345766,12.333311 8.371341,12.333312 8.429065,12.332827 8.68325,12.332827 8.714383,12.332475 8.764744,12.33234 9.212088,12.33234 9.269812,12.331855 9.524968,12.331855 9.539338,12.33158 9.566198,12.331352 9.58798,12.331197 9.592612,12.33158 9.606945,12.331855 9.862102,12.331855 9.919826,12.33234 10.366955,12.33234 10.417314,12.332475 10.44845,12.332827 10.702634,12.332827 10.760358,12.333312 11.244286,12.333312 11.287382,12.333371 11.328207,12.333797 11.583846,12.333797 11.641572,12.334281 12.173716,12.334281 12.178363,12.334426 12.191491,12.334071 12.212467,12.334273 12.256181,12.333311 12.332034,12.332343 12.334024,12.226205 12.334271,12.212468 12.334069,12.191492 12.334424,12.178364 12.33428,12.173718 12.33428,11.615997 12.333794,11.558274 12.333794,11.302634 12.333311,11.218714 12.333311,10.58155 12.332826,10.523826 12.332826,10.269642 12.332339,10.188146 12.332339,9.932507 12.331854,9.874783 12.331854,9.606948 12.331579,9.592614 12.331349,9.566201 12.331195,9.54405 12.331579,9.53934 12.331854,9.52497 12.331854,9.269815 12.332339,9.212091 12.332339,8.95645 12.332826,8.874958 12.332826,8.620772 12.333311,8.563048 12.333311,8.308864 12.333794,8.224943 12.333794,7.573429 12.33428,7.515705 12.33428,6.957984 12.334425,6.953339 12.334069,6.94021 12.334271,6.918834 12.332556,6.799147 12.226203,6.797676 12.212466,6.797431 12.191492,6.797634 12.178363,6.797277 12.173715,6.797423 12.060692,6.797422 11.959468,6.797422 11.845956,6.797423 11.615997,6.797423 11.558271,6.797907 11.302632,6.797907 11.218711,6.798392 10.581548,6.798392 10.523824,6.798877 10.26964,6.798877 10.188145,6.799362 9.932507,6.799362 9.874781,6.799849 9.606945,6.799849 9.592612,6.800123 9.566198,6.800352 9.544049,6.800507 9.539338,6.800123 9.524968,6.799849 9.269813,6.799849 9.212087,6.799362 8.943553,6.799362 8.862059,6.798877 8.607874,6.798877 8.550151,6.798392 7.912988,6.798392 7.829066,6.797907 7.573428,6.797907 7.515702,6.797423 6.957981,6.797423 6.948077,6.797113" style="fill: black" />
</svg>
