<svg width="19.131698" height="19.131699">
<polygon type="contour" points="10.350485,10.950772 10.350485,10.9881 10.350906,11.077556 10.350906,11.096147 10.336632,11.096259 10.222458,11.096176 10.222491,11.262393 10.22249,11.263587 10.22249,11.26408 10.221785,11.264092 9.929219,11.264036 9.929143,11.261031 9.929143,11.258138 9.929155,11.257875 9.929073,11.096467 9.813596,11.096133 9.813783,10.998532 9.813783,10.961073 9.813596,10.87318 9.813596,10.854927 9.929005,10.855147 9.929004,10.85504 10.187956,10.855255 10.255446,10.855255 10.33438,10.854779 10.350906,10.854779" style="fill: white" /><polygon type="contour" points="11.096181,10.870429 11.096582,10.988252 11.263936,10.988252 11.268609,11.068555 11.273546,11.273547 11.028009,11.264991 10.989301,11.265302 10.988786,11.251096 10.988786,11.237364 10.988807,11.23665 10.988186,11.174025 10.988272,11.09659 10.854777,11.096146 10.855358,10.998523 10.855358,10.961057 10.854777,10.873124 10.854777,10.854779 10.950771,10.85536 10.988098,10.85536 11.077553,10.854779 11.096144,10.854779" style="fill: white" /><polygon type="contour" points="11.096465,9.929076 11.263846,9.929076 11.263828,9.947174 11.263881,9.95045 11.263622,10.222234 11.096113,10.222234 11.096144,10.350908 10.99852,10.350486 10.961056,10.350486 10.873122,10.350908 10.854777,10.350908 10.855253,10.266548 10.855253,10.222151 10.85504,9.950244 10.85504,9.912939 10.854777,9.83093 10.854925,9.813719 10.950836,9.813854 10.988158,9.813854 11.077632,9.813719 11.09613,9.813719" style="fill: white" /><polygon type="contour" points="10.334303,9.813719 10.351218,9.813719 10.351302,9.905746 10.351208,9.910918 10.350649,10.187959 10.350649,10.255448 10.350906,10.334382 10.350906,10.350908 10.266545,10.35065 10.187957,10.35065 9.91911,10.351194 9.830929,10.350908 9.813596,10.351219 9.813411,10.261108 9.813423,10.222142 9.813515,9.912956 9.813504,9.912957 9.813596,9.830999 9.813596,9.813719 9.905693,9.813557 9.929,9.813557 10.18789,9.813506 10.255411,9.813506" style="fill: white" /><polygon type="contour" points="10.22249,7.867623 10.22249,7.868117 10.222497,8.035587 10.350906,8.035557 10.350485,8.133178 10.350485,8.170642 10.350906,8.258577 10.350906,8.276926 10.266546,8.276448 10.187956,8.276448 9.907325,8.276681 9.83093,8.276925 9.813596,8.277021 9.813783,8.181 9.813783,8.14354 9.813596,8.054068 9.813596,8.035571 9.929073,8.035236 9.929155,7.873802 9.929143,7.870673 9.929168,7.870442 9.929219,7.867666 10.221785,7.867612" style="fill: white" /><polygon type="contour" points="11.264018,8.13408 11.263959,8.143428 11.096589,8.143428 11.096144,8.276926 10.998521,8.276344 10.961056,8.276344 10.873123,8.276926 10.854777,8.276926 10.855358,8.180928 10.855358,8.1436 10.854777,8.054147 10.854777,8.035557 10.870428,8.035518 10.988272,8.035119 10.988186,7.957678 10.988807,7.895053 10.988786,7.880606 10.98893,7.879628 10.989301,7.866402 11.028009,7.866713 11.273546,7.858157" style="fill: white" /><polygon type="contour" points="11.096255,8.795067 11.096174,8.90947 11.263622,8.90947 11.263828,9.18453 11.263839,9.202636 11.096466,9.202636 11.09613,9.318108 10.998531,9.317916 10.96107,9.317916 10.873178,9.318108 10.854925,9.318108 10.855146,9.202697 10.85504,9.202698 10.855253,8.943745 10.855253,8.876255 10.854777,8.797319 10.854777,8.780795 10.950771,8.781219 10.988098,8.781219 11.077554,8.780795 11.096144,8.780795" style="fill: white" /><polygon type="contour" points="10.187957,8.781055 10.255447,8.781055 10.33438,8.780795 10.350906,8.780795 10.350649,8.865156 10.350649,8.909552 10.351217,9.204877 10.350906,9.300773 10.351218,9.318108 10.261016,9.318291 10.25541,9.31829 9.912954,9.318186 9.912955,9.318198 9.830997,9.318108 9.813596,9.318108 9.813504,9.226008 9.813504,9.202702 9.813423,8.94381 9.813423,8.876291 9.813596,8.797399 9.813596,8.780727 9.909996,8.780492" style="fill: white" /><polygon type="contour" points="9.300771,8.780795 9.317984,8.780727 9.318204,8.868223 9.318203,8.87629 9.318137,9.218748 9.318145,9.218748 9.317984,9.300706 9.317984,9.318108 9.225955,9.318198 9.202701,9.318198 8.943808,9.31828 8.876289,9.31828 8.797396,9.318108 8.780481,9.318108 8.780399,9.226008 8.780492,9.220802 8.781052,8.943745 8.781052,8.876254 8.780793,8.797319 8.780793,8.780795 8.865154,8.781055 8.943743,8.781055 9.212561,8.780511" style="fill: white" /><polygon type="contour" points="9.20248,7.867666 9.202556,7.870673 9.202556,7.873541 9.202543,7.873803 9.202627,8.035236 9.317984,8.035571 9.317846,8.133169 9.317846,8.170629 9.317984,8.258524 9.317984,8.277021 9.225955,8.276701 9.221668,8.276678 8.943744,8.276448 8.876252,8.276448 8.797318,8.276927 8.780793,8.276927 8.781216,8.180929 8.781216,8.1436 8.780793,8.054146 8.780793,8.035557 8.795066,8.035445 8.909198,8.035527 8.909209,7.86931 8.90921,7.868116 8.90921,7.867623 8.909914,7.867612" style="fill: white" /><polygon type="contour" points="8.103689,7.866713 8.1424,7.866402 8.142914,7.880606 8.142914,7.894225 8.142893,7.895054 8.143511,7.957677 8.143426,8.035113 8.276924,8.035557 8.276342,8.133178 8.276342,8.170642 8.276924,8.258577 8.276924,8.276926 8.180927,8.276344 8.143599,8.276344 8.054146,8.276926 8.035556,8.276926 8.035518,8.261273 8.035117,8.14345 7.867765,8.14345 7.863092,8.063149 7.858155,7.858157" style="fill: white" /><polygon type="contour" points="8.276447,8.865156 8.276447,8.909551 8.27666,9.18146 8.27666,9.218764 8.276924,9.300774 8.276776,9.318108 8.180862,9.317916 8.143538,9.317916 8.054068,9.318108 8.035569,9.318108 8.035233,9.202629 7.867854,9.202629 7.867873,9.18453 7.867819,9.181252 7.868077,8.90947 8.035586,8.90947 8.035556,8.780795 8.133178,8.781219 8.170641,8.781219 8.258576,8.780795 8.276924,8.780795" style="fill: white" /><polygon type="contour" points="8.276553,9.929007 8.27666,9.929007 8.276447,10.187959 8.276447,10.255448 8.276924,10.334383 8.276924,10.350908 8.180927,10.350486 8.1436,10.350486 8.054145,10.350908 8.035556,10.350908 8.035443,10.336633 8.035525,10.222234 7.868077,10.222234 7.867872,9.947173 7.867862,9.929069 8.035234,9.929069 8.03557,9.813719 8.133167,9.813854 8.170628,9.813854 8.258521,9.813719 8.276776,9.813719" style="fill: white" /><polygon type="contour" points="8.876288,9.813499 8.900925,9.813504 8.909558,9.813506 9.218746,9.813564 9.218746,9.813557 9.300703,9.813719 9.317984,9.813719 9.318139,9.90273 9.318141,9.903865 9.318145,9.905746 9.318145,9.929001 9.318197,10.187892 9.318197,10.255413 9.317984,10.334304 9.317984,10.351219 9.225955,10.351304 9.220788,10.35121 8.943743,10.35065 8.876252,10.35065 8.797317,10.350908 8.780793,10.350908 8.781052,10.266548 8.781052,10.222151 8.780484,9.926892 8.780529,9.91294 8.780529,9.912939 8.780792,9.83093 8.780481,9.813719 8.868016,9.813498" style="fill: white" /><polygon type="contour" points="8.865154,10.855255 8.943744,10.855255 9.224369,10.855023 9.300771,10.854779 9.317984,10.854927 9.317846,10.950838 9.317846,10.988161 9.317984,11.077635 9.317984,11.096133 9.202627,11.096467 9.202543,11.257876 9.202556,11.261031 9.202531,11.261262 9.20248,11.264037 8.909914,11.264092 8.90921,11.26408 8.90921,11.263586 8.909202,11.096115 8.780793,11.096147 8.781216,10.998523 8.781216,10.961057 8.780793,10.873124 8.780793,10.854778" style="fill: white" /><polygon type="contour" points="8.276342,10.950772 8.276342,10.9881 8.276924,11.077556 8.276924,11.096147 8.261271,11.096185 8.143426,11.096584 8.143511,11.174026 8.142893,11.236649 8.142914,11.251097 8.14277,11.252075 8.1424,11.265302 8.103689,11.264991 7.858155,11.273547 7.867683,10.997621 7.867742,10.988274 8.035112,10.988274 8.035556,10.854779 8.133178,10.85536 8.170641,10.85536 8.258575,10.854779 8.276924,10.854779" style="fill: white" />
</svg>
