<svg width="19.131698" height="19.131699">
<polygon type="contour" points="1.06943,1.019782 1.353641,1.020442 1.353581,1.032071 1.353581,1.043761 1.353598,1.044156 1.35359,1.053084 1.353584,1.056888 1.353456,1.083211 1.353411,1.098998 1.353019,1.210219 1.353019,1.353021 1.210219,1.353021 1.098996,1.353414 1.083209,1.353458 1.056885,1.353586 1.053082,1.35359 1.044153,1.353599 1.032068,1.353582 1.031502,1.35363 1.020424,1.353627 1.020448,1.329107 1.019781,1.031151 1.019781,1.019783 1.069137,1.019732" style="fill: white" /><polygon type="contour" points="1.353067,3.275009 1.353067,3.79179 1.353068,3.965983 1.1318,3.946087 1.115383,3.947553 1.115383,3.922468 1.114916,3.700263 1.114881,3.68953 1.115011,3.607713 1.043284,3.607713 1.035381,3.607679 1.035041,3.607673 1.019749,3.60765 1.019749,3.56162 1.020424,3.275126 1.032069,3.275168 1.04444,3.275114 1.053569,3.27518 1.057415,3.275109 1.085183,3.274993 1.102096,3.274957 1.210582,3.274885 1.267169,3.274885" style="fill: white" /><polygon type="contour" points="1.226575,2.422823 1.353268,2.422823 1.353268,2.444852 1.353118,2.61831 1.323547,2.618202 1.210429,2.618202 1.210523,2.442722 1.210533,2.422752" style="fill: white" /><polygon type="contour" points="1.353019,2.037773 1.353268,2.273271 1.34046,2.273318 1.210533,2.273318 1.210467,2.235765 1.210219,1.941269 1.353019,1.941269" style="fill: white" /><polygon type="contour" points="3.607676,1.035383 3.607711,1.043286 3.607711,1.115012 3.7126,1.115 3.754936,1.115007 3.94751,1.115092 3.965857,1.115119 3.950457,1.280953 3.944956,1.35337 3.896229,1.353159 3.275007,1.353068 3.275007,1.300219 3.274882,1.210584 3.274955,1.102098 3.274992,1.085185 3.275107,1.057417 3.275178,1.053572 3.275112,1.044441 3.275166,1.043761 3.275166,1.032071 3.275128,1.031504 3.275124,1.020425 3.561618,1.019751 3.607647,1.019751" style="fill: white" /><polygon type="contour" points="2.618308,1.242692 2.618308,1.35312 2.574035,1.35312 2.422821,1.35327 2.422751,1.340462 2.422751,1.210535 2.581853,1.210449 2.6182,1.210431" style="fill: white" /><polygon type="contour" points="2.235763,1.210468 2.273316,1.210535 2.27327,1.226576 2.27327,1.35327 2.03777,1.353021 1.941267,1.353021 1.941267,1.210221" style="fill: white" /><polygon type="contour" points="2.273271,1.941393 2.27327,2.235765 2.273316,2.273318 2.235764,2.273272 1.941391,2.273272 1.941391,2.235765 1.941267,1.941269 2.037771,1.941269" style="fill: white" /><polygon type="contour" points="2.618121,2.235764 2.618066,2.273352 2.600444,2.273318 2.422751,2.273318 2.422821,2.235764 2.422822,1.941393 2.444852,1.941393 2.618308,1.940989" style="fill: white" /><polygon type="contour" points="2.44272,2.422767 2.618066,2.422767 2.618066,2.442723 2.6182,2.618202 2.577604,2.618202 2.422766,2.618068 2.422751,2.600446 2.422751,2.422752" style="fill: white" /><polygon type="contour" points="2.273351,2.442723 2.273351,2.618068 2.235763,2.618123 1.940986,2.61831 1.940986,2.574036 1.94139,2.422823 2.235763,2.422823 2.273316,2.422752" style="fill: white" /><polygon type="contour" points="2.273316,3.353466 2.273316,3.947687 1.958034,3.953896 1.941141,3.953314 1.941141,3.900682 1.941267,3.27522 2.030588,3.275171 2.273351,3.274825" style="fill: white" /><polygon type="contour" points="2.61857,3.902484 2.61857,3.952063 2.60847,3.9524 2.422347,3.948253 2.422359,3.897435 2.422766,3.274824 2.577604,3.274731 2.6182,3.274731" style="fill: white" /><polygon type="contour" points="3.921758,3.274914 3.965713,3.274914 3.965984,3.315915 3.963324,3.362251 3.956133,3.956134 3.747091,3.953268 3.27519,3.950626 3.275132,3.90779 3.274883,3.274885" style="fill: white" /><polygon type="contour" points="3.94794,2.434084 3.952061,2.618572 3.902483,2.618572 3.274729,2.618202 3.274729,2.577606 3.274822,2.422767 3.897432,2.422362 3.948251,2.42235" style="fill: white" /><polygon type="contour" points="3.953894,1.958036 3.94825,2.274035 3.897432,2.27405 3.274822,2.273352 3.27517,2.03059 3.275218,1.941269 3.900679,1.941142 3.953312,1.941142" style="fill: white" /><polygon type="contour" points="18.111918,1.019783 18.111918,1.031152 18.111252,1.329107 18.111276,1.353627 18.099632,1.353582 18.087942,1.353582 18.087546,1.353599 18.078617,1.35359 18.074814,1.353586 18.04849,1.353458 18.032703,1.353413 17.921482,1.353021 17.77868,1.353021 17.77868,1.210219 17.778287,1.098997 17.778242,1.083212 17.778116,1.056888 17.77811,1.053084 17.778102,1.044155 17.77812,1.03207 17.778072,1.031503 17.778058,1.020442 18.062268,1.019782 18.062562,1.019732" style="fill: white" /><polygon type="contour" points="15.234266,2.422362 15.856877,2.422767 15.856877,2.442723 15.85697,2.618202 15.229216,2.618572 15.179639,2.618572 15.179302,2.60847 15.183449,2.42235" style="fill: white" /><polygon type="contour" points="15.856481,1.941269 15.856528,2.03059 15.856877,2.273352 15.778236,2.273318 15.184015,2.273318 15.177142,1.958036 15.177734,1.941142 15.230367,1.941142" style="fill: white" /><polygon type="contour" points="15.856577,1.020425 15.856535,1.03207 15.856589,1.04444 15.856523,1.053572 15.856594,1.057417 15.856708,1.085184 15.856746,1.102099 15.856817,1.210584 15.856817,1.267172 15.856693,1.353068 15.671162,1.353021 15.186198,1.353439 15.187367,1.291101 15.184148,1.115385 15.209234,1.115385 15.431545,1.115224 15.442156,1.114961 15.52399,1.115012 15.52399,1.043286 15.524025,1.035384 15.524031,1.035044 15.524053,1.019751 15.570082,1.019751" style="fill: white" /><polygon type="contour" points="16.688975,1.210523 16.708947,1.210535 16.708877,1.226576 16.708877,1.35327 16.686846,1.35327 16.513391,1.35312 16.513499,1.323548 16.513499,1.210431" style="fill: white" /><polygon type="contour" points="17.19043,1.353021 17.093926,1.353021 16.858428,1.35327 16.858382,1.340462 16.858382,1.210535 16.895934,1.210468 17.19043,1.210221" style="fill: white" /><polygon type="contour" points="18.029601,3.274957 18.046515,3.274994 18.074284,3.275109 18.078129,3.275179 18.087259,3.275114 18.087941,3.275167 18.099631,3.275167 18.100197,3.27513 18.111276,3.275126 18.111952,3.56162 18.111952,3.60765 18.096317,3.607679 18.088414,3.607713 18.016686,3.607713 18.016818,3.68953 18.016782,3.700263 18.016316,3.922468 18.016316,3.947554 17.999898,3.946088 17.778632,3.965983 17.778632,3.275009 17.83148,3.275009 17.921114,3.274884" style="fill: white" /><polygon type="contour" points="17.921252,2.581855 17.92127,2.618202 17.889009,2.61831 17.778582,2.61831 17.778582,2.574037 17.778432,2.422823 17.79124,2.422752 17.921162,2.422752" style="fill: white" /><polygon type="contour" points="17.921228,2.235765 17.921162,2.273318 17.90512,2.273272 17.778432,2.273272 17.778432,2.235764 17.778682,1.941269 17.921478,1.941269" style="fill: white" /><polygon type="contour" points="17.190712,2.198114 17.19031,2.235765 17.19031,2.273272 16.895933,2.273272 16.858382,2.273318 16.858428,2.235765 16.858428,1.941393 16.895933,1.941393 17.19043,1.941269" style="fill: white" /><polygon type="contour" points="16.708877,1.941393 16.708877,2.235764 16.708947,2.273318 16.688975,2.273352 16.513631,2.273352 16.513575,2.235764 16.51339,1.940989 16.557665,1.940989" style="fill: white" /><polygon type="contour" points="16.708932,2.442722 16.708932,2.618068 16.688975,2.618068 16.513499,2.618202 16.513499,2.577607 16.513631,2.422767 16.531252,2.422752 16.708947,2.422752" style="fill: white" /><polygon type="contour" points="16.895934,2.422823 17.19031,2.422823 17.19031,2.444852 17.190712,2.61831 16.895934,2.618123 16.858348,2.618067 16.858382,2.600446 16.858382,2.422752" style="fill: white" /><polygon type="contour" points="17.101108,3.275171 17.19043,3.27522 17.19056,3.900681 17.19056,3.953314 17.173665,3.953896 16.857666,3.948253 16.857652,3.897434 16.858348,3.274825" style="fill: white" /><polygon type="contour" points="16.708931,3.274825 16.70934,3.897435 16.709352,3.948253 16.697616,3.947941 16.51313,3.952063 16.51313,3.902485 16.513499,3.274731 16.554094,3.274731" style="fill: white" /><polygon type="contour" points="15.856567,3.90779 15.856509,3.950626 15.764059,3.952872 15.175566,3.956134 15.168374,3.362252 15.165986,3.274914 15.20994,3.274914 15.856817,3.274885" style="fill: white" /><polygon type="contour" points="15.384608,15.178226 15.856509,15.180863 15.856566,15.223912 15.856816,15.856819 15.20994,15.85679 15.165985,15.85679 15.165715,15.815788 15.168374,15.769451 15.175566,15.17557" style="fill: white" /><polygon type="contour" points="17.794475,15.165846 18.016582,15.165846 18.016608,15.184192 18.016693,15.376765 18.016702,15.4191 18.016688,15.52399 18.088413,15.52399 18.096317,15.524025 18.096658,15.524031 18.111952,15.524054 18.111952,15.570082 18.111276,15.856579 18.099632,15.856537 18.087259,15.85659 18.07813,15.856525 18.074283,15.856596 18.046516,15.856709 18.029601,15.856748 17.921114,15.856819 17.864527,15.856819 17.778632,15.856693 17.778606,15.211994 17.778606,15.165423" style="fill: white" /><polygon type="contour" points="17.19056,15.177734 17.19056,15.230367 17.19043,15.856483 17.101108,15.856533 16.858348,15.856878 16.858382,15.778237 16.858382,15.184016 17.173666,15.177143" style="fill: white" /><polygon type="contour" points="16.709352,15.183452 16.70934,15.234268 16.708931,15.856878 16.554093,15.856973 16.513499,15.856973 16.51313,15.229218 16.51313,15.179642 16.523231,15.179305" style="fill: white" /><polygon type="contour" points="16.708947,17.791241 16.708947,17.921166 16.549846,17.921254 16.513499,17.921272 16.513391,17.889011 16.513391,17.778582 16.557664,17.778582 16.708877,17.778434" style="fill: white" /><polygon type="contour" points="17.093925,17.778684 17.190432,17.778684 17.190432,17.880034 17.19043,17.921482 16.895934,17.921232 16.858382,17.921166 16.858428,17.905124 16.858428,17.778434" style="fill: white" /><polygon type="contour" points="18.111276,17.778076 18.111252,17.802596 18.111918,18.100551 18.111918,18.11192 18.062562,18.111972 18.062268,18.111922 17.778058,18.111262 17.77812,18.099634 17.77812,18.087944 17.778102,18.087548 17.77811,18.078619 17.778116,18.074815 17.778242,18.048491 17.778287,18.032706 17.77868,17.921484 17.77868,17.870805 17.778684,17.778682 17.921482,17.778682 18.032703,17.77829 18.04849,17.778245 18.074813,17.778118 18.078617,17.778112 18.087546,17.778104 18.099632,17.778122 18.100198,17.778074" style="fill: white" /><polygon type="contour" points="17.921228,16.895936 17.921478,17.190432 17.778684,17.190432 17.778682,17.093927 17.77843,16.85843 17.791238,16.858384 17.921162,16.858384" style="fill: white" /><polygon type="contour" points="17.808154,16.513501 17.92127,16.513501 17.921171,16.688979 17.921162,16.708949 17.905119,16.708879 17.77843,16.708879 17.77843,16.686848 17.778582,16.513394" style="fill: white" /><polygon type="contour" points="17.190712,16.557667 17.19031,16.708879 16.895933,16.708879 16.858382,16.708949 16.858348,16.688978 16.858348,16.513633 16.895934,16.513578 17.190712,16.513394" style="fill: white" /><polygon type="contour" points="16.708932,16.513633 16.708947,16.531254 16.708947,16.708949 16.688976,16.708934 16.513631,16.708934 16.513631,16.688978 16.513499,16.513501 16.554093,16.513501" style="fill: white" /><polygon type="contour" points="16.895933,16.85843 17.19031,16.85843 17.19031,16.895935 17.190432,17.190432 17.093925,17.190432 16.858428,17.190312 16.858428,16.895935 16.858382,16.858384" style="fill: white" /><polygon type="contour" points="16.531252,16.858384 16.708947,16.858384 16.708877,16.895935 16.708877,17.190312 16.686847,17.190312 16.513391,17.190714 16.513575,16.895936 16.513631,16.85835" style="fill: white" /><polygon type="contour" points="15.85697,16.513501 15.85697,16.554095 15.856877,16.708934 15.234265,16.709341 15.183449,16.709353 15.18376,16.697618 15.179639,16.513132 15.229215,16.513132" style="fill: white" /><polygon type="contour" points="15.856876,16.85835 15.856528,17.10111 15.856481,17.190432 15.230365,17.19056 15.177733,17.19056 15.177141,17.173667 15.183448,16.857668 15.234266,16.857654" style="fill: white" /><polygon type="contour" points="15.235469,17.77854 15.856693,17.778634 15.856693,17.831484 15.856817,17.921118 15.856746,18.029605 15.856708,18.04652 15.856594,18.074287 15.856523,18.078132 15.856589,18.087261 15.856535,18.087943 15.856535,18.099633 15.856573,18.100199 15.856577,18.111278 15.570082,18.111952 15.524053,18.111952 15.524025,18.09632 15.52399,18.088417 15.52399,18.016689 15.442156,18.016741 15.431546,18.016478 15.209233,18.01632 15.184148,18.01632 15.187366,17.840601 15.186235,17.778332" style="fill: white" /><polygon type="contour" points="3.950458,17.850749 3.965856,18.016586 3.947509,18.016612 3.754936,18.016695 3.7126,18.016704 3.607711,18.01669 3.607711,18.088417 3.607677,18.096319 3.607671,18.096659 3.607648,18.111952 3.561619,18.111954 3.275124,18.111278 3.275166,18.099634 3.275112,18.087261 3.275178,18.078132 3.275107,18.074287 3.274992,18.046519 3.274955,18.029605 3.274883,17.921118 3.274883,17.864532 3.275007,17.778634 3.896229,17.778539 3.944956,17.778332" style="fill: white" /><polygon type="contour" points="2.618308,17.778582 2.6182,17.808153 2.6182,17.921272 2.44272,17.921175 2.422751,17.921166 2.422821,17.905123 2.422821,17.778434 2.44485,17.778434" style="fill: white" /><polygon type="contour" points="2.273316,17.791242 2.273316,17.921166 2.235763,17.921232 1.941267,17.921482 1.941267,17.778684 2.037771,17.778684 2.273269,17.778434" style="fill: white" /><polygon type="contour" points="1.353092,15.211995 1.353067,15.856693 1.300218,15.856693 1.210582,15.856819 1.102097,15.856748 1.085182,15.856711 1.057415,15.856596 1.053569,15.856525 1.04444,15.856591 1.043759,15.856537 1.032069,15.856537 1.031503,15.856574 1.020423,15.856579 1.019749,15.570082 1.019749,15.524054 1.035381,15.524025 1.043283,15.52399 1.11501,15.52399 1.114998,15.4191 1.115006,15.376765 1.115091,15.184192 1.115117,15.165846 1.128601,15.165423 1.353092,15.165423" style="fill: white" /><polygon type="contour" points="2.274033,15.183452 2.274047,15.234269 2.273351,15.856878 2.030588,15.856533 1.941267,15.856483 1.941141,15.230366 1.941141,15.177734 1.958034,15.177143" style="fill: white" /><polygon type="contour" points="2.61857,15.229219 2.6182,15.856973 2.577605,15.856973 2.422766,15.856877 2.422359,15.234268 2.422347,15.183452 2.434083,15.183763 2.61857,15.179642" style="fill: white" /><polygon type="contour" points="3.963324,15.769452 3.965713,15.85679 3.921758,15.85679 3.274883,15.856819 3.275132,15.223912 3.27519,15.180864 3.367639,15.17883 3.956133,15.17557" style="fill: white" /><polygon type="contour" points="3.952399,16.523232 3.948251,16.709353 3.897433,16.709341 3.274823,16.708933 3.274823,16.688978 3.274729,16.513501 3.902484,16.513132 3.952061,16.513132" style="fill: white" /><polygon type="contour" points="3.353464,16.858384 3.947685,16.858384 3.953895,17.173667 3.953313,17.19056 3.90068,17.19056 3.275218,17.190432 3.27517,17.10111 3.274823,16.85835" style="fill: white" /><polygon type="contour" points="2.6182,16.554096 2.618066,16.708934 2.600444,16.708949 2.422751,16.708949 2.422766,16.688979 2.422766,16.513633 2.442721,16.513633 2.6182,16.513501" style="fill: white" /><polygon type="contour" points="2.618121,16.895935 2.618308,17.190714 2.574035,17.190714 2.422821,17.190311 2.422821,16.895935 2.422751,16.858384 2.442721,16.85835 2.618066,16.85835" style="fill: white" /><polygon type="contour" points="2.27327,16.895935 2.27327,17.190312 2.235764,17.190312 1.941267,17.190431 1.940987,16.933588 1.941391,16.895935 1.941391,16.85843 2.235764,16.85843 2.273316,16.858384" style="fill: white" /><polygon type="contour" points="2.235763,16.513578 2.273351,16.513633 2.273316,16.531255 2.273316,16.708949 2.235764,16.708879 1.941391,16.708879 1.941391,16.686848 1.940987,16.513394" style="fill: white" /><polygon type="contour" points="1.353118,16.557666 1.353268,16.708879 1.34046,16.708949 1.210533,16.708949 1.210447,16.549848 1.210429,16.513501 1.242689,16.513394 1.353118,16.513394" style="fill: white" /><polygon type="contour" points="1.226574,16.85843 1.353268,16.85843 1.353268,16.895935 1.353019,17.190432 1.210219,17.190432 1.210467,16.895935 1.210533,16.858384" style="fill: white" /><polygon type="contour" points="1.032068,17.778122 1.043758,17.778122 1.044153,17.778104 1.053082,17.778112 1.056886,17.778118 1.083209,17.778245 1.098996,17.77829 1.210218,17.778682 1.353019,17.778682 1.353019,17.921484 1.353411,18.032705 1.353456,18.048492 1.353584,18.074815 1.35359,18.078619 1.353598,18.087547 1.353581,18.099633 1.353629,18.100199 1.353641,18.111262 1.06943,18.111922 1.069137,18.111972 1.019781,18.11192 1.019781,18.100552 1.020448,17.802596 1.020424,17.778076" style="fill: white" />
</svg>
