<svg width="19.131698" height="19.131699">
<polygon type="contour" points="10.844911,8.401011 10.842186,8.5376 10.84176,8.564657 10.758287,8.564495 10.758287,9.34849 10.842043,9.348402 10.842658,9.373308 10.843834,9.43647 10.845849,9.476441 10.846878,9.566201 10.845849,9.655596 10.843835,9.695455 10.842657,9.758456 10.842043,9.7833 10.758287,9.783166 10.758287,10.567163 10.84176,10.567048 10.842121,10.575782 10.847559,10.629298 10.848106,10.848109 10.685853,10.84352 10.569725,10.845024 10.567076,10.75829 9.783212,10.75829 9.783298,10.842044 9.75839,10.84266 9.69523,10.843837 9.625896,10.846997 9.5655,10.846859 9.436245,10.843836 9.373242,10.84266 9.3484,10.842045 9.348533,10.75829 8.564378,10.75829 8.561975,10.845024 8.445848,10.84352 8.283594,10.848109 8.28679,10.730692 8.289514,10.594104 8.289939,10.567048 8.373413,10.567209 8.373413,9.783214 8.289656,9.7833 8.28904,9.758393 8.287864,9.695232 8.285852,9.655263 8.284822,9.565501 8.285851,9.476108 8.287865,9.436247 8.28904,9.373244 8.289656,9.348402 8.373413,9.348537 8.373413,8.564541 8.289939,8.564657 8.289577,8.555923 8.284138,8.502404 8.283594,8.283595 8.445847,8.288185 8.561975,8.28668 8.564624,8.373414 9.348488,8.373414 9.3484,8.289657 9.373304,8.289042 9.436469,8.287868 9.505803,8.284708 9.566199,8.284846 9.695454,8.287868 9.758453,8.289041 9.783298,8.289658 9.783164,8.373414 10.567323,8.373414 10.569724,8.28668 10.685852,8.288184 10.848106,8.283595" style="fill: white" />
</svg>
