<svg width="19.131698" height="19.131699">
<polygon type="contour" points="8.711727,8.509995 8.711727,8.596895 8.826192,8.596561 8.826192,8.610661 8.825987,8.712254 8.825987,8.732881 8.826192,8.826194 8.813995,8.826194 8.727286,8.825989 8.705785,8.825989 8.596559,8.826194 8.596891,8.712228 8.430204,8.712228 8.429801,8.450623 8.429757,8.447792 8.429462,8.43847 8.42927,8.436581 8.429253,8.429254 8.442036,8.429615 8.444377,8.429708 8.708887,8.426393" style="fill: white" /><polygon type="contour" points="10.404413,10.305716 10.425913,10.305716 10.535142,10.30551 10.534809,10.419476 10.701496,10.419476 10.701899,10.68108 10.701943,10.683911 10.702237,10.693233 10.702429,10.695122 10.702447,10.70245 10.689663,10.702088 10.687322,10.701995 10.422813,10.705308 10.419973,10.621708 10.419973,10.534809 10.305509,10.535144 10.305509,10.521043 10.305714,10.419449 10.305714,10.398822 10.305509,10.30551 10.317706,10.30551" style="fill: white" /><polygon type="contour" points="10.404413,9.304727 10.425914,9.304727 10.535142,9.304721 10.534676,9.420602 10.706466,9.420602 10.706565,9.429653 10.70591,9.566202 10.705816,9.576228 10.706466,9.711102 10.534676,9.711102 10.535142,9.82698 10.521042,9.82698 10.419448,9.826977 10.398819,9.826977 10.305509,9.82698 10.305509,9.81435 10.305669,9.724692 10.305669,9.401761 10.305509,9.304721 10.317706,9.304721" style="fill: white" /><polygon type="contour" points="10.686822,8.429702 10.689663,8.429615 10.702447,8.429254 10.701943,8.447793 10.701899,8.450623 10.701496,8.712228 10.534809,8.712228 10.535142,8.826194 10.521041,8.826194 10.419447,8.825989 10.39882,8.825989 10.305509,8.826194 10.305509,8.813996 10.305714,8.727288 10.305714,8.705787 10.305509,8.596561 10.419486,8.596894 10.419972,8.509995 10.422813,8.426393" style="fill: white" /><polygon type="contour" points="9.708669,8.430316 9.711101,8.430336 9.711101,8.597027 9.826978,8.596561 9.826978,8.610661 9.826976,8.712253 9.826976,8.732881 9.826978,8.826194 9.814348,8.826194 9.724691,8.826035 9.40176,8.826035 9.304719,8.826194 9.304719,8.813997 9.304724,8.727287 9.304724,8.705788 9.304719,8.596561 9.4206,8.597027 9.4206,8.430336 9.555347,8.425927 9.566198,8.425795" style="fill: white" /><polygon type="contour" points="9.407008,9.304811 9.72994,9.304811 9.826978,9.304721 9.826978,9.317349 9.826891,9.407011 9.826891,9.729942 9.826978,9.82698 9.814348,9.82698 9.724692,9.826893 9.40176,9.826893 9.304719,9.82698 9.304719,9.814351 9.304809,9.724693 9.304809,9.401762 9.304719,9.304721 9.317348,9.304721" style="fill: white" /><polygon type="contour" points="8.712252,9.304727 8.732879,9.304727 8.826192,9.304721 8.826192,9.317349 8.826032,9.407011 8.826032,9.729941 8.826192,9.82698 8.813994,9.82698 8.727287,9.826977 8.705785,9.826977 8.596559,9.82698 8.597024,9.711102 8.425234,9.711102 8.425135,9.70205 8.42579,9.565502 8.425885,9.555474 8.425234,9.420602 8.597024,9.420602 8.596559,9.304721 8.610659,9.304721" style="fill: white" /><polygon type="contour" points="8.712252,10.305716 8.73288,10.305716 8.826192,10.30551 8.826192,10.317707 8.825987,10.404416 8.825987,10.425915 8.826192,10.535144 8.712213,10.53481 8.711727,10.621708 8.708887,10.705308 8.444877,10.702002 8.442036,10.702088 8.429252,10.70245 8.429757,10.68391 8.429801,10.68108 8.430204,10.419476 8.596891,10.419476 8.596559,10.30551 8.610658,10.30551" style="fill: white" /><polygon type="contour" points="9.407008,10.30567 9.72994,10.30567 9.826978,10.30551 9.826978,10.317707 9.826976,10.404416 9.826976,10.425916 9.826978,10.535144 9.711101,10.534677 9.711101,10.701368 9.576352,10.705777 9.565501,10.705909 9.423031,10.701388 9.4206,10.701368 9.4206,10.534677 9.304719,10.535144 9.304719,10.521044 9.304724,10.419449 9.304724,10.398822 9.304719,10.30551 9.317347,10.30551" style="fill: white" />
</svg>
