<svg width="19.131698" height="19.131699">
<polygon type="contour" points="10.116387,10.567708 10.146567,10.567708 10.146894,10.646183 10.146894,10.743687 10.146568,10.815493 10.146568,10.848298 10.120575,10.848355 9.973989,10.848042 9.973989,10.954888 9.974019,10.984482 9.974019,11.015713 9.82094,11.01878 9.683648,11.01873 9.681906,10.950399 9.681534,10.944001 9.681534,10.848079 9.450167,10.848079 9.450167,10.943999 9.448052,11.018729 9.192119,11.015717 9.157681,11.015713 9.157681,10.996769 9.157711,10.954889 9.155743,10.848328 9.055506,10.848164 8.985132,10.848298 8.984807,10.770183 8.984807,10.672678 8.985132,10.600512 8.985132,10.567708 9.055506,10.567448 9.157882,10.567448 9.392271,10.567708 9.517808,10.56771 9.517807,10.567808 9.8363,10.567481 10.04611,10.56743" style="fill: white" /><polygon type="contour" points="10.81549,10.567708 10.848296,10.567708 10.848319,10.595572 10.848039,10.744002 11.015674,10.744002 11.015892,10.763926 11.023471,11.023472 10.858486,11.020501 10.746957,11.019257 10.744358,10.950786 10.744187,10.944295 10.743931,10.848208 10.646179,10.848164 10.567705,10.848298 10.567676,10.770183 10.567676,10.672677 10.567705,10.600512 10.567705,10.567708 10.646179,10.567679 10.743684,10.567679" style="fill: white" /><polygon type="contour" points="11.015892,8.367777 11.015674,8.387702 10.848206,8.387702 10.848162,8.485521 10.848296,8.563994 10.770181,8.564025 10.672676,8.564025 10.600509,8.563994 10.567705,8.563994 10.567676,8.485521 10.567676,8.388018 10.567705,8.31621 10.567705,8.283404 10.595568,8.283381 10.744187,8.283664 10.744187,8.187408 10.746957,8.112445 10.858486,8.111203 11.023471,8.108232" style="fill: white" /><polygon type="contour" points="10.815491,8.985133 10.848296,8.985133 10.848353,9.011126 10.84804,9.157764 11.015614,9.157764 11.016245,9.321276 11.016619,9.449611 10.967347,9.449684 10.957813,9.450014 10.906495,9.450228 10.849397,9.450228 10.846212,9.613895 10.848077,9.613895 10.848077,9.681473 10.900063,9.681691 10.957813,9.681691 11.016619,9.682093 11.015843,9.897919 11.015614,9.97394 10.954886,9.973991 10.848326,9.974006 10.848163,10.076195 10.848296,10.14657 10.77018,10.146897 10.672676,10.146897 10.600509,10.14657 10.567705,10.14657 10.567446,10.076195 10.567446,9.973818 10.567704,9.739432 10.567708,9.613894 10.567806,9.613895 10.567479,9.295401 10.567428,9.085607 10.567705,9.015312 10.567705,8.985133 10.646179,8.984808 10.743684,8.984808" style="fill: white" /><polygon type="contour" points="10.116387,8.985133 10.146568,8.985133 10.146594,9.055508 10.146594,9.157885 10.146568,9.392272 10.146175,9.613895 10.146345,9.613895 10.146397,9.83655 10.146617,9.990359 10.146568,10.116388 10.146568,10.14657 10.076193,10.146596 9.973816,10.146596 9.73943,10.14657 9.517808,10.146177 9.517808,10.146347 9.295151,10.146399 9.141342,10.146619 9.015312,10.14657 8.985132,10.14657 8.985107,10.076195 8.985107,9.973819 8.985132,9.739432 8.985523,9.518094 8.985354,9.518094 8.985303,9.295402 8.985084,9.14176 8.985132,9.015312 8.985132,8.985133 9.055507,8.985109 9.157882,8.985109 9.392271,8.985133 9.613609,8.985526 9.613609,8.985356 9.836299,8.985305 9.989428,8.985086" style="fill: white" /><polygon type="contour" points="9.448052,8.112974 9.449795,8.181305 9.450167,8.187703 9.450167,8.283624 9.681534,8.283624 9.681534,8.187704 9.683648,8.112974 9.93958,8.115987 9.974019,8.115991 9.974019,8.134935 9.973989,8.176815 9.975956,8.283378 10.076192,8.283539 10.146568,8.283404 10.146894,8.36152 10.146894,8.459026 10.146568,8.531188 10.146568,8.563994 10.076193,8.564256 9.973817,8.564256 9.739429,8.563993 9.613609,8.563992 9.613609,8.563892 9.295152,8.564223 9.085565,8.564273 9.015312,8.563994 8.985132,8.563994 8.984807,8.485521 8.984807,8.388018 8.985132,8.31621 8.985132,8.283404 9.011125,8.283347 9.157711,8.283663 9.157711,8.176815 9.157681,8.147222 9.157681,8.115991 9.310759,8.112923" style="fill: white" /><polygon type="contour" points="8.273213,8.111203 8.384743,8.112445 8.387343,8.180918 8.387513,8.187408 8.387768,8.283498 8.485519,8.283539 8.563993,8.283404 8.564024,8.36152 8.564024,8.459026 8.563993,8.531189 8.563993,8.563994 8.485519,8.564025 8.388015,8.564025 8.316207,8.563994 8.283403,8.563994 8.283379,8.536129 8.283662,8.387702 8.116025,8.387702 8.115808,8.367777 8.108229,8.108232" style="fill: white" /><polygon type="contour" points="8.531186,8.985133 8.563993,8.985133 8.564255,9.055508 8.564255,9.157885 8.563993,9.392273 8.56399,9.518094 8.56389,9.518093 8.564221,9.836549 8.564272,10.046011 8.563993,10.116389 8.563993,10.14657 8.485519,10.146897 8.388015,10.146897 8.316206,10.14657 8.283402,10.14657 8.283344,10.120576 8.283659,9.97394 8.116086,9.97394 8.115454,9.810428 8.115081,9.682094 8.164352,9.682021 8.173887,9.681691 8.225204,9.681476 8.282295,9.681476 8.285501,9.518094 8.283622,9.518094 8.283622,9.45023 8.231634,9.450014 8.173886,9.450014 8.115081,9.449611 8.115857,9.233784 8.116086,9.157764 8.176814,9.157713 8.283369,9.157697 8.283537,9.055509 8.283403,8.985133 8.361519,8.984808 8.459023,8.984808" style="fill: white" /><polygon type="contour" points="8.531186,10.567708 8.563992,10.567708 8.564024,10.646182 8.564024,10.743686 8.563993,10.815493 8.563993,10.848298 8.536128,10.848321 8.387513,10.848041 8.387513,10.944296 8.384743,11.019257 8.273213,11.020501 8.108229,11.023472 8.115808,10.763926 8.116025,10.744002 8.283493,10.744002 8.283538,10.646182 8.283403,10.567708 8.361519,10.567679 8.459023,10.567679" style="fill: white" />
</svg>
