<svg width="19.131698" height="19.131699">
<polygon type="contour" points="7.641994,7.508196 7.765969,7.517608 7.807729,7.517715 7.808605,7.598527 7.808605,7.68712 7.918356,7.687468 7.918356,7.70133 7.918393,7.820339 7.918356,7.918358 7.907841,7.918358 7.815299,7.918394 7.687467,7.918358 7.687119,7.808989 7.518375,7.808989 7.518353,7.802719 7.507137,7.507139" style="fill: white" /><polygon type="contour" points="7.918356,8.473912 7.918356,8.485984 7.918195,8.583825 7.918195,8.603879 7.918507,8.887752 7.918507,8.956484 7.918356,9.072157 7.908275,9.072102 7.824546,9.071792 7.802803,9.071792 7.687449,9.072103 7.68744,9.059857 7.687261,8.887892 7.615905,8.887892 7.542564,8.88741 7.518469,8.887458 7.518513,8.865201 7.519093,8.593726 7.68712,8.593726 7.687467,8.473912 7.701328,8.473912 7.820337,8.47385" style="fill: white" /><polygon type="contour" points="8.583825,8.474651 8.603878,8.474651 8.88775,8.474119 8.956482,8.474119 9.072155,8.473912 9.072027,8.485586 9.071125,8.583864 9.071125,8.603424 9.071542,8.887774 9.071542,8.955906 9.072027,9.072103 9.058456,9.072103 8.887772,9.071363 8.887772,9.071608 8.860712,9.071608 8.586496,9.071134 8.580124,9.071164 8.47391,9.072157 8.47391,9.057982 8.474219,8.887752 8.474117,8.887752 8.474117,8.859466 8.474649,8.593829 8.474649,8.580125 8.47391,8.473912 8.485981,8.473912" style="fill: white" /><polygon type="contour" points="8.886999,7.595418 8.887534,7.687263 9.059855,7.687441 9.072027,7.687451 9.072027,7.700721 9.07172,7.821925 9.071814,7.829567 9.072154,7.918358 9.057981,7.918358 8.944254,7.918509 8.859463,7.918509 8.593827,7.918197 8.580123,7.918197 8.47391,7.918358 8.47391,7.907843 8.473848,7.8153 8.47391,7.687468 8.593715,7.687122 8.593715,7.519083 8.601305,7.51909 8.887462,7.5185" style="fill: white" /><polygon type="contour" points="11.444233,8.473912 11.44458,8.593871 11.580917,8.593871 11.604124,8.593712 11.612607,8.593726 11.612622,8.601694 11.613231,8.887458 11.589135,8.88741 11.515794,8.887892 11.444439,8.887892 11.44426,9.059857 11.44425,9.072103 11.430979,9.072103 11.312654,9.071763 11.302133,9.071818 11.213343,9.072157 11.213343,9.057983 11.213192,8.944256 11.213192,8.859465 11.213504,8.593828 11.213504,8.580124 11.213343,8.473912 11.223857,8.473912 11.307148,8.473856 11.307149,8.473856 11.316401,8.473849" style="fill: white" /><polygon type="contour" points="11.62442,7.638027 11.613344,7.802718 11.613322,7.808989 11.444581,7.808989 11.444234,7.918358 11.43037,7.918358 11.322567,7.918391 11.311362,7.918394 11.213343,7.918358 11.213343,7.907844 11.21331,7.824236 11.213307,7.8153 11.213343,7.687468 11.322706,7.687121 11.323094,7.598527 11.323899,7.592179 11.32397,7.517716 11.36573,7.517608 11.624564,7.507139" style="fill: white" /><polygon type="contour" points="10.537984,7.519083 10.537984,7.687122 10.65779,7.687467 10.65779,7.70133 10.65785,7.820339 10.65779,7.918358 10.645719,7.918358 10.547873,7.918197 10.52782,7.918197 10.243949,7.918509 10.175216,7.918509 10.059546,7.918358 10.0596,7.908277 10.059912,7.824546 10.059912,7.802805 10.0596,7.687451 10.071845,7.687441 10.244111,7.687263 10.24381,7.615907 10.244292,7.542566 10.244238,7.5185 10.267143,7.51848" style="fill: white" /><polygon type="contour" points="10.243949,8.474221 10.243949,8.474119 10.272235,8.474119 10.537872,8.474651 10.551575,8.474651 10.65779,8.473912 10.65779,8.485984 10.657051,8.583826 10.657051,8.603879 10.657583,8.887752 10.657583,8.956484 10.65779,9.072157 10.646115,9.072103 10.547835,9.071147 10.528275,9.071147 10.243927,9.071608 10.175795,9.071608 10.0596,9.072103 10.0596,9.058458 10.060339,8.887774 10.060095,8.887774 10.060095,8.860715 10.060566,8.586489 10.060536,8.580125 10.059546,8.473912 10.073719,8.473912" style="fill: white" /><polygon type="contour" points="10.65779,10.073721 10.65748,10.243951 10.657583,10.243951 10.657583,10.272237 10.657051,10.537874 10.657051,10.551577 10.65779,10.657792 10.645719,10.657792 10.547874,10.657053 10.52782,10.657053 10.243949,10.657585 10.175217,10.657585 10.059546,10.657792 10.0596,10.646116 10.060554,10.547837 10.060554,10.528278 10.060095,10.24393 10.060095,10.175862 10.0596,10.059676 10.073244,10.059676 10.243928,10.0604 10.243928,10.060161 10.270987,10.060161 10.546562,10.060592 10.551574,10.060539 10.65779,10.059548" style="fill: white" /><polygon type="contour" points="11.223423,10.059676 11.307153,10.059949 11.328896,10.059949 11.444251,10.059676 11.444261,10.071847 11.444439,10.243812 11.515794,10.243812 11.589135,10.244293 11.613231,10.244245 11.613186,10.266502 11.612607,10.537976 11.44458,10.537976 11.444234,10.657792 11.430371,10.657792 11.311362,10.657853 11.213343,10.657792 11.213343,10.64572 11.213504,10.547876 11.213504,10.527822 11.213192,10.243951 11.213192,10.175218 11.213343,10.059547" style="fill: white" /><polygon type="contour" points="11.444234,11.213345 11.444581,11.322714 11.613323,11.322714 11.613345,11.328984 11.624564,11.624565 11.489706,11.623507 11.36573,11.614096 11.32397,11.613989 11.323095,11.533176 11.323095,11.444584 11.213343,11.444236 11.213343,11.430372 11.213307,11.311364 11.213343,11.213345 11.223856,11.213345 11.307148,11.213313 11.316401,11.213309" style="fill: white" /><polygon type="contour" points="10.537872,11.213505 10.551575,11.213505 10.65779,11.213345 10.65779,11.223859 10.657851,11.316403 10.65779,11.444236 10.537984,11.444582 10.537984,11.612621 10.530393,11.612613 10.244238,11.613204 10.244701,11.536285 10.244165,11.444441 10.071845,11.444262 10.0596,11.444252 10.0596,11.430982 10.05994,11.312667 10.059885,11.302135 10.059546,11.213345 10.073719,11.213345 10.187445,11.213193 10.272236,11.213193" style="fill: white" /><polygon type="contour" points="9.072155,11.213345 9.072027,11.223424 9.071753,11.307156 9.071753,11.328899 9.072027,11.444253 9.059854,11.444263 8.887588,11.444441 8.88789,11.515796 8.887407,11.589137 8.887461,11.613204 8.864556,11.613224 8.593715,11.612621 8.593715,11.444582 8.47391,11.444236 8.47391,11.430373 8.473854,11.322348 8.473849,11.311364 8.47391,11.213345 8.485982,11.213345 8.583824,11.213505 8.603878,11.213505 8.887749,11.213193 8.956482,11.213193" style="fill: white" /><polygon type="contour" points="8.485585,10.059676 8.583862,10.060579 8.603423,10.060579 8.887772,10.060161 8.955839,10.060161 9.072027,10.059676 9.072027,10.073246 9.071302,10.24393 9.071542,10.24393 9.071542,10.270989 9.071111,10.546566 9.071165,10.551576 9.072155,10.657792 9.05798,10.657792 8.88775,10.657482 8.88775,10.657585 8.859464,10.657585 8.593827,10.657053 8.580123,10.657053 8.47391,10.657792 8.47391,10.64572 8.474649,10.547875 8.474649,10.527822 8.474117,10.243951 8.474117,10.175219 8.47391,10.059548" style="fill: white" /><polygon type="contour" points="7.918356,10.073722 7.918507,10.187446 7.918507,10.272238 7.918195,10.537874 7.918195,10.551577 7.918356,10.657792 7.907841,10.657792 7.815299,10.657854 7.687467,10.657792 7.68712,10.537831 7.550783,10.537831 7.527575,10.53799 7.519092,10.537976 7.519076,10.530007 7.518468,10.244245 7.542564,10.244293 7.615905,10.243812 7.687261,10.243812 7.68744,10.071847 7.687449,10.059676 7.700721,10.059676 7.821932,10.059981 7.829565,10.059887 7.918356,10.059548" style="fill: white" /><polygon type="contour" points="7.918356,11.213345 7.918356,11.223859 7.918393,11.316403 7.918356,11.444236 7.808993,11.444583 7.808605,11.533176 7.8078,11.539524 7.807729,11.613989 7.76597,11.614096 7.507137,11.624565 7.50728,11.493677 7.518353,11.328984 7.518375,11.322714 7.687119,11.322714 7.687467,11.213345 7.701329,11.213345 7.809133,11.213313 7.820337,11.213309" style="fill: white" />
</svg>
