<svg width="19.131698" height="19.131699">
<polygon type="contour" points="8.756725,9.305588 8.770092,9.305588 8.769861,9.398548 8.769861,9.727235 8.770092,9.813028 8.770092,9.826116 8.664053,9.826274 8.654152,9.82626 8.55722,9.826116 8.542289,9.826116 8.542333,9.814872 8.542248,9.711102 8.374909,9.711102 8.373617,9.592704 8.373747,9.565501 8.374975,9.434343 8.374909,9.420602 8.542232,9.420602 8.542289,9.305588 8.659214,9.305428" style="fill: white" /><polygon type="contour" points="8.535494,8.373009 8.56012,8.373984 8.572655,8.374146 8.651942,8.373153 8.652795,8.39826 8.652795,8.422341 8.652936,8.423509 8.6538,8.463388 8.654137,8.542039 8.770092,8.54229 8.769975,8.648113 8.769975,8.668474 8.770092,8.756727 8.770092,8.770094 8.67388,8.769976 8.654152,8.769976 8.55722,8.770094 8.542289,8.770094 8.542318,8.758599 8.542053,8.65414 8.375457,8.65414 8.375447,8.647815 8.374879,8.610781 8.371265,8.496382 8.370899,8.48758 8.368518,8.464136 8.368279,8.36828" style="fill: white" /><polygon type="contour" points="9.594652,8.374684 9.711101,8.375628 9.711101,8.390415 9.712251,8.542234 9.826115,8.54229 9.826274,8.659216 9.826115,8.756727 9.826115,8.770094 9.733156,8.769863 9.404465,8.769863 9.318673,8.770094 9.305585,8.770094 9.305426,8.664055 9.305585,8.557221 9.305585,8.54229 9.316828,8.542334 9.4206,8.542251 9.4206,8.375628 9.424256,8.375508 9.566198,8.373781" style="fill: white" /><polygon type="contour" points="9.813026,9.305588 9.826115,9.305588 9.826634,9.398548 9.826634,9.727235 9.826115,9.813028 9.826115,9.826116 9.733155,9.826635 9.404466,9.826635 9.318673,9.826116 9.305585,9.826116 9.305066,9.733156 9.305066,9.404468 9.305585,9.318675 9.305585,9.305588 9.398544,9.305069 9.727234,9.305069" style="fill: white" /><polygon type="contour" points="10.756821,8.61078 10.756252,8.647815 10.756242,8.65414 10.589663,8.65414 10.589412,8.770094 10.483587,8.769976 10.463227,8.769976 10.374971,8.770094 10.361607,8.770094 10.361726,8.673882 10.361726,8.654155 10.361607,8.557221 10.361607,8.54229 10.373101,8.542319 10.477562,8.542055 10.477897,8.463389 10.478764,8.423509 10.478906,8.39826 10.479759,8.373154 10.559044,8.374147 10.596206,8.373009 10.763421,8.36828" style="fill: white" /><polygon type="contour" points="10.57448,9.305588 10.589412,9.305588 10.589368,9.316831 10.589452,9.420602 10.756791,9.420602 10.758083,9.538999 10.757952,9.566202 10.756725,9.69736 10.756791,9.711102 10.589468,9.711102 10.589412,9.826116 10.472485,9.826275 10.374971,9.826116 10.361607,9.826116 10.36184,9.733157 10.36184,9.404467 10.361607,9.318675 10.361607,9.305588 10.467646,9.305429" style="fill: white" /><polygon type="contour" points="10.589383,10.373102 10.589647,10.477564 10.756242,10.477564 10.756252,10.483888 10.756821,10.520923 10.760435,10.635323 10.760798,10.644123 10.763181,10.667567 10.76342,10.763424 10.596206,10.758694 10.57158,10.75772 10.559044,10.757557 10.479759,10.75855 10.478906,10.733443 10.478906,10.709363 10.478764,10.708196 10.477898,10.668314 10.477562,10.589664 10.361607,10.589415 10.361726,10.48359 10.361726,10.463228 10.361607,10.374973 10.361607,10.361609 10.457819,10.361728 10.477546,10.361728 10.57448,10.361609 10.589412,10.361609" style="fill: white" /><polygon type="contour" points="9.826273,10.467648 9.826115,10.574483 9.826115,10.589415 9.814871,10.589371 9.711101,10.589452 9.711101,10.756076 9.707444,10.756196 9.565501,10.757923 9.537047,10.75702 9.4206,10.756076 9.4206,10.589469 9.305584,10.589415 9.305425,10.472487 9.305585,10.374973 9.305585,10.361609 9.398545,10.361841 9.727235,10.361841 9.813025,10.361609 9.826115,10.361609" style="fill: white" /><polygon type="contour" points="8.769975,10.457821 8.769975,10.477548 8.770092,10.574482 8.770092,10.589415 8.758597,10.589386 8.654137,10.589647 8.6538,10.668314 8.652935,10.708196 8.652795,10.733443 8.651942,10.75855 8.572655,10.757557 8.535495,10.758693 8.368279,10.763424 8.374879,10.520923 8.375447,10.483888 8.375457,10.477564 8.542037,10.477564 8.542289,10.361609 8.648112,10.361728 8.668473,10.361728 8.756726,10.361609 8.770092,10.361609" style="fill: white" />
</svg>
