<svg width="19.131698" height="19.131699">
<polygon type="contour" points="10.252076,10.044156 10.252093,10.116286 10.36948,10.116286 10.395193,10.116526 10.418049,10.116476 10.418053,10.127073 10.420326,10.248415 10.42364,10.423642 10.309324,10.422595 10.164004,10.419055 10.143912,10.418165 10.136333,10.418165 10.117382,10.418162 10.117305,10.401418 10.116727,10.37588 10.116286,10.352084 10.116286,10.252093 10.044154,10.252078 10.044154,10.240846 10.044097,10.19536 10.044097,10.081232 10.044154,10.044156 10.051469,10.044156 10.08123,10.044099 10.195359,10.044099" style="fill: white" /><polygon type="contour" points="10.420326,8.883289 10.418053,9.004631 10.418049,9.015229 10.36948,9.015419 10.252093,9.015419 10.252076,9.087548 10.240844,9.087548 10.195358,9.087605 10.08123,9.087605 10.044154,9.087548 10.044154,9.080232 10.044097,9.050471 10.044097,8.936342 10.044154,8.879626 10.116286,8.87961 10.116286,8.779621 10.116728,8.755822 10.117305,8.730285 10.117382,8.729205 10.117382,8.713542 10.136333,8.713539 10.143912,8.713539 10.164004,8.712649 10.309324,8.709109 10.42364,8.708062" style="fill: white" /><polygon type="contour" points="10.252076,9.347722 10.252093,9.420602 10.418595,9.420602 10.4187,9.444285 10.420398,9.566202 10.419872,9.652408 10.418595,9.711102 10.252093,9.711102 10.252076,9.783982 10.240844,9.783982 10.195358,9.783989 10.08123,9.783989 10.044154,9.783982 10.044154,9.776608 10.044389,9.746563 10.044389,9.385141 10.044154,9.347722 10.051468,9.347722 10.081231,9.347715 10.195358,9.347715" style="fill: white" /><polygon type="contour" points="9.783979,9.347722 9.783979,9.355095 9.783987,9.38514 9.783987,9.746562 9.783979,9.783982 9.776606,9.783982 9.74656,9.783989 9.38514,9.783989 9.347721,9.783982 9.347721,9.776608 9.347713,9.746562 9.347713,9.385141 9.347721,9.347722 9.355093,9.347722 9.38514,9.347715 9.74656,9.347715" style="fill: white" /><polygon type="contour" points="9.637993,8.711664 9.688032,8.712978 9.711101,8.713661 9.711101,8.87961 9.783979,8.879626 9.783979,8.890857 9.783987,8.936343 9.783987,9.05047 9.783979,9.087548 9.776605,9.087548 9.746561,9.087313 9.38514,9.087313 9.347721,9.087548 9.347721,9.080233 9.347713,9.05047 9.347713,8.936342 9.34772,8.879626 9.4206,8.87961 9.4206,8.713661 9.44378,8.712977 9.565871,8.711199" style="fill: white" /><polygon type="contour" points="8.822375,8.709109 8.967696,8.712648 8.987787,8.713539 8.995367,8.713539 9.014318,8.713541 9.014395,8.730285 9.014972,8.755822 9.015415,8.779621 9.015415,8.87961 9.087547,8.879626 9.087547,8.890857 9.087604,8.936343 9.087604,9.050471 9.087547,9.087548 9.080231,9.087548 9.05047,9.087605 8.93634,9.087605 8.879624,9.087548 8.879606,9.015419 8.762219,9.015419 8.736505,9.015179 8.713649,9.015229 8.713644,9.004631 8.711373,8.883289 8.70806,8.708062" style="fill: white" /><polygon type="contour" points="9.087547,9.347722 9.087547,9.355094 9.087311,9.385141 9.087311,9.746562 9.087547,9.783982 9.080232,9.783982 9.050469,9.783989 8.936341,9.783989 8.879624,9.783982 8.879606,9.711102 8.713105,9.711102 8.713,9.687531 8.711302,9.566201 8.711828,9.479579 8.713105,9.420602 8.879606,9.420602 8.879624,9.347722 8.890855,9.347722 8.936341,9.347715 9.05047,9.347715" style="fill: white" /><polygon type="contour" points="9.385139,10.044391 9.74656,10.044391 9.783979,10.044156 9.783979,10.05147 9.783987,10.081233 9.783987,10.195361 9.783979,10.252078 9.711101,10.252093 9.711101,10.418042 9.687921,10.418726 9.565501,10.420504 9.493705,10.420038 9.443669,10.418726 9.4206,10.418042 9.4206,10.252093 9.347721,10.252078 9.347721,10.240846 9.347713,10.19536 9.347713,10.081233 9.347721,10.044156 9.355094,10.044156" style="fill: white" /><polygon type="contour" points="9.087547,10.044156 9.087547,10.051471 9.087604,10.081232 9.087604,10.195361 9.087547,10.252078 9.015415,10.252093 9.015415,10.352084 9.014973,10.37588 9.014396,10.401418 9.014319,10.402498 9.014319,10.418162 8.995367,10.418165 8.987787,10.418165 8.967696,10.419055 8.822375,10.422595 8.70806,10.423642 8.711374,10.248414 8.713644,10.127073 8.713649,10.116476 8.76222,10.116286 8.879606,10.116286 8.879624,10.044156 8.890855,10.044156 8.936341,10.044099 9.05047,10.044099" style="fill: white" />
</svg>
