<svg width="19.131698" height="19.131699">
<polygon type="contour" points="11.179454,12.691986 11.179454,12.774995 11.179602,12.839003 11.179714,12.927013 10.926486,12.924183 10.886525,12.924779 10.888258,12.71393 10.889036,12.677375 10.889226,12.636918 11.162206,12.636261 11.179726,12.636261" style="fill: white" /><polygon type="contour" points="12.092104,12.634088 12.092104,12.641052 12.092263,12.74995 11.964492,12.749606 11.90354,12.749594 11.82488,12.74958 11.767874,12.749797 11.7573,12.74978 11.757256,12.743179 11.753809,12.634088 11.766079,12.634088 11.825235,12.634038 12.00135,12.634038" style="fill: white" /><polygon type="contour" points="12.925407,12.66074 12.936839,12.93684 12.860539,12.93392 12.636589,12.927217 12.636589,12.845979 12.636917,12.654564 12.636896,12.636897 12.699559,12.63627 12.924413,12.6343" style="fill: white" /><polygon type="contour" points="12.92484,10.886745 12.924238,10.927443 12.927012,11.179715 12.677108,11.179753 12.643001,11.179744 12.63626,11.179727 12.636917,10.906747 12.636917,10.889229 12.677374,10.889038 12.71278,10.888341 12.865452,10.886431" style="fill: white" /><polygon type="contour" points="12.640385,11.757301 12.749778,11.757301 12.749795,11.767875 12.749578,11.824881 12.749592,11.903542 12.749603,11.964493 12.750016,12.067574 12.749949,12.092264 12.641051,12.092105 12.634087,12.092105 12.634087,12.07631 12.634037,12.001351 12.634076,11.824882 12.634139,11.757257" style="fill: white" /><polygon type="contour" points="12.091596,11.768849 12.091808,11.824881 12.092294,11.964493 12.092263,12.092264 12.06539,12.092264 11.964493,12.092295 11.824881,12.091811 11.757256,12.091599 11.757278,12.004567 11.757278,11.824881 11.7573,11.757301 11.768259,11.757301 11.82488,11.757279 12.004564,11.757279 12.091596,11.757257" style="fill: white" /><polygon type="contour" points="11.179847,11.76826 11.179781,11.824881 11.179576,11.903542 11.179782,11.964493 11.179871,12.092264 10.885595,12.092264 10.885643,12.067575 10.885418,11.964493 10.885576,11.903542 10.885308,11.824881 10.885389,11.767875 10.885368,11.757301 11.179847,11.757301" style="fill: white" /><polygon type="contour" points="11.179602,10.888759 11.179602,11.179604 10.888757,11.179604 10.887623,11.002827 10.888641,10.982337 10.891649,10.891651 10.952657,10.892614 10.982334,10.888644 11.002825,10.887625" style="fill: white" /><polygon type="contour" points="11.903541,10.885578 11.964492,10.88542 12.067574,10.885645 12.092263,10.885597 12.092263,11.179873 12.066675,11.179904 11.964492,11.179784 11.903541,11.179578 11.82488,11.179783 11.7573,11.179849 11.7573,10.885369 11.767873,10.88539 11.824881,10.885311" style="fill: white" /><polygon type="contour" points="12.092263,8.246106 12.067574,8.246059 11.964492,8.246284 11.903541,8.246126 11.82488,8.246393 11.767874,8.246312 11.7573,8.246333 11.7573,7.951855 11.768259,7.951855 11.824881,7.951921 11.90354,7.952127 11.964493,7.951919 12.092263,7.95183" style="fill: white" /><polygon type="contour" points="12.927012,7.951989 12.924362,8.205335 12.924941,8.245063 12.714382,8.243408 12.677375,8.242665 12.636917,8.242475 12.63626,7.969493 12.63626,7.951975 12.677107,7.951949" style="fill: white" /><polygon type="contour" points="12.933579,6.27714 12.924413,6.497403 12.895154,6.497373 12.699558,6.49543 12.636896,6.494804 12.636917,6.477136 12.636917,6.204815 12.6798,6.203501 12.936839,6.194864" style="fill: white" /><polygon type="contour" points="12.750016,7.064129 12.749603,7.167208 12.749592,7.22816 12.749578,7.306822 12.749795,7.363828 12.749778,7.374403 12.743179,7.374447 12.634087,7.377892 12.634087,7.365621 12.634037,7.306465 12.634037,7.13035 12.634087,7.039596 12.64105,7.039596 12.749949,7.03944" style="fill: white" /><polygon type="contour" points="12.092263,7.03944 12.092263,7.066312 12.092294,7.167208 12.091807,7.306822 12.091596,7.374447 12.004564,7.374425 11.824881,7.374425 11.7573,7.374402 11.7573,7.363444 11.757278,7.306822 11.757278,7.127137 11.757256,7.040105 11.824881,7.039892 11.964492,7.039408" style="fill: white" /><polygon type="contour" points="12.092263,6.381754 12.092104,6.490651 12.092104,6.497616 12.076309,6.497616 12.00135,6.497665 11.825235,6.497665 11.753809,6.497616 11.753844,6.491003 11.7573,6.381923 11.767873,6.381907 11.824881,6.382124 11.90354,6.382109 11.964493,6.382097 12.067573,6.381686" style="fill: white" /><polygon type="contour" points="11.179714,6.250784 11.179752,6.454594 11.179743,6.4887 11.179726,6.495442 10.906745,6.494783 10.889226,6.494783 10.889036,6.454325 10.888155,6.418919 10.885873,6.266248 10.886187,6.206861 10.926843,6.207461 11.179714,6.204689" style="fill: white" /><polygon type="contour" points="11.179902,7.065027 11.179782,7.167208 11.179575,7.228161 11.179781,7.306821 11.179847,7.374403 10.885368,7.374403 10.885389,7.363828 10.885308,7.306822 10.885576,7.228161 10.885418,7.167209 10.885643,7.064128 10.885595,7.03944 11.179871,7.03944" style="fill: white" /><polygon type="contour" points="11.179602,7.952099 11.179602,8.242945 11.002825,8.244078 10.982335,8.24306 10.891649,8.240053 10.892612,8.179046 10.888642,8.149367 10.887623,8.128875 10.888981,7.9518 11.004307,7.9518" style="fill: white" /><polygon type="contour" points="8.238258,8.007124 8.240051,8.240053 8.179042,8.23909 8.149366,8.243059 8.128873,8.244079 7.951798,8.24272 7.951798,8.127396 7.952098,7.9521 8.127394,7.9518 8.242719,7.9518" style="fill: white" /><polygon type="contour" points="8.205214,6.20752 8.245176,6.206925 8.243442,6.41777 8.242664,6.454325 8.242474,6.494782 7.969491,6.495442 7.951973,6.495442 7.952246,6.439717 7.952246,6.356708 7.952098,6.2927 7.951986,6.204689" style="fill: white" /><polygon type="contour" points="8.246057,7.064128 8.246282,7.167209 8.246124,7.228161 8.246391,7.306822 8.24631,7.363828 8.246331,7.374403 8.230968,7.374403 7.951853,7.374404 7.951853,7.363444 7.951919,7.306823 7.952124,7.22816 7.951918,7.167208 7.951829,7.03944 8.246105,7.03944" style="fill: white" /><polygon type="contour" points="6.490649,7.039596 6.497613,7.039596 6.497613,7.05539 6.497663,7.130349 6.497623,7.306821 6.497561,7.374447 6.491315,7.374403 6.381921,7.374404 6.381905,7.36383 6.382123,7.306823 6.382107,7.22816 6.382096,7.167208 6.381684,7.064129 6.381751,7.03944" style="fill: white" /><polygon type="contour" points="6.271044,6.197727 6.495012,6.204387 6.495049,6.410186 6.494802,6.494804 6.432139,6.495431 6.207288,6.497403 6.206291,6.470962 6.194861,6.194864" style="fill: white" /><polygon type="contour" points="7.167207,6.382098 7.228159,6.382109 7.30682,6.382124 7.363825,6.381907 7.3744,6.381923 7.374444,6.388524 7.37789,6.497616 7.365618,6.497616 7.306464,6.497665 7.130348,6.497665 7.039594,6.497616 7.039594,6.490651 7.039437,6.381754" style="fill: white" /><polygon type="contour" points="7.30682,7.039893 7.374444,7.040105 7.374422,7.127137 7.374422,7.306821 7.374399,7.374403 7.363441,7.374403 7.30682,7.374425 7.127135,7.374425 7.040104,7.374447 7.040104,7.362854 7.039892,7.306822 7.039406,7.167208 7.039437,7.03944 7.066309,7.03944 7.167206,7.039408" style="fill: white" /><polygon type="contour" points="7.167206,7.95192 7.228158,7.952127 7.30682,7.95192 7.3744,7.951855 7.3744,8.246333 7.363825,8.246312 7.306819,8.246393 7.228159,8.246126 7.167207,8.246284 7.064126,8.246059 7.039437,8.246106 7.039437,7.951831 7.065024,7.9518" style="fill: white" /><polygon type="contour" points="6.488699,7.951957 6.49544,7.951975 6.494781,8.224956 6.494781,8.242475 6.454323,8.242665 6.418917,8.243362 6.266246,8.245273 6.206859,8.244959 6.207459,8.20426 6.204687,7.951989 6.454591,7.951949" style="fill: white" /><polygon type="contour" points="6.417315,10.888295 6.454322,10.889037 6.494781,10.889228 6.49544,11.162206 6.49544,11.179727 6.454591,11.179753 6.204687,11.179715 6.207337,10.926368 6.206758,10.88664" style="fill: white" /><polygon type="contour" points="7.363825,10.88539 7.3744,10.885369 7.3744,11.179849 7.363441,11.179849 7.306819,11.179783 7.228159,11.179577 7.167206,11.179784 7.039437,11.179873 7.039437,10.885597 7.064126,10.885645 7.167207,10.88542 7.228159,10.885578 7.306819,10.885311" style="fill: white" /><polygon type="contour" points="8.007122,10.893442 8.240051,10.891651 8.244076,11.002827 8.242944,11.179604 7.952098,11.179604 7.951798,11.004307 7.951798,10.888982" style="fill: white" /><polygon type="contour" points="8.24631,11.767875 8.246391,11.824881 8.246124,11.903542 8.246282,11.964493 8.246057,12.067575 8.246105,12.092264 7.951829,12.092264 7.951798,12.066676 7.951918,11.964493 7.952124,11.903542 7.951918,11.824881 7.951852,11.757301 8.246331,11.757301" style="fill: white" /><polygon type="contour" points="8.224954,12.636918 8.242474,12.636918 8.242664,12.677376 8.243544,12.712781 8.245827,12.865457 8.245513,12.924844 8.204857,12.924243 7.951986,12.927013 7.951986,12.880918 7.951946,12.677108 7.951955,12.643003 7.951973,12.636261" style="fill: white" /><polygon type="contour" points="7.306819,12.634078 7.374444,12.634142 7.3744,12.640388 7.3744,12.74978 7.363826,12.749797 7.306819,12.74958 7.228159,12.749594 7.167207,12.749606 7.064126,12.750017 7.039437,12.74995 7.039594,12.641052 7.039594,12.634088 7.055388,12.634088 7.130348,12.634037" style="fill: white" /><polygon type="contour" points="7.127135,11.757279 7.306819,11.757279 7.3744,11.757301 7.3744,11.76826 7.374422,11.824881 7.374422,12.004567 7.374444,12.091599 7.30682,12.09181 7.167206,12.092295 7.039437,12.092264 7.039437,12.065391 7.039406,11.964493 7.039891,11.824882 7.040104,11.757257" style="fill: white" /><polygon type="contour" points="6.497561,11.76885 6.497622,11.824881 6.497663,12.001351 6.497613,12.092105 6.490648,12.092105 6.381751,12.092264 6.381684,12.067574 6.382096,11.964493 6.382108,11.903541 6.382123,11.824881 6.381905,11.767874 6.381921,11.757301 6.388522,11.757257 6.497561,11.757257" style="fill: white" /><polygon type="contour" points="6.236545,12.634331 6.43214,12.636271 6.494802,12.636897 6.494781,12.654564 6.494781,12.926889 6.451898,12.928201 6.194861,12.93684 6.19812,12.854563 6.207288,12.634301" style="fill: white" />
</svg>
