<svg width="19.131698" height="19.131699">
<polygon type="contour" points="10.450922,8.8807 10.450576,8.918269 10.450382,8.985597 10.336466,8.985597 10.194711,8.985655 10.146049,8.985655 10.14597,8.885358 10.14597,8.793019 10.146182,8.733352 10.146211,8.728527 10.147776,8.680572 10.202722,8.679234 10.454775,8.676927" style="fill: white" /><polygon type="contour" points="9.622429,8.681423 9.711101,8.681335 9.711101,8.986107 9.4206,8.986107 9.4206,8.681335 9.509696,8.681423 9.51997,8.681199 9.566002,8.67999" style="fill: white" /><polygon type="contour" points="8.928979,8.679234 8.983925,8.680571 8.985519,8.733351 8.985519,8.784982 8.985731,8.793019 8.985652,8.936992 8.985652,8.985655 8.878197,8.985655 8.681316,8.985597 8.681122,8.918269 8.680778,8.8807 8.676924,8.676927" style="fill: white" /><polygon type="contour" points="9.179248,8.848145 9.202562,8.848237 9.226146,8.848145 9.30641,8.848151 9.30826,8.937443 9.30826,8.986107 9.226146,8.986045 9.179249,8.986045 9.099683,8.986028 9.099683,8.848128" style="fill: white" /><polygon type="contour" points="9.306485,9.099685 9.306568,9.206977 9.30641,9.275033 9.30641,9.306412 9.204791,9.306585 9.130002,9.306412 9.098868,9.306412 9.099683,9.247368 9.099378,9.216276 9.099378,9.216248 9.099683,9.130622 9.099683,9.099684 9.179248,9.099477 9.226147,9.099477" style="fill: white" /><polygon type="contour" points="8.986043,9.179252 8.986043,9.22615 8.986049,9.306412 8.848149,9.306412 8.848145,9.226149 8.848237,9.202565 8.848145,9.179251 8.848126,9.099685 8.986026,9.099685" style="fill: white" /><polygon type="contour" points="8.986105,9.711102 8.678907,9.711102 8.679178,9.654983 8.679937,9.566201 8.679731,9.5233 8.678907,9.420602 8.986105,9.420602" style="fill: white" /><polygon type="contour" points="8.986043,9.905553 8.986043,9.952452 8.986026,10.03202 8.848126,10.03202 8.848145,9.952453 8.848237,9.929137 8.848145,9.905554 8.848149,9.825293 8.986049,9.825293" style="fill: white" /><polygon type="contour" points="9.216244,9.825155 9.216245,9.825155 9.275031,9.825293 9.30641,9.825293 9.306547,9.905553 9.306547,9.952453 9.30641,10.032833 9.247365,10.03202 9.216273,10.032323 9.189073,10.032227 9.13062,10.03202 9.099683,10.03202 9.099475,9.952453 9.099475,9.905554 9.099683,9.825217 9.207024,9.825133" style="fill: white" /><polygon type="contour" points="9.30641,9.711102 9.099683,9.711102 9.099683,9.420602 9.30641,9.420602" style="fill: white" /><polygon type="contour" points="9.711101,9.711102 9.4206,9.711102 9.4206,9.420602 9.711101,9.420602" style="fill: white" /><polygon type="contour" points="9.711101,9.306412 9.4206,9.306412 9.4206,9.099685 9.711101,9.099685" style="fill: white" /><polygon type="contour" points="9.884333,9.099685 9.915428,9.09938 9.942627,9.099477 10.001078,9.099685 10.032018,9.099685 10.032225,9.179251 10.032225,9.226149 10.032831,9.306412 9.931083,9.306585 9.856667,9.306412 9.825291,9.306412 9.825154,9.226149 9.825154,9.179252 9.825291,9.09887" style="fill: white" /><polygon type="contour" points="10.032018,8.986028 9.952452,8.986045 9.905553,8.986045 9.825291,8.986051 9.825291,8.848151 9.905554,8.848145 9.929138,8.848237 9.952452,8.848145 10.032018,8.848128" style="fill: white" /><polygon type="contour" points="10.283556,9.179251 10.283463,9.202565 10.283556,9.226149 10.283551,9.306412 10.145652,9.306412 10.145655,9.226149 10.145655,9.179252 10.145675,9.099685 10.283574,9.099685" style="fill: white" /><polygon type="contour" points="10.452522,9.47672 10.451763,9.565996 10.451968,9.608896 10.452793,9.711102 10.145596,9.711102 10.145596,9.420602 10.452793,9.420602" style="fill: white" /><polygon type="contour" points="10.450382,10.146107 10.450576,10.213435 10.450922,10.251003 10.454775,10.454777 10.202721,10.452469 10.147776,10.451132 10.146182,10.398352 10.146182,10.346721 10.14597,10.338684 10.146049,10.194712 10.146049,10.14605 10.253502,10.14605" style="fill: white" /><polygon type="contour" points="10.283556,9.905553 10.283463,9.929137 10.283556,9.952453 10.283574,10.03202 10.145675,10.03202 10.145655,9.952452 10.145655,9.905554 10.145652,9.825293 10.283551,9.825293" style="fill: white" /><polygon type="contour" points="10.032018,9.711102 9.825291,9.711102 9.825291,9.420602 10.032018,9.420602" style="fill: white" /><polygon type="contour" points="9.942626,9.825155 9.942627,9.825155 10.001695,9.825293 10.032831,9.825293 10.032018,9.884336 10.032321,9.915427 10.032225,9.942627 10.032018,10.00108 10.032018,10.03202 9.952451,10.032227 9.905553,10.032227 9.825291,10.032833 9.825117,9.931083 9.825154,9.915455 9.825154,9.915454 9.825291,9.856669 9.825291,9.825293 9.92691,9.825118" style="fill: white" /><polygon type="contour" points="9.711101,10.03202 9.4206,10.03202 9.4206,9.825293 9.711101,9.825293" style="fill: white" /><polygon type="contour" points="9.905554,10.145657 9.952452,10.145657 10.032018,10.145677 10.032018,10.283576 9.952452,10.283559 9.929138,10.283466 9.905554,10.283559 9.825291,10.283553 9.823441,10.19426 9.823441,10.145597" style="fill: white" /><polygon type="contour" points="9.711101,10.450368 9.622003,10.45028 9.611729,10.450503 9.565501,10.451713 9.509269,10.450281 9.4206,10.450368 9.4206,10.145597 9.711101,10.145597" style="fill: white" /><polygon type="contour" points="9.30641,10.283553 9.226146,10.283559 9.202562,10.283466 9.179248,10.283559 9.099683,10.283576 9.099683,10.145677 9.179248,10.145657 9.226146,10.145657 9.30641,10.145654" style="fill: white" /><polygon type="contour" points="8.985731,10.246346 8.985731,10.338684 8.985519,10.398352 8.985489,10.403177 8.983925,10.451132 8.928979,10.452469 8.676925,10.454777 8.680778,10.251003 8.681122,10.213435 8.681316,10.146108 8.795233,10.146108 8.936988,10.14605 8.985652,10.14605" style="fill: white" />
</svg>
