<svg width="19.131698" height="19.131699">
<polygon type="contour" points="11.399349,7.771847 11.399121,7.778003 11.398766,8.013672 11.230329,8.013672 11.230381,8.137474 11.230671,8.209667 11.153268,8.209826 11.028051,8.209826 10.961895,8.209667 10.922036,8.209667 10.921877,8.137473 10.921877,8.014049 10.922036,7.943001 10.922036,7.901031 10.956055,7.901021 11.11812,7.901727 11.118267,7.746633 11.118267,7.741018 11.118272,7.735944 11.118267,7.7327 11.129506,7.732681 11.353698,7.732581 11.400762,7.730941" style="fill: white" /><polygon type="contour" points="9.942688,10.994229 9.941881,11.117627 9.942467,11.117627 9.942528,11.199303 9.942528,11.23053 9.906273,11.230603 9.830874,11.230641 9.830591,11.152413 9.830591,11.028083 9.830874,10.961091 9.830986,10.922037 9.905541,10.922005 9.942753,10.922005" style="fill: white" /><polygon type="contour" points="10.501992,10.922037 10.537892,10.922037 10.538221,10.99423 10.538221,11.117654 10.537892,11.1887 10.537892,11.230673 10.506721,11.230543 10.346253,11.229967 10.346253,11.319028 10.346261,11.358177 10.346261,11.398841 10.286613,11.399266 10.054267,11.400697 10.053281,11.335433 10.053281,11.271191 10.053392,11.26538 10.05333,11.199687 10.052583,11.028062 10.052565,11.028062 10.052904,10.951664 10.05299,10.922005 10.247716,10.921827 10.44288,10.921827" style="fill: white" /><polygon type="contour" points="11.188699,10.922037 11.230671,10.922037 11.230681,10.956056 11.229974,11.118127 11.322888,11.118127 11.398765,11.118032 11.399121,11.3537 11.399349,11.359857 11.400077,11.372386 11.400762,11.400764 11.353697,11.399123 11.129507,11.399024 11.118267,11.399004 11.118272,11.395759 11.118267,11.390684 11.118146,11.230331 10.994227,11.230383 10.922036,11.230673 10.921877,11.15327 10.921877,11.028055 10.922036,10.961896 10.922036,10.922037 10.994227,10.921878 11.117651,10.921878 11.117651,10.921877" style="fill: white" /><polygon type="contour" points="11.199265,10.05319 11.399087,10.05319 11.398998,10.138507 11.398803,10.346453 11.280101,10.346453 11.229916,10.346321 11.230442,10.474821 11.23067,10.537894 11.153268,10.538222 11.028052,10.538222 10.961895,10.537894 10.922036,10.537894 10.921826,10.474822 10.921826,10.345888 10.922004,10.150206 10.922004,10.052993 10.994227,10.052673 11.043086,10.052521" style="fill: white" /><polygon type="contour" points="11.117607,9.831127 11.117607,9.83081 11.189545,9.831134 11.23064,9.831134 11.230602,9.906503 11.230529,9.94253 11.199302,9.94253 11.02806,9.942402 11.028059,9.943713 10.951663,9.943826 10.922004,9.942755 10.922036,9.873222 10.922036,9.830988 10.994228,9.83069" style="fill: white" /><polygon type="contour" points="10.537777,10.052993 10.538081,10.247718 10.538081,10.442881 10.537892,10.501994 10.537892,10.537893 10.47482,10.538083 10.345886,10.538083 10.150204,10.537778 10.05299,10.537778 10.052813,10.510567 10.052813,10.442047 10.053328,10.442049 10.053328,10.138305 10.05325,10.053251 10.137818,10.053248 10.441955,10.053248 10.441954,10.05299 10.510435,10.05299" style="fill: white" /><polygon type="contour" points="10.249839,9.831026 10.442947,9.831026 10.502817,9.831134 10.537892,9.830988 10.537777,9.905544 10.537777,9.942755 10.473737,9.942755 10.34611,9.941699 10.346107,9.94253 10.053006,9.94253 10.053006,9.862151 10.052922,9.83088" style="fill: white" /><polygon type="contour" points="9.942652,9.906503 9.942528,9.94253 9.906274,9.942654 9.830652,9.942654 9.830874,9.872226 9.830874,9.831134 9.906273,9.830881 9.942652,9.830881" style="fill: white" /><polygon type="contour" points="9.942528,10.053008 9.942528,10.34611 9.942491,10.346109 9.942491,10.510566 9.942753,10.537778 9.87322,10.537894 9.830986,10.537894 9.830895,10.474822 9.830795,10.442949 9.830865,10.442949 9.830652,10.148186 9.830652,10.052924 9.906273,10.052924" style="fill: white" /><polygon type="contour" points="8.688656,10.05333 8.993397,10.05333 9.078512,10.05319 9.078512,10.263629 9.078214,10.443047 9.078888,10.443047 9.078888,10.510567 9.078942,10.537778 8.884217,10.538083 8.68882,10.538083 8.629707,10.537894 8.593807,10.537894 8.593619,10.474822 8.593619,10.345888 8.593923,10.150207 8.593923,10.052993 8.657028,10.052993 8.688656,10.052815" style="fill: white" /><polygon type="contour" points="8.180036,10.052907 8.209696,10.052993 8.209872,10.247719 8.209872,10.442881 8.209664,10.501994 8.209664,10.537894 8.137471,10.538222 8.014048,10.538222 7.943001,10.537894 7.901029,10.537894 7.901159,10.506723 7.901731,10.346453 7.732897,10.346453 7.732702,10.138508 7.732612,10.05319 7.852578,10.05319 7.932011,10.053333 8.103641,10.052586 8.103641,10.052568" style="fill: white" /><polygon type="contour" points="8.170609,9.831134 8.209664,9.830988 8.209696,9.905543 8.209696,9.942755 8.137472,9.94269 8.014075,9.941883 8.014075,9.942469 7.932396,9.94253 7.901169,9.94253 7.901097,9.906503 7.901061,9.831133 7.979288,9.83081 8.103618,9.83081" style="fill: white" /><polygon type="contour" points="7.778002,7.732581 8.002193,7.732681 8.013434,7.7327 8.013428,7.735943 8.013434,7.741019 8.013553,7.901369 8.137472,7.901321 8.209664,7.901031 8.209824,7.978433 8.209824,8.10365 8.209664,8.169807 8.209664,8.209667 8.137472,8.209826 8.014048,8.209826 7.943,8.209667 7.901029,8.209667 7.901019,8.175647 7.901725,8.013578 7.808812,8.013578 7.732934,8.013672 7.732579,7.778003 7.732352,7.771847 7.731622,7.759316 7.730939,7.730941" style="fill: white" /><polygon type="contour" points="9.078418,7.796271 9.078418,7.860511 9.078309,7.866322 9.078369,7.932013 9.079113,8.103642 9.079134,8.103642 9.078796,8.18004 9.078942,8.209698 8.884217,8.209875 8.688819,8.209875 8.629707,8.209667 8.593808,8.209667 8.593479,8.137473 8.593479,8.014049 8.593478,8.014049 8.593808,7.943001 8.593808,7.901031 8.624979,7.901161 8.785448,7.901734 8.785448,7.812675 8.78544,7.773526 8.78544,7.732863 8.845087,7.732437 9.077434,7.731007" style="fill: white" /><polygon type="contour" points="9.300892,7.97929 9.300892,8.103621 9.300567,8.170611 9.300713,8.209667 9.226159,8.209699 9.188948,8.209699 9.189013,8.137474 9.189815,8.014147 9.188984,8.014148 9.188913,7.932608 9.189172,7.901171 9.225199,7.901099 9.300567,7.901063" style="fill: white" /><polygon type="contour" points="9.906274,7.901099 9.942528,7.901171 9.942528,7.932398 9.9424,8.103641 9.94371,8.103641 9.943823,8.18004 9.942752,8.209699 9.87322,8.209667 9.830986,8.209667 9.830688,8.137474 9.830442,8.051822 9.830874,7.942156 9.830874,7.901063" style="fill: white" /><polygon type="contour" points="10.286613,7.732437 10.346261,7.732863 10.346261,7.757099 10.346253,7.812675 10.346405,7.901781 10.47482,7.901259 10.537892,7.901031 10.538221,7.978432 10.538221,8.10365 10.537892,8.169807 10.537892,8.209667 10.47482,8.209875 10.345885,8.209875 10.150204,8.209699 10.05299,8.209699 10.052904,8.180039 10.052565,8.103642 10.052584,8.103642 10.05333,7.932014 10.053392,7.866321 10.05328,7.796271 10.054267,7.731007" style="fill: white" /><polygon type="contour" points="10.501992,8.59381 10.537892,8.59381 10.538081,8.656881 10.538081,8.785817 10.537777,8.981497 10.537777,9.078945 10.474672,9.078945 10.396405,9.078375 10.138303,9.078375 10.053188,9.078514 10.053188,8.869073 10.05319,8.689658 10.052813,8.689658 10.052813,8.621136 10.05299,8.593926 10.247716,8.593621 10.44288,8.593621" style="fill: white" /><polygon type="contour" points="11.1887,8.59381 11.230671,8.59381 11.230542,8.624979 11.229964,8.785252 11.398803,8.785252 11.398998,8.993196 11.399087,9.078514 11.199264,9.078514 11.040491,9.079189 10.951663,9.078798 10.922003,9.078945 10.921826,8.88422 10.921826,8.688822 10.922036,8.629709 10.922036,8.59381 10.994228,8.593482 11.117652,8.593482" style="fill: white" /><polygon type="contour" points="11.02806,9.189062 11.199091,9.188916 11.230529,9.189174 11.230602,9.225429 11.23064,9.300827 11.152411,9.301112 11.02808,9.301112 10.96109,9.300826 10.922036,9.300715 10.922004,9.22616 10.922004,9.18895 10.994227,9.189015 11.02806,9.18799" style="fill: white" /><polygon type="contour" points="10.537892,9.25848 10.537892,9.300715 10.47482,9.300806 10.442948,9.300906 10.442948,9.300836 10.148184,9.30105 10.052922,9.30105 10.052922,9.225429 10.053006,9.189174 10.2645,9.189174 10.347187,9.189147 10.347187,9.189212 10.510564,9.189212 10.537777,9.18895" style="fill: white" /><polygon type="contour" points="9.942528,9.189174 9.942528,9.269551 9.942652,9.30105 9.872225,9.300827 9.830874,9.300827 9.830652,9.225429 9.830652,9.189051 9.906274,9.189051" style="fill: white" /><polygon type="contour" points="9.905541,8.593926 9.942753,8.593926 9.942753,8.657965 9.941697,8.785592 9.942528,8.785595 9.942528,9.078697 9.86215,9.078697 9.830651,9.078781 9.830795,8.881863 9.830795,8.688754 9.830874,8.628885 9.830986,8.59381" style="fill: white" /><polygon type="contour" points="9.300805,8.656881 9.300283,8.785655 9.300676,8.785654 9.300821,8.983517 9.300821,9.078781 9.2252,9.078781 9.189173,9.078696 9.189173,8.785595 9.18921,8.785595 9.18921,8.621137 9.188948,8.593925 9.258477,8.59381 9.300713,8.59381" style="fill: white" /><polygon type="contour" points="8.981496,8.593926 9.078942,8.593926 9.078888,8.621136 9.078888,8.689657 9.078373,8.689655 9.078373,8.9934 9.07845,9.078452 8.993882,9.078457 8.689656,9.078457 8.689656,9.07889 8.621135,9.07889 8.593923,9.078945 8.593619,8.88422 8.593619,8.688822 8.593808,8.629709 8.593808,8.593809 8.656879,8.593621 8.785814,8.593621" style="fill: white" /><polygon type="contour" points="8.169804,8.59381 8.209664,8.59381 8.209872,8.656882 8.209872,8.785817 8.209696,8.981498 8.209696,9.078945 8.137472,9.079253 8.013719,9.078821 8.013719,9.078859 7.932435,9.078514 7.732612,9.078514 7.732702,8.993196 7.732897,8.785252 7.851598,8.785252 7.901779,8.785378 7.901257,8.656882 7.901029,8.59381 7.978431,8.593482 8.103648,8.593482" style="fill: white" /><polygon type="contour" points="8.209696,9.18895 8.209664,9.25848 8.209664,9.300715 8.137472,9.301014 8.051891,9.301261 7.942154,9.300827 7.901061,9.300827 7.901097,9.225429 7.901169,9.189174 7.932606,9.188916 8.10364,9.189062 8.10364,9.18799 8.180036,9.187879" style="fill: white" /><polygon type="contour" points="8.78559,9.190005 8.785592,9.189174 9.078695,9.189174 9.078695,9.269551 9.078779,9.30105 8.881861,9.300907 8.688752,9.300907 8.628883,9.300827 8.593808,9.300714 8.593923,9.22616 8.593923,9.18895 8.657963,9.18895" style="fill: white" /><polygon type="contour" points="9.300567,9.259475 9.300567,9.300827 9.225199,9.30105 9.189049,9.30105 9.189049,9.225428 9.189173,9.189174 9.225199,9.189051 9.300821,9.189051" style="fill: white" /><polygon type="contour" points="9.259473,9.831134 9.300567,9.831134 9.300821,9.906502 9.300821,9.942654 9.225199,9.942654 9.189173,9.94253 9.189173,9.862151 9.189049,9.830881" style="fill: white" /><polygon type="contour" points="9.078779,9.906502 9.078694,9.94253 8.993504,9.942557 8.784512,9.942557 8.784513,9.942493 8.621135,9.942493 8.593923,9.942755 8.593808,9.873223 8.593808,9.830988 8.656879,9.830897 8.785652,9.831418 8.785651,9.831026 8.983515,9.830881 9.078779,9.830881" style="fill: white" /><polygon type="contour" points="9.300676,10.249841 9.300676,10.442949 9.300567,10.502819 9.300713,10.537894 9.226158,10.537778 9.188948,10.537778 9.188948,10.474674 9.190004,10.34719 9.189146,10.347191 9.189146,10.138198 9.189172,10.053008 9.26955,10.053008 9.300821,10.052924" style="fill: white" /><polygon type="contour" points="9.258478,10.922037 9.300713,10.922037 9.301012,10.99423 9.300574,11.11761 9.300892,11.11761 9.300567,11.189547 9.300567,11.230641 9.225199,11.230603 9.189173,11.23053 9.188913,11.199092 9.18906,11.028062 9.187989,11.028062 9.187877,10.951663 9.188948,10.922005" style="fill: white" /><polygon type="contour" points="8.981496,10.922005 9.078942,10.922005 9.078796,10.951663 9.079134,11.028062 9.079113,11.028062 9.078369,11.199687 9.078309,11.265379 9.078418,11.335432 9.077434,11.400697 8.845087,11.399266 8.78544,11.398841 8.78544,11.374604 8.785448,11.319028 8.785295,11.229921 8.65688,11.230443 8.593808,11.230673 8.593479,11.153271 8.593479,11.028055 8.593808,10.961897 8.593808,10.922037 8.656879,10.921827 8.785814,10.921827" style="fill: white" /><polygon type="contour" points="8.169804,10.922037 8.209664,10.922037 8.209824,10.994229 8.209824,11.117654 8.209664,11.188701 8.209664,11.230673 8.175644,11.230682 8.013579,11.229977 8.013434,11.38507 8.013434,11.390684 8.013428,11.39576 8.013434,11.399004 8.002192,11.399024 7.778003,11.399123 7.730939,11.400764 7.732351,11.359857 7.732579,11.3537 7.732934,11.118032 7.901367,11.118032 7.90132,10.994229 7.901029,10.922037 7.978432,10.921878 8.103647,10.921878" style="fill: white" />
</svg>
