<svg width="19.131698" height="19.131699">
<polygon type="contour" points="8.795723,8.716577 8.89727,8.719051 8.911309,8.719673 8.941698,8.719673 9.017687,8.719682 9.017996,8.786821 9.018844,8.824369 9.019372,8.886416 9.119547,8.88651 9.163899,8.886559 9.163868,8.953512 9.163868,9.019857 9.163818,9.019857 9.163899,9.109834 9.163899,9.1639 9.119548,9.16387 9.074967,9.16387 9.074967,9.163838 8.967016,9.1639 8.886556,9.1639 8.88652,9.122633 8.886403,9.019374 8.71977,9.019374 8.719769,8.972938 8.719747,8.92308 8.71816,8.83829 8.715844,8.715846" style="fill: white" /><polygon type="contour" points="9.163688,9.319302 9.163688,9.711102 9.163343,9.711102 9.163899,9.80253 9.163899,9.856172 9.119547,9.856164 9.074967,9.856164 9.074967,9.856155 8.967016,9.856172 8.886556,9.856172 8.886526,9.815471 8.886475,9.711102 8.719934,9.711102 8.719809,9.687722 8.71811,9.566202 8.718477,9.505672 8.71981,9.444094 8.719934,9.420602 8.886463,9.420602 8.886533,9.319303 8.886556,9.275533 8.953511,9.27554 9.019855,9.27554 9.019855,9.275551 9.109831,9.275533 9.163899,9.275533" style="fill: white" /><polygon type="contour" points="10.413539,8.83829 10.411952,8.923081 10.411931,8.972938 10.411725,9.0193 10.358633,9.019374 10.245286,9.019374 10.245191,9.11955 10.245144,9.1639 10.17819,9.16387 10.111846,9.16387 10.111846,9.163822 10.021867,9.1639 9.967802,9.1639 9.967833,9.119549 9.967833,9.074969 9.967865,9.074969 9.967802,8.96702 9.967802,8.886559 10.009069,8.886522 10.112328,8.886407 10.112856,8.824369 10.113705,8.786821 10.114014,8.782489 10.114014,8.719682 10.190002,8.719673 10.220391,8.719673 10.234429,8.719051 10.335976,8.716577 10.415856,8.715846" style="fill: white" /><polygon type="contour" points="9.662545,8.718662 9.711101,8.719935 9.711101,8.823092 9.711368,8.886445 9.812296,8.886523 9.812399,8.886536 9.85617,8.886559 9.856163,8.953513 9.856163,9.019857 9.856151,9.019857 9.85617,9.109833 9.85617,9.1639 9.812399,9.16369 9.4206,9.16369 9.4206,9.163347 9.329171,9.1639 9.275531,9.1639 9.275538,9.119549 9.275538,9.074969 9.275545,9.074969 9.275531,8.96702 9.275531,8.886559 9.316232,8.886527 9.4206,8.886477 9.4206,8.719936 9.443979,8.719812 9.565759,8.718039" style="fill: white" /><polygon type="contour" points="9.802529,9.275533 9.85617,9.275533 9.856317,9.319302 9.856317,9.767773 9.85617,9.802531 9.85617,9.856172 9.8124,9.856319 9.363929,9.856319 9.32917,9.856172 9.275531,9.856172 9.275383,9.812402 9.275383,9.36393 9.275531,9.329172 9.275531,9.275533 9.3193,9.275385 9.767772,9.275385" style="fill: white" /><polygon type="contour" points="10.245173,9.316233 10.245224,9.420602 10.411765,9.420602 10.41189,9.444094 10.41359,9.566201 10.413223,9.62644 10.41189,9.687723 10.411765,9.711102 10.245236,9.711102 10.245166,9.812401 10.245144,9.856172 10.17819,9.856164 10.111846,9.856164 10.111846,9.856151 10.021867,9.856172 9.967802,9.856172 9.968013,9.812402 9.968013,9.420602 9.968357,9.420602 9.967802,9.329173 9.967802,9.275533 10.012153,9.27554 10.056733,9.27554 10.056733,9.275547 10.164682,9.275533 10.245144,9.275533" style="fill: white" /><polygon type="contour" points="10.245179,10.00907 10.245296,10.112331 10.41193,10.112331 10.411931,10.158766 10.411952,10.208623 10.41354,10.293414 10.415856,10.415858 10.335976,10.415126 10.234429,10.412652 10.220391,10.412031 10.190002,10.412031 10.114014,10.412022 10.113705,10.344882 10.112856,10.307334 10.112328,10.245287 10.012153,10.245193 9.967802,10.245144 9.967833,10.178192 9.967833,10.111848 9.967882,10.111848 9.967802,10.021869 9.967802,9.967804 10.012152,9.967835 10.056733,9.967835 10.056733,9.967867 10.164682,9.967804 10.245144,9.967804" style="fill: white" /><polygon type="contour" points="9.856163,10.012155 9.856163,10.056735 9.856155,10.056735 9.85617,10.164684 9.85617,10.245145 9.815468,10.245176 9.711101,10.245226 9.711101,10.411766 9.687608,10.411892 9.5655,10.413665 9.469154,10.413041 9.4206,10.411767 9.4206,10.308611 9.420332,10.245258 9.319404,10.245181 9.319301,10.245168 9.275531,10.245145 9.275538,10.178191 9.275538,10.111848 9.275549,10.111848 9.275531,10.02187 9.275531,9.967804 9.3193,9.968015 9.711101,9.968015 9.711101,9.968359 9.802529,9.967804 9.85617,9.967804" style="fill: white" /><polygon type="contour" points="9.163868,10.012154 9.163868,10.056735 9.163835,10.056735 9.163899,10.164684 9.163899,10.245145 9.122631,10.245182 9.019372,10.245296 9.018844,10.307334 9.017996,10.344882 9.017687,10.349214 9.017687,10.412022 8.941698,10.412031 8.911309,10.412031 8.89727,10.412653 8.795723,10.415126 8.715844,10.415858 8.718159,10.293414 8.719747,10.208623 8.719769,10.158766 8.719975,10.112405 8.773066,10.112331 8.886413,10.112331 8.886508,10.012154 8.886556,9.967804 8.95351,9.967835 9.019855,9.967835 9.019855,9.967884 9.109832,9.967804 9.163899,9.967804" style="fill: white" />
</svg>
