<svg width="19.131698" height="19.131699">
<polygon type="contour" points="7.598955,7.484239 7.705249,7.492307 7.783321,7.492508 7.784067,7.561323 7.784067,7.630004 7.784384,7.633568 7.784464,7.661814 7.784464,7.784465 7.493111,7.784465 7.492946,7.736758 7.483329,7.483332" style="fill: white" /><polygon type="contour" points="7.996928,7.662814 7.996928,7.71769 7.996949,7.785566 7.964229,7.78542 7.903069,7.78542 7.903069,7.662645 7.941024,7.662637" style="fill: white" /><polygon type="contour" points="7.785418,7.96423 7.785565,7.996951 7.735252,7.996951 7.662812,7.99693 7.662635,7.941024 7.662644,7.903071 7.785418,7.903071" style="fill: white" /><polygon type="contour" points="7.996949,7.941024 7.996928,7.99693 7.955308,7.99693 7.902865,7.996951 7.903069,7.96423 7.903069,7.903071 7.941023,7.902867 7.996949,7.902867" style="fill: white" /><polygon type="contour" points="7.996827,8.571041 7.996827,8.686517 7.997023,8.865252 7.961901,8.865174 7.903069,8.864883 7.903069,8.762333 7.902939,8.571015 7.965151,8.571015" style="fill: white" /><polygon type="contour" points="7.996928,8.346723 7.996928,8.394508 7.996827,8.456113 7.96515,8.456217 7.902939,8.456217 7.902752,8.413597 7.902865,8.346688 7.941024,8.346688" style="fill: white" /><polygon type="contour" points="7.785516,8.413598 7.785261,8.456358 7.662539,8.456358 7.662619,8.413597 7.662812,8.346723 7.717687,8.346723 7.785565,8.346688" style="fill: white" /><polygon type="contour" points="7.785635,8.571035 7.785572,8.597612 7.785296,8.864925 7.6014,8.863715 7.49325,8.863933 7.493453,8.764033 7.493868,8.569858 7.610857,8.569858 7.703463,8.569703" style="fill: white" /><polygon type="contour" points="7.785289,9.118839 7.785446,9.167878 7.785446,9.246166 7.737413,9.246166 7.662743,9.246368 7.662705,9.197889 7.662623,9.118718 7.708985,9.118718" style="fill: white" /><polygon type="contour" points="7.941024,9.118968 7.997023,9.118866 7.997023,9.173749 7.996928,9.246581 7.957025,9.246367 7.902827,9.246166 7.903069,9.201782 7.903069,9.118715" style="fill: white" /><polygon type="contour" points="9.245757,9.171153 9.246071,9.246368 9.192355,9.246368 9.118358,9.246047 9.118716,9.198714 9.118716,9.118718 9.170862,9.118359 9.245757,9.118359" style="fill: white" /><polygon type="contour" points="8.865029,9.118717 8.865351,9.171152 8.865351,9.246047 8.743897,9.246047 8.571146,9.245749 8.570886,9.203076 8.570886,9.118395 8.669701,9.118395" style="fill: white" /><polygon type="contour" points="8.456346,9.118395 8.456555,9.165966 8.456555,9.245749 8.413597,9.245956 8.346722,9.246581 8.346722,9.190471 8.346851,9.118866 8.413597,9.118557 8.419678,9.118275" style="fill: white" /><polygon type="contour" points="8.456356,8.865115 8.413597,8.865316 8.346852,8.865252 8.346852,8.738293 8.347186,8.571041 8.413596,8.571041 8.456356,8.570884" style="fill: white" /><polygon type="contour" points="9.246365,7.941024 9.246579,7.99693 9.190469,7.99693 9.118864,7.997025 9.118582,7.961903 9.118712,7.903071 9.167605,7.902829 9.245894,7.902829" style="fill: white" /><polygon type="contour" points="9.197887,7.662707 9.246071,7.662745 9.246071,7.715281 9.245894,7.785447 9.202091,7.785292 9.118836,7.785292 9.118836,7.742116 9.118716,7.662625" style="fill: white" /><polygon type="contour" points="8.863622,7.549019 8.863956,7.606442 8.86506,7.744109 8.864961,7.785366 8.816916,7.78541 8.571033,7.785636 8.569703,7.703465 8.569747,7.609211 8.569747,7.493717 8.656966,7.493807 8.863957,7.493381" style="fill: white" /><polygon type="contour" points="8.670254,7.902941 8.864881,7.903071 8.865172,7.961903 8.86525,7.997025 8.738292,7.997025 8.57104,7.996828 8.571013,7.965154 8.571013,7.902941 8.670018,7.902705" style="fill: white" /><polygon type="contour" points="8.456356,7.785263 8.413597,7.785518 8.346687,7.785566 8.346687,7.735255 8.346722,7.662814 8.413597,7.66262 8.456356,7.662541" style="fill: white" /><polygon type="contour" points="8.456215,7.902941 8.456112,7.939782 8.456112,7.996829 8.413596,7.996829 8.346722,7.99693 8.346722,7.95531 8.346687,7.902867 8.413596,7.902754" style="fill: white" /><polygon type="contour" points="8.456112,8.347188 8.456356,8.383105 8.456356,8.456358 8.413596,8.456113 8.347186,8.456113 8.347186,8.413597 8.346722,8.346723 8.394506,8.346723" style="fill: white" /><polygon type="contour" points="8.865314,8.413597 8.865113,8.456358 8.570883,8.456358 8.57104,8.413598 8.57104,8.347188 8.686516,8.347188 8.86525,8.346854" style="fill: white" /><polygon type="contour" points="8.864389,8.661548 8.86421,8.864212 8.762388,8.864212 8.570172,8.864391 8.570172,8.661547 8.570315,8.570316 8.775159,8.570316 8.864406,8.5702" style="fill: white" /><polygon type="contour" points="9.165703,8.571147 9.245487,8.571147 9.245487,8.68129 9.245757,8.865353 9.198712,8.865031 9.118716,8.865031 9.118716,8.755376 9.118392,8.570887" style="fill: white" /><polygon type="contour" points="9.24607,8.392941 9.245487,8.456556 9.203075,8.456346 9.118393,8.456346 9.118556,8.413597 9.118864,8.346854 9.173748,8.346854 9.246579,8.346723" style="fill: white" /><polygon type="contour" points="10.784978,8.394509 10.784513,8.456113 10.718102,8.456113 10.71202,8.456217 10.675343,8.456358 10.675588,8.413597 10.675588,8.347188 10.718101,8.347188 10.784978,8.346723" style="fill: white" /><polygon type="contour" points="10.56066,8.347188 10.56066,8.413598 10.560817,8.456358 10.266588,8.456358 10.266451,8.419679 10.266386,8.413597 10.26645,8.346854 10.393408,8.346854" style="fill: white" /><polygon type="contour" points="10.561384,8.570316 10.561472,8.660647 10.561472,8.864444 10.470152,8.864391 10.26749,8.864211 10.267338,8.76443 10.267173,8.570104 10.472017,8.570104" style="fill: white" /><polygon type="contour" points="10.718102,8.571041 10.784513,8.571041 10.784513,8.686518 10.784848,8.865252 10.718101,8.865316 10.675343,8.865115 10.675343,8.570884" style="fill: white" /><polygon type="contour" points="10.718102,9.118557 10.784848,9.118866 10.784848,9.173749 10.784978,9.246581 10.73876,9.246367 10.675145,9.245749 10.675354,9.203076 10.675354,9.118395" style="fill: white" /><polygon type="contour" points="10.560554,9.165965 10.560554,9.245749 10.450411,9.245749 10.26635,9.246047 10.266671,9.198714 10.266671,9.118718 10.376325,9.118718 10.560814,9.118395" style="fill: white" /><polygon type="contour" points="9.932989,9.118718 10.012985,9.118718 10.013343,9.171152 10.013343,9.246047 9.960549,9.246047 9.885335,9.246368 9.885335,9.192356 9.885656,9.118359" style="fill: white" /><polygon type="contour" points="10.013307,8.669701 10.012984,8.865031 9.96055,8.865353 9.885656,8.865353 9.885656,8.743898 9.885952,8.571147 9.928626,8.570887 10.013307,8.570887" style="fill: white" /><polygon type="contour" points="10.012836,8.346854 10.012985,8.387405 10.013307,8.456346 9.965735,8.456556 9.885952,8.456556 9.885745,8.413598 9.885122,8.346723 9.941231,8.346723" style="fill: white" /><polygon type="contour" points="9.92992,7.903071 10.012988,7.903071 10.012735,7.941024 10.012836,7.997025 9.957952,7.997025 9.885122,7.99693 9.885335,7.957027 9.885537,7.902829" style="fill: white" /><polygon type="contour" points="10.012985,7.708987 10.012864,7.785292 9.963825,7.785447 9.885537,7.785447 9.885537,7.737415 9.885335,7.662745 9.933813,7.662707 10.012985,7.662625" style="fill: white" /><polygon type="contour" points="10.561952,7.493717 10.561952,7.609211 10.560643,7.761262 10.560643,7.7856 10.534086,7.785572 10.266777,7.785297 10.267987,7.601402 10.267743,7.493381 10.370553,7.493291" style="fill: white" /><polygon type="contour" points="10.718101,7.662621 10.784978,7.662814 10.784978,7.717689 10.785013,7.785566 10.718101,7.785518 10.675343,7.785263 10.675343,7.662541" style="fill: white" /><polygon type="contour" points="10.560686,7.965153 10.56066,7.996829 10.445184,7.996829 10.26645,7.997025 10.266528,7.961903 10.26682,7.903071 10.369368,7.903071 10.560686,7.902941" style="fill: white" /><polygon type="contour" points="10.785013,7.902867 10.785013,7.941024 10.784978,7.99693 10.737194,7.99693 10.675588,7.996829 10.675484,7.965154 10.675484,7.902941 10.718102,7.902754" style="fill: white" /><polygon type="contour" points="11.648248,7.595554 11.638752,7.736757 11.638588,7.784465 11.347237,7.784465 11.347237,7.661814 11.347316,7.633568 11.347633,7.561324 11.348318,7.555918 11.348378,7.492508 11.42645,7.492307 11.648371,7.483332" style="fill: white" /><polygon type="contour" points="11.228632,7.662645 11.228632,7.78542 11.16747,7.78542 11.134751,7.785566 11.134751,7.735255 11.134771,7.662814 11.190676,7.662637" style="fill: white" /><polygon type="contour" points="11.167471,7.903071 11.228632,7.903071 11.228835,7.941024 11.228835,7.996951 11.190676,7.996951 11.134771,7.99693 11.134771,7.955309 11.134751,7.902867" style="fill: white" /><polygon type="contour" points="11.469066,7.941024 11.468888,7.99693 11.41401,7.99693 11.346135,7.996951 11.346282,7.96423 11.346282,7.903071 11.469056,7.903071" style="fill: white" /><polygon type="contour" points="11.637833,8.569858 11.638018,8.661416 11.63845,8.863933 11.530298,8.863715 11.346404,8.864925 11.34629,8.816917 11.346065,8.571035 11.540385,8.569704" style="fill: white" /><polygon type="contour" points="11.468888,8.346723 11.469081,8.413598 11.469162,8.456358 11.346439,8.456358 11.346184,8.413598 11.346135,8.346688 11.396446,8.346688" style="fill: white" /><polygon type="contour" points="11.228948,8.413597 11.228761,8.456217 11.191917,8.456113 11.134872,8.456113 11.134872,8.413597 11.134771,8.346723 11.17639,8.346723 11.228835,8.346688" style="fill: white" /><polygon type="contour" points="11.228761,8.670254 11.228632,8.864883 11.169797,8.865174 11.134676,8.865252 11.134676,8.738294 11.134872,8.571041 11.166547,8.571015 11.228761,8.571015" style="fill: white" /><polygon type="contour" points="11.22974,9.118838 11.228874,9.167878 11.228874,9.246166 11.190675,9.246367 11.134771,9.246581 11.134771,9.190471 11.134676,9.118865 11.170845,9.118717" style="fill: white" /><polygon type="contour" points="11.468996,9.197888 11.468957,9.246368 11.41642,9.246368 11.346254,9.246165 11.34641,9.202093 11.34641,9.118839 11.389585,9.118839 11.469077,9.118718" style="fill: white" /><polygon type="contour" points="11.174672,9.885631 11.228874,9.885808 11.22974,9.929611 11.22974,10.012865 11.190676,10.012736 11.134676,10.012838 11.134676,9.957954 11.134771,9.885124" style="fill: white" /><polygon type="contour" points="11.468995,9.933815 11.469077,10.012986 11.422714,10.012986 11.34641,10.012865 11.346254,9.964096 11.346254,9.885808 11.394286,9.885808 11.468957,9.885632" style="fill: white" /><polygon type="contour" points="11.530298,10.267989 11.63845,10.267772 11.638247,10.367669 11.637833,10.561844 11.520844,10.561844 11.428236,10.561998 11.346065,10.560666 11.346128,10.534089 11.346404,10.266779" style="fill: white" /><polygon type="contour" points="11.169797,10.266529 11.228632,10.266822 11.228632,10.369369 11.228761,10.560688 11.166547,10.560688 11.134872,10.560662 11.134872,10.445186 11.134676,10.266451" style="fill: white" /><polygon type="contour" points="11.228948,10.718104 11.228835,10.785016 11.190675,10.785016 11.134771,10.784981 11.134771,10.737195 11.134872,10.67559 11.166548,10.675486 11.228761,10.675486" style="fill: white" /><polygon type="contour" points="11.469081,10.718104 11.468888,10.784981 11.414011,10.784981 11.346135,10.785016 11.346184,10.718104 11.346439,10.675345 11.469162,10.675345" style="fill: white" /><polygon type="contour" points="11.638752,11.394946 11.648371,11.648372 11.532746,11.647465 11.426449,11.639396 11.348378,11.639196 11.347633,11.570379 11.347633,11.501699 11.347316,11.498135 11.347237,11.469889 11.347237,11.347239 11.638588,11.347239" style="fill: white" /><polygon type="contour" points="11.468888,11.134772 11.469066,11.190679 11.469056,11.228633 11.346282,11.228633 11.346282,11.167473 11.346135,11.134754 11.396447,11.134754" style="fill: white" /><polygon type="contour" points="11.228632,11.167472 11.228632,11.228633 11.190675,11.228837 11.134751,11.228837 11.134751,11.190678 11.134771,11.134773 11.17639,11.134773 11.228835,11.134754" style="fill: white" /><polygon type="contour" points="11.167471,11.346284 11.228632,11.346284 11.228632,11.469058 11.190676,11.469068 11.134771,11.46889 11.134771,11.414012 11.134751,11.346137" style="fill: white" /><polygon type="contour" points="10.561997,11.428239 10.561952,11.522492 10.561952,11.637987 10.474731,11.637896 10.267743,11.638323 10.268078,11.582683 10.267743,11.52526 10.26664,11.387596 10.266739,11.346338 10.314783,11.346293 10.560665,11.346068" style="fill: white" /><polygon type="contour" points="10.785013,11.396448 10.784977,11.46889 10.718102,11.469082 10.675343,11.469164 10.675343,11.346441 10.718102,11.346185 10.785013,11.346137" style="fill: white" /><polygon type="contour" points="10.784978,11.176393 10.785013,11.228837 10.718102,11.22895 10.675484,11.228762 10.675588,11.191919 10.675588,11.134874 10.718102,11.134874 10.784978,11.134773" style="fill: white" /><polygon type="contour" points="10.56066,11.134874 10.560686,11.166549 10.560686,11.228763 10.461446,11.228763 10.26682,11.228633 10.266528,11.169799 10.26645,11.134678 10.393407,11.134678" style="fill: white" /><polygon type="contour" points="10.718102,10.67559 10.784513,10.67559 10.784513,10.718104 10.784978,10.784981 10.737193,10.784981 10.675588,10.784516 10.675343,10.748598 10.675343,10.675345" style="fill: white" /><polygon type="contour" points="10.56066,10.718104 10.56066,10.784516 10.445183,10.784516 10.26645,10.78485 10.266386,10.718104 10.266588,10.675345 10.560817,10.675345" style="fill: white" /><polygon type="contour" points="10.561527,10.470155 10.561384,10.561386 10.35654,10.561386 10.267295,10.561502 10.26731,10.470155 10.26749,10.267492 10.369311,10.267492 10.561527,10.267313" style="fill: white" /><polygon type="contour" points="10.784848,10.266452 10.784848,10.39341 10.784513,10.560662 10.718102,10.560662 10.675343,10.560818 10.675343,10.26659 10.718101,10.266388" style="fill: white" /><polygon type="contour" points="10.784978,9.941233 10.784848,10.012837 10.718101,10.013147 10.711969,10.013309 10.675354,10.013309 10.675145,9.965999 10.675145,9.886216 10.718101,9.885748 10.784978,9.885124" style="fill: white" /><polygon type="contour" points="10.560554,9.886216 10.560814,9.928627 10.560814,10.013309 10.461998,10.013309 10.266671,10.012986 10.26635,9.960839 10.26635,9.885946 10.387804,9.885946" style="fill: white" /><polygon type="contour" points="10.013343,9.885946 10.012985,9.932991 10.012985,10.012986 9.960549,10.013345 9.885656,10.013345 9.885656,9.96084 9.885335,9.885632 9.939346,9.885632" style="fill: white" /><polygon type="contour" points="9.932989,10.266673 10.012985,10.266673 10.012985,10.376326 10.013307,10.560816 9.965736,10.560555 9.885952,10.560555 9.885952,10.450412 9.885656,10.266352" style="fill: white" /><polygon type="contour" points="9.928626,10.675356 10.013307,10.675356 10.013143,10.718105 10.012836,10.78485 9.957952,10.78485 9.885122,10.784981 9.885335,10.738762 9.885952,10.675147" style="fill: white" /><polygon type="contour" points="10.012985,11.170848 10.012864,11.229742 9.963824,11.228875 9.885537,11.228875 9.885336,11.190678 9.885122,11.134773 9.941231,11.134773 10.012836,11.134678" style="fill: white" /><polygon type="contour" points="9.92961,11.346412 10.012864,11.346412 10.012864,11.389587 10.012985,11.469079 9.933813,11.468996 9.885335,11.468959 9.885335,11.416423 9.885537,11.346257" style="fill: white" /><polygon type="contour" points="9.245894,11.394288 9.246071,11.468959 9.197887,11.468996 9.118716,11.469079 9.118716,11.422716 9.118836,11.346412 9.167606,11.346257 9.245894,11.346257" style="fill: white" /><polygon type="contour" points="9.246579,11.134773 9.246071,11.174674 9.245894,11.228875 9.20209,11.229742 9.118836,11.229742 9.118965,11.190678 9.118864,11.134678 9.173747,11.134678" style="fill: white" /><polygon type="contour" points="8.865171,11.169799 8.864881,11.228633 8.762331,11.228633 8.571013,11.228763 8.571013,11.166548 8.57104,11.134874 8.686515,11.134874 8.86525,11.134678" style="fill: white" /><polygon type="contour" points="8.597612,11.346131 8.864923,11.346407 8.863713,11.530301 8.863957,11.638323 8.761146,11.638413 8.569747,11.637987 8.569747,11.522493 8.571056,11.370441 8.571056,11.346104" style="fill: white" /><polygon type="contour" points="8.413596,11.346185 8.456356,11.346441 8.456356,11.469164 8.413597,11.469083 8.346722,11.46889 8.346722,11.414013 8.346687,11.346137" style="fill: white" /><polygon type="contour" points="8.456112,11.134874 8.456215,11.166549 8.456215,11.228763 8.413596,11.22895 8.346687,11.228837 8.346687,11.190678 8.346722,11.134773 8.394506,11.134773" style="fill: white" /><polygon type="contour" points="8.456112,10.718104 8.456112,10.784516 8.413596,10.784516 8.346722,10.784981 8.346722,10.737195 8.347186,10.67559 8.413597,10.67559 8.419678,10.675486 8.456356,10.675345" style="fill: white" /><polygon type="contour" points="8.865314,10.718104 8.86525,10.78485 8.738291,10.78485 8.57104,10.784516 8.57104,10.718104 8.570883,10.675345 8.865113,10.675345" style="fill: white" /><polygon type="contour" points="9.245955,10.718104 9.246579,10.784981 9.190469,10.784981 9.118864,10.78485 9.118715,10.744298 9.118393,10.675356 9.165703,10.675147 9.245487,10.675147" style="fill: white" /><polygon type="contour" points="9.245757,10.387805 9.245487,10.560555 9.203075,10.560816 9.118393,10.560816 9.118393,10.462 9.118716,10.266673 9.170862,10.266352 9.245757,10.266352" style="fill: white" /><polygon type="contour" points="9.246071,9.939348 9.245757,10.013345 9.198712,10.012986 9.118716,10.012986 9.118358,9.960839 9.118358,9.885946 9.170863,9.885946 9.246071,9.885632" style="fill: white" /><polygon type="contour" points="8.865029,9.93299 8.865029,10.012986 8.755374,10.012986 8.570886,10.013309 8.571146,9.965999 8.571146,9.886216 8.681289,9.886216 8.865351,9.885946" style="fill: white" /><polygon type="contour" points="8.661547,10.267313 8.86421,10.267492 8.864362,10.367273 8.864527,10.561599 8.659682,10.561599 8.570315,10.561385 8.570227,10.471055 8.570227,10.26726" style="fill: white" /><polygon type="contour" points="8.456356,10.26659 8.456356,10.560818 8.413596,10.560662 8.347186,10.560662 8.347186,10.445185 8.346851,10.266452 8.413597,10.266388" style="fill: white" /><polygon type="contour" points="8.392939,9.885632 8.456555,9.886216 8.456346,9.928627 8.456346,10.013309 8.413597,10.013147 8.346852,10.012838 8.346852,9.957954 8.346722,9.885124" style="fill: white" /><polygon type="contour" points="7.996928,9.941233 7.997023,10.012838 7.961901,10.01312 7.903069,10.01299 7.902827,9.964096 7.902827,9.885808 7.941023,9.885337 7.996928,9.885124" style="fill: white" /><polygon type="contour" points="7.785446,9.885808 7.78529,9.929611 7.78529,10.012865 7.742114,10.012865 7.662623,10.012986 7.662704,9.933816 7.662743,9.885632 7.71528,9.885632" style="fill: white" /><polygon type="contour" points="7.785409,10.314785 7.785634,10.560667 7.591315,10.561999 7.493868,10.561844 7.493681,10.470286 7.49325,10.267772 7.6014,10.267989 7.785295,10.266779" style="fill: white" /><polygon type="contour" points="7.997023,10.393409 7.996827,10.560662 7.965151,10.560688 7.902939,10.560688 7.902939,10.511348 7.903015,10.511348 7.903115,10.367298 7.903069,10.266822 7.961901,10.26653 7.997023,10.266452" style="fill: white" /><polygon type="contour" points="7.939782,10.67559 7.996827,10.67559 7.996827,10.718105 7.996928,10.784981 7.955308,10.784981 7.902865,10.785016 7.902753,10.718104 7.902939,10.675486" style="fill: white" /><polygon type="contour" points="7.785516,10.718104 7.785565,10.785016 7.735253,10.785016 7.662811,10.78498 7.662619,10.718104 7.662539,10.675345 7.785261,10.675345" style="fill: white" /><polygon type="contour" points="7.785418,11.167473 7.785418,11.228633 7.662644,11.228633 7.662635,11.190678 7.662812,11.134773 7.717687,11.134773 7.785565,11.134754" style="fill: white" /><polygon type="contour" points="7.996928,11.134773 7.996928,11.176393 7.996949,11.228837 7.964228,11.228633 7.903069,11.228633 7.902865,11.190679 7.902865,11.134754 7.941023,11.134754" style="fill: white" /><polygon type="contour" points="7.996949,11.396449 7.996928,11.46889 7.941023,11.469068 7.903069,11.469058 7.903069,11.346284 7.964228,11.346284 7.996949,11.346137" style="fill: white" /><polygon type="contour" points="7.784464,11.469889 7.784383,11.498135 7.784066,11.57038 7.783381,11.575785 7.783321,11.639196 7.70525,11.639397 7.483329,11.648372 7.483453,11.536149 7.492946,11.394945 7.493111,11.347239 7.784464,11.347239" style="fill: white" />
</svg>
