<svg width="19.131698" height="19.131699">
<polygon type="contour" points="10.377193,8.597514 10.381701,8.598103 10.408789,8.605928 10.413198,8.607203 10.437882,8.619243 10.441898,8.621202 10.464776,8.637454 10.4685,8.640099 10.488366,8.659968 10.491598,8.6632 10.507854,8.686079 10.510499,8.689803 10.522539,8.714486 10.524498,8.718502 10.532326,8.745592 10.533601,8.750002 10.537212,8.777695 10.537801,8.782202 10.536596,8.809894 10.536401,8.814401 10.530981,8.842094 10.530099,8.846601 10.519865,8.872488 10.5182,8.876701 10.50375,8.900783 10.501399,8.904701 10.480399,8.929201 10.480399,10.202502 10.49846,10.223573 10.501398,10.227001 10.515849,10.251084 10.518201,10.255003 10.528434,10.280889 10.530099,10.285102 10.535518,10.312796 10.536401,10.317304 10.537605,10.344995 10.537801,10.349501 10.534188,10.377195 10.533601,10.381701 10.525772,10.408792 10.524499,10.413201 10.512459,10.437883 10.510498,10.441901 10.494244,10.464778 10.491599,10.468503 10.468501,10.4916 10.445622,10.507856 10.441899,10.510501 10.417216,10.522541 10.413199,10.524501 10.38611,10.532327 10.3817,10.533602 10.354006,10.537215 10.3495,10.537803 10.321808,10.536598 10.317302,10.536403 10.289606,10.530982 10.285099,10.5301 10.259212,10.519867 10.255,10.518203 10.230918,10.503752 10.226999,10.501401 10.2025,10.480402 8.929199,10.480402 8.908128,10.498462 8.9047,10.501401 8.880618,10.515851 8.876699,10.518203 8.850813,10.528436 8.846601,10.530101 8.818906,10.53552 8.814398,10.536403 8.786707,10.537607 8.782201,10.537803 8.754505,10.534189 8.749998,10.533602 8.722909,10.525775 8.718501,10.524502 8.693817,10.51246 8.689801,10.510501 8.666923,10.494246 8.663198,10.4916 8.643332,10.471735 8.6401,10.468503 8.623846,10.445624 8.621202,10.441901 8.609161,10.417217 8.607202,10.413201 8.599373,10.38611 8.5981,10.381701 8.594487,10.354008 8.5939,10.349502 8.595104,10.32181 8.5953,10.317304 8.60072,10.289608 8.601602,10.285101 8.611835,10.259215 8.613499,10.255003 8.627948,10.23092 8.630299,10.227002 8.651301,10.202501 8.651301,8.929201 8.633239,8.90813 8.6303,8.904702 8.615851,8.880619 8.613499,8.8767 8.603267,8.850815 8.601602,8.846601 8.596182,8.818908 8.5953,8.8144 8.594095,8.786709 8.5939,8.782203 8.597512,8.754508 8.598099,8.750002 8.605928,8.722911 8.607202,8.718503 8.619241,8.69382 8.621202,8.689803 8.637454,8.666925 8.6401,8.6632 8.659965,8.643333 8.663199,8.640099 8.686076,8.623848 8.689801,8.621202 8.714484,8.609162 8.7185,8.607203 8.745589,8.599377 8.749999,8.598102 8.777694,8.594489 8.7822,8.593902 8.809892,8.595106 8.814399,8.595302 8.842094,8.600722 8.8466,8.601603 8.872487,8.611837 8.8767,8.613502 8.900781,8.62795 8.9047,8.630301 8.9292,8.651302 10.2025,8.651302 10.223571,8.63324 10.227,8.6303 10.25108,8.615853 10.254999,8.613502 10.280887,8.603268 10.2851,8.601604 10.312794,8.596184 10.317302,8.595302 10.344993,8.594097 10.3495,8.593902" style="fill: white" />
</svg>
