<svg width="19.131698" height="19.131699">
<polygon type="contour" points="3.495051,6.565359 3.495215,6.565226 3.49522,6.882309 3.495485,7.681885 3.351342,7.698847 3.257619,7.692691 3.257618,6.840822 3.257582,6.82879 3.257752,6.564973 3.364068,6.564973" style="fill: white" /><polygon type="contour" points="3.495204,6.22754 3.495272,6.23966 3.495072,6.239978 3.495207,6.269915 3.495134,6.314683 3.352883,6.314683 3.35264,6.313214 3.352404,6.2993 3.352717,6.25601 3.352496,6.244824 3.352553,6.242823 3.352565,6.214267 3.369416,6.21421 3.369576,6.262231 3.46921,6.262064 3.46921,6.214267 3.495364,6.214267 3.495546,6.214043" style="fill: white" /><polygon type="contour" points="3.352496,5.417099 3.433732,5.417099 3.495535,5.417037 3.495227,5.638916 3.495075,5.681215 3.495291,5.750462 3.495278,5.789246 3.352476,5.789246 3.352277,5.750655 3.257504,5.750207 3.242135,5.750141 3.240395,5.750109 3.162091,5.749992 3.162091,5.514312 3.162319,5.417022 3.243597,5.417312 3.329931,5.416938" style="fill: white" /><polygon type="contour" points="5.488388,4.278129 5.498003,4.278165 5.517734,4.278237 5.559238,4.278162 5.619426,4.278262 5.669299,4.278253 5.789477,4.278543 5.790848,4.669602 5.790927,4.702725 5.699844,4.702197 5.689206,4.701988 5.630433,4.702266 5.594568,4.702332 5.558876,4.702223 5.416796,4.70217 5.417073,4.473754 5.417152,4.435385 5.417286,4.369887 5.417327,4.289858 5.417327,4.278065" style="fill: white" /><polygon type="contour" points="6.314687,4.369887 6.314796,4.473753 6.31471,4.702064 6.235377,4.702064 6.21396,4.702464 6.213994,4.473753 6.213884,4.369886 6.213819,4.325023 6.213819,4.278205 6.290455,4.278205 6.314571,4.278082" style="fill: white" /><polygon type="contour" points="6.269915,3.352798 6.314682,3.352884 6.31523,3.464208 6.31523,3.495136 6.242579,3.495634 6.214042,3.495548 6.214265,3.428621 6.214265,3.352567" style="fill: white" /><polygon type="contour" points="5.750139,3.242136 5.750205,3.257506 5.750114,3.352478 5.789244,3.352478 5.789275,3.409568 5.789275,3.495173 5.792363,3.49529 5.785393,3.495279 5.783768,3.495274 5.782174,3.495244 5.78078,3.495288 5.780257,3.495246 5.763671,3.495253 5.417046,3.495092 5.417046,3.445191 5.417098,3.352497 5.416937,3.329932 5.417309,3.325186 5.417309,3.243599 5.417044,3.239642 5.41702,3.162322 5.51431,3.162093 5.749989,3.162093" style="fill: white" /><polygon type="contour" points="4.369884,3.352614 4.435384,3.352854 4.473752,3.352776 4.702168,3.352497 4.702168,3.495298 4.473752,3.495575 4.369884,3.495414 4.288894,3.495162 4.278034,3.495162 4.278034,3.352361 4.287731,3.352353" style="fill: white" /><polygon type="contour" points="3.416477,3.162252 3.495634,3.162435 3.495211,3.243598 3.495211,3.325186 3.495329,3.32794 3.495307,3.352508 3.495307,3.495309 3.352506,3.495309 3.327938,3.49533 3.243596,3.495211 3.239641,3.495549 3.16232,3.495522 3.162488,3.324399 3.162256,3.220467 3.162256,3.162257 3.414976,3.161993" style="fill: white" /><polygon type="contour" points="3.49516,4.288896 3.495412,4.369886 3.495573,4.473753 3.495279,4.659879 3.495296,4.70217 3.352496,4.70217 3.352774,4.473753 3.352853,4.435386 3.352613,4.369886 3.35236,4.278036 3.49516,4.278036" style="fill: white" /><polygon type="contour" points="4.369884,4.278216 4.546685,4.278216 4.703031,4.278065 4.703085,4.369887 4.702796,4.473753 4.702168,4.656366 4.702168,4.70217 4.473752,4.702797 4.369885,4.703086 4.278063,4.703033 4.278214,4.546687 4.278214,4.369886 4.278034,4.288896 4.278034,4.278036" style="fill: white" /><polygon type="contour" points="4.70272,5.570211 4.702355,5.591813 4.70233,5.594571 4.702264,5.630434 4.701987,5.689208 4.702195,5.699847 4.702723,5.79093 4.313953,5.788251 4.278555,5.788302 4.278261,5.619427 4.278305,5.598703 4.278074,5.55311 4.278157,5.534513 4.278056,5.519737 4.278066,5.506352 4.278063,5.417328 4.289857,5.417328 4.369884,5.417287 4.435383,5.417154 4.473752,5.417076 4.656364,5.416798 4.702168,5.416798" style="fill: white" /><polygon type="contour" points="4.369884,6.213887 4.473751,6.213997 4.702462,6.213961 4.702462,6.270468 4.702062,6.314713 4.473752,6.314798 4.369884,6.314687 4.29732,6.314572 4.27808,6.314572 4.27808,6.223667 4.278203,6.213819" style="fill: white" /><polygon type="contour" points="4.473751,6.562918 4.520506,6.565511 4.702276,6.565511 4.702106,6.567948 4.702173,6.582114 4.702234,6.585405 4.702228,6.601831 4.702228,7.415539 4.702252,7.428098 4.702176,7.475378 4.702131,7.48409 4.702401,7.669464 4.558954,7.686795 4.508277,7.714261 4.440207,7.660661 4.369885,7.645029 4.326036,7.669364 4.278019,7.669535 4.278218,7.34745 4.278191,7.264706 4.278191,6.562399 4.369884,6.561288" style="fill: white" /><polygon type="contour" points="5.681275,6.688893 5.681307,6.760481 5.681629,6.840561 5.682009,6.989486 5.682166,6.999576 5.683438,7.518273 5.683559,7.651981 5.497664,7.650346 5.41719,7.664602 5.417213,6.837431 5.417193,6.753568 5.417182,6.669371 5.417252,6.565672 5.680738,6.565672" style="fill: white" /><polygon type="contour" points="5.679981,6.270304 5.67999,6.315232 5.417183,6.315232 5.417131,6.24258 5.417046,6.214044 5.679816,6.214044" style="fill: white" /><polygon type="contour" points="5.739876,5.4169 5.760385,5.416791 5.770285,5.41696 5.78009,5.417128 5.787754,5.416792 5.788887,5.417279 5.788783,5.457659 5.788681,5.678506 5.786572,5.678579 5.78641,5.67857 5.728893,5.678711 5.678825,5.678799 5.67857,5.785808 5.678578,5.786574 5.678505,5.788683 5.457658,5.788785 5.417278,5.788889 5.416778,5.785396 5.416773,5.783731 5.416977,5.780927 5.416898,5.730365 5.41729,5.71002 5.417069,5.690603 5.416804,5.672459 5.416973,5.656315 5.417136,5.649901 5.41688,5.642873 5.417092,5.63879 5.417098,5.417099 5.628908,5.416906 5.63076,5.416903 5.638239,5.416837 5.648646,5.417192 5.663657,5.416919 5.680761,5.417075 5.699729,5.416905 5.703663,5.417125 5.719404,5.416957 5.72538,5.416679" style="fill: white" /><polygon type="contour" points="6.270303,5.417099 6.273029,5.417137 6.31523,5.417185 6.314941,5.548007 6.314941,5.680013 6.274541,5.679877 6.214042,5.679817 6.214042,5.417049" style="fill: white" /><polygon type="contour" points="7.651807,5.630912 7.652279,5.683639 7.624251,5.68362 7.518271,5.683439 6.999575,5.682167 6.989484,5.68201 6.760481,5.681309 6.565672,5.680741 6.565672,5.417254 7.34433,5.417221 7.664599,5.417192" style="fill: white" /><polygon type="contour" points="7.645027,4.369887 7.661225,4.44093 7.714259,4.508279 7.686793,4.558955 7.669462,4.702403 7.484088,4.702133 7.428096,4.702254 7.415537,4.70223 6.601829,4.70223 6.585403,4.702236 6.567945,4.702109 6.56551,4.702279 6.562915,4.473754 6.561285,4.369886 6.562397,4.341987 6.562397,4.278193 7.264705,4.278193 7.347448,4.27822 7.669533,4.278021" style="fill: white" /><polygon type="contour" points="7.657681,3.256976 7.644374,3.308955 7.682247,3.495512 7.217653,3.495269 6.565672,3.495053 6.565672,3.257441 6.836529,3.257674 7.389208,3.257092 7.451289,3.256927" style="fill: white" /><polygon type="contour" points="15.969443,3.162258 15.969443,3.220468 15.96921,3.324398 15.969381,3.495522 15.888102,3.495212 15.806518,3.495212 15.803761,3.49533 15.779193,3.495309 15.636393,3.495309 15.636393,3.352508 15.636371,3.32794 15.63649,3.243598 15.636152,3.239642 15.636066,3.162435 15.715222,3.162252 15.716721,3.161993" style="fill: white" /><polygon type="contour" points="14.657949,5.417076 14.696315,5.417153 14.761815,5.417287 14.841843,5.417328 14.853637,5.417328 14.853634,5.506352 14.853644,5.519736 14.853544,5.534513 14.853625,5.55311 14.853394,5.598703 14.853438,5.619427 14.853397,5.788302 14.449784,5.790983 14.428977,5.79093 14.429504,5.699848 14.429713,5.689208 14.42937,5.59457 14.429346,5.591813 14.429477,5.55888 14.429532,5.416798 14.475334,5.416798" style="fill: white" /><polygon type="contour" points="14.789714,6.562399 14.853509,6.562399 14.853509,7.264706 14.853482,7.34745 14.853681,7.669535 14.761815,7.645029 14.691492,7.660661 14.623424,7.714261 14.572746,7.686795 14.429299,7.669464 14.429569,7.484089 14.429448,7.428098 14.429472,7.415538 14.429472,6.601831 14.429466,6.585405 14.429593,6.567948 14.429423,6.565511 14.657948,6.562917 14.761815,6.561287" style="fill: white" /><polygon type="contour" points="14.853497,6.290456 14.85362,6.314572 14.761814,6.314687 14.657948,6.314798 14.429638,6.314713 14.429638,6.235379 14.429238,6.213961 14.657949,6.213997 14.761814,6.213888 14.806678,6.21382 14.853497,6.21382" style="fill: white" /><polygon type="contour" points="15.873972,6.66739 15.87412,6.82879 15.874084,6.840822 15.874081,7.69269 15.780356,7.698847 15.636215,7.681886 15.636432,7.217653 15.636648,6.565672 15.767632,6.565287 15.874263,6.565287" style="fill: white" /><polygon type="contour" points="15.70308,6.214267 15.779135,6.214267 15.778901,6.269916 15.778816,6.314683 15.667491,6.315232 15.636564,6.315232 15.636068,6.24258 15.636154,6.214044" style="fill: white" /><polygon type="contour" points="15.63655,5.827258 15.636348,5.806913 15.636494,5.80193" style="fill: white" /><polygon type="contour" points="15.806518,5.417312 15.888101,5.417312 15.892058,5.417048 15.969381,5.417022 15.96961,5.514312 15.96961,5.749992 15.889565,5.750141 15.874194,5.750206 15.780272,5.750651 15.779099,5.789277 15.636582,5.789277 15.636609,5.417047 15.686509,5.417047 15.779204,5.417098 15.801769,5.416938" style="fill: white" /><polygon type="contour" points="15.77935,4.287733 15.779088,4.369886 15.778848,4.435386 15.778926,4.473752 15.779203,4.70217 15.636403,4.70217 15.636127,4.473753 15.636286,4.369886 15.636538,4.288897 15.636538,4.278036 15.779342,4.278036" style="fill: white" /><polygon type="contour" points="14.853486,4.369886 14.853486,4.546687 14.853636,4.703033 14.761814,4.703086 14.657948,4.702798 14.475335,4.70217 14.429531,4.70217 14.428903,4.473753 14.428615,4.369887 14.428667,4.289857 14.428667,4.278065 14.585013,4.278216 14.761815,4.278216 14.842805,4.278036 14.853667,4.278036" style="fill: white" /><polygon type="contour" points="14.853667,3.495162 14.761814,3.495415 14.657949,3.495575 14.429532,3.495298 14.429532,3.352497 14.657949,3.352776 14.696315,3.352853 14.761815,3.352614 14.853667,3.352361" style="fill: white" /><polygon type="contour" points="12.566343,3.257754 12.5668,3.432802 12.5668,3.49495 12.245349,3.495223 11.482902,3.495292 11.427897,3.351345 11.439009,3.257621 12.290381,3.25762 12.302406,3.257583" style="fill: white" /><polygon type="contour" points="12.917433,3.352567 12.917657,3.419317 12.917657,3.495548 12.861397,3.49521 12.81647,3.495136 12.817019,3.383811 12.817019,3.352884 12.888875,3.352555" style="fill: white" /><polygon type="contour" points="13.714681,3.162322 13.714392,3.243598 13.714764,3.329932 13.714602,3.352497 13.714602,3.433734 13.714664,3.495537 13.494427,3.495383 13.450487,3.495077 13.38124,3.495292 13.342456,3.495279 13.342456,3.352478 13.381045,3.352278 13.381495,3.257505 13.381562,3.242136 13.381593,3.240395 13.381709,3.162093 13.61739,3.162093" style="fill: white" /><polygon type="contour" points="13.714373,4.289857 13.714413,4.369886 13.714546,4.435386 13.714624,4.473753 13.714905,4.656365 13.714905,4.70217 13.55141,4.702723 13.537132,4.702332 13.501266,4.702266 13.442493,4.701988 13.431855,4.702197 13.340773,4.702725 13.342102,4.301919 13.342149,4.2783 13.4624,4.278253 13.512274,4.278262 13.572461,4.278161 13.613966,4.278237 13.633697,4.278165 13.643311,4.278129 13.714373,4.278065" style="fill: white" /><polygon type="contour" points="12.917882,4.278205 12.917815,4.369886 12.917705,4.473754 12.917741,4.702464 12.861396,4.705263 12.81647,4.706006 12.816699,4.473783 12.817014,4.369886 12.81713,4.297322 12.81713,4.278082 12.908034,4.278082" style="fill: white" /><polygon type="contour" points="11.78425,4.27822 11.866993,4.278193 12.569305,4.278193 12.570416,4.369886 12.568692,4.473784 12.566029,4.521004 12.566029,4.704536 12.56353,4.704845 12.549057,4.705875 12.545699,4.706043 12.528935,4.706339 11.716163,4.70223 11.703603,4.702254 11.656324,4.70218 11.647613,4.702133 11.474986,4.702381 11.455915,4.563383 11.43156,4.512597 11.469609,4.444717 11.486673,4.369886 11.482865,4.34292 11.473536,4.27814" style="fill: white" /><polygon type="contour" points="12.294165,5.417301 12.371069,5.417257 12.46229,5.417226 12.566029,5.417254 12.566029,5.680741 12.442806,5.681277 12.371219,5.681308 12.291139,5.681632 12.142214,5.682009 12.132125,5.682168 11.613428,5.68344 11.479721,5.683561 11.479396,5.508613 11.46292,5.417122" style="fill: white" /><polygon type="contour" points="12.917657,5.679816 12.861396,5.679983 12.81647,5.679993 12.81647,5.417185 12.889117,5.417134 12.917657,5.417048" style="fill: white" /><polygon type="contour" points="13.412293,5.416957 13.428036,5.417125 13.43197,5.416905 13.448599,5.417019 13.466739,5.416864 13.481801,5.417139 13.493459,5.416837 13.50094,5.416903 13.714602,5.417099 13.714608,5.638791 13.714819,5.642872 13.714564,5.649901 13.714727,5.656315 13.714896,5.67246 13.714629,5.690604 13.714411,5.71002 13.714801,5.730365 13.714721,5.780927 13.714927,5.783731 13.714922,5.785396 13.71442,5.788889 13.674039,5.788785 13.453195,5.788683 13.453122,5.786573 13.452901,5.730429 13.453456,5.678827 13.345301,5.678569 13.345127,5.678579 13.34302,5.678506 13.342917,5.457659 13.342813,5.417279 13.345532,5.416766 13.346796,5.417152 13.39181,5.417179 13.406321,5.416679" style="fill: white" /><polygon type="contour" points="13.714602,6.270305 13.714471,6.273401 13.714516,6.315232 13.583693,6.314943 13.451689,6.314943 13.451824,6.274542 13.451884,6.214044 13.714652,6.214044" style="fill: white" /><polygon type="contour" points="13.714478,7.344332 13.714508,7.664602 13.500789,7.651809 13.448063,7.652281 13.448083,7.624252 13.448263,7.518272 13.449537,6.999577 13.449692,6.989485 13.450392,6.760482 13.450962,6.565672 13.714447,6.565672" style="fill: white" /><polygon type="contour" points="13.431854,14.429505 13.442493,14.429716 13.501267,14.429437 13.537132,14.429372 13.572823,14.429478 13.714905,14.429533 13.714624,14.65795 13.714546,14.696317 13.714413,14.761817 13.714373,14.841845 13.714373,14.853638 13.633696,14.853537 13.612177,14.853645 13.572461,14.85354 13.512274,14.85344 13.4624,14.853451 13.342222,14.853161 13.340851,14.462101 13.340773,14.428978" style="fill: white" /><polygon type="contour" points="12.917705,14.657949 12.917815,14.761817 12.917882,14.806679 12.917882,14.853499 12.841245,14.853499 12.81713,14.853621 12.817014,14.761816 12.816904,14.657949 12.81699,14.429639 12.896322,14.429639 12.917741,14.429239" style="fill: white" /><polygon type="contour" points="12.917657,15.636155 12.917433,15.703081 12.917433,15.779137 12.861785,15.778905 12.817018,15.778819 12.81647,15.667494 12.81647,15.636567 12.889117,15.63607" style="fill: white" /><polygon type="contour" points="13.346506,15.636423 13.34797,15.636429 13.34955,15.636438 13.350978,15.636433 13.351443,15.636457 13.368029,15.636451 13.714655,15.636612 13.714655,15.686513 13.714602,15.779205 13.714764,15.801769 13.714392,15.806518 13.714392,15.888103 13.714652,15.892062 13.714681,15.969383 13.61739,15.969612 13.381709,15.969612 13.381562,15.889568 13.381495,15.874196 13.381585,15.779437 13.342456,15.779225 13.342425,15.722134 13.342425,15.636528 13.339336,15.636413" style="fill: white" /><polygon type="contour" points="14.761814,15.636286 14.842806,15.636539 14.853667,15.636539 14.853667,15.779342 14.843967,15.779351 14.761815,15.779089 14.696315,15.77885 14.657948,15.778928 14.429532,15.779206 14.429532,15.636406 14.657948,15.636128" style="fill: white" /><polygon type="contour" points="15.96938,15.636181 15.96921,15.807305 15.969443,15.911236 15.969443,15.969446 15.71672,15.96971 15.715221,15.969452 15.636066,15.969268 15.636489,15.888104 15.636489,15.80652 15.636371,15.803764 15.636393,15.779193 15.636393,15.636396 15.779193,15.636396 15.803761,15.636373 15.888101,15.636492 15.892059,15.636155" style="fill: white" /><polygon type="contour" points="15.778926,14.657951 15.778848,14.696317 15.779087,14.761817 15.77934,14.853668 15.771427,14.853668 15.636538,14.853669 15.636286,14.761816 15.636127,14.657949 15.63642,14.471824 15.636403,14.429533 15.779203,14.429533" style="fill: white" /><polygon type="contour" points="14.853637,14.42867 14.853486,14.585016 14.853486,14.761816 14.853667,14.842807 14.853667,14.853668 14.761815,14.853488 14.585012,14.853488 14.428667,14.853638 14.428615,14.761816 14.428903,14.65795 14.429532,14.475337 14.429532,14.429533 14.657948,14.428905 14.761814,14.428617" style="fill: white" /><polygon type="contour" points="14.688254,11.470323 14.761815,11.486674 14.788781,11.482866 14.853562,11.473538 14.853482,11.784251 14.853509,11.866995 14.853509,12.569305 14.761815,12.570416 14.657948,12.568786 14.611194,12.566193 14.429423,12.566193 14.429593,12.563757 14.429526,12.549587 14.429466,12.546298 14.429472,12.529872 14.429472,11.716165 14.429448,11.703606 14.429523,11.656326 14.429569,11.647614 14.42932,11.474988 14.568319,11.455917 14.619105,11.431561" style="fill: white" /><polygon type="contour" points="15.874776,11.680411 15.874611,11.742644 15.87403,12.295679 15.874263,12.566417 15.698899,12.566985 15.63675,12.566802 15.636479,12.245352 15.63641,11.482905 15.731522,11.491227 15.837193,11.47402 15.874727,11.47402" style="fill: white" /><polygon type="contour" points="15.747888,12.817021 15.778816,12.817021 15.779148,12.888876 15.779135,12.917435 15.712383,12.917659 15.636154,12.917659 15.636492,12.861399 15.636564,12.816472" style="fill: white" /><polygon type="contour" points="15.780422,13.381053 15.874194,13.381496 15.889566,13.381564 15.891305,13.381593 15.96961,13.38171 15.96961,13.617391 15.969381,13.714682 15.888102,13.714393 15.801768,13.714766 15.779203,13.714604 15.697965,13.714604 15.636163,13.714667 15.636624,13.45049 15.63641,13.381241 15.636298,13.342426 15.779099,13.342426" style="fill: white" /><polygon type="contour" points="14.829782,13.343436 14.853399,13.343402 14.853439,13.512276 14.853393,13.533001 14.853626,13.578594 14.853543,13.597189 14.853644,13.611967 14.853634,13.625351 14.853637,13.714376 14.841844,13.714376 14.761815,13.714416 14.696315,13.714549 14.657948,13.714627 14.475335,13.714907 14.429532,13.714907 14.428979,13.561492 14.429345,13.539888 14.42937,13.537132 14.429436,13.501269 14.429713,13.442495 14.429504,13.431855 14.428977,13.340774" style="fill: white" /><polygon type="contour" points="14.761815,12.817016 14.834379,12.817132 14.85362,12.817132 14.85362,12.908036 14.853497,12.917884 14.761814,12.917816 14.657948,12.917707 14.429238,12.917743 14.429238,12.861235 14.429638,12.816991 14.657948,12.816906" style="fill: white" /><polygon type="contour" points="13.714399,12.294168 13.714442,12.371072 13.714475,12.462293 13.714447,12.566032 13.450962,12.566032 13.450426,12.442809 13.450393,12.371221 13.450071,12.291142 13.44969,12.142217 13.449535,12.132127 13.448262,11.61343 13.448142,11.479723 13.623087,11.479399 13.714579,11.462922" style="fill: white" /><polygon type="contour" points="13.714567,12.889119 13.714652,12.917659 13.451884,12.917659 13.451719,12.861398 13.45171,12.816472 13.714516,12.816472" style="fill: white" /><polygon type="contour" points="13.714922,13.346307 13.714927,13.347972 13.714723,13.350777 13.714801,13.401338 13.714411,13.421682 13.71463,13.441099 13.714895,13.459242 13.714727,13.475388 13.714564,13.481802 13.714819,13.488831 13.714608,13.492912 13.714602,13.714604 13.502791,13.714797 13.494856,13.714507 13.483053,13.714511 13.468041,13.714785 13.450938,13.71463 13.431971,13.7148 13.428036,13.71458 13.412293,13.714746 13.40632,13.715024 13.391823,13.714803 13.371312,13.714913 13.36141,13.714743 13.351609,13.714577 13.343945,13.714912 13.342813,13.714423 13.342917,13.674042 13.343019,13.453197 13.345127,13.453125 13.345289,13.453134 13.402807,13.452992 13.452873,13.452904 13.453131,13.345896 13.453123,13.345128 13.453195,13.343021 13.67404,13.342919 13.71442,13.342815" style="fill: white" /><polygon type="contour" points="12.857158,13.451826 12.917657,13.451886 12.917657,13.714655 12.861397,13.714605 12.81647,13.714519 12.816759,13.583695 12.816759,13.45169" style="fill: white" /><polygon type="contour" points="11.507449,13.448084 11.613428,13.448264 12.132125,13.449536 12.142215,13.449693 12.371218,13.450393 12.566029,13.450963 12.566029,13.71445 12.46229,13.714477 12.371069,13.714444 12.294166,13.714401 11.46292,13.714581 11.479335,13.493236 11.479421,13.448064" style="fill: white" /><polygon type="contour" points="11.647612,14.429571 11.703604,14.42945 11.716162,14.429473 12.529871,14.429473 12.546297,14.429467 12.563754,14.429594 12.566191,14.429424 12.568784,14.657949 12.570415,14.761817 12.569303,14.789717 12.569303,14.853511 11.866993,14.853511 11.784249,14.853484 11.473536,14.853565 11.486673,14.761817 11.469608,14.686985 11.43156,14.619106 11.455915,14.568321 11.474986,14.429322" style="fill: white" /><polygon type="contour" points="11.617109,15.636464 12.566029,15.63665 12.566414,15.767632 12.566729,15.87395 12.464107,15.873989 12.30291,15.874121 12.290879,15.874084 11.439009,15.874082 11.485646,15.653097 11.482925,15.636429" style="fill: white" /><polygon type="contour" points="4.702168,15.636406 4.702168,15.779206 4.473752,15.778928 4.435384,15.77885 4.369884,15.779089 4.278034,15.779343 4.278034,15.636539 4.369885,15.636286 4.473751,15.636128" style="fill: white" /><polygon type="contour" points="3.495579,13.327665 3.495601,13.336561 3.495598,13.341188 3.495089,13.714657 3.445188,13.714657 3.352495,13.714604 3.329932,13.714767 3.325183,13.714393 3.243597,13.714393 3.23964,13.714654 3.16232,13.714682 3.162091,13.617391 3.162091,13.38171 3.242135,13.381564 3.257503,13.381496 3.351411,13.381586 3.352601,13.342426 3.495401,13.342426 3.495578,13.327664" style="fill: white" /><polygon type="contour" points="3.495633,12.889119 3.495547,12.917659 3.42862,12.917435 3.352565,12.917435 3.352797,12.861787 3.352883,12.817021 3.464206,12.816472 3.495134,12.816472" style="fill: white" /><polygon type="contour" points="3.400178,11.491227 3.495291,11.482905 3.495238,11.617113 3.495051,12.566032 3.364068,12.566417 3.257438,12.566417 3.257671,12.295679 3.25709,11.742644 3.256924,11.680411 3.256974,11.47402" style="fill: white" /><polygon type="contour" points="4.563381,11.455917 4.702379,11.474988 4.702131,11.647615 4.702252,11.703606 4.702229,11.716164 4.702229,12.529872 4.702235,12.546298 4.702107,12.563757 4.702278,12.566192 4.473751,12.568786 4.369884,12.570416 4.341985,12.569305 4.278191,12.569305 4.278191,11.866995 4.278218,11.784251 4.278138,11.473538 4.369884,11.486674 4.443445,11.470323 4.512596,11.431561" style="fill: white" /><polygon type="contour" points="5.638464,11.479337 5.683637,11.479423 5.683616,11.507451 5.683438,11.61343 5.682166,12.132127 5.682008,12.142218 5.681308,12.37122 5.680738,12.566032 5.417252,12.566032 5.417224,12.462293 5.417255,12.371073 5.4173,12.294167 5.41712,11.462922" style="fill: white" /><polygon type="contour" points="7.650345,13.634037 7.664599,13.714511 6.837429,13.714487 6.753567,13.714507 6.66937,13.714518 6.565672,13.71445 6.565672,13.450963 6.688892,13.450427 6.76048,13.450394 6.84056,13.450071 6.989484,13.449693 6.999575,13.449536 7.518272,13.448263 7.651979,13.448144" style="fill: white" /><polygon type="contour" points="7.415537,14.429473 7.428096,14.42945 7.475376,14.429524 7.484087,14.42957 7.669462,14.4293 7.686793,14.572746 7.714259,14.623424 7.661226,14.690772 7.645027,14.761817 7.669362,14.805664 7.669533,14.853682 7.347449,14.853484 7.264704,14.85351 6.562397,14.85351 6.561285,14.761815 6.563009,14.657919 6.565672,14.610698 6.565672,14.427168 6.56817,14.426858 6.582642,14.425829 6.586,14.425661 6.602763,14.425365" style="fill: white" /><polygon type="contour" points="7.644374,15.822748 7.657681,15.874728 7.451289,15.874777 7.389057,15.874612 6.836022,15.874031 6.564972,15.87395 6.564972,15.767319 6.56521,15.686236 6.615125,15.686383 6.615124,15.636486 6.882309,15.636481 7.681885,15.636216" style="fill: white" /><polygon type="contour" points="6.314682,15.778819 6.299298,15.778758 6.256008,15.778984 6.24282,15.779149 6.214265,15.779137 6.214042,15.73425 6.214042,15.712386 6.214151,15.709072 6.214157,15.705041 6.214157,15.685891 6.262537,15.685891 6.263963,15.63611 6.269915,15.636104 6.314682,15.636019" style="fill: white" /><polygon type="contour" points="5.638913,15.636475 5.681212,15.636627 5.750461,15.636412 5.789244,15.636424 5.789244,15.779226 5.750114,15.779226 5.750205,15.874196 5.750139,15.889568 5.750107,15.891308 5.749989,15.969612 5.51431,15.969612 5.41702,15.969383 5.417309,15.888103 5.416937,15.801768 5.417098,15.779206 5.417098,15.697969 5.417036,15.636166" style="fill: white" /><polygon type="contour" points="5.789597,14.829785 5.78955,14.853404 5.669299,14.853451 5.619426,14.85344 5.559238,14.85354 5.519521,14.853645 5.498004,14.853537 5.417327,14.853638 5.417327,14.841844 5.417286,14.761816 5.417152,14.696317 5.417074,14.657949 5.416796,14.475336 5.416796,14.429533 5.594568,14.429372 5.630433,14.429436 5.689206,14.429716 5.699845,14.429505 5.790927,14.428978" style="fill: white" /><polygon type="contour" points="6.315001,14.65792 6.314686,14.761816 6.314571,14.834379 6.314571,14.853619 6.223664,14.853621 6.213819,14.853499 6.213885,14.761816 6.213994,14.65795 6.21396,14.429239 6.270304,14.426439 6.31523,14.425698" style="fill: white" /><polygon type="contour" points="6.31523,13.714519 6.242578,13.71457 6.214042,13.714655 6.214042,13.451886 6.270303,13.45172 6.31523,13.451711" style="fill: white" /><polygon type="contour" points="5.457657,13.342919 5.678505,13.343021 5.678578,13.345129 5.678799,13.401274 5.678243,13.452872 5.786401,13.453134 5.786572,13.453125 5.788681,13.453197 5.788783,13.674042 5.788887,13.714423 5.786168,13.714938 5.784905,13.71455 5.739889,13.714525 5.72538,13.715023 5.719405,13.714746 5.703662,13.71458 5.69973,13.7148 5.680761,13.714629 5.664962,13.71484 5.649898,13.714565 5.63824,13.714867 5.630761,13.714801 5.417098,13.714604 5.417092,13.492911 5.41688,13.48883 5.417137,13.481802 5.416974,13.475388 5.416804,13.459242 5.417069,13.441099 5.41729,13.421682 5.416898,13.401338 5.416977,13.350777 5.416773,13.347972 5.416778,13.346507 5.417277,13.342815" style="fill: white" /><polygon type="contour" points="5.548006,12.816761 5.680011,12.816761 5.679875,12.85716 5.679816,12.917659 5.417047,12.917659 5.417098,12.861398 5.417184,12.816472" style="fill: white" /><polygon type="contour" points="4.702062,12.816991 4.702062,12.896324 4.702462,12.917743 4.473752,12.917707 4.369885,12.917817 4.32502,12.917884 4.278203,12.917884 4.278203,12.841247 4.27808,12.817132 4.369885,12.817016 4.473752,12.816906" style="fill: white" /><polygon type="contour" points="4.702723,13.340774 4.702195,13.431856 4.701987,13.442495 4.70233,13.537133 4.702355,13.539888 4.702222,13.572824 4.702168,13.714907 4.656363,13.714907 4.473752,13.714627 4.435383,13.714548 4.369884,13.714416 4.289856,13.714376 4.278063,13.714376 4.278066,13.625351 4.278055,13.611967 4.278157,13.597188 4.278073,13.578595 4.278305,13.533 4.278261,13.512276 4.278302,13.343402 4.681915,13.340721" style="fill: white" /><polygon type="contour" points="4.473752,14.428905 4.656364,14.429533 4.702168,14.429533 4.702795,14.657949 4.703085,14.761816 4.703031,14.841844 4.703031,14.853638 4.546686,14.853488 4.369884,14.853488 4.288895,14.853668 4.278034,14.853668 4.278214,14.761817 4.278214,14.585016 4.278063,14.42867 4.369885,14.428617" style="fill: white" /><polygon type="contour" points="3.495573,14.657949 3.495412,14.761817 3.49516,14.842807 3.49516,14.853668 3.35236,14.853668 3.352352,14.843968 3.352613,14.761817 3.352853,14.696317 3.352773,14.65795 3.352495,14.429533 3.495296,14.429533" style="fill: white" /><polygon type="contour" points="3.243597,15.636492 3.325184,15.636492 3.327938,15.636373 3.352506,15.636396 3.495307,15.636396 3.495307,15.779195 3.495329,15.803763 3.495211,15.888103 3.495547,15.892061 3.495634,15.969268 3.416478,15.969452 3.414977,15.96971 3.162256,15.969446 3.162256,15.911237 3.162488,15.807304 3.16232,15.636181" style="fill: white" />
</svg>
