<svg width="19.131698" height="19.131699">
<polygon type="contour" points="10.738528,8.556451 10.738135,8.582085 10.737994,8.673503 10.458199,8.673503 10.458199,8.560307 10.458426,8.507254 10.459009,8.480361 10.459262,8.435505 10.460777,8.3909 10.601638,8.392666 10.627359,8.391878 10.743096,8.388604" style="fill: white" /><polygon type="contour" points="10.218364,8.560871 10.2512,8.560788 10.2512,8.673702 10.215893,8.673702 10.14952,8.673722 10.149491,8.650167 10.149491,8.560693" style="fill: white" /><polygon type="contour" points="10.019366,8.560692 10.019401,8.586408 10.019401,8.673722 9.996693,8.673722 9.920425,8.673792 9.920322,8.635426 9.920322,8.560934 9.996777,8.560681" style="fill: white" /><polygon type="contour" points="9.632658,8.393228 9.711101,8.393864 9.711101,8.585415 9.71177,8.673679 9.419931,8.673679 9.4206,8.63823 9.4206,8.393864 9.467953,8.392315 9.566198,8.39112" style="fill: white" /><polygon type="contour" points="8.504341,8.391878 8.521385,8.392552 8.530062,8.392666 8.670924,8.3909 8.672439,8.435505 8.672439,8.478286 8.67269,8.480361 8.673273,8.507254 8.673501,8.560308 8.673501,8.673503 8.393706,8.673503 8.393565,8.582085 8.393171,8.556451 8.39067,8.47727 8.390418,8.471178 8.388769,8.45495 8.388603,8.388605" style="fill: white" /><polygon type="contour" points="8.982209,8.560693 8.982181,8.586408 8.982181,8.673722 8.958828,8.673722 8.880501,8.673702 8.880501,8.560788 8.958829,8.560643" style="fill: white" /><polygon type="contour" points="9.17971,8.560959 9.211378,8.560934 9.211378,8.635427 9.211276,8.673792 9.177217,8.673792 9.1123,8.673722 9.112335,8.650167 9.112335,8.560693" style="fill: white" /><polygon type="contour" points="9.211608,9.134927 9.211378,9.21138 9.177273,9.21138 9.112208,9.21161 9.112335,9.190761 9.112335,9.112338 9.134924,9.112211 9.211608,9.112211" style="fill: white" /><polygon type="contour" points="9.211539,8.958832 9.211608,8.982156 9.19076,8.982212 9.112335,8.982212 9.1123,8.958831 9.1123,8.880682 9.135007,8.880682 9.213525,8.880503" style="fill: white" /><polygon type="contour" points="8.982181,8.880682 8.982209,8.902127 8.982209,8.982212 8.958829,8.982183 8.88068,8.982183 8.88068,8.958831 8.880501,8.880503 8.915807,8.880503" style="fill: white" /><polygon type="contour" points="8.902126,9.112338 8.982209,9.112338 8.982153,9.134926 8.982153,9.21161 8.958828,9.212023 8.880557,9.212002 8.880557,9.17722 8.88068,9.112303" style="fill: white" /><polygon type="contour" points="8.6737,8.915809 8.67372,8.982183 8.650165,8.982212 8.560692,8.982212 8.56087,8.913337 8.560787,8.880503 8.6737,8.880503" style="fill: white" /><polygon type="contour" points="8.67372,9.135493 8.67379,9.212002 8.635424,9.21138 8.560932,9.21138 8.560681,9.134926 8.560692,9.112338 8.586407,9.112303 8.67372,9.112303" style="fill: white" /><polygon type="contour" points="8.673501,10.571395 8.673273,10.624449 8.67269,10.651342 8.672439,10.696198 8.670924,10.740803 8.530062,10.739038 8.504341,10.739826 8.388603,10.743099 8.393171,10.575252 8.393565,10.549618 8.393706,10.458201 8.673501,10.458201" style="fill: white" /><polygon type="contour" points="8.586407,10.149522 8.67372,10.149522 8.67372,10.172873 8.6737,10.251202 8.560787,10.251202 8.560642,10.172873 8.560692,10.149493" style="fill: white" /><polygon type="contour" points="8.673677,9.711772 8.638228,9.711102 8.391684,9.711102 8.390789,9.629152 8.391095,9.565502 8.391945,9.474721 8.391684,9.420602 8.673677,9.420602" style="fill: white" /><polygon type="contour" points="8.67379,9.920427 8.67379,9.954484 8.67372,10.019402 8.650165,10.019367 8.560692,10.019367 8.560958,9.95199 8.560932,9.920324 8.635424,9.920324" style="fill: white" /><polygon type="contour" points="8.958829,9.920164 8.982153,9.920094 8.982209,9.940941 8.982209,10.019366 8.958828,10.019402 8.88068,10.019402 8.88068,9.996695 8.880501,9.918178" style="fill: white" /><polygon type="contour" points="8.982153,9.711102 8.915566,9.711102 8.880501,9.711832 8.880501,9.420602 8.982153,9.420602" style="fill: white" /><polygon type="contour" points="9.211378,9.711102 9.112208,9.711102 9.112208,9.420602 9.211378,9.420602" style="fill: white" /><polygon type="contour" points="9.211378,9.920324 9.211378,9.954427 9.211608,10.019493 9.190759,10.019367 9.112335,10.019367 9.112208,9.996777 9.112208,9.920094 9.134924,9.920094" style="fill: white" /><polygon type="contour" points="9.134923,10.149549 9.211608,10.149549 9.212021,10.172873 9.214254,10.251202 9.135489,10.251022 9.1123,10.251022 9.112335,10.229575 9.112335,10.149493" style="fill: white" /><polygon type="contour" points="8.982181,10.172873 8.982181,10.251022 8.958828,10.251022 8.880501,10.251202 8.880501,10.215895 8.88068,10.149522 8.902126,10.149493 8.982209,10.149493" style="fill: white" /><polygon type="contour" points="8.982209,10.481537 8.982209,10.571009 8.913335,10.570834 8.880501,10.570917 8.880501,10.458002 8.915807,10.458002 8.982181,10.457982" style="fill: white" /><polygon type="contour" points="9.211378,10.496277 9.211378,10.570771 9.134924,10.57102 9.112335,10.571009 9.1123,10.545293 9.1123,10.457982 9.135489,10.457982 9.212,10.457912" style="fill: white" /><polygon type="contour" points="9.711101,10.73784 9.663748,10.73939 9.565501,10.740585 9.499042,10.738476 9.4206,10.73784 9.4206,10.458024 9.711101,10.458024" style="fill: white" /><polygon type="contour" points="10.2512,10.458001 10.2512,10.570917 10.172871,10.57106 10.149491,10.571009 10.14952,10.545293 10.14952,10.457982 10.172871,10.457982" style="fill: white" /><polygon type="contour" points="10.019401,10.457982 10.019366,10.481536 10.019366,10.571009 9.951989,10.570746 9.920322,10.570771 9.920322,10.496276 9.919701,10.457912 9.954482,10.457912" style="fill: white" /><polygon type="contour" points="9.711101,10.251202 9.4206,10.251202 9.4206,10.149549 9.711101,10.149549" style="fill: white" /><polygon type="contour" points="9.711101,10.019493 9.4206,10.019493 9.4206,9.920324 9.711101,9.920324" style="fill: white" /><polygon type="contour" points="9.711101,9.711102 9.4206,9.711102 9.4206,9.420602 9.711101,9.420602" style="fill: white" /><polygon type="contour" points="9.711101,9.21138 9.4206,9.21138 9.4206,9.112211 9.711101,9.112211" style="fill: white" /><polygon type="contour" points="9.711101,8.915568 9.711101,8.982156 9.4206,8.982156 9.420117,8.958832 9.41987,8.880503 9.711831,8.880503" style="fill: white" /><polygon type="contour" points="9.996694,8.880682 10.019401,8.880682 10.019366,8.902128 10.019366,8.982212 9.996777,8.982156 9.920093,8.982156 9.920161,8.958831 9.920425,8.880559" style="fill: white" /><polygon type="contour" points="9.94094,9.112338 10.019366,9.112338 10.019492,9.134926 10.019492,9.21161 9.996777,9.21161 9.920322,9.21138 9.920322,9.177275 9.920093,9.112211" style="fill: white" /><polygon type="contour" points="10.25102,9.13501 10.2512,9.213527 10.17287,9.211541 10.149548,9.21161 10.149491,9.190761 10.149491,9.112338 10.172871,9.112303 10.25102,9.112303" style="fill: white" /><polygon type="contour" points="10.2512,8.915808 10.25102,8.982183 10.229573,8.982212 10.149491,8.982212 10.14952,8.958832 10.14952,8.880682 10.172871,8.880682 10.2512,8.880503" style="fill: white" /><polygon type="contour" points="10.571057,8.958832 10.571007,8.982212 10.545291,8.982183 10.45798,8.982183 10.45798,8.958831 10.457999,8.880503 10.570914,8.880503" style="fill: white" /><polygon type="contour" points="10.481534,9.112338 10.571007,9.112338 10.570743,9.179712 10.570769,9.21138 10.496275,9.21138 10.45791,9.211276 10.45791,9.17722 10.45798,9.112303" style="fill: white" /><polygon type="contour" points="10.49347,9.420602 10.740016,9.420602 10.74091,9.502551 10.740605,9.566201 10.739755,9.656982 10.740016,9.711102 10.458022,9.711102 10.458022,9.419933" style="fill: white" /><polygon type="contour" points="10.2512,9.711102 10.149548,9.711102 10.149548,9.420602 10.216134,9.420602 10.2512,9.419872" style="fill: white" /><polygon type="contour" points="10.019492,9.711102 9.920322,9.711102 9.920322,9.420602 10.019492,9.420602" style="fill: white" /><polygon type="contour" points="10.019366,9.940942 10.019366,10.019367 9.996776,10.019493 9.920093,10.019493 9.920093,9.996777 9.920322,9.920324 9.954426,9.920324 10.019492,9.920094" style="fill: white" /><polygon type="contour" points="10.019401,10.172873 10.019401,10.251022 9.99621,10.251022 9.919701,10.251146 9.919679,10.172873 9.920093,10.149548 9.940939,10.149493 10.019365,10.149493" style="fill: white" /><polygon type="contour" points="10.17287,10.149522 10.25102,10.149522 10.25102,10.172873 10.2512,10.251202 10.215894,10.251202 10.14952,10.251022 10.149491,10.229575 10.149491,10.149493" style="fill: white" /><polygon type="contour" points="10.2512,9.952509 10.25102,10.019402 10.229573,10.019367 10.149491,10.019367 10.149548,9.996777 10.149548,9.920094 10.172871,9.91968 10.2512,9.917447" style="fill: white" /><polygon type="contour" points="10.496275,9.920324 10.570769,9.920324 10.571018,9.996777 10.571007,10.019367 10.545291,10.019402 10.45798,10.019402 10.45798,9.996212 10.45791,9.919702" style="fill: white" /><polygon type="contour" points="10.570831,10.218367 10.570914,10.251202 10.458,10.251202 10.458,10.215895 10.45798,10.149522 10.481534,10.149493 10.571007,10.149493" style="fill: white" /><polygon type="contour" points="10.738135,10.549618 10.738528,10.575252 10.74103,10.654434 10.741281,10.660525 10.742931,10.676752 10.743095,10.743099 10.627359,10.739826 10.610313,10.739151 10.601638,10.739038 10.460777,10.740803 10.459262,10.696198 10.459262,10.653417 10.45901,10.651342 10.458426,10.624449 10.458199,10.571396 10.458199,10.458201 10.737994,10.458201" style="fill: white" />
</svg>
