<svg width="19.131698" height="19.131699">
<polygon type="contour" points="8.488765,8.401313 8.502019,8.401837 8.508766,8.401925 8.680415,8.399773 8.682261,8.454128 8.682261,8.50626 8.682567,8.508788 8.683009,8.529187 8.683182,8.569433 8.683182,8.683184 8.402831,8.683184 8.402624,8.549219 8.402318,8.529287 8.400373,8.467714 8.400177,8.462977 8.398894,8.450358 8.398766,8.398767" style="fill: white" /><polygon type="contour" points="10.729076,10.582484 10.729381,10.602416 10.731326,10.663989 10.731523,10.668727 10.732805,10.681345 10.732934,10.732937 10.642934,10.730391 10.629681,10.729867 10.622934,10.729779 10.451286,10.731929 10.449439,10.677575 10.449439,10.625444 10.449132,10.622916 10.44869,10.602516 10.448518,10.562271 10.448518,10.44852 10.72887,10.44852" style="fill: white" /><polygon type="contour" points="10.729382,8.529287 10.729076,8.549219 10.72887,8.683184 10.448518,8.683184 10.448518,8.569432 10.44869,8.529187 10.449133,8.508788 10.449439,8.454127 10.451286,8.399773 10.622934,8.401925 10.642935,8.401312 10.732934,8.398767" style="fill: white" /><polygon type="contour" points="9.711101,8.990989 9.711101,9.114846 9.4206,9.114846 9.4206,9.015994 9.420507,8.986523 9.711194,8.986523" style="fill: white" /><polygon type="contour" points="9.711101,9.711102 9.4206,9.711102 9.4206,9.420602 9.711101,9.420602" style="fill: white" /><polygon type="contour" points="9.711101,10.145182 9.4206,10.145182 9.4206,10.016858 9.711101,10.016858" style="fill: white" /><polygon type="contour" points="9.711101,10.728722 9.641898,10.730986 9.565501,10.731916 9.480039,10.729203 9.4206,10.728722 9.4206,10.44826 9.711101,10.44826" style="fill: white" /><polygon type="contour" points="10.043553,10.44812 10.115709,10.44822 10.14518,10.448228 10.14518,10.561569 10.115709,10.561623 10.08014,10.561824 10.043554,10.561523 10.020549,10.561433 10.016856,10.561436 10.016856,10.452569 10.016784,10.448097 10.02084,10.448097" style="fill: white" /><polygon type="contour" points="10.452567,10.016858 10.561433,10.016858 10.56152,10.043556 10.561822,10.080141 10.56162,10.11571 10.561554,10.140999 10.561565,10.145182 10.448226,10.145182 10.448226,10.140684 10.448218,10.11571 10.448119,10.043555 10.448095,10.016786" style="fill: white" /><polygon type="contour" points="10.14518,10.017947 10.145112,10.043116 10.145112,10.11571 10.14518,10.145182 10.140681,10.145182 10.115709,10.145114 10.043554,10.145057 10.016784,10.1451 10.016776,10.117713 10.016776,10.043555 10.016856,10.016858 10.020833,10.016858 10.043554,10.016778 10.115708,10.014321 10.14518,10.013481" style="fill: white" /><polygon type="contour" points="10.14518,9.711102 10.016856,9.711102 10.016856,9.420602 10.140713,9.420602 10.14518,9.420509" style="fill: white" /><polygon type="contour" points="10.44847,9.420602 10.731628,9.420602 10.732324,9.484325 10.731931,9.566202 10.731271,9.636794 10.731628,9.711102 10.448258,9.711102 10.448258,9.420598" style="fill: white" /><polygon type="contour" points="10.56162,9.015993 10.561822,9.051563 10.56152,9.088147 10.56143,9.111152 10.561433,9.114846 10.452567,9.114846 10.448095,9.114834 10.448095,9.110861 10.448118,9.088148 10.448218,9.015993 10.448226,8.986523 10.561566,8.986523" style="fill: white" /><polygon type="contour" points="10.14518,8.991021 10.145112,9.015993 10.145112,9.088587 10.14518,9.11813 10.115709,9.117383 10.043554,9.114926 10.016856,9.114846 10.016856,9.110868 10.016776,9.088147 10.016776,9.013991 10.016868,8.986605 10.043553,8.986648 10.115708,8.98659 10.14518,8.986523" style="fill: white" /><polygon type="contour" points="10.115708,8.570081 10.140997,8.570147 10.14518,8.570136 10.14518,8.683476 10.140682,8.683476 10.115708,8.683484 10.043554,8.683582 10.016868,8.683607 10.016856,8.679134 10.016856,8.570269 10.043554,8.570181 10.080139,8.569879" style="fill: white" /><polygon type="contour" points="9.651659,8.4025 9.711101,8.402982 9.711101,8.682914 9.711105,8.683442 9.420596,8.683442 9.4206,8.683229 9.4206,8.402982 9.489801,8.400717 9.566198,8.399787" style="fill: white" /><polygon type="contour" points="9.088145,8.57018 9.11115,8.570271 9.114844,8.570268 9.114844,8.679134 9.114832,8.683607 9.110859,8.683607 9.088146,8.683583 9.015991,8.683484 8.986521,8.683476 8.986521,8.570136 9.015991,8.570082 9.051561,8.569879" style="fill: white" /><polygon type="contour" points="9.015991,8.98659 9.088584,8.98659 9.118127,8.986523 9.11738,9.015993 9.114924,9.088148 9.114844,9.114846 9.110866,9.114846 9.088146,9.114926 9.013989,9.114926 8.986604,9.114918 8.986604,9.110861 8.986647,9.088148 8.986588,9.015993 8.986521,8.986523 8.991019,8.986523" style="fill: white" /><polygon type="contour" points="8.683474,8.99102 8.683482,9.015994 8.68358,9.088147 8.683605,9.114918 8.679132,9.114846 8.570268,9.114846 8.57018,9.088148 8.569877,9.051564 8.570081,9.015994 8.570146,8.990705 8.570135,8.986523 8.683474,8.986523" style="fill: white" /><polygon type="contour" points="8.683605,10.01687 8.683605,10.020842 8.683581,10.043555 8.683482,10.115711 8.683474,10.145182 8.570135,10.145182 8.570081,10.115711 8.569877,10.080141 8.570179,10.043555 8.57027,10.020551 8.570267,10.016858 8.679132,10.016858" style="fill: white" /><polygon type="contour" points="8.68344,9.711106 8.683227,9.711102 8.400071,9.711102 8.399376,9.647378 8.399769,9.565501 8.40043,9.494909 8.400072,9.420602 8.68344,9.420602" style="fill: white" /><polygon type="contour" points="9.114844,9.711102 8.990987,9.711102 8.986521,9.711195 8.986521,9.420602 9.114844,9.420602" style="fill: white" /><polygon type="contour" points="9.015991,10.01432 9.088145,10.016777 9.114844,10.016858 9.114844,10.020835 9.114924,10.043555 9.11738,10.115711 9.11822,10.145182 9.088584,10.145114 9.015992,10.145114 8.986521,10.145182 8.986521,10.140683 8.986588,10.115711 8.986588,10.043116 8.986521,10.013574" style="fill: white" /><polygon type="contour" points="9.114844,10.452569 9.114844,10.561436 9.088145,10.561523 9.05156,10.561824 9.015992,10.561623 8.990703,10.561557 8.986521,10.561568 8.986521,10.448228 8.991018,10.448228 9.015992,10.44822 9.088145,10.448121 9.114916,10.448097" style="fill: white" /><polygon type="contour" points="8.683182,10.562272 8.683009,10.602515 8.682567,10.622916 8.682261,10.677576 8.680415,10.731929 8.508766,10.729779 8.488765,10.730392 8.398765,10.732937 8.402318,10.602416 8.402624,10.582484 8.402831,10.44852 8.683182,10.44852" style="fill: white" />
</svg>
