<svg width="19.131698" height="19.131699">
<polygon type="contour" points="10.353961,8.594484 10.381701,8.598103 10.386064,8.599364 10.413199,8.607203 10.417174,8.609141 10.441899,8.621203 10.445583,8.62382 10.468501,8.6401 10.4717,8.643299 10.491599,8.663201 10.494217,8.666886 10.510499,8.689802 10.512437,8.693778 10.524498,8.718502 10.525759,8.722865 10.533601,8.750002 10.534182,8.754462 10.537801,8.782203 10.537607,8.786662 10.536401,8.8144 10.535528,8.818861 10.530099,8.846602 10.528451,8.850771 10.5182,8.876701 10.515872,8.88058 10.501399,8.904702 10.498489,8.908096 10.480399,8.929202 10.480399,10.202502 10.501398,10.227001 10.503727,10.230881 10.518201,10.255003 10.519849,10.259173 10.530098,10.285101 10.530971,10.289562 10.536401,10.317304 10.536594,10.321763 10.537801,10.349502 10.537218,10.353963 10.5336,10.381702 10.53234,10.386064 10.524499,10.4132 10.52256,10.417176 10.510498,10.441901 10.50788,10.445586 10.491599,10.468502 10.488398,10.471703 10.468501,10.491601 10.464815,10.494219 10.441899,10.5105 10.437922,10.512441 10.413198,10.524502 10.408836,10.525762 10.381701,10.533602 10.377239,10.534184 10.3495,10.537803 10.34504,10.537609 10.317301,10.536403 10.312841,10.53553 10.2851,10.530101 10.280929,10.528452 10.254999,10.518203 10.25112,10.515874 10.227,10.501401 10.223605,10.498491 10.2025,10.480402 8.929199,10.480402 8.904699,10.501401 8.90082,10.503729 8.8767,10.518202 8.872529,10.519851 8.846601,10.530101 8.842139,10.530974 8.814398,10.536403 8.809939,10.536596 8.782201,10.537803 8.777739,10.53722 8.749998,10.533602 8.745635,10.53234 8.718501,10.524502 8.714525,10.522562 8.689801,10.510501 8.686115,10.507882 8.663199,10.491601 8.659999,10.488401 8.640099,10.468502 8.637482,10.464818 8.621202,10.441901 8.619263,10.437925 8.607202,10.413201 8.605941,10.408838 8.598099,10.381701 8.597518,10.377241 8.5939,10.349502 8.594093,10.345042 8.595299,10.317303 8.596172,10.312843 8.601602,10.285102 8.60325,10.280931 8.613499,10.255003 8.615827,10.251123 8.6303,10.227001 8.633208,10.223608 8.651301,10.202502 8.651301,8.929201 8.6303,8.904702 8.627972,8.900822 8.613499,8.8767 8.611851,8.87253 8.601602,8.846602 8.600728,8.84214 8.5953,8.8144 8.595106,8.809941 8.5939,8.782203 8.594481,8.777742 8.5981,8.750002 8.59936,8.745639 8.607201,8.718503 8.60914,8.714527 8.621202,8.689802 8.623819,8.686118 8.6401,8.6632 8.6433,8.66 8.663199,8.6401 8.666884,8.637481 8.689801,8.621203 8.693776,8.619264 8.7185,8.607203 8.722863,8.605942 8.749999,8.598103 8.754459,8.597521 8.782201,8.593902 8.78666,8.594095 8.814399,8.595301 8.818859,8.596174 8.8466,8.601604 8.850771,8.603252 8.876699,8.613501 8.880579,8.615829 8.9047,8.630301 8.908093,8.633209 8.9292,8.651302 10.2025,8.651302 10.226999,8.630301 10.230878,8.627974 10.255,8.613502 10.25917,8.611853 10.2851,8.601603 10.289561,8.60073 10.317302,8.595302 10.321761,8.595108 10.3495,8.593902" style="fill: white" />
</svg>
