<svg width="19.131698" height="19.131699">
<polygon type="contour" points="12.895371,10.866494 12.894181,10.947094 12.896505,11.158518 12.637574,11.158557 12.606103,11.158557 12.606068,11.107621 12.606646,10.868014 12.77776,10.865871" style="fill: white" /><polygon type="contour" points="12.719626,11.727446 12.719199,11.831617 12.719208,11.890561 12.719225,11.966632 12.719481,12.02628 12.719476,12.038814 12.603974,12.038814 12.603974,12.025909 12.603722,11.966631 12.603697,11.831618 12.604114,11.699217 12.719616,11.699217" style="fill: white" /><polygon type="contour" points="12.896037,12.651029 12.90662,12.906621 12.795576,12.90237 12.606428,12.89671 12.606428,12.801228 12.60674,12.618806 12.60674,12.606742 12.640223,12.606693 12.894285,12.604467" style="fill: white" /><polygon type="contour" points="11.96663,12.603725 12.025908,12.603976 12.038813,12.603976 12.038813,12.719477 12.026279,12.719482 11.96663,12.719226 11.890561,12.719212 11.831615,12.7192 11.727445,12.719628 11.699215,12.719618 11.699693,12.616777 11.699693,12.604049 11.829736,12.603667" style="fill: white" /><polygon type="contour" points="11.158556,12.606104 11.158556,12.618708 11.158299,12.671538 11.158299,12.769103 11.158422,12.822745 11.158517,12.896506 10.946291,12.894134 10.866328,12.895326 10.868281,12.6576 10.868012,12.606648 11.10762,12.60607" style="fill: white" /><polygon type="contour" points="11.158652,11.699217 11.158652,11.729538 11.158492,11.831617 11.158337,11.890561 11.158595,11.966631 11.158733,12.025282 11.158733,12.038791 11.127038,12.038849 10.864269,12.038849 10.864139,11.966632 10.864336,11.890562 10.864136,11.831617 10.864379,11.747775 10.864379,11.699144 11.105483,11.699144" style="fill: white" /><polygon type="contour" points="11.831615,11.699219 11.966631,11.699232 12.02528,11.699236 12.03879,11.699236 12.038831,11.792409 12.038831,11.966631 12.038813,12.025909 12.038813,12.038814 11.96663,12.038832 11.792407,12.038832 11.699234,12.038791 11.69923,11.966632 11.699234,11.949202 11.699215,11.699217" style="fill: white" /><polygon type="contour" points="11.890561,10.864338 11.966631,10.864141 12.016398,10.86427 12.038847,10.86427 12.038847,11.127041 12.03879,11.158735 12.025281,11.158735 11.96663,11.158596 11.890561,11.158339 11.831615,11.158493 11.729537,11.158654 11.699215,11.158654 11.699143,11.105485 11.699143,10.86438 11.831615,10.864138" style="fill: white" /><polygon type="contour" points="11.158423,10.867522 11.158423,11.158425 10.86752,11.158425 10.8662,10.952443 10.866961,10.937105 10.869213,10.869215 10.914884,10.869936 10.937102,10.866964 10.952441,10.866202" style="fill: white" /><polygon type="contour" points="11.158733,7.092913 11.158733,7.106422 11.158595,7.16507 11.158337,7.241139 11.158491,7.300084 11.158652,7.402166 11.158652,7.432487 11.105483,7.43256 10.864379,7.43256 10.864136,7.300085 10.864336,7.24114 10.864139,7.16507 10.864269,7.115303 10.864269,7.092855 11.127038,7.092855" style="fill: white" /><polygon type="contour" points="11.158423,7.973279 11.158423,8.264181 10.952441,8.265503 10.937101,8.264739 10.869213,8.262489 10.869934,8.216817 10.866962,8.1946 10.8662,8.17926 10.867782,7.972929 10.954168,7.972929" style="fill: white" /><polygon type="contour" points="12.038847,8.004662 12.038847,8.267432 11.96663,8.267562 11.890561,8.267366 11.831615,8.267566 11.747773,8.267323 11.699143,8.267323 11.699143,8.026218 11.699215,7.97305 11.729537,7.97305 11.831615,7.97321 11.890561,7.973365 11.96663,7.973107 12.025281,7.972969 12.03879,7.972969" style="fill: white" /><polygon type="contour" points="12.896505,7.973186 12.894285,8.185512 12.895447,8.265289 12.657598,8.263419 12.606646,8.26369 12.606069,8.02408 12.606103,7.973144 12.637574,7.973144" style="fill: white" /><polygon type="contour" points="12.901877,6.344825 12.894285,6.527236 12.842761,6.527183 12.618805,6.524959 12.60674,6.524959 12.60674,6.235307 12.621257,6.234673 12.90662,6.225082" style="fill: white" /><polygon type="contour" points="12.719481,7.105424 12.719225,7.16507 12.719208,7.24114 12.719199,7.300084 12.719626,7.404259 12.719616,7.432488 12.616775,7.432007 12.604048,7.432007 12.603667,7.301963 12.603723,7.165071 12.603974,7.105795 12.603974,7.092889 12.719476,7.092889" style="fill: white" /><polygon type="contour" points="12.025908,7.092889 12.038813,7.092889 12.038831,7.16507 12.038831,7.339293 12.03879,7.432467 11.966631,7.432472 11.949201,7.432467 11.699215,7.432488 11.699218,7.300084 11.69923,7.16507 11.699234,7.106422 11.699234,7.092913 11.792406,7.092871 11.96663,7.092871" style="fill: white" /><polygon type="contour" points="11.831615,6.412503 11.890561,6.412491 11.96663,6.412478 12.026279,6.412222 12.038813,6.412227 12.038813,6.527728 12.025908,6.527728 11.96663,6.527979 11.829736,6.528036 11.699693,6.527654 11.699693,6.514926 11.699215,6.412087 11.727445,6.412076" style="fill: white" /><polygon type="contour" points="11.158517,6.301822 11.158556,6.512995 11.158556,6.525599 11.10762,6.525633 10.868012,6.525054 10.865454,6.35394 10.866075,6.23633 10.946589,6.23752 11.158517,6.235196" style="fill: white" /><polygon type="contour" points="6.335955,6.229251 6.525156,6.234877 6.525188,6.408729 6.524936,6.494845 6.524958,6.512893 6.524958,6.524959 6.491476,6.525008 6.237415,6.527236 6.235661,6.480673 6.22508,6.225082" style="fill: white" /><polygon type="contour" points="6.527726,7.105795 6.527976,7.165071 6.528002,7.300084 6.527586,7.432488 6.412085,7.432488 6.412074,7.404258 6.412502,7.300085 6.41249,7.241139 6.412476,7.165071 6.412218,7.105423 6.412224,7.092889 6.527726,7.092889" style="fill: white" /><polygon type="contour" points="8.260577,8.01437 8.262487,8.262489 8.216815,8.261768 8.194598,8.26474 8.179258,8.265503 7.972928,8.263921 7.972928,8.177535 7.973277,7.973279 8.177532,7.972929 8.263919,7.972929" style="fill: white" /><polygon type="contour" points="8.267561,7.16507 8.267364,7.24114 8.267564,7.300084 8.267321,7.383929 8.267321,7.43256 8.026216,7.432561 7.973048,7.432488 7.973048,7.402167 7.973209,7.300084 7.973362,7.241139 7.973104,7.16507 7.972967,7.106422 7.972967,7.092913 8.004661,7.092855 8.267432,7.092855" style="fill: white" /><polygon type="contour" points="8.18541,6.237569 8.265372,6.236378 8.263418,6.474101 8.263688,6.525054 8.024078,6.525633 7.973142,6.525599 7.973142,6.512995 7.973401,6.460163 7.973401,6.3626 7.973277,6.308958 7.973183,6.235196" style="fill: white" /><polygon type="contour" points="7.432485,6.412087 7.432005,6.514926 7.432005,6.527654 7.301959,6.528036 7.165068,6.527979 7.105792,6.527728 7.092887,6.527728 7.092887,6.412227 7.105421,6.412222 7.165068,6.412478 7.241136,6.412491 7.300081,6.412503 7.404256,6.412076" style="fill: white" /><polygon type="contour" points="7.432465,7.092913 7.432469,7.16507 7.432465,7.182501 7.432485,7.432488 7.300081,7.432485 7.165068,7.432472 7.106419,7.432467 7.09291,7.432467 7.092869,7.339293 7.092869,7.16507 7.092887,7.105794 7.092887,7.092889 7.165068,7.092872 7.339291,7.092872" style="fill: white" /><polygon type="contour" points="7.165068,7.973107 7.241136,7.973365 7.300081,7.973211 7.402163,7.97305 7.432485,7.97305 7.432558,8.026218 7.432558,8.267323 7.300082,8.267566 7.241137,8.267366 7.165067,8.267562 7.1153,8.267433 7.092853,8.267433 7.092853,8.004662 7.09291,7.972969 7.106419,7.972969" style="fill: white" /><polygon type="contour" points="6.525631,8.02408 6.525052,8.26369 6.353938,8.265832 6.236328,8.26521 6.237517,8.18461 6.235195,7.973186 6.494125,7.973144 6.525597,7.973144" style="fill: white" /><polygon type="contour" points="6.474099,10.868283 6.525052,10.868014 6.525631,11.107621 6.525597,11.158557 6.494125,11.158557 6.235195,11.158518 6.237416,10.946192 6.236253,10.866415" style="fill: white" /><polygon type="contour" points="7.383926,10.86438 7.432558,10.86438 7.432558,11.105485 7.432485,11.158654 7.402163,11.158654 7.300081,11.158492 7.241136,11.158339 7.165068,11.158596 7.106419,11.158735 7.09291,11.158735 7.092853,11.127041 7.092853,10.86427 7.165068,10.864141 7.241137,10.864338 7.300082,10.864138" style="fill: white" /><polygon type="contour" points="8.01437,10.871124 8.262487,10.869214 8.2655,10.952443 8.264179,11.158425 7.973277,11.158425 7.972928,10.954168 7.972928,10.867783" style="fill: white" /><polygon type="contour" points="8.267564,11.831617 8.267364,11.890562 8.267561,11.966632 8.267432,12.016399 8.267432,12.038849 8.004661,12.038849 7.972967,12.038791 7.972967,12.025282 7.973105,11.966631 7.973362,11.890562 7.973209,11.831617 7.973048,11.729537 7.973048,11.699217 8.026216,11.699144 8.267321,11.699144" style="fill: white" /><polygon type="contour" points="8.263688,12.606648 8.266246,12.777763 8.265625,12.895374 8.185109,12.894185 7.973183,12.896506 7.973183,12.829879 7.973142,12.618707 7.973142,12.606105 8.024078,12.606071" style="fill: white" /><polygon type="contour" points="7.432485,12.604117 7.432485,12.719618 7.404256,12.719628 7.300081,12.719201 7.241136,12.719212 7.165068,12.719226 7.105421,12.719482 7.092887,12.719477 7.092887,12.603976 7.105792,12.603976 7.165068,12.603724 7.300081,12.6037" style="fill: white" /><polygon type="contour" points="7.432482,11.831617 7.432468,11.966632 7.432465,12.025281 7.432465,12.038791 7.339291,12.038832 7.165068,12.038832 7.105791,12.038814 7.092887,12.038814 7.092869,11.966631 7.092869,11.792409 7.09291,11.699236 7.165067,11.699232 7.182498,11.699236 7.432484,11.699217" style="fill: white" /><polygon type="contour" points="6.528002,11.831618 6.527976,11.966631 6.527726,12.025909 6.527726,12.038814 6.412225,12.038814 6.412219,12.02628 6.412476,11.966632 6.412491,11.890561 6.412502,11.831618 6.412074,11.727445 6.412085,11.699217 6.527586,11.699217" style="fill: white" /><polygon type="contour" points="6.288938,12.604521 6.512892,12.606742 6.524958,12.606742 6.524958,12.896397 6.51044,12.897031 6.22508,12.906621 6.229823,12.786877 6.237414,12.604467" style="fill: white" />
</svg>
