<svg width="19.131698" height="19.131699">
<polygon type="contour" points="10.534124,8.45493 10.677414,8.454287 10.677019,8.558873 10.676957,8.738577 10.627889,8.738577 10.510092,8.738699 10.393003,8.738699 10.393003,8.690588 10.392778,8.551349 10.392547,8.545541 10.392547,8.500308 10.394325,8.453178" style="fill: white" /><polygon type="contour" points="10.509637,8.966048 10.509542,8.998329 10.471723,8.998481 10.392494,8.998481 10.392494,8.966047 10.392859,8.899462 10.509847,8.899462" style="fill: white" /><polygon type="contour" points="9.969861,9.193198 9.969861,9.258441 9.938504,9.258441 9.873349,9.258352 9.873349,9.216497 9.873262,9.16184 9.901798,9.161827 9.969874,9.161827" style="fill: white" /><polygon type="contour" points="10.232149,9.193761 10.232239,9.260375 10.165652,9.258844 10.133464,9.258441 10.133373,9.229904 10.133373,9.161827 10.165653,9.161786 10.232149,9.161786" style="fill: white" /><polygon type="contour" points="10.426667,9.161827 10.509542,9.161827 10.509659,9.219693 10.509729,9.258353 10.443083,9.258353 10.392789,9.25889 10.392789,9.216243 10.392494,9.161786" style="fill: white" /><polygon type="contour" points="10.680419,9.469538 10.679955,9.566201 10.680419,9.6624 10.681161,9.711102 10.392593,9.711102 10.392593,9.420602 10.681161,9.420602" style="fill: white" /><polygon type="contour" points="10.559422,10.393126 10.676957,10.393126 10.67702,10.57283 10.677414,10.677417 10.534124,10.676774 10.394325,10.678525 10.392547,10.631395 10.392778,10.580354 10.392778,10.513115 10.393003,10.393005 10.441114,10.393005" style="fill: white" /><polygon type="contour" points="10.232239,10.39286 10.232239,10.509849 10.165653,10.50964 10.133372,10.509544 10.133221,10.471725 10.133221,10.392495 10.165653,10.392495" style="fill: white" /><polygon type="contour" points="9.711101,10.232241 9.419682,10.232241 9.4206,10.189254 9.4206,10.133466 9.711101,10.133466" style="fill: white" /><polygon type="contour" points="9.257975,10.39279 9.2581,10.442961 9.2581,10.509461 9.193116,10.509399 9.193196,10.509601 9.161826,10.509544 9.161785,10.471724 9.161785,10.392495 9.193075,10.392495" style="fill: white" /><polygon type="contour" points="8.998327,10.426667 8.998327,10.509544 8.93927,10.509731 8.89946,10.509848 8.89946,10.39286 8.942958,10.39286 8.99848,10.392495" style="fill: white" /><polygon type="contour" points="8.738696,10.441115 8.738921,10.580355 8.739153,10.586162 8.739153,10.631394 8.737375,10.678525 8.597575,10.676774 8.454286,10.677417 8.45468,10.57283 8.454742,10.393126 8.503811,10.393126 8.621606,10.393005 8.738696,10.393005" style="fill: white" /><polygon type="contour" points="8.739205,10.165655 8.73884,10.232241 8.621854,10.232241 8.622063,10.165655 8.622159,10.133376 8.659976,10.133223 8.739205,10.133223" style="fill: white" /><polygon type="contour" points="8.928769,10.133376 8.998327,10.133376 8.99848,10.165655 8.99848,10.232151 8.966046,10.232151 8.89946,10.232241 8.899436,10.176517 8.899549,10.165655 8.899549,10.133223" style="fill: white" /><polygon type="contour" points="9.193196,10.133466 9.258439,10.133466 9.258156,10.165656 9.257975,10.232266 9.216242,10.232266 9.161785,10.232151 9.161826,10.20293 9.161826,10.133376" style="fill: white" /><polygon type="contour" points="9.258351,9.873351 9.258351,9.915207 9.258439,9.969864 9.229902,9.969877 9.161826,9.969877 9.161839,9.938505 9.161839,9.873263 9.193195,9.873263" style="fill: white" /><polygon type="contour" points="9.258351,9.711102 9.161839,9.711102 9.161839,9.420602 9.258351,9.420602" style="fill: white" /><polygon type="contour" points="8.998236,9.711102 8.966046,9.711787 8.89946,9.712021 8.89946,9.420602 8.998236,9.420602" style="fill: white" /><polygon type="contour" points="8.998327,9.901799 8.998327,9.969877 8.966046,9.969918 8.899549,9.969918 8.899549,9.938626 8.899436,9.873728 8.966045,9.873546 8.998236,9.873263" style="fill: white" /><polygon type="contour" points="8.73891,9.873728 8.73891,9.91546 8.739205,9.969918 8.705033,9.969877 8.622159,9.969877 8.622041,9.91201 8.621972,9.873351 8.688615,9.873351" style="fill: white" /><polygon type="contour" points="8.739106,9.711971 8.691264,9.711102 8.450539,9.711102 8.451281,9.662165 8.451745,9.565502 8.451281,9.469303 8.450539,9.420602 8.739106,9.420602" style="fill: white" /><polygon type="contour" points="8.739153,8.500309 8.738921,8.551348 8.738921,8.618587 8.738696,8.738699 8.690587,8.738699 8.572276,8.738577 8.454743,8.738577 8.45468,8.558873 8.454286,8.454287 8.597575,8.45493 8.737375,8.453178" style="fill: white" /><polygon type="contour" points="8.966046,8.622064 8.998327,8.62216 8.99848,8.659977 8.99848,8.739207 8.966045,8.739207 8.89946,8.738842 8.89946,8.621855" style="fill: white" /><polygon type="contour" points="8.966046,8.899551 8.99848,8.899551 8.998327,8.928773 8.998327,8.998329 8.966046,8.998481 8.899549,8.998481 8.899549,8.966048 8.89946,8.899462 8.955183,8.899438" style="fill: white" /><polygon type="contour" points="8.73884,8.942961 8.739205,8.998481 8.705032,8.998329 8.622158,8.998329 8.621971,8.939273 8.621854,8.899462 8.73884,8.899462" style="fill: white" /><polygon type="contour" points="8.739205,9.193762 8.73891,9.25889 8.688615,9.258353 8.621972,9.258353 8.622101,9.193198 8.622159,9.161826 8.659976,9.161786 8.739205,9.161786" style="fill: white" /><polygon type="contour" points="8.928769,9.161827 8.998327,9.161827 8.998236,9.193197 8.998236,9.258441 8.966046,9.258843 8.89946,9.260375 8.89946,9.21749 8.899549,9.161786" style="fill: white" /><polygon type="contour" points="9.193196,9.16184 9.258439,9.16184 9.258439,9.193197 9.25835,9.258353 9.216494,9.258353 9.161839,9.258441 9.161826,9.229904 9.161826,9.161827" style="fill: white" /><polygon type="contour" points="9.258842,8.966047 9.258439,8.998237 9.229901,8.998329 9.161826,8.998329 9.161785,8.966047 9.161785,8.899551 9.19376,8.899551 9.258888,8.899438" style="fill: white" /><polygon type="contour" points="9.258351,8.688617 9.258888,8.738912 9.216241,8.738912 9.161785,8.739207 9.161826,8.705035 9.161826,8.62216 9.219691,8.622042 9.258351,8.621973" style="fill: white" /><polygon type="contour" points="9.672139,8.454698 9.711101,8.454848 9.711101,8.739108 9.4206,8.739108 9.4206,8.454848 9.459373,8.454699 9.565967,8.451711" style="fill: white" /><polygon type="contour" points="9.938503,8.622102 9.969874,8.62216 9.969915,8.659977 9.969915,8.739207 9.937939,8.739207 9.872812,8.738912 9.873349,8.688617 9.873349,8.621973" style="fill: white" /><polygon type="contour" points="10.232239,8.738842 10.188742,8.738842 10.133221,8.739207 10.133373,8.705034 10.133373,8.62216 10.192431,8.621971 10.232239,8.621854" style="fill: white" /><polygon type="contour" points="10.232239,8.95497 10.232149,8.966047 10.232149,8.998481 10.202928,8.998329 10.133373,8.998329 10.133221,8.966047 10.133221,8.899551 10.165652,8.899551 10.232239,8.899462" style="fill: white" /><polygon type="contour" points="9.969915,8.899551 9.969874,8.928772 9.969874,8.998329 9.938503,8.998237 9.873262,8.998237 9.872859,8.966047 9.872812,8.899438 9.915458,8.899438" style="fill: white" /><polygon type="contour" points="9.711101,8.998237 9.4206,8.998237 9.4206,8.899462 9.711101,8.899462" style="fill: white" /><polygon type="contour" points="9.711101,9.258353 9.4206,9.258353 9.4206,9.16184 9.711101,9.16184" style="fill: white" /><polygon type="contour" points="9.711101,9.711102 9.4206,9.711102 9.4206,9.420602 9.711101,9.420602" style="fill: white" /><polygon type="contour" points="9.711101,9.969864 9.4206,9.969864 9.4206,9.873351 9.711101,9.873351" style="fill: white" /><polygon type="contour" points="9.969874,9.901799 9.969874,9.969877 9.938503,9.969864 9.873262,9.969864 9.873262,9.938506 9.873349,9.873351 9.915205,9.873351 9.969861,9.873263" style="fill: white" /><polygon type="contour" points="9.969861,9.711102 9.873349,9.711102 9.873349,9.420602 9.969861,9.420602" style="fill: white" /><polygon type="contour" points="10.232239,9.711102 10.133464,9.711102 10.133464,9.420602 10.232239,9.420602" style="fill: white" /><polygon type="contour" points="10.232239,9.914213 10.232149,9.969918 10.202928,9.969877 10.133373,9.969877 10.133464,9.938506 10.133464,9.873263 10.165653,9.872859 10.232239,9.871328" style="fill: white" /><polygon type="contour" points="10.443083,9.873351 10.509729,9.873351 10.509599,9.938505 10.509542,9.969876 10.471722,9.969918 10.392494,9.969918 10.392494,9.937941 10.392789,9.872814" style="fill: white" /><polygon type="contour" points="10.426666,10.133376 10.509542,10.133376 10.509729,10.192431 10.509847,10.232241 10.392859,10.232241 10.392859,10.188744 10.392494,10.133223" style="fill: white" /><polygon type="contour" points="10.232149,10.165655 10.232239,10.232241 10.176729,10.232241 10.165653,10.232151 10.133221,10.232151 10.133373,10.20293 10.133373,10.133376 10.165653,10.133223 10.232149,10.133223" style="fill: white" /><polygon type="contour" points="9.969915,10.165655 9.969915,10.232151 9.93794,10.232151 9.871326,10.232241 9.872859,10.165655 9.873262,10.133466 9.901799,10.133376 9.969874,10.133376" style="fill: white" /><polygon type="contour" points="9.969874,10.426668 9.969874,10.509544 9.912008,10.509661 9.873349,10.509731 9.873349,10.443084 9.872812,10.39279 9.915458,10.39279 9.969915,10.392495" style="fill: white" /><polygon type="contour" points="9.711101,10.676856 9.672139,10.677005 9.5655,10.679993 9.459374,10.677005 9.4206,10.676856 9.4206,10.509108 9.42002,10.440326 9.419731,10.392595 9.711101,10.392595" style="fill: white" />
</svg>
