<svg width="19.131698" height="19.131699">
<polygon type="contour" points="11.903976,11.503065 11.961106,11.503065 11.961042,11.679847 11.961069,11.834125 12.05927,11.834125 12.090391,11.834255 12.11125,11.834255 12.132174,11.834274 12.132551,11.894373 12.135922,12.01044 12.139353,12.139355 11.917791,12.132868 11.834325,12.13221 11.834248,12.106522 11.834253,12.090393 11.834253,11.960334 11.58942,11.961137 11.503064,11.961106 11.502868,11.866829 11.502868,11.742969 11.503064,11.610732 11.503064,11.503065 11.680674,11.502869 11.833773,11.502869" style="fill: white" /><polygon type="contour" points="12.135922,7.121262 12.132551,7.23733 12.132652,7.272688 12.132323,7.297579 12.033875,7.297579 11.960333,7.297802 11.961136,7.54228 11.961106,7.628638 11.866828,7.628834 11.742967,7.628834 11.610731,7.628638 11.503064,7.628638 11.502868,7.451027 11.502868,7.297928 11.503064,7.227726 11.503064,7.170598 11.58942,7.170567 11.834253,7.171369 11.834253,7.04131 11.834248,7.025182 11.834325,7.012323 11.834325,6.999494 11.917792,6.998833 12.139353,6.992349" style="fill: white" /><polygon type="contour" points="10.967892,7.264875 10.967892,7.388734 10.967543,7.52097 10.967543,7.628638 10.829672,7.628941 10.770016,7.628941 10.769973,7.451028 10.770093,7.29795 10.770022,7.29795 10.770077,7.201485 10.770077,7.170862 10.894092,7.170648 10.967543,7.170598" style="fill: white" /><polygon type="contour" points="10.504658,6.998772 10.657699,6.999216 10.658061,7.267097 10.658061,7.388748 10.657984,7.451027 10.657683,7.628941 10.448743,7.629004 10.362973,7.629004 10.362767,7.451028 10.36284,7.297842 10.362621,7.297841 10.362856,7.18581 10.363266,7.151045 10.363311,7.084924 10.374633,7.084533 10.374049,7.012702 10.374498,6.998184" style="fill: white" /><polygon type="contour" points="10.134545,7.171053 10.218718,7.171001 10.219045,7.24406 10.219605,7.271984 10.219605,7.388545 10.219209,7.573401 10.218934,7.629004 10.062509,7.628637 9.935259,7.628375 9.935244,7.452293 9.935244,7.297934 9.93526,7.228698 9.93526,7.170606" style="fill: white" /><polygon type="contour" points="9.19627,7.264127 9.19627,7.38858 9.196122,7.518891 9.196122,7.628374 8.996945,7.62883 8.912765,7.629004 8.912367,7.451027 8.911831,7.327692 8.912744,7.224706 8.912795,7.213152 8.912984,7.171325 8.980797,7.171191 9.196121,7.170606" style="fill: white" /><polygon type="contour" points="8.623321,6.997815 8.757202,6.998185 8.75765,7.012702 8.757065,7.084533 8.768389,7.084925 8.768294,7.102561 8.768437,7.120249 8.768438,7.17097 8.768697,7.171046 8.768668,7.171061 8.768928,7.285051 8.76908,7.297842 8.769016,7.297842 8.768672,7.575989 8.768727,7.629004 8.563076,7.628941 8.474017,7.628941 8.473715,7.451027 8.473579,7.34074 8.474001,7.03635 8.474001,6.999217 8.567054,6.994165" style="fill: white" /><polygon type="contour" points="8.237607,7.170647 8.361623,7.170862 8.361678,7.271985 8.361678,7.29795 8.361606,7.29795 8.361727,7.451028 8.361684,7.628941 8.252676,7.628638 8.164157,7.628638 8.163808,7.451028 8.163808,7.297929 8.164157,7.227727 8.164157,7.170597" style="fill: white" /><polygon type="contour" points="7.213905,6.998834 7.297374,6.999494 7.297374,7.012323 7.297491,7.020252 7.297447,7.020452 7.297448,7.04131 7.297448,7.171369 7.542279,7.170567 7.628636,7.170597 7.628832,7.264874 7.628832,7.388735 7.628636,7.52097 7.628636,7.628637 7.451025,7.628834 7.297926,7.628834 7.227723,7.628638 7.170595,7.628638 7.170658,7.451856 7.17063,7.297579 7.072429,7.297579 7.041309,7.297449 7.02045,7.297449 6.999526,7.29743 6.999148,7.237329 6.995475,7.121262 6.992347,6.992349" style="fill: white" /><polygon type="contour" points="7.520969,8.164158 7.628635,8.164158 7.628939,8.30203 7.628939,8.361687 7.451026,8.361728 7.297948,8.36161 7.297949,8.36168 7.201485,8.361626 7.17086,8.361626 7.170645,8.23761 7.170595,8.164158 7.264873,8.16381 7.388732,8.16381" style="fill: white" /><polygon type="contour" points="7.451026,8.473717 7.628939,8.474019 7.629002,8.682957 7.629002,8.768729 7.451025,8.768936 7.29784,8.768862 7.297839,8.76894 7.185808,8.768683 7.171058,8.76867 7.170952,8.768447 7.068683,8.768391 6.997691,8.768825 6.997813,8.623322 6.999215,8.474003 7.267094,8.473641 7.388745,8.473641" style="fill: white" /><polygon type="contour" points="7.5734,8.912492 7.629002,8.912767 7.628635,9.069191 7.628373,9.196442 7.45229,9.196457 7.297931,9.196457 7.228696,9.196442 7.170604,9.196442 7.171051,8.997156 7.170999,8.912984 7.244057,8.912656 7.271983,8.912097 7.388543,8.912097" style="fill: white" /><polygon type="contour" points="9.066527,9.935581 9.196122,9.935581 9.196629,10.134754 9.196629,10.219272 8.996945,10.219272 8.91249,10.219211 8.91249,10.000589 8.912428,9.935073" style="fill: white" /><polygon type="contour" points="9.196122,9.066527 9.196122,9.196442 8.996945,9.19684 8.912428,9.19684 8.912428,8.997156 8.91249,8.912492 8.996945,8.91243 9.196629,8.91243" style="fill: white" /><polygon type="contour" points="8.768736,9.131115 8.76879,9.19684 8.565051,9.19649 8.473865,9.19649 8.473882,8.997155 8.473876,8.912492 8.768736,8.912492" style="fill: white" /><polygon type="contour" points="8.361623,9.127818 8.361718,9.19649 8.254222,9.196442 8.164208,9.196442 8.164015,8.997156 8.16398,8.912767 8.303926,8.912767 8.361293,8.91233" style="fill: white" /><polygon type="contour" points="8.361293,8.700576 8.361293,8.768738 8.303925,8.768729 8.16398,8.768729 8.163796,8.563079 8.163796,8.474019 8.302027,8.474019 8.361623,8.473859" style="fill: white" /><polygon type="contour" points="8.361684,8.30203 8.361623,8.361626 8.211143,8.361626 8.163796,8.361687 8.164157,8.252678 8.164157,8.164158 8.302027,8.163797 8.361684,8.163797" style="fill: white" /><polygon type="contour" points="8.733868,8.474018 8.768632,8.474018 8.768632,8.733869 8.768668,8.76867 8.508004,8.76867 8.474016,8.768634 8.474001,8.510441 8.474001,8.474003" style="fill: white" /><polygon type="contour" points="8.682956,8.163981 8.768727,8.163981 8.768727,8.303926 8.768736,8.361295 8.544863,8.361626 8.473856,8.361626 8.473856,8.211144 8.474017,8.163797" style="fill: white" /><polygon type="contour" points="9.069189,8.164158 9.196122,8.16421 9.196272,8.300784 9.196272,8.361721 8.996945,8.361414 8.912328,8.361295 8.912328,8.209446 8.912765,8.163981" style="fill: white" /><polygon type="contour" points="9.196272,8.473867 9.196629,8.680942 9.196629,8.768792 8.996945,8.768792 8.91249,8.768738 8.91249,8.473878 9.127985,8.473859" style="fill: white" /><polygon type="contour" points="10.218934,8.303927 10.219371,8.361295 10.134545,8.361415 9.935214,8.361721 9.93526,8.254224 9.93526,8.16421 10.134546,8.164016 10.218934,8.163981" style="fill: white" /><polygon type="contour" points="10.134546,8.473884 10.219209,8.473878 10.219209,8.768738 10.000587,8.768738 9.934864,8.768792 9.935214,8.565054 9.935214,8.473867" style="fill: white" /><polygon type="contour" points="10.219209,8.912492 10.219209,9.131115 10.219271,9.19684 10.065171,9.196442 9.93526,9.196442 9.934864,8.997156 9.934864,8.91243 10.134545,8.91243" style="fill: white" /><polygon type="contour" points="10.657843,9.127987 10.657835,9.19649 10.450758,9.19684 10.36291,9.19684 10.36291,8.997155 10.362963,8.912492 10.657824,8.912492" style="fill: white" /><polygon type="contour" points="10.967719,8.912767 10.967543,9.06919 10.967492,9.196442 10.830917,9.19649 10.769766,9.19649 10.770076,8.997155 10.770403,8.91233 10.922254,8.91233" style="fill: white" /><polygon type="contour" points="10.657684,8.73387 10.657684,8.768634 10.39783,8.768634 10.36303,8.76867 10.36303,8.508006 10.362984,8.474018 10.621174,8.474003 10.657699,8.474003" style="fill: white" /><polygon type="contour" points="10.657683,8.30203 10.657844,8.361626 10.431124,8.361295 10.362963,8.361295 10.362973,8.303927 10.362973,8.163981 10.568624,8.163797 10.657683,8.163797" style="fill: white" /><polygon type="contour" points="10.879022,8.164158 10.967543,8.164158 10.967903,8.302029 10.967903,8.361687 10.829672,8.361687 10.770077,8.361626 10.770077,8.211144 10.770016,8.163797" style="fill: white" /><polygon type="contour" points="10.967903,8.474019 10.967719,8.682957 10.967719,8.768729 10.827771,8.768729 10.770403,8.768738 10.770077,8.544867 10.770077,8.473859 10.920556,8.473859" style="fill: white" /><polygon type="contour" points="11.903975,8.164158 11.961106,8.164158 11.961053,8.23761 11.96084,8.361625 11.859716,8.36168 11.833751,8.36168 11.833751,8.36161 11.680673,8.361728 11.502762,8.361687 11.503064,8.252679 11.503064,8.164158 11.680674,8.16381 11.833774,8.16381" style="fill: white" /><polygon type="contour" points="12.095351,8.474003 12.132485,8.474003 12.137537,8.567055 12.133887,8.623322 12.134007,8.768825 12.072954,8.768494 12.063015,8.768391 12.029141,8.768295 12.01145,8.76844 11.960731,8.768438 11.960656,8.7687 11.96064,8.76867 11.84665,8.76893 11.833861,8.769082 11.833861,8.769018 11.555712,8.768674 11.502698,8.768729 11.502762,8.56308 11.502762,8.474019 11.680673,8.473717 11.791257,8.473582" style="fill: white" /><polygon type="contour" points="11.906994,8.912745 11.960377,8.912985 11.96051,8.980798 11.961097,9.196442 11.867574,9.196457 11.743122,9.196457 11.612811,9.196442 11.503327,9.196442 11.502872,8.997156 11.502698,8.912767 11.680674,8.91237 11.803936,8.911831" style="fill: white" /><polygon type="contour" points="11.903002,9.935581 11.961097,9.935581 11.960649,10.134754 11.960701,10.218719 11.887642,10.219049 11.859716,10.219608 11.743157,10.219608 11.558299,10.21921 11.502698,10.218936 11.503064,10.062512 11.503327,9.935581 11.679408,9.935431 11.833768,9.935431" style="fill: white" /><polygon type="contour" points="11.84665,10.362775 11.96064,10.363032 11.960747,10.363257 12.063015,10.363312 12.134007,10.362878 12.133887,10.508379 12.132485,10.6577 11.864605,10.658063 11.742954,10.658063 11.680673,10.657986 11.502762,10.657685 11.502698,10.448743 11.502698,10.362974 11.680674,10.362769 11.83386,10.362842 11.833861,10.362763" style="fill: white" /><polygon type="contour" points="11.833751,10.770095 11.833751,10.770024 11.930214,10.770078 11.96084,10.770078 11.961054,10.894094 11.961106,10.967544 11.866828,10.967893 11.742967,10.967893 11.610731,10.967544 11.503064,10.967544 11.502762,10.829672 11.502762,10.770017 11.680673,10.769975" style="fill: white" /><polygon type="contour" points="10.967543,10.879024 10.967543,10.967544 10.829671,10.967906 10.770016,10.967906 10.770016,10.829672 10.770077,10.770078 10.920557,10.770078 10.967903,10.770017" style="fill: white" /><polygon type="contour" points="10.134545,10.770079 10.219371,10.770406 10.219371,10.922257 10.218934,10.967722 10.06251,10.967544 9.93526,10.967495 9.935214,10.830918 9.935214,10.769766" style="fill: white" /><polygon type="contour" points="10.219209,10.362964 10.219209,10.657826 10.003715,10.657845 9.935214,10.657837 9.934864,10.45076 9.934864,10.362911 10.134546,10.362911" style="fill: white" /><polygon type="contour" points="10.219271,10.134754 10.219209,10.219211 10.000587,10.219211 9.934864,10.219272 9.93526,10.065175 9.93526,9.935581 10.134546,9.935073 10.219271,9.935073" style="fill: white" /><polygon type="contour" points="10.566647,9.935431 10.657835,9.935431 10.657818,10.134755 10.657824,10.219211 10.362963,10.219211 10.362963,10.000588 10.36291,9.935073" style="fill: white" /><polygon type="contour" points="10.877159,9.935581 10.967492,9.935581 10.967685,10.134754 10.967719,10.218936 10.827771,10.218936 10.770242,10.219211 10.769908,10.003717 10.769766,9.935431" style="fill: white" /><polygon type="contour" points="10.82777,10.362974 10.967719,10.362974 10.967903,10.568625 10.967903,10.657685 10.829672,10.657685 10.770077,10.657845 10.770403,10.431126 10.770403,10.362964" style="fill: white" /><polygon type="contour" points="10.657699,10.621175 10.657699,10.6577 10.39783,10.657686 10.362984,10.657686 10.362984,10.397832 10.36303,10.363032 10.623693,10.363032 10.657684,10.362985" style="fill: white" /><polygon type="contour" points="10.657844,10.920559 10.657682,10.967906 10.448743,10.967722 10.362973,10.967722 10.362973,10.827772 10.362963,10.770405 10.586834,10.770078 10.657844,10.770078" style="fill: white" /><polygon type="contour" points="10.879023,11.503065 10.967543,11.503065 10.967892,11.680674 10.967892,11.833775 10.967543,11.903976 10.967543,11.961106 10.894092,11.961056 10.770077,11.960842 10.770022,11.859717 10.770022,11.833751 10.770093,11.833752 10.769973,11.680674 10.770016,11.502763" style="fill: white" /><polygon type="contour" points="10.568623,11.502763 10.657683,11.502763 10.657983,11.680674 10.65812,11.790962 10.657699,12.095353 10.657699,12.132486 10.564644,12.137538 10.508377,12.133889 10.374499,12.133519 10.37405,12.119 10.374633,12.04717 10.363311,12.046779 10.363406,12.029143 10.363264,12.011452 10.363262,11.960734 10.363002,11.960656 10.363029,11.960642 10.362773,11.846651 10.362728,11.7988 10.363027,11.555713 10.362973,11.502699" style="fill: white" /><polygon type="contour" points="10.219332,11.680675 10.21987,11.803938 10.218957,11.906995 10.218717,11.960378 10.150903,11.960511 9.93526,11.961098 9.935244,11.867576 9.935244,11.743123 9.93526,11.612813 9.93526,11.503328 10.134545,11.502873 10.218934,11.502699" style="fill: white" /><polygon type="contour" points="8.361727,11.680674 8.361606,11.833752 8.361678,11.833751 8.361623,11.930217 8.361623,11.960842 8.237607,11.961056 8.164157,11.961106 8.163808,11.866828 8.163808,11.742968 8.164157,11.610733 8.164157,11.503065 8.302028,11.502763 8.361684,11.502763" style="fill: white" /><polygon type="contour" points="8.768934,11.680675 8.76886,11.833861 8.76908,11.833861 8.768928,11.846651 8.768668,11.960641 8.768448,11.960749 8.768388,12.046778 8.757065,12.04717 8.757651,12.118999 8.757202,12.133519 8.627041,12.132931 8.474001,12.132486 8.473639,11.864606 8.473639,11.742955 8.473716,11.680674 8.474017,11.502763 8.682957,11.502699 8.768727,11.502699" style="fill: white" /><polygon type="contour" points="9.069189,11.503064 9.196122,11.503328 9.19627,11.679409 9.19627,11.83377 9.196122,11.903004 9.196122,11.961098 8.996945,11.960651 8.912982,11.960702 8.912654,11.887642 8.912096,11.859718 8.912096,11.743159 8.91249,11.558302 8.912765,11.502699" style="fill: white" /><polygon type="contour" points="9.196122,10.877161 9.196122,10.967495 8.996946,10.967688 8.912765,10.967722 8.912765,10.827773 8.91249,10.770245 8.996945,10.770079 9.196272,10.769767" style="fill: white" /><polygon type="contour" points="9.196272,10.566649 9.196272,10.657837 8.996945,10.65782 8.91249,10.657826 8.91249,10.362964 9.131114,10.362964 9.196629,10.362911" style="fill: white" /><polygon type="contour" points="8.361623,10.586836 8.361623,10.657845 8.211142,10.657845 8.163796,10.657685 8.16398,10.448744 8.16398,10.362974 8.303926,10.362974 8.361292,10.362964" style="fill: white" /><polygon type="contour" points="8.361623,10.770078 8.361623,10.920558 8.361684,10.967906 8.252676,10.967544 8.164157,10.967544 8.163796,10.829673 8.163796,10.770017 8.302027,10.770017" style="fill: white" /><polygon type="contour" points="8.700575,10.770406 8.768736,10.770406 8.768727,10.827773 8.768727,10.967721 8.563076,10.967906 8.474017,10.967906 8.474017,10.829672 8.473856,10.770078" style="fill: white" /><polygon type="contour" points="8.768668,10.363032 8.768668,10.623697 8.768632,10.657686 8.510438,10.6577 8.474001,10.6577 8.474016,10.397831 8.474016,10.362985 8.733867,10.362985" style="fill: white" /><polygon type="contour" points="8.76879,10.134754 8.768736,10.219211 8.473876,10.219211 8.473856,10.003717 8.473865,9.935431 8.680941,9.935073 8.76879,9.935073" style="fill: white" /><polygon type="contour" points="8.361413,10.134755 8.361293,10.219372 8.209443,10.219372 8.163979,10.218936 8.164157,10.062513 8.164208,9.935581 8.300781,9.935431 8.361718,9.935431" style="fill: white" /><polygon type="contour" points="7.518888,9.935581 7.628373,9.935581 7.628826,10.134754 7.629001,10.218936 7.451026,10.219334 7.327763,10.219873 7.224705,10.21896 7.211687,10.218901 7.171323,10.218718 7.17119,10.150907 7.170604,9.93558 7.264124,9.935431 7.388578,9.935431" style="fill: white" /><polygon type="contour" points="7.575986,10.363029 7.629002,10.362974 7.628939,10.568625 7.628939,10.657685 7.451026,10.657986 7.34038,10.658122 7.036347,10.6577 6.999215,10.6577 6.994162,10.564646 6.997812,10.508379 6.997691,10.362877 7.058745,10.363209 7.068684,10.363313 7.102558,10.363408 7.120247,10.363265 7.170968,10.363266 7.171043,10.363003 7.171059,10.363031 7.285049,10.362774 7.332764,10.36273" style="fill: white" /><polygon type="contour" points="7.628939,10.770017 7.628636,10.879024 7.628636,10.967544 7.451026,10.967893 7.297926,10.967893 7.227724,10.967544 7.170595,10.967544 7.170645,10.894093 7.17086,10.770078 7.271983,10.770024 7.297949,10.770024 7.297948,10.770095 7.451026,10.769975" style="fill: white" /><polygon type="contour" points="7.520969,11.503065 7.628635,11.503065 7.628832,11.680675 7.628832,11.833775 7.628636,11.903977 7.628636,11.961106 7.542279,11.961137 7.297448,11.960334 7.297448,12.090393 7.297453,12.106521 7.297374,12.11938 7.297374,12.13221 7.213905,12.132868 6.992347,12.139355 6.995475,12.01044 6.999147,11.894374 6.999526,11.834274 7.170696,11.834274 7.170564,11.589421 7.170595,11.503064 7.264872,11.502869 7.388732,11.502869" style="fill: white" />
</svg>
