<svg width="19.131698" height="19.131699">
<polygon type="contour" points="10.401592,7.011035 10.649572,7.011758 10.649902,7.256125 10.649902,7.310487 10.4081,7.310487 10.354431,7.31045 10.354646,7.208004 10.355103,7.169404 10.355153,7.09749 10.367971,7.097046 10.367302,7.014692 10.36742,7.010881" style="fill: white" /><polygon type="contour" points="9.29855,8.48191 9.298809,8.631624 9.298809,8.776966 9.154439,8.776966 9.014711,8.776878 9.014711,8.481912 9.187901,8.481897" style="fill: white" /><polygon type="contour" points="9.129563,8.102644 9.298441,8.102712 9.298551,8.201455 9.298551,8.300193 9.15444,8.299972 9.014442,8.299774 9.014442,8.177733 9.015166,8.102514" style="fill: white" /><polygon type="contour" points="7.211827,7.011403 7.309896,7.012178 7.310378,7.012178 7.310377,7.012792 7.310377,7.18394 7.310448,7.31045 7.205899,7.31002 7.183936,7.31038 7.183322,7.310381 7.012175,7.310381 7.012176,7.309898 7.011696,7.233657 7.008272,7.125494 7.005358,7.00536" style="fill: white" /><polygon type="contour" points="7.711001,7.183253 7.711144,7.252201 7.711144,7.310603 7.581109,7.310603 7.471068,7.310563 7.471068,7.183622 7.596105,7.183212" style="fill: white" /><polygon type="contour" points="7.581109,7.471047 7.711144,7.471047 7.711001,7.567755 7.711001,7.711003 7.581109,7.711146 7.471045,7.711146 7.471045,7.581111 7.471068,7.471071 7.557424,7.470964" style="fill: white" /><polygon type="contour" points="7.310561,7.628506 7.3106,7.711146 7.25926,7.711003 7.183251,7.711003 7.183297,7.581718 7.183277,7.471367 7.227314,7.471367 7.310561,7.471071" style="fill: white" /><polygon type="contour" points="7.3106,8.209676 7.310641,8.300083 7.233114,8.300039 7.18349,8.300039 7.183317,8.200369 7.183251,8.102644 7.252199,8.102389 7.3106,8.102389" style="fill: white" /><polygon type="contour" points="7.567752,8.102644 7.711001,8.102644 7.711222,8.203472 7.711222,8.300138 7.58111,8.300168 7.470961,8.300083 7.470961,8.17332 7.471045,8.102389" style="fill: white" /><polygon type="contour" points="7.581109,8.481935 7.711222,8.482155 7.711269,8.634957 7.711269,8.776862 7.58111,8.777014 7.471068,8.77696 7.471068,8.4818" style="fill: white" /><polygon type="contour" points="7.310485,8.723602 7.310448,8.777023 7.208001,8.776787 7.183598,8.776765 7.183524,8.776609 7.075882,8.77655 7.010344,8.776951 7.010477,8.618344 7.011755,8.482129 7.256123,8.481799 7.310485,8.481799" style="fill: white" /><polygon type="contour" points="7.619276,9.014712 7.711269,9.015168 7.711,9.129565 7.710651,9.298868 7.583345,9.298879 7.470772,9.298879 7.470772,9.14793 7.470709,9.014395" style="fill: white" /><polygon type="contour" points="7.310389,9.196251 7.31061,9.298879 7.260553,9.298868 7.183262,9.298868 7.183586,9.154786 7.183499,9.015526 7.215422,9.015382 7.264761,9.014395 7.310389,9.014395" style="fill: white" /><polygon type="contour" points="7.711222,10.831566 7.711001,10.911286 7.711001,11.029059 7.58111,11.029314 7.471045,11.029314 7.471045,10.922025 7.470961,10.831621 7.58111,10.831536" style="fill: white" /><polygon type="contour" points="7.3106,10.922026 7.3106,11.029314 7.259259,11.029059 7.183251,11.029059 7.183317,10.931334 7.18349,10.831665 7.264762,10.831621 7.310641,10.831621" style="fill: white" /><polygon type="contour" points="7.310448,10.597695 7.310485,10.649904 7.071923,10.649573 7.011755,10.649573 7.007146,10.564686 7.010477,10.513357 7.010344,10.354752 7.066708,10.355059 7.075883,10.355154 7.120952,10.35528 7.144487,10.35509 7.183515,10.355091 7.183573,10.354888 7.183599,10.354936 7.287846,10.354701 7.310448,10.354681" style="fill: white" /><polygon type="contour" points="7.623558,10.354932 7.711269,10.354841 7.711222,10.505238 7.711222,10.649549 7.581109,10.649769 7.471068,10.649904 7.471068,10.354745" style="fill: white" /><polygon type="contour" points="7.31061,9.984103 7.310389,10.11731 7.185553,10.116203 7.184024,10.116203 7.184017,10.110871 7.183262,9.833261 7.250877,9.833152 7.31061,9.833152" style="fill: white" /><polygon type="contour" points="7.564985,9.833261 7.710651,9.833261 7.710979,9.977261 7.711268,10.116535 7.581109,10.116828 7.470709,10.11731 7.470709,9.935452 7.470772,9.833152" style="fill: white" /><polygon type="contour" points="8.29997,9.977261 8.299771,10.117258 8.177732,10.117258 8.102513,10.116535 8.102642,10.002138 8.102711,9.833261 8.201453,9.833152 8.30019,9.833152" style="fill: white" /><polygon type="contour" points="8.300036,10.534749 8.300036,10.649807 8.179097,10.649807 8.102378,10.649549 8.102513,10.496743 8.102513,10.354841 8.204858,10.354841 8.299771,10.354824" style="fill: white" /><polygon type="contour" points="8.300036,10.831665 8.300036,10.952604 8.300136,11.029323 8.220416,11.029059 8.102642,11.029059 8.102378,10.928228 8.102378,10.831566 8.20347,10.831566" style="fill: white" /><polygon type="contour" points="8.664104,10.831928 8.776876,10.831928 8.77686,10.926839 8.77686,11.029189 8.626463,11.029323 8.482153,11.029323 8.482153,10.928228 8.481894,10.831665" style="fill: white" /><polygon type="contour" points="11.9258,11.821684 11.947762,11.821325 11.948378,11.821323 12.119526,11.821323 12.119525,11.821805 12.120004,11.898047 12.123144,12.006208 12.126342,12.126344 11.919869,12.120299 11.821804,12.119526 11.821322,12.119527 11.821324,12.118911 11.821324,11.947763 11.821253,11.821254" style="fill: white" /><polygon type="contour" points="11.660632,11.821141 11.660632,11.948082 11.535594,11.948492 11.420698,11.94845 11.420555,11.879503 11.420555,11.821101 11.550589,11.821101" style="fill: white" /><polygon type="contour" points="11.660655,11.55059 11.660632,11.660633 11.574275,11.66074 11.550589,11.660657 11.420555,11.660657 11.420698,11.563948 11.420698,11.420699 11.550589,11.420556 11.660655,11.420556" style="fill: white" /><polygon type="contour" points="11.872439,11.420699 11.94845,11.420699 11.948404,11.549984 11.948423,11.660337 11.904386,11.660337 11.82114,11.660633 11.82114,11.503197 11.8211,11.420556" style="fill: white" /><polygon type="contour" points="11.898586,10.831665 11.948209,10.831665 11.948381,10.931335 11.94845,11.029059 11.879501,11.029314 11.8211,11.029314 11.8211,10.922026 11.821059,10.831621" style="fill: white" /><polygon type="contour" points="11.660739,10.83162 11.660739,10.958382 11.660655,11.029314 11.563947,11.029059 11.420698,11.029059 11.420477,10.928228 11.420477,10.831566 11.550588,10.831536" style="fill: white" /><polygon type="contour" points="11.660632,10.354745 11.660632,10.649904 11.550589,10.649769 11.420477,10.649549 11.420431,10.496743 11.420431,10.35484 11.550588,10.354691" style="fill: white" /><polygon type="contour" points="11.843851,10.354701 11.9481,10.354936 11.948175,10.355095 12.055816,10.355154 12.121355,10.354752 12.121224,10.513356 12.119943,10.649573 11.875576,10.649904 11.821215,10.649904 11.821215,10.408103 11.821253,10.354681" style="fill: white" /><polygon type="contour" points="11.871145,9.833261 11.948438,9.833261 11.948115,9.977261 11.948201,10.116177 11.916278,10.116321 11.866936,10.11731 11.821311,10.11731 11.821311,9.935452 11.82109,9.833152" style="fill: white" /><polygon type="contour" points="11.660928,9.984102 11.660991,10.11731 11.512423,10.116991 11.420431,10.116535 11.420698,10.002139 11.421048,9.833261 11.548354,9.833152 11.660928,9.833152" style="fill: white" /><polygon type="contour" points="10.11709,9.977262 10.116989,10.116991 9.941284,10.116991 9.832548,10.117092 9.832834,10.005681 9.832834,9.833261 9.976915,9.832893 10.11709,9.832893" style="fill: white" /><polygon type="contour" points="10.116989,10.354824 10.116989,10.649792 9.943799,10.649807 9.832801,10.649794 9.832548,10.500079 9.832548,10.354737 9.976915,10.354737" style="fill: white" /><polygon type="contour" points="9.976915,10.831386 10.117256,10.831928 10.117256,10.953969 10.116534,11.029189 10.002136,11.029059 9.832834,11.028992 9.832801,10.930249 9.832801,10.831161" style="fill: white" /><polygon type="contour" points="10.505238,11.420478 10.649547,11.420478 10.649767,11.55059 10.649902,11.660633 10.354743,11.660633 10.35493,11.508142 10.35484,11.420432" style="fill: white" /><polygon type="contour" points="10.116825,11.55059 10.117307,11.660992 9.983773,11.66093 9.832822,11.66093 9.832834,11.566715 9.832834,11.421049 9.976915,11.420721 10.116533,11.420432" style="fill: white" /><polygon type="contour" points="10.117307,11.821313 10.1162,11.946147 10.1162,11.947676 10.110856,11.947683 9.832834,11.94844 9.832822,11.880824 9.832822,11.821092 9.983773,11.821092" style="fill: white" /><polygon type="contour" points="10.649572,12.059778 10.649572,12.119946 10.564684,12.124555 10.513355,12.121226 10.36742,12.120822 10.367302,12.11701 10.367971,12.034657 10.355152,12.034213 10.355278,12.010748 10.355089,11.987212 10.355088,11.948186 10.354887,11.948127 10.354935,11.948103 10.354698,11.843853 10.354679,11.821254 10.597693,11.821254 10.649902,11.821216" style="fill: white" /><polygon type="contour" points="10.922024,11.821101 11.029313,11.821101 11.029057,11.872441 11.029057,11.94845 10.931334,11.948383 10.831664,11.948211 10.83162,11.866938 10.83162,11.821061" style="fill: white" /><polygon type="contour" points="10.911285,11.420699 11.029057,11.420699 11.029313,11.550589 11.029313,11.660657 10.922024,11.660657 10.83162,11.66074 10.831534,11.550589 10.831565,11.420478" style="fill: white" /><polygon type="contour" points="11.029057,10.911286 11.029057,11.029059 10.928227,11.029323 10.831565,11.029323 10.831565,10.928229 10.831664,10.831665 10.952603,10.831665 11.029321,10.831566" style="fill: white" /><polygon type="contour" points="10.649806,10.952606 10.649547,11.029323 10.496743,11.029189 10.35484,11.029189 10.35484,10.92684 10.354823,10.831928 10.534747,10.831665 10.649806,10.831665" style="fill: white" /><polygon type="contour" points="10.649572,10.590388 10.649572,10.649573 10.412512,10.64956 10.354858,10.64956 10.354858,10.412513 10.354935,10.354936 10.593323,10.354936 10.649558,10.35486" style="fill: white" /><polygon type="contour" points="10.926838,10.354841 11.029187,10.354841 11.029321,10.505238 11.029321,10.649549 10.928227,10.649549 10.831664,10.649807 10.831926,10.467594 10.831926,10.354824" style="fill: white" /><polygon type="contour" points="10.908804,9.833261 11.02899,9.833261 11.029129,9.977261 11.029187,10.116535 10.926837,10.116535 10.831659,10.116991 10.83139,9.9438 10.83116,9.833152" style="fill: white" /><polygon type="contour" points="10.502036,9.833152 10.649792,9.833152 10.64978,9.977261 10.649791,10.116991 10.354823,10.116991 10.354823,9.941286 10.354735,9.832892" style="fill: white" /><polygon type="contour" points="10.116989,9.014712 10.116989,9.190419 10.11709,9.299156 10.005677,9.298868 9.832833,9.298868 9.832548,9.154786 9.832548,9.01461 9.976915,9.01461" style="fill: white" /><polygon type="contour" points="9.976916,8.481922 10.116989,8.481912 10.116989,8.776878 9.941285,8.776878 9.832548,8.776966 9.832801,8.629665 9.832801,8.48191" style="fill: white" /><polygon type="contour" points="10.116534,8.204859 10.117256,8.299774 9.976915,8.299972 9.832801,8.300193 9.832834,8.222474 9.832834,8.102711 9.976916,8.102571 10.116534,8.102514" style="fill: white" /><polygon type="contour" points="10.649547,8.203472 10.649806,8.300039 10.467593,8.299774 10.354823,8.299774 10.35484,8.204859 10.35484,8.102513 10.505237,8.10238 10.649547,8.10238" style="fill: white" /><polygon type="contour" points="10.911284,8.102644 11.029057,8.102644 11.029321,8.203472 11.029321,8.300138 10.928228,8.300138 10.831664,8.300039 10.831664,8.179098 10.831565,8.10238" style="fill: white" /><polygon type="contour" points="11.029321,8.482155 11.029187,8.634957 11.029187,8.776862 10.926837,8.776862 10.831925,8.776878 10.831664,8.596955 10.831664,8.481897 10.952602,8.481897" style="fill: white" /><polygon type="contour" points="10.649558,8.719188 10.649558,8.776706 10.412511,8.776706 10.354935,8.776765 10.354935,8.538376 10.354858,8.482142 10.590387,8.48213 10.649572,8.48213" style="fill: white" /><polygon type="contour" points="10.649806,9.187904 10.649792,9.298902 10.500076,9.299156 10.354735,9.299156 10.354735,9.154785 10.354823,9.014712 10.649791,9.014712" style="fill: white" /><polygon type="contour" points="11.029187,9.015168 11.029057,9.129565 11.02899,9.298868 10.930247,9.298902 10.83116,9.298902 10.831384,9.154785 10.831926,9.014444 10.953967,9.014444" style="fill: white" /><polygon type="contour" points="11.660991,9.19625 11.660928,9.298879 11.566714,9.298868 11.421048,9.298868 11.42072,9.154786 11.420431,9.015168 11.550589,9.014877 11.660991,9.014395" style="fill: white" /><polygon type="contour" points="11.946146,9.015502 11.947675,9.015502 11.947682,9.020845 11.948438,9.298868 11.880822,9.298879 11.82109,9.298879 11.82109,9.147929 11.821311,9.014395" style="fill: white" /><polygon type="contour" points="11.660632,8.77696 11.508141,8.776771 11.420431,8.776862 11.420477,8.626465 11.420477,8.482155 11.550589,8.481934 11.660632,8.4818" style="fill: white" /><polygon type="contour" points="12.059776,8.48213 12.119944,8.48213 12.124554,8.567015 12.121224,8.618345 12.121355,8.776951 12.06499,8.776645 12.055817,8.77655 12.010747,8.776423 11.98721,8.776615 11.948184,8.776613 11.948126,8.776815 11.948101,8.776765 11.843852,8.777003 11.821253,8.777272 11.821253,8.534257 11.821215,8.481799" style="fill: white" /><polygon type="contour" points="11.660655,8.209677 11.660739,8.300083 11.550588,8.300168 11.420477,8.300138 11.420698,8.220417 11.420698,8.102644 11.550588,8.102389 11.660655,8.102389" style="fill: white" /><polygon type="contour" points="11.87244,8.102644 11.94845,8.102644 11.948381,8.200368 11.948209,8.300038 11.866936,8.300083 11.821059,8.300083 11.8211,8.209676 11.8211,8.102389" style="fill: white" /><polygon type="contour" points="12.123144,7.125495 12.120004,7.233656 12.120097,7.266607 12.119525,7.309899 12.119526,7.31038 11.947762,7.31038 11.821253,7.31045 11.821253,7.206219 11.821324,7.183939 11.821324,7.012178 11.821804,7.012178 11.919869,7.011403 12.126342,7.00536" style="fill: white" /><polygon type="contour" points="11.948489,7.596107 11.948449,7.711003 11.879501,7.711146 11.8211,7.711146 11.8211,7.581111 11.82114,7.471071 11.94808,7.471071" style="fill: white" /><polygon type="contour" points="11.660632,7.471071 11.660632,7.628505 11.660655,7.711146 11.563947,7.711003 11.420698,7.711003 11.420555,7.581111 11.420555,7.471047 11.550589,7.471047" style="fill: white" /><polygon type="contour" points="11.660632,7.183622 11.660632,7.310563 11.503195,7.310563 11.420555,7.310603 11.420698,7.259263 11.420698,7.183253 11.535594,7.183213" style="fill: white" /><polygon type="contour" points="11.029313,7.2522 11.029313,7.310602 10.922024,7.310603 10.83162,7.310643 10.831664,7.233115 10.831664,7.183492 10.931334,7.18332 11.029057,7.183253" style="fill: white" /><polygon type="contour" points="11.029313,7.471047 11.029057,7.567755 11.029057,7.711003 10.928227,7.711224 10.831565,7.711224 10.831534,7.581111 10.83162,7.470964 10.958382,7.470963" style="fill: white" /><polygon type="contour" points="10.649767,7.581111 10.649547,7.711224 10.496742,7.711271 10.35484,7.711271 10.354689,7.581111 10.354743,7.471071 10.649901,7.471071" style="fill: white" /><polygon type="contour" points="10.116989,7.619278 10.116534,7.711271 10.002136,7.711002 9.832834,7.710653 9.832822,7.583346 9.832822,7.470774 9.983773,7.470774 10.117307,7.470712" style="fill: white" /><polygon type="contour" points="9.976916,7.183588 10.116176,7.183502 10.116319,7.215424 10.117307,7.264764 10.117307,7.310391 9.935449,7.310391 9.832822,7.310612 9.832834,7.260555 9.832834,7.183264" style="fill: white" /><polygon type="contour" points="9.29855,7.250879 9.29855,7.310612 9.147599,7.310612 9.014394,7.310391 9.015501,7.185555 9.015501,7.184027 9.020831,7.18402 9.298441,7.183264" style="fill: white" /><polygon type="contour" points="9.29855,7.470774 9.298442,7.564987 9.298442,7.710653 9.154439,7.710982 9.015166,7.711271 9.014874,7.581111 9.014394,7.470712 9.196249,7.470712" style="fill: white" /><polygon type="contour" points="8.776769,7.623561 8.77686,7.711271 8.626463,7.711224 8.482153,7.711224 8.481933,7.581111 8.481798,7.471071 8.776958,7.471071" style="fill: white" /><polygon type="contour" points="8.618342,7.010479 8.764281,7.010881 8.764399,7.014693 8.763727,7.097046 8.776548,7.09749 8.776421,7.120954 8.776612,7.14449 8.776613,7.183518 8.776812,7.183576 8.776764,7.183601 8.777001,7.287849 8.77727,7.31045 8.534255,7.31045 8.481798,7.310487 8.482128,7.071925 8.482128,7.011758 8.567015,7.007149" style="fill: white" /><polygon type="contour" points="8.200365,7.18332 8.300035,7.183492 8.30008,7.264764 8.30008,7.310643 8.209674,7.310603 8.102387,7.310603 8.102642,7.259262 8.102642,7.183252" style="fill: white" /><polygon type="contour" points="8.300166,7.581111 8.300136,7.711224 8.220415,7.711003 8.102642,7.711003 8.102387,7.581112 8.102387,7.471047 8.209674,7.471047 8.30008,7.470964" style="fill: white" /><polygon type="contour" points="8.300136,8.203472 8.300036,8.300039 8.179096,8.300039 8.102378,8.300138 8.102642,8.220417 8.102642,8.102644 8.203471,8.10238 8.300136,8.10238" style="fill: white" /><polygon type="contour" points="8.634956,8.102514 8.77686,8.102514 8.77686,8.20486 8.776876,8.299774 8.596951,8.300039 8.481894,8.300039 8.481894,8.179099 8.482153,8.10238" style="fill: white" /><polygon type="contour" points="8.719186,8.482143 8.776704,8.482143 8.776704,8.719189 8.776764,8.776765 8.538376,8.776765 8.482142,8.776706 8.482128,8.541174 8.482128,8.48213" style="fill: white" /><polygon type="contour" points="8.299771,8.664108 8.299771,8.776878 8.204859,8.776862 8.102513,8.776862 8.102378,8.626465 8.102378,8.482155 8.20347,8.482155 8.300036,8.481897" style="fill: white" /><polygon type="contour" points="8.300035,9.187629 8.30019,9.298902 8.222472,9.298868 8.10271,9.298868 8.10257,9.154785 8.102513,9.015168 8.204858,9.015168 8.299771,9.014444" style="fill: white" /><polygon type="contour" points="8.776876,9.190418 8.776965,9.299156 8.629664,9.298902 8.481908,9.298902 8.481919,9.154786 8.481909,9.014712 8.776876,9.014712" style="fill: white" /><polygon type="contour" points="9.298442,9.126021 9.298442,9.298868 9.15444,9.299156 9.014608,9.299156 9.014608,9.154786 9.014711,9.014711 9.154439,9.01461 9.298809,9.01461" style="fill: white" /><polygon type="contour" points="9.126019,9.833261 9.298442,9.833261 9.298809,9.977261 9.298809,10.117092 9.154439,10.117092 9.014711,10.116991 9.014711,9.941285 9.014608,9.832893" style="fill: white" /><polygon type="contour" points="8.776965,9.977261 8.776876,10.116991 8.481909,10.116991 8.481894,9.9438 8.481908,9.833152 8.631622,9.832893 8.776965,9.832893" style="fill: white" /><polygon type="contour" points="8.776764,10.354936 8.776764,10.593325 8.776704,10.64956 8.541171,10.649573 8.482128,10.649573 8.482142,10.412513 8.482142,10.35486 8.719186,10.35486" style="fill: white" /><polygon type="contour" points="9.298551,10.502039 9.298551,10.649794 9.154439,10.649782 9.014711,10.649792 9.014711,10.354824 9.190415,10.354824 9.298809,10.354737" style="fill: white" /><polygon type="contour" points="9.298442,10.908806 9.298442,11.028992 9.154439,11.029132 9.015166,11.029189 9.015166,10.92684 9.014711,10.831662 9.15444,10.831387 9.298551,10.831162" style="fill: white" /><polygon type="contour" points="9.129563,11.420699 9.298442,11.421049 9.29855,11.548354 9.29855,11.66093 9.147599,11.66093 9.014394,11.660992 9.014711,11.512423 9.015166,11.420432" style="fill: white" /><polygon type="contour" points="9.298442,11.871147 9.298442,11.94844 9.15444,11.948116 9.015524,11.948202 9.015381,11.916278 9.014394,11.866938 9.014394,11.821313 9.196249,11.821313 9.29855,11.821092" style="fill: white" /><polygon type="contour" points="8.77727,11.821254 8.777001,11.843854 8.776764,11.948103 8.776607,11.948178 8.776548,12.034213 8.763727,12.034657 8.764399,12.117009 8.764281,12.120822 8.730109,12.120668 8.482128,12.119946 8.481798,11.875577 8.481798,11.821216 8.7236,11.821216" style="fill: white" /><polygon type="contour" points="8.777012,11.550589 8.776958,11.660633 8.481798,11.660633 8.481932,11.55059 8.482153,11.420478 8.634957,11.420432 8.77686,11.420432" style="fill: white" /><polygon type="contour" points="8.300166,11.550589 8.30008,11.66074 8.173318,11.66074 8.102387,11.660657 8.102642,11.563949 8.102642,11.420699 8.203471,11.420478 8.300136,11.420478" style="fill: white" /><polygon type="contour" points="8.300036,11.898588 8.300036,11.948211 8.200365,11.948383 8.102642,11.94845 8.102387,11.879502 8.102387,11.821101 8.209674,11.821101 8.30008,11.821061" style="fill: white" /><polygon type="contour" points="7.711001,11.87244 7.711001,11.94845 7.596105,11.948492 7.471068,11.948082 7.471068,11.821141 7.628504,11.821141 7.711144,11.821101" style="fill: white" /><polygon type="contour" points="7.567753,11.420699 7.711001,11.420699 7.711144,11.55059 7.711144,11.660657 7.581109,11.660657 7.471068,11.660633 7.471068,11.503198 7.471045,11.420556" style="fill: white" /><polygon type="contour" points="7.3106,11.550589 7.310561,11.660633 7.266698,11.660633 7.183277,11.660337 7.18321,11.535594 7.183251,11.420699 7.252199,11.420556 7.3106,11.420556" style="fill: white" /><polygon type="contour" points="7.310448,11.925484 7.310377,11.947764 7.310377,12.119527 7.309896,12.119526 7.211827,12.120299 7.005358,12.126344 7.008272,12.006209 7.011696,11.898046 7.012176,11.821805 7.012175,11.821323 7.01279,11.821325 7.183937,11.821325 7.310448,11.821254" style="fill: white" />
</svg>
