<svg width="19.131698" height="19.131699">
<polygon type="contour" points="9.597333,9.304093 9.605097,9.3054 9.642771,9.314506 9.667207,9.324197 9.684209,9.331164 9.717101,9.350302 9.723466,9.354624 9.755219,9.381842 9.760396,9.387699 9.783459,9.418237 9.796098,9.441407 9.804433,9.457672 9.815409,9.48851 9.819996,9.499709 9.824629,9.525405 9.827695,9.543522 9.827695,9.587758 9.823061,9.613878 9.819489,9.631843 9.810193,9.653569 9.804637,9.672785 9.792378,9.696881 9.783458,9.712768 9.767029,9.732987 9.755246,9.74667 9.727697,9.773903 9.722941,9.777918 9.717701,9.781301 9.684209,9.800118 9.649298,9.815503 9.643522,9.817656 9.639013,9.818538 9.598188,9.82761 9.556716,9.829553 9.548804,9.828902 9.510485,9.822797 9.473799,9.813303 9.467119,9.810767 9.462304,9.808704 9.428312,9.78976 9.396897,9.767901 9.392066,9.764026 9.387601,9.759703 9.361541,9.731246 9.338397,9.7009 9.335442,9.695856 9.3346,9.694037 9.332301,9.690006 9.318004,9.653554 9.311263,9.628276 9.306803,9.610437 9.304698,9.584318 9.303811,9.566202 9.306424,9.533798 9.306804,9.521686 9.313545,9.495987 9.318004,9.478429 9.328957,9.454836 9.337242,9.438419 9.357103,9.405499 9.36073,9.400415 9.363964,9.397159 9.392476,9.36735 9.426172,9.342075 9.432996,9.338301 9.467648,9.322206 9.492926,9.314201 9.510537,9.309589 9.548203,9.302799 9.555861,9.302148" style="fill: white" />
</svg>
