<svg width="19.131698" height="19.131699">
<polygon type="contour" points="9.643917,8.465419 9.711101,8.465676 9.711101,8.75106 9.4206,8.75106 9.4206,8.465676 9.48746,8.465419 9.565843,8.463222" style="fill: white" /><polygon type="contour" points="8.684539,8.465917 8.750037,8.465096 8.75087,8.487177 8.750761,8.511091 8.750761,8.542592 8.750391,8.740393 8.750367,8.748714 8.750367,8.75037 8.746407,8.75037 8.547296,8.750165 8.465578,8.750165 8.465535,8.625224 8.46493,8.464932" style="fill: white" /><polygon type="contour" points="9.044692,8.633112 9.085382,8.633158 9.127164,8.633206 9.138788,8.633183 9.140822,8.633178 9.140822,8.7481 9.14085,8.750744 9.138607,8.750744 9.127164,8.750805 9.044691,8.750712 9.028483,8.750623 9.028483,8.633061" style="fill: white" /><polygon type="contour" points="8.750621,9.031178 8.75071,9.044693 8.750804,9.127164 8.750742,9.140852 8.748098,9.140824 8.633178,9.140824 8.633205,9.127165 8.633157,9.085383 8.633111,9.044693 8.633067,9.030949 8.63306,9.028485 8.750621,9.028485" style="fill: white" /><polygon type="contour" points="9.14084,9.042441 9.14084,9.127165 9.140822,9.140824 9.138621,9.140824 9.127163,9.140842 9.044692,9.143047 9.028483,9.14342 9.028483,9.140766 9.028505,9.127205 9.028505,9.044692 9.028483,9.028485 9.12488,9.028443 9.127164,9.028467 9.14085,9.028443" style="fill: white" /><polygon type="contour" points="9.711101,9.140824 9.4206,9.140824 9.4206,9.028485 9.711101,9.028485" style="fill: white" /><polygon type="contour" points="10.004536,9.028467 10.087008,9.028507 10.103218,9.028485 10.103218,9.124509 10.103196,9.127206 10.103218,9.143421 10.087008,9.143047 10.004535,9.140841 9.990878,9.140823 9.990878,9.138623 9.99086,9.127164 9.99086,9.042441 9.99085,9.028443 9.993091,9.028443" style="fill: white" /><polygon type="contour" points="10.103218,8.750623 10.100524,8.750623 10.087008,8.750712 10.004535,8.750805 9.99085,8.750744 9.990878,8.7481 9.990878,8.633178 10.004536,8.633205 10.046316,8.633159 10.087009,8.633111 10.100752,8.633069 10.103218,8.633061" style="fill: white" /><polygon type="contour" points="10.666165,8.625224 10.666122,8.750165 10.581236,8.750165 10.382988,8.75037 10.381333,8.75037 10.381308,8.740392 10.380937,8.511091 10.380829,8.50837 10.380829,8.487177 10.381662,8.465096 10.44716,8.465917 10.66677,8.464932" style="fill: white" /><polygon type="contour" points="10.49859,9.044693 10.498543,9.085383 10.498496,9.127165 10.498518,9.13879 10.498523,9.140824 10.3836,9.140824 10.380957,9.140852 10.380957,9.13861 10.380895,9.127165 10.380989,9.044693 10.381078,9.028485 10.498641,9.028485" style="fill: white" /><polygon type="contour" points="10.668764,9.495604 10.668426,9.566202 10.668764,9.636459 10.669902,9.711102 10.380622,9.711102 10.380622,9.424631 10.380642,9.420602 10.669902,9.420602" style="fill: white" /><polygon type="contour" points="10.584404,10.381539 10.666122,10.381539 10.666164,10.50648 10.666769,10.666772 10.44716,10.665786 10.381662,10.666607 10.380829,10.644526 10.380937,10.620612 10.380937,10.589109 10.381309,10.39131 10.381333,10.382989 10.381333,10.381334 10.385292,10.381334" style="fill: white" /><polygon type="contour" points="10.3836,9.99088 10.498523,9.99088 10.498496,10.004538 10.498542,10.046318 10.49859,10.087011 10.498632,10.100754 10.498641,10.10322 10.381078,10.10322 10.381078,10.100526 10.380989,10.08701 10.380895,10.004538 10.380957,9.990852" style="fill: white" /><polygon type="contour" points="9.140802,10.380958 9.140809,10.383595 9.140809,10.498511 9.127164,10.498498 9.085382,10.498545 9.044692,10.498591 9.030948,10.498634 9.028483,10.498643 9.028483,10.381079 9.031176,10.381079 9.044692,10.38099 9.127164,10.380896" style="fill: white" /><polygon type="contour" points="8.750391,10.391311 8.750761,10.620612 8.75087,10.623334 8.75087,10.644526 8.750037,10.666607 8.684539,10.665787 8.46493,10.666772 8.465535,10.50648 8.465578,10.381539 8.550463,10.381539 8.748711,10.381334 8.750367,10.381334" style="fill: white" /><polygon type="contour" points="8.750742,9.9909 8.750742,9.993093 8.750804,10.004538 8.75071,10.087011 8.750621,10.10322 8.63306,10.10322 8.63311,10.087011 8.633158,10.046318 8.633205,10.004538 8.633181,9.992912 8.633178,9.99088 8.748097,9.99088" style="fill: white" /><polygon type="contour" points="8.751078,9.711102 8.461798,9.711102 8.462936,9.636099 8.463275,9.565502 8.462936,9.495244 8.461798,9.420602 8.751078,9.420602" style="fill: white" /><polygon type="contour" points="9.140822,9.711102 9.044692,9.711102 9.028483,9.711159 9.028483,9.420602 9.140822,9.420602" style="fill: white" /><polygon type="contour" points="9.140822,9.99088 9.140822,9.99308 9.14084,10.004538 9.14084,10.089264 9.140802,10.103262 9.138608,10.103262 9.127163,10.103238 9.044692,10.103198 9.028483,10.10322 9.02844,10.00682 9.028464,10.004538 9.02844,9.9909 9.042439,9.990862 9.127164,9.990862" style="fill: white" /><polygon type="contour" points="9.711101,10.10322 9.420543,10.10322 9.4206,10.100557 9.4206,9.99088 9.711101,9.99088" style="fill: white" /><polygon type="contour" points="9.711101,9.711102 9.4206,9.711102 9.4206,9.420602 9.711101,9.420602" style="fill: white" /><polygon type="contour" points="10.103218,9.711102 9.990878,9.711102 9.990878,9.420602 10.103218,9.420602" style="fill: white" /><polygon type="contour" points="10.103218,9.990935 10.103196,10.004496 10.103196,10.08701 10.103218,10.10322 10.00719,10.10322 10.004493,10.103198 9.988279,10.10322 9.988652,10.08701 9.99086,10.004538 9.990878,9.99088 9.993078,9.99088 10.004536,9.990862 10.087008,9.988654 10.103218,9.988281" style="fill: white" /><polygon type="contour" points="10.087009,10.38099 10.103218,10.381079 10.103218,10.498643 10.087009,10.498592 10.046316,10.498544 10.004535,10.498498 9.992911,10.49852 9.990878,10.498525 9.990878,10.383601 9.99085,10.380958 9.993092,10.380958 10.004535,10.380896" style="fill: white" /><polygon type="contour" points="9.711101,10.666028 9.643917,10.666285 9.5655,10.668482 9.48746,10.666285 9.4206,10.666028 9.4206,10.380644 9.711101,10.380644" style="fill: white" />
</svg>
