<svg width="19.131698" height="19.131699">
<polygon type="contour" points="8.942391,10.082429 8.973671,10.082429 9.049518,10.082183 9.049518,10.094175 9.049272,10.158031 9.049272,10.189309 9.049518,10.30479 8.963833,10.30511 8.962924,10.408 8.962663,10.426378 8.962374,10.472289 8.781608,10.471448 8.659133,10.472569 8.659785,10.438026 8.659843,10.431657 8.660114,10.338121 8.66064,10.167933 8.673633,10.167983 8.826591,10.167983 8.826912,10.082183 8.844947,10.082183" style="fill: white" /><polygon type="contour" points="8.781609,8.660256 8.962374,8.659414 8.962925,8.723704 8.962925,8.82659 9.049518,8.826915 9.049518,8.844949 9.049272,8.942394 9.049272,8.973673 9.049518,9.049519 9.037524,9.049519 8.973671,9.049273 8.942392,9.049273 8.826912,9.049519 8.826591,8.963721 8.673634,8.963721 8.666051,8.963774 8.660639,8.96377 8.660113,8.793581 8.659844,8.700047 8.659786,8.693677 8.659133,8.659135" style="fill: white" /><polygon type="contour" points="8.942391,9.333757 8.973671,9.333757 9.049518,9.333611 9.049518,9.345696 9.049864,9.41054 9.049864,9.721163 9.049518,9.798093 9.037524,9.798093 8.973671,9.797947 8.942392,9.797947 8.826912,9.798093 8.826591,9.711102 8.655399,9.711102 8.656026,9.581252 8.656155,9.566201 8.655539,9.438011 8.655399,9.420602 8.826591,9.420602 8.826912,9.333611 8.844947,9.333611" style="fill: white" /><polygon type="contour" points="10.471914,8.693677 10.471855,8.700047 10.471586,8.793581 10.47106,8.963771 10.458066,8.963721 10.305109,8.963721 10.304789,9.049519 10.286754,9.049519 10.189307,9.049273 10.158028,9.049273 10.082182,9.049519 10.082182,9.037526 10.082427,8.973672 10.082427,8.942394 10.082182,8.826915 10.167866,8.826594 10.168774,8.723704 10.169037,8.705324 10.169327,8.659414 10.350091,8.660256 10.472567,8.659135" style="fill: white" /><polygon type="contour" points="9.629829,8.657796 9.711101,8.659972 9.711101,8.826593 9.798091,8.826915 9.798091,8.84495 9.797946,8.942393 9.797946,8.973673 9.798091,9.049519 9.786004,9.049519 9.721163,9.049865 9.410538,9.049865 9.333609,9.049519 9.333609,9.037525 9.333754,8.973673 9.333754,8.942393 9.333609,8.826915 9.4206,8.826593 9.4206,8.659972 9.421741,8.659947 9.565586,8.656165" style="fill: white" /><polygon type="contour" points="9.798091,9.333611 9.798091,9.345697 9.798535,9.410539 9.798535,9.721164 9.798091,9.798093 9.786005,9.798093 9.721162,9.798537 9.410537,9.798537 9.333609,9.798093 9.333609,9.786006 9.333165,9.721164 9.333165,9.410539 9.333609,9.333611 9.345695,9.333611 9.410537,9.333167 9.721163,9.333167" style="fill: white" /><polygon type="contour" points="10.158029,9.333757 10.189308,9.333757 10.304789,9.333611 10.305109,9.420602 10.476301,9.420602 10.475673,9.550451 10.475545,9.565585 10.476161,9.693776 10.476301,9.711102 10.305109,9.711102 10.304789,9.798093 10.286753,9.798093 10.189308,9.797947 10.158028,9.797947 10.082182,9.798093 10.082182,9.786007 10.081836,9.721163 10.081836,9.41054 10.082182,9.333611 10.094173,9.333611" style="fill: white" /><polygon type="contour" points="10.158029,10.082429 10.189308,10.082429 10.304789,10.082183 10.305109,10.167983 10.458065,10.167983 10.465648,10.167929 10.47106,10.167933 10.471585,10.338121 10.471856,10.431657 10.471914,10.438026 10.472567,10.472569 10.35009,10.471447 10.169327,10.472289 10.168775,10.407999 10.168775,10.305114 10.082182,10.30479 10.082182,10.286754 10.082427,10.18931 10.082427,10.158031 10.082182,10.082183 10.094173,10.082183" style="fill: white" /><polygon type="contour" points="9.798091,10.082183 9.798091,10.094175 9.797946,10.158031 9.797946,10.18931 9.798091,10.30479 9.711101,10.305111 9.711101,10.471729 9.70996,10.471754 9.565501,10.475539 9.50148,10.473906 9.4206,10.471729 9.4206,10.305111 9.333609,10.30479 9.333609,10.286755 9.333754,10.189309 9.333754,10.158031 9.333609,10.082183 9.345694,10.082183 9.410538,10.081838 9.721162,10.081838" style="fill: white" />
</svg>
