<svg width="19.131698" height="19.131699">
<polygon type="contour" points="9.876995,10.486035 9.876995,10.488747 9.877025,10.527044 9.877025,10.63285 9.876995,10.678759 9.838525,10.678826 9.787024,10.678826 9.787024,10.731661 9.787108,10.766969 9.787023,10.792593 9.787091,10.829864 9.787108,10.845617 9.745551,10.846643 9.686596,10.84774 9.621875,10.850691 9.5655,10.850562 9.44485,10.847741 9.386038,10.846643 9.344591,10.845617 9.344676,10.792593 9.344592,10.766969 9.344676,10.731661 9.344676,10.678826 9.293173,10.678826 9.254706,10.678759 9.254706,10.675792 9.254676,10.632851 9.254676,10.527045 9.254706,10.486035 9.257632,10.486035 9.293174,10.486023 9.838526,10.486023" style="fill: white" /><polygon type="contour" points="10.678756,10.486035 10.678625,10.570897 10.797418,10.570897 10.832511,10.57082 10.845281,10.570804 10.845374,10.573048 10.850935,10.627768 10.851494,10.851496 10.700039,10.847213 10.573657,10.84885 10.571055,10.763637 10.571055,10.678628 10.486033,10.678759 10.486033,10.675793 10.48596,10.63285 10.48596,10.527044 10.486033,10.486035 10.488744,10.486035 10.527043,10.485963 10.632848,10.485963" style="fill: white" /><polygon type="contour" points="10.678756,9.254708 10.678824,9.293175 10.678824,9.344679 10.792589,9.344679 10.829863,9.34461 10.845615,9.344593 10.846641,9.386147 10.84774,9.445105 10.84962,9.482414 10.85058,9.566202 10.84962,9.649644 10.84774,9.686852 10.84664,9.74566 10.845615,9.78711 10.792589,9.787025 10.678824,9.787025 10.678824,9.838527 10.678756,9.876997 10.675789,9.876997 10.632849,9.877026 10.527042,9.877026 10.486033,9.876997 10.486033,9.87407 10.486021,9.838527 10.486021,9.293175 10.486033,9.254708 10.488745,9.254708 10.527042,9.254679 10.632849,9.254679" style="fill: white" /><polygon type="contour" points="10.848511,8.389807 10.845967,8.517305 10.845281,8.560901 10.797418,8.560808 10.678625,8.560808 10.678756,8.645669 10.67579,8.645669 10.632848,8.645741 10.527042,8.645741 10.486033,8.645669 10.486033,8.642957 10.48596,8.604659 10.48596,8.498852 10.486032,8.452945 10.570685,8.453075 10.571055,8.368066 10.571546,8.359097 10.573657,8.282854 10.70004,8.284492 10.851494,8.280208" style="fill: white" /><polygon type="contour" points="8.43166,8.284492 8.558043,8.282854 8.560646,8.368066 8.560646,8.453075 8.645668,8.452945 8.645668,8.45591 8.64574,8.498853 8.64574,8.60466 8.645668,8.645669 8.642956,8.645669 8.604657,8.645741 8.498852,8.645741 8.452944,8.645669 8.453074,8.560808 8.334281,8.560808 8.299186,8.560884 8.286417,8.560901 8.286324,8.558655 8.280762,8.503935 8.280206,8.280208" style="fill: white" /><polygon type="contour" points="9.566198,8.281143 9.68685,8.283963 9.745657,8.285058 9.787108,8.286086 9.787024,8.339111 9.787108,8.364735 9.787024,8.400043 9.787024,8.452878 9.838525,8.452878 9.876995,8.452945 9.876995,8.455911 9.877025,8.498852 9.877025,8.604659 9.876995,8.645669 9.874068,8.645669 9.838525,8.645681 9.293173,8.645681 9.254706,8.645669 9.254706,8.642957 9.254676,8.604659 9.254676,8.498853 9.254706,8.452944 9.293173,8.452878 9.344676,8.452878 9.344676,8.400043 9.344592,8.364735 9.344676,8.33911 9.344607,8.301838 9.34459,8.286086 9.386143,8.285059 9.445104,8.283962 9.509824,8.281014" style="fill: white" /><polygon type="contour" points="9.293173,9.254774 9.838525,9.254774 9.876995,9.254708 9.876995,9.257635 9.876929,9.293175 9.876929,9.838527 9.876995,9.876997 9.874068,9.876997 9.838525,9.87693 9.293173,9.87693 9.254706,9.876997 9.254706,9.87407 9.254772,9.838527 9.254772,9.293176 9.254706,9.254708 9.257633,9.254708" style="fill: white" /><polygon type="contour" points="8.645668,9.254708 8.645668,9.257634 8.64568,9.293175 8.64568,9.838527 8.645668,9.876997 8.642955,9.876997 8.604658,9.877026 8.498851,9.877026 8.452944,9.876997 8.452876,9.838527 8.452876,9.787025 8.33911,9.787025 8.301836,9.787094 8.286084,9.78711 8.285056,9.745553 8.28396,9.686598 8.282081,9.649289 8.28112,9.565502 8.282081,9.482059 8.28396,9.44485 8.285057,9.38604 8.286084,9.344593 8.339109,9.344679 8.452876,9.344679 8.452876,9.293175 8.452944,9.254708 8.45591,9.254708 8.498851,9.254679 8.604658,9.254679" style="fill: white" /><polygon type="contour" points="8.645668,10.486035 8.645668,10.488746 8.64574,10.527045 8.64574,10.63285 8.645668,10.678759 8.561015,10.678628 8.560646,10.763637 8.560155,10.772605 8.558043,10.84885 8.431661,10.847213 8.280205,10.851496 8.283188,10.741896 8.285733,10.614398 8.286417,10.570804 8.334281,10.570897 8.453074,10.570897 8.452944,10.486035 8.455909,10.486035 8.498852,10.485963 8.604658,10.485963" style="fill: white" />
</svg>
