<svg width="19.131698" height="19.131699">
<polygon type="contour" points="12.58569,12.165961 12.585855,12.204275 12.585735,12.470591 12.741892,12.470365 12.758712,12.470218 12.763873,12.60733 12.770635,12.770636 12.503241,12.760401 12.470701,12.759427 12.470701,12.585736 12.204272,12.585856 12.165959,12.585692 12.165959,12.55984 12.165861,12.47014 12.165861,12.332364 12.165959,12.165961 12.212335,12.165961 12.373061,12.165864 12.492825,12.165864" style="fill: white" /><polygon type="contour" points="11.400958,12.165961 11.400958,12.212337 11.400805,12.470141 11.400863,12.470141 11.400863,12.492828 11.400958,12.585691 11.353867,12.585884 11.063101,12.585776 11.063101,12.742586 11.063117,12.749591 11.063129,12.759226 11.035412,12.758916 10.973617,12.759836 10.90353,12.761184 10.775468,12.762641 10.774669,12.673513 10.774309,12.590751 10.773061,12.582083 10.771952,12.373173 10.771825,12.373173 10.771825,12.294548 10.771788,12.166058 10.973474,12.165699 11.063098,12.165554 11.173907,12.165554" style="fill: white" /><polygon type="contour" points="11.133623,10.77241 11.133623,10.771595 11.215862,10.771595 11.400836,10.771849 11.401022,10.973236 11.401146,11.063099 11.401146,11.173909 11.400958,11.40096 11.341107,11.40096 11.091201,11.401187 10.973235,11.401025 10.771848,11.400839 10.771848,11.288479 10.771593,11.133625 10.772408,11.133625 10.771378,10.97302 10.774375,10.774377 10.868221,10.771915 10.936475,10.771863 10.973019,10.77138" style="fill: white" /><polygon type="contour" points="12.373171,10.771827 12.37317,10.771954 12.582081,10.773063 12.590749,10.774311 12.673511,10.774671 12.762702,10.77555 12.76087,10.903222 12.761086,10.903423 12.759834,10.973618 12.75892,11.035519 12.759224,11.063131 12.725407,11.063136 12.585775,11.063136 12.585884,11.35387 12.58569,11.40096 12.559839,11.40096 12.373061,11.400762 12.373061,11.400865 12.332361,11.400865 12.165959,11.40096 12.165959,11.34111 12.165488,11.101749 12.165697,10.973475 12.166056,10.771789 12.252886,10.771789" style="fill: white" /><polygon type="contour" points="12.759215,6.649407 12.758712,6.661484 12.585735,6.661307 12.585854,6.927428 12.585689,6.965742 12.559837,6.965742 12.470137,6.96584 12.332361,6.96584 12.165957,6.965742 12.165957,6.919367 12.165861,6.758639 12.165861,6.638875 12.165959,6.546012 12.204273,6.545848 12.470755,6.545964 12.470755,6.372331 12.588308,6.367194 12.770635,6.361068" style="fill: white" /><polygon type="contour" points="12.470138,7.730896 12.470137,7.730839 12.492825,7.730839 12.58569,7.730743 12.585884,7.777833 12.585775,8.068567 12.725407,8.068567 12.759224,8.068573 12.758934,8.096302 12.759833,8.158084 12.761182,8.228172 12.762639,8.356234 12.673512,8.357032 12.590748,8.357394 12.582081,8.35864 12.37317,8.359749 12.373171,8.359877 12.294547,8.359877 12.166056,8.359912 12.165697,8.158227 12.165551,8.068603 12.165551,7.957794 12.165959,7.730743 12.212334,7.730743" style="fill: white" /><polygon type="contour" points="11.400958,7.730742 11.400958,7.790594 11.401184,8.04059 11.401022,8.158466 11.400836,8.359852 11.288477,8.359852 11.133623,8.360108 11.133623,8.359293 10.973018,8.360323 10.774375,8.357328 10.776427,8.08734 10.771482,8.065878 10.771848,7.843224 10.771761,7.730743 11.018942,7.730555 11.173907,7.730555" style="fill: white" /><polygon type="contour" points="10.903531,6.370518 10.973616,6.371867 11.03545,6.372782 11.063129,6.372478 11.063129,6.545927 11.353867,6.545819 11.400958,6.546012 11.400958,6.571864 11.40076,6.75864 11.400863,6.75864 11.400863,6.799339 11.400958,6.965742 11.341108,6.965742 11.101747,6.966212 10.973474,6.966004 10.771788,6.965646 10.771788,6.878815 10.771825,6.75853 10.771952,6.75853 10.773061,6.549619 10.774309,6.540951 10.77467,6.458189 10.775548,6.369" style="fill: white" /><polygon type="contour" points="8.158464,7.730678 8.35985,7.730865 8.35985,7.843224 8.360106,7.998079 8.35909,7.998079 8.360322,8.158682 8.359839,8.195227 8.359787,8.26348 8.357726,8.33096 8.357326,8.357328 8.087339,8.355276 8.065877,8.36022 7.843221,8.359852 7.730742,8.359939 7.730554,8.112758 7.730554,7.957793 7.730741,7.730743 7.790593,7.730743 8.040588,7.730516" style="fill: white" /><polygon type="contour" points="8.35703,6.458189 8.358639,6.54962 8.359747,6.75853 8.359875,6.758529 8.359875,6.837154 8.35991,6.965646 8.158225,6.966003 8.068601,6.96615 7.957792,6.96615 7.730742,6.965743 7.730742,6.919366 7.730894,6.661563 7.730837,6.661564 7.730837,6.638876 7.730742,6.546012 7.777832,6.545819 8.068599,6.545927 8.068599,6.389117 8.068583,6.382112 8.068571,6.372478 8.096287,6.372788 8.158083,6.371867 8.22817,6.370517 8.356232,6.369062" style="fill: white" /><polygon type="contour" points="6.628054,6.371107 6.660804,6.372081 6.66081,6.402175 6.660766,6.41708 6.660923,6.545964 6.927426,6.545848 6.965741,6.546012 6.965741,6.571863 6.965839,6.661564 6.965839,6.799339 6.96574,6.965743 6.919364,6.965743 6.758638,6.96584 6.638875,6.96584 6.54601,6.965743 6.545844,6.927429 6.545963,6.661111 6.389806,6.661336 6.372989,6.661484 6.367826,6.524373 6.361065,6.361068" style="fill: white" /><polygon type="contour" points="6.758638,7.730942 6.758638,7.730839 6.799337,7.730839 6.965741,7.730743 6.965741,7.790593 6.966211,8.029954 6.966002,8.158227 6.965644,8.359912 6.878813,8.359912 6.758528,8.359877 6.758529,8.359749 6.549618,8.35864 6.540951,8.357394 6.458187,8.357032 6.368998,8.356155 6.370517,8.228172 6.370612,8.22797 6.371865,8.158085 6.37278,8.096185 6.372477,8.068573 6.406293,8.068567 6.545925,8.068567 6.545817,7.777833 6.54601,7.730743 6.571862,7.730743" style="fill: white" /><polygon type="contour" points="6.966002,10.973475 6.966149,11.0631 6.966149,11.173908 6.96574,11.40096 6.919364,11.40096 6.661561,11.400807 6.661562,11.400865 6.638875,11.400865 6.54601,11.40096 6.545817,11.353869 6.545925,11.063136 6.406293,11.063136 6.372477,11.063131 6.372767,11.035401 6.371866,10.973618 6.370517,10.903533 6.36906,10.77547 6.458188,10.774671 6.549618,10.773063 6.758529,10.771954 6.758529,10.771827 6.837153,10.771827 6.965644,10.771789" style="fill: white" /><polygon type="contour" points="8.195225,10.771862 8.263478,10.771915 8.330958,10.773976 8.357326,10.774377 8.359787,10.868223 8.360322,10.97302 8.359291,11.133625 8.360106,11.133625 8.35985,11.28848 8.359937,11.40096 8.112757,11.401149 7.957791,11.401149 7.730742,11.40096 7.730742,11.341109 7.730515,11.091113 7.730677,10.973236 7.730864,10.771849 7.843222,10.771849 7.998077,10.771594 7.998077,10.772611 8.15868,10.77138" style="fill: white" /><polygon type="contour" points="8.158225,12.1657 8.35991,12.166058 8.35991,12.252889 8.359875,12.373174 8.359747,12.373173 8.358638,12.582084 8.357392,12.590752 8.35703,12.673513 8.356153,12.762703 8.228169,12.761183 8.158082,12.759836 8.096249,12.758922 8.068571,12.759226 8.068571,12.585776 7.777832,12.585885 7.730742,12.585692 7.730742,12.559839 7.730939,12.373064 7.730837,12.373064 7.730837,12.332364 7.730742,12.165961 7.790593,12.165961 8.029995,12.165491" style="fill: white" /><polygon type="contour" points="6.965741,12.165961 6.965741,12.212337 6.965839,12.373065 6.965839,12.492828 6.965741,12.585692 6.927427,12.585856 6.660945,12.585736 6.660945,12.759373 6.543391,12.764509 6.361065,12.770636 6.372486,12.482292 6.372989,12.470218 6.545963,12.470398 6.545844,12.204275 6.54601,12.165961 6.571862,12.165961 6.661562,12.165864 6.799338,12.165864" style="fill: white" />
</svg>
