<svg width="19.131698" height="19.131699">
<polygon type="contour" points="9.191522,9.080215 9.191522,9.095102 9.191649,9.112723 9.191649,9.191651 9.0951,9.191524 9.082464,9.191524 9.004948,9.191687 8.986104,9.191687 8.985863,9.086601 8.985991,9.004915 8.985991,8.985993 9.080242,8.985871 9.092815,8.985871 9.0951,8.985852 9.191649,8.983722" style="fill: white" /><polygon type="contour" points="8.756336,9.004915 8.756805,9.089539 8.756728,9.191651 8.638427,9.191651 8.638437,9.092817 8.638449,9.092817 8.638438,9.083028 8.638438,9.082469 8.638437,9.082469 8.638325,8.985993 8.756336,8.985993" style="fill: white" /><polygon type="contour" points="8.72802,8.471411 8.756368,8.471056 8.756729,8.480612 8.756682,8.490962 8.756682,8.504596 8.75652,8.590202 8.756116,8.728593 8.756116,8.756119 8.690281,8.756119 8.534804,8.755959 8.470996,8.755959 8.470962,8.658399 8.470253,8.470254" style="fill: white" /><polygon type="contour" points="9.082469,8.638438 9.082469,8.638439 9.083027,8.638439 9.092815,8.63845 9.092815,8.638438 9.191649,8.638428 9.191649,8.756449 9.087428,8.756795 9.004913,8.756338 8.985991,8.756338 8.985991,8.638326" style="fill: white" /><polygon type="contour" points="9.629806,8.470779 9.711101,8.47109 9.711101,8.756675 9.4206,8.756675 9.4206,8.47109 9.501505,8.470779 9.565781,8.468977" style="fill: white" /><polygon type="contour" points="10.662937,9.508637 10.662661,9.566202 10.662937,9.623489 10.664273,9.711102 10.374704,9.711102 10.374704,9.487605 10.375027,9.420602 10.664273,9.420602" style="fill: white" /><polygon type="contour" points="10.660738,8.658399 10.660704,8.755959 10.557912,8.755959 10.403108,8.756119 10.375583,8.756119 10.375178,8.590202 10.375017,8.490961 10.37497,8.489783 10.37497,8.480612 10.375331,8.471056 10.403677,8.471411 10.661447,8.470254" style="fill: white" /><polygon type="contour" points="10.493263,9.08247 10.493262,9.08247 10.493262,9.083028 10.493251,9.092816 10.493263,9.092816 10.493274,9.191651 10.375252,9.191651 10.374905,9.087422 10.374943,9.080534 10.375364,9.004914 10.375364,8.985993 10.493376,8.985993" style="fill: white" /><polygon type="contour" points="10.14571,8.756338 10.126786,8.756338 10.051169,8.756757 10.044269,8.756795 9.940051,8.756449 9.940051,8.638428 10.038882,8.638438 10.038882,8.63845 10.04867,8.638439 10.049229,8.638439 10.049229,8.638438 10.14571,8.638326" style="fill: white" /><polygon type="contour" points="10.036554,8.985851 10.126786,8.985993 10.14571,8.985993 10.145831,9.080243 10.145831,9.092815 10.14585,9.095101 10.145872,9.191687 10.051482,9.191524 10.038895,9.191524 9.959962,9.191651 9.940051,9.191651 9.940179,9.095101 9.940179,9.082464 9.940051,9.003211 9.940051,8.983722" style="fill: white" /><polygon type="contour" points="9.711101,9.191651 9.4206,9.191651 9.4206,8.985831 9.711101,8.985831" style="fill: white" /><polygon type="contour" points="9.191649,10.375253 9.191649,10.493276 9.092816,10.493265 9.092816,10.493253 9.083027,10.493264 9.082468,10.493264 9.082468,10.493265 8.985991,10.493378 8.985991,10.375365 9.004912,10.375365 9.080533,10.374944 9.087421,10.374906" style="fill: white" /><polygon type="contour" points="8.756521,10.541502 8.756681,10.640742 8.756729,10.64192 8.756729,10.651091 8.756368,10.660648 8.72802,10.660292 8.470253,10.66145 8.470962,10.473306 8.470996,10.375745 8.573787,10.375745 8.728591,10.375585 8.756116,10.375585" style="fill: white" /><polygon type="contour" points="8.756805,10.042161 8.756336,10.126788 8.756336,10.145712 8.638325,10.145712 8.638437,10.049231 8.638438,10.049231 8.638438,10.048672 8.638449,10.038884 8.638437,10.038884 8.638427,9.940053 8.756728,9.940053" style="fill: white" /><polygon type="contour" points="8.756996,9.711102 8.467427,9.711102 8.468763,9.623066 8.469039,9.565501 8.468763,9.508214 8.467427,9.420602 8.756996,9.420602" style="fill: white" /><polygon type="contour" points="9.191649,9.711102 8.986104,9.711102 8.986104,9.420602 9.191649,9.420602" style="fill: white" /><polygon type="contour" points="9.191522,10.036599 9.191522,10.049235 9.191649,10.128493 9.191649,10.147983 9.095143,10.145853 9.004912,10.145712 8.985991,10.145712 8.985856,10.0412 8.98587,10.038884 8.98587,10.035932 8.983999,9.940053 9.080247,9.94018 9.092803,9.94018 9.171737,9.940053 9.191649,9.940053" style="fill: white" /><polygon type="contour" points="9.711101,10.145874 9.4206,10.145874 9.4206,9.940053 9.711101,9.940053" style="fill: white" /><polygon type="contour" points="9.711101,9.711102 9.4206,9.711102 9.4206,9.420602 9.711101,9.420602" style="fill: white" /><polygon type="contour" points="10.145872,9.654016 10.145597,9.711102 9.940051,9.711102 9.940051,9.420602 10.145872,9.420602" style="fill: white" /><polygon type="contour" points="10.596895,10.375745 10.660704,10.375745 10.660738,10.473306 10.661447,10.66145 10.403677,10.660293 10.375331,10.660648 10.37497,10.651091 10.375017,10.640741 10.375017,10.627107 10.375178,10.541502 10.375584,10.403109 10.375584,10.375585 10.441418,10.375585" style="fill: white" /><polygon type="contour" points="10.493263,10.038884 10.493251,10.038884 10.493262,10.048672 10.493262,10.049231 10.493263,10.049231 10.493376,10.145712 10.375364,10.145712 10.375364,10.126789 10.374893,10.042166 10.374972,9.940053 10.493274,9.940053" style="fill: white" /><polygon type="contour" points="10.145837,10.045099 10.14571,10.126789 10.14571,10.145712 10.051455,10.145834 10.038882,10.145834 10.036597,10.145853 9.940014,10.145874 9.940179,10.051484 9.940179,10.036599 9.940013,10.019321 9.940051,9.940053 10.036597,9.94018 10.049233,9.94018 10.12675,9.940016 10.145597,9.940016" style="fill: white" /><polygon type="contour" points="10.126787,10.375365 10.14571,10.375365 10.14571,10.493378 10.049229,10.493265 10.049229,10.493264 10.04867,10.493264 10.038882,10.493253 10.038882,10.493265 9.940051,10.493276 9.940051,10.375252 10.044276,10.374906" style="fill: white" /><polygon type="contour" points="9.711101,10.660614 9.629806,10.660925 9.5655,10.662726 9.501504,10.660924 9.4206,10.660614 9.4206,10.375029 9.711101,10.375029" style="fill: white" />
</svg>
