<svg width="19.131698" height="19.131699">
<polygon type="contour" points="8.889975,8.854752 8.895482,8.854707 9.095954,8.854707 9.096037,8.856752 9.097056,8.877509 9.099555,9.099558 8.909923,9.095847 8.889234,9.096109 8.889042,8.859791 8.888988,8.85469" style="fill: white" /><polygon type="contour" points="10.242658,8.859791 10.242463,9.096109 10.221771,9.095847 10.032145,9.099558 10.034645,8.87751 10.03566,8.856751 10.035611,8.855859 10.035745,8.854707 10.236218,8.854707 10.242712,8.85469" style="fill: white" /><polygon type="contour" points="10.221771,10.035857 10.242463,10.035595 10.242658,10.271912 10.242712,10.277014 10.241724,10.276952 10.236217,10.276997 10.035745,10.276997 10.035661,10.274952 10.034645,10.253562 10.032145,10.032146" style="fill: white" /><polygon type="contour" points="10.00335,10.003352 9.12835,10.003352 9.12835,9.128352 10.00335,9.128352" style="fill: white" /><polygon type="contour" points="9.097056,10.253562 9.096037,10.274952 9.096087,10.275844 9.095953,10.276997 8.895481,10.276997 8.888988,10.277014 8.889042,10.271912 8.889234,10.035595 8.909923,10.035857 9.099555,10.032145" style="fill: white" />
</svg>
