<svg width="19.131698" height="19.131699">
<polygon type="contour" points="14.104313,15.948091 14.104238,16.025867 14.10429,16.025867 14.103856,16.138017 14.103838,16.168788 14.104186,16.217314 14.103872,16.221324 14.103872,16.2902 14.104091,16.293541 14.104115,16.358817 13.972424,16.359128 13.771226,16.359128 13.771101,16.290796 13.770982,16.263682 13.771023,16.220781 13.771023,16.168211 13.704743,16.168443 13.598767,16.168488 13.598767,16.263689 13.522898,16.263669 13.345362,16.263652 13.316469,16.263573 13.20667,16.26369 12.874704,16.263789 12.879989,16.180033 12.872444,16.025841 12.879911,16.025841 12.869944,15.946116 12.865208,15.641181 13.136419,15.640855 13.400005,15.641446 13.790441,15.641291 13.941967,15.640897 13.972113,15.640706 14.006323,15.640848 14.103876,15.640639" style="fill: white" /><polygon type="contour" points="14.419921,15.948091 14.419921,16.036966 14.420219,16.168629 14.224638,16.168789 14.224638,16.025827 14.224673,16.025827 14.224619,15.948091 14.2246,15.640639 14.368711,15.640636 14.42022,15.640636" style="fill: white" /><polygon type="contour" points="16.168613,15.948091 16.168666,16.025824 16.218995,16.025779 16.290199,16.025879 16.293538,16.025595 16.358815,16.025616 16.358673,16.170086 16.358984,16.309293 16.358984,16.358986 16.143238,16.359212 16.141958,16.358992 16.025519,16.358722 16.025876,16.2902 16.025876,16.221323 16.025776,16.218996 16.025823,16.16862 15.713796,16.168695 15.640634,16.168629 15.641551,16.036966 15.641551,15.948092 15.640634,15.640636 15.948089,15.641552 16.036964,15.641552 16.168628,15.640636" style="fill: white" /><polygon type="contour" points="16.26364,13.099501 16.263674,13.189161 16.263722,13.217082 16.263596,13.338573 16.26365,13.520969 16.263683,13.543611 16.263688,13.598769 16.168486,13.598769 16.168441,13.704745 16.168622,13.770782 16.221033,13.770782 16.263679,13.770984 16.290793,13.771101 16.292277,13.771128 16.359126,13.771227 16.359126,13.972425 16.358815,14.104118 16.290198,14.103874 16.217313,14.10419 16.168785,14.103839 16.158382,14.103839 16.14551,14.103852 16.122748,14.103964 16.01477,14.104359 15.685458,14.103806 15.640636,14.103877 15.640676,14.028469 15.640739,14.0136 15.640701,13.984186 15.640894,13.94197 15.641288,13.790442 15.641445,13.400007 15.640947,13.161943 15.640853,13.136421 15.641895,12.859397 15.713155,12.863553 16.020562,12.873231 16.039839,12.867725 16.263779,12.844762" style="fill: white" /><polygon type="contour" points="15.948089,14.224622 16.025825,14.224676 16.025825,14.224641 16.147979,14.224639 16.168785,14.224639 16.168665,14.374225 16.168628,14.420222 16.036963,14.419922 15.94809,14.419922 15.640634,14.420222 15.640636,14.256862 15.640636,14.224601" style="fill: white" /><polygon type="contour" points="14.42022,14.368711 14.42022,14.420222 14.256862,14.420487 14.2246,14.420487 14.2246,14.256862 14.224637,14.224639 14.392082,14.22464 14.420485,14.224602" style="fill: white" /><polygon type="contour" points="13.941968,14.224541 13.958793,14.224524 13.983594,14.224546 14.003101,14.224667 14.017292,14.22448 14.026419,14.224562 14.103889,14.224639 14.103889,14.392084 14.103876,14.420487 14.003101,14.420474 13.983593,14.420547 13.958793,14.420282 13.941968,14.420542 13.79044,14.420357 13.744432,14.42022 13.400005,14.42022 13.161941,14.420394 13.136419,14.420372 12.874842,14.420406 12.875806,14.388923 12.870501,14.224725 12.993692,14.224598 13.05024,14.224565 13.301327,14.224355 13.79044,14.224355" style="fill: white" /><polygon type="contour" points="14.42037,13.13642 14.420217,13.400007 14.420217,13.744434 14.420388,13.925803 14.420541,13.94197 14.420528,13.970186 14.420373,13.993178 14.420391,14.010055 14.42051,14.021959 14.42049,14.029498 14.420478,14.033312 14.420531,14.03478 14.420485,14.103878 14.256861,14.103877 14.224638,14.10389 14.224509,14.021958 14.224576,14.010054 14.224579,13.993176 14.224759,13.970185 14.22454,13.941969 14.224353,13.790442 14.224353,13.301328 14.224572,13.070083 14.224564,13.050242 14.224596,12.993694 14.224851,12.857675 14.234747,12.856424 14.420242,12.848616" style="fill: white" /><polygon type="contour" points="14.103821,12.985096 14.103872,13.050242 14.103866,13.066642 14.103908,13.070083 14.104022,13.301329 14.104022,13.790442 14.103917,13.94197 14.103889,13.958074 14.103992,13.967317 14.104058,13.98322 14.103954,14.003102 14.103907,14.01605 14.103852,14.023545 14.10387,14.025462 14.103907,14.029497 14.103956,14.031205 14.10384,14.032795 14.103838,14.103839 14.028625,14.103908 14.02074,14.103871 14.014784,14.103949 14.00914,14.10389 14.002905,14.103955 13.992292,14.104006 13.987112,14.103961 13.967107,14.103863 13.941968,14.103919 13.79044,14.104024 13.301327,14.104024 13.070082,14.103909 13.05024,14.103872 12.993693,14.10383 12.985094,14.103822 12.857673,14.104176 12.875806,13.832044 12.872418,13.792412 12.87752,13.777984 12.912957,13.777715 12.915832,13.777735 13.126369,13.778146 13.222101,13.77863 13.250533,13.778789 13.345015,13.77833 13.522806,13.77958 13.525482,13.77962 13.544587,13.779481 13.630077,13.77901 13.640493,13.778849 13.643853,13.77924 13.66368,13.77887 13.665715,13.77877 13.674112,13.778288 13.676052,13.777994 13.699034,13.777653 13.70489,13.777525 13.717033,13.777268 13.721488,13.777139 13.737809,13.777086 13.762029,13.761713 13.777027,13.73789 13.777267,13.717036 13.777524,13.704893 13.777652,13.699037 13.777991,13.676056 13.778286,13.674114 13.778767,13.665718 13.778867,13.663683 13.779238,13.643856 13.778846,13.640495 13.779009,13.63008 13.779478,13.544589 13.779617,13.525484 13.779577,13.522808 13.778327,13.345018 13.778786,13.250535 13.778627,13.222103 13.778144,13.126371 13.777733,12.915834 13.777713,12.912959 13.777982,12.877522 13.792411,12.87242 13.832043,12.875808 14.104175,12.857675" style="fill: white" /><polygon type="contour" points="14.104116,2.772886 14.103872,2.841502 14.104186,2.914388 14.103838,2.962914 14.103838,2.973317 14.103851,2.986189 14.104349,3.119221 14.103805,3.446241 14.103876,3.491064 14.006323,3.490856 13.972113,3.490998 13.941968,3.490806 13.79044,3.490411 13.400005,3.490256 13.161942,3.490754 13.136418,3.490849 12.865208,3.490522 12.869501,3.392764 12.874282,3.10588 12.872512,3.10588 12.879989,2.95167 12.87473,2.867908 13.206252,2.867936 13.315958,2.868071 13.344849,2.867996 13.52263,2.868017 13.598767,2.868014 13.598767,2.963214 13.704743,2.963261 13.77078,2.963488 13.77078,2.910666 13.770982,2.868019 13.7711,2.840909 13.771127,2.839423 13.771226,2.772576 13.972424,2.772576" style="fill: white" /><polygon type="contour" points="14.374223,2.963035 14.42022,2.963074 14.419919,3.094737 14.419919,3.183612 14.420219,3.491068 14.256861,3.491064 14.2246,3.491064 14.224619,3.183613 14.224673,3.105878 14.224638,3.105878 14.224638,2.962914" style="fill: white" /><polygon type="contour" points="16.358984,2.772717 16.358984,2.822409 16.358673,2.961619 16.358816,3.106087 16.290198,3.105825 16.221321,3.105825 16.218996,3.105925 16.168618,3.105879 16.168694,3.417905 16.168628,3.491068 16.036963,3.490149 15.94809,3.490149 15.640634,3.491068 15.641551,3.183612 15.641551,3.094737 15.640634,2.963074 15.94809,2.963088 16.025822,2.963034 16.025777,2.912706 16.025878,2.841503 16.025592,2.838163 16.025519,2.772982 16.141958,2.772712 16.143238,2.772491" style="fill: white" /><polygon type="contour" points="16.168665,4.757478 16.168785,4.907063 16.14798,4.907063 16.025825,4.907064 16.025825,4.907028 15.948089,4.907082 15.640636,4.907102 15.640634,4.762991 15.640634,4.711482 15.94809,4.711782 16.036963,4.711782 16.168628,4.711482" style="fill: white" /><polygon type="contour" points="16.025864,5.027465 16.025864,5.027411 16.138014,5.027846 16.168784,5.027863 16.217313,5.027515 16.221321,5.027831 16.290199,5.027831 16.293538,5.027608 16.358815,5.027587 16.359126,5.159278 16.359126,5.360475 16.290793,5.360602 16.263679,5.360719 16.221033,5.360922 16.168213,5.360922 16.168441,5.426957 16.168527,5.53269 16.2438,5.532934 16.263688,5.532934 16.263687,5.60907 16.263704,5.786851 16.263631,5.815742 16.263763,5.925447 16.26364,6.256958 16.186557,6.252119 16.025817,6.26241 16.025817,6.253388 15.946702,6.263325 15.641895,6.272307 15.640853,5.995282 15.641445,5.731694 15.641288,5.341259 15.640893,5.189731 15.640701,5.147517 15.640739,5.118102 15.640676,5.103233 15.640636,5.027825 15.94809,5.027388" style="fill: white" /><polygon type="contour" points="14.420485,5.027825 14.420444,5.109972 14.420391,5.121648 14.420373,5.138524 14.420528,5.161516 14.42054,5.189732 14.420354,5.341259 14.420217,5.387269 14.420217,5.731694 14.420392,5.969759 14.420368,5.995282 14.420242,6.283088 14.408772,6.282048 14.224851,6.274029 14.224596,6.138008 14.224564,6.081459 14.224353,5.830374 14.224353,5.341259 14.22454,5.189732 14.224759,5.161516 14.224579,5.138524 14.224577,5.121647 14.224614,5.109973 14.224638,5.027812 14.392083,5.027812" style="fill: white" /><polygon type="contour" points="14.36871,4.711482 14.42022,4.711482 14.420485,4.874838 14.420485,4.907102 14.256861,4.907102 14.224638,4.907063 14.224638,4.739617 14.2246,4.711217" style="fill: white" /><polygon type="contour" points="14.034399,4.711237 14.034541,4.711189 14.034699,4.711207 14.103876,4.711217 14.103889,4.739617 14.103889,4.907063 14.023378,4.907055 14.017291,4.907223 14.003101,4.907035 13.983594,4.907156 13.958793,4.907179 13.941968,4.907162 13.79044,4.907347 13.301327,4.907347 13.070082,4.90713 13.050241,4.907138 12.993692,4.907105 12.870501,4.906977 12.869304,4.890672 12.874842,4.711297 13.136419,4.711332 13.400005,4.711485 13.744431,4.711485 13.9258,4.711315 13.941967,4.711162 13.958794,4.711421 13.983593,4.711156 14.003101,4.71123 14.017292,4.711222 14.02642,4.711139" style="fill: white" /><polygon type="contour" points="12.985094,5.027881 13.050241,5.02783 13.066641,5.027835 13.070083,5.027792 13.301326,5.02768 13.79044,5.02768 13.941968,5.027784 13.970184,5.027761 13.987112,5.027741 13.992292,5.027697 14.002905,5.027748 14.009141,5.027812 14.014784,5.027753 14.020739,5.02783 14.028626,5.027795 14.029497,5.027795 14.103838,5.027862 14.10384,5.098905 14.103956,5.100497 14.103907,5.102204 14.103871,5.106239 14.103852,5.108157 14.103947,5.116738 14.10402,5.129503 14.103938,5.148858 14.103991,5.164386 14.103889,5.173628 14.103917,5.189731 14.104022,5.341259 14.104022,5.830373 14.103907,6.061619 14.103866,6.065062 14.103872,6.08146 14.104526,6.272992 13.832042,6.255895 13.792411,6.259284 13.777982,6.254182 13.777713,6.218744 13.777733,6.215869 13.778144,6.005331 13.778628,5.909598 13.778786,5.881168 13.778327,5.786685 13.779577,5.608894 13.779617,5.606219 13.779321,5.54611 13.77919,5.539131 13.779556,5.537132 13.779238,5.487846 13.778867,5.468019 13.778767,5.465984 13.778285,5.457589 13.777991,5.455647 13.777652,5.432666 13.777525,5.426812 13.777267,5.414666 13.777027,5.393808 13.761864,5.369832 13.737806,5.354618 13.721487,5.354564 13.717033,5.354436 13.704889,5.354178 13.699034,5.354049 13.676053,5.353709 13.674111,5.353413 13.663681,5.352833 13.643853,5.352462 13.640493,5.352855 13.630077,5.352693 13.544587,5.352221 13.525481,5.352082 13.522806,5.352124 13.345016,5.353374 13.250533,5.352915 13.222102,5.353073 13.126369,5.353558 12.915832,5.353969 12.912956,5.353989 12.87752,5.353721 12.872418,5.339292 12.875806,5.29966 12.857673,5.027529" style="fill: white" /><polygon type="contour" points="2.989741,2.772712 3.106181,2.772982 3.105824,2.841503 3.105824,2.910382 3.105923,2.912706 3.105878,2.963082 3.417903,2.963009 3.491066,2.963074 3.490148,3.094737 3.490148,3.183613 3.491066,3.491068 3.18361,3.490149 3.094737,3.490149 2.963073,3.491068 2.963086,3.183612 2.963032,3.10588 2.912705,3.105925 2.841501,3.105825 2.838162,3.106109 2.772884,3.106087 2.773026,2.961618 2.772715,2.822409 2.772715,2.772717 2.98846,2.772492" style="fill: white" /><polygon type="contour" points="5.3606,2.840908 5.360718,2.868019 5.360677,2.910919 5.360677,2.963489 5.426955,2.963261 5.532931,2.963214 5.532931,2.868014 5.588088,2.86802 5.61073,2.868053 5.793595,2.868104 5.914938,2.867979 5.942539,2.868029 6.032089,2.867939 6.287187,2.867841 6.267432,3.09338 6.254767,3.129696 6.261757,3.185586 6.266492,3.490522 5.995278,3.490849 5.731693,3.490256 5.341258,3.490411 5.18973,3.490806 5.159585,3.490998 5.125376,3.490856 5.106455,3.490829 5.027824,3.491064 5.027387,3.183613 5.027461,3.105837 5.02741,3.105838 5.027845,2.993685 5.027862,2.962915 5.027514,2.914389 5.027828,2.910382 5.027828,2.841503 5.027606,2.838163 5.027584,2.772886 5.159275,2.772576 5.360473,2.772576" style="fill: white" /><polygon type="contour" points="4.907062,3.105878 4.907026,3.105878 4.90708,3.183612 4.907101,3.491064 4.76299,3.491068 4.71148,3.491068 4.71178,3.183612 4.71178,3.094738 4.71148,2.963074 4.757477,2.963035 4.907062,2.962914" style="fill: white" /><polygon type="contour" points="6.255894,5.299659 6.259283,5.339291 6.25418,5.353721 6.218743,5.353989 6.215867,5.353969 6.005329,5.353558 5.909596,5.353073 5.881167,5.352914 5.786684,5.353374 5.608893,5.352124 5.606215,5.352083 5.546108,5.352381 5.539128,5.352512 5.537129,5.352144 5.487845,5.352462 5.468017,5.352833 5.465982,5.352932 5.457587,5.353414 5.455645,5.353709 5.432663,5.354049 5.42681,5.354178 5.414663,5.354437 5.41021,5.354564 5.393896,5.354618 5.369782,5.369833 5.35467,5.393815 5.354433,5.414667 5.354177,5.426811 5.354046,5.432666 5.353706,5.455647 5.353411,5.457589 5.352929,5.465984 5.35283,5.468019 5.352459,5.487846 5.352853,5.491208 5.352691,5.501622 5.352219,5.587112 5.352081,5.606219 5.352121,5.608894 5.353372,5.786685 5.352913,5.881168 5.353071,5.909598 5.353556,6.005331 5.353966,6.215868 5.353986,6.218745 5.353718,6.254182 5.33929,6.259284 5.299657,6.255895 5.027176,6.272992 5.027879,6.146608 5.027829,6.08146 5.027678,5.830373 5.027678,5.341259 5.027782,5.189731 5.027811,5.173628 5.027708,5.164385 5.027641,5.148482 5.027746,5.128601 5.027792,5.115652 5.027848,5.108157 5.02783,5.10624 5.027794,5.102203 5.027743,5.100497 5.02786,5.098905 5.027862,5.027863 5.103075,5.027795 5.11096,5.02783 5.116915,5.027753 5.122558,5.027812 5.128794,5.027748 5.139407,5.027697 5.144587,5.027741 5.161514,5.027761 5.18973,5.027784 5.341258,5.02768 5.830372,5.02768 6.061616,5.027792 6.065058,5.027835 6.081457,5.02783 6.27299,5.027178" style="fill: white" /><polygon type="contour" points="5.172904,4.711421 5.189731,4.711162 5.341258,4.711348 5.387266,4.711485 5.731692,4.711485 5.969758,4.71131 5.995279,4.711332 6.256859,4.711297 6.255894,4.74278 6.261199,4.906977 6.138006,4.907105 6.081457,4.907138 5.830372,4.907347 5.341258,4.907347 5.18973,4.907162 5.172905,4.907179 5.148105,4.907156 5.128598,4.907035 5.114408,4.907223 5.108321,4.907055 5.027811,4.907063 5.027811,4.739617 5.027824,4.711217 5.114408,4.711222 5.128598,4.71123 5.148106,4.711156" style="fill: white" /><polygon type="contour" points="4.907191,5.109744 4.907124,5.121647 4.907121,5.138524 4.906941,5.161516 4.90716,5.189731 4.907346,5.341259 4.907346,5.830373 4.907129,6.061619 4.907137,6.081459 4.907104,6.138007 4.906849,6.274028 4.89695,6.275279 4.711456,6.283088 4.71133,5.995281 4.711483,5.731695 4.711483,5.387269 4.711346,5.341259 4.711159,5.189732 4.711171,5.161516 4.711325,5.138525 4.711308,5.121647 4.71119,5.109744 4.711215,5.027825 4.874837,5.027825 4.907062,5.027812" style="fill: white" /><polygon type="contour" points="4.907101,4.874839 4.907062,4.907063 4.739615,4.907063 4.711215,4.907102 4.71148,4.762992 4.71148,4.711482 4.874837,4.711217 4.907101,4.711217" style="fill: white" /><polygon type="contour" points="3.491062,4.874839 3.491062,4.907102 3.183611,4.907082 3.105877,4.907028 3.105877,4.907064 2.983717,4.907063 2.962913,4.907063 2.963034,4.757479 2.963073,4.711482 3.094737,4.711782 3.18361,4.711782 3.491066,4.711482" style="fill: white" /><polygon type="contour" points="3.446239,5.027896 3.491062,5.027825 3.491022,5.103233 3.49096,5.118102 3.490998,5.147517 3.490804,5.189731 3.490409,5.34126 3.490255,5.731695 3.490752,5.96976 3.490847,5.995281 3.489805,6.272307 3.418545,6.26815 3.10583,6.258304 3.105825,6.262361 2.945143,6.252119 2.868058,6.256958 2.867935,5.925447 2.868069,5.815743 2.867995,5.786387 2.868015,5.60907 2.868012,5.532934 2.963212,5.532934 2.963259,5.426957 2.96308,5.360922 2.910664,5.360922 2.868017,5.36072 2.840906,5.360602 2.839422,5.360575 2.772574,5.360475 2.772574,5.159278 2.772884,5.027587 2.8415,5.027831 2.914388,5.027515 2.962913,5.027863 2.973315,5.027863 2.986186,5.02785 3.008951,5.027736 3.116705,5.027345" style="fill: white" /><polygon type="contour" points="3.491066,14.368711 3.491066,14.420222 3.18361,14.419922 3.094737,14.419922 2.963073,14.420222 2.963034,14.374224 2.962912,14.224639 2.983718,14.224639 3.105877,14.224641 3.105877,14.224676 3.183611,14.224623 3.491062,14.224601" style="fill: white" /><polygon type="contour" points="3.091862,12.867725 3.121894,12.876305 3.184999,12.868379 3.489805,12.859397 3.490846,13.136421 3.490255,13.400008 3.490409,13.790442 3.490804,13.94197 3.490998,13.984185 3.49096,14.0136 3.491022,14.028468 3.491062,14.103877 3.183611,14.104315 3.105837,14.104241 3.105836,14.104293 2.993684,14.103857 2.962913,14.103838 2.914388,14.10419 2.91038,14.103874 2.841501,14.103874 2.838162,14.104093 2.772884,14.104118 2.772574,13.972425 2.772574,13.771227 2.840906,13.771102 2.868017,13.770984 2.910918,13.771025 2.96349,13.771025 2.963258,13.704745 2.963212,13.598769 2.868012,13.598769 2.868018,13.543611 2.868051,13.520969 2.868103,13.338107 2.867978,13.216764 2.868027,13.18916 2.867937,13.099611 2.867839,12.844185" style="fill: white" /><polygon type="contour" points="4.722925,12.849656 4.906849,12.857675 4.907104,12.993695 4.907137,13.050242 4.907346,13.301328 4.907346,13.790442 4.90716,13.94197 4.906941,13.970185 4.907121,13.993176 4.907124,14.010054 4.907191,14.021958 4.907211,14.029497 4.907062,14.10389 4.739615,14.10389 4.711215,14.103877 4.711254,14.021729 4.711308,14.010054 4.711325,13.993176 4.711171,13.970185 4.711159,13.941969 4.711346,13.790443 4.711483,13.744434 4.711483,13.400007 4.711309,13.161944 4.711329,13.136421 4.711456,12.848616" style="fill: white" /><polygon type="contour" points="5.299658,12.875808 5.33929,12.87242 5.353719,12.877522 5.353987,12.912958 5.353967,12.915834 5.353556,13.126371 5.353071,13.222104 5.352913,13.250535 5.353372,13.345018 5.352122,13.522808 5.35208,13.525483 5.35222,13.544589 5.352691,13.630079 5.352853,13.640494 5.35246,13.643855 5.35283,13.663683 5.35293,13.665718 5.353411,13.674114 5.353707,13.676056 5.354047,13.699037 5.354177,13.704893 5.354433,13.717036 5.35467,13.737884 5.369618,13.761713 5.393894,13.777086 5.41021,13.777139 5.414664,13.777268 5.426809,13.777525 5.432663,13.777653 5.455645,13.777994 5.457586,13.778288 5.468015,13.77887 5.487843,13.779241 5.491207,13.778849 5.50162,13.779009 5.58711,13.779481 5.606215,13.77962 5.608892,13.77958 5.786684,13.77833 5.881167,13.778789 5.909596,13.778631 6.005329,13.778146 6.215867,13.777735 6.218742,13.777715 6.254181,13.777984 6.259283,13.792412 6.255894,13.832044 6.27299,14.104527 6.146604,14.103822 6.081458,14.103872 5.830371,14.104024 5.341258,14.104024 5.18973,14.103919 5.161514,14.103942 5.144587,14.103961 5.139408,14.104006 5.128794,14.103955 5.122559,14.10389 5.116915,14.103949 5.110959,14.103871 5.103075,14.103908 5.102203,14.103908 5.027862,14.103838 5.02786,14.032796 5.027743,14.031205 5.027794,14.029498 5.027829,14.025463 5.027848,14.023545 5.027751,14.014963 5.027747,14.003102 5.027642,13.98322 5.027708,13.967317 5.027811,13.958074 5.027782,13.94197 5.027678,13.790442 5.027678,13.301329 5.027792,13.070083 5.027829,13.050242 5.027872,12.993694 5.02788,12.985096 5.027527,12.857675" style="fill: white" /><polygon type="contour" points="6.061617,14.224573 6.081457,14.224565 6.138006,14.224598 6.261199,14.224726 6.262397,14.24103 6.256858,14.420406 5.995278,14.420372 5.731693,14.42022 5.387266,14.42022 5.341258,14.420357 5.18973,14.420542 5.172905,14.420282 5.148105,14.420548 5.128598,14.420474 5.027824,14.420487 5.027811,14.392084 5.027811,14.224639 5.10528,14.224562 5.114407,14.22448 5.128599,14.224667 5.148106,14.224545 5.172904,14.224524 5.18973,14.224541 5.341258,14.224355 5.830371,14.224355" style="fill: white" /><polygon type="contour" points="4.907062,14.224638 4.907062,14.392084 4.907101,14.420487 4.76299,14.420222 4.71148,14.420222 4.711215,14.256863 4.711215,14.224601 4.874838,14.224601" style="fill: white" /><polygon type="contour" points="5.106455,15.640874 5.125376,15.640848 5.159586,15.640706 5.189731,15.640897 5.341257,15.641291 5.731692,15.641446 5.969757,15.64095 5.995279,15.640855 6.266492,15.641181 6.262199,15.738938 6.257675,16.010346 6.267433,16.038322 6.28694,16.263782 6.032199,16.263641 5.94254,16.263674 5.914938,16.263722 5.793594,16.263599 5.610731,16.263651 5.588088,16.263684 5.532931,16.263689 5.532931,16.168488 5.426956,16.168443 5.360677,16.168211 5.360677,16.220781 5.360718,16.263682 5.3606,16.290795 5.360573,16.29228 5.360473,16.359128 5.159275,16.359129 5.027584,16.358819 5.027828,16.2902 5.027514,16.217314 5.027862,16.168788 5.027862,16.158386 5.027849,16.145514 5.027347,16.012475 5.027894,15.685461 5.027824,15.640639" style="fill: white" /><polygon type="contour" points="4.874837,15.640639 4.907101,15.640639 4.90708,15.948091 4.907026,16.025827 4.907062,16.025827 4.907062,16.168789 4.757477,16.168667 4.71148,16.16863 4.71178,16.036965 4.71178,15.948092 4.71148,15.640636" style="fill: white" /><polygon type="contour" points="3.490148,15.948091 3.490148,16.036966 3.491066,16.16863 3.183611,16.168615 3.105879,16.168668 3.105923,16.218997 3.105824,16.2902 3.106107,16.293541 3.106181,16.358722 2.989741,16.358992 2.98846,16.359212 2.772715,16.358986 2.772715,16.309293 2.773026,16.170086 2.772884,16.025616 2.841501,16.025879 2.91038,16.025879 2.912704,16.025779 2.963079,16.025825 2.963008,15.713799 2.963073,15.640636 3.094736,15.641552 3.18361,15.641552 3.491066,15.640636" style="fill: white" />
</svg>
