<svg width="19.131698" height="19.131699">
<polygon type="contour" points="8.891556,8.749808 8.892103,8.787232 8.89253,8.892533 8.811192,8.891557 8.760302,8.892382 8.760794,8.803121 8.761131,8.722321 8.830121,8.721717 8.853544,8.720806 8.891374,8.720514" style="fill: white" /><polygon type="contour" points="10.278155,8.720806 10.37057,8.722322 10.371264,8.842915 10.371496,8.892059 10.325901,8.891301 10.239169,8.892533 10.240143,8.749807 10.240325,8.720514" style="fill: white" /><polygon type="contour" points="10.320506,10.240145 10.371399,10.23932 10.370907,10.328581 10.37057,10.409382 10.301576,10.409986 10.278154,10.410898 10.240325,10.41119 10.240143,10.381895 10.239596,10.344471 10.239169,10.239171" style="fill: white" /><polygon type="contour" points="10.00335,10.003352 9.12835,10.003352 9.12835,9.128352 10.00335,9.128352" style="fill: white" /><polygon type="contour" points="8.891556,10.381896 8.891375,10.41119 8.853545,10.410898 8.761131,10.409382 8.760533,10.294809 8.760302,10.23932 8.811193,10.240145 8.892531,10.239171" style="fill: white" />
</svg>
