<svg width="19.131698" height="19.131699">
<polygon type="contour" points="12.599468,8.397822 12.599546,8.417008 12.600117,8.467225 12.521719,8.467926 12.389997,8.465591 12.311888,8.465495 12.311888,8.173353 12.383733,8.173191 12.480154,8.173089 12.601892,8.173089" style="fill: white" /><polygon type="contour" points="12.134913,8.466942 11.981983,8.466795 11.883673,8.46729 11.88373,8.308719 11.88373,8.173254 12.029387,8.173392 12.134913,8.17321" style="fill: white" /><polygon type="contour" points="10.958359,6.76829 10.958359,6.819962 10.857239,6.819813 10.666207,6.819813 10.664139,6.603231 10.664846,6.531296 10.710373,6.531836 10.728223,6.531931 10.870879,6.529868 10.958568,6.529702" style="fill: white" /><polygon type="contour" points="10.958674,7.157057 10.958448,7.247971 10.809156,7.248029 10.664412,7.248029 10.664906,7.149718 10.66476,6.996789 10.958493,6.996789" style="fill: white" /><polygon type="contour" points="11.364966,6.996902 11.364742,7.125474 11.364742,7.248028 11.255898,7.247971 11.164204,7.247971 11.164066,7.102314 11.164019,6.996862 11.296138,6.996862" style="fill: white" /><polygon type="contour" points="11.364742,6.704393 11.364966,6.771985 11.364966,6.82102 11.248336,6.82102 11.164019,6.820716 11.164171,6.748574 11.164171,6.704248 11.282919,6.703791" style="fill: white" /><polygon type="contour" points="12.600599,6.62403 12.603417,6.818025 12.501531,6.818568 12.474812,6.820076 12.38981,6.820076 12.311888,6.819813 12.311866,6.741721 12.311866,6.65669 12.311865,6.530172 12.442959,6.531764 12.499336,6.531295 12.548035,6.529167 12.604431,6.527272" style="fill: white" /><polygon type="contour" points="12.134913,6.703983 12.134793,6.744849 12.134793,6.820849 11.970433,6.820849 11.883499,6.82102 11.883673,6.761402 11.883673,6.704393 11.981982,6.703719" style="fill: white" /><polygon type="contour" points="12.13484,7.082897 12.1348,7.102315 12.1348,7.248203 12.006228,7.248029 11.883673,7.248029 11.883499,7.102314 11.883499,6.996902 12.029387,6.996902 12.134912,6.996789" style="fill: white" /><polygon type="contour" points="12.427984,7.149718 12.427309,7.248029 12.359717,7.248203 12.310682,7.248203 12.310682,7.102314 12.310852,6.996909 12.386852,6.996909 12.427719,6.996789" style="fill: white" /><polygon type="contour" points="12.3703,7.76696 12.427309,7.76696 12.427912,7.848783 12.427455,7.967531 12.383126,7.967531 12.310985,7.967684 12.310985,7.835565 12.310682,7.766736" style="fill: white" /><polygon type="contour" points="12.1348,7.883365 12.134841,7.967684 12.029386,7.967636 11.88373,7.967498 11.883673,7.864934 11.883673,7.76696 12.029387,7.766736 12.1348,7.766736" style="fill: white" /><polygon type="contour" points="11.364725,7.875802 11.364725,7.967498 11.255898,7.967498 11.164171,7.967531 11.164171,7.842791 11.164204,7.766978 11.266767,7.76696 11.364742,7.76696" style="fill: white" /><polygon type="contour" points="11.364725,8.173254 11.364742,8.322547 11.364742,8.46729 11.282919,8.466945 11.164171,8.467085 11.164171,8.173075 11.28891,8.173075" style="fill: white" /><polygon type="contour" points="10.958568,8.231653 10.958568,8.465452 10.909814,8.464809 10.877463,8.461683 10.673102,8.4586 10.674507,8.273718 10.670019,8.254237 10.666894,8.221887 10.66625,8.173134 10.958708,8.173134" style="fill: white" /><polygon type="contour" points="10.822982,7.766978 10.958447,7.766978 10.958627,7.842792 10.958627,7.967531 10.664617,7.967531 10.664757,7.848783 10.664412,7.76696" style="fill: white" /><polygon type="contour" points="7.24797,8.173254 7.248027,8.322546 7.248027,8.46729 7.149716,8.466795 6.996787,8.466942 6.996787,8.17321 7.157054,8.173028" style="fill: white" /><polygon type="contour" points="6.741719,8.17328 6.768289,8.173344 6.81996,8.173344 6.819811,8.274463 6.819811,8.465495 6.603229,8.467564 6.531294,8.466857 6.531834,8.421329 6.531929,8.403479 6.529866,8.260822 6.529808,8.173089 6.651545,8.173089" style="fill: white" /><polygon type="contour" points="6.821018,7.883364 6.820715,7.967684 6.748572,7.967531 6.704246,7.967531 6.703789,7.848783 6.704391,7.76696 6.771983,7.766736 6.821018,7.766736" style="fill: white" /><polygon type="contour" points="7.125472,7.76696 7.248027,7.76696 7.24797,7.875803 7.24797,7.967498 7.102313,7.967636 6.99686,7.967684 6.99686,7.835564 6.9969,7.766736" style="fill: white" /><polygon type="contour" points="6.632395,6.531225 6.68874,6.531765 6.819811,6.529989 6.819811,6.819813 6.743763,6.819813 6.723762,6.819901 6.656887,6.820076 6.63017,6.818568 6.528284,6.818025 6.531102,6.62403 6.529361,6.577783 6.527269,6.527272" style="fill: white" /><polygon type="contour" points="6.744847,6.996909 6.820847,6.996909 6.820847,7.16127 6.821018,7.248203 6.7614,7.248029 6.704391,7.248029 6.703717,7.149718 6.70398,6.996789" style="fill: white" /><polygon type="contour" points="7.082895,6.996862 7.102313,6.996902 7.248201,6.996902 7.248027,7.125473 7.248027,7.248029 7.102313,7.248203 6.9969,7.248203 6.9969,7.102314 6.996787,6.996789" style="fill: white" /><polygon type="contour" points="7.248027,6.704393 7.248201,6.771984 7.248201,6.821021 7.102313,6.821021 6.996907,6.82085 6.996907,6.74485 6.996787,6.703983 7.149717,6.703719" style="fill: white" /><polygon type="contour" points="8.466794,7.149718 8.467288,7.248029 8.308719,7.247971 8.173252,7.247971 8.17339,7.102315 8.173207,6.996789 8.46694,6.996789" style="fill: white" /><polygon type="contour" points="8.39782,6.532234 8.417006,6.532155 8.467223,6.531584 8.467924,6.609981 8.465588,6.741704 8.465592,6.819901 8.364381,6.819813 8.173351,6.819813 8.173342,6.768291 8.173132,6.668745 8.173088,6.651548 8.173088,6.52981" style="fill: white" /><polygon type="contour" points="7.96753,6.704248 7.96753,6.748574 7.967682,6.820716 7.835562,6.820716 7.766735,6.821021 7.766958,6.761403 7.766958,6.704393 7.848781,6.703791" style="fill: white" /><polygon type="contour" points="7.967634,7.102314 7.967497,7.247971 7.864932,7.248029 7.766957,7.248029 7.766735,7.102315 7.766735,6.996902 7.883362,6.996902 7.967682,6.996862" style="fill: white" /><polygon type="contour" points="7.875802,7.766978 7.967497,7.766978 7.967497,7.875803 7.96753,7.967531 7.84279,7.967531 7.766976,7.967498 7.766958,7.864934 7.766958,7.76696" style="fill: white" /><polygon type="contour" points="8.466944,7.848783 8.467083,7.967531 8.173073,7.967531 8.173073,7.842792 8.173252,7.766978 8.322545,7.76696 8.467288,7.76696" style="fill: white" /><polygon type="contour" points="8.460449,8.336946 8.458598,8.4586 8.273717,8.457195 8.254235,8.461683 8.221886,8.464808 8.173133,8.465451 8.173133,8.173134 8.46545,8.173134" style="fill: white" /><polygon type="contour" points="7.96753,8.467085 7.848781,8.466944 7.766958,8.46729 7.766976,8.308719 7.766976,8.173254 7.84279,8.173075 7.96753,8.173075" style="fill: white" /><polygon type="contour" points="7.248027,12.3703 7.248027,12.427309 7.149716,12.427985 6.996787,12.42772 6.996907,12.386853 6.996907,12.310854 7.161268,12.310854 7.248201,12.310683" style="fill: white" /><polygon type="contour" points="6.819811,12.31189 6.819833,12.389981 6.819833,12.60153 6.68874,12.599939 6.632363,12.600409 6.583664,12.602536 6.527269,12.604431 6.531102,12.507673 6.528283,12.313677 6.630169,12.312725 6.656886,12.311628 6.741889,12.311628" style="fill: white" /><polygon type="contour" points="6.821018,12.029389 6.820847,12.134794 6.744847,12.134794 6.70398,12.134915 6.703717,11.981985 6.704391,11.883675 6.771982,11.883501 6.821018,11.883501" style="fill: white" /><polygon type="contour" points="7.125472,11.883675 7.248027,11.883675 7.248201,12.029388 7.248201,12.134802 7.102312,12.134802 6.996787,12.134915 6.99686,12.048806 6.9969,12.029388 6.9969,11.883501" style="fill: white" /><polygon type="contour" points="6.741701,10.666114 6.819811,10.666209 6.819811,10.958351 6.747965,10.958513 6.651544,10.958615 6.529808,10.958615 6.532232,10.733881 6.532153,10.714695 6.531582,10.664478 6.60998,10.663777" style="fill: white" /><polygon type="contour" points="6.820715,11.29614 6.821018,11.364968 6.761401,11.364744 6.704391,11.364744 6.703789,11.282921 6.704246,11.164173 6.748572,11.164173 6.820715,11.16402" style="fill: white" /><polygon type="contour" points="7.102313,11.164068 7.24797,11.164205 7.248027,11.266769 7.248027,11.364744 7.102312,11.364968 6.9969,11.364968 6.9969,11.248339 6.99686,11.16402" style="fill: white" /><polygon type="contour" points="7.24797,10.822984 7.24797,10.95845 7.102313,10.958312 6.996787,10.958495 6.996787,10.664762 7.149716,10.664908 7.248027,10.664414" style="fill: white" /><polygon type="contour" points="7.96753,10.664619 7.96753,10.958629 7.84279,10.958629 7.766976,10.95845 7.766958,10.809156 7.766958,10.664414 7.875801,10.664314" style="fill: white" /><polygon type="contour" points="8.336944,10.671253 8.458598,10.673104 8.464806,10.909815 8.46545,10.95857 8.173133,10.95857 8.173133,10.666252" style="fill: white" /><polygon type="contour" points="8.466944,11.282921 8.467288,11.364744 8.308719,11.364727 8.173252,11.364727 8.173073,11.288912 8.173073,11.164173 8.467083,11.164173" style="fill: white" /><polygon type="contour" points="7.96753,11.288912 7.967497,11.364727 7.864932,11.364744 7.766958,11.364744 7.766976,11.2559 7.766976,11.164206 7.875802,11.164206 7.96753,11.164173" style="fill: white" /><polygon type="contour" points="7.875802,11.883733 7.967496,11.883733 7.967634,12.029388 7.967682,12.134842 7.835562,12.134842 7.766735,12.134802 7.766958,12.00623 7.766958,11.883675" style="fill: white" /><polygon type="contour" points="7.967682,12.310986 7.96753,12.383127 7.96753,12.427456 7.848781,12.427914 7.766958,12.42731 7.766735,12.359718 7.766735,12.310683 7.883362,12.310683" style="fill: white" /><polygon type="contour" points="8.27446,12.31189 8.465493,12.31189 8.467561,12.528471 8.466854,12.600407 8.421326,12.599865 8.403476,12.599772 8.260821,12.601835 8.173132,12.602001 8.173342,12.363413 8.173342,12.311742" style="fill: white" /><polygon type="contour" points="8.466794,11.981986 8.46694,12.134915 8.173207,12.134915 8.173026,11.974646 8.173252,11.883733 8.322544,11.883676 8.467288,11.883676" style="fill: white" /><polygon type="contour" points="11.364966,12.029388 11.364966,12.134802 11.248336,12.134802 11.164019,12.134842 11.164067,12.029388 11.164204,11.883733 11.266767,11.883675 11.364742,11.883675" style="fill: white" /><polygon type="contour" points="11.364742,12.370301 11.364742,12.42731 11.282919,12.427914 11.164171,12.427456 11.164171,12.383127 11.164019,12.310986 11.296138,12.310986 11.364966,12.310683" style="fill: white" /><polygon type="contour" points="10.767316,12.31189 10.95835,12.31189 10.958359,12.363412 10.958568,12.462957 10.958613,12.480154 10.958613,12.601894 10.733879,12.599468 10.714693,12.599546 10.664477,12.600117 10.663776,12.52172 10.666111,12.389998 10.666108,12.311803" style="fill: white" /><polygon type="contour" points="10.822981,11.883733 10.958448,11.883733 10.95831,12.029388 10.958493,12.134915 10.66476,12.134915 10.664906,11.981985 10.664412,11.883675" style="fill: white" /><polygon type="contour" points="10.958708,10.724769 10.958708,10.95857 10.66625,10.95857 10.666894,10.909815 10.670018,10.877465 10.673102,10.673104 10.909814,10.666894 10.958568,10.666252" style="fill: white" /><polygon type="contour" points="10.958627,11.288912 10.958448,11.364727 10.809155,11.364744 10.664412,11.364744 10.664312,11.255901 10.664617,11.164173 10.958627,11.164173" style="fill: white" /><polygon type="contour" points="11.364725,11.164206 11.364742,11.266769 11.364742,11.364744 11.255899,11.364727 11.164204,11.364727 11.164204,11.2559 11.164171,11.164173 11.28891,11.164173" style="fill: white" /><polygon type="contour" points="11.364725,10.822983 11.364725,10.95845 11.28891,10.958629 11.164171,10.958629 11.164171,10.664619 11.282919,10.664759 11.364742,10.664414" style="fill: white" /><polygon type="contour" points="11.981983,10.664908 12.134913,10.664762 12.134913,10.958494 11.974644,10.958676 11.88373,10.95845 11.883673,10.809157 11.883673,10.664414" style="fill: white" /><polygon type="contour" points="12.600407,10.664848 12.599756,10.710263 12.599771,10.728226 12.601833,10.870881 12.601891,10.958615 12.480154,10.958615 12.389978,10.958423 12.36341,10.95836 12.31174,10.95836 12.311888,10.857241 12.311888,10.666209 12.528471,10.66414" style="fill: white" /><polygon type="contour" points="12.383126,11.164173 12.427455,11.164173 12.427912,11.282921 12.427309,11.364744 12.359716,11.364968 12.310682,11.364968 12.310682,11.248339 12.310985,11.16402" style="fill: white" /><polygon type="contour" points="12.134841,11.296139 12.1348,11.364968 12.006227,11.364744 11.883673,11.364744 11.88373,11.2559 11.88373,11.164206 12.029386,11.164068 12.134841,11.16402" style="fill: white" /><polygon type="contour" points="12.370299,11.883675 12.427308,11.883675 12.427984,11.981985 12.427719,12.134915 12.386852,12.134794 12.310852,12.134794 12.310852,11.970434 12.310682,11.883501" style="fill: white" /><polygon type="contour" points="12.1348,12.029389 12.134913,12.134915 12.048804,12.134842 12.029386,12.134802 11.883499,12.134802 11.883673,12.00623 11.883673,11.883675 12.029386,11.883501 12.1348,11.883501" style="fill: white" /><polygon type="contour" points="12.134793,12.310854 12.134793,12.386853 12.134913,12.42772 11.981983,12.427985 11.883673,12.42731 11.883499,12.359718 11.883499,12.310683 12.029386,12.310683" style="fill: white" /><polygon type="contour" points="12.501531,12.312725 12.603417,12.313677 12.600598,12.507673 12.602339,12.55392 12.604431,12.604432 12.499336,12.600409 12.442959,12.599939 12.311888,12.601715 12.311888,12.412515 12.311801,12.311803 12.407937,12.311803 12.474813,12.311628" style="fill: white" />
</svg>
