<svg width="19.131698" height="19.131699">
<polygon type="contour" points="10.649046,8.334839 10.672961,8.338094 10.688255,8.342608 10.71688,8.358082 10.735201,8.369557 10.761236,8.396146 10.771113,8.40793 10.775865,8.416053 10.793783,8.454295 10.796129,8.474304 10.797322,8.4847 10.797187,10.453586 10.797233,10.647001 10.797131,10.652926 10.794858,10.668268 10.785832,10.696053 10.777947,10.712054 10.759557,10.735044 10.743749,10.754243 10.73241,10.76224 10.705351,10.781535 10.690321,10.787934 10.6708,10.795206 10.662593,10.796054 10.657785,10.796354 10.646998,10.79684 9.797523,10.796702 9.331682,10.797199 8.484697,10.797199 8.478087,10.796668 8.46335,10.794736 8.446458,10.788643 8.430414,10.783526 8.403084,10.765835 8.391517,10.756928 8.350794,10.709052 8.348866,10.706502 8.347932,10.704677 8.342764,10.689052 8.334801,10.663852 8.334683,10.662062 8.334417,10.659936 8.334378,10.647 8.334514,8.678114 8.334468,8.484699 8.3346,8.479201 8.336973,8.463736 8.346871,8.433372 8.353185,8.421343 8.364598,8.406001 8.381914,8.384286 8.403874,8.364675 8.421834,8.352914 8.460114,8.336382 8.463243,8.335424 8.465544,8.335106 8.466534,8.334886 8.469692,8.33485 8.484698,8.334864 10.260239,8.334578 10.646997,8.334469" style="fill: white" />
</svg>
