<svg width="19.131698" height="19.131699">
<polygon type="contour" points="11.366965,7.862755 11.366401,7.878038 11.366149,8.045055 11.086647,8.045055 11.086647,8.002765 11.086826,7.813134 11.086826,7.765375 11.253664,7.765301 11.370472,7.76123" style="fill: white" /><polygon type="contour" points="10.829324,7.93469 10.829324,8.046471 10.804987,8.046471 10.723542,8.046132 10.667651,8.046132 10.58052,8.046225 10.580476,8.022235 10.580476,7.935002 10.667817,7.934645 10.675678,7.934618 10.675679,7.934632 10.806772,7.934591" style="fill: white" /><polygon type="contour" points="11.110531,10.02326 11.36634,10.02326 11.366093,10.258679 11.366039,10.316894 11.332807,10.316894 11.110342,10.31631 11.08685,10.31641 11.08685,10.254374 11.086505,10.023157" style="fill: white" /><polygon type="contour" points="10.315701,9.4357 10.315794,9.525428 10.315604,9.525429 10.315821,9.618502 10.31551,9.717913 10.022755,9.717913 10.022755,9.693167 10.022522,9.60688 10.022522,9.513828 10.022755,9.413791 10.087865,9.413791 10.316028,9.413717" style="fill: white" /><polygon type="contour" points="10.31722,8.873026 10.316659,9.10806 10.258116,9.10806 10.023258,9.108443 10.023258,8.815144 10.123292,8.81523 10.316892,8.814811" style="fill: white" /><polygon type="contour" points="10.829324,9.109332 10.805397,9.109226 10.723558,9.109632 10.667798,9.109632 10.580277,9.108997 10.580225,9.047404 10.580476,8.816234 10.60059,8.816234 10.711311,8.81641 10.732561,8.816311 10.829324,8.815873" style="fill: white" /><polygon type="contour" points="10.829383,9.513629 10.829383,9.6187 10.829324,9.721453 10.805397,9.721488 10.723558,9.718532 10.667681,9.718532 10.58023,9.717809 10.580476,9.69419 10.580883,9.525428 10.580687,9.525429 10.580712,9.513829 10.580527,9.413895 10.600578,9.413895 10.679716,9.413134 10.732561,9.413181 10.829324,9.410251" style="fill: white" /><polygon type="contour" points="11.196801,9.413791 11.197002,9.513829 11.197029,9.566175 11.197002,9.618502 11.196802,9.717913 11.110637,9.717913 11.085493,9.717894 11.08544,9.618699 11.08544,9.51363 11.085282,9.4131 11.110054,9.413078" style="fill: white" /><polygon type="contour" points="11.366093,8.873025 11.36634,9.108443 11.110531,9.108443 11.086505,9.108545 11.08685,8.877329 11.08685,8.815295 11.110342,8.815395 11.332807,8.814811 11.366039,8.814811" style="fill: white" /><polygon type="contour" points="11.197048,8.399142 11.197183,8.432214 11.196768,8.532263 11.1967,8.551226 11.172243,8.551181 11.085282,8.554318 11.085282,8.53327 11.085569,8.455983 11.085569,8.399141 11.085229,8.302379 11.197011,8.302379" style="fill: white" /><polygon type="contour" points="10.829324,8.326715 10.829302,8.40816 10.829302,8.464051 10.829028,8.551181 10.73256,8.551182 10.723536,8.551199 10.667817,8.551199 10.580476,8.551226 10.580476,8.53111 10.580521,8.408166 10.580504,8.408166 10.580521,8.399142 10.58052,8.302673 10.601037,8.302673 10.675719,8.302401 10.732561,8.302401 10.829324,8.302379" style="fill: white" /><polygon type="contour" points="10.315717,8.326267 10.315293,8.420454 10.315466,8.53111 10.315466,8.551226 10.253288,8.551471 10.022221,8.551471 10.022221,8.531123 10.022806,8.44136 10.022474,8.326305 10.022369,8.302379 10.31583,8.302379" style="fill: white" /><polygon type="contour" points="10.153313,7.764399 10.316374,7.765564 10.316374,7.831817 10.316351,7.983746 10.316455,8.044783 10.023543,8.044783 10.023651,8.020002 10.02382,7.838736 10.023757,7.799842 10.024305,7.763605" style="fill: white" /><polygon type="contour" points="8.532262,7.934933 8.551225,7.935002 8.55118,7.959458 8.55118,8.046225 8.530662,8.046225 8.455979,8.046132 8.399138,8.046132 8.302377,8.046471 8.302377,7.93469 8.399139,7.934653 8.432501,7.93452" style="fill: white" /><polygon type="contour" points="7.878036,7.765301 8.044875,7.765375 8.044875,7.813134 8.044735,7.95776 8.044782,8.019713 8.044782,8.044783 7.982571,8.044783 7.765551,8.045055 7.765299,7.878038 7.764734,7.862755 7.762924,7.831657 7.761229,7.76123" style="fill: white" /><polygon type="contour" points="8.046468,8.326716 8.046131,8.408159 8.046131,8.464052 8.046223,8.551181 8.022233,8.551226 7.935,8.551226 7.934643,8.463885 7.934616,8.456024 7.93463,8.456023 7.934589,8.32493 7.934688,8.302379 8.046468,8.302379" style="fill: white" /><polygon type="contour" points="8.386141,8.302672 8.399139,8.302401 8.464048,8.302401 8.55118,8.302673 8.55118,8.399142 8.551197,8.408165 8.551197,8.463885 8.551225,8.551226 8.53111,8.551226 8.408163,8.551181 8.408163,8.551199 8.399139,8.551182 8.302671,8.551181 8.302399,8.464051 8.302399,8.399141 8.302377,8.302379" style="fill: white" /><polygon type="contour" points="8.326265,8.815985 8.408163,8.816354 8.463883,8.816354 8.551225,8.816234 8.55147,8.878411 8.55147,9.109481 8.531122,9.109481 8.456034,9.109632 8.456034,9.109424 8.399138,9.109671 8.302377,9.109332 8.302377,8.815873" style="fill: white" /><polygon type="contour" points="8.022382,8.815372 8.044849,8.815277 8.044849,8.874614 8.045194,9.108545 8.021166,9.108443 7.765359,9.108443 7.765605,8.873026 7.765661,8.814811 7.798891,8.814811" style="fill: white" /><polygon type="contour" points="8.046417,9.4131 8.046417,9.437859 8.046114,9.60687 8.04626,9.60687 8.04626,9.618699 8.046206,9.717894 8.02106,9.717913 7.934896,9.717913 7.934698,9.618502 7.934675,9.566175 7.934698,9.513829 7.934896,9.413791 8.021644,9.413078" style="fill: white" /><polygon type="contour" points="8.408141,9.413173 8.464018,9.413173 8.55147,9.413894 8.551225,9.437514 8.550816,9.606902 8.551013,9.606903 8.550988,9.618502 8.551173,9.717809 8.531122,9.717809 8.451988,9.71857 8.399138,9.718523 8.302473,9.717894 8.302316,9.618699 8.302316,9.513629 8.302377,9.410251 8.326303,9.410216" style="fill: white" /><polygon type="contour" points="9.108945,9.438537 9.109178,9.525451 9.109178,9.618502 9.108945,9.717913 8.873877,9.717986 8.815672,9.717986 8.815999,9.696 8.815906,9.606902 8.816096,9.606902 8.81588,9.513829 8.816191,9.413791 9.108945,9.413791" style="fill: white" /><polygon type="contour" points="9.108058,8.815321 9.108058,8.873585 9.108271,9.108273 8.874919,9.108286 8.814986,9.108286 8.815037,9.048657 8.814809,8.814811 8.873023,8.81476" style="fill: white" /><polygon type="contour" points="9.109224,8.326305 9.109697,8.421941 9.109479,8.531123 9.109479,8.551471 9.047564,8.551226 8.816232,8.551226 8.816232,8.531111 8.816408,8.420687 8.815983,8.326267 8.815871,8.302379 9.10933,8.302379" style="fill: white" /><polygon type="contour" points="9.107942,7.799842 9.107942,7.83551 9.107881,7.838736 9.108047,8.020002 9.108155,8.044783 8.815246,8.044783 8.81535,8.020162 8.81535,7.983746 8.815326,7.876725 8.815326,7.765564 8.978386,7.764399 9.107395,7.763605" style="fill: white" /><polygon type="contour" points="9.617873,7.9347 9.717911,7.934898 9.717911,8.021063 9.717892,8.046208 9.618072,8.046261 9.513002,8.046261 9.413098,8.046418 9.413076,8.021645 9.41379,7.934897 9.513199,7.9347 9.565525,7.934677" style="fill: white" /><polygon type="contour" points="9.72145,8.302379 9.721485,8.326305 9.71853,8.408143 9.71853,8.464021 9.717807,8.551471 9.694187,8.551226 9.606274,8.551015 9.606275,8.550165 9.513199,8.551136 9.413894,8.551471 9.413894,8.531122 9.413132,8.451991 9.413179,8.399141 9.413809,8.302476 9.513002,8.302317 9.618072,8.302317" style="fill: white" /><polygon type="contour" points="9.717911,8.816193 9.717911,9.108947 9.693165,9.108947 9.606252,9.10918 9.5132,9.10918 9.41379,9.108947 9.41379,8.816193 9.438385,8.81625 9.5248,8.815909 9.5248,8.816098 9.617874,8.815882" style="fill: white" /><polygon type="contour" points="9.717911,9.413791 9.717911,9.438537 9.718252,9.525451 9.718252,9.618502 9.717911,9.717912 9.617873,9.718254 9.5132,9.718254 9.41379,9.717913 9.41379,9.693166 9.413449,9.606879 9.413449,9.513828 9.41379,9.413791 9.5132,9.413451 9.617874,9.413451" style="fill: white" /><polygon type="contour" points="9.717911,10.022757 9.717911,10.315511 9.693314,10.315455 9.606273,10.315796 9.606273,10.314587 9.5132,10.315968 9.413716,10.316031 9.413716,10.257827 9.41379,10.022757 9.438534,10.022757 9.524822,10.022524 9.617873,10.022524" style="fill: white" /><polygon type="contour" points="10.316351,11.11154 10.316351,11.147957 10.316374,11.254977 10.316374,11.36614 10.153313,11.367304 10.024305,11.368098 10.023758,11.33186 10.023758,11.296191 10.02382,11.292963 10.023651,11.1117 10.023543,11.08692 10.316455,11.08692" style="fill: white" /><polygon type="contour" points="10.829324,11.197012 10.732561,11.19705 10.699488,11.197185 10.599437,11.19677 10.580476,11.196702 10.58052,11.172245 10.577385,11.085285 10.598431,11.085285 10.675719,11.085572 10.73256,11.085572 10.829324,11.085231" style="fill: white" /><polygon type="contour" points="11.366401,11.253665 11.366966,11.268948 11.368776,11.300046 11.370472,11.370474 11.253664,11.366403 11.086826,11.366329 11.086826,11.318568 11.086965,11.173944 11.086918,11.11199 11.086918,11.08692 11.149129,11.08692 11.366149,11.086649" style="fill: white" /><polygon type="contour" points="11.197056,10.667818 11.197085,10.675679 11.197071,10.67568 11.197109,10.806774 11.197011,10.829326 11.085229,10.829326 11.085229,10.804989 11.085569,10.723543 11.085569,10.667651 11.085477,10.580522 11.109465,10.580478 11.196699,10.580478" style="fill: white" /><polygon type="contour" points="10.723536,10.580522 10.723536,10.580505 10.73256,10.580521 10.829028,10.580523 10.829302,10.667652 10.829302,10.732563 10.829324,10.829326 10.745557,10.829031 10.732561,10.829304 10.667651,10.829304 10.58052,10.829031 10.580521,10.732562 10.580504,10.723536 10.580504,10.667818 10.580476,10.580478 10.600589,10.580478" style="fill: white" /><polygon type="contour" points="10.829324,10.315831 10.805434,10.315718 10.723536,10.315351 10.667817,10.315351 10.580476,10.315468 10.58023,10.253291 10.579982,10.022708 10.600223,10.022708 10.722716,10.022717 10.73256,10.022674 10.829324,10.022371" style="fill: white" /><polygon type="contour" points="10.316664,10.083046 10.316892,10.316894 10.258677,10.316944 10.023643,10.316383 10.023643,10.258117 10.023429,10.023431 10.256781,10.023418 10.316715,10.023418" style="fill: white" /><polygon type="contour" points="10.084135,10.580478 10.315466,10.580478 10.315466,10.600593 10.315293,10.711248 10.315718,10.805437 10.31583,10.829326 10.022369,10.829326 10.022475,10.805399 10.022806,10.690343 10.022221,10.60058 10.022221,10.580233" style="fill: white" /><polygon type="contour" points="9.717807,10.600581 9.718568,10.679712 9.718522,10.732563 9.717892,10.829229 9.618073,10.829385 9.513002,10.829385 9.410249,10.829326 9.410214,10.805399 9.413171,10.72356 9.413171,10.667799 9.413894,10.58053 9.437512,10.580478 9.5248,10.580689 9.524798,10.581531 9.617874,10.580569 9.717807,10.580233" style="fill: white" /><polygon type="contour" points="9.513003,11.085443 9.618072,11.085443 9.717892,11.085496 9.717911,11.11064 9.717911,11.196803 9.617874,11.197004 9.565525,11.197031 9.513199,11.197004 9.41379,11.196803 9.413076,11.110057 9.413098,11.085285" style="fill: white" /><polygon type="contour" points="9.108047,11.111699 9.107881,11.292964 9.107941,11.33186 9.107395,11.368098 8.978386,11.367304 8.815326,11.36614 8.815326,11.299887 8.81535,11.147958 8.815246,11.08692 9.108155,11.08692" style="fill: white" /><polygon type="contour" points="8.046417,10.598432 8.046131,10.675721 8.046131,10.732563 8.046468,10.829326 7.934688,10.829326 7.934652,10.732563 7.934518,10.699197 7.934932,10.599439 7.935,10.580478 7.959456,10.580523 8.046417,10.577386" style="fill: white" /><polygon type="contour" points="8.020001,10.023653 8.044782,10.023545 8.04485,10.254374 8.04485,10.31641 8.021358,10.31631 7.79889,10.316894 7.765661,10.316894 7.765605,10.258678 7.765359,10.02326 7.800817,10.02326" style="fill: white" /><polygon type="contour" points="8.551225,10.084137 8.551225,10.315468 8.531109,10.315468 8.420157,10.315295 8.399139,10.315392 8.302377,10.315831 8.302377,10.022371 8.326302,10.022478 8.408141,10.022714 8.4639,10.022714 8.551173,10.022223" style="fill: white" /><polygon type="contour" points="9.108441,10.085461 9.108058,10.316661 9.050092,10.316333 8.814809,10.316893 8.81448,10.258678 8.815041,10.023645 8.873584,10.023645 9.108441,10.02326" style="fill: white" /><polygon type="contour" points="8.878409,10.58053 9.109479,10.58053 9.109479,10.60058 9.109697,10.709761 9.109225,10.805399 9.109331,10.829326 8.815871,10.829326 8.815982,10.805437 8.816408,10.711015 8.816232,10.600592 8.816232,10.580478" style="fill: white" /><polygon type="contour" points="8.551225,10.600593 8.551179,10.723537 8.551197,10.723537 8.55118,10.732562 8.55118,10.829031 8.530662,10.829031 8.45598,10.829304 8.399138,10.829304 8.302377,10.829326 8.302377,10.804989 8.302399,10.723544 8.302399,10.667652 8.302671,10.580523 8.399139,10.580521 8.408162,10.580505 8.463882,10.580505 8.551225,10.580478" style="fill: white" /><polygon type="contour" points="8.408156,11.085572 8.464048,11.085572 8.55118,11.085479 8.551225,11.109467 8.551225,11.196701 8.463882,11.197058 8.45602,11.197087 8.45602,11.197073 8.324928,11.19711 8.302377,11.197012 8.302377,11.085231 8.326714,11.085231" style="fill: white" /><polygon type="contour" points="8.045053,11.128938 8.044875,11.318569 8.044875,11.366329 7.878036,11.366403 7.761228,11.370474 7.764734,11.268948 7.765299,11.253665 7.765551,11.086649 8.045053,11.086649" style="fill: white" />
</svg>
