<svg width="19.131698" height="19.131699">
<polygon type="contour" points="13.080751,6.253779 13.081714,6.342269 12.99272,6.343844 12.904293,6.345103 12.905066,6.629281 12.904867,6.679064 12.803289,6.678193 12.787067,6.678193 12.787067,6.67791 12.514359,6.679064 12.452638,6.679064 12.453509,6.448953 12.453509,6.411395 12.454147,6.411395 12.452638,6.253494 12.452638,6.226834 12.50242,6.226636 12.787396,6.227411 12.787397,6.119885 12.787439,6.085558 12.787439,6.05199 12.847609,6.050148 12.909176,6.04785 13.08778,6.043922" style="fill: white" /><polygon type="contour" points="13.07912,7.927067 13.080133,8.005013 13.081436,8.13387 12.846387,8.137217 12.720298,8.136624 12.720298,8.137388 12.50242,8.136969 12.452638,8.137078 12.452459,7.904012 12.452459,7.846201 12.682749,7.846448 12.744923,7.846403 12.744924,7.846466 12.846595,7.846401 12.953467,7.846162 13.079568,7.846162" style="fill: white" /><polygon type="contour" points="12.905021,7.578718 12.904763,7.745707 12.800537,7.746404 12.78709,7.746828 12.787089,7.746421 12.68275,7.746394 12.452459,7.745719 12.452638,7.586213 12.452638,7.538388 12.682748,7.539195 12.720306,7.539195 12.720307,7.539786 12.878207,7.538388 12.904867,7.538388" style="fill: white" /><polygon type="contour" points="11.593183,7.704976 11.593183,7.74572 11.426725,7.74572 11.385995,7.745707 11.385995,7.572645 11.385982,7.538519 11.545487,7.538388 11.593314,7.538388" style="fill: white" /><polygon type="contour" points="11.593183,7.8462 11.593314,8.069215 11.593314,8.137077 11.552983,8.13702 11.385995,8.137352 11.385995,7.846162 11.559057,7.846162" style="fill: white" /><polygon type="contour" points="11.285498,7.846204 11.285498,8.136763 11.254745,8.13696 11.208497,8.134661 11.003827,8.127875 11.006001,7.990185 10.997041,7.923202 10.994742,7.876957 10.994978,7.846152 11.255003,7.846152" style="fill: white" /><polygon type="contour" points="11.22769,7.538519 11.285501,7.538519 11.285501,7.704977 11.28554,7.745707 10.99435,7.745707 10.994682,7.578717 10.994625,7.538388" style="fill: white" /><polygon type="contour" points="11.126689,6.051569 11.204633,6.05258 11.28554,6.052132 11.28554,6.178235 11.285522,6.245514 11.285318,6.322774 11.384985,6.323169 11.385394,6.245915 11.385995,6.226939 11.552983,6.226682 11.593314,6.226835 11.592507,6.328412 11.592507,6.344635 11.592245,6.344635 11.593314,6.617342 11.593314,6.679064 11.426725,6.679242 11.385982,6.679242 11.385306,6.448953 11.385278,6.344614 11.2852,6.344543 11.285549,6.637201 11.285501,6.679242 11.062486,6.679064 10.994625,6.679064 10.994734,6.629281 10.994315,6.411404 10.995078,6.411404 10.994486,6.285314 10.997809,6.050197" style="fill: white" /><polygon type="contour" points="8.137215,6.285315 8.136622,6.411404 8.137386,6.411404 8.136967,6.629281 8.137076,6.679064 7.904009,6.679242 7.846199,6.679242 7.846446,6.448953 7.846379,6.356027 7.846471,6.337476 7.846471,6.327245 7.846201,6.211418 7.84616,6.178235 7.84616,6.052132 7.927065,6.05258 8.133868,6.050267" style="fill: white" /><polygon type="contour" points="7.745705,6.226939 7.746402,6.331166 7.746826,6.344613 7.746419,6.344614 7.746392,6.448953 7.745718,6.679242 7.586212,6.679064 7.538386,6.679064 7.539193,6.448953 7.539193,6.411395 7.539784,6.411395 7.538386,6.253494 7.538386,6.226835 7.578717,6.226682" style="fill: white" /><polygon type="contour" points="6.185914,6.04605 6.284091,6.050148 6.344291,6.051938 6.344303,6.119885 6.344303,6.227048 6.44895,6.22733 6.571125,6.226738 6.679062,6.226835 6.678192,6.328412 6.678192,6.344635 6.677909,6.344635 6.679062,6.617341 6.679062,6.679064 6.448951,6.678193 6.411392,6.678193 6.411392,6.677554 6.253492,6.679064 6.226833,6.679064 6.226634,6.629281 6.227406,6.345103 6.13898,6.343844 6.049987,6.342269 6.05095,6.253779 6.043921,6.043922 6.085921,6.039333" style="fill: white" /><polygon type="contour" points="6.67924,7.846201 6.679062,8.069216 6.679062,8.137078 6.629279,8.136969 6.411402,8.137388 6.411402,8.136624 6.285312,8.137217 6.050194,8.133893 6.051567,8.005013 6.052578,7.927068 6.052131,7.846162 6.178232,7.846162 6.245512,7.846179 6.344512,7.846439 6.344512,7.8465 6.360536,7.846481 6.411402,7.846615 6.411402,7.846421 6.430119,7.846398 6.6372,7.846152" style="fill: white" /><polygon type="contour" points="6.679062,7.538387 6.67924,7.704976 6.67924,7.745719 6.44895,7.746395 6.346803,7.746419 6.245968,7.745707 6.226938,7.745707 6.22668,7.578717 6.226833,7.538388 6.328409,7.539195 6.344632,7.539195 6.344632,7.539456 6.61734,7.538386" style="fill: white" /><polygon type="contour" points="7.704974,7.538519 7.745718,7.538519 7.745718,7.704976 7.745705,7.745707 7.572642,7.745707 7.538517,7.74572 7.538386,7.586215 7.538386,7.538388" style="fill: white" /><polygon type="contour" points="8.137019,7.578717 8.137351,7.745707 7.84616,7.745707 7.84616,7.572644 7.846198,7.538519 8.069213,7.538388 8.137076,7.538388" style="fill: white" /><polygon type="contour" points="8.126664,7.970891 8.127873,8.127875 7.990182,8.125701 7.923201,8.134661 7.876954,8.13696 7.84615,8.136724 7.84615,7.876698 7.846202,7.846204 7.876696,7.846152 8.136722,7.846152" style="fill: white" /><polygon type="contour" points="7.745705,8.137352 7.578716,8.13702 7.538386,8.137078 7.538517,7.904011 7.538517,7.846201 7.704975,7.846201 7.745705,7.846162" style="fill: white" /><polygon type="contour" points="7.970891,11.005036 8.127872,11.003829 8.136959,11.254747 8.136762,11.2855 7.846202,11.2855 7.84615,11.255005 7.84615,10.99498" style="fill: white" /><polygon type="contour" points="8.137019,11.552985 8.137076,11.593316 7.904009,11.593185 7.846199,11.593185 7.846199,11.426726 7.84616,11.385997 8.137351,11.385997" style="fill: white" /><polygon type="contour" points="7.745705,11.385997 7.745705,11.559058 7.745718,11.593185 7.586213,11.593316 7.538386,11.593316 7.538517,11.426727 7.538517,11.385984 7.704974,11.385984" style="fill: white" /><polygon type="contour" points="7.745705,11.285542 7.572641,11.285542 7.538517,11.285503 7.538386,11.062487 7.538386,10.994626 7.578716,10.994683 7.745705,10.994352" style="fill: white" /><polygon type="contour" points="6.629279,10.994734 6.679062,10.994625 6.67924,11.227692 6.67924,11.285503 6.448951,11.285256 6.411402,11.285282 6.411402,11.285219 6.285102,11.285303 6.178232,11.285542 6.052131,11.285542 6.052578,11.204635 6.050265,10.997834 6.285312,10.994488 6.411402,10.99508 6.411402,10.994317" style="fill: white" /><polygon type="contour" points="6.44895,11.385308 6.67924,11.385984 6.679062,11.545489 6.679062,11.593316 6.448951,11.592509 6.411392,11.592509 6.411392,11.591917 6.253493,11.593316 6.226833,11.593316 6.22668,11.552984 6.226938,11.385997 6.331163,11.385298 6.411484,11.385298" style="fill: white" /><polygon type="contour" points="6.678192,12.68275 6.678192,12.720308 6.677554,12.720308 6.679062,12.878209 6.679062,12.904869 6.629279,12.905068 6.344303,12.904292 6.344303,13.011817 6.344263,13.046144 6.344263,13.079714 6.28409,13.081556 6.222524,13.083852 6.043921,13.087781 6.050949,12.877923 6.049987,12.789434 6.13898,12.787858 6.227406,12.786599 6.226634,12.502422 6.226833,12.45264 6.328408,12.453511 6.344632,12.453511 6.344632,12.453793 6.617339,12.45264 6.679062,12.45264" style="fill: white" /><polygon type="contour" points="7.746392,12.68275 7.746419,12.784661 7.745705,12.885734 7.745705,12.904764 7.578717,12.905023 7.538386,12.904869 7.539193,12.803291 7.539193,12.787068 7.539454,12.787068 7.538386,12.514361 7.538386,12.452639 7.704974,12.452462 7.745718,12.452462" style="fill: white" /><polygon type="contour" points="8.069214,12.45264 8.137076,12.45264 8.136967,12.502422 8.137385,12.720299 8.136622,12.720299 8.137215,12.846388 8.133891,13.081506 7.927065,13.079121 7.84616,13.079568 7.84616,12.953468 7.846177,12.886188 7.846437,12.787192 7.846498,12.787192 7.846479,12.771164 7.846613,12.720299 7.846419,12.720299 7.84615,12.494503 7.846199,12.452462" style="fill: white" /><polygon type="contour" points="11.285254,12.68275 11.285318,12.775634 11.285229,12.794226 11.285229,12.804458 11.285498,12.920285 11.28554,12.953468 11.28554,13.079569 11.204633,13.079122 11.126688,13.080135 10.997832,13.081438 10.994486,12.846388 10.995078,12.720299 10.994315,12.720299 10.994734,12.502422 10.994625,12.45264 11.22769,12.452462 11.285501,12.452462" style="fill: white" /><polygon type="contour" points="11.545488,12.45264 11.593314,12.45264 11.592507,12.68275 11.592507,12.720308 11.591915,12.720308 11.593314,12.878209 11.593314,12.904869 11.552983,12.905023 11.385995,12.904764 11.385296,12.800537 11.384872,12.787089 11.385278,12.787089 11.385306,12.68275 11.385982,12.452462" style="fill: white" /><polygon type="contour" points="11.593314,11.545488 11.593314,11.593316 11.426725,11.593185 11.385982,11.593185 11.385982,11.426726 11.385995,11.385997 11.559056,11.385997 11.593183,11.385984" style="fill: white" /><polygon type="contour" points="11.28554,11.559059 11.285501,11.593185 11.062487,11.593316 10.994625,11.593316 10.994682,11.552985 10.99435,11.385997 11.28554,11.385997" style="fill: white" /><polygon type="contour" points="11.285498,10.994941 11.285498,11.2855 10.994939,11.2855 10.994742,11.254747 10.99704,11.208501 11.003827,11.003829 11.141517,11.006003 11.208498,10.997043 11.254745,10.994743" style="fill: white" /><polygon type="contour" points="11.552983,10.994683 11.593314,10.994626 11.593183,11.227692 11.593183,11.285503 11.426724,11.285503 11.385995,11.285542 11.385995,10.994352" style="fill: white" /><polygon type="contour" points="12.7203,10.995081 12.846389,10.994489 13.081505,10.99781 13.07912,11.204635 13.079568,11.285542 12.953466,11.285542 12.886187,11.285524 12.787186,11.285263 12.787186,11.285202 12.771104,11.285221 12.720298,11.285087 12.720298,11.285281 12.701772,11.285304 12.494499,11.285551 12.452459,11.285503 12.452638,11.062487 12.452638,10.994626 12.50242,10.994735 12.7203,10.994318" style="fill: white" /><polygon type="contour" points="12.885732,11.385997 12.904763,11.385997 12.905021,11.552984 12.904867,11.593316 12.803289,11.592509 12.787067,11.592509 12.787067,11.592247 12.514359,11.593316 12.452638,11.593316 12.452459,11.426727 12.452459,11.385984 12.682748,11.385308 12.784666,11.38528" style="fill: white" /><polygon type="contour" points="12.905066,12.502422 12.904293,12.786599 12.99272,12.787858 13.081714,12.789434 13.080751,12.877923 13.087779,13.087781 13.045779,13.09237 12.945785,13.085653 12.847608,13.081556 12.787396,13.079754 12.787396,13.069739 12.787437,13.046145 12.787396,13.011816 12.787396,12.904655 12.682749,12.904373 12.560574,12.904966 12.452638,12.904869 12.453509,12.803291 12.453509,12.787068 12.453791,12.787068 12.452638,12.514362 12.452638,12.45264 12.682748,12.453511 12.720307,12.453511 12.720307,12.454149 12.878207,12.45264 12.904867,12.45264" style="fill: white" />
</svg>
