<svg width="19.131698" height="19.131699">
<polygon type="contour" points="6.688476,6.402462 6.690899,6.402485 6.690899,6.40652 6.690889,6.420625 6.691068,6.575569 6.764484,6.575596 6.887872,6.575542 6.891451,6.575558 6.891451,6.577971 6.891526,6.646413 6.891526,6.764485 6.891451,6.891453 6.88712,6.891453 6.764483,6.891527 6.646412,6.891527 6.575556,6.891453 6.57554,6.887874 6.575594,6.764486 6.575567,6.691069 6.502583,6.690863 6.401748,6.690326 6.402119,6.664827 6.397195,6.534083 6.391284,6.391287" style="fill: white" /><polygon type="contour" points="6.646412,7.856527 6.764484,7.856527 6.891451,7.856454 6.891451,7.862043 6.891567,7.920901 6.891567,8.310232 6.891442,8.380391 6.883334,8.380391 6.764483,8.380355 6.698031,8.380291 6.684486,8.378342 6.54684,8.377741 6.398507,8.376283 6.401032,8.16343 6.40119,8.163094 6.402518,8.089117 6.402464,8.089082 6.402464,8.089081 6.425781,8.089193 6.448909,8.089082 6.470914,8.089271 6.575416,8.089271 6.57556,7.920901 6.575538,7.86085 6.575555,7.856454 6.577969,7.856454" style="fill: white" /><polygon type="contour" points="8.380383,7.856465 8.380383,7.866957 8.380473,7.920901 8.380493,8.062529 8.379904,8.107136 8.379817,8.220233 8.376404,8.332047 8.375739,8.375741 8.121225,8.373807 8.094407,8.379984 8.089191,8.380488 7.9209,8.380475 7.866955,8.380384 7.856453,8.380392 7.856399,8.310232 7.856399,7.920901 7.856453,7.856454 7.862041,7.856454 7.920901,7.8564 8.31023,7.8564" style="fill: white" /><polygon type="contour" points="8.377739,6.546841 8.380278,6.691099 8.380289,6.698031 8.380354,6.764486 8.380389,6.891444 8.31023,6.891569 7.9209,6.891569 7.856453,6.891453 7.856453,6.887122 7.856525,6.764485 7.856525,6.646413 7.856453,6.575558 7.860849,6.57554 7.9209,6.575562 8.089269,6.575418 8.089269,6.470916 8.089081,6.402465 8.163427,6.401033 8.376412,6.398612" style="fill: white" /><polygon type="contour" points="10.968271,6.401032 11.042619,6.402465 11.042431,6.470916 11.042431,6.575418 11.2108,6.575562 11.270851,6.57554 11.275248,6.575557 11.275248,6.577971 11.275175,6.646413 11.275175,6.764486 11.275248,6.891453 11.269659,6.891453 11.210799,6.891568 10.821468,6.891569 10.751309,6.891444 10.751309,6.883335 10.751346,6.764485 10.75141,6.698032 10.75336,6.684487 10.75396,6.546842 10.75542,6.398508" style="fill: white" /><polygon type="contour" points="12.729582,6.664827 12.729952,6.690326 12.629116,6.690862 12.556131,6.69107 12.556104,6.764486 12.556159,6.887874 12.556143,6.891453 12.553728,6.891453 12.485288,6.891527 12.367214,6.891527 12.240247,6.891453 12.240247,6.887122 12.240174,6.764485 12.240174,6.646413 12.240249,6.575558 12.243827,6.575542 12.367215,6.575597 12.44055,6.575569 12.44055,6.422736 12.440601,6.402682 12.443308,6.402659 12.580986,6.396644 12.740416,6.391287" style="fill: white" /><polygon type="contour" points="12.367216,7.856527 12.485287,7.856527 12.556145,7.856454 12.556163,7.86085 12.556141,7.920901 12.556285,8.089271 12.660786,8.089271 12.729236,8.089082 12.730666,8.163429 12.73309,8.376414 12.58486,8.377741 12.447213,8.378342 12.433669,8.380292 12.397775,8.380292 12.367215,8.380356 12.240258,8.380391 12.240133,8.310232 12.240133,7.920901 12.240249,7.856454 12.244579,7.856454" style="fill: white" /><polygon type="contour" points="11.275248,7.856454 11.275248,7.862042 11.275301,7.920901 11.275301,8.310232 11.275237,8.380385 11.264744,8.380385 11.2108,8.380475 11.042508,8.380488 11.037291,8.379985 10.755961,8.375741 10.757896,8.121226 10.751717,8.094408 10.751213,8.089193 10.751226,7.920902 10.751315,7.866956 10.751307,7.856454 10.821468,7.8564 11.2108,7.8564" style="fill: white" /><polygon type="contour" points="11.2108,10.751227 11.275236,10.751315 11.275301,10.82147 11.275301,11.210801 11.275248,11.27525 11.269659,11.27525 11.210799,11.275304 10.821468,11.275304 10.751315,11.275239 10.751315,11.264747 10.751226,11.210801 10.751214,11.04251 10.751718,11.037294 10.755961,10.755963 10.911468,10.751885 11.024567,10.751798 11.069171,10.751209" style="fill: white" /><polygon type="contour" points="12.367215,10.751348 12.433668,10.751412 12.447213,10.753362 12.584859,10.753962 12.733193,10.755422 12.73015,10.967758 12.730508,10.968093 12.729182,11.042396 12.729048,11.042434 12.705919,11.042509 12.682791,11.042622 12.660785,11.042433 12.556285,11.042433 12.556141,11.210802 12.556163,11.270853 12.556145,11.27525 12.553731,11.27525 12.485287,11.275177 12.367215,11.275177 12.240249,11.27525 12.240249,11.26966 12.240133,11.210802 12.240133,10.821469 12.240258,10.75131 12.248366,10.75131" style="fill: white" /><polygon type="contour" points="12.556145,12.240251 12.556161,12.243829 12.556105,12.367217 12.556132,12.440552 12.629116,12.440433 12.729952,12.441375 12.729582,12.466875 12.734503,12.597619 12.740416,12.740417 12.443309,12.729044 12.440601,12.729022 12.440601,12.724513 12.44055,12.708967 12.44055,12.556133 12.367215,12.556106 12.243827,12.556162 12.240249,12.556146 12.240249,12.553732 12.240174,12.48529 12.240174,12.367217 12.240249,12.240251 12.244579,12.240251 12.367216,12.240177 12.485287,12.240177" style="fill: white" /><polygon type="contour" points="11.275248,12.240251 11.275248,12.244581 11.275175,12.367219 11.275175,12.48529 11.275248,12.556146 11.270851,12.556164 11.2108,12.556142 11.042431,12.556286 11.042431,12.660788 11.042619,12.729237 10.968271,12.730669 10.755288,12.733091 10.75396,12.584861 10.75336,12.447216 10.75141,12.433672 10.75141,12.397778 10.751346,12.367217 10.751309,12.24026 10.821468,12.240136 11.210799,12.240136" style="fill: white" /><polygon type="contour" points="8.380389,12.24026 8.380389,12.248368 8.380353,12.367218 8.38029,12.397778 8.38029,12.433671 8.378339,12.447217 8.377739,12.584861 8.37628,12.733195 8.163427,12.730668 8.089081,12.729238 8.089269,12.660788 8.089269,12.556286 7.9209,12.556142 7.860849,12.556164 7.856453,12.556146 7.856453,12.553732 7.856525,12.48529 7.856525,12.367218 7.856453,12.240251 7.862041,12.240251 7.920901,12.240136 8.31023,12.240136" style="fill: white" /><polygon type="contour" points="8.107134,10.751798 8.220231,10.751885 8.332046,10.755299 8.375739,10.755963 8.379817,10.911471 8.380486,11.042509 8.380473,11.210802 8.380382,11.264747 8.38039,11.27525 8.31023,11.275304 7.9209,11.275304 7.856453,11.27525 7.856453,11.269661 7.856399,11.210801 7.856399,10.821469 7.856464,10.751316 7.866955,10.751316 7.9209,10.751227 8.062527,10.751209" style="fill: white" /><polygon type="contour" points="6.891567,10.821469 6.891567,11.210802 6.891451,11.27525 6.88712,11.27525 6.764483,11.275177 6.646412,11.275177 6.575556,11.27525 6.575538,11.270853 6.57556,11.210802 6.575416,11.042433 6.470914,11.042433 6.402464,11.042622 6.401031,10.968274 6.398609,10.75529 6.546839,10.753963 6.691099,10.751424 6.69803,10.751412 6.764484,10.751347 6.891442,10.751309" style="fill: white" /><polygon type="contour" points="6.891451,12.24025 6.891451,12.244581 6.891526,12.367217 6.891526,12.48529 6.891451,12.556146 6.887872,12.556162 6.764484,12.556106 6.691068,12.556132 6.691068,12.708968 6.691099,12.729022 6.68839,12.729044 6.550713,12.73506 6.391284,12.740417 6.402119,12.466874 6.401748,12.441376 6.502583,12.440433 6.575566,12.440553 6.575594,12.367217 6.57554,12.243829 6.575556,12.240251 6.57797,12.240251 6.646411,12.240177 6.764484,12.240177" style="fill: white" />
</svg>
