<svg width="19.131698" height="19.131699">
<polygon type="contour" points="7.858443,11.121937 7.931034,11.12779 8.004476,11.127225 8.009763,11.273257 8.010935,11.322024 8.009398,11.413049 7.718654,11.413049 7.718654,11.122305 7.809678,11.120767" style="fill: white" /><polygon type="contour" points="7.309696,11.120866 7.47821,11.12056 7.47821,11.413081 7.348097,11.413013 7.196319,11.413013 7.196319,11.276547 7.196574,11.120473" style="fill: white" /><polygon type="contour" points="7.478096,11.783605 7.478096,11.935383 7.348098,11.935383 7.196574,11.935128 7.196574,11.792949 7.196319,11.653607 7.29788,11.653492 7.47821,11.653492" style="fill: white" /><polygon type="contour" points="8.011453,11.783604 8.011227,11.935128 7.861976,11.935128 7.718689,11.935383 7.718621,11.833822 7.718621,11.653492 8.011142,11.653492" style="fill: white" /><polygon type="contour" points="8.01131,13.090881 8.010611,13.141357 8.008984,13.256445 7.892283,13.255099 7.840561,13.254652 7.809109,13.255449 7.718654,13.255858 7.718654,13.225281 7.718822,13.147428 7.718822,12.961071 7.825001,12.961071 8.009253,12.96103" style="fill: white" /><polygon type="contour" points="8.010876,12.566073 8.010978,12.688996 7.889634,12.688996 7.718801,12.688989 7.71869,12.590704 7.71869,12.476212 7.855155,12.476212 8.011228,12.476086" style="fill: white" /><polygon type="contour" points="7.478096,12.476212 7.478096,12.590705 7.477969,12.688989 7.348098,12.689335 7.196439,12.689364 7.196439,12.584198 7.196574,12.476086 7.338751,12.476086" style="fill: white" /><polygon type="contour" points="7.348098,12.959811 7.47821,12.960085 7.47821,13.079649 7.348097,13.079728 7.196574,13.080008 7.196574,13.018468 7.196439,12.959694" style="fill: white" /><polygon type="contour" points="6.172006,12.476221 6.17155,12.56361 6.17155,12.688996 6.051399,12.688996 6.051469,12.566072 6.051693,12.476086 6.113233,12.476086" style="fill: white" /><polygon type="contour" points="6.098836,12.961013 6.170687,12.961013 6.170687,13.138106 6.170548,13.255979 5.883571,13.254291 5.877195,13.254508 5.877396,13.248441 5.877511,13.240216 5.874488,12.962355 5.975281,12.960571 5.986884,12.960245" style="fill: white" /><polygon type="contour" points="6.655481,13.01969 6.655617,13.080007 6.565627,13.080233 6.442704,13.080302 6.442704,12.960151 6.442417,12.959863 6.442474,12.959773 6.480654,12.959773 6.56809,12.960151 6.655481,12.959694" style="fill: white" /><polygon type="contour" points="6.655617,12.583955 6.655481,12.689364 6.56809,12.688996 6.442704,12.688996 6.442336,12.584198 6.442336,12.476221 6.547501,12.476221 6.655617,12.476086" style="fill: white" /><polygon type="contour" points="6.65549,11.783605 6.655617,11.935128 6.547745,11.935128 6.442336,11.935262 6.442367,11.783604 6.442714,11.653734 6.540997,11.653607 6.65549,11.653607" style="fill: white" /><polygon type="contour" points="6.17189,11.783605 6.172006,11.935262 6.112009,11.935262 6.051693,11.935128 6.051724,11.822004 6.052053,11.653492 6.171617,11.653492" style="fill: white" /><polygon type="contour" points="6.170598,11.122578 6.170687,11.237953 6.170647,11.413003 6.09579,11.413003 6.073422,11.413024 5.929805,11.413024 5.906421,11.413049 5.875845,11.413049 5.876254,11.322594 5.877161,11.290381 5.876762,11.23868 5.875467,11.122785 5.989712,11.12116 6.040104,11.120445" style="fill: white" /><polygon type="contour" points="6.655617,11.120472 6.655617,11.269724 6.65549,11.413013 6.540998,11.413013 6.442714,11.4129 6.442714,11.300227 6.442704,11.120724 6.547502,11.120395" style="fill: white" /><polygon type="contour" points="6.65549,7.855156 6.655617,8.01123 6.547502,8.011308 6.442704,8.010979 6.442704,7.889635 6.442714,7.718803 6.540997,7.718691 6.65549,7.718691" style="fill: white" /><polygon type="contour" points="5.98506,7.718701 6.170647,7.718701 6.170647,7.825645 6.170687,8.009127 6.040818,8.011311 5.990343,8.010612 5.875257,8.008985 5.87705,7.840562 5.876254,7.809111 5.875845,7.718655 5.906422,7.718655" style="fill: white" /><polygon type="contour" points="6.17189,7.348098 6.171617,7.478212 6.052053,7.478212 6.051972,7.348098 6.051693,7.196577 6.113233,7.196577 6.172006,7.196442" style="fill: white" /><polygon type="contour" points="6.655617,7.196577 6.655617,7.338754 6.65549,7.478097 6.540997,7.478097 6.442714,7.47797 6.442367,7.348099 6.442336,7.196442 6.547501,7.196442" style="fill: white" /><polygon type="contour" points="6.170548,5.875726 6.170548,5.910531 6.170687,5.993598 6.170687,6.170689 6.061999,6.171457 5.986884,6.171457 5.975282,6.17113 5.874489,6.169347 5.877511,5.891486 5.877195,5.877196 5.88357,5.877412 6.002399,5.864429" style="fill: white" /><polygon type="contour" points="6.565627,6.051471 6.655617,6.051694 6.655617,6.113233 6.655481,6.172008 6.56809,6.171551 6.442704,6.171551 6.442704,6.051402" style="fill: white" /><polygon type="contour" points="6.17155,6.568094 6.172006,6.655483 6.11201,6.655483 6.051693,6.655619 6.051469,6.56563 6.051399,6.442707 6.17155,6.442707" style="fill: white" /><polygon type="contour" points="6.655481,6.547504 6.655617,6.655619 6.547745,6.655619 6.442336,6.655483 6.442704,6.568093 6.442704,6.442707 6.547502,6.442338 6.655481,6.442338" style="fill: white" /><polygon type="contour" points="7.348098,6.442368 7.477969,6.442715 7.478096,6.540998 7.478096,6.655492 7.348097,6.655492 7.196574,6.655619 7.196574,6.547747 7.196439,6.442338" style="fill: white" /><polygon type="contour" points="7.309696,6.051726 7.47821,6.052055 7.47821,6.171619 7.348097,6.171892 7.196439,6.172008 7.196439,6.112011 7.196574,6.051694" style="fill: white" /><polygon type="contour" points="8.010541,5.989715 8.011256,6.040106 8.009123,6.170601 7.894662,6.170672 7.718822,6.170633 7.718822,6.095466 7.718679,6.073424 7.718679,5.929806 7.718654,5.906422 7.718654,5.875845 7.809109,5.876255 7.841319,5.877162 7.89302,5.876764 8.008914,5.875469" style="fill: white" /><polygon type="contour" points="8.011306,6.547504 8.011228,6.655619 7.861976,6.655619 7.71869,6.655492 7.71869,6.540999 7.718801,6.442715 7.831475,6.442715 8.010978,6.442707" style="fill: white" /><polygon type="contour" points="8.011228,7.196576 8.010833,7.309699 8.011142,7.478212 7.718621,7.478212 7.71869,7.348099 7.71869,7.196321 7.855156,7.196321" style="fill: white" /><polygon type="contour" points="7.47821,7.297881 7.47821,7.478212 7.348097,7.478097 7.196319,7.478097 7.196319,7.348099 7.196574,7.196577 7.338751,7.196577 7.478096,7.196321" style="fill: white" /><polygon type="contour" points="7.47821,8.011143 7.309697,8.010836 7.196574,8.01123 7.196574,7.861977 7.196319,7.718691 7.297881,7.718623 7.47821,7.718623" style="fill: white" /><polygon type="contour" points="8.010935,7.809679 8.009763,7.858445 8.00391,7.931037 8.004476,8.004478 7.782435,8.000972 7.718771,8.009488 7.718771,7.808501 7.718654,7.718655 8.009398,7.718655" style="fill: white" /><polygon type="contour" points="11.413046,8.009399 11.322021,8.010936 11.127224,8.004478 11.130729,7.782438 11.122212,7.718773 11.3232,7.718773 11.413046,7.718655" style="fill: white" /><polygon type="contour" points="11.783602,7.718691 11.935381,7.718691 11.935381,7.855156 11.935126,8.01123 11.822002,8.010836 11.65349,8.011143 11.65349,7.718623" style="fill: white" /><polygon type="contour" points="11.935126,7.196577 11.935126,7.338754 11.935381,7.478097 11.83382,7.478212 11.65349,7.478212 11.653604,7.348098 11.653604,7.196321 11.783602,7.196321" style="fill: white" /><polygon type="contour" points="11.413079,7.297883 11.413079,7.478212 11.120558,7.478212 11.120865,7.3097 11.120471,7.196577 11.269723,7.196577 11.413011,7.196321" style="fill: white" /><polygon type="contour" points="11.291139,5.877052 11.32259,5.876255 11.413046,5.875846 11.413046,5.906423 11.412878,5.984276 11.412878,6.170633 11.306698,6.170633 11.122447,6.170672 11.12039,6.04082 11.121089,5.990345 11.122717,5.875259" style="fill: white" /><polygon type="contour" points="11.412898,6.442715 11.413011,6.540999 11.413011,6.655492 11.276544,6.655492 11.12047,6.655619 11.120393,6.547504 11.120722,6.442707 11.242064,6.442707" style="fill: white" /><polygon type="contour" points="11.935261,6.547503 11.935126,6.655619 11.792947,6.655619 11.653604,6.655492 11.653604,6.540998 11.653732,6.442715 11.783602,6.442368 11.935261,6.442338" style="fill: white" /><polygon type="contour" points="11.935126,6.113233 11.935261,6.172008 11.783602,6.171892 11.65349,6.171619 11.65349,6.052055 11.822003,6.051726 11.935126,6.051693" style="fill: white" /><polygon type="contour" points="13.248128,5.877412 13.254506,5.877196 13.254305,5.883262 13.254189,5.891486 13.257212,6.169347 13.156419,6.171129 13.144815,6.171456 13.032863,6.170689 12.961012,6.170689 12.961012,5.993597 12.96115,5.875726" style="fill: white" /><polygon type="contour" points="12.688995,6.121518 12.688995,6.171551 12.563609,6.171551 12.476219,6.172008 12.476219,6.112011 12.476084,6.051694 12.566071,6.051471 12.688996,6.051402" style="fill: white" /><polygon type="contour" points="12.563608,6.442707 12.688995,6.442707 12.689362,6.547503 12.689362,6.655483 12.584197,6.655483 12.476084,6.655618 12.476084,6.547747 12.476219,6.442338" style="fill: white" /><polygon type="contour" points="13.080231,6.565631 13.080006,6.655619 13.018467,6.655619 12.959693,6.655483 12.960149,6.568094 12.960149,6.442707 13.080301,6.442707" style="fill: white" /><polygon type="contour" points="13.080006,7.196577 13.079977,7.309699 13.079647,7.478212 12.960084,7.478212 12.959809,7.348098 12.959694,7.196442 13.019688,7.196442" style="fill: white" /><polygon type="contour" points="12.689332,7.348098 12.688986,7.47797 12.590702,7.478097 12.47621,7.478097 12.47621,7.348099 12.476084,7.196577 12.583952,7.196577 12.689363,7.196442" style="fill: white" /><polygon type="contour" points="12.688986,7.718803 12.688986,7.831476 12.688995,8.01098 12.584196,8.011308 12.476084,8.01123 12.476084,7.861977 12.47621,7.718691 12.590702,7.718691" style="fill: white" /><polygon type="contour" points="13.255446,7.80911 13.254539,7.841321 13.256234,8.008915 13.141986,8.010543 13.091593,8.011257 12.961098,8.009125 12.961011,7.893751 12.961053,7.718701 13.035907,7.718701 13.058278,7.718681 13.201896,7.718681 13.225278,7.718655 13.255855,7.718655" style="fill: white" /><polygon type="contour" points="13.141357,11.121092 13.256444,11.122719 13.255098,11.239418 13.25465,11.291142 13.255446,11.322593 13.255855,11.413049 13.225278,11.413049 13.14664,11.413003 12.961053,11.413003 12.961053,11.306059 12.961012,11.122577 13.09088,11.120393" style="fill: white" /><polygon type="contour" points="13.079977,11.822004 13.080006,11.935127 13.018467,11.935128 12.959694,11.935263 12.95981,11.783605 12.960084,11.653492 13.079647,11.653492" style="fill: white" /><polygon type="contour" points="12.688986,11.653734 12.689331,11.783604 12.689363,11.935263 12.584198,11.935263 12.476084,11.935128 12.476084,11.792949 12.47621,11.653607 12.590702,11.653607" style="fill: white" /><polygon type="contour" points="12.566071,11.120822 12.688995,11.120724 12.688995,11.242067 12.688986,11.4129 12.590702,11.413013 12.47621,11.413013 12.47621,11.276547 12.476084,11.120473" style="fill: white" /><polygon type="contour" points="11.412929,11.323202 11.413046,11.413049 11.122302,11.413049 11.120764,11.322024 11.127224,11.127225 11.349264,11.130731 11.412929,11.122215" style="fill: white" /><polygon type="contour" points="11.935126,11.269724 11.935381,11.413012 11.833819,11.413081 11.65349,11.413081 11.65349,11.12056 11.822003,11.120866 11.935126,11.120473" style="fill: white" /><polygon type="contour" points="11.783602,11.653607 11.935381,11.653607 11.935381,11.783604 11.935125,11.935128 11.792947,11.935128 11.653603,11.935383 11.65349,11.833822 11.65349,11.653492" style="fill: white" /><polygon type="contour" points="11.413011,11.783605 11.413011,11.935383 11.276544,11.935383 11.120471,11.935128 11.120865,11.822004 11.120558,11.653492 11.413078,11.653492" style="fill: white" /><polygon type="contour" points="11.412878,12.961071 11.412878,13.036237 11.413021,13.058279 11.413021,13.201898 11.413046,13.225282 11.413046,13.255858 11.322591,13.255449 11.290379,13.254542 11.122785,13.256236 11.121159,13.141989 11.120444,13.091594 11.122576,12.9611 11.237037,12.96103" style="fill: white" /><polygon type="contour" points="11.413011,12.476212 11.413011,12.590704 11.412898,12.688989 11.300224,12.688989 11.120722,12.688996 11.120393,12.584198 11.120471,12.476086 11.269722,12.476086" style="fill: white" /><polygon type="contour" points="11.935126,12.583956 11.935261,12.689363 11.783602,12.689335 11.653732,12.688989 11.653604,12.590705 11.653604,12.476212 11.783601,12.476212 11.935126,12.476086" style="fill: white" /><polygon type="contour" points="11.935261,13.019689 11.935126,13.080008 11.822002,13.079977 11.65349,13.079649 11.65349,12.960085 11.783601,12.959811 11.935261,12.959694" style="fill: white" /><polygon type="contour" points="12.563609,12.960151 12.688996,12.960152 12.688995,13.030268 12.688995,13.080302 12.566071,13.080233 12.476084,13.080008 12.476084,13.018468 12.476219,12.959694" style="fill: white" /><polygon type="contour" points="12.689362,12.476221 12.688995,12.56361 12.688996,12.688996 12.584198,12.689364 12.476219,12.689364 12.476219,12.584198 12.476084,12.476086 12.583952,12.476086" style="fill: white" /><polygon type="contour" points="13.080231,12.566072 13.080301,12.688996 12.96015,12.688996 12.960149,12.56361 12.959693,12.476221 13.019687,12.47622 13.080006,12.476085" style="fill: white" /><polygon type="contour" points="13.156418,12.96057 13.257212,12.962355 13.254189,13.240216 13.254506,13.254508 13.248129,13.254291 13.129299,13.267275 12.96115,13.255979 12.96115,13.221171 12.961012,13.138105 12.961012,13.032865 12.961013,12.961014 13.069699,12.960245 13.144814,12.960245" style="fill: white" />
</svg>
