<svg width="19.131698" height="19.131699">
<polygon type="contour" points="8.921365,8.681368 8.98622,8.682947 8.988101,8.745245 8.988101,8.850626 9.111139,8.850651 9.150122,8.850806 9.150122,8.939382 9.150119,9.060524 9.150121,9.060524 9.150121,9.111141 9.150122,9.150125 9.09257,9.150125 8.988549,9.150118 8.988549,9.150123 8.910646,9.150123 8.850806,9.150125 8.850651,9.111141 8.850621,8.988316 8.683905,8.988267 8.683782,8.945547 8.683402,8.904079 8.679149,8.679151" style="fill: white" /><polygon type="contour" points="9.060522,9.258153 9.060522,9.257934 9.111138,9.257934 9.150122,9.257784 9.150122,9.315785 9.150118,9.420602 9.150121,9.420602 9.150121,9.834482 9.150122,9.87392 9.09257,9.87392 8.988549,9.873429 8.988549,9.873769 8.910647,9.873769 8.850806,9.87392 8.850651,9.834481 8.850655,9.711102 8.681845,9.711102 8.682072,9.664199 8.682909,9.566202 8.682753,9.533961 8.681845,9.420602 8.850655,9.420602 8.850651,9.297221 8.850806,9.257784 8.93938,9.257784" style="fill: white" /><polygon type="contour" points="9.4206,9.258268 9.4206,9.257934 9.834481,9.257934 9.873919,9.257784 9.873919,9.315785 9.873428,9.420602 9.873767,9.420602 9.873767,9.834482 9.873919,9.87392 9.815915,9.87392 9.711101,9.873432 9.711101,9.873769 9.297219,9.873769 9.257781,9.87392 9.257781,9.815918 9.258265,9.711102 9.257931,9.711102 9.257931,9.297221 9.257781,9.257784 9.315783,9.257784" style="fill: white" /><polygon type="contour" points="9.607494,8.68402 9.711101,8.683918 9.711101,8.85066 9.834482,8.850651 9.873919,8.850806 9.873919,8.939383 9.873544,9.060524 9.873767,9.060524 9.873767,9.111141 9.873919,9.150125 9.815916,9.150125 9.711101,9.150118 9.711101,9.150123 9.297219,9.150123 9.257781,9.150125 9.257781,9.092573 9.258267,8.988551 9.257931,8.988551 9.257931,8.910648 9.257781,8.850806 9.297218,8.850651 9.4206,8.85066 9.4206,8.683918 9.524703,8.68402 9.532249,8.683855 9.566054,8.682968" style="fill: white" /><polygon type="contour" points="10.448298,8.904079 10.447916,8.945548 10.447792,8.988267 10.281079,8.988267 10.28105,9.111141 10.280895,9.150125 10.192317,9.150125 10.071178,9.15012 10.071178,9.150123 10.020561,9.150123 9.981579,9.150125 9.981579,8.850806 10.020561,8.850651 10.143225,8.850626 10.1436,8.745244 10.143634,8.739549 10.145481,8.682947 10.210336,8.681368 10.452551,8.679151" style="fill: white" /><polygon type="contour" points="10.14315,9.25827 10.14315,9.257934 10.221054,9.257934 10.280895,9.257784 10.28105,9.297222 10.281042,9.420602 10.449855,9.420602 10.449628,9.467503 10.448791,9.566047 10.448946,9.598286 10.449855,9.711102 10.281042,9.711102 10.28105,9.834481 10.280895,9.87392 10.192316,9.87392 10.071178,9.873547 10.071178,9.873769 10.020562,9.873769 9.981579,9.87392 9.981579,9.257784 10.039128,9.257784" style="fill: white" /><polygon type="contour" points="10.14315,9.981582 10.14315,9.98158 10.221054,9.98158 10.280895,9.981579 10.28105,10.020562 10.281079,10.143388 10.447792,10.143438 10.447916,10.186156 10.448298,10.227625 10.452551,10.452553 10.210336,10.450336 10.145481,10.448757 10.1436,10.386458 10.1436,10.281077 10.020561,10.281053 9.981579,10.280898 9.981579,9.981579 10.039128,9.981579" style="fill: white" /><polygon type="contour" points="9.4206,9.981582 9.4206,9.98158 9.834482,9.98158 9.873919,9.981579 9.873919,10.03913 9.873425,10.143152 9.873767,10.143152 9.873767,10.221056 9.873919,10.280898 9.834482,10.281052 9.711101,10.281043 9.711101,10.447785 9.606995,10.447684 9.599451,10.447846 9.5655,10.448736 9.524205,10.447684 9.4206,10.447785 9.4206,10.281043 9.297218,10.281052 9.257781,10.280898 9.257781,10.192319 9.25815,10.07118 9.257931,10.07118 9.257931,10.020563 9.257781,9.981579 9.315783,9.981579" style="fill: white" /><polygon type="contour" points="9.060522,9.981581 9.060522,9.98158 9.111139,9.98158 9.150122,9.981579 9.150122,10.03913 9.150118,10.143152 9.150121,10.143152 9.150121,10.221056 9.150122,10.280898 9.111139,10.281053 8.988475,10.281077 8.988101,10.386459 8.988067,10.392154 8.98622,10.448757 8.921365,10.450336 8.679149,10.452553 8.683402,10.227625 8.683782,10.186157 8.683905,10.143438 8.850621,10.143438 8.850651,10.020562 8.850806,9.981579 8.93938,9.981579" style="fill: white" />
</svg>
