<svg width="19.131698" height="19.131699">
<polygon type="contour" points="11.9532,13.829902 11.869901,13.829902 11.869901,13.746602 11.9532,13.746602" style="fill: white" /><polygon type="contour" points="11.9532,13.55776 11.869901,13.55776 11.869901,13.080742 11.9532,13.080742" style="fill: white" /><polygon type="contour" points="11.6807,13.55776 11.623415,13.55776 11.4842,13.556933 11.4842,13.557402 11.400899,13.557402 11.400899,13.55649 11.286173,13.557816 11.200542,13.558444 11.200542,13.500253 11.201369,13.360903 11.200901,13.360903 11.200901,13.16391 11.200542,13.080745 11.259531,13.080742 11.400899,13.081554 11.400899,13.081101 11.597709,13.081101 11.6807,13.080742" style="fill: white" /><polygon type="contour" points="11.6807,13.829902 11.400899,13.829902 11.400899,13.828532 11.286173,13.830524 11.200542,13.830929 11.200542,13.746602 11.6807,13.746602" style="fill: white" /><polygon type="contour" points="10.742359,13.829903 10.659189,13.829902 10.265701,13.829902 10.265701,13.746602 10.742359,13.746602" style="fill: white" /><polygon type="contour" points="10.742359,14.076948 10.741528,14.215603 10.742,14.215603 10.742,14.412593 10.742359,14.49576 10.690963,14.495797 10.545499,14.494933 10.545499,14.495402 10.462899,14.495402 10.462899,14.494935 10.349185,14.495607 10.265701,14.496102 10.265701,14.438815 10.266835,14.298903 10.266194,14.298903 10.266194,14.102094 10.265701,14.019102 10.323217,14.019441 10.462899,14.020269 10.462899,14.019803 10.545499,14.019803 10.545499,14.021213 10.65919,14.01918 10.742359,14.018417" style="fill: white" /><polygon type="contour" points="10.970532,14.019445 11.013101,14.019445 11.013101,14.49576 10.929801,14.49576 10.929801,14.018417" style="fill: white" /><polygon type="contour" points="11.013101,13.830929 10.972368,13.829902 10.929801,13.829902 10.929801,13.746602 11.013101,13.746602" style="fill: white" /><polygon type="contour" points="11.013101,13.558444 10.929801,13.558444 10.929801,13.08146 10.970451,13.08146 11.013101,13.080745" style="fill: white" /><polygon type="contour" points="10.462899,13.081568 10.462899,13.081101 10.624605,13.081101 10.65919,13.081102 10.742001,13.08146 10.742001,13.138849 10.741998,13.2776 10.742,13.2776 10.742,13.475007 10.742359,13.558444 10.685414,13.55776 10.545499,13.556936 10.545499,13.557402 10.349185,13.557402 10.265701,13.55776 10.265701,13.500474 10.266835,13.360903 10.266194,13.360903 10.266194,13.16409 10.265701,13.080742 10.322985,13.080742" style="fill: white" /><polygon type="contour" points="10.076501,13.081461 10.076501,13.55776 9.993201,13.55776 9.993201,13.080742 10.033778,13.080742" style="fill: white" /><polygon type="contour" points="10.076501,13.746602 10.076501,13.829902 9.993201,13.829902 9.993201,13.746602 10.033778,13.746602 10.041675,13.746601" style="fill: white" /><polygon type="contour" points="9.804359,14.076386 9.803532,14.215603 9.804001,14.215603 9.804001,14.412617 9.804359,14.496101 9.752963,14.495796 9.607499,14.494934 9.607499,14.495403 9.586305,14.495402 9.524199,14.495402 9.524199,14.494932 9.410689,14.495608 9.327341,14.496101 9.327341,14.438816 9.328167,14.298903 9.3277,14.298903 9.3277,14.102094 9.327341,14.019102 9.384518,14.019442 9.524199,14.020271 9.524199,14.019803 9.607499,14.019803 9.607499,14.020272 9.721008,14.019596 9.804359,14.019102" style="fill: white" /><polygon type="contour" points="9.524199,13.746603 9.524199,13.746602 9.804359,13.746602 9.804359,13.829902 9.327341,13.829902 9.327341,13.746601 9.384627,13.746601" style="fill: white" /><polygon type="contour" points="9.138499,14.019462 9.138499,14.496101 9.0552,14.496101 9.0552,14.019102 9.095776,14.019102" style="fill: white" /><polygon type="contour" points="9.138499,13.829902 9.0552,13.829902 9.0552,13.746602 9.138499,13.746602" style="fill: white" /><polygon type="contour" points="9.138499,13.557042 9.095776,13.55776 9.0552,13.55776 9.0552,13.081461 9.138499,13.081461" style="fill: white" /><polygon type="contour" points="4.497021,9.410692 4.496676,9.524201 4.496916,9.524201 4.496916,9.607501 4.496676,9.607501 4.49702,9.721009 4.496991,9.804361 4.35419,9.804361 4.35422,9.72101 4.354221,9.721009 4.354263,9.607501 4.354192,9.607501 4.354192,9.598583 4.353913,9.524201 4.354263,9.524201 4.35422,9.410691 4.354202,9.362631 4.35419,9.327343 4.496991,9.327343" style="fill: white" /><polygon type="contour" points="4.496991,9.138502 4.35419,9.138502 4.35419,9.095779 4.354094,9.081472 4.354094,9.055202 4.496991,9.055202" style="fill: white" /><polygon type="contour" points="6.050942,6.282401 6.050942,6.323102 6.050932,6.323102 6.050958,6.580801 6.050803,6.654043 6.050601,6.792946 6.050601,6.793503 6.0506,6.793503 6.0506,6.905157 6.050599,6.989303 5.574299,6.989303 5.574299,6.751535 5.574095,6.654042 5.573958,6.418529 5.573997,6.418529 5.573941,6.282524 5.573941,6.239803 6.050959,6.239803" style="fill: white" /><polygon type="contour" points="6.050959,5.385102 5.573941,5.385102 5.57466,5.342298 5.57466,5.301801 6.050959,5.301801" style="fill: white" /><polygon type="contour" points="6.050959,5.631229 6.050135,5.770801 6.050601,5.770801 6.050601,5.96761 6.050959,6.050961 5.994013,6.050961 5.854098,6.050137 5.854098,6.050603 5.657289,6.050603 5.573941,6.050961 5.573941,5.993673 5.574764,5.854101 5.574299,5.854101 5.574299,5.657292 5.573941,5.573943 5.65729,5.574302 5.967607,5.574302 6.050959,5.573943" style="fill: white" /><polygon type="contour" points="6.282398,5.57396 6.418526,5.576247 6.418525,5.57396 6.65404,5.574097 6.751531,5.574301 6.792946,5.574302 6.989301,5.574302 6.989301,6.050602 6.793502,6.050602 6.793502,6.050603 6.792946,6.050603 6.751531,6.050602 6.653885,6.050397 6.3231,6.050202 6.3231,6.050259 6.282603,6.050243 6.2398,6.050961 6.2398,5.573943" style="fill: white" /><polygon type="contour" points="8.201899,6.53643 8.161166,6.53643 8.1186,6.536072 8.1186,6.239803 8.201899,6.239803" style="fill: white" /><polygon type="contour" points="7.931143,6.282401 7.931143,6.323102 7.93112,6.323102 7.931158,6.483488 7.931158,6.536072 7.884901,6.53587 7.730799,6.535259 7.730799,6.535462 7.605765,6.535462 7.533991,6.535097 7.513109,6.535031 7.451,6.534673 7.450998,6.468464 7.450998,6.323103 7.451,6.282524 7.451,6.239803 7.931158,6.239803" style="fill: white" /><polygon type="contour" points="7.2618,6.534673 7.221221,6.534673 7.1785,6.534315 7.1785,6.239803 7.2618,6.239803" style="fill: white" /><polygon type="contour" points="6.988972,6.278971 6.988972,6.323102 6.988432,6.323102 6.989301,6.477156 6.989301,6.534149 6.905155,6.534322 6.871,6.534408 6.871,6.533563 6.792946,6.533563 6.751532,6.533923 6.734998,6.533765 6.732947,6.533765 6.696262,6.534378 6.684579,6.534584 6.53677,6.536772 6.535417,6.63468 6.534702,6.667948 6.533987,6.706581 6.533987,6.713019 6.533763,6.729467 6.533763,6.730286 6.533767,6.735059 6.533922,6.751535 6.53356,6.792946 6.533561,6.793439 6.533561,6.871002 6.534406,6.871002 6.53432,6.905157 6.534147,6.989303 6.473289,6.988974 6.418777,6.988974 6.418777,6.988126 6.285937,6.989303 6.2398,6.989303 6.2398,6.239803 6.989301,6.239803" style="fill: white" /><polygon type="contour" points="7.2618,6.050961 7.1785,6.050961 7.1785,5.573943 7.2618,5.573943" style="fill: white" /><polygon type="contour" points="6.989301,5.385102 6.2398,5.385102 6.2398,5.301801 6.989301,5.301801" style="fill: white" /><polygon type="contour" points="7.2618,5.385102 7.1785,5.385102 7.1785,5.301801 7.2618,5.301801" style="fill: white" /><polygon type="contour" points="7.2618,5.112242 7.221304,5.112242 7.1785,5.112602 7.1785,4.635602 7.2618,4.635602" style="fill: white" /><polygon type="contour" points="8.201899,5.112259 8.1186,5.112259 8.1186,4.635944 8.201899,4.635944" style="fill: white" /><polygon type="contour" points="7.931158,5.385102 7.451,5.385102 7.451,5.301801 7.730799,5.301801 7.730799,5.30317 7.845524,5.301179 7.931158,5.300774" style="fill: white" /><polygon type="contour" points="7.931158,5.631448 7.93033,5.770801 7.930799,5.770801 7.930799,5.968205 7.930801,6.050927 7.871928,6.050243 7.8097,6.050603 7.53399,6.050603 7.451,6.050243 7.451,5.573943 7.508285,5.573943 7.6475,5.574771 7.6475,5.574302 7.730799,5.574302 7.730799,5.575213 7.845525,5.573887 7.931158,5.57326" style="fill: white" /><polygon type="contour" points="8.159331,5.573945 8.201899,5.573945 8.201899,6.050927 8.161248,6.050927 8.1186,6.051645 8.1186,5.57326" style="fill: white" /><polygon type="contour" points="8.201899,5.385787 8.161167,5.385102 8.1186,5.385102 8.1186,5.300774 8.201899,5.300774" style="fill: white" /><polygon type="contour" points="8.472509,5.301179 8.5862,5.303211 8.5862,5.301801 8.865999,5.301801 8.865999,5.385102 8.5862,5.385102 8.5862,5.384155 8.472509,5.385516 8.389342,5.385787 8.389342,5.300774" style="fill: white" /><polygon type="contour" points="11.013101,5.112926 10.97245,5.111902 10.929801,5.111902 10.929801,4.636301 11.013101,4.636301" style="fill: white" /><polygon type="contour" points="10.970533,5.301801 11.013101,5.301801 11.013101,5.385787 10.929801,5.385787 10.929801,5.300774" style="fill: white" /><polygon type="contour" points="10.742359,5.385787 10.65919,5.385516 10.545499,5.384155 10.545499,5.385102 10.265701,5.385102 10.265701,5.301801 10.545499,5.301801 10.545499,5.303211 10.65919,5.301179 10.742359,5.300774" style="fill: white" /><polygon type="contour" points="10.462899,5.574769 10.462899,5.574302 10.659189,5.574302 10.742359,5.573945 10.742359,5.631448 10.741531,5.770801 10.742,5.770801 10.742,5.967791 10.742359,6.050959 10.685414,6.050961 10.545499,6.050137 10.545499,6.050603 10.349185,6.050603 10.265701,6.050961 10.265701,5.993674 10.266835,5.854101 10.266194,5.854101 10.266194,5.657293 10.265701,5.573943 10.322985,5.573943" style="fill: white" /><polygon type="contour" points="10.076501,5.112242 9.993201,5.112242 9.993201,4.635961 10.033696,4.635961 10.076501,4.635602" style="fill: white" /><polygon type="contour" points="10.076501,5.385102 9.993201,5.385102 9.993201,5.301801 10.076501,5.301801" style="fill: white" /><polygon type="contour" points="9.804359,5.385102 9.327341,5.385102 9.327341,5.301801 9.804359,5.301801" style="fill: white" /><polygon type="contour" points="9.524199,5.574768 9.524199,5.574302 9.721007,5.574302 9.804359,5.573943 9.804359,5.631229 9.803535,5.770801 9.804001,5.770801 9.804001,5.967609 9.804,6.050243 9.746828,6.050243 9.686399,6.050603 9.410689,6.050603 9.327341,6.050961 9.327341,5.993674 9.328166,5.854101 9.3277,5.854101 9.3277,5.657293 9.327341,5.573943 9.384627,5.573943" style="fill: white" /><polygon type="contour" points="9.138499,5.112242 9.098003,5.112242 9.0552,5.112602 9.0552,4.635961 9.095695,4.635961 9.138499,4.635602" style="fill: white" /><polygon type="contour" points="9.138499,5.385102 9.0552,5.385102 9.0552,5.301801 9.138499,5.301801" style="fill: white" /><polygon type="contour" points="8.865999,5.631229 8.864867,5.770801 8.865507,5.770801 8.865507,5.96761 8.865999,6.050961 8.808713,6.050961 8.668799,6.050137 8.668799,6.050603 8.5862,6.050603 8.5862,6.049656 8.472509,6.051017 8.3897,6.050927 8.3897,5.65711 8.389342,5.573945 8.446284,5.573944 8.5862,5.574767 8.5862,5.574302 8.782514,5.574302 8.865999,5.573943" style="fill: white" /><polygon type="contour" points="9.138499,6.050961 9.097922,6.050961 9.0552,6.050243 9.0552,5.574662 9.138499,5.574662" style="fill: white" /><polygon type="contour" points="8.865642,6.2824 8.865642,6.323102 8.865121,6.323102 8.865999,6.48396 8.865999,6.537454 8.820739,6.537538 8.715059,6.536939 8.595041,6.536939 8.5073,6.536194 8.5073,6.536674 8.472508,6.536713 8.389342,6.53643 8.389358,6.469148 8.389358,6.418528 8.389395,6.418528 8.389342,6.28237 8.389342,6.239803 8.865999,6.239803" style="fill: white" /><polygon type="contour" points="9.138499,6.537814 9.097922,6.537814 9.0552,6.537454 9.0552,6.239803 9.138499,6.239803" style="fill: white" /><polygon type="contour" points="10.076501,6.537454 10.035924,6.537454 9.993201,6.537814 9.993201,6.239803 10.076501,6.239803" style="fill: white" /><polygon type="contour" points="9.804341,6.282401 9.804341,6.323102 9.804314,6.323102 9.804359,6.48396 9.804359,6.537814 9.759439,6.53797 9.626808,6.53843 9.58501,6.538449 9.566198,6.538611 9.529473,6.538868 9.445299,6.532021 9.445299,6.538224 9.410689,6.538102 9.327341,6.537814 9.327359,6.469834 9.327359,6.418528 9.327401,6.418529 9.327341,6.282524 9.327341,6.239803 9.804359,6.239803" style="fill: white" /><polygon type="contour" points="10.076501,6.050243 9.993201,6.050243 9.993201,5.574662 10.035923,5.573943 10.076501,5.573943" style="fill: white" /><polygon type="contour" points="10.742342,6.2824 10.742342,6.323102 10.742317,6.323102 10.742359,6.483487 10.742359,6.53643 10.697439,6.536302 10.624399,6.536675 10.624399,6.536194 10.536657,6.536939 10.383999,6.536939 10.383999,6.537124 10.349185,6.537115 10.265701,6.537454 10.266059,6.46949 10.266059,6.418529 10.2669,6.418529 10.265701,6.282524 10.265701,6.239803 10.545499,6.239803 10.545499,6.240752 10.65919,6.239388 10.742359,6.239117" style="fill: white" /><polygon type="contour" points="11.013101,6.050927 10.97245,6.050243 10.929801,6.050959 10.929801,5.573945 11.013101,5.573945" style="fill: white" /><polygon type="contour" points="10.970533,6.239803 11.013101,6.239803 11.013101,6.536072 10.970532,6.53643 10.929801,6.53643 10.929801,6.239117" style="fill: white" /><polygon type="contour" points="11.9532,6.534315 11.910478,6.534673 11.869901,6.534673 11.869901,6.239803 11.9532,6.239803" style="fill: white" /><polygon type="contour" points="11.6807,6.534673 11.635707,6.534902 11.526111,6.535462 11.400899,6.535462 11.400899,6.527054 11.321186,6.535585 11.286174,6.535725 11.262426,6.535714 11.200542,6.536072 11.200558,6.468806 11.200558,6.418529 11.200595,6.418529 11.200542,6.28237 11.200542,6.239803 11.6807,6.239803" style="fill: white" /><polygon type="contour" points="11.6807,6.050243 11.623528,6.050243 11.563099,6.050603 11.400899,6.050603 11.400899,6.049691 11.286173,6.051017 11.200542,6.051645 11.200542,5.993454 11.201369,5.854101 11.200901,5.854101 11.200901,5.657111 11.2009,5.57466 11.259771,5.574662 11.321999,5.574302 11.597709,5.574302 11.6807,5.573943" style="fill: white" /><polygon type="contour" points="11.9532,6.050243 11.869901,6.050243 11.869901,5.574662 11.912622,5.573943 11.9532,5.573943" style="fill: white" /><polygon type="contour" points="12.713173,4.635959 12.713173,4.637102 12.849095,4.635961 12.8919,4.635602 12.8919,5.112242 12.849382,5.111902 12.8086,5.111903 12.8086,5.111902 12.483095,5.111902 12.379812,5.112257 12.338747,5.112601 12.338197,5.112599 12.338202,5.111443 12.226545,5.112104 12.142399,5.112213 12.142399,4.635989 12.189398,4.636301 12.338199,4.636301 12.338199,4.635604 12.338379,4.635604 12.338749,4.635602 12.379812,4.635945 12.477163,4.635601" style="fill: white" /><polygon type="contour" points="12.713275,4.163727 12.713225,4.177584 12.713268,4.181957 12.713175,4.261195 12.713175,4.355114 12.849176,4.353851 12.8919,4.353851 12.8919,4.496824 12.806773,4.496824 12.806773,4.496792 12.477164,4.496903 12.379811,4.496835 12.33875,4.496526 12.260478,4.496241 12.260478,4.496761 12.22308,4.496761 12.142399,4.496723 12.142399,4.354069 12.183151,4.354061 12.3382,4.354041 12.3382,4.353723 12.379813,4.354383 12.379603,4.298354 12.380133,4.217977 12.380111,4.21218 12.380067,4.181957 12.380094,4.163707 12.704443,4.163707" style="fill: white" /><polygon type="contour" points="13.125661,4.354208 13.277598,4.354264 13.277598,4.354194 13.360902,4.354194 13.360902,4.354262 13.47441,4.354223 13.55704,4.354392 13.557065,4.428582 13.557065,4.497011 13.477891,4.496917 13.160608,4.496917 13.081435,4.497011 13.08146,4.42743 13.080741,4.353851" style="fill: white" /><polygon type="contour" points="14.764426,4.163767 14.807656,4.163767 14.967766,4.163934 14.967766,4.244043 14.967736,4.257263 14.967975,4.496928 14.954118,4.496875 14.949743,4.496934 14.868731,4.496824 14.709386,4.496825 14.634877,4.496825 14.634877,4.33748 14.634886,4.252003 14.634844,4.163656" style="fill: white" /><polygon type="contour" points="14.777492,4.68086 14.777437,4.832801 14.777508,4.832801 14.777508,4.916102 14.777226,4.916102 14.777571,5.029315 14.777662,5.112261 14.634861,5.112261 14.634886,5.058008 14.634784,4.995001 14.634784,4.832801 14.634786,4.832801 14.634783,4.721491 14.634886,4.635926 14.69705,4.635907 14.7774,4.635907" style="fill: white" /><polygon type="contour" points="14.215602,4.636772 14.215602,4.636302 14.407723,4.636302 14.495401,4.636301 14.495401,5.029314 14.495399,5.111902 14.102387,5.111902 14.01944,5.112261 14.01944,5.055084 14.020272,4.916102 14.019801,4.916102 14.019801,4.719383 14.01944,4.635942 14.070836,4.635907" style="fill: white" /><polygon type="contour" points="14.06436,4.354208 14.215602,4.354264 14.215602,4.354194 14.298902,4.354194 14.298902,4.354564 14.407723,4.35411 14.495401,4.354215 14.4954,4.428582 14.495735,4.496824 14.415891,4.496917 14.09861,4.496917 14.0191,4.496823 14.01944,4.427411 14.01944,4.354041" style="fill: white" /><polygon type="contour" points="13.829899,4.490799 13.8299,4.496824 13.7466,4.496824 13.7466,4.354192 13.7871,4.354041 13.829899,4.354041" style="fill: white" /><polygon type="contour" points="13.8299,4.636301 13.8299,5.112261 13.789322,5.112602 13.7466,5.112242 13.7466,4.635942 13.7871,4.635942" style="fill: white" /><polygon type="contour" points="13.557401,4.719292 13.557401,5.029609 13.55704,5.112242 13.47441,5.112108 13.360902,5.111432 13.360902,5.111902 13.277598,5.111902 13.277598,5.111432 13.164089,5.112108 13.08146,5.112242 13.08146,5.05507 13.081099,4.995001 13.081099,4.719086 13.08146,4.635961 13.132813,4.636301 13.277598,4.636303 13.277598,4.636302 13.47441,4.636302 13.557759,4.635942" style="fill: white" /><polygon type="contour" points="13.557743,6.2824 13.557743,6.323102 13.557733,6.323102 13.557759,6.580802 13.557605,6.654042 13.557401,6.792947 13.557401,6.793503 13.557399,6.793503 13.557399,6.905157 13.557401,6.989303 13.081101,6.989303 13.081101,6.793503 13.081099,6.793503 13.081099,6.792946 13.081101,6.751534 13.081305,6.653888 13.081497,6.323102 13.080758,6.323102 13.080741,6.282524 13.08146,6.239803 13.557759,6.239803" style="fill: white" /><polygon type="contour" points="14.777478,9.410692 14.777436,9.524201 14.777508,9.524201 14.777508,9.533117 14.77679,9.686411 14.777466,9.6864 14.777479,9.72101 14.777496,9.769487 14.777511,9.804361 14.634709,9.804361 14.634679,9.721009 14.635023,9.607501 14.634784,9.607501 14.634784,9.524201 14.635023,9.524201 14.634679,9.410692 14.634709,9.327343 14.77751,9.327343" style="fill: white" /><polygon type="contour" points="14.777503,11.286175 14.777384,11.400901 14.777508,11.400901 14.777174,11.479939 14.777174,11.484203 14.681142,11.484203 14.777654,11.563103 14.777466,11.563103 14.777497,11.645772 14.777511,11.680702 14.634709,11.680702 14.634886,11.626108 14.634784,11.563102 14.634784,11.400901 14.634964,11.400901 14.634702,11.286176 14.634747,11.200545 14.777549,11.200545" style="fill: white" /><polygon type="contour" points="13.8299,11.680702 13.7466,11.680702 13.7466,11.200545 13.8299,11.200545" style="fill: white" /><polygon type="contour" points="13.557401,12.194866 13.557396,12.338202 13.557401,12.338202 13.557401,12.338752 13.557399,12.379813 13.557605,12.477164 13.557743,12.713175 13.557103,12.713175 13.55704,12.849097 13.557759,12.891901 13.080741,12.891901 13.080758,12.849302 13.080758,12.808601 13.081431,12.808601 13.08146,12.551026 13.081306,12.47732 13.081099,12.338752 13.081099,12.338201 13.081101,12.338201 13.081101,12.142401 13.557401,12.142401" style="fill: white" /><polygon type="contour" points="13.557759,11.953201 13.080741,11.953201 13.080741,11.869902 13.557759,11.869902" style="fill: white" /><polygon type="contour" points="13.8299,11.953201 13.7466,11.953201 13.7466,11.869902 13.8299,11.869902" style="fill: white" /><polygon type="contour" points="14.495402,12.1894 14.495397,12.338202 14.496098,12.338202 14.496098,12.338382 14.496099,12.338753 14.495753,12.379812 14.496099,12.477165 14.495742,12.713175 14.4949,12.713175 14.4961,12.849177 14.49574,12.891901 14.0191,12.891901 14.019458,12.849302 14.020601,12.713174 14.019458,12.713175 14.0191,12.477165 14.019445,12.379813 14.019099,12.338752 14.019101,12.338201 14.020259,12.338207 14.019599,12.226546 14.019488,12.142401 14.495713,12.142401" style="fill: white" /><polygon type="contour" points="14.4961,11.953201 14.0191,11.953201 14.0191,11.869902 14.4961,11.869902" style="fill: white" /><polygon type="contour" points="14.777511,11.953201 14.634709,11.953201 14.634709,11.869902 14.777511,11.869902" style="fill: white" /><polygon type="contour" points="14.777641,12.183154 14.777658,12.338202 14.777977,12.338202 14.777977,12.379811 14.833347,12.379604 14.913724,12.380135 14.91952,12.380113 14.949744,12.380069 14.967996,12.380096 14.967996,12.704444 14.967975,12.713276 14.954117,12.713226 14.949744,12.713269 14.870506,12.713175 14.776588,12.713175 14.777852,12.849178 14.777852,12.891901 14.635051,12.891901 14.634673,12.849302 14.634673,12.713175 14.634793,12.536402 14.634818,12.483097 14.634867,12.379813 14.635176,12.338752 14.635459,12.260513 14.634951,12.260513 14.634843,12.226545 14.63483,12.142401 14.777634,12.142401" style="fill: white" /><polygon type="contour" points="14.949744,14.634769 14.967975,14.634775 14.967736,14.874441 14.967766,14.887661 14.967766,14.967769 14.807657,14.967937 14.764426,14.967937 14.634844,14.968048 14.634844,14.894101 14.634886,14.8797 14.634877,14.794224 14.634877,14.634879 14.868731,14.634879 14.922871,14.634764" style="fill: white" /><polygon type="contour" points="14.215602,14.63492 14.215602,14.634787 14.415891,14.634787 14.495735,14.634879 14.495795,14.697358 14.495401,14.777489 14.450517,14.777255 14.36353,14.777511 14.215602,14.777511 14.215602,14.777231 14.102388,14.777573 14.01944,14.777663 14.0191,14.70317 14.019435,14.634692 14.08068,14.634692" style="fill: white" /><polygon type="contour" points="13.557735,14.634878 13.557759,14.704272 13.557759,14.777512 13.51284,14.777494 13.360902,14.77744 13.360902,14.777511 13.277598,14.777511 13.277598,14.776969 13.164089,14.777688 13.08146,14.777652 13.081435,14.703122 13.080765,14.634879 13.142125,14.634879 13.198698,14.634787 13.477891,14.634787" style="fill: white" /><polygon type="contour" points="13.8299,14.777663 13.7871,14.777663 13.7466,14.777512 13.7466,14.634879 13.8299,14.634879" style="fill: white" /><polygon type="contour" points="13.8299,14.495761 13.7466,14.495761 13.7466,14.019462 13.787019,14.019802 13.8299,14.019442" style="fill: white" /><polygon type="contour" points="13.557759,14.076386 13.556932,14.215603 13.557401,14.215603 13.557401,14.412412 13.557759,14.495761 13.474409,14.495402 13.277598,14.495402 13.277598,14.494932 13.164089,14.495608 13.08146,14.495742 13.081099,14.412617 13.081099,14.102094 13.08146,14.019462 13.138523,14.019802 13.277598,14.019804 13.277598,14.019803 13.360902,14.019803 13.360902,14.020272 13.47441,14.019596 13.49697,14.019462 13.557759,14.019102" style="fill: white" /><polygon type="contour" points="13.557759,13.789324 13.557759,13.829902 13.08146,13.829902 13.08146,13.789405 13.080741,13.746602 13.55704,13.746602" style="fill: white" /><polygon type="contour" points="13.8299,13.55776 13.789323,13.55776 13.7466,13.557042 13.7466,13.081461 13.787096,13.081461 13.8299,13.080742" style="fill: white" /><polygon type="contour" points="13.8299,13.829902 13.7466,13.829902 13.7466,13.746602 13.8299,13.746602" style="fill: white" /><polygon type="contour" points="14.49576,13.787102 14.495399,13.829902 14.01944,13.829902 14.0191,13.789324 14.0191,13.746602 14.495759,13.746602" style="fill: white" /><polygon type="contour" points="14.495795,14.070532 14.494931,14.215603 14.495401,14.215603 14.495401,14.495402 14.0198,14.495402 14.019801,14.412321 14.019801,14.102389 14.0198,14.019802 14.076862,14.019802 14.215602,14.019804 14.215602,14.019803 14.412319,14.019803 14.49576,14.019442" style="fill: white" /><polygon type="contour" points="14.777494,14.064362 14.777435,14.215603 14.777508,14.215603 14.777508,14.353635 14.777414,14.407724 14.777401,14.495796 14.711397,14.495777 14.634886,14.495777 14.634886,14.441184 14.634784,14.377803 14.634784,14.215603 14.634813,14.215603 14.634771,14.102389 14.634861,14.019442 14.777662,14.019442" style="fill: white" /><polygon type="contour" points="14.777511,13.789325 14.777662,13.829902 14.634861,13.829902 14.634709,13.789324 14.634709,13.746602 14.777511,13.746602" style="fill: white" /><polygon type="contour" points="14.777494,13.125662 14.777435,13.2776 14.777508,13.2776 14.777508,13.360903 14.777436,13.360903 14.777479,13.474412 14.777311,13.557042 14.707888,13.557042 14.634709,13.55776 14.634886,13.503184 14.634784,13.439803 14.634784,13.198701 14.634886,13.16409 14.635051,13.080742 14.777852,13.080742" style="fill: white" /><polygon type="contour" points="14.2156,13.08157 14.2156,13.081101 14.412616,13.081101 14.4961,13.080742 14.495794,13.132139 14.494933,13.2776 14.495401,13.2776 14.495401,13.474412 14.495759,13.55776 14.438814,13.55776 14.298902,13.556936 14.298902,13.557402 14.102092,13.557402 14.0191,13.55776 14.019738,13.450387 14.020269,13.360903 14.019801,13.360903 14.019801,13.2776 14.02027,13.2776 14.019594,13.16409 14.0191,13.141415 14.0191,13.080742 14.076385,13.080742" style="fill: white" /><polygon type="contour" points="13.8299,12.891901 13.7466,12.891901 13.7466,12.142401 13.8299,12.142401" style="fill: white" /><polygon type="contour" points="13.277598,13.081568 13.277598,13.081101 13.474409,13.081101 13.557759,13.080742 13.557759,13.138028 13.556935,13.2776 13.557401,13.2776 13.557401,13.474412 13.557759,13.557761 13.474409,13.557402 13.164089,13.557402 13.080741,13.55776 13.080741,13.500474 13.081564,13.360903 13.081099,13.360903 13.081099,13.16409 13.080741,13.080742 13.137685,13.080742" style="fill: white" /><polygon type="contour" points="12.8919,13.55776 12.849301,13.557744 12.712986,13.555453 12.712982,13.55706 12.477319,13.557197 12.379811,13.557402 12.338198,13.557402 12.338198,13.557401 12.226545,13.557401 12.142399,13.557403 12.142399,13.081102 12.338199,13.081102 12.338199,13.081101 12.338749,13.081101 12.379812,13.081102 12.477164,13.080897 12.713174,13.08076 12.713174,13.080802 12.849176,13.080742 12.8919,13.080742" style="fill: white" /><polygon type="contour" points="12.8919,13.829902 12.142399,13.829902 12.142399,13.746602 12.8919,13.746602" style="fill: white" /><polygon type="contour" points="12.8919,14.019102 12.8919,14.496101 12.849302,14.495743 12.8086,14.495743 12.8086,14.495598 12.477163,14.496101 12.379812,14.495756 12.33875,14.496102 12.338199,14.4961 12.338204,14.494946 12.226544,14.495604 12.142399,14.495714 12.142399,14.01949 12.195069,14.019802 12.338199,14.019799 12.338199,14.019104 12.338417,14.019104 12.338749,14.019102 12.379812,14.019446 12.477163,14.019102 12.713174,14.01946 12.713174,14.020304 12.849176,14.019101" style="fill: white" /><polygon type="contour" points="12.806773,14.63491 12.806773,14.634879 12.8919,14.634879 12.8919,14.777853 12.849301,14.777476 12.713174,14.777476 12.713174,14.870509 12.713304,14.915896 12.713268,14.949746 12.713275,14.967977 12.704444,14.967998 12.380094,14.967998 12.380064,14.951879 12.380067,14.949745 12.380132,14.913727 12.380105,14.836433 12.379603,14.833349 12.37981,14.777828 12.338202,14.77798 12.338202,14.777665 12.226543,14.777645 12.142399,14.777635 12.142399,14.634981 12.198919,14.634981 12.260478,14.634943 12.260477,14.635181 12.33845,14.635181 12.338749,14.635179 12.379812,14.634868 12.477164,14.6348" style="fill: white" /><polygon type="contour" points="11.9532,14.777512 11.869901,14.777512 11.869901,14.634879 11.9532,14.634879" style="fill: white" /><polygon type="contour" points="11.9532,14.496101 11.869901,14.496101 11.869901,14.019102 11.9532,14.019102" style="fill: white" /><polygon type="contour" points="11.6807,14.496101 11.629268,14.495795 11.4842,14.494932 11.4842,14.495402 11.286174,14.495402 11.200542,14.49576 11.200542,14.438255 11.201369,14.298903 11.200901,14.298903 11.200901,14.10212 11.200542,14.019445 11.259419,14.019442 11.400899,14.020258 11.400899,14.019803 11.4842,14.019803 11.4842,14.020272 11.597709,14.019596 11.618591,14.019102 11.6807,14.019102" style="fill: white" /><polygon type="contour" points="11.680701,14.634879 11.6807,14.704271 11.6807,14.777512 11.597709,14.777482 11.4842,14.777439 11.4842,14.777511 11.400899,14.777511 11.400899,14.777387 11.286173,14.777506 11.236552,14.777531 11.200542,14.777551 11.200564,14.703169 11.200564,14.634879 11.282776,14.634787 11.601189,14.634787" style="fill: white" /><polygon type="contour" points="11.013101,14.777551 10.99271,14.777551 10.985737,14.777461 10.96489,14.77757 10.959562,14.777461 10.951978,14.777551 10.929801,14.777551 10.929801,14.634879 11.013101,14.634879" style="fill: white" /><polygon type="contour" points="10.742701,14.634879 10.742359,14.704576 10.742359,14.777551 10.659189,14.777505 10.545499,14.777385 10.545499,14.777511 10.471741,14.777511 10.466887,14.777394 10.383999,14.777394 10.383999,14.777469 10.349185,14.777482 10.300629,14.777498 10.265701,14.777512 10.265701,14.634879 10.327061,14.634879 10.383773,14.634787 10.662716,14.634787" style="fill: white" /><polygon type="contour" points="10.076501,14.777512 9.993201,14.777512 9.993201,14.634879 10.076501,14.634879" style="fill: white" /><polygon type="contour" points="10.076501,14.496101 9.993201,14.496101 9.993201,14.019102 10.076501,14.019102" style="fill: white" /><polygon type="contour" points="9.6864,14.634789 9.6864,14.634787 9.724488,14.634788 9.804335,14.634879 9.804359,14.704272 9.804359,14.777512 9.721007,14.777481 9.607499,14.777439 9.607499,14.777511 9.524199,14.777511 9.524199,14.777439 9.410689,14.777482 9.362629,14.777497 9.327341,14.777512 9.327365,14.703169 9.327365,14.634878 9.407208,14.634787 9.551179,14.634787" style="fill: white" /><polygon type="contour" points="9.138499,14.777512 9.122552,14.77757 9.112229,14.777608 9.097921,14.777512 9.0552,14.777512 9.0552,14.634879 9.138499,14.634879" style="fill: white" /><polygon type="contour" points="8.866,14.634879 8.865999,14.704271 8.865999,14.777512 8.782513,14.777481 8.668799,14.777439 8.668799,14.777511 8.5862,14.777511 8.5862,14.777385 8.472509,14.777506 8.424524,14.777531 8.389342,14.777551 8.389,14.703169 8.389,14.634879 8.468983,14.634787 8.786016,14.634787" style="fill: white" /><polygon type="contour" points="5.112259,14.076618 5.111431,14.215603 5.1119,14.215603 5.1119,14.412322 5.112259,14.495761 5.060863,14.495796 4.9161,14.494932 4.9161,14.495402 4.723977,14.495402 4.635905,14.495796 4.636299,14.407724 4.636299,14.019802 4.693362,14.019802 4.832799,14.019804 4.832799,14.019803 5.029312,14.019803 5.112259,14.019442" style="fill: white" /><polygon type="contour" points="5.112599,14.634879 5.112259,14.70429 5.1119,14.777461 5.067016,14.777254 4.980686,14.777511 4.832799,14.777511 4.832799,14.777136 4.723977,14.777595 4.635905,14.777709 4.635965,14.70317 4.635965,14.634879 4.71581,14.634787 5.033088,14.634787" style="fill: white" /><polygon type="contour" points="5.3851,14.777512 5.344599,14.777663 5.301799,14.777663 5.301799,14.634879 5.3851,14.634879" style="fill: white" /><polygon type="contour" points="5.3851,14.495761 5.301799,14.495761 5.301799,14.019802 5.342296,14.019462 5.3851,14.019462" style="fill: white" /><polygon type="contour" points="6.050935,14.634879 6.050959,14.704612 6.050959,14.777853 6.006039,14.777496 5.854098,14.777441 5.854098,14.777511 5.770798,14.777511 5.770798,14.777439 5.65729,14.777481 5.573941,14.777512 5.573966,14.703169 5.573966,14.634878 5.653808,14.634787 5.971088,14.634787" style="fill: white" /><polygon type="contour" points="6.050959,14.076386 6.050132,14.215602 6.050601,14.215601 6.050601,14.412617 6.050959,14.496101 5.999563,14.495796 5.854098,14.494934 5.854098,14.495402 5.65729,14.495402 5.573941,14.495761 5.574299,14.412412 5.574299,14.102093 5.573941,14.019102 5.657289,14.019596 5.770798,14.020272 5.770798,14.019803 5.854098,14.019803 5.854098,14.020272 5.967608,14.019596 6.050959,14.019102" style="fill: white" /><polygon type="contour" points="6.05024,13.787098 6.050959,13.829902 5.57466,13.829902 5.573941,13.787179 5.573941,13.746602 6.05024,13.746602" style="fill: white" /><polygon type="contour" points="6.282398,13.080761 6.3231,13.08076 6.3231,13.081499 6.653885,13.081307 6.751531,13.081102 6.792946,13.081101 6.793502,13.081101 6.793502,13.081102 6.989301,13.081102 6.989301,13.557403 6.936835,13.557403 6.793502,13.557398 6.793502,13.557402 6.751531,13.557402 6.65404,13.557606 6.418526,13.557744 6.418526,13.557706 6.282523,13.55776 6.2398,13.55776 6.2398,13.080743" style="fill: white" /><polygon type="contour" points="7.2618,12.891901 7.1785,12.891901 7.1785,12.59739 7.221221,12.597031 7.2618,12.597031" style="fill: white" /><polygon type="contour" points="7.2618,13.55776 7.1785,13.55776 7.1785,13.080742 7.2618,13.080742" style="fill: white" /><polygon type="contour" points="7.2618,14.019462 7.2618,14.496101 7.221221,14.496101 7.1785,14.495742 7.1785,14.019102 7.219076,14.019102" style="fill: white" /><polygon type="contour" points="7.2618,13.829902 7.1785,13.829902 7.1785,13.746602 7.2618,13.746602" style="fill: white" /><polygon type="contour" points="6.989301,13.829902 6.2398,13.829902 6.2398,13.746602 6.989301,13.746602" style="fill: white" /><polygon type="contour" points="6.793501,14.019104 6.793496,14.020259 6.905155,14.019599 6.989301,14.019489 6.989301,14.495714 6.942302,14.495403 6.793502,14.4954 6.793502,14.4961 6.79332,14.4961 6.792945,14.496102 6.751532,14.495758 6.65404,14.496102 6.418525,14.495743 6.418526,14.494901 6.282523,14.496101 6.2398,14.495742 6.2398,14.019102 6.282397,14.01946 6.418525,14.01946 6.418525,14.019459 6.595298,14.019803 6.648603,14.019801 6.751532,14.019445 6.792945,14.019102" style="fill: white" /><polygon type="contour" points="6.751532,14.634869 6.792945,14.635179 6.871223,14.63546 6.871223,14.634944 6.908621,14.634944 6.989301,14.634981 6.989301,14.777635 6.948547,14.777643 6.793499,14.77766 6.793499,14.77798 6.751533,14.77798 6.7516,14.83335 6.751565,14.913727 6.751587,14.919523 6.75163,14.949746 6.751603,14.967998 6.427256,14.967998 6.418425,14.967978 6.418474,14.954121 6.418431,14.949747 6.418525,14.870508 6.416027,14.776612 6.282522,14.777853 6.2398,14.777853 6.2398,14.634879 6.3231,14.634879 6.3231,14.63491 6.65404,14.6348" style="fill: white" /><polygon type="contour" points="7.2618,14.777512 7.1785,14.777512 7.1785,14.634879 7.2618,14.634879" style="fill: white" /><polygon type="contour" points="7.568599,14.634787 7.730799,14.634787 7.730799,14.63479 7.848921,14.634787 7.931134,14.634879 7.931158,14.704575 7.931158,14.777551 7.845525,14.777506 7.730799,14.777387 7.730799,14.777511 7.656416,14.777511 7.651763,14.777175 7.6475,14.777175 7.6475,14.677855 7.4688,14.677855 7.4688,14.777504 7.451,14.777512 7.451,14.634879 7.51236,14.634879 7.568599,14.634786" style="fill: white" /><polygon type="contour" points="8.201899,14.777551 8.185952,14.77757 8.175724,14.777461 8.161166,14.777551 8.1186,14.777551 8.1186,14.634879 8.201899,14.634879" style="fill: white" /><polygon type="contour" points="8.201899,14.49576 8.1186,14.49576 8.1186,14.018777 8.159249,14.018777 8.201899,14.018417" style="fill: white" /><polygon type="contour" points="8.446762,14.019802 8.5862,14.019804 8.5862,14.019803 8.668799,14.019803 8.668799,14.020266 8.782514,14.019597 8.86564,14.019462 8.86564,14.076632 8.865332,14.215603 8.865507,14.215603 8.865507,14.412618 8.865999,14.496101 8.814263,14.495796 8.668799,14.494934 8.668799,14.495402 8.3897,14.495402 8.3897,14.018777" style="fill: white" /><polygon type="contour" points="8.472509,13.746188 8.5862,13.747548 8.5862,13.746602 8.865999,13.746602 8.865999,13.829902 8.389342,13.829902 8.389342,13.745918" style="fill: white" /><polygon type="contour" points="8.201899,13.829902 8.1186,13.829902 8.1186,13.745918 8.201899,13.745918" style="fill: white" /><polygon type="contour" points="7.930801,14.077191 7.930796,14.215603 7.930799,14.215603 7.930799,14.412593 7.930801,14.495402 7.877956,14.495403 7.809699,14.495403 7.809699,14.495402 7.6475,14.495402 7.6475,14.494935 7.53399,14.495608 7.451,14.496101 7.451,14.019102 7.508177,14.019442 7.6475,14.020274 7.6475,14.019803 7.730799,14.019803 7.730799,14.021169 7.845525,14.019181 7.930801,14.018777" style="fill: white" /><polygon type="contour" points="7.931158,13.829902 7.451,13.829902 7.451,13.746602 7.730799,13.746602 7.730799,13.747513 7.845524,13.746188 7.931158,13.745918" style="fill: white" /><polygon type="contour" points="7.931158,13.138248 7.93033,13.2776 7.930799,13.2776 7.930799,13.474593 7.930801,13.557044 7.871928,13.557042 7.8097,13.557402 7.53399,13.557402 7.451,13.557761 7.451,13.080742 7.508285,13.080742 7.6475,13.08157 7.6475,13.081101 7.730799,13.081101 7.730799,13.082012 7.845525,13.080686 7.931158,13.080059" style="fill: white" /><polygon type="contour" points="7.931143,12.662897 7.931143,12.713175 7.931107,12.713175 7.931158,12.849333 7.931158,12.891901 7.451,12.891901 7.450998,12.849302 7.450998,12.713175 7.451,12.649446 7.451,12.597031 7.495992,12.596801 7.605489,12.596241 7.730799,12.596241 7.730799,12.596442 7.884902,12.595833 7.931158,12.595632" style="fill: white" /><polygon type="contour" points="8.201899,12.891901 8.1186,12.891901 8.1186,12.595632 8.159332,12.595632 8.201899,12.595274" style="fill: white" /><polygon type="contour" points="8.201899,13.080775 8.201899,13.55776 8.1186,13.55776 8.1186,13.080059 8.159332,13.080059" style="fill: white" /><polygon type="contour" points="8.446285,13.080742 8.5862,13.081568 8.5862,13.081101 8.782514,13.081101 8.865999,13.080742 8.865999,13.138028 8.864867,13.2776 8.865507,13.2776 8.865507,13.474412 8.865999,13.55776 8.808713,13.55776 8.668799,13.556936 8.668799,13.557402 8.472509,13.557402 8.3897,13.557044 8.3897,13.163495 8.389342,13.080059" style="fill: white" /><polygon type="contour" points="8.865642,12.662211 8.865642,12.713175 8.864802,12.713174 8.865999,12.849177 8.865999,12.891901 8.389342,12.891901 8.389358,12.849303 8.389358,12.808601 8.389381,12.808601 8.389342,12.648215 8.389342,12.595274 8.43426,12.595402 8.5073,12.59503 8.5073,12.595509 8.595041,12.594765 8.747699,12.594765 8.747699,12.59458 8.782513,12.594588 8.865999,12.594248" style="fill: white" /><polygon type="contour" points="9.138499,12.891901 9.0552,12.891901 9.0552,12.594248 9.095777,12.594248 9.138499,12.593889" style="fill: white" /><polygon type="contour" points="9.524199,13.081567 9.524199,13.081101 9.721007,13.081101 9.804359,13.080742 9.804359,13.138028 9.803535,13.2776 9.804001,13.2776 9.804001,13.474412 9.804359,13.55776 9.747074,13.55776 9.607499,13.556936 9.607499,13.557402 9.410689,13.557402 9.327341,13.55776 9.327341,13.500474 9.328166,13.360903 9.3277,13.360903 9.3277,13.164091 9.327341,13.080742 9.384627,13.080742" style="fill: white" /><polygon type="contour" points="9.686399,12.599791 9.686399,12.593481 9.721007,12.5936 9.804359,12.593889 9.804341,12.661869 9.804341,12.713175 9.804298,12.713174 9.804359,12.849177 9.804359,12.891901 9.327341,12.891901 9.327359,12.849302 9.327359,12.808601 9.327385,12.808601 9.327341,12.647741 9.327341,12.593889 9.383554,12.593633 9.500755,12.593275 9.547069,12.593255 9.566198,12.593092 9.602313,12.592836" style="fill: white" /><polygon type="contour" points="10.076501,12.594248 10.076501,12.891901 9.993201,12.891901 9.993201,12.593889 10.033777,12.593889" style="fill: white" /><polygon type="contour" points="10.322464,12.594317 10.462899,12.595038 10.462899,12.594765 10.536657,12.594765 10.574493,12.595085 10.65919,12.594991 10.742359,12.595274 10.742342,12.662555 10.742342,12.713175 10.742302,12.713175 10.742359,12.850019 10.742359,12.892587 10.65919,12.892316 10.545499,12.890951 10.545499,12.891901 10.265701,12.891901 10.266059,12.849303 10.266059,12.808601 10.266581,12.808601 10.265701,12.647741 10.265701,12.594248" style="fill: white" /><polygon type="contour" points="11.013101,12.595632 11.013101,12.892587 10.929801,12.892587 10.929801,12.595274 10.970532,12.595274" style="fill: white" /><polygon type="contour" points="11.259307,12.596006 11.400899,12.596455 11.400899,12.596241 11.526144,12.596241 11.597708,12.596606 11.6807,12.597031 11.6807,12.891901 11.400899,12.891901 11.400899,12.890987 11.286173,12.892316 11.200542,12.892587 11.200558,12.849303 11.200558,12.808601 11.200581,12.808601 11.200542,12.648215 11.200542,12.595632" style="fill: white" /><polygon type="contour" points="11.9532,12.59739 11.9532,12.891901 11.869901,12.891901 11.869901,12.597031 11.910478,12.597031" style="fill: white" /><polygon type="contour" points="12.658409,12.14273 12.712923,12.14273 12.712923,12.143577 12.845762,12.142401 12.8919,12.142401 12.8919,12.891901 12.142399,12.891901 12.142728,12.852731 12.142728,12.808601 12.143267,12.808601 12.142399,12.654546 12.142399,12.597555 12.16141,12.597407 12.238929,12.597287 12.260701,12.597297 12.260701,12.59814 12.338749,12.59814 12.379812,12.59778 12.395975,12.597936 12.414446,12.597529 12.538564,12.595649 12.594929,12.594931 12.596282,12.49702 12.596641,12.465899 12.597525,12.418754 12.597933,12.395977 12.597777,12.379812 12.598139,12.338753 12.598139,12.260702 12.597295,12.260702 12.597381,12.226545 12.597552,12.1424" style="fill: white" /><polygon type="contour" points="12.8919,11.953201 12.597387,11.953201 12.597028,11.910479 12.597028,11.869902 12.8919,11.869902" style="fill: white" /><polygon type="contour" points="12.8919,11.680702 12.597028,11.680702 12.596798,11.63571 12.596241,11.525913 12.596241,11.400901 12.604648,11.400901 12.596118,11.321188 12.595977,11.286176 12.595986,11.262428 12.595631,11.200545 12.662896,11.20056 12.713173,11.20056 12.713173,11.200595 12.849332,11.200545 12.8919,11.200545" style="fill: white" /><polygon type="contour" points="12.8919,10.545501 12.89095,10.545501 12.892315,10.659191 12.892586,10.74236 12.849302,10.742344 12.8086,10.742344 12.8086,10.74232 12.648213,10.74236 12.595273,10.74236 12.5954,10.697441 12.595028,10.624401 12.595508,10.624401 12.594764,10.536659 12.594764,10.384001 12.594579,10.384001 12.594587,10.349186 12.594246,10.265702 12.662211,10.26606 12.713174,10.26606 12.713174,10.266901 12.849176,10.265702 12.8919,10.265702" style="fill: white" /><polygon type="contour" points="12.8919,10.970535 12.8919,11.013103 12.595631,11.013103 12.595273,10.970534 12.595273,10.929803 12.892586,10.929803" style="fill: white" /><polygon type="contour" points="13.277598,11.20137 13.277598,11.200903 13.475006,11.200903 13.558442,11.200545 13.557759,11.259532 13.556948,11.400901 13.557401,11.400901 13.557401,11.597711 13.55704,11.680701 13.499869,11.680701 13.439802,11.680703 13.16409,11.680703 13.080741,11.680702 13.080741,11.623415 13.081567,11.484203 13.081099,11.484203 13.081099,11.400901 13.08201,11.400901 13.080685,11.286176 13.080058,11.200545 13.138246,11.200545" style="fill: white" /><polygon type="contour" points="13.558442,10.970534 13.558442,11.013103 13.080058,11.013103 13.080743,10.972371 13.080743,10.929803 13.557758,10.929803" style="fill: white" /><polygon type="contour" points="13.8299,10.74236 13.745915,10.74236 13.746186,10.659192 13.747546,10.545501 13.7466,10.545501 13.7466,10.265702 13.8299,10.265702" style="fill: white" /><polygon type="contour" points="13.8299,11.013103 13.746599,11.013103 13.745915,10.972371 13.745915,10.929803 13.8299,10.929803" style="fill: white" /><polygon type="contour" points="14.215602,11.200904 14.215602,11.200903 14.412592,11.200903 14.495401,11.200902 14.495401,11.484203 14.494931,11.484203 14.495607,11.597712 14.4961,11.680702 14.438813,11.680702 14.378006,11.680703 14.102093,11.680703 14.0191,11.680702 14.01944,11.623524 14.020272,11.484203 14.019801,11.484203 14.019801,11.400901 14.021168,11.400901 14.01918,11.286175 14.018775,11.200902 14.07719,11.200902" style="fill: white" /><polygon type="contour" points="14.495759,11.013103 14.018415,11.013103 14.018415,10.929803 14.495759,10.929803" style="fill: white" /><polygon type="contour" points="14.777568,10.94575 14.777459,10.955976 14.777549,10.970534 14.777549,11.013103 14.634747,11.013103 14.634747,10.929803 14.777548,10.929803" style="fill: white" /><polygon type="contour" points="14.495795,10.317437 14.494933,10.462901 14.495401,10.462901 14.495401,10.659191 14.495759,10.74236 14.438255,10.74236 14.298902,10.741537 14.298902,10.742003 14.101496,10.742003 14.018415,10.74236 14.019439,10.685185 14.020269,10.545501 14.019801,10.545501 14.019801,10.462901 14.020267,10.462901 14.019595,10.349186 14.01946,10.266062 14.076629,10.266062 14.215602,10.266372 14.215602,10.266196 14.412616,10.266196 14.4961,10.265702" style="fill: white" /><polygon type="contour" points="14.777479,10.349185 14.777436,10.462901 14.777508,10.462901 14.777508,10.471743 14.776787,10.624411 14.777466,10.624401 14.777503,10.659191 14.777529,10.707593 14.777549,10.74236 14.634747,10.74236 14.634702,10.659191 14.634971,10.545501 14.634784,10.545501 14.634784,10.462901 14.635023,10.462901 14.634679,10.349186 14.634709,10.265702 14.777511,10.265702" style="fill: white" /><polygon type="contour" points="14.777511,10.035925 14.777606,10.05023 14.777606,10.076502 14.634709,10.076502 14.634709,9.993202 14.777511,9.993202" style="fill: white" /><polygon type="contour" points="14.496101,10.033778 14.496099,10.076502 14.0191,10.076502 14.0191,9.993202 14.496101,9.993202" style="fill: white" /><polygon type="contour" points="13.8299,9.804361 13.7466,9.804361 13.7466,9.327343 13.8299,9.327343" style="fill: white" /><polygon type="contour" points="13.8299,10.076502 13.7466,10.076502 13.7466,9.993202 13.8299,9.993202" style="fill: white" /><polygon type="contour" points="13.557759,10.076502 13.080741,10.076502 13.080741,9.993202 13.557759,9.993202" style="fill: white" /><polygon type="contour" points="13.277598,10.266838 13.277598,10.266196 13.47441,10.266196 13.557759,10.265702 13.557759,10.322987 13.556935,10.462901 13.557401,10.462901 13.557401,10.659191 13.557758,10.74236 13.500253,10.74236 13.360902,10.741537 13.360902,10.742003 13.163909,10.742003 13.081459,10.742002 13.08146,10.685171 13.081099,10.624606 13.081099,10.349185 13.08146,10.32649 13.080741,10.265702 13.138026,10.265702" style="fill: white" /><polygon type="contour" points="12.8919,10.076502 12.594246,10.076502 12.594246,10.035925 12.593887,9.993202 12.8919,9.993202" style="fill: white" /><polygon type="contour" points="12.8919,9.804361 12.849301,9.804344 12.8086,9.804344 12.8086,9.804319 12.647739,9.804361 12.593887,9.804361 12.59373,9.759441 12.593271,9.626809 12.593252,9.585012 12.59309,9.566202 12.592833,9.529475 12.599695,9.445301 12.593478,9.445301 12.593599,9.410691 12.593887,9.327343 12.661869,9.32736 12.713173,9.32736 12.713173,9.3274 12.849178,9.327344 12.859228,9.327343 12.8919,9.327343" style="fill: white" /><polygon type="contour" points="12.8919,9.138502 12.593887,9.138502 12.593887,9.097925 12.594246,9.055202 12.8919,9.055202" style="fill: white" /><polygon type="contour" points="13.277598,9.328168 13.277598,9.327702 13.55704,9.327702 13.55704,9.384872 13.557401,9.445301 13.557401,9.72101 13.55704,9.804002 13.16409,9.804002 13.080741,9.804361 13.080741,9.747076 13.081564,9.607501 13.081099,9.607501 13.081099,9.410691 13.080741,9.327343 13.138027,9.327343" style="fill: white" /><polygon type="contour" points="13.557759,9.138502 13.080741,9.138502 13.080741,9.097924 13.08146,9.055202 13.557759,9.055202" style="fill: white" /><polygon type="contour" points="13.8299,9.138502 13.7466,9.138502 13.7466,9.055202 13.8299,9.055202" style="fill: white" /><polygon type="contour" points="14.215602,9.328171 14.215602,9.327702 14.412616,9.327702 14.496101,9.327343 14.495796,9.378738 14.494932,9.524201 14.495401,9.524201 14.495401,9.607501 14.494931,9.607501 14.495607,9.72101 14.49574,9.804002 14.102093,9.804002 14.0191,9.804361 14.019738,9.696988 14.020269,9.607501 14.019801,9.607501 14.019801,9.524201 14.02027,9.524201 14.019594,9.410691 14.0191,9.327343 14.076385,9.327343" style="fill: white" /><polygon type="contour" points="14.49574,9.095697 14.4961,9.138502 14.01946,9.138502 14.01946,9.055202 14.49574,9.055202" style="fill: white" /><polygon type="contour" points="14.777511,9.095778 14.777509,9.138502 14.634709,9.138502 14.634709,9.055202 14.777511,9.055202" style="fill: white" /><polygon type="contour" points="14.777502,8.472511 14.777382,8.586201 14.777508,8.586201 14.777393,8.664812 14.777393,8.747702 14.777527,8.7477 14.777528,8.7477 14.777465,8.747701 14.777496,8.830655 14.777511,8.866002 14.634709,8.866002 14.634886,8.811408 14.634784,8.747893 14.634784,8.586201 14.634971,8.586201 14.634702,8.472511 14.634747,8.389345 14.777548,8.389345" style="fill: white" /><polygon type="contour" points="13.8299,7.7308 13.82853,7.7308 13.830522,7.845526 13.830928,7.93116 13.7466,7.93116 13.7466,7.451002 13.8299,7.451002" style="fill: white" /><polygon type="contour" points="13.8299,6.989303 13.7466,6.989303 13.7466,6.239803 13.8299,6.239803" style="fill: white" /><polygon type="contour" points="13.8299,7.261802 13.7466,7.261802 13.7466,7.178502 13.8299,7.178502" style="fill: white" /><polygon type="contour" points="13.55704,7.451002 13.55704,7.508172 13.557401,7.568601 13.557401,7.7308 13.556489,7.7308 13.557815,7.845527 13.557726,7.930802 13.499652,7.930802 13.360902,7.930799 13.360902,7.930801 13.163909,7.930801 13.080743,7.93116 13.080741,7.87217 13.081551,7.7308 13.081099,7.7308 13.081099,7.533991 13.08146,7.451002 13.138631,7.451002 13.198699,7.451001 13.474409,7.451001" style="fill: white" /><polygon type="contour" points="13.55704,7.218998 13.557759,7.261802 13.08146,7.261802 13.08146,7.221305 13.080741,7.178502 13.55704,7.178502" style="fill: white" /><polygon type="contour" points="12.8919,6.989303 12.85273,6.988974 12.808601,6.988974 12.808601,6.988434 12.654545,6.989303 12.597553,6.989303 12.597381,6.905158 12.597295,6.871001 12.598139,6.871002 12.598139,6.792947 12.597777,6.751534 12.597932,6.735059 12.595089,6.536613 12.418752,6.534175 12.395976,6.533768 12.379811,6.533924 12.338749,6.533562 12.2607,6.533703 12.260701,6.534408 12.226544,6.534322 12.142399,6.534149 12.142728,6.473293 12.142728,6.418779 12.143575,6.418779 12.142399,6.285939 12.142399,6.239803 12.8919,6.239803" style="fill: white" /><polygon type="contour" points="12.8919,7.261802 12.597028,7.261802 12.597028,7.221225 12.597387,7.178502 12.8919,7.178502" style="fill: white" /><polygon type="contour" points="12.849176,7.451002 12.8919,7.451002 12.8919,7.7308 12.890986,7.7308 12.892315,7.845527 12.892586,7.93116 12.849302,7.931144 12.8086,7.931144 12.8086,7.93112 12.648213,7.93116 12.595631,7.93116 12.595833,7.884903 12.596443,7.7308 12.596241,7.7308 12.596241,7.605766 12.596606,7.533992 12.59667,7.51311 12.597028,7.451002 12.663236,7.451001 12.8086,7.451001" style="fill: white" /><polygon type="contour" points="12.892586,8.201901 12.595273,8.201901 12.595273,8.161168 12.595631,8.118602 12.892586,8.118602" style="fill: white" /><polygon type="contour" points="12.892315,8.47251 12.89095,8.586201 12.8919,8.586201 12.8919,8.866002 12.849302,8.865644 12.8086,8.865644 12.8086,8.865121 12.64774,8.866002 12.594246,8.866002 12.594163,8.820742 12.594764,8.715218 12.594764,8.595042 12.595508,8.507302 12.595028,8.507302 12.59499,8.47251 12.595273,8.389345 12.662554,8.389361 12.713174,8.389361 12.713174,8.389397 12.850018,8.389345 12.892586,8.389345" style="fill: white" /><polygon type="contour" points="13.277598,8.390165 13.277598,8.389701 13.474591,8.389701 13.557042,8.389702 13.55704,8.446533 13.557401,8.507095 13.557401,8.782516 13.557759,8.866002 13.500473,8.866002 13.360902,8.864867 13.360902,8.865509 13.164089,8.865509 13.080741,8.866002 13.080741,8.808716 13.081564,8.668801 13.081099,8.668801 13.081099,8.507095 13.0811,8.47251 13.080743,8.389345 13.138246,8.389345" style="fill: white" /><polygon type="contour" points="13.557042,8.159251 13.557758,8.201901 13.081459,8.201901 13.081459,8.118602 13.557725,8.118602" style="fill: white" /><polygon type="contour" points="13.830928,8.201901 13.745915,8.201901 13.7466,8.161169 13.7466,8.118602 13.830928,8.118602" style="fill: white" /><polygon type="contour" points="13.830522,8.47251 13.828489,8.586201 13.8299,8.586201 13.8299,8.866002 13.7466,8.866002 13.7466,8.586201 13.747546,8.586201 13.746186,8.47251 13.745915,8.389345 13.830928,8.389345" style="fill: white" /><polygon type="contour" points="14.215602,8.390168 14.215602,8.389701 14.412592,8.389701 14.495401,8.389702 14.495401,8.668801 14.494934,8.668801 14.495606,8.782515 14.4961,8.866002 14.438813,8.866002 14.298902,8.864867 14.298902,8.865509 14.102093,8.865509 14.01946,8.865642 14.0198,8.808239 14.019802,8.668801 14.019801,8.668801 14.019801,8.507301 14.019802,8.472511 14.019443,8.389345 14.076946,8.389345" style="fill: white" /><polygon type="contour" points="14.495759,8.201901 14.019443,8.201901 14.019443,8.118602 14.495759,8.118602" style="fill: white" /><polygon type="contour" points="14.777549,8.161168 14.777459,8.175726 14.777549,8.201901 14.634747,8.201901 14.634747,8.118602 14.777549,8.118602" style="fill: white" /><polygon type="contour" points="14.777511,7.261802 14.634709,7.261802 14.634709,7.178502 14.777511,7.178502" style="fill: white" /><polygon type="contour" points="14.777478,7.533992 14.777466,7.568601 14.777202,7.568601 14.777826,7.729517 14.777826,7.7308 14.72711,7.7308 14.727886,7.886384 14.777512,7.863803 14.777529,7.89515 14.777549,7.93116 14.634747,7.93116 14.634702,7.845526 14.634964,7.7308 14.634784,7.7308 14.634784,7.647501 14.635023,7.647501 14.634679,7.533991 14.634709,7.451002 14.777511,7.451002" style="fill: white" /><polygon type="contour" points="14.49574,7.451002 14.495401,7.502319 14.495401,7.845526 14.495759,7.93116 14.438254,7.93116 14.298902,7.930332 14.298902,7.930801 14.102119,7.930801 14.019801,7.930802 14.019799,7.872041 14.019802,7.7308 14.019801,7.7308 14.019801,7.647501 14.02027,7.647501 14.019595,7.533991 14.01946,7.451002 14.07663,7.451002 14.136701,7.451001 14.412615,7.451001" style="fill: white" /><polygon type="contour" points="14.4961,7.219078 14.49574,7.261802 14.01946,7.261802 14.01946,7.221306 14.0191,7.178502 14.4961,7.178502" style="fill: white" /><polygon type="contour" points="14.495742,6.2824 14.495742,6.418528 14.495401,6.595301 14.495398,6.648606 14.495754,6.751535 14.496099,6.792946 14.496098,6.793503 14.494943,6.793497 14.495601,6.905157 14.495713,6.989303 14.019488,6.989303 14.0198,6.936632 14.019802,6.793503 14.019101,6.793503 14.019101,6.793282 14.019099,6.792946 14.019445,6.751535 14.019306,6.653888 14.019896,6.372798 14.0191,6.282524 14.0191,6.239803 14.4961,6.239803" style="fill: white" /><polygon type="contour" points="14.777474,6.282401 14.777474,6.305656 14.77748,6.418529 14.870507,6.418529 14.915894,6.418398 14.949743,6.418433 14.967975,6.418427 14.967996,6.427258 14.967996,6.751606 14.951877,6.751635 14.949743,6.751632 14.913724,6.751567 14.833348,6.751601 14.777825,6.751535 14.777977,6.793502 14.777663,6.793502 14.777644,6.905157 14.777634,6.989303 14.634831,6.989303 14.634997,6.93949 14.634951,6.871191 14.635178,6.871191 14.635178,6.7933 14.635176,6.792947 14.634867,6.751534 14.634797,6.654042 14.634625,6.328245 14.635051,6.282524 14.635051,6.239803 14.777852,6.239803" style="fill: white" /><polygon type="contour" points="14.777493,5.618862 14.777435,5.770801 14.777508,5.770801 14.777508,5.854101 14.776966,5.854101 14.777685,5.96761 14.777852,6.050961 14.635051,6.050961 14.634886,5.996384 14.634784,5.933 14.634784,5.770801 14.635021,5.770801 14.63468,5.657293 14.63471,5.573943 14.777511,5.573943" style="fill: white" /><polygon type="contour" points="14.777511,5.342379 14.777511,5.385102 14.63471,5.385102 14.634861,5.344601 14.634861,5.301801 14.777662,5.301801" style="fill: white" /><polygon type="contour" points="14.495759,5.342378 14.49576,5.385102 14.01946,5.385102 14.0198,5.344682 14.0198,5.301801 14.49576,5.301801" style="fill: white" /><polygon type="contour" points="14.215601,5.574771 14.215601,5.574302 14.412409,5.574302 14.4954,5.574662 14.495401,5.657293 14.495401,5.791996 14.495403,5.854101 14.494935,5.854101 14.495608,5.967611 14.49574,6.050243 14.438569,6.050243 14.378006,6.050603 14.10209,6.050603 14.0191,6.050961 14.019738,5.943588 14.020269,5.854101 14.019801,5.854101 14.019801,5.770801 14.02027,5.770801 14.019595,5.657293 14.0191,5.573943 14.076385,5.573943" style="fill: white" /><polygon type="contour" points="13.8299,5.385102 13.7466,5.385102 13.7466,5.301801 13.8299,5.301801" style="fill: white" /><polygon type="contour" points="13.8299,5.574662 13.8299,6.050961 13.789323,6.050961 13.7466,6.050243 13.7466,5.573943 13.787177,5.573943" style="fill: white" /><polygon type="contour" points="13.557759,5.631229 13.556935,5.770801 13.557401,5.770801 13.557401,5.96761 13.557759,6.050961 13.47441,6.050603 13.16409,6.050603 13.08146,6.050243 13.08146,5.993412 13.081099,5.933206 13.081099,5.657293 13.08146,5.574662 13.13863,5.574662 13.198699,5.574302 13.474409,5.574302 13.557759,5.573943" style="fill: white" /><polygon type="contour" points="13.557759,5.385102 13.081461,5.385102 13.081461,5.344604 13.080741,5.301801 13.557759,5.301801" style="fill: white" /><polygon type="contour" points="12.8919,5.385102 12.142399,5.385102 12.142399,5.301801 12.8919,5.301801" style="fill: white" /><polygon type="contour" points="12.477319,5.574507 12.808601,5.5747 12.808601,5.574645 12.849095,5.574662 12.8919,5.574662 12.8919,6.05096 12.849301,6.050943 12.712986,6.048653 12.712982,6.050259 12.477319,6.050397 12.379812,6.050601 12.338749,6.050603 12.338199,6.050603 12.338199,6.050602 12.142399,6.050602 12.142399,5.574302 12.338749,5.574302 12.379812,5.574301" style="fill: white" /><polygon type="contour" points="11.9532,5.385102 11.869901,5.385102 11.869901,5.301801 11.9532,5.301801" style="fill: white" /><polygon type="contour" points="11.6807,5.385102 11.400899,5.385102 11.400899,5.38419 11.286174,5.385516 11.200542,5.385787 11.200542,5.301801 11.6807,5.301801" style="fill: white" /><polygon type="contour" points="11.6807,5.112602 11.623522,5.11226 11.4842,5.111433 11.4842,5.111902 11.400899,5.111902 11.400899,5.110534 11.286173,5.112523 11.2009,5.112926 11.2009,5.054512 11.200902,4.916102 11.200901,4.916102 11.200901,4.719111 11.2009,4.636301 11.253744,4.636301 11.400899,4.636303 11.400899,4.636302 11.4842,4.636302 11.4842,4.636771 11.547511,4.636394 11.6807,4.635602" style="fill: white" /><polygon type="contour" points="11.9532,5.112242 11.912704,5.112242 11.869901,5.112602 11.869901,4.635961 11.9532,4.635961" style="fill: white" /><polygon type="contour" points="11.9532,4.496824 11.909735,4.496825 11.869901,4.496825 11.869901,4.354192 11.9532,4.354192" style="fill: white" /><polygon type="contour" points="11.4842,4.371723 11.5631,4.354049 11.5631,4.354235 11.645771,4.354204 11.680699,4.354192 11.680701,4.428534 11.680701,4.496824 11.619339,4.496824 11.5631,4.496917 11.282775,4.496917 11.200564,4.496824 11.200542,4.427126 11.200542,4.354153 11.286173,4.354199 11.400899,4.354314 11.400899,4.354194 11.475282,4.354194 11.479937,4.353864 11.4842,4.353864" style="fill: white" /><polygon type="contour" points="10.985737,4.354243 10.99271,4.354153 11.013101,4.354153 11.013101,4.496824 10.929801,4.496824 10.929801,4.354153 10.951978,4.354153 10.959562,4.354243 10.96489,4.354 10.980838,4.354" style="fill: white" /><polygon type="contour" points="10.742359,4.693448 10.741531,4.832801 10.742,4.832801 10.742,5.029584 10.742001,5.111902 10.462899,5.111902 10.462899,5.111435 10.349185,5.112108 10.266061,5.112242 10.266061,5.05507 10.266368,4.916102 10.266194,4.916102 10.266194,4.719087 10.266061,4.635961 10.317718,4.636301 10.462899,4.636303 10.462899,4.636302 10.659189,4.636302 10.742359,4.635944" style="fill: white" /><polygon type="contour" points="10.471741,4.354194 10.545499,4.354194 10.545499,4.354316 10.65919,4.354199 10.742359,4.354153 10.742701,4.428534 10.742701,4.496824 10.662715,4.496917 10.345683,4.496917 10.265701,4.496824 10.265701,4.354192 10.284199,4.354198 10.284199,4.404076 10.433199,4.404076 10.433199,4.400369 10.462899,4.400369 10.462899,4.353715 10.466888,4.353642" style="fill: white" /><polygon type="contour" points="10.076501,4.496824 9.993201,4.496824 9.993201,4.354192 10.035923,4.354192 10.05023,4.354096 10.076501,4.354096" style="fill: white" /><polygon type="contour" points="9.533115,4.354194 9.607499,4.354194 9.607499,4.354262 9.721007,4.354223 9.804359,4.354192 9.804335,4.428534 9.804335,4.496824 9.724489,4.496917 9.407208,4.496917 9.327365,4.496824 9.327341,4.42743 9.327341,4.354191 9.362628,4.354204 9.4453,4.354235 9.4453,4.354174 9.524199,4.354174 9.524199,4.353642 9.528222,4.353642" style="fill: white" /><polygon type="contour" points="9.378736,4.635907 9.524199,4.63677 9.524199,4.636302 9.607499,4.636302 9.607499,4.636771 9.721008,4.636096 9.804,4.635961 9.804,4.693132 9.804001,4.753695 9.804001,5.029611 9.804359,5.112602 9.747181,5.11226 9.607499,5.111435 9.607499,5.111902 9.524199,5.111902 9.524199,5.111432 9.410689,5.112108 9.3277,5.112242 9.3277,4.719086 9.327341,4.635602" style="fill: white" /><polygon type="contour" points="9.138499,4.496824 9.0552,4.496824 9.0552,4.354192 9.138499,4.354192" style="fill: white" /><polygon type="contour" points="8.86564,4.693132 8.865333,4.832801 8.865507,4.832801 8.865507,5.02961 8.865999,5.112602 8.808481,5.11226 8.668799,5.111435 8.668799,5.111902 8.3897,5.111902 8.3897,4.636301 8.441018,4.636301 8.5862,4.636303 8.5862,4.636302 8.668799,4.636302 8.668799,4.636768 8.782514,4.636095 8.86564,4.635961" style="fill: white" /><polygon type="contour" points="8.668799,4.354262 8.735016,4.354239 8.747699,4.354173 8.747699,4.354236 8.830654,4.354204 8.865999,4.354192 8.866,4.428534 8.866,4.496824 8.804639,4.496824 8.747925,4.496917 8.468983,4.496917 8.389,4.496824 8.389342,4.427126 8.389342,4.354153 8.472508,4.354199 8.5862,4.354316 8.5862,4.354194 8.659957,4.354194 8.66481,4.353642 8.668799,4.353642" style="fill: white" /><polygon type="contour" points="8.175724,4.354243 8.201899,4.354153 8.201899,4.496824 8.1186,4.496824 8.1186,4.354153 8.161166,4.354153" style="fill: white" /><polygon type="contour" points="7.80913,4.354218 7.895148,4.354172 7.931158,4.354153 7.931134,4.428533 7.931134,4.496824 7.848922,4.496917 7.53051,4.496917 7.451,4.496823 7.451,4.354192 7.533991,4.354223 7.6475,4.354262 7.6475,4.354194 7.730799,4.354194 7.730799,4.355351 7.80912,4.353919" style="fill: white" /><polygon type="contour" points="7.502429,4.635906 7.6475,4.636772 7.6475,4.636302 7.845524,4.636302 7.930801,4.636301 7.930801,4.693691 7.930796,4.832801 7.930799,4.832801 7.930799,5.029584 7.931158,5.112259 7.872282,5.112261 7.730799,5.111449 7.730799,5.111902 7.6475,5.111902 7.6475,5.111432 7.533991,5.112108 7.51311,5.112602 7.451,5.112602 7.451,4.635602" style="fill: white" /><polygon type="contour" points="7.2618,4.496825 7.218335,4.496824 7.1785,4.496824 7.1785,4.354192 7.2618,4.354192" style="fill: white" /><polygon type="contour" points="6.793502,4.635604 6.793496,4.636757 6.905156,4.636099 6.989301,4.635988 6.989301,5.112213 6.93663,5.111901 6.793502,5.111903 6.793502,5.112599 6.793281,5.112599 6.792946,5.112601 6.751531,5.112258 6.653885,5.112396 6.3231,5.111701 6.3231,5.112245 6.282523,5.112602 6.2398,5.112242 6.2398,4.635961 6.282316,4.636301 6.3231,4.635959 6.3231,4.636502 6.653885,4.635806 6.751531,4.635945 6.792946,4.635602" style="fill: white" /><polygon type="contour" points="6.751633,4.179825 6.751631,4.181957 6.751565,4.217977 6.7516,4.298353 6.751532,4.353949 6.793501,4.353723 6.793501,4.354037 6.905156,4.354057 6.989301,4.354069 6.989301,4.496723 6.932781,4.496723 6.871223,4.496761 6.871223,4.496524 6.793247,4.496524 6.792945,4.496526 6.751531,4.496835 6.65404,4.496903 6.324925,4.496792 6.324925,4.496824 6.2398,4.496824 6.2398,4.353851 6.282398,4.354228 6.418526,4.354228 6.418526,4.261194 6.418396,4.215806 6.418431,4.181958 6.418425,4.163727 6.427256,4.163707 6.751602,4.163707" style="fill: white" /><polygon type="contour" points="6.050935,4.428533 6.050935,4.496825 5.989573,4.496824 5.932998,4.496917 5.653808,4.496917 5.574636,4.497011 5.57466,4.427769 5.573941,4.354192 5.618859,4.354207 5.770798,4.354264 5.770798,4.354194 5.854098,4.354194 5.854098,4.354731 5.967607,4.354017 6.050959,4.353851" style="fill: white" /><polygon type="contour" points="5.657289,4.636302 5.854098,4.636302 5.854098,4.636771 5.967608,4.636096 6.05024,4.635961 6.050601,4.719086 6.050601,5.029611 6.050959,5.112602 5.993782,5.11226 5.854098,5.111435 5.854098,5.111902 5.770798,5.111902 5.770798,5.111432 5.657289,5.112108 5.634613,5.112602 5.573941,5.112602 5.573941,5.055316 5.574767,4.916102 5.574299,4.916102 5.574299,4.719292 5.573941,4.635942" style="fill: white" /><polygon type="contour" points="5.3851,4.354192 5.3851,4.496824 5.301799,4.496824 5.301799,4.399358 5.301798,4.354041 5.344599,4.354041" style="fill: white" /><polygon type="contour" points="4.832799,4.636303 4.832799,4.636302 5.029312,4.636302 5.111898,4.636301 5.1119,4.719383 5.1119,4.994797 5.111899,5.029315 5.112259,5.112261 5.055081,5.112261 4.9161,5.111433 4.9161,5.111902 4.719381,5.111902 4.63594,5.112261 4.635905,5.061172 4.636768,4.916102 4.636299,4.916102 4.636299,4.636301 4.687617,4.636301" style="fill: white" /><polygon type="contour" points="4.496854,4.237602 4.496813,4.252003 4.496813,4.430525 4.496822,4.496824 4.262968,4.496824 4.208828,4.496939 4.181955,4.496933 4.163726,4.496928 4.163962,4.257263 4.163932,4.244043 4.163932,4.163934 4.324041,4.163767 4.367273,4.163767 4.496854,4.163656" style="fill: white" /><polygon type="contour" points="4.680858,4.354208 4.832799,4.354264 4.832799,4.354194 4.9161,4.354194 4.9161,4.35447 5.029313,4.354132 5.112259,4.354041 5.112599,4.428533 5.112599,4.496824 5.051238,4.496824 4.994999,4.496917 4.71581,4.496917 4.6363,4.497011 4.636299,4.4347 4.635905,4.353995" style="fill: white" /><polygon type="contour" points="4.420302,4.635926 4.496813,4.635926 4.496813,4.690518 4.496916,4.753901 4.496916,4.916102 4.496883,4.916102 4.49693,5.029314 4.496839,5.112261 4.354038,5.112261 4.354206,5.067342 4.354264,4.916102 4.354192,4.916102 4.354192,4.777611 4.354287,4.723979 4.354299,4.635907" style="fill: white" /><polygon type="contour" points="4.49699,5.342379 4.496991,5.362842 4.496991,5.385102 4.35419,5.385102 4.35419,5.342379 4.354038,5.301801 4.496839,5.301801" style="fill: white" /><polygon type="contour" points="4.470065,5.573944 4.47509,5.573943 4.496991,5.573943 4.496813,5.628519 4.496916,5.691901 4.496916,5.933001 4.496815,5.967609 4.49665,6.050961 4.353849,6.050961 4.354206,6.006041 4.354264,5.854101 4.354192,5.854101 4.354192,5.770801 4.354263,5.770801 4.354221,5.657293 4.35419,5.573943 4.423751,5.573943" style="fill: white" /><polygon type="contour" points="4.832799,5.574769 4.832799,5.574302 5.029609,5.574302 5.1126,5.573943 5.112258,5.63112 5.111433,5.770801 5.1119,5.770801 5.1119,5.854101 5.111432,5.854101 5.112105,5.967609 5.1126,5.990289 5.112599,6.002853 5.1126,6.005007 5.1126,6.050961 5.055314,6.050961 4.9161,6.050134 4.9161,6.050603 4.719084,6.050603 4.635599,6.050961 4.635904,5.999565 4.636766,5.854101 4.636299,5.854101 4.636299,5.691901 4.6363,5.657293 4.63594,5.573943 4.692884,5.573943" style="fill: white" /><polygon type="contour" points="5.1126,5.342379 5.1126,5.385102 4.63594,5.385102 4.63594,5.344601 4.636299,5.301801 5.112258,5.301801" style="fill: white" /><polygon type="contour" points="5.3851,5.112602 5.344597,5.112261 5.301798,5.112261 5.301799,5.055084 5.301799,4.635942 5.3851,4.635942" style="fill: white" /><polygon type="contour" points="5.3851,5.385102 5.301798,5.385102 5.301798,5.301801 5.3851,5.301801" style="fill: white" /><polygon type="contour" points="5.3851,6.050961 5.301799,6.050961 5.301799,5.573943 5.3851,5.573943" style="fill: white" /><polygon type="contour" points="5.112243,6.2824 5.112243,6.323102 5.112098,6.323102 5.1126,6.654042 5.112255,6.751534 5.112599,6.792946 5.112597,6.793502 5.111441,6.793497 5.112102,6.905158 5.112211,6.989303 4.635987,6.989303 4.636299,6.942303 4.636299,6.793503 4.635602,6.793503 4.635602,6.793321 4.635601,6.792946 4.635943,6.751534 4.635598,6.654043 4.635957,6.418529 4.636798,6.418529 4.635599,6.282524 4.635599,6.239803 5.1126,6.239803" style="fill: white" /><polygon type="contour" points="4.497027,6.2824 4.497027,6.418529 4.496905,6.595301 4.49688,6.648607 4.496833,6.751534 4.496525,6.792946 4.496102,6.871191 4.496749,6.871191 4.496856,6.905158 4.496868,6.989303 4.354067,6.989303 4.354059,6.94855 4.354039,6.793502 4.353721,6.793502 4.353721,6.751535 4.298351,6.751601 4.217975,6.751567 4.212178,6.751588 4.181955,6.751633 4.163705,6.751606 4.163705,6.427258 4.163726,6.418428 4.177582,6.418477 4.181955,6.418434 4.261193,6.418529 4.355112,6.418529 4.353849,6.282524 4.353849,6.239803 4.49665,6.239803" style="fill: white" /><polygon type="contour" points="4.496991,7.261801 4.427428,7.261801 4.369628,7.261802 4.35419,7.261802 4.35419,7.178502 4.496991,7.178502" style="fill: white" /><polygon type="contour" points="4.496812,7.505594 4.496916,7.568601 4.496916,7.7308 4.496737,7.7308 4.496997,7.845526 4.496952,7.93116 4.354151,7.93116 4.354206,7.884902 4.354263,7.7308 4.354192,7.7308 4.354192,7.662685 4.353566,7.656417 4.353862,7.656357 4.353862,7.647501 4.453847,7.647501 4.453847,7.468801 4.354196,7.468801 4.35419,7.451002 4.496991,7.451002" style="fill: white" /><polygon type="contour" points="4.496952,8.159333 4.49695,8.201901 4.354151,8.201901 4.353997,8.185955 4.354241,8.175727 4.354151,8.161168 4.354151,8.118602 4.496952,8.118602" style="fill: white" /><polygon type="contour" points="4.496997,8.47251 4.49673,8.586201 4.496916,8.586201 4.496916,8.668801 4.496676,8.668801 4.497021,8.782515 4.496991,8.866002 4.35419,8.866002 4.354206,8.820742 4.354214,8.7976 4.403827,8.79762 4.404071,8.747894 4.45344,8.747894 4.45344,8.569001 4.354312,8.569001 4.354746,8.507302 4.354234,8.507302 4.354197,8.47251 4.354151,8.389345 4.496952,8.389345" style="fill: white" /><polygon type="contour" points="4.832799,8.390165 4.832799,8.389701 5.029583,8.389701 5.112257,8.389345 5.112258,8.44652 5.111433,8.586201 5.1119,8.586201 5.1119,8.668801 5.111435,8.668801 5.112104,8.782515 5.1126,8.866002 5.055313,8.866002 4.9161,8.864864 4.9161,8.865509 4.719084,8.865509 4.635599,8.866002 4.635905,8.814265 4.636766,8.668801 4.636299,8.668801 4.636299,8.47251 4.635941,8.389345 4.693445,8.389345" style="fill: white" /><polygon type="contour" points="5.112257,8.159334 5.112257,8.201901 4.635941,8.201901 4.635941,8.118602 5.113284,8.118602" style="fill: white" /><polygon type="contour" points="5.3851,8.166844 5.385099,8.201901 5.300771,8.201901 5.301797,8.161168 5.301799,8.118602 5.3851,8.118602" style="fill: white" /><polygon type="contour" points="5.3851,7.93116 5.301799,7.93116 5.301799,7.647501 5.301801,7.647501 5.301798,7.533991 5.301798,7.451002 5.3851,7.451002" style="fill: white" /><polygon type="contour" points="5.112599,7.451002 5.112258,7.508179 5.111431,7.647501 5.1119,7.647501 5.1119,7.7308 5.110532,7.7308 5.112521,7.845526 5.113284,7.93116 5.054752,7.93116 4.9161,7.930329 4.9161,7.930801 4.719108,7.930801 4.635941,7.93116 4.635905,7.878234 4.636752,7.7308 4.636299,7.7308 4.636299,7.647501 4.636766,7.647501 4.636093,7.533991 4.635599,7.451002 4.832799,7.451002 4.832799,7.451001 5.029607,7.451001" style="fill: white" /><polygon type="contour" points="5.112599,7.219078 5.112599,7.261802 4.635599,7.261802 4.635599,7.178502 5.1126,7.178502" style="fill: white" /><polygon type="contour" points="5.3851,6.989303 5.301799,6.989303 5.301799,6.239803 5.3851,6.239803" style="fill: white" /><polygon type="contour" points="5.3851,7.261802 5.344522,7.261802 5.301798,7.261801 5.301798,7.221224 5.301799,7.178502 5.3851,7.178502" style="fill: white" /><polygon type="contour" points="6.050959,7.451002 6.050959,7.508287 6.050132,7.647501 6.050601,7.647501 6.050601,7.7308 6.049689,7.7308 6.051015,7.845527 6.051642,7.93116 5.993452,7.93116 5.854098,7.930332 5.854098,7.930801 5.656693,7.930801 5.573258,7.93116 5.573941,7.87217 5.574751,7.7308 5.574299,7.7308 5.574299,7.533991 5.573941,7.451002 5.631226,7.451002 5.691898,7.451001 5.967607,7.451001" style="fill: white" /><polygon type="contour" points="6.050959,7.261802 5.573941,7.261802 5.573941,7.178502 6.050959,7.178502" style="fill: white" /><polygon type="contour" points="6.534672,7.221225 6.534672,7.261802 6.276418,7.261802 6.274623,7.261801 6.267444,7.261801 6.2398,7.261802 6.2398,7.178502 6.534313,7.178502" style="fill: white" /><polygon type="contour" points="6.482254,7.451002 6.534672,7.451002 6.5349,7.495992 6.53546,7.605689 6.53546,7.7308 6.535257,7.7308 6.535868,7.884903 6.53607,7.93116 6.468804,7.931144 6.418525,7.931144 6.418525,7.931106 6.282368,7.93116 6.2398,7.93116 6.2398,7.451002 6.282398,7.451001 6.418525,7.451001" style="fill: white" /><polygon type="contour" points="6.5363,8.434263 6.536861,8.54441 6.536861,8.659959 6.537136,8.692414 6.537113,8.782515 6.537452,8.866002 6.469488,8.865644 6.418526,8.865644 6.418526,8.864802 6.282523,8.866002 6.2398,8.866002 6.2398,8.389345 6.282397,8.389361 6.3231,8.389361 6.3231,8.389384 6.483486,8.389345 6.536428,8.389345" style="fill: white" /><polygon type="contour" points="6.53607,8.159334 6.536428,8.201901 6.2398,8.201901 6.2398,8.118602 6.53607,8.118602" style="fill: white" /><polygon type="contour" points="6.051642,8.159334 6.050925,8.201901 5.573257,8.201901 5.573258,8.161169 5.573258,8.118602 6.051642,8.118602" style="fill: white" /><polygon type="contour" points="5.770798,8.390165 5.770798,8.389701 5.968204,8.389701 6.051642,8.389345 6.050959,8.446287 6.050135,8.586201 6.050601,8.586201 6.050601,8.782516 6.050959,8.805687 6.05024,8.865642 5.993067,8.865642 5.854098,8.865334 5.854098,8.865509 5.657289,8.865509 5.573941,8.866002 5.573941,8.808716 5.574764,8.668801 5.574299,8.668801 5.574299,8.586201 5.575245,8.586201 5.573884,8.47251 5.573257,8.389345 5.631445,8.389345" style="fill: white" /><polygon type="contour" points="5.3851,8.866002 5.301799,8.866002 5.301799,8.586201 5.303209,8.586201 5.301177,8.47251 5.300772,8.389345 5.3851,8.389345" style="fill: white" /><polygon type="contour" points="5.3851,9.138502 5.301799,9.138502 5.301799,9.055202 5.3851,9.055202" style="fill: white" /><polygon type="contour" points="5.1126,9.138502 4.635599,9.138502 4.635599,9.055202 5.1126,9.055202" style="fill: white" /><polygon type="contour" points="4.832799,9.328169 4.832799,9.327702 5.029609,9.327702 5.1126,9.327343 5.112258,9.384519 5.111433,9.524201 5.1119,9.524201 5.1119,9.607501 5.111432,9.607501 5.112105,9.72101 5.1126,9.804361 5.055313,9.804361 4.9161,9.803532 4.9161,9.804002 4.719083,9.804002 4.635599,9.804361 4.635905,9.752965 4.636766,9.607501 4.636299,9.607501 4.636299,9.524201 4.636766,9.524201 4.636093,9.410691 4.635599,9.327343 4.692884,9.327343" style="fill: white" /><polygon type="contour" points="5.3851,10.545501 5.384153,10.545501 5.385514,10.659192 5.385785,10.74236 5.300772,10.74236 5.301177,10.659191 5.303209,10.545501 5.301799,10.545501 5.301799,10.265702 5.3851,10.265702" style="fill: white" /><polygon type="contour" points="6.050959,10.076502 5.573941,10.076502 5.573941,9.993202 6.050959,9.993202" style="fill: white" /><polygon type="contour" points="6.050959,10.322987 6.050135,10.462901 6.050601,10.462901 6.050601,10.624607 6.0506,10.659191 6.050957,10.74236 5.993453,10.74236 5.854098,10.741537 5.854098,10.742003 5.657108,10.742003 5.574659,10.742002 5.57466,10.685171 5.574299,10.624606 5.574299,10.349186 5.57466,10.266062 5.63183,10.266062 5.770798,10.266372 5.770798,10.266196 5.967608,10.266196 6.050959,10.265702" style="fill: white" /><polygon type="contour" points="6.537383,10.322465 6.536666,10.462901 6.536936,10.462901 6.536936,10.536659 6.536615,10.574391 6.536711,10.659192 6.536428,10.74236 6.469146,10.742344 6.418526,10.742344 6.418526,10.742307 6.281681,10.74236 6.239114,10.74236 6.239385,10.659191 6.240749,10.545501 6.2398,10.545501 6.2398,10.265702 6.282397,10.26606 6.3231,10.26606 6.3231,10.266582 6.483958,10.265702 6.537452,10.265702" style="fill: white" /><polygon type="contour" points="6.537812,10.033778 6.537452,10.076502 6.2398,10.076502 6.2398,9.993202 6.537812,9.993202" style="fill: white" /><polygon type="contour" points="6.538067,9.383556 6.538428,9.500473 6.538447,9.547071 6.538608,9.566201 6.538867,9.602315 6.531911,9.686401 6.538222,9.686401 6.538101,9.721009 6.537812,9.804361 6.46983,9.804344 6.418526,9.804344 6.418526,9.804304 6.282523,9.804361 6.2398,9.804361 6.2398,9.327343 6.282398,9.32736 6.3231,9.32736 6.3231,9.327384 6.483959,9.327343 6.537812,9.327343" style="fill: white" /><polygon type="contour" points="6.537452,9.095778 6.537812,9.138502 6.2398,9.138502 6.2398,9.055202 6.537452,9.055202" style="fill: white" /><polygon type="contour" points="6.050959,9.138502 5.573941,9.138502 5.573941,9.055202 6.050959,9.055202" style="fill: white" /><polygon type="contour" points="5.770798,9.328168 5.770798,9.327702 5.967607,9.327702 6.050959,9.327343 6.050959,9.384629 6.050135,9.524201 6.050601,9.524201 6.050601,9.72101 6.050959,9.804361 5.993673,9.804361 5.854098,9.803535 5.854098,9.804002 5.65729,9.804002 5.573941,9.804361 5.573941,9.747076 5.574764,9.607501 5.574299,9.607501 5.574299,9.410691 5.573941,9.327343 5.631227,9.327343" style="fill: white" /><polygon type="contour" points="5.3851,9.804361 5.301799,9.804361 5.301799,9.327343 5.3851,9.327343" style="fill: white" /><polygon type="contour" points="5.3851,10.076502 5.301799,10.076502 5.301799,9.993202 5.3851,9.993202" style="fill: white" /><polygon type="contour" points="5.1126,10.033778 5.11224,10.076502 4.635599,10.076502 4.635599,9.993202 5.1126,9.993202" style="fill: white" /><polygon type="contour" points="4.832799,10.266838 4.832799,10.266196 5.029609,10.266196 5.1126,10.265702 5.112258,10.323219 5.111433,10.462901 5.1119,10.462901 5.1119,10.624401 5.111899,10.659191 5.112257,10.74236 5.054752,10.74236 4.9161,10.741534 4.9161,10.742003 4.719107,10.742003 4.635941,10.74236 4.635905,10.690965 4.636766,10.545501 4.636299,10.545501 4.636299,10.462901 4.636763,10.462901 4.636094,10.349186 4.635599,10.265702 4.692884,10.265702" style="fill: white" /><polygon type="contour" points="4.496991,10.076502 4.35419,10.076502 4.35419,9.993202 4.496991,9.993202" style="fill: white" /><polygon type="contour" points="4.496813,10.320292 4.496916,10.383808 4.496916,10.545501 4.49673,10.545501 4.496997,10.659191 4.496952,10.74236 4.354151,10.74236 4.354206,10.697442 4.354262,10.545501 4.354192,10.545501 4.354192,10.477925 4.353566,10.471742 4.35364,10.471727 4.35364,10.462901 4.354263,10.462901 4.35422,10.349185 4.354202,10.300631 4.35419,10.265702 4.496991,10.265702" style="fill: white" /><polygon type="contour" points="4.496952,11.013103 4.354151,11.013103 4.354151,10.970534 4.354241,10.955977 4.354151,10.929803 4.496952,10.929803" style="fill: white" /><polygon type="contour" points="4.496997,11.286176 4.496737,11.400901 4.496916,11.400901 4.496916,11.484203 4.496676,11.484203 4.497021,11.597711 4.496991,11.680702 4.35419,11.680702 4.35422,11.597712 4.354263,11.484203 4.354191,11.484203 4.354192,11.475285 4.353913,11.400901 4.403818,11.400901 4.403816,11.300938 4.354212,11.300551 4.354197,11.286175 4.35417,11.236554 4.354151,11.200545 4.496952,11.200545" style="fill: white" /><polygon type="contour" points="4.832799,11.20137 4.832799,11.200903 5.029582,11.200903 5.112257,11.200545 5.112259,11.259421 5.111447,11.400901 5.1119,11.400901 5.1119,11.484203 5.111432,11.484203 5.112104,11.597711 5.1126,11.680702 5.055313,11.680702 4.994999,11.680703 4.719084,11.680703 4.635599,11.680701 4.635904,11.629271 4.636768,11.484203 4.636299,11.484203 4.636299,11.286176 4.635941,11.200545 4.693445,11.200545" style="fill: white" /><polygon type="contour" points="5.112257,11.013103 4.635941,11.013103 4.635941,10.929803 5.112257,10.929803" style="fill: white" /><polygon type="contour" points="5.3851,10.970534 5.3851,11.013103 5.300772,11.013103 5.300772,10.929803 5.385785,10.929803" style="fill: white" /><polygon type="contour" points="5.770798,11.20137 5.770798,11.200903 5.968204,11.200903 6.051642,11.200545 6.050959,11.259532 6.050148,11.400901 6.050601,11.400901 6.050601,11.597712 6.050959,11.680702 5.993672,11.680702 5.932997,11.680703 5.65729,11.680703 5.573941,11.680702 5.573941,11.623415 5.574767,11.484203 5.574299,11.484203 5.574299,11.400901 5.57521,11.400901 5.573885,11.286176 5.573258,11.200545 5.631445,11.200545" style="fill: white" /><polygon type="contour" points="6.051642,10.970534 6.051642,11.013103 5.573257,11.013103 5.573942,10.972371 5.574659,10.929803 6.050957,10.929803" style="fill: white" /><polygon type="contour" points="6.536428,10.970534 6.53607,11.013103 6.239799,11.013103 6.239115,10.972371 6.239115,10.929803 6.536428,10.929803" style="fill: white" /><polygon type="contour" points="6.535695,11.259308 6.535245,11.400901 6.53546,11.400901 6.53546,11.525937 6.535095,11.597711 6.534672,11.680702 6.2398,11.680702 6.2398,11.200545 6.282398,11.20056 6.3231,11.20056 6.3231,11.200582 6.483486,11.200545 6.53607,11.200545" style="fill: white" /><polygon type="contour" points="6.534672,11.910479 6.534313,11.953201 6.2398,11.953201 6.2398,11.869902 6.534672,11.869902" style="fill: white" /><polygon type="contour" points="6.534295,12.161413 6.534416,12.238931 6.534406,12.260702 6.533561,12.260702 6.533561,12.338266 6.53356,12.338753 6.533923,12.379812 6.533767,12.395977 6.534378,12.433713 6.534378,12.434738 6.534582,12.446625 6.53677,12.594931 6.634678,12.596284 6.667947,12.596643 6.671881,12.597001 6.712945,12.597527 6.735057,12.597936 6.751532,12.597779 6.792945,12.59814 6.871,12.59814 6.870999,12.597297 6.905156,12.597383 6.989301,12.597555 6.988972,12.65841 6.988972,12.712924 6.988124,12.712924 6.989301,12.845763 6.989301,12.891901 6.2398,12.891901 6.2398,12.142401 6.278969,12.14273 6.3231,12.14273 6.3231,12.143269 6.477154,12.142401 6.534147,12.142401" style="fill: white" /><polygon type="contour" points="6.050599,12.194867 6.050601,12.326133 6.050601,12.338752 6.050599,12.379812 6.050804,12.477165 6.050942,12.713175 6.050902,12.713175 6.050959,12.849178 6.05024,12.891901 5.57466,12.891901 5.574643,12.849383 5.573958,12.808601 5.573967,12.808601 5.573941,12.550901 5.574095,12.477165 5.574299,12.338753 5.574299,12.142401 6.050599,12.142401" style="fill: white" /><polygon type="contour" points="5.932998,11.869904 5.932998,11.869903 5.967607,11.869903 6.05024,11.869902 6.05024,11.910398 6.050959,11.953201 5.57466,11.953201 5.57466,11.912704 5.573941,11.869902 5.795313,11.869902" style="fill: white" /><polygon type="contour" points="5.3851,11.680702 5.301799,11.680702 5.301799,11.400901 5.303168,11.400901 5.301177,11.286176 5.300772,11.200545 5.3851,11.200545" style="fill: white" /><polygon type="contour" points="5.3851,11.953201 5.301799,11.953201 5.301799,11.869902 5.3851,11.869902" style="fill: white" /><polygon type="contour" points="5.111899,12.195071 5.111901,12.338202 5.112597,12.338202 5.112597,12.33842 5.112599,12.338752 5.112255,12.379813 5.1126,12.477165 5.112243,12.713175 5.111102,12.713175 5.112239,12.849096 5.1126,12.891901 4.635599,12.891901 4.635957,12.849303 4.635957,12.713175 4.636299,12.536403 4.636299,12.483096 4.635943,12.379813 4.635601,12.338752 4.635602,12.338201 4.636757,12.338207 4.636097,12.226546 4.635987,12.142401 5.112211,12.142401" style="fill: white" /><polygon type="contour" points="5.1126,11.953201 4.635599,11.953201 4.635599,11.869902 5.1126,11.869902" style="fill: white" /><polygon type="contour" points="4.496991,11.953201 4.35419,11.953201 4.35419,11.869902 4.496991,11.869902" style="fill: white" /><polygon type="contour" points="4.496701,12.192214 4.496749,12.260513 4.496522,12.260513 4.496522,12.338401 4.496524,12.338752 4.496832,12.379812 4.496901,12.477165 4.497075,12.803415 4.49665,12.849178 4.49665,12.891901 4.353849,12.891901 4.354226,12.849302 4.354226,12.713175 4.261192,12.713175 4.215805,12.713305 4.181955,12.713269 4.163725,12.713276 4.163705,12.704444 4.163705,12.380096 4.179823,12.380066 4.181956,12.380069 4.217975,12.380135 4.295269,12.380107 4.298352,12.379603 4.353872,12.379812 4.353721,12.338203 4.354035,12.338203 4.354055,12.226545 4.354067,12.142401 4.496868,12.142401" style="fill: white" /><polygon type="contour" points="4.496851,13.08146 4.497022,13.135954 4.496782,13.2776 4.496916,13.2776 4.496916,13.360903 4.496676,13.360903 4.497021,13.474411 4.496991,13.55776 4.35419,13.55776 4.354205,13.512842 4.354264,13.360903 4.354192,13.360903 4.354192,13.286517 4.354193,13.2776 4.354733,13.2776 4.354014,13.16409 4.353849,13.080742 4.423411,13.080742" style="fill: white" /><polygon type="contour" points="4.832799,13.081568 4.832799,13.081101 5.029609,13.081101 5.1126,13.080742 5.112258,13.137919 5.111433,13.2776 5.1119,13.2776 5.1119,13.360903 5.111432,13.360903 5.112105,13.474412 5.1126,13.55776 5.055314,13.55776 4.9161,13.556933 4.9161,13.557402 4.719289,13.557402 4.63594,13.55776 4.6363,13.474412 4.636299,13.439803 4.636299,13.2776 4.636766,13.2776 4.636093,13.16409 4.635599,13.080742 4.692884,13.080742" style="fill: white" /><polygon type="contour" points="5.3851,12.891901 5.301799,12.891901 5.301799,12.142401 5.3851,12.142401" style="fill: white" /><polygon type="contour" points="5.65729,13.081101 5.967608,13.081101 6.05024,13.081461 6.05024,13.13829 6.050601,13.198494 6.050601,13.474412 6.050959,13.55776 5.993673,13.55776 5.854098,13.556936 5.854098,13.557402 5.657289,13.557402 5.573941,13.55776 5.573941,13.500474 5.574764,13.360903 5.574299,13.360903 5.574299,13.16409 5.573941,13.080742" style="fill: white" /><polygon type="contour" points="5.3851,13.55776 5.301799,13.55776 5.301799,13.080742 5.3851,13.080742" style="fill: white" /><polygon type="contour" points="5.3851,13.829902 5.301799,13.829902 5.301799,13.746602 5.3851,13.746602" style="fill: white" /><polygon type="contour" points="5.112259,13.787103 5.112259,13.829902 4.63594,13.829902 4.63594,13.746602 5.1126,13.746602" style="fill: white" /><polygon type="contour" points="4.496839,13.787102 4.49684,13.829902 4.354038,13.829902 4.35419,13.789324 4.35419,13.746602 4.49699,13.746602" style="fill: white" /><polygon type="contour" points="4.496813,14.073694 4.496916,14.136702 4.496916,14.410211 4.496812,14.495777 4.434648,14.495796 4.354299,14.495796 4.354205,14.450841 4.354264,14.298903 4.354192,14.298903 4.354192,14.215603 4.354471,14.215603 4.35413,14.102389 4.354038,14.019442 4.49684,14.019442" style="fill: white" /><polygon type="contour" points="4.262968,14.634879 4.496822,14.634879 4.496813,14.701177 4.496813,14.8797 4.496854,14.968048 4.367273,14.967937 4.32404,14.967937 4.163932,14.967769 4.163932,14.887661 4.163962,14.874441 4.163726,14.634775 4.177581,14.634828 4.181956,14.634769" style="fill: white" />
</svg>
