<svg width="19.131698" height="19.131699">
<polygon type="contour" points="15.44078,3.69092 15.44078,3.760688 15.440654,3.816744 15.440861,4.024042 15.345751,4.023679 15.345751,5.945573 15.440861,5.945542 15.44098,5.996146 15.44098,6.27862 15.345614,6.278798 15.345614,12.852939 15.44098,12.85308 15.44098,13.135557 15.440861,13.186162 15.345751,13.185824 15.345751,15.107629 15.440861,15.107661 15.440654,15.31496 15.44078,15.371016 15.44078,15.440783 15.137878,15.4411 15.136081,15.44079 15.107522,15.440724 15.108017,15.345753 13.186125,15.345753 13.18616,15.440863 13.135556,15.440982 12.853079,15.440982 12.852903,15.345616 6.278762,15.345616 6.278619,15.440982 5.996143,15.440983 5.945539,15.440864 5.945877,15.345753 4.02407,15.345753 4.024178,15.440724 3.995618,15.44079 3.993819,15.4411 3.690919,15.440783 3.690919,15.371015 3.691044,15.314961 3.690839,15.107661 3.785949,15.108025 3.785949,13.186127 3.690839,13.186162 3.69072,13.135557 3.69072,12.85308 3.786087,12.852905 3.786087,6.278764 3.69072,6.278621 3.69072,5.996146 3.690839,5.945542 3.785949,5.94588 3.785949,4.024074 3.690839,4.024042 3.691044,3.816743 3.690919,3.760689 3.690919,3.69092 3.99382,3.690604 3.995618,3.690913 4.024178,3.690979 4.023682,3.785951 5.94557,3.785951 5.945539,3.690841 5.996143,3.690722 6.278618,3.690722 6.278796,3.786088 12.852936,3.786088 12.853079,3.690722 13.135556,3.690722 13.186161,3.690841 13.185823,3.785951 15.107628,3.785951 15.107521,3.690979 15.13608,3.690913 15.137877,3.690604" style="fill: white" /><polygon type="hole" points="12.835066,6.128053 12.7633,6.128328 12.750837,6.128212 12.741069,6.128238 12.735542,6.128336 12.721199,6.128175 12.714846,6.128262 12.691367,6.128301 12.66415,6.128294 12.604969,6.128523 12.5847,6.128638 12.561697,6.128959 12.508719,6.128959 12.48897,6.128664 12.467959,6.128797 12.461745,6.128746 12.446262,6.129027 12.443977,6.12928 12.425536,6.129207 12.402162,6.12929 12.379222,6.129269 12.298726,6.129269 12.26925,6.129202 12.126405,6.129736 12.034361,6.130085 12.032917,6.129968 11.99478,6.129968 11.992967,6.129969 11.986567,6.129902 11.973331,6.130039 11.953744,6.129847 11.9041,6.130036 11.850173,6.130036 11.826286,6.130262 11.79172,6.130418 11.780099,6.130379 11.747313,6.130689 11.708213,6.130668 11.672193,6.130419 11.512815,6.130933 11.512819,6.131313 11.512709,6.131262 11.493581,6.131281 11.492918,6.131299 11.492074,6.13087 11.470014,6.131135 11.468537,6.131367 11.462665,6.131368 11.453632,6.131301 11.436398,6.131202 11.417732,6.131246 11.412106,6.131246 11.392972,6.131464 11.341295,6.131464 11.316236,6.131595 11.30814,6.131547 11.286625,6.131389 11.262681,6.131762 11.252357,6.13179 11.243221,6.131467 11.151169,6.131818 11.029031,6.132191 11.028442,6.132569 10.966427,6.132355 10.963779,6.13244 10.955618,6.13223 10.953088,6.132273 10.937775,6.132246 10.917865,6.132636 10.897079,6.132457 10.798169,6.132646 10.793567,6.132646 10.771647,6.132864 10.743555,6.132768 10.734155,6.132723 10.70922,6.13281 10.679432,6.132788 10.654,6.132886 10.635551,6.132947 10.574831,6.133125 10.572241,6.133121 10.523574,6.133535 10.486463,6.133651 10.398218,6.133933 10.074776,6.134547 10.070254,6.134561 10.011653,6.134715 9.938938,6.134715 9.778233,6.135326 9.617527,6.135326 9.597801,6.135408 9.58643,6.136379 9.566199,6.136379 9.534059,6.135408 9.514262,6.135326 9.353556,6.135326 9.295708,6.135173 9.134421,6.13456 8.985035,6.134177 8.922441,6.134177 8.783575,6.133651 8.645235,6.133651 8.608124,6.133535 8.559456,6.13312 8.556868,6.133125 8.496149,6.132947 8.477699,6.132886 8.452267,6.132788 8.422479,6.13281 8.397544,6.132723 8.390531,6.132996 8.361057,6.132864 8.257705,6.132666 8.239221,6.132457 8.234619,6.132457 8.212285,6.132374 8.187838,6.132374 8.166445,6.132246 8.146633,6.132273 8.130707,6.13244 8.126906,6.132355 8.11825,6.132168 8.115254,6.132242 8.110496,6.132395 8.105169,6.132368 8.102902,6.132231 7.979648,6.132 7.855399,6.131652 7.848644,6.131789 7.840553,6.131761 7.822639,6.131595 7.802083,6.131547 7.794904,6.131595 7.757546,6.131595 7.738225,6.131464 7.719593,6.131246 7.711143,6.131167 7.698726,6.131167 7.686937,6.131058 7.682847,6.131058 7.660698,6.131002 7.6377,6.131067 7.622899,6.131102 7.610213,6.131062 7.607473,6.130976 7.459507,6.130419 7.423487,6.130668 7.342688,6.130668 7.317019,6.130461 7.247431,6.130197 7.229902,6.130147 7.223483,6.130196 7.201467,6.130065 7.182045,6.129847 7.159583,6.129847 7.060104,6.129659 7.054483,6.129659 7.027403,6.129836 6.994399,6.129669 6.966467,6.129703 6.939204,6.129662 6.93144,6.129576 6.9136,6.129737 6.907026,6.129638 6.894638,6.129612 6.877918,6.129453 6.866969,6.129575 6.863351,6.129459 6.858616,6.12952 6.851127,6.129446 6.850258,6.129654 6.849566,6.129662 6.848278,6.129681 6.7836,6.129269 6.770898,6.129368 6.752479,6.129269 6.729536,6.12929 6.706163,6.129207 6.687567,6.12928 6.685438,6.129027 6.669954,6.128746 6.66374,6.128797 6.643232,6.128664 6.541063,6.128466 6.525202,6.128769 6.521112,6.128769 6.496399,6.1282 6.467549,6.128293 6.440332,6.128301 6.416853,6.128262 6.410501,6.128176 6.396155,6.128336 6.390629,6.128238 6.380861,6.128212 6.3684,6.128328 6.297061,6.127976 6.29065,6.128003 6.285473,6.127938 6.280749,6.128075 6.279131,6.128016 6.270787,6.128063 6.255899,6.128643 6.130855,6.130856 6.128061,6.270788 6.12808,6.278816 6.128053,6.278851 6.127974,6.297063 6.12799,6.303051 6.12799,6.304852 6.128059,6.310843 6.128026,6.317364 6.128567,6.457095 6.128551,6.459544 6.128648,6.466363 6.128645,6.472983 6.128751,6.478061 6.128597,6.48089 6.128597,6.484314 6.128683,6.486457 6.128494,6.493186 6.128567,6.496126 6.128567,6.575395 6.128566,6.578469 6.128833,6.623268 6.128733,6.624335 6.12884,6.633569 6.129042,6.740408 6.12882,6.749062 6.129334,6.754174 6.129056,6.780313 6.129468,6.821172 6.129206,6.830449 6.12955,6.867876 6.129572,6.913775 6.130083,7.097338 6.129966,7.098791 6.129966,7.136923 6.129967,7.138734 6.129922,7.145339 6.130037,7.15837 6.129845,7.176424 6.129845,7.182047 6.130063,7.202474 6.13042,7.225116 6.130146,7.229905 6.130195,7.247432 6.130459,7.386874 6.130665,7.423488 6.130416,7.45951 6.130931,7.618884 6.131312,7.618882 6.131261,7.618991 6.13128,7.638121 6.131297,7.638779 6.130868,7.639626 6.130787,7.659432 6.131365,7.663165 6.131367,7.669034 6.1313,7.678068 6.131438,7.694615 6.131244,7.715505 6.131244,7.719594 6.131463,7.738729 6.131463,7.772062 6.131593,7.794906 6.131544,7.802086 6.131593,7.822641 6.13176,7.840556 6.131788,7.848646 6.131465,7.855806 6.131815,7.980531 6.13219,8.102672 6.132355,8.102929 6.129988,8.102459 6.132438,8.167532 6.132228,8.176083 6.132271,8.178612 6.13222,8.191687 6.132634,8.213836 6.132836,8.320068 6.13304,8.354126 6.132833,8.364732 6.132833,8.369845 6.133058,8.394195 6.133216,8.42767 6.13295,8.435934 6.133066,8.465869 6.133089,8.503111 6.133233,8.536273 6.133332,8.561214 6.13372,8.765314 6.134175,8.922442 6.134175,8.985036 6.134399,9.041397 6.134505,9.082252 6.134544,9.129962 6.134558,9.134424 6.135172,9.29571 6.135324,9.353557 6.135324,9.514262 6.135406,9.534062 6.136377,9.545627 6.136377,9.566202 6.135406,9.597804 6.135324,9.617529 6.135324,9.778235 6.135172,9.835993 6.134559,9.997279 6.134505,10.049451 6.134399,10.090306 6.134175,10.146667 6.134175,10.20926 6.133648,10.486465 6.133333,10.570488 6.132945,10.635553 6.132884,10.654001 6.132786,10.679433 6.132483,10.838008 6.132524,10.844051 6.132492,10.853889 6.132548,10.858061 6.132664,10.875 6.132455,10.892482 6.132455,10.897083 6.132373,10.919415 6.132244,10.937777 6.13227,10.953091 6.132438,10.96378 6.132438,11.000605 6.132353,11.004796 6.131816,11.151171 6.131465,11.335274 6.131788,11.33884 6.13176,11.342871 6.131386,11.355402 6.131544,11.368644 6.131343,11.372279 6.131462,11.393477 6.131244,11.412109 6.131164,11.420558 6.131164,11.432976 6.131055,11.444765 6.131055,11.450389 6.131,11.471001 6.131067,11.494002 6.1311,11.508802 6.131059,11.521486 6.130974,11.524228 6.130656,11.69247 6.130435,11.714253 6.130676,11.723084 6.130624,11.739049 6.130428,11.760923 6.130636,11.776435 6.130394,11.781494 6.130438,11.788793 6.130361,11.797417 6.130396,11.79891 6.130486,11.802727 6.130347,11.803389 6.130452,11.82228 6.130452,11.892959 6.130275,11.896868 6.130066,11.89916 6.13036,11.905929 6.130425,11.916888 6.130146,11.929278 6.13042,11.93319 6.130063,11.953703 6.129845,11.972117 6.129845,11.976208 6.129657,12.02604 6.129834,12.05098 6.129667,12.075935 6.129701,12.095102 6.12966,12.112001 6.129574,12.116299 6.129199,12.26925 6.129266,12.298729 6.129266,12.379223 6.129288,12.402163 6.128975,12.422953 6.129016,12.430824 6.128859,12.455835 6.129145,12.477008 6.128633,12.482119 6.128599,12.498102 6.12875,12.507403 6.128833,12.508435 6.128566,12.553234 6.128566,12.557502 6.128299,12.666301 6.128299,12.691369 6.12826,12.714846 6.128174,12.721202 6.128334,12.735544 6.128236,12.741072 6.12821,12.750839 6.128026,12.814339 6.128059,12.82086 6.12799,12.826851 6.12799,12.828652 6.128051,12.835068 6.128009,12.840711 6.127936,12.846207 6.128073,12.850952 6.127977,12.853611 6.128061,12.860913 6.128061,12.869755 6.128694,12.875438 6.130583,13.000263 6.207635,13.001746 6.270787,13.003639 6.278815,13.00362 6.278848,13.003644 6.297061,13.003727 6.30354,13.00371 6.304848,13.00371 6.311166,13.003641 6.318025,13.003598 6.319519,13.003689 6.325213,13.003598 6.330446,13.003536 6.358161,13.003644 6.360309,13.003528 6.368399,13.003374 6.380861,13.003491 6.390629,13.003465 6.396156,13.003365 6.4105,13.003527 6.416853,13.003441 6.516935,13.003135 6.578466,13.003135 6.623265,13.002868 6.624299,13.00295 6.633567,13.002862 6.740407,13.002658 6.750082,13.002368 6.75417,13.002368 6.780312,13.002646 6.817371,13.002465 6.830447,13.002494 6.871102,13.002377 6.913773,13.002129 7.097336,13.001619 7.098789,13.001736 7.136919,13.001736 7.138732,13.001735 7.145133,13.001802 7.159297,13.001901 7.176422,13.001857 7.182045,13.001857 7.202474,13.001638 7.225113,13.001282 7.229903,13.001556 7.247431,13.001507 7.386871,13.001242 7.423488,13.001036 7.458499,13.001103 7.618884,13.000804 7.618881,13.000391 7.618989,13.000439 7.638118,13.000419 7.638777,13.000405 7.639624,13.000831 7.661707,13.000566 7.663163,13.000335 7.669034,13.000336 7.679189,13.000381 7.695298,13.000502 7.715503,13.000458 7.719593,13.000458 7.738727,13.00024 7.759423,13.000357 7.763057,13.000157 7.777924,13.000107 7.788829,12.999941 7.792861,12.999913 7.796427,13.000235 7.980529,12.999883 8.102669,12.99951 8.102926,12.999345 8.102457,13.001711 8.167531,12.999262 8.176081,12.999472 8.178611,12.99943 8.193925,12.999456 8.213834,12.999067 8.234106,12.999244 8.239221,12.999244 8.257705,12.999037 8.361058,12.998839 8.388144,12.998933 8.397544,12.998981 8.42248,12.998892 8.452267,12.998916 8.477699,12.998818 8.53627,12.99847 8.561213,12.998369 8.663068,12.998369 8.783575,12.998053 8.922441,12.997527 8.985035,12.997527 9.041393,12.997303 9.08225,12.997197 9.12996,12.997158 9.134422,12.997142 9.295707,12.99653 9.353555,12.996379 9.514262,12.996379 9.53406,12.996296 9.545624,12.995325 9.566198,12.995325 9.597802,12.996296 9.617527,12.996379 9.778232,12.996379 9.835992,12.99653 9.997277,12.997143 10.049449,12.997197 10.090306,12.997303 10.146664,12.997527 10.209259,12.997527 10.486464,12.998053 10.570487,12.998368 10.635551,12.998756 10.654706,12.998633 10.679431,12.998916 10.7065,12.998915 10.734156,12.998981 10.743556,12.998933 10.858059,12.999153 10.875,12.999036 10.892478,12.999244 10.897591,12.999244 10.917865,12.999067 10.937774,12.999456 10.953089,12.99943 10.963779,12.999262 11.000603,12.999262 11.004793,12.999347 11.15205,12.9997 11.335449,13.000052 11.338838,12.999913 11.34287,12.999941 11.353775,13.000108 11.368643,13.000156 11.372276,13.000357 11.392972,13.00024 11.412106,13.000457 11.420556,13.000537 11.432973,13.000537 11.444762,13.000646 11.448853,13.000646 11.472158,13.000467 11.492041,13.000609 11.5088,13.000602 11.521486,13.000641 11.524226,13.000728 11.692469,13.001047 11.71425,13.001266 11.723081,13.001027 11.739048,13.001078 11.760922,13.001274 11.776434,13.001067 11.781493,13.001309 11.788792,13.001265 11.797415,13.001341 11.798908,13.001306 11.802725,13.001216 11.803387,13.001355 11.822279,13.001251 11.892958,13.001251 11.896867,13.001426 11.899158,13.001635 11.905927,13.001342 11.915755,13.001507 11.929277,13.001556 11.93319,13.001282 11.952696,13.001638 11.972114,13.001857 11.976207,13.001857 12.026039,13.002045 12.050978,13.001866 12.073873,13.002008 12.095099,13.002001 12.112001,13.002041 12.116297,13.002127 12.268398,13.002336 12.298726,13.002435 12.379222,13.002435 12.400037,13.002641 12.422951,13.002725 12.428345,13.002457 12.455834,13.002843 12.477007,13.002556 12.481096,13.002556 12.498101,13.003102 12.507365,13.002969 12.508434,13.002869 12.553233,13.003136 12.6223,13.003136 12.691367,13.003402 12.714846,13.003441 12.721198,13.003527 12.735543,13.003366 12.741069,13.003465 12.750837,13.003491 12.814338,13.003674 12.820858,13.003641 12.826849,13.00371 12.82865,13.00371 12.834637,13.003727 12.840709,13.00369 12.846179,13.003764 12.85095,13.003626 12.852568,13.003685 12.860911,13.003639 12.8758,13.003061 13.000845,13.000847 13.003638,12.860913 13.003619,12.852886 13.003645,12.852851 13.003725,12.834639 13.003373,12.763301 13.003489,12.75084 13.003463,12.741072 13.003365,12.735545 13.003526,12.721201 13.003439,12.714847 13.003401,12.691369 13.003406,12.664151 13.003266,12.637209 13.003444,12.611609 13.002932,12.606498 13.003236,12.590638 13.003038,12.488469 13.002679,12.465905 13.002954,12.461747 13.002905,12.444492 13.002706,12.441747 13.002781,12.423121 13.002639,12.400039 13.002434,12.379223 13.002434,12.298729 13.002501,12.26925 13.001965,12.126406 13.001617,12.034362 13.001734,12.032903 13.001734,11.99478 13.001733,11.992968 13.001778,11.986361 13.0019,11.972402 13.001855,11.955279 13.001667,11.8558 13.001667,11.850177 13.001441,11.826289 13.001057,11.78877 13.001324,11.7801 13.001013,11.747315 13.001035,11.708214 13.001284,11.672195 13.000769,11.512816 13.000387,11.51282 13.000438,11.51271 13.000418,11.493583 13.000402,11.492922 13.00083,11.492077 13.000565,11.470016 13.000334,11.468539 13.000333,11.462668 13.0004,11.453635 13.000501,11.436402 13.000456,11.416198 13.000456,11.412109 13.000238,11.392975 13.000238,11.35964 13.000357,11.334498 13.000156,11.329618 13.000107,11.309062 12.99994,11.291147 12.999911,11.283057 13.000051,11.276301 12.9997,11.152053 12.999509,11.029033 12.999134,11.02845 12.999346,10.966429 12.999261,10.96378 12.999471,10.95562 12.999429,10.95309 12.999455,10.937777 12.999326,10.919415 12.999243,10.897593 12.999055,10.798682 12.999055,10.793569 12.998838,10.770644 12.998705,10.74117 12.998979,10.734157 12.998891,10.709222 12.998913,10.679433 12.998632,10.654708 12.998753,10.635553 12.998577,10.574833 12.998579,10.572244 12.998168,10.523576 12.998051,10.486465 12.998051,10.348125 12.997769,10.236805 12.997155,10.074776 12.997141,10.070255 12.996987,10.011654 12.996987,9.93894 12.996376,9.778234 12.996376,9.617529 12.996294,9.597804 12.995323,9.586432 12.995323,9.566201 12.996294,9.534062 12.996378,9.514263 12.996376,9.353557 12.996527,9.29571 12.99714,9.134425 12.997525,8.985036 12.997525,8.922443 12.998051,8.645238 12.998168,8.608127 12.998579,8.559459 12.998577,8.556871 12.998754,8.496151 12.998815,8.477701 12.998914,8.452271 12.998891,8.422482 12.998979,8.397547 12.998705,8.390533 12.998838,8.360056 12.999055,8.338133 12.999055,8.33302 12.999243,8.234109 12.999326,8.212287 12.999455,8.193927 12.999429,8.178612 12.999261,8.167533 12.999346,8.165274 12.999634,8.050853 12.999634,8.004387 12.9997,7.97965 13.000051,7.887951 12.999911,7.879343 12.99994,7.869019 13.000313,7.845075 13.000156,7.82356 13.000107,7.815462 13.000107,7.757547 13.000237,7.73873 13.000456,7.719593 13.000536,7.711145 13.000536,7.698727 13.000645,7.686938 13.000645,7.681314 13.000466,7.659542 13.000608,7.639661 13.0006,7.6229 13.000639,7.610216 13.000725,7.607476 13.001102,7.4585 13.001035,7.423489 13.001013,7.384388 13.001275,7.246053 13.001554,7.229904 13.001506,7.223485 13.001638,7.20147 13.001855,7.182048 13.001855,7.159585 13.002044,7.060107 13.002044,7.056017 13.0021,7.030102 13.002033,6.994402 13.001999,6.966467 13.00204,6.939207 13.002125,6.931443 13.001965,6.913601 13.002062,6.907029 13.00209,6.89464 13.002249,6.87792 13.002127,6.86697 13.002242,6.863354 13.002182,6.858618 13.002257,6.851131 13.002048,6.850262 13.002039,6.849569 13.002021,6.848281 13.002432,6.783602 13.002501,6.770401 13.002433,6.752479 13.002412,6.729539 13.002495,6.706165 13.002422,6.687569 13.002675,6.68544 13.002954,6.669956 13.002679,6.665798 13.003038,6.643234 13.002744,6.622984 13.002933,6.525206 13.003444,6.520094 13.003266,6.494494 13.003434,6.464269 13.003401,6.440335 13.003439,6.416855 13.003525,6.410502 13.003365,6.396157 13.003463,6.390631 13.003489,6.380864 13.003373,6.368401 13.003725,6.297063 13.003697,6.29065 13.003762,6.28548 13.003625,6.280751 13.003721,6.278092 13.003638,6.270789 13.003058,6.2559 13.000845,6.130857 12.860912,6.128063 12.852884,6.128082 12.852655,6.127906" style="fill: black" />
</svg>
