<svg width="19.131698" height="19.131699">
<polygon type="contour" points="10.783074,10.613026 10.783569,10.624987 10.786807,10.656852 10.787133,10.787135 10.559861,10.780708 10.526391,10.779382 10.509353,10.779161 10.501904,10.779255 10.501824,10.776896 10.501824,10.775119 10.501708,10.769795 10.50169,10.766548 10.50169,10.7541 10.501694,10.750595 10.501694,10.731611 10.502314,10.502315 10.616113,10.502315 10.681265,10.502198 10.75001,10.502171 10.779572,10.502171" style="fill: white" /><polygon type="contour" points="10.38125,10.502002 10.38125,10.612552 10.340222,10.612511 10.283434,10.612454 10.283434,10.562242 10.283607,10.501796 10.340222,10.501796" style="fill: white" /><polygon type="contour" points="10.3812,10.283609 10.38125,10.318701 10.38125,10.381252 10.340222,10.381202 10.283607,10.381202 10.283607,10.340224 10.283434,10.283436 10.328206,10.283436" style="fill: white" /><polygon type="contour" points="10.612509,10.340224 10.612551,10.381252 10.502,10.381252 10.501795,10.340224 10.501795,10.283609 10.547749,10.283609 10.612452,10.283436" style="fill: white" /><polygon type="contour" points="10.779527,9.504294 10.780237,9.566201 10.779527,9.627856 10.779525,9.723072 10.686914,9.723072 10.540203,9.720764 10.501879,9.720754 10.501879,9.410709 10.540286,9.410709 10.597543,9.410939 10.779525,9.408633" style="fill: white" /><polygon type="contour" points="10.573596,9.845028 10.612481,9.845216 10.612536,9.888529 10.612451,9.948875 10.56224,9.948875 10.501795,9.948813 10.501947,9.911899 10.501947,9.844691" style="fill: white" /><polygon type="contour" points="10.3812,9.888125 10.3812,9.948813 10.340221,9.948813 10.283434,9.948875 10.283434,9.90154 10.283357,9.845109 10.340221,9.844804 10.38125,9.844752" style="fill: white" /><polygon type="contour" points="10.38125,9.533252 10.38125,9.722252 10.340222,9.721869 10.283357,9.72189 10.283357,9.409814 10.326171,9.409375 10.381027,9.409003" style="fill: white" /><polygon type="contour" points="10.3812,9.182891 10.3812,9.243171 10.38125,9.286502 10.340221,9.286493 10.283357,9.286596 10.283357,9.243174 10.283434,9.18283 10.328207,9.18283" style="fill: white" /><polygon type="contour" points="10.612508,9.243172 10.612452,9.286375 10.501895,9.286375 10.501795,9.243171 10.501795,9.182891 10.547749,9.182891 10.612451,9.18283" style="fill: white" /><polygon type="contour" points="10.780108,8.602656 10.779572,8.629533 10.642535,8.629533 10.54789,8.629388 10.502314,8.629388 10.501694,8.400093 10.501694,8.381107 10.50169,8.365155 10.501708,8.361908 10.501811,8.35718 10.501824,8.354808 10.501904,8.352449 10.509353,8.352543 10.55986,8.350997 10.787133,8.344568" style="fill: white" /><polygon type="contour" points="10.612508,8.791481 10.612452,8.848268 10.562241,8.848268 10.501795,8.848095 10.501795,8.79148 10.501999,8.750452 10.612551,8.750452" style="fill: white" /><polygon type="contour" points="10.3812,8.791481 10.3812,8.848095 10.340222,8.848095 10.283434,8.848268 10.283434,8.803494 10.283607,8.750502 10.318699,8.750452 10.38125,8.750452" style="fill: white" /><polygon type="contour" points="10.382456,8.558037 10.382456,8.629755 10.340222,8.629909 10.283607,8.629909 10.283607,8.583953 10.283434,8.519249 10.340222,8.519192 10.38125,8.519152" style="fill: white" /><polygon type="contour" points="8.571839,8.350997 8.605309,8.352321 8.622347,8.352543 8.629797,8.352449 8.629877,8.354808 8.629877,8.356578 8.629992,8.361908 8.630011,8.365155 8.630011,8.377603 8.630007,8.381108 8.630007,8.400092 8.629386,8.629388 8.515587,8.629388 8.450434,8.629506 8.381689,8.629533 8.352128,8.629533 8.348624,8.518678 8.34813,8.506716 8.344891,8.47485 8.344567,8.344568" style="fill: white" /><polygon type="contour" points="8.791479,8.519193 8.848267,8.519249 8.848267,8.56946 8.848094,8.629909 8.791478,8.629909 8.75045,8.629702 8.75045,8.519152" style="fill: white" /><polygon type="contour" points="8.791479,8.750502 8.848094,8.750502 8.848094,8.791481 8.848267,8.848268 8.803493,8.848268 8.750501,8.848095 8.75045,8.813001 8.75045,8.750452" style="fill: white" /><polygon type="contour" points="8.629906,8.79148 8.629906,8.848095 8.583952,8.848095 8.519247,8.848268 8.519192,8.791481 8.51915,8.750452 8.629701,8.750452" style="fill: white" /><polygon type="contour" points="8.629906,9.182891 8.629754,9.219804 8.629754,9.287013 8.558104,9.286676 8.519219,9.286489 8.519165,9.243174 8.519247,9.18283 8.569458,9.18283" style="fill: white" /><polygon type="contour" points="8.848267,9.230163 8.848344,9.286596 8.791479,9.286901 8.75045,9.286952 8.750501,9.243579 8.750501,9.182891 8.791479,9.182891 8.848267,9.18283" style="fill: white" /><polygon type="contour" points="8.791478,9.409835 8.848344,9.409814 8.848344,9.72189 8.805527,9.722329 8.750674,9.722701 8.75045,9.598451 8.75045,9.409452" style="fill: white" /><polygon type="contour" points="8.591497,9.410939 8.629822,9.41095 8.629822,9.720996 8.591415,9.720754 8.534156,9.720765 8.352175,9.723072 8.352173,9.627409 8.351463,9.565502 8.352173,9.503847 8.352175,9.408633 8.444787,9.408633" style="fill: white" /><polygon type="contour" points="8.629806,9.84533 8.629906,9.888533 8.629906,9.948813 8.583951,9.948813 8.519247,9.948875 8.519192,9.888125 8.519249,9.844878 8.55792,9.844878" style="fill: white" /><polygon type="contour" points="8.848344,9.888529 8.848266,9.948875 8.803493,9.948875 8.750501,9.948813 8.750501,9.888533 8.75045,9.845202 8.791478,9.845211 8.848344,9.845109" style="fill: white" /><polygon type="contour" points="9.219667,9.845216 9.286486,9.845216 9.286593,9.888529 9.286593,9.94871 9.243173,9.94871 9.182828,9.948875 9.182828,9.901539 9.182992,9.845109" style="fill: white" /><polygon type="contour" points="9.286604,9.556992 9.286604,9.722279 9.22822,9.722279 9.182992,9.72189 9.182992,9.409814 9.243173,9.409814 9.286486,9.40951" style="fill: white" /><polygon type="contour" points="9.286593,9.182993 9.286486,9.219668 9.286486,9.286489 9.243172,9.286596 9.182992,9.286596 9.182992,9.243174 9.182828,9.18283 9.230161,9.18283" style="fill: white" /><polygon type="contour" points="9.286898,8.79148 9.286593,8.848345 9.243173,8.848345 9.182828,8.848267 9.182828,8.803494 9.182889,8.750502 9.243577,8.750502 9.28695,8.750452" style="fill: white" /><polygon type="contour" points="9.286486,8.519221 9.286486,8.557992 9.286824,8.629808 9.243576,8.629909 9.182889,8.629909 9.182889,8.583952 9.182828,8.519249 9.243172,8.519166" style="fill: white" /><polygon type="contour" points="9.566198,8.351511 9.601489,8.352337 9.723095,8.352341 9.723095,8.478271 9.720764,8.591499 9.720994,8.629824 9.410948,8.629824 9.410937,8.591499 9.408606,8.478271 9.408606,8.35234 9.433445,8.351208" style="fill: white" /><polygon type="contour" points="9.948872,8.519249 9.948872,8.569461 9.948811,8.629909 9.912241,8.629808 9.845327,8.629808 9.845215,8.557991 9.845215,8.519221 9.888527,8.519166" style="fill: white" /><polygon type="contour" points="9.88853,8.750502 9.948811,8.750502 9.948811,8.791481 9.948872,8.848268 9.901538,8.848268 9.845107,8.848345 9.845209,8.791481 9.8452,8.750452" style="fill: white" /><polygon type="contour" points="9.722273,8.79148 9.721889,8.848345 9.409812,8.848345 9.409425,8.813189 9.40945,8.750452 9.722699,8.750452" style="fill: white" /><polygon type="contour" points="9.722193,9.219668 9.722193,9.286489 9.409507,9.286489 9.409812,9.243175 9.409812,9.182993 9.721889,9.182993" style="fill: white" /><polygon type="contour" points="9.948872,9.230163 9.948706,9.286596 9.91203,9.286489 9.845215,9.286489 9.845107,9.243174 9.845107,9.182993 9.888527,9.182993 9.948872,9.18283" style="fill: white" /><polygon type="contour" points="9.948706,9.409814 9.948706,9.72189 9.888527,9.72189 9.845215,9.722195 9.845096,9.574712 9.845096,9.409426 9.903478,9.409426" style="fill: white" /><polygon type="contour" points="9.72228,9.722281 9.40942,9.722281 9.40942,9.409423 9.72228,9.409423" style="fill: white" /><polygon type="contour" points="9.721889,9.88853 9.721889,9.94871 9.409812,9.94871 9.409507,9.912032 9.409507,9.845216 9.722193,9.845216" style="fill: white" /><polygon type="contour" points="9.948706,9.88853 9.948872,9.948875 9.901538,9.948875 9.845107,9.948709 9.845215,9.912033 9.845215,9.845216 9.888528,9.845109 9.948706,9.845109" style="fill: white" /><polygon type="contour" points="9.948872,10.283436 9.948872,10.328209 9.948811,10.381202 9.888123,10.381202 9.844751,10.381252 9.844803,10.340223 9.845107,10.283359 9.888527,10.283359" style="fill: white" /><polygon type="contour" points="9.948811,10.547751 9.948872,10.612454 9.888528,10.612538 9.845215,10.612483 9.845215,10.573712 9.844877,10.501897 9.888124,10.501796 9.948811,10.501796" style="fill: white" /><polygon type="contour" points="9.720763,10.540204 9.723095,10.653432 9.723095,10.779363 9.698254,10.780495 9.565501,10.780192 9.53021,10.779366 9.408606,10.779363 9.410937,10.597545 9.410948,10.501881 9.720753,10.501881" style="fill: white" /><polygon type="contour" points="9.722276,10.318514 9.72225,10.381252 9.40945,10.381252 9.409833,10.340224 9.409812,10.283359 9.721889,10.283359" style="fill: white" /><polygon type="contour" points="9.286898,10.340223 9.28695,10.381252 9.243577,10.381202 9.182889,10.381202 9.182889,10.340223 9.182828,10.283436 9.230161,10.283436 9.286593,10.283359" style="fill: white" /><polygon type="contour" points="9.219458,10.501897 9.286824,10.501897 9.286486,10.573712 9.286486,10.612483 9.243173,10.612538 9.182828,10.612453 9.182828,10.562241 9.182889,10.501796" style="fill: white" /><polygon type="contour" points="8.848094,10.547751 8.848267,10.612454 8.791479,10.61251 8.75045,10.612551 8.75045,10.502002 8.791478,10.501796 8.848094,10.501796" style="fill: white" /><polygon type="contour" points="8.848267,10.328209 8.848094,10.381202 8.813001,10.381252 8.75045,10.381252 8.750501,10.340223 8.750501,10.283609 8.791478,10.283609 8.848267,10.283436" style="fill: white" /><polygon type="contour" points="8.629906,10.283609 8.629906,10.340223 8.629754,10.382457 8.558034,10.382457 8.51915,10.381252 8.519191,10.340224 8.519247,10.283436 8.569457,10.283436" style="fill: white" /><polygon type="contour" points="8.450434,10.502198 8.515587,10.502315 8.629386,10.502315 8.630007,10.731611 8.630007,10.750596 8.630011,10.766548 8.629992,10.769795 8.62989,10.774523 8.629877,10.776895 8.629797,10.779255 8.622347,10.779161 8.571838,10.780708 8.344567,10.787135 8.351592,10.529046 8.352128,10.502171 8.381689,10.502171" style="fill: white" />
</svg>
