<svg width="19.131698" height="19.131699">
<polygon type="contour" points="10.625191,11.95305 10.625191,12.082326 10.564804,12.085604 10.528289,12.083235 10.417632,12.08293 10.346305,12.082679 10.347002,11.99708 10.330676,11.996517 10.330896,11.955568 10.330533,11.910542 10.330649,11.910483 10.330479,11.835457 10.330433,11.78343 10.505235,11.78343 10.625426,11.783344" style="fill: white" /><polygon type="contour" points="11.173664,11.783056 11.21367,11.783097 11.413665,11.783171 11.413665,11.910425 11.374113,11.910555 11.21367,11.910497 11.173663,11.910455 11.043058,11.910365 11.016424,11.910319 11.016412,11.888601 11.016412,11.782986" style="fill: white" /><polygon type="contour" points="12.081987,11.849537 12.08236,11.909063 12.084812,11.993512 12.087309,12.087311 11.926102,12.08259 11.849536,12.081987 11.783283,12.082076 11.78348,11.997538 11.78348,11.87443 11.783429,11.783431 11.858631,11.78374 11.874429,11.783481 11.958965,11.783284 12.082075,11.783284" style="fill: white" /><polygon type="contour" points="11.816923,9.321585 11.910174,9.321585 11.910431,9.53125 11.910476,9.566202 11.910432,9.600969 11.910348,9.80998 11.888599,9.810416 11.783564,9.810416 11.783564,9.76182 11.783216,9.600969 11.783216,9.531251 11.783564,9.321289" style="fill: white" /><polygon type="contour" points="9.810328,9.321374 9.810328,9.368326 9.81048,9.53125 9.81048,9.600969 9.810328,9.810331 9.763375,9.810331 9.600452,9.810483 9.530734,9.810483 9.321373,9.810331 9.321373,9.763378 9.321218,9.60097 9.321218,9.53125 9.321373,9.321374 9.530733,9.32122 9.600451,9.32122" style="fill: white" /><polygon type="contour" points="9.530733,8.506029 9.600452,8.506029 9.810328,8.506014 9.810328,8.801296 9.763375,8.801296 9.600452,8.801429 9.530733,8.801429 9.321373,8.801296 9.321373,8.506014 9.367652,8.50601" style="fill: white" /><polygon type="contour" points="10.62519,7.049378 10.625426,7.223216 10.625426,7.348359 10.453414,7.348359 10.329862,7.348274 10.330017,7.274582 10.330732,7.214184 10.330633,7.197948 10.330676,7.135186 10.347823,7.134594 10.347284,7.06825 10.346305,7.049024 10.417631,7.048774" style="fill: white" /><polygon type="contour" points="10.625178,7.91803 10.62527,7.958035 10.625693,8.115279 10.577001,8.115208 10.330405,8.115208 10.330432,7.958036 10.330482,7.918029 10.33058,7.718037 10.625425,7.718037" style="fill: white" /><polygon type="contour" points="11.173663,7.717936 11.21367,7.717995 11.413665,7.718037 11.413665,7.767836 11.413707,7.918029 11.413765,7.958036 11.413911,8.11529 11.222314,8.115439 11.173664,8.115439 11.016424,8.115279 11.016424,8.082961 11.016263,7.958035 11.016263,7.909385 11.016412,7.717791 11.050286,7.717791" style="fill: white" /><polygon type="contour" points="11.413665,7.221279 11.413665,7.348534 11.363865,7.348534 11.21367,7.348606 11.173664,7.348647 11.016412,7.348717 11.016424,7.328 11.016424,7.221383 11.043058,7.221336 11.173663,7.221248 11.21367,7.221206 11.374113,7.22115" style="fill: white" /><polygon type="contour" points="12.084813,7.138189 12.082361,7.222639 12.082433,7.248366 12.081987,7.282167 12.082075,7.348223 11.874429,7.348223 11.783429,7.348273 11.783429,7.273299 11.78348,7.257272 11.78348,7.049628 11.849536,7.049716 11.926102,7.049111 12.087309,7.044393" style="fill: white" /><polygon type="contour" points="11.910553,7.757588 11.910497,7.918029 11.910455,7.958035 11.910363,8.088644 11.910317,8.115279 11.888599,8.11529 11.782984,8.11529 11.783055,7.958035 11.783096,7.91803 11.783169,7.718037 11.910423,7.718037" style="fill: white" /><polygon type="contour" points="11.953048,8.506511 12.082324,8.506511 12.085603,8.566895 12.083234,8.60341 12.083397,8.801327 12.041103,8.801096 12.034219,8.801026 11.955567,8.800804 11.91054,8.801171 11.910482,8.80105 11.835456,8.801222 11.783429,8.80184 11.783429,8.627037 11.783343,8.506276" style="fill: white" /><polygon type="contour" points="11.173663,8.506431 11.21367,8.506522 11.413665,8.506276 11.413665,8.801123 11.365429,8.801064 11.21367,8.801221 11.173664,8.801271 11.016494,8.801296 11.016424,8.753217 11.016424,8.50601 11.048741,8.50601" style="fill: white" /><polygon type="contour" points="10.625181,8.675147 10.625181,8.800921 10.456552,8.800921 10.330649,8.801051 10.330649,8.629487 10.330481,8.50652 10.498031,8.506511 10.625191,8.506511" style="fill: white" /><polygon type="contour" points="10.625693,9.367653 10.625673,9.531251 10.625673,9.60097 10.625689,9.810331 10.330405,9.810331 10.330405,9.763379 10.330273,9.600969 10.330273,9.53125 10.330405,9.321374 10.625689,9.321374" style="fill: white" /><polygon type="contour" points="11.173663,9.321985 11.222455,9.322128 11.414491,9.321289 11.414491,9.369884 11.414393,9.531251 11.414393,9.600969 11.414491,9.810416 11.374791,9.810331 11.222455,9.809576 11.173522,9.809576 11.01591,9.810331 11.015838,9.76405 11.015497,9.60097 11.015681,9.531065 11.016493,9.320788 11.049106,9.320788" style="fill: white" /><polygon type="contour" points="11.173664,10.330432 11.21367,10.330483 11.413665,10.330582 11.413665,10.625428 11.21367,10.625181 11.173664,10.625272 11.016424,10.625694 11.016494,10.577003 11.016494,10.330406" style="fill: white" /><polygon type="contour" points="12.083233,10.528292 12.082324,10.625191 11.908486,10.625428 11.783343,10.625428 11.783343,10.453417 11.783429,10.330435 11.835456,10.330482 11.93445,10.330704 11.957043,10.330636 12.034218,10.330678 12.083397,10.330376" style="fill: white" /><polygon type="contour" points="11.803701,11.016425 11.910317,11.016425 11.910363,11.043059 11.910455,11.173665 11.910496,11.213671 11.910531,11.413573 11.8095,11.413573 11.783169,11.413666 11.783169,11.363867 11.783096,11.213671 11.783055,11.173664 11.782983,11.016413" style="fill: white" /><polygon type="contour" points="11.413911,11.016413 11.413911,11.050287 11.413765,11.173664 11.413707,11.213671 11.413665,11.413666 11.214865,11.413913 11.173663,11.413766 11.016412,11.413913 11.016263,11.222316 11.016263,11.173664 11.016424,11.016425 11.048741,11.016425 11.173663,11.016265 11.222314,11.016265" style="fill: white" /><polygon type="contour" points="10.625693,11.016426 10.625693,11.048743 10.62527,11.173665 10.625179,11.213671 10.625425,11.413666 10.33058,11.413666 10.330639,11.365431 10.330481,11.213671 10.330432,11.173664 10.330404,11.016496 10.378483,11.016425" style="fill: white" /><polygon type="contour" points="10.625191,10.498031 10.625191,10.625192 10.456551,10.625183 10.330481,10.625183 10.330481,10.456554 10.330649,10.330651 10.502212,10.330651 10.625181,10.330483" style="fill: white" /><polygon type="contour" points="9.810328,10.330406 9.810328,10.62569 9.764048,10.625694 9.600452,10.625675 9.530733,10.625675 9.321373,10.62569 9.321373,10.330406 9.368324,10.330406 9.530734,10.330275 9.600451,10.330275" style="fill: white" /><polygon type="contour" points="9.600636,11.015684 9.810912,11.016496 9.810912,11.049108 9.809716,11.173664 9.809574,11.222458 9.810413,11.414493 9.600452,11.414395 9.530734,11.414395 9.321288,11.414493 9.321373,11.374792 9.322126,11.222457 9.322126,11.173524 9.321373,11.015912 9.530733,11.0155" style="fill: white" /><polygon type="contour" points="9.810413,11.783566 9.810117,11.816925 9.810117,11.910176 9.600452,11.910433 9.5655,11.910478 9.530733,11.910433 9.321723,11.910349 9.321288,11.8886 9.321288,11.783566 9.369883,11.783566 9.530734,11.783219 9.600452,11.783219" style="fill: white" /><polygon type="contour" points="8.801838,11.783431 8.80122,11.835456 8.801015,11.925219 8.801067,11.933755 8.801024,11.996517 8.783875,11.997109 8.784417,12.063453 8.785396,12.082679 8.714068,12.082929 8.506508,12.082325 8.506274,11.908488 8.506274,11.783344 8.678284,11.783344" style="fill: white" /><polygon type="contour" points="8.115276,11.803703 8.115276,11.910319 8.088641,11.910365 7.958035,11.910455 7.918028,11.910497 7.757586,11.910555 7.718035,11.910425 7.718035,11.783171 7.767834,11.783171 7.918028,11.783097 7.958034,11.783056 8.115287,11.782986" style="fill: white" /><polygon type="contour" points="7.090595,10.330607 7.097479,10.330678 7.176132,10.330898 7.221155,10.330534 7.221217,10.330651 7.296243,10.330482 7.348271,10.330435 7.348271,10.505237 7.348358,10.625428 7.178651,10.625192 7.049376,10.625192 7.046097,10.564806 7.048466,10.528291 7.0483,10.330376" style="fill: white" /><polygon type="contour" points="7.348136,9.369885 7.348484,9.53125 7.348484,9.600969 7.348136,9.810416 7.314776,9.81012 7.221523,9.81012 7.221267,9.60097 7.221224,9.566202 7.221267,9.53125 7.22135,9.321724 7.243098,9.321289 7.348136,9.321289" style="fill: white" /><polygon type="contour" points="7.348358,8.678287 7.348271,8.801268 7.274581,8.801098 7.221217,8.80105 7.221157,8.800926 7.174654,8.801069 7.097479,8.801026 7.0483,8.801327 7.048466,8.603409 7.049376,8.506511 7.223212,8.506276 7.348358,8.506276" style="fill: white" /><polygon type="contour" points="7.348531,7.767836 7.348603,7.918029 7.348645,7.958035 7.348716,8.11529 7.327999,8.115279 7.22138,8.115279 7.221333,8.088644 7.221245,7.958035 7.221204,7.91803 7.221169,7.718131 7.322199,7.718131 7.348531,7.718037" style="fill: white" /><polygon type="contour" points="7.205595,7.049111 7.282164,7.049716 7.348418,7.049628 7.34822,7.134164 7.34822,7.257273 7.348271,7.348273 7.273068,7.347964 7.25727,7.348223 7.172733,7.34842 7.049626,7.34842 7.049714,7.282167 7.049339,7.222639 7.046667,7.13819 7.04439,7.044393" style="fill: white" /><polygon type="contour" points="7.918027,7.221205 7.958035,7.221247 8.088641,7.221336 8.115276,7.221383 8.115287,7.243101 8.115287,7.348718 7.958034,7.348647 7.918028,7.348606 7.718035,7.348533 7.718035,7.221279 7.757586,7.221149" style="fill: white" /><polygon type="contour" points="8.603409,7.048469 8.714067,7.048773 8.785396,7.049023 8.784697,7.134622 8.801024,7.135187 8.800803,7.176133 8.801168,7.221158 8.801049,7.22122 8.80122,7.296245 8.801838,7.348274 8.627035,7.348274 8.506274,7.348359 8.506509,7.178653 8.506509,7.049378 8.566895,7.0461" style="fill: white" /><polygon type="contour" points="9.600452,7.221269 9.809978,7.221353 9.810413,7.243101 9.810413,7.348138 9.761817,7.348138 9.600451,7.348485 9.530734,7.348485 9.321288,7.348138 9.321584,7.314778 9.321584,7.221526 9.530734,7.221268 9.5655,7.221226" style="fill: white" /><polygon type="contour" points="9.530734,7.71731 9.600452,7.71731 9.810412,7.717211 9.810327,7.756911 9.809574,7.909243 9.809716,7.958035 9.810912,8.115207 9.600635,8.115505 9.530548,8.115505 9.320785,8.115208 9.320785,8.082596 9.321983,7.958035 9.322126,7.909243 9.321288,7.717211 9.369883,7.717211" style="fill: white" /><polygon type="contour" points="8.801062,7.766272 8.801219,7.91803 8.801267,7.958035 8.801294,8.115208 8.753215,8.115279 8.506007,8.115279 8.506007,8.082961 8.506429,7.958035 8.506521,7.91803 8.506275,7.718037 8.801121,7.718037" style="fill: white" /><polygon type="contour" points="8.115438,7.909385 8.115438,7.958035 8.115276,8.115279 8.082957,8.115279 7.958035,8.115439 7.909384,8.115439 7.717789,8.11529 7.717789,8.081416 7.717935,7.958035 7.717994,7.91803 7.718035,7.718037 7.916835,7.717791 7.958035,7.717937 8.115287,7.717791" style="fill: white" /><polygon type="contour" points="8.115205,8.5547 8.115205,8.801296 7.958034,8.801271 7.918028,8.801221 7.718035,8.801123 7.718035,8.506276 7.918028,8.506522 7.958034,8.506431 8.115276,8.50601" style="fill: white" /><polygon type="contour" points="8.675147,8.50652 8.800919,8.50652 8.800919,8.675147 8.801049,8.801051 8.629485,8.801051 8.506519,8.800921 8.506509,8.63337 8.506509,8.506511" style="fill: white" /><polygon type="contour" points="8.801294,9.368326 8.801428,9.53125 8.801428,9.600969 8.801294,9.810331 8.506011,9.810331 8.506007,9.76405 8.506027,9.60097 8.506027,9.53125 8.506011,9.321374 8.801294,9.321374" style="fill: white" /><polygon type="contour" points="8.115276,9.367067 8.115503,9.531066 8.115503,9.601153 8.115205,9.810914 8.082592,9.810914 7.958035,9.809718 7.909242,9.809576 7.717209,9.810415 7.717209,9.76182 7.717308,9.600969 7.717308,9.53125 7.717209,9.321289 7.756909,9.321374 7.909242,9.322128 7.958035,9.321985 8.115205,9.320788" style="fill: white" /><polygon type="contour" points="8.115276,10.378484 8.115276,10.625694 8.082957,10.625694 7.958035,10.625273 7.918028,10.625181 7.718035,10.625428 7.718035,10.330582 7.76627,10.330641 7.918028,10.330483 7.958034,10.330432 8.115205,10.330406" style="fill: white" /><polygon type="contour" points="8.801049,10.330651 8.801049,10.502215 8.800919,10.625183 8.633366,10.625192 8.506509,10.625192 8.506519,10.456554 8.506519,10.330483 8.675146,10.330483" style="fill: white" /><polygon type="contour" points="8.554697,11.016496 8.801294,11.016496 8.801267,11.173665 8.801219,11.213671 8.801121,11.413666 8.506275,11.413666 8.506521,11.213671 8.506429,11.173664 8.506007,11.016425" style="fill: white" /><polygon type="contour" points="8.115276,11.016425 8.115276,11.048743 8.115438,11.173664 8.115438,11.222316 8.115287,11.413913 8.081413,11.413913 7.958035,11.413767 7.918028,11.413709 7.718035,11.413666 7.718035,11.363866 7.717994,11.213672 7.717934,11.173664 7.717789,11.016413 7.909384,11.016265 7.958034,11.016265" style="fill: white" /><polygon type="contour" points="7.348645,11.173665 7.348603,11.213671 7.34853,11.413666 7.247556,11.413666 7.221169,11.413573 7.221147,11.374115 7.221203,11.213672 7.221245,11.173664 7.221333,11.043059 7.22138,11.016425 7.243097,11.016413 7.348716,11.016413" style="fill: white" /><polygon type="contour" points="7.134162,11.783482 7.257271,11.783482 7.348271,11.783431 7.348271,11.858404 7.34822,11.874431 7.34822,12.082076 7.282163,12.081988 7.205595,12.082591 7.044391,12.087311 7.046667,11.993512 7.049339,11.909064 7.049714,11.849536 7.049626,11.783284" style="fill: white" />
</svg>
