<svg width="19.131698" height="19.131699">
<polygon type="contour" points="9.598827,9.405548 9.601649,9.406254 9.63811,9.418846 9.640337,9.420591 9.683422,9.451747 9.713915,9.495496 9.715289,9.498096 9.72722,9.537204 9.727442,9.539505 9.729432,9.577953 9.728874,9.580181 9.716279,9.631885 9.714644,9.634188 9.692773,9.669318 9.664931,9.696497 9.662405,9.697944 9.615341,9.722472 9.613038,9.722806 9.560675,9.730096 9.557926,9.729426 9.516828,9.722138 9.481697,9.706891 9.479394,9.705107 9.438958,9.669977 9.437621,9.667452 9.415748,9.632319 9.40448,9.595861 9.404331,9.592965 9.403668,9.539936 9.40441,9.537746 9.416343,9.497972 9.436891,9.46483 9.438301,9.463011 9.477413,9.427879 9.479381,9.426653 9.517163,9.409417 9.519948,9.40886 9.557729,9.402233" style="fill: white" />
</svg>
