<svg width="19.131698" height="19.131699">
<polygon type="contour" points="9.619243,9.174209 9.660482,9.174425 9.718446,9.175226 9.758096,9.176372 9.858345,9.178528 9.946371,9.185331 9.949035,9.266061 9.95037,9.305067 9.955813,9.374036 9.957318,9.451225 9.958544,9.505697 9.958776,9.566201 9.95763,9.617049 9.957319,9.680002 9.955812,9.757667 9.95037,9.826638 9.949035,9.865643 9.946371,9.946373 9.858346,9.953174 9.758096,9.955332 9.718445,9.956479 9.660483,9.957276 9.604813,9.958745 9.5655,9.958909 9.511978,9.957495 9.471217,9.957276 9.413255,9.956479 9.373603,9.955332 9.273353,9.953174 9.185329,9.946373 9.182664,9.865643 9.18133,9.826638 9.175888,9.757667 9.174381,9.680002 9.172931,9.625755 9.172714,9.566201 9.17407,9.515145 9.174382,9.451225 9.175887,9.374037 9.18133,9.305066 9.182664,9.266061 9.185329,9.185331 9.273354,9.178528 9.373603,9.176372 9.413254,9.175226 9.471218,9.174425 9.526661,9.172958 9.565501,9.172795" style="fill: white" />
</svg>
