<svg width="19.131698" height="19.131699">
<polygon type="contour" points="12.159153,6.814259 12.165994,6.815041 12.167691,6.815055 12.205453,6.831701 12.216079,6.836777 12.229202,6.846065 12.251905,6.863714 12.263331,6.876361 12.295973,6.91676 12.302875,6.931552 12.314545,6.964417 12.317167,6.98341 12.318013,6.988803 12.318042,8.310795 12.317863,8.751613 12.317863,12.1429 12.316187,12.157375 12.314834,12.169916 12.305937,12.195386 12.300869,12.206364 12.295381,12.215432 12.275317,12.243291 12.261823,12.258683 12.254928,12.265453 12.247118,12.272192 12.21533,12.294714 12.195224,12.305595 12.170279,12.314421 12.163318,12.316645 12.159549,12.317177 12.142899,12.317817 11.203816,12.317837 10.847519,12.317723 9.459612,12.317873 6.988801,12.318082 6.983898,12.317489 6.958455,12.313435 6.928894,12.30149 6.912888,12.293997 6.896856,12.280914 6.877026,12.264311 6.860866,12.246417 6.846788,12.229927 6.831202,12.204385 6.824891,12.191565 6.816015,12.167697 6.814404,12.162405 6.814309,12.160726 6.81398,12.15765 6.813684,12.1429 6.813655,10.820907 6.813835,10.38009 6.813835,6.988802 6.815875,6.973966 6.81737,6.961284 6.825613,6.936907 6.833058,6.921028 6.852287,6.89499 6.870266,6.873267 6.877499,6.865405 6.885742,6.858388 6.908761,6.841536 6.938699,6.824095 6.945877,6.821673 6.971558,6.814646 6.973799,6.814301 6.97901,6.814109 6.9888,6.813718 10.220851,6.813718 12.1429,6.81362" style="fill: white" />
</svg>
