<svg width="19.131698" height="19.131699">
<polygon type="contour" points="10.802479,10.593914 10.803086,10.608586 10.807058,10.647667 10.807457,10.80746 10.528708,10.799576 10.522841,10.799344 10.523719,10.551553 10.523795,10.523797 10.534862,10.523777 10.720454,10.523706 10.800262,10.523706" style="fill: white" /><polygon type="contour" points="9.738597,8.958531 9.738492,8.996635 9.738394,9.032142 9.738602,9.057257 9.738602,9.061804 9.393098,9.061804 9.393306,9.032142 9.393207,8.996635 9.393102,8.958531 9.392876,8.937941 9.392878,8.934447 9.738847,8.934447" style="fill: white" /><polygon type="contour" points="10.8006,9.404746 10.802451,9.566201 10.8006,9.726995 10.799892,9.740991 10.579091,9.740212 10.523094,9.739796 10.523085,9.67176 10.523085,9.391916 10.589002,9.39231 10.799893,9.390713" style="fill: white" /><polygon type="contour" points="10.801709,8.53544 10.800262,8.607999 10.71347,8.607999 10.594103,8.607815 10.523795,8.607907 10.52296,8.376448 10.522813,8.332309 10.528709,8.332128 10.807457,8.324244" style="fill: white" /><polygon type="contour" points="10.632497,8.958532 10.632649,8.996635 10.632294,9.032143 10.632255,9.061796 10.522961,9.061796 10.522892,9.032142 10.523125,8.958531 10.523246,8.934447 10.632522,8.934447" style="fill: white" /><polygon type="contour" points="10.197225,8.958531 10.197225,9.036703 10.197255,9.062139 10.17317,9.062134 10.099559,9.061876 10.074446,9.061804 10.0699,9.061804 10.069827,9.032143 10.069567,8.958531 10.069562,8.934447 10.094999,8.934476 10.17317,8.934476 10.193769,8.934447 10.197255,8.934447" style="fill: white" /><polygon type="contour" points="10.173169,8.499204 10.197255,8.499179 10.200509,8.604159 10.200509,8.608599 10.173557,8.608696 10.099559,8.60881 10.07446,8.608741 10.069908,8.608741 10.0699,8.603855 10.0699,8.499445 10.09956,8.499407 10.135066,8.499052" style="fill: white" /><polygon type="contour" points="9.566198,8.32929 9.685913,8.332089 9.741031,8.33209 9.741031,8.389169 9.739091,8.483393 9.739795,8.608608 9.391906,8.608608 9.392609,8.483393 9.390669,8.389169 9.390669,8.33209 9.457565,8.329042" style="fill: white" /><polygon type="contour" points="8.602991,8.332128 8.60886,8.332361 8.607981,8.58015 8.607906,8.607907 8.596838,8.607927 8.411246,8.607999 8.331438,8.607999 8.32922,8.53779 8.328612,8.523117 8.32464,8.484035 8.324243,8.324243" style="fill: white" /><polygon type="contour" points="9.03214,8.499407 9.061801,8.499445 9.061801,8.603855 9.061824,8.608741 9.03214,8.60881 8.958531,8.608578 8.934446,8.608456 8.934446,8.499179 8.958531,8.499204 8.996634,8.499052" style="fill: white" /><polygon type="contour" points="9.062132,8.958531 9.061873,9.032143 9.061801,9.057257 9.061801,9.061804 9.032141,9.061877 8.95853,9.062134 8.934446,9.062164 8.934475,9.036703 8.934475,8.958532 8.934446,8.93793 8.934446,8.934447 8.958531,8.934476 9.036702,8.934476 9.062163,8.934447" style="fill: white" /><polygon type="contour" points="8.608576,8.958531 8.608696,9.034612 8.608598,9.05817 8.608598,9.062331 8.604162,9.06231 8.499443,9.061804 8.499406,9.032142 8.499051,8.996635 8.499203,8.958532 8.499178,8.934447 8.608455,8.934447" style="fill: white" /><polygon type="contour" points="8.552609,9.391492 8.608607,9.391908 8.608616,9.459943 8.608616,9.739788 8.542698,9.739394 8.331808,9.740991 8.331101,9.726957 8.329249,9.565501 8.3311,9.404708 8.331808,9.390713" style="fill: white" /><polygon type="contour" points="8.95853,9.393105 8.996634,9.393209 9.03214,9.393308 9.061801,9.3931 9.061864,9.472578 9.061864,9.738648 9.03214,9.738395 8.996634,9.738494 8.95853,9.738599 8.934545,9.738849 8.934545,9.458611 8.934446,9.403407 8.934446,9.39288" style="fill: white" /><polygon type="contour" points="9.738394,10.099562 9.738492,10.135069 9.738597,10.173172 9.738824,10.193762 9.738822,10.197257 9.392878,10.197257 9.393102,10.173173 9.393207,10.135069 9.393306,10.099562 9.393098,10.074446 9.393098,10.069901 9.738602,10.069901" style="fill: white" /><polygon type="contour" points="9.738837,9.738838 9.392863,9.738838 9.392863,9.392866 9.738837,9.392866" style="fill: white" /><polygon type="contour" points="10.197155,9.673092 10.197255,9.728296 10.197255,9.738823 10.17317,9.738599 10.135066,9.738494 10.09956,9.738396 10.0699,9.738604 10.069836,9.659125 10.069836,9.393055 10.09956,9.393308 10.135066,9.393209 10.173169,9.393105 10.197155,9.392855" style="fill: white" /><polygon type="contour" points="10.527538,10.069394 10.632257,10.069901 10.632294,10.099562 10.632649,10.135069 10.632497,10.173172 10.632522,10.197257 10.523246,10.197257 10.523125,10.173172 10.523005,10.097092 10.523103,10.073534 10.523103,10.069374" style="fill: white" /><polygon type="contour" points="10.197225,10.095 10.197225,10.173172 10.197255,10.193773 10.197255,10.197257 10.173169,10.197228 10.094998,10.197228 10.069538,10.197257 10.069568,10.173172 10.069827,10.099561 10.0699,10.074447 10.0699,10.069901 10.099559,10.069828 10.17317,10.069569 10.197255,10.06954" style="fill: white" /><polygon type="contour" points="10.173169,10.523127 10.197255,10.523249 10.197255,10.632525 10.173169,10.6325 10.135066,10.632652 10.09956,10.632297 10.0699,10.632259 10.0699,10.527849 10.069877,10.522964 10.09956,10.522895" style="fill: white" /><polygon type="contour" points="9.73909,10.648311 9.741031,10.742534 9.741031,10.799613 9.674134,10.802662 9.565501,10.802414 9.445786,10.799615 9.390668,10.799614 9.392609,10.648311 9.391906,10.523097 9.739795,10.523097" style="fill: white" /><polygon type="contour" points="9.05724,10.522964 9.061824,10.522964 9.061801,10.527849 9.061801,10.632259 9.03214,10.632297 8.996634,10.632652 8.958531,10.6325 8.934446,10.632525 8.934446,10.523249 8.958531,10.523127 9.032141,10.522895" style="fill: white" /><polygon type="contour" points="8.95853,10.069569 9.032141,10.069828 9.057254,10.069901 9.061801,10.069901 9.061873,10.099561 9.062132,10.173173 9.062163,10.197257 9.036702,10.197228 8.958531,10.197228 8.937929,10.197257 8.934446,10.197257 8.934475,10.173173 8.934475,10.095001 8.934446,10.069564" style="fill: white" /><polygon type="contour" points="8.60874,10.069909 8.608809,10.099562 8.608696,10.173559 8.608597,10.20051 8.604158,10.20051 8.499178,10.197257 8.499203,10.173172 8.499051,10.135069 8.499406,10.099562 8.499446,10.069878 8.603849,10.069878" style="fill: white" /><polygon type="contour" points="8.596838,10.523777 8.607906,10.523797 8.608739,10.755254 8.608888,10.799396 8.602992,10.799575 8.324243,10.80746 8.329991,10.596262 8.331438,10.523706 8.411245,10.523706" style="fill: white" />
</svg>
