<svg width="19.131698" height="19.131699">
<polygon type="contour" points="5.666666,3.156159 5.666744,3.174045 5.666651,3.26978 5.718771,3.26878 5.719228,3.268777 5.73807,3.268879 5.759745,3.269145 5.760803,3.269145 5.765189,3.269146 5.776048,3.269146 5.790461,3.269193 5.801363,3.269011 5.813027,3.269224 5.822633,3.269145 5.82978,3.269032 5.863312,3.269205 5.863312,3.411834 5.84266,3.411975 5.836054,3.41194 5.831422,3.41193 5.824221,3.411893 5.815451,3.411967 5.803426,3.411842 5.791866,3.411992 5.763036,3.411944 5.744941,3.411895 5.727186,3.411551 5.71167,3.412041 5.705835,3.411569 5.521151,3.411646 5.333625,3.411559 5.333625,3.384562 5.333691,3.269014 5.333489,3.240888 5.333849,3.2363 5.333849,3.157435 5.333594,3.153611 5.333569,3.07887 5.43823,3.078625 5.666521,3.078625" style="fill: white" /><polygon type="contour" points="6.732532,3.173775 7.065117,3.174061 7.295725,3.173819 7.279777,3.341633 7.294099,3.412178 6.758616,3.411899 6.300291,3.411966 6.29871,3.412214 6.298964,3.411995 6.298632,3.338204 6.298147,3.272373 6.297941,3.24416 6.297697,3.17387 6.30685,3.173861 6.324293,3.173855 6.437638,3.17361" style="fill: white" /><polygon type="contour" points="6.368686,4.11011 6.374849,4.110118 6.478471,4.110117 6.751875,4.110177 6.93353,4.110223 7.28224,4.110223 7.264852,4.344589 7.272621,4.378658 7.263403,4.398003 7.273102,4.410319 7.255421,4.442944 7.274166,4.566652 6.755062,4.566652 6.406289,4.566592 6.377778,4.566579 6.310836,4.566848 6.308714,4.566851 6.29874,4.566857 6.29874,4.559105 6.298106,4.526264 6.298106,4.179677 6.29874,4.110532 6.306824,4.11054 6.30955,4.11054 6.367886,4.110098" style="fill: white" /><polygon type="contour" points="5.796677,4.109898 5.804308,4.109731 5.812513,4.110003 5.821221,4.109855 5.829626,4.109739 5.836054,4.109683 5.863312,4.109888 5.862996,4.371463 5.862738,4.442943 5.862997,4.566659 5.834608,4.566623 5.828255,4.566746 5.820256,4.56662 5.80936,4.566599 5.799395,4.566588 5.788793,4.566806 5.779755,4.566683 5.481561,4.566683 5.4671,4.566782 5.451519,4.56679 5.435884,4.566723 5.421871,4.566674 5.410025,4.566741 5.400817,4.566655 5.398619,4.566582 5.333366,4.566588 5.333366,4.551921 5.333416,4.442943 5.333507,4.398003 5.333562,4.371376 5.333817,4.110135 5.456556,4.11011 5.468783,4.109956 5.488956,4.110475 5.509552,4.110245 5.52605,4.110258 5.543097,4.109974 5.555914,4.109823 5.740547,4.109823 5.749123,4.110126 5.758139,4.109846 5.767034,4.109745 5.789197,4.109638" style="fill: white" /><polygon type="contour" points="3.412252,6.298557 3.412249,6.298557 3.41217,6.40578 3.411914,6.499789 3.412077,6.643324 3.412067,6.882469 3.412073,7.196097 3.412105,7.293059 3.394626,7.295116 3.173906,7.280618 3.173906,7.078699 3.173801,7.044279 3.174002,6.734187 3.174272,6.373905 3.173862,6.310747 3.173861,6.305194 3.17387,6.2977 3.322152,6.298743 3.411688,6.298743 3.411041,6.297619 3.41188,6.297498" style="fill: white" /><polygon type="contour" points="3.269013,5.333692 3.335072,5.333692 3.412112,5.333614 3.412074,5.360519 3.412056,5.365649 3.412082,5.374047 3.412077,5.387928 3.41207,5.413076 3.41208,5.445954 3.41199,5.774182 3.411958,5.785377 3.411866,5.790598 3.411897,5.797509 3.41208,5.80919 3.41183,5.819523 3.411823,5.827851 3.41191,5.833659 3.412059,5.863323 3.377204,5.863314 3.269203,5.863314 3.26903,5.829783 3.269249,5.822166 3.269077,5.812481 3.269009,5.801092 3.268796,5.787263 3.268832,5.772453 3.268919,5.763083 3.268895,5.758493 3.269,5.75731 3.269,5.738127 3.270493,5.667202 3.174042,5.666745 3.156157,5.666668 3.154472,5.666638 3.078623,5.666524 3.078623,5.438233 3.078868,5.333572 3.157434,5.333852 3.240887,5.33349" style="fill: white" /><polygon type="contour" points="3.411727,4.162446 3.411909,4.371377 3.411915,4.442943 3.411829,4.550644 3.411829,4.566588 3.269014,4.566588 3.269024,4.553486 3.269116,4.442943 3.269208,4.398003 3.269111,4.371376 3.268927,4.110135 3.411727,4.110135" style="fill: white" /><polygon type="contour" points="3.325034,3.078779 3.41218,3.078981 3.411771,3.157434 3.411771,3.2363 3.411885,3.238961 3.411858,3.269059 3.411858,3.41186 3.269057,3.41186 3.23896,3.411887 3.157433,3.411772 3.15361,3.412097 3.078869,3.412072 3.079032,3.246661 3.078783,3.13517 3.078783,3.078785 3.32358,3.078528" style="fill: white" /><polygon type="contour" points="4.371373,3.269112 4.398,3.269209 4.442941,3.269117 4.553484,3.269025 4.566586,3.269015 4.566586,3.41183 4.550643,3.41183 4.442941,3.411917 4.371373,3.411911 4.162444,3.411728 4.110133,3.411728 4.110133,3.268928 4.153812,3.268918" style="fill: white" /><polygon type="contour" points="4.566734,4.321198 4.566734,4.442943 4.566586,4.566588 4.551918,4.566588 4.442941,4.566736 4.321196,4.566736 4.109971,4.566588 4.109971,4.550644 4.109998,4.442943 4.110045,4.371377 4.110133,4.110134 4.415329,4.109972 4.44294,4.109999 4.566586,4.109972" style="fill: white" /><polygon type="contour" points="4.566686,5.397067 4.56673,5.405516 4.566602,5.414991 4.566732,5.42798 4.566687,5.442753 4.566784,5.458574 4.566563,5.474933 4.566563,5.776211 4.566646,5.783394 4.566646,5.793548 4.566621,5.804244 4.566665,5.814545 4.566627,5.823747 4.566529,5.83135 4.566745,5.836868 4.566657,5.862999 4.524775,5.862999 4.442941,5.862741 4.333985,5.862862 4.109886,5.863314 4.109901,5.831559 4.109646,5.824017 4.109726,5.815177 4.110048,5.806915 4.109821,5.798714 4.109842,5.790463 4.110022,5.768656 4.109844,5.760818 4.110124,5.751794 4.110124,5.569383 4.109922,5.559113 4.110171,5.548183 4.110381,5.53251 4.11011,5.515484 4.110056,5.495862 4.109798,5.474191 4.110324,5.453692 4.110133,5.333819 4.158567,5.3339 4.371373,5.333564 4.398,5.333509 4.44294,5.333418 4.566586,5.333368" style="fill: white" /><polygon type="contour" points="4.566855,6.298743 4.566849,6.308717 4.566845,6.310894 4.566565,6.373097 4.566565,6.378198 4.566629,6.526215 4.56681,6.783164 4.56681,7.263291 4.461488,7.257151 4.442941,7.255423 4.410316,7.273104 4.397999,7.263404 4.379023,7.271165 4.341543,7.262833 4.109591,7.28019 4.109989,6.610096 4.110019,6.473152 4.110162,6.374922 4.110098,6.367887 4.110539,6.309554 4.11053,6.298743 4.123679,6.298743 4.179675,6.298109 4.52626,6.298109" style="fill: white" /><polygon type="contour" points="5.609577,6.306814 5.609583,6.309833 5.609999,6.369412 5.60996,6.374687 5.610012,6.400677 5.611066,6.642726 5.611159,6.847543 5.61208,7.076652 5.612549,7.260739 5.492334,7.271677 5.333672,7.29978 5.333678,7.067697 5.333623,6.827766 5.333592,6.58687 5.333731,6.375302 5.333799,6.363324 5.333751,6.303194 5.333742,6.298743 5.609536,6.298743" style="fill: white" /><polygon type="contour" points="5.736048,5.333443 5.761614,5.333308 5.773956,5.333519 5.786177,5.333727 5.789316,5.333589 5.789608,5.333714 5.806932,5.333717 5.809537,5.333421 5.819668,5.333373 5.82785,5.333549 5.833656,5.333612 5.836053,5.333441 5.84266,5.333475 5.845489,5.333511 5.863312,5.333505 5.863312,5.608634 5.836054,5.608563 5.832106,5.608575 5.82533,5.608572 5.817255,5.608372 5.807501,5.608359 5.80404,5.608389 5.792214,5.608444 5.778882,5.608525 5.776668,5.608261 5.768955,5.608242 5.764844,5.608384 5.76127,5.608178 5.739185,5.608232 5.721484,5.608264 5.699385,5.608439 5.694034,5.608142 5.679755,5.608024 5.673957,5.607938 5.6636,5.608026 5.608728,5.606846 5.608024,5.663602 5.608022,5.679757 5.608436,5.699388 5.608262,5.718946 5.608262,5.724025 5.608204,5.747885 5.608382,5.764846 5.60824,5.768958 5.60826,5.77667 5.608523,5.778886 5.608597,5.794238 5.608515,5.805724 5.608503,5.816995 5.608464,5.824889 5.608587,5.83156 5.608632,5.863314 5.333503,5.863314 5.333452,5.83156 5.333626,5.824224 5.333466,5.815453 5.333493,5.804041 5.33349,5.791868 5.333444,5.77776 5.33365,5.769158 5.333575,5.767149 5.333653,5.764504 5.333444,5.763039 5.333393,5.744493 5.33347,5.743426 5.333441,5.724192 5.333929,5.698831 5.333654,5.674628 5.333323,5.652011 5.333535,5.631884 5.333739,5.62389 5.333419,5.615129 5.333683,5.61004 5.333691,5.333692 5.597723,5.333451 5.600031,5.333447 5.609354,5.333365 5.622326,5.333807 5.641036,5.333466 5.662359,5.333661 5.686004,5.333449 5.690906,5.333724 5.710531,5.333513 5.717979,5.333167" style="fill: white" /><polygon type="contour" points="7.295036,5.412915 7.271675,5.492335 7.26062,5.612425 6.847542,5.611161 6.523616,5.610214 6.400675,5.610015 6.374687,5.609962 6.36941,5.610002 6.30983,5.609584 6.306811,5.609578 6.29874,5.609537 6.29874,5.333744 6.310891,5.333741 6.339364,5.333738 6.413014,5.333738 6.742748,5.333727 7.299778,5.333673" style="fill: white" /><polygon type="contour" points="12.397513,3.174002 12.757531,3.17426 12.820896,3.173861 12.826505,3.173862 12.833999,3.17387 12.833756,3.244367 12.832986,3.412214 12.831771,3.412022 12.188163,3.411765 11.987482,3.412022 11.924041,3.412076 11.831583,3.412084 11.824913,3.394627 11.85108,3.173908 12.052882,3.173908 12.087285,3.173803" style="fill: white" /><polygon type="contour" points="14.688759,5.333418 14.733699,5.333509 14.760326,5.333564 15.021567,5.333819 15.021459,5.439199 15.021376,5.453691 15.021902,5.474191 15.021643,5.495862 15.02159,5.515484 15.021318,5.53251 15.02153,5.547066 15.021778,5.559112 15.021576,5.568621 15.021576,5.751031 15.021855,5.760819 15.021678,5.768656 15.021857,5.790463 15.021878,5.798715 15.021652,5.806914 15.021973,5.815433 15.022053,5.824016 15.022006,5.831768 15.021813,5.863314 14.94079,5.863314 14.797715,5.862862 14.688758,5.862741 14.565043,5.862999 14.564954,5.836867 14.56517,5.83135 14.565071,5.823747 14.565036,5.814544 14.565078,5.804245 14.565054,5.793547 14.565054,5.783393 14.565138,5.776212 14.565138,5.474932 14.56506,5.458157 14.565064,5.441689 14.565132,5.426896 14.565033,5.414822 14.565043,5.404581 14.565095,5.396981 14.565114,5.333368 14.57978,5.333368" style="fill: white" /><polygon type="contour" points="15.021167,6.298743 15.021159,6.309554 15.021603,6.367887 15.02154,6.374921 15.021681,6.473154 15.021525,6.751876 15.021479,6.933534 15.021692,7.280981 14.79015,7.262834 14.752675,7.271165 14.733699,7.263405 14.721384,7.273103 14.688759,7.255423 14.564891,7.263291 14.564891,6.783164 14.565072,6.526214 14.565072,6.522062 14.565135,6.373098 14.564852,6.310893 14.564849,6.308717 14.564843,6.298743 14.572593,6.298743 14.605437,6.298109 14.952022,6.298109" style="fill: white" /><polygon type="contour" points="15.957839,6.305194 15.957837,6.310747 15.958067,6.374544 15.957473,6.582505 15.957898,7.044279 15.957794,7.078699 15.957793,7.280618 15.737071,7.295116 15.719593,7.293059 15.719734,6.991203 15.719734,6.300291 15.719488,6.298713 15.887333,6.297942 15.95783,6.2977" style="fill: white" /><polygon type="contour" points="15.895404,5.333851 15.974266,5.333851 15.978089,5.333597 16.052831,5.333572 16.053078,5.438233 16.053078,5.666524 15.975543,5.666667 15.957654,5.666746 15.86228,5.667197 15.862437,5.71694 15.862272,5.717755 15.862699,5.737649 15.862432,5.75978 15.862556,5.760804 15.862425,5.765128 15.862673,5.774317 15.862905,5.787263 15.862691,5.801091 15.862621,5.812481 15.862451,5.822167 15.862668,5.829783 15.862496,5.863314 15.719697,5.863314 15.719727,5.842662 15.719761,5.836057 15.71979,5.833658 15.719876,5.827851 15.719868,5.819523 15.71962,5.80919 15.719802,5.79751 15.719742,5.785377 15.719911,5.768109 15.719872,5.754027 15.719912,5.741643 15.71981,5.7319 15.719921,5.725268 15.720121,5.606765 15.720142,5.333627 15.747138,5.333627 15.862685,5.333692 15.890814,5.33349" style="fill: white" /><polygon type="contour" points="16.052916,3.078785 16.052916,3.13517 16.052665,3.246661 16.052831,3.412072 15.974266,3.411772 15.895405,3.411772 15.89274,3.411887 15.862642,3.41186 15.719842,3.41186 15.719842,3.269059 15.719815,3.238961 15.71993,3.157434 15.719603,3.15361 15.719519,3.078981 15.806666,3.078779 15.808118,3.078529" style="fill: white" /><polygon type="contour" points="15.862786,4.153814 15.86259,4.371376 15.862492,4.398003 15.862584,4.442943 15.862674,4.553486 15.862684,4.566588 15.719871,4.566588 15.719871,4.550644 15.719783,4.442944 15.719788,4.371376 15.719972,4.162446 15.719972,4.110135 15.862775,4.110135" style="fill: white" /><polygon type="contour" points="14.688758,4.109999 14.760326,4.110047 15.021567,4.110135 15.02173,4.41533 15.021702,4.442944 15.02173,4.566588 14.810503,4.566736 14.688758,4.566736 14.565114,4.566588 14.565114,4.551921 14.564968,4.442943 14.564968,4.321199 14.565114,4.109972 14.581057,4.109972" style="fill: white" /><polygon type="contour" points="15.021567,3.411728 14.969255,3.411728 14.760326,3.411911 14.688758,3.411917 14.581056,3.41183 14.565114,3.41183 14.565114,3.269015 14.578217,3.269026 14.688758,3.269117 14.733699,3.269209 14.760326,3.269112 15.021567,3.268928" style="fill: white" /><polygon type="contour" points="13.798131,3.078871 13.797852,3.157435 13.798212,3.240887 13.79801,3.269014 13.79801,3.335072 13.798088,3.412114 13.77138,3.412095 13.766052,3.412058 13.757654,3.412084 13.743771,3.412079 13.718626,3.412072 13.685747,3.412082 13.351706,3.41196 13.341237,3.411992 13.328272,3.411843 13.316778,3.412079 13.307478,3.411894 13.300142,3.411953 13.268379,3.41206 13.268387,3.377206 13.268387,3.269205 13.301919,3.269032 13.308829,3.269144 13.318673,3.269224 13.33061,3.269011 13.342783,3.269036 13.357477,3.268955 13.368617,3.26892 13.373208,3.268896 13.374427,3.268879 13.394113,3.268879 13.412472,3.268777 13.412927,3.26878 13.464502,3.26977 13.464956,3.174045 13.465034,3.156158 13.465064,3.154472 13.465177,3.078625 13.693469,3.078625" style="fill: white" /><polygon type="contour" points="13.364664,4.109745 13.373558,4.109846 13.380669,4.110126 13.563081,4.110126 13.575785,4.109823 13.583519,4.110172 13.588602,4.109974 13.603735,4.109735 13.622146,4.110245 13.642744,4.110475 13.797882,4.110134 13.797802,4.158569 13.798137,4.371376 13.798191,4.398002 13.798285,4.442944 13.798335,4.551921 13.798335,4.566588 13.733081,4.566582 13.730884,4.566654 13.721673,4.566741 13.709828,4.566673 13.696097,4.566597 13.68018,4.56679 13.6646,4.566782 13.650139,4.566683 13.351944,4.566683 13.342907,4.566806 13.332305,4.566588 13.322337,4.566599 13.311925,4.56676 13.303445,4.566746 13.296777,4.566579 13.268703,4.566659 13.268703,4.524778 13.26896,4.442943 13.268839,4.333987 13.268388,4.109887 13.295645,4.109683 13.302072,4.109739 13.310478,4.109856 13.319187,4.110003 13.3282,4.110001 13.335023,4.109897 13.342501,4.109638" style="fill: white" /><polygon type="contour" points="12.822144,4.11054 12.832956,4.110532 12.832956,4.123681 12.83359,4.179677 12.83359,4.526263 12.832955,4.566857 12.822981,4.566851 12.820859,4.566848 12.756789,4.56667 12.729164,4.566679 12.386303,4.566703 11.857535,4.566652 11.872443,4.462882 11.876278,4.442944 11.860983,4.411049 11.868296,4.398002 11.859076,4.378658 11.866845,4.34459 11.849989,4.11016 12.513996,4.11016 12.653228,4.110117 12.756851,4.110118 12.763014,4.11011 12.763815,4.110098" style="fill: white" /><polygon type="contour" points="12.756389,5.333767 12.768377,5.333801 12.828506,5.333753 12.832956,5.333743 12.832956,5.609537 12.824884,5.609578 12.821865,5.609584 12.76229,5.610002 12.757014,5.609963 12.731024,5.610015 12.488975,5.611068 12.284158,5.611161 12.055049,5.612082 11.870963,5.612551 11.860907,5.491657 11.832493,5.333878 12.063705,5.333927 12.283731,5.3338 12.544715,5.333711" style="fill: white" /><polygon type="contour" points="13.421168,5.333514 13.440792,5.333724 13.445696,5.333449 13.466424,5.333591 13.489036,5.333398 13.507811,5.333741 13.522346,5.333365 13.531668,5.333447 13.79801,5.333692 13.798017,5.61004 13.79828,5.615129 13.797962,5.62389 13.798165,5.631884 13.798377,5.65201 13.798044,5.674629 13.797772,5.698831 13.798258,5.724192 13.798227,5.743426 13.798306,5.744493 13.798254,5.763608 13.79805,5.769158 13.798257,5.777761 13.798208,5.791867 13.798207,5.804042 13.79812,5.814924 13.798048,5.824889 13.798246,5.83156 13.79826,5.836057 13.798224,5.842662 13.79819,5.845492 13.798196,5.863314 13.523067,5.863314 13.523138,5.836057 13.523126,5.832108 13.523235,5.82489 13.523329,5.817257 13.523342,5.807503 13.52331,5.803501 13.523257,5.791555 13.523175,5.778886 13.523439,5.776671 13.523459,5.768958 13.523317,5.764846 13.523231,5.743187 13.523439,5.724025 13.523707,5.716422 13.523263,5.699387 13.523676,5.679757 13.523675,5.663602 13.522979,5.606846 13.468099,5.608026 13.457743,5.607938 13.451944,5.608024 13.432314,5.608439 13.410215,5.608264 13.386023,5.608206 13.37043,5.608178 13.366857,5.608384 13.362745,5.608242 13.355031,5.608261 13.352817,5.608165 13.337462,5.608228 13.325977,5.608516 13.31625,5.608521 13.314444,5.608372 13.306811,5.608465 13.300141,5.608588 13.268388,5.608634 13.268387,5.537333 13.268387,5.333505 13.28621,5.333511 13.28904,5.333475 13.293797,5.333235 13.302014,5.333213 13.304958,5.333445 13.312031,5.333373 13.322161,5.333421 13.334663,5.333434 13.341558,5.333326 13.346982,5.33366 13.354928,5.333525 13.36004,5.333295 13.360428,5.333414 13.380145,5.33378 13.395634,5.33379 13.413723,5.333167" style="fill: white" /><polygon type="contour" points="13.79796,6.310894 13.797963,6.339368 13.797963,6.413016 13.797975,6.742751 13.798028,7.29978 13.718787,7.295038 13.639365,7.271676 13.519277,7.260624 13.520541,6.847542 13.521486,6.523619 13.521688,6.400677 13.521741,6.374688 13.521701,6.369411 13.522117,6.309833 13.522123,6.306814 13.522164,6.298743 13.797956,6.298743" style="fill: white" /><polygon type="contour" points="13.79819,13.286211 13.798224,13.289041 13.798467,13.293799 13.798489,13.302016 13.798489,13.307672 13.798224,13.316467 13.798418,13.327101 13.798376,13.340885 13.798119,13.345017 13.798124,13.367753 13.798256,13.368664 13.798306,13.38721 13.798228,13.388277 13.798257,13.407511 13.797772,13.432871 13.798045,13.457075 13.798377,13.479691 13.798164,13.499819 13.797962,13.507813 13.79828,13.516575 13.798017,13.521661 13.79801,13.798011 13.533977,13.798252 13.524085,13.79789 13.509372,13.797897 13.49066,13.798237 13.469341,13.798043 13.445696,13.798256 13.440793,13.797981 13.421168,13.798189 13.413723,13.798536 13.39565,13.79826 13.370083,13.798396 13.357739,13.798185 13.345522,13.797978 13.342385,13.798116 13.342094,13.79799 13.324089,13.797987 13.321139,13.798158 13.311222,13.798196 13.30385,13.798154 13.298042,13.798091 13.268388,13.798198 13.268388,13.52307 13.295645,13.523141 13.299593,13.523129 13.306812,13.523239 13.314443,13.523331 13.324197,13.523345 13.327661,13.523313 13.339485,13.523258 13.352817,13.523177 13.355032,13.523442 13.362744,13.523462 13.366856,13.52332 13.370429,13.523525 13.392514,13.523471 13.410216,13.52344 13.432314,13.523265 13.437666,13.523563 13.451944,13.523678 13.457742,13.523765 13.4681,13.523677 13.522979,13.524865 13.523675,13.468102 13.523676,13.451946 13.523263,13.432315 13.523439,13.412757 13.523439,13.407678 13.523497,13.383818 13.523317,13.366857 13.523459,13.362745 13.523438,13.355033 13.523536,13.352817 13.523473,13.337463 13.523185,13.325978 13.523197,13.314709 13.523236,13.306814 13.523112,13.300142 13.523067,13.268389 13.798196,13.268389" style="fill: white" /><polygon type="contour" points="13.797773,12.063706 13.7979,12.283733 13.797991,12.544718 13.797934,12.756391 13.7979,12.768379 13.797947,12.828509 13.797957,12.832958 13.522164,12.832958 13.522123,12.824886 13.522117,12.821867 13.521701,12.762292 13.521741,12.757015 13.521687,12.731026 13.520634,12.488977 13.520541,12.284158 13.51962,12.055051 13.519151,11.870965 13.640041,11.860909 13.797823,11.832495" style="fill: white" /><polygon type="contour" points="15.752873,11.834494 15.957883,11.835977 15.957641,12.066733 15.957927,12.39917 15.958092,12.693951 15.958079,12.755969 15.957456,12.820743 15.957454,12.8245 15.957457,12.832958 15.891142,12.832989 15.719488,12.832989 15.719674,12.831791 15.720144,12.504946 15.719677,11.987484 15.719625,11.924042 15.719616,11.831584" style="fill: white" /><polygon type="contour" points="15.021711,12.521606 15.021678,12.658551 15.021537,12.756781 15.021602,12.763817 15.021159,12.822146 15.021167,12.832958 15.008018,12.832958 14.952022,12.833592 14.605437,12.833592 14.564843,12.832957 14.564849,12.822983 14.564852,12.820807 14.565135,12.753504 14.565072,12.605488 14.564891,12.348539 14.564891,11.868413 14.670213,11.874552 14.688759,11.876281 14.720654,11.860985 14.7337,11.868298 14.752676,11.860538 14.790155,11.868868 15.022109,11.851514" style="fill: white" /><polygon type="contour" points="15.022005,13.299934 15.022052,13.307685 15.021973,13.31627 15.021652,13.324789 15.021878,13.332989 15.021858,13.340396 15.021677,13.361906 15.021855,13.370884 15.021576,13.380671 15.021576,13.563083 15.021778,13.57259 15.021529,13.584637 15.021318,13.599192 15.02159,13.61622 15.021319,13.635841 15.021567,13.797886 14.973132,13.797804 14.760326,13.798139 14.733699,13.798194 14.688759,13.798286 14.565114,13.798336 14.565014,13.734636 14.56497,13.726187 14.565097,13.716714 14.565132,13.704806 14.565013,13.688951 14.565059,13.673546 14.564892,13.657752 14.564892,13.356472 14.565054,13.34831 14.565054,13.338154 14.565078,13.327459 14.565036,13.317159 14.565072,13.307956 14.56517,13.300352 14.564954,13.294836 14.565043,13.268704 14.606924,13.268704 14.688758,13.268961 14.797714,13.26884 15.021813,13.268389" style="fill: white" /><polygon type="contour" points="15.862668,13.301919 15.862451,13.309535 15.862621,13.319222 15.862691,13.330612 15.862905,13.34444 15.862868,13.35925 15.862651,13.368685 15.862805,13.37321 15.862699,13.374393 15.862699,13.394056 15.862273,13.413948 15.862437,13.414763 15.86228,13.464507 15.957654,13.464957 15.975543,13.465036 15.977227,13.465066 16.053078,13.465178 16.053078,13.69347 16.052831,13.798132 15.974265,13.797853 15.890813,13.798214 15.862686,13.798011 15.796627,13.798011 15.719587,13.798091 15.719643,13.766054 15.719616,13.757657 15.719577,13.744085 15.71967,13.722357 15.719618,13.685751 15.719709,13.357521 15.719742,13.346325 15.719834,13.341106 15.719801,13.334193 15.71962,13.322512 15.719867,13.312181 15.719876,13.30385 15.71979,13.298045 15.719762,13.295647 15.719597,13.289646 15.719738,13.276232 15.719697,13.268389 15.862496,13.268389" style="fill: white" /><polygon type="contour" points="16.052831,15.719631 16.052665,15.885043 16.052916,15.996534 16.052916,16.052918 15.808117,16.053175 15.806665,16.052924 15.71952,16.052722 15.719929,15.974268 15.719929,15.895407 15.719815,15.892741 15.719842,15.862643 15.719842,15.719845 15.862642,15.719845 15.892741,15.719817 15.974265,15.719932 15.978089,15.719607" style="fill: white" /><polygon type="contour" points="15.862673,14.578218 15.862584,14.688759 15.862492,14.7337 15.862589,14.760327 15.862773,15.021568 15.742437,15.021569 15.719972,15.021569 15.719972,14.969257 15.719788,14.760327 15.719783,14.688759 15.719871,14.581058 15.719871,14.565115 15.862685,14.565115" style="fill: white" /><polygon type="contour" points="15.02173,14.565115 15.02173,14.581058 15.021702,14.688759 15.021653,14.760327 15.021567,15.021568 14.716371,15.021732 14.688758,15.021704 14.565114,15.021732 14.564968,14.810504 14.564968,14.688759 14.565114,14.565115 14.57978,14.565115 14.688759,14.564969 14.810502,14.564969" style="fill: white" /><polygon type="contour" points="14.760325,15.719789 14.969255,15.719973 15.021567,15.719973 15.021567,15.862776 14.977888,15.862787 14.760325,15.862591 14.733699,15.862495 14.688759,15.862587 14.578217,15.862676 14.565114,15.862688 14.565114,15.719874 14.581057,15.719874 14.688758,15.719785" style="fill: white" /><polygon type="contour" points="12.833756,15.887336 12.833999,15.957833 12.826511,15.957841 12.820897,15.957843 12.75753,15.957442 12.548613,15.957521 12.087422,15.9579 12.052999,15.957795 11.851081,15.957794 11.862135,15.905414 11.831839,15.719814 12.395094,15.719962 12.831409,15.719737 12.832987,15.71949" style="fill: white" /><polygon type="contour" points="13.370897,15.719759 13.387209,15.719809 13.40479,15.719905 13.420692,15.719854 13.425864,15.720136 13.61055,15.720058 13.798076,15.720145 13.798076,15.74714 13.79801,15.862688 13.798212,15.890814 13.797852,15.895405 13.797852,15.974268 13.798104,15.978093 13.798131,16.052833 13.693469,16.05308 13.465177,16.05308 13.465034,15.975545 13.464956,15.957657 13.465047,15.861314 13.394112,15.862825 13.374428,15.862825 13.373209,15.862808 13.368618,15.862783 13.357478,15.862749 13.342784,15.862668 13.330336,15.862693 13.318673,15.86248 13.308829,15.862558 13.301918,15.862671 13.268388,15.862499 13.268388,15.719699 13.306575,15.719657" style="fill: white" /><polygon type="contour" points="13.351944,14.56502 13.650139,14.56502 13.6646,14.564921 13.68018,14.564912 13.696097,14.565106 13.709828,14.565029 13.721673,14.564962 13.730884,14.565048 13.798335,14.565115 13.798335,14.579781 13.798285,14.688759 13.798191,14.733701 13.798138,14.760327 13.797882,15.021568 13.675144,15.021592 13.662916,15.021748 13.642743,15.021228 13.622147,15.021118 13.605649,15.021446 13.588603,15.021728 13.575785,15.02188 13.39115,15.02188 13.382574,15.021577 13.373559,15.021855 13.364664,15.021958 13.342502,15.022065 13.335022,15.021807 13.327391,15.021973 13.319186,15.0217 13.310478,15.021848 13.302072,15.021965 13.295645,15.022021 13.268388,15.021815 13.268703,14.760239 13.26896,14.68876 13.268703,14.565044 13.296776,14.565125 13.302845,14.565135 13.311443,14.565083 13.321612,14.565105 13.332305,14.565116 13.342907,14.564898" style="fill: white" /><polygon type="contour" points="12.832956,14.572597 12.83359,14.605438 12.83359,14.952025 12.832956,15.02117 12.826991,15.021162 12.822144,15.021162 12.763815,15.021605 12.763014,15.021593 12.75685,15.021585 12.65323,15.021585 12.379825,15.021526 12.198168,15.021481 11.84946,15.021481 11.866845,14.787114 11.859076,14.753047 11.868296,14.7337 11.860984,14.720654 11.876279,14.68876 11.857535,14.565052 12.376636,14.565052 12.725411,14.565111 12.753922,14.565124 12.820859,14.564854 12.822981,14.564851 12.832956,14.564846" style="fill: white" /><polygon type="contour" points="12.284157,13.520542 12.608083,13.521489 12.731024,13.521688 12.757013,13.521742 12.76229,13.521702 12.821865,13.522121 12.824884,13.522127 12.832956,13.522168 12.832956,13.79796 12.822981,13.797952 12.768377,13.797903 12.756389,13.797936 12.544715,13.797992 12.283731,13.797902 12.063705,13.797775 11.832493,13.797825 11.838321,13.719239 11.860907,13.640044 11.871079,13.519278" style="fill: white" /><polygon type="contour" points="7.271675,13.639367 7.299778,13.798029 7.067694,13.798022 6.827763,13.798079 6.58687,13.798109 6.375301,13.79797 6.363322,13.797903 6.303193,13.79795 6.29874,13.79796 6.29874,13.522167 6.306811,13.522126 6.30983,13.52212 6.36941,13.521702 6.374687,13.521742 6.400674,13.521689 6.642724,13.520636 6.847541,13.520543 7.07665,13.519621 7.260737,13.519153" style="fill: white" /><polygon type="contour" points="5.412462,11.838322 5.491657,11.860909 5.612424,11.87108 5.61116,12.284158 5.610212,12.608085 5.610012,12.731026 5.60996,12.757016 5.61,12.762292 5.609582,12.821867 5.609577,12.824886 5.609536,12.832958 5.333742,12.832958 5.333749,12.822983 5.3338,12.76838 5.333767,12.756392 5.333709,12.544717 5.333798,12.283734 5.333926,12.063706 5.333876,11.832495" style="fill: white" /><polygon type="contour" points="4.341547,11.868867 4.379024,11.860538 4.398,11.868297 4.411047,11.860985 4.442941,11.876281 4.56681,11.868413 4.56681,12.348539 4.566629,12.605488 4.566566,12.753504 4.566845,12.820807 4.566849,12.822983 4.566855,12.832958 4.559104,12.832958 4.52626,12.833592 4.179675,12.833592 4.11053,12.832958 4.110539,12.822146 4.110097,12.763816 4.110161,12.756781 4.11002,12.658551 4.110175,12.379827 4.110221,12.198169 4.110008,11.850723" style="fill: white" /><polygon type="contour" points="3.411964,12.131552 3.411964,12.831411 3.412212,12.832988 3.244366,12.833759 3.17387,12.834001 3.173861,12.824847 3.173854,12.807382 3.173608,12.693951 3.173773,12.39917 3.17406,12.066733 3.173817,11.835977 3.378825,11.834494 3.412082,11.831584" style="fill: white" /><polygon type="contour" points="3.411956,13.31738 3.41208,13.322512 3.411943,13.331283 3.411933,13.341443 3.411958,13.346326 3.411995,13.372276 3.412028,13.373655 3.412075,13.390012 3.412035,13.404739 3.412171,13.416974 3.412056,13.425983 3.411863,13.573284 3.411557,13.798077 3.38456,13.798077 3.269013,13.798011 3.240887,13.798214 3.236297,13.797853 3.157434,13.797853 3.153609,13.798106 3.078869,13.798132 3.078623,13.69347 3.078623,13.465178 3.156156,13.465036 3.174043,13.464958 3.269275,13.46505 3.268877,13.44512 3.27009,13.444645 3.269,13.394056 3.269268,13.371922 3.269144,13.370898 3.269275,13.366574 3.269026,13.357386 3.268796,13.34444 3.269009,13.330611 3.269078,13.319221 3.269249,13.309536 3.26903,13.301919 3.269203,13.268389 3.412002,13.268389" style="fill: white" /><polygon type="contour" points="4.333985,13.26884 4.442941,13.268961 4.566657,13.268704 4.566745,13.294835 4.566529,13.300352 4.566627,13.307956 4.566665,13.317158 4.566621,13.327459 4.566646,13.338154 4.566646,13.34831 4.566808,13.356472 4.566808,13.657753 4.566784,13.673128 4.566687,13.68895 4.566732,13.703723 4.566667,13.716881 4.56673,13.726188 4.566586,13.798336 4.551919,13.798336 4.44294,13.798286 4.398,13.798194 4.371373,13.798139 4.110133,13.797886 4.11024,13.692504 4.110324,13.678012 4.109798,13.657512 4.110056,13.635841 4.11011,13.616219 4.110381,13.599193 4.110171,13.584637 4.109922,13.57259 4.110124,13.56232 4.110124,13.379908 4.109844,13.370884 4.110021,13.363047 4.109841,13.341239 4.109821,13.332989 4.110048,13.324789 4.109473,13.31627 4.109645,13.307685 4.109693,13.299934 4.109885,13.268389 4.190908,13.268389" style="fill: white" /><polygon type="contour" points="5.608562,13.295646 5.608573,13.299594 5.608463,13.306814 5.608371,13.314444 5.608357,13.3242 5.608389,13.327661 5.608072,13.339486 5.608163,13.352817 5.60826,13.355033 5.60824,13.362745 5.608382,13.366857 5.608468,13.388516 5.608262,13.407679 5.607992,13.415281 5.608436,13.432316 5.608022,13.451946 5.608024,13.468102 5.608728,13.524865 5.6636,13.523677 5.673956,13.523765 5.679755,13.523678 5.699385,13.523265 5.716419,13.523709 5.724023,13.52344 5.747883,13.523497 5.761271,13.523525 5.764843,13.52332 5.768955,13.523462 5.776668,13.523442 5.778883,13.523177 5.794235,13.523104 5.805721,13.523187 5.81545,13.523183 5.817256,13.523331 5.824887,13.523239 5.831558,13.523114 5.863312,13.523069 5.863312,13.798198 5.833657,13.798091 5.827849,13.798154 5.819521,13.798125 5.809187,13.798121 5.803499,13.798209 5.790139,13.798379 5.782936,13.798492 5.773679,13.798022 5.77165,13.798406 5.77127,13.798289 5.751553,13.797922 5.736064,13.797913 5.717979,13.798536 5.71053,13.798189 5.690907,13.797981 5.686004,13.798256 5.662359,13.798044 5.642664,13.798305 5.623888,13.797963 5.609353,13.798339 5.600032,13.798257 5.333691,13.798011 5.333682,13.52166 5.333419,13.516575 5.333739,13.507813 5.333535,13.499819 5.333323,13.479691 5.333655,13.457074 5.333929,13.432871 5.333441,13.407512 5.33347,13.388277 5.333393,13.38721 5.333444,13.370898 5.333653,13.369348 5.333575,13.366574 5.333649,13.364501 5.333328,13.357387 5.333491,13.341239 5.333493,13.327661 5.333578,13.316778 5.333651,13.306813 5.333428,13.300278 5.333502,13.268389 5.608633,13.268389" style="fill: white" /><polygon type="contour" points="5.799395,14.565116 5.80936,14.565105 5.819774,14.564943 5.828255,14.564957 5.834609,14.56508 5.862997,14.565045 5.862997,14.606926 5.862738,14.688759 5.862859,14.797716 5.863312,15.021815 5.836054,15.022021 5.829626,15.021964 5.821221,15.021848 5.812513,15.0217 5.804309,15.021973 5.796677,15.021807 5.790461,15.021859 5.768654,15.021679 5.758138,15.021857 5.749123,15.021577 5.566714,15.021577 5.555913,15.02188 5.54818,15.021531 5.543098,15.021729 5.527964,15.021968 5.509552,15.021119 5.488956,15.021228 5.468782,15.021748 5.456556,15.021593 5.333818,15.021568 5.333899,14.973133 5.333562,14.760327 5.333507,14.7337 5.333416,14.68876 5.333366,14.579781 5.333366,14.565115 5.400817,14.565048 5.410025,14.564962 5.421871,14.565029 5.435884,14.56498 5.45152,14.564913 5.4671,14.564921 5.481561,14.56502 5.779754,14.56502 5.788793,14.564898" style="fill: white" /><polygon type="contour" points="6.308714,14.564851 6.310836,14.564854 6.374909,14.565035 6.402536,14.565025 6.745396,14.565001 7.274166,14.565052 7.259254,14.66882 7.25542,14.688759 7.273102,14.721383 7.263402,14.7337 7.272621,14.753048 7.264852,14.787114 7.281709,15.021543 6.617705,15.021543 6.47847,15.021585 6.374849,15.021585 6.368686,15.021592 6.367886,15.021605 6.30955,15.021163 6.29874,15.021171 6.29874,15.008022 6.298106,14.952026 6.298106,14.605439 6.29874,14.564846" style="fill: white" /><polygon type="contour" points="6.315103,15.719465 6.332498,15.719931 6.345364,15.719645 6.358067,15.719732 6.499786,15.719788 6.882467,15.719634 7.196097,15.719628 7.293058,15.719596 7.286365,15.752875 7.295725,15.957886 7.064968,15.957643 6.732147,15.957544 6.43705,15.957507 6.375092,15.957441 6.310955,15.957459 6.307197,15.957457 6.29874,15.95746 6.29874,15.751729 6.298762,15.741828 6.298762,15.719438" style="fill: white" /><polygon type="contour" points="5.360519,15.719627 5.365648,15.719646 5.374045,15.719619 5.387927,15.719623 5.413074,15.719631 5.445951,15.719621 5.779993,15.719744 5.791865,15.719712 5.803426,15.71986 5.814922,15.719624 5.818281,15.719652 5.824222,15.71981 5.831558,15.719749 5.836053,15.719763 5.841907,15.719598 5.855468,15.719739 5.863312,15.719699 5.863312,15.862499 5.829781,15.862671 5.82287,15.862558 5.813026,15.86248 5.801089,15.862693 5.790461,15.862511 5.776048,15.862558 5.765189,15.862558 5.760802,15.862559 5.75978,15.862435 5.738125,15.862702 5.722156,15.862366 5.666652,15.863137 5.666744,15.957658 5.666666,15.975544 5.666636,15.977231 5.666521,16.05308 5.43823,16.05308 5.333569,16.052834 5.333848,15.974268 5.333489,15.890813 5.333691,15.862688 5.333691,15.796631 5.333613,15.71959" style="fill: white" /><polygon type="contour" points="4.550642,15.719874 4.566586,15.719874 4.566586,15.862687 4.553484,15.862677 4.442941,15.862587 4.398,15.862495 4.371373,15.862592 4.110133,15.862776 4.110133,15.719973 4.162444,15.719973 4.371374,15.719789 4.442941,15.719785" style="fill: white" /><polygon type="contour" points="4.566586,14.565115 4.566586,14.579782 4.566734,14.688759 4.566734,14.810504 4.566586,15.021732 4.550642,15.021732 4.44294,15.021704 4.371374,15.021655 4.110133,15.021568 4.109971,14.716373 4.109998,14.688759 4.109971,14.565115 4.321197,14.564969 4.442941,14.564969" style="fill: white" /><polygon type="contour" points="3.411829,14.581058 3.411915,14.688759 3.411909,14.760327 3.411727,14.969256 3.411727,15.021568 3.268927,15.021568 3.268917,14.977889 3.269111,14.760327 3.269208,14.7337 3.269116,14.688759 3.269025,14.578218 3.269014,14.565115 3.411829,14.565115" style="fill: white" /><polygon type="contour" points="3.157433,15.719932 3.236297,15.719932 3.23896,15.719818 3.269057,15.719845 3.411858,15.719845 3.411858,15.862644 3.411885,15.892743 3.411771,15.974267 3.412095,15.978093 3.41218,16.052722 3.325035,16.052924 3.323581,16.053175 3.078783,16.052918 3.078783,15.996534 3.079032,15.885043 3.078869,15.719631" style="fill: white" />
</svg>
