<svg width="19.131698" height="19.131699">
<polygon type="contour" points="9.559058,9.288735 9.601126,9.289989 9.626775,9.294739 9.643931,9.298903 9.647197,9.299618 9.656371,9.303066 9.690367,9.318563 9.715823,9.333233 9.730857,9.343262 9.740076,9.351217 9.759047,9.366678 9.76594,9.373561 9.788606,9.403727 9.795241,9.41094 9.806993,9.430414 9.818018,9.451921 9.824646,9.468754 9.834137,9.495934 9.83709,9.513927 9.841838,9.542401 9.842385,9.56662 9.841723,9.589302 9.83866,9.611645 9.8336,9.635501 9.82637,9.658634 9.818133,9.679671 9.801948,9.708606 9.795241,9.720762 9.781602,9.738867 9.7657,9.75712 9.734932,9.786113 9.731256,9.789285 9.709312,9.803839 9.693949,9.812901 9.691093,9.814636 9.671814,9.822589 9.647328,9.831287 9.642642,9.832296 9.601199,9.841715 9.59637,9.84193 9.5543,9.843186 9.546311,9.842448 9.5074,9.83694 9.483905,9.830257 9.462659,9.822376 9.429766,9.80593 9.420738,9.802035 9.398869,9.785273 9.383176,9.773428 9.360098,9.749515 9.350456,9.739454 9.331822,9.712482 9.324067,9.701164 9.314136,9.680675 9.304561,9.65817 9.299997,9.640714 9.292663,9.612672 9.292297,9.600473 9.289182,9.565683 9.290075,9.547507 9.292663,9.519031 9.297229,9.501575 9.304561,9.473534 9.31016,9.462775 9.324698,9.431101 9.34339,9.401505 9.35026,9.391562 9.358573,9.382887 9.375334,9.364108 9.382478,9.357357 9.416187,9.332386 9.420308,9.329461 9.454009,9.313576 9.46253,9.308878 9.483906,9.301445 9.5074,9.295481 9.54947,9.289095 9.5543,9.288518" style="fill: white" />
</svg>
