<svg width="19.131698" height="19.131699">
<polygon type="contour" points="4.393201,4.210852 4.42085,4.210852 4.42085,4.309901 4.6354,4.309901 4.6354,4.181401 4.718701,4.181401 4.718701,4.309901 4.8671,4.309901 4.8671,4.210852 4.961599,4.210852 4.961599,4.181401 5.0449,4.181401 5.0449,4.210852 5.0771,4.210852 5.0771,4.309901 5.287801,4.309901 5.287801,4.181401 5.3704,4.181401 5.3704,4.309901 5.52335,4.309901 5.52335,4.210852 5.613301,4.210852 5.613301,4.181401 5.696601,4.181401 5.696601,4.210852 5.733351,4.210852 5.733351,4.309901 5.9395,4.309901 5.9395,4.181401 6.022799,4.181401 6.022799,4.309901 6.179599,4.309901 6.179599,4.210852 6.265,4.210852 6.265,4.181401 6.3483,4.181401 6.3483,4.210852 6.389601,4.210852 6.389601,4.309901 6.591201,4.309901 6.591201,4.181401 6.6745,4.181401 6.6745,4.309901 6.835849,4.309901 6.835849,4.210852 6.917399,4.210852 6.917399,4.181401 6.999999,4.181401 6.999999,4.210852 7.045851,4.210852 7.045851,4.309901 7.2429,4.309901 7.2429,4.181401 7.326199,4.181401 7.326199,4.309901 7.492099,4.309901 7.492099,4.210852 7.5691,4.210852 7.5691,4.181401 7.6524,4.181401 7.6524,4.210852 7.702101,4.210852 7.702101,4.309901 7.894599,4.309901 7.894599,4.181401 7.977898,4.181401 7.977898,4.309901 8.148349,4.309901 8.148349,4.210852 8.220799,4.210852 8.220799,4.181401 8.304099,4.181401 8.304099,4.210852 8.358351,4.210852 8.358351,4.309901 8.5463,4.309901 8.5463,4.181401 8.6296,4.181401 8.6296,4.309901 8.804599,4.309901 8.804599,4.210852 8.872499,4.210852 8.872499,4.181401 8.955798,4.181401 8.955798,4.210852 9.014602,4.210852 9.014602,4.309901 9.198699,4.309901 9.198699,4.181401 9.281299,4.181401 9.281299,4.309901 9.460849,4.309901 9.460849,4.210852 9.524199,4.210852 9.524199,4.181401 9.563119,4.182566 9.607499,4.182882 9.607499,4.210852 9.670852,4.210852 9.670852,4.309901 9.850398,4.309901 9.850398,4.181401 9.933,4.181401 9.933,4.309901 10.117099,4.309901 10.117099,4.210852 10.175899,4.210852 10.175899,4.181401 10.259202,4.181401 10.259202,4.210852 10.327102,4.210852 10.327102,4.309901 10.502101,4.309901 10.502101,4.181401 10.585401,4.181401 10.585401,4.309901 10.773349,4.309901 10.773349,4.210852 10.8276,4.210852 10.8276,4.181401 10.910901,4.181401 10.910901,4.210852 10.983352,4.210852 10.983352,4.309901 11.153802,4.309901 11.153802,4.181401 11.237102,4.181401 11.237102,4.309901 11.429599,4.309901 11.429599,4.210852 11.4793,4.210852 11.4793,4.181401 11.5626,4.181401 11.5626,4.210852 11.639602,4.210852 11.639602,4.309901 11.805501,4.309901 11.805501,4.181401 11.888801,4.181401 11.888801,4.309901 12.085849,4.309901 12.085849,4.210852 12.131701,4.210852 12.131701,4.181401 12.214301,4.181401 12.214301,4.210852 12.295852,4.210852 12.295852,4.309901 12.4572,4.309901 12.4572,4.239505 12.457201,4.225232 12.4572,4.214638 12.4572,4.181401 12.5405,4.181401 12.5405,4.309901 12.742099,4.309901 12.742099,4.210852 12.783401,4.210852 12.783401,4.181401 12.8667,4.181401 12.8667,4.210852 12.952102,4.210852 12.952102,4.309901 13.108901,4.309901 13.108901,4.239505 13.108902,4.225232 13.108901,4.214638 13.108902,4.207468 13.108901,4.181401 13.1922,4.181401 13.192201,4.214639 13.192201,4.309901 13.398349,4.309901 13.398349,4.210852 13.435101,4.210852 13.4351,4.181401 13.518399,4.181401 13.518399,4.210852 13.608352,4.210852 13.608352,4.309901 13.7613,4.309901 13.7613,4.181401 13.8439,4.181401 13.8439,4.309901 14.054599,4.309901 14.054599,4.210852 14.086801,4.210852 14.0868,4.181401 14.1701,4.181401 14.1701,4.210852 14.264602,4.210852 14.264602,4.309901 14.412999,4.309901 14.412999,4.181401 14.496299,4.181401 14.496299,4.309901 14.710849,4.309901 14.710849,4.210852 14.7385,4.210852 14.7385,4.181401 14.821799,4.181401 14.821799,4.210852 14.920852,4.210852 14.920852,4.309901 14.950301,4.309901 14.950301,4.393202 14.920852,4.393202 14.920852,4.420852 14.821799,4.420852 14.821799,4.635401 14.950301,4.635401 14.950301,4.718703 14.821799,4.718703 14.821799,4.867102 14.920852,4.867102 14.920852,4.961601 14.950301,4.961601 14.950301,5.044902 14.920852,5.044902 14.920852,5.077102 14.821799,5.077102 14.821799,5.287802 14.950301,5.287802 14.950301,5.370402 14.821799,5.370402 14.821799,5.523352 14.920852,5.523352 14.920852,5.613302 14.950301,5.613302 14.950301,5.696602 14.920852,5.696602 14.920852,5.733353 14.821799,5.733353 14.821799,5.939502 14.950301,5.939502 14.950301,6.022802 14.821799,6.022802 14.821799,6.179601 14.920852,6.179601 14.920852,6.265002 14.950301,6.265002 14.950301,6.348302 14.920852,6.348302 14.920852,6.389603 14.821799,6.389603 14.821799,6.591202 14.917062,6.591202 14.924233,6.591201 14.950301,6.591202 14.950301,6.674501 14.821799,6.674501 14.821799,6.835851 14.920852,6.835851 14.920852,6.917402 14.950301,6.917402 14.950301,7.000002 14.920852,7.000002 14.920852,7.045853 14.821799,7.045853 14.821799,7.242902 14.950301,7.242902 14.950301,7.326201 14.821799,7.326201 14.821799,7.492101 14.920852,7.492101 14.920852,7.569101 14.950301,7.569101 14.950301,7.652401 14.920852,7.652401 14.920852,7.702103 14.821799,7.702103 14.821799,7.894602 14.950301,7.894602 14.950301,7.977901 14.821799,7.977901 14.821799,8.14835 14.920852,8.14835 14.920852,8.220801 14.950301,8.220801 14.950301,8.304101 14.920852,8.304101 14.920852,8.358353 14.821799,8.358353 14.821799,8.546302 14.950301,8.546302 14.950301,8.629601 14.821799,8.629601 14.821799,8.804601 14.920852,8.804601 14.920852,8.872501 14.950301,8.872501 14.950301,8.955801 14.920852,8.955801 14.920852,9.014604 14.821799,9.014604 14.821799,9.198701 14.950301,9.198701 14.950301,9.281301 14.821799,9.281301 14.821799,9.460851 14.920852,9.460851 14.920852,9.524201 14.950301,9.524201 14.949136,9.563121 14.948821,9.607501 14.920852,9.607501 14.920852,9.670854 14.821799,9.670854 14.821799,9.850401 14.950301,9.850401 14.950301,9.933001 14.821799,9.933001 14.821799,10.117101 14.920852,10.117101 14.920852,10.1759 14.950301,10.1759 14.950301,10.259203 14.920852,10.259203 14.920852,10.327104 14.821799,10.327104 14.821799,10.502103 14.950301,10.502103 14.950301,10.585402 14.821799,10.585402 14.821799,10.773351 14.920852,10.773351 14.920852,10.8276 14.950301,10.8276 14.950301,10.910903 14.920852,10.910903 14.920852,10.983354 14.821799,10.983354 14.821799,11.153803 14.950301,11.153803 14.950301,11.237103 14.821799,11.237103 14.821799,11.429601 14.920852,11.429601 14.920852,11.479303 14.950301,11.479303 14.950301,11.562603 14.920852,11.562603 14.920852,11.639603 14.821799,11.639603 14.821799,11.805503 14.950301,11.805503 14.950301,11.888803 14.821799,11.888803 14.821799,12.085851 14.920852,12.085851 14.920852,12.131702 14.950301,12.131702 14.950301,12.214302 14.920852,12.214302 14.920852,12.295853 14.821799,12.295853 14.821799,12.457203 14.950301,12.457203 14.950301,12.540503 14.821799,12.540503 14.821799,12.742101 14.920852,12.742101 14.920852,12.783402 14.950301,12.783402 14.950301,12.866702 14.920852,12.866702 14.920852,12.952103 14.821799,12.952103 14.821799,13.108902 14.950301,13.108902 14.950301,13.192202 14.821799,13.192202 14.821799,13.398351 14.920852,13.398351 14.920852,13.435102 14.950301,13.435102 14.950301,13.518402 14.920852,13.518402 14.920852,13.608353 14.821799,13.608353 14.821799,13.761302 14.950301,13.761302 14.950301,13.843903 14.821799,13.843903 14.821799,14.054602 14.920852,14.054602 14.920852,14.0868 14.950301,14.086802 14.950301,14.170101 14.920852,14.170101 14.920852,14.264603 14.821799,14.264603 14.821799,14.413002 14.950301,14.413002 14.950301,14.496302 14.821799,14.496302 14.821799,14.710852 14.920852,14.710852 14.920852,14.738503 14.950301,14.738503 14.950301,14.821802 14.920852,14.821802 14.920852,14.920853 14.821799,14.920853 14.821799,14.950302 14.7385,14.950302 14.7385,14.920853 14.710849,14.920853 14.710849,14.821802 14.496299,14.821802 14.496299,14.950302 14.412999,14.950302 14.412999,14.821802 14.264602,14.821802 14.264602,14.920853 14.1701,14.920853 14.1701,14.950302 14.086801,14.950302 14.086801,14.920853 14.054599,14.920853 14.054599,14.821802 13.8439,14.821802 13.8439,14.950302 13.7613,14.950302 13.7613,14.821802 13.608352,14.821802 13.608352,14.920853 13.518399,14.920853 13.518399,14.950302 13.4351,14.950302 13.4351,14.920853 13.398349,14.920853 13.398349,14.821802 13.192201,14.821802 13.192201,14.950302 13.108901,14.950302 13.108901,14.821802 12.952102,14.821802 12.952102,14.920853 12.8667,14.920853 12.8667,14.950302 12.783401,14.950302 12.783401,14.920853 12.742099,14.920853 12.742099,14.821802 12.5405,14.821802 12.5405,14.950302 12.4572,14.950302 12.4572,14.821802 12.295852,14.821802 12.295852,14.920853 12.214301,14.920853 12.214301,14.950302 12.131701,14.950302 12.131701,14.920853 12.085849,14.920853 12.085849,14.821802 11.888801,14.821802 11.888801,14.950302 11.805501,14.950302 11.805501,14.821802 11.639602,14.821802 11.639602,14.920853 11.5626,14.920853 11.5626,14.950302 11.4793,14.950302 11.4793,14.920853 11.429599,14.920853 11.429599,14.821802 11.237102,14.821802 11.237102,14.950302 11.153802,14.950302 11.153802,14.821802 10.983352,14.821802 10.983352,14.920853 10.910901,14.920853 10.910901,14.950302 10.8276,14.950302 10.8276,14.920853 10.773349,14.920853 10.773349,14.821802 10.585401,14.821802 10.585401,14.950302 10.502101,14.950302 10.502101,14.821802 10.327102,14.821802 10.327102,14.920853 10.259202,14.920853 10.259202,14.950302 10.175899,14.950302 10.175899,14.920853 10.117099,14.920853 10.117099,14.821802 9.933,14.821802 9.933,14.950302 9.850398,14.950302 9.850398,14.821802 9.670852,14.821802 9.670852,14.920853 9.607499,14.920853 9.607499,14.950302 9.568578,14.949138 9.524199,14.949137 9.524199,14.920853 9.460849,14.920853 9.460849,14.821802 9.281299,14.821802 9.281299,14.950302 9.198699,14.950302 9.198699,14.821802 9.014602,14.821802 9.014602,14.920853 8.955798,14.920853 8.955798,14.950302 8.872499,14.950302 8.872499,14.920853 8.804599,14.920853 8.804599,14.821802 8.6296,14.821802 8.6296,14.950302 8.5463,14.950302 8.5463,14.821802 8.358351,14.821802 8.358351,14.920853 8.304099,14.920853 8.304099,14.950302 8.256498,14.950303 8.220799,14.950303 8.220799,14.920853 8.148349,14.920853 8.148349,14.821802 7.977898,14.821802 7.977898,14.950302 7.894599,14.950302 7.894599,14.821802 7.702101,14.821802 7.702101,14.920853 7.6524,14.920853 7.6524,14.950302 7.5691,14.950302 7.5691,14.920853 7.492099,14.920853 7.492099,14.821802 7.326199,14.821802 7.326199,14.950302 7.2429,14.950302 7.2429,14.821802 7.045851,14.821802 7.045851,14.920853 6.999999,14.920853 6.999999,14.950303 6.952798,14.950303 6.917399,14.950302 6.917399,14.920853 6.835849,14.920853 6.835849,14.821802 6.6745,14.821802 6.6745,14.950302 6.591201,14.950302 6.591201,14.8218 6.389601,14.821801 6.389601,14.920853 6.3483,14.920853 6.3483,14.950302 6.265,14.950302 6.265,14.920853 6.179599,14.920853 6.179599,14.821802 6.022799,14.821802 6.022799,14.950302 5.9395,14.950302 5.9395,14.821802 5.733351,14.821802 5.733351,14.920853 5.696601,14.920853 5.696601,14.950302 5.613301,14.950302 5.613301,14.920853 5.52335,14.920853 5.52335,14.821802 5.3704,14.821802 5.3704,14.950302 5.287801,14.950302 5.287801,14.821802 5.0771,14.821802 5.0771,14.920853 5.0449,14.920853 5.0449,14.950302 4.961599,14.950302 4.961599,14.920853 4.8671,14.920853 4.8671,14.821802 4.718701,14.821802 4.718701,14.950302 4.6354,14.950302 4.6354,14.821802 4.42085,14.821802 4.42085,14.920853 4.393201,14.920853 4.393201,14.950302 4.309899,14.950302 4.309899,14.920853 4.21085,14.920853 4.21085,14.821802 4.181399,14.821802 4.181399,14.738503 4.21085,14.738503 4.21085,14.710852 4.309899,14.710852 4.309899,14.496302 4.181399,14.496302 4.181399,14.413002 4.309899,14.413002 4.309899,14.264603 4.21085,14.264603 4.21085,14.170101 4.181399,14.170101 4.181399,14.086802 4.21085,14.086802 4.21085,14.054602 4.309899,14.054602 4.309899,13.843903 4.181399,13.843903 4.181399,13.761302 4.309899,13.761302 4.309899,13.608353 4.21085,13.608353 4.21085,13.518402 4.181399,13.518402 4.181399,13.435102 4.21085,13.435102 4.21085,13.398351 4.309899,13.398351 4.309899,13.192202 4.181399,13.192202 4.181399,13.108902 4.309899,13.108902 4.309899,12.952103 4.21085,12.952103 4.21085,12.866702 4.181399,12.866702 4.181399,12.783402 4.21085,12.783402 4.21085,12.742101 4.309899,12.742101 4.309899,12.540503 4.181399,12.540503 4.181399,12.457203 4.309899,12.457203 4.309899,12.295853 4.21085,12.295853 4.21085,12.214302 4.181399,12.214302 4.181399,12.131702 4.21085,12.131702 4.21085,12.085851 4.309899,12.085851 4.309899,11.888803 4.181399,11.888803 4.181399,11.805503 4.309899,11.805503 4.309899,11.639603 4.21085,11.639603 4.21085,11.562603 4.181399,11.562603 4.181399,11.479303 4.21085,11.479303 4.21085,11.429601 4.309899,11.429601 4.309899,11.237103 4.181399,11.237103 4.181399,11.153803 4.309899,11.153803 4.309899,10.983354 4.21085,10.983354 4.21085,10.910903 4.181399,10.910903 4.181399,10.8276 4.21085,10.8276 4.210851,10.773351 4.309899,10.773351 4.309899,10.585402 4.181399,10.585402 4.181399,10.502103 4.309899,10.502103 4.309899,10.327104 4.21085,10.327104 4.21085,10.259203 4.181399,10.259203 4.181399,10.1759 4.21085,10.1759 4.21085,10.117101 4.309898,10.117101 4.309898,9.933001 4.181399,9.933001 4.181399,9.850401 4.309899,9.850401 4.309899,9.670854 4.21085,9.670854 4.21085,9.607501 4.181399,9.607501 4.182425,9.568681 4.182741,9.524201 4.21085,9.524201 4.21085,9.460851 4.309898,9.460851 4.309897,9.281301 4.181399,9.281301 4.181399,9.198701 4.309899,9.198701 4.309899,9.014604 4.21085,9.014604 4.21085,8.955801 4.181399,8.955801 4.181399,8.872501 4.21085,8.872501 4.21085,8.804601 4.309899,8.804601 4.309899,8.629601 4.181399,8.629601 4.181399,8.546302 4.309899,8.546302 4.309899,8.358353 4.21085,8.358353 4.21085,8.304101 4.181399,8.304101 4.181399,8.220801 4.21085,8.220801 4.21085,8.14835 4.309899,8.14835 4.309899,7.977901 4.181399,7.977901 4.181399,7.894602 4.309899,7.894602 4.309899,7.702103 4.21085,7.702103 4.21085,7.652401 4.181399,7.652401 4.181399,7.569101 4.21085,7.569101 4.21085,7.492101 4.309899,7.492101 4.309899,7.326201 4.181399,7.326201 4.181399,7.242902 4.309899,7.242902 4.309899,7.045853 4.21085,7.045853 4.21085,7.000002 4.181399,7.000002 4.181399,6.917402 4.21085,6.917402 4.21085,6.835851 4.309899,6.835851 4.309899,6.674501 4.181399,6.674501 4.181399,6.591202 4.309899,6.591202 4.309899,6.389603 4.21085,6.389603 4.21085,6.348302 4.181399,6.348302 4.181399,6.265002 4.21085,6.265002 4.21085,6.179601 4.309899,6.179601 4.309899,6.022802 4.181399,6.022802 4.181399,5.939502 4.309899,5.939502 4.309899,5.733353 4.21085,5.733353 4.21085,5.696602 4.181399,5.696602 4.181399,5.613302 4.21085,5.613302 4.21085,5.523352 4.309899,5.523352 4.309899,5.370402 4.181399,5.370402 4.181399,5.287802 4.309899,5.287802 4.309899,5.077102 4.21085,5.077102 4.21085,5.044902 4.181399,5.044902 4.181399,4.961601 4.21085,4.961601 4.21085,4.867102 4.309899,4.867102 4.309899,4.718703 4.181399,4.718703 4.181399,4.635401 4.309899,4.635401 4.309899,4.420852 4.21085,4.420852 4.21085,4.393202 4.181399,4.393202 4.181399,4.309901 4.21085,4.309901 4.21085,4.210852 4.309899,4.210852 4.309899,4.181401 4.393201,4.181401" style="fill: white" /><polygon type="hole" points="7.001788,6.893302 6.98186,6.893302 6.894671,6.894761 6.8933,6.968948 6.8933,6.977066 6.893306,6.98566 6.89346,7.001922 6.893188,7.011909 6.8933,7.015442 6.8933,7.658442 6.893669,7.702352 6.893669,7.896819 6.893991,7.927876 6.894037,7.960659 6.894037,8.154019 6.894406,8.197929 6.894406,8.745122 6.894673,8.768803 6.894775,8.807114 6.894775,9.296826 6.895145,9.340737 6.895145,9.534835 6.895355,9.545769 6.895527,9.566201 6.895645,9.582771 6.895355,9.586294 6.895145,9.597198 6.895145,9.791297 6.894775,9.835208 6.894775,10.324589 6.894673,10.362898 6.894406,10.386583 6.894406,10.579943 6.894037,10.623854 6.894037,11.171044 6.893991,11.203827 6.893669,11.234884 6.893669,11.429351 6.8933,11.473261 6.8933,12.116259 6.893189,12.119793 6.89346,12.129781 6.893306,12.145737 6.894786,12.237171 6.975513,12.238208 6.985657,12.238395 7.00192,12.238242 7.011907,12.238512 7.015439,12.238402 7.65844,12.238402 7.70235,12.238033 7.896817,12.238033 7.927874,12.237709 7.960657,12.237664 8.468459,12.237664 8.507847,12.237665 8.551759,12.237296 8.745119,12.237296 8.768803,12.237027 8.807112,12.236926 8.904161,12.236926 9.179546,12.236925 9.296824,12.236925 9.340734,12.236556 9.534833,12.236556 9.545766,12.236347 9.566199,12.236173 9.582768,12.236056 9.586291,12.236347 9.597195,12.236556 9.791295,12.236556 9.835206,12.236925 10.324586,12.236925 10.362895,12.237028 10.386581,12.237295 10.579941,12.237295 10.623851,12.237664 11.171042,12.237664 11.203825,12.237709 11.234882,12.238033 11.429349,12.238033 11.473259,12.238402 12.116258,12.238402 12.119792,12.238512 12.12978,12.238242 12.145736,12.238395 12.17899,12.237663 12.236691,12.236927 12.238206,12.156188 12.238394,12.145737 12.23824,12.129781 12.23851,12.119793 12.2384,12.11626 12.2384,11.433873 12.238031,11.389962 12.238031,11.195495 12.237663,11.131656 12.237663,10.348468 12.237294,10.304557 12.237294,10.111197 12.236924,10.049203 12.236924,9.854736 12.236555,9.810825 12.236555,9.597198 12.236345,9.586293 12.236172,9.566202 12.236054,9.549351 12.236345,9.545769 12.236555,9.534835 12.236555,9.340737 12.236924,9.296826 12.236924,9.10236 12.237294,9.040366 12.237294,8.847005 12.237663,8.803094 12.237663,8.609735 12.238031,8.545895 12.238031,7.74174 12.2384,7.69783 12.2384,7.015442 12.238511,7.011909 12.23824,7.001922 12.238393,6.98566 12.237089,6.894613 12.156187,6.893495 12.145736,6.893308 12.12978,6.893462 12.119792,6.893192 12.116258,6.893302 11.433871,6.893302 11.389961,6.893671 11.195493,6.893671 11.131654,6.89404 10.348467,6.89404 10.304554,6.894408 10.111194,6.894408 10.049202,6.894777 9.854734,6.894777 9.810823,6.895147 9.597195,6.895147 9.586291,6.895357 9.566199,6.89553 9.549348,6.895648 9.545766,6.895357 9.534834,6.895147 9.340734,6.895147 9.296824,6.894777 9.082496,6.894777 9.020504,6.894408 8.827144,6.894408 8.783231,6.89404 8.000044,6.89404 7.936206,6.893671 7.741738,6.893671 7.697827,6.893302 7.015439,6.893302 7.007895,6.893067" style="fill: black" />
</svg>
