<svg width="19.131698" height="19.131699">
<polygon type="contour" points="13.15948,6.079285 13.161485,6.263668 12.983307,6.26682 12.983261,6.32531 12.983509,7.325063 12.983509,7.70848 12.983484,7.791092 13.093097,7.790916 13.157881,7.790916 13.158401,7.830987 13.160888,8.077072 12.93349,8.08031 12.864788,8.081285 12.796286,8.081302 12.662143,8.081254 11.562288,8.081254 11.520313,8.081296 11.340785,8.081416 11.321579,8.080461 11.059916,8.071785 11.062696,7.895754 11.051239,7.810121 11.050285,7.790916 11.050403,7.611389 11.050447,7.569414 11.050447,6.46956 11.050399,6.335413 11.050417,6.266911 11.051366,6.198448 11.054586,5.97068 11.300712,5.973299 11.340785,5.97382 11.340785,6.038604 11.340758,6.148503 11.409865,6.148442 12.806388,6.148442 12.864863,6.148396 12.864736,5.974006 12.917391,5.973918 13.16319,5.968512" style="fill: white" /><polygon type="contour" points="6.237104,5.972538 6.266909,5.973782 6.26685,6.148396 6.325308,6.148442 7.721834,6.148442 7.790938,6.148503 7.790915,5.97382 7.84639,5.973393 8.077071,5.970813 8.080308,6.198212 8.081282,6.266911 8.081301,6.335414 8.081251,6.469559 8.081251,7.569414 8.081342,7.714529 8.081415,7.790916 8.080352,7.835141 8.070867,7.952776 8.071783,8.071785 7.895751,8.069006 7.81012,8.080461 7.790914,8.081416 7.611386,8.081296 7.569412,8.081254 6.469557,8.081254 6.335412,8.081302 6.266908,8.081285 6.198446,8.080337 5.970678,8.077116 5.973299,7.830988 5.973819,7.790916 6.038602,7.790916 6.1485,7.790942 6.14844,7.721836 6.14844,6.325309 6.148393,6.26682 5.970215,6.263668 5.97222,6.079285 5.96851,5.968512 6.047956,5.959832" style="fill: white" /><polygon type="contour" points="7.83514,11.05135 7.952775,11.060833 8.071783,11.059918 8.080351,11.29656 8.081415,11.340788 8.081342,11.417174 8.081251,11.562289 8.081251,12.662145 8.081301,12.796287 8.081283,12.86479 8.080335,12.933254 8.077115,13.161024 7.846152,13.158361 7.790915,13.157884 7.79106,12.983485 7.708477,12.983511 6.646306,12.983262 6.325307,12.983262 6.266833,12.983308 6.266962,13.157698 6.214309,13.157786 5.96851,13.163192 5.97222,13.052418 5.970215,12.868035 6.148393,12.864881 6.14844,12.806392 6.14844,11.409867 6.1485,11.340763 5.973819,11.340788 5.973392,11.28531 5.970811,11.05463 6.19821,11.051392 6.266908,11.050419 6.335411,11.050401 6.469558,11.050448 7.569413,11.050448 7.714527,11.05036 7.790914,11.050288" style="fill: white" /><polygon type="contour" points="11.520313,11.050406 11.562288,11.050448 12.662142,11.050448 12.796287,11.050401 12.86479,11.050419 12.933254,11.051368 13.161023,11.054588 13.158359,11.285549 13.157881,11.340788 13.047927,11.340788 12.983484,11.340673 12.983509,11.423223 12.983261,12.485393 12.983261,12.806392 12.983307,12.864881 13.161486,12.868035 13.15948,13.052418 13.16319,13.163191 13.083744,13.171871 12.894593,13.159166 12.864789,13.157922 12.864845,12.983308 12.806389,12.983262 12.48539,12.983262 11.423222,12.983511 11.340641,12.983485 11.340785,13.157884 11.300713,13.158404 11.054629,13.16089 11.05139,12.93349 11.050417,12.86479 11.050399,12.796288 11.050447,12.662144 11.050447,11.562289 11.050403,11.520314 11.050286,11.340787 11.051239,11.321583 11.059916,11.059918 11.235948,11.062698 11.321579,11.051243 11.340785,11.050288" style="fill: white" />
</svg>
