<svg width="19.131698" height="19.131699">
<polygon type="contour" points="16.073499,16.585949 15.92468,16.586069 15.877812,16.586108 15.877812,16.50556 15.878003,16.44323 15.965303,16.443148 16.073499,16.443148" style="fill: white" /><polygon type="contour" points="16.776069,16.442869 16.775954,16.558779 16.776349,16.735783 16.776349,16.776352 16.60022,16.776536 16.599175,16.776356 16.442791,16.775993 16.443077,16.721018 16.443077,16.665758 16.442997,16.663891 16.443036,16.621683 16.443061,16.603703 16.443147,16.585948 16.443147,16.443149 16.585947,16.443149 16.6037,16.443063 16.621681,16.443038 16.663889,16.443 16.721015,16.44308 16.723695,16.442852" style="fill: white" /><polygon type="contour" points="16.586026,15.976538 16.585947,16.0735 16.443146,16.0735 16.443227,15.97454 16.443227,15.878004 16.515442,15.878004 16.586104,15.877815" style="fill: white" /><polygon type="contour" points="16.073303,15.878004 16.073499,15.965304 16.073499,16.0735 15.97454,16.073305 15.878003,16.073305 15.878003,15.974539 15.877812,15.877815 15.987972,15.877815" style="fill: white" /><polygon type="contour" points="14.213838,14.822768 14.52151,14.822916 14.52151,15.034498 14.521327,15.155318 14.230025,15.155318 14.047296,15.154809 13.760333,15.154904 13.751923,15.045582 13.755622,14.822264" style="fill: white" /><polygon type="contour" points="14.281997,16.443366 14.346337,16.443504 14.521402,16.443604 14.521402,16.559326 14.52151,16.586385 14.521447,16.601201 14.521115,16.619379 14.521425,16.66254 14.521173,16.665757 14.521173,16.721018 14.52135,16.723698 14.521369,16.776071 14.35282,16.776468 14.188566,16.776468 14.188391,16.681039 14.084272,16.681107 13.753632,16.680897 13.759134,16.616843 13.743513,16.443007" style="fill: white" /><polygon type="contour" points="14.521563,15.9553 14.521563,16.073626 13.905108,16.07369 13.743997,16.07369 13.747984,16.011388 13.74416,15.87806 14.22089,15.877843 14.521327,15.877757" style="fill: white" /><polygon type="contour" points="15.155196,16.515444 15.155198,16.586108 14.999058,16.585969 14.822913,16.586258 14.822913,16.443457 14.974036,16.443528 15.155196,16.44323" style="fill: white" /><polygon type="contour" points="15.155198,15.877815 15.155198,15.987975 15.155196,16.073305 14.974036,16.073439 14.822827,16.073626 14.822816,15.984614 14.822816,15.877757 14.974037,15.877757" style="fill: white" /><polygon type="contour" points="15.155317,14.974038 15.155198,15.1552 14.967649,15.1552 14.822816,15.155318 14.822913,15.034498 14.822913,14.822916 14.974037,14.822818 15.155317,14.822818" style="fill: white" /><polygon type="contour" points="15.955298,14.822829 16.073624,14.822829 16.073435,14.974038 16.073303,15.155198 15.97454,15.155198 15.877812,15.1552 15.877812,14.967651 15.877755,14.822818" style="fill: white" /><polygon type="contour" points="16.585967,14.999061 16.586105,15.1552 16.505557,15.1552 16.443226,15.155198 16.44309,15.018272 16.443454,14.822916 16.586254,14.822916" style="fill: white" /><polygon type="contour" points="16.680921,13.867616 16.680928,13.945745 16.681197,14.075624 16.68104,14.128021 16.681044,14.13786 16.681036,14.188425 16.776466,14.188567 16.776466,14.35282 16.776069,14.52137 16.721015,14.521175 16.662538,14.521428 16.619376,14.521116 16.601197,14.52145 16.586381,14.521512 16.469548,14.521512 16.443603,14.521405 16.443526,14.344655 16.443567,14.21622 16.443165,13.751243 16.543394,13.755666 16.680746,13.748154" style="fill: white" /><polygon type="contour" points="16.073687,13.743999 16.073687,13.905109 16.073624,14.521566 15.984613,14.521329 15.877755,14.521329 15.878003,13.939365 15.878003,13.744203 15.928194,13.740433" style="fill: white" /><polygon type="contour" points="15.154655,13.755665 15.154655,13.959125 15.155317,14.521329 15.034497,14.521512 14.822913,14.521512 14.822913,14.301823 14.822607,13.761627 15.074244,13.750676" style="fill: white" /><polygon type="contour" points="14.52133,13.745224 14.521555,14.310357 14.521441,14.347097 14.52151,14.521512 14.345012,14.521558 14.249042,14.521325 13.75242,14.521248 13.762856,14.237539 13.765805,14.124255 13.878032,14.12344 13.897476,14.123333 13.899846,14.123296 13.90061,14.123385 13.996816,14.121585 14.006686,14.121103 14.047429,14.118764 14.056846,14.117335 14.116454,14.116452 14.117333,14.056849 14.118761,14.047432 14.1211,14.006687 14.121583,13.99682 14.123381,13.900613 14.123293,13.899848 14.12333,13.897479 14.123436,13.878036 14.124253,13.765809 14.358205,13.754975 14.427095,13.743208" style="fill: white" /><polygon type="contour" points="14.521369,2.355633 14.521173,2.410686 14.521425,2.469164 14.521114,2.512324 14.521448,2.530503 14.52151,2.545318 14.52151,2.662152 14.521402,2.688097 14.346336,2.688198 14.281998,2.688335 13.743513,2.688696 13.758973,2.515623 13.753374,2.450678 14.084273,2.450594 14.188424,2.450661 14.188566,2.355237 14.352819,2.355237" style="fill: white" /><polygon type="contour" points="14.521563,3.058078 14.521563,3.176404 14.521327,3.253946 14.230024,3.253946 14.22089,3.253861 13.74416,3.253644 13.739911,3.203507 13.743997,3.058013 13.905108,3.058013" style="fill: white" /><polygon type="contour" points="14.974037,3.058264 15.155196,3.058397 15.155196,3.157161 15.155198,3.253888 14.967649,3.253888 14.822816,3.253946 14.822827,3.176403 14.822827,3.058078" style="fill: white" /><polygon type="contour" points="15.155198,2.545595 15.155198,2.626143 15.155196,2.688474 15.01827,2.688611 14.822913,2.688245 14.822913,2.545445 14.974036,2.545375" style="fill: white" /><polygon type="contour" points="15.976535,2.545675 16.073499,2.545756 16.073499,2.688555 15.97454,2.688474 15.878003,2.688474 15.878003,2.616258 15.877812,2.545595" style="fill: white" /><polygon type="contour" points="16.776349,2.355352 16.776349,2.39592 16.775954,2.572925 16.776069,2.688834 16.721016,2.688624 16.665756,2.688624 16.663889,2.688704 16.621681,2.688666 16.603701,2.688641 16.585947,2.688555 16.443148,2.688555 16.443148,2.577601 16.443147,2.545756 16.443062,2.528001 16.443036,2.510018 16.442997,2.467812 16.443078,2.410686 16.442849,2.408006 16.442791,2.35571 16.599174,2.355347 16.600219,2.355168" style="fill: white" /><polygon type="contour" points="16.586025,3.157161 16.586105,3.253888 16.505557,3.253888 16.443227,3.253697 16.443146,3.166399 16.443146,3.058204 16.585947,3.058204" style="fill: white" /><polygon type="contour" points="16.073303,3.157161 16.073303,3.253697 15.97454,3.253697 15.877812,3.253888 15.877812,3.143726 15.878002,3.058397 15.965303,3.058204 16.073499,3.058204" style="fill: white" /><polygon type="contour" points="16.073624,4.855365 16.073499,5.387465 15.928193,5.391269 15.878003,5.387501 15.878003,5.192339 15.877755,4.610375 15.955297,4.610138 16.073624,4.610138" style="fill: white" /><polygon type="contour" points="16.601197,4.610253 16.619375,4.610586 16.662539,4.610277 16.665756,4.61053 16.721015,4.61053 16.723696,4.610351 16.776069,4.610334 16.776466,4.778882 16.776466,4.943135 16.681035,4.943312 16.681204,5.047121 16.681069,5.378422 16.599169,5.369096 16.443283,5.380358 16.443567,4.915482 16.443526,4.787048 16.443603,4.610299 16.559321,4.610299 16.586381,4.610192" style="fill: white" /><polygon type="contour" points="16.585967,4.132642 16.586254,4.308788 16.443454,4.308788 16.44309,4.113431 16.443227,3.976504 16.515441,3.976504 16.586105,3.976503" style="fill: white" /><polygon type="contour" points="16.073303,3.976504 16.073436,4.157663 16.073624,4.308875 15.984612,4.308886 15.877755,4.308886 15.877755,4.157662 15.877812,3.976503 15.987971,3.976503" style="fill: white" /><polygon type="contour" points="15.155198,3.976503 15.155198,4.164052 15.155317,4.308886 15.034497,4.308788 14.822913,4.308788 14.822816,4.157663 14.822816,3.976385 14.974037,3.976385" style="fill: white" /><polygon type="contour" points="14.974036,4.610375 15.155317,4.610375 15.154655,5.172577 15.154655,5.376037 14.909925,5.366857 14.822607,5.370076 14.822607,5.251548 14.822913,4.610192" style="fill: white" /><polygon type="contour" points="14.52151,4.610192 14.521441,4.784606 14.521555,4.821345 14.521331,5.386479 14.427095,5.388495 14.358205,5.376729 14.124253,5.365895 14.123382,5.231091 14.121583,5.134882 14.1211,5.125015 14.118762,5.084272 14.117333,5.074854 14.116454,5.015246 14.056846,5.014368 14.047428,5.012939 13.996816,5.010117 13.90061,5.008318 13.899846,5.008407 13.897476,5.008369 13.878033,5.008263 13.765806,5.007447 13.757103,4.774435 13.75242,4.610454 14.249041,4.610379 14.345012,4.610146" style="fill: white" /><polygon type="contour" points="14.52151,4.097204 14.52151,4.308788 14.301822,4.308788 14.213837,4.308937 13.755622,4.30944 13.762984,4.131056 13.760333,3.9768 14.047297,3.976895 14.521327,3.976385" style="fill: white" /><polygon type="contour" points="3.253886,4.164052 3.253944,4.308886 3.176402,4.308875 3.058076,4.308875 3.058262,4.157663 3.058396,3.976504 3.157159,3.976504 3.253886,3.976503" style="fill: white" /><polygon type="contour" points="3.147084,4.610375 3.253944,4.610375 3.253696,5.192339 3.253696,5.387501 3.203506,5.39127 3.058011,5.387704 3.058011,5.226592 3.058076,4.610138" style="fill: white" /><polygon type="contour" points="2.688096,4.610299 2.688173,4.787048 2.688133,4.915482 2.688418,5.380358 2.532529,5.369097 2.450631,5.378421 2.450493,5.047122 2.450659,4.94328 2.355235,4.943135 2.355235,4.778883 2.355631,4.610334 2.410683,4.61053 2.469162,4.610277 2.512322,4.610586 2.530502,4.610253 2.545316,4.610192 2.66215,4.610192" style="fill: white" /><polygon type="contour" points="2.68861,4.11343 2.688244,4.308788 2.545444,4.308788 2.545732,4.132642 2.545593,3.976503 2.688473,3.976503" style="fill: white" /><polygon type="contour" points="2.532525,2.355347 2.688909,2.35571 2.688623,2.410686 2.688623,2.465948 2.688703,2.467813 2.688665,2.510018 2.68864,2.528002 2.688554,2.545755 2.688554,2.688555 2.545753,2.688555 2.528,2.68864 2.510016,2.688667 2.46781,2.688704 2.410684,2.688624 2.408004,2.688852 2.355631,2.688834 2.355746,2.572925 2.35535,2.39592 2.35535,2.355352 2.531479,2.355168" style="fill: white" /><polygon type="contour" points="2.688473,3.157161 2.688473,3.253697 2.616258,3.253697 2.545593,3.253888 2.545673,3.155166 2.545754,3.058204 2.688554,3.058204" style="fill: white" /><polygon type="contour" points="3.15716,3.058397 3.253695,3.058397 3.253695,3.157162 3.253886,3.253888 3.143724,3.253888 3.058395,3.253697 3.058202,3.166399 3.058202,3.058204" style="fill: white" /><polygon type="contour" points="3.253886,2.626143 3.253695,2.688474 3.166397,2.688555 3.058202,2.688555 3.058202,2.545756 3.157159,2.545675 3.253886,2.545595" style="fill: white" /><polygon type="contour" points="5.383714,3.120314 5.38754,3.253644 4.910807,3.253861 4.610373,3.253946 4.610136,3.176403 4.610136,3.058078 5.22659,3.058013 5.387702,3.058013" style="fill: white" /><polygon type="contour" points="4.94331,2.450661 4.993841,2.450655 5.00368,2.450659 5.056078,2.450501 5.185956,2.450772 5.264086,2.45078 5.383547,2.450955 5.394295,2.509983 5.388187,2.688697 4.849701,2.688335 4.785363,2.688198 4.610298,2.688097 4.610298,2.572378 4.61019,2.545318 4.610251,2.530504 4.610585,2.512324 4.610275,2.469164 4.610528,2.465948 4.610528,2.410686 4.610349,2.408005 4.610332,2.355633 4.778881,2.355237 4.943133,2.355237" style="fill: white" /><polygon type="contour" points="4.308786,2.688245 4.157661,2.688175 3.976503,2.688474 3.976503,2.616258 3.976501,2.545595 4.13264,2.545733 4.308786,2.545445" style="fill: white" /><polygon type="contour" points="4.308884,3.147088 4.308884,3.253946 4.157661,3.253946 3.976501,3.253888 3.976501,3.143727 3.976503,3.058397 4.157661,3.058264 4.308873,3.058078" style="fill: white" /><polygon type="contour" points="4.308786,4.097204 4.308786,4.308787 4.157661,4.308886 3.976384,4.308886 3.976384,4.157662 3.976501,3.976503 4.16405,3.976503 4.308884,3.976385" style="fill: white" /><polygon type="contour" points="5.084401,3.976894 5.371366,3.9768 5.379777,4.08612 5.376077,4.30944 4.917862,4.308937 4.61019,4.308788 4.61019,4.097204 4.610373,3.976385 4.901675,3.976385" style="fill: white" /><polygon type="contour" points="4.882658,4.610379 5.379279,4.610454 5.368841,4.894162 5.365892,5.007447 5.231087,5.008318 5.134881,5.010117 5.125013,5.010599 5.08427,5.012939 5.074851,5.014368 5.015248,5.015246 5.014365,5.074854 5.012936,5.084272 5.010597,5.125014 5.010114,5.134882 5.008315,5.231091 5.008405,5.231855 5.008369,5.234224 5.008262,5.253667 5.007446,5.365895 4.773492,5.376729 4.704604,5.388494 4.610367,5.386478 4.610143,4.821345 4.610258,4.784606 4.61019,4.610192 4.786687,4.610146" style="fill: white" /><polygon type="contour" points="4.308786,4.829879 4.309091,5.370076 4.057454,5.381026 3.977044,5.376037 3.977044,5.172576 3.976383,4.610375 4.097203,4.610192 4.308786,4.610192" style="fill: white" /><polygon type="contour" points="4.773492,13.754974 5.007446,13.765809 5.008262,13.878036 5.008369,13.89748 5.008405,13.899848 5.008316,13.900613 5.010115,13.996819 5.010597,14.006687 5.012937,14.047431 5.014366,14.056848 5.015244,14.116451 5.074852,14.117335 5.084269,14.118764 5.134881,14.121585 5.231087,14.123385 5.231852,14.123296 5.234222,14.123333 5.253664,14.123439 5.365892,14.124256 5.374594,14.357266 5.379279,14.521248 4.882657,14.521325 4.786687,14.521558 4.61019,14.521512 4.610258,14.347097 4.610143,14.310356 4.610367,13.745225 4.704604,13.743209" style="fill: white" /><polygon type="contour" points="4.221773,13.764848 4.309091,13.761628 4.309091,13.880154 4.308786,14.521512 4.157662,14.521329 3.976384,14.521329 3.977044,13.959125 3.977044,13.755665" style="fill: white" /><polygon type="contour" points="3.253696,13.744203 3.253696,13.939364 3.253944,14.521329 3.176403,14.521566 3.058076,14.521566 3.058076,14.276338 3.058202,13.744238 3.203506,13.740434" style="fill: white" /><polygon type="contour" points="2.688418,13.751345 2.688133,14.21622 2.688173,14.344655 2.688096,14.521405 2.572376,14.521405 2.545317,14.521513 2.530502,14.521451 2.512322,14.521116 2.469162,14.521428 2.465946,14.521175 2.410683,14.521175 2.408005,14.521352 2.355631,14.52137 2.355235,14.352819 2.355235,14.188567 2.450659,14.188392 2.450653,14.13786 2.450657,14.128021 2.4505,14.075625 2.45077,13.945744 2.450778,13.867616 2.450954,13.748154 2.526005,13.742692" style="fill: white" /><polygon type="contour" points="2.68861,15.018273 2.688473,15.155198 2.616257,15.155198 2.545593,15.1552 2.545732,14.999061 2.545444,14.822916 2.636312,14.822915 2.688243,14.822915" style="fill: white" /><polygon type="contour" points="3.253944,14.974038 3.253886,15.1552 3.143725,15.1552 3.058396,15.155198 3.058262,14.974039 3.058076,14.822829 3.147085,14.822818 3.253944,14.822818" style="fill: white" /><polygon type="contour" points="4.097203,14.822916 4.308786,14.822916 4.308884,14.974038 4.308884,15.155318 4.157661,15.155318 3.976501,15.1552 3.976501,14.967651 3.976384,14.822818" style="fill: white" /><polygon type="contour" points="5.368715,15.000647 5.371366,15.154903 5.084401,15.154809 4.610373,15.155318 4.61019,15.034498 4.61019,14.822916 4.829878,14.822916 4.917862,14.822767 5.376077,14.822263" style="fill: white" /><polygon type="contour" points="5.378501,16.542654 5.383547,16.68075 5.264085,16.680924 5.185957,16.680932 5.056077,16.681199 5.003678,16.681044 4.993841,16.681047 4.943278,16.681039 4.943133,16.776468 4.77888,16.776468 4.610332,16.776071 4.610528,16.721018 4.610275,16.662539 4.610585,16.619379 4.610251,16.6012 4.61019,16.586385 4.61019,16.469549 4.610298,16.443604 4.785362,16.443504 4.849702,16.443366 5.388125,16.443166" style="fill: white" /><polygon type="contour" points="4.910808,15.877843 5.387539,15.87806 5.391789,15.928196 5.387702,16.07369 5.22659,16.07369 4.610136,16.073626 4.610136,15.955299 4.610372,15.877757 4.901676,15.877757" style="fill: white" /><polygon type="contour" points="4.308873,15.9553 4.308873,16.073626 4.157662,16.073439 3.976503,16.073305 3.976503,15.97454 3.976501,15.877815 4.16405,15.877815 4.308884,15.877757" style="fill: white" /><polygon type="contour" points="4.308786,16.443457 4.308786,16.586257 4.13264,16.585969 4.118661,16.585914 3.976501,16.586108 3.976501,16.50556 3.976502,16.44323 4.113428,16.443093" style="fill: white" /><polygon type="contour" points="3.15716,16.44323 3.253695,16.44323 3.253695,16.515444 3.253886,16.586108 3.155164,16.586029 3.058202,16.585949 3.058202,16.443148" style="fill: white" /><polygon type="contour" points="3.253886,15.987976 3.253695,16.073305 3.166397,16.0735 3.058202,16.0735 3.058396,15.97454 3.058396,15.878004 3.15716,15.878004 3.253886,15.877815" style="fill: white" /><polygon type="contour" points="2.688473,15.878004 2.688554,15.965303 2.688554,16.0735 2.545754,16.0735 2.545672,15.974539 2.545593,15.877815 2.626141,15.877815" style="fill: white" /><polygon type="contour" points="2.410683,16.44308 2.465946,16.44308 2.467811,16.443 2.510016,16.443037 2.528,16.443063 2.545753,16.443149 2.688554,16.443149 2.688554,16.585949 2.68864,16.603702 2.688664,16.621683 2.688703,16.663891 2.688623,16.721017 2.68885,16.723698 2.688909,16.775993 2.532524,16.776356 2.531478,16.776536 2.35535,16.776352 2.35535,16.735783 2.355746,16.558779 2.355631,16.442869" style="fill: white" />
</svg>
