<svg width="19.131698" height="19.131699">
<polygon type="contour" points="8.817201,8.733903 8.858499,8.733903 8.858499,8.8585 8.733901,8.8585 8.733901,8.817203 8.721035,8.817203 8.721035,8.733903 8.733901,8.733903 8.733901,8.721037 8.817201,8.721037" style="fill: white" /><polygon type="contour" points="9.780394,9.351306 9.780399,9.3569 9.780399,9.390501 9.780394,9.396079 9.774798,9.396101 9.741198,9.396101 9.735621,9.396079 9.735599,9.390501 9.735599,9.356901 9.735621,9.351306 9.741198,9.351301 9.774798,9.351301" style="fill: white" /><polygon type="contour" points="9.780394,9.243503 9.735621,9.243503 9.735621,9.118902 9.780394,9.118902" style="fill: white" /><polygon type="contour" points="9.628501,9.243503 9.5032,9.243503 9.5032,9.118902 9.628501,9.118902" style="fill: white" /><polygon type="contour" points="9.628501,9.396079 9.5032,9.396079 9.5032,9.351306 9.628501,9.351306" style="fill: white" /><polygon type="contour" points="9.011095,9.735622 9.0111,9.741199 9.0111,9.7748 9.011095,9.780396 9.005499,9.7804 8.971899,9.7804 8.966304,9.780396 8.9663,9.7748 8.9663,9.7412 8.966304,9.735622 8.971899,9.7356 9.005499,9.7356" style="fill: white" /><polygon type="contour" points="9.011095,9.628503 8.966304,9.628503 8.966304,9.503201 9.011095,9.503201" style="fill: white" /><polygon type="contour" points="8.858499,9.628503 8.733901,9.628503 8.733901,9.503201 8.858499,9.503201" style="fill: white" /><polygon type="contour" points="8.858499,9.780396 8.775899,9.780396 8.775899,9.735622 8.858499,9.735622" style="fill: white" /><polygon type="contour" points="9.011095,10.355801 8.966304,10.355801 8.966304,10.272501 9.011095,10.272501" style="fill: white" /><polygon type="contour" points="8.858499,10.397801 8.817201,10.397801 8.817201,10.410667 8.733901,10.410667 8.733901,10.397801 8.721035,10.397801 8.721035,10.314502 8.733901,10.314502 8.733901,10.272501 8.858499,10.272501" style="fill: white" /><polygon type="contour" points="8.858499,10.16538 8.775899,10.16538 8.775899,10.120607 8.858499,10.120607" style="fill: white" /><polygon type="contour" points="8.858499,10.012802 8.733901,10.012802 8.733901,9.888202 8.858499,9.888202" style="fill: white" /><polygon type="contour" points="9.011095,10.012802 8.966304,10.012802 8.966304,9.888202 9.011095,9.888202" style="fill: white" /><polygon type="contour" points="9.011095,10.120607 9.011095,10.121597 9.0111,10.126203 9.0111,10.159802 9.011095,10.16538 9.005499,10.165402 8.971899,10.165402 8.966304,10.16538 8.966304,10.164407 8.9663,10.159801 8.9663,10.126202 8.966304,10.120607 8.971899,10.120603 9.005499,10.120603" style="fill: white" /><polygon type="contour" points="9.396076,10.120607 9.396076,10.121597 9.396098,10.126203 9.396098,10.159802 9.396076,10.16538 9.390498,10.165402 9.356898,10.165402 9.351303,10.16538 9.351303,10.164407 9.351298,10.159801 9.351298,10.126202 9.351303,10.120607 9.356898,10.120603 9.390497,10.120603" style="fill: white" /><polygon type="contour" points="9.396076,10.012802 9.351303,10.012802 9.351303,9.888202 9.396076,9.888202" style="fill: white" /><polygon type="contour" points="9.243501,10.012802 9.118899,10.012802 9.118899,9.888202 9.243501,9.888202" style="fill: white" /><polygon type="contour" points="9.243501,10.16538 9.118899,10.16538 9.118899,10.120607 9.243501,10.120607" style="fill: white" /><polygon type="contour" points="9.243501,10.397801 9.118899,10.397801 9.118899,10.272501 9.243501,10.272501" style="fill: white" /><polygon type="contour" points="9.396076,10.355801 9.351303,10.355801 9.351303,10.272501 9.396076,10.272501" style="fill: white" /><polygon type="contour" points="10.165379,10.355801 10.120605,10.355801 10.120605,10.272501 10.165379,10.272501" style="fill: white" /><polygon type="contour" points="10.012801,10.397801 9.8882,10.397801 9.8882,10.272501 10.012801,10.272501" style="fill: white" /><polygon type="contour" points="9.780394,10.355801 9.735621,10.355801 9.735621,10.272501 9.780394,10.272501" style="fill: white" /><polygon type="contour" points="9.628501,10.397801 9.5032,10.397801 9.5032,10.272501 9.628501,10.272501" style="fill: white" /><polygon type="contour" points="9.628501,10.16538 9.5032,10.16538 9.5032,10.120607 9.628501,10.120607" style="fill: white" /><polygon type="contour" points="9.780394,10.120607 9.780399,10.126202 9.780399,10.159802 9.780394,10.16538 9.779403,10.16538 9.774797,10.165402 9.741198,10.165402 9.735621,10.16538 9.735599,10.159802 9.735599,10.126202 9.735621,10.120607 9.736611,10.120607 9.741199,10.120603 9.774798,10.120603" style="fill: white" /><polygon type="contour" points="9.780394,10.012802 9.735621,10.012802 9.735621,9.888202 9.780394,9.888202" style="fill: white" /><polygon type="contour" points="9.628501,10.012802 9.5032,10.012802 9.5032,9.888202 9.628501,9.888202" style="fill: white" /><polygon type="contour" points="9.628501,9.780396 9.5032,9.780396 9.5032,9.735622 9.628501,9.735622" style="fill: white" /><polygon type="contour" points="9.780394,9.735622 9.780394,9.736613 9.780399,9.741199 9.780399,9.7748 9.780394,9.780396 9.779403,9.780396 9.774797,9.7804 9.741199,9.7804 9.735621,9.780396 9.735621,9.779405 9.735599,9.774799 9.735599,9.741199 9.735621,9.735622 9.736612,9.735622 9.741198,9.7356 9.774798,9.7356" style="fill: white" /><polygon type="contour" points="9.780394,9.628503 9.735621,9.628503 9.735621,9.503201 9.780394,9.503201" style="fill: white" /><polygon type="contour" points="9.628501,9.628503 9.5032,9.628503 9.5032,9.503201 9.628501,9.503201" style="fill: white" /><polygon type="contour" points="9.396076,9.628503 9.351303,9.628503 9.351303,9.503201 9.396076,9.503201" style="fill: white" /><polygon type="contour" points="9.396076,9.735622 9.396098,9.741199 9.396098,9.7748 9.396076,9.780396 9.390497,9.7804 9.356898,9.7804 9.351303,9.780396 9.351298,9.7748 9.351298,9.741199 9.351303,9.735622 9.356898,9.7356 9.390498,9.7356" style="fill: white" /><polygon type="contour" points="9.243501,9.780396 9.118899,9.780396 9.118899,9.735622 9.243501,9.735622" style="fill: white" /><polygon type="contour" points="9.243501,9.628503 9.118899,9.628503 9.118899,9.503201 9.243501,9.503201" style="fill: white" /><polygon type="contour" points="9.243501,9.396079 9.118899,9.396079 9.118899,9.351306 9.243501,9.351306" style="fill: white" /><polygon type="contour" points="9.396076,9.351306 9.396076,9.352295 9.396098,9.356901 9.396098,9.390501 9.396076,9.396079 9.395084,9.396079 9.390498,9.396101 9.356898,9.396101 9.351303,9.396079 9.351303,9.395087 9.351298,9.390501 9.351298,9.3569 9.351303,9.351306 9.352292,9.351306 9.356898,9.351301 9.390498,9.351301" style="fill: white" /><polygon type="contour" points="9.396076,9.243503 9.351303,9.243503 9.351303,9.118902 9.396076,9.118902" style="fill: white" /><polygon type="contour" points="9.243501,9.243503 9.118899,9.243503 9.118899,9.118902 9.243501,9.118902" style="fill: white" /><polygon type="contour" points="9.011095,9.243503 8.966304,9.243503 8.966304,9.118902 9.011095,9.118902" style="fill: white" /><polygon type="contour" points="9.011095,9.351306 9.011095,9.352295 9.0111,9.356901 9.0111,9.390501 9.011095,9.396079 9.010105,9.396079 9.005499,9.396101 8.971899,9.396101 8.966304,9.396079 8.966304,9.395088 8.9663,9.3905 8.9663,9.356901 8.966304,9.351306 8.967294,9.351306 8.9719,9.351301 9.0055,9.351301" style="fill: white" /><polygon type="contour" points="8.858499,9.396079 8.775899,9.396079 8.775899,9.351306 8.858499,9.351306" style="fill: white" /><polygon type="contour" points="8.858499,9.243503 8.733901,9.243503 8.733901,9.118902 8.858499,9.118902" style="fill: white" /><polygon type="contour" points="8.858499,9.011098 8.775899,9.011098 8.775899,8.966306 8.858499,8.966306" style="fill: white" /><polygon type="contour" points="9.011095,8.966306 9.0111,8.971901 9.0111,9.005502 9.011095,9.011098 9.010105,9.011098 9.005499,9.011102 8.971899,9.011102 8.966304,9.011098 8.9663,9.005502 8.9663,8.971901 8.966304,8.966306 8.967294,8.966306 8.9719,8.966302 9.005499,8.966302" style="fill: white" /><polygon type="contour" points="9.011095,8.8585 8.966304,8.8585 8.966304,8.775901 9.011095,8.775901" style="fill: white" /><polygon type="contour" points="9.243501,8.8585 9.118899,8.8585 9.118899,8.733903 9.243501,8.733903" style="fill: white" /><polygon type="contour" points="9.243501,9.011098 9.118899,9.011098 9.118899,8.966306 9.243501,8.966306" style="fill: white" /><polygon type="contour" points="9.396076,8.966306 9.396098,8.971901 9.396098,9.005502 9.396076,9.011098 9.395085,9.011098 9.390497,9.011102 9.356898,9.011102 9.351303,9.011098 9.351298,9.005502 9.351298,8.971901 9.351303,8.966306 9.352292,8.966306 9.356898,8.966302 9.390497,8.966302" style="fill: white" /><polygon type="contour" points="9.396076,8.8585 9.351303,8.8585 9.351303,8.775901 9.396076,8.775901" style="fill: white" /><polygon type="contour" points="9.628501,8.8585 9.5032,8.8585 9.5032,8.733903 9.628501,8.733903" style="fill: white" /><polygon type="contour" points="9.628501,9.011098 9.5032,9.011098 9.5032,8.966306 9.628501,8.966306" style="fill: white" /><polygon type="contour" points="9.780394,8.966306 9.780394,8.967296 9.780399,8.971902 9.780399,9.005502 9.780394,9.011098 9.774798,9.011102 9.741199,9.011102 9.735621,9.011098 9.735621,9.010107 9.735599,9.005501 9.735599,8.971901 9.735621,8.966306 9.741199,8.966302 9.774798,8.966302" style="fill: white" /><polygon type="contour" points="9.780394,8.8585 9.735621,8.8585 9.735621,8.775901 9.780394,8.775901" style="fill: white" /><polygon type="contour" points="10.397799,8.733903 10.410665,8.733903 10.410665,8.817203 10.397799,8.817203 10.397799,8.8585 10.2725,8.8585 10.2725,8.733903 10.3145,8.733903 10.3145,8.721037 10.397799,8.721037" style="fill: white" /><polygon type="contour" points="10.3558,9.011098 10.2725,9.011098 10.2725,8.966306 10.3558,8.966306" style="fill: white" /><polygon type="contour" points="10.165379,8.966306 10.165379,8.967296 10.165401,8.971902 10.165401,9.005502 10.165379,9.011098 10.1598,9.011102 10.1262,9.011102 10.120605,9.011098 10.120605,9.010107 10.120601,9.005501 10.120601,8.971901 10.120605,8.966306 10.1262,8.966302 10.1598,8.966302" style="fill: white" /><polygon type="contour" points="10.165379,8.8585 10.120605,8.8585 10.120605,8.775901 10.165379,8.775901" style="fill: white" /><polygon type="contour" points="10.012801,8.8585 9.8882,8.8585 9.8882,8.733903 10.012801,8.733903" style="fill: white" /><polygon type="contour" points="10.012801,9.011098 9.8882,9.011098 9.8882,8.966306 10.012801,8.966306" style="fill: white" /><polygon type="contour" points="10.012801,9.243503 9.8882,9.243503 9.8882,9.118902 10.012801,9.118902" style="fill: white" /><polygon type="contour" points="10.012801,9.396079 9.8882,9.396079 9.8882,9.351306 10.012801,9.351306" style="fill: white" /><polygon type="contour" points="10.165379,9.351306 10.165401,9.356901 10.165401,9.390501 10.165379,9.396079 10.159801,9.396101 10.1262,9.396101 10.120605,9.396079 10.120601,9.3905 10.120601,9.356901 10.120605,9.351306 10.1262,9.351301 10.159801,9.351301" style="fill: white" /><polygon type="contour" points="10.165379,9.243503 10.120605,9.243503 10.120605,9.118902 10.165379,9.118902" style="fill: white" /><polygon type="contour" points="10.397799,9.243503 10.2725,9.243503 10.2725,9.118902 10.397799,9.118902" style="fill: white" /><polygon type="contour" points="10.3558,9.396079 10.2725,9.396079 10.2725,9.351306 10.3558,9.351306" style="fill: white" /><polygon type="contour" points="10.397799,9.628503 10.2725,9.628503 10.2725,9.503201 10.397799,9.503201" style="fill: white" /><polygon type="contour" points="10.3558,9.780396 10.2725,9.780396 10.2725,9.735622 10.3558,9.735622" style="fill: white" /><polygon type="contour" points="10.165379,9.735622 10.165379,9.736613 10.165401,9.741199 10.165401,9.7748 10.165379,9.780396 10.164406,9.780396 10.1598,9.7804 10.1262,9.7804 10.120605,9.780396 10.120605,9.779405 10.120601,9.774799 10.120601,9.7412 10.120605,9.735622 10.121595,9.735622 10.126201,9.7356 10.159801,9.7356" style="fill: white" /><polygon type="contour" points="10.165379,9.628503 10.120605,9.628503 10.120605,9.503201 10.165379,9.503201" style="fill: white" /><polygon type="contour" points="10.012801,9.628503 9.8882,9.628503 9.8882,9.503201 10.012801,9.503201" style="fill: white" /><polygon type="contour" points="10.012801,9.780396 9.8882,9.780396 9.8882,9.735622 10.012801,9.735622" style="fill: white" /><polygon type="contour" points="10.012801,10.012802 9.8882,10.012802 9.8882,9.888202 10.012801,9.888202" style="fill: white" /><polygon type="contour" points="10.012801,10.16538 9.8882,10.16538 9.8882,10.120607 10.012801,10.120607" style="fill: white" /><polygon type="contour" points="10.165379,10.120607 10.165401,10.126202 10.165401,10.159802 10.165379,10.16538 10.164406,10.16538 10.1598,10.165402 10.1262,10.165402 10.120605,10.16538 10.120601,10.159801 10.120601,10.126202 10.120605,10.120607 10.121595,10.120607 10.126201,10.120603 10.1598,10.120603" style="fill: white" /><polygon type="contour" points="10.165379,10.012802 10.120605,10.012802 10.120605,9.888202 10.165379,9.888202" style="fill: white" /><polygon type="contour" points="10.397799,10.012802 10.2725,10.012802 10.2725,9.888202 10.397799,9.888202" style="fill: white" /><polygon type="contour" points="10.3558,10.16538 10.2725,10.16538 10.2725,10.120607 10.3558,10.120607" style="fill: white" /><polygon type="contour" points="10.397799,10.314502 10.410665,10.314502 10.410665,10.397801 10.397799,10.397801 10.397799,10.410667 10.3145,10.410667 10.3145,10.397801 10.2725,10.397801 10.2725,10.272501 10.397799,10.272501" style="fill: white" />
</svg>
