<svg width="19.131698" height="19.131699">
<polygon type="contour" points="7.426795,7.388406 7.462368,7.391106 7.685687,7.39168 7.685913,7.412512 7.685913,7.433303 7.686009,7.434382 7.686366,7.560756 7.686366,7.686368 7.392054,7.686368 7.391317,7.472914 7.3881,7.388102" style="fill: white" /><polygon type="contour" points="11.740381,11.658788 11.743601,11.743601 11.704904,11.743297 11.669332,11.740598 11.44601,11.740025 11.445785,11.719192 11.445785,11.698399 11.445689,11.697321 11.445333,11.570946 11.445333,11.445335 11.739646,11.445335" style="fill: white" /><polygon type="contour" points="11.739065,10.569427 11.738884,10.657552 11.590656,10.658765 11.444895,10.659111 11.444895,10.496125 11.445142,10.363621 11.647864,10.362315 11.739305,10.362097" style="fill: white" /><polygon type="contour" points="11.570091,9.964409 11.570083,10.040926 11.511374,10.040926 11.44427,10.041092 11.44427,9.958452 11.443874,9.892087 11.501937,9.89191 11.569909,9.89191" style="fill: white" /><polygon type="contour" points="11.743559,7.425659 11.740382,7.472914 11.739646,7.686368 11.445333,7.686368 11.445333,7.560758 11.445688,7.434383 11.445785,7.412511 11.445992,7.410876 11.44601,7.39168 11.669332,7.391106 11.743601,7.388102" style="fill: white" /><polygon type="contour" points="11.569976,7.89533 11.57002,7.91138 11.57002,7.946907 11.51027,7.946789 11.444016,7.946789 11.444016,7.895329 11.444116,7.837656 11.569883,7.837656" style="fill: white" /><polygon type="contour" points="11.23768,7.561772 11.294046,7.561817 11.294046,7.687586 11.233316,7.687586 11.184914,7.687684 11.184794,7.633087 11.184794,7.561681" style="fill: white" /><polygon type="contour" points="11.294046,7.837656 11.294176,7.887112 11.294113,7.895329 11.294113,7.946789 11.247026,7.946907 11.184794,7.946907 11.184914,7.89533 11.184914,7.837589 11.236372,7.837589" style="fill: white" /><polygon type="contour" points="10.040989,8.616118 10.040719,8.769629 9.967849,8.769629 9.891905,8.769958 9.891846,8.627186 9.891846,8.474566 9.963393,8.474566 10.040919,8.474069" style="fill: white" /><polygon type="contour" points="10.040674,9.169546 10.040674,9.239797 9.972412,9.240173 9.891528,9.240173 9.891905,9.169545 9.891905,9.091028 9.962157,9.091028 10.040924,9.090778" style="fill: white" /><polygon type="contour" points="10.657633,9.090783 10.657633,9.163262 10.657136,9.239857 10.516936,9.239797 10.361745,9.239797 10.361745,9.169545 10.362074,9.090982 10.515583,9.090712" style="fill: white" /><polygon type="contour" points="10.915331,9.091021 10.915336,9.155191 10.915336,9.239764 10.872618,9.239483 10.821356,9.239857 10.821356,9.16831 10.821374,9.090946 10.870285,9.090872" style="fill: white" /><polygon type="contour" points="11.294187,9.173249 11.29412,9.239966 11.244031,9.240173 11.184794,9.239764 11.184956,9.173264 11.184956,9.091021 11.236373,9.090868 11.294187,9.090613" style="fill: white" /><polygon type="contour" points="11.511375,9.090778 11.570084,9.090778 11.569907,9.169546 11.569909,9.181565 11.569909,9.240173 11.506649,9.239966 11.443874,9.239966 11.443874,9.165568 11.44427,9.090613" style="fill: white" /><polygon type="contour" points="11.29415,8.623417 11.294009,8.769776 11.240508,8.769689 11.184956,8.770199 11.185015,8.635614 11.185015,8.474462 11.236373,8.474526 11.29415,8.474269" style="fill: white" /><polygon type="contour" points="11.648009,8.473935 11.738884,8.474152 11.739112,8.674341 11.739305,8.769607 11.587124,8.768421 11.44521,8.768062 11.444866,8.621506 11.444866,8.472589" style="fill: white" /><polygon type="contour" points="11.570006,8.262907 11.57003,8.310328 11.50079,8.310515 11.444209,8.310515 11.444209,8.259309 11.444016,8.21662 11.498611,8.216367 11.57002,8.216367" style="fill: white" /><polygon type="contour" points="11.236372,8.21662 11.294113,8.21662 11.294113,8.260821 11.294177,8.310515 11.236373,8.310419 11.185015,8.310255 11.184794,8.269821 11.184794,8.216367" style="fill: white" /><polygon type="contour" points="10.915247,8.259084 10.915247,8.310255 10.872618,8.310255 10.821374,8.310328 10.821374,8.260695 10.821446,8.216456 10.861878,8.216367 10.915336,8.216367" style="fill: white" /><polygon type="contour" points="10.915247,8.474462 10.915331,8.606489 10.915331,8.770199 10.872617,8.770181 10.821367,8.769737 10.821367,8.62219 10.821324,8.474316 10.866842,8.474316" style="fill: white" /><polygon type="contour" points="10.655839,8.47586 10.655839,8.496951 10.655883,8.771228 10.652643,8.771228 10.360348,8.771354 10.360353,8.754879 10.360475,8.475819 10.363826,8.475819" style="fill: white" /><polygon type="contour" points="10.496088,8.216456 10.657239,8.216456 10.657239,8.259084 10.657314,8.310198 10.50867,8.310198 10.362171,8.310391 10.362163,8.267202 10.361504,8.216371" style="fill: white" /><polygon type="contour" points="10.657374,7.892396 10.657239,7.946688 10.52521,7.946747 10.361504,7.946747 10.361447,7.89533 10.361773,7.837792 10.505649,7.837792 10.6573,7.837609" style="fill: white" /><polygon type="contour" points="10.915083,7.837589 10.915336,7.884674 10.915336,7.946907 10.872618,7.946688 10.821446,7.946688 10.821279,7.895329 10.821184,7.837525 10.872393,7.837525" style="fill: white" /><polygon type="contour" points="10.915336,7.561681 10.915083,7.621431 10.915083,7.687684 10.870879,7.687684 10.821185,7.687492 10.821374,7.620343 10.821374,7.561673 10.872618,7.561663" style="fill: white" /><polygon type="contour" points="10.561558,7.392753 10.657658,7.39267 10.659115,7.476943 10.659115,7.622788 10.658981,7.686619 10.505127,7.686619 10.363515,7.686706 10.362296,7.49191 10.362059,7.392528" style="fill: white" /><polygon type="contour" points="10.040924,7.561619 10.040924,7.620327 10.04109,7.687432 9.95845,7.687432 9.891734,7.687828 9.891528,7.629762 9.891528,7.561789 9.964408,7.561609" style="fill: white" /><polygon type="contour" points="10.043716,7.837656 10.040999,7.887111 10.040833,7.89533 10.04068,7.946747 9.976509,7.946907 9.891936,7.946907 9.8921,7.89533 9.891734,7.837582 9.966134,7.837582" style="fill: white" /><polygon type="contour" points="9.958437,8.216371 10.04068,8.216371 10.040619,8.259083 10.040756,8.310328 9.962233,8.310328 9.891846,8.310346 9.891527,8.267339 9.891935,8.216367" style="fill: white" /><polygon type="contour" points="9.239493,8.474566 9.239427,8.614765 9.239427,8.769958 9.169175,8.769958 9.09098,8.769629 9.09071,8.616118 9.090781,8.474069 9.16326,8.474069" style="fill: white" /><polygon type="contour" points="9.239482,8.259084 9.239493,8.310346 9.167946,8.310346 9.090944,8.310328 9.09087,8.261415 9.091019,8.216371 9.155188,8.216367 9.239762,8.216367" style="fill: white" /><polygon type="contour" points="9.239792,7.887668 9.239762,7.946907 9.173263,7.946747 9.09102,7.946747 9.090867,7.89533 9.087985,7.837656 9.170904,7.837656 9.239614,7.837582" style="fill: white" /><polygon type="contour" points="9.239792,7.561788 9.239614,7.625048 9.239614,7.687828 9.165216,7.687828 9.090611,7.687432 9.090776,7.620328 9.090776,7.561618 9.16729,7.561608" style="fill: white" /><polygon type="contour" points="8.769642,7.392528 8.768403,7.469841 8.768025,7.628359 8.768185,7.686707 8.624558,7.686707 8.472718,7.686619 8.472585,7.622788 8.472585,7.476943 8.474041,7.392669 8.678487,7.392431" style="fill: white" /><polygon type="contour" points="8.769925,7.837792 8.769851,7.888031 8.770197,7.946747 8.635611,7.946688 8.47446,7.946688 8.474523,7.895329 8.4744,7.837609 8.628253,7.837609" style="fill: white" /><polygon type="contour" points="8.770179,8.259084 8.769529,8.310391 8.630885,8.310391 8.474386,8.310198 8.474386,8.26311 8.47446,8.216456 8.606488,8.216371 8.770197,8.216371" style="fill: white" /><polygon type="contour" points="8.771226,8.479058 8.771352,8.771354 8.754878,8.771349 8.475817,8.771228 8.475817,8.767875 8.475856,8.47586 8.496949,8.47586 8.771226,8.475819" style="fill: white" /><polygon type="contour" points="8.310376,8.618007 8.310332,8.769737 8.264319,8.76975 8.21637,8.770199 8.216454,8.635615 8.216454,8.474462 8.259081,8.474462 8.310376,8.474316" style="fill: white" /><polygon type="contour" points="7.62143,8.21662 7.687683,8.21662 7.687683,8.260822 7.687491,8.310515 7.620342,8.310328 7.56167,8.310328 7.56166,8.259083 7.561678,8.249484 7.561678,8.216367" style="fill: white" /><polygon type="contour" points="7.687584,7.898385 7.687683,7.946789 7.633086,7.946907 7.561678,7.946907 7.56177,7.89402 7.561816,7.837656 7.687584,7.837656" style="fill: white" /><polygon type="contour" points="7.946906,7.884674 7.946906,7.946907 7.895328,7.946789 7.837587,7.946789 7.837587,7.895329 7.837653,7.837656 7.898384,7.837656 7.946787,7.837589" style="fill: white" /><polygon type="contour" points="7.946787,7.621432 7.946787,7.687684 7.895327,7.687684 7.837653,7.687586 7.837653,7.561818 7.895328,7.561726 7.946906,7.561681" style="fill: white" /><polygon type="contour" points="8.310514,7.630912 8.310514,7.687492 8.259307,7.687492 8.216618,7.687684 8.216365,7.633087 8.216365,7.561681 8.262905,7.561694 8.310326,7.561673" style="fill: white" /><polygon type="contour" points="8.310418,7.895329 8.310252,7.946688 8.269821,7.946907 8.216365,7.946907 8.216618,7.895329 8.216618,7.837589 8.260819,7.837589 8.310513,7.837525" style="fill: white" /><polygon type="contour" points="8.259082,8.216456 8.310253,8.216456 8.310253,8.259083 8.310326,8.310328 8.260694,8.310328 8.216454,8.310255 8.216365,8.269822 8.216365,8.216367" style="fill: white" /><polygon type="contour" points="7.946686,8.259083 7.946686,8.310254 7.895328,8.310418 7.837523,8.310514 7.837523,8.259309 7.837587,8.21662 7.884672,8.216367 7.946906,8.216367" style="fill: white" /><polygon type="contour" points="7.946686,8.474462 7.946745,8.60649 7.946745,8.770199 7.895328,8.770255 7.83769,8.769775 7.83769,8.617014 7.837548,8.474269 7.890601,8.474191" style="fill: white" /><polygon type="contour" points="7.686805,8.635575 7.686558,8.768082 7.483836,8.769389 7.392395,8.769607 7.392635,8.562276 7.392817,8.474152 7.541045,8.472938 7.686805,8.472591" style="fill: white" /><polygon type="contour" points="7.68743,9.173249 7.687826,9.239966 7.62976,9.240173 7.561787,9.240173 7.561605,9.167292 7.561616,9.090778 7.620326,9.090778 7.68743,9.090613" style="fill: white" /><polygon type="contour" points="7.895562,9.088003 7.946745,9.091021 7.946906,9.15519 7.946906,9.239764 7.895328,9.239598 7.83758,9.239966 7.83758,9.165568 7.837653,9.087987" style="fill: white" /><polygon type="contour" points="8.310326,9.169469 8.310344,9.239857 8.267337,9.240172 8.216365,9.239764 8.21637,9.173263 8.21637,9.091021 8.259082,9.091082 8.310326,9.090946" style="fill: white" /><polygon type="contour" points="8.769627,9.090982 8.769627,9.163852 8.769956,9.239797 8.627185,9.239857 8.474564,9.239857 8.474564,9.16831 8.474067,9.090783 8.616116,9.090712" style="fill: white" /><polygon type="contour" points="9.169175,9.091028 9.239427,9.091028 9.239792,9.159287 9.239792,9.240173 9.169175,9.239797 9.091027,9.239797 9.091027,9.169545 9.090776,9.090778" style="fill: white" /><polygon type="contour" points="9.239427,9.962527 9.239427,10.040676 9.169175,10.040676 9.090776,10.040926 9.091027,9.962527 9.091027,9.892276 9.159287,9.89191 9.239792,9.89191" style="fill: white" /><polygon type="contour" points="9.962157,9.892276 10.040674,9.892276 10.040674,9.962526 10.040924,10.040926 9.962157,10.040676 9.891905,10.040676 9.891528,9.972414 9.891528,9.89191" style="fill: white" /><polygon type="contour" points="10.040756,10.821376 10.04083,10.870288 10.04068,10.915333 9.976509,10.915338 9.891936,10.915338 9.892218,10.872619 9.891846,10.821358 9.963392,10.821358" style="fill: white" /><polygon type="contour" points="10.040719,10.362076 10.040989,10.515585 10.040919,10.657635 9.96844,10.657635 9.891846,10.657138 9.891905,10.516938 9.891905,10.361747 9.962156,10.361747" style="fill: white" /><polygon type="contour" points="10.376822,10.360355 10.655883,10.360477 10.655883,10.363829 10.655839,10.655841 10.634747,10.655841 10.360475,10.655885 10.360475,10.652646 10.360348,10.360351" style="fill: white" /><polygon type="contour" points="10.657136,9.963757 10.657633,10.040921 10.515583,10.040991 10.362074,10.040721 10.362074,9.967852 10.361745,9.892276 10.504516,9.89221 10.657136,9.89221" style="fill: white" /><polygon type="contour" points="10.915336,9.891938 10.915331,9.95844 10.915331,10.040683 10.872617,10.040621 10.821374,10.040758 10.821374,9.962234 10.821356,9.892209 10.864362,9.891909" style="fill: white" /><polygon type="contour" points="11.236373,9.892104 11.29412,9.892087 11.29412,9.966485 11.294187,10.041092 11.236494,10.040926 11.184956,10.040683 11.184794,9.976512 11.184794,9.891939" style="fill: white" /><polygon type="contour" points="11.294009,10.361928 11.294009,10.514688 11.29415,10.657435 11.241096,10.657512 11.185015,10.65724 11.184956,10.525211 11.184956,10.361505 11.236372,10.361449" style="fill: white" /><polygon type="contour" points="10.915247,10.496089 10.915247,10.65724 10.872618,10.65724 10.821324,10.657388 10.821324,10.513697 10.821367,10.361967 10.867378,10.361955 10.915331,10.361505" style="fill: white" /><polygon type="contour" points="10.657314,10.821506 10.657314,10.868594 10.657239,10.915249 10.525211,10.915333 10.361504,10.915333 10.361522,10.872619 10.362171,10.821313 10.500815,10.821313" style="fill: white" /><polygon type="contour" points="10.915247,10.821448 10.915336,10.86188 10.915336,10.915338 10.872618,10.915249 10.821446,10.915249 10.821446,10.87262 10.821374,10.821376 10.871007,10.821376" style="fill: white" /><polygon type="contour" points="11.294177,10.872394 11.294113,10.915084 11.247025,10.915338 11.184794,10.915338 11.185015,10.87262 11.185015,10.821448 11.236372,10.821282 11.294177,10.821187" style="fill: white" /><polygon type="contour" points="11.511359,10.821376 11.57003,10.821376 11.57004,10.872619 11.57002,10.882219 11.57002,10.915338 11.51027,10.915084 11.444016,10.915084 11.444016,10.870881 11.444209,10.821187" style="fill: white" /><polygon type="contour" points="11.569927,11.237681 11.569883,11.294048 11.444116,11.294048 11.444116,11.233317 11.444016,11.184916 11.498612,11.184796 11.57002,11.184796" style="fill: white" /><polygon type="contour" points="11.294046,11.444118 11.294046,11.569885 11.236372,11.569978 11.184794,11.570022 11.184914,11.510272 11.184914,11.444018 11.236372,11.444018" style="fill: white" /><polygon type="contour" points="11.236372,11.184916 11.294113,11.184916 11.294113,11.236374 11.294046,11.294048 11.233315,11.294048 11.184914,11.294115 11.184794,11.247027 11.184794,11.184796" style="fill: white" /><polygon type="contour" points="10.915083,11.236374 10.915083,11.294115 10.870879,11.294115 10.821185,11.294179 10.82128,11.236374 10.821446,11.185017 10.861877,11.184796 10.915336,11.184796" style="fill: white" /><polygon type="contour" points="10.915336,11.498613 10.915336,11.570022 10.868794,11.570008 10.821374,11.570031 10.821185,11.500791 10.821185,11.444212 10.872393,11.444212 10.915083,11.444018" style="fill: white" /><polygon type="contour" points="10.658982,11.445083 10.659115,11.508914 10.659115,11.65476 10.657659,11.739034 10.453212,11.739272 10.362059,11.739175 10.363297,11.661862 10.363675,11.503344 10.363515,11.444996 10.507142,11.444996" style="fill: white" /><polygon type="contour" points="10.496088,11.185017 10.657239,11.185017 10.657176,11.236375 10.6573,11.294095 10.503445,11.294095 10.361773,11.293912 10.361847,11.243672 10.361504,11.184958" style="fill: white" /><polygon type="contour" points="10.04109,11.444272 10.040924,11.511376 10.040924,11.570085 9.964408,11.570094 9.891528,11.569913 9.891734,11.506652 9.891734,11.443876 9.966134,11.443876" style="fill: white" /><polygon type="contour" points="9.958437,11.184958 10.04068,11.184958 10.040833,11.236374 10.04109,11.29419 9.966133,11.294122 9.891734,11.294122 9.891528,11.244033 9.891936,11.184796" style="fill: white" /><polygon type="contour" points="9.239792,11.50194 9.239792,11.569913 9.16729,11.570094 9.090776,11.570085 9.090776,11.511377 9.090611,11.444272 9.173248,11.444272 9.239614,11.443876" style="fill: white" /><polygon type="contour" points="9.239597,11.236374 9.239614,11.294122 9.165216,11.294122 9.090611,11.29419 9.090702,11.244591 9.090867,11.236375 9.09102,11.184958 9.155188,11.184796 9.239762,11.184795" style="fill: white" /><polygon type="contour" points="9.239792,10.864363 9.239762,10.915337 9.173262,10.915333 9.09102,10.915333 9.091081,10.87262 9.090944,10.821376 9.169468,10.821376 9.239493,10.821358" style="fill: white" /><polygon type="contour" points="9.239493,10.504518 9.239493,10.657138 9.167946,10.657138 9.090781,10.657635 9.09071,10.515585 9.09098,10.362076 9.16385,10.362076 9.239427,10.361747" style="fill: white" /><polygon type="contour" points="8.771347,10.376826 8.771226,10.655885 8.767873,10.655885 8.475857,10.655841 8.475857,10.634749 8.475817,10.360477 8.479056,10.360477 8.771352,10.360351" style="fill: white" /><polygon type="contour" points="8.614763,9.892276 8.769956,9.892276 8.769956,9.962526 8.769627,10.040721 8.621629,10.040655 8.474067,10.040921 8.474067,9.968442 8.474564,9.89221" style="fill: white" /><polygon type="contour" points="7.544574,10.363282 7.686488,10.363641 7.686834,10.510196 7.686834,10.659114 7.48369,10.657769 7.392817,10.657552 7.392588,10.457362 7.392395,10.362097" style="fill: white" /><polygon type="contour" points="7.625047,9.892087 7.687826,9.892087 7.687826,9.966486 7.68743,10.041092 7.620325,10.040926 7.561617,10.040926 7.561791,9.962527 7.561787,9.950519 7.561787,9.89191" style="fill: white" /><polygon type="contour" points="7.946906,9.891939 7.946745,9.958439 7.946745,10.040683 7.895327,10.040835 7.837653,10.043718 7.83758,9.966485 7.83758,9.892087 7.887666,9.89191" style="fill: white" /><polygon type="contour" points="8.259082,9.892221 8.310344,9.89221 8.310344,9.963756 8.310326,10.040758 8.261414,10.040832 8.21637,10.040683 8.216365,9.976512 8.216365,9.891939" style="fill: white" /><polygon type="contour" points="8.259082,10.361523 8.310332,10.361967 8.310332,10.509514 8.310376,10.657388 8.264857,10.657388 8.216454,10.65724 8.21637,10.525212 8.21637,10.361504" style="fill: white" /><polygon type="contour" points="7.946686,10.49609 7.946686,10.65724 7.895327,10.657177 7.837548,10.657435 7.837548,10.508285 7.837689,10.361928 7.89119,10.362015 7.946745,10.361505" style="fill: white" /><polygon type="contour" points="7.621429,11.184916 7.687683,11.184916 7.687683,11.236374 7.687584,11.294048 7.561816,11.294048 7.561723,11.236374 7.561678,11.220322 7.561678,11.184796" style="fill: white" /><polygon type="contour" points="7.687491,10.872394 7.687683,10.915084 7.633086,10.915338 7.561678,10.915338 7.561692,10.868796 7.56167,10.821376 7.630909,10.821187 7.687491,10.821187" style="fill: white" /><polygon type="contour" points="7.895328,10.821282 7.946686,10.821447 7.946906,10.861879 7.946906,10.915338 7.895327,10.915084 7.837587,10.915084 7.837587,10.870881 7.837523,10.821187" style="fill: white" /><polygon type="contour" points="8.310326,10.871008 8.310253,10.915249 8.26982,10.915338 8.216365,10.915338 8.216454,10.87262 8.216454,10.821448 8.259081,10.821448 8.310326,10.821376" style="fill: white" /><polygon type="contour" points="8.769536,10.864502 8.770197,10.915333 8.635612,10.915249 8.47446,10.915249 8.47446,10.87262 8.474386,10.821506 8.623029,10.821506 8.769529,10.821313" style="fill: white" /><polygon type="contour" points="8.770253,11.236374 8.769925,11.293912 8.626049,11.293912 8.4744,11.294095 8.474325,11.239307 8.47446,11.185017 8.606488,11.184958 8.770197,11.184958" style="fill: white" /><polygon type="contour" points="8.769404,11.639792 8.769642,11.739175 8.57014,11.738951 8.474041,11.739034 8.472585,11.65476 8.472585,11.508914 8.472718,11.445083 8.626572,11.445083 8.768185,11.444996" style="fill: white" /><polygon type="contour" points="8.310514,11.444212 8.310326,11.511361 8.310326,11.570031 8.259081,11.570041 8.216365,11.570022 8.216618,11.510271 8.216618,11.444018 8.260819,11.444018" style="fill: white" /><polygon type="contour" points="8.259081,11.185017 8.310253,11.185017 8.310418,11.236375 8.310514,11.294179 8.259307,11.294179 8.216618,11.294115 8.216365,11.247028 8.216365,11.184796" style="fill: white" /><polygon type="contour" points="7.946787,11.236374 7.946787,11.294115 7.895328,11.294115 7.837653,11.294048 7.837523,11.244591 7.837587,11.236375 7.837587,11.184916 7.884672,11.184796 7.946906,11.184796" style="fill: white" /><polygon type="contour" points="7.946906,11.498614 7.946906,11.570022 7.894019,11.56993 7.837653,11.569885 7.837653,11.444118 7.898383,11.444118 7.946787,11.444018" style="fill: white" /><polygon type="contour" points="7.686366,11.570947 7.686009,11.69732 7.685913,11.719191 7.685704,11.720828 7.685686,11.740025 7.462368,11.740598 7.3881,11.743602 7.388141,11.706044 7.391318,11.658789 7.392054,11.445335 7.686366,11.445335" style="fill: white" />
</svg>
