<svg width="19.131698" height="19.131699">
<polygon type="contour" points="4.718701,4.309901 4.961597,4.309901 4.961599,4.295796 5.0449,4.295796 5.0449,4.309901 5.287801,4.309901 5.287801,4.295796 5.370399,4.295796 5.370401,4.309901 5.613301,4.309901 5.613301,4.295796 5.696601,4.295796 5.696601,4.309901 5.9395,4.309901 5.9395,4.295796 6.022799,4.295796 6.022799,4.309901 6.265,4.309901 6.265,4.295796 6.3483,4.295796 6.3483,4.309901 6.591201,4.309901 6.591201,4.295796 6.6745,4.295796 6.6745,4.309901 6.917399,4.309901 6.917399,4.295796 6.999999,4.295796 6.999999,4.309901 7.2429,4.309901 7.2429,4.295796 7.326199,4.295796 7.326199,4.309901 7.5691,4.309901 7.5691,4.295796 7.6524,4.295796 7.6524,4.309901 7.894599,4.309901 7.894599,4.295796 7.977898,4.295796 7.977898,4.309901 8.220799,4.309901 8.220799,4.295796 8.304099,4.295796 8.304099,4.309901 8.5463,4.309901 8.5463,4.295796 8.6296,4.295796 8.6296,4.309901 8.872499,4.309901 8.872499,4.295796 8.955798,4.295796 8.955798,4.309901 9.198699,4.309901 9.198699,4.295796 9.281299,4.295796 9.281299,4.309901 9.524199,4.309901 9.524199,4.295796 9.607499,4.295796 9.607499,4.309901 9.850398,4.309901 9.850398,4.295796 9.933,4.295796 9.933,4.309901 10.175899,4.309901 10.175899,4.295796 10.259202,4.295796 10.259202,4.309901 10.502101,4.309901 10.502101,4.295796 10.585401,4.295796 10.585401,4.309901 10.8276,4.309901 10.8276,4.295796 10.910901,4.295796 10.910901,4.309901 11.153802,4.309901 11.153802,4.295796 11.237102,4.295796 11.237102,4.309901 11.4793,4.309901 11.4793,4.295796 11.5626,4.295796 11.5626,4.309901 11.805501,4.309901 11.805501,4.295796 11.888801,4.295796 11.888801,4.309901 12.131701,4.309901 12.131701,4.295796 12.214301,4.295796 12.214301,4.309901 12.4572,4.309901 12.4572,4.295796 12.5405,4.295796 12.5405,4.309901 12.783401,4.309901 12.783401,4.295796 12.8667,4.295796 12.8667,4.309901 13.108901,4.309901 13.108901,4.295796 13.192199,4.295796 13.192201,4.309901 13.435099,4.309901 13.435102,4.295796 13.518399,4.295796 13.518399,4.309901 13.7613,4.309901 13.7613,4.295796 13.8439,4.295796 13.8439,4.309901 14.086801,4.309901 14.086799,4.295796 14.1701,4.295796 14.1701,4.309901 14.412999,4.309901 14.412999,4.295796 14.496299,4.295796 14.496299,4.309901 14.7385,4.309901 14.7385,4.295796 14.821799,4.295796 14.821799,4.30936 14.835843,4.30984 14.835843,4.385807 14.835905,4.393202 14.821799,4.393202 14.821799,4.635401 14.835903,4.635401 14.835905,4.711368 14.835905,4.718703 14.821799,4.718703 14.821799,4.961601 14.835905,4.961601 14.835905,5.044902 14.821799,5.044902 14.821799,5.287802 14.835905,5.287802 14.835905,5.370402 14.821799,5.370402 14.821799,5.613302 14.835905,5.613302 14.835905,5.696602 14.821799,5.696602 14.821799,5.939502 14.835905,5.939502 14.835905,6.022802 14.821799,6.022802 14.821799,6.265002 14.835905,6.265002 14.835905,6.348302 14.821799,6.348302 14.821799,6.591202 14.835905,6.591202 14.835905,6.674501 14.821799,6.674501 14.821799,6.917402 14.835905,6.917402 14.835905,7.000002 14.821799,7.000002 14.821799,7.242902 14.835905,7.242902 14.835905,7.326201 14.821799,7.326201 14.821799,7.569101 14.835905,7.569101 14.835905,7.652401 14.821799,7.652401 14.821799,7.894602 14.835905,7.894602 14.835905,7.977901 14.821799,7.977901 14.821799,8.220801 14.835905,8.220801 14.835905,8.304101 14.821799,8.304101 14.821799,8.546302 14.835905,8.546302 14.835905,8.629601 14.821799,8.629601 14.821799,8.872501 14.835905,8.872501 14.835905,8.955801 14.821799,8.955801 14.821799,9.198701 14.835905,9.198701 14.835905,9.281301 14.821799,9.281301 14.821799,9.524201 14.835905,9.524201 14.835891,9.531613 14.835891,9.607501 14.821799,9.607501 14.821799,9.850401 14.835905,9.850401 14.835905,9.933001 14.821799,9.933001 14.821799,10.1759 14.835905,10.1759 14.835905,10.259203 14.821799,10.259203 14.821799,10.502103 14.835905,10.502103 14.835905,10.585402 14.821799,10.585402 14.821799,10.8276 14.835905,10.8276 14.835905,10.910903 14.821799,10.910903 14.821799,11.153803 14.835905,11.153803 14.835905,11.237103 14.821799,11.237103 14.821799,11.479303 14.835905,11.479303 14.835905,11.562603 14.821799,11.562603 14.821799,11.805503 14.835905,11.805503 14.835905,11.888803 14.821799,11.888803 14.821799,12.131702 14.835905,12.131702 14.835905,12.214302 14.821799,12.214302 14.821799,12.457203 14.835905,12.457203 14.835905,12.540503 14.821799,12.540503 14.821799,12.783402 14.835905,12.783402 14.835905,12.866702 14.821799,12.866702 14.821799,13.108902 14.835905,13.108902 14.835905,13.192202 14.821799,13.192202 14.821799,13.435102 14.835905,13.435102 14.835905,13.518402 14.821799,13.518402 14.821799,13.761302 14.835905,13.761302 14.835905,13.843903 14.821799,13.843903 14.821799,14.086802 14.835905,14.086802 14.835905,14.170101 14.821799,14.170101 14.821799,14.413002 14.835905,14.413002 14.835905,14.496302 14.821799,14.496302 14.821799,14.738503 14.835905,14.738503 14.835905,14.821802 14.82234,14.821802 14.821861,14.835845 14.745894,14.835845 14.7385,14.835907 14.7385,14.821802 14.496299,14.821802 14.496299,14.835907 14.412999,14.835907 14.412999,14.821802 14.1701,14.821802 14.1701,14.835907 14.086801,14.835907 14.086801,14.821802 13.8439,14.821802 13.8439,14.835907 13.7613,14.835907 13.7613,14.821802 13.518399,14.821802 13.518399,14.835907 13.4351,14.835907 13.4351,14.821802 13.192201,14.821802 13.192201,14.835907 13.108901,14.835907 13.108901,14.821802 12.8667,14.821802 12.8667,14.835907 12.783401,14.835907 12.783401,14.821802 12.5405,14.821802 12.5405,14.835907 12.4572,14.835907 12.4572,14.821802 12.214301,14.821802 12.214301,14.835907 12.131701,14.835907 12.131701,14.821802 11.888801,14.821802 11.888801,14.835907 11.805501,14.835907 11.805501,14.821802 11.5626,14.821802 11.5626,14.835907 11.4793,14.835907 11.4793,14.821802 11.237102,14.821802 11.237102,14.835907 11.153802,14.835907 11.153802,14.821802 10.910901,14.821802 10.910901,14.835907 10.8276,14.835907 10.8276,14.821802 10.585401,14.821802 10.585401,14.835907 10.502101,14.835907 10.502101,14.821802 10.259202,14.821802 10.259202,14.835907 10.175899,14.835907 10.175899,14.821802 9.933,14.821802 9.933,14.835907 9.850398,14.835907 9.850398,14.821802 9.607499,14.821802 9.607499,14.835907 9.600085,14.835893 9.524199,14.835606 9.524199,14.821802 9.281299,14.821802 9.281299,14.835907 9.198699,14.835907 9.198699,14.821802 8.955798,14.821802 8.955798,14.835907 8.872499,14.835907 8.872499,14.821802 8.6296,14.821802 8.6296,14.835907 8.5463,14.835907 8.5463,14.821802 8.304099,14.821802 8.304099,14.835907 8.220799,14.835907 8.220799,14.821802 7.977898,14.821802 7.977898,14.835907 7.894599,14.835907 7.894599,14.821802 7.6524,14.821802 7.6524,14.835907 7.5691,14.835907 7.5691,14.821802 7.326199,14.821802 7.326199,14.835907 7.2429,14.835907 7.2429,14.821802 6.999999,14.821802 6.999999,14.835907 6.917399,14.835907 6.917399,14.821802 6.6745,14.821802 6.6745,14.835907 6.591201,14.835907 6.591201,14.821801 6.410112,14.821802 6.3483,14.821802 6.3483,14.835907 6.265,14.835907 6.265,14.821802 6.022799,14.821802 6.022799,14.835907 5.9395,14.835907 5.9395,14.821802 5.696601,14.821802 5.696601,14.835907 5.613301,14.835907 5.613301,14.821802 5.3704,14.821802 5.3704,14.835907 5.287801,14.835907 5.287801,14.821802 5.0449,14.821802 5.0449,14.835907 4.961599,14.835907 4.961599,14.821802 4.718701,14.821802 4.718701,14.835907 4.6354,14.835907 4.6354,14.821802 4.393201,14.821802 4.393201,14.835907 4.309899,14.835907 4.309899,14.822343 4.295855,14.821864 4.295855,14.745897 4.295793,14.738503 4.309899,14.738503 4.309899,14.496302 4.295793,14.496302 4.295793,14.413002 4.309899,14.413002 4.309899,14.170101 4.295793,14.170101 4.295793,14.086802 4.309899,14.086802 4.309899,13.843903 4.295793,13.843903 4.295793,13.761302 4.309899,13.761302 4.309899,13.518402 4.295793,13.518402 4.295794,13.442434 4.295794,13.435102 4.309899,13.435102 4.309899,13.192202 4.295793,13.192202 4.295793,13.108902 4.309899,13.108902 4.309899,12.866702 4.295793,12.866702 4.295793,12.783402 4.309899,12.783402 4.309899,12.540503 4.295793,12.540503 4.295793,12.457203 4.309899,12.457203 4.309899,12.214302 4.295793,12.214302 4.295793,12.131702 4.309899,12.131702 4.309899,11.888803 4.295793,11.888803 4.295793,11.805503 4.309899,11.805503 4.309899,11.562603 4.295793,11.562603 4.295793,11.479303 4.309899,11.479303 4.309899,11.237103 4.295793,11.237103 4.295793,11.153803 4.309899,11.153803 4.309899,10.910903 4.295793,10.910903 4.295793,10.8276 4.309899,10.8276 4.309899,10.585402 4.295793,10.585402 4.295793,10.502103 4.309899,10.502103 4.309899,10.259203 4.295793,10.259203 4.295793,10.1759 4.309899,10.1759 4.309899,9.994813 4.309897,9.933001 4.295793,9.933001 4.295793,9.850401 4.309899,9.850401 4.309899,9.607501 4.295793,9.607501 4.295807,9.600088 4.295807,9.524201 4.309899,9.524201 4.309899,9.462387 4.309898,9.281301 4.295793,9.281301 4.295793,9.198701 4.309899,9.198701 4.309899,8.955801 4.295793,8.955801 4.295793,8.872501 4.309899,8.872501 4.309899,8.629601 4.295793,8.629601 4.295793,8.546302 4.309899,8.546302 4.309899,8.304101 4.295793,8.304101 4.295793,8.220801 4.309899,8.220801 4.309899,7.977901 4.295793,7.977901 4.295793,7.894602 4.309899,7.894602 4.309899,7.652401 4.295793,7.652401 4.295793,7.569101 4.309899,7.569101 4.309899,7.326201 4.295793,7.326201 4.295793,7.242902 4.309899,7.242902 4.309899,7.000002 4.295793,7.000002 4.295793,6.917402 4.309899,6.917402 4.309899,6.674501 4.295793,6.674501 4.295793,6.591202 4.309899,6.591202 4.309899,6.348302 4.295793,6.348302 4.295793,6.265002 4.309899,6.265002 4.309899,6.022802 4.295793,6.022802 4.295793,5.939502 4.309899,5.939502 4.309899,5.696602 4.295794,5.696602 4.295793,5.620634 4.295793,5.613302 4.309899,5.613302 4.309899,5.370402 4.295793,5.370402 4.295793,5.287802 4.309899,5.287802 4.309899,5.044902 4.295793,5.044902 4.295793,4.961601 4.309899,4.961601 4.309899,4.718703 4.295793,4.718703 4.295793,4.635401 4.309899,4.635401 4.309899,4.393202 4.295793,4.393202 4.295793,4.309901 4.309358,4.309901 4.309838,4.295857 4.385806,4.295857 4.393201,4.295796 4.393201,4.309901 4.6354,4.309901 4.6354,4.295796 4.718701,4.295796" style="fill: white" /><polygon type="hole" points="6.893719,6.725513 6.862822,6.725513 6.727799,6.727774 6.726654,6.78101 6.725511,6.8428 6.725511,6.85539 6.725521,6.868712 6.72576,6.893927 6.72534,6.909412 6.725511,6.91489 6.725511,7.363897 6.726083,7.431981 6.726083,7.7335 6.726584,7.78165 6.726654,7.83248 6.726654,8.132283 6.727226,8.200366 6.727226,8.636852 6.72764,8.67357 6.727799,8.73297 6.727799,9.148538 6.728372,9.216623 6.728372,9.51757 6.728697,9.534519 6.728965,9.566201 6.729149,9.591891 6.728697,9.597354 6.728372,9.614261 6.728372,9.915207 6.727799,9.983293 6.727799,10.398734 6.727641,10.458131 6.727226,10.494852 6.727226,10.794656 6.726654,10.86274 6.726654,11.299223 6.726584,11.350053 6.726083,11.398203 6.726083,11.699722 6.725511,11.767805 6.725511,12.216811 6.72534,12.222291 6.72576,12.237776 6.725521,12.262516 6.727809,12.403901 6.781009,12.404475 6.7873,12.405047 6.852981,12.405891 6.868711,12.406181 6.893924,12.405942 6.90941,12.406361 6.914888,12.406191 7.363895,12.406191 7.431979,12.405619 7.733498,12.405619 7.781649,12.405117 7.832479,12.405047 8.253746,12.405047 8.268961,12.405048 8.337046,12.404475 8.636848,12.404475 8.67357,12.404061 8.732967,12.403902 8.883441,12.403902 8.98982,12.403901 9.148536,12.403901 9.216619,12.403329 9.517568,12.403329 9.534518,12.403004 9.566199,12.402734 9.591888,12.402552 9.597352,12.403005 9.614259,12.403329 9.915207,12.403329 9.983291,12.403901 10.398732,12.403901 10.458128,12.40406 10.494852,12.404475 10.794654,12.404475 10.862738,12.405047 11.29922,12.405047 11.35005,12.405117 11.398201,12.405619 11.699721,12.405619 11.767804,12.406191 12.216808,12.406191 12.222289,12.406361 12.237775,12.405942 12.262514,12.406181 12.314073,12.405047 12.4039,12.403901 12.404474,12.354125 12.405888,12.278719 12.406179,12.262515 12.405941,12.237776 12.406359,12.222291 12.406189,12.21681 12.406189,11.75259 12.405617,11.684507 12.405617,11.382988 12.405046,11.284008 12.405046,10.756362 12.404474,10.688278 12.404474,10.388475 12.4039,10.292354 12.4039,9.990836 12.403328,9.922752 12.403328,9.614261 12.403003,9.597354 12.402734,9.566202 12.402551,9.540075 12.403003,9.53452 12.403328,9.51757 12.403328,9.216622 12.4039,9.148539 12.4039,8.84702 12.404474,8.7509 12.404474,8.451097 12.405046,8.383013 12.405046,8.08321 12.405617,7.98423 12.405617,7.447196 12.406189,7.379112 12.406189,6.91489 12.40636,6.909412 12.405941,6.893928 12.406179,6.868712 12.404156,6.727546 12.278718,6.725813 12.262514,6.725523 12.237775,6.725762 12.222289,6.725343 12.216808,6.725513 11.752589,6.725513 11.684506,6.726085 11.382987,6.726085 11.284004,6.726657 10.75636,6.726657 10.688276,6.727228 10.388474,6.727228 10.292353,6.7278 9.990836,6.7278 9.92275,6.728374 9.614258,6.728374 9.597352,6.728698 9.566198,6.728968 9.540074,6.729151 9.534518,6.728698 9.517569,6.728374 9.216619,6.728374 9.148536,6.7278 8.839345,6.7278 8.743226,6.727228 8.443423,6.727228 8.375339,6.726657 7.847695,6.726657 7.748712,6.726085 7.447194,6.726085 7.37911,6.725513 6.914888,6.725513 6.903174,6.725149" style="fill: black" />
</svg>
