<svg width="19.131698" height="19.131699">
<polygon type="contour" points="9.83672,10.375618 9.83672,10.387885 9.836622,10.473242 9.836622,10.498247 9.83672,10.602469 9.714127,10.602638 9.714127,10.769237 9.710314,10.769411 9.635308,10.769239 9.594736,10.769216 9.583453,10.769262 9.5655,10.769481 9.562384,10.769382 9.547635,10.769263 9.536405,10.769216 9.496024,10.76924 9.417574,10.769238 9.417932,10.741328 9.417948,10.602638 9.29498,10.602469 9.29498,10.588712 9.295078,10.491348 9.295078,10.467088 9.29498,10.375618 9.307948,10.375618 9.398845,10.375495 9.739521,10.375495" style="fill: white" /><polygon type="contour" points="10.473239,10.375898 10.498245,10.375898 10.602467,10.375618 10.602583,10.491426 10.744684,10.491426 10.754468,10.491407 10.764788,10.491404 10.769228,10.491404 10.773372,10.622581 10.77381,10.633189 10.776682,10.661444 10.776971,10.776973 10.575437,10.771272 10.545758,10.770099 10.530651,10.769902 10.492413,10.770381 10.492002,10.758273 10.492002,10.74666 10.491934,10.746097 10.491407,10.721835 10.491316,10.705165 10.491316,10.602584 10.375616,10.602469 10.375616,10.588712 10.375896,10.491348 10.375896,10.467088 10.375616,10.375618 10.387883,10.375618" style="fill: white" /><polygon type="contour" points="10.769307,8.636265 10.769228,8.6403 10.602583,8.6403 10.602467,8.756086 10.588711,8.756086 10.491347,8.755806 10.467087,8.755806 10.375616,8.756086 10.375616,8.743818 10.375896,8.658461 10.375896,8.633455 10.375616,8.529233 10.491336,8.52912 10.491316,8.426538 10.491407,8.409869 10.491934,8.385607 10.492002,8.37343 10.492412,8.361323 10.530651,8.361802 10.575437,8.360431 10.776971,8.354731" style="fill: white" /><polygon type="contour" points="10.47324,9.295081 10.498245,9.295081 10.602467,9.294982 10.602582,9.417376 10.741326,9.417934 10.769261,9.41758 10.769263,9.497448 10.769252,9.537632 10.769532,9.563297 10.769517,9.566202 10.769252,9.594634 10.769263,9.634628 10.769261,9.714124 10.602637,9.714124 10.602467,9.836722 10.58871,9.836722 10.491346,9.836623 10.467087,9.836623 10.375616,9.836722 10.375616,9.823753 10.375493,9.732856 10.375493,9.392182 10.375616,9.294982 10.387882,9.294982" style="fill: white" /><polygon type="contour" points="8.556262,8.36043 8.585942,8.361606 8.601049,8.361802 8.639288,8.361323 8.639699,8.37343 8.639699,8.385043 8.639766,8.385606 8.640292,8.409868 8.640385,8.426539 8.640385,8.52912 8.756084,8.529233 8.756084,8.542989 8.755805,8.640356 8.755805,8.664615 8.756084,8.756086 8.743816,8.756086 8.658459,8.755806 8.633455,8.755806 8.529231,8.756086 8.529118,8.640278 8.387015,8.640278 8.377232,8.640296 8.366911,8.6403 8.362473,8.6403 8.358328,8.509123 8.357888,8.498514 8.355017,8.470259 8.354729,8.354731" style="fill: white" /><polygon type="contour" points="9.569314,8.362322 9.584065,8.362441 9.595294,8.362487 9.635675,8.362463 9.714127,8.362466 9.714127,8.529066 9.83672,8.529233 9.83672,8.54299 9.836622,8.640355 9.836622,8.664615 9.83672,8.756086 9.823751,8.756086 9.732856,8.756209 9.392179,8.756209 9.29498,8.756086 9.29498,8.743818 9.295078,8.658461 9.295078,8.633455 9.29498,8.529233 9.417574,8.529066 9.417574,8.362466 9.421386,8.362292 9.496392,8.362464 9.536963,8.362488 9.548246,8.362441 9.566199,8.362223" style="fill: white" /><polygon type="contour" points="9.398844,9.295245 9.739521,9.295245 9.83672,9.294982 9.83672,9.307949 9.836453,9.398848 9.836453,9.739521 9.83672,9.836722 9.823751,9.836722 9.732855,9.836456 9.39218,9.836456 9.29498,9.836722 9.29498,9.823754 9.295243,9.732857 9.295243,9.392182 9.29498,9.294982 9.307947,9.294982" style="fill: white" /><polygon type="contour" points="8.640353,9.295081 8.664613,9.295081 8.756084,9.294982 8.756084,9.307949 8.756208,9.398848 8.756208,9.739521 8.756084,9.836722 8.743817,9.836722 8.658459,9.836623 8.633455,9.836623 8.529231,9.836722 8.529119,9.713743 8.390373,9.713769 8.362439,9.714124 8.362437,9.634255 8.362448,9.594071 8.362168,9.568406 8.362182,9.565501 8.362448,9.537069 8.362437,9.497075 8.362438,9.41758 8.529064,9.41758 8.529231,9.294982 8.542986,9.294982" style="fill: white" /><polygon type="contour" points="8.640354,10.375898 8.664613,10.375898 8.756084,10.375618 8.756084,10.387884 8.755805,10.473242 8.755805,10.498248 8.756084,10.602469 8.640364,10.602584 8.640384,10.705166 8.640292,10.721834 8.639767,10.746097 8.639699,10.758273 8.639288,10.770381 8.601049,10.769902 8.556262,10.771273 8.354729,10.776973 8.362392,10.495438 8.362473,10.491404 8.366911,10.491404 8.377232,10.491407 8.387015,10.491426 8.529118,10.491426 8.529231,10.375618 8.542987,10.375618" style="fill: white" />
</svg>
