<svg width="19.131698" height="19.131699">
<polygon type="contour" points="5.220749,11.694395 5.455298,11.696331 5.455298,11.768377 5.45429,12.000268 5.389057,12.000266 5.325043,12.000314 5.32481,11.99504 5.236554,11.995142 5.191694,11.995559 5.148314,11.995559 5.148984,11.725452 5.149002,11.692654" style="fill: white" /><polygon type="contour" points="11.995502,5.236108 11.995038,5.324763 12.000313,5.325044 12.000313,5.390551 12.000266,5.454291 11.768376,5.455299 11.696329,5.455299 11.693275,5.250847 11.692442,5.148887 11.727605,5.148831 11.995558,5.148315" style="fill: white" /><polygon type="contour" points="12.587468,7.13139 12.587468,7.322276 12.587413,7.438158 12.416467,7.436953 12.372632,7.436847 12.372632,7.373739 12.372502,7.131321 12.474402,7.131321" style="fill: white" /><polygon type="contour" points="12.4537,6.544289 12.587413,6.544289 12.587468,6.626247 12.587468,6.758702 12.505454,6.758702 12.372502,6.759201 12.372502,6.657298 12.373001,6.544235" style="fill: white" /><polygon type="contour" points="12.000313,6.544235 12.000313,6.626247 12.000382,6.759201 11.757961,6.75907 11.694854,6.75907 11.694748,6.715234 11.693633,6.5442 11.756851,6.544171" style="fill: white" /><polygon type="contour" points="12.000467,5.929174 12.000313,6.076463 11.809424,6.076463 11.693543,6.076621 11.69471,5.842603 11.694559,5.780982 11.766177,5.780982 12.000456,5.780748" style="fill: white" /><polygon type="contour" points="12.587423,5.780907 12.587413,5.89222 12.587413,6.076621 12.505455,6.076463 12.373001,6.076463 12.372932,5.954176 12.372451,5.780523 12.481484,5.780523" style="fill: white" /><polygon type="contour" points="12.472996,5.324751 12.587413,5.325368 12.587423,5.379758 12.587423,5.455718 12.498574,5.455718 12.372451,5.455685 12.372502,5.393141 12.372502,5.32468" style="fill: white" /><polygon type="contour" points="13.350952,5.324919 13.350952,5.455542 13.192927,5.455542 13.055396,5.455718 13.055082,5.406207 13.055082,5.325369 13.204166,5.324907" style="fill: white" /><polygon type="contour" points="13.984946,5.252389 13.984183,5.450726 13.984167,5.454849 13.980715,5.454857 13.980134,5.454849 13.977126,5.454849 13.707411,5.454235 13.677465,5.454235 13.677465,5.382759 13.677409,5.309934 13.677409,5.147616 13.775235,5.146492 13.855613,5.145464 13.879313,5.146755 13.988887,5.142814" style="fill: white" /><polygon type="contour" points="13.80635,5.954176 13.806332,6.076621 13.751941,6.076307 13.675983,6.076307 13.675983,5.954176 13.676159,5.780748 13.806782,5.780748" style="fill: white" /><polygon type="contour" points="13.350952,5.938773 13.350794,6.076307 13.239482,6.076621 13.055082,6.076621 13.055396,5.954177 13.055396,5.780907 13.177523,5.780907 13.350952,5.780748" style="fill: white" /><polygon type="contour" points="13.350794,6.633127 13.351177,6.759251 13.177524,6.758767 13.05524,6.758702 13.055082,6.678001 13.055082,6.544288 13.177523,6.544279 13.350794,6.544279" style="fill: white" /><polygon type="contour" points="13.725493,6.544289 13.806332,6.544289 13.80695,6.658704 13.807022,6.759201 13.740155,6.759251 13.676016,6.759251 13.676016,6.650217 13.675983,6.544279" style="fill: white" /><polygon type="contour" points="13.806889,7.136665 13.895144,7.136562 13.940003,7.136145 13.983386,7.136145 13.982715,7.406251 13.982698,7.43905 13.910949,7.437308 13.676403,7.435373 13.676403,7.363326 13.677409,7.131435 13.742642,7.131436 13.806655,7.131389" style="fill: white" /><polygon type="contour" points="13.350719,7.365523 13.350719,7.437142 13.289099,7.436992 13.055439,7.43772 13.055525,7.373703 13.05524,7.13139 13.177523,7.13139 13.350952,7.131247" style="fill: white" /><polygon type="contour" points="13.806794,13.204169 13.806782,13.350955 13.676159,13.350955 13.676159,13.19293 13.675983,13.055397 13.725494,13.055083 13.806332,13.055083" style="fill: white" /><polygon type="contour" points="12.000312,13.177526 12.000456,13.350955 11.766177,13.350721 11.694559,13.350721 11.69471,13.2891 11.693982,13.055441 11.758,13.055525 12.000313,13.055241" style="fill: white" /><polygon type="contour" points="12.000266,13.677411 12.000264,13.742644 12.000298,13.80798 11.995443,13.804308 11.995558,13.983388 11.72576,13.982501 11.692514,13.982535 11.694393,13.910951 11.696329,13.676405 11.768377,13.676405" style="fill: white" /><polygon type="contour" points="12.587413,13.725496 12.587413,13.806335 12.472996,13.806953 12.372502,13.807025 12.372451,13.740158 12.372451,13.676019 12.481484,13.676019 12.587423,13.675986" style="fill: white" /><polygon type="contour" points="12.587423,13.177525 12.587423,13.350796 12.498574,13.350796 12.372451,13.351179 12.372933,13.177525 12.373001,13.055241 12.4537,13.055083 12.587413,13.055083" style="fill: white" /><polygon type="contour" points="12.587468,12.373003 12.587413,12.453701 12.587413,12.587414 12.505455,12.587469 12.373001,12.587469 12.373001,12.505455 12.372502,12.372503 12.474403,12.372503" style="fill: white" /><polygon type="contour" points="12.000313,12.505456 12.000313,12.587469 11.809424,12.587469 11.693543,12.587414 11.694748,12.416469 11.694854,12.372634 11.757961,12.372634 12.000382,12.372503" style="fill: white" /><polygon type="contour" points="10.977517,12.050852 10.767514,12.050852 10.767514,11.840852 10.977517,11.840852" style="fill: white" /><polygon type="contour" points="10.324185,12.050852 10.114186,12.050852 10.114186,11.840852 10.324185,11.840852" style="fill: white" /><polygon type="contour" points="9.670852,12.050852 9.460849,12.050852 9.460849,11.840852 9.670852,11.840852" style="fill: white" /><polygon type="contour" points="9.017514,12.050852 8.807515,12.050852 8.807515,11.840852 9.017514,11.840852" style="fill: white" /><polygon type="contour" points="8.364186,12.050852 8.154183,12.050852 8.154183,11.840852 8.364186,11.840852" style="fill: white" /><polygon type="contour" points="6.759249,13.676019 6.759199,13.738562 6.759199,13.807025 6.658702,13.806953 6.544286,13.806335 6.544277,13.751943 6.544277,13.675986 6.633125,13.675986" style="fill: white" /><polygon type="contour" points="7.438423,13.880855 7.439258,13.982816 7.404094,13.982873 7.136143,13.983388 7.136199,13.895596 7.136663,13.806941 7.131386,13.806659 7.131387,13.741152 7.131432,13.677411 7.363323,13.676405 7.435371,13.676405" style="fill: white" /><polygon type="contour" points="7.373701,13.055526 7.437718,13.055442 7.43699,13.289101 7.437141,13.350721 7.365522,13.350721 7.131245,13.350955 7.131234,13.20253 7.131387,13.055241" style="fill: white" /><polygon type="contour" points="7.373737,12.372634 7.436845,12.372634 7.436952,12.416469 7.438067,12.587504 7.374848,12.587533 7.131387,12.587468 7.131387,12.505455 7.131319,12.372503" style="fill: white" /><polygon type="contour" points="6.759199,12.474405 6.7587,12.587469 6.678,12.587414 6.544286,12.587414 6.544233,12.505455 6.544233,12.373003 6.626246,12.373003 6.759199,12.372503" style="fill: white" /><polygon type="contour" points="6.626246,13.055241 6.7587,13.055241 6.758767,13.177526 6.759249,13.351179 6.650216,13.351179 6.544277,13.350796 6.544286,13.239484 6.544286,13.055083" style="fill: white" /><polygon type="contour" points="6.076305,13.177526 6.076305,13.350796 5.954175,13.350796 5.780747,13.350955 5.780747,13.19293 5.780905,13.055397 5.892216,13.055084 6.076619,13.055084" style="fill: white" /><polygon type="contour" points="6.076619,13.725497 6.076619,13.806335 5.954175,13.806352 5.780747,13.806782 5.780747,13.676162 5.938772,13.676162 6.076305,13.675986" style="fill: white" /><polygon type="contour" points="5.151564,13.676853 5.154571,13.676853 5.424286,13.677468 5.454233,13.677468 5.454233,13.984146 5.276086,13.98624 5.252387,13.984948 5.142813,13.988888 5.146754,13.879313 5.147514,13.680975 5.14753,13.676853 5.150983,13.676846" style="fill: white" /><polygon type="contour" points="5.379756,13.055397 5.455716,13.055397 5.455716,13.177526 5.45554,13.350955 5.324917,13.350955 5.325348,13.177525 5.325367,13.055083" style="fill: white" /><polygon type="contour" points="5.455683,12.481485 5.455716,12.587424 5.406206,12.587414 5.325367,12.587414 5.324749,12.472997 5.324677,12.372503 5.391543,12.372453 5.455683,12.372453" style="fill: white" /><polygon type="contour" points="5.954174,12.372936 6.076461,12.373003 6.076619,12.453701 6.076619,12.587414 5.954175,12.587424 5.780905,12.587424 5.780905,12.498576 5.780521,12.372453" style="fill: white" /><polygon type="contour" points="6.076176,11.758001 6.07646,12.000314 5.954175,12.000314 5.780747,12.000457 5.780981,11.766179 5.780981,11.694561 5.842601,11.694712 6.076261,11.693983" style="fill: white" /><polygon type="contour" points="6.715232,11.694748 6.759068,11.694855 6.759068,11.757962 6.759199,12.000382 6.657297,12.000382 6.544233,12.000314 6.544169,11.756853 6.544198,11.693635" style="fill: white" /><polygon type="contour" points="7.29085,11.696522 7.437621,11.694081 7.439062,11.755746 7.437711,11.840852 7.710849,11.840852 7.710849,12.050852 7.500849,12.050852 7.500849,12.000612 7.353424,12.000299 7.131403,12.000299 7.131229,11.876964 7.131407,11.761343 7.131407,11.630853 7.080851,11.630853 7.080851,11.420854 7.29085,11.420854" style="fill: white" /><polygon type="contour" points="7.29085,10.977519 7.080851,10.977519 7.080851,10.767516 7.29085,10.767516" style="fill: white" /><polygon type="contour" points="7.29085,10.324187 7.080851,10.324187 7.080851,10.114188 7.29085,10.114188" style="fill: white" /><polygon type="contour" points="7.29085,9.670854 7.080851,9.670854 7.080851,9.460851 7.29085,9.460851" style="fill: white" /><polygon type="contour" points="7.29085,9.017516 7.080851,9.017516 7.080851,8.807517 7.29085,8.807517" style="fill: white" /><polygon type="contour" points="7.29085,8.364188 7.080851,8.364188 7.080851,8.154185 7.29085,8.154185" style="fill: white" /><polygon type="contour" points="6.759068,7.373739 6.759068,7.436847 6.715232,7.436954 6.544198,7.438069 6.544169,7.37485 6.544233,7.13139 6.626245,7.13139 6.759199,7.131321" style="fill: white" /><polygon type="contour" points="5.390549,7.13139 5.45429,7.131434 5.455298,7.363326 5.455298,7.435373 5.250846,7.43796 5.148885,7.438796 5.148828,7.403481 5.148314,7.136145 5.193303,7.136615 5.236638,7.136615 5.324808,7.136715 5.325042,7.131389" style="fill: white" /><polygon type="contour" points="5.954175,7.13139 6.076461,7.13139 6.076461,7.322276 6.076619,7.438158 5.842601,7.436992 5.780981,7.437142 5.780981,7.365524 5.780747,7.131247" style="fill: white" /><polygon type="contour" points="5.892217,6.544289 6.076619,6.544289 6.076461,6.626248 6.076461,6.758702 5.954174,6.758767 5.780521,6.759251 5.780905,6.633127 5.780905,6.544279" style="fill: white" /><polygon type="contour" points="5.455716,6.633127 5.455683,6.759251 5.39314,6.759201 5.324677,6.759201 5.324749,6.658704 5.325366,6.544289 5.379757,6.544279 5.455716,6.544279" style="fill: white" /><polygon type="contour" points="5.45554,5.938773 5.455716,6.076307 5.406205,6.076621 5.325367,6.076621 5.325348,5.954177 5.324917,5.780748 5.45554,5.780748" style="fill: white" /><polygon type="contour" points="5.389684,5.144975 5.454233,5.147558 5.454173,5.342351 5.454173,5.454174 5.382757,5.454235 5.147557,5.454235 5.146754,5.252388 5.142813,5.142814" style="fill: white" /><polygon type="contour" points="5.954175,5.32535 5.9864,5.325369 6.076619,5.325369 6.076305,5.379758 6.076305,5.455718 5.954174,5.455718 5.780747,5.455542 5.780747,5.324919" style="fill: white" /><polygon type="contour" points="5.954175,5.780907 6.076305,5.780907 6.076619,5.89222 6.076619,6.076621 5.954175,6.076307 5.780905,6.076307 5.780905,5.954176 5.780747,5.780748 5.926043,5.780523" style="fill: white" /><polygon type="contour" points="7.365522,5.780982 7.437141,5.780982 7.43699,5.842602 7.437718,6.076263 7.373701,6.076178 7.131387,6.076463 7.131388,5.954177 7.131245,5.780748" style="fill: white" /><polygon type="contour" points="7.40594,5.149203 7.439187,5.149169 7.437307,5.220751 7.435371,5.455299 7.363324,5.455299 7.131432,5.454292 7.131434,5.389059 7.131444,5.323609 7.136654,5.32308 7.136199,5.236108 7.136143,5.148315" style="fill: white" /><polygon type="contour" points="6.759249,5.391544 6.759249,5.455685 6.650216,5.455685 6.544277,5.455718 6.544286,5.406207 6.544286,5.325369 6.658701,5.324751 6.759199,5.32468" style="fill: white" /><polygon type="contour" points="6.758767,5.954176 6.7587,6.076463 6.678,6.076621 6.544286,6.076621 6.544277,5.954176 6.544277,5.780907 6.633125,5.780907 6.759249,5.780523" style="fill: white" /><polygon type="contour" points="6.7587,6.626248 6.759199,6.759201 6.657296,6.759201 6.544233,6.758702 6.544286,6.678 6.544286,6.544289 6.626246,6.544235 6.7587,6.544235" style="fill: white" /><polygon type="contour" points="7.438067,6.5442 7.436952,6.715234 7.436845,6.759071 7.373737,6.759071 7.131319,6.759201 7.131387,6.626248 7.131387,6.544235 7.374848,6.544171" style="fill: white" /><polygon type="contour" points="7.710849,7.290852 7.435179,7.290852 7.437621,7.437624 7.375955,7.439065 7.29085,7.437714 7.29085,7.71085 7.080851,7.71085 7.080851,7.500851 7.131089,7.500851 7.131403,7.353426 7.131403,7.131405 7.254736,7.131231 7.370357,7.131409 7.500849,7.131409 7.500849,7.080852 7.710849,7.080852" style="fill: white" /><polygon type="contour" points="8.364186,7.290852 8.154183,7.290852 8.154183,7.080852 8.364186,7.080852" style="fill: white" /><polygon type="contour" points="9.017514,7.290852 8.807515,7.290852 8.807515,7.080852 9.017514,7.080852" style="fill: white" /><polygon type="contour" points="9.670852,7.290852 9.460849,7.290852 9.460849,7.080852 9.670852,7.080852" style="fill: white" /><polygon type="contour" points="10.324185,7.290852 10.114186,7.290852 10.114186,7.080852 10.324185,7.080852" style="fill: white" /><polygon type="contour" points="10.977517,7.290852 10.767514,7.290852 10.767514,7.080852 10.977517,7.080852" style="fill: white" /><polygon type="contour" points="11.630851,7.131091 11.778276,7.131405 12.000298,7.131405 12.000471,7.254738 12.000294,7.37036 12.000294,7.500851 12.050849,7.500851 12.050849,7.71085 11.84085,7.71085 11.84085,7.435182 11.694079,7.437624 11.692638,7.375958 11.693987,7.290852 11.420852,7.290852 11.420852,7.080852 11.630851,7.080852" style="fill: white" /><polygon type="contour" points="12.050849,8.364188 11.84085,8.364188 11.84085,8.154185 12.050849,8.154185" style="fill: white" /><polygon type="contour" points="12.050849,9.017516 11.84085,9.017516 11.84085,8.807517 12.050849,8.807517" style="fill: white" /><polygon type="contour" points="12.050849,9.670854 11.84085,9.670854 11.84085,9.460851 12.050849,9.460851" style="fill: white" /><polygon type="contour" points="12.050849,10.324187 11.84085,10.324187 11.84085,10.114188 12.050849,10.114188" style="fill: white" /><polygon type="contour" points="12.050849,10.977519 11.84085,10.977519 11.84085,10.767516 12.050849,10.767516" style="fill: white" /><polygon type="contour" points="12.050849,11.630853 12.000609,11.630853 12.000298,11.778277 12.000298,12.000299 11.876961,12.000473 11.761343,12.000295 11.630851,12.000295 11.630851,12.050852 11.420852,12.050852 11.420852,11.840852 11.696521,11.840852 11.69408,11.694081 11.755745,11.692639 11.84085,11.693989 11.84085,11.420854 12.050849,11.420854" style="fill: white" /><polygon type="contour" points="12.587531,11.756853 12.587468,12.000314 12.505454,12.000314 12.372502,12.000382 12.372632,11.757961 12.372632,11.694855 12.416467,11.694748 12.587502,11.693635" style="fill: white" /><polygon type="contour" points="13.289098,11.694712 13.350719,11.694561 13.350719,11.76618 13.350952,12.000457 13.177523,12.000314 13.055239,12.000314 13.055525,11.758002 13.055439,11.693984" style="fill: white" /><polygon type="contour" points="13.982871,11.728222 13.983386,11.995559 13.938396,11.995089 13.89506,11.995089 13.806891,11.994988 13.806656,12.000314 13.741149,12.000314 13.677409,12.000268 13.676403,11.768378 13.676403,11.69633 13.880854,11.693744 13.982815,11.692908" style="fill: white" /><polygon type="contour" points="13.738559,12.372503 13.807022,12.372503 13.80695,12.472997 13.806332,12.587414 13.75194,12.587424 13.675983,12.587424 13.675983,12.498576 13.676016,12.372453" style="fill: white" /><polygon type="contour" points="13.350794,12.498576 13.350794,12.587424 13.239482,12.587414 13.055082,12.587414 13.05524,12.505456 13.05524,12.373003 13.177524,12.372936 13.351177,12.372453" style="fill: white" /><polygon type="contour" points="13.177524,13.055397 13.350794,13.055397 13.350794,13.177526 13.350952,13.350955 13.205654,13.351179 13.177524,13.350796 13.055396,13.350796 13.055082,13.239484 13.055082,13.055083" style="fill: white" /><polygon type="contour" points="13.350952,13.676162 13.350952,13.806782 13.177524,13.806352 13.1453,13.806335 13.055082,13.806335 13.055396,13.751944 13.055396,13.675986 13.177524,13.675986" style="fill: white" /><polygon type="contour" points="13.984946,13.879314 13.988887,13.988887 13.742013,13.986729 13.677465,13.984146 13.677465,13.677468 13.984144,13.677468" style="fill: white" /><polygon type="contour" points="14.264602,14.920853 14.054599,14.920853 14.054599,14.710852 14.264602,14.710852" style="fill: white" /><polygon type="contour" points="13.608352,14.920853 13.398349,14.920853 13.398349,14.710852 13.608352,14.710852" style="fill: white" /><polygon type="contour" points="12.952102,14.920853 12.742099,14.920853 12.742099,14.710852 12.952102,14.710852" style="fill: white" /><polygon type="contour" points="12.295852,14.920853 12.085849,14.920853 12.085849,14.710852 12.295852,14.710852" style="fill: white" /><polygon type="contour" points="11.639602,14.920853 11.429599,14.920853 11.429599,14.710852 11.639602,14.710852" style="fill: white" /><polygon type="contour" points="10.983352,14.920853 10.773349,14.920853 10.773349,14.710852 10.983352,14.710852" style="fill: white" /><polygon type="contour" points="10.327102,14.920853 10.117099,14.920853 10.117099,14.710852 10.327102,14.710852" style="fill: white" /><polygon type="contour" points="9.670852,14.920853 9.460849,14.920853 9.460849,14.710852 9.670852,14.710852" style="fill: white" /><polygon type="contour" points="9.014602,14.920853 8.804599,14.920853 8.804599,14.710852 9.014602,14.710852" style="fill: white" /><polygon type="contour" points="8.358351,14.920853 8.148349,14.920853 8.148349,14.710852 8.358351,14.710852" style="fill: white" /><polygon type="contour" points="7.702101,14.920853 7.492099,14.920853 7.492099,14.710852 7.702101,14.710852" style="fill: white" /><polygon type="contour" points="7.045851,14.920853 6.835849,14.920853 6.835849,14.710852 7.045851,14.710852" style="fill: white" /><polygon type="contour" points="6.389601,14.920853 6.179599,14.920853 6.179599,14.710852 6.389601,14.710852" style="fill: white" /><polygon type="contour" points="5.733351,14.920853 5.52335,14.920853 5.52335,14.710852 5.733351,14.710852" style="fill: white" /><polygon type="contour" points="5.0771,14.920853 4.8671,14.920853 4.8671,14.710852 5.0771,14.710852" style="fill: white" /><polygon type="contour" points="4.42085,14.920853 4.21085,14.920853 4.21085,14.710852 4.42085,14.710852" style="fill: white" /><polygon type="contour" points="4.42085,14.264603 4.21085,14.264603 4.21085,14.054602 4.42085,14.054602" style="fill: white" /><polygon type="contour" points="4.42085,13.608353 4.21085,13.608353 4.21085,13.398351 4.42085,13.398351" style="fill: white" /><polygon type="contour" points="4.42085,12.952103 4.21085,12.952103 4.21085,12.742101 4.42085,12.742101" style="fill: white" /><polygon type="contour" points="4.42085,12.295853 4.21085,12.295853 4.21085,12.085851 4.42085,12.085851" style="fill: white" /><polygon type="contour" points="4.42085,11.639603 4.21085,11.639603 4.21085,11.429601 4.42085,11.429601" style="fill: white" /><polygon type="contour" points="4.42085,10.983354 4.21085,10.983354 4.210851,10.78895 4.210851,10.773351 4.42085,10.773351" style="fill: white" /><polygon type="contour" points="4.42085,10.327104 4.21085,10.327104 4.21085,10.117101 4.42085,10.117101" style="fill: white" /><polygon type="contour" points="4.42085,9.670854 4.21085,9.670854 4.21085,9.460851 4.42085,9.460851" style="fill: white" /><polygon type="contour" points="4.42085,9.014604 4.21085,9.014604 4.21085,8.804601 4.42085,8.804601" style="fill: white" /><polygon type="contour" points="4.42085,8.358353 4.21085,8.358353 4.21085,8.14835 4.42085,8.14835" style="fill: white" /><polygon type="contour" points="4.42085,7.702103 4.21085,7.702103 4.21085,7.492101 4.42085,7.492101" style="fill: white" /><polygon type="contour" points="4.42085,6.85145 4.420849,7.045853 4.21085,7.045853 4.21085,6.835851 4.42085,6.835851" style="fill: white" /><polygon type="contour" points="4.42085,6.389603 4.21085,6.389603 4.21085,6.179601 4.42085,6.179601" style="fill: white" /><polygon type="contour" points="4.42085,5.733353 4.21085,5.733353 4.21085,5.523352 4.42085,5.523352" style="fill: white" /><polygon type="contour" points="4.42085,5.077102 4.21085,5.077102 4.21085,4.867102 4.42085,4.867102" style="fill: white" /><polygon type="contour" points="4.42085,4.420852 4.21085,4.420852 4.21085,4.210852 4.42085,4.210852" style="fill: white" /><polygon type="contour" points="5.0771,4.420852 4.8671,4.420852 4.8671,4.210852 5.0771,4.210852" style="fill: white" /><polygon type="contour" points="5.733351,4.420852 5.52335,4.420852 5.52335,4.210852 5.733351,4.210852" style="fill: white" /><polygon type="contour" points="6.389601,4.420852 6.179599,4.420852 6.179599,4.210852 6.389601,4.210852" style="fill: white" /><polygon type="contour" points="7.045851,4.420852 6.835849,4.420852 6.835849,4.210852 7.045851,4.210852" style="fill: white" /><polygon type="contour" points="7.702101,4.420852 7.492099,4.420852 7.492099,4.210852 7.702101,4.210852" style="fill: white" /><polygon type="contour" points="8.358351,4.420852 8.148349,4.420852 8.148349,4.210852 8.358351,4.210852" style="fill: white" /><polygon type="contour" points="9.014602,4.420852 8.804599,4.420852 8.804599,4.210852 9.014602,4.210852" style="fill: white" /><polygon type="contour" points="9.670852,4.420852 9.460849,4.420852 9.460849,4.210852 9.670852,4.210852" style="fill: white" /><polygon type="contour" points="10.327102,4.420852 10.117099,4.420852 10.117099,4.210852 10.327102,4.210852" style="fill: white" /><polygon type="contour" points="10.983352,4.420852 10.773349,4.420852 10.773349,4.210852 10.983352,4.210852" style="fill: white" /><polygon type="contour" points="11.639602,4.420852 11.429599,4.420852 11.429599,4.210852 11.639602,4.210852" style="fill: white" /><polygon type="contour" points="12.295852,4.420852 12.085849,4.420852 12.085849,4.210852 12.295852,4.210852" style="fill: white" /><polygon type="contour" points="12.952102,4.420852 12.742099,4.420852 12.742099,4.210852 12.952102,4.210852" style="fill: white" /><polygon type="contour" points="13.608352,4.420852 13.398349,4.420852 13.398349,4.210852 13.608352,4.210852" style="fill: white" /><polygon type="contour" points="14.264602,4.420852 14.054599,4.420852 14.054599,4.210852 14.264602,4.210852" style="fill: white" /><polygon type="contour" points="14.920852,4.420852 14.710849,4.420852 14.710849,4.210852 14.920852,4.210852" style="fill: white" /><polygon type="contour" points="14.920852,5.077102 14.710849,5.077102 14.710849,4.867102 14.920852,4.867102" style="fill: white" /><polygon type="contour" points="14.920852,5.733353 14.710849,5.733353 14.710849,5.523352 14.920852,5.523352" style="fill: white" /><polygon type="contour" points="14.920852,6.389603 14.710849,6.389603 14.710849,6.179601 14.920852,6.179601" style="fill: white" /><polygon type="contour" points="14.920852,7.045853 14.710849,7.045853 14.710849,6.835851 14.920852,6.835851" style="fill: white" /><polygon type="contour" points="14.920852,7.702103 14.710849,7.702103 14.710849,7.492101 14.920852,7.492101" style="fill: white" /><polygon type="contour" points="14.920852,8.358353 14.710849,8.358353 14.710849,8.14835 14.920852,8.14835" style="fill: white" /><polygon type="contour" points="14.920852,9.014604 14.710849,9.014604 14.710849,8.804601 14.920852,8.804601" style="fill: white" /><polygon type="contour" points="14.920852,9.670854 14.710849,9.670854 14.710849,9.460851 14.920852,9.460851" style="fill: white" /><polygon type="contour" points="14.920852,10.327104 14.710849,10.327104 14.710849,10.117101 14.920852,10.117101" style="fill: white" /><polygon type="contour" points="14.920852,10.983354 14.710849,10.983354 14.710849,10.773351 14.920852,10.773351" style="fill: white" /><polygon type="contour" points="14.920852,11.639603 14.710849,11.639603 14.710849,11.429601 14.920852,11.429601" style="fill: white" /><polygon type="contour" points="14.920852,12.295853 14.710849,12.295853 14.710849,12.085851 14.920852,12.085851" style="fill: white" /><polygon type="contour" points="14.920852,12.952103 14.710849,12.952103 14.710849,12.742101 14.920852,12.742101" style="fill: white" /><polygon type="contour" points="14.920852,13.608353 14.710849,13.608353 14.710849,13.398351 14.920852,13.398351" style="fill: white" /><polygon type="contour" points="14.920852,14.264603 14.710849,14.264603 14.710849,14.054602 14.920852,14.054602" style="fill: white" /><polygon type="contour" points="14.920852,14.920853 14.710849,14.920853 14.710849,14.710852 14.920852,14.710852" style="fill: white" />
</svg>
