<svg width="19.131698" height="19.131699">
<polygon type="contour" points="10.646998,8.349002 10.647321,8.349053 10.679219,8.354423 10.709173,8.371966 10.728214,8.383501 10.751787,8.409304 10.758746,8.417608 10.764898,8.428122 10.777679,8.457476 10.783368,8.484505 10.783387,8.4847 10.7834,8.519022 10.782711,10.647 10.782687,10.647145 10.778853,10.671756 10.772835,10.687657 10.761234,10.709113 10.73613,10.739659 10.726617,10.749373 10.717486,10.755941 10.683832,10.776764 10.680451,10.778247 10.649677,10.78289 10.646998,10.783024 8.680296,10.782162 8.484698,10.782352 8.483301,10.782129 8.465687,10.780306 8.446395,10.77368 8.428313,10.765469 8.407313,10.749015 8.391491,10.734678 8.366532,10.707082 8.364957,10.704296 8.35329,10.674597 8.34833,10.647195 8.34831,10.647 8.348309,10.616111 8.349001,8.484699 8.34903,8.484454 8.353633,8.455137 8.365201,8.432763 8.379122,8.409229 8.390465,8.396601 8.418794,8.373656 8.433879,8.363085 8.437887,8.361056 8.45476,8.353813 8.466219,8.350304 8.47009,8.349768 8.483955,8.348343 8.484697,8.348312 8.515587,8.348311" style="fill: white" />
</svg>
