<svg width="19.131698" height="19.131699">
<polygon type="contour" points="10.658427,8.417357 10.668895,8.417035 10.715997,8.415704 10.714138,8.484013 10.713977,8.494445 10.713662,8.69932 10.432382,8.69932 10.432382,8.584641 10.432463,8.565743 10.432671,8.556164 10.433069,8.485165 10.435468,8.414562" style="fill: white" /><polygon type="contour" points="9.683332,8.417953 9.711101,8.418179 9.711101,8.699885 9.575123,8.699885 9.4206,8.699513 9.4206,8.418179 9.526216,8.414722 9.566198,8.414237" style="fill: white" /><polygon type="contour" points="8.698631,8.485165 8.698631,8.552881 8.699029,8.556165 8.699236,8.565743 8.699318,8.584641 8.699318,8.69932 8.418038,8.69932 8.417722,8.494445 8.417562,8.484013 8.416543,8.451787 8.416441,8.449309 8.41577,8.442704 8.415703,8.415704 8.462804,8.417035 8.46974,8.417311 8.473271,8.417357 8.696233,8.414562" style="fill: white" /><polygon type="contour" points="9.265248,9.711102 9.163237,9.711102 9.163237,9.420602 9.265248,9.420602" style="fill: white" /><polygon type="contour" points="9.212897,9.866454 9.265248,9.866454 9.265437,9.926196 9.265437,9.968465 9.205506,9.968465 9.163198,9.968504 9.163198,9.905354 9.163237,9.866265" style="fill: white" /><polygon type="contour" points="9.265437,10.177205 9.265437,10.218604 9.265547,10.27677 9.205505,10.276483 9.1632,10.275926 9.1632,10.217818 9.163198,10.177135 9.226345,10.177135" style="fill: white" /><polygon type="contour" points="9.265248,10.4321 9.265248,10.546577 9.205505,10.546738 9.163198,10.546909 9.163198,10.476406 9.1632,10.432113 9.205505,10.432058" style="fill: white" /><polygon type="contour" points="8.699318,10.547063 8.699236,10.565961 8.699029,10.575539 8.698631,10.646539 8.696233,10.71714 8.473272,10.714347 8.462804,10.714668 8.415703,10.716 8.417562,10.64769 8.417722,10.637258 8.418038,10.432384 8.699318,10.432384" style="fill: white" /><polygon type="contour" points="8.954478,10.499286 8.954567,10.546909 8.913885,10.54679 8.855619,10.546702 8.855619,10.432234 8.905715,10.432234 8.954478,10.432113" style="fill: white" /><polygon type="contour" points="8.954567,10.238121 8.954478,10.275926 8.905715,10.276083 8.855619,10.276083 8.855777,10.217817 8.855777,10.177225 8.913885,10.177225 8.954567,10.177135" style="fill: white" /><polygon type="contour" points="8.699589,10.177225 8.699468,10.225987 8.699468,10.276083 8.585001,10.276083 8.584913,10.217817 8.584794,10.177135 8.655295,10.177135" style="fill: white" /><polygon type="contour" points="8.699644,9.926197 8.699589,9.968502 8.632416,9.968502 8.584794,9.968504 8.584963,9.926197 8.585126,9.866454 8.699602,9.866454" style="fill: white" /><polygon type="contour" points="8.913097,9.866265 8.954498,9.866265 8.954498,9.926197 8.954567,9.968504 8.893579,9.968504 8.855777,9.968502 8.855217,9.926196 8.854931,9.866154" style="fill: white" /><polygon type="contour" points="8.954498,9.711102 8.854931,9.711102 8.854931,9.568741 8.855288,9.420602 8.954498,9.420602" style="fill: white" /><polygon type="contour" points="8.699883,9.556579 8.699511,9.711102 8.414051,9.711102 8.413687,9.67775 8.414225,9.565502 8.414572,9.528557 8.414051,9.420602 8.699883,9.420602" style="fill: white" /><polygon type="contour" points="8.954567,9.226347 8.954498,9.265439 8.904862,9.26525 8.853948,9.26525 8.855508,9.205507 8.855777,9.163202 8.913885,9.163202 8.954567,9.163199" style="fill: white" /><polygon type="contour" points="8.699589,9.163202 8.699934,9.205507 8.699961,9.26525 8.585126,9.26525 8.584963,9.205506 8.584794,9.163199 8.655295,9.163199" style="fill: white" /><polygon type="contour" points="8.699468,8.905717 8.699589,8.95448 8.632416,8.95448 8.584794,8.954569 8.584913,8.913886 8.585001,8.855621 8.699468,8.855621" style="fill: white" /><polygon type="contour" points="8.913884,8.855778 8.954478,8.855778 8.954478,8.913886 8.954567,8.954569 8.89358,8.954569 8.855777,8.95448 8.855619,8.905717 8.855619,8.855621" style="fill: white" /><polygon type="contour" points="8.954567,8.655297 8.954477,8.699591 8.905715,8.69947 8.855619,8.69947 8.855619,8.585003 8.913885,8.584914 8.954567,8.584796" style="fill: white" /><polygon type="contour" points="9.205505,8.584967 9.265248,8.585128 9.265248,8.699604 9.205505,8.699646 9.1632,8.699591 9.1632,8.632418 9.163198,8.584796" style="fill: white" /><polygon type="contour" points="9.265437,8.913099 9.265437,8.9545 9.205506,8.9545 9.163198,8.954569 9.163198,8.893581 9.1632,8.855778 9.205505,8.85522 9.265547,8.854933" style="fill: white" /><polygon type="contour" points="9.265437,9.163239 9.265248,9.212899 9.265248,9.26525 9.205506,9.265439 9.163237,9.265439 9.163237,9.205507 9.163198,9.163199 9.226345,9.163199" style="fill: white" /><polygon type="contour" points="9.968501,9.226348 9.968463,9.265439 9.918802,9.26525 9.866452,9.26525 9.866264,9.205506 9.866264,9.163239 9.926194,9.163239 9.968501,9.163199" style="fill: white" /><polygon type="contour" points="9.711101,9.26525 9.4206,9.26525 9.4206,9.163239 9.711101,9.163239" style="fill: white" /><polygon type="contour" points="9.711101,8.855289 9.711101,8.9545 9.4206,8.9545 9.4206,8.854933 9.56296,8.854933" style="fill: white" /><polygon type="contour" points="9.926194,8.855509 9.9685,8.855778 9.9685,8.913886 9.968501,8.954569 9.905353,8.954569 9.866264,8.9545 9.866264,8.913388 9.866452,8.853949" style="fill: white" /><polygon type="contour" points="9.968501,8.655297 9.9685,8.699591 9.926194,8.699936 9.866452,8.699963 9.866452,8.585128 9.926195,8.584966 9.968501,8.584796" style="fill: white" /><polygon type="contour" points="10.217815,8.584914 10.276081,8.585003 10.276081,8.69947 10.225985,8.69947 10.177223,8.699591 10.177223,8.632418 10.177134,8.584796" style="fill: white" /><polygon type="contour" points="10.546788,8.913886 10.546907,8.954569 10.476404,8.954569 10.432111,8.954479 10.432232,8.905717 10.432232,8.855621 10.546699,8.855621" style="fill: white" /><polygon type="contour" points="10.275923,8.913886 10.275923,8.95448 10.217816,8.95448 10.177134,8.954569 10.177134,8.893582 10.177223,8.855778 10.225985,8.855621 10.276081,8.855621" style="fill: white" /><polygon type="contour" points="10.275923,9.163202 10.276192,9.205507 10.276412,9.26555 10.218312,9.265439 10.177203,9.265439 10.177203,9.205507 10.177134,9.163199 10.23812,9.163199" style="fill: white" /><polygon type="contour" points="10.546737,9.205506 10.546575,9.26525 10.431739,9.26525 10.431765,9.205507 10.432111,9.163202 10.499285,9.163202 10.546907,9.163199" style="fill: white" /><polygon type="contour" points="10.718013,9.453952 10.717474,9.566202 10.717129,9.603146 10.717649,9.711102 10.431816,9.711102 10.431816,9.420602 10.717649,9.420602" style="fill: white" /><polygon type="contour" points="10.713977,10.637258 10.714137,10.64769 10.715156,10.679916 10.715258,10.682395 10.71593,10.688999 10.715997,10.716 10.668895,10.714668 10.661959,10.714393 10.658428,10.714347 10.435468,10.71714 10.433069,10.646539 10.433069,10.578823 10.432671,10.57554 10.432463,10.565961 10.432382,10.547063 10.432382,10.432384 10.713662,10.432384" style="fill: white" /><polygon type="contour" points="10.225985,10.432234 10.276081,10.432234 10.276081,10.546702 10.217815,10.54679 10.177134,10.546909 10.177134,10.476406 10.177223,10.432113" style="fill: white" /><polygon type="contour" points="10.275923,10.177224 10.276081,10.225986 10.276081,10.276083 10.217816,10.275926 10.177223,10.275926 10.177223,10.217817 10.177134,10.177135 10.23812,10.177135" style="fill: white" /><polygon type="contour" points="10.546788,10.217817 10.546699,10.276083 10.432232,10.276083 10.432232,10.225987 10.432111,10.177225 10.499284,10.177225 10.546907,10.177135" style="fill: white" /><polygon type="contour" points="10.546737,9.926197 10.546907,9.968504 10.476404,9.968504 10.432111,9.968502 10.431765,9.926196 10.431739,9.866454 10.546575,9.866454" style="fill: white" /><polygon type="contour" points="10.276412,9.711102 10.177203,9.711102 10.177203,9.420602 10.276412,9.420602" style="fill: white" /><polygon type="contour" points="10.276192,9.926196 10.275923,9.968502 10.217816,9.968502 10.177134,9.968504 10.177134,9.905354 10.177203,9.866265 10.225724,9.866154 10.276412,9.866154" style="fill: white" /><polygon type="contour" points="9.968463,9.926197 9.968501,9.968504 9.905352,9.968504 9.866264,9.968465 9.866452,9.918803 9.866452,9.866454 9.926194,9.866265 9.968463,9.866265" style="fill: white" /><polygon type="contour" points="9.968463,9.711102 9.866452,9.711102 9.866452,9.420602 9.968463,9.420602" style="fill: white" /><polygon type="contour" points="9.711101,9.711102 9.4206,9.711102 9.4206,9.420602 9.711101,9.420602" style="fill: white" /><polygon type="contour" points="9.711101,9.968465 9.4206,9.968465 9.4206,9.866454 9.711101,9.866454" style="fill: white" /><polygon type="contour" points="9.711101,10.276771 9.4206,10.276771 9.4206,10.177205 9.711101,10.177205" style="fill: white" /><polygon type="contour" points="9.968501,10.238122 9.9685,10.275926 9.926195,10.276484 9.866452,10.278114 9.866264,10.218603 9.866264,10.177205 9.926195,10.177205 9.968501,10.177135" style="fill: white" /><polygon type="contour" points="9.9685,10.432113 9.9685,10.499286 9.968501,10.546909 9.926195,10.546738 9.866452,10.546577 9.866452,10.4321 9.926195,10.432058" style="fill: white" /><polygon type="contour" points="9.711101,10.713526 9.605483,10.716981 9.565501,10.717467 9.448368,10.713749 9.4206,10.713525 9.4206,10.43219 9.711101,10.43219" style="fill: white" />
</svg>
