<svg width="19.131698" height="19.131699">
<polygon type="contour" points="5.327012,16.60659 5.33074,16.708611 5.242486,16.70874 5.184766,16.708746 5.040627,16.709043 4.982475,16.70887 4.971557,16.708874 4.915454,16.708865 4.915311,16.80429 4.75352,16.80429 4.582515,16.803888 4.582708,16.749739 4.58246,16.69222 4.582765,16.64977 4.582436,16.63189 4.582363,16.614187 4.582363,16.502411 4.582491,16.471411 4.791667,16.471291 4.868545,16.471125 5.340133,16.470951" style="fill: white" /><polygon type="contour" points="5.317528,15.149854 5.319099,15.241304 5.148977,15.241247 4.582582,15.241856 4.582363,15.097495 4.582363,14.909473 4.844857,14.909473 4.949987,14.909295 5.327473,14.90888" style="fill: white" /><polygon type="contour" points="4.941556,15.846965 5.337295,15.847146 5.34312,15.915879 5.339557,16.042763 5.119903,16.042763 4.582298,16.042707 4.582298,15.939515 4.582582,15.846864 4.930646,15.846864" style="fill: white" /><polygon type="contour" points="4.222333,15.939516 4.222333,16.042707 4.041656,16.042482 3.889945,16.042372 3.889945,15.927915 3.889944,15.846912 4.101055,15.846912 4.222346,15.846864" style="fill: white" /><polygon type="contour" points="4.222229,16.471235 4.222229,16.614035 4.065698,16.613778 4.049963,16.613716 3.889944,16.613935 3.889944,16.523268 3.889945,16.47107 4.048627,16.470911" style="fill: white" /><polygon type="contour" points="2.381963,16.470893 2.436317,16.470893 2.438152,16.470813 2.479664,16.470851 2.497351,16.470875 2.517927,16.470976 2.660726,16.470976 2.660726,16.613775 2.660826,16.634351 2.660851,16.652037 2.660888,16.69355 2.66081,16.749738 2.661033,16.752374 2.661091,16.803812 2.502043,16.80418 2.501013,16.804358 2.327526,16.804176 2.327526,16.764217 2.327927,16.58469 2.327815,16.470686" style="fill: white" /><polygon type="contour" points="3.203785,16.47107 3.284629,16.47107 3.284629,16.554756 3.284789,16.613934 3.173663,16.613845 3.089105,16.613777 3.089105,16.470975" style="fill: white" /><polygon type="contour" points="3.284789,15.970912 3.284629,16.042372 3.18346,16.042597 3.089105,16.042597 3.089329,15.927915 3.089329,15.847071 3.203785,15.847071 3.284789,15.846912" style="fill: white" /><polygon type="contour" points="2.660632,15.847071 2.660726,15.948241 2.660726,16.042597 2.517927,16.042597 2.517832,15.927914 2.517766,15.846912 2.608432,15.846912" style="fill: white" /><polygon type="contour" points="2.660792,15.083075 2.660633,15.241755 2.576943,15.241755 2.517766,15.241757 2.517922,15.066002 2.517666,14.909473 2.598415,14.909472 2.660466,14.909472" style="fill: white" /><polygon type="contour" points="3.284837,15.090044 3.284789,15.241757 3.160788,15.241757 3.089329,15.241755 3.089217,15.090044 3.088994,14.90937 3.195348,14.909356 3.284837,14.909356" style="fill: white" /><polygon type="contour" points="4.034207,14.909473 4.222228,14.909473 4.222346,15.090044 4.222346,15.241856 4.041657,15.241856 3.889944,15.241756 3.889944,15.030646 3.889846,14.909356" style="fill: white" /><polygon type="contour" points="4.803725,13.805071 4.984699,13.813452 4.985331,13.900265 4.985413,13.915305 4.985442,13.917138 4.985373,13.917729 4.987268,14.019028 4.987776,14.02942 4.990239,14.072319 4.991743,14.082234 4.992582,14.139114 5.049465,14.139958 5.059383,14.141463 5.112672,14.144432 5.21397,14.146328 5.214562,14.146259 5.216394,14.146287 5.231435,14.146369 5.318249,14.147002 5.324981,14.327247 5.331317,14.549051 4.907921,14.549115 4.79325,14.549394 4.582363,14.54934 4.582445,14.340938 4.582307,14.29704 4.582507,13.791849 4.710302,13.789115" style="fill: white" /><polygon type="contour" points="4.095347,13.811492 4.2225,13.806803 4.2225,13.979402 4.222229,14.54934 4.041657,14.54912 3.889846,14.54912 3.890399,14.078301 3.890399,13.803802" style="fill: white" /><polygon type="contour" points="3.284629,13.794203 3.284629,14.061753 3.284837,14.54912 3.192186,14.549404 3.088994,14.549404 3.088994,14.256392 3.089105,13.792353 3.215823,13.789035" style="fill: white" /><polygon type="contour" points="2.66057,13.800589 2.660334,14.18456 2.660383,14.33802 2.660289,14.549211 2.549848,14.549212 2.517514,14.54934 2.499814,14.549267 2.481932,14.548937 2.43948,14.549244 2.436316,14.548995 2.381963,14.548995 2.379327,14.549169 2.327815,14.549187 2.327412,14.378179 2.327412,14.21639 2.422833,14.216214 2.422826,14.160143 2.422831,14.149224 2.422656,14.091075 2.422956,13.946935 2.422962,13.889215 2.423091,13.800962 2.526422,13.793442" style="fill: white" /><polygon type="contour" points="2.502043,2.327523 2.661091,2.327892 2.66081,2.381965 2.66081,2.436319 2.660888,2.438153 2.660851,2.479667 2.660826,2.497353 2.660726,2.517929 2.660726,2.660728 2.517927,2.660728 2.497351,2.660828 2.479665,2.660853 2.438151,2.66089 2.381963,2.660811 2.379327,2.661035 2.327815,2.661017 2.327927,2.547013 2.327526,2.367487 2.327526,2.327528 2.501013,2.327346" style="fill: white" /><polygon type="contour" points="2.660289,4.582493 2.660383,4.793683 2.660334,4.947142 2.66057,5.331114 2.531811,5.321813 2.422775,5.334227 2.422649,5.030689 2.422833,4.915456 2.327412,4.915313 2.327412,4.753524 2.327815,4.582517 2.381963,4.58271 2.43948,4.58246 2.481932,4.582766 2.499814,4.582438 2.517514,4.582364 2.629288,4.582364" style="fill: white" /><polygon type="contour" points="3.195347,4.582584 3.284836,4.582584 3.284629,5.06995 3.284629,5.337501 3.215823,5.342669 3.088938,5.339559 3.088938,5.119905 3.088994,4.5823" style="fill: white" /><polygon type="contour" points="3.284789,4.101057 3.284837,4.222348 3.192185,4.222335 3.088994,4.222335 3.089217,4.041658 3.089329,3.889947 3.203784,3.889947 3.284789,3.889946" style="fill: white" /><polygon type="contour" points="2.660633,3.889947 2.660792,4.048627 2.660466,4.222231 2.517666,4.222231 2.517922,4.065699 2.517766,3.889946 2.608433,3.889946" style="fill: white" /><polygon type="contour" points="2.660633,3.203786 2.660633,3.284631 2.576944,3.284631 2.517766,3.28479 2.517857,3.173665 2.517927,3.089106 2.660726,3.089106" style="fill: white" /><polygon type="contour" points="3.203785,3.089331 3.284629,3.089331 3.284629,3.203786 3.284789,3.28479 3.160788,3.28479 3.089329,3.284631 3.089105,3.183461 3.089105,3.089106" style="fill: white" /><polygon type="contour" points="3.284789,2.608434 3.284629,2.660634 3.183459,2.660727 3.089105,2.660727 3.089105,2.517928 3.203784,2.517834 3.284789,2.517768" style="fill: white" /><polygon type="contour" points="4.915488,2.422835 4.971558,2.422828 4.982475,2.422832 5.040627,2.422658 5.184766,2.422958 5.242486,2.422964 5.33074,2.423094 5.345537,2.504362 5.340187,2.660892 4.868545,2.660576 4.791667,2.660412 4.582491,2.660291 4.582491,2.549849 4.582363,2.517515 4.582436,2.499813 4.582765,2.481933 4.58246,2.439482 4.582708,2.436318 4.582708,2.381964 4.582532,2.379328 4.582515,2.327817 4.75352,2.327414 4.915311,2.327414" style="fill: white" /><polygon type="contour" points="4.222229,2.660468 4.041657,2.660383 3.889945,2.660634 3.889945,2.576945 3.889944,2.517768 4.065697,2.517924 4.222229,2.517668" style="fill: white" /><polygon type="contour" points="4.222346,3.19535 4.222346,3.284839 4.041657,3.284839 3.889944,3.28479 3.889944,3.16079 3.889945,3.089331 4.041656,3.089219 4.222333,3.088997" style="fill: white" /><polygon type="contour" points="4.222229,4.034209 4.222229,4.222231 4.041656,4.222348 3.889846,4.222348 3.889846,4.041658 3.889944,3.889946 4.101054,3.889946 4.222346,3.889847" style="fill: white" /><polygon type="contour" points="4.222229,4.844859 4.2225,5.324901 3.998885,5.334631 3.890399,5.327901 3.890399,5.053401 3.889846,4.582584 4.034208,4.582364 4.222229,4.582364" style="fill: white" /><polygon type="contour" points="4.907922,4.582588 5.331318,4.582652 5.322419,4.824528 5.318249,4.984702 5.21397,4.985375 5.112672,4.987269 5.102281,4.987778 5.059383,4.990241 5.049466,4.991745 4.992585,4.992588 4.991742,5.049468 4.990237,5.059385 4.987775,5.102282 4.987268,5.112673 4.985373,5.213974 4.985442,5.214565 4.985414,5.216396 4.985331,5.231437 4.9847,5.318252 4.803725,5.326632 4.710303,5.342589 4.582507,5.339854 4.582307,4.834663 4.582445,4.790764 4.582363,4.582364 4.79325,4.582309" style="fill: white" /><polygon type="contour" points="5.148976,3.890457 5.319099,3.8904 5.330521,4.038849 5.327473,4.222823 4.949987,4.222408 4.582363,4.222231 4.582363,4.034209 4.582582,3.889847 4.930646,3.889847" style="fill: white" /><polygon type="contour" points="5.33412,3.173879 5.337295,3.284557 4.941556,3.284738 4.582582,3.284839 4.582298,3.192188 4.582298,3.088997 5.119903,3.08894 5.339557,3.08894" style="fill: white" /><polygon type="contour" points="15.241755,3.889946 15.241755,4.101056 15.241854,4.222348 15.097493,4.222231 14.909469,4.222231 14.909354,4.041658 14.909354,3.889847 15.090041,3.889847" style="fill: white" /><polygon type="contour" points="15.090041,4.582583 15.241854,4.582583 15.2413,5.053399 15.2413,5.327901 15.036351,5.320213 14.909199,5.324901 14.909199,5.152301 14.90947,4.582364" style="fill: white" /><polygon type="contour" points="14.549337,4.582364 14.549255,4.790764 14.549393,4.834663 14.549191,5.339854 14.421395,5.342589 14.327972,5.326633 14.146999,5.318252 14.146325,5.213974 14.14443,5.112674 14.143922,5.102283 14.141461,5.059384 14.139956,5.049468 14.139116,4.992588 14.082233,4.991745 14.072315,4.990241 14.019026,4.98727 13.917726,4.985375 13.917135,4.985443 13.915302,4.985415 13.900263,4.985333 13.813449,4.984702 13.806717,4.804455 13.800381,4.582652 14.223778,4.582588 14.338449,4.582309" style="fill: white" /><polygon type="contour" points="14.549337,4.03421 14.549337,4.222231 14.286841,4.222231 14.181713,4.222408 13.804226,4.222823 13.814171,3.981848 13.8126,3.8904 13.982722,3.890457 14.549119,3.889847" style="fill: white" /><polygon type="contour" points="14.549186,2.327817 14.548993,2.381965 14.549241,2.439482 14.548936,2.481933 14.549263,2.499813 14.549337,2.517516 14.549337,2.62929 14.549209,2.660291 14.34003,2.660412 14.263155,2.660576 13.791512,2.660892 13.805053,2.509303 13.797599,2.422839 14.100672,2.422761 14.216246,2.422835 14.216389,2.327414 14.378178,2.327414" style="fill: white" /><polygon type="contour" points="14.549401,3.088997 14.549401,3.192187 14.549118,3.284839 14.201055,3.284839 14.190141,3.284738 13.794405,3.284558 13.788579,3.215824 13.792142,3.08894 14.011795,3.08894" style="fill: white" /><polygon type="contour" points="15.090042,3.089219 15.241754,3.089331 15.241754,3.203786 15.241755,3.28479 15.030645,3.28479 14.909354,3.284839 14.909367,3.192187 14.909367,3.088997" style="fill: white" /><polygon type="contour" points="15.241755,2.517768 15.241755,2.608435 15.241754,2.660634 15.083073,2.660793 14.90947,2.660468 14.90947,2.517668 15.090041,2.517583" style="fill: white" /><polygon type="contour" points="15.958035,2.517858 16.042596,2.517928 16.042596,2.660727 15.927914,2.660634 15.84707,2.660634 15.84707,2.576946 15.84691,2.517768" style="fill: white" /><polygon type="contour" points="16.804174,2.327528 16.804174,2.367487 16.803772,2.547013 16.803886,2.661017 16.749736,2.660811 16.695383,2.660811 16.693548,2.66089 16.652035,2.660853 16.634349,2.660828 16.613773,2.660728 16.470975,2.660728 16.470975,2.554832 16.470974,2.517928 16.470875,2.497354 16.470849,2.479666 16.470812,2.438154 16.470891,2.381964 16.470666,2.379328 16.470609,2.327892 16.629656,2.327523 16.630685,2.327346" style="fill: white" /><polygon type="contour" points="16.613866,3.203787 16.613933,3.28479 16.523266,3.28479 16.471067,3.284631 16.470973,3.183462 16.470973,3.089106 16.613775,3.089106" style="fill: white" /><polygon type="contour" points="16.04237,3.203786 16.04237,3.284631 15.927913,3.284631 15.84691,3.28479 15.84691,3.16079 15.84707,3.089331 15.94824,3.089106 16.042596,3.089106" style="fill: white" /><polygon type="contour" points="16.04237,3.889947 16.04248,4.041658 16.042706,4.222335 15.936349,4.222348 15.846862,4.222348 15.846862,4.041658 15.84691,3.889946 15.970908,3.889946" style="fill: white" /><polygon type="contour" points="16.613776,4.065699 16.614032,4.222231 16.471232,4.222231 16.470909,4.048628 16.471067,3.889947 16.554755,3.889947 16.613933,3.889946" style="fill: white" /><polygon type="contour" points="16.631885,4.582438 16.649765,4.582766 16.69222,4.582461 16.695384,4.58271 16.749737,4.58271 16.752373,4.582534 16.803886,4.582516 16.804288,4.753523 16.804288,4.915313 16.708861,4.91549 16.709049,5.030688 16.708924,5.334227 16.599888,5.321813 16.471132,5.331114 16.471366,4.947142 16.471318,4.793684 16.471409,4.582493 16.581851,4.582493 16.614184,4.582364" style="fill: white" /><polygon type="contour" points="16.042706,4.87531 16.042596,5.33935 15.915876,5.342669 15.847069,5.337501 15.847069,5.06995 15.846862,4.582583 15.939514,4.5823 16.042706,4.5823" style="fill: white" /><polygon type="contour" points="14.549191,13.791849 14.549393,14.29704 14.549255,14.340938 14.549337,14.54934 14.338449,14.549394 14.223778,14.549115 13.800381,14.549051 13.809279,14.307174 13.813448,14.147001 13.900263,14.146369 13.915302,14.146287 13.917136,14.146259 13.917727,14.146328 14.019025,14.144432 14.029417,14.143925 14.072315,14.141463 14.082233,14.139958 14.139116,14.139114 14.139956,14.082234 14.14146,14.072319 14.143922,14.029419 14.144429,14.019028 14.146325,13.917729 14.146256,13.917138 14.146285,13.915306 14.146367,13.900265 14.146999,13.813452 14.327972,13.805071 14.421395,13.789115" style="fill: white" /><polygon type="contour" points="15.2413,13.803802 15.2413,14.078302 15.241854,14.549121 15.097493,14.54934 14.90947,14.54934 14.90947,14.286844 14.909199,13.806802 15.132813,13.797071" style="fill: white" /><polygon type="contour" points="16.04276,13.792144 16.04276,14.011797 16.042706,14.549404 15.936349,14.549121 15.846862,14.549121 15.847069,14.061753 15.847069,13.794202 15.915876,13.789034" style="fill: white" /><polygon type="contour" points="16.607136,13.806511 16.708607,13.800962 16.708737,13.889215 16.708741,13.946934 16.709041,14.091075 16.708866,14.149224 16.70887,14.160142 16.708862,14.216247 16.804288,14.21639 16.804288,14.37818 16.803886,14.549187 16.749736,14.548994 16.69222,14.549244 16.649766,14.548937 16.631886,14.549267 16.614183,14.54934 16.502409,14.54934 16.471409,14.549212 16.471318,14.33802 16.471366,14.184561 16.471035,13.800504" style="fill: white" /><polygon type="contour" points="16.613776,15.066002 16.613933,15.241757 16.523265,15.241757 16.471066,15.241755 16.470908,15.083074 16.471233,14.909473 16.614032,14.909473" style="fill: white" /><polygon type="contour" points="15.939514,14.90937 16.042706,14.90937 16.04248,15.090044 16.04237,15.241755 15.927913,15.241755 15.84691,15.241757 15.84691,15.030646 15.846862,14.909356" style="fill: white" /><polygon type="contour" points="15.241854,15.090043 15.241754,15.241757 15.030645,15.241757 14.909354,15.241856 14.90947,15.097495 14.90947,14.909473 15.090042,14.909356 15.241854,14.909356" style="fill: white" /><polygon type="contour" points="14.181713,14.909295 14.549337,14.909473 14.549337,15.097495 14.549119,15.241856 14.201054,15.241856 13.982722,15.241247 13.8126,15.241304 13.801179,15.092854 13.804226,14.90888" style="fill: white" /><polygon type="contour" points="14.263155,16.471126 14.34003,16.471291 14.549209,16.471411 14.549209,16.581854 14.549337,16.614188 14.549263,16.63189 14.548936,16.64977 14.549241,16.692221 14.548993,16.695386 14.548993,16.749738 14.549166,16.752374 14.549186,16.803888 14.378179,16.80429 14.216389,16.80429 14.216213,16.708865 14.100673,16.708941 13.797836,16.708747 13.805194,16.623069 13.791512,16.470811" style="fill: white" /><polygon type="contour" points="14.549401,15.939515 14.549401,16.042707 14.011795,16.042763 13.792142,16.042763 13.797579,15.957823 13.794404,15.847146 14.190141,15.846966 14.549119,15.846864" style="fill: white" /><polygon type="contour" points="15.241755,15.846912 15.241755,15.970911 15.241753,16.042372 15.090042,16.042482 14.909367,16.042707 14.909354,15.936351 14.909354,15.846864 15.090042,15.846864" style="fill: white" /><polygon type="contour" points="15.241754,16.554757 15.241755,16.613935 15.066,16.613778 14.90947,16.614035 14.90947,16.471235 15.090042,16.471319 15.241754,16.47107" style="fill: white" /><polygon type="contour" points="16.042596,16.613777 15.927914,16.613868 15.84691,16.613935 15.84691,16.523269 15.84707,16.47107 15.948239,16.470975 16.042596,16.470975" style="fill: white" /><polygon type="contour" points="16.04237,15.84707 16.042596,15.948241 16.042596,16.042597 15.927914,16.042372 15.84707,16.042372 15.84707,15.927915 15.84691,15.846912 15.970909,15.846912" style="fill: white" /><polygon type="contour" points="16.613843,15.958038 16.613775,16.042597 16.470973,16.042597 16.471067,15.927914 16.471067,15.847071 16.554754,15.847071 16.613933,15.846912" style="fill: white" /><polygon type="contour" points="16.803886,16.470686 16.803772,16.58469 16.804174,16.764217 16.804174,16.804176 16.630685,16.804358 16.629656,16.80418 16.470609,16.803812 16.47089,16.749738 16.47089,16.695385 16.470812,16.693549 16.470849,16.652037 16.470875,16.63435 16.470974,16.613776 16.470974,16.470976 16.613773,16.470976 16.634348,16.470876 16.652035,16.470851 16.693547,16.470814 16.749737,16.470893 16.752373,16.470668" style="fill: white" />
</svg>
