<svg width="19.131698" height="19.131699">
<polygon type="contour" points="17.79552,15.273687 17.79552,15.861826 17.79548,16.051234 17.553804,16.051366 17.462606,16.051497 17.462832,15.541443 17.462832,15.270219 17.606739,15.267081" style="fill: white" /><polygon type="contour" points="18.173189,15.275288 18.211086,15.275288 18.21142,15.506253 18.211474,15.626693 18.21148,15.653172 18.21147,15.718773 18.291989,15.718773 18.296932,15.718794 18.297144,15.718798 18.30671,15.718812 18.30671,15.7476 18.305994,16.051297 18.30068,16.051278 18.295031,16.051302 18.290865,16.051272 18.28911,16.051304 18.276435,16.051357 18.268716,16.051374 18.115769,16.051475 18.094511,16.051475 17.973418,16.051297 17.97341,15.856268 17.97341,15.269963" style="fill: white" /><polygon type="contour" points="18.073334,16.29817 18.11583,16.29817 18.115791,16.364091 18.115724,16.493619 18.011681,16.493162 17.973358,16.493162 17.973358,16.350279 17.973404,16.297807" style="fill: white" /><polygon type="contour" points="17.795566,16.447419 17.795444,16.493162 17.706391,16.493162 17.462831,16.493619 17.462606,16.364091 17.462606,16.298219 17.706392,16.297862 17.795566,16.297807" style="fill: white" /><polygon type="contour" points="18.305984,17.983985 18.306688,18.299582 18.306688,18.306692 18.275819,18.306724 18.275635,18.306692 17.972786,18.30599 17.972812,18.300682 17.972812,18.295346 17.972806,18.295165 17.972808,18.29109 17.972812,18.289353 17.97287,18.277338 17.97289,18.270134 17.973434,18.116237 17.973434,18.100905 17.973436,17.973434 18.116235,17.973434 18.270132,17.972891 18.277336,17.972872 18.289351,17.972814 18.291088,17.97281 18.295163,17.972807 18.30068,17.972816 18.300938,17.972794 18.305994,17.972794" style="fill: white" /><polygon type="contour" points="18.116158,17.706394 18.116234,17.795482 17.973436,17.795482 17.973434,17.534373 17.973358,17.463134 18.056422,17.462836 18.115724,17.462836" style="fill: white" /><polygon type="contour" points="17.706392,17.463134 17.795444,17.463134 17.795448,17.706393 17.795484,17.795482 17.534374,17.795482 17.463132,17.795446 17.463132,17.706394 17.462832,17.462836" style="fill: white" /><polygon type="contour" points="17.534374,17.973436 17.795484,17.973436 17.795484,18.004095 17.795479,18.116236 17.706392,18.11616 17.462832,18.115728 17.463132,18.011685 17.463132,17.97336" style="fill: white" /><polygon type="contour" points="16.493617,18.056426 16.493617,18.115728 16.420997,18.115767 16.298167,18.115832 16.297804,18.00681 16.297804,17.973404 16.447416,17.973404 16.49316,17.97336" style="fill: white" /><polygon type="contour" points="15.863369,17.973392 16.051297,17.97342 16.051297,17.989408 16.051471,18.115773 16.051372,18.268718 16.051355,18.276437 16.051302,18.289112 16.05127,18.290867 16.0513,18.295034 16.051276,18.295346 16.051276,18.300682 16.051293,18.30094 16.051295,18.305996 15.747599,18.306712 15.718812,18.306712 15.718794,18.296933 15.718772,18.291992 15.718772,18.211472 15.667591,18.211503 15.660954,18.21134 15.521915,18.21124 15.260805,18.21124 15.263572,18.060211 15.276807,17.973302 15.842321,17.973302" style="fill: white" /><polygon type="contour" points="16.051494,17.462608 16.051364,17.553805 16.051233,17.795482 15.861825,17.795522 15.273685,17.795522 15.26708,17.606741 15.269959,17.462508 15.817598,17.462348" style="fill: white" /><polygon type="contour" points="16.41251,17.462836 16.493617,17.462836 16.49316,17.706394 16.49316,17.795446 16.350275,17.795446 16.297804,17.795568 16.297858,17.706394 16.298216,17.462608" style="fill: white" /><polygon type="contour" points="16.49352,16.298219 16.493617,16.412513 16.493617,16.493618 16.364087,16.49352 16.298216,16.49352 16.298216,16.36409 16.298167,16.29817 16.435351,16.29817" style="fill: white" /><polygon type="contour" points="16.051529,16.29817 16.051529,16.435352 16.051494,16.49352 15.817598,16.493673 15.269959,16.493803 15.273313,16.367337 15.271765,16.298031 15.815701,16.298031" style="fill: white" /><polygon type="contour" points="16.051295,15.752263 16.051378,15.813712 16.051471,16.051475 15.808459,16.051464 15.266636,16.051464 15.263292,15.546033 15.278641,15.278643 15.587788,15.279319 16.051295,15.276147" style="fill: white" /><polygon type="contour" points="16.493802,15.269961 16.493673,15.817602 16.49352,16.051497 16.435352,16.051533 16.298167,16.051533 16.298028,15.815705 16.298028,15.271768 16.408848,15.268068" style="fill: white" /><polygon type="contour" points="16.051233,1.33622 16.051364,1.577895 16.051494,1.669093 15.541442,1.668867 15.270218,1.668867 15.267081,1.52496 15.273685,1.336181 15.861827,1.336181" style="fill: white" /><polygon type="contour" points="16.051295,0.825708 16.051276,0.831022 16.0513,0.836669 16.05127,0.840837 16.051302,0.842591 16.051355,0.855266 16.051372,0.862985 16.051471,1.015929 16.051471,1.037185 16.051297,1.158283 15.995171,1.158268 15.842321,1.1584 15.276807,1.1584 15.263572,1.071491 15.260805,0.920463 15.521915,0.920463 15.660954,0.920363 15.667591,0.920198 15.718772,0.92023 15.718772,0.839711 15.718793,0.83477 15.718798,0.834557 15.718812,0.824993 15.747599,0.824993" style="fill: white" /><polygon type="contour" points="16.364088,1.015906 16.493617,1.015975 16.49316,1.120017 16.49316,1.158344 16.350276,1.158344 16.297804,1.158298 16.298167,1.058364 16.298167,1.015871" style="fill: white" /><polygon type="contour" points="16.49316,1.336256 16.49316,1.425307 16.493617,1.668867 16.364087,1.669093 16.298216,1.669093 16.297859,1.425307 16.297804,1.336135 16.447417,1.336135" style="fill: white" /><polygon type="contour" points="18.306688,0.825013 18.306688,0.832122 18.305984,1.147718 18.305994,1.158909 18.300679,1.158889 18.295344,1.158889 18.295163,1.158896 18.291088,1.158893 18.289351,1.15889 18.277336,1.158832 18.270132,1.158812 18.116235,1.158268 17.973434,1.158268 17.973434,1.015467 17.972889,0.86157 17.97287,0.854366 17.972812,0.84235 17.972808,0.840613 17.972806,0.836539 17.972814,0.831022 17.97279,0.830763 17.972786,0.825715 18.275635,0.825012 18.275819,0.824981" style="fill: white" /><polygon type="contour" points="17.79548,1.158268 17.534371,1.158268 17.463132,1.158344 17.462832,1.075278 17.462832,1.015975 17.706391,1.015543 17.79548,1.015468" style="fill: white" /><polygon type="contour" points="17.795566,1.413918 17.795444,1.425307 17.795444,1.668569 17.706392,1.668569 17.462832,1.668867 17.463132,1.425307 17.463132,1.336257 17.706391,1.336257 17.79548,1.33622" style="fill: white" /><polygon type="contour" points="18.116158,1.425307 18.115724,1.668867 18.011681,1.668569 17.973358,1.668569 17.973358,1.425307 17.973434,1.33622 18.116234,1.33622" style="fill: white" /><polygon type="contour" points="18.268716,3.080331 18.276436,3.080348 18.28911,3.0804 18.290865,3.080432 18.295031,3.080403 18.295344,3.080427 18.30068,3.080427 18.300938,3.08041 18.305994,3.080408 18.30671,3.384104 18.30671,3.412891 18.296932,3.412909 18.291989,3.412931 18.211467,3.412931 18.21155,3.464102 18.211528,3.470814 18.211236,3.609787 18.211236,3.870897 18.040354,3.855633 17.973418,3.861651 17.973418,3.080403 17.989406,3.080403 18.115769,3.080229" style="fill: white" /><polygon type="contour" points="18.115765,2.710703 18.11583,2.833533 18.006808,2.833897 17.973404,2.833897 17.973404,2.684285 17.973358,2.638541 18.056424,2.638084 18.115724,2.638084" style="fill: white" /><polygon type="contour" points="17.706391,2.638541 17.795444,2.638541 17.795444,2.781423 17.795566,2.833897 17.706392,2.833841 17.462606,2.833482 17.462832,2.719189 17.462832,2.638084" style="fill: white" /><polygon type="contour" points="17.553803,3.080336 17.79548,3.080467 17.79552,3.269675 17.79552,3.857819 17.606739,3.86432 17.462506,3.861744 17.462346,3.314101 17.462606,3.080206" style="fill: white" /><polygon type="contour" points="16.051378,3.317992 16.051295,3.379134 16.051295,3.855253 15.615773,3.856751 15.27864,3.85306 15.279316,3.543913 15.266636,3.08024 15.808459,3.08024 16.051471,3.080229" style="fill: white" /><polygon type="contour" points="16.49352,3.080206 16.493673,3.3141 16.493801,3.861744 16.367333,3.858388 16.298028,3.859936 16.298028,3.315998 16.298167,3.080171 16.435351,3.080171" style="fill: white" /><polygon type="contour" points="16.49352,2.767611 16.49352,2.833483 16.364088,2.833483 16.298167,2.833533 16.298167,2.696351 16.298216,2.638182 16.412511,2.638084 16.493617,2.638084" style="fill: white" /><polygon type="contour" points="15.817598,2.63803 16.051494,2.638182 16.051494,2.76761 16.051529,2.833533 15.815701,2.833672 15.271765,2.833672 15.268066,2.722852 15.269959,2.637899" style="fill: white" /><polygon type="contour" points="1.158267,1.597327 1.158342,1.668569 1.075277,1.668867 1.015973,1.668867 1.015541,1.425307 1.015466,1.33622 1.158267,1.33622" style="fill: white" /><polygon type="contour" points="0.856064,0.825012 1.158915,0.825714 1.158887,0.831022 1.158887,0.836359 1.158895,0.836538 1.15889,0.840614 1.158889,0.842349 1.15883,0.854365 1.15881,0.86157 1.158267,1.015468 1.158267,1.158268 1.015465,1.158268 0.861568,1.158812 0.854363,1.158832 0.842349,1.15889 0.840611,1.158893 0.836536,1.158896 0.831021,1.158889 0.830763,1.158911 0.825706,1.158909 0.825717,1.147718 0.825011,0.832123 0.825011,0.825013 0.85588,0.824981" style="fill: white" /><polygon type="contour" points="1.425306,1.015543 1.668866,1.015975 1.668567,1.120016 1.668567,1.158344 1.597325,1.158268 1.336218,1.158268 1.336218,1.015468" style="fill: white" /><polygon type="contour" points="1.668568,1.336257 1.668567,1.425308 1.668866,1.668867 1.425306,1.668569 1.336256,1.668569 1.336256,1.425307 1.336218,1.33622 1.597326,1.33622" style="fill: white" /><polygon type="contour" points="2.833839,1.425307 2.83348,1.669093 2.719187,1.668867 2.638083,1.668867 2.63854,1.425307 2.63854,1.336257 2.781422,1.336257 2.833895,1.336135" style="fill: white" /><polygon type="contour" points="2.833896,1.124892 2.833896,1.158298 2.684284,1.158298 2.63854,1.158344 2.638083,1.075278 2.638083,1.015975 2.710702,1.015936 2.833531,1.01587" style="fill: white" /><polygon type="contour" points="3.412908,0.83477 3.412929,0.839712 3.412929,0.920231 3.47853,0.920223 3.505008,0.920227 3.625448,0.92028 3.856415,0.920614 3.852516,0.962586 3.854676,1.1584 3.28916,1.1584 3.268328,1.15831 3.080402,1.158283 3.080402,1.142295 3.080227,1.015928 3.080329,0.862986 3.080346,0.855266 3.080399,0.842591 3.080431,0.840837 3.080401,0.836668 3.080426,0.836358 3.080426,0.831023 3.080408,0.830764 3.080407,0.825708 3.384102,0.824993 3.412889,0.824993" style="fill: white" /><polygon type="contour" points="3.864318,1.524961 3.861742,1.669195 3.314098,1.669355 3.080204,1.669093 3.080333,1.577895 3.080466,1.33622 3.269675,1.336181 3.857817,1.336181" style="fill: white" /><polygon type="contour" points="3.858387,2.764366 3.859935,2.833672 3.315996,2.833672 3.080169,2.833533 3.080169,2.696351 3.080204,2.638182 3.314099,2.63803 3.861742,2.6379" style="fill: white" /><polygon type="contour" points="3.323237,3.08024 3.865063,3.08024 3.868406,3.585667 3.853059,3.853059 3.54391,3.852385 3.080403,3.855253 3.080403,3.379134 3.08032,3.317992 3.080226,3.080229" style="fill: white" /><polygon type="contour" points="2.83367,3.315998 2.83367,3.859936 2.722851,3.863637 2.637897,3.861744 2.638028,3.314101 2.63818,3.080206 2.696349,3.080171 2.833531,3.080171" style="fill: white" /><polygon type="contour" points="2.767609,2.638182 2.833481,2.638182 2.833481,2.76761 2.833531,2.833533 2.696349,2.833533 2.63818,2.833483 2.638083,2.719189 2.638083,2.638084" style="fill: white" /><polygon type="contour" points="1.669091,2.76761 1.669091,2.833483 1.425307,2.833841 1.336133,2.833897 1.336133,2.684284 1.336256,2.638541 1.425306,2.638541 1.668866,2.638084" style="fill: white" /><polygon type="contour" points="1.120016,2.638541 1.158342,2.638541 1.158342,2.781423 1.158297,2.833897 1.058364,2.833533 1.015869,2.833533 1.015903,2.767611 1.015973,2.638084" style="fill: white" /><polygon type="contour" points="1.158281,3.080403 1.158281,3.808956 1.158282,3.861651 1.091346,3.855633 0.920462,3.870897 0.920462,3.609787 0.92017,3.470815 0.920147,3.464101 0.920228,3.412931 0.83971,3.412931 0.834767,3.412909 0.834555,3.412906 0.824991,3.412891 0.824991,3.384104 0.825706,3.080408 0.83102,3.080427 0.836668,3.080403 0.840835,3.080433 0.84259,3.0804 0.855264,3.080348 0.862985,3.080331 1.015926,3.080229 1.037184,3.080229" style="fill: white" /><polygon type="contour" points="1.668866,3.59026 1.668866,3.861486 1.524958,3.86432 1.33618,3.857819 1.33618,3.269675 1.336218,3.080467 1.577893,3.080336 1.669091,3.080206" style="fill: white" /><polygon type="contour" points="1.158297,16.447419 1.158342,16.493162 1.075276,16.493619 1.015973,16.493619 1.015935,16.420999 1.015869,16.29817 1.12489,16.297807 1.158297,16.297807" style="fill: white" /><polygon type="contour" points="1.425307,16.297863 1.669091,16.298218 1.668866,16.412513 1.668866,16.493619 1.425306,16.493162 1.336256,16.493162 1.336256,16.350278 1.336133,16.297807" style="fill: white" /><polygon type="contour" points="1.158289,15.856268 1.158281,16.051297 1.142294,16.051297 1.015926,16.051475 0.862984,16.051374 0.855264,16.051357 0.84259,16.051304 0.840835,16.051272 0.836667,16.051302 0.836356,16.051278 0.83102,16.051278 0.830763,16.051294 0.825706,16.051296 0.824991,15.747599 0.824991,15.718812 0.834767,15.718794 0.83971,15.718773 0.920229,15.718773 0.920221,15.653171 0.920226,15.626694 0.920279,15.506253 0.920612,15.275288 1.090378,15.269963 1.158289,15.269963" style="fill: white" /><polygon type="contour" points="1.669193,15.269961 1.669353,15.817602 1.669091,16.051497 1.577892,16.051366 1.336218,16.051234 1.33618,15.861826 1.33618,15.273687 1.524958,15.267081" style="fill: white" /><polygon type="contour" points="3.853059,15.278643 3.852382,15.58779 3.865063,16.051464 3.323237,16.051464 3.080226,16.051475 3.080319,15.813712 3.080403,15.752263 3.080403,15.276147 3.515924,15.274605" style="fill: white" /><polygon type="contour" points="2.764364,15.273316 2.83367,15.271768 2.83367,15.815705 2.833531,16.051533 2.696348,16.051533 2.63818,16.051497 2.638028,15.817601 2.637897,15.269961" style="fill: white" /><polygon type="contour" points="2.833531,16.435353 2.833481,16.49352 2.719188,16.493619 2.638082,16.493619 2.63818,16.36409 2.63818,16.298219 2.767608,16.298219 2.833531,16.29817" style="fill: white" /><polygon type="contour" points="3.863635,16.40885 3.861742,16.493803 3.314099,16.493673 3.080204,16.49352 3.080204,16.364091 3.080169,16.29817 3.315996,16.298031 3.859935,16.298031" style="fill: white" /><polygon type="contour" points="3.852517,18.169116 3.856415,18.21109 3.625448,18.211422 3.505008,18.211476 3.47853,18.21148 3.412929,18.211471 3.412929,18.291991 3.412907,18.296934 3.412904,18.297146 3.412889,18.306712 3.384102,18.306712 3.080407,18.305996 3.080426,18.300682 3.080401,18.295034 3.080431,18.290867 3.080399,18.289112 3.080346,18.276437 3.080329,18.268717 3.080227,18.115774 3.080227,18.094515 3.080401,17.97342 3.268328,17.973392 3.28916,17.973302 3.854676,17.973302" style="fill: white" /><polygon type="contour" points="3.590258,17.462836 3.861484,17.462836 3.864318,17.606741 3.857817,17.795522 3.269674,17.795522 3.080466,17.795482 3.080333,17.553805 3.080204,17.462607" style="fill: white" /><polygon type="contour" points="2.833839,17.706394 2.833895,17.795568 2.684283,17.795568 2.63854,17.795446 2.63854,17.706394 2.638083,17.462836 2.767608,17.462608 2.83348,17.462608" style="fill: white" /><polygon type="contour" points="2.833896,17.973404 2.833531,18.073338 2.833531,18.115832 2.767608,18.115795 2.638083,18.115728 2.63854,18.011685 2.63854,17.97336 2.781422,17.97336" style="fill: white" /><polygon type="contour" points="1.668866,18.056425 1.668866,18.115728 1.425306,18.11616 1.336218,18.116236 1.336218,17.973436 1.597325,17.973436 1.668567,17.97336" style="fill: white" /><polygon type="contour" points="1.668567,17.706394 1.668567,17.795446 1.425307,17.795446 1.336218,17.795482 1.336133,17.717783 1.336256,17.706394 1.336256,17.463134 1.425306,17.463134 1.668866,17.462836" style="fill: white" /><polygon type="contour" points="1.120015,17.463134 1.158342,17.463134 1.158342,17.706393 1.158267,17.795482 1.015466,17.795482 1.015541,17.706394 1.015973,17.462836" style="fill: white" /><polygon type="contour" points="0.83102,17.972816 0.836357,17.972816 0.836537,17.972808 0.840612,17.97281 0.842349,17.972814 0.854363,17.972872 0.861568,17.972891 1.015466,17.973434 1.158267,17.973434 1.158267,18.116238 1.158809,18.270133 1.15883,18.277338 1.158889,18.289354 1.15889,18.291089 1.158895,18.295165 1.158887,18.300682 1.158909,18.30094 1.158915,18.30599 0.856064,18.306691 0.85588,18.306724 0.825011,18.306692 0.825011,18.299581 0.825717,17.983986 0.825706,17.972794" style="fill: white" />
</svg>
