<svg width="19.131698" height="19.131699">
<polygon type="contour" points="10.646997,8.334328 10.651498,8.334452 10.66571,8.336398 10.694667,8.345641 10.703002,8.348981 10.717263,8.357006 10.736638,8.371667 10.759396,8.395533 10.769858,8.407612 10.789322,8.444568 10.7935,8.452551 10.795049,8.464585 10.796825,8.484699 10.796825,9.364749 10.797484,10.647001 10.796267,10.655955 10.794635,10.667793 10.789407,10.684092 10.781805,10.706028 10.767939,10.724846 10.749526,10.747525 10.727692,10.767902 10.715371,10.776342 10.681217,10.791627 10.672467,10.794723 10.659552,10.796527 10.646998,10.797134 9.16706,10.796655 8.484698,10.797376 8.479885,10.797077 8.461268,10.793123 8.431201,10.783202 8.422341,10.77946 8.41365,10.773757 8.386213,10.751672 8.375757,10.742552 8.371942,10.738531 8.363108,10.7267 8.351314,10.708372 8.345795,10.694296 8.336673,10.668468 8.335087,10.654582 8.334875,10.647001 8.334907,9.57157 8.334326,8.4847 8.33552,8.477829 8.337399,8.464285 8.343221,8.447024 8.349224,8.428077 8.357344,8.41528 8.371241,8.395941 8.388576,8.377321 8.403651,8.364431 8.445504,8.341331 8.453461,8.338375 8.466839,8.336221 8.484697,8.334568 9.760589,8.33404" style="fill: white" />
</svg>
