<svg width="19.131698" height="19.131699">
<polygon type="contour" points="9.781014,10.094298 9.781014,10.226477 9.781111,10.262829 9.781111,10.271943 9.776597,10.271924 9.711101,10.272183 9.711101,10.438972 9.650905,10.438859 9.576413,10.438876 9.574291,10.438938 9.5655,10.439066 9.560344,10.439032 9.556752,10.438938 9.554641,10.438876 9.480506,10.438859 9.4206,10.438972 9.4206,10.272135 9.350543,10.271943 9.350686,10.226476 9.350686,10.094298 9.350543,10.070686 9.350543,10.064734 9.380821,10.064892 9.750878,10.064892 9.775251,10.064734 9.781111,10.064734" style="fill: white" /><polygon type="contour" points="10.271924,10.069344 10.272219,10.134608 10.38333,10.134608 10.43901,10.134514 10.439113,10.145804 10.444767,10.444768 10.236986,10.442867 10.13745,10.440443 10.135213,10.366377 10.134787,10.358827 10.134607,10.328286 10.134607,10.272169 10.064732,10.271943 10.064924,10.226476 10.064924,10.094298 10.064732,10.070686 10.064732,10.064734 10.094297,10.064926 10.226474,10.064926 10.262829,10.064734 10.271942,10.064734" style="fill: white" /><polygon type="contour" points="10.439113,8.9859 10.43901,8.997191 10.41144,8.99712 10.383329,8.997097 10.272166,8.997097 10.271942,9.066924 10.226474,9.066778 10.094296,9.066778 10.070684,9.066924 10.064732,9.066924 10.064924,9.037406 10.064924,8.904757 10.064732,8.868217 10.064732,8.859105 10.069342,8.859112 10.134787,8.859329 10.134787,8.772877 10.13745,8.691261 10.236986,8.688836 10.444767,8.686935" style="fill: white" /><polygon type="contour" points="10.271922,9.355105 10.272182,9.420602 10.327531,9.420602 10.349682,9.420581 10.367742,9.420602 10.43957,9.420602 10.439499,9.435247 10.438672,9.532642 10.438794,9.560385 10.438875,9.566201 10.438671,9.599601 10.43957,9.711102 10.272134,9.711102 10.271942,9.781112 10.226475,9.781015 10.094297,9.781015 10.070683,9.781112 10.064732,9.781112 10.06489,9.750879 10.06489,9.380824 10.064732,9.356451 10.064732,9.350546 10.094296,9.350689 10.226474,9.350689 10.262829,9.350546 10.271941,9.350546" style="fill: white" /><polygon type="contour" points="9.781036,9.380824 9.781036,9.750878 9.781111,9.775253 9.781111,9.781112 9.750877,9.781037 9.380822,9.781037 9.356447,9.781112 9.350543,9.781112 9.350664,9.750878 9.350664,9.380825 9.350543,9.35645 9.350543,9.350546 9.380822,9.350667 9.750877,9.350667 9.775252,9.350546 9.781111,9.350546" style="fill: white" /><polygon type="contour" points="9.571355,8.692671 9.574948,8.692766 9.577059,8.692827 9.651194,8.692845 9.711101,8.692731 9.711101,8.859355 9.781111,8.859105 9.781014,8.904757 9.781014,9.037405 9.781111,9.061019 9.781111,9.066924 9.750878,9.066813 9.380821,9.066813 9.356448,9.066924 9.350543,9.066924 9.350686,9.037406 9.350686,8.904757 9.350543,8.868217 9.350543,8.859104 9.355101,8.859112 9.4206,8.859367 9.4206,8.692731 9.480794,8.692845 9.555286,8.692828 9.557408,8.692766 9.566175,8.692638" style="fill: white" /><polygon type="contour" points="8.894714,8.688836 8.994251,8.691261 8.996487,8.765326 8.996914,8.772877 8.997094,8.803417 8.997094,8.859317 9.066922,8.859105 9.066776,8.904757 9.066776,9.037406 9.066922,9.061018 9.066922,9.066924 9.037403,9.066778 8.904756,9.066778 8.868216,9.066924 8.859103,9.066924 8.859111,9.06236 8.859325,8.997097 8.74837,8.997097 8.69269,8.997191 8.692586,8.9859 8.686933,8.686935" style="fill: white" /><polygon type="contour" points="9.066811,9.380824 9.066811,9.750879 9.066922,9.775252 9.066922,9.781112 9.037403,9.781015 8.904756,9.781015 8.868216,9.781112 8.859102,9.781112 8.859111,9.776599 8.859366,9.711102 8.804169,9.711102 8.782018,9.711122 8.763958,9.711102 8.69213,9.711102 8.6922,9.696457 8.693028,9.5996 8.692906,9.571991 8.692825,9.566201 8.693028,9.532642 8.69213,9.420602 8.859355,9.420602 8.859103,9.350546 8.904756,9.350689 9.037404,9.350689 9.061016,9.350546 9.066922,9.350546" style="fill: white" /><polygon type="contour" points="9.066776,10.094299 9.066776,10.226476 9.066922,10.26283 9.066922,10.271943 9.062357,10.271925 8.996914,10.272223 8.996914,10.358826 8.994251,10.440442 8.894714,10.442868 8.686932,10.444768 8.692587,10.145804 8.69269,10.134514 8.720259,10.134585 8.748371,10.134608 8.859315,10.134608 8.859103,10.064734 8.904756,10.064926 9.037404,10.064926 9.061016,10.064734 9.066922,10.064734" style="fill: white" />
</svg>
