<svg width="19.131698" height="19.131699">
<polygon type="contour" points="10.747194,10.516754 10.747674,10.548086 10.750732,10.644878 10.751039,10.652324 10.753056,10.67216 10.753259,10.75326 10.611781,10.749259 10.590948,10.748435 10.580341,10.748298 10.470268,10.749676 10.469084,10.714821 10.469084,10.68139 10.468887,10.679769 10.468162,10.646381 10.46788,10.58052 10.46788,10.467882 10.747119,10.467882" style="fill: white" /><polygon type="contour" points="10.580107,10.295734 10.580263,10.357222 10.467774,10.357222 10.467774,10.291107 10.467763,10.255625 10.528007,10.255551 10.58021,10.255551" style="fill: white" /><polygon type="contour" points="10.315345,10.255625 10.357123,10.255625 10.357123,10.315347 10.35722,10.357222 10.291106,10.357222 10.255623,10.357124 10.255549,10.302274 10.255549,10.255551" style="fill: white" /><polygon type="contour" points="10.35722,10.467776 10.35722,10.580264 10.315345,10.580341 10.255549,10.580212 10.255623,10.514441 10.255623,10.467765 10.315345,10.467765" style="fill: white" /><polygon type="contour" points="9.711101,10.746958 9.685597,10.747792 9.5655,10.749254 9.518045,10.747748 9.4206,10.746957 9.4206,10.467788 9.711101,10.467788" style="fill: white" /><polygon type="contour" points="9.92283,10.467765 9.922741,10.52801 9.922741,10.580212 9.883429,10.580058 9.823788,10.580105 9.823788,10.539982 9.822617,10.467728 9.888125,10.467728" style="fill: white" /><polygon type="contour" points="9.92283,10.315347 9.92283,10.357125 9.86352,10.357125 9.822617,10.357192 9.822606,10.315346 9.823664,10.255695 9.876983,10.255551 9.922741,10.255551" style="fill: white" /><polygon type="contour" points="9.711101,10.357222 9.4206,10.357222 9.4206,10.255695 9.711101,10.255695" style="fill: white" /><polygon type="contour" points="9.307913,10.539983 9.307913,10.580105 9.266735,10.58024 9.20896,10.580212 9.20887,10.514442 9.20887,10.467765 9.268182,10.467765 9.309083,10.467728" style="fill: white" /><polygon type="contour" points="9.266735,10.255695 9.308037,10.255695 9.309095,10.315347 9.310289,10.357222 9.268181,10.357125 9.20887,10.357125 9.20896,10.302274 9.20896,10.255551" style="fill: white" /><polygon type="contour" points="8.519917,8.382443 8.540753,8.383269 8.551358,8.383406 8.661433,8.382027 8.662617,8.416882 8.662617,8.450314 8.662813,8.451935 8.663536,8.485321 8.66382,8.551183 8.66382,8.663822 8.384581,8.663822 8.384506,8.614949 8.384026,8.583616 8.380967,8.486826 8.380658,8.479379 8.378642,8.459544 8.37844,8.378442" style="fill: white" /><polygon type="contour" points="9.613654,8.383956 9.711101,8.384746 9.711101,8.487915 9.712435,8.663916 9.419266,8.663916 9.4206,8.59323 9.4206,8.384746 9.446104,8.38391 9.566198,8.38245" style="fill: white" /><polygon type="contour" points="9.876982,9.208963 9.922741,9.208963 9.923063,9.266737 9.923063,9.308039 9.864965,9.308039 9.823788,9.307915 9.823788,9.243683 9.823664,9.20864" style="fill: white" /><polygon type="contour" points="9.711101,9.307915 9.4206,9.307915 9.4206,9.20864 9.711101,9.20864" style="fill: white" /><polygon type="contour" points="9.308037,9.266737 9.307913,9.307915 9.24368,9.307915 9.208637,9.308039 9.20896,9.254718 9.20896,9.208963 9.266735,9.20864 9.308037,9.20864" style="fill: white" /><polygon type="contour" points="8.663937,9.268184 8.663974,9.309085 8.591718,9.307915 8.551597,9.307915 8.551461,9.266737 8.551491,9.208963 8.61726,9.208873 8.663937,9.208873" style="fill: white" /><polygon type="contour" points="8.829425,9.208963 8.87615,9.208963 8.876007,9.266737 8.876007,9.308039 8.816354,9.309097 8.774511,9.309085 8.774511,9.243578 8.774577,9.208873" style="fill: white" /><polygon type="contour" points="8.663926,8.840596 8.663937,8.87608 8.603692,8.876153 8.551491,8.876153 8.551594,8.835967 8.551438,8.774483 8.663926,8.774483" style="fill: white" /><polygon type="contour" points="8.876078,8.774579 8.87615,8.829428 8.87615,8.876153 8.816355,8.87608 8.774577,8.87608 8.774577,8.816356 8.774481,8.774483 8.840595,8.774483" style="fill: white" /><polygon type="contour" points="8.87615,8.551492 8.876078,8.617262 8.876078,8.663939 8.816355,8.663939 8.774481,8.663928 8.774481,8.55144 8.816355,8.551362" style="fill: white" /><polygon type="contour" points="9.24827,8.551647 9.307913,8.551599 9.307913,8.59172 9.30772,8.663976 9.243574,8.663976 9.20887,8.663939 9.20896,8.603694 9.20896,8.551492" style="fill: white" /><polygon type="contour" points="9.30786,8.816357 9.308037,8.87601 9.254717,8.876153 9.20896,8.876153 9.20887,8.816356 9.20887,8.774579 9.266947,8.774579 9.308922,8.774483" style="fill: white" /><polygon type="contour" points="9.711101,8.840145 9.711101,8.87601 9.420599,8.87601 9.419366,8.816357 9.419233,8.774483 9.712468,8.774483" style="fill: white" /><polygon type="contour" points="9.864753,8.774579 9.92283,8.774579 9.922741,8.829428 9.922741,8.876153 9.864966,8.87601 9.823664,8.87601 9.82384,8.816356 9.823981,8.774513" style="fill: white" /><polygon type="contour" points="9.922741,8.551492 9.92283,8.617261 9.92283,8.663939 9.864753,8.663939 9.823981,8.663976 9.823788,8.59172 9.823788,8.551599 9.864966,8.551463" style="fill: white" /><polygon type="contour" points="10.747674,8.583617 10.747194,8.614949 10.747119,8.663822 10.46788,8.663822 10.46788,8.551183 10.468162,8.485321 10.468886,8.451935 10.469084,8.416882 10.470268,8.382027 10.580341,8.383406 10.611782,8.382443 10.753259,8.378442" style="fill: white" /><polygon type="contour" points="10.580339,8.816357 10.58021,8.876153 10.51444,8.87608 10.467763,8.87608 10.467763,8.816356 10.467774,8.774483 10.580262,8.774483" style="fill: white" /><polygon type="contour" points="10.35722,8.663928 10.291105,8.663928 10.255623,8.663939 10.255549,8.603694 10.255549,8.551492 10.295733,8.551595 10.35722,8.55144" style="fill: white" /><polygon type="contour" points="10.35722,8.840595 10.357123,8.87608 10.302272,8.876153 10.255549,8.876153 10.255623,8.816356 10.255623,8.774579 10.315346,8.774579 10.35722,8.774483" style="fill: white" /><polygon type="contour" points="10.357123,9.266949 10.35722,9.308924 10.315345,9.307862 10.255694,9.308039 10.255549,9.254718 10.255549,9.208963 10.315345,9.208873 10.357123,9.208873" style="fill: white" /><polygon type="contour" points="10.528007,9.208963 10.58021,9.208963 10.580055,9.248272 10.580104,9.307915 10.539981,9.307915 10.467726,9.307721 10.467726,9.243577 10.467763,9.208873" style="fill: white" /><polygon type="contour" points="10.53847,9.420602 10.748403,9.420602 10.749497,9.520775 10.749279,9.566202 10.74824,9.677171 10.748403,9.711102 10.467786,9.711102 10.467786,9.419267" style="fill: white" /><polygon type="contour" points="10.539981,9.823789 10.580104,9.823789 10.580238,9.864966 10.58021,9.922742 10.51444,9.922831 10.467763,9.922831 10.467763,9.863519 10.467726,9.822619" style="fill: white" /><polygon type="contour" points="10.35722,9.711102 10.255694,9.711102 10.255694,9.420602 10.291557,9.420602 10.35722,9.419235" style="fill: white" /><polygon type="contour" points="10.35722,9.88707 10.357123,9.922831 10.302273,9.922742 10.255549,9.922742 10.255694,9.864966 10.255694,9.823665 10.315346,9.822606 10.35722,9.821413" style="fill: white" /><polygon type="contour" points="9.922741,9.876985 9.922741,9.922742 9.864965,9.923064 9.823664,9.923064 9.823664,9.864966 9.823788,9.823789 9.888019,9.823789 9.923063,9.823665" style="fill: white" /><polygon type="contour" points="9.923063,9.711102 9.823788,9.711102 9.823788,9.420602 9.923063,9.420602" style="fill: white" /><polygon type="contour" points="9.711101,9.711102 9.4206,9.711102 9.4206,9.420602 9.711101,9.420602" style="fill: white" /><polygon type="contour" points="9.711101,9.923064 9.4206,9.923064 9.4206,9.823789 9.711101,9.823789" style="fill: white" /><polygon type="contour" points="9.307913,9.823789 9.307913,9.88802 9.308037,9.923064 9.254716,9.922742 9.20896,9.922742 9.208637,9.864966 9.208637,9.823665 9.266735,9.823665" style="fill: white" /><polygon type="contour" points="9.307913,9.711102 9.208637,9.711102 9.208637,9.420602 9.307913,9.420602" style="fill: white" /><polygon type="contour" points="8.876007,9.711102 8.840142,9.711102 8.774481,9.71247 8.774481,9.420602 8.876007,9.420602" style="fill: white" /><polygon type="contour" points="8.816355,9.823843 8.876007,9.823665 8.87615,9.876984 8.87615,9.922742 8.816354,9.922831 8.774577,9.922831 8.774577,9.864755 8.774481,9.822781" style="fill: white" /><polygon type="contour" points="8.663914,9.712437 8.593229,9.711102 8.383297,9.711102 8.382203,9.610928 8.382421,9.565501 8.38346,9.454532 8.383297,9.420602 8.663914,9.420602" style="fill: white" /><polygon type="contour" points="8.663974,9.823983 8.663974,9.888126 8.663937,9.922831 8.603692,9.922742 8.551491,9.922742 8.551646,9.883431 8.551597,9.823789 8.591718,9.823789" style="fill: white" /><polygon type="contour" points="8.617259,10.255625 8.663937,10.255625 8.663937,10.315346 8.663926,10.357222 8.551438,10.357222 8.551361,10.315346 8.551491,10.255551" style="fill: white" /><polygon type="contour" points="8.876078,10.315347 8.876078,10.357125 8.816355,10.357125 8.774481,10.357222 8.774481,10.291107 8.774577,10.255625 8.829426,10.255551 8.87615,10.255551" style="fill: white" /><polygon type="contour" points="8.87615,10.528009 8.87615,10.580212 8.835965,10.58011 8.774481,10.580264 8.774481,10.467776 8.840595,10.467776 8.876078,10.467765" style="fill: white" /><polygon type="contour" points="8.66382,10.58052 8.663536,10.646382 8.662812,10.67977 8.662617,10.714821 8.661433,10.749676 8.551359,10.748298 8.519918,10.749259 8.378441,10.753261 8.384026,10.548086 8.384506,10.516754 8.384581,10.467882 8.66382,10.467882" style="fill: white" />
</svg>
