<svg width="19.131698" height="19.131699">
<polygon type="contour" points="12.020671,10.674318 12.191543,10.674154 12.191543,10.967444 12.012472,10.967647 11.940428,10.967469 11.940361,10.792156 11.940361,10.673914" style="fill: white" /><polygon type="contour" points="12.615161,10.674911 12.614029,10.753819 12.614057,10.785028 12.61569,10.898075 12.615736,10.967599 12.483235,10.967599 12.385088,10.967391 12.364928,10.967343 12.32572,10.967343 12.325832,10.890613 12.325832,10.675252 12.490176,10.673682" style="fill: white" /><polygon type="contour" points="12.406346,11.130493 12.441474,11.130493 12.441988,11.264151 12.441496,11.330994 12.362124,11.331257 12.324917,11.331257 12.324917,11.194301 12.325147,11.130321" style="fill: white" /><polygon type="contour" points="12.191488,11.279029 12.191457,11.331257 12.040478,11.330994 11.940361,11.330994 11.940428,11.203182 11.940428,11.130519 12.11147,11.130357 12.191488,11.130321" style="fill: white" /><polygon type="contour" points="12.394925,11.940363 12.441497,11.940363 12.442047,12.020673 12.441754,12.191545 12.410743,12.191453 12.325046,12.191453 12.325046,12.006124 12.324917,11.940158" style="fill: white" /><polygon type="contour" points="12.506571,12.326829 12.617476,12.327866 12.614929,12.50314 12.617024,12.558775 12.619541,12.619542 12.49311,12.614702 12.42529,12.614136 12.325832,12.615484 12.325832,12.402189 12.325766,12.325768 12.426741,12.325768 12.477488,12.325635" style="fill: white" /><polygon type="contour" points="12.191451,12.325048 12.191451,12.410744 12.191543,12.441755 12.020671,12.442048 11.940361,12.441498 11.940156,12.362127 11.940156,12.324918 12.111469,12.324918" style="fill: white" /><polygon type="contour" points="12.191457,12.111471 12.191543,12.191545 12.126203,12.191489 12.11147,12.191459 11.940156,12.191459 11.940361,12.04048 11.940361,11.940363 12.11147,11.940158 12.191457,11.940158" style="fill: white" /><polygon type="contour" points="11.331255,12.111471 11.331255,12.191459 11.1943,12.191459 11.130319,12.191489 11.130356,12.111471 11.130517,11.940431 11.250956,11.940363 11.330992,11.940363" style="fill: white" /><polygon type="contour" points="11.330992,12.394926 11.330992,12.441498 11.264149,12.441991 11.130491,12.441476 11.130491,12.406347 11.130319,12.325148 11.279027,12.325148 11.331255,12.324918" style="fill: white" /><polygon type="contour" points="10.751972,12.325834 10.967335,12.325834 10.96734,12.364929 10.967561,12.469607 10.967597,12.483237 10.967597,12.615739 10.789507,12.613816 10.757734,12.613945 10.674568,12.614892 10.673405,12.485054 10.675178,12.385104 10.675175,12.325768" style="fill: white" /><polygon type="contour" points="10.860116,11.940431 10.967467,11.940431 10.967305,12.111472 10.967443,12.191545 10.674152,12.191545 10.674317,12.020673 10.673912,11.940362" style="fill: white" /><polygon type="contour" points="10.967609,11.270894 10.967467,11.330973 10.792156,11.330994 10.673912,11.330994 10.673795,11.203182 10.674037,11.130493 10.967609,11.130493" style="fill: white" /><polygon type="contour" points="11.330971,11.130519 11.330992,11.250957 11.330992,11.330994 11.203179,11.330973 11.130517,11.330973 11.130517,11.203182 11.130491,11.130493 11.270892,11.130493" style="fill: white" /><polygon type="contour" points="11.330971,10.860118 11.330971,10.967468 11.270892,10.967611 11.130491,10.967611 11.130491,10.674038 11.26415,10.674194 11.330992,10.673914" style="fill: white" /><polygon type="contour" points="10.967672,10.721704 10.967672,10.967564 10.675331,10.967564 10.675841,10.928929 10.679096,10.895224 10.682308,10.68231 10.928927,10.675841 10.967562,10.675332" style="fill: white" /><polygon type="contour" points="10.860116,7.800731 10.967467,7.800731 10.967609,7.860809 10.967609,8.001212 10.674037,8.001212 10.674193,7.867551 10.673912,7.80071" style="fill: white" /><polygon type="contour" points="10.967562,8.210513 10.967562,8.456372 10.928927,8.455862 10.895222,8.452605 10.682308,8.449394 10.683773,8.256775 10.679096,8.236478 10.675841,8.202775 10.675331,8.164141 10.967672,8.164141" style="fill: white" /><polygon type="contour" points="11.330971,7.928522 11.330971,8.001186 11.20318,8.001186 11.130491,8.001212 11.130491,7.86081 11.130517,7.800731 11.250955,7.80071 11.330992,7.80071" style="fill: white" /><polygon type="contour" points="11.330971,8.164235 11.330992,8.339546 11.330992,8.45779 11.26415,8.457509 11.130491,8.457666 11.130491,8.164093 11.270892,8.164093" style="fill: white" /><polygon type="contour" points="12.613816,8.342194 12.613945,8.373967 12.614892,8.457135 12.485053,8.458297 12.385101,8.456524 12.325832,8.456452 12.325832,8.164367 12.406827,8.164186 12.483235,8.164105 12.615737,8.164105" style="fill: white" /><polygon type="contour" points="12.111469,8.164397 12.191543,8.164259 12.191543,8.457549 12.020671,8.457386 11.940361,8.45779 11.940428,8.271584 11.940428,8.164234" style="fill: white" /><polygon type="contour" points="12.191457,7.937402 12.191488,8.001383 12.111469,8.001346 11.940428,8.001186 11.940361,7.880745 11.940361,7.80071 12.11147,7.800447 12.191457,7.800447" style="fill: white" /><polygon type="contour" points="12.394925,7.80071 12.441497,7.80071 12.441989,7.867552 12.441474,8.001212 12.406346,8.001212 12.325147,8.001383 12.325147,7.852674 12.324917,7.800447" style="fill: white" /><polygon type="contour" points="12.61493,6.628563 12.617476,6.803836 12.506571,6.804427 12.477487,6.806069 12.384958,6.806069 12.325832,6.805869 12.325815,6.746612 12.325815,6.516359 12.425288,6.517568 12.49311,6.517002 12.551697,6.514441 12.619541,6.512162" style="fill: white" /><polygon type="contour" points="12.442047,7.11103 12.441497,7.191341 12.362124,7.191546 12.324917,7.191546 12.324917,7.020232 12.325046,6.940251 12.410743,6.940251 12.441754,6.940159" style="fill: white" /><polygon type="contour" points="12.191488,7.005498 12.191457,7.020231 12.191457,7.191546 12.040478,7.191341 11.940361,7.191341 11.940156,7.020231 11.940156,6.940245 12.111469,6.940245 12.191543,6.940159" style="fill: white" /><polygon type="contour" points="12.191543,6.689949 12.191451,6.720959 12.191451,6.806656 12.006122,6.806656 11.940156,6.806785 11.940361,6.736776 11.940361,6.690205 12.020671,6.689655" style="fill: white" /><polygon type="contour" points="11.330992,6.690206 11.331255,6.769576 11.331255,6.806785 11.1943,6.806785 11.130319,6.806555 11.130491,6.725355 11.130491,6.690228 11.264149,6.689713" style="fill: white" /><polygon type="contour" points="11.331255,6.940245 11.330992,7.091223 11.330992,7.191341 11.203179,7.191273 11.130516,7.191273 11.130356,7.020232 11.130319,6.940214 11.279027,6.940214" style="fill: white" /><polygon type="contour" points="10.967645,7.119229 10.967466,7.191273 10.792155,7.191341 10.673912,7.191341 10.674317,7.11103 10.674152,6.940159 10.967442,6.940159" style="fill: white" /><polygon type="contour" points="10.967341,6.766773 10.967341,6.805982 10.890611,6.805869 10.67525,6.805869 10.673681,6.641526 10.67491,6.516542 10.75401,6.51748 10.785027,6.517646 10.898072,6.51601 10.967562,6.515879" style="fill: white" /><polygon type="contour" points="6.638625,6.516918 6.70641,6.517568 6.805867,6.51622 6.805867,6.805869 6.720135,6.805869 6.704957,6.805936 6.654213,6.806069 6.625129,6.804427 6.514224,6.803836 6.51677,6.628564 6.514676,6.572928 6.512159,6.512162" style="fill: white" /><polygon type="contour" points="6.720957,6.940251 6.806654,6.940251 6.806654,7.125581 6.806783,7.191546 6.736775,7.191341 6.690204,7.191341 6.689653,7.11103 6.689947,6.940159" style="fill: white" /><polygon type="contour" points="7.005496,6.940214 7.02023,6.940245 7.191544,6.940245 7.191339,7.091223 7.191339,7.191341 7.020229,7.191546 6.940243,7.191546 6.940243,7.020232 6.940157,6.940159" style="fill: white" /><polygon type="contour" points="7.191339,6.690206 7.191544,6.769576 7.191544,6.806785 7.02023,6.806785 6.940249,6.806656 6.940249,6.72096 6.940157,6.689949 7.111027,6.689654" style="fill: white" /><polygon type="contour" points="8.342192,6.517885 8.373966,6.517755 8.457133,6.516809 8.458295,6.646648 8.456523,6.746598 8.456525,6.805936 8.379727,6.805869 8.164366,6.805869 8.164359,6.766774 8.164138,6.662094 8.164103,6.648466 8.164103,6.515965" style="fill: white" /><polygon type="contour" points="8.00121,6.690228 8.00121,6.725355 8.001381,6.806555 7.852673,6.806555 7.800446,6.806785 7.800708,6.736777 7.800708,6.690206 7.86755,6.689713" style="fill: white" /><polygon type="contour" points="8.001345,7.020231 8.001184,7.191273 7.880743,7.191341 7.800708,7.191341 7.800446,7.020232 7.800446,6.940245 7.9374,6.940245 8.001381,6.940214" style="fill: white" /><polygon type="contour" points="8.457384,7.11103 8.457788,7.191341 8.271584,7.191273 8.164234,7.191273 8.164396,7.020232 8.164257,6.940159 8.457547,6.940159" style="fill: white" /><polygon type="contour" points="8.00121,8.457666 7.867549,8.457509 7.800708,8.45779 7.800729,8.271585 7.800729,8.164235 7.860807,8.164093 8.00121,8.164093" style="fill: white" /><polygon type="contour" points="8.45111,8.336403 8.449392,8.449394 8.256774,8.44793 8.236477,8.452605 8.202773,8.455862 8.164139,8.456372 8.164139,8.164141 8.456369,8.164141" style="fill: white" /><polygon type="contour" points="8.457507,7.867551 8.457664,8.001212 8.164092,8.001212 8.164092,7.860809 8.164234,7.800731 8.339544,7.80071 8.457788,7.80071" style="fill: white" /><polygon type="contour" points="7.928521,7.800731 8.001184,7.800731 8.001184,7.928521 8.00121,8.001212 7.860808,8.001212 7.800729,8.001186 7.800708,7.880746 7.800708,7.80071" style="fill: white" /><polygon type="contour" points="7.191272,8.164235 7.191339,8.339547 7.191339,8.45779 7.111028,8.457386 6.940157,8.457549 6.940157,8.164259 7.119228,8.164056" style="fill: white" /><polygon type="contour" points="7.091222,7.80071 7.191339,7.80071 7.191272,7.928521 7.191272,8.001186 7.02023,8.001346 6.940212,8.001383 6.940212,7.852674 6.940243,7.800447" style="fill: white" /><polygon type="contour" points="6.806783,7.937402 6.806553,8.001383 6.725353,8.001212 6.690226,8.001212 6.689711,7.867552 6.690204,7.80071 6.769574,7.800447 6.806783,7.800447" style="fill: white" /><polygon type="contour" points="6.74661,8.164312 6.766771,8.164362 6.80598,8.164362 6.805867,8.241091 6.805867,8.456452 6.641524,8.458022 6.51654,8.456792 6.517478,8.377692 6.517644,8.346676 6.516008,8.233628 6.515963,8.164105 6.648464,8.164105" style="fill: white" /><polygon type="contour" points="6.746597,10.67518 6.805867,10.675252 6.805867,10.967336 6.724871,10.967518 6.648464,10.967599 6.515963,10.967599 6.517883,10.789509 6.517753,10.757736 6.516807,10.67457 6.646646,10.673407" style="fill: white" /><polygon type="contour" points="6.806553,11.279029 6.806783,11.331257 6.736775,11.330994 6.690204,11.330994 6.689711,11.264151 6.690226,11.130493 6.725353,11.130493 6.806553,11.130321" style="fill: white" /><polygon type="contour" points="7.020229,11.130357 7.191272,11.130519 7.191339,11.250958 7.191339,11.330994 7.020229,11.331257 6.940243,11.331257 6.940243,11.194301 6.940212,11.130321" style="fill: white" /><polygon type="contour" points="7.191272,10.860119 7.191272,10.967469 7.02023,10.967306 6.940157,10.967445 6.940157,10.674154 7.111028,10.674318 7.191339,10.673914" style="fill: white" /><polygon type="contour" points="8.00121,10.674038 8.00121,10.967611 7.860807,10.967611 7.800729,10.967469 7.800708,10.792157 7.800708,10.673913 7.92852,10.673795" style="fill: white" /><polygon type="contour" points="8.336401,10.680592 8.449392,10.68231 8.455859,10.928929 8.456369,10.967564 8.164139,10.967564 8.164139,10.675332" style="fill: white" /><polygon type="contour" points="8.457507,11.264152 8.457788,11.330994 8.271584,11.330973 8.164234,11.330973 8.164092,11.270894 8.164092,11.130493 8.457664,11.130493" style="fill: white" /><polygon type="contour" points="8.00121,11.270894 8.001184,11.330973 7.880744,11.330994 7.800708,11.330994 7.800729,11.203181 7.800729,11.130519 7.92852,11.130519 8.00121,11.130493" style="fill: white" /><polygon type="contour" points="7.928521,11.940431 8.001184,11.940431 8.001344,12.111471 8.001381,12.191489 7.852673,12.191489 7.800446,12.191459 7.800708,12.040479 7.800708,11.940363" style="fill: white" /><polygon type="contour" points="8.457384,12.020674 8.457548,12.191545 8.164257,12.191545 8.164055,12.012475 8.164234,11.940431 8.339545,11.940364 8.457788,11.940364" style="fill: white" /><polygon type="contour" points="8.241088,12.325834 8.45645,12.325834 8.458019,12.490176 8.45679,12.615161 8.377689,12.614222 8.346672,12.614058 8.233627,12.615693 8.164139,12.615825 8.164359,12.364929 8.164359,12.325722" style="fill: white" /><polygon type="contour" points="8.001381,12.325148 8.00121,12.406347 8.00121,12.441476 7.86755,12.441991 7.800708,12.441498 7.800446,12.362126 7.800446,12.324918 7.9374,12.324918" style="fill: white" /><polygon type="contour" points="7.191339,12.394926 7.191339,12.441498 7.111028,12.442048 6.940157,12.441755 6.940249,12.410744 6.940249,12.325048 7.125578,12.325048 7.191544,12.324918" style="fill: white" /><polygon type="contour" points="7.091222,11.940363 7.191339,11.940363 7.191544,12.111471 7.191544,12.191459 7.02023,12.191459 6.940157,12.191545 6.940212,12.126205 6.940243,12.111472 6.940243,11.940158" style="fill: white" /><polygon type="contour" points="6.806783,12.111471 6.806654,12.191453 6.720957,12.191453 6.689947,12.191545 6.689653,12.020673 6.690204,11.940363 6.769574,11.940158 6.806783,11.940158" style="fill: white" /><polygon type="contour" points="6.805867,12.325834 6.805884,12.38509 6.805884,12.615344 6.706409,12.614136 6.638589,12.614702 6.580002,12.617262 6.51216,12.619542 6.51677,12.50314 6.514224,12.327866 6.625129,12.326829 6.654213,12.325635 6.74674,12.325635" style="fill: white" />
</svg>
