<svg width="19.131698" height="19.131699">
<polygon type="contour" points="10.255827,9.970233 10.255837,10.012421 10.256377,10.120038 10.306702,10.120038 10.391588,10.120067 10.422281,10.120067 10.424203,10.222701 10.428088,10.428089 10.294095,10.426863 10.123759,10.422714 10.120269,10.422559 10.120283,10.407556 10.120283,10.395225 10.120158,10.256378 10.012418,10.255839 9.970231,10.25583 9.970231,10.171425 9.970166,10.119671 9.970166,10.01242 9.97023,9.970233 10.025201,9.970233 10.059067,9.970169 10.191293,9.970169" style="fill: white" /><polygon type="contour" points="10.424203,8.909003 10.422281,9.011638 10.391588,9.011638 10.306703,9.011667 10.256378,9.011589 10.255837,9.119283 10.255827,9.161471 10.171423,9.161471 10.119669,9.161536 10.012418,9.161536 9.970231,9.161471 9.970231,9.1065 9.970166,9.072636 9.970166,8.940407 9.970231,8.875872 10.012418,8.875863 10.120283,8.875327 10.120283,8.724147 10.120269,8.709145 10.123759,8.70899 10.294095,8.704841 10.428088,8.703614" style="fill: white" /><polygon type="contour" points="10.255827,9.269672 10.255837,9.312248 10.256363,9.420602 10.422718,9.420602 10.422931,9.468728 10.424287,9.566201 10.423671,9.667246 10.422718,9.711102 10.256363,9.711102 10.255837,9.819454 10.255827,9.862032 10.171423,9.862032 10.119669,9.86204 10.012418,9.86204 9.970231,9.862032 9.970231,9.806628 9.970979,9.711102 9.970499,9.711102 9.970499,9.312248 9.970231,9.269673 10.025201,9.269673 10.059067,9.269664 10.191293,9.269664" style="fill: white" /><polygon type="contour" points="9.862029,9.269673 9.862029,9.325074 9.862039,9.359263 9.862039,9.819454 9.862029,9.862032 9.806625,9.862032 9.772438,9.86204 9.312247,9.86204 9.269671,9.862032 9.269671,9.806628 9.269662,9.772441 9.269662,9.312248 9.269671,9.269673 9.325074,9.269673 9.359261,9.269664 9.819453,9.269664" style="fill: white" /><polygon type="contour" points="9.623965,8.707666 9.664224,8.708722 9.687874,8.709423 9.711101,8.709428 9.711101,8.87534 9.819453,8.875862 9.862029,8.875872 9.862029,8.960277 9.862039,9.012033 9.862039,9.119283 9.862029,9.161471 9.806625,9.161471 9.711104,9.160724 9.711101,9.161204 9.312247,9.161204 9.269671,9.161471 9.269671,9.1065 9.269662,9.072636 9.269662,8.940406 9.269671,8.875872 9.312247,8.875862 9.4206,8.87534 9.4206,8.709428 9.443938,8.709423 9.467702,8.708723 9.565935,8.707293" style="fill: white" /><polygon type="contour" points="8.837604,8.704841 9.00794,8.708989 9.011432,8.709145 9.011418,8.724147 9.011418,8.736478 9.011542,8.875328 9.119282,8.875863 9.16147,8.875872 9.16147,8.960277 9.161534,9.012032 9.161534,9.119283 9.16147,9.161471 9.106498,9.161471 9.072634,9.161536 8.940406,9.161536 8.875871,9.161471 8.875861,9.119284 8.875324,9.011667 8.824996,9.011667 8.740109,9.011638 8.709417,9.011638 8.707496,8.909003 8.703612,8.703614" style="fill: white" /><polygon type="contour" points="9.16147,9.269672 9.16147,9.325075 9.160721,9.420602 9.161202,9.420602 9.161202,9.819454 9.16147,9.862032 9.106498,9.862032 9.072633,9.86204 8.940406,9.86204 8.875871,9.862032 8.875861,9.819454 8.875338,9.711102 8.708982,9.711102 8.708769,9.663207 8.707412,9.566202 8.708028,9.464669 8.708982,9.420602 8.875338,9.420602 8.875861,9.312248 8.875871,9.269673 8.960275,9.269673 9.01203,9.269664 9.119282,9.269664" style="fill: white" /><polygon type="contour" points="9.420596,9.970981 9.420599,9.970501 9.819453,9.970501 9.862029,9.970233 9.862029,10.025204 9.862039,10.059069 9.862039,10.191295 9.862029,10.25583 9.819453,10.255839 9.711101,10.256365 9.711101,10.422274 9.687762,10.42228 9.663999,10.42298 9.565501,10.424411 9.507735,10.424036 9.467476,10.422981 9.443827,10.42228 9.4206,10.422274 9.4206,10.256365 9.312247,10.255839 9.269671,10.25583 9.269671,10.171426 9.269662,10.119672 9.269662,10.01242 9.26967,9.970233 9.325074,9.970233" style="fill: white" /><polygon type="contour" points="9.16147,9.970233 9.16147,10.025203 9.161534,10.059069 9.161534,10.191295 9.16147,10.25583 9.119282,10.255839 9.011418,10.256378 9.011418,10.407556 9.011432,10.422559 9.00794,10.422714 8.837604,10.426862 8.703612,10.428089 8.707496,10.222701 8.709417,10.120067 8.740109,10.120067 8.824995,10.120038 8.875324,10.120115 8.875861,10.01242 8.875871,9.970233 8.960275,9.970233 9.01203,9.970169 9.119282,9.970169" style="fill: white" />
</svg>
