<svg width="19.131698" height="19.131699">
<polygon type="contour" points="10.856097,8.24387 10.888755,8.242946 10.888112,8.266578 10.887563,8.294072 10.887391,8.304975 10.888081,8.516897 10.614806,8.516897 10.614806,8.509462 10.615157,8.465095 10.616265,8.302248 10.616265,8.278415 10.616348,8.259145 10.616453,8.257211 10.616909,8.240771" style="fill: white" /><polygon type="contour" points="10.713331,8.83336 10.720349,8.83336 10.720371,8.857215 10.720351,8.857215 10.720506,8.938757 10.720531,8.970312 10.720542,8.975233 10.714783,8.975476 10.614169,8.975476 10.614169,8.969958 10.614106,8.938757 10.614086,8.878164 10.614155,8.830567" style="fill: white" /><polygon type="contour" points="9.834761,9.834763 9.296939,9.834763 9.296939,9.296942 9.834761,9.296942" style="fill: white" /><polygon type="contour" points="9.833869,10.161694 9.833872,10.192945 9.833829,10.224493 9.83379,10.25306 9.833734,10.290855 9.833725,10.297687 9.297971,10.297687 9.297961,10.290854 9.297909,10.253061 9.29787,10.224493 9.297829,10.192945 9.297832,10.161694 9.297832,10.156471 9.833869,10.156471" style="fill: white" /><polygon type="contour" points="8.975231,10.161693 8.975103,10.192946 8.975103,10.258438 8.975474,10.297762 8.938756,10.297946 8.878238,10.297925 8.83336,10.297687 8.833277,10.19847 8.833319,10.192946 8.833277,10.156494 8.872826,10.156599 8.938755,10.156599 8.975231,10.156471" style="fill: white" /><polygon type="contour" points="8.938756,10.614108 8.975474,10.61417 8.975231,10.619853 8.975231,10.720544 8.938755,10.720508 8.857213,10.720353 8.857213,10.720369 8.839834,10.72035 8.83336,10.720351 8.83336,10.613997 8.840283,10.613997 8.878239,10.613992" style="fill: white" /><polygon type="contour" points="8.516894,10.622241 8.516542,10.666608 8.515435,10.829455 8.515435,10.853289 8.515352,10.872558 8.515245,10.874493 8.51479,10.890933 8.275603,10.887834 8.242945,10.888757 8.243587,10.865124 8.244136,10.837631 8.244308,10.826729 8.243617,10.614808 8.321058,10.614808 8.497744,10.614807 8.516894,10.614807" style="fill: white" /><polygon type="contour" points="8.416915,10.156494 8.517531,10.156494 8.517531,10.161746 8.517593,10.192945 8.517709,10.25306 8.517705,10.297687 8.411352,10.297687 8.411308,10.25306 8.411253,10.224493 8.411194,10.192946 8.411169,10.161391 8.411159,10.156471" style="fill: white" /><polygon type="contour" points="8.515352,8.259145 8.515352,8.276784 8.515435,8.278416 8.516542,8.465095 8.516894,8.516897 8.243292,8.516897 8.2435,8.465752 8.242945,8.242946 8.275603,8.24387 8.514791,8.240771" style="fill: white" /><polygon type="contour" points="8.517545,8.837902 8.517612,8.878163 8.517594,8.938757 8.517531,8.975476 8.511847,8.975233 8.411159,8.975233 8.411194,8.938757 8.411349,8.857215 8.411333,8.857215 8.411352,8.839836 8.411351,8.83336 8.510111,8.830567 8.517545,8.830567" style="fill: white" /><polygon type="contour" points="8.444939,9.29682 8.516791,9.296928 8.516894,9.791737 8.516894,9.835551 8.465487,9.835229 8.444938,9.834884 8.280243,9.835053 8.243146,9.835053 8.241512,9.615225 8.241244,9.604327 8.241007,9.591614 8.240601,9.583568 8.240395,9.565502 8.240601,9.547509 8.241006,9.539486 8.241244,9.526804 8.241513,9.515932 8.243146,9.296651 8.280243,9.296651" style="fill: white" /><polygon type="contour" points="8.975231,9.297834 8.975231,9.83387 8.970007,9.83387 8.938755,9.833873 8.878238,9.833792 8.83336,9.834054 8.83336,9.297973 8.84019,9.297963 8.878239,9.297909 8.938755,9.297831" style="fill: white" /><polygon type="contour" points="8.975103,8.872827 8.975103,8.938757 8.975231,8.975233 8.970008,8.975233 8.938755,8.975105 8.872825,8.975105 8.833277,8.975476 8.833277,8.969958 8.833318,8.938758 8.833375,8.87824 8.83336,8.83336 8.840283,8.83336 8.878238,8.833377 8.938755,8.83332 8.975474,8.833279" style="fill: white" /><polygon type="contour" points="8.975474,8.416917 8.975474,8.517534 8.969956,8.517534 8.938755,8.517595 8.878163,8.517615 8.830566,8.517547 8.830566,8.510112 8.833359,8.411353 8.857213,8.41133 8.857213,8.41135 8.938755,8.411195 8.97031,8.41117 8.975231,8.41116" style="fill: white" /><polygon type="contour" points="9.566199,8.240402 9.592214,8.241009 9.604896,8.241247 9.615767,8.241516 9.639023,8.241802 9.835059,8.24326 9.835226,8.465489 9.835548,8.516897 9.478164,8.51654 9.297013,8.51654 9.296968,8.486041 9.296751,8.364495 9.296641,8.24326 9.493161,8.241802 9.516475,8.241515 9.527373,8.241247 9.540087,8.24101 9.554042,8.240374" style="fill: white" /><polygon type="contour" points="10.192944,8.411195 10.224491,8.411254 10.253059,8.41131 10.291206,8.411353 10.297686,8.411352 10.297686,8.418369 10.301134,8.517547 10.293798,8.517547 10.253537,8.517614 10.192943,8.517595 10.156492,8.517534 10.156469,8.51185 10.156469,8.41116" style="fill: white" /><polygon type="contour" points="9.833735,8.840191 9.83379,8.87824 9.833828,8.907209 9.833872,8.938758 9.833869,8.970009 9.833869,8.975233 9.297832,8.975233 9.297832,8.970009 9.297829,8.938757 9.29787,8.90721 9.297909,8.87824 9.297962,8.840191 9.297971,8.83336 9.834051,8.83336" style="fill: white" /><polygon type="contour" points="10.192944,8.833321 10.253059,8.833377 10.297686,8.83336 10.297759,8.933232 10.297944,8.938758 10.29776,8.975476 10.258436,8.975105 10.192944,8.975105 10.156469,8.975233 10.156469,8.970009 10.156598,8.938758 10.156598,8.872827 10.156492,8.833279" style="fill: white" /><polygon type="contour" points="10.253058,9.297909 10.297686,9.297973 10.297686,9.833729 10.290854,9.833737 10.253058,9.833792 10.192944,9.833873 10.156469,9.83387 10.156469,9.297834 10.161692,9.297834 10.192944,9.297831" style="fill: white" /><polygon type="contour" points="10.890187,9.516478 10.890456,9.527376 10.890693,9.540089 10.891098,9.548135 10.891305,9.566202 10.891098,9.584194 10.890693,9.592217 10.890455,9.604899 10.890186,9.615771 10.888554,9.835053 10.851456,9.835053 10.68676,9.834884 10.614909,9.834776 10.614909,9.296928 10.68676,9.29682 10.851456,9.296651 10.888554,9.296651" style="fill: white" /><polygon type="contour" points="10.888199,10.665951 10.888755,10.888757 10.856096,10.887834 10.61691,10.890933 10.616348,10.872558 10.616348,10.854918 10.616265,10.853288 10.615157,10.666608 10.614806,10.614807 10.888407,10.614807" style="fill: white" /><polygon type="contour" points="10.619852,10.156471 10.720542,10.156471 10.720506,10.192946 10.720447,10.224493 10.720392,10.253061 10.720348,10.291207 10.720349,10.297687 10.613995,10.297687 10.613995,10.290763 10.613991,10.25306 10.614107,10.192945 10.614169,10.156228" style="fill: white" /><polygon type="contour" points="10.29776,10.161745 10.297944,10.192946 10.297924,10.25306 10.297686,10.297687 10.290761,10.297687 10.253059,10.297924 10.192943,10.297946 10.156226,10.297762 10.156598,10.258438 10.156598,10.192946 10.156469,10.156471 10.161691,10.156471 10.192944,10.156599 10.258436,10.156599 10.29776,10.156228" style="fill: white" /><polygon type="contour" points="10.297686,10.613997 10.297686,10.720351 10.253058,10.720394 10.224491,10.720449 10.192944,10.720508 10.161389,10.720533 10.156469,10.720544 10.156226,10.714786 10.156226,10.61417 10.161743,10.61417 10.192944,10.614107 10.253058,10.613993" style="fill: white" /><polygon type="contour" points="9.834836,10.659819 9.835059,10.804942 9.835059,10.888443 9.638537,10.889902 9.615224,10.890189 9.604326,10.890458 9.591612,10.890695 9.577657,10.891331 9.5655,10.891303 9.539485,10.890695 9.526803,10.890457 9.515932,10.890189 9.492676,10.889901 9.296641,10.888443 9.296641,10.804941 9.29693,10.614982 9.834771,10.614982" style="fill: white" />
</svg>
