<svg width="19.131698" height="19.131699">
<polygon type="contour" points="0.799092,15.357473 0.954468,15.359477 3.156374,15.359477 3.358214,15.358414 3.555434,15.360255 3.766424,15.360561 3.766048,15.365652 3.77114,15.365276 3.771447,15.576269 3.773288,15.773486 3.772226,15.975328 3.772226,18.177234 3.77423,18.332608 3.775649,18.433922 3.356237,18.433922 3.257379,18.434063 3.190321,18.434092 3.190321,18.524648 3.190312,18.526522 3.190308,18.529292 3.181224,18.529292 2.979281,18.528818 0.814391,18.528818 0.612214,18.529286 0.612156,18.529295 0.602416,18.529285 0.602416,18.527041 0.602885,18.317312 0.602885,16.152421 0.60241,15.950477 0.60241,15.941393 0.605494,15.941387 0.607054,15.941381 0.697607,15.941381 0.697637,15.874322 0.697779,15.775464 0.697779,15.356054" style="fill: white" /><polygon type="contour" points="0.612215,0.602417 0.814391,0.602887 2.979281,0.602887 3.181224,0.602412 3.190307,0.602412 3.190313,0.605496 3.190321,0.607056 3.190321,0.697609 3.257379,0.697639 3.356237,0.697781 3.775649,0.697781 3.774229,0.799094 3.772226,0.95447 3.772226,3.156375 3.773288,3.358217 3.771447,3.555434 3.771133,3.771134 3.555433,3.771448 3.358215,3.77329 3.156374,3.772228 0.954468,3.772228 0.799092,3.774231 0.697694,3.783289 0.697694,3.252438 0.697563,3.190323 0.607054,3.190323 0.60518,3.190314 0.60241,3.19031 0.60241,3.181226 0.602885,2.979283 0.602885,0.814391 0.602416,0.604662 0.602416,0.602418 0.612157,0.602408" style="fill: white" /><polygon type="contour" points="18.529284,0.602418 18.529284,0.604661 18.528816,0.814392 18.528816,2.979283 18.52929,3.181226 18.52929,3.19031 18.526205,3.190316 18.524646,3.190323 18.434132,3.190323 18.434002,3.252438 18.434002,3.783289 18.332605,3.774231 18.177229,3.772228 15.975325,3.772228 15.773484,3.77329 15.576266,3.771448 15.365275,3.771141 15.365652,3.76605 15.360559,3.766426 15.360252,3.555435 15.358412,3.358216 15.359476,3.156376 15.359476,0.95447 15.357471,0.799093 15.349287,0.745351 15.348414,0.697696 15.879265,0.697696 15.941381,0.697652 15.941381,0.607056 15.941387,0.605496 15.941389,0.605429 15.941393,0.602412 15.950477,0.602412 16.15242,0.602887 18.317309,0.602887 18.519485,0.602417 18.519543,0.602408" style="fill: white" /><polygon type="contour" points="18.43392,15.775464 18.434064,15.874322 18.434092,15.941381 18.524646,15.941381 18.526206,15.941387 18.526272,15.941389 18.52929,15.941393 18.52929,15.950476 18.528816,16.152422 18.528816,18.317311 18.529284,18.527042 18.529284,18.529286 18.519544,18.529296 18.519486,18.529286 18.317309,18.528818 16.15242,18.528818 15.950477,18.529292 15.941393,18.529292 15.941387,18.526208 15.941381,18.524648 15.941381,18.434051 15.879264,18.434006 15.348414,18.434006 15.349287,18.386351 15.357471,18.332607 15.359476,18.177234 15.359476,15.975327 15.358412,15.773487 15.360252,15.576268 15.360559,15.365277 15.365651,15.365653 15.365274,15.360561 15.576266,15.360255 15.773483,15.358414 15.975325,15.359477 18.177229,15.359477 18.332606,15.357472 18.433918,15.356054" style="fill: white" />
</svg>
