<svg width="19.131698" height="19.131699">
<polygon type="contour" points="8.573531,8.321421 8.597363,8.321112 8.597874,8.337821 8.5979,8.34048 8.597938,8.361739 8.597938,8.387766 8.597175,8.597177 8.56883,8.597177 8.426024,8.597231 8.321094,8.597231 8.319516,8.547345 8.318853,8.531319 8.314515,8.488628 8.31408,8.314081" style="fill: white" /><polygon type="contour" points="8.9816,9.383006 9.099205,9.382281 9.123971,9.382281 9.123971,9.749422 9.099205,9.749422 8.981573,9.748696 8.8734,9.749656 8.846305,9.750904 8.846305,9.382094 8.8734,9.382047" style="fill: white" /><polygon type="contour" points="8.597692,9.381176 8.597692,9.751808 8.569872,9.750579 8.441165,9.749564 8.405544,9.749351 8.321852,9.749984 8.319789,9.709033 8.318143,9.565502 8.319789,9.422558 8.321852,9.38172 8.441165,9.38214 8.569873,9.381124" style="fill: white" /><polygon type="contour" points="8.59758,8.873692 8.598143,8.950248 8.598143,9.040069 8.597691,9.12778 8.569873,9.126487 8.488914,9.123974 8.488491,9.039202 8.488426,8.9714 8.488673,8.871896 8.488563,8.846306 8.59758,8.846306" style="fill: white" /><polygon type="contour" points="9.125261,8.846042 9.124523,8.93657 9.120187,9.026566 9.123862,9.026566 9.123862,9.039202 9.123971,9.123974 9.099205,9.123974 9.026563,9.123866 9.026559,9.120203 8.936569,9.124525 8.846041,9.125263 8.846037,9.04007 8.846037,8.93657 8.846305,8.846306 8.922899,8.846042 8.936569,8.846039 9.040067,8.846039" style="fill: white" /><polygon type="contour" points="9.02655,8.488776 9.02655,8.48848 9.100517,8.488898 9.123971,8.488915 9.125261,8.516792 9.125261,8.597807 9.098881,8.597807 9.026576,8.598144 8.936569,8.598144 8.846305,8.597581 8.846305,8.488564 8.936568,8.488428" style="fill: white" /><polygon type="contour" points="9.566199,8.318178 9.728124,8.321964 9.749999,8.321965 9.749999,8.344616 9.749229,8.382011 9.749562,8.441167 9.751806,8.597694 9.492722,8.597694 9.381174,8.597693 9.381122,8.569874 9.382138,8.441166 9.382471,8.382011 9.381701,8.344616 9.381701,8.321965 9.469625,8.317959" style="fill: white" /><polygon type="contour" points="9.749654,8.873403 9.748694,8.981575 9.74942,9.099209 9.74942,9.123974 9.382279,9.123974 9.382279,9.099209 9.383004,8.981575 9.382044,8.873402 9.382093,8.846306 9.750902,8.846306" style="fill: white" /><polygon type="contour" points="10.812509,8.501834 10.810606,8.597231 10.748937,8.597231 10.664123,8.597101 10.606391,8.597177 10.534526,8.597177 10.534526,8.568831 10.533763,8.361739 10.533801,8.359091 10.533801,8.34048 10.534337,8.321112 10.558169,8.321421 10.81762,8.314082" style="fill: white" /><polygon type="contour" points="10.259805,8.488674 10.285395,8.488564 10.285785,8.56935 10.285785,8.597694 10.258719,8.597694 10.181454,8.598144 10.092279,8.598144 10.007704,8.597807 10.007729,8.570321 10.007729,8.488915 10.0925,8.488493 10.160223,8.488428" style="fill: white" /><polygon type="contour" points="10.285395,8.846306 10.285395,8.873691 10.28566,8.950248 10.28566,9.039422 10.285659,9.123998 10.195132,9.123878 10.105138,9.123799 10.105138,9.123866 10.0925,9.123866 10.007729,9.123974 10.007729,9.099208 10.007881,8.996879 10.007823,8.93657 10.007704,8.846042 10.032819,8.846042 10.105124,8.846039 10.195132,8.846039" style="fill: white" /><polygon type="contour" points="10.643274,8.93657 10.642925,9.026552 10.643221,9.026552 10.6428,9.10052 10.642786,9.123974 10.614909,9.123998 10.533895,9.123998 10.533895,9.098883 10.533558,9.026577 10.533558,8.936571 10.534121,8.846306 10.643137,8.846306" style="fill: white" /><polygon type="contour" points="10.561828,9.381124 10.690535,9.382139 10.726156,9.382353 10.809849,9.38172 10.811912,9.42267 10.813558,9.566201 10.811911,9.709145 10.809849,9.749984 10.690535,9.749564 10.561828,9.750579 10.534009,9.751808 10.534009,9.379895" style="fill: white" /><polygon type="contour" points="10.812182,10.584359 10.812844,10.600384 10.817184,10.643076 10.81762,10.817622 10.558169,10.810284 10.534337,10.810593 10.533827,10.793883 10.5338,10.791223 10.533763,10.769965 10.533763,10.743938 10.534526,10.534528 10.562869,10.534528 10.705676,10.534473 10.810606,10.534473" style="fill: white" /><polygon type="contour" points="10.285395,10.534124 10.285395,10.64314 10.195132,10.643276 10.105151,10.642927 10.105151,10.643223 10.031182,10.642804 10.007729,10.642789 10.00644,10.614912 10.00644,10.533898 10.03282,10.533898 10.105124,10.533561 10.195131,10.533561" style="fill: white" /><polygon type="contour" points="10.561828,10.005217 10.642786,10.00773 10.643208,10.092502 10.643273,10.160383 10.643026,10.259808 10.643137,10.285398 10.534121,10.285398 10.534121,10.258012 10.533558,10.181456 10.533558,10.092281 10.534009,10.005204" style="fill: white" /><polygon type="contour" points="10.28566,10.092281 10.28566,10.195134 10.285395,10.285398 10.208802,10.285662 10.195131,10.285663 10.091632,10.285663 10.00644,10.285662 10.007177,10.195133 10.011505,10.10514 10.007837,10.10514 10.007837,10.092502 10.007729,10.00773 10.032495,10.00773 10.134823,10.007882 10.195132,10.007825 10.285659,10.007706" style="fill: white" /><polygon type="contour" points="10.285395,9.750904 10.258299,9.749656 10.150128,9.748696 10.032494,9.749422 10.007729,9.749422 10.007729,9.382281 10.032494,9.382281 10.150101,9.383006 10.258298,9.382048 10.285395,9.380799" style="fill: white" /><polygon type="contour" points="9.749082,9.749083 9.382617,9.749083 9.382617,9.38262 9.749082,9.38262" style="fill: white" /><polygon type="contour" points="9.74942,10.032496 9.748694,10.15013 9.749654,10.2583 9.749606,10.285398 9.380796,10.285398 9.382045,10.2583 9.383004,10.15013 9.382279,10.032496 9.382279,10.00773 9.74942,10.00773" style="fill: white" /><polygon type="contour" points="9.750526,10.534012 9.750577,10.60493 9.749561,10.690538 9.749228,10.749692 9.749999,10.787087 9.749999,10.809739 9.662075,10.813746 9.565501,10.813525 9.403574,10.809739 9.381701,10.809739 9.382471,10.749692 9.382138,10.690538 9.379893,10.534011 9.638976,10.534011" style="fill: white" /><polygon type="contour" points="9.123995,10.533898 9.123971,10.561381 9.123971,10.642789 9.0392,10.643211 8.971398,10.643275 8.871894,10.643029 8.846305,10.64314 8.846305,10.534124 8.87369,10.534124 8.950246,10.533561 9.03942,10.533561" style="fill: white" /><polygon type="contour" points="8.936568,10.007824 9.026564,10.00791 9.026564,10.007838 9.0392,10.007838 9.123971,10.00773 9.123971,10.032495 9.123817,10.134659 9.123875,10.195134 9.123995,10.285662 9.098881,10.285662 9.026575,10.285663 8.936568,10.285663 8.846305,10.285398 8.846305,10.258011 8.846037,10.181456 8.846037,10.09228 8.84604,10.007706" style="fill: white" /><polygon type="contour" points="8.597806,10.03282 8.598143,10.105126 8.598143,10.195133 8.597692,10.285787 8.569347,10.285787 8.488563,10.285398 8.488426,10.195134 8.488774,10.105153 8.488479,10.105153 8.488898,10.031184 8.488914,10.00773 8.516791,10.007706 8.597806,10.007706" style="fill: white" /><polygon type="contour" points="8.568831,10.534528 8.597175,10.534528 8.597175,10.562872 8.597938,10.769964 8.5979,10.772612 8.5979,10.791224 8.597364,10.810592 8.573531,10.810283 8.31408,10.817622 8.31919,10.62987 8.321094,10.534473 8.426023,10.534473" style="fill: white" />
</svg>
