<svg width="19.131698" height="19.131699">
<polygon type="contour" points="4.42085,4.309901 4.6354,4.309901 4.6354,4.223009 4.718701,4.223009 4.718701,4.309901 4.8671,4.309901 4.8671,4.210852 5.0771,4.210852 5.0771,4.309901 5.287801,4.309901 5.287801,4.223009 5.3704,4.223009 5.3704,4.309901 5.52335,4.309901 5.52335,4.210852 5.733351,4.210852 5.733351,4.309901 5.9395,4.309901 5.9395,4.223009 6.022799,4.223009 6.022799,4.309901 6.179599,4.309901 6.179599,4.210852 6.389601,4.210852 6.389601,4.309901 6.591201,4.309901 6.591201,4.223009 6.6745,4.223009 6.6745,4.309901 6.835849,4.309901 6.835849,4.210852 7.045851,4.210852 7.045851,4.309901 7.2429,4.309901 7.2429,4.223009 7.326199,4.223009 7.326199,4.309901 7.492099,4.309901 7.492099,4.210852 7.702101,4.210852 7.702101,4.309901 7.894599,4.309901 7.894599,4.223009 7.977898,4.223009 7.977898,4.309901 8.148349,4.309901 8.148349,4.210852 8.358351,4.210852 8.358351,4.309901 8.5463,4.309901 8.5463,4.223009 8.6296,4.223009 8.6296,4.309901 8.804599,4.309901 8.804599,4.210852 9.014602,4.210852 9.014602,4.309901 9.198699,4.309901 9.198699,4.223009 9.281299,4.223009 9.281299,4.309901 9.460849,4.309901 9.460849,4.210852 9.670852,4.210852 9.670852,4.309901 9.850398,4.309901 9.850398,4.223009 9.933,4.223009 9.933,4.309901 10.117099,4.309901 10.117099,4.210852 10.327102,4.210852 10.327102,4.309901 10.502101,4.309901 10.502101,4.223009 10.585401,4.223009 10.585401,4.309901 10.773349,4.309901 10.773349,4.210852 10.983352,4.210852 10.983352,4.309901 11.153802,4.309901 11.153802,4.223009 11.237102,4.223009 11.237102,4.309901 11.429599,4.309901 11.429599,4.210852 11.639602,4.210852 11.639602,4.309901 11.805501,4.309901 11.805501,4.223009 11.888801,4.223009 11.888801,4.309901 12.085849,4.309901 12.085849,4.210852 12.295852,4.210852 12.295852,4.309901 12.4572,4.309901 12.4572,4.246772 12.457201,4.240934 12.4572,4.236603 12.4572,4.223009 12.5405,4.223009 12.5405,4.309901 12.742099,4.309901 12.742099,4.210852 12.952102,4.210852 12.952102,4.309901 13.108901,4.309901 13.108901,4.246772 13.108902,4.240934 13.108901,4.236603 13.108901,4.223009 13.192201,4.223009 13.192201,4.309901 13.398349,4.309901 13.398349,4.210852 13.608352,4.210852 13.608352,4.309901 13.7613,4.309901 13.7613,4.223009 13.8439,4.223009 13.8439,4.309901 14.054599,4.309901 14.054599,4.210852 14.264602,4.210852 14.264602,4.309901 14.412999,4.309901 14.412999,4.223009 14.496299,4.223009 14.496299,4.309901 14.710849,4.309901 14.710849,4.210852 14.920852,4.210852 14.920852,4.420852 14.821799,4.420852 14.821799,4.635401 14.908692,4.635401 14.908692,4.718703 14.821799,4.718703 14.821799,4.867102 14.920852,4.867102 14.920852,5.077102 14.821799,5.077102 14.821799,5.287802 14.908692,5.287802 14.908692,5.370402 14.821799,5.370402 14.821799,5.523352 14.920852,5.523352 14.920852,5.733353 14.821799,5.733353 14.821799,5.939502 14.908692,5.939502 14.908692,6.022802 14.821799,6.022802 14.821799,6.179601 14.920852,6.179601 14.920852,6.389603 14.821799,6.389603 14.821799,6.591202 14.908692,6.591202 14.908692,6.674501 14.821799,6.674501 14.821799,6.835851 14.920852,6.835851 14.920852,7.045853 14.821799,7.045853 14.821799,7.242902 14.908692,7.242902 14.908692,7.326201 14.821799,7.326201 14.821799,7.492101 14.920852,7.492101 14.920852,7.702103 14.821799,7.702103 14.821799,7.894602 14.908692,7.894602 14.908692,7.977901 14.821799,7.977901 14.821799,8.14835 14.920852,8.14835 14.920852,8.358353 14.821799,8.358353 14.821799,8.546302 14.908692,8.546302 14.908692,8.629601 14.821799,8.629601 14.821799,8.804601 14.920852,8.804601 14.920852,9.014604 14.821799,9.014604 14.821799,9.198701 14.908692,9.198701 14.908692,9.281301 14.821799,9.281301 14.821799,9.460851 14.920852,9.460851 14.920852,9.670854 14.821799,9.670854 14.821799,9.850401 14.908692,9.850401 14.908692,9.933001 14.821799,9.933001 14.821799,10.117101 14.920852,10.117101 14.920852,10.327104 14.821799,10.327104 14.821799,10.502103 14.908692,10.502103 14.908692,10.585402 14.821799,10.585402 14.821799,10.773351 14.920852,10.773351 14.920852,10.983354 14.821799,10.983354 14.821799,11.153803 14.908692,11.153803 14.908692,11.237103 14.821799,11.237103 14.821799,11.429601 14.920852,11.429601 14.920852,11.639603 14.821799,11.639603 14.821799,11.805503 14.908692,11.805503 14.908692,11.888803 14.821799,11.888803 14.821799,12.085851 14.920852,12.085851 14.920852,12.295853 14.821799,12.295853 14.821799,12.457203 14.908692,12.457203 14.908692,12.540503 14.821799,12.540503 14.821799,12.742101 14.920852,12.742101 14.920852,12.952103 14.821799,12.952103 14.821799,13.108902 14.908692,13.108902 14.908692,13.192202 14.821799,13.192202 14.821799,13.398351 14.920852,13.398351 14.920852,13.608353 14.821799,13.608353 14.821799,13.761302 14.908692,13.761302 14.908692,13.843903 14.821799,13.843903 14.821799,14.054602 14.920852,14.054602 14.920852,14.264603 14.821799,14.264603 14.821799,14.413002 14.908692,14.413002 14.908692,14.496302 14.821799,14.496302 14.821799,14.710852 14.920852,14.710852 14.920852,14.920853 14.710849,14.920853 14.710849,14.821802 14.496299,14.821802 14.496299,14.908694 14.412999,14.908694 14.412999,14.821802 14.264602,14.821802 14.264602,14.920853 14.054599,14.920853 14.054599,14.821802 13.8439,14.821802 13.8439,14.908694 13.7613,14.908694 13.7613,14.821802 13.608352,14.821802 13.608352,14.920853 13.398349,14.920853 13.398349,14.821802 13.192201,14.821802 13.192201,14.908694 13.108901,14.908694 13.108901,14.821802 12.952102,14.821802 12.952102,14.920853 12.742099,14.920853 12.742099,14.821802 12.5405,14.821802 12.5405,14.908694 12.4572,14.908694 12.4572,14.821802 12.295852,14.821802 12.295852,14.920853 12.085849,14.920853 12.085849,14.821802 11.888801,14.821802 11.888801,14.908694 11.805501,14.908694 11.805501,14.821802 11.639602,14.821802 11.639602,14.920853 11.429599,14.920853 11.429599,14.821802 11.237102,14.821802 11.237102,14.908694 11.153802,14.908694 11.153802,14.821802 10.983352,14.821802 10.983352,14.920853 10.773349,14.920853 10.773349,14.821802 10.585401,14.821802 10.585401,14.908694 10.502101,14.908694 10.502101,14.821802 10.327102,14.821802 10.327102,14.920853 10.117099,14.920853 10.117099,14.821802 9.933,14.821802 9.933,14.908694 9.850398,14.908694 9.850398,14.821802 9.670852,14.821802 9.670852,14.920853 9.460849,14.920853 9.460849,14.821802 9.281299,14.821802 9.281299,14.908694 9.198699,14.908694 9.198699,14.821802 9.014602,14.821802 9.014602,14.920853 8.804599,14.920853 8.804599,14.821802 8.6296,14.821802 8.6296,14.908694 8.5463,14.908694 8.5463,14.821802 8.358351,14.821802 8.358351,14.920853 8.148349,14.920853 8.148349,14.821802 7.977898,14.821802 7.977898,14.908694 7.894599,14.908694 7.894599,14.821802 7.702101,14.821802 7.702101,14.920853 7.492099,14.920853 7.492099,14.821802 7.326199,14.821802 7.326199,14.908694 7.2429,14.908694 7.2429,14.821802 7.045851,14.821802 7.045851,14.920853 6.835849,14.920853 6.835849,14.821802 6.6745,14.821802 6.6745,14.908694 6.591201,14.908694 6.591201,14.821801 6.389601,14.821801 6.389601,14.920853 6.179599,14.920853 6.179599,14.821802 6.022799,14.821802 6.022799,14.908694 5.9395,14.908694 5.9395,14.821802 5.733351,14.821802 5.733351,14.920853 5.52335,14.920853 5.52335,14.821802 5.3704,14.821802 5.3704,14.908694 5.287801,14.908694 5.287801,14.821802 5.0771,14.821802 5.0771,14.920853 4.8671,14.920853 4.8671,14.821802 4.718701,14.821802 4.718701,14.908694 4.6354,14.908694 4.6354,14.821802 4.42085,14.821802 4.42085,14.920853 4.21085,14.920853 4.21085,14.710852 4.309899,14.710852 4.309899,14.496302 4.223007,14.496302 4.223007,14.413002 4.309899,14.413002 4.309899,14.264603 4.21085,14.264603 4.21085,14.054602 4.309899,14.054602 4.309899,13.843903 4.223007,13.843903 4.223007,13.761302 4.309899,13.761302 4.309899,13.608353 4.21085,13.608353 4.21085,13.398351 4.309899,13.398351 4.309899,13.192202 4.223007,13.192202 4.223007,13.108902 4.309899,13.108902 4.309899,12.952103 4.21085,12.952103 4.21085,12.742101 4.309899,12.742101 4.309899,12.540503 4.223007,12.540503 4.223007,12.457203 4.309899,12.457203 4.309899,12.295853 4.21085,12.295853 4.21085,12.085851 4.309899,12.085851 4.309899,11.888803 4.223007,11.888803 4.223007,11.805503 4.309899,11.805503 4.309899,11.639603 4.21085,11.639603 4.21085,11.429601 4.309899,11.429601 4.309899,11.237103 4.223007,11.237103 4.223007,11.153803 4.309899,11.153803 4.309899,10.983354 4.21085,10.983354 4.21085,10.962954 4.210851,10.773351 4.309899,10.773351 4.309899,10.585402 4.223007,10.585402 4.223007,10.502103 4.309899,10.502103 4.309899,10.327104 4.21085,10.327104 4.21085,10.117101 4.309899,10.117101 4.309898,9.933001 4.223007,9.933001 4.223007,9.850401 4.309899,9.850401 4.309899,9.670854 4.21085,9.670854 4.21085,9.460851 4.309899,9.460851 4.309899,9.350161 4.309898,9.281301 4.223007,9.281301 4.223007,9.198701 4.309899,9.198701 4.309899,9.014604 4.21085,9.014604 4.21085,8.804601 4.309899,8.804601 4.309899,8.629601 4.223007,8.629601 4.223007,8.546302 4.309899,8.546302 4.309899,8.358353 4.21085,8.358353 4.21085,8.14835 4.309899,8.14835 4.309899,7.977901 4.223007,7.977901 4.223007,7.894602 4.309899,7.894602 4.309899,7.702103 4.21085,7.702103 4.21085,7.492101 4.309899,7.492101 4.309899,7.326201 4.223007,7.326201 4.223007,7.242902 4.309899,7.242902 4.309899,7.045853 4.21085,7.045853 4.21085,6.835851 4.309899,6.835851 4.309899,6.674501 4.223007,6.674501 4.223007,6.591202 4.309899,6.591202 4.309899,6.389603 4.21085,6.389603 4.21085,6.179601 4.309899,6.179601 4.309899,6.022802 4.223007,6.022802 4.223007,5.939502 4.309899,5.939502 4.309899,5.733353 4.21085,5.733353 4.21085,5.523352 4.309899,5.523352 4.309899,5.370402 4.223007,5.370402 4.223007,5.287802 4.309899,5.287802 4.309899,5.077102 4.21085,5.077102 4.21085,4.867102 4.309899,4.867102 4.309899,4.718703 4.223007,4.718703 4.223007,4.635401 4.309899,4.635401 4.309899,4.420852 4.21085,4.420852 4.21085,4.210852 4.42085,4.210852" style="fill: white" /><polygon type="hole" points="6.97091,6.845362 6.947849,6.845362 6.846947,6.847052 6.84536,6.932905 6.84536,6.942302 6.845367,6.952246 6.845546,6.971067 6.845233,6.982625 6.84536,6.986713 6.84536,7.574285 6.845787,7.625104 6.845787,7.850157 6.846161,7.886096 6.846213,7.924036 6.846213,8.147807 6.84664,8.198627 6.84664,8.714187 6.84695,8.741595 6.847067,8.785931 6.847067,9.254458 6.847495,9.305277 6.847495,9.529902 6.847738,9.542555 6.847938,9.566201 6.848075,9.585377 6.847738,9.589454 6.847495,9.602074 6.847495,9.826699 6.847067,9.877518 6.847067,10.345773 6.84695,10.390108 6.84664,10.417516 6.84664,10.641289 6.846213,10.692108 6.846213,11.207667 6.846161,11.245607 6.845787,11.281545 6.845787,11.506599 6.84536,11.557418 6.84536,12.144989 6.845233,12.149078 6.845545,12.160636 6.845368,12.179103 6.847079,12.284917 6.940504,12.286118 6.952243,12.286334 6.971064,12.286156 6.982621,12.286469 6.986711,12.286341 7.574283,12.286341 7.625102,12.285915 7.850154,12.285915 7.886096,12.28554 7.924035,12.285488 8.439594,12.285488 8.490413,12.285061 8.714184,12.285061 8.741594,12.284752 8.785927,12.284633 9.254455,12.284633 9.305274,12.284206 9.529901,12.284206 9.542552,12.283964 9.566199,12.283761 9.585374,12.283626 9.58945,12.283963 9.602071,12.284206 9.826697,12.284206 9.877517,12.284633 10.345772,12.284633 10.390106,12.284751 10.417514,12.285061 10.641286,12.285061 10.692106,12.285488 11.207664,12.285488 11.245603,12.28554 11.281544,12.285915 11.506597,12.285915 11.557416,12.286341 12.144987,12.286341 12.149078,12.286468 12.160635,12.286156 12.179101,12.286334 12.217586,12.285488 12.284362,12.284636 12.286116,12.191195 12.286332,12.179103 12.286154,12.160636 12.286467,12.149078 12.28634,12.144989 12.28634,11.524936 12.285913,11.474117 12.285913,11.249064 12.285487,11.175186 12.285487,10.46501 12.28506,10.414191 12.28506,10.190419 12.284632,10.118674 12.284632,9.893622 12.284205,9.842803 12.284205,9.602074 12.283961,9.589453 12.28376,9.566201 12.283625,9.546702 12.283962,9.542555 12.284205,9.529902 12.284205,9.305277 12.284632,9.254458 12.284632,9.029404 12.28506,8.957662 12.28506,8.733889 12.285487,8.68307 12.285487,8.459298 12.285913,8.38542 12.285913,7.657586 12.28634,7.606767 12.28634,6.986713 12.286468,6.982624 12.286154,6.971067 12.286332,6.952247 12.284821,6.84688 12.191194,6.845585 12.179102,6.845369 12.160635,6.845548 12.149077,6.845235 12.144987,6.845362 11.524935,6.845362 11.474116,6.845789 11.249062,6.845789 11.175183,6.846216 10.465008,6.846216 10.414189,6.846643 10.190418,6.846643 10.118673,6.847069 9.89362,6.847069 9.842802,6.847498 9.602071,6.847498 9.58945,6.84774 9.566198,6.847941 9.546699,6.848077 9.542552,6.84774 9.529901,6.847498 9.305273,6.847498 9.254456,6.847069 9.013024,6.847069 8.941282,6.846643 8.71751,6.846643 8.666691,6.846216 7.956516,6.846216 7.882637,6.845789 7.657584,6.845789 7.606764,6.845362 6.98671,6.845362 6.97797,6.84509" style="fill: black" />
</svg>
