<svg width="19.131698" height="19.131699">
<polygon type="contour" points="8.080606,7.895143 8.169772,7.894426 8.170958,7.927145 8.170958,7.958514 8.170909,7.960424 8.171363,8.00659 8.171302,8.063624 8.171302,8.171303 8.009882,8.171465 7.896487,8.171465 7.894394,8.13549 7.888444,7.888447" style="fill: white" /><polygon type="contour" points="11.235153,9.05806 11.235258,9.230132 10.959969,9.230132 10.960109,9.059499 10.960464,8.937037 11.003779,8.937162 11.168789,8.936973 11.235062,8.936973" style="fill: white" /><polygon type="contour" points="10.194784,9.05806 10.194601,9.229993 10.072202,9.229993 9.901636,9.230065 9.901636,9.144734 9.90157,9.061117 9.90157,8.937235 10.020407,8.937301 10.194729,8.936973" style="fill: white" /><polygon type="contour" points="9.230219,11.005824 9.230064,11.067827 9.230002,11.186267 9.230104,11.211961 9.229902,11.21384 9.229487,11.23644 9.000478,11.236483 8.936906,11.235462 8.936906,11.19084 8.936897,10.991562 8.936897,10.960398 9.109561,10.960238 9.230219,10.959883" style="fill: white" /><polygon type="contour" points="9.451777,10.959337 9.482554,10.959591 9.4826,10.989558 9.4826,11.066517 9.451777,11.066606 9.383512,11.066795 9.383512,10.95921" style="fill: white" /><polygon type="contour" points="11.237307,10.996214 11.243256,11.243258 11.051094,11.236561 10.961928,11.237278 10.960743,11.204558 10.960743,11.172926 10.960791,11.171279 10.960334,11.125114 10.960397,11.068079 10.960397,10.960399 11.121818,10.960238 11.235213,10.960238" style="fill: white" /><polygon type="contour" points="11.066732,10.724814 11.066871,10.765733 11.004022,10.765681 10.959412,10.765681 10.959412,10.722223 10.959157,10.65989 10.989229,10.659695 11.066574,10.659695" style="fill: white" /><polygon type="contour" points="10.765731,10.959603 10.765731,11.066873 10.691962,11.066683 10.659693,11.066577 10.659888,11.033758 10.659888,10.959159 10.691962,10.959159" style="fill: white" /><polygon type="contour" points="10.490307,10.989232 10.490307,11.066577 10.430922,11.067042 10.395042,11.067016 10.394968,11.023194 10.394968,10.959495 10.433548,10.959495 10.490166,10.959159" style="fill: white" /><polygon type="contour" points="10.021936,10.960206 10.194817,10.960206 10.194841,11.083054 10.194794,11.19084 10.194794,11.235462 10.131221,11.236483 9.902212,11.23644 9.901594,11.211961 9.901594,11.188408 9.901696,11.186268 9.901635,11.067827 9.901481,11.005824 9.901481,10.959883" style="fill: white" /><polygon type="contour" points="9.748198,11.005013 9.748189,11.066795 9.679441,11.066606 9.648595,11.066517 9.648658,11.033827 9.648658,10.959591 9.679441,10.959337 9.748198,10.959073" style="fill: white" /><polygon type="contour" points="9.748357,10.394987 9.748357,10.434762 9.748282,10.490398 9.720712,10.490309 9.648595,10.491605 9.648537,10.463321 9.648537,10.394804 9.679441,10.394767" style="fill: white" /><polygon type="contour" points="9.748282,10.692744 9.748454,10.765587 9.707392,10.765733 9.648658,10.765695 9.648595,10.736256 9.648595,10.660311 9.679442,10.66037 9.748282,10.659783" style="fill: white" /><polygon type="contour" points="9.988039,10.659855 10.194235,10.659855 10.194077,10.722667 10.194177,10.765507 10.069781,10.765587 9.901256,10.765587 9.901256,10.720765 9.900988,10.659783" style="fill: white" /><polygon type="contour" points="10.017784,10.395044 10.193979,10.395044 10.193979,10.432918 10.194235,10.490222 9.988039,10.490222 9.900988,10.490398 9.900988,10.460494 9.901165,10.394987" style="fill: white" /><polygon type="contour" points="10.490307,10.421556 10.490307,10.490309 10.461947,10.490222 10.395019,10.490222 10.395019,10.461949 10.395042,10.395044 10.432916,10.395044 10.490221,10.395021" style="fill: white" /><polygon type="contour" points="10.490166,10.691964 10.490166,10.765588 10.461275,10.765588 10.394968,10.765902 10.394964,10.691964 10.395019,10.659855 10.421554,10.659695 10.490307,10.659695" style="fill: white" /><polygon type="contour" points="10.691963,10.65989 10.765586,10.65989 10.765586,10.691965 10.765731,10.765733 10.703034,10.765902 10.691962,10.765588 10.659888,10.765588 10.659693,10.736028 10.659693,10.659695" style="fill: white" /><polygon type="contour" points="10.7659,10.39497 10.7659,10.43355 10.765586,10.490167 10.736025,10.490309 10.659693,10.490309 10.659853,10.46195 10.659853,10.395021 10.691962,10.394966" style="fill: white" /><polygon type="contour" points="11.002523,10.395044 11.067014,10.395044 11.066568,10.46195 11.066574,10.490309 11.033756,10.490167 10.959157,10.490167 10.959157,10.461278 10.959494,10.39497" style="fill: white" /><polygon type="contour" points="11.116241,9.901638 11.235326,9.901638 11.235153,10.073645 11.235176,10.075086 11.235062,10.194731 11.168789,10.194731 11.003908,10.194727 10.960236,10.194851 10.959881,10.071392 10.959881,9.901482 11.005821,9.901482" style="fill: white" /><polygon type="contour" points="11.066604,9.679926 11.066793,9.748191 11.005012,9.748199 10.959071,9.748199 10.959411,9.707462 10.959589,9.649148 10.989556,9.649103 11.066514,9.649103" style="fill: white" /><polygon type="contour" points="11.066793,9.383514 11.066604,9.45226 11.066514,9.483108 11.033825,9.483044 10.959589,9.483044 10.959335,9.45226 10.959071,9.383505 11.005012,9.383505" style="fill: white" /><polygon type="contour" points="10.765673,9.383514 10.765821,9.424497 10.765694,9.483044 10.736256,9.483108 10.660309,9.483108 10.660369,9.45226 10.659782,9.383421 10.692741,9.383421" style="fill: white" /><polygon type="contour" points="10.490396,9.383421 10.490307,9.41099 10.491603,9.483108 10.463319,9.483166 10.394803,9.483166 10.394765,9.452261 10.394985,9.383346 10.43476,9.383346" style="fill: white" /><polygon type="contour" points="10.194107,9.383514 10.19403,9.423919 10.19418,9.483166 10.103124,9.483138 9.900934,9.483138 9.900934,9.452261 9.901166,9.383376 10.025047,9.383376" style="fill: white" /><polygon type="contour" points="10.194233,9.679925 10.194107,9.748191 10.06998,9.748191 9.901166,9.748328 9.901166,9.706344 9.900934,9.649048 9.987643,9.649031 10.19418,9.649031" style="fill: white" /><polygon type="contour" points="10.421226,9.649103 10.491603,9.649103 10.491631,9.679925 10.490396,9.748284 10.460491,9.748284 10.394985,9.748359 10.395042,9.708788 10.394803,9.649031" style="fill: white" /><polygon type="contour" points="10.692432,9.649148 10.765694,9.649148 10.765587,9.679925 10.765585,9.748456 10.703892,9.748359 10.692741,9.748284 10.659782,9.748284 10.659693,9.720714 10.660309,9.649103" style="fill: white" /><polygon type="contour" points="10.765762,9.901168 10.765911,10.022308 10.765731,10.194211 10.722665,10.194078 10.659853,10.194237 10.659782,10.102829 10.659782,9.90099 10.692741,9.90099" style="fill: white" /><polygon type="contour" points="10.490221,9.988041 10.490221,10.194237 10.461948,10.194237 10.395042,10.193981 10.394985,10.07241 10.394985,9.901166 10.43476,9.901166 10.490396,9.90099" style="fill: white" /><polygon type="contour" points="10.1944,10.020409 10.194729,10.194731 10.073642,10.194786 9.90157,10.194469 9.90157,10.070585 9.901635,9.901638 9.985961,9.901638 10.070583,9.901572 10.194466,9.901572" style="fill: white" /><polygon type="contour" points="9.748189,9.901213 9.748189,10.194108 9.707783,10.194031 9.648537,10.194182 9.648565,10.103126 9.648565,9.900936 9.679442,9.900936" style="fill: white" /><polygon type="contour" points="9.748446,9.679926 9.748189,9.748191 9.706122,9.748191 9.648565,9.748448 9.648595,9.720997 9.648595,9.649103 9.679441,9.649049 9.748446,9.649049" style="fill: white" /><polygon type="contour" points="9.748189,9.383513 9.748189,9.42558 9.748446,9.483138 9.720995,9.483108 9.648595,9.483108 9.648565,9.45226 9.648565,9.383255 9.679442,9.383255" style="fill: white" /><polygon type="contour" points="9.748189,8.937594 9.748189,9.061721 9.748326,9.230537 9.679441,9.230769 9.648565,9.230769 9.648537,9.144057 9.648537,8.937522 9.679442,8.937468" style="fill: white" /><polygon type="contour" points="9.482654,9.028577 9.482654,9.230769 9.451776,9.230769 9.383512,9.230492 9.383512,8.937594 9.423918,8.937671 9.482671,8.937522" style="fill: white" /><polygon type="contour" points="9.229991,8.9371 9.229991,9.059498 9.230064,9.230065 9.145739,9.230065 9.059497,9.229993 8.937099,9.229993 8.93716,9.112615 8.936971,8.936973 9.058058,8.936917" style="fill: white" /><polygon type="contour" points="9.229487,7.895264 9.230104,7.919742 9.230104,7.943099 9.230002,7.945231 9.230063,8.063674 9.230219,8.12588 9.230219,8.171527 9.109561,8.171465 8.93685,8.171465 8.936859,8.048649 8.936906,7.940863 8.936906,7.896242 9.000478,7.895221" style="fill: white" /><polygon type="contour" points="9.451777,8.065097 9.4826,8.065186 9.482554,8.097874 9.482554,8.172112 9.451777,8.17215 9.383512,8.172198 9.383512,8.064909" style="fill: white" /><polygon type="contour" points="9.482554,8.366008 9.4826,8.395446 9.4826,8.472406 9.451777,8.472299 9.383419,8.471921 9.383419,8.43896 9.383512,8.366029 9.424495,8.36588" style="fill: white" /><polygon type="contour" points="9.679442,8.366116 9.748454,8.366117 9.748454,8.410938 9.748282,8.471921 9.720713,8.47201 9.648595,8.472406 9.648658,8.440246 9.648658,8.366008" style="fill: white" /><polygon type="contour" points="9.748189,8.172198 9.707203,8.172146 9.648658,8.172112 9.648595,8.142146 9.648595,8.065186 9.679441,8.065097 9.748189,8.064909" style="fill: white" /><polygon type="contour" points="10.194794,7.896242 10.194794,7.940863 10.194803,8.140139 10.194803,8.171304 10.022138,8.171465 9.901481,8.171527 9.901481,8.12588 9.901636,8.063675 9.901696,7.94523 9.901594,7.919743 9.901797,7.917864 9.902212,7.895264 10.131221,7.895221" style="fill: white" /><polygon type="contour" points="10.461947,8.065133 10.490307,8.065126 10.490166,8.097944 10.490166,8.172544 10.461276,8.172544 10.394968,8.172208 10.395042,8.12918 10.395042,8.064688" style="fill: white" /><polygon type="contour" points="10.76568,8.127679 10.76568,8.172289 10.722221,8.172289 10.659888,8.172544 10.659693,8.142471 10.659693,8.065126 10.724813,8.064969 10.765731,8.064831" style="fill: white" /><polygon type="contour" points="11.235799,8.104391 11.235377,8.171303 10.960397,8.171303 10.960397,8.063624 10.960334,8.00659 10.960791,7.960423 10.960743,7.927146 10.961075,7.924894 10.961929,7.894426 11.051093,7.895143 11.243256,7.888447" style="fill: white" /><polygon type="contour" points="11.066682,8.439738 11.066574,8.47201 11.033755,8.471814 10.959157,8.471814 10.959157,8.439739 10.959601,8.365969 11.066871,8.365969" style="fill: white" /><polygon type="contour" points="11.06704,8.70078 11.067014,8.73666 11.023192,8.736734 10.959494,8.736734 10.959494,8.698155 10.959157,8.641538 10.989229,8.641395 11.066574,8.641395" style="fill: white" /><polygon type="contour" points="10.765731,8.937491 10.765585,9.061919 10.765762,9.230537 10.721117,9.230537 10.659782,9.230715 10.659853,9.143663 10.659853,8.937467 10.691962,8.937371" style="fill: white" /><polygon type="contour" points="10.490221,8.937467 10.490396,9.028874 10.490396,9.230715 10.460491,9.230715 10.394985,9.230537 10.395033,9.05847 10.395091,8.937396 10.432803,8.937396" style="fill: white" /><polygon type="contour" points="10.490221,8.669755 10.490221,8.736683 10.461947,8.736683 10.395042,8.73666 10.395042,8.698786 10.395019,8.641483 10.421553,8.641395 10.490307,8.641395" style="fill: white" /><polygon type="contour" points="10.691963,8.641538 10.765586,8.641538 10.765586,8.670426 10.7659,8.736733 10.691962,8.736738 10.659853,8.736683 10.659693,8.710146 10.659693,8.641395" style="fill: white" /><polygon type="contour" points="10.7659,8.428667 10.765586,8.439739 10.765586,8.471814 10.736025,8.47201 10.659693,8.47201 10.659888,8.439739 10.659888,8.366113 10.691962,8.366113 10.765731,8.365969" style="fill: white" /><polygon type="contour" points="10.490166,8.366112 10.490307,8.395673 10.490307,8.47201 10.461948,8.471849 10.395019,8.471849 10.394964,8.439739 10.394968,8.365801 10.433548,8.365801" style="fill: white" /><polygon type="contour" points="10.19421,8.365969 10.194077,8.409036 10.194235,8.471849 9.988039,8.471849 9.900988,8.471921 9.900988,8.43896 9.901166,8.36594 10.022307,8.36579" style="fill: white" /><polygon type="contour" points="9.988039,8.641483 10.194235,8.641483 10.193979,8.698786 10.193979,8.73666 10.017784,8.73666 9.901165,8.736716 9.901165,8.696942 9.900988,8.641307" style="fill: white" /><polygon type="contour" points="9.748282,8.641306 9.748282,8.67121 9.748357,8.736716 9.708786,8.73666 9.648537,8.7369 9.648595,8.710476 9.648595,8.641112 9.679442,8.641036" style="fill: white" /><polygon type="contour" points="9.482671,8.669368 9.482671,8.7369 9.451776,8.736936 9.383344,8.736716 9.383344,8.696942 9.383419,8.641307 9.410987,8.641395 9.4826,8.641112" style="fill: white" /><polygon type="contour" points="9.230713,8.671209 9.230535,8.736716 9.113914,8.73666 8.937721,8.73666 8.937721,8.698786 8.937465,8.641483 9.143661,8.641483 9.230713,8.641307" style="fill: white" /><polygon type="contour" points="9.061917,8.366117 9.230445,8.366117 9.230445,8.410938 9.230713,8.471921 9.143661,8.471849 8.937465,8.471849 8.937622,8.409037 8.937488,8.365969" style="fill: white" /><polygon type="contour" points="8.471848,8.669755 8.471848,8.736683 8.439737,8.736738 8.365799,8.736733 8.365799,8.698155 8.366111,8.641538 8.395672,8.641395 8.472008,8.641395" style="fill: white" /><polygon type="contour" points="8.669752,8.641483 8.736681,8.641483 8.736681,8.669755 8.736658,8.73666 8.698783,8.73666 8.64148,8.736683 8.641393,8.710147 8.641393,8.641395" style="fill: white" /><polygon type="contour" points="8.736736,8.439739 8.736681,8.471849 8.710146,8.47201 8.641393,8.47201 8.641535,8.439739 8.641535,8.366113 8.670424,8.366113 8.736731,8.365801" style="fill: white" /><polygon type="contour" points="8.736658,8.064688 8.736732,8.108508 8.736732,8.172208 8.698151,8.172208 8.641535,8.172544 8.641393,8.142472 8.641393,8.065126 8.700777,8.064662" style="fill: white" /><polygon type="contour" points="8.439736,8.065018 8.472008,8.065126 8.471812,8.097944 8.471812,8.172544 8.439737,8.172544 8.365968,8.1721 8.365968,8.06483" style="fill: white" /><polygon type="contour" points="8.439737,8.366113 8.471812,8.366113 8.472008,8.395673 8.472008,8.47201 8.439736,8.471814 8.366111,8.471814 8.366111,8.439739 8.365968,8.365969 8.428666,8.365801" style="fill: white" /><polygon type="contour" points="8.172099,8.409778 8.172542,8.471814 8.14247,8.47201 8.065126,8.47201 8.064967,8.406888 8.064829,8.365969 8.172099,8.365969" style="fill: white" /><polygon type="contour" points="8.097942,8.641538 8.172542,8.641538 8.172542,8.670426 8.172206,8.736734 8.129178,8.73666 8.064686,8.73666 8.065132,8.669755 8.065126,8.641395" style="fill: white" /><polygon type="contour" points="8.171525,9.060311 8.171435,9.230132 8.125607,9.230132 8.015458,9.230065 7.896374,9.230065 7.896548,9.05806 7.896524,9.056615 7.896637,8.936973 7.962911,8.936973 8.127792,8.936977 8.171463,8.936853" style="fill: white" /><polygon type="contour" points="8.471919,9.028874 8.471919,9.230715 8.438959,9.230715 8.366116,9.230447 8.365968,9.108817 8.365968,8.937491 8.409034,8.937624 8.471847,8.937467" style="fill: white" /><polygon type="contour" points="8.736665,9.05847 8.736714,9.230537 8.69694,9.230537 8.641305,9.230715 8.64148,9.143663 8.64148,8.937467 8.669753,8.937467 8.736609,8.937396" style="fill: white" /><polygon type="contour" points="9.028577,9.649049 9.230767,9.649049 9.230767,9.679926 9.23049,9.748191 8.937592,9.748191 8.937668,9.707785 8.93752,9.649031" style="fill: white" /><polygon type="contour" points="9.230767,9.45226 9.230767,9.483138 9.144055,9.483166 8.93752,9.483166 8.937467,9.45226 8.937592,9.383514 9.23049,9.383514" style="fill: white" /><polygon type="contour" points="9.4826,9.410705 9.4826,9.483108 9.451777,9.483138 9.383254,9.483138 9.383254,9.45226 9.383512,9.383514 9.451777,9.383255 9.482654,9.383255" style="fill: white" /><polygon type="contour" points="9.410704,9.649103 9.4826,9.649103 9.482654,9.679925 9.482654,9.748448 9.451776,9.748448 9.383512,9.748191 9.383512,9.706124 9.383254,9.649049" style="fill: white" /><polygon type="contour" points="9.230064,9.901638 9.230064,9.98697 9.23013,10.070586 9.23013,10.194469 9.111291,10.194403 8.936971,10.194731 8.936916,10.073645 8.937234,9.901572 9.061117,9.901572" style="fill: white" /><polygon type="contour" points="9.482671,9.987645 9.482671,10.194182 9.451777,10.194236 9.383512,10.194108 9.383512,9.901213 9.451776,9.900936 9.482654,9.900936" style="fill: white" /><polygon type="contour" points="9.230535,10.434762 9.230713,10.490398 9.143661,10.490222 8.937465,10.490222 8.937721,10.432918 8.937721,10.395044 9.113914,10.395044 9.230535,10.394987" style="fill: white" /><polygon type="contour" points="9.4826,10.421227 9.4826,10.491605 9.451777,10.491633 9.383419,10.490398 9.383419,10.460493 9.383344,10.394987 9.422914,10.395044 9.482671,10.394804" style="fill: white" /><polygon type="contour" points="9.4826,10.660311 9.482554,10.692434 9.482554,10.765695 9.451776,10.765588 9.383247,10.765587 9.383247,10.720765 9.383419,10.659783 9.410987,10.659695" style="fill: white" /><polygon type="contour" points="9.230713,10.692743 9.230535,10.765763 9.109392,10.765913 8.937488,10.765733 8.937622,10.722666 8.937465,10.659855 9.143661,10.659855 9.230713,10.659783" style="fill: white" /><polygon type="contour" points="8.097942,10.65989 8.172542,10.65989 8.172542,10.691964 8.172099,10.765733 8.064829,10.765733 8.065018,10.691964 8.065126,10.659695" style="fill: white" /><polygon type="contour" points="8.172206,10.43355 8.172542,10.490167 8.142471,10.490309 8.065126,10.490309 8.06466,10.430922 8.064686,10.395044 8.108507,10.39497 8.172206,10.39497" style="fill: white" /><polygon type="contour" points="8.171525,10.071393 8.171464,10.194851 8.127792,10.194727 7.962911,10.194731 7.896638,10.194731 7.896547,10.073644 7.896441,9.901572 8.171434,9.901572" style="fill: white" /><polygon type="contour" points="8.471332,9.679926 8.471919,9.748284 8.438958,9.748284 8.366116,9.748456 8.365967,9.707393 8.366005,9.649148 8.395443,9.649103 8.471392,9.649103" style="fill: white" /><polygon type="contour" points="8.097874,9.649148 8.172111,9.649148 8.172149,9.679925 8.172197,9.748191 8.064907,9.748191 8.065096,9.679926 8.065186,9.649103" style="fill: white" /><polygon type="contour" points="8.172149,9.45226 8.172111,9.483044 8.142143,9.483108 8.065186,9.483108 8.065095,9.45226 8.064907,9.383514 8.126688,9.383505 8.172336,9.383505" style="fill: white" /><polygon type="contour" points="8.427808,9.383346 8.438958,9.383421 8.471919,9.383421 8.472008,9.41099 8.471392,9.483108 8.439266,9.483044 8.366005,9.483044 8.366113,9.45226 8.366116,9.383248" style="fill: white" /><polygon type="contour" points="8.736658,9.422916 8.736897,9.483166 8.710473,9.483108 8.640097,9.483108 8.64007,9.45226 8.641305,9.383421 8.671208,9.383421 8.736714,9.383346" style="fill: white" /><polygon type="contour" points="8.736933,9.679925 8.736714,9.748359 8.69694,9.748359 8.641305,9.748284 8.641393,9.720714 8.640097,9.649103 8.66838,9.649031 8.736897,9.649031" style="fill: white" /><polygon type="contour" points="8.736714,9.901166 8.736665,10.073234 8.736609,10.194308 8.698897,10.194308 8.64148,10.194237 8.641305,10.102829 8.641305,9.90099 8.671208,9.90099" style="fill: white" /><polygon type="contour" points="8.471848,9.988041 8.471848,10.194237 8.439737,10.194333 8.365968,10.194211 8.366116,10.069782 8.366116,9.901258 8.410936,9.901258 8.471919,9.90099" style="fill: white" /><polygon type="contour" points="8.736658,10.395044 8.736658,10.432918 8.736681,10.490222 8.710146,10.490309 8.641393,10.490309 8.64148,10.461949 8.64148,10.395021 8.669753,10.395021" style="fill: white" /><polygon type="contour" points="8.471848,10.395021 8.472008,10.421557 8.472008,10.490309 8.439737,10.490167 8.366111,10.490167 8.366111,10.461278 8.365799,10.39497 8.439737,10.394966" style="fill: white" /><polygon type="contour" points="8.471812,10.691965 8.471812,10.765588 8.439736,10.765588 8.365968,10.765733 8.365799,10.703036 8.366111,10.691964 8.366111,10.65989 8.395672,10.659695 8.472008,10.659695" style="fill: white" /><polygon type="contour" points="8.669753,10.659855 8.736681,10.659855 8.736736,10.691964 8.736732,10.765902 8.698151,10.765902 8.641535,10.765588 8.641393,10.736028 8.641393,10.659695" style="fill: white" /><polygon type="contour" points="8.736732,10.959495 8.736658,11.002524 8.736658,11.067016 8.669753,11.06657 8.641393,11.066577 8.641535,11.033759 8.641535,10.959159 8.670424,10.959159" style="fill: white" /><polygon type="contour" points="8.472008,10.989231 8.472008,11.066577 8.406887,11.066733 8.365968,11.066873 8.36602,11.004024 8.36602,10.959414 8.409478,10.959414 8.471812,10.959159" style="fill: white" /><polygon type="contour" points="8.171302,11.068079 8.171364,11.125114 8.170909,11.171279 8.170958,11.204557 8.170625,11.206809 8.169772,11.237278 8.080607,11.236561 7.888444,11.243258 7.8959,11.027311 7.896324,10.960399 8.171302,10.960399" style="fill: white" />
</svg>
