<svg width="19.131698" height="19.131699">
<polygon type="contour" points="14.916925,12.338468 14.916777,12.370113 14.916201,12.518899 14.977334,12.519302 14.991197,12.519249 15.063464,12.519144 15.107109,12.519208 15.107109,12.831243 15.107059,12.85236 15.073923,12.852242 15.063464,12.852344 14.917151,12.852169 14.916464,12.938627 14.91646,12.948703 14.627802,12.948703 14.628079,12.902035 14.627801,12.874855 14.627801,12.631614 14.628043,12.421371 14.627931,12.421371 14.627931,12.354095 14.627898,12.338805 14.707802,12.338425 14.721631,12.338285 14.735058,12.338365 14.754481,12.338365 14.774068,12.338282 14.787576,12.338268" style="fill: white" /><polygon type="contour" points="14.916486,11.813104 14.915934,11.813104 14.916596,11.869902 14.916596,11.953201 14.916478,11.963757 14.916484,12.000007 14.916485,12.010703 14.847514,12.010364 14.794416,12.010703 14.627802,12.010703 14.628079,11.963757 14.628079,11.85977 14.627802,11.825854 14.627802,11.813103 14.707801,11.813102 14.847513,11.813102 14.900976,11.813103 14.916391,11.813027" style="fill: white" /><polygon type="contour" points="14.916427,11.449919 14.916427,11.484203 14.627802,11.484203 14.627802,11.400901 14.916635,11.400901" style="fill: white" /><polygon type="contour" points="14.847514,10.874741 14.900975,10.874401 14.916459,10.874401 14.916507,10.920428 14.916509,10.929803 14.916607,10.938873 14.916644,10.967933 14.91638,10.99239 14.916509,11.013103 14.916508,11.024605 14.91646,11.072003 14.627802,11.072003 14.627802,10.874401 14.794417,10.874401" style="fill: white" /><polygon type="contour" points="14.916635,10.499758 14.916419,10.545501 14.627802,10.545501 14.627802,10.462901 14.916635,10.462901" style="fill: white" /><polygon type="contour" points="14.91645,9.936401 14.91646,9.936401 14.916478,9.983068 14.916596,9.993201 14.916734,10.013683 14.916734,10.076502 14.916482,10.076502 14.91646,10.134003 14.847514,10.133663 14.794417,10.134002 14.707801,10.134002 14.640553,10.134003 14.627802,10.134003 14.628079,10.087057 14.628079,9.983068 14.627802,9.949152 14.627802,9.936401 14.707802,9.936402 14.794417,9.936402 14.847513,9.936401 14.900976,9.936401 14.916441,9.936322" style="fill: white" /><polygon type="contour" points="14.916635,9.56137 14.916419,9.607501 14.627802,9.607501 14.627802,9.524201 14.916635,9.524201" style="fill: white" /><polygon type="contour" points="14.847513,8.99804 14.900976,8.997702 14.916459,8.997702 14.916461,9.000658 14.916469,9.000658 14.916469,9.021174 14.916478,9.044645 14.916596,9.055201 14.916596,9.138502 14.916478,9.148634 14.91646,9.195301 14.847513,9.195301 14.794417,9.195302 14.707801,9.195302 14.640553,9.195301 14.627802,9.195301 14.628079,9.148635 14.628079,9.044645 14.627802,8.997702 14.794417,8.997702" style="fill: white" /><polygon type="contour" points="14.916563,8.634953 14.916563,8.668801 14.627802,8.668801 14.627802,8.586201 14.916635,8.586201" style="fill: white" /><polygon type="contour" points="14.866938,8.136609 14.916508,8.114302 14.916509,8.118601 14.916381,8.139313 14.916509,8.176553 14.916509,8.2019 14.916507,8.211275 14.916459,8.257303 14.847513,8.256963 14.794417,8.257303 14.627802,8.257303 14.627802,8.059701 14.86655,8.059701" style="fill: white" /><polygon type="contour" points="14.916832,7.698365 14.916832,7.7308 14.627802,7.7308 14.627802,7.647501 14.916635,7.647501" style="fill: white" /><polygon type="contour" points="14.847514,7.12134 14.916485,7.121001 14.916478,7.167946 14.916596,7.178501 14.916596,7.261801 14.916478,7.271934 14.91646,7.3186 14.627802,7.3186 14.628079,7.271934 14.628079,7.167946 14.627802,7.121001 14.794416,7.121001" style="fill: white" /><polygon type="contour" points="14.917069,6.27946 14.982526,6.279273 15.063464,6.279357 15.107059,6.279344 15.107109,6.30046 15.107109,6.612493 15.068565,6.612564 15.063465,6.612558 14.977334,6.6124 14.916129,6.612427 14.916697,6.735046 14.916925,6.793236 14.855149,6.793199 14.771414,6.793053 14.754481,6.793339 14.735058,6.793339 14.721631,6.79342 14.707801,6.793279 14.644091,6.792897 14.627898,6.792897 14.627898,6.721067 14.62821,6.61271 14.627931,6.61271 14.627801,6.500087 14.627801,6.256847 14.628079,6.229668 14.627802,6.195753 14.627802,6.183001 14.707802,6.183002 14.794417,6.183002 14.847513,6.183001 14.91646,6.183001" style="fill: white" /><polygon type="contour" points="14.916635,5.854101 14.627802,5.854101 14.627802,5.770801 14.916635,5.770801" style="fill: white" /><polygon type="contour" points="14.916602,5.291293 14.916813,5.301801 14.916813,5.326807 14.916595,5.385102 14.916478,5.395234 14.916464,5.431825 14.91646,5.441901 14.627802,5.441901 14.628079,5.395235 14.627801,5.3619 14.627801,5.291293 14.627802,5.257052 14.627802,5.244378 14.707801,5.244778 14.794416,5.244778 14.847513,5.24464 14.900976,5.244378 14.91646,5.244378" style="fill: white" /><polygon type="contour" points="14.916635,4.916102 14.627802,4.916102 14.627802,4.832801 14.916635,4.832801" style="fill: white" /><polygon type="contour" points="14.789136,4.024486 14.794177,4.024486 15.106888,4.024813 15.106888,4.101881 15.10683,4.127698 15.107059,4.357843 15.073923,4.357717 15.063464,4.357858 14.916319,4.357659 14.916319,4.41007 14.91632,4.4239 14.916464,4.493825 14.91646,4.503901 14.627801,4.503901 14.6278,4.4239 14.6278,4.337286 14.627801,4.26071 14.627802,4.230724 14.627802,4.215241 14.707801,4.214906 14.721631,4.214765 14.774067,4.215038 14.774067,4.107545 14.774027,4.024473" style="fill: white" /><polygon type="contour" points="12.852359,4.024643 12.852241,4.057778 12.852343,4.068237 12.85217,4.214549 12.938626,4.215237 12.948701,4.215241 12.948701,4.26071 12.948702,4.337286 12.948702,4.503901 12.902035,4.503623 12.874855,4.503901 12.631613,4.503901 12.421369,4.503658 12.421369,4.503771 12.354094,4.503771 12.338803,4.503805 12.338423,4.423902 12.338282,4.41007 12.338282,4.400214 12.338464,4.389471 12.338343,4.357697 12.338502,4.276551 12.338465,4.214776 12.370111,4.214922 12.518897,4.215502 12.5193,4.154367 12.519248,4.140503 12.519142,4.068237 12.519207,4.024593 12.831242,4.024593" style="fill: white" /><polygon type="contour" points="11.003179,4.215321 11.013101,4.215193 11.024604,4.215193 11.072001,4.215241 11.072001,4.26071 11.072,4.337286 11.072,4.423901 11.072001,4.491148 11.072001,4.503901 10.874399,4.503901 10.874399,4.337285 10.874623,4.260711 10.874399,4.230723 10.874399,4.215241 10.920427,4.215193 10.9298,4.215193 10.940592,4.21532 10.953333,4.214738 10.991465,4.214738" style="fill: white" /><polygon type="contour" points="9.607499,6.419946 9.605848,6.420087 9.566199,6.420087 9.561533,6.419946 9.524199,6.419946 9.524199,6.183001 9.607499,6.183001" style="fill: white" /><polygon type="contour" points="4.357671,4.215038 4.410067,4.214765 4.423898,4.214906 4.493824,4.215237 4.503898,4.215241 4.503899,4.26071 4.503899,4.423901 4.503898,4.491148 4.503898,4.503901 4.215239,4.503901 4.21538,4.4239 4.215381,4.41007 4.215381,4.357695 4.13249,4.357871 4.068235,4.357858 4.024641,4.357842 4.024868,4.127698 4.024811,4.10188 4.024811,4.024813 4.33752,4.024486 4.342561,4.024486 4.357671,4.024473" style="fill: white" /><polygon type="contour" points="6.612562,4.063136 6.612555,4.068237 6.612398,4.154367 6.612425,4.215572 6.735043,4.215004 6.793234,4.214776 6.793197,4.276551 6.79305,4.360287 6.793418,4.400214 6.793418,4.41007 6.793277,4.423901 6.792895,4.487612 6.792895,4.503805 6.721064,4.503805 6.612708,4.503482 6.612708,4.50377 6.500086,4.503901 6.256845,4.503901 6.229666,4.503623 6.195749,4.503901 6.182998,4.503901 6.182999,4.4239 6.182999,4.337286 6.182998,4.26071 6.182998,4.215241 6.279458,4.214631 6.279271,4.149176 6.279355,4.068237 6.279341,4.024643 6.300457,4.024593 6.61249,4.024593" style="fill: white" /><polygon type="contour" points="7.167943,4.832801 7.318599,4.832801 7.318599,4.916102 7.133828,4.916102 7.121,4.916331 7.121,4.832572" style="fill: white" /><polygon type="contour" points="7.271932,4.215224 7.318599,4.215241 7.318599,4.503901 7.271933,4.503623 7.167943,4.503623 7.133828,4.503901 7.121,4.503901 7.121001,4.4239 7.121001,4.337286 7.121223,4.26071 7.121,4.215215 7.167943,4.215224 7.178499,4.215106 7.2618,4.215106" style="fill: white" /><polygon type="contour" points="8.139311,4.215321 8.176551,4.215193 8.211272,4.215193 8.257301,4.215241 8.257077,4.260711 8.257301,4.337285 8.257301,4.503901 8.0597,4.503901 8.0597,4.230723 8.05962,4.215197 8.05983,4.215193 8.118599,4.215193" style="fill: white" /><polygon type="contour" points="7.730799,4.503901 7.6475,4.503901 7.6475,4.215067 7.730799,4.215067" style="fill: white" /><polygon type="contour" points="7.730799,4.916102 7.6475,4.916102 7.6475,4.832801 7.730799,4.832801" style="fill: white" /><polygon type="contour" points="7.730799,6.416516 7.6475,6.416516 7.6475,6.183001 7.730799,6.183001" style="fill: white" /><polygon type="contour" points="8.668799,5.854101 8.5862,5.854101 8.5862,5.770801 8.668799,5.770801" style="fill: white" /><polygon type="contour" points="8.668799,5.441901 8.5862,5.441901 8.5862,5.244378 8.668799,5.244378" style="fill: white" /><polygon type="contour" points="8.257301,5.244378 8.2573,5.291294 8.2573,5.3619 8.257022,5.395235 8.257301,5.429149 8.257301,5.441901 8.0597,5.441901 8.0597,5.244378 8.107096,5.244302 8.211272,5.244302" style="fill: white" /><polygon type="contour" points="8.257301,4.916102 8.0597,4.916102 8.0597,4.832801 8.257301,4.832801" style="fill: white" /><polygon type="contour" points="8.668799,4.916102 8.5862,4.916102 8.5862,4.832801 8.668799,4.832801" style="fill: white" /><polygon type="contour" points="8.668799,4.503901 8.5862,4.503901 8.5862,4.215067 8.631943,4.215067 8.634952,4.214725 8.668799,4.214725" style="fill: white" /><polygon type="contour" points="9.148631,4.215224 9.170592,4.215232 9.194811,4.215232 9.194811,4.21524 9.195299,4.215241 9.195299,4.26071 9.1953,4.337286 9.1953,4.423901 9.195299,4.491148 9.195299,4.503901 9.148632,4.503623 9.044644,4.503623 8.9977,4.503901 8.9977,4.337286 8.997923,4.26071 8.9977,4.230724 8.9977,4.215241 8.997894,4.21524 8.997894,4.215232 9.022552,4.215232 9.044644,4.215223 9.055199,4.215106 9.138499,4.215106" style="fill: white" /><polygon type="contour" points="9.561367,4.215067 9.607499,4.215067 9.607499,4.503901 9.524199,4.503901 9.524199,4.214725 9.558332,4.214725" style="fill: white" /><polygon type="contour" points="10.034201,4.265132 10.133789,4.265132 10.134001,4.337285 10.134001,4.503901 10.087056,4.503623 9.983065,4.503623 9.936399,4.503901 9.9364,4.4239 9.9364,4.26071 9.936399,4.230723 9.936399,4.215241 9.983066,4.215224 9.9932,4.215106 10.013682,4.214968 10.034201,4.214968" style="fill: white" /><polygon type="contour" points="10.499756,4.215067 10.545499,4.215067 10.545499,4.503901 10.462899,4.503901 10.462899,4.214972 10.470725,4.214987 10.483187,4.214972 10.496745,4.214725" style="fill: white" /><polygon type="contour" points="10.545499,4.916102 10.462899,4.916102 10.462899,4.832801 10.545499,4.832801" style="fill: white" /><polygon type="contour" points="11.4842,6.416516 11.400899,6.416516 11.400899,6.183001 11.4842,6.183001" style="fill: white" /><polygon type="contour" points="12.874855,7.121002 12.902034,7.121279 12.935877,7.121001 12.948931,7.121001 12.948701,7.167945 12.948701,7.271933 12.948702,7.305849 12.948702,7.3186 12.902034,7.318601 12.759953,7.318601 12.727965,7.3186 12.715974,7.3186 12.716211,7.271933 12.716211,7.238879 12.716311,7.203712 12.716523,7.178501 12.716211,7.167945 12.716093,7.121001 12.759952,7.121001" style="fill: white" /><polygon type="contour" points="13.360902,6.793236 13.277598,6.793236 13.277598,6.183001 13.360902,6.183001" style="fill: white" /><polygon type="contour" points="13.840408,6.183002 13.874651,6.183001 13.887326,6.183001 13.887123,6.229669 13.887401,6.256847 13.887401,6.500087 13.88716,6.709631 13.887272,6.709631 13.887272,6.777475 13.887305,6.792897 13.840407,6.793081 13.8299,6.793292 13.77181,6.79329 13.746599,6.79329 13.736468,6.793079 13.705994,6.792897 13.689802,6.792897 13.689802,6.61271 13.6898,6.61271 13.6898,6.500088 13.689801,6.256847 13.689802,6.229667 13.689802,6.183001 13.8074,6.183001" style="fill: white" /><polygon type="contour" points="13.887326,5.854101 13.689802,5.854101 13.689802,5.770801 13.887326,5.770801" style="fill: white" /><polygon type="contour" points="14.298902,5.854101 14.2156,5.854101 14.2156,5.80797 14.215602,5.770801 14.298902,5.770801" style="fill: white" /><polygon type="contour" points="14.298902,5.441901 14.2156,5.441901 14.2156,5.385101 14.215601,5.326808 14.215602,5.301801 14.215602,5.244378 14.298902,5.244378" style="fill: white" /><polygon type="contour" points="13.874651,5.244378 13.887326,5.244378 13.887401,5.291293 13.887401,5.3619 13.887123,5.395235 13.887326,5.429148 13.887326,5.441901 13.689802,5.441901 13.689802,5.244378 13.736467,5.244579 13.8074,5.244579 13.840408,5.244302" style="fill: white" /><polygon type="contour" points="13.887326,4.916102 13.689802,4.916102 13.689802,4.832801 13.887326,4.832801" style="fill: white" /><polygon type="contour" points="14.298902,4.916102 14.215602,4.916102 14.215602,4.832801 14.298902,4.832801" style="fill: white" /><polygon type="contour" points="14.298902,4.503901 14.215602,4.503901 14.215602,4.332989 14.215601,4.294148 14.215602,4.215067 14.298902,4.215067" style="fill: white" /><polygon type="contour" points="13.840408,4.215099 13.877326,4.215236 13.887326,4.21524 13.887178,4.26071 13.887401,4.337286 13.887401,4.4239 13.887326,4.491149 13.887326,4.503901 13.840408,4.503901 13.8074,4.503623 13.736467,4.503623 13.689802,4.503901 13.689802,4.215241 13.736467,4.215224 13.7466,4.215106 13.771808,4.215106 13.829899,4.214889" style="fill: white" /><polygon type="contour" points="13.360902,4.503901 13.277598,4.503901 13.277598,4.215067 13.360902,4.215067" style="fill: white" /><polygon type="contour" points="13.360902,4.916102 13.277598,4.916102 13.277598,4.832801 13.360902,4.832801" style="fill: white" /><polygon type="contour" points="12.85224,4.832802 12.874854,4.832801 12.948702,4.832801 12.948702,4.916102 12.338465,4.916102 12.338465,4.832801 12.715943,4.832801" style="fill: white" /><polygon type="contour" points="12.902034,5.244579 12.935949,5.244378 12.948702,5.244378 12.948701,5.291294 12.948701,5.395234 12.948702,5.429149 12.948702,5.441901 12.338804,5.441901 12.338622,5.395235 12.338411,5.385101 12.33841,5.326808 12.338409,5.301801 12.338619,5.291293 12.338802,5.26059 12.338803,5.244398 12.410027,5.244398 12.518862,5.244724 12.518862,5.244432 12.631613,5.244302 12.874855,5.244302" style="fill: white" /><polygon type="contour" points="13.360902,5.441901 13.277598,5.441901 13.277598,5.244378 13.360902,5.244378" style="fill: white" /><polygon type="contour" points="13.360902,5.854101 13.277598,5.854101 13.277598,5.770801 13.360902,5.770801" style="fill: white" /><polygon type="contour" points="12.948702,5.854101 12.338466,5.854101 12.338466,5.80248 12.338465,5.770801 12.948702,5.770801" style="fill: white" /><polygon type="contour" points="12.518862,6.18301 12.518862,6.183002 12.874855,6.183002 12.902034,6.18328 12.93595,6.183001 12.948702,6.183001 12.948423,6.229668 12.948701,6.256847 12.948701,6.500088 12.948702,6.61271 12.948702,6.792897 12.902035,6.793079 12.874854,6.793038 12.852239,6.793323 12.797713,6.793134 12.78105,6.793236 12.71716,6.793236 12.717034,6.761325 12.717088,6.70978 12.719167,6.70978 12.714571,6.417052 12.421221,6.412989 12.421221,6.414613 12.396164,6.414513 12.338465,6.414541 12.338465,6.350651 12.338566,6.333988 12.338379,6.279462 12.338662,6.256847 12.338621,6.229669 12.338803,6.199193 12.338803,6.183001 12.410027,6.183001" style="fill: white" /><polygon type="contour" points="12.010422,6.229668 12.0107,6.256847 12.0107,6.415609 11.963755,6.415491 11.953199,6.415179 11.892823,6.415491 11.859767,6.415491 11.823116,6.415677 11.813101,6.415729 11.8131,6.371749 11.8131,6.256847 11.813101,6.229668 11.813101,6.183001 12.0107,6.183001" style="fill: white" /><polygon type="contour" points="12.0107,5.85433 11.963756,5.854101 11.813101,5.854101 11.813101,5.770801 12.0107,5.770801" style="fill: white" /><polygon type="contour" points="12.0107,5.3619 12.010422,5.395235 12.0107,5.429075 12.0107,5.44213 11.963756,5.441901 11.813101,5.441901 11.813101,5.244378 11.859767,5.244579 11.963755,5.244579 11.997873,5.244378 12.0107,5.244149" style="fill: white" /><polygon type="contour" points="12.0107,4.916102 11.813101,4.916102 11.813101,4.832801 12.0107,4.832801" style="fill: white" /><polygon type="contour" points="11.963755,4.215224 12.000003,4.215217 12.0107,4.215215 12.010477,4.26071 12.0107,4.337286 12.0107,4.50413 11.963756,4.503623 11.859767,4.503623 11.813101,4.503901 11.8131,4.423901 11.8131,4.337286 11.813101,4.26071 11.813101,4.230724 11.813024,4.215232 11.813101,4.215215 11.813101,4.215767 11.8699,4.215106 11.9532,4.215106" style="fill: white" /><polygon type="contour" points="11.4842,4.503901 11.400899,4.503901 11.400899,4.215067 11.44703,4.215067 11.449917,4.214863 11.4842,4.214863" style="fill: white" /><polygon type="contour" points="11.4842,4.916102 11.400899,4.916102 11.400899,4.832801 11.4842,4.832801" style="fill: white" /><polygon type="contour" points="11.072001,4.916102 10.874399,4.916102 10.874399,4.832801 11.072001,4.832801" style="fill: white" /><polygon type="contour" points="11.058869,5.244378 11.072001,5.244378 11.072,5.291294 11.072,5.3619 11.072001,5.395234 11.072001,5.441901 10.874399,5.441901 10.874678,5.395235 10.8744,5.3619 10.8744,5.291294 10.874399,5.257052 10.874399,5.244378 10.920427,5.244302 11.024604,5.244302" style="fill: white" /><polygon type="contour" points="11.4842,5.385101 11.484199,5.395235 11.484199,5.441901 11.400899,5.441901 11.400899,5.244378 11.4842,5.244378" style="fill: white" /><polygon type="contour" points="11.4842,5.854101 11.400899,5.854101 11.400899,5.770801 11.4842,5.770801" style="fill: white" /><polygon type="contour" points="11.072001,5.854101 10.874399,5.854101 10.874399,5.770801 11.072001,5.770801" style="fill: white" /><polygon type="contour" points="11.072001,6.229668 11.072,6.256848 11.072,6.372675 11.07085,6.416994 11.070004,6.41706 11.001594,6.416994 10.920426,6.417178 10.884474,6.417076 10.874399,6.417128 10.8744,6.372675 10.8744,6.256847 10.874678,6.229669 10.874399,6.195752 10.874399,6.183001 11.072001,6.183001" style="fill: white" /><polygon type="contour" points="10.545499,6.417917 10.508642,6.41823 10.462899,6.41823 10.462899,6.183001 10.545499,6.183001" style="fill: white" /><polygon type="contour" points="10.133723,6.229669 10.134,6.256847 10.134,6.374066 10.134001,6.406857 10.134001,6.419002 10.087056,6.41899 9.983065,6.41899 9.946474,6.419118 9.936399,6.419154 9.9364,6.374066 9.9364,6.229669 9.936399,6.195752 9.936399,6.183001 10.134001,6.183001" style="fill: white" /><polygon type="contour" points="10.134001,5.854101 9.936399,5.854101 9.936399,5.770801 10.134001,5.770801" style="fill: white" /><polygon type="contour" points="10.545499,5.854101 10.462899,5.854101 10.462899,5.770801 10.545499,5.770801" style="fill: white" /><polygon type="contour" points="10.545499,5.441901 10.462899,5.441901 10.462899,5.244378 10.545499,5.244378" style="fill: white" /><polygon type="contour" points="10.134,5.291294 10.134,5.3619 10.133723,5.395235 10.134001,5.429148 10.134001,5.441901 9.936399,5.441901 9.9364,5.395234 9.9364,5.291294 9.936399,5.257052 9.936399,5.244378 9.983065,5.244579 10.087056,5.244579 10.134001,5.244378" style="fill: white" /><polygon type="contour" points="10.134001,4.916102 9.936399,4.916102 9.936399,4.832801 10.134001,4.832801" style="fill: white" /><polygon type="contour" points="9.607499,4.916102 9.524199,4.916102 9.524199,4.832801 9.607499,4.832801" style="fill: white" /><polygon type="contour" points="9.195299,4.916102 8.9977,4.916102 8.9977,4.832801 9.195299,4.832801" style="fill: white" /><polygon type="contour" points="9.1953,5.291293 9.1953,5.3619 9.195299,5.395235 9.195299,5.441901 8.9977,5.441901 8.997978,5.395235 8.9977,5.3619 8.9977,5.244378 9.044644,5.244579 9.148632,5.244579 9.182547,5.244378 9.195299,5.244378" style="fill: white" /><polygon type="contour" points="9.607499,5.441901 9.524199,5.441901 9.524199,5.244378 9.607499,5.244378" style="fill: white" /><polygon type="contour" points="9.607499,5.854101 9.524199,5.854101 9.524199,5.770801 9.607499,5.770801" style="fill: white" /><polygon type="contour" points="9.195299,5.854101 8.9977,5.854101 8.9977,5.770801 9.195299,5.770801" style="fill: white" /><polygon type="contour" points="9.195299,6.229668 9.1953,6.256847 9.1953,6.374066 9.195299,6.406857 9.195299,6.419154 9.148631,6.41899 9.044644,6.41899 9.007773,6.419059 8.9977,6.419002 8.9977,6.256847 8.997977,6.229669 8.9977,6.195752 8.9977,6.183001 9.195299,6.183001" style="fill: white" /><polygon type="contour" points="8.668799,6.41823 8.623055,6.41823 8.5862,6.417917 8.5862,6.183001 8.668799,6.183001" style="fill: white" /><polygon type="contour" points="8.257022,6.229668 8.257301,6.256847 8.257301,6.417129 8.211272,6.417179 8.107096,6.417179 8.070072,6.417018 8.0597,6.416977 8.0597,6.183001 8.257301,6.183001" style="fill: white" /><polygon type="contour" points="8.257301,5.854101 8.0597,5.854101 8.0597,5.770801 8.257301,5.770801" style="fill: white" /><polygon type="contour" points="7.730799,5.854101 7.6475,5.854101 7.6475,5.770801 7.730799,5.770801" style="fill: white" /><polygon type="contour" points="7.730799,5.441901 7.6475,5.441901 7.6475,5.244378 7.730799,5.244378" style="fill: white" /><polygon type="contour" points="7.318599,5.441901 7.121,5.441901 7.121278,5.395235 7.121,5.3619 7.121,5.244378 7.167944,5.244579 7.271933,5.244579 7.318599,5.244378" style="fill: white" /><polygon type="contour" points="7.167943,5.770801 7.318599,5.770801 7.318599,5.854101 7.121,5.854101 7.121,5.770572" style="fill: white" /><polygon type="contour" points="7.167943,6.183001 7.318599,6.183001 7.318599,6.229668 7.3186,6.256847 7.3186,6.371749 7.318599,6.403736 7.318599,6.415729 7.271933,6.415491 7.238877,6.415491 7.20371,6.41539 7.178499,6.415179 7.167944,6.415491 7.121,6.415609 7.121001,6.371749 7.121001,6.256847 7.121278,6.229669 7.121,6.195825 7.121,6.182772" style="fill: white" /><polygon type="contour" points="6.793077,6.229669 6.793036,6.256847 6.793321,6.279463 6.793132,6.333989 6.793234,6.35065 6.793234,6.414541 6.761323,6.414668 6.709778,6.414613 6.709778,6.412532 6.417049,6.417131 6.412998,6.709782 6.414612,6.709779 6.414665,6.761324 6.414539,6.793236 6.350648,6.793236 6.333988,6.793134 6.279459,6.793323 6.256844,6.793038 6.229666,6.793079 6.19919,6.792897 6.182998,6.792897 6.182998,6.721068 6.183007,6.61271 6.182999,6.61271 6.182999,6.256847 6.183277,6.229669 6.182998,6.195752 6.182998,6.183001 6.229665,6.18328 6.256845,6.183002 6.777472,6.183002 6.792895,6.183001" style="fill: white" /><polygon type="contour" points="6.793234,5.854101 6.182998,5.854101 6.182998,5.770801 6.793234,5.770801" style="fill: white" /><polygon type="contour" points="6.709628,5.244543 6.709628,5.244432 6.777473,5.244432 6.792895,5.244398 6.793078,5.291293 6.79329,5.301801 6.79329,5.326808 6.793289,5.385101 6.793077,5.395234 6.792895,5.425708 6.792895,5.441901 6.182998,5.441901 6.182998,5.395234 6.182999,5.3619 6.182999,5.291294 6.182998,5.257052 6.182998,5.244378 6.229665,5.244579 6.256844,5.244302 6.500086,5.244302" style="fill: white" /><polygon type="contour" points="6.279459,4.832802 6.353119,4.832802 6.460497,4.832801 6.793234,4.832801 6.793234,4.916102 6.467107,4.916102 6.415757,4.916963 6.279459,4.916102 6.182998,4.916102 6.182998,4.832801 6.256845,4.832801" style="fill: white" /><polygon type="contour" points="5.854098,4.503901 5.770798,4.503901 5.770798,4.215067 5.854098,4.215067" style="fill: white" /><polygon type="contour" points="5.359889,4.215106 5.3851,4.215106 5.395232,4.215224 5.431824,4.215236 5.441899,4.215241 5.441899,4.337285 5.4419,4.423901 5.4419,4.503901 5.395234,4.503623 5.324299,4.503623 5.291292,4.503901 5.244376,4.503901 5.2443,4.4239 5.2443,4.337286 5.244523,4.26071 5.244376,4.230723 5.244376,4.215241 5.291292,4.215099 5.301797,4.214889" style="fill: white" /><polygon type="contour" points="4.9161,4.41007 4.916101,4.4239 4.916101,4.503901 4.832799,4.503901 4.832799,4.215067 4.9161,4.215067" style="fill: white" /><polygon type="contour" points="4.9161,4.916102 4.832799,4.916102 4.832799,4.832801 4.9161,4.832801" style="fill: white" /><polygon type="contour" points="4.503898,4.916102 4.215066,4.916102 4.215066,4.832801 4.503898,4.832801" style="fill: white" /><polygon type="contour" points="4.503899,5.291293 4.503899,5.3619 4.503621,5.395235 4.503898,5.429149 4.503898,5.441901 4.215239,5.441901 4.215222,5.395234 4.215104,5.385102 4.214887,5.326807 4.214887,5.301801 4.215097,5.291293 4.215235,5.254376 4.215239,5.244378 4.284185,5.244639 4.337283,5.244778 4.423898,5.244778 4.491147,5.244378 4.503898,5.244378" style="fill: white" /><polygon type="contour" points="4.9161,5.441901 4.8328,5.441901 4.832799,5.395234 4.832799,5.244378 4.9161,5.244378" style="fill: white" /><polygon type="contour" points="5.324299,5.244579 5.395233,5.244579 5.441899,5.244378 5.441899,5.441901 5.244376,5.441901 5.244577,5.395235 5.2443,5.3619 5.2443,5.291293 5.244376,5.257052 5.244376,5.244378 5.291292,5.244302" style="fill: white" /><polygon type="contour" points="5.441899,4.916102 5.244376,4.916102 5.244376,4.832801 5.441899,4.832801" style="fill: white" /><polygon type="contour" points="5.854098,4.916102 5.770798,4.916102 5.770798,4.832801 5.854098,4.832801" style="fill: white" /><polygon type="contour" points="5.854098,5.441901 5.770798,5.441901 5.770798,5.244378 5.854098,5.244378" style="fill: white" /><polygon type="contour" points="5.854098,5.854101 5.770798,5.854101 5.770798,5.770801 5.854098,5.770801" style="fill: white" /><polygon type="contour" points="5.441899,5.854101 5.244376,5.854101 5.244376,5.770801 5.441899,5.770801" style="fill: white" /><polygon type="contour" points="4.9161,6.229668 4.916101,6.256847 4.916101,6.353122 4.9161,6.460498 4.9161,6.793236 4.832799,6.793236 4.832799,6.460498 4.8328,6.353122 4.8328,6.333128 4.832799,6.279461 4.832799,6.183001 4.9161,6.183001" style="fill: white" /><polygon type="contour" points="4.9161,5.854101 4.832799,5.854101 4.832799,5.770801 4.9161,5.770801" style="fill: white" /><polygon type="contour" points="4.503898,5.854101 4.215066,5.854101 4.215066,5.770801 4.503898,5.770801" style="fill: white" /><polygon type="contour" points="4.337282,6.183002 4.423899,6.183002 4.491146,6.183001 4.503898,6.183001 4.503621,6.229669 4.503899,6.256847 4.503899,6.500088 4.503655,6.709631 4.503768,6.709631 4.503768,6.777475 4.503802,6.792897 4.423899,6.793277 4.410068,6.79342 4.396641,6.793339 4.377218,6.793339 4.357631,6.793422 4.344123,6.793436 4.214774,6.793236 4.214921,6.761324 4.215495,6.612427 4.154365,6.612401 4.140501,6.612453 4.068235,6.612558 4.024592,6.612493 4.024592,6.30046 4.024641,6.279344 4.057776,6.279462 4.068234,6.279358 4.214547,6.279533 4.215235,6.193076 4.215239,6.183001 4.284186,6.183001" style="fill: white" /><polygon type="contour" points="4.503621,7.167945 4.503621,7.271933 4.503898,7.305849 4.503898,7.3186 4.315013,7.3186 4.315013,7.2188 4.215104,7.2188 4.215104,7.178501 4.215222,7.167946 4.215214,7.131696 4.215213,7.121001 4.284186,7.12134 4.337283,7.121001 4.504127,7.121001" style="fill: white" /><polygon type="contour" points="4.9161,7.167946 4.9161,7.3186 4.832799,7.3186 4.832799,7.121001 4.916329,7.121001" style="fill: white" /><polygon type="contour" points="5.441899,7.3186 5.395232,7.318601 5.291292,7.318601 5.25705,7.3186 5.244376,7.3186 5.244577,7.271934 5.244577,7.167946 5.244376,7.121001 5.291292,7.121002 5.324299,7.121279 5.395233,7.121279 5.441899,7.121001" style="fill: white" /><polygon type="contour" points="5.441899,6.792897 5.395233,6.793079 5.385099,6.79329 5.359889,6.79329 5.301799,6.793292 5.291291,6.793081 5.260588,6.792897 5.244396,6.792897 5.244396,6.721067 5.244718,6.61271 5.24443,6.61271 5.2443,6.500087 5.2443,6.256847 5.244577,6.229668 5.244376,6.195753 5.244376,6.183001 5.291291,6.183002 5.3243,6.183001 5.441899,6.183001" style="fill: white" /><polygon type="contour" points="5.854098,6.793236 5.770798,6.793236 5.770798,6.183001 5.854098,6.183001" style="fill: white" /><polygon type="contour" points="5.854098,7.167946 5.854098,7.3186 5.770798,7.3186 5.770798,7.133828 5.770569,7.121001 5.854327,7.121001" style="fill: white" /><polygon type="contour" points="6.415489,7.167945 6.415178,7.178501 6.41539,7.203712 6.415489,7.238878 6.415489,7.271933 6.415675,7.308584 6.415727,7.3186 6.371747,7.318601 6.229666,7.318601 6.195749,7.3186 6.182998,7.3186 6.182998,7.121001 6.229665,7.12128 6.256845,7.121001 6.415607,7.121001" style="fill: white" /><polygon type="contour" points="6.416514,7.7308 6.182998,7.7308 6.182998,7.647501 6.416514,7.647501" style="fill: white" /><polygon type="contour" points="6.417015,8.070072 6.417178,8.107098 6.417178,8.211274 6.417076,8.247229 6.417127,8.257303 6.256845,8.257303 6.229666,8.257025 6.195749,8.257303 6.182998,8.257303 6.182998,8.059701 6.229665,8.059702 6.256845,8.059701 6.416975,8.059701" style="fill: white" /><polygon type="contour" points="6.417914,8.631943 6.418228,8.668801 6.182998,8.668801 6.182998,8.586201 6.417914,8.586201" style="fill: white" /><polygon type="contour" points="6.418989,9.044646 6.418989,9.077702 6.419205,9.127852 6.419262,9.195303 6.419204,9.195302 6.317625,9.195302 6.256845,9.195301 6.182998,9.195301 6.182998,8.997702 6.229665,8.99798 6.256845,8.997702 6.419001,8.997702" style="fill: white" /><polygon type="contour" points="6.420086,9.52588 6.420086,9.566201 6.419945,9.570789 6.419945,9.607501 6.182998,9.607501 6.182998,9.524201 6.419945,9.524201" style="fill: white" /><polygon type="contour" points="6.418989,9.983068 6.418924,10.065811 6.418783,10.133803 6.418924,10.134002 6.256845,10.134002 6.229666,10.133724 6.195749,10.134003 6.182998,10.134003 6.182998,9.936401 6.229666,9.936402 6.374064,9.936402 6.406856,9.936401 6.419152,9.936401" style="fill: white" /><polygon type="contour" points="6.418228,10.508643 6.417914,10.545501 6.182998,10.545501 6.182998,10.462901 6.418228,10.462901" style="fill: white" /><polygon type="contour" points="6.417178,10.920429 6.417178,10.953032 6.416993,11.001595 6.416993,11.070852 6.313935,11.070852 6.256844,11.072002 6.229666,11.072002 6.195749,11.072003 6.182998,11.072003 6.182998,10.874401 6.229666,10.874679 6.256844,10.874402 6.372673,10.874402 6.404983,10.874401 6.417127,10.874401" style="fill: white" /><polygon type="contour" points="4.423899,12.338424 4.487609,12.338805 4.503802,12.338805 4.503802,12.41003 4.503475,12.518864 4.503768,12.518864 4.503899,12.631615 4.503899,12.874855 4.503621,12.902035 4.503898,12.935951 4.503898,12.948703 4.215239,12.948703 4.214629,12.852242 4.149173,12.852431 4.068235,12.852344 4.024641,12.85236 4.024592,12.831243 4.024592,12.519208 4.063134,12.519138 4.068235,12.519144 4.154364,12.519301 4.215573,12.51928 4.215004,12.396166 4.214774,12.338468 4.27655,12.338504 4.360285,12.33865 4.377218,12.338365 4.396642,12.338365 4.410068,12.338285" style="fill: white" /><polygon type="contour" points="5.359889,12.338414 5.3851,12.338414 5.395232,12.338624 5.425705,12.338805 5.441899,12.338805 5.441899,12.948703 5.395232,12.948702 5.291292,12.948702 5.25705,12.948703 5.244376,12.948703 5.244577,12.902036 5.2443,12.874855 5.2443,12.631614 5.244542,12.421371 5.24443,12.421371 5.24443,12.354096 5.244396,12.338805 5.291292,12.338621 5.301799,12.338412" style="fill: white" /><polygon type="contour" points="4.9161,11.9532 4.916101,11.963757 4.916101,12.010703 4.83257,12.010703 4.832799,11.963757 4.832799,11.813104 4.9161,11.813104" style="fill: white" /><polygon type="contour" points="4.491147,11.813104 4.503898,11.813104 4.503621,11.859769 4.503621,11.963757 4.503899,12.010703 4.337283,12.010703 4.284186,12.010364 4.215213,12.010703 4.215222,11.963758 4.215104,11.953201 4.215104,11.92799 4.215105,11.869902 4.215222,11.85977 4.215239,11.813104 4.284186,11.813102 4.423899,11.813102" style="fill: white" /><polygon type="contour" points="4.503898,11.484203 4.215066,11.484203 4.215067,11.447033 4.214893,11.400901 4.503898,11.400901" style="fill: white" /><polygon type="contour" points="4.916101,11.43807 4.9161,11.484203 4.832799,11.484203 4.832799,11.400901 4.916101,11.400901" style="fill: white" /><polygon type="contour" points="4.9161,11.072003 4.832799,11.072003 4.832799,10.874401 4.9161,10.874401" style="fill: white" /><polygon type="contour" points="4.503899,10.920429 4.503899,11.024605 4.503898,11.058872 4.503898,11.072003 4.215239,11.072003 4.215191,11.024606 4.215191,11.013103 4.215319,10.992391 4.215191,10.955151 4.215191,10.920428 4.215235,10.884476 4.215239,10.874401 4.284186,10.874741 4.337282,10.874401 4.503898,10.874401" style="fill: white" /><polygon type="contour" points="4.503898,10.545501 4.215066,10.545501 4.215066,10.503616 4.214677,10.499757 4.214724,10.499748 4.214724,10.462901 4.503898,10.462901" style="fill: white" /><polygon type="contour" points="4.337283,9.936402 4.4239,9.936402 4.491146,9.936401 4.503898,9.936401 4.503621,9.983068 4.503621,10.087057 4.503898,10.134003 4.423898,10.134002 4.337283,10.134002 4.31503,10.133859 4.31503,10.133466 4.230721,10.134003 4.215239,10.134003 4.215222,10.087057 4.215104,10.076502 4.215104,9.993201 4.215222,9.983068 4.215239,9.936401 4.284186,9.936401" style="fill: white" /><polygon type="contour" points="4.503898,9.607501 4.215066,9.607501 4.215066,9.570332 4.214893,9.524201 4.503898,9.524201" style="fill: white" /><polygon type="contour" points="5.441899,9.607501 5.244376,9.607501 5.244376,9.524201 5.441899,9.524201" style="fill: white" /><polygon type="contour" points="5.854098,9.607501 5.770798,9.607501 5.770798,9.524201 5.854098,9.524201" style="fill: white" /><polygon type="contour" points="5.854098,9.195301 5.770798,9.195301 5.770798,8.997702 5.854098,8.997702" style="fill: white" /><polygon type="contour" points="5.441899,9.195301 5.244376,9.195301 5.244577,9.148635 5.244577,9.044646 5.244376,8.997702 5.291292,8.997703 5.324299,8.99798 5.395233,8.99798 5.441899,8.997702" style="fill: white" /><polygon type="contour" points="5.441899,8.257303 5.395233,8.257025 5.361898,8.257302 5.291292,8.257302 5.25705,8.257303 5.244376,8.257303 5.2443,8.211274 5.2443,8.107097 5.244376,8.072832 5.244376,8.059701 5.291292,8.059702 5.395232,8.059702 5.441899,8.059701" style="fill: white" /><polygon type="contour" points="5.441899,8.668801 5.244376,8.668801 5.244376,8.586201 5.441899,8.586201" style="fill: white" /><polygon type="contour" points="5.854098,8.668801 5.770798,8.668801 5.770798,8.586201 5.854098,8.586201" style="fill: white" /><polygon type="contour" points="5.854098,8.257303 5.770798,8.257303 5.770798,8.059701 5.854098,8.059701" style="fill: white" /><polygon type="contour" points="5.854098,7.7308 5.770798,7.7308 5.770798,7.647501 5.854098,7.647501" style="fill: white" /><polygon type="contour" points="5.441899,7.7308 5.244376,7.7308 5.244376,7.647501 5.441899,7.647501" style="fill: white" /><polygon type="contour" points="4.9161,7.7308 4.832799,7.7308 4.832799,7.647501 4.9161,7.647501" style="fill: white" /><polygon type="contour" points="4.503897,7.721768 4.503897,7.7308 4.215066,7.7308 4.215066,7.688528 4.214677,7.684669 4.214861,7.684632 4.214861,7.647501 4.503898,7.647501" style="fill: white" /><polygon type="contour" points="4.503899,8.107098 4.503899,8.211274 4.503898,8.257303 4.337284,8.257303 4.284186,8.256963 4.230722,8.257303 4.21524,8.257303 4.215192,8.211275 4.215191,8.2019 4.215017,8.19283 4.214736,8.163769 4.215319,8.139313 4.215191,8.118601 4.215191,8.107097 4.215235,8.070073 4.215239,8.059701 4.503898,8.059701" style="fill: white" /><polygon type="contour" points="4.9161,8.257303 4.8328,8.257303 4.832799,8.211274 4.832799,8.059701 4.9161,8.059701" style="fill: white" /><polygon type="contour" points="4.9161,8.668801 4.832799,8.668801 4.832799,8.586201 4.9161,8.586201" style="fill: white" /><polygon type="contour" points="4.503898,8.668801 4.314524,8.668801 4.314524,8.586201 4.503898,8.586201" style="fill: white" /><polygon type="contour" points="4.503621,9.044645 4.503621,9.148634 4.503898,9.18255 4.503898,9.195301 4.423898,9.195302 4.337282,9.195302 4.284186,9.195301 4.215239,9.195301 4.215222,9.148634 4.215104,9.138502 4.214966,9.11802 4.214966,9.055202 4.215213,9.055202 4.215217,9.047601 4.264885,9.047619 4.265129,8.997946 4.284185,8.99804 4.337282,8.997702 4.503898,8.997702" style="fill: white" /><polygon type="contour" points="4.9161,9.195301 4.8328,9.195301 4.832799,9.148634 4.832799,8.997702 4.9161,8.997702" style="fill: white" /><polygon type="contour" points="4.9161,9.607501 4.832799,9.607501 4.832799,9.524201 4.9161,9.524201" style="fill: white" /><polygon type="contour" points="4.9161,10.134003 4.832799,10.134003 4.832799,9.936401 4.9161,9.936401" style="fill: white" /><polygon type="contour" points="4.9161,10.545501 4.832799,10.545501 4.832799,10.462901 4.9161,10.462901" style="fill: white" /><polygon type="contour" points="5.441899,10.545501 5.244376,10.545501 5.244376,10.462901 5.441899,10.462901" style="fill: white" /><polygon type="contour" points="5.441899,10.134003 5.395233,10.133724 5.324299,10.133724 5.291292,10.134002 5.25705,10.134003 5.244376,10.134003 5.244577,10.087057 5.244577,9.983067 5.244376,9.949153 5.244376,9.936401 5.291292,9.936402 5.395232,9.936402 5.441899,9.936401" style="fill: white" /><polygon type="contour" points="5.854098,10.134003 5.770798,10.134003 5.770798,9.936401 5.854098,9.936401" style="fill: white" /><polygon type="contour" points="5.854098,10.545501 5.770798,10.545501 5.770798,10.462901 5.854098,10.462901" style="fill: white" /><polygon type="contour" points="5.854098,11.072003 5.770798,11.072003 5.770798,10.874401 5.854098,10.874401" style="fill: white" /><polygon type="contour" points="5.441899,11.072003 5.395232,11.072002 5.291292,11.072002 5.25705,11.072003 5.244376,11.072003 5.2443,11.024606 5.2443,10.920429 5.244376,10.874401 5.291292,10.874402 5.361898,10.874402 5.395233,10.874679 5.429148,10.874401 5.441899,10.874401" style="fill: white" /><polygon type="contour" points="5.441899,11.475171 5.441899,11.484203 5.244376,11.484203 5.244376,11.400901 5.4419,11.400901" style="fill: white" /><polygon type="contour" points="5.441899,11.813104 5.441899,11.892824 5.4419,11.963758 5.442129,12.010703 5.395234,12.010424 5.324299,12.010424 5.291292,12.010702 5.257123,12.010703 5.244147,12.010703 5.244577,11.963758 5.244577,11.892824 5.244578,11.859769 5.244376,11.825854 5.244376,11.813104 5.291292,11.813103 5.395232,11.813103" style="fill: white" /><polygon type="contour" points="5.845066,11.813105 5.854098,11.813105 5.854098,12.010703 5.770798,12.010703 5.770798,11.813104" style="fill: white" /><polygon type="contour" points="5.854098,11.484203 5.770798,11.484203 5.770798,11.400901 5.854098,11.400901" style="fill: white" /><polygon type="contour" points="6.416514,11.484203 6.182998,11.484203 6.182998,11.400901 6.416514,11.400901" style="fill: white" /><polygon type="contour" points="6.403734,11.813104 6.415727,11.813104 6.415489,11.859769 6.415489,11.892824 6.415621,11.909887 6.415622,11.957587 6.415621,11.980492 6.415607,12.010703 6.371747,12.010702 6.256845,12.010702 6.229666,12.010424 6.195822,12.010703 6.182769,12.010703 6.182998,11.963757 6.182998,11.813104 6.229666,11.813103 6.371747,11.813103" style="fill: white" /><polygon type="contour" points="6.333987,12.338569 6.350649,12.338468 6.414539,12.338468 6.414665,12.370112 6.414612,12.421222 6.41253,12.421222 6.417127,12.714651 6.70978,12.718704 6.709777,12.717091 6.761323,12.717035 6.793234,12.717162 6.793234,12.781051 6.793132,12.797714 6.793321,12.85224 6.793036,12.874855 6.793076,12.902035 6.792895,12.93251 6.792895,12.948703 6.612708,12.948703 6.500086,12.948702 6.256845,12.948702 6.229666,12.948424 6.195749,12.948703 6.182998,12.948703 6.183277,12.902036 6.182999,12.874856 6.182999,12.354095 6.182998,12.338804 6.229665,12.338623 6.256845,12.338665 6.279459,12.338381" style="fill: white" /><polygon type="contour" points="5.854098,14.916637 5.770798,14.916637 5.770798,14.627803 5.854098,14.627803" style="fill: white" /><polygon type="contour" points="4.9161,14.916637 4.832799,14.916637 4.832799,14.627803 4.9161,14.627803" style="fill: white" /><polygon type="contour" points="5.324299,14.62808 5.395233,14.62808 5.441899,14.627803 5.441899,14.916463 5.395233,14.91648 5.385099,14.916599 5.359889,14.916599 5.301799,14.916815 5.291292,14.916604 5.254329,14.916433 5.244376,14.916463 5.244523,14.870993 5.2443,14.794417 5.2443,14.707802 5.244376,14.640554 5.244376,14.627803 5.291292,14.627803" style="fill: white" /><polygon type="contour" points="5.441899,14.298903 5.244376,14.298903 5.244376,14.215603 5.441899,14.215603" style="fill: white" /><polygon type="contour" points="5.441899,13.887327 5.395232,13.887124 5.324299,13.887124 5.291292,13.887402 5.25705,13.887327 5.244376,13.887327 5.2443,13.840409 5.2443,13.769802 5.244577,13.736468 5.244376,13.702554 5.244376,13.689803 5.441899,13.689803" style="fill: white" /><polygon type="contour" points="5.854098,13.887327 5.770798,13.887327 5.770798,13.689803 5.854098,13.689803" style="fill: white" /><polygon type="contour" points="5.854098,14.298903 5.770798,14.298903 5.770798,14.215603 5.854098,14.215603" style="fill: white" /><polygon type="contour" points="6.793234,14.298903 6.182998,14.298903 6.182998,14.215603 6.793234,14.215603" style="fill: white" /><polygon type="contour" points="6.709628,14.628045 6.709628,14.627933 6.777473,14.627933 6.792895,14.627899 6.793277,14.707803 6.793418,14.721634 6.793418,14.731488 6.793235,14.742232 6.793357,14.774007 6.793196,14.855151 6.793233,14.916927 6.761322,14.916779 6.612425,14.916208 6.612399,14.977337 6.612451,14.9912 6.612556,15.063467 6.61249,15.107111 6.300457,15.107112 6.279341,15.107062 6.279459,15.073926 6.279355,15.063468 6.27953,14.917155 6.193073,14.916468 6.182998,14.916464 6.182998,14.870994 6.182999,14.794418 6.182999,14.707802 6.182998,14.640554 6.182998,14.627803 6.229666,14.62808 6.256845,14.627802 6.500087,14.627802" style="fill: white" /><polygon type="contour" points="7.167943,14.62808 7.271933,14.62808 7.318599,14.627803 7.318599,14.816689 7.218799,14.816689 7.218799,14.916599 7.1785,14.916599 7.167943,14.91648 7.131696,14.916487 7.121,14.916488 7.121224,14.870993 7.121001,14.794417 7.121001,14.707801 7.121,14.640626 7.121,14.627573" style="fill: white" /><polygon type="contour" points="7.318599,14.298903 7.121,14.298903 7.121,14.215603 7.318599,14.215603" style="fill: white" /><polygon type="contour" points="7.730799,13.887327 7.6475,13.887327 7.6475,13.689803 7.730799,13.689803" style="fill: white" /><polygon type="contour" points="7.730799,14.298903 7.6475,14.298903 7.6475,14.215603 7.730799,14.215603" style="fill: white" /><polygon type="contour" points="7.730799,14.916637 7.684668,14.916637 7.681782,14.916429 7.6475,14.916428 7.6475,14.627803 7.730799,14.627803" style="fill: white" /><polygon type="contour" points="9.607499,14.916637 9.524199,14.916637 9.524199,14.627803 9.607499,14.627803" style="fill: white" /><polygon type="contour" points="10.545499,13.360903 10.462899,13.360903 10.462899,13.2776 10.545499,13.2776" style="fill: white" /><polygon type="contour" points="9.1953,12.712498 9.1953,12.874855 9.195299,12.902036 9.195299,12.948703 9.148631,12.948702 9.044644,12.948702 9.010451,12.948703 8.9977,12.948703 8.997978,12.902036 8.9977,12.874855 8.9977,12.712702 9.044643,12.712713 9.077699,12.712713 9.12785,12.712498 9.195301,12.71244" style="fill: white" /><polygon type="contour" points="9.570786,12.711758 9.607499,12.711758 9.607499,12.948703 9.524199,12.948703 9.524199,12.711758 9.525878,12.711617 9.566198,12.711617" style="fill: white" /><polygon type="contour" points="9.983065,12.712713 10.065811,12.712779 10.133802,12.712918 10.134,12.712779 10.134,12.874855 10.133723,12.902035 10.134001,12.935951 10.134001,12.948703 10.087056,12.948702 9.983066,12.948702 9.936399,12.948703 9.9364,12.902035 9.9364,12.757637 9.936399,12.724846 9.936399,12.712551" style="fill: white" /><polygon type="contour" points="10.545499,12.713786 10.545499,12.948703 10.462899,12.948703 10.462899,12.713474 10.508642,12.713474" style="fill: white" /><polygon type="contour" points="11.001594,12.71471 11.07085,12.71471 11.07085,12.817766 11.072,12.874856 11.072001,12.902035 11.072001,12.948703 10.874399,12.948703 10.874678,12.902036 10.8744,12.874855 10.8744,12.759028 10.874399,12.726719 10.874399,12.714576 10.920426,12.714525" style="fill: white" /><polygon type="contour" points="12.874854,12.338665 12.902035,12.338624 12.932509,12.338805 12.948702,12.338805 12.948702,12.518864 12.948701,12.631615 12.948701,12.874855 12.948423,12.902035 12.948702,12.935951 12.948702,12.948703 12.902035,12.948424 12.874855,12.948702 12.631614,12.948702 12.518861,12.948703 12.338803,12.948703 12.338621,12.902035 12.338662,12.874856 12.338379,12.85224 12.338566,12.797714 12.338465,12.781051 12.338465,12.717162 12.370111,12.717035 12.421221,12.717091 12.421226,12.719171 12.71465,12.714574 12.71871,12.421222 12.717088,12.421222 12.717188,12.396166 12.717161,12.338468 12.78105,12.338468 12.797713,12.338568 12.85224,12.338381" style="fill: white" /><polygon type="contour" points="13.840407,12.338622 13.871112,12.338805 13.887305,12.338805 13.887305,12.410031 13.886988,12.518864 13.887272,12.518864 13.887401,12.631614 13.887401,12.874855 13.887123,12.902036 13.887326,12.93595 13.887326,12.948703 13.840407,12.948702 13.736468,12.948702 13.689802,12.948703 13.689802,12.902036 13.689801,12.874855 13.6898,12.631615 13.6898,12.518862 13.689802,12.518862 13.689802,12.338805 13.736467,12.338624 13.7466,12.338414 13.77181,12.338414 13.8299,12.338412" style="fill: white" /><polygon type="contour" points="13.360902,11.997874 13.361131,12.010703 13.277598,12.010703 13.277598,11.813104 13.360902,11.813104" style="fill: white" /><polygon type="contour" points="12.93595,11.813104 12.948702,11.813104 12.948701,11.85977 12.948701,11.963758 12.948931,12.010703 12.902034,12.010424 12.874855,12.010702 12.759953,12.010702 12.728001,12.010703 12.716093,12.010703 12.71621,11.963758 12.716523,11.953201 12.716211,11.892824 12.716211,11.85977 12.716025,11.823119 12.715974,11.813104 12.759953,11.813103 12.902034,11.813103" style="fill: white" /><polygon type="contour" points="12.948702,11.484203 12.715186,11.484203 12.715186,11.400901 12.948702,11.400901" style="fill: white" /><polygon type="contour" points="13.360902,11.484203 13.277598,11.484203 13.277598,11.400901 13.360902,11.400901" style="fill: white" /><polygon type="contour" points="13.360902,11.072003 13.277598,11.072003 13.277598,10.874401 13.360902,10.874401" style="fill: white" /><polygon type="contour" points="12.759025,10.874401 12.874855,10.874402 12.902034,10.874679 12.93595,10.874401 12.948702,10.874401 12.948702,11.072003 12.902034,11.072002 12.759026,11.072002 12.714707,11.070852 12.714642,11.070005 12.714706,11.001595 12.714522,10.920428 12.714623,10.884475 12.714572,10.8744" style="fill: white" /><polygon type="contour" points="12.948702,10.545501 12.713784,10.545501 12.713473,10.508644 12.713473,10.462901 12.948702,10.462901" style="fill: white" /><polygon type="contour" points="13.360902,10.545501 13.277598,10.545501 13.277598,10.462901 13.360902,10.462901" style="fill: white" /><polygon type="contour" points="13.360902,10.134003 13.277598,10.134003 13.277598,9.936401 13.360902,9.936401" style="fill: white" /><polygon type="contour" points="12.948701,9.983068 12.948701,10.087057 12.948702,10.121251 12.948702,10.134003 12.902035,10.133724 12.874855,10.134002 12.757635,10.134002 12.724843,10.134003 12.7127,10.134003 12.71271,10.087057 12.71271,9.983067 12.712582,9.946475 12.712548,9.936401 12.757635,9.936402 12.902034,9.936402 12.93595,9.936401 12.948702,9.936401" style="fill: white" /><polygon type="contour" points="12.948702,9.607501 12.711755,9.607501 12.711614,9.60585 12.711614,9.566202 12.711755,9.561536 12.711755,9.524201 12.948702,9.524201" style="fill: white" /><polygon type="contour" points="13.360902,9.607501 13.277598,9.607501 13.277598,9.524201 13.360902,9.524201" style="fill: white" /><polygon type="contour" points="13.360902,9.195301 13.277598,9.195301 13.277598,8.997702 13.360902,8.997702" style="fill: white" /><polygon type="contour" points="12.902034,8.99798 12.93595,8.997702 12.948702,8.997702 12.948701,9.044646 12.948701,9.148634 12.948702,9.195301 12.712548,9.195301 12.71271,9.148634 12.71271,9.044646 12.712642,9.007776 12.7127,8.997702 12.874855,8.997702" style="fill: white" /><polygon type="contour" points="12.948702,8.668801 12.713473,8.668801 12.713473,8.623057 12.713784,8.586201 12.948702,8.586201" style="fill: white" /><polygon type="contour" points="13.360902,8.668801 13.277598,8.668801 13.277598,8.586201 13.360902,8.586201" style="fill: white" /><polygon type="contour" points="13.360902,8.257303 13.277598,8.257303 13.277598,8.059701 13.360902,8.059701" style="fill: white" /><polygon type="contour" points="12.902035,8.059702 12.93595,8.059701 12.948702,8.059701 12.948702,8.257303 12.902035,8.257025 12.874855,8.257303 12.714574,8.257303 12.714523,8.211274 12.714523,8.107098 12.714685,8.070072 12.714726,8.059701 12.874855,8.059701" style="fill: white" /><polygon type="contour" points="12.948702,7.7308 12.715186,7.7308 12.715186,7.647501 12.948702,7.647501" style="fill: white" /><polygon type="contour" points="13.360902,7.7308 13.277598,7.7308 13.277598,7.647501 13.360902,7.647501" style="fill: white" /><polygon type="contour" points="13.360902,7.3186 13.277598,7.3186 13.277598,7.121001 13.360902,7.121001" style="fill: white" /><polygon type="contour" points="13.887123,7.167946 13.887123,7.271934 13.887326,7.305848 13.887326,7.3186 13.840407,7.318601 13.736468,7.318601 13.689802,7.3186 13.689802,7.167944 13.689573,7.121001 13.736468,7.121279 13.8074,7.121279 13.840408,7.121002 13.874577,7.121001 13.887555,7.121001" style="fill: white" /><polygon type="contour" points="14.298902,6.793236 14.215602,6.793236 14.215602,6.279461 14.215601,6.256848 14.2156,6.229668 14.2156,6.183001 14.298902,6.183001" style="fill: white" /><polygon type="contour" points="14.298902,7.167946 14.298902,7.3186 14.215602,7.3186 14.215602,7.178502 14.215601,7.167944 14.2156,7.133827 14.2156,7.121001 14.299131,7.121001" style="fill: white" /><polygon type="contour" points="14.298902,7.7308 14.215602,7.7308 14.215602,7.647501 14.298902,7.647501" style="fill: white" /><polygon type="contour" points="13.887326,7.7308 13.689802,7.7308 13.689802,7.647501 13.887326,7.647501" style="fill: white" /><polygon type="contour" points="13.887402,8.107097 13.887402,8.211274 13.887326,8.257303 13.840407,8.257302 13.7698,8.257302 13.736466,8.257025 13.702551,8.257303 13.6898,8.257303 13.6898,8.211275 13.689801,8.1397 13.689801,8.107098 13.689802,8.072831 13.689802,8.059701 13.736468,8.059702 13.840407,8.059702 13.874651,8.059701 13.887326,8.059701" style="fill: white" /><polygon type="contour" points="14.298902,8.257303 14.215602,8.257303 14.215602,8.059701 14.298902,8.059701" style="fill: white" /><polygon type="contour" points="14.298902,8.668801 14.215602,8.668801 14.215602,8.586201 14.298902,8.586201" style="fill: white" /><polygon type="contour" points="13.887326,8.668801 13.689802,8.668801 13.689802,8.586201 13.887326,8.586201" style="fill: white" /><polygon type="contour" points="13.887123,9.044645 13.887123,9.148635 13.887326,9.182549 13.887326,9.195301 13.689802,9.195301 13.689802,8.997702 13.736467,8.99798 13.8074,8.99798 13.840408,8.997703 13.874651,8.997702 13.887326,8.997702" style="fill: white" /><polygon type="contour" points="14.298902,9.195301 14.2156,9.195301 14.215601,9.148634 14.215602,9.138501 14.215602,8.997702 14.298902,8.997702" style="fill: white" /><polygon type="contour" points="14.298902,9.607501 14.215602,9.607501 14.215602,9.524201 14.298902,9.524201" style="fill: white" /><polygon type="contour" points="13.887326,9.607501 13.689802,9.607501 13.689802,9.524201 13.887326,9.524201" style="fill: white" /><polygon type="contour" points="13.887123,9.983068 13.887123,10.087058 13.887326,10.134003 13.840408,10.134002 13.8074,10.133724 13.736467,10.133724 13.689802,10.134003 13.689802,9.936401 13.736468,9.936402 13.840407,9.936402 13.874651,9.936401 13.887326,9.936401" style="fill: white" /><polygon type="contour" points="14.298902,10.134003 14.215602,10.134003 14.215602,9.936401 14.298902,9.936401" style="fill: white" /><polygon type="contour" points="14.298902,10.545501 14.215602,10.545501 14.215602,10.462901 14.298902,10.462901" style="fill: white" /><polygon type="contour" points="13.887326,10.545501 13.689802,10.545501 13.689802,10.462901 13.887326,10.462901" style="fill: white" /><polygon type="contour" points="13.887402,10.920429 13.887402,11.024606 13.887326,11.058871 13.887326,11.072003 13.840407,11.072002 13.736468,11.072002 13.689802,11.072003 13.689801,11.024605 13.689801,10.920429 13.689802,10.874401 13.736467,10.874679 13.769801,10.874402 13.840407,10.874402 13.874651,10.874401 13.887326,10.874401" style="fill: white" /><polygon type="contour" points="14.298902,11.072003 14.215602,11.072003 14.215602,10.929803 14.215601,10.920428 14.2156,10.887152 14.2156,10.874401 14.298902,10.874401" style="fill: white" /><polygon type="contour" points="14.298902,11.484203 14.215602,11.484203 14.215602,11.400901 14.298902,11.400901" style="fill: white" /><polygon type="contour" points="13.887326,11.484203 13.689802,11.484203 13.689802,11.400901 13.887326,11.400901" style="fill: white" /><polygon type="contour" points="13.874651,11.813104 13.887326,11.813104 13.887123,11.85977 13.887123,11.963757 13.887325,12.010703 13.840408,12.010702 13.8074,12.010424 13.736467,12.010424 13.689802,12.010703 13.689802,11.813104 13.736468,11.813103 13.840407,11.813103" style="fill: white" /><polygon type="contour" points="14.298902,11.997874 14.299131,12.010703 14.215373,12.010703 14.215602,11.963757 14.215602,11.813104 14.298902,11.813104" style="fill: white" /><polygon type="contour" points="14.247281,12.338468 14.298902,12.338468 14.298902,12.948703 14.2156,12.948703 14.2156,12.902035 14.215601,12.874855 14.215602,12.852241 14.215602,12.518903 14.215605,12.518903 14.215601,12.396166 14.215601,12.338467" style="fill: white" /><polygon type="contour" points="14.298902,13.360903 14.215602,13.360903 14.215602,13.2776 14.298902,13.2776" style="fill: white" /><polygon type="contour" points="14.916635,13.360903 14.627802,13.360903 14.627802,13.2776 14.916635,13.2776" style="fill: white" /><polygon type="contour" points="14.916478,13.736469 14.916595,13.746601 14.916813,13.804895 14.916813,13.829902 14.916601,13.84041 14.916464,13.877327 14.91646,13.887327 14.847513,13.887064 14.794416,13.886926 14.707801,13.886926 14.640553,13.887327 14.627802,13.887327 14.627801,13.840409 14.627801,13.769801 14.628079,13.736469 14.627802,13.702553 14.627802,13.689803 14.91646,13.689803" style="fill: white" /><polygon type="contour" points="14.916635,14.298903 14.627802,14.298903 14.627802,14.215603 14.916635,14.215603" style="fill: white" /><polygon type="contour" points="14.847513,14.627803 14.91646,14.627803 14.91632,14.707802 14.916319,14.721634 14.916319,14.774009 14.999207,14.773832 15.063464,14.773845 15.107059,14.773859 15.10683,15.004006 15.106888,15.029823 15.106888,15.10689 14.794178,15.107218 14.789136,15.107218 14.774027,15.107231 14.774027,14.916665 14.721631,14.916939 14.707802,14.916799 14.637831,14.916433 14.627802,14.916463 14.627801,14.870993 14.6278,14.794417 14.6278,14.707802 14.627802,14.640553 14.627802,14.627803 14.707802,14.627802 14.794417,14.627802" style="fill: white" /><polygon type="contour" points="14.298902,14.916637 14.261733,14.916636 14.215602,14.916636 14.215602,14.627803 14.298902,14.627803" style="fill: white" /><polygon type="contour" points="13.360902,14.916637 13.277598,14.916637 13.277598,14.627803 13.360902,14.627803" style="fill: white" /><polygon type="contour" points="13.736467,14.62808 13.8074,14.62808 13.840408,14.627803 13.887326,14.627803 13.887401,14.707802 13.887401,14.794417 13.887178,14.870993 13.887326,14.900979 13.887326,14.916463 13.840407,14.916604 13.8299,14.916815 13.771809,14.916599 13.7466,14.916599 13.736467,14.91648 13.699876,14.916467 13.689802,14.916463 13.689802,14.627802" style="fill: white" /><polygon type="contour" points="13.887326,14.298903 13.689802,14.298903 13.689802,14.215603 13.887326,14.215603" style="fill: white" /><polygon type="contour" points="14.298902,14.298903 14.215602,14.298903 14.215602,14.215603 14.298902,14.215603" style="fill: white" /><polygon type="contour" points="14.298902,13.887327 14.215602,13.887327 14.215602,13.829901 14.2156,13.804894 14.2156,13.746602 14.215601,13.736468 14.215602,13.702553 14.215602,13.689803 14.298902,13.689803" style="fill: white" /><polygon type="contour" points="13.887123,13.736469 13.887401,13.769801 13.887401,13.840409 13.887326,13.874652 13.887326,13.887327 13.840407,13.887401 13.8074,13.887124 13.736468,13.887124 13.689802,13.887327 13.689802,13.689803 13.887326,13.689803" style="fill: white" /><polygon type="contour" points="13.887326,13.360903 13.689802,13.360903 13.689802,13.2776 13.887326,13.2776" style="fill: white" /><polygon type="contour" points="13.360902,12.948703 13.277598,12.948703 13.277598,12.338468 13.360902,12.338468" style="fill: white" /><polygon type="contour" points="13.360902,13.360903 13.277598,13.360903 13.277598,13.2776 13.360902,13.2776" style="fill: white" /><polygon type="contour" points="12.778579,13.277601 12.85224,13.277601 12.874854,13.2776 12.948702,13.2776 12.948702,13.360903 12.338465,13.360903 12.338465,13.2776 12.671201,13.2776" style="fill: white" /><polygon type="contour" points="12.948701,13.736469 12.948701,13.840409 12.948702,13.874652 12.948702,13.887327 12.902034,13.887124 12.874855,13.887402 12.631613,13.887402 12.421369,13.887161 12.421369,13.887273 12.354093,13.887273 12.338803,13.887306 12.338619,13.840409 12.338409,13.829902 12.338409,13.804894 12.338411,13.746601 12.338621,13.736469 12.338803,13.705995 12.338803,13.689803 12.410028,13.689804 12.518862,13.689804 12.518862,13.689803 12.948702,13.689803" style="fill: white" /><polygon type="contour" points="13.360902,13.887327 13.277598,13.887327 13.277598,13.689803 13.360902,13.689803" style="fill: white" /><polygon type="contour" points="13.360902,14.298903 13.277598,14.298903 13.277598,14.215603 13.360902,14.215603" style="fill: white" /><polygon type="contour" points="12.948702,14.298903 12.338465,14.298903 12.338465,14.215603 12.948702,14.215603" style="fill: white" /><polygon type="contour" points="12.902034,14.628079 12.93595,14.627803 12.948702,14.627803 12.948702,14.794417 12.948701,14.870993 12.948702,14.900978 12.948702,14.916463 12.852241,14.917072 12.85243,14.982528 12.852343,15.063466 12.852359,15.107061 12.831242,15.107111 12.519207,15.107111 12.519136,15.068567 12.519142,15.063466 12.519299,14.977337 12.519278,14.916124 12.396165,14.916699 12.338466,14.916928 12.338503,14.855152 12.338649,14.771417 12.338282,14.731488 12.338282,14.721634 12.338423,14.707802 12.338803,14.644092 12.338803,14.627899 12.410027,14.627899 12.518862,14.628225 12.518862,14.627933 12.631613,14.627802 12.874855,14.627802" style="fill: white" /><polygon type="contour" points="11.4842,14.916637 11.400899,14.916637 11.400899,14.627803 11.4842,14.627803" style="fill: white" /><polygon type="contour" points="12.0107,14.794419 12.010477,14.870993 12.0107,14.916488 11.963756,14.91648 11.953199,14.916599 11.869901,14.916599 11.859767,14.91648 11.813101,14.916463 11.813101,14.870993 11.8131,14.794417 11.8131,14.707802 11.813101,14.640554 11.813101,14.627803 11.859768,14.62808 11.963756,14.62808 11.997872,14.627803 12.0107,14.627803" style="fill: white" /><polygon type="contour" points="12.0107,14.299132 11.963756,14.298903 11.813101,14.298903 11.813101,14.215603 12.0107,14.215603" style="fill: white" /><polygon type="contour" points="12.010422,13.736468 12.0107,13.769801 12.0107,13.887556 11.963755,13.887124 11.859768,13.887124 11.813101,13.887327 11.813101,13.689803 12.0107,13.689803" style="fill: white" /><polygon type="contour" points="12.0107,13.361132 11.963756,13.360903 11.813101,13.360903 11.813101,13.2776 11.997872,13.2776 12.0107,13.277371" style="fill: white" /><polygon type="contour" points="11.859767,12.716213 11.892823,12.716213 11.909883,12.716081 11.980489,12.716081 12.0107,12.716094 12.0107,12.874855 12.010422,12.902035 12.0107,12.935878 12.0107,12.948703 11.963755,12.948702 11.859768,12.948702 11.813101,12.948703 11.813101,12.902036 11.8131,12.874855 11.8131,12.759954 11.813101,12.727966 11.813101,12.715975" style="fill: white" /><polygon type="contour" points="11.4842,12.948703 11.400899,12.948703 11.400899,12.715188 11.4842,12.715188" style="fill: white" /><polygon type="contour" points="11.4842,13.360903 11.400899,13.360903 11.400899,13.2776 11.4842,13.2776" style="fill: white" /><polygon type="contour" points="11.072001,13.360903 10.874399,13.360903 10.874399,13.2776 11.072001,13.2776" style="fill: white" /><polygon type="contour" points="11.072001,13.689803 11.072001,13.736468 11.072,13.769802 11.072,13.840409 11.072001,13.874652 11.072001,13.887327 11.024604,13.887403 10.920427,13.887403 10.874399,13.887327 10.8744,13.840409 10.8744,13.769801 10.874678,13.736469 10.874399,13.702553 10.874399,13.689803 10.920427,13.689802 11.024603,13.689802" style="fill: white" /><polygon type="contour" points="11.4842,13.887327 11.400899,13.887327 11.400899,13.689803 11.4842,13.689803" style="fill: white" /><polygon type="contour" points="11.4842,14.298903 11.400899,14.298903 11.400899,14.215603 11.4842,14.215603" style="fill: white" /><polygon type="contour" points="11.072001,14.298903 10.874399,14.298903 10.874399,14.215603 11.072001,14.215603" style="fill: white" /><polygon type="contour" points="11.072,14.707802 11.072,14.794417 11.072001,14.870993 11.072001,14.916463 11.024603,14.916511 11.013101,14.916512 11.00318,14.916383 10.953332,14.916645 10.940592,14.916383 10.929801,14.916512 10.920426,14.91651 10.874399,14.916463 10.874623,14.870992 10.874399,14.794418 10.874399,14.627803 10.953029,14.627803 11.024604,14.627802 11.072001,14.627802" style="fill: white" /><polygon type="contour" points="10.545499,14.916637 10.499756,14.916637 10.496745,14.916564 10.462899,14.916564 10.462899,14.627803 10.545499,14.627803" style="fill: white" /><polygon type="contour" points="10.134001,14.794418 10.133777,14.870992 10.134001,14.900979 10.134001,14.916463 10.087057,14.91648 10.0765,14.916599 9.9932,14.916599 9.983066,14.91648 9.936399,14.916463 9.9364,14.870992 9.9364,14.707802 9.936399,14.640554 9.936399,14.627803 9.983066,14.62808 10.087057,14.62808 10.134001,14.627803" style="fill: white" /><polygon type="contour" points="10.134001,14.298903 9.936399,14.298903 9.936399,14.215603 10.134001,14.215603" style="fill: white" /><polygon type="contour" points="10.545499,14.298903 10.462899,14.298903 10.462899,14.215603 10.545499,14.215603" style="fill: white" /><polygon type="contour" points="10.545499,13.887327 10.462899,13.887327 10.462899,13.689803 10.545499,13.689803" style="fill: white" /><polygon type="contour" points="10.133723,13.736468 10.134,13.769802 10.134,13.840408 10.134001,13.874652 10.134001,13.887327 10.087057,13.887124 9.983065,13.887124 9.949151,13.887327 9.936399,13.887327 9.9364,13.840409 9.9364,13.736469 9.936399,13.702553 9.936399,13.689803 10.134001,13.689803" style="fill: white" /><polygon type="contour" points="10.134001,13.360903 9.936399,13.360903 9.936399,13.2776 10.134001,13.2776" style="fill: white" /><polygon type="contour" points="9.607499,13.360903 9.524199,13.360903 9.524199,13.2776 9.607499,13.2776" style="fill: white" /><polygon type="contour" points="9.195299,13.360903 8.9977,13.360903 8.9977,13.2776 9.195299,13.2776" style="fill: white" /><polygon type="contour" points="9.195299,13.736468 9.1953,13.769802 9.1953,13.840409 9.195299,13.874652 9.195299,13.887327 9.148631,13.887124 9.044643,13.887124 8.9977,13.887327 8.9977,13.769801 8.997978,13.736469 8.9977,13.702553 8.9977,13.689803 9.195299,13.689803" style="fill: white" /><polygon type="contour" points="9.607499,13.887327 9.524199,13.887327 9.524199,13.689803 9.607499,13.689803" style="fill: white" /><polygon type="contour" points="9.607499,14.298903 9.524199,14.298903 9.524199,14.215603 9.607499,14.215603" style="fill: white" /><polygon type="contour" points="9.195299,14.298903 8.9977,14.298903 8.9977,14.215603 9.195299,14.215603" style="fill: white" /><polygon type="contour" points="9.1953,14.707803 9.1953,14.794417 9.195299,14.870993 9.195299,14.916463 9.148632,14.91648 9.138498,14.916599 9.12961,14.916539 9.100368,14.916644 9.07568,14.916736 9.0552,14.916599 9.044643,14.91648 8.9977,14.916463 8.997923,14.870993 8.9977,14.794417 8.9977,14.627803 9.044643,14.62808 9.0777,14.628081 9.148632,14.628081 9.195299,14.627803" style="fill: white" /><polygon type="contour" points="8.668799,14.916637 8.631943,14.916636 8.5862,14.916636 8.5862,14.627803 8.668799,14.627803" style="fill: white" /><polygon type="contour" points="8.257301,14.794418 8.257077,14.870992 8.257301,14.900979 8.257301,14.916462 8.211273,14.91651 8.201898,14.916512 8.192828,14.91661 8.163767,14.916645 8.139311,14.916383 8.1186,14.916512 8.107097,14.916511 8.0597,14.916463 8.0597,14.627803 8.257301,14.627803" style="fill: white" /><polygon type="contour" points="8.257301,14.298903 8.0597,14.298903 8.0597,14.215603 8.257301,14.215603" style="fill: white" /><polygon type="contour" points="8.668799,14.298903 8.5862,14.298903 8.5862,14.215603 8.668799,14.215603" style="fill: white" /><polygon type="contour" points="8.668799,13.887327 8.5862,13.887327 8.5862,13.689803 8.668799,13.689803" style="fill: white" /><polygon type="contour" points="8.24455,13.689803 8.257301,13.689803 8.257022,13.736469 8.2573,13.769801 8.2573,13.840409 8.257301,13.874652 8.257301,13.887327 8.211272,13.887403 8.107096,13.887403 8.072831,13.887327 8.0597,13.887327 8.0597,13.689803 8.107097,13.689802 8.211272,13.689802" style="fill: white" /><polygon type="contour" points="8.257301,13.360903 8.0597,13.360903 8.0597,13.2776 8.257301,13.2776" style="fill: white" /><polygon type="contour" points="8.668799,13.360903 8.5862,13.360903 8.5862,13.2776 8.668799,13.2776" style="fill: white" /><polygon type="contour" points="8.668799,12.948703 8.5862,12.948703 8.5862,12.713786 8.623055,12.713474 8.668799,12.713474" style="fill: white" /><polygon type="contour" points="8.247227,12.714627 8.257301,12.714576 8.257301,12.874855 8.257022,12.902035 8.257301,12.935951 8.257301,12.948703 8.0597,12.948703 8.0597,12.714728 8.070071,12.714687 8.107097,12.714525 8.211272,12.714525" style="fill: white" /><polygon type="contour" points="7.3186,12.759954 7.3186,12.874855 7.318599,12.902036 7.318599,12.948703 7.271932,12.948702 7.167944,12.948702 7.133828,12.948703 7.121,12.948932 7.121278,12.902035 7.121001,12.874855 7.121001,12.759954 7.121,12.728002 7.121,12.716094 7.167943,12.716212 7.178499,12.716525 7.20371,12.716313 7.238877,12.716213 7.271932,12.716213 7.308583,12.716026 7.318599,12.715975" style="fill: white" /><polygon type="contour" points="7.730799,12.948703 7.6475,12.948703 7.6475,12.715188 7.730799,12.715188" style="fill: white" /><polygon type="contour" points="7.730799,13.360903 7.6475,13.360903 7.6475,13.2776 7.730799,13.2776" style="fill: white" /><polygon type="contour" points="7.318599,13.360903 7.121,13.360903 7.121,13.2776 7.318599,13.2776" style="fill: white" /><polygon type="contour" points="7.167943,13.689803 7.318599,13.689803 7.318599,13.887327 7.271932,13.887124 7.167944,13.887124 7.133828,13.887327 7.121,13.887556 7.121,13.769801 7.121278,13.736469 7.121,13.702626 7.121,13.689574" style="fill: white" /><polygon type="contour" points="6.793077,13.736468 6.793289,13.746602 6.79329,13.804894 6.79329,13.829902 6.793079,13.840409 6.792895,13.871114 6.792895,13.887306 6.721064,13.887306 6.612708,13.886993 6.612708,13.887272 6.500086,13.887402 6.256845,13.887402 6.229666,13.887124 6.195749,13.887327 6.182998,13.887327 6.182999,13.840409 6.182999,13.769802 6.182998,13.736468 6.182998,13.689803 6.792895,13.689803" style="fill: white" /><polygon type="contour" points="6.486326,13.277601 6.612425,13.2776 6.735043,13.2776 6.793234,13.277601 6.793234,13.360903 6.182998,13.360903 6.182998,13.2776 6.460497,13.2776" style="fill: white" /><polygon type="contour" points="5.854098,12.948703 5.770798,12.948703 5.770798,12.338468 5.854098,12.338468" style="fill: white" /><polygon type="contour" points="5.854098,13.360903 5.770798,13.360903 5.770798,13.2776 5.854098,13.2776" style="fill: white" /><polygon type="contour" points="5.4419,13.286632 5.441898,13.360903 5.244376,13.360903 5.244376,13.2776 5.4419,13.2776" style="fill: white" /><polygon type="contour" points="4.9161,12.948703 4.832799,12.948703 4.832799,12.338468 4.9161,12.338468" style="fill: white" /><polygon type="contour" points="4.916101,13.323733 4.9161,13.360903 4.832799,13.360903 4.832799,13.2776 4.916101,13.2776" style="fill: white" /><polygon type="contour" points="4.410068,13.277601 4.4239,13.277601 4.491146,13.2776 4.503898,13.2776 4.503898,13.360903 4.215066,13.360903 4.215066,13.314769 4.215067,13.2776 4.396642,13.2776" style="fill: white" /><polygon type="contour" points="4.503621,13.736469 4.503899,13.769801 4.503899,13.840409 4.503898,13.874652 4.503898,13.887327 4.423899,13.886926 4.337283,13.886926 4.284185,13.887064 4.230721,13.887327 4.215239,13.887327 4.215097,13.840409 4.214887,13.829902 4.214887,13.804895 4.215104,13.746601 4.215222,13.736469 4.215234,13.699877 4.215239,13.689803 4.503898,13.689803" style="fill: white" /><polygon type="contour" points="4.9161,13.887327 4.832799,13.887327 4.832799,13.689803 4.9161,13.689803" style="fill: white" /><polygon type="contour" points="4.9161,14.298903 4.832799,14.298903 4.832799,14.215603 4.9161,14.215603" style="fill: white" /><polygon type="contour" points="4.503898,14.298903 4.215066,14.298903 4.215066,14.215603 4.503898,14.215603" style="fill: white" /><polygon type="contour" points="4.491146,14.627803 4.503897,14.627803 4.503899,14.707803 4.503899,14.870992 4.503898,14.900978 4.503898,14.916463 4.423898,14.916799 4.410068,14.916939 4.357632,14.916665 4.357632,15.024159 4.357671,15.107231 4.342561,15.107218 4.337519,15.107218 4.024811,15.10689 4.024811,15.029824 4.024868,15.004006 4.024641,14.773859 4.057775,14.773986 4.068234,14.773845 4.215381,14.774044 4.215381,14.721634 4.21538,14.707803 4.215235,14.637877 4.215239,14.627803 4.284186,14.627803 4.337282,14.627802 4.423899,14.627802" style="fill: white" />
</svg>
