<svg width="19.131698" height="19.131699">
<polygon type="contour" points="17.078834,17.587622 16.98117,17.587346 16.883336,17.587072 16.883336,17.507582 16.883436,17.444896 16.969776,17.44482 17.078834,17.44482" style="fill: white" /><polygon type="contour" points="17.777474,17.444274 17.777428,17.491641 17.778026,17.75936 17.778026,17.778028 17.696975,17.778114 17.696495,17.77803 17.444242,17.777446 17.444358,17.754979 17.444358,17.732395 17.444326,17.731633 17.444342,17.714385 17.444352,17.707037 17.444598,17.656184 17.444683,17.625688 17.44482,17.587623 17.44482,17.44482 17.587622,17.44482 17.625685,17.444686 17.656182,17.4446 17.707035,17.444354 17.714383,17.444344 17.731632,17.444328 17.754977,17.44436 17.756072,17.444268" style="fill: white" /><polygon type="contour" points="17.587343,16.981171 17.587618,17.078834 17.44482,17.078834 17.444896,16.980976 17.444896,16.883438 17.516024,16.883438 17.58707,16.883338" style="fill: white" /><polygon type="contour" points="17.078734,16.883438 17.078834,16.969776 17.078834,17.078834 16.980975,17.078736 16.883436,17.078736 16.883436,16.980976 16.883336,16.883338 16.992586,16.883338" style="fill: white" /><polygon type="contour" points="15.522969,16.959634 15.522969,17.07846 15.279833,17.07846 14.956834,17.078834 14.953407,16.976123 14.956636,16.883296 15.279244,16.883296 15.523003,16.883106" style="fill: white" /><polygon type="contour" points="15.523086,17.444715 15.523086,17.560755 15.523122,17.587422 15.523102,17.619698 15.52303,17.652371 15.522806,17.706016 15.522671,17.713443 15.522798,17.731081 15.522695,17.732395 15.522695,17.75498 15.522767,17.756074 15.522775,17.777476 15.265766,17.778082 15.190181,17.778082 15.190134,17.75241 15.190078,17.739431 15.190078,17.682778 15.055698,17.682864 15.038273,17.682432 14.94823,17.682366 14.946539,17.589959 14.949785,17.444765 15.316864,17.444686" style="fill: white" /><polygon type="contour" points="16.01726,17.444768 16.152756,17.444895 16.152756,17.516025 16.152698,17.587072 15.997889,17.587268 15.821068,17.587492 15.821068,17.444692" style="fill: white" /><polygon type="contour" points="16.152698,16.883338 16.152698,16.992588 16.152756,17.078736 15.970194,17.078405 15.820927,17.07846 15.820815,16.990668 15.820815,16.883106 15.970195,16.883106" style="fill: white" /><polygon type="contour" points="16.153308,15.279247 16.15293,15.523005 16.033616,15.523194 15.821068,15.523194 15.821189,15.293109 15.821189,14.957922 15.974595,14.961982 16.153103,14.95757" style="fill: white" /><polygon type="contour" points="15.523041,15.315732 15.523123,15.523124 15.312442,15.523114 15.199083,15.523013 14.964098,15.523013 14.950582,15.314707 14.968362,15.083985 14.964659,14.96466 15.083983,14.968363 15.523041,14.95175" style="fill: white" /><polygon type="contour" points="15.523192,16.033616 15.523002,16.152932 15.279569,16.152657 14.956962,16.152657 14.961687,15.967538 14.958116,15.821184 15.181165,15.821184 15.523192,15.821069" style="fill: white" /><polygon type="contour" points="16.15293,15.970196 16.152698,16.1527 15.966692,16.1527 15.820815,16.152932 15.820815,15.970196 15.820927,15.951129 15.821068,15.821068 15.970194,15.820817 16.15293,15.820817" style="fill: white" /><polygon type="contour" points="16.959631,15.820928 17.078456,15.820928 17.078402,15.970196 17.078734,16.152759 16.980976,16.152759 16.883336,16.1527 16.883336,15.966696 16.883104,15.820817" style="fill: white" /><polygon type="contour" points="17.587299,15.970197 17.58707,16.1527 17.50758,16.1527 17.444895,16.152759 17.444768,16.017263 17.44469,15.821069 17.58749,15.821069" style="fill: white" /><polygon type="contour" points="17.682798,15.017837 17.682775,15.190078 17.739429,15.190078 17.752407,15.190135 17.752966,15.190145 17.77808,15.190182 17.77808,15.265766 17.777473,15.522777 17.754978,15.522697 17.731079,15.5228 17.713441,15.522673 17.706012,15.52281 17.65237,15.523031 17.619694,15.523103 17.587417,15.523124 17.470267,15.523124 17.444711,15.523087 17.444704,15.312288 17.444712,15.160403 17.444756,14.965245 17.637793,14.967476 17.682788,14.963056" style="fill: white" /><polygon type="contour" points="17.078834,14.956837 17.078834,15.231016 17.078455,15.522971 16.990663,15.523005 16.883104,15.523005 16.883294,15.279247 16.883294,14.956639 16.976121,14.95341" style="fill: white" /><polygon type="contour" points="17.619694,3.608603 17.65237,3.608673 17.706012,3.608895 17.713441,3.609031 17.73108,3.608905 17.732393,3.609008 17.754977,3.609008 17.756072,3.608935 17.777474,3.608928 17.77808,3.865937 17.77808,3.941521 17.752407,3.941569 17.739429,3.941625 17.682774,3.941625 17.68299,4.075979 17.682932,4.093604 17.682744,4.18339 17.514575,4.16731 17.444756,4.166457 17.444712,3.9713 17.444712,3.608618 17.560751,3.608618 17.587418,3.608581" style="fill: white" /><polygon type="contour" points="16.959632,3.608734 17.078456,3.608734 17.078456,3.85187 17.078834,4.174867 16.976122,4.178294 16.883294,4.175066 16.883294,3.852456 16.883104,3.6087" style="fill: white" /><polygon type="contour" points="17.078402,3.161509 17.078456,3.310777 16.990663,3.310886 16.883104,3.310886 16.883104,3.161508 16.883336,2.979003 16.992585,2.979003 17.078734,2.978946" style="fill: white" /><polygon type="contour" points="17.58707,2.979003 17.587202,3.083846 17.58749,3.310635 17.44469,3.310635 17.444768,3.11444 17.444896,2.978946 17.516024,2.978946" style="fill: white" /><polygon type="contour" points="17.778026,1.353675 17.778026,1.372343 17.777428,1.640062 17.777474,1.687429 17.754978,1.687343 17.732393,1.687343 17.731632,1.687376 17.714383,1.68736 17.707036,1.68735 17.656181,1.687102 17.625686,1.687017 17.587622,1.686882 17.44482,1.686882 17.44482,1.544081 17.444683,1.506014 17.444597,1.475519 17.444352,1.424666 17.444342,1.417318 17.444326,1.40007 17.44436,1.376724 17.444265,1.375629 17.444241,1.354259 17.696496,1.353673 17.696976,1.353591" style="fill: white" /><polygon type="contour" points="17.587343,2.15053 17.58707,2.248367 17.507579,2.248367 17.444896,2.248267 17.44482,2.161924 17.44482,2.052867 17.587618,2.052867" style="fill: white" /><polygon type="contour" points="17.078734,2.150727 17.078734,2.248267 16.980976,2.248267 16.883336,2.248367 16.883336,2.139114 16.883436,2.052967 16.969775,2.052867 17.078834,2.052867" style="fill: white" /><polygon type="contour" points="17.078834,1.686882 16.980975,1.687157 16.883436,1.687157 16.883436,1.615677 16.883336,1.544631 16.98117,1.544355 17.078834,1.544081" style="fill: white" /><polygon type="contour" points="15.522775,1.354227 15.522695,1.376724 15.522798,1.400622 15.522671,1.41826 15.522807,1.425688 15.523029,1.47933 15.523102,1.512006 15.523123,1.544281 15.523123,1.661432 15.523086,1.686986 15.115716,1.686881 14.949737,1.687026 14.95133,1.6021 14.94823,1.449337 15.038272,1.449272 15.055698,1.448839 15.190078,1.448925 15.190078,1.39227 15.190134,1.379292 15.190144,1.378734 15.190181,1.353622 15.265767,1.353622" style="fill: white" /><polygon type="contour" points="16.020158,1.544463 16.152698,1.544631 16.152698,1.624514 16.152756,1.687157 16.017259,1.686934 15.821068,1.68701 15.821068,1.544211" style="fill: white" /><polygon type="contour" points="16.152756,2.150726 16.152697,2.248367 15.966693,2.248367 15.820815,2.248598 15.820927,2.172067 15.820927,2.053243 15.970194,2.053298 16.152756,2.052967" style="fill: white" /><polygon type="contour" points="15.522969,2.053243 15.523003,2.141038 15.523003,2.248598 15.279244,2.248408 14.956636,2.248408 14.953407,2.155578 14.956834,2.052867 15.231013,2.052867" style="fill: white" /><polygon type="contour" points="15.523192,3.098085 15.523192,3.310635 15.295257,3.310635 14.958116,3.31052 14.951541,3.125434 14.956962,2.979047 15.279569,2.979047 15.523003,2.978772" style="fill: white" /><polygon type="contour" points="16.152698,2.979003 16.152698,3.165004 16.15293,3.310886 16.033616,3.310635 15.821068,3.310635 15.820815,3.161508 15.820815,2.978772 15.970194,2.978772" style="fill: white" /><polygon type="contour" points="15.970194,3.6087 16.15293,3.6087 16.153308,3.852456 16.153102,4.174134 16.005531,4.180099 15.821189,4.173782 15.821068,3.946167 15.821068,3.608511" style="fill: white" /><polygon type="contour" points="15.523041,3.815972 15.523041,4.179954 15.314706,4.181119 15.083984,4.16334 14.964659,4.167042 14.968362,4.047717 14.964098,3.608692 15.199083,3.608692 15.312442,3.608591 15.523123,3.608581" style="fill: white" /><polygon type="contour" points="3.310512,3.838594 3.310512,4.173782 3.157106,4.169722 2.978597,4.174134 2.978393,3.852456 2.97877,3.608699 3.098083,3.608511 3.310633,3.608511" style="fill: white" /><polygon type="contour" points="3.819258,3.608591 3.932618,3.608692 4.167601,3.608692 4.181117,3.816997 4.163338,4.047718 4.16704,4.167042 4.047715,4.16334 3.60866,4.179954 3.60866,3.815971 3.608578,3.608581" style="fill: white" /><polygon type="contour" points="3.310884,3.161509 3.310775,3.180573 3.310633,3.310635 3.161506,3.310886 2.97877,3.310886 2.97877,3.161508 2.979002,2.979003 3.165003,2.979003 3.310884,2.978772" style="fill: white" /><polygon type="contour" points="3.852129,2.979047 4.174737,2.979047 4.170013,3.164165 4.173584,3.31052 3.950533,3.31052 3.608509,3.310635 3.608509,3.098085 3.608698,2.978772" style="fill: white" /><polygon type="contour" points="4.178293,2.155578 4.175064,2.248408 3.852455,2.248408 3.608698,2.248598 3.608733,2.172067 3.608733,2.053243 3.851868,2.053243 4.174865,2.052867" style="fill: white" /><polygon type="contour" points="3.941567,1.379292 3.941623,1.39227 3.941623,1.448925 4.113863,1.448903 4.168646,1.448913 4.164226,1.493908 4.181913,1.686935 3.814836,1.687017 3.608616,1.686986 3.608616,1.570948 3.608579,1.544281 3.608601,1.512005 3.608671,1.479331 3.608893,1.425689 3.60903,1.418259 3.608903,1.400622 3.609006,1.399308 3.609006,1.376725 3.608933,1.37563 3.608926,1.354227 3.865934,1.353622 3.941519,1.353622" style="fill: white" /><polygon type="contour" points="3.310633,1.68701 3.11444,1.686934 2.978945,1.687157 2.978944,1.615676 2.979001,1.544631 3.083844,1.544498 3.310633,1.544211" style="fill: white" /><polygon type="contour" points="3.161505,2.053298 3.310775,2.053242 3.310884,2.141037 3.310884,2.248598 3.161507,2.248598 2.979002,2.248367 2.979001,2.139115 2.978944,2.052967" style="fill: white" /><polygon type="contour" points="1.435205,1.353673 1.687458,1.354259 1.687341,1.376724 1.687341,1.399308 1.687374,1.400069 1.687359,1.417317 1.687348,1.424666 1.687101,1.47552 1.687015,1.506014 1.686881,1.544081 1.686881,1.686882 1.54408,1.686882 1.506013,1.687017 1.475518,1.687102 1.424664,1.68735 1.417316,1.68736 1.400067,1.687376 1.376722,1.687342 1.375627,1.687436 1.354226,1.687429 1.354272,1.640062 1.353674,1.372343 1.353674,1.353675 1.434724,1.353591" style="fill: white" /><polygon type="contour" points="2.150527,1.544355 2.248363,1.544631 2.248365,1.624514 2.248265,1.687157 2.161923,1.686882 2.052865,1.686882 2.052865,1.544081" style="fill: white" /><polygon type="contour" points="1.687155,2.150726 1.687155,2.248267 1.615675,2.248267 1.544629,2.248367 1.544353,2.150529 1.54408,2.052867 1.686881,2.052867" style="fill: white" /><polygon type="contour" points="2.150725,2.052967 2.248265,2.052967 2.248265,2.150726 2.248365,2.248367 2.139112,2.248367 2.052966,2.248267 2.052865,2.161924 2.052865,2.052867" style="fill: white" /><polygon type="contour" points="2.248365,2.979003 2.248365,3.165005 2.248596,3.310886 2.172064,3.310777 2.053241,3.310777 2.053296,3.161509 2.052966,2.978946 2.150724,2.978946" style="fill: white" /><polygon type="contour" points="1.686933,3.11444 1.687009,3.310635 1.54421,3.310635 1.544397,3.161509 1.544398,3.161508 1.544629,2.979003 1.624512,2.979003 1.687155,2.978946" style="fill: white" /><polygon type="contour" points="1.686985,3.608618 1.686985,3.762364 1.686987,3.9713 1.686943,4.166457 1.602098,4.180371 1.448956,4.18339 1.448768,4.093605 1.448709,4.075978 1.448923,3.941625 1.392268,3.941625 1.37929,3.941569 1.378733,3.941559 1.353621,3.941521 1.353621,3.865936 1.354226,3.608928 1.376722,3.609008 1.40062,3.608905 1.418258,3.609031 1.425686,3.608895 1.47933,3.608672 1.512004,3.608603 1.54428,3.608581 1.661429,3.608581" style="fill: white" /><polygon type="contour" points="2.248407,3.852456 2.248407,4.175066 2.155576,4.178294 2.052865,4.174867 2.052865,3.900686 2.053241,3.608734 2.141036,3.6087 2.248596,3.6087" style="fill: white" /><polygon type="contour" points="2.248407,14.956639 2.248407,15.279247 2.248596,15.523005 2.172064,15.522971 2.053241,15.522971 2.053241,15.279835 2.052865,14.956837 2.155576,14.953409" style="fill: white" /><polygon type="contour" points="1.686944,14.965246 1.686987,15.160404 1.686993,15.312288 1.686985,15.523087 1.570947,15.523087 1.54428,15.523123 1.512004,15.523103 1.479329,15.523032 1.425686,15.52281 1.418257,15.522673 1.40062,15.5228 1.399306,15.522697 1.376723,15.522697 1.375628,15.522769 1.354226,15.522777 1.353621,15.265766 1.353621,15.190182 1.37929,15.190135 1.392268,15.190078 1.448923,15.190078 1.448901,15.017837 1.448911,14.963056 1.615894,14.957528" style="fill: white" /><polygon type="contour" points="1.686933,16.017263 1.687155,16.152759 1.615674,16.152759 1.544629,16.1527 1.544432,15.997892 1.54421,15.821069 1.687009,15.821069" style="fill: white" /><polygon type="contour" points="2.248596,15.970196 2.248364,16.1527 2.139113,16.1527 2.052966,16.152759 2.053296,15.970196 2.053241,15.820928 2.141036,15.820817 2.248596,15.820817" style="fill: white" /><polygon type="contour" points="3.098083,15.821069 3.310633,15.821069 3.310884,15.970196 3.310884,16.152932 3.161506,16.152932 2.979002,16.1527 2.979002,15.966696 2.97877,15.820817" style="fill: white" /><polygon type="contour" points="3.310512,14.957922 3.310633,15.185535 3.310633,15.523194 3.161507,15.523005 2.97877,15.523005 2.978393,15.279247 2.978597,14.95757 3.126167,14.951604" style="fill: white" /><polygon type="contour" points="4.047716,14.968364 4.16704,14.964661 4.163338,15.083985 4.167601,15.523013 3.932618,15.523013 3.819258,15.523114 3.608578,15.523124 3.60866,15.315733 3.60866,14.95175 3.816995,14.950585" style="fill: white" /><polygon type="contour" points="4.173584,15.821184 4.180158,16.006268 4.174737,16.152658 3.852128,16.152658 3.608698,16.152932 3.608509,16.033616 3.608509,15.821069 3.836444,15.821069" style="fill: white" /><polygon type="contour" points="4.181913,17.444765 4.164226,17.637793 4.168646,17.68279 4.113863,17.6828 3.941623,17.682777 3.941623,17.739431 3.941567,17.75241 3.941557,17.752968 3.941519,17.778082 3.865934,17.778082 3.608926,17.777478 3.609006,17.75498 3.608903,17.731081 3.60903,17.713444 3.608892,17.706015 3.608671,17.652372 3.608601,17.619697 3.608579,17.587421 3.608579,17.470271 3.608616,17.444716 3.814836,17.444686" style="fill: white" /><polygon type="contour" points="3.852455,16.883296 4.175064,16.883296 4.178293,16.976124 4.174865,17.078834 3.900685,17.078834 3.608733,17.07846 3.608698,16.990668 3.608698,16.883106" style="fill: white" /><polygon type="contour" points="3.310775,16.959633 3.310775,17.07846 3.161507,17.078405 2.978945,17.078736 2.978945,16.980976 2.979002,16.883338 3.165003,16.883338 3.310884,16.883106" style="fill: white" /><polygon type="contour" points="3.310633,17.587492 3.161506,17.587303 2.979001,17.587072 2.979001,17.507582 2.978945,17.444895 3.114439,17.444768 3.310633,17.444692" style="fill: white" /><polygon type="contour" points="2.150724,17.444896 2.248265,17.444896 2.248265,17.516025 2.248365,17.587072 2.150528,17.587345 2.052865,17.587622 2.052865,17.44482" style="fill: white" /><polygon type="contour" points="2.248365,16.992588 2.248265,17.078736 2.161922,17.078834 2.052865,17.078834 2.052966,16.980976 2.052966,16.883438 2.150724,16.883438 2.248365,16.883338" style="fill: white" /><polygon type="contour" points="1.687155,16.883438 1.686881,16.969776 1.686881,17.078834 1.54408,17.078834 1.544353,16.981172 1.544629,16.883338 1.624511,16.883338" style="fill: white" /><polygon type="contour" points="1.376722,17.44436 1.399306,17.44436 1.400068,17.444328 1.417316,17.444344 1.424664,17.444353 1.475518,17.4446 1.506013,17.444685 1.54408,17.44482 1.686881,17.44482 1.686881,17.587624 1.687015,17.625687 1.6871,17.656183 1.687348,17.707037 1.687359,17.714386 1.687374,17.731633 1.687341,17.75498 1.687434,17.756074 1.687458,17.777446 1.435205,17.77803 1.434724,17.778114 1.353674,17.778028 1.353674,17.75936 1.354272,17.491641 1.354226,17.444274" style="fill: white" />
</svg>
