<svg width="19.131698" height="19.131699">
<polygon type="contour" points="8.353638,8.144369 8.417376,8.145078 8.418862,8.184211 8.41896,8.187919 8.419076,8.231844 8.419076,8.284657 8.418739,8.418741 8.41008,8.418741 8.237783,8.419005 8.147082,8.419005 8.146141,8.332727 8.140528,8.140531" style="fill: white" /><polygon type="contour" points="9.285389,9.191665 9.846143,9.191665 9.940239,9.191464 9.940239,9.222726 9.940037,9.285559 9.940037,9.846314 9.940239,9.940241 9.908976,9.940241 9.846143,9.940039 9.285388,9.940039 9.191462,9.940241 9.191462,9.908979 9.191663,9.846313 9.191663,9.285559 9.191462,9.191464 9.222723,9.191464" style="fill: white" /><polygon type="contour" points="8.876934,9.192006 8.876934,9.214846 8.876988,9.263918 8.876988,9.867917 8.876934,9.939699 8.870586,9.939699 8.832716,9.939718 8.780944,9.939677 8.728328,9.940011 8.728328,9.912265 8.728255,9.857004 8.728255,9.274848 8.728328,9.192082 8.736532,9.192086 8.780945,9.192026 8.832716,9.191986" style="fill: white" /><polygon type="contour" points="8.418739,9.219958 8.418979,9.277602 8.418979,9.854256 8.418739,9.94086 8.410211,9.94045 8.162533,9.940241 8.147378,9.940241 8.147303,9.921209 8.146847,9.764091 8.146501,9.664358 8.146516,9.648675 8.154912,9.648675 8.313782,9.648007 8.315161,9.571724 8.315161,9.566201 8.313758,9.483728 8.146516,9.48303 8.146847,9.367613 8.147378,9.191464 8.396535,9.191255 8.418739,9.191251" style="fill: white" /><polygon type="contour" points="8.420023,8.734281 8.420186,8.780855 8.420206,8.832718 8.420088,8.877285 8.413184,8.876936 8.315134,8.876936 8.315205,8.832718 8.315244,8.805738 8.315277,8.780947 8.31524,8.736067 8.315254,8.72833 8.323506,8.72833 8.420023,8.725565" style="fill: white" /><polygon type="contour" points="8.877283,8.728278 8.877094,8.776335 8.877094,8.832718 8.876934,8.876936 8.870585,8.876936 8.832717,8.877096 8.776333,8.877096 8.728276,8.877285 8.728276,8.870461 8.728095,8.832717 8.728106,8.780947 8.728328,8.72833 8.736635,8.72833 8.780945,8.728108 8.832716,8.728097" style="fill: white" /><polygon type="contour" points="8.876934,8.315136 8.877283,8.322148 8.877283,8.42009 8.870459,8.42009 8.832716,8.420208 8.780853,8.420188 8.725563,8.420025 8.728328,8.323508 8.728328,8.315256 8.780944,8.315279 8.805738,8.315244 8.832717,8.315207 8.870936,8.315123" style="fill: white" /><polygon type="contour" points="9.482239,8.145203 9.483259,8.185201 9.483477,8.188947 9.483477,8.314135 9.557589,8.315201 9.565501,8.315163 9.573569,8.315201 9.648224,8.314135 9.648224,8.188947 9.649461,8.145203 9.799272,8.146966 9.940569,8.146981 9.940569,8.224709 9.940448,8.396538 9.940858,8.418741 9.911744,8.418741 9.8541,8.418981 9.277445,8.418981 9.19125,8.418741 9.191253,8.410214 9.191253,8.396537 9.191131,8.27512 9.191131,8.146981 9.283553,8.145129" style="fill: white" /><polygon type="contour" points="10.985559,8.332727 10.984619,8.419005 10.893916,8.419005 10.721619,8.418741 10.712961,8.418741 10.712961,8.410083 10.712624,8.231843 10.71274,8.228497 10.71274,8.18792 10.714323,8.145079 10.778062,8.144368 10.991172,8.140531" style="fill: white" /><polygon type="contour" points="10.298984,8.315207 10.325962,8.315244 10.350756,8.315279 10.395634,8.315242 10.403373,8.315256 10.403373,8.420202 10.395064,8.420202 10.350755,8.42028 10.298984,8.420208 10.254748,8.42009 10.254767,8.413187 10.254767,8.315136" style="fill: white" /><polygon type="contour" points="9.940009,8.72833 9.939617,8.736534 9.939675,8.780947 9.939695,8.805738 9.939716,8.832717 9.939697,8.870588 9.939697,8.876936 9.916856,8.876936 9.867784,8.87699 9.263785,8.87699 9.192004,8.876936 9.192004,8.870587 9.191983,8.832717 9.192005,8.805738 9.192025,8.780947 9.192084,8.736534 9.19208,8.72833 9.219437,8.72833 9.274698,8.728257 9.856854,8.728257" style="fill: white" /><polygon type="contour" points="10.350755,8.728108 10.403373,8.72833 10.403424,8.825563 10.403604,8.832718 10.403425,8.876955 10.355368,8.877096 10.298984,8.877096 10.254767,8.876936 10.254767,8.870587 10.254606,8.832718 10.254606,8.776334 10.254747,8.728278 10.261241,8.728278 10.298984,8.728097" style="fill: white" /><polygon type="contour" points="10.816423,8.780947 10.816456,8.805738 10.816494,8.832717 10.816579,8.870938 10.816566,8.876936 10.809554,8.876955 10.711612,8.876955 10.711612,8.870461 10.711494,8.832717 10.711423,8.780947 10.7115,8.72833 10.816445,8.72833" style="fill: white" /><polygon type="contour" points="10.721488,9.191255 10.969166,9.191464 10.984323,9.191464 10.984396,9.210494 10.984852,9.367613 10.9852,9.467346 10.985184,9.48303 10.976787,9.48303 10.817918,9.483693 10.816539,9.560536 10.816539,9.566201 10.817942,9.647972 10.985184,9.648675 10.984853,9.76409 10.984323,9.940241 10.735164,9.94045 10.712961,9.940453 10.712961,9.911747 10.71272,9.854256 10.71272,9.277603 10.712961,9.190844" style="fill: white" /><polygon type="contour" points="10.403373,9.21944 10.403446,9.274848 10.403446,9.857005 10.403373,9.939623 10.395168,9.939619 10.350755,9.939677 10.298983,9.939718 10.254767,9.939699 10.254767,9.916858 10.254713,9.867916 10.254713,9.263917 10.254767,9.192006 10.261115,9.192006 10.298984,9.191985 10.350756,9.192027 10.403373,9.191694" style="fill: white" /><polygon type="contour" points="9.939697,10.254768 9.939697,10.261115 9.939716,10.298985 9.939696,10.325965 9.939675,10.350757 9.939617,10.39517 9.939621,10.403375 9.912262,10.403375 9.856854,10.403448 9.274697,10.403448 9.191692,10.403375 9.192083,10.39517 9.192024,10.350757 9.192004,10.325965 9.191983,10.298986 9.192004,10.261116 9.192004,10.254768 9.214844,10.254768 9.263786,10.254714 9.867785,10.254714" style="fill: white" /><polygon type="contour" points="10.985559,10.798976 10.991172,10.991173 10.778062,10.987335 10.714323,10.986623 10.712837,10.947492 10.71274,10.943784 10.712624,10.899859 10.712624,10.847048 10.712961,10.712963 10.721619,10.712963 10.893916,10.712699 10.984619,10.712699" style="fill: white" /><polygon type="contour" points="10.718515,10.254768 10.816566,10.254768 10.816495,10.298985 10.816456,10.325966 10.816423,10.350757 10.81646,10.395637 10.816445,10.403375 10.808192,10.403375 10.711677,10.406139 10.711677,10.397422 10.711514,10.350848 10.711494,10.298985 10.711612,10.254419" style="fill: white" /><polygon type="contour" points="10.403425,10.261242 10.403604,10.298986 10.403593,10.350757 10.403373,10.403375 10.395064,10.403375 10.350755,10.403595 10.298984,10.403606 10.254418,10.403426 10.254606,10.355369 10.254606,10.298985 10.254767,10.254768 10.261115,10.254768 10.298983,10.254608 10.355367,10.254608 10.403425,10.254419" style="fill: white" /><polygon type="contour" points="10.350847,10.711516 10.406138,10.711678 10.403373,10.808194 10.403373,10.816447 10.350755,10.816425 10.325962,10.816459 10.298983,10.816497 10.260764,10.816581 10.254767,10.816568 10.254418,10.809555 10.254418,10.711614 10.261241,10.711614 10.298984,10.711496" style="fill: white" /><polygon type="contour" points="9.940451,10.712963 9.940448,10.721489 9.940448,10.735166 9.940569,10.856582 9.940569,10.984723 9.848146,10.986575 9.649461,10.986501 9.648441,10.946503 9.648224,10.942758 9.648224,10.817567 9.573569,10.816502 9.565501,10.81654 9.55759,10.816502 9.483477,10.817567 9.483477,10.942757 9.482239,10.986501 9.332427,10.984737 9.191131,10.984723 9.191131,10.906993 9.191253,10.735166 9.190843,10.712963 9.219955,10.712963 9.277446,10.712722 9.854099,10.712722" style="fill: white" /><polygon type="contour" points="8.876953,10.711614 8.876934,10.718516 8.876934,10.816568 8.832716,10.816496 8.805738,10.816459 8.780944,10.816425 8.736065,10.816462 8.728328,10.816447 8.725563,10.720337 8.725563,10.711679 8.734279,10.711679 8.780854,10.711516 8.832716,10.711496" style="fill: white" /><polygon type="contour" points="8.876934,10.254768 8.876934,10.261115 8.877094,10.298986 8.877094,10.355369 8.876953,10.403426 8.870459,10.403426 8.832716,10.403606 8.780945,10.403595 8.728327,10.403375 8.728276,10.30614 8.728094,10.298985 8.728275,10.254749 8.776332,10.254608 8.832716,10.254608" style="fill: white" /><polygon type="contour" points="8.420088,10.261242 8.420206,10.298985 8.420185,10.350849 8.420023,10.406139 8.411363,10.406139 8.315254,10.403375 8.315277,10.350757 8.315244,10.325966 8.315204,10.298985 8.315121,10.260765 8.315134,10.254768 8.322145,10.254749 8.420088,10.254749" style="fill: white" /><polygon type="contour" points="8.41008,10.712963 8.418739,10.712963 8.418739,10.72162 8.419076,10.899859 8.41896,10.903205 8.41896,10.943784 8.417376,10.986624 8.353637,10.987335 8.140528,10.991173 8.146141,10.798976 8.147082,10.712699 8.237783,10.712699" style="fill: white" />
</svg>
