<svg width="19.131698" height="19.131699">
<polygon type="contour" points="10.59065,10.378642 10.663413,10.378642 10.663451,10.489892 10.664108,10.664111 10.425418,10.663039 10.378497,10.663627 10.3779,10.647809 10.377977,10.630678 10.377977,10.608108 10.378243,10.466406 10.378459,10.39305 10.378459,10.37846 10.413354,10.37846" style="fill: white" /><polygon type="contour" points="10.495871,10.020065 10.495899,10.045217 10.495929,10.071045 10.495983,10.116328 10.378207,10.116328 10.378207,10.108306 10.378,10.071045 10.377931,10.020064 10.377968,9.972308 10.495876,9.972308" style="fill: white" /><polygon type="contour" points="10.66585,9.502121 10.665542,9.566201 10.665851,9.629974 10.667088,9.711102 10.377663,9.711102 10.377663,9.456118 10.377834,9.420602 10.667088,9.420602" style="fill: white" /><polygon type="contour" points="10.663451,8.641811 10.663413,8.753062 10.569574,8.753062 10.393048,8.753244 10.378459,8.753244 10.378243,8.665297 10.377977,8.501026 10.3779,8.499076 10.3779,8.483895 10.378497,8.468076 10.425419,8.468664 10.664108,8.467593" style="fill: white" /><polygon type="contour" points="10.495929,9.060657 10.495899,9.086484 10.495871,9.111637 10.495876,9.159396 10.37809,9.159396 10.377931,9.111637 10.378,9.060656 10.378207,9.023399 10.378207,9.015377 10.495983,9.015377" style="fill: white" /><polygon type="contour" points="9.711101,9.159396 9.4206,9.159396 9.4206,9.015308 9.711101,9.015308" style="fill: white" /><polygon type="contour" points="10.020062,9.013954 10.071044,9.015318 10.108303,9.015377 10.116326,9.015377 10.116385,9.060657 10.116385,9.11303 10.116395,9.159436 10.071043,9.159357 10.020062,9.159333 9.981019,9.159396 9.972306,9.159396 9.97237,9.111638 9.97237,9.060631 9.972306,9.02143 9.972306,9.012901" style="fill: white" /><polygon type="contour" points="10.116326,8.753494 10.108304,8.753494 10.071043,8.753701 10.020063,8.753769 9.972306,8.75361 9.972306,8.635826 10.020063,8.635831 10.045214,8.635802 10.071043,8.635772 10.116326,8.635719" style="fill: white" /><polygon type="contour" points="9.636861,8.468098 9.711101,8.468383 9.711101,8.753868 9.4206,8.753868 9.4206,8.468383 9.494482,8.468099 9.565813,8.466099" style="fill: white" /><polygon type="contour" points="8.70628,8.468664 8.753203,8.468076 8.753799,8.483895 8.753722,8.501025 8.753722,8.523594 8.753456,8.665296 8.753241,8.738653 8.753241,8.753244 8.718345,8.753244 8.541049,8.753062 8.468287,8.753062 8.468248,8.641811 8.467592,8.467593" style="fill: white" /><polygon type="contour" points="9.060655,8.635772 9.086483,8.635802 9.111635,8.635831 9.159394,8.635826 9.159394,8.75361 9.111636,8.753769 9.060654,8.753701 9.023397,8.753494 9.015375,8.753494 9.015375,8.635719" style="fill: white" /><polygon type="contour" points="8.753492,9.023399 8.753699,9.060656 8.753767,9.111637 8.753731,9.159396 8.635825,9.159396 8.63583,9.111637 8.6358,9.086483 8.63577,9.060656 8.635718,9.015377 8.753492,9.015377" style="fill: white" /><polygon type="contour" points="9.159331,9.060631 9.159394,9.069348 9.159394,9.159396 9.111636,9.159333 9.060654,9.159358 9.023412,9.159436 9.015423,9.159436 9.015316,9.113029 9.015316,9.060656 9.015375,9.023399 9.015375,9.015377 9.060654,9.015318 9.111636,9.013954 9.159394,9.012901" style="fill: white" /><polygon type="contour" points="9.159394,10.378091 9.159394,10.495878 9.111635,10.495873 9.086483,10.495901 9.060655,10.495931 9.015375,10.495985 9.015375,10.378208 9.023397,10.378208 9.060654,10.378001 9.111636,10.377932" style="fill: white" /><polygon type="contour" points="8.753455,10.466406 8.753722,10.630677 8.753799,10.632627 8.753799,10.647809 8.753203,10.663627 8.70628,10.66304 8.467592,10.664111 8.468248,10.489892 8.468287,10.378642 8.562125,10.378642 8.738651,10.37846 8.753241,10.37846" style="fill: white" /><polygon type="contour" points="8.753767,10.020064 8.753699,10.071045 8.753492,10.108306 8.753492,10.116328 8.635718,10.116328 8.635771,10.071045 8.635801,10.045217 8.63583,10.020065 8.635825,9.972308 8.753731,9.972308" style="fill: white" /><polygon type="contour" points="8.754037,9.711102 8.464612,9.711102 8.465849,9.629582 8.466157,9.565502 8.465849,9.501729 8.464612,9.420602 8.754037,9.420602" style="fill: white" /><polygon type="contour" points="9.159394,9.711102 9.015423,9.711102 9.015423,9.420602 9.159394,9.420602" style="fill: white" /><polygon type="contour" points="9.159331,10.020064 9.159331,10.07107 9.159394,10.110275 9.159394,10.118804 9.111636,10.11775 9.060654,10.116387 9.023397,10.116328 9.015375,10.116328 9.015316,10.071046 9.013952,10.020064 9.013021,9.972308 9.060629,9.972371 9.111636,9.972371 9.15068,9.972308 9.159394,9.972308" style="fill: white" /><polygon type="contour" points="9.711101,10.116397 9.4206,10.116397 9.4206,9.972308 9.711101,9.972308" style="fill: white" /><polygon type="contour" points="9.711101,9.711102 9.4206,9.711102 9.4206,9.420602 9.711101,9.420602" style="fill: white" /><polygon type="contour" points="10.116395,9.6869 10.116278,9.711102 9.972306,9.711102 9.972306,9.420602 10.116395,9.420602" style="fill: white" /><polygon type="contour" points="10.116385,10.01867 10.116385,10.071045 10.116326,10.108305 10.116326,10.116328 10.071044,10.116387 10.018668,10.116387 9.972264,10.116397 9.972344,10.071045 9.972264,10.062745 9.972306,9.972308 10.020062,9.972371 10.071043,9.972345 10.108289,9.972266 10.116278,9.972266" style="fill: white" /><polygon type="contour" points="10.071043,10.378001 10.108304,10.378208 10.116326,10.378208 10.116326,10.495985 10.071043,10.495931 10.045214,10.495901 10.020063,10.495873 9.972306,10.495878 9.972306,10.378092 10.020063,10.377933" style="fill: white" /><polygon type="contour" points="9.711101,10.663321 9.636862,10.663605 9.5655,10.665605 9.494482,10.663605 9.4206,10.663321 9.4206,10.377836 9.711101,10.377836" style="fill: white" />
</svg>
