<svg width="19.131698" height="19.131699">
<polygon type="contour" points="10.408692,8.806147 10.407594,8.864828 10.407578,8.899335 10.407037,9.021254 10.267423,9.021447 10.110255,9.021447 10.110255,8.890727 10.110592,8.851161 10.111132,8.827202 10.111608,8.820547 10.111608,8.724069 10.228337,8.724055 10.275018,8.724055 10.284734,8.723624 10.355012,8.721912 10.410296,8.721406" style="fill: white" /><polygon type="contour" points="10.240709,9.184896 10.240704,9.220684 10.240698,9.256114 10.240709,9.268843 10.240711,9.272834 10.233493,9.272888 10.108964,9.272888 10.108964,9.268074 10.108966,9.256115 10.108974,9.184897 10.108972,9.167559 10.240726,9.167559" style="fill: white" /><polygon type="contour" points="10.407551,9.481693 10.408728,9.566201 10.408474,9.607891 10.407551,9.650303 10.407227,9.711102 10.109189,9.711102 10.109189,9.420602 10.407227,9.420602" style="fill: white" /><polygon type="contour" points="10.407579,10.232368 10.407594,10.266875 10.408692,10.325556 10.410296,10.410298 10.355012,10.409792 10.284734,10.40808 10.275018,10.407649 10.228337,10.407649 10.111608,10.407635 10.111132,10.304501 10.110592,10.280542 10.110255,10.240976 10.110255,10.110258 10.407577,10.110258" style="fill: white" /><polygon type="contour" points="9.711101,10.407229 9.650009,10.407553 9.565501,10.40878 9.451618,10.408042 9.4206,10.407229 9.4206,10.138969 9.420531,10.122529 9.420531,10.122458 9.420461,10.109191 9.711101,10.109191" style="fill: white" /><polygon type="contour" points="9.711101,9.964145 9.420523,9.964145 9.4206,9.946806 9.4206,9.858871 9.711101,9.858871" style="fill: white" /><polygon type="contour" points="9.875587,10.108968 9.946805,10.108976 9.964144,10.108974 9.964144,10.240728 9.946806,10.240712 9.911016,10.240705 9.875588,10.240702 9.862859,10.240712 9.858869,10.240714 9.858815,10.233496 9.858815,10.108966 9.863628,10.108966" style="fill: white" /><polygon type="contour" points="10.116135,9.858871 10.240711,9.858871 10.240699,9.87559 10.240704,9.911019 10.240708,9.946806 10.240721,9.96003 10.240725,9.964145 10.108972,9.964145 10.108972,9.95923 10.108974,9.946807 10.108966,9.875589 10.108964,9.858817" style="fill: white" /><polygon type="contour" points="9.964144,9.862865 9.96413,9.875233 9.964144,9.880159 9.964144,9.964145 9.959229,9.964145 9.946806,9.964132 9.875588,9.963922 9.858815,9.963899 9.858812,9.947013 9.858812,9.875589 9.858869,9.858871 9.863613,9.858871 9.875588,9.858813 9.946805,9.858045 9.964144,9.857914" style="fill: white" /><polygon type="contour" points="9.964144,9.711102 9.858869,9.711102 9.858869,9.420602 9.964144,9.420602" style="fill: white" /><polygon type="contour" points="9.711101,9.711102 9.4206,9.711102 9.4206,9.420602 9.711101,9.420602" style="fill: white" /><polygon type="contour" points="9.711101,9.184897 9.711101,9.272834 9.4206,9.272834 9.4206,9.167559 9.711178,9.167559" style="fill: white" /><polygon type="contour" points="9.963898,9.251267 9.963921,9.256114 9.963897,9.272888 9.947012,9.272891 9.875587,9.272891 9.858869,9.272834 9.858869,9.268089 9.858812,9.256114 9.858812,9.184691 9.85889,9.167805 9.863627,9.167805 9.875587,9.167782 9.946806,9.167571 9.964144,9.167559" style="fill: white" /><polygon type="contour" points="9.964144,9.022731 9.959229,9.022731 9.946806,9.022729 9.875587,9.022736 9.85889,9.022739 9.85888,9.015544 9.85888,8.890989 9.875588,8.891002 9.911016,8.890998 9.946806,8.890991 9.960028,8.89098 9.964144,8.890976" style="fill: white" /><polygon type="contour" points="9.680082,8.72366 9.711101,8.724474 9.711101,8.992735 9.711169,9.009175 9.71124,9.022514 9.4206,9.022514 9.4206,8.724474 9.481397,8.724151 9.56568,8.722924" style="fill: white" /><polygon type="contour" points="8.776687,8.721912 8.846965,8.723623 8.856681,8.724055 8.903363,8.724055 9.020093,8.724069 9.020568,8.827202 9.021108,8.851161 9.021446,8.890727 9.021446,9.021447 8.724123,9.021447 8.724121,8.899335 8.724104,8.864828 8.723007,8.806147 8.721404,8.721405" style="fill: white" /><polygon type="contour" points="9.184894,8.890992 9.220684,8.890998 9.256112,8.891002 9.268841,8.890992 9.272832,8.89099 9.272886,8.898207 9.272886,9.022739 9.268072,9.022739 9.256113,9.022736 9.184895,9.022729 9.167557,9.022731 9.167557,8.890976" style="fill: white" /><polygon type="contour" points="9.184894,9.167571 9.256112,9.167782 9.272886,9.167805 9.272889,9.18469 9.272889,9.256115 9.272832,9.272834 9.268087,9.272834 9.256112,9.272891 9.184688,9.272891 9.167803,9.272888 9.167803,9.268075 9.16778,9.256114 9.167803,9.251267 9.167557,9.167559 9.172471,9.167559" style="fill: white" /><polygon type="contour" points="9.022729,9.172473 9.022727,9.184896 9.022734,9.256115 9.022737,9.272888 9.015565,9.272834 8.890989,9.272834 8.891001,9.256114 8.890995,9.220684 8.890991,9.184897 8.890979,9.171673 8.890974,9.167559 9.022729,9.167559" style="fill: white" /><polygon type="contour" points="9.022737,9.86363 9.022734,9.875589 9.022727,9.946806 9.022729,9.964145 8.890974,9.964145 8.890991,9.946807 8.890995,9.91102 8.891001,9.87559 8.890991,9.862861 8.890989,9.858871 8.898206,9.858817 9.022737,9.858817" style="fill: white" /><polygon type="contour" points="9.022512,9.711102 8.724472,9.711102 8.724149,9.650304 8.722972,9.566202 8.723226,9.52431 8.724149,9.481692 8.724472,9.420602 9.022512,9.420602" style="fill: white" /><polygon type="contour" points="9.272832,9.711102 9.167557,9.711102 9.167557,9.420602 9.272832,9.420602" style="fill: white" /><polygon type="contour" points="9.272832,9.858871 9.272832,9.863615 9.272889,9.87559 9.272889,9.947012 9.272811,9.963899 9.268073,9.963899 9.256113,9.963921 9.184894,9.964132 9.167557,9.964145 9.167803,9.880437 9.16778,9.87559 9.167803,9.858817 9.184688,9.858814 9.256113,9.858814" style="fill: white" /><polygon type="contour" points="9.272821,10.116123 9.272821,10.240715 9.256112,10.240702 9.220684,10.240705 9.184894,10.240712 9.171672,10.240723 9.167557,10.240728 9.167557,10.108974 9.172471,10.108974 9.184894,10.108976 9.256113,10.108968 9.272811,10.108966" style="fill: white" /><polygon type="contour" points="9.021446,10.240976 9.021108,10.280542 9.020568,10.304501 9.020093,10.311156 9.020093,10.407635 8.903363,10.407649 8.856681,10.407649 8.846965,10.40808 8.776687,10.409792 8.721404,10.410298 8.723007,10.325556 8.724104,10.266875 8.724121,10.232368 8.724663,10.110451 8.864277,10.110258 9.021446,10.110258" style="fill: white" />
</svg>
