<svg width="19.131698" height="19.131699">
<polygon type="contour" points="12.050849,10.977519 11.84085,10.977519 11.84085,10.767516 12.050849,10.767516" style="fill: white" /><polygon type="contour" points="12.050849,10.324187 11.84085,10.324187 11.84085,10.114188 12.050849,10.114188" style="fill: white" /><polygon type="contour" points="12.050849,9.670854 11.84085,9.670854 11.84085,9.460851 12.050849,9.460851" style="fill: white" /><polygon type="contour" points="12.050849,9.017516 11.84085,9.017516 11.84085,8.807517 12.050849,8.807517" style="fill: white" /><polygon type="contour" points="12.050849,8.364188 11.84085,8.364188 11.84085,8.154185 12.050849,8.154185" style="fill: white" /><polygon type="contour" points="12.050849,7.71085 11.84085,7.71085 11.84085,7.500851 12.050849,7.500851" style="fill: white" /><polygon type="contour" points="11.630851,7.290852 11.420852,7.290852 11.420852,7.080852 11.630851,7.080852" style="fill: white" /><polygon type="contour" points="10.977517,7.290852 10.767514,7.290852 10.767514,7.080852 10.977517,7.080852" style="fill: white" /><polygon type="contour" points="10.324185,7.290852 10.114186,7.290852 10.114186,7.080852 10.324185,7.080852" style="fill: white" /><polygon type="contour" points="9.670852,7.290852 9.460849,7.290852 9.460849,7.080852 9.670852,7.080852" style="fill: white" /><polygon type="contour" points="9.017514,7.290852 8.807515,7.290852 8.807515,7.080852 9.017514,7.080852" style="fill: white" /><polygon type="contour" points="8.364186,7.290852 8.154183,7.290852 8.154183,7.080852 8.364186,7.080852" style="fill: white" /><polygon type="contour" points="7.710849,7.290852 7.500849,7.290852 7.500849,7.080852 7.710849,7.080852" style="fill: white" /><polygon type="contour" points="7.29085,7.71085 7.080851,7.71085 7.080851,7.500851 7.29085,7.500851" style="fill: white" /><polygon type="contour" points="7.29085,8.364188 7.080851,8.364188 7.080851,8.154185 7.29085,8.154185" style="fill: white" /><polygon type="contour" points="7.29085,9.017516 7.080851,9.017516 7.080851,8.807517 7.29085,8.807517" style="fill: white" /><polygon type="contour" points="7.29085,9.670854 7.080851,9.670854 7.080851,9.460851 7.29085,9.460851" style="fill: white" /><polygon type="contour" points="7.29085,10.324187 7.080851,10.324187 7.080851,10.114188 7.29085,10.114188" style="fill: white" /><polygon type="contour" points="7.29085,10.977519 7.080851,10.977519 7.080851,10.767516 7.29085,10.767516" style="fill: white" /><polygon type="contour" points="7.29085,11.630853 7.080851,11.630853 7.080851,11.420854 7.29085,11.420854" style="fill: white" /><polygon type="contour" points="7.16988,11.910908 7.19497,11.912481 7.219631,11.91207 7.220793,11.96182 7.220942,11.998162 7.220942,14.119384 7.220702,14.16699 7.219991,14.21377 7.168765,14.21364 4.971081,14.21364 4.964712,14.213681 4.929347,14.214097 4.918212,14.213489 4.918063,14.16062 4.918063,11.962935 4.917948,11.911756 4.964712,11.910997 5.012318,11.910759 7.133538,11.910759" style="fill: white" /><polygon type="contour" points="7.710849,12.050852 7.500849,12.050852 7.500849,11.840852 7.710849,11.840852" style="fill: white" /><polygon type="contour" points="8.364186,12.050852 8.154183,12.050852 8.154183,11.840852 8.364186,11.840852" style="fill: white" /><polygon type="contour" points="9.017514,12.050852 8.807515,12.050852 8.807515,11.840852 9.017514,11.840852" style="fill: white" /><polygon type="contour" points="9.670852,12.050852 9.460849,12.050852 9.460849,11.840852 9.670852,11.840852" style="fill: white" /><polygon type="contour" points="10.324185,12.050852 10.114186,12.050852 10.114186,11.840852 10.324185,11.840852" style="fill: white" /><polygon type="contour" points="10.977517,12.050852 10.767514,12.050852 10.767514,11.840852 10.977517,11.840852" style="fill: white" /><polygon type="contour" points="11.630851,12.050852 11.420852,12.050852 11.420852,11.840852 11.630851,11.840852" style="fill: white" /><polygon type="contour" points="12.050849,11.630853 11.84085,11.630853 11.84085,11.420854 12.050849,11.420854" style="fill: white" /><polygon type="contour" points="14.166987,11.910998 14.213767,11.911776 14.213637,11.962935 14.213637,14.16062 14.213488,14.213489 14.166987,14.213682 14.160618,14.21364 11.962934,14.21364 11.911732,14.213732 11.910997,14.166991 11.910757,14.119384 11.910757,11.998162 11.910906,11.96182 11.91248,11.93673 11.912069,11.91207 11.961819,11.910908 11.998161,11.910759 14.119381,11.910759" style="fill: white" /><polygon type="contour" points="14.264602,14.920853 14.054599,14.920853 14.054599,14.710852 14.264602,14.710852" style="fill: white" /><polygon type="contour" points="13.608352,14.920853 13.398349,14.920853 13.398349,14.710852 13.608352,14.710852" style="fill: white" /><polygon type="contour" points="12.952102,14.920853 12.742099,14.920853 12.742099,14.710852 12.952102,14.710852" style="fill: white" /><polygon type="contour" points="12.295852,14.920853 12.085849,14.920853 12.085849,14.710852 12.295852,14.710852" style="fill: white" /><polygon type="contour" points="11.639602,14.920853 11.429599,14.920853 11.429599,14.710852 11.639602,14.710852" style="fill: white" /><polygon type="contour" points="10.983352,14.920853 10.773349,14.920853 10.773349,14.710852 10.983352,14.710852" style="fill: white" /><polygon type="contour" points="10.327102,14.920853 10.117099,14.920853 10.117099,14.710852 10.327102,14.710852" style="fill: white" /><polygon type="contour" points="9.670852,14.920853 9.460849,14.920853 9.460849,14.710852 9.670852,14.710852" style="fill: white" /><polygon type="contour" points="9.014602,14.920853 8.804599,14.920853 8.804599,14.710852 9.014602,14.710852" style="fill: white" /><polygon type="contour" points="8.358351,14.920853 8.148349,14.920853 8.148349,14.710852 8.358351,14.710852" style="fill: white" /><polygon type="contour" points="7.702101,14.920853 7.492099,14.920853 7.492099,14.710852 7.702101,14.710852" style="fill: white" /><polygon type="contour" points="7.045851,14.920853 6.835849,14.920853 6.835849,14.710852 7.045851,14.710852" style="fill: white" /><polygon type="contour" points="6.389601,14.920853 6.179599,14.920853 6.179599,14.710852 6.389601,14.710852" style="fill: white" /><polygon type="contour" points="5.733351,14.920853 5.52335,14.920853 5.52335,14.710852 5.733351,14.710852" style="fill: white" /><polygon type="contour" points="5.0771,14.920853 4.8671,14.920853 4.8671,14.710852 5.0771,14.710852" style="fill: white" /><polygon type="contour" points="4.42085,14.920853 4.21085,14.920853 4.21085,14.710852 4.42085,14.710852" style="fill: white" /><polygon type="contour" points="4.42085,14.264603 4.21085,14.264603 4.21085,14.054602 4.42085,14.054602" style="fill: white" /><polygon type="contour" points="4.42085,13.608353 4.21085,13.608353 4.21085,13.398351 4.42085,13.398351" style="fill: white" /><polygon type="contour" points="4.42085,12.952103 4.21085,12.952103 4.21085,12.742101 4.42085,12.742101" style="fill: white" /><polygon type="contour" points="4.42085,12.295853 4.21085,12.295853 4.21085,12.085851 4.42085,12.085851" style="fill: white" /><polygon type="contour" points="4.42085,11.639603 4.21085,11.639603 4.21085,11.429601 4.42085,11.429601" style="fill: white" /><polygon type="contour" points="4.42085,10.983354 4.21085,10.983354 4.210851,10.866951 4.210851,10.773351 4.42085,10.773351" style="fill: white" /><polygon type="contour" points="4.42085,10.327104 4.21085,10.327104 4.21085,10.117101 4.42085,10.117101" style="fill: white" /><polygon type="contour" points="4.42085,9.670854 4.21085,9.670854 4.21085,9.460851 4.42085,9.460851" style="fill: white" /><polygon type="contour" points="4.42085,9.014604 4.21085,9.014604 4.21085,8.804601 4.42085,8.804601" style="fill: white" /><polygon type="contour" points="4.42085,8.358353 4.21085,8.358353 4.21085,8.14835 4.42085,8.14835" style="fill: white" /><polygon type="contour" points="4.42085,7.702103 4.21085,7.702103 4.21085,7.492101 4.42085,7.492101" style="fill: white" /><polygon type="contour" points="4.420849,6.929452 4.420849,7.045853 4.21085,7.045853 4.21085,6.835851 4.42085,6.835851" style="fill: white" /><polygon type="contour" points="4.42085,6.389603 4.21085,6.389603 4.21085,6.179601 4.42085,6.179601" style="fill: white" /><polygon type="contour" points="4.42085,5.733353 4.21085,5.733353 4.21085,5.523352 4.42085,5.523352" style="fill: white" /><polygon type="contour" points="4.42085,5.077102 4.21085,5.077102 4.21085,4.867102 4.42085,4.867102" style="fill: white" /><polygon type="contour" points="4.42085,4.420852 4.21085,4.420852 4.21085,4.210852 4.42085,4.210852" style="fill: white" /><polygon type="contour" points="5.0771,4.420852 4.8671,4.420852 4.8671,4.210852 5.0771,4.210852" style="fill: white" /><polygon type="contour" points="5.733351,4.420852 5.52335,4.420852 5.52335,4.210852 5.733351,4.210852" style="fill: white" /><polygon type="contour" points="6.389601,4.420852 6.179599,4.420852 6.179599,4.210852 6.389601,4.210852" style="fill: white" /><polygon type="contour" points="7.220702,4.964713 7.220942,5.01232 7.220942,7.13354 7.220793,7.169882 7.21922,7.194972 7.219631,7.219633 7.16988,7.220795 7.133538,7.220945 5.012318,7.220945 4.964711,7.220705 4.917933,7.219928 4.918063,7.168766 4.918063,4.971084 4.918212,4.918213 4.964711,4.918022 4.971081,4.918065 7.168765,4.918065 7.219968,4.917973" style="fill: white" /><polygon type="contour" points="7.045851,4.420852 6.835849,4.420852 6.835849,4.210852 7.045851,4.210852" style="fill: white" /><polygon type="contour" points="7.702101,4.420852 7.492099,4.420852 7.492099,4.210852 7.702101,4.210852" style="fill: white" /><polygon type="contour" points="8.358351,4.420852 8.148349,4.420852 8.148349,4.210852 8.358351,4.210852" style="fill: white" /><polygon type="contour" points="9.014602,4.420852 8.804599,4.420852 8.804599,4.210852 9.014602,4.210852" style="fill: white" /><polygon type="contour" points="9.670852,4.420852 9.460849,4.420852 9.460849,4.210852 9.670852,4.210852" style="fill: white" /><polygon type="contour" points="10.327102,4.420852 10.117099,4.420852 10.117099,4.210852 10.327102,4.210852" style="fill: white" /><polygon type="contour" points="10.983352,4.420852 10.773349,4.420852 10.773349,4.210852 10.983352,4.210852" style="fill: white" /><polygon type="contour" points="11.639602,4.420852 11.429599,4.420852 11.429599,4.210852 11.639602,4.210852" style="fill: white" /><polygon type="contour" points="12.295852,4.420852 12.085849,4.420852 12.085849,4.210852 12.295852,4.210852" style="fill: white" /><polygon type="contour" points="12.952102,4.420852 12.742099,4.420852 12.742099,4.210852 12.952102,4.210852" style="fill: white" /><polygon type="contour" points="13.608352,4.420852 13.398349,4.420852 13.398349,4.210852 13.608352,4.210852" style="fill: white" /><polygon type="contour" points="14.213488,4.918214 14.213637,4.971084 14.213637,7.168766 14.213753,7.219948 14.166988,7.220705 14.119381,7.220945 11.998161,7.220945 11.961819,7.220796 11.936729,7.219223 11.912069,7.219633 11.910906,7.169882 11.910757,7.13354 11.910757,5.01232 11.910996,4.964714 11.911708,4.917934 11.962934,4.918065 14.160618,4.918065 14.166987,4.918023 14.195127,4.917699 14.202353,4.917607" style="fill: white" /><polygon type="contour" points="14.264602,4.420852 14.054599,4.420852 14.054599,4.210852 14.264602,4.210852" style="fill: white" /><polygon type="contour" points="14.920852,4.420852 14.710849,4.420852 14.710849,4.210852 14.920852,4.210852" style="fill: white" /><polygon type="contour" points="14.920852,5.077102 14.710849,5.077102 14.710849,4.867102 14.920852,4.867102" style="fill: white" /><polygon type="contour" points="14.920852,5.733353 14.710849,5.733353 14.710849,5.523352 14.920852,5.523352" style="fill: white" /><polygon type="contour" points="14.920852,6.389603 14.710849,6.389603 14.710849,6.179601 14.920852,6.179601" style="fill: white" /><polygon type="contour" points="14.920852,7.045853 14.710849,7.045853 14.710849,6.835851 14.920852,6.835851" style="fill: white" /><polygon type="contour" points="14.920852,7.702103 14.710849,7.702103 14.710849,7.492101 14.920852,7.492101" style="fill: white" /><polygon type="contour" points="14.920852,8.358353 14.710849,8.358353 14.710849,8.14835 14.920852,8.14835" style="fill: white" /><polygon type="contour" points="14.920852,9.014604 14.710849,9.014604 14.710849,8.804601 14.920852,8.804601" style="fill: white" /><polygon type="contour" points="14.920852,9.670854 14.710849,9.670854 14.710849,9.460851 14.920852,9.460851" style="fill: white" /><polygon type="contour" points="14.920852,10.327104 14.710849,10.327104 14.710849,10.117101 14.920852,10.117101" style="fill: white" /><polygon type="contour" points="14.920852,10.983354 14.710849,10.983354 14.710849,10.773351 14.920852,10.773351" style="fill: white" /><polygon type="contour" points="14.920852,11.639603 14.710849,11.639603 14.710849,11.429601 14.920852,11.429601" style="fill: white" /><polygon type="contour" points="14.920852,12.295853 14.710849,12.295853 14.710849,12.085851 14.920852,12.085851" style="fill: white" /><polygon type="contour" points="14.920852,12.952103 14.710849,12.952103 14.710849,12.742101 14.920852,12.742101" style="fill: white" /><polygon type="contour" points="14.920852,13.608353 14.710849,13.608353 14.710849,13.398351 14.920852,13.398351" style="fill: white" /><polygon type="contour" points="14.920852,14.264603 14.710849,14.264603 14.710849,14.054602 14.920852,14.054602" style="fill: white" /><polygon type="contour" points="14.920852,14.920853 14.710849,14.920853 14.710849,14.710852 14.920852,14.710852" style="fill: white" />
</svg>
