<svg width="19.131698" height="19.131699">
<polygon type="contour" points="9.590722,9.355188 9.610782,9.357741 9.626205,9.362434 9.64517,9.368271 9.659586,9.375647 9.677458,9.384399 9.690535,9.393787 9.706584,9.405824 9.717648,9.417558 9.731508,9.431784 9.740558,9.445193 9.751866,9.461972 9.758569,9.476722 9.766595,9.494959 9.770618,9.510715 9.775725,9.530047 9.777401,9.546141 9.779226,9.566202 9.77755,9.581959 9.775725,9.601656 9.771701,9.617412 9.766594,9.636744 9.759889,9.651495 9.751866,9.669732 9.742815,9.683142 9.731508,9.69992 9.720443,9.711655 9.706583,9.72588 9.693508,9.735266 9.677458,9.747304 9.663043,9.754678 9.645169,9.763433 9.629747,9.768126 9.610782,9.773962 9.595027,9.775972 9.574966,9.778526 9.558538,9.777855 9.538476,9.777126 9.522719,9.773774 9.503387,9.769763 9.488637,9.763727 9.470036,9.756066 9.456289,9.747685 9.439147,9.737109 9.426741,9.726379 9.411787,9.71325 9.401728,9.700845 9.389327,9.685163 9.381615,9.670746 9.37177,9.653603 9.366404,9.638515 9.359839,9.619549 9.357158,9.603792 9.353509,9.584096 9.353509,9.547607 9.35619,9.53185 9.359839,9.512155 9.365204,9.497067 9.371769,9.478102 9.37948,9.463686 9.389326,9.446542 9.399384,9.434138 9.411786,9.418455 9.424192,9.407726 9.439147,9.394595 9.452893,9.386213 9.470036,9.375634 9.484786,9.3696 9.503388,9.36194 9.519144,9.358588 9.538476,9.354577 9.554904,9.353905 9.574965,9.353176" style="fill: white" />
</svg>
