<svg width="19.131698" height="19.131699">
<polygon type="contour" points="10.619563,10.577653 10.619633,10.585689 10.61991,10.602511 10.620443,10.620445 10.606036,10.620027 10.599112,10.619828 10.334256,10.62243 10.333765,10.610647 10.333765,10.599255 10.333756,10.597982 10.333258,10.515064 10.331712,10.331714 10.419684,10.331604 10.619871,10.331604" style="fill: white" /><polygon type="contour" points="10.599112,8.511875 10.606036,8.511676 10.620443,8.511259 10.61991,8.529192 10.619633,8.546014 10.619563,8.55405 10.619871,8.800099 10.419685,8.800099 10.331712,8.79999 10.331712,8.751876 10.333258,8.616639 10.333756,8.551654 10.333756,8.533721 10.333764,8.521056 10.333899,8.519886 10.334256,8.509274" style="fill: white" /><polygon type="contour" points="8.797936,8.521056 8.797936,8.532448 8.797944,8.533721 8.798442,8.616639 8.799988,8.79999 8.712014,8.800099 8.511826,8.800099 8.512137,8.55405 8.512066,8.546014 8.511789,8.529192 8.511257,8.511259 8.525663,8.511676 8.532587,8.511875 8.797445,8.509274" style="fill: white" /><polygon type="contour" points="8.800279,8.989614 8.800503,9.045132 8.768851,9.045137 8.678505,9.045137 8.678493,8.985876 8.678663,8.948898 8.800279,8.948898" style="fill: white" /><polygon type="contour" points="8.714154,9.175688 8.800503,9.175688 8.800503,9.203575 8.800321,9.270556 8.74984,9.270514 8.678467,9.270514 8.678458,9.203347 8.678505,9.175587" style="fill: white" /><polygon type="contour" points="8.714153,10.086572 8.800503,10.086572 8.800503,10.115078 8.800279,10.182804 8.678663,10.182804 8.678623,10.115078 8.678505,10.086566" style="fill: white" /><polygon type="contour" points="9.04513,10.115079 9.04513,10.182679 9.016622,10.182679 8.948896,10.182804 8.948561,10.127092 8.949023,10.115079 8.949023,10.086572 8.974407,10.086566 9.045136,10.086566" style="fill: white" /><polygon type="contour" points="9.711101,10.379334 9.711101,10.620154 9.586495,10.620753 9.582471,10.620862 9.574064,10.621226 9.565532,10.621378 9.548612,10.620862 9.544606,10.620753 9.4206,10.619761 9.4206,10.331292 9.71166,10.331292" style="fill: white" /><polygon type="contour" points="9.956114,10.36285 9.956114,10.453197 9.897257,10.453165 9.861189,10.453234 9.861189,10.38186 9.861148,10.331381 9.90082,10.331381 9.956014,10.331199" style="fill: white" /><polygon type="contour" points="10.182803,10.331423 10.182803,10.453037 10.115077,10.453078 10.086563,10.453197 10.08657,10.417547 10.08657,10.331199 10.115076,10.331199" style="fill: white" /><polygon type="contour" points="10.453206,10.145824 10.453035,10.182804 10.331422,10.182804 10.331422,10.142088 10.331197,10.086572 10.362848,10.086566 10.453195,10.086566" style="fill: white" /><polygon type="contour" points="10.381858,9.86119 10.453232,9.86119 10.453242,9.928355 10.453195,9.956117 10.417545,9.956016 10.331197,9.956016 10.331197,9.928129 10.331379,9.861149" style="fill: white" /><polygon type="contour" points="9.956044,9.861547 9.956114,9.886421 9.956114,9.956117 9.928353,9.956046 9.861546,9.956046 9.861546,9.928356 9.861189,9.86119 9.900628,9.86119" style="fill: white" /><polygon type="contour" points="9.956044,9.711102 9.861189,9.711102 9.861189,9.420602 9.956044,9.420602" style="fill: white" /><polygon type="contour" points="9.711101,9.711102 9.4206,9.711102 9.4206,9.420602 9.711101,9.420602" style="fill: white" /><polygon type="contour" points="9.711101,9.956046 9.4206,9.956046 9.4206,9.86119 9.711101,9.86119" style="fill: white" /><polygon type="contour" points="9.711101,10.14222 9.711691,10.182804 9.4206,10.182804 9.4206,10.086501 9.711101,10.086501" style="fill: white" /><polygon type="contour" points="9.88642,10.086566 9.956114,10.086566 9.956014,10.115078 9.956014,10.182679 9.928126,10.182679 9.859905,10.182804 9.861516,10.115079 9.861546,10.086501" style="fill: white" /><polygon type="contour" points="10.115077,10.086572 10.182677,10.086572 10.182677,10.115079 10.182803,10.182804 10.142087,10.182804 10.08657,10.182678 10.086563,10.157296 10.086563,10.086566" style="fill: white" /><polygon type="contour" points="10.182803,9.899737 10.182676,9.956016 10.157292,9.956117 10.086563,9.956117 10.086498,9.928355 10.086498,9.861547 10.115076,9.861517 10.182803,9.859906" style="fill: white" /><polygon type="contour" points="10.182803,9.711692 10.142218,9.711102 10.086498,9.711102 10.086498,9.420602 10.142218,9.420602 10.182803,9.420012" style="fill: white" /><polygon type="contour" points="10.513477,9.420602 10.619843,9.420602 10.619829,9.423579 10.622057,9.56617 10.619828,9.70811 10.619842,9.711102 10.513477,9.711102 10.331291,9.711661 10.331291,9.420043" style="fill: white" /><polygon type="contour" points="10.453163,9.234446 10.453232,9.270514 10.381859,9.270514 10.331379,9.270556 10.331379,9.230882 10.331197,9.175688 10.362849,9.175587 10.453195,9.175587" style="fill: white" /><polygon type="contour" points="10.453076,9.016623 10.453195,9.045137 10.417545,9.045132 10.331197,9.045132 10.331197,9.016623 10.331422,8.948898 10.453035,8.948898" style="fill: white" /><polygon type="contour" points="9.956014,8.949025 9.956114,8.974408 9.956114,9.045137 9.928352,9.045203 9.861546,9.045203 9.861516,9.016623 9.861148,8.948563 9.90082,8.948563" style="fill: white" /><polygon type="contour" points="9.711101,8.989481 9.711101,9.045203 9.4206,9.045203 9.4206,8.989481 9.42001,8.948898 9.711691,8.948898" style="fill: white" /><polygon type="contour" points="9.711101,9.270514 9.4206,9.270514 9.4206,9.175658 9.711101,9.175658" style="fill: white" /><polygon type="contour" points="9.956044,9.203348 9.956044,9.270157 9.928352,9.270157 9.861189,9.270514 9.861189,9.231073 9.861545,9.175658 9.886419,9.175587 9.956114,9.175587" style="fill: white" /><polygon type="contour" points="10.115076,9.175688 10.182677,9.175688 10.182677,9.203576 10.182803,9.271798 10.115076,9.270187 10.086498,9.270157 10.086563,9.245282 10.086563,9.175587" style="fill: white" /><polygon type="contour" points="10.182803,9.004782 10.182677,9.016623 10.182677,9.045132 10.157293,9.045137 10.086563,9.045137 10.08657,9.016623 10.08657,8.949025 10.115076,8.949025 10.182803,8.948898" style="fill: white" /><polygon type="contour" points="10.182803,8.678665 10.182803,8.800281 10.142087,8.800281 10.08657,8.800505 10.086563,8.768853 10.086563,8.678507 10.145822,8.678495" style="fill: white" /><polygon type="contour" points="9.956114,8.678507 9.956014,8.714156 9.956014,8.800505 9.928126,8.800505 9.861148,8.800322 9.861189,8.749843 9.861189,8.678469 9.928352,8.67846" style="fill: white" /><polygon type="contour" points="9.582471,8.510841 9.586495,8.51095 9.711101,8.51155 9.711101,8.618223 9.71166,8.80041 9.420041,8.80041 9.4206,8.752368 9.4206,8.511549 9.544606,8.510951 9.548611,8.510842 9.556979,8.510478 9.565501,8.510326" style="fill: white" /><polygon type="contour" points="9.270511,8.749843 9.270552,8.800323 9.230879,8.800323 9.175686,8.800505 9.175586,8.768853 9.175586,8.678507 9.234443,8.678538 9.270511,8.678469" style="fill: white" /><polygon type="contour" points="9.04513,8.714155 9.04513,8.800505 9.016623,8.800505 8.948896,8.800281 8.948896,8.678665 9.016623,8.678625 9.045136,8.678507" style="fill: white" /><polygon type="contour" points="9.04513,8.949025 9.045136,8.974409 9.045136,9.045137 9.016623,9.045132 8.949023,9.045132 8.949023,9.016624 8.948896,8.948898 8.989612,8.948898" style="fill: white" /><polygon type="contour" points="9.270185,9.016623 9.270155,9.045203 9.245279,9.045137 9.175586,9.045137 9.175686,9.016624 9.175686,8.949025 9.203574,8.949025 9.270552,8.948563" style="fill: white" /><polygon type="contour" points="9.203346,9.175658 9.270155,9.175658 9.270155,9.203347 9.270511,9.270514 9.231071,9.270514 9.175656,9.270157 9.175586,9.245282 9.175586,9.175587" style="fill: white" /><polygon type="contour" points="9.045202,9.203347 9.045202,9.270157 9.016622,9.270187 8.948561,9.270556 8.948561,9.230883 8.949023,9.175688 8.974407,9.175587 9.045136,9.175587" style="fill: white" /><polygon type="contour" points="8.98948,9.420602 9.045202,9.420602 9.045202,9.711102 8.98948,9.711102 8.948896,9.711692 8.948896,9.420012" style="fill: white" /><polygon type="contour" points="8.800408,9.711661 8.618221,9.711102 8.511857,9.711102 8.511871,9.708124 8.509643,9.565533 8.511871,9.423593 8.511857,9.420602 8.618221,9.420602 8.800408,9.420043" style="fill: white" /><polygon type="contour" points="8.800321,9.900821 8.800503,9.956016 8.768852,9.956117 8.678505,9.956117 8.678536,9.897258 8.678467,9.86119 8.749841,9.86119 8.800321,9.861149" style="fill: white" /><polygon type="contour" points="9.016622,9.861516 9.045202,9.861546 9.045136,9.88642 9.045136,9.956117 9.016623,9.956016 8.949023,9.956016 8.949023,9.928129 8.948561,9.861148" style="fill: white" /><polygon type="contour" points="9.270511,9.711102 9.175656,9.711102 9.175656,9.420602 9.270511,9.420602" style="fill: white" /><polygon type="contour" points="9.270511,9.900629 9.270155,9.956046 9.245279,9.956117 9.175586,9.956117 9.175656,9.928355 9.175656,9.861547 9.203347,9.861547 9.270511,9.86119" style="fill: white" /><polygon type="contour" points="9.270598,10.115079 9.27114,10.18314 9.230879,10.18314 9.175686,10.182679 9.175586,10.157296 9.175586,10.086566 9.203347,10.086501 9.270155,10.086501" style="fill: white" /><polygon type="contour" points="9.27114,10.33138 9.270511,10.381861 9.270511,10.453234 9.203347,10.453244 9.175586,10.453197 9.175686,10.417547 9.175686,10.331199 9.203987,10.331199" style="fill: white" /><polygon type="contour" points="9.045136,10.36285 9.045136,10.453197 8.985876,10.453208 8.948896,10.453037 8.948896,10.331423 8.989612,10.331423 9.04513,10.331199" style="fill: white" /><polygon type="contour" points="8.799988,10.331714 8.799988,10.379827 8.798442,10.515065 8.797945,10.580049 8.797945,10.597982 8.797936,10.610648 8.797801,10.611817 8.797445,10.62243 8.532587,10.619828 8.525663,10.620027 8.511257,10.620445 8.511789,10.602511 8.512066,10.585689 8.512137,10.577653 8.511826,10.331604 8.712015,10.331604" style="fill: white" />
</svg>
