<svg width="19.131698" height="19.131699">
<polygon type="contour" points="11.672629,11.482893 11.680114,11.680115 11.590131,11.679408 11.50741,11.67313 11.380922,11.672806 11.38035,11.619983 11.38035,11.567265 11.380106,11.56453 11.379935,11.503576 11.379935,11.379937 11.672274,11.379937" style="fill: white" /><polygon type="contour" points="11.501802,10.940142 11.501645,10.993779 11.501798,11.04207 11.501776,11.123978 11.377876,11.123978 11.377876,11.100617 11.377512,11.019948 11.377568,10.940142 11.378136,10.845332 11.50198,10.845332" style="fill: white" /><polygon type="contour" points="11.680018,7.538921 11.672629,7.64881 11.672274,7.751766 11.379935,7.751766 11.379935,7.628128 11.380106,7.567174 11.38035,7.511719 11.380876,7.50757 11.380922,7.458899 11.507409,7.458574 11.680114,7.451588" style="fill: white" /><polygon type="contour" points="11.671467,8.538034 11.671881,8.741048 11.672076,8.832565 11.451851,8.832121 11.379441,8.832599 11.378972,8.635034 11.378883,8.538217 11.455398,8.537693" style="fill: white" /><polygon type="contour" points="11.501798,8.089634 11.501645,8.137924 11.501802,8.191561 11.50198,8.286372 11.378136,8.286372 11.377568,8.191561 11.377512,8.111756 11.377876,8.031086 11.377876,8.007726 11.501776,8.007726" style="fill: white" /><polygon type="contour" points="7.541568,7.452295 7.62429,7.458573 7.750776,7.458899 7.751349,7.51172 7.751349,7.564438 7.751591,7.567173 7.751765,7.628129 7.751765,7.751766 7.459425,7.751766 7.459069,7.648809 7.451586,7.451588" style="fill: white" /><polygon type="contour" points="7.752817,8.538217 7.752366,8.727343 7.752258,8.832599 7.679848,8.832122 7.459625,8.832565 7.460039,8.629144 7.460233,8.538035 7.515126,8.538035 7.720461,8.537693" style="fill: white" /><polygon type="contour" points="7.753824,8.031086 7.75419,8.112645 7.75413,8.191561 7.753565,8.286372 7.62972,8.286372 7.629898,8.191561 7.630055,8.137435 7.629901,8.089634 7.629921,8.007726 7.753824,8.007726" style="fill: white" /><polygon type="contour" points="8.28637,7.753566 8.19156,7.754131 8.112674,7.754191 8.031084,7.753826 8.007723,7.753826 8.007723,7.629923 8.089634,7.629902 8.137432,7.630057 8.19156,7.6299 8.28637,7.629722" style="fill: white" /><polygon type="contour" points="8.286057,8.007676 8.285827,8.089366 8.285827,8.101671 8.285311,8.101671 8.28637,8.256878 8.28637,8.286372 8.191561,8.28583 8.177237,8.28583 8.177237,8.285583 8.031435,8.286059 8.007674,8.286059 8.007261,8.191561 8.00741,8.101696 8.007285,8.101697 8.007723,8.031086 8.007723,8.007726 8.089633,8.007286 8.101696,8.007286 8.101696,8.007416 8.19156,8.007261" style="fill: white" /><polygon type="contour" points="8.760641,8.007676 8.83498,8.007726 8.835091,8.030197 8.835251,8.101713 8.835177,8.101713 8.835265,8.191561 8.834818,8.286372 8.540308,8.286372 8.540656,8.191562 8.540656,8.177238 8.540719,8.177238 8.540597,8.031439 8.540597,8.007675 8.760119,8.007154" style="fill: white" /><polygon type="contour" points="8.832454,7.487153 8.832618,7.515294 8.833158,7.582757 8.832753,7.752543 8.635033,7.752729 8.538216,7.752817 8.537691,7.720462 8.53779,7.511475 8.53779,7.459895 8.731182,7.460097 8.832618,7.459888" style="fill: white" /><polygon type="contour" points="9.780327,7.724101 9.78028,7.753551 9.67445,7.753885 9.653037,7.753885 9.653037,7.650228 9.652982,7.629804 9.749772,7.629727 9.780327,7.629696" style="fill: white" /><polygon type="contour" points="9.381928,7.629727 9.478131,7.629804 9.478131,7.734693 9.478082,7.753885 9.383551,7.753551 9.351421,7.753551 9.351421,7.660374 9.351374,7.629696" style="fill: white" /><polygon type="contour" points="9.479096,8.089634 9.479361,8.157369 9.478131,8.269411 9.477971,8.286812 9.383931,8.286347 9.35125,8.286347 9.35161,8.191561 9.351899,8.129376 9.351102,8.030196 9.351152,8.007726 9.456669,8.007204 9.478082,8.007204" style="fill: white" /><polygon type="contour" points="9.74882,8.007726 9.780549,8.007726 9.780003,8.089635 9.780024,8.101713 9.779747,8.101713 9.780327,8.259739 9.780451,8.286347 9.674972,8.286812 9.653151,8.286812 9.652691,8.191561 9.652299,8.149706 9.652982,8.022027 9.653037,8.007204" style="fill: white" /><polygon type="contour" points="10.591103,8.031439 10.590982,8.177237 10.591045,8.177237 10.591045,8.191562 10.591392,8.286372 10.296883,8.286372 10.29658,8.205046 10.296436,8.191561 10.296523,8.101712 10.29645,8.101713 10.29661,8.030197 10.296721,8.007726 10.518027,8.007726 10.591103,8.007676" style="fill: white" /><polygon type="contour" points="10.59391,7.459895 10.59391,7.511475 10.593325,7.57938 10.593325,7.752562 10.404358,7.752366 10.299104,7.752259 10.29958,7.679849 10.299083,7.459888 10.508432,7.459705" style="fill: white" /><polygon type="contour" points="10.940139,7.6299 10.994265,7.630057 11.042067,7.629903 11.123977,7.629923 11.123977,7.753826 11.100615,7.753826 11.019026,7.754191 10.940138,7.75413 10.84533,7.753566 10.84533,7.629722" style="fill: white" /><polygon type="contour" points="11.030004,8.007416 11.030003,8.007286 11.100615,8.007726 11.123977,8.007726 11.124415,8.089635 11.124415,8.101697 11.124284,8.101697 11.12444,8.191561 11.124026,8.286059 11.042334,8.28583 10.940139,8.28583 10.926655,8.286059 10.84533,8.286372 10.845873,8.191561 10.845873,8.177238 10.84612,8.177238 10.845643,8.031439 10.845643,8.007676 10.940139,8.007261" style="fill: white" /><polygon type="contour" points="10.940138,8.540657 10.954463,8.540657 10.954463,8.540719 11.100263,8.540599 11.124026,8.540599 11.124026,8.760643 11.123977,8.834982 11.101504,8.835093 11.029988,8.835253 11.029988,8.835179 10.940139,8.835267 10.84533,8.83482 10.84533,8.54031" style="fill: white" /><polygon type="contour" points="10.592651,8.53905 10.592845,8.73934 10.592845,8.833334 10.390364,8.833215 10.298568,8.833135 10.298258,8.629951 10.298181,8.53858 10.394498,8.53858" style="fill: white" /><polygon type="contour" points="10.59081,9.653732 10.591386,9.747771 10.591386,9.780452 10.372284,9.780452 10.296901,9.780328 10.296246,9.674142 10.296246,9.653658 10.543558,9.653658" style="fill: white" /><polygon type="contour" points="10.59081,9.456728 10.59081,9.478552 10.346589,9.478552 10.296246,9.478633 10.296901,9.382249 10.296901,9.351376 10.520183,9.351376 10.591386,9.351252" style="fill: white" /><polygon type="contour" points="10.940139,9.351612 10.989937,9.351843 11.103639,9.351376 11.126369,9.351423 11.124499,9.457252 11.124499,9.478666 11.042067,9.479099 10.988742,9.479303 10.86229,9.478721 10.84489,9.478552 10.845354,9.383933 10.845354,9.351252" style="fill: white" /><polygon type="contour" points="11.109673,9.653571 11.124499,9.653621 11.126369,9.74815 11.126369,9.780281 11.042067,9.780004 11.029988,9.780025 11.029988,9.779673 10.940139,9.780092 10.926541,9.780452 10.845354,9.780452 10.84489,9.675554 10.84489,9.653732 10.940139,9.652692 10.998039,9.652151" style="fill: white" /><polygon type="contour" points="11.501975,9.381931 11.501898,9.478721 11.397007,9.478721 11.377816,9.478666 11.378151,9.383554 11.378151,9.351423 11.471327,9.351423 11.502006,9.351376" style="fill: white" /><polygon type="contour" points="11.501975,9.749773 11.502006,9.780328 11.4076,9.780328 11.378151,9.780281 11.377816,9.675034 11.377816,9.653621 11.481474,9.653621 11.501898,9.653572" style="fill: white" /><polygon type="contour" points="11.45185,10.299582 11.672076,10.299139 11.671661,10.502559 11.671467,10.593669 11.616574,10.593669 11.411239,10.594009 11.378883,10.593485 11.379333,10.40436 11.379441,10.299106" style="fill: white" /><polygon type="contour" points="11.029988,10.296525 11.029988,10.296452 11.101504,10.296611 11.123977,10.296723 11.123977,10.51803 11.124026,10.591105 11.100263,10.591105 10.954463,10.590984 10.954463,10.591047 10.940139,10.591047 10.84533,10.591393 10.84533,10.296885 10.940139,10.296437" style="fill: white" /><polygon type="contour" points="10.592967,10.390367 10.592651,10.592653 10.496333,10.592653 10.29845,10.592908 10.298487,10.390366 10.298567,10.29857 10.505901,10.29857 10.592967,10.298489" style="fill: white" /><polygon type="contour" points="10.594008,11.411241 10.59391,11.620228 10.59391,11.671808 10.400518,11.671607 10.299083,11.671816 10.299247,11.64455 10.299082,11.616408 10.298543,11.548946 10.298948,11.37916 10.496666,11.378974 10.593484,11.378886" style="fill: white" /><polygon type="contour" points="11.100616,11.377878 11.123977,11.377878 11.123977,11.501779 11.042067,11.5018 10.993776,11.501647 10.940139,11.501803 10.84533,11.501981 10.84533,11.378138 10.940139,11.37757 11.019945,11.377514" style="fill: white" /><polygon type="contour" points="10.940138,10.845874 10.954463,10.845874 10.954463,10.84612 11.100264,10.845645 11.124026,10.845645 11.12444,10.940141 11.124284,11.030007 11.124415,11.030007 11.123977,11.100616 11.123977,11.123978 11.042066,11.124418 11.030004,11.124418 11.030004,11.124287 10.940139,11.124443 10.845643,11.124027 10.845873,11.042336 10.845873,11.030033 10.846388,11.030033 10.84533,10.874826 10.84533,10.845332" style="fill: white" /><polygon type="contour" points="10.591045,10.940141 10.591045,10.954466 10.590982,10.954466 10.591103,11.100264 10.591103,11.124027 10.371059,11.124027 10.296721,11.123978 10.296609,11.101505 10.29645,11.029991 10.296523,11.029991 10.296435,10.940142 10.296882,10.845332 10.591392,10.845332" style="fill: white" /><polygon type="contour" points="8.835265,10.940142 8.835177,11.029991 8.835251,11.029991 8.835091,11.101505 8.83498,11.123978 8.613671,11.123978 8.540597,11.124027 8.540597,11.100264 8.540719,10.954466 8.540656,10.954466 8.540656,10.940141 8.540308,10.845332 8.834818,10.845332" style="fill: white" /><polygon type="contour" points="8.727342,11.379335 8.832597,11.379444 8.83212,11.451853 8.832618,11.671816 8.623267,11.671998 8.53779,11.671808 8.53779,11.620229 8.538374,11.552322 8.538374,11.37914" style="fill: white" /><polygon type="contour" points="9.478082,11.481476 9.478131,11.5019 9.381929,11.501976 9.351374,11.502007 9.351374,11.407602 9.351421,11.378152 9.456668,11.377819 9.478082,11.377819" style="fill: white" /><polygon type="contour" points="9.748149,11.378153 9.78028,11.378153 9.78028,11.471328 9.780327,11.502007 9.749772,11.501976 9.652982,11.5019 9.652982,11.39701 9.653037,11.377819" style="fill: white" /><polygon type="contour" points="9.747768,10.845357 9.780451,10.845357 9.780091,10.940141 9.779859,10.98994 9.780327,11.103642 9.78028,11.126372 9.67445,11.1245 9.653037,11.1245 9.652602,11.042069 9.652396,10.989104 9.652982,10.862292 9.653151,10.844892" style="fill: white" /><polygon type="contour" points="9.479009,10.940142 9.47955,10.998024 9.478131,11.109674 9.478082,11.1245 9.383552,11.126372 9.351421,11.126372 9.351698,11.04207 9.351677,11.029991 9.351953,11.029991 9.351374,10.871964 9.35125,10.845357 9.456148,10.844892 9.477971,10.844892" style="fill: white" /><polygon type="contour" points="9.478045,10.543558 9.47797,10.59081 9.383932,10.591388 9.35125,10.591388 9.35125,10.372286 9.351374,10.296903 9.457559,10.296248 9.478045,10.296248" style="fill: white" /><polygon type="contour" points="9.749453,10.296903 9.780327,10.296903 9.780327,10.520185 9.780451,10.591388 9.674972,10.59081 9.653151,10.59081 9.653151,10.346591 9.65307,10.296248" style="fill: white" /><polygon type="contour" points="9.781055,9.653658 9.780327,9.749454 9.780327,9.780328 9.673555,9.781058 9.65307,9.781058 9.65307,9.674143 9.652982,9.653572 9.760816,9.653572" style="fill: white" /><polygon type="contour" points="9.478131,9.760817 9.478045,9.781058 9.382247,9.780328 9.351374,9.780328 9.350646,9.674142 9.350646,9.653658 9.457559,9.653658 9.478131,9.653572" style="fill: white" /><polygon type="contour" points="9.478045,9.458148 9.478131,9.478721 9.370885,9.478721 9.350646,9.478633 9.351374,9.38225 9.351374,9.351376 9.45756,9.350647 9.478045,9.350647" style="fill: white" /><polygon type="contour" points="9.749452,9.351376 9.780327,9.351376 9.781055,9.458148 9.781055,9.478633 9.673555,9.478633 9.652982,9.478721 9.652982,9.370886 9.65307,9.350647" style="fill: white" /><polygon type="contour" points="9.780451,8.759417 9.780327,8.834802 9.673554,8.835457 9.65307,8.835457 9.65307,8.588144 9.653151,8.540893 9.747768,8.540316 9.780451,8.540316" style="fill: white" /><polygon type="contour" points="9.456147,8.540894 9.477971,8.540894 9.477971,8.785111 9.478045,8.835457 9.382247,8.834802 9.351374,8.834802 9.351374,8.611518 9.35125,8.540316" style="fill: white" /><polygon type="contour" points="8.833214,8.741337 8.833133,8.833135 8.625798,8.833135 8.538732,8.833216 8.538732,8.741337 8.539049,8.53905 8.635366,8.53905 8.83325,8.538793" style="fill: white" /><polygon type="contour" points="8.28637,8.83482 8.19156,8.835267 8.101711,8.835179 8.101712,8.835253 8.030195,8.835093 8.007723,8.834982 8.007723,8.613673 8.007674,8.540599 8.031435,8.540599 8.177236,8.540719 8.177236,8.540657 8.191561,8.540657 8.28637,8.54031" style="fill: white" /><polygon type="contour" points="7.753549,9.351423 7.753884,9.457252 7.753884,9.478666 7.650226,9.478666 7.629802,9.478721 7.629725,9.38193 7.629694,9.351376 7.724099,9.351376" style="fill: white" /><polygon type="contour" points="7.753884,9.653621 7.753549,9.748149 7.753549,9.780281 7.660372,9.780281 7.629694,9.780328 7.629725,9.749773 7.629802,9.653572 7.734692,9.653572" style="fill: white" /><polygon type="contour" points="8.269409,9.653571 8.28681,9.653732 8.286346,9.747771 8.286346,9.780452 8.19156,9.780092 8.129375,9.779802 8.030194,9.7806 8.007723,9.78055 8.007201,9.675033 8.007201,9.653621 8.089634,9.652605 8.157381,9.65234" style="fill: white" /><polygon type="contour" points="8.286346,9.351252 8.28681,9.456728 8.28681,9.478552 8.191561,9.47901 8.149745,9.479402 8.022025,9.47872 8.007201,9.478666 8.007723,9.382882 8.007723,9.351154 8.089634,9.3517 8.101712,9.351679 8.101712,9.35203 8.19156,9.351612 8.205043,9.350986" style="fill: white" /><polygon type="contour" points="8.8348,9.351375 8.835455,9.458148 8.835455,9.478633 8.588141,9.478633 8.540891,9.478552 8.540314,9.383933 8.540314,9.351252 8.759415,9.351252" style="fill: white" /><polygon type="contour" points="8.8348,9.749453 8.8348,9.780328 8.611516,9.780328 8.540314,9.780452 8.540891,9.675554 8.540891,9.653732 8.785109,9.653732 8.835455,9.653658" style="fill: white" /><polygon type="contour" points="8.741336,10.298489 8.833133,10.298569 8.833441,10.501751 8.83352,10.593124 8.737202,10.593124 8.539049,10.592653 8.538855,10.392363 8.538855,10.298371" style="fill: white" /><polygon type="contour" points="8.28637,10.296885 8.28637,10.591393 8.19156,10.591047 8.177237,10.591047 8.177237,10.590984 8.031435,10.591105 8.007674,10.591105 8.007674,10.37159 8.007235,10.371132 8.007757,10.370326 8.007723,10.296723 8.030195,10.296611 8.101712,10.296452 8.101712,10.296525 8.19156,10.296437" style="fill: white" /><polygon type="contour" points="7.752727,10.496668 7.752817,10.593486 7.676301,10.59401 7.460233,10.593669 7.459819,10.390655 7.459625,10.299139 7.679848,10.299582 7.752258,10.299106" style="fill: white" /><polygon type="contour" points="7.754129,10.940141 7.75419,11.019059 7.753824,11.100617 7.753824,11.123978 7.629921,11.123978 7.629901,11.04207 7.630055,10.994268 7.629898,10.940142 7.62972,10.845332 7.753565,10.845332" style="fill: white" /><polygon type="contour" points="8.285827,10.940142 8.285827,10.954466 8.285579,10.954466 8.286057,11.100264 8.286057,11.124027 8.19156,11.124443 8.101695,11.124287 8.101696,11.124418 8.031084,11.123978 8.007723,11.123978 8.007285,11.04207 8.007285,11.030007 8.00741,11.030007 8.007261,10.940142 8.007674,10.845645 8.089365,10.845874 8.19156,10.845874 8.205044,10.845645 8.28637,10.845332" style="fill: white" /><polygon type="contour" points="8.19156,11.37757 8.28637,11.378138 8.28637,11.501981 8.19156,11.501803 8.137921,11.501647 8.089633,11.5018 8.007723,11.501779 8.007723,11.377878 8.031083,11.377878 8.111755,11.377514" style="fill: white" /><polygon type="contour" points="7.751765,11.503575 7.751591,11.564531 7.751349,11.619984 7.750823,11.624132 7.750776,11.672806 7.62429,11.67313 7.451586,11.680116 7.451682,11.592782 7.45907,11.482893 7.459425,11.379937 7.751765,11.379937" style="fill: white" />
</svg>
