<svg width="19.131698" height="19.131699">
<polygon type="contour" points="17.40454,14.717229 17.404514,14.911625 17.465818,14.911893 17.466558,14.911905 17.499854,14.911955 17.499854,15.012169 17.499306,15.244608 17.467765,15.244496 17.434264,15.244641 17.409533,15.244463 17.399119,15.244654 17.309291,15.245025 17.309041,15.34127 17.308798,15.367628 17.308798,17.025488 17.308922,17.0411 17.30942,17.16666 17.400554,17.166218 17.410855,17.166204 17.435036,17.166182 17.467765,17.166227 17.469301,17.166096 17.499306,17.166106 17.49924,17.232511 17.499782,17.475034 17.499782,17.499784 17.392322,17.499898 17.391684,17.499788 17.16606,17.499264 17.166224,17.467767 17.166224,17.436108 17.16618,17.435038 17.166202,17.410857 17.166216,17.400556 17.166655,17.309422 17.041098,17.308924 17.025486,17.3088 15.367625,17.3088 15.341268,17.309044 15.245024,17.309295 15.244652,17.399121 15.244461,17.409537 15.244639,17.434264 15.244494,17.436108 15.244494,17.467768 15.244594,17.469303 15.244605,17.499308 15.012169,17.499856 14.911955,17.499856 14.911892,17.46582 14.911624,17.404516 14.733649,17.404632 14.715726,17.404188 14.713246,17.364106 14.725289,17.306951 14.727818,17.122696 14.728002,17.025487 14.728002,15.367629 14.72692,15.34127 14.726205,15.180105 14.715098,14.715099 15.157463,14.723972 15.180104,14.726207 15.341267,14.726921 15.367626,14.728003 17.025486,14.728003 17.116773,14.720955 17.303058,14.711539 17.404536,14.707062" style="fill: white" /><polygon type="contour" points="17.499782,1.631919 17.499782,1.656671 17.499239,1.89919 17.499306,1.965597 17.467765,1.965477 17.436105,1.965477 17.435035,1.965522 17.410856,1.965501 17.400553,1.965486 17.30942,1.965043 17.308921,2.090603 17.308798,2.106214 17.308798,3.764074 17.309042,3.790432 17.309291,3.886678 17.399119,3.88705 17.409533,3.887241 17.434264,3.887063 17.436106,3.887209 17.467766,3.887209 17.469301,3.887106 17.499306,3.887096 17.499854,4.119533 17.499854,4.219748 17.465818,4.219811 17.404512,4.220078 17.404802,4.398019 17.404742,4.416097 17.364064,4.42022 17.306745,4.406453 17.122038,4.403897 17.025485,4.403699 15.367626,4.403699 15.341267,4.404781 15.180103,4.405495 14.715098,4.416604 14.726132,3.960764 14.726206,3.951596 14.72692,3.790433 14.728002,3.764073 14.728002,2.106215 14.727818,2.009006 14.72529,1.824753 14.713246,1.767599 14.715726,1.727516 14.733648,1.727071 14.911624,1.727184 14.911892,1.665883 14.911906,1.665143 14.911955,1.631848 15.012169,1.631848 15.244606,1.632396 15.244494,1.663936 15.244639,1.697438 15.244461,1.722167 15.244652,1.732582 15.245024,1.822408 15.341267,1.822658 15.367625,1.822904 17.025485,1.822904 17.041098,1.822778 17.166655,1.822282 17.166216,1.731147 17.166202,1.720846 17.16618,1.696664 17.166226,1.663935 17.166094,1.6624 17.16606,1.63244 17.391684,1.631916 17.392322,1.631807" style="fill: white" /><polygon type="contour" points="1.740016,1.631916 1.965639,1.63244 1.965475,1.663936 1.965475,1.695597 1.965521,1.696665 1.965498,1.720846 1.965485,1.731147 1.965041,1.822282 2.0906,1.822779 2.106213,1.822904 3.764071,1.822904 3.790431,1.822659 3.886676,1.822408 3.887048,1.732581 3.88724,1.722167 3.887062,1.697438 3.887207,1.695596 3.887207,1.663936 3.887104,1.6624 3.887094,1.632396 4.119531,1.631848 4.219745,1.631848 4.219808,1.665883 4.220076,1.727184 4.414472,1.72716 4.424639,1.727164 4.42016,1.828642 4.410746,2.014927 4.403697,2.106215 4.403697,3.764073 4.40478,3.790433 4.405493,3.951596 4.416602,4.416604 3.974235,4.407732 3.951595,4.405495 3.79043,4.40478 3.764071,4.403699 2.106213,4.403699 2.00966,4.403897 1.824954,4.406452 1.767636,4.42022 1.72696,4.416097 1.726899,4.398019 1.727182,4.220078 1.665882,4.219811 1.665142,4.219798 1.631847,4.219748 1.631847,4.119532 1.632394,3.887097 1.663935,3.887209 1.697436,3.887064 1.722164,3.887241 1.73258,3.88705 1.822407,3.886678 1.822657,3.790432 1.822902,3.764074 1.822902,2.106214 1.822778,2.090603 1.822281,1.965043 1.731147,1.965486 1.720843,1.965501 1.696663,1.965522 1.663935,1.965477 1.662399,1.965607 1.632394,1.965597 1.63246,1.899191 1.631917,1.656671 1.631917,1.631919 1.739378,1.631807" style="fill: white" /><polygon type="contour" points="1.828639,14.711539 2.014925,14.720955 2.106213,14.728003 3.764071,14.728003 3.79043,14.726921 3.951595,14.726206 4.416602,14.715099 4.405566,15.170937 4.405493,15.180105 4.40478,15.34127 4.403697,15.367629 4.403697,17.025487 4.410745,17.116775 4.420161,17.303059 4.424639,17.40454 4.414472,17.404542 4.220076,17.404516 4.219808,17.46582 4.219796,17.46656 4.219745,17.499856 4.119531,17.499856 3.887094,17.499308 3.887207,17.467768 3.887062,17.434264 3.88724,17.409538 3.887047,17.399121 3.886676,17.309295 3.790429,17.309044 3.764072,17.3088 2.106212,17.3088 2.090601,17.308923 1.965041,17.309422 1.965485,17.400556 1.965498,17.410857 1.96552,17.435038 1.965475,17.467768 1.965605,17.469304 1.965639,17.499264 1.740015,17.499787 1.739377,17.499898 1.631917,17.499784 1.631917,17.475034 1.63246,17.232511 1.632394,17.166106 1.663934,17.166228 1.695594,17.166228 1.696663,17.166182 1.720844,17.166204 1.731146,17.166218 1.822281,17.16666 1.822777,17.041099 1.822902,17.025488 1.822902,15.367628 1.822657,15.341271 1.822407,15.245026 1.732581,15.244654 1.722165,15.244463 1.697436,15.244641 1.695594,15.244496 1.663934,15.244496 1.662399,15.244596 1.632394,15.244608 1.631847,15.012169 1.631847,14.911956 1.665883,14.911893 1.727182,14.911625 1.727158,14.717229 1.727163,14.707062" style="fill: white" />
</svg>
