<svg width="19.131698" height="19.131699">
<polygon type="contour" points="10.664572,8.438449 10.693382,8.438319 10.693301,8.459348 10.693236,8.648823 10.693213,8.721172 10.676057,8.721112 10.642355,8.721423 10.52661,8.721423 10.526365,8.80487 10.481035,8.805052 10.365522,8.805052 10.330501,8.80487 10.326834,8.80487 10.326651,8.766178 10.326651,8.650665 10.326834,8.609707 10.326834,8.605338 10.329948,8.605327 10.410123,8.605093 10.410123,8.520005 10.413318,8.435299" style="fill: white" /><polygon type="contour" points="8.8012,10.326835 8.804867,10.326835 8.80505,10.365525 8.80505,10.481037 8.804867,10.521997 8.804867,10.526367 8.801753,10.526377 8.721577,10.526611 8.721577,10.611698 8.718381,10.696402 8.467128,10.693255 8.438318,10.693385 8.438398,10.672355 8.438463,10.482879 8.438487,10.41053 8.455642,10.41059 8.489344,10.41028 8.60509,10.41028 8.605336,10.326835 8.650662,10.326653 8.766175,10.326653" style="fill: white" /><polygon type="contour" points="8.8012,9.337996 8.804867,9.337996 8.804752,9.377744 8.804752,9.753959 8.804867,9.790117 8.804867,9.793708 8.766176,9.793757 8.650663,9.793757 8.609705,9.793708 8.605336,9.793708 8.60533,9.790657 8.605189,9.711102 8.43365,9.711102 8.433799,9.701263 8.434451,9.565501 8.433799,9.430394 8.43365,9.420602 8.605188,9.420602 8.605336,9.337996 8.650662,9.337947 8.766175,9.337947" style="fill: white" /><polygon type="contour" points="8.721577,8.520005 8.72142,8.5545 8.72142,8.605092 8.804867,8.605338 8.80505,8.650665 8.80505,8.766178 8.804867,8.801203 8.804867,8.80487 8.766176,8.805052 8.650663,8.805052 8.609705,8.80487 8.605336,8.80487 8.605326,8.801756 8.605091,8.721423 8.489343,8.721423 8.438487,8.721172 8.438463,8.648823 8.438398,8.459348 8.438318,8.438319 8.467127,8.438449 8.718381,8.435299" style="fill: white" /><polygon type="contour" points="9.676259,8.437544 9.711101,8.438604 9.711101,8.605188 9.793706,8.605338 9.793755,8.650664 9.793755,8.766178 9.793706,8.801203 9.793706,8.80487 9.753958,8.804754 9.377743,8.804754 9.341583,8.80487 9.337994,8.80487 9.337945,8.766179 9.337945,8.650665 9.337994,8.609707 9.337994,8.605338 9.341045,8.605331 9.4206,8.605188 9.4206,8.438604 9.455609,8.437544 9.566152,8.434446" style="fill: white" /><polygon type="contour" points="9.793689,9.377745 9.793689,9.753958 9.793706,9.790118 9.793706,9.793708 9.753957,9.793691 9.377743,9.793691 9.341583,9.793708 9.337994,9.793708 9.338011,9.753958 9.338011,9.377745 9.337994,9.341585 9.337994,9.337996 9.377743,9.338013 9.753958,9.338013 9.790115,9.337996 9.793706,9.337996" style="fill: white" /><polygon type="contour" points="10.521994,9.337996 10.526364,9.337996 10.52637,9.341046 10.526511,9.420602 10.69805,9.420602 10.697901,9.430441 10.697249,9.566202 10.6979,9.701309 10.69805,9.711102 10.526512,9.711102 10.526365,9.793708 10.481035,9.793757 10.365523,9.793757 10.3305,9.793708 10.326834,9.793708 10.326948,9.753958 10.326948,9.377744 10.326834,9.341586 10.326834,9.337996 10.365523,9.337947 10.481036,9.337947" style="fill: white" /><polygon type="contour" points="10.521994,10.326835 10.526365,10.326835 10.526375,10.329949 10.526609,10.41028 10.642355,10.41028 10.693213,10.41053 10.693236,10.482879 10.693301,10.672355 10.693382,10.693385 10.664571,10.693255 10.413319,10.696402 10.410123,10.611698 10.410279,10.577203 10.410279,10.526612 10.326834,10.526367 10.326651,10.481037 10.326651,10.365525 10.326834,10.330501 10.326834,10.326835 10.365522,10.326653 10.481036,10.326653" style="fill: white" /><polygon type="contour" points="9.793755,10.365524 9.793755,10.481038 9.793706,10.521996 9.793706,10.526367 9.790654,10.526373 9.711101,10.526513 9.711101,10.693099 9.676091,10.694159 9.5655,10.697258 9.45544,10.694159 9.4206,10.6931 9.4206,10.526514 9.337994,10.526367 9.337945,10.481037 9.337945,10.365524 9.337994,10.330502 9.337994,10.326835 9.377743,10.326949 9.753958,10.326949 9.790115,10.326835 9.793706,10.326835" style="fill: white" />
</svg>
