<svg width="19.131698" height="19.131699">
<polygon type="contour" points="12.110368,7.129726 12.107456,7.229985 12.107543,7.260526 12.107012,7.300655 12.107042,7.322994 11.923318,7.322994 11.808645,7.323058 11.808645,7.228578 11.808709,7.208384 11.808709,7.024661 11.831047,7.024691 11.921947,7.023972 12.113331,7.018371" style="fill: white" /><polygon type="contour" points="10.641445,7.024298 10.641743,7.245156 10.641743,7.323111 10.423206,7.323111 10.346242,7.323058 10.346436,7.230196 10.346944,7.187323 10.346941,7.186736 10.346994,7.110056 10.36127,7.109562 10.360608,7.028273 10.36037,7.023591 10.377743,7.02353" style="fill: white" /><polygon type="contour" points="7.209749,7.023972 7.300652,7.024691 7.323058,7.024661 7.322991,7.05325 7.322991,7.208383 7.323055,7.323058 7.228289,7.322668 7.208381,7.322994 7.179792,7.323061 7.024659,7.323061 7.024688,7.300655 7.024243,7.229984 7.021071,7.129727 7.018369,7.018371" style="fill: white" /><polygon type="contour" points="8.613364,7.023141 8.753957,7.02353 8.77133,7.023591 8.770628,7.109569 8.784707,7.110055 8.784548,7.139346 8.785009,7.196064 8.784859,7.196139 8.785074,7.290648 8.785458,7.323058 8.56518,7.323058 8.489956,7.323111 8.490255,7.107501 8.490255,7.024298 8.566975,7.020132" style="fill: white" /><polygon type="contour" points="9.400829,7.552968 9.400763,7.611084 9.400763,7.792931 9.311932,7.793134 9.117566,7.793537 9.117383,7.711196 9.116692,7.552878 9.254127,7.552878" style="fill: white" /><polygon type="contour" points="9.400829,7.237632 9.400829,7.32329 9.307713,7.32329 9.116692,7.322974 9.117529,7.228629 9.117529,7.196527 9.229515,7.196389 9.400763,7.195922" style="fill: white" /><polygon type="contour" points="9.819286,7.196122 9.979066,7.196022 10.013777,7.196037 10.015009,7.257542 10.015009,7.322974 9.877571,7.322974 9.730401,7.32329 9.730408,7.292412 9.730408,7.195922" style="fill: white" /><polygon type="contour" points="10.014769,7.665157 10.014133,7.793537 9.941763,7.793368 9.730408,7.792931 9.730401,7.714401 9.730401,7.552968 9.823516,7.552968 10.015009,7.552878" style="fill: white" /><polygon type="contour" points="10.014133,8.105794 10.015142,8.238252 9.819287,8.238527 9.730388,8.238665 9.730408,8.190722 9.730408,8.041214 9.819286,8.041128 10.014133,8.041047" style="fill: white" /><polygon type="contour" points="9.40083,8.489952 9.400989,8.582305 9.400989,8.785141 9.311932,8.785141 9.116931,8.785017 9.116931,8.489946 9.247818,8.489935" style="fill: white" /><polygon type="contour" points="9.189936,8.041129 9.400763,8.041215 9.40083,8.102124 9.40083,8.238665 9.311933,8.238528 9.116556,8.238252 9.116556,8.14602 9.117566,8.041047" style="fill: white" /><polygon type="contour" points="8.784866,7.67113 8.784993,7.793537 8.689849,7.793508 8.49029,7.793508 8.490151,7.711195 8.489957,7.553393 8.785013,7.553393" style="fill: white" /><polygon type="contour" points="8.238249,8.627639 8.238249,8.785017 8.105792,8.784996 8.041045,8.784996 8.04096,8.689851 8.04096,8.490292 8.104914,8.490292 8.238449,8.489935" style="fill: white" /><polygon type="contour" points="7.323289,9.823988 7.322971,10.015012 7.228628,10.014175 7.196524,10.014175 7.196387,9.902188 7.195921,9.73094 7.23763,9.730873 7.323289,9.730873" style="fill: white" /><polygon type="contour" points="7.611082,9.73094 7.792929,9.73094 7.793131,9.819768 7.793536,10.014135 7.711193,10.01432 7.552876,10.015012 7.552876,9.877574 7.552966,9.730873" style="fill: white" /><polygon type="contour" points="7.322971,9.254129 7.323289,9.401301 7.29241,9.401294 7.195921,9.401294 7.196121,9.312415 7.196021,9.152634 7.196035,9.117925 7.25754,9.116693 7.322971,9.116693" style="fill: white" /><polygon type="contour" points="7.665154,9.116933 7.793536,9.117568 7.793366,9.189938 7.792929,9.401294 7.714399,9.401301 7.552966,9.401301 7.552966,9.308186 7.552876,9.116693" style="fill: white" /><polygon type="contour" points="7.323109,8.708497 7.323055,8.785105 7.230195,8.784891 7.196138,8.784861 7.196095,8.784771 7.083082,8.784709 7.022996,8.785076 7.02314,8.613366 7.024296,8.490256 7.245153,8.489958 7.323109,8.489958" style="fill: white" /><polygon type="contour" points="7.711194,8.490152 7.793506,8.490292 7.793536,8.586959 7.793536,8.784995 7.711193,8.785091 7.553391,8.785015 7.553391,8.489959" style="fill: white" /><polygon type="contour" points="7.614537,8.041129 7.793366,8.041129 7.793506,8.104915 7.793506,8.238589 7.711193,8.238608 7.553237,8.238485 7.553237,8.142685 7.553357,8.040967" style="fill: white" /><polygon type="contour" points="7.323274,8.10884 7.323333,8.238485 7.264741,8.238452 7.19612,8.238452 7.195988,8.163126 7.195906,8.041129 7.239524,8.040967 7.323274,8.040967" style="fill: white" /><polygon type="contour" points="7.323218,7.674949 7.323274,7.793459 7.290795,7.793368 7.195906,7.793368 7.195936,7.711579 7.195908,7.553622 7.258941,7.553622 7.323218,7.553393" style="fill: white" /><polygon type="contour" points="7.711193,7.55336 7.793457,7.55336 7.793366,7.614539 7.793366,7.793368 7.711194,7.793459 7.553358,7.793459 7.553358,7.711196 7.553391,7.553393 7.677228,7.553239" style="fill: white" /><polygon type="contour" points="7.793366,7.195909 7.793457,7.239526 7.793457,7.323277 7.711193,7.323277 7.553391,7.32322 7.553391,7.196173 7.649932,7.195858" style="fill: white" /><polygon type="contour" points="8.163125,7.195992 8.238449,7.196122 8.238483,7.257542 8.238483,7.323335 8.108838,7.323277 8.040966,7.323277 8.041127,7.290798 8.041127,7.195909" style="fill: white" /><polygon type="contour" points="8.238606,7.711195 8.238587,7.793508 8.188153,7.793368 8.041127,7.793368 8.040966,7.711196 8.040966,7.55336 8.108838,7.55336 8.238483,7.553239" style="fill: white" /><polygon type="contour" points="8.238587,8.104916 8.238449,8.238452 8.14705,8.238452 8.04096,8.238589 8.041127,8.188155 8.041127,8.041129 8.104913,8.040962 8.238587,8.040962" style="fill: white" /><polygon type="contour" points="8.586957,8.041047 8.784993,8.041047 8.784993,8.105794 8.785015,8.238252 8.64904,8.238452 8.489932,8.238452 8.489932,8.147053 8.49029,8.040962" style="fill: white" /><polygon type="contour" points="8.704506,8.490269 8.784775,8.490269 8.784775,8.704509 8.784859,8.784861 8.568746,8.784861 8.490267,8.784777 8.490255,8.571906 8.490255,8.490257" style="fill: white" /><polygon type="contour" points="8.785015,9.249721 8.785139,9.401471 8.694274,9.401315 8.489951,9.401315 8.489958,9.312414 8.489943,9.116933 8.785015,9.116933" style="fill: white" /><polygon type="contour" points="8.238449,9.247442 8.238662,9.401315 8.190721,9.401294 8.041213,9.401294 8.041127,9.312414 8.041045,9.117568 8.105792,9.117568 8.238249,9.116559" style="fill: white" /><polygon type="contour" points="8.238526,9.819768 8.238249,10.015143 8.146019,10.015143 8.041045,10.014135 8.041127,9.941764 8.041213,9.73094 8.102122,9.730873 8.238662,9.730873" style="fill: white" /><polygon type="contour" points="9.40083,10.437427 9.40083,10.641752 9.311932,10.641744 9.116931,10.641758 9.116931,10.346685 9.249719,10.346685 9.400989,10.346563" style="fill: white" /><polygon type="contour" points="10.940449,9.73094 11.090487,9.73094 11.090572,9.819768 11.090654,10.014135 11.025905,10.014135 10.893076,10.014771 10.892873,9.883885 10.892554,9.730873" style="fill: white" /><polygon type="contour" points="11.839288,9.73094 11.93578,9.73094 11.93558,9.819769 11.935679,9.979154 11.935665,10.01378 11.874157,10.015012 11.808729,10.015012 11.808729,9.877574 11.808412,9.730873" style="fill: white" /><polygon type="contour" points="11.578735,9.823989 11.578824,10.015012 11.466545,10.014771 11.338164,10.014135 11.338333,9.941764 11.33877,9.73094 11.4173,9.730873 11.578735,9.730873" style="fill: white" /><polygon type="contour" points="12.107012,11.831049 12.107456,11.901718 12.110368,12.001977 12.113331,12.113333 11.921947,12.107729 11.831048,12.107013 11.808642,12.107043 11.808709,12.078453 11.808709,11.923319 11.808645,11.808646 11.903411,11.809036 11.923318,11.80871 11.951907,11.808644 12.107042,11.808644" style="fill: white" /><polygon type="contour" points="11.840904,11.338334 11.935794,11.338334 11.935765,11.420122 11.935793,11.578082 11.872758,11.578082 11.808483,11.578311 11.808483,11.456754 11.808426,11.338243" style="fill: white" /><polygon type="contour" points="11.578343,11.420506 11.578309,11.578311 11.454471,11.578464 11.420505,11.578344 11.338242,11.578344 11.338333,11.517164 11.338333,11.338334 11.420504,11.338243 11.578343,11.338243" style="fill: white" /><polygon type="contour" points="11.578309,11.808483 11.578309,11.93553 11.481767,11.935846 11.338333,11.935794 11.338242,11.892176 11.338242,11.808427 11.420505,11.808427" style="fill: white" /><polygon type="contour" points="10.641445,12.024202 10.641445,12.107406 10.564724,12.111571 10.518334,12.108562 10.377743,12.108173 10.360371,12.108113 10.36107,12.022134 10.346994,12.021648 10.347151,11.992356 10.346693,11.935637 10.34684,11.935562 10.346625,11.841055 10.346597,11.808646 10.566874,11.808646 10.641743,11.808592" style="fill: white" /><polygon type="contour" points="11.02286,11.808427 11.090734,11.808427 11.090572,11.840905 11.090572,11.935794 10.968574,11.93571 10.89325,11.93558 10.893217,11.874159 10.893217,11.808369" style="fill: white" /><polygon type="contour" points="10.943547,11.338334 11.090572,11.338334 11.090734,11.420506 11.090734,11.578344 11.022859,11.578344 10.893217,11.578464 10.893094,11.420506 10.893114,11.338194" style="fill: white" /><polygon type="contour" points="11.090572,10.943549 11.090572,11.090573 11.026785,11.09074 10.893114,11.09074 10.893114,11.026785 10.89325,10.893251 10.984648,10.893251 11.090739,10.893115" style="fill: white" /><polygon type="contour" points="11.578463,10.893219 11.578463,10.989018 11.578343,11.090735 11.517163,11.090573 11.338333,11.090573 11.338193,11.026786 11.338193,10.893115 11.420505,10.893096" style="fill: white" /><polygon type="contour" points="11.866958,10.893251 11.935578,10.893251 11.935709,10.968576 11.935794,11.090573 11.892175,11.090735 11.808426,11.090735 11.808426,11.022861 11.808367,10.893219" style="fill: white" /><polygon type="contour" points="11.841054,10.346628 11.935561,10.346841 11.935604,10.346933 12.048616,10.346995 12.108702,10.346627 12.10856,10.518335 12.107404,10.641446 11.886547,10.641745 11.808591,10.641745 11.808591,10.423207 11.808645,10.346599" style="fill: white" /><polygon type="contour" points="11.578309,10.34669 11.578309,10.641745 11.420504,10.641551 11.338193,10.641412 11.338164,10.544744 11.338164,10.346708 11.420505,10.346613" style="fill: white" /><polygon type="contour" points="11.025906,10.346708 11.090654,10.346708 11.090739,10.441853 11.090739,10.641412 11.026784,10.641412 10.89325,10.641769 10.893449,10.504065 10.893449,10.346685" style="fill: white" /><polygon type="contour" points="10.641445,10.559603 10.641445,10.641446 10.427192,10.641435 10.346733,10.641435 10.346733,10.427193 10.34684,10.346841 10.562953,10.346841 10.641433,10.346734" style="fill: white" /><polygon type="contour" points="10.641768,10.893252 10.641768,10.984652 10.64141,11.09074 10.544741,11.090655 10.346707,11.090655 10.346707,11.025908 10.346684,10.893451 10.482659,10.893251" style="fill: white" /><polygon type="contour" points="10.441851,11.338194 10.64141,11.338194 10.641549,11.420506 10.641743,11.578311 10.346688,11.578311 10.346833,11.460572 10.346707,11.338165" style="fill: white" /><polygon type="contour" points="10.014318,11.420506 10.015009,11.578826 9.823516,11.578736 9.730401,11.578736 9.730408,11.520619 9.730408,11.338771 9.819286,11.338568 10.014133,11.338165" style="fill: white" /><polygon type="contour" points="10.015009,11.80873 10.014172,11.903074 10.014172,11.935176 9.901908,11.935314 9.730408,11.935781 9.730401,11.894071 9.730401,11.808414 9.823516,11.808414" style="fill: white" /><polygon type="contour" points="9.400763,11.839291 9.400763,11.935781 9.311932,11.935582 9.152547,11.93568 9.117923,11.935666 9.116692,11.874159 9.116692,11.80873 9.254127,11.80873 9.400829,11.808414" style="fill: white" /><polygon type="contour" points="9.189937,11.338334 9.400763,11.338771 9.400829,11.417301 9.400829,11.578736 9.307713,11.578736 9.116692,11.578826 9.11693,11.466547 9.117566,11.338165" style="fill: white" /><polygon type="contour" points="9.400763,10.940452 9.400763,11.09049 9.311933,11.090575 9.117566,11.090655 9.117566,11.025907 9.116931,10.893078 9.311932,10.892695 9.40083,10.892556" style="fill: white" /><polygon type="contour" points="9.819286,10.892694 10.015142,10.893451 10.015142,10.985683 10.014133,11.090655 9.941762,11.090572 9.730408,11.09049 9.730388,11.029579 9.730388,10.892555" style="fill: white" /><polygon type="contour" points="10.014769,10.346685 10.014769,10.641758 9.883881,10.641769 9.730388,10.641752 9.730232,10.549398 9.730232,10.346563 9.819287,10.346563" style="fill: white" /><polygon type="contour" points="10.01491,9.819768 10.014769,10.014771 9.881981,10.014771 9.730232,10.014913 9.730408,9.946187 9.730408,9.73094 9.819286,9.730714 10.01491,9.730714" style="fill: white" /><polygon type="contour" points="10.437424,9.730873 10.641749,9.730873 10.641742,9.819769 10.641757,10.014771 10.346684,10.014771 10.346684,9.881983 10.34656,9.730714" style="fill: white" /><polygon type="contour" points="10.641768,9.247819 10.641749,9.401315 10.549396,9.401471 10.346561,9.401471 10.346561,9.312414 10.346684,9.116933 10.641757,9.116933" style="fill: white" /><polygon type="contour" points="11.090654,9.117568 11.090571,9.189939 11.090487,9.401294 11.029577,9.401315 10.892554,9.401315 10.892692,9.312415 10.893449,9.116559 10.98568,9.116559" style="fill: white" /><polygon type="contour" points="11.578824,9.254128 11.578735,9.401301 11.520617,9.401294 11.33877,9.401294 11.338567,9.312415 11.338164,9.117568 11.420505,9.117384 11.578824,9.116693" style="fill: white" /><polygon type="contour" points="11.903071,9.11753 11.935175,9.11753 11.935313,9.229793 11.93578,9.401294 11.894069,9.401301 11.808412,9.401301 11.808412,9.308186 11.808729,9.116693" style="fill: white" /><polygon type="contour" points="11.578309,8.785015 11.460571,8.784869 11.338164,8.784996 11.338193,8.689852 11.338193,8.490292 11.420504,8.490152 11.578309,8.489959" style="fill: white" /><polygon type="contour" points="12.0242,8.490257 12.107404,8.490257 12.11157,8.566975 12.10856,8.613366 12.108701,8.785076 12.057029,8.784795 12.048616,8.784708 11.992354,8.78455 11.935635,8.785011 11.935561,8.784861 11.841054,8.785075 11.808645,8.785461 11.808645,8.565182 11.808591,8.489958" style="fill: white" /><polygon type="contour" points="11.578343,8.10884 11.578463,8.238485 11.420505,8.238608 11.338193,8.238589 11.338333,8.188155 11.338333,8.041129 11.420505,8.040967 11.578343,8.040967" style="fill: white" /><polygon type="contour" points="11.840904,8.041129 11.935794,8.041129 11.935709,8.163126 11.935578,8.238452 11.874157,8.238485 11.808367,8.238485 11.808426,8.10884 11.808426,8.040967" style="fill: white" /><polygon type="contour" points="11.935845,7.649934 11.935794,7.793368 11.892176,7.793459 11.808426,7.793459 11.808426,7.711195 11.808483,7.553393 11.935528,7.553393" style="fill: white" /><polygon type="contour" points="11.578309,7.553393 11.578309,7.674949 11.578343,7.793459 11.517163,7.793368 11.338333,7.793368 11.338242,7.711196 11.338242,7.55336 11.420504,7.55336" style="fill: white" /><polygon type="contour" points="11.578309,7.196173 11.578309,7.32322 11.456753,7.32322 11.338242,7.323277 11.338333,7.290798 11.338333,7.195909 11.481767,7.195858" style="fill: white" /><polygon type="contour" points="11.090734,7.239527 11.090734,7.323277 11.02286,7.323277 10.893217,7.323335 10.89325,7.264743 10.89325,7.196122 10.968574,7.195992 11.090572,7.195909" style="fill: white" /><polygon type="contour" points="11.090734,7.553358 11.090572,7.614538 11.090572,7.793368 11.026785,7.793508 10.893114,7.793508 10.893094,7.711195 10.893217,7.553239 10.989017,7.553239" style="fill: white" /><polygon type="contour" points="10.641549,7.711195 10.64141,7.793508 10.544742,7.793537 10.346707,7.793537 10.346612,7.711195 10.346688,7.553393 10.641743,7.553393" style="fill: white" /><polygon type="contour" points="10.64141,8.104915 10.641768,8.238452 10.504063,8.238252 10.346684,8.238252 10.346707,8.105793 10.346707,8.041047 10.441852,8.040962 10.64141,8.040962" style="fill: white" /><polygon type="contour" points="10.943547,8.041129 11.090572,8.041129 11.090739,8.104915 11.090739,8.238589 11.026785,8.238589 10.89325,8.238452 10.89325,8.147053 10.893114,8.040962" style="fill: white" /><polygon type="contour" points="11.090739,8.490292 11.090654,8.586959 11.090654,8.784996 11.025905,8.784996 10.893449,8.785017 10.89325,8.649042 10.89325,8.489935 10.984648,8.489935" style="fill: white" /><polygon type="contour" points="10.641433,8.704508 10.641433,8.784777 10.427191,8.784777 10.34684,8.784861 10.34684,8.568747 10.346733,8.490269 10.559601,8.490257 10.641445,8.490257" style="fill: white" /><polygon type="contour" points="10.014769,8.785017 9.881981,8.785017 9.730232,8.785141 9.730388,8.694276 9.730388,8.489952 9.819287,8.48996 10.014769,8.489946" style="fill: white" /><polygon type="contour" points="10.014769,9.116933 10.014769,9.24972 10.01491,9.401471 9.946183,9.401294 9.730408,9.401294 9.730232,9.312415 9.730232,9.116789 9.819287,9.116789" style="fill: white" /><polygon type="contour" points="9.400763,9.185514 9.400763,9.401294 9.311933,9.401471 9.116787,9.401471 9.116787,9.312414 9.116931,9.116932 9.311932,9.116789 9.400989,9.116789" style="fill: white" /><polygon type="contour" points="9.185514,9.73094 9.400763,9.73094 9.400989,9.819769 9.400989,10.014913 9.311933,10.014913 9.116931,10.014771 9.116931,9.881983 9.116787,9.730714" style="fill: white" /><polygon type="contour" points="8.785139,9.819769 8.785015,10.014771 8.489943,10.014771 8.489932,9.883885 8.489951,9.730873 8.582304,9.730714 8.785139,9.730714" style="fill: white" /><polygon type="contour" points="8.784859,10.346841 8.784859,10.562955 8.784774,10.641435 8.571903,10.641446 8.490255,10.641446 8.490267,10.427193 8.490267,10.346734 8.704506,10.346734" style="fill: white" /><polygon type="contour" points="8.238449,10.48266 8.238449,10.641769 8.14705,10.641769 8.04096,10.641412 8.041045,10.544744 8.041045,10.346708 8.105791,10.346708 8.238249,10.346685" style="fill: white" /><polygon type="contour" points="8.238606,11.420506 8.238483,11.578464 8.142682,11.578464 8.040966,11.578344 8.041127,11.517165 8.041127,11.338334 8.104913,11.338194 8.238587,11.338194" style="fill: white" /><polygon type="contour" points="7.793366,11.840905 7.793366,11.935794 7.649932,11.935846 7.553391,11.93553 7.553391,11.808484 7.674946,11.808484 7.793457,11.808427" style="fill: white" /><polygon type="contour" points="8.238449,11.86696 8.238449,11.93558 8.163125,11.93571 8.041127,11.935794 8.040966,11.892176 8.040966,11.808427 8.108838,11.808427 8.238483,11.808369" style="fill: white" /><polygon type="contour" points="8.785459,11.808646 8.785074,11.841055 8.784858,11.935562 8.784766,11.935607 8.784707,12.021648 8.770429,12.022141 8.771092,12.103429 8.77133,12.108113 8.753957,12.108173 8.490255,12.107406 8.489956,11.886547 8.489956,11.808592 8.708494,11.808592" style="fill: white" /><polygon type="contour" points="8.785089,11.420506 8.785013,11.578311 8.489957,11.578311 8.490151,11.420506 8.49029,11.338193 8.586956,11.338165 8.784993,11.338165" style="fill: white" /><polygon type="contour" points="8.627636,10.893451 8.785015,10.893451 8.784993,11.025907 8.784993,11.090655 8.689848,11.09074 8.49029,11.09074 8.49029,11.026785 8.489932,10.893251" style="fill: white" /><polygon type="contour" points="8.238449,10.893251 8.238449,10.984651 8.238587,11.09074 8.188153,11.090573 8.041127,11.090573 8.04096,11.026786 8.04096,10.893115 8.104914,10.893115" style="fill: white" /><polygon type="contour" points="7.793506,10.893115 7.793366,10.943549 7.793366,11.090573 7.711193,11.090735 7.553358,11.090735 7.553358,11.022862 7.553237,10.893219 7.711193,10.893096" style="fill: white" /><polygon type="contour" points="7.671129,10.346835 7.793536,10.346708 7.793506,10.441853 7.793506,10.641412 7.711194,10.641551 7.553391,10.641745 7.553391,10.34669" style="fill: white" /><polygon type="contour" points="7.323055,10.566876 7.323109,10.641745 7.107499,10.641446 7.024296,10.641446 7.02013,10.564727 7.02314,10.518335 7.022996,10.346627 7.07467,10.346909 7.083082,10.346994 7.139346,10.347153 7.19606,10.346693 7.196138,10.346841 7.290646,10.346628 7.323055,10.346599" style="fill: white" /><polygon type="contour" points="7.323274,11.022861 7.323274,11.090735 7.290795,11.090573 7.195906,11.090573 7.195989,10.968577 7.19612,10.893251 7.25754,10.893219 7.323333,10.893219" style="fill: white" /><polygon type="contour" points="7.614537,11.338334 7.793366,11.338334 7.793457,11.420505 7.793457,11.578344 7.711194,11.578344 7.553391,11.578311 7.553391,11.456754 7.553358,11.338243" style="fill: white" /><polygon type="contour" points="7.323274,11.420505 7.323218,11.578311 7.260317,11.578311 7.195908,11.578082 7.195856,11.481767 7.195906,11.338334 7.239523,11.338243 7.323274,11.338243" style="fill: white" /><polygon type="contour" points="7.053248,11.80871 7.208381,11.80871 7.323055,11.808646 7.323055,11.903124 7.322991,11.923319 7.322991,12.107043 7.300652,12.107013 7.20975,12.10773 7.018369,12.113333 7.021071,12.001976 7.024243,11.901719 7.024688,11.831048 7.024659,11.808644" style="fill: white" />
</svg>
