<svg width="19.131698" height="19.131699">
<polygon type="contour" points="10.929227,8.267633 10.927669,8.410553 10.927367,8.476636 10.901023,8.476491 10.843894,8.476109 10.843894,9.253084 10.927545,9.253163 10.927419,9.334186 10.927667,9.490181 10.928063,9.543477 10.928063,9.566202 10.927667,9.619365 10.927667,9.641522 10.927419,9.797518 10.927545,9.878542 10.904361,9.878509 10.843894,9.878615 10.843894,10.655597 10.927367,10.655068 10.927669,10.72115 10.929227,10.86407 10.931188,10.931189 10.749382,10.927915 10.656337,10.92912 10.656004,10.843895 9.878618,10.843895 9.878541,10.927548 9.830084,10.927574 9.797516,10.927422 9.64152,10.927669 9.588223,10.928066 9.5655,10.928065 9.512337,10.927669 9.490179,10.927669 9.334183,10.927421 9.25316,10.927548 9.253193,10.904363 9.253088,10.843895 8.476118,10.843895 8.475363,10.92912 8.382317,10.927915 8.200513,10.931189 8.202473,10.86407 8.20403,10.72115 8.204332,10.655068 8.230674,10.655212 8.287806,10.655595 8.287806,9.87862 8.204155,9.878542 8.20428,9.797517 8.204031,9.641522 8.203636,9.588225 8.203636,9.566069 8.204031,9.512906 8.204031,9.490181 8.20428,9.334187 8.204155,9.253163 8.227338,9.253196 8.287806,9.253089 8.287806,8.476106 8.204332,8.476636 8.20403,8.410553 8.202473,8.267633 8.200513,8.200514 8.382317,8.203789 8.475363,8.202584 8.475695,8.287809 9.253082,8.287809 9.25316,8.204157 9.301615,8.204131 9.334184,8.204282 9.490179,8.204033 9.543475,8.203637 9.565633,8.203637 9.618796,8.204033 9.64152,8.204033 9.797516,8.204282 9.878541,8.204157 9.878508,8.22734 9.878612,8.287809 10.655581,8.287809 10.656337,8.202584 10.749383,8.203789 10.931188,8.200514" style="fill: white" />
</svg>
