<svg width="19.131698" height="19.131699">
<polygon type="contour" points="8.637704,8.539289 8.678457,8.540457 8.680954,8.540741 8.830301,8.539274 8.833759,8.622165 8.833759,8.709113 8.922706,8.708723 8.922706,8.718108 8.922764,8.803759 8.922764,8.850927 8.922706,8.922709 8.915546,8.922709 8.850924,8.922767 8.803757,8.922767 8.708722,8.922709 8.709112,8.833806 8.562411,8.833806 8.548867,8.833732 8.542506,8.833746 8.542035,8.780858 8.540095,8.662519 8.536349,8.536351" style="fill: white" /><polygon type="contour" points="9.801398,10.208995 9.801398,10.216153 9.801462,10.280778 9.801462,10.327946 9.801398,10.42298 9.711101,10.423187 9.711101,10.589134 9.684895,10.58984 9.625745,10.592403 9.565728,10.593474 9.446678,10.589839 9.4206,10.589133 9.4206,10.423187 9.330302,10.422981 9.330302,10.413595 9.330238,10.327945 9.330238,10.280778 9.330302,10.208995 9.337619,10.208995 9.401236,10.208974 9.730464,10.208974" style="fill: white" /><polygon type="contour" points="10.422978,10.208995 10.422587,10.297899 10.569289,10.297899 10.582833,10.297973 10.589194,10.297959 10.589665,10.350845 10.591606,10.469184 10.595351,10.595353 10.493995,10.592414 10.453243,10.591246 10.450746,10.590964 10.3014,10.592431 10.297942,10.509537 10.297942,10.42259 10.208994,10.422981 10.208994,10.413595 10.208936,10.327945 10.208936,10.280777 10.208994,10.208995 10.216153,10.208995 10.280776,10.208937 10.327943,10.208937" style="fill: white" /><polygon type="contour" points="10.422978,9.330304 10.423184,9.420602 10.592664,9.420602 10.592454,9.464941 10.594032,9.565974 10.592454,9.666548 10.592664,9.711102 10.423184,9.711102 10.422978,9.8014 10.413591,9.8014 10.327944,9.801463 10.280776,9.801463 10.208994,9.8014 10.208994,9.794083 10.208972,9.730464 10.208972,9.401238 10.208994,9.330304 10.216152,9.330304 10.280777,9.330241 10.327943,9.330241" style="fill: white" /><polygon type="contour" points="10.591606,8.662519 10.589665,8.780858 10.589194,8.833746 10.56929,8.833806 10.422587,8.833806 10.422978,8.922709 10.413592,8.922709 10.327943,8.922767 10.280776,8.922767 10.208994,8.922709 10.208994,8.915549 10.208936,8.850927 10.208936,8.803759 10.208994,8.708723 10.297884,8.709113 10.297942,8.622165 10.29889,8.613935 10.3014,8.539274 10.450747,8.540741 10.453243,8.540457 10.493995,8.539289 10.595351,8.536351" style="fill: white" /><polygon type="contour" points="9.684895,8.541864 9.711101,8.542571 9.711101,8.708515 9.801398,8.708723 9.801398,8.718108 9.801462,8.803759 9.801462,8.850926 9.801398,8.922709 9.79408,8.922709 9.730464,8.92273 9.401236,8.92273 9.330302,8.922709 9.330302,8.91555 9.330238,8.850926 9.330238,8.803759 9.330302,8.708723 9.4206,8.708515 9.4206,8.542571 9.446678,8.541865 9.505544,8.539301 9.565501,8.53823" style="fill: white" /><polygon type="contour" points="9.401237,9.330331 9.730463,9.330331 9.801398,9.330304 9.801398,9.33762 9.80137,9.401239 9.80137,9.730465 9.801398,9.8014 9.794081,9.8014 9.730463,9.801373 9.401237,9.801373 9.330302,9.8014 9.330302,9.794083 9.33033,9.730464 9.33033,9.401238 9.330302,9.330304 9.337618,9.330304" style="fill: white" /><polygon type="contour" points="8.922706,9.330304 8.922706,9.33762 8.922728,9.401239 8.922728,9.730464 8.922706,9.8014 8.915547,9.8014 8.850923,9.801463 8.803757,9.801463 8.708722,9.801399 8.708513,9.711102 8.539036,9.711102 8.539246,9.666761 8.537667,9.565729 8.539246,9.465156 8.539036,9.420602 8.708513,9.420602 8.708722,9.330304 8.718108,9.330304 8.803756,9.330241 8.850924,9.330241" style="fill: white" /><polygon type="contour" points="8.922706,10.208995 8.922706,10.216154 8.922764,10.280777 8.922764,10.327945 8.922706,10.422981 8.833816,10.42259 8.833759,10.509538 8.832808,10.517765 8.830301,10.592431 8.680954,10.590964 8.678456,10.591246 8.637704,10.592414 8.536349,10.595353 8.540095,10.469184 8.542035,10.350845 8.542507,10.297959 8.56241,10.297899 8.709112,10.297899 8.708722,10.208995 8.718107,10.208995 8.803757,10.208937 8.850924,10.208937" style="fill: white" />
</svg>
