<svg width="19.131698" height="19.131699">
<polygon type="contour" points="10.449609,8.89239 10.449246,8.931908 10.449088,8.986932 10.282339,8.986932 10.282303,9.145195 10.282072,9.203104 10.282303,9.261685 10.282293,9.420602 10.451324,9.420602 10.451074,9.472112 10.450277,9.56602 10.450456,9.603591 10.451324,9.711102 10.282293,9.711102 10.282303,9.870018 10.282072,9.928599 10.282303,9.986508 10.282339,10.144724 10.449088,10.144773 10.449246,10.199796 10.449609,10.239314 10.453663,10.453665 10.206529,10.451402 10.146628,10.449943 10.144891,10.392406 10.144891,10.336118 10.143473,10.282339 9.986507,10.282306 9.928599,10.282075 9.870018,10.282305 9.711101,10.282293 9.711101,10.449076 9.614499,10.448983 9.605591,10.449174 9.5655,10.450225 9.516737,10.448983 9.4206,10.449076 9.4206,10.282293 9.261682,10.282305 9.203101,10.282075 9.145193,10.282306 8.9872,10.28234 8.98681,10.392406 8.986778,10.397664 8.985073,10.449943 8.925171,10.451403 8.678037,10.453665 8.68209,10.239314 8.682452,10.199795 8.682611,10.144773 8.849359,10.144773 8.849398,9.986508 8.849628,9.928599 8.849398,9.870018 8.849405,9.711102 8.680376,9.711102 8.680625,9.659592 8.681423,9.566201 8.681243,9.528631 8.680376,9.420602 8.849405,9.420602 8.849398,9.261685 8.849628,9.203104 8.849398,9.145195 8.849359,8.98698 8.682611,8.986932 8.682452,8.931909 8.68209,8.892389 8.678037,8.678039 8.925171,8.6803 8.985073,8.68176 8.98681,8.739297 8.98681,8.795585 8.988227,8.849364 9.145193,8.849398 9.203101,8.849628 9.261682,8.849398 9.4206,8.84941 9.4206,8.682626 9.517201,8.682721 9.526109,8.682527 9.566028,8.681479 9.614962,8.682721 9.711101,8.682626 9.711101,8.84941 9.870018,8.849398 9.928599,8.849628 9.986507,8.849397 10.1445,8.849363 10.14489,8.739297 10.144923,8.734039 10.146628,8.68176 10.206529,8.680301 10.453663,8.678039" style="fill: white" />
</svg>
