<svg width="19.131698" height="19.131699">
<polygon type="contour" points="10.465929,8.65589 10.475903,8.655799 10.475849,8.658612 10.475844,8.65913 10.475823,8.666746 10.475776,8.682098 10.475672,8.958793 10.448989,8.958793 10.377345,8.958713 10.309889,8.958713 10.309419,9.061839 10.309233,9.112019 10.237308,9.112019 10.109755,9.111698 10.109755,9.111857 10.069862,9.111857 10.019682,9.112019 10.019682,9.064192 10.020088,8.958863 10.019845,8.958863 10.019845,8.898871 10.019682,8.822471 10.069862,8.822283 10.17378,8.821812 10.174595,8.680818 10.174595,8.668971 10.174676,8.659768 10.174696,8.658272 10.174721,8.654534" style="fill: white" /><polygon type="contour" points="9.021945,10.020004 9.021945,10.019846 9.061837,10.019846 9.112018,10.019684 9.112018,10.06751 9.111611,10.172841 9.111855,10.172841 9.111855,10.232831 9.112018,10.309234 9.061837,10.309422 8.95792,10.309892 8.957106,10.450884 8.957106,10.462731 8.957024,10.471933 8.957004,10.473429 8.95698,10.477168 8.665771,10.475814 8.655797,10.475905 8.65585,10.473091 8.655855,10.472573 8.655876,10.464957 8.655923,10.449605 8.656028,10.172911 8.68271,10.172911 8.754354,10.172991 8.821811,10.172991 8.822281,10.069864 8.822468,10.019684 8.894391,10.019684" style="fill: white" /><polygon type="contour" points="9.021945,9.266303 9.021945,9.266209 9.061837,9.266209 9.112018,9.266112 9.112018,9.314308 9.112247,9.357209 9.112247,9.814695 9.112018,9.865592 9.064191,9.865592 8.958861,9.86535 8.958861,9.865495 8.898869,9.865495 8.822468,9.865592 8.82228,9.814694 8.821852,9.711102 8.650992,9.711102 8.651686,9.567427 8.651696,9.566202 8.651003,9.422019 8.650992,9.420602 8.821852,9.420602 8.82228,9.317009 8.822468,9.266112 8.894391,9.266112" style="fill: white" /><polygon type="contour" points="8.957025,8.659768 8.957025,8.664958 8.957105,8.66897 8.958349,8.821814 9.061837,8.822283 9.112018,8.822471 9.112018,8.894393 9.111695,9.021947 9.111855,9.021947 9.111855,9.061839 9.112018,9.112019 9.064191,9.112019 8.958861,9.111615 8.958861,9.111857 8.89887,9.111857 8.822468,9.112019 8.822281,9.061839 8.821811,8.958713 8.754354,8.958713 8.68271,8.958793 8.656028,8.958793 8.655923,8.682098 8.655876,8.666746 8.655855,8.65913 8.65585,8.658612 8.655797,8.655799 8.66577,8.65589 8.95698,8.654534" style="fill: white" /><polygon type="contour" points="9.57074,8.651831 9.578073,8.652026 9.711101,8.655865 9.711101,8.821856 9.814693,8.822282 9.86559,8.822471 9.86559,8.894393 9.8654,9.021947 9.865494,9.021947 9.865494,9.061839 9.86559,9.112019 9.817394,9.112019 9.774493,9.112248 9.317006,9.112248 9.26611,9.112019 9.26611,9.064192 9.266349,8.958863 9.266206,8.958863 9.266206,8.898872 9.26611,8.822471 9.317006,8.822283 9.4206,8.821856 9.4206,8.65545 9.552988,8.652027 9.565507,8.651698" style="fill: white" /><polygon type="contour" points="9.86559,9.266111 9.86559,9.314308 9.865884,9.357209 9.865884,9.814694 9.86559,9.865592 9.817394,9.865592 9.774493,9.865886 9.317007,9.865886 9.26611,9.865592 9.26611,9.817395 9.265816,9.774494 9.265816,9.317009 9.26611,9.266112 9.314306,9.266112 9.357207,9.265818 9.814694,9.265818" style="fill: white" /><polygon type="contour" points="10.172839,9.266353 10.172839,9.266209 10.23283,9.266209 10.309233,9.266112 10.30942,9.317009 10.309848,9.420602 10.480708,9.420602 10.480014,9.564275 10.480004,9.565509 10.480697,9.70969 10.480708,9.711102 10.309848,9.711102 10.30942,9.814694 10.309233,9.865592 10.237309,9.865592 10.109755,9.8654 10.109755,9.865495 10.069862,9.865495 10.019682,9.865592 10.019682,9.817394 10.019454,9.774495 10.019454,9.317008 10.019682,9.266112 10.067508,9.266112" style="fill: white" /><polygon type="contour" points="10.172839,10.020087 10.172839,10.019846 10.232829,10.019846 10.309233,10.019684 10.30942,10.069864 10.309889,10.172991 10.377345,10.172991 10.448989,10.172911 10.475672,10.172911 10.475776,10.449605 10.475823,10.464957 10.475844,10.472573 10.475849,10.473091 10.475903,10.475905 10.465929,10.475814 10.174721,10.477168 10.174676,10.471933 10.174676,10.466744 10.174595,10.462731 10.17335,10.30989 10.069862,10.309422 10.019682,10.309234 10.019682,10.23731 10.020004,10.109757 10.019845,10.109757 10.019845,10.069864 10.019682,10.019684 10.067508,10.019684" style="fill: white" /><polygon type="contour" points="9.86559,10.019684 9.86559,10.067511 9.86535,10.172841 9.865494,10.172841 9.865494,10.232831 9.86559,10.309234 9.814693,10.309422 9.711101,10.309848 9.711101,10.476251 9.578074,10.479676 9.5655,10.480006 9.560288,10.479873 9.552988,10.479676 9.4206,10.475838 9.4206,10.309848 9.317006,10.309421 9.26611,10.309234 9.26611,10.23731 9.266299,10.109757 9.266206,10.109757 9.266206,10.069865 9.26611,10.019684 9.314307,10.019684 9.357207,10.019456 9.814694,10.019456" style="fill: white" />
</svg>
