<svg width="19.131698" height="19.131699">
<polygon type="contour" points="10.374279,10.121954 10.424496,10.121954 10.426141,10.209843 10.430312,10.430314 10.286482,10.428997 10.122535,10.425003 10.122279,10.4165 10.12223,10.415633 10.122161,10.404181 10.12208,10.317996 10.121904,10.121906 10.235396,10.121906" style="fill: white" /><polygon type="contour" points="8.845218,8.702707 9.009166,8.706701 9.009422,8.715204 9.009471,8.71607 9.009539,8.727522 9.00962,8.813707 9.009797,9.009799 8.896303,9.009799 8.757418,9.009751 8.707203,9.009751 8.705558,8.921861 8.701388,8.70139" style="fill: white" /><polygon type="contour" points="9.18587,8.873993 9.214465,8.873999 9.243321,8.873993 9.320049,8.873624 9.320049,9.109702 9.320313,9.109702 9.3202,9.230645 9.320242,9.230645 9.320049,9.285689 9.320049,9.320051 9.243322,9.320244 9.19835,9.320244 9.143433,9.320315 9.109701,9.320315 9.1097,9.320303 8.925701,9.320051 8.873621,9.320051 8.873992,9.243323 8.873998,9.214467 8.873992,9.185871 8.873613,9.109703 9.109796,9.109703 9.109796,8.95915 9.109701,8.873615" style="fill: white" /><polygon type="contour" points="9.616949,8.705667 9.65232,8.706595 9.673098,8.70721 9.711101,8.707219 9.711101,8.95915 9.711521,9.040871 9.711199,9.185872 9.711101,9.198353 9.711101,9.320051 9.4206,9.320051 9.4206,8.707219 9.458784,8.70721 9.479661,8.706595 9.565967,8.705339" style="fill: white" /><polygon type="contour" points="10.426141,8.921861 10.424496,9.009751 10.374279,9.009751 10.235396,9.009799 10.12208,9.009624 10.12208,8.813707 10.122161,8.727523 10.12223,8.725299 10.12223,8.71607 10.122535,8.706701 10.286482,8.702707 10.430312,8.70139" style="fill: white" /><polygon type="contour" points="10.021904,8.95915 10.021904,9.109798 10.172552,9.109798 10.258087,9.109703 10.257706,9.185871 10.257699,9.214467 10.257706,9.243324 10.258079,9.320051 10.173495,9.320051 10.022001,9.319271 10.022,9.320047 9.93335,9.320161 9.93335,9.320096 9.86672,9.320315 9.811651,9.320051 9.811397,9.219423 9.812389,9.010236 9.811799,9.010236 9.811919,8.925703 9.811651,8.873624 9.888379,8.873993 9.917235,8.873999 9.94583,8.873993 10.022,8.873615" style="fill: white" /><polygon type="contour" points="10.163403,9.420112 10.18304,9.420095 10.226333,9.420143 10.315456,9.420602 10.424779,9.420602 10.425046,9.480949 10.426233,9.566201 10.425571,9.674666 10.424779,9.711102 9.811651,9.711102 9.811651,9.420602 9.988266,9.420602 10.022,9.420334 10.022,9.509961 10.121952,9.419902" style="fill: white" /><polygon type="contour" points="10.022,9.811401 10.205997,9.811652 10.258079,9.811652 10.257705,9.88838 10.257699,9.917238 10.257706,9.945833 10.258087,10.022002 10.172552,10.021906 10.022,10.021906 10.022,10.258089 9.94583,10.257709 9.917235,10.257702 9.888379,10.257709 9.811651,10.25808 9.811536,10.172554 9.811536,10.022002 9.811388,10.022002 9.811499,9.901058 9.811458,9.901059 9.811651,9.846012 9.811651,9.811652 9.888378,9.81146 9.933349,9.81146 9.988265,9.81139 10.021999,9.81139" style="fill: white" /><polygon type="contour" points="9.711101,10.022002 9.667827,10.022002 9.711312,10.121953 9.711101,10.163406 9.711101,10.424484 9.672915,10.424492 9.652038,10.425109 9.565501,10.426364 9.514749,10.426037 9.479378,10.425108 9.458601,10.424491 9.4206,10.424484 9.4206,10.172554 9.420179,10.090833 9.420501,9.945832 9.4206,9.933351 9.4206,9.811652 9.711101,9.811652" style="fill: white" /><polygon type="contour" points="9.711101,9.711102 9.4206,9.711102 9.4206,9.420602 9.711101,9.420602" style="fill: white" /><polygon type="contour" points="9.320049,9.711102 9.143434,9.711102 9.109701,9.71137 9.109701,9.621742 9.009749,9.711802 8.968296,9.711592 8.94866,9.711609 8.905368,9.711561 8.816242,9.711102 8.706921,9.711102 8.706654,9.651045 8.705467,9.566201 8.706128,9.457214 8.706921,9.420602 9.320049,9.420602" style="fill: white" /><polygon type="contour" points="9.265242,9.811652 9.320049,9.811652 9.320302,9.912281 9.31931,10.121418 9.319781,10.121418 9.319781,10.206 9.320049,10.25808 9.243321,10.257709 9.214465,10.257702 9.18587,10.257709 9.109701,10.258089 9.109701,10.021906 8.959147,10.021906 8.873613,10.022002 8.873992,9.945833 8.873998,9.917238 8.873992,9.88838 8.873621,9.811651 8.959147,9.811537 9.010233,9.811801 9.010235,9.812389 9.230516,9.811347" style="fill: white" /><polygon type="contour" points="9.009621,10.122081 9.009621,10.317996 9.009539,10.40418 9.009471,10.406327 9.009471,10.415634 9.009166,10.425002 8.845218,10.428997 8.701388,10.430314 8.705558,10.209843 8.707203,10.121954 8.757418,10.121954 8.896302,10.121906" style="fill: white" />
</svg>
