<svg width="19.131698" height="19.131699">
<polygon type="contour" points="2.549063,4.471266 2.549218,4.820221 2.549136,5.073782 2.549174,5.134137 2.528934,5.132675 2.311352,5.157448 2.311273,4.964953 2.311529,4.804164 2.216122,4.804023 2.216122,4.652085 2.216547,4.47125 2.267079,4.47143 2.320753,4.471196 2.360369,4.471482 2.377055,4.471176 2.406304,4.471054 2.497839,4.471054" style="fill: white" /><polygon type="contour" points="2.549518,3.789415 2.549355,3.876 2.406554,3.876 2.406682,3.797931 2.406457,3.543715 2.549272,3.543715" style="fill: white" /><polygon type="contour" points="2.549272,3.390288 2.549272,3.408366 2.419689,3.408366 2.406457,3.408401 2.406588,3.247667 2.406617,3.212718 2.549417,3.212718" style="fill: white" /><polygon type="contour" points="2.380119,2.216226 2.549819,2.21662 2.549556,2.26708 2.549556,2.317803 2.549629,2.319515 2.549595,2.358254 2.549571,2.374761 2.549417,2.406619 2.549417,2.549418 2.406617,2.549418 2.374758,2.549573 2.358253,2.549597 2.319514,2.549631 2.267079,2.549557 2.264619,2.549767 2.216547,2.54975 2.216652,2.443361 2.216228,2.253757 2.216228,2.21623 2.379151,2.21606" style="fill: white" /><polygon type="contour" points="4.804197,2.311531 4.882424,2.31152 4.897663,2.311527 4.978826,2.311283 5.137426,2.311613 5.135933,2.345495 5.131532,2.377676 5.150504,2.481879 5.148187,2.549673 4.943916,2.549536 4.816892,2.549265 4.471265,2.549065 4.471265,2.459729 4.471053,2.406304 4.471174,2.377057 4.471481,2.36037 4.471195,2.320755 4.471428,2.317804 4.471428,2.26708 4.471264,2.26462 4.471248,2.216549 4.652083,2.216124 4.80402,2.216124" style="fill: white" /><polygon type="contour" points="3.797928,2.406684 3.875998,2.406556 3.875998,2.549356 3.577635,2.549217 3.543713,2.549274 3.543713,2.406458" style="fill: white" /><polygon type="contour" points="3.408399,2.537602 3.408363,2.549274 3.251714,2.549418 3.212716,2.549418 3.212716,2.406619 3.408399,2.406458" style="fill: white" /><polygon type="contour" points="3.390286,3.213065 3.408363,3.213065 3.408363,3.390289 3.408399,3.408401 3.229041,3.408401 3.213064,3.408366 3.212716,3.251716 3.212716,3.212718" style="fill: white" /><polygon type="contour" points="3.876191,3.388401 3.876191,3.408412 3.577636,3.408412 3.543713,3.408401 3.543713,3.213065 3.577635,3.21304 3.87617,3.212672" style="fill: white" /><polygon type="contour" points="3.875998,3.782225 3.875998,3.876 3.577636,3.876194 3.543691,3.876194 3.543691,3.577638 3.543713,3.543715 3.849071,3.543715 3.876191,3.543693" style="fill: white" /><polygon type="contour" points="3.408399,3.849072 3.40841,3.876194 3.255321,3.876172 3.21267,3.876172 3.213038,3.577638 3.213064,3.543715 3.408399,3.543715" style="fill: white" /><polygon type="contour" points="3.3884,4.471417 3.40841,4.471417 3.408364,4.580392 3.408364,5.1375 3.26509,5.14826 3.212647,5.146976 3.212647,4.693148 3.21267,4.470948" style="fill: white" /><polygon type="contour" points="3.875998,4.904779 3.876133,5.144199 3.764607,5.149052 3.543815,5.135354 3.543815,4.576692 3.543691,4.471417 3.782224,4.471055 3.875998,4.471055" style="fill: white" /><polygon type="contour" points="5.008981,4.471424 5.13947,4.471444 5.136726,4.54599 5.130446,4.787263 5.131501,4.893865 5.023836,4.895878 5.011355,4.89649 4.959832,4.899446 4.947921,4.901253 4.901933,4.901935 4.901251,4.947923 4.899444,4.959834 4.896487,5.011357 4.895877,5.023837 4.893863,5.131504 4.7331,5.158962 4.471065,5.153355 4.47096,4.887932 4.471188,4.815397 4.471053,4.471055 4.819507,4.470965" style="fill: white" /><polygon type="contour" points="5.130736,3.543928 5.13436,3.673705 5.130178,3.806632 5.133496,3.849756 5.133056,3.876353 5.078482,3.876292 4.471053,3.876 4.471053,3.782225 4.471415,3.543693 5.046525,3.543693" style="fill: white" /><polygon type="contour" points="5.135739,3.388142 5.136315,3.408213 5.064554,3.408245 4.471415,3.408412 4.470946,3.255323 4.470946,3.212672 4.693146,3.212649 5.146974,3.212649" style="fill: white" /><polygon type="contour" points="16.915472,2.21623 16.915472,2.253757 16.915048,2.443361 16.915152,2.54975 16.864621,2.549557 16.813899,2.549557 16.812185,2.549631 16.773446,2.549597 16.756942,2.549573 16.725083,2.549418 16.582285,2.549418 16.582285,2.463761 16.582283,2.406619 16.582129,2.37476 16.582105,2.358254 16.58207,2.319516 16.582145,2.26708 16.581935,2.26462 16.581881,2.21662 16.75158,2.216226 16.752547,2.21606" style="fill: white" /><polygon type="contour" points="14.660453,2.216549 14.660273,2.26708 14.660505,2.320755 14.66022,2.36037 14.660526,2.377057 14.660647,2.406304 14.660647,2.497841 14.660435,2.549065 14.314807,2.549265 14.187783,2.549536 13.983512,2.549673 13.989377,2.484017 13.9745,2.311477 14.166273,2.311428 14.327537,2.311531 14.327679,2.216124 14.479617,2.216124" style="fill: white" /><polygon type="contour" points="15.587985,2.406458 15.587985,2.549274 15.342285,2.549519 15.255701,2.549357 15.255701,2.406556 15.554061,2.406416" style="fill: white" /><polygon type="contour" points="15.884034,2.406589 15.918985,2.406619 15.918985,2.549418 15.741412,2.549274 15.723335,2.549274 15.723335,2.419691 15.723299,2.406458" style="fill: white" /><polygon type="contour" points="16.754642,4.471176 16.771329,4.471482 16.810948,4.471197 16.8139,4.47143 16.864621,4.47143 16.867081,4.471266 16.915152,4.47125 16.915578,4.652084 16.915578,4.804023 16.820165,4.804198 16.820426,4.964954 16.820348,5.157448 16.602765,5.132675 16.582527,5.134137 16.582564,5.073783 16.582484,4.82022 16.582635,4.471266 16.67197,4.471266 16.725394,4.471055" style="fill: white" /><polygon type="contour" points="16.725015,3.79793 16.725143,3.876 16.582343,3.876 16.582182,3.789416 16.582426,3.543715 16.725241,3.543715" style="fill: white" /><polygon type="contour" points="16.725225,3.390288 16.725241,3.408401 16.594098,3.408401 16.582426,3.408366 16.582282,3.251717 16.582282,3.212718 16.725085,3.212718" style="fill: white" /><polygon type="contour" points="15.918634,3.390288 15.918634,3.408366 15.741411,3.408366 15.723299,3.408401 15.723299,3.229042 15.723335,3.213065 15.879986,3.212718 15.918985,3.212718" style="fill: white" /><polygon type="contour" points="15.918659,3.577637 15.91903,3.876172 15.743297,3.876194 15.723288,3.876194 15.723288,3.577637 15.723299,3.543715 15.918634,3.543715" style="fill: white" /><polygon type="contour" points="15.587985,3.543715 15.587985,3.849073 15.588007,3.876194 15.349476,3.876 15.255701,3.876 15.255509,3.577637 15.255509,3.543693 15.554061,3.543693" style="fill: white" /><polygon type="contour" points="15.554062,3.21304 15.587985,3.213065 15.587985,3.408401 15.28263,3.408401 15.255509,3.408412 15.255531,3.255323 15.255531,3.212672" style="fill: white" /><polygon type="contour" points="14.660753,3.212672 14.660753,3.255322 14.660286,3.408412 14.085173,3.408412 14.067143,3.408245 13.995382,3.408213 13.983253,3.265092 13.984726,3.212649 14.438552,3.212649" style="fill: white" /><polygon type="contour" points="14.660648,3.782225 14.660648,3.876 14.226921,3.876 14.053217,3.876293 13.998645,3.876353 14.001522,3.806632 13.99734,3.673704 14.000965,3.543928 14.441829,3.543928 14.660286,3.543693" style="fill: white" /><polygon type="contour" points="14.660647,4.471055 14.660511,4.815397 14.660739,4.887932 14.660633,5.153355 14.398597,5.158962 14.237835,5.131504 14.23582,5.023837 14.235211,5.011358 14.232254,4.959834 14.230447,4.947923 14.229765,4.901935 14.183776,4.901253 14.171868,4.899447 14.107862,4.895879 14.000196,4.893865 14.001252,4.787263 13.992231,4.471444 14.122719,4.471424 14.312193,4.470965" style="fill: white" /><polygon type="contour" points="15.554061,4.471416 15.588007,4.471416 15.587883,4.576692 15.587883,5.135354 15.542055,5.133635 15.255566,5.144199 15.255566,4.755308 15.255701,4.471055" style="fill: white" /><polygon type="contour" points="15.91903,4.955093 15.918985,5.14689 15.866609,5.148261 15.723334,5.137501 15.723334,4.580391 15.723288,4.471416 15.87638,4.470948 15.91903,4.470948" style="fill: white" /><polygon type="contour" points="14.660633,13.978348 14.660739,14.24377 14.660511,14.316305 14.660647,14.660649 14.312193,14.66074 14.122719,14.660278 13.992231,14.660259 13.994973,14.585712 14.001251,14.344438 14.000196,14.237838 14.107862,14.235823 14.120344,14.235213 14.171867,14.232256 14.183777,14.230447 14.229765,14.22977 14.230446,14.183779 14.232254,14.17187 14.235211,14.120344 14.23582,14.107865 14.237835,14.000199 14.398597,13.972742" style="fill: white" /><polygon type="contour" points="15.587883,13.99635 15.587883,14.555011 15.588007,14.660288 15.349477,14.660649 15.255701,14.660649 15.255701,14.226924 15.255566,13.987505 15.367092,13.982651" style="fill: white" /><polygon type="contour" points="15.919053,13.984728 15.919053,14.438554 15.91903,14.660755 15.743298,14.660288 15.723288,14.660288 15.723334,14.551312 15.723334,13.994203 15.866609,13.983443" style="fill: white" /><polygon type="contour" points="16.820416,14.152876 16.820172,14.234038 16.820178,14.249277 16.820167,14.327538 16.915578,14.32768 16.915578,14.479618 16.915152,14.660455 16.864621,14.660275 16.810947,14.660507 16.771329,14.660221 16.754642,14.660529 16.725394,14.660649 16.633858,14.660649 16.582635,14.660438 16.582484,14.311484 16.582564,14.057919 16.582512,13.997553 16.674906,14.001631 16.820086,13.994277" style="fill: white" /><polygon type="contour" points="16.915152,16.581953 16.915048,16.688343 16.915472,16.877947 16.915472,16.915473 16.752547,16.915644 16.75158,16.915478 16.581881,16.915084 16.582144,16.864623 16.582144,16.813901 16.58207,16.812187 16.582105,16.773448 16.58213,16.756944 16.582283,16.725085 16.582283,16.582285 16.725084,16.582285 16.756942,16.582131 16.773446,16.582107 16.812185,16.582073 16.864621,16.582146 16.867081,16.581937" style="fill: white" /><polygon type="contour" points="16.725113,15.884035 16.725084,15.918986 16.582282,15.918986 16.582427,15.741413 16.582427,15.723336 16.712008,15.723336 16.725241,15.7233" style="fill: white" /><polygon type="contour" points="16.725015,15.333772 16.725241,15.587986 16.582427,15.587986 16.582182,15.342286 16.582343,15.255703 16.725143,15.255703" style="fill: white" /><polygon type="contour" points="15.876379,15.255532 15.91903,15.255532 15.918659,15.554063 15.918634,15.587986 15.723299,15.587986 15.723299,15.282631 15.723288,15.255509" style="fill: white" /><polygon type="contour" points="15.588007,15.554062 15.587985,15.587986 15.282629,15.587986 15.255509,15.588008 15.255701,15.349478 15.255701,15.255703 15.554062,15.25551 15.588007,15.25551" style="fill: white" /><polygon type="contour" points="15.587985,15.7233 15.587985,15.918637 15.554061,15.918662 15.255531,15.919031 15.255509,15.743298 15.255509,15.723289 15.554061,15.723289" style="fill: white" /><polygon type="contour" points="15.918634,15.723336 15.918985,15.879987 15.918985,15.918986 15.741412,15.918637 15.723335,15.918637 15.723335,15.741412 15.723299,15.7233 15.902654,15.7233" style="fill: white" /><polygon type="contour" points="15.918985,16.725087 15.741411,16.725229 15.723299,16.725243 15.723299,16.594101 15.723335,16.58243 15.879986,16.582283 15.918985,16.582283" style="fill: white" /><polygon type="contour" points="15.554062,16.582486 15.587985,16.58243 15.587985,16.725244 15.333769,16.725017 15.255701,16.725145 15.255701,16.582346" style="fill: white" /><polygon type="contour" points="14.187783,16.582167 14.314808,16.582439 14.660435,16.582637 14.660435,16.671973 14.660647,16.725398 14.660526,16.754646 14.66022,16.771333 14.660505,16.810948 14.660273,16.813901 14.660273,16.864623 14.660435,16.867084 14.660453,16.915155 14.479617,16.91558 14.327679,16.91558 14.327503,16.820169 14.166273,16.820274 13.97465,16.820151 13.989438,16.647975 13.983512,16.582031" style="fill: white" /><polygon type="contour" points="14.660753,15.876381 14.660753,15.919031 14.438552,15.919054 13.984726,15.919054 13.995958,15.743561 13.995382,15.723492 14.067142,15.723459 14.660285,15.723289" style="fill: white" /><polygon type="contour" points="14.053217,15.255411 14.660648,15.255702 14.660648,15.349477 14.660286,15.588008 14.085173,15.588008 14.000965,15.587774 13.99734,15.457998 14.001522,15.325071 13.998203,15.281947 13.998644,15.255351" style="fill: white" /><polygon type="contour" points="3.390286,16.58243 3.408363,16.58243 3.408363,16.712011 3.408399,16.725244 3.247666,16.725115 3.212716,16.725087 3.212716,16.582283" style="fill: white" /><polygon type="contour" points="3.875998,16.582346 3.875998,16.725145 3.797929,16.725017 3.775169,16.724927 3.543713,16.725244 3.543713,16.58243 3.789414,16.582185" style="fill: white" /><polygon type="contour" points="5.131531,16.754028 5.137426,16.82009 4.978825,16.820416 4.897662,16.820176 4.882424,16.82018 4.804163,16.820169 4.80402,16.91558 4.652083,16.91558 4.471248,16.915156 4.471428,16.864624 4.471196,16.810947 4.471481,16.771332 4.471173,16.754646 4.471053,16.725398 4.471053,16.63386 4.471265,16.582637 4.816891,16.582439 4.943915,16.582167 5.148163,16.582091" style="fill: white" /><polygon type="contour" points="5.064555,15.723459 5.136316,15.723492 5.148447,15.866611 5.146974,15.919054 4.693146,15.919054 4.470946,15.919031 4.470946,15.87638 4.471415,15.723289 5.046526,15.723289" style="fill: white" /><polygon type="contour" points="5.130178,15.325071 5.134359,15.457998 5.130736,15.587774 4.689869,15.587774 4.471415,15.588008 4.471053,15.349477 4.471053,15.255703 4.904778,15.255703 5.078483,15.25541 5.133056,15.255351" style="fill: white" /><polygon type="contour" points="4.893863,14.000199 4.895877,14.107865 4.896486,14.120344 4.899445,14.17187 4.901252,14.183779 4.901933,14.22977 4.947921,14.230448 4.959832,14.232256 5.023836,14.235823 5.131502,14.237838 5.130446,14.344438 5.139469,14.660259 5.00898,14.660278 4.819507,14.66074 4.471053,14.660649 4.471188,14.316305 4.47096,14.24377 4.471065,13.978348 4.733101,13.972742" style="fill: white" /><polygon type="contour" points="2.345086,13.994351 2.456793,14.001631 2.528088,13.996443 2.549173,13.997566 2.549136,14.05792 2.549218,14.311483 2.549062,14.660437 2.459728,14.660438 2.406303,14.66065 2.377056,14.660529 2.36037,14.660221 2.320753,14.660507 2.317801,14.660275 2.267079,14.660275 2.264618,14.660437 2.216547,14.660455 2.216122,14.479618 2.216122,14.32768 2.311529,14.327506 2.311518,14.249276 2.311526,14.234039 2.311282,14.152876 2.311611,13.994277" style="fill: white" /><polygon type="contour" points="3.408364,13.994203 3.408364,14.551311 3.40841,14.660287 3.255321,14.660755 3.21267,14.660755 3.21267,14.176609 3.212715,13.984814 3.265091,13.983443" style="fill: white" /><polygon type="contour" points="3.876133,14.376395 3.875998,14.660649 3.577636,14.660287 3.543691,14.660287 3.543815,14.55501 3.543815,13.99635 3.589641,13.998069 3.876133,13.987505" style="fill: white" /><polygon type="contour" points="3.782224,15.255703 3.875998,15.255703 3.876191,15.554062 3.876191,15.588008 3.577636,15.588008 3.543713,15.587986 3.543713,15.28263 3.543691,15.25551" style="fill: white" /><polygon type="contour" points="3.87617,15.87638 3.87617,15.919031 3.577636,15.918662 3.543713,15.918637 3.543713,15.7233 3.84907,15.7233 3.876191,15.723289" style="fill: white" /><polygon type="contour" points="3.408399,15.902657 3.408363,15.918636 3.251714,15.918986 3.212716,15.918986 3.213064,15.741412 3.213064,15.723336 3.390287,15.723336 3.408399,15.7233" style="fill: white" /><polygon type="contour" points="3.40841,15.554062 3.408399,15.587986 3.213064,15.587986 3.213038,15.554062 3.21267,15.255532 3.3884,15.25551 3.40841,15.25551" style="fill: white" /><polygon type="contour" points="2.549518,15.342286 2.549272,15.587986 2.406457,15.587986 2.406682,15.333772 2.406554,15.255702 2.549355,15.255702" style="fill: white" /><polygon type="contour" points="2.549272,15.723336 2.549417,15.879986 2.549417,15.918986 2.406617,15.918986 2.406472,15.741413 2.406457,15.7233 2.5376,15.7233" style="fill: white" /><polygon type="contour" points="2.267079,16.582146 2.317801,16.582146 2.319514,16.582073 2.358252,16.582107 2.374759,16.582131 2.406616,16.582285 2.549417,16.582285 2.549417,16.725085 2.549572,16.756944 2.549594,16.773447 2.549629,16.812188 2.549556,16.864623 2.549765,16.867083 2.549819,16.915083 2.380119,16.915478 2.379151,16.915644 2.216228,16.915473 2.216228,16.877947 2.216651,16.688343 2.216547,16.581953" style="fill: white" />
</svg>
