<svg width="19.131698" height="19.131699">
<polygon type="contour" points="4.393201,4.210852 4.42085,4.210852 4.42085,4.309901 4.6354,4.309901 4.6354,4.202205 4.718701,4.202205 4.718701,4.309901 4.8671,4.309901 4.8671,4.210852 4.961599,4.210852 4.961599,4.202205 5.0449,4.202205 5.0449,4.210852 5.0771,4.210852 5.0771,4.309901 5.287801,4.309901 5.287801,4.202205 5.3704,4.202205 5.3704,4.309901 5.52335,4.309901 5.52335,4.210852 5.613301,4.210852 5.613301,4.202205 5.696601,4.202205 5.696601,4.210852 5.733351,4.210852 5.733351,4.309901 5.9395,4.309901 5.9395,4.202205 6.022799,4.202205 6.022799,4.309901 6.179599,4.309901 6.179599,4.210852 6.265,4.210852 6.265,4.202205 6.3483,4.202205 6.3483,4.210852 6.389601,4.210852 6.389601,4.309901 6.591201,4.309901 6.591201,4.202205 6.6745,4.202205 6.6745,4.309901 6.835849,4.309901 6.835849,4.210852 6.917399,4.210852 6.917399,4.202205 6.999999,4.202205 6.999999,4.210852 7.045851,4.210852 7.045851,4.309901 7.2429,4.309901 7.2429,4.202205 7.326199,4.202205 7.326199,4.309901 7.492099,4.309901 7.492099,4.210852 7.5691,4.210852 7.5691,4.202205 7.6524,4.202205 7.6524,4.210852 7.702101,4.210852 7.702101,4.309901 7.894599,4.309901 7.894599,4.202205 7.977898,4.202205 7.977898,4.309901 8.148349,4.309901 8.148349,4.210852 8.220799,4.210852 8.220799,4.202205 8.304099,4.202205 8.304099,4.210852 8.358351,4.210852 8.358351,4.309901 8.5463,4.309901 8.5463,4.202205 8.6296,4.202205 8.6296,4.309901 8.804599,4.309901 8.804599,4.210852 8.872499,4.210852 8.872499,4.202205 8.955798,4.202205 8.955798,4.210852 9.014602,4.210852 9.014602,4.309901 9.198699,4.309901 9.198699,4.202205 9.281299,4.202205 9.281299,4.309901 9.460849,4.309901 9.460849,4.210852 9.524199,4.210852 9.524199,4.202205 9.578455,4.203829 9.607499,4.204036 9.607499,4.210852 9.670852,4.210852 9.670852,4.309901 9.850398,4.309901 9.850398,4.202205 9.933,4.202205 9.933,4.309901 10.117099,4.309901 10.117099,4.210852 10.175899,4.210852 10.175899,4.202205 10.259202,4.202205 10.259202,4.210852 10.327102,4.210852 10.327102,4.309901 10.502101,4.309901 10.502101,4.202205 10.585401,4.202205 10.585401,4.309901 10.773349,4.309901 10.773349,4.210852 10.8276,4.210852 10.8276,4.202205 10.910901,4.202205 10.910901,4.210852 10.983352,4.210852 10.983352,4.309901 11.153802,4.309901 11.153802,4.202205 11.237102,4.202205 11.237102,4.309901 11.429599,4.309901 11.429599,4.210852 11.4793,4.210852 11.4793,4.202205 11.5626,4.202205 11.5626,4.210852 11.639602,4.210852 11.639602,4.309901 11.805501,4.309901 11.805501,4.202205 11.888801,4.202205 11.888801,4.309901 12.085849,4.309901 12.085849,4.210852 12.131701,4.210852 12.131701,4.202205 12.214301,4.202205 12.214301,4.210852 12.295852,4.210852 12.295852,4.309901 12.4572,4.309901 12.4572,4.243138 12.457201,4.233084 12.4572,4.225621 12.4572,4.202205 12.5405,4.202205 12.5405,4.309901 12.742099,4.309901 12.742099,4.210852 12.783401,4.210852 12.783401,4.202205 12.8667,4.202205 12.8667,4.210852 12.952102,4.210852 12.952102,4.309901 13.108901,4.309901 13.108901,4.243138 13.108902,4.233084 13.108901,4.22562 13.108902,4.220569 13.108901,4.202205 13.1922,4.202205 13.192201,4.22562 13.192201,4.309901 13.398349,4.309901 13.398349,4.210852 13.4351,4.210852 13.4351,4.202205 13.518399,4.202205 13.518399,4.210852 13.608352,4.210852 13.608352,4.309901 13.7613,4.309901 13.7613,4.202205 13.8439,4.202205 13.8439,4.309901 14.054599,4.309901 14.054599,4.210852 14.0868,4.210852 14.0868,4.202205 14.1701,4.202205 14.1701,4.210852 14.264602,4.210852 14.264602,4.309901 14.412999,4.309901 14.412999,4.202205 14.496299,4.202205 14.496299,4.309901 14.710849,4.309901 14.710849,4.210852 14.7385,4.210852 14.7385,4.202205 14.821799,4.202205 14.821799,4.210852 14.920852,4.210852 14.920852,4.309901 14.929496,4.309901 14.929496,4.393202 14.920852,4.393202 14.920852,4.420852 14.821799,4.420852 14.821799,4.635401 14.929496,4.635401 14.929496,4.718703 14.821799,4.718703 14.821799,4.867102 14.920852,4.867102 14.920852,4.961601 14.929496,4.961601 14.929496,5.044902 14.920852,5.044902 14.920852,5.077102 14.821799,5.077102 14.821799,5.287802 14.929496,5.287802 14.929496,5.370402 14.821799,5.370402 14.821799,5.523352 14.920852,5.523352 14.920852,5.613302 14.929496,5.613302 14.929496,5.696602 14.920852,5.696602 14.920852,5.733353 14.821799,5.733353 14.821799,5.939502 14.929496,5.939502 14.929496,6.022802 14.821799,6.022802 14.821799,6.179601 14.920852,6.179601 14.920852,6.265002 14.929496,6.265002 14.929496,6.348302 14.920852,6.348302 14.920852,6.389603 14.821799,6.389603 14.821799,6.591202 14.929496,6.591202 14.929496,6.674501 14.821799,6.674501 14.821799,6.835851 14.920852,6.835851 14.920852,6.917402 14.929496,6.917402 14.929496,7.000002 14.920852,7.000002 14.920852,7.045853 14.821799,7.045853 14.821799,7.242902 14.929496,7.242902 14.929496,7.326201 14.821799,7.326201 14.821799,7.492101 14.920852,7.492101 14.920852,7.569101 14.929496,7.569101 14.929496,7.652401 14.920852,7.652401 14.920852,7.702103 14.821799,7.702103 14.821799,7.894602 14.929496,7.894602 14.929496,7.977901 14.821799,7.977901 14.821799,8.14835 14.920852,8.14835 14.920852,8.220801 14.929496,8.220801 14.929496,8.304101 14.920852,8.304101 14.920852,8.358353 14.821799,8.358353 14.821799,8.546302 14.929496,8.546302 14.929496,8.629601 14.821799,8.629601 14.821799,8.804601 14.920852,8.804601 14.920852,8.872501 14.929496,8.872501 14.929496,8.955801 14.920852,8.955801 14.920852,9.014604 14.821799,9.014604 14.821799,9.198701 14.929496,9.198701 14.929496,9.281301 14.821799,9.281301 14.821799,9.460851 14.920852,9.460851 14.920852,9.524201 14.929496,9.524201 14.927873,9.578456 14.927666,9.607501 14.920852,9.607501 14.920852,9.670854 14.821799,9.670854 14.821799,9.850401 14.929496,9.850401 14.929496,9.933001 14.821799,9.933001 14.821799,10.117101 14.920852,10.117101 14.920852,10.1759 14.929496,10.1759 14.929496,10.259203 14.920852,10.259203 14.920852,10.327104 14.821799,10.327104 14.821799,10.502103 14.929496,10.502103 14.929496,10.585402 14.821799,10.585402 14.821799,10.773351 14.920852,10.773351 14.920852,10.8276 14.929496,10.8276 14.929496,10.910903 14.920852,10.910903 14.920852,10.983354 14.821799,10.983354 14.821799,11.153803 14.929496,11.153803 14.929496,11.237103 14.821799,11.237103 14.821799,11.429601 14.920852,11.429601 14.920852,11.479303 14.929496,11.479303 14.929496,11.562603 14.920852,11.562603 14.920852,11.639603 14.821799,11.639603 14.821799,11.805503 14.929496,11.805503 14.929496,11.888803 14.821799,11.888803 14.821799,12.085851 14.920852,12.085851 14.920852,12.131702 14.929496,12.131702 14.929496,12.214302 14.920852,12.214302 14.920852,12.295853 14.821799,12.295853 14.821799,12.457203 14.929496,12.457203 14.929496,12.540503 14.821799,12.540503 14.821799,12.742101 14.920852,12.742101 14.920852,12.783402 14.929496,12.783402 14.929496,12.866702 14.920852,12.866702 14.920852,12.952103 14.821799,12.952103 14.821799,13.108902 14.929496,13.108902 14.929496,13.192202 14.821799,13.192202 14.821799,13.398351 14.920852,13.398351 14.920852,13.435102 14.929496,13.435102 14.929496,13.518402 14.920852,13.518402 14.920852,13.608353 14.821799,13.608353 14.821799,13.761302 14.929496,13.761302 14.929496,13.843903 14.821799,13.843903 14.821799,14.054602 14.920852,14.054602 14.920852,14.086802 14.929496,14.086802 14.929496,14.170101 14.920852,14.170101 14.920852,14.264603 14.821799,14.264603 14.821799,14.413002 14.929496,14.413002 14.929496,14.496302 14.821799,14.496302 14.821799,14.710852 14.920852,14.710852 14.920852,14.738503 14.929496,14.738503 14.929496,14.821802 14.920852,14.821802 14.920852,14.920853 14.821799,14.920853 14.821799,14.929498 14.7385,14.929498 14.7385,14.920853 14.710849,14.920853 14.710849,14.821802 14.496299,14.821802 14.496299,14.929498 14.412999,14.929498 14.412999,14.821802 14.264602,14.821802 14.264602,14.920853 14.1701,14.920853 14.1701,14.929498 14.086801,14.929498 14.086801,14.920853 14.054599,14.920853 14.054599,14.821802 13.8439,14.821802 13.8439,14.929498 13.7613,14.929498 13.7613,14.821802 13.608352,14.821802 13.608352,14.920853 13.518399,14.920853 13.518399,14.929498 13.4351,14.929498 13.4351,14.920853 13.398349,14.920853 13.398349,14.821802 13.192201,14.821802 13.192201,14.929498 13.108901,14.929498 13.108901,14.821802 12.952102,14.821802 12.952102,14.920853 12.8667,14.920853 12.8667,14.929498 12.783401,14.929498 12.783401,14.920853 12.742099,14.920853 12.742099,14.821802 12.5405,14.821802 12.5405,14.929498 12.4572,14.929498 12.4572,14.821802 12.295852,14.821802 12.295852,14.920853 12.214301,14.920853 12.214301,14.929498 12.131701,14.929498 12.131701,14.920853 12.085849,14.920853 12.085849,14.821802 11.888801,14.821802 11.888801,14.929498 11.805501,14.929498 11.805501,14.821802 11.639602,14.821802 11.639602,14.920853 11.5626,14.920853 11.5626,14.929498 11.4793,14.929498 11.4793,14.920853 11.429599,14.920853 11.429599,14.821802 11.237102,14.821802 11.237102,14.929498 11.153802,14.929498 11.153802,14.821802 10.983352,14.821802 10.983352,14.920853 10.910901,14.920853 10.910901,14.929498 10.8276,14.929498 10.8276,14.920853 10.773349,14.920853 10.773349,14.821802 10.585401,14.821802 10.585401,14.929498 10.502101,14.929498 10.502101,14.821802 10.327102,14.821802 10.327102,14.920853 10.259202,14.920853 10.259202,14.929498 10.175899,14.929498 10.175899,14.920853 10.117099,14.920853 10.117099,14.821802 9.933,14.821802 9.933,14.929498 9.850398,14.929498 9.850398,14.821802 9.670852,14.821802 9.670852,14.920853 9.607499,14.920853 9.607499,14.929498 9.553243,14.927875 9.524199,14.927874 9.524199,14.920853 9.460849,14.920853 9.460849,14.821802 9.281299,14.821802 9.281299,14.929498 9.198699,14.929498 9.198699,14.821802 9.014602,14.821802 9.014602,14.920853 8.955798,14.920853 8.955798,14.929498 8.872499,14.929498 8.872499,14.920853 8.804599,14.920853 8.804599,14.821802 8.6296,14.821802 8.6296,14.929498 8.5463,14.929498 8.5463,14.821802 8.358351,14.821802 8.358351,14.920853 8.304099,14.920853 8.304099,14.929498 8.270564,14.929499 8.220799,14.929499 8.220799,14.920853 8.148349,14.920853 8.148349,14.821802 7.977898,14.821802 7.977898,14.929498 7.894599,14.929498 7.894599,14.821802 7.702101,14.821802 7.702101,14.920853 7.6524,14.920853 7.6524,14.929498 7.5691,14.929498 7.5691,14.920853 7.492099,14.920853 7.492099,14.821802 7.326199,14.821802 7.326199,14.929498 7.2429,14.929498 7.2429,14.821802 7.045851,14.821802 7.045851,14.920853 6.999999,14.920853 6.999999,14.929499 6.966747,14.929499 6.917399,14.929498 6.917399,14.920853 6.835849,14.920853 6.835849,14.821802 6.6745,14.821802 6.6745,14.929498 6.591201,14.929498 6.591201,14.8218 6.389601,14.821801 6.389601,14.920853 6.3483,14.920853 6.3483,14.929498 6.265,14.929498 6.265,14.920853 6.179599,14.920853 6.179599,14.821802 6.022799,14.821802 6.022799,14.929498 5.9395,14.929498 5.9395,14.821802 5.733351,14.821802 5.733351,14.920853 5.696601,14.920853 5.696601,14.929498 5.613301,14.929498 5.613301,14.920853 5.52335,14.920853 5.52335,14.821802 5.3704,14.821802 5.3704,14.929498 5.287801,14.929498 5.287801,14.821802 5.0771,14.821802 5.0771,14.920853 5.0449,14.920853 5.0449,14.929498 4.961599,14.929498 4.961599,14.920853 4.8671,14.920853 4.8671,14.821802 4.718701,14.821802 4.718701,14.929498 4.6354,14.929498 4.6354,14.821802 4.42085,14.821802 4.42085,14.920853 4.393201,14.920853 4.393201,14.929498 4.309899,14.929498 4.309899,14.920853 4.21085,14.920853 4.21085,14.821802 4.202203,14.821802 4.202203,14.738503 4.21085,14.738503 4.21085,14.710852 4.309899,14.710852 4.309899,14.496302 4.202203,14.496302 4.202203,14.413002 4.309899,14.413002 4.309899,14.264603 4.21085,14.264603 4.21085,14.170101 4.202203,14.170101 4.202203,14.086802 4.21085,14.086802 4.21085,14.054602 4.309899,14.054602 4.309899,13.843903 4.202203,13.843903 4.202203,13.761302 4.309899,13.761302 4.309899,13.608353 4.21085,13.608353 4.21085,13.518402 4.202203,13.518402 4.202203,13.435102 4.21085,13.435102 4.21085,13.398351 4.309899,13.398351 4.309899,13.192202 4.202203,13.192202 4.202203,13.108902 4.309899,13.108902 4.309899,12.952103 4.21085,12.952103 4.21085,12.866702 4.202203,12.866702 4.202203,12.783402 4.21085,12.783402 4.21085,12.742101 4.309899,12.742101 4.309899,12.540503 4.202203,12.540503 4.202203,12.457203 4.309899,12.457203 4.309899,12.295853 4.21085,12.295853 4.21085,12.214302 4.202203,12.214302 4.202203,12.131702 4.21085,12.131702 4.21085,12.085851 4.309899,12.085851 4.309899,11.888803 4.202203,11.888803 4.202203,11.805503 4.309899,11.805503 4.309899,11.639603 4.21085,11.639603 4.21085,11.562603 4.202203,11.562603 4.202203,11.479303 4.21085,11.479303 4.21085,11.429601 4.309899,11.429601 4.309899,11.237103 4.202203,11.237103 4.202203,11.153803 4.309899,11.153803 4.309899,10.983354 4.21085,10.983354 4.21085,10.910903 4.202203,10.910903 4.202203,10.8276 4.21085,10.8276 4.210851,10.773351 4.309899,10.773351 4.309899,10.585402 4.202203,10.585402 4.202203,10.502103 4.309899,10.502103 4.309899,10.327104 4.21085,10.327104 4.21085,10.259203 4.202203,10.259203 4.202203,10.1759 4.21085,10.1759 4.21085,10.117101 4.309898,10.117101 4.309897,9.933001 4.202203,9.933001 4.202203,9.850401 4.309899,9.850401 4.309899,9.670854 4.21085,9.670854 4.21085,9.607501 4.202203,9.607501 4.203634,9.553384 4.203841,9.524201 4.21085,9.524201 4.21085,9.460851 4.309898,9.460851 4.309897,9.281301 4.202203,9.281301 4.202203,9.198701 4.309899,9.198701 4.309899,9.014604 4.21085,9.014604 4.21085,8.955801 4.202203,8.955801 4.202203,8.872501 4.21085,8.872501 4.21085,8.804601 4.309899,8.804601 4.309899,8.629601 4.202203,8.629601 4.202203,8.546302 4.309899,8.546302 4.309899,8.358353 4.21085,8.358353 4.21085,8.304101 4.202203,8.304101 4.202203,8.220801 4.21085,8.220801 4.21085,8.14835 4.309899,8.14835 4.309899,7.977901 4.202203,7.977901 4.202203,7.894602 4.309899,7.894602 4.309899,7.702103 4.21085,7.702103 4.21085,7.652401 4.202203,7.652401 4.202203,7.569101 4.21085,7.569101 4.21085,7.492101 4.309899,7.492101 4.309899,7.326201 4.202203,7.326201 4.202203,7.242902 4.309899,7.242902 4.309899,7.045853 4.21085,7.045853 4.21085,7.000002 4.202203,7.000002 4.202203,6.917402 4.21085,6.917402 4.21085,6.835851 4.309899,6.835851 4.309899,6.674501 4.202203,6.674501 4.202203,6.591202 4.309899,6.591202 4.309899,6.389603 4.21085,6.389603 4.21085,6.348302 4.202203,6.348302 4.202203,6.265002 4.21085,6.265002 4.21085,6.179601 4.309899,6.179601 4.309899,6.022802 4.202203,6.022802 4.202203,5.939502 4.309899,5.939502 4.309899,5.733353 4.21085,5.733353 4.21085,5.696602 4.202203,5.696602 4.202203,5.613302 4.21085,5.613302 4.21085,5.523352 4.309899,5.523352 4.309899,5.370402 4.202203,5.370402 4.202203,5.287802 4.309899,5.287802 4.309899,5.077102 4.21085,5.077102 4.21085,5.044902 4.202203,5.044902 4.202203,4.961601 4.21085,4.961601 4.21085,4.867102 4.309899,4.867102 4.309899,4.718703 4.202203,4.718703 4.202203,4.635401 4.309899,4.635401 4.309899,4.420852 4.21085,4.420852 4.21085,4.393202 4.202203,4.393202 4.202203,4.309901 4.21085,4.309901 4.21085,4.210852 4.309899,4.210852 4.309899,4.202205 4.393201,4.202205" style="fill: white" /><polygon type="hole" points="6.986349,6.869332 6.964854,6.869332 6.870809,6.870906 6.86933,6.950927 6.86933,6.959684 6.869337,6.968952 6.869503,6.986495 6.869211,6.997266 6.86933,7.001078 6.86933,7.616364 6.869728,7.663727 6.869728,7.873488 6.870076,7.906986 6.870125,7.942347 6.870125,8.150914 6.870523,8.198277 6.870523,8.729654 6.87081,8.755199 6.870921,8.796523 6.870921,9.275641 6.87132,9.323008 6.87132,9.532369 6.871546,9.544162 6.871733,9.566202 6.871861,9.584073 6.871546,9.587874 6.87132,9.599635 6.87132,9.808997 6.870921,9.856364 6.870921,10.33518 6.87081,10.376503 6.870523,10.402049 6.870523,10.610616 6.870125,10.657982 6.870125,11.189357 6.870076,11.224717 6.869728,11.258215 6.869728,11.467976 6.86933,11.515339 6.86933,12.130624 6.869211,12.134437 6.869503,12.145208 6.869337,12.16242 6.870933,12.261044 6.958007,12.262162 6.968951,12.262365 6.986492,12.262199 6.997264,12.262491 7.001074,12.262372 7.61636,12.262372 7.663726,12.261974 7.873487,12.261974 7.906984,12.261625 7.942345,12.261576 8.437785,12.261576 8.47372,12.261577 8.521086,12.261179 8.729651,12.261179 8.755198,12.26089 8.79652,12.26078 8.901201,12.26078 9.152442,12.260779 9.27564,12.260779 9.323003,12.260381 9.532368,12.260381 9.544158,12.260156 9.566199,12.259967 9.584071,12.259841 9.587871,12.260156 9.599632,12.260381 9.808996,12.260381 9.856362,12.260779 10.335179,12.260779 10.376501,12.26089 10.402047,12.261178 10.610613,12.261178 10.657979,12.261576 11.189354,12.261576 11.224715,12.261625 11.258212,12.261974 11.467973,12.261974 11.515339,12.262372 12.130622,12.262372 12.134435,12.262491 12.145207,12.262199 12.162419,12.262364 12.198287,12.261576 12.260527,12.260782 12.262161,12.173691 12.262363,12.16242 12.262197,12.145208 12.262488,12.134435 12.26237,12.130624 12.26237,11.479404 12.261972,11.432041 12.261972,11.222279 12.261575,11.153422 12.261575,10.40674 12.261177,10.359374 12.261177,10.150807 12.260778,10.08394 12.260778,9.87418 12.26038,9.826813 12.26038,9.599635 12.260154,9.587874 12.259967,9.566202 12.259839,9.548026 12.260154,9.544162 12.26038,9.532369 12.26038,9.323008 12.260778,9.275641 12.260778,9.065881 12.261177,8.999014 12.261177,8.790447 12.261575,8.743081 12.261575,8.534516 12.261972,8.465656 12.261972,7.699663 12.26237,7.652297 12.26237,7.001077 12.262489,6.997267 12.262197,6.986495 12.262363,6.968952 12.260955,6.870746 12.173691,6.86954 12.162418,6.869337 12.145207,6.869505 12.134435,6.869212 12.130622,6.869332 11.479404,6.869332 11.432038,6.869729 11.222277,6.869729 11.153419,6.870127 10.406738,6.870127 10.359372,6.870525 10.150807,6.870525 10.083937,6.870923 9.874177,6.870923 9.826813,6.871322 9.599632,6.871322 9.587871,6.871548 9.566199,6.871734 9.548023,6.871861 9.544158,6.871548 9.532368,6.871322 9.323004,6.871322 9.275639,6.870923 9.047761,6.870923 8.980892,6.870525 8.772326,6.870525 8.72496,6.870127 7.978281,6.870127 7.90942,6.869729 7.699661,6.869729 7.652295,6.869332 7.001074,6.869332 6.992948,6.869078" style="fill: black" />
</svg>
