<svg width="19.131698" height="19.131699">
<polygon type="contour" points="8.799531,8.715511 8.907331,8.718136 8.922235,8.718797 8.949365,8.718797 9.017206,8.718805 9.017482,8.778744 9.01839,8.81901 9.018958,8.88553 9.086481,8.885596 9.145374,8.885659 9.145332,8.974564 9.145332,9.056434 9.145374,9.102728 9.145374,9.145375 9.086481,9.145334 9.019283,9.145334 8.949121,9.145375 8.885657,9.145375 8.885627,9.112824 8.885523,9.01896 8.718899,9.01896 8.718899,8.987659 8.718875,8.93473 8.717191,8.844719 8.714732,8.714734" style="fill: white" /><polygon type="contour" points="9.145094,9.351728 9.145094,9.749632 9.145374,9.795785 9.145374,9.838096 9.086482,9.838086 9.019282,9.838086 8.949121,9.838096 8.885657,9.838096 8.885632,9.805992 8.885587,9.711102 8.719027,9.711102 8.718941,9.695206 8.717137,9.566201 8.717527,9.501945 8.718942,9.436574 8.719027,9.420602 8.885579,9.420602 8.885627,9.351728 8.885657,9.293608 8.974562,9.293618 9.056431,9.293618 9.102728,9.293608 9.145374,9.293608" style="fill: white" /><polygon type="contour" points="10.414509,8.844718 10.412823,8.93473 10.412801,8.987659 10.412662,9.01891 10.376876,9.01896 10.246169,9.01896 10.246107,9.086483 10.246043,9.145375 10.157138,9.145334 10.075269,9.145334 10.028973,9.145375 9.986328,9.145375 9.986368,9.086483 9.986368,9.019284 9.986328,8.949124 9.986328,8.885659 10.018878,8.885629 10.112742,8.885525 10.11331,8.81901 10.114219,8.778744 10.114495,8.774876 10.114495,8.718805 10.182335,8.718797 10.209465,8.718797 10.224368,8.718137 10.332169,8.715511 10.416968,8.714734" style="fill: white" /><polygon type="contour" points="9.659037,8.717662 9.711101,8.719029 9.711101,8.789165 9.711508,8.885559 9.779836,8.885612 9.779973,8.885629 9.838094,8.885659 9.838085,8.974564 9.838085,9.056434 9.838094,9.102729 9.838094,9.145375 9.779974,9.145096 9.382068,9.145096 9.335915,9.145375 9.293606,9.145375 9.293615,9.086483 9.293615,9.019284 9.293606,8.949123 9.293606,8.885659 9.325709,8.885634 9.4206,8.885589 9.4206,8.719029 9.436495,8.718944 9.565775,8.717062" style="fill: white" /><polygon type="contour" points="9.795784,9.293608 9.838094,9.293608 9.83829,9.351729 9.83829,9.749633 9.838094,9.795786 9.838094,9.838095 9.779973,9.838292 9.382069,9.838292 9.335915,9.838096 9.293605,9.838096 9.293411,9.779975 9.293411,9.38207 9.293606,9.335917 9.293606,9.293607 9.351726,9.293413 9.749631,9.293413" style="fill: white" /><polygon type="contour" points="10.246067,9.325711 10.246112,9.420602 10.412673,9.420602 10.412758,9.436574 10.414563,9.566201 10.414173,9.630149 10.412758,9.695207 10.412673,9.711102 10.24612,9.711102 10.246072,9.779975 10.246043,9.838096 10.157138,9.838086 10.075268,9.838086 10.028972,9.838096 9.986328,9.838096 9.986607,9.779975 9.986607,9.38207 9.986328,9.335917 9.986328,9.293608 10.045218,9.293618 10.112418,9.293618 10.182578,9.293608 10.246043,9.293608" style="fill: white" /><polygon type="contour" points="10.246071,10.018878 10.246176,10.112745 10.412801,10.112745 10.412801,10.144044 10.412823,10.196974 10.414509,10.286986 10.416968,10.416969 10.332169,10.416193 10.224368,10.413567 10.209465,10.412907 10.182335,10.412907 10.114495,10.412899 10.114219,10.352959 10.11331,10.312694 10.112742,10.246173 10.045219,10.246108 9.986328,10.246044 9.986368,10.157139 9.986368,10.075271 9.986328,10.028975 9.986328,9.98633 10.045219,9.98637 10.112418,9.98637 10.182578,9.98633 10.246043,9.98633" style="fill: white" /><polygon type="contour" points="9.838085,10.045221 9.838085,10.11242 9.838094,10.182581 9.838094,10.246045 9.80599,10.246069 9.711101,10.246114 9.711101,10.412675 9.695128,10.41276 9.5655,10.414642 9.472663,10.41404 9.4206,10.412675 9.4206,10.342538 9.420192,10.246144 9.351864,10.246092 9.351726,10.246075 9.293606,10.246045 9.293615,10.15714 9.293615,10.07527 9.293606,10.028974 9.293606,9.98633 9.351726,9.986609 9.749631,9.986609 9.795784,9.98633 9.838094,9.98633" style="fill: white" /><polygon type="contour" points="9.145332,10.045221 9.145332,10.112419 9.145374,10.182581 9.145374,10.246045 9.112822,10.246074 9.018958,10.246178 9.018391,10.312694 9.017482,10.352959 9.017206,10.356827 9.017206,10.412899 8.949365,10.412907 8.922235,10.412907 8.907331,10.413567 8.799531,10.416192 8.714732,10.416969 8.717191,10.286985 8.718875,10.196974 8.718899,10.144045 8.719038,10.112795 8.754823,10.112745 8.88553,10.112745 8.885593,10.04522 8.885657,9.98633 8.974563,9.98637 9.056431,9.98637 9.102727,9.98633 9.145374,9.98633" style="fill: white" />
</svg>
