<svg width="19.131698" height="19.131699">
<polygon type="contour" points="7.027809,10.460481 8.545601,10.460481 8.612789,10.460475 8.67035,10.461349 8.670581,10.470225 8.671225,10.518911 8.67122,10.586098 8.67122,12.103892 8.671288,12.154724 8.671288,12.221144 8.670733,12.286648 8.473702,12.289064 8.43467,12.287985 8.427872,12.287372 8.376141,12.286728 8.376026,12.272689 8.376291,12.200626 7.139402,12.200626 7.139293,12.28648 7.085554,12.28782 7.032506,12.289739 6.836216,12.295487 6.841901,12.061221 6.844046,11.993462 6.931077,11.992424 6.931077,11.379933 6.931262,10.965757 6.931262,10.755537 6.845203,10.755537 6.844328,10.704403 6.843717,10.697032 6.842636,10.657999 6.841414,10.620441 6.838359,10.564169 6.845055,10.460966 6.861227,10.461037 6.910558,10.460412 6.976977,10.460412" style="fill: white" /><polygon type="contour" points="7.032505,6.841961 7.085555,6.843885 7.139293,6.845224 7.139402,6.931078 8.376306,6.931078 8.376141,6.859015 8.376026,6.844976 8.427299,6.844329 8.434669,6.843719 8.473702,6.842638 8.498468,6.841944 8.499248,6.841894 8.51126,6.841416 8.567534,6.83836 8.670734,6.845056 8.671288,6.910559 8.671288,6.976979 8.67122,7.02781 8.67122,8.545603 8.671225,8.61279 8.67035,8.670352 8.664341,8.670306 8.661474,8.670585 8.612788,8.671227 8.545601,8.671222 7.027809,8.671222 6.976977,8.67129 6.910558,8.67129 6.845055,8.670736 6.842637,8.473704 6.843717,8.434672 6.844327,8.427875 6.84528,8.376333 6.859963,8.376333 6.931017,8.376408 6.931017,7.829196 6.931077,7.751426 6.931077,7.139279 6.844046,7.138243 6.841901,7.070482 6.836216,6.836216" style="fill: white" /><polygon type="contour" points="12.289249,7.070482 12.287282,7.138243 12.200623,7.139278 12.200623,7.751768 12.200439,8.165947 12.200439,8.376222 12.286495,8.376167 12.287371,8.4273 12.287983,8.434673 12.289062,8.473703 12.290285,8.511263 12.29334,8.567534 12.286645,8.670736 12.270472,8.670665 12.221141,8.67129 12.154722,8.67129 12.10389,8.671222 10.586096,8.671222 10.518909,8.671227 10.470224,8.670585 10.469011,8.670467 10.461348,8.670352 10.461393,8.664356 10.461116,8.661476 10.460472,8.61279 10.460479,8.545603 10.460479,7.027811 10.46041,6.976978 10.46041,6.910559 10.460964,6.845055 10.657998,6.842638 10.697031,6.843719 10.704401,6.844329 10.755675,6.844975 10.755558,6.859015 10.755051,6.931078 11.992297,6.931078 11.992407,6.845224 12.046145,6.843885 12.099191,6.841962 12.295484,6.836217" style="fill: white" /><polygon type="contour" points="12.286645,10.460966 12.289063,10.657999 12.287983,10.697032 12.287372,10.704404 12.28642,10.755491 12.271735,10.755491 12.200683,10.755411 12.200683,11.302507 12.200623,11.379934 12.200623,11.992425 12.287282,11.993462 12.289249,12.061221 12.295484,12.295487 12.099192,12.28974 12.046145,12.28782 11.992407,12.28648 11.992297,12.200626 11.379933,12.200626 10.956698,12.200742 10.755559,12.200742 10.755559,12.286728 10.703826,12.287372 10.69703,12.287985 10.657999,12.289063 10.626227,12.289907 10.620438,12.290286 10.564166,12.293341 10.460964,12.286648 10.46041,12.221144 10.46041,12.154724 10.460479,12.103892 10.460479,10.586098 10.460472,10.518911 10.461116,10.470225 10.461232,10.469013 10.461347,10.46135 10.470223,10.461118 10.518909,10.460474 10.586096,10.460481 12.10389,10.460481 12.154722,10.460412 12.221141,10.460412" style="fill: white" />
</svg>
