<svg width="19.131698" height="19.131699">
<polygon type="contour" points="11.010792,8.872029 11.0108,9.009692 10.968219,9.009742 10.915914,9.009774 10.915914,8.821858 10.915886,8.716279 10.966171,8.716202 11.010792,8.716202" style="fill: white" /><polygon type="contour" points="11.010652,8.471213 11.010792,8.53806 10.951992,8.538128 10.915886,8.538128 10.915886,8.471212 10.915973,8.430639 10.977466,8.430639 11.010657,8.430589" style="fill: white" /><polygon type="contour" points="11.481453,7.89287 11.478446,7.937589 11.414429,7.938554 11.392927,7.938814 11.368634,7.939017 11.308823,7.938852 11.192851,7.938852 11.192851,7.654878 11.378112,7.654174 11.481719,7.649983" style="fill: white" /><polygon type="contour" points="11.0108,7.939931 10.966874,7.939931 10.915895,7.940036 10.915895,7.866665 10.915973,7.824239 10.951344,7.824179 11.0108,7.823945" style="fill: white" /><polygon type="contour" points="11.010657,8.180357 11.010657,8.215807 10.951345,8.215807 10.915973,8.215729 10.915973,8.154234 10.915895,8.121045 10.966874,8.120902 11.0108,8.120902" style="fill: white" /><polygon type="contour" points="11.307522,8.180356 11.307463,8.215729 11.231392,8.215729 11.191665,8.215807 11.191771,8.164827 11.191771,8.120902 11.307756,8.120902" style="fill: white" /><polygon type="contour" points="11.307463,8.430639 11.307634,8.471212 11.307937,8.537929 11.191677,8.537929 11.19153,8.471213 11.191665,8.430589 11.265035,8.430589" style="fill: white" /><polygon type="contour" points="11.477254,8.864607 11.477232,9.008534 11.398501,9.008534 11.245743,9.008835 11.192963,9.008807 11.192652,8.856013 11.192464,8.714888 11.476976,8.714888" style="fill: white" /><polygon type="contour" points="11.477232,10.12317 11.476941,10.276731 11.476976,10.416816 11.192772,10.416816 11.192773,10.264919 11.192963,10.122897 11.323398,10.12287" style="fill: white" /><polygon type="contour" points="9.409693,10.915974 9.409394,10.975563 9.409692,11.010874 9.349733,11.010802 9.298056,11.010802 9.297964,10.951346 9.29815,10.915915 9.369907,10.915915" style="fill: white" /><polygon type="contour" points="9.409692,11.262283 9.409394,11.307324 9.347097,11.307686 9.298186,11.307811 9.294914,11.243959 9.294762,11.191954 9.365412,11.191602 9.409692,11.191602" style="fill: white" /><polygon type="contour" points="9.781479,11.191787 9.833749,11.191787 9.833749,11.254504 9.833514,11.30781 9.7846,11.307685 9.721866,11.307324 9.721866,11.233873 9.721586,11.191602" style="fill: white" /><polygon type="contour" points="9.833408,10.968221 9.833643,11.010802 9.765866,11.010874 9.721586,11.010874 9.721737,10.951346 9.722006,10.915974 9.794887,10.915974 9.833551,10.915915" style="fill: white" /><polygon type="contour" points="9.833704,10.66049 9.833551,10.701124 9.761793,10.701124 9.722006,10.701064 9.721866,10.633392 9.721553,10.593653 9.780618,10.593375 9.833708,10.593375" style="fill: white" /><polygon type="contour" points="10.415424,10.66049 10.415424,10.70111 10.233362,10.70111 10.121929,10.701124 10.12208,10.642743 10.122322,10.593776 10.415621,10.593776" style="fill: white" /><polygon type="contour" points="10.4155,10.966173 10.4155,11.010794 10.259671,11.010794 10.122007,11.010802 10.121969,10.951347 10.121928,10.915915 10.309844,10.915915 10.415424,10.915887" style="fill: white" /><polygon type="contour" points="10.416656,11.267553 10.416656,11.477127 10.348861,11.477426 10.123159,11.476674 10.123227,11.459106 10.123034,11.457452 10.123034,11.438473 10.123031,11.437568 10.12294,11.408318 10.122801,11.338124 10.122741,11.245222 10.122771,11.192858 10.277821,11.192858 10.416619,11.192671" style="fill: white" /><polygon type="contour" points="11.392927,11.19289 11.414429,11.19315 11.416257,11.1936 11.478404,11.194082 11.478247,11.390241 11.481719,11.481721 11.231466,11.479757 11.192851,11.476826 11.192851,11.192853 11.308824,11.192853 11.368633,11.192685" style="fill: white" /><polygon type="contour" points="11.307635,10.66049 11.307463,10.701065 11.231392,10.701065 11.191665,10.701115 11.19153,10.66049 11.191677,10.593776 11.307937,10.593776" style="fill: white" /><polygon type="contour" points="11.307463,10.915974 11.307523,10.951347 11.307756,11.010802 11.191771,11.010802 11.191771,10.966876 11.191665,10.915897 11.265035,10.915897" style="fill: white" /><polygon type="contour" points="11.0108,10.966876 11.0108,11.010802 10.951344,11.010659 10.915895,11.010659 10.915895,10.951347 10.915973,10.915974 10.977467,10.915974 11.010657,10.915897" style="fill: white" /><polygon type="contour" points="10.966874,11.191774 11.0108,11.191774 11.0108,11.307758 10.951344,11.307524 10.915973,11.307463 10.915973,11.231393 10.915895,11.191668" style="fill: white" /><polygon type="contour" points="10.701114,11.191668 10.701114,11.265038 10.701064,11.307463 10.66049,11.307635 10.593774,11.307938 10.593774,11.191679 10.660489,11.191533" style="fill: white" /><polygon type="contour" points="10.701064,10.915974 10.701064,10.977468 10.701114,11.010659 10.660489,11.010654 10.593643,11.010794 10.593574,10.951993 10.593574,10.915887 10.660489,10.915887" style="fill: white" /><polygon type="contour" points="10.701109,10.66049 10.701064,10.701065 10.630915,10.701065 10.593574,10.70111 10.593774,10.64502 10.593774,10.593776 10.660489,10.593576 10.701109,10.593576" style="fill: white" /><polygon type="contour" points="10.96617,10.593645 11.010792,10.593645 11.010652,10.660491 11.010657,10.701115 10.951345,10.701115 10.915973,10.701065 10.915973,10.630916 10.915886,10.593576" style="fill: white" /><polygon type="contour" points="10.968219,10.121961 11.0108,10.12201 11.0108,10.279984 11.010792,10.415502 10.966171,10.415502 10.915886,10.415425 10.915886,10.233363 10.915913,10.121931" style="fill: white" /><polygon type="contour" points="10.701122,10.309845 10.701109,10.415425 10.66049,10.415425 10.593774,10.415623 10.593774,10.122324 10.66049,10.122125 10.701122,10.121931" style="fill: white" /><polygon type="contour" points="10.416743,10.123091 10.416743,10.268044 10.416656,10.340532 10.416656,10.416658 10.269327,10.416816 10.123163,10.416816 10.123371,10.267094 10.123168,10.12317 10.277866,10.122874" style="fill: white" /><polygon type="contour" points="10.415538,9.78062 10.415538,9.83371 10.261266,9.83371 10.121996,9.833516 10.121941,9.764598 10.121941,9.722085 10.303206,9.722085 10.415446,9.721973" style="fill: white" /><polygon type="contour" points="10.701064,9.722008 10.701064,9.794889 10.701122,9.833553 10.641848,9.833517 10.593374,9.83371 10.593652,9.767041 10.593652,9.721973 10.66049,9.721706" style="fill: white" /><polygon type="contour" points="10.975561,9.722308 11.010872,9.722011 11.0108,9.781968 11.0108,9.833646 10.951345,9.83374 10.915914,9.833553 10.915914,9.761793 10.915973,9.722008" style="fill: white" /><polygon type="contour" points="11.307322,9.722308 11.307685,9.784603 11.307809,9.833517 11.243446,9.833517 11.191785,9.833752 11.1916,9.76629 11.1916,9.722011 11.262282,9.722011" style="fill: white" /><polygon type="contour" points="11.307808,9.298188 11.307684,9.3471 11.307322,9.409835 11.233872,9.409835 11.1916,9.410116 11.191785,9.350222 11.191785,9.297952 11.254501,9.297952" style="fill: white" /><polygon type="contour" points="11.010872,9.365835 11.010872,9.410116 10.951344,9.409965 10.915973,9.409696 10.915973,9.336815 10.915914,9.298151 10.96822,9.298293 11.0108,9.298058" style="fill: white" /><polygon type="contour" points="10.660489,9.297998 10.701122,9.298152 10.701122,9.369909 10.701064,9.409696 10.633391,9.409835 10.593651,9.41015 10.593374,9.351083 10.593374,9.297994" style="fill: white" /><polygon type="contour" points="10.415446,9.36508 10.415446,9.41015 10.240173,9.41015 10.121941,9.41005 10.121996,9.348573 10.121996,9.298188 10.282519,9.298188 10.415538,9.297994" style="fill: white" /><polygon type="contour" points="10.34053,8.715046 10.416656,8.715046 10.416813,8.862375 10.416813,9.008539 10.267092,9.008331 10.123168,9.008534 10.122948,8.854973 10.123163,8.714888 10.269327,8.714888" style="fill: white" /><polygon type="contour" points="10.66049,8.716279 10.701109,8.716279 10.701109,8.89834 10.701122,9.009774 10.66049,9.009578 10.593774,9.009381 10.593774,8.716081" style="fill: white" /><polygon type="contour" points="10.701064,8.430639 10.701064,8.500786 10.701109,8.538128 10.645018,8.537929 10.593774,8.537929 10.593574,8.471212 10.593574,8.430594 10.660489,8.430594" style="fill: white" /><polygon type="contour" points="10.415424,8.430594 10.415621,8.486684 10.415621,8.537929 10.122322,8.537929 10.123196,8.510081 10.122199,8.481158 10.122124,8.471212 10.121929,8.43058 10.309845,8.43058" style="fill: white" /><polygon type="contour" points="10.4155,8.12091 10.415424,8.179711 10.415424,8.215816 10.233361,8.215816 10.121929,8.215788 10.121959,8.163481 10.122008,8.120902 10.279982,8.120902" style="fill: white" /><polygon type="contour" points="10.660489,8.12105 10.701114,8.121045 10.701114,8.180356 10.701064,8.215729 10.630914,8.215729 10.593574,8.215816 10.593574,8.17971 10.593643,8.12091" style="fill: white" /><polygon type="contour" points="10.66049,7.824068 10.701064,7.824238 10.701064,7.900308 10.701114,7.940036 10.660489,7.940171 10.592812,7.940127 10.593774,7.878694 10.593774,7.823765" style="fill: white" /><polygon type="contour" points="10.416656,7.779075 10.416619,7.883934 10.416619,7.939034 10.263725,7.939034 10.122771,7.938846 10.122801,7.79358 10.123032,7.694134 10.123034,7.67425 10.123159,7.655029 10.191283,7.655273 10.416656,7.654577" style="fill: white" /><polygon type="contour" points="9.008541,7.655029 9.008472,7.672597 9.008665,7.674251 9.008665,7.69323 9.008668,7.694134 9.008757,7.723385 9.008899,7.793581 9.00896,7.886481 9.00893,7.938846 8.853879,7.938846 8.715081,7.939033 8.715045,7.864151 8.715045,7.654577 8.782839,7.654279" style="fill: white" /><polygon type="contour" points="9.347097,7.824016 9.409394,7.824379 9.409394,7.897829 9.409692,7.940103 9.347363,7.93975 9.294762,7.93975 9.297951,7.877199 9.298186,7.823893" style="fill: white" /><polygon type="contour" points="9.836787,7.887745 9.836939,7.939749 9.765865,7.940103 9.721586,7.940103 9.721586,7.869419 9.721866,7.824379 9.7846,7.824016 9.833514,7.823893" style="fill: white" /><polygon type="contour" points="9.781968,8.120902 9.833644,8.120902 9.833737,8.180356 9.833551,8.215788 9.761793,8.215788 9.722006,8.215728 9.721866,8.15614 9.721586,8.12083" style="fill: white" /><polygon type="contour" points="9.833704,8.471212 9.833604,8.481158 9.833708,8.538328 9.766622,8.538052 9.721553,8.538052 9.721704,8.471213 9.722006,8.430639 9.794887,8.430639 9.833551,8.43058" style="fill: white" /><polygon type="contour" points="9.833708,8.870435 9.833514,9.009706 9.764165,9.009762 9.721651,9.009762 9.721651,8.828496 9.721553,8.716256 9.780618,8.716165 9.833708,8.716165" style="fill: white" /><polygon type="contour" points="8.537928,9.009381 8.47121,9.009578 8.430578,9.009774 8.430578,8.821857 8.430592,8.716279 8.471211,8.716279 8.537928,8.716081" style="fill: white" /><polygon type="contour" points="9.008328,8.864607 9.008531,9.008534 8.853833,9.008829 8.714957,9.008613 8.714957,8.863659 8.715045,8.79117 8.715045,8.715046 8.862373,8.714888 9.008538,8.714888" style="fill: white" /><polygon type="contour" points="9.36466,8.716256 9.40973,8.716256 9.40973,8.89153 9.409618,9.009762 9.348572,9.009706 9.298186,9.009706 9.298186,8.849184 9.297993,8.716165" style="fill: white" /><polygon type="contour" points="9.409693,8.430639 9.409394,8.498312 9.40973,8.538052 9.351081,8.538328 9.297993,8.538328 9.297997,8.471212 9.29815,8.43058 9.369907,8.43058" style="fill: white" /><polygon type="contour" points="9.409963,8.180356 9.409693,8.215729 9.336813,8.215729 9.298149,8.215788 9.298291,8.163481 9.298056,8.120902 9.365411,8.12083 9.409692,8.12083" style="fill: white" /><polygon type="contour" points="9.008808,8.145984 9.009572,8.170855 9.009732,8.180356 9.009772,8.215788 8.821855,8.215788 8.716277,8.215816 8.7162,8.165529 8.7162,8.12091 8.872027,8.12091 9.009691,8.120902" style="fill: white" /><polygon type="contour" points="9.00962,8.48896 9.009379,8.537929 8.71608,8.537929 8.716277,8.471212 8.716277,8.430594 8.898338,8.430594 9.009772,8.43058" style="fill: white" /><polygon type="contour" points="8.537928,8.486684 8.537928,8.537929 8.47121,8.538128 8.430592,8.538128 8.430592,8.471212 8.430637,8.430639 8.500784,8.430639 8.538127,8.430594" style="fill: white" /><polygon type="contour" points="8.538127,8.17971 8.538127,8.215816 8.471211,8.215816 8.430637,8.215729 8.430637,8.154235 8.430587,8.121045 8.471211,8.12105 8.538058,8.12091" style="fill: white" /><polygon type="contour" points="8.537928,7.940026 8.47121,7.940171 8.430587,7.940036 8.430587,7.866666 8.430637,7.824239 8.471211,7.824067 8.537928,7.823765" style="fill: white" /><polygon type="contour" points="7.900233,7.651947 7.938849,7.654878 7.938849,7.938852 7.822874,7.938852 7.763065,7.939018 7.738772,7.938814 7.71727,7.938555 7.715442,7.938102 7.653295,7.937623 7.653453,7.741462 7.649981,7.649983" style="fill: white" /><polygon type="contour" points="8.180355,7.824179 8.215727,7.824239 8.215727,7.900308 8.215805,7.940036 8.164825,7.939931 8.1209,7.939931 8.1209,7.823945" style="fill: white" /><polygon type="contour" points="8.180355,8.121045 8.215805,8.121045 8.215805,8.180356 8.215727,8.215729 8.154232,8.215729 8.121043,8.215807 8.1209,8.164827 8.1209,8.120902" style="fill: white" /><polygon type="contour" points="7.939929,8.164827 7.940035,8.215807 7.866663,8.215807 7.824237,8.215729 7.824176,8.180356 7.823944,8.120902 7.939929,8.120902" style="fill: white" /><polygon type="contour" points="7.94017,8.471213 7.940024,8.537929 7.823763,8.537929 7.824065,8.471212 7.824237,8.430639 7.900307,8.430639 7.940035,8.430589" style="fill: white" /><polygon type="contour" points="8.215727,8.430639 8.215727,8.500786 8.215813,8.538128 8.165528,8.53806 8.120908,8.53806 8.121048,8.471213 8.121043,8.430589 8.180354,8.430589" style="fill: white" /><polygon type="contour" points="8.215813,8.716279 8.215813,8.898339 8.215785,9.009774 8.16348,9.009742 8.1209,9.009693 8.1209,8.851719 8.120908,8.716202 8.165527,8.716202" style="fill: white" /><polygon type="contour" points="7.938928,8.866786 7.938737,9.008807 7.808302,9.008835 7.654468,9.008534 7.654759,8.854973 7.654724,8.714888 7.938929,8.714888" style="fill: white" /><polygon type="contour" points="7.940101,9.365835 7.940101,9.410116 7.869417,9.410116 7.824377,9.409835 7.824014,9.347099 7.823891,9.298188 7.888254,9.298188 7.939915,9.297952" style="fill: white" /><polygon type="contour" points="8.215786,9.298152 8.215786,9.36991 8.215727,9.409696 8.156138,9.409835 8.120828,9.410116 8.1209,9.349735 8.1209,9.298057 8.180354,9.297964" style="fill: white" /><polygon type="contour" points="8.538049,9.36508 8.538049,9.41015 8.471211,9.409998 8.430637,9.409696 8.430637,9.336815 8.430578,9.298152 8.48985,9.298188 8.538326,9.297994" style="fill: white" /><polygon type="contour" points="8.864605,10.123373 9.008531,10.12317 9.008753,10.276731 9.008538,10.416816 8.862373,10.416816 8.79117,10.416658 8.715045,10.416658 8.714887,10.269329 8.714887,10.123165" style="fill: white" /><polygon type="contour" points="9.409394,9.722308 9.409394,9.79224 9.409618,9.833385 9.348571,9.833517 9.298186,9.833517 9.298317,9.764599 9.298317,9.722085 9.367104,9.722085" style="fill: white" /><polygon type="contour" points="9.00976,9.722085 9.009705,9.783131 9.009705,9.833517 8.849181,9.833517 8.716163,9.83371 8.716254,9.767042 8.716254,9.721973 8.891528,9.721973" style="fill: white" /><polygon type="contour" points="9.009705,9.298188 9.00976,9.367538 9.00976,9.410051 8.828494,9.410051 8.716254,9.41015 8.716163,9.351083 8.716163,9.297994 8.870434,9.297994" style="fill: white" /><polygon type="contour" points="9.367103,9.298319 9.409618,9.298319 9.409618,9.367537 9.409394,9.409835 9.339461,9.409835 9.298317,9.410051 9.298186,9.348572 9.298186,9.298188" style="fill: white" /><polygon type="contour" points="9.833384,9.367538 9.833384,9.410051 9.764165,9.410051 9.721866,9.409835 9.721866,9.339463 9.721651,9.298319 9.783127,9.298188 9.833514,9.298188" style="fill: white" /><polygon type="contour" points="9.833514,9.78313 9.833514,9.833517 9.764165,9.833386 9.721651,9.833386 9.721651,9.764598 9.721866,9.722308 9.792237,9.722308 9.833384,9.722085" style="fill: white" /><polygon type="contour" points="9.783127,10.121998 9.833514,10.121998 9.833514,10.28252 9.833708,10.415539 9.766622,10.415448 9.721553,10.415448 9.721553,10.240175 9.721651,10.121943" style="fill: white" /><polygon type="contour" points="9.409618,10.303208 9.40973,10.415448 9.351082,10.415539 9.297993,10.415539 9.297993,10.261268 9.298186,10.121998 9.367104,10.121943 9.409618,10.121943" style="fill: white" /><polygon type="contour" points="9.364661,10.593653 9.40973,10.593653 9.409996,10.66049 9.409693,10.701065 9.336813,10.701065 9.29815,10.701124 9.297997,10.660491 9.298097,10.650546 9.297993,10.593375" style="fill: white" /><polygon type="contour" points="9.009577,10.66049 9.009772,10.701124 8.821854,10.701124 8.716277,10.70111 8.71608,10.645019 8.71608,10.593776 9.009379,10.593776" style="fill: white" /><polygon type="contour" points="9.009772,10.915914 9.00974,10.968221 9.009691,11.010802 8.851717,11.010802 8.7162,11.010794 8.716277,10.951992 8.716277,10.915887 8.898339,10.915887" style="fill: white" /><polygon type="contour" points="9.00893,11.192858 9.00896,11.245222 9.008899,11.338123 9.008757,11.408319 9.008667,11.437569 9.008665,11.457452 9.008541,11.476675 8.940416,11.476432 8.715045,11.477127 8.715045,11.352628 8.715081,11.247768 8.715081,11.192671 8.867975,11.192671" style="fill: white" /><polygon type="contour" points="8.215805,11.265038 8.215727,11.307463 8.180355,11.307524 8.1209,11.307758 8.1209,11.191774 8.164825,11.191774 8.215805,11.191668" style="fill: white" /><polygon type="contour" points="8.537928,11.191679 8.537928,11.307939 8.471211,11.307636 8.430637,11.307463 8.430637,11.231394 8.430587,11.191668 8.47121,11.191533" style="fill: white" /><polygon type="contour" points="8.538127,10.951993 8.538058,11.010794 8.471211,11.010654 8.430587,11.010659 8.430587,10.951346 8.430637,10.915974 8.500785,10.915974 8.538127,10.915887" style="fill: white" /><polygon type="contour" points="8.486681,10.593776 8.537928,10.593776 8.538127,10.66049 8.538127,10.70111 8.471211,10.70111 8.430637,10.701065 8.430637,10.630917 8.430592,10.593576" style="fill: white" /><polygon type="contour" points="7.938839,10.122828 7.939046,10.275689 7.939235,10.416816 7.654724,10.416816 7.654446,10.267095 7.654468,10.12317 7.733198,10.12317 7.88533,10.122798" style="fill: white" /><polygon type="contour" points="7.939749,9.784338 7.939749,9.836942 7.877198,9.833752 7.823891,9.833517 7.824013,9.784603 7.824377,9.722308 7.897826,9.722308 7.940101,9.722011" style="fill: white" /><polygon type="contour" points="8.215727,9.722008 8.215727,9.794889 8.215786,9.833553 8.163479,9.83341 8.1209,9.833646 8.120828,9.766291 8.120828,9.722011 8.180355,9.721739" style="fill: white" /><polygon type="contour" points="8.538326,9.78062 8.538326,9.83371 8.47121,9.833706 8.430578,9.833553 8.430578,9.761793 8.430637,9.722008 8.498309,9.722308 8.538049,9.721973" style="fill: white" /><polygon type="contour" points="8.471211,10.122126 8.537928,10.122324 8.537928,10.415623 8.471211,10.415425 8.430592,10.415425 8.430592,10.233364 8.430578,10.121931" style="fill: white" /><polygon type="contour" points="8.215786,10.309845 8.215813,10.415425 8.165527,10.415502 8.120908,10.415502 8.120908,10.259673 8.1209,10.12201 8.16348,10.121961 8.215786,10.121931" style="fill: white" /><polygon type="contour" points="7.94017,10.66049 7.940035,10.701115 7.866664,10.701115 7.824237,10.701065 7.824064,10.66049 7.823763,10.593776 7.940024,10.593776" style="fill: white" /><polygon type="contour" points="8.215813,10.66049 8.215727,10.701065 8.154233,10.701065 8.121043,10.701115 8.121048,10.660491 8.120908,10.593645 8.179708,10.593576 8.215813,10.593576" style="fill: white" /><polygon type="contour" points="8.215727,10.915974 8.215727,10.977469 8.215805,11.010659 8.164825,11.010802 8.1209,11.010802 8.121043,10.951346 8.121043,10.915897 8.180354,10.915897" style="fill: white" /><polygon type="contour" points="7.939929,10.966876 7.939929,11.010802 7.823944,11.010802 7.824176,10.951347 7.824237,10.915974 7.900307,10.915974 7.940035,10.915897" style="fill: white" /><polygon type="contour" points="7.822875,11.192853 7.938849,11.192853 7.938849,11.476826 7.753588,11.477531 7.649981,11.481721 7.650248,11.238833 7.653254,11.194115 7.717271,11.193149 7.738772,11.19289 7.763065,11.192686" style="fill: white" />
</svg>
