<svg width="19.131698" height="19.131699">
<polygon type="contour" points="10.403846,8.774004 10.403236,8.806578 10.403227,8.825732 10.402865,8.907369 10.402903,9.023251 10.402935,9.023417 10.236564,9.023417 10.236449,9.151104 10.236394,9.227169 10.236457,9.292015 10.236572,9.420602 10.402688,9.420602 10.403211,9.519292 10.403865,9.566202 10.403724,9.589343 10.403211,9.612886 10.402688,9.711102 10.236572,9.711102 10.236458,9.839688 10.236394,9.904534 10.236449,9.9806 10.236564,10.108184 10.403223,10.108184 10.403227,10.305971 10.403236,10.325125 10.403846,10.357699 10.404736,10.404738 10.374048,10.404457 10.335038,10.403507 10.329644,10.403267 10.266672,10.403267 10.109203,10.403249 10.108435,10.236567 9.980597,10.23645 9.904532,10.236395 9.839686,10.236459 9.711101,10.236576 9.711101,10.40269 9.61241,10.403213 9.5655,10.403894 9.434082,10.403044 9.4206,10.40269 9.4206,10.236576 9.292014,10.236459 9.227167,10.236395 9.151103,10.23645 9.022498,10.236568 9.022498,10.403249 8.865028,10.403267 8.802055,10.403267 8.796661,10.403507 8.757651,10.404457 8.726964,10.404738 8.727853,10.357699 8.728463,10.325125 8.728472,10.305972 8.728835,10.224334 8.728796,10.108454 8.728764,10.108288 8.895135,10.108288 8.89525,9.9806 8.895305,9.904534 8.895241,9.839688 8.895127,9.711102 8.72901,9.711102 8.728487,9.612885 8.727835,9.566202 8.727976,9.542949 8.728488,9.519292 8.729009,9.420602 8.895127,9.420602 8.895242,9.292015 8.895305,9.227169 8.89525,9.151104 8.895135,9.023521 8.728477,9.023521 8.728472,8.825732 8.728463,8.806578 8.727853,8.774004 8.726964,8.726966 8.757651,8.727247 8.796661,8.728197 8.802055,8.728437 8.865028,8.728437 9.022498,8.728454 9.023265,8.895136 9.151103,8.895253 9.227167,8.895308 9.292014,8.895244 9.4206,8.895127 9.4206,8.729012 9.518816,8.72849 9.565601,8.727808 9.697618,8.728657 9.711101,8.729012 9.711101,8.895127 9.839686,8.895244 9.904532,8.895308 9.980597,8.895253 10.109203,8.895135 10.109203,8.728455 10.266672,8.728437 10.329644,8.728437 10.335038,8.728197 10.374048,8.727247 10.404736,8.726966" style="fill: white" />
</svg>
