<svg width="19.131698" height="19.131699">
<polygon type="contour" points="11.719731,7.468132 11.714974,7.538876 11.714381,7.710893 11.420809,7.710893 11.420809,7.586022 11.421096,7.484179 11.421247,7.449715 11.421573,7.447137 11.421602,7.416887 11.608611,7.416407 11.719793,7.411909" style="fill: white" /><polygon type="contour" points="11.544053,8.061941 11.544064,8.065745 11.544064,8.138036 11.544041,8.211377 11.544051,8.231976 11.513973,8.232057 11.418921,8.232057 11.418921,8.209813 11.418596,8.138095 11.418596,8.06194 11.418764,7.965051 11.543896,7.965051" style="fill: white" /><polygon type="contour" points="11.486645,8.497637 11.713559,8.498178 11.713632,8.563831 11.7141,8.793274 11.659015,8.792846 11.420602,8.792242 11.420024,8.546033 11.420024,8.497195" style="fill: white" /><polygon type="contour" points="11.166826,8.549244 11.166588,8.795122 11.147221,8.79509 11.054315,8.795943 10.983541,8.795909 10.899715,8.795183 10.899715,8.742057 10.899644,8.500194 10.914475,8.500194 11.057588,8.500626 11.057588,8.500433 11.069761,8.500448 11.166826,8.500016" style="fill: white" /><polygon type="contour" points="7.469835,7.412364 7.523089,7.416406 7.710095,7.416887 7.710451,7.449714 7.710451,7.482479 7.710603,7.484179 7.710891,7.58602 7.710891,7.710893 7.417317,7.710893 7.416725,7.538876 7.411907,7.411909" style="fill: white" /><polygon type="contour" points="7.712936,7.992823 7.713102,8.074137 7.713102,8.148574 7.712779,8.232057 7.683611,8.231976 7.587649,8.231976 7.587632,8.148162 7.587636,8.145885 7.587636,8.074167 7.58778,7.990827 7.587801,7.965051 7.712936,7.965051" style="fill: white" /><polygon type="contour" points="7.711627,8.56967 7.711212,8.792277 7.637831,8.79275 7.417601,8.793275 7.417687,8.718226 7.418142,8.498178 7.466754,8.49778 7.711627,8.4972" style="fill: white" /><polygon type="contour" points="8.138056,8.500741 8.138056,8.500433 8.14816,8.500433 8.232056,8.500194 8.232056,8.547014 8.231983,8.795183 8.215415,8.795188 8.138036,8.795914 8.138036,8.795845 8.061939,8.795927 7.965109,8.795122 7.965109,8.739826 7.964871,8.500016 7.982381,8.499991" style="fill: white" /><polygon type="contour" points="8.231894,8.06194 8.23165,8.138057 8.231855,8.138057 8.231855,8.148162 8.231974,8.231976 8.210414,8.231976 8.095923,8.231786 8.061939,8.231894 7.964829,8.232057 7.964829,8.209813 7.965033,8.074138 7.964937,8.074138 7.964937,8.06194 7.965047,7.965051 7.99282,7.965051 8.074136,7.964939 8.148572,7.964939 8.232055,7.964832" style="fill: white" /><polygon type="contour" points="8.211374,7.58766 8.231974,7.587651 8.232055,7.617726 8.232055,7.712781 8.209812,7.712781 8.138093,7.713103 8.061938,7.713103 7.965048,7.712938 7.965048,7.587803 8.061938,7.587649 8.090726,7.587625" style="fill: white" /><polygon type="contour" points="8.79336,7.417917 8.793016,7.439422 8.792406,7.69523 8.79245,7.711461 8.752498,7.711461 8.497413,7.711314 8.497364,7.687611 8.497364,7.449067 8.497905,7.417774 8.573822,7.417685" style="fill: white" /><polygon type="contour" points="8.795374,7.96528 8.795353,7.979375 8.79594,8.079073 8.795906,8.148162 8.794844,8.232079 8.756279,8.232079 8.500309,8.231764 8.500309,8.214366 8.500531,8.074115 8.50043,8.074115 8.500445,8.06194 8.500238,7.964972 8.557368,7.964972" style="fill: white" /><polygon type="contour" points="8.794512,8.586911 8.79454,8.794542 8.686792,8.794399 8.499441,8.794399 8.499589,8.6793 8.499878,8.49988 8.705282,8.499618 8.794401,8.499506" style="fill: white" /><polygon type="contour" points="9.462072,8.500602 9.462052,8.545082 9.462052,8.795523 9.439763,8.795523 9.313576,8.794993 9.31314,8.547264 9.313163,8.499789 9.337388,8.499789" style="fill: white" /><polygon type="contour" points="9.818561,8.547264 9.818124,8.794993 9.79161,8.794993 9.669055,8.795523 9.669036,8.750227 9.669036,8.500602 9.691735,8.500602 9.818537,8.499789" style="fill: white" /><polygon type="contour" points="9.822941,7.965051 9.818376,8.048135 9.818097,8.061941 9.817865,8.138037 9.81806,8.138037 9.818046,8.148162 9.81827,8.231976 9.784161,8.231976 9.669036,8.232005 9.668935,8.218361 9.670089,8.074167 9.669578,8.074167 9.669617,8.06194 9.669001,7.964927 9.692603,7.964927" style="fill: white" /><polygon type="contour" points="9.462167,7.980817 9.462091,8.138036 9.462122,8.138036 9.462055,8.148162 9.462072,8.232005 9.439374,8.232005 9.31343,8.231975 9.313398,8.210728 9.31374,8.107992 9.313603,8.06194 9.30876,7.965051 9.346678,7.965051 9.462111,7.964927" style="fill: white" /><polygon type="contour" points="9.462167,7.587809 9.462111,7.607879 9.462111,7.713344 9.438507,7.713344 9.313171,7.71268 9.313246,7.68227 9.313246,7.58753 9.347918,7.587525" style="fill: white" /><polygon type="contour" points="9.818454,7.58753 9.818454,7.68227 9.81853,7.71268 9.78108,7.71268 9.669001,7.713344 9.668935,7.694923 9.668935,7.587809 9.783781,7.587525" style="fill: white" /><polygon type="contour" points="10.634336,7.449067 10.634336,7.687611 10.634287,7.711314 10.577154,7.711314 10.339249,7.711461 10.338911,7.657277 10.33834,7.417918 10.393833,7.41798 10.633795,7.417774" style="fill: white" /><polygon type="contour" points="11.057536,7.58767 11.057536,7.587639 11.140874,7.587782 11.166651,7.587803 11.166651,7.712938 11.138878,7.712938 11.057563,7.713103 10.983128,7.713103 10.899644,7.712781 10.899726,7.683612 10.899726,7.58765 10.98354,7.587634" style="fill: white" /><polygon type="contour" points="11.057564,7.965034 11.057564,7.964939 11.069762,7.964939 11.166651,7.965051 11.166871,8.048134 11.166763,8.061941 11.166763,8.148574 11.166871,8.232057 11.069762,8.231895 10.993645,8.231651 10.993645,8.231856 10.983541,8.231856 10.899726,8.231976 10.899726,8.210416 10.899911,8.095563 10.899804,8.06194 10.899644,7.964832 10.921888,7.964832" style="fill: white" /><polygon type="contour" points="10.631489,7.985316 10.631107,8.138057 10.631267,8.138057 10.631267,8.148162 10.631391,8.231764 10.576469,8.231764 10.336857,8.232079 10.336855,8.220064 10.33579,8.138037 10.335858,8.138037 10.335777,8.06194 10.336325,7.96528 10.376695,7.96528 10.631462,7.964971" style="fill: white" /><polygon type="contour" points="10.44165,8.499429 10.631821,8.49988 10.631944,8.597194 10.632142,8.794505 10.523702,8.794639 10.337161,8.794542 10.337304,8.686794 10.337014,8.499288" style="fill: white" /><polygon type="contour" points="10.444908,10.337306 10.632259,10.337306 10.632109,10.452403 10.63182,10.631823 10.426417,10.632082 10.3373,10.632195 10.337189,10.54479 10.337161,10.337163" style="fill: white" /><polygon type="contour" points="10.631391,10.89994 10.631391,10.917338 10.631163,11.05759 10.631267,11.05759 10.631253,11.069763 10.631462,11.166731 10.574331,11.166731 10.336325,11.166424 10.336346,11.152328 10.33576,11.052614 10.335795,10.983543 10.336857,10.899626 10.375422,10.899626" style="fill: white" /><polygon type="contour" points="10.634287,11.420388 10.634336,11.44409 10.634336,11.682636 10.633795,11.713929 10.557877,11.714017 10.33834,11.713786 10.338684,11.692281 10.339295,11.43647 10.33925,11.42024 10.379202,11.42024" style="fill: white" /><polygon type="contour" points="9.81853,11.419025 9.818454,11.449433 9.818454,11.544174 9.78378,11.544178 9.668935,11.543893 9.669001,11.523822 9.669001,11.41836 9.692603,11.41836" style="fill: white" /><polygon type="contour" points="9.462167,11.43678 9.462167,11.543893 9.347919,11.544178 9.313246,11.544174 9.313246,11.449433 9.313171,11.419025 9.350618,11.419025 9.462111,11.41836" style="fill: white" /><polygon type="contour" points="9.462167,10.913343 9.462086,11.057537 9.462121,11.057537 9.462082,11.069762 9.462111,11.166777 9.438508,11.166777 9.313171,11.166891 9.313326,11.083569 9.313603,11.069764 9.313828,10.993666 9.31364,10.993667 9.313654,10.983542 9.31343,10.899728 9.347539,10.899728 9.462072,10.8997" style="fill: white" /><polygon type="contour" points="9.81827,10.899728 9.818302,10.920975 9.817958,11.024148 9.818096,11.069763 9.81853,11.166891 9.692604,11.166777 9.669001,11.166777 9.668935,11.150886 9.670017,10.993668 9.669578,10.993668 9.669645,10.983543 9.669036,10.8997 9.691734,10.8997" style="fill: white" /><polygon type="contour" points="9.818125,10.336712 9.818561,10.584438 9.818537,10.631915 9.794312,10.631915 9.669036,10.631102 9.669055,10.586621 9.669055,10.336182 9.691342,10.336182" style="fill: white" /><polygon type="contour" points="9.462072,10.381477 9.462072,10.631102 9.439374,10.631102 9.313163,10.631915 9.313139,10.584438 9.313575,10.336712 9.340091,10.336712 9.462051,10.336182" style="fill: white" /><polygon type="contour" points="8.148159,10.335795 8.231983,10.336521 8.231983,10.389647 8.232056,10.63151 8.217224,10.63151 8.074113,10.631072 8.074113,10.631267 8.061939,10.631253 7.964871,10.631688 7.964871,10.582459 7.965109,10.336582 7.984475,10.336614 8.077385,10.335761" style="fill: white" /><polygon type="contour" points="8.79454,10.337162 8.794397,10.44491 8.794687,10.632416 8.69005,10.632274 8.499878,10.631823 8.499755,10.53451 8.499558,10.3372 8.607998,10.337066" style="fill: white" /><polygon type="contour" points="8.794846,10.911639 8.795911,10.993666 8.795842,10.993666 8.795924,11.069763 8.795374,11.166424 8.755004,11.166424 8.500237,11.166731 8.50021,11.146387 8.500587,10.993647 8.50043,10.993647 8.50043,10.983543 8.500309,10.89994 8.55523,10.89994 8.794844,10.899626" style="fill: white" /><polygon type="contour" points="8.79279,11.474424 8.793361,11.713786 8.737867,11.713723 8.497905,11.71393 8.497364,11.682636 8.497364,11.44409 8.497413,11.420388 8.554544,11.420388 8.79245,11.42024" style="fill: white" /><polygon type="contour" points="7.710891,11.545683 7.710603,11.647524 7.710451,11.681989 7.710124,11.684567 7.710095,11.714818 7.523089,11.715297 7.411907,11.719794 7.411969,11.66357 7.416725,11.592827 7.417318,11.420811 7.710891,11.420811" style="fill: white" /><polygon type="contour" points="8.232055,11.418922 8.231974,11.448091 8.231974,11.544053 8.14816,11.54407 8.074165,11.544033 8.074165,11.544065 7.990824,11.543919 7.965048,11.543899 7.965048,11.418766 7.992821,11.418766 8.074136,11.418598 8.148572,11.418598" style="fill: white" /><polygon type="contour" points="8.061938,10.899806 8.138056,10.900049 8.138056,10.899845 8.14816,10.899845 8.231974,10.899728 8.231974,10.921287 8.231785,11.035899 8.231893,11.069763 8.232055,11.166872 8.209811,11.166872 8.074136,11.166669 8.074136,11.166765 8.061938,11.166765 7.965048,11.166653 7.964829,11.083569 7.964937,11.069763 7.964937,10.983131 7.964829,10.899646" style="fill: white" /><polygon type="contour" points="7.712779,10.921889 7.713102,10.993607 7.713102,11.069763 7.712936,11.166653 7.587801,11.166653 7.587647,11.069763 7.587636,11.065959 7.587636,10.993668 7.587658,10.920327 7.587649,10.899728 7.617725,10.899646 7.712779,10.899646" style="fill: white" /><polygon type="contour" points="7.472686,10.338858 7.711096,10.339462 7.711676,10.58567 7.711676,10.634509 7.645054,10.634067 7.418142,10.633526 7.418067,10.567871 7.417601,10.338429" style="fill: white" /><polygon type="contour" points="7.607877,9.669591 7.713342,9.669591 7.713342,9.693194 7.712678,9.818531 7.682268,9.818456 7.587527,9.818456 7.587808,9.691938 7.587807,9.688129 7.587807,9.669535" style="fill: white" /><polygon type="contour" points="7.712678,9.350621 7.713342,9.462701 7.694921,9.462767 7.587806,9.462767 7.587522,9.347921 7.587527,9.313248 7.682268,9.313248 7.712678,9.313173" style="fill: white" /><polygon type="contour" points="7.991531,9.308769 8.138036,9.31741 8.138036,9.313641 8.148159,9.313655 8.231974,9.313432 8.231974,9.347541 8.232003,9.462667 8.218358,9.462767 8.074165,9.46161 8.074165,9.462123 8.061939,9.462083 7.964926,9.462701 7.964926,9.439099 7.965048,9.308762" style="fill: white" /><polygon type="contour" points="8.138034,9.669612 8.138034,9.669581 8.14816,9.669648 8.232003,9.66963 8.232003,9.692328 8.231974,9.818271 8.210726,9.818304 8.107488,9.817961 8.061939,9.818099 7.965048,9.822943 7.964926,9.693194 7.964926,9.669591 7.980816,9.669535" style="fill: white" /><polygon type="contour" points="8.545081,9.669651 8.795521,9.669651 8.795521,9.691938 8.794991,9.818126 8.741139,9.818102 8.499788,9.818539 8.499788,9.794315 8.500601,9.66963" style="fill: white" /><polygon type="contour" points="8.794991,9.313577 8.794991,9.340092 8.795521,9.462648 8.750225,9.462667 8.500601,9.462667 8.500601,9.439967 8.499788,9.313165 8.547264,9.313141" style="fill: white" /><polygon type="contour" points="9.439764,9.313652 9.462052,9.313652 9.462167,9.335307 9.462167,9.462767 9.439763,9.462648 9.313651,9.462648 9.313651,9.44036 9.313246,9.313248" style="fill: white" /><polygon type="contour" points="9.462052,9.691939 9.462052,9.818052 9.439764,9.818052 9.313246,9.818456 9.313651,9.691939 9.313651,9.669651 9.335306,9.669535 9.462167,9.669535" style="fill: white" /><polygon type="contour" points="9.691342,9.669651 9.81805,9.669651 9.81805,9.691939 9.818454,9.818456 9.691343,9.818052 9.669055,9.818052 9.668935,9.796396 9.668935,9.669535" style="fill: white" /><polygon type="contour" points="9.81805,9.44036 9.81805,9.462648 9.796392,9.462767 9.668935,9.462767 9.669055,9.44036 9.669055,9.313652 9.691343,9.313652 9.818454,9.313248" style="fill: white" /><polygon type="contour" points="10.631912,9.313165 10.631912,9.33739 10.631099,9.462667 10.586618,9.462648 10.33618,9.462648 10.33618,9.44036 10.33671,9.313577 10.584435,9.313141" style="fill: white" /><polygon type="contour" points="10.631099,9.692328 10.631912,9.818539 10.584435,9.818563 10.33671,9.818127 10.33671,9.791611 10.33618,9.669651 10.381475,9.66963 10.631099,9.66963" style="fill: white" /><polygon type="contour" points="11.057536,9.669617 11.057536,9.669581 11.069762,9.66962 11.166775,9.669591 11.166775,9.693194 11.166888,9.818531 11.140745,9.818456 10.993665,9.817761 10.993665,9.818063 10.98354,9.818049 10.899726,9.818272 10.899726,9.784163 10.899698,9.66963 10.913341,9.669535" style="fill: white" /><polygon type="contour" points="11.166888,9.35062 11.166775,9.462701 11.150884,9.462767 10.993666,9.461682 10.993666,9.462123 10.983541,9.462056 10.899698,9.462667 10.899698,9.439967 10.899726,9.313432 10.920973,9.3134 11.023776,9.31374 11.069762,9.313604 11.166888,9.313173" style="fill: white" /><polygon type="contour" points="11.449431,9.313248 11.544173,9.313248 11.543888,9.440359 11.543889,9.444172 11.543889,9.462767 11.52382,9.462701 11.418358,9.462701 11.418358,9.439099 11.419023,9.313173" style="fill: white" /><polygon type="contour" points="11.544177,9.783781 11.544173,9.818456 11.449431,9.818456 11.419023,9.818531 11.419023,9.781082 11.418358,9.669591 11.436778,9.669535 11.543889,9.669535" style="fill: white" /><polygon type="contour" points="11.166588,10.336583 11.166588,10.391878 11.166826,10.631688 11.149316,10.631713 10.993645,10.630957 10.993645,10.631268 10.98354,10.631268 10.899644,10.63151 10.899644,10.58469 10.899715,10.336521 10.916282,10.336517 10.993665,10.335791 10.993664,10.335859 11.069761,10.335777" style="fill: white" /><polygon type="contour" points="11.714013,10.413478 11.713559,10.633526 11.664945,10.633924 11.420073,10.634504 11.420073,10.562032 11.420488,10.339428 11.493867,10.338955 11.7141,10.338429" style="fill: white" /><polygon type="contour" points="11.448089,10.899728 11.544051,10.899728 11.544068,10.983542 11.544064,10.985818 11.544064,11.057538 11.543916,11.140875 11.543896,11.166653 11.418764,11.166653 11.418764,11.13888 11.418596,11.057565 11.418596,10.98313 11.418921,10.899646" style="fill: white" /><polygon type="contour" points="11.166871,10.921889 11.166666,11.057566 11.166763,11.057566 11.166763,11.069763 11.166651,11.166653 11.138879,11.166653 11.057563,11.166765 10.983129,11.166765 10.899644,11.166872 10.899804,11.069763 10.900047,10.993647 10.899843,10.993647 10.899843,10.983542 10.899726,10.899728 10.921285,10.899728 11.036139,10.899913 11.069762,10.899806 11.166871,10.899646" style="fill: white" /><polygon type="contour" points="11.166651,11.418766 11.166651,11.543899 11.069762,11.544054 11.040397,11.544079 10.920325,11.544043 10.899726,11.544053 10.899644,11.513976 10.899644,11.418923 10.921888,11.418923 10.993606,11.418598 11.069761,11.418598" style="fill: white" /><polygon type="contour" points="11.714974,11.592827 11.719793,11.719794 11.661865,11.71934 11.60861,11.715298 11.421602,11.714818 11.421247,11.681988 11.421247,11.649225 11.421096,11.647525 11.420809,11.545682 11.420809,11.420811 11.714381,11.420811" style="fill: white" />
</svg>
