<svg width="19.131698" height="19.131699">
<polygon type="contour" points="4.309898,4.194952 14.821798,4.194952 14.829028,4.194716 14.833759,4.194742 14.835601,4.194901 14.838053,4.195407 14.840698,4.196426 14.8659,4.210852 14.920852,4.210852 14.920852,4.263231 14.931528,4.279138 14.936044,4.303616 14.936751,4.3099 14.936751,14.821802 14.936201,14.827459 14.935165,14.834565 14.932401,14.850152 14.920852,14.867036 14.920852,14.920853 14.870189,14.920853 14.839665,14.932601 14.828496,14.935181 14.821798,14.93666 14.446352,14.936653 14.07095,14.936703 4.309899,14.936802 4.304606,14.936051 4.302204,14.935167 4.294973,14.933916 4.284318,14.930694 4.26314,14.920853 4.21085,14.920853 4.21085,14.870872 4.205071,14.861536 4.1979,14.839643 4.195625,14.831177 4.195,14.821801 4.195033,14.321233 4.19495,12.569252 4.19495,4.309901 4.196224,4.305354 4.202168,4.284198 4.21085,4.253894 4.21085,4.210852 4.262369,4.210852 4.287448,4.195948 4.293978,4.194397 4.295147,4.194144 4.29874,4.194022" style="fill: white" /><polygon type="hole" points="4.42085,4.393202 4.42085,4.420852 4.393201,4.420852 4.393201,4.867102 4.42085,4.867102 4.42085,5.077102 4.393201,5.077102 4.393201,5.523352 4.42085,5.523352 4.42085,5.733353 4.393201,5.733353 4.393201,6.179601 4.42085,6.179601 4.42085,6.389603 4.393201,6.389603 4.393201,6.835851 4.42085,6.835851 4.42085,6.83945 4.420849,7.045853 4.393201,7.045853 4.393201,7.492101 4.42085,7.492101 4.42085,7.702103 4.393201,7.702103 4.393201,8.14835 4.42085,8.14835 4.42085,8.358353 4.393201,8.358353 4.393201,8.804601 4.42085,8.804601 4.42085,9.014604 4.393201,9.014604 4.393201,9.460851 4.42085,9.460851 4.42085,9.670854 4.393201,9.670854 4.393201,10.117101 4.42085,10.117101 4.42085,10.327104 4.393201,10.327104 4.393201,10.773351 4.42085,10.773351 4.42085,10.983354 4.393201,10.983354 4.393201,11.429601 4.42085,11.429601 4.42085,11.639603 4.393201,11.639603 4.393201,12.085851 4.42085,12.085851 4.42085,12.295853 4.393201,12.295853 4.393201,12.742101 4.42085,12.742101 4.42085,12.952103 4.393201,12.952103 4.393201,13.398351 4.42085,13.398351 4.42085,13.608353 4.393201,13.608353 4.393201,14.054602 4.42085,14.054602 4.42085,14.264603 4.393201,14.264603 4.393201,14.710852 4.42085,14.710852 4.42085,14.738503 4.8671,14.738503 4.8671,14.710852 5.0771,14.710852 5.0771,14.738503 5.52335,14.738503 5.52335,14.710852 5.733351,14.710852 5.733351,14.738503 6.179599,14.738503 6.179599,14.710852 6.389601,14.710852 6.389601,14.738503 6.835849,14.738503 6.835849,14.710852 7.045851,14.710852 7.045851,14.738503 7.492099,14.738503 7.492099,14.710852 7.702101,14.710852 7.702101,14.738503 8.148349,14.738503 8.148349,14.710852 8.358351,14.710852 8.358351,14.738503 8.804599,14.738503 8.804599,14.710852 9.014602,14.710852 9.014602,14.738503 9.460849,14.738503 9.460849,14.710852 9.670852,14.710852 9.670852,14.738503 10.117099,14.738503 10.117099,14.710852 10.327102,14.710852 10.327102,14.738503 10.773349,14.738503 10.773349,14.710852 10.983352,14.710852 10.983352,14.738503 11.429599,14.738503 11.429599,14.710852 11.639602,14.710852 11.639602,14.738503 12.085849,14.738503 12.085849,14.710852 12.295852,14.710852 12.295852,14.738503 12.742099,14.738503 12.742099,14.710852 12.952102,14.710852 12.952102,14.738503 13.398349,14.738503 13.398349,14.710852 13.608352,14.710852 13.608352,14.738503 14.054599,14.738503 14.054599,14.710852 14.264602,14.710852 14.264602,14.738503 14.710849,14.738503 14.710849,14.710852 14.7385,14.710852 14.7385,14.264603 14.710849,14.264603 14.710849,14.054602 14.7385,14.054602 14.7385,13.608353 14.710849,13.608353 14.710849,13.398351 14.7385,13.398351 14.7385,12.952103 14.710849,12.952103 14.710849,12.742101 14.7385,12.742101 14.7385,12.295853 14.710849,12.295853 14.710849,12.085851 14.7385,12.085851 14.7385,11.639603 14.710849,11.639603 14.710849,11.429601 14.7385,11.429601 14.7385,10.983354 14.710849,10.983354 14.710849,10.773351 14.7385,10.773351 14.7385,10.327104 14.710849,10.327104 14.710849,10.117101 14.7385,10.117101 14.7385,9.670854 14.710849,9.670854 14.710849,9.460851 14.7385,9.460851 14.7385,9.014604 14.710849,9.014604 14.710849,8.804601 14.7385,8.804601 14.7385,8.358353 14.710849,8.358353 14.710849,8.14835 14.7385,8.14835 14.7385,7.702103 14.710849,7.702103 14.710849,7.492101 14.7385,7.492101 14.7385,7.045853 14.710849,7.045853 14.710849,6.835851 14.7385,6.835851 14.7385,6.389603 14.710849,6.389603 14.710849,6.179601 14.7385,6.179601 14.7385,5.733353 14.710849,5.733353 14.710849,5.523352 14.7385,5.523352 14.7385,5.077102 14.710849,5.077102 14.710849,4.867102 14.7385,4.867102 14.7385,4.420852 14.710849,4.420852 14.710849,4.393202 14.264602,4.393202 14.264602,4.420852 14.054599,4.420852 14.054599,4.393202 13.608352,4.393202 13.608352,4.420852 13.398349,4.420852 13.398349,4.393202 12.952102,4.393202 12.952102,4.420852 12.742099,4.420852 12.742099,4.393202 12.295852,4.393202 12.295852,4.420852 12.085849,4.420852 12.085849,4.393202 11.639602,4.393202 11.639602,4.420852 11.429599,4.420852 11.429599,4.393202 10.983352,4.393202 10.983352,4.420852 10.773349,4.420852 10.773349,4.393202 10.327102,4.393202 10.327102,4.420852 10.117099,4.420852 10.117099,4.393202 9.670852,4.393202 9.670852,4.420852 9.460849,4.420852 9.460849,4.393202 9.014602,4.393202 9.014602,4.420852 8.804599,4.420852 8.804599,4.393202 8.358351,4.393202 8.358351,4.420852 8.148349,4.420852 8.148349,4.393202 7.702101,4.393202 7.702101,4.420852 7.492099,4.420852 7.492099,4.393202 7.045851,4.393202 7.045851,4.420852 6.835849,4.420852 6.835849,4.393202 6.389601,4.393202 6.389601,4.420852 6.179599,4.420852 6.179599,4.393202 5.733351,4.393202 5.733351,4.420852 5.52335,4.420852 5.52335,4.393202 5.0771,4.393202 5.0771,4.420852 4.8671,4.420852 4.8671,4.393202" style="fill: black" /><polygon type="contour" points="5.401856,5.178918 5.48861,5.18239 5.488529,5.444192 5.488529,5.48853 5.392546,5.488612 5.182389,5.488612 5.181672,5.308257 5.176948,5.176949" style="fill: white" /><polygon type="contour" points="13.771708,7.168821 13.825615,7.168698 13.860022,7.168659 13.91806,7.16812 13.948276,7.16812 13.947809,7.356251 13.947756,7.454323 13.947733,7.457718 13.947764,7.46811 13.933101,7.468132 13.641692,7.465725 13.641751,7.452861 13.643013,7.161958 13.688106,7.16196 13.771401,7.161898" style="fill: white" /><polygon type="contour" points="11.963544,5.244573 11.96294,5.359933 11.969805,5.360298 11.969804,5.40302 11.969742,5.488688 11.678842,5.489952 11.665978,5.490011 11.66357,5.198598 11.663586,5.183933 11.673984,5.183967 11.677379,5.183943 11.776951,5.183784 11.963583,5.183425" style="fill: white" /><polygon type="contour" points="12.521027,5.359872 12.669056,5.36067 12.669062,5.388515 12.669062,5.490605 12.623574,5.490605 12.454064,5.49056 12.454098,5.448905 12.454098,5.359824" style="fill: white" /><polygon type="contour" points="13.204256,5.360081 13.204256,5.490368 13.093487,5.490368 12.908644,5.490605 12.908484,5.465256 12.908484,5.36067 13.101365,5.360073" style="fill: white" /><polygon type="contour" points="13.950029,5.308256 13.949333,5.489177 13.93177,5.489177 13.683337,5.488612 13.643089,5.488612 13.643089,5.392549 13.643013,5.294672 13.643013,5.182468 13.710636,5.181691 13.802267,5.180518 13.823444,5.181673 13.954752,5.17695" style="fill: white" /><polygon type="contour" points="13.771039,6.160533 13.77103,6.223219 13.743184,6.223058 13.641097,6.223058 13.641097,6.160532 13.641333,5.927445 13.771619,5.927445" style="fill: white" /><polygon type="contour" points="13.666445,6.462646 13.77103,6.462646 13.77183,6.610673 13.771878,6.677604 13.727344,6.677638 13.64114,6.677638 13.64114,6.60502 13.641097,6.462641" style="fill: white" /><polygon type="contour" points="13.204044,6.508128 13.204558,6.677638 12.971169,6.676989 12.908565,6.676955 12.908484,6.635639 12.908484,6.462646 12.971168,6.462641 13.204044,6.462641" style="fill: white" /><polygon type="contour" points="13.204256,6.038214 13.204044,6.223058 13.147056,6.223219 12.908484,6.223219 12.908644,6.160532 12.908644,5.927658 12.971168,5.927658 13.204256,5.927445" style="fill: white" /><polygon type="contour" points="12.669062,5.927658 12.669056,5.984645 12.669056,6.223219 12.627097,6.223138 12.454747,6.223138 12.454713,6.160532 12.454064,5.927142 12.526681,5.927142" style="fill: white" /><polygon type="contour" points="11.970005,6.031484 11.969804,6.223138 11.721418,6.223138 11.662092,6.223219 11.66343,5.954857 11.663629,5.927737 11.676925,5.927737 11.969997,5.927445" style="fill: white" /><polygon type="contour" points="11.969804,6.462618 11.969804,6.504605 11.969894,6.677604 11.68206,6.677449 11.66366,6.677449 11.662344,6.475418 11.662193,6.462547 11.69553,6.462547" style="fill: white" /><polygon type="contour" points="12.496061,6.462646 12.669056,6.462646 12.669084,6.504605 12.669084,6.676955 12.627097,6.676955 12.454098,6.677604 12.454098,6.609738 12.454747,6.462618" style="fill: white" /><polygon type="contour" points="12.669084,7.161898 12.669084,7.410282 12.669056,7.469609 12.477464,7.468258 12.454253,7.46804 12.454253,7.449639 12.454097,7.161809 12.521963,7.161809" style="fill: white" /><polygon type="contour" points="13.203964,7.454777 13.203964,7.468073 12.922506,7.468947 12.908891,7.46911 12.908891,7.439089 12.908565,7.161898 12.971169,7.161898 13.204256,7.161706" style="fill: white" /><polygon type="contour" points="13.944981,11.663696 13.947768,11.663589 13.947733,11.673985 13.947757,11.67738 13.947918,11.777382 13.948276,11.963584 13.89007,11.962976 13.859914,11.962976 13.829429,11.962941 13.771708,11.962883 13.771401,11.969806 13.728678,11.969806 13.643013,11.969744 13.641751,11.678843 13.641668,11.665999 13.940154,11.663536" style="fill: white" /><polygon type="contour" points="12.922506,11.662757 13.203964,11.663631 13.203964,11.676927 13.204256,11.969998 12.971169,11.969806 12.908565,11.969806 12.908891,11.692614 12.908891,11.662594" style="fill: white" /><polygon type="contour" points="12.669156,11.695533 12.669084,11.969806 12.627096,11.969806 12.454098,11.969894 12.454253,11.682061 12.454253,11.663661 12.656284,11.662345 12.669156,11.662195" style="fill: white" /><polygon type="contour" points="12.669056,13.666446 12.669056,13.771033 12.521027,13.771833 12.454098,13.771881 12.454064,13.727347 12.454064,13.641143 12.52668,13.641143 12.669062,13.641099" style="fill: white" /><polygon type="contour" points="13.204256,13.641335 13.204256,13.771621 12.971168,13.771041 12.954672,13.771033 12.908484,13.771033 12.908644,13.743187 12.908644,13.641099 12.971169,13.641099" style="fill: white" /><polygon type="contour" points="13.950029,13.823445 13.954752,13.954753 13.729842,13.952785 13.643089,13.949314 13.643089,13.643091 13.949312,13.643091" style="fill: white" /><polygon type="contour" points="13.771626,13.101367 13.771619,13.204259 13.641333,13.204259 13.641333,13.093491 13.641097,12.908646 13.666444,12.908485 13.77103,12.908485" style="fill: white" /><polygon type="contour" points="13.682795,12.4541 13.771878,12.4541 13.77183,12.521029 13.77103,12.669057 13.743183,12.669063 13.641097,12.669063 13.641097,12.623575 13.64114,12.454066" style="fill: white" /><polygon type="contour" points="13.204044,12.623575 13.204044,12.669063 13.147056,12.669058 12.908484,12.669058 12.908565,12.627098 12.908565,12.45475 12.971168,12.454715 13.204558,12.454066" style="fill: white" /><polygon type="contour" points="12.971168,12.908646 13.204044,12.908646 13.204044,12.971171 13.204256,13.204259 13.008977,13.20456 12.971168,13.204045 12.908644,13.204045 12.908484,13.147058 12.908484,12.908485" style="fill: white" /><polygon type="contour" points="12.669062,12.97117 12.669062,13.204045 12.623574,13.204045 12.454064,13.20456 12.454713,12.971171 12.454747,12.908566 12.496062,12.908485 12.669056,12.908485" style="fill: white" /><polygon type="contour" points="12.669084,12.45475 12.669056,12.496064 12.669056,12.669058 12.627096,12.669086 12.454747,12.669086 12.454747,12.627098 12.454098,12.4541 12.521963,12.4541" style="fill: white" /><polygon type="contour" points="11.969804,12.627098 11.969804,12.669086 11.721418,12.669086 11.662092,12.669058 11.663442,12.477465 11.66366,12.454255 11.68206,12.454255 11.969894,12.454099" style="fill: white" /><polygon type="contour" points="11.969804,12.971171 11.969997,13.204259 11.676925,13.203966 11.663629,13.203966 11.662755,12.922508 11.662592,12.908893 11.692611,12.908893 11.969804,12.908566" style="fill: white" /><polygon type="contour" points="11.678842,13.641753 11.969742,13.643015 11.969741,13.688107 11.969784,13.773123 11.962919,13.767769 11.963544,13.887131 11.963583,13.948278 11.775666,13.947661 11.677378,13.947759 11.673983,13.947735 11.663591,13.947766 11.66357,13.933103 11.665979,13.641693" style="fill: white" /><polygon type="contour" points="7.468166,13.940156 7.468006,13.944988 7.468114,13.94777 7.457716,13.947735 7.454322,13.947759 7.354748,13.94792 7.168118,13.948278 7.168157,13.88713 7.16876,13.771771 7.161896,13.771404 7.161896,13.728681 7.161956,13.643015 7.452857,13.641753 7.465702,13.641669" style="fill: white" /><polygon type="contour" points="7.439089,12.908893 7.469108,12.908893 7.468945,12.922508 7.468071,13.203966 7.454775,13.203966 7.161704,13.204259 7.161696,13.100219 7.161896,12.908566" style="fill: white" /><polygon type="contour" points="7.449637,12.454255 7.468039,12.454255 7.469357,12.656285 7.469507,12.669158 7.436169,12.669158 7.161896,12.669086 7.161896,12.627098 7.161807,12.4541" style="fill: white" /><polygon type="contour" points="6.677602,12.521966 6.676954,12.669086 6.635638,12.669058 6.462644,12.669058 6.462616,12.627097 6.462616,12.45475 6.504604,12.45475 6.677602,12.4541" style="fill: white" /><polygon type="contour" points="6.16053,12.454715 6.223136,12.45475 6.223217,12.496064 6.223217,12.669058 6.160531,12.669063 5.927656,12.669063 5.927656,12.623576 5.92714,12.454066" style="fill: white" /><polygon type="contour" points="6.223056,12.971171 6.223056,13.204045 6.160531,13.204045 5.927444,13.204259 5.927444,13.09349 5.927656,12.908646 5.984643,12.908485 6.223217,12.908485" style="fill: white" /><polygon type="contour" points="6.504603,12.908566 6.676954,12.908566 6.676988,12.97117 6.677636,13.20456 6.605019,13.20456 6.462639,13.204045 6.462644,13.147057 6.462644,12.908485" style="fill: white" /><polygon type="contour" points="6.677636,13.641143 6.677602,13.682798 6.677602,13.771881 6.610671,13.771833 6.462644,13.771033 6.462639,13.743186 6.462639,13.641099 6.508125,13.641099" style="fill: white" /><polygon type="contour" points="6.223217,13.666446 6.223217,13.771033 6.16053,13.771042 5.927444,13.771621 5.927444,13.641335 6.038211,13.641335 6.223056,13.641099" style="fill: white" /><polygon type="contour" points="5.448361,13.643091 5.48861,13.643091 5.48861,13.949314 5.329431,13.951185 5.308255,13.95003 5.176949,13.954753 5.181671,13.823446 5.182365,13.642525 5.199926,13.642525" style="fill: white" /><polygon type="contour" points="5.388513,12.908646 5.490603,12.908646 5.490603,12.97117 5.490365,13.204259 5.360079,13.204259 5.360659,12.971171 5.360669,12.908485" style="fill: white" /><polygon type="contour" points="5.490559,12.526681 5.490603,12.669063 5.465255,12.669058 5.360668,12.669058 5.35987,12.521029 5.359822,12.4541 5.404354,12.454066 5.490559,12.454066" style="fill: white" /><polygon type="contour" points="5.490034,11.665999 5.48995,11.678843 5.488686,11.969744 5.443593,11.969743 5.360297,11.969806 5.359992,11.962882 5.306084,11.963005 5.271676,11.963045 5.213639,11.963584 5.183424,11.963584 5.183891,11.775451 5.18394,11.677381 5.183965,11.673985 5.183934,11.663594 5.18671,11.663696 5.191542,11.663536" style="fill: white" /><polygon type="contour" points="6.22281,11.692613 6.223136,11.969806 6.16053,11.969806 5.927444,11.969998 5.927736,11.676927 5.927736,11.663631 6.209194,11.662756 6.22281,11.662593" style="fill: white" /><polygon type="contour" points="6.475415,11.662345 6.677447,11.663661 6.677447,11.682061 6.677602,11.969894 6.609735,11.969894 6.462616,11.969806 6.462545,11.695532 6.462545,11.662194" style="fill: white" /><polygon type="contour" points="6.676954,6.504605 6.677602,6.677604 6.609736,6.677604 6.462616,6.676954 6.462644,6.63564 6.462644,6.462646 6.504604,6.462618 6.676954,6.462618" style="fill: white" /><polygon type="contour" points="6.676988,6.160533 6.676954,6.223138 6.635638,6.223219 6.462644,6.223219 6.462639,6.160532 6.462639,5.927658 6.508125,5.927658 6.677636,5.927142" style="fill: white" /><polygon type="contour" points="6.160531,5.927658 6.223056,5.927658 6.223217,5.984645 6.223217,6.223219 6.16053,6.223058 5.927656,6.223058 5.927656,6.160532 5.927444,5.927445 6.122722,5.927142" style="fill: white" /><polygon type="contour" points="5.984643,6.462646 6.223217,6.462646 6.223136,6.504605 6.223136,6.676955 6.16053,6.676989 5.92714,6.677638 5.927656,6.508127 5.927656,6.462641" style="fill: white" /><polygon type="contour" points="5.490366,6.038214 5.490603,6.223058 5.465256,6.223219 5.360669,6.223219 5.360659,6.160532 5.360079,5.927445 5.490366,5.927445" style="fill: white" /><polygon type="contour" points="5.490603,6.508127 5.490559,6.677638 5.448904,6.677604 5.359822,6.677604 5.35987,6.610673 5.360668,6.462646 5.388514,6.462641 5.490603,6.462641" style="fill: white" /><polygon type="contour" points="5.488685,7.161958 5.48995,7.452861 5.490009,7.465725 5.198596,7.468132 5.18393,7.468116 5.183964,7.457717 5.183941,7.454323 5.183781,7.354321 5.183424,7.16812 5.241628,7.168728 5.271785,7.168728 5.30227,7.168762 5.359991,7.16882 5.360296,7.161898 5.403018,7.161898" style="fill: white" /><polygon type="contour" points="6.16053,7.161898 6.223136,7.161898 6.223136,7.410282 6.223217,7.469609 5.954856,7.468271 5.927736,7.468072 5.927736,7.454777 5.927444,7.161706" style="fill: white" /><polygon type="contour" points="6.677447,7.449639 6.677447,7.468041 6.475416,7.469358 6.462545,7.469509 6.462545,7.436171 6.462616,7.161898 6.504603,7.161898 6.677602,7.161809" style="fill: white" /><polygon type="contour" points="7.710849,7.115502 8.154183,7.115502 8.154183,7.080852 8.364186,7.080852 8.364186,7.115502 8.807515,7.115502 8.807515,7.080852 9.017514,7.080852 9.017514,7.115502 9.460849,7.115502 9.460849,7.080852 9.670852,7.080852 9.670852,7.115502 10.114186,7.115502 10.114186,7.080852 10.324185,7.080852 10.324185,7.115502 10.767514,7.115502 10.767514,7.080852 10.977517,7.080852 10.977517,7.115502 11.420852,7.115502 11.420852,7.080852 11.630851,7.080852 11.630851,7.115502 11.645202,7.115502 11.645202,7.161648 11.772184,7.161919 11.969784,7.161919 11.97001,7.322401 11.969758,7.486501 12.0162,7.486501 12.0162,7.500851 12.050849,7.500851 12.050849,7.71085 12.0162,7.71085 12.0162,8.154185 12.050849,8.154185 12.050849,8.364188 12.0162,8.364188 12.0162,8.807517 12.050849,8.807517 12.050849,9.017516 12.0162,9.017516 12.0162,9.460851 12.050849,9.460851 12.050849,9.670854 12.0162,9.670854 12.0162,10.114188 12.050849,10.114188 12.050849,10.324187 12.0162,10.324187 12.0162,10.767516 12.050849,10.767516 12.050849,10.977519 12.0162,10.977519 12.0162,11.420854 12.050849,11.420854 12.050849,11.630853 12.0162,11.630853 12.0162,11.645203 11.970053,11.645203 11.969784,11.772187 11.969784,11.969785 11.809299,11.970012 11.645202,11.969759 11.645202,12.016202 11.630851,12.016202 11.630851,12.050852 11.420852,12.050852 11.420852,12.016202 10.977517,12.016202 10.977517,12.050852 10.767514,12.050852 10.767514,12.016202 10.324185,12.016202 10.324185,12.050852 10.114186,12.050852 10.114186,12.016202 9.670852,12.016202 9.670852,12.050852 9.460849,12.050852 9.460849,12.016202 9.017514,12.016202 9.017514,12.050852 8.807515,12.050852 8.807515,12.016202 8.364186,12.016202 8.364186,12.050852 8.154183,12.050852 8.154183,12.016202 7.710849,12.016202 7.710849,12.050852 7.500849,12.050852 7.500849,12.016202 7.486499,12.016202 7.486499,11.970055 7.359514,11.969785 7.161916,11.969785 7.16169,11.809302 7.161941,11.645203 7.1155,11.645203 7.1155,11.630853 7.080851,11.630853 7.080851,11.420854 7.1155,11.420854 7.1155,10.977519 7.080851,10.977519 7.080851,10.767516 7.1155,10.767516 7.1155,10.324187 7.080851,10.324187 7.080851,10.114188 7.1155,10.114188 7.1155,9.670854 7.080851,9.670854 7.080851,9.460851 7.1155,9.460851 7.1155,9.017516 7.080851,9.017516 7.080851,8.807517 7.1155,8.807517 7.1155,8.364188 7.080851,8.364188 7.080851,8.154185 7.1155,8.154185 7.1155,7.71085 7.080851,7.71085 7.080851,7.500851 7.1155,7.500851 7.1155,7.486501 7.161646,7.486501 7.161916,7.359517 7.161916,7.161919 7.322398,7.161692 7.486499,7.161943 7.486499,7.115502 7.500849,7.115502 7.500849,7.080852 7.710849,7.080852" style="fill: white" /><polygon type="hole" points="8.130107,7.313118 7.468221,7.313118 7.470644,7.460984 7.47035,7.470353 7.460981,7.470647 7.313116,7.4683 7.313116,11.66348 7.46098,11.661057 7.47035,11.661352 7.470644,11.67072 7.468298,11.818584 11.663479,11.818584 11.661056,11.670721 11.661351,11.661352 11.67072,11.661057 11.818582,11.663402 11.818582,7.468223 11.670719,7.470647 11.661351,7.470353 11.661056,7.460983 11.6634,7.313116" style="fill: black" /><polygon type="contour" points="7.469357,6.475417 7.468038,6.67745 7.449638,6.67745 7.161807,6.677604 7.161896,6.504605 7.161896,6.462618 7.43617,6.462547 7.469507,6.462547" style="fill: white" /><polygon type="contour" points="7.454775,5.927737 7.468071,5.927737 7.468945,6.209196 7.469108,6.222812 7.439088,6.222812 7.161896,6.223138 7.161896,6.160532 7.161704,5.927445" style="fill: white" /><polygon type="contour" points="7.356034,5.184044 7.454321,5.183942 7.457715,5.183967 7.468108,5.183936 7.468006,5.186705 7.468166,5.191544 7.465702,5.490036 7.452857,5.489951 7.161956,5.488688 7.161957,5.443595 7.16197,5.358431 7.168748,5.357738 7.168157,5.244574 7.168118,5.183425" style="fill: white" /><polygon type="contour" points="6.677636,5.404356 6.677636,5.49056 6.60502,5.49056 6.462639,5.490605 6.462644,5.465256 6.462644,5.36067 6.610671,5.359872 6.677602,5.359824" style="fill: white" /><polygon type="contour" points="6.16053,5.360661 6.177027,5.36067 6.223217,5.36067 6.223056,5.388515 6.223056,5.490605 6.160531,5.490605 5.927444,5.490368 5.927444,5.36008" style="fill: white" />
</svg>
