<svg width="19.131698" height="19.131699">
<polygon type="contour" points="10.48372,10.952108 10.614338,10.952108 10.6144,11.035102 10.6143,11.081791 10.499669,11.08162 10.319555,11.08162 10.319741,11.001939 10.319897,10.951932" style="fill: white" /><polygon type="contour" points="10.617927,11.403774 10.617927,11.590927 10.617878,11.693531 10.617878,11.697174 10.344858,11.696889 10.322588,11.696935 10.322624,11.690948 10.322588,11.684771 10.322469,11.669958 10.323104,11.403776 10.522879,11.403589" style="fill: white" /><polygon type="contour" points="11.081722,11.401865 11.081722,11.526575 11.045637,11.526633 11.011954,11.526933 10.972774,11.526739 10.954678,11.526733 10.951961,11.526734 10.95195,11.522766 10.95195,11.402065 10.954885,11.402065 10.972773,11.401983 11.045637,11.401802" style="fill: white" /><polygon type="contour" points="11.698036,11.548853 11.703922,11.703923 11.633172,11.703368 11.56813,11.698431 11.40533,11.698013 11.404888,11.657186 11.404888,11.61644 11.4047,11.614327 11.40446,11.52884 11.40446,11.404462 11.697538,11.404462" style="fill: white" /><polygon type="contour" points="11.696721,10.603726 11.696693,10.617537 11.688372,10.617537 11.529198,10.617802 11.403525,10.618099 11.403525,10.605971 11.403818,10.448775 11.404116,10.323318 11.572553,10.322916 11.697295,10.322665" style="fill: white" /><polygon type="contour" points="11.40591,10.951963 11.526732,10.951963 11.526737,10.972776 11.526932,11.011956 11.52663,11.045639 11.526576,11.076339 11.526572,11.081723 11.401863,11.081723 11.401863,11.075922 11.4018,11.045638 11.401981,10.972775 11.402062,10.951952" style="fill: white" /><polygon type="contour" points="11.082,10.954887 11.081973,10.972775 11.081763,11.045638 11.081722,11.081723 11.075921,11.081723 11.045636,11.081764 10.972774,11.081974 10.95195,11.082001 10.95199,11.057778 10.95199,10.972775 10.951961,10.951963 10.954805,10.951963 10.972774,10.951992 11.057777,10.951992 11.082,10.951952" style="fill: white" /><polygon type="contour" points="11.081827,10.467969 11.081827,10.614479 11.081921,10.614779 11.012971,10.614578 10.951927,10.614493 10.951955,10.468983 10.951955,10.319722 11.027769,10.319778 11.081672,10.319678" style="fill: white" /><polygon type="contour" points="10.616548,10.330525 10.616101,10.616103 10.601178,10.616103 10.321817,10.616464 10.321868,10.330524 10.321876,10.321878 10.608346,10.321878 10.616548,10.32187" style="fill: white" /><polygon type="contour" points="11.703846,7.496448 11.698036,7.582849 11.697538,7.727242 11.40446,7.727242 11.40446,7.602865 11.4047,7.517376 11.404888,7.474517 11.405294,7.471309 11.40533,7.433692 11.56813,7.433274 11.703922,7.427781" style="fill: white" /><polygon type="contour" points="10.617878,7.43453 10.617878,7.438172 10.617837,7.442969 10.617837,7.727783 10.511273,7.727674 10.323262,7.727638 10.323036,7.633008 10.322588,7.434767 10.61184,7.434516" style="fill: white" /><polygon type="contour" points="11.045637,7.605069 11.076337,7.605121 11.081722,7.605126 11.081722,7.729839 11.075921,7.729839 11.045636,7.729901 10.972773,7.72972 10.95195,7.72964 10.951961,7.725791 10.951961,7.604969 10.972774,7.604965 11.011955,7.60477" style="fill: white" /><polygon type="contour" points="11.081827,8.517225 11.081672,8.705706 11.081672,8.811775 11.027768,8.811927 10.951955,8.811982 10.951927,8.707003 10.951927,8.51721 11.012971,8.517126" style="fill: white" /><polygon type="contour" points="10.616101,8.515601 10.616374,8.79836 10.616374,8.810001 10.330522,8.809834 10.321876,8.809827 10.321447,8.529092 10.321436,8.514937 10.336359,8.514937" style="fill: white" /><polygon type="contour" points="10.6144,8.096601 10.614338,8.179596 10.536554,8.179772 10.319897,8.179772 10.319741,8.129764 10.319555,8.050084 10.525422,8.049913 10.6143,8.049913 10.6144,8.049877" style="fill: white" /><polygon type="contour" points="10.972773,8.049728 11.045636,8.049939 11.081722,8.049981 11.082,8.155484 11.081973,8.158927 11.082,8.179752 11.057778,8.179711 10.972773,8.179711 10.951961,8.179741 10.951961,8.176896 10.95199,8.158927 10.95199,8.073924 10.95195,8.049702 10.954885,8.049702" style="fill: white" /><polygon type="contour" points="11.52663,8.086065 11.526932,8.119747 11.526737,8.158927 11.526731,8.177023 11.526732,8.179741 11.522764,8.179752 11.402062,8.179752 11.402062,8.176816 11.401981,8.158927 11.4018,8.086066 11.401863,8.049981 11.526572,8.049981" style="fill: white" /><polygon type="contour" points="11.529198,8.513901 11.696693,8.514167 11.697276,8.80077 11.697295,8.80904 11.572554,8.808789 11.404196,8.808363 11.403899,8.682002 11.4035,8.513602" style="fill: white" /><polygon type="contour" points="11.408135,9.461562 11.526899,9.461562 11.52675,9.528133 11.526748,9.566201 11.52675,9.603881 11.526899,9.663364 11.526898,9.670142 11.408135,9.670142 11.402191,9.670157 11.402191,9.662835 11.40184,9.603882 11.40184,9.528134 11.402191,9.461547" style="fill: white" /><polygon type="contour" points="11.082022,9.468867 11.081962,9.528134 11.081962,9.603882 11.082022,9.670157 11.07691,9.670142 11.047827,9.670005 10.972773,9.669893 10.951961,9.669948 10.951961,9.665447 10.95195,9.620275 10.95195,9.511663 10.951961,9.461757 10.954765,9.461752 10.972774,9.461812 11.047827,9.461699 11.082022,9.461547" style="fill: white" /><polygon type="contour" points="10.614766,9.670205 10.428571,9.66989 10.319878,9.66989 10.319878,9.461815 10.428571,9.461815 10.614766,9.461499" style="fill: white" /><polygon type="contour" points="7.729509,9.468867 7.729861,9.528134 7.729861,9.603881 7.729509,9.670157 7.723564,9.670142 7.604801,9.670142 7.604948,9.603881 7.604948,9.528134 7.6048,9.468339 7.604801,9.461562 7.723564,9.461562 7.729509,9.461547" style="fill: white" /><polygon type="contour" points="8.055508,9.455946 8.086063,9.457749 8.158926,9.461812 8.179739,9.461757 8.179739,9.466256 8.17975,9.511663 8.17975,9.620274 8.179739,9.669948 8.176935,9.669952 8.158926,9.669893 8.086062,9.673956 8.049978,9.675759 8.04991,9.603982 8.04991,9.528048 8.049978,9.455945" style="fill: white" /><polygon type="contour" points="8.703128,9.461815 8.811823,9.461815 8.811823,9.66989 8.665488,9.670205 8.516934,9.670205 8.516934,9.461499" style="fill: white" /><polygon type="contour" points="8.809832,8.801179 8.809825,8.809827 8.523353,8.809827 8.515152,8.809835 8.515152,8.801178 8.515599,8.515601 8.530522,8.515601 8.809884,8.515238" style="fill: white" /><polygon type="contour" points="7.498527,7.428336 7.563569,7.433273 7.726367,7.433691 7.72681,7.474517 7.72681,7.515263 7.726998,7.517376 7.72724,7.602863 7.72724,7.727242 7.434161,7.727242 7.433663,7.582849 7.427779,7.427781" style="fill: white" /><polygon type="contour" points="8.158925,7.604965 8.177021,7.604971 8.179739,7.604969 8.17975,7.608938 8.17975,7.72964 8.176814,7.72964 8.158926,7.729719 8.086063,7.729901 8.049978,7.729839 8.049978,7.605126 8.086063,7.605068 8.119745,7.60477" style="fill: white" /><polygon type="contour" points="7.729837,8.055781 7.729899,8.086065 7.729719,8.158927 7.729639,8.179752 7.72579,8.179741 7.604967,8.179741 7.604963,8.158927 7.604768,8.119747 7.605067,8.086065 7.60512,8.055365 7.605125,8.049981 7.729837,8.049981" style="fill: white" /><polygon type="contour" points="7.728175,8.525732 7.727882,8.682928 7.727583,8.808387 7.559146,8.808788 7.434406,8.80904 7.434977,8.527978 7.435008,8.514167 7.443329,8.514167 7.6025,8.513902 7.728175,8.513605" style="fill: white" /><polygon type="contour" points="8.118728,8.517126 8.179774,8.51721 8.179745,8.66272 8.179745,8.811983 8.103928,8.811927 8.050026,8.812027 8.049871,8.663734 8.049871,8.517225 8.049776,8.516925" style="fill: white" /><polygon type="contour" points="8.179709,8.073924 8.179709,8.158928 8.179739,8.179741 8.176894,8.179741 8.158925,8.179711 8.073921,8.179711 8.049699,8.179752 8.049699,8.176816 8.049725,8.158928 8.049937,8.086065 8.049978,8.049981 8.055779,8.049981 8.086063,8.049939 8.158925,8.049729 8.17975,8.049702" style="fill: white" /><polygon type="contour" points="8.63203,8.050084 8.811718,8.050084 8.811959,8.129764 8.811804,8.179772 8.647979,8.179596 8.517362,8.179596 8.5173,8.096601 8.5174,8.049913" style="fill: white" /><polygon type="contour" points="8.786841,7.434814 8.809113,7.434768 8.809077,7.440754 8.809113,7.446932 8.809231,7.461745 8.808597,7.727926 8.60882,7.728115 8.513773,7.727928 8.513773,7.540776 8.513822,7.438172 8.513822,7.43453" style="fill: white" /><polygon type="contour" points="9.670141,7.604803 9.670141,7.723566 9.670156,7.729511 9.662835,7.729511 9.603568,7.729863 9.52782,7.729863 9.461545,7.729511 9.46156,7.723566 9.46156,7.604803 9.468338,7.604802 9.52782,7.60495 9.603568,7.60495 9.663363,7.604802" style="fill: white" /><polygon type="contour" points="9.675757,8.049981 9.669959,8.155484 9.669891,8.158928 9.669946,8.179741 9.665446,8.179741 9.620039,8.179752 9.511428,8.179752 9.461755,8.17974 9.46175,8.176938 9.46181,8.158928 9.457746,8.086065 9.455944,8.049981 9.463862,8.049981 9.52772,8.049913 9.603654,8.049913" style="fill: white" /><polygon type="contour" points="9.669888,8.70313 9.669888,8.811825 9.461813,8.811825 9.461813,8.70313 9.461497,8.516936 9.670204,8.516936" style="fill: white" /><polygon type="contour" points="9.669929,9.528134 9.669929,9.603882 9.670141,9.670142 9.603569,9.669931 9.52782,9.669931 9.46156,9.670142 9.461772,9.603882 9.461772,9.528134 9.46156,9.461562 9.52782,9.461773 9.603569,9.461773 9.670141,9.461562" style="fill: white" /><polygon type="contour" points="9.669888,10.428573 9.670204,10.614768 9.461497,10.614768 9.461813,10.428573 9.461813,10.31988 9.669888,10.31988" style="fill: white" /><polygon type="contour" points="9.669945,10.951963 9.669949,10.954767 9.669891,10.972775 9.670003,11.047829 9.670156,11.082025 9.603569,11.081965 9.52782,11.081965 9.461545,11.082025 9.461741,10.976219 9.46181,10.972776 9.461755,10.951963 9.466255,10.951963 9.511427,10.951952 9.620039,10.951952" style="fill: white" /><polygon type="contour" points="9.670156,11.402193 9.670141,11.408137 9.670141,11.526901 9.663363,11.526901 9.603568,11.526752 9.565501,11.526751 9.52782,11.526753 9.468338,11.526901 9.46156,11.526901 9.46156,11.408137 9.461545,11.402193 9.468866,11.402193 9.52782,11.401842 9.603568,11.401842" style="fill: white" /><polygon type="contour" points="8.620427,11.404028 8.808438,11.404063 8.808665,11.498694 8.809113,11.696935 8.519859,11.697188 8.513822,11.697174 8.513822,11.693531 8.513863,11.688734 8.513863,11.403918" style="fill: white" /><polygon type="contour" points="8.811959,11.001938 8.812145,11.081619 8.606277,11.081791 8.517399,11.081791 8.5173,11.081827 8.5173,11.035102 8.517362,10.952108 8.595145,10.951932 8.811804,10.951932" style="fill: white" /><polygon type="contour" points="8.801177,10.32187 8.809825,10.321878 8.810252,10.602611 8.810265,10.616767 8.795341,10.616767 8.515599,10.616103 8.515325,10.333343 8.515325,10.321704" style="fill: white" /><polygon type="contour" points="8.103928,10.319778 8.179745,10.319722 8.179774,10.4247 8.179774,10.614494 8.118727,10.614578 8.049871,10.614479 8.050026,10.425997 8.050026,10.319678" style="fill: white" /><polygon type="contour" points="7.559146,10.322916 7.727502,10.323342 7.727798,10.449701 7.728199,10.618102 7.6025,10.617801 7.435008,10.617537 7.434423,10.330934 7.434406,10.322665" style="fill: white" /><polygon type="contour" points="7.729639,10.954887 7.729718,10.972775 7.729898,11.045639 7.729837,11.081723 7.605125,11.081723 7.605067,11.045638 7.604768,11.011957 7.604963,10.972776 7.604969,10.95468 7.604967,10.951963 7.608936,10.951952 7.729639,10.951952" style="fill: white" /><polygon type="contour" points="8.073921,10.951992 8.158926,10.951992 8.179739,10.951963 8.179739,10.954807 8.179709,10.972776 8.179709,11.057779 8.17975,11.082001 8.176815,11.082001 8.158925,11.081974 8.086063,11.081764 8.049978,11.081723 8.049699,10.976219 8.049726,10.972776 8.049699,10.951952" style="fill: white" /><polygon type="contour" points="8.158926,11.401983 8.17975,11.402065 8.179739,11.405913 8.179739,11.526734 8.158925,11.526739 8.119746,11.526933 8.086062,11.526633 8.055362,11.526579 8.049978,11.526575 8.049978,11.401865 8.055779,11.401865 8.086062,11.401802" style="fill: white" /><polygon type="contour" points="7.72724,11.52884 7.726998,11.614327 7.72681,11.657187 7.726404,11.660394 7.726368,11.698013 7.563569,11.698431 7.427779,11.703923 7.427854,11.635256 7.433662,11.548853 7.434161,11.404462 7.72724,11.404462" style="fill: white" />
</svg>
