<svg width="19.131698" height="19.131699">
<polygon type="contour" points="8.628653,9.089044 8.627655,9.252824 8.600308,9.252783 8.529878,9.252697 8.522249,9.252669 8.522245,9.249298 8.522245,8.960058 8.523438,8.960061 8.529879,8.960045 8.589422,8.959824 8.624909,8.959686 8.62944,8.959674" style="fill: white" /><polygon type="contour" points="11.212265,10.938342 11.219025,11.219026 11.069559,11.213817 10.940031,11.214859 10.938308,11.167326 10.938308,11.121374 10.938379,11.118984 10.938051,11.085983 10.938097,11.045214 10.938097,10.938099 11.210613,10.937827 11.212235,10.937827" style="fill: white" /><polygon type="contour" points="11.04367,10.506714 11.043406,10.55544 11.043155,10.601823 11.043171,10.608322 11.043176,10.609457 10.937071,10.609369 10.936434,10.609369 10.936434,10.608747 10.93642,10.605344 10.936516,10.546987 10.936589,10.506714 10.936567,10.504042 11.043678,10.504042" style="fill: white" /><polygon type="contour" points="9.61673,10.531394 9.616834,10.601822 9.616852,10.609453 9.615714,10.609457 9.6097,10.609454 9.521951,10.609454 9.514848,10.609452 9.514848,10.60821 9.514866,10.601822 9.51497,10.531394 9.515099,10.504003 9.616602,10.504003" style="fill: white" /><polygon type="contour" points="9.252815,10.504044 9.252811,10.506714 9.252821,10.537568 9.252836,10.603883 9.252822,10.609758 9.250271,10.609761 8.960055,10.609457 8.960058,10.608263 8.960042,10.601823 8.959794,10.555439 8.960212,10.506715 8.960217,10.504467 8.960217,10.504042 9.251638,10.504042" style="fill: white" /><polygon type="contour" points="9.252279,10.938478 9.252012,11.044867 9.251969,11.128981 9.252143,11.172705 9.251799,11.175902 9.251093,11.214362 9.07293,11.214396 8.959062,11.212567 8.959062,11.132642 8.959056,10.99071 8.959056,10.938096 9.250553,10.937827 9.252279,10.937822" style="fill: white" /><polygon type="contour" points="9.616413,10.937089 9.616397,11.043094 9.610091,11.043077 9.565501,11.043208 9.521566,11.043078 9.515304,11.043095 9.515304,10.936667 9.521565,10.936678 9.612654,10.936445 9.616413,10.936432" style="fill: white" /><polygon type="contour" points="9.881142,10.937827 10.172721,10.937827 10.172721,10.939583 10.172637,11.132642 10.172637,11.212566 10.058769,11.214396 9.880606,11.214362 9.879556,11.172704 9.879556,11.132622 9.879729,11.128981 9.879686,11.044867 9.87942,10.938478 9.87942,10.937822" style="fill: white" /><polygon type="contour" points="10.506712,10.93659 10.531391,10.93662 10.601821,10.936709 10.609455,10.936754 10.609455,11.043178 10.601821,11.043158 10.555438,11.043408 10.506712,11.043672 10.50404,11.04368 10.50404,10.936568" style="fill: white" /><polygon type="contour" points="10.506712,10.504045 10.531392,10.504148 10.609665,10.504148 10.609665,10.531393 10.60944,10.601823 10.609455,10.609457 10.531392,10.609667 10.504146,10.609667 10.504146,10.531394 10.504043,10.506714 10.50404,10.504466 10.50404,10.504042" style="fill: white" /><polygon type="contour" points="10.171488,10.506714 10.171907,10.555439 10.171654,10.601823 10.171639,10.608263 10.171641,10.609451 10.168192,10.609453 9.879034,10.609453 9.879034,10.60821 9.879006,10.601823 9.878917,10.531393 9.878887,10.506714 9.878884,10.50447 9.878884,10.504044 9.88006,10.504042 10.171483,10.504042" style="fill: white" /><polygon type="contour" points="10.172178,9.882077 10.172482,10.04336 10.172723,10.172725 10.043357,10.172484 9.879573,10.172182 9.879573,10.169574 9.879686,9.879689 10.024372,9.879689 10.169571,9.879574 10.172179,9.879574" style="fill: white" /><polygon type="contour" points="10.602841,9.515296 10.609603,9.515305 10.609607,9.516304 10.609595,9.521611 10.609452,9.609751 10.609451,9.616855 10.531391,9.616732 10.504001,9.616604 10.504001,9.5151 10.53417,9.5151" style="fill: white" /><polygon type="contour" points="10.609756,9.878881 10.609759,9.881431 10.609455,10.171643 10.608261,10.17164 10.601821,10.171656 10.531391,10.171521 10.506713,10.171491 10.50404,10.171486 10.504045,10.078684 10.504045,9.878879 10.537567,9.878879 10.60388,9.878867" style="fill: white" /><polygon type="contour" points="11.127938,9.879689 11.21251,9.879689 11.212216,10.170711 11.212215,10.172725 11.211075,10.172725 11.064221,10.172724 10.938448,10.172721 10.937824,10.172723 10.937819,10.170957 10.937819,9.879421 10.938475,9.879421" style="fill: white" /><polygon type="contour" points="11.043093,9.515305 11.043075,9.521611 11.043205,9.566202 11.043075,9.610136 11.043093,9.616399 10.937087,9.616414 10.93643,9.616414 10.936434,9.615831 10.936444,9.612682 10.936444,9.519049 10.93643,9.51529 10.937087,9.51529" style="fill: white" /><polygon type="contour" points="11.212293,9.088343 11.212394,9.252128 10.937972,9.252128 10.93821,8.959353 10.93821,8.959291 10.938231,8.959291 10.946196,8.959281 11.212215,8.958979" style="fill: white" /><polygon type="contour" points="11.043156,8.529881 11.043406,8.576264 11.04367,8.624988 11.043678,8.627662 10.936584,8.627662 10.936589,8.624988 10.936619,8.60031 10.936707,8.52988 10.936752,8.522247 11.043176,8.522247" style="fill: white" /><polygon type="contour" points="11.213225,8.080641 11.212512,8.193604 10.938097,8.193604 10.938097,8.086489 10.938051,8.04572 10.938379,8.01272 10.938308,7.964378 10.93879,7.961105 10.940031,7.916845 11.069559,7.917887 11.219025,7.912678" style="fill: white" /><polygon type="contour" points="10.172637,7.919137 10.172637,7.999061 10.172643,8.140992 10.172643,8.193606 9.881145,8.193877 9.87942,8.193878 9.87942,8.193225 9.879686,8.08649 9.879729,8.002372 9.879556,7.958999 9.8799,7.9558 9.880606,7.917342 10.058769,7.917308" style="fill: white" /><polygon type="contour" points="10.506712,8.088031 10.555438,8.088295 10.601821,8.088546 10.60832,8.08853 10.609455,8.088526 10.609368,8.19463 10.609368,8.195268 10.608746,8.195268 10.605343,8.195282 10.546987,8.195187 10.506712,8.195114 10.50404,8.195119 10.50404,8.088024" style="fill: white" /><polygon type="contour" points="10.171642,8.522247 10.171639,8.52344 10.171655,8.52988 10.171907,8.576265 10.171487,8.624988 10.171483,8.627236 10.171483,8.627662 9.88006,8.627662 9.878884,8.62766 9.878888,8.624989 9.878878,8.594134 9.878864,8.527821 9.878879,8.521945 9.881429,8.521942" style="fill: white" /><polygon type="contour" points="10.601821,8.522261 10.609455,8.522247 10.609665,8.600309 10.609665,8.627556 10.531392,8.627556 10.50404,8.627662 10.504043,8.624989 10.504146,8.600309 10.504146,8.522037 10.531391,8.522037" style="fill: white" /><polygon type="contour" points="10.50679,8.959686 10.542277,8.959824 10.60182,8.960045 10.609455,8.960058 10.609451,8.963507 10.609756,9.252824 10.608816,9.252824 10.60388,9.252838 10.537566,9.252824 10.504045,9.252824 10.503046,9.089044 10.50226,8.959674" style="fill: white" /><polygon type="contour" points="10.17242,9.243352 10.172411,9.25189 10.172348,9.25189 9.879686,9.252014 9.879686,9.1056 9.879573,8.96213 9.879573,8.959522 9.882075,8.959523 10.043357,8.959219 10.172723,8.958979" style="fill: white" /><polygon type="contour" points="10.171563,9.515305 10.171561,9.516291 10.171574,9.52161 10.171574,9.610136 10.171563,9.616399 10.168534,9.616399 9.878879,9.616636 9.878879,9.615751 9.878861,9.611191 9.878861,9.520551 9.878879,9.515068 9.881488,9.515068" style="fill: white" /><polygon type="contour" points="9.616397,9.515305 9.616397,9.516331 9.616421,9.52161 9.616421,9.610136 9.616397,9.616399 9.61537,9.616399 9.610091,9.616423 9.521566,9.616423 9.515304,9.616399 9.515304,9.615372 9.51528,9.610136 9.51528,9.52161 9.515304,9.515305 9.521565,9.515281 9.61009,9.515281" style="fill: white" /><polygon type="contour" points="9.616397,9.878959 9.616397,10.171564 9.61541,10.171562 9.61009,10.171576 9.521566,10.171576 9.515304,10.171564 9.515304,9.878959 9.521565,9.878933 9.61009,9.878933" style="fill: white" /><polygon type="contour" points="9.252013,9.879688 9.252013,10.026104 9.252126,10.169573 9.252126,10.172182 9.249623,10.172181 9.088341,10.172484 8.958977,10.172725 8.959218,10.043359 8.959521,9.879574 8.962129,9.879574" style="fill: white" /><polygon type="contour" points="9.25277,9.521611 9.25277,9.610136 9.252744,9.616399 8.960134,9.616399 8.960136,9.615412 8.960123,9.610136 8.960123,9.52161 8.960134,9.515305 9.252743,9.515305" style="fill: white" /><polygon type="contour" points="9.24335,8.959281 9.251888,8.959291 9.251888,8.959352 9.252013,9.252014 9.107327,9.252014 8.959351,9.25189 8.959289,9.25189 8.958977,8.958979" style="fill: white" /><polygon type="contour" points="9.616397,8.960137 9.616397,8.963165 9.616634,9.252824 9.611151,9.252842 9.521565,9.252771 9.515304,9.252746 9.515304,8.960137 9.51629,8.960139 9.521565,8.960126 9.610091,8.960126" style="fill: white" /><polygon type="contour" points="9.521565,8.522106 9.6097,8.52225 9.616853,8.522251 9.616853,8.523493 9.616834,8.529881 9.61673,8.600309 9.616602,8.627701 9.515099,8.627701 9.515099,8.597531 9.515295,8.52886 9.515304,8.522099 9.516303,8.522095" style="fill: white" /><polygon type="contour" points="9.610091,8.088626 9.616397,8.088609 9.616397,8.19503 9.615396,8.195028 9.610091,8.195026 9.521566,8.195026 9.515304,8.19503 9.515304,8.088609 9.521565,8.088626 9.565501,8.088495" style="fill: white" /><polygon type="contour" points="9.251093,7.917342 9.252143,7.958999 9.252143,7.998746 9.251968,8.002373 9.252012,8.08649 9.252279,8.193225 9.252279,8.193878 9.250553,8.193877 8.958979,8.193877 8.958979,8.192121 8.959062,7.999061 8.959062,7.919137 9.07293,7.917308" style="fill: white" /><polygon type="contour" points="8.062141,7.917887 8.191669,7.916845 8.193392,7.964377 8.193392,8.009947 8.193322,8.012719 8.193647,8.045721 8.193603,8.086489 8.193603,8.193604 7.921087,8.193877 7.919465,8.193877 7.919435,8.193362 7.912676,7.912678" style="fill: white" /><polygon type="contour" points="8.62766,8.195118 8.624986,8.195113 8.600308,8.195084 8.529878,8.194995 8.522245,8.19495 8.522245,8.088526 8.529879,8.088546 8.576262,8.088295 8.624987,8.088031 8.62766,8.088024" style="fill: white" /><polygon type="contour" points="8.963503,8.522251 9.252667,8.522251 9.252667,8.523493 9.252695,8.52988 9.252781,8.60031 9.252822,8.627657 9.053018,8.627657 8.960217,8.627662 8.960212,8.624989 8.959794,8.576264 8.960042,8.529881 8.960058,8.52344 8.960055,8.522247" style="fill: white" /><polygon type="contour" points="8.627554,8.600309 8.627657,8.624988 8.62766,8.627236 8.62766,8.627662 8.624987,8.627659 8.600307,8.627556 8.522035,8.627556 8.522035,8.60031 8.522259,8.52988 8.522245,8.522247 8.600307,8.522037 8.627554,8.522037" style="fill: white" /><polygon type="contour" points="8.194948,8.52346 8.194994,8.529881 8.195081,8.60031 8.195111,8.624989 8.195133,8.627662 8.088022,8.627662 8.08803,8.624988 8.088293,8.576264 8.088544,8.52988 8.088528,8.523381 8.088524,8.522247 8.194948,8.522247" style="fill: white" /><polygon type="contour" points="8.067478,8.95898 8.193251,8.958982 8.193876,8.958981 8.193877,8.960746 8.193722,9.252128 8.192756,9.252128 8.003762,9.252014 7.91919,9.252014 7.919484,8.960992 7.919485,8.958979 7.920625,8.958979" style="fill: white" /><polygon type="contour" points="8.195256,9.519048 8.195024,9.610137 8.195028,9.616399 8.088607,9.616399 8.088624,9.610137 8.088493,9.566201 8.088624,9.52161 8.088607,9.515305 8.194613,9.51529 8.195267,9.51529" style="fill: white" /><polygon type="contour" points="8.600308,9.514972 8.627699,9.5151 8.627699,9.616604 8.600307,9.616732 8.529879,9.616836 8.522249,9.616854 8.522245,9.615717 8.522248,9.609751 8.522248,9.522001 8.522249,9.514849" style="fill: white" /><polygon type="contour" points="8.628654,10.04266 8.62944,10.17203 8.62491,10.172018 8.589422,10.171878 8.529878,10.171656 8.522245,10.171643 8.522249,10.168194 8.522249,9.879036 8.523491,9.879036 8.529878,9.879008 8.600308,9.878919 8.627654,9.878879" style="fill: white" /><polygon type="contour" points="8.193877,10.170957 8.193876,10.172723 8.193251,10.172721 8.067478,10.172724 7.919485,10.172725 7.919407,10.043359 7.919307,9.879574 8.193722,9.879574" style="fill: white" /><polygon type="contour" points="8.195111,10.506714 8.195081,10.531393 8.194994,10.601823 8.194948,10.609457 8.088524,10.609457 8.088544,10.601823 8.088293,10.55544 8.088029,10.506714 8.088022,10.504042 8.195133,10.504042" style="fill: white" /><polygon type="contour" points="8.627657,10.506714 8.627554,10.531394 8.627554,10.609667 8.600308,10.609667 8.529878,10.609442 8.522244,10.609457 8.522035,10.531394 8.522035,10.504148 8.600307,10.504148 8.62766,10.504042" style="fill: white" /><polygon type="contour" points="8.584712,10.936517 8.624987,10.93659 8.62766,10.936585 8.62766,11.04368 8.624987,11.043672 8.576262,11.043408 8.529878,11.043157 8.523379,11.043173 8.522245,11.043178 8.522332,10.937073 8.522332,10.936436 8.522953,10.936436 8.526356,10.936422" style="fill: white" /><polygon type="contour" points="8.193603,11.045214 8.193647,11.085982 8.193322,11.118984 8.193392,11.167326 8.19291,11.170598 8.191669,11.214859 8.062141,11.213817 7.912676,11.219026 7.918476,11.051061 7.919189,10.938099 8.193603,10.938099" style="fill: white" />
</svg>
