<svg width="19.131698" height="19.131699">
<polygon type="contour" points="10.895341,10.820085 10.89553,10.895532 10.884471,10.89522 10.624774,10.898584 10.624584,10.892362 10.624584,10.886388 10.624555,10.885836 10.62418,10.822622 10.622822,10.622824 10.896142,10.622824" style="fill: white" /><polygon type="contour" points="9.843469,9.843471 9.288231,9.843471 9.288231,9.288234 9.843469,9.288234" style="fill: white" /><polygon type="contour" points="9.842767,10.121439 9.842778,10.265674 9.842661,10.346644 9.842625,10.374241 9.289073,10.374241 9.289036,10.346644 9.28892,10.264943 9.288934,10.121439 9.288934,10.096584 9.842767,10.096584" style="fill: white" /><polygon type="contour" points="9.035118,10.12144 9.034822,10.193571 9.03155,10.19356 9.035419,10.283742 9.036275,10.374298 8.951718,10.374723 8.847958,10.374723 8.756948,10.374241 8.756883,10.296468 8.75698,10.283742 8.75698,10.180636 8.756883,10.096695 8.847959,10.096937 8.861877,10.09688 8.950929,10.09688 9.035118,10.096584" style="fill: white" /><polygon type="contour" points="9.036275,10.622325 9.035118,10.649373 9.035118,10.728595 8.950929,10.728515 8.861912,10.728326 8.861912,10.728488 8.783107,10.728397 8.756948,10.728402 8.756948,10.622189 8.784916,10.622189 8.861886,10.622181 8.951718,10.622181" style="fill: white" /><polygon type="contour" points="8.508878,10.651495 8.507519,10.822622 8.507145,10.877767 8.507145,10.885836 8.507115,10.892362 8.507081,10.893017 8.506926,10.898584 8.247228,10.89522 8.23617,10.895532 8.236388,10.887529 8.236573,10.87822 8.236631,10.874527 8.235811,10.622825 8.296515,10.622825 8.435015,10.622824 8.508878,10.622824" style="fill: white" /><polygon type="contour" points="8.430506,10.096695 8.509377,10.096695 8.509377,10.121689 8.509522,10.193536 8.509522,10.283742 8.509513,10.374241 8.403301,10.374241 8.403214,10.283742 8.403215,10.26979 8.403273,10.26979 8.403159,10.120003 8.403108,10.096584" style="fill: white" /><polygon type="contour" points="8.303643,9.287946 8.508797,9.288255 8.508878,9.676124 8.508878,9.845115 8.310601,9.843875 8.303643,9.843758 8.247872,9.843815 8.235311,9.843815 8.233369,9.582339 8.233278,9.578649 8.233198,9.574344 8.23306,9.571619 8.23299,9.565502 8.233061,9.559409 8.233198,9.556691 8.233277,9.552398 8.233368,9.548717 8.235311,9.287889 8.247872,9.287889" style="fill: white" /><polygon type="contour" points="8.507116,8.239341 8.507116,8.245315 8.507145,8.245867 8.507519,8.309081 8.508878,8.50888 8.235556,8.50888 8.236357,8.311619 8.23617,8.236171 8.247228,8.236484 8.506926,8.23312" style="fill: white" /><polygon type="contour" points="8.509388,8.78305 8.509522,8.861888 8.509522,8.951721 8.509377,9.036277 8.482328,9.03512 8.403108,9.03512 8.403188,8.950932 8.403376,8.861914 8.403215,8.861914 8.403305,8.783108 8.403301,8.756949 8.480715,8.754759 8.509388,8.754759" style="fill: white" /><polygon type="contour" points="9.035118,9.288936 9.035118,9.842768 9.010262,9.842768 8.93813,9.842775 8.93813,9.83929 8.847959,9.843411 8.756948,9.843942 8.756948,9.289074 8.784541,9.289038 8.861877,9.288929 8.950929,9.288929" style="fill: white" /><polygon type="contour" points="9.035419,8.847961 9.031551,8.938132 9.034822,8.938132 9.034822,8.950932 9.035118,9.03512 9.010262,9.03512 8.93813,9.034825 8.938141,9.031553 8.847959,9.035422 8.756883,9.036277 8.756883,9.010014 8.757082,8.861889 8.75698,8.861889 8.75698,8.847961 8.756948,8.756949 8.784916,8.756949 8.938165,8.757014 8.938165,8.756982 8.951718,8.756982 9.036275,8.756884" style="fill: white" /><polygon type="contour" points="9.036275,8.430508 9.036275,8.509379 9.010013,8.509379 8.938164,8.509523 8.847959,8.509523 8.754758,8.509389 8.754758,8.480717 8.756948,8.403303 8.847958,8.403215 8.861911,8.403216 8.861911,8.403274 9.011699,8.40316 9.035118,8.40311" style="fill: white" /><polygon type="contour" points="9.566199,8.232995 9.575009,8.233201 9.579302,8.23328 9.582984,8.233372 9.590858,8.233468 9.843815,8.235351 9.843873,8.310603 9.845112,8.50888 9.564967,8.508601 9.288322,8.508601 9.288254,8.462024 9.287921,8.276403 9.287885,8.235351 9.541466,8.233469 9.549361,8.233372 9.553052,8.23328 9.557356,8.233201 9.562083,8.232985" style="fill: white" /><polygon type="contour" points="10.884471,8.236484 10.89553,8.236171 10.895312,8.244173 10.895127,8.253483 10.895069,8.257176 10.895887,8.50888 10.622822,8.50888 10.622822,8.480208 10.62418,8.309081 10.624555,8.253936 10.624555,8.245867 10.624584,8.239341 10.624619,8.238686 10.624774,8.23312" style="fill: white" /><polygon type="contour" points="10.700055,8.756949 10.7284,8.756949 10.728487,8.847961 10.728486,8.861913 10.728427,8.861913 10.728542,9.0117 10.728593,9.03512 10.701193,9.036277 10.622323,9.036277 10.622323,9.010015 10.622179,8.938167 10.622179,8.84796 10.622312,8.754759" style="fill: white" /><polygon type="contour" points="10.18077,8.40319 10.269788,8.403371 10.269788,8.403216 10.348066,8.403306 10.374239,8.403303 10.374239,8.431646 10.376942,8.509389 10.348651,8.509389 10.269812,8.509523 10.180635,8.509523 10.096693,8.509379 10.096582,8.482329 10.096582,8.40311" style="fill: white" /><polygon type="contour" points="9.842662,8.784543 9.842778,8.866056 9.842767,9.010264 9.842767,9.03512 9.288934,9.03512 9.288934,9.010264 9.28892,8.866791 9.289036,8.784542 9.289073,8.756949 9.843939,8.756949" style="fill: white" /><polygon type="contour" points="10.180634,8.756982 10.283741,8.756982 10.374239,8.756949 10.374298,8.835235 10.374721,8.847961 10.374721,8.951721 10.374298,9.036277 10.28374,9.035421 10.19357,9.031554 10.19357,9.034825 10.18077,9.034825 10.096582,9.03512 10.096582,9.010264 10.097192,8.861879 10.096879,8.861879 10.096936,8.847961 10.096693,8.756884" style="fill: white" /><polygon type="contour" points="10.283741,9.288948 10.374239,9.289073 10.374239,9.842628 10.346643,9.842663 10.269823,9.842775 10.18077,9.842775 10.096582,9.842768 10.096582,9.288936 10.121437,9.288936 10.264762,9.288922" style="fill: white" /><polygon type="contour" points="10.898331,9.549364 10.898421,9.553054 10.898502,9.55736 10.89864,9.560084 10.89871,9.566201 10.89864,9.572294 10.898501,9.575012 10.898422,9.579305 10.898331,9.582986 10.896389,9.843815 10.883827,9.843815 10.828056,9.843757 10.622903,9.843448 10.622903,9.288255 10.828056,9.287946 10.883827,9.287889 10.896389,9.287889" style="fill: white" /><polygon type="contour" points="10.649373,10.096584 10.728593,10.096584 10.728513,10.180772 10.728324,10.26979 10.728486,10.26979 10.728396,10.348067 10.7284,10.374241 10.622187,10.374241 10.622187,10.346272 10.622179,10.269814 10.622179,10.179983 10.622323,10.095427" style="fill: white" /><polygon type="contour" points="10.374298,10.121689 10.374721,10.193536 10.374721,10.283743 10.374239,10.374241 10.34627,10.374241 10.269812,10.374723 10.179981,10.374723 10.095425,10.374299 10.096282,10.283742 10.100149,10.193572 10.096879,10.193572 10.096879,10.180772 10.096582,10.096584 10.121438,10.096584 10.193569,10.09688 10.193558,10.100151 10.28374,10.096283 10.374298,10.095427" style="fill: white" /><polygon type="contour" points="10.374239,10.622189 10.374239,10.728402 10.28374,10.728489 10.269788,10.728488 10.269788,10.728429 10.120002,10.728544 10.096582,10.728595 10.095425,10.701195 10.095425,10.622325 10.121686,10.622325 10.193535,10.622181 10.28374,10.622181" style="fill: white" /><polygon type="contour" points="9.843528,10.680819 9.843816,10.868076 9.843816,10.896353 9.590233,10.898235 9.582338,10.898333 9.578647,10.898424 9.574343,10.898504 9.569616,10.89872 9.5655,10.89871 9.55669,10.898504 9.552397,10.898424 9.548715,10.898332 9.540841,10.898236 9.287885,10.896353 9.287885,10.868076 9.288257,10.622961 9.843444,10.622961" style="fill: white" />
</svg>
