<svg width="19.131698" height="19.131699">
<polygon type="contour" points="12.408646,10.539967 12.409204,10.585487 12.408955,10.594504 12.408814,10.596208 12.408536,10.61114 12.408108,10.637384 12.408237,10.832761 12.342173,10.832603 12.116023,10.832603 12.116223,10.695929 12.116414,10.539311 12.315623,10.53918" style="fill: white" /><polygon type="contour" points="12.40761,12.225715 12.412583,12.412586 12.367594,12.411268 12.355437,12.410828 12.317986,12.409895 12.116414,12.40869 12.116414,12.258573 12.116291,12.116294 12.144671,12.116294 12.315144,12.115846 12.353362,12.115846 12.40641,12.115213" style="fill: white" /><polygon type="contour" points="10.832589,12.272535 10.832601,12.342175 10.832658,12.369837 10.832759,12.408238 10.637381,12.408109 10.611018,12.408628 10.596072,12.408814 10.594502,12.408956 10.585485,12.409204 10.578144,12.4094 10.576807,12.409488 10.563807,12.410194 10.559298,12.409901 10.539964,12.408647 10.539178,12.315624 10.539169,12.116294 10.68215,12.116416 10.832589,12.116225" style="fill: white" /><polygon type="contour" points="11.341345,11.246279 11.34132,11.34156 11.17555,11.34156 11.089783,11.341347 11.090047,11.246279 11.090406,11.214687 11.090288,11.08992 11.246542,11.089785 11.341345,11.089785" style="fill: white" /><polygon type="contour" points="11.735821,11.090055 11.836732,11.090055 11.836958,11.24628 11.836985,11.341476 11.707921,11.341476 11.636271,11.341321 11.636271,11.175553 11.63632,11.089785" style="fill: white" /><polygon type="contour" points="12.233726,11.24628 12.23394,11.341321 12.155901,11.341321 12.114444,11.341476 12.11437,11.24628 12.114983,11.08992 12.234432,11.08992" style="fill: white" /><polygon type="contour" points="12.23394,11.636272 12.233748,11.707923 12.234412,11.836763 12.114759,11.836763 12.114759,11.739749 12.114445,11.636085 12.190444,11.636085" style="fill: white" /><polygon type="contour" points="11.836761,11.73975 11.836761,11.836763 11.707921,11.836988 11.636084,11.836988 11.636084,11.707923 11.636271,11.636272 11.768794,11.636272 11.836985,11.636085" style="fill: white" /><polygon type="contour" points="11.739748,12.114761 11.836761,12.114761 11.836761,12.234413 11.707922,12.233749 11.636271,12.233942 11.636271,12.155904 11.636084,12.114447" style="fill: white" /><polygon type="contour" points="11.341474,12.114447 11.341474,12.190446 11.34132,12.233942 11.246278,12.23373 11.089918,12.234435 11.089918,12.114984 11.246278,12.114372" style="fill: white" /><polygon type="contour" points="11.34132,11.768797 11.341474,11.836988 11.246278,11.83696 11.090053,11.836735 11.089783,11.711848 11.089783,11.636321 11.246277,11.636321 11.34132,11.636272" style="fill: white" /><polygon type="contour" points="10.832588,11.636321 10.832805,11.735823 10.832805,11.836735 10.685259,11.836735 10.537039,11.836763 10.536814,11.707923 10.536987,11.636272 10.73277,11.636272" style="fill: white" /><polygon type="contour" points="10.832853,11.246279 10.832588,11.341347 10.647756,11.341347 10.536987,11.341321 10.537307,11.212973 10.537081,11.08992 10.833102,11.08992" style="fill: white" /><polygon type="contour" points="10.833203,10.767687 10.833203,10.832661 10.539124,10.832661 10.541638,10.642239 10.542932,10.628841 10.544208,10.54421 10.642238,10.541638 10.832659,10.539127" style="fill: white" /><polygon type="contour" points="11.34132,10.536989 11.34132,10.732773 11.341345,10.832591 11.223063,10.832735 11.090288,10.832735 11.090288,10.692422 11.089918,10.537083 11.246277,10.536845" style="fill: white" /><polygon type="contour" points="11.74379,10.537284 11.836761,10.537041 11.836761,10.69088 11.836733,10.832807 11.73582,10.832807 11.63632,10.832591 11.63632,10.647758 11.636271,10.536989" style="fill: white" /><polygon type="contour" points="11.836733,8.446442 11.836761,8.594663 11.707922,8.594886 11.636271,8.594714 11.636271,8.398931 11.63632,8.299113 11.735821,8.298898 11.836733,8.298898" style="fill: white" /><polygon type="contour" points="12.408108,8.494321 12.408813,8.535496 12.408955,8.5372 12.409204,8.546217 12.409486,8.554893 12.410193,8.567895 12.408646,8.591738 12.230026,8.590954 12.116414,8.592393 12.116414,8.449551 12.116223,8.299114 12.180762,8.299114 12.350893,8.298943 12.408237,8.298943" style="fill: white" /><polygon type="contour" points="12.40761,6.905989 12.40641,7.016491 12.346111,7.016416 12.116414,7.015287 12.116457,6.815616 12.116457,6.723383 12.317986,6.72181 12.355437,6.720875 12.367594,6.720435 12.412583,6.719119" style="fill: white" /><polygon type="contour" points="11.246278,6.897974 11.34132,6.897762 11.34132,6.975798 11.341474,7.017255 11.246278,7.01733 11.089918,7.016717 11.089918,6.897269" style="fill: white" /><polygon type="contour" points="10.832733,7.908638 10.833103,8.041785 10.537081,8.041785 10.536843,7.885424 10.536987,7.790382 10.73277,7.790382 10.832589,7.790356" style="fill: white" /><polygon type="contour" points="10.832659,8.527603 10.832659,8.592577 10.642237,8.590064 10.628839,8.588769 10.544208,8.587493 10.54479,8.510927 10.542932,8.50286 10.541638,8.489463 10.539124,8.299044 10.833203,8.299044" style="fill: white" /><polygon type="contour" points="11.246542,8.299113 11.341345,8.299113 11.341345,8.483944 11.34132,8.594714 11.212971,8.594395 11.089918,8.594621 11.089918,8.454308 11.090288,8.298969" style="fill: white" /><polygon type="contour" points="11.34132,7.955912 11.341345,8.041919 11.223062,8.041785 11.090288,8.041785 11.090047,7.885423 11.089783,7.790356 11.246278,7.790356 11.34132,7.790144" style="fill: white" /><polygon type="contour" points="11.836958,7.885423 11.836732,8.041647 11.711846,8.041919 11.63632,8.041919 11.63632,7.885424 11.636271,7.790382 11.768794,7.790382 11.836985,7.790228" style="fill: white" /><polygon type="contour" points="12.23394,7.790382 12.233701,7.860664 12.233727,7.885424 12.234432,8.041785 12.114983,8.041785 12.11437,7.885423 12.114445,7.790228 12.190444,7.790228" style="fill: white" /><polygon type="contour" points="12.233748,7.42378 12.23394,7.495432 12.155902,7.495432 12.114445,7.495617 12.114759,7.391952 12.114759,7.294941 12.234412,7.294941" style="fill: white" /><polygon type="contour" points="11.836761,7.016942 11.739747,7.016942 11.636084,7.017255 11.636084,6.941257 11.636271,6.897762 11.707922,6.897955 11.836761,6.897291" style="fill: white" /><polygon type="contour" points="11.739747,7.294941 11.836761,7.294941 11.836985,7.423779 11.836985,7.495617 11.707921,7.495617 11.636271,7.495432 11.636271,7.362907 11.636084,7.294717" style="fill: white" /><polygon type="contour" points="11.341474,7.423779 11.34132,7.495432 11.175551,7.495432 11.089783,7.495382 11.090053,7.395881 11.090053,7.294969 11.246278,7.294743 11.341474,7.294717" style="fill: white" /><polygon type="contour" points="10.832805,7.294969 10.832805,7.39588 10.832588,7.495383 10.647756,7.495383 10.536987,7.495432 10.537282,7.38791 10.537039,7.294941 10.690878,7.294941" style="fill: white" /><polygon type="contour" points="10.594503,6.722746 10.596206,6.722887 10.611018,6.723073 10.637381,6.723592 10.832659,6.723223 10.832601,6.789528 10.832601,7.015679 10.695926,7.015477 10.539309,7.015287 10.539178,6.816077 10.539964,6.723055 10.585485,6.722496" style="fill: white" /><polygon type="contour" points="8.591736,6.723055 8.592523,6.816076 8.592531,7.01541 8.449549,7.015287 8.299112,7.015478 8.299112,6.859166 8.2991,6.789528 8.299042,6.761864 8.298941,6.723462 8.494319,6.723592 8.520682,6.723073 8.535494,6.722887 8.537197,6.722746 8.546216,6.722495 8.551521,6.722347 8.554893,6.722214 8.567894,6.721508" style="fill: white" /><polygon type="contour" points="6.764105,6.720435 6.776262,6.720875 6.813713,6.72181 7.015286,6.723013 7.015286,7.015286 6.987029,7.015409 6.816555,7.015858 6.778337,7.015858 6.72485,7.016491 6.723653,6.905989 6.719117,6.719119" style="fill: white" /><polygon type="contour" points="7.423777,6.897955 7.495429,6.897762 7.495429,6.975797 7.495615,7.017255 7.391951,7.016942 7.29494,7.016942 7.29494,6.897291" style="fill: white" /><polygon type="contour" points="7.016941,7.391953 7.017254,7.495617 6.941255,7.495617 6.89776,7.495432 6.897952,7.42378 6.897288,7.294941 7.016941,7.294941" style="fill: white" /><polygon type="contour" points="8.041917,7.885423 8.041646,7.917016 8.041783,8.041784 7.885421,8.041919 7.790353,8.041919 7.790353,7.885423 7.79038,7.790382 7.956147,7.790382 8.041917,7.790356" style="fill: white" /><polygon type="contour" points="7.49538,8.299113 7.49538,8.483944 7.495429,8.594714 7.387909,8.59442 7.29494,8.594663 7.29494,8.440823 7.294967,8.298898 7.395878,8.298898" style="fill: white" /><polygon type="contour" points="6.789525,8.299102 7.015677,8.299102 7.015475,8.435776 7.015286,8.592393 6.816075,8.592524 6.723053,8.591738 6.722494,8.546216 6.722744,8.5372 6.722884,8.535629 6.723163,8.520563 6.72359,8.49432 6.723461,8.298943" style="fill: white" /><polygon type="contour" points="7.017328,7.885423 7.016717,8.041785 6.897268,8.041785 6.897973,7.885424 6.89776,7.790382 6.975795,7.790382 7.017254,7.790228" style="fill: white" /><polygon type="contour" points="7.495429,7.790382 7.495429,7.956149 7.49538,8.041919 7.395879,8.041648 7.294967,8.041648 7.294741,7.885423 7.294715,7.790228 7.423778,7.790228" style="fill: white" /><polygon type="contour" points="7.495615,7.42378 7.495429,7.495432 7.362905,7.495432 7.294715,7.495617 7.29494,7.391953 7.29494,7.294941 7.423777,7.294717 7.495615,7.294717" style="fill: white" /><polygon type="contour" points="7.885421,7.294744 8.041645,7.294969 8.041917,7.419855 8.041917,7.495383 7.885422,7.495383 7.79038,7.495432 7.79038,7.362907 7.790226,7.294717" style="fill: white" /><polygon type="contour" points="8.041783,7.016718 7.885421,7.01733 7.790226,7.017255 7.790226,6.941257 7.79038,6.897762 7.885422,6.897974 8.041783,6.897269" style="fill: white" /><polygon type="contour" points="8.594885,7.423779 8.594713,7.495432 8.398929,7.495432 8.299111,7.495383 8.298896,7.395881 8.298896,7.294969 8.446441,7.294969 8.594662,7.294941" style="fill: white" /><polygon type="contour" points="8.594713,7.790382 8.594393,7.918729 8.59462,8.041785 8.298967,8.041785 8.299111,7.885423 8.299111,7.790356 8.483942,7.790356" style="fill: white" /><polygon type="contour" points="8.591186,8.344568 8.587491,8.587493 8.510925,8.586911 8.502858,8.588768 8.489461,8.590063 8.299042,8.592576 8.299042,8.299044 8.592576,8.299044" style="fill: white" /><polygon type="contour" points="8.041783,8.594621 7.885422,8.594858 7.79038,8.594714 7.79038,8.39893 7.790353,8.299113 7.908634,8.298969 8.041783,8.298969" style="fill: white" /><polygon type="contour" points="8.344565,10.540516 8.587491,10.54421 8.59006,10.642239 8.592576,10.832661 8.299042,10.832661 8.299042,10.539127" style="fill: white" /><polygon type="contour" points="8.041917,11.636321 8.041646,11.735823 8.041646,11.836735 7.885421,11.836959 7.790226,11.836987 7.790226,11.707923 7.79038,11.636272 7.956147,11.636272" style="fill: white" /><polygon type="contour" points="8.594857,11.24628 8.594713,11.341321 8.398929,11.341321 8.299111,11.341347 8.298967,11.223065 8.298967,11.08992 8.59462,11.08992" style="fill: white" /><polygon type="contour" points="8.594419,11.743793 8.594662,11.836763 8.440822,11.836763 8.298896,11.836735 8.298896,11.735822 8.299111,11.636321 8.483942,11.636321 8.594713,11.636272" style="fill: white" /><polygon type="contour" points="8.435773,12.116225 8.592391,12.116416 8.592523,12.315625 8.591736,12.408647 8.546215,12.409205 8.537198,12.408956 8.535628,12.408814 8.520682,12.408628 8.494319,12.408109 8.299042,12.408479 8.2991,12.342174 8.2991,12.116025" style="fill: white" /><polygon type="contour" points="8.041783,12.114984 8.041783,12.234435 7.885422,12.23373 7.79038,12.233942 7.79038,12.155903 7.790226,12.114446 7.885421,12.114371" style="fill: white" /><polygon type="contour" points="7.495615,12.190447 7.495429,12.233942 7.423777,12.233749 7.29494,12.234413 7.29494,12.114761 7.391952,12.114761 7.495615,12.114447" style="fill: white" /><polygon type="contour" points="7.017328,11.246279 7.017254,11.341476 6.941256,11.341476 6.89776,11.341321 6.897998,11.271038 6.897973,11.24628 6.897268,11.08992 7.016717,11.08992" style="fill: white" /><polygon type="contour" points="7.015286,10.682152 7.015476,10.83259 6.950936,10.83259 6.780805,10.832761 6.723461,10.832761 6.72359,10.637384 6.722885,10.596209 6.722744,10.594505 6.722494,10.585488 6.722212,10.57681 6.721506,10.563809 6.723052,10.539967 6.901671,10.54075 7.015286,10.539311" style="fill: white" /><polygon type="contour" points="7.495429,10.536989 7.495429,10.732772 7.49538,10.832591 7.395879,10.832807 7.294967,10.832807 7.294967,10.68526 7.29494,10.537041 7.423778,10.536816" style="fill: white" /><polygon type="contour" points="7.918728,10.537309 8.041783,10.537083 8.041783,10.832735 7.885421,10.832591 7.790353,10.832591 7.790353,10.647758 7.79038,10.536989" style="fill: white" /><polygon type="contour" points="7.908635,11.08992 8.041783,11.08992 8.041917,11.24628 8.041917,11.341347 7.885421,11.341347 7.79038,11.341321 7.79038,11.175553 7.790353,11.089785" style="fill: white" /><polygon type="contour" points="7.49538,11.246279 7.495429,11.341321 7.362905,11.341321 7.294715,11.341476 7.294741,11.24628 7.294967,11.090055 7.419852,11.089785 7.49538,11.089785" style="fill: white" /><polygon type="contour" points="7.495429,11.636272 7.495429,11.768796 7.495615,11.836987 7.391952,11.836763 7.29494,11.836763 7.294715,11.707923 7.294715,11.636085 7.423777,11.636085" style="fill: white" /><polygon type="contour" points="7.016941,11.73975 7.016941,11.836763 6.897288,11.836763 6.897952,11.707923 6.89776,11.636272 6.975795,11.636272 7.017254,11.636085" style="fill: white" /><polygon type="contour" points="6.785033,12.115287 7.015286,12.116416 7.015241,12.316085 7.015241,12.40832 6.813713,12.409894 6.776262,12.410828 6.764105,12.411268 6.719117,12.412586 6.723653,12.225714 6.72485,12.115213" style="fill: white" />
</svg>
