<svg width="19.131698" height="19.131699">
<polygon type="contour" points="9.577579,13.184813 9.584681,13.184843 9.642553,13.184843 9.954201,13.185662 10.015199,13.185893 10.296696,13.186185 10.517141,13.186759 10.688383,13.187438 10.710004,13.187563 11.014595,13.188589 11.030477,13.1886 11.099725,13.188482 11.112796,13.188514 11.180345,13.18872 11.180345,13.809739 11.105333,13.809827 11.039717,13.810126 11.014681,13.810172 11.014082,13.810185 10.709607,13.809721 9.106191,13.809721 9.100294,13.809436 8.426968,13.810042 8.412664,13.810184 8.407008,13.809983 8.334661,13.81017 8.262671,13.810213 8.234449,13.810039 8.147732,13.810172 8.117267,13.810102 8.091983,13.810126 7.959234,13.809905 7.951355,13.809738 7.951355,13.18872 8.018903,13.188514 8.031974,13.188482 8.101224,13.1886 8.117104,13.188588 8.421695,13.187563 8.443316,13.187437 8.614558,13.186758 8.835003,13.186185 9.092425,13.185972 9.1165,13.185893 9.177498,13.185662 9.489626,13.184843 9.547495,13.184843 9.554625,13.184813 9.558789,13.184463 9.566198,13.184463" style="fill: white" /><polygon type="contour" points="10.834098,15.330467 11.180345,15.330391 11.180345,15.513636 11.180917,15.568481 11.17828,15.568395 11.020475,15.568481 10.902502,15.568214 10.872604,15.568226 10.43128,15.568506 10.301734,15.568312 9.78696,15.568298 9.463925,15.568386 9.418998,15.56835 8.814459,15.568563 8.319746,15.568257 8.258295,15.568248 8.128397,15.568501 7.950783,15.568481 7.950783,15.385591 7.951355,15.330391 7.953418,15.330523 8.29772,15.330467 8.507052,15.330231 10.124741,15.330364 10.624834,15.330231" style="fill: white" /><polygon type="contour" points="15.472811,11.570298 15.472969,11.576802 15.472875,11.630611 15.370226,11.630611 15.330525,11.63093 15.330185,11.572018 15.330047,11.529947 15.397403,11.529721 15.473032,11.529721" style="fill: white" /><polygon type="contour" points="15.193208,11.570298 15.193464,11.63093 15.092473,11.63093 14.997541,11.630733 14.997761,11.559494 14.997764,11.529947 15.193392,11.529947" style="fill: white" /><polygon type="contour" points="15.193146,12.105526 15.193492,12.185373 15.135136,12.185373 14.99763,12.185476 14.99779,12.140073 14.997779,12.084417 15.193079,12.084417" style="fill: white" /><polygon type="contour" points="15.472942,12.105673 15.473244,12.185539 15.37293,12.185581 15.330416,12.185373 15.330322,12.152762 15.330082,12.084417 15.472883,12.084417" style="fill: white" /><polygon type="contour" points="15.472853,12.653099 15.473048,12.740576 15.467073,12.740547 15.330276,12.740547 15.330279,12.735952 15.330157,12.639416 15.472958,12.639416" style="fill: white" /><polygon type="contour" points="15.19312,12.653006 15.193357,12.740547 14.998057,12.740547 14.998045,12.735952 14.997782,12.639416 15.193082,12.639416" style="fill: white" /><polygon type="contour" points="15.192944,13.088745 15.193221,13.10885 15.193582,13.15515 15.193532,13.16192 15.193137,13.350959 15.193117,13.355263 15.193151,13.359657 15.193064,13.363619 15.193068,13.367117 15.193148,13.369941 15.19315,13.475521 15.193115,13.511797 15.193525,13.809681 15.156963,13.809681 14.997912,13.809687 14.997912,13.715337 14.997806,13.451796 14.997827,13.366497 14.997813,13.363079 14.99783,13.35903 14.997794,13.354403 14.997814,13.350068 14.997783,13.220311 14.997611,13.137596 14.997553,13.074315 15.193144,13.074315" style="fill: white" /><polygon type="contour" points="15.435707,13.075266 15.473136,13.075266 15.473387,13.075783 15.525097,13.075617 15.54045,13.07534 15.568168,13.07547 15.574315,13.075498 15.576254,13.075532 15.663561,13.075662 15.663561,13.338434 15.663396,13.408697 15.57217,13.408372 15.473187,13.408801 15.473062,13.511797 15.473203,13.809687 15.357071,13.809681 15.330338,13.809681 15.330418,13.758992 15.330273,13.411303 15.330342,13.37263 15.330305,13.371108 15.330327,13.369148 15.330302,13.366084 15.330305,13.362988 15.330285,13.362235 15.330243,13.35903 15.330222,13.358118 15.330266,13.353735 15.330266,13.349866 15.330548,13.14761 15.330596,13.09125 15.330591,13.074559" style="fill: white" /><polygon type="contour" points="15.663396,15.330195 15.663204,15.522264 15.663375,15.598478 15.663375,15.663378 15.381601,15.663673 15.379929,15.663384 15.330067,15.663268 15.330542,15.572171 15.330542,15.480601 15.330409,15.477508 15.330413,15.473213 15.330413,15.330416 15.473212,15.330416 15.477507,15.330412 15.57217,15.330543 15.576609,15.330167" style="fill: white" /><polygon type="contour" points="15.432767,14.997915 15.473203,14.997915 15.473138,15.156967 15.473239,15.1936 15.330438,15.1936 15.330338,15.156966 15.330338,14.997657" style="fill: white" /><polygon type="contour" points="15.193598,15.029958 15.193598,15.1936 15.156964,15.193528 14.997656,15.193528 14.997656,15.156965 14.997912,14.997915 15.053214,14.997915 15.193525,14.997657" style="fill: white" /><polygon type="contour" points="15.029957,15.330441 15.193598,15.330441 15.193598,15.47324 15.047472,15.473362 14.997912,15.473204 14.997656,15.357073 14.997656,15.330341" style="fill: white" /><polygon type="contour" points="13.354535,15.330301 13.365937,15.330285 13.365978,15.330266 13.373132,15.330308 13.446439,15.33034 13.511794,15.330263 13.809679,15.330341 13.809679,15.357074 13.809685,15.473204 13.511794,15.473063 13.408371,15.473189 13.408371,15.572172 13.408664,15.576612 13.408696,15.663398 13.338433,15.663563 13.07566,15.663563 13.075495,15.574316 13.0753,15.529831 13.075238,15.430387 13.074028,15.404016 13.074573,15.330673 13.088742,15.330741 13.11018,15.330165 13.225649,15.330165" style="fill: white" /><polygon type="contour" points="13.132289,14.997475 13.220309,14.997786 13.345173,14.997809 13.348864,14.997794 13.353158,14.997751 13.357542,14.997838 13.361653,14.997798 13.365455,14.997814 13.368642,14.997719 13.477305,14.997992 13.477305,14.99782 13.511794,14.99782 13.809685,14.997915 13.809685,15.053217 13.809679,15.193527 13.511793,15.193119 13.43853,15.193189 13.368642,15.193102 13.365455,15.193113 13.361652,15.193097 13.357542,15.193136 13.353157,15.193149 13.348865,15.193093 13.345174,15.193108 13.152504,15.193476 13.118566,15.193695 13.108848,15.193223 13.087449,15.193423 13.07434,15.193455 13.07434,14.997456" style="fill: white" /><polygon type="contour" points="12.740546,15.330278 12.740575,15.336252 12.740575,15.473051 12.73595,15.473083 12.639414,15.472959 12.639414,15.330159 12.653004,15.330149" style="fill: white" /><polygon type="contour" points="12.653004,14.997822 12.740546,14.998058 12.740546,15.193358 12.73595,15.193346 12.639414,15.193084 12.639414,14.997784" style="fill: white" /><polygon type="contour" points="12.185371,15.13514 12.185371,15.193495 12.152759,15.193386 12.084416,15.193081 12.084416,14.997782 12.105524,14.997701 12.185475,14.997632" style="fill: white" /><polygon type="contour" points="12.105525,15.330143 12.185371,15.330417 12.185579,15.372933 12.185538,15.473246 12.130877,15.47309 12.084416,15.472886 12.084416,15.330084" style="fill: white" /><polygon type="contour" points="11.570297,15.330293 11.630928,15.330526 11.630928,15.403743 11.630609,15.472879 11.576059,15.473058 11.570296,15.472813 11.52972,15.473034 11.529946,15.405978 11.529946,15.330049" style="fill: white" /><polygon type="contour" points="11.630928,15.092476 11.630928,15.193467 11.572017,15.193658 11.529946,15.193393 11.529946,14.997766 11.570297,14.99763 11.630733,14.997544" style="fill: white" /><polygon type="contour" points="11.570296,13.18955 11.58017,13.189775 11.612955,13.189595 11.628155,13.189595 11.63061,13.189705 11.63061,13.354555 11.630344,13.477286 11.630493,13.477286 11.630493,13.592868 11.630733,13.80961 11.559492,13.809497 11.529946,13.809435 11.529946,13.653727 11.529703,13.477202 11.529703,13.3153 11.529946,13.18952" style="fill: white" /><polygon type="contour" points="12.185181,13.191145 12.185181,13.314138 12.18538,13.408815 12.18538,13.535676 12.185475,13.809769 12.140071,13.809658 12.084416,13.80949 12.084416,13.7325 12.084693,13.408762 12.084635,13.408762 12.084635,13.36245 12.084416,13.190864 12.109159,13.190929 12.109454,13.190745" style="fill: white" /><polygon type="contour" points="12.74058,13.192745 12.74058,13.39781 12.740333,13.477069 12.740546,13.477068 12.740546,13.80957 12.73595,13.809586 12.639414,13.809534 12.639414,13.761374 12.639053,13.477417 12.639053,13.378555 12.639414,13.192272 12.65329,13.192207" style="fill: white" /><polygon type="contour" points="13.809918,13.149728 13.810026,13.256208 13.809883,13.345176 13.809883,13.345988 13.809763,13.348565 13.809972,13.351259 13.809815,13.354402 13.809794,13.357992 13.809883,13.361981 13.809863,13.477307 13.809875,13.477307 13.809875,13.511797 13.809685,13.809687 13.715335,13.809687 13.477304,13.809878 13.477305,13.809795 13.366406,13.809929 13.363077,13.809899 13.358999,13.809926 13.355393,13.809897 13.352183,13.809756 13.349864,13.80982 13.346746,13.809811 13.34426,13.809886 13.341989,13.809913 13.339753,13.809818 13.337499,13.809882 13.335282,13.809877 13.333259,13.809864 13.331752,13.809847 13.302808,13.810017 13.291671,13.810028 13.256204,13.810028 13.149727,13.80992 13.073357,13.809994 13.073209,13.684112 13.073394,13.477413 13.074297,13.477415 13.075232,13.237324 13.074999,13.193204 13.077842,13.193483 13.118549,13.193255 13.126342,13.192952 13.191792,13.191794 13.193254,13.118552 13.193153,13.075233 13.193285,13.075061 13.241021,13.075061 13.273,13.075321 13.340762,13.074661 13.476793,13.074661 13.476792,13.073358 13.809732,13.073358" style="fill: white" /><polygon type="contour" points="13.809532,12.639416 13.809481,12.653006 13.809567,12.740547 13.477066,12.740547 13.477067,12.740334 13.397808,12.740581 13.192744,12.740581 13.192763,12.735952 13.192271,12.639416 13.228973,12.639416 13.408754,12.639055 13.517044,12.639055" style="fill: white" /><polygon type="contour" points="13.477346,12.084728 13.477346,12.084636 13.541858,12.084636 13.809488,12.084417 13.809538,12.105525 13.809767,12.185476 13.535672,12.185383 13.366485,12.185383 13.191144,12.185183 13.190999,12.130877 13.190863,12.084417 13.246133,12.084417" style="fill: white" /><polygon type="contour" points="13.809432,11.529947 13.809494,11.570297 13.809608,11.630734 13.592865,11.630496 13.329337,11.630496 13.189704,11.630611 13.189688,11.576425 13.189548,11.570297 13.189517,11.529947 13.295399,11.529947 13.408679,11.529704 13.614525,11.529704" style="fill: white" /><polygon type="contour" points="11.014682,5.321531 11.039717,5.321575 11.172467,5.321799 11.180345,5.321964 11.180345,5.654465 11.180268,5.654464 11.180419,5.788562 11.180419,5.943014 11.09003,5.943228 11.082954,5.943263 11.045724,5.943364 10.999052,5.943425 10.426771,5.944742 10.190823,5.945496 10.067192,5.94573 10.042799,5.945809 9.726608,5.946641 9.700423,5.946641 9.642552,5.946861 9.584681,5.946861 9.577579,5.946891 9.573484,5.947241 9.566199,5.947241 9.554626,5.946891 9.547495,5.946861 9.489626,5.946861 9.177499,5.94604 9.116499,5.945808 8.719373,5.944788 8.272108,5.943476 8.137483,5.94344 8.085975,5.943364 8.048744,5.943263 8.031975,5.943222 7.951281,5.943014 7.951281,5.788562 7.951431,5.654463 7.951355,5.654465 7.951355,5.321964 8.026367,5.321875 8.091982,5.321576 8.117267,5.3216 8.147732,5.32153 8.234448,5.321662 8.646678,5.322254 10.061988,5.322254 10.098439,5.321861 10.190866,5.321941 10.380812,5.322358 10.428142,5.321924 10.569451,5.322269 10.94126,5.32166 11.014082,5.321518" style="fill: white" /><polygon type="contour" points="11.630493,5.538835 11.630493,5.802365 11.63061,5.941999 11.576422,5.942014 11.570296,5.942152 11.529946,5.942181 11.529946,5.8363 11.529703,5.723021 11.529703,5.517176 11.529946,5.32227 11.570296,5.322207 11.630733,5.322094" style="fill: white" /><polygon type="contour" points="12.18538,5.596027 12.18538,5.765216 12.185181,5.940557 12.130877,5.940701 12.084416,5.94084 12.084416,5.885568 12.084727,5.654356 12.084635,5.654356 12.084635,5.589843 12.084416,5.322214 12.105524,5.322164 12.185475,5.321935" style="fill: white" /><polygon type="contour" points="13.149727,5.321782 13.345173,5.321816 13.346745,5.321891 13.349315,5.32191 13.352182,5.321947 13.355393,5.321805 13.359,5.321776 13.363301,5.321937 13.367626,5.321818 13.477305,5.321833 13.477305,5.321824 13.511793,5.321824 13.809685,5.322017 13.809685,5.416366 13.809919,5.710169 13.809727,5.765397 13.809883,5.769721 13.809793,5.77371 13.809742,5.777165 13.809972,5.780444 13.809864,5.782936 13.809883,5.785717 13.809883,5.78815 13.809836,5.790361 13.809945,5.792629 13.809834,5.794467 13.80998,5.797019 13.80985,5.79899 13.810025,5.840029 13.810026,5.875496 13.809919,5.981972 13.809732,6.058344 13.476792,6.058344 13.476793,6.057042 13.340762,6.057042 13.273001,6.056381 13.241021,6.056641 13.193285,6.056641 13.193733,6.054756 13.193253,6.013151 13.192951,6.005358 13.191792,5.93991 13.118549,5.938448 13.075231,5.938548 13.075059,5.938417 13.075232,5.894379 13.074299,5.654724 13.073003,5.654721 13.073144,5.479085 13.073529,5.460783 13.073399,5.321601" style="fill: white" /><polygon type="contour" points="12.740546,5.654633 12.740333,5.654633 12.74058,5.733895 12.74058,5.938958 12.73595,5.938939 12.639414,5.939432 12.639414,5.902729 12.639053,5.722948 12.639053,5.614656 12.639414,5.322169 12.653003,5.322221 12.740546,5.322134" style="fill: white" /><polygon type="contour" points="13.477067,6.391369 13.477067,6.391157 13.809567,6.391157 13.809583,6.395751 13.809532,6.492288 13.761372,6.492288 13.477414,6.492646 13.378552,6.492646 13.192271,6.492288 13.192206,6.478412 13.192744,6.391123 13.397808,6.391123" style="fill: white" /><polygon type="contour" points="13.809658,6.99163 13.809488,7.047285 13.732498,7.047285 13.408759,7.047007 13.408759,7.047066 13.362447,7.047066 13.190863,7.047285 13.190899,7.033277 13.190687,7.0183 13.191144,6.946521 13.314137,6.946521 13.408813,6.946322 13.535672,6.946322 13.809767,6.946228" style="fill: white" /><polygon type="contour" points="13.477239,7.951431 13.477238,7.951356 13.809737,7.951356 13.809826,8.026368 13.810125,8.091984 13.810101,8.117269 13.810171,8.147734 13.810037,8.234451 13.809448,8.646679 13.809448,10.06199 13.809841,10.098441 13.80976,10.190868 13.809344,10.380814 13.809778,10.428144 13.809434,10.569453 13.810041,10.941262 13.810184,11.014084 13.810171,11.014683 13.810124,11.03972 13.809903,11.172468 13.809736,11.180347 13.477238,11.180347 13.477238,11.18027 13.34314,11.180421 13.188689,11.180421 13.188473,11.090032 13.188439,11.082956 13.188339,11.045726 13.188277,10.999054 13.18696,10.426773 13.186204,10.129127 13.185971,10.067194 13.185892,10.042801 13.185061,9.726609 13.185061,9.700426 13.184841,9.642555 13.184841,9.584684 13.184812,9.577581 13.184462,9.573487 13.184462,9.566202 13.184811,9.554628 13.184842,9.547498 13.184841,9.489628 13.18566,9.1775 13.185892,9.116502 13.186913,8.719375 13.188227,8.272109 13.188262,8.137485 13.188338,8.085977 13.188439,8.048746 13.18848,8.031976 13.188689,7.951283 13.343141,7.951283" style="fill: white" /><polygon type="contour" points="13.809495,7.572209 13.809432,7.601757 13.653724,7.601757 13.477198,7.602 13.315298,7.602 13.189517,7.601757 13.189548,7.561406 13.189689,7.555278 13.189704,7.501093 13.354552,7.501093 13.477283,7.501356 13.477283,7.501209 13.592865,7.501209 13.809608,7.500969" style="fill: white" /><polygon type="contour" points="15.193516,8.129511 15.192696,8.259901 15.192741,8.30321 15.19346,8.735686 15.193482,8.975791 15.193482,10.470795 15.193449,10.494597 15.192727,10.880798 15.193533,11.00738 15.193602,11.180347 14.997603,11.180347 14.997561,11.003584 14.997367,10.873826 14.997424,10.764737 14.997917,10.2182 14.997917,8.872866 14.997424,8.348216 14.997328,8.257563 14.997537,8.127902 14.997603,7.951356 15.193602,7.951356" style="fill: white" /><polygon type="contour" points="15.568521,7.95342 15.568421,8.994358 15.56817,9.456048 15.568125,10.031971 15.568197,10.03414 15.568214,10.057857 15.568242,10.106884 15.568309,10.317851 15.568255,10.812541 15.568246,10.874006 15.568498,11.003304 15.568478,11.180919 15.385591,11.180919 15.330389,11.180347 15.330522,11.178282 15.330466,10.8341 15.33023,10.624837 15.330361,9.007301 15.33023,8.507054 15.330465,8.297723 15.330389,7.951356 15.568389,7.951356" style="fill: white" /><polygon type="contour" points="15.193657,7.559685 15.193392,7.601757 14.997764,7.601757 14.997627,7.561404 14.997541,7.500969 15.092473,7.500774 15.193464,7.500774" style="fill: white" /><polygon type="contour" points="15.472876,7.501093 15.472969,7.554901 15.472811,7.561405 15.473032,7.601983 15.405975,7.601757 15.330047,7.601757 15.330292,7.561405 15.330525,7.500774 15.403741,7.500774" style="fill: white" /><polygon type="contour" points="15.473244,6.946165 15.473087,7.000824 15.472883,7.047285 15.330082,7.047285 15.330141,7.026175 15.330416,6.946332 15.37293,6.946123" style="fill: white" /><polygon type="contour" points="15.135137,6.946332 15.193492,6.946332 15.193383,6.978942 15.193079,7.047285 14.997779,7.047285 14.997698,7.026176 14.99763,6.946228" style="fill: white" /><polygon type="contour" points="15.193345,6.395751 15.193082,6.492288 14.997782,6.492288 14.997819,6.478697 14.998056,6.391157 15.193357,6.391157" style="fill: white" /><polygon type="contour" points="15.47308,6.395751 15.472958,6.492288 15.330157,6.492288 15.330147,6.478697 15.330276,6.391157 15.336249,6.391127 15.473048,6.391127" style="fill: white" /><polygon type="contour" points="15.473062,5.619908 15.473188,5.723332 15.572169,5.723332 15.57661,5.723036 15.663396,5.723008 15.663561,5.793268 15.663561,6.05604 15.574315,6.056207 15.519946,6.056437 15.435707,6.056437 15.410513,6.057738 15.330591,6.057143 15.330596,6.040451 15.330548,5.984091 15.330285,5.765663 15.330318,5.765574 15.330323,5.673348 15.33026,5.619907 15.330338,5.322022 15.357071,5.322022 15.473203,5.322017" style="fill: white" /><polygon type="contour" points="15.193524,5.322022 15.193116,5.619908 15.19315,5.656182 15.193148,5.761762 15.193068,5.764586 15.193064,5.768085 15.193129,5.772672 15.19308,5.776405 15.193137,5.780744 15.193113,5.781837 15.193489,5.971499 15.193582,5.976553 15.19322,6.022854 15.192944,6.042957 15.192853,6.057389 15.111529,6.057389 14.997453,6.05736 14.997472,5.999411 14.997783,5.911392 14.997814,5.781635 14.997855,5.777165 14.99783,5.772673 14.997812,5.768623 14.997773,5.765221 14.997794,5.762556 14.997855,5.654397 14.997817,5.654397 14.997817,5.619907 14.997912,5.322017 15.053213,5.322017" style="fill: white" /><polygon type="contour" points="15.663375,3.468326 15.663375,3.533226 15.663204,3.60944 15.663396,3.801507 15.57217,3.801159 15.480599,3.801159 15.477508,3.801292 15.473212,3.801288 15.330413,3.801288 15.330413,3.658489 15.330409,3.654195 15.330543,3.559531 15.330164,3.555091 15.330067,3.468434 15.379929,3.468318 15.3816,3.468031" style="fill: white" /><polygon type="contour" points="15.473361,4.084228 15.473203,4.133789 15.357071,4.134045 15.330338,4.134045 15.330438,4.101743 15.330438,3.938104 15.473239,3.938104" style="fill: white" /><polygon type="contour" points="15.193525,3.974738 15.193525,4.134045 15.156964,4.134045 14.997912,4.13379 14.997912,4.078486 14.997656,3.938176 15.029957,3.938104 15.193598,3.938104" style="fill: white" /><polygon type="contour" points="15.193598,3.801262 15.156964,3.801363 14.997656,3.801363 14.997656,3.774629 14.997912,3.658502 15.156964,3.658565 15.193598,3.658463" style="fill: white" /><polygon type="contour" points="13.408696,3.468307 13.408371,3.55953 13.408797,3.658514 13.511793,3.658639 13.809685,3.658502 13.809679,3.774629 13.809679,3.801363 13.511794,3.801441 13.408778,3.801318 13.408778,3.801422 13.371104,3.801395 13.369145,3.801374 13.366081,3.801399 13.362985,3.801396 13.362231,3.801416 13.359028,3.801458 13.358116,3.801479 13.353732,3.801436 13.349168,3.801323 13.286265,3.801384 13.121633,3.801304 13.112516,3.800916 13.110179,3.801055 13.091249,3.801105 13.074566,3.801433 13.075265,3.695995 13.075265,3.658381 13.076556,3.658523 13.075338,3.59125 13.075469,3.563531 13.075496,3.557387 13.07553,3.555447 13.07566,3.468141 13.338434,3.468141" style="fill: white" /><polygon type="contour" points="12.740546,3.664627 12.740546,3.801423 12.735949,3.801421 12.639414,3.801544 12.639414,3.78086 12.639412,3.658743 12.653095,3.658848 12.740575,3.658653" style="fill: white" /><polygon type="contour" points="13.152504,3.938228 13.345174,3.938596 13.348865,3.938611 13.353157,3.938555 13.357542,3.938567 13.361652,3.938605 13.365456,3.938591 13.444072,3.93852 13.511793,3.938585 13.809679,3.938176 13.809679,3.974738 13.809685,4.13379 13.715335,4.13379 13.477304,4.133885 13.477304,4.133877 13.365455,4.13389 13.361652,4.133905 13.357542,4.133866 13.353158,4.133954 13.348864,4.133911 13.344667,4.133896 13.220308,4.133917 13.13229,4.134228 13.07434,4.134248 13.07434,3.938249 13.08745,3.938281 13.108847,3.93848 13.118566,3.938008" style="fill: white" /><polygon type="contour" points="12.740546,4.133645 12.73595,4.133657 12.639414,4.13392 12.639414,3.93862 12.653004,3.938581 12.740546,3.938344" style="fill: white" /><polygon type="contour" points="12.185371,3.996563 12.185475,4.134072 12.140072,4.133912 12.084416,4.133923 12.084416,3.938623 12.105525,3.938556 12.185371,3.93821" style="fill: white" /><polygon type="contour" points="12.185579,3.758769 12.185371,3.801286 12.15276,3.801377 12.084416,3.801618 12.084416,3.658818 12.105671,3.658759 12.185538,3.658458" style="fill: white" /><polygon type="contour" points="11.570296,3.65889 11.576801,3.65873 11.63061,3.658825 11.63061,3.761477 11.630928,3.801178 11.572016,3.801515 11.529862,3.801416 11.529623,3.73017 11.52972,3.65867" style="fill: white" /><polygon type="contour" points="11.630928,4.039227 11.630733,4.134159 11.559492,4.13394 11.529946,4.133938 11.529946,3.93831 11.570296,3.938494 11.630928,3.938237" style="fill: white" /><polygon type="contour" points="11.180345,4.1341 11.003581,4.134142 10.873824,4.134334 10.764735,4.134277 10.218199,4.133785 8.872864,4.133785 8.348214,4.134278 8.257561,4.134373 8.1279,4.134165 7.951355,4.1341 7.951355,3.9381 8.129508,3.938186 8.259899,3.938407 8.303209,3.938371 8.735685,3.938242 8.975789,3.93822 10.470793,3.93822 10.494596,3.938251 10.880795,3.938377 11.007378,3.938169 11.180345,3.9381" style="fill: white" /><polygon type="contour" points="9.418998,3.563354 9.463925,3.563318 10.008429,3.563318 10.166537,3.563392 10.431484,3.563458 10.872007,3.563477 10.901903,3.56349 11.020476,3.563223 11.180345,3.563312 11.180345,3.801313 11.178281,3.801181 10.834098,3.801237 10.624834,3.801472 9.0073,3.801339 8.507052,3.801472 8.29772,3.801237 7.951355,3.801313 7.951355,3.563313 8.128398,3.563203 8.699244,3.563146 8.814459,3.56314" style="fill: white" /><polygon type="contour" points="5.943187,8.018905 5.943221,8.031976 5.943101,8.101225 5.943112,8.117105 5.944138,8.421697 5.944261,8.443318 5.944941,8.614559 5.945516,8.835005 5.945729,9.092426 5.945807,9.116502 5.946038,9.1775 5.946859,9.489628 5.946859,9.547498 5.946889,9.554628 5.947238,9.558792 5.947238,9.566201 5.946889,9.577582 5.946859,9.584684 5.946859,9.642555 5.946038,9.954203 5.945807,10.015201 5.945517,10.296698 5.944941,10.517144 5.944261,10.688385 5.944138,10.710006 5.943112,11.014597 5.943101,11.030477 5.943221,11.099727 5.943187,11.112798 5.942982,11.180347 5.321962,11.180347 5.321873,11.105335 5.321574,11.039719 5.32153,11.014684 5.321517,11.014084 5.321982,10.709609 5.321982,9.106193 5.322266,9.100297 5.321659,8.426969 5.321517,8.412665 5.321719,8.407009 5.321531,8.334662 5.321488,8.262673 5.321662,8.234451 5.321529,8.147734 5.321599,8.117269 5.321575,8.091984 5.321796,7.959235 5.321962,7.951356 5.942982,7.951356" style="fill: white" /><polygon type="contour" points="5.538834,7.501209 5.802363,7.501209 5.941996,7.501093 5.942011,7.555277 5.942149,7.561406 5.942178,7.601757 5.836299,7.601757 5.723019,7.602 5.517175,7.602 5.322268,7.601757 5.322205,7.561406 5.322092,7.500969" style="fill: white" /><polygon type="contour" points="5.596027,6.946322 5.765215,6.946322 5.940555,6.946521 5.940699,7.000825 5.940855,7.00142 5.940838,7.047285 5.885566,7.047285 5.654355,7.046973 5.654355,7.047066 5.589842,7.047066 5.322212,7.047285 5.322162,7.026176 5.321933,6.946228" style="fill: white" /><polygon type="contour" points="5.938936,6.395751 5.939429,6.492288 5.902727,6.492288 5.722945,6.492646 5.614655,6.492646 5.322167,6.492288 5.322219,6.478698 5.322132,6.391157 5.65463,6.391157 5.65463,6.391369 5.733892,6.391123 5.938956,6.391123" style="fill: white" /><polygon type="contour" points="5.875495,5.321675 5.98197,5.321781 6.058342,5.32197 6.05849,5.447591 6.058306,5.65429 6.057401,5.654288 6.056466,5.89438 6.056699,5.938501 6.053858,5.938221 6.01315,5.938448 6.005358,5.938751 5.939908,5.939909 5.938445,6.013152 5.938548,6.056468 5.938416,6.056641 5.890678,6.056641 5.858699,6.056381 5.790938,6.057042 5.654906,6.057042 5.654907,6.058344 5.321708,6.058344 5.32178,5.981972 5.321672,5.875496 5.321815,5.786528 5.321815,5.785717 5.321935,5.783139 5.321726,5.780443 5.321954,5.777166 5.321903,5.77371 5.321816,5.769721 5.321833,5.654397 5.321823,5.654397 5.321823,5.619908 5.322015,5.322017 5.416363,5.322017 5.654395,5.321824 5.654395,5.321835 5.764074,5.321817 5.768399,5.321937 5.772576,5.321941 5.776305,5.321805 5.779518,5.321947 5.782384,5.321909 5.784954,5.321889 5.787438,5.321816 5.789711,5.321789 5.791929,5.321882 5.794465,5.321866 5.796417,5.321824 5.798441,5.321837 5.799946,5.321855 5.828892,5.321685 5.840029,5.321674" style="fill: white" /><polygon type="contour" points="6.492286,5.322169 6.492286,5.370328 6.492645,5.654285 6.492645,5.753148 6.492285,5.939432 6.47841,5.939497 6.391121,5.938959 6.391121,5.733895 6.391367,5.654633 6.391155,5.654634 6.391155,5.322133 6.395749,5.322118" style="fill: white" /><polygon type="contour" points="6.991628,5.322044 7.047283,5.322214 7.047283,5.399203 7.047005,5.722942 7.047064,5.722942 7.047064,5.769253 7.047283,5.94084 7.03276,5.940801 7.018298,5.941014 6.946519,5.940557 6.946519,5.817565 6.94632,5.722888 6.94632,5.596028 6.946226,5.321935" style="fill: white" /><polygon type="contour" points="7.572208,5.322207 7.601755,5.32227 7.601755,5.477976 7.601998,5.654503 7.601998,5.816403 7.601755,5.942181 7.561403,5.942152 7.555274,5.942014 7.50109,5.941999 7.50109,5.777148 7.501355,5.654418 7.501207,5.654418 7.501207,5.538835 7.500967,5.322094" style="fill: white" /><polygon type="contour" points="7.561403,3.65889 7.601981,3.65867 7.601755,3.725725 7.601755,3.801654 7.561403,3.80141 7.500772,3.801178 7.500772,3.72796 7.50109,3.658825 7.555641,3.658646" style="fill: white" /><polygon type="contour" points="7.601755,3.93831 7.601755,4.133938 7.561403,4.134073 7.500967,4.134159 7.500772,4.039227 7.500772,3.938237 7.559683,3.938045" style="fill: white" /><polygon type="contour" points="6.978939,3.938316 7.047283,3.938623 7.047283,4.133923 7.026174,4.134002 6.946226,4.134071 6.94633,3.996563 6.94633,3.93821" style="fill: white" /><polygon type="contour" points="7.000822,3.658613 7.047283,3.658818 7.047283,3.801618 7.026173,3.801558 6.94633,3.801286 6.946121,3.75877 6.946162,3.658458" style="fill: white" /><polygon type="contour" points="6.492286,3.658743 6.492286,3.801544 6.478696,3.801554 6.391155,3.801423 6.391126,3.795448 6.391126,3.658652 6.395749,3.658621" style="fill: white" /><polygon type="contour" points="6.395749,3.938355 6.492286,3.93862 6.492286,4.13392 6.478696,4.133881 6.391155,4.133645 6.391155,3.938344" style="fill: white" /><polygon type="contour" points="6.022852,3.93848 6.042956,3.938757 6.057387,3.938557 6.057387,4.020172 6.05736,4.134248 5.999411,4.134228 5.91139,4.133917 5.787032,4.133896 5.782834,4.133911 5.778541,4.133954 5.774157,4.133865 5.770047,4.133905 5.766245,4.13389 5.654396,4.133877 5.654396,4.133885 5.619905,4.133885 5.322015,4.13379 5.322015,4.078486 5.32202,3.938176 5.619906,3.938585 5.687626,3.93852 5.766245,3.938591 5.770047,3.938605 5.774157,3.938567 5.77854,3.938555 5.782835,3.938611 5.786526,3.938596 5.979195,3.938228 6.013133,3.938008" style="fill: white" /><polygon type="contour" points="6.056205,3.557387 6.056231,3.563532 6.056205,3.591234 6.056085,3.606604 6.055918,3.658387 6.056353,3.658446 6.056435,3.695994 6.057736,3.721187 6.057141,3.80111 6.040449,3.801106 6.021519,3.80154 5.906049,3.801539 5.777164,3.801402 5.765674,3.801418 5.765632,3.801438 5.758568,3.801396 5.68526,3.801363 5.619905,3.801441 5.32202,3.801363 5.32202,3.774629 5.322015,3.658502 5.619906,3.658639 5.723329,3.658513 5.723329,3.559531 5.723033,3.55509 5.723005,3.468307 5.793265,3.468141 6.056038,3.468141" style="fill: white" /><polygon type="contour" points="3.75177,3.468318 3.801633,3.468434 3.801158,3.55953 3.801158,3.651103 3.801291,3.654195 3.801287,3.658489 3.801287,3.801288 3.658487,3.801288 3.654193,3.801292 3.55953,3.801159 3.55509,3.801537 3.468305,3.801507 3.468494,3.60944 3.468324,3.533227 3.468324,3.468326 3.750097,3.468031" style="fill: white" /><polygon type="contour" points="4.133788,3.658502 4.134044,3.774629 4.134044,3.801363 4.101741,3.801262 3.938102,3.801262 3.938102,3.658462 4.084227,3.658343" style="fill: white" /><polygon type="contour" points="3.974735,3.938176 4.134044,3.938176 4.134044,3.974738 4.133788,4.13379 4.078485,4.13379 3.938174,4.134045 3.938102,4.101742 3.938102,3.938104" style="fill: white" /><polygon type="contour" points="3.801261,4.101742 3.801362,4.134045 3.698934,4.13379 3.658499,4.133789 3.658563,3.974737 3.658462,3.938104 3.801261,3.938104" style="fill: white" /><polygon type="contour" points="3.774628,5.322022 3.801362,5.322022 3.801282,5.372711 3.801426,5.719864 3.80137,5.760417 3.801447,5.762659 3.801398,5.765618 3.801395,5.768715 3.801415,5.769468 3.801457,5.772672 3.801478,5.773585 3.801435,5.777969 3.801434,5.781836 3.801151,5.984091 3.801104,6.040451 3.801433,6.057135 3.695993,6.056437 3.611744,6.056437 3.557385,6.056207 3.555445,6.056172 3.468139,6.05604 3.468139,5.793268 3.468304,5.723006 3.559529,5.723331 3.658515,5.722902 3.658638,5.619907 3.658499,5.322017" style="fill: white" /><polygon type="contour" points="4.133788,5.416366 4.133883,5.654397 4.133811,5.654397 4.133927,5.765221 4.133979,5.768624 4.13387,5.772673 4.133905,5.7773 4.133885,5.781837 4.133916,5.911391 4.134227,5.99941 4.134247,6.057361 3.938247,6.057361 3.93828,6.044251 3.938479,6.022853 3.938117,5.976554 3.938167,5.969782 3.938562,5.780744 3.938583,5.776538 3.938549,5.772046 3.938587,5.768624 3.938598,5.764685 3.938552,5.761762 3.938549,5.656182 3.938584,5.619908 3.938174,5.322022 3.974735,5.322022 4.133788,5.322017" style="fill: white" /><polygon type="contour" points="4.133654,6.395751 4.133919,6.492288 3.938618,6.492288 3.938579,6.478697 3.938341,6.391157 4.133641,6.391157" style="fill: white" /><polygon type="contour" points="3.664625,6.391157 3.801422,6.391157 3.801419,6.395751 3.801542,6.492288 3.658742,6.492288 3.658847,6.478604 3.658652,6.391127" style="fill: white" /><polygon type="contour" points="3.801284,6.946332 3.801377,6.978942 3.801616,7.047285 3.658817,7.047285 3.658757,7.026028 3.658456,6.946165 3.758769,6.946123" style="fill: white" /><polygon type="contour" points="4.133911,6.991631 4.133921,7.047285 3.938621,7.047285 3.938554,7.026176 3.938208,6.946332 3.996561,6.946332 4.13407,6.946228" style="fill: white" /><polygon type="contour" points="4.134158,7.500969 4.133938,7.572209 4.133936,7.601757 3.938309,7.601757 3.938492,7.561406 3.938235,7.500774 4.039225,7.500774" style="fill: white" /><polygon type="contour" points="3.801513,7.559684 3.801652,7.601757 3.734295,7.601983 3.658669,7.601983 3.658888,7.561405 3.658729,7.554901 3.658823,7.501093 3.761475,7.501093 3.801177,7.500774" style="fill: white" /><polygon type="contour" points="3.801311,7.951356 3.801179,7.95342 3.801235,8.297723 3.801469,8.507053 3.801339,10.124744 3.80147,10.624836 3.801235,10.8341 3.801311,11.180347 3.618066,11.180347 3.563222,11.180919 3.56322,10.304182 3.563263,9.112957 3.563144,9.021211 3.563138,8.966321 3.563195,8.700422 3.563475,8.259694 3.563488,8.229799 3.563222,8.111225 3.563222,7.950785 3.746109,7.950785" style="fill: white" /><polygon type="contour" points="4.134163,8.127902 4.134371,8.257563 4.134276,8.348216 4.133783,8.872866 4.133783,10.2182 4.134276,10.764737 4.134333,10.873826 4.134141,11.003583 4.134099,11.180347 3.938098,11.180347 3.93817,11.178282 3.938167,11.00738 3.938375,10.880798 3.938249,10.494597 3.938218,10.470795 3.938241,10.194534 3.938241,8.735687 3.938311,8.65815 3.938405,8.2599 3.938185,8.129511 3.938099,7.951356 4.134098,7.951356" style="fill: white" /><polygon type="contour" points="4.134227,13.132293 4.133916,13.220312 4.133885,13.349866 4.133843,13.354538 4.13387,13.35903 4.133908,13.362853 4.133927,13.366481 4.133905,13.369147 4.133844,13.477307 4.133883,13.477307 4.133883,13.511797 4.133788,13.809687 4.078485,13.809687 3.938174,13.809681 3.938584,13.511797 3.938549,13.475521 3.938551,13.369941 3.938632,13.367117 3.938636,13.363619 3.938549,13.359658 3.93862,13.355297 3.938562,13.350959 3.938586,13.349866 3.93821,13.160205 3.938117,13.155151 3.938479,13.108849 3.93828,13.087452 3.938247,13.074343 4.134247,13.074343" style="fill: white" /><polygon type="contour" points="3.801108,13.074559 3.801103,13.09125 3.801151,13.14761 3.801402,13.354671 3.801339,13.365772 3.801398,13.365996 3.801398,13.366084 3.801363,13.369034 3.801429,13.369758 3.801428,13.372931 3.801345,13.432931 3.80144,13.511797 3.801362,13.809681 3.774628,13.809681 3.658499,13.809687 3.658638,13.511797 3.658514,13.408372 3.55953,13.408372 3.55509,13.408665 3.468304,13.408697 3.468139,13.338435 3.468139,13.075662 3.557385,13.075497 3.563529,13.075471 3.591233,13.075498 3.658462,13.076018 3.658379,13.075266 3.695993,13.075266 3.721186,13.073965" style="fill: white" /><polygon type="contour" points="3.801552,12.653005 3.801422,12.740547 3.795447,12.740576 3.658651,12.740576 3.65862,12.735952 3.658742,12.639416 3.801541,12.639416" style="fill: white" /><polygon type="contour" points="4.13388,12.653006 4.133641,12.740547 3.938341,12.740547 3.938353,12.735952 3.938618,12.639416 4.133919,12.639416" style="fill: white" /><polygon type="contour" points="4.134,12.105525 4.13407,12.185476 3.996562,12.185373 3.938208,12.185373 3.938316,12.152761 3.938621,12.084417 4.133921,12.084417" style="fill: white" /><polygon type="contour" points="3.801557,12.105525 3.801284,12.185373 3.758769,12.185581 3.658456,12.185539 3.658613,12.130878 3.658817,12.084417 3.801616,12.084417" style="fill: white" /><polygon type="contour" points="3.725724,11.529947 3.801652,11.529947 3.801407,11.570298 3.801177,11.63093 3.727957,11.63093 3.658823,11.630611 3.658729,11.576802 3.658888,11.570298 3.658669,11.529721" style="fill: white" /><polygon type="contour" points="4.134072,11.570298 4.134158,11.630734 4.039225,11.63093 3.938235,11.63093 3.938042,11.572019 3.938309,11.529947 4.133936,11.529947" style="fill: white" /><polygon type="contour" points="5.942178,11.529947 5.942149,11.570297 5.941926,11.580184 5.942106,11.612956 5.942106,11.628156 5.941996,11.630611 5.777146,11.630611 5.654417,11.63035 5.654417,11.630496 5.538834,11.630496 5.322092,11.630733 5.322206,11.559493 5.322268,11.529947 5.477975,11.529947 5.654501,11.529704 5.816401,11.529704" style="fill: white" /><polygon type="contour" points="5.72294,12.084694 5.72294,12.084636 5.769252,12.084636 5.940838,12.084417 5.940772,12.109163 5.940955,12.109456 5.940555,12.185183 5.817562,12.185183 5.722886,12.185383 5.596027,12.185383 5.321933,12.185475 5.322042,12.140072 5.322212,12.084417 5.399201,12.084417" style="fill: white" /><polygon type="contour" points="5.654906,13.074661 5.790938,13.074661 5.858699,13.075321 5.890678,13.075061 5.938416,13.075061 5.937968,13.076948 5.938446,13.118552 5.938446,13.12318 5.938777,13.126154 5.939759,13.191056 6.01315,13.193255 6.056467,13.193156 6.05664,13.193288 6.056466,13.237325 6.057399,13.476816 6.058827,13.476816 6.058698,13.587305 6.058152,13.604513 6.058342,13.809994 5.981971,13.809921 5.786527,13.809886 5.784953,13.809811 5.781835,13.80982 5.779517,13.809755 5.776306,13.809896 5.772699,13.809926 5.768398,13.809766 5.722939,13.809878 5.619905,13.809878 5.322015,13.809687 5.322015,13.715337 5.321778,13.421643 5.32197,13.366306 5.321815,13.361982 5.321904,13.357992 5.321883,13.354402 5.321726,13.351259 5.321834,13.348766 5.321815,13.345987 5.321815,13.343554 5.321862,13.341344 5.321753,13.339074 5.321838,13.336808 5.321718,13.334685 5.321848,13.332713 5.321673,13.291674 5.321673,13.256208 5.32178,13.149728 5.321708,13.073358 5.654907,13.073358" style="fill: white" /><polygon type="contour" points="5.939429,12.639416 5.939495,12.653291 5.938957,12.740581 5.733892,12.740581 5.65463,12.740334 5.65463,12.740547 5.322131,12.740547 5.322116,12.735952 5.322167,12.639416 5.370325,12.639416 5.654285,12.639055 5.753147,12.639055" style="fill: white" /><polygon type="contour" points="6.492286,13.228974 6.492645,13.408757 6.492645,13.517047 6.492286,13.809534 6.478696,13.809483 6.391155,13.80957 6.391155,13.477069 6.391367,13.477069 6.391121,13.39781 6.391121,13.192745 6.395749,13.192764 6.492286,13.192272" style="fill: white" /><polygon type="contour" points="7.047283,13.190864 7.047283,13.246135 7.046971,13.477349 7.047064,13.477349 7.047064,13.54186 7.047283,13.80949 7.026174,13.80954 6.946226,13.809769 6.94632,13.535675 6.94632,13.366487 6.946519,13.191145 7.000823,13.191002 7.001418,13.190846" style="fill: white" /><polygon type="contour" points="7.601755,13.2954 7.601998,13.408683 7.601998,13.614529 7.601754,13.809435 7.561403,13.809496 7.500967,13.80961 7.501207,13.592868 7.501207,13.329338 7.50109,13.189705 7.555275,13.18969 7.561402,13.18955 7.601755,13.18952" style="fill: white" /><polygon type="contour" points="8.348214,14.997425 8.872864,14.997918 10.2182,14.997918 10.764735,14.997426 10.873824,14.997369 11.003581,14.997562 11.180345,14.997604 11.180345,15.193603 11.17828,15.193531 11.007379,15.193534 10.880795,15.19273 10.494595,15.193452 10.470793,15.193485 10.194532,15.193462 8.735685,15.193463 8.658148,15.193392 8.259898,15.1927 8.129509,15.193516 7.951355,15.193602 7.951355,14.997604 8.127899,14.997539 8.257562,14.99733" style="fill: white" /><polygon type="contour" points="7.601981,15.397405 7.601981,15.473034 7.561402,15.472815 7.555641,15.473058 7.50109,15.47288 7.50109,15.370226 7.500772,15.330526 7.559684,15.330189 7.601755,15.330049" style="fill: white" /><polygon type="contour" points="7.572208,14.997763 7.601755,14.997766 7.601755,15.193393 7.561403,15.19321 7.500772,15.193467 7.500772,15.092476 7.500967,14.997544" style="fill: white" /><polygon type="contour" points="6.991629,14.997793 7.047283,14.997782 7.047283,15.193081 7.026173,15.193148 6.94633,15.193495 6.94633,15.13514 6.946226,14.997632" style="fill: white" /><polygon type="contour" points="7.047283,15.472886 7.026026,15.472945 6.946162,15.473246 6.946121,15.372932 6.94633,15.330418 6.97894,15.330324 7.047283,15.330084" style="fill: white" /><polygon type="contour" points="6.492286,15.47296 6.478601,15.472856 6.391126,15.473051 6.391155,15.467076 6.391155,15.330277 6.395749,15.33028 6.492286,15.330159" style="fill: white" /><polygon type="contour" points="6.492286,15.193084 6.478696,15.193121 6.391155,15.193358 6.391155,14.998059 6.39575,14.998045 6.492286,14.997783" style="fill: white" /><polygon type="contour" points="6.05736,15.193455 6.04425,15.193423 6.022851,15.193223 6.013133,15.193695 5.979195,15.193476 5.786526,15.193107 5.782835,15.193092 5.77854,15.193148 5.774157,15.193136 5.770047,15.193098 5.766245,15.193112 5.763058,15.193101 5.693169,15.193188 5.619906,15.193118 5.32202,15.193528 5.32202,15.156966 5.322015,14.997915 5.416363,14.997915 5.654395,14.99782 5.654395,14.997829 5.766244,14.997814 5.770047,14.997799 5.774157,14.997838 5.778541,14.997751 5.782835,14.997794 5.786526,14.997809 5.911391,14.997786 5.99941,14.997475 6.05736,14.997456" style="fill: white" /><polygon type="contour" points="6.040449,15.330598 6.057141,15.330593 6.056435,15.435707 6.056353,15.473054 6.055918,15.473498 6.056085,15.5251 6.056205,15.540468 6.056231,15.568171 6.056205,15.574317 6.05617,15.576257 6.056038,15.663563 5.793265,15.663564 5.723005,15.663398 5.723329,15.572172 5.722902,15.473185 5.619905,15.473063 5.322015,15.473204 5.32202,15.357074 5.32202,15.330341 5.619905,15.330263 5.722921,15.330385 5.72292,15.330281 5.760416,15.330334 5.762554,15.330329 5.765617,15.330305 5.768714,15.330308 5.769468,15.330288 5.772671,15.330246 5.773584,15.330225 5.777967,15.330269 5.781835,15.330269 5.90605,15.330165 6.021519,15.330165" style="fill: white" /><polygon type="contour" points="4.134044,15.357073 4.133788,15.473204 3.974735,15.47314 3.938102,15.473241 3.938102,15.330441 3.974735,15.330341 4.134044,15.330341" style="fill: white" /><polygon type="contour" points="4.133788,14.997915 4.133788,15.053217 4.134044,15.193528 4.101742,15.1936 3.938102,15.1936 3.938174,15.156966 3.938174,14.997657 3.974736,14.997657" style="fill: white" /><polygon type="contour" points="3.801261,15.029959 3.801261,15.1936 3.658462,15.1936 3.658341,15.047475 3.658499,14.997915 3.774628,14.997657 3.801362,14.997657" style="fill: white" /><polygon type="contour" points="3.559529,15.330544 3.651101,15.330544 3.654193,15.330412 3.658487,15.330416 3.801287,15.330416 3.801287,15.473214 3.801291,15.477509 3.801158,15.572172 3.801535,15.576613 3.801633,15.663268 3.75177,15.663384 3.750097,15.663673 3.468324,15.663378 3.468324,15.598477 3.468494,15.522264 3.468305,15.330196" style="fill: white" />
</svg>
