<svg width="19.131698" height="19.131699">
<polygon type="contour" points="10.419355,8.876861 10.41718,8.992982 10.417171,9.01596 10.333773,9.016284 10.333773,9.420602 10.417564,9.420602 10.417642,9.438175 10.419425,9.566201 10.418921,9.648698 10.417565,9.711102 10.333773,9.711102 10.333773,10.115928 10.417172,10.115745 10.417181,10.138722 10.419355,10.254842 10.422528,10.42253 10.313132,10.421528 10.174064,10.418141 10.154839,10.417288 10.144,10.417288 10.116901,10.417285 10.11679,10.393341 10.115445,10.333775 9.711101,10.333775 9.711101,10.417154 9.693901,10.417662 9.5655,10.419527 9.490198,10.419039 9.437717,10.417662 9.4206,10.417154 9.4206,10.333775 9.016255,10.333775 9.01491,10.393341 9.0148,10.394886 9.0148,10.417285 8.9877,10.417288 8.976861,10.417288 8.957636,10.41814 8.818567,10.421528 8.709172,10.42253 8.712344,10.254842 8.714517,10.138722 8.714527,10.115745 8.797928,10.11542 8.797928,9.711102 8.714135,9.711102 8.714057,9.693613 8.712274,9.566201 8.712778,9.483308 8.714135,9.420602 8.797928,9.420602 8.797928,9.015776 8.714527,9.01596 8.714517,8.992982 8.712344,8.876861 8.709172,8.709174 8.818567,8.710176 8.957636,8.713563 8.976861,8.714416 8.9877,8.714416 9.0148,8.714418 9.014911,8.738362 9.016255,8.79793 9.4206,8.79793 9.4206,8.714548 9.437799,8.714042 9.565856,8.712177 9.641501,8.712664 9.693983,8.714041 9.711101,8.714548 9.711101,8.79793 10.115445,8.79793 10.11679,8.738362 10.116901,8.736817 10.116901,8.714419 10.144,8.714416 10.154839,8.714416 10.174064,8.713563 10.313132,8.710176 10.422527,8.709174" style="fill: white" />
</svg>
