<svg width="19.131698" height="19.131699">
<polygon type="contour" points="9.882782,9.144109 9.969401,9.145973 9.984558,9.147144 9.98744,9.234488 9.987532,9.247833 9.987859,9.261006 9.987901,9.31816 9.987939,9.37843 9.987902,9.660946 9.987461,9.760628 9.987532,9.883869 9.987439,9.897216 9.984558,9.98456 9.969401,9.985731 9.882781,9.987595 9.862224,9.988026 9.809122,9.987938 9.454894,9.987938 9.269475,9.988026 9.248918,9.987595 9.162298,9.985731 9.147142,9.98456 9.144259,9.897215 9.144022,9.891187 9.14384,9.870696 9.143798,9.660946 9.143761,9.506913 9.143761,9.37843 9.143798,9.31816 9.14384,9.261006 9.144168,9.247833 9.14426,9.234488 9.147142,9.147144 9.162298,9.145973 9.248917,9.144109 9.269476,9.143677 9.322576,9.143766 9.676805,9.143766 9.862223,9.143677" style="fill: white" />
</svg>
