<svg width="19.131698" height="19.131699">
<polygon type="contour" points="10.462452,8.652652 10.479546,8.652156 10.479156,8.665307 10.479097,8.666732 10.478943,8.680788 10.47888,8.688844 10.47878,8.955447 10.433132,8.955447 10.310569,8.955309 10.176393,8.955309 10.177601,8.746047 10.17788,8.671525 10.177954,8.669712 10.177954,8.660682 10.178246,8.651328" style="fill: white" /><polygon type="contour" points="9.582875,8.64913 9.711101,8.65283 9.711101,8.67271 9.711269,8.688843 9.711101,8.74723 9.711101,8.9557 9.4206,8.9557 9.4206,8.652429 9.54821,8.649129 9.551986,8.648952 9.5655,8.648694" style="fill: white" /><polygon type="contour" points="9.312384,9.711102 9.063693,9.711102 9.063693,9.420602 9.312384,9.420602" style="fill: white" /><polygon type="contour" points="9.312152,9.888323 9.312152,9.977916 9.312024,10.029202 9.312024,10.068009 9.243378,10.068218 9.153615,10.068218 9.102197,10.068009 9.063693,10.068009 9.063484,9.999972 9.063484,9.888323 9.063693,9.819678 9.131729,9.81955 9.153786,9.81955 9.153786,9.81985 9.272802,9.819318 9.312384,9.819318" style="fill: white" /><polygon type="contour" points="9.312384,10.176159 9.312384,10.312564 9.243379,10.312279 9.187158,10.312071 9.131728,10.312279 9.063693,10.312588 9.063693,10.176186 9.131729,10.176137 9.243379,10.176137" style="fill: white" /><polygon type="contour" points="8.82113,10.176395 8.955306,10.176395 8.954099,10.385655 8.953821,10.460177 8.953747,10.46199 8.953747,10.471019 8.953455,10.480374 8.669247,10.479052 8.652154,10.479548 8.652545,10.466395 8.652602,10.464971 8.652756,10.450915 8.652819,10.442859 8.652921,10.176257 8.698567,10.176257" style="fill: white" /><polygon type="contour" points="8.955565,9.888322 8.955565,9.999972 8.955516,10.068009 8.819115,10.068009 8.819423,9.999973 8.819631,9.944543 8.819424,9.888323 8.819138,9.819318 8.955543,9.819318" style="fill: white" /><polygon type="contour" points="8.955698,9.711102 8.648055,9.711102 8.648022,9.702762 8.648682,9.566201 8.648711,9.557224 8.648054,9.420602 8.955698,9.420602" style="fill: white" /><polygon type="contour" points="8.955565,9.131731 8.955565,9.24338 8.955543,9.312386 8.819138,9.312386 8.819424,9.24338 8.819631,9.187159 8.819424,9.131731 8.819115,9.063695 8.955516,9.063695" style="fill: white" /><polygon type="contour" points="8.953732,8.65978 8.953746,8.660681 8.953821,8.671526 8.953821,8.68761 8.954098,8.746046 8.955307,8.894572 8.955307,8.955309 8.82113,8.955309 8.698567,8.955447 8.652921,8.955447 8.652819,8.688844 8.652756,8.680788 8.652602,8.666732 8.652545,8.665308 8.652154,8.652156 8.669247,8.652651 8.953455,8.651328" style="fill: white" /><polygon type="contour" points="9.131728,8.819425 9.187158,8.819633 9.243379,8.819426 9.312384,8.819141 9.312384,8.955545 9.243379,8.955567 9.131729,8.955567 9.063693,8.955518 9.063693,8.819117" style="fill: white" /><polygon type="contour" points="9.312024,9.063695 9.312152,9.131731 9.312152,9.153788 9.311851,9.153788 9.312384,9.272804 9.312384,9.312386 9.243378,9.312154 9.131729,9.312154 9.062963,9.312386 9.063484,9.243381 9.063484,9.153615 9.063693,9.102199 9.063693,9.063695 9.131729,9.063486 9.243378,9.063486" style="fill: white" /><polygon type="contour" points="9.711101,9.312386 9.4206,9.312386 9.4206,9.063695 9.711101,9.063695" style="fill: white" /><polygon type="contour" points="9.888322,9.063486 9.978085,9.063486 10.0295,9.063695 10.068007,9.063695 10.068216,9.131731 10.068216,9.243381 10.068737,9.312386 9.999971,9.312154 9.977915,9.312154 9.977915,9.311853 9.858897,9.312386 9.819317,9.312386 9.819549,9.24338 9.819549,9.220982 9.819849,9.220982 9.819317,9.101942 9.819317,9.062966" style="fill: white" /><polygon type="contour" points="10.068007,8.955518 9.999971,8.955567 9.888321,8.955567 9.819317,8.955545 9.819317,8.819141 9.888321,8.819426 9.944542,8.819633 9.999971,8.819425 10.068007,8.819117" style="fill: white" /><polygon type="contour" points="10.312276,9.131731 10.312069,9.187159 10.312276,9.24338 10.312562,9.312386 10.176157,9.312386 10.176135,9.24338 10.176135,9.131731 10.176184,9.063695 10.312586,9.063695" style="fill: white" /><polygon type="contour" points="10.483678,9.428941 10.483017,9.565502 10.482989,9.574479 10.483645,9.711102 10.176002,9.711102 10.176002,9.420602 10.483645,9.420602" style="fill: white" /><polygon type="contour" points="10.47888,10.442859 10.478943,10.450915 10.479097,10.464971 10.479156,10.466396 10.479546,10.479548 10.462452,10.479052 10.178246,10.480373 10.177968,10.471921 10.177954,10.47102 10.17788,10.460177 10.17788,10.444091 10.177602,10.385656 10.176393,10.23713 10.176393,10.176395 10.310569,10.176395 10.433132,10.176257 10.47878,10.176257" style="fill: white" /><polygon type="contour" points="10.068007,10.176186 10.068007,10.312588 9.999971,10.312279 9.944542,10.312071 9.888321,10.312279 9.819317,10.312564 9.819317,10.176159 9.888321,10.176137 9.999971,10.176137" style="fill: white" /><polygon type="contour" points="10.312276,9.888323 10.312069,9.944543 10.312277,9.999973 10.312586,10.068009 10.176184,10.068009 10.176135,9.999972 10.176135,9.888322 10.176157,9.819318 10.312562,9.819318" style="fill: white" /><polygon type="contour" points="10.068007,9.711102 9.819317,9.711102 9.819317,9.420602 10.068007,9.420602" style="fill: white" /><polygon type="contour" points="9.711101,9.711102 9.4206,9.711102 9.4206,9.420602 9.711101,9.420602" style="fill: white" /><polygon type="contour" points="9.888322,9.81955 9.999971,9.81955 10.068007,9.819678 10.068216,9.888323 10.068216,9.978087 10.068007,10.029503 10.068007,10.068009 9.999972,10.068218 9.888322,10.068218 9.819317,10.068738 9.819549,9.999972 9.819549,9.977916 9.819849,9.977916 9.819317,9.8589 9.819317,9.819318" style="fill: white" /><polygon type="contour" points="9.711101,10.068009 9.4206,10.068009 9.4206,9.819318 9.711101,9.819318" style="fill: white" /><polygon type="contour" points="9.711101,10.479272 9.582875,10.482574 9.57908,10.482752 9.565541,10.48301 9.548209,10.482573 9.4206,10.478874 9.4206,10.458993 9.420432,10.44286 9.4206,10.384473 9.4206,10.176004 9.711101,10.176004" style="fill: white" />
</svg>
