<svg width="19.131698" height="19.131699">
<polygon type="contour" points="10.37064,7.706067 10.370469,7.790157 11.143384,7.790157 11.14379,7.706205 11.349114,7.706138 11.417663,7.705877 11.426169,7.705533 11.426017,7.844304 11.426141,7.987429 11.341545,7.988716 11.341545,8.761234 11.425634,8.761062 11.425817,8.940829 11.425698,9.054464 11.341545,9.054334 11.341545,10.076993 11.425698,10.077241 11.425538,10.239047 11.425634,10.370642 11.341544,10.370312 11.341726,10.722821 11.341726,11.14359 11.426104,11.144244 11.425884,11.41866 11.426169,11.426171 11.349114,11.425565 11.14379,11.425499 11.143384,11.341547 10.370416,11.341547 10.370757,11.395411 10.370914,11.425649 10.312609,11.425514 10.078224,11.426709 10.077957,11.395935 10.077115,11.341547 9.054584,11.341547 9.053744,11.395935 9.053477,11.426708 8.97775,11.426761 8.761061,11.425636 8.761231,11.341547 7.988315,11.341547 7.98791,11.425499 7.782586,11.425566 7.714037,11.425826 7.705532,11.426171 7.705684,11.287399 7.705559,11.144275 7.790155,11.142986 7.790155,10.370469 7.706066,10.370642 7.705883,10.190874 7.706002,10.077241 7.790155,10.07737 7.790155,9.054706 7.706002,9.054464 7.705883,8.940829 7.706066,8.761062 7.790154,8.761234 7.789974,8.408881 7.789974,7.988112 7.705596,7.98746 7.705817,7.713043 7.705531,7.705533 7.782586,7.706138 7.98791,7.706205 7.988315,7.790157 8.761284,7.790157 8.760943,7.736292 8.760787,7.706055 8.819091,7.706189 9.053477,7.704995 9.053744,7.735769 9.054584,7.790157 10.077116,7.790157 10.077957,7.735769 10.078224,7.704995 10.15395,7.704943" style="fill: white" />
</svg>
