<svg width="19.131698" height="19.131699">
<polygon type="contour" points="10.406709,10.24709 10.406721,10.278524 10.407724,10.331985 10.409184,10.409186 10.35882,10.408725 10.294794,10.407164 10.285944,10.406773 10.236004,10.406773 10.111127,10.406758 10.110619,10.296425 10.110139,10.275184 10.10984,10.240105 10.10984,10.109843 10.406706,10.109843" style="fill: white" /><polygon type="contour" points="9.711101,10.406321 9.64249,10.406685 9.5655,10.407803 9.448111,10.407043 9.4206,10.406321 9.4206,10.108674 9.711101,10.108674" style="fill: white" /><polygon type="contour" points="9.711101,9.711102 9.4206,9.711102 9.4206,9.420602 9.711101,9.420602" style="fill: white" /><polygon type="contour" points="9.711101,9.964969 9.4206,9.964969 9.4206,9.857113 9.711101,9.857113" style="fill: white" /><polygon type="contour" points="9.945576,10.108549 9.959387,10.10857 9.964968,10.10857 9.964968,10.23986 9.945576,10.239841 9.910872,10.239836 9.876911,10.239833 9.857111,10.23985 9.857111,10.116756 9.857077,10.108567 9.876911,10.108546" style="fill: white" /><polygon type="contour" points="10.116754,9.857113 10.239848,9.857113 10.23983,9.876913 10.239834,9.910874 10.23984,9.945578 10.239857,9.964969 10.108568,9.964969 10.108547,9.945579 10.108544,9.876913 10.108565,9.86289 10.108565,9.857079" style="fill: white" /><polygon type="contour" points="9.965069,9.876171 9.965069,9.945578 9.964968,9.959388 9.964968,9.964969 9.945576,9.96507 9.876912,9.965269 9.857077,9.965206 9.857019,9.945375 9.857019,9.876914 9.857111,9.862858 9.857111,9.857113 9.876912,9.857019 9.945576,9.85668 9.959417,9.856701 9.964968,9.856668" style="fill: white" /><polygon type="contour" points="9.964968,9.711102 9.857111,9.711102 9.857111,9.420602 9.959417,9.420602 9.964968,9.420558" style="fill: white" /><polygon type="contour" points="10.407724,8.799718 10.406722,8.853179 10.406709,8.884614 10.406099,9.021573 10.406115,9.02165 10.40212,9.02165 10.24918,9.021862 10.10984,9.021862 10.10984,8.891597 10.110138,8.856521 10.110619,8.835278 10.111127,8.82816 10.111127,8.724946 10.236004,8.724931 10.285944,8.724931 10.294794,8.724539 10.35882,8.722979 10.409184,8.722518" style="fill: white" /><polygon type="contour" points="10.23984,9.186125 10.239835,9.220829 10.23983,9.254791 10.239848,9.274592 10.116753,9.274592 10.108565,9.27458 10.108543,9.254791 10.108547,9.186126 10.108568,9.172315 10.108568,9.166735 10.239857,9.166735" style="fill: white" /><polygon type="contour" points="10.110391,9.420602 10.406319,9.420602 10.406682,9.489212 10.407755,9.566202 10.407524,9.604181 10.406683,9.642821 10.406319,9.711102 10.108672,9.711102 10.108672,9.420592" style="fill: white" /><polygon type="contour" points="9.711101,9.186126 9.711101,9.274592 9.4206,9.274592 9.4206,9.166735 9.711145,9.166735" style="fill: white" /><polygon type="contour" points="9.945576,9.166634 9.959386,9.166735 9.964968,9.166735 9.965069,9.186126 9.965268,9.25479 9.965205,9.27458 9.945374,9.274684 9.876912,9.274684 9.862856,9.274592 9.857111,9.274592 9.857019,9.254791 9.857019,9.186328 9.857111,9.172185 9.857123,9.166498 9.876912,9.166435" style="fill: white" /><polygon type="contour" points="9.964968,9.023135 9.945576,9.023155 9.876912,9.023158 9.862887,9.023138 9.857123,9.023138 9.857111,9.014948 9.857111,8.891854 9.876911,8.89187 9.910872,8.891867 9.945576,8.891862 9.964968,8.891844" style="fill: white" /><polygon type="contour" points="9.683588,8.72466 9.711101,8.725382 9.711101,9.021311 9.711111,9.023031 9.4206,9.023031 9.4206,8.725382 9.488881,8.725019 9.565663,8.723901" style="fill: white" /><polygon type="contour" points="8.772879,8.722979 8.836905,8.724539 8.845756,8.724931 8.895696,8.724931 9.020574,8.724946 9.021082,8.835278 9.021562,8.856521 9.021861,8.891597 9.021861,9.021862 8.724994,9.021862 8.724991,8.884614 8.724977,8.853178 8.723976,8.799719 8.722516,8.722518" style="fill: white" /><polygon type="contour" points="9.186124,8.891862 9.220828,8.891867 9.254789,8.89187 9.27459,8.891854 9.27459,9.014948 9.274624,9.023138 9.254789,9.023158 9.186124,9.023155 9.172314,9.023135 9.166733,9.023135 9.166733,8.891844" style="fill: white" /><polygon type="contour" points="9.023152,9.186125 9.023157,9.254791 9.023136,9.268814 9.023136,9.27458 9.014947,9.274592 8.891852,9.274592 8.89187,9.254791 8.891864,9.220829 8.89186,9.186125 8.891843,9.166735 9.023133,9.166735" style="fill: white" /><polygon type="contour" points="9.274624,9.166498 9.274682,9.186328 9.274682,9.25479 9.27459,9.268846 9.27459,9.274592 9.254789,9.274684 9.186326,9.274684 9.172183,9.274591 9.166496,9.274579 9.166433,9.25479 9.166632,9.186126 9.166733,9.172316 9.166733,9.166735 9.186124,9.166634 9.254788,9.166434" style="fill: white" /><polygon type="contour" points="9.186124,9.420602 9.27459,9.420602 9.27459,9.711102 9.172283,9.711102 9.166733,9.711146 9.166733,9.420558" style="fill: white" /><polygon type="contour" points="9.023029,9.711112 9.021309,9.711102 8.72538,9.711102 8.725017,9.642821 8.723945,9.566201 8.724176,9.528038 8.725017,9.489213 8.72538,9.420602 9.021309,9.420602 9.023029,9.420592" style="fill: white" /><polygon type="contour" points="9.023136,9.857125 9.023156,9.876913 9.023152,9.945579 9.023133,9.959387 9.023133,9.964969 8.891843,9.964969 8.89186,9.945578 8.891864,9.910875 8.89187,9.876913 8.891852,9.857113 9.014947,9.857113" style="fill: white" /><polygon type="contour" points="9.268843,9.857113 9.27459,9.857113 9.274682,9.876913 9.274682,9.945375 9.27459,9.959517 9.274624,9.965206 9.254788,9.965269 9.186124,9.96507 9.172314,9.964969 9.166733,9.964969 9.166632,9.945578 9.166433,9.876914 9.166496,9.857125 9.186326,9.85702 9.254789,9.85702" style="fill: white" /><polygon type="contour" points="9.268812,10.108567 9.274624,10.108567 9.27459,10.116756 9.27459,10.23985 9.254789,10.239833 9.220828,10.239836 9.186124,10.239841 9.166733,10.23986 9.166733,10.10857 9.186124,10.108549 9.254789,10.108546" style="fill: white" /><polygon type="contour" points="9.021861,10.240105 9.021562,10.275184 9.021081,10.296425 9.020574,10.303543 9.020574,10.406758 8.895696,10.406773 8.845756,10.406773 8.836905,10.407164 8.772879,10.408725 8.722516,10.409186 8.723976,10.331984 8.724977,10.278525 8.724991,10.24709 8.7256,10.110131 8.725584,10.110055 8.729579,10.110055 8.882519,10.109843 9.021861,10.109843" style="fill: white" />
</svg>
