<svg width="19.131698" height="19.131699">
<polygon type="contour" points="10.647851,8.446404 10.650904,8.446831 10.652037,8.447811 10.657064,8.45028 10.673565,8.461888 10.681078,8.474398 10.685225,8.484012 10.685424,8.4847 10.685214,8.749471 10.685191,10.647 10.684729,10.653517 10.684697,10.653906 10.684265,10.654802 10.673329,10.668393 10.660642,10.679303 10.653765,10.683663 10.648146,10.685059 10.646997,10.685426 9.362221,10.685868 8.484697,10.685144 8.480642,10.685177 8.479679,10.684446 8.475842,10.682755 8.458259,10.669206 8.447789,10.653358 8.445753,10.64989 8.445753,10.376402 8.446117,8.48328 8.447281,8.479965 8.453438,8.468961 8.469262,8.452778 8.483257,8.446762 8.484697,8.446278 9.769475,8.445836" style="fill: white" />
</svg>
