<svg width="19.131698" height="19.131699">
<polygon type="contour" points="16.235986,12.830585 16.235935,12.835935 16.235805,13.0745 16.235845,13.181617 16.235902,13.214974 16.235797,13.31675 16.235856,13.51392 16.235867,13.52201 16.235868,13.54172 16.140666,13.54172 16.140613,13.665682 16.140826,13.742715 16.235858,13.743162 16.262134,13.743278 16.263638,13.743304 16.331304,13.743405 16.331304,13.947066 16.331,14.076301 16.261477,14.076054 16.187631,14.076374 16.140957,14.076037 16.125495,14.076037 16.106364,14.076056 16.072528,14.076224 15.997994,14.076495 15.997963,13.9257 15.997912,13.888712 15.997898,13.651237 15.997898,13.380907 15.997994,13.081863 15.997975,13.013547 15.997815,13.01353 15.99799,12.996914 15.99795,12.989344 15.998008,12.984343 15.997908,12.871433 15.997858,12.860134 15.997923,12.790035 16.16448,12.771904 16.235998,12.769968" style="fill: white" /><polygon type="contour" points="15.834824,12.792827 15.886882,12.789785 15.88681,12.839416 15.88751,12.915825 15.887439,12.925054 15.887487,12.989343 15.887692,13.380907 15.887692,13.651237 15.887448,13.888713 15.887302,13.943447 15.887406,13.979532 15.887379,13.997269 15.887678,14.00402 15.887396,14.005171 15.887505,14.076436 15.620702,14.075988 15.554079,14.076093 15.554137,13.964008 15.554231,13.941906 15.554175,13.898185 15.554461,13.835438 15.555049,13.610209 15.555105,13.470697 15.554475,13.168672 15.554354,13.136291 15.555341,12.874007 15.555319,12.844647 15.555215,12.784563" style="fill: white" /><polygon type="contour" points="13.464144,15.997901 13.651235,15.997901 13.88871,15.997914 13.910021,15.998173 14.076438,15.998098 14.076062,16.095222 14.076035,16.140962 14.076371,16.187633 14.076052,16.191694 14.076052,16.26148 14.076275,16.264863 14.0763,16.331002 13.947066,16.331306 13.743404,16.331306 13.743276,16.262136 13.743161,16.235861 13.74325,16.141147 13.690828,16.140528 13.66568,16.140616 13.541718,16.140668 13.541718,16.23587 13.514608,16.235861 13.322324,16.235845 13.29103,16.235759 13.17211,16.235887 12.843805,16.235982 12.840662,16.235964 12.830298,16.235967 12.798404,16.235994 12.801369,16.216578 12.790675,15.998043 13.066974,15.998043 13.268272,15.997953 13.305126,15.997925 13.407412,15.998129 13.422452,15.997772" style="fill: white" /><polygon type="contour" points="14.076487,15.831943 14.076433,15.887507 13.997954,15.887523 13.993425,15.887577 13.970756,15.887507 13.92818,15.887541 13.88871,15.88745 13.651235,15.887694 13.464144,15.887694 13.280881,15.887532 13.268273,15.88749 13.232806,15.887442 12.925052,15.887442 12.915823,15.887512 12.907128,15.88738 12.840182,15.887292 12.791263,15.887292 12.786283,15.589004 12.7923,15.554831 12.873739,15.554671 13.13629,15.554356 13.470696,15.555106 13.610208,15.555051 13.835435,15.554465 13.880243,15.554181 13.931092,15.554392 14.076092,15.554081" style="fill: white" /><polygon type="contour" points="14.450853,15.831942 14.450853,15.887525 14.28813,15.887525 14.255589,15.887533 14.255552,15.831943 14.255534,15.55408 14.385773,15.554079 14.451123,15.554079" style="fill: white" /><polygon type="contour" points="14.450853,16.02181 14.451123,16.140802 14.392768,16.140849 14.25559,16.140962 14.25559,15.998013 14.422508,15.998013 14.450853,15.997989" style="fill: white" /><polygon type="contour" points="15.599342,15.998029 15.887505,15.998029 15.887505,16.140828 15.646895,16.140885 15.554077,16.140802 15.554905,16.021811 15.554905,15.997989" style="fill: white" /><polygon type="contour" points="16.331,15.9978 16.330854,16.144173 16.33116,16.280861 16.33116,16.331161 16.112772,16.33139 16.111477,16.331167 15.997701,16.330903 15.998063,16.26148 15.998063,16.191695 15.997962,16.189337 15.998006,16.140807 15.998006,15.998008 16.140805,15.998008 16.189335,15.997965 16.261478,15.998065 16.264861,15.997778" style="fill: white" /><polygon type="contour" points="16.140787,15.831943 16.140826,15.887507 15.998027,15.887507 15.998027,15.599343 15.997988,15.554906 16.021809,15.554906 16.140801,15.554079" style="fill: white" /><polygon type="contour" points="15.831941,15.554906 15.887523,15.554906 15.887523,15.831942 15.887505,15.887507 15.839207,15.887533 15.831941,15.887525 15.554905,15.887525 15.554905,15.831942 15.554077,15.554079" style="fill: white" /><polygon type="contour" points="16.140848,14.392769 16.140801,14.451125 16.021808,14.450854 15.997988,14.450854 15.998011,14.422509 15.998011,14.255593 16.110033,14.255591 16.140958,14.255591" style="fill: white" /><polygon type="contour" points="15.831941,14.255555 15.88753,14.255593 15.88753,14.422508 15.887523,14.450854 15.831941,14.450854 15.554077,14.451125 15.554079,14.303488 15.554079,14.255535" style="fill: white" /><polygon type="contour" points="14.451123,14.385776 14.451123,14.451125 14.303488,14.451364 14.255534,14.451364 14.255534,14.303489 14.25559,14.255591 14.409146,14.255592 14.451363,14.255535" style="fill: white" /><polygon type="contour" points="13.835436,14.255446 13.860445,14.25542 13.897306,14.255453 13.926301,14.255633 13.947395,14.255355 13.960961,14.255477 14.076112,14.255591 14.076112,14.409148 14.076092,14.451364 13.926301,14.451345 13.897306,14.451455 13.860445,14.451059 13.835435,14.451447 13.610208,14.451171 13.593767,14.451122 13.470695,14.451122 13.168669,14.451344 13.136289,14.451315 12.873107,14.45135 12.804137,14.451144 12.80211,14.385783 12.795146,14.255667 12.839346,14.255687 12.843502,14.255671 12.978174,14.25553 13.062226,14.25548 13.435434,14.255169 13.610208,14.255169" style="fill: white" /><polygon type="contour" points="14.076376,12.819467 14.076372,12.835182 14.07601,12.965393 14.076086,13.062226 14.076077,13.086602 14.07614,13.09172 14.076309,13.435437 14.076309,13.610209 14.076153,13.835437 14.076111,13.859375 14.076265,13.873111 14.076363,13.896751 14.076207,13.926303 14.07614,13.945547 14.076056,13.95669 14.076084,13.959539 14.076136,13.965537 14.076212,13.968075 14.076038,13.97044 14.076035,14.076037 13.96424,14.076138 13.95252,14.076084 13.943666,14.076201 13.935279,14.076112 13.926011,14.076209 13.910235,14.076284 13.902538,14.076219 13.872802,14.076074 13.835436,14.076155 13.610208,14.076311 13.435435,14.076311 13.091717,14.076141 13.062225,14.076086 12.978174,14.076023 12.965392,14.076011 12.83518,14.076373 12.819465,14.076377 12.775622,14.076362 12.784691,14.002296 12.800444,13.754791 12.841953,13.754875 12.89926,13.754441 12.90729,13.754497 13.098962,13.754872 13.209928,13.755433 13.242883,13.755617 13.322034,13.755232 13.514575,13.756586 13.515531,13.7566 13.522358,13.75655 13.612251,13.756054 13.623202,13.755886 13.626735,13.756297 13.641471,13.756021 13.642984,13.755948 13.649224,13.75559 13.650667,13.755371 13.67427,13.755022 13.680285,13.754889 13.692758,13.754626 13.697333,13.754494 13.714098,13.754438 13.738968,13.738652 13.754377,13.714181 13.754625,13.692762 13.754888,13.680288 13.755019,13.674274 13.755368,13.65067 13.755587,13.649227 13.755945,13.642987 13.756018,13.641475 13.756295,13.626738 13.755883,13.623203 13.756054,13.612253 13.756547,13.522361 13.756597,13.515534 13.756583,13.514577 13.755229,13.322036 13.755614,13.242885 13.755431,13.20993 13.754869,13.098964 13.754494,12.907292 13.754439,12.899262 13.754873,12.841955 13.75479,12.800446 14.002295,12.784693 14.076361,12.775624" style="fill: white" /><polygon type="contour" points="14.451207,12.770767 14.451144,12.842507 14.451198,12.875747 14.451313,13.136291 14.451119,13.470697 14.451119,13.593769 14.451336,13.823869 14.451445,13.835438 14.451427,13.877377 14.451196,13.911551 14.451223,13.936637 14.451398,13.954331 14.451369,13.965539 14.451351,13.971207 14.451432,13.973389 14.451363,14.076094 14.303487,14.076093 14.25559,14.076113 14.255398,13.95433 14.255498,13.936637 14.255503,13.911551 14.25577,13.877377 14.255445,13.835438 14.255167,13.610209 14.255167,13.435436 14.255492,13.09172 14.25548,13.062226 14.255528,12.978175 14.255787,12.839965 14.255808,12.834969 14.255782,12.775825 14.429416,12.768241" style="fill: white" /><polygon type="contour" points="13.888709,3.244255 13.928179,3.244163 13.970754,3.244197 13.993424,3.244127 14.002745,3.244128 14.005144,3.244354 14.076431,3.244198 14.075987,3.510998 14.076092,3.577622 13.931092,3.577312 13.880243,3.577523 13.835436,3.577238 13.610207,3.576651 13.470696,3.576596 13.16867,3.577227 13.136289,3.577348 12.873739,3.577031 12.792299,3.576871 12.796351,3.315738 12.791264,3.244409 12.840182,3.24441 12.907128,3.244324 12.915823,3.244192 12.925052,3.244262 12.989341,3.244214 13.380905,3.24401 13.651236,3.24401" style="fill: white" /><polygon type="contour" points="14.0763,2.800702 14.076052,2.870223 14.076371,2.944071 14.076035,2.990741 14.076035,3.006204 14.076054,3.025335 14.076461,3.133738 13.91002,3.133531 13.888708,3.13379 13.651236,3.133804 13.380905,3.133804 12.989435,3.133806 12.790822,3.133697 12.80006,2.943171 12.798404,2.89571 12.840662,2.895741 12.843806,2.895721 13.171729,2.895748 13.290591,2.895894 13.321895,2.895813 13.514512,2.895834 13.541718,2.895833 13.541718,2.991033 13.665681,2.991088 13.690827,2.991175 13.742711,2.990561 13.743162,2.895838 13.743276,2.869568 13.743303,2.868064 13.743404,2.800399 13.947066,2.800399" style="fill: white" /><polygon type="contour" points="14.392767,2.990852 14.451123,2.990901 14.450851,3.109892 14.450851,3.133714 14.422507,3.133691 14.25559,3.133692 14.25559,2.990742" style="fill: white" /><polygon type="contour" points="14.450851,3.244179 14.450851,3.299762 14.451123,3.577625 14.303487,3.577622 14.255534,3.577622 14.255552,3.299761 14.255589,3.244172 14.422506,3.244172" style="fill: white" /><polygon type="contour" points="16.33116,2.800541 16.33116,2.850843 16.330854,2.987531 16.331,3.133903 16.261477,3.133638 16.191693,3.133638 16.189335,3.13374 16.140805,3.133696 15.998006,3.133696 15.998006,2.990895 15.997962,2.942365 15.998064,2.870224 15.997775,2.866839 15.997701,2.8008 16.111476,2.800536 16.112771,2.800313" style="fill: white" /><polygon type="contour" points="15.887505,3.133676 15.599342,3.133676 15.554905,3.133715 15.554905,3.109892 15.554077,2.990901 15.831941,2.990914 15.887505,2.990875" style="fill: white" /><polygon type="contour" points="15.887505,3.244198 15.88753,3.292494 15.887523,3.299762 15.887523,3.576795 15.83194,3.576795 15.554077,3.577625 15.554905,3.299762 15.554905,3.244179 15.831941,3.244179" style="fill: white" /><polygon type="contour" points="16.140884,3.484805 16.140801,3.577625 16.021809,3.576795 15.997988,3.576795 15.998027,3.532357 15.998027,3.244198 16.140826,3.244198" style="fill: white" /><polygon type="contour" points="15.887505,5.055268 15.887405,5.152172 15.887303,5.188256 15.887448,5.242989 15.887692,5.480464 15.887692,5.750795 15.88753,6.118156 15.887488,6.14236 15.88744,6.206649 15.887511,6.215879 15.886811,6.292287 15.886882,6.341918 15.592918,6.35111 15.555216,6.347141 15.555319,6.287056 15.555341,6.257696 15.554354,5.995411 15.555105,5.661004 15.555049,5.521492 15.554461,5.296264 15.554175,5.233517 15.554231,5.189795 15.554137,5.167694 15.554079,5.055609 15.831941,5.055214" style="fill: white" /><polygon type="contour" points="16.095219,5.055639 16.140958,5.055666 16.187631,5.055331 16.191693,5.055651 16.261478,5.055651 16.264862,5.055426 16.331,5.055403 16.331304,5.184637 16.331304,5.388298 16.262133,5.388426 16.235859,5.388539 16.141668,5.388987 16.140527,5.440872 16.140613,5.46602 16.140707,5.58016 16.140522,5.589698 16.228762,5.589983 16.235869,5.589983 16.235869,5.617187 16.235888,5.809807 16.235808,5.841108 16.235953,5.959969 16.235832,6.284707 16.235844,6.288194 16.235812,6.299557 16.235845,6.334708 16.200626,6.334787 15.997994,6.347759 15.997994,5.882554 15.997975,5.584635 15.997898,5.584635 15.997912,5.504206 15.997912,5.242989 15.997962,5.206004 15.998096,5.055264" style="fill: white" /><polygon type="contour" points="16.140847,4.738933 16.140958,4.876111 15.998011,4.876111 15.998011,4.709193 15.997988,4.68085 16.021808,4.68085 16.140801,4.680579" style="fill: white" /><polygon type="contour" points="15.831941,4.68085 15.887523,4.68085 15.887523,4.84357 15.88753,4.876111 15.831941,4.87615 15.554079,4.876167 15.554077,4.745929 15.554077,4.680579" style="fill: white" /><polygon type="contour" points="14.451363,5.055609 14.451302,5.177712 14.451223,5.195066 14.451196,5.220151 14.451427,5.254325 14.451445,5.296264 14.451168,5.521491 14.451119,5.537932 14.451119,5.661005 14.451341,5.963031 14.451311,5.995411 14.451197,6.255956 14.451144,6.289196 14.451207,6.360937 14.279752,6.353693 14.255782,6.355878 14.255808,6.296356 14.255786,6.291737 14.255528,6.153527 14.25548,6.069476 14.255167,5.696266 14.255167,5.521491 14.255445,5.296264 14.25577,5.254325 14.255502,5.220151 14.2555,5.195066 14.255554,5.177712 14.25559,5.05559 14.409146,5.05559" style="fill: white" /><polygon type="contour" points="14.385773,4.680579 14.451123,4.680579 14.451363,4.828214 14.451363,4.876168 14.303488,4.876168 14.25559,4.876111 14.25559,4.722555 14.255534,4.68034" style="fill: white" /><polygon type="contour" points="13.972824,4.68037 13.973034,4.6803 13.973269,4.680325 14.076092,4.68034 14.076112,4.722555 14.076112,4.876111 13.95644,4.876099 13.947395,4.876348 13.926301,4.876068 13.897306,4.876249 13.860445,4.876283 13.835436,4.876256 13.610208,4.876533 13.435435,4.876533 13.091717,4.87621 13.062225,4.876222 12.978174,4.876173 12.843502,4.876032 12.839525,4.876022 12.795145,4.876037 12.800307,4.716105 12.804137,4.68056 12.873107,4.680353 13.136289,4.680389 13.470695,4.680583 13.593768,4.680583 13.823865,4.680367 13.835435,4.680257 13.860444,4.680643 13.897306,4.680249 13.926302,4.680358 13.947394,4.680348 13.960962,4.680226" style="fill: white" /><polygon type="contour" points="12.83518,5.055332 12.965393,5.055692 13.062225,5.055615 13.086601,5.055624 13.091718,5.055561 13.435435,5.055393 13.610208,5.055393 13.835436,5.055548 13.877376,5.055514 13.902538,5.055484 13.910235,5.055418 13.926011,5.055494 13.935279,5.05559 13.943666,5.055501 13.95252,5.055618 13.96424,5.055564 13.965537,5.055564 14.076035,5.055666 14.076038,5.161262 14.076212,5.163627 14.076136,5.166165 14.076084,5.172163 14.076056,5.175012 14.0762,5.187767 14.076306,5.206741 14.076184,5.23551 14.076265,5.258591 14.076111,5.272327 14.076153,5.296265 14.076309,5.521491 14.076309,5.696265 14.07614,6.039983 14.076077,6.045101 14.076086,6.069475 14.076724,6.256635 14.076735,6.291713 14.07674,6.354554 14.00358,6.346251 13.754789,6.331258 13.754873,6.289748 13.754439,6.232441 13.754495,6.224411 13.754869,6.032738 13.755431,5.921771 13.755614,5.888818 13.755229,5.809667 13.756583,5.617126 13.756597,5.616168 13.756277,5.551284 13.756136,5.543749 13.756532,5.541592 13.756295,5.504964 13.756019,5.490227 13.755944,5.488716 13.755587,5.482475 13.755368,5.481034 13.755019,5.457429 13.754888,5.451415 13.754625,5.438941 13.754377,5.417519 13.738858,5.392929 13.714094,5.377265 13.697332,5.37721 13.692759,5.377078 13.680285,5.376815 13.67427,5.37668 13.650667,5.376332 13.649224,5.376113 13.641472,5.375681 13.626735,5.375405 13.623201,5.375818 13.612251,5.375648 13.522358,5.375152 13.515531,5.375102 13.514574,5.375118 13.322034,5.376472 13.242883,5.376087 13.209928,5.376271 13.098962,5.376832 12.90729,5.377207 12.89926,5.377263 12.841953,5.376829 12.800444,5.376913 12.784692,5.129407 12.775622,5.055343 12.819465,5.055327" style="fill: white" /><polygon type="contour" points="3.133738,5.206004 3.133789,5.242989 3.133802,5.480465 3.133802,5.750796 3.133804,6.142267 3.133583,6.347655 2.950675,6.335996 2.895855,6.334708 2.89589,6.288159 2.895867,6.284707 2.895747,5.95997 2.895893,5.841108 2.89581,5.809305 2.895833,5.617188 2.895832,5.589983 2.991031,5.589983 2.991087,5.46602 2.990876,5.388991 2.895836,5.388539 2.869566,5.388426 2.868062,5.388398 2.800397,5.388298 2.800397,5.184637 2.800701,5.055404 2.870222,5.055651 2.944069,5.055331 2.99074,5.055666 3.006203,5.055666 3.025334,5.055647 3.05917,5.055478 3.133707,5.055208" style="fill: white" /><polygon type="contour" points="3.510997,5.055715 3.57762,5.055609 3.57756,5.167695 3.577468,5.189795 3.577524,5.233516 3.577235,5.296265 3.57665,5.521491 3.576594,5.661005 3.577225,5.963031 3.577346,5.995411 3.576359,6.257696 3.576382,6.287057 3.576485,6.347141 3.296877,6.338877 3.24482,6.341919 3.244892,6.292287 3.244191,6.21588 3.244261,6.206648 3.244213,6.14236 3.244009,5.750795 3.244009,5.480464 3.244253,5.24299 3.244397,5.188256 3.244295,5.152172 3.244322,5.134434 3.244197,5.055269" style="fill: white" /><polygon type="contour" points="3.57762,4.828213 3.57762,4.876168 3.299759,4.87615 3.244171,4.876111 3.244171,4.709193 3.244178,4.68085 3.299759,4.68085 3.577624,4.680579" style="fill: white" /><polygon type="contour" points="3.109892,4.68085 3.133713,4.68085 3.13369,4.709193 3.13369,4.876111 2.99074,4.876111 2.990851,4.738934 2.9909,4.680579" style="fill: white" /><polygon type="contour" points="3.020222,2.800536 3.133999,2.8008 3.133637,2.870223 3.133637,2.940011 3.133738,2.942365 3.133695,2.990895 3.133695,3.133696 2.990893,3.133696 2.942363,3.13374 2.870222,3.133638 2.866839,3.133926 2.800701,3.133903 2.800845,2.987532 2.80054,2.850842 2.80054,2.80054 3.018925,2.800313" style="fill: white" /><polygon type="contour" points="3.133674,3.532357 3.133713,3.576795 3.109891,3.576795 2.9909,3.577625 2.990912,3.299762 2.990873,3.244198 3.133674,3.244198" style="fill: white" /><polygon type="contour" points="3.29976,3.244179 3.576793,3.244179 3.576793,3.299762 3.577624,3.577625 3.29976,3.576795 3.244178,3.576795 3.244178,3.299761 3.244197,3.244198 3.292493,3.244172" style="fill: white" /><polygon type="contour" points="3.577624,2.990901 3.576793,3.109892 3.576793,3.133715 3.532356,3.133676 3.244197,3.133676 3.244197,2.990875 3.484804,2.990819" style="fill: white" /><polygon type="contour" points="4.876149,3.299761 4.876166,3.577622 4.745926,3.577625 4.680577,3.577625 4.680848,3.299761 4.680848,3.244179 4.843569,3.244179 4.87611,3.244172" style="fill: white" /><polygon type="contour" points="4.87611,3.133692 4.709192,3.133692 4.680848,3.133715 4.680848,3.109893 4.680577,2.990901 4.738932,2.990852 4.87611,2.990742" style="fill: white" /><polygon type="contour" points="5.388424,2.869568 5.388538,2.895839 5.388447,2.990555 5.44087,2.991175 5.466017,2.991088 5.58998,2.991033 5.58998,2.895834 5.60969,2.895836 5.617779,2.895847 5.815456,2.895903 5.917107,2.895799 5.950082,2.895857 6.057067,2.89575 6.361835,2.895632 6.343721,3.102428 6.348516,3.133565 6.181917,3.133654 5.785575,3.133575 5.763327,3.13347 5.70398,3.133264 5.479921,3.133264 5.242989,3.13379 5.221678,3.133531 5.055262,3.133606 5.055639,3.036479 5.055664,2.990741 5.05533,2.94407 5.055648,2.940011 5.055648,2.870223 5.055423,2.866839 5.055401,2.800703 5.184634,2.800399 5.388295,2.800399" style="fill: white" /><polygon type="contour" points="5.967812,3.244173 5.985493,3.244214 6.033572,3.244262 6.206645,3.244262 6.215878,3.244192 6.22457,3.244323 6.291517,3.24441 6.340437,3.244409 6.345417,3.542699 6.3394,3.576871 6.257959,3.577031 5.995407,3.577348 5.661002,3.576596 5.521489,3.576651 5.296264,3.577237 5.251456,3.577523 5.200607,3.577312 5.172484,3.577272 5.055608,3.577622 5.055213,3.299761 5.055267,3.244198 5.133745,3.244182 5.138273,3.244127 5.160943,3.244196 5.203518,3.244163 5.242989,3.244255 5.480462,3.24401 5.70398,3.24401" style="fill: white" /><polygon type="contour" points="6.346249,5.128122 6.331256,5.376913 6.289746,5.376829 6.232439,5.377263 6.224409,5.377207 6.032736,5.376831 5.92177,5.376271 5.888816,5.376087 5.809665,5.376472 5.617123,5.375118 5.616166,5.375103 5.551281,5.375424 5.543747,5.375565 5.54159,5.375168 5.504962,5.375404 5.490225,5.375681 5.488714,5.375755 5.482473,5.376113 5.481031,5.376332 5.457426,5.376681 5.451414,5.376815 5.438939,5.377078 5.434365,5.37721 5.417608,5.377265 5.392874,5.392876 5.377319,5.417522 5.377077,5.438941 5.376812,5.451415 5.376677,5.45743 5.376329,5.481033 5.37611,5.482475 5.375752,5.488716 5.375678,5.490227 5.375402,5.504964 5.375816,5.5085 5.375645,5.51945 5.37515,5.609342 5.375101,5.616168 5.375116,5.617126 5.37647,5.809667 5.376085,5.888818 5.376268,5.921771 5.376831,6.032739 5.377204,6.224411 5.37726,6.232442 5.376827,6.289748 5.376911,6.331258 5.128118,6.346251 5.054961,6.354554 5.054956,6.31187 5.054965,6.296418 5.05569,6.166308 5.055615,6.069475 5.055391,5.696266 5.055391,5.521491 5.055545,5.296265 5.055588,5.272327 5.055435,5.258591 5.055338,5.23495 5.055492,5.2054 5.05556,5.186155 5.055644,5.175012 5.055615,5.172163 5.055563,5.166165 5.055488,5.163627 5.055662,5.161262 5.055665,5.055666 5.167459,5.055564 5.179179,5.055618 5.188032,5.055501 5.19642,5.05559 5.205688,5.055493 5.221463,5.055419 5.229162,5.055484 5.254324,5.055514 5.296264,5.055548 5.521489,5.055393 5.696263,5.055393 6.039981,5.055561 6.045098,5.055624 6.069472,5.055616 6.256634,5.05498 6.291711,5.054968 6.354552,5.054964" style="fill: white" /><polygon type="contour" points="5.271253,4.680643 5.296264,4.680257 5.521489,4.680534 5.53793,4.680583 5.661003,4.680583 5.96303,4.680361 5.995408,4.680389 6.258592,4.680353 6.327564,4.68056 6.32959,4.74592 6.336554,4.876037 6.292352,4.876016 6.288197,4.876033 6.153524,4.876173 6.069472,4.876222 5.696264,4.876533 5.521489,4.876533 5.296264,4.876257 5.271253,4.876283 5.234392,4.876249 5.205398,4.876068 5.184305,4.876348 5.175259,4.876099 5.055589,4.876111 5.055589,4.722555 5.055608,4.68034 5.184304,4.680348 5.205397,4.680358 5.234393,4.680249" style="fill: white" /><polygon type="contour" points="4.876167,4.828213 4.87611,4.876111 4.722553,4.876111 4.680337,4.876168 4.680577,4.745928 4.680577,4.680579 4.828212,4.68034 4.876167,4.68034" style="fill: white" /><polygon type="contour" points="4.876301,5.177372 4.876201,5.195065 4.876197,5.220151 4.87593,5.254325 4.876255,5.296265 4.876532,5.521491 4.876532,5.696265 4.876209,6.039984 4.876221,6.069475 4.876171,6.153527 4.875912,6.291737 4.875892,6.296355 4.875892,6.296735 4.875917,6.355878 4.702283,6.363463 4.680492,6.360937 4.680554,6.289195 4.680501,6.255955 4.680387,5.995411 4.680581,5.661005 4.680581,5.537932 4.680531,5.521491 4.680255,5.296265 4.680272,5.254325 4.680503,5.220151 4.680477,5.195065 4.6803,5.177372 4.680337,5.055609 4.828213,5.055609 4.87611,5.05559" style="fill: white" /><polygon type="contour" points="5.129405,12.784694 5.376911,12.800446 5.376827,12.841955 5.377261,12.899262 5.377205,12.907292 5.376831,13.098964 5.37627,13.209929 5.376085,13.242886 5.37647,13.322036 5.375115,13.514577 5.375101,13.515534 5.37515,13.52236 5.375645,13.612254 5.375816,13.623203 5.375403,13.626739 5.375679,13.641475 5.375752,13.642987 5.376111,13.649227 5.37633,13.650669 5.376678,13.674273 5.376812,13.680288 5.377077,13.692762 5.377319,13.714179 5.392764,13.738705 5.417604,13.754438 5.434365,13.754494 5.438939,13.754626 5.451414,13.754889 5.457427,13.755022 5.48103,13.755371 5.482473,13.75559 5.490224,13.756021 5.504961,13.756297 5.508497,13.755886 5.519447,13.756055 5.60934,13.75655 5.616166,13.7566 5.617123,13.756585 5.809665,13.755231 5.888816,13.755617 5.921769,13.755433 6.032737,13.75487 6.224409,13.754498 6.232439,13.754441 6.289746,13.754875 6.331256,13.754791 6.346249,14.003583 6.354552,14.076741 6.311869,14.076747 6.296415,14.076736 6.166306,14.076011 6.069472,14.076087 5.696264,14.076312 5.52149,14.076312 5.296263,14.076155 5.254324,14.076189 5.229162,14.076219 5.221463,14.076284 5.205688,14.076209 5.19642,14.076112 5.188033,14.076201 5.179179,14.076083 5.167459,14.076138 5.166162,14.076138 5.055665,14.076037 5.055662,13.97044 5.055488,13.968075 5.055563,13.965537 5.055615,13.959539 5.055644,13.95669 5.0555,13.943935 5.055493,13.926303 5.055337,13.896751 5.055435,13.873111 5.055588,13.859375 5.055545,13.835437 5.055391,13.610209 5.055391,13.435437 5.05556,13.091719 5.055615,13.062226 5.055678,12.978175 5.05569,12.965393 5.05533,12.835182 5.055326,12.819467 5.055341,12.775624" style="fill: white" /><polygon type="contour" points="4.851946,12.778011 4.875917,12.775825 4.875892,12.834968 4.875912,12.839965 4.876171,12.978174 4.876221,13.062227 4.876532,13.435436 4.876532,13.610209 4.876255,13.835437 4.87593,13.877377 4.876197,13.911551 4.876201,13.936637 4.876301,13.954331 4.87633,13.965537 4.876109,14.076113 4.722552,14.076113 4.680337,14.076093 4.680397,13.953989 4.680477,13.936637 4.680503,13.911551 4.680272,13.877377 4.680255,13.835437 4.680532,13.61021 4.680581,13.593769 4.680581,13.470697 4.680359,13.168671 4.680387,13.136291 4.680501,12.875747 4.680553,12.842508 4.680492,12.770767" style="fill: white" /><polygon type="contour" points="3.576485,12.784563 3.576382,12.844646 3.576359,12.874007 3.577346,13.136291 3.576594,13.470698 3.57665,13.61021 3.577235,13.835437 3.577524,13.898186 3.577468,13.941907 3.577561,13.964007 3.57762,14.076093 3.299759,14.07649 3.244197,14.076436 3.244294,13.979532 3.244397,13.943447 3.244253,13.888713 3.244009,13.651237 3.244009,13.380907 3.244171,13.013547 3.244213,12.989343 3.244261,12.925054 3.24419,12.915825 3.244891,12.839417 3.24482,12.789785 3.53878,12.780592" style="fill: white" /><polygon type="contour" points="3.104226,12.791393 3.133778,12.789826 3.133791,12.926073 3.133707,13.081864 3.133758,13.243363 3.133786,13.331007 3.133442,13.331007 3.133262,13.380907 3.133262,13.651237 3.133788,13.888712 3.133827,13.921738 3.133707,13.932463 3.133605,14.07644 3.036479,14.076062 2.99074,14.076037 2.944069,14.076374 2.940009,14.076054 2.870221,14.076054 2.866838,14.076277 2.8007,14.076301 2.800397,13.947066 2.800397,13.743405 2.869566,13.743278 2.895837,13.743162 2.990554,13.743253 2.991174,13.690829 2.991087,13.665683 2.991031,13.54172 2.895832,13.54172 2.895834,13.522011 2.895846,13.51392 2.895902,13.316246 2.895797,13.214595 2.895856,13.181617 2.895749,13.074632 2.895632,12.769474" style="fill: white" /><polygon type="contour" points="3.13369,14.255592 3.13369,14.422509 3.133713,14.450854 3.109892,14.450854 2.9909,14.451125 2.990851,14.392769 2.99074,14.255591 3.021665,14.255591" style="fill: white" /><polygon type="contour" points="3.577624,14.385776 3.577624,14.451125 3.299759,14.450854 3.244178,14.450854 3.244178,14.288133 3.244171,14.255593 3.299759,14.255555 3.57762,14.255535" style="fill: white" /><polygon type="contour" points="4.87611,14.25559 4.87611,14.409149 4.876167,14.451364 4.745927,14.451125 4.680577,14.451125 4.680337,14.303488 4.680337,14.255535 4.828213,14.255535" style="fill: white" /><polygon type="contour" points="6.039981,14.255493 6.069473,14.255481 6.153524,14.25553 6.288197,14.255671 6.292174,14.255682 6.336554,14.255667 6.331392,14.415598 6.327564,14.451144 6.258592,14.45135 5.995408,14.451316 5.661003,14.451122 5.53793,14.451122 5.521489,14.451171 5.296263,14.451447 5.271254,14.45106 5.234392,14.451455 5.205398,14.451345 5.055608,14.451364 5.055589,14.409148 5.055589,14.255591 5.170738,14.255476 5.184304,14.255355 5.205398,14.255633 5.234392,14.255452 5.271253,14.25542 5.296264,14.255446 5.521489,14.255169 5.696264,14.255169" style="fill: white" /><polygon type="contour" points="6.134787,15.997992 6.142356,15.997953 6.256795,15.998091 6.259349,15.998117 6.348372,15.998157 6.363681,16.160308 6.361621,16.236002 6.301061,16.235937 6.295767,16.235938 6.057199,16.235806 5.950082,16.235846 5.917107,16.235904 5.815456,16.2358 5.617779,16.235856 5.60969,16.235868 5.58998,16.23587 5.58998,16.140668 5.466018,16.140616 5.44087,16.140528 5.388447,16.141147 5.388538,16.235861 5.388424,16.262136 5.388397,16.263639 5.388295,16.331306 5.184634,16.331306 5.055401,16.331002 5.055648,16.261479 5.05533,16.187631 5.055665,16.140962 5.055665,16.125499 5.055646,16.106368 5.055237,15.997966 5.140284,15.997924 5.150532,15.998017 5.164858,15.99801 5.18993,15.997973 5.199237,15.997995 5.221679,15.998172 5.242988,15.997914 5.480463,15.997901 5.750794,15.997901 6.049837,15.997996 6.117967,15.997977 6.117988,15.997817" style="fill: white" /><polygon type="contour" points="5.172483,15.554431 5.200609,15.554392 5.251456,15.554181 5.296264,15.554465 5.52149,15.555051 5.661002,15.555106 5.963031,15.554476 5.995407,15.554356 6.257959,15.554671 6.339399,15.554831 6.335349,15.815964 6.340437,15.887292 6.291517,15.887292 6.224571,15.88738 6.215877,15.887512 6.206646,15.887443 6.142356,15.88749 5.750793,15.887694 5.480463,15.887694 5.242989,15.88745 5.203518,15.887541 5.160943,15.887507 5.138274,15.887577 5.133745,15.887523 5.055267,15.887507 5.055714,15.620703 5.055608,15.554081" style="fill: white" /><polygon type="contour" points="4.828213,15.554081 4.876166,15.554081 4.876149,15.831942 4.87611,15.887533 4.709192,15.887533 4.680848,15.887525 4.680848,15.831943 4.680577,15.554079" style="fill: white" /><polygon type="contour" points="4.709192,15.998013 4.87611,15.998013 4.87611,16.140962 4.738931,16.140849 4.680577,16.140802 4.680848,16.02181 4.680848,15.997989" style="fill: white" /><polygon type="contour" points="3.576793,16.021811 3.577624,16.140801 3.299759,16.140789 3.244197,16.140828 3.244197,15.998029 3.532356,15.998029 3.576793,15.997989" style="fill: white" /><polygon type="contour" points="3.576793,15.831943 3.576793,15.887525 3.299759,15.887525 3.244197,15.887507 3.244171,15.839209 3.244178,15.831942 3.244178,15.554906 3.299759,15.554906 3.577624,15.554079" style="fill: white" /><polygon type="contour" points="3.109892,15.554906 3.133713,15.554906 3.133674,15.599343 3.133674,15.887507 2.990873,15.887507 2.990818,15.646897 2.9909,15.554079" style="fill: white" /><polygon type="contour" points="2.870221,15.998066 2.940009,15.998066 2.942363,15.997965 2.990893,15.998008 3.133695,15.998008 3.133695,16.140807 3.133738,16.189337 3.133637,16.261479 3.133924,16.264863 3.133999,16.330903 3.020223,16.331167 3.018926,16.331391 2.80054,16.331161 2.80054,16.280862 2.800845,16.144172 2.800701,15.9978" style="fill: white" />
</svg>
