<svg width="19.131698" height="19.131699">
<polygon type="contour" points="6.644857,6.502611 6.72408,6.503371 6.791923,6.502451 6.791923,6.676075 7.072339,6.675591 7.134652,6.676018 7.134887,6.767168 7.134887,6.883588 7.134652,7.056974 7.134652,7.134653 6.938148,7.134889 6.792547,7.134889 6.712151,7.134653 6.676016,7.134653 6.675589,7.072341 6.676069,6.793444 6.620089,6.790287 6.500165,6.789648 6.502439,6.633096 6.499991,6.568072 6.49705,6.497053" style="fill: white" /><polygon type="contour" points="7.056973,7.83446 7.134652,7.83446 7.134574,7.98124 7.134574,8.034873 6.938148,8.035058 6.808613,8.035117 6.702133,8.034892 6.676206,8.034892 6.675634,7.886321 6.676016,7.83446 6.767166,7.834158 6.883585,7.834158" style="fill: white" /><polygon type="contour" points="7.134574,8.155217 7.134652,8.356547 7.134652,8.44829 7.07234,8.447976 6.883527,8.448158 6.883527,8.446534 6.679819,8.448479 6.501786,8.446729 6.503123,8.334054 6.503358,8.289873 6.502151,8.206434 6.502117,8.155121 6.645382,8.155121 6.751502,8.155345 6.765254,8.155379 6.883527,8.155379 6.883527,8.155309 7.0814,8.155085" style="fill: white" /><polygon type="contour" points="8.034891,8.448247 7.88632,8.448072 7.834458,8.44829 7.834482,8.234449 7.834482,8.155216 7.878825,8.155112 8.034891,8.155112" style="fill: white" /><polygon type="contour" points="8.441772,8.335858 8.440185,8.440187 8.23983,8.438664 8.218717,8.443528 8.183661,8.446915 8.155145,8.447291 8.155145,8.155147 8.447289,8.155147" style="fill: white" /><polygon type="contour" points="8.44807,7.886321 8.448244,8.034892 8.155111,8.034892 8.155111,7.878827 8.155215,7.834484 8.356545,7.83446 8.448288,7.83446" style="fill: white" /><polygon type="contour" points="7.981239,7.834484 8.034871,7.834484 8.034871,7.981241 8.034891,8.034892 7.878826,8.034892 7.834482,8.034873 7.834458,7.896558 7.834458,7.83446" style="fill: white" /><polygon type="contour" points="8.034891,6.676209 8.034891,6.702134 8.035115,6.808685 8.035056,6.93815 8.034871,7.134575 7.896556,7.134653 7.834458,7.134653 7.834157,6.938149 7.834157,6.79255 7.834156,6.79255 7.834458,6.712153 7.834458,6.676018 7.886319,6.675636" style="fill: white" /><polygon type="contour" points="8.448665,6.683314 8.447456,6.751495 8.447462,6.883529 8.448156,6.883529 8.447975,7.072341 8.448288,7.134653 8.234447,7.134576 8.155215,7.134576 8.155401,6.93815 8.155307,6.883529 8.155394,6.883529 8.155377,6.765257 8.155144,6.655443 8.155119,6.645385 8.155119,6.502119 8.286562,6.503537 8.330927,6.503354 8.447043,6.502034" style="fill: white" /><polygon type="contour" points="12.629262,6.633096 12.631536,6.789648 12.51161,6.790287 12.455631,6.793444 12.456112,7.072341 12.455685,7.134653 12.364533,7.134889 12.248114,7.134889 12.074727,7.134653 11.997049,7.134653 11.996814,6.938149 11.996814,6.79255 11.996813,6.79255 11.997049,6.712151 11.997049,6.676018 12.059361,6.67559 12.339765,6.676074 12.339764,6.502546 12.407619,6.50337 12.486885,6.502709 12.555358,6.499717 12.63465,6.497053" style="fill: white" /><polygon type="contour" points="10.797648,6.503123 10.841829,6.503359 10.925266,6.502153 10.976555,6.502056 10.976324,6.765256 10.976324,6.883529 10.976394,6.883529 10.976617,7.081401 10.976485,7.134576 10.775156,7.134653 10.683412,7.134653 10.683726,7.072341 10.683544,6.883529 10.685169,6.883529 10.683223,6.679821 10.684974,6.501788" style="fill: white" /><polygon type="contour" points="11.297242,6.676018 11.297544,6.767168 11.297544,6.883587 11.297242,7.056974 11.297242,7.134653 11.150461,7.134576 11.09683,7.134576 11.096645,6.93815 11.096585,6.808685 11.09681,6.702134 11.09681,6.676208 11.245379,6.675636" style="fill: white" /><polygon type="contour" points="10.897252,7.834484 10.976485,7.834484 10.97659,7.878827 10.97659,8.034892 10.683456,8.034892 10.683631,7.886322 10.683412,7.83446" style="fill: white" /><polygon type="contour" points="10.976555,8.189373 10.976555,8.447291 10.948039,8.446915 10.912981,8.443528 10.691515,8.440186 10.693038,8.239831 10.688173,8.218719 10.684788,8.183662 10.684411,8.155147 10.976637,8.155147" style="fill: white" /><polygon type="contour" points="11.297218,8.155217 11.297242,8.356547 11.297242,8.44829 11.245379,8.448072 11.09681,8.448247 11.09681,8.155112 11.252874,8.155112" style="fill: white" /><polygon type="contour" points="11.297218,7.98124 11.297218,8.034873 11.15046,8.034873 11.09681,8.034892 11.09681,7.878826 11.096829,7.834484 11.235143,7.83446 11.297242,7.83446" style="fill: white" /><polygon type="contour" points="12.419549,7.83446 12.455685,7.83446 12.456067,7.886322 12.455494,8.034892 12.429566,8.034892 12.323085,8.035117 12.193551,8.035058 11.997125,8.034873 11.997049,7.896558 11.997049,7.83446 12.193552,7.834158 12.339151,7.834158" style="fill: white" /><polygon type="contour" points="12.628165,8.286564 12.628345,8.330928 12.629667,8.447045 12.448386,8.448667 12.380205,8.447458 12.248173,8.447297 12.248173,8.448158 12.05936,8.447976 11.997049,8.44829 11.997125,8.234449 11.997125,8.155217 12.193551,8.155404 12.248173,8.155309 12.248173,8.155591 12.429923,8.15518 12.486317,8.155121 12.629583,8.155121" style="fill: white" /><polygon type="contour" points="12.41955,11.997051 12.455685,11.997051 12.456112,12.059362 12.455631,12.338634 12.511609,12.340933 12.631536,12.342055 12.629262,12.498607 12.63171,12.563632 12.63465,12.634651 12.486885,12.628995 12.40762,12.628334 12.339776,12.629253 12.339776,12.45563 12.05936,12.456113 11.997049,12.455686 11.996814,12.364535 11.996814,12.248116 11.997049,12.074729 11.997049,11.997051 12.193552,11.996816 12.339151,11.996816 12.339151,11.996815" style="fill: white" /><polygon type="contour" points="12.629915,10.684975 12.628303,10.797376 12.628342,10.84183 12.629549,10.925269 12.629583,10.976583 12.486317,10.976583 12.380197,10.976358 12.366445,10.976325 12.248173,10.976325 12.248173,10.976395 12.050299,10.976619 11.997125,10.976487 11.997049,10.775157 11.997049,10.683414 12.05936,10.683728 12.248173,10.683546 12.248173,10.685169 12.45188,10.683224" style="fill: white" /><polygon type="contour" points="12.429566,11.096812 12.455494,11.096812 12.456067,11.245381 12.455685,11.297243 12.364532,11.297546 12.248114,11.297546 12.074727,11.297244 11.997049,11.297244 11.997125,11.150463 11.997125,11.096832 12.193551,11.096646 12.323085,11.096586" style="fill: white" /><polygon type="contour" points="10.976637,10.718639 10.976637,10.976557 10.684411,10.976557 10.684788,10.948041 10.688174,10.912983 10.691515,10.691517 10.948039,10.684789 10.976555,10.684413" style="fill: white" /><polygon type="contour" points="11.297218,10.897254 11.297218,10.976487 11.252874,10.976592 11.09681,10.976592 11.09681,10.683457 11.245379,10.683632 11.297242,10.683414" style="fill: white" /><polygon type="contour" points="11.297218,11.096831 11.297242,11.235145 11.297242,11.297244 11.150461,11.29722 11.09683,11.29722 11.09683,11.150462 11.09681,11.096812 11.252875,11.096812" style="fill: white" /><polygon type="contour" points="10.97659,11.252876 10.976485,11.29722 10.775155,11.297244 10.683412,11.297244 10.683278,11.150462 10.683456,11.096812 10.97659,11.096812" style="fill: white" /><polygon type="contour" points="11.297544,12.193553 11.297544,12.339152 11.297242,12.41955 11.297242,12.455686 11.245379,12.456068 11.09681,12.455495 11.09681,12.429568 11.096585,12.323017 11.096645,12.193553 11.09683,11.997128 11.235143,11.997051 11.297242,11.997051" style="fill: white" /><polygon type="contour" points="10.897252,11.997128 10.976485,11.997128 10.976299,12.193553 10.976394,12.248175 10.976306,12.248175 10.976324,12.366446 10.976555,12.47626 10.976581,12.486318 10.976581,12.629584 10.845137,12.628166 10.800772,12.628346 10.684658,12.629667 10.683035,12.448388 10.684244,12.380207 10.684237,12.248175 10.683544,12.248175 10.683726,12.059362 10.683412,11.997051" style="fill: white" /><polygon type="contour" points="8.447975,12.059362 8.448156,12.248175 8.446532,12.248175 8.448477,12.451882 8.446726,12.629915 8.334051,12.628578 8.28987,12.628343 8.206433,12.62955 8.155145,12.629647 8.155377,12.366447 8.155377,12.248175 8.155307,12.248175 8.155083,12.050302 8.155215,11.997128 8.356544,11.997051 8.448288,11.997051" style="fill: white" /><polygon type="contour" points="7.981239,11.997128 8.034871,11.997128 8.035056,12.193553 8.035115,12.323017 8.034891,12.429568 8.034891,12.455495 7.886319,12.456067 7.834458,12.455686 7.834157,12.364535 7.834157,12.248116 7.834458,12.074729 7.834458,11.997051" style="fill: white" /><polygon type="contour" points="8.034891,11.252877 8.034871,11.29722 7.896556,11.297244 7.834458,11.297244 7.834482,11.150463 7.834482,11.096832 7.98124,11.096832 8.034891,11.096812" style="fill: white" /><polygon type="contour" points="8.44807,11.245382 8.448288,11.297244 8.234447,11.29722 8.155215,11.29722 8.155111,11.252876 8.155111,11.096812 8.448244,11.096812" style="fill: white" /><polygon type="contour" points="8.335856,10.689931 8.440185,10.691517 8.446911,10.948041 8.447289,10.976557 8.155145,10.976557 8.155145,10.684413" style="fill: white" /><polygon type="contour" points="8.034891,10.683457 8.034891,10.976592 7.878825,10.976592 7.834482,10.976487 7.834458,10.775156 7.834458,10.683414 7.981239,10.683279" style="fill: white" /><polygon type="contour" points="6.751493,10.684246 6.883527,10.684406 6.883527,10.683546 7.07234,10.683728 7.134652,10.683414 7.134574,10.897253 7.134574,10.976487 6.938148,10.9763 6.883527,10.976395 6.883527,10.976114 6.701776,10.976524 6.645382,10.976583 6.502117,10.976583 6.503535,10.845139 6.503353,10.800775 6.502032,10.68466 6.683312,10.683037" style="fill: white" /><polygon type="contour" points="6.938148,11.096646 7.134573,11.096832 7.134652,11.235145 7.134652,11.297244 6.938147,11.297546 6.792548,11.297546 6.712151,11.297244 6.676016,11.297244 6.675634,11.245382 6.676206,11.096812 6.702133,11.096812 6.808613,11.096586" style="fill: white" /><polygon type="contour" points="7.056973,11.997051 7.134652,11.997051 7.134887,12.193553 7.134887,12.339152 7.134652,12.419551 7.134652,12.455686 7.07234,12.456113 6.791935,12.45563 6.791935,12.629157 6.72408,12.628334 6.644815,12.628995 6.576341,12.631987 6.49705,12.634651 6.502439,12.498607 6.500165,12.342055 6.620089,12.340934 6.676069,12.338634 6.675589,12.059362 6.676016,11.997051 6.767166,11.996816 6.883586,11.996816" style="fill: white" />
</svg>
