<svg width="19.131698" height="19.131699">
<polygon type="contour" points="10.465353,8.752123 10.465206,8.76824 10.464622,8.970912 10.456612,8.970912 10.436014,8.97092 10.297954,8.97092 10.298019,9.077109 10.156188,9.077433 10.144618,9.077384 10.080237,9.077109 10.054592,9.077109 10.054276,8.986141 10.054319,8.971017 10.054319,8.971016 10.054592,8.872847 10.054592,8.833684 10.074677,8.833626 10.160752,8.833728 10.160382,8.670889 10.160381,8.669168 10.160381,8.66842 10.160383,8.667935 10.160383,8.667896 10.160396,8.667508 10.160842,8.667497 10.467007,8.664695" style="fill: white" /><polygon type="contour" points="8.987081,10.05432 8.987082,10.05432 9.051462,10.054594 9.077107,10.054594 9.077424,10.145562 9.077382,10.160686 9.077382,10.160687 9.077107,10.258857 9.077107,10.298021 9.057022,10.298079 8.970948,10.297976 8.971318,10.460814 8.97132,10.462535 8.97132,10.463283 8.971318,10.463768 8.971318,10.463807 8.971305,10.464196 8.970859,10.464207 8.664693,10.467009 8.666346,10.379581 8.666493,10.363463 8.667078,10.160792 8.675087,10.160792 8.695686,10.160784 8.833746,10.160784 8.833682,10.054594 8.975512,10.05427" style="fill: white" /><polygon type="contour" points="8.987082,9.314061 9.051462,9.314178 9.077107,9.314178 9.077533,9.391954 9.077533,9.728145 9.077107,9.792079 9.077107,9.817526 8.986141,9.817658 8.971016,9.817641 8.872845,9.817526 8.833682,9.817526 8.833633,9.797523 8.833793,9.711102 8.662745,9.711102 8.663261,9.604293 8.663587,9.566201 8.663099,9.464664 8.662745,9.420602 8.833816,9.420602 8.833682,9.314178 8.975512,9.314039" style="fill: white" /><polygon type="contour" points="8.970859,8.667497 8.971305,8.667508 8.971318,8.667935 8.971318,8.668354 8.97132,8.668419 8.971319,8.670889 8.971101,8.833747 9.077107,8.833684 9.077431,8.975513 9.077107,9.051462 9.077107,9.077109 8.986141,9.077426 8.971016,9.077384 8.971015,9.077384 8.872845,9.077109 8.833682,9.077109 8.833624,9.057023 8.833727,8.97092 8.695686,8.97092 8.667078,8.970912 8.666494,8.76824 8.666346,8.752123 8.664693,8.664695" style="fill: white" /><polygon type="contour" points="9.704574,8.667137 9.711101,8.667131 9.711101,8.697104 9.711678,8.833816 9.817524,8.833684 9.817658,8.975513 9.817524,9.051463 9.817524,9.077109 9.739747,9.077533 9.403557,9.077533 9.339623,9.077109 9.314177,9.077109 9.31404,8.986141 9.314059,8.971016 9.314177,8.872847 9.314177,8.833684 9.334179,8.833635 9.4206,8.833794 9.4206,8.66713 9.427158,8.667136 9.452438,8.666587 9.565716,8.66361" style="fill: white" /><polygon type="contour" points="9.792076,9.314178 9.817524,9.314178 9.817743,9.391955 9.817743,9.728144 9.817524,9.792079 9.817524,9.817526 9.739747,9.817744 9.403556,9.817744 9.339623,9.817526 9.314177,9.817526 9.313957,9.739748 9.313957,9.403558 9.314177,9.339624 9.314177,9.314178 9.391953,9.31396 9.728143,9.31396" style="fill: white" /><polygon type="contour" points="10.258855,9.314178 10.298019,9.314178 10.298068,9.33418 10.297907,9.420602 10.468955,9.420602 10.468439,9.52741 10.468113,9.565714 10.4686,9.667252 10.468954,9.711102 10.297884,9.711102 10.298019,9.817526 10.156188,9.817661 10.144618,9.817641 10.080238,9.817526 10.054592,9.817526 10.054168,9.739749 10.054168,9.403558 10.054592,9.339623 10.054592,9.314178 10.14556,9.314042" style="fill: white" /><polygon type="contour" points="10.258855,10.054594 10.298019,10.054594 10.298077,10.074679 10.297973,10.160784 10.436014,10.160784 10.464622,10.160792 10.465206,10.363463 10.465354,10.379581 10.467007,10.467009 10.160842,10.464207 10.160396,10.464196 10.160383,10.463768 10.160383,10.463349 10.160381,10.463284 10.160382,10.460814 10.160599,10.297957 10.054592,10.298021 10.054269,10.15619 10.054592,10.080238 10.054592,10.054594 10.14556,10.054277" style="fill: white" /><polygon type="contour" points="9.792077,10.054594 9.817524,10.054594 9.817655,10.145562 9.817638,10.160687 9.817524,10.258858 9.817524,10.298021 9.797521,10.298069 9.711101,10.29791 9.711101,10.464573 9.704542,10.464567 9.679263,10.465112 9.565501,10.468094 9.427126,10.464567 9.4206,10.464573 9.4206,10.434599 9.420022,10.297888 9.314177,10.298021 9.314037,10.15619 9.314059,10.144621 9.314059,10.14462 9.314177,10.080238 9.314177,10.054594 9.391952,10.054171 9.728144,10.054171" style="fill: white" />
</svg>
