<svg width="19.131698" height="19.131699">
<polygon type="contour" points="12.880637,10.856368 12.879152,10.956919 12.881251,11.14792 12.647333,11.147955 12.591043,11.147955 12.590982,11.056846 12.591463,10.857375 12.733915,10.855592" style="fill: white" /><polygon type="contour" points="12.704765,11.685937 12.704015,11.86879 12.704018,11.884072 12.704022,11.903794 12.704633,12.046056 12.70462,12.075952 12.589119,12.075952 12.589119,12.045171 12.588522,11.903794 12.588515,11.868791 12.589246,11.636387 12.704748,11.636387" style="fill: white" /><polygon type="contour" points="12.881353,12.646174 12.891511,12.891512 12.763095,12.886596 12.591347,12.881456 12.591347,12.778851 12.591631,12.613213 12.591631,12.591632 12.65152,12.591546 12.879222,12.589551" style="fill: white" /><polygon type="contour" points="11.903791,12.588522 12.045171,12.589121 12.075951,12.589121 12.075951,12.704621 12.046055,12.704635 11.903792,12.704025 11.884071,12.704021 11.868789,12.704018 11.685935,12.704768 11.636386,12.704749 11.636817,12.611843 11.636817,12.589187 11.868302,12.588507" style="fill: white" /><polygon type="contour" points="11.147954,12.591045 11.147954,12.613588 11.147721,12.661314 11.147721,12.766157 11.147833,12.814617 11.147918,12.881253 10.956193,12.879111 10.85623,12.880599 10.857858,12.682599 10.857374,12.591464 11.056846,12.590984" style="fill: white" /><polygon type="contour" points="11.148041,11.636387 11.148041,11.68961 11.147759,11.86879 11.147719,11.884071 11.147784,11.903793 11.148113,12.043676 11.148113,12.075896 11.072521,12.076034 10.853974,12.076034 10.853665,11.903794 10.853715,11.884072 10.853664,11.86879 10.85409,11.721621 10.85409,11.636259 11.054713,11.636259" style="fill: white" /><polygon type="contour" points="11.868788,11.636391 11.903791,11.636393 12.043675,11.636405 12.075895,11.636405 12.075993,11.858625 12.075993,11.903793 12.075951,12.045172 12.075951,12.075952 11.903792,12.075995 11.858623,12.075995 11.636403,12.075896 11.636393,11.903793 11.636403,11.862223 11.636386,11.636387" style="fill: white" /><polygon type="contour" points="11.88407,10.853718 11.903792,10.853666 12.022491,10.853976 12.076032,10.853976 12.076032,11.072523 12.075895,11.148115 12.043674,11.148115 11.903791,11.147787 11.884071,11.14772 11.868788,11.14776 11.689608,11.148043 11.636386,11.148043 11.636258,11.054715 11.636258,10.854091 11.868788,10.853665" style="fill: white" /><polygon type="contour" points="11.147833,10.856904 11.147833,11.147835 10.856902,11.147835 10.855488,10.927253 10.856121,10.914488 10.857995,10.857997 10.895999,10.858597 10.914486,10.856124 10.927251,10.85549" style="fill: white" /><polygon type="contour" points="11.148113,7.055808 11.148113,7.088026 11.147785,7.227908 11.147719,7.247628 11.147759,7.262911 11.148041,7.442093 11.148041,7.495317 11.054713,7.495445 10.854089,7.495445 10.853664,7.262911 10.853716,7.247629 10.853665,7.227907 10.853974,7.109211 10.853974,7.05567 11.072521,7.05567" style="fill: white" /><polygon type="contour" points="11.147833,7.983868 11.147833,8.2748 10.927251,8.276215 10.914486,8.27558 10.857995,8.273707 10.858595,8.235704 10.856122,8.217216 10.855488,8.204452 10.857182,7.983494 10.929097,7.983494" style="fill: white" /><polygon type="contour" points="12.076032,8.05918 12.076032,8.277727 11.903791,8.278037 11.88407,8.277986 11.868789,8.278038 11.721619,8.277612 11.636258,8.277612 11.636258,8.076988 11.636386,7.983662 11.689608,7.983662 11.868788,7.983944 11.884071,7.983984 11.903791,7.983918 12.043674,7.983589 12.075895,7.983589" style="fill: white" /><polygon type="contour" points="12.881251,7.983785 12.879246,8.1756 12.8807,8.275402 12.682598,8.273844 12.591463,8.274329 12.590982,8.074855 12.591043,7.983747 12.647333,7.983747" style="fill: white" /><polygon type="contour" points="12.886026,6.378666 12.879222,6.542153 12.816563,6.542088 12.613212,6.540069 12.591631,6.540069 12.591631,6.250531 12.617595,6.249398 12.891511,6.240192" style="fill: white" /><polygon type="contour" points="12.704634,7.085646 12.704022,7.227908 12.704018,7.247628 12.704015,7.262911 12.704765,7.445767 12.704748,7.495317 12.611841,7.494884 12.589186,7.494884 12.588506,7.263398 12.588522,7.227908 12.589119,7.08653 12.589119,7.055752 12.70462,7.055752" style="fill: white" /><polygon type="contour" points="12.04517,7.055752 12.07595,7.055752 12.075993,7.227908 12.075993,7.273076 12.075895,7.495299 11.903791,7.49531 11.862223,7.495298 11.636386,7.495317 11.63639,7.262912 11.636393,7.227907 11.636403,7.088027 11.636403,7.055808 11.858623,7.055709 11.903792,7.055709" style="fill: white" /><polygon type="contour" points="11.868789,6.427686 11.884071,6.427682 11.903791,6.42768 12.046056,6.427069 12.075951,6.427082 12.075951,6.542583 12.045171,6.542583 11.903792,6.543181 11.868301,6.543195 11.636817,6.542516 11.636817,6.51986 11.636386,6.426955 11.685935,6.426936" style="fill: white" /><polygon type="contour" points="11.147918,6.327343 11.147954,6.518115 11.147954,6.540659 11.056846,6.540719 10.857374,6.540237 10.855244,6.397785 10.856019,6.251064 10.956462,6.252549 11.147918,6.25045" style="fill: white" /><polygon type="contour" points="6.368411,6.245013 6.540228,6.250122 6.540257,6.408002 6.540028,6.486203 6.540068,6.518488 6.540068,6.540069 6.480179,6.540154 6.252479,6.542153 6.250346,6.485529 6.24019,6.240192" style="fill: white" /><polygon type="contour" points="6.542581,7.08653 6.543178,7.227908 6.543185,7.262911 6.542454,7.495317 6.519465,7.495317 6.426953,7.495318 6.426935,7.445767 6.427685,7.262911 6.427681,7.247628 6.427678,7.227908 6.427066,7.085647 6.42708,7.055752 6.542581,7.055752" style="fill: white" /><polygon type="contour" points="8.271736,8.017993 8.273705,8.273706 8.235702,8.273106 8.217214,8.27558 8.20445,8.276214 7.983493,8.274521 7.983493,8.202605 7.983866,7.983868 8.202603,7.983494 8.274518,7.983494" style="fill: white" /><polygon type="contour" points="8.278035,7.227908 8.277984,7.247629 8.278036,7.262911 8.277609,7.410082 8.277609,7.495445 8.076986,7.495446 7.98366,7.495318 7.98366,7.442094 7.983942,7.262911 7.983982,7.247628 7.983915,7.227908 7.983587,7.088026 7.983587,7.055808 8.059178,7.05567 8.277726,7.05567" style="fill: white" /><polygon type="contour" points="8.175506,6.252594 8.275471,6.251105 8.273842,6.449101 8.274327,6.540237 8.074852,6.540719 7.983745,6.540659 7.983745,6.518115 7.983979,6.470388 7.983979,6.365546 7.983866,6.317086 7.983782,6.25045" style="fill: white" /><polygon type="contour" points="7.495315,6.426955 7.494882,6.519861 7.494882,6.542516 7.263395,6.543195 7.227904,6.543181 7.086528,6.542583 7.055749,6.542583 7.055749,6.427082 7.085643,6.427069 7.227905,6.42768 7.247626,6.427682 7.262908,6.427686 7.445764,6.426936" style="fill: white" /><polygon type="contour" points="7.495297,7.055808 7.495307,7.227908 7.495297,7.26948 7.495315,7.495317 7.262909,7.495313 7.227905,7.49531 7.088024,7.495299 7.055806,7.495299 7.055707,7.273076 7.055707,7.227908 7.055749,7.08653 7.055749,7.055752 7.227905,7.05571 7.273073,7.05571" style="fill: white" /><polygon type="contour" points="7.227905,7.983918 7.247626,7.983984 7.262909,7.983944 7.442091,7.983662 7.495315,7.983662 7.495443,8.076988 7.495443,8.277612 7.262909,8.278038 7.247627,8.277986 7.227905,8.278037 7.109208,8.277727 7.055668,8.277727 7.055668,8.05918 7.055806,7.983589 7.088024,7.983589" style="fill: white" /><polygon type="contour" points="6.540717,8.074855 6.540236,8.274328 6.397783,8.276112 6.251062,8.275336 6.252547,8.174785 6.250448,7.983784 6.484366,7.983747 6.540657,7.983747" style="fill: white" /><polygon type="contour" points="6.4491,10.85786 6.540236,10.857374 6.540718,11.056846 6.540657,11.147955 6.484366,11.147955 6.250448,11.14792 6.252455,10.956103 6.251,10.856303" style="fill: white" /><polygon type="contour" points="7.410081,10.854091 7.495443,10.854091 7.495443,11.054715 7.495315,11.148043 7.442091,11.148043 7.262909,11.14776 7.247626,11.14772 7.227905,11.147786 7.088024,11.148115 7.055806,11.148115 7.055668,11.072523 7.055668,10.853976 7.227905,10.853667 7.247627,10.853718 7.262908,10.853666" style="fill: white" /><polygon type="contour" points="8.017992,10.859964 8.273705,10.857997 8.276213,10.927252 8.274799,11.147835 7.983866,11.147835 7.983493,10.929097 7.983493,10.857183" style="fill: white" /><polygon type="contour" points="8.278036,11.86879 8.277984,11.884072 8.278035,11.903794 8.277726,12.022492 8.277726,12.076034 8.059178,12.076034 7.983587,12.075896 7.983587,12.043676 7.983915,11.903793 7.983982,11.884071 7.983942,11.86879 7.98366,11.68961 7.98366,11.636387 8.076986,11.636259 8.277609,11.636259" style="fill: white" /><polygon type="contour" points="8.274327,12.591464 8.276456,12.733917 8.275681,12.88064 8.175237,12.879155 7.983782,12.881252 7.983782,12.804359 7.983745,12.613588 7.983745,12.591045 8.074852,12.590984" style="fill: white" /><polygon type="contour" points="7.495315,12.589249 7.495315,12.704749 7.445764,12.704768 7.262908,12.704018 7.247626,12.704021 7.227904,12.704025 7.085644,12.704635 7.055749,12.704621 7.055749,12.589121 7.086528,12.589121 7.227905,12.588522 7.262908,12.588515" style="fill: white" /><polygon type="contour" points="7.49531,11.86879 7.495306,11.903794 7.495297,12.043675 7.495297,12.075896 7.273073,12.075995 7.227904,12.075995 7.086529,12.075952 7.055749,12.075952 7.055707,11.903793 7.055707,11.858625 7.055806,11.636405 7.227905,11.636394 7.269476,11.636405 7.495315,11.636387" style="fill: white" /><polygon type="contour" points="6.543185,11.868791 6.543178,11.903794 6.542581,12.045171 6.542581,12.075952 6.42708,12.075952 6.427066,12.046056 6.427678,11.903794 6.427681,11.884072 6.427685,11.86879 6.426935,11.685937 6.426953,11.636387 6.542454,11.636387" style="fill: white" /><polygon type="contour" points="6.315136,12.589616 6.518486,12.591632 6.540068,12.591632 6.540068,12.881172 6.514103,12.882306 6.24019,12.891512 6.245675,12.753034 6.252478,12.589551" style="fill: white" />
</svg>
