<svg width="19.131698" height="19.131699">
<polygon type="contour" points="9.727012,9.210719 9.730511,9.210738 9.735426,9.210806 9.738789,9.210903 9.74729,9.211086 9.908184,9.22352 9.908389,9.22973 9.908492,9.23273 9.92114,9.393014 9.921351,9.403814 9.924804,9.557321 9.924839,9.566202 9.921394,9.719014 9.921351,9.727822 9.92114,9.738688 9.908492,9.898975 9.908389,9.901974 9.908184,9.908185 9.74729,9.920619 9.738789,9.920801 9.735426,9.920898 9.73051,9.920967 9.569139,9.925221 9.565501,9.925237 9.404645,9.920984 9.401189,9.920967 9.396273,9.920898 9.39291,9.920801 9.384408,9.920619 9.223517,9.908185 9.223311,9.901974 9.223209,9.898975 9.210561,9.738688 9.210349,9.727822 9.206266,9.574941 9.206234,9.566202 9.210306,9.412756 9.21035,9.403813 9.210561,9.393014 9.223208,9.23273 9.223311,9.22973 9.223517,9.22352 9.384408,9.211086 9.39291,9.210903 9.396273,9.210806 9.401189,9.210738 9.561905,9.206483 9.565501,9.206468" style="fill: white" />
</svg>
