<svg width="19.131698" height="19.131699">
<polygon type="contour" points="9.565501,9.375412 9.572392,9.375987 9.585918,9.376436 9.60251,9.377782 9.614838,9.379291 9.634909,9.385208 9.647199,9.388452 9.659867,9.393076 9.672722,9.398797 9.683291,9.403617 9.69508,9.410358 9.700112,9.413982 9.711475,9.421813 9.71934,9.433213 9.724288,9.442462 9.731075,9.454342 9.736742,9.467067 9.740706,9.478832 9.748,9.498702 9.749249,9.503702 9.752355,9.520789 9.75336,9.525064 9.754368,9.537393 9.755331,9.554333 9.756097,9.559693 9.75648,9.569647 9.755331,9.577687 9.754117,9.59839 9.75336,9.60619 9.752104,9.61122 9.749,9.62875 9.748249,9.632752 9.740706,9.652871 9.736735,9.664786 9.73105,9.677544 9.727899,9.683245 9.721142,9.695066 9.720409,9.698809 9.712861,9.710393 9.706577,9.713852 9.695244,9.721325 9.691819,9.722948 9.67993,9.729742 9.667185,9.735413 9.65892,9.738817 9.646235,9.743443 9.634909,9.746495 9.626627,9.748674 9.614585,9.752161 9.602258,9.753921 9.584322,9.755267 9.576273,9.755267 9.561476,9.756611 9.55267,9.755353 9.521729,9.752664 9.518206,9.752161 9.510099,9.750401 9.493949,9.745757 9.482242,9.742475 9.469585,9.737856 9.45674,9.732134 9.44475,9.725292 9.436276,9.721325 9.424932,9.713852 9.420549,9.711152 9.417466,9.705621 9.410013,9.694343 9.403249,9.682509 9.398609,9.674206 9.392885,9.661383 9.391939,9.655898 9.390993,9.652682 9.388699,9.645301 9.383179,9.631562 9.379623,9.609975 9.377637,9.600698 9.376176,9.575772 9.375201,9.566201 9.375985,9.557013 9.377189,9.532601 9.381224,9.509733 9.38349,9.499166 9.39103,9.478974 9.394973,9.466958 9.400672,9.454165 9.40749,9.442228 9.412897,9.43218 9.420773,9.420774 9.424989,9.418108 9.436456,9.410196 9.448273,9.403433 9.455456,9.399723 9.468241,9.39402 9.475805,9.391941 9.486749,9.387702 9.49935,9.384551 9.51035,9.381052 9.518906,9.379291 9.532491,9.377782 9.562984,9.375091" style="fill: white" />
</svg>
