<svg width="19.131698" height="19.131699">
<polygon type="contour" points="9.560381,9.384044 9.574201,9.384044 9.579204,9.384211 9.582722,9.384496 9.612363,9.388126 9.619787,9.390313 9.643337,9.397481 9.648009,9.39918 9.652621,9.40123 9.673224,9.411467 9.677534,9.413927 9.681599,9.416728 9.70422,9.431563 9.707098,9.43575 9.710605,9.4429 9.713082,9.447237 9.724832,9.466652 9.726935,9.471382 9.736113,9.494982 9.73878,9.502247 9.741802,9.514339 9.742461,9.517962 9.74488,9.528246 9.747301,9.557888 9.747657,9.564154 9.747145,9.576951 9.746696,9.584609 9.74488,9.603361 9.741857,9.61546 9.741199,9.619176 9.739384,9.628852 9.736626,9.636208 9.726934,9.660832 9.724833,9.665562 9.722384,9.669853 9.707098,9.695954 9.704261,9.700225 9.700024,9.703029 9.677944,9.71777 9.673714,9.720184 9.669051,9.722258 9.648597,9.732034 9.643832,9.733769 9.640711,9.734589 9.611758,9.742974 9.582117,9.747208 9.578315,9.747493 9.558959,9.747493 9.555821,9.747778 9.534649,9.744752 9.528089,9.744182 9.51962,9.742974 9.5179,9.742601 9.51191,9.740877 9.484781,9.732175 9.480097,9.730468 9.475479,9.728415 9.457987,9.720185 9.453756,9.717769 9.444947,9.71163 9.440326,9.710661 9.436021,9.707797 9.429961,9.701738 9.427143,9.69748 9.416971,9.686796 9.414459,9.682383 9.407916,9.667542 9.405851,9.662893 9.405011,9.660195 9.391661,9.626969 9.39089,9.622298 9.386117,9.599992 9.385577,9.590772 9.38357,9.565686 9.385576,9.541631 9.386022,9.5326 9.386876,9.527753 9.392323,9.502346 9.395074,9.494982 9.405339,9.469835 9.407402,9.465192 9.414459,9.44932 9.41697,9.444909 9.432742,9.428118 9.435642,9.423913 9.439817,9.421043 9.446028,9.419867 9.457987,9.411519 9.46265,9.409445 9.485229,9.399181 9.489232,9.39763 9.491903,9.396962 9.518506,9.388499 9.520321,9.388125 9.552985,9.384496 9.55945,9.383926" style="fill: white" />
</svg>
