<svg width="19.131698" height="19.131699">
<polygon type="contour" points="8.761457,8.726179 8.806723,8.727283 8.81298,8.72756 8.872694,8.72756 9.022017,8.727578 9.022785,8.89428 9.184121,8.894426 9.224002,8.894458 9.258563,8.894422 9.4206,8.894276 9.4206,8.728105 9.511332,8.727622 9.565617,8.726832 9.69411,8.727659 9.711101,8.728105 9.711101,8.894276 9.873137,8.894422 9.907698,8.894458 9.947579,8.894426 10.109684,8.89428 10.109684,8.727578 10.259006,8.72756 10.318719,8.72756 10.324977,8.727283 10.370242,8.72618 10.405848,8.725854 10.404814,8.780433 10.404108,8.818227 10.404098,8.840452 10.403677,8.935178 10.403706,9.02285 10.40373,9.022975 10.288691,9.022975 10.237419,9.023046 10.237275,9.184123 10.237244,9.224004 10.237279,9.258564 10.237422,9.420602 10.403596,9.420602 10.40408,9.511773 10.404837,9.566202 10.404674,9.593053 10.404079,9.62037 10.403596,9.711102 10.237422,9.711102 10.237279,9.87314 10.237244,9.9077 10.237275,9.947581 10.237419,10.108599 10.404094,10.108599 10.404098,10.291252 10.404108,10.313476 10.404814,10.35127 10.405848,10.40585 10.370242,10.405524 10.324977,10.40442 10.318719,10.404144 10.259006,10.404144 10.109683,10.404126 10.108915,10.237423 9.947579,10.237277 9.907698,10.237245 9.873137,10.237281 9.711101,10.237427 9.711101,10.403597 9.619929,10.404082 9.5655,10.404872 9.437589,10.404043 9.4206,10.403598 9.4206,10.237427 9.258563,10.237281 9.224002,10.237245 9.184121,10.237277 9.022017,10.237423 9.022017,10.404125 8.872694,10.404144 8.81298,10.404144 8.806723,10.404421 8.761457,10.405524 8.725852,10.40585 8.726885,10.35127 8.727592,10.313476 8.727602,10.291252 8.728022,10.196526 8.727993,10.108854 8.72797,10.10873 8.843008,10.10873 8.89428,10.108658 8.894424,9.947581 8.894455,9.9077 8.89442,9.87314 8.894277,9.711102 8.728103,9.711102 8.72762,9.620369 8.726862,9.566201 8.727026,9.539221 8.727619,9.511773 8.728103,9.420602 8.894277,9.420602 8.89442,9.258564 8.894455,9.224004 8.894424,9.184123 8.89428,9.023106 8.727606,9.023106 8.727601,8.840452 8.727592,8.818227 8.726885,8.780433 8.725852,8.725853" style="fill: white" />
</svg>
