<svg width="19.131698" height="19.131699">
<polygon type="contour" points="9.94988,8.918851 10.023689,8.919935 10.039989,8.91875 10.051625,8.919055 10.111781,8.92126 10.178018,8.921335 10.178201,8.998388 10.178786,9.006079 10.181336,9.151319 10.181272,9.166701 10.181343,9.213678 10.00335,9.218196 10.00335,9.913508 10.181343,9.918026 10.181272,9.965002 10.181336,9.980384 10.178786,10.125624 10.178201,10.133315 10.178018,10.210369 10.11519,10.210369 10.111781,10.210222 10.102231,10.210348 10.039989,10.212952 10.023688,10.211767 9.94988,10.212849 9.915922,10.213339 9.913982,10.003352 9.217718,10.003352 9.215776,10.213339 9.181819,10.21285 9.10801,10.211767 9.09171,10.212952 9.029469,10.210348 9.019918,10.210222 8.953682,10.210369 8.953497,10.133315 8.952914,10.125624 8.950364,9.980384 8.950428,9.965002 8.950357,9.918026 9.12835,9.913508 9.12835,9.218196 8.950357,9.213678 8.950428,9.166701 8.950364,9.151319 8.952914,9.006079 8.953497,8.998388 8.953682,8.921335 9.016509,8.921335 9.019919,8.921259 9.029468,8.921102 9.09171,8.91875 9.10801,8.919935 9.181819,8.91885 9.215777,8.918362 9.217718,9.128352 9.913982,9.128352 9.915922,8.918362" style="fill: white" />
</svg>
