<svg width="19.131698" height="19.131699">
<polygon type="contour" points="10.398029,8.735434 10.398007,8.736676 10.398006,8.737408 10.397992,8.740522 10.398004,8.776591 10.398004,8.84768 10.398001,8.87712 10.398001,9.524239 10.397937,9.551722 10.398006,9.564412 10.398031,9.566201 10.398025,9.567084 10.398006,9.567983 10.397938,9.580611 10.398001,9.607963 10.398001,10.313875 10.398006,10.369177 10.398006,10.394295 10.398007,10.395027 10.398029,10.396269 10.398064,10.398065 10.396892,10.398054 10.395031,10.39801 10.312675,10.39801 10.254581,10.398003 9.607463,10.398003 9.57998,10.397939 9.56729,10.398008 9.5655,10.398034 9.551091,10.39794 9.523739,10.398003 8.877119,10.398003 8.819025,10.39801 8.736668,10.39801 8.734807,10.398054 8.733636,10.398065 8.73367,10.396269 8.733692,10.395027 8.733694,10.394295 8.733708,10.391181 8.733695,10.355112 8.733695,10.284025 8.733699,10.254583 8.733699,9.607963 8.733761,9.580611 8.733694,9.567983 8.733669,9.566202 8.733675,9.565315 8.733694,9.564412 8.733762,9.551722 8.733699,9.524239 8.733699,8.817828 8.733694,8.762526 8.733694,8.737408 8.733692,8.736676 8.73367,8.735434 8.733636,8.733638 8.734807,8.733649 8.736668,8.733694 8.819025,8.733694 8.877119,8.733701 9.523739,8.733701 9.551091,8.733763 9.563719,8.733695 9.565504,8.73367 9.57998,8.733764 9.607463,8.733701 10.254581,8.733701 10.312675,8.733694 10.395031,8.733694 10.396892,8.733649 10.398064,8.733638" style="fill: white" />
</svg>
