<svg width="19.131698" height="19.131699">
<polygon type="contour" points="10.446595,8.649364 10.483406,8.648296 10.482564,8.676616 10.482442,8.679684 10.482108,8.70995 10.481971,8.727297 10.481887,8.9521 10.417277,8.9521 10.243796,8.951906 10.179796,8.951906 10.180373,8.852089 10.180972,8.691621 10.181131,8.687718 10.181131,8.668272 10.181759,8.64813" style="fill: white" /><polygon type="contour" points="9.602912,8.646624 9.711101,8.649747 9.711101,8.692554 9.711462,8.727297 9.711101,8.85302 9.711101,8.952458 9.4206,8.952458 9.4206,8.649409 9.528268,8.646624 9.536399,8.646241 9.565501,8.645685" style="fill: white" /><polygon type="contour" points="8.950537,8.666329 8.950569,8.668272 8.950729,8.691622 8.950729,8.726255 8.951328,8.85209 8.951904,8.922936 8.951904,8.951906 8.887903,8.951906 8.714423,8.9521 8.649813,8.9521 8.649728,8.727297 8.649591,8.70995 8.649258,8.679684 8.649135,8.676616 8.648294,8.648296 8.685104,8.649364 8.949942,8.64813" style="fill: white" /><polygon type="contour" points="9.176049,8.816453 9.185804,8.816535 9.195424,8.816463 9.267427,8.816166 9.267427,8.952239 9.195425,8.952262 9.17605,8.952252 9.105317,8.952202 9.105317,8.816132" style="fill: white" /><polygon type="contour" points="9.266918,9.105319 9.26705,9.176052 9.267184,9.195426 9.267427,9.249499 9.267427,9.267429 9.195425,9.267186 9.176036,9.267186 9.104284,9.267429 9.104827,9.195427 9.1051,9.176052 9.105317,9.122597 9.105317,9.105319 9.17605,9.105102 9.195552,9.105102" style="fill: white" /><polygon type="contour" points="8.95225,9.176052 8.95226,9.195427 8.952237,9.267429 8.816163,9.267429 8.816461,9.195426 8.816532,9.185806 8.81645,9.176051 8.816129,9.105319 8.9522,9.105319" style="fill: white" /><polygon type="contour" points="8.887903,10.179798 8.951904,10.179798 8.951328,10.279613 8.950729,10.44008 8.950569,10.443984 8.950569,10.463429 8.949942,10.483572 8.685104,10.48234 8.648294,10.483408 8.649135,10.455088 8.649258,10.452019 8.649592,10.421751 8.649728,10.404406 8.649812,10.179604 8.714423,10.179604" style="fill: white" /><polygon type="contour" points="8.95226,9.936276 8.95225,9.955651 8.9522,10.026385 8.816129,10.026385 8.816451,9.955652 8.816532,9.945897 8.81646,9.936276 8.816163,9.864276 8.952237,9.864276" style="fill: white" /><polygon type="contour" points="8.952456,9.711102 8.645118,9.711102 8.645048,9.693142 8.645661,9.566202 8.645725,9.546872 8.645118,9.420602 8.952456,9.420602" style="fill: white" /><polygon type="contour" points="9.267427,9.711102 9.105317,9.711102 9.105317,9.420602 9.267427,9.420602" style="fill: white" /><polygon type="contour" points="9.267184,9.936276 9.26705,9.955652 9.266918,10.00897 9.266918,10.026385 9.195552,10.026602 9.17605,10.026602 9.122595,10.026385 9.105317,10.026385 9.1051,9.955651 9.1051,9.93615 9.105317,9.864785 9.17605,9.864651 9.195424,9.864518 9.249497,9.864276 9.267427,9.864276" style="fill: white" /><polygon type="contour" points="9.267427,10.179465 9.267427,10.315539 9.195424,10.315242 9.185804,10.31517 9.176049,10.315252 9.105317,10.315573 9.105317,10.179502 9.17605,10.179451 9.195425,10.179442" style="fill: white" /><polygon type="contour" points="10.481972,10.404406 10.482107,10.421751 10.482442,10.452019 10.482565,10.455088 10.483406,10.483408 10.446596,10.482341 10.181759,10.483572 10.181163,10.465372 10.18113,10.463428 10.180972,10.440081 10.180972,10.405446 10.180372,10.279612 10.179796,10.208769 10.179796,10.179798 10.243796,10.179798 10.417277,10.179604 10.481887,10.179604" style="fill: white" /><polygon type="contour" points="10.31524,9.936276 10.315168,9.945897 10.31525,9.955652 10.315572,10.026385 10.1795,10.026385 10.179449,9.955651 10.17944,9.936276 10.179463,9.864276 10.315538,9.864276" style="fill: white" /><polygon type="contour" points="10.486651,9.43856 10.486038,9.565501 10.485975,9.584831 10.486582,9.711102 10.179244,9.711102 10.179244,9.420602 10.486582,9.420602" style="fill: white" /><polygon type="contour" points="10.31525,9.176051 10.315168,9.185806 10.315239,9.195426 10.315538,9.267429 10.179463,9.267429 10.17944,9.195427 10.179449,9.176052 10.1795,9.105319 10.315572,9.105319" style="fill: white" /><polygon type="contour" points="10.026383,8.952202 9.95565,8.952252 9.936275,8.952262 9.864274,8.952239 9.864274,8.816166 9.936276,8.816463 9.945896,8.816534 9.955651,8.816452 10.026383,8.816132" style="fill: white" /><polygon type="contour" points="9.936275,9.104829 9.955651,9.105102 10.009103,9.105319 10.026382,9.105319 10.0266,9.176052 10.026873,9.195427 10.027416,9.267429 9.955665,9.267186 9.936275,9.267186 9.882203,9.267429 9.864274,9.267429 9.864517,9.195427 9.864517,9.176037 9.864274,9.121942 9.864274,9.104287" style="fill: white" /><polygon type="contour" points="9.711101,9.267429 9.4206,9.267429 9.4206,9.105319 9.711101,9.105319" style="fill: white" /><polygon type="contour" points="9.711101,9.711102 9.4206,9.711102 9.4206,9.420602 9.711101,9.420602" style="fill: white" /><polygon type="contour" points="10.026383,9.711102 9.864274,9.711102 9.864274,9.420602 10.026383,9.420602" style="fill: white" /><polygon type="contour" points="9.936276,9.864518 9.95565,9.864651 10.026383,9.864785 10.0266,9.93615 10.0266,9.955651 10.026383,10.009106 10.026383,10.026385 9.955651,10.026602 9.936275,10.026874 9.864274,10.027417 9.864517,9.955666 9.864517,9.936276 9.864274,9.882205 9.864274,9.864276" style="fill: white" /><polygon type="contour" points="9.711101,10.026385 9.4206,10.026385 9.4206,9.864276 9.711101,9.864276" style="fill: white" /><polygon type="contour" points="9.95565,10.179451 10.026383,10.179501 10.026383,10.315573 9.955651,10.315252 9.945896,10.31517 9.936276,10.315242 9.864274,10.315539 9.864274,10.179465 9.936275,10.179442" style="fill: white" /><polygon type="contour" points="9.711101,10.482293 9.602912,10.485079 9.594743,10.485462 9.565586,10.486018 9.528268,10.485079 9.4206,10.481957 9.4206,10.439149 9.420239,10.404406 9.4206,10.278683 9.4206,10.179246 9.711101,10.179246" style="fill: white" />
</svg>
