<svg width="19.131698" height="19.131699">
<polygon type="contour" points="8.80402,8.624701 8.923588,8.624144 8.926133,8.701969 8.926133,8.792421 9.02142,8.792707 9.02142,8.813541 9.020921,8.926102 9.020921,8.932071 9.02142,9.021421 9.007088,9.021421 8.929918,9.020923 8.922976,9.020923 8.792705,9.021421 8.792419,8.926091 8.631104,8.926091 8.627275,8.926095 8.625826,8.926095 8.624181,8.77682 8.62356,8.761425 8.619343,8.619345" style="fill: white" /><polygon type="contour" points="8.9261,9.324384 8.932068,9.324384 9.02142,9.323967 9.02142,9.338519 9.021297,9.417118 9.021297,9.716574 9.02142,9.807737 9.007087,9.807737 8.929918,9.80732 8.922975,9.80732 8.792705,9.807737 8.792445,9.711102 8.623091,9.711102 8.622742,9.621 8.623007,9.566202 8.623325,9.46922 8.623091,9.420602 8.792445,9.420602 8.792705,9.323967 8.813539,9.323967" style="fill: white" /><polygon type="contour" points="9.417116,9.324034 9.716574,9.324034 9.807734,9.323967 9.807734,9.338518 9.807668,9.417119 9.807668,9.716575 9.807734,9.807737 9.793182,9.807737 9.714584,9.80767 9.415126,9.80767 9.323966,9.807737 9.323966,9.793185 9.324032,9.714584 9.324032,9.415128 9.323966,9.323967 9.338518,9.323967" style="fill: white" /><polygon type="contour" points="9.672187,8.625805 9.709328,8.625856 9.711101,8.625847 9.711101,8.792447 9.807734,8.792707 9.807734,8.813541 9.807318,8.926102 9.807318,8.93207 9.807734,9.021421 9.793183,9.021421 9.714583,9.021299 9.415126,9.021299 9.323966,9.021421 9.323966,9.007088 9.324382,8.929922 9.324382,8.922979 9.323966,8.792707 9.4206,8.792447 9.4206,8.625847 9.422365,8.625856 9.5655,8.623127" style="fill: white" /><polygon type="contour" points="10.508139,8.761425 10.507519,8.77682 10.505874,8.926095 10.504424,8.926095 10.500595,8.926091 10.339281,8.926091 10.338996,9.021421 10.318161,9.021421 10.205596,9.020923 10.199628,9.020923 10.110281,9.021421 10.110281,9.007088 10.11078,8.929921 10.11078,8.922979 10.110281,8.792707 10.205604,8.792421 10.205567,8.701969 10.205947,8.693561 10.208112,8.624144 10.327679,8.624701 10.512357,8.619345" style="fill: white" /><polygon type="contour" points="10.201777,9.324384 10.20872,9.324384 10.338996,9.323967 10.339255,9.420602 10.508608,9.420602 10.508955,9.510703 10.508692,9.565502 10.508376,9.662483 10.508609,9.711102 10.339255,9.711102 10.338996,9.807737 10.31816,9.807737 10.205596,9.80732 10.199628,9.80732 10.110281,9.807737 10.110281,9.793184 10.110404,9.714585 10.110404,9.415129 10.110281,9.323967 10.124612,9.323967" style="fill: white" /><polygon type="contour" points="10.201776,10.110782 10.20872,10.110782 10.338996,10.110283 10.339281,10.20561 10.500595,10.20561 10.504424,10.205606 10.505874,10.205606 10.507519,10.354884 10.508138,10.370275 10.512357,10.512359 10.327678,10.507004 10.208112,10.50756 10.205567,10.429734 10.205567,10.339283 10.110281,10.338998 10.110281,10.318162 10.11078,10.205597 10.11078,10.199629 10.110281,10.110283 10.124613,10.110283" style="fill: white" /><polygon type="contour" points="9.417116,10.110406 9.716573,10.110406 9.807734,10.110283 9.807734,10.124614 9.807318,10.201779 9.807318,10.208721 9.807734,10.338998 9.711101,10.339257 9.711101,10.505857 9.709335,10.505848 9.565933,10.508576 9.459514,10.505899 9.422372,10.505848 9.4206,10.505857 9.4206,10.339257 9.323966,10.338998 9.323966,10.318162 9.324382,10.205597 9.324382,10.199629 9.323966,10.110283 9.338517,10.110283" style="fill: white" /><polygon type="contour" points="8.9261,10.110782 8.932067,10.110782 9.02142,10.110283 9.02142,10.124615 9.020921,10.201778 9.020921,10.208722 9.02142,10.338997 8.926091,10.339283 8.926133,10.429733 8.92575,10.438141 8.923588,10.50756 8.804021,10.507004 8.619343,10.512359 8.623561,10.370275 8.624181,10.354884 8.625826,10.205606 8.627275,10.205606 8.631104,10.20561 8.792419,10.20561 8.792705,10.110283 8.813539,10.110283" style="fill: white" />
</svg>
