<svg width="19.131698" height="19.131699">
<polygon type="contour" points="10.877907,7.463462 10.877907,7.472233 10.877833,7.506614 10.877462,7.594318 10.877683,7.664244 10.877769,7.735231 10.877833,7.758084 10.580587,7.758084 10.580444,7.664244 10.58066,7.594318 10.580483,7.506615 10.580578,7.47154 10.580557,7.46346 10.865571,7.46346" style="fill: white" /><polygon type="contour" points="10.877627,8.421906 10.877627,8.547175 10.737801,8.54533 10.717634,8.543381 10.590242,8.54146 10.591118,8.42621 10.58832,8.414067 10.586372,8.3939 10.584527,8.254076 10.878026,8.254076" style="fill: white" /><polygon type="contour" points="11.66824,8.538259 11.668242,8.551144 11.625087,8.551218 11.537383,8.551041 11.467456,8.551258 11.394739,8.551077 11.373618,8.551115 11.373618,8.280594 11.373682,8.253932 11.467456,8.254019 11.537383,8.25424 11.625087,8.253868 11.659467,8.253794 11.66824,8.253794" style="fill: white" /><polygon type="contour" points="12.47653,8.323776 12.476385,8.547937 12.434059,8.547187 12.283365,8.547002 12.207557,8.54667 12.186343,8.546938 12.186343,8.282302 12.186308,8.254211 12.198359,8.254211 12.283037,8.254126 12.452419,8.253947 12.477283,8.253947" style="fill: white" /><polygon type="contour" points="12.475382,6.842559 12.476881,6.945725 12.456172,6.945835 12.45074,6.946142 12.433463,6.946142 12.283132,6.945634 12.229233,6.945566 12.186343,6.945356 12.186364,6.848662 12.186322,6.697698 12.186322,6.654491 12.290118,6.655752 12.477404,6.654298" style="fill: white" /><polygon type="contour" points="12.301473,7.506614 12.301128,7.594317 12.301411,7.664244 12.301835,7.758084 12.183916,7.758084 12.183547,7.664244 12.183172,7.506614 12.183278,7.471892 12.183278,7.46346 12.301696,7.46346" style="fill: white" /><polygon type="contour" points="11.65981,7.463459 11.668241,7.463459 11.668317,7.506615 11.668317,7.703837 11.66824,7.75782 11.625086,7.757913 11.467456,7.758165 11.396471,7.758084 11.373682,7.758084 11.373537,7.664244 11.373785,7.506615 11.37388,7.472233 11.37388,7.463462 11.427862,7.463385 11.625086,7.463384" style="fill: white" /><polygon type="contour" points="11.467457,6.83029 11.537383,6.830574 11.625087,6.830229 11.668242,6.830007 11.668242,6.948424 11.659809,6.948424 11.625087,6.948529 11.625087,6.94798 11.467456,6.94815 11.373618,6.947784 11.373618,6.829867" style="fill: white" /><polygon type="contour" points="10.877514,6.781942 10.877514,6.94578 10.614008,6.945391 10.584764,6.945356 10.5847,6.848333 10.583911,6.655194 10.626136,6.654583 10.877627,6.654108" style="fill: white" /><polygon type="contour" points="6.945355,6.653957 6.945355,6.945356 6.893005,6.945584 6.680958,6.946142 6.675528,6.945835 6.654819,6.945725 6.656318,6.842559 6.654296,6.654298 6.848292,6.653377" style="fill: white" /><polygon type="contour" points="6.948422,7.471892 6.948527,7.506615 6.947977,7.506615 6.948149,7.664245 6.947782,7.758084 6.829865,7.758084 6.830288,7.664244 6.830572,7.594317 6.830227,7.506614 6.830005,7.46346 6.948422,7.46346" style="fill: white" /><polygon type="contour" points="8.544494,8.341845 8.541458,8.54146 8.426208,8.540584 8.414065,8.54338 8.393898,8.54533 8.254074,8.547175 8.254074,8.254076 8.547173,8.254076" style="fill: white" /><polygon type="contour" points="8.551218,7.506614 8.551039,7.594318 8.551257,7.664244 8.551074,7.736962 8.551113,7.758084 8.253931,7.758084 8.254017,7.664245 8.254238,7.594318 8.253867,7.506614 8.253793,7.472233 8.253793,7.463462 8.538258,7.463462 8.551143,7.46346" style="fill: white" /><polygon type="contour" points="8.323774,6.65517 8.547936,6.655315 8.547186,6.69764 8.547196,6.945585 8.2823,6.945356 8.254209,6.945392 8.254209,6.916204 8.254185,6.781943 8.254073,6.728607 8.253945,6.679282 8.253945,6.654417" style="fill: white" /><polygon type="contour" points="7.758083,6.947784 7.664242,6.948151 7.506613,6.948529 7.471891,6.948424 7.463458,6.948424 7.463458,6.830007 7.506613,6.830229 7.594316,6.830574 7.664242,6.83029 7.758083,6.829867" style="fill: white" /><polygon type="contour" points="7.757819,7.463462 7.757912,7.506614 7.757819,7.517532 7.758083,7.758084 7.664242,7.758165 7.506613,7.757913 7.472232,7.75782 7.463461,7.75782 7.463383,7.703837 7.463383,7.506614 7.463458,7.471891 7.463458,7.46346 7.506614,7.463385 7.703836,7.463385" style="fill: white" /><polygon type="contour" points="7.506614,8.253869 7.594316,8.25424 7.664243,8.254018 7.735228,8.253932 7.758083,8.253932 7.758083,8.551115 7.664243,8.551258 7.594315,8.551041 7.506614,8.551219 7.471538,8.551123 7.463458,8.551144 7.463458,8.26613 7.463461,8.253794 7.472231,8.253794" style="fill: white" /><polygon type="contour" points="6.697697,8.253986 6.781941,8.254189 6.945778,8.254189 6.945391,8.517693 6.945355,8.546938 6.848333,8.547002 6.655192,8.547792 6.654582,8.505566 6.654415,8.253947 6.679279,8.253947" style="fill: white" /><polygon type="contour" points="6.697638,10.584518 6.848332,10.584702 6.92414,10.585033 6.945355,10.584765 6.945355,10.849402 6.945391,10.877492 6.933339,10.877492 6.84866,10.877577 6.67928,10.877757 6.654415,10.877757 6.655168,10.807927 6.655313,10.583768" style="fill: white" /><polygon type="contour" points="8.341844,10.587208 8.541458,10.590244 8.545327,10.737803 8.547173,10.877629 8.254074,10.877629 8.254074,10.584529" style="fill: white" /><polygon type="contour" points="7.736961,10.580627 7.758083,10.580589 7.758083,10.877771 7.664243,10.877685 7.594316,10.877463 7.506613,10.877835 7.472232,10.877909 7.463461,10.877909 7.463461,10.593444 7.463458,10.58056 7.506614,10.580485 7.594316,10.580662 7.664242,10.580446" style="fill: white" /><polygon type="contour" points="7.664242,12.183548 7.758083,12.183917 7.758083,12.301837 7.664242,12.301413 7.594315,12.30113 7.506613,12.301475 7.463458,12.301697 7.463458,12.183279 7.471891,12.183279 7.506613,12.183174" style="fill: white" /><polygon type="contour" points="6.848566,12.186067 6.902361,12.186135 6.945355,12.186345 6.945334,12.283038 6.945376,12.434002 6.945376,12.47721 6.841581,12.47595 6.654296,12.477407 6.656318,12.289143 6.654819,12.185979 6.675529,12.185785 6.680958,12.185562 6.698237,12.185562" style="fill: white" /><polygon type="contour" points="6.94815,11.467459 6.948527,11.625089 6.948422,11.659811 6.948422,11.668244 6.830005,11.668244 6.830227,11.625089 6.830572,11.537386 6.830288,11.467459 6.829865,11.37362 6.947782,11.37362" style="fill: white" /><polygon type="contour" points="7.735228,11.37362 7.758083,11.37362 7.758163,11.467459 7.757911,11.625089 7.757819,11.659469 7.757819,11.668241 7.703836,11.668319 7.506614,11.668319 7.47189,11.668244 7.463458,11.668244 7.463383,11.625089 7.463383,11.427863 7.463461,11.373882 7.506613,11.373788 7.664243,11.373539" style="fill: white" /><polygon type="contour" points="8.551257,11.467459 8.551039,11.537385 8.551218,11.625088 8.551122,11.660163 8.551143,11.668244 8.266128,11.668244 8.253793,11.668242 8.253793,11.65947 8.253867,11.625088 8.254238,11.537385 8.254017,11.467459 8.253931,11.396472 8.253931,11.37362 8.551114,11.37362" style="fill: white" /><polygon type="contour" points="8.517691,12.18631 8.546936,12.186345 8.547001,12.283367 8.54779,12.476507 8.505564,12.477118 8.254074,12.477595 8.254186,12.349759 8.254186,12.185924" style="fill: white" /><polygon type="contour" points="10.849399,12.186345 10.877491,12.18631 10.877491,12.215496 10.877514,12.34976 10.877626,12.403094 10.877755,12.452419 10.877755,12.477284 10.807925,12.476531 10.583765,12.476386 10.584515,12.43406 10.584504,12.186119" style="fill: white" /><polygon type="contour" points="11.659809,12.183279 11.668242,12.183279 11.668242,12.301697 11.625087,12.301475 11.537384,12.30113 11.467457,12.301413 11.373618,12.301837 11.373618,12.183917 11.467457,12.183548 11.625087,12.183173" style="fill: white" /><polygon type="contour" points="12.477117,10.626138 12.477283,10.877757 12.452418,10.877757 12.434001,10.877718 12.349757,10.877516 12.185922,10.877516 12.186308,10.61401 12.186343,10.584766 12.283366,10.584702 12.476506,10.583913" style="fill: white" /><polygon type="contour" points="11.537383,10.580662 11.625086,10.580485 11.660161,10.58058 11.668242,10.580559 11.668242,10.865573 11.66824,10.877909 11.659468,10.877909 11.625086,10.877835 11.537383,10.877464 11.467457,10.877685 11.39647,10.877771 11.373682,10.877771 11.373682,10.607251 11.373618,10.580589 11.467457,10.580446" style="fill: white" /><polygon type="contour" points="10.878026,10.752359 10.878026,10.877629 10.584527,10.877629 10.586372,10.737803 10.58832,10.717635 10.590242,10.590244 10.737801,10.586373 10.877627,10.584529" style="fill: white" /><polygon type="contour" points="10.877683,11.467459 10.877462,11.537385 10.877833,11.625088 10.877907,11.65947 10.877907,11.668242 10.593442,11.668242 10.580558,11.668244 10.580483,11.625089 10.58066,11.537385 10.580444,11.467458 10.580625,11.394741 10.580587,11.37362 10.877833,11.37362" style="fill: white" /><polygon type="contour" points="11.625086,11.373787 11.659468,11.373882 11.66824,11.373882 11.668317,11.427862 11.668317,11.625088 11.668242,11.659812 11.668242,11.668244 11.625086,11.66832 11.427862,11.66832 11.37388,11.668242 11.373786,11.625089 11.37391,11.614172 11.373682,11.37362 11.467456,11.373539" style="fill: white" /><polygon type="contour" points="12.301411,11.467459 12.301128,11.537386 12.301473,11.625089 12.301696,11.668244 12.183278,11.668244 12.183278,11.659811 12.183172,11.625089 12.183547,11.467459 12.183916,11.37362 12.301835,11.37362" style="fill: white" /><polygon type="contour" points="12.456172,12.185785 12.476881,12.185979 12.475383,12.289144 12.477404,12.477407 12.283406,12.478326 12.186343,12.477746 12.186343,12.449715 12.186116,12.186119 12.238694,12.186119 12.450741,12.185562" style="fill: white" />
</svg>
