<svg width="19.131698" height="19.131699">
<polygon type="contour" points="8.871869,8.695237 9.001135,8.698387 9.002457,8.742192 9.00271,8.746658 9.003057,8.805659 9.003115,8.866305 9.162744,8.865986 9.204346,8.86586 9.295344,8.866025 9.4206,8.866512 9.4206,8.699486 9.510747,8.699466 9.521525,8.699149 9.56608,8.6985 9.592398,8.698669 9.610659,8.699149 9.621384,8.699466 9.711101,8.699486 9.711101,8.866365 9.871351,8.865997 9.909017,8.865862 10.00439,8.866014 10.128585,8.866424 10.128644,8.80566 10.128991,8.794202 10.128991,8.746657 10.130566,8.698386 10.25983,8.695238 10.438095,8.693607 10.432927,8.966861 10.432248,9.003146 10.265396,9.003146 10.265716,9.162747 10.26547,9.239355 10.26565,9.239355 10.265419,9.295348 10.265913,9.420349 10.374976,9.42047 10.400582,9.420602 10.431993,9.420602 10.432449,9.523722 10.43304,9.566202 10.43222,9.700632 10.431993,9.711102 10.265335,9.711102 10.265706,9.871352 10.265496,9.947775 10.26565,9.947775 10.265429,10.004392 10.265993,10.128559 10.432248,10.128559 10.432927,10.164843 10.438095,10.438097 10.25983,10.436466 10.130566,10.433317 10.129244,10.389511 10.128991,10.385045 10.128644,10.326044 10.128585,10.265399 9.968417,10.265718 9.891778,10.265469 9.891778,10.265651 9.836353,10.265421 9.711101,10.265916 9.711101,10.432217 9.620953,10.432237 9.610174,10.432555 9.565501,10.433204 9.5393,10.433033 9.521042,10.432555 9.510316,10.432237 9.4206,10.432217 9.4206,10.26534 9.259809,10.265707 9.183356,10.265497 9.183356,10.265651 9.127309,10.265431 9.003114,10.265995 9.003056,10.326044 9.00271,10.337098 9.00271,10.385046 9.001135,10.433317 8.871869,10.436466 8.693605,10.438097 8.698772,10.164843 8.699451,10.128559 8.866302,10.128559 8.865984,9.968417 8.865858,9.926629 8.866023,9.836354 8.866509,9.711355 8.756723,9.711234 8.731117,9.711102 8.699707,9.711102 8.699251,9.608476 8.69866,9.566201 8.69948,9.431121 8.699707,9.420602 8.866361,9.420602 8.865995,9.259812 8.865859,9.221844 8.866013,9.127311 8.866419,9.003146 8.699451,9.003146 8.698772,8.966861 8.693604,8.693606" style="fill: white" /><polygon type="hole" points="9.671886,10.037367 9.721014,10.150179 9.801372,10.132251 9.798686,10.037367" style="fill: black" /><polygon type="hole" points="8.900616,9.804171 9.094336,9.798687 9.094336,9.629645" style="fill: black" /><polygon type="hole" points="10.037364,9.328256 10.037365,9.328798 10.037365,9.502058 10.230281,9.328256" style="fill: black" />
</svg>
