<svg width="19.131698" height="19.131699">
<polygon type="contour" points="11.229416,9.032765 11.229542,9.235631 10.954471,9.235631 10.954634,9.034462 10.954901,8.9426 10.987391,8.942694 11.179931,8.942474 11.22935,8.942474" style="fill: white" /><polygon type="contour" points="11.060868,9.416462 11.060644,9.497512 11.060591,9.516108 11.040883,9.516069 10.953875,9.516069 10.953722,9.497511 10.953411,9.416451 10.98803,9.416451" style="fill: white" /><polygon type="contour" points="11.060645,9.634761 11.060868,9.715243 10.988029,9.715253 10.953411,9.715253 10.953667,9.684554 10.953875,9.616207 10.971941,9.616179 11.06059,9.616179" style="fill: white" /><polygon type="contour" points="11.119166,9.896151 11.229622,9.896151 11.229416,10.098939 11.229435,10.100014 11.22935,10.18923 11.17993,10.18923 10.987543,10.189225 10.954633,10.189319 10.954365,10.096284 10.954365,9.895967 10.988984,9.895967" style="fill: white" /><polygon type="contour" points="10.518187,10.971566 10.518187,11.060662 10.449778,11.061199 10.42296,11.061179 10.422905,11.028422 10.422905,10.953765 10.451742,10.953765 10.518102,10.953371" style="fill: white" /><polygon type="contour" points="10.726662,10.953891 10.726662,11.060949 10.640201,11.060727 10.620676,11.060663 10.620794,11.040805 10.620794,10.953371 10.640201,10.953371" style="fill: white" /><polygon type="contour" points="11.231047,10.981746 11.237198,11.2372 11.055709,11.230875 10.956454,11.231673 10.955134,11.195249 10.955134,11.160038 10.955188,11.158205 10.954762,11.115331 10.954822,11.062363 10.954822,10.954824 11.144016,10.954635 11.229469,10.954635" style="fill: white" /><polygon type="contour" points="11.060841,10.695691 11.060947,10.726664 10.987285,10.726603 10.953668,10.726603 10.953668,10.693854 10.953369,10.620796 10.971564,10.620678 11.06066,10.620678" style="fill: white" /><polygon type="contour" points="10.985925,10.422962 11.061177,10.422962 11.060656,10.50103 11.06066,10.518189 11.040803,10.518104 10.953369,10.518104 10.953369,10.500624 10.953763,10.422907" style="fill: white" /><polygon type="contour" points="10.72686,10.422907 10.72686,10.451743 10.726492,10.518103 10.708605,10.518189 10.620676,10.518189 10.620773,10.50103 10.620773,10.422935 10.640201,10.422903" style="fill: white" /><polygon type="contour" points="10.640202,10.620796 10.726492,10.620796 10.726492,10.640204 10.726662,10.726664 10.653176,10.726862 10.640202,10.726494 10.620794,10.726494 10.620676,10.708608 10.620676,10.620678" style="fill: white" /><polygon type="contour" points="10.518102,10.640203 10.518102,10.726494 10.500621,10.726494 10.422905,10.726862 10.4229,10.640203 10.422932,10.620775 10.438988,10.620678 10.518187,10.620678" style="fill: white" /><polygon type="contour" points="10.518187,10.43899 10.518187,10.518189 10.501027,10.518137 10.422933,10.518137 10.422933,10.501029 10.42296,10.422962 10.451269,10.422962 10.518135,10.422936" style="fill: white" /><polygon type="contour" points="10.188845,9.985825 10.189228,10.18923 10.098937,10.189272 9.896071,10.188896 9.896071,10.095332 9.896149,9.896151 9.995563,9.896151 10.095331,9.896072 10.188894,9.896072" style="fill: white" /><polygon type="contour" points="10.518135,9.948058 10.518135,10.188654 10.501028,10.188654 10.42296,10.188355 10.422917,10.097485 10.422917,9.895594 10.452647,9.895594 10.518241,9.895387" style="fill: white" /><polygon type="contour" points="10.72676,9.895596 10.726873,9.987089 10.726662,10.188569 10.694063,10.188468 10.620773,10.188654 10.62073,10.133347 10.62073,9.895387 10.640673,9.895387" style="fill: white" /><polygon type="contour" points="10.518241,9.416352 10.518187,9.433033 10.51968,9.516107 10.502628,9.516143 10.422682,9.516143 10.422659,9.497511 10.422916,9.416263 10.452647,9.416263" style="fill: white" /><polygon type="contour" points="10.726655,9.416462 10.726768,9.447449 10.726619,9.516069 10.708872,9.516108 10.621386,9.516108 10.621422,9.497512 10.62073,9.416352 10.640672,9.416352" style="fill: white" /><polygon type="contour" points="10.640751,9.616207 10.726619,9.616207 10.726554,9.63476 10.726551,9.715556 10.653819,9.715441 10.640673,9.715353 10.62073,9.715353 10.620676,9.698672 10.621386,9.616179" style="fill: white" /><polygon type="contour" points="10.438611,9.616179 10.51968,9.616179 10.519697,9.634761 10.518241,9.715353 10.500147,9.715353 10.422916,9.715441 10.422959,9.685862 10.422682,9.616136" style="fill: white" /><polygon type="contour" points="10.18862,9.63476 10.188471,9.715243 10.094618,9.715243 9.895594,9.715405 9.895594,9.683696 9.895321,9.616147 9.947595,9.616136 10.188588,9.616136" style="fill: white" /><polygon type="contour" points="10.188471,9.416462 10.188413,9.447011 10.188588,9.516143 10.133693,9.516126 9.895321,9.516126 9.895321,9.497511 9.895594,9.416299 9.989158,9.416299" style="fill: white" /><polygon type="contour" points="10.189269,9.032766 10.189054,9.235467 10.097239,9.235467 9.896149,9.235553 9.896149,9.134951 9.896071,9.03637 9.896071,8.942807 9.985825,8.942857 10.189228,8.942474" style="fill: white" /><polygon type="contour" points="10.189255,7.901966 10.189255,7.955414 10.189263,8.140351 10.189263,8.17688 9.986889,8.177068 9.895966,8.177115 9.895966,8.142717 9.896149,8.069379 9.896205,7.959516 9.896085,7.929556 9.896322,7.927348 9.89681,7.900783 10.113109,7.900743" style="fill: white" /><polygon type="contour" points="10.501028,8.071045 10.518187,8.07104 10.518102,8.090896 10.518102,8.178333 10.500622,8.178333 10.422905,8.177939 10.42296,8.145776 10.42296,8.070525" style="fill: white" /><polygon type="contour" points="10.726602,8.144417 10.726602,8.178034 10.693852,8.178034 10.620794,8.178333 10.620676,8.160137 10.620676,8.07104 10.695689,8.07086 10.726662,8.070755" style="fill: white" /><polygon type="contour" points="11.230155,8.098454 11.229661,8.176879 10.954822,8.176879 10.954822,8.06934 10.954762,8.016372 10.955188,7.973498 10.955133,7.936454 10.955504,7.933947 10.956454,7.900031 11.055709,7.900829 11.237197,7.894505" style="fill: white" /><polygon type="contour" points="11.060725,8.4915 11.06066,8.511027 11.040804,8.510908 10.953369,8.510908 10.953369,8.4915 10.953889,8.405039 11.060947,8.405039" style="fill: white" /><polygon type="contour" points="11.061196,8.681921 11.061177,8.708742 11.02842,8.708797 10.953763,8.708797 10.953763,8.67996 10.953369,8.613601 10.971563,8.613515 11.06066,8.613515" style="fill: white" /><polygon type="contour" points="10.726662,8.943133 10.726551,9.037317 10.72676,9.236109 10.693042,9.236109 10.62073,9.236318 10.620773,9.183647 10.620773,8.94305 10.640202,8.942991" style="fill: white" /><polygon type="contour" points="10.518135,8.94305 10.518241,8.998356 10.518241,9.236318 10.500147,9.236318 10.422917,9.236109 10.422974,9.033249 10.423018,8.942967 10.451138,8.942967" style="fill: white" /><polygon type="contour" points="10.518135,8.630674 10.518135,8.708768 10.501027,8.708768 10.42296,8.708742 10.42296,8.680431 10.422933,8.613568 10.438988,8.613515 10.518187,8.613515" style="fill: white" /><polygon type="contour" points="10.640201,8.613601 10.726492,8.613601 10.726492,8.63108 10.72686,8.708797 10.640201,8.708801 10.620773,8.708768 10.620676,8.692712 10.620676,8.613515" style="fill: white" /><polygon type="contour" points="10.726859,8.478524 10.726492,8.4915 10.726492,8.510908 10.708605,8.511027 10.620676,8.511027 10.620794,8.4915 10.620794,8.405207 10.640201,8.405207 10.726661,8.405039" style="fill: white" /><polygon type="contour" points="10.518102,8.405207 10.518187,8.423093 10.518187,8.511027 10.501028,8.51093 10.422932,8.51093 10.4229,8.491501 10.422905,8.404841 10.451741,8.404841" style="fill: white" /><polygon type="contour" points="10.188568,8.405039 10.188467,8.437637 10.188652,8.51093 9.948055,8.51093 9.895385,8.510973 9.895385,8.49103 9.895594,8.404942 9.987088,8.404828" style="fill: white" /><polygon type="contour" points="9.948056,8.613568 10.188652,8.613568 10.188353,8.680431 10.188353,8.708742 9.982763,8.708742 9.895593,8.708784 9.895593,8.679053 9.895385,8.613462" style="fill: white" /><polygon type="contour" points="8.07599,7.900829 8.175246,7.900031 8.176566,7.936454 8.176566,7.971373 8.176512,7.973497 8.176935,8.016373 8.176877,8.06934 8.176877,8.176879 7.987683,8.177068 7.902232,8.177068 7.900654,8.149957 7.894502,7.894505" style="fill: white" /><polygon type="contour" points="8.491498,8.070975 8.511025,8.07104 8.510906,8.090896 8.510906,8.178333 8.491499,8.178333 8.405037,8.177813 8.405037,8.070755" style="fill: white" /><polygon type="contour" points="8.70874,8.070525 8.708795,8.103279 8.708795,8.177939 8.679958,8.177939 8.613599,8.178333 8.613513,8.160138 8.613513,8.07104 8.681919,8.070505" style="fill: white" /><polygon type="contour" points="8.7088,8.491501 8.708767,8.51093 8.692711,8.511027 8.613513,8.511027 8.613599,8.491501 8.613599,8.405207 8.631079,8.405207 8.708795,8.404841" style="fill: white" /><polygon type="contour" points="8.630673,8.613568 8.708767,8.613568 8.708767,8.630674 8.708739,8.708742 8.68043,8.708742 8.613566,8.708768 8.613513,8.692712 8.613513,8.613515" style="fill: white" /><polygon type="contour" points="8.510928,8.630675 8.510928,8.708768 8.491499,8.708801 8.40484,8.708797 8.40484,8.679959 8.405204,8.613601 8.423091,8.613515 8.511025,8.613515" style="fill: white" /><polygon type="contour" points="8.491499,8.405207 8.510906,8.405207 8.511025,8.423093 8.511025,8.511027 8.491498,8.510908 8.405205,8.510908 8.405205,8.4915 8.405037,8.405039 8.478522,8.404841" style="fill: white" /><polygon type="contour" points="8.177811,8.438199 8.178331,8.510908 8.160135,8.511027 8.071039,8.511027 8.070858,8.436011 8.070753,8.405039 8.177811,8.405039" style="fill: white" /><polygon type="contour" points="8.090895,8.613601 8.178331,8.613601 8.178331,8.63108 8.177936,8.708797 8.145773,8.708742 8.070523,8.708742 8.071043,8.630674 8.071039,8.613515" style="fill: white" /><polygon type="contour" points="8.177114,9.03542 8.177007,9.235631 8.142394,9.235631 8.012533,9.235553 7.902078,9.235553 7.902283,9.032766 7.902266,9.031689 7.90235,8.942474 7.951769,8.942474 8.144156,8.942479 8.177067,8.942385" style="fill: white" /><polygon type="contour" points="8.510971,8.998357 8.510971,9.236318 8.491028,9.236318 8.405149,9.236003 8.405037,9.143937 8.405037,8.943133 8.437636,8.943233 8.510928,8.94305" style="fill: white" /><polygon type="contour" points="8.708725,9.033249 8.708782,9.236109 8.679052,9.236109 8.61346,9.236318 8.613566,9.183646 8.613566,8.94305 8.630672,8.94305 8.708682,8.942967" style="fill: white" /><polygon type="contour" points="9.235465,8.942648 9.235465,9.034462 9.235551,9.235553 9.136136,9.235553 9.034461,9.235467 8.942646,9.235467 8.942692,9.147419 8.942472,8.942474 9.032763,8.942432" style="fill: white" /><polygon type="contour" points="9.236316,8.631555 9.236107,8.708784 9.148935,8.708742 8.943347,8.708742 8.943347,8.680431 8.943048,8.613568 9.183644,8.613568 9.236316,8.613462" style="fill: white" /><polygon type="contour" points="9.037314,8.405151 9.236001,8.405151 9.236001,8.439078 9.236316,8.510973 9.183645,8.51093 8.943048,8.51093 8.943231,8.437638 8.94313,8.405039" style="fill: white" /><polygon type="contour" points="9.234889,7.900783 9.235614,7.929557 9.235614,7.957012 9.235494,7.959517 9.23555,8.069378 9.235734,8.142717 9.235734,8.177115 9.144809,8.177068 8.942383,8.177068 8.942389,8.084516 8.942445,7.955413 8.942445,7.901966 9.01859,7.900743" style="fill: white" /><polygon type="contour" points="9.496941,8.071055 9.515523,8.07111 9.515496,8.090815 9.515496,8.177827 9.496941,8.17785 9.41646,8.177906 9.41646,8.070833" style="fill: white" /><polygon type="contour" points="9.715241,8.177906 9.684252,8.177868 9.615632,8.177827 9.615595,8.159761 9.615595,8.07111 9.63419,8.071056 9.715241,8.070834" style="fill: white" /><polygon type="contour" points="9.634191,8.405149 9.715554,8.405151 9.715554,8.439077 9.715351,8.510973 9.698669,8.511027 9.615595,8.511483 9.615633,8.492095 9.615633,8.405084" style="fill: white" /><polygon type="contour" points="9.515496,8.405084 9.515523,8.42283 9.515523,8.511483 9.496942,8.511419 9.41635,8.510973 9.41635,8.49103 9.41646,8.405047 9.447447,8.404934" style="fill: white" /><polygon type="contour" points="9.515566,8.630224 9.515566,8.709021 9.496942,8.709043 9.416262,8.708784 9.416262,8.679053 9.41635,8.613462 9.43303,8.613515 9.515523,8.613189" style="fill: white" /><polygon type="contour" points="9.715351,8.613462 9.715351,8.631554 9.715439,8.708784 9.685861,8.708742 9.61556,8.709021 9.615595,8.693092 9.615595,8.613189 9.63419,8.613144" style="fill: white" /><polygon type="contour" points="9.715241,8.94323 9.715241,9.037082 9.715403,9.236109 9.634191,9.236382 9.615577,9.236382 9.61556,9.184108 9.61556,8.943114 9.634191,8.943082" style="fill: white" /><polygon type="contour" points="9.515556,8.998007 9.515556,9.236382 9.496941,9.236382 9.41646,9.236056 9.41646,8.94323 9.447011,8.943288 9.515566,8.943114" style="fill: white" /><polygon type="contour" points="9.235551,9.896151 9.235551,9.996753 9.235629,10.095333 9.235629,10.188897 9.145873,10.188847 8.942472,10.18923 8.942431,10.098938 8.942806,9.896072 9.036369,9.896072" style="fill: white" /><polygon type="contour" points="8.998007,9.616147 9.23638,9.616147 9.23638,9.634761 9.236054,9.715243 8.943227,9.715243 8.943285,9.684691 8.943113,9.616136" style="fill: white" /><polygon type="contour" points="9.23638,9.497511 9.23638,9.516126 9.184106,9.516143 8.943113,9.516143 8.943081,9.497511 8.943227,9.416462 9.236054,9.416462" style="fill: white" /><polygon type="contour" points="9.432703,9.616179 9.515523,9.616179 9.515556,9.63476 9.515556,9.715546 9.496942,9.715546 9.41646,9.715243 9.41646,9.683435 9.416155,9.616147" style="fill: white" /><polygon type="contour" points="9.515523,9.432705 9.515523,9.516108 9.496941,9.516126 9.416155,9.516126 9.416155,9.497512 9.41646,9.416462 9.496941,9.416157 9.515556,9.416157" style="fill: white" /><polygon type="contour" points="9.715241,9.416462 9.715241,9.448268 9.715544,9.516126 9.698995,9.516108 9.615595,9.516108 9.615577,9.497511 9.615577,9.416157 9.63419,9.416157" style="fill: white" /><polygon type="contour" points="9.715544,9.63476 9.715241,9.715243 9.683434,9.715243 9.615577,9.715546 9.615595,9.698997 9.615595,9.616179 9.634191,9.616147 9.715544,9.616147" style="fill: white" /><polygon type="contour" points="9.715241,9.895649 9.715241,10.188472 9.684689,10.188414 9.61556,10.18859 9.615577,10.133695 9.615577,9.895323 9.63419,9.895323" style="fill: white" /><polygon type="contour" points="9.515566,9.947597 9.515566,10.18859 9.496941,10.188622 9.41646,10.188472 9.41646,9.895649 9.496941,9.895323 9.515556,9.895323" style="fill: white" /><polygon type="contour" points="9.235734,10.988987 9.235551,11.062088 9.235493,11.171947 9.235614,11.202146 9.235377,11.204355 9.234889,11.230921 9.01859,11.23096 8.942445,11.229738 8.942445,11.176289 8.942437,10.99135 8.942437,10.954823 9.144809,10.954635 9.235734,10.954368" style="fill: white" /><polygon type="contour" points="9.496941,10.953724 9.515496,10.953877 9.515523,10.971942 9.515523,11.060594 9.496941,11.060648 9.41646,11.06087 9.41646,10.953574" style="fill: white" /><polygon type="contour" points="9.715252,10.988032 9.715241,11.060869 9.63419,11.060647 9.615595,11.060594 9.615633,11.040887 9.615633,10.953877 9.634191,10.953723 9.715252,10.953411" style="fill: white" /><polygon type="contour" points="9.986738,10.954611 10.189292,10.954611 10.18931,11.047186 10.189255,11.17629 10.189255,11.229738 10.113109,11.23096 9.896811,11.230921 9.896085,11.202146 9.896085,11.174462 9.896205,11.171947 9.896148,11.062087 9.895966,10.988987 9.895966,10.954368" style="fill: white" /><polygon type="contour" points="9.948055,10.620775 10.188652,10.620775 10.188467,10.694065 10.188543,10.726493 10.094383,10.726553 9.8957,10.726553 9.8957,10.692626 9.895385,10.620732" style="fill: white" /><polygon type="contour" points="9.982763,10.422962 10.188353,10.422962 10.188353,10.451271 10.188652,10.518137 9.948056,10.518137 9.895385,10.518243 9.895385,10.500149 9.895593,10.42292" style="fill: white" /><polygon type="contour" points="9.715439,10.42292 9.715439,10.45265 9.715351,10.518243 9.698669,10.518189 9.615595,10.519682 9.61556,10.50263 9.61556,10.422683 9.634191,10.42266" style="fill: white" /><polygon type="contour" points="9.715351,10.640674 9.715554,10.726553 9.684473,10.726664 9.615633,10.72662 9.615595,10.708873 9.615595,10.621388 9.63419,10.621424 9.715351,10.620732" style="fill: white" /><polygon type="contour" points="9.515523,10.621388 9.515496,10.640753 9.515496,10.72662 9.496941,10.726554 9.416147,10.726553 9.416147,10.692625 9.41635,10.620732 9.433031,10.620678" style="fill: white" /><polygon type="contour" points="9.515523,10.438612 9.515523,10.519682 9.496941,10.519699 9.41635,10.518243 9.41635,10.500149 9.416262,10.42292 9.445839,10.422962 9.515566,10.422683" style="fill: white" /><polygon type="contour" points="9.236107,10.45265 9.236316,10.518243 9.183644,10.518137 8.943048,10.518137 8.943347,10.451271 8.943347,10.422962 9.148935,10.422962 9.236107,10.42292" style="fill: white" /><polygon type="contour" points="9.236316,10.640674 9.236107,10.726762 9.144613,10.726875 8.94313,10.726664 8.943231,10.694065 8.943048,10.620775 9.183645,10.620775 9.236316,10.620732" style="fill: white" /><polygon type="contour" points="8.090896,10.620796 8.178331,10.620796 8.178331,10.640203 8.177811,10.726664 8.070753,10.726664 8.070974,10.640203 8.071039,10.620678" style="fill: white" /><polygon type="contour" points="8.177936,10.451744 8.178331,10.518104 8.160136,10.518189 8.071039,10.518189 8.070504,10.44978 8.070523,10.422962 8.103277,10.422907 8.177936,10.422907" style="fill: white" /><polygon type="contour" points="8.177114,10.096283 8.177067,10.189319 8.144156,10.189225 7.951769,10.18923 7.90235,10.18923 7.902283,10.098939 7.902158,9.896072 8.177007,9.896072" style="fill: white" /><polygon type="contour" points="8.090815,9.616207 8.177825,9.616207 8.177847,9.63476 8.177905,9.715243 8.070831,9.715243 8.071054,9.63476 8.071109,9.616179" style="fill: white" /><polygon type="contour" points="8.177848,9.497511 8.177825,9.516069 8.159758,9.516108 8.071109,9.516108 8.071054,9.497512 8.070832,9.416462 8.143669,9.416451 8.178068,9.416451" style="fill: white" /><polygon type="contour" points="8.510279,9.63476 8.510971,9.715353 8.491027,9.715353 8.405148,9.715556 8.405037,9.684475 8.405081,9.616207 8.422827,9.616179 8.510315,9.616179" style="fill: white" /><polygon type="contour" points="8.477882,9.416263 8.491028,9.416352 8.510971,9.416352 8.511025,9.433033 8.510315,9.516108 8.490948,9.516069 8.405081,9.516069 8.405146,9.497512 8.405149,9.416148" style="fill: white" /><polygon type="contour" points="8.708739,9.44584 8.709018,9.516143 8.693089,9.516108 8.612021,9.516108 8.612004,9.497511 8.61346,9.416352 8.631553,9.416352 8.708781,9.416263" style="fill: white" /><polygon type="contour" points="8.70904,9.634761 8.708782,9.715441 8.679051,9.715441 8.61346,9.715353 8.613513,9.698672 8.612021,9.616179 8.629071,9.616136 8.709018,9.616136" style="fill: white" /><polygon type="contour" points="8.708782,9.895594 8.708725,10.098454 8.708682,10.188737 8.680561,10.188737 8.613566,10.188653 8.61346,10.133347 8.61346,9.895387 8.631553,9.895387" style="fill: white" /><polygon type="contour" points="8.510928,9.948057 8.510928,10.188654 8.491498,10.188712 8.405037,10.188569 8.405149,10.094384 8.405149,9.895702 8.439074,9.895702 8.510971,9.895387" style="fill: white" /><polygon type="contour" points="8.70874,10.422962 8.70874,10.451272 8.708767,10.518137 8.692711,10.518189 8.613513,10.518189 8.613566,10.501029 8.613566,10.422936 8.630673,10.422936" style="fill: white" /><polygon type="contour" points="8.510928,10.422936 8.511025,10.438991 8.511025,10.518189 8.491499,10.518104 8.405205,10.518104 8.405205,10.500624 8.40484,10.422907 8.491499,10.422903" style="fill: white" /><polygon type="contour" points="8.510906,10.640204 8.510906,10.726494 8.491499,10.726494 8.405037,10.726664 8.40484,10.653179 8.405205,10.640203 8.405205,10.620796 8.423091,10.620678 8.511025,10.620678" style="fill: white" /><polygon type="contour" points="8.630673,10.620775 8.708767,10.620775 8.7088,10.640203 8.708795,10.726862 8.679958,10.726862 8.613599,10.726494 8.613513,10.708609 8.613513,10.620678" style="fill: white" /><polygon type="contour" points="8.708795,10.953765 8.70874,10.985927 8.70874,11.061179 8.630672,11.060658 8.613513,11.060662 8.613599,11.040806 8.613599,10.953371 8.631079,10.953371" style="fill: white" /><polygon type="contour" points="8.511025,10.971567 8.511025,11.060663 8.436009,11.060844 8.405037,11.060949 8.405098,10.987287 8.405098,10.95367 8.437847,10.95367 8.510905,10.953371" style="fill: white" /><polygon type="contour" points="8.176877,11.062363 8.176935,11.11533 8.176512,11.158206 8.176566,11.195249 8.176196,11.197757 8.175246,11.231673 8.07599,11.230875 7.894502,11.2372 7.901545,11.033248 7.90204,10.954824 8.176877,10.954824" style="fill: white" />
</svg>
