<svg width="19.131698" height="19.131699">
<polygon type="contour" points="8.542852,10.019611 8.541379,10.06834 8.483677,10.06834 8.43427,10.068308 8.434183,10.01961 8.43392,9.963153 8.542991,9.963153" style="fill: white" /><polygon type="contour" points="8.795455,10.01961 8.79544,10.068308 8.739755,10.068308 8.698537,10.06834 8.698479,10.019611 8.698692,9.963439 8.75073,9.963225 8.795455,9.963225" style="fill: white" /><polygon type="contour" points="8.79544,10.336262 8.79544,10.391947 8.795518,10.433165 8.750389,10.432612 8.698764,10.432612 8.698538,10.380397 8.698538,10.336184 8.751303,10.336184" style="fill: white" /><polygon type="contour" points="8.541349,10.380986 8.541349,10.432612 8.434201,10.432612 8.434338,10.380398 8.43427,10.336262 8.495163,10.336262 8.541379,10.336184" style="fill: white" /><polygon type="contour" points="8.540307,10.684522 8.540307,10.755643 8.540058,10.813146 8.539741,10.818918 8.538383,10.867979 8.360725,10.865676 8.263269,10.868433 8.265188,10.797909 8.266825,10.715867 8.267336,10.683332 8.267034,10.590758 8.540945,10.590758" style="fill: white" /><polygon type="contour" points="8.795518,10.648024 8.79544,10.697433 8.751303,10.697365 8.698764,10.697501 8.698764,10.590354 8.751304,10.590324 8.795518,10.590324" style="fill: white" /><polygon type="contour" points="9.168549,10.697782 9.112091,10.697518 9.063393,10.697433 9.063393,10.636538 9.063362,10.590324 9.11169,10.590448 9.168549,10.588709" style="fill: white" /><polygon type="contour" points="9.168263,10.380551 9.168263,10.432685 9.112091,10.433222 9.063362,10.433165 9.063362,10.380397 9.063393,10.336262 9.123485,10.336262 9.168477,10.336246" style="fill: white" /><polygon type="contour" points="9.168477,10.01961 9.168477,10.068224 9.112091,10.068224 9.063393,10.068308 9.063393,10.008218 9.063477,9.963225 9.111272,9.963153 9.168549,9.963153" style="fill: white" /><polygon type="contour" points="9.168549,9.80821 9.11209,9.807973 9.063477,9.807973 9.063477,9.323731 9.111272,9.323494 9.168549,9.323494" style="fill: white" /><polygon type="contour" points="8.360724,8.266027 8.538383,8.263726 8.540058,8.318557 8.540058,8.371196 8.540307,8.37606 8.540945,8.483549 8.540945,8.540947 8.266871,8.540947 8.263887,8.51159 8.263269,8.263271" style="fill: white" /><polygon type="contour" points="8.751303,8.434338 8.79544,8.43427 8.79544,8.495165 8.795518,8.541381 8.750131,8.541274 8.698698,8.541274 8.698698,8.483875 8.698764,8.434203" style="fill: white" /><polygon type="contour" points="8.541379,8.751305 8.541379,8.79552 8.483678,8.79552 8.43427,8.795442 8.434337,8.751305 8.434201,8.698765 8.483873,8.698699 8.541272,8.698699" style="fill: white" /><polygon type="contour" points="8.795518,8.751305 8.79544,8.795442 8.739755,8.795442 8.698538,8.79552 8.698764,8.750389 8.698764,8.698765 8.751304,8.69854 8.795518,8.69854" style="fill: white" /><polygon type="contour" points="8.750729,9.323731 8.795455,9.323731 8.795455,9.807973 8.750827,9.808134 8.698692,9.808134 8.698692,9.323569" style="fill: white" /><polygon type="contour" points="8.484748,9.32305 8.542546,9.32305 8.542546,9.808654 8.484748,9.808654 8.377358,9.808764 8.266651,9.808764 8.265946,9.713886 8.265141,9.681359 8.264436,9.643423 8.263227,9.619416 8.262609,9.565501 8.263227,9.511808 8.264436,9.487867 8.265142,9.450024 8.265945,9.417583 8.266651,9.32294 8.377358,9.32294" style="fill: white" /><polygon type="contour" points="8.541254,9.111693 8.542991,9.168551 8.43392,9.168551 8.434183,9.112093 8.43427,9.063396 8.495163,9.063396 8.541379,9.063365" style="fill: white" /><polygon type="contour" points="8.79544,9.063396 8.79544,9.123486 8.795455,9.168479 8.75073,9.168479 8.698692,9.168265 8.698479,9.112092 8.698538,9.063365 8.751304,9.063365" style="fill: white" /><polygon type="contour" points="9.168477,9.063479 9.168477,9.112092 9.168263,9.119933 9.168549,9.168551 9.112091,9.168479 9.063477,9.168479 9.063477,9.112092 9.063393,9.063396 9.123485,9.063396" style="fill: white" /><polygon type="contour" points="9.168477,8.749114 9.168477,8.795458 9.112091,8.795458 9.063393,8.795442 9.063393,8.739757 9.063362,8.69854 9.112091,8.696862 9.168263,8.696807" style="fill: white" /><polygon type="contour" points="9.168549,8.541086 9.112091,8.541234 9.063362,8.541381 9.063362,8.483679 9.063393,8.43427 9.112091,8.434185 9.168549,8.433922" style="fill: white" /><polygon type="contour" points="9.566198,8.262624 9.643834,8.264439 9.681674,8.265143 9.714118,8.265948 9.783515,8.266801 9.808788,8.266989 9.808818,8.306262 9.808862,8.540782 9.46856,8.540509 9.323091,8.540509 9.323091,8.50534 9.322982,8.345437 9.322912,8.266989 9.348246,8.266801 9.417815,8.265948 9.450339,8.265144 9.488277,8.264439 9.529923,8.262541" style="fill: white" /><polygon type="contour" points="10.866511,8.333794 10.864874,8.415836 10.864362,8.448373 10.864663,8.540947 10.590756,8.540947 10.591393,8.447181 10.591393,8.376061 10.591643,8.318556 10.591958,8.312786 10.593317,8.263726 10.770975,8.266027 10.868431,8.263271" style="fill: white" /><polygon type="contour" points="10.865753,9.417817 10.866557,9.450342 10.867264,9.48828 10.868474,9.512287 10.869091,9.566202 10.868474,9.619895 10.867264,9.643836 10.866557,9.681678 10.865754,9.71412 10.865049,9.808764 10.754341,9.808764 10.646951,9.808654 10.590971,9.808654 10.589152,9.577096 10.589152,9.32305 10.646951,9.32305 10.754341,9.32294 10.865049,9.32294" style="fill: white" /><polygon type="contour" points="10.019609,9.323731 10.068223,9.323731 10.068223,9.807973 10.020427,9.80821 9.963151,9.80821 9.963151,9.323494" style="fill: white" /><polygon type="contour" points="10.068307,9.123487 10.068223,9.168479 10.020427,9.168551 9.963151,9.168551 9.963223,9.112093 9.963223,9.063479 10.019609,9.063479 10.068307,9.063396" style="fill: white" /><polygon type="contour" points="9.808209,9.111273 9.808209,9.168551 9.393456,9.1683 9.323286,9.1683 9.323374,9.149935 9.323729,9.063479 9.807971,9.063479" style="fill: white" /><polygon type="contour" points="9.808372,8.715551 9.807971,8.795458 9.323729,8.795458 9.323567,8.75083 9.323259,8.698363 9.808441,8.698363" style="fill: white" /><polygon type="contour" points="10.019609,8.696862 10.068339,8.69854 10.068339,8.751305 10.068307,8.795442 10.008215,8.795442 9.963223,8.795458 9.963437,8.75083 9.963437,8.696807" style="fill: white" /><polygon type="contour" points="10.019608,8.434185 10.068307,8.434271 10.068307,8.495164 10.068339,8.541381 10.020009,8.541257 9.963151,8.541086 9.963151,8.433922" style="fill: white" /><polygon type="contour" points="10.433003,8.483875 10.433003,8.541274 10.380396,8.541381 10.336182,8.541381 10.336182,8.483679 10.33626,8.434271 10.380396,8.434338 10.43261,8.434203" style="fill: white" /><polygon type="contour" points="10.380984,8.698765 10.43261,8.698765 10.433163,8.751305 10.433163,8.79552 10.380397,8.79552 10.33626,8.795442 10.33626,8.739757 10.336182,8.69854" style="fill: white" /><polygon type="contour" points="10.697499,8.698765 10.697362,8.751305 10.69743,8.795442 10.636537,8.795442 10.590322,8.79552 10.590429,8.750133 10.590429,8.698699 10.647826,8.698699" style="fill: white" /><polygon type="contour" points="10.69743,9.063396 10.697516,9.112093 10.697781,9.168551 10.588706,9.168551 10.588846,9.112093 10.590322,9.063365 10.648022,9.063365" style="fill: white" /><polygon type="contour" points="10.43322,9.112093 10.432683,9.168265 10.380968,9.168479 10.336245,9.168479 10.336245,9.112092 10.33626,9.063396 10.391944,9.063396 10.433163,9.063365" style="fill: white" /><polygon type="contour" points="10.434841,9.554943 10.434841,9.808318 10.382589,9.807973 10.336245,9.807973 10.336245,9.323731 10.382858,9.323386 10.433022,9.323386" style="fill: white" /><polygon type="contour" points="10.867811,10.620114 10.868431,10.868433 10.770974,10.865676 10.593317,10.867979 10.591643,10.813146 10.591643,10.760507 10.591393,10.755642 10.590756,10.648155 10.590756,10.590758 10.864827,10.590758" style="fill: white" /><polygon type="contour" points="10.380984,10.590354 10.43261,10.590354 10.43261,10.697501 10.380396,10.697365 10.33626,10.697433 10.33626,10.636539 10.336182,10.590324" style="fill: white" /><polygon type="contour" points="10.43261,10.380987 10.43261,10.432612 10.380396,10.433165 10.336182,10.433165 10.336182,10.380398 10.33626,10.336262 10.391945,10.336262 10.433163,10.336184" style="fill: white" /><polygon type="contour" points="10.69743,10.336262 10.697362,10.380398 10.697499,10.432612 10.590352,10.432612 10.590322,10.380398 10.590322,10.336184 10.648022,10.336184" style="fill: white" /><polygon type="contour" points="10.697516,10.01961 10.69743,10.068308 10.636537,10.068308 10.590321,10.06834 10.590445,10.020011 10.590617,9.963153 10.697781,9.963153" style="fill: white" /><polygon type="contour" points="10.434573,9.963439 10.434841,10.01961 10.433163,10.06834 10.380397,10.06834 10.33626,10.068307 10.33626,10.008218 10.336245,9.963225 10.382589,9.963225" style="fill: white" /><polygon type="contour" points="10.019608,9.963225 10.068223,9.963225 10.068223,10.019611 10.068307,10.068308 10.008216,10.068308 9.963223,10.068224 9.963223,10.019611 9.963437,10.011447 9.963151,9.963153" style="fill: white" /><polygon type="contour" points="9.808637,9.808639 9.323063,9.808639 9.323063,9.323065 9.808637,9.323065" style="fill: white" /><polygon type="contour" points="9.738243,9.963404 9.808413,9.963404 9.808325,9.981769 9.807971,10.068224 9.323729,10.068224 9.323492,10.020428 9.323492,9.963152" style="fill: white" /><polygon type="contour" points="9.808132,10.38055 9.808132,10.432685 9.395707,10.433245 9.323259,10.433245 9.323327,10.416152 9.323729,10.336246 9.807971,10.336246" style="fill: white" /><polygon type="contour" points="10.068307,10.336262 10.068307,10.391947 10.068339,10.433165 10.019609,10.433222 9.963437,10.432685 9.963223,10.38097 9.963223,10.336246 10.019608,10.336246" style="fill: white" /><polygon type="contour" points="10.019608,10.588849 10.068339,10.590324 10.068339,10.648025 10.068307,10.697433 10.019608,10.697518 9.963151,10.697782 9.963151,10.588709" style="fill: white" /><polygon type="contour" points="9.808759,10.596824 9.808788,10.615533 9.808788,10.864713 9.783452,10.864901 9.713884,10.865755 9.681357,10.866559 9.643421,10.867266 9.601777,10.869164 9.565501,10.869081 9.487865,10.867265 9.450023,10.866559 9.417581,10.865756 9.348185,10.864901 9.322912,10.864713 9.322912,10.615534 9.322949,10.591045 9.808751,10.591045" style="fill: white" />
</svg>
