<svg width="19.131698" height="19.131699">
<polygon type="contour" points="6.359314,10.984211 6.359454,11.041794 6.359454,11.274711 6.258078,11.274777 6.170604,11.274972 6.067388,11.274972 6.068048,11.155648 6.066156,10.986474 6.258435,10.983737" style="fill: white" /><polygon type="contour" points="6.672763,10.983826 6.741828,10.983675 6.741985,11.189652 6.741985,11.274914 6.538461,11.274697 6.474205,11.274742 6.474205,10.983445" style="fill: white" /><polygon type="contour" points="6.538462,11.422511 6.741985,11.423108 6.741828,11.564074 6.741828,11.630425 6.538461,11.629712 6.474189,11.629712 6.474189,11.472312 6.474346,11.422494" style="fill: white" /><polygon type="contour" points="6.359901,11.588432 6.359947,11.629711 6.279399,11.630425 6.242415,11.630425 6.242202,11.574473 6.242436,11.423127 6.3369,11.422494 6.359901,11.422494" style="fill: white" /><polygon type="contour" points="6.288676,12.772316 6.359384,12.772316 6.359384,12.948244 6.359314,13.006986 6.359314,13.064431 6.256347,13.067584 6.205757,13.069472 6.059003,13.072699 6.066695,12.843025 6.065942,12.773714 6.135647,12.77248 6.172768,12.771951" style="fill: white" /><polygon type="contour" points="6.332185,12.390644 6.359947,12.390644 6.359947,12.593238 6.359912,12.657462 6.265649,12.657462 6.242679,12.657496 6.242139,12.458937 6.242415,12.389874" style="fill: white" /><polygon type="contour" points="6.741059,12.593239 6.741059,12.657511 6.538461,12.657511 6.474205,12.657496 6.474205,12.441386 6.474189,12.390644 6.6562,12.389874 6.741828,12.389874" style="fill: white" /><polygon type="contour" points="6.741828,12.852301 6.741828,12.889287 6.672762,12.889563 6.474205,12.889022 6.474238,12.86605 6.474238,12.771789 6.688012,12.771789 6.741058,12.771754" style="fill: white" /><polygon type="contour" points="7.914574,12.772386 8.147492,12.772386 8.147965,12.873265 8.145246,13.065603 7.976054,13.063653 7.85673,13.064311 7.85673,12.961097 7.856755,12.861869 7.856991,12.772247" style="fill: white" /><polygon type="contour" points="7.709206,12.7718 7.708574,12.861198 7.708574,12.889264 7.557228,12.889499 7.501277,12.889286 7.50199,12.799516 7.50199,12.771754 7.659386,12.771754" style="fill: white" /><polygon type="contour" points="7.70919,12.593238 7.709206,12.657355 7.659387,12.657511 7.50199,12.657511 7.501277,12.4755 7.501277,12.389874 7.648504,12.389717 7.708594,12.389717" style="fill: white" /><polygon type="contour" points="8.053882,12.389874 8.148027,12.389874 8.147875,12.458938 8.148258,12.657496 7.85696,12.657496 7.856715,12.45172 7.856787,12.389717" style="fill: white" /><polygon type="contour" points="8.147948,11.574473 8.148027,11.630425 7.942048,11.630309 7.856787,11.630309 7.856787,11.483197 7.856729,11.423127 8.148249,11.423127" style="fill: white" /><polygon type="contour" points="7.708574,11.423127 7.708574,11.579979 7.708594,11.630309 7.567626,11.630425 7.501277,11.630425 7.501393,11.483198 7.501393,11.423108 7.648504,11.423108" style="fill: white" /><polygon type="contour" points="7.708574,11.274973 7.551721,11.274973 7.501393,11.274914 7.501277,11.077819 7.501277,10.983675 7.557227,10.983753 7.708574,10.983453" style="fill: white" /><polygon type="contour" points="7.974513,10.993877 8.13909,10.992611 8.147671,11.229555 8.14738,11.27491 7.856792,11.27491 7.856715,11.229934 7.856715,10.98438" style="fill: white" /><polygon type="contour" points="7.708574,8.14825 7.557227,8.14795 7.501277,8.148029 7.501393,7.94205 7.501393,7.856789 7.648503,7.856789 7.708574,7.856731" style="fill: white" /><polygon type="contour" points="8.137823,7.974514 8.13909,8.139092 8.009067,8.13704 7.945818,8.145501 7.902146,8.147672 7.856715,8.147322 7.856715,7.901769 7.856792,7.856794 7.901767,7.856717 8.147322,7.856717" style="fill: white" /><polygon type="contour" points="8.147948,7.557228 8.148249,7.708577 7.856729,7.708577 7.856729,7.551724 7.856787,7.501395 8.053882,7.501279 8.148027,7.501279" style="fill: white" /><polygon type="contour" points="7.648503,7.501395 7.708594,7.501395 7.708594,7.648505 7.708574,7.708577 7.551721,7.708577 7.501393,7.708596 7.501277,7.567628 7.501277,7.501279" style="fill: white" /><polygon type="contour" points="6.741828,7.501279 6.741985,7.648505 6.741985,7.708596 6.538462,7.709192 6.474346,7.709208 6.474346,7.54327 6.474189,7.501992 6.656199,7.501278" style="fill: white" /><polygon type="contour" points="6.741985,7.856789 6.741828,8.053884 6.741828,8.148029 6.672762,8.147878 6.474205,8.14826 6.474205,7.856961 6.679981,7.856717" style="fill: white" /><polygon type="contour" points="6.269831,7.856757 6.359454,7.856993 6.359314,7.914576 6.359314,8.147494 6.258435,8.147967 6.066099,8.145248 6.067221,8.039817 6.068048,7.976055 6.067388,7.856732 6.170603,7.856732" style="fill: white" /><polygon type="contour" points="6.332185,7.501992 6.359947,7.501992 6.359947,7.659388 6.359901,7.709208 6.270502,7.708577 6.242436,7.708577 6.242202,7.55723 6.242415,7.501279" style="fill: white" /><polygon type="contour" points="6.175677,6.060754 6.256346,6.064119 6.359363,6.067183 6.359384,6.183459 6.359384,6.359387 6.243366,6.359752 6.172768,6.359752 6.135647,6.359223 6.065942,6.35799 6.066695,6.288678 6.059003,6.059004 6.093513,6.055234" style="fill: white" /><polygon type="contour" points="6.26565,6.474241 6.359912,6.474241 6.359912,6.688013 6.359947,6.74106 6.279399,6.74183 6.242415,6.74183 6.242139,6.672764 6.242679,6.474208" style="fill: white" /><polygon type="contour" points="6.741828,6.656201 6.741828,6.74183 6.538462,6.74106 6.474189,6.74106 6.474189,6.538463 6.474205,6.474208 6.690315,6.474208 6.741059,6.474192" style="fill: white" /><polygon type="contour" points="6.741828,6.242417 6.741059,6.332188 6.741059,6.359949 6.538461,6.359949 6.474238,6.359914 6.474238,6.265652 6.474205,6.242681 6.538462,6.242855 6.646436,6.242331" style="fill: white" /><polygon type="contour" points="7.708574,6.242438 7.709206,6.336902 7.709933,6.359914 7.543851,6.359915 7.50199,6.359949 7.501277,6.279401 7.501277,6.242417 7.557228,6.242204" style="fill: white" /><polygon type="contour" points="7.709206,6.474348 7.70919,6.538463 7.708594,6.741987 7.567627,6.74183 7.501277,6.74183 7.50199,6.538463 7.50199,6.474192 7.659387,6.474192" style="fill: white" /><polygon type="contour" points="8.147876,6.672764 8.148027,6.74183 7.942049,6.741987 7.856787,6.741987 7.857005,6.538464 7.85696,6.474208 8.148258,6.474208" style="fill: white" /><polygon type="contour" points="8.147965,6.258438 8.147492,6.359317 8.089908,6.359456 7.856991,6.359456 7.857048,6.3477 7.857048,6.33019 7.856792,6.219547 7.85673,6.170605 7.85673,6.06739 7.976053,6.06805 8.145227,6.066158" style="fill: white" /><polygon type="contour" points="13.065005,6.288678 13.065759,6.35799 12.996053,6.359223 12.958933,6.359751 12.843021,6.359387 12.772314,6.359387 12.772314,6.288679 12.772315,6.183459 12.772387,6.124716 12.772387,6.067273 12.875355,6.064119 12.925941,6.062232 13.072698,6.059004" style="fill: white" /><polygon type="contour" points="12.889561,6.672764 12.889284,6.74183 12.799514,6.74106 12.771753,6.74106 12.771753,6.538463 12.771788,6.474241 12.866049,6.474241 12.889021,6.474208" style="fill: white" /><polygon type="contour" points="12.657495,6.474208 12.657495,6.690317 12.65751,6.74106 12.4755,6.74183 12.389872,6.74183 12.390642,6.538464 12.390642,6.474192 12.593238,6.474192" style="fill: white" /><polygon type="contour" points="12.657495,6.242681 12.657461,6.265651 12.657461,6.359915 12.443688,6.359914 12.390642,6.359949 12.389872,6.279401 12.389872,6.242417 12.458937,6.242141" style="fill: white" /><polygon type="contour" points="11.091884,6.067223 11.155646,6.06805 11.27497,6.06739 11.27497,6.170605 11.274944,6.269833 11.274709,6.359456 11.217125,6.359317 10.984209,6.359317 10.983735,6.258437 10.986454,6.066101" style="fill: white" /><polygon type="contour" points="11.630423,6.242417 11.62971,6.332187 11.62971,6.359949 11.472312,6.359949 11.421765,6.359914 11.422239,6.270425 11.423126,6.242438 11.574473,6.242204" style="fill: white" /><polygon type="contour" points="11.630423,6.656202 11.630423,6.74183 11.483195,6.741987 11.423106,6.741987 11.422509,6.538464 11.422492,6.474348 11.472311,6.474192 11.62971,6.474192" style="fill: white" /><polygon type="contour" points="11.274985,6.679984 11.274912,6.741987 11.077818,6.74183 10.983674,6.74183 10.983825,6.672764 10.983443,6.474208 11.27474,6.474208" style="fill: white" /><polygon type="contour" points="11.189651,7.501395 11.274912,7.501395 11.274912,7.648506 11.274971,7.708577 11.055063,7.708577 10.983452,7.708575 10.983752,7.557228 10.983674,7.501279" style="fill: white" /><polygon type="contour" points="11.274908,7.856794 11.274908,8.147381 11.229553,8.147672 11.185881,8.145501 10.992609,8.139092 10.994662,8.009071 10.986201,7.945819 10.98403,7.902148 10.984379,7.856717 11.229932,7.856717" style="fill: white" /><polygon type="contour" points="11.630307,7.648505 11.630307,7.708596 11.483195,7.708596 11.423126,7.708577 11.423126,7.551724 11.423106,7.501395 11.564073,7.501279 11.630423,7.501279" style="fill: white" /><polygon type="contour" points="11.630307,7.856789 11.630423,8.053884 11.630423,8.148029 11.574472,8.14795 11.423126,8.14825 11.423126,7.856731 11.579976,7.856731" style="fill: white" /><polygon type="contour" points="12.593237,7.857007 12.657495,7.856962 12.657495,8.14826 12.458937,8.147878 12.389871,8.148029 12.389715,7.942051 12.389715,7.856789" style="fill: white" /><polygon type="contour" points="12.593238,7.501992 12.65751,7.501992 12.657511,7.659389 12.657356,7.709208 12.593239,7.709192 12.389715,7.708596 12.389872,7.567629 12.389872,7.501279" style="fill: white" /><polygon type="contour" points="12.889498,7.557228 12.889264,7.708577 12.794801,7.709208 12.77179,7.709935 12.771788,7.543853 12.771753,7.501992 12.8523,7.501279 12.889285,7.501279" style="fill: white" /><polygon type="contour" points="13.063651,7.976056 13.064479,8.039817 13.065545,8.145229 12.873263,8.147967 12.772385,8.147494 12.772246,8.08991 12.772246,7.856993 12.873619,7.856927 12.961096,7.856732 13.064309,7.856732" style="fill: white" /><polygon type="contour" points="12.657354,11.588432 12.65751,11.629712 12.475499,11.630425 12.389872,11.630425 12.389715,11.483197 12.389715,11.423108 12.593237,11.422511 12.657354,11.422494" style="fill: white" /><polygon type="contour" points="12.861198,11.423127 12.889264,11.423127 12.889497,11.574473 12.889284,11.630425 12.799514,11.629712 12.771753,11.629712 12.771753,11.472313 12.771799,11.422494" style="fill: white" /><polygon type="contour" points="13.065602,10.986456 13.063651,11.155647 13.06431,11.274972 12.961096,11.274972 12.861868,11.274946 12.772246,11.274711 12.772385,11.217128 12.772387,10.984212 12.873266,10.983738" style="fill: white" /><polygon type="contour" points="12.657496,11.039346 12.657495,11.274742 12.451717,11.274987 12.389715,11.274914 12.389872,11.077819 12.389872,10.983675 12.458937,10.983826 12.657496,10.983446" style="fill: white" /><polygon type="contour" points="11.574473,10.983753 11.630423,10.983675 11.630307,11.189653 11.630307,11.274914 11.483195,11.274914 11.423126,11.274973 11.423126,10.983453" style="fill: white" /><polygon type="contour" points="11.274908,10.984323 11.274908,11.27491 10.984321,11.27491 10.98403,11.229554 10.9862,11.185885 10.992609,10.992611 11.122632,10.994664 11.185881,10.986204 11.229552,10.984032" style="fill: white" /><polygon type="contour" points="11.274971,11.579979 11.274912,11.630308 11.077818,11.630425 10.983674,11.630425 10.983752,11.574474 10.983452,11.423127 11.274971,11.423127" style="fill: white" /><polygon type="contour" points="11.630423,11.564075 11.630423,11.630425 11.483196,11.630309 11.423106,11.630309 11.423106,11.483197 11.423126,11.423127 11.579977,11.423127 11.630306,11.423108" style="fill: white" /><polygon type="contour" points="11.564072,12.389874 11.630423,12.389874 11.62971,12.593238 11.62971,12.657511 11.472311,12.657511 11.422492,12.657355 11.422509,12.593238 11.423106,12.389717" style="fill: white" /><polygon type="contour" points="11.274695,12.593239 11.27474,12.657496 10.983443,12.657496 10.983825,12.458938 10.983674,12.389874 11.18965,12.389717 11.274912,12.389717" style="fill: white" /><polygon type="contour" points="11.274651,12.784001 11.274651,12.801512 11.274907,12.912156 11.27497,12.961097 11.27497,13.064311 11.155645,13.063653 11.091884,13.064481 10.986473,13.065547 10.983735,12.873265 10.984209,12.772386 11.041792,12.772247 11.274709,12.772247" style="fill: white" /><polygon type="contour" points="11.630423,12.852301 11.630423,12.889287 11.574473,12.8895 11.423126,12.889265 11.422491,12.7948 11.421765,12.771789 11.587847,12.771789 11.62971,12.771754" style="fill: white" /><polygon type="contour" points="12.657461,12.771789 12.657461,12.866051 12.657495,12.889022 12.593237,12.888849 12.485264,12.889373 12.389872,12.889287 12.390642,12.799516 12.390642,12.771754 12.593237,12.771754" style="fill: white" /><polygon type="contour" points="12.593237,12.390644 12.65751,12.390644 12.65751,12.593238 12.657495,12.657496 12.441384,12.657496 12.390642,12.657511 12.389872,12.475501 12.389872,12.389874" style="fill: white" /><polygon type="contour" points="12.889561,12.458937 12.889021,12.657496 12.86605,12.657462 12.771788,12.657462 12.771788,12.443689 12.771753,12.390644 12.8523,12.389874 12.889285,12.389874" style="fill: white" /><polygon type="contour" points="12.996053,12.77248 13.065759,12.773714 13.065005,12.843026 13.072698,13.072699 13.038187,13.07647 12.956022,13.070949 12.875353,13.067584 12.772316,13.064501 12.772316,13.047364 12.772385,13.006986 12.772314,12.948244 12.772314,12.772316 12.888333,12.771952 12.958932,12.771952" style="fill: white" />
</svg>
