<svg width="19.131698" height="19.131699">
<polygon type="contour" points="6.70446,6.693429 6.70753,6.693541 6.716991,6.693776 6.987313,6.695391 6.987313,6.987314 6.949419,6.987479 6.720803,6.98808 6.710854,6.98808 6.696929,6.988245 6.694241,6.740303 6.693096,6.693097" style="fill: white" /><polygon type="contour" points="6.989533,7.423929 6.989953,7.562949 6.888034,7.562949 6.871191,7.562877 6.871265,7.535129 6.870375,7.362349 6.989533,7.362349" style="fill: white" /><polygon type="contour" points="6.989981,7.713903 6.989143,7.928305 6.870307,7.928305 6.871273,7.713903 6.871191,7.677098 6.973898,7.677098 6.989953,7.677039" style="fill: white" /><polygon type="contour" points="6.78649,8.281137 6.987718,8.281137 6.987442,8.468542 6.987313,8.574211 6.720159,8.574387 6.695941,8.574182 6.695796,8.56233 6.695861,8.559982 6.695898,8.559573 6.695969,8.555652 6.696081,8.548819 6.695905,8.280919" style="fill: white" /><polygon type="contour" points="7.562855,8.281151 7.562855,8.534591 7.562874,8.577488 7.42136,8.577101 7.362347,8.577256 7.362347,8.370945 7.362364,8.280856 7.42642,8.280856" style="fill: white" /><polygon type="contour" points="7.928303,8.577219 7.7139,8.577544 7.677095,8.577488 7.677095,8.319806 7.677085,8.281152 7.839273,8.280954 7.928303,8.280954" style="fill: white" /><polygon type="contour" points="8.572509,8.343478 8.569077,8.569079 8.477039,8.568379 8.46734,8.570614 8.451236,8.572169 8.281055,8.574415 8.281055,8.281057 8.574415,8.281057" style="fill: white" /><polygon type="contour" points="8.577553,7.535129 8.577486,7.562877 8.319804,7.562877 8.28115,7.562858 8.280855,7.426421 8.280855,7.362366 8.483168,7.362366 8.577254,7.362349" style="fill: white" /><polygon type="contour" points="8.577487,7.677098 8.577066,7.846022 8.577218,7.928305 8.280953,7.928305 8.28115,7.713903 8.28115,7.677088 8.534591,7.677088" style="fill: white" /><polygon type="contour" points="7.928487,7.713904 7.928115,7.757221 7.928303,7.928305 7.713901,7.928489 7.677085,7.928489 7.677085,7.713903 7.677095,7.677098 7.895271,7.677098 7.928487,7.677088" style="fill: white" /><polygon type="contour" points="7.562874,7.677098 7.562874,7.895273 7.562854,7.928489 7.426419,7.928116 7.362365,7.928116 7.362055,7.713903 7.362045,7.677039 7.535127,7.677039" style="fill: white" /><polygon type="contour" points="7.562946,7.535129 7.562874,7.562877 7.388452,7.562877 7.362046,7.562949 7.362347,7.423928 7.362347,7.362349 7.535127,7.362048 7.562946,7.362048" style="fill: white" /><polygon type="contour" points="7.7139,7.362059 7.928115,7.362366 7.928487,7.53361 7.928487,7.562858 7.7139,7.562858 7.677095,7.562877 7.677095,7.388454 7.677036,7.362048" style="fill: white" /><polygon type="contour" points="7.535126,6.871267 7.562874,6.871193 7.562874,6.973899 7.562946,6.989955 7.423927,6.989535 7.362347,6.989535 7.362347,6.870376" style="fill: white" /><polygon type="contour" points="7.928303,6.989145 7.7139,6.989984 7.677036,6.989955 7.677036,6.888037 7.677095,6.871193 7.713901,6.871275 7.928303,6.870309" style="fill: white" /><polygon type="contour" points="8.574181,6.695943 8.574386,6.720161 8.574397,6.98748 8.38265,6.987314 8.281151,6.987443 8.281151,6.881981 8.281135,6.786494 8.281054,6.74856 8.280917,6.695907 8.548818,6.696083 8.555682,6.695948 8.559539,6.695899 8.559982,6.695862 8.56233,6.695797 8.563727,6.695758 8.564589,6.695723 8.567973,6.69554" style="fill: white" /><polygon type="contour" points="12.437348,6.740302 12.434657,6.988245 12.299361,6.988077 12.144385,6.987314 12.144444,6.719543 12.144444,6.695886 12.414708,6.693775 12.424169,6.693541 12.427239,6.693429 12.438605,6.693097" style="fill: white" /><polygon type="contour" points="12.435617,8.548819 12.435801,8.55954 12.435838,8.559983 12.435903,8.562331 12.435976,8.564589 12.43616,8.567974 12.435757,8.574182 12.221039,8.57324 12.144385,8.574211 12.144385,8.382651 12.144257,8.281153 12.187799,8.281153 12.421085,8.280919 12.435793,8.280919" style="fill: white" /><polygon type="contour" points="11.769336,8.483169 11.769353,8.577256 11.596573,8.577555 11.568825,8.577487 11.568825,8.319806 11.568845,8.281152 11.705279,8.280856 11.769336,8.280856" style="fill: white" /><polygon type="contour" points="10.850747,7.839274 10.850995,7.928305 10.554483,7.928305 10.554157,7.713903 10.554212,7.677098 10.811895,7.677098 10.85055,7.677088" style="fill: white" /><polygon type="contour" points="10.850846,7.362366 10.850846,7.426421 10.85055,7.562858 10.597108,7.562858 10.554212,7.562877 10.554601,7.421362 10.554446,7.362349 10.760756,7.362349" style="fill: white" /><polygon type="contour" points="10.850566,6.786493 10.850566,6.98772 10.66316,6.987443 10.557491,6.987314 10.557315,6.720161 10.55752,6.695943 10.569371,6.695798 10.571718,6.695862 10.572161,6.695899 10.576018,6.695948 10.582882,6.696083 10.850646,6.695577" style="fill: white" /><polygon type="contour" points="11.417799,6.871275 11.454604,6.871193 11.454604,6.9739 11.454664,6.989955 11.417799,6.989983 11.203398,6.989145 11.203398,6.870309" style="fill: white" /><polygon type="contour" points="11.769353,6.989535 11.707771,6.989535 11.568753,6.989955 11.568753,6.888036 11.568825,6.871193 11.596573,6.871267 11.769353,6.870376" style="fill: white" /><polygon type="contour" points="12.260435,7.535129 12.260509,7.562877 12.1578,7.562877 12.141745,7.562949 12.142167,7.423929 12.142167,7.362349 12.261325,7.362349" style="fill: white" /><polygon type="contour" points="12.260509,7.677098 12.260417,7.704315 12.260427,7.713903 12.261393,7.928305 12.142555,7.928305 12.141716,7.713904 12.141745,7.677039 12.243664,7.677039" style="fill: white" /><polygon type="contour" points="11.769644,7.713903 11.769336,7.928116 11.598093,7.928489 11.568845,7.928489 11.568845,7.713903 11.568825,7.677098 11.743247,7.677098 11.769654,7.677039" style="fill: white" /><polygon type="contour" points="11.707771,7.362348 11.769353,7.362348 11.769654,7.535129 11.769654,7.562949 11.596573,7.562949 11.568825,7.562876 11.568825,7.388454 11.568753,7.362048" style="fill: white" /><polygon type="contour" points="11.454664,7.535129 11.454604,7.562877 11.236427,7.562877 11.203213,7.562857 11.203584,7.426421 11.203584,7.362366 11.417799,7.362057 11.454664,7.362048" style="fill: white" /><polygon type="contour" points="11.454604,7.895182 11.454614,7.928489 11.292425,7.928305 11.203645,7.928305 11.203315,7.713904 11.203213,7.677088 11.417799,7.677088 11.454604,7.677006" style="fill: white" /><polygon type="contour" points="11.4179,8.281152 11.454614,8.281152 11.454614,8.534592 11.454604,8.577488 11.285679,8.577067 11.203398,8.577218 11.203398,8.384822 11.203645,8.280954" style="fill: white" /><polygon type="contour" points="10.850646,8.485325 10.850646,8.574416 10.680462,8.57217 10.664357,8.570614 10.562622,8.569079 10.563321,8.477041 10.561087,8.467342 10.559531,8.451238 10.557285,8.281057 10.851132,8.281057" style="fill: white" /><polygon type="contour" points="10.851132,10.761556 10.851132,10.850648 10.557285,10.850648 10.559531,10.680464 10.561087,10.664359 10.562621,10.562624 10.680462,10.559533 10.850645,10.557288" style="fill: white" /><polygon type="contour" points="11.454604,10.554214 11.454604,10.811897 11.454614,10.850552 11.292425,10.85075 11.203645,10.85075 11.203645,10.658353 11.203398,10.554485 11.417799,10.554159" style="fill: white" /><polygon type="contour" points="11.710339,10.554603 11.769353,10.554448 11.769353,10.760758 11.769336,10.850848 11.705279,10.850848 11.568845,10.850552 11.568845,10.59711 11.568825,10.554214" style="fill: white" /><polygon type="contour" points="12.435757,10.557523 12.435903,10.569373 12.435838,10.571721 12.435801,10.572164 12.435728,10.576052 12.435617,10.582885 12.435793,10.850785 12.345206,10.850568 12.143983,10.850568 12.144257,10.66316 12.144385,10.557493 12.411538,10.557318" style="fill: white" /><polygon type="contour" points="12.437348,12.391401 12.438605,12.438608 12.427239,12.438275 12.424169,12.438164 12.414707,12.437928 12.144385,12.436313 12.144385,12.33503 12.144221,12.144224 12.18228,12.144224 12.410896,12.143624 12.420847,12.143624 12.434657,12.143459" style="fill: white" /><polygon type="contour" points="12.260508,11.568826 12.260434,11.596573 12.261325,11.769356 12.142167,11.769356 12.142167,11.707773 12.141745,11.568754 12.243665,11.568754" style="fill: white" /><polygon type="contour" points="12.260427,11.4178 12.260509,11.454605 12.157799,11.454605 12.141745,11.454665 12.141716,11.417799 12.142556,11.2034 12.261393,11.2034" style="fill: white" /><polygon type="contour" points="11.705279,11.203586 11.769336,11.203586 11.769644,11.4178 11.769654,11.454665 11.596572,11.454665 11.568825,11.454605 11.568825,11.236428 11.568845,11.203215" style="fill: white" /><polygon type="contour" points="11.454664,12.141746 11.454664,12.243667 11.454604,12.260511 11.417799,12.260429 11.203398,12.261396 11.203398,12.142556 11.417798,12.141717" style="fill: white" /><polygon type="contour" points="11.707772,12.142169 11.769353,12.142169 11.769353,12.261326 11.596572,12.260436 11.568825,12.260511 11.568825,12.157801 11.568753,12.141746" style="fill: white" /><polygon type="contour" points="11.769353,11.707774 11.769353,11.769356 11.596572,11.769657 11.568753,11.769657 11.568753,11.596574 11.568825,11.568826 11.743247,11.568826 11.769654,11.568754" style="fill: white" /><polygon type="contour" points="11.454604,11.74325 11.454664,11.769657 11.417798,11.769646 11.203583,11.769338 11.203213,11.598094 11.203213,11.568846 11.417799,11.568846 11.454604,11.568826" style="fill: white" /><polygon type="contour" points="11.454614,11.417799 11.454604,11.454698 11.236426,11.454698 11.203213,11.454615 11.203315,11.417799 11.203808,11.374481 11.203645,11.2034 11.417901,11.203215 11.454614,11.203215" style="fill: white" /><polygon type="contour" points="10.850652,11.417799 10.85055,11.454615 10.597107,11.454615 10.554212,11.454605 10.554635,11.285681 10.554483,11.2034 10.850995,11.2034" style="fill: white" /><polygon type="contour" points="10.850549,11.568846 10.850846,11.705281 10.850846,11.769338 10.648532,11.769338 10.554446,11.769356 10.554146,11.596573 10.554212,11.568826 10.811895,11.568826" style="fill: white" /><polygon type="contour" points="10.74905,12.144388 10.85055,12.144259 10.85055,12.249719 10.850566,12.345209 10.850645,12.38314 10.850783,12.435794 10.582882,12.435618 10.576019,12.435752 10.572127,12.435801 10.571719,12.435838 10.56937,12.435904 10.567614,12.435949 10.563727,12.43616 10.562514,12.436082 10.55752,12.435757 10.557315,12.411539 10.557303,12.144224" style="fill: white" /><polygon type="contour" points="7.562946,12.243667 7.562874,12.260511 7.535126,12.260437 7.362347,12.261326 7.362347,12.142169 7.423928,12.142169 7.562946,12.141746" style="fill: white" /><polygon type="contour" points="7.928303,12.142557 7.928303,12.261396 7.713901,12.260429 7.677095,12.260511 7.677095,12.1578 7.677036,12.141746 7.7139,12.141717" style="fill: white" /><polygon type="contour" points="8.46854,12.144259 8.574209,12.144388 8.574385,12.411539 8.57418,12.435758 8.56233,12.435904 8.559982,12.435839 8.559573,12.435802 8.555681,12.435752 8.548818,12.435618 8.281055,12.436125 8.281135,12.345209 8.281135,12.143985" style="fill: white" /><polygon type="contour" points="8.5771,11.710341 8.577254,11.769356 8.370943,11.769356 8.280855,11.769338 8.280855,11.705281 8.28115,11.568846 8.53459,11.568846 8.577487,11.568826" style="fill: white" /><polygon type="contour" points="8.577543,11.4178 8.577487,11.454605 8.319804,11.454605 8.28115,11.454615 8.280953,11.292427 8.280953,11.2034 8.577218,11.2034" style="fill: white" /><polygon type="contour" points="8.343477,10.559194 8.569077,10.562623 8.572168,10.680464 8.574415,10.850648 8.281055,10.850648 8.281055,10.557288" style="fill: white" /><polygon type="contour" points="6.987313,10.749051 6.987442,10.850551 6.943898,10.850551 6.710613,10.850785 6.695905,10.850785 6.696081,10.582884 6.695898,10.572165 6.695861,10.571722 6.695796,10.569374 6.695722,10.567115 6.695538,10.56373 6.695941,10.557523 6.910658,10.558462 6.987313,10.557493" style="fill: white" /><polygon type="contour" points="7.562874,10.554214 7.562874,10.811897 7.562855,10.850552 7.42642,10.850848 7.362365,10.850848 7.362365,10.648534 7.362347,10.554448 7.535126,10.554148" style="fill: white" /><polygon type="contour" points="7.846021,10.554636 7.928303,10.554485 7.928303,10.85075 7.713901,10.850552 7.677085,10.850552 7.677085,10.597109 7.677095,10.554214" style="fill: white" /><polygon type="contour" points="7.839273,11.2034 7.928303,11.2034 7.928487,11.417799 7.928487,11.454615 7.713901,11.454615 7.677095,11.454605 7.677095,11.236429 7.677085,11.203215" style="fill: white" /><polygon type="contour" points="7.928487,11.568846 7.928115,11.705281 7.928115,11.769337 7.7139,11.769645 7.677036,11.769656 7.677036,11.596573 7.677095,11.568826 7.895272,11.568826" style="fill: white" /><polygon type="contour" points="7.562874,11.568826 7.562874,11.743249 7.562946,11.769656 7.423927,11.769356 7.362347,11.769356 7.362046,11.596573 7.362046,11.568754 7.535127,11.568754" style="fill: white" /><polygon type="contour" points="7.562855,11.4178 7.562874,11.454605 7.388452,11.454605 7.362045,11.454665 7.362055,11.4178 7.362365,11.203586 7.533607,11.203215 7.562855,11.203215" style="fill: white" /><polygon type="contour" points="6.989982,11.417799 6.989953,11.454665 6.888034,11.454665 6.871191,11.454605 6.871283,11.427388 6.871273,11.417799 6.870307,11.2034 6.989143,11.2034" style="fill: white" /><polygon type="contour" points="6.989533,11.707773 6.989533,11.769356 6.870375,11.769356 6.871265,11.596573 6.871191,11.568826 6.973897,11.568826 6.989953,11.568754" style="fill: white" /><polygon type="contour" points="6.831963,12.143626 6.987313,12.144388 6.987254,12.412157 6.987254,12.435814 6.716991,12.437928 6.70753,12.438164 6.704459,12.438275 6.693096,12.438608 6.694241,12.391401 6.696929,12.143459" style="fill: white" />
</svg>
