<svg width="19.131698" height="19.131699">
<polygon type="contour" points="9.294571,10.347824 9.222452,10.347736 9.166074,10.347584 9.113743,10.347741 9.042431,10.347863 9.042431,10.215006 9.113743,10.215133 9.133739,10.215133 9.133739,10.215668 9.222452,10.214973 9.294571,10.214684" style="fill: white" /><polygon type="contour" points="9.711101,10.514863 9.647209,10.514552 9.566049,10.516096 9.505817,10.51458 9.484797,10.514552 9.4206,10.514863 9.4206,10.21482 9.711101,10.21482" style="fill: white" /><polygon type="contour" points="10.515878,10.322505 10.516664,10.342005 10.522007,10.52201 10.28804,10.515225 10.216896,10.515556 10.215382,10.469249 10.215382,10.424096 10.215403,10.41666 10.215529,10.271072 10.215529,10.215531 10.340278,10.215531 10.466778,10.215411 10.514698,10.215411" style="fill: white" /><polygon type="contour" points="10.516663,8.789697 10.515879,8.809197 10.514698,8.916291 10.466778,8.916291 10.340278,8.916171 10.215529,8.916171 10.215404,8.793603 10.215404,8.715044 10.215381,8.662456 10.215607,8.657453 10.216896,8.616149 10.28804,8.61648 10.522007,8.609694" style="fill: white" /><polygon type="contour" points="9.625882,8.617122 9.646902,8.617151 9.711101,8.616841 9.711101,8.916592 9.4206,8.916592 9.4206,8.616841 9.48449,8.617151 9.565501,8.615607" style="fill: white" /><polygon type="contour" points="8.916568,9.113746 8.916568,9.133741 8.916029,9.133741 8.916729,9.222454 8.917018,9.294573 8.783879,9.294573 8.783967,9.222453 8.784118,9.166074 8.783962,9.113745 8.78384,9.042434 8.916695,9.042434" style="fill: white" /><polygon type="contour" points="8.843659,8.61648 8.914804,8.616149 8.916318,8.662455 8.916318,8.707608 8.916294,8.715044 8.916169,8.860631 8.916169,8.916171 8.791421,8.916171 8.664921,8.916291 8.617002,8.916291 8.615822,8.809198 8.615036,8.789697 8.609692,8.609694" style="fill: white" /><polygon type="contour" points="9.113743,8.783964 9.166074,8.78412 9.222452,8.783969 9.294571,8.783881 9.294571,8.916739 9.222452,8.916576 9.133739,8.916549 9.133739,8.91657 9.113743,8.91657 9.042431,8.916697 9.042431,8.783842" style="fill: white" /><polygon type="contour" points="9.294506,9.113634 9.294506,9.133826 9.294426,9.133826 9.294571,9.257345 9.294571,9.294573 9.222452,9.294508 9.201952,9.294508 9.201952,9.294428 9.078175,9.294573 9.041789,9.294573 9.042823,9.222454 9.042737,9.202033 9.043118,9.202033 9.042431,9.078582 9.042431,9.042434 9.113743,9.04274 9.133739,9.04274 9.133739,9.042974 9.222452,9.042669 9.294578,9.042308" style="fill: white" /><polygon type="contour" points="9.711101,9.294573 9.4206,9.294573 9.4206,9.042308 9.711101,9.042308" style="fill: white" /><polygon type="contour" points="9.909247,9.042669 9.971879,9.042884 10.053119,9.042434 10.089268,9.042434 10.088962,9.113746 10.088962,9.133741 10.088731,9.133741 10.08903,9.222453 10.090191,9.294573 10.018066,9.294508 9.909248,9.294508 9.892582,9.294573 9.83713,9.294573 9.837195,9.222454 9.837195,9.113634 9.83713,9.041509" style="fill: white" /><polygon type="contour" points="10.089268,8.916697 10.017955,8.91657 9.997961,8.91657 9.997961,8.916549 9.909248,8.916576 9.83713,8.916739 9.83713,8.783881 9.909248,8.783969 9.965628,8.78412 10.017954,8.783964 10.089268,8.783842" style="fill: white" /><polygon type="contour" points="10.347739,9.113745 10.347582,9.166074 10.347734,9.222453 10.347822,9.294573 10.214961,9.294573 10.215125,9.222454 10.215151,9.133741 10.215131,9.133741 10.215131,9.113746 10.215004,9.042434 10.347861,9.042434" style="fill: white" /><polygon type="contour" points="10.516391,9.534749 10.516243,9.565502 10.515842,9.688366 10.515952,9.711102 10.214818,9.711102 10.214818,9.541471 10.215108,9.420602 10.515952,9.420602" style="fill: white" /><polygon type="contour" points="10.089393,9.595516 10.089115,9.711102 9.83713,9.711102 9.83713,9.420602 10.089393,9.420602" style="fill: white" /><polygon type="contour" points="10.347734,9.909249 10.347582,9.96563 10.347738,10.017956 10.347861,10.089269 10.215004,10.089269 10.215131,10.017956 10.215131,9.997963 10.215666,9.997963 10.214971,9.909249 10.214682,9.837132 10.347822,9.837132" style="fill: white" /><polygon type="contour" points="10.088877,9.909249 10.088962,9.929671 10.088583,9.929671 10.089268,10.053121 10.089268,10.089269 10.017954,10.088964 9.929669,10.088964 9.909247,10.088879 9.837123,10.089116 9.837195,10.017914 9.837195,9.997878 9.837274,9.997878 9.83713,9.874359 9.83713,9.837132 9.909247,9.837197 9.929748,9.837197 9.929748,9.837276 10.053525,9.837132 10.089911,9.837132" style="fill: white" /><polygon type="contour" points="9.909247,10.214973 9.997958,10.215668 9.997961,10.215133 10.017955,10.215133 10.089268,10.215006 10.089268,10.347863 10.017954,10.34774 9.965628,10.347584 9.909248,10.347736 9.83713,10.347824 9.83713,10.214684" style="fill: white" /><polygon type="contour" points="9.711101,10.089116 9.4206,10.089116 9.4206,9.837132 9.711101,9.837132" style="fill: white" /><polygon type="contour" points="9.711101,9.711102 9.4206,9.711102 9.4206,9.420602 9.711101,9.420602" style="fill: white" /><polygon type="contour" points="9.294571,9.837132 9.294506,9.909249 9.294506,10.017914 9.294578,10.089116 9.222452,10.088879 9.202031,10.088964 9.202031,10.088586 9.07858,10.089269 9.042431,10.089269 9.042738,10.017957 9.042738,9.929671 9.042824,9.909249 9.042585,9.837125 9.113787,9.837197 9.222451,9.837197 9.238942,9.837124" style="fill: white" /><polygon type="contour" points="9.294571,9.711102 9.042585,9.711102 9.042585,9.420602 9.294571,9.420602" style="fill: white" /><polygon type="contour" points="8.916882,9.711102 8.615749,9.711102 8.615307,9.596954 8.615457,9.566201 8.615859,9.443338 8.615749,9.420602 8.916882,9.420602" style="fill: white" /><polygon type="contour" points="8.916729,9.909249 8.916029,9.99796 8.916568,9.997963 8.916568,10.017956 8.916695,10.089269 8.78384,10.089269 8.783962,10.017956 8.784118,9.96563 8.783967,9.909249 8.783879,9.837132 8.917018,9.837132" style="fill: white" /><polygon type="contour" points="8.791421,10.215531 8.916169,10.215531 8.916294,10.338098 8.916294,10.41666 8.916318,10.469248 8.916089,10.474251 8.914804,10.515556 8.843659,10.515225 8.609692,10.52201 8.615036,10.342004 8.615821,10.322506 8.617002,10.215411 8.664921,10.215411" style="fill: white" />
</svg>
