<svg width="19.131698" height="19.131699">
<polygon type="contour" points="6.374366,10.973657 6.374563,11.055172 6.374563,11.264157 6.231055,11.26425 6.162974,11.264402 6.082646,11.264402 6.083518,11.10666 6.082047,10.975115 6.23156,10.972987" style="fill: white" /><polygon type="contour" points="6.716247,10.972917 6.804593,10.972724 6.80473,11.151614 6.80473,11.264326 6.627972,11.264137 6.537009,11.264201 6.537009,10.972573" style="fill: white" /><polygon type="contour" points="6.627972,11.459713 6.80473,11.460232 6.804593,11.582661 6.804593,11.667534 6.627971,11.666914 6.536986,11.666914 6.536986,11.530215 6.537208,11.45969" style="fill: white" /><polygon type="contour" points="6.375196,11.608479 6.375261,11.666914 6.305306,11.667534 6.257997,11.667534 6.257725,11.595962 6.257935,11.460258 6.342635,11.45969 6.375196,11.45969" style="fill: white" /><polygon type="contour" points="6.323247,12.757234 6.374465,12.757234 6.374465,12.88467 6.374366,12.967829 6.374366,13.049149 6.228602,13.053612 6.188992,13.05509 6.074085,13.057617 6.082441,12.808126 6.081896,12.757994 6.132314,12.757102 6.159162,12.756719" style="fill: white" /><polygon type="contour" points="6.335961,12.327777 6.375261,12.327777 6.375261,12.503728 6.375212,12.594645 6.290649,12.594645 6.258131,12.594692 6.257644,12.415452 6.257996,12.327108" style="fill: white" /><polygon type="contour" points="6.803925,12.503728 6.803925,12.594714 6.627971,12.594714 6.537009,12.594692 6.537009,12.399608 6.536986,12.327777 6.69506,12.327108 6.804593,12.327108" style="fill: white" /><polygon type="contour" points="6.804593,12.826393 6.804593,12.873706 6.716247,12.874058 6.537009,12.87357 6.537056,12.841051 6.537056,12.756489 6.728831,12.756489 6.803925,12.756439" style="fill: white" /><polygon type="contour" points="7.94906,12.757334 8.158045,12.757334 8.158716,12.900141 8.156601,13.0497 8.025041,13.048183 7.867299,13.049054 7.867299,12.968724 7.867333,12.837551 7.867544,12.757138" style="fill: white" /><polygon type="contour" points="7.67201,12.756505 7.671444,12.836665 7.671444,12.873767 7.535739,12.873977 7.464168,12.873706 7.464788,12.795739 7.464788,12.756439 7.601484,12.756439" style="fill: white" /><polygon type="contour" points="7.671987,12.503728 7.67201,12.594494 7.601485,12.594714 7.464788,12.594714 7.464168,12.436639 7.464168,12.327107 7.592032,12.326972 7.67147,12.326972" style="fill: white" /><polygon type="contour" points="8.038549,12.327108 8.158978,12.327108 8.158785,12.415453 8.15913,12.594692 7.867501,12.594692 7.867279,12.408937 7.867375,12.326972" style="fill: white" /><polygon type="contour" points="8.158877,11.595962 8.158978,11.667534 7.980087,11.667433 7.867376,11.667433 7.867376,11.539668 7.867298,11.460258 8.159147,11.460258" style="fill: white" /><polygon type="contour" points="7.671444,11.460258 7.671444,11.600898 7.67147,11.667433 7.549041,11.667534 7.464168,11.667534 7.464269,11.539668 7.464269,11.460232 7.592032,11.460232" style="fill: white" /><polygon type="contour" points="7.671444,11.264404 7.530802,11.264404 7.464269,11.264326 7.464168,11.093152 7.464168,10.972724 7.535739,10.972824 7.671444,10.972554" style="fill: white" /><polygon type="contour" points="7.978136,10.982718 8.150308,10.981393 8.158382,11.204364 8.157998,11.264321 7.867381,11.264321 7.86728,11.204865 7.86728,10.973781" style="fill: white" /><polygon type="contour" points="7.671444,8.159149 7.535739,8.158879 7.464168,8.15898 7.464269,7.980089 7.464269,7.867378 7.592032,7.867378 7.671444,7.8673" style="fill: white" /><polygon type="contour" points="8.148983,7.978137 8.150308,8.15031 8.027954,8.148379 7.968434,8.156341 7.927338,8.158384 7.86728,8.157923 7.86728,7.926838 7.867381,7.867383 7.926836,7.867281 8.157922,7.867281" style="fill: white" /><polygon type="contour" points="8.158877,7.535741 8.159147,7.671446 7.867298,7.671446 7.867298,7.530805 7.867376,7.464271 8.038549,7.46417 8.158978,7.46417" style="fill: white" /><polygon type="contour" points="7.592032,7.464271 7.67147,7.464271 7.67147,7.592034 7.671444,7.671446 7.530802,7.671446 7.464269,7.671472 7.464168,7.549042 7.464168,7.46417" style="fill: white" /><polygon type="contour" points="6.80473,7.592034 6.80473,7.671472 6.627972,7.671988 6.537208,7.672012 6.537208,7.523224 6.536986,7.464789 6.69506,7.46417 6.804593,7.46417" style="fill: white" /><polygon type="contour" points="6.80473,7.867377 6.804593,8.038552 6.804593,8.15898 6.716247,8.158787 6.537009,8.159131 6.537009,7.867503 6.722764,7.867281" style="fill: white" /><polygon type="contour" points="6.294149,7.867335 6.374563,7.867546 6.374366,7.949061 6.374366,8.158047 6.23156,8.158718 6.082002,8.156603 6.082875,8.074622 6.083518,8.025043 6.082646,7.867302 6.162975,7.867302" style="fill: white" /><polygon type="contour" points="6.335961,7.464789 6.375261,7.464789 6.375261,7.601486 6.375195,7.672013 6.295036,7.671446 6.257935,7.671446 6.257725,7.535741 6.257997,7.46417" style="fill: white" /><polygon type="contour" points="6.165438,6.075456 6.228601,6.078091 6.374435,6.082427 6.374465,6.24703 6.374465,6.374467 6.210226,6.374984 6.159163,6.374984 6.132314,6.374602 6.081896,6.37371 6.082441,6.323577 6.074085,6.074087 6.101106,6.071134" style="fill: white" /><polygon type="contour" points="6.290649,6.537058 6.375212,6.537058 6.375212,6.728833 6.375261,6.803927 6.305306,6.804595 6.257996,6.804595 6.257644,6.71625 6.258131,6.537011" style="fill: white" /><polygon type="contour" points="6.804593,6.695063 6.804593,6.804595 6.627972,6.803927 6.536986,6.803927 6.536986,6.627973 6.537008,6.537011 6.732092,6.537011 6.803925,6.536989" style="fill: white" /><polygon type="contour" points="6.804593,6.257999 6.803925,6.335964 6.803925,6.375264 6.627971,6.375264 6.537056,6.375215 6.537056,6.290652 6.537009,6.258134 6.627971,6.258379 6.721747,6.257925" style="fill: white" /><polygon type="contour" points="7.671444,6.257936 7.67201,6.342638 7.673039,6.375215 7.524048,6.375215 7.464787,6.375264 7.464168,6.305309 7.464168,6.257999 7.535739,6.257727" style="fill: white" /><polygon type="contour" points="7.67201,6.53721 7.671987,6.627974 7.67147,6.804732 7.549041,6.804595 7.464168,6.804595 7.464788,6.627975 7.464788,6.536989 7.601485,6.536989" style="fill: white" /><polygon type="contour" points="8.15913,6.537012 8.158785,6.716249 8.158978,6.804595 7.980087,6.804732 7.867375,6.804732 7.867565,6.627974 7.867501,6.537011 7.946635,6.537011" style="fill: white" /><polygon type="contour" points="8.158716,6.231562 8.158045,6.374369 8.076529,6.374566 7.867544,6.374566 7.867626,6.357924 7.867626,6.333137 7.86738,6.227674 7.867299,6.162977 7.867299,6.082647 8.025041,6.08352 8.156587,6.082049" style="fill: white" /><polygon type="contour" points="13.04926,6.323577 13.049805,6.37371 12.999387,6.374601 12.972536,6.374984 12.80845,6.374468 12.757233,6.374468 12.757233,6.323249 12.757234,6.24703 12.757334,6.163874 12.757334,6.082555 12.903098,6.078092 12.942707,6.076614 13.057616,6.074087" style="fill: white" /><polygon type="contour" points="12.874056,6.71625 12.873703,6.804595 12.795737,6.803927 12.756438,6.803927 12.756438,6.627974 12.756488,6.537058 12.84105,6.537058 12.873569,6.537011" style="fill: white" /><polygon type="contour" points="12.594691,6.537011 12.594691,6.732095 12.594714,6.803927 12.436638,6.804595 12.327107,6.804595 12.327775,6.627974 12.327775,6.536989 12.503728,6.536989" style="fill: white" /><polygon type="contour" points="12.594691,6.258134 12.594644,6.290652 12.594644,6.375215 12.402868,6.375215 12.327775,6.375264 12.327107,6.305309 12.327107,6.257999 12.415452,6.257646" style="fill: white" /><polygon type="contour" points="11.057079,6.082877 11.106658,6.08352 11.264401,6.082647 11.264401,6.162977 11.264366,6.294151 11.264155,6.374566 11.182639,6.374369 10.973655,6.374369 10.972985,6.231561 10.975099,6.082004" style="fill: white" /><polygon type="contour" points="11.667532,6.257999 11.666913,6.335963 11.666913,6.375264 11.530213,6.375264 11.458659,6.375215 11.459084,6.294932 11.460256,6.257936 11.595961,6.257727" style="fill: white" /><polygon type="contour" points="11.667532,6.695063 11.667532,6.804595 11.539666,6.804732 11.460231,6.804732 11.459712,6.627974 11.459688,6.53721 11.530214,6.536989 11.666913,6.536989" style="fill: white" /><polygon type="contour" points="11.26442,6.722766 11.264324,6.804732 11.093149,6.804595 10.972723,6.804595 10.972916,6.716249 10.972571,6.537011 11.264199,6.537011" style="fill: white" /><polygon type="contour" points="11.151612,7.464271 11.264324,7.464271 11.264324,7.592034 11.264402,7.671446 10.972553,7.671446 10.972823,7.535739 10.972723,7.46417" style="fill: white" /><polygon type="contour" points="11.264319,7.867383 11.264319,8.157998 11.204361,8.158384 11.163266,8.156341 10.981392,8.150309 10.983323,8.027956 10.975361,7.968435 10.973318,7.92734 10.973779,7.867281 11.204863,7.867281" style="fill: white" /><polygon type="contour" points="11.667432,7.592035 11.667432,7.671472 11.539667,7.671472 11.460256,7.671446 11.460256,7.530805 11.460231,7.464271 11.582659,7.46417 11.667532,7.46417" style="fill: white" /><polygon type="contour" points="11.667432,7.867378 11.667532,8.038551 11.667532,8.15898 11.595962,8.158879 11.460256,8.159149 11.460256,7.8673 11.600897,7.8673" style="fill: white" /><polygon type="contour" points="12.503727,7.867567 12.594691,7.867503 12.594691,8.159131 12.415452,8.158787 12.327107,8.15898 12.32697,7.980089 12.32697,7.867377" style="fill: white" /><polygon type="contour" points="12.503728,7.464789 12.594714,7.464789 12.594714,7.601486 12.594492,7.672013 12.503729,7.671988 12.32697,7.671472 12.327107,7.549042 12.327107,7.46417" style="fill: white" /><polygon type="contour" points="12.873975,7.535741 12.873766,7.671446 12.789065,7.672013 12.756489,7.673041 12.756488,7.52405 12.756438,7.464789 12.826391,7.46417 12.873702,7.46417" style="fill: white" /><polygon type="contour" points="13.04818,8.025042 13.048826,8.074623 13.049654,8.156589 12.90014,8.158718 12.757333,8.158047 12.757137,8.07653 12.757137,7.867546 12.900644,7.867454 12.968724,7.867302 13.049053,7.867302" style="fill: white" /><polygon type="contour" points="12.594492,11.608479 12.594714,11.666914 12.436639,11.667534 12.327107,11.667534 12.32697,11.539667 12.32697,11.460232 12.503727,11.459713 12.594492,11.45969" style="fill: white" /><polygon type="contour" points="12.836662,11.460258 12.873766,11.460258 12.873975,11.595962 12.873702,11.667534 12.795737,11.666914 12.756438,11.666914 12.756438,11.530215 12.756503,11.45969" style="fill: white" /><polygon type="contour" points="13.049698,10.975101 13.048181,11.106661 13.049053,11.264402 12.968723,11.264402 12.83755,11.264368 12.757137,11.264157 12.757333,11.18264 12.757334,10.973658 12.900142,10.972987" style="fill: white" /><polygon type="contour" points="12.594693,11.051708 12.594691,11.264201 12.408935,11.264422 12.32697,11.264326 12.327107,11.093151 12.327107,10.972724 12.415452,10.972917 12.594693,10.972574" style="fill: white" /><polygon type="contour" points="11.595962,10.972824 11.667532,10.972724 11.667432,11.151613 11.667432,11.264326 11.539667,11.264326 11.460256,11.264404 11.460256,10.972555" style="fill: white" /><polygon type="contour" points="11.264319,10.973705 11.264319,11.264321 10.973703,11.264321 10.973318,11.204363 10.97536,11.163268 10.981392,10.981393 11.103746,10.983325 11.163265,10.975364 11.204361,10.97332" style="fill: white" /><polygon type="contour" points="11.264402,11.600898 11.264324,11.667433 11.09315,11.667534 10.972723,11.667534 10.972823,11.595962 10.972552,11.460258 11.264402,11.460258" style="fill: white" /><polygon type="contour" points="11.667532,11.58266 11.667532,11.667534 11.539667,11.667433 11.460231,11.667433 11.460231,11.539668 11.460256,11.460258 11.600897,11.460258 11.667432,11.460232" style="fill: white" /><polygon type="contour" points="11.582658,12.327108 11.667532,12.327108 11.666913,12.503729 11.666913,12.594714 11.530214,12.594714 11.459688,12.594494 11.459712,12.503728 11.460231,12.326972" style="fill: white" /><polygon type="contour" points="11.264135,12.503728 11.264199,12.594692 10.972571,12.594692 10.972916,12.415453 10.972723,12.327108 11.151612,12.326972 11.264324,12.326972" style="fill: white" /><polygon type="contour" points="11.264074,12.773777 11.264074,12.798566 11.264319,12.904028 11.264401,12.968725 11.264401,13.049054 11.106659,13.048183 11.057078,13.048828 10.975113,13.049656 10.972985,12.900141 10.973655,12.757334 11.055171,12.757138 11.264155,12.757138" style="fill: white" /><polygon type="contour" points="11.667532,12.826393 11.667532,12.873706 11.595961,12.873977 11.460256,12.873767 11.459688,12.789065 11.458659,12.756489 11.60765,12.756489 11.666913,12.756439" style="fill: white" /><polygon type="contour" points="12.594644,12.756489 12.594644,12.841051 12.594691,12.87357 12.503728,12.873325 12.409952,12.87378 12.327107,12.873706 12.327775,12.795739 12.327775,12.756439 12.503728,12.756439" style="fill: white" /><polygon type="contour" points="12.503727,12.327777 12.594714,12.327777 12.594714,12.503728 12.594691,12.594692 12.399607,12.594692 12.327775,12.594714 12.327107,12.436639 12.327107,12.327108" style="fill: white" /><polygon type="contour" points="12.874056,12.415452 12.873569,12.594692 12.84105,12.594645 12.756488,12.594645 12.756488,12.40287 12.756438,12.327777 12.826391,12.327108 12.873703,12.327108" style="fill: white" /><polygon type="contour" points="12.999387,12.757102 13.049805,12.757994 13.04926,12.808126 13.057616,13.057617 13.030595,13.06057 12.96626,13.056248 12.903097,13.053611 12.757235,13.049247 12.757235,13.024988 12.757333,12.967828 12.757233,12.884671 12.757233,12.757234 12.921473,12.756719 12.972536,12.756719" style="fill: white" />
</svg>
