<svg width="19.131698" height="19.131699">
<polygon type="contour" points="10.701149,11.667481 10.8145,11.667795 10.844514,11.667795 10.844795,11.810691 10.844795,11.910567 10.844514,11.967047 10.844514,11.986418 10.81961,11.986401 10.674065,11.98615 10.674065,12.157503 10.668919,12.157839 10.564564,12.163505 10.49842,12.159216 10.388656,12.158912 10.387545,12.122978 10.387957,12.072197 10.379629,12.071909 10.379661,12.065929 10.379613,12.059932 10.379613,11.98589 10.213227,11.986216 10.140111,11.986415 10.140098,11.910566 10.140098,11.810691 10.140111,11.705007 10.140111,11.667884 10.334375,11.667442 10.503329,11.667442" style="fill: white" /><polygon type="contour" points="11.967047,11.667795 11.986417,11.667795 11.986348,11.860129 12.093768,11.860129 12.157478,11.860189 12.157647,11.887029 12.161476,12.018903 12.165375,12.165377 11.913636,12.158006 11.860346,12.157587 11.86011,12.079366 11.860112,12.072213 11.860127,12.071887 11.860128,12.049824 11.860128,11.985893 11.697075,11.986429 11.667794,11.986418 11.667637,11.910566 11.667637,11.810692 11.667794,11.704301 11.667794,11.667795 11.81069,11.667638 11.910565,11.667638" style="fill: white" /><polygon type="contour" points="11.966716,10.140222 11.986414,10.140222 11.985876,10.379614 12.047934,10.379614 12.077414,10.37963 12.159312,10.379128 12.159213,10.498422 12.157678,10.661902 12.157674,10.673971 12.157583,10.6746 12.141032,10.6746 12.134067,10.674067 11.986148,10.674067 11.9864,10.819612 11.986417,10.844516 11.910565,10.844796 11.810691,10.844796 11.704299,10.844516 11.667793,10.844516 11.66748,10.701151 11.667441,10.50333 11.667441,10.334376 11.667794,10.183259 11.667883,10.140222 11.810691,10.140101 11.910566,10.140101" style="fill: white" /><polygon type="contour" points="10.701149,10.140064 10.813868,10.140222 10.844497,10.140222 10.844683,10.334375 10.844888,10.554013 10.844888,10.701151 10.844514,10.814501 10.844514,10.844516 10.70115,10.844891 10.554011,10.844891 10.334374,10.844686 10.183257,10.844516 10.140111,10.844499 10.140063,10.701151 10.139725,10.50333 10.139725,10.334375 10.140111,10.184162 10.140111,10.140222 10.334375,10.139727 10.503329,10.139727" style="fill: white" /><polygon type="contour" points="10.661901,6.974024 10.67397,6.974028 10.675025,6.974008 10.675025,7.145551 10.81961,7.145302 10.844514,7.145286 10.844795,7.221136 10.844795,7.321011 10.844514,7.427402 10.844514,7.463908 10.701149,7.464223 10.503329,7.464262 10.334375,7.464262 10.183256,7.463908 10.140111,7.463819 10.140098,7.321012 10.140098,7.221136 10.140111,7.164986 10.140111,7.145289 10.379613,7.145826 10.379613,7.083768 10.379629,7.059794 10.387957,7.059506 10.387545,7.008724 10.388656,6.972792" style="fill: white" /><polygon type="contour" points="12.161476,7.1128 12.157647,7.244674 12.157724,7.271761 12.132357,7.271761 12.123484,7.271757 11.985894,7.272168 11.986428,7.434627 11.986417,7.463908 11.910566,7.464066 11.81069,7.464066 11.7043,7.463908 11.667794,7.463908 11.667637,7.321012 11.667637,7.221136 11.667794,7.164657 11.667794,7.145286 11.697075,7.145276 11.860127,7.145809 11.860127,7.059817 11.860112,7.059491 11.86011,7.052337 11.860346,7.013182 11.860346,6.974116 11.913637,6.973694 12.165375,6.966327" style="fill: white" /><polygon type="contour" points="11.967047,8.287188 11.986417,8.287188 11.9864,8.312092 11.986148,8.457637 12.134066,8.457637 12.157583,8.457647 12.157619,8.457716 12.157674,8.457732 12.157838,8.462783 12.163504,8.567135 12.159213,8.633279 12.159312,8.752574 12.088878,8.752191 12.077413,8.752074 12.065928,8.752041 12.059929,8.75209 11.985889,8.75209 11.986215,8.918474 11.986414,8.991589 11.910565,8.991602 11.810691,8.991602 11.705005,8.99159 11.667883,8.99159 11.667441,8.797325 11.667441,8.628372 11.66748,8.430552 11.667794,8.317202 11.667794,8.287188 11.810691,8.286908 11.910565,8.286908" style="fill: white" /><polygon type="contour" points="10.814499,8.287188 10.844514,8.287188 10.844888,8.430552 10.844888,8.57769 10.844684,8.797325 10.844514,8.948444 10.844497,8.99159 10.70115,8.99164 10.503329,8.991978 10.334374,8.991978 10.184159,8.99159 10.14011,8.99159 10.139725,8.797326 10.139725,8.628372 10.140063,8.430552 10.140111,8.317726 10.140111,8.287206 10.334374,8.287017 10.554011,8.286813 10.70115,8.286813" style="fill: white" /><polygon type="contour" points="8.797325,8.287017 8.948442,8.287187 8.991481,8.287206 8.991638,8.430553 8.991975,8.628372 8.991975,8.797325 8.991481,8.947541 8.991481,8.99159 8.797325,8.991978 8.62837,8.991978 8.430551,8.99164 8.317724,8.99159 8.287204,8.99159 8.287016,8.797326 8.286812,8.57769 8.286812,8.430553 8.287187,8.317201 8.287187,8.287188 8.43055,8.286813 8.577688,8.286813" style="fill: white" /><polygon type="contour" points="8.633278,6.972489 8.743044,6.972792 8.744156,7.008723 8.743741,7.059506 8.752071,7.059794 8.752039,7.065774 8.752088,7.071771 8.752088,7.145813 8.918473,7.145487 8.991481,7.145289 8.991601,7.221137 8.991601,7.321012 8.991481,7.426696 8.991481,7.463819 8.797325,7.464262 8.62837,7.464262 8.430551,7.464223 8.317199,7.463908 8.287187,7.463908 8.286905,7.321012 8.286905,7.221137 8.287187,7.164656 8.287187,7.145286 8.31209,7.145302 8.457635,7.145553 8.457635,6.974037 8.457476,6.973867 8.457746,6.974137 8.567134,6.968198" style="fill: white" /><polygon type="contour" points="7.21806,6.973695 7.271352,6.974116 7.271352,7.013182 7.271707,7.037325 7.271573,7.037934 7.271574,7.059817 7.271574,7.145809 7.434625,7.145276 7.463906,7.145286 7.464064,7.221136 7.464064,7.321012 7.463906,7.427401 7.463906,7.463908 7.321009,7.464066 7.221134,7.464066 7.164653,7.463908 7.145283,7.463908 7.145352,7.271575 7.037931,7.271575 6.974222,7.271515 6.974053,7.244674 6.96988,7.1128 6.966325,6.966327" style="fill: white" /><polygon type="contour" points="7.427399,8.287188 7.463906,8.287188 7.46422,8.430552 7.46426,8.628373 7.46426,8.797325 7.463906,8.948444 7.463817,8.99159 7.32101,8.991602 7.221133,8.991602 7.164983,8.99159 7.145286,8.99159 7.145823,8.75209 7.083765,8.75209 7.054286,8.752074 6.972387,8.752575 6.972487,8.633278 6.974022,8.469802 6.974026,8.457732 6.974117,8.457104 6.990668,8.457104 6.997632,8.457637 7.145551,8.457637 7.145299,8.312092 7.145282,8.287188 7.221134,8.286908 7.32101,8.286908" style="fill: white" /><polygon type="contour" points="7.426694,10.140222 7.463817,10.140222 7.46426,10.334376 7.46426,10.503329 7.46422,10.701151 7.463906,10.814501 7.463906,10.844516 7.32101,10.844796 7.221134,10.844796 7.164653,10.844516 7.145282,10.844516 7.145299,10.819612 7.145551,10.674067 6.997632,10.674067 6.974116,10.6746 6.97408,10.673987 6.974026,10.673971 6.973862,10.668919 6.968195,10.564567 6.972487,10.498423 6.972387,10.379128 7.04282,10.379512 7.054286,10.37963 7.065771,10.379662 7.071769,10.379614 7.14581,10.379614 7.145485,10.213231 7.145286,10.140221 7.221133,10.140101 7.32101,10.140101" style="fill: white" /><polygon type="contour" points="8.947539,10.140222 8.991481,10.140222 8.991975,10.334376 8.991975,10.50333 8.991638,10.70115 8.991481,10.81387 8.991481,10.844499 8.797325,10.844686 8.577688,10.844891 8.430551,10.844891 8.317199,10.844516 8.287187,10.844516 8.286812,10.70115 8.286812,10.554013 8.287016,10.334375 8.287187,10.18326 8.287204,10.140222 8.430551,10.140065 8.62837,10.139727 8.797325,10.139727" style="fill: white" /><polygon type="contour" points="8.948443,11.667795 8.991481,11.667884 8.991601,11.810691 8.991601,11.910566 8.991481,11.966718 8.991481,11.986415 8.752088,11.985877 8.752088,12.047935 8.752072,12.071908 8.743741,12.072196 8.744156,12.122978 8.743044,12.158912 8.469798,12.15768 8.457728,12.157676 8.456674,12.157696 8.456674,11.986152 8.31209,11.986401 8.287187,11.986418 8.286905,11.910567 8.286905,11.810692 8.287187,11.704301 8.287187,11.667794 8.43055,11.667481 8.62837,11.667442 8.797325,11.667442" style="fill: white" /><polygon type="contour" points="7.4274,11.667795 7.463906,11.667795 7.464064,11.810692 7.464064,11.910566 7.463906,11.967048 7.463906,11.986418 7.434625,11.986429 7.271574,11.985893 7.271574,12.071886 7.271589,12.072212 7.271591,12.079366 7.271352,12.118521 7.271352,12.157587 7.21806,12.158007 6.966325,12.165377 6.96988,12.018903 6.974053,11.887029 6.974222,11.860189 7.0345,11.860189 7.094531,11.859943 7.145361,11.859955 7.145273,11.697075 7.145283,11.667795 7.221134,11.667638 7.321009,11.667638" style="fill: white" />
</svg>
