<svg width="19.131698" height="19.131699">
<polygon type="contour" points="13.143734,6.114184 13.145531,6.279389 12.967368,6.28254 12.96744,6.34752 12.967706,7.456179 12.967706,7.802428 13.039297,7.802314 13.141923,7.802314 13.142748,7.865792 13.144999,8.088432 12.898739,8.091939 12.849155,8.092642 12.721188,8.092675 12.642521,8.092647 11.535492,8.092647 11.446881,8.092735 11.329387,8.092813 11.298963,8.0913 11.048699,8.083003 11.051357,7.914639 11.040399,7.832737 11.038887,7.802314 11.038965,7.684821 11.039055,7.596209 11.039055,6.48918 11.039027,6.410512 11.03906,6.282546 11.039744,6.233132 11.04323,5.986583 11.265907,5.988953 11.329387,5.989777 11.329387,6.092403 11.32937,6.164312 11.385806,6.164263 12.784179,6.164263 12.849199,6.164336 12.849087,6.034418 12.849056,5.989983 12.858336,5.989967 13.148108,5.983594" style="fill: white" /><polygon type="contour" points="6.226865,5.98724 6.282544,5.989564 6.282485,6.164314 6.347517,6.164263 7.745893,6.164263 7.802335,6.164313 7.802313,5.989777 7.838619,5.989498 8.08843,5.986704 8.091936,6.232961 8.09264,6.282545 8.092673,6.410512 8.092644,6.48918 8.092644,7.596209 8.092697,7.681308 8.092812,7.802314 8.092117,7.831258 8.082026,7.956399 8.083001,8.083003 7.914637,8.080345 7.832736,8.091301 7.802313,8.092813 7.684818,8.092735 7.596207,8.092647 6.489178,8.092647 6.41051,8.092675 6.282543,8.092642 6.23313,8.091958 5.986581,8.088472 5.988952,7.865793 5.989776,7.802314 6.092401,7.802314 6.164309,7.802331 6.164261,7.745896 6.164261,6.34752 6.164332,6.28254 5.986169,6.279388 5.987967,6.114185 5.983592,5.983594 6.055549,5.975732" style="fill: white" /><polygon type="contour" points="7.831257,11.039585 7.956397,11.049674 8.083001,11.0487 8.092117,11.300444 8.092812,11.329389 8.092697,11.450395 8.092644,11.535494 8.092644,12.642523 8.092673,12.72119 8.09264,12.849155 8.091956,12.89857 8.08847,13.14512 7.838462,13.142237 7.802313,13.141925 7.802457,12.967707 7.456176,12.967707 6.347517,12.967441 6.282497,12.967369 6.282611,13.097285 6.282644,13.141721 6.273363,13.141737 5.983592,13.14811 5.987967,13.017518 5.986169,12.852315 6.164332,12.849161 6.164261,12.784182 6.164261,11.385807 6.16431,11.329366 5.989776,11.32939 5.989496,11.293082 5.986702,11.043271 6.23296,11.039764 6.282543,11.039062 6.410511,11.039028 6.489178,11.039056 7.596207,11.039056 7.681307,11.039004 7.802313,11.03889" style="fill: white" /><polygon type="contour" points="11.446881,11.038966 11.535492,11.039056 12.642521,11.039056 12.721188,11.039028 12.849155,11.039063 12.898572,11.039748 13.145119,11.043232 13.142235,11.293239 13.141923,11.32939 13.069961,11.32939 12.967706,11.329209 12.967706,11.675524 12.96744,12.784182 12.967368,12.849161 13.145531,12.852315 13.143734,13.017519 13.148108,13.14811 13.076151,13.155972 12.904831,13.144462 12.849155,13.14214 12.84921,12.96739 12.78418,12.967441 11.675523,12.967707 11.329242,12.967707 11.329387,13.141926 11.265908,13.14275 11.043269,13.145001 11.039763,12.898741 11.03906,12.849156 11.039027,12.72119 11.039055,12.642523 11.039055,11.535494 11.038965,11.446882 11.038887,11.32939 11.040399,11.298966 11.048699,11.0487 11.217061,11.051359 11.298964,11.040402 11.329386,11.03889" style="fill: white" />
</svg>
