<svg width="19.131698" height="19.131699">
<polygon type="contour" points="10.456855,10.152783 10.457226,10.281628 10.457482,10.309448 10.460335,10.460337 10.183684,10.457805 10.153512,10.45707 10.152637,10.428087 10.152637,10.399734 10.15252,10.395319 10.152612,10.22817 10.152712,10.152714 10.221931,10.152714" style="fill: white" /><polygon type="contour" points="9.711101,10.456825 9.65952,10.456775 9.642427,10.457143 9.5655,10.45916 9.471932,10.456775 9.4206,10.456825 9.4206,10.221052 9.420441,10.18338 9.420441,10.183221 9.420281,10.152173 9.711101,10.152173" style="fill: white" /><polygon type="contour" points="9.711101,9.711102 9.4206,9.711102 9.4206,9.420602 9.711101,9.420602" style="fill: white" /><polygon type="contour" points="9.711101,10.019702 9.420269,10.019702 9.4206,9.998422 9.4206,9.84536 9.711101,9.84536" style="fill: white" /><polygon type="contour" points="9.93474,10.151945 10.0197,10.15228 10.0197,10.290014 9.934741,10.289844 9.932221,10.289844 9.929667,10.289842 9.863249,10.290005 9.845358,10.289972 9.845334,10.183272 9.845147,10.152173 9.86572,10.152173 9.9295,10.151938" style="fill: white" /><polygon type="contour" points="10.184175,9.84536 10.28997,9.84536 10.289841,9.92967 10.289842,9.932222 10.289842,9.934743 10.290034,10.001487 10.290012,10.019702 10.152278,10.019702 10.152278,9.998362 10.151944,9.934742 10.151942,9.92967 10.152248,9.845169" style="fill: white" /><polygon type="contour" points="10.01979,9.86629 10.019969,9.929669 10.019963,9.934743 10.0197,10.019702 9.99836,10.019702 9.934741,10.019964 9.929667,10.01997 9.845166,10.019792 9.845172,9.934813 9.845172,9.92967 9.845358,9.84536 9.866217,9.84536 9.929668,9.845174 9.934812,9.845174 10.01979,9.845169" style="fill: white" /><polygon type="contour" points="10.0197,9.711102 9.845358,9.711102 9.845358,9.420602 9.934741,9.420602 10.0197,9.420271" style="fill: white" /><polygon type="contour" points="10.457482,8.822256 10.457226,8.850075 10.456855,8.978922 10.391078,8.978922 10.221931,8.978991 10.152712,8.978991 10.152712,8.947731 10.152612,8.903535 10.15252,8.78709 10.15252,8.736384 10.152637,8.703616 10.152652,8.700968 10.153512,8.674634 10.183684,8.673899 10.460335,8.671367" style="fill: white" /><polygon type="contour" points="10.289842,9.196962 10.289842,9.199482 10.289841,9.202034 10.290004,9.268453 10.28997,9.286344 10.184175,9.286344 10.152248,9.286209 10.152248,9.265413 10.151942,9.202034 10.151944,9.196962 10.152278,9.112002 10.290012,9.112002" style="fill: white" /><polygon type="contour" points="10.183271,9.420602 10.460139,9.420602 10.459756,9.499762 10.459195,9.565867 10.459529,9.635421 10.460139,9.711102 10.152172,9.711102 10.152172,9.420283" style="fill: white" /><polygon type="contour" points="9.711101,9.133281 9.711101,9.286344 9.4206,9.286344 9.4206,9.112002 9.711432,9.112002" style="fill: white" /><polygon type="contour" points="9.93474,9.11174 10.0197,9.112002 10.01979,9.181089 10.019969,9.202035 10.01979,9.286209 9.934811,9.28653 9.929668,9.28653 9.845358,9.286344 9.845358,9.265485 9.845172,9.202034 9.845172,9.19689 9.845493,9.111911 9.929668,9.111734" style="fill: white" /><polygon type="contour" points="10.0197,8.841691 10.0197,8.979424 9.998361,8.979424 9.93474,8.979759 9.929667,8.979761 9.845494,8.979455 9.845394,8.947416 9.845394,8.841724 9.929668,8.841862 9.932221,8.84186 9.93474,8.84186 10.001486,8.841669" style="fill: white" /><polygon type="contour" points="9.659769,8.674929 9.711101,8.674878 9.711101,8.910651 9.711259,8.948323 9.71142,8.979531 9.4206,8.979531 9.4206,8.674878 9.472178,8.674928 9.489274,8.674557 9.565873,8.672544" style="fill: white" /><polygon type="contour" points="8.948015,8.673899 8.978189,8.674634 8.979064,8.703616 8.979064,8.731969 8.979181,8.736384 8.979089,8.903534 8.978989,8.978991 8.909769,8.978991 8.674844,8.978922 8.674473,8.850075 8.674218,8.822257 8.671365,8.671367" style="fill: white" /><polygon type="contour" points="9.19696,8.84186 9.199479,8.84186 9.202033,8.841862 9.268451,8.841699 9.286343,8.841732 9.286367,8.948431 9.286554,8.979531 9.265979,8.979531 9.2022,8.979766 9.196959,8.979759 9.112,8.979424 9.112,8.841691" style="fill: white" /><polygon type="contour" points="9.287488,9.112002 9.286598,9.196962 9.286528,9.202034 9.286343,9.286344 9.265483,9.286344 9.202032,9.28653 9.196889,9.28653 9.111909,9.286536 9.111909,9.265413 9.111731,9.202035 9.111737,9.196962 9.112,9.112002 9.133338,9.112002 9.19696,9.11174 9.202038,9.11174" style="fill: white" /><polygon type="contour" points="8.979423,9.13334 8.979758,9.196962 8.979759,9.202034 8.979453,9.286536 8.947524,9.286344 8.841731,9.286344 8.84186,9.202034 8.841858,9.199481 8.841858,9.196962 8.841667,9.130215 8.841689,9.112002 8.979423,9.112002" style="fill: white" /><polygon type="contour" points="8.979453,9.86629 8.979759,9.929669 8.979758,9.934742 8.979422,10.019702 8.841689,10.019702 8.841858,9.934742 8.841859,9.932222 8.84186,9.92967 8.841697,9.863251 8.841731,9.84536 8.947525,9.84536 8.979453,9.845169" style="fill: white" /><polygon type="contour" points="8.979529,9.711102 8.671561,9.711102 8.671943,9.631941 8.672505,9.566202 8.67217,9.496647 8.671561,9.420602 8.979529,9.420602" style="fill: white" /><polygon type="contour" points="9.286343,9.711102 9.112,9.711102 9.112,9.420602 9.286343,9.420602" style="fill: white" /><polygon type="contour" points="9.19696,9.845104 9.202032,9.845174 9.286343,9.84536 9.286343,9.866219 9.286529,9.92967 9.286529,9.934813 9.286207,10.019792 9.202032,10.01997 9.196959,10.019964 9.112,10.019702 9.112,9.950742 9.111737,9.929663 9.112,9.844214" style="fill: white" /><polygon type="contour" points="9.286207,10.152248 9.286307,10.184123 9.286307,10.289981 9.202033,10.289842 9.199479,10.289844 9.19696,10.289844 9.130212,10.290035 9.112,10.290014 9.112,10.15228 9.133338,10.15228 9.19696,10.151944 9.202033,10.151943" style="fill: white" /><polygon type="contour" points="8.978989,10.183973 8.979089,10.228169 8.979181,10.344614 8.979181,10.395319 8.979064,10.428087 8.979048,10.430735 8.978189,10.45707 8.948015,10.457805 8.671365,10.460337 8.674218,10.309448 8.674473,10.281629 8.674844,10.152783 8.740621,10.152783 8.909769,10.152714 8.978989,10.152714" style="fill: white" />
</svg>
