<svg width="19.131698" height="19.131699">
<polygon type="contour" points="3.878373,18.055246 3.887684,18.155516 3.717465,18.155762 3.576416,18.155824 3.545406,18.15583 3.468581,18.15582 3.468581,18.233828 3.468556,18.239615 3.468551,18.239863 3.468535,18.251066 3.434821,18.251066 3.13604,18.250363 3.136066,18.243238 3.136033,18.235671 3.136073,18.230086 3.13603,18.227734 3.13596,18.210746 3.135937,18.200399 3.135843,18.060158 3.135843,18.028806 3.136003,17.917768 3.447728,17.91772 3.482284,17.917572 3.879891,17.917572" style="fill: white" /><polygon type="contour" points="2.772008,16.469278 2.771934,16.555067 2.68526,16.555142 2.576559,16.555142 2.576633,16.456915 2.576633,16.359766 2.674784,16.359766 2.772008,16.359693" style="fill: white" /><polygon type="contour" points="2.669998,15.24773 2.772213,15.245446 2.772213,15.648138 2.772008,15.995944 2.662421,15.995944 2.576633,15.995892 2.576407,15.650935 2.576312,15.245244" style="fill: white" /><polygon type="contour" points="1.842005,15.245244 1.842123,15.650936 1.841737,15.995892 1.707234,15.9957 1.509089,15.995591 1.509026,15.681409 1.509026,15.246272 1.648694,15.241385" style="fill: white" /><polygon type="contour" points="1.213947,15.67219 1.213934,15.995696 1.187415,15.995696 1.071542,15.995859 0.931303,15.995766 0.920955,15.995743 0.903969,15.995673 0.901615,15.995629 0.89603,15.99567 0.895614,15.995638 0.888464,15.995638 0.888117,15.995661 0.881339,15.995663 0.880636,15.696879 0.880636,15.663167 0.892085,15.663146 0.897873,15.66312 0.97588,15.66312 0.975871,15.586295 0.975877,15.555285 0.975939,15.414236 0.976185,15.244019 1.101299,15.240094 1.213947,15.240094" style="fill: white" /><polygon type="contour" points="1.656866,16.359496 1.841737,16.359766 1.841566,16.446438 1.841566,16.555142 1.656866,16.554796 1.509152,16.554796 1.509152,16.446441 1.508949,16.359403" style="fill: white" /><polygon type="contour" points="1.21396,16.478918 1.214035,16.554796 1.151044,16.555142 1.071562,16.555142 1.071509,16.457812 1.071457,16.359693 1.158547,16.359403 1.21396,16.359403" style="fill: white" /><polygon type="contour" points="0.888464,17.917188 0.895615,17.917188 0.895855,17.917178 0.901317,17.917182 0.903645,17.917186 0.919748,17.917264 0.929405,17.917291 1.071109,17.917792 1.21391,17.917792 1.21391,18.060593 1.21441,18.202297 1.214438,18.211954 1.214516,18.228057 1.214519,18.230384 1.214524,18.235845 1.214514,18.243237 1.214543,18.243585 1.214551,18.250352 0.917026,18.251044 0.916811,18.25108 0.88066,18.251042 0.88066,18.242715 0.881354,17.932159 0.881339,17.917162" style="fill: white" /><polygon type="contour" points="1.150461,17.290362 1.214035,17.290362 1.214035,17.474835 1.21391,17.622612 1.07111,17.622612 1.071234,17.474836 1.071562,17.290136" style="fill: white" /><polygon type="contour" points="1.84134,17.474835 1.84134,17.62255 1.656866,17.62255 1.509089,17.622612 1.508949,17.493727 1.509152,17.474836 1.509152,17.290362 1.656866,17.290362 1.841566,17.290135" style="fill: white" /><polygon type="contour" points="1.841566,17.980658 1.841566,18.060138 1.656866,18.060468 1.509089,18.060592 1.509089,17.917792 1.723167,17.917792 1.84134,17.917666" style="fill: white" /><polygon type="contour" points="2.772299,17.917742 2.772008,17.997571 2.772008,18.060244 2.674784,18.06019 2.576559,18.060138 2.576906,17.981239 2.576906,17.917666 2.685259,17.917666" style="fill: white" /><polygon type="contour" points="2.772205,17.474835 2.772299,17.622752 2.652784,17.622752 2.576906,17.62255 2.576906,17.474836 2.576559,17.290136 2.674784,17.289962 2.771934,17.289962" style="fill: white" /><polygon type="contour" points="3.522602,17.290136 3.886113,17.290136 3.889911,17.483006 3.885102,17.622676 3.449961,17.622676 3.136108,17.622612 3.136002,17.424464 3.13581,17.289962" style="fill: white" /><polygon type="contour" points="3.888996,16.441532 3.886459,16.555389 3.480766,16.555293 3.13581,16.555067 3.13581,16.456916 3.135757,16.359693 3.483565,16.359489 3.886257,16.359489" style="fill: white" /><polygon type="contour" points="3.875241,15.256461 3.87512,15.312001 3.89382,15.995843 3.494242,15.995843 3.135842,15.995859 3.13598,15.645198 3.136103,15.554572 3.136103,15.251905 3.412965,15.250925" style="fill: white" /><polygon type="contour" points="3.889911,1.648697 3.886459,1.842006 3.480766,1.842125 3.13581,1.841738 3.136002,1.707236 3.136109,1.50909 3.449961,1.509027 3.885102,1.509027" style="fill: white" /><polygon type="contour" points="3.468556,0.892088 3.468581,0.897875 3.468581,0.975883 3.545406,0.975873 3.576416,0.975879 3.717466,0.975941 3.887684,0.976187 3.878373,1.076457 3.879891,1.214131 3.482283,1.214131 3.447729,1.213981 3.136003,1.213936 3.136003,1.187417 3.135843,1.071544 3.135936,0.931304 3.13596,0.920956 3.13603,0.90397 3.136073,0.901617 3.136033,0.896033 3.136066,0.895617 3.136066,0.888465 3.136042,0.888119 3.13604,0.881341 3.43482,0.880638 3.468535,0.880638" style="fill: white" /><polygon type="contour" points="2.772205,1.656867 2.771934,1.841738 2.685262,1.841567 2.576559,1.841567 2.576906,1.656866 2.576906,1.509153 2.685259,1.509153 2.772298,1.508951" style="fill: white" /><polygon type="contour" points="2.772299,1.15855 2.772299,1.213962 2.652783,1.213962 2.576906,1.214037 2.576559,1.151046 2.576559,1.071564 2.673888,1.071511 2.772008,1.071459" style="fill: white" /><polygon type="contour" points="0.917026,0.880661 1.214551,0.881351 1.214514,0.888464 1.214514,0.895617 1.214524,0.895858 1.214519,0.901319 1.214516,0.903646 1.214438,0.919749 1.21441,0.929407 1.21391,1.071111 1.21391,1.213912 1.071109,1.213912 0.929406,1.214411 0.919748,1.214439 0.903644,1.214518 0.901317,1.214521 0.895856,1.214526 0.888464,1.214515 0.888117,1.214545 0.881339,1.214543 0.881354,1.199542 0.88066,0.888988 0.88066,0.880662 0.916811,0.880624" style="fill: white" /><polygon type="contour" points="1.656865,1.071235 1.841566,1.071564 1.84134,1.150463 1.84134,1.214037 1.723168,1.213912 1.509089,1.213912 1.509089,1.071112" style="fill: white" /><polygon type="contour" points="1.84134,1.509152 1.84134,1.656867 1.841566,1.841567 1.656866,1.841341 1.509152,1.841341 1.509152,1.656867 1.509089,1.509091 1.723168,1.509091" style="fill: white" /><polygon type="contour" points="1.21391,1.72317 1.214035,1.841341 1.151043,1.841567 1.071562,1.841567 1.071233,1.656866 1.07111,1.509091 1.21391,1.509091" style="fill: white" /><polygon type="contour" points="1.841566,3.522604 1.841566,3.886115 1.648695,3.889913 1.509026,3.885102 1.509026,3.449963 1.509088,3.136111 1.707234,3.136004 1.841737,3.135812" style="fill: white" /><polygon type="contour" points="1.213934,3.136005 1.213934,3.804051 1.213935,3.89146 1.102903,3.881477 0.976153,3.892799 0.976153,3.699124 0.975812,3.536372 0.975785,3.528509 0.975881,3.468583 0.897873,3.468583 0.892086,3.468558 0.891837,3.468553 0.880636,3.468537 0.880636,3.434822 0.881339,3.136042 0.888464,3.136067 0.89603,3.136034 0.901615,3.136075 0.903969,3.136032 0.920955,3.135961 0.931303,3.135939 1.071542,3.135845 1.102894,3.135845" style="fill: white" /><polygon type="contour" points="1.150461,2.576907 1.214035,2.576907 1.214035,2.68526 1.21396,2.772301 1.13413,2.77201 1.071458,2.77201 1.071508,2.674786 1.071562,2.576561" style="fill: white" /><polygon type="contour" points="1.841737,2.674785 1.841737,2.771936 1.656865,2.772207 1.508948,2.772301 1.508948,2.652785 1.509152,2.576907 1.656866,2.576907 1.841566,2.576561" style="fill: white" /><polygon type="contour" points="2.674784,2.576635 2.771934,2.576635 2.771934,2.674785 2.772008,2.77201 2.662422,2.77201 2.576633,2.771935 2.576559,2.685264 2.576559,2.576561" style="fill: white" /><polygon type="contour" points="2.772213,3.483565 2.772213,3.886257 2.69017,3.888997 2.576311,3.88646 2.576407,3.480768 2.576633,3.135812 2.662422,3.135759 2.772008,3.135759" style="fill: white" /><polygon type="contour" points="3.494242,3.135861 3.89382,3.135861 3.896286,3.508596 3.875241,3.875243 3.819701,3.87512 3.136103,3.879351 3.136103,3.576681 3.13598,3.486505 3.135843,3.135845" style="fill: white" /><polygon type="contour" points="3.883973,2.67 3.886257,2.772215 3.483564,2.772215 3.135757,2.77201 3.135757,2.662424 3.13581,2.576635 3.480766,2.576409 3.886459,2.576314" style="fill: white" /><polygon type="contour" points="17.474834,2.576907 17.622548,2.576907 17.622548,2.685261 17.62275,2.772301 17.474834,2.772207 17.28996,2.771936 17.290132,2.685264 17.290132,2.576561" style="fill: white" /><polygon type="contour" points="17.424462,3.136004 17.62261,3.13611 17.622674,3.449963 17.622674,3.885103 17.483003,3.889913 17.289694,3.886461 17.289576,3.480767 17.28996,3.135812" style="fill: white" /><polygon type="contour" points="18.200398,3.135939 18.210743,3.13596 18.227732,3.136031 18.230083,3.136075 18.23567,3.136034 18.236086,3.136067 18.243236,3.136067 18.243583,3.136044 18.250362,3.136042 18.251064,3.434823 18.251064,3.468537 18.239614,3.468557 18.233823,3.468583 18.155816,3.468583 18.155912,3.528509 18.155885,3.536372 18.155544,3.699124 18.155544,3.892799 18.028794,3.881477 17.917766,3.89146 17.917766,3.136005 17.944283,3.136005 18.060154,3.135845" style="fill: white" /><polygon type="contour" points="18.06019,2.67389 18.06024,2.77201 17.973151,2.772301 17.91774,2.772301 17.91774,2.652785 17.917664,2.576906 17.980655,2.576561 18.060136,2.576561" style="fill: white" /><polygon type="contour" points="18.25104,0.880662 18.25104,0.888988 18.250346,1.199543 18.250362,1.214543 18.243235,1.214515 18.236086,1.214515 18.235844,1.214526 18.230382,1.214521 18.228055,1.214517 18.211952,1.214439 18.202295,1.214411 18.060592,1.213912 17.91779,1.213912 17.91779,1.07111 17.917289,0.929406 17.917262,0.91975 17.917184,0.903647 17.91718,0.901319 17.917176,0.895857 17.917186,0.888464 17.917156,0.888118 17.91715,0.881351 18.214673,0.880661 18.214887,0.880623" style="fill: white" /><polygon type="contour" points="18.060464,1.656866 18.060135,1.841567 17.981236,1.841341 17.917664,1.841341 17.917664,1.656866 17.91779,1.509091 18.06059,1.509091" style="fill: white" /><polygon type="contour" points="17.62275,1.637974 17.622548,1.656866 17.622548,1.841341 17.474834,1.841341 17.290132,1.841567 17.29036,1.656867 17.29036,1.509153 17.474833,1.509153 17.62261,1.509091" style="fill: white" /><polygon type="contour" points="17.62261,1.213912 17.408529,1.213912 17.29036,1.214037 17.290132,1.151045 17.290132,1.071564 17.474834,1.071236 17.62261,1.071112" style="fill: white" /><polygon type="contour" points="15.995661,0.88134 15.995636,0.888465 15.995668,0.896033 15.995628,0.901617 15.99567,0.90397 15.995741,0.920956 15.995764,0.931304 15.995856,1.071544 15.995856,1.102895 15.995695,1.213936 15.902598,1.213912 15.649054,1.214131 15.251449,1.214131 15.242143,1.153025 15.238903,0.976155 15.432576,0.976155 15.59541,0.976038 15.603182,0.975844 15.66312,0.975882 15.66312,0.897875 15.663145,0.892088 15.66315,0.891838 15.663167,0.880638 15.69688,0.880638" style="fill: white" /><polygon type="contour" points="16.456912,1.07151 16.55514,1.071564 16.554794,1.150463 16.554794,1.214037 16.446438,1.214037 16.3594,1.213962 16.35969,1.134131 16.35969,1.071458" style="fill: white" /><polygon type="contour" points="16.554794,1.509153 16.554794,1.656867 16.55514,1.841567 16.456912,1.841738 16.359763,1.841738 16.359493,1.656866 16.3594,1.508951 16.478915,1.508951" style="fill: white" /><polygon type="contour" points="15.99559,1.50909 15.995696,1.707236 15.995889,1.841738 15.609098,1.841567 15.245589,1.841567 15.241384,1.648697 15.246271,1.509027 15.68141,1.509027" style="fill: white" /><polygon type="contour" points="15.650931,2.576409 15.995889,2.576635 15.995889,2.674786 15.99594,2.77201 15.648134,2.772215 15.245443,2.772215 15.242705,2.690173 15.245242,2.576314" style="fill: white" /><polygon type="contour" points="16.555066,2.674786 16.555066,2.771936 16.456913,2.771936 16.35969,2.77201 16.35969,2.662423 16.359762,2.576635 16.446436,2.576561 16.55514,2.576561" style="fill: white" /><polygon type="contour" points="16.555066,3.135812 16.555292,3.480768 16.555388,3.886461 16.461699,3.883975 16.359486,3.886258 16.359486,3.483566 16.35969,3.135759 16.469277,3.135759" style="fill: white" /><polygon type="contour" points="15.995717,3.486505 15.995596,3.576682 15.995596,3.87935 15.718733,3.880303 15.256459,3.875243 15.25658,3.819703 15.237879,3.135861 15.637455,3.135861 15.995856,3.135845" style="fill: white" /><polygon type="contour" points="17.62275,16.478917 17.622548,16.554796 17.474834,16.554796 17.290132,16.555142 17.28996,16.456915 17.28996,16.359766 17.474833,16.359496 17.62275,16.359403" style="fill: white" /><polygon type="contour" points="17.997567,16.359693 18.06024,16.359693 18.060186,16.456915 18.060136,16.555142 17.981235,16.554796 17.917664,16.554796 17.917664,16.446441 17.91774,16.359403" style="fill: white" /><polygon type="contour" points="18.064986,15.244019 18.155512,15.244019 18.15576,15.414236 18.155824,15.555286 18.155828,15.586294 18.155818,15.66312 18.233824,15.66312 18.239613,15.663146 18.239861,15.66315 18.251064,15.663167 18.251064,15.696879 18.250362,15.995663 18.243235,15.995638 18.23567,15.99567 18.230084,15.99563 18.227731,15.995673 18.210743,15.995744 18.200398,15.995766 18.060153,15.995859 18.028801,15.995859 17.917766,15.995696 17.917752,15.672191 17.917752,15.240094" style="fill: white" /><polygon type="contour" points="17.622674,15.246272 17.622674,15.68141 17.62261,15.995591 17.424462,15.9957 17.28996,15.995892 17.290132,15.609098 17.290132,15.24559 17.483004,15.241385" style="fill: white" /><polygon type="contour" points="16.555388,15.245244 16.555292,15.650935 16.555066,15.995892 16.469278,15.995944 16.35969,15.995944 16.359486,15.648137 16.359486,15.245446 16.44153,15.242707" style="fill: white" /><polygon type="contour" points="15.995596,15.554573 15.995717,15.645197 15.995856,15.995859 15.637455,15.995843 15.237879,15.995843 15.235413,15.623107 15.256459,15.256461 15.311999,15.256582 15.995596,15.251904" style="fill: white" /><polygon type="contour" points="16.555066,16.359766 16.55514,16.446438 16.55514,16.555142 16.456913,16.555067 16.359763,16.555067 16.359763,16.456915 16.35969,16.359693 16.469278,16.359693" style="fill: white" /><polygon type="contour" points="15.99594,16.359693 15.99594,16.469279 15.995889,16.555067 15.650931,16.555293 15.245242,16.555389 15.247726,16.461703 15.245443,16.359489 15.648133,16.359489" style="fill: white" /><polygon type="contour" points="15.683969,17.91772 15.995696,17.917768 15.995696,17.944285 15.995856,18.060158 15.995764,18.2004 15.995742,18.210745 15.995671,18.227733 15.995628,18.230086 15.995668,18.235672 15.995636,18.236088 15.995636,18.243238 15.995659,18.243585 15.995661,18.250364 15.696879,18.251066 15.663167,18.251066 15.663146,18.239616 15.66312,18.233828 15.66312,18.155819 15.603182,18.155858 15.59541,18.155666 15.432576,18.155548 15.238903,18.155548 15.242143,17.978675 15.251449,17.917572 15.649055,17.917572" style="fill: white" /><polygon type="contour" points="15.995889,17.289962 15.995696,17.424464 15.99559,17.622612 15.681409,17.622676 15.24627,17.622676 15.241384,17.483006 15.245242,17.289698 15.650932,17.289578" style="fill: white" /><polygon type="contour" points="16.446437,17.290136 16.55514,17.290136 16.554794,17.474835 16.554794,17.62255 16.446439,17.62255 16.3594,17.622752 16.359493,17.474835 16.359763,17.289962" style="fill: white" /><polygon type="contour" points="16.55514,17.980657 16.55514,18.060138 16.45781,18.060192 16.35969,18.060244 16.3594,17.973154 16.3594,17.917742 16.478915,17.917742 16.554794,17.917666" style="fill: white" /><polygon type="contour" points="17.408532,17.917792 17.622612,17.917792 17.622612,17.968649 17.62261,18.060592 17.474834,18.060468 17.290132,18.060137 17.29036,17.98124 17.29036,17.917666" style="fill: white" /><polygon type="contour" points="17.474834,17.290362 17.622548,17.290362 17.62255,17.474836 17.622612,17.622612 17.408531,17.622612 17.29036,17.62255 17.29036,17.474835 17.290132,17.290136" style="fill: white" /><polygon type="contour" points="18.060464,17.474836 18.06059,17.622612 17.917792,17.622612 17.91779,17.408531 17.917664,17.290362 17.980656,17.290136 18.060135,17.290136" style="fill: white" /><polygon type="contour" points="18.250362,17.917162 18.250346,17.932159 18.25104,18.242715 18.25104,18.251042 18.214887,18.25108 18.214673,18.251044 17.91715,18.250352 17.917186,18.243238 17.917186,18.236088 17.917176,18.235846 17.91718,18.230383 17.917184,18.228058 17.917261,18.211954 17.91729,18.202297 17.91779,18.060594 17.91779,18.035163 17.917792,17.917792 18.060592,17.917792 18.202295,17.917292 18.211952,17.917263 18.228056,17.917186 18.230381,17.917182 18.235843,17.917178 18.243236,17.917188 18.243584,17.917158" style="fill: white" />
</svg>
