<svg width="19.131698" height="19.131699">
<polygon type="contour" points="13.58028,12.903757 13.580645,13.008137 13.580711,13.118288 13.452674,13.118288 13.452453,12.996863 13.452453,12.903587 13.525347,12.903587" style="fill: white" /><polygon type="contour" points="13.757983,13.516172 13.767005,13.767006 13.662896,13.766095 13.454017,13.757738 13.454017,13.454019 13.757736,13.454019" style="fill: white" /><polygon type="contour" points="13.006145,13.452676 13.118286,13.452676 13.118286,13.580713 13.008136,13.580647 12.903755,13.580281 12.903755,13.506334 12.903585,13.452454" style="fill: white" /><polygon type="contour" points="13.118286,13.006147 13.118286,13.118288 12.996862,13.118488 12.903585,13.118488 12.903585,12.996863 12.903755,12.903757 13.027134,12.903757 13.118487,12.903587" style="fill: white" /><polygon type="contour" points="12.39755,12.903757 12.39755,13.027136 12.397699,13.118488 12.261466,13.118523 12.102872,13.11834 12.102688,13.002737 12.102688,12.903622 12.261465,12.903622" style="fill: white" /><polygon type="contour" points="12.397699,13.452454 12.397699,13.525348 12.39755,13.580281 12.262044,13.580906 12.142053,13.580299 12.102742,13.580242 12.102779,13.548591 12.102419,13.452626 12.261466,13.452276" style="fill: white" /><polygon type="contour" points="11.801932,13.453661 11.801932,13.524262 11.801961,13.581412 11.794695,13.575797 11.797747,13.7566 11.575909,13.756031 11.502601,13.756254 11.50251,13.69493 11.501595,13.624217 11.50327,13.508717 11.502167,13.452022 11.587909,13.451922" style="fill: white" /><polygon type="contour" points="11.802102,13.002737 11.802114,13.11834 11.663569,13.11834 11.50327,13.118288 11.502626,12.996864 11.502587,12.903757 11.678209,12.903757 11.802102,12.903622" style="fill: white" /><polygon type="contour" points="11.802102,12.261466 11.802102,12.397712 11.637288,12.397712 11.502587,12.397553 11.503571,12.262047 11.503181,12.102777 11.802029,12.102777" style="fill: white" /><polygon type="contour" points="11.802225,11.614259 11.801961,11.738685 11.801961,11.801962 11.614257,11.802227 11.501864,11.802227 11.503866,11.767205 11.511905,11.511906 11.767203,11.503868 11.802225,11.501866" style="fill: white" /><polygon type="contour" points="12.39755,11.678211 12.39771,11.802103 12.272641,11.80203 12.102776,11.80203 12.102776,11.503183 12.262043,11.503574 12.39755,11.502589" style="fill: white" /><polygon type="contour" points="12.39771,12.261467 12.39755,12.397553 12.228357,12.397553 12.102688,12.397712 12.102776,12.272642 12.102776,12.102777 12.261465,12.10269 12.39771,12.10269" style="fill: white" /><polygon type="contour" points="13.118339,12.102873 13.118522,12.261467 13.118487,12.397701 12.996862,12.397701 12.903755,12.397553 12.903755,12.228361 12.90362,12.10269 13.002735,12.10269" style="fill: white" /><polygon type="contour" points="13.580836,12.109146 13.580732,12.124511 13.581261,12.184871 13.580904,12.262046 13.58028,12.397553 13.506334,12.397553 13.452453,12.397701 13.452275,12.261467 13.452624,12.102729 13.523885,12.100821 13.58089,12.100811" style="fill: white" /><polygon type="contour" points="13.557635,11.505673 13.601751,11.508297 13.756414,11.502321 13.756177,11.573299 13.756599,11.797748 13.701311,11.798009 13.669119,11.797973 13.633698,11.797657 13.580183,11.793048 13.58034,11.800712 13.550016,11.798564 13.45366,11.801933 13.45192,11.587911 13.45202,11.50217" style="fill: white" /><polygon type="contour" points="13.008136,11.503236 13.118286,11.503271 13.118286,11.650214 13.118339,11.802115 13.002736,11.802103 12.90362,11.802103 12.90362,11.63729 12.903755,11.502589" style="fill: white" /><polygon type="contour" points="12.39771,7.494413 12.39755,7.629115 12.262043,7.62813 12.102776,7.628519 12.102776,7.329674 12.261465,7.329601 12.39771,7.329601" style="fill: white" /><polygon type="contour" points="13.580101,7.332276 13.66912,7.33373 13.701311,7.333693 13.756599,7.333955 13.75603,7.555792 13.756253,7.629099 13.694927,7.629189 13.624217,7.630104 13.508715,7.628428 13.452021,7.629532 13.451921,7.543789 13.45366,7.329769 13.559307,7.329439 13.580267,7.329439" style="fill: white" /><polygon type="contour" points="13.118339,7.468132 13.118286,7.628433 12.996861,7.629076 12.903755,7.629115 12.903755,7.453492 12.90362,7.329601 13.002736,7.329601 13.118339,7.329588" style="fill: white" /><polygon type="contour" points="13.118522,6.870235 13.118339,7.028831 13.002735,7.029014 12.90362,7.029014 12.90362,6.870237 12.903755,6.73415 13.027135,6.73415 13.118487,6.734002" style="fill: white" /><polygon type="contour" points="13.58028,6.73415 13.58031,6.872611 13.58089,7.030893 13.523885,7.03119 13.452623,7.029284 13.452275,6.870236 13.452453,6.734002 13.525346,6.734002" style="fill: white" /><polygon type="contour" points="13.757983,5.615531 13.757743,5.67788 13.636538,5.67788 13.550923,5.677685 13.454017,5.677685 13.454017,5.44639 13.453962,5.374024 13.508873,5.373322 13.516171,5.373719 13.767005,5.364697" style="fill: white" /><polygon type="contour" points="13.580645,6.123566 13.58028,6.227947 13.506334,6.227947 13.452453,6.228117 13.452674,6.125556 13.452674,6.013417 13.580711,6.013417" style="fill: white" /><polygon type="contour" points="13.118286,5.679029 12.996861,5.67925 12.903585,5.67925 12.903585,5.606355 12.903755,5.551422 13.008135,5.551056 13.118286,5.550989" style="fill: white" /><polygon type="contour" points="13.006145,6.013417 13.118286,6.013417 13.118487,6.134839 13.118487,6.228117 12.996861,6.228117 12.903755,6.227947 12.903755,6.104568 12.903585,6.013216" style="fill: white" /><polygon type="contour" points="11.802102,6.128964 11.802102,6.228082 11.637288,6.228082 11.502587,6.227947 11.502626,6.13484 11.50327,6.013417 11.650212,6.013417 11.802114,6.013362" style="fill: white" /><polygon type="contour" points="11.796415,5.46078 11.796429,5.46343 11.796426,5.472418 11.798876,5.499142 11.799007,5.551623 11.802263,5.551433 11.802082,5.582165 11.801932,5.678043 11.587909,5.679782 11.502167,5.679682 11.501433,5.50412 11.502253,5.434518 11.502318,5.37529 11.573297,5.375527 11.797747,5.375102" style="fill: white" /><polygon type="contour" points="12.262043,5.550797 12.39755,5.551422 12.39755,5.625368 12.397699,5.67925 12.261466,5.679427 12.102419,5.679079 12.102419,5.608408 12.102776,5.551062 12.124508,5.550969 12.18487,5.55044" style="fill: white" /><polygon type="contour" points="12.397699,6.013216 12.397699,6.13484 12.39755,6.227947 12.228358,6.227947 12.102688,6.228082 12.102688,6.128964 12.102872,6.013362 12.261465,6.01318" style="fill: white" /><polygon type="contour" points="12.39755,6.73415 12.39755,6.903341 12.39771,7.029014 12.272641,7.028927 12.102776,7.028927 12.102688,6.870235 12.102688,6.733992 12.261465,6.733992" style="fill: white" /><polygon type="contour" points="11.802029,6.85906 11.802029,7.028927 11.503181,7.028927 11.503571,6.869656 11.502587,6.73415 11.67821,6.73415 11.802102,6.733992" style="fill: white" /><polygon type="contour" points="11.738683,7.329741 11.801961,7.329741 11.802225,7.517441 11.802225,7.629835 11.767202,7.627833 11.511905,7.619798 11.503866,7.364498 11.501864,7.329477 11.614257,7.329477" style="fill: white" /><polygon type="contour" points="7.627831,7.364497 7.619796,7.619798 7.364496,7.627833 7.329475,7.629835 7.329475,7.517442 7.329739,7.393018 7.329739,7.329741 7.517439,7.329477 7.629834,7.329477" style="fill: white" /><polygon type="contour" points="6.859058,7.329674 7.028924,7.329674 7.028924,7.62852 6.869653,7.628131 6.734148,7.629115 6.734148,7.453491 6.73399,7.329601" style="fill: white" /><polygon type="contour" points="7.028924,6.85906 7.028924,7.028927 6.870234,7.029014 6.73399,7.029014 6.73399,6.870236 6.734148,6.73415 6.90334,6.73415 7.029013,6.733992" style="fill: white" /><polygon type="contour" points="7.629113,6.734149 7.628129,6.869656 7.628519,7.028927 7.329671,7.028927 7.329598,6.870236 7.329598,6.733992 7.494412,6.733992" style="fill: white" /><polygon type="contour" points="7.555788,5.375672 7.629096,5.375449 7.623404,5.529949 7.626028,5.574066 7.62953,5.679682 7.543788,5.679782 7.329767,5.678043 7.329852,5.606855 7.329861,5.549951 7.336035,5.549325 7.336053,5.499488 7.333953,5.375102" style="fill: white" /><polygon type="contour" points="7.628431,6.013417 7.629075,6.13484 7.629113,6.227947 7.45349,6.227947 7.329598,6.228082 7.329598,6.128964 7.329586,6.013362 7.46813,6.013362" style="fill: white" /><polygon type="contour" points="7.028828,6.013362 7.029013,6.128964 7.029013,6.228082 6.870234,6.228082 6.734148,6.227947 6.734148,6.104567 6.734,6.013216 6.870234,6.01318" style="fill: white" /><polygon type="contour" points="6.989644,5.551405 7.028957,5.551462 7.028921,5.583111 7.029282,5.679079 6.870234,5.679427 6.734,5.67925 6.734,5.606355 6.734148,5.551422 6.869654,5.550798" style="fill: white" /><polygon type="contour" points="5.468802,5.365607 5.677682,5.373967 5.677647,5.48831 5.677647,5.677649 5.488309,5.677649 5.446389,5.677685 5.373965,5.677685 5.373718,5.615532 5.364695,5.364696" style="fill: white" /><polygon type="contour" points="6.123565,5.551056 6.227945,5.551421 6.227945,5.625368 6.228116,5.67925 6.125555,5.679029 6.013415,5.679029 6.013415,5.550989" style="fill: white" /><polygon type="contour" points="6.228116,6.13484 6.227945,6.227947 6.104565,6.227947 6.013213,6.228117 6.013415,6.125555 6.013415,6.013417 6.134837,6.013216 6.228116,6.013216" style="fill: white" /><polygon type="contour" points="5.679247,6.13484 5.679247,6.228117 5.606352,6.228117 5.551419,6.227947 5.551358,6.13484 5.550987,6.013417 5.679025,6.013417" style="fill: white" /><polygon type="contour" points="5.679424,6.870236 5.679076,7.029284 5.607816,7.031188 5.55081,7.030893 5.550863,7.022557 5.550967,7.007191 5.550438,6.946832 5.550796,6.869655 5.551419,6.73415 5.625365,6.73415 5.679247,6.734002" style="fill: white" /><polygon type="contour" points="6.227945,6.73415 6.227945,6.903342 6.228081,7.029014 6.128963,7.029014 6.013361,7.028831 6.013177,6.870235 6.013213,6.734002 6.134837,6.734002" style="fill: white" /><polygon type="contour" points="6.128962,7.329601 6.228081,7.329601 6.228081,7.494413 6.227944,7.629115 6.134838,7.629076 6.013415,7.628433 6.013415,7.48149 6.013361,7.329588" style="fill: white" /><polygon type="contour" points="5.679779,7.543789 5.679679,7.629532 5.504119,7.630267 5.434516,7.629448 5.375288,7.629383 5.375525,7.558404 5.375101,7.333955 5.430389,7.333693 5.46258,7.33373 5.498001,7.334046 5.551516,7.338656 5.551358,7.330993 5.581684,7.33314 5.67804,7.329769" style="fill: white" /><polygon type="contour" points="6.228081,12.261467 6.227945,12.397552 6.104564,12.397552 6.013213,12.397701 6.013177,12.261467 6.013361,12.102873 6.128963,12.10269 6.228081,12.10269" style="fill: white" /><polygon type="contour" points="5.607815,12.100821 5.679076,12.102729 5.679424,12.261467 5.679247,12.397701 5.606352,12.397701 5.551419,12.397553 5.551389,12.259092 5.55081,12.100811" style="fill: white" /><polygon type="contour" points="5.679779,11.587911 5.67804,11.801933 5.57239,11.802265 5.55143,11.802265 5.551596,11.799424 5.462579,11.797974 5.43039,11.79801 5.375101,11.797748 5.37567,11.575909 5.375447,11.502603 5.529947,11.508297 5.574063,11.505673 5.679679,11.50217" style="fill: white" /><polygon type="contour" points="6.227945,11.678212 6.228081,11.802103 6.128962,11.802103 6.013361,11.802115 6.013361,11.663571 6.013415,11.503271 6.134838,11.502627 6.227945,11.502588" style="fill: white" /><polygon type="contour" points="7.364497,11.503869 7.619796,11.511906 7.627831,11.767206 7.629834,11.802227 7.517439,11.802227 7.393017,11.801962 7.329738,11.801962 7.329475,11.61426 7.329475,11.501866" style="fill: white" /><polygon type="contour" points="6.869654,11.503574 7.028924,11.503183 7.028924,11.80203 6.870234,11.802103 6.73399,11.802103 6.73399,11.637289 6.734148,11.502589" style="fill: white" /><polygon type="contour" points="6.859058,12.102777 7.028924,12.102777 7.029013,12.261466 7.029013,12.397712 6.870233,12.397712 6.734148,12.397553 6.734148,12.22836 6.73399,12.10269" style="fill: white" /><polygon type="contour" points="7.628129,12.262047 7.629113,12.397553 7.45349,12.397553 7.329598,12.397712 7.329671,12.272643 7.329671,12.102777 7.628519,12.102777" style="fill: white" /><polygon type="contour" points="7.62953,13.452022 7.626029,13.557636 7.623404,13.601754 7.629382,13.756415 7.558403,13.756178 7.333953,13.7566 7.335286,13.670921 7.334929,13.669288 7.335273,13.659283 7.332823,13.632561 7.332691,13.580078 7.329437,13.580268 7.329616,13.549537 7.329767,13.453661 7.543788,13.451921" style="fill: white" /><polygon type="contour" points="7.629113,12.903757 7.628466,13.008138 7.628431,13.118288 7.481488,13.118288 7.329586,13.11834 7.329598,13.002737 7.329598,12.903622 7.494411,12.903622" style="fill: white" /><polygon type="contour" points="7.029013,13.002737 7.028828,13.11834 6.870233,13.118523 6.734,13.118488 6.734,12.996864 6.734148,12.903757 6.903339,12.903757 7.029013,12.903622" style="fill: white" /><polygon type="contour" points="7.029282,13.452626 7.029282,13.523295 7.028924,13.580641 7.007191,13.580733 6.946829,13.581263 6.869654,13.580906 6.734148,13.580281 6.734148,13.506335 6.734,13.452454 6.870233,13.452277" style="fill: white" /><polygon type="contour" points="6.228116,13.525347 6.227944,13.580281 6.134838,13.580341 6.013415,13.580713 6.013415,13.452676 6.134838,13.452454 6.228116,13.452454" style="fill: white" /><polygon type="contour" points="6.227945,12.903757 6.227945,13.027135 6.228116,13.118488 6.125555,13.118288 6.013415,13.118288 6.013213,12.996864 6.013213,12.903587 6.134838,12.903587" style="fill: white" /><polygon type="contour" points="5.679026,13.006147 5.679026,13.118288 5.550987,13.118288 5.551054,13.008137 5.551419,12.903757 5.625365,12.903757 5.679247,12.903587" style="fill: white" /><polygon type="contour" points="5.580774,13.454019 5.677682,13.454019 5.677682,13.757738 5.622827,13.758382 5.615528,13.757984 5.364695,13.767006 5.373718,13.516172 5.373957,13.453824 5.495159,13.453824" style="fill: white" />
</svg>
