<svg width="19.131698" height="19.131699">
<polygon type="contour" points="16.970786,16.637587 16.970684,16.740168 16.97112,16.934811 16.97112,16.971122 16.813477,16.971288 16.812541,16.971126 16.637517,16.97072 16.63777,16.922065 16.63777,16.87316 16.6377,16.871507 16.637734,16.834153 16.637757,16.81824 16.637938,16.780739 16.637938,16.63794 16.780737,16.63794 16.818238,16.637758 16.834152,16.637735 16.871505,16.637702 16.922064,16.637773 16.924436,16.637572" style="fill: white" /><polygon type="contour" points="15.661461,16.63801 15.698399,16.638014 15.761098,16.638017 15.845859,16.637938 15.857179,16.637938 15.857179,16.780742 15.761098,16.780818 15.698399,16.780812 15.661461,16.78081 15.467654,16.780636 15.428816,16.7807 15.428816,16.637902" style="fill: white" /><polygon type="contour" points="14.150098,16.637687 14.302195,16.638013 14.716048,16.63825 14.716048,16.717033 14.716302,16.781004 14.716157,16.816026 14.715862,16.832114 14.716137,16.870311 14.715914,16.873157 14.715914,16.922065 14.71607,16.924437 14.716087,16.970788 14.530337,16.971226 14.383324,16.971226 14.38315,16.875821 14.199073,16.875942 14.063058,16.875853 14.08156,16.660427 14.079512,16.63764" style="fill: white" /><polygon type="contour" points="14.716303,15.428818 14.716303,15.47547 14.716021,15.661462 14.715945,15.698399 14.716173,15.7611 14.716429,15.844812 14.716429,15.857193 14.651929,15.8572 14.081017,15.8572 14.086316,15.774404 14.086718,15.761099 14.08588,15.6984 14.086435,15.661463 14.082748,15.529456 14.085919,15.428631 14.328,15.428631" style="fill: white" /><polygon type="contour" points="15.844812,15.428614 15.857191,15.428614 15.856989,15.591855 15.856989,15.761099 15.857179,15.84586 15.857179,15.85718 15.761098,15.856991 15.591854,15.856991 15.428612,15.857193 15.4286,15.761099 15.428666,15.661462 15.428816,15.47547 15.428816,15.428818 15.661462,15.428666 15.761098,15.428601" style="fill: white" /><polygon type="contour" points="16.780634,15.467656 16.780808,15.661462 16.78081,15.6984 16.780816,15.761099 16.780747,15.847035 16.78074,15.85718 16.637936,15.85718 16.638014,15.761099 16.63801,15.6984 16.638007,15.661462 16.637818,15.471892 16.637898,15.428818 16.780698,15.428818" style="fill: white" /><polygon type="contour" points="16.876102,14.183778 16.875824,14.276444 16.875832,14.293844 16.875819,14.383183 16.971224,14.383326 16.971224,14.530338 16.970786,14.716088 16.922063,14.715915 16.870309,14.716139 16.832109,14.715863 16.816022,14.71616 16.780999,14.716304 16.699581,14.716304 16.638248,14.716051 16.638066,14.298215 16.638136,14.079108 16.684539,14.07901 16.875866,14.069319" style="fill: white" /><polygon type="contour" points="15.661462,14.086437 15.698399,14.085882 15.761098,14.08672 15.841976,14.080646 15.857199,14.081019 15.857199,14.651931 15.857192,14.716431 15.761099,14.716175 15.698398,14.715947 15.661462,14.716021 15.475467,14.716304 15.428816,14.716304 15.428816,14.196964 15.428749,14.077856 15.484231,14.075441" style="fill: white" /><polygon type="contour" points="14.716353,14.071596 14.716412,14.217136 14.716139,14.303989 14.716302,14.716303 14.299066,14.716412 14.085326,14.715892 14.086154,14.696515 14.086418,14.690688 14.082379,14.282826 14.152279,14.281518 14.165807,14.280857 14.221642,14.277653 14.270269,14.270272 14.277651,14.221645 14.280854,14.165808 14.281516,14.152282 14.282824,14.082382 14.387198,14.064555" style="fill: white" /><polygon type="contour" points="14.716087,2.160915 14.715914,2.209638 14.716137,2.261392 14.715862,2.299589 14.716156,2.315678 14.716302,2.3507 14.716302,2.432118 14.716048,2.493452 14.302195,2.493691 14.150098,2.494015 14.079512,2.494063 14.081539,2.471375 14.062951,2.255796 14.199072,2.255762 14.383183,2.255879 14.383324,2.160478 14.530336,2.160478" style="fill: white" /><polygon type="contour" points="15.857192,4.994985 15.857179,5.050659 15.841976,5.051058 15.761098,5.044984 15.698399,5.045823 15.661461,5.045267 15.428749,5.053848 15.428749,4.556813 15.428816,4.4154 15.661462,4.415682 15.698398,4.415757 15.761099,4.415527 15.844811,4.415272 15.857192,4.415272" style="fill: white" /><polygon type="contour" points="16.816022,4.415545 16.83211,4.41584 16.870309,4.415566 16.873158,4.41579 16.922063,4.41579 16.924435,4.415632 16.970786,4.415616 16.971224,4.601365 16.971224,4.748377 16.875817,4.748554 16.876116,4.932085 16.876059,5.069059 16.686429,5.047468 16.638136,5.052596 16.638066,4.833489 16.638248,4.415653 16.71703,4.415653 16.780999,4.4154" style="fill: white" /><polygon type="contour" points="16.780816,3.370601 16.78081,3.433301 16.780808,3.470239 16.780634,3.664046 16.780698,3.702885 16.637898,3.702885 16.637818,3.65981 16.638007,3.470239 16.63801,3.433301 16.638013,3.370601 16.637936,3.285844 16.637936,3.274523 16.78074,3.274523" style="fill: white" /><polygon type="contour" points="16.97112,2.160582 16.97112,2.196891 16.970684,2.391535 16.970786,2.494117 16.922063,2.493931 16.873157,2.493931 16.871506,2.494002 16.834152,2.493968 16.818238,2.493946 16.780737,2.493764 16.637939,2.493764 16.637939,2.418225 16.637938,2.350964 16.637757,2.313463 16.637734,2.29755 16.6377,2.260196 16.637772,2.209638 16.637569,2.207265 16.637517,2.160984 16.812541,2.160578 16.813477,2.160417" style="fill: white" /><polygon type="contour" points="15.847034,2.350955 15.857179,2.350964 15.857179,2.493763 15.761098,2.493684 15.648503,2.493693 15.648503,2.493705 15.47189,2.493882 15.428816,2.493802 15.428816,2.351 15.661461,2.350892 15.698399,2.350889 15.761098,2.350885" style="fill: white" /><polygon type="contour" points="15.591853,3.274711 15.761098,3.274711 15.845859,3.274523 15.857179,3.274523 15.856989,3.370602 15.856989,3.539846 15.857191,3.70309 15.761098,3.703102 15.661462,3.703036 15.475467,3.702885 15.428816,3.702885 15.428665,3.470238 15.4286,3.370601 15.428612,3.28689 15.428612,3.274509" style="fill: white" /><polygon type="contour" points="14.716429,3.27451 14.716429,3.286891 14.716173,3.370601 14.715945,3.433302 14.71602,3.470238 14.716303,3.656233 14.716303,3.702885 14.196961,3.702885 14.08592,3.703072 14.082748,3.602246 14.086435,3.470239 14.08588,3.433302 14.084951,3.424297 14.086316,3.357298 14.08059,3.289726 14.081017,3.274503 14.651929,3.274503" style="fill: white" /><polygon type="contour" points="14.716302,4.4154 14.716139,4.827713 14.716412,4.914566 14.716353,5.060106 14.387198,5.067148 14.282824,5.049322 14.281517,4.97942 14.280854,4.965894 14.277651,4.910059 14.27027,4.861427 14.221642,4.854051 14.152279,4.850184 14.082379,4.848876 14.086419,4.441015 14.085326,4.41581 14.299065,4.415292" style="fill: white" /><polygon type="contour" points="5.046374,4.41581 5.045547,4.435186 5.045281,4.441015 5.049319,4.848876 4.979418,4.850184 4.965893,4.850845 4.910056,4.854051 4.861424,4.861427 4.854048,4.910059 4.850843,4.965894 4.850182,4.97942 4.848874,5.049321 4.7445,5.067147 4.415345,5.060106 4.415287,4.914566 4.41556,4.827713 4.415398,4.4154 4.832635,4.415292" style="fill: white" /><polygon type="contour" points="5.045383,3.357299 5.044982,3.370602 5.045821,3.433301 5.045266,3.470239 5.048953,3.602246 5.04578,3.703072 4.8037,3.703072 4.415398,3.702885 4.415398,3.656233 4.41568,3.470238 4.415755,3.433302 4.415525,3.370601 4.41527,3.286891 4.41527,3.27451 4.479769,3.274503 5.050682,3.274503" style="fill: white" /><polygon type="contour" points="4.748552,2.255879 4.837858,2.255868 4.855257,2.255875 4.947925,2.255596 5.062384,2.255835 5.058344,2.347532 5.046431,2.434629 5.052988,2.470637 5.052187,2.494062 4.981601,2.494015 4.829504,2.493691 4.415652,2.493452 4.415652,2.41467 4.415398,2.3507 4.415543,2.315678 4.415839,2.299589 4.415564,2.261392 4.415787,2.258546 4.415787,2.209638 4.41563,2.207266 4.415614,2.160915 4.601364,2.160478 4.748375,2.160478" style="fill: white" /><polygon type="contour" points="2.493684,3.370602 2.493687,3.433301 2.493691,3.470239 2.49388,3.659811 2.4938,3.702885 2.350998,3.702885 2.351062,3.664046 2.35089,3.470239 2.350887,3.433301 2.350884,3.370601 2.350953,3.284668 2.350961,3.274523 2.493762,3.274523" style="fill: white" /><polygon type="contour" points="2.319156,2.160578 2.494183,2.160984 2.493929,2.209638 2.493929,2.258546 2.494,2.260196 2.493967,2.29755 2.493944,2.313464 2.493762,2.350963 2.493762,2.493764 2.350963,2.493764 2.313462,2.493946 2.297548,2.493967 2.260195,2.494002 2.209635,2.493931 2.207265,2.494132 2.160914,2.494117 2.161015,2.391536 2.16058,2.19689 2.16058,2.160582 2.31822,2.160417" style="fill: white" /><polygon type="contour" points="3.433299,2.350889 3.470237,2.350892 3.664044,2.351064 3.702883,2.351 3.702883,2.493802 3.483195,2.493699 3.483195,2.493693 3.3706,2.493685 3.285842,2.493763 3.274521,2.493763 3.274521,2.350964 3.370599,2.350884" style="fill: white" /><polygon type="contour" points="3.7031,3.370601 3.703034,3.470238 3.702883,3.656233 3.702883,3.702885 3.470236,3.703036 3.3706,3.703102 3.286888,3.70309 3.274508,3.70309 3.27471,3.539846 3.27471,3.370601 3.274521,3.285844 3.274521,3.274523 3.370599,3.274711 3.539845,3.274711 3.703089,3.27451" style="fill: white" /><polygon type="contour" points="3.370599,4.415528 3.4333,4.415757 3.470236,4.415682 3.656231,4.4154 3.702883,4.4154 3.702883,4.934739 3.70295,5.053848 3.647466,5.056262 3.470237,5.045267 3.433299,5.045823 3.3706,5.044984 3.289723,5.051058 3.274501,5.050684 3.274501,4.479772 3.274508,4.415272" style="fill: white" /><polygon type="contour" points="2.49345,4.415652 2.493636,4.833489 2.493566,5.052596 2.445272,5.047468 2.255641,5.069059 2.255584,4.932085 2.255877,4.748521 2.160476,4.748377 2.160476,4.601365 2.160914,4.415616 2.209635,4.41579 2.26139,4.415566 2.299588,4.41584 2.315677,4.415545 2.350699,4.4154 2.432116,4.4154" style="fill: white" /><polygon type="contour" points="2.346427,14.069519 2.493566,14.079108 2.493636,14.298215 2.49345,14.716051 2.414669,14.716051 2.350699,14.716305 2.315677,14.716159 2.299587,14.715863 2.26139,14.716139 2.258544,14.715915 2.209636,14.715915 2.207265,14.716071 2.160913,14.716088 2.160476,14.530338 2.160476,14.383326 2.255877,14.38315 2.255866,14.293843 2.255873,14.276444 2.255595,14.183778 2.255834,14.069319" style="fill: white" /><polygon type="contour" points="3.702883,16.637902 3.702883,16.7807 3.664044,16.780636 3.637774,16.780534 3.433299,16.780812 3.3706,16.780818 3.284666,16.780749 3.274521,16.780742 3.274521,16.637938 3.3706,16.638017 3.433299,16.638014 3.470237,16.638011 3.659808,16.637822" style="fill: white" /><polygon type="contour" points="5.046432,16.697074 5.062384,16.875868 4.947926,16.876104 4.855255,16.875827 4.837858,16.875834 4.748519,16.875821 4.748375,16.971226 4.601364,16.971226 4.415614,16.97079 4.415787,16.922066 4.415564,16.870311 4.415839,16.832114 4.415543,16.816025 4.415398,16.781003 4.415398,16.699583 4.415652,16.63825 4.829504,16.638013 4.981602,16.637687 5.052179,16.63766" style="fill: white" /><polygon type="contour" points="5.048953,15.529456 5.045266,15.661463 5.045821,15.6984 5.046748,15.707405 5.045383,15.774405 5.05111,15.841977 5.050682,15.8572 4.479769,15.8572 4.41527,15.857193 4.41527,15.844812 4.415525,15.7611 4.415755,15.698399 4.415679,15.661462 4.415398,15.47547 4.415398,15.428818 4.934739,15.428818 5.04578,15.428631" style="fill: white" /><polygon type="contour" points="4.848874,14.082382 4.850182,14.152282 4.850843,14.165808 4.854049,14.221646 4.861426,14.270272 4.910057,14.277653 4.979417,14.281518 5.04932,14.282826 5.045281,14.690688 5.046373,14.715892 4.832635,14.716412 4.415398,14.716304 4.41556,14.303989 4.415287,14.217136 4.415345,14.071597 4.7445,14.064555" style="fill: white" /><polygon type="contour" points="3.70295,14.57489 3.702883,14.716304 3.470236,14.716021 3.4333,14.715946 3.370599,14.716175 3.286889,14.716431 3.274508,14.716431 3.274508,14.136718 3.274521,14.081044 3.289723,14.080646 3.3706,14.08672 3.433299,14.085882 3.470237,14.086436 3.70295,14.077855" style="fill: white" /><polygon type="contour" points="3.470236,15.428666 3.656231,15.428818 3.702883,15.428818 3.703034,15.661463 3.7031,15.761099 3.703089,15.844813 3.703089,15.857193 3.539844,15.856991 3.370599,15.856991 3.285842,15.85718 3.274521,15.85718 3.27471,15.761099 3.27471,15.591855 3.274508,15.428613 3.370599,15.4286" style="fill: white" /><polygon type="contour" points="2.49388,15.471892 2.493691,15.661462 2.493687,15.6984 2.493684,15.7611 2.493762,15.845859 2.493762,15.85718 2.350962,15.85718 2.350884,15.761099 2.350888,15.698399 2.35089,15.661462 2.351062,15.467655 2.350998,15.428818 2.371034,15.428817 2.493799,15.428817" style="fill: white" /><polygon type="contour" points="2.209636,16.637773 2.258544,16.637773 2.260194,16.637702 2.297548,16.637736 2.313462,16.637758 2.350963,16.63794 2.493762,16.63794 2.493762,16.78074 2.493944,16.818239 2.493967,16.834153 2.493999,16.871507 2.493929,16.922066 2.494131,16.924438 2.494183,16.97072 2.319156,16.971126 2.31822,16.971288 2.16058,16.971122 2.16058,16.934812 2.161015,16.740168 2.160914,16.637587" style="fill: white" />
</svg>
