<svg width="19.131698" height="19.131699">
<polygon type="contour" points="10.913902,10.485179 11.001467,10.485311 11.001467,10.495401 11.00149,10.587366 11.00149,10.914361 11.001467,11.002147 10.992922,11.002147 10.913902,11.00195 10.587364,11.001492 10.485309,11.001469 10.485326,10.994853 10.485177,10.913904 10.485162,10.739253 10.487956,10.527564 10.488466,10.52229 10.488968,10.48897 10.527561,10.487958 10.739252,10.485165" style="fill: white" /><polygon type="contour" points="10.587365,11.838654 10.913902,11.838654 11.001467,11.838608 11.001467,11.845438 11.001772,11.980012 11.001772,12.068396 11.001466,12.154234 10.913901,12.154039 10.779177,12.154039 10.779177,12.269606 10.779378,12.309052 10.779378,12.326007 10.716021,12.327253 10.667907,12.327854 10.662855,12.328309 10.633827,12.32911 10.610183,12.329739 10.605894,12.33002 10.564046,12.332292 10.487297,12.327313 10.484889,12.042499 10.484889,12.03962 10.484969,11.980012 10.485309,11.838608 10.495399,11.838608" style="fill: white" /><polygon type="contour" points="12.154232,11.838607 12.153853,11.980013 12.153853,12.032547 12.245554,12.032553 12.288261,12.0332 12.326413,12.033657 12.327581,12.073916 12.334516,12.33452 12.188659,12.330248 12.149242,12.328822 12.032579,12.325915 12.032546,12.300507 12.032546,12.153854 11.98001,12.153854 11.838606,12.154234 11.838606,12.150212 11.838238,12.068396 11.838238,11.980012 11.838606,11.838608 11.845436,11.838608 11.98001,11.83824 12.068394,11.83824" style="fill: white" /><polygon type="contour" points="12.327311,10.4873 12.32911,10.633829 12.328307,10.662857 12.327852,10.668338 12.326957,10.716404 12.325932,10.779336 12.291716,10.779474 12.287174,10.779413 12.287174,10.679379 12.159852,10.679379 12.159852,10.778355 12.154036,10.778259 12.154036,10.913903 12.154232,11.001469 12.150209,11.001469 12.068394,11.001774 11.98001,11.001774 11.838606,11.001469 11.838606,10.992925 11.838652,10.913903 11.838652,10.587366 11.838606,10.485311 11.844147,10.485326 11.98001,10.484971 12.039617,10.484891 12.042496,10.484891" style="fill: white" /><polygon type="contour" points="12.327581,7.057787 12.326413,7.098047 12.288261,7.098503 12.245554,7.09915 12.153853,7.09915 12.153853,7.15169 12.154232,7.293096 12.150209,7.293096 12.068394,7.293462 11.98001,7.293462 11.838606,7.293096 11.838606,7.286265 11.838238,7.151691 11.838238,7.063307 11.838605,6.97747 11.980011,6.977849 12.032546,6.977849 12.032546,6.831197 12.032579,6.80579 12.149242,6.802881 12.18866,6.801452 12.334517,6.797184" style="fill: white" /><polygon type="contour" points="12.154232,8.130233 12.153476,8.352525 12.269605,8.352525 12.308823,8.352369 12.32595,8.352358 12.327852,8.463366 12.328307,8.468848 12.329109,8.497874 12.330019,8.525807 12.332291,8.567654 12.327312,8.644403 12.256991,8.644095 12.042496,8.646812 12.039616,8.646812 11.980011,8.646733 11.838606,8.646393 11.838606,8.636301 11.838652,8.544336 11.838652,8.217797 11.838606,8.130233 11.845435,8.130233 11.980011,8.12993 12.068394,8.12993" style="fill: white" /><polygon type="contour" points="11.001467,8.1381 11.00149,8.217342 11.00149,8.544336 11.001467,8.646393 10.994851,8.646376 10.913901,8.646525 10.739252,8.646538 10.527561,8.643743 10.522288,8.643235 10.488968,8.642732 10.489198,8.612588 10.488466,8.609413 10.487956,8.604138 10.485162,8.39245 10.485177,8.217797 10.485309,8.130233 10.4954,8.130233 10.587365,8.130209 10.913901,8.129753 11.001467,8.129558" style="fill: white" /><polygon type="contour" points="10.662854,6.803394 10.668336,6.803849 10.716021,6.80445 10.779378,6.805696 10.779177,6.862096 10.779177,6.977665 10.913901,6.977665 11.001467,6.977469 11.001467,6.981491 11.001772,7.063307 11.001772,7.151691 11.001467,7.293096 10.992923,7.293096 10.913901,7.29305 10.587365,7.293051 10.485309,7.293096 10.485324,7.287554 10.484969,7.151691 10.484889,7.092083 10.484889,7.089204 10.487297,6.804389 10.633827,6.802591" style="fill: white" /><polygon type="contour" points="6.943039,6.801453 6.982456,6.802881 7.099121,6.80579 7.099154,6.831197 7.099154,6.977849 7.151689,6.977849 7.293094,6.977469 7.293094,6.981491 7.293461,7.063307 7.293461,7.15169 7.293094,7.293096 7.286263,7.293096 7.15169,7.293462 7.063306,7.293462 6.977467,7.293096 6.977847,7.151691 6.977847,7.099156 6.886097,7.09915 6.843047,7.098503 6.804782,7.098047 6.803508,7.057787 6.797183,6.797184" style="fill: white" /><polygon type="contour" points="8.644402,6.804389 8.64681,7.089204 8.64681,7.092084 8.646731,7.15169 8.646391,7.293096 8.6363,7.293096 8.544334,7.293051 8.217796,7.293051 8.130232,7.293096 8.130232,7.286266 8.129929,7.15169 8.129929,7.063308 8.130232,6.977469 8.217797,6.977665 8.352524,6.977665 8.352067,6.921949 8.352067,6.862095 8.352322,6.805696 8.415679,6.80445 8.463364,6.803849 8.468846,6.803394 8.497873,6.802591 8.516291,6.802074 8.51687,6.802038 8.525804,6.801682 8.567653,6.79941" style="fill: white" /><polygon type="contour" points="8.646391,8.130233 8.646374,8.136848 8.646523,8.217797 8.646537,8.392449 8.64273,8.642732 8.612587,8.642503 8.609411,8.643234 8.604136,8.643743 8.392447,8.646538 8.217796,8.646525 8.130232,8.646393 8.130232,8.636301 8.130208,8.544336 8.130208,8.217798 8.130232,8.130233 8.138775,8.130233 8.217797,8.130209 8.544335,8.130209" style="fill: white" /><polygon type="contour" points="7.293094,8.130233 7.293094,8.138775 7.293049,8.217798 7.293049,8.544336 7.293094,8.646393 7.287553,8.646378 7.151689,8.646733 7.092083,8.646812 7.089203,8.646812 6.804388,8.644403 6.802589,8.497874 6.803392,8.468848 6.803847,8.463792 6.804743,8.415299 6.805765,8.352369 6.844873,8.352282 6.87077,8.352069 6.977663,8.352069 6.977663,8.217798 6.977467,8.130233 6.981489,8.130233 7.063305,8.12993 7.15169,8.12993" style="fill: white" /><polygon type="contour" points="7.15169,10.484971 7.293094,10.485311 7.293094,10.495401 7.293049,10.587367 7.293049,10.913904 7.293094,11.001469 7.286263,11.001469 7.15169,11.001774 7.063306,11.001774 6.977467,11.001469 6.978221,10.779179 6.862093,10.779179 6.822874,10.779336 6.814212,10.779347 6.805747,10.779347 6.803846,10.668338 6.803392,10.662857 6.802588,10.633828 6.80168,10.605898 6.799408,10.564049 6.804388,10.4873 6.874708,10.487608 7.089203,10.484891 7.092082,10.484891" style="fill: white" /><polygon type="contour" points="8.64273,10.48897 8.643742,10.527563 8.646537,10.739254 8.646523,10.913904 8.646391,11.001469 8.6363,11.001469 8.544334,11.001492 8.217797,11.001492 8.130232,11.001469 8.130232,10.992925 8.130208,10.913903 8.130208,10.587366 8.130232,10.485311 8.136847,10.485328 8.217796,10.485179 8.392447,10.485165" style="fill: white" /><polygon type="contour" points="8.217797,11.838654 8.544335,11.838654 8.646391,11.838608 8.646376,11.844149 8.646731,11.980013 8.64681,12.039619 8.64681,12.042499 8.644402,12.327314 8.497874,12.329111 8.468845,12.328308 8.46379,12.327854 8.41568,12.327254 8.352323,12.326007 8.352524,12.269606 8.352524,12.154039 8.217797,12.154039 8.130232,12.154234 8.130232,12.150212 8.129929,12.068396 8.129929,11.980012 8.130232,11.838608 8.138775,11.838608" style="fill: white" /><polygon type="contour" points="7.293094,11.838608 7.293094,11.845437 7.293461,11.980012 7.293461,12.068397 7.293094,12.154234 7.151689,12.153854 7.099154,12.153854 7.099154,12.300507 7.099121,12.325915 6.982457,12.328821 6.943038,12.330249 6.797183,12.33452 6.803508,12.073916 6.804782,12.033657 6.843047,12.0332 6.886097,12.032553 6.977847,12.032553 6.977847,11.980012 6.977467,11.838608 6.981489,11.838608 7.063305,11.83824 7.151689,11.83824" style="fill: white" />
</svg>
