<svg width="19.131698" height="19.131699">
<polygon type="contour" points="10.553998,8.520762 10.555011,8.520648 10.571561,8.520174 10.612722,8.51898 10.611201,8.570216 10.610412,8.618274 10.610207,8.641235 10.610421,8.810465 10.472733,8.810465 10.331061,8.81029 10.321413,8.81029 10.322718,8.639587 10.322718,8.588351 10.322741,8.552167 10.323127,8.548824 10.324146,8.518505" style="fill: white" /><polygon type="contour" points="10.443416,9.069068 10.443711,9.115024 10.443349,9.162415 10.443348,9.163356 10.443348,9.163537 10.320853,9.163537 10.320853,9.163339 10.32085,9.162414 10.320917,9.069068 10.320926,9.066391 10.443414,9.066391" style="fill: white" /><polygon type="contour" points="10.611406,9.436307 10.613434,9.56611 10.611406,9.69532 10.61148,9.711102 10.320732,9.711102 10.320732,9.430255 10.320709,9.420602 10.61148,9.420602" style="fill: white" /><polygon type="contour" points="10.610208,10.490469 10.610412,10.513429 10.611201,10.561487 10.612722,10.612724 10.571562,10.611531 10.555012,10.611056 10.553998,10.610942 10.324146,10.6132 10.322742,10.579537 10.322742,10.546988 10.322718,10.543352 10.321413,10.325544 10.321413,10.321415 10.33106,10.321415 10.472734,10.321238 10.61042,10.321238" style="fill: white" /><polygon type="contour" points="9.163534,9.968363 9.163528,9.969288 9.163528,10.064748 9.163537,10.065889 9.163336,10.065889 9.162412,10.065882 9.069067,10.065306 9.06639,10.065311 9.065814,9.969489 9.065821,9.969288 9.065814,9.968167 9.066954,9.968173 9.162411,9.968173 9.163534,9.968167" style="fill: white" /><polygon type="contour" points="9.163537,10.320855 9.163534,10.321105 9.163534,10.443349 9.162412,10.44335 9.115023,10.443713 9.069067,10.443418 9.066828,10.443418 9.06639,10.443416 9.06639,10.320928 9.066872,10.320928 9.069067,10.320919 9.162412,10.320852" style="fill: white" /><polygon type="contour" points="9.711101,10.610595 9.625484,10.611006 9.613986,10.611316 9.589966,10.612358 9.565592,10.612792 9.517248,10.611317 9.505806,10.611007 9.4206,10.610325 9.4206,10.320733 9.711101,10.320733" style="fill: white" /><polygon type="contour" points="10.062631,10.320919 10.065309,10.320928 10.065309,10.443415 10.06263,10.443417 10.016677,10.443713 9.969287,10.44335 9.968166,10.44335 9.968166,10.320855 9.968363,10.320855 9.969287,10.320852" style="fill: white" /><polygon type="contour" points="10.443349,9.969289 10.443711,10.016679 10.443416,10.062632 10.443416,10.064872 10.443414,10.065311 10.320926,10.065311 10.320926,10.064828 10.320917,10.062633 10.32085,9.969288 10.320853,9.968167 10.443348,9.968167" style="fill: white" /><polygon type="contour" points="10.065309,9.711109 10.064828,9.711102 9.968166,9.711102 9.968166,9.420602 10.064828,9.420602 10.065309,9.420595" style="fill: white" /><polygon type="contour" points="10.065309,9.966501 10.065304,9.968727 10.065304,10.062632 10.065309,10.065311 10.064826,10.065311 10.06263,10.065306 9.968725,10.065306 9.966027,10.065311 9.966091,10.062632 9.968172,9.969289 9.968166,9.968167 9.968362,9.968167 9.969288,9.968173 10.06263,9.966093 10.065309,9.96603" style="fill: white" /><polygon type="contour" points="9.711101,10.06483 9.711108,10.065311 9.4206,10.065311 9.4206,9.968167 9.711101,9.968167" style="fill: white" /><polygon type="contour" points="9.711101,9.711102 9.4206,9.711102 9.4206,9.420602 9.711101,9.420602" style="fill: white" /><polygon type="contour" points="9.711101,9.066871 9.711101,9.163537 9.4206,9.163537 9.4206,9.066871 9.420593,9.066391 9.711108,9.066391" style="fill: white" /><polygon type="contour" points="9.969287,9.065821 10.06263,9.066396 10.065309,9.066391 10.065309,9.162508 10.065304,9.162976 10.065309,9.165674 10.06263,9.16561 9.969288,9.163531 9.968166,9.163537 9.968166,9.16334 9.968172,9.162415 9.968172,9.066955 9.968166,9.065815 9.968363,9.065815" style="fill: white" /><polygon type="contour" points="10.062631,8.688284 10.06487,8.688284 10.065309,8.688286 10.065309,8.810777 10.064826,8.810777 10.062631,8.810785 9.969287,8.810852 9.968166,8.810849 9.968166,8.688352 9.969288,8.688351 10.016676,8.687991" style="fill: white" /><polygon type="contour" points="9.613986,8.520387 9.625484,8.520697 9.711101,8.521109 9.711101,8.810992 9.4206,8.810992 9.4206,8.521109 9.505806,8.520697 9.517247,8.520388 9.541152,8.519347 9.565501,8.518911" style="fill: white" /><polygon type="contour" points="9.162412,8.688351 9.163353,8.688352 9.163534,8.688352 9.163534,8.81085 9.163336,8.81085 9.162412,8.810853 9.069067,8.810785 9.06639,8.810776 9.06639,8.688286 9.069067,8.688284 9.115022,8.687991" style="fill: white" /><polygon type="contour" points="8.808959,8.552167 8.808959,8.584715 8.808982,8.588351 8.810288,8.80616 8.810288,8.81029 8.800639,8.81029 8.658966,8.810465 8.521278,8.810465 8.521492,8.641234 8.521287,8.618274 8.520498,8.570216 8.518978,8.51898 8.560138,8.520174 8.576688,8.520648 8.577702,8.520762 8.807555,8.518505" style="fill: white" /><polygon type="contour" points="8.810775,9.066873 8.810783,9.069068 8.81085,9.162415 8.810848,9.163537 8.68835,9.163537 8.688349,9.162414 8.687989,9.115025 8.688282,9.069068 8.688282,9.066829 8.688284,9.066391 8.810775,9.066391" style="fill: white" /><polygon type="contour" points="9.163528,9.066955 9.163528,9.162414 9.163534,9.163537 9.163337,9.163537 9.162412,9.163531 9.066954,9.163531 9.065814,9.163537 9.065814,9.163339 9.06582,9.162415 9.066395,9.069069 9.06639,9.066391 9.066872,9.066391 9.069068,9.066395 9.162411,9.065822 9.163534,9.065815" style="fill: white" /><polygon type="contour" points="9.06687,9.420602 9.163534,9.420602 9.163534,9.711102 9.06687,9.711102 9.06639,9.711109 9.06639,9.420595" style="fill: white" /><polygon type="contour" points="8.810967,9.701448 8.81099,9.711102 8.52022,9.711102 8.520294,9.695396 8.518266,9.565593 8.520294,9.436383 8.52022,9.420602 8.810967,9.420602" style="fill: white" /><polygon type="contour" points="8.810848,9.968364 8.810851,9.969288 8.810783,10.062632 8.810774,10.065311 8.688284,10.065311 8.688282,10.062633 8.687989,10.016678 8.688349,9.969289 8.68835,9.968347 8.68835,9.968167 8.810848,9.968167" style="fill: white" /><polygon type="contour" points="8.80064,10.321415 8.810288,10.321415 8.808983,10.492116 8.808983,10.543352 8.808959,10.579536 8.808573,10.582878 8.807555,10.6132 8.577701,10.610942 8.576687,10.611056 8.560137,10.611531 8.518978,10.612724 8.520498,10.561487 8.521287,10.513429 8.521492,10.490469 8.521278,10.321238 8.658965,10.321238" style="fill: white" />
</svg>
