<svg width="19.131698" height="19.131699">
<polygon type="contour" points="3.558339,6.666013 3.578564,6.666013 3.578509,6.759839 3.578518,6.766908 3.577543,6.766908 3.578593,6.863984 3.578843,7.6184 3.578939,7.680859 3.578886,7.967461 3.578863,8.045202 3.578816,8.212391 3.376053,8.19186 3.340932,8.197993 3.340958,8.055749 3.340949,7.986922 3.341216,7.840301 3.341139,7.790768 3.340533,6.858292 3.435018,6.858569 3.436394,6.678346 3.436366,6.665413" style="fill: white" /><polygon type="contour" points="3.57624,6.107401 3.57857,6.107378 3.579152,6.107384 3.579154,6.107481 3.578869,6.122547 3.578722,6.212088 3.436242,6.212088 3.436101,6.211233 3.435963,6.203129 3.436145,6.177916 3.436017,6.171401 3.43605,6.170236 3.43607,6.122546 3.435918,6.118224 3.436312,6.106936 3.458625,6.106746" style="fill: white" /><polygon type="contour" points="3.435977,5.500507 3.532394,5.500507 3.578959,5.50046 3.57855,5.794781 3.579161,5.812376 3.578772,5.835604 3.578766,5.842724 3.530236,5.842302 3.435953,5.842697 3.436361,5.834119 3.340966,5.833669 3.328111,5.833613 3.326316,5.833581 3.245558,5.833459 3.245558,5.590391 3.24577,5.500473 3.32976,5.500772 3.418977,5.500385" style="fill: white" /><polygon type="contour" points="6.122546,3.436072 6.212087,3.436243 6.212406,3.501079 6.212406,3.578724 6.170093,3.579014 6.122546,3.578871 6.107479,3.579156 6.107382,3.579154 6.107376,3.578572 6.107388,3.577111 6.106295,3.435945 6.118222,3.43592" style="fill: white" /><polygon type="contour" points="5.833611,3.328114 5.833667,3.340967 5.833574,3.436214 5.842999,3.436062 5.842999,3.522925 5.839631,3.578845 5.843483,3.578919 5.843481,3.57906 5.838474,3.579097 5.780265,3.578754 5.500466,3.578625 5.500466,3.505819 5.500505,3.435978 5.500384,3.418978 5.500769,3.414072 5.500769,3.329761 5.500497,3.325673 5.50047,3.245772 5.590388,3.24556 5.833457,3.24556" style="fill: white" /><polygon type="contour" points="4.961841,3.57878 4.691866,3.579108 4.629557,3.579092 4.629557,3.460571 4.629556,3.43628 4.691867,3.436308 4.961841,3.435979" style="fill: white" /><polygon type="contour" points="4.38101,3.43628 4.381064,3.460571 4.381064,3.579092 4.237853,3.578644 4.185325,3.578644 4.185325,3.435844 4.23223,3.435805" style="fill: white" /><polygon type="contour" points="3.507921,3.245724 3.579088,3.24589 3.578651,3.329762 3.578651,3.414073 3.578773,3.416918 3.578756,3.435957 3.578756,3.578758 3.435956,3.578758 3.416916,3.578775 3.32976,3.578652 3.325672,3.579 3.24577,3.578973 3.245945,3.402137 3.245729,3.305766 3.245729,3.245731 3.506373,3.245459" style="fill: white" /><polygon type="contour" points="3.578642,4.237854 3.57909,4.381065 3.557665,4.381012 3.436278,4.381012 3.436291,4.347742 3.435842,4.185327 3.578642,4.185327" style="fill: white" /><polygon type="contour" points="3.460569,4.629558 3.57909,4.629559 3.578733,4.854288 3.578779,4.961842 3.435978,4.961842 3.436307,4.691868 3.436278,4.629557" style="fill: white" /><polygon type="contour" points="4.38101,4.912795 4.38103,4.962585 4.344406,4.962585 4.185469,4.962493 4.185729,4.691868 4.185644,4.629559 4.34774,4.629559 4.38101,4.629558" style="fill: white" /><polygon type="contour" points="4.34774,4.185646 4.381064,4.185646 4.381064,4.347742 4.38101,4.381012 4.214993,4.381012 4.185644,4.381065 4.185325,4.237855 4.185325,4.185327" style="fill: white" /><polygon type="contour" points="4.962583,4.344408 4.962583,4.381032 4.691867,4.381032 4.629556,4.381012 4.629556,4.214994 4.629557,4.185646 4.691866,4.185731 4.962491,4.185471" style="fill: white" /><polygon type="contour" points="4.961841,4.845354 4.961841,4.961841 4.691866,4.962585 4.629516,4.962585 4.629516,4.691868 4.629556,4.629558 4.912793,4.629558 4.962583,4.629517" style="fill: white" /><polygon type="contour" points="4.96238,6.122546 4.961571,6.212106 4.740994,6.212188 4.629317,6.212188 4.629402,6.109179 4.629393,6.107022 4.709871,6.107233 4.962307,6.105968" style="fill: white" /><polygon type="contour" points="4.962966,5.812703 4.961962,5.823488 4.962508,5.843283 4.762883,5.843001 4.630336,5.843411 4.629468,5.799617 4.629516,5.500609 4.845352,5.50028 4.96184,5.50028" style="fill: white" /><polygon type="contour" points="4.381373,5.832489 4.38152,5.842121 4.308721,5.842121 4.185805,5.843001 4.185849,5.828282 4.185478,5.805338 4.185469,5.500679 4.242504,5.500679 4.38103,5.500609" style="fill: white" /><polygon type="contour" points="4.310141,6.107147 4.381436,6.106811 4.381634,6.11872 4.381274,6.212188 4.278603,6.212024 4.185549,6.212024 4.185549,6.15908 4.186004,6.122546 4.186257,6.116007 4.185825,6.106702" style="fill: white" /><polygon type="contour" points="4.381333,6.759839 4.381438,6.798532 4.381344,7.910096 4.381269,7.95393 4.38126,8.216253 4.229668,8.216794 4.185512,8.196292 4.18538,7.95452 4.185346,7.910662 4.185991,6.858433 4.186306,6.858433 4.185806,6.678955 4.185771,6.666013 4.381071,6.666013" style="fill: white" /><polygon type="contour" points="4.961738,6.759839 4.961538,6.816441 4.961854,6.883524 4.962009,6.891893 4.961994,6.933667 4.961994,7.470227 4.962053,7.502167 4.961863,7.622409 4.961746,7.644565 4.962295,8.021247 4.96146,8.091004 4.961469,8.093136 4.961558,8.166493 4.878712,8.158546 4.62952,8.173471 4.629708,8.092644 4.629464,7.839565 4.629623,7.744249 4.629588,7.720276 4.629588,6.892175 4.629581,6.872328 4.629273,6.859643 4.628932,6.848514 4.629573,6.678956 4.62956,6.666013 4.96206,6.666013" style="fill: white" /><polygon type="contour" points="5.75132,6.759839 5.751356,6.766908 5.751293,6.766908 5.753578,7.466086 5.753738,7.515064 5.754125,7.646576 5.754282,7.697995 5.754851,7.921906 5.754834,7.932056 5.754949,8.091003 5.75499,8.103351 5.755261,8.150742 5.670164,8.166687 5.500326,8.217343 5.500262,7.95393 5.500218,7.910096 5.500593,6.858433 5.500654,6.858433 5.500665,6.679368 5.500666,6.666013 5.724036,6.665326 5.751709,6.665326" style="fill: white" /><polygon type="contour" points="5.726499,6.107067 5.750054,6.107107 5.750127,6.109179 5.750047,6.122547 5.750067,6.212408 5.500542,6.212408 5.500511,6.170095 5.50037,6.122546 5.500424,6.108487 5.5004,6.106436" style="fill: white" /><polygon type="contour" points="6.108486,5.500425 6.212406,5.500544 6.211963,5.701253 6.211963,5.750101 6.122546,5.750049 6.109177,5.750129 6.107107,5.750056 6.106481,5.526333 6.106397,5.500414" style="fill: white" /><polygon type="contour" points="5.743704,5.500357 5.759156,5.500275 5.766616,5.500403 5.774002,5.500528 5.780265,5.500254 5.782599,5.500594 5.786389,5.500475 5.794777,5.500666 5.812373,5.500661 5.836539,5.500196 5.842155,5.500299 5.841821,5.729513 5.841813,5.749098 5.820782,5.748892 5.748831,5.748832 5.748891,5.820784 5.749097,5.841815 5.72951,5.841823 5.500296,5.842156 5.500193,5.836541 5.500659,5.812376 5.50087,5.796174 5.500473,5.78639 5.50054,5.784231 5.500425,5.781454 5.500354,5.736538 5.50065,5.721208 5.500484,5.70658 5.500284,5.692908 5.500412,5.680744 5.500535,5.675911 5.500342,5.670616 5.500501,5.66754 5.500506,5.500507 5.660094,5.500362 5.661491,5.500358 5.667126,5.50031 5.674965,5.500576 5.686276,5.500371 5.699162,5.500488 5.713455,5.50036 5.716418,5.500526 5.728279,5.5004 5.732781,5.50019" style="fill: white" /><polygon type="contour" points="5.843282,4.63001 5.843282,4.96251 5.823486,4.961964 5.500278,4.961842 5.500607,4.691868 5.500607,4.629517 5.823485,4.629464" style="fill: white" /><polygon type="contour" points="5.840522,4.185774 5.842494,4.185782 5.842494,4.381082 5.840522,4.381075 5.500607,4.381032 5.500678,4.242506 5.500678,4.185471" style="fill: white" /><polygon type="contour" points="6.212186,4.315445 6.212186,4.381276 6.108497,4.381668 6.107989,4.381664 6.107798,4.339723 6.106367,4.204669 6.106367,4.186002 6.108485,4.18604 6.122546,4.186005 6.212022,4.185551" style="fill: white" /><polygon type="contour" points="6.212186,4.629319 6.212186,4.740995 6.212103,4.961573 6.1659,4.961573 6.122545,4.962382 6.105967,4.962309 6.105967,4.629663 6.122545,4.62926" style="fill: white" /><polygon type="contour" points="6.868385,4.629467 6.872326,4.629582 6.892172,4.62959 7.720272,4.62959 7.744247,4.629624 7.825839,4.629528 7.839564,4.629466 8.092644,4.629709 8.17347,4.629522 8.158545,4.878713 8.166491,4.96156 8.093135,4.961471 8.091003,4.961461 8.021245,4.962297 7.644564,4.961748 7.502167,4.962055 7.470224,4.961996 6.933665,4.961996 6.891891,4.962011 6.859643,4.961775 6.766929,4.958865 6.766933,4.961714 6.72944,4.961843 6.666013,4.962061 6.666013,4.629562 6.759839,4.629239 6.858432,4.629294 6.858432,4.629237" style="fill: white" /><polygon type="contour" points="7.903703,3.340784 7.949008,3.340831 8.205979,3.340888 8.191985,3.51393 8.212388,3.578818 8.045199,3.578865 7.967458,3.578888 7.680858,3.578941 7.618399,3.578845 6.858432,3.578535 6.858432,3.578452 6.678955,3.578585 6.666012,3.578566 6.665412,3.456593 6.665412,3.436368 6.759839,3.435711 6.858432,3.435836 6.858432,3.340535" style="fill: white" /><polygon type="contour" points="7.954518,4.185382 8.19629,4.185514 8.19583,4.31436 8.216251,4.381262 7.953928,4.381271 7.910094,4.381348 6.79683,4.381439 6.678955,4.381107 6.666013,4.381073 6.666013,4.185773 6.759839,4.186034 6.858432,4.186299 6.858432,4.185991 7.910659,4.185348" style="fill: white" /><polygon type="contour" points="7.953928,5.500264 8.217341,5.500328 8.166685,5.670165 8.150667,5.755407 7.921905,5.754853 7.875591,5.754734 7.659842,5.754184 7.515063,5.75374 7.466085,5.753581 6.858432,5.751596 6.858432,5.750925 6.677104,5.751783 6.665325,5.751711 6.665325,5.724038 6.666013,5.500668 6.759839,5.500662 6.858432,5.500649 6.858432,5.500595 7.910094,5.50022" style="fill: white" /><polygon type="contour" points="14.889195,5.500679 14.94623,5.500679 14.94622,5.805338 14.945591,5.827494 14.945577,5.842607 14.833994,5.841901 14.75044,5.842121 14.750325,5.832489 14.750502,5.811558 14.75067,5.500609" style="fill: white" /><polygon type="contour" points="14.502184,5.500609 14.501022,5.833866 14.501365,5.843411 14.378004,5.843001 14.169799,5.843302 14.169737,5.823489 14.16986,5.50028 14.286346,5.50028" style="fill: white" /><polygon type="contour" points="14.442705,6.107278 14.476682,6.107135 14.502098,6.107138 14.50211,6.108619 14.502384,6.212188 14.390706,6.212188 14.17013,6.212104 14.17013,6.1659 14.169319,6.122546 14.169394,6.105968" style="fill: white" /><polygon type="contour" points="14.945444,6.116007 14.945694,6.122546 14.946151,6.212024 14.816256,6.212188 14.750427,6.212188 14.750318,6.122546 14.750064,6.118719 14.750262,6.106811 14.821558,6.107147 14.945875,6.106702" style="fill: white" /><polygon type="contour" points="14.945667,6.759839 14.945401,6.858433 14.945709,6.858433 14.946355,7.910662 14.94632,7.95452 14.946188,8.196292 14.817342,8.195832 14.750441,8.216253 14.750432,7.95393 14.750354,7.910096 14.750264,6.797539 14.750593,6.678955 14.750629,6.666013 14.945929,6.666013" style="fill: white" /><polygon type="contour" points="14.502463,6.759839 14.502407,6.858433 14.502464,6.858433 14.502234,6.868388 14.50212,6.872328 14.502112,6.892175 14.502112,7.720276 14.502077,7.744249 14.502174,7.825841 14.502237,7.839565 14.501993,8.092645 14.50218,8.173471 14.252987,8.158546 14.170142,8.166493 14.17023,8.093135 14.170239,8.091004 14.169404,8.021247 14.169954,7.644564 14.169647,7.502167 14.169706,7.470227 14.169706,6.933667 14.169691,6.891893 14.169925,6.859644 14.172834,6.76693 14.169985,6.766933 14.169684,6.679368 14.16964,6.666013 14.50214,6.666013" style="fill: white" /><polygon type="contour" points="13.631033,6.666013 13.63104,6.759839 13.63104,6.858433 13.631108,6.858433 13.631482,7.910095 13.631438,7.95393 13.631374,8.217343 13.461535,8.166687 13.376294,8.150669 13.37685,7.921906 13.376968,7.875593 13.377518,7.659844 13.377963,7.515063 13.37812,7.466087 13.380107,6.858433 13.380775,6.858433 13.379921,6.677106 13.379993,6.665327 13.407665,6.665327" style="fill: white" /><polygon type="contour" points="13.629735,6.107385 13.631045,6.107381 13.631043,6.107481 13.631157,6.212408 13.430447,6.211965 13.381599,6.211965 13.38165,6.122547 13.38194,6.109737 13.381991,6.107028" style="fill: white" /><polygon type="contour" points="13.403419,5.5004 13.415281,5.500526 13.418245,5.500359 13.430773,5.500447 13.444441,5.50033 13.45579,5.500536 13.464574,5.50031 13.47021,5.500359 13.631194,5.500507 13.631199,5.66754 13.631358,5.670616 13.631165,5.675911 13.631288,5.680744 13.631416,5.692909 13.631215,5.706579 13.63105,5.721209 13.631344,5.736538 13.631273,5.781452 13.631158,5.78423 13.631227,5.78639 13.630831,5.796175 13.630968,5.811557 13.631506,5.836541 13.631404,5.842156 13.402189,5.841823 13.382604,5.841815 13.382809,5.820783 13.38287,5.748832 13.310917,5.748892 13.289884,5.749098 13.289876,5.729514 13.289546,5.500298 13.29516,5.500195 13.319326,5.500662 13.336922,5.500666 13.345311,5.500475 13.347471,5.500543 13.387985,5.500567 13.398919,5.50019" style="fill: white" /><polygon type="contour" points="13.023213,5.500425 13.025266,5.500401 13.024633,5.726501 13.024592,5.750055 13.022521,5.750129 13.009154,5.750049 12.919294,5.750069 12.919294,5.500544 12.961605,5.500513 13.009155,5.500372" style="fill: white" /><polygon type="contour" points="12.273269,5.500595 12.273269,5.500656 12.452331,5.500667 12.465688,5.500668 12.466375,5.724038 12.466375,5.751712 12.371862,5.751323 12.364794,5.751359 12.364794,5.751297 11.665615,5.75358 11.616638,5.75374 11.471857,5.754184 11.256108,5.754734 11.058368,5.754921 11.043754,5.754955 10.980959,5.755263 10.965015,5.670396 10.912166,5.500824 11.08664,5.500897 11.177772,5.500853 11.554835,5.500512 11.621393,5.50039" style="fill: white" /><polygon type="contour" points="11.041553,4.629012 11.292136,4.629466 11.387451,4.629625 11.411427,4.62959 12.239527,4.62959 12.259373,4.629582 12.272057,4.629275 12.282926,4.628933 12.452744,4.629575 12.465688,4.629562 12.465688,4.962062 12.371861,4.961738 12.364768,4.961715 12.364768,4.955232 12.247935,4.963538 12.239503,4.963959 12.197417,4.964705 11.661476,4.961996 11.629533,4.962055 11.509293,4.961867 11.487136,4.961748 11.233899,4.962112 11.039765,4.961722 10.956193,4.961831 10.983056,4.679886 10.977934,4.628993 11.035555,4.628881" style="fill: white" /><polygon type="contour" points="12.273269,3.435021 12.453355,3.436396 12.466288,3.436368 12.465688,3.558341 12.465688,3.578566 12.371862,3.578511 12.364794,3.57852 12.364794,3.578513 11.227996,3.578784 11.182692,3.578832 10.916677,3.578667 10.950155,3.386225 10.933707,3.340934 11.07595,3.340913 11.144777,3.340951 11.291399,3.341219 11.340765,3.341142 12.273269,3.340535" style="fill: white" /><polygon type="contour" points="12.465688,4.381072 12.371861,4.381336 12.343064,4.381413 11.517262,4.381657 11.45469,4.381532 11.164842,4.381325 11.082734,4.381353 10.921254,4.381372 10.984866,4.191659 10.982522,4.185874 11.010064,4.185873 11.023758,4.185879 11.123583,4.185807 11.151189,4.185776 12.273269,4.185992 12.273269,4.186306 12.452744,4.185809 12.465688,4.185773" style="fill: white" /><polygon type="contour" points="13.631022,4.242506 13.631091,4.381032 13.291178,4.381075 13.289206,4.381082 13.289206,4.185782 13.291178,4.185774 13.631022,4.185471" style="fill: white" /><polygon type="contour" points="13.631091,4.629517 13.631423,4.845354 13.631423,4.961842 13.327479,4.96287 13.308214,4.961964 13.298641,4.961619 13.288701,4.961707 13.288701,4.822922 13.288418,4.63001 13.308214,4.629464" style="fill: white" /><polygon type="contour" points="13.025733,4.629663 13.025733,4.962308 13.009155,4.962381 12.919294,4.963869 12.919514,4.740995 12.919514,4.629319 13.009154,4.62926" style="fill: white" /><polygon type="contour" points="13.009155,4.186006 13.023214,4.18604 13.025303,4.186036 13.025303,4.381336 13.023213,4.381346 12.919514,4.381276 12.919678,4.278605 12.919678,4.185551 12.972621,4.185551" style="fill: white" /><polygon type="contour" points="13.024764,3.436314 13.024954,3.458627 13.024779,3.53414 13.025356,3.566819 13.025266,3.578901 13.023214,3.578925 13.009154,3.578871 12.919294,3.578724 12.919614,3.513888 12.919614,3.436243 12.961463,3.436052 13.009154,3.436072 13.013475,3.435919" style="fill: white" /><polygon type="contour" points="13.63123,3.245772 13.630932,3.329762 13.631316,3.418978 13.631194,3.435978 13.631194,3.532395 13.631241,3.57896 13.335526,3.578753 13.32014,3.578581 13.296099,3.578772 13.288979,3.578767 13.289401,3.530237 13.289005,3.435954 13.297582,3.436361 13.298032,3.340968 13.29809,3.328113 13.298121,3.326318 13.298241,3.24556 13.541311,3.24556" style="fill: white" /><polygon type="contour" points="15.88597,3.245731 15.88597,3.305766 15.885754,3.402137 15.885929,3.578973 15.801939,3.578652 15.71763,3.578652 15.714784,3.578775 15.695744,3.578758 15.552944,3.578758 15.552944,3.435957 15.552927,3.416918 15.55305,3.329762 15.552701,3.325673 15.552612,3.24589 15.623778,3.245724 15.625324,3.245459" style="fill: white" /><polygon type="contour" points="14.946375,3.578643 14.783959,3.579092 14.750637,3.579092 14.750637,3.46057 14.75069,3.43628 14.783959,3.436293 14.946375,3.435844" style="fill: white" /><polygon type="contour" points="14.439833,3.436308 14.502145,3.43628 14.502143,3.46057 14.502143,3.579092 14.439834,3.579108 14.16986,3.57878 14.16986,3.435979" style="fill: white" /><polygon type="contour" points="14.439833,4.185731 14.502143,4.185646 14.502143,4.347742 14.502145,4.381012 14.218905,4.381012 14.169117,4.381032 14.169208,4.242507 14.169208,4.185471" style="fill: white" /><polygon type="contour" points="14.502145,4.629558 14.502145,4.912795 14.502184,4.962585 14.286347,4.961842 14.169859,4.961842 14.169117,4.691868 14.169117,4.629517 14.439833,4.629517" style="fill: white" /><polygon type="contour" points="14.946055,4.629559 14.945968,4.691869 14.946231,4.962493 14.787293,4.962585 14.75067,4.962585 14.75067,4.691868 14.75069,4.629558 14.916705,4.629558" style="fill: white" /><polygon type="contour" points="14.946055,4.347743 14.946055,4.381065 14.783959,4.381065 14.75069,4.381012 14.75069,4.214995 14.750637,4.185646 14.893846,4.185327 14.946375,4.185327" style="fill: white" /><polygon type="contour" points="15.695899,4.232232 15.695423,4.381012 15.671132,4.381065 15.552611,4.381065 15.553057,4.237855 15.553057,4.185327 15.69586,4.185327" style="fill: white" /><polygon type="contour" points="15.695394,4.691867 15.695721,4.961842 15.55292,4.961842 15.552594,4.691868 15.552611,4.629559 15.671131,4.629558 15.695424,4.629557" style="fill: white" /><polygon type="contour" points="15.717631,5.500772 15.801939,5.500772 15.806028,5.500499 15.88593,5.500473 15.886142,5.590391 15.886142,5.833459 15.803587,5.833613 15.790732,5.833668 15.695337,5.834119 15.695745,5.842697 15.552831,5.842098 15.552938,5.891545 15.552937,5.891545 15.552203,5.817242 15.553055,5.788214 15.553076,5.500468 15.625881,5.500468 15.695722,5.500507 15.712723,5.500384" style="fill: white" /><polygon type="contour" points="15.59756,6.106922 15.673074,6.106746 15.695387,6.106935 15.695782,6.118224 15.695629,6.122546 15.695457,6.212088 15.630621,6.212408 15.552976,6.212408 15.552687,6.170095 15.552831,6.122547 15.552776,6.108487 15.552786,6.106398 15.56488,6.106286" style="fill: white" /><polygon type="contour" points="15.695991,6.759839 15.695865,6.858433 15.791165,6.858433 15.790657,6.863533 15.79056,7.790935 15.790483,7.840301 15.790456,8.178868 15.790761,8.187985 15.790768,8.197993 15.591267,8.220081 15.552885,8.212391 15.552837,8.045202 15.552813,7.967461 15.552761,7.680859 15.552857,7.618401 15.553166,6.858433 15.553247,6.858433 15.553117,6.678955 15.553136,6.666013 15.675109,6.665413 15.695335,6.665413" style="fill: white" /><polygon type="contour" points="15.790813,10.925722 15.790869,11.182693 15.790917,11.228135 15.791165,12.273413 15.696681,12.273135 15.695306,12.453357 15.695335,12.46629 15.57336,12.46569 15.553136,12.46569 15.553189,12.371864 15.55318,12.364797 15.553187,12.364797 15.552918,11.227997 15.552869,11.182693 15.553033,10.916678 15.72995,10.916678" style="fill: white" /><polygon type="contour" points="14.940039,10.984868 14.945826,10.982524 14.945827,11.010066 14.945822,11.023759 14.945895,11.123586 14.945925,11.151192 14.945709,12.273272 14.945392,12.273272 14.945893,12.452747 14.945929,12.46569 14.750629,12.46569 14.750368,12.371864 14.750289,12.342726 14.750044,11.517263 14.750169,11.454692 14.750376,11.164843 14.750349,11.082737 14.750329,10.921255" style="fill: white" /><polygon type="contour" points="14.451814,10.983058 14.502709,10.977936 14.502822,11.035557 14.502691,11.041555 14.502237,11.292137 14.502077,11.387454 14.502112,11.411429 14.502112,12.239528 14.50212,12.259375 14.502427,12.272061 14.502767,12.28319 14.502127,12.452747 14.50214,12.46569 14.16964,12.46569 14.169961,12.371864 14.169985,12.364771 14.170385,12.364771 14.169847,12.248179 14.169691,12.23981 14.169706,12.198036 14.169706,11.661476 14.169647,11.629536 14.169836,11.509294 14.169953,11.487139 14.169589,11.2339 14.169982,11.039768 14.169872,10.956195" style="fill: white" /><polygon type="contour" points="13.630805,11.086641 13.630849,11.177772 13.631188,11.554837 13.631312,11.621395 13.631108,12.273272 13.631046,12.273272 13.631034,12.452333 13.631033,12.46569 13.407663,12.466377 13.379992,12.466377 13.38038,12.371865 13.380344,12.364797 13.380406,12.364797 13.37812,11.665616 13.377963,11.61664 13.377518,11.471859 13.376969,11.25611 13.376781,11.058371 13.376747,11.043757 13.376439,10.980962 13.461304,10.965017 13.630879,10.912167" style="fill: white" /><polygon type="contour" points="11.227995,15.552919 12.273268,15.553167 12.273269,15.553248 12.452745,15.553118 12.465688,15.553137 12.466288,15.675111 12.466288,15.695336 12.371862,15.695992 12.27341,15.695866 12.27341,15.791168 12.268416,15.790658 11.340932,15.790562 11.291399,15.790485 11.144778,15.790752 11.07595,15.790743 10.933707,15.790769 10.950155,15.745477 10.916677,15.553033 11.182691,15.552871" style="fill: white" /><polygon type="contour" points="14.502143,15.552611 14.502143,15.671133 14.502145,15.695425 14.439833,15.695395 14.16986,15.695724 14.16986,15.552923 14.439834,15.552596" style="fill: white" /><polygon type="contour" points="14.893846,15.553058 14.946375,15.553058 14.946375,15.695861 14.899469,15.6959 14.75069,15.695424 14.750637,15.671133 14.750637,15.552612" style="fill: white" /><polygon type="contour" points="15.88593,15.55273 15.885754,15.729567 15.88597,15.825938 15.88597,15.885972 15.625325,15.886246 15.623779,15.885978 15.552612,15.885814 15.553049,15.801941 15.553049,15.717632 15.552927,15.714785 15.552944,15.695745 15.552944,15.552947 15.695744,15.552947 15.714784,15.55293 15.801939,15.553052 15.806028,15.552704" style="fill: white" /><polygon type="contour" points="15.695394,14.439835 15.695424,14.502147 15.671131,14.502146 15.552611,14.502145 15.552965,14.277414 15.55292,14.169861 15.69572,14.169861" style="fill: white" /><polygon type="contour" points="15.574036,14.750692 15.695424,14.750693 15.69541,14.783963 15.695858,14.946377 15.553057,14.946377 15.552611,14.783961 15.552611,14.750638" style="fill: white" /><polygon type="contour" points="14.946375,14.893848 14.946375,14.946377 14.78396,14.946058 14.750637,14.946058 14.750637,14.783961 14.75069,14.750692 14.916705,14.750692 14.946054,14.750638" style="fill: white" /><polygon type="contour" points="14.502145,14.750692 14.502145,14.916708 14.502143,14.946058 14.439833,14.945972 14.169208,14.946233 14.169117,14.787295 14.169117,14.750672 14.439833,14.750672" style="fill: white" /><polygon type="contour" points="14.502184,14.439835 14.502145,14.502146 14.218906,14.502146 14.169117,14.502186 14.16986,14.286349 14.16986,14.16986 14.439833,14.169119 14.502184,14.169119" style="fill: white" /><polygon type="contour" points="14.946231,14.169211 14.945969,14.439836 14.946055,14.502145 14.78396,14.502145 14.75069,14.502146 14.75069,14.218907 14.75067,14.169119 14.787293,14.169119" style="fill: white" /><polygon type="contour" points="15.617812,12.919616 15.695456,12.919616 15.695651,12.961465 15.695628,13.009157 15.695783,13.013476 15.695388,13.024765 15.673074,13.024955 15.59756,13.024781 15.564881,13.025358 15.5528,13.025268 15.552776,13.023216 15.552832,13.009157 15.552977,12.919296" style="fill: white" /><polygon type="contour" points="15.601463,13.289402 15.695745,13.289007 15.695337,13.297584 15.790732,13.298035 15.803587,13.298091 15.805381,13.298123 15.886142,13.298242 15.886142,13.541311 15.88593,13.631232 15.801939,13.630933 15.712724,13.631319 15.695721,13.631196 15.599306,13.631196 15.55274,13.631244 15.553236,13.347472 15.552949,13.335526 15.55312,13.320144 15.552928,13.296097 15.552933,13.288979" style="fill: white" /><polygon type="contour" points="14.945591,13.304209 14.94622,13.326365 14.946231,13.631025 14.889195,13.631025 14.75067,13.631094 14.75075,13.29933 14.75071,13.289128 14.838368,13.289402 14.945577,13.289096" style="fill: white" /><polygon type="contour" points="14.853096,12.91968 14.946151,12.91968 14.946151,12.972623 14.945694,13.009156 14.945444,13.015697 14.945875,13.025001 14.821559,13.024557 14.750262,13.024893 14.750063,13.012984 14.750425,12.919516" style="fill: white" /><polygon type="contour" points="14.502296,13.022524 14.502306,13.024681 14.421827,13.024471 14.169394,13.025736 14.169319,13.009156 14.17013,12.919598 14.390705,12.919516 14.502384,12.919516" style="fill: white" /><polygon type="contour" points="14.362432,13.289109 14.501999,13.288749 14.502232,13.332085 14.502184,13.631094 14.286346,13.631424 14.16986,13.631424 14.168733,13.319001 14.169737,13.308215 14.169191,13.288421" style="fill: white" /><polygon type="contour" points="13.631187,12.961607 13.631329,13.009156 13.631043,13.024218 13.631046,13.024317 13.412124,13.024728 13.381991,13.024676 13.38194,13.021966 13.381651,13.009157 13.381634,12.919296 13.631157,12.919296" style="fill: white" /><polygon type="contour" points="13.631507,13.295162 13.63104,13.319329 13.630831,13.335527 13.631227,13.345312 13.631157,13.347472 13.631275,13.35025 13.631344,13.395166 13.63105,13.410495 13.631215,13.425124 13.631416,13.438794 13.631288,13.450959 13.631165,13.455792 13.631358,13.461087 13.631199,13.464161 13.631194,13.631196 13.471604,13.631341 13.465626,13.631122 13.456733,13.631127 13.445422,13.631333 13.432537,13.631216 13.418244,13.631344 13.415281,13.631178 13.40342,13.631304 13.39892,13.631513 13.387995,13.631347 13.372543,13.631429 13.365082,13.631302 13.357696,13.631176 13.351434,13.63145 13.349097,13.631107 13.34531,13.63123 13.336922,13.631036 13.319326,13.631041 13.295161,13.631509 13.289546,13.631406 13.289876,13.402189 13.289884,13.382605 13.310917,13.38281 13.38287,13.382872 13.382809,13.31092 13.382604,13.289886 13.402189,13.289878 13.631404,13.289548" style="fill: white" /><polygon type="contour" points="13.009155,13.381652 13.021965,13.381941 13.024675,13.381992 13.025219,13.60537 13.025303,13.63129 13.023213,13.63128 13.009154,13.631332 12.919294,13.63116 12.919737,13.430447 12.919737,13.381602" style="fill: white" /><polygon type="contour" points="13.025733,14.169395 13.025733,14.502041 13.009154,14.502444 12.919514,14.502385 12.919514,14.390708 12.919597,14.170131 12.965799,14.170131 13.009155,14.16932" style="fill: white" /><polygon type="contour" points="13.631423,14.169861 13.631091,14.439836 13.631091,14.502186 13.298641,14.502584 13.288701,14.502497 13.288701,14.372254 13.2884,14.169801 13.308214,14.169738" style="fill: white" /><polygon type="contour" points="13.631091,14.750671 13.631022,14.889196 13.631022,14.946233 13.316193,14.945839 13.291178,14.945931 13.289206,14.945923 13.289206,14.75062 13.291178,14.750628 13.316193,14.74988" style="fill: white" /><polygon type="contour" points="13.351434,15.552949 13.631234,15.553079 13.631234,15.625883 13.631194,15.695724 13.631316,15.712724 13.630932,15.717632 13.630932,15.801941 13.631201,15.80603 13.63123,15.885932 13.541311,15.886144 13.298241,15.886144 13.29809,15.80359 13.298033,15.790734 13.298123,15.695489 13.288701,15.695639 13.288701,15.608775 13.290107,15.55353 13.251317,15.552916 13.26356,15.552824 13.27572,15.552732 13.288215,15.552638 13.292487,15.552606" style="fill: white" /><polygon type="contour" points="13.024318,15.552547 13.024322,15.553129 13.024309,15.55459 13.025405,15.695757 13.013475,15.695783 13.009154,15.695632 12.919614,15.69546 12.919294,15.630624 12.919294,15.55298 12.961604,15.55269 13.009154,15.552833 13.024217,15.552545" style="fill: white" /><polygon type="contour" points="13.025333,14.927036 13.025303,14.945669 13.023214,14.945666 13.009155,14.945698 12.919678,14.946152 12.919514,14.816258 12.919514,14.750428 13.023213,14.750356 13.025333,14.750333" style="fill: white" /><polygon type="contour" points="12.343684,14.75029 12.452745,14.750596 12.465688,14.750631 12.465688,14.94593 12.371862,14.94567 12.273269,14.945404 12.273269,14.945712 11.151189,14.945928 11.123584,14.945898 11.023757,14.945825 11.010064,14.94583 10.982522,14.945829 10.984866,14.940043 10.921254,14.750331 11.082735,14.750351 11.164842,14.750379 11.45469,14.750172 11.517263,14.750045" style="fill: white" /><polygon type="contour" points="11.487137,14.169956 11.629533,14.169649 11.661476,14.169708 12.198035,14.169708 12.239808,14.169693 12.272057,14.169927 12.364771,14.172837 12.364767,14.169988 12.45233,14.169688 12.465688,14.169641 12.465688,14.502141 12.371862,14.502465 12.273269,14.502409 12.273269,14.502466 12.263313,14.502235 12.259373,14.502122 12.239527,14.502115 11.411427,14.502115 11.387451,14.502079 11.30586,14.502176 11.292135,14.502238 11.041553,14.502693 11.035555,14.502823 11.026686,14.502809 10.979985,14.502809 10.977934,14.50271 10.945265,14.225835 10.956193,14.169873 11.039766,14.169983 11.233898,14.169591" style="fill: white" /><polygon type="contour" points="11.02835,13.376711 11.040696,13.376753 11.199645,13.376868 11.209795,13.376851 11.433705,13.377419 11.485124,13.377576 11.500474,13.377594 12.265815,13.380089 12.272058,13.380105 12.273269,13.380108 12.273269,13.380778 12.454595,13.379919 12.466375,13.379993 12.466375,13.407664 12.465688,13.631035 12.371861,13.631041 12.364768,13.631041 12.364768,13.630317 12.267717,13.631157 11.621393,13.631313 11.554835,13.63119 11.177771,13.63085 11.08664,13.630807 10.912165,13.63088 10.965015,13.461305 10.980959,13.37644" style="fill: white" /><polygon type="contour" points="8.166685,13.461536 8.217341,13.631377 7.953929,13.63144 7.910094,13.631484 6.858432,13.631109 6.858432,13.631046 6.679368,13.631035 6.666013,13.631035 6.665325,13.407665 6.665325,13.379993 6.759838,13.380381 6.766907,13.380345 6.766907,13.380407 7.466084,13.378122 7.515063,13.377963 7.646575,13.377576 7.697994,13.377419 7.921904,13.376851 7.932054,13.376868 8.091003,13.376753 8.10335,13.376711 8.150741,13.376439" style="fill: white" /><polygon type="contour" points="7.819604,15.552812 8.213149,15.552915 8.231599,15.742759 8.205979,15.790816 7.949008,15.790872 7.903704,15.790919 6.858432,15.791168 6.858432,15.696681 6.678345,15.695306 6.665412,15.695335 6.666013,15.573363 6.666013,15.553137 6.759839,15.55319 6.766907,15.553181 6.766907,15.554139 6.863983,15.553108 7.618399,15.552858 7.680858,15.552762" style="fill: white" /><polygon type="contour" points="7.910094,14.750355 7.953928,14.750433 8.216251,14.750442 8.216792,14.902031 8.196289,14.94619 7.954518,14.946321 7.910659,14.946356 6.858432,14.945713 6.858432,14.945397 6.678955,14.945895 6.666013,14.94593 6.666013,14.750632 6.759839,14.750369 6.79849,14.750265" style="fill: white" /><polygon type="contour" points="7.470224,14.169708 7.502166,14.169649 7.622407,14.169837 7.644564,14.169956 8.021244,14.169405 8.091003,14.17024 8.093135,14.170231 8.166491,14.170143 8.158544,14.252987 8.17347,14.50218 8.092644,14.501993 7.839563,14.502238 7.744248,14.50208 7.720272,14.502115 6.892172,14.502114 6.872326,14.502121 6.859642,14.502429 6.848513,14.502769 6.678956,14.502129 6.666013,14.502142 6.666013,14.169642 6.759839,14.169964 6.766933,14.169988 6.766933,14.17646 6.883763,14.168168 6.892197,14.167744 6.934282,14.166998" style="fill: white" /><polygon type="contour" points="6.122545,13.381652 6.212406,13.381635 6.212406,13.63116 6.170093,13.631189 6.122546,13.631332 6.107479,13.631046 6.107382,13.631049 6.107067,13.405202 6.107107,13.381649 6.109178,13.381575" style="fill: white" /><polygon type="contour" points="5.72951,13.289878 5.749097,13.289886 5.748891,13.310919 5.748831,13.382872 5.820782,13.38281 5.841813,13.382605 5.841821,13.40219 5.842155,13.631406 5.836538,13.631509 5.812373,13.631041 5.796172,13.630831 5.786389,13.63123 5.784229,13.63116 5.743712,13.631137 5.732782,13.631513 5.728279,13.631304 5.716418,13.631178 5.713455,13.631344 5.699163,13.631216 5.687258,13.631373 5.675909,13.631167 5.667126,13.631394 5.661491,13.631345 5.500506,13.631196 5.500501,13.464161 5.500342,13.461087 5.500534,13.455792 5.500411,13.450959 5.500284,13.438794 5.500484,13.425124 5.50065,13.410494 5.500354,13.395166 5.500424,13.35025 5.50054,13.347473 5.500474,13.345313 5.500665,13.336924 5.500733,13.320144 5.500193,13.295162 5.500296,13.289548" style="fill: white" /><polygon type="contour" points="5.701251,12.919739 5.750099,12.919739 5.750048,13.009156 5.749759,13.021966 5.74971,13.024676 5.526331,13.025221 5.5004,13.025268 5.500424,13.023216 5.50037,13.009156 5.500542,12.919296" style="fill: white" /><polygon type="contour" points="5.670396,10.965017 5.755261,10.980962 5.75499,11.028352 5.754949,11.0407 5.754834,11.199647 5.754851,11.209797 5.754282,11.433707 5.754126,11.485127 5.754107,11.500475 5.751612,12.265819 5.751597,12.272061 5.751593,12.273272 5.750921,12.273272 5.751782,12.454598 5.751709,12.466377 5.724036,12.466377 5.500666,12.46569 5.50066,12.371864 5.50066,12.364771 5.5014,12.364771 5.500544,12.26772 5.500388,11.621395 5.50051,11.554837 5.500852,11.177773 5.500896,11.086641 5.500822,10.912167" style="fill: white" /><polygon type="contour" points="4.961829,10.956195 4.96172,11.039767 4.96211,11.233901 4.961746,11.487138 4.962054,11.629536 4.961994,11.661476 4.961994,12.198036 4.96201,12.23981 4.961774,12.272061 4.958864,12.364774 4.961713,12.364771 4.962013,12.452333 4.96206,12.46569 4.62956,12.46569 4.629237,12.371864 4.629292,12.273272 4.629236,12.273272 4.629466,12.263315 4.62958,12.259375 4.629588,12.239528 4.629588,11.411429 4.629622,11.387454 4.629526,11.305862 4.629464,11.292137 4.62901,11.041555 4.628879,11.035556 4.628892,11.026689 4.628892,10.979987 4.628991,10.977935 4.905866,10.945267" style="fill: white" /><polygon type="contour" points="4.381349,11.082737 4.381323,11.164844 4.38153,11.454691 4.381655,11.517263 4.381411,12.344012 4.381107,12.452747 4.381071,12.46569 4.185771,12.46569 4.186032,12.371865 4.186298,12.273272 4.185991,12.273272 4.185775,11.151193 4.185805,11.123586 4.185877,11.02376 4.185871,11.010066 4.185872,10.982524 4.191658,10.984868 4.381369,10.921255" style="fill: white" /><polygon type="contour" points="3.578831,11.182693 3.578782,11.227997 3.578533,12.273271 3.578448,12.273271 3.578583,12.452747 3.578564,12.465689 3.456589,12.46629 3.436366,12.46629 3.435709,12.371865 3.435834,12.273272 3.340532,12.273272 3.340782,11.227997 3.34083,11.182693 3.340887,10.925722 3.505418,10.925722 3.578667,10.916678" style="fill: white" /><polygon type="contour" points="3.579013,12.961607 3.578869,13.009156 3.579154,13.024218 3.579152,13.024319 3.57857,13.024323 3.57624,13.0243 3.458625,13.024955 3.436312,13.024765 3.435918,13.013476 3.436069,13.009157 3.436242,12.919616 3.501077,12.919296 3.578722,12.919296" style="fill: white" /><polygon type="contour" points="3.579019,13.324939 3.579006,13.349845 3.578624,13.631236 3.505818,13.631236 3.435978,13.631196 3.418976,13.631319 3.41407,13.630933 3.32976,13.630933 3.325672,13.631203 3.24577,13.631232 3.245558,13.541311 3.245558,13.298242 3.328112,13.29809 3.340965,13.298035 3.436387,13.298127 3.435953,13.289007 3.575718,13.288907" style="fill: white" /><polygon type="contour" points="3.578922,13.272057 3.578536,13.272066 3.578859,13.24536" style="fill: white" /><polygon type="contour" points="4.297704,13.289803 4.381325,13.289615 4.381374,13.299214 4.381198,13.320144 4.38103,13.631094 4.242504,13.631025 4.185469,13.631025 4.185478,13.326365 4.186109,13.30421 4.186123,13.289097" style="fill: white" /><polygon type="contour" points="4.381381,13.009157 4.381635,13.012984 4.381437,13.024893 4.31014,13.024557 4.185825,13.025001 4.186257,13.015696 4.186004,13.009156 4.185549,12.91968 4.315443,12.919516 4.381274,12.919516" style="fill: white" /><polygon type="contour" points="4.961571,12.919598 4.961571,12.965802 4.96238,13.009156 4.962307,13.025736 4.688995,13.024426 4.655018,13.024569 4.629603,13.024566 4.62959,13.023084 4.629317,12.919516 4.740994,12.919516" style="fill: white" /><polygon type="contour" points="4.753693,13.288701 4.961899,13.288401 4.961962,13.308214 4.96184,13.631424 4.845352,13.631424 4.629516,13.631094 4.630678,13.297835 4.630334,13.288292" style="fill: white" /><polygon type="contour" points="4.845351,14.169861 4.96184,14.169861 4.962583,14.439835 4.962583,14.502186 4.691867,14.502186 4.629556,14.502146 4.629556,14.218908 4.629516,14.169119" style="fill: white" /><polygon type="contour" points="5.843282,14.501694 5.813359,14.501412 5.500607,14.502186 5.500278,14.286348 5.500278,14.169861 5.794724,14.169594 5.823486,14.169737 5.843282,14.169193" style="fill: white" /><polygon type="contour" points="6.212186,14.390708 6.212186,14.502385 6.122545,14.502444 6.105967,14.502041 6.105967,14.169395 6.122545,14.16932 6.212406,14.167835" style="fill: white" /><polygon type="contour" points="6.212186,14.750428 6.212022,14.853097 6.212022,14.946151 6.159077,14.946152 6.122546,14.945697 6.107989,14.946024 6.107989,14.75004 6.108497,14.750036" style="fill: white" /><polygon type="contour" points="5.842494,14.945923 5.840521,14.945931 5.815507,14.945839 5.500678,14.946232 5.500678,14.889196 5.500607,14.750671 5.840521,14.750628 5.842494,14.75062" style="fill: white" /><polygon type="contour" points="6.122546,15.552833 6.212087,15.55266 6.212087,15.69546 6.203127,15.695425 6.177914,15.695557 6.170234,15.695653 6.122545,15.695632 6.118222,15.695784 6.106934,15.695391 6.106745,15.673076 6.107399,15.555457 6.107376,15.553129 6.107382,15.552548 6.10748,15.552545" style="fill: white" /><polygon type="contour" points="5.794777,15.553153 5.811556,15.553121 5.835602,15.552929 5.842722,15.552935 5.8423,15.601464 5.842695,15.695748 5.833574,15.695315 5.833667,15.790734 5.83361,15.80359 5.833579,15.805385 5.833457,15.886144 5.590388,15.886145 5.50047,15.885933 5.500769,15.801941 5.500384,15.712723 5.500506,15.695723 5.500506,15.599308 5.500459,15.552743" style="fill: white" /><polygon type="contour" points="4.381064,15.671132 4.38101,15.695425 4.347741,15.695411 4.185325,15.695861 4.185325,15.553058 4.34774,15.552612 4.381064,15.552612" style="fill: white" /><polygon type="contour" points="4.961841,15.552923 4.961841,15.695723 4.691867,15.695395 4.629556,15.695425 4.629557,15.671132 4.629557,15.552612 4.691866,15.552596" style="fill: white" /><polygon type="contour" points="4.962491,14.889195 4.962491,14.946232 4.691866,14.945972 4.629557,14.946058 4.629557,14.783962 4.629556,14.750692 4.912793,14.750692 4.962583,14.750672" style="fill: white" /><polygon type="contour" points="4.38101,14.750692 4.38101,14.916708 4.381064,14.946058 4.237852,14.946377 4.185325,14.946377 4.185644,14.783962 4.185644,14.750638 4.34774,14.750638" style="fill: white" /><polygon type="contour" points="4.38103,14.439835 4.38101,14.502146 4.214992,14.502146 4.185644,14.502145 4.185729,14.439835 4.185469,14.169211 4.344406,14.169119 4.38103,14.169119" style="fill: white" /><polygon type="contour" points="3.579106,14.439835 3.57909,14.502145 3.460569,14.502146 3.436278,14.502147 3.436307,14.439835 3.435978,14.169861 3.578778,14.169861" style="fill: white" /><polygon type="contour" points="3.578642,14.893848 3.578642,14.946377 3.435842,14.946377 3.435804,14.89947 3.436278,14.750693 3.460568,14.750639 3.57909,14.750638" style="fill: white" /><polygon type="contour" points="3.329761,15.553052 3.41407,15.553052 3.416916,15.55293 3.435956,15.552947 3.578756,15.552947 3.578756,15.695746 3.578773,15.714786 3.578651,15.80194 3.578998,15.80603 3.579088,15.885814 3.50792,15.885978 3.506372,15.886246 3.245729,15.885972 3.245729,15.825938 3.245945,15.729567 3.24577,15.55273" style="fill: white" />
</svg>
