<svg width="19.131698" height="19.131699">
<polygon type="contour" points="9.57235,9.238715 9.693484,9.241633 9.714022,9.242825 9.720257,9.245443 9.763271,9.250279 9.828852,9.255488 9.871605,9.260099 9.877113,9.327253 9.881762,9.3709 9.886826,9.411447 9.889543,9.422059 9.889709,9.426296 9.892735,9.55239 9.893516,9.566062 9.893236,9.570682 9.890463,9.691421 9.889543,9.709644 9.886826,9.720255 9.881763,9.760802 9.877113,9.804451 9.871605,9.871606 9.807202,9.876687 9.763271,9.881424 9.720256,9.886262 9.715126,9.88888 9.693483,9.890071 9.572349,9.892986 9.5655,9.893488 9.55406,9.892737 9.430608,9.889672 9.417678,9.88888 9.415689,9.888659 9.411444,9.886262 9.368428,9.881424 9.302847,9.876216 9.260096,9.871606 9.254587,9.804451 9.249937,9.760802 9.244874,9.720254 9.242201,9.7096 9.241614,9.698425 9.238714,9.575286 9.238212,9.566201 9.238713,9.556977 9.241614,9.433276 9.242157,9.42206 9.244874,9.411447 9.249938,9.3709 9.254587,9.327253 9.260096,9.260099 9.324497,9.255017 9.368427,9.25028 9.411444,9.245442 9.417677,9.242825 9.546044,9.239461 9.565641,9.238214" style="fill: white" />
</svg>
