<svg width="19.131698" height="19.131699">
<polygon type="contour" points="8.759501,8.703101 8.855764,8.704305 8.870404,8.704224 8.870524,8.852165 8.870407,8.87041 8.854564,8.870568 8.807103,8.869698 8.743296,8.868928 8.743585,8.849952 8.742909,8.724643 8.74293,8.703019 8.743903,8.703019 8.747936,8.702988" style="fill: white" /><polygon type="contour" points="10.388771,8.703019 10.388779,8.704561 10.388792,8.724642 10.388116,8.849952 10.388405,8.868928 10.365649,8.869262 10.261197,8.870506 10.261404,8.720565 10.261307,8.704216 10.275936,8.704305 10.372199,8.703101 10.383764,8.702988" style="fill: white" /><polygon type="contour" points="10.324598,10.262006 10.388404,10.262776 10.388115,10.28175 10.388792,10.407059 10.388771,10.428683 10.387792,10.428683 10.383763,10.428714 10.372199,10.4286 10.275936,10.427398 10.261295,10.427478 10.261176,10.279538 10.261292,10.261294 10.277135,10.261136" style="fill: white" /><polygon type="contour" points="10.00335,10.003352 9.12835,10.003352 9.12835,9.128352 10.00335,9.128352" style="fill: white" /><polygon type="contour" points="8.870296,10.411136 8.870393,10.427487 8.855763,10.427398 8.759501,10.4286 8.747937,10.428714 8.74293,10.428683 8.742921,10.42714 8.742915,10.408717 8.743692,10.283232 8.743344,10.262712 8.766051,10.262441 8.870503,10.261198" style="fill: white" />
</svg>
