<svg width="19.131698" height="19.131699">
<polygon type="contour" points="7.398102,7.372434 7.421888,7.374239 7.669415,7.374875 7.669554,7.38771 7.669554,7.400521 7.669613,7.401186 7.670019,7.544625 7.784252,7.544444 7.862066,7.544376 7.861887,7.634519 7.861887,7.670738 7.86168,7.670738 7.862066,7.823725 7.862066,7.862068 7.784253,7.861889 7.752687,7.861889 7.752687,7.86171 7.588368,7.862068 7.544373,7.862068 7.544429,7.829482 7.544559,7.670019 7.375211,7.670019 7.37438,7.42894 7.372228,7.372231" style="fill: white" /><polygon type="contour" points="8.753829,7.375601 8.751995,7.490119 8.751771,7.583776 8.752234,7.752799 8.752959,7.7528 8.752849,7.827134 8.753054,7.861826 8.550013,7.861737 8.457145,7.861737 8.457146,7.861223 8.301521,7.862068 8.268585,7.862068 8.268967,7.784254 8.268967,7.752689 8.269347,7.752689 8.268585,7.58837 8.268585,7.544376 8.29726,7.544384 8.455223,7.544311 8.458131,7.375934 8.748265,7.375596" style="fill: white" /><polygon type="contour" points="9.091541,7.544442 9.091283,7.636497 9.091283,7.670817 9.090993,7.670817 9.091541,7.825568 9.091523,7.862068 8.991197,7.861826 8.942607,7.861826 8.942377,7.784254 8.940801,7.752726 8.942034,7.752726 8.942463,7.579031 8.942463,7.544345 9.046871,7.544331" style="fill: white" /><polygon type="contour" points="11.759444,7.397343 11.75732,7.428941 11.756489,7.670019 11.587073,7.670019 11.587258,7.784255 11.587325,7.808471 11.587325,7.862068 11.497182,7.861889 11.460963,7.861889 11.460963,7.861682 11.307974,7.862068 11.269633,7.862068 11.269814,7.784255 11.269814,7.752689 11.269994,7.752689 11.269633,7.58837 11.269633,7.544375 11.302217,7.544432 11.461681,7.54456 11.462083,7.401186 11.462143,7.387709 11.462271,7.386701 11.462282,7.374875 11.709812,7.374239 11.759472,7.372231" style="fill: white" /><polygon type="contour" points="10.673376,7.375934 10.673568,7.375934 10.676477,7.544369 10.798669,7.544349 10.863116,7.544376 10.862734,7.634519 10.862734,7.670738 10.862293,7.670738 10.863116,7.823725 10.863116,7.862068 10.798669,7.861737 10.76918,7.861737 10.76918,7.861694 10.475368,7.861826 10.378646,7.861826 10.378561,7.784254 10.378739,7.7528 10.380207,7.7528 10.377887,7.381667 10.377872,7.375601" style="fill: white" /><polygon type="contour" points="10.189238,7.544345 10.189238,7.579031 10.189666,7.752724 10.190899,7.752726 10.189414,7.779762 10.189323,7.784255 10.189093,7.861826 10.092281,7.862068 10.040175,7.862068 10.040424,7.784254 10.040223,7.752685 10.040512,7.752685 10.039924,7.586322 10.039924,7.544442 10.084827,7.544331" style="fill: white" /><polygon type="contour" points="10.140502,8.268594 10.189093,8.268594 10.189001,8.333031 10.189137,8.384177 10.189276,8.662021 10.189117,8.75272 10.085341,8.75272 10.040471,8.752914 10.040386,8.545159 10.040386,8.457208 10.041084,8.457208 10.039924,8.299993 10.040175,8.268587" style="fill: white" /><polygon type="contour" points="10.142698,10.040693 10.189089,10.040693 10.189089,10.142919 10.189238,10.189239 10.142698,10.189091 10.040472,10.189091 10.039924,10.08976 10.039924,10.04016" style="fill: white" /><polygon type="contour" points="10.863116,10.040177 10.863109,10.140504 10.863109,10.189096 10.79867,10.189003 10.747182,10.189139 10.46968,10.189278 10.378983,10.189119 10.378983,10.085344 10.378788,10.040693 10.586542,10.040596 10.674493,10.040596 10.674493,10.041255 10.83171,10.040159" style="fill: white" /><polygon type="contour" points="10.512957,10.378003 10.673772,10.378073 10.673772,10.378957 10.834777,10.378913 10.863109,10.378648 10.862981,10.581687 10.862981,10.674554 10.862771,10.674554 10.863116,10.83018 10.863116,10.863118 10.798669,10.862983 10.769181,10.862983 10.769181,10.862922 10.475368,10.863111 10.378646,10.863111 10.378673,10.798672 10.380252,10.673773 10.37807,10.673774 10.378038,10.550663 10.377963,10.377966" style="fill: white" /><polygon type="contour" points="10.189117,10.378985 10.189276,10.469682 10.189174,10.674782 10.188937,10.674782 10.189182,10.836495 10.189093,10.863111 10.092281,10.863118 10.040175,10.863118 10.0406,10.798672 10.040348,10.763926 10.040472,10.470481 10.040472,10.37879 10.142698,10.37879" style="fill: white" /><polygon type="contour" points="10.140502,11.269879 10.189093,11.269879 10.189323,11.347449 10.189594,11.40828 10.189238,11.552672 10.189238,11.587359 10.084827,11.587371 10.039924,11.58726 10.040223,11.495207 10.040223,11.460887 10.040558,11.460887 10.039924,11.306133 10.040175,11.269635" style="fill: white" /><polygon type="contour" points="10.862734,11.347448 10.862734,11.379015 10.862353,11.379015 10.863116,11.543331 10.863116,11.587327 10.83444,11.587318 10.676476,11.587395 10.673568,11.75577 10.383435,11.756108 10.377872,11.756102 10.379706,11.641583 10.379929,11.547926 10.379463,11.378904 10.378739,11.378903 10.378848,11.304568 10.378645,11.269879 10.581686,11.269968 10.674552,11.269968 10.674552,11.270484 10.830179,11.269635 10.863116,11.269635" style="fill: white" /><polygon type="contour" points="11.587267,11.302218 11.587142,11.461685 11.756489,11.461685 11.75732,11.702763 11.759472,11.759473 11.733597,11.75927 11.709812,11.757465 11.462282,11.756829 11.462143,11.743993 11.462143,11.731183 11.462084,11.730518 11.46168,11.587075 11.347446,11.58726 11.269633,11.587327 11.269814,11.497184 11.269814,11.460965 11.270022,11.460965 11.269633,11.307976 11.269633,11.269635 11.347447,11.269816 11.379013,11.269816 11.379013,11.269996 11.543327,11.269635 11.587325,11.269635" style="fill: white" /><polygon type="contour" points="11.755768,10.673393 11.755766,10.673569 11.587328,10.674949 11.587354,10.798671 11.587325,10.813153 11.587325,10.863118 11.497183,10.862735 11.460963,10.862735 11.460963,10.862293 11.307974,10.863118 11.269633,10.863118 11.269966,10.798672 11.269966,10.769183 11.270008,10.769182 11.269877,10.47537 11.269877,10.378648 11.347446,10.378562 11.378956,10.378824 11.378956,10.380282 11.750528,10.377889 11.756109,10.377875" style="fill: white" /><polygon type="contour" points="11.587369,10.084828 11.587357,10.189239 11.552669,10.189239 11.416983,10.189575 11.300327,10.189239 11.269877,10.189096 11.269633,10.092285 11.269633,10.040178 11.347446,10.040427 11.379016,10.040417 11.379016,10.040666 11.545378,10.04016 11.587256,10.04016" style="fill: white" /><polygon type="contour" points="11.55267,8.942465 11.587357,8.942465 11.587253,8.989002 11.587256,9.006493 11.587256,9.091777 11.495204,9.091476 11.460885,9.091476 11.460885,9.091137 11.306131,9.091777 11.269633,9.091525 11.269877,8.991199 11.269877,8.942608 11.347446,8.942379 11.408411,8.942108" style="fill: white" /><polygon type="contour" points="11.587316,8.297261 11.587394,8.45702 11.755586,8.458134 11.755767,8.458134 11.756097,8.748014 11.756108,8.753828 11.539197,8.752137 11.378957,8.751733 11.378955,8.752879 11.302698,8.752755 11.269877,8.753057 11.269966,8.550015 11.269966,8.457149 11.270482,8.457149 11.269633,8.301521 11.269633,8.268587 11.347446,8.26897 11.379013,8.26897 11.379013,8.269351 11.543328,8.268587 11.587325,8.268587" style="fill: white" /><polygon type="contour" points="10.862981,8.333031 10.862981,8.36252 10.86292,8.36252 10.863109,8.656332 10.863109,8.753057 10.798669,8.753029 10.673771,8.751946 10.673771,8.753632 10.55066,8.753665 10.377963,8.753739 10.378,8.618744 10.37807,8.45793 10.379063,8.45793 10.379036,8.298625 10.378646,8.268594 10.581686,8.268721 10.674553,8.268721 10.674553,8.268928 10.830178,8.268587 10.863116,8.268587" style="fill: white" /><polygon type="contour" points="10.67478,8.942528 10.67478,8.942764 10.836493,8.94252 10.863109,8.942608 10.863116,9.039417 10.863116,9.091525 10.798669,9.091101 10.76389,9.091354 10.47048,9.091229 10.378788,9.091229 10.378788,8.989002 10.378983,8.942585 10.46968,8.942426" style="fill: white" /><polygon type="contour" points="10.189089,8.989002 10.189089,9.091229 10.089758,9.091777 10.039924,9.091777 10.040472,8.989002 10.040472,8.942613 10.142698,8.942613 10.189238,8.942465" style="fill: white" /><polygon type="contour" points="8.752718,8.942584 8.752718,9.046359 8.752912,9.091229 8.545157,9.091316 8.457207,9.091316 8.457207,9.090618 8.29999,9.091777 8.268585,9.091525 8.268592,8.991199 8.268592,8.942608 8.333029,8.9427 8.384517,8.942564 8.662019,8.942426" style="fill: white" /><polygon type="contour" points="8.988784,8.942613 9.091009,8.942613 9.091541,9.041942 9.091541,9.091777 8.988784,9.091229 8.942611,9.091229 8.942611,8.989003 8.942463,8.942465" style="fill: white" /><polygon type="contour" points="9.0911,8.333031 9.091119,8.428675 9.09101,8.661222 9.09101,8.752914 8.988784,8.752914 8.942583,8.75272 8.942424,8.662021 8.942526,8.456922 8.942762,8.456922 8.942518,8.295208 8.942607,8.268594 9.039416,8.268587 9.091523,8.268587" style="fill: white" /><polygon type="contour" points="8.333029,8.268721 8.362519,8.268721 8.362519,8.268781 8.65633,8.268594 8.753054,8.268594 8.753027,8.333031 8.751447,8.45793 8.75363,8.457929 8.753663,8.581041 8.753737,8.753738 8.618742,8.753701 8.457928,8.753632 8.457928,8.752746 8.296923,8.752791 8.268592,8.753057 8.26872,8.550016 8.26872,8.457149 8.268929,8.457149 8.268585,8.301522 8.268585,8.268587" style="fill: white" /><polygon type="contour" points="7.861735,8.333032 7.861735,8.362519 7.861692,8.36252 7.861824,8.656332 7.861824,8.753057 7.784253,8.753141 7.752743,8.752879 7.752743,8.75142 7.381171,8.753815 7.375591,8.753829 7.375933,8.45831 7.375933,8.458134 7.544371,8.456754 7.544346,8.333032 7.544373,8.318549 7.544373,8.268587 7.634516,8.26897 7.670737,8.26897 7.670737,8.269411 7.823723,8.268587 7.862066,8.268587" style="fill: white" /><polygon type="contour" points="7.831583,8.940825 7.861824,8.942608 7.862066,9.039416 7.862066,9.091525 7.784253,9.091275 7.752684,9.091476 7.752684,9.091184 7.58632,9.091777 7.54444,9.091777 7.544329,9.046873 7.544343,8.942465 7.579029,8.942465 7.752722,8.942036 7.752723,8.940803" style="fill: white" /><polygon type="contour" points="7.592501,10.379565 7.752741,10.379969 7.752742,10.378824 7.828999,10.378949 7.861824,10.378648 7.861735,10.581688 7.861735,10.674553 7.861221,10.674553 7.862066,10.83018 7.862066,10.863118 7.784252,10.862735 7.752687,10.862735 7.752687,10.862353 7.588368,10.863118 7.544373,10.863118 7.544382,10.834441 7.544308,10.674683 7.376113,10.67357 7.375933,10.67357 7.375603,10.383689 7.375591,10.377875" style="fill: white" /><polygon type="contour" points="7.862066,10.040178 7.861824,10.140503 7.861824,10.189096 7.784252,10.189326 7.752724,10.190902 7.752722,10.189669 7.579029,10.189239 7.544343,10.189239 7.544446,10.142919 7.54444,10.125444 7.54444,10.04016 7.636495,10.040417 7.670815,10.040417 7.670815,10.040705 7.825568,10.04016" style="fill: white" /><polygon type="contour" points="8.333029,10.040603 8.425729,10.040581 8.66122,10.040693 8.752912,10.040693 8.752912,10.142918 8.752718,10.189119 8.541956,10.189022 8.45692,10.189175 8.45692,10.188939 8.295206,10.189184 8.268592,10.189096 8.268585,10.092284 8.268585,10.040178" style="fill: white" /><polygon type="contour" points="9.09101,10.142919 9.09101,10.189091 8.988784,10.189091 8.942463,10.189239 8.942611,10.142918 8.942611,10.040693 9.041939,10.04016 9.091541,10.04016" style="fill: white" /><polygon type="contour" points="8.7537,10.51296 8.75363,10.673774 8.752635,10.673774 8.752665,10.833077 8.753054,10.863111 8.550014,10.862983 8.457146,10.862983 8.457146,10.862773 8.301521,10.863118 8.268585,10.863118 8.26872,10.798671 8.26872,10.769183 8.26878,10.769183 8.268592,10.47537 8.268592,10.378648 8.333029,10.378675 8.457928,10.379757 8.457928,10.378073 8.581039,10.378039 8.753737,10.377966" style="fill: white" /><polygon type="contour" points="9.091106,10.586544 9.091106,10.674496 9.090448,10.674496 9.091541,10.831712 9.091523,10.863117 8.991197,10.86311 8.942607,10.863111 8.942699,10.798672 8.942562,10.747526 8.942424,10.469682 8.942583,10.378985 9.046358,10.378985 9.09101,10.37879" style="fill: white" /><polygon type="contour" points="9.091273,11.347448 9.091283,11.379018 9.091033,11.379018 9.091541,11.545379 9.091541,11.58726 9.046871,11.587371 8.942463,11.587359 8.942463,11.552672 8.94215,11.426016 8.942287,11.351941 8.942377,11.347448 8.942607,11.269879 9.039415,11.269635 9.091523,11.269634" style="fill: white" /><polygon type="contour" points="8.333029,11.269968 8.362519,11.269968 8.362519,11.27001 8.65633,11.269879 8.753054,11.269879 8.753138,11.347448 8.752958,11.378904 8.751491,11.378904 8.753814,11.750035 8.753829,11.756102 8.458323,11.755769 8.458132,11.75577 8.455222,11.587334 8.33303,11.587355 8.268585,11.587327 8.268967,11.497184 8.268967,11.460965 8.269407,11.460965 8.268585,11.307976 8.268585,11.269635" style="fill: white" /><polygon type="contour" points="7.861887,11.347448 7.861887,11.379015 7.861708,11.379015 7.862066,11.54333 7.862066,11.587327 7.829481,11.58727 7.670018,11.587143 7.669613,11.730518 7.669554,11.743994 7.669426,11.745002 7.669415,11.756829 7.421888,11.757464 7.372228,11.759473 7.372256,11.734361 7.37438,11.702763 7.375211,11.461685 7.544623,11.461685 7.544442,11.347449 7.544373,11.32323 7.544373,11.269635 7.634516,11.269816 7.670737,11.269816 7.670737,11.270024 7.823723,11.269635 7.862066,11.269635" style="fill: white" />
</svg>
