<svg width="19.131698" height="19.131699">
<polygon type="contour" points="16.304027,16.032842 16.304027,16.032673 16.318874,16.032673 16.446969,16.032329 16.44694,16.06904 16.446747,16.303987 16.51559,16.303925 16.577409,16.304012 16.580309,16.303766 16.636985,16.303785 16.63686,16.429214 16.637227,16.59362 16.637227,16.63723 16.447891,16.637428 16.446768,16.637234 16.3037,16.636902 16.30401,16.577411 16.30401,16.517613 16.303924,16.515592 16.303985,16.446752 16.207667,16.446828 16.032326,16.446972 16.032326,16.417019 16.032904,16.227974 16.032672,16.227974 16.032672,16.207669 16.032326,16.032329 16.07329,16.032329" style="fill: white" /><polygon type="contour" points="14.722409,16.032329 14.722409,16.073293 14.722406,16.304028 14.722407,16.304028 14.722407,16.318875 14.722409,16.446972 14.664347,16.44692 14.381865,16.447383 14.382346,16.514132 14.382073,16.517612 14.382073,16.577411 14.382264,16.580312 14.382285,16.636987 14.226021,16.637354 14.049453,16.637354 14.049278,16.54197 13.726225,16.541765 13.605804,16.541732 13.575748,16.54173 13.570856,16.541716 13.552268,16.541736 13.496067,16.541753 13.49881,16.498292 13.49838,16.497132 13.503645,16.442636 13.51181,16.396315 13.503512,16.303982 13.505671,16.303984 13.501569,16.157736 13.492888,16.032483 14.336974,16.032244 14.379071,16.032225 14.382367,16.032225 14.388775,16.032223" style="fill: white" /><polygon type="contour" points="14.389667,13.513483 14.491112,13.513527 14.722183,13.512427 14.722485,14.120449 14.722569,14.334416 14.722629,14.386565 14.722408,14.722412 14.652668,14.722412 14.390122,14.722627 14.390122,14.722607 14.335542,14.722625 13.498919,14.722494 13.502236,14.529458 13.513202,14.386104 13.49944,14.251763 13.506948,14.009636 13.574838,14.009307 13.60511,14.009519 13.624985,14.009818 13.766884,14.008787 13.808344,14.008558 13.813394,14.00848 13.815024,14.00867 13.885772,14.007346 13.893028,14.006992 13.92299,14.005271 13.929914,14.004221 13.946666,14.003974 13.950935,14.003879 14.002777,14.002778 14.003879,13.950936 14.003972,13.946668 14.004218,13.929918 14.00527,13.922992 14.006988,13.893032 14.007344,13.885774 14.008666,13.815027 14.008477,13.813397 14.008556,13.808347 14.008784,13.766887 14.009816,13.624989 14.009517,13.605113 14.009304,13.574841 14.009634,13.506951 14.25065,13.497171" style="fill: white" /><polygon type="contour" points="16.541659,13.484324 16.541584,13.556803 16.541595,13.591463 16.541842,13.759613 16.541857,13.939792 16.541979,13.998371 16.541825,14.049312 16.637352,14.049454 16.637352,14.226021 16.636985,14.382286 16.577409,14.382074 16.514129,14.382348 16.447379,14.381866 16.446918,14.664351 16.446969,14.722412 16.417016,14.722412 16.227972,14.722406 16.227972,14.722409 16.207667,14.722409 16.032326,14.722412 16.032326,14.65267 16.032221,14.38612 16.032241,14.337016 16.032441,13.494203 16.139856,13.496892 16.271179,13.50679 16.388444,13.500627 16.492938,13.472226" style="fill: white" /><polygon type="contour" points="16.637227,2.494474 16.637227,2.538084 16.636859,2.702489 16.636985,2.827918 16.577409,2.827691 16.517611,2.827691 16.51559,2.827778 16.44675,2.827716 16.446826,2.924034 16.446969,3.099374 16.417016,3.099374 16.227973,3.098796 16.227973,3.099029 16.207668,3.099029 16.032326,3.099374 16.032326,3.058409 16.032842,2.827675 16.032672,2.827675 16.032672,2.812828 16.032326,2.684732 16.069037,2.684762 16.303985,2.684955 16.303924,2.616111 16.304011,2.55429 16.303764,2.551392 16.3037,2.494801 16.446769,2.494469 16.447892,2.494276" style="fill: white" /><polygon type="contour" points="16.304026,4.409294 16.318874,4.409294 16.446969,4.409292 16.446918,4.467352 16.447379,4.749836 16.51413,4.749356 16.517611,4.74963 16.57741,4.74963 16.58031,4.749437 16.636985,4.749418 16.637352,4.905682 16.637352,5.082249 16.542001,5.082425 16.541868,5.409284 16.541865,5.52789 16.541868,5.557298 16.541856,5.562078 16.541878,5.580225 16.541857,5.635062 16.4994,5.632396 16.397954,5.619795 16.304038,5.626579 16.304039,5.626048 16.157734,5.62988 16.032441,5.637502 16.032241,4.794687 16.03222,4.744348 16.032326,4.409292 16.073289,4.409292" style="fill: white" /><polygon type="contour" points="14.722409,4.409291 14.722409,4.479034 14.722628,4.746128 14.722569,4.797287 14.722485,5.011253 14.722183,5.515391 14.722183,5.619276 14.52573,5.623479 14.38977,5.618208 14.25065,5.634533 14.009634,5.624752 14.009304,5.556862 14.009517,5.52659 14.009816,5.506714 14.009755,5.494371 14.009728,5.492938 14.009803,5.492528 14.008667,5.316675 14.007344,5.245929 14.006988,5.238671 14.00527,5.208711 14.004219,5.201784 14.003972,5.185033 14.003879,5.180767 14.002778,5.128925 13.950935,5.127824 13.946666,5.127729 13.929914,5.12748 13.92299,5.126431 13.885771,5.124356 13.815024,5.123033 13.813394,5.123223 13.808344,5.123145 13.766884,5.122915 13.624987,5.121885 13.605112,5.122185 13.57484,5.122398 13.506949,5.122068 13.49944,4.879938 13.512996,4.747604 13.512587,4.722808 13.498918,4.40921 14.335542,4.40908 14.390122,4.409098 14.390122,4.409076" style="fill: white" /><polygon type="contour" points="14.382285,2.494718 14.382073,2.55429 14.382346,2.617571 14.381865,2.684318 14.722409,2.684732 14.722409,2.714684 14.722405,2.903729 14.722407,2.903729 14.722407,2.924033 14.722409,3.099374 14.652667,3.099374 14.385458,3.099481 14.336974,3.09946 13.492888,3.099221 13.496078,2.988008 13.510253,2.827716 13.503512,2.827721 13.511907,2.733747 13.504005,2.686877 13.499305,2.632301 13.496639,2.589819 13.551477,2.589823 13.569623,2.589846 13.574403,2.589833 13.603811,2.589836 13.722418,2.589832 14.049311,2.589749 14.049453,2.49435 14.226021,2.49435" style="fill: white" /><polygon type="contour" points="2.68493,2.494469 2.828,2.494801 2.82769,2.554291 2.82769,2.614092 2.827776,2.616111 2.827715,2.684956 2.924033,2.684875 3.099373,2.684732 3.099373,2.714683 3.098794,2.903729 3.099027,2.903729 3.099027,2.924033 3.099373,3.099374 3.058407,3.099374 2.827674,3.098859 2.827674,3.099029 2.812826,3.099029 2.68473,3.099374 2.684759,3.062663 2.684953,2.827716 2.616108,2.827778 2.55429,2.827691 2.55139,2.827938 2.494716,2.827918 2.494839,2.702489 2.494472,2.538084 2.494472,2.494474 2.683806,2.494275" style="fill: white" /><polygon type="contour" points="5.082424,2.589871 5.133329,2.589718 5.191908,2.589841 5.372087,2.589859 5.540236,2.590107 5.574984,2.590117 5.647378,2.590042 5.659475,2.638763 5.651853,2.700089 5.631073,2.743257 5.627,2.862403 5.63013,2.973968 5.638813,3.099221 4.794725,3.09946 4.750413,3.09948 4.749332,3.09948 4.744045,3.099482 4.40929,3.099374 4.40929,3.058409 4.409294,2.827674 4.409293,2.827674 4.409293,2.812828 4.40929,2.684732 4.46735,2.684783 4.749833,2.684321 4.749354,2.617572 4.749628,2.614093 4.749628,2.554291 4.749435,2.551392 4.749416,2.494718 4.905679,2.49435 5.082246,2.49435" style="fill: white" /><polygon type="contour" points="4.741577,4.409098 4.796157,4.40908 5.632782,4.40921 5.629463,4.602246 5.618497,4.745599 5.632259,4.879939 5.624751,5.122068 5.55686,5.122398 5.526588,5.122184 5.506711,5.121885 5.494369,5.121946 5.492936,5.121973 5.492526,5.121897 5.316673,5.123033 5.245927,5.124356 5.23867,5.124711 5.208708,5.126431 5.201782,5.127481 5.185031,5.127729 5.180765,5.127823 5.128922,5.128924 5.127821,5.180767 5.127727,5.185033 5.127479,5.201784 5.126428,5.20871 5.124707,5.238672 5.124353,5.245929 5.12303,5.316675 5.123221,5.318306 5.123143,5.323356 5.122915,5.364815 5.121883,5.506714 5.122182,5.52659 5.122396,5.556862 5.122066,5.624753 4.881048,5.634533 4.742032,5.61822 4.640587,5.618175 4.409518,5.619276 4.409217,5.011253 4.409133,4.797286 4.409073,4.745188 4.409289,4.409292 4.479031,4.409292 4.741578,4.409079" style="fill: white" /><polygon type="contour" points="2.903728,4.409295 2.903728,4.409294 2.924032,4.409294 3.099373,4.409292 3.099373,4.479033 3.099479,4.745546 3.099459,4.794687 3.099258,5.637502 2.991842,5.634811 2.82766,5.622434 2.827663,5.626579 2.733745,5.619794 2.6323,5.632395 2.589842,5.635061 2.589821,5.580224 2.589844,5.562078 2.589831,5.557221 2.589834,5.52789 2.58983,5.409284 2.589694,5.082392 2.494348,5.082249 2.494348,4.905682 2.494716,4.749418 2.55429,4.74963 2.61757,4.749355 2.68432,4.749834 2.684782,4.467353 2.68473,4.409292 2.714683,4.409292" style="fill: white" /><polygon type="contour" points="2.743256,13.500627 2.903686,13.509174 2.903687,13.503662 2.973967,13.501821 3.099259,13.494203 3.099459,14.337016 3.099478,14.38237 3.09948,14.38741 3.099373,14.722412 3.058407,14.722412 2.827674,14.722407 2.827674,14.722409 2.812827,14.722409 2.68473,14.722412 2.684782,14.66435 2.68432,14.381866 2.617571,14.382348 2.614091,14.382074 2.55429,14.382074 2.551389,14.382266 2.494716,14.382286 2.494348,14.226021 2.494348,14.049454 2.589869,14.049278 2.589716,13.998371 2.589839,13.939792 2.589857,13.759613 2.590105,13.591463 2.590115,13.556716 2.59004,13.484324 2.638762,13.472226" style="fill: white" /><polygon type="contour" points="5.122066,13.506951 5.122396,13.574841 5.122182,13.605113 5.121883,13.624989 5.122915,13.766887 5.123143,13.808347 5.123221,13.813397 5.123031,13.815027 5.124354,13.885774 5.124709,13.893031 5.126429,13.922993 5.127479,13.929917 5.127726,13.946668 5.127822,13.950937 5.128923,14.002779 5.180764,14.003879 5.185032,14.003974 5.201782,14.004221 5.208709,14.005272 5.245926,14.007346 5.316673,14.00867 5.318304,14.00848 5.323354,14.008558 5.364813,14.008786 5.506712,14.009818 5.526588,14.009519 5.55686,14.009307 5.624751,14.009636 5.632259,14.251764 5.618703,14.3841 5.619113,14.408895 5.632782,14.722495 4.796157,14.722625 4.741578,14.722607 4.741578,14.722629 4.40929,14.722411 4.40929,14.652669 4.409074,14.38554 4.409133,14.334417 4.409217,14.120449 4.409518,13.616312 4.409518,13.512427 4.605968,13.508224 4.741929,13.513495 4.881048,13.497171" style="fill: white" /><polygon type="contour" points="4.794725,16.032244 5.638812,16.032483 5.635621,16.143694 5.621438,16.304064 5.628155,16.30406 5.631073,16.388446 5.651853,16.431616 5.659475,16.492941 5.647378,16.541662 5.574984,16.541588 5.540237,16.541597 5.372087,16.541844 5.191908,16.541861 5.133329,16.541982 5.08239,16.541831 5.082246,16.637354 4.905679,16.637355 4.749416,16.636986 4.749628,16.577411 4.749354,16.514131 4.749833,16.447383 4.467351,16.44692 4.462152,16.446899 4.40929,16.446972 4.40929,16.417018 4.409295,16.227973 4.409293,16.227973 4.409293,16.207668 4.40929,16.032329 4.479031,16.032329 4.741577,16.032225 4.747463,16.032222" style="fill: white" /><polygon type="contour" points="2.903728,16.032904 2.903728,16.032673 2.924032,16.032673 3.099373,16.032329 3.099373,16.073294 3.098856,16.304028 3.099027,16.304028 3.099027,16.318875 3.099373,16.446972 3.062662,16.446942 2.827715,16.446749 2.827776,16.515593 2.82769,16.577411 2.827936,16.580311 2.828,16.636902 2.684931,16.637234 2.683806,16.637428 2.494472,16.63723 2.494472,16.59362 2.494839,16.429214 2.494716,16.303785 2.554289,16.304012 2.61409,16.304012 2.616109,16.303926 2.68495,16.303987 2.684875,16.207669 2.68473,16.032329 2.714683,16.032329" style="fill: white" />
</svg>
