<svg width="19.131698" height="19.131699">
<polygon type="contour" points="14.117465,15.082354 14.604992,15.082588 14.604992,15.223486 14.604702,15.414932 14.143113,15.414932 13.912706,15.41429 13.911931,15.386538 13.912826,15.358114 13.899692,15.1874 13.901436,15.082116" style="fill: white" /><polygon type="contour" points="14.225469,16.526647 14.32742,16.526865 14.604822,16.527024 14.604822,16.626915 14.604992,16.669793 14.604895,16.693267 14.604577,16.710551 14.604873,16.751584 14.604633,16.754643 14.604633,16.807182 14.6048,16.809729 14.604819,16.859522 14.428899,16.859936 14.272034,16.859936 14.271858,16.764517 14.133473,16.764608 13.886243,16.76445 13.897316,16.635522 13.887512,16.526421" style="fill: white" /><polygon type="contour" points="14.605077,15.907948 14.605077,15.980869 14.225174,15.980909 13.888434,15.980909 13.896768,15.850691 13.894893,15.785319 14.128643,15.785212 14.604702,15.785076" style="fill: white" /><polygon type="contour" points="15.980502,15.785203 15.980791,15.914113 15.980791,15.980792 15.834662,15.980504 15.785202,15.980504 15.785202,15.834664 15.785104,15.785106 15.936782,15.785106" style="fill: white" /><polygon type="contour" points="15.907946,15.082451 15.980868,15.082451 15.980569,15.322053 15.980502,15.414871 15.785104,15.414871 15.785104,15.156639 15.785075,15.082433" style="fill: white" /><polygon type="contour" points="15.414931,15.322053 15.41487,15.414871 15.156637,15.414871 15.082432,15.414932 15.082586,15.223485 15.082586,15.082588 15.322052,15.082433 15.414931,15.082433" style="fill: white" /><polygon type="contour" points="15.41487,15.785106 15.41487,15.936784 15.414869,15.980504 15.322051,15.980572 15.082449,15.980869 15.082432,15.839824 15.082432,15.785076 15.322052,15.785076" style="fill: white" /><polygon type="contour" points="15.414869,16.633385 15.41487,16.66959 15.199885,16.669398 15.082586,16.66959 15.082586,16.526791 15.322051,16.526903 15.414869,16.52675" style="fill: white" /><polygon type="contour" points="15.980791,16.669432 15.834662,16.669549 15.785104,16.66959 15.785104,16.558686 15.785202,16.52675 15.914113,16.526629 15.980791,16.526629" style="fill: white" /><polygon type="contour" points="16.85952,16.526319 16.859409,16.636517 16.859822,16.821081 16.859822,16.859824 16.691615,16.86 16.690618,16.859828 16.526245,16.859448 16.526517,16.807181 16.526517,16.754643 16.526441,16.752869 16.526478,16.712741 16.526502,16.695647 16.526629,16.669431 16.526629,16.526631 16.669429,16.526631 16.695645,16.526503 16.712739,16.52648 16.752867,16.526444 16.80718,16.526519 16.809728,16.526302" style="fill: white" /><polygon type="contour" points="16.669478,15.921037 16.66943,15.980792 16.526627,15.980792 16.526747,15.834664 16.526747,15.785203 16.633381,15.785203 16.669587,15.785106" style="fill: white" /><polygon type="contour" points="16.669396,15.199887 16.669587,15.414871 16.526747,15.414871 16.526545,15.21268 16.526788,15.082588 16.669587,15.082588" style="fill: white" /><polygon type="contour" points="16.734622,13.908202 16.764331,13.906577 16.764369,13.932417 16.76437,13.949315 16.764728,14.121976 16.764519,14.191632 16.764524,14.204709 16.764514,14.271894 16.859934,14.272035 16.859934,14.428898 16.859519,14.604821 16.807179,14.604634 16.751584,14.604876 16.710547,14.604579 16.693265,14.604898 16.669788,14.604995 16.568134,14.604995 16.527022,14.604825 16.5269,14.324752 16.526965,14.121241 16.526773,13.899029" style="fill: white" /><polygon type="contour" points="15.980906,13.888436 15.980906,14.225176 15.980868,14.605079 15.839824,14.604705 15.785074,14.604705 15.785202,14.306533 15.785202,13.894203 15.891242,13.886239" style="fill: white" /><polygon type="contour" points="15.414592,13.900076 15.414592,14.316657 15.414931,14.604705 15.223485,14.604994 15.082586,14.604994 15.082586,14.256884 15.082382,13.897153 15.249953,13.889861" style="fill: white" /><polygon type="contour" points="14.604912,13.885098 14.605066,14.270404 14.604883,14.328623 14.604992,14.604995 14.325321,14.605067 14.173249,14.604697 13.896306,14.604655 13.902126,14.446444 13.908736,14.192493 13.944721,14.192231 13.950956,14.192197 13.951715,14.192185 13.95196,14.192214 14.063444,14.190127 14.074881,14.189569 14.122091,14.186859 14.133004,14.185203 14.184444,14.184442 14.185201,14.133007 14.186858,14.122095 14.189567,14.074881 14.190126,14.063447 14.192211,13.951964 14.192182,13.951719 14.192194,13.950959 14.192228,13.944724 14.19249,13.908739 14.267508,13.905264 14.409996,13.880927" style="fill: white" /><polygon type="contour" points="14.604819,2.272183 14.604633,2.324522 14.604873,2.380117 14.604578,2.421153 14.604895,2.438436 14.604992,2.46191 14.604992,2.563565 14.604821,2.604678 14.327419,2.604838 14.225469,2.605056 13.887512,2.605282 13.897216,2.49666 13.88605,2.367158 14.133472,2.367095 14.271891,2.367183 14.272034,2.271769 14.428899,2.271769" style="fill: white" /><polygon type="contour" points="16.859822,2.271878 16.859822,2.310622 16.85941,2.495186 16.85952,2.605384 16.80718,2.605184 16.754641,2.605184 16.752868,2.60526 16.712739,2.605224 16.695646,2.6052 16.669429,2.605073 16.52663,2.605073 16.52663,2.509297 16.526629,2.462273 16.526502,2.436057 16.526478,2.418961 16.526441,2.378834 16.526518,2.324522 16.526301,2.321975 16.526245,2.272256 16.690617,2.271875 16.691615,2.271703" style="fill: white" /><polygon type="contour" points="15.921035,2.462224 15.980791,2.462273 15.980791,2.605073 15.834663,2.604954 15.785202,2.604954 15.785202,2.498318 15.785104,2.462113" style="fill: white" /><polygon type="contour" points="15.41487,2.462113 15.41487,2.573017 15.414868,2.604953 15.212678,2.605156 15.082586,2.604912 15.082586,2.462112 15.322051,2.461999" style="fill: white" /><polygon type="contour" points="15.322052,4.527 15.414931,4.527 15.414592,4.815045 15.414592,5.231628 15.289203,5.226924 15.082382,5.23455 15.082382,4.953805 15.082586,4.52671" style="fill: white" /><polygon type="contour" points="15.980868,4.915202 15.980791,5.24312 15.891243,5.245465 15.785202,5.237501 15.785202,4.82517 15.785075,4.527 15.907947,4.526624 15.980868,4.526624" style="fill: white" /><polygon type="contour" points="16.693264,4.526807 16.710548,4.527124 16.751584,4.526829 16.754642,4.52707 16.80718,4.52707 16.809728,4.526899 16.85952,4.526883 16.859934,4.702804 16.859934,4.859668 16.764513,4.859845 16.764738,4.99782 16.764636,5.245838 16.601326,5.227244 16.526829,5.232626 16.526965,5.010462 16.5269,4.806952 16.527022,4.526879 16.626911,4.526879 16.669788,4.52671" style="fill: white" /><polygon type="contour" points="16.669396,3.931815 16.669587,4.049115 16.526788,4.049115 16.526545,3.919022 16.526747,3.716831 16.633382,3.716831 16.669587,3.71683" style="fill: white" /><polygon type="contour" points="16.669546,3.297038 16.669587,3.346596 16.558681,3.346596 16.526747,3.346498 16.526627,3.217588 16.526627,3.150912 16.66943,3.150912" style="fill: white" /><polygon type="contour" points="15.980502,3.297038 15.980502,3.346498 15.834663,3.346498 15.785104,3.346596 15.785104,3.194916 15.785202,3.151198 15.914112,3.150912 15.980791,3.150912" style="fill: white" /><polygon type="contour" points="15.980502,3.716831 15.980569,3.809648 15.980867,4.049253 15.839824,4.049271 15.785075,4.049271 15.785075,3.809648 15.785103,3.71683 15.936781,3.71683" style="fill: white" /><polygon type="contour" points="15.41487,3.71683 15.41487,3.975065 15.414931,4.049271 15.223485,4.049115 15.082586,4.049115 15.082432,3.809648 15.082432,3.71677 15.322052,3.71677" style="fill: white" /><polygon type="contour" points="15.322051,3.151129 15.414869,3.151198 15.414869,3.297037 15.41487,3.346596 15.156636,3.346596 15.082432,3.346626 15.082449,3.223755 15.082449,3.150834" style="fill: white" /><polygon type="contour" points="14.605077,3.150834 14.605077,3.223755 14.604702,3.346626 14.143113,3.346626 14.128642,3.346491 13.894893,3.346385 13.885916,3.240458 13.888434,3.150795 14.225173,3.150795" style="fill: white" /><polygon type="contour" points="14.604992,3.908216 14.604992,4.049115 14.256882,4.049115 14.117464,4.049351 13.901436,4.049588 13.912826,3.773588 13.911931,3.745164 13.912706,3.717413 14.006979,3.717413 14.604702,3.71677" style="fill: white" /><polygon type="contour" points="14.604992,4.52671 14.604883,4.803081 14.605066,4.861298 14.604912,5.246605 14.409996,5.250775 14.267508,5.226439 14.19249,5.222965 14.192211,5.17974 14.190125,5.068255 14.189567,5.05682 14.186858,5.009608 14.185201,4.998695 14.184444,4.94726 14.133005,4.9465 14.122091,4.944843 14.063443,4.941575 13.95196,4.939489 13.951715,4.939518 13.950956,4.939506 13.944722,4.939471 13.908736,4.93921 13.905945,4.864493 13.896306,4.527048 14.173249,4.527006 14.325321,4.526637" style="fill: white" /><polygon type="contour" points="4.958451,4.527006 5.235394,4.527048 5.229573,4.685258 5.222962,4.93921 5.179736,4.939489 5.068253,4.941575 5.056819,4.942133 5.009607,4.944844 4.998693,4.9465 4.947257,4.94726 4.946497,4.998695 4.944841,5.009609 4.94213,5.05682 4.941572,5.068255 4.939487,5.179739 4.939516,5.179984 4.939504,5.180744 4.939469,5.186979 4.939208,5.222965 4.864191,5.226439 4.721701,5.250775 4.526786,5.246605 4.526633,4.861297 4.526816,4.803081 4.526708,4.52671 4.806379,4.526637" style="fill: white" /><polygon type="contour" points="5.218993,3.717413 5.219768,3.745164 5.218873,3.773588 5.232009,3.944303 5.230263,4.049588 5.014234,4.04935 4.526708,4.049115 4.526708,3.908216 4.526998,3.71677 4.988585,3.71677" style="fill: white" /><polygon type="contour" points="5.23493,3.28101 5.236806,3.346385 5.003055,3.346492 4.526998,3.346626 4.526622,3.223755 4.526622,3.150834 4.906525,3.150795 5.243265,3.150795" style="fill: white" /><polygon type="contour" points="4.859844,2.367183 4.926992,2.367175 4.940069,2.36718 5.009726,2.366971 5.182386,2.36733 5.199285,2.367332 5.225124,2.367369 5.248021,2.493121 5.244187,2.605282 4.90623,2.605056 4.80428,2.604838 4.526878,2.604678 4.526878,2.504788 4.526708,2.46191 4.526805,2.438435 4.527123,2.421153 4.526828,2.380117 4.527068,2.377061 4.527068,2.324522 4.526898,2.321975 4.526881,2.272183 4.702801,2.271769 4.859665,2.271769" style="fill: white" /><polygon type="contour" points="2.441082,2.271875 2.605455,2.272256 2.605183,2.324522 2.605183,2.377061 2.605258,2.378834 2.605223,2.418961 2.605199,2.436057 2.605072,2.462273 2.605072,2.605073 2.462272,2.605073 2.436055,2.6052 2.418959,2.605224 2.378833,2.605259 2.32452,2.605184 2.321972,2.605401 2.272181,2.605384 2.27229,2.495187 2.271877,2.310621 2.271877,2.271878 2.440083,2.271703" style="fill: white" /><polygon type="contour" points="2.604676,4.526879 2.604801,4.806952 2.604736,5.010462 2.604872,5.232626 2.530373,5.227244 2.367064,5.245837 2.366961,4.99782 2.367181,4.85981 2.271767,4.859668 2.271767,4.702804 2.27218,4.526884 2.324521,4.52707 2.380116,4.526829 2.42115,4.527124 2.438435,4.526806 2.461909,4.526709 2.563563,4.526709" style="fill: white" /><polygon type="contour" points="2.604952,3.716831 2.605155,3.919022 2.604911,4.049115 2.462109,4.049115 2.462302,3.931815 2.462112,3.71683 2.573016,3.71683" style="fill: white" /><polygon type="contour" points="2.604952,3.297037 2.604952,3.346498 2.498317,3.346498 2.462112,3.346596 2.462222,3.210667 2.462272,3.150912 2.605072,3.150912" style="fill: white" /><polygon type="contour" points="3.297035,3.151198 3.346496,3.151198 3.346496,3.297037 3.346594,3.346596 3.194914,3.346596 3.151196,3.346498 3.15091,3.217588 3.15091,3.150912" style="fill: white" /><polygon type="contour" points="3.346594,2.573017 3.346496,2.604954 3.217587,2.605073 3.15091,2.605073 3.15091,2.462273 3.297035,2.462154 3.346594,2.462113" style="fill: white" /><polygon type="contour" points="4.049114,2.604912 3.809647,2.6048 3.716829,2.604954 3.716829,2.498317 3.716828,2.462113 3.931812,2.462303 4.049114,2.462112" style="fill: white" /><polygon type="contour" points="4.049269,3.291875 4.049269,3.346626 3.809646,3.346626 3.716828,3.346596 3.716828,3.194917 3.716829,3.151198 3.809647,3.151129 4.049251,3.150834" style="fill: white" /><polygon type="contour" points="4.049114,3.908217 4.049114,4.049115 3.809647,4.049271 3.716768,4.049271 3.716768,3.809648 3.716827,3.71683 3.975062,3.71683 4.049269,3.71677" style="fill: white" /><polygon type="contour" points="3.346594,3.975065 3.346624,4.049271 3.223754,4.049253 3.150832,4.049253 3.151127,3.809649 3.151196,3.716831 3.297035,3.716831 3.346594,3.71683" style="fill: white" /><polygon type="contour" points="3.291873,4.527 3.346624,4.527 3.346497,4.82517 3.346497,5.237501 3.240456,5.245465 3.150793,5.243267 3.150793,4.906527 3.150832,4.526623" style="fill: white" /><polygon type="contour" points="4.049114,4.87482 4.049317,5.23455 3.881746,5.241842 3.717107,5.231628 3.717107,4.815045 3.716768,4.527 3.908215,4.52671 4.049114,4.52671" style="fill: white" /><polygon type="contour" points="4.86419,13.905264 4.939208,13.908738 4.939469,13.944724 4.939504,13.950959 4.939516,13.951718 4.939487,13.951963 4.941573,14.063447 4.942131,14.074881 4.944842,14.122095 4.946498,14.133007 4.947254,14.184442 4.998692,14.185203 5.009606,14.186859 5.068254,14.190127 5.179737,14.192214 5.179982,14.192185 5.180742,14.192197 5.186975,14.192231 5.222962,14.192493 5.225753,14.267209 5.235393,14.604655 4.95845,14.604697 4.806379,14.605067 4.526708,14.604995 4.526816,14.328623 4.526633,14.270405 4.526786,13.885098 4.721701,13.880928" style="fill: white" /><polygon type="contour" points="2.604872,13.899078 2.604736,14.121241 2.604801,14.324751 2.604676,14.604824 2.504787,14.604825 2.461909,14.604995 2.438435,14.604898 2.42115,14.604579 2.380117,14.604876 2.377059,14.604635 2.32452,14.604635 2.321973,14.604802 2.272181,14.604821 2.271767,14.428898 2.271767,14.272035 2.367181,14.271859 2.367173,14.204709 2.367178,14.191632 2.366968,14.121975 2.367329,13.949316 2.36733,13.932417 2.367368,13.906577 2.527255,13.894943" style="fill: white" /><polygon type="contour" points="3.346497,13.894203 3.346497,14.306532 3.346624,14.604704 3.223753,14.605079 3.150832,14.605079 3.150832,14.216501 3.15091,13.888584 3.240456,13.886239" style="fill: white" /><polygon type="contour" points="4.049317,14.177899 4.049114,14.604994 3.809646,14.604704 3.716768,14.604704 3.717107,14.316657 3.717107,13.900076 3.842493,13.90478 4.049317,13.897154" style="fill: white" /><polygon type="contour" points="5.224032,16.734464 5.225125,16.764335 5.199285,16.764372 5.182386,16.764374 5.009726,16.76473 4.940069,16.764523 4.926991,16.764527 4.859809,16.764517 4.859665,16.859936 4.702801,16.859936 4.526881,16.859522 4.527068,16.807181 4.526828,16.751585 4.527123,16.71055 4.526805,16.693268 4.526708,16.669793 4.526708,16.568136 4.526878,16.527024 4.804279,16.526865 4.90623,16.526647 5.244148,16.526521" style="fill: white" /><polygon type="contour" points="5.218873,15.358114 5.219768,15.386538 5.218993,15.41429 5.124719,15.41429 4.526998,15.414932 4.526708,15.223486 4.526708,15.082588 4.874819,15.082588 5.014234,15.082354 5.230264,15.082116" style="fill: white" /><polygon type="contour" points="5.003055,15.785213 5.236805,15.785319 5.245784,15.891245 5.243265,15.980909 4.906524,15.980909 4.526622,15.980869 4.526622,15.907949 4.526998,15.785076 4.988586,15.785076" style="fill: white" /><polygon type="contour" points="3.346594,15.936785 3.346496,15.980504 3.217588,15.980792 3.15091,15.980792 3.151196,15.834663 3.151196,15.785203 3.297035,15.785203 3.346594,15.785106" style="fill: white" /><polygon type="contour" points="3.297035,16.52675 3.346496,16.52675 3.346496,16.633384 3.346594,16.66959 3.210664,16.66948 3.15091,16.669432 3.15091,16.526629" style="fill: white" /><polygon type="contour" points="4.049114,16.526791 4.049114,16.669589 3.931812,16.669397 3.912567,16.669322 3.716828,16.66959 3.716828,16.558686 3.716829,16.52675 3.919021,16.526548" style="fill: white" /><polygon type="contour" points="4.049251,15.907948 4.049251,15.980869 3.809646,15.980572 3.716829,15.980504 3.716829,15.834664 3.716828,15.785106 3.975063,15.785106 4.049269,15.785076" style="fill: white" /><polygon type="contour" points="3.908216,15.082588 4.049114,15.082588 4.049269,15.322053 4.049269,15.414932 3.809646,15.414932 3.716828,15.414871 3.716828,15.156639 3.716768,15.082433" style="fill: white" /><polygon type="contour" points="3.346624,15.322053 3.346594,15.414871 3.151196,15.414871 3.151127,15.322052 3.150832,15.082451 3.291873,15.082433 3.346624,15.082433" style="fill: white" /><polygon type="contour" points="2.605155,15.21268 2.604952,15.414871 2.462112,15.414871 2.462302,15.199887 2.46211,15.082588 2.52262,15.082587 2.604911,15.082587" style="fill: white" /><polygon type="contour" points="2.604952,15.785202 2.605072,15.914113 2.605072,15.980792 2.462272,15.980792 2.462152,15.834664 2.462112,15.785106 2.573017,15.785106" style="fill: white" /><polygon type="contour" points="2.324521,16.52652 2.377059,16.52652 2.378832,16.526444 2.418958,16.52648 2.436056,16.526503 2.462272,16.526631 2.605072,16.526631 2.605072,16.669431 2.605199,16.695647 2.605223,16.712742 2.605259,16.752869 2.605183,16.807182 2.605399,16.809729 2.605455,16.859448 2.441081,16.859828 2.440082,16.86 2.271877,16.859824 2.271877,16.821082 2.27229,16.636516 2.272181,16.526319" style="fill: white" />
</svg>
