<svg width="19.131698" height="19.131699">
<polygon type="contour" points="11.258374,8.128141 11.258242,8.149003 11.090721,8.149003 11.090507,8.23269 11.09023,8.315943 11.005568,8.315438 10.982311,8.315438 10.982311,8.315038 10.845704,8.315943 10.81576,8.315943 10.816264,8.232691 10.816264,8.209737 10.816656,8.209737 10.81576,8.071812 10.81576,8.04147 10.841304,8.041408 10.982697,8.04093 10.982616,7.967461 10.983203,7.908127 10.983177,7.889915 10.983359,7.888682 10.983827,7.872007 11.032627,7.872399 11.267488,7.864215" style="fill: white" /><polygon type="contour" points="11.090413,8.77621 11.090312,8.91497 11.257909,8.91497 11.258093,9.159237 11.258123,9.208135 11.090611,9.208135 11.09044,9.271258 11.090207,9.351108 11.005589,9.350942 10.982444,9.350942 10.982443,9.35081 10.845793,9.351108 10.816002,9.351108 10.816155,9.271258 10.815955,9.247876 10.816173,8.983728 10.816173,8.915135 10.816575,8.915133 10.81576,8.779884 10.81576,8.752915 10.899009,8.753283 10.921962,8.753283 10.921962,8.753569 11.059889,8.752915 11.09023,8.752915" style="fill: white" /><polygon type="contour" points="10.378421,10.89901 10.378421,10.921964 10.378136,10.921964 10.378787,11.059892 10.378787,11.090233 10.355491,11.090415 10.216934,11.090315 10.216961,11.226525 10.216951,11.249037 10.216951,11.258357 10.203673,11.25857 9.923818,11.258518 9.923633,11.251216 9.923633,11.244191 9.923663,11.243554 9.923585,11.090612 9.860443,11.09044 9.780596,11.09021 9.780758,11.005592 9.780758,10.982447 9.780886,10.982445 9.780596,10.845795 9.780596,10.816004 9.860444,10.816156 9.883847,10.815957 10.147973,10.816175 10.216566,10.816175 10.216565,10.816577 10.351816,10.815762 10.378787,10.815762" style="fill: white" /><polygon type="contour" points="11.090292,10.841307 11.090771,10.982649 11.258191,10.982649 11.262348,11.054086 11.267487,11.267489 11.032627,11.259305 10.983827,11.259697 10.983177,11.241788 10.983177,11.224476 10.983204,11.223575 10.982616,11.164244 10.982697,11.090721 10.899008,11.090509 10.81576,11.090233 10.816264,11.005569 10.816264,10.982313 10.816662,10.982313 10.81576,10.845706 10.81576,10.815762 10.899009,10.816266 10.921962,10.816266 10.921962,10.816658 11.059888,10.815762 11.09023,10.815762" style="fill: white" /><polygon type="contour" points="11.090439,9.860582 11.090612,9.923588 11.258142,9.923588 11.258093,9.972468 11.25814,9.975377 11.25791,10.216734 11.090804,10.216734 11.090213,10.305628 11.09023,10.378788 11.005567,10.378422 10.982311,10.378422 10.982311,10.378132 10.845704,10.378788 10.81576,10.378788 10.816173,10.305627 10.816173,10.283362 10.816225,10.283362 10.815988,9.980762 10.815988,9.880009 10.81576,9.808887 10.816002,9.780795 10.899156,9.780913 10.921995,9.780913 10.921995,9.781004 11.060017,9.780795 11.090207,9.780795" style="fill: white" /><polygon type="contour" points="10.351687,9.780795 10.379295,9.780795 10.379368,9.860582 10.379115,9.874541 10.378563,10.147975 10.378563,10.216569 10.378344,10.216569 10.378787,10.351817 10.378787,10.378788 10.305626,10.378564 10.147972,10.378564 9.896677,10.379073 9.808886,10.378787 9.780596,10.379296 9.780446,10.306085 9.780446,10.21655 9.780516,9.980845 9.780516,9.880054 9.780596,9.808998 9.780596,9.780795 9.860444,9.780655 9.923387,9.780655 10.147841,9.780611 10.283289,9.780611" style="fill: white" /><polygon type="contour" points="8.315527,8.826075 8.315527,8.848341 8.315474,8.848341 8.315712,9.150942 8.315712,9.251695 8.315941,9.322817 8.315699,9.351108 8.232544,9.350942 8.209702,9.350942 8.209703,9.350812 8.071683,9.351108 8.041493,9.351108 8.04126,9.271258 8.041086,9.208116 7.873558,9.208116 7.873608,9.159237 7.873561,9.156324 7.873789,8.91497 8.040895,8.91497 8.041487,8.826075 8.04147,8.752915 8.126131,8.753283 8.149388,8.753283 8.149388,8.753574 8.285995,8.752915 8.315941,8.752915" style="fill: white" /><polygon type="contour" points="8.099074,7.872399 8.147874,7.872007 8.148523,7.889915 8.148523,7.907082 8.148497,7.908127 8.14908,7.967461 8.149001,8.040982 8.23269,8.041194 8.315941,8.04147 8.315436,8.126131 8.315436,8.14939 8.315036,8.14939 8.315941,8.285997 8.315941,8.315943 8.232689,8.315438 8.209736,8.315438 8.209736,8.315045 8.071811,8.315943 8.041469,8.315943 8.041407,8.290397 8.040928,8.149053 7.87351,8.149053 7.869352,8.077617 7.864213,7.864215" style="fill: white" /><polygon type="contour" points="9.207881,7.873186 9.208065,7.880487 9.208065,7.887452 9.208035,7.888087 9.208115,8.041087 9.27112,8.041263 9.350907,8.041494 9.350788,8.126109 9.350788,8.149255 9.350693,8.149255 9.350907,8.285908 9.350907,8.316098 9.27112,8.315822 9.208297,8.315472 9.208298,8.315713 8.983726,8.315529 8.915132,8.315529 8.915134,8.315125 8.779883,8.315943 8.752913,8.315943 8.75328,8.232691 8.75328,8.209737 8.753565,8.209737 8.752913,8.071812 8.752913,8.04147 8.776208,8.041288 8.91473,8.041387 8.914739,7.905177 8.914749,7.882665 8.914749,7.873347 8.928026,7.873134" style="fill: white" /><polygon type="contour" points="10.216951,7.873347 10.216951,7.882666 10.216957,8.040895 10.305625,8.041489 10.378787,8.041471 10.378421,8.126132 10.378421,8.14939 10.378131,8.14939 10.378787,8.285996 10.378787,8.315943 10.305626,8.315529 10.147973,8.315529 9.923402,8.315714 9.923402,8.315574 9.808886,8.315943 9.780596,8.316098 9.780758,8.232848 9.780758,8.209704 9.780884,8.209705 9.780596,8.071684 9.780596,8.041494 9.860443,8.041263 9.923585,8.041088 9.923663,7.888087 9.923633,7.880487 9.923694,7.879926 9.923818,7.873186 10.203673,7.873134" style="fill: white" /><polygon type="contour" points="9.923402,8.752854 9.923402,8.752686 10.147972,8.753141 10.216567,8.753141 10.216566,8.753361 10.351816,8.752915 10.378787,8.752915 10.378563,8.826075 10.378563,8.848341 10.378434,8.848341 10.379017,9.150943 10.379017,9.251695 10.378787,9.322817 10.379295,9.351108 10.306082,9.351257 10.216549,9.351257 9.980843,9.351186 9.880052,9.351186 9.808996,9.351108 9.780596,9.351108 9.780516,9.271258 9.780516,9.208316 9.780446,8.983861 9.780446,8.848412 9.780596,8.780013 9.780596,8.752804 9.860444,8.75261" style="fill: white" /><polygon type="contour" points="9.322814,8.752915 9.350907,8.752804 9.351092,8.825947 9.351092,8.915152 9.351047,9.150858 9.351047,9.251649 9.350907,9.322706 9.350907,9.351107 9.271119,9.351186 9.208313,9.351186 8.983859,9.351257 8.84841,9.351257 8.780011,9.351108 8.752404,9.351108 8.752333,9.271258 8.752585,9.257206 8.753138,8.983729 8.753138,8.915135 8.753357,8.915135 8.752913,8.779884 8.752913,8.752915 8.826074,8.753141 8.983727,8.753141 9.234934,8.752632" style="fill: white" /><polygon type="contour" points="9.150856,9.780655 9.251646,9.780655 9.251646,9.780654 9.251647,9.780655 9.322702,9.780795 9.350907,9.780795 9.351047,9.860582 9.351047,9.923389 9.351092,10.147844 9.351092,10.283291 9.350907,10.351688 9.350907,10.379296 9.271119,10.37937 9.257174,10.379118 8.983727,10.378564 8.915133,10.378564 8.915133,10.378345 8.779882,10.378788 8.752913,10.378788 8.753138,10.305628 8.753138,10.283363 8.753266,10.283363 8.752684,9.980761 8.752684,9.880008 8.752913,9.808888 8.752405,9.780795 8.825617,9.780611 8.91515,9.780611" style="fill: white" /><polygon type="contour" points="8.315545,9.860583 8.315744,9.883803 8.315527,10.147975 8.315527,10.216569 8.315123,10.21657 8.315941,10.351818 8.315941,10.378788 8.232689,10.378422 8.209736,10.378422 8.209736,10.378137 8.07181,10.378788 8.04147,10.378788 8.041287,10.355492 8.041387,10.216734 7.873789,10.216734 7.873608,9.972468 7.873578,9.923569 8.041085,9.923569 8.04126,9.860583 8.041493,9.780795 8.126109,9.780913 8.149254,9.780913 8.149254,9.781006 8.285905,9.780795 8.315699,9.780795" style="fill: white" /><polygon type="contour" points="8.826073,10.816175 8.983726,10.816175 9.208299,10.81599 9.208299,10.816129 9.322815,10.815762 9.350907,10.816004 9.350788,10.899157 9.350788,10.921998 9.350695,10.921997 9.350907,11.06002 9.350907,11.09021 9.27112,11.09044 9.208115,11.090613 9.208035,11.243553 9.208065,11.251216 9.208005,11.251777 9.207881,11.258518 8.928026,11.25857 8.914749,11.258357 8.914749,11.249036 8.914742,11.090804 8.826074,11.090215 8.752913,11.090233 8.75328,11.005569 8.75328,10.982313 8.75357,10.982313 8.752913,10.845705 8.752913,10.815761" style="fill: white" /><polygon type="contour" points="8.315436,10.89901 8.315436,10.921964 8.315043,10.921964 8.315941,11.059891 8.315941,11.090233 8.290394,11.090295 8.149001,11.090773 8.149081,11.164244 8.148497,11.223576 8.148523,11.241788 8.14834,11.243022 8.147874,11.259697 8.099074,11.259305 7.864213,11.267489 7.873327,11.00356 7.873458,10.982699 8.040978,10.982699 8.041193,10.89901 8.04147,10.815762 8.12613,10.816266 8.149388,10.816266 8.149388,10.816664 8.285995,10.815762 8.315941,10.815762" style="fill: white" />
</svg>
