<svg width="19.131698" height="19.131699">
<polygon type="contour" points="10.209698,10.168272 10.319362,10.168272 10.377573,10.168041 10.377296,10.247543 10.49769,10.247543 10.527518,10.247604 10.543784,10.247594 10.543943,10.251538 10.552889,10.552891 10.304386,10.545684 10.247924,10.544067 10.247492,10.466872 10.247492,10.377297 10.168039,10.377574 10.168039,10.370846 10.16827,10.319365 10.16827,10.2097 10.168039,10.168041 10.172891,10.168041" style="fill: white" /><polygon type="contour" points="10.543942,8.880162 10.543784,8.884106 10.527518,8.884097 10.49769,8.88416 10.377296,8.88416 10.377573,8.963663 10.370846,8.963663 10.319362,8.963431 10.209698,8.963431 10.168039,8.963663 10.168039,8.95881 10.16827,8.922001 10.16827,8.812337 10.168039,8.75413 10.247592,8.754406 10.247492,8.664831 10.247568,8.645735 10.247924,8.587638 10.304387,8.586019 10.552889,8.578813" style="fill: white" /><polygon type="contour" points="10.209699,9.339931 10.319362,9.339931 10.377573,9.339723 10.377254,9.420602 10.54667,9.420602 10.546127,9.534938 10.546607,9.565645 10.546127,9.596213 10.54667,9.711102 10.377254,9.711102 10.377573,9.791981 10.370846,9.791981 10.319362,9.791773 10.209699,9.791773 10.168039,9.791981 10.168039,9.787018 10.168256,9.750652 10.168256,9.381052 10.168039,9.339723 10.17289,9.339723" style="fill: white" /><polygon type="contour" points="9.614527,8.586945 9.703391,8.587904 9.711101,8.587882 9.711101,8.754448 9.79198,8.75413 9.79198,8.760855 9.791771,8.812337 9.791771,8.922001 9.79198,8.963663 9.787017,8.963663 9.750651,8.963446 9.381049,8.963446 9.33972,8.963663 9.33972,8.95881 9.339929,8.922001 9.339929,8.812336 9.33972,8.75413 9.4206,8.754448 9.4206,8.587882 9.428271,8.587904 9.565501,8.585452" style="fill: white" /><polygon type="contour" points="8.827312,8.586019 8.883776,8.587638 8.884208,8.664831 8.884208,8.754406 8.963661,8.75413 8.963661,8.760855 8.963429,8.812337 8.963429,8.922 8.963661,8.963663 8.958809,8.963663 8.921998,8.963431 8.812334,8.963431 8.754127,8.963663 8.754403,8.88416 8.634009,8.88416 8.604182,8.884098 8.587917,8.884107 8.587758,8.880162 8.578811,8.578813" style="fill: white" /><polygon type="contour" points="8.812335,9.339931 8.921998,9.339931 8.963661,9.339723 8.963661,9.344685 8.963445,9.381051 8.963445,9.750652 8.963661,9.791981 8.958808,9.791981 8.921999,9.791773 8.812334,9.791773 8.754127,9.791981 8.754447,9.711102 8.585031,9.711102 8.585572,9.596765 8.585092,9.566058 8.585572,9.535491 8.585031,9.420602 8.754447,9.420602 8.754127,9.339723 8.760853,9.339723" style="fill: white" /><polygon type="contour" points="9.381048,9.339946 9.750651,9.339946 9.79198,9.339723 9.79198,9.344685 9.791757,9.381051 9.791757,9.750652 9.79198,9.791981 9.787017,9.791981 9.750651,9.791758 9.381048,9.791758 9.33972,9.791981 9.33972,9.787018 9.339943,9.750652 9.339943,9.381051 9.33972,9.339723 9.344682,9.339723" style="fill: white" /><polygon type="contour" points="9.381048,10.168258 9.75065,10.168258 9.79198,10.168041 9.79198,10.172892 9.791771,10.209701 9.791771,10.319365 9.79198,10.377574 9.711101,10.377255 9.711101,10.543823 9.703429,10.5438 9.566056,10.54625 9.517173,10.544758 9.428307,10.543799 9.4206,10.543822 9.4206,10.377255 9.33972,10.377574 9.33972,10.370847 9.339929,10.319364 9.339929,10.2097 9.33972,10.168041 9.344682,10.168041" style="fill: white" /><polygon type="contour" points="8.812334,10.168272 8.921999,10.168272 8.963661,10.168041 8.963661,10.172892 8.963429,10.209701 8.963429,10.319364 8.963661,10.377574 8.884105,10.377297 8.884208,10.466872 8.884131,10.485968 8.883776,10.544067 8.827313,10.545684 8.578811,10.552891 8.587758,10.251538 8.587916,10.247594 8.634008,10.247543 8.754403,10.247543 8.754127,10.168041 8.760854,10.168041" style="fill: white" />
</svg>
