<svg width="19.131698" height="19.131699">
<polygon type="contour" points="12.493424,12.167113 12.498247,12.167113 12.498304,12.175428 12.498167,12.25523 12.498278,12.382981 12.673714,12.384621 12.672256,12.485007 12.675765,12.578198 12.679979,12.679979 12.468209,12.671872 12.382174,12.671155 12.382174,12.49828 12.255228,12.498168 12.175426,12.498305 12.167111,12.498248 12.167006,12.457374 12.167006,12.25523 12.167111,12.177478 12.167111,12.167113 12.255227,12.167008 12.457373,12.167008" style="fill: white" /><polygon type="contour" points="11.196128,12.25523 11.196128,12.457374 11.195992,12.493425 11.195992,12.498248 11.189071,12.498299 11.003698,12.497585 11.003698,12.671246 10.929893,12.671547 10.714928,12.673992 10.712543,12.407557 10.711878,12.255229 10.711955,12.175429 10.711913,12.167113 10.921187,12.167189 11.052345,12.167189 11.187704,12.167113 11.195992,12.167113" style="fill: white" /><polygon type="contour" points="11.189072,10.711943 11.195992,10.711914 11.195969,10.921189 11.195969,11.052346 11.195992,11.187707 11.195992,11.195994 11.052345,11.195971 10.921186,11.195971 10.724156,11.195994 10.711912,11.195994 10.711781,11.052347 10.711794,11.01382 10.711794,11.003667 10.715407,10.966258 10.719135,10.719137 10.997963,10.711824 11.052344,10.711782" style="fill: white" /><polygon type="contour" points="12.407555,10.712545 12.674177,10.715167 12.671125,10.928046 12.671191,11.003647 12.497584,11.003647 12.498298,11.189073 12.498247,11.195994 12.457373,11.19613 12.255227,11.19613 12.177477,11.195994 12.167111,11.195994 12.167187,11.052346 12.167187,10.921189 12.167111,10.724156 12.167111,10.711914 12.175427,10.711956 12.255227,10.711879" style="fill: white" /><polygon type="contour" points="12.672256,6.646695 12.673714,6.747081 12.498279,6.748015 12.498167,6.876472 12.498304,6.956275 12.498247,6.96459 12.457373,6.964696 12.255228,6.964696 12.177476,6.96459 12.167111,6.96459 12.167006,6.876473 12.167006,6.67433 12.167111,6.638276 12.167111,6.633455 12.175426,6.633398 12.255228,6.633536 12.382077,6.633424 12.382076,6.498738 12.382173,6.460548 12.468209,6.459831 12.566341,6.455544 12.679979,6.451724" style="fill: white" /><polygon type="contour" points="12.493425,7.93571 12.498247,7.93571 12.498298,7.94263 12.497584,8.128004 12.671244,8.128004 12.671545,8.201808 12.673991,8.416775 12.407555,8.419158 12.255227,8.419825 12.175427,8.419748 12.167111,8.41979 12.167187,8.210515 12.167187,8.079356 12.167111,7.943997 12.167111,7.93571 12.255228,7.935575 12.457372,7.935575" style="fill: white" /><polygon type="contour" points="11.195969,8.079356 11.195969,8.210516 11.195992,8.407546 11.195992,8.419789 11.189072,8.419761 11.052344,8.419921 11.013818,8.419909 11.003666,8.419909 10.966256,8.416294 10.719135,8.412567 10.720834,8.189001 10.715407,8.165444 10.711794,8.128036 10.711794,8.117883 10.711781,8.079356 10.711942,7.942631 10.711913,7.93571 10.921187,7.935733 11.052344,7.935733 11.187705,7.93571 11.195992,7.93571" style="fill: white" /><polygon type="contour" points="10.928562,6.460056 11.003698,6.460458 11.003698,6.634118 11.189072,6.633404 11.195991,6.633455 11.196128,6.67433 11.196128,6.876473 11.195992,6.954223 11.195992,6.964589 11.052344,6.964514 10.921186,6.964515 10.724156,6.96459 10.711913,6.96459 10.711955,6.956275 10.711878,6.876473 10.712543,6.724147 10.715165,6.457525" style="fill: white" /><polygon type="contour" points="6.663551,6.45969 6.749491,6.460514 6.749491,6.633425 6.876471,6.633536 6.956273,6.633398 6.964589,6.633455 6.964694,6.674329 6.964694,6.876472 6.964589,6.954224 6.964589,6.96459 6.876471,6.964696 6.674327,6.964696 6.638276,6.96459 6.633453,6.96459 6.633396,6.956274 6.633534,6.876473 6.63342,6.748015 6.457986,6.747081 6.459445,6.646694 6.455936,6.553506 6.451722,6.451724" style="fill: white" /><polygon type="contour" points="8.419157,6.724147 8.419603,6.749526 8.419823,6.876473 8.419746,6.956275 8.419788,6.96459 8.210513,6.964515 8.079355,6.964515 7.943995,6.96459 7.935708,6.96459 7.935573,6.876472 7.935573,6.67433 7.935708,6.638277 7.935708,6.633455 7.942628,6.633404 8.128003,6.634118 8.128003,6.460458 8.201806,6.460154 8.416773,6.45771" style="fill: white" /><polygon type="contour" points="8.419759,7.942631 8.419919,8.079356 8.419876,8.133739 8.413757,8.334225 8.412565,8.412567 8.189,8.410868 8.165441,8.416295 8.128034,8.419909 8.117882,8.419909 8.079356,8.419921 7.942628,8.419761 7.935708,8.41979 7.935732,8.210516 7.935732,8.079357 7.935708,7.943996 7.935708,7.93571 8.079355,7.935733 8.210514,7.935733 8.407544,7.93571 8.419788,7.93571" style="fill: white" /><polygon type="contour" points="6.954222,7.93571 6.964589,7.93571 6.964513,8.079357 6.964513,8.210515 6.964589,8.407547 6.964589,8.41979 6.956272,8.419748 6.876472,8.419825 6.724144,8.419159 6.457522,8.416538 6.460055,8.20314 6.460456,8.128004 6.634116,8.128004 6.633402,7.942631 6.633453,7.93571 6.674327,7.935575 6.876472,7.935575" style="fill: white" /><polygon type="contour" points="6.956272,10.711956 6.964589,10.711914 6.964513,10.921189 6.964513,11.052347 6.964589,11.187706 6.964589,11.195994 6.876471,11.19613 6.674327,11.19613 6.638276,11.195994 6.633453,11.195994 6.633402,11.189074 6.634116,11.0037 6.460456,11.0037 6.460152,10.929896 6.457708,10.71493 6.724144,10.712545 6.749525,10.712098 6.876472,10.711879" style="fill: white" /><polygon type="contour" points="8.133736,10.711824 8.334224,10.717946 8.412565,10.719137 8.419877,10.997965 8.419906,11.003668 8.419906,11.01382 8.419919,11.052346 8.419758,11.189074 8.419787,11.195994 8.210513,11.195971 8.079356,11.195971 7.943994,11.195994 7.935708,11.195994 7.935732,11.052347 7.935732,10.921189 7.935708,10.724156 7.935708,10.711914 8.079355,10.711782" style="fill: white" /><polygon type="contour" points="8.079356,12.167189 8.210513,12.16719 8.407545,12.167114 8.419788,12.167114 8.419746,12.17543 8.419823,12.25523 8.419157,12.407557 8.416535,12.674178 8.203138,12.671645 8.128003,12.671246 8.128003,12.497585 7.942629,12.498299 7.935708,12.498248 7.935573,12.457373 7.935573,12.255229 7.935708,12.177479 7.935708,12.167113" style="fill: white" /><polygon type="contour" points="6.954223,12.167113 6.964589,12.167113 6.964694,12.255229 6.964694,12.457374 6.964589,12.493425 6.964589,12.498248 6.956273,12.498305 6.876471,12.498168 6.749468,12.49828 6.749468,12.632963 6.749526,12.671155 6.66349,12.671873 6.565357,12.676161 6.451722,12.67998 6.459445,12.485006 6.457986,12.384621 6.633421,12.382981 6.633534,12.25523 6.633396,12.175428 6.633453,12.167113 6.674327,12.167008 6.876471,12.167008" style="fill: white" />
</svg>
