<svg width="19.131698" height="19.131699">
<polygon type="contour" points="10.520074,8.801004 10.519222,8.822149 10.518228,8.91237 10.451719,8.91237 10.276151,8.912203 10.219498,8.912203 10.219324,8.742091 10.219324,8.684921 10.219308,8.646649 10.219473,8.64301 10.22041,8.612951 10.272184,8.613192 10.525868,8.605834" style="fill: white" /><polygon type="contour" points="9.60736,8.61365 9.621933,8.61367 9.711101,8.613239 9.711101,8.912776 9.4206,8.912776 9.4206,8.613239 9.50934,8.61367 9.5655,8.612599" style="fill: white" /><polygon type="contour" points="8.859515,8.613192 8.91129,8.612951 8.912392,8.64665 8.912392,8.679509 8.912374,8.684921 8.912201,8.886979 8.912201,8.912203 8.855548,8.912203 8.67998,8.91237 8.613472,8.91237 8.612478,8.822149 8.611626,8.801004 8.605831,8.605833" style="fill: white" /><polygon type="contour" points="9.153095,8.780517 9.16601,8.780521 9.178744,8.780531 9.245552,8.78045 9.245552,8.912981 9.178744,8.91283 9.153094,8.912816 9.087439,8.912933 9.087439,8.780405" style="fill: white" /><polygon type="contour" points="8.912814,9.153096 8.912828,9.178746 8.913096,9.245554 8.780448,9.245554 8.780529,9.178746 8.780519,9.166012 8.780515,9.153096 8.780403,9.087442 8.912931,9.087442" style="fill: white" /><polygon type="contour" points="9.245496,9.153097 9.245492,9.178745 9.245552,9.230059 9.245552,9.245554 9.178743,9.245494 9.153091,9.245494 9.101541,9.245554 9.086396,9.245554 9.087354,9.178746 9.087722,9.153096 9.087439,9.102313 9.087439,9.087442 9.153095,9.087724 9.179118,9.087724 9.245562,9.08739" style="fill: white" /><polygon type="contour" points="9.711101,9.245554 9.4206,9.245554 9.4206,9.08739 9.711101,9.08739" style="fill: white" /><polygon type="contour" points="9.952955,9.087355 9.978605,9.087724 10.029388,9.087442 10.04426,9.087442 10.043979,9.153096 10.044346,9.178746 10.045421,9.245554 9.978607,9.245494 9.96317,9.245554 9.886149,9.245554 9.886209,9.178745 9.886209,9.153094 9.886149,9.08628" style="fill: white" /><polygon type="contour" points="10.04426,8.912933 9.978605,8.912816 9.952955,8.91283 9.886149,8.912981 9.886149,8.78045 9.952956,8.780531 9.965689,8.780521 9.978605,8.780517 10.04426,8.780405" style="fill: white" /><polygon type="contour" points="10.351186,9.153096 10.351181,9.166012 10.351171,9.178746 10.351253,9.245554 10.21872,9.245554 10.218872,9.178746 10.218886,9.153096 10.218768,9.087442 10.351298,9.087442" style="fill: white" /><polygon type="contour" points="10.519365,9.544368 10.519263,9.565501 10.518829,9.69872 10.518889,9.711102 10.218793,9.711102 10.218793,9.475493 10.218925,9.420602 10.518889,9.420602" style="fill: white" /><polygon type="contour" points="10.519222,10.309554 10.520074,10.330697 10.525868,10.52587 10.272183,10.518512 10.22041,10.518754 10.219308,10.485053 10.219308,10.452194 10.219324,10.446784 10.219498,10.244723 10.219498,10.2195 10.276151,10.2195 10.451719,10.219333 10.518228,10.219333" style="fill: white" /><polygon type="contour" points="10.351171,9.952958 10.351181,9.965691 10.351186,9.978607 10.351298,10.044261 10.218768,10.044261 10.218886,9.978607 10.218872,9.952958 10.218604,9.886151 10.351253,9.886151" style="fill: white" /><polygon type="contour" points="9.711101,10.044199 9.4206,10.044199 9.4206,9.886151 9.711101,9.886151" style="fill: white" /><polygon type="contour" points="9.711101,9.711102 9.4206,9.711102 9.4206,9.420602 9.711101,9.420602" style="fill: white" /><polygon type="contour" points="10.044312,9.663547 10.044197,9.711102 9.886149,9.711102 9.886149,9.420602 10.044312,9.420602" style="fill: white" /><polygon type="contour" points="10.044345,9.952958 10.043979,9.978607 10.04426,10.02939 10.04426,10.044261 9.978605,10.04398 9.952582,10.04398 9.886139,10.044199 9.886205,9.978606 9.886209,9.952958 9.886149,9.901645 9.886149,9.886151 9.952956,9.886211 9.978608,9.886211 10.030158,9.886151 10.045303,9.886151" style="fill: white" /><polygon type="contour" points="9.952956,10.218874 9.978605,10.218888 10.04426,10.21877 10.04426,10.3513 9.978605,10.351188 9.965689,10.351183 9.952956,10.351173 9.886149,10.351255 9.886149,10.218606" style="fill: white" /><polygon type="contour" points="9.711101,10.518465 9.622359,10.518033 9.566095,10.519103 9.524339,10.518053 9.509767,10.518033 9.4206,10.518465 9.4206,10.218795 9.711101,10.218795" style="fill: white" /><polygon type="contour" points="9.245552,10.351255 9.178744,10.351173 9.16601,10.351183 9.153095,10.351188 9.087439,10.3513 9.087439,10.21877 9.153094,10.218888 9.178744,10.218874 9.245552,10.218606" style="fill: white" /><polygon type="contour" points="9.245552,9.886151 9.245492,9.952958 9.245496,9.978606 9.245562,10.044199 9.179118,10.04398 9.153094,10.04398 9.102311,10.044261 9.087439,10.044261 9.087722,9.978607 9.087722,9.952584 9.087503,9.886141 9.153094,9.886207 9.168286,9.886141" style="fill: white" /><polygon type="contour" points="9.245552,9.711102 9.087503,9.711102 9.087503,9.420602 9.245552,9.420602" style="fill: white" /><polygon type="contour" points="8.912907,9.711102 8.612812,9.711102 8.612334,9.587334 8.612436,9.566201 8.612872,9.432983 8.612812,9.420602 8.912907,9.420602" style="fill: white" /><polygon type="contour" points="8.912828,9.952958 8.912814,9.978607 8.912931,10.044261 8.780403,10.044261 8.780515,9.978607 8.780519,9.965691 8.780529,9.952958 8.780448,9.886151 8.913096,9.886151" style="fill: white" /><polygon type="contour" points="8.855548,10.2195 8.9122,10.2195 8.912374,10.389611 8.912374,10.446784 8.912392,10.485053 8.912225,10.488695 8.91129,10.518753 8.859516,10.518512 8.605832,10.52587 8.611626,10.330697 8.612478,10.309554 8.613472,10.219333 8.67998,10.219333" style="fill: white" />
</svg>
