<svg width="19.131698" height="19.131699">
<polygon type="contour" points="10.884687,10.612459 10.885368,10.88537 10.841909,10.884141 10.612978,10.887107 10.612231,10.862657 10.612231,10.839182 10.612119,10.837013 10.610798,10.614047 10.610798,10.610799 10.884518,10.610799" style="fill: white" /><polygon type="contour" points="10.716486,10.18644 10.716418,10.22165 10.716346,10.259464 10.716407,10.282751 10.609959,10.282751 10.609946,10.259465 10.610086,10.186439 10.610155,10.159359 10.61017,10.154494 10.716635,10.154494" style="fill: white" /><polygon type="contour" points="10.886115,9.500034 10.886473,9.514538 10.886788,9.531454 10.887326,9.542159 10.887603,9.566202 10.887327,9.590144 10.886787,9.600821 10.886473,9.617694 10.886115,9.632161 10.884637,9.830671 10.83527,9.830671 10.616112,9.830446 10.610912,9.830439 10.610912,9.301265 10.616112,9.301257 10.83527,9.301033 10.884637,9.301033" style="fill: white" /><polygon type="contour" points="10.841909,8.247563 10.885368,8.246334 10.884512,8.277782 10.883782,8.314365 10.883554,8.328874 10.884178,8.520905 10.610798,8.520905 10.612119,8.326404 10.612119,8.29469 10.612231,8.269046 10.612371,8.266474 10.612977,8.244597" style="fill: white" /><polygon type="contour" points="10.716407,8.848274 10.716346,8.871705 10.716418,8.910053 10.716486,8.945263 10.716635,8.97721 10.610007,8.97721 10.610086,8.945264 10.610076,8.869345 10.610119,8.851046 10.610119,8.848136 10.613366,8.848136" style="fill: white" /><polygon type="contour" points="10.283329,9.302042 10.283329,9.829662 10.269592,9.829702 10.186438,9.829376 10.159394,9.82951 10.154492,9.82951 10.154492,9.302194 10.186438,9.302328 10.269592,9.302002" style="fill: white" /><polygon type="contour" points="9.829274,8.871706 9.829326,8.910053 9.829373,8.945263 9.829509,8.972308 9.829509,8.97721 9.794012,8.977189 9.302175,8.977189 9.302326,8.945264 9.302373,8.910053 9.302423,8.871706 9.30235,8.851607 9.30233,8.848248 9.829366,8.848248" style="fill: white" /><polygon type="contour" points="10.18039,8.848173 10.259464,8.848173 10.279444,8.848274 10.28275,8.848274 10.282997,8.871706 10.282997,8.951311 10.282755,8.976611 10.259464,8.976708 10.186439,8.97717 10.159394,8.97721 10.154492,8.97721 10.154533,8.945264 10.154994,8.871706 10.155091,8.851607 10.155091,8.848148" style="fill: white" /><polygon type="contour" points="10.186439,8.415216 10.221647,8.415282 10.259464,8.415356 10.282749,8.415295 10.283565,8.518335 10.283565,8.521583 10.262357,8.521626 10.186439,8.521617 10.159357,8.521547 10.154492,8.521533 10.154492,8.415067" style="fill: white" /><polygon type="contour" points="9.566198,8.244106 9.600817,8.244915 9.617691,8.245229 9.632159,8.245587 9.663104,8.245968 9.83068,8.247215 9.830877,8.507623 9.830879,8.520896 9.781911,8.520857 9.434762,8.52051 9.301359,8.52051 9.301326,8.498051 9.301166,8.408541 9.30102,8.247215 9.46901,8.245968 9.500032,8.245588 9.514535,8.245229 9.531452,8.244915 9.550023,8.244069" style="fill: white" /><polygon type="contour" points="8.519469,8.269047 8.519469,8.292521 8.519581,8.29469 8.520902,8.517656 8.520902,8.520905 8.247181,8.520905 8.247012,8.519244 8.246332,8.246334 8.28979,8.247562 8.518723,8.244597" style="fill: white" /><polygon type="contour" points="8.977208,8.521533 8.94526,8.521617 8.869342,8.521626 8.851046,8.521583 8.848135,8.521583 8.848135,8.518335 8.848273,8.415295 8.871704,8.415356 8.910052,8.415282 8.94526,8.415216 8.977208,8.415067" style="fill: white" /><polygon type="contour" points="8.976706,8.871705 8.976609,8.875237 8.977208,8.97721 8.94526,8.977169 8.871705,8.976708 8.848268,8.976611 8.848172,8.951311 8.848172,8.871706 8.848273,8.851578 8.848273,8.848274 8.871705,8.848173 8.951309,8.848173 8.976609,8.848148" style="fill: white" /><polygon type="contour" points="8.521623,8.869344 8.521614,8.945263 8.521545,8.972344 8.521693,8.97721 8.415066,8.97721 8.415215,8.945263 8.415281,8.910054 8.415355,8.871705 8.415294,8.848274 8.518333,8.848136 8.521581,8.848136" style="fill: white" /><polygon type="contour" points="8.515587,9.301257 8.520788,9.301265 8.520811,9.411148 8.520811,9.830535 8.515587,9.830447 8.296429,9.830671 8.247063,9.830671 8.245585,9.631669 8.245226,9.617165 8.244912,9.600249 8.244373,9.589544 8.244097,9.565501 8.244373,9.541559 8.244912,9.530882 8.245226,9.514008 8.245585,9.499542 8.247063,9.301033 8.296429,9.301033" style="fill: white" /><polygon type="contour" points="8.519581,10.805301 8.519581,10.837013 8.519469,10.862656 8.519329,10.865229 8.518723,10.887107 8.28979,10.884141 8.246331,10.88537 8.247188,10.853921 8.247918,10.817338 8.248146,10.80283 8.24752,10.6108 8.33333,10.6108 8.517654,10.610799 8.520902,10.610799" style="fill: white" /><polygon type="contour" points="8.94526,10.610086 8.972342,10.610156 8.977208,10.610008 8.977208,10.716637 8.94526,10.716487 8.910052,10.716421 8.871704,10.716347 8.848273,10.716408 8.848273,10.609961 8.871705,10.609948" style="fill: white" /><polygon type="contour" points="8.521614,10.186439 8.521754,10.259465 8.521741,10.279446 8.521741,10.282751 8.415294,10.282751 8.415355,10.259464 8.415282,10.22165 8.415215,10.18644 8.415066,10.154494 8.521693,10.154494" style="fill: white" /><polygon type="contour" points="8.977208,9.82951 8.94526,9.829376 8.871705,9.829278 8.851605,9.82935 8.848268,9.82935 8.848268,9.302351 8.871705,9.302424 8.94526,9.302328 8.972305,9.302194 8.977208,9.302194" style="fill: white" /><polygon type="contour" points="8.977168,10.186439 8.976706,10.259464 8.976609,10.279418 8.976609,10.282755 8.951309,10.282998 8.871704,10.282998 8.851578,10.282751 8.848273,10.282751 8.848172,10.259464 8.848172,10.180392 8.848268,10.155093 8.871705,10.154996 8.94526,10.154535 8.972306,10.154494 8.977208,10.154494" style="fill: white" /><polygon type="contour" points="9.337688,10.154516 9.829526,10.154516 9.829373,10.18644 9.829327,10.221649 9.829275,10.259464 9.829347,10.279418 9.829347,10.282756 9.802942,10.282792 9.30233,10.282792 9.302423,10.259464 9.302372,10.221649 9.302326,10.18644 9.302192,10.159395 9.302192,10.154494" style="fill: white" /><polygon type="contour" points="9.830407,9.830409 9.301293,9.830409 9.301293,9.301296 9.830407,9.301296" style="fill: white" /><polygon type="contour" points="10.186439,10.154535 10.259463,10.154996 10.282876,10.155093 10.282997,10.180391 10.282997,10.259464 10.28275,10.279446 10.28275,10.282751 10.259463,10.282998 10.18039,10.282998 10.155091,10.282756 10.154995,10.259465 10.155091,10.255787 10.154492,10.154494" style="fill: white" /><polygon type="contour" points="10.279445,10.609961 10.28275,10.609961 10.28275,10.716409 10.259464,10.716348 10.221647,10.716421 10.186439,10.716487 10.154492,10.716637 10.154492,10.610008 10.186439,10.610087 10.259463,10.609948" style="fill: white" /><polygon type="contour" points="9.83049,10.649321 9.830681,10.773373 9.830681,10.884488 9.662689,10.885736 9.631667,10.886117 9.617163,10.886475 9.600247,10.88679 9.581676,10.887636 9.565501,10.887599 9.530882,10.88679 9.514007,10.886475 9.499539,10.886117 9.468595,10.885736 9.30102,10.884488 9.30102,10.773374 9.301266,10.610992 9.830434,10.610992" style="fill: white" />
</svg>
