<svg width="19.131698" height="19.131699">
<polygon type="contour" points="11.078804,10.920759 11.079352,10.942933 11.083455,11.083457 11.007844,11.082094 10.850075,11.080335 10.8075,11.079801 10.807548,10.945174 10.806854,10.806856 10.862845,10.806856 10.970226,10.806661 11.078818,10.806661" style="fill: white" /><polygon type="contour" points="10.542362,9.092878 10.542362,9.324388 10.542367,9.385526 10.455121,9.385293 10.405133,9.385293 10.325419,9.385534 10.299733,9.385534 10.299733,9.164513 10.299838,9.092884 10.397374,9.092674 10.454155,9.092674" style="fill: white" /><polygon type="contour" points="10.910632,8.704288 10.910626,8.831863 10.804855,8.831863 10.805373,8.734327 10.805679,8.72653 10.805679,8.677657 10.805743,8.589358 10.9106,8.589358" style="fill: white" /><polygon type="contour" points="11.079352,8.188771 11.078803,8.210945 11.078818,8.325042 10.970227,8.325042 10.862844,8.324848 10.828355,8.324848 10.80684,8.324863 10.807548,8.186529 10.8075,8.051901 10.850075,8.051365 11.007844,8.04961 11.083455,8.048248" style="fill: white" /><polygon type="contour" points="10.542344,8.221102 10.542344,8.242604 10.542659,8.326013 10.410268,8.326027 10.405172,8.326023 10.405171,8.326023 10.322633,8.325943 10.299838,8.325924 10.299838,8.221077 10.426519,8.221069" style="fill: white" /><polygon type="contour" points="10.397375,8.589108 10.406085,8.589464 10.522574,8.589358 10.542344,8.589358 10.542275,8.677657 10.542275,8.726529 10.542281,8.734326 10.542362,8.832018 10.454155,8.83153 10.397374,8.83153 10.382762,8.832018 10.299838,8.831863 10.300173,8.734326 10.300173,8.677235 10.299684,8.588463" style="fill: white" /><polygon type="contour" points="10.038822,8.588463 10.039089,8.703057 10.038818,8.808772 10.038818,8.831863 9.810557,8.831863 9.746168,8.831968 9.746409,8.73543 9.746409,8.684616 9.74602,8.610113 9.74602,8.588785 9.804819,8.587931" style="fill: white" /><polygon type="contour" points="10.039511,8.150865 10.039378,8.303056 10.039378,8.324833 9.807867,8.324833 9.746713,8.324863 9.746495,8.130417 9.746495,8.101039 9.746613,8.073701 9.746628,8.071177 9.747138,8.05312 9.804609,8.053796 9.821015,8.053904 10.039511,8.052861" style="fill: white" /><polygon type="contour" points="8.123855,8.04961 8.281623,8.051365 8.324199,8.051901 8.324152,8.186528 8.324846,8.324848 8.268856,8.324848 8.161472,8.325042 8.052883,8.325042 8.052895,8.210944 8.052348,8.188771 8.048245,8.048248" style="fill: white" /><polygon type="contour" points="8.831861,8.221076 8.831861,8.326847 8.734325,8.326329 8.726527,8.326023 8.677656,8.326023 8.589356,8.32596 8.589356,8.221102 8.704286,8.221069" style="fill: white" /><polygon type="contour" points="9.310684,8.053904 9.327089,8.053797 9.361285,8.053111 9.384562,8.05312 9.385087,8.0737 9.385087,8.09368 9.385204,8.101038 9.384987,8.300597 9.384987,8.324863 9.16046,8.324863 9.092323,8.32571 9.092254,8.220872 9.092254,8.052876 9.212861,8.051672" style="fill: white" /><polygon type="contour" points="9.546609,8.22128 9.565501,8.221402 9.584696,8.22128 9.633128,8.220992 9.633128,8.325833 9.584697,8.325884 9.546608,8.325884 9.515962,8.325851 9.498572,8.325833 9.498572,8.220992 9.514966,8.22096" style="fill: white" /><polygon type="contour" points="9.584848,8.588947 9.61636,8.589358 9.633914,8.589336 9.632967,8.676579 9.632967,8.726567 9.633128,8.808186 9.633128,8.832358 9.584697,8.832472 9.546608,8.832472 9.516172,8.832271 9.498572,8.832358 9.498733,8.735431 9.498733,8.684615 9.498572,8.610789 9.498572,8.588872 9.546608,8.588687" style="fill: white" /><polygon type="contour" points="9.385291,8.67658 9.385291,8.726568 9.385533,8.806281 9.385533,8.831968 9.321141,8.831863 9.092883,8.831863 9.09261,8.706656 9.092671,8.684669 9.092877,8.609362 9.092877,8.589339 9.324384,8.589339 9.385523,8.589336" style="fill: white" /><polygon type="contour" points="9.634817,9.092552 9.632497,9.32013 9.632497,9.385682 9.585079,9.385532 9.545923,9.385532 9.517793,9.385682 9.498662,9.385682 9.498662,9.320131 9.498572,9.092814 9.546608,9.092779 9.584925,9.092632 9.616791,9.092494" style="fill: white" /><polygon type="contour" points="10.039684,9.161154 10.039453,9.385118 9.746585,9.385118 9.746585,9.205229 9.746824,9.092276 9.80732,9.09221 10.039759,9.091943" style="fill: white" /><polygon type="contour" points="10.03907,9.546776 10.03907,9.585328 10.039208,9.616792 10.03915,9.634819 9.81157,9.632498 9.74602,9.632498 9.746168,9.585468 9.746321,9.547006 9.746287,9.518233 9.746287,9.498575 9.813644,9.498575 10.03915,9.496885" style="fill: white" /><polygon type="contour" points="10.039426,9.746827 10.039491,9.807323 10.039759,10.039761 9.970548,10.039686 9.746585,10.039455 9.746585,9.746586 9.926473,9.746586" style="fill: white" /><polygon type="contour" points="10.396271,9.746411 10.447086,9.746411 10.520217,9.746178 10.542367,9.746178 10.543238,9.807315 10.545297,10.03921 10.405173,10.038932 10.405174,10.03903 10.405173,10.03903 10.322928,10.03882 10.299838,10.03882 10.299838,9.810561 10.299733,9.74617" style="fill: white" /><polygon type="contour" points="10.543015,9.547005 10.543015,9.585093 10.542822,9.615739 10.542829,9.633129 10.455121,9.632969 10.405134,9.632969 10.323515,9.633129 10.299344,9.633129 10.299625,9.585093 10.299625,9.547005 10.299431,9.516175 10.299344,9.498575 10.39627,9.498735 10.447085,9.498735 10.520911,9.498575 10.542829,9.498575" style="fill: white" /><polygon type="contour" points="11.078299,9.326323 11.078277,9.385139 10.806677,9.385139 10.805857,9.326323 10.805992,9.092324 10.863577,9.092324 11.078855,9.091943" style="fill: white" /><polygon type="contour" points="10.91071,9.498575 10.910742,9.51497 10.910422,9.547006 10.910301,9.566201 10.910422,9.585092 10.91071,9.633129 10.886698,9.633129 10.805714,9.634039 10.805729,9.585174 10.805729,9.546927 10.805689,9.515308 10.805714,9.497665 10.830105,9.497665" style="fill: white" /><polygon type="contour" points="11.078813,9.970548 11.078855,10.039761 11.04336,10.039761 10.828646,10.03938 10.806869,10.03938 10.80684,9.971242 10.806705,9.746586 11.078575,9.746586" style="fill: white" /><polygon type="contour" points="10.910632,10.427415 10.9106,10.542346 10.805743,10.542346 10.805658,10.426084 10.805679,10.405174 10.805679,10.405173 10.805759,10.322633 10.805779,10.299839 10.910626,10.299839" style="fill: white" /><polygon type="contour" points="10.542593,10.397377 10.542237,10.406087 10.542344,10.522576 10.542344,10.542346 10.454044,10.542278 10.405172,10.542278 10.397374,10.542285 10.299684,10.542364 10.300173,10.454156 10.300173,10.405175 10.299838,10.322929 10.299838,10.299839 10.397374,10.300175 10.447032,10.300175 10.522339,10.299686 10.543238,10.299686" style="fill: white" /><polygon type="contour" points="10.397375,10.805375 10.405171,10.80568 10.454043,10.80568 10.542659,10.805691 10.542659,10.827308 10.542344,10.910602 10.426519,10.910634 10.299838,10.910627 10.299838,10.804856" style="fill: white" /><polygon type="contour" points="10.039446,10.910829 10.039446,11.078828 9.918838,11.080032 9.821015,11.0778 9.804609,11.077907 9.770414,11.078592 9.747138,11.078584 9.746614,11.058003 9.746614,11.038022 9.746495,11.030665 9.746713,10.831106 9.746713,10.806841 9.971241,10.806841 10.039378,10.805993" style="fill: white" /><polygon type="contour" points="8.831861,10.910628 8.704286,10.910634 8.589356,10.910602 8.589356,10.889099 8.589041,10.805691 8.72104,10.805674 8.809066,10.805761 8.831861,10.804856" style="fill: white" /><polygon type="contour" points="9.384987,10.806841 9.385205,11.001286 9.385205,11.030664 9.385087,11.058002 9.385073,11.060526 9.384562,11.078584 9.32709,11.077907 9.310683,11.0778 9.09219,11.078843 9.09219,10.980838 9.092323,10.828647 9.092323,10.805993 9.323832,10.805993" style="fill: white" /><polygon type="contour" points="9.546528,10.80573 9.584696,10.805817 9.615737,10.805851 9.633128,10.805871 9.633128,10.910712 9.616732,10.910744 9.584696,10.910424 9.565501,10.910303 9.546608,10.910425 9.498572,10.910712 9.497664,10.830107 9.497664,10.805715" style="fill: white" /><polygon type="contour" points="9.810557,10.299839 10.038818,10.299839 10.039089,10.425164 10.039029,10.447034 10.038822,10.522341 10.038822,10.542364 9.807314,10.542364 9.746177,10.542369 9.746409,10.455124 9.746409,10.405136 9.746168,10.325421 9.746168,10.299734" style="fill: white" /><polygon type="contour" points="9.632967,10.396272 9.632967,10.447088 9.633128,10.520914 9.633128,10.542831 9.584697,10.543017 9.546453,10.542757 9.51534,10.542346 9.497787,10.542369 9.498733,10.455123 9.498733,10.405136 9.498572,10.323517 9.498572,10.299346 9.546608,10.299627 9.584697,10.299627 9.615527,10.299433 9.633128,10.299346" style="fill: white" /><polygon type="contour" points="9.385291,10.396273 9.385291,10.447087 9.385523,10.520219 9.385523,10.542369 9.324385,10.542364 9.092877,10.542364 9.09261,10.428459 9.092671,10.405175 9.092883,10.322929 9.092883,10.299839 9.321141,10.299839 9.385533,10.299734" style="fill: white" /><polygon type="contour" points="9.385115,9.926474 9.384876,10.039428 9.324379,10.039493 9.091941,10.039761 9.092017,9.970548 9.092247,9.746586 9.385115,9.746586" style="fill: white" /><polygon type="contour" points="9.632497,9.811573 9.634817,10.039152 9.584925,10.039072 9.546373,10.039072 9.514909,10.03921 9.496883,10.039152 9.498662,9.811573 9.498662,9.746022 9.545923,9.74617 9.585078,9.74617 9.613364,9.746022 9.632497,9.746022" style="fill: white" /><polygon type="contour" points="9.613467,9.498575 9.633128,9.498575 9.633319,9.547005 9.633319,9.585092 9.633128,9.613468 9.633128,9.633129 9.584696,9.633321 9.546608,9.633321 9.518232,9.633129 9.498572,9.633129 9.498381,9.585092 9.498381,9.547005 9.498572,9.518234 9.498572,9.498575 9.546608,9.498384 9.584697,9.498384" style="fill: white" /><polygon type="contour" points="9.320128,9.498663 9.38568,9.498663 9.385529,9.546313 9.385377,9.585093 9.385413,9.613468 9.385413,9.633129 9.092814,9.633129 9.092777,9.585092 9.092629,9.546776 9.092493,9.514911 9.092551,9.496885" style="fill: white" /><polygon type="contour" points="9.161152,9.092017 9.385115,9.092249 9.385115,9.385118 9.205225,9.385118 9.092275,9.384877 9.092209,9.324381 9.091941,9.091943" style="fill: white" /><polygon type="contour" points="8.726526,9.092771 8.726526,9.092674 8.808771,9.092884 8.831861,9.092884 8.831861,9.321142 8.831967,9.385534 8.735428,9.385293 8.684613,9.385293 8.611482,9.385526 8.589333,9.385526 8.588461,9.324388 8.586404,9.092494" style="fill: white" /><polygon type="contour" points="8.831528,8.677545 8.831528,8.726527 8.831861,8.808773 8.831861,8.831863 8.734324,8.83153 8.684668,8.83153 8.60936,8.832018 8.588461,8.832018 8.589107,8.734326 8.589463,8.725603 8.589356,8.609127 8.589356,8.589358 8.677655,8.589427 8.726527,8.589427 8.734324,8.58942 8.832016,8.589339" style="fill: white" /><polygon type="contour" points="8.326041,8.705808 8.32594,8.809069 8.325922,8.831863 8.221074,8.831863 8.221067,8.703416 8.221101,8.589358 8.325958,8.589358" style="fill: white" /><polygon type="contour" points="8.303053,9.092324 8.32483,9.092324 8.32486,9.160461 8.324995,9.385118 8.053124,9.385118 8.052887,9.161155 8.052845,9.091943 8.088339,9.091943" style="fill: white" /><polygon type="contour" points="8.220104,9.746586 8.324995,9.746586 8.325021,9.970548 8.324996,10.039761 8.052845,10.039761 8.053399,9.80538 8.053423,9.746565 8.114268,9.746565" style="fill: white" /><polygon type="contour" points="8.325882,9.547005 8.325882,9.585092 8.325849,9.615739 8.325831,9.633129 8.22099,9.633129 8.220958,9.616734 8.221277,9.585092 8.221399,9.566201 8.221276,9.547005 8.22099,9.498575 8.325831,9.498575" style="fill: white" /><polygon type="contour" points="8.676577,9.498735 8.726566,9.498735 8.808184,9.498575 8.832357,9.498575 8.83247,9.547006 8.83247,9.585092 8.83227,9.615529 8.832357,9.633129 8.735428,9.632969 8.684614,9.632969 8.611482,9.633916 8.589334,9.633916 8.588944,9.585248 8.588944,9.546853 8.589355,9.51534 8.589333,9.497788" style="fill: white" /><polygon type="contour" points="8.831967,9.967191 8.831861,10.03882 8.734324,10.03903 8.677232,10.03903 8.586404,10.03921 8.588461,9.807315 8.589333,9.746178 8.676578,9.746411 8.726566,9.746411 8.806278,9.74617 8.831967,9.74617" style="fill: white" /><polygon type="contour" points="8.831861,10.299839 8.831528,10.397376 8.831528,10.454157 8.832016,10.542364 8.734325,10.542285 8.705574,10.542259 8.609124,10.542346 8.589356,10.542346 8.589426,10.454046 8.589426,10.405174 8.589107,10.397377 8.588461,10.299686 8.677233,10.300175 8.734324,10.300175 8.748938,10.299686" style="fill: white" /><polygon type="contour" points="8.326021,10.403669 8.326021,10.405174 8.326039,10.428686 8.325958,10.542346 8.221101,10.542346 8.221067,10.428287 8.221074,10.299839 8.325922,10.299839" style="fill: white" /><polygon type="contour" points="8.268856,10.806856 8.303344,10.806856 8.324861,10.806842 8.324152,10.945174 8.324199,11.079801 8.281623,11.080335 8.123855,11.082094 8.048245,11.083457 8.052347,10.942933 8.052896,10.920759 8.052883,10.806661 8.161472,10.806661" style="fill: white" />
</svg>
