<svg width="19.131698" height="19.131699">
<polygon type="contour" points="10.810385,11.458523 10.810385,11.47791 10.810895,11.588046 10.810895,11.604632 10.800086,11.604628 10.691605,11.60468 10.691605,11.773292 10.486592,11.773243 10.395511,11.77334 10.395476,11.670925 10.395511,11.658953 10.396381,11.604626 10.205245,11.604648 10.188319,11.604606 10.188712,11.48376 10.188712,11.463915 10.188319,11.36823 10.188414,11.354474 10.322565,11.3548 10.395787,11.3548 10.667285,11.354919 10.716915,11.354919 10.79848,11.354474 10.810895,11.354474" style="fill: white" /><polygon type="contour" points="11.604607,11.366756 11.604521,11.478034 11.773332,11.478034 11.774258,11.746736 11.775344,11.775345 11.76229,11.775242 11.750292,11.774332 11.478554,11.773634 11.478502,11.768795 11.478502,11.763966 11.47848,11.763715 11.478031,11.604525 11.354472,11.604632 11.354713,11.484097 11.354713,11.463914 11.354472,11.368926 11.354472,11.354474 11.458521,11.354715 11.477909,11.354715 11.588044,11.354474 11.604629,11.354474" style="fill: white" /><polygon type="contour" points="11.604646,10.205248 11.604624,10.395529 11.773338,10.395513 11.773241,10.486594 11.77329,10.691607 11.604737,10.691607 11.604629,10.744088 11.604629,10.810897 11.484096,10.810386 11.463912,10.810386 11.368924,10.810897 11.354472,10.810897 11.354917,10.724723 11.354917,10.691869 11.354798,10.425529 11.354798,10.395789 11.354944,10.395789 11.354472,10.208057 11.354472,10.188417 11.45852,10.18875 11.479833,10.188742 11.588817,10.18841 11.604602,10.18841" style="fill: white" /><polygon type="contour" points="10.810895,10.188417 10.810886,10.322568 10.810886,10.39579 10.810716,10.667287 10.810716,10.716916 10.810895,10.798482 10.810895,10.810897 10.72472,10.810718 10.691867,10.810718 10.425527,10.810888 10.395787,10.810888 10.395787,10.810883 10.208054,10.810897 10.188414,10.810897 10.188907,10.736047 10.188915,10.716904 10.189039,10.424026 10.189039,10.395834 10.189361,10.395834 10.188319,10.207106 10.188319,10.18841 10.323242,10.189109 10.337505,10.189109 10.337505,10.189135 10.668569,10.188983 10.716902,10.188983 10.799056,10.18841" style="fill: white" /><polygon type="contour" points="10.691605,7.358411 10.691468,7.463498 10.691928,7.527019 10.810895,7.527071 10.810385,7.647606 10.810385,7.667788 10.810895,7.762775 10.810895,7.777228 10.724721,7.776786 10.691867,7.776786 10.425527,7.776905 10.395788,7.776905 10.395787,7.776759 10.208054,7.777228 10.188414,7.777228 10.188747,7.67318 10.188712,7.667789 10.188761,7.667789 10.188319,7.542881 10.188319,7.527094 10.205244,7.527054 10.395516,7.527078 10.395476,7.358351 10.609364,7.358328" style="fill: white" /><polygon type="contour" points="11.775329,7.369027 11.774258,7.384967 11.773332,7.653669 11.604486,7.653669 11.604629,7.705561 11.604629,7.777228 11.484096,7.776989 11.463911,7.776989 11.368925,7.777228 11.354472,7.777228 11.354713,7.673181 11.354713,7.653792 11.354472,7.543654 11.354472,7.527071 11.366754,7.527092 11.478031,7.527182 11.478479,7.367988 11.478502,7.362908 11.47855,7.362528 11.478554,7.35807 11.750292,7.357372 11.775343,7.356359" style="fill: white" /><polygon type="contour" points="11.604626,8.331616 11.604679,8.440109 11.77329,8.440097 11.773241,8.645109 11.773338,8.736191 11.658952,8.736191 11.60476,8.73618 11.604599,8.80846 11.604603,8.83142 11.604603,8.943381 11.483758,8.942986 11.463912,8.942986 11.368228,8.943381 11.354472,8.943286 11.354798,8.809135 11.354798,8.735914 11.354917,8.464417 11.354917,8.414786 11.354472,8.333222 11.354472,8.320807 11.458521,8.321319 11.477908,8.321319 11.588045,8.320807 11.604629,8.320807" style="fill: white" /><polygon type="contour" points="10.810716,8.406981 10.810716,8.439835 10.810886,8.706174 10.810886,8.735913 10.810881,8.735913 10.810895,8.923644 10.810895,8.943286 10.736256,8.942794 10.716902,8.942786 10.424023,8.942662 10.395832,8.942662 10.395832,8.94234 10.207103,8.943381 10.188319,8.943381 10.189039,8.80846 10.189039,8.794197 10.189063,8.794197 10.188926,8.463131 10.188926,8.414799 10.188319,8.332646 10.188414,8.320807 10.322566,8.320816 10.395787,8.320816 10.667284,8.320987 10.716914,8.320987 10.798479,8.320807 10.810895,8.320807" style="fill: white" /><polygon type="contour" points="8.942735,8.404302 8.942721,8.434462 8.942594,8.707677 8.942594,8.73587 8.942282,8.73587 8.943291,8.924595 8.943291,8.943381 8.808391,8.942662 8.794195,8.942662 8.794195,8.942637 8.46313,8.942776 8.414798,8.942776 8.332644,8.943381 8.320805,8.943286 8.320815,8.809136 8.320815,8.735914 8.320985,8.464417 8.320985,8.414785 8.320805,8.333221 8.320805,8.320807 8.406978,8.320987 8.439833,8.320987 8.706172,8.320816 8.735912,8.320816 8.735912,8.32082 8.923642,8.320807 8.943284,8.320807" style="fill: white" /><polygon type="contour" points="8.736225,7.460775 8.736189,7.47275 8.735318,7.527078 8.926453,7.527054 8.943291,7.527095 8.942951,7.647943 8.942951,7.667788 8.943291,7.763469 8.943284,7.777228 8.809133,7.776905 8.735912,7.776905 8.464414,7.776786 8.414783,7.776786 8.333219,7.777228 8.320805,7.777228 8.321316,7.67318 8.321316,7.653792 8.320805,7.543653 8.320805,7.52707 8.331614,7.527074 8.440095,7.527024 8.440095,7.358411 8.645106,7.35846 8.736189,7.358364" style="fill: white" /><polygon type="contour" points="7.369409,7.356461 7.381407,7.357371 7.653142,7.35807 7.653195,7.362907 7.653195,7.367736 7.653217,7.367987 7.653667,7.527179 7.777227,7.527069 7.776987,7.647606 7.776987,7.667788 7.777227,7.762775 7.777227,7.777228 7.673178,7.776989 7.65379,7.776989 7.543652,7.777228 7.527068,7.777228 7.527089,7.764945 7.52718,7.653669 7.358369,7.653669 7.357442,7.384966 7.356357,7.356359" style="fill: white" /><polygon type="contour" points="7.776784,8.406981 7.776784,8.439835 7.776903,8.706174 7.776903,8.735914 7.776757,8.735914 7.777227,8.923644 7.777227,8.943285 7.673178,8.942952 7.667787,8.942986 7.667787,8.942936 7.542879,8.943381 7.527093,8.943381 7.527051,8.926454 7.527076,8.736173 7.358362,8.736191 7.358458,8.645109 7.35841,8.440097 7.526967,8.440097 7.527068,8.387615 7.527068,8.320807 7.647604,8.321319 7.667787,8.321319 7.762774,8.320807 7.777227,8.320807" style="fill: white" /><polygon type="contour" points="7.777227,10.188417 7.776903,10.322567 7.776903,10.395789 7.776784,10.667287 7.776784,10.716916 7.777227,10.798482 7.777227,10.810897 7.673179,10.810386 7.65379,10.810386 7.543651,10.810897 7.527068,10.810897 7.527071,10.800087 7.527021,10.691594 7.35841,10.691607 7.358468,10.507123 7.35835,10.395477 7.472748,10.395513 7.526938,10.395522 7.527101,10.323311 7.527093,10.300371 7.527093,10.18841 7.647942,10.188748 7.667786,10.188748 7.763469,10.18841" style="fill: white" /><polygon type="contour" points="8.942594,10.32331 8.942594,10.337507 8.942567,10.337507 8.942719,10.668572 8.942719,10.716903 8.943291,10.799059 8.943284,10.810897 8.809133,10.810888 8.735911,10.810888 8.464414,10.810718 8.414783,10.810718 8.33322,10.810897 8.320805,10.810897 8.320985,10.724723 8.320985,10.691868 8.320815,10.425529 8.320815,10.39579 8.320819,10.39579 8.320805,10.208058 8.320805,10.188417 8.404125,10.188966 8.414798,10.188971 8.707676,10.189109 8.735868,10.189109 8.735868,10.189421 8.924594,10.18841 8.943291,10.18841" style="fill: white" /><polygon type="contour" points="8.94295,11.458523 8.942953,11.478798 8.943291,11.588819 8.943291,11.604606 8.926452,11.604648 8.736182,11.604626 8.736224,11.773351 8.522335,11.773374 8.440095,11.773292 8.440232,11.668203 8.439771,11.604684 8.320805,11.604632 8.321316,11.484097 8.321316,11.463914 8.320805,11.368926 8.320805,11.354474 8.406978,11.354919 8.439833,11.354919 8.706172,11.3548 8.735912,11.3548 8.735912,11.354946 8.923641,11.354474 8.943284,11.354473" style="fill: white" /><polygon type="contour" points="7.776987,11.458523 7.776987,11.47791 7.777227,11.588046 7.777227,11.604632 7.764943,11.60461 7.653667,11.604522 7.653217,11.763715 7.653195,11.768795 7.653146,11.769175 7.653141,11.773634 7.381408,11.774332 7.356357,11.775345 7.35637,11.762676 7.357442,11.746736 7.358369,11.478034 7.527215,11.478034 7.527068,11.42614 7.527068,11.354474 7.647604,11.354715 7.667786,11.354715 7.762774,11.354474 7.777227,11.354474" style="fill: white" />
</svg>
