<svg width="19.131698" height="19.131699">
<polygon type="contour" points="16.831998,2.299703 16.831998,2.339055 16.831592,2.521099 16.831702,2.633201 16.778457,2.632998 16.725012,2.632998 16.723207,2.633075 16.682388,2.633039 16.664998,2.633014 16.641601,2.6329 16.498803,2.6329 16.498803,2.532064 16.498801,2.490101 16.498689,2.466704 16.498664,2.449314 16.498626,2.408493 16.498705,2.353242 16.498483,2.350651 16.498427,2.300074 16.660136,2.299699 16.661149,2.299525" style="fill: white" /><polygon type="contour" points="16.641705,3.250412 16.64176,3.315693 16.540973,3.315693 16.498907,3.315565 16.4988,3.200525 16.4988,3.120009 16.641602,3.120009" style="fill: white" /><polygon type="contour" points="14.577239,3.119916 14.577239,3.207971 14.57691,3.315732 14.172084,3.315732 14.159392,3.315615 13.844649,3.315472 13.837248,3.228141 13.840288,3.119867 14.118484,3.119867" style="fill: white" /><polygon type="contour" points="15.206046,3.120174 15.328311,3.120264 15.328311,3.250413 15.328312,3.315693 15.093641,3.315693 14.995893,3.315732 14.995908,3.207971 14.995908,3.119916" style="fill: white" /><polygon type="contour" points="15.328312,3.803387 15.328312,4.03806 15.328393,4.135809 15.160489,4.135673 14.996028,4.135673 14.995893,3.925654 14.995893,3.803309 15.206047,3.803309" style="fill: white" /><polygon type="contour" points="14.577165,3.971213 14.577165,4.135673 14.271861,4.135673 14.149589,4.135878 13.852831,4.136205 13.865359,3.832639 13.864867,3.804 13.918146,3.804017 14.57691,3.803309" style="fill: white" /><polygon type="contour" points="14.577165,4.554536 14.577069,4.796922 14.577229,4.84798 14.577051,5.293229 14.415696,5.296681 14.29774,5.276536 14.169743,5.270608 14.169268,5.196857 14.167277,5.090464 14.166744,5.079552 14.164159,5.034497 14.162578,5.024082 14.161782,4.969926 14.107619,4.969122 14.097203,4.967542 14.041235,4.964422 13.934844,4.962432 13.934426,4.962481 13.933129,4.962461 13.922491,4.962401 13.861093,4.961956 13.856332,4.834475 13.848344,4.55485 14.198513,4.554796 14.331886,4.554474" style="fill: white" /><polygon type="contour" points="15.206047,4.554791 15.328393,4.554791 15.327946,4.934222 15.327946,5.279764 15.162777,5.273568 14.99579,5.279726 14.99579,5.053052 14.996028,4.554537" style="fill: white" /><polygon type="contour" points="16.011787,4.895257 16.011693,5.291235 15.90356,5.294067 15.816135,5.287501 15.816135,4.94756 15.815968,4.554791 15.92373,4.554462 16.011787,4.554462" style="fill: white" /><polygon type="contour" points="16.662574,4.554622 16.680157,4.554945 16.721902,4.554645 16.725013,4.55489 16.778457,4.55489 16.781049,4.554717 16.831702,4.5547 16.83211,4.728163 16.83211,4.88749 16.736687,4.887668 16.736893,5.014254 16.73678,5.290032 16.600608,5.274528 16.49898,5.28187 16.499165,4.978801 16.499109,4.800318 16.499216,4.554686 16.60438,4.554686 16.641987,4.554537" style="fill: white" /><polygon type="contour" points="16.641586,3.998757 16.64181,4.135673 16.49901,4.135673 16.498727,3.983824 16.498907,3.803389 16.594068,3.803389 16.64176,3.803388" style="fill: white" /><polygon type="contour" points="16.011436,3.803389 16.011524,3.925653 16.011787,4.135794 15.888087,4.135809 15.815969,4.135809 15.815969,3.925653 15.816007,3.803388 15.953846,3.803388" style="fill: white" /><polygon type="contour" points="16.011436,3.250412 16.011436,3.315565 15.881288,3.315565 15.816007,3.315693 15.816007,3.177852 15.816136,3.120264 15.931175,3.120009 16.011693,3.120009" style="fill: white" /><polygon type="contour" points="15.939534,2.49004 16.011693,2.490101 16.011693,2.6329 15.881288,2.632794 15.816136,2.632794 15.816136,2.537631 15.816007,2.48994" style="fill: white" /><polygon type="contour" points="15.328312,2.48994 15.328312,2.590725 15.32831,2.632794 15.147876,2.632974 14.996028,2.63269 14.996028,2.48989 15.206047,2.489792" style="fill: white" /><polygon type="contour" points="14.577002,2.3 14.576812,2.353242 14.577057,2.409799 14.576757,2.451543 14.577078,2.469124 14.577165,2.489713 14.577165,2.596428 14.577015,2.632485 14.333724,2.632625 14.244312,2.632816 13.839512,2.633087 13.851135,2.502981 13.841824,2.394998 14.117073,2.394928 14.24407,2.395009 14.244211,2.299591 14.403539,2.299591" style="fill: white" /><polygon type="contour" points="2.471563,2.299699 2.633273,2.300074 2.632996,2.353243 2.632996,2.406691 2.633074,2.408494 2.633037,2.449314 2.633013,2.466704 2.632899,2.490101 2.632899,2.6329 2.4901,2.6329 2.466703,2.633014 2.449311,2.633039 2.408493,2.633075 2.353242,2.632998 2.35065,2.633218 2.299998,2.633201 2.300109,2.5211 2.299701,2.339054 2.299701,2.299703 2.470548,2.299525" style="fill: white" /><polygon type="contour" points="3.315691,2.590725 3.315563,2.632793 3.200523,2.6329 3.120008,2.6329 3.120008,2.490101 3.25041,2.489994 3.315691,2.48994" style="fill: white" /><polygon type="contour" points="3.25041,3.120264 3.315563,3.120264 3.315563,3.250412 3.315691,3.315693 3.177851,3.315693 3.120263,3.315565 3.120008,3.200525 3.120008,3.120009" style="fill: white" /><polygon type="contour" points="2.632793,3.250412 2.632793,3.315565 2.537631,3.315565 2.489939,3.315693 2.49004,3.192166 2.490099,3.120009 2.632899,3.120009" style="fill: white" /><polygon type="contour" points="2.632793,3.803389 2.632973,3.983824 2.632688,4.135673 2.489888,4.135673 2.490112,3.998758 2.489939,3.803388 2.590724,3.803388" style="fill: white" /><polygon type="contour" points="2.632483,4.554686 2.632592,4.800317 2.632535,4.978802 2.632721,5.28187 2.531092,5.274528 2.394919,5.290032 2.394805,5.014255 2.395007,4.887634 2.299589,4.88749 2.299589,4.728163 2.299998,4.554701 2.353241,4.55489 2.409798,4.554645 2.451542,4.554945 2.469124,4.554622 2.489711,4.554537 2.596426,4.554537" style="fill: white" /><polygon type="contour" points="3.243611,4.554792 3.315731,4.554792 3.315563,4.947561 3.315563,5.287501 3.22814,5.294067 3.119865,5.291412 3.119865,5.013216 3.119913,4.554462" style="fill: white" /><polygon type="contour" points="3.315691,4.038061 3.315731,4.135809 3.207969,4.135794 3.119913,4.135794 3.120173,3.925653 3.120263,3.803389 3.250411,3.803389 3.315691,3.803388" style="fill: white" /><polygon type="contour" points="4.135671,3.971213 4.135671,4.135673 3.925651,4.135809 3.803307,4.135809 3.803307,3.925653 3.803386,3.803388 4.038059,3.803388 4.135807,3.803309" style="fill: white" /><polygon type="contour" points="4.135807,3.243612 4.135807,3.315732 3.925651,3.315732 3.803386,3.315693 3.803386,3.177852 3.803387,3.120264 3.925652,3.120174 4.135792,3.119916" style="fill: white" /><polygon type="contour" points="4.135671,2.63269 3.925652,2.632592 3.803387,2.632794 3.803387,2.537632 3.803386,2.48994 3.998755,2.490113 4.135671,2.48989" style="fill: white" /><polygon type="contour" points="4.887666,2.395009 4.949274,2.395001 4.961272,2.395006 5.025177,2.394814 5.183576,2.395144 5.220885,2.395148 5.277931,2.395232 5.296778,2.498741 5.292187,2.633087 4.887387,2.632816 4.797974,2.632625 4.554685,2.632485 4.554685,2.527318 4.554535,2.489713 4.554621,2.469124 4.554944,2.451543 4.554644,2.4098 4.554888,2.406691 4.554888,2.353243 4.554715,2.350652 4.554698,2.3 4.728161,2.299591 4.887488,2.299591" style="fill: white" /><polygon type="contour" points="5.284525,3.227445 5.28705,3.315472 4.972306,3.315615 4.55479,3.315732 4.55446,3.207971 4.55446,3.119916 5.013214,3.119867 5.291411,3.119867" style="fill: white" /><polygon type="contour" points="5.213552,3.804017 5.266832,3.804 5.281265,3.991576 5.278869,4.136206 4.98211,4.135879 4.554535,4.135673 4.554535,3.971213 4.55479,3.803309 4.959616,3.803309" style="fill: white" /><polygon type="contour" points="4.933187,4.554796 5.283356,4.55485 5.275996,4.754893 5.270605,4.961956 5.196853,4.962431 5.090462,4.964422 5.079551,4.964955 5.034494,4.967542 5.024079,4.969122 4.969919,4.969926 4.96912,5.024081 4.96754,5.034497 4.964953,5.079551 4.96442,5.090464 4.96243,5.196856 4.962479,5.197274 4.962458,5.198571 4.962401,5.209208 4.961954,5.270608 4.833958,5.276536 4.716003,5.296681 4.554647,5.293229 4.55447,4.84798 4.554629,4.796922 4.554535,4.554537 4.799814,4.554474" style="fill: white" /><polygon type="contour" points="4.135671,4.85984 4.135908,5.279726 3.940315,5.288236 3.803753,5.279764 3.803753,4.934223 3.803307,4.554792 3.971211,4.554537 4.135671,4.554537" style="fill: white" /><polygon type="contour" points="2.353241,16.498706 2.406688,16.498706 2.408492,16.498629 2.449311,16.498666 2.466704,16.49869 2.490099,16.498803 2.632899,16.498803 2.632899,16.641603 2.633013,16.665 2.633037,16.68239 2.633074,16.72321 2.632996,16.778459 2.633216,16.781052 2.633273,16.83163 2.471563,16.832004 2.470548,16.832179 2.299701,16.831999 2.299701,16.79265 2.300109,16.610603 2.299998,16.498502" style="fill: white" /><polygon type="contour" points="4.833958,13.855168 4.961954,13.861096 4.962401,13.922495 4.962458,13.933132 4.962479,13.934429 4.96243,13.934847 4.96442,14.041237 4.964953,14.05215 4.96754,14.097207 4.96912,14.10762 4.969919,14.16178 5.024079,14.16258 5.034494,14.164161 5.090463,14.16728 5.196853,14.16927 5.197272,14.169221 5.198567,14.169242 5.209206,14.169301 5.270606,14.169746 5.275366,14.297227 5.283355,14.576853 4.933186,14.576906 4.799814,14.577231 4.554535,14.577167 4.554629,14.33478 4.55447,14.283722 4.554647,13.838474 4.716003,13.835022" style="fill: white" /><polygon type="contour" points="2.632721,13.849833 2.632535,14.1529 2.632592,14.331386 2.632483,14.577018 2.527318,14.577018 2.489711,14.577166 2.469123,14.577082 2.451542,14.576757 2.409799,14.57706 2.406688,14.576815 2.353241,14.576815 2.35065,14.576986 2.299998,14.577004 2.299589,14.403538 2.299589,14.244212 2.395007,14.244037 2.394999,14.182426 2.395004,14.170428 2.394813,14.106526 2.395142,13.948125 2.395146,13.910817 2.39523,13.853769 2.526838,13.844192" style="fill: white" /><polygon type="contour" points="3.315563,13.844203 3.315563,14.184142 3.315731,14.576912 3.20797,14.577242 3.119913,14.577242 3.119913,14.236446 3.120008,13.840469 3.22814,13.837637" style="fill: white" /><polygon type="contour" points="3.968921,13.858136 4.135908,13.851979 4.135908,14.078651 4.135671,14.577167 3.925651,14.576912 3.803307,14.576912 3.803753,14.197478 3.803753,13.851939" style="fill: white" /><polygon type="contour" points="3.971211,14.99603 4.135671,14.99603 4.135807,15.206048 4.135807,15.328394 3.925652,15.328394 3.803386,15.328314 3.803386,15.093642 3.803307,14.995895" style="fill: white" /><polygon type="contour" points="3.315731,15.206047 3.315691,15.328314 3.177851,15.328314 3.120263,15.328313 3.120173,15.206047 3.119913,14.99591 3.24361,14.995895 3.315731,14.995895" style="fill: white" /><polygon type="contour" points="2.632973,15.147878 2.632793,15.328313 2.537631,15.328313 2.489939,15.328314 2.490112,15.132944 2.489888,14.99603 2.632688,14.99603" style="fill: white" /><polygon type="contour" points="2.632793,15.816137 2.632899,15.931177 2.632899,16.011694 2.490098,16.011694 2.489993,15.881289 2.489939,15.816009 2.590724,15.816009" style="fill: white" /><polygon type="contour" points="3.315691,15.953849 3.315563,16.011437 3.200523,16.011694 3.120008,16.011694 3.120263,15.881288 3.120263,15.816137 3.25041,15.816137 3.315691,15.816009" style="fill: white" /><polygon type="contour" points="3.250411,16.49891 3.315563,16.49891 3.315563,16.594071 3.315691,16.641762 3.192165,16.641663 3.120008,16.641604 3.120008,16.498802" style="fill: white" /><polygon type="contour" points="4.135671,16.499013 4.135671,16.641813 3.998756,16.641588 3.981265,16.641519 3.803386,16.641762 3.803386,16.540977 3.803387,16.498909 3.983824,16.498729" style="fill: white" /><polygon type="contour" points="4.135792,15.923732 4.135792,16.011788 3.925651,16.011527 3.803387,16.011438 3.803387,15.881288 3.803386,15.816009 4.038058,15.816009 4.135807,15.81597" style="fill: white" /><polygon type="contour" points="5.26634,15.299064 5.266832,15.327704 5.213553,15.327686 4.55479,15.328394 4.554535,15.16049 4.554535,14.99603 4.859838,14.99603 4.98211,14.995825 5.278869,14.995498" style="fill: white" /><polygon type="contour" points="4.972307,15.816089 5.28705,15.816232 5.294452,15.903562 5.291411,16.011836 5.013214,16.011836 4.55446,16.011787 4.55446,15.923732 4.55479,15.81597 4.959615,15.81597" style="fill: white" /><polygon type="contour" points="5.275522,16.670528 5.277932,16.736473 5.220885,16.736556 5.183576,16.73656 5.025176,16.736886 4.961273,16.736697 4.949275,16.736701 4.887632,16.736691 4.887488,16.832112 4.728161,16.832114 4.554698,16.831704 4.554888,16.778459 4.554644,16.721903 4.554944,16.680159 4.554621,16.662579 4.554535,16.64199 4.554535,16.535273 4.554685,16.499217 4.797974,16.499077 4.887387,16.498887 5.292141,16.498736" style="fill: white" /><polygon type="contour" points="16.011693,16.641604 15.881287,16.641709 15.816007,16.641762 15.816007,16.540976 15.816136,16.49891 15.931175,16.498802 16.011693,16.498802" style="fill: white" /><polygon type="contour" points="15.328311,16.59407 15.328312,16.641762 15.132943,16.641588 14.996028,16.641813 14.996028,16.499013 15.206047,16.499111 15.328311,16.49891" style="fill: white" /><polygon type="contour" points="14.244312,16.498887 14.333724,16.499077 14.577015,16.499217 14.577015,16.604385 14.577165,16.64199 14.577079,16.662579 14.576757,16.68016 14.577057,16.721903 14.576813,16.725014 14.576813,16.77846 14.576984,16.781051 14.577002,16.831704 14.403538,16.832112 14.244211,16.832112 14.244036,16.736691 14.117072,16.736774 13.84204,16.736599 13.851254,16.629295 13.839512,16.498616" style="fill: white" /><polygon type="contour" points="14.577239,15.923731 14.577239,16.011787 14.118484,16.011836 13.840288,16.011836 13.847174,15.904258 13.844649,15.816232 14.159392,15.816088 14.57691,15.81597" style="fill: white" /><polygon type="contour" points="14.149589,14.995825 14.577165,14.99603 14.577165,15.16049 14.57691,15.328394 14.172085,15.328394 13.918145,15.327686 13.864867,15.327704 13.850435,15.140128 13.852831,14.995499" style="fill: white" /><polygon type="contour" points="14.577052,13.838474 14.577229,14.283722 14.577069,14.33478 14.577164,14.577167 14.331886,14.577231 14.198513,14.576906 13.848344,14.576853 13.855703,14.376808 13.861092,14.169746 13.922491,14.169301 13.933129,14.169242 13.934426,14.169221 13.934844,14.16927 14.041235,14.16728 14.052148,14.166747 14.097204,14.164161 14.107619,14.16258 14.161782,14.16178 14.162578,14.107621 14.164159,14.097207 14.166744,14.05215 14.167278,14.041237 14.169267,13.934847 14.169218,13.934429 14.169239,13.933132 14.169298,13.922494 14.169744,13.861096 14.29774,13.855167 14.415696,13.835022" style="fill: white" /><polygon type="contour" points="15.327946,13.851939 15.327946,14.19748 15.328393,14.576913 15.160489,14.577167 14.996028,14.577167 14.996028,14.271863 14.99579,13.851979 15.191384,13.843466" style="fill: white" /><polygon type="contour" points="16.011833,13.840291 16.011833,14.118486 16.011787,14.577242 15.888086,14.576913 15.815968,14.576913 15.816135,14.184144 15.816135,13.844203 15.90356,13.837637" style="fill: white" /><polygon type="contour" points="16.670878,13.857357 16.736469,13.853769 16.736553,13.910817 16.736556,13.948126 16.736884,14.106526 16.736693,14.170428 16.736697,14.182426 16.736688,14.244071 16.83211,14.244212 16.83211,14.403539 16.831702,14.577004 16.778458,14.576815 16.721901,14.57706 16.680157,14.576757 16.662575,14.577082 16.641987,14.577167 16.535272,14.577167 16.499216,14.577018 16.499109,14.331386 16.499165,14.152901 16.498904,13.849766" style="fill: white" /><polygon type="contour" points="16.641586,15.132945 16.64176,15.328314 16.540974,15.328314 16.498907,15.328312 16.498727,15.147878 16.49901,14.99603 16.64181,14.99603" style="fill: white" /><polygon type="contour" points="15.923731,14.99591 16.011787,14.99591 16.011524,15.206048 16.011436,15.328313 15.881287,15.328313 15.816007,15.328314 15.816007,15.093643 15.815969,14.995895" style="fill: white" /><polygon type="contour" points="15.328393,15.206047 15.328312,15.328314 15.093641,15.328314 14.995893,15.328394 14.996028,15.16049 14.996028,14.99603 15.206046,14.995895 15.328393,14.995895" style="fill: white" /><polygon type="contour" points="15.328312,15.816009 15.328312,15.953849 15.328311,16.011438 15.206047,16.011527 14.995908,16.011788 14.995893,15.888089 14.995893,15.81597 15.206047,15.81597" style="fill: white" /><polygon type="contour" points="16.011436,15.816137 16.011693,15.931176 16.011693,16.011694 15.881287,16.011438 15.816136,16.011438 15.816136,15.881288 15.816007,15.816009 15.953845,15.816009" style="fill: white" /><polygon type="contour" points="16.641661,15.939536 16.641602,16.011694 16.4988,16.011694 16.498907,15.881289 16.498907,15.816137 16.594069,15.816137 16.64176,15.816009" style="fill: white" /><polygon type="contour" points="16.831702,16.498502 16.831592,16.610604 16.831998,16.792649 16.831998,16.832 16.66115,16.83218 16.660137,16.832003 16.498427,16.83163 16.498704,16.778459 16.498704,16.725014 16.498626,16.723209 16.498664,16.68239 16.498689,16.664999 16.498801,16.641603 16.498801,16.498803 16.641602,16.498803 16.664997,16.49869 16.682388,16.498665 16.723207,16.498629 16.778458,16.498706 16.78105,16.498486" style="fill: white" />
</svg>
