<svg width="19.131698" height="19.131699">
<polygon type="contour" points="10.380632,8.597963 10.381701,8.598103 10.412154,8.6069 10.413199,8.607203 10.440947,8.620738 10.441899,8.621203 10.467618,8.639473 10.4685,8.640099 10.490833,8.662435 10.491598,8.6632 10.509872,8.688921 10.510498,8.689802 10.524034,8.717551 10.524498,8.718502 10.533298,8.748957 10.5336,8.750001 10.537662,8.781135 10.537801,8.782202 10.536447,8.813333 10.536401,8.8144 10.530308,8.845533 10.530099,8.846601 10.518595,8.875702 10.5182,8.876701 10.501956,8.903773 10.501398,8.904702 10.480399,8.929202 10.480399,10.202501 10.500703,10.22619 10.501398,10.227001 10.517643,10.254074 10.518201,10.255003 10.529704,10.284103 10.530099,10.285102 10.536191,10.316235 10.536401,10.317303 10.537754,10.348434 10.537801,10.349502 10.533739,10.380634 10.533601,10.381702 10.5248,10.412157 10.524499,10.4132 10.510963,10.440949 10.510498,10.441901 10.492225,10.467621 10.491599,10.468502 10.4685,10.491601 10.44278,10.509874 10.441899,10.5105 10.41415,10.524037 10.413198,10.524502 10.382745,10.533299 10.3817,10.533602 10.350567,10.537664 10.3495,10.537803 10.318369,10.536449 10.317302,10.536403 10.286168,10.53031 10.2851,10.530101 10.255998,10.518597 10.255,10.518203 10.227928,10.501958 10.226999,10.5014 10.202499,10.480402 8.9292,10.480402 8.905512,10.500704 8.9047,10.5014 8.877628,10.517645 8.8767,10.518202 8.847599,10.529706 8.8466,10.530101 8.815467,10.536193 8.814399,10.536403 8.783268,10.537756 8.7822,10.537803 8.751067,10.533741 8.749998,10.533602 8.719545,10.524804 8.7185,10.524501 8.690752,10.510965 8.689801,10.510501 8.66408,10.492227 8.663198,10.491601 8.6401,10.468503 8.621829,10.442783 8.621202,10.441901 8.607666,10.414152 8.607202,10.413201 8.598402,10.382746 8.5981,10.381702 8.594038,10.350569 8.5939,10.349502 8.595253,10.318371 8.595299,10.317304 8.601392,10.28617 8.601602,10.285101 8.613105,10.256001 8.613499,10.255003 8.629742,10.22793 8.6303,10.227002 8.651301,10.202502 8.651301,8.929201 8.630996,8.905514 8.6303,8.904702 8.614057,8.877629 8.6135,8.876701 8.601996,8.8476 8.601602,8.846602 8.595508,8.815468 8.5953,8.814401 8.593946,8.78327 8.5939,8.782202 8.597961,8.751069 8.598099,8.750002 8.6069,8.719546 8.607201,8.718503 8.620737,8.690754 8.621202,8.689802 8.639473,8.664082 8.640099,8.663201 8.662433,8.640865 8.663199,8.640099 8.688918,8.621829 8.6898,8.621203 8.717549,8.607667 8.7185,8.607203 8.748954,8.598405 8.749998,8.598103 8.781133,8.59404 8.7822,8.593902 8.813331,8.595255 8.814398,8.595301 8.845532,8.601394 8.846601,8.601604 8.875701,8.613107 8.876699,8.613501 8.903772,8.629744 8.904699,8.6303 8.929199,8.651302 10.2025,8.651302 10.226188,8.630996 10.226999,8.630301 10.254071,8.614059 10.254999,8.613502 10.284101,8.601998 10.2851,8.601603 10.316233,8.595511 10.317301,8.595302 10.348432,8.593948 10.3495,8.593902" style="fill: white" />
</svg>
