<svg width="19.131698" height="19.131699">
<polygon type="contour" points="10.504025,8.492155 10.640157,8.491544 10.639215,8.741552 10.639187,8.778999 10.556192,8.779255 10.556192,9.420602 10.641755,9.420602 10.639628,9.560767 10.639602,9.566201 10.639628,9.571609 10.641755,9.711102 10.556192,9.711102 10.556192,10.352494 10.608168,10.352746 10.639187,10.352705 10.639215,10.390152 10.640157,10.64016 10.504025,10.639549 10.354315,10.64102 10.352494,10.556194 9.711101,10.556194 9.711101,10.639098 9.645957,10.639209 9.573361,10.639485 9.5655,10.639707 9.557679,10.639486 9.485429,10.639209 9.4206,10.639098 9.4206,10.556194 8.779234,10.556194 8.777385,10.64102 8.627674,10.639549 8.491543,10.64016 8.492485,10.390152 8.492512,10.352705 8.575509,10.352449 8.575509,9.711102 8.489945,9.711102 8.492072,9.570936 8.492098,9.565502 8.492072,9.560094 8.489945,9.420602 8.575509,9.420602 8.575509,8.779211 8.523531,8.778958 8.492512,8.778999 8.492485,8.741552 8.491543,8.491544 8.627674,8.492155 8.777385,8.490684 8.779206,8.575511 9.4206,8.575511 9.4206,8.492605 9.485429,8.492495 9.557679,8.492218 9.565535,8.491997 9.573361,8.492218 9.645957,8.492495 9.711101,8.492605 9.711101,8.575511 10.352465,8.575511 10.354315,8.490684" style="fill: white" />
</svg>
