<svg width="19.131698" height="19.131699">
<polygon type="contour" points="9.170095,10.383916 9.170132,10.398436 9.170132,10.501248 9.095022,10.501176 9.084281,10.501188 9.073822,10.501199 9.008028,10.50141 8.996227,10.501444 8.996227,10.384024 9.009121,10.384024 9.073822,10.383597 9.095021,10.383574" style="fill: white" /><polygon type="contour" points="8.747453,10.395082 8.747801,10.610548 8.747941,10.61404 8.747941,10.641243 8.746871,10.669586 8.662797,10.668533 8.462269,10.669433 8.462821,10.523067 8.46287,10.384436 8.5388,10.384436 8.721082,10.384248 8.747453,10.384248" style="fill: white" /><polygon type="contour" points="8.747784,9.961607 8.747784,9.973685 8.748126,10.036681 8.748102,10.05788 8.747676,10.135475 8.630259,10.135475 8.630503,10.05788 8.630515,10.047421 8.630527,10.036681 8.630396,9.972686 8.630377,9.961498 8.733227,9.961498" style="fill: white" /><polygon type="contour" points="8.748088,9.711298 8.737312,9.711102 8.458983,9.711102 8.460021,9.642616 8.460392,9.565501 8.460022,9.488759 8.458983,9.420602 8.748088,9.420602" style="fill: white" /><polygon type="contour" points="9.170204,9.711102 9.073821,9.711102 8.996227,9.711374 8.996227,9.420602 9.170204,9.420602" style="fill: white" /><polygon type="contour" points="9.170204,9.961498 9.170204,9.973612 9.170306,10.03668 9.170306,10.058459 9.170095,10.135513 9.158015,10.135513 9.095022,10.13538 9.073821,10.13537 8.996226,10.135475 8.996188,10.049245 8.99632,10.03668 8.996189,9.961607 9.073242,9.961396 9.095021,9.961396" style="fill: white" /><polygon type="contour" points="9.711101,10.135475 9.420328,10.135475 9.4206,10.122732 9.4206,9.961498 9.711101,9.961498" style="fill: white" /><polygon type="contour" points="9.711101,9.711102 9.4206,9.711102 9.4206,9.420602 9.711101,9.420602" style="fill: white" /><polygon type="contour" points="9.711101,9.170206 9.4206,9.170206 9.4206,8.996229 9.711101,8.996229" style="fill: white" /><polygon type="contour" points="9.170306,9.073244 9.170306,9.095022 9.170204,9.170206 9.15809,9.170206 9.095021,9.170308 9.073822,9.170874 8.996227,9.172659 8.996227,9.159946 8.99633,9.095034 8.99633,9.073823 8.996227,8.996229 9.082457,8.996192 9.095022,8.996323 9.17036,8.996192" style="fill: white" /><polygon type="contour" points="8.747676,9.009123 8.748102,9.073823 8.748126,9.095022 8.747783,9.170362 8.733226,9.170206 8.630377,9.170206 8.630527,9.095022 8.630515,9.084282 8.630503,9.073823 8.630292,9.00803 8.630259,8.996229 8.747676,8.996229" style="fill: white" /><polygon type="contour" points="8.747941,8.490461 8.747801,8.521156 8.747801,8.561592 8.747453,8.747456 8.736617,8.747456 8.553541,8.747268 8.46287,8.747268 8.462821,8.608636 8.462269,8.462271 8.662798,8.463171 8.746871,8.462117" style="fill: white" /><polygon type="contour" points="9.073821,8.630504 9.084281,8.630516 9.095022,8.630528 9.159014,8.630398 9.170204,8.630378 9.170204,8.733228 9.17036,8.747786 9.158015,8.747786 9.095022,8.748128 9.073822,8.748104 8.996227,8.747678 8.996227,8.63026" style="fill: white" /><polygon type="contour" points="9.650972,8.462738 9.711101,8.462969 9.711101,8.74809 9.4206,8.74809 9.4206,8.462969 9.480438,8.462739 9.565874,8.460344" style="fill: white" /><polygon type="contour" points="10.4689,8.463171 10.669431,8.462271 10.668879,8.608636 10.66883,8.747268 10.592899,8.747268 10.410617,8.747456 10.384246,8.747456 10.384246,8.73662 10.383897,8.521156 10.383758,8.517663 10.383758,8.490461 10.384828,8.462117" style="fill: white" /><polygon type="contour" points="10.135473,8.747678 10.122578,8.747678 10.057877,8.748104 10.036678,8.748128 9.961341,8.747786 9.961496,8.733228 9.961496,8.630378 10.036677,8.630528 10.047418,8.630516 10.057877,8.630504 10.123672,8.630294 10.135473,8.63026" style="fill: white" /><polygon type="contour" points="10.036677,8.996323 10.057878,8.996333 10.135473,8.996229 10.135473,9.082124 10.135368,9.095034 10.135473,9.17266 10.057877,9.170874 10.036678,9.170308 9.961496,9.170206 9.961496,9.15809 9.961395,9.095022 9.961395,9.073244 9.961341,8.996192 9.973684,8.996192" style="fill: white" /><polygon type="contour" points="10.501198,9.073823 10.501186,9.084282 10.501174,9.095022 10.501304,9.159017 10.501324,9.170206 10.398472,9.170206 10.383915,9.170362 10.383915,9.158018 10.383573,9.095022 10.383597,9.073823 10.384023,8.996229 10.501442,8.996229" style="fill: white" /><polygon type="contour" points="10.671678,9.489087 10.671308,9.566202 10.671677,9.642944 10.672717,9.711102 10.383612,9.711102 10.383612,9.420602 10.672717,9.420602" style="fill: white" /><polygon type="contour" points="10.578158,10.384436 10.66883,10.384436 10.668879,10.523067 10.669431,10.669433 10.4689,10.668533 10.384827,10.669586 10.383758,10.641243 10.383897,10.610547 10.383897,10.57011 10.384246,10.384248 10.395082,10.384248" style="fill: white" /><polygon type="contour" points="10.398472,9.961498 10.501324,9.961498 10.501174,10.036681 10.501186,10.047421 10.501197,10.05788 10.501407,10.123673 10.501442,10.135475 10.384023,10.135475 10.384023,10.122581 10.383596,10.05788 10.383573,10.036681 10.383915,9.961342" style="fill: white" /><polygon type="contour" points="10.135473,9.711102 9.961496,9.711102 9.961496,9.420602 10.135473,9.420602" style="fill: white" /><polygon type="contour" points="10.135473,9.971756 10.135368,10.036669 10.135368,10.057881 10.135473,10.135475 10.049574,10.135475 10.036667,10.13537 9.959041,10.135475 9.960826,10.057881 9.961395,10.03668 9.961496,9.961498 9.973609,9.961498 10.036678,9.961396 10.057878,9.960828 10.135473,9.959043" style="fill: white" /><polygon type="contour" points="10.057877,10.383598 10.135473,10.384024 10.135473,10.501444 10.057878,10.5012 10.047418,10.501188 10.036677,10.501176 9.972685,10.501305 9.961496,10.501326 9.961496,10.398473 9.961341,10.383916 9.973684,10.383916 10.036677,10.383573" style="fill: white" /><polygon type="contour" points="9.711101,10.668735 9.650972,10.668965 9.565501,10.67136 9.480438,10.668965 9.4206,10.668735 9.4206,10.409854 9.420469,10.394363 9.420404,10.383614 9.711101,10.383614" style="fill: white" />
</svg>
