<svg width="19.131698" height="19.131699">
<polygon type="contour" points="6.108976,8.329126 6.109036,8.344752 6.109072,8.402456 6.109294,8.45384 6.10945,8.492485 6.109665,8.606035 6.11037,8.849497 6.11037,8.900716 6.110716,8.988042 6.110882,9.051346 6.110943,9.125271 6.110964,9.132183 6.111531,9.280933 6.111766,9.370567 6.111766,9.518418 6.111841,9.536632 6.112735,9.547272 6.112735,9.566201 6.11184,9.595277 6.111766,9.613423 6.111766,9.761274 6.111531,9.85077 6.110965,9.999519 6.110882,10.080357 6.110716,10.143661 6.11037,10.230987 6.11037,10.282206 6.109939,10.509026 6.109449,10.639218 6.109234,10.675415 6.109138,10.704002 6.108987,10.743407 6.108903,10.787571 6.108966,10.796935 6.108945,10.803334 5.285756,10.803846 3.853199,10.802902 3.853255,10.756847 3.853255,10.73656 3.853262,10.724932 3.853262,8.394769 3.852963,8.369118 3.853106,8.328896 5.421706,8.328896" style="fill: white" /><polygon type="contour" points="4.819445,7.781002 6.107872,7.781082 6.107909,7.796564 6.108168,7.824322 6.108211,7.836858 6.107709,7.84795 6.10787,7.904669 6.108448,8.093919 6.110116,8.096511 6.108508,8.161898 6.108574,8.165818 6.108525,8.178394 5.233855,8.178087 3.853176,8.178566 3.853349,7.950202 3.853349,7.780795" style="fill: white" /><polygon type="contour" points="4.910555,7.226088 6.106474,7.226336 6.106511,7.239539 6.106536,7.252903 6.106856,7.309635 6.10647,7.365447 6.107194,7.589709 6.107592,7.589707 6.107281,7.590377 6.107558,7.601174 6.107553,7.601184 6.107558,7.623557 6.107501,7.631301 5.07235,7.631237 3.853505,7.631659 3.853285,7.405058 3.853134,7.225509" style="fill: white" /><polygon type="contour" points="4.909897,6.67099 6.105271,6.67099 6.105512,6.697202 6.105546,6.76832 6.106338,7.052743 6.106156,7.054994 6.106156,7.068308 6.106158,7.071115 6.106124,7.07606 4.919312,7.075995 3.853505,7.07656 3.853286,6.84996 3.853134,6.67068" style="fill: white" /><polygon type="contour" points="3.965138,3.663087 3.996359,3.663161 3.995865,3.758066 5.917753,3.758066 5.917722,3.663024 5.970782,3.6629 6.250796,3.6629 6.250973,3.758 6.250975,3.758276 6.250974,3.759515 6.250967,3.760204 6.250961,3.762591 6.250961,3.852954 6.310563,3.85289 6.314449,3.852938 6.343984,3.853029 6.356983,3.85279 6.418635,3.853246 6.448436,3.853436 6.521413,3.853351 6.521799,4.8183 6.521657,6.104724 6.501284,6.104729 6.464906,6.104669 6.455061,6.104536 6.432836,6.104784 6.424272,6.104631 6.409139,6.104591 6.389828,6.104772 6.279293,6.104226 6.269358,6.104268 6.261363,6.104168 6.254022,6.104381 6.251512,6.104289 6.238583,6.104361 6.224581,6.104906 6.106987,6.106988 6.104359,6.238584 6.104389,6.251024 6.104041,6.251478 6.104266,6.26936 6.104224,6.279295 6.104248,6.288573 6.104248,6.291361 6.104356,6.300647 6.104304,6.310751 6.104757,6.427642 6.104734,6.431434 6.104881,6.442002 6.104879,6.452261 6.105042,6.460129 6.104803,6.464512 6.104806,6.469815 6.104938,6.473136 6.104644,6.483564 6.104758,6.488116 6.104758,6.511326 6.104756,6.516087 6.104785,6.520887 6.104699,6.521802 5.070835,6.521416 3.853505,6.521772 3.853434,6.448437 3.853245,6.418637 3.852788,6.356985 3.853028,6.343985 3.852937,6.314452 3.852888,6.310565 3.852952,6.250963 3.76259,6.250963 3.760202,6.25097 3.759515,6.250983 3.758274,6.250977 3.757998,6.250975 3.755931,6.250939 3.662898,6.250799 3.662898,5.970785 3.663022,5.917725 3.758065,5.918064 3.758065,3.996257 3.663022,3.996225 3.663225,3.790831 3.663094,3.732255 3.663094,3.663096 3.963355,3.662783" style="fill: white" /><polygon type="contour" points="6.685837,3.853178 6.7145,3.853238 6.720592,3.853275 6.768786,3.853311 6.790512,3.853069 6.893466,3.853401 6.895758,3.853246 6.948998,3.853436 7.076514,3.853351 7.0766,4.818901 7.0766,6.106103 7.052657,6.106131 7.010416,6.106068 6.998386,6.105934 6.970742,6.106184 6.960557,6.106032 6.941363,6.105991 6.915456,6.105744 6.898491,6.105933 6.892884,6.105754 6.885549,6.105849 6.873937,6.105732 6.872598,6.106057 6.871528,6.106068 6.869531,6.106097 6.769313,6.10546 6.749634,6.105613 6.721094,6.105459 6.685547,6.105491 6.683577,6.105485 6.682011,6.105491 6.681832,6.10547 6.670987,6.105273 6.6715,4.818246 6.670933,4.591253 6.671292,3.85335 6.675639,3.852946 6.684766,3.852931" style="fill: white" /><polygon type="contour" points="7.240935,3.853178 7.269437,3.853238 7.275693,3.853275 7.323639,3.853311 7.34533,3.853069 7.448133,3.853401 7.451869,3.853246 7.505123,3.853436 7.631235,3.853351 7.6313,4.819501 7.6313,6.107502 7.618613,6.10753 7.598957,6.107467 7.594713,6.107336 7.365445,6.106472 7.309634,6.106858 7.285978,6.106858 7.246205,6.106538 7.239537,6.106513 7.226334,6.106476 7.226198,4.818847 7.225562,4.591713 7.225692,3.85335 7.230085,3.852946 7.239231,3.852931" style="fill: white" /><polygon type="contour" points="7.818999,3.853185 7.82582,3.853293 7.870388,3.853335 7.890253,3.853106 7.982303,3.853438 7.983926,3.853269 8.040866,3.853189 8.178086,3.853001 8.178393,4.669368 8.178682,6.108554 8.162037,6.108577 8.137361,6.108836 8.13147,6.108703 8.118059,6.108413 8.113416,6.108529 8.106043,6.108765 8.097789,6.108723 8.094276,6.108511 7.903302,6.108156 7.847321,6.107998 7.836856,6.108212 7.82432,6.10817 7.796562,6.107912 7.78108,6.107875 7.781001,4.819447 7.780436,4.59217 7.780794,3.85335 7.807881,3.852946" style="fill: white" /><polygon type="contour" points="10.803508,3.85335 10.802807,5.421709 10.802577,6.108978 10.78956,6.109023 10.743405,6.108989 10.704001,6.109139 10.675414,6.109236 10.581332,6.109512 10.579214,6.109508 10.539391,6.109846 10.509025,6.109942 10.372294,6.110377 10.073827,6.110945 10.066822,6.110967 9.976023,6.111206 9.909123,6.111206 9.761273,6.111768 9.61342,6.111768 9.595274,6.111844 9.584812,6.112737 9.566198,6.112737 9.536631,6.111844 9.518415,6.111768 9.370565,6.111768 9.280931,6.111531 9.132182,6.110967 8.900713,6.110372 8.849496,6.110372 8.735869,6.109942 8.622673,6.109942 8.592308,6.109847 8.552485,6.109508 8.550367,6.109512 8.456287,6.109237 8.427698,6.10914 8.388294,6.108989 8.34214,6.109023 8.329123,6.108978 8.3288,5.464772 8.3288,3.8532 8.374853,3.853257 8.398961,3.853256 8.410576,3.853263 10.740739,3.853263 10.762583,3.852965" style="fill: white" /><polygon type="contour" points="11.181499,3.85335 11.350906,3.85335 11.350699,4.819447 11.351213,6.107702 11.336144,6.107591 11.299045,6.10817 11.283047,6.108211 11.268891,6.107712 11.227033,6.107871 11.037784,6.108451 11.035069,6.110192 10.969804,6.10851 10.965884,6.108577 10.953018,6.108554 10.953401,5.061197 10.953135,3.853177" style="fill: white" /><polygon type="contour" points="11.905614,4.910557 11.905614,6.106674 11.882651,6.106891 11.822065,6.106858 11.766254,6.106472 11.541992,6.107196 11.541994,6.107593 11.541334,6.107282 11.530523,6.107558 11.530519,6.107556 11.508143,6.107559 11.5004,6.107502 11.500463,5.07235 11.500041,3.853507 11.726644,3.853287 11.906194,3.853136" style="fill: white" /><polygon type="contour" points="12.460713,4.909899 12.460713,6.105273 12.449868,6.10547 12.449676,6.105491 12.448121,6.105485 12.446152,6.105492 12.410606,6.105459 12.387038,6.105459 12.341366,6.105356 12.120034,6.106184 12.078956,6.106339 12.076718,6.106158 12.063394,6.106158 12.060586,6.10616 12.055099,6.106103 12.055187,5.071595 12.055143,3.853507 12.281742,3.853288 12.461023,3.853136" style="fill: white" /><polygon type="contour" points="15.468604,3.663096 15.468604,3.732255 15.468473,3.79083 15.468678,3.996225 15.373635,3.995861 15.373635,5.917756 15.468678,5.917725 15.468802,5.970785 15.468802,6.250799 15.373702,6.250976 15.373425,6.250976 15.372186,6.250983 15.371497,6.250969 15.36911,6.250963 15.278055,6.250963 15.278291,6.310564 15.278253,6.314451 15.27824,6.343986 15.278515,6.356985 15.27821,6.418636 15.278094,6.448438 15.278351,6.521416 14.3134,6.521802 13.027001,6.521802 13.026972,6.501287 13.027032,6.464907 13.027166,6.455062 13.026918,6.432836 13.02707,6.424275 13.02711,6.409139 13.026929,6.38983 13.027475,6.279295 13.027432,6.26936 13.027532,6.261364 13.02732,6.253998 13.02747,6.249917 13.02734,6.238585 13.026795,6.224582 13.024714,6.106988 12.893116,6.104361 12.880677,6.10439 12.880222,6.104043 12.862341,6.104269 12.853069,6.104345 12.74187,6.104772 12.72256,6.104591 12.707426,6.104631 12.698862,6.104784 12.676638,6.104534 12.666794,6.104669 12.630415,6.104729 12.610042,6.104724 12.610476,4.91865 12.609929,3.853507 12.683263,3.853436 12.713066,3.853245 12.774716,3.85279 12.787715,3.853029 12.817249,3.852938 12.821137,3.85289 12.88074,3.852547 12.88074,3.762592 12.880732,3.760203 12.88072,3.759515 12.880725,3.758276 12.880727,3.758 12.880763,3.755933 12.880901,3.6629 13.160917,3.6629 13.213978,3.663024 13.21364,3.758066 15.135446,3.758066 15.135341,3.663161 15.166562,3.663088 15.168343,3.662783" style="fill: white" /><polygon type="contour" points="15.278295,6.670679 15.278102,6.67564 15.278097,6.684623 15.278134,6.684769 15.278117,6.700742 15.278462,6.713427 15.278424,6.719539 15.278388,6.767881 15.278631,6.789675 15.278299,6.892934 15.27821,6.896493 15.278094,6.949513 15.278351,7.076516 14.3128,7.076602 13.025599,7.076602 13.02557,7.052657 13.025633,7.01042 13.025763,6.998388 13.025518,6.970743 13.025667,6.96056 13.025711,6.941363 13.025958,6.915459 13.025768,6.898493 13.025947,6.892886 13.025853,6.885551 13.025969,6.873917 13.025645,6.872601 13.025632,6.871529 13.025605,6.869534 13.026242,6.769315 13.026347,6.748863 13.026242,6.721095 13.02621,6.68555 13.026217,6.68358 13.026211,6.682014 13.026232,6.681835 13.026428,6.67099 14.2218,6.67099 14.408141,6.67068 15.276754,6.670579 15.278125,6.670292" style="fill: white" /><polygon type="contour" points="15.278295,7.225509 15.278102,7.230088 15.278133,7.256295 15.278462,7.267827 15.278424,7.274112 15.278389,7.322282 15.278631,7.344075 15.278299,7.447334 15.27821,7.451871 15.278094,7.505124 15.278351,7.631237 14.3122,7.631301 13.024176,7.63116 13.024171,7.618614 13.024232,7.59896 13.024365,7.594714 13.024947,7.363886 13.024843,7.309635 13.02481,7.249053 13.024832,7.237398 13.025028,7.226089 14.221144,7.226089 14.456124,7.225358 15.2767,7.22539 15.278125,7.225104" style="fill: white" /><polygon type="contour" points="15.278295,7.780179 15.278145,7.807882 15.278514,7.819001 15.278405,7.825822 15.278364,7.87039 15.278594,7.890254 15.278262,7.982305 15.278161,7.983928 15.278326,8.040867 15.278272,8.178087 14.461887,8.178395 13.023148,8.178684 13.023126,8.165818 13.022866,8.148648 13.022998,8.145149 13.023444,7.96786 13.023444,7.941631 13.023545,7.903305 13.023704,7.861989 13.023488,7.848652 13.023532,7.832654 13.024112,7.795557 13.024001,7.780489 14.220488,7.780489 14.455613,7.779758" style="fill: white" /><polygon type="contour" points="15.278439,8.372454 15.278436,8.390962 15.278443,8.395081 15.278449,8.423647 15.278464,8.915553 15.2783,8.964924 15.278245,9.386266 15.278147,10.305977 15.278234,10.803638 13.666927,10.802902 13.022723,10.802578 13.022676,10.789561 13.022712,10.743407 13.022275,10.705097 13.022465,10.675416 13.022191,10.581334 13.022193,10.579216 13.021856,10.539392 13.021761,10.509027 13.021761,10.395831 13.021324,10.223345 13.020757,10.073829 13.020734,10.066823 13.020496,9.976024 13.020496,9.909125 13.019934,9.761275 13.019934,9.613423 13.019859,9.595277 13.018965,9.584813 13.018965,9.566202 13.019859,9.536632 13.019936,9.518418 13.019934,9.370566 13.020169,9.280933 13.020734,9.132184 13.02133,8.900715 13.02133,8.849497 13.02176,8.622677 13.021856,8.592309 13.022193,8.552486 13.022191,8.55037 13.022465,8.456288 13.022561,8.4277 13.022712,8.388297 13.022677,8.342143 13.022723,8.329126 13.666927,8.328802 15.277999,8.328802" style="fill: white" /><polygon type="contour" points="15.278094,12.683264 15.27821,12.713067 15.278514,12.774717 15.278239,12.787718 15.278251,12.817251 15.278289,12.821139 15.27846,12.880741 15.36911,12.880742 15.371498,12.880733 15.372186,12.880722 15.373426,12.880727 15.373701,12.880729 15.375768,12.880765 15.468802,12.880902 15.468802,13.160918 15.468678,13.213979 15.373635,13.213641 15.373635,15.135446 15.468678,15.135478 15.468473,15.340874 15.468604,15.399449 15.468604,15.468607 15.168342,15.468922 15.166561,15.468614 15.135341,15.468542 15.135834,15.373638 13.213943,15.373638 13.213978,15.46868 13.160917,15.468804 12.880901,15.468804 12.880727,15.373703 12.880724,15.373427 12.880726,15.372188 12.880732,15.3715 12.88074,15.369111 12.88074,15.278465 12.821138,15.278294 12.81725,15.278254 12.787716,15.278243 12.774715,15.278517 12.713066,15.278213 12.683263,15.278096 12.610286,15.278353 12.6099,14.313402 12.6099,13.027002 12.610814,13.026917 12.615615,13.026946 12.623015,13.026946 12.630414,13.026974 12.666794,13.027034 12.676638,13.027168 12.698862,13.026918 12.707426,13.027071 12.72256,13.027111 12.820951,13.027396 12.831055,13.027345 12.84034,13.027451 12.843129,13.027451 12.852404,13.027477 12.861812,13.02742 12.870284,13.027535 12.877703,13.027321 12.880187,13.027413 12.893116,13.027341 12.907117,13.026798 13.024713,13.024715 13.02734,12.893119 13.027311,12.880679 13.027657,12.880227 13.027432,12.862343 13.027475,12.852407 13.026929,12.741872 13.02711,12.722564 13.02707,12.707428 13.026918,12.698864 13.027166,12.676641 13.027032,12.666795 13.026972,12.630416 13.026976,12.610043 14.213049,12.610477 15.278195,12.609932" style="fill: white" /><polygon type="contour" points="15.278414,12.281745 15.278295,12.461024 14.2218,12.460714 13.026626,12.460122 13.026589,12.447123 13.026569,12.44686 13.026577,12.445075 13.026563,12.442864 13.026244,12.410607 13.026244,12.387041 13.026347,12.341366 13.025518,12.120036 13.025362,12.078957 13.025544,12.076692 13.025544,12.063395 13.025541,12.060588 13.025574,12.055643 14.212388,12.055707 15.278194,12.055144" style="fill: white" /><polygon type="contour" points="15.278219,11.743628 15.278105,11.906008 14.312851,11.905501 13.025028,11.905615 13.024809,11.882651 13.024844,11.822068 13.02523,11.766256 13.024505,11.541993 13.024108,11.541996 13.024404,11.541351 13.024142,11.530526 13.024142,11.508146 13.024199,11.500402 14.05935,11.500466 15.278195,11.500042" style="fill: white" /><polygon type="contour" points="14.070504,10.953403 15.278172,10.953138 15.27824,11.164992 15.278295,11.351525 14.220487,11.351216 13.023828,11.350622 13.023791,11.335139 13.023531,11.307381 13.023488,11.294845 13.023704,11.284379 13.023545,11.228398 13.02325,11.037786 13.021509,11.035062 13.023192,10.969806 13.023126,10.965885 13.023148,10.95302" style="fill: white" /><polygon type="contour" points="12.097715,13.025634 12.104372,13.025766 12.340046,13.02609 12.387039,13.026245 12.410606,13.026245 12.442861,13.026564 12.460119,13.026627 12.460198,14.313453 12.460405,14.494207 12.460517,15.276582 12.460778,15.277961 12.460404,15.278107 12.456581,15.278073 12.431517,15.278087 12.418275,15.278463 12.412162,15.278426 12.363821,15.27839 12.342027,15.278633 12.238767,15.278301 12.234476,15.278213 12.181675,15.278096 12.055187,15.278353 12.0551,14.312801 12.05564,13.025577 12.071529,13.025572" style="fill: white" /><polygon type="contour" points="11.532741,13.024232 11.536986,13.024367 11.59498,13.024477 11.628729,13.024818 11.642411,13.024447 11.667152,13.024525 11.701042,13.02483 11.725078,13.024508 11.732918,13.024884 11.744226,13.024816 11.757589,13.024935 11.759902,13.024878 11.765815,13.024739 11.766843,13.024955 11.796114,13.024794 11.859856,13.024794 11.865915,13.025066 11.869465,13.02539 11.879953,13.024935 11.895182,13.025191 11.905367,13.025228 11.905499,14.312853 11.906006,14.493719 11.906006,15.278106 11.901613,15.278104 11.891837,15.278078 11.889635,15.278419 11.862261,15.278463 11.856006,15.278426 11.80806,15.278389 11.786368,15.278633 11.683567,15.278301 11.679829,15.278212 11.626573,15.278096 11.500463,15.278353 11.5004,14.312202 11.500541,13.024178 11.513086,13.024173" style="fill: white" /><polygon type="contour" points="11.000229,13.022999 11.228398,13.023547 11.311026,13.023705 11.316277,13.023489 11.322523,13.023533 11.339422,13.023792 11.35062,13.023829 11.351212,14.220488 11.351523,14.407332 11.351523,15.278297 11.323819,15.278148 11.3127,15.278515 11.305879,15.278408 11.261311,15.278365 11.241446,15.278595 11.149397,15.278264 11.146164,15.278165 11.089709,15.278327 10.953615,15.278274 10.953306,14.461888 10.953018,13.023149 10.965883,13.023127 10.982449,13.022868 10.993736,13.022868" style="fill: white" /><polygon type="contour" points="9.595274,13.019861 9.61342,13.019937 9.761272,13.019937 9.850768,13.020172 9.999517,13.020737 10.080355,13.02082 10.143661,13.020985 10.230985,13.021332 10.282204,13.021332 10.509025,13.021761 10.639217,13.022252 10.675414,13.022467 10.705094,13.022276 10.743405,13.022715 10.785347,13.022714 10.803332,13.022756 10.803844,13.845946 10.803637,15.278236 10.759248,15.278442 10.736931,15.278437 10.732802,15.278445 10.704135,15.27845 10.213033,15.278465 10.166778,15.278302 9.722601,15.278427 8.751792,15.277887 8.3288,15.278 8.3288,13.666929 8.329123,13.022724 8.342139,13.022678 8.388294,13.022715 8.427698,13.022562 8.453838,13.022408 8.492484,13.022252 8.54915,13.022252 8.73587,13.021761 8.849496,13.021332 8.900714,13.021332 8.988038,13.020985 9.051345,13.020819 9.125267,13.02076 9.132182,13.020736 9.280931,13.020172 9.370565,13.019937 9.518415,13.019937 9.536631,13.01986 9.54727,13.018967 9.566198,13.018967" style="fill: white" /><polygon type="contour" points="8.161897,13.023193 8.165816,13.023128 8.178682,13.02315 8.1783,14.070505 8.178565,15.278174 7.950199,15.278073 7.780793,15.278107 7.781,14.312254 7.78108,13.023829 7.792277,13.023792 7.809176,13.023533 7.815423,13.023489 7.820949,13.023989 7.904667,13.023829 8.093916,13.023251 8.096516,13.021589" style="fill: white" /><polygon type="contour" points="7.590334,13.024392 7.601342,13.02414 7.623556,13.024145 7.63116,13.024178 7.631094,14.211727 7.631657,15.278198 7.388071,15.278222 7.225692,15.278107 7.226199,14.312854 7.226334,13.025228 7.239537,13.02519 7.2529,13.025165 7.309634,13.024846 7.363883,13.024948 7.589707,13.024529 7.589704,13.02411" style="fill: white" /><polygon type="contour" points="7.054983,13.025545 7.068305,13.025545 7.071114,13.025544 7.0766,13.025601 7.076514,14.060108 7.076557,15.278197 6.833412,15.278222 6.671293,15.278107 6.6715,14.313452 6.671581,13.026627 6.702204,13.026538 6.768317,13.026155 7.052742,13.025365" style="fill: white" /><polygon type="contour" points="6.108574,10.965886 6.108834,10.982449 6.108834,10.993737 6.108701,11.000231 6.10787,11.227035 6.10771,11.310753 6.108211,11.316279 6.108168,11.322525 6.107588,11.341939 6.107699,11.351216 4.819446,11.350701 4.638223,11.350908 3.853349,11.350908 3.852944,11.32382 3.853184,11.312702 3.853292,11.305881 3.853334,11.261313 3.853104,11.241448 3.853436,11.149399 3.853267,11.146167 3.853186,11.089711 3.852999,10.953617 4.669366,10.953308 6.108552,10.95302" style="fill: white" /><polygon type="contour" points="6.107529,11.513088 6.107466,11.532742 6.107335,11.536988 6.107224,11.594982 6.106882,11.62873 6.107256,11.642414 6.107175,11.667153 6.106872,11.701044 6.107194,11.725079 6.106819,11.732919 6.106886,11.744228 6.106768,11.75759 6.106823,11.759903 6.106962,11.765817 6.106747,11.766841 6.106909,11.796114 6.106909,11.859858 6.106636,11.865916 6.10631,11.869466 6.106766,11.879954 6.106868,11.896936 6.106672,11.905615 4.818847,11.9055 4.63798,11.906007 3.853478,11.906121 3.853349,11.906007 3.852944,11.901615 3.852988,11.891839 3.85325,11.891809 3.85331,11.809421 3.853067,11.787628 3.8534,11.684369 3.853245,11.68081 3.853435,11.627259 3.853349,11.500466 4.819499,11.500402 6.107501,11.500402" style="fill: white" /><polygon type="contour" points="6.106128,12.07153 6.106065,12.097717 6.105934,12.104374 6.105353,12.341366 6.105456,12.387041 6.105456,12.410608 6.10549,12.446153 6.10527,12.460715 4.909897,12.460715 4.675065,12.461445 3.853286,12.460838 3.853134,12.461024 3.852944,12.456062 3.852929,12.446935 3.853248,12.446868 3.85331,12.363822 3.853067,12.342028 3.8534,12.238769 3.853245,12.23521 3.853435,12.182189 3.853349,12.055188 4.818899,12.055102 6.106101,12.055102" style="fill: white" /><polygon type="contour" points="6.104721,12.610043 6.104785,12.610816 6.104756,12.615616 6.104756,12.616073 6.104727,12.62773 6.104727,12.630415 6.104668,12.666795 6.104533,12.676641 6.104782,12.698865 6.10463,12.707428 6.104589,12.722564 6.104305,12.820952 6.104356,12.831056 6.104248,12.840341 6.104248,12.843131 6.104343,12.853072 6.10428,12.861813 6.104165,12.870311 6.104379,12.877679 6.104229,12.881768 6.104359,12.893119 6.104359,12.901434 6.104955,12.906777 6.106731,13.024167 6.179193,13.025561 6.238583,13.027341 6.251021,13.027312 6.251479,13.027661 6.269358,13.027433 6.279293,13.027477 6.28933,13.027451 6.29136,13.027451 6.301149,13.027345 6.311774,13.027278 6.314089,13.02742 6.322913,13.027278 6.33102,13.027182 6.373965,13.027349 6.377292,13.027169 6.389828,13.026931 6.409139,13.027112 6.424272,13.027071 6.432835,13.026919 6.455062,13.027168 6.464905,13.027034 6.494208,13.026945 6.511323,13.026945 6.516084,13.026946 6.520885,13.026917 6.521658,13.026978 6.521224,14.213052 6.52177,15.278198 6.448436,15.278096 6.418634,15.278213 6.356984,15.278517 6.343983,15.278244 6.31445,15.278256 6.310562,15.278294 6.250961,15.278058 6.250961,15.369112 6.250967,15.371499 6.250974,15.372188 6.250975,15.373428 6.250974,15.373703 6.250937,15.375771 6.250796,15.468804 5.970782,15.468806 5.917722,15.46868 5.918061,15.373638 3.996252,15.373638 3.996359,15.468542 3.965137,15.468614 3.963354,15.468922 3.663094,15.468607 3.663094,15.399449 3.663225,15.340873 3.663022,15.135478 3.758065,15.135841 3.758065,13.213945 3.663022,13.213979 3.662898,13.160918 3.662898,12.880903 3.757999,12.880729 3.758274,12.880726 3.759513,12.880728 3.760202,12.880734 3.76259,12.880742 3.852545,12.880742 3.852887,12.82114 3.852937,12.817251 3.853028,12.787718 3.852788,12.774718 3.853244,12.713067 3.853435,12.683264 3.853349,12.610287 3.85885,12.610284 4.818299,12.609901" style="fill: white" />
</svg>
