<svg width="19.131698" height="19.131699">
<polygon type="contour" points="18.055644,17.722443 18.055616,17.750769 18.05627,18.043688 18.05627,18.056272 18.00163,18.05633 18.001306,18.056274 17.722422,18.055626 17.722492,18.042189 17.722492,18.028686 17.722472,18.02823 17.722482,18.017913 17.722488,18.013519 17.722635,17.983108 17.722688,17.964869 17.723038,17.865841 17.723038,17.805064 17.72304,17.723038 17.865839,17.723038 17.964868,17.722688 17.983106,17.722637 18.013517,17.72249 18.017911,17.722484 18.028228,17.722476 18.042188,17.722494 18.042844,17.722439" style="fill: white" /><polygon type="contour" points="15.801381,16.575025 15.801381,16.588023 15.801323,16.685535 15.801214,16.739066 15.801151,16.770602 15.800862,16.971768 15.800838,17.01756 15.388761,17.017646 15.150288,17.017646 15.154438,16.810922 15.156295,16.770601 15.15601,16.739066 15.156437,16.685536 15.153364,16.57486 15.520858,16.57486" style="fill: white" /><polygon type="contour" points="15.801092,17.722982 15.801092,17.786362 15.801201,17.865501 15.801139,17.961287 15.801095,17.980828 15.800962,18.012908 15.800881,18.017352 15.800957,18.0279 15.800895,18.028685 15.800895,18.042189 15.800938,18.042845 15.800943,18.055646 15.519363,18.056308 15.468408,18.056308 15.468376,18.039002 15.468338,18.030254 15.468338,17.961037 15.377748,17.961096 15.365999,17.960804 15.150584,17.96065 15.14654,17.739579 15.146913,17.722898 15.189085,17.72289" style="fill: white" /><polygon type="contour" points="16.739064,17.722828 16.7706,17.722832 16.968083,17.72304 17.01756,17.72304 17.01756,17.844589 17.017558,17.865838 16.7706,17.865628 16.739064,17.865514 16.685533,17.865624 16.58666,17.865678 16.575022,17.865684 16.574988,17.855354 16.574988,17.72292 16.589164,17.72292 16.685533,17.722824" style="fill: white" /><polygon type="contour" points="17.017896,16.589165 17.017639,16.685536 17.017457,16.770602 17.01756,17.01756 16.968083,17.01756 16.7706,17.01746 16.685534,17.017641 16.574988,17.017898 16.575106,16.830031 16.575106,16.685535 16.575022,16.575025 16.588021,16.575025 16.685533,16.575108 16.830029,16.575108 17.017896,16.57499" style="fill: white" /><polygon type="contour" points="17.732387,16.575025 17.865682,16.575025 17.86562,16.685535 17.86551,16.739066 17.865624,16.770602 17.865834,17.01756 17.72304,17.01756 17.723038,16.968086 17.722828,16.770601 17.722825,16.739066 17.722822,16.685535 17.72292,16.57499" style="fill: white" /><polygon type="contour" points="17.961044,15.305358 17.961052,15.352223 17.961036,15.468338 18.030249,15.468338 18.039,15.468377 18.039375,15.468382 18.056306,15.468407 18.056306,15.519362 18.055643,15.800945 18.042187,15.800897 18.027898,15.800959 18.017347,15.800883 18.012905,15.800965 17.980826,15.801097 17.961284,15.801139 17.865497,15.801203 17.798817,15.801203 17.722978,15.801092 17.722954,15.175499 17.722956,15.135648 17.921533,15.135648 17.960966,15.13448" style="fill: white" /><polygon type="contour" points="17.017644,15.388762 17.017558,15.80084 16.971765,15.800866 16.789066,15.801125 16.789066,15.801114 16.685534,15.801324 16.58802,15.801384 16.575022,15.801384 16.574858,15.520862 16.574858,15.153367 16.657913,15.155222 16.685533,15.156439 16.739065,15.156011 16.770599,15.156296 17.017644,15.15029" style="fill: white" /><polygon type="contour" points="15.724923,15.145591 15.800958,15.142714 15.800958,15.185724 15.801201,15.801203 15.175961,15.801175 15.137206,15.80114 15.143799,15.25272 15.139253,15.182679 15.14236,15.142364" style="fill: white" /><polygon type="contour" points="15.800958,3.945978 15.800958,3.988989 15.182676,3.992447 15.142361,3.98934 15.143799,3.878983 15.137206,3.330564 15.175961,3.330529 15.801201,3.330501" style="fill: white" /><polygon type="contour" points="16.685534,3.330379 16.739064,3.330487 16.7706,3.330551 16.971765,3.330838 17.017558,3.330863 17.017644,3.742509 17.017644,3.980982 16.810919,3.977262 16.7706,3.975407 16.739065,3.975693 16.685533,3.975265 16.574858,3.978338 16.574858,3.61084 16.575022,3.330319 16.588021,3.330319" style="fill: white" /><polygon type="contour" points="17.961284,3.330565 17.980825,3.330606 18.012906,3.33074 18.017347,3.330821 18.027898,3.330746 18.028683,3.330808 18.042187,3.330808 18.042844,3.330763 18.055644,3.330759 18.056306,3.612341 18.056306,3.663295 18.039,3.663326 18.030249,3.663365 17.961033,3.663365 17.96118,3.753938 17.96114,3.76582 17.960688,3.981108 17.92463,3.97766 17.722978,3.995792 17.722978,3.33061 17.786359,3.33061 17.865498,3.330501" style="fill: white" /><polygon type="contour" points="17.865624,2.361098 17.86551,2.392635 17.865619,2.446165 17.865676,2.545041 17.865681,2.556679 17.855352,2.556713 17.72292,2.556713 17.72292,2.542536 17.722824,2.446165 17.722826,2.392634 17.72283,2.361098 17.723038,2.11414 17.865834,2.11414" style="fill: white" /><polygon type="contour" points="18.05627,1.075432 18.05627,1.088017 18.055616,1.380932 18.055644,1.40926 18.042188,1.409209 18.028684,1.409209 18.028228,1.409229 18.017911,1.409218 18.013517,1.409212 17.983106,1.409065 17.964868,1.409014 17.865839,1.408664 17.723038,1.408664 17.723038,1.265864 17.722687,1.166833 17.722636,1.148597 17.722488,1.118184 17.722482,1.113789 17.722472,1.103474 17.722492,1.089513 17.722436,1.088858 17.722422,1.076078 18.001305,1.075431 18.001629,1.075375" style="fill: white" /><polygon type="contour" points="17.017558,1.408665 16.968083,1.408665 16.7706,1.408873 16.739064,1.408988 16.685534,1.408879 16.574988,1.408783 16.575022,1.399314 16.575022,1.266019 16.685534,1.266078 16.739064,1.266187 16.7706,1.266072 17.017558,1.265864" style="fill: white" /><polygon type="contour" points="16.685534,2.114062 16.770599,2.114244 17.017558,2.11414 17.017896,2.422171 17.01764,2.446165 17.017896,2.556713 16.830029,2.556594 16.685534,2.556594 16.575022,2.556679 16.575022,2.543681 16.575106,2.446165 16.575106,2.301671 16.574988,2.113805 16.589164,2.113805" style="fill: white" /><polygon type="contour" points="15.800837,2.11414 15.800862,2.159932 15.80115,2.361098 15.801214,2.392635 15.801323,2.446165 15.801381,2.556678 15.520858,2.556844 15.153364,2.556844 15.155219,2.473787 15.156437,2.446166 15.15601,2.392634 15.156295,2.361099 15.150289,2.114057 15.38876,2.114057" style="fill: white" /><polygon type="contour" points="15.800943,1.076059 15.800895,1.089513 15.800957,1.103804 15.80088,1.114353 15.800962,1.118795 15.801096,1.150876 15.801138,1.170416 15.801201,1.266201 15.801201,1.332882 15.801092,1.408721 15.578588,1.408663 15.146788,1.409038 15.15093,1.1881 15.150584,1.171054 15.365999,1.170899 15.377748,1.170607 15.468338,1.170665 15.468338,1.101449 15.468375,1.092702 15.468383,1.092326 15.468408,1.075396 15.519362,1.075396" style="fill: white" /><polygon type="contour" points="3.663325,1.092701 3.663363,1.101449 3.663363,1.170665 3.779477,1.17065 3.826344,1.170659 3.997223,1.170734 3.981909,1.377408 3.984787,1.408802 3.942614,1.408811 3.330609,1.408721 3.330609,1.345342 3.330499,1.2662 3.330562,1.170417 3.330606,1.150875 3.330738,1.118795 3.33082,1.114353 3.330744,1.103804 3.330806,1.103019 3.330806,1.089513 3.330762,1.088858 3.330758,1.076059 3.612338,1.075396 3.663293,1.075396" style="fill: white" /><polygon type="contour" points="3.955737,3.330529 3.994493,3.330564 3.987901,3.878982 3.992445,3.949025 3.989339,3.98934 3.406775,3.986112 3.330741,3.988989 3.330741,3.945978 3.330499,3.330501" style="fill: white" /><polygon type="contour" points="3.977262,2.320779 3.975406,2.361099 3.975691,2.392634 3.975263,2.446165 3.978337,2.556844 3.61084,2.556844 3.330317,2.556679 3.330317,2.54368 3.330377,2.446165 3.330486,2.392634 3.330549,2.361099 3.330837,2.159932 3.330862,2.11414 3.742509,2.114057 3.980981,2.114057" style="fill: white" /><polygon type="contour" points="2.556592,2.301671 2.556592,2.446166 2.556677,2.556679 2.543678,2.556679 2.446164,2.556594 2.301668,2.556594 2.113802,2.556713 2.113802,2.542536 2.11406,2.446165 2.114242,2.361099 2.114138,2.11414 2.163613,2.11414 2.361098,2.114244 2.446164,2.114062 2.556711,2.113805" style="fill: white" /><polygon type="contour" points="2.361097,1.266072 2.392633,1.266187 2.446163,1.266078 2.545038,1.266025 2.556677,1.266019 2.556711,1.276348 2.556711,1.408783 2.542534,1.408783 2.446164,1.408879 2.392633,1.408988 2.361097,1.408873 2.163613,1.408665 2.114138,1.408665 2.114138,1.265864" style="fill: white" /><polygon type="contour" points="1.130394,1.075431 1.409277,1.076078 1.409207,1.089513 1.409207,1.103018 1.409226,1.103474 1.409217,1.11379 1.409212,1.118184 1.409063,1.148597 1.409012,1.166833 1.408663,1.265864 1.408663,1.408664 1.265861,1.408664 1.166833,1.409014 1.148594,1.409065 1.118183,1.409213 1.113787,1.409219 1.103473,1.409229 1.089511,1.409209 1.088856,1.409265 1.076057,1.40926 1.076085,1.380932 1.07543,1.088017 1.07543,1.075432 1.130069,1.075375" style="fill: white" /><polygon type="contour" points="1.408663,2.163615 1.408871,2.361098 1.408986,2.392635 1.408877,2.446165 1.408782,2.556713 1.399312,2.556679 1.266017,2.556679 1.266077,2.446165 1.266185,2.392635 1.26607,2.361098 1.265863,2.11414 1.408663,2.11414" style="fill: white" /><polygon type="contour" points="1.40872,3.33061 1.40872,3.786886 1.408722,3.995792 1.207067,3.97766 1.188099,3.980771 1.17101,3.981108 1.170558,3.76582 1.170518,3.753938 1.170663,3.663365 1.101447,3.663365 1.0927,3.663327 1.092324,3.66332 1.075394,3.663295 1.075394,3.612341 1.076057,3.33076 1.089511,3.330808 1.103803,3.330746 1.114351,3.330822 1.118793,3.33074 1.150874,3.330606 1.170415,3.330565 1.266199,3.330501 1.33288,3.330501" style="fill: white" /><polygon type="contour" points="2.556842,3.610841 2.556842,3.978338 2.473785,3.976482 2.446164,3.975265 2.392633,3.975692 2.361097,3.975407 2.114055,3.980983 2.114055,3.74251 2.114138,3.330863 2.159931,3.330838 2.361097,3.330551 2.392634,3.330487 2.446164,3.330378 2.543678,3.330319 2.556677,3.330319" style="fill: white" /><polygon type="contour" points="1.408742,15.135648 1.408744,15.175499 1.40872,15.801092 1.34534,15.801092 1.2662,15.801203 1.170414,15.80114 1.150874,15.801098 1.118793,15.800964 1.114351,15.800882 1.103802,15.800959 1.103017,15.800897 1.089511,15.800897 1.088856,15.80094 1.076057,15.800945 1.075394,15.519362 1.075394,15.468408 1.092699,15.468377 1.101447,15.468338 1.170663,15.468338 1.170648,15.352224 1.170657,15.305357 1.170733,15.13448 1.375307,15.13448" style="fill: white" /><polygon type="contour" points="2.320777,15.154441 2.361098,15.156296 2.392633,15.156011 2.446164,15.156438 2.556842,15.153367 2.556842,15.520861 2.556677,15.801384 2.543679,15.801384 2.446163,15.801324 2.392633,15.801215 2.361098,15.801152 2.159931,15.800866 2.114138,15.80084 2.114055,15.388761 2.114055,15.15029" style="fill: white" /><polygon type="contour" points="3.989339,15.142364 3.987901,15.25272 3.994493,15.80114 3.955737,15.801175 3.330499,15.801203 3.330741,15.185724 3.330741,15.142714 3.949023,15.139257" style="fill: white" /><polygon type="contour" points="3.97648,16.657915 3.975263,16.685535 3.975691,16.739067 3.975406,16.770601 3.980981,17.017646 3.742508,17.017646 3.330862,17.01756 3.330837,16.971768 3.330576,16.789068 3.330587,16.789068 3.330377,16.685536 3.330317,16.575025 3.61084,16.57486 3.978337,16.57486" style="fill: white" /><polygon type="contour" points="3.984787,17.722898 3.98191,17.754291 3.997222,17.96097 3.826343,17.961044 3.779478,17.961052 3.663363,17.961038 3.663363,18.030254 3.663325,18.039001 3.663318,18.039377 3.663293,18.056308 3.612337,18.056308 3.330758,18.055646 3.330806,18.042189 3.330744,18.0279 3.33082,18.017352 3.330738,18.012907 3.330606,17.980828 3.330563,17.961287 3.330499,17.865502 3.330499,17.798821 3.330609,17.722982 3.942614,17.72289" style="fill: white" /><polygon type="contour" points="2.556711,17.72292 2.556677,17.732388 2.556677,17.865683 2.446163,17.865623 2.392634,17.865514 2.361097,17.865628 2.114138,17.865838 2.114138,17.72304 2.163613,17.72304 2.361097,17.722832 2.392634,17.722828 2.446164,17.722824" style="fill: white" /><polygon type="contour" points="2.301669,16.575108 2.446163,16.575108 2.556677,16.575025 2.556677,16.588023 2.556592,16.685535 2.556592,16.830031 2.556711,17.017898 2.542534,17.017898 2.446164,17.017642 2.361098,17.01746 2.114138,17.01756 2.113803,16.709532 2.11406,16.685535 2.113803,16.57499" style="fill: white" /><polygon type="contour" points="1.408782,16.589166 1.408876,16.685536 1.408986,16.739066 1.408871,16.770602 1.408663,17.01756 1.265863,17.01756 1.266069,16.770602 1.266185,16.739066 1.266077,16.685536 1.266023,16.586662 1.266017,16.575025 1.276346,16.57499 1.408782,16.57499" style="fill: white" /><polygon type="contour" points="1.089511,17.722494 1.103016,17.722494 1.103472,17.722476 1.113787,17.722484 1.118183,17.72249 1.148594,17.722637 1.166833,17.722688 1.265861,17.723038 1.408663,17.723038 1.408663,17.865842 1.409011,17.964869 1.409064,17.983108 1.409211,18.013519 1.409218,18.017914 1.409227,18.028229 1.409206,18.04219 1.409263,18.042846 1.409277,18.055626 1.130393,18.056274 1.130068,18.05633 1.07543,18.056271 1.07543,18.043687 1.076085,17.75077 1.076057,17.722444" style="fill: white" />
</svg>
