<svg width="19.131698" height="19.131699">
<polygon type="contour" points="10.418387,8.870432 10.41631,8.981332 10.416295,9.016691 10.332927,9.017015 10.332927,9.420602 10.416534,9.420602 10.416585,9.432065 10.418453,9.566201 10.417972,9.644988 10.416534,9.711102 10.332927,9.711102 10.332927,10.115197 10.416295,10.115014 10.41631,10.150372 10.418387,10.261272 10.421416,10.421418 10.316939,10.42046 10.184125,10.417226 10.165763,10.416412 10.151668,10.416412 10.11642,10.416408 10.116276,10.385264 10.115094,10.332928 9.711101,10.332928 9.711101,10.416267 9.699882,10.416598 9.5655,10.41855 9.486692,10.418039 9.431764,10.416598 9.4206,10.416267 9.4206,10.332928 9.016606,10.332928 9.015425,10.385264 9.015281,10.387274 9.015281,10.416408 8.980032,10.416412 8.965936,10.416412 8.947575,10.417225 8.81476,10.42046 8.710284,10.421418 8.713312,10.261272 8.715388,10.150373 8.715404,10.115014 8.798774,10.114689 8.798774,9.711102 8.715166,9.711102 8.715115,9.699693 8.713247,9.566202 8.713728,9.487034 8.715166,9.420602 8.798774,9.420602 8.798774,9.016507 8.715404,9.016691 8.715388,8.981331 8.713313,8.870433 8.710284,8.710286 8.81476,8.711243 8.947575,8.714478 8.965936,8.715292 8.980032,8.715292 9.015281,8.715296 9.015424,8.746438 9.016606,8.798777 9.4206,8.798777 9.4206,8.715436 9.431819,8.715104 9.565839,8.713154 9.645009,8.713664 9.699934,8.715104 9.711101,8.715436 9.711101,8.798777 10.115094,8.798777 10.116276,8.746438 10.11642,8.744429 10.11642,8.715296 10.151668,8.715292 10.165763,8.715292 10.184125,8.714478 10.316939,8.711243 10.421415,8.710286" style="fill: white" />
</svg>
