<svg width="19.131698" height="19.131699">
<polygon type="contour" points="8.087007,12.697126 8.20026,12.697126 8.201487,12.958659 8.20217,12.986082 7.968517,12.987381 7.909592,12.988027 7.909592,12.982995 7.909588,12.960754 7.909644,12.740277 7.909759,12.6967" style="fill: white" /><polygon type="contour" points="7.992629,10.93808 8.19518,10.936522 8.20123,11.103596 8.200471,11.221962 7.909739,11.221962 7.909539,11.104586 7.909539,10.931381" style="fill: white" /><polygon type="contour" points="7.449782,10.929107 7.522922,10.928962 7.522922,11.222126 7.447122,11.222126 7.315772,11.221974 7.315732,11.154477 7.315732,10.92892" style="fill: white" /><polygon type="contour" points="7.055711,10.999457 7.055711,11.221974 6.986012,11.221899 6.788223,11.222037 6.788223,10.929085 6.890186,10.929281 7.055657,10.92892" style="fill: white" /><polygon type="contour" points="7.055393,12.145688 7.055393,12.343527 6.986013,12.343527 6.788223,12.343478 6.788223,12.2325 6.788175,12.076309 6.850504,12.076045 7.055657,12.076045" style="fill: white" /><polygon type="contour" points="6.986012,11.608523 7.055711,11.608729 7.055657,11.657002 7.055657,11.81597 6.986013,11.815725 6.788175,11.815725 6.788175,11.761824 6.788656,11.608472" style="fill: white" /><polygon type="contour" points="7.522922,11.608779 7.522922,11.684578 7.522973,11.81593 7.474698,11.81597 7.315732,11.81597 7.315772,11.76555 7.315772,11.608729 7.366151,11.608729" style="fill: white" /><polygon type="contour" points="8.202594,11.681918 8.202782,11.81597 8.132244,11.81593 7.909728,11.81593 7.909728,11.765551 7.909576,11.608779 8.20274,11.608779" style="fill: white" /><polygon type="contour" points="7.977223,12.076045 8.202782,12.076045 8.202421,12.241514 8.202617,12.343478 7.909665,12.343478 7.909539,12.237806 7.909728,12.075991" style="fill: white" /><polygon type="contour" points="7.523177,12.145687 7.523227,12.343046 7.369878,12.343527 7.315977,12.343527 7.315732,12.281196 7.315732,12.076045 7.36615,12.075991 7.522973,12.075991" style="fill: white" /><polygon type="contour" points="7.523227,12.695323 7.522922,12.738526 7.522922,12.811774 7.449783,12.811887 7.315732,12.811378 7.315977,12.780634 7.315977,12.69518 7.369878,12.69518" style="fill: white" /><polygon type="contour" points="7.055657,12.722764 7.055657,12.811378 6.890186,12.812038 6.788223,12.81176 6.788325,12.741052 6.788325,12.695288 6.892111,12.695288 7.055393,12.69518" style="fill: white" /><polygon type="contour" points="6.290899,12.69555 6.434709,12.696989 6.434574,12.811197 6.434574,12.988019 6.157365,12.996506 6.134424,12.997278 6.134715,12.989934 6.137212,12.929935 6.145763,12.695092" style="fill: white" /><polygon type="contour" points="6.351068,12.076309 6.43652,12.076309 6.43652,12.145688 6.436413,12.343375 6.390649,12.343375 6.319941,12.343478 6.319664,12.241514 6.320326,12.076045" style="fill: white" /><polygon type="contour" points="6.436379,11.688664 6.43652,11.815725 6.408936,11.81597 6.320326,11.81597 6.319816,11.681919 6.319929,11.608779 6.365578,11.608473 6.436379,11.608473" style="fill: white" /><polygon type="contour" points="6.173042,10.930215 6.434574,10.931443 6.435002,11.108689 6.435002,11.221942 6.170945,11.222114 6.143673,11.22211 6.144274,11.164615 6.145581,10.929663" style="fill: white" /><polygon type="contour" points="6.141222,6.134681 6.434723,6.143407 6.434773,6.413101 6.434709,6.434712 6.290899,6.436152 6.145763,6.436613 6.137212,6.201769 6.134424,6.134426" style="fill: white" /><polygon type="contour" points="6.391425,7.909646 6.435002,7.909761 6.434574,8.087008 6.434574,8.200261 6.173041,8.201489 6.145619,8.202029 6.144319,7.968381 6.143673,7.909595 6.170944,7.909591" style="fill: white" /><polygon type="contour" points="6.351068,7.315978 6.43652,7.315978 6.43652,7.369879 6.436378,7.52323 6.393175,7.522925 6.319929,7.522925 6.319816,7.449784 6.320326,7.315734" style="fill: white" /><polygon type="contour" points="6.390648,6.788327 6.436413,6.788327 6.436413,6.892111 6.43652,7.055395 6.408935,7.055659 6.320326,7.055659 6.319664,6.890189 6.319941,6.788226" style="fill: white" /><polygon type="contour" points="7.055657,6.850506 7.055657,7.055659 6.986012,7.055395 6.788175,7.055395 6.788175,6.986014 6.788223,6.788226 6.899201,6.788226 7.055393,6.788177" style="fill: white" /><polygon type="contour" points="6.986012,6.320477 7.02299,6.320298 7.055657,6.320327 7.055393,6.351069 7.055393,6.436522 6.986012,6.436522 6.788325,6.436415 6.788325,6.390651 6.788223,6.319944" style="fill: white" /><polygon type="contour" points="7.967437,6.144322 8.202071,6.145627 8.201487,6.173043 8.200259,6.434576 8.023011,6.435004 7.909759,6.435004 7.909936,6.398821 7.909936,6.344922 7.909738,6.260187 7.909591,6.143675" style="fill: white" /><polygon type="contour" points="7.522922,6.31993 7.523227,6.36558 7.525464,6.436415 7.444834,6.436415 7.315977,6.436522 7.315732,6.408938 7.315732,6.320327 7.449783,6.319816" style="fill: white" /><polygon type="contour" points="7.523226,6.788658 7.523177,6.986015 7.522973,7.055712 7.474698,7.055659 7.315732,7.055659 7.315977,6.986015 7.315977,6.788177 7.369878,6.788177" style="fill: white" /><polygon type="contour" points="7.366151,7.315774 7.522973,7.315774 7.522973,7.366152 7.522922,7.522925 7.447121,7.522925 7.315772,7.522975 7.315732,7.4747 7.315732,7.315734" style="fill: white" /><polygon type="contour" points="7.055711,7.366152 7.055711,7.522975 6.986012,7.523179 6.788656,7.52323 6.788656,7.443038 6.788175,7.315978 6.850505,7.315734 7.055657,7.315734" style="fill: white" /><polygon type="contour" points="7.055711,7.90973 7.055657,7.977225 7.055657,8.202783 6.890186,8.202423 6.788223,8.202619 6.788223,7.909667 6.893894,7.909541" style="fill: white" /><polygon type="contour" points="7.522922,8.202741 7.449782,8.202596 7.315732,8.202784 7.315772,8.132246 7.315772,7.90973 7.36615,7.90973 7.522922,7.909578" style="fill: white" /><polygon type="contour" points="8.193621,7.99263 8.19518,8.195182 8.103498,8.193734 8.0589,8.199699 8.028105,8.201231 7.909539,8.200322 7.909539,8.027116 7.909739,7.909741 8.027114,7.909541 8.200321,7.909541" style="fill: white" /><polygon type="contour" points="8.202594,7.449785 8.20274,7.522925 7.909576,7.522925 7.909576,7.447125 7.909728,7.315774 7.977224,7.315734 8.202782,7.315734" style="fill: white" /><polygon type="contour" points="8.202421,6.890189 8.202782,7.055659 8.132245,7.055712 7.909728,7.055712 7.909803,6.986014 7.909664,6.788226 8.202617,6.788226" style="fill: white" /><polygon type="contour" points="11.222109,6.148705 11.222113,6.170947 11.222055,6.391426 11.22194,6.435004 11.044693,6.434576 10.931441,6.434576 10.930213,6.173043 10.929531,6.145621 11.163181,6.144321 11.222109,6.143675" style="fill: white" /><polygon type="contour" points="12.996985,6.141769 12.994488,6.201769 12.985938,6.436613 12.840799,6.436152 12.696988,6.434711 12.697126,6.320506 12.697126,6.143685 12.974335,6.135197 12.997277,6.134426" style="fill: white" /><polygon type="contour" points="12.812036,6.89019 12.811375,7.055659 12.780632,7.055395 12.695179,7.055395 12.695179,6.986015 12.695286,6.788327 12.741051,6.788327 12.811759,6.788226" style="fill: white" /><polygon type="contour" points="12.988026,7.909594 12.987425,7.967087 12.98612,8.202041 12.958657,8.201489 12.697125,8.200261 12.696698,8.023013 12.696698,7.909761 12.960753,7.90959" style="fill: white" /><polygon type="contour" points="12.811884,7.449784 12.811771,7.522925 12.766122,7.523229 12.695288,7.525466 12.695287,7.444835 12.695179,7.315979 12.722762,7.315734 12.811375,7.315734" style="fill: white" /><polygon type="contour" points="11.22196,7.909741 11.22196,8.200472 11.103594,8.201231 11.0728,8.1997 10.93652,8.195182 10.937968,8.1035 10.932001,8.058902 10.93047,8.028107 10.93138,7.909541 11.104585,7.909541" style="fill: white" /><polygon type="contour" points="10.999455,7.315774 11.221972,7.315774 11.221972,7.366152 11.222124,7.522925 11.115852,7.522925 10.928961,7.522924 10.929106,7.449784 10.928918,7.315734" style="fill: white" /><polygon type="contour" points="11.222161,6.893896 11.221972,7.055712 11.154475,7.055659 10.928918,7.055659 10.929278,6.890189 10.929083,6.788226 11.222035,6.788226" style="fill: white" /><polygon type="contour" points="11.815968,6.850507 11.815968,7.055659 11.765549,7.055712 11.608727,7.055712 11.608522,6.986014 11.608471,6.788658 11.761823,6.788177 11.815724,6.788177" style="fill: white" /><polygon type="contour" points="11.815968,6.320327 11.815724,6.351069 11.815724,6.436522 11.761822,6.436522 11.606234,6.436415 11.606464,6.392969 11.608778,6.31993 11.681918,6.319817" style="fill: white" /><polygon type="contour" points="12.343477,6.319944 12.343374,6.390652 12.343374,6.436415 12.239589,6.436415 12.076308,6.436522 12.076044,6.408937 12.076044,6.320327 12.241513,6.319666" style="fill: white" /><polygon type="contour" points="12.343477,6.788226 12.343477,6.899203 12.343526,7.055395 12.281194,7.055659 12.076044,7.055659 12.076308,6.986014 12.076308,6.788177 12.145686,6.788177" style="fill: white" /><polygon type="contour" points="12.145687,7.315978 12.343526,7.315978 12.343526,7.36988 12.343045,7.52323 12.145688,7.523179 12.07599,7.522975 12.076044,7.4747 12.076044,7.315734" style="fill: white" /><polygon type="contour" points="11.815929,7.366152 11.815929,7.522975 11.765549,7.522975 11.608778,7.522925 11.608778,7.447124 11.608728,7.315774 11.657002,7.315734 11.815968,7.315734" style="fill: white" /><polygon type="contour" points="11.815929,7.90973 11.815968,7.977225 11.815968,8.202784 11.681917,8.202596 11.608778,8.202741 11.608778,7.909578 11.684577,7.909578" style="fill: white" /><polygon type="contour" points="12.343477,8.202619 12.241513,8.202423 12.076044,8.202784 12.07599,8.132246 12.07599,7.90973 12.145687,7.909805 12.343477,7.909667" style="fill: white" /><polygon type="contour" points="12.812036,12.241513 12.811759,12.343478 12.74105,12.343375 12.695287,12.343375 12.695287,12.239589 12.695178,12.076309 12.722761,12.076045 12.811375,12.076045" style="fill: white" /><polygon type="contour" points="12.145687,12.076309 12.343526,12.076309 12.343526,12.145687 12.343477,12.343478 12.232498,12.343478 12.076308,12.343527 12.076044,12.281197 12.076044,12.076045" style="fill: white" /><polygon type="contour" points="11.222124,11.684578 11.221972,11.81593 11.154475,11.81597 10.928918,11.81597 10.929106,11.681918 10.928961,11.608779 11.222124,11.608779" style="fill: white" /><polygon type="contour" points="11.22196,10.931232 11.22196,11.221962 10.93123,11.221962 10.93047,11.103595 10.932,11.072803 10.93652,10.936522 11.028201,10.93797 11.0728,10.932003 11.103594,10.930473" style="fill: white" /><polygon type="contour" points="11.815929,10.999456 11.815929,11.221974 11.76555,11.221974 11.608778,11.222126 11.608778,10.928962 11.681917,10.929107 11.815968,10.92892" style="fill: white" /><polygon type="contour" points="12.241513,10.929281 12.343478,10.929086 12.343478,11.101155 12.343477,11.222037 12.237805,11.222163 12.07599,11.221974 12.076044,11.154478 12.076044,10.92892" style="fill: white" /><polygon type="contour" points="12.98738,11.163323 12.988026,11.22211 12.960752,11.222114 12.740275,11.222056 12.696698,11.221942 12.697125,11.044695 12.697126,10.931443 12.958658,10.930215 12.986081,10.929675" style="fill: white" /><polygon type="contour" points="12.738524,11.608779 12.811771,11.608779 12.811884,11.681919 12.811375,11.81597 12.780632,11.815725 12.695179,11.815725 12.695179,11.761824 12.695321,11.608473" style="fill: white" /><polygon type="contour" points="12.343044,11.688665 12.343526,11.815725 12.281195,11.81597 12.076044,11.81597 12.07599,11.765551 12.07599,11.608728 12.145687,11.608523 12.343044,11.608473" style="fill: white" /><polygon type="contour" points="11.815968,11.657002 11.815968,11.81597 11.765549,11.81593 11.608728,11.81593 11.608728,11.76555 11.608777,11.608779 11.684578,11.608779 11.815928,11.608729" style="fill: white" /><polygon type="contour" points="11.657001,12.076045 11.815968,12.076045 11.815724,12.145688 11.815724,12.343527 11.761823,12.343527 11.608472,12.343046 11.608522,12.145688 11.608727,12.075991" style="fill: white" /><polygon type="contour" points="11.221897,12.145688 11.222035,12.343478 10.929083,12.343478 10.929278,12.241514 10.928918,12.076045 10.999455,12.075991 11.221972,12.075991" style="fill: white" /><polygon type="contour" points="11.221764,12.732882 11.221764,12.78678 11.22196,12.871515 11.222108,12.988027 11.164263,12.98738 10.929629,12.986077 10.930213,12.95866 10.931441,12.697126 11.108689,12.6967 11.22194,12.6967" style="fill: white" /><polygon type="contour" points="11.815968,12.722763 11.815968,12.811378 11.681918,12.811887 11.608778,12.811773 11.608472,12.766122 11.606234,12.695288 11.686865,12.695288 11.815724,12.69518" style="fill: white" /><polygon type="contour" points="12.343374,12.695288 12.343374,12.741051 12.343477,12.81176 12.145687,12.811228 12.10871,12.811406 12.076044,12.811378 12.076308,12.780634 12.076308,12.69518 12.145687,12.69518" style="fill: white" /><polygon type="contour" points="12.994488,12.929934 12.997277,12.997278 12.990467,12.997017 12.696912,12.988232 12.696912,12.935483 12.697125,12.811197 12.696988,12.696989 12.840799,12.695551 12.985938,12.695092" style="fill: white" />
</svg>
