<svg width="19.131698" height="19.131699">
<polygon type="contour" points="10.019587,10.545861 10.019587,10.560397 10.019575,10.641873 10.019575,10.677405 10.019587,10.773301 9.892785,10.772996 9.892785,10.940451 9.887012,10.940566 9.644591,10.940475 9.609858,10.940495 9.531107,10.940129 9.531107,10.940451 9.487107,10.940475 9.238916,10.940451 9.238916,10.772996 9.112111,10.773301 9.112111,10.757499 9.112125,10.66787 9.112125,10.633101 9.112111,10.545861 9.127913,10.545861 9.216571,10.545693 9.923399,10.545693" style="fill: white" /><polygon type="contour" points="10.641871,10.545909 10.677403,10.545909 10.773299,10.545861 10.77359,10.668004 10.919019,10.668004 10.933704,10.667981 10.940253,10.667981 10.942227,10.849049 10.94503,10.945032 10.68504,10.940349 10.668179,10.940567 10.668072,10.913084 10.668072,10.886024 10.667899,10.863489 10.667993,10.77359 10.545859,10.773301 10.545859,10.7575 10.545906,10.66787 10.545906,10.633101 10.545859,10.545861 10.560397,10.545861" style="fill: white" /><polygon type="contour" points="10.942227,8.282654 10.940253,8.463723 10.933704,8.463723 10.919019,8.4637 10.77359,8.4637 10.773299,8.585843 10.757498,8.585843 10.667869,8.585796 10.633099,8.585796 10.545859,8.585843 10.545859,8.571306 10.545906,8.48983 10.545906,8.454298 10.545859,8.358403 10.667899,8.358113 10.667899,8.268216 10.668072,8.218619 10.668044,8.206392 10.668179,8.191137 10.68504,8.191355 10.94503,8.186672" style="fill: white" /><polygon type="contour" points="10.641871,9.112127 10.677403,9.112127 10.773299,9.112113 10.772995,9.238943 10.940418,9.238943 10.940478,9.256165 10.940138,9.600192 10.940206,9.600193 10.940096,9.638672 10.940418,9.892762 10.772995,9.892762 10.773299,10.019589 10.757497,10.019589 10.667869,10.019577 10.633099,10.019577 10.545859,10.019589 10.545859,10.003787 10.545691,9.915132 10.545691,9.208302 10.545859,9.112113 10.560397,9.112113" style="fill: white" /><polygon type="contour" points="8.446659,8.191355 8.463521,8.191137 8.463628,8.218619 8.463628,8.24568 8.463801,8.268216 8.463706,8.358113 8.585842,8.358402 8.585842,8.374203 8.585795,8.463833 8.585795,8.498602 8.585842,8.585843 8.571304,8.585843 8.489828,8.585796 8.454296,8.585796 8.3584,8.585843 8.358111,8.4637 8.21268,8.4637 8.197995,8.463723 8.191447,8.463723 8.189472,8.282654 8.186669,8.186672" style="fill: white" /><polygon type="contour" points="9.487108,8.191228 9.521841,8.191209 9.600593,8.191574 9.600593,8.191252 9.644591,8.191228 9.892785,8.191254 9.892785,8.358707 10.019587,8.358403 10.019587,8.374204 10.019575,8.463832 10.019575,8.498602 10.019587,8.585843 10.003786,8.585843 9.915129,8.586009 9.2083,8.586009 9.112111,8.585843 9.112111,8.571305 9.112125,8.48983 9.112125,8.454298 9.112111,8.358403 9.238916,8.358707 9.238916,8.191254 9.244688,8.191138" style="fill: white" /><polygon type="contour" points="9.216571,9.112219 9.923399,9.112219 10.019587,9.112113 10.019587,9.127915 10.019482,9.216572 10.019482,9.923401 10.019587,10.019589 10.003786,10.019589 9.91513,10.019485 9.2083,10.019485 9.112111,10.019589 9.112111,10.003787 9.112218,9.915132 9.112218,9.208303 9.112111,9.112113 9.127913,9.112113" style="fill: white" /><polygon type="contour" points="8.463831,9.112127 8.4986,9.112127 8.585842,9.112113 8.585842,9.127915 8.586008,9.216572 8.586008,9.923401 8.585842,10.019589 8.571304,10.019589 8.489828,10.019577 8.454296,10.019577 8.358401,10.019589 8.358705,9.892762 8.191282,9.892762 8.191223,9.875539 8.19156,9.531511 8.191493,9.531511 8.191603,9.493033 8.191282,9.238943 8.358705,9.238943 8.358401,9.112113 8.374202,9.112113" style="fill: white" /><polygon type="contour" points="8.46383,10.545909 8.4986,10.545909 8.585842,10.545861 8.585842,10.560397 8.585795,10.641873 8.585795,10.677405 8.585842,10.773301 8.463801,10.77359 8.463801,10.863488 8.463628,10.913085 8.463656,10.925311 8.463521,10.940567 8.446659,10.940349 8.186669,10.945032 8.189472,10.849049 8.191447,10.667981 8.197995,10.667981 8.21268,10.668004 8.358111,10.668004 8.358401,10.545861 8.374202,10.545861" style="fill: white" />
</svg>
