<svg width="19.131698" height="19.131699">
<polygon type="contour" points="6.816518,7.166886 6.863429,7.166886 6.863429,7.268337 6.863724,7.418175 6.835275,7.418092 6.746954,7.418092 6.745909,7.265785 6.74608,7.166678" style="fill: white" /><polygon type="contour" points="6.861643,6.861644 6.81465,6.861644 6.780177,6.861796 6.664911,6.862098 6.645288,6.860991 6.570462,6.860592 6.574095,6.610431 6.573415,6.59235 6.572598,6.5726 6.613701,6.574146 6.63573,6.574357 6.861643,6.571296" style="fill: white" /><polygon type="contour" points="8.451242,6.574055 8.495499,6.574083 8.492788,6.727015 8.492793,6.861796 8.318349,6.861645 8.200305,6.861645 8.200289,6.772841 8.200113,6.6887 8.20004,6.660792 8.20004,6.571346" style="fill: white" /><polygon type="contour" points="7.866489,6.746307 7.866489,6.818235 7.866584,6.863202 7.784232,6.863202 7.665601,6.863726 7.665708,6.835277 7.665708,6.746956 7.792472,6.746022" style="fill: white" /><polygon type="contour" points="7.41809,6.746956 7.418173,6.779208 7.418173,6.863726 7.348559,6.863726 7.166884,6.863431 7.166884,6.816521 7.166676,6.746083 7.265782,6.745912" style="fill: white" /><polygon type="contour" points="7.315092,7.166804 7.348559,7.166874 7.418173,7.166874 7.41809,7.228225 7.41809,7.418092 7.348558,7.418175 7.166872,7.418175 7.166872,7.348561 7.166676,7.166678" style="fill: white" /><polygon type="contour" points="7.866489,8.495343 7.792471,8.495256 7.665708,8.495791 7.665716,8.420126 7.665716,8.200309 7.788738,8.200018 7.866489,8.200018" style="fill: white" /><polygon type="contour" points="7.418062,8.200309 7.41809,8.271547 7.41809,8.495791 7.265783,8.495023 7.166676,8.495118 7.166676,8.20006 7.270539,8.199942" style="fill: white" /><polygon type="contour" points="6.727045,8.200181 6.772839,8.200293 6.861899,8.200293 6.861643,8.374579 6.861643,8.492625 6.646964,8.494675 6.573645,8.494975 6.571437,8.342402 6.571344,8.200042 6.66079,8.200042" style="fill: white" /><polygon type="contour" points="6.863724,7.721254 6.863199,7.866585 6.818233,7.86649 6.746305,7.86649 6.74602,7.792474 6.746954,7.66571 6.779206,7.665603 6.863724,7.665603" style="fill: white" /><polygon type="contour" points="7.228223,7.66571 7.41809,7.66571 7.418062,7.717647 7.418062,7.866437 7.348559,7.866501 7.166801,7.866585 7.166801,7.784234 7.166872,7.665603" style="fill: white" /><polygon type="contour" points="7.717645,7.665718 7.866435,7.665718 7.866435,7.717646 7.866489,7.86649 7.788738,7.86649 7.665716,7.866437 7.665708,7.817496 7.665708,7.66571" style="fill: white" /><polygon type="contour" points="7.8665,7.34856 7.866435,7.418064 7.817494,7.418092 7.665707,7.418092 7.665601,7.348561 7.665601,7.166874 7.721253,7.166874 7.866584,7.166804" style="fill: white" /><polygon type="contour" points="8.495022,7.265785 8.495788,7.418092 8.420124,7.418064 8.200307,7.418064 8.200373,7.34856 8.200057,7.166678 8.495117,7.166678" style="fill: white" /><polygon type="contour" points="8.495255,7.792473 8.495342,7.86649 8.200017,7.86649 8.200017,7.78874 8.200307,7.665718 8.271545,7.66571 8.495789,7.66571" style="fill: white" /><polygon type="contour" points="8.488464,8.33858 8.486218,8.48622 8.324547,8.484991 8.307512,8.488915 8.279222,8.491648 8.200113,8.492693 8.200113,8.200115 8.492691,8.200115" style="fill: white" /><polygon type="contour" points="12.557646,8.451244 12.557617,8.495501 12.404685,8.492789 12.270056,8.492625 12.270056,8.200308 12.314452,8.200207 12.470908,8.200042 12.560356,8.200042" style="fill: white" /><polygon type="contour" points="10.931588,8.295071 10.931588,8.492692 10.852476,8.491649 10.824187,8.488916 10.645482,8.48622 10.64671,8.324548 10.642786,8.307514 10.640053,8.279225 10.639009,8.200115 10.931814,8.200115" style="fill: white" /><polygon type="contour" points="10.711575,7.665718 10.931393,7.665718 10.931684,7.78874 10.931684,7.86649 10.636359,7.86649 10.636446,7.792473 10.635911,7.66571" style="fill: white" /><polygon type="contour" points="10.93176,7.27054 10.931393,7.418064 10.860154,7.418092 10.635911,7.418092 10.636678,7.265785 10.636584,7.166678 10.931642,7.166678" style="fill: white" /><polygon type="contour" points="10.931411,6.772841 10.931411,6.861901 10.757123,6.861645 10.639078,6.861645 10.637028,6.646966 10.636728,6.573647 10.789298,6.57144 10.931588,6.571171" style="fill: white" /><polygon type="contour" points="12.495968,6.574357 12.518011,6.574173 12.537052,6.573341 12.559103,6.5726 12.557605,6.610431 12.561238,6.860592 12.486411,6.860991 12.466788,6.862098 12.404361,6.862098 12.270056,6.861645 12.270018,6.727048 12.270018,6.571612" style="fill: white" /><polygon type="contour" points="11.965024,6.746082 11.964816,6.81652 11.964816,6.863431 11.863365,6.863431 11.713528,6.863726 11.713611,6.835277 11.713611,6.746956 11.865917,6.745911" style="fill: white" /><polygon type="contour" points="11.465992,6.746955 11.466099,6.779208 11.466099,6.863726 11.410447,6.863726 11.265117,6.863201 11.265212,6.818235 11.265212,6.746306 11.339229,6.746021" style="fill: white" /><polygon type="contour" points="11.466099,7.166874 11.465992,7.228224 11.465992,7.418091 11.414055,7.418064 11.265265,7.418064 11.2652,7.34856 11.265117,7.166804 11.347467,7.166804" style="fill: white" /><polygon type="contour" points="11.964899,7.315093 11.964828,7.348561 11.964828,7.418175 11.903478,7.418092 11.713611,7.418092 11.713528,7.34856 11.713528,7.166874 11.78314,7.166874 11.965024,7.166678" style="fill: white" /><polygon type="contour" points="12.385791,7.265785 12.384747,7.418092 12.352494,7.418175 12.267976,7.418175 12.267976,7.348561 12.268271,7.166886 12.315181,7.166886 12.385621,7.166678" style="fill: white" /><polygon type="contour" points="12.296424,7.66571 12.384747,7.66571 12.38568,7.792473 12.385395,7.86649 12.313465,7.86649 12.268499,7.866585 12.268499,7.784235 12.267976,7.665603" style="fill: white" /><polygon type="contour" points="11.964828,7.721254 11.964899,7.866585 11.78314,7.866501 11.713638,7.866437 11.713611,7.817495 11.713611,7.66571 11.78314,7.665603 11.964828,7.665603" style="fill: white" /><polygon type="contour" points="11.465984,7.717647 11.465984,7.866437 11.414056,7.866437 11.265212,7.86649 11.265212,7.78874 11.265265,7.665718 11.314205,7.66571 11.465992,7.66571" style="fill: white" /><polygon type="contour" points="11.465983,8.200309 11.465992,8.271547 11.465992,8.495791 11.339228,8.495256 11.265212,8.495343 11.265212,8.200018 11.342961,8.200018" style="fill: white" /><polygon type="contour" points="11.965024,8.495118 11.865916,8.495023 11.713611,8.495791 11.713638,8.420126 11.713638,8.200309 11.783141,8.200375 11.965024,8.200059" style="fill: white" /><polygon type="contour" points="12.486411,12.270412 12.561238,12.271111 12.557605,12.521272 12.558284,12.539354 12.559103,12.559104 12.518011,12.557531 12.495968,12.557347 12.270056,12.560408 12.270056,12.443496 12.269906,12.269908 12.351523,12.269908 12.466789,12.269606" style="fill: white" /><polygon type="contour" points="12.560262,10.789301 12.560356,10.931662 12.470908,10.931662 12.404653,10.931522 12.358859,10.931412 12.269801,10.931412 12.270056,10.757124 12.270056,10.639079 12.484735,10.637029 12.558056,10.636729" style="fill: white" /><polygon type="contour" points="11.865916,10.636681 11.965024,10.636586 11.965024,10.931644 11.86116,10.931762 11.713638,10.931395 11.713611,10.860156 11.713611,10.635913" style="fill: white" /><polygon type="contour" points="11.465984,10.711577 11.465984,10.931395 11.342961,10.931686 11.265212,10.931686 11.265212,10.636361 11.339228,10.636448 11.465992,10.635913" style="fill: white" /><polygon type="contour" points="10.931814,10.733967 10.931814,10.93159 10.639009,10.93159 10.640053,10.852478 10.642785,10.824189 10.645482,10.645484 10.852477,10.640055 10.931588,10.639011" style="fill: white" /><polygon type="contour" points="10.813349,12.270058 10.931395,12.270058 10.931411,12.358862 10.931588,12.443003 10.93166,12.470909 10.93166,12.560357 10.680457,12.557646 10.636201,12.557617 10.638913,12.404685 10.638907,12.269908" style="fill: white" /><polygon type="contour" points="11.466099,11.783142 11.466099,11.96483 11.410446,11.96483 11.265117,11.9649 11.2652,11.783142 11.265265,11.71364 11.314206,11.713613 11.465992,11.713613" style="fill: white" /><polygon type="contour" points="11.465992,12.296426 11.465992,12.384748 11.339229,12.385682 11.265212,12.385397 11.265212,12.313466 11.265117,12.2685 11.347466,12.2685 11.466099,12.267978" style="fill: white" /><polygon type="contour" points="11.964816,12.268272 11.964816,12.315182 11.965024,12.385622 11.865916,12.385792 11.713611,12.384748 11.713528,12.352495 11.713528,12.267978 11.783141,12.267978" style="fill: white" /><polygon type="contour" points="11.964828,11.783142 11.965024,11.965026 11.816607,11.9649 11.78314,11.96483 11.713528,11.96483 11.713611,11.90348 11.713611,11.713613 11.783141,11.71353 11.964828,11.71353" style="fill: white" /><polygon type="contour" points="12.296424,11.713613 12.384747,11.713613 12.385791,11.865918 12.385621,11.965026 12.315181,11.964818 12.268271,11.964818 12.268271,11.863366 12.267976,11.71353" style="fill: white" /><polygon type="contour" points="12.313465,11.265214 12.385395,11.265214 12.38568,11.33923 12.384747,11.465994 12.352494,11.466101 12.267976,11.466101 12.267976,11.410448 12.268499,11.265119" style="fill: white" /><polygon type="contour" points="11.964899,11.347469 11.964828,11.466101 11.903477,11.465994 11.713611,11.465994 11.713638,11.414057 11.713638,11.265267 11.78314,11.265202 11.964899,11.265119" style="fill: white" /><polygon type="contour" points="11.465984,11.265267 11.465992,11.314207 11.465992,11.465994 11.414055,11.465986 11.265265,11.465986 11.265265,11.414058 11.265212,11.265214 11.342961,11.265214" style="fill: white" /><polygon type="contour" points="10.931684,11.342963 10.931393,11.465985 10.860154,11.465994 10.635911,11.465994 10.635864,11.414057 10.636359,11.265214 10.931684,11.265214" style="fill: white" /><polygon type="contour" points="10.711575,11.71364 10.931393,11.71364 10.931327,11.783143 10.931642,11.965026 10.636584,11.965026 10.636679,11.865918 10.635911,11.713613" style="fill: white" /><polygon type="contour" points="7.866584,12.2685 7.866489,12.313466 7.866489,12.385397 7.792472,12.385682 7.665708,12.384748 7.665601,12.352495 7.665601,12.267978 7.721253,12.267978" style="fill: white" /><polygon type="contour" points="7.41809,12.296426 7.41809,12.384748 7.265783,12.385792 7.166676,12.385622 7.166884,12.315182 7.166884,12.268272 7.268336,12.268272 7.418173,12.267977" style="fill: white" /><polygon type="contour" points="6.861643,12.270057 6.861681,12.404654 6.861681,12.560091 6.635731,12.557347 6.613689,12.55753 6.594646,12.558363 6.572598,12.559104 6.574096,12.521272 6.570462,12.271111 6.645288,12.270412 6.66491,12.269606 6.727339,12.269606" style="fill: white" /><polygon type="contour" points="6.727013,10.638915 6.861643,10.639079 6.861643,10.931395 6.817246,10.931496 6.66079,10.931662 6.571344,10.931662 6.574053,10.680459 6.574081,10.636203" style="fill: white" /><polygon type="contour" points="8.338577,10.643239 8.486218,10.645484 8.491646,10.852479 8.492691,10.93159 8.200113,10.93159 8.200113,10.639011" style="fill: white" /><polygon type="contour" points="7.866489,10.636361 7.866489,10.931686 7.788738,10.931686 7.665716,10.931395 7.665708,10.860156 7.665708,10.635913 7.717645,10.635866" style="fill: white" /><polygon type="contour" points="7.418062,10.711577 7.418062,10.931395 7.348558,10.931329 7.166676,10.931644 7.166676,10.636586 7.265783,10.63668 7.41809,10.635913" style="fill: white" /><polygon type="contour" points="7.348559,11.265202 7.418062,11.265267 7.41809,11.314207 7.41809,11.465994 7.348559,11.466101 7.166872,11.466101 7.166872,11.410449 7.166801,11.265119" style="fill: white" /><polygon type="contour" points="6.8632,11.347469 6.863724,11.466101 6.835275,11.465994 6.746954,11.465994 6.746019,11.339231 6.746304,11.265214 6.818233,11.265214 6.8632,11.265119" style="fill: white" /><polygon type="contour" points="6.863724,11.783142 6.863429,11.964818 6.816518,11.964818 6.74608,11.965026 6.745909,11.865919 6.746954,11.713613 6.779206,11.71353 6.863724,11.71353" style="fill: white" /><polygon type="contour" points="7.228223,11.713613 7.41809,11.713613 7.418173,11.783143 7.418173,11.96483 7.348559,11.96483 7.166676,11.965026 7.166801,11.81661 7.166872,11.783142 7.166872,11.71353" style="fill: white" /><polygon type="contour" points="7.717645,11.71364 7.866435,11.71364 7.8665,11.783143 7.866584,11.9649 7.784232,11.9649 7.665601,11.96483 7.665708,11.903479 7.665708,11.713613" style="fill: white" /><polygon type="contour" points="7.866489,11.342964 7.866435,11.465986 7.817494,11.465994 7.665708,11.465994 7.665716,11.414057 7.665716,11.265267 7.717644,11.265267 7.866489,11.265214" style="fill: white" /><polygon type="contour" points="8.495255,11.33923 8.495789,11.465994 8.420124,11.465986 8.200307,11.465986 8.200017,11.342963 8.200017,11.265214 8.495342,11.265214" style="fill: white" /><polygon type="contour" points="8.495022,11.86592 8.495117,11.965026 8.200058,11.965026 8.199941,11.861163 8.200307,11.71364 8.271545,11.713613 8.495789,11.713613" style="fill: white" /><polygon type="contour" points="8.374577,12.270058 8.492623,12.270058 8.494672,12.484736 8.494972,12.558056 8.342401,12.560263 8.200113,12.560533 8.20029,12.358862 8.20029,12.269803" style="fill: white" />
</svg>
