<svg width="19.131698" height="19.131699">
<polygon type="contour" points="10.526893,8.823621 10.52591,8.848052 10.525287,8.904526 10.421601,8.904526 10.261191,8.904375 10.227327,8.904375 10.227327,8.870511 10.227242,8.715713 10.227164,8.639069 10.227164,8.624674 10.22716,8.615039 10.227201,8.614122 10.227437,8.606553 10.240473,8.606614 10.533588,8.598114" style="fill: white" /><polygon type="contour" points="10.52591,10.283651 10.526893,10.30808 10.533588,10.53359 10.240473,10.52509 10.227437,10.525151 10.22716,10.516666 10.22716,10.508391 10.227163,10.50703 10.227242,10.41599 10.227327,10.227329 10.261191,10.227329 10.421601,10.227176 10.525287,10.227176" style="fill: white" /><polygon type="contour" points="9.711101,10.52567 9.572659,10.524996 9.566187,10.525119 9.561383,10.524997 9.559707,10.524996 9.4206,10.52567 9.4206,10.226811 9.711101,10.226811" style="fill: white" /><polygon type="contour" points="9.711101,9.711102 9.4206,9.711102 9.4206,9.420602 9.711101,9.420602" style="fill: white" /><polygon type="contour" points="9.080862,9.420602 9.268661,9.420602 9.268661,9.711102 9.080862,9.711102 9.05522,9.711494 9.05522,9.42021" style="fill: white" /><polygon type="contour" points="8.90501,9.081085 8.904813,9.147319 8.904813,9.185423 8.905051,9.268538 8.868882,9.268663 8.773162,9.268663 8.77328,9.185419 8.773322,9.161788 8.773163,9.078126 8.773102,9.055222 8.90501,9.055222" style="fill: white" /><polygon type="contour" points="8.891226,8.606614 8.904263,8.606553 8.90454,8.615038 8.90454,8.623313 8.904536,8.624674 8.904458,8.715714 8.904373,8.904375 8.870508,8.904375 8.710098,8.904526 8.606413,8.904526 8.605791,8.848053 8.604807,8.823621 8.598112,8.598114" style="fill: white" /><polygon type="contour" points="9.139229,8.773277 9.157671,8.773324 9.246246,8.773204 9.268661,8.773164 9.268661,8.868885 9.268924,8.905053 9.243262,8.905053 9.177457,8.904814 9.139228,8.904814 9.05522,8.905011 9.05522,8.773104" style="fill: white" /><polygon type="contour" points="9.269886,9.055222 9.26922,9.139231 9.269138,9.147286 9.269138,9.185418 9.268661,9.268663 9.243308,9.268663 9.161961,9.269252 9.055211,9.268538 9.055211,9.243263 9.054917,9.17746 9.05484,9.160384 9.055219,9.055222 9.081083,9.055222 9.147315,9.054918 9.164131,9.05484" style="fill: white" /><polygon type="contour" points="9.711101,9.080866 9.711101,9.268663 9.4206,9.268663 9.4206,9.055222 9.711493,9.055222" style="fill: white" /><polygon type="contour" points="9.711101,8.828308 9.711282,8.871149 9.711282,8.87133 9.711463,8.904893 9.4206,8.904893 9.4206,8.606034 9.559039,8.606706 9.565501,8.606583 9.570316,8.606704 9.571992,8.606706 9.711101,8.606034" style="fill: white" /><polygon type="contour" points="10.07648,8.905011 10.050617,8.905011 9.984383,8.904814 9.946279,8.904814 9.863165,8.905053 9.863146,8.869017 9.863146,8.773157 9.972711,8.77332 10.053575,8.773165 10.07648,8.773104" style="fill: white" /><polygon type="contour" points="10.07648,9.055222 10.076489,9.121951 10.076784,9.139231 10.076784,9.185424 10.076489,9.268538 9.986491,9.26914 9.984417,9.26914 9.963989,9.269241 9.86304,9.268662 9.86304,9.24331 9.86245,9.161945 9.863166,9.055212 9.888439,9.055212 9.971349,9.054841" style="fill: white" /><polygon type="contour" points="10.358426,9.139232 10.358379,9.157601 10.358498,9.246248 10.358538,9.268663 10.262817,9.268663 10.226649,9.268538 10.226649,9.243264 10.226887,9.177459 10.226887,9.139231 10.22669,9.055222 10.358598,9.055222" style="fill: white" /><polygon type="contour" points="10.260494,9.420602 10.525763,9.420602 10.525211,9.536989 10.525313,9.563606 10.525304,9.565502 10.52521,9.594152 10.525763,9.711102 10.226808,9.711102 10.226808,9.42024" style="fill: white" /><polygon type="contour" points="10.262816,9.863042 10.358539,9.863042 10.35842,9.946284 10.358378,9.969915 10.358537,10.053577 10.358599,10.076482 10.22669,10.076482 10.22669,10.050618 10.226887,9.984384 10.226887,9.946156 10.226649,9.862778" style="fill: white" /><polygon type="contour" points="10.07648,9.711102 9.86304,9.711102 9.86304,9.420602 10.050837,9.420602 10.07648,9.42021" style="fill: white" /><polygon type="contour" points="10.076489,9.862778 10.076489,9.888441 10.076784,9.954243 10.076784,9.954244 10.07686,9.971318 10.076479,10.076482 10.050616,10.076482 9.984384,10.076786 9.967568,10.076863 9.861815,10.076482 9.86248,9.992472 9.862563,9.984417 9.862563,9.946285 9.86304,9.863042 9.888392,9.863042 9.974366,9.862419" style="fill: white" /><polygon type="contour" points="9.954242,10.22689 9.992471,10.22689 10.07648,10.226693 10.07648,10.358601 9.99247,10.358428 9.974028,10.35838 9.885454,10.3585 9.86304,10.358541 9.86304,10.262818 9.862777,10.226651 9.888438,10.226651" style="fill: white" /><polygon type="contour" points="9.711101,10.076482 9.4206,10.076482 9.4206,9.863042 9.711101,9.863042" style="fill: white" /><polygon type="contour" points="9.268661,10.262818 9.268661,10.358541 9.185416,10.358421 9.161728,10.358379 9.078124,10.358539 9.05522,10.358601 9.05522,10.226693 9.081082,10.226693 9.147316,10.22689 9.185543,10.22689 9.268924,10.226651" style="fill: white" /><polygon type="contour" points="9.130721,9.862565 9.147282,9.862565 9.16771,9.862463 9.268661,9.863042 9.268661,9.888394 9.269138,9.954264 9.268917,9.954264 9.269886,10.076482 9.244021,10.076482 9.160557,10.076863 9.05522,10.076482 9.05522,10.009945 9.054917,9.992471 9.054917,9.946279 9.05522,9.86221" style="fill: white" /><polygon type="contour" points="8.904892,9.711464 8.871205,9.711102 8.605938,9.711102 8.606488,9.594715 8.606386,9.568096 8.606395,9.566202 8.606489,9.53755 8.605938,9.420602 8.638439,9.420602 8.663942,9.420331 8.904892,9.42024" style="fill: white" /><polygon type="contour" points="8.905051,9.863167 8.905051,9.88844 8.904813,9.954244 8.904813,9.992472 8.90501,10.076482 8.773102,10.076482 8.773274,9.992471 8.773321,9.974102 8.773203,9.885457 8.773162,9.863042 8.868882,9.863042" style="fill: white" /><polygon type="contour" points="8.870508,10.227329 8.904373,10.227329 8.904373,10.261192 8.904458,10.41599 8.904536,10.492634 8.904536,10.50703 8.90454,10.516665 8.904497,10.517582 8.904263,10.525151 8.891226,10.52509 8.598112,10.53359 8.604807,10.30808 8.60579,10.283651 8.606413,10.227176 8.710098,10.227176" style="fill: white" />
</svg>
