<svg width="19.131698" height="19.131699">
<polygon type="contour" points="8.89852,8.687769 8.993104,8.690072 8.995661,8.774808 9.4206,8.774808 9.4206,8.691504 9.538892,8.691727 9.56271,8.691722 9.563388,8.691702 9.56619,8.691661 9.567846,8.691672 9.568995,8.691701 9.56967,8.691722 9.593373,8.691727 9.711101,8.691504 9.711101,8.774808 10.135832,8.774808 10.138597,8.690072 10.233179,8.687769 10.445879,8.685823 10.440425,8.974211 10.440225,8.995976 10.356895,8.995758 10.356895,9.420602 10.441039,9.420602 10.440946,9.439854 10.439871,9.566204 10.441039,9.711102 10.356895,9.711102 10.356895,10.135871 10.440225,10.135729 10.440425,10.157492 10.445879,10.44588 10.233179,10.443934 10.138597,10.441631 10.136039,10.356896 9.711101,10.356896 9.711101,10.440199 9.592806,10.439977 9.568989,10.439982 9.568311,10.440002 9.565501,10.440043 9.563852,10.440031 9.562704,10.440002 9.562029,10.439982 9.538326,10.439977 9.4206,10.440199 9.4206,10.356896 8.995868,10.356896 8.993103,10.441631 8.89852,10.443935 8.685821,10.445881 8.691274,10.157492 8.691474,10.135729 8.774806,10.135945 8.774806,9.711102 8.690661,9.711102 8.690753,9.691849 8.691828,9.566198 8.690661,9.420602 8.774806,9.420602 8.774806,8.995833 8.691474,8.995976 8.691275,8.974211 8.685821,8.685822" style="fill: white" />
</svg>
