<svg width="19.131698" height="19.131699">
<polygon type="contour" points="12.505785,13.38388 12.505785,13.497547 12.373575,13.497547 12.290838,13.497798 12.291154,13.38388 12.291254,13.201916 12.411337,13.201682 12.50577,13.201682" style="fill: white" /><polygon type="contour" points="12.50577,13.784546 12.50577,13.841637 12.424965,13.842073 12.290904,13.842169 12.290838,13.75297 12.290838,13.710894 12.436288,13.710894 12.505785,13.710872" style="fill: white" /><polygon type="contour" points="12.030791,13.711807 12.030788,13.797179 12.030811,13.842837 12.027419,13.840198 12.027532,14.018498 11.782174,14.017691 11.724388,14.017795 11.723261,13.946078 11.72539,13.86501 11.72666,13.711147 11.87867,13.711147" style="fill: white" /><polygon type="contour" points="12.03082,13.383881 12.030915,13.497651 11.877228,13.497498 11.725498,13.497498 11.725818,13.366951 11.725304,13.201935 11.861494,13.202116 12.030822,13.201916" style="fill: white" /><polygon type="contour" points="10.977517,12.050852 10.767514,12.050852 10.767514,11.840852 10.977517,11.840852" style="fill: white" /><polygon type="contour" points="10.324185,12.050852 10.114186,12.050852 10.114186,11.840852 10.324185,11.840852" style="fill: white" /><polygon type="contour" points="9.670852,12.050852 9.460849,12.050852 9.460849,11.840852 9.670852,11.840852" style="fill: white" /><polygon type="contour" points="9.017514,12.050852 8.807515,12.050852 8.807515,11.840852 9.017514,11.840852" style="fill: white" /><polygon type="contour" points="8.364186,12.050852 8.154183,12.050852 8.154183,11.840852 8.364186,11.840852" style="fill: white" /><polygon type="contour" points="5.26669,11.725392 5.420555,11.726661 5.420555,11.878671 5.419894,12.030793 5.334522,12.030789 5.289788,12.030823 5.289626,12.027137 5.201431,12.02724 5.169751,12.027534 5.113204,12.027534 5.113812,11.782929 5.11368,11.724608 5.186098,11.723435" style="fill: white" /><polygon type="contour" points="5.929586,11.861495 5.929786,12.030823 5.74782,12.030822 5.634051,12.030916 5.634204,11.87723 5.634204,11.7255 5.764751,11.72582 5.929768,11.725305" style="fill: white" /><polygon type="contour" points="5.74782,12.291156 5.929786,12.291256 5.930021,12.41134 5.930021,12.505771 5.74782,12.505786 5.634154,12.505786 5.634154,12.373576 5.633902,12.29084" style="fill: white" /><polygon type="contour" points="5.420808,12.436291 5.420829,12.505786 5.347155,12.505771 5.290066,12.505771 5.28963,12.424967 5.289534,12.290907 5.37873,12.29084 5.420808,12.29084" style="fill: white" /><polygon type="contour" points="5.176033,13.711441 5.223277,13.711441 5.400211,13.711845 5.419857,13.711845 5.419857,14.018978 5.222742,14.021295 5.196519,14.019865 5.108677,14.023024 5.111837,13.935181 5.112445,13.776181 5.112708,13.711441 5.16691,13.711322" style="fill: white" /><polygon type="contour" points="5.371,13.202148 5.420829,13.202148 5.420829,13.38388 5.420714,13.497651 5.289754,13.497651 5.290037,13.383881 5.290066,13.201682" style="fill: white" /><polygon type="contour" points="5.929554,13.383881 5.929554,13.497547 5.747819,13.497547 5.634051,13.497651 5.634051,13.29237 5.634154,13.202148 5.799791,13.201682 5.930021,13.201682" style="fill: white" /><polygon type="contour" points="5.930021,13.784546 5.930021,13.841637 5.74782,13.841663 5.634051,13.841946 5.634051,13.710988 5.83933,13.710988 5.929554,13.710872" style="fill: white" /><polygon type="contour" points="7.408594,13.949085 7.407544,14.018162 7.352011,14.01802 7.104168,14.018498 7.104241,13.904062 7.104565,13.842109 7.100879,13.841912 7.10088,13.75362 7.100909,13.711807 7.253031,13.711147 7.40504,13.711147" style="fill: white" /><polygon type="contour" points="6.840862,13.710894 6.840795,13.794328 6.840795,13.842168 6.706732,13.842073 6.625929,13.841637 6.625916,13.7607 6.625916,13.710872 6.758124,13.710872" style="fill: white" /><polygon type="contour" points="6.747888,13.201916 6.840447,13.201916 6.840545,13.38388 6.840862,13.497798 6.69541,13.497798 6.625916,13.497547 6.625929,13.33191 6.625929,13.201682" style="fill: white" /><polygon type="contour" points="7.270205,13.202116 7.406397,13.201935 7.405882,13.366952 7.406201,13.497498 7.254472,13.497498 7.100786,13.497651 7.100771,13.304841 7.100879,13.201916" style="fill: white" /><polygon type="contour" points="7.270231,12.290998 7.405627,12.290998 7.405855,12.385045 7.406643,12.505834 7.271008,12.505898 7.100879,12.505853 7.100879,12.383812 7.100831,12.290907" style="fill: white" /><polygon type="contour" points="6.840795,12.426844 6.840447,12.505853 6.72036,12.505771 6.625928,12.505771 6.625849,12.383812 6.625849,12.291256 6.747888,12.291256 6.840795,12.290907" style="fill: white" /><polygon type="contour" points="6.746655,11.725846 6.840704,11.726074 6.840704,11.861468 6.840795,12.030871 6.704857,12.030871 6.625849,12.030823 6.625805,11.860694 6.625867,11.725059" style="fill: white" /><polygon type="contour" points="7.29085,11.729501 7.404084,11.727617 7.40673,11.840852 7.710849,11.840852 7.710849,12.050852 7.500849,12.050852 7.500849,12.031139 7.347333,12.030812 7.10089,12.030812 7.100768,11.944626 7.100892,11.863832 7.100892,11.630853 7.080851,11.630853 7.080851,11.420854 7.29085,11.420854" style="fill: white" /><polygon type="hole" points="7.107183,11.630853 7.104156,11.727529 7.168164,11.731542 7.271508,11.729823 7.270685,11.630853" style="fill: black" /><polygon type="contour" points="7.29085,10.977519 7.080851,10.977519 7.080851,10.767516 7.29085,10.767516" style="fill: white" /><polygon type="contour" points="7.29085,10.324187 7.080851,10.324187 7.080851,10.114188 7.29085,10.114188" style="fill: white" /><polygon type="contour" points="7.29085,9.670854 7.080851,9.670854 7.080851,9.460851 7.29085,9.460851" style="fill: white" /><polygon type="contour" points="7.29085,9.017516 7.080851,9.017516 7.080851,8.807517 7.29085,8.807517" style="fill: white" /><polygon type="contour" points="7.29085,8.364188 7.080851,8.364188 7.080851,8.154185 7.29085,8.154185" style="fill: white" /><polygon type="contour" points="7.349527,5.114013 7.407313,5.11391 7.408439,5.185624 7.406309,5.266692 7.40504,5.420556 7.253031,5.420556 7.100909,5.419896 7.100912,5.334524 7.100918,5.288787 7.104558,5.288404 7.104241,5.227642 7.104168,5.113206" style="fill: white" /><polygon type="contour" points="7.254472,5.634205 7.406201,5.634205 7.405883,5.764752 7.406397,5.929771 7.270206,5.929588 7.100879,5.929788 7.10088,5.747822 7.100786,5.634052" style="fill: white" /><polygon type="contour" points="6.840545,5.747822 6.840447,5.929788 6.720361,5.930023 6.625929,5.930023 6.625916,5.747821 6.625916,5.634156 6.758125,5.634156 6.840862,5.633904" style="fill: white" /><polygon type="contour" points="6.840862,5.378732 6.840862,5.420809 6.695411,5.420809 6.625916,5.420831 6.625929,5.347158 6.625929,5.290067 6.706732,5.289631 6.840795,5.289536" style="fill: white" /><polygon type="contour" points="5.377512,5.111031 5.419857,5.112725 5.419817,5.240512 5.419817,5.419819 5.372968,5.419858 5.112724,5.419858 5.111837,5.19652 5.108677,5.108677" style="fill: white" /><polygon type="contour" points="5.74782,5.290039 5.79577,5.290067 5.930021,5.290067 5.929554,5.371001 5.929554,5.420831 5.74782,5.420831 5.634051,5.420716 5.634051,5.289756" style="fill: white" /><polygon type="contour" points="5.74782,5.634156 5.929554,5.634156 5.930021,5.799793 5.930021,5.930023 5.74782,5.929556 5.634154,5.929556 5.634154,5.747821 5.634051,5.634052 5.729366,5.633904" style="fill: white" /><polygon type="contour" points="5.420714,5.839333 5.420829,5.929556 5.347156,5.930023 5.290066,5.930023 5.290037,5.747821 5.289754,5.634052 5.420714,5.634052" style="fill: white" /><polygon type="contour" points="5.799791,6.625931 5.930021,6.625931 5.929786,6.747891 5.929786,6.840449 5.74782,6.840547 5.633902,6.840864 5.634154,6.758127 5.634154,6.625918" style="fill: white" /><polygon type="contour" points="5.420829,6.758126 5.420808,6.840864 5.337375,6.840797 5.289534,6.840797 5.28963,6.706734 5.290066,6.625931 5.371,6.625918 5.420829,6.625918" style="fill: white" /><polygon type="contour" points="5.378079,7.100882 5.419894,7.100911 5.420555,7.253032 5.420555,7.405042 5.182614,7.408052 5.113539,7.406905 5.113679,7.351444 5.113204,7.10417 5.144977,7.104502 5.201491,7.104502 5.289624,7.104603 5.289789,7.100881" style="fill: white" /><polygon type="contour" points="5.74782,7.100882 5.929786,7.100881 5.929786,7.234273 5.930021,7.406708 5.764751,7.405884 5.634204,7.406202 5.634204,7.254473 5.634051,7.100788" style="fill: white" /><polygon type="contour" points="6.840704,7.270234 6.840704,7.405629 6.746656,7.405856 6.625867,7.406645 6.625805,7.271009 6.625849,7.100881 6.747889,7.100881 6.840795,7.100833" style="fill: white" /><polygon type="contour" points="6.840447,6.747891 6.840795,6.840797 6.704857,6.840797 6.625849,6.840449 6.625929,6.720362 6.625929,6.625931 6.747888,6.625851 6.840447,6.625851" style="fill: white" /><polygon type="contour" points="7.406643,6.625869 7.405854,6.746659 7.405627,6.840706 7.270231,6.840706 7.100831,6.840797 7.100879,6.747891 7.100879,6.625851 7.271007,6.625807" style="fill: white" /><polygon type="contour" points="7.710849,7.290852 7.4022,7.290852 7.404084,7.404087 7.29085,7.406733 7.29085,7.71085 7.080851,7.71085 7.080851,7.500851 7.100562,7.500851 7.10089,7.347335 7.10089,7.100892 7.187075,7.10077 7.26787,7.100895 7.500849,7.100895 7.500849,7.080852 7.710849,7.080852" style="fill: white" /><polygon type="hole" points="7.40016,7.168167 7.401878,7.27151 7.500849,7.270687 7.500849,7.107185 7.404172,7.104158" style="fill: black" /><polygon type="contour" points="8.364186,7.290852 8.154183,7.290852 8.154183,7.080852 8.364186,7.080852" style="fill: white" /><polygon type="contour" points="9.017514,7.290852 8.807515,7.290852 8.807515,7.080852 9.017514,7.080852" style="fill: white" /><polygon type="contour" points="9.670852,7.290852 9.460849,7.290852 9.460849,7.080852 9.670852,7.080852" style="fill: white" /><polygon type="contour" points="10.324185,7.290852 10.114186,7.290852 10.114186,7.080852 10.324185,7.080852" style="fill: white" /><polygon type="contour" points="10.977517,7.290852 10.767514,7.290852 10.767514,7.080852 10.977517,7.080852" style="fill: white" /><polygon type="contour" points="12.030928,5.826862 12.030822,5.929788 11.897428,5.929788 11.724994,5.930023 11.725818,5.764753 11.725498,5.634205 11.877228,5.634205 12.030915,5.634052" style="fill: white" /><polygon type="contour" points="12.027459,5.227642 12.027135,5.289594 12.030822,5.28979 12.030821,5.378081 12.030791,5.419896 11.87867,5.420556 11.726659,5.420556 11.723106,5.182617 11.724155,5.113541 11.779688,5.113682 12.027532,5.113206" style="fill: white" /><polygon type="contour" points="12.424964,5.289631 12.50577,5.290067 12.505785,5.371 12.505785,5.420831 12.373576,5.420831 12.290838,5.420809 12.290905,5.337376 12.290905,5.289536" style="fill: white" /><polygon type="contour" points="12.505785,5.634156 12.50577,5.799794 12.50577,5.930023 12.383812,5.929788 12.291254,5.929788 12.291154,5.747822 12.290838,5.633904 12.436289,5.633904" style="fill: white" /><polygon type="contour" points="14.019864,5.196519 14.019252,5.355521 14.018991,5.420261 13.964788,5.420381 13.955663,5.420261 13.908419,5.420261 13.731487,5.419858 13.711842,5.419858 13.711842,5.372969 13.711805,5.325197 13.711805,5.112764 13.839834,5.111293 13.908958,5.110409 13.93518,5.111838 14.023023,5.108678" style="fill: white" /><polygon type="contour" points="13.497648,5.289756 13.497648,5.420716 13.292367,5.420716 13.202146,5.420831 13.20168,5.347158 13.20168,5.290067 13.306966,5.289741" style="fill: white" /><polygon type="contour" points="13.841661,5.747822 13.841634,5.930023 13.760697,5.929556 13.71087,5.929556 13.71087,5.747821 13.710985,5.634052 13.841944,5.634052" style="fill: white" /><polygon type="contour" points="13.497648,5.839333 13.497545,5.929556 13.331908,5.930023 13.20168,5.930023 13.202147,5.747822 13.202147,5.634156 13.383879,5.634156 13.497648,5.634052" style="fill: white" /><polygon type="contour" points="13.497545,6.758126 13.497796,6.840864 13.383878,6.840547 13.201915,6.840449 13.20168,6.720363 13.20168,6.625931 13.383878,6.625918 13.497545,6.625918" style="fill: white" /><polygon type="contour" points="13.784543,6.625931 13.841634,6.625931 13.84207,6.706734 13.842166,6.840797 13.752967,6.840864 13.710891,6.840864 13.710891,6.695412 13.71087,6.625918" style="fill: white" /><polygon type="contour" points="13.842073,7.104568 13.930265,7.104464 13.961946,7.10417 14.018496,7.10417 14.017888,7.348773 14.01802,7.407096 13.945602,7.408268 13.865008,7.406311 13.711145,7.405042 13.711145,7.253033 13.711805,7.100911 13.797178,7.100914 13.84191,7.100881" style="fill: white" /><polygon type="contour" points="13.497495,7.254473 13.497495,7.406202 13.366949,7.405883 13.201932,7.406398 13.202114,7.270208 13.201915,7.100881 13.383878,7.100882 13.497648,7.100788" style="fill: white" /><polygon type="contour" points="12.505851,7.100881 12.505851,7.234273 12.50577,7.406708 12.385043,7.405857 12.290997,7.405629 12.290997,7.270233 12.290905,7.100833 12.426842,7.100833" style="fill: white" /><polygon type="contour" points="12.411338,6.625931 12.50577,6.625931 12.505851,6.74789 12.505851,6.840449 12.383811,6.840449 12.290905,6.840797 12.290905,6.70486 12.291254,6.625851" style="fill: white" /><polygon type="contour" points="12.030822,6.625851 12.030822,6.747891 12.03087,6.840797 11.861467,6.840706 11.726072,6.840706 11.725844,6.746658 11.725057,6.625869 11.860693,6.625807" style="fill: white" /><polygon type="contour" points="11.630851,7.100564 11.784367,7.100892 12.030811,7.100892 12.030932,7.187077 12.030808,7.267871 12.030808,7.500851 12.050849,7.500851 12.050849,7.71085 11.84085,7.71085 11.84085,7.402203 11.727617,7.404087 11.724969,7.290852 11.420852,7.290852 11.420852,7.080852 11.630851,7.080852" style="fill: white" /><polygon type="hole" points="11.860205,7.401881 11.861028,7.500851 12.024512,7.500851 12.02754,7.404175 11.963535,7.400162" style="fill: black" /><polygon type="contour" points="12.050849,8.364188 11.84085,8.364188 11.84085,8.154185 12.050849,8.154185" style="fill: white" /><polygon type="contour" points="12.050849,9.017516 11.84085,9.017516 11.84085,8.807517 12.050849,8.807517" style="fill: white" /><polygon type="contour" points="12.050849,9.670854 11.84085,9.670854 11.84085,9.460851 12.050849,9.460851" style="fill: white" /><polygon type="contour" points="12.050849,10.324187 11.84085,10.324187 11.84085,10.114188 12.050849,10.114188" style="fill: white" /><polygon type="contour" points="12.050849,10.977519 11.84085,10.977519 11.84085,10.767516 12.050849,10.767516" style="fill: white" /><polygon type="contour" points="12.050849,11.630853 12.031136,11.630853 12.030811,11.784368 12.030811,12.030811 11.944624,12.030934 11.86383,12.030809 11.630851,12.030809 11.630851,12.050852 11.420852,12.050852 11.420852,11.840852 11.7295,11.840852 11.727617,11.727618 11.84085,11.72497 11.84085,11.420854 12.050849,11.420854" style="fill: white" /><polygon type="hole" points="11.630851,11.860955 11.630851,12.024529 11.727526,12.027557 11.731541,11.963536 11.729821,11.860132" style="fill: black" /><polygon type="contour" points="12.030822,12.383812 12.030822,12.505853 11.897429,12.505853 11.724994,12.505771 11.725844,12.385044 11.726072,12.290998 11.861467,12.290998 12.03087,12.290907" style="fill: white" /><polygon type="contour" points="12.505851,12.291256 12.50577,12.41134 12.50577,12.505771 12.383812,12.505853 12.291254,12.505853 12.291254,12.383813 12.290905,12.290907 12.426841,12.290907" style="fill: white" /><polygon type="contour" points="12.505896,11.860693 12.505851,12.030823 12.383811,12.030823 12.290905,12.030871 12.290997,11.861468 12.290997,11.726074 12.385043,11.725845 12.505832,11.725059" style="fill: white" /><polygon type="contour" points="13.366948,11.72582 13.497495,11.7255 13.497495,11.87723 13.497648,12.030916 13.383878,12.030822 13.201915,12.030823 13.202114,11.861495 13.201932,11.725306" style="fill: white" /><polygon type="contour" points="14.018162,11.724799 14.01802,11.780259 14.018496,12.027534 13.986722,12.027202 13.930207,12.027202 13.842075,12.027101 13.841909,12.030823 13.753617,12.030821 13.711805,12.030792 13.711145,11.878672 13.711145,11.726661 13.949084,11.723651" style="fill: white" /><polygon type="contour" points="13.794325,12.290907 13.842166,12.290907 13.84207,12.424967 13.841634,12.505771 13.760698,12.505786 13.71087,12.505786 13.71087,12.373576 13.710891,12.29084" style="fill: white" /><polygon type="contour" points="13.497545,12.373577 13.497545,12.505786 13.331908,12.505771 13.20168,12.505771 13.201915,12.383813 13.201915,12.291256 13.383878,12.291156 13.497796,12.29084" style="fill: white" /><polygon type="contour" points="13.84196,13.30697 13.841944,13.497651 13.710985,13.497651 13.710985,13.29237 13.71087,13.202148 13.784544,13.201682 13.841634,13.201682" style="fill: white" /><polygon type="contour" points="13.383879,13.202148 13.497545,13.202148 13.497545,13.383881 13.497648,13.49765 13.402332,13.497798 13.383878,13.497547 13.202147,13.497547 13.20168,13.33191 13.20168,13.201682" style="fill: white" /><polygon type="contour" points="13.497648,13.710988 13.497648,13.841946 13.383878,13.841662 13.335929,13.841637 13.20168,13.841637 13.202147,13.7607 13.202147,13.710872 13.383879,13.710872" style="fill: white" /><polygon type="contour" points="14.019864,13.935182 14.023023,14.023024 13.754185,14.020672 13.711842,14.018978 13.711842,13.711845 14.018976,13.711845" style="fill: white" /><polygon type="contour" points="14.264602,14.920853 14.054599,14.920853 14.054599,14.710852 14.264602,14.710852" style="fill: white" /><polygon type="contour" points="13.608352,14.920853 13.398349,14.920853 13.398349,14.710852 13.608352,14.710852" style="fill: white" /><polygon type="contour" points="12.952102,14.920853 12.742099,14.920853 12.742099,14.710852 12.952102,14.710852" style="fill: white" /><polygon type="contour" points="12.295852,14.920853 12.085849,14.920853 12.085849,14.710852 12.295852,14.710852" style="fill: white" /><polygon type="contour" points="11.639602,14.920853 11.429599,14.920853 11.429599,14.710852 11.639602,14.710852" style="fill: white" /><polygon type="contour" points="10.983352,14.920853 10.773349,14.920853 10.773349,14.710852 10.983352,14.710852" style="fill: white" /><polygon type="contour" points="10.327102,14.920853 10.117099,14.920853 10.117099,14.710852 10.327102,14.710852" style="fill: white" /><polygon type="contour" points="9.670852,14.920853 9.460849,14.920853 9.460849,14.710852 9.670852,14.710852" style="fill: white" /><polygon type="contour" points="9.014602,14.920853 8.804599,14.920853 8.804599,14.710852 9.014602,14.710852" style="fill: white" /><polygon type="contour" points="8.358351,14.920853 8.148349,14.920853 8.148349,14.710852 8.358351,14.710852" style="fill: white" /><polygon type="contour" points="7.702101,14.920853 7.492099,14.920853 7.492099,14.710852 7.702101,14.710852" style="fill: white" /><polygon type="contour" points="7.045851,14.920853 6.835849,14.920853 6.835849,14.710852 7.045851,14.710852" style="fill: white" /><polygon type="contour" points="6.389601,14.920853 6.179599,14.920853 6.179599,14.710852 6.389601,14.710852" style="fill: white" /><polygon type="contour" points="5.733351,14.920853 5.52335,14.920853 5.52335,14.710852 5.733351,14.710852" style="fill: white" /><polygon type="contour" points="5.0771,14.920853 4.8671,14.920853 4.8671,14.710852 5.0771,14.710852" style="fill: white" /><polygon type="contour" points="4.42085,14.920853 4.21085,14.920853 4.21085,14.710852 4.42085,14.710852" style="fill: white" /><polygon type="contour" points="4.42085,14.264603 4.21085,14.264603 4.21085,14.054602 4.42085,14.054602" style="fill: white" /><polygon type="contour" points="4.42085,13.608353 4.21085,13.608353 4.21085,13.398351 4.42085,13.398351" style="fill: white" /><polygon type="contour" points="4.42085,12.952103 4.21085,12.952103 4.21085,12.742101 4.42085,12.742101" style="fill: white" /><polygon type="contour" points="4.42085,12.295853 4.21085,12.295853 4.21085,12.085851 4.42085,12.085851" style="fill: white" /><polygon type="contour" points="4.42085,11.639603 4.21085,11.639603 4.21085,11.429601 4.42085,11.429601" style="fill: white" /><polygon type="contour" points="4.42085,10.983354 4.21085,10.983354 4.210851,10.80095 4.210851,10.773351 4.42085,10.773351" style="fill: white" /><polygon type="contour" points="4.42085,10.327104 4.21085,10.327104 4.21085,10.117101 4.42085,10.117101" style="fill: white" /><polygon type="contour" points="4.42085,9.670854 4.21085,9.670854 4.21085,9.460851 4.42085,9.460851" style="fill: white" /><polygon type="contour" points="4.42085,9.014604 4.21085,9.014604 4.21085,8.804601 4.42085,8.804601" style="fill: white" /><polygon type="contour" points="4.42085,8.358353 4.21085,8.358353 4.21085,8.14835 4.42085,8.14835" style="fill: white" /><polygon type="contour" points="4.42085,7.702103 4.21085,7.702103 4.21085,7.492101 4.42085,7.492101" style="fill: white" /><polygon type="contour" points="4.42085,6.86345 4.420849,7.045853 4.21085,7.045853 4.21085,6.835851 4.42085,6.835851" style="fill: white" /><polygon type="contour" points="4.42085,6.389603 4.21085,6.389603 4.21085,6.179601 4.42085,6.179601" style="fill: white" /><polygon type="contour" points="4.42085,5.733353 4.21085,5.733353 4.21085,5.523352 4.42085,5.523352" style="fill: white" /><polygon type="contour" points="4.42085,5.077102 4.21085,5.077102 4.21085,4.867102 4.42085,4.867102" style="fill: white" /><polygon type="contour" points="4.42085,4.420852 4.21085,4.420852 4.21085,4.210852 4.42085,4.210852" style="fill: white" /><polygon type="contour" points="5.0771,4.420852 4.8671,4.420852 4.8671,4.210852 5.0771,4.210852" style="fill: white" /><polygon type="contour" points="5.733351,4.420852 5.52335,4.420852 5.52335,4.210852 5.733351,4.210852" style="fill: white" /><polygon type="contour" points="6.389601,4.420852 6.179599,4.420852 6.179599,4.210852 6.389601,4.210852" style="fill: white" /><polygon type="contour" points="7.045851,4.420852 6.835849,4.420852 6.835849,4.210852 7.045851,4.210852" style="fill: white" /><polygon type="contour" points="7.702101,4.420852 7.492099,4.420852 7.492099,4.210852 7.702101,4.210852" style="fill: white" /><polygon type="contour" points="8.358351,4.420852 8.148349,4.420852 8.148349,4.210852 8.358351,4.210852" style="fill: white" /><polygon type="contour" points="9.014602,4.420852 8.804599,4.420852 8.804599,4.210852 9.014602,4.210852" style="fill: white" /><polygon type="contour" points="9.670852,4.420852 9.460849,4.420852 9.460849,4.210852 9.670852,4.210852" style="fill: white" /><polygon type="contour" points="10.327102,4.420852 10.117099,4.420852 10.117099,4.210852 10.327102,4.210852" style="fill: white" /><polygon type="contour" points="10.983352,4.420852 10.773349,4.420852 10.773349,4.210852 10.983352,4.210852" style="fill: white" /><polygon type="contour" points="11.639602,4.420852 11.429599,4.420852 11.429599,4.210852 11.639602,4.210852" style="fill: white" /><polygon type="contour" points="12.295852,4.420852 12.085849,4.420852 12.085849,4.210852 12.295852,4.210852" style="fill: white" /><polygon type="contour" points="12.952102,4.420852 12.742099,4.420852 12.742099,4.210852 12.952102,4.210852" style="fill: white" /><polygon type="contour" points="13.608352,4.420852 13.398349,4.420852 13.398349,4.210852 13.608352,4.210852" style="fill: white" /><polygon type="contour" points="14.264602,4.420852 14.054599,4.420852 14.054599,4.210852 14.264602,4.210852" style="fill: white" /><polygon type="contour" points="14.920852,4.420852 14.710849,4.420852 14.710849,4.210852 14.920852,4.210852" style="fill: white" /><polygon type="contour" points="14.920852,5.077102 14.710849,5.077102 14.710849,4.867102 14.920852,4.867102" style="fill: white" /><polygon type="contour" points="14.920852,5.733353 14.710849,5.733353 14.710849,5.523352 14.920852,5.523352" style="fill: white" /><polygon type="contour" points="14.920852,6.389603 14.710849,6.389603 14.710849,6.179601 14.920852,6.179601" style="fill: white" /><polygon type="contour" points="14.920852,7.045853 14.710849,7.045853 14.710849,6.835851 14.920852,6.835851" style="fill: white" /><polygon type="contour" points="14.920852,7.702103 14.710849,7.702103 14.710849,7.492101 14.920852,7.492101" style="fill: white" /><polygon type="contour" points="14.920852,8.358353 14.710849,8.358353 14.710849,8.14835 14.920852,8.14835" style="fill: white" /><polygon type="contour" points="14.920852,9.014604 14.710849,9.014604 14.710849,8.804601 14.920852,8.804601" style="fill: white" /><polygon type="contour" points="14.920852,9.670854 14.710849,9.670854 14.710849,9.460851 14.920852,9.460851" style="fill: white" /><polygon type="contour" points="14.920852,10.327104 14.710849,10.327104 14.710849,10.117101 14.920852,10.117101" style="fill: white" /><polygon type="contour" points="14.920852,10.983354 14.710849,10.983354 14.710849,10.773351 14.920852,10.773351" style="fill: white" /><polygon type="contour" points="14.920852,11.639603 14.710849,11.639603 14.710849,11.429601 14.920852,11.429601" style="fill: white" /><polygon type="contour" points="14.920852,12.295853 14.710849,12.295853 14.710849,12.085851 14.920852,12.085851" style="fill: white" /><polygon type="contour" points="14.920852,12.952103 14.710849,12.952103 14.710849,12.742101 14.920852,12.742101" style="fill: white" /><polygon type="contour" points="14.920852,13.608353 14.710849,13.608353 14.710849,13.398351 14.920852,13.398351" style="fill: white" /><polygon type="contour" points="14.920852,14.264603 14.710849,14.264603 14.710849,14.054602 14.920852,14.054602" style="fill: white" /><polygon type="contour" points="14.920852,14.920853 14.710849,14.920853 14.710849,14.710852 14.920852,14.710852" style="fill: white" />
</svg>
