<svg width="19.131698" height="19.131699">
<polygon type="contour" points="10.462729,8.775501 10.462546,8.795519 10.462033,8.973582 10.434766,8.973582 10.364653,8.973611 10.295443,8.973611 10.295257,9.066763 10.295289,9.118748 10.215997,9.11893 10.103073,9.11893 10.060612,9.118748 10.012953,9.118748 10.012773,9.066764 10.012773,8.973939 10.012953,8.909194 10.012953,8.836414 10.050279,8.836307 10.157992,8.836433 10.157792,8.748439 10.157761,8.708476 10.157761,8.691075 10.157801,8.679829 10.157806,8.678921 10.158101,8.669883 10.168456,8.669631 10.464783,8.666919" style="fill: white" /><polygon type="contour" points="9.071086,10.012955 9.118747,10.012955 9.118928,10.06494 9.118928,10.157764 9.118747,10.222509 9.118747,10.29529 9.081418,10.295397 8.973708,10.29527 8.973908,10.383265 8.97394,10.423227 8.97394,10.440628 8.973899,10.451874 8.973895,10.452782 8.9736,10.461821 8.963244,10.462073 8.666917,10.464785 8.66897,10.356203 8.669153,10.336184 8.669667,10.158122 8.696933,10.158122 8.767047,10.158094 8.836257,10.158094 8.836443,10.064941 8.836411,10.012955 8.915703,10.012774 9.028626,10.012774" style="fill: white" /><polygon type="contour" points="9.071085,9.275098 9.118747,9.275098 9.119028,9.326392 9.119028,9.76715 9.118747,9.809316 9.118747,9.856606 9.066762,9.856682 8.973938,9.856682 8.909194,9.856606 8.836412,9.856606 8.836321,9.819433 8.836522,9.711102 8.665684,9.711102 8.666155,9.613509 8.66656,9.566201 8.666123,9.475326 8.665684,9.420602 8.836331,9.420602 8.836477,9.326393 8.836412,9.275098 8.915702,9.275021 9.028626,9.275021" style="fill: white" /><polygon type="contour" points="8.963244,8.66963 8.9736,8.669883 8.9739,8.679829 8.9739,8.689559 8.97394,8.691075 8.973909,8.748438 8.973791,8.836259 9.066761,8.836444 9.118746,8.836414 9.118928,8.915704 9.118928,9.028628 9.118747,9.071088 9.118747,9.118748 9.066761,9.11893 8.973939,9.11893 8.909193,9.118748 8.836412,9.118748 8.836305,9.081421 8.836433,8.973611 8.767048,8.973611 8.669667,8.973582 8.669153,8.79552 8.66897,8.7755 8.666917,8.666919" style="fill: white" /><polygon type="contour" points="9.689639,8.669734 9.711101,8.669713 9.711101,8.768288 9.711388,8.836302 9.805183,8.836455 9.805702,8.836477 9.856604,8.836414 9.856679,8.915704 9.856679,9.028629 9.856604,9.071088 9.856604,9.118748 9.80531,9.119029 9.364552,9.119029 9.322386,9.118748 9.275097,9.118748 9.275019,9.066763 9.275019,8.973939 9.275097,8.909194 9.275097,8.836414 9.312269,8.836323 9.4206,8.836522 9.4206,8.669713 9.442165,8.669734 9.464716,8.669245 9.565767,8.666588" style="fill: white" /><polygon type="contour" points="9.809313,9.275098 9.856604,9.275098 9.856749,9.326392 9.856749,9.76715 9.856604,9.809316 9.856604,9.856606 9.805309,9.85675 9.364552,9.85675 9.322387,9.856606 9.275097,9.856606 9.274952,9.805311 9.274952,9.364552 9.275097,9.322387 9.275097,9.275098 9.326391,9.274954 9.767148,9.274954" style="fill: white" /><polygon type="contour" points="10.222506,9.275098 10.295289,9.275098 10.29538,9.312271 10.295178,9.420602 10.466015,9.420602 10.465544,9.518194 10.46514,9.565765 10.465576,9.65664 10.466016,9.711102 10.295369,9.711102 10.295224,9.80531 10.295289,9.856606 10.215997,9.856682 10.103073,9.856682 10.060612,9.856606 10.012953,9.856606 10.012673,9.805311 10.012673,9.364552 10.012953,9.322387 10.012953,9.275098 10.064938,9.275021 10.157762,9.275021" style="fill: white" /><polygon type="contour" points="10.222507,10.012955 10.295289,10.012955 10.295396,10.050281 10.295267,10.158094 10.364652,10.158094 10.462033,10.158122 10.462546,10.336184 10.46273,10.356202 10.464783,10.464784 10.168456,10.462073 10.158101,10.461821 10.157801,10.451874 10.157801,10.442144 10.15776,10.440628 10.157791,10.383266 10.157909,10.295443 10.064938,10.29526 10.012953,10.295291 10.012773,10.216 10.012773,10.103075 10.012953,10.060614 10.012953,10.012955 10.064938,10.012774 10.157762,10.012774" style="fill: white" /><polygon type="contour" points="9.809313,10.012955 9.856604,10.012955 9.856679,10.064941 9.856679,10.157763 9.856604,10.222508 9.856604,10.295291 9.819431,10.295382 9.711101,10.29518 9.711101,10.46199 9.689535,10.46197 9.666983,10.462456 9.565501,10.465116 9.442061,10.46197 9.4206,10.46199 9.4206,10.363415 9.420312,10.295402 9.326517,10.295249 9.325998,10.295227 9.275097,10.295291 9.275019,10.215999 9.275019,10.103075 9.275097,10.060615 9.275097,10.012954 9.32639,10.012676 9.767148,10.012676" style="fill: white" />
</svg>
