<svg width="19.131698" height="19.131699">
<polygon type="contour" points="10.608937,7.074459 10.609108,7.201275 10.609108,7.373607 10.483624,7.373607 10.313483,7.373489 10.313597,7.318969 10.314519,7.2411 10.314325,7.209159 10.314359,7.160318 10.334376,7.159625 10.333959,7.108226 10.33224,7.074458 10.457519,7.074018" style="fill: white" /><polygon type="contour" points="10.609107,7.794711 10.609154,7.882373 10.609349,7.992787 10.609451,8.087867 10.609451,8.122496 10.31415,8.122496 10.314328,7.992788 10.314455,7.882372 10.3143,7.794697 10.580371,7.794697" style="fill: white" /><polygon type="contour" points="9.776945,7.882372 9.776964,7.992787 9.777226,8.089459 9.777216,8.122496 9.609073,8.122456 9.522155,8.122456 9.390217,8.122496 9.354481,8.122496 9.354736,7.992788 9.354756,7.882372 9.3546,7.794697 9.499506,7.794766 9.631786,7.794766 9.752961,7.794697 9.777101,7.794697" style="fill: white" /><polygon type="contour" points="9.608845,7.246526 9.7482,7.246486 9.776622,7.246526 9.776622,7.355855 9.776596,7.373348 9.608844,7.373699 9.522383,7.373699 9.389248,7.373348 9.355105,7.373348 9.355105,7.264055 9.355079,7.246526 9.3835,7.246486 9.522383,7.246526 9.565501,7.246472" style="fill: white" /><polygon type="contour" points="7.201441,7.07425 7.263676,7.074742 7.373777,7.074595 7.373449,7.215079 7.373449,7.306162 7.373487,7.373489 7.317848,7.37326 7.306159,7.373452 7.165675,7.37378 7.074593,7.37378 7.074738,7.263678 7.074434,7.215295 7.072262,7.146653 7.070412,7.070415" style="fill: white" /><polygon type="contour" points="7.373606,8.648077 7.373487,8.817431 7.318966,8.817306 7.223044,8.81722 7.171937,8.817377 7.111876,8.817344 7.073605,8.817578 7.073793,8.593453 7.074456,8.522765 7.201271,8.522593 7.373606,8.522593" style="fill: white" /><polygon type="contour" points="7.373826,7.882373 7.373925,7.992787 7.373976,8.122496 7.246473,8.122496 7.246483,8.094962 7.246524,7.992787 7.246427,7.882373 7.246316,7.794765 7.361338,7.794765 7.373783,7.794697" style="fill: white" /><polygon type="contour" points="7.882371,7.794902 8.016455,7.794902 8.122758,7.794711 8.122472,7.882373 8.122266,7.992787 8.122494,8.087867 8.122494,8.122496 7.992786,8.122269 7.88237,8.122474 7.794709,8.12276 7.7949,8.016458 7.7949,7.882373 7.794695,7.81394 7.794695,7.794697" style="fill: white" /><polygon type="contour" points="7.882371,7.246429 7.992785,7.246526 8.09496,7.246485 8.122494,7.246476 8.122494,7.373978 7.992786,7.373927 7.88237,7.373829 7.794695,7.373785 7.794695,7.258761 7.794763,7.246317" style="fill: white" /><polygon type="contour" points="8.593451,7.073795 8.67418,7.074018 8.799461,7.074458 8.799207,7.105528 8.797334,7.159625 8.817342,7.160317 8.817057,7.21292 8.817328,7.246254 8.81724,7.246299 8.817366,7.301843 8.818218,7.373489 8.688888,7.373489 8.522591,7.373607 8.522763,7.249805 8.522763,7.074459 8.566815,7.072067" style="fill: white" /><polygon type="contour" points="8.817701,7.965093 8.817371,7.992788 8.817493,8.089458 8.817447,8.122496 8.522249,8.122496 8.522351,7.992787 8.522546,7.882373 8.522593,7.814825 8.522593,7.794711 8.787264,7.794711 8.817401,7.794697" style="fill: white" /><polygon type="contour" points="8.645785,8.522771 8.817062,8.522771 8.817062,8.645786 8.81724,8.817241 8.690227,8.817241 8.52277,8.817063 8.522763,8.694833 8.522763,8.522765" style="fill: white" /><polygon type="contour" points="8.122494,8.817449 7.992785,8.817374 7.882371,8.817248 7.794695,8.817267 7.794695,8.551192 7.794709,8.522594 7.88237,8.522547 7.992786,8.522352 8.122494,8.522251" style="fill: white" /><polygon type="contour" points="7.882371,9.354757 7.992786,9.354737 8.122494,9.354485 8.122455,9.522628 8.122455,9.609546 8.122494,9.741481 8.122494,9.777218 7.992786,9.776966 7.88237,9.776947 7.813912,9.77712 7.794695,9.777238 7.794764,9.632196 7.794764,9.499915 7.794695,9.378741 7.794695,9.354465" style="fill: white" /><polygon type="contour" points="7.373697,9.522856 7.373697,9.609319 7.373346,9.742454 7.373346,9.776791 7.264051,9.776791 7.246523,9.776625 7.246483,9.748204 7.246523,9.609318 7.246471,9.566202 7.246524,9.522856 7.246483,9.383501 7.246523,9.35508 7.355855,9.35508 7.373346,9.354914" style="fill: white" /><polygon type="contour" points="7.106519,10.314305 7.111877,10.31436 7.212919,10.314643 7.246252,10.314373 7.246297,10.31446 7.301841,10.314335 7.373487,10.314271 7.373487,10.4436 7.373606,10.60911 7.249804,10.608938 7.074456,10.608938 7.072064,10.564885 7.073793,10.538247 7.073604,10.314126" style="fill: white" /><polygon type="contour" points="9.742451,11.758356 9.776788,11.758356 9.776788,11.867647 9.776622,11.885176 9.748201,11.885216 9.608844,11.885177 9.565501,11.885231 9.522383,11.885177 9.3835,11.885216 9.355079,11.885176 9.355079,11.775846 9.355105,11.758356 9.522384,11.758005 9.608845,11.758005" style="fill: white" /><polygon type="contour" points="8.122494,11.885226 8.094959,11.885215 7.992786,11.885177 7.88237,11.885275 7.794763,11.885387 7.794763,11.770363 7.794695,11.757919 7.88237,11.757875 7.992786,11.757777 8.089353,11.757751 8.122494,11.757726" style="fill: white" /><polygon type="contour" points="8.818218,11.758215 8.817366,11.82986 8.817215,11.896369 8.817376,11.922545 8.817342,11.971386 8.797323,11.972081 8.797742,12.023478 8.799461,12.057246 8.67418,12.057685 8.522762,12.057245 8.522591,11.930428 8.522591,11.758096 8.648076,11.758096" style="fill: white" /><polygon type="contour" points="8.817371,11.138915 8.817246,11.24933 8.817401,11.337007 8.551328,11.337007 8.522593,11.336993 8.522546,11.24933 8.522351,11.138916 8.522249,11.043836 8.522249,11.009207 8.817447,11.009207" style="fill: white" /><polygon type="contour" points="9.522383,11.009017 9.609073,11.009246 9.741479,11.009207 9.777216,11.009207 9.776964,11.138916 9.776945,11.24933 9.777237,11.337006 9.631786,11.336938 9.499507,11.336938 9.378739,11.337007 9.3546,11.337007 9.354756,11.24933 9.35506,11.138593 9.355078,11.041641 9.355085,11.008609" style="fill: white" /><polygon type="contour" points="9.776622,10.569105 9.776616,10.609452 9.608844,10.609352 9.522384,10.609352 9.39082,10.609452 9.355085,10.609452 9.355085,10.356533 9.355079,10.314207 9.522384,10.314424 9.608845,10.314424 9.74255,10.314207 9.776622,10.314207" style="fill: white" /><polygon type="contour" points="10.56707,11.009208 10.609451,11.009208 10.60935,11.138915 10.609154,11.24933 10.609107,11.316877 10.609107,11.336993 10.344436,11.336993 10.314436,11.337007 10.31419,11.16661 10.314329,11.138915 10.314206,11.042243 10.314151,11.009207" style="fill: white" /><polygon type="contour" points="10.608937,11.881898 10.608937,12.057245 10.564884,12.059637 10.538246,12.057909 10.457519,12.057685 10.33224,12.057246 10.332493,12.026176 10.334365,11.972079 10.314359,11.971387 10.314641,11.918782 10.314373,11.885447 10.314458,11.885403 10.314332,11.82986 10.314269,11.758215 10.443598,11.758215 10.609108,11.758096" style="fill: white" /><polygon type="contour" points="11.138913,11.757776 11.249329,11.757875 11.337005,11.757919 11.337005,11.872942 11.336937,11.885387 11.249329,11.885275 11.138913,11.885177 11.036739,11.885215 11.009206,11.885226 11.009206,11.757726" style="fill: white" /><polygon type="contour" points="12.056961,11.868025 12.057265,11.916409 12.059258,11.985049 12.061287,12.061289 11.930258,12.057453 11.868023,12.056962 11.757923,12.057109 11.758251,11.916625 11.758251,11.825541 11.758214,11.758215 11.813852,11.758444 11.82554,11.758252 11.966024,11.757925 12.057107,11.757925" style="fill: white" /><polygon type="contour" points="12.057908,10.538247 12.057244,10.608938 11.930428,10.60911 11.758095,10.60911 11.758095,10.483625 11.758214,10.314271 11.829857,10.314335 11.903191,10.3145 11.959761,10.314328 12.019821,10.31436 12.058093,10.314126" style="fill: white" /><polygon type="contour" points="11.885214,11.036739 11.885175,11.138916 11.885273,11.24933 11.885385,11.336939 11.770361,11.336939 11.757917,11.337007 11.757874,11.24933 11.757775,11.138915 11.757724,11.009207 11.885224,11.009207" style="fill: white" /><polygon type="contour" points="11.3368,11.115245 11.3368,11.24933 11.337005,11.317763 11.337005,11.337007 11.249328,11.336802 11.115244,11.336802 11.008942,11.336993 11.009228,11.24933 11.009434,11.138916 11.009206,11.043836 11.009206,11.009207 11.138913,11.009435 11.249329,11.009229 11.336991,11.008943" style="fill: white" /><polygon type="contour" points="11.138914,10.31433 11.249328,10.314457 11.337005,10.314438 11.337005,10.580511 11.336991,10.60911 11.249329,10.609157 11.138913,10.609351 11.009206,10.609452 11.009206,10.314153" style="fill: white" /><polygon type="contour" points="10.608937,10.43646 10.608937,10.608938 10.485912,10.608931 10.31423,10.608931 10.31423,10.485915 10.314458,10.31446 10.44147,10.31446 10.608929,10.314232" style="fill: white" /><polygon type="contour" points="10.609451,9.355086 10.60935,9.522857 10.60935,9.609318 10.609451,9.740883 10.609451,9.776619 10.356532,9.776619 10.314206,9.776625 10.314422,9.609319 10.314422,9.522857 10.314206,9.38915 10.314206,9.35508 10.569104,9.35508" style="fill: white" /><polygon type="contour" points="11.138913,9.354737 11.249329,9.354757 11.317787,9.354582 11.337005,9.354601 11.336936,9.499915 11.336936,9.632195 11.337005,9.752963 11.337005,9.777239 11.249328,9.776946 11.138592,9.776644 11.008607,9.776619 11.009016,9.609318 11.009244,9.522627 11.009206,9.390221 11.009206,9.354485" style="fill: white" /><polygon type="contour" points="11.885214,9.383501 11.885175,9.522856 11.88523,9.566201 11.885176,9.609319 11.885214,9.748203 11.885174,9.776625 11.775844,9.776625 11.758354,9.776791 11.758004,9.609318 11.758004,9.522857 11.758354,9.389248 11.758354,9.355106 11.867646,9.355106 11.885174,9.35508" style="fill: white" /><polygon type="contour" points="11.881896,8.522765 12.057244,8.522765 12.059636,8.566815 12.057908,8.593453 12.058093,8.817578 12.025178,8.817398 12.01982,8.817344 11.91878,8.817059 11.885444,8.81733 11.885401,8.817241 11.829857,8.817368 11.758214,8.81822 11.758214,8.688889 11.758094,8.522593" style="fill: white" /><polygon type="contour" points="12.059258,7.146654 12.057265,7.215294 12.057325,7.236204 12.056961,7.263679 12.057107,7.373452 11.825539,7.373452 11.758214,7.373489 11.758214,7.318019 11.758251,7.306161 11.758251,7.074595 11.868023,7.074741 11.930257,7.07425 12.061287,7.070415" style="fill: white" /><polygon type="contour" points="11.885384,7.794765 11.885273,7.882373 11.885174,7.992788 11.885213,8.094962 11.885224,8.122496 11.757724,8.122496 11.757775,7.992787 11.757873,7.882373 11.757917,7.81394 11.757917,7.794697 11.87294,7.794697" style="fill: white" /><polygon type="contour" points="11.336937,7.36134 11.337005,7.373785 11.249329,7.373829 11.138913,7.373927 11.042346,7.373952 11.009206,7.373978 11.009206,7.246476 11.036738,7.246485 11.138914,7.246526 11.249328,7.246429 11.336937,7.246318" style="fill: white" /><polygon type="contour" points="11.3368,7.882373 11.3368,8.016458 11.336991,8.12276 11.249329,8.122474 11.138913,8.122269 11.043835,8.122496 11.009206,8.122496 11.009434,7.992787 11.009228,7.882373 11.008942,7.794711 11.115244,7.794902 11.249328,7.794902 11.317761,7.794697 11.337005,7.794697" style="fill: white" /><polygon type="contour" points="11.138913,8.522352 11.249329,8.522547 11.316875,8.522594 11.336991,8.522594 11.336991,8.787266 11.337005,8.817403 11.166608,8.817703 11.138914,8.817374 11.042243,8.817495 11.009206,8.817449 11.009206,8.522251" style="fill: white" /><polygon type="contour" points="10.608929,8.645786 10.608929,8.817064 10.485912,8.817064 10.314458,8.817241 10.314458,8.690228 10.31423,8.522771 10.436459,8.522765 10.608937,8.522765" style="fill: white" /><polygon type="contour" points="9.776616,8.775168 9.776622,8.817495 9.608844,8.81728 9.522384,8.81728 9.389149,8.817495 9.355079,8.817495 9.355079,8.562598 9.355085,8.522252 9.522384,8.522352 9.608844,8.522352 9.74088,8.522252 9.776616,8.522252" style="fill: white" /><polygon type="contour" points="9.742551,9.35508 9.776622,9.35508 9.77683,9.522856 9.77683,9.609319 9.776622,9.742553 9.776622,9.776625 9.608845,9.776832 9.522383,9.776832 9.38915,9.776625 9.355079,9.776625 9.354871,9.609318 9.354871,9.522856 9.355079,9.38915 9.355079,9.35508 9.522384,9.354872 9.608844,9.354872" style="fill: white" /><polygon type="contour" points="8.817278,9.522857 8.817278,9.609319 8.817493,9.742553 8.817493,9.776625 8.562595,9.776625 8.522249,9.776619 8.52235,9.609318 8.52235,9.522856 8.522249,9.390822 8.522249,9.355086 8.775166,9.355086 8.817493,9.35508" style="fill: white" /><polygon type="contour" points="8.81724,10.31446 8.81724,10.441473 8.817062,10.608931 8.69483,10.608938 8.522763,10.608938 8.52277,10.485914 8.52277,10.314232 8.645785,10.314232" style="fill: white" /><polygon type="contour" points="8.122494,10.609452 7.992786,10.609351 7.88237,10.609157 7.814823,10.60911 7.794709,10.60911 7.794709,10.344438 7.794695,10.314438 7.96509,10.31419 7.992785,10.31433 8.089457,10.314206 8.122494,10.314153" style="fill: white" /><polygon type="contour" points="7.88237,11.009229 7.992786,11.009435 8.087863,11.009207 8.122494,11.009207 8.122266,11.138916 8.122472,11.24933 8.122758,11.336993 8.016455,11.336802 7.882371,11.336802 7.813938,11.337007 7.794695,11.337007 7.7949,11.24933 7.7949,11.115245 7.794709,11.008943" style="fill: white" /><polygon type="contour" points="7.373925,11.138915 7.373826,11.24933 7.373783,11.317763 7.373783,11.337007 7.25876,11.337007 7.246316,11.336939 7.246427,11.24933 7.246524,11.138916 7.246483,11.03674 7.246473,11.009207 7.373976,11.009207" style="fill: white" /><polygon type="contour" points="7.215077,11.758253 7.30616,11.758253 7.373487,11.758215 7.373487,11.813686 7.373449,11.825541 7.373449,12.057109 7.263675,12.056962 7.20144,12.057453 7.070412,12.061289 7.072262,11.98505 7.074434,11.916408 7.074739,11.868025 7.074593,11.757925" style="fill: white" />
</svg>
