<svg width="19.131698" height="19.131699">
<polygon type="contour" points="8.792839,8.577524 8.875399,8.57989 8.875465,8.591608 8.875465,8.60315 8.875446,8.608236 8.875446,8.630236 8.875281,8.745878 9.015779,8.746721 9.061318,8.746563 9.061318,8.819234 9.060643,8.968667 9.061064,8.968667 9.061064,9.015782 9.061318,9.061321 9.008898,9.061321 8.8755,9.060478 8.875502,9.061067 8.810183,9.061067 8.74656,9.061321 8.746718,9.015782 8.745876,8.8751 8.694239,8.8751 8.579743,8.875032 8.579285,8.847124 8.57109,8.571092" style="fill: white" /><polygon type="contour" points="8.968662,9.233661 8.968664,9.233284 9.01578,9.233284 9.061318,9.233056 9.061318,9.286665 9.06052,9.420602 9.061073,9.420602 9.061073,9.851893 9.061318,9.898648 9.008899,9.898648 8.875507,9.897892 8.875502,9.89842 8.810183,9.89842 8.74656,9.898648 8.746745,9.851894 8.746001,9.711102 8.576668,9.711102 8.577149,9.609491 8.57647,9.565998 8.577148,9.522702 8.576668,9.420602 8.746001,9.420602 8.746745,9.279809 8.74656,9.233056 8.819232,9.233056" style="fill: white" /><polygon type="contour" points="9.4206,9.233876 9.4206,9.233308 9.851892,9.233308 9.898647,9.233056 9.898647,9.286665 9.897826,9.420602 9.898395,9.420602 9.898395,9.851893 9.898647,9.898648 9.845036,9.898648 9.711101,9.897827 9.711101,9.898396 9.279807,9.898396 9.233053,9.898648 9.233053,9.845037 9.233873,9.711102 9.233305,9.711102 9.233305,9.27981 9.233053,9.233056 9.286663,9.233056" style="fill: white" /><polygon type="contour" points="9.635214,8.578989 9.711101,8.579808 9.711101,8.746003 9.851892,8.746747 9.898647,8.746563 9.898647,8.819234 9.898041,8.968664 9.898419,8.968666 9.898419,9.015783 9.898647,9.061321 9.845035,9.061321 9.711101,9.06052 9.711101,9.061075 9.279807,9.061075 9.233053,9.061321 9.233053,9.008901 9.233808,8.875504 9.233281,8.875504 9.233281,8.810185 9.233053,8.746563 9.279808,8.746747 9.4206,8.746003 9.4206,8.579808 9.434328,8.57921 9.5655,8.576866" style="fill: white" /><polygon type="contour" points="10.552415,8.847124 10.551958,8.875032 10.437461,8.8751 10.385823,8.875006 10.384982,9.015782 10.38514,9.061321 10.312466,9.061321 10.163034,9.060646 10.163034,9.061067 10.115917,9.061067 10.070382,9.061321 10.070382,9.008901 10.071217,8.875501 10.070634,8.875503 10.070634,8.810184 10.070382,8.746563 10.115917,8.746721 10.256579,8.745877 10.256254,8.608235 10.256235,8.591608 10.256246,8.58871 10.256301,8.57989 10.33886,8.577524 10.56061,8.571092" style="fill: white" /><polygon type="contour" points="10.256189,9.233811 10.256194,9.233284 10.321514,9.233284 10.38514,9.233056 10.384956,9.27981 10.385699,9.420602 10.555032,9.420602 10.55455,9.522211 10.55523,9.565705 10.55455,9.609 10.555032,9.711102 10.385699,9.711102 10.384956,9.851893 10.38514,9.898648 10.312466,9.898648 10.163033,9.898042 10.163033,9.89842 10.115918,9.89842 10.070382,9.898648 10.070382,9.845037 10.071179,9.711102 10.070627,9.711102 10.070627,9.27981 10.070382,9.233056 10.1228,9.233056" style="fill: white" /><polygon type="contour" points="10.256196,10.071221 10.256194,10.070636 10.321514,10.070636 10.38514,10.070383 10.384982,10.115919 10.385823,10.256602 10.437461,10.256602 10.551958,10.25667 10.552415,10.284577 10.56061,10.560612 10.33886,10.55418 10.256301,10.551815 10.256235,10.540096 10.256235,10.528554 10.256254,10.523468 10.256254,10.501466 10.256417,10.385825 10.115917,10.384983 10.070382,10.385141 10.070382,10.312467 10.071051,10.163036 10.070634,10.163036 10.070634,10.115919 10.070382,10.070383 10.1228,10.070383" style="fill: white" /><polygon type="contour" points="9.4206,10.071183 9.4206,10.070629 9.851893,10.070629 9.898647,10.070383 9.898647,10.122802 9.897891,10.256192 9.898419,10.256196 9.898419,10.321516 9.898647,10.385141 9.851892,10.384957 9.711101,10.3857 9.711101,10.551897 9.697306,10.552495 9.565996,10.554835 9.496486,10.552714 9.4206,10.551897 9.4206,10.3857 9.279808,10.384957 9.233053,10.385141 9.233053,10.312467 9.233658,10.163035 9.233281,10.163035 9.233281,10.115919 9.233053,10.070383 9.286664,10.070383" style="fill: white" /><polygon type="contour" points="8.968665,10.071054 8.968665,10.070636 9.015779,10.070636 9.061318,10.070383 9.061318,10.122803 9.060475,10.256199 9.061064,10.256197 9.061064,10.321516 9.061318,10.385141 9.015779,10.384983 8.875118,10.385826 8.875446,10.523468 8.875465,10.540096 8.875453,10.542994 8.875399,10.551815 8.792839,10.55418 8.57109,10.560612 8.579286,10.284577 8.579743,10.25667 8.694238,10.256602 8.745876,10.256694 8.746718,10.115919 8.74656,10.070383 8.819231,10.070383" style="fill: white" />
</svg>
