<svg width="19.131698" height="19.131699">
<polygon type="contour" points="9.619989,8.387047 9.711101,8.387785 9.711101,8.520416 9.712213,8.66717 9.419488,8.66717 9.4206,8.608231 9.4206,8.387785 9.453387,8.386711 9.566198,8.385339" style="fill: white" /><polygon type="contour" points="8.514725,8.385588 8.534296,8.386362 8.544259,8.386493 8.664596,8.384984 8.665891,8.42309 8.665891,8.459638 8.666106,8.461411 8.666782,8.492633 8.667047,8.554224 8.667047,8.667049 8.387623,8.667049 8.387526,8.603995 8.387074,8.574562 8.384201,8.48364 8.383912,8.476646 8.382018,8.458013 8.381829,8.38183" style="fill: white" /><polygon type="contour" points="8.853658,9.176754 8.911503,9.176754 8.911389,9.2228 8.911389,9.275896 8.863845,9.276739 8.80986,9.276724 8.80986,9.221458 8.809944,9.176683" style="fill: white" /><polygon type="contour" points="8.667198,9.223952 8.667246,9.276724 8.606287,9.275737 8.554709,9.275737 8.554535,9.222799 8.554558,9.176754 8.606976,9.176683 8.667198,9.176683" style="fill: white" /><polygon type="contour" points="8.667184,8.865666 8.667198,8.911447 8.619183,8.911506 8.554558,8.911506 8.554686,8.861758 8.554554,8.809823 8.667184,8.809823" style="fill: white" /><polygon type="contour" points="8.911445,8.809945 8.911503,8.85366 8.911503,8.911506 8.863845,8.911447 8.809944,8.911447 8.809944,8.863849 8.809821,8.809823 8.865665,8.809823" style="fill: white" /><polygon type="contour" points="8.911503,8.554559 8.911445,8.606976 8.911445,8.6672 8.863845,8.6672 8.809821,8.667186 8.809821,8.554556 8.863845,8.554456" style="fill: white" /><polygon type="contour" points="9.225417,8.554751 9.275735,8.554711 9.275735,8.606289 9.275572,8.667248 9.221456,8.667248 9.17668,8.6672 9.176751,8.619186 9.176751,8.554559" style="fill: white" /><polygon type="contour" points="9.275753,8.863849 9.275894,8.911392 9.233398,8.911506 9.176751,8.911506 9.17668,8.863849 9.17668,8.809946 9.222966,8.809946 9.277123,8.809823" style="fill: white" /><polygon type="contour" points="9.275894,9.222799 9.275735,9.275737 9.221545,9.275737 9.176494,9.275896 9.176751,9.233399 9.176751,9.176754 9.222798,9.176497 9.275894,9.176497" style="fill: white" /><polygon type="contour" points="9.711101,10.743919 9.678313,10.744992 9.565501,10.746364 9.511711,10.744657 9.4206,10.743919 9.4206,10.464533 9.711101,10.464533" style="fill: white" /><polygon type="contour" points="9.711101,9.955207 9.4206,9.955207 9.4206,9.855967 9.711101,9.855967" style="fill: white" /><polygon type="contour" points="9.954949,9.898304 9.954949,9.95495 9.908903,9.955207 9.855807,9.955207 9.855807,9.908904 9.855966,9.855967 9.910154,9.855967 9.955206,9.855808" style="fill: white" /><polygon type="contour" points="9.955206,9.711102 9.855966,9.711102 9.855966,9.420602 9.955206,9.420602" style="fill: white" /><polygon type="contour" points="9.711101,9.711102 9.4206,9.711102 9.4206,9.420602 9.711101,9.420602" style="fill: white" /><polygon type="contour" points="9.711101,9.275737 9.4206,9.275737 9.4206,9.176497 9.711101,9.176497" style="fill: white" /><polygon type="contour" points="9.898302,9.176754 9.954949,9.176754 9.955206,9.222799 9.955206,9.275896 9.908903,9.275896 9.855966,9.275737 9.855966,9.221547 9.855807,9.176497" style="fill: white" /><polygon type="contour" points="9.711101,8.865286 9.711101,8.911392 9.4206,8.911392 9.419615,8.863848 9.419445,8.809823 9.712255,8.809823" style="fill: white" /><polygon type="contour" points="9.908734,8.809946 9.95502,8.809946 9.954949,8.85366 9.954949,8.911506 9.908902,8.911392 9.855807,8.911392 9.855947,8.863849 9.856129,8.809861" style="fill: white" /><polygon type="contour" points="9.954948,8.554559 9.95502,8.606977 9.95502,8.6672 9.908734,8.6672 9.856129,8.667248 9.855966,8.606289 9.855966,8.554711 9.908903,8.554535" style="fill: white" /><polygon type="contour" points="10.744626,8.574561 10.744175,8.603994 10.744077,8.667049 10.464653,8.667049 10.464653,8.554224 10.464917,8.492633 10.465595,8.461411 10.46581,8.423091 10.467104,8.384984 10.58744,8.386493 10.616974,8.385588 10.749871,8.381829" style="fill: white" /><polygon type="contour" points="10.577246,8.863849 10.577142,8.911506 10.524724,8.911447 10.464502,8.911447 10.464502,8.863848 10.464516,8.809823 10.577147,8.809823" style="fill: white" /><polygon type="contour" points="10.32188,8.667186 10.266036,8.667186 10.220256,8.6672 10.220196,8.619185 10.220196,8.554559 10.269944,8.554687 10.32188,8.554556" style="fill: white" /><polygon type="contour" points="10.32188,8.865667 10.321756,8.911447 10.27804,8.911506 10.220196,8.911506 10.220256,8.863849 10.220256,8.809946 10.267853,8.809946 10.32188,8.809823" style="fill: white" /><polygon type="contour" points="10.321756,9.222968 10.32188,9.277125 10.267853,9.275755 10.220312,9.275896 10.220196,9.233399 10.220196,9.176753 10.267853,9.176683 10.321756,9.176683" style="fill: white" /><polygon type="contour" points="10.512515,9.176754 10.577142,9.176754 10.576951,9.225418 10.576992,9.275737 10.525413,9.275737 10.464454,9.275573 10.464454,9.221459 10.464502,9.176683" style="fill: white" /><polygon type="contour" points="10.523471,9.420602 10.745608,9.420602 10.746635,9.514699 10.746387,9.566202 10.745412,9.670443 10.745608,9.711102 10.464531,9.711102 10.464531,9.419489" style="fill: white" /><polygon type="contour" points="10.32188,9.711102 10.220312,9.711102 10.220312,9.420602 10.266417,9.420602 10.32188,9.419447" style="fill: white" /><polygon type="contour" points="10.32188,9.908883 10.321756,9.955021 10.278039,9.95495 10.220196,9.95495 10.220312,9.908903 10.220312,9.855808 10.267853,9.854965 10.32188,9.853424" style="fill: white" /><polygon type="contour" points="10.525412,9.855967 10.576992,9.855967 10.577165,9.908904 10.577142,9.954949 10.524723,9.955021 10.464502,9.955021 10.464502,9.907751 10.464454,9.85498" style="fill: white" /><polygon type="contour" points="10.744175,10.527709 10.744626,10.557141 10.747498,10.648064 10.747787,10.655059 10.749681,10.673691 10.749871,10.749874 10.616974,10.746115 10.597403,10.745341 10.58744,10.745211 10.467103,10.746718 10.46581,10.708614 10.46581,10.672066 10.465595,10.670293 10.464917,10.639071 10.464653,10.577479 10.464653,10.464655 10.744077,10.464655" style="fill: white" /><polygon type="contour" points="10.577015,10.269946 10.577147,10.321882 10.464516,10.321882 10.464516,10.266038 10.464502,10.220257 10.512516,10.220198 10.577142,10.220198" style="fill: white" /><polygon type="contour" points="10.267853,10.220257 10.321756,10.220257 10.321756,10.267855 10.32188,10.321882 10.266035,10.321882 10.220256,10.321758 10.220196,10.278041 10.220196,10.220198" style="fill: white" /><polygon type="contour" points="10.32188,10.464518 10.32188,10.577149 10.267853,10.577247 10.220196,10.577144 10.220256,10.524726 10.220256,10.464504 10.267854,10.464504" style="fill: white" /><polygon type="contour" points="9.95502,10.464504 9.954949,10.512519 9.954949,10.577144 9.906283,10.576953 9.855966,10.576994 9.855966,10.525413 9.854978,10.464456 9.910243,10.464456" style="fill: white" /><polygon type="contour" points="9.95502,10.267855 9.95502,10.321758 9.907749,10.321758 9.854978,10.321843 9.854963,10.267856 9.855807,10.220313 9.898302,10.220198 9.954949,10.220198" style="fill: white" /><polygon type="contour" points="9.711101,10.321882 9.4206,10.321882 9.4206,10.220313 9.711101,10.220313" style="fill: white" /><polygon type="contour" points="9.275735,10.525414 9.275735,10.576994 9.222798,10.577167 9.176751,10.577144 9.17668,10.524725 9.17668,10.464504 9.22395,10.464504 9.276722,10.464456" style="fill: white" /><polygon type="contour" points="9.222797,10.220313 9.275894,10.220313 9.276737,10.267856 9.278277,10.321882 9.223951,10.321758 9.17668,10.321758 9.176751,10.278041 9.176751,10.220198" style="fill: white" /><polygon type="contour" points="9.275735,9.855967 9.275735,9.910156 9.275894,9.955207 9.233397,9.95495 9.176751,9.95495 9.176494,9.908904 9.176494,9.855808 9.222797,9.855808" style="fill: white" /><polygon type="contour" points="9.275735,9.711102 9.176494,9.711102 9.176494,9.420602 9.275735,9.420602" style="fill: white" /><polygon type="contour" points="8.911389,9.711102 8.865283,9.711102 8.809821,9.712257 8.809821,9.420602 8.911389,9.420602" style="fill: white" /><polygon type="contour" points="8.863845,9.85595 8.911389,9.855808 8.911503,9.898303 8.911503,9.95495 8.863846,9.955021 8.809944,9.955021 8.809944,9.908736 8.809821,9.85458" style="fill: white" /><polygon type="contour" points="8.667168,9.712215 8.608228,9.711102 8.386092,9.711102 8.385065,9.617004 8.385313,9.565501 8.386289,9.461261 8.386092,9.420602 8.667168,9.420602" style="fill: white" /><polygon type="contour" points="8.667246,9.856131 8.667246,9.910244 8.667198,9.955021 8.619184,9.95495 8.554558,9.95495 8.55475,9.906285 8.554709,9.855967 8.606287,9.855967" style="fill: white" /><polygon type="contour" points="8.606975,10.220257 8.667198,10.220257 8.667198,10.267856 8.667184,10.321882 8.554554,10.321882 8.554454,10.267856 8.554558,10.220198" style="fill: white" /><polygon type="contour" points="8.911445,10.267856 8.911445,10.321758 8.863845,10.321758 8.809821,10.321882 8.809821,10.266037 8.809944,10.220257 8.853658,10.220198 8.911503,10.220198" style="fill: white" /><polygon type="contour" points="8.911503,10.512518 8.911503,10.577144 8.861756,10.577018 8.809821,10.577149 8.809821,10.464518 8.865664,10.464518 8.911445,10.464504" style="fill: white" /><polygon type="contour" points="8.667047,10.577479 8.666782,10.63907 8.666106,10.670293 8.66589,10.708614 8.664596,10.746718 8.544259,10.745211 8.514725,10.746115 8.381829,10.749874 8.387074,10.557142 8.387526,10.527708 8.387623,10.464655 8.667047,10.464655" style="fill: white" />
</svg>
