<svg width="19.131698" height="19.131699">
<polygon type="contour" points="12.075634,11.840059 12.07549,11.952292 12.161747,11.952292 12.168189,11.95231 12.248152,11.953265 12.250918,12.048526 12.256452,12.256454 12.009723,12.249229 11.952291,12.247151 11.952291,12.075492 11.840055,12.075635 11.807966,12.075675 11.809602,11.958274 11.809602,11.942293 11.807966,11.849356 11.807966,11.807969 11.942291,11.809604 11.958274,11.809604 12.038906,11.807969 12.075674,11.807969" style="fill: white" /><polygon type="contour" points="11.958273,11.201949 12.038907,11.200673 12.075674,11.200673 12.075652,11.320512 12.075649,11.342323 12.075648,11.342699 12.075627,11.441233 12.075673,11.470089 11.958273,11.469038 11.94229,11.469038 11.849354,11.470089 11.807966,11.470089 11.807632,11.344539 11.807632,11.342323 11.807966,11.200673 11.950705,11.200673" style="fill: white" /><polygon type="contour" points="7.121972,6.882472 7.179408,6.884553 7.179408,7.056211 7.291644,7.056066 7.323734,7.056026 7.322742,7.173427 7.322742,7.18941 7.323734,7.282347 7.323734,7.323735 7.189408,7.322743 7.173426,7.322743 7.092791,7.323735 7.056024,7.323735 7.056066,7.291644 7.056209,7.179411 6.969952,7.179411 6.96351,7.179393 6.883309,7.178438 6.880295,7.083178 6.875249,6.87525" style="fill: white" /><polygon type="contour" points="7.324068,7.787165 7.324068,7.78938 7.323734,7.931031 7.180993,7.931031 7.173425,7.929755 7.092792,7.931031 7.056024,7.931031 7.056052,7.787633 7.056071,7.69047 7.056024,7.661615 7.173426,7.662665 7.189409,7.662665 7.282345,7.661615 7.323734,7.661615" style="fill: white" /><polygon type="contour" points="7.322929,8.394263 7.322922,8.398058 7.3226,8.590152 7.322461,8.697448 7.323734,8.830901 7.323734,8.885551 7.189408,8.883719 7.173426,8.883719 7.091656,8.884871 7.05607,8.884871 7.056066,8.843154 7.055872,8.695433 6.969952,8.695433 6.916672,8.695518 6.90661,8.695557 6.883821,8.695697 6.883844,8.668126 6.884199,8.630345 6.884219,8.574551 6.882685,8.449532 6.884032,8.400847 6.980323,8.400702 7.056235,8.400702 7.05607,8.298523 7.056024,8.269409 7.173425,8.270377 7.189408,8.270377 7.282346,8.269409 7.323734,8.269409" style="fill: white" /><polygon type="contour" points="7.931027,8.269409 7.930484,8.393565 7.930474,8.400701 7.9302,8.590151 7.930075,8.697449 7.931028,8.830902 7.931028,8.885551 7.7885,8.886001 7.697123,8.884871 7.661613,8.885551 7.662906,8.697449 7.662749,8.590151 7.662402,8.405646 7.662402,8.398058 7.661613,8.306177 7.661613,8.269409 7.787162,8.269216 7.789378,8.269216" style="fill: white" /><polygon type="contour" points="8.393931,7.662391 8.398055,7.662398 8.590149,7.662751 8.697447,7.662908 8.830899,7.661615 8.885549,7.661615 8.885997,7.787165 8.885979,7.788203 8.885997,7.78938 8.885549,7.931031 8.697448,7.930077 8.59015,7.930201 8.405642,7.930476 8.398056,7.930476 8.306175,7.931031 8.269407,7.931031 8.269212,7.788307 8.269214,7.787627 8.269214,7.787626 8.269407,7.69778 8.269407,7.661614" style="fill: white" /><polygon type="contour" points="7.931657,7.787165 7.931657,7.789381 7.931028,7.931031 7.788305,7.931663 7.697778,7.931031 7.661613,7.931031 7.661625,7.789381 7.661625,7.787626 7.661613,7.69778 7.661613,7.661615 7.787163,7.661626 7.789378,7.661626 7.931028,7.661615" style="fill: white" /><polygon type="contour" points="7.929753,7.173427 7.929753,7.18941 7.931028,7.282347 7.931028,7.323735 7.788305,7.324072 7.697778,7.323735 7.661613,7.323735 7.662664,7.189411 7.662664,7.173427 7.661613,7.092794 7.661613,7.056026 7.787162,7.056054 7.788208,7.056056 7.789378,7.056054 7.931028,7.056026" style="fill: white" /><polygon type="contour" points="8.668124,6.883846 8.693493,6.883916 8.695431,6.946612 8.695431,7.055875 8.843153,7.056067 8.884869,7.056071 8.883716,7.173427 8.883716,7.189411 8.884868,7.282864 8.885549,7.323734 8.697447,7.322462 8.59015,7.322601 8.405642,7.322921 8.398056,7.322921 8.306174,7.323735 8.269407,7.323735 8.269407,7.180994 8.270376,7.173428 8.269407,7.092793 8.269407,7.056026 8.298522,7.056073 8.400699,7.056238 8.400699,6.980326 8.400844,6.885803 8.400844,6.884034 8.44953,6.882687 8.480645,6.881813 8.481624,6.881752 8.496716,6.88115 8.567415,6.877312" style="fill: white" /><polygon type="contour" points="12.250918,7.083177 12.248152,7.178438 12.168188,7.179393 12.161747,7.179411 12.07549,7.179411 12.075633,7.291644 12.075674,7.323735 11.958274,7.322744 11.94229,7.322744 11.849354,7.323735 11.807966,7.323735 11.809602,7.18941 11.809602,7.173427 11.807966,7.092794 11.807966,7.056026 11.840055,7.056066 11.952291,7.056211 11.952291,6.884553 12.009723,6.882472 12.256452,6.875249" style="fill: white" /><polygon type="contour" points="12.075649,7.787164 12.075646,7.78821 12.075649,7.78938 12.075674,7.931031 11.958274,7.929755 11.94229,7.929755 11.849354,7.931031 11.807966,7.931031 11.807629,7.788307 11.807632,7.787626 11.807966,7.69778 11.807966,7.661615 11.94229,7.662665 11.958273,7.662665 12.038907,7.661615 12.075674,7.661615" style="fill: white" /><polygon type="contour" points="11.958273,8.270377 12.038907,8.269409 12.075674,8.269409 12.075628,8.298523 12.075464,8.400702 12.151375,8.400702 12.245898,8.400847 12.247669,8.400847 12.249015,8.449533 12.250551,8.496718 12.25439,8.567416 12.247856,8.668126 12.247879,8.695697 12.215028,8.695518 12.161876,8.695518 12.161825,8.695484 12.138006,8.695358 12.075133,8.695322 12.075634,8.843153 12.075629,8.884871 11.958274,8.883719 11.942291,8.883719 11.848835,8.884871 11.807966,8.885551 11.80924,8.697448 11.8091,8.590152 11.808782,8.405645 11.808782,8.398059 11.807966,8.306176 11.807966,8.269409 11.950705,8.269409" style="fill: white" /><polygon type="contour" points="10.862486,7.787165 10.862486,7.78938 10.862292,7.931031 10.738132,7.930486 10.733644,7.93048 10.54155,7.930202 10.434251,7.930077 10.3008,7.931031 10.246152,7.931031 10.2457,7.788501 10.246832,7.697126 10.246152,7.661615 10.434252,7.662908 10.54155,7.662751 10.726057,7.662404 10.733644,7.662404 10.825523,7.661615 10.862292,7.661615" style="fill: white" /><polygon type="contour" points="10.861761,8.391535 10.861747,8.398059 10.86135,8.590151 10.861163,8.697449 10.862292,8.830901 10.862292,8.885551 10.735729,8.884268 10.734009,8.884237 10.541549,8.883801 10.444377,8.883599 10.434251,8.883599 10.300018,8.884871 10.246832,8.884871 10.248103,8.697449 10.248103,8.687323 10.2479,8.590152 10.247472,8.405464 10.247472,8.398079 10.246832,8.305539 10.246152,8.269409 10.434251,8.270538 10.54155,8.27035 10.726057,8.269959 10.733645,8.269959 10.825523,8.269409 10.862292,8.269409" style="fill: white" /><polygon type="contour" points="11.344074,8.269216 11.344075,8.269216 11.433921,8.269409 11.470087,8.269409 11.46931,8.393943 11.469303,8.398059 11.46895,8.590152 11.468795,8.697448 11.470087,8.830902 11.470087,8.885551 11.344537,8.885999 11.343497,8.885981 11.342321,8.885999 11.200671,8.885551 11.201625,8.697449 11.2015,8.590152 11.201227,8.405645 11.201227,8.398059 11.200671,8.306176 11.200671,8.269408 11.343394,8.269214" style="fill: white" /><polygon type="contour" points="11.470075,7.787164 11.470075,7.789381 11.470087,7.931031 11.344536,7.931659 11.342322,7.931659 11.200671,7.93103 11.200039,7.788307 11.200044,7.787627 11.200044,7.787626 11.200671,7.69778 11.200671,7.661615 11.342322,7.661626 11.344075,7.661626 11.433922,7.661615 11.470087,7.661615" style="fill: white" /><polygon type="contour" points="11.469036,7.173427 11.469036,7.189411 11.470087,7.282346 11.470087,7.323735 11.344537,7.32407 11.342321,7.32407 11.200671,7.323735 11.200671,7.180995 11.201947,7.173428 11.200671,7.092794 11.200671,7.056026 11.342322,7.056054 11.342713,7.056054 11.441231,7.056073 11.470087,7.056026" style="fill: white" /><polygon type="contour" points="10.730857,6.884034 10.731002,6.980325 10.731002,7.056238 10.833177,7.056072 10.862292,7.056026 10.861324,7.173427 10.861324,7.18941 10.862292,7.282347 10.862292,7.323735 10.737461,7.322932 10.730854,7.322921 10.730853,7.322921 10.541549,7.322601 10.434252,7.322462 10.300801,7.323735 10.246152,7.323735 10.247984,7.18941 10.247984,7.173428 10.246832,7.091658 10.246832,7.056071 10.288548,7.056067 10.43568,7.055875 10.436149,6.993503 10.436269,6.979609 10.436269,6.94658 10.438206,6.883916 10.501354,6.8842 10.557149,6.88422 10.682169,6.882687" style="fill: white" /><polygon type="contour" points="9.750653,7.173428 9.750653,7.189411 9.751952,7.282864 9.752532,7.323735 9.566126,7.324316 9.561627,7.324297 9.431808,7.323735 9.379169,7.323735 9.381047,7.18941 9.381047,7.173427 9.379748,7.091659 9.379748,7.056071 9.420283,7.056106 9.565495,7.056239 9.711417,7.056106 9.751953,7.056071" style="fill: white" /><polygon type="contour" points="9.752532,7.661615 9.752564,7.787165 9.752548,7.788203 9.752563,7.78938 9.752532,7.931031 9.566126,7.93188 9.561627,7.931852 9.431808,7.931031 9.379169,7.931031 9.379135,7.788701 9.379748,7.697126 9.379169,7.661615 9.558643,7.661028 9.572369,7.661028" style="fill: white" /><polygon type="contour" points="9.752532,8.269409 9.751406,8.395974 9.751377,8.397805 9.751097,8.590152 9.750973,8.687323 9.750973,8.697448 9.751953,8.831685 9.751953,8.884871 9.566109,8.887055 9.561659,8.886984 9.561658,8.886984 9.430976,8.884871 9.379748,8.884871 9.380723,8.697449 9.380723,8.687323 9.380599,8.590152 9.380328,8.405465 9.380328,8.398079 9.379748,8.30554 9.379169,8.269409 9.558642,8.268583 9.572369,8.268583" style="fill: white" /><polygon type="contour" points="8.884266,8.395974 8.884235,8.397694 8.883799,8.590152 8.883597,8.687323 8.883597,8.697448 8.884869,8.831685 8.884869,8.884871 8.697447,8.883599 8.687322,8.883599 8.59015,8.883801 8.405461,8.88423 8.398075,8.88423 8.305538,8.884871 8.269407,8.885551 8.270536,8.697449 8.270348,8.590151 8.269958,8.405646 8.269958,8.398058 8.269407,8.306176 8.269407,8.269409 8.391532,8.269939 8.398056,8.269953 8.590149,8.27035 8.697447,8.270538 8.8309,8.269409 8.885549,8.269409" style="fill: white" /><polygon type="contour" points="8.395971,9.380295 8.397804,9.380324 8.590149,9.380602 8.687322,9.380726 8.697448,9.380726 8.831682,9.37975 8.884869,9.37975 8.886982,9.559473 8.886982,9.572919 8.884869,9.751955 8.697448,9.750975 8.687322,9.750975 8.59015,9.751099 8.405462,9.751375 8.398075,9.751375 8.305538,9.751955 8.269407,9.752534 8.26858,9.57306 8.26858,9.559332 8.269407,9.379171" style="fill: white" /><polygon type="contour" points="7.931028,9.379171 7.931849,9.559332 7.931849,9.57306 7.931028,9.752533 7.788701,9.752565 7.697123,9.751955 7.661613,9.752534 7.661006,9.566839 7.661613,9.431811 7.661613,9.379171 7.787163,9.379139 7.788201,9.379154 7.789378,9.379139" style="fill: white" /><polygon type="contour" points="7.324295,9.559331 7.324295,9.573059 7.323734,9.752534 7.189408,9.750656 7.173425,9.750656 7.091657,9.751955 7.05607,9.751955 7.056104,9.711419 7.056236,9.566207 7.056104,9.420285 7.05607,9.37975 7.173426,9.381048 7.189408,9.381048 7.282864,9.379749 7.323734,9.379171" style="fill: white" /><polygon type="contour" points="7.32246,10.434255 7.3226,10.541551 7.322918,10.726058 7.322918,10.733646 7.323734,10.825526 7.323734,10.862293 7.180993,10.862293 7.173425,10.861326 7.092792,10.862293 7.056024,10.862293 7.05607,10.833178 7.056235,10.731003 6.980324,10.731003 6.885801,10.730858 6.884032,10.730858 6.882684,10.68217 6.881147,10.634984 6.877309,10.564288 6.883844,10.463575 6.883821,10.436005 6.916671,10.436185 6.969824,10.436185 6.970072,10.436351 6.9935,10.436153 7.055872,10.435681 7.056066,10.28855 7.05607,10.246834 7.173426,10.247985 7.189409,10.247985 7.282863,10.246834 7.323733,10.246154" style="fill: white" /><polygon type="contour" points="7.931028,10.246154 7.930075,10.434254 7.930199,10.541551 7.930474,10.726059 7.930474,10.733645 7.931028,10.825526 7.931028,10.862292 7.788305,10.862489 7.697778,10.862293 7.661613,10.862293 7.662389,10.73777 7.662396,10.733645 7.662397,10.733064 7.662402,10.730854 7.662749,10.541552 7.662906,10.434254 7.661613,10.300803 7.661613,10.246154 7.787163,10.245705 7.788201,10.245722 7.789379,10.245704" style="fill: white" /><polygon type="contour" points="8.395971,10.247435 8.397691,10.247466 8.59015,10.247902 8.687322,10.248105 8.697447,10.248105 8.831683,10.246834 8.884869,10.246834 8.883597,10.434255 8.883597,10.44438 8.883799,10.541551 8.884228,10.72624 8.884228,10.733625 8.884868,10.826162 8.885549,10.862293 8.697447,10.861165 8.59015,10.861352 8.405643,10.861745 8.398056,10.861745 8.306174,10.862293 8.269407,10.862293 8.269938,10.740132 8.269952,10.733646 8.270348,10.541552 8.270535,10.434254 8.269407,10.300802 8.269407,10.246154" style="fill: white" /><polygon type="contour" points="9.751953,10.246834 9.750973,10.434254 9.750973,10.44438 9.751097,10.541551 9.751373,10.726239 9.751373,10.733626 9.751952,10.826162 9.752532,10.862293 9.566126,10.863149 9.561627,10.863121 9.431808,10.862293 9.379169,10.862293 9.380294,10.73573 9.380323,10.733894 9.380599,10.541551 9.380723,10.44438 9.380723,10.434254 9.379748,10.30002 9.379748,10.246833 9.558783,10.244717 9.572229,10.244717" style="fill: white" /><polygon type="contour" points="9.751953,9.37975 9.753441,9.559474 9.753441,9.572918 9.751953,9.751955 9.566109,9.753493 9.563844,9.753467 9.561658,9.753443 9.430977,9.751955 9.379747,9.751955 9.378208,9.566823 9.379748,9.430978 9.379748,9.379749 9.558783,9.378261 9.572229,9.378261" style="fill: white" /><polygon type="contour" points="10.863119,9.559332 10.863119,9.573059 10.862292,9.752534 10.73573,9.751409 10.733898,9.751379 10.541549,9.751099 10.444377,9.750975 10.434252,9.750975 10.300017,9.751955 10.246832,9.751955 10.244714,9.572918 10.244714,9.559473 10.246832,9.37975 10.434251,9.380726 10.444377,9.380726 10.541549,9.380602 10.726239,9.380329 10.733624,9.380329 10.826161,9.37975 10.862292,9.379171" style="fill: white" /><polygon type="contour" points="11.434575,9.37975 11.470087,9.379171 11.470694,9.565575 11.470087,9.699893 11.470087,9.752534 11.344536,9.752564 11.343497,9.752549 11.342322,9.752564 11.200671,9.752533 11.199822,9.566839 11.199851,9.562316 11.200671,9.43181 11.200671,9.379171 11.342999,9.379138" style="fill: white" /><polygon type="contour" points="11.942291,9.381048 11.958273,9.381048 12.040042,9.37975 12.075629,9.37975 12.075593,9.420286 12.075463,9.566207 12.075594,9.711419 12.075629,9.751955 11.958273,9.750656 11.94229,9.750656 11.848835,9.751955 11.807966,9.752533 11.807405,9.57306 11.807405,9.559331 11.807966,9.379171" style="fill: white" /><polygon type="contour" points="11.94229,10.247985 11.958273,10.247985 12.040042,10.246834 12.075629,10.246834 12.075634,10.28855 12.075131,10.436271 12.161747,10.436271 12.215028,10.436185 12.225089,10.436145 12.247879,10.436005 12.247856,10.463575 12.2475,10.501356 12.247481,10.557151 12.249015,10.682171 12.247669,10.730858 12.151375,10.731003 12.075464,10.731003 12.075627,10.833177 12.075674,10.862293 11.958273,10.861326 11.94229,10.861326 11.849354,10.862293 11.807966,10.862293 11.80877,10.737449 11.808777,10.733646 11.8091,10.541552 11.80924,10.434255 11.807966,10.300802 11.807966,10.246154" style="fill: white" /><polygon type="contour" points="11.434575,10.246834 11.470087,10.246154 11.468795,10.434254 11.468951,10.541552 11.469298,10.726058 11.469298,10.733645 11.470087,10.825525 11.470087,10.862293 11.344537,10.862488 11.342321,10.862488 11.200671,10.862293 11.201216,10.738113 11.201226,10.731123 11.201499,10.541552 11.201624,10.434254 11.200671,10.300802 11.200671,10.246154 11.3432,10.245702" style="fill: white" /><polygon type="contour" points="10.861163,10.434254 10.86135,10.541552 10.861742,10.726058 10.861742,10.733645 10.862292,10.825525 10.862292,10.862293 10.740199,10.861764 10.730853,10.861745 10.541549,10.861352 10.434252,10.861165 10.300801,10.862293 10.246152,10.862293 10.247433,10.73573 10.247464,10.73401 10.2479,10.541551 10.248103,10.44438 10.248103,10.434255 10.246832,10.300019 10.246832,10.246834 10.434251,10.248105 10.444377,10.248105 10.541549,10.247902 10.726239,10.247474 10.733625,10.247474 10.82616,10.246834 10.862292,10.246154" style="fill: white" /><polygon type="contour" points="10.862487,11.343396 10.862292,11.433924 10.862292,11.470089 10.737757,11.469311 10.733645,11.469304 10.541549,11.468951 10.434252,11.468796 10.3008,11.470089 10.246152,11.470089 10.245703,11.344538 10.24572,11.343499 10.245703,11.342323 10.246152,11.200673 10.434252,11.201627 10.541549,11.201502 10.726058,11.201229 10.733644,11.201229 10.825524,11.200673 10.862292,11.200673" style="fill: white" /><polygon type="contour" points="11.344074,11.200046 11.344075,11.200046 11.433921,11.200673 11.470087,11.200673 11.470075,11.342323 11.470075,11.344077 11.470087,11.433923 11.470087,11.470089 11.344537,11.470077 11.342321,11.470077 11.200671,11.470089 11.200044,11.344538 11.200044,11.342323 11.200671,11.200673 11.343394,11.200041" style="fill: white" /><polygon type="contour" points="11.344074,11.807634 11.433921,11.807969 11.470087,11.807969 11.469036,11.942292 11.469036,11.958274 11.470087,12.038908 11.470087,12.075675 11.344537,12.07565 11.343492,12.075647 11.342321,12.07565 11.200671,12.075675 11.201947,11.958275 11.201947,11.942292 11.200671,11.849357 11.200671,11.807969 11.343394,11.807631" style="fill: white" /><polygon type="contour" points="10.862292,11.950706 10.861324,11.958274 10.862292,12.038908 10.862292,12.075675 10.833176,12.075628 10.731002,12.075465 10.731002,12.151377 10.730857,12.2459 10.730857,12.247671 10.682169,12.249017 10.642239,12.250077 10.634982,12.250552 10.564286,12.254391 10.463572,12.247858 10.438206,12.247789 10.436269,12.185123 10.436269,12.075133 10.288547,12.075635 10.246831,12.07563 10.247984,11.958275 10.247984,11.942293 10.246831,11.848838 10.246152,11.807969 10.434251,11.809242 10.54155,11.809101 10.726057,11.808783 10.733645,11.808783 10.825523,11.807969 10.862292,11.807969" style="fill: white" /><polygon type="contour" points="9.752532,11.807969 9.750653,11.942292 9.750653,11.958275 9.751953,12.040042 9.751953,12.07563 9.711416,12.075594 9.565495,12.075465 9.420284,12.075594 9.379748,12.07563 9.381047,11.958274 9.381047,11.942293 9.379747,11.848838 9.379169,11.807969 9.558643,11.807407 9.57237,11.807407" style="fill: white" /><polygon type="contour" points="9.752532,11.200673 9.752564,11.343001 9.751953,11.434577 9.752532,11.470089 9.566126,11.470697 9.561628,11.470677 9.561627,11.470677 9.431809,11.470089 9.379169,11.470089 9.379136,11.344538 9.379151,11.343499 9.379136,11.342324 9.379169,11.200673 9.558642,11.199852 9.572369,11.199852" style="fill: white" /><polygon type="contour" points="8.885999,11.343202 8.884869,11.434578 8.885549,11.470089 8.697447,11.468796 8.590149,11.468952 8.405643,11.469299 8.398055,11.469299 8.306175,11.470089 8.269407,11.470089 8.269214,11.344539 8.269214,11.342323 8.269407,11.200672 8.393588,11.201218 8.398056,11.201224 8.398785,11.201226 8.400846,11.201229 8.400847,11.201229 8.590149,11.201501 8.697448,11.201627 8.8309,11.200672 8.885549,11.200672" style="fill: white" /><polygon type="contour" points="8.883716,11.942292 8.883716,11.958274 8.884869,12.040043 8.884869,12.07563 8.843152,12.075635 8.69532,12.075135 8.695431,12.152096 8.695431,12.18509 8.693493,12.247788 8.630343,12.247503 8.574549,12.247484 8.449531,12.249017 8.400844,12.247671 8.400699,12.151377 8.400699,12.075465 8.298522,12.075628 8.269407,12.075675 8.270376,11.958274 8.270376,11.942292 8.269407,11.849357 8.269407,11.807969 8.394239,11.808771 8.398055,11.808778 8.590149,11.809101 8.697448,11.809242 8.8309,11.807969 8.885549,11.807969" style="fill: white" /><polygon type="contour" points="7.931028,11.807969 7.931028,11.950706 7.929752,11.958274 7.931028,12.038907 7.931028,12.075675 7.789378,12.07565 7.789002,12.075649 7.690468,12.075628 7.661613,12.075674 7.662664,11.958274 7.662664,11.942292 7.661613,11.849357 7.661613,11.807969 7.787162,11.807634 7.789378,11.807634" style="fill: white" /><polygon type="contour" points="7.931028,11.200673 7.931661,11.343396 7.931028,11.433924 7.931028,11.470089 7.789379,11.470077 7.787624,11.470077 7.697778,11.470089 7.661613,11.470089 7.661625,11.344539 7.661625,11.342323 7.661613,11.200673 7.787163,11.200046 7.789378,11.200046" style="fill: white" /><polygon type="contour" points="7.32407,11.343396 7.324068,11.344077 7.323734,11.433923 7.323734,11.470089 7.189408,11.469038 7.173425,11.469038 7.092792,11.470089 7.056024,11.470089 7.056052,11.344538 7.056052,11.342323 7.056024,11.200673 7.173425,11.201949 7.189409,11.201949 7.282345,11.200673 7.323734,11.200673" style="fill: white" /><polygon type="contour" points="7.322742,11.942293 7.322742,11.958275 7.323734,12.038907 7.323734,12.075675 7.291644,12.075635 7.179408,12.075492 7.179408,12.247151 7.121972,12.249229 6.875249,12.256454 6.880295,12.048525 6.883309,11.953266 6.96351,11.95231 6.969952,11.952292 7.056209,11.952292 7.056066,11.840059 7.056024,11.807969 7.173426,11.809604 7.189409,11.809604 7.282345,11.807969 7.323734,11.807969" style="fill: white" />
</svg>
