<svg width="19.131698" height="19.131699">
<polygon type="contour" points="12.187031,7.104336 12.182934,7.24543 12.177203,7.245499 12.165642,7.24553 12.097433,7.24553 12.097433,7.487276 12.097325,7.730264 12.097196,8.00164 12.097326,8.438181 12.148098,8.439844 12.183265,8.439844 12.184328,8.472479 12.189471,8.567216 12.18454,8.643236 12.184617,8.736324 12.097316,8.735849 12.097316,10.395913 12.184617,10.395378 12.18454,10.488466 12.183342,10.616032 12.183316,10.690318 12.182924,10.693028 12.18283,10.693359 12.097433,10.693359 12.097433,10.754078 12.097316,11.536579 12.097433,11.705145 12.097433,11.886173 12.165642,11.886173 12.177203,11.886205 12.182934,11.886274 12.187031,12.027367 12.191397,12.191399 11.909481,12.183144 11.886367,12.182962 11.886108,12.097207 11.423324,12.097207 10.95538,12.097347 10.692438,12.097387 10.692438,12.183184 10.69255,12.183487 10.691259,12.183101 10.668936,12.183693 10.659222,12.184329 10.564485,12.189473 10.488463,12.184542 10.402813,12.184305 10.400123,12.097317 8.731576,12.097317 8.728886,12.184305 8.515668,12.183344 8.441382,12.183317 8.438804,12.183365 8.438153,12.183145 8.438153,12.097318 7.712382,12.097317 7.24533,12.097317 7.24533,12.182962 7.222214,12.183144 6.940303,12.191399 6.944284,12.027367 6.948749,11.886274 6.954496,11.886205 6.966057,11.886173 7.034268,11.886173 7.034268,11.644427 7.034375,11.401439 7.034504,11.130063 7.034375,10.693523 6.948488,10.693523 6.947371,10.659223 6.942228,10.564487 6.94716,10.488466 6.947082,10.395379 7.034384,10.395854 7.034384,8.735789 6.947082,8.736324 6.94716,8.643236 6.948358,8.515671 6.948385,8.438181 7.034375,8.438181 7.034504,8.00164 7.034384,7.245514 6.966057,7.24553 6.954497,7.245499 6.948749,7.24543 6.944284,7.104336 6.940303,6.940305 7.222215,6.948556 7.24533,6.948739 7.24533,7.034067 7.360503,7.034067 8.176319,7.034201 8.179237,7.034315 8.439182,7.034315 8.439182,6.948257 8.439057,6.948141 8.439084,6.948109 8.439181,6.948102 8.439356,6.949172 8.567215,6.942229 8.643233,6.947162 8.728887,6.947398 8.731576,7.034387 10.400123,7.034387 10.402813,6.947398 10.61603,6.94836 10.690317,6.948386 10.692893,6.948338 10.693545,6.948558 10.693545,7.034387 11.886367,7.034387 11.886367,6.948739 11.909482,6.948556 12.191397,6.940305" style="fill: white" />
</svg>
