<svg width="19.131698" height="19.131699">
<polygon type="contour" points="9.031837,10.096232 9.03547,10.096232 9.035539,10.116053 9.035539,10.270518 9.03547,10.295204 9.03547,10.300752 9.032624,10.30076 8.968216,10.300684 8.968216,10.396255 8.967768,10.46741 8.897451,10.467082 8.662469,10.469233 8.663721,10.402959 8.663834,10.390739 8.66435,10.211284 8.664499,10.163593 8.695199,10.163712 8.729312,10.16354 8.830995,10.16354 8.830951,10.096232 8.861184,10.096163 9.015648,10.096163" style="fill: white" /><polygon type="contour" points="8.897451,8.664621 8.967768,8.664294 8.96812,8.705396 8.968216,8.735445 8.968163,8.766012 8.968163,8.830993 9.03547,8.830953 9.035539,8.861186 9.035539,9.015649 9.03547,9.031838 9.03547,9.035471 9.015647,9.03554 8.861184,9.03554 8.836498,9.035471 8.830951,9.035471 8.830943,9.032625 8.831022,8.968164 8.729313,8.968164 8.664499,8.968111 8.66435,8.920419 8.663834,8.740964 8.663721,8.728744 8.662469,8.662471" style="fill: white" /><polygon type="contour" points="9.031837,9.353256 9.03547,9.353256 9.03558,9.373503 9.03558,9.7582 9.03547,9.774844 9.03547,9.778448 9.015647,9.778477 8.861184,9.778477 8.836498,9.778448 8.830951,9.778448 8.830944,9.775615 8.831066,9.711102 8.659807,9.711102 8.660368,9.595076 8.660614,9.566201 8.660075,9.454003 8.659807,9.420602 8.831037,9.420602 8.830951,9.353255 8.861184,9.353226 9.015648,9.353226" style="fill: white" /><polygon type="contour" points="10.467978,8.728744 10.467866,8.740964 10.467349,8.920419 10.467201,8.968111 10.4365,8.967992 10.402385,8.968164 10.300705,8.968164 10.30075,9.035471 10.270516,9.03554 10.11605,9.03554 10.099861,9.035471 10.09623,9.035471 10.096161,9.015648 10.096161,8.861186 10.09623,8.8365 10.09623,8.830953 10.099074,8.830945 10.163485,8.83102 10.163485,8.735445 10.163933,8.664294 10.23425,8.664621 10.469231,8.662471" style="fill: white" /><polygon type="contour" points="9.688921,8.663763 9.711101,8.664356 9.711101,8.831039 9.778444,8.830953 9.778474,8.861187 9.778474,9.015648 9.778445,9.031839 9.778445,9.035471 9.758197,9.035581 9.373502,9.035581 9.356858,9.035471 9.353255,9.035471 9.353225,9.015648 9.353225,8.861187 9.353255,8.836499 9.353255,8.830953 9.356087,8.830946 9.4206,8.831068 9.4206,8.664356 9.440159,8.663932 9.565663,8.660632" style="fill: white" /><polygon type="contour" points="9.774842,9.353256 9.778445,9.353256 9.778502,9.373504 9.778502,9.758199 9.778445,9.774845 9.778445,9.778448 9.758196,9.778505 9.373503,9.778505 9.356857,9.778448 9.353255,9.778448 9.353198,9.758199 9.353198,9.373504 9.353255,9.356858 9.353255,9.353256 9.373503,9.353199 9.758196,9.353199" style="fill: white" /><polygon type="contour" points="10.295203,9.353256 10.300749,9.353256 10.300757,9.356088 10.300634,9.420602 10.471893,9.420602 10.471332,9.536627 10.471086,9.565662 10.471624,9.67786 10.471893,9.711102 10.300663,9.711102 10.30075,9.778447 10.270515,9.778477 10.116051,9.778477 10.09986,9.778448 10.09623,9.778448 10.096119,9.758199 10.096119,9.373503 10.09623,9.356859 10.09623,9.353256 10.11605,9.353226 10.270515,9.353226" style="fill: white" /><polygon type="contour" points="10.295202,10.096232 10.30075,10.096232 10.300758,10.099076 10.300678,10.16354 10.402385,10.16354 10.467201,10.163593 10.467349,10.211284 10.467866,10.390739 10.467978,10.402959 10.469231,10.469233 10.23425,10.467083 10.163933,10.46741 10.163579,10.426307 10.163485,10.396256 10.163538,10.365689 10.163538,10.300711 10.09623,10.300752 10.096161,10.270518 10.096161,10.116052 10.09623,10.099863 10.09623,10.096232 10.116051,10.096163 10.270516,10.096163" style="fill: white" /><polygon type="contour" points="9.774841,10.096232 9.778445,10.096232 9.778474,10.116052 9.778474,10.270518 9.778445,10.295204 9.778445,10.300751 9.775612,10.300757 9.711101,10.300639 9.711101,10.467347 9.69154,10.467769 9.565501,10.471072 9.442673,10.467941 9.4206,10.467347 9.4206,10.300665 9.353254,10.300752 9.353225,10.270518 9.353225,10.116052 9.353255,10.099863 9.353255,10.096232 9.373503,10.096121 9.758197,10.096121" style="fill: white" />
</svg>
