<svg width="19.131698" height="19.131699">
<polygon type="contour" points="8.495176,8.241109 8.495315,8.245967 8.495574,8.275161 8.495574,8.308686 8.496853,8.496855 8.223953,8.496855 8.224708,8.311076 8.22458,8.28308 8.224139,8.242597 8.223584,8.223584 8.27508,8.224512 8.4951,8.221662" style="fill: white" /><polygon type="contour" points="8.747097,8.391179 8.747004,8.443167 8.747004,8.497232 8.695702,8.497232 8.641046,8.497154 8.641046,8.436626 8.64233,8.391226 8.695702,8.391175" style="fill: white" /><polygon type="contour" points="8.747004,8.64235 8.747097,8.689761 8.747097,8.747099 8.695701,8.747006 8.642349,8.747006 8.642349,8.695704 8.64233,8.642331 8.701865,8.642331" style="fill: white" /><polygon type="contour" points="8.497152,8.700772 8.497231,8.747006 8.449279,8.747099 8.391177,8.747099 8.391234,8.698016 8.391225,8.642331 8.436624,8.641047 8.497152,8.641047" style="fill: white" /><polygon type="contour" points="8.310117,9.274965 8.496806,9.275247 8.496853,9.502706 8.496853,9.859461 8.310117,9.858294 8.223682,9.85679 8.223574,9.789729 8.221958,9.571939 8.221958,9.565663 8.223575,9.348409 8.223575,9.341974 8.223682,9.274915" style="fill: white" /><polygon type="contour" points="8.497231,9.077891 8.497145,9.127478 8.438048,9.124951 8.391032,9.124951 8.391078,9.074986 8.391177,9.027988 8.443165,9.027966 8.497231,9.027966" style="fill: white" /><polygon type="contour" points="8.689758,9.027988 8.747097,9.027988 8.746967,9.074985 8.746967,9.124775 8.695701,9.126977 8.642292,9.127478 8.642292,9.070099 8.642349,9.027966" style="fill: white" /><polygon type="contour" points="9.124948,9.275589 9.124948,9.856116 9.070642,9.856116 9.027833,9.85612 9.027833,9.275585 9.074983,9.275585" style="fill: white" /><polygon type="contour" points="9.124772,9.074985 9.124948,9.124951 9.070642,9.124951 9.027833,9.124775 9.027986,9.08074 9.027986,9.027988 9.074982,9.027835 9.124772,9.027835" style="fill: white" /><polygon type="contour" points="9.126974,8.695703 9.124772,8.746969 9.080737,8.747099 9.027986,8.747099 9.027964,8.695703 9.027964,8.64235 9.07789,8.64235 9.127476,8.642293" style="fill: white" /><polygon type="contour" points="9.127476,8.450895 9.127476,8.497148 9.070097,8.497148 9.027964,8.497232 9.027986,8.449281 9.027986,8.391179 9.073782,8.391143 9.124948,8.391033" style="fill: white" /><polygon type="contour" points="10.856619,8.224513 10.908117,8.223585 10.907561,8.242597 10.907119,8.28308 10.906992,8.311077 10.907596,8.496855 10.634847,8.496855 10.634847,8.436326 10.636126,8.275161 10.636385,8.269719 10.636385,8.245967 10.6366,8.221662" style="fill: white" /><polygon type="contour" points="10.680138,8.642331 10.740476,8.642331 10.740527,8.695703 10.740524,8.747099 10.688535,8.747006 10.63447,8.747006 10.63447,8.695703 10.634548,8.641047" style="fill: white" /><polygon type="contour" points="10.489103,8.688242 10.489352,8.695703 10.489352,8.747006 10.44194,8.747099 10.384602,8.747099 10.384696,8.695703 10.384696,8.64235 10.435998,8.64235 10.489069,8.642331" style="fill: white" /><polygon type="contour" points="10.433356,8.391235 10.489069,8.391226 10.489069,8.451562 10.490654,8.497154 10.43093,8.497154 10.384696,8.497232 10.384602,8.449281 10.384602,8.391179" style="fill: white" /><polygon type="contour" points="9.783291,8.223577 9.789728,8.223577 9.856788,8.223684 9.856883,8.247468 9.856788,8.275479 9.858291,8.310119 9.859459,8.496855 9.695171,8.496691 9.275285,8.496691 9.275182,8.425998 9.274913,8.275479 9.274818,8.247468 9.274913,8.223684 9.341973,8.223577 9.559762,8.221961 9.566039,8.221961" style="fill: white" /><polygon type="contour" points="10.056716,8.39108 10.103714,8.391179 10.103735,8.443167 10.103735,8.497232 10.056221,8.497232 10.006995,8.497148 10.006752,8.438049 10.006752,8.391033" style="fill: white" /><polygon type="contour" points="10.056221,8.64235 10.103735,8.64235 10.103714,8.689761 10.103714,8.747099 10.056716,8.746969 10.006928,8.746969 10.007136,8.695703 10.006995,8.642293" style="fill: white" /><polygon type="contour" points="9.856052,8.70107 9.856118,8.746969 9.275582,8.746969 9.275647,8.701071 9.275726,8.642331 9.858771,8.642331" style="fill: white" /><polygon type="contour" points="9.856115,9.070645 9.856115,9.124951 9.275586,9.124951 9.275586,9.070644 9.275582,9.027835 9.856118,9.027835" style="fill: white" /><polygon type="contour" points="10.050963,9.027988 10.103714,9.027988 10.103867,9.074985 10.103867,9.124775 10.056717,9.124775 10.006752,9.124951 10.006752,9.070645 10.006929,9.027835" style="fill: white" /><polygon type="contour" points="10.435998,9.275653 10.489069,9.275727 10.489069,9.855976 10.430324,9.856054 10.384734,9.85612 10.384734,9.275585" style="fill: white" /><polygon type="contour" points="10.489352,9.077891 10.489103,9.127478 10.435998,9.126977 10.384734,9.124774 10.384602,9.080739 10.384602,9.027988 10.435998,9.027966 10.489352,9.027966" style="fill: white" /><polygon type="contour" points="10.682421,9.027988 10.740524,9.027988 10.740559,9.073784 10.740669,9.124951 10.680806,9.127478 10.634554,9.127478 10.634554,9.070099 10.63447,9.027966" style="fill: white" /><polygon type="contour" points="10.908124,9.341974 10.909742,9.559764 10.909742,9.566202 10.908124,9.783453 10.908124,9.789729 10.908018,9.85679 10.821582,9.856739 10.634894,9.856457 10.634894,9.275247 10.821582,9.274965 10.908018,9.274915" style="fill: white" /><polygon type="contour" points="10.906992,10.820627 10.907119,10.848623 10.907561,10.889106 10.908117,10.908119 10.856619,10.907191 10.6366,10.910042 10.636524,10.890594 10.636385,10.885736 10.636126,10.856542 10.636126,10.823017 10.634847,10.634849 10.907745,10.634849" style="fill: white" /><polygon type="contour" points="10.489069,10.634477 10.489069,10.740478 10.435998,10.740529 10.384602,10.740525 10.384696,10.688537 10.384696,10.634472 10.435997,10.634472" style="fill: white" /><polygon type="contour" points="10.435997,10.384698 10.489352,10.384698 10.489352,10.436 10.489069,10.489071 10.429533,10.489071 10.384696,10.489354 10.384602,10.441943 10.384602,10.384604" style="fill: white" /><polygon type="contour" points="10.740467,10.433358 10.740476,10.489071 10.634474,10.489071 10.634474,10.429535 10.63447,10.384698 10.682421,10.384604 10.740524,10.384604" style="fill: white" /><polygon type="contour" points="10.693651,10.006754 10.740669,10.006754 10.740621,10.056719 10.740524,10.103716 10.688534,10.103737 10.63447,10.103737 10.63447,10.053812 10.634554,10.004227" style="fill: white" /><polygon type="contour" points="10.489103,10.061603 10.489352,10.103737 10.44194,10.103716 10.384602,10.103716 10.384734,10.056718 10.384734,10.00693 10.435998,10.004727 10.489103,10.004226" style="fill: white" /><polygon type="contour" points="10.103867,10.006929 10.103714,10.050964 10.103714,10.103716 10.056717,10.103869 10.006929,10.103869 10.006929,10.056718 10.006752,10.006754 10.061057,10.006754" style="fill: white" /><polygon type="contour" points="10.103867,9.85612 10.056716,9.85612 10.006752,9.856116 10.006752,9.275589 10.061057,9.275589 10.103867,9.275585" style="fill: white" /><polygon type="contour" points="9.856532,9.856533 9.275169,9.856533 9.275169,9.275172 9.856532,9.275172" style="fill: white" /><polygon type="contour" points="9.856115,10.061058 9.856118,10.103869 9.275582,10.103869 9.275586,10.061059 9.275586,10.006754 9.856115,10.006754" style="fill: white" /><polygon type="contour" points="9.856052,10.430326 9.855974,10.489071 9.275726,10.489071 9.275646,10.430326 9.275582,10.384736 9.856118,10.384736" style="fill: white" /><polygon type="contour" points="10.103735,10.435999 10.103735,10.489354 10.053811,10.489354 10.004225,10.489106 10.004727,10.436 10.006929,10.384736 10.050964,10.384604 10.103714,10.384604" style="fill: white" /><polygon type="contour" points="10.103714,10.682421 10.103714,10.740525 10.057918,10.74056 10.006752,10.740671 10.004225,10.680808 10.004225,10.634556 10.061601,10.634556 10.103735,10.634472" style="fill: white" /><polygon type="contour" points="9.856565,10.712315 9.856788,10.856225 9.856883,10.884235 9.856788,10.90802 9.789727,10.908127 9.571937,10.909744 9.5655,10.909744 9.348249,10.908126 9.341972,10.908126 9.274913,10.90802 9.274818,10.884235 9.274913,10.856224 9.274963,10.821584 9.275247,10.63493 9.856454,10.63493" style="fill: white" /><polygon type="contour" points="9.127476,10.634556 9.124948,10.693654 9.124948,10.740671 9.074983,10.740623 9.027986,10.740525 9.027964,10.688537 9.027964,10.634472 9.07789,10.634472" style="fill: white" /><polygon type="contour" points="9.074983,10.384736 9.124771,10.384736 9.126974,10.436 9.127476,10.489106 9.077889,10.489354 9.027964,10.489354 9.027986,10.441942 9.027986,10.384604" style="fill: white" /><polygon type="contour" points="9.124948,10.061059 9.124772,10.103869 9.080737,10.103716 9.027986,10.103716 9.027833,10.056718 9.027833,10.00693 9.074982,10.00693 9.124948,10.006754" style="fill: white" /><polygon type="contour" points="8.746967,9.85612 8.695701,9.858462 8.64233,9.858773 8.64233,9.275727 8.701068,9.275649 8.746967,9.275585" style="fill: white" /><polygon type="contour" points="8.747097,10.050964 8.747097,10.103716 8.695702,10.103737 8.642349,10.103737 8.642349,10.056223 8.642292,10.006997 8.695702,10.007137 8.746967,10.00693" style="fill: white" /><polygon type="contour" points="8.450893,10.006997 8.497146,10.006997 8.497146,10.061602 8.497231,10.103737 8.44928,10.103716 8.391177,10.103716 8.391142,10.057919 8.391032,10.006754" style="fill: white" /><polygon type="contour" points="8.443166,10.384698 8.497231,10.384698 8.497231,10.435999 8.497226,10.489071 8.391225,10.489071 8.391173,10.435999 8.391176,10.384604" style="fill: white" /><polygon type="contour" points="8.747004,10.436 8.747004,10.489354 8.695701,10.489354 8.64233,10.489071 8.642292,10.443462 8.642349,10.435999 8.642349,10.384697 8.689757,10.384604 8.747097,10.384604" style="fill: white" /><polygon type="contour" points="8.747097,10.682421 8.747097,10.740525 8.698014,10.740469 8.64233,10.740478 8.64233,10.634477 8.701866,10.634477 8.747004,10.634472" style="fill: white" /><polygon type="contour" points="8.496853,10.695377 8.495574,10.856542 8.495315,10.861984 8.495315,10.885736 8.4951,10.910042 8.27508,10.907191 8.223584,10.908119 8.224139,10.889106 8.22458,10.848623 8.224708,10.820627 8.224102,10.63485 8.259701,10.63485 8.340923,10.634849 8.496853,10.634849" style="fill: white" />
</svg>
