<svg width="19.131698" height="19.131699">
<polygon type="contour" points="9.124911,9.356987 9.124911,9.747604 9.125139,9.797544 9.125139,9.836445 9.062635,9.83624 9.000392,9.83624 8.923025,9.836445 8.862513,9.836445 8.862567,9.806477 8.862937,9.71128 8.70056,9.711102 8.696537,9.711102 8.696541,9.710281 8.696588,9.704857 8.696077,9.590233 8.695742,9.566202 8.696588,9.426876 8.696537,9.420602 8.71041,9.420602 8.722372,9.420543 8.862879,9.420296 8.862734,9.356986 8.862513,9.29495 8.959176,9.295254 9.035931,9.295254 9.08593,9.29495 9.125139,9.29495" style="fill: white" /><polygon type="contour" points="8.883291,8.692036 8.997693,8.694823 8.999471,8.753759 8.999812,8.759767 9.000419,8.862828 9.062636,8.862704 9.125139,8.862514 9.12483,8.959179 9.12483,9.035933 9.125139,9.085932 9.125139,9.125142 9.062636,9.124831 9.000393,9.124831 8.923026,9.125142 8.862513,9.125142 8.862562,9.094835 8.862873,9.000315 8.696129,9.000315 8.695864,8.986146 8.690269,8.69027" style="fill: white" /><polygon type="contour" points="9.581876,8.69567 9.592803,8.695957 9.599222,8.696147 9.711101,8.696171 9.711101,8.862882 9.774503,8.862735 9.836444,8.862514 9.836239,8.959179 9.836239,9.035932 9.836444,9.085932 9.836444,9.125142 9.774502,9.124913 9.384095,9.124913 9.334156,9.125142 9.294947,9.125142 9.295251,9.062638 9.295251,9.000395 9.294947,8.923027 9.294947,8.862514 9.325223,8.862569 9.4206,8.86294 9.4206,8.696172 9.533017,8.696147 9.539466,8.695957 9.566128,8.695569" style="fill: white" /><polygon type="contour" points="9.836291,9.356986 9.836291,9.747605 9.836444,9.797544 9.836444,9.836445 9.774502,9.836293 9.384096,9.836293 9.334157,9.836445 9.294947,9.836445 9.295196,9.774504 9.295196,9.384098 9.294947,9.334158 9.294947,9.29495 9.356984,9.295198 9.747603,9.295198 9.797542,9.29495 9.836444,9.29495" style="fill: white" /><polygon type="contour" points="10.435835,8.986146 10.43557,9.000315 10.268872,9.000315 10.268998,9.062638 10.268796,9.125142 10.172524,9.124831 10.09577,9.124831 10.04577,9.125142 10.006253,9.125142 10.006659,9.062639 10.006659,9.000395 10.006253,8.923027 10.006253,8.862514 10.036866,8.862563 10.131889,8.862877 10.131889,8.759768 10.134008,8.694824 10.248409,8.692037 10.441431,8.690271" style="fill: white" /><polygon type="contour" points="10.268671,9.325226 10.269048,9.420423 10.431139,9.420602 10.435162,9.420602 10.435158,9.421422 10.435112,9.426876 10.435622,9.542054 10.435958,9.566201 10.435112,9.704857 10.435163,9.711102 10.268819,9.711102 10.268966,9.774504 10.268796,9.836445 10.172524,9.83624 10.09577,9.83624 10.045769,9.836445 10.006253,9.836445 10.006576,9.774504 10.006576,9.384097 10.006253,9.334159 10.006253,9.29495 10.068853,9.295254 10.131307,9.295254 10.208281,9.29495 10.268796,9.29495" style="fill: white" /><polygon type="contour" points="10.268677,10.036867 10.269105,10.13139 10.43557,10.13139 10.435835,10.145558 10.441431,10.441433 10.248409,10.439667 10.134008,10.43688 10.132229,10.377944 10.131889,10.371936 10.131281,10.268876 10.068853,10.268999 10.006253,10.268797 10.006659,10.172526 10.006659,10.095772 10.006253,10.045773 10.006253,10.006255 10.068854,10.006661 10.131307,10.006661 10.208281,10.006255 10.268796,10.006255" style="fill: white" /><polygon type="contour" points="9.836239,10.068856 9.836239,10.131309 9.836444,10.208283 9.836444,10.268797 9.806475,10.268673 9.711101,10.26905 9.711101,10.435531 9.598683,10.435556 9.592233,10.435747 9.565501,10.436135 9.549822,10.436033 9.538897,10.435747 9.532477,10.435556 9.4206,10.435531 9.4206,10.268822 9.356985,10.268968 9.294947,10.268797 9.295251,10.172525 9.295251,10.095772 9.294947,10.045772 9.294947,10.006255 9.356984,10.006578 9.747604,10.006578 9.797541,10.006255 9.836444,10.006255" style="fill: white" /><polygon type="contour" points="9.12483,10.068855 9.12483,10.131309 9.125139,10.208284 9.125139,10.268796 9.094833,10.268677 8.999812,10.26911 8.999812,10.371935 8.997693,10.43688 8.883291,10.439667 8.690269,10.441433 8.695864,10.145558 8.696129,10.13139 8.862826,10.13139 8.862703,10.068856 8.862513,10.006255 8.959176,10.006661 9.035931,10.006661 9.085929,10.006255 9.125139,10.006255" style="fill: white" />
</svg>
