<svg width="19.131698" height="19.131699">
<polygon type="contour" points="10.994226,8.342741 10.993492,8.410061 10.885959,8.410061 10.75152,8.409855 10.721847,8.409855 10.721847,8.38018 10.721584,8.241107 10.721725,8.237043 10.721725,8.187773 10.723647,8.135755 10.801041,8.134892 11.0004,8.131302" style="fill: white" /><polygon type="contour" points="9.479507,9.182473 9.651657,9.182473 9.949867,9.181836 9.949867,9.280909 9.949229,9.480045 9.949229,9.652195 9.949867,9.949869 9.850792,9.949869 9.651657,9.949231 9.479507,9.949231 9.181834,9.949869 9.181834,9.850794 9.182471,9.652196 9.182471,9.480045 9.181834,9.181836 9.280908,9.181836" style="fill: white" /><polygon type="contour" points="8.935267,9.18226 8.935267,9.274734 8.935487,9.4734 8.935487,9.658828 8.935267,9.949444 8.909569,9.949444 8.839067,9.949481 8.839068,9.945584 8.740562,9.95021 8.651416,9.950776 8.651416,9.852065 8.651157,9.655478 8.651157,9.476757 8.651416,9.182308 8.680605,9.182323 8.756086,9.182223 8.852948,9.182223" style="fill: white" /><polygon type="contour" points="8.409853,9.280041 8.410677,9.477602 8.410677,9.654634 8.409853,9.951439 8.380627,9.950033 8.186466,9.949869 8.138437,9.949869 8.138203,9.889558 8.137531,9.658258 8.148286,9.658242 8.150366,9.65817 8.304814,9.657521 8.30596,9.599087 8.306525,9.567897 8.306525,9.566202 8.30596,9.533044 8.304956,9.474128 8.16297,9.473535 8.150367,9.473535 8.137532,9.473447 8.1377,9.42634 8.138437,9.181836 8.333758,9.181671 8.409853,9.18166" style="fill: white" /><polygon type="contour" points="8.330658,8.134893 8.408052,8.135755 8.409857,8.18327 8.409975,8.187773 8.410116,8.241106 8.410116,8.305232 8.409852,8.409855 8.380179,8.409855 8.24574,8.410061 8.138208,8.410061 8.137474,8.342741 8.1313,8.131302" style="fill: white" /><polygon type="contour" points="8.410855,8.679132 8.411124,8.756043 8.411124,8.853972 8.410906,8.936682 8.382958,8.935269 8.306094,8.935269 8.306228,8.85295 8.306201,8.839073 8.306269,8.839073 8.306137,8.678941 8.306189,8.651418 8.335545,8.651418 8.410855,8.649261" style="fill: white" /><polygon type="contour" points="8.936679,8.651377 8.936331,8.740564 8.931476,8.839069 8.935566,8.839069 8.935566,8.852949 8.935267,8.935269 8.909569,8.935269 8.839067,8.935568 8.839069,8.931484 8.740563,8.936332 8.651375,8.936682 8.651375,8.909054 8.65104,8.83901 8.65104,8.740564 8.651416,8.651418 8.68097,8.651418 8.756042,8.651042 8.853972,8.651042" style="fill: white" /><polygon type="contour" points="8.935267,8.306096 8.93668,8.334487 8.93668,8.410908 8.909053,8.410908 8.839008,8.411127 8.740563,8.411127 8.649259,8.410857 8.651416,8.335547 8.651416,8.306191 8.740563,8.306229 8.756035,8.306203 8.756035,8.306386 8.910991,8.306044" style="fill: white" /><polygon type="contour" points="9.472471,8.135995 9.473698,8.184087 9.473959,8.188591 9.473959,8.305257 9.563071,8.306538 9.5655,8.306527 9.567978,8.306539 9.657741,8.305257 9.657741,8.188591 9.659229,8.135995 9.83936,8.138115 9.950126,8.138127 9.950126,8.199059 9.950031,8.333759 9.951436,8.409855 9.851661,8.409855 9.6541,8.410679 9.477068,8.410679 9.181659,8.409855 9.181669,8.380629 9.181669,8.33376 9.181574,8.238577 9.181574,8.138127 9.291327,8.135927" style="fill: white" /><polygon type="contour" points="9.950774,8.651418 9.94938,8.680608 9.94951,8.779802 9.949442,8.909571 9.949442,8.935269 9.856968,8.935269 9.658302,8.935488 9.472874,8.935488 9.182258,8.935269 9.182258,8.909571 9.182189,8.779632 9.182321,8.680607 9.182306,8.651418 9.279637,8.651418 9.476224,8.651157 9.654945,8.651157" style="fill: white" /><polygon type="contour" points="10.278752,8.306229 10.292628,8.306203 10.292628,8.306271 10.452759,8.306139 10.480285,8.306191 10.480285,8.410995 10.45073,8.410995 10.375658,8.411127 10.278451,8.411127 10.196354,8.410908 10.196434,8.382961 10.196434,8.306096" style="fill: white" /><polygon type="contour" points="10.480285,8.651418 10.480326,8.727285 10.480658,8.740563 10.480658,8.853251 10.480326,8.935348 10.391138,8.935609 10.292633,8.935343 10.292633,8.935568 10.278751,8.935568 10.196434,8.935269 10.196434,8.90957 10.196133,8.839068 10.196358,8.839069 10.196092,8.740563 10.196354,8.651377 10.222647,8.651377 10.292692,8.651042 10.391137,8.651042" style="fill: white" /><polygon type="contour" points="10.825473,8.740564 10.825499,8.756035 10.825316,8.756036 10.825657,8.910993 10.825606,8.935269 10.797215,8.935348 10.720794,8.935348 10.720794,8.909055 10.720576,8.83901 10.720576,8.740563 10.720707,8.651418 10.825511,8.651418" style="fill: white" /><polygon type="contour" points="10.751072,9.181671 10.945232,9.181836 10.993263,9.181836 10.993495,9.242145 10.994169,9.473447 10.983414,9.473463 10.981334,9.473534 10.826884,9.47418 10.825738,9.533045 10.825175,9.564462 10.825175,9.566202 10.825738,9.599086 10.826743,9.657574 10.968728,9.65817 10.981333,9.65817 10.994169,9.658258 10.993999,9.705364 10.993263,9.949869 10.797942,9.950033 10.721847,9.950044 10.721847,9.851662 10.721022,9.654635 10.721022,9.477601 10.721847,9.180266" style="fill: white" /><polygon type="contour" points="10.480285,9.279638 10.480544,9.476757 10.480544,9.655477 10.480284,9.949397 10.451095,9.949382 10.375613,9.949481 10.278752,9.949481 10.196434,9.949444 10.196434,9.85697 10.196214,9.658828 10.196214,9.4734 10.196434,9.18226 10.222131,9.18226 10.292633,9.182223 10.292632,9.186119 10.391137,9.181494 10.480285,9.180929" style="fill: white" /><polygon type="contour" points="10.994226,10.788962 11.0004,11.000402 10.80104,10.99681 10.723647,10.995948 10.721844,10.948434 10.721725,10.943929 10.721584,10.890597 10.721584,10.826471 10.721847,10.721849 10.75152,10.721849 10.885959,10.721643 10.993492,10.721643" style="fill: white" /><polygon type="contour" points="10.482442,10.720847 10.480285,10.796156 10.480285,10.825513 10.391137,10.825475 10.375664,10.825501 10.375664,10.825318 10.220709,10.825659 10.196434,10.825607 10.195021,10.797217 10.195021,10.720796 10.222647,10.720796 10.292692,10.720577 10.391137,10.720577" style="fill: white" /><polygon type="contour" points="10.748741,10.196435 10.825606,10.196435 10.825473,10.278755 10.825499,10.292631 10.82543,10.292631 10.825563,10.452762 10.825511,10.480287 10.796154,10.480287 10.720845,10.482443 10.720845,10.452571 10.720576,10.375661 10.720576,10.277731 10.720794,10.195022" style="fill: white" /><polygon type="contour" points="10.480326,10.222649 10.480658,10.292694 10.480658,10.391141 10.480285,10.480287 10.45073,10.480287 10.375658,10.48066 10.277729,10.48066 10.195021,10.480326 10.195369,10.391141 10.200223,10.292636 10.196134,10.292636 10.196134,10.278754 10.196434,10.196435 10.222131,10.196435 10.292633,10.196136 10.292631,10.200219 10.391138,10.195372 10.480326,10.195022" style="fill: white" /><polygon type="contour" points="9.949442,10.196435 9.949442,10.222132 9.94951,10.351903 9.94938,10.451097 9.949394,10.480287 9.852063,10.480287 9.654946,10.480547 9.476225,10.480547 9.180927,10.480287 9.182321,10.451096 9.182189,10.352072 9.182258,10.222132 9.182258,10.196435 9.274732,10.196435 9.472874,10.196216 9.658302,10.196216" style="fill: white" /><polygon type="contour" points="9.950042,10.721849 9.950031,10.751074 9.950031,10.797943 9.950126,10.893126 9.950126,10.993578 9.840373,10.995777 9.659229,10.995709 9.658002,10.947615 9.657741,10.943112 9.657741,10.826443 9.567978,10.825164 9.5655,10.825176 9.563072,10.825165 9.473959,10.826443 9.473959,10.943112 9.472471,10.995709 9.292339,10.993589 9.181574,10.993578 9.181574,10.932644 9.181669,10.797944 9.180264,10.721849 9.28004,10.721849 9.477067,10.721024 9.6541,10.721024" style="fill: white" /><polygon type="contour" points="8.935346,10.720795 8.935267,10.748742 8.935267,10.825607 8.852948,10.825475 8.839073,10.825501 8.839072,10.825432 8.678939,10.825565 8.651416,10.825513 8.649259,10.750521 8.649259,10.720847 8.679132,10.720847 8.756041,10.720577 8.85325,10.720577" style="fill: white" /><polygon type="contour" points="8.839068,10.19636 8.839068,10.196136 8.852949,10.196136 8.935267,10.196435 8.935267,10.222133 8.935566,10.292635 8.935341,10.292635 8.935608,10.391141 8.935346,10.480327 8.909053,10.480327 8.839008,10.48066 8.740562,10.48066 8.651416,10.480287 8.651375,10.404418 8.65104,10.39114 8.65104,10.278454 8.651375,10.196356 8.740562,10.196094" style="fill: white" /><polygon type="contour" points="8.410906,10.222649 8.411124,10.292694 8.411124,10.391141 8.410855,10.482443 8.38118,10.482443 8.306189,10.480287 8.306228,10.391141 8.306201,10.375668 8.306384,10.375667 8.306042,10.22071 8.306094,10.196435 8.334484,10.196356 8.410906,10.196356" style="fill: white" /><polygon type="contour" points="8.380179,10.721849 8.409853,10.721849 8.409853,10.751523 8.410116,10.890596 8.409975,10.894659 8.409975,10.943929 8.408052,10.995948 8.330659,10.99681 8.1313,11.000402 8.137474,10.788962 8.138208,10.721643 8.24574,10.721643" style="fill: white" />
</svg>
