<svg width="19.131698" height="19.131699">
<polygon type="contour" points="8.04829,7.934944 8.208093,7.93366 8.210218,7.992301 8.210218,8.048521 8.210131,8.051942 8.210359,8.075067 8.210328,8.103638 8.210328,8.21033 8.017106,8.210523 7.936534,8.210523 7.936192,8.1527 7.930849,7.930852" style="fill: white" /><polygon type="contour" points="9.268661,10.921228 9.268661,10.95293 9.268475,11.027647 9.268444,11.086017 9.268671,11.143263 9.268222,11.147449 9.267298,11.197804 9.127267,11.19783 8.97568,11.195396 8.97568,11.088994 8.975675,10.990071 8.975675,10.921371 9.181247,10.921181" style="fill: white" /><polygon type="contour" points="9.651481,10.920194 9.678327,10.920252 9.676707,10.995005 9.676707,11.026391 9.651663,11.026498 9.545815,11.026279 9.545815,11.02636 9.535214,11.02632 9.454993,11.026391 9.454993,10.92041 9.535213,10.920086 9.565078,10.920024" style="fill: white" /><polygon type="contour" points="11.195509,10.979003 11.200851,11.200852 11.08341,11.19676 10.923608,11.198044 10.921482,11.139402 10.921482,11.082711 10.921569,11.079762 10.92134,11.056636 10.921371,11.028065 10.921371,10.921372 11.114593,10.921181 11.195167,10.921181" style="fill: white" /><polygon type="contour" points="11.026742,10.474358 11.026713,10.492751 11.026545,10.492751 11.026741,10.606841 11.026603,10.685712 10.995827,10.685712 10.920193,10.688295 10.920193,10.660197 10.92046,10.590482 10.924331,10.590482 10.919729,10.474359 10.919032,10.386999 11.026988,10.386999" style="fill: white" /><polygon type="contour" points="10.474356,10.919731 10.590478,10.924333 10.59048,10.920462 10.657991,10.92041 10.68571,10.92041 10.68571,11.026605 10.606839,11.026742 10.492749,11.026546 10.492749,11.026713 10.474357,11.026741 10.386997,11.02699 10.386997,10.919033" style="fill: white" /><polygon type="contour" points="10.156079,10.952776 10.15602,11.088994 10.15602,11.195396 10.004432,11.19783 9.864402,11.197804 9.863026,11.143263 9.863026,11.090784 9.863254,11.086017 9.863224,11.027646 9.863037,10.952931 9.863037,10.921228 10.067781,10.921228 10.156079,10.919925" style="fill: white" /><polygon type="contour" points="10.155696,9.949975 10.156079,10.156081 9.949974,10.155698 9.863144,10.156797 9.863144,10.067991 9.863224,9.863226 10.053182,9.863226 10.155745,9.863146" style="fill: white" /><polygon type="contour" points="10.474357,8.976339 10.590484,8.976339 10.65764,8.97639 10.686955,8.97639 10.688499,9.182219 10.687227,9.269048 10.607278,9.268909 10.590474,9.268909 10.590474,9.268725 10.418612,9.269048 10.386072,9.269048 10.387008,9.182219 10.385757,8.976107" style="fill: white" /><polygon type="contour" points="10.473586,9.455101 10.492737,9.455101 10.492738,9.455255 10.658008,9.454994 10.686464,9.454994 10.685444,9.535832 10.685458,9.588792 10.68571,9.649992 10.685698,9.676494 10.607277,9.676604 10.473586,9.676604 10.460075,9.676494 10.385968,9.676709 10.386869,9.596489 10.387409,9.580712 10.3869,9.481937 10.385968,9.454994 10.460074,9.454994" style="fill: white" /><polygon type="contour" points="10.155307,9.454994 10.155601,9.535833 10.155511,9.585871 10.155582,9.58587 10.155256,9.649766 10.155307,9.676709 10.067847,9.676709 9.862654,9.677414 9.862383,9.596489 9.862383,9.546446 9.862654,9.481582 9.862654,9.454289 9.950409,9.454289" style="fill: white" /><polygon type="contour" points="9.269317,9.535832 9.269317,9.585875 9.268993,9.649508 9.268993,9.676709 8.975346,9.676709 8.975692,9.596489 8.975894,9.591456 8.976441,9.481938 8.976391,9.454994 9.268993,9.454994" style="fill: white" /><polygon type="contour" points="9.268475,9.863226 9.268475,10.055454 9.268554,10.156797 9.181724,10.155698 8.97562,10.156081 8.976004,9.949976 8.974906,9.863146 9.06371,9.863146" style="fill: white" /><polygon type="contour" points="9.649507,9.862709 9.676707,9.862709 9.676707,10.156354 9.595869,10.156011 9.590978,10.155814 9.481936,10.155257 9.454993,10.156354 9.454993,9.862708 9.535213,9.862385 9.585257,9.862385" style="fill: white" /><polygon type="contour" points="9.676257,9.535833 9.676257,9.585875 9.676707,9.649509 9.676707,9.676709 9.595868,9.676259 9.545827,9.676259 9.482192,9.676709 9.454993,9.676709 9.455444,9.596488 9.455444,9.546445 9.454993,9.482194 9.454993,9.454994 9.535213,9.455446 9.585257,9.455446 9.649506,9.454994 9.676707,9.454994" style="fill: white" /><polygon type="contour" points="9.677412,9.180243 9.677412,9.269048 9.595868,9.269319 9.545827,9.269319 9.482193,9.268995 9.454993,9.268995 9.454993,8.976394 9.535214,8.976101 9.58525,8.97619 9.58525,8.97612 9.649765,8.976444 9.676707,8.975348" style="fill: white" /><polygon type="contour" points="9.949974,8.976005 10.156079,8.975622 10.155861,9.179814 10.155911,9.26839 10.0664,9.26839 9.863224,9.268476 9.863224,9.076249 9.863144,8.974908" style="fill: white" /><polygon type="contour" points="10.15602,7.936308 10.15602,8.042709 10.156024,8.141631 10.156024,8.210332 9.950452,8.210523 9.863037,8.210476 9.863037,8.178561 9.863224,8.103603 9.863254,8.045229 9.863026,7.988441 9.863477,7.984255 9.864402,7.9339 10.004432,7.933874" style="fill: white" /><polygon type="contour" points="10.068196,8.446003 10.15531,8.444747 10.155363,8.523879 10.155363,8.638906 10.155215,8.712378 10.155215,8.744704 9.952102,8.744704 9.862667,8.744589 9.862793,8.657498 9.862793,8.524424 9.862654,8.444475" style="fill: white" /><polygon type="contour" points="10.474357,8.445284 10.590478,8.449924 10.590479,8.446021 10.657991,8.445992 10.68571,8.445992 10.685681,8.524862 10.685681,8.541223 10.682084,8.541223 10.68602,8.648111 10.686418,8.657346 10.686955,8.744416 10.607823,8.744605 10.474356,8.744605 10.46132,8.744416 10.386997,8.744704 10.387097,8.657345 10.387097,8.523878 10.387285,8.444747" style="fill: white" /><polygon type="contour" points="10.606839,8.104962 10.68571,8.105099 10.688294,8.180313 10.688294,8.211509 10.660196,8.211509 10.492797,8.210867 10.492798,8.211242 10.474356,8.21124 10.386997,8.211386 10.386997,8.104714 10.474356,8.104962 10.544459,8.104641" style="fill: white" /><polygon type="contour" points="11.196294,8.062827 11.195363,8.21033 10.921371,8.21033 10.921371,8.103638 10.92134,8.075067 10.921569,8.051941 10.921482,7.992301 10.922077,7.988265 10.923608,7.93366 11.08341,7.934944 11.200851,7.930852" style="fill: white" /><polygon type="contour" points="11.02674,8.524862 11.026545,8.638952 11.026713,8.638953 11.026742,8.657346 11.026988,8.744704 10.920317,8.744704 10.920462,8.657345 10.920394,8.648111 10.92116,8.541223 10.92046,8.541223 10.920408,8.47371 10.920408,8.445992 11.026602,8.445992" style="fill: white" /><polygon type="contour" points="11.195274,9.181726 11.195316,9.268556 10.921334,9.268556 10.921288,9.181725 10.92145,8.975839 11.004137,8.975839 11.19515,8.975622" style="fill: white" /><polygon type="contour" points="11.026388,9.454994 11.026496,9.480038 11.026277,9.585886 11.026359,9.585886 11.026319,9.596489 11.026389,9.676709 10.995004,9.676709 10.920249,9.678329 10.920084,9.596489 10.920022,9.566622 10.920193,9.48022 10.920248,9.453374 10.951952,9.453374" style="fill: white" /><polygon type="contour" points="11.136709,9.863226 11.195398,9.863226 11.195193,10.065179 11.19515,10.156081 10.919922,10.156081 10.919922,9.950452 10.921225,9.863039 11.003651,9.863039" style="fill: white" /><polygon type="contour" points="10.685697,10.068197 10.685716,10.155311 10.657641,10.155311 10.590483,10.155365 10.474357,10.155365 10.386997,10.155218 10.387008,9.949483 10.386072,9.862656 10.473587,9.862795 10.607278,9.862795 10.687227,9.862656" style="fill: white" /><polygon type="contour" points="10.474357,10.387099 10.590484,10.387099 10.657641,10.387288 10.685716,10.387288 10.685685,10.474358 10.685681,10.492801 10.685639,10.492801 10.68571,10.657993 10.68571,10.685712 10.606839,10.685683 10.59048,10.685683 10.59048,10.685661 10.474356,10.685687 10.387285,10.685718 10.387097,10.607093 10.387097,10.590486 10.387229,10.590486 10.386997,10.419325 10.386997,10.386999" style="fill: white" /><polygon type="contour" points="10.155363,10.474358 10.155363,10.590486 10.15531,10.657642 10.15531,10.685718 9.949,10.685718 9.86276,10.6857 9.862793,10.60728 9.862793,10.590476 9.862961,10.590476 9.862667,10.419547 9.862667,10.387116 9.952101,10.386999 10.155215,10.386999" style="fill: white" /><polygon type="contour" points="9.676707,10.387016 9.676601,10.474205 9.676601,10.590476 9.676491,10.657342 9.676491,10.6857 9.595868,10.685446 9.542909,10.68546 9.481709,10.685712 9.455208,10.6857 9.4551,10.607279 9.4551,10.590475 9.45524,10.590475 9.454993,10.418401 9.454993,10.387016 9.535213,10.387279 9.545832,10.387235 9.545832,10.387437 9.649765,10.386903" style="fill: white" /><polygon type="contour" points="9.269031,10.387116 9.268907,10.474205 9.268907,10.60728 9.269046,10.687228 9.0635,10.6857 8.976388,10.686957 8.976337,10.607825 8.976337,10.492797 8.976484,10.419326 8.976484,10.386999 9.179596,10.386999" style="fill: white" /><polygon type="contour" points="8.211971,10.474358 8.207374,10.59048 8.211241,10.590482 8.211293,10.657993 8.211293,10.685712 8.105097,10.685712 8.10496,10.606841 8.104637,10.544749 8.104958,10.474358 8.104712,10.386999 8.212669,10.386999" style="fill: white" /><polygon type="contour" points="8.21166,9.949976 8.211778,10.156081 7.93655,10.156081 7.936427,9.949976 7.936384,9.863146 8.210367,9.863146" style="fill: white" /><polygon type="contour" points="8.211615,9.535832 8.211694,9.573499 8.211347,9.650119 8.211292,9.676709 8.105101,9.676709 8.105011,9.651666 8.105415,9.546443 8.105264,9.546443 8.105296,9.535832 8.105101,9.454994 8.136695,9.454994 8.211451,9.453374" style="fill: white" /><polygon type="contour" points="8.178926,8.975623 8.211778,8.975623 8.21166,9.181725 8.210367,9.268556 8.128489,9.268556 7.99499,9.268476 7.936302,9.268476 7.936506,9.066523 7.93655,8.975622 7.988041,8.975622" style="fill: white" /><polygon type="contour" points="8.211293,8.47371 8.211241,8.541223 8.206678,8.541223 8.211671,8.64811 8.211971,8.657345 8.212669,8.744704 8.104712,8.744704 8.104959,8.657345 8.104637,8.586955 8.10496,8.524862 8.105097,8.445992 8.211293,8.445992" style="fill: white" /><polygon type="contour" points="8.744603,8.523878 8.744603,8.541219 8.744471,8.541219 8.744702,8.712378 8.744702,8.744704 8.657343,8.744605 8.541217,8.744605 8.474058,8.744416 8.445984,8.744416 8.446015,8.657345 8.446044,8.64811 8.446019,8.638904 8.44606,8.638904 8.44599,8.47371 8.44599,8.445992 8.52486,8.446021 8.541221,8.446021 8.541221,8.449924 8.657344,8.445283 8.744415,8.444747" style="fill: white" /><polygon type="contour" points="8.657344,8.104962 8.744702,8.104714 8.744702,8.211386 8.657343,8.21124 8.648109,8.211187 8.638902,8.211242 8.638902,8.211165 8.473709,8.211295 8.44599,8.211295 8.44599,8.105099 8.52486,8.104961 8.587242,8.104641" style="fill: white" /><polygon type="contour" points="9.267298,7.9339 9.268671,7.988441 9.268671,8.040481 9.268443,8.045229 9.268475,8.103602 9.268661,8.178561 9.268661,8.210476 9.063916,8.210476 8.975621,8.210523 8.975621,8.178927 8.97568,8.042709 8.97568,7.936308 9.127267,7.933874" style="fill: white" /><polygon type="contour" points="9.585259,8.105419 9.585259,8.105267 9.595868,8.105299 9.676707,8.105103 9.676707,8.211294 9.595869,8.211618 9.558174,8.211696 9.481582,8.211348 9.454993,8.211294 9.454993,8.105103 9.480035,8.105013" style="fill: white" /><polygon type="contour" points="9.535213,8.446258 9.588202,8.446243 9.64999,8.445992 9.676491,8.446003 9.676601,8.524424 9.676601,8.541228 9.676461,8.541229 9.676707,8.713302 9.676707,8.744689 9.595868,8.744424 9.58525,8.744467 9.58525,8.744262 9.481935,8.744801 9.454993,8.745734 9.4551,8.658116 9.4551,8.638964 9.455254,8.638963 9.454993,8.473694 9.454993,8.445238" style="fill: white" /><polygon type="contour" points="9.26894,8.446003 9.268907,8.524424 9.268907,8.541229 9.268723,8.541229 9.269046,8.713089 9.269046,8.74563 9.182218,8.744693 8.976484,8.744704 8.976337,8.657345 8.976337,8.541218 8.976388,8.474061 8.976388,8.444747 9.182699,8.444747" style="fill: white" /><polygon type="contour" points="9.179812,8.975839 9.268388,8.975791 9.268388,9.0653 9.268475,9.268476 9.078518,9.268476 8.975789,9.26839 8.975838,9.179814 8.97562,8.975622" style="fill: white" /><polygon type="contour" points="8.744691,9.18222 8.745628,9.269048 8.658113,9.268909 8.524423,9.268909 8.446001,9.268941 8.446001,9.063503 8.445984,8.97639 8.474059,8.97639 8.541217,8.976339 8.657344,8.976339 8.745943,8.976107" style="fill: white" /><polygon type="contour" points="8.744831,9.535833 8.744287,9.551656 8.7448,9.649765 8.744687,9.676709 8.670581,9.676494 8.657496,9.676604 8.541227,9.676604 8.47436,9.676494 8.446001,9.676494 8.446256,9.596489 8.446241,9.5435 8.44599,9.48171 8.446001,9.455209 8.524422,9.455101 8.658113,9.455101 8.671623,9.455209 8.745733,9.454994" style="fill: white" /><polygon type="contour" points="8.744691,9.949484 8.745943,10.155597 8.657344,10.155365 8.541217,10.155365 8.474058,10.155311 8.445984,10.155311 8.445984,9.949002 8.446001,9.862762 8.524422,9.862795 8.541227,9.862795 8.541227,9.862978 8.713087,9.862656 8.744579,9.862656" style="fill: white" /><polygon type="contour" points="8.744603,10.474359 8.744603,10.607826 8.744415,10.686957 8.657344,10.68642 8.648109,10.686022 8.541222,10.682086 8.54122,10.685683 8.473708,10.685712 8.44599,10.685712 8.446019,10.606841 8.446019,10.590482 8.44604,10.590482 8.446014,10.474358 8.445984,10.387288 8.524609,10.387099 8.657343,10.387099 8.670379,10.387288 8.744702,10.386999" style="fill: white" /><polygon type="contour" points="8.541221,10.920462 8.541221,10.921162 8.648109,10.920396 8.657343,10.920464 8.744702,10.920318 8.744702,11.02699 8.657343,11.026741 8.638952,11.026713 8.638952,11.026546 8.52486,11.026742 8.44599,11.026605 8.443406,10.951391 8.443406,10.920195 8.471503,10.920195" style="fill: white" /><polygon type="contour" points="8.210328,11.028065 8.210359,11.056636 8.210131,11.079761 8.210218,11.139402 8.209623,11.143439 8.208093,11.198044 8.04829,11.19676 7.930849,11.200852 7.935407,11.068875 7.936338,10.921373 8.210328,10.921373" style="fill: white" />
</svg>
