<svg width="19.131698" height="19.131699">
<polygon type="contour" points="9.567665,9.228104 9.70947,9.231518 9.722463,9.232272 9.726408,9.23393 9.753619,9.236989 9.85773,9.245258 9.883651,9.248053 9.892394,9.354661 9.895192,9.380932 9.898242,9.405339 9.899876,9.411726 9.899976,9.414276 9.903519,9.561837 9.903765,9.566157 9.903676,9.567617 9.900431,9.709008 9.899876,9.719978 9.898241,9.726364 9.895193,9.75077 9.892394,9.777043 9.883651,9.883652 9.781412,9.891718 9.753619,9.894715 9.726408,9.897774 9.723162,9.899432 9.70947,9.900185 9.567665,9.903598 9.565501,9.903757 9.561886,9.90352 9.417417,9.899933 9.409237,9.899431 9.407977,9.899291 9.405292,9.897775 9.37808,9.894715 9.273969,9.886446 9.24805,9.883652 9.239307,9.777043 9.236508,9.75077 9.233459,9.726364 9.231851,9.719951 9.231498,9.713225 9.228101,9.569072 9.227943,9.566202 9.228102,9.563286 9.231498,9.418477 9.231825,9.411726 9.233459,9.405339 9.236508,9.380932 9.239306,9.354661 9.24805,9.248053 9.350287,9.239987 9.37808,9.236989 9.405292,9.233929 9.409236,9.232273 9.559352,9.228339 9.565545,9.227945" style="fill: white" />
</svg>
