<svg width="19.131698" height="19.131699">
<polygon type="contour" points="10.427111,8.928289 10.425603,9.008807 10.365625,9.008807 10.199744,9.008865 10.122957,9.008746 10.122957,8.875988 10.123088,8.738684 10.123196,8.735143 10.123196,8.720439 10.123683,8.705513 10.282674,8.70164 10.431424,8.700278" style="fill: white" /><polygon type="contour" points="10.25868,9.211142 10.25868,9.214034 10.258679,9.216908 10.259085,9.300504 10.158059,9.300504 10.122255,9.30032 10.122135,9.216909 10.122141,9.210939 10.122316,9.150963 10.122316,9.128303 10.156932,9.128303 10.259096,9.12819" style="fill: white" /><polygon type="contour" points="10.172406,9.420153 10.195857,9.420131 10.247566,9.420188 10.327618,9.420602 10.425809,9.420602 10.426103,9.48706 10.427205,9.566202 10.42652,9.678375 10.425809,9.711102 10.122316,9.711102 10.122316,9.420423 10.122896,9.419902" style="fill: white" /><polygon type="contour" points="10.365625,10.122898 10.425603,10.122898 10.427111,10.203415 10.431424,10.431426 10.282674,10.430064 10.123683,10.42619 10.123274,10.412645 10.123196,10.411263 10.123088,10.393019 10.122956,10.255715 10.122838,10.12284 10.199743,10.12284" style="fill: white" /><polygon type="contour" points="10.22328,9.831198 10.259085,9.831198 10.258678,9.914796 10.25868,9.917647 10.25868,9.920561 10.259096,10.003514 10.156932,10.003401 10.122315,10.003401 10.122141,9.920766 10.122141,9.914532 10.122316,9.8539 10.122316,9.831062" style="fill: white" /><polygon type="contour" points="9.711101,10.003514 9.420416,10.003514 9.4206,9.920562 9.4206,9.831198 9.711101,9.831198" style="fill: white" /><polygon type="contour" points="9.711353,10.122897 9.711101,10.172408 9.711101,10.425589 9.665492,10.425599 9.646057,10.426173 9.565501,10.427342 9.518258,10.427036 9.485331,10.426173 9.46599,10.425599 9.4206,10.425589 9.4206,10.156935 9.420422,10.122318 9.711101,10.122318" style="fill: white" /><polygon type="contour" points="9.980183,10.122266 10.003512,10.122266 10.003512,10.259097 9.920559,10.258683 9.917645,10.258683 9.914793,10.258682 9.831196,10.259087 9.83106,10.156935 9.83106,10.122318 9.914529,10.122143 9.92056,10.122138" style="fill: white" /><polygon type="contour" points="10.003678,9.914733 10.003678,9.920561 10.003512,9.980186 10.003512,10.003514 9.92056,10.00368 9.914731,10.00368 9.830884,10.003514 9.83096,9.920561 9.830987,9.914796 9.831197,9.854822 9.831197,9.831198 9.914793,9.830989 9.920559,9.830962 9.980366,9.830886 10.003512,9.830886" style="fill: white" /><polygon type="contour" points="10.003512,9.711102 9.831197,9.711102 9.831197,9.420602 9.980366,9.420602 10.003512,9.420418" style="fill: white" /><polygon type="contour" points="9.711101,9.711102 9.4206,9.711102 9.4206,9.420602 9.711101,9.420602" style="fill: white" /><polygon type="contour" points="9.711101,9.211142 9.711101,9.300504 9.4206,9.300504 9.4206,9.12819 9.711285,9.12819" style="fill: white" /><polygon type="contour" points="9.914794,9.128007 9.920559,9.128023 9.980184,9.12819 10.003512,9.12819 10.003678,9.211142 10.003678,9.216971 10.003511,9.300635 9.920559,9.300742 9.896972,9.300819 9.831197,9.300504 9.830987,9.216908 9.830987,9.21116 9.831382,9.127998" style="fill: white" /><polygon type="contour" points="10.003398,8.974769 10.003398,9.009387 9.920764,9.009562 9.91453,9.009562 9.853898,9.009387 9.831238,9.009387 9.831382,8.908421 9.831197,8.872617 9.914794,8.873019 9.917645,8.873018 9.920559,8.873018 10.003512,8.872607" style="fill: white" /><polygon type="contour" points="9.613443,8.704667 9.646369,8.705531 9.66571,8.706103 9.711101,8.706114 9.711101,8.974769 9.711279,9.009387 9.4206,9.009387 9.4206,8.706114 9.466208,8.706104 9.485643,8.70553 9.565983,8.704362" style="fill: white" /><polygon type="contour" points="8.849026,8.70164 9.008018,8.705513 9.008426,8.719058 9.008505,8.72044 9.008613,8.738684 9.008744,8.875988 9.008863,9.008865 8.931956,9.008865 8.766073,9.008807 8.706095,9.008807 8.704589,8.92829 8.700276,8.700278" style="fill: white" /><polygon type="contour" points="9.21114,8.873018 9.214032,8.873018 9.216906,8.873019 9.300502,8.872617 9.300502,9.009448 9.216906,9.009568 9.210936,9.009562 9.150962,9.009387 9.128302,9.009387 9.128302,8.974769 9.128188,8.872607" style="fill: white" /><polygon type="contour" points="9.300817,9.12819 9.30074,9.211142 9.300713,9.216908 9.300502,9.276881 9.300502,9.300504 9.216906,9.300715 9.21114,9.300742 9.151333,9.300819 9.128188,9.300819 9.128022,9.216971 9.128022,9.211142 9.128188,9.151518 9.128188,9.12819 9.211141,9.128024 9.216969,9.128024" style="fill: white" /><polygon type="contour" points="9.009565,9.211142 9.00956,9.217173 9.009385,9.277804 9.009385,9.300643 8.90842,9.300504 8.872615,9.300504 8.873018,9.216909 8.873017,9.214034 8.873017,9.211143 8.872604,9.12819 9.009437,9.12819" style="fill: white" /><polygon type="contour" points="9.009385,9.83124 9.00956,9.914531 9.00956,9.920765 9.009385,9.98074 9.009385,10.003401 8.974768,10.003401 8.872604,10.003514 8.873017,9.920562 8.873017,9.917647 8.873018,9.914796 8.872615,9.831198 8.974767,9.831062" style="fill: white" /><polygon type="contour" points="9.009385,9.711279 9.008804,9.711802 8.959293,9.71155 8.935842,9.711572 8.884133,9.711515 8.804081,9.711102 8.705891,9.711102 8.705597,9.644963 8.704495,9.566202 8.705179,9.453487 8.705891,9.420602 9.009385,9.420602" style="fill: white" /><polygon type="contour" points="9.300502,9.711102 9.151333,9.711102 9.128188,9.711286 9.128188,9.420602 9.300502,9.420602" style="fill: white" /><polygon type="contour" points="9.235041,9.831198 9.300502,9.831198 9.300713,9.914796 9.300713,9.920544 9.300318,10.003706 9.216906,10.003697 9.21114,10.003679 9.151516,10.003514 9.128188,10.003514 9.128022,9.920562 9.128005,9.914796 9.127996,9.831383 9.211159,9.830989" style="fill: white" /><polygon type="contour" points="9.276877,10.122257 9.300318,10.122257 9.300318,10.223282 9.300502,10.259087 9.216907,10.258682 9.214032,10.258683 9.21114,10.258683 9.128188,10.259097 9.128188,10.122265 9.21114,10.122138 9.216907,10.122137" style="fill: white" /><polygon type="contour" points="9.008744,10.122959 9.008744,10.255715 9.008613,10.393019 9.008505,10.396436 9.008505,10.411264 9.008018,10.426191 8.849026,10.430063 8.700276,10.431426 8.704589,10.203414 8.706095,10.122898 8.766073,10.122898 8.931955,10.12284" style="fill: white" />
</svg>
