<svg width="19.131698" height="19.131699">
<polygon type="contour" points="10.713676,11.021097 10.646032,11.021214 10.61844,11.021167 10.61844,10.94355 10.61845,10.915015 10.676352,10.914972 10.713676,10.914972" style="fill: white" /><polygon type="contour" points="11.189936,10.993108 11.194793,11.194794 11.088027,11.191074 10.918133,11.19244 10.915873,11.130094 10.915873,11.069823 10.915966,11.066688 10.915769,11.046853 10.915796,11.022349 10.915796,10.915798 11.081517,10.915633 11.189478,10.915633" style="fill: white" /><polygon type="contour" points="11.021213,10.646033 11.021095,10.713678 10.979654,10.713678 10.914786,10.715894 10.914786,10.678245 10.915014,10.618452 10.990589,10.618452 11.021166,10.618442" style="fill: white" /><polygon type="contour" points="11.021214,10.422683 11.021166,10.453691 10.943549,10.453691 10.915014,10.453774 10.913783,10.422684 10.913186,10.347985 11.021424,10.347985" style="fill: white" /><polygon type="contour" points="8.043673,7.94063 8.213567,7.939264 8.215827,8.001609 8.215827,8.061379 8.215735,8.065016 8.21593,8.08485 8.215903,8.109354 8.215903,8.215904 8.050182,8.216071 7.942222,8.216071 7.941764,8.138595 7.936907,7.93691" style="fill: white" /><polygon type="contour" points="8.217411,8.693452 8.217916,8.709019 8.218514,8.783718 8.110276,8.783718 8.110486,8.709019 8.110345,8.678013 8.187961,8.678013 8.216686,8.677931" style="fill: white" /><polygon type="contour" points="8.216731,8.45535 8.216686,8.513253 8.14111,8.513253 8.110345,8.513263 8.110488,8.48567 8.110606,8.418026 8.216731,8.418026" style="fill: white" /><polygon type="contour" points="8.513261,8.187963 8.51325,8.216688 8.455348,8.216732 8.418024,8.216732 8.418024,8.110607 8.485668,8.11049 8.513261,8.110347" style="fill: white" /><polygon type="contour" points="8.485668,8.418051 8.513251,8.418051 8.513251,8.485671 8.513261,8.513263 8.443812,8.513263 8.418049,8.513253 8.418024,8.455349 8.418024,8.418026" style="fill: white" /><polygon type="contour" points="8.513261,8.678013 8.513261,8.755116 8.513243,8.783633 8.455817,8.783471 8.418015,8.783471 8.418042,8.709019 8.418091,8.693451 8.418049,8.677931 8.485669,8.677931" style="fill: white" /><polygon type="contour" points="8.783717,8.740758 8.783717,8.783718 8.709019,8.783633 8.677933,8.783633 8.677933,8.709019 8.678012,8.678013 8.755115,8.678013 8.783631,8.677936" style="fill: white" /><polygon type="contour" points="8.783631,8.484012 8.783631,8.513245 8.709018,8.513245 8.678012,8.513263 8.678012,8.443814 8.677928,8.418051 8.709018,8.416809 8.78347,8.416349" style="fill: white" /><polygon type="contour" points="8.783717,8.216809 8.709019,8.216684 8.693449,8.216595 8.677928,8.216688 8.677928,8.141113 8.678011,8.110347 8.709019,8.110489 8.783717,8.110277" style="fill: white" /><polygon type="contour" points="9.272699,7.939419 9.274181,7.998255 9.274181,8.054393 9.273936,8.059516 9.273962,8.109307 9.274121,8.173245 9.274121,8.216008 9.099478,8.216008 8.981169,8.216071 8.981169,8.173734 8.981219,8.05726 8.981219,7.942032 9.14538,7.939396" style="fill: white" /><polygon type="contour" points="9.67395,8.678012 9.69855,8.678032 9.69864,8.741442 9.69864,8.78365 9.629686,8.783425 9.607243,8.783517 9.607243,8.783083 9.469293,8.783801 9.433059,8.785056 9.43315,8.710319 9.43315,8.678032 9.501486,8.677896 9.581883,8.677825" style="fill: white" /><polygon type="contour" points="9.662061,9.857298 9.69864,9.857298 9.69864,10.151304 9.629687,10.151011 9.523928,10.146755 9.523928,10.150107 9.469293,10.149828 9.433059,10.151304 9.433059,9.857298 9.501485,9.857022 9.607256,9.857022" style="fill: white" /><polygon type="contour" points="9.274681,9.502014 9.274681,9.607785 9.274404,9.662063 9.274404,9.698643 8.980396,9.698643 8.980692,9.630216 8.984947,9.524459 8.981595,9.52446 8.98187,9.469294 8.981803,9.43306 9.274404,9.43306" style="fill: white" /><polygon type="contour" points="9.273962,9.857739 9.273962,10.065238 9.27403,10.151681 9.157401,10.150206 8.981168,10.150533 8.981496,9.974297 8.980022,9.85767 9.0993,9.85767" style="fill: white" /><polygon type="contour" points="8.783706,9.973877 8.784777,10.150119 8.709019,10.149921 8.677933,10.149921 8.677933,9.943371 8.67803,9.857371 8.741257,9.857253 8.783556,9.857253" style="fill: white" /><polygon type="contour" points="8.216686,10.618452 8.216731,10.676354 8.216731,10.713678 8.110606,10.713678 8.110487,10.646033 8.110344,10.618442 8.187961,10.618442" style="fill: white" /><polygon type="contour" points="8.217916,10.422684 8.216686,10.453774 8.14111,10.453774 8.110345,10.453691 8.110487,10.422683 8.110276,10.347985 8.218514,10.347985" style="fill: white" /><polygon type="contour" points="8.21765,9.974297 8.217752,10.150533 7.942239,10.150533 7.942133,9.974298 7.942076,9.85767 8.215914,9.85767" style="fill: white" /><polygon type="contour" points="8.484931,9.857371 8.513261,9.857371 8.513261,10.062898 8.513243,10.149921 8.455818,10.149875 8.418015,10.149875 8.418015,9.973465 8.418038,9.857343" style="fill: white" /><polygon type="contour" points="8.784285,9.502014 8.780656,9.607778 8.783515,9.607774 8.7838,9.662408 8.783649,9.698643 8.720438,9.698459 8.709275,9.698553 8.67803,9.698553 8.677894,9.630215 8.677823,9.54969 8.678012,9.457749 8.67803,9.433151 8.710316,9.433151 8.721841,9.433244 8.785055,9.43306" style="fill: white" /><polygon type="contour" points="8.513456,9.502014 8.513482,9.601061 8.513261,9.673954 8.513261,9.698553 8.456225,9.698459 8.418038,9.698459 8.418256,9.630215 8.418249,9.607784 8.418586,9.607784 8.418024,9.468928 8.418038,9.433243 8.48493,9.433151 8.513261,9.433151" style="fill: white" /><polygon type="contour" points="8.21698,9.502015 8.217146,9.581464 8.216777,9.662883 8.216704,9.698643 8.110585,9.698643 8.110463,9.664962 8.111003,9.52444 8.110683,9.52444 8.110751,9.502014 8.110585,9.43306 8.153074,9.43306 8.216839,9.431678" style="fill: white" /><polygon type="contour" points="8.21765,9.157404 8.215914,9.274032 8.105939,9.274032 7.992065,9.273963 7.942006,9.273963 7.94218,9.101702 7.942239,8.98117 8.217752,8.98117" style="fill: white" /><polygon type="contour" points="8.513243,9.188331 8.513261,9.274333 8.484931,9.274333 8.418038,9.27436 8.418038,9.099123 8.418015,8.981826 8.455818,8.981826 8.513243,8.981783" style="fill: white" /><polygon type="contour" points="8.783706,9.157826 8.784965,9.274451 8.710316,9.274333 8.67803,9.274333 8.67803,9.068804 8.677933,8.981783 8.709018,8.981783 8.784777,8.981584" style="fill: white" /><polygon type="contour" points="9.155766,8.981354 9.273888,8.981291 9.273888,9.100658 9.273962,9.273963 9.068916,9.273963 8.981289,9.273889 8.981354,9.155769 8.981168,8.98117" style="fill: white" /><polygon type="contour" points="9.274331,8.678032 9.274449,8.741259 9.274449,8.784967 9.157823,8.783708 8.981907,8.783718 8.981781,8.709019 8.981781,8.677936 9.18833,8.677936" style="fill: white" /><polygon type="contour" points="9.274359,8.41804 9.274331,8.484933 9.274331,8.513263 9.068802,8.513263 8.981781,8.513245 8.981824,8.45582 8.981824,8.416349 9.158236,8.416349" style="fill: white" /><polygon type="contour" points="9.501486,8.418258 9.523919,8.418251 9.523919,8.418588 9.662772,8.418026 9.698456,8.41804 9.69855,8.484932 9.69855,8.513263 9.629687,8.513457 9.530671,8.513483 9.457748,8.513263 9.43315,8.513263 9.433059,8.455656 9.433059,8.417388" style="fill: white" /><polygon type="contour" points="9.607262,8.111008 9.607263,8.110685 9.629687,8.110753 9.69864,8.110586 9.69864,8.216705 9.629686,8.216982 9.550239,8.217148 9.468819,8.216779 9.433059,8.216705 9.433059,8.110587 9.466738,8.110465" style="fill: white" /><polygon type="contour" points="10.15048,7.942032 10.15048,8.05726 10.150484,8.141843 10.150484,8.215907 9.974705,8.216071 9.857577,8.216008 9.857577,8.173245 9.857735,8.109307 9.857761,8.059515 9.857517,7.998255 9.858003,7.993739 9.859001,7.939419 9.986319,7.939396" style="fill: white" /><polygon type="contour" points="10.422681,8.110489 10.453689,8.110347 10.453689,8.187963 10.453772,8.216688 10.422681,8.216684 10.347983,8.216809 10.347983,8.110277" style="fill: white" /><polygon type="contour" points="10.646032,8.11049 10.713676,8.110607 10.715892,8.175116 10.715892,8.216917 10.678243,8.216917 10.61845,8.216688 10.61845,8.141113 10.61844,8.110347" style="fill: white" /><polygon type="contour" points="11.19065,8.056889 11.189646,8.215905 10.915796,8.215905 10.915796,8.109354 10.915769,8.08485 10.915966,8.065016 10.915873,8.001608 10.916506,7.997316 10.918133,7.939264 11.088027,7.94063 11.194793,7.93691" style="fill: white" /><polygon type="contour" points="11.189567,9.157403 11.189623,9.274032 10.915786,9.274032 10.915724,9.157404 10.915863,8.981355 11.026132,8.981355 11.189462,8.98117" style="fill: white" /><polygon type="contour" points="10.422681,8.981783 10.453767,8.981783 10.453767,9.188332 10.453671,9.274333 10.390443,9.274451 10.346735,9.274451 10.347993,9.157826 10.346922,8.981584" style="fill: white" /><polygon type="contour" points="10.675881,8.981826 10.715353,8.981826 10.716673,9.157825 10.714964,9.274451 10.646768,9.274333 10.61844,9.274333 10.61844,9.068804 10.618457,8.981783" style="fill: white" /><polygon type="contour" points="11.021166,8.678013 11.021214,8.709019 11.021424,8.783718 10.914894,8.783718 10.915019,8.70902 10.914903,8.693451 10.915014,8.677931 10.990588,8.677931" style="fill: white" /><polygon type="contour" points="11.021213,8.48567 11.021166,8.513263 10.943549,8.513263 10.915013,8.513253 10.91497,8.45535 10.91497,8.418026 11.021095,8.418026" style="fill: white" /><polygon type="contour" points="10.713651,8.48567 10.713651,8.513253 10.646031,8.513253 10.61844,8.513263 10.61844,8.443814 10.61845,8.418051 10.676353,8.418026 10.713676,8.418026" style="fill: white" /><polygon type="contour" points="10.714222,8.693451 10.714894,8.709019 10.715353,8.783471 10.64769,8.783633 10.618457,8.783633 10.618457,8.709019 10.61844,8.678013 10.687887,8.678013 10.713651,8.677931" style="fill: white" /><polygon type="contour" points="10.453689,8.678013 10.453689,8.755116 10.453767,8.783633 10.422681,8.783633 10.411534,8.783471 10.347983,8.783718 10.348068,8.70902 10.348068,8.677936 10.422681,8.677936" style="fill: white" /><polygon type="contour" points="10.422681,8.416809 10.453772,8.418051 10.453772,8.485671 10.453689,8.513263 10.376585,8.513263 10.348068,8.513245 10.348068,8.484012 10.348229,8.416349" style="fill: white" /><polygon type="contour" points="10.149919,8.484012 10.149919,8.513245 9.943371,8.513245 9.857369,8.513263 9.857369,8.484933 9.85725,8.416737 10.032575,8.41804 10.149874,8.416349" style="fill: white" /><polygon type="contour" points="10.149793,8.740759 10.149793,8.783718 9.976116,8.783718 9.857261,8.783565 9.857369,8.709277 9.857369,8.678032 10.062896,8.678032 10.149919,8.677936" style="fill: white" /><polygon type="contour" points="9.974297,8.981497 10.150531,8.98117 10.150346,9.155769 10.150412,9.273889 10.031041,9.273889 9.857736,9.273963 9.857736,9.066466 9.857668,8.980023" style="fill: white" /><polygon type="contour" points="9.699242,9.155172 9.699242,9.274451 9.629686,9.274682 9.523917,9.274682 9.469639,9.274406 9.433059,9.274406 9.433059,8.981805 9.501485,8.981554 9.607243,8.981748 9.607243,8.981596 9.662407,8.981872 9.69864,8.980399" style="fill: white" /><polygon type="contour" points="9.698256,9.502015 9.698256,9.524446 9.697666,9.524446 9.69864,9.662063 9.69864,9.698643 9.629687,9.698259 9.607257,9.698259 9.607257,9.697669 9.469638,9.698643 9.433059,9.698643 9.433444,9.630216 9.433444,9.607785 9.434029,9.607785 9.433059,9.469641 9.433059,9.43306 9.501485,9.433446 9.523917,9.433446 9.523917,9.434032 9.66206,9.43306 9.69864,9.43306" style="fill: white" /><polygon type="contour" points="10.149896,9.433059 10.150147,9.502014 10.149953,9.607774 10.150106,9.607774 10.149828,9.662408 10.149896,9.698643 10.032277,9.698643 9.85725,9.699244 9.857019,9.630215 9.857019,9.524446 9.85725,9.469118 9.85725,9.432459 9.975122,9.432459" style="fill: white" /><polygon type="contour" points="10.421384,9.433151 10.453671,9.433151 10.453806,9.502014 10.453877,9.582714 10.453689,9.673954 10.453671,9.698553 10.421384,9.698553 10.409858,9.698459 10.346646,9.698643 10.347415,9.630215 10.351043,9.524457 10.348185,9.524459 10.3479,9.469294 10.346646,9.43306 10.409856,9.43306" style="fill: white" /><polygon type="contour" points="10.713444,9.502014 10.713451,9.524453 10.71311,9.524453 10.713676,9.662775 10.713661,9.698459 10.646769,9.698553 10.61844,9.698553 10.618243,9.630215 10.618216,9.53118 10.61844,9.457749 10.61844,9.433151 10.676046,9.43306 10.714314,9.43306" style="fill: white" /><polygon type="contour" points="11.020833,9.43306 11.020977,9.46674 11.020687,9.607807 11.020859,9.607807 11.020774,9.630215 11.020834,9.698643 10.978625,9.698643 10.914861,9.700024 10.91472,9.630216 10.914587,9.567198 10.914785,9.46765 10.91486,9.431678 10.957339,9.431678" style="fill: white" /><polygon type="contour" points="11.139634,9.857739 11.189695,9.857739 11.18952,10.030001 11.189462,10.150533 10.913948,10.150533 10.913948,9.974706 10.915694,9.857579 11.026136,9.857579" style="fill: white" /><polygon type="contour" points="10.713661,10.032576 10.713685,10.149875 10.675881,10.149875 10.618457,10.149921 10.618457,9.943372 10.61844,9.857371 10.646768,9.857371 10.714964,9.857253" style="fill: white" /><polygon type="contour" points="10.421384,9.857371 10.453671,9.857371 10.453671,10.062898 10.453767,10.149921 10.422681,10.149921 10.347983,10.149795 10.347993,9.973877 10.346735,9.857253" style="fill: white" /><polygon type="contour" points="10.150203,9.974297 10.150531,10.150533 9.974297,10.150206 9.857668,10.151681 9.857668,10.032401 9.857736,9.857739 10.062784,9.857739 10.150269,9.85767" style="fill: white" /><polygon type="contour" points="10.149919,10.618459 10.149874,10.675883 10.149874,10.713687 9.973463,10.713687 9.857341,10.713663 9.857369,10.64677 9.857369,10.618442 10.062896,10.618442" style="fill: white" /><polygon type="contour" points="10.149919,10.422683 10.149919,10.453769 9.94337,10.453769 9.857369,10.453673 9.857261,10.39124 9.857261,10.34814 9.976116,10.347985 10.149793,10.347985" style="fill: white" /><polygon type="contour" points="10.422681,10.34807 10.453767,10.34807 10.453767,10.422683 10.453689,10.453691 10.376584,10.453691 10.348068,10.453769 10.347983,10.390944 10.347983,10.347985" style="fill: white" /><polygon type="contour" points="10.675882,10.348232 10.713685,10.348232 10.713658,10.422683 10.713651,10.453774 10.646031,10.453774 10.61844,10.453691 10.61844,10.376586 10.618457,10.34807" style="fill: white" /><polygon type="contour" points="10.713651,10.618452 10.713676,10.676355 10.713676,10.713678 10.646032,10.713653 10.61845,10.713653 10.61845,10.646033 10.61844,10.618442 10.687887,10.618442" style="fill: white" /><polygon type="contour" points="10.453689,10.687889 10.453772,10.713653 10.422681,10.71366 10.348229,10.713687 10.348068,10.646457 10.348068,10.618459 10.422682,10.618459 10.453689,10.618442" style="fill: white" /><polygon type="contour" points="10.422682,10.913785 10.453772,10.915016 10.453772,10.99059 10.453689,11.021167 10.422681,11.021215 10.347983,11.021426 10.347983,10.913188" style="fill: white" /><polygon type="contour" points="10.150531,10.957968 10.15048,11.074444 10.15048,11.189672 9.986319,11.192308 9.859001,11.192285 9.857517,11.133449 9.857517,11.076837 9.857761,11.071696 9.857736,11.021906 9.857577,10.958174 9.857577,10.915697 10.032221,10.915697 10.150531,10.913951" style="fill: white" /><polygon type="contour" points="9.664051,10.914787 9.700023,10.914863 9.69864,10.978628 9.69864,11.020836 9.66496,11.02098 9.523894,11.020689 9.523894,11.020861 9.501486,11.020776 9.433059,11.020836 9.433059,10.914999 9.501485,10.914723 9.564067,10.914589" style="fill: white" /><polygon type="contour" points="9.67395,10.618442 9.69855,10.618442 9.698456,10.675477 9.698456,10.713663 9.629687,10.713446 9.60725,10.713453 9.60725,10.713112 9.468927,10.713678 9.433243,10.713663 9.43315,10.64677 9.43315,10.618442 9.501485,10.618245 9.600522,10.618218" style="fill: white" /><polygon type="contour" points="9.69864,10.348054 9.69855,10.422426 9.69855,10.453673 9.629686,10.453808 9.548988,10.453879 9.457748,10.45369 9.43315,10.453672 9.433059,10.390261 9.433059,10.348054 9.501486,10.348279 9.523929,10.348187 9.523929,10.348615 9.662407,10.347903" style="fill: white" /><polygon type="contour" points="9.274437,10.34814 9.274331,10.422426 9.274331,10.453673 9.068803,10.453673 8.981781,10.453769 8.981907,10.390945 8.981907,10.347985 9.155582,10.347985" style="fill: white" /><polygon type="contour" points="9.274331,10.64677 9.274449,10.714966 9.099121,10.713663 8.981824,10.715355 8.981781,10.647692 8.981781,10.618459 9.188329,10.618459 9.274331,10.618442" style="fill: white" /><polygon type="contour" points="9.274121,10.915697 9.274121,10.958174 9.273962,11.021906 9.273936,11.071696 9.274181,11.133448 9.273695,11.137965 9.272698,11.192284 9.14538,11.192308 8.981219,11.189671 8.981219,11.074443 8.981215,10.98986 8.981215,10.915796 9.156994,10.915633" style="fill: white" /><polygon type="contour" points="8.783717,11.021426 8.709018,11.021215 8.678012,11.021167 8.678012,10.94355 8.677928,10.915016 8.69345,10.914905 8.709018,10.91502 8.783717,10.914895" style="fill: white" /><polygon type="contour" points="8.783631,10.618459 8.783631,10.647692 8.78347,10.715355 8.709018,10.714895 8.69345,10.714225 8.677928,10.713653 8.677928,10.646033 8.678012,10.618442 8.755115,10.618442" style="fill: white" /><polygon type="contour" points="8.783631,10.422684 8.783631,10.453769 8.709019,10.453769 8.678012,10.453691 8.678012,10.376586 8.677933,10.34807 8.709018,10.34807 8.720165,10.348232 8.783717,10.347985" style="fill: white" /><polygon type="contour" points="8.513243,10.422684 8.513261,10.453691 8.443812,10.453691 8.418049,10.453774 8.418041,10.422683 8.418015,10.348232 8.485246,10.34807 8.513243,10.34807" style="fill: white" /><polygon type="contour" points="8.513261,10.687889 8.513251,10.713653 8.455347,10.713678 8.418024,10.713678 8.418049,10.646034 8.418049,10.618452 8.485669,10.618452 8.513261,10.618442" style="fill: white" /><polygon type="contour" points="8.513251,10.915016 8.513251,10.99059 8.513261,11.021167 8.485668,11.021214 8.418024,11.021097 8.415808,10.956587 8.415808,10.914788 8.453456,10.914788" style="fill: white" /><polygon type="contour" points="8.215903,11.022349 8.21593,11.046853 8.215734,11.066688 8.215827,11.130094 8.215194,11.134386 8.213567,11.19244 8.043673,11.191074 7.936907,11.194794 7.941051,11.074812 7.942054,10.915798 8.215903,10.915798" style="fill: white" />
</svg>
