<svg width="19.131698" height="19.131699">
<polygon type="contour" points="10.351518,8.594164 10.381701,8.598103 10.383676,8.598673 10.413199,8.607203 10.414997,8.60808 10.441899,8.621203 10.443567,8.622388 10.468501,8.640099 10.469949,8.641548 10.491599,8.663201 10.492784,8.664869 10.510499,8.689803 10.511377,8.691602 10.524498,8.718502 10.52507,8.720478 10.533601,8.750002 10.533863,8.75202 10.537801,8.782202 10.537713,8.78422 10.5364,8.814401 10.536006,8.816419 10.530098,8.846602 10.529353,8.848488 10.518201,8.8767 10.517147,8.878456 10.501399,8.904701 10.500083,8.906237 10.480399,8.929201 10.480399,10.202502 10.501399,10.227002 10.502452,10.228757 10.518201,10.255003 10.518946,10.256889 10.530099,10.285102 10.530494,10.287121 10.536401,10.317304 10.536488,10.319321 10.537801,10.349501 10.537537,10.351521 10.533601,10.381701 10.533029,10.383677 10.524499,10.413201 10.523621,10.414999 10.510498,10.441901 10.509314,10.443568 10.491598,10.468503 10.468501,10.4916 10.466832,10.492786 10.441898,10.510501 10.4401,10.511378 10.413199,10.524501 10.411223,10.525072 10.381701,10.533602 10.379681,10.533865 10.349499,10.537803 10.347482,10.537715 10.317301,10.536402 10.315283,10.536008 10.2851,10.530101 10.283213,10.529355 10.255,10.518203 10.253244,10.517149 10.226999,10.5014 10.225464,10.500085 10.202499,10.480402 8.929199,10.480402 8.9047,10.501401 8.902945,10.502453 8.8767,10.518203 8.874812,10.518949 8.8466,10.530101 8.844581,10.530496 8.814399,10.536403 8.812381,10.53649 8.782201,10.537803 8.780181,10.537539 8.749998,10.533602 8.748024,10.533032 8.718501,10.524502 8.716701,10.523623 8.6898,10.510501 8.688133,10.509316 8.663199,10.491601 8.66175,10.490152 8.640099,10.468502 8.638915,10.466835 8.621202,10.441901 8.620323,10.440101 8.607202,10.413201 8.60663,10.411225 8.5981,10.381702 8.597836,10.379682 8.5939,10.349502 8.593987,10.347484 8.5953,10.317303 8.595694,10.315285 8.601601,10.285102 8.602347,10.283215 8.6135,10.255003 8.614553,10.253247 8.6303,10.227001 8.631617,10.225465 8.651301,10.202502 8.651301,8.929202 8.630299,8.904701 8.629246,8.902946 8.6135,8.876701 8.612754,8.874814 8.601602,8.846601 8.601207,8.844583 8.5953,8.8144 8.595211,8.812382 8.5939,8.782203 8.594162,8.780184 8.5981,8.750001 8.598671,8.748026 8.607202,8.718502 8.608079,8.716704 8.621202,8.689802 8.622386,8.688135 8.6401,8.6632 8.641547,8.661753 8.663198,8.6401 8.664866,8.638915 8.689801,8.621202 8.6916,8.620324 8.7185,8.607203 8.720476,8.606632 8.749998,8.598103 8.752018,8.597839 8.7822,8.593902 8.784218,8.593989 8.814399,8.595302 8.816417,8.595696 8.8466,8.601603 8.848487,8.602349 8.8767,8.613502 8.878454,8.614554 8.904699,8.6303 8.906236,8.631618 8.9292,8.651302 10.202499,8.651302 10.227,8.6303 10.228754,8.629248 10.255,8.613502 10.256886,8.612756 10.2851,8.601604 10.287119,8.601208 10.317302,8.595302 10.319319,8.595214 10.3495,8.593902" style="fill: white" />
</svg>
