<svg width="19.131698" height="19.131699">
<polygon type="contour" points="10.405839,10.26181 10.405851,10.290174 10.406754,10.338414 10.408072,10.408074 10.362627,10.407658 10.304855,10.40625 10.296869,10.405896 10.243671,10.405896 10.110646,10.405881 10.110104,10.288349 10.109686,10.269824 10.109426,10.239234 10.109426,10.109428 10.405835,10.109428" style="fill: white" /><polygon type="contour" points="9.711101,10.405413 9.634969,10.405818 9.565501,10.406826 9.444603,10.406042 9.4206,10.405413 9.4206,10.108409 9.711101,10.108409" style="fill: white" /><polygon type="contour" points="9.711101,9.711102 9.4206,9.711102 9.4206,9.420602 9.711101,9.420602" style="fill: white" /><polygon type="contour" points="9.711101,9.98309 9.4206,9.98309 9.4206,9.838499 9.711101,9.838499" style="fill: white" /><polygon type="contour" points="9.926972,10.108258 9.966936,10.108318 9.983088,10.108318 9.983088,10.239021 9.926972,10.238969 9.910727,10.238966 9.894829,10.238965 9.838497,10.239015 9.838497,10.131613 9.838401,10.108315 9.894829,10.108256" style="fill: white" /><polygon type="contour" points="10.131611,9.838499 10.239013,9.838499 10.238963,9.894832 10.238965,9.91073 10.238967,9.926974 10.239018,9.98309 10.108316,9.98309 10.108256,9.926974 10.108253,9.894833 10.108313,9.854932 10.108313,9.838403" style="fill: white" /><polygon type="contour" points="9.983382,9.894485 9.983382,9.926974 9.983088,9.966938 9.983088,9.98309 9.926972,9.983384 9.894829,9.983477 9.838401,9.983297 9.838234,9.92688 9.838234,9.894832 9.838497,9.854845 9.838497,9.838499 9.894829,9.838235 9.926972,9.838076 9.967025,9.83814 9.983088,9.838045" style="fill: white" /><polygon type="contour" points="9.983088,9.711102 9.838497,9.711102 9.838497,9.420602 9.967025,9.420602 9.983088,9.420474" style="fill: white" /><polygon type="contour" points="10.406754,8.793289 10.405851,8.841529 10.405839,8.869893 10.405301,8.990793 10.405312,9.022047 10.40532,9.022092 10.364311,9.022092 10.230937,9.022277 10.109426,9.022277 10.109426,8.892469 10.109686,8.861879 10.110104,8.843354 10.110646,8.83577 10.110646,8.725823 10.243671,8.725808 10.296869,8.725808 10.304855,8.725454 10.362627,8.724046 10.408072,8.72363" style="fill: white" /><polygon type="contour" points="10.238967,9.204729 10.238965,9.220974 10.238963,9.236872 10.239013,9.293206 10.131612,9.293206 10.108313,9.293173 10.108253,9.236871 10.108256,9.204728 10.108316,9.164765 10.108316,9.148614 10.239018,9.148614" style="fill: white" /><polygon type="contour" points="10.126061,9.420602 10.405411,9.420602 10.405816,9.496732 10.406783,9.566202 10.406574,9.600472 10.405816,9.635336 10.405411,9.711102 10.108407,9.711102 10.108407,9.420504" style="fill: white" /><polygon type="contour" points="9.711101,9.204728 9.711101,9.293206 9.4206,9.293206 9.4206,9.148614 9.711229,9.148614" style="fill: white" /><polygon type="contour" points="9.926973,9.14832 9.966936,9.148614 9.983088,9.148614 9.983381,9.204728 9.983474,9.236871 9.983294,9.293173 9.926877,9.293469 9.89483,9.293469 9.854842,9.293206 9.838497,9.293206 9.838234,9.236871 9.838234,9.204824 9.838497,9.16459 9.83853,9.148408 9.89483,9.148227" style="fill: white" /><polygon type="contour" points="9.983088,9.023387 9.926973,9.023445 9.894829,9.023447 9.85493,9.02339 9.83853,9.02339 9.838497,9.00009 9.838497,8.892689 9.894829,8.892739 9.910727,8.892738 9.926972,8.892735 9.983088,8.892683" style="fill: white" /><polygon type="contour" points="9.687097,8.725659 9.711101,8.726288 9.711101,9.005641 9.711199,9.023296 9.4206,9.023296 9.4206,8.726289 9.496365,8.725886 9.565649,8.724878" style="fill: white" /><polygon type="contour" points="8.769072,8.724046 8.826844,8.725454 8.83483,8.725808 8.888029,8.725808 9.021055,8.725823 9.021597,8.843354 9.022015,8.861879 9.022275,8.892469 9.022275,9.022277 8.725865,9.022277 8.725861,8.869894 8.725848,8.841528 8.724946,8.79329 8.723628,8.72363" style="fill: white" /><polygon type="contour" points="9.204728,8.892735 9.220973,8.892738 9.236871,8.892739 9.293204,8.892689 9.293204,9.000091 9.2933,9.02339 9.236871,9.023446 9.204727,9.023445 9.164764,9.023387 9.148613,9.023387 9.148613,8.892683" style="fill: white" /><polygon type="contour" points="9.2933,9.148407 9.293467,9.204824 9.293467,9.236871 9.293204,9.276859 9.293204,9.293206 9.23687,9.293469 9.204822,9.293469 9.164588,9.293206 9.148406,9.293173 9.148225,9.236871 9.148318,9.204728 9.148613,9.164765 9.148613,9.148614 9.204728,9.14832 9.236871,9.148227" style="fill: white" /><polygon type="contour" points="9.023444,9.204729 9.023446,9.236871 9.023388,9.276772 9.023388,9.293173 9.000088,9.293206 8.892687,9.293206 8.892737,9.236872 8.892735,9.220974 8.892734,9.220974 8.892733,9.204729 8.892682,9.148614 9.023385,9.148614" style="fill: white" /><polygon type="contour" points="9.204727,9.420602 9.293204,9.420602 9.293204,9.711102 9.164675,9.711102 9.148613,9.71123 9.148613,9.420474" style="fill: white" /><polygon type="contour" points="9.023294,9.7112 9.005639,9.711102 8.726287,9.711102 8.725884,9.635337 8.724917,9.566201 8.725126,9.531765 8.725884,9.496733 8.726287,9.420602 9.005639,9.420602 9.023294,9.420504" style="fill: white" /><polygon type="contour" points="9.023388,9.838532 9.023446,9.894832 9.023444,9.926974 9.023385,9.966938 9.023385,9.98309 8.892682,9.98309 8.892733,9.926974 8.892734,9.91073 8.892735,9.91073 8.892737,9.894832 8.892687,9.838499 9.000088,9.838499" style="fill: white" /><polygon type="contour" points="9.276856,9.838499 9.293204,9.838499 9.293467,9.894832 9.293467,9.92688 9.293204,9.967114 9.2933,9.983297 9.236871,9.983477 9.204727,9.983383 9.164764,9.98309 9.148613,9.98309 9.148317,9.926974 9.148225,9.894833 9.148406,9.838532 9.204822,9.838235 9.236871,9.838235" style="fill: white" /><polygon type="contour" points="9.276769,10.108315 9.2933,10.108315 9.293204,10.131613 9.293204,10.239015 9.236871,10.238965 9.220973,10.238966 9.204728,10.238969 9.148613,10.239021 9.148613,10.108318 9.204728,10.108258 9.23687,10.108255" style="fill: white" /><polygon type="contour" points="9.022275,10.239234 9.022015,10.269824 9.021596,10.288349 9.021055,10.295933 9.021055,10.405881 8.888029,10.405896 8.83483,10.405896 8.826844,10.40625 8.769072,10.407658 8.723628,10.408074 8.724946,10.338413 8.725848,10.290175 8.725861,10.26181 8.726399,10.140911 8.726388,10.109658 8.72638,10.109613 8.767388,10.109613 8.900762,10.109428 9.022275,10.109428" style="fill: white" />
</svg>
