<svg width="19.131698" height="19.131699">
<polygon type="contour" points="8.058098,7.824197 8.101495,7.824216 8.101495,7.960421 8.101431,8.026845 8.101431,8.101433 7.912573,8.101433 7.824261,8.101543 7.824195,8.0581 7.823024,8.02639 7.819268,7.961871 7.815748,7.815752" style="fill: white" /><polygon type="contour" points="9.161406,7.85857 9.161679,7.899205 9.161426,7.951979 9.1618,8.10158 9.02229,8.103667 8.869132,8.104469 8.869123,8.062486 8.869123,7.824425 9.021924,7.823334 9.16121,7.822418" style="fill: white" /><polygon type="contour" points="9.35421,7.992251 9.389618,7.992287 9.389618,8.037959 9.38975,8.102116 9.356944,8.102098 9.289052,8.102098 9.290378,8.066811 9.290658,7.992249" style="fill: white" /><polygon type="contour" points="9.162126,8.208345 9.162197,8.24404 9.16256,8.303463 8.975887,8.303452 8.86941,8.303452 8.869385,8.27376 8.869385,8.208105 8.960409,8.208105" style="fill: white" /><polygon type="contour" points="9.32736,8.208451 9.38975,8.208451 9.390618,8.24404 9.39058,8.303316 9.348536,8.303316 9.290692,8.303463 9.290658,8.27091 9.290379,8.207187" style="fill: white" /><polygon type="contour" points="9.841266,8.244039 9.841008,8.303463 9.802864,8.303463 9.74199,8.303316 9.741795,8.263973 9.741691,8.208451 9.773823,8.208345 9.841403,8.208345" style="fill: white" /><polygon type="contour" points="9.841043,8.028502 9.841322,8.102017 9.80408,8.102116 9.741691,8.102116 9.741691,8.060936 9.741795,7.992287 9.802806,7.992284 9.841043,7.99225" style="fill: white" /><polygon type="contour" points="10.109774,7.823333 10.262578,7.824425 10.262578,7.966311 10.262569,8.025911 10.262569,8.10156 10.109408,8.101665 9.969898,8.10158 9.969639,8.051817 9.970022,7.899204 9.970293,7.893861 9.970293,7.85857 9.97033,7.856538 9.970489,7.822418" style="fill: white" /><polygon type="contour" points="11.308677,8.02639 11.307504,8.058101 11.307439,8.101543 11.03016,8.101543 11.03016,8.009746 11.030206,7.960422 11.030206,7.824216 11.073602,7.824197 11.315951,7.815752" style="fill: white" /><polygon type="contour" points="11.139375,8.244039 11.139487,8.303316 11.093673,8.303316 11.029651,8.303238 11.029571,8.272593 11.029571,8.208345 11.139444,8.208345" style="fill: white" /><polygon type="contour" points="10.923225,8.24404 10.923225,8.303238 10.887663,8.303238 10.828388,8.303316 10.828388,8.263881 10.828464,8.208478 10.859108,8.208345 10.923358,8.208345" style="fill: white" /><polygon type="contour" points="10.887663,7.992328 10.923358,7.992258 10.923358,8.102131 10.859108,8.102131 10.828464,8.102052 10.828464,8.060736 10.828388,7.992215" style="fill: white" /><polygon type="contour" points="10.471239,8.038028 10.471077,8.102052 10.403325,8.102151 10.364735,8.102122 10.364735,7.992494 10.403326,7.992442 10.471239,7.992215" style="fill: white" /><polygon type="contour" points="10.403326,8.205578 10.471077,8.208478 10.471077,8.244039 10.471239,8.303316 10.427455,8.303316 10.364954,8.303452 10.364852,8.273759 10.364852,8.205209" style="fill: white" /><polygon type="contour" points="10.26229,8.240138 10.26229,8.303452 10.155812,8.303452 9.96914,8.303463 9.969257,8.251698 9.969525,8.208543 10.109042,8.20637 10.262315,8.205209" style="fill: white" /><polygon type="contour" points="10.262231,9.326307 10.262231,9.390188 10.15611,9.390188 9.969078,9.390275 9.969303,9.357477 9.969303,9.290659 10.065211,9.290659 10.262212,9.290094" style="fill: white" /><polygon type="contour" points="10.403326,9.290171 10.471488,9.290694 10.471488,9.328837 10.471239,9.389713 10.427709,9.389908 10.365056,9.390188 10.364813,9.359304 10.364813,9.290094" style="fill: white" /><polygon type="contour" points="10.926123,10.403327 10.923225,10.471079 10.887662,10.471079 10.828388,10.47124 10.828388,10.427456 10.82825,10.364955 10.891563,10.364955 10.926492,10.364854" style="fill: white" /><polygon type="contour" points="11.13926,10.403327 11.139487,10.47124 11.093673,10.47124 11.02965,10.471079 11.02955,10.403326 11.029579,10.364737 11.139207,10.364737" style="fill: white" /><polygon type="contour" points="11.307533,10.06321 11.30724,10.262773 11.190129,10.262773 11.106184,10.262554 11.030112,10.262554 11.029979,10.173273 11.030102,9.969902 11.217209,9.969517 11.307629,9.969517" style="fill: white" /><polygon type="contour" points="11.139415,9.742085 11.139416,9.803075 11.139449,9.841045 11.103196,9.841045 11.029686,9.841323 11.029587,9.804341 11.029587,9.741952 11.070766,9.741952" style="fill: white" /><polygon type="contour" points="10.859771,9.969183 10.923358,9.969576 10.923358,10.063464 10.926492,10.262316 10.857941,10.262316 10.82825,10.262291 10.82825,10.155815 10.828238,9.969142" style="fill: white" /><polygon type="contour" points="10.867728,9.742085 10.923252,9.741952 10.923358,9.773825 10.923358,9.841404 10.887662,9.841267 10.828238,9.841011 10.828238,9.80206 10.828388,9.741122" style="fill: white" /><polygon type="contour" points="10.923252,9.327622 10.923252,9.390011 10.887663,9.389836 10.828388,9.389713 10.828388,9.348539 10.828238,9.290694 10.85977,9.290575 10.923358,9.2903" style="fill: white" /><polygon type="contour" points="11.06489,9.290381 11.139449,9.290659 11.13945,9.354212 11.139415,9.389909 11.093742,9.389909 11.029587,9.390012 11.029604,9.356947 11.029604,9.289055" style="fill: white" /><polygon type="contour" points="10.926492,8.960411 10.923358,9.162128 10.859771,9.162521 10.828238,9.162562 10.828238,9.050009 10.82825,8.869413 10.857941,8.869388 10.926492,8.869388" style="fill: white" /><polygon type="contour" points="11.307331,8.958428 11.307629,9.162186 11.104069,9.162186 11.030103,9.1618 11.03024,9.070068 11.030112,8.869151 11.22273,8.869151 11.30724,8.868932" style="fill: white" /><polygon type="contour" points="11.13926,8.728376 11.139207,8.766967 11.105144,8.766758 11.029496,8.766758 11.02955,8.728376 11.029651,8.660626 11.070966,8.660626 11.139487,8.660464" style="fill: white" /><polygon type="contour" points="10.923225,8.660626 10.926124,8.728377 10.926492,8.76685 10.891563,8.766749 10.82825,8.766749 10.82825,8.728376 10.828388,8.660464 10.86782,8.660464" style="fill: white" /><polygon type="contour" points="10.471239,8.704247 10.471099,8.766749 10.438672,8.766967 10.364735,8.766967 10.364954,8.728376 10.364954,8.660603 10.403326,8.660603 10.471239,8.660464" style="fill: white" /><polygon type="contour" points="10.471099,8.975888 10.471488,9.162562 10.403326,9.162269 10.364352,9.162103 10.364735,9.072809 10.364735,8.869476 10.403326,8.869413 10.471099,8.869413" style="fill: white" /><polygon type="contour" points="10.262561,8.95692 10.262561,9.161742 10.109407,9.161863 9.969639,9.162062 9.9695,9.044281 9.969766,8.869068 10.05795,8.868932 10.262771,8.868932" style="fill: white" /><polygon type="contour" points="10.155812,8.660603 10.26229,8.660603 10.262226,8.693028 10.262226,8.766967 9.969412,8.766967 9.969434,8.728376 9.96914,8.660215" style="fill: white" /><polygon type="contour" points="9.841043,8.694934 9.841608,8.766889 9.805396,8.766647 9.741515,8.766647 9.741685,8.728377 9.74199,8.660464 9.783164,8.660464 9.841009,8.660215" style="fill: white" /><polygon type="contour" points="9.772398,8.86949 9.841608,8.86949 9.841608,8.959778 9.841043,9.162399 9.802806,9.162624 9.741425,9.162624 9.741425,9.050437 9.741515,8.869473" style="fill: white" /><polygon type="contour" points="9.774222,9.290659 9.841043,9.290659 9.841093,9.328895 9.841093,9.390275 9.802806,9.390275 9.741795,9.389909 9.741795,9.348573 9.741425,9.290608" style="fill: white" /><polygon type="contour" points="8.766644,9.326307 8.766644,9.390188 8.728373,9.390778 8.660462,9.390582 8.660462,9.348538 8.660213,9.290693 8.694933,9.290658 8.766887,9.290094" style="fill: white" /><polygon type="contour" points="8.766887,9.772398 8.766887,9.84161 8.728373,9.841533 8.660213,9.841011 8.660213,9.802866 8.660462,9.741991 8.703992,9.742084 8.766644,9.741769" style="fill: white" /><polygon type="contour" points="8.728374,9.969435 8.766965,9.969413 8.766965,10.262227 8.728373,10.262291 8.6606,10.262291 8.6606,10.155815 8.660213,9.969142" style="fill: white" /><polygon type="contour" points="8.766746,10.403327 8.766746,10.4711 8.728374,10.4711 8.660462,10.47124 8.660462,10.427456 8.6606,10.364955 8.693026,10.364737 8.766965,10.364737" style="fill: white" /><polygon type="contour" points="9.162267,10.403326 9.16256,10.47149 8.975886,10.4711 8.86941,10.4711 8.869473,10.438673 8.869473,10.364737 9.162289,10.364737" style="fill: white" /><polygon type="contour" points="9.326052,10.365057 9.389933,10.365057 9.390775,10.403326 9.390579,10.47124 9.348536,10.47124 9.290692,10.47149 9.290658,10.436768 9.290093,10.364815" style="fill: white" /><polygon type="contour" points="9.841532,10.403327 9.841009,10.47149 9.802863,10.47149 9.74199,10.47124 9.741794,10.427709 9.741515,10.365057 9.772398,10.364815 9.841608,10.364815" style="fill: white" /><polygon type="contour" points="9.841043,10.860792 9.841322,10.924518 9.80408,10.923253 9.741691,10.923253 9.741867,10.887664 9.74199,10.828389 9.783163,10.828389 9.841009,10.828239" style="fill: white" /><polygon type="contour" points="9.773563,11.029687 9.841322,11.029687 9.841322,11.064891 9.841043,11.139451 9.77749,11.139452 9.741795,11.139417 9.741795,11.093744 9.741691,11.029588" style="fill: white" /><polygon type="contour" points="9.39058,10.828389 9.389618,10.86773 9.38975,10.923253 9.357876,10.923359 9.290298,10.923359 9.290435,10.887664 9.290692,10.828239 9.329641,10.828239" style="fill: white" /><polygon type="contour" points="9.38975,11.070768 9.389618,11.139417 9.328628,11.139419 9.290658,11.139451 9.289293,11.103263 9.289053,11.029606 9.327359,11.029588 9.38975,11.029588" style="fill: white" /><polygon type="contour" points="9.1618,11.030124 9.16206,11.079886 9.161679,11.232496 9.161406,11.23784 9.161406,11.273132 9.16137,11.275163 9.16121,11.309284 9.021924,11.308368 8.869123,11.307279 8.869123,11.165392 8.869132,11.105792 8.869132,11.030144 9.02229,11.030039" style="fill: white" /><polygon type="contour" points="9.162442,10.880005 9.162175,10.923161 9.022657,10.925334 8.869385,10.926495 8.86941,10.891565 8.86941,10.828252 8.975886,10.828252 9.16256,10.828239" style="fill: white" /><polygon type="contour" points="8.766848,10.857944 8.766848,10.926495 8.728374,10.926125 8.660624,10.923226 8.660624,10.887664 8.660462,10.828389 8.704245,10.828389 8.766746,10.828252" style="fill: white" /><polygon type="contour" points="8.766965,11.029582 8.766965,11.13921 8.728373,11.139262 8.660462,11.139489 8.660462,11.093675 8.660624,11.029652 8.728374,11.029553" style="fill: white" /><polygon type="contour" points="8.101541,11.121957 8.101495,11.171281 8.101495,11.307488 8.058097,11.307507 7.815749,11.315953 7.823023,11.105311 7.824195,11.073603 7.824261,11.030161 8.101541,11.030161" style="fill: white" /><polygon type="contour" points="8.303236,11.029652 8.303236,11.070968 8.303313,11.139489 8.244036,11.139377 8.208343,11.139445 8.208343,11.029572 8.272591,11.029572" style="fill: white" /><polygon type="contour" points="8.303313,10.867821 8.303236,10.923226 8.272592,10.923359 8.208343,10.923359 8.208476,10.887663 8.208476,10.828466 8.244036,10.828466 8.303313,10.828389" style="fill: white" /><polygon type="contour" points="8.10205,10.828466 8.102128,10.85911 8.102128,10.923359 7.992255,10.923359 7.992325,10.887663 7.992213,10.828389 8.038027,10.828389" style="fill: white" /><polygon type="contour" points="8.026555,10.364946 8.102204,10.364946 8.10215,10.403326 8.10205,10.471079 8.060734,10.471079 7.992213,10.47124 7.992441,10.403327 7.992493,10.364737" style="fill: white" /><polygon type="contour" points="8.240136,10.364955 8.30345,10.364955 8.30345,10.403326 8.303313,10.47124 8.263879,10.47124 8.208476,10.471079 8.205577,10.403327 8.205208,10.364854" style="fill: white" /><polygon type="contour" points="8.303461,10.081694 8.30345,10.262291 8.273758,10.262316 8.205208,10.262316 8.205208,10.171291 8.208343,9.969576 8.271927,9.969183 8.303461,9.969142" style="fill: white" /><polygon type="contour" points="8.027751,9.969681 8.101431,9.970061 8.10146,10.061635 8.101589,10.262554 7.908969,10.262554 7.82446,10.262773 7.824367,10.173274 7.824071,9.969517 7.93721,9.969517" style="fill: white" /><polygon type="contour" points="8.102015,9.773564 8.102015,9.841323 8.066809,9.841323 7.992248,9.841045 7.99225,9.77749 7.992286,9.742085 8.037958,9.742085 8.102113,9.741952" style="fill: white" /><polygon type="contour" points="8.303313,9.741991 8.303313,9.783166 8.303461,9.84101 8.270908,9.841044 8.207184,9.841323 8.208449,9.804341 8.208449,9.741952 8.244037,9.741868" style="fill: white" /><polygon type="contour" points="8.244037,9.290437 8.303461,9.290694 8.303461,9.329642 8.303313,9.390582 8.263971,9.389909 8.208449,9.390012 8.208343,9.357878 8.208343,9.2903" style="fill: white" /><polygon type="contour" points="8.102113,9.327622 8.102113,9.390012 8.060933,9.390012 7.992286,9.389909 7.992282,9.328895 7.992248,9.290659 8.028436,9.289295 8.102096,9.289055" style="fill: white" /><polygon type="contour" points="8.025149,8.869142 8.101591,8.869142 8.101721,8.958429 8.101597,9.1618 7.91449,9.162186 7.824071,9.162186 7.824167,9.068493 7.82446,8.868932 7.94157,8.868932" style="fill: white" /><polygon type="contour" points="8.30345,8.869413 8.30345,8.975889 8.303461,9.162562 8.271927,9.162521 8.208343,9.162128 8.208343,9.068238 8.205208,8.869388 8.273758,8.869388" style="fill: white" /><polygon type="contour" points="8.303313,8.704248 8.30345,8.766749 8.240136,8.766749 8.205208,8.76685 8.205577,8.728377 8.208476,8.660626 8.244036,8.660626 8.303313,8.660464" style="fill: white" /><polygon type="contour" points="8.102049,8.660626 8.102149,8.728377 8.102121,8.766967 7.992493,8.766967 7.992441,8.728376 7.992213,8.660464 8.038026,8.660464" style="fill: white" /><polygon type="contour" points="8.102128,8.272594 8.10205,8.303238 8.060734,8.303238 7.992213,8.303316 7.992325,8.244039 7.992255,8.208345 8.102128,8.208345" style="fill: white" /><polygon type="contour" points="8.244037,8.208478 8.303236,8.208478 8.303236,8.244039 8.303313,8.303316 8.26388,8.303316 8.208476,8.303238 8.208343,8.272594 8.208343,8.208345" style="fill: white" /><polygon type="contour" points="8.303313,8.038028 8.303236,8.102052 8.272592,8.102131 8.208343,8.102131 8.208343,7.992258 8.244036,7.992328 8.303313,7.992215" style="fill: white" /><polygon type="contour" points="8.728373,7.992442 8.766965,7.992494 8.766965,8.10504 8.728373,8.104826 8.660624,8.102052 8.660624,8.060736 8.660462,7.992215" style="fill: white" /><polygon type="contour" points="8.766746,8.242812 8.766746,8.303452 8.728373,8.303452 8.660462,8.303316 8.660462,8.263882 8.660624,8.208478 8.728373,8.208252 8.766848,8.208105" style="fill: white" /><polygon type="contour" points="8.766746,8.660603 8.766965,8.693027 8.766965,8.766967 8.728373,8.766749 8.6606,8.766749 8.6606,8.728377 8.660462,8.660464 8.704246,8.660464" style="fill: white" /><polygon type="contour" points="8.766965,8.869476 8.766965,9.162291 8.728374,9.162269 8.660213,9.162562 8.660213,9.050009 8.6606,8.869413 8.728373,8.869413" style="fill: white" /><polygon type="contour" points="8.956917,8.869142 9.16174,8.869142 9.161861,9.022293 9.16206,9.162062 9.022291,9.161863 8.869013,9.161828 8.869013,8.95762 8.868929,8.868932" style="fill: white" /><polygon type="contour" points="9.162443,8.718049 9.162228,8.766753 9.022658,8.766753 8.869473,8.766967 8.86941,8.728376 8.86941,8.660603 8.975887,8.660603 9.16256,8.660215" style="fill: white" /><polygon type="contour" points="9.39058,8.660464 9.389618,8.703995 9.389933,8.766647 9.359302,8.766889 9.290093,8.766889 9.290169,8.728376 9.290692,8.660215 9.329642,8.660215" style="fill: white" /><polygon type="contour" points="9.389933,8.975591 9.390006,9.162624 9.357475,9.162399 9.290658,9.162399 9.290658,9.066491 9.290093,8.86949 9.326051,8.869473 9.389933,8.869473" style="fill: white" /><polygon type="contour" points="9.162398,9.290659 9.162623,9.328895 9.162623,9.390275 9.050434,9.390275 8.86947,9.390188 8.869487,9.359304 8.869487,9.290094 8.959774,9.290094" style="fill: white" /><polygon type="contour" points="9.390006,9.328895 9.389617,9.389909 9.34857,9.389909 9.290607,9.390275 9.290658,9.357477 9.290658,9.290659 9.328628,9.290608 9.390006,9.290608" style="fill: white" /><polygon type="contour" points="9.389618,9.742085 9.389618,9.783131 9.390006,9.841095 9.357475,9.841045 9.290658,9.841045 9.290607,9.803074 9.290607,9.741695 9.328627,9.741695" style="fill: white" /><polygon type="contour" points="9.162398,9.774225 9.162398,9.841045 9.066489,9.841045 8.869487,9.84161 8.86947,9.805651 8.86947,9.741769 8.975589,9.741769 9.162623,9.741695" style="fill: white" /><polygon type="contour" points="9.162031,10.062987 9.16174,10.262563 9.073751,10.262773 8.868929,10.262773 8.869139,10.174783 8.869139,9.969962 9.022291,9.969839 9.16206,9.969641" style="fill: white" /><polygon type="contour" points="9.390006,10.081266 9.389933,10.262232 9.359303,10.262214 9.290093,10.262214 9.290093,10.171925 9.290657,9.969305 9.328627,9.96908 9.390006,9.96908" style="fill: white" /><polygon type="contour" points="9.774222,9.969305 9.841043,9.969305 9.841043,10.065212 9.841608,10.262214 9.805395,10.262232 9.741515,10.262232 9.741515,10.156111 9.741425,9.96908" style="fill: white" /><polygon type="contour" points="9.841043,9.774225 9.841043,9.841045 9.802805,9.841095 9.741425,9.841095 9.741425,9.803074 9.741795,9.742085 9.783129,9.742085 9.841093,9.741695" style="fill: white" /><polygon type="contour" points="10.109408,9.96984 10.262688,9.969876 10.262688,10.174083 10.262771,10.262773 10.174782,10.262563 9.96996,10.262563 9.969838,10.109408 9.969639,9.969641" style="fill: white" /><polygon type="contour" points="10.262231,9.741769 10.262213,9.772398 10.262213,9.84161 10.171924,9.84161 9.969303,9.841045 9.969078,9.803075 9.969078,9.741695 10.081265,9.741695" style="fill: white" /><polygon type="contour" points="10.471239,9.741122 10.471239,9.783166 10.471488,9.841011 10.436766,9.841045 10.364813,9.84161 10.365056,9.805651 10.365056,9.741769 10.403325,9.740926" style="fill: white" /><polygon type="contour" points="10.471488,10.081695 10.471099,10.262291 10.403326,10.262291 10.364735,10.262228 10.364352,10.17306 10.364352,9.969601 10.403326,9.969434 10.471488,9.969142" style="fill: white" /><polygon type="contour" points="10.26229,10.403327 10.26229,10.4711 10.155813,10.4711 9.96914,10.47149 9.969257,10.413655 9.969471,10.364951 10.109041,10.364951 10.262225,10.364737" style="fill: white" /><polygon type="contour" points="10.403326,10.364955 10.471099,10.364955 10.471099,10.403327 10.471239,10.47124 10.427455,10.47124 10.364954,10.471099 10.364735,10.438673 10.364735,10.364737" style="fill: white" /><polygon type="contour" points="10.471239,10.828389 10.471239,10.867821 10.471077,10.923226 10.403326,10.923449 10.364852,10.923598 10.364954,10.88889 10.364954,10.828252 10.403325,10.828252" style="fill: white" /><polygon type="contour" points="10.155813,10.828252 10.26229,10.828252 10.262315,10.857943 10.262315,10.923598 10.17129,10.923598 9.969574,10.923359 9.969504,10.887663 9.96914,10.828239" style="fill: white" /><polygon type="contour" points="10.262578,11.069215 10.262578,11.307279 10.109775,11.308368 9.970489,11.309284 9.970293,11.273132 9.970022,11.232497 9.970274,11.179721 9.969899,11.030124 10.109407,11.028036 10.262569,11.027234" style="fill: white" /><polygon type="contour" points="10.403325,11.026877 10.471077,11.029652 10.471077,11.070967 10.471239,11.139489 10.403326,11.139262 10.364735,11.13921 10.364945,11.105147 10.364945,11.026589" style="fill: white" /><polygon type="contour" points="10.923358,11.139445 10.887662,11.139377 10.828388,11.139489 10.828388,11.093674 10.828464,11.029652 10.859109,11.029572 10.923358,11.029572" style="fill: white" /><polygon type="contour" points="10.923225,10.828466 10.923358,10.85911 10.923358,10.923359 10.887662,10.923226 10.828464,10.923226 10.828464,10.887663 10.828388,10.828389 10.86782,10.828389" style="fill: white" /><polygon type="contour" points="11.139375,10.887663 11.139444,10.923359 11.029571,10.923359 11.029571,10.859111 11.029651,10.828466 11.070967,10.828466 11.139487,10.828389" style="fill: white" /><polygon type="contour" points="11.307504,11.073604 11.308677,11.105311 11.312432,11.169833 11.315951,11.315953 11.073603,11.307507 11.030206,11.307488 11.030206,11.171281 11.03027,11.104858 11.03027,11.030271 11.219126,11.030271 11.307439,11.030161" style="fill: white" />
</svg>
