<svg width="19.131698" height="19.131699">
<polygon type="contour" points="9.711101,10.603426 9.654724,10.603697 9.637623,10.604157 9.601892,10.605706 9.565637,10.606353 9.493725,10.604158 9.476706,10.603697 9.4206,10.603248 9.4206,10.313107 9.711101,10.313107" style="fill: white" /><polygon type="contour" points="10.603193,10.42508 10.603497,10.459235 10.604668,10.530718 10.606932,10.606934 10.545705,10.605157 10.521089,10.604453 10.519581,10.604282 10.316564,10.606277 10.314476,10.556204 10.314476,10.507788 10.31444,10.502379 10.313579,10.358721 10.313579,10.313581 10.41908,10.313581 10.51252,10.313464 10.603333,10.313464" style="fill: white" /><polygon type="contour" points="10.604668,8.600984 10.603497,8.672468 10.603193,8.706623 10.603333,8.81824 10.512521,8.81824 10.419079,8.818124 10.313579,8.818124 10.31444,8.705535 10.31444,8.629325 10.314476,8.575499 10.315047,8.570529 10.316564,8.525428 10.51958,8.527421 10.521088,8.527251 10.545705,8.526546 10.606932,8.52477" style="fill: white" /><polygon type="contour" points="10.605089,9.445852 10.606967,9.566064 10.605089,9.68573 10.605208,9.711102 10.313106,9.711102 10.313106,9.526172 10.312852,9.420602 10.605208,9.420602" style="fill: white" /><polygon type="contour" points="10.436784,9.065898 10.436857,9.082852 10.436694,9.082852 10.436898,9.171568 10.436634,9.250593 10.312946,9.250593 10.312619,9.171569 10.313326,9.082865 10.312758,9.082866 10.313256,9.020644 10.313256,8.988814 10.436461,8.988814" style="fill: white" /><polygon type="contour" points="8.585994,8.526546 8.610611,8.527251 8.612119,8.527422 8.815137,8.525428 8.817225,8.575499 8.817225,8.623915 8.81726,8.629324 8.818122,8.772982 8.818122,8.818124 8.712621,8.818124 8.619179,8.81824 8.528367,8.81824 8.528508,8.706623 8.528203,8.672468 8.527031,8.600984 8.524768,8.52477" style="fill: white" /><polygon type="contour" points="8.818445,9.020644 8.818943,9.082866 8.818893,9.082866 8.818955,9.171568 8.818517,9.250593 8.695064,9.250593 8.694801,9.171569 8.695009,9.082852 8.694842,9.082852 8.694915,9.065898 8.695237,8.988814 8.818445,8.988814" style="fill: white" /><polygon type="contour" points="9.250751,9.065822 9.250751,9.154154 9.25059,9.217745 9.25059,9.250593 9.171566,9.250753 9.082856,9.250753 9.019509,9.250593 8.98714,9.250593 8.988229,9.171568 8.98891,9.082865 8.988363,9.082865 8.988812,9.020645 8.988812,8.988814 9.065896,8.988365 9.082864,8.988365 9.082864,8.988397 9.171567,8.988357 9.25059,8.987379" style="fill: white" /><polygon type="contour" points="9.25059,8.695065 9.25059,8.818757 9.171566,8.819084 9.082863,8.818376 9.082864,8.818945 9.020642,8.818448 8.988812,8.818448 8.988812,8.695239 9.065896,8.694917 9.08285,8.694844 9.08285,8.695011 9.171567,8.694803" style="fill: white" /><polygon type="contour" points="9.637622,8.527546 9.654724,8.528007 9.711101,8.528278 9.711101,8.81885 9.4206,8.81885 9.4206,8.528278 9.476705,8.528007 9.493725,8.527546 9.529283,8.525998 9.565501,8.525351" style="fill: white" /><polygon type="contour" points="10.048849,8.695011 10.048849,8.694844 10.065804,8.694917 10.142887,8.695239 10.142887,8.818448 10.111056,8.818448 10.048836,8.818945 10.048836,8.818376 9.960133,8.819084 9.88111,8.818757 9.88111,8.695065 9.960132,8.694803" style="fill: white" /><polygon type="contour" points="9.960132,8.988357 10.048836,8.988397 10.048835,8.988365 10.111056,8.988814 10.142887,8.988814 10.143338,9.065898 10.143338,9.082866 10.143305,9.082866 10.143346,9.171568 10.142903,9.250974 10.06588,9.250753 9.977547,9.250753 9.913956,9.250593 9.88111,9.250593 9.880948,9.171568 9.880948,9.065822 9.88111,8.987379" style="fill: white" /><polygon type="contour" points="9.711101,9.250593 9.4206,9.250593 9.4206,8.988798 9.711101,8.988798" style="fill: white" /><polygon type="contour" points="9.711101,9.711102 9.4206,9.711102 9.4206,9.420602 9.711101,9.420602" style="fill: white" /><polygon type="contour" points="10.142904,9.612938 10.14314,9.711102 9.88111,9.711102 9.88111,9.420602 10.142904,9.420602" style="fill: white" /><polygon type="contour" points="10.436898,9.960134 10.436694,10.048851 10.436857,10.048852 10.436784,10.065805 10.436461,10.142889 10.313256,10.142889 10.313256,10.111058 10.312758,10.048838 10.312807,10.048838 10.312746,9.960135 10.313184,9.881111 10.436634,9.881111" style="fill: white" /><polygon type="contour" points="10.143472,9.960134 10.14279,10.048838 10.143338,10.048838 10.142887,10.111058 10.142887,10.142889 10.065805,10.14334 10.048836,10.14334 10.048836,10.142792 9.960133,10.143474 9.880728,10.143142 9.880948,10.066008 9.880948,9.977548 9.88111,9.913957 9.88111,9.88111 9.960132,9.880949 9.977547,9.880949 9.977547,9.8812 10.11097,9.88073 10.14314,9.88073" style="fill: white" /><polygon type="contour" points="10.048836,10.312813 10.048835,10.31276 10.111056,10.313257 10.142887,10.313257 10.142887,10.436463 10.065805,10.436785 10.04885,10.43686 10.04885,10.436696 9.960133,10.4369 9.88111,10.436636 9.88111,10.313186 9.960132,10.312747" style="fill: white" /><polygon type="contour" points="9.711101,10.143142 9.4206,10.143142 9.4206,9.881111 9.711101,9.881111" style="fill: white" /><polygon type="contour" points="9.25059,10.313186 9.25059,10.436636 9.171566,10.4369 9.08285,10.436696 9.082849,10.436859 9.065896,10.436786 8.988812,10.436463 8.988812,10.313257 9.020642,10.313257 9.082864,10.31276 9.082864,10.312813 9.171567,10.312747" style="fill: white" /><polygon type="contour" points="9.217744,9.881111 9.25059,9.881111 9.250751,9.960134 9.250751,10.066007 9.25059,10.144563 9.171566,10.143473 9.082863,10.142792 9.082863,10.14334 9.020643,10.142889 8.988811,10.142889 8.988363,10.065806 8.988363,10.048838 8.988395,10.048838 8.988355,9.960134 8.987378,9.881111 9.06582,9.880949 9.154153,9.880949" style="fill: white" /><polygon type="contour" points="9.25059,9.711102 8.988796,9.711102 8.988796,9.518765 8.98856,9.420602 9.25059,9.420602" style="fill: white" /><polygon type="contour" points="8.818594,9.605531 8.818848,9.711102 8.526492,9.711102 8.526611,9.685851 8.524733,9.565639 8.526611,9.445973 8.526492,9.420602 8.818594,9.420602" style="fill: white" /><polygon type="contour" points="8.819082,9.960134 8.818374,10.048838 8.818943,10.048838 8.818445,10.111058 8.818445,10.142889 8.695237,10.142889 8.694915,10.065805 8.694842,10.048852 8.695009,10.048852 8.694801,9.960134 8.695064,9.881111 8.818755,9.881111" style="fill: white" /><polygon type="contour" points="8.71262,10.313581 8.818122,10.313581 8.817261,10.426167 8.817261,10.502378 8.817225,10.556203 8.81665,10.561174 8.815137,10.606277 8.612119,10.604282 8.61061,10.604453 8.585994,10.605157 8.524768,10.606934 8.527031,10.530718 8.528203,10.459235 8.528508,10.42508 8.528367,10.313464 8.61918,10.313464" style="fill: white" />
</svg>
