<svg width="19.131698" height="19.131699">
<polygon type="contour" points="12.050849,10.977519 11.84085,10.977519 11.84085,10.767516 12.050849,10.767516" style="fill: white" /><polygon type="contour" points="12.050849,10.324187 11.84085,10.324187 11.84085,10.114188 12.050849,10.114188" style="fill: white" /><polygon type="contour" points="12.050849,9.670854 11.84085,9.670854 11.84085,9.460851 12.050849,9.460851" style="fill: white" /><polygon type="contour" points="12.050849,9.017516 11.84085,9.017516 11.84085,8.807517 12.050849,8.807517" style="fill: white" /><polygon type="contour" points="12.050849,8.364188 11.84085,8.364188 11.84085,8.154185 12.050849,8.154185" style="fill: white" /><polygon type="contour" points="12.050849,7.71085 11.84085,7.71085 11.84085,7.500851 12.050849,7.500851" style="fill: white" /><polygon type="contour" points="11.630851,7.290852 11.420852,7.290852 11.420852,7.080852 11.630851,7.080852" style="fill: white" /><polygon type="contour" points="10.977517,7.290852 10.767514,7.290852 10.767514,7.080852 10.977517,7.080852" style="fill: white" /><polygon type="contour" points="10.324185,7.290852 10.114186,7.290852 10.114186,7.080852 10.324185,7.080852" style="fill: white" /><polygon type="contour" points="9.670852,7.290852 9.460849,7.290852 9.460849,7.080852 9.670852,7.080852" style="fill: white" /><polygon type="contour" points="9.017514,7.290852 8.807515,7.290852 8.807515,7.080852 9.017514,7.080852" style="fill: white" /><polygon type="contour" points="8.364186,7.290852 8.154183,7.290852 8.154183,7.080852 8.364186,7.080852" style="fill: white" /><polygon type="contour" points="7.710849,7.290852 7.500849,7.290852 7.500849,7.080852 7.710849,7.080852" style="fill: white" /><polygon type="contour" points="7.29085,7.71085 7.080851,7.71085 7.080851,7.500851 7.29085,7.500851" style="fill: white" /><polygon type="contour" points="7.29085,8.364188 7.080851,8.364188 7.080851,8.154185 7.29085,8.154185" style="fill: white" /><polygon type="contour" points="7.29085,9.017516 7.080851,9.017516 7.080851,8.807517 7.29085,8.807517" style="fill: white" /><polygon type="contour" points="7.29085,9.670854 7.080851,9.670854 7.080851,9.460851 7.29085,9.460851" style="fill: white" /><polygon type="contour" points="7.29085,10.324187 7.080851,10.324187 7.080851,10.114188 7.29085,10.114188" style="fill: white" /><polygon type="contour" points="7.29085,10.977519 7.080851,10.977519 7.080851,10.767516 7.29085,10.767516" style="fill: white" /><polygon type="contour" points="7.038011,11.804864 7.18035,11.813787 7.32024,11.81146 7.326839,12.093691 7.327684,12.299846 7.327684,13.571632 7.326322,13.8417 7.322294,14.107075 7.031687,14.106335 5.326138,14.106335 5.290001,14.106575 5.08938,14.108932 5.056849,14.107158 5.023338,14.108364 5.024543,14.074852 5.024774,14.014194 5.025302,13.883946 5.025395,13.815699 5.025366,13.805565 5.025366,12.100015 5.024711,11.809675 5.29,11.805379 5.560071,11.804019 6.831851,11.804019" style="fill: white" /><polygon type="contour" points="7.29085,11.630853 7.080851,11.630853 7.080851,11.420854 7.29085,11.420854" style="fill: white" /><polygon type="contour" points="7.710849,12.050852 7.500849,12.050852 7.500849,11.840852 7.710849,11.840852" style="fill: white" /><polygon type="contour" points="8.364186,12.050852 8.154183,12.050852 8.154183,11.840852 8.364186,11.840852" style="fill: white" /><polygon type="contour" points="9.017514,12.050852 8.807515,12.050852 8.807515,11.840852 9.017514,11.840852" style="fill: white" /><polygon type="contour" points="9.670852,12.050852 9.460849,12.050852 9.460849,11.840852 9.670852,11.840852" style="fill: white" /><polygon type="contour" points="10.324185,12.050852 10.114186,12.050852 10.114186,11.840852 10.324185,11.840852" style="fill: white" /><polygon type="contour" points="10.977517,12.050852 10.767514,12.050852 10.767514,11.840852 10.977517,11.840852" style="fill: white" /><polygon type="contour" points="11.630851,12.050852 11.420852,12.050852 11.420852,11.840852 11.630851,11.840852" style="fill: white" /><polygon type="contour" points="12.050849,11.630853 11.84085,11.630853 11.84085,11.420854 12.050849,11.420854" style="fill: white" /><polygon type="contour" points="13.841697,11.805379 14.107073,11.809788 14.106333,12.100015 14.106333,13.805565 14.106304,13.815699 14.106399,13.883947 14.107157,14.074852 14.108363,14.108364 13.883944,14.1064 13.841696,14.106574 13.805561,14.106335 12.100012,14.106335 11.809544,14.106857 11.805377,13.8417 11.804017,13.571631 11.804017,12.299846 11.804862,12.093691 11.813786,11.95135 11.811458,11.811459 12.093689,11.804864 12.299845,11.804019 13.571628,11.804019" style="fill: white" /><polygon type="contour" points="14.264602,14.920853 14.054599,14.920853 14.054599,14.710852 14.264602,14.710852" style="fill: white" /><polygon type="contour" points="13.608352,14.920853 13.398349,14.920853 13.398349,14.710852 13.608352,14.710852" style="fill: white" /><polygon type="contour" points="12.952102,14.920853 12.742099,14.920853 12.742099,14.710852 12.952102,14.710852" style="fill: white" /><polygon type="contour" points="12.295852,14.920853 12.085849,14.920853 12.085849,14.710852 12.295852,14.710852" style="fill: white" /><polygon type="contour" points="11.639602,14.920853 11.429599,14.920853 11.429599,14.710852 11.639602,14.710852" style="fill: white" /><polygon type="contour" points="10.983352,14.920853 10.773349,14.920853 10.773349,14.710852 10.983352,14.710852" style="fill: white" /><polygon type="contour" points="10.327102,14.920853 10.117099,14.920853 10.117099,14.710852 10.327102,14.710852" style="fill: white" /><polygon type="contour" points="9.670852,14.920853 9.460849,14.920853 9.460849,14.710852 9.670852,14.710852" style="fill: white" /><polygon type="contour" points="9.014602,14.920853 8.804599,14.920853 8.804599,14.710852 9.014602,14.710852" style="fill: white" /><polygon type="contour" points="8.358351,14.920853 8.148349,14.920853 8.148349,14.710852 8.358351,14.710852" style="fill: white" /><polygon type="contour" points="7.702101,14.920853 7.492099,14.920853 7.492099,14.710852 7.702101,14.710852" style="fill: white" /><polygon type="contour" points="7.045851,14.920853 6.835849,14.920853 6.835849,14.710852 7.045851,14.710852" style="fill: white" /><polygon type="contour" points="6.389601,14.920853 6.179599,14.920853 6.179599,14.710852 6.389601,14.710852" style="fill: white" /><polygon type="contour" points="5.733351,14.920853 5.52335,14.920853 5.52335,14.710852 5.733351,14.710852" style="fill: white" /><polygon type="contour" points="5.0771,14.920853 4.8671,14.920853 4.8671,14.710852 5.0771,14.710852" style="fill: white" /><polygon type="contour" points="4.42085,14.920853 4.21085,14.920853 4.21085,14.710852 4.42085,14.710852" style="fill: white" /><polygon type="contour" points="4.42085,14.264603 4.21085,14.264603 4.21085,14.054602 4.42085,14.054602" style="fill: white" /><polygon type="contour" points="4.42085,13.608353 4.21085,13.608353 4.21085,13.398351 4.42085,13.398351" style="fill: white" /><polygon type="contour" points="4.42085,12.952103 4.21085,12.952103 4.21085,12.742101 4.42085,12.742101" style="fill: white" /><polygon type="contour" points="4.42085,12.295853 4.21085,12.295853 4.21085,12.085851 4.42085,12.085851" style="fill: white" /><polygon type="contour" points="4.42085,11.639603 4.21085,11.639603 4.21085,11.429601 4.42085,11.429601" style="fill: white" /><polygon type="contour" points="4.42085,10.983354 4.21085,10.983354 4.210851,10.830951 4.210851,10.773351 4.42085,10.773351" style="fill: white" /><polygon type="contour" points="4.42085,10.327104 4.21085,10.327104 4.21085,10.117101 4.42085,10.117101" style="fill: white" /><polygon type="contour" points="4.42085,9.670854 4.21085,9.670854 4.21085,9.460851 4.42085,9.460851" style="fill: white" /><polygon type="contour" points="4.42085,9.014604 4.21085,9.014604 4.21085,8.804601 4.42085,8.804601" style="fill: white" /><polygon type="contour" points="4.42085,8.358353 4.21085,8.358353 4.21085,8.14835 4.42085,8.14835" style="fill: white" /><polygon type="contour" points="4.42085,7.702103 4.21085,7.702103 4.21085,7.492101 4.42085,7.492101" style="fill: white" /><polygon type="contour" points="4.420849,6.89345 4.420849,7.045853 4.21085,7.045853 4.21085,6.835851 4.42085,6.835851" style="fill: white" /><polygon type="contour" points="4.42085,6.389603 4.21085,6.389603 4.21085,6.179601 4.42085,6.179601" style="fill: white" /><polygon type="contour" points="4.42085,5.733353 4.21085,5.733353 4.21085,5.523352 4.42085,5.523352" style="fill: white" /><polygon type="contour" points="4.42085,4.420852 4.21085,4.420852 4.21085,4.210852 4.42085,4.210852" style="fill: white" /><polygon type="contour" points="4.42085,5.077102 4.21085,5.077102 4.21085,4.867102 4.42085,4.867102" style="fill: white" /><polygon type="contour" points="5.247754,5.025303 5.290001,5.02513 5.326137,5.025368 7.031687,5.025368 7.322156,5.024847 7.326322,5.290003 7.327684,5.560074 7.327684,6.831855 7.326839,7.038012 7.317914,7.180352 7.320241,7.320244 7.038011,7.326841 6.831851,7.327686 5.56007,7.327686 5.290001,7.326323 5.024626,7.321915 5.025366,7.031689 5.025366,5.326139 5.025395,5.316004 5.025302,5.247755 5.024543,5.05685 5.023338,5.023339" style="fill: white" /><polygon type="contour" points="5.0771,4.420852 4.8671,4.420852 4.8671,4.210852 5.0771,4.210852" style="fill: white" /><polygon type="contour" points="5.733351,4.420852 5.52335,4.420852 5.52335,4.210852 5.733351,4.210852" style="fill: white" /><polygon type="contour" points="6.389601,4.420852 6.179599,4.420852 6.179599,4.210852 6.389601,4.210852" style="fill: white" /><polygon type="contour" points="7.045851,4.420852 6.835849,4.420852 6.835849,4.210852 7.045851,4.210852" style="fill: white" /><polygon type="contour" points="7.702101,4.420852 7.492099,4.420852 7.492099,4.210852 7.702101,4.210852" style="fill: white" /><polygon type="contour" points="8.358351,4.420852 8.148349,4.420852 8.148349,4.210852 8.358351,4.210852" style="fill: white" /><polygon type="contour" points="9.014602,4.420852 8.804599,4.420852 8.804599,4.210852 9.014602,4.210852" style="fill: white" /><polygon type="contour" points="9.670852,4.420852 9.460849,4.420852 9.460849,4.210852 9.670852,4.210852" style="fill: white" /><polygon type="contour" points="10.327102,4.420852 10.117099,4.420852 10.117099,4.210852 10.327102,4.210852" style="fill: white" /><polygon type="contour" points="10.983352,4.420852 10.773349,4.420852 10.773349,4.210852 10.983352,4.210852" style="fill: white" /><polygon type="contour" points="11.639602,4.420852 11.429599,4.420852 11.429599,4.210852 11.639602,4.210852" style="fill: white" /><polygon type="contour" points="12.295852,4.420852 12.085849,4.420852 12.085849,4.210852 12.295852,4.210852" style="fill: white" /><polygon type="contour" points="12.952102,4.420852 12.742099,4.420852 12.742099,4.210852 12.952102,4.210852" style="fill: white" /><polygon type="contour" points="13.608352,4.420852 13.398349,4.420852 13.398349,4.210852 13.608352,4.210852" style="fill: white" /><polygon type="contour" points="14.074851,5.024544 14.108363,5.023339 14.107157,5.05685 14.106924,5.117507 14.106399,5.247755 14.106304,5.316004 14.106333,5.326139 14.106333,7.031689 14.106989,7.322028 13.841697,7.326323 13.571629,7.327686 12.299845,7.327686 12.093689,7.326841 11.951349,7.317917 11.811459,7.320244 11.804862,7.038012 11.804017,6.831855 11.804017,5.560074 11.805377,5.290003 11.809406,5.024629 12.100013,5.025368 13.805562,5.025368 13.841697,5.02513 14.001331,5.023296 14.042318,5.022772" style="fill: white" /><polygon type="contour" points="14.264602,4.420852 14.054599,4.420852 14.054599,4.210852 14.264602,4.210852" style="fill: white" /><polygon type="contour" points="14.920852,4.420852 14.710849,4.420852 14.710849,4.210852 14.920852,4.210852" style="fill: white" /><polygon type="contour" points="14.920852,5.077102 14.710849,5.077102 14.710849,4.867102 14.920852,4.867102" style="fill: white" /><polygon type="contour" points="14.920852,5.733353 14.710849,5.733353 14.710849,5.523352 14.920852,5.523352" style="fill: white" /><polygon type="contour" points="14.920852,6.389603 14.710849,6.389603 14.710849,6.179601 14.920852,6.179601" style="fill: white" /><polygon type="contour" points="14.920852,7.045853 14.710849,7.045853 14.710849,6.835851 14.920852,6.835851" style="fill: white" /><polygon type="contour" points="14.920852,7.702103 14.710849,7.702103 14.710849,7.492101 14.920852,7.492101" style="fill: white" /><polygon type="contour" points="14.920852,8.358353 14.710849,8.358353 14.710849,8.14835 14.920852,8.14835" style="fill: white" /><polygon type="contour" points="14.920852,9.014604 14.710849,9.014604 14.710849,8.804601 14.920852,8.804601" style="fill: white" /><polygon type="contour" points="14.920852,9.670854 14.710849,9.670854 14.710849,9.460851 14.920852,9.460851" style="fill: white" /><polygon type="contour" points="14.920852,10.327104 14.710849,10.327104 14.710849,10.117101 14.920852,10.117101" style="fill: white" /><polygon type="contour" points="14.920852,10.983354 14.710849,10.983354 14.710849,10.773351 14.920852,10.773351" style="fill: white" /><polygon type="contour" points="14.920852,11.639603 14.710849,11.639603 14.710849,11.429601 14.920852,11.429601" style="fill: white" /><polygon type="contour" points="14.920852,12.295853 14.710849,12.295853 14.710849,12.085851 14.920852,12.085851" style="fill: white" /><polygon type="contour" points="14.920852,12.952103 14.710849,12.952103 14.710849,12.742101 14.920852,12.742101" style="fill: white" /><polygon type="contour" points="14.920852,13.608353 14.710849,13.608353 14.710849,13.398351 14.920852,13.398351" style="fill: white" /><polygon type="contour" points="14.920852,14.264603 14.710849,14.264603 14.710849,14.054602 14.920852,14.054602" style="fill: white" /><polygon type="contour" points="14.920852,14.920853 14.710849,14.920853 14.710849,14.710852 14.920852,14.710852" style="fill: white" />
</svg>
