<svg width="19.131698" height="19.131699">
<polygon type="contour" points="16.311497,13.152229 16.325478,13.148235 16.375011,13.143157 16.37498,13.199501 16.374988,13.219331 16.374998,13.225508 16.37479,13.425866 16.374828,13.549166 16.374947,13.630012 16.374968,13.882376 16.470417,13.882518 16.470417,14.073864 16.470084,14.215385 16.405082,14.215154 16.33604,14.215453 16.280172,14.215049 16.28006,14.280044 16.279944,14.318691 16.279944,15.976292 16.279933,15.979827 16.279891,16.13709 16.337633,16.137038 16.405082,16.137132 16.408247,16.136863 16.470084,16.136884 16.469948,16.273737 16.470281,16.423024 16.470281,16.470284 16.2651,16.470499 16.263881,16.470289 16.136792,16.469994 16.13713,16.405085 16.13713,16.33984 16.137035,16.337636 16.137088,16.279893 15.979824,16.279934 15.976289,16.279945 14.31869,16.279945 14.280041,16.280063 14.215048,16.280176 14.21545,16.33604 14.215152,16.339839 14.215152,16.405085 14.215361,16.40825 14.215384,16.470086 14.073863,16.470419 13.882517,16.470419 13.882342,16.374981 13.55606,16.374894 13.437516,16.374884 13.418225,16.374831 13.344909,16.374909 13.123249,16.374975 13.134067,16.203561 13.132372,16.198986 13.153142,15.984051 13.154262,15.977691 13.154262,14.318691 13.14983,14.280044 13.145272,14.215175 13.129444,14.030064 13.137213,14.008092 13.147822,13.871071 13.236,13.871243 13.270795,13.871419 13.281129,13.871478 13.436944,13.870721 13.555726,13.871555 13.565283,13.871699 13.633507,13.871203 13.701384,13.870829 13.709653,13.870702 13.712322,13.871012 13.752517,13.870259 13.75664,13.870059 13.773663,13.869082 13.777598,13.868484 13.798086,13.868182 13.803308,13.868066 13.814134,13.867838 13.818106,13.867722 13.86722,13.867563 13.867837,13.814137 13.868065,13.80331 13.86818,13.798089 13.868482,13.777599 13.869078,13.773666 13.870056,13.756642 13.870258,13.75252 13.87101,13.712324 13.870699,13.709656 13.870828,13.701386 13.871199,13.633509 13.871697,13.565286 13.871552,13.555729 13.870718,13.436948 13.871475,13.281132 13.871418,13.270798 13.871241,13.236002 13.871069,13.147824 14.008089,13.137214 14.030063,13.129445 14.215173,13.145272 14.280041,13.149831 14.318689,13.154264 15.97629,13.154264 15.979824,13.153887 16.137091,13.142541 16.201729,13.124973" style="fill: white" /><polygon type="contour" points="16.470281,2.661419 16.470281,2.70868 16.469948,2.857967 16.470084,2.994819 16.405082,2.994572 16.339838,2.994572 16.337634,2.994666 16.279891,2.994615 16.279933,3.151877 16.279944,3.155411 16.279944,4.813012 16.28006,4.851658 16.280172,4.916652 16.336039,4.916251 16.339838,4.916551 16.405082,4.916551 16.408247,4.91634 16.470084,4.916319 16.470417,5.057839 16.470417,5.249183 16.374965,5.249361 16.374958,5.576599 16.37497,5.695031 16.374921,5.714276 16.37501,5.787359 16.374928,6.0082 16.203939,5.997465 16.137091,5.989162 15.979824,5.977816 15.97629,5.97744 14.318689,5.97744 14.280041,5.981872 14.215174,5.986429 14.030063,6.002258 14.008089,5.994489 13.87107,5.983879 13.871242,5.895701 13.871418,5.860905 13.871475,5.850572 13.870718,5.694756 13.871553,5.575972 13.871697,5.566416 13.871494,5.525413 13.871405,5.520653 13.871655,5.519289 13.87101,5.419378 13.870258,5.379182 13.870056,5.37506 13.869079,5.358038 13.868482,5.354103 13.86818,5.333614 13.868066,5.328394 13.867837,5.317565 13.86722,5.264145 13.818106,5.26398 13.814135,5.263867 13.803307,5.263636 13.798086,5.26352 13.777598,5.263218 13.773663,5.262621 13.752516,5.261442 13.712322,5.26069 13.709653,5.261002 13.701383,5.260873 13.633506,5.2605 13.565284,5.260004 13.555727,5.260148 13.436946,5.260983 13.281129,5.260226 13.270795,5.260284 13.236,5.26046 13.147822,5.260632 13.137212,5.123612 13.129444,5.101639 13.145272,4.916526 13.149831,4.851659 13.154262,4.813012 13.154262,3.154108 13.153158,3.147556 13.134235,2.927761 13.123492,2.756672 13.344342,2.75669 13.417424,2.756781 13.43667,2.756731 13.555102,2.756745 13.882374,2.756732 13.882517,2.661285 14.073863,2.661285 14.215384,2.661618 14.215152,2.726617 14.21545,2.795663 14.215048,2.851527 14.280041,2.851641 14.31869,2.851759 15.976289,2.851759 15.979824,2.85177 16.137088,2.85181 16.137035,2.794068 16.13713,2.726618 16.13686,2.723454 16.136791,2.661709 16.263881,2.661414 16.2651,2.661205" style="fill: white" /><polygon type="contour" points="2.867818,2.661414 2.994908,2.661709 2.99457,2.726617 2.99457,2.791865 2.994665,2.794068 2.994612,2.85181 3.151875,2.85177 3.15541,2.851759 4.81301,2.851759 4.851658,2.85164 4.916651,2.851527 4.916249,2.795663 4.916548,2.791866 4.916548,2.726618 4.916337,2.723453 4.916317,2.661618 5.057837,2.661285 5.249182,2.661285 5.249359,2.756729 5.501688,2.756756 5.582533,2.756875 5.70615,2.756909 5.906264,2.756703 5.91237,2.756714 5.932177,2.756694 5.988601,2.756673 5.984231,2.806557 5.979472,2.820204 6.006729,2.929973 5.979613,3.14814 5.977438,3.152657 5.977438,4.813012 5.981869,4.851659 5.986427,4.916526 6.002256,5.101639 5.994487,5.123612 5.983878,5.260632 5.895699,5.26046 5.860904,5.260284 5.85057,5.260226 5.694754,5.260983 5.57597,5.260147 5.566414,5.260004 5.525411,5.260207 5.520652,5.260296 5.519288,5.260045 5.419376,5.26069 5.37918,5.261442 5.375058,5.261643 5.358036,5.262621 5.354101,5.263218 5.333611,5.263521 5.328391,5.263637 5.317563,5.263866 5.313592,5.26398 5.264471,5.264145 5.263864,5.317565 5.263634,5.328394 5.263519,5.333613 5.263215,5.354103 5.262618,5.358038 5.26164,5.37506 5.261439,5.379182 5.260688,5.419379 5.261,5.422047 5.260871,5.430316 5.260497,5.498194 5.260002,5.566416 5.260146,5.575973 5.260982,5.694755 5.260224,5.850572 5.260281,5.860905 5.260458,5.895701 5.26063,5.983879 5.123609,5.994488 5.101637,6.002258 4.916525,5.986429 4.851658,5.981872 4.81301,5.97744 3.155409,5.97744 3.151876,5.977815 2.994609,5.989162 2.92776,5.997466 2.756772,6.008199 2.75669,5.787359 2.756779,5.714277 2.756729,5.694721 2.756743,5.576599 2.75673,5.249328 2.661284,5.249184 2.661284,5.057839 2.661617,4.916319 2.726616,4.916551 2.79566,4.916252 2.851525,4.916652 2.851639,4.851659 2.851758,4.813011 2.851758,3.155411 2.851768,3.151876 2.851808,2.994615 2.794066,2.994666 2.726617,2.994572 2.723452,2.99484 2.661617,2.994819 2.661752,2.857967 2.661418,2.70868 2.661418,2.661419 2.866599,2.661205" style="fill: white" /><polygon type="contour" points="2.994609,13.142541 3.151876,13.153888 3.155409,13.154264 4.813011,13.154264 4.851658,13.149832 4.916526,13.145272 5.101637,13.129446 5.12361,13.137214 5.26063,13.147824 5.260458,13.236002 5.260281,13.270798 5.260224,13.281132 5.260982,13.436948 5.260146,13.555729 5.260002,13.565286 5.260497,13.633508 5.260871,13.701386 5.261,13.709656 5.260688,13.712324 5.261439,13.75252 5.261641,13.756642 5.262619,13.773666 5.263216,13.777599 5.263519,13.79809 5.263635,13.80331 5.263863,13.814137 5.264471,13.867563 5.313592,13.867723 5.317563,13.867838 5.328391,13.868066 5.333611,13.868182 5.354099,13.868484 5.358035,13.869082 5.37918,13.87026 5.419375,13.871013 5.422046,13.870702 5.430314,13.870829 5.49819,13.871203 5.566414,13.8717 5.57597,13.871556 5.694754,13.870721 5.85057,13.871478 5.860904,13.87142 5.895699,13.871243 5.983878,13.871071 5.994487,14.008092 6.002256,14.030064 5.986427,14.215175 5.981869,14.280044 5.977438,14.318691 5.977438,15.979045 5.979613,15.983563 6.006729,16.201732 5.979472,16.311498 5.984231,16.325144 5.988546,16.375012 5.9322,16.374981 5.91237,16.374988 5.906264,16.374999 5.706151,16.374795 5.582533,16.37483 5.501687,16.374948 5.249326,16.374972 5.249182,16.470419 5.057837,16.470419 4.916317,16.470086 4.916548,16.405085 4.91625,16.336039 4.916651,16.280176 4.851658,16.280063 4.81301,16.279945 3.15541,16.279945 3.151875,16.279934 2.994612,16.279893 2.994665,16.337635 2.99457,16.405084 2.994839,16.40825 2.994908,16.469994 2.867817,16.470289 2.866598,16.470499 2.661418,16.470284 2.661418,16.423024 2.661752,16.273737 2.661617,16.136884 2.726616,16.137132 2.791864,16.137132 2.794067,16.137037 2.851808,16.13709 2.851768,15.979827 2.851758,15.976292 2.851758,14.318692 2.851638,14.280043 2.851525,14.215049 2.795661,14.215453 2.791863,14.215154 2.726617,14.215154 2.723452,14.215363 2.661617,14.215385 2.661284,14.073864 2.661284,13.882518 2.756727,13.882343 2.756754,13.630011 2.756873,13.549167 2.756908,13.42555 2.756702,13.225438 2.756712,13.219331 2.756693,13.199525 2.756671,13.143029 2.806221,13.148236 2.820202,13.152229 2.92997,13.124973" style="fill: white" />
</svg>
