<svg width="19.131698" height="19.131699">
<polygon type="contour" points="14.270667,16.776948 14.855081,16.777282 14.855081,16.829681 14.855439,16.920015 14.855235,16.969471 14.854967,16.984068 14.855216,17.018719 14.855014,17.021303 14.855014,17.065672 14.855154,17.067823 14.85517,17.109872 14.657134,17.110338 14.522438,17.110338 14.522262,17.014951 14.28278,17.015106 14.282643,17.015104 14.2739,16.873775 14.267621,16.776941" style="fill: white" /><polygon type="contour" points="15.7026,16.790431 15.7026,16.919543 15.544377,16.919634 15.506874,16.91974 15.506825,16.88647 15.506825,16.776972 15.552533,16.776972 15.702571,16.776817" style="fill: white" /><polygon type="contour" points="16.09535,16.777075 16.193884,16.777075 16.193884,16.919878 16.111621,16.919708 15.861484,16.919544 15.861574,16.902479 15.861574,16.776817" style="fill: white" /><polygon type="contour" points="17.10987,16.776671 17.109778,16.869732 17.110242,17.076975 17.110242,17.110244 16.965803,17.110396 16.964947,17.110248 16.776608,17.10981 16.776838,17.065671 16.776838,17.021303 16.776773,17.019804 16.776804,16.985917 16.776825,16.971482 16.777074,16.919877 16.777074,16.777077 16.919875,16.777077 16.97148,16.776826 16.985915,16.776806 17.019804,16.776776 17.065669,16.77684 17.067822,16.776657" style="fill: white" /><polygon type="contour" points="16.919705,16.111622 16.919876,16.193886 16.777072,16.193886 16.777072,16.095352 16.776815,15.861576 16.79043,15.861485 16.919542,15.861485" style="fill: white" /><polygon type="contour" points="16.807495,15.506875 16.919736,15.506875 16.919632,15.544378 16.919542,15.702601 16.902477,15.702572 16.776815,15.702572 16.776815,15.679053 16.776968,15.506826" style="fill: white" /><polygon type="contour" points="16.194052,15.506825 16.194073,15.679054 16.194073,15.702572 15.901472,15.702572 15.861484,15.702601 15.861601,15.68127 15.861601,15.506595 15.901472,15.506573" style="fill: white" /><polygon type="contour" points="15.7026,15.525389 15.7026,15.702601 15.681269,15.702518 15.506594,15.702518 15.506594,15.68127 15.506873,15.506875 15.548667,15.506875 15.702517,15.506595" style="fill: white" /><polygon type="contour" points="15.901471,15.861576 16.194073,15.861576 16.194073,15.901472 16.193884,16.193886 15.939093,16.194055 15.901471,16.194074 15.861574,16.194074 15.861574,15.901473 15.861484,15.861485" style="fill: white" /><polygon type="contour" points="15.702571,15.901473 15.702571,16.194074 15.679052,16.194074 15.506824,16.194056 15.506572,15.901472 15.506594,15.861602 15.525388,15.861485 15.7026,15.861485" style="fill: white" /><polygon type="contour" points="14.855295,15.861602 14.855229,15.901472 14.855367,16.193886 14.278214,16.194206 14.269461,16.194206 14.276399,15.908403 14.277534,15.860769 14.277999,15.860769" style="fill: white" /><polygon type="contour" points="14.85544,15.506875 14.85544,15.548669 14.855295,15.702517 14.277299,15.702095 14.276828,15.702096 14.276834,15.701918 14.2758,15.674204 14.269936,15.51516 14.269568,15.506858 14.281335,15.506858" style="fill: white" /><polygon type="contour" points="14.855209,14.273198 14.85544,14.855441 14.266247,14.855593 14.260264,14.855578 14.275824,14.491289 14.279931,14.394942 14.346081,14.391145 14.385205,14.385204 14.391143,14.346085 14.394939,14.279932 14.644883,14.275561 14.855213,14.271917" style="fill: white" /><polygon type="contour" points="15.674201,14.275803 15.702093,14.27683 15.702092,14.277302 15.702517,14.855297 15.548668,14.855441 15.506874,14.855441 15.506855,14.281339 15.506855,14.269571" style="fill: white" /><polygon type="contour" points="16.193136,14.277933 16.193884,14.855369 16.102908,14.85554 15.861601,14.855297 15.861484,14.805859 15.861574,14.32417 15.861475,14.283178 16.084814,14.27646 16.193142,14.273307" style="fill: white" /><polygon type="contour" points="17.015322,14.261029 17.014956,14.382462 17.014966,14.405261 17.01495,14.522138 17.064589,14.522354 17.065583,14.522372 17.110336,14.522439 17.110336,14.657135 17.10987,14.855172 17.065669,14.855015 17.01872,14.855219 16.984063,14.854968 16.969467,14.855237 16.920012,14.855441 16.863892,14.855441 16.777279,14.855084 16.777024,14.265045 16.777026,14.257759 17.00845,14.257272 17.015312,14.256924" style="fill: white" /><polygon type="contour" points="17.110242,2.02146 17.110242,2.054728 17.109778,2.26197 17.10987,2.355032 17.06567,2.354864 17.021302,2.354864 17.019803,2.354928 16.985915,2.354897 16.971479,2.354877 16.919876,2.354627 16.777076,2.354627 16.777076,2.304386 16.777074,2.211826 16.776825,2.160222 16.776804,2.145785 16.776772,2.111898 16.776838,2.066032 16.776655,2.063881 16.776608,2.021893 16.964947,2.021456 16.965803,2.021309" style="fill: white" /><polygon type="contour" points="16.919706,3.020079 16.919541,3.270219 16.902478,3.270128 16.776815,3.270128 16.777072,3.036351 16.777074,2.937817 16.919876,2.937817" style="fill: white" /><polygon type="contour" points="16.919596,3.450433 16.919736,3.624828 16.886466,3.624713 16.776968,3.624713 16.776968,3.579167 16.776814,3.429131 16.79043,3.429103 16.919542,3.429103" style="fill: white" /><polygon type="contour" points="16.969467,4.276467 16.984064,4.276735 17.01872,4.276486 17.021302,4.276689 17.06567,4.276689 17.067822,4.276546 17.10987,4.276532 17.110336,4.474568 17.110336,4.609264 17.014947,4.609441 17.015336,4.848876 17.015336,4.848961 16.949246,4.85566 16.777026,4.873947 16.777024,4.86666 16.77728,4.276621 16.829678,4.276621 16.920011,4.276263" style="fill: white" /><polygon type="contour" points="16.193884,4.276335 16.193136,4.85377 16.193142,4.858397 16.084813,4.855243 15.861475,4.848526 15.861574,4.807532 15.861601,4.276405 16.102907,4.276163" style="fill: white" /><polygon type="contour" points="15.702517,4.276405 15.702092,4.854401 15.702093,4.854874 15.701915,4.854868 15.674201,4.855901 15.515157,4.861765 15.506855,4.862134 15.506855,4.850364 15.506874,4.276263 15.548667,4.276263" style="fill: white" /><polygon type="contour" points="14.85544,4.276263 14.855209,4.858503 14.855213,4.859785 14.644883,4.85614 14.394939,4.85177 14.391143,4.78562 14.385205,4.746493 14.346082,4.740559 14.279975,4.736874 14.262226,4.321381 14.260264,4.276125 14.266247,4.27611" style="fill: white" /><polygon type="contour" points="14.855367,2.937817 14.855537,3.028794 14.855295,3.270102 14.277999,3.270935 14.277534,3.270935 14.277546,3.270523 14.276399,3.2233 14.269939,2.951607 14.269463,2.937499 14.278215,2.937499" style="fill: white" /><polygon type="contour" points="14.855295,3.450433 14.85544,3.624828 14.281336,3.624847 14.269568,3.624847 14.275799,3.457501 14.276828,3.429609 14.2773,3.42961 14.855295,3.429185" style="fill: white" /><polygon type="contour" points="15.702571,3.23023 15.7026,3.270219 15.681269,3.270102 15.506594,3.270102 15.506572,3.23023 15.506825,2.937648 15.552532,2.937648 15.702571,2.937628" style="fill: white" /><polygon type="contour" points="15.702517,3.450433 15.702517,3.625109 15.681269,3.625109 15.506874,3.624828 15.506874,3.583033 15.506594,3.429186 15.525387,3.429103 15.7026,3.429103" style="fill: white" /><polygon type="contour" points="15.901472,3.429131 16.194073,3.429132 16.194073,3.452566 16.194052,3.624713 15.901471,3.625047 15.861601,3.625109 15.861484,3.606314 15.861484,3.429103" style="fill: white" /><polygon type="contour" points="16.193886,2.937817 16.193884,3.036352 16.194073,3.270129 15.901471,3.270128 15.861484,3.270219 15.861574,3.23023 15.861574,2.937628 15.901471,2.937628" style="fill: white" /><polygon type="contour" points="16.193886,2.254144 16.193886,2.354626 16.095349,2.354626 15.861574,2.354887 15.861484,2.341272 15.861484,2.21216 16.111621,2.211996 16.193884,2.211827" style="fill: white" /><polygon type="contour" points="15.544377,2.212067 15.7026,2.21216 15.702571,2.229223 15.702571,2.354887 15.552533,2.354732 15.506825,2.354732 15.506874,2.324202 15.506874,2.211962" style="fill: white" /><polygon type="contour" points="14.855171,2.021831 14.855013,2.066032 14.855216,2.112982 14.854967,2.147635 14.855235,2.162232 14.85544,2.211686 14.85544,2.267807 14.855081,2.35442 14.270667,2.354756 14.267622,2.354764 14.2739,2.257928 14.282643,2.1166 14.28278,2.116596 14.522137,2.116748 14.522354,2.067111 14.522371,2.066118 14.522438,2.021365 14.657134,2.021365" style="fill: white" /><polygon type="contour" points="4.609439,2.116749 4.726441,2.116734 4.74924,2.116743 4.870673,2.116379 4.874778,2.116387 4.864369,2.352626 4.864078,2.354764 4.861032,2.354756 4.276619,2.35442 4.276619,2.302021 4.276261,2.211686 4.276465,2.162232 4.276733,2.147635 4.276485,2.112982 4.276687,2.110402 4.276687,2.066032 4.276544,2.06388 4.27653,2.021831 4.474566,2.021365 4.609262,2.021365" style="fill: white" /><polygon type="contour" points="4.855298,3.223301 4.854165,3.270935 4.853699,3.270935 4.276403,3.270102 4.27647,3.23023 4.276332,2.937817 4.853486,2.937498 4.862239,2.937498" style="fill: white" /><polygon type="contour" points="4.8544,3.42961 4.854873,3.429609 4.854867,3.429786 4.8559,3.4575 4.861764,3.616543 4.862132,3.624847 4.850363,3.624847 4.276261,3.624828 4.276261,3.583032 4.276403,3.429186" style="fill: white" /><polygon type="contour" points="4.871438,4.276125 4.855876,4.640414 4.851769,4.736761 4.785617,4.740559 4.746491,4.746493 4.740556,4.78562 4.736759,4.85177 4.486814,4.85614 4.276485,4.859785 4.276489,4.858503 4.276261,4.276263 4.865454,4.27611" style="fill: white" /><polygon type="contour" points="2.354418,4.276621 2.35468,4.86666 2.354677,4.873947 2.182455,4.855661 2.116365,4.848961 2.116365,4.848876 2.116746,4.609565 2.06711,4.609349 2.066115,4.609331 2.021363,4.609264 2.021363,4.474568 2.02183,4.276532 2.06603,4.27669 2.112981,4.276486 2.147634,4.276734 2.162231,4.276466 2.211685,4.276262 2.267805,4.276262" style="fill: white" /><polygon type="contour" points="2.229221,3.429131 2.354886,3.429131 2.354886,3.452566 2.35473,3.624713 2.324202,3.624827 2.21196,3.624827 2.212065,3.587323 2.212159,3.429103" style="fill: white" /><polygon type="contour" points="2.354625,3.036351 2.354886,3.270128 2.34127,3.270219 2.212159,3.270219 2.211994,3.020079 2.211826,2.937817 2.354625,2.937817" style="fill: white" /><polygon type="contour" points="2.166751,2.021456 2.355092,2.021893 2.354862,2.066032 2.354862,2.110401 2.354927,2.111898 2.354896,2.145786 2.354876,2.160223 2.354625,2.211827 2.354625,2.354627 2.211825,2.354627 2.160222,2.354876 2.145784,2.354897 2.111896,2.354928 2.06603,2.354864 2.063879,2.355046 2.02183,2.355032 2.021921,2.261971 2.021458,2.054728 2.021458,2.02146 2.165893,2.021309" style="fill: white" /><polygon type="contour" points="3.020077,2.211995 3.270217,2.21216 3.270127,2.229223 3.270127,2.354887 3.03635,2.354626 2.937815,2.354626 2.937815,2.211827" style="fill: white" /><polygon type="contour" points="3.624712,2.245232 3.624712,2.354732 3.579166,2.354732 3.429129,2.354887 3.429101,2.341272 3.429101,2.21216 3.58732,2.212067 3.624826,2.211962" style="fill: white" /><polygon type="contour" points="3.624712,2.937648 3.625045,3.23023 3.625107,3.270102 3.606312,3.270219 3.429101,3.270219 3.42913,3.23023 3.42913,2.937628 3.452565,2.937628" style="fill: white" /><polygon type="contour" points="3.270127,3.23023 3.270217,3.270219 3.230229,3.270128 2.937626,3.270128 2.937626,3.23023 2.937815,2.937817 3.192605,2.937648 3.230229,2.937628 3.270127,2.937628" style="fill: white" /><polygon type="contour" points="3.450431,3.429186 3.625107,3.429186 3.625107,3.450433 3.624826,3.624828 3.583031,3.624828 3.429184,3.625109 3.429101,3.606314 3.429101,3.429103" style="fill: white" /><polygon type="contour" points="3.2701,3.450433 3.2701,3.625109 3.230229,3.625047 2.937647,3.624712 2.937626,3.452565 2.937626,3.429131 3.230228,3.429131 3.270217,3.429103" style="fill: white" /><polygon type="contour" points="3.2701,4.276404 3.270217,4.325842 3.270126,4.807532 3.270224,4.848526 3.046884,4.855244 2.938557,4.858397 2.938563,4.85377 2.937815,4.276335 3.028793,4.276163" style="fill: white" /><polygon type="contour" points="3.624846,4.850365 3.624846,4.862134 3.457499,4.855902 3.429607,4.854874 3.429608,4.854401 3.429184,4.276405 3.58303,4.276263 3.624826,4.276263" style="fill: white" /><polygon type="contour" points="2.349783,14.25744 2.354677,14.257759 2.35468,14.265045 2.354418,14.855084 2.302019,14.855084 2.211686,14.855442 2.162231,14.855237 2.147634,14.854968 2.112982,14.855219 2.1104,14.855015 2.06603,14.855015 2.063879,14.855157 2.02183,14.855171 2.021363,14.657135 2.021363,14.522439 2.116747,14.522263 2.116732,14.40526 2.116742,14.382462 2.116378,14.261029 2.116386,14.256924" style="fill: white" /><polygon type="contour" points="3.046884,14.27646 3.270224,14.283178 3.270126,14.324171 3.2701,14.855297 3.028793,14.855539 2.937815,14.855368 2.938563,14.277933 2.938557,14.273307" style="fill: white" /><polygon type="contour" points="3.624846,14.281338 3.624826,14.855441 3.58303,14.855441 3.429183,14.855297 3.429608,14.277302 3.429607,14.27683 3.429784,14.276837 3.457498,14.275803 3.616542,14.269939 3.624846,14.269571" style="fill: white" /><polygon type="contour" points="4.486814,14.275561 4.736758,14.279932 4.740557,14.346085 4.746492,14.385204 4.785617,14.391145 4.851724,14.394828 4.869475,14.810323 4.871438,14.855578 4.865454,14.855593 4.27626,14.855441 4.276489,14.273198 4.276485,14.271917" style="fill: white" /><polygon type="contour" points="4.855901,15.674203 4.854873,15.702096 4.854401,15.702095 4.276403,15.702518 4.276403,15.681271 4.276261,15.506875 4.850364,15.506858 4.862132,15.506858" style="fill: white" /><polygon type="contour" points="4.854153,15.86118 4.855298,15.908402 4.861764,16.180097 4.862239,16.194206 4.853485,16.194206 4.276332,16.193886 4.276161,16.102908 4.276403,15.861601 4.853699,15.860769 4.854165,15.860769" style="fill: white" /><polygon type="contour" points="4.873821,17.004579 4.874779,17.015312 4.870673,17.015322 4.74924,17.01496 4.72644,17.014968 4.609563,17.014952 4.609347,17.064591 4.609329,17.065586 4.609262,17.110338 4.474566,17.11034 4.27653,17.109874 4.276687,17.065671 4.276485,17.01872 4.276734,16.984068 4.276466,16.969471 4.276261,16.920015 4.276261,16.863896 4.276619,16.777282 4.861032,16.776948 4.864078,16.776941" style="fill: white" /><polygon type="contour" points="3.579166,16.776972 3.624712,16.776972 3.624826,16.807499 3.624826,16.91974 3.587321,16.919634 3.429101,16.919544 3.42913,16.902479 3.42913,16.776817" style="fill: white" /><polygon type="contour" points="3.270217,16.790431 3.270217,16.919544 3.020077,16.919708 2.937815,16.919878 2.937815,16.777075 3.03635,16.777075 3.270127,16.776817" style="fill: white" /><polygon type="contour" points="3.270127,15.901473 3.270127,16.194074 3.230229,16.194074 2.937815,16.193886 2.937815,16.095351 2.937626,15.861576 3.230229,15.861576 3.270217,15.861485" style="fill: white" /><polygon type="contour" points="3.450431,15.861602 3.625107,15.861602 3.625045,15.901473 3.624712,16.194056 3.579166,16.194056 3.42913,16.194074 3.42913,15.901473 3.429101,15.861485" style="fill: white" /><polygon type="contour" points="3.624826,15.506875 3.624826,15.548669 3.625107,15.702518 3.606312,15.702601 3.429101,15.702601 3.429184,15.68127 3.429184,15.506595 3.450431,15.506595" style="fill: white" /><polygon type="contour" points="3.2701,15.506595 3.270217,15.525389 3.270217,15.702601 3.230228,15.702572 2.937626,15.702572 2.937626,15.679054 2.937647,15.506826 3.230228,15.506573" style="fill: white" /><polygon type="contour" points="2.35473,15.552533 2.354886,15.702572 2.341271,15.702601 2.212158,15.702601 2.212104,15.68127 2.21196,15.506875 2.245229,15.506826 2.35473,15.506826" style="fill: white" /><polygon type="contour" points="2.22922,15.861576 2.354886,15.861576 2.354625,16.095351 2.354625,16.193886 2.211826,16.193886 2.211995,16.111622 2.212159,15.861485" style="fill: white" /><polygon type="contour" points="2.066029,16.77684 2.1104,16.77684 2.111896,16.776776 2.145784,16.776806 2.160221,16.776825 2.211826,16.777077 2.354625,16.777077 2.354625,16.919877 2.354876,16.971482 2.354896,16.985917 2.354927,17.019806 2.354862,17.065672 2.355045,17.067823 2.355092,17.10981 2.166752,17.110248 2.165894,17.110396 2.021458,17.110244 2.021458,17.076975 2.021921,16.869731 2.02183,16.776671" style="fill: white" />
</svg>
