<svg width="19.131698" height="19.131699">
<polygon type="contour" points="10.877936,10.615521 10.878593,10.878595 10.813536,10.876755 10.605113,10.879456 10.603996,10.842853 10.603996,10.807712 10.603829,10.804465 10.602781,10.62769 10.602781,10.602782 10.876641,10.602782" style="fill: white" /><polygon type="contour" points="10.708655,10.171591 10.708518,10.246397 10.708634,10.246397 10.708618,10.256824 10.708844,10.342696 10.602116,10.342696 10.602067,10.256824 10.602067,10.183103 10.602066,10.183103 10.602271,10.10362 10.602349,10.077958 10.709093,10.077958" style="fill: white" /><polygon type="contour" points="10.813536,8.254949 10.878593,8.253108 10.877311,8.300187 10.876219,8.354953 10.875877,8.376674 10.876372,8.528922 10.602781,8.528922 10.603829,8.374714 10.603829,8.327238 10.603996,8.28885 10.604206,8.284998 10.605113,8.252248" style="fill: white" /><polygon type="contour" points="10.708844,8.78847 10.708618,8.874879 10.708634,8.885306 10.708518,8.885306 10.708655,8.960112 10.709093,9.053746 10.601487,9.053746 10.601719,8.960112 10.60398,8.885321 10.602067,8.885324 10.602243,8.810681 10.602243,8.788361 10.627151,8.788361" style="fill: white" /><polygon type="contour" points="10.87797,9.467148 10.878505,9.488859 10.878978,9.514185 10.879785,9.53021 10.880199,9.566202 10.879786,9.602044 10.878978,9.618027 10.878506,9.643287 10.87797,9.664945 10.876802,9.821908 10.802899,9.821908 10.624794,9.821726 10.602935,9.821726 10.602225,9.731306 10.602225,9.309978 10.624794,9.309978 10.802899,9.309796 10.876802,9.309796" style="fill: white" /><polygon type="contour" points="10.343998,9.400954 10.343998,9.821169 10.257341,9.820597 10.246393,9.820597 10.246393,9.820283 10.103807,9.82099 10.077956,9.82099 10.077956,9.310714 10.171589,9.311107 10.183074,9.311107 10.183074,9.311575 10.3237,9.310535 10.343288,9.310535" style="fill: white" /><polygon type="contour" points="9.820689,8.866432 9.820436,8.916774 9.820989,9.027894 9.820989,9.053746 9.633789,9.053633 9.31062,9.053633 9.311021,8.969053 9.311226,8.918982 9.310836,8.811295 9.310701,8.788294 9.820996,8.788294" style="fill: white" /><polygon type="contour" points="10.171589,8.787704 10.246382,8.790276 10.246378,8.7881 10.32006,8.78847 10.342694,8.78847 10.343603,8.874878 10.343603,8.885325 10.343531,8.885325 10.343616,8.960112 10.342726,9.053273 10.256959,9.053628 10.246393,9.053628 10.246393,9.053533 10.103806,9.053746 10.077956,9.053746 10.078075,8.960112 10.078075,8.88531 10.078429,8.811295 10.078429,8.787612" style="fill: white" /><polygon type="contour" points="10.171589,8.423047 10.246396,8.423177 10.246397,8.423067 10.256824,8.423083 10.342694,8.422858 10.34334,8.50455 10.34334,8.52946 10.256823,8.529635 10.183102,8.529635 10.103618,8.529431 10.077956,8.529354 10.077956,8.422609" style="fill: white" /><polygon type="contour" points="9.566199,8.251513 9.618024,8.252724 9.643285,8.253196 9.664943,8.253732 9.711268,8.2543 9.821924,8.255125 9.822053,8.427079 9.822072,8.528851 9.446608,8.528548 9.347958,8.52845 9.31005,8.52845 9.310041,8.522068 9.309995,8.496631 9.309777,8.255125 9.420705,8.2543 9.467145,8.253732 9.488856,8.253196 9.514183,8.252725 9.541983,8.251458" style="fill: white" /><polygon type="contour" points="8.527705,8.288851 8.527705,8.323991 8.527871,8.327237 8.528919,8.504013 8.528919,8.528922 8.255057,8.528922 8.253762,8.516181 8.253107,8.253108 8.318163,8.254949 8.526587,8.252248" style="fill: white" /><polygon type="contour" points="9.053744,8.529354 8.960111,8.529601 8.920596,8.529717 8.810679,8.52946 8.78836,8.52946 8.78836,8.50455 8.788469,8.422858 8.874877,8.423083 8.885304,8.423067 8.885304,8.423177 8.96011,8.423047 9.053744,8.422609" style="fill: white" /><polygon type="contour" points="9.053626,8.874361 9.053626,8.960112 9.053271,8.973115 9.053744,9.053746 8.960111,9.053628 8.874741,9.053628 8.788438,9.053273 8.788083,8.960112 8.788174,8.885324 8.788098,8.885325 8.788469,8.811103 8.788469,8.78847 8.874876,8.7881 8.885322,8.7881 8.885322,8.790276 8.96011,8.787704 9.053271,8.787612" style="fill: white" /><polygon type="contour" points="8.529633,8.874878 8.529633,8.948602 8.529428,9.028084 8.530212,9.053746 8.422607,9.053746 8.423045,8.960112 8.423181,8.885306 8.423066,8.885306 8.423082,8.874878 8.422857,8.78847 8.504548,8.788361 8.529458,8.788361" style="fill: white" /><polygon type="contour" points="8.506905,9.309978 8.529474,9.309978 8.529474,9.821726 8.506905,9.821726 8.3288,9.821908 8.254898,9.821908 8.25373,9.664556 8.253192,9.642842 8.252722,9.617518 8.251915,9.601493 8.251502,9.565501 8.251915,9.529659 8.252722,9.513676 8.253193,9.488414 8.253729,9.466758 8.254898,9.309796 8.3288,9.309796" style="fill: white" /><polygon type="contour" points="9.053744,10.709095 8.96011,10.708657 8.885304,10.708526 8.885304,10.708637 8.874877,10.708621 8.788469,10.708846 8.788469,10.602118 8.874877,10.602069 8.948598,10.602069 9.028082,10.602273 9.053744,10.601488" style="fill: white" /><polygon type="contour" points="8.527871,10.756989 8.527871,10.804466 8.527705,10.842852 8.527494,10.846704 8.526587,10.879456 8.318163,10.876755 8.253107,10.878595 8.254388,10.831516 8.25548,10.77675 8.255822,10.75503 8.255325,10.602783 8.357873,10.602783 8.504011,10.602782 8.528919,10.602782" style="fill: white" /><polygon type="contour" points="8.529981,10.17159 8.52772,10.246382 8.529633,10.246379 8.529584,10.320063 8.529584,10.342696 8.422857,10.342696 8.423082,10.256824 8.423066,10.246398 8.423181,10.246398 8.423045,10.171591 8.422607,10.077958 8.530212,10.077958" style="fill: white" /><polygon type="contour" points="9.053744,9.82099 8.96011,9.820597 8.948626,9.820597 8.948626,9.820368 8.811294,9.820864 8.788438,9.820864 8.788438,9.310838 8.874741,9.311107 8.885307,9.311107 8.885307,9.31142 9.027892,9.310714 9.053744,9.310714" style="fill: white" /><polygon type="contour" points="9.053626,10.17159 9.053626,10.246393 9.053271,10.319871 9.053271,10.342727 8.96011,10.343618 8.885321,10.343533 8.885322,10.343605 8.811101,10.342696 8.788469,10.342696 8.788098,10.256824 8.788098,10.246379 8.788174,10.246379 8.788084,10.17159 8.788438,10.078431 8.87474,10.078077 8.885307,10.078077 8.885307,10.078172 9.027892,10.077958 9.053744,10.077958" style="fill: white" /><polygon type="contour" points="9.49791,10.078071 9.821081,10.078071 9.820678,10.162651 9.820473,10.212717 9.820861,10.319871 9.820861,10.342728 9.640049,10.342973 9.310702,10.342973 9.31101,10.265271 9.311263,10.21497 9.310712,10.103808 9.310712,10.077958" style="fill: white" /><polygon type="contour" points="9.821699,9.821701 9.310001,9.821701 9.310001,9.310004 9.821699,9.310004" style="fill: white" /><polygon type="contour" points="10.171589,10.078077 10.257342,10.078077 10.343555,10.078431 10.343999,10.171591 10.341426,10.246383 10.343603,10.246379 10.342694,10.320062 10.342694,10.342696 10.256823,10.343605 10.246378,10.343605 10.246378,10.343533 10.171589,10.343618 10.078429,10.342728 10.078075,10.256959 10.078075,10.17159 10.078429,10.158052 10.077956,10.077958" style="fill: white" /><polygon type="contour" points="10.171588,10.60172 10.246381,10.603981 10.246377,10.602069 10.320061,10.602118 10.342694,10.602118 10.342694,10.708846 10.256824,10.70862 10.246397,10.708636 10.246397,10.708526 10.171589,10.708657 10.077956,10.709095 10.077956,10.601488" style="fill: white" /><polygon type="contour" points="9.821797,10.628322 9.821924,10.710238 9.821924,10.876578 9.710995,10.877402 9.664554,10.877972 9.642842,10.878507 9.617517,10.878979 9.589716,10.880247 9.5655,10.880192 9.513674,10.878979 9.488413,10.878508 9.466756,10.877971 9.420431,10.877402 9.309777,10.876578 9.309777,10.710238 9.309939,10.603013 9.821761,10.603013" style="fill: white" />
</svg>
