<svg width="19.131698" height="19.131699">
<polygon type="contour" points="17.109626,17.5598 16.999593,17.559489 16.914128,17.55925 16.914128,17.489809 16.914244,17.417062 16.986755,17.416998 17.109626,17.416998" style="fill: white" /><polygon type="contour" points="17.749658,17.416458 17.749608,17.465728 17.750202,17.730927 17.750202,17.750204 17.666509,17.750292 17.666013,17.750206 17.416424,17.749626 17.416546,17.726258 17.416546,17.702767 17.416511,17.701973 17.416527,17.684034 17.416538,17.676389 17.416793,17.623492 17.416884,17.59177 17.416998,17.559801 17.416998,17.416998 17.559799,17.416998 17.591767,17.416884 17.62349,17.416795 17.676387,17.41654 17.684032,17.416529 17.701971,17.416514 17.726255,17.416548 17.727395,17.41645" style="fill: white" /><polygon type="contour" points="17.559485,16.999595 17.559798,17.109626 17.416998,17.109626 17.417062,17.027441 17.417062,16.914246 17.476798,16.914246 17.559248,16.91413" style="fill: white" /><polygon type="contour" points="17.109542,16.914246 17.109626,16.986757 17.109626,17.109626 17.02744,17.109544 16.914244,17.109544 16.914244,17.027441 16.914128,16.91413 17.009566,16.91413" style="fill: white" /><polygon type="contour" points="15.495191,16.975329 15.495191,17.109204 15.299898,17.109204 14.935993,17.109626 14.932132,16.993907 14.934908,16.914082 15.212333,16.914082 15.495219,16.913859" style="fill: white" /><polygon type="contour" points="15.495285,17.41689 15.495285,17.538193 15.495315,17.559614 15.495298,17.585539 15.495223,17.619526 15.494992,17.675326 15.49485,17.683054 15.494982,17.701399 15.494875,17.702767 15.494875,17.726257 15.49495,17.727397 15.494958,17.74966 15.240407,17.750258 15.162359,17.750258 15.16231,17.723752 15.162252,17.710349 15.162252,17.654952 15.023492,17.65504 15.005499,17.654594 14.927995,17.654538 14.926539,17.574997 14.930073,17.416952 15.329642,17.416864" style="fill: white" /><polygon type="contour" points="15.952484,17.416954 16.06628,17.417062 16.06628,17.4768 16.066213,17.55925 15.930975,17.559422 15.734633,17.55967 15.734633,17.41687" style="fill: white" /><polygon type="contour" points="16.066213,16.91413 16.066213,17.009568 16.06628,17.109543 15.854416,17.109162 15.734519,17.109204 15.734429,17.038687 15.734429,16.91386 15.854416,16.91386" style="fill: white" /><polygon type="contour" points="16.06692,15.212335 16.066482,15.49522 15.970645,15.495372 15.734633,15.495372 15.73473,15.310562 15.73473,14.937611 15.857949,14.940872 16.066744,14.935712" style="fill: white" /><polygon type="contour" points="15.495249,15.328734 15.495315,15.495316 15.326091,15.495308 15.235036,15.495227 14.942572,15.495227 14.931715,15.32791 14.945996,15.142587 14.939701,14.939703 15.142587,14.945998 15.495249,14.932654" style="fill: white" /><polygon type="contour" points="15.49537,15.970647 15.495219,16.066483 15.21271,16.066165 14.935286,16.066165 14.94077,15.851332 14.937926,15.734761 15.115585,15.734761 15.49537,15.734634" style="fill: white" /><polygon type="contour" points="16.066482,15.854417 16.066213,16.066215 15.903722,16.066215 15.734429,16.066484 15.734429,15.854416 15.734519,15.839102 15.734633,15.734634 15.854415,15.734431 16.066482,15.734431" style="fill: white" /><polygon type="contour" points="16.975328,15.73452 17.1092,15.73452 17.109158,15.854417 17.109542,16.066283 17.027439,16.066283 16.914128,16.066215 16.914128,15.903726 16.913858,15.734431" style="fill: white" /><polygon type="contour" points="17.559515,15.854417 17.559248,16.066215 17.489808,16.066215 17.417062,16.066283 17.416954,15.952486 17.416868,15.734634 17.559668,15.734634" style="fill: white" /><polygon type="contour" points="17.654972,14.984398 17.65495,15.162252 17.710348,15.162252 17.72375,15.162311 17.724326,15.16232 17.750256,15.162359 17.750256,15.240406 17.749658,15.49496 17.726256,15.494877 17.701397,15.494984 17.68305,15.494852 17.675323,15.494994 17.619524,15.495224 17.585535,15.495299 17.55961,15.495316 17.437411,15.495316 17.416886,15.495286 17.41688,15.325966 17.416886,15.203969 17.416944,14.943058 17.579066,14.94493 17.654964,14.937474" style="fill: white" /><polygon type="contour" points="17.109626,14.935996 17.109626,15.166265 17.1092,15.495193 17.038684,15.49522 16.913858,15.49522 16.914078,15.212335 16.914078,14.93491 16.993905,14.932135" style="fill: white" /><polygon type="contour" points="17.585535,3.636407 17.619523,3.636479 17.675323,3.636709 17.68305,3.636852 17.701398,3.63672 17.702766,3.636828 17.726255,3.636828 17.727396,3.636752 17.749658,3.636745 17.750256,3.891295 17.750256,3.969344 17.72375,3.969392 17.710347,3.969451 17.654948,3.969451 17.655172,4.108183 17.655111,4.126383 17.65495,4.203618 17.510288,4.189785 17.416944,4.188645 17.416886,3.927734 17.416886,3.636419 17.538191,3.636419 17.55961,3.636389" style="fill: white" /><polygon type="contour" points="16.975328,3.636512 17.1092,3.636512 17.1092,3.831805 17.109625,4.195708 16.993905,4.19957 16.914078,4.196794 16.914078,3.919368 16.913858,3.636485" style="fill: white" /><polygon type="contour" points="17.109158,3.277287 17.1092,3.397185 17.038684,3.397273 16.913858,3.397273 16.913858,3.277287 16.914127,3.065489 17.009566,3.065489 17.109542,3.065422" style="fill: white" /><polygon type="contour" points="17.559248,3.065489 17.559419,3.200723 17.559668,3.397071 17.416868,3.397071 17.416954,3.179217 17.417062,3.065422 17.476798,3.065422" style="fill: white" /><polygon type="contour" points="17.750202,1.3815 17.750202,1.400776 17.749608,1.665974 17.749658,1.715245 17.726255,1.715156 17.702765,1.715156 17.701971,1.71519 17.684032,1.715174 17.676388,1.715163 17.62349,1.714906 17.591767,1.714816 17.5598,1.714704 17.416998,1.714704 17.416998,1.571903 17.416884,1.539933 17.416793,1.508211 17.416538,1.455314 17.416528,1.447671 17.416512,1.429729 17.416546,1.405446 17.416448,1.404307 17.416424,1.382077 17.666014,1.381498 17.66651,1.381412" style="fill: white" /><polygon type="contour" points="17.559485,2.132107 17.559248,2.217575 17.489808,2.217575 17.417062,2.217459 17.416998,2.144945 17.416998,2.022075 17.559798,2.022075" style="fill: white" /><polygon type="contour" points="17.109626,1.714704 17.027439,1.714935 16.914244,1.714935 16.914244,1.654901 16.914128,1.572452 16.999593,1.572213 17.109626,1.571903" style="fill: white" /><polygon type="contour" points="17.109542,2.104262 17.109542,2.217459 17.027439,2.217459 16.914128,2.217575 16.914128,2.122134 16.914244,2.022159 16.986756,2.022075 17.109626,2.022075" style="fill: white" /><polygon type="contour" points="15.495191,2.022499 15.495219,2.093018 15.495219,2.217843 15.212332,2.217623 14.934908,2.217623 14.932132,2.137793 14.935993,2.022075 15.166262,2.022075" style="fill: white" /><polygon type="contour" points="15.494958,1.382044 15.494875,1.405445 15.494982,1.430304 15.49485,1.44865 15.494992,1.456377 15.495223,1.512176 15.495298,1.546165 15.495315,1.572088 15.495315,1.694287 15.495285,1.714812 15.069428,1.714704 14.930032,1.714825 14.93137,1.6435 14.927995,1.477166 15.005499,1.47711 15.023492,1.476662 15.162252,1.47675 15.162252,1.421352 15.16231,1.407951 15.16232,1.407375 15.162359,1.381445 15.240407,1.381445" style="fill: white" /><polygon type="contour" points="15.854415,1.572184 16.066213,1.572452 16.066213,1.642236 16.06628,1.714935 15.952485,1.714748 15.734633,1.714832 15.734633,1.572033" style="fill: white" /><polygon type="contour" points="16.06628,2.104261 16.066212,2.217575 15.903721,2.217575 15.734429,2.217843 15.734519,2.15637 15.734519,2.022499 15.854415,2.022543 16.06628,2.022159" style="fill: white" /><polygon type="contour" points="16.066213,3.065489 16.066213,3.227975 16.066482,3.397273 15.970645,3.397071 15.734633,3.397071 15.734429,3.277287 15.734429,3.06522 15.854416,3.06522" style="fill: white" /><polygon type="contour" points="15.49537,3.161055 15.49537,3.397071 15.312287,3.397071 14.937926,3.396942 14.930625,3.191424 14.935286,3.065539 15.21271,3.065539 15.495219,3.06522" style="fill: white" /><polygon type="contour" points="15.854415,3.636485 16.066481,3.636485 16.06692,3.919368 16.066744,4.195992 15.93984,4.201122 15.73473,4.194093 15.734633,4.011267 15.734633,3.636333" style="fill: white" /><polygon type="contour" points="15.495249,3.80297 15.495249,4.19905 15.327909,4.199986 15.142587,4.185705 14.939701,4.192001 14.945995,3.989116 14.942572,3.636478 15.235036,3.636478 15.326091,3.636397 15.495315,3.636389" style="fill: white" /><polygon type="contour" points="3.396972,3.821142 3.396972,4.194093 3.273752,4.190832 3.064956,4.195992 3.06478,3.919368 3.065218,3.636485 3.161054,3.636333 3.397069,3.636333" style="fill: white" /><polygon type="contour" points="3.805609,3.636397 3.896664,3.636478 4.189127,3.636478 4.199984,3.803795 4.185703,3.989115 4.191999,4.192001 3.989113,4.185705 3.636452,4.19905 3.636452,3.80297 3.636387,3.636389" style="fill: white" /><polygon type="contour" points="3.39727,3.277287 3.397183,3.292602 3.397069,3.39707 3.277285,3.397273 3.065218,3.397273 3.065218,3.277287 3.065487,3.065489 3.227973,3.065489 3.39727,3.06522" style="fill: white" /><polygon type="contour" points="3.918987,3.065539 4.196412,3.065539 4.19093,3.28037 4.193774,3.396942 4.016114,3.396942 3.636331,3.397071 3.636331,3.161056 3.636483,3.06522" style="fill: white" /><polygon type="contour" points="4.199568,2.137793 4.196792,2.217623 3.919367,2.217623 3.636483,2.217843 3.63651,2.15637 3.63651,2.022499 3.831803,2.022499 4.195706,2.022075" style="fill: white" /><polygon type="contour" points="3.969391,1.407951 3.969449,1.421352 3.969449,1.476751 4.147303,1.476729 4.194227,1.476736 4.186771,1.552636 4.201626,1.714749 3.802058,1.714837 3.636417,1.714813 3.636417,1.593509 3.636387,1.572088 3.636404,1.546165 3.636478,1.512175 3.636709,1.456377 3.63685,1.44865 3.636719,1.430304 3.636826,1.428937 3.636826,1.405445 3.63675,1.404306 3.636743,1.382044 3.891293,1.381445 3.969342,1.381445" style="fill: white" /><polygon type="contour" points="3.397069,1.714832 3.179214,1.714748 3.065421,1.714935 3.065419,1.654901 3.065487,1.572452 3.200722,1.572281 3.397069,1.572033" style="fill: white" /><polygon type="contour" points="3.277286,2.022543 3.397182,2.022499 3.39727,2.093018 3.39727,2.217843 3.277285,2.217843 3.065487,2.217575 3.065487,2.122134 3.06542,2.022159" style="fill: white" /><polygon type="contour" points="1.465686,1.381498 1.715276,1.382076 1.715155,1.405445 1.715155,1.428937 1.715188,1.429729 1.715172,1.447671 1.715162,1.455315 1.714904,1.508211 1.714816,1.539932 1.714703,1.571903 1.714703,1.714704 1.571901,1.714704 1.539931,1.714817 1.508211,1.714905 1.455312,1.715163 1.447669,1.715173 1.429727,1.71519 1.405443,1.715155 1.404304,1.715252 1.382042,1.715245 1.382091,1.665975 1.381498,1.400777 1.381498,1.3815 1.465189,1.381411" style="fill: white" /><polygon type="contour" points="2.132104,1.572212 2.217572,1.572452 2.217573,1.642236 2.217456,1.714935 2.144942,1.714704 2.022073,1.714704 2.022073,1.571903" style="fill: white" /><polygon type="contour" points="1.714933,2.104261 1.714933,2.217459 1.6549,2.217459 1.572451,2.217575 1.572071,2.082347 1.571902,2.022075 1.714703,2.022075" style="fill: white" /><polygon type="contour" points="2.10426,2.022159 2.217457,2.022159 2.217457,2.104262 2.217573,2.217575 2.122132,2.217575 2.022158,2.217459 2.022073,2.144944 2.022073,2.022075" style="fill: white" /><polygon type="contour" points="2.217573,3.065489 2.217573,3.227975 2.21784,3.397273 2.156368,3.397185 2.022497,3.397185 2.022541,3.277287 2.022158,3.065422 2.104259,3.065422" style="fill: white" /><polygon type="contour" points="1.714745,3.179216 1.714831,3.397071 1.572032,3.397071 1.572182,3.277288 1.572451,3.065489 1.642234,3.065489 1.714933,3.065422" style="fill: white" /><polygon type="contour" points="1.714811,3.636419 1.714811,3.759911 1.714812,3.927735 1.714756,4.188645 1.643498,4.200331 1.476751,4.203618 1.476589,4.126383 1.476528,4.108182 1.476748,3.969451 1.42135,3.969451 1.40795,3.969392 1.407373,3.969383 1.381443,3.969344 1.381443,3.891295 1.382042,3.636745 1.405443,3.636828 1.430302,3.636721 1.448648,3.636852 1.456377,3.636711 1.512175,3.636478 1.546164,3.636407 1.572087,3.636389 1.694285,3.636389" style="fill: white" /><polygon type="contour" points="2.217621,3.919368 2.217621,4.196794 2.137793,4.19957 2.022073,4.195708 2.022073,3.965438 2.022497,3.636512 2.093015,3.636485 2.217841,3.636485" style="fill: white" /><polygon type="contour" points="2.217621,14.93491 2.217621,15.212335 2.217841,15.49522 2.156368,15.495193 2.022497,15.495193 2.022497,15.299899 2.022073,14.935996 2.137793,14.932135" style="fill: white" /><polygon type="contour" points="1.714756,14.943058 1.714813,15.203968 1.714818,15.325966 1.71481,15.495286 1.593508,15.495286 1.572087,15.495316 1.546164,15.495299 1.512174,15.495225 1.456376,15.494993 1.448648,15.494852 1.430302,15.494984 1.428935,15.494877 1.405444,15.494877 1.404304,15.494952 1.382042,15.49496 1.381443,15.240406 1.381443,15.162359 1.40795,15.162311 1.42135,15.162252 1.476748,15.162252 1.476727,14.984398 1.476734,14.937473 1.619767,14.93274" style="fill: white" /><polygon type="contour" points="1.714745,15.952487 1.714933,16.066283 1.654901,16.066283 1.572451,16.066215 1.572279,15.930978 1.572032,15.734634 1.714831,15.734634" style="fill: white" /><polygon type="contour" points="2.217841,15.854417 2.217573,16.066215 2.122133,16.066215 2.022158,16.066283 2.022541,15.854417 2.022497,15.73452 2.093016,15.734431 2.217841,15.734431" style="fill: white" /><polygon type="contour" points="3.161054,15.734634 3.397069,15.734634 3.39727,15.854417 3.39727,16.066484 3.277285,16.066484 3.065487,16.066215 3.065487,15.903726 3.065218,15.734431" style="fill: white" /><polygon type="contour" points="3.396972,14.937611 3.397069,15.120436 3.397069,15.495372 3.277286,15.49522 3.065218,15.49522 3.06478,15.212335 3.064956,14.935712 3.191859,14.930581" style="fill: white" /><polygon type="contour" points="3.989114,14.945998 4.191999,14.939703 4.185703,15.142587 4.189128,15.495227 3.896664,15.495227 3.805609,15.495308 3.636387,15.495316 3.636452,15.328734 3.636452,14.932654 3.803792,14.931718" style="fill: white" /><polygon type="contour" points="4.193774,15.734761 4.201074,15.940278 4.196411,16.066165 3.918987,16.066165 3.636483,16.066483 3.636331,15.970646 3.636331,15.734634 3.819414,15.734634" style="fill: white" /><polygon type="contour" points="4.201626,17.416952 4.186771,17.579067 4.194227,17.654966 4.147303,17.654974 3.969449,17.654952 3.969449,17.710349 3.96939,17.723752 3.969381,17.724328 3.969342,17.750258 3.891294,17.75026 3.636743,17.74966 3.636826,17.726258 3.636719,17.701399 3.636851,17.683054 3.636709,17.675326 3.636477,17.619525 3.636404,17.58554 3.636387,17.559614 3.636387,17.437415 3.636417,17.41689 3.802058,17.416864" style="fill: white" /><polygon type="contour" points="3.919366,16.914082 4.196792,16.914082 4.199568,16.993907 4.195706,17.109626 3.965436,17.109626 3.63651,17.109204 3.636483,17.038688 3.636483,16.913859" style="fill: white" /><polygon type="contour" points="3.397183,16.975329 3.397183,17.109204 3.277285,17.109162 3.065421,17.109544 3.065421,17.027442 3.065487,16.91413 3.227973,16.91413 3.39727,16.91386" style="fill: white" /><polygon type="contour" points="3.397069,17.55967 3.277286,17.55952 3.065487,17.55925 3.065487,17.489809 3.065421,17.417062 3.179215,17.416954 3.397069,17.41687" style="fill: white" /><polygon type="contour" points="2.104259,17.417062 2.217457,17.417062 2.217457,17.4768 2.217573,17.55925 2.132105,17.559489 2.022073,17.5598 2.022073,17.416998" style="fill: white" /><polygon type="contour" points="2.217573,17.009568 2.217457,17.109544 2.144942,17.109626 2.022073,17.109626 2.022158,17.027442 2.022158,16.914246 2.10426,16.914246 2.217573,16.91413" style="fill: white" /><polygon type="contour" points="1.714933,16.914246 1.714703,16.986757 1.714703,17.109626 1.571902,17.109626 1.572071,17.049355 1.572451,16.91413 1.642234,16.91413" style="fill: white" /><polygon type="contour" points="1.405443,17.416548 1.428935,17.416548 1.429727,17.416514 1.447669,17.41653 1.455313,17.41654 1.508211,17.416796 1.539931,17.416883 1.571901,17.416998 1.714703,17.416998 1.714703,17.559802 1.714815,17.591769 1.714904,17.623492 1.715162,17.67639 1.715173,17.684034 1.715189,17.701973 1.715155,17.726257 1.715251,17.727397 1.715276,17.749626 1.465686,17.750206 1.465189,17.750292 1.381498,17.750204 1.381498,17.730927 1.382091,17.465727 1.382042,17.416458" style="fill: white" />
</svg>
