<svg width="19.131698" height="19.131699">
<polygon type="contour" points="4.117543,3.80221 4.13545,3.802252 4.135225,3.845489 4.135369,3.874061 4.135369,3.920679 4.135349,3.955031 4.135349,4.135351 3.95503,4.135351 3.886281,4.135337 3.802107,4.135309 3.802319,3.920395 3.802216,3.874419 3.802216,3.802218 4.115681,3.80189" style="fill: white" /><polygon type="contour" points="13.15137,10.337133 13.15137,10.336672 13.258574,10.337081 13.369102,10.337081 13.451952,10.336402 13.4867,10.336402 13.486701,10.451083 13.486701,10.553721 13.4867,10.637254 13.4867,10.672002 13.372726,10.671325 13.269377,10.671325 13.186046,10.672002 13.074914,10.671136 13.074914,10.671732 12.964526,10.671732 12.904013,10.672002 12.904114,10.557347 12.904119,10.548111 12.903406,10.463819 12.903406,10.459185 12.903003,10.363734 12.902986,10.336402 13.030223,10.336402" style="fill: white" /><polygon type="contour" points="13.8299,9.733795 13.7466,9.733795 13.7466,9.397909 13.8299,9.397909" style="fill: white" /><polygon type="contour" points="13.8299,10.076502 13.7466,10.076502 13.7466,9.993202 13.8299,9.993202" style="fill: white" /><polygon type="contour" points="13.4867,10.051888 13.4867,10.076502 12.902493,10.076502 12.902493,9.993202 13.486701,9.993202" style="fill: white" /><polygon type="contour" points="13.15137,9.398082 13.15137,9.397973 13.264079,9.398402 13.369102,9.398402 13.451952,9.397909 13.4867,9.397909 13.486701,9.512403 13.486701,9.615701 13.4867,9.699048 13.4867,9.733795 13.372699,9.733302 13.269398,9.733302 13.186055,9.733795 13.074914,9.733593 13.074914,9.733732 12.963236,9.733732 12.901999,9.733795 12.902025,9.619297 12.902001,9.607524 12.900753,9.592904 12.900753,9.566201 12.902,9.524951 12.902,9.524201 12.902027,9.524201 12.902001,9.397909 13.030223,9.397909" style="fill: white" /><polygon type="contour" points="15.329483,3.802217 15.329483,3.874419 15.329379,3.920395 15.329594,4.135309 15.265613,4.135065 15.245418,4.135338 15.216942,4.135299 15.176667,4.135351 14.996351,4.135351 14.996351,3.955031 14.99633,3.874061 14.99625,3.802252 15.014156,3.80221 15.016016,3.801889" style="fill: white" /><polygon type="contour" points="15.139199,4.447102 14.996351,4.447102 14.996351,4.363802 15.139199,4.363802" style="fill: white" /><polygon type="contour" points="15.139199,4.706508 15.139237,4.812626 15.139239,4.820953 15.13924,4.821003 15.139237,4.822347 15.139237,4.920342 15.139118,5.014571 15.139199,5.041902 14.996351,5.041902 14.996428,4.936492 14.996428,4.824529 14.996351,4.777554 14.996351,4.706301 15.052628,4.706301" style="fill: white" /><polygon type="contour" points="15.139199,5.385102 14.996351,5.385102 14.996351,5.301801 15.139199,5.301801" style="fill: white" /><polygon type="contour" points="15.13924,5.759003 15.139237,5.760347 15.139237,5.865262 15.139241,5.867619 15.139237,5.873627 15.139214,5.908171 15.139214,6.056787 15.19763,6.056787 15.245419,6.056837 15.329594,6.056809 15.32969,6.097584 15.32969,6.389912 15.255267,6.39005 15.245419,6.390038 15.200831,6.389957 15.189928,6.389958 15.063217,6.389958 14.996351,6.390052 14.996351,5.980602 14.996428,5.874565 14.996428,5.762601 14.996351,5.716255 14.996351,5.645002 15.139199,5.645002" style="fill: white" /><polygon type="contour" points="14.7679,6.389958 14.6846,6.389958 14.6846,5.645002 14.7679,5.645002" style="fill: white" /><polygon type="contour" points="15.139244,6.588591 15.138882,6.69208 15.138859,6.709785 15.139243,6.792852 15.139118,6.88106 15.139118,6.89127 15.139199,6.918602 14.996352,6.918602 14.996442,6.792801 14.996428,6.792801 14.996702,6.718168 14.996702,6.699979 14.996351,6.654255 14.996351,6.583003 15.139244,6.583003" style="fill: white" /><polygon type="contour" points="15.139199,7.261802 15.052628,7.261801 14.996351,7.261801 14.996351,7.178502 15.139199,7.178502" style="fill: white" /><polygon type="contour" points="15.139199,7.521702 15.13924,7.635703 15.139222,7.643702 15.139349,7.676247 15.139247,7.7308 15.139241,7.7308 15.13906,7.860802 14.996351,7.860802 14.996428,7.751626 14.996428,7.639227 14.996351,7.592531 14.996351,7.521278 15.052628,7.521278" style="fill: white" /><polygon type="contour" points="14.7679,7.739 14.767965,7.742754 14.768524,7.860802 14.684185,7.860802 14.684556,7.742755 14.6846,7.738999 14.6846,7.521702 14.7679,7.521702" style="fill: white" /><polygon type="contour" points="14.390652,7.521702 14.425193,7.521702 14.424701,7.635703 14.424701,7.739 14.425193,7.824814 14.4254,7.860802 14.310749,7.860122 14.207401,7.860122 14.124747,7.860802 14.089801,7.860802 14.089799,7.742754 14.089799,7.639301 14.0898,7.556448 14.0898,7.521702 14.203804,7.521701 14.307122,7.521701" style="fill: white" /><polygon type="contour" points="14.425193,7.261802 14.0898,7.261802 14.0898,7.178502 14.425193,7.178502" style="fill: white" /><polygon type="contour" points="14.7679,7.261802 14.6846,7.261802 14.6846,7.178502 14.7679,7.178502" style="fill: white" /><polygon type="contour" points="14.7679,6.918602 14.6846,6.918602 14.6846,6.583003 14.7679,6.583003" style="fill: white" /><polygon type="contour" points="14.425392,6.706972 14.424701,6.790252 14.424701,6.801001 14.425193,6.883854 14.425193,6.918602 14.310699,6.918603 14.207401,6.918603 14.124546,6.918602 14.0898,6.918602 14.0898,6.792801 14.089799,6.792801 14.089799,6.7928 14.089802,6.711581 14.089802,6.699932 14.0898,6.624525 14.0898,6.583003 14.20011,6.583658 14.307144,6.583658 14.370408,6.583003 14.425073,6.583003" style="fill: white" /><polygon type="contour" points="13.262109,6.583658 13.369101,6.583658 13.431708,6.583003 13.4867,6.583003 13.4867,6.708824 13.486701,6.79558 13.4867,6.883855 13.4867,6.918602 13.372698,6.918603 13.269398,6.918603 13.186054,6.918602 13.074914,6.917736 13.074914,6.918332 12.966673,6.918332 12.907186,6.918602 12.907582,6.804597 12.907438,6.753107 12.907252,6.706025 12.908142,6.624525 12.908081,6.583003 13.214035,6.583003" style="fill: white" /><polygon type="contour" points="12.5487,5.385102 12.213101,5.385102 12.213101,5.301801 12.5487,5.301801" style="fill: white" /><polygon type="contour" points="12.548045,5.755312 12.548045,5.862301 12.5487,5.925282 12.5487,6.22362 12.42697,6.224453 12.415934,6.224409 12.340049,6.224106 12.334072,6.224111 12.240432,6.224662 12.213101,6.224517 12.213101,6.100236 12.213846,5.98033 12.21337,5.980331 12.213102,5.854101 12.213096,5.854101 12.213098,5.770801 12.213101,5.679749 12.213101,5.645002 12.5487,5.645002" style="fill: white" /><polygon type="contour" points="11.9532,6.225009 11.894514,6.225009 11.869901,6.225216 11.869901,5.645002 11.9532,5.645002" style="fill: white" /><polygon type="contour" points="11.013101,6.227196 11.005687,6.227372 10.954554,6.227196 10.929801,6.227196 10.929801,5.645002 11.013101,5.645002" style="fill: white" /><polygon type="contour" points="9.138499,6.22921 9.0552,6.22921 9.0552,5.645002 9.138499,5.645002" style="fill: white" /><polygon type="contour" points="6.389957,5.755312 6.389957,5.862301 6.389956,5.925282 6.389956,6.223247 6.381171,6.223589 6.226328,6.22633 6.223824,6.351763 6.223245,6.389958 5.645,6.389958 5.645,6.056786 5.644999,5.867619 5.644999,5.762601 5.645,5.679749 5.645,5.645002 6.389956,5.645002" style="fill: white" /><polygon type="contour" points="6.389956,5.385102 5.645,5.385102 5.645,5.301801 6.389956,5.301801" style="fill: white" /><polygon type="contour" points="6.390048,3.876434 6.390036,3.886282 6.389955,3.93087 6.389956,3.941772 6.39005,4.041553 6.39005,4.135351 5.980599,4.135351 5.874562,4.135274 5.762599,4.135274 5.716253,4.135351 5.645001,4.135351 5.645001,4.078797 5.645,3.99201 5.759,3.992461 5.760536,3.992465 5.863176,3.992465 5.953267,3.992047 6.056784,3.992089 6.056784,3.934071 6.056834,3.886282 6.056806,3.802109 6.097581,3.802013 6.389909,3.802013" style="fill: white" /><polygon type="contour" points="6.881059,3.992584 6.909228,3.992503 6.9186,3.992503 6.9186,4.135351 6.792798,4.135259 6.792798,4.135273 6.718168,4.134997 6.699978,4.134997 6.654253,4.135351 6.583001,4.135351 6.583001,3.992457 6.692078,3.99282 6.710175,3.99284 6.793031,3.992457" style="fill: white" /><polygon type="contour" points="7.86012,4.820954 7.86012,4.927927 7.860801,5.041902 7.521207,5.041902 7.5217,4.927899 7.5217,4.706508 7.635703,4.707002 7.738998,4.707002 7.824812,4.706507 7.860801,4.706301" style="fill: white" /><polygon type="contour" points="7.2618,5.041902 7.1785,5.041902 7.1785,4.706508 7.2618,4.706508" style="fill: white" /><polygon type="contour" points="7.2618,5.385102 7.1785,5.385102 7.1785,5.301801 7.2618,5.301801" style="fill: white" /><polygon type="contour" points="6.9186,5.385102 6.583001,5.385102 6.583001,5.301801 6.9186,5.301801" style="fill: white" /><polygon type="contour" points="6.918601,5.759003 6.918601,5.862301 6.9186,5.945647 6.917734,6.056786 6.91833,6.056787 6.91833,6.165028 6.9186,6.224517 6.804594,6.22412 6.753109,6.224264 6.706019,6.22445 6.704123,6.224429 6.624524,6.22356 6.583001,6.22362 6.583001,5.980274 6.583656,5.869589 6.583656,5.7626 6.583001,5.699993 6.583001,5.645002 6.9186,5.645002" style="fill: white" /><polygon type="contour" points="7.2618,6.225216 7.203113,6.225216 7.1785,6.225009 7.1785,5.645002 7.2618,5.645002" style="fill: white" /><polygon type="contour" points="6.229235,10.016629 6.229208,10.017815 6.229208,10.076502 5.645,10.076502 5.645,9.993202 6.229208,9.993202" style="fill: white" /><polygon type="contour" points="6.228317,10.451083 6.228301,10.46293 6.227574,10.548478 6.227672,10.644669 6.227688,10.672002 6.101246,10.672002 5.980328,10.671267 5.980329,10.671732 5.873397,10.671325 5.762576,10.671325 5.679738,10.672002 5.644376,10.672002 5.644934,10.557347 5.644999,10.553722 5.644999,10.45468 5.644998,10.45468 5.644999,10.454679 5.645,10.371148 5.645,10.336402 5.759,10.337081 5.862297,10.337081 5.945645,10.336402 6.056783,10.337267 6.056784,10.336672 6.167604,10.336672 6.228715,10.336402" style="fill: white" /><polygon type="contour" points="6.226227,11.388946 6.226202,11.395426 6.226202,11.488391 6.225733,11.582834 6.225707,11.610002 5.933939,11.610002 5.908169,11.610431 5.867617,11.610003 5.762597,11.610003 5.679748,11.610494 5.645,11.610494 5.644999,11.495999 5.644999,11.392701 5.645,11.306889 5.645,11.270902 5.758973,11.271581 5.862319,11.271581 5.945652,11.270902 6.01383,11.271432 6.101246,11.270902 6.226703,11.270902" style="fill: white" /><polygon type="contour" points="6.166744,10.929804 6.227195,10.929804 6.227195,11.013103 5.645,11.013103 5.645,10.954556 5.644376,10.929803 6.056783,10.929803" style="fill: white" /><polygon type="contour" points="5.0419,10.637254 5.042524,10.672002 4.927989,10.671325 4.824576,10.671325 4.741246,10.672002 4.705883,10.672002 4.706935,10.557347 4.706999,10.553722 4.706999,10.45468 4.706506,10.371149 4.706506,10.336402 4.821002,10.337081 4.9243,10.337081 5.007151,10.336402 5.0419,10.336402" style="fill: white" /><polygon type="contour" points="5.3851,10.672002 5.301799,10.672002 5.301799,10.336402 5.3851,10.336402" style="fill: white" /><polygon type="contour" points="5.3851,10.988349 5.385724,11.013103 5.301799,11.013103 5.301799,10.929803 5.3851,10.929803" style="fill: white" /><polygon type="contour" points="5.042524,11.013103 4.706299,11.013103 4.706299,10.954557 4.705883,10.929803 5.042524,10.929803" style="fill: white" /><polygon type="contour" points="5.041964,11.388945 5.0419,11.3927 5.0419,11.492402 5.041899,11.575254 5.0419,11.610001 4.927895,11.610003 4.824576,11.610003 4.741046,11.610002 4.706506,11.610002 4.706999,11.496 4.706999,11.392701 4.706505,11.306889 4.706299,11.270902 4.820951,11.271581 4.9243,11.271581 5.006954,11.270902 5.042524,11.270902" style="fill: white" /><polygon type="contour" points="5.385165,11.388945 5.3851,11.392701 5.3851,11.610002 5.301799,11.610002 5.301799,11.270902 5.385724,11.270902" style="fill: white" /><polygon type="contour" points="5.3851,12.548701 5.301799,12.548701 5.301799,12.213102 5.3851,12.213102" style="fill: white" /><polygon type="contour" points="5.007152,12.213102 5.0419,12.213102 5.0419,12.338901 5.041899,12.419445 5.041899,12.431102 5.0419,12.507177 5.041901,12.548701 4.931588,12.548046 4.824555,12.548046 4.761289,12.548701 4.706627,12.548701 4.706308,12.423923 4.706313,12.423364 4.706999,12.341449 4.706999,12.3307 4.706506,12.247849 4.706506,12.213102 4.821002,12.213101 4.924299,12.213101" style="fill: white" /><polygon type="contour" points="5.0419,11.953201 4.706506,11.953201 4.706506,11.869902 5.0419,11.869902" style="fill: white" /><polygon type="contour" points="5.3851,11.953201 5.301799,11.953201 5.301799,11.869902 5.3851,11.869902" style="fill: white" /><polygon type="contour" points="5.85155,11.869903 5.862298,11.869903 5.945645,11.869902 5.98033,11.869902 5.98033,11.869903 6.165457,11.869902 6.225215,11.869902 6.225215,11.928587 6.225008,11.953201 5.645,11.953201 5.645,11.869902 5.770798,11.869902" style="fill: white" /><polygon type="contour" points="5.945645,12.213102 6.056783,12.213967 6.056783,12.213372 6.165026,12.213372 6.224515,12.213102 6.224118,12.327103 6.224129,12.330701 6.224071,12.330701 6.224448,12.424884 6.224427,12.426769 6.223558,12.507178 6.223619,12.548701 5.917664,12.548701 5.869586,12.548046 5.762598,12.548046 5.699991,12.548701 5.645,12.548701 5.644999,12.438972 5.644999,12.330701 5.645,12.247848 5.645,12.213102 5.759001,12.213101 5.862298,12.213101" style="fill: white" /><polygon type="contour" points="6.223245,12.746963 6.223619,12.750316 6.22439,12.792958 6.226086,12.904851 6.295153,12.906179 6.351761,12.907876 6.389956,12.908456 6.389956,13.074946 6.389955,13.074946 6.389957,13.262111 6.389957,13.369102 6.389956,13.43171 6.389956,13.486702 5.645,13.486702 5.644999,13.372699 5.644999,13.269379 5.644998,13.269379 5.644999,13.269378 5.644999,13.269377 5.645,13.185848 5.645,12.741746 6.223245,12.741746" style="fill: white" /><polygon type="contour" points="6.9186,12.907187 6.9186,13.031464 6.917854,13.151373 6.91833,13.151371 6.918598,13.2776 6.918602,13.2776 6.918601,13.360903 6.9186,13.451955 6.9186,13.486702 6.583001,13.486702 6.583656,13.376391 6.583656,13.2694 6.583001,13.20642 6.583001,12.908084 6.69992,12.907277 6.709943,12.907269 6.716449,12.907294 6.795264,12.907606 6.891268,12.907042" style="fill: white" /><polygon type="contour" points="7.2618,15.139201 7.1785,15.139201 7.1785,14.996353 7.2618,14.996353" style="fill: white" /><polygon type="contour" points="5.3851,15.139201 5.301799,15.139201 5.301799,14.996353 5.3851,14.996353" style="fill: white" /><polygon type="contour" points="5.0419,15.139201 4.936447,15.139238 4.927896,15.139241 4.926548,15.139238 4.828607,15.139238 4.733629,15.13912 4.706506,15.139201 4.706506,15.038595 4.706299,14.996353 4.812334,14.996429 4.907464,14.996429 4.923189,14.99643 4.970646,14.996353 5.0419,14.996353" style="fill: white" /><polygon type="contour" points="5.0419,14.767902 4.706506,14.767902 4.706506,14.684603 5.0419,14.684603" style="fill: white" /><polygon type="contour" points="5.3851,14.767902 5.360486,14.767902 5.334348,14.767901 5.301799,14.767902 5.301799,14.684603 5.3851,14.684603" style="fill: white" /><polygon type="contour" points="5.3851,14.425195 5.301799,14.425195 5.301799,14.089802 5.3851,14.089802" style="fill: white" /><polygon type="contour" points="5.0419,14.089802 5.0419,14.425195 4.927897,14.424702 4.824577,14.424702 4.741047,14.425195 4.706506,14.425195 4.706999,14.3107 4.706999,14.207403 4.706506,14.124549 4.706506,14.089802 4.821002,14.089801 4.927896,14.089801" style="fill: white" /><polygon type="contour" points="5.0419,13.829902 4.706506,13.829902 4.706506,13.746602 5.0419,13.746602" style="fill: white" /><polygon type="contour" points="5.041901,13.151372 5.0419,13.264081 5.0419,13.486702 4.706506,13.486702 4.706999,13.3727 4.706999,13.269378 4.706506,13.185849 4.706711,13.074916 4.70657,13.074916 4.70657,12.870461 4.706627,12.741746 5.041901,12.741746" style="fill: white" /><polygon type="contour" points="5.3851,13.486702 5.301799,13.486702 5.301799,12.741746 5.3851,12.741746" style="fill: white" /><polygon type="contour" points="5.3851,13.829902 5.301799,13.829902 5.301799,13.746602 5.3851,13.746602" style="fill: white" /><polygon type="contour" points="6.389956,13.829902 5.645,13.829902 5.645,13.746602 6.389956,13.746602" style="fill: white" /><polygon type="contour" points="6.056784,14.089802 6.389956,14.089802 6.389957,14.200114 6.389957,14.307145 6.389956,14.370409 6.389956,14.425074 6.212562,14.425074 5.987035,14.425156 5.867661,14.424702 5.86232,14.424702 5.773345,14.424701 5.762598,14.424701 5.679748,14.425195 5.645,14.425195 5.644999,14.310699 5.644999,14.207403 5.645,14.124548 5.645,14.089802 5.759001,14.089801 5.867617,14.089801" style="fill: white" /><polygon type="contour" points="6.389956,14.767902 5.645,14.767902 5.645,14.684603 6.389956,14.684603" style="fill: white" /><polygon type="contour" points="6.39005,15.09015 6.389956,15.189931 6.390036,15.245421 6.389909,15.329692 6.097581,15.329692 6.056806,15.329596 6.057034,15.265617 6.056833,15.245421 6.056869,15.216664 6.056784,15.197633 6.056784,15.1392 5.885651,15.139238 5.867617,15.139242 5.86526,15.139238 5.766583,15.139238 5.672169,15.13912 5.645,15.139201 5.645,15.038595 5.645001,14.996353 5.750407,14.996429 5.86237,14.996429 5.909347,14.996353 6.39005,14.996353" style="fill: white" /><polygon type="contour" points="6.686863,14.996706 6.708877,14.996706 6.784161,14.996429 6.813189,14.996429 6.9186,14.996353 6.9186,15.139201 6.793033,15.139245 6.780682,15.139187 6.709942,15.138859 6.704171,15.138839 6.636696,15.139374 6.624524,15.139247 6.583001,15.139246 6.583001,14.996352" style="fill: white" /><polygon type="contour" points="6.9186,14.767901 6.835748,14.767902 6.583001,14.767902 6.583001,14.684603 6.9186,14.684603" style="fill: white" /><polygon type="contour" points="7.2618,14.767902 7.1785,14.767902 7.1785,14.684603 7.2618,14.684603" style="fill: white" /><polygon type="contour" points="7.2618,14.425195 7.1785,14.425195 7.1785,14.089802 7.2618,14.089802" style="fill: white" /><polygon type="contour" points="6.883852,14.089802 6.9186,14.089802 6.918601,14.203805 6.918601,14.307123 6.9186,14.390654 6.9186,14.425195 6.835747,14.425195 6.804595,14.424702 6.792797,14.424702 6.709123,14.425398 6.702015,14.425378 6.624524,14.425155 6.583001,14.425074 6.583656,14.314391 6.583656,14.200114 6.583001,14.089802 6.692079,14.089803 6.708822,14.089803 6.793791,14.0898" style="fill: white" /><polygon type="contour" points="6.9186,13.829902 6.583001,13.829902 6.583001,13.746602 6.9186,13.746602" style="fill: white" /><polygon type="contour" points="7.2618,13.829902 7.1785,13.829902 7.1785,13.746602 7.2618,13.746602" style="fill: white" /><polygon type="contour" points="7.2618,13.486702 7.1785,13.486702 7.1785,12.906695 7.237186,12.906695 7.2618,12.906488" style="fill: white" /><polygon type="contour" points="7.860801,13.030453 7.860066,13.151373 7.860531,13.151371 7.86012,13.258602 7.86012,13.369123 7.860801,13.451963 7.860801,13.487326 7.742753,13.486767 7.738999,13.486702 7.5217,13.486702 7.5217,12.905995 7.64205,12.905502 7.743703,12.905502 7.788867,12.905453 7.789198,12.905446 7.789624,12.905661 7.81818,12.905319 7.860801,12.904999" style="fill: white" /><polygon type="contour" points="8.574353,13.746537 8.577978,13.746602 8.795299,13.746602 8.795299,13.829902 8.4597,13.829902 8.4597,13.745979" style="fill: white" /><polygon type="contour" points="8.574353,14.089736 8.577978,14.089801 8.67702,14.089801 8.760552,14.089802 8.795299,14.089802 8.794622,14.203806 8.794622,14.307124 8.795299,14.390653 8.795299,14.425195 8.680616,14.424702 8.577978,14.424702 8.494447,14.425194 8.4597,14.425401 8.460378,14.310749 8.460378,14.203713 8.4597,14.089178" style="fill: white" /><polygon type="contour" points="10.076501,15.139201 9.993201,15.139201 9.993201,14.996353 10.076501,14.996353" style="fill: white" /><polygon type="contour" points="9.734,15.05263 9.733793,15.139201 9.627883,15.139238 9.624293,15.139239 9.619296,15.139241 9.617953,15.139238 9.513744,15.139238 9.512401,15.139241 9.505334,15.139238 9.503814,15.139238 9.397907,15.139201 9.3977,15.05263 9.3977,14.996353 9.503734,14.996429 9.627963,14.996429 9.734,14.996353" style="fill: white" /><polygon type="contour" points="9.733793,14.767902 9.397907,14.767902 9.397907,14.684603 9.733793,14.684603" style="fill: white" /><polygon type="contour" points="10.076501,14.767902 9.993201,14.767902 9.993201,14.684603 10.076501,14.684603" style="fill: white" /><polygon type="contour" points="10.076501,14.425195 9.993201,14.425195 9.993201,14.089802 10.076501,14.089802" style="fill: white" /><polygon type="contour" points="10.076501,13.829902 9.993201,13.829902 9.993201,13.746602 10.076501,13.746602" style="fill: white" /><polygon type="contour" points="9.699045,14.089802 9.733793,14.089802 9.733301,14.203806 9.733301,14.307124 9.733793,14.390654 9.733793,14.425195 9.619295,14.424702 9.515999,14.424702 9.432655,14.425195 9.397907,14.425195 9.3984,14.3107 9.3984,14.207403 9.397907,14.124549 9.397907,14.089802 9.512402,14.089801 9.615698,14.089801" style="fill: white" /><polygon type="contour" points="9.512402,13.746602 9.733793,13.746602 9.733793,13.829902 9.397907,13.829902 9.397907,13.746601" style="fill: white" /><polygon type="contour" points="9.138499,13.829902 9.0552,13.829902 9.0552,13.746602 9.138499,13.746602" style="fill: white" /><polygon type="contour" points="9.138499,14.425195 9.0552,14.425195 9.0552,14.089802 9.138499,14.089802" style="fill: white" /><polygon type="contour" points="9.138499,14.767902 9.0552,14.767902 9.0552,14.684603 9.138499,14.684603" style="fill: white" /><polygon type="contour" points="9.138499,15.139201 9.079813,15.139201 9.071134,15.139141 9.064873,15.139164 9.0552,15.139201 9.0552,14.996353 9.138499,14.996353" style="fill: white" /><polygon type="contour" points="8.7953,15.05263 8.795299,15.139201 8.687712,15.139239 8.680617,15.139242 8.679382,15.139239 8.582717,15.139236 8.4597,15.139062 8.459701,15.05263 8.459701,14.996353 8.565735,14.996429 8.689263,14.996429 8.7953,14.996353" style="fill: white" /><polygon type="contour" points="8.574353,14.68456 8.577978,14.684603 8.795299,14.684603 8.795299,14.767903 8.736121,14.767902 8.494447,14.767902 8.4597,14.767903 8.4597,14.684187" style="fill: white" /><polygon type="contour" points="8.201899,15.139062 8.143353,15.139062 8.134494,15.139158 8.128271,15.139165 8.1186,15.139062 8.1186,14.996353 8.201899,14.996353" style="fill: white" /><polygon type="contour" points="7.860801,15.139062 7.737677,15.139234 7.638883,15.139232 7.635702,15.13924 7.614053,15.139232 7.5217,15.139201 7.521276,15.05263 7.521276,14.996353 7.627036,14.996429 7.722163,14.996429 7.737911,14.99643 7.787427,14.996353 7.860801,14.996353" style="fill: white" /><polygon type="contour" points="7.860801,14.767902 7.5217,14.767902 7.5217,14.684603 7.824812,14.684603 7.860801,14.684187" style="fill: white" /><polygon type="contour" points="8.201899,14.767902 8.1186,14.767902 8.1186,14.684187 8.201899,14.684187" style="fill: white" /><polygon type="contour" points="8.201899,14.425402 8.143353,14.425401 8.1186,14.425401 8.1186,14.089178 8.201899,14.089178" style="fill: white" /><polygon type="contour" points="7.86012,14.203712 7.86012,14.307125 7.860801,14.390455 7.860801,14.425401 7.742753,14.424723 7.738998,14.424702 7.6393,14.424702 7.556447,14.425195 7.5217,14.425195 7.5217,14.089802 7.635703,14.089801 7.738998,14.089801 7.824812,14.089802 7.860801,14.089178" style="fill: white" /><polygon type="contour" points="7.860801,13.829902 7.5217,13.829902 7.5217,13.746602 7.860801,13.746602" style="fill: white" /><polygon type="contour" points="8.201899,13.829902 8.1186,13.829902 8.1186,13.746602 8.177146,13.746602 8.201899,13.745978" style="fill: white" /><polygon type="contour" points="8.201899,13.486702 8.143352,13.486702 8.1186,13.487326 8.1186,12.904506 8.201899,12.904506" style="fill: white" /><polygon type="contour" points="8.795299,13.030224 8.794567,13.151373 8.795029,13.151371 8.794622,13.25855 8.794622,13.369103 8.795299,13.451954 8.795299,13.486702 8.4597,13.486702 8.460378,13.372727 8.460378,13.269378 8.4597,13.186049 8.460568,13.074916 8.459971,13.074915 8.459971,12.964526 8.4597,12.904014 8.542352,12.903523 8.574353,12.904117 8.583596,12.904122 8.66877,12.903399 8.680616,12.903383 8.795299,12.902987" style="fill: white" /><polygon type="contour" points="9.079813,12.902494 9.138499,12.902494 9.138499,13.486702 9.0552,13.486702 9.0552,12.902494 9.078464,12.902468" style="fill: white" /><polygon type="contour" points="9.606762,12.902002 9.607499,12.902002 9.607499,12.902029 9.733793,12.902002 9.733793,13.030223 9.733619,13.151372 9.733729,13.151372 9.733301,13.26408 9.733301,13.369103 9.733793,13.451954 9.733793,13.486702 9.397907,13.486702 9.3984,13.3727 9.3984,13.2694 9.397907,13.186056 9.398112,13.074916 9.397971,13.074916 9.397971,12.96324 9.397907,12.902002 9.512402,12.902027 9.524175,12.902003 9.539042,12.900756 9.566198,12.900756" style="fill: white" /><polygon type="contour" points="10.017814,12.902494 10.076501,12.902494 10.076501,13.486702 9.993201,13.486702 9.993201,12.902494 10.016628,12.902468" style="fill: white" /><polygon type="contour" points="10.451081,12.903383 10.462927,12.903399 10.548356,12.904124 10.644668,12.90403 10.672001,12.904014 10.672001,13.030453 10.671263,13.151372 10.67173,13.151372 10.671322,13.258314 10.671322,13.369124 10.672001,13.451963 10.672001,13.487326 10.557345,13.486766 10.55372,13.486702 10.336401,13.486702 10.337079,13.3727 10.337079,13.269399 10.336401,13.186056 10.337266,13.074916 10.336671,13.074915 10.336671,12.964097 10.336401,12.902987" style="fill: white" /><polygon type="contour" points="11.388944,12.905476 11.395887,12.905502 11.488572,12.905502 11.582831,12.905968 11.61,12.905995 11.61,13.486702 11.306887,13.486702 11.2709,13.487326 11.271579,13.372792 11.271579,13.269377 11.2709,13.186049 11.27143,13.11787 11.2709,13.030453 11.2709,12.904999" style="fill: white" /><polygon type="contour" points="11.9532,12.906695 11.9532,13.486702 11.869901,13.486702 11.869901,12.906488 11.928586,12.906488" style="fill: white" /><polygon type="contour" points="12.327102,12.907583 12.377504,12.907442 12.424958,12.907253 12.507176,12.908143 12.5487,12.908084 12.5487,13.151429 12.548045,13.262111 12.548045,13.369103 12.5487,13.43171 12.5487,13.486702 12.213101,13.486702 12.213099,13.372699 12.213099,13.2694 12.213101,13.186055 12.213966,13.074916 12.213371,13.074916 12.213371,12.966675 12.213101,12.907187" style="fill: white" /><polygon type="contour" points="12.5487,13.829902 12.213101,13.829902 12.213101,13.746602 12.5487,13.746602" style="fill: white" /><polygon type="contour" points="12.419443,14.089803 12.431101,14.089803 12.507177,14.089802 12.5487,14.089802 12.548045,14.200114 12.548045,14.307145 12.5487,14.370409 12.5487,14.425074 12.424026,14.425393 12.341446,14.424702 12.330698,14.424702 12.247848,14.425195 12.213101,14.425195 12.213099,14.310699 12.213099,14.207403 12.213101,14.124548 12.213101,14.089802 12.338899,14.089802 12.338899,14.089801" style="fill: white" /><polygon type="contour" points="11.9532,13.829902 11.869901,13.829902 11.869901,13.746602 11.9532,13.746602" style="fill: white" /><polygon type="contour" points="11.388943,14.089735 11.392699,14.089801 11.4924,14.089801 11.575253,14.089802 11.61,14.089802 11.61,14.425195 11.495997,14.424702 11.392698,14.424702 11.306888,14.425195 11.2709,14.425817 11.271579,14.310792 11.271579,14.203713 11.2709,14.089178" style="fill: white" /><polygon type="contour" points="11.61,13.829902 11.2709,13.829902 11.2709,13.746602 11.61,13.746602" style="fill: white" /><polygon type="contour" points="11.013101,13.487326 10.929801,13.487326 10.929801,12.904506 11.013101,12.904506" style="fill: white" /><polygon type="contour" points="11.013101,13.829902 10.954554,13.829902 10.929801,13.830526 10.929801,13.746602 11.013101,13.746602" style="fill: white" /><polygon type="contour" points="10.672001,13.830527 10.557346,13.829967 10.55372,13.829902 10.336401,13.829902 10.336401,13.746602 10.672001,13.746602" style="fill: white" /><polygon type="contour" points="10.637253,14.089802 10.672001,14.089802 10.671322,14.203777 10.671322,14.307124 10.672001,14.390455 10.672001,14.425818 10.557345,14.424766 10.55372,14.424702 10.454678,14.424702 10.371148,14.425195 10.336401,14.425195 10.337079,14.310699 10.337079,14.207403 10.336401,14.124548 10.336401,14.089802 10.451081,14.089801 10.553719,14.089801" style="fill: white" /><polygon type="contour" points="11.013101,14.425817 10.929801,14.425817 10.929801,14.089802 10.988347,14.089802 11.013101,14.089178" style="fill: white" /><polygon type="contour" points="11.013101,14.768526 10.929801,14.768526 10.929801,14.684603 11.013101,14.684603" style="fill: white" /><polygon type="contour" points="10.672001,14.768526 10.557345,14.767966 10.55372,14.767902 10.336401,14.767902 10.336401,14.684603 10.672001,14.684603" style="fill: white" /><polygon type="contour" points="10.672001,15.038697 10.672001,15.139062 10.550354,15.139236 10.462899,15.139236 10.462899,15.139226 10.336401,15.139201 10.336401,15.038595 10.3364,14.996353 10.442434,14.996429 10.553772,14.996429 10.600746,14.996353 10.672,14.996353" style="fill: white" /><polygon type="contour" points="11.013101,15.139062 10.954555,15.139062 10.934839,15.139165 10.929801,15.139062 10.929801,14.996353 11.013101,14.996353" style="fill: white" /><polygon type="contour" points="11.9532,15.139201 11.869901,15.139201 11.869901,14.996353 11.9532,14.996353" style="fill: white" /><polygon type="contour" points="11.610424,15.05263 11.61,15.139201 11.495996,15.139241 11.494654,15.139238 11.397581,15.139238 11.2709,15.139062 11.2709,14.996353 11.378655,14.996429 11.492472,14.996429 11.539171,14.996353 11.610424,14.996353" style="fill: white" /><polygon type="contour" points="11.61,14.767902 11.306887,14.767902 11.2709,14.768526 11.2709,14.684603 11.61,14.684603" style="fill: white" /><polygon type="contour" points="11.9532,14.425195 11.869901,14.425195 11.869901,14.089802 11.9532,14.089802" style="fill: white" /><polygon type="contour" points="11.9532,14.767902 11.869901,14.767902 11.869901,14.684603 11.9532,14.684603" style="fill: white" /><polygon type="contour" points="12.5487,14.767902 12.213101,14.767902 12.213101,14.684603 12.5487,14.684603" style="fill: white" /><polygon type="contour" points="12.548699,15.05263 12.5487,15.139246 12.43897,15.138883 12.421228,15.13886 12.33907,15.139244 12.339007,15.139244 12.338889,15.139245 12.338889,15.139244 12.240431,15.13912 12.213101,15.139201 12.2131,15.05263 12.2131,14.996353 12.338899,14.996443 12.338899,14.99643 12.412912,14.996706 12.431101,14.996706 12.477447,14.996353 12.548699,14.996353" style="fill: white" /><polygon type="contour" points="13.8299,15.139201 13.7466,15.139201 13.7466,14.996353 13.8299,14.996353" style="fill: white" /><polygon type="contour" points="13.486699,14.996353 13.486699,15.05263 13.4867,15.139201 13.381249,15.139238 13.372698,15.139241 13.371356,15.139238 13.273406,15.139238 13.178431,15.13912 13.074879,15.139491 13.074914,15.197633 13.074862,15.245421 13.074894,15.329596 13.034118,15.329692 12.741788,15.329692 12.74165,15.255268 12.741662,15.245421 12.741745,15.200834 12.741744,15.189931 12.741744,15.063221 12.74165,14.996353 13.151101,14.996353 13.257134,14.996429 13.369102,14.996429 13.415446,14.996352" style="fill: white" /><polygon type="contour" points="13.4867,14.767902 12.741744,14.767902 12.741744,14.684603 13.4867,14.684603" style="fill: white" /><polygon type="contour" points="13.8299,14.767902 13.7466,14.767902 13.7466,14.684603 13.8299,14.684603" style="fill: white" /><polygon type="contour" points="13.8299,14.425195 13.7466,14.425195 13.7466,14.089802 13.8299,14.089802" style="fill: white" /><polygon type="contour" points="13.451953,14.089802 13.4867,14.089802 13.486701,14.203805 13.486701,14.307124 13.4867,14.390654 13.4867,14.425195 13.372699,14.424702 13.264079,14.424702 13.151369,14.425131 12.870459,14.425131 12.741744,14.425073 12.741743,14.314391 12.741743,14.200114 12.741744,14.089802 13.074914,14.089802 13.264078,14.089801 13.369101,14.089801" style="fill: white" /><polygon type="contour" points="13.4867,13.829902 12.741744,13.829902 12.741744,13.746602 13.4867,13.746602" style="fill: white" /><polygon type="contour" points="13.8299,13.829902 13.7466,13.829902 13.7466,13.746602 13.8299,13.746602" style="fill: white" /><polygon type="contour" points="13.8299,13.486702 13.7466,13.486702 13.7466,12.741746 13.8299,12.741746" style="fill: white" /><polygon type="contour" points="15.164586,12.741746 15.189927,12.741746 15.245419,12.741665 15.32969,12.741789 15.32969,13.03412 15.329594,13.074894 15.265613,13.074667 15.245419,13.074863 15.21666,13.07483 15.197631,13.074916 15.139214,13.074916 15.139214,13.223532 15.139237,13.258073 15.139241,13.26408 15.139237,13.266437 15.139237,13.365153 15.139118,13.459534 15.139199,13.486702 14.996351,13.486702 14.996428,13.381293 14.996428,13.269328 14.996351,13.222354 14.996351,12.741652 15.071388,12.741652" style="fill: white" /><polygon type="contour" points="15.139199,13.829902 14.996351,13.829902 14.996351,13.746602 15.139199,13.746602" style="fill: white" /><polygon type="contour" points="15.13924,14.203806 15.139237,14.205154 15.139237,14.303129 15.139118,14.398069 15.139199,14.425195 15.038591,14.425195 14.996351,14.425402 14.996428,14.319367 14.996428,14.207402 14.996351,14.161053 14.996351,14.089802 15.139199,14.089802" style="fill: white" /><polygon type="contour" points="15.139199,14.767902 14.996351,14.767902 14.996351,14.684603 15.139199,14.684603" style="fill: white" /><polygon type="contour" points="15.245419,14.996366 15.329594,14.996394 15.329379,15.211309 15.329483,15.257285 15.329483,15.329485 15.016015,15.329814 15.014155,15.329493 14.996249,15.329451 14.996474,15.286214 14.99633,15.257641 14.99633,15.211026 14.996351,15.17667 14.996351,14.996353 15.176667,14.996353" style="fill: white" /><polygon type="contour" points="14.7679,15.139201 14.6846,15.139201 14.6846,14.996353 14.7679,14.996353" style="fill: white" /><polygon type="contour" points="14.425399,15.052631 14.425193,15.139201 14.398069,15.13912 14.303053,15.139238 14.257696,15.139294 14.215602,15.139242 14.117131,15.13912 14.0898,15.139201 14.0898,15.038595 14.089799,14.996353 14.19521,14.996429 14.307173,14.996429 14.354145,14.996353 14.425399,14.996353" style="fill: white" /><polygon type="contour" points="14.425193,14.767902 14.0898,14.767902 14.0898,14.684603 14.425193,14.684603" style="fill: white" /><polygon type="contour" points="14.7679,14.767902 14.6846,14.767902 14.6846,14.684603 14.7679,14.684603" style="fill: white" /><polygon type="contour" points="14.7679,14.425195 14.6846,14.425195 14.6846,14.089802 14.7679,14.089802" style="fill: white" /><polygon type="contour" points="14.390652,14.089802 14.425193,14.089802 14.424701,14.203806 14.424701,14.307124 14.425193,14.390654 14.425193,14.425195 14.310699,14.424702 14.203805,14.424702 14.0898,14.425195 14.089799,14.310699 14.089799,14.203805 14.0898,14.089802 14.203804,14.089801 14.307122,14.089801" style="fill: white" /><polygon type="contour" points="14.425193,13.829902 14.0898,13.829902 14.0898,13.746602 14.425193,13.746602" style="fill: white" /><polygon type="contour" points="14.7679,13.829902 14.6846,13.829902 14.6846,13.746602 14.7679,13.746602" style="fill: white" /><polygon type="contour" points="14.7679,13.486702 14.6846,13.486702 14.6846,12.741746 14.7679,12.741746" style="fill: white" /><polygon type="contour" points="14.425073,12.919137 14.425155,13.144666 14.424701,13.264081 14.424701,13.369103 14.425193,13.451954 14.425193,13.486702 14.0898,13.486702 14.089799,13.372699 14.089799,13.269379 14.0898,13.185848 14.089799,13.151371 14.089799,12.870461 14.0898,12.741746 14.425073,12.741746" style="fill: white" /><polygon type="contour" points="13.8299,12.548701 13.7466,12.548701 13.7466,12.213102 13.8299,12.213102" style="fill: white" /><polygon type="contour" points="13.43171,12.741747 13.486701,12.741747 13.4867,12.919138 13.4867,13.074916 13.486699,13.074916 13.486701,13.26408 13.486701,13.369102 13.4867,13.451955 13.4867,13.486702 12.741744,13.486702 12.741743,13.376391 12.741743,13.269399 12.741744,13.20642 12.741744,12.908456 12.750529,12.908115 12.905372,12.905374 12.907875,12.77994 12.908454,12.741746 13.369102,12.741746" style="fill: white" /><polygon type="contour" points="13.360902,12.2131 13.451953,12.213102 13.4867,12.213102 13.4867,12.338901 13.486701,12.338901 13.4867,12.419445 13.4867,12.548701 13.376391,12.548046 13.269398,12.548046 13.206418,12.548701 12.908081,12.548701 12.907249,12.427054 12.907295,12.415586 12.907597,12.340051 12.907591,12.334074 12.907041,12.240434 12.907186,12.213102 13.031464,12.213102 13.151371,12.213847 13.15137,12.213372 13.277598,12.213104 13.277598,12.213099" style="fill: white" /><polygon type="contour" points="13.486701,11.928588 13.486701,11.953202 13.372698,11.953201 13.264078,11.953201 13.223532,11.953202 13.074914,11.953199 13.074914,11.953201 12.906693,11.953201 12.906693,11.894515 12.906486,11.869902 13.4867,11.869902" style="fill: white" /><polygon type="contour" points="13.8299,11.953201 13.7466,11.953201 13.7466,11.869902 13.8299,11.869902" style="fill: white" /><polygon type="contour" points="13.8299,11.610002 13.7466,11.610002 13.7466,11.270902 13.8299,11.270902" style="fill: white" /><polygon type="contour" points="13.486766,11.388945 13.486701,11.392701 13.486701,11.492402 13.4867,11.575254 13.4867,11.610002 13.372698,11.610003 13.264078,11.610003 13.223531,11.610002 12.905994,11.610002 12.905499,11.48968 12.905499,11.387812 12.905453,11.342834 12.905445,11.342501 12.90566,11.342076 12.905318,11.313522 12.905002,11.271403 12.956001,11.271403 13.125614,11.271073 13.258325,11.271581 13.369122,11.271581 13.451961,11.270902 13.487324,11.270902" style="fill: white" /><polygon type="contour" points="13.4867,10.988349 13.487324,11.013103 12.904505,11.013103 12.90433,11.00569 12.904505,10.954556 12.904505,10.929803 13.4867,10.929803" style="fill: white" /><polygon type="contour" points="13.8299,11.013103 13.7466,11.013103 13.7466,10.954556 13.745976,10.929803 13.8299,10.929803" style="fill: white" /><polygon type="contour" points="13.8299,10.672002 13.745976,10.672002 13.746535,10.557347 13.7466,10.553722 13.7466,10.336402 13.8299,10.336402" style="fill: white" /><polygon type="contour" points="15.13924,10.451082 15.139237,10.452433 15.139237,10.551123 15.139225,10.557347 15.13906,10.672002 14.996351,10.672002 14.996428,10.565965 14.996428,10.442436 14.996351,10.336402 15.139199,10.336402" style="fill: white" /><polygon type="contour" points="15.13906,10.988348 15.139156,10.997207 15.139163,11.003429 15.13906,11.013103 14.996351,11.013103 14.996351,10.929803 15.13906,10.929803" style="fill: white" /><polygon type="contour" points="15.139232,11.393953 15.139232,11.492418 15.13924,11.495999 15.139199,11.610002 15.052628,11.610426 14.996351,11.610426 14.996428,11.504667 14.996428,11.380075 14.996351,11.270902 15.13906,11.270902" style="fill: white" /><polygon type="contour" points="15.139199,11.953201 14.996351,11.953201 14.996351,11.869903 15.038592,11.869902 15.139199,11.869902" style="fill: white" /><polygon type="contour" points="15.139244,12.338445 15.138859,12.421068 15.138838,12.426806 15.139372,12.495006 15.139244,12.507177 15.139244,12.548701 14.996351,12.548701 14.996702,12.444217 14.996702,12.422202 14.996428,12.347536 14.996428,12.31851 14.996352,12.213102 15.139199,12.213102" style="fill: white" /><polygon type="contour" points="14.7679,12.548701 14.6846,12.548701 14.6846,12.213102 14.7679,12.213102" style="fill: white" /><polygon type="contour" points="14.390652,12.213102 14.425193,12.213102 14.425193,12.295953 14.424701,12.327104 14.424701,12.3389 14.425397,12.421868 14.425377,12.428999 14.425154,12.507178 14.425073,12.548701 14.31439,12.548046 14.207401,12.548046 14.144791,12.548701 14.0898,12.548701 14.089802,12.438972 14.089802,12.422203 14.089798,12.338813 14.089799,12.3307 14.089799,12.330699 14.0898,12.247848 14.0898,12.213102 14.203804,12.213101 14.307122,12.213101" style="fill: white" /><polygon type="contour" points="14.425193,11.953201 14.0898,11.953201 14.0898,11.869902 14.425193,11.869902" style="fill: white" /><polygon type="contour" points="14.7679,11.953201 14.6846,11.953201 14.6846,11.869902 14.7679,11.869902" style="fill: white" /><polygon type="contour" points="14.7679,11.610002 14.6846,11.610002 14.6846,11.270902 14.7679,11.270902" style="fill: white" /><polygon type="contour" points="14.424766,11.388945 14.424701,11.392701 14.424701,11.492402 14.425193,11.575253 14.425193,11.610002 14.310699,11.610003 14.207401,11.610003 14.124546,11.610494 14.0898,11.610494 14.089799,11.495999 14.089799,11.392701 14.089798,11.392701 14.0898,11.306889 14.089176,11.270902 14.203711,11.271581 14.307123,11.271581 14.390453,11.270902 14.425816,11.270902" style="fill: white" /><polygon type="contour" points="14.4254,10.988348 14.425816,11.013103 14.089176,11.013103 14.089176,10.929803 14.4254,10.929803" style="fill: white" /><polygon type="contour" points="14.7679,11.013103 14.6846,11.013103 14.6846,10.954557 14.684185,10.929803 14.7679,10.929803" style="fill: white" /><polygon type="contour" points="14.7679,10.672002 14.684185,10.672002 14.684557,10.557347 14.6846,10.553721 14.6846,10.336402 14.7679,10.336402" style="fill: white" /><polygon type="contour" points="14.424701,10.451083 14.424701,10.553722 14.425193,10.637254 14.4254,10.672002 14.310748,10.671325 14.207402,10.671325 14.124747,10.672002 14.089176,10.672002 14.089734,10.557347 14.089799,10.553722 14.089799,10.45468 14.0898,10.371148 14.0898,10.336402 14.203804,10.337081 14.307123,10.337081 14.390651,10.336402 14.425193,10.336402" style="fill: white" /><polygon type="contour" points="14.425193,10.037588 14.425193,10.076502 14.0898,10.076502 14.0898,9.993202 14.425194,9.993202" style="fill: white" /><polygon type="contour" points="14.7679,10.076502 14.6846,10.076502 14.6846,9.993202 14.7679,9.993202" style="fill: white" /><polygon type="contour" points="15.139199,10.076502 14.996351,10.076502 14.996351,9.993202 15.139199,9.993202" style="fill: white" /><polygon type="contour" points="15.139199,9.138502 14.996351,9.138502 14.996351,9.055202 15.139199,9.055202" style="fill: white" /><polygon type="contour" points="15.139199,9.397909 15.13924,9.512403 15.139237,9.513746 15.139237,9.606573 15.139219,9.609907 15.13924,9.619297 15.139199,9.733795 15.052628,9.734002 14.996351,9.734002 14.996428,9.627965 14.996428,9.515929 14.996351,9.468954 14.996351,9.397702 15.052628,9.397702" style="fill: white" /><polygon type="contour" points="14.7679,9.512404 14.7679,9.733795 14.6846,9.733795 14.6846,9.397909 14.767901,9.397909" style="fill: white" /><polygon type="contour" points="14.424701,9.512403 14.424701,9.615701 14.425193,9.699047 14.425193,9.733795 14.310699,9.733302 14.207401,9.733302 14.124546,9.733795 14.0898,9.733795 14.089799,9.619298 14.089799,9.516001 14.0898,9.432656 14.0898,9.397909 14.203805,9.398402 14.307123,9.398402 14.390652,9.397909 14.425194,9.397909" style="fill: white" /><polygon type="contour" points="14.425193,9.138502 14.0898,9.138502 14.0898,9.055202 14.425193,9.055202" style="fill: white" /><polygon type="contour" points="14.7679,9.138502 14.6846,9.138502 14.6846,9.055202 14.7679,9.055202" style="fill: white" /><polygon type="contour" points="14.7679,8.795302 14.6846,8.795302 14.6846,8.577979 14.684557,8.574354 14.684185,8.459703 14.7679,8.459703" style="fill: white" /><polygon type="contour" points="15.139235,8.581302 15.139235,8.668801 15.139199,8.668801 15.139199,8.795302 14.996351,8.795302 14.996428,8.689265 14.996428,8.577929 14.996351,8.530954 14.996351,8.459703 15.13906,8.459703" style="fill: white" /><polygon type="contour" points="15.13906,8.201901 14.996351,8.201901 14.996351,8.118602 15.13906,8.118602" style="fill: white" /><polygon type="contour" points="14.768524,8.177148 14.7679,8.201901 14.684185,8.201901 14.684185,8.118602 14.768524,8.118602" style="fill: white" /><polygon type="contour" points="14.4254,8.201901 14.089176,8.201901 14.089176,8.143354 14.089801,8.118602 14.4254,8.118602" style="fill: white" /><polygon type="contour" points="14.424723,8.574353 14.424701,8.577979 14.424701,8.677022 14.425193,8.760555 14.425193,8.795302 14.310699,8.794624 14.207401,8.794624 14.124546,8.795302 14.0898,8.795302 14.089799,8.680618 14.089799,8.494449 14.089176,8.459703 14.203711,8.460379 14.307123,8.460379 14.390454,8.459703 14.4254,8.459703" style="fill: white" /><polygon type="contour" points="13.8299,8.795302 13.7466,8.795302 13.7466,8.459703 13.8299,8.459703" style="fill: white" /><polygon type="contour" points="13.8299,9.138502 13.7466,9.138502 13.7466,9.055202 13.8299,9.055202" style="fill: white" /><polygon type="contour" points="13.4867,9.138502 12.902493,9.138502 12.902493,9.055202 13.4867,9.055202" style="fill: white" /><polygon type="contour" points="13.151371,8.460437 13.151369,8.459973 13.258285,8.460379 13.369123,8.460379 13.451961,8.459703 13.487324,8.459703 13.486766,8.574354 13.486701,8.57798 13.486701,8.677021 13.4867,8.760555 13.4867,8.795302 13.372698,8.794624 13.269397,8.794624 13.186055,8.795302 13.074914,8.794436 13.074913,8.795032 12.964096,8.795032 12.902986,8.795302 12.903382,8.680618 12.903398,8.668775 12.904119,8.58359 12.904114,8.574354 12.904013,8.459703 13.030451,8.459703" style="fill: white" /><polygon type="contour" points="13.487324,8.201901 12.904505,8.201901 12.904505,8.118602 13.487324,8.118602" style="fill: white" /><polygon type="contour" points="13.830525,8.177148 13.8299,8.201901 13.7466,8.201901 13.7466,8.118602 13.830525,8.118602" style="fill: white" /><polygon type="contour" points="13.8299,7.739 13.829964,7.742754 13.830524,7.860802 13.7466,7.860802 13.7466,7.521702 13.8299,7.521702" style="fill: white" /><polygon type="contour" points="13.486701,7.635703 13.486701,7.824814 13.487325,7.860802 13.372792,7.860122 13.269376,7.860122 13.186046,7.860802 13.074912,7.859936 13.074912,7.860532 12.965385,7.860532 12.904998,7.860802 12.905473,7.742754 12.905499,7.735811 12.905499,7.643111 12.905967,7.54887 12.905994,7.521702 13.074914,7.521702 13.074914,7.522156 13.22353,7.521273 13.264079,7.521701 13.369102,7.521701 13.451952,7.521209 13.4867,7.521209" style="fill: white" /><polygon type="contour" points="13.4867,7.261802 12.906486,7.261802 12.906486,7.203115 12.906693,7.178502 13.4867,7.178502" style="fill: white" /><polygon type="contour" points="13.8299,7.261802 13.7466,7.261802 13.7466,7.178502 13.8299,7.178502" style="fill: white" /><polygon type="contour" points="13.8299,6.918602 13.7466,6.918602 13.7466,6.583003 13.8299,6.583003" style="fill: white" /><polygon type="contour" points="13.8299,6.389958 13.7466,6.389958 13.7466,5.645002 13.8299,5.645002" style="fill: white" /><polygon type="contour" points="13.486701,5.759003 13.486701,5.980332 13.4867,5.980332 13.4867,6.389958 12.908454,6.389958 12.908112,6.381171 12.905372,6.22633 12.779938,6.223826 12.741744,6.223247 12.741744,6.056756 12.741743,5.869589 12.741743,5.762601 12.741744,5.699993 12.741744,5.645002 13.4867,5.645002" style="fill: white" /><polygon type="contour" points="13.4867,5.326414 13.486701,5.385102 12.741744,5.385102 12.741744,5.301801 13.4867,5.301801" style="fill: white" /><polygon type="contour" points="13.486701,4.821003 13.486701,4.924302 13.4867,5.007154 13.4867,5.041902 12.741744,5.041902 12.741743,4.931591 12.741743,4.824557 12.741744,4.761293 12.741744,4.706629 12.919134,4.706629 13.144678,4.706546 13.264078,4.707002 13.369102,4.707002 13.451952,4.706508 13.4867,4.706508" style="fill: white" /><polygon type="contour" points="13.8299,5.041902 13.7466,5.041902 13.7466,4.706508 13.8299,4.706508" style="fill: white" /><polygon type="contour" points="13.8299,5.385102 13.7466,5.385102 13.7466,5.301801 13.8299,5.301801" style="fill: white" /><polygon type="contour" points="14.424701,5.759003 14.424701,5.770801 14.424703,5.851552 14.424703,5.862323 14.425192,5.945853 14.42499,6.056787 14.42513,6.056787 14.42513,6.261242 14.425073,6.389958 14.0898,6.389958 14.0898,6.212564 14.089799,6.056786 14.089799,5.762601 14.0898,5.679749 14.0898,5.645002 14.425193,5.645002" style="fill: white" /><polygon type="contour" points="14.425193,5.326414 14.425194,5.385102 14.0898,5.385102 14.0898,5.301801 14.425193,5.301801" style="fill: white" /><polygon type="contour" points="14.7679,5.385102 14.6846,5.385102 14.6846,5.301801 14.7679,5.301801" style="fill: white" /><polygon type="contour" points="14.7679,5.041902 14.6846,5.041902 14.6846,4.706508 14.7679,4.706508" style="fill: white" /><polygon type="contour" points="14.424701,4.821003 14.424701,4.924302 14.425193,5.007153 14.425193,5.041902 14.0898,5.041902 14.089799,4.927898 14.089799,4.82458 14.089798,4.82458 14.0898,4.741048 14.0898,4.706508 14.203804,4.707002 14.307123,4.707002 14.390651,4.706508 14.425193,4.706508" style="fill: white" /><polygon type="contour" points="14.425193,4.447102 14.0898,4.447102 14.0898,4.363802 14.425193,4.363802" style="fill: white" /><polygon type="contour" points="14.7679,4.447102 14.6846,4.447102 14.6846,4.363802 14.7679,4.363802" style="fill: white" /><polygon type="contour" points="14.7679,4.135351 14.6846,4.135351 14.6846,3.99201 14.7679,3.99201" style="fill: white" /><polygon type="contour" points="14.425193,4.028009 14.425194,4.046258 14.425193,4.093109 14.425399,4.135351 14.319365,4.135274 14.207402,4.135274 14.161052,4.135351 14.089799,4.135351 14.089799,4.078797 14.0898,3.99201 14.203804,3.992462 14.205346,3.992465 14.30798,3.992465 14.398069,3.992046 14.425193,3.992009" style="fill: white" /><polygon type="contour" points="13.829899,3.996447 13.829898,4.023573 13.829899,4.062038 13.829899,4.093108 13.8299,4.135351 13.7466,4.135351 13.7466,3.99201 13.829899,3.99201" style="fill: white" /><polygon type="contour" points="13.8299,4.447102 13.7466,4.447102 13.7466,4.363802 13.8299,4.363802" style="fill: white" /><polygon type="contour" points="13.4867,4.447102 12.741744,4.447102 12.741744,4.363802 13.4867,4.363802" style="fill: white" /><polygon type="contour" points="13.074894,3.802109 13.074666,3.866086 13.074862,3.886283 13.074829,3.915039 13.074914,3.934071 13.074914,3.991784 13.264078,3.992461 13.26673,3.992465 13.369975,3.992465 13.459532,3.992046 13.4867,3.992009 13.4867,4.093108 13.486699,4.135351 13.381292,4.135274 13.269325,4.135274 13.222354,4.135351 12.74165,4.135351 12.741744,4.068481 12.741744,3.941773 12.741663,3.886282 12.741788,3.802013 13.034118,3.802013" style="fill: white" /><polygon type="contour" points="12.548699,4.079073 12.548699,4.135351 12.444216,4.134997 12.422202,4.134997 12.347537,4.135274 12.31851,4.135274 12.2131,4.135351 12.2131,4.092867 12.213101,4.01716 12.213101,3.992503 12.338643,3.992457 12.347551,3.992499 12.421069,3.992842 12.425789,3.992859 12.49495,3.992457 12.5487,3.992457" style="fill: white" /><polygon type="contour" points="12.5487,4.447102 12.213101,4.447102 12.213101,4.363802 12.5487,4.363802" style="fill: white" /><polygon type="contour" points="12.422202,4.706306 12.507176,4.706547 12.5487,4.706629 12.548045,4.817311 12.548045,4.931591 12.5487,5.041902 12.213101,5.041902 12.213099,4.927898 12.213099,4.824579 12.213101,4.741048 12.213101,4.706508 12.295952,4.706508 12.327102,4.707002 12.338898,4.707002 12.421764,4.706305" style="fill: white" /><polygon type="contour" points="11.9532,5.041902 11.869901,5.041902 11.869901,4.706508 11.9532,4.706508" style="fill: white" /><polygon type="contour" points="11.9532,5.385102 11.869901,5.385102 11.869901,5.301801 11.9532,5.301801" style="fill: white" /><polygon type="contour" points="11.61,5.759003 11.61,6.225709 11.489405,6.226203 11.386945,6.226203 11.342832,6.226249 11.342499,6.226257 11.342074,6.226042 11.313519,6.226385 11.2714,6.226701 11.2714,6.175699 11.271071,6.006013 11.271579,5.873373 11.271579,5.76258 11.2709,5.67974 11.2709,5.645002 11.610493,5.645002" style="fill: white" /><polygon type="contour" points="11.388943,5.301736 11.392699,5.301801 11.61,5.301801 11.61,5.385102 11.392699,5.385102 11.388943,5.385167 11.2709,5.385726 11.2709,5.301177" style="fill: white" /><polygon type="contour" points="11.388944,4.70698 11.392699,4.707002 11.492399,4.707002 11.575746,4.706508 11.610493,4.706508 11.61,4.821004 11.61,4.927899 11.610493,5.041902 11.2709,5.041902 11.271579,4.927926 11.271579,4.824579 11.2709,4.741248 11.2709,4.706301" style="fill: white" /><polygon type="contour" points="11.61,4.447102 11.306888,4.447102 11.2709,4.447518 11.2709,4.363802 11.61,4.363802" style="fill: white" /><polygon type="contour" points="11.9532,4.447102 11.869901,4.447102 11.869901,4.363802 11.9532,4.363802" style="fill: white" /><polygon type="contour" points="11.9532,4.135351 11.869901,4.135351 11.869901,3.99201 11.9532,3.99201" style="fill: white" /><polygon type="contour" points="11.610424,4.078797 11.610424,4.135351 11.504664,4.135274 11.392625,4.135274 11.344272,4.135351 11.2709,4.135351 11.2709,3.99215 11.38496,3.992465 11.394819,3.992465 11.396956,3.992461 11.496249,3.992461 11.61,3.99201" style="fill: white" /><polygon type="contour" points="10.49428,3.992523 10.547098,3.992459 10.634458,3.992583 10.662652,3.992642 10.672001,3.992642 10.672,4.079073 10.672,4.135351 10.565963,4.135274 10.442434,4.135274 10.3364,4.135351 10.3364,4.092867 10.336401,4.01716 10.336401,3.992503 10.460596,3.992458" style="fill: white" /><polygon type="contour" points="11.013101,3.99215 11.013101,4.135351 10.929801,4.135351 10.929801,3.99215 10.934839,3.99192 11.008468,3.99192" style="fill: white" /><polygon type="contour" points="11.013101,4.447518 10.929801,4.447518 10.929801,4.363802 11.013101,4.363802" style="fill: white" /><polygon type="contour" points="10.672001,4.447518 10.557345,4.447145 10.553719,4.447102 10.336401,4.447102 10.336401,4.363802 10.672001,4.363802" style="fill: white" /><polygon type="contour" points="10.671322,4.820953 10.671322,4.927926 10.672001,5.041902 10.336401,5.041902 10.337079,4.927898 10.337079,4.82458 10.336401,4.741048 10.336401,4.706508 10.45108,4.707002 10.55372,4.707002 10.637253,4.706507 10.672001,4.706301" style="fill: white" /><polygon type="contour" points="11.013101,5.041902 10.929801,5.041902 10.929801,4.706301 11.013101,4.706301" style="fill: white" /><polygon type="contour" points="11.013101,5.385726 10.929801,5.385726 10.929801,5.301177 11.013101,5.301177" style="fill: white" /><polygon type="contour" points="10.672001,5.385726 10.557345,5.385166 10.55372,5.385102 10.336401,5.385102 10.336401,5.301801 10.55372,5.301801 10.557345,5.301736 10.672001,5.301177" style="fill: white" /><polygon type="contour" points="10.671322,5.758975 10.671322,5.862322 10.672001,5.945654 10.671132,6.056786 10.67173,6.056787 10.67173,6.167177 10.672001,6.22769 10.557345,6.227585 10.548095,6.227579 10.463817,6.228297 10.459194,6.228297 10.363731,6.228698 10.336401,6.228716 10.336401,6.101477 10.337132,5.98033 10.336671,5.980332 10.337079,5.873137 10.337079,5.7626 10.336401,5.679749 10.336401,5.645002 10.672001,5.645002" style="fill: white" /><polygon type="contour" points="10.076501,6.22921 9.993201,6.22921 9.993201,5.645002 10.076501,5.645002" style="fill: white" /><polygon type="contour" points="9.733301,5.759003 9.733301,5.862301 9.733793,5.945647 9.733587,6.056787 9.733729,6.056787 9.733729,6.168464 9.733793,6.229702 9.619295,6.229677 9.607522,6.2297 9.592902,6.230948 9.566198,6.230948 9.524949,6.229702 9.524199,6.229702 9.524199,6.229674 9.397907,6.229702 9.397907,6.101477 9.39808,5.980332 9.397971,5.980332 9.3984,5.867619 9.3984,5.762601 9.397907,5.67975 9.397907,5.645002 9.733793,5.645002" style="fill: white" /><polygon type="contour" points="9.733793,5.385102 9.397907,5.385102 9.397907,5.301801 9.733793,5.301801" style="fill: white" /><polygon type="contour" points="10.076501,5.385102 9.993201,5.385102 9.993201,5.301801 10.076501,5.301801" style="fill: white" /><polygon type="contour" points="10.076501,5.041902 9.993201,5.041902 9.993201,4.706508 10.076501,4.706508" style="fill: white" /><polygon type="contour" points="9.733301,4.821003 9.733301,4.924302 9.733793,5.007153 9.733793,5.041902 9.397907,5.041902 9.3984,4.927899 9.3984,4.82458 9.397907,4.741049 9.397907,4.706508 9.512401,4.707002 9.615698,4.707002 9.699045,4.706508 9.733793,4.706508" style="fill: white" /><polygon type="contour" points="9.733793,4.447102 9.397907,4.447102 9.397907,4.363802 9.733793,4.363802" style="fill: white" /><polygon type="contour" points="10.076501,4.447102 9.993201,4.447102 9.993201,4.363802 10.076501,4.363802" style="fill: white" /><polygon type="contour" points="10.076501,4.135351 9.993201,4.135351 9.993201,3.99201 10.076501,3.99201" style="fill: white" /><polygon type="contour" points="9.734,4.078796 9.734,4.135351 9.627963,4.135274 9.503734,4.135274 9.3977,4.135351 9.3977,4.078796 9.397907,3.99201 9.511388,3.992458 9.606511,3.992458 9.606572,3.992465 9.616577,3.992465 9.706667,3.992047 9.733793,3.99201" style="fill: white" /><polygon type="contour" points="8.7953,4.078797 8.7953,4.135351 8.689263,4.135274 8.577927,4.135274 8.530952,4.135351 8.459701,4.135351 8.459701,4.078797 8.4597,3.99215 8.570484,3.992465 8.580058,3.992465 8.583689,3.992458 8.681631,3.992458 8.795299,3.99201" style="fill: white" /><polygon type="contour" points="9.138499,4.135351 9.0552,4.135351 9.0552,3.99201 9.138499,3.99201" style="fill: white" /><polygon type="contour" points="9.138499,4.447102 9.0552,4.447102 9.0552,4.363802 9.138499,4.363802" style="fill: white" /><polygon type="contour" points="9.138499,5.041902 9.0552,5.041902 9.0552,4.706508 9.138499,4.706508" style="fill: white" /><polygon type="contour" points="9.138499,5.385102 9.0552,5.385102 9.0552,5.301801 9.138499,5.301801" style="fill: white" /><polygon type="contour" points="8.574353,5.301736 8.577978,5.301801 8.795299,5.301801 8.795299,5.385102 8.494446,5.385102 8.4597,5.385726 8.4597,5.301177" style="fill: white" /><polygon type="contour" points="8.794622,5.759003 8.794622,5.8623 8.795298,5.945647 8.794433,6.056786 8.795029,6.056786 8.795029,6.167606 8.795299,6.228717 8.680616,6.22832 8.668767,6.228304 8.583603,6.227579 8.574352,6.227585 8.4597,6.22769 8.4597,6.101248 8.460437,5.980332 8.459971,5.980332 8.460378,5.8734 8.460378,5.762579 8.4597,5.679741 8.4597,5.645002 8.795299,5.645002" style="fill: white" /><polygon type="contour" points="8.201899,6.227196 8.1186,6.227196 8.1186,5.645002 8.201899,5.645002" style="fill: white" /><polygon type="contour" points="7.86012,5.758976 7.86012,5.862322 7.860801,5.945655 7.859935,6.056786 7.860531,6.056787 7.860531,6.166316 7.860801,6.226704 7.742753,6.226228 7.736273,6.226203 7.643329,6.226203 7.548868,6.225736 7.5217,6.225709 7.5217,5.645002 7.860801,5.645002" style="fill: white" /><polygon type="contour" points="7.860801,5.385726 7.742753,5.385167 7.738999,5.385102 7.5217,5.385102 7.5217,5.301801 7.824811,5.301801 7.860801,5.301177" style="fill: white" /><polygon type="contour" points="8.201899,5.385726 8.1186,5.385726 8.1186,5.301177 8.201899,5.301177" style="fill: white" /><polygon type="contour" points="8.201899,5.041902 8.1186,5.041902 8.1186,4.706301 8.201899,4.706301" style="fill: white" /><polygon type="contour" points="8.574352,4.706979 8.577979,4.707002 8.677019,4.707002 8.760552,4.706508 8.795299,4.706508 8.794622,4.821003 8.794622,4.924302 8.795299,5.007153 8.795299,5.041902 8.4597,5.041902 8.460378,4.927926 8.460378,4.824579 8.4597,4.741247 8.4597,4.706301" style="fill: white" /><polygon type="contour" points="8.574353,4.363737 8.577978,4.363802 8.795299,4.363802 8.795299,4.447102 8.577978,4.447102 8.574353,4.447145 8.4597,4.447518 8.4597,4.363178" style="fill: white" /><polygon type="contour" points="8.201899,4.135351 8.1186,4.135351 8.1186,3.99215 8.201899,3.99215" style="fill: white" /><polygon type="contour" points="8.201899,4.447518 8.1186,4.447518 8.1186,4.363802 8.177146,4.363802 8.201899,4.363178" style="fill: white" /><polygon type="contour" points="7.860801,4.447518 7.742754,4.447145 7.738998,4.447102 7.5217,4.447102 7.5217,4.363802 7.860801,4.363802" style="fill: white" /><polygon type="contour" points="7.635703,3.992462 7.637237,3.992465 7.746737,3.992465 7.860801,3.99215 7.860801,4.135351 7.751625,4.135274 7.639226,4.135274 7.592529,4.135351 7.521276,4.135351 7.521276,4.078797 7.5217,3.99201" style="fill: white" /><polygon type="contour" points="7.2618,4.135351 7.1785,4.135351 7.1785,3.99201 7.2618,3.99201" style="fill: white" /><polygon type="contour" points="7.2618,4.447102 7.1785,4.447102 7.1785,4.363802 7.2618,4.363802" style="fill: white" /><polygon type="contour" points="6.9186,4.447102 6.583001,4.447102 6.583001,4.363802 6.9186,4.363802" style="fill: white" /><polygon type="contour" points="6.79025,4.707002 6.800998,4.707002 6.883852,4.706508 6.9186,4.706508 6.918601,4.821003 6.918601,4.924302 6.9186,5.007154 6.9186,5.041902 6.583001,5.041902 6.583656,4.931591 6.583656,4.824558 6.583001,4.761292 6.583001,4.706629 6.707078,4.70631" style="fill: white" /><polygon type="contour" points="6.389956,4.447102 5.645,4.447102 5.645,4.363802 6.389956,4.363802" style="fill: white" /><polygon type="contour" points="5.759001,4.707002 5.867616,4.707002 5.98033,4.706572 6.26124,4.706572 6.389955,4.706629 6.389957,4.817313 6.389957,4.931591 6.389956,5.041902 5.645,5.041902 5.644999,4.927898 5.644999,4.824579 5.645,4.741048 5.645,4.706508" style="fill: white" /><polygon type="contour" points="4.135271,5.75041 4.135271,5.862373 4.135349,5.909348 4.135349,6.390052 4.041552,6.390052 3.941771,6.389958 3.886281,6.390038 3.802011,6.389912 3.802011,6.097583 3.802107,6.05681 3.866086,6.057037 3.886281,6.056837 3.915038,6.056872 3.934069,6.056787 3.991784,6.056787 3.992459,5.867619 3.992464,5.864673 3.992464,5.761731 3.992045,5.67217 3.992009,5.645002 4.135349,5.645002" style="fill: white" /><polygon type="contour" points="4.135349,5.385102 3.992009,5.385102 3.992009,5.301801 4.135349,5.301801" style="fill: white" /><polygon type="contour" points="4.4471,5.385102 4.363801,5.385102 4.363801,5.301801 4.4471,5.301801" style="fill: white" /><polygon type="contour" points="4.4471,5.041902 4.363801,5.041902 4.363801,4.706508 4.4471,4.706508" style="fill: white" /><polygon type="contour" points="4.135271,4.812338 4.135271,4.924302 4.135349,4.970648 4.135349,5.041902 3.992009,5.041902 3.992461,4.927898 3.992464,4.926357 3.992464,4.823725 3.992045,4.733632 3.992009,4.706508 4.093106,4.706508 4.135349,4.706301" style="fill: white" /><polygon type="contour" points="4.135349,4.447102 3.992009,4.447102 3.992009,4.363802 4.135349,4.363802" style="fill: white" /><polygon type="contour" points="4.4471,4.447102 4.363801,4.447102 4.363801,4.363802 4.4471,4.363802" style="fill: white" /><polygon type="contour" points="4.4471,4.135351 4.363801,4.135351 4.363801,3.99201 4.4471,3.99201" style="fill: white" /><polygon type="contour" points="5.041899,4.093108 5.0419,4.135351 4.93649,4.135274 4.824526,4.135274 4.777552,4.135351 4.706299,4.135351 4.706299,4.078796 4.706506,3.99201 4.733629,3.992047 4.82372,3.992465 4.925155,3.992465 5.014569,3.992047 5.041899,3.99201" style="fill: white" /><polygon type="contour" points="5.3851,4.135351 5.301799,4.135351 5.301799,4.078797 5.301798,3.99201 5.3851,3.99201" style="fill: white" /><polygon type="contour" points="5.3851,4.447102 5.301799,4.447102 5.301799,4.363802 5.3851,4.363802" style="fill: white" /><polygon type="contour" points="5.0419,4.447102 4.706506,4.447102 4.706506,4.363802 5.0419,4.363802" style="fill: white" /><polygon type="contour" points="5.0419,4.821003 5.0419,4.927898 5.041899,5.041902 4.706506,5.041902 4.706999,4.927899 4.706999,4.82458 4.706506,4.741049 4.706506,4.706508 4.821001,4.707002 4.927896,4.707002 5.041899,4.706508" style="fill: white" /><polygon type="contour" points="5.3851,5.041902 5.301798,5.041902 5.301799,4.927898 5.301799,4.706508 5.3851,4.706508" style="fill: white" /><polygon type="contour" points="5.3851,5.385102 5.301799,5.385102 5.301798,5.360488 5.301798,5.301801 5.3851,5.301801" style="fill: white" /><polygon type="contour" points="5.0419,5.326414 5.0419,5.385102 4.706506,5.385102 4.706506,5.301801 5.041899,5.301801" style="fill: white" /><polygon type="contour" points="5.0419,5.945853 5.041901,5.980332 5.0419,5.980332 5.0419,6.079552 5.041901,6.215283 5.041901,6.389958 4.706627,6.389958 4.706627,6.212565 4.706544,5.987037 4.706999,5.867619 4.706999,5.7626 4.706506,5.67975 4.706506,5.645002 5.0419,5.645002" style="fill: white" /><polygon type="contour" points="5.3851,6.389958 5.301799,6.389958 5.301798,6.212565 5.301798,5.980332 5.301799,5.867619 5.301799,5.645002 5.3851,5.645002" style="fill: white" /><polygon type="contour" points="6.224424,6.700112 6.224433,6.709944 6.224406,6.716618 6.224094,6.795161 6.22466,6.89127 6.224515,6.918602 6.100233,6.918602 5.980328,6.917856 5.98033,6.918331 5.854098,6.9186 5.854098,6.918604 5.762597,6.918603 5.679747,6.918602 5.645,6.918602 5.645,6.792801 5.644999,6.792801 5.644999,6.699931 5.645,6.624525 5.645,6.583003 5.755308,6.583658 5.862298,6.583658 5.925279,6.583003 6.223619,6.583003" style="fill: white" /><polygon type="contour" points="6.225008,7.237188 6.225215,7.261802 5.645,7.261802 5.645,7.178502 6.225008,7.178502" style="fill: white" /><polygon type="contour" points="5.908168,7.521702 6.225707,7.521702 6.226202,7.642281 6.226202,7.744984 6.226246,7.788869 6.226255,7.789201 6.226039,7.789626 6.225926,7.817271 6.226382,7.818182 6.226703,7.860802 6.101246,7.860802 5.980328,7.860067 5.98033,7.860532 5.873108,7.860122 5.762577,7.860122 5.679738,7.860802 5.645,7.860802 5.644999,7.742754 5.644999,7.639301 5.645,7.556448 5.645,7.521702 5.759001,7.521701 5.867618,7.521701" style="fill: white" /><polygon type="contour" points="6.227195,8.201901 5.644376,8.201901 5.644376,8.143354 5.645,8.118602 6.227195,8.118602" style="fill: white" /><polygon type="contour" points="6.2276,8.554884 6.2276,8.587119 6.228294,8.668801 6.228277,8.668801 6.228715,8.795302 6.101474,8.795302 5.98033,8.79457 5.98033,8.795032 5.873134,8.794624 5.762598,8.794624 5.679747,8.795302 5.645,8.795302 5.644999,8.680618 5.644999,8.57798 5.644998,8.57798 5.644999,8.577979 5.644999,8.494449 5.644376,8.459703 5.758907,8.460379 5.86232,8.460379 5.945652,8.459703 6.056784,8.460568 6.056784,8.459973 6.167174,8.459973 6.227688,8.459703" style="fill: white" /><polygon type="contour" points="6.229235,9.078465 6.229208,9.079814 6.229208,9.138502 5.645,9.138502 5.645,9.055202 6.229208,9.055202" style="fill: white" /><polygon type="contour" points="6.229674,9.512404 6.229698,9.524177 6.230947,9.539045 6.230947,9.566201 6.2297,9.606764 6.2297,9.607501 6.229672,9.607501 6.229701,9.733795 6.101475,9.733795 5.980329,9.733624 5.98033,9.733732 5.867616,9.733302 5.762598,9.733302 5.679747,9.733795 5.645,9.733795 5.644999,9.619298 5.644999,9.516001 5.644998,9.516001 5.645,9.432656 5.645,9.397909 5.759,9.398402 5.862297,9.398402 5.945645,9.397909 6.056783,9.398114 6.056783,9.397973 6.168462,9.397973 6.229701,9.397909" style="fill: white" /><polygon type="contour" points="5.3851,9.733795 5.301799,9.733795 5.301799,9.397909 5.3851,9.397909" style="fill: white" /><polygon type="contour" points="5.3851,10.076502 5.301799,10.076502 5.301799,9.993202 5.3851,9.993202" style="fill: white" /><polygon type="contour" points="5.0419,10.076502 4.706506,10.076502 4.706506,9.993202 5.0419,9.993202" style="fill: white" /><polygon type="contour" points="5.0419,9.733795 4.927897,9.733302 4.824576,9.733302 4.741047,9.733795 4.706506,9.733795 4.706999,9.619297 4.706999,9.516 4.706506,9.432656 4.706506,9.397909 4.821002,9.398402 4.924301,9.398402 5.007151,9.397909 5.0419,9.397909" style="fill: white" /><polygon type="contour" points="5.0419,9.138502 4.706506,9.138502 4.706506,9.055202 5.0419,9.055202" style="fill: white" /><polygon type="contour" points="5.3851,9.138502 5.301799,9.138502 5.301799,9.055202 5.3851,9.055202" style="fill: white" /><polygon type="contour" points="5.3851,8.795302 5.301799,8.795302 5.301799,8.57798 5.301734,8.574354 5.301175,8.459703 5.3851,8.459703" style="fill: white" /><polygon type="contour" points="5.0419,8.795302 4.927896,8.794624 4.824577,8.794624 4.741046,8.795302 4.706506,8.795302 4.706999,8.680618 4.706999,8.577979 4.706506,8.49445 4.706298,8.459703 4.820952,8.460379 4.924301,8.460379 5.006952,8.459703 5.0419,8.459703" style="fill: white" /><polygon type="contour" points="5.0419,8.201901 4.706299,8.201901 4.706299,8.143355 4.705883,8.118602 5.0419,8.118602" style="fill: white" /><polygon type="contour" points="5.385723,8.177148 5.385099,8.201901 5.301174,8.201901 5.301175,8.143355 5.301175,8.118602 5.385724,8.118602" style="fill: white" /><polygon type="contour" points="5.3851,7.739 5.385165,7.742754 5.385724,7.860802 5.301175,7.860802 5.301734,7.742754 5.301799,7.739 5.301799,7.556449 5.301798,7.521702 5.3851,7.521702" style="fill: white" /><polygon type="contour" points="5.007152,7.521702 5.041899,7.521702 5.0419,7.635703 5.0419,7.738999 5.041899,7.824814 5.041899,7.860802 4.927925,7.860122 4.824576,7.860122 4.741245,7.860802 4.705883,7.860802 4.706935,7.742755 4.706999,7.739 4.706999,7.639301 4.706506,7.556449 4.706506,7.521702 4.821002,7.521701 4.924299,7.521701" style="fill: white" /><polygon type="contour" points="5.0419,7.237188 5.041899,7.261802 4.706506,7.261802 4.706506,7.178502 5.0419,7.178502" style="fill: white" /><polygon type="contour" points="5.3851,7.261802 5.360486,7.261802 5.301798,7.261801 5.301798,7.203115 5.301799,7.178502 5.3851,7.178502" style="fill: white" /><polygon type="contour" points="5.3851,6.918602 5.301799,6.918602 5.301799,6.583003 5.3851,6.583003" style="fill: white" /><polygon type="contour" points="5.041899,6.692079 5.041899,6.708824 5.0419,6.790252 5.0419,6.918602 4.927896,6.918603 4.824576,6.918603 4.741046,6.918602 4.706506,6.918602 4.706506,6.835749 4.706999,6.804598 4.706999,6.7928 4.706303,6.709224 4.706323,6.702375 4.706545,6.624526 4.706627,6.583003 4.81731,6.583659 4.8328,6.583659 4.910937,6.583658 4.9243,6.583658 4.986909,6.583003 5.041901,6.583003" style="fill: white" /><polygon type="contour" points="4.4471,6.389958 4.363801,6.389958 4.363801,5.980332 4.3638,5.980332 4.363801,5.867619 4.363801,5.645002 4.4471,5.645002" style="fill: white" /><polygon type="contour" points="4.134996,6.686865 4.134996,6.708878 4.135271,6.784164 4.135271,6.813191 4.135349,6.918602 3.992502,6.918602 3.992456,6.793057 3.992841,6.709943 3.99286,6.705503 3.992456,6.636752 3.992456,6.583003 4.13535,6.583003" style="fill: white" /><polygon type="contour" points="4.4471,6.918602 4.363801,6.918602 4.363801,6.7928 4.3638,6.7928 4.3638,6.792799 4.363801,6.711581 4.363801,6.583003 4.4471,6.583003" style="fill: white" /><polygon type="contour" points="4.4471,7.261802 4.363801,7.261802 4.363801,7.178502 4.4471,7.178502" style="fill: white" /><polygon type="contour" points="4.135349,7.261801 4.093106,7.261802 3.993486,7.261802 3.992008,7.261801 3.992009,7.222842 3.992009,7.178502 4.135349,7.178502" style="fill: white" /><polygon type="contour" points="4.135272,7.627036 4.135272,7.751626 4.135349,7.860802 3.992149,7.860802 3.992464,7.746738 3.992464,7.736879 3.99246,7.734742 3.99246,7.635451 3.992009,7.521702 4.078794,7.521278 4.135349,7.521278" style="fill: white" /><polygon type="contour" points="4.4471,7.860802 4.363176,7.860802 4.363736,7.742754 4.363801,7.739 4.363801,7.521702 4.4471,7.521702" style="fill: white" /><polygon type="contour" points="4.4471,8.177147 4.447516,8.201901 4.363801,8.201901 4.363801,8.143354 4.363176,8.118602 4.4471,8.118602" style="fill: white" /><polygon type="contour" points="4.135349,8.201901 3.992148,8.201901 3.992149,8.143355 3.991979,8.134497 3.991918,8.128274 3.992149,8.118602 4.135349,8.118602" style="fill: white" /><polygon type="contour" points="4.135271,8.565737 4.135271,8.689264 4.135349,8.795302 3.992009,8.795302 3.992492,8.587181 3.99245,8.587179 3.992475,8.574354 3.992149,8.459703 4.135349,8.459703" style="fill: white" /><polygon type="contour" points="4.447143,8.574354 4.4471,8.577979 4.4471,8.795302 4.363801,8.795302 4.363801,8.459703 4.447516,8.459703" style="fill: white" /><polygon type="contour" points="4.4471,9.138502 4.363801,9.138502 4.363801,9.055202 4.4471,9.055202" style="fill: white" /><polygon type="contour" points="4.135349,9.138502 3.992009,9.138502 3.992009,9.055202 4.135349,9.055202" style="fill: white" /><polygon type="contour" points="4.135271,9.503737 4.135271,9.5242 4.135272,9.598866 4.135272,9.615774 4.135349,9.66275 4.135349,9.734002 4.078795,9.734002 3.992009,9.733795 3.992461,9.619297 3.992464,9.617763 3.992464,9.525128 3.99246,9.524201 3.992507,9.524201 3.992009,9.397909 4.078795,9.397702 4.135349,9.397702" style="fill: white" /><polygon type="contour" points="4.4471,9.733795 4.363801,9.733795 4.363801,9.397909 4.4471,9.397909" style="fill: white" /><polygon type="contour" points="4.4471,10.076502 4.363801,10.076502 4.363801,9.993202 4.4471,9.993202" style="fill: white" /><polygon type="contour" points="4.135349,10.076502 3.992009,10.076502 3.992009,9.993202 4.135349,9.993202" style="fill: white" /><polygon type="contour" points="4.135271,10.442437 4.135271,10.553774 4.135349,10.600749 4.135349,10.672002 3.992149,10.672002 3.992464,10.561216 3.992464,10.551642 3.992457,10.548011 3.992457,10.450068 3.992009,10.336402 4.135349,10.336402" style="fill: white" /><polygon type="contour" points="4.4471,10.672002 4.363176,10.672002 4.363736,10.557348 4.363801,10.553722 4.363801,10.336402 4.4471,10.336402" style="fill: white" /><polygon type="contour" points="4.4471,10.988348 4.447516,11.013103 4.363176,11.013103 4.363176,10.929803 4.4471,10.929803" style="fill: white" /><polygon type="contour" points="4.13535,10.980273 4.13535,11.013103 3.992149,11.013103 3.992149,10.929803 4.135349,10.929803" style="fill: white" /><polygon type="contour" points="4.135271,11.380074 4.135271,11.492474 4.135349,11.539172 4.135349,11.610426 4.078794,11.610426 3.992009,11.610002 3.992461,11.495999 3.992463,11.494529 3.992465,11.400901 3.992509,11.400901 3.992149,11.270902 4.135349,11.270902" style="fill: white" /><polygon type="contour" points="4.447142,11.388945 4.4471,11.3927 4.4471,11.610002 4.363801,11.610002 4.363801,11.3927 4.363736,11.388946 4.363176,11.270902 4.447516,11.270902" style="fill: white" /><polygon type="contour" points="4.4471,11.953201 4.363801,11.953201 4.363801,11.869902 4.4471,11.869902" style="fill: white" /><polygon type="contour" points="4.078795,11.869903 4.135349,11.869903 4.135349,11.953201 3.992009,11.953201 3.992009,11.869902" style="fill: white" /><polygon type="contour" points="4.135255,12.338901 4.13527,12.338901 4.134996,12.412913 4.134996,12.431101 4.135349,12.477448 4.135349,12.548701 3.992456,12.548701 3.992819,12.438972 3.992839,12.420842 3.992456,12.338864 3.992456,12.338566 3.992582,12.250106 3.992582,12.240433 3.992502,12.213102 4.135349,12.213102" style="fill: white" /><polygon type="contour" points="4.4471,12.548701 4.363801,12.548701 4.363801,12.213102 4.4471,12.213102" style="fill: white" /><polygon type="contour" points="4.135349,13.151101 4.135271,13.257136 4.135271,13.369103 4.135349,13.415448 4.135349,13.486702 3.992009,13.486702 3.992461,13.372699 3.992464,13.371165 3.992464,13.359976 3.992465,13.268549 3.992044,13.178433 3.99209,13.074881 3.934069,13.074916 3.886281,13.074864 3.802107,13.074894 3.802011,13.03412 3.802011,12.74179 3.876433,12.741653 3.886282,12.741665 3.930868,12.741747 3.941771,12.741746 4.068479,12.741746 4.135349,12.741652" style="fill: white" /><polygon type="contour" points="4.4471,13.486702 4.363801,13.486702 4.363801,12.741746 4.4471,12.741746" style="fill: white" /><polygon type="contour" points="4.4471,13.829902 4.363801,13.829902 4.363801,13.746602 4.4471,13.746602" style="fill: white" /><polygon type="contour" points="4.135349,13.829902 3.992009,13.829902 3.992009,13.746602 4.135349,13.746602" style="fill: white" /><polygon type="contour" points="4.135271,14.195212 4.135271,14.307175 4.135349,14.354149 4.135349,14.425402 4.078795,14.425402 3.992009,14.425195 3.992461,14.310699 3.992464,14.309165 3.992464,14.205347 3.99246,14.203805 3.992009,14.089802 4.135349,14.089802" style="fill: white" /><polygon type="contour" points="4.4471,14.425195 4.363801,14.425195 4.363801,14.089802 4.4471,14.089802" style="fill: white" /><polygon type="contour" points="4.135349,14.767902 3.992009,14.767902 3.992009,14.684603 4.135349,14.684603" style="fill: white" /><polygon type="contour" points="4.4471,14.767902 4.363801,14.767902 4.363801,14.684603 4.4471,14.684603" style="fill: white" /><polygon type="contour" points="4.4471,15.139201 4.363801,15.139201 4.363801,14.996353 4.4471,14.996353" style="fill: white" /><polygon type="contour" points="4.135349,15.17667 4.135369,15.257642 4.13545,15.329451 4.117544,15.329493 4.115682,15.329814 3.802216,15.329485 3.802216,15.257285 3.802319,15.211309 3.802107,14.996394 3.866085,14.996638 3.886282,14.996366 3.914758,14.996405 3.955029,14.996353 4.135349,14.996353" style="fill: white" />
</svg>
