<svg width="19.131698" height="19.131699">
<polygon type="contour" points="10.145694,8.95451 10.145848,9.068389 10.145139,9.212362 10.145619,9.294717 10.00335,9.293688 10.00335,9.837983 10.14578,9.836907 10.145139,9.91934 10.145848,10.063314 10.145694,10.177194 10.141279,10.177253 10.137645,10.177405 10.099015,10.174597 10.077999,10.174905 9.959595,10.17661 9.836955,10.177049 9.832157,10.134057 9.835148,10.003352 9.29323,10.003352 9.294743,10.177049 9.172104,10.176609 9.053701,10.174906 9.032686,10.174596 8.994055,10.177405 8.990421,10.177253 8.986006,10.177194 8.985853,10.063314 8.986562,9.91934 8.986081,9.836987 9.12835,9.838015 9.12835,9.29372 8.985919,9.294797 8.986561,9.212363 8.985853,9.068389 8.986006,8.95451 8.990421,8.954435 8.994055,8.954299 9.032686,8.957106 9.0537,8.956797 9.172105,8.955094 9.294743,8.954655 9.299539,8.997647 9.296549,9.128352 9.838469,9.128352 9.836955,8.954654 9.959595,8.955093 10.077998,8.956796 10.099015,8.957106 10.137645,8.954299" style="fill: white" />
</svg>
