<svg width="19.131698" height="19.131699">
<polygon type="contour" points="12.48329,8.334399 12.483154,8.543568 12.43161,8.542654 12.248101,8.542429 12.20531,8.542241 12.193336,8.542393 12.193336,8.265576 12.193316,8.249721 12.200117,8.249721 12.247916,8.249672 12.453959,8.249455 12.484206,8.249455" style="fill: white" /><polygon type="contour" points="11.65356,8.546775 11.653129,8.546775 11.651391,8.546784 11.540605,8.546559 11.450538,8.546838 11.412916,8.546744 11.401988,8.546764 11.401988,8.263222 11.402021,8.249429 11.450537,8.249473 11.540606,8.249758 11.65139,8.24929 11.65356,8.249286" style="fill: white" /><polygon type="contour" points="10.882123,8.411337 10.882123,8.542634 10.747356,8.540855 10.726513,8.538841 10.594845,8.536856 10.595751,8.417738 10.592859,8.405187 10.590845,8.384343 10.589067,8.249579 10.882509,8.249579" style="fill: white" /><polygon type="contour" points="10.882416,7.478594 10.882412,7.48031 10.881944,7.591097 10.882228,7.681163 10.882272,7.717889 10.882306,7.729714 10.584937,7.729714 10.584863,7.681163 10.585142,7.591096 10.584918,7.480311 10.584927,7.478572 10.584927,7.478142 10.882416,7.478142" style="fill: white" /><polygon type="contour" points="12.319559,6.649119 12.48386,6.647842 12.482086,6.812998 12.483911,6.93863 12.458691,6.938765 12.452078,6.939138 12.431037,6.939138 12.24797,6.93852 12.217545,6.938482 12.193336,6.938363 12.193348,6.883783 12.193297,6.700144 12.193297,6.647585" style="fill: white" /><polygon type="contour" points="12.308439,7.478572 12.308426,7.480311 12.307991,7.591096 12.308357,7.681164 12.308575,7.729714 12.190809,7.729714 12.190619,7.681164 12.190161,7.488929 12.190144,7.478154 12.304301,7.478154 12.308438,7.478142" style="fill: white" /><polygon type="contour" points="11.653551,7.488928 11.653551,7.729449 11.642773,7.729449 11.450537,7.729756 11.413811,7.729714 11.402021,7.729714 11.401946,7.681163 11.40225,7.48893 11.40225,7.478151 11.642772,7.478151 11.65139,7.478144 11.65356,7.478141" style="fill: white" /><polygon type="contour" points="11.450537,6.823345 11.540605,6.823711 11.651391,6.823275 11.653129,6.823264 11.65356,6.823265 11.653548,6.827401 11.653548,6.940883 11.642773,6.940871 11.450537,6.94108 11.401988,6.940891 11.401988,6.823127" style="fill: white" /><polygon type="contour" points="10.882006,6.781185 10.882006,6.93879 10.605818,6.938383 10.58931,6.938363 10.589274,6.883598 10.588312,6.648399 10.639733,6.647655 10.882123,6.647196" style="fill: white" /><polygon type="contour" points="6.938362,6.647051 6.938362,6.938363 6.883603,6.938602 6.679622,6.939138 6.673008,6.938764 6.64779,6.938629 6.649614,6.812999 6.647841,6.647842 6.883574,6.646725" style="fill: white" /><polygon type="contour" points="6.827399,7.478154 6.940881,7.478154 6.940869,7.488929 6.941079,7.681164 6.940889,7.729714 6.823125,7.729714 6.823344,7.681163 6.823709,7.591096 6.823274,7.480311 6.823262,7.478572 6.823263,7.478142" style="fill: white" /><polygon type="contour" points="8.539824,8.341574 8.536854,8.536856 8.417737,8.53595 8.405185,8.538842 8.384341,8.540856 8.249577,8.542635 8.249577,8.249579 8.542633,8.249579" style="fill: white" /><polygon type="contour" points="8.546774,7.478572 8.546783,7.480311 8.546557,7.591096 8.546837,7.681163 8.546744,7.718786 8.546764,7.729714 8.249427,7.729714 8.249472,7.681163 8.249756,7.591097 8.249288,7.480311 8.249284,7.478142 8.546774,7.478142" style="fill: white" /><polygon type="contour" points="8.334396,6.648411 8.543566,6.648546 8.542652,6.700088 8.542662,6.938603 8.265574,6.938363 8.249719,6.938383 8.249719,6.921907 8.249695,6.781185 8.249576,6.725281 8.249453,6.677741 8.249453,6.647495" style="fill: white" /><polygon type="contour" points="7.729712,6.940891 7.681162,6.94108 7.488927,6.941541 7.478153,6.941558 7.478153,6.827401 7.478141,6.823264 7.47857,6.823264 7.480308,6.823275 7.591094,6.823711 7.681162,6.823345 7.729712,6.823127" style="fill: white" /><polygon type="contour" points="7.488927,7.478151 7.729448,7.478151 7.729448,7.488929 7.729712,7.729714 7.681162,7.729756 7.488927,7.729449 7.47815,7.729449 7.47815,7.488929 7.478143,7.480311 7.478141,7.478142" style="fill: white" /><polygon type="contour" points="7.480308,8.249289 7.591093,8.249758 7.681162,8.249473 7.717889,8.249429 7.729712,8.249429 7.729712,8.546765 7.681161,8.546838 7.591094,8.546559 7.480308,8.546784 7.47857,8.546775 7.478141,8.546775 7.478141,8.249286 7.478592,8.249285" style="fill: white" /><polygon type="contour" points="6.700142,8.249502 6.781182,8.249697 6.938788,8.249697 6.938382,8.525884 6.938362,8.542393 6.883597,8.542429 6.648397,8.54339 6.647653,8.491968 6.647493,8.249455 6.677739,8.249455" style="fill: white" /><polygon type="contour" points="6.700086,10.58905 6.883597,10.589275 6.926387,10.589463 6.938362,10.589311 6.938362,10.866125 6.938382,10.881983 6.93158,10.881983 6.883781,10.882031 6.677739,10.882249 6.647493,10.882249 6.648409,10.797305 6.648544,10.588137" style="fill: white" /><polygon type="contour" points="8.341571,10.591878 8.536854,10.594847 8.540853,10.747358 8.542632,10.882125 8.249577,10.882125 8.249577,10.589069" style="fill: white" /><polygon type="contour" points="7.718784,10.584959 7.729712,10.584939 7.729712,10.882274 7.681161,10.882229 7.591093,10.881946 7.480309,10.882414 7.478141,10.882418 7.478141,10.584929 7.47857,10.584929 7.480309,10.58492 7.591094,10.585144 7.681161,10.584864" style="fill: white" /><polygon type="contour" points="7.488927,12.190161 7.681162,12.19062 7.729712,12.19081 7.729712,12.308577 7.681162,12.308359 7.591094,12.307993 7.480308,12.308428 7.47857,12.30844 7.478141,12.308439 7.478153,12.304302 7.478153,12.190145" style="fill: white" /><polygon type="contour" points="6.883728,12.193181 6.914094,12.193219 6.938362,12.193338 6.93835,12.247917 6.938401,12.431557 6.938401,12.484117 6.81214,12.482584 6.647841,12.483862 6.649614,12.318704 6.64779,12.193073 6.673008,12.192837 6.679622,12.192566 6.700661,12.192566" style="fill: white" /><polygon type="contour" points="6.941078,11.450539 6.941539,11.642775 6.941556,11.65355 6.827399,11.65355 6.823263,11.653562 6.823262,11.653131 6.823274,11.651392 6.823709,11.540607 6.823344,11.45054 6.823125,11.40199 6.940889,11.40199" style="fill: white" /><polygon type="contour" points="7.717888,11.40199 7.729712,11.40199 7.729754,11.45054 7.729448,11.642774 7.729448,11.653553 7.488927,11.653553 7.480309,11.653559 7.478141,11.653562 7.47815,11.642775 7.47815,11.402252 7.488928,11.402252 7.681161,11.401948" style="fill: white" /><polygon type="contour" points="8.546837,11.450539 8.546557,11.540607 8.546783,11.651392 8.546774,11.653131 8.546774,11.653562 8.249284,11.653562 8.249284,11.653111 8.249288,11.651392 8.249756,11.540606 8.249472,11.450539 8.249427,11.413814 8.249427,11.40199 8.546764,11.40199" style="fill: white" /><polygon type="contour" points="8.525882,12.193317 8.542391,12.193338 8.542427,12.248103 8.543389,12.483303 8.491967,12.484047 8.249577,12.484506 8.249695,12.350517 8.249695,12.192913" style="fill: white" /><polygon type="contour" points="10.866125,12.193338 10.881982,12.193318 10.881982,12.209793 10.882006,12.350517 10.882122,12.40642 10.882247,12.453961 10.882247,12.484207 10.797303,12.48329 10.588134,12.483155 10.589048,12.431613 10.589038,12.193101" style="fill: white" /><polygon type="contour" points="11.653548,12.304302 11.65356,12.308439 11.653129,12.30844 11.651391,12.308428 11.540605,12.307993 11.450538,12.308358 11.401988,12.308578 11.401988,12.19081 11.450537,12.19062 11.642773,12.190161 11.653548,12.190145" style="fill: white" /><polygon type="contour" points="12.484046,10.639736 12.484206,10.882249 12.45396,10.882249 12.431554,10.8822 12.350515,10.882007 12.192911,10.882007 12.193315,10.605819 12.193336,10.589311 12.2481,10.589275 12.483301,10.588315" style="fill: white" /><polygon type="contour" points="11.540605,10.585144 11.65139,10.58492 11.653129,10.584929 11.65356,10.584929 11.65356,10.882418 11.653109,10.882418 11.65139,10.882413 11.540606,10.881946 11.450537,10.88223 11.413812,10.882275 11.402021,10.882275 11.402021,10.598732 11.401988,10.584939 11.450538,10.584865" style="fill: white" /><polygon type="contour" points="10.882509,10.750827 10.882509,10.882125 10.589066,10.882125 10.590844,10.747359 10.592859,10.726515 10.594845,10.594847 10.747356,10.590847 10.882123,10.589069" style="fill: white" /><polygon type="contour" points="10.882228,11.45054 10.881944,11.540606 10.882411,11.651392 10.882416,11.653562 10.584927,11.653562 10.584927,11.653131 10.584918,11.651392 10.585142,11.540607 10.584863,11.45054 10.584957,11.412917 10.584937,11.40199 10.882306,11.40199" style="fill: white" /><polygon type="contour" points="11.642772,11.402252 11.653551,11.402252 11.653551,11.642774 11.653557,11.651392 11.65356,11.653562 11.642773,11.653553 11.40225,11.653553 11.40225,11.642774 11.402021,11.40199 11.450538,11.401947" style="fill: white" /><polygon type="contour" points="12.308357,11.450539 12.307991,11.540607 12.308426,11.651392 12.308439,11.653131 12.308438,11.653562 12.304301,11.65355 12.190144,11.65355 12.190161,11.642775 12.190619,11.450539 12.190809,11.40199 12.308575,11.40199" style="fill: white" /><polygon type="contour" points="12.458691,12.192837 12.483911,12.193073 12.482086,12.318705 12.48386,12.483862 12.248124,12.484979 12.193336,12.484651 12.193336,12.468829 12.193099,12.193101 12.248096,12.193101 12.452078,12.192566" style="fill: white" />
</svg>
