<svg width="19.131698" height="19.131699">
<polygon type="contour" points="8.911846,8.684035 8.989088,8.685917 8.991328,8.760112 8.991328,8.853646 9.101433,8.854083 9.101433,8.896545 9.101431,8.991684 9.101431,9.026004 9.101433,9.101435 9.073844,9.101435 9.011831,9.101431 8.969872,9.101431 8.854083,9.101435 8.853644,8.991615 8.722112,8.991615 8.687141,8.991604 8.687105,8.979644 8.686683,8.9333 8.681929,8.681931" style="fill: white" /><polygon type="contour" points="8.991681,9.310041 9.026001,9.310041 9.101433,9.309751 9.101433,9.337556 9.101431,9.400342 9.101431,9.745643 9.101433,9.821953 9.073843,9.821953 9.01183,9.821661 8.969872,9.821661 8.854083,9.821953 8.853645,9.711102 8.685518,9.711102 8.685689,9.67572 8.686625,9.566201 8.686534,9.547289 8.685518,9.420602 8.853645,9.420602 8.854083,9.309751 8.896543,9.309751" style="fill: white" /><polygon type="contour" points="9.400341,9.310041 9.745642,9.310041 9.821952,9.309751 9.821952,9.337556 9.821658,9.400342 9.821658,9.745643 9.821952,9.821953 9.794145,9.821953 9.73136,9.821661 9.386058,9.821661 9.309749,9.821953 9.309749,9.794147 9.310039,9.73136 9.310039,9.38606 9.309749,9.309751 9.337554,9.309751" style="fill: white" /><polygon type="contour" points="9.588826,8.687267 9.711101,8.687146 9.711101,8.853648 9.821952,8.854083 9.821952,8.896545 9.821658,8.991684 9.821658,9.026004 9.821952,9.101435 9.794146,9.101435 9.731359,9.101431 9.386058,9.101431 9.309749,9.101435 9.309749,9.073846 9.310039,9.011833 9.310039,8.969874 9.309749,8.854083 9.4206,8.853648 9.4206,8.687146 9.543462,8.687267 9.547597,8.687176 9.566119,8.68669" style="fill: white" /><polygon type="contour" points="10.445017,8.9333 10.444592,8.979644 10.444557,8.991604 10.278054,8.991604 10.277618,9.101435 10.235155,9.101435 10.140017,9.101431 10.1057,9.101431 10.030268,9.101435 10.030268,8.854083 10.140039,8.853647 10.140373,8.760111 10.140413,8.75333 10.142613,8.685917 10.219853,8.684035 10.449771,8.681931" style="fill: white" /><polygon type="contour" points="10.119869,9.310041 10.161827,9.310041 10.277618,9.309751 10.278053,9.420602 10.446182,9.420602 10.446011,9.455983 10.445075,9.566111 10.445165,9.585023 10.446182,9.711102 10.278053,9.711102 10.277618,9.821953 10.235154,9.821953 10.140018,9.821661 10.105699,9.821661 10.030268,9.821953 10.030268,9.309751 10.057856,9.309751" style="fill: white" /><polygon type="contour" points="10.119869,10.03027 10.161827,10.03027 10.277618,10.030269 10.278054,10.14009 10.409585,10.14009 10.444557,10.140101 10.444592,10.15206 10.445017,10.198403 10.449771,10.449773 10.219853,10.447669 10.142613,10.445787 10.140373,10.371592 10.140373,10.278057 10.030268,10.277621 10.030268,10.030269 10.057857,10.030269" style="fill: white" /><polygon type="contour" points="9.400341,10.03027 9.745641,10.03027 9.821952,10.030269 9.821952,10.057859 9.821658,10.119872 9.821658,10.16183 9.821952,10.277621 9.711101,10.278055 9.711101,10.444556 9.588237,10.444437 9.584102,10.444526 9.5655,10.445014 9.542874,10.444437 9.4206,10.444556 9.4206,10.278055 9.309749,10.277621 9.309749,10.235158 9.310039,10.14002 9.310039,10.1057 9.309749,10.030269 9.337554,10.030269" style="fill: white" /><polygon type="contour" points="8.991681,10.03027 9.026,10.03027 9.101433,10.030269 9.101433,10.057859 9.101431,10.119871 9.101431,10.16183 9.101433,10.277621 8.991661,10.278056 8.991328,10.371592 8.991288,10.378374 8.989088,10.445787 8.911846,10.447668 8.681928,10.449773 8.686683,10.198404 8.687105,10.15206 8.68714,10.140101 8.853644,10.140101 8.854083,10.030269 8.896543,10.030269" style="fill: white" />
</svg>
