<svg width="19.131698" height="19.131699">
<polygon type="contour" points="7.908047,7.775117 8.054311,7.775182 8.054311,7.837682 8.054129,8.026945 8.054143,8.04631 8.054143,8.054145 8.034698,8.054145 7.775336,8.05447 7.775115,7.908049 7.774448,7.890027 7.772315,7.85336 7.770315,7.770317" style="fill: white" /><polygon type="contour" points="8.056098,10.624602 8.055953,10.66378 8.055976,10.717111 8.056159,10.769705 7.944695,10.769705 7.944675,10.717112 7.944578,10.691786 7.944914,10.663388 7.945063,10.627255 7.945084,10.62176 7.95217,10.621773 8.056098,10.618024" style="fill: white" /><polygon type="contour" points="11.356585,11.223655 11.357251,11.241674 11.359386,11.278344 11.361385,11.361387 11.223653,11.356587 11.077389,11.356522 11.077389,11.294021 11.077571,11.104757 11.077556,11.085393 11.077556,11.077559 11.097001,11.077559 11.356364,11.077235" style="fill: white" /><polygon type="contour" points="11.186786,10.663388 11.187123,10.691786 11.187024,10.717112 11.187036,10.76199 11.187004,10.769705 11.075537,10.769705 11.075537,10.761379 11.075722,10.717111 11.075878,10.663388 11.075834,10.621773 11.082786,10.62176 11.186616,10.62176" style="fill: white" /><polygon type="contour" points="10.307752,10.029687 10.308025,10.308027 10.294729,10.308038 10.014737,10.30737 10.014737,10.294062 10.014482,10.014484 10.292471,10.014469 10.307765,10.014469" style="fill: white" /><polygon type="contour" points="10.306607,9.485985 10.306651,9.528086 10.306521,9.589504 10.306331,9.650528 10.013679,9.650528 10.013679,9.642471 10.013536,9.589504 10.013536,9.542585 10.013679,9.481176 10.034876,9.481176 10.30668,9.481088" style="fill: white" /><polygon type="contour" points="9.118021,9.489231 9.118164,9.542585 9.118164,9.589504 9.118021,9.650527 8.837988,9.650614 8.825021,9.650614 8.825094,9.645715 8.825049,9.60391 8.825179,9.542585 8.82537,9.481176 9.118021,9.481176" style="fill: white" /><polygon type="contour" points="9.650526,9.481176 9.650526,9.489231 9.650735,9.542585 9.650735,9.589504 9.650526,9.650528 9.589118,9.650737 9.542197,9.650737 9.481175,9.650528 9.481175,9.642472 9.480966,9.589504 9.480966,9.542584 9.481175,9.481176 9.542198,9.480968 9.589118,9.480968" style="fill: white" /><polygon type="contour" points="9.650526,10.013681 9.650526,10.306332 9.642519,10.306313 9.589118,10.306523 9.527791,10.306653 9.481087,10.306683 9.481087,10.293715 9.481175,10.013681 9.489231,10.013681 9.542197,10.013538 9.589118,10.013538" style="fill: white" /><polygon type="contour" points="9.117419,10.032009 9.116963,10.307433 9.103723,10.307358 8.823676,10.308027 8.823601,10.29473 8.82427,10.014739 8.837639,10.014739 9.117419,10.014281" style="fill: white" /><polygon type="contour" points="8.509943,10.030986 8.509943,10.30633 8.504113,10.30633 8.468314,10.306273 8.41459,10.306427 8.361998,10.306667 8.361998,10.013313 8.370182,10.013348 8.41459,10.013477 8.468313,10.013279 8.509928,10.013045" style="fill: white" /><polygon type="contour" points="8.046398,10.014749 8.054143,10.014716 8.054225,10.290582 8.054225,10.307358 8.047871,10.307331 7.78308,10.308027 7.77549,10.308027 7.775476,10.29473 7.775183,10.014281 7.785289,10.014281" style="fill: white" /><polygon type="contour" points="8.056098,9.480334 8.056098,9.488073 8.056004,9.540506 8.05588,9.589504 8.055847,9.650522 8.04766,9.650528 7.945015,9.650528 7.944893,9.589504 7.944705,9.566202 7.944892,9.542585 7.945015,9.481176 8.048355,9.480327" style="fill: white" /><polygon type="contour" points="8.414589,9.478522 8.468313,9.480955 8.510014,9.4813 8.509943,9.488143 8.509823,9.537978 8.509823,9.594081 8.509928,9.650404 8.504117,9.650404 8.468313,9.650749 8.412687,9.650851 8.362113,9.650522 8.362016,9.589504 8.361959,9.542642 8.361998,9.476929 8.370182,9.476917" style="fill: white" /><polygon type="contour" points="8.370169,8.825075 8.414589,8.825276 8.468314,8.82543 8.509943,8.825373 8.510014,8.84339 8.510014,9.118659 8.504117,9.118659 8.468314,9.118731 8.414589,9.118574 8.361998,9.118391 8.361998,8.825037" style="fill: white" /><polygon type="contour" points="8.049092,8.824347 8.054223,8.824325 8.054223,8.837877 8.054636,9.117451 8.047787,9.117421 7.775183,9.117421 7.775476,8.836974 7.77549,8.823678 7.783079,8.823678" style="fill: white" /><polygon type="contour" points="8.056159,8.370326 8.055975,8.414592 8.055822,8.468316 8.055865,8.509931 8.048914,8.509944 7.945084,8.509944 7.944913,8.468315 7.944578,8.439917 7.944675,8.414591 7.944661,8.369715 7.944695,8.362 8.056159,8.362" style="fill: white" /><polygon type="contour" points="8.462107,8.362351 8.468313,8.362221 8.50993,8.362351 8.50993,8.468315 8.509943,8.509944 8.504113,8.509944 8.468314,8.509931 8.36235,8.509931 8.362219,8.468316 8.36201,8.414591 8.361998,8.362" style="fill: white" /><polygon type="contour" points="8.468314,7.944916 8.504447,7.945065 8.509943,7.945085 8.50993,7.952173 8.50993,8.055867 8.503985,8.055867 8.468313,8.055823 8.414589,8.055978 8.361998,8.056161 8.361998,7.944697 8.414589,7.944677 8.439914,7.94458" style="fill: white" /><polygon type="contour" points="9.116799,7.800913 9.116799,7.82801 9.116753,7.830462 9.116951,8.046399 9.116984,8.054145 8.824288,8.054145 8.82432,8.04645 8.82432,8.035067 8.824292,7.907686 8.824292,7.775374 9.018376,7.773987 9.116384,7.773384" style="fill: white" /><polygon type="contour" points="9.118354,8.370184 9.118572,8.414591 9.118624,8.439917 9.118728,8.468315 9.118657,8.504118 9.118657,8.510015 9.100715,8.509944 8.825371,8.509944 8.825371,8.504115 8.825428,8.468315 8.825325,8.439917 8.825273,8.414591 8.825074,8.370172 8.825036,8.362 9.11839,8.362" style="fill: white" /><polygon type="contour" points="9.116963,8.824335 9.116963,8.837641 9.117217,9.117219 8.839229,9.117235 8.823935,9.117235 8.823948,9.102016 8.823676,8.823677 8.836971,8.823667" style="fill: white" /><polygon type="contour" points="9.650526,8.825372 9.650526,9.118023 9.64247,9.118023 9.589117,9.118166 9.542198,9.118166 9.481175,9.118023 9.481175,8.825372 9.489181,8.825391 9.542198,8.825182 9.589118,8.825182" style="fill: white" /><polygon type="contour" points="9.654772,8.362 9.654784,8.370185 9.65318,8.414591 9.650747,8.468315 9.650402,8.510015 9.643558,8.509944 9.593724,8.509825 9.537621,8.509825 9.481299,8.510015 9.481299,8.504118 9.480954,8.468315 9.480852,8.412689 9.481181,8.362116 9.542197,8.362018 9.589059,8.361961" style="fill: white" /><polygon type="contour" points="9.589118,7.944895 9.650526,7.945017 9.650526,8.047661 9.65052,8.055848 9.589118,8.05588 9.54013,8.056004 9.480332,8.056099 9.480325,8.048356 9.481175,7.945017 9.542198,7.944895 9.5655,7.944707" style="fill: white" /><polygon type="contour" points="10.113323,7.773987 10.307408,7.775374 10.307408,7.854233 10.307381,8.035067 10.307413,8.054145 10.014714,8.054145 10.014747,8.046399 10.014948,7.830462 10.014901,7.800912 10.015317,7.773384" style="fill: white" /><polygon type="contour" points="10.717111,7.944677 10.761987,7.944663 10.769703,7.944697 10.769703,8.056161 10.761376,8.056161 10.717111,8.055978 10.663385,8.055823 10.62177,8.055867 10.621757,8.048916 10.621757,7.945086 10.663386,7.944915 10.691785,7.94458" style="fill: white" /><polygon type="contour" points="11.357251,7.890027 11.356584,7.908049 11.356364,8.05447 11.077232,8.05447 11.077232,8.003929 11.077389,7.837682 11.077389,7.775182 11.223653,7.775117 11.361385,7.770317" style="fill: white" /><polygon type="contour" points="11.356222,8.836973 11.356516,9.117421 11.083911,9.117421 11.077064,9.117451 11.077475,8.841123 11.077475,8.824346 11.083828,8.824373 11.348621,8.823678 11.35621,8.823678" style="fill: white" /><polygon type="contour" points="11.187024,8.414591 11.187123,8.439917 11.186786,8.468316 11.186636,8.504448 11.186616,8.509944 11.179529,8.509931 11.075602,8.51368 11.075602,8.507101 11.075747,8.467923 11.075722,8.414592 11.075537,8.362 11.187004,8.362" style="fill: white" /><polygon type="contour" points="10.769703,8.370325 10.769691,8.414591 10.769481,8.468315 10.769351,8.509931 10.663386,8.509931 10.621757,8.509944 10.621757,8.504115 10.62177,8.468315 10.62177,8.362351 10.627715,8.362351 10.663386,8.362221 10.71711,8.362012 10.769703,8.362" style="fill: white" /><polygon type="contour" points="10.306626,8.370172 10.306427,8.414591 10.306375,8.439917 10.306271,8.468315 10.306327,8.504115 10.306327,8.509944 10.288309,8.510015 10.013043,8.510015 10.013043,8.504118 10.013277,8.468315 10.01359,8.439916 10.013474,8.414592 10.013345,8.370184 10.01331,8.362 10.306665,8.362" style="fill: white" /><polygon type="contour" points="10.3081,8.836974 10.307431,9.116965 10.29406,9.116965 10.014279,9.117421 10.014279,8.824123 10.07759,8.824178 10.308025,8.823678" style="fill: white" /><polygon type="contour" points="10.769703,9.118391 10.761517,9.118355 10.717111,9.118575 10.662665,9.11838 10.621474,9.118081 10.621458,9.100525 10.621756,8.825373 10.627586,8.825373 10.663385,8.82543 10.71711,8.825276 10.769703,8.825037" style="fill: white" /><polygon type="contour" points="10.769741,9.542643 10.769741,9.589458 10.769703,9.654775 10.761517,9.654787 10.717111,9.653183 10.663385,9.650749 10.621686,9.650404 10.621757,9.64356 10.621877,9.594082 10.621877,9.537977 10.621772,9.4813 10.627582,9.4813 10.663385,9.480955 10.71711,9.478522 10.769703,9.476929" style="fill: white" /><polygon type="contour" points="11.186684,9.481176 11.186806,9.542585 11.186994,9.566201 11.186806,9.589504 11.186684,9.650528 11.084039,9.650528 11.075853,9.650522 11.07582,9.589504 11.075696,9.540506 11.075602,9.480334 11.083344,9.480327" style="fill: white" /><polygon type="contour" points="11.083911,10.014281 11.356515,10.014281 11.356222,10.294731 11.35621,10.308027 11.348621,10.308027 11.083828,10.307331 11.077475,10.307358 11.077475,10.290582 11.077064,10.014251" style="fill: white" /><polygon type="contour" points="10.769703,10.306666 10.76153,10.306628 10.717111,10.306428 10.663385,10.306273 10.621757,10.30633 10.621686,10.288312 10.62139,10.013623 10.627159,10.013623 10.662665,10.013626 10.71711,10.013477 10.769703,10.013313" style="fill: white" /><polygon type="contour" points="10.663385,10.621773 10.769351,10.621773 10.769481,10.663388 10.769691,10.717111 10.769703,10.769705 10.669592,10.769353 10.663386,10.769483 10.62177,10.769353 10.62177,10.663388 10.621757,10.62176 10.627586,10.62176" style="fill: white" /><polygon type="contour" points="10.769703,11.187005 10.717111,11.187026 10.691786,11.187125 10.663385,11.186787 10.627252,11.186638 10.621757,11.186618 10.62177,11.179531 10.618023,11.075605 10.624601,11.075605 10.663779,11.07575 10.71711,11.075725 10.769703,11.07554" style="fill: white" /><polygon type="contour" points="10.307381,11.085253 10.307381,11.096635 10.307408,11.224017 10.307408,11.35633 10.113323,11.357714 10.015317,11.358318 10.014901,11.330789 10.014901,11.303691 10.014948,11.301239 10.014747,11.085304 10.014714,11.077559 10.307413,11.077559" style="fill: white" /><polygon type="contour" points="10.030984,10.62176 10.306327,10.62176 10.306327,10.627588 10.306271,10.663388 10.306375,10.691786 10.306427,10.717112 10.306626,10.761531 10.306665,10.769705 10.01331,10.769705 10.013345,10.761519 10.013474,10.717111 10.01359,10.691787 10.013276,10.663387 10.013043,10.627585 10.013043,10.621689" style="fill: white" /><polygon type="contour" points="9.650402,10.627585 9.650747,10.663387 9.650849,10.719014 9.65052,10.769589 9.589118,10.769684 9.542243,10.769742 9.476927,10.769705 9.476915,10.761519 9.478519,10.717112 9.480954,10.663387 9.481299,10.621775 9.488142,10.62176 9.537621,10.621879 9.593724,10.621879 9.650402,10.621689" style="fill: white" /><polygon type="contour" points="9.54013,11.075699 9.589118,11.075823 9.65052,11.075856 9.650526,11.084042 9.650526,11.186685 9.589118,11.186808 9.565501,11.186996 9.542197,11.186807 9.481174,11.186685 9.480325,11.083347 9.480332,11.075605" style="fill: white" /><polygon type="contour" points="9.116951,11.085304 9.116753,11.301239 9.116798,11.330789 9.116384,11.358318 9.018376,11.357714 8.824292,11.35633 8.824292,11.27747 8.82432,11.096636 8.824288,11.077559 9.116984,11.077559" style="fill: white" /><polygon type="contour" points="8.843388,10.621775 9.118657,10.621775 9.118657,10.627585 9.118728,10.663387 9.118624,10.691786 9.118573,10.717111 9.118354,10.761519 9.11839,10.769705 8.825036,10.769705 8.825074,10.761531 8.825273,10.717112 8.825325,10.691786 8.825428,10.663388 8.825371,10.627588 8.825371,10.62176" style="fill: white" /><polygon type="contour" points="8.509943,10.627588 8.50993,10.663388 8.50993,10.769353 8.503984,10.769353 8.468314,10.769482 8.414589,10.769693 8.361998,10.769705 8.361998,10.761379 8.36201,10.717111 8.362219,10.663387 8.36235,10.621773 8.468313,10.621773 8.509943,10.62176" style="fill: white" /><polygon type="contour" points="8.41459,11.075725 8.468313,11.07588 8.50993,11.075836 8.509943,11.082788 8.509943,11.186618 8.468314,11.186788 8.439913,11.187124 8.414589,11.187026 8.369712,11.187038 8.361998,11.187005 8.361998,11.07554 8.370323,11.07554" style="fill: white" /><polygon type="contour" points="8.054468,11.127774 8.054311,11.294021 8.054311,11.356522 7.908047,11.356587 7.770315,11.361387 7.774449,11.241674 7.775115,11.223655 7.775336,11.077235 8.054468,11.077235" style="fill: white" />
</svg>
