<svg width="19.131698" height="19.131699">
<polygon type="contour" points="12.829955,12.62918 12.838628,12.838629 12.649408,12.831385 12.538565,12.828068 12.538565,12.700536 12.538748,12.593633 12.538748,12.53875 12.691058,12.538529 12.826499,12.537343" style="fill: white" /><polygon type="contour" points="12.108054,11.416494 12.205762,11.416494 12.205839,11.590315 12.205967,11.683768 12.067325,11.683768 11.998806,11.683808 11.998806,11.501869 11.998638,11.416485" style="fill: white" /><polygon type="contour" points="12.043816,10.817946 12.206179,10.817946 12.206179,10.881713 12.205761,11.110947 12.108054,11.110947 11.998638,11.11069 11.998966,10.910153 11.998966,10.817829" style="fill: white" /><polygon type="contour" points="11.683607,10.910862 11.683883,11.11069 11.549859,11.110902 11.416481,11.110902 11.41616,10.877021 11.41616,10.818081 11.500735,10.817926 11.683607,10.817926" style="fill: white" /><polygon type="contour" points="11.11077,10.81974 11.11077,11.110772 10.819738,11.110772 10.817996,10.839081 10.818182,10.835331 10.818733,10.818735 10.829897,10.818911 10.835328,10.818185 10.839079,10.817998" style="fill: white" /><polygon type="contour" points="11.1109,11.416482 11.1109,11.549861 11.110689,11.683885 10.91086,11.68361 10.817925,11.68361 10.81808,11.630081 10.81808,11.416162 10.87702,11.416162" style="fill: white" /><polygon type="contour" points="11.590313,11.416485 11.683883,11.416485 11.683883,11.590315 11.683806,11.683808 11.501868,11.683808 11.416484,11.683885 11.416484,11.590315 11.416492,11.5578 11.416481,11.416482" style="fill: white" /><polygon type="contour" points="11.683806,11.998808 11.683806,12.139786 11.683765,12.205969 11.590313,12.205841 11.416491,12.205764 11.416484,12.071145 11.416484,11.99864 11.590313,11.99864" style="fill: white" /><polygon type="contour" points="11.110945,12.108056 11.110945,12.205764 10.881712,12.206181 10.817944,12.206181 10.817827,12.1411 10.817827,11.998967 10.910151,11.998967 11.110689,11.99864" style="fill: white" /><polygon type="contour" points="11.110845,12.538334 11.110845,12.595665 11.1107,12.625531 11.1107,12.755844 11.11077,12.786169 11.110823,12.827866 10.99085,12.826525 10.820886,12.829056 10.82137,12.770101 10.82014,12.538323 10.879139,12.538181" style="fill: white" /><polygon type="contour" points="11.683766,12.613931 11.683806,12.65217 11.540656,12.652756 11.416481,12.652709 11.416751,12.594574 11.416751,12.537172 11.590314,12.536662 11.683766,12.536648" style="fill: white" /><polygon type="contour" points="12.112591,12.537129 12.205933,12.537129 12.205933,12.652627 12.115275,12.652668 11.998806,12.65217 11.998806,12.573582 11.998766,12.536647" style="fill: white" /><polygon type="contour" points="12.205933,12.112593 12.205933,12.205935 12.067324,12.205969 11.998766,12.205969 11.998766,12.067327 11.998806,11.998808 12.139784,11.998808 12.205967,11.998768" style="fill: white" /><polygon type="contour" points="12.652167,11.998808 12.652668,12.115276 12.652627,12.205935 12.537126,12.205935 12.537126,12.112594 12.536646,11.998768 12.613928,11.998768" style="fill: white" /><polygon type="contour" points="12.652754,11.540658 12.652167,11.683808 12.573581,11.683808 12.536646,11.683768 12.536661,11.590316 12.537208,11.416482 12.652708,11.416482" style="fill: white" /><polygon type="contour" points="12.829066,10.820928 12.826551,10.991305 12.827864,11.110825 12.681489,11.110847 12.538332,11.110847 12.538178,10.879139 12.53832,10.820141 12.580453,10.819613" style="fill: white" /><polygon type="contour" points="12.830545,6.497117 12.826499,6.59436 12.724875,6.594256 12.593632,6.592953 12.538748,6.592953 12.538748,6.303819 12.604782,6.300933 12.838628,6.293075" style="fill: white" /><polygon type="contour" points="12.652667,7.016425 12.652167,7.132894 12.573581,7.132894 12.536646,7.132935 12.537126,7.019109 12.537126,6.925769 12.652627,6.925769" style="fill: white" /><polygon type="contour" points="11.683883,8.021014 11.683607,8.220839 11.683607,8.313776 11.630079,8.313621 11.41616,8.313621 11.41616,8.25468 11.416481,8.020802 11.549859,8.020802" style="fill: white" /><polygon type="contour" points="12.206179,8.249988 12.206179,8.313757 12.141098,8.313874 11.998966,8.313874 11.998966,8.221549 11.998638,8.021014 12.108054,8.020757 12.205761,8.020757" style="fill: white" /><polygon type="contour" points="12.827864,8.020879 12.826609,8.140906 12.829085,8.310796 12.770099,8.310332 12.53832,8.311563 12.538178,8.252564 12.538332,8.020856 12.68149,8.020856" style="fill: white" /><polygon type="contour" points="12.652754,7.591045 12.652708,7.715222 12.594573,7.71495 12.537171,7.71495 12.536661,7.541385 12.536646,7.447934 12.613928,7.447934 12.652167,7.447895" style="fill: white" /><polygon type="contour" points="12.205967,7.447934 12.205839,7.541386 12.205762,7.71521 12.071141,7.715219 11.998638,7.715219 11.998638,7.541385 11.998806,7.447895 12.139784,7.447895" style="fill: white" /><polygon type="contour" points="11.110945,6.92594 11.110945,7.023646 11.110689,7.133062 10.910151,7.132736 10.817827,7.132736 10.817944,7.087885 10.817944,6.925523 10.881712,6.925523" style="fill: white" /><polygon type="contour" points="10.991019,6.305151 11.110823,6.303837 11.110823,6.416662 11.110845,6.536037 11.110845,6.59337 10.879139,6.593524 10.82014,6.59338 10.81951,6.551246 10.820823,6.302636" style="fill: white" /><polygon type="contour" points="11.683806,6.479535 11.683806,6.55812 11.683766,6.595056 11.590314,6.595042 11.416751,6.594532 11.416751,6.537129 11.416481,6.478994 11.540656,6.478947" style="fill: white" /><polygon type="contour" points="12.205933,6.479075 12.205933,6.594575 12.112592,6.594575 11.998766,6.595056 11.998766,6.517772 11.998806,6.479535 12.115276,6.479035" style="fill: white" /><polygon type="contour" points="12.112591,6.925769 12.205933,6.925769 12.205967,7.064375 12.205967,7.132935 12.067325,7.132935 11.998805,7.132894 11.998805,6.991917 11.998766,6.925735" style="fill: white" /><polygon type="contour" points="11.683766,7.064375 11.683806,7.132894 11.501868,7.132894 11.416484,7.133062 11.416492,7.023646 11.416492,6.92594 11.590313,6.925863 11.683766,6.925735" style="fill: white" /><polygon type="contour" points="11.683806,7.447894 11.683806,7.629834 11.683883,7.715219 11.590314,7.715219 11.557797,7.71521 11.416481,7.715222 11.416484,7.541386 11.416484,7.447817 11.590314,7.447817" style="fill: white" /><polygon type="contour" points="11.1109,7.581842 11.1109,7.715222 10.87702,7.715542 10.81808,7.715542 10.817925,7.630966 10.817783,7.447895 10.919564,7.447817 11.110689,7.447817" style="fill: white" /><polygon type="contour" points="11.11077,8.020932 11.11077,8.311964 10.839079,8.313706 10.835329,8.31352 10.818733,8.31297 10.818909,8.301805 10.818182,8.296373 10.817996,8.292624 10.820084,8.020471 10.841353,8.020471" style="fill: white" /><polygon type="contour" points="7.71554,8.25468 7.71554,8.313621 7.630964,8.313775 7.447892,8.313918 7.447815,8.212138 7.447815,8.021014 7.58184,8.020802 7.715219,8.020802" style="fill: white" /><polygon type="contour" points="8.310793,8.030675 8.312968,8.31297 8.301803,8.312793 8.296372,8.31352 8.292622,8.313706 8.02047,8.31162 8.02047,8.290349 8.02093,8.020932 8.290346,8.020471 8.311617,8.020471" style="fill: white" /><polygon type="contour" points="8.310329,6.361601 8.311561,6.593381 8.252561,6.593524 8.020854,6.59337 8.020854,6.536038 8.021,6.506171 8.021,6.375859 8.02093,6.345534 8.020877,6.303837 8.140849,6.305179 8.310815,6.302648" style="fill: white" /><polygon type="contour" points="8.313872,6.990602 8.313872,7.132736 8.221548,7.132736 8.021011,7.133062 8.020755,7.023646 8.020755,6.92594 8.249986,6.925523 8.313755,6.925523" style="fill: white" /><polygon type="contour" points="8.220837,7.448093 8.313774,7.448093 8.313619,7.501621 8.313619,7.715542 8.254678,7.715542 8.0208,7.715222 8.0208,7.581842 8.021011,7.447816" style="fill: white" /><polygon type="contour" points="7.715216,7.541385 7.715208,7.573903 7.715219,7.715222 7.541384,7.715219 7.447815,7.715219 7.447815,7.541386 7.447892,7.447895 7.629831,7.447895 7.715216,7.447817" style="fill: white" /><polygon type="contour" points="6.595054,7.447934 6.595039,7.541386 6.594492,7.715222 6.478992,7.715222 6.478946,7.591047 6.479533,7.447895 6.558119,7.447895" style="fill: white" /><polygon type="contour" points="6.594574,7.01911 6.595054,7.132934 6.517771,7.132934 6.479533,7.132895 6.479032,7.016426 6.479072,6.925769 6.594574,6.925769" style="fill: white" /><polygon type="contour" points="6.482004,6.300178 6.59298,6.303479 6.592999,6.405451 6.592851,6.455962 6.592951,6.538067 6.592951,6.592953 6.44064,6.593172 6.305202,6.59436 6.301744,6.502524 6.293073,6.293075" style="fill: white" /><polygon type="contour" points="7.132892,6.479535 7.132892,6.55812 7.132932,6.595056 7.019107,6.594575 6.925768,6.594575 6.925768,6.479074 7.016423,6.479035" style="fill: white" /><polygon type="contour" points="7.715219,6.478994 7.714948,6.53713 7.714948,6.594532 7.541383,6.595042 7.447931,6.595056 7.447931,6.517771 7.447892,6.479535 7.591044,6.478947" style="fill: white" /><polygon type="contour" points="7.541384,6.925863 7.715208,6.925939 7.715216,7.060557 7.715216,7.133062 7.541383,7.133062 7.447892,7.132895 7.447892,6.991917 7.447931,6.925736" style="fill: white" /><polygon type="contour" points="7.132932,7.064375 7.132892,7.132895 6.991915,7.132895 6.925734,7.132934 6.925768,7.01911 6.925768,6.925769 7.064373,6.925736 7.132932,6.925736" style="fill: white" /><polygon type="contour" points="7.132892,7.629834 7.13306,7.715219 7.023645,7.71521 6.925938,7.71521 6.925862,7.541385 6.925734,7.447934 7.064372,7.447934 7.132892,7.447895" style="fill: white" /><polygon type="contour" points="7.13306,8.021014 7.132733,8.22155 7.132733,8.313874 7.087884,8.313757 6.925522,8.313757 6.925522,8.249987 6.925938,8.020757 7.023644,8.020757" style="fill: white" /><polygon type="contour" points="6.593522,8.252564 6.59338,8.311563 6.551246,8.312091 6.302634,8.310776 6.305148,8.140397 6.303836,8.020879 6.450209,8.020856 6.593368,8.020856" style="fill: white" /><polygon type="contour" points="6.593522,10.879139 6.593368,11.110847 6.45021,11.110847 6.303836,11.110825 6.30509,10.990796 6.302615,10.820909 6.3616,10.821373 6.593379,10.820141" style="fill: white" /><polygon type="contour" points="7.132733,10.910152 7.13306,11.11069 7.023644,11.110947 6.925938,11.110947 6.925522,10.881714 6.925522,10.817946 6.990601,10.817829 7.132733,10.817829" style="fill: white" /><polygon type="contour" points="7.50162,10.818081 7.71554,10.818081 7.71554,10.877021 7.715219,11.110902 7.58184,11.110902 7.447815,11.11069 7.448092,10.910861 7.448092,10.817926" style="fill: white" /><polygon type="contour" points="8.313705,10.839081 8.311962,11.110772 8.02093,11.110772 8.02047,10.841353 8.02047,10.820084 8.030674,10.820906 8.312968,10.818735" style="fill: white" /><polygon type="contour" points="8.311561,12.538323 8.31219,12.580457 8.310878,12.829068 8.140679,12.826553 8.020877,12.827866 8.020877,12.71504 8.020854,12.595666 8.020854,12.538334 8.25256,12.538181" style="fill: white" /><polygon type="contour" points="8.221548,11.998967 8.313872,11.998967 8.313755,12.043817 8.313755,12.206181 8.249986,12.206181 8.020755,12.205763 8.020755,12.108056 8.021011,11.99864" style="fill: white" /><polygon type="contour" points="8.313774,11.500736 8.313916,11.683808 8.212136,11.683885 8.021011,11.683885 8.0208,11.549861 8.0208,11.416482 8.254678,11.416162 8.313619,11.416162" style="fill: white" /><polygon type="contour" points="7.715216,11.590315 7.715216,11.683885 7.541384,11.683885 7.447892,11.683808 7.447892,11.501869 7.447815,11.416485 7.541383,11.416485 7.573902,11.416494 7.715219,11.416482" style="fill: white" /><polygon type="contour" points="7.132932,12.613931 7.132892,12.65217 7.016424,12.652668 6.925768,12.652627 6.925768,12.537129 7.019107,12.537129 7.132932,12.536647" style="fill: white" /><polygon type="contour" points="7.541383,12.536662 7.715219,12.53721 7.715219,12.652709 7.591043,12.652756 7.447892,12.65217 7.447892,12.573581 7.447931,12.536647" style="fill: white" /><polygon type="contour" points="7.715208,12.108057 7.715208,12.205764 7.541384,12.205841 7.447931,12.205969 7.447931,12.067327 7.447892,11.998808 7.629831,11.998808 7.715216,11.99864" style="fill: white" /><polygon type="contour" points="7.132892,11.998808 7.132892,12.139786 7.132932,12.205969 7.019108,12.205935 6.925768,12.205935 6.925734,12.067326 6.925734,11.998768 7.064372,11.998768" style="fill: white" /><polygon type="contour" points="7.13306,11.590315 7.132892,11.683808 6.991915,11.683808 6.925734,11.683768 6.925862,11.590316 6.925938,11.416494 7.060556,11.416485 7.13306,11.416485" style="fill: white" /><polygon type="contour" points="6.595039,11.590316 6.595054,11.683768 6.517771,11.683768 6.479532,11.683808 6.478946,11.540658 6.478992,11.416482 6.594491,11.416482" style="fill: white" /><polygon type="contour" points="6.594574,12.112594 6.594574,12.205935 6.479072,12.205935 6.479032,12.115276 6.479533,11.998808 6.558118,11.998808 6.595054,11.998768" style="fill: white" /><polygon type="contour" points="6.406824,12.537447 6.538065,12.53875 6.592951,12.53875 6.592951,12.827885 6.526916,12.83077 6.293073,12.838629 6.301155,12.634585 6.305202,12.537343" style="fill: white" />
</svg>
