<svg width="19.131698" height="19.131699">
<polygon type="contour" points="7.7209,7.552121 7.850318,7.561944 7.850318,7.730235 7.945803,7.730392 8.026734,7.730185 8.026811,7.821987 8.026811,7.919711 8.026734,7.993736 8.026734,8.026735 7.945803,8.026812 7.850808,8.026812 7.766633,8.026735 7.730183,8.026735 7.730115,7.99848 7.73055,7.85042 7.645539,7.849705 7.578299,7.848895 7.577773,7.848765 7.5599,7.848627 7.559945,7.792214 7.550784,7.550786" style="fill: white" /><polygon type="contour" points="8.925153,7.560712 8.924894,7.627343 8.925625,7.633616 8.925625,7.705597 8.925635,7.709027 8.925974,7.819963 8.926177,7.919639 8.926323,7.919639 8.926384,7.945805 8.926155,8.026955 8.709877,8.026862 8.555082,8.026862 8.489319,8.026735 8.460204,8.026735 8.459901,7.945805 8.459901,7.85081 8.460204,7.766634 8.460204,7.730185 8.485537,7.730116 8.632108,7.731107 8.632108,7.626496 8.632093,7.593786 8.632093,7.561529 8.864053,7.560509" style="fill: white" /><polygon type="contour" points="9.177613,7.730282 9.177628,7.823154 9.177628,7.919575 9.177613,7.994677 9.177977,8.026735 9.08516,8.026955 9.049934,8.026955 9.049814,7.945806 9.050187,7.850674 9.049867,7.850673 9.05,7.758095 9.050057,7.730345 9.144127,7.730131" style="fill: white" /><polygon type="contour" points="9.138509,8.460204 9.177977,8.460204 9.177197,8.530207 9.175881,8.632632 9.176877,8.632635 9.17771,8.848324 9.17771,8.926129 9.083591,8.926129 9.050058,8.926068 9.049715,8.698462 9.049715,8.555157 9.049555,8.555157 9.049889,8.482301 9.049934,8.459851" style="fill: white" /><polygon type="contour" points="8.926479,8.530206 8.926419,8.53414 8.926055,8.544504 8.926382,8.555157 8.926141,8.555157 8.925659,8.853137 8.925557,8.925559 8.853788,8.925694 8.555157,8.926175 8.555157,8.926383 8.482301,8.926038 8.45985,8.926157 8.460067,8.709878 8.460067,8.555084 8.460204,8.48932 8.460204,8.460204 8.530206,8.460069 8.555083,8.460069 8.555083,8.460148 8.845496,8.459851 8.926155,8.459851" style="fill: white" /><polygon type="contour" points="7.993734,8.460204 8.026734,8.460204 8.02686,8.530207 8.02686,8.555083 8.026825,8.555083 8.026954,8.845498 8.026954,8.926157 7.945803,8.926385 7.919636,8.926325 7.919636,8.926208 7.758,8.925694 7.688983,8.925559 7.561195,8.925559 7.561331,8.853137 7.561596,8.632019 7.730471,8.632019 7.730622,8.530207 7.730183,8.460204 7.821983,8.459903 7.919709,8.459903" style="fill: white" /><polygon type="contour" points="8.00164,9.05006 8.026954,9.049936 8.026734,9.13851 8.026734,9.177979 7.945802,9.177916 7.850747,9.17747 7.850747,9.177792 7.765287,9.177823 7.73028,9.177823 7.730129,9.14413 7.730344,9.05006 7.758006,9.05006 7.887268,9.049862" style="fill: white" /><polygon type="contour" points="8.555157,9.049597 8.857071,9.05006 8.926066,9.05006 8.926066,9.148025 8.926126,9.177897 8.707073,9.177056 8.632635,9.177056 8.632635,9.176165 8.488439,9.177822 8.460204,9.177979 8.45985,9.085162 8.45985,9.049936 8.530206,9.049614 8.555157,9.049555" style="fill: white" /><polygon type="contour" points="9.177613,9.13969 9.177613,9.177823 9.083591,9.177897 9.049796,9.177897 9.049796,9.083778 9.050058,9.05006 9.08359,9.049798 9.17771,9.049798" style="fill: white" /><polygon type="contour" points="11.280967,9.050188 11.280968,9.049918 11.373694,9.05006 11.401357,9.05006 11.401572,9.14413 11.401421,9.177823 11.308548,9.177793 11.280953,9.177793 11.280953,9.177765 11.137021,9.177823 11.104965,9.177979 11.104746,9.085162 11.104746,9.049936 11.185895,9.049815" style="fill: white" /><polygon type="contour" points="11.365068,8.460204 11.401517,8.460204 11.401587,8.485538 11.400595,8.632019 11.570103,8.632019 11.570369,8.853138 11.570506,8.925559 11.442717,8.925559 11.373699,8.925695 11.212064,8.926208 11.212064,8.926325 11.129777,8.926075 11.104746,8.926157 11.10484,8.709877 11.10484,8.555084 11.104965,8.48932 11.104965,8.460204 11.185895,8.459903 11.280891,8.459903" style="fill: white" /><polygon type="contour" points="11.580736,7.715896 11.57181,7.848617 11.5534,7.848894 11.486159,7.849705 11.401466,7.850417 11.40131,7.945806 11.401517,8.026734 11.309714,8.026812 11.21199,8.026812 11.137964,8.026735 11.104965,8.026735 11.10489,7.945805 11.10489,7.850809 11.104965,7.766635 11.104965,7.730185 11.13322,7.730116 11.281382,7.730552 11.281382,7.561945 11.307484,7.561846 11.580917,7.550786" style="fill: white" /><polygon type="contour" points="10.464918,7.561635 10.499608,7.561529 10.499608,7.58069 10.499592,7.626497 10.499624,7.730472 10.601493,7.730624 10.671497,7.730185 10.671799,7.821986 10.671799,7.919711 10.671497,7.993737 10.671497,8.026735 10.601494,8.026862 10.576617,8.026862 10.576617,8.026828 10.286202,8.026955 10.205545,8.026955 10.205314,7.945805 10.205408,7.941956 10.205758,7.930802 10.205373,7.919639 10.205442,7.919639 10.205952,7.75785 10.206065,7.709027 10.206074,7.633615 10.206546,7.560712" style="fill: white" /><polygon type="contour" points="10.081642,7.730345 10.081699,7.758095 10.081833,7.850674 10.081326,7.850674 10.081931,7.941956 10.081886,7.945805 10.081767,8.026955 9.993192,8.026735 9.953724,8.026735 9.953786,7.945805 9.954231,7.850749 9.953909,7.85075 9.95388,7.765289 9.95388,7.730282 9.987571,7.730131" style="fill: white" /><polygon type="contour" points="10.421822,8.460069 10.576616,8.460069 10.642382,8.460204 10.671497,8.460204 10.671633,8.530207 10.671633,8.555084 10.671553,8.555084 10.67185,8.845498 10.67185,8.926157 10.601494,8.92648 10.576544,8.926383 10.576544,8.926142 10.278563,8.925659 10.206142,8.925559 10.205777,8.700046 10.205575,8.555157 10.205318,8.555157 10.205664,8.482301 10.205545,8.459851" style="fill: white" /><polygon type="contour" points="10.082087,8.530207 10.082145,8.555157 10.082103,8.555157 10.081642,8.857073 10.081642,8.926068 9.983676,8.926068 9.953806,8.926129 9.954646,8.707073 9.954646,8.632635 9.955535,8.632635 9.95388,8.488439 9.953724,8.460204 10.046539,8.459851 10.081767,8.459851" style="fill: white" /><polygon type="contour" points="10.081642,9.05006 10.081904,9.083778 10.081904,9.177897 9.992013,9.177823 9.953879,9.177823 9.953806,9.083778 9.953806,9.049798 10.047923,9.049798" style="fill: white" /><polygon type="contour" points="10.649399,9.049891 10.67185,9.049936 10.671497,9.138511 10.671497,9.177979 10.601494,9.177199 10.545146,9.176876 10.283377,9.177897 10.205574,9.177897 10.205574,9.083778 10.205634,9.05006 10.274628,9.05006 10.576543,9.049597 10.576544,9.049556" style="fill: white" /><polygon type="contour" points="10.421823,11.104842 10.576616,11.104842 10.642381,11.104967 10.671497,11.104967 10.671799,11.185897 10.671799,11.280894 10.671497,11.365069 10.671497,11.401518 10.646164,11.401588 10.499592,11.400596 10.499592,11.505207 10.499608,11.537917 10.499608,11.570176 10.267646,11.571196 10.206546,11.570992 10.206804,11.50436 10.206075,11.498088 10.206075,11.426106 10.206064,11.422676 10.205722,11.31174 10.205521,11.212065 10.205373,11.212065 10.205626,11.129778 10.205545,11.104749" style="fill: white" /><polygon type="contour" points="10.081886,11.185897 10.081512,11.280968 10.081782,11.280969 10.081642,11.373695 10.081642,11.401359 9.987571,11.401573 9.95388,11.401422 9.953909,11.30855 9.95391,11.280954 9.953935,11.280954 9.95388,11.137023 9.953724,11.104967 10.046539,11.104749 10.081767,11.104749" style="fill: white" /><polygon type="contour" points="9.138509,11.104967 9.177977,11.104967 9.177915,11.185898 9.176874,11.280954 9.177628,11.280954 9.177614,11.366413 9.177613,11.401422 9.144127,11.401573 9.050057,11.401359 9.05,11.373608 9.049867,11.28103 9.050373,11.281028 9.049769,11.189747 9.049814,11.185898 9.049934,11.104749" style="fill: white" /><polygon type="contour" points="8.926073,11.129778 8.926323,11.212065 8.926177,11.212065 8.925974,11.31174 8.925635,11.422677 8.925625,11.498087 8.925152,11.570992 8.666782,11.570069 8.632093,11.570176 8.632093,11.551012 8.632108,11.505207 8.632075,11.401231 8.530206,11.401079 8.460204,11.401518 8.459901,11.309716 8.459901,11.211992 8.4599,11.211992 8.460204,11.137966 8.460204,11.104966 8.530205,11.104842 8.555082,11.104842 8.555082,11.104875 8.845497,11.104749 8.926155,11.104749" style="fill: white" /><polygon type="contour" points="7.993735,11.104967 8.026734,11.104967 8.026811,11.185897 8.026811,11.280894 8.026734,11.365068 8.026734,11.401518 7.998479,11.401587 7.850318,11.401151 7.850318,11.56976 7.824215,11.569859 7.550784,11.580918 7.550965,11.415807 7.559888,11.283087 7.578298,11.282809 7.645538,11.281998 7.730233,11.281286 7.73039,11.185897 7.730183,11.104967 7.821984,11.104893 7.919708,11.104893" style="fill: white" /><polygon type="contour" points="8.001924,10.205628 8.026954,10.205547 8.02686,10.421826 8.02686,10.57662 8.026734,10.642383 8.026734,10.6715 7.945803,10.671801 7.850807,10.671801 7.766632,10.6715 7.730183,10.6715 7.730114,10.646165 7.731105,10.499685 7.561596,10.499685 7.561331,10.278566 7.561195,10.206144 7.688983,10.206144 7.758414,10.205975 7.919636,10.205464 7.919636,10.205376" style="fill: white" /><polygon type="contour" points="8.026954,10.04654 8.026954,10.081768 7.945803,10.081889 7.850671,10.081515 7.850671,10.081836 7.758094,10.081702 7.730344,10.081644 7.730129,9.987574 7.73028,9.95409 7.82315,9.954076 7.919572,9.954076 7.919572,9.954075 7.994676,9.95409 8.026734,9.953726" style="fill: white" /><polygon type="contour" points="8.530206,9.954506 8.632632,9.955818 8.632634,9.954826 8.848322,9.953993 8.926126,9.953993 8.926126,10.048111 8.926066,10.081644 8.698462,10.081988 8.555157,10.081988 8.555156,10.082148 8.4823,10.081812 8.45985,10.081768 8.460204,9.993194 8.460204,9.953726" style="fill: white" /><polygon type="contour" points="8.555157,10.205321 8.555157,10.205561 8.853136,10.206044 8.925557,10.206144 8.925922,10.431657 8.926124,10.576547 8.926382,10.576547 8.926036,10.649401 8.926155,10.671853 8.709878,10.671635 8.555083,10.671635 8.489319,10.6715 8.460204,10.6715 8.460067,10.601496 8.460067,10.57662 8.460146,10.57662 8.45985,10.286205 8.45985,10.205547 8.530205,10.205224" style="fill: white" /><polygon type="contour" points="9.176877,10.424629 9.176877,10.499068 9.176022,10.499068 9.177613,10.643263 9.177977,10.6715 9.085161,10.671853 9.049934,10.671853 9.049614,10.601496 9.049555,10.576547 9.049596,10.576547 9.050058,10.27463 9.050058,10.205636 9.148024,10.205636 9.17771,10.205575" style="fill: white" /><polygon type="contour" points="9.139688,9.95409 9.177613,9.95409 9.17771,10.04811 9.17771,10.081907 9.08359,10.081907 9.050058,10.081644 9.049796,10.048111 9.049796,9.953993" style="fill: white" /><polygon type="contour" points="10.081904,10.048111 10.081642,10.081644 10.047923,10.081907 9.953806,10.081907 9.95388,9.992015 9.95388,9.95409 10.047924,9.953993 10.081904,9.953993" style="fill: white" /><polygon type="contour" points="10.081642,10.205636 10.081985,10.433241 10.081985,10.576546 10.082144,10.576547 10.081811,10.649401 10.081767,10.671853 9.993191,10.6715 9.953724,10.6715 9.954503,10.601496 9.954825,10.545172 9.953806,10.283378 9.953806,10.205575 10.047924,10.205575" style="fill: white" /><polygon type="contour" points="10.6494,10.205666 10.67185,10.205547 10.671633,10.421825 10.671633,10.576619 10.671497,10.642384 10.671497,10.6715 10.601493,10.671635 10.576617,10.671635 10.576617,10.671555 10.286203,10.671853 10.205545,10.671853 10.205664,10.649402 10.205318,10.576547 10.205558,10.576547 10.206041,10.278566 10.206142,10.206144 10.277911,10.206009 10.576544,10.205528 10.576544,10.205321" style="fill: white" /><polygon type="contour" points="10.67185,10.046541 10.67185,10.081768 10.601493,10.082089 10.576544,10.082148 10.576544,10.082106 10.274628,10.081644 10.205634,10.081644 10.205634,9.983679 10.205574,9.953993 10.424627,9.954826 10.499065,9.954826 10.499065,9.95568 10.643262,9.954089 10.671497,9.953726" style="fill: white" /><polygon type="contour" points="11.185896,9.953788 11.280953,9.954831 11.280952,9.954076 11.366412,9.95409 11.401421,9.95409 11.401572,9.987574 11.401357,10.081644 11.373694,10.081644 11.244431,10.081841 11.13006,10.081644 11.104746,10.081768 11.104965,9.993194 11.104965,9.953726" style="fill: white" /><polygon type="contour" points="11.212064,10.205376 11.212064,10.20549 11.3737,10.206009 11.442717,10.206144 11.570506,10.206144 11.570368,10.278566 11.570103,10.499685 11.401233,10.499685 11.401078,10.601496 11.401517,10.6715 11.309714,10.671801 11.211991,10.671801 11.137965,10.6715 11.104965,10.6715 11.10484,10.601496 11.10484,10.576619 11.104874,10.57662 11.104746,10.286205 11.104746,10.205547 11.185896,10.205316" style="fill: white" /><polygon type="contour" points="11.365068,11.104967 11.401517,11.104967 11.401585,11.133221 11.401149,11.281284 11.486159,11.281997 11.553399,11.282809 11.553925,11.282939 11.571799,11.283077 11.571753,11.339489 11.580917,11.580918 11.4108,11.579583 11.281382,11.56976 11.281382,11.401468 11.185895,11.401312 11.104965,11.401518 11.10489,11.309715 11.10489,11.211991 11.104965,11.137965 11.104965,11.104967 11.185895,11.104893 11.280891,11.104893" style="fill: white" />
</svg>
