<svg width="19.131698" height="19.131699">
<polygon type="contour" points="11.279532,8.108209 11.278759,8.129133 11.1949,8.129229 11.1949,8.89533 11.278491,8.895517 11.278655,9.023211 11.278828,9.188636 11.1949,9.188632 11.1949,9.943048 11.278835,9.943095 11.278664,10.072807 11.27849,10.236187 11.1949,10.236088 11.1949,11.002313 11.278759,11.00257 11.279533,11.023493 11.28426,11.104726 11.288691,11.288692 11.016469,11.279206 11.002987,11.279314 11.002808,11.274366 11.002808,11.269584 11.002815,11.269335 11.002078,11.194902 10.236372,11.194902 10.236186,11.278493 10.104155,11.27867 9.94371,11.279725 9.943252,11.194902 9.188384,11.194902 9.187988,11.279725 9.027545,11.27867 8.895514,11.278493 8.895614,11.194902 8.129619,11.194902 8.128886,11.269334 8.128893,11.274366 8.128843,11.274706 8.128714,11.279314 8.115231,11.279206 7.84301,11.288692 7.852168,11.023492 7.85294,11.00257 7.9368,11.002471 7.9368,10.236373 7.853208,10.236187 7.853044,10.108492 7.852872,9.943068 7.9368,9.943069 7.9368,9.188654 7.852865,9.188608 7.853034,9.058896 7.853208,8.895517 7.9368,8.895615 7.9368,8.129389 7.852941,8.129133 7.852168,8.108209 7.84744,8.026978 7.84301,7.843012 8.115232,7.852498 8.128714,7.85239 8.128893,7.857337 8.128893,7.862079 8.128885,7.862368 8.129619,7.936802 8.895327,7.936802 8.895514,7.85321 9.027545,7.853033 9.187988,7.851978 9.188446,7.936802 9.943316,7.936802 9.943711,7.851978 10.104154,7.853033 10.236186,7.85321 10.236085,7.936802 11.002078,7.936802 11.002814,7.862369 11.002808,7.857337 11.002858,7.856997 11.002987,7.85239 11.016469,7.852498 11.288691,7.843012" style="fill: white" />
</svg>
