<svg width="19.131698" height="19.131699">
<polygon type="contour" points="3.538116,0.963736 3.538146,0.97058 3.538146,1.045448 3.629003,1.045436 3.665675,1.045443 3.832488,1.045517 3.926771,1.045653 3.910693,1.218794 3.911409,1.283794 3.723688,1.283794 3.671979,1.28357 3.205505,1.283502 3.205505,1.243818 3.205363,1.141065 3.205446,1.016701 3.205476,1.00307 3.205569,0.980694 3.205626,0.977594 3.205573,0.970236 3.205616,0.969688 3.205616,0.960267 3.205584,0.95981 3.205581,0.950883 3.498219,0.950194 3.538091,0.950194" style="fill: white" /><polygon type="contour" points="0.993228,0.950221 1.284096,0.950896 1.284047,0.960267 1.284047,0.969689 1.284061,0.970007 1.284054,0.977201 1.28405,0.980267 1.283947,1.00148 1.283911,1.014201 1.283465,1.140666 1.283465,1.283466 1.140664,1.283466 1.0142,1.283913 1.001479,1.283949 0.980266,1.284052 0.977199,1.284056 0.970005,1.284063 0.960267,1.284049 0.95981,1.284088 0.950882,1.284085 0.950901,1.264325 0.950221,0.96007 0.950221,0.950222 0.992974,0.950178" style="fill: white" /><polygon type="contour" points="2.057544,2.558754 2.057544,2.695002 1.946315,2.695164 1.724967,2.695305 1.724967,2.61341 1.725272,2.499865 1.946314,2.499865 2.057441,2.499657" style="fill: white" /><polygon type="contour" points="2.558753,2.499701 2.695,2.499701 2.695,2.558755 2.695104,2.695106 2.620014,2.695106 2.4997,2.695002 2.499655,2.642855 2.499655,2.499657" style="fill: white" /><polygon type="contour" points="2.695163,1.946315 2.695,2.057545 2.642853,2.057442 2.499655,2.057442 2.499864,1.946315 2.499864,1.725273 2.565056,1.725273 2.695303,1.72497" style="fill: white" /><polygon type="contour" points="2.695303,1.200621 2.695303,1.283541 2.613409,1.283541 2.499864,1.283653 2.499655,1.245754 2.499655,1.141049 2.62787,1.140981 2.695104,1.140945" style="fill: white" /><polygon type="contour" points="1.946315,1.140852 2.057441,1.141049 2.057305,1.18852 2.057305,1.283653 1.880469,1.283466 1.725178,1.283466 1.725178,1.140666" style="fill: white" /><polygon type="contour" points="2.057305,1.725273 2.057305,1.946316 2.057441,2.057442 1.946315,2.057306 1.725272,2.057306 1.725272,1.946315 1.725178,1.72518 1.880469,1.72518" style="fill: white" /><polygon type="contour" points="1.283465,1.880471 1.283651,2.057305 1.245751,2.057442 1.141048,2.057442 1.140851,1.946316 1.140664,1.72518 1.283465,1.72518" style="fill: white" /><polygon type="contour" points="1.188517,2.499865 1.283651,2.499865 1.283651,2.565056 1.283539,2.695305 1.228837,2.695106 1.140943,2.695106 1.141016,2.558754 1.141047,2.499657" style="fill: white" /><polygon type="contour" points="1.2835,3.205507 1.2835,3.797921 1.283502,3.928722 1.117351,3.913782 1.045768,3.920176 1.045768,3.810796 1.045364,3.618318 1.045333,3.609019 1.045446,3.538148 0.970578,3.538148 0.963734,3.538118 0.96344,3.538113 0.950193,3.538093 0.950193,3.498221 0.950882,3.205584 0.960266,3.205618 0.970234,3.205574 0.977592,3.205627 0.980691,3.20557 1.003068,3.205478 1.016699,3.205448 1.141063,3.205365 1.185032,3.205365" style="fill: white" /><polygon type="contour" points="2.057441,3.438034 2.057441,3.916901 1.803364,3.921905 1.725083,3.919209 1.725083,3.675323 1.725178,3.205665 1.868911,3.205587 2.057544,3.205317" style="fill: white" /><polygon type="contour" points="2.695392,3.693025 2.695392,3.91916 2.64932,3.920699 2.499329,3.917357 2.499384,3.689101 2.4997,3.205318 2.620013,3.205245 2.695104,3.205245" style="fill: white" /><polygon type="contour" points="3.708,3.205387 3.929766,3.205387 3.931135,3.412256 3.917716,3.646035 3.914466,3.914467 3.443106,3.908005 3.205728,3.909473 3.205728,3.823615 3.205556,3.697148 3.205363,3.205365" style="fill: white" /><polygon type="contour" points="3.915956,2.552043 3.919159,2.695393 3.693023,2.695393 3.205243,2.695106 3.205243,2.620016 3.205316,2.499701 3.6891,2.499385 3.917355,2.499332" style="fill: white" /><polygon type="contour" points="3.921903,1.803366 3.917355,2.05802 3.689099,2.058087 3.205316,2.057545 3.205586,1.868913 3.205664,1.72518 3.675321,1.725085 3.919207,1.725085" style="fill: white" /><polygon type="contour" points="18.18148,0.950222 18.18148,0.96007 18.180799,1.264326 18.180818,1.284085 18.171433,1.284049 18.162013,1.284049 18.161695,1.284063 18.1545,1.284056 18.151435,1.284052 18.130222,1.283949 18.117499,1.283912 17.991038,1.283466 17.848236,1.283466 17.848236,1.140666 17.847787,1.014201 17.847752,1.001481 17.84765,0.980267 17.847645,0.977201 17.84764,0.970006 17.847652,0.960267 17.847614,0.95981 17.847604,0.950896 18.138472,0.950221 18.138726,0.950178" style="fill: white" /><polygon type="contour" points="17.40652,1.283466 17.251228,1.283466 17.074394,1.283653 17.074258,1.245753 17.074258,1.141049 17.185383,1.140852 17.40652,1.140666" style="fill: white" /><polygon type="contour" points="18.115,3.205448 18.128629,3.205478 18.151008,3.20557 18.154107,3.205627 18.161466,3.205574 18.162014,3.205617 18.171433,3.205617 18.17189,3.205586 18.180818,3.205583 18.181508,3.498221 18.181508,3.538093 18.167965,3.538118 18.16112,3.538148 18.08625,3.538148 18.086366,3.609019 18.086333,3.618318 18.08593,3.810796 18.08593,3.920176 18.014346,3.913782 17.848198,3.928722 17.848198,3.205507 17.887881,3.205507 17.990633,3.205365" style="fill: white" /><polygon type="contour" points="17.990719,2.627872 17.990756,2.695106 17.931079,2.695305 17.848162,2.695305 17.848162,2.61341 17.848048,2.499865 17.885947,2.499657 17.990648,2.499657" style="fill: white" /><polygon type="contour" points="17.990846,1.946316 17.990648,2.057442 17.943178,2.057306 17.848048,2.057306 17.848048,1.946315 17.848236,1.72518 17.991034,1.72518" style="fill: white" /><polygon type="contour" points="17.406732,1.918044 17.40643,1.946316 17.40643,2.057306 17.185383,2.057306 17.074258,2.057442 17.074394,1.946316 17.074394,1.725273 17.185383,1.725273 17.40652,1.72518" style="fill: white" /><polygon type="contour" points="15.442598,2.499385 15.926383,2.499701 15.926383,2.558755 15.926455,2.695106 15.438675,2.695393 15.212541,2.695393 15.211003,2.649321 15.214345,2.499331" style="fill: white" /><polygon type="contour" points="15.926036,1.72518 15.926113,1.868914 15.926383,2.057545 15.693667,2.057442 15.214801,2.057442 15.209262,1.803365 15.212001,1.725085 15.455888,1.725085" style="fill: white" /><polygon type="contour" points="15.926119,0.950883 15.926086,0.960267 15.926128,0.970237 15.926076,0.977594 15.926132,0.980694 15.926225,1.00307 15.926255,1.016701 15.926336,1.141065 15.926336,1.185034 15.926195,1.283502 15.78688,1.283466 15.407472,1.283794 15.219751,1.283794 15.215356,1.254944 15.211525,1.04577 15.320905,1.04577 15.513478,1.045631 15.52267,1.045402 15.593555,1.045447 15.593555,0.97058 15.593585,0.963735 15.593589,0.96344 15.593609,0.950194 15.633481,0.950194" style="fill: white" /><polygon type="contour" points="16.572944,1.141017 16.632044,1.141049 16.631835,1.188519 16.631835,1.283653 16.566642,1.283653 16.436396,1.283541 16.436594,1.228839 16.436594,1.140945" style="fill: white" /><polygon type="contour" points="16.631835,1.725273 16.631835,1.946315 16.632044,2.057442 16.572945,2.057545 16.436697,2.057545 16.436534,1.946315 16.436396,1.72497 16.518289,1.72497" style="fill: white" /><polygon type="contour" points="16.631999,2.558754 16.631999,2.695002 16.572944,2.695002 16.436594,2.695106 16.436594,2.620015 16.436696,2.499701 16.488845,2.499657 16.632044,2.499657" style="fill: white" /><polygon type="contour" points="17.185384,2.499865 17.40643,2.499865 17.40643,2.565056 17.406731,2.695305 17.185383,2.695164 17.074154,2.695002 17.074258,2.642855 17.074258,2.499657" style="fill: white" /><polygon type="contour" points="17.262784,3.205587 17.40652,3.205665 17.406616,3.675323 17.406616,3.919209 17.328333,3.921905 17.07368,3.917357 17.073614,3.6891 17.074154,3.205318" style="fill: white" /><polygon type="contour" points="16.631998,3.205318 16.632316,3.689101 16.63237,3.917357 16.579659,3.915958 16.436308,3.91916 16.436308,3.693025 16.436593,3.205245 16.511686,3.205245" style="fill: white" /><polygon type="contour" points="15.926142,3.697147 15.925971,3.823616 15.925971,3.909473 15.847435,3.909743 15.688593,3.908005 15.483228,3.912993 15.217234,3.914467 15.213982,3.646035 15.201933,3.205387 15.423698,3.205387 15.926335,3.205364" style="fill: white" /><polygon type="contour" points="18.180818,17.847618 18.1808,17.867378 18.18148,18.171633 18.18148,18.181482 18.138725,18.181526 18.138471,18.181482 17.847604,18.180808 17.847652,18.171436 17.847652,18.162015 17.84764,18.161697 17.847645,18.154502 17.84765,18.151437 17.847751,18.130224 17.847788,18.117501 17.848236,17.991039 17.848236,17.952983 17.848238,17.848236 17.991037,17.848236 18.117499,17.84779 18.130222,17.847753 18.151435,17.847652 18.1545,17.847647 18.161695,17.847641 18.171433,17.847654 18.171889,17.847616" style="fill: white" /><polygon type="contour" points="17.990846,17.185385 17.991034,17.406522 17.848238,17.406522 17.848236,17.251229 17.848048,17.074396 17.885946,17.07426 17.990648,17.07426" style="fill: white" /><polygon type="contour" points="16.632044,17.885949 16.632044,17.990652 16.503829,17.990721 16.436594,17.990758 16.436396,17.931081 16.436396,17.848162 16.51829,17.848162 16.631835,17.84805" style="fill: white" /><polygon type="contour" points="17.251228,17.848238 17.406522,17.848238 17.406522,17.924341 17.40652,17.991036 17.185383,17.99085 17.074258,17.990652 17.074394,17.943182 17.074394,17.84805" style="fill: white" /><polygon type="contour" points="17.185383,17.074396 17.40643,17.074396 17.40643,17.185386 17.406522,17.406522 17.251228,17.406522 17.074394,17.406431 17.074394,17.185385 17.074258,17.07426" style="fill: white" /><polygon type="contour" points="17.406732,16.518291 17.40643,16.631837 17.185384,16.631837 17.074258,16.632046 17.074154,16.572946 17.074154,16.4367 17.185384,16.436536 17.406732,16.436398" style="fill: white" /><polygon type="contour" points="17.902861,16.436597 17.990756,16.436597 17.99068,16.572946 17.990648,16.632046 17.943178,16.631837 17.848048,16.631837 17.848048,16.566645 17.848162,16.436399" style="fill: white" /><polygon type="contour" points="17.929732,15.204933 18.086046,15.204933 18.086184,15.299214 18.08626,15.466026 18.086266,15.502698 18.086254,15.593555 18.16112,15.593555 18.167965,15.593584 18.168259,15.593591 18.181508,15.59361 18.181508,15.633481 18.180818,15.926121 18.171434,15.926087 18.161466,15.926131 18.154107,15.926078 18.151008,15.926135 18.128629,15.926227 18.114999,15.926257 17.990634,15.926339 17.946665,15.926339 17.848198,15.926195 17.84818,15.442092 17.84818,15.202759" style="fill: white" /><polygon type="contour" points="17.406616,15.212003 17.406616,15.455887 17.40652,15.926037 17.262784,15.926116 17.074154,15.926385 17.074258,15.693667 17.074258,15.214803 17.328333,15.209264" style="fill: white" /><polygon type="contour" points="16.63237,15.214348 16.632316,15.442602 16.631999,15.926385 16.511686,15.926458 16.436593,15.926458 16.436308,15.438678 16.436308,15.212544 16.482379,15.211006" style="fill: white" /><polygon type="contour" points="15.688592,15.223226 15.925971,15.221602 15.925971,15.307458 15.926142,15.434555 15.926336,15.926339 15.423697,15.926316 15.201933,15.926316 15.200564,15.719446 15.213983,15.485668 15.217234,15.217236" style="fill: white" /><polygon type="contour" points="15.926455,16.436596 15.926455,16.511688 15.926383,16.632001 15.442598,16.632317 15.214345,16.632371 15.215743,16.57966 15.212541,16.436311 15.438675,16.436311" style="fill: white" /><polygon type="contour" points="16.631999,16.436699 16.632044,16.488846 16.632044,16.632046 16.572945,16.632001 16.436697,16.632001 16.436697,16.572946 16.436594,16.436597 16.511686,16.436597" style="fill: white" /><polygon type="contour" points="16.488845,17.07426 16.632044,17.07426 16.631835,17.185386 16.631835,17.406432 16.566642,17.406432 16.436396,17.406734 16.436533,17.185386 16.436697,17.074156" style="fill: white" /><polygon type="contour" points="15.926383,17.074156 15.926113,17.262785 15.926036,17.406522 15.455886,17.406618 15.212001,17.406618 15.209263,17.328335 15.214345,17.073682 15.442599,17.073616" style="fill: white" /><polygon type="contour" points="15.459719,17.84813 15.926195,17.848202 15.926195,17.887884 15.926336,17.990637 15.926254,18.115002 15.926225,18.128631 15.926132,18.151009 15.926076,18.154109 15.926129,18.161468 15.926086,18.162016 15.926086,18.171435 15.926116,18.171892 15.926119,18.18082 15.633481,18.18151 15.59361,18.18151 15.593585,18.167967 15.593555,18.161122 15.593555,18.086254 15.52267,18.0863 15.513478,18.086072 15.320904,18.085934 15.211525,18.085934 15.215356,17.876758 15.21975,17.847908 15.407471,17.847908" style="fill: white" /><polygon type="contour" points="3.910693,17.912907 3.92677,18.086049 3.832487,18.086186 3.665675,18.08626 3.629003,18.086266 3.538146,18.086254 3.538146,18.161122 3.538116,18.167967 3.538111,18.168261 3.538091,18.18151 3.498219,18.18151 3.205582,18.180822 3.205616,18.171435 3.205573,18.161468 3.205626,18.154109 3.205569,18.151009 3.205476,18.128631 3.205446,18.115002 3.205363,17.990637 3.205363,17.946669 3.205505,17.848202 3.67198,17.84813 3.723688,17.847908 3.911409,17.847908" style="fill: white" /><polygon type="contour" points="1.283519,15.442093 1.2835,15.926195 1.243817,15.926195 1.141062,15.926339 1.0167,15.926257 1.003068,15.926227 0.980691,15.926134 0.977592,15.926078 0.970234,15.926131 0.969686,15.926087 0.960266,15.926087 0.959809,15.926118 0.950882,15.926121 0.950193,15.633481 0.950193,15.593609 0.963734,15.593584 0.970578,15.593555 1.045446,15.593555 1.045435,15.502698 1.045441,15.466026 1.045515,15.299213 1.045651,15.204933 1.114951,15.202759 1.283519,15.202759" style="fill: white" /><polygon type="contour" points="2.058019,15.214348 2.058086,15.442603 2.057544,15.926385 1.868911,15.926116 1.725178,15.926037 1.725083,15.455888 1.725083,15.212003 1.803365,15.209264" style="fill: white" /><polygon type="contour" points="2.695392,15.438678 2.695104,15.926458 2.620013,15.926458 2.4997,15.926385 2.499384,15.442602 2.499329,15.214347 2.55204,15.215745 2.695392,15.212543" style="fill: white" /><polygon type="contour" points="3.917715,15.485667 3.929767,15.926316 3.708001,15.926316 3.205363,15.926339 3.205556,15.434555 3.205728,15.307458 3.205728,15.221602 3.284265,15.221324 3.443106,15.223226 3.648469,15.218711 3.914466,15.217236" style="fill: white" /><polygon type="contour" points="3.920697,16.482382 3.917355,16.632371 3.6891,16.632317 3.205316,16.632 3.205316,16.572947 3.205243,16.436596 3.693023,16.436311 3.919158,16.436311" style="fill: white" /><polygon type="contour" points="3.438034,17.07426 3.916899,17.07426 3.921903,17.328336 3.919207,17.406618 3.675321,17.406618 3.205664,17.406522 3.205586,17.262786 3.205316,17.074156" style="fill: white" /><polygon type="contour" points="2.695303,17.848162 2.695104,17.902861 2.695104,17.990758 2.558752,17.990683 2.499655,17.990652 2.499864,17.943182 2.499864,17.84805 2.565056,17.84805" style="fill: white" /><polygon type="contour" points="2.057441,17.885949 2.057441,17.990652 1.946315,17.99085 1.725178,17.991036 1.725178,17.848238 1.880469,17.848238 2.057305,17.84805" style="fill: white" /><polygon type="contour" points="2.057305,17.185385 2.057305,17.406432 1.946315,17.406432 1.725178,17.406522 1.724968,17.213657 1.725272,17.185386 1.725272,17.074396 1.946315,17.074396 2.057441,17.07426" style="fill: white" /><polygon type="contour" points="2.695162,17.185385 2.695303,17.406734 2.613409,17.406734 2.499864,17.406432 2.499864,17.185386 2.499655,17.07426 2.558752,17.074156 2.695,17.074156" style="fill: white" /><polygon type="contour" points="2.695104,16.511687 2.695,16.632001 2.642853,16.632046 2.499655,16.632046 2.4997,16.572947 2.4997,16.4367 2.558753,16.4367 2.695104,16.436597" style="fill: white" /><polygon type="contour" points="1.946314,16.436537 2.057544,16.4367 2.057441,16.488846 2.057441,16.632046 1.946314,16.631837 1.725272,16.631837 1.725272,16.566645 1.724968,16.436399" style="fill: white" /><polygon type="contour" points="1.283539,16.518292 1.283651,16.631837 1.245752,16.632046 1.141048,16.632046 1.140979,16.503831 1.140943,16.436597 1.200619,16.436399 1.283539,16.436399" style="fill: white" /><polygon type="contour" points="1.188517,17.074396 1.283651,17.074396 1.283651,17.185385 1.283464,17.406522 1.140664,17.406522 1.140851,17.185385 1.141048,17.07426" style="fill: white" /><polygon type="contour" points="0.960266,17.847654 0.969687,17.847654 0.970004,17.847642 0.9772,17.847648 0.980265,17.847652 1.00148,17.847754 1.0142,17.847789 1.140663,17.848236 1.283465,17.848236 1.283465,17.991039 1.283911,18.117501 1.283947,18.130224 1.28405,18.151437 1.284054,18.154502 1.284061,18.161698 1.284047,18.171436 1.284086,18.171892 1.284096,18.180808 0.993229,18.181482 0.992975,18.181526 0.950221,18.181482 0.950221,18.171633 0.950901,17.867378 0.950882,17.847618" style="fill: white" />
</svg>
