<svg width="19.131698" height="19.131699">
<polygon type="contour" points="10.527745,8.826448 10.526746,8.85129 10.52617,8.903546 10.417838,8.903546 10.269407,8.903405 10.228296,8.903405 10.228296,8.862294 10.228192,8.674364 10.228144,8.62619 10.228144,8.617144 10.228141,8.611087 10.228167,8.610511 10.228316,8.605755 10.236509,8.605793 10.534553,8.597149" style="fill: white" /><polygon type="contour" points="9.711101,9.711102 9.4206,9.711102 9.4206,9.420602 9.711101,9.420602" style="fill: white" /><polygon type="contour" points="9.711101,10.526571 9.566447,10.525865 9.566198,10.52587 9.566004,10.525865 9.4206,10.52657 9.4206,10.227818 9.711101,10.227818" style="fill: white" /><polygon type="contour" points="9.996598,10.228084 9.996598,10.227891 10.010982,10.227891 10.088717,10.227709 10.088717,10.359542 10.010981,10.359381 9.978082,10.359297 9.87853,10.359432 9.851762,10.359481 9.851762,10.270863 9.851447,10.227671 9.882093,10.227671" style="fill: white" /><polygon type="contour" points="9.711101,10.088718 9.4206,10.088718 9.4206,9.851763 9.711101,9.851763" style="fill: white" /><polygon type="contour" points="8.862291,10.228299 8.903404,10.228299 8.903404,10.269409 8.903507,10.45734 8.903556,10.505513 8.903556,10.51456 8.903559,10.520617 8.903532,10.521193 8.903384,10.52595 8.89519,10.525912 8.597147,10.534555 8.603955,10.305252 8.604955,10.280413 8.605531,10.228157 8.713863,10.228157" style="fill: white" /><polygon type="contour" points="9.279939,10.270863 9.279939,10.359481 9.202872,10.359369 9.160858,10.359295 9.070288,10.359468 9.042983,10.359542 9.042983,10.227709 9.073816,10.227709 9.188717,10.22805 9.188717,10.227891 9.203101,10.227891 9.280254,10.227671" style="fill: white" /><polygon type="contour" points="9.120717,9.851393 9.135044,9.851321 9.135044,9.851322 9.202873,9.851322 9.279939,9.851763 9.279939,9.882042 9.280379,9.943021 9.279825,9.94302 9.280528,10.010983 9.281143,10.088718 9.250309,10.088718 9.188716,10.089 9.120717,10.089 9.042983,10.088718 9.042983,10.027151 9.042703,10.010984 9.042703,9.928817 9.042983,9.851027" style="fill: white" /><polygon type="contour" points="8.904031,9.851913 8.904031,9.882096 8.903619,9.996599 8.903812,9.996599 8.903812,10.010983 8.903993,10.088718 8.772161,10.088718 8.772319,10.010983 8.772404,9.978222 8.772271,9.878533 8.772222,9.851763 8.860837,9.851763" style="fill: white" /><polygon type="contour" points="8.903884,9.711542 8.862988,9.711102 8.604893,9.711102 8.605577,9.566538 8.605571,9.566199 8.605576,9.565863 8.604893,9.420602 8.647499,9.420602 8.680932,9.420247 8.903884,9.420163" style="fill: white" /><polygon type="contour" points="9.073555,9.420602 9.279939,9.420602 9.279939,9.711102 9.073555,9.711102 9.042983,9.711569 9.042983,9.420135" style="fill: white" /><polygon type="contour" points="8.903993,9.07382 8.903653,9.18872 8.903812,9.18872 8.903812,9.202886 8.904031,9.279792 8.860837,9.279941 8.772222,9.279941 8.772332,9.202875 8.772405,9.16097 8.772234,9.070291 8.772161,9.042986 8.903993,9.042986" style="fill: white" /><polygon type="contour" points="8.89519,8.605793 8.903384,8.605755 8.903559,8.611088 8.903559,8.616288 8.903556,8.617144 8.903507,8.674365 8.903404,8.903405 8.862292,8.903405 8.713862,8.903546 8.605531,8.903546 8.604955,8.85129 8.603954,8.826447 8.597147,8.597148" style="fill: white" /><polygon type="contour" points="9.120718,8.772322 9.153295,8.772407 9.253169,8.772273 9.279939,8.772224 9.279939,8.86084 9.280254,8.904033 9.249606,8.904033 9.135102,8.903619 9.135102,8.903813 9.120717,8.903813 9.042983,8.903995 9.042983,8.772163" style="fill: white" /><polygon type="contour" points="9.281143,9.042986 9.280528,9.12072 9.279825,9.188682 9.28038,9.188682 9.28038,9.202875 9.279939,9.279941 9.249661,9.279941 9.167052,9.280538 9.120717,9.280311 9.042976,9.279791 9.042976,9.249608 9.042703,9.188719 9.042703,9.12072 9.042983,9.042986 9.073817,9.042986 9.135102,9.042704 9.203101,9.042704" style="fill: white" /><polygon type="contour" points="9.711101,9.073557 9.711101,9.279941 9.4206,9.279941 9.4206,9.042986 9.711568,9.042986" style="fill: white" /><polygon type="contour" points="9.711101,8.810909 9.71132,8.862919 9.71132,8.863137 9.711541,8.903886 9.4206,8.903886 9.4206,8.605134 9.565253,8.605836 9.565501,8.605831 9.565695,8.605836 9.711101,8.605134" style="fill: white" /><polygon type="contour" points="10.088717,8.903995 10.057883,8.903995 9.942983,8.903653 9.942983,8.903813 9.928816,8.903813 9.851912,8.904033 9.851889,8.860997 9.851889,8.772214 9.975195,8.7724 10.061411,8.772236 10.088717,8.772163" style="fill: white" /><polygon type="contour" points="10.088717,9.042986 10.088724,9.10473 10.088998,9.120719 10.088998,9.202886 10.088724,9.279792 10.010982,9.280311 9.996655,9.280382 9.928827,9.280382 9.851762,9.279941 9.851762,9.249662 9.851162,9.166902 9.851391,9.12072 9.851912,9.042977 9.882094,9.042977 9.942983,9.042704 10.010982,9.042704" style="fill: white" /><polygon type="contour" points="10.359381,9.120719 10.359296,9.153481 10.35943,9.253172 10.359479,9.279941 10.270862,9.279941 10.227669,9.279792 10.227669,9.249607 10.22808,9.135105 10.227888,9.135105 10.227888,9.12072 10.227707,9.042986 10.35954,9.042986" style="fill: white" /><polygon type="contour" points="10.268711,9.420602 10.526808,9.420602 10.526121,9.565165 10.526127,9.565504 10.526122,9.56584 10.526808,9.711102 10.227816,9.711102 10.227816,9.420163" style="fill: white" /><polygon type="contour" points="10.088717,9.711102 9.851762,9.711102 9.851762,9.420602 10.058145,9.420602 10.088717,9.420135" style="fill: white" /><polygon type="contour" points="10.088724,9.851449 10.088724,9.882095 10.088998,9.942984 10.088998,10.010983 10.088717,10.088718 10.057882,10.088718 9.996597,10.089 9.928598,10.089 9.850558,10.088718 9.851173,10.010983 9.85187,9.943022 9.85132,9.943022 9.85132,9.928828 9.851762,9.851763 9.882038,9.851763 9.94302,9.851322 9.943019,9.851872 10.010981,9.851175" style="fill: white" /><polygon type="contour" points="10.270861,9.851763 10.359479,9.851763 10.359368,9.928828 10.359295,9.970733 10.359467,10.061412 10.35954,10.088718 10.227707,10.088718 10.227707,10.057883 10.228046,9.942984 10.227888,9.942984 10.227888,9.928599 10.227669,9.851449" style="fill: white" /><polygon type="contour" points="10.526746,10.280413 10.527746,10.305253 10.534553,10.534555 10.236509,10.525912 10.228316,10.52595 10.228141,10.520616 10.228141,10.515416 10.228144,10.51456 10.228193,10.457339 10.228296,10.228299 10.269408,10.228299 10.417837,10.228157 10.52617,10.228157" style="fill: white" />
</svg>
