<svg width="19.131698" height="19.131699">
<polygon type="contour" points="17.919304,15.251802 17.919314,15.302065 17.919298,15.426599 17.986627,15.426599 17.996012,15.42664 17.996413,15.426646 18.014572,15.426674 18.014572,15.481323 18.013918,15.759219 17.999108,15.759166 17.983374,15.759234 17.971761,15.759151 17.966871,15.759242 17.931556,15.759387 17.910046,15.759434 17.823786,15.759492 17.749535,15.759492 17.68124,15.759391 17.681215,15.196017 17.681222,15.113347 17.83744,15.113347 17.91924,15.110923" style="fill: white" /><polygon type="contour" points="15.759675,16.568864 15.759592,16.621266 15.75939,16.720143 15.759194,16.817012 15.759112,16.874761 15.759105,16.887908 15.640809,16.887932 15.129693,16.887932 15.130884,16.828587 15.131417,16.817011 15.130542,16.720142 15.131332,16.621267 15.129734,16.555778 15.738604,16.555778 15.759675,16.555771" style="fill: white" /><polygon type="contour" points="15.759391,17.681242 15.759391,17.752519 15.759489,17.82379 15.759433,17.910047 15.759386,17.931559 15.759239,17.966873 15.75915,17.971765 15.759233,17.983376 15.759165,17.984241 15.759165,17.999109 15.759212,17.999829 15.759218,18.01392 15.481323,18.014574 15.426674,18.014574 15.42664,17.996014 15.426599,17.986629 15.426599,17.919298 15.329439,17.91936 15.316841,17.919048 15.120231,17.918908 15.11654,17.717135 15.117344,17.681178 15.208252,17.681158" style="fill: white" /><polygon type="contour" points="16.567855,17.681182 16.621264,17.681234 16.720141,17.68124 16.81701,17.681248 16.873701,17.681308 16.887906,17.681308 16.887906,17.824104 16.81701,17.824044 16.72014,17.823692 16.621265,17.823894 16.566661,17.823964 16.555769,17.823978 16.555769,17.681178" style="fill: white" /><polygon type="contour" points="18.013918,17.680718 18.013886,17.711902 18.014534,18.001037 18.014534,18.014536 17.955931,18.014595 17.955583,18.014536 17.680696,18.0139 17.680772,17.99911 17.680772,17.984242 17.680752,17.98374 17.680762,17.972386 17.680768,17.967547 17.680929,17.93407 17.680987,17.913992 17.681304,17.824107 17.681304,17.755755 17.681306,17.681306 17.824106,17.681306 17.913989,17.680988 17.934068,17.680931 17.967545,17.68077 17.972384,17.680764 17.983738,17.680754 17.999108,17.680774 17.999828,17.680714" style="fill: white" /><polygon type="contour" points="17.823892,16.621266 17.823688,16.720142 17.82404,16.817012 17.8241,16.887908 17.681306,16.887908 17.681306,16.873703 17.681246,16.817011 17.681238,16.720142 17.681232,16.621266 17.681182,16.567857 17.681178,16.555771 17.823976,16.555771" style="fill: white" /><polygon type="contour" points="16.888094,16.715265 16.887876,16.817011 16.887906,16.887908 16.873701,16.887908 16.817009,16.887877 16.715263,16.888096 16.555596,16.888096 16.555596,16.715265 16.555769,16.555771 16.621265,16.55566 16.715262,16.555597 16.888094,16.555597" style="fill: white" /><polygon type="contour" points="16.88793,15.640812 16.887906,15.759108 16.874759,15.759115 16.81701,15.759197 16.72014,15.759393 16.621265,15.759595 16.568862,15.759678 16.555769,15.759678 16.556092,15.144762 16.556092,15.130564 16.597867,15.13167 16.614247,15.131374 16.621265,15.131334 16.720141,15.130544 16.817009,15.13142 16.88793,15.129696" style="fill: white" /><polygon type="contour" points="15.759271,15.205226 15.759489,15.759492 15.196434,15.759466 15.115613,15.759393 15.120534,15.350119 15.110953,15.202484 15.117502,15.117504 15.598123,15.120166 15.759271,15.114069" style="fill: white" /><polygon type="contour" points="15.759218,1.117784 15.759165,1.132595 15.759233,1.148326 15.75915,1.159939 15.759238,1.164829 15.759386,1.200144 15.759433,1.221655 15.759489,1.307912 15.759489,1.382163 15.759391,1.450461 15.509156,1.450397 15.11723,1.450736 15.12099,1.250199 15.120231,1.212797 15.316841,1.212655 15.32944,1.212342 15.426599,1.212404 15.426599,1.145072 15.426639,1.13569 15.426647,1.135286 15.426674,1.11713 15.481323,1.11713" style="fill: white" /><polygon type="contour" points="15.759105,2.243793 15.759112,2.256939 15.759194,2.314688 15.75939,2.41156 15.759591,2.510435 15.759675,2.562839 15.759675,2.575932 15.150503,2.575932 15.129734,2.575925 15.129329,2.564522 15.131332,2.510436 15.130542,2.411561 15.131417,2.314688 15.129693,2.243769 15.64081,2.243769" style="fill: white" /><polygon type="contour" points="17.910045,3.372271 17.931556,3.372317 17.966871,3.372463 17.971761,3.372553 17.983374,3.372469 17.98424,3.372538 17.999107,3.372538 17.999827,3.37249 18.013918,3.372485 18.014572,3.650379 18.014572,3.705029 17.996012,3.705062 17.986627,3.705104 17.919293,3.705104 17.919452,3.802243 17.91941,3.814987 17.918996,4.01145 17.839875,4.003885 17.681238,4.018149 17.68124,3.783207 17.68124,3.372311 17.752518,3.372311 17.823785,3.372213" style="fill: white" /><polygon type="contour" points="17.82404,2.314688 17.823688,2.411561 17.823891,2.510435 17.823961,2.565038 17.823976,2.575932 17.681178,2.575932 17.681182,2.563845 17.681232,2.510436 17.681238,2.41156 17.681246,2.314688 17.681306,2.243793 17.8241,2.243793" style="fill: white" /><polygon type="contour" points="18.014534,1.117169 18.014534,1.130666 18.013886,1.419802 18.013918,1.450986 17.999108,1.450929 17.984239,1.450929 17.983738,1.450951 17.972383,1.450941 17.967545,1.450934 17.934067,1.45077 17.913989,1.450714 17.824106,1.450397 17.681304,1.450397 17.681304,1.307595 17.680988,1.217711 17.680929,1.197634 17.680768,1.164157 17.680761,1.159318 17.680752,1.147964 17.680772,1.132594 17.680712,1.131873 17.680696,1.117805 17.955583,1.117167 17.955931,1.117107" style="fill: white" /><polygon type="contour" points="16.887906,1.450397 16.873701,1.450397 16.81701,1.450457 16.720141,1.45081 16.621264,1.450607 16.567855,1.450521 16.555769,1.450525 16.555769,1.307726 16.621264,1.307808 16.720141,1.308009 16.817009,1.307656 16.887906,1.307597" style="fill: white" /><polygon type="contour" points="16.817009,2.243823 16.887906,2.243793 16.888094,2.416436 16.888094,2.576106 16.715262,2.576106 16.621265,2.576043 16.568863,2.575932 16.555769,2.575932 16.555658,2.510435 16.555596,2.416436 16.555596,2.243605 16.715263,2.243605" style="fill: white" /><polygon type="contour" points="16.621264,3.372108 16.720141,3.37231 16.81701,3.372506 16.874759,3.372589 16.887906,3.372596 16.88793,3.490767 16.88793,4.001885 16.828585,4.000817 16.817009,4.000284 16.720141,4.00116 16.621265,4.00037 16.614246,4.000331 16.597868,4.000033 16.563901,4.001406 16.556092,4.001138 16.555769,3.392826 16.555769,3.372026" style="fill: white" /><polygon type="contour" points="15.759271,3.926477 15.759271,4.017634 15.202481,4.020748 15.117502,4.0142 15.120534,3.781584 15.115613,3.37231 15.196434,3.372238 15.759489,3.372213" style="fill: white" /><polygon type="contour" points="3.935264,3.372238 4.016085,3.37231 4.011167,3.781583 4.020746,3.929221 4.014198,4.0142 3.533576,4.011536 3.372429,4.017634 3.372429,3.926477 3.372211,3.372213" style="fill: white" /><polygon type="contour" points="4.000816,2.303113 4.000283,2.314689 4.001159,2.411561 4.000369,2.510435 4.001967,2.575925 3.393094,2.575925 3.372024,2.575932 3.372024,2.562839 3.372107,2.510435 3.372308,2.411561 3.372505,2.314688 3.372588,2.256939 3.372595,2.243793 3.490766,2.243769 4.001884,2.243769" style="fill: white" /><polygon type="contour" points="3.705061,1.135691 3.705102,1.145072 3.705102,1.212404 3.829636,1.212388 3.8799,1.212397 4.02078,1.21246 4.008155,1.382849 4.014356,1.450522 3.923447,1.450542 3.37231,1.450461 3.37231,1.379183 3.372211,1.307912 3.372269,1.221655 3.372315,1.200143 3.372462,1.164829 3.372551,1.159939 3.372468,1.148326 3.372536,1.147462 3.372536,1.132595 3.372488,1.131874 3.372483,1.117784 3.650377,1.11713 3.705027,1.11713" style="fill: white" /><polygon type="contour" points="1.176115,1.117167 1.451005,1.117805 1.450927,1.132594 1.450927,1.147462 1.450949,1.147963 1.450939,1.159318 1.450932,1.164157 1.450769,1.197635 1.450713,1.21771 1.450396,1.307596 1.450396,1.450397 1.307595,1.450397 1.217709,1.450715 1.197633,1.450771 1.164155,1.450933 1.159316,1.450941 1.147962,1.450951 1.132592,1.450929 1.131871,1.45099 1.117783,1.450986 1.117813,1.419802 1.117167,1.130666 1.117167,1.117169 1.175767,1.117106" style="fill: white" /><polygon type="contour" points="2.314685,1.307656 2.411558,1.308009 2.510434,1.307808 2.565036,1.30774 2.57593,1.307726 2.57593,1.450525 2.563843,1.450521 2.510433,1.450608 2.411559,1.45081 2.314685,1.450456 2.257994,1.450397 2.243791,1.450397 2.243791,1.307597" style="fill: white" /><polygon type="contour" points="2.576105,2.416437 2.57593,2.575932 2.510433,2.576043 2.416435,2.576106 2.243603,2.576106 2.243603,2.416437 2.243821,2.314688 2.243791,2.243793 2.257994,2.243793 2.314686,2.243823 2.416435,2.243605 2.576105,2.243605" style="fill: white" /><polygon type="contour" points="1.450395,2.257996 1.450454,2.314688 1.450809,2.411561 1.450607,2.510435 1.450519,2.563846 1.450524,2.575932 1.307724,2.575932 1.307807,2.510435 1.308008,2.411561 1.307655,2.314689 1.307595,2.243793 1.450395,2.243793" style="fill: white" /><polygon type="contour" points="1.450459,3.372311 1.450459,3.783207 1.450462,4.018149 1.291822,4.003885 1.250198,4.010711 1.212701,4.01145 1.21229,3.814988 1.212247,3.802244 1.212402,3.705104 1.14507,3.705104 1.135688,3.705063 1.135284,3.705056 1.117128,3.705029 1.117128,3.650379 1.117783,3.372485 1.132592,3.372538 1.148325,3.37247 1.159937,3.372553 1.164827,3.372463 1.200143,3.372317 1.221654,3.372271 1.307912,3.372213 1.382161,3.372213" style="fill: white" /><polygon type="contour" points="2.575608,3.986939 2.575608,4.001138 2.533831,4.000033 2.517453,4.000331 2.510433,4.00037 2.411558,4.00116 2.314686,4.000284 2.243767,4.001885 2.243767,3.490767 2.243791,3.372596 2.256937,3.372589 2.314686,3.372505 2.411558,3.37231 2.510433,3.372109 2.562837,3.372026 2.57593,3.372026" style="fill: white" /><polygon type="contour" points="1.450478,15.113346 1.450481,15.196017 1.450459,15.759391 1.37918,15.759391 1.307912,15.759492 1.221654,15.759434 1.200143,15.759387 1.164827,15.759242 1.159936,15.759151 1.148326,15.759235 1.147461,15.759167 1.132593,15.759167 1.131872,15.759215 1.117782,15.75922 1.117128,15.481324 1.117128,15.426673 1.135689,15.426639 1.14507,15.426599 1.212401,15.426599 1.212386,15.302065 1.212395,15.251802 1.212458,15.110923 1.381117,15.110923" style="fill: white" /><polygon type="contour" points="2.303112,15.130887 2.314685,15.13142 2.411558,15.130544 2.510434,15.131335 2.517453,15.131374 2.533832,15.13167 2.567798,15.130297 2.575608,15.130564 2.57593,15.738877 2.57593,15.759678 2.510433,15.759595 2.411559,15.759393 2.314686,15.759198 2.256937,15.759115 2.243791,15.759108 2.243767,15.640812 2.243767,15.129696" style="fill: white" /><polygon type="contour" points="4.014197,15.117504 4.011167,15.35012 4.016086,15.759392 3.935264,15.759466 3.372211,15.759492 3.372429,15.205226 3.372429,15.114069 3.929219,15.110956" style="fill: white" /><polygon type="contour" points="4.001967,16.555778 4.002372,16.56718 4.000369,16.621267 4.001159,16.720143 4.000283,16.817011 4.001884,16.887932 3.490766,16.887932 3.372595,16.887908 3.372588,16.874761 3.372505,16.817012 3.372308,16.720142 3.372106,16.621266 3.372024,16.568864 3.372024,16.555771 3.981197,16.555771" style="fill: white" /><polygon type="contour" points="4.014356,17.681178 4.008155,17.748852 4.020779,17.919244 3.879899,17.919306 3.829635,17.919314 3.705102,17.919298 3.705102,17.986629 3.70506,17.996014 3.705054,17.996415 3.705027,18.014574 3.650377,18.014574 3.372483,18.01392 3.372536,17.99911 3.372468,17.983376 3.37255,17.971765 3.372462,17.966873 3.372315,17.93156 3.372269,17.910047 3.372211,17.823789 3.372211,17.74954 3.37231,17.681242 3.923447,17.681158" style="fill: white" /><polygon type="contour" points="2.57593,17.823978 2.510433,17.823894 2.411559,17.823692 2.314686,17.824043 2.243791,17.824104 2.243791,17.681308 2.257994,17.681308 2.314685,17.681248 2.411558,17.68124 2.510434,17.681234 2.563843,17.681182 2.57593,17.681178" style="fill: white" /><polygon type="contour" points="2.510433,16.555659 2.562837,16.555771 2.57593,16.555771 2.576041,16.621267 2.576105,16.715264 2.576105,16.888096 2.416435,16.888096 2.314685,16.887878 2.243791,16.887908 2.243603,16.715265 2.243603,16.555597 2.416435,16.555597" style="fill: white" /><polygon type="contour" points="1.450519,16.567856 1.450606,16.621266 1.450809,16.720143 1.450455,16.817011 1.450395,16.887908 1.307595,16.887908 1.307655,16.817011 1.308008,16.720143 1.307806,16.621266 1.307738,16.566664 1.307724,16.555771 1.450524,16.555771" style="fill: white" /><polygon type="contour" points="1.132593,17.680774 1.147461,17.680774 1.147961,17.680754 1.159316,17.680763 1.164155,17.68077 1.197634,17.680932 1.217709,17.680987 1.307595,17.681306 1.450396,17.681306 1.450396,17.824108 1.450712,17.913991 1.450768,17.934069 1.450932,17.967547 1.450939,17.972385 1.450948,17.98374 1.450927,17.999109 1.450988,17.999829 1.451005,18.0139 1.176115,18.014536 1.175767,18.014596 1.117167,18.014536 1.117167,18.001037 1.117813,17.711902 1.117783,17.680718" style="fill: white" />
</svg>
