<svg width="19.131698" height="19.131699">
<polygon type="contour" points="12.176092,6.610066 12.184901,6.610801 12.219199,6.619099 12.2283,6.621301 12.266472,6.636791 12.276601,6.640901 12.319196,6.665243 12.3305,6.671702 12.375308,6.70766 12.387197,6.717201 12.42869,6.762012 12.4397,6.773903 12.471231,6.82037 12.4796,6.832702 12.499516,6.875851 12.504801,6.887301 12.515864,6.92492 12.5188,6.934903 12.523226,6.967539 12.524402,6.9762 12.524402,12.152858 12.523667,12.161961 12.519239,12.194599 12.516892,12.2037 12.50583,12.241318 12.501717,12.251448 12.481248,12.294044 12.474642,12.305348 12.446429,12.34905 12.436888,12.36094 12.393737,12.407965 12.381259,12.419415 12.336451,12.455371 12.323973,12.463447 12.28193,12.488339 12.271507,12.493184 12.231124,12.509228 12.221141,12.512163 12.1885,12.520462 12.17984,12.521636 12.145542,12.524403 6.988801,12.524403 6.955608,12.521637 6.946799,12.520903 6.9125,12.512604 6.903399,12.510403 6.865227,12.494912 6.855099,12.490803 6.812502,12.46646 6.8012,12.460001 6.756388,12.424043 6.744498,12.414502 6.703009,12.369691 6.691999,12.3578 6.660468,12.311333 6.6521,12.299002 6.632184,12.255852 6.626899,12.244402 6.615834,12.206783 6.612899,12.1968 6.608473,12.164163 6.607299,12.155501 6.607299,6.978844 6.608032,6.969742 6.612459,6.937105 6.614807,6.928002 6.625871,6.890385 6.629981,6.880108 6.648237,6.840832 6.654845,6.829674 6.685271,6.782652 6.694812,6.770761 6.737962,6.723739 6.750438,6.712289 6.795249,6.676331 6.807727,6.668257 6.851429,6.64281 6.861852,6.637964 6.898916,6.623028 6.908898,6.620092 6.944304,6.61124 6.952964,6.610067 6.986158,6.607301 12.142899,6.607301" style="fill: white" />
</svg>
