<svg width="19.131698" height="19.131699">
<polygon type="contour" points="7.981973,13.198184 7.981559,13.228067 7.980595,13.296203 7.911505,13.295407 7.880882,13.295142 7.831094,13.296402 7.6879,13.297051 7.6879,13.248649 7.688166,13.125402 7.688166,13.001398 7.85625,13.001398 7.978855,13.001371" style="fill: white" /><polygon type="contour" points="7.982042,12.0304 7.981929,12.10607 7.759515,12.10607 7.687958,12.106198 7.687849,11.945423 7.687849,11.824429 7.981548,11.824429" style="fill: white" /><polygon type="contour" points="7.981405,12.510324 7.98147,12.589055 7.797551,12.589055 7.688134,12.58905 7.687958,12.433465 7.687958,12.376287 7.903986,12.376287 7.981929,12.376224" style="fill: white" /><polygon type="contour" points="7.307093,12.376287 7.307093,12.433465 7.306891,12.58905 7.101302,12.589598 7.025564,12.589613 7.025564,12.430215 7.025631,12.376224 7.237505,12.376224" style="fill: white" /><polygon type="contour" points="7.307093,12.030399 7.307093,12.106198 7.101302,12.106198 7.025632,12.10607 7.025632,11.894197 7.025504,11.82461 7.186279,11.824429 7.307274,11.824429" style="fill: white" /><polygon type="contour" points="6.755414,12.0304 6.755478,12.10607 6.594728,12.10607 6.542087,12.106138 6.542102,12.0304 6.542652,11.824811 6.698237,11.82461 6.755414,11.82461" style="fill: white" /><polygon type="contour" points="6.755478,12.536971 6.75541,12.589613 6.622955,12.589055 6.542646,12.589055 6.542087,12.430215 6.542087,12.376292 6.701486,12.376292 6.755478,12.376224" style="fill: white" /><polygon type="contour" points="7.101301,12.999405 7.307274,12.999838 7.307274,13.120138 7.101302,13.120262 7.025632,13.120403 7.025632,13.028697 7.025564,12.999346" style="fill: white" /><polygon type="contour" points="6.75541,13.090279 6.755478,13.120403 6.621377,13.120738 6.542646,13.120782 6.542646,13.058644 6.554822,13.066273 6.581366,13.029937 6.59226,13.01676 6.592333,12.999906 6.622954,13.000039 6.75541,12.999346" style="fill: white" /><polygon type="contour" points="6.082818,13.001345 6.130355,13.001345 6.130355,13.118511 6.130145,13.297169 5.879728,13.295696 5.834469,13.297234 5.835894,13.254181 5.836714,13.195803 5.834601,13.001655 5.905029,13.000409 5.913136,13.000181" style="fill: white" /><polygon type="contour" points="6.132355,12.376292 6.131663,12.508746 6.131663,12.589055 6.010919,12.589055 6.010964,12.510323 6.011298,12.376224 6.103004,12.376224" style="fill: white" /><polygon type="contour" points="6.132296,12.030399 6.132355,12.106138 6.04142,12.106138 6.011298,12.10607 6.011343,11.937494 6.011564,11.824429 6.131863,11.824429" style="fill: white" /><polygon type="contour" points="6.130221,11.153042 6.130355,11.327913 6.130329,11.443728 6.080803,11.443728 6.045392,11.443761 5.92007,11.443761 5.883055,11.443802 5.834652,11.443802 5.835299,11.300608 5.836735,11.249617 5.836501,11.219251 5.83574,11.151185 5.902838,11.150229 5.932435,11.14981" style="fill: white" /><polygon type="contour" points="6.755478,11.149773 6.755478,11.372187 6.755414,11.443745 6.698237,11.443745 6.542652,11.443566 6.542652,11.265202 6.542646,11.150232 6.701486,11.149735" style="fill: white" /><polygon type="contour" points="7.194207,11.15036 7.307274,11.150154 7.307274,11.443852 7.101301,11.443745 7.025504,11.443745 7.025504,11.227716 7.025632,11.149773" style="fill: white" /><polygon type="contour" points="7.868152,11.151349 7.921976,11.155687 7.976431,11.155269 7.980351,11.263547 7.98122,11.299707 7.978787,11.443802 7.6879,11.443802 7.6879,11.152916 7.831994,11.150481" style="fill: white" /><polygon type="contour" points="7.981929,7.025634 7.981341,7.19421 7.981548,7.307275 7.687849,7.307275 7.687958,7.101304 7.687958,7.025506 7.903987,7.025506" style="fill: white" /><polygon type="contour" points="7.981968,6.701488 7.981929,6.75548 7.759514,6.75548 7.687958,6.755417 7.687958,6.698238 7.688133,6.542654 7.8665,6.542654 7.98147,6.542648" style="fill: white" /><polygon type="contour" points="7.831093,5.8353 7.882083,5.836736 7.912448,5.836502 7.980516,5.835742 7.98147,5.90284 7.981891,5.932437 7.978659,6.130224 7.805174,6.130332 7.688166,6.130306 7.688166,6.080288 7.687941,6.045394 7.687941,5.920071 7.6879,5.883056 7.6879,5.834653" style="fill: white" /><polygon type="contour" points="6.130145,5.834536 6.130145,5.887292 6.130355,6.013191 6.130355,6.130357 5.96562,6.131521 5.913136,6.131521 5.905029,6.131293 5.834602,6.130047 5.836714,5.935899 5.834469,5.834469 5.879728,5.836006 5.983418,5.824678" style="fill: white" /><polygon type="contour" points="6.621378,6.010966 6.755478,6.011299 6.755478,6.103005 6.75541,6.132357 6.622954,6.131664 6.542646,6.131664 6.542646,6.010922" style="fill: white" /><polygon type="contour" points="7.194207,6.011346 7.307274,6.011566 7.307274,6.131866 7.101301,6.132299 7.025564,6.132357 7.025564,6.041421 7.025632,6.011299" style="fill: white" /><polygon type="contour" points="7.101301,6.542104 7.306891,6.542654 7.307093,6.698238 7.307093,6.755417 7.101302,6.755417 7.025632,6.75548 7.025632,6.59473 7.025564,6.542089" style="fill: white" /><polygon type="contour" points="7.307274,7.18628 7.307274,7.307275 7.101302,7.307094 7.025504,7.307094 7.025504,7.101304 7.025632,7.025634 7.237505,7.025634 7.307093,7.025506" style="fill: white" /><polygon type="contour" points="6.755478,7.025633 6.755478,7.237505 6.755413,7.307094 6.698237,7.307094 6.542652,7.306893 6.542102,7.101303 6.542087,7.025566 6.701486,7.025566" style="fill: white" /><polygon type="contour" points="6.75541,6.701488 6.755478,6.75548 6.594728,6.75548 6.542087,6.755412 6.542646,6.622957 6.542646,6.542648 6.701485,6.542089 6.75541,6.542089" style="fill: white" /><polygon type="contour" points="6.131663,6.622957 6.132355,6.755412 6.04142,6.755412 6.011297,6.75548 6.010964,6.62138 6.010919,6.542648 6.131663,6.542648" style="fill: white" /><polygon type="contour" points="6.132297,7.101303 6.131863,7.307275 6.011564,7.307275 6.011437,7.101304 6.011298,7.025634 6.103004,7.025634 6.132355,7.025566" style="fill: white" /><polygon type="contour" points="6.007542,7.687976 6.130329,7.687976 6.130329,7.857268 6.130355,7.978663 5.933516,7.981974 5.903632,7.981559 5.835498,7.980597 5.83656,7.880885 5.835299,7.831095 5.834652,7.687902 5.883055,7.687902" style="fill: white" /><polygon type="contour" points="6.755414,7.903987 6.755478,7.98193 6.701485,7.981969 6.542646,7.981472 6.542646,7.797553 6.542652,7.688136 6.698237,7.687959 6.755414,7.687959" style="fill: white" /><polygon type="contour" points="7.307274,7.98155 7.194207,7.981342 7.025632,7.98193 7.025632,7.759517 7.025504,7.687959 7.186279,7.687852 7.307274,7.687852" style="fill: white" /><polygon type="contour" points="7.98122,7.831996 7.980352,7.868154 7.976012,7.921978 7.976431,7.976433 7.73522,7.972625 7.688087,7.97893 7.688087,7.83013 7.6879,7.687902 7.978787,7.687902" style="fill: white" /><polygon type="contour" points="13.2964,7.831095 13.294966,7.882085 13.295961,7.980517 13.22886,7.981473 13.199263,7.981892 13.001476,7.978661 13.001344,7.80379 13.001372,7.687976 13.050897,7.687976 13.086306,7.687943 13.211629,7.687943 13.248644,7.687902 13.297048,7.687902" style="fill: white" /><polygon type="contour" points="13.295805,5.877522 13.294986,5.935899 13.297098,6.130047 13.226671,6.131293 13.218564,6.131521 13.048881,6.130358 13.001344,6.130358 13.001345,6.08282 13.001344,6.013192 13.001554,5.834536 13.251973,5.836007 13.297232,5.83447" style="fill: white" /><polygon type="contour" points="13.120736,6.62138 13.120401,6.75548 13.028695,6.75548 12.999344,6.755412 13.000036,6.622957 13.000036,6.542648 13.120781,6.542648" style="fill: white" /><polygon type="contour" points="13.120401,7.025634 13.120357,7.194209 13.120136,7.307275 12.999836,7.307275 12.999403,7.101303 12.999345,7.025566 13.090278,7.025566" style="fill: white" /><polygon type="contour" points="11.44385,7.186281 11.44385,7.307275 11.150152,7.307275 11.150358,7.194209 11.149771,7.025634 11.372184,7.025634 11.443743,7.025506" style="fill: white" /><polygon type="contour" points="11.443563,6.542654 11.443743,6.698239 11.443743,6.755417 11.227714,6.755417 11.149771,6.75548 11.149732,6.701488 11.15023,6.542648 11.334147,6.542648" style="fill: white" /><polygon type="contour" points="11.443799,5.883055 11.443534,6.006301 11.443534,6.130306 11.275449,6.130306 11.152845,6.130332 11.149728,5.933519 11.150142,5.903635 11.151104,5.835501 11.250817,5.836562 11.300605,5.8353 11.443799,5.834653" style="fill: white" /><polygon type="contour" points="12.106069,6.103005 12.106136,6.132357 12.030398,6.132299 11.824426,6.131866 11.824426,6.011566 11.937492,6.011346 12.106069,6.011299" style="fill: white" /><polygon type="contour" points="12.589054,6.055831 12.589054,6.131664 12.508745,6.131664 12.37629,6.132357 12.37629,6.041421 12.376222,6.011299 12.510322,6.010966 12.589055,6.010922" style="fill: white" /><polygon type="contour" points="12.508744,6.542648 12.589054,6.542648 12.58961,6.701488 12.58961,6.755412 12.430213,6.755412 12.376222,6.75548 12.376222,6.59473 12.37629,6.542089" style="fill: white" /><polygon type="contour" points="12.106136,6.701487 12.106069,6.75548 11.894194,6.75548 11.824607,6.755417 11.824607,6.698238 11.824809,6.542654 12.030398,6.542104 12.106136,6.542089" style="fill: white" /><polygon type="contour" points="12.106069,7.025634 12.106069,7.237505 12.106196,7.307094 11.94542,7.307275 11.824426,7.307275 11.824607,7.101304 11.824607,7.025506 12.030398,7.025506" style="fill: white" /><polygon type="contour" points="12.589594,7.101304 12.589049,7.306893 12.433462,7.307094 12.376286,7.307094 12.376286,7.101303 12.376222,7.025634 12.536968,7.025634 12.589611,7.025566" style="fill: white" /><polygon type="contour" points="12.589049,7.688136 12.589049,7.866501 12.589054,7.981472 12.430214,7.981969 12.376222,7.981929 12.376222,7.759516 12.376286,7.687959 12.433462,7.687959" style="fill: white" /><polygon type="contour" points="12.030398,7.687959 12.106196,7.687959 12.106196,7.903987 12.106069,7.98193 11.937492,7.981343 11.824426,7.98155 11.824426,7.687852" style="fill: white" /><polygon type="contour" points="11.443799,7.978788 11.299704,7.981222 11.155268,7.976433 11.159076,7.735223 11.152771,7.688089 11.30157,7.688089 11.443799,7.687902" style="fill: white" /><polygon type="contour" points="11.443613,11.301573 11.443799,11.443802 11.152913,11.443802 11.150479,11.299706 11.155268,11.155269 11.39648,11.159078 11.443613,11.152774" style="fill: white" /><polygon type="contour" points="13.228067,11.150144 13.296202,11.151107 13.295406,11.220197 13.29514,11.250819 13.2964,11.300608 13.297048,11.443802 13.248644,11.443802 13.124158,11.443728 13.001372,11.443728 13.001372,11.274434 13.001344,11.153041 13.198183,11.14973" style="fill: white" /><polygon type="contour" points="13.120357,11.937494 13.120401,12.10607 13.028695,12.10607 12.999345,12.106138 12.999403,12.030399 12.999836,11.824429 13.120136,11.824429" style="fill: white" /><polygon type="contour" points="12.589049,11.824811 12.589594,12.030399 12.589611,12.106138 12.430215,12.106138 12.376222,12.10607 12.376222,11.894198 12.376286,11.82461 12.433462,11.82461" style="fill: white" /><polygon type="contour" points="12.510323,11.150296 12.589054,11.150232 12.589054,11.334147 12.589049,11.443566 12.433462,11.443745 12.376286,11.443745 12.376286,11.227717 12.376222,11.149773" style="fill: white" /><polygon type="contour" points="12.106069,11.372187 12.106196,11.443745 11.94542,11.443852 11.824426,11.443852 11.824426,11.150154 11.937493,11.15036 12.106069,11.149773" style="fill: white" /><polygon type="contour" points="12.030397,11.82461 12.106196,11.82461 12.106196,12.0304 12.106069,12.10607 11.894194,12.10607 11.824607,12.106198 11.824426,11.945422 11.824426,11.824429" style="fill: white" /><polygon type="contour" points="11.443743,12.0304 11.443743,12.106198 11.227713,12.106198 11.149771,12.10607 11.150358,11.937494 11.150152,11.824429 11.443849,11.824429" style="fill: white" /><polygon type="contour" points="11.443743,12.376287 11.443743,12.433464 11.443564,12.58905 11.2652,12.58905 11.15023,12.589055 11.149732,12.430215 11.149771,12.376224 11.372185,12.376224" style="fill: white" /><polygon type="contour" points="11.443534,13.001398 11.443534,13.051415 11.443759,13.086309 11.443759,13.211631 11.443799,13.248648 11.443799,13.297051 11.300606,13.296403 11.249615,13.294968 11.151183,13.295963 11.150228,13.228863 11.149808,13.199266 11.15304,13.001478 11.326525,13.001371" style="fill: white" /><polygon type="contour" points="12.508745,13.000039 12.589055,13.000039 12.589054,13.044949 12.589054,13.120782 12.510322,13.120738 12.376222,13.120403 12.376222,13.028697 12.37629,12.999346" style="fill: white" /><polygon type="contour" points="12.106136,13.090279 12.106069,13.120403 11.937492,13.120359 11.824426,13.120138 11.824426,12.999838 12.030398,12.999405 12.106136,12.999346" style="fill: white" /><polygon type="contour" points="12.106069,12.536972 12.106136,12.589613 12.030397,12.589598 11.824809,12.58905 11.824607,12.433465 11.824607,12.376287 12.030397,12.376287 12.106069,12.376224" style="fill: white" /><polygon type="contour" points="12.58961,12.376292 12.589054,12.508745 12.589055,12.589055 12.430214,12.589613 12.37629,12.589613 12.37629,12.430215 12.376222,12.376224 12.536968,12.376224" style="fill: white" /><polygon type="contour" points="13.120736,12.510323 13.120781,12.589055 13.000037,12.589055 13.000036,12.508746 12.999344,12.376292 13.090278,12.376291 13.120401,12.376224" style="fill: white" /><polygon type="contour" points="13.226671,13.000409 13.297098,13.001655 13.294986,13.195804 13.297232,13.297234 13.251972,13.295696 13.148281,13.307026 13.001554,13.297169 13.001554,13.244411 13.001344,13.118512 13.001344,13.048883 13.001345,13.001345 13.166079,13.000181 13.218564,13.000181" style="fill: white" />
</svg>
