<svg width="19.131698" height="19.131699">
<polygon type="contour" points="14.822498,4.022832 14.823193,4.022878 14.863801,4.027073 14.898213,4.036184 14.916532,4.041812 14.94351,4.054711 14.965515,4.067459 15.007799,4.099084 15.013686,4.103978 15.02528,4.116582 15.05411,4.150997 15.067791,4.172436 15.088763,4.211879 15.104339,4.260591 15.105725,4.266502 15.106122,4.268085 15.106869,4.277571 15.108967,4.301768 15.109559,4.309901 15.109499,7.313301 15.109165,13.153246 15.109165,14.821802 15.109037,14.823955 15.104957,14.862187 15.099249,14.881112 15.089222,14.914977 15.067923,14.958352 15.058955,14.973973 15.052516,14.982357 15.022987,15.018384 15.010163,15.031098 14.987934,15.048837 14.936022,15.082318 14.933064,15.083999 14.930448,15.085551 14.919066,15.089162 14.863695,15.105577 14.836735,15.107883 14.823451,15.109474 14.821798,15.109556 14.628018,15.109566 4.309198,15.108878 4.307148,15.108851 4.294712,15.108462 4.28642,15.108057 4.278486,15.107153 4.268583,15.105602 4.248723,15.100264 4.233299,15.09601 4.203028,15.08316 4.17817,15.070534 4.130461,15.040601 4.129914,15.040138 4.129503,15.03972 4.09162,14.997068 4.072259,14.972631 4.057434,14.949632 4.034199,14.896283 4.030795,14.888048 4.030173,14.885692 4.028619,14.877363 4.02479,14.849329 4.023593,14.835934 4.02225,14.823802 4.022141,14.821801 4.022145,14.61467 4.0222,11.818401 4.022533,5.978456 4.022533,4.810468 4.022522,4.3099 4.022575,4.307589 4.024026,4.292778 4.025068,4.283409 4.026807,4.271556 4.03355,4.24202 4.045713,4.205213 4.050152,4.195958 4.057232,4.181707 4.06961,4.162816 4.085987,4.139739 4.097972,4.124465 4.111504,4.11105 4.138767,4.087168 4.151808,4.076455 4.182142,4.058363 4.201313,4.04963 4.235928,4.035556 4.253035,4.030454 4.279216,4.024381 4.28843,4.023591 4.309898,4.022146 4.517043,4.022146" style="fill: white" /><polygon type="hole" points="7.073073,7.073076 7.073073,7.974025 7.073225,7.992037 7.073225,8.071805 7.073357,8.084544 7.073376,8.097992 7.073376,8.177307 7.073527,8.195318 7.073527,8.861126 7.073637,8.87084 7.073678,8.886554 7.073678,9.455706 7.07383,9.473718 7.07383,9.553336 7.073915,9.557819 7.073987,9.566202 7.074036,9.572997 7.073915,9.574442 7.07383,9.578917 7.07383,9.658534 7.073678,9.676545 7.073678,10.245149 7.073637,10.260862 7.073527,10.270577 7.073527,10.349893 7.073376,10.367904 7.073376,11.033711 7.073357,11.047159 7.073225,11.059898 7.073225,11.139667 7.073073,11.157678 7.073073,12.058628 7.974022,12.058628 7.992036,12.058477 8.071804,12.058477 8.084542,12.058344 8.097991,12.058325 8.242591,12.058325 8.698507,12.058324 8.763798,12.058326 8.781809,12.058175 8.861125,12.058175 8.870838,12.058065 8.886554,12.058023 8.926361,12.058023 9.382825,12.058022 9.455704,12.058022 9.473715,12.057871 9.553334,12.057871 9.557817,12.057785 9.566199,12.057714 9.572995,12.057666 9.574441,12.057785 9.578913,12.057871 9.65853,12.057871 9.676544,12.058022 10.245146,12.058022 10.260859,12.058063 10.270576,12.058174 10.349889,12.058174 10.367903,12.058325 11.033709,12.058325 11.047157,12.058344 11.059895,12.058477 11.139665,12.058477 11.157676,12.058628 12.058627,12.058628 12.058627,11.09239 12.058475,11.074379 12.058475,10.99461 12.058324,10.968423 12.058324,9.911439 12.058173,9.893428 12.058173,9.814113 12.058021,9.788683 12.058021,9.708914 12.05787,9.690903 12.05787,9.578916 12.057784,9.574442 12.057711,9.566201 12.057664,9.55929 12.057784,9.557819 12.05787,9.553336 12.05787,9.473719 12.058021,9.455705 12.058021,9.375938 12.058173,9.350508 12.058173,9.271193 12.058324,9.253182 12.058324,9.173867 12.058475,9.14768 12.058475,8.057324 12.058627,8.039313 12.058627,7.073076 11.092388,7.073076 11.074377,7.073227 10.994608,7.073227 10.968421,7.073378 9.911437,7.073378 9.893426,7.073529 9.814111,7.073529 9.788681,7.073681 9.708912,7.073681 9.690901,7.073833 9.578913,7.073833 9.574441,7.073919 9.566198,7.07399 9.559287,7.074038 9.557818,7.073918 9.553333,7.073833 9.473715,7.073833 9.455704,7.073681 9.343016,7.073681 9.317587,7.073529 9.238273,7.073529 9.220259,7.073378 8.163278,7.073378 8.137091,7.073227 8.057322,7.073227 8.039311,7.073076" style="fill: black" />
</svg>
