<svg width="19.131698" height="19.131699">
<polygon type="contour" points="16.67871,16.34551 16.678588,16.468083 16.678964,16.636269 16.678964,16.678966 16.49359,16.679161 16.49249,16.678971 16.345427,16.67863 16.34573,16.620494 16.34573,16.562055 16.345646,16.560082 16.345686,16.515449 16.345714,16.496434 16.345752,16.488552 16.345752,16.345753 16.48855,16.345753 16.496431,16.345715 16.515447,16.345687 16.560079,16.345648 16.620492,16.345733 16.623326,16.345491" style="fill: white" /><polygon type="contour" points="16.488665,16.04129 16.488551,16.18166 16.345751,16.18166 16.345787,16.13773 16.345787,15.986273 16.377843,15.986273 16.48871,15.985975" style="fill: white" /><polygon type="contour" points="16.181572,15.986273 16.181659,16.025025 16.181659,16.18166 16.137729,16.181574 15.986272,16.181574 15.986272,16.13773 15.985972,15.985975 16.047694,15.985975" style="fill: white" /><polygon type="contour" points="16.181659,16.488553 16.137729,16.488587 15.985972,16.488713 15.985972,16.443581 15.986272,16.345789 16.025025,16.345752 16.181659,16.345752" style="fill: white" /><polygon type="contour" points="14.347948,16.346206 14.368407,16.346249 14.519961,16.346336 14.519961,16.346234 14.568019,16.346257 14.852243,16.345788 14.852243,16.377846 14.852246,16.488713 14.76476,16.488634 14.42357,16.489194 14.42407,16.558654 14.423803,16.562055 14.423803,16.620494 14.423989,16.623328 14.42401,16.678711 14.26406,16.679088 14.091187,16.679088 14.091011,16.583648 14.026872,16.583691 13.65003,16.583451 13.61824,16.583441 13.610306,16.583441 13.609015,16.583438 13.604107,16.583442 13.589272,16.583447 13.589995,16.571975 13.589881,16.571668 13.591272,16.557281 13.593426,16.545054 13.575512,16.34569" style="fill: white" /><polygon type="contour" points="14.852246,15.985975 14.852246,16.047697 14.852243,16.181574 14.568019,16.181783 14.519933,16.181842 14.519933,16.181831 13.852618,16.181902 13.575578,16.181863 13.571315,16.029914 13.568287,15.986207 13.862838,15.986124 14.328515,15.985912 14.424055,15.985885 14.568018,15.985885" style="fill: white" /><polygon type="contour" points="14.423923,13.582204 14.423923,13.592768 14.624186,13.592856 14.85164,13.587215 14.851735,13.831175 14.852432,14.424058 14.852432,14.568021 14.852245,14.852248 14.747161,14.852248 14.519929,14.852434 14.33142,14.852434 14.273312,14.852272 13.845123,14.852414 13.577375,14.852372 13.582373,14.561512 13.589356,14.470237 13.580511,14.383906 13.59105,14.044042 13.609313,14.043953 13.617455,14.04401 13.639911,14.044347 13.800229,14.043182 13.835082,14.042991 13.839329,14.042925 13.8407,14.043085 13.919085,14.041618 13.927126,14.041226 13.960321,14.039319 13.967994,14.038154 13.98381,14.037921 13.98784,14.037833 14.036795,14.036796 14.037832,13.987843 14.03792,13.983813 14.038153,13.967997 14.039318,13.960324 14.041221,13.927129 14.041616,13.919087 14.043082,13.840702 14.042922,13.839331 14.042988,13.835086 14.04318,13.800231 14.044346,13.639916 14.044008,13.617459 14.043951,13.609315 14.04404,13.591052 14.382344,13.577325" style="fill: white" /><polygon type="contour" points="16.152495,13.573367 16.181859,13.57558 16.181899,13.852622 16.18183,14.519936 16.18184,14.519936 16.181781,14.568022 16.181572,14.852246 16.137729,14.852246 15.985972,14.852247 15.985972,14.747163 15.985863,14.470071 15.986121,13.863309 15.98619,13.569203" style="fill: white" /><polygon type="contour" points="16.583309,13.563402 16.583282,13.589539 16.583286,13.602036 16.583566,13.792014 16.583578,13.941578 16.583744,14.021547 16.583537,14.091046 16.679086,14.091188 16.679086,14.264061 16.678709,14.424011 16.620491,14.423804 16.558653,14.424072 16.489189,14.423571 16.488632,14.764764 16.488709,14.852248 16.443579,14.852248 16.345787,14.852246 16.345726,14.791462 16.346412,14.424082 16.34628,14.424082 16.346256,14.367874 16.346269,14.327032 16.345853,13.844638 16.345673,13.578868 16.528057,13.569281 16.565739,13.559039" style="fill: white" /><polygon type="contour" points="16.488632,4.366939 16.489189,4.708131 16.558653,4.707632 16.562053,4.7079 16.620491,4.7079 16.623326,4.707711 16.678709,4.707693 16.679086,4.867642 16.679086,5.040515 16.583644,5.040692 16.583749,5.104641 16.583592,5.48687 16.583592,5.515715 16.583593,5.522865 16.58359,5.524027 16.583595,5.528442 16.58359,5.541777 16.573264,5.541128 16.548593,5.538064 16.345812,5.552713 16.346269,4.804671 16.346256,4.763829 16.34628,4.707622 16.346412,4.707622 16.345726,4.340241 16.345787,4.279458 16.377844,4.279458 16.48871,4.279455" style="fill: white" /><polygon type="contour" points="16.181572,4.279458 16.181781,4.563681 16.18184,4.611768 16.18184,4.785554 16.181659,5.555868 16.029911,5.559842 15.98619,5.562501 15.986121,5.268395 15.985883,4.707645 15.985883,4.563681 15.985972,4.279455 16.047694,4.279455" style="fill: white" /><polygon type="contour" points="16.678964,2.452737 16.678964,2.495435 16.678588,2.663621 16.67871,2.786193 16.620491,2.785971 16.562054,2.785971 16.560079,2.786056 16.515447,2.786016 16.496431,2.785988 16.48855,2.785951 16.345752,2.785951 16.345752,2.643151 16.345714,2.63527 16.345685,2.616253 16.345646,2.571622 16.345731,2.511209 16.345489,2.508375 16.345427,2.453074 16.492491,2.452732 16.49359,2.452543" style="fill: white" /><polygon type="contour" points="16.488585,2.993972 16.48871,3.145728 16.443579,3.145728 16.345787,3.145429 16.345751,3.106675 16.345751,2.950044 16.488551,2.950044" style="fill: white" /><polygon type="contour" points="16.181572,2.993972 16.181572,3.145429 16.137729,3.145429 15.985972,3.145728 15.985972,3.084004 15.986272,2.950129 16.025025,2.950044 16.181659,2.950044" style="fill: white" /><polygon type="contour" points="16.041287,2.643036 16.181659,2.643152 16.181659,2.785951 16.137729,2.785915 15.986272,2.785915 15.986272,2.753857 15.985972,2.642991" style="fill: white" /><polygon type="contour" points="14.42401,2.452992 14.423803,2.51121 14.42407,2.573048 14.423569,2.642712 14.568018,2.642646 14.852246,2.642991 14.852246,2.688121 14.852242,2.785915 14.79146,2.785976 14.424079,2.785287 14.424079,2.785419 14.368407,2.785452 14.347948,2.785496 13.575512,2.786014 13.593638,2.583106 13.591716,2.571709 13.590573,2.558435 13.589925,2.548105 13.60326,2.548106 13.607674,2.548112 13.608836,2.548109 13.615988,2.548109 13.644832,2.548108 14.026871,2.548011 14.091045,2.548052 14.091187,2.452616 14.26406,2.452616" style="fill: white" /><polygon type="contour" points="14.519934,2.949871 14.519934,2.949861 14.568018,2.94992 14.852243,2.950129 14.852243,2.993973 14.852246,3.145728 14.747162,3.145728 14.519929,3.145819 14.33142,3.145819 14.328515,3.145793 13.862838,3.14558 13.568286,3.145497 13.573093,2.977928 13.575577,2.94984 13.852618,2.949801" style="fill: white" /><polygon type="contour" points="14.424055,4.279271 14.568019,4.279271 14.852246,4.279455 14.852246,4.38454 14.852478,4.668291 14.851735,5.300526 14.85164,5.544488 14.624187,5.538848 14.555897,5.540309 14.423923,5.535191 14.423923,5.5495 14.382344,5.554379 14.04404,5.540651 14.043951,5.522387 14.044008,5.514244 14.044346,5.491788 14.04432,5.486609 14.044309,5.486008 14.04434,5.485836 14.043082,5.291 14.041616,5.212615 14.041221,5.204573 14.039318,5.17138 14.038153,5.163706 14.037919,5.147889 14.037831,5.143859 14.036795,5.094907 13.98784,5.09387 13.98381,5.09378 13.967994,5.093547 13.96032,5.092383 13.919084,5.090085 13.8407,5.088618 13.839329,5.088778 13.835082,5.088712 13.800229,5.08852 13.639912,5.087355 13.617457,5.087694 13.609314,5.087751 13.591051,5.087662 13.580511,4.747796 13.594391,4.612328 13.585596,4.612328 13.581748,4.379694 13.577373,4.279332 13.845123,4.27929 14.273312,4.279432 14.424055,4.27927" style="fill: white" /><polygon type="contour" points="4.858387,4.279433 5.286575,4.27929 5.554326,4.279332 5.549326,4.57019 5.542345,4.66146 5.551187,4.747795 5.540649,5.087662 5.522385,5.087751 5.514242,5.087694 5.491785,5.087355 5.486607,5.087381 5.486007,5.087392 5.485835,5.08736 5.290997,5.088618 5.212613,5.090085 5.204572,5.090478 5.171378,5.092382 5.163703,5.093547 5.147887,5.09378 5.143857,5.093871 5.094905,5.094907 5.093869,5.143859 5.093778,5.14789 5.093545,5.163705 5.092381,5.171379 5.090474,5.204574 5.090082,5.212614 5.088616,5.291 5.088777,5.29237 5.08871,5.296617 5.088518,5.331472 5.087352,5.491787 5.087692,5.514244 5.08775,5.522387 5.087661,5.540651 4.749354,5.554379 4.707776,5.5495 4.707776,5.538935 4.507513,5.538848 4.280061,5.544488 4.279965,5.300527 4.27927,4.707645 4.27927,4.563681 4.279453,4.279455 4.384538,4.279455 4.61177,4.279271 4.800279,4.279271" style="fill: white" /><polygon type="contour" points="5.556121,2.94984 5.560384,3.101788 5.563414,3.145497 5.268861,3.14558 4.803183,3.145793 4.707645,3.145819 4.563679,3.145819 4.279453,3.145728 4.279453,3.084005 4.279456,2.950129 4.56368,2.94992 4.611765,2.949861 4.611765,2.949871 5.27908,2.949801" style="fill: white" /><polygon type="contour" points="5.04069,2.548162 5.110154,2.547954 5.190123,2.54812 5.339686,2.548136 5.529662,2.548414 5.542194,2.548419 5.568299,2.548392 5.572662,2.565961 5.569913,2.588075 5.562419,2.603643 5.556187,2.786014 4.783751,2.785496 4.763292,2.785452 4.611739,2.785364 4.611739,2.785466 4.563679,2.785444 4.279456,2.785915 4.279456,2.753857 4.279453,2.642991 4.366937,2.643068 4.70813,2.64251 4.70763,2.573049 4.707898,2.569649 4.707898,2.51121 4.707709,2.508375 4.707691,2.452992 4.86764,2.452616 5.040513,2.452616" style="fill: white" /><polygon type="contour" points="2.639208,2.452732 2.786273,2.453074 2.78597,2.511209 2.78597,2.569648 2.786054,2.571622 2.786014,2.616254 2.785988,2.63527 2.78595,2.643151 2.78595,2.785951 2.64315,2.785951 2.635269,2.785989 2.616251,2.786016 2.57162,2.786056 2.511207,2.785971 2.508374,2.786212 2.45299,2.786193 2.45311,2.66362 2.452735,2.495435 2.452735,2.452737 2.638107,2.452542" style="fill: white" /><polygon type="contour" points="3.145727,2.688122 3.145428,2.785915 3.106674,2.785951 2.950042,2.785951 2.950042,2.643152 2.99397,2.643116 3.145727,2.642991" style="fill: white" /><polygon type="contour" points="2.993971,2.950129 3.145428,2.950129 3.145428,2.993973 3.145727,3.145728 3.084003,3.145728 2.950128,3.145428 2.950042,3.106675 2.950042,2.950044" style="fill: white" /><polygon type="contour" points="2.785914,2.993972 2.785914,3.145429 2.753856,3.145429 2.642989,3.145728 2.643034,3.090414 2.64315,2.950044 2.671423,2.950043 2.78595,2.950043" style="fill: white" /><polygon type="contour" points="2.785914,4.279458 2.785975,4.34024 2.785284,4.707621 2.785418,4.707621 2.785443,4.763828 2.78543,4.804671 2.78589,5.552713 2.583105,5.538064 2.558434,5.541128 2.548109,5.541777 2.548104,5.528441 2.54811,5.524028 2.548107,5.522846 2.548107,5.515713 2.548106,5.48687 2.547948,5.10464 2.54805,5.040657 2.452614,5.040515 2.452614,4.867642 2.45299,4.707693 2.511208,4.7079 2.573048,4.707632 2.642509,4.708131 2.643067,4.366939 2.642989,4.279455 2.688119,4.279455" style="fill: white" /><polygon type="contour" points="3.145727,4.384539 3.145837,4.661201 3.145579,5.268394 3.145508,5.562501 2.979202,5.558337 2.949838,5.556123 2.949799,5.279082 2.949869,4.611768 2.949859,4.611768 2.949918,4.563681 2.950128,4.279458 2.993971,4.279458 3.145727,4.279455" style="fill: white" /><polygon type="contour" points="2.60364,13.56928 2.785889,13.57899 2.78543,14.327032 2.785443,14.367874 2.785418,14.424081 2.785284,14.424081 2.785975,14.791462 2.785914,14.852246 2.753855,14.852246 2.642989,14.852248 2.643067,14.764764 2.642509,14.423571 2.573047,14.424071 2.569648,14.423804 2.511207,14.423804 2.508375,14.42399 2.45299,14.424011 2.452614,14.264061 2.452614,14.091188 2.54816,14.091012 2.547951,14.021547 2.548118,13.941577 2.548134,13.792015 2.548412,13.602037 2.548417,13.589506 2.54839,13.563402 2.565959,13.559039" style="fill: white" /><polygon type="contour" points="3.145579,13.86331 3.145818,14.424057 3.145818,14.568022 3.145727,14.852248 3.084002,14.852248 2.950128,14.852246 2.949918,14.568022 2.949859,14.519935 2.949859,14.346149 2.950042,13.575835 3.101787,13.571861 3.145508,13.569203" style="fill: white" /><polygon type="contour" points="5.087661,13.591052 5.08775,13.609315 5.087692,13.617459 5.087352,13.639916 5.088518,13.800231 5.08871,13.835086 5.088777,13.839331 5.088615,13.840702 5.090083,13.919088 5.090476,13.927129 5.09238,13.960323 5.093545,13.967997 5.093778,13.983813 5.093868,13.987843 5.094905,14.036796 5.143858,14.037833 5.147887,14.037921 5.163703,14.038154 5.171376,14.03932 5.212613,14.041618 5.290997,14.043085 5.292368,14.042925 5.296614,14.042991 5.331468,14.043183 5.491785,14.044349 5.514242,14.04401 5.522385,14.043953 5.540649,14.044042 5.551187,14.383907 5.537313,14.519375 5.546103,14.519375 5.549952,14.752009 5.554326,14.852372 5.286575,14.852415 4.858387,14.852272 4.707644,14.852434 4.56368,14.852434 4.279453,14.852248 4.279453,14.747164 4.279224,14.463068 4.279965,13.831174 4.280061,13.587215 4.507512,13.592856 4.575801,13.591395 4.707776,13.596512 4.707776,13.582204 4.749354,13.577324" style="fill: white" /><polygon type="contour" points="4.803183,15.985912 5.26886,15.986124 5.563413,15.986207 5.558604,16.153775 5.556121,16.181863 5.27908,16.181902 4.611766,16.181831 4.611766,16.181842 4.563679,16.181783 4.279456,16.181574 4.279456,16.137729 4.279453,15.985975 4.384537,15.985975 4.61177,15.985885 4.80028,15.985885" style="fill: white" /><polygon type="contour" points="4.70762,16.346412 4.707621,16.34628 4.763292,16.346249 4.783752,16.346206 5.27908,16.346021 5.556121,16.345858 5.56242,16.528062 5.569913,16.543629 5.572662,16.565743 5.568299,16.583313 5.542194,16.583286 5.529662,16.58329 5.339687,16.583568 5.190122,16.583582 5.110154,16.583747 5.040656,16.583542 5.040513,16.679088 4.867639,16.679089 4.707691,16.678712 4.707898,16.620493 4.707631,16.558653 4.70813,16.489194 4.366937,16.488634 4.359106,16.488604 4.279453,16.488713 4.279453,16.443582 4.279456,16.345789 4.340239,16.345727" style="fill: white" /><polygon type="contour" points="2.99397,16.345789 3.145428,16.345789 3.145428,16.377845 3.145727,16.488713 3.090412,16.488667 2.950042,16.488553 2.950042,16.345752" style="fill: white" /><polygon type="contour" points="3.145727,16.047697 3.145427,16.181574 3.106674,16.18166 2.950042,16.18166 2.950128,16.13773 2.950128,15.986273 2.993971,15.986273 3.145727,15.985975" style="fill: white" /><polygon type="contour" points="2.785914,15.986273 2.78595,16.025026 2.78595,16.18166 2.64315,16.18166 2.643113,16.137729 2.642989,15.985975 2.688119,15.985975" style="fill: white" /><polygon type="contour" points="2.511207,16.345733 2.569647,16.345733 2.571619,16.345648 2.616251,16.345688 2.635269,16.345715 2.64315,16.345753 2.78595,16.345753 2.78595,16.488552 2.785987,16.496433 2.786015,16.515449 2.786054,16.560082 2.78597,16.620493 2.78621,16.623328 2.786273,16.67863 2.639209,16.678971 2.638108,16.679161 2.452735,16.678966 2.452735,16.636269 2.453111,16.468084 2.45299,16.34551" style="fill: white" />
</svg>
