<svg width="19.131698" height="19.131699">
<polygon type="contour" points="7.134387,10.285777 7.137072,10.285804 7.277297,10.286198 7.290169,10.286094 7.290171,10.286098 7.417614,10.285985 7.417614,10.335733 7.417789,10.580554 7.374318,10.580494 7.118347,10.580494 7.117507,10.565025 7.118114,10.555672 7.117888,10.285687" style="fill: white" /><polygon type="contour" points="12.013167,11.900379 12.013348,11.929263 12.014537,11.970238 12.015749,12.01575 11.937529,12.01346 11.900379,12.013168 11.713544,12.013416 11.714101,11.775024 11.714101,11.739986 11.714086,11.714088 11.735488,11.714176 11.739984,11.714103 11.978378,11.713546 12.013414,11.713546" style="fill: white" /><polygon type="contour" points="11.552059,11.713974 11.552059,11.75822 11.551602,11.841832 11.463257,11.841718 11.396868,11.84158 11.353777,11.84158 11.353777,11.769799 11.353752,11.71393 11.463646,11.71393" style="fill: white" /><polygon type="contour" points="11.552059,11.42276 11.552059,11.552061 11.463646,11.551855 11.353752,11.551855 11.353752,11.463647 11.353777,11.353778 11.46539,11.353778 11.551853,11.353754" style="fill: white" /><polygon type="contour" points="11.841578,11.353778 11.841578,11.396869 11.841716,11.463259 11.84183,11.551604 11.797583,11.551604 11.713972,11.552061 11.713929,11.463647 11.713929,11.353754 11.770655,11.353754" style="fill: white" /><polygon type="contour" points="12.013586,10.555672 12.013353,10.580494 11.968824,10.580554 11.71391,10.580554 11.71391,10.536491 11.714085,10.285985 11.820062,10.286079 11.848331,10.286142 11.964518,10.285788 11.994623,10.285804 12.013809,10.285687" style="fill: white" /><polygon type="contour" points="11.841619,10.854938 11.841578,10.961689 11.769797,10.961689 11.713929,10.961944 11.713819,10.819646 11.71378,10.721042 11.841669,10.721042" style="fill: white" /><polygon type="contour" points="11.55179,10.819646 11.551853,10.961944 11.463645,10.961944 11.353777,10.961689 11.353777,10.826411 11.354102,10.721215 11.470577,10.721215 11.551968,10.720949" style="fill: white" /><polygon type="contour" points="11.552059,10.388399 11.551968,10.580554 11.470576,10.580598 11.354103,10.580598 11.354103,10.459783 11.353663,10.286131 11.463645,10.286068 11.552059,10.286049" style="fill: white" /><polygon type="contour" points="10.961687,8.170015 10.961687,8.305292 10.961726,8.410488 10.889446,8.410661 10.72104,8.410661 10.721213,8.312056 10.721213,8.169976 10.819643,8.169976" style="fill: white" /><polygon type="contour" points="10.580596,8.169976 10.580672,8.242254 10.580672,8.410661 10.285763,8.410661 10.285896,8.312057 10.286129,8.169898 10.417811,8.169898" style="fill: white" /><polygon type="contour" points="10.580489,8.594406 10.580489,8.845314 10.537293,8.845314 10.286124,8.845574 10.286124,8.796524 10.28579,8.551211 10.328709,8.551209 10.580492,8.551209" style="fill: white" /><polygon type="contour" points="10.819644,8.551105 10.961726,8.551105 10.961726,8.671919 10.961804,8.845572 10.881703,8.845672 10.72104,8.84545 10.72104,8.551029" style="fill: white" /><polygon type="contour" points="10.819643,9.053289 10.961804,9.053263 10.961804,9.164302 10.961687,9.301792 10.833131,9.302024 10.721061,9.301955 10.72104,9.226888 10.72104,9.053097" style="fill: white" /><polygon type="contour" points="10.580672,9.053308 10.580615,9.148423 10.580615,9.301955 10.467991,9.301955 10.286161,9.301944 10.286027,9.21897 10.286027,9.053278 10.384463,9.053278" style="fill: white" /><polygon type="contour" points="9.91273,9.053278 10.078421,9.053278 10.07855,9.157394 10.07855,9.301944 9.974306,9.301944 9.829679,9.302024 9.829679,9.168789 9.829758,9.053149" style="fill: white" /><polygon type="contour" points="10.078394,8.639836 10.078421,8.845672 9.974305,8.845539 9.829758,8.845539 9.829758,8.72226 9.829748,8.551085 9.904603,8.551029 10.078394,8.551029" style="fill: white" /><polygon type="contour" points="10.078655,8.249997 10.078603,8.410661 9.983278,8.410638 9.829748,8.410638 9.829914,8.312057 9.829911,8.170015 9.96992,8.170015 10.078437,8.169898" style="fill: white" /><polygon type="contour" points="7.194169,7.118242 7.23132,7.118536 7.418157,7.118288 7.4176,7.356681 7.4176,7.391717 7.417614,7.417617 7.396211,7.417529 7.391716,7.417601 7.153322,7.418159 7.118286,7.418159 7.118534,7.231323 7.118352,7.202441 7.117054,7.161464 7.11595,7.115953" style="fill: white" /><polygon type="contour" points="7.668443,7.289985 7.734832,7.290124 7.777924,7.290124 7.777924,7.361904 7.777946,7.417774 7.668054,7.417774 7.579641,7.417731 7.579641,7.373484 7.580098,7.289873" style="fill: white" /><polygon type="contour" points="7.668053,7.57985 7.777946,7.57985 7.777946,7.668055 7.777924,7.777926 7.666308,7.777926 7.579847,7.777949 7.579641,7.70894 7.579641,7.579643" style="fill: white" /><polygon type="contour" points="7.417772,7.668055 7.417772,7.777949 7.361046,7.777949 7.290122,7.777925 7.290122,7.734834 7.289983,7.668445 7.289871,7.5801 7.334116,7.5801 7.417729,7.579643" style="fill: white" /><polygon type="contour" points="7.777598,8.671919 7.778037,8.845572 7.668054,8.845635 7.579641,8.845654 7.579641,8.743302 7.579733,8.551149 7.661124,8.551105 7.777598,8.551105" style="fill: white" /><polygon type="contour" points="7.777924,8.170015 7.777924,8.305292 7.777598,8.410488 7.661123,8.410488 7.579733,8.410754 7.57991,8.312056 7.579847,8.169761 7.668054,8.169761" style="fill: white" /><polygon type="contour" points="7.417881,8.312057 7.417921,8.410661 7.29003,8.410661 7.290079,8.276765 7.290122,8.170015 7.361901,8.170015 7.417772,8.169761" style="fill: white" /><polygon type="contour" points="7.41779,8.59521 7.417614,8.845717 7.396642,8.845669 7.281329,8.845566 7.167179,8.845916 7.137073,8.8459 7.117888,8.846017 7.118114,8.57603 7.118347,8.551209 7.162876,8.551148 7.41779,8.551148" style="fill: white" /><polygon type="contour" points="7.417777,9.156304 7.417777,9.302055 7.364681,9.302055 7.290112,9.302024 7.29008,9.191495 7.290274,9.053278 7.332496,9.053278 7.41756,9.052471" style="fill: white" /><polygon type="contour" points="7.668053,9.052592 7.778037,9.053263 7.778037,9.164301 7.777923,9.301792 7.671804,9.302024 7.57969,9.302055 7.579641,9.215409 7.579641,9.052299" style="fill: white" /><polygon type="contour" points="8.298568,9.830055 8.410637,9.830017 8.41066,9.904813 8.41066,10.078606 8.312054,10.078415 8.169897,10.07844 8.169897,9.9674 8.170013,9.829912" style="fill: white" /><polygon type="contour" points="7.777924,9.829912 7.777924,9.969922 7.778037,10.07844 7.708757,10.078615 7.579641,10.079403 7.57969,9.97569 7.57969,9.829941 7.668054,9.829833" style="fill: white" /><polygon type="contour" points="7.41756,9.912253 7.41756,10.079231 7.375518,10.079231 7.290274,10.078424 7.29008,9.94021 7.290112,9.830055 7.358227,9.830055 7.417777,9.829941" style="fill: white" /><polygon type="contour" points="7.668054,10.286068 7.778037,10.286131 7.778037,10.417812 7.777597,10.580598 7.714882,10.580554 7.579733,10.580554 7.579733,10.487618 7.579641,10.286049 7.645187,10.285954" style="fill: white" /><polygon type="contour" points="7.417881,10.819645 7.417772,10.961944 7.361046,10.961944 7.290122,10.961689 7.290079,10.854938 7.29003,10.721042 7.417921,10.721042" style="fill: white" /><polygon type="contour" points="7.661123,10.721215 7.777598,10.721215 7.777598,10.819645 7.777924,10.961689 7.666308,10.961689 7.579847,10.961944 7.57991,10.819646 7.579733,10.720949" style="fill: white" /><polygon type="contour" points="9.30179,11.353777 9.301648,11.459895 9.301762,11.552012 9.215407,11.552061 9.053212,11.552061 9.053369,11.463647 9.053262,11.353666 9.1643,11.353666" style="fill: white" /><polygon type="contour" points="9.301762,11.76702 9.301648,11.84159 9.191494,11.841621 9.053277,11.841426 9.053277,11.799205 9.053406,11.714142 9.156828,11.713925 9.301762,11.713925" style="fill: white" /><polygon type="contour" points="9.912249,11.714142 10.079228,11.714142 10.079228,11.756183 10.078421,11.841426 9.940206,11.84162 9.829679,11.841589 9.829679,11.773475 9.829647,11.713925" style="fill: white" /><polygon type="contour" points="10.079107,11.463647 10.079401,11.55206 9.975395,11.552012 9.829647,11.552012 9.829831,11.463647 9.829911,11.353778 9.969921,11.353778 10.078437,11.353666" style="fill: white" /><polygon type="contour" points="10.580492,11.757383 10.580492,12.013353 10.565022,12.014194 10.555669,12.013588 10.527324,12.013508 10.393394,12.013039 10.308487,12.012998 10.308487,11.995802 10.310824,11.928271 10.285803,11.927408 10.286195,11.854404 10.286091,11.84153 10.286095,11.841528 10.285981,11.714087 10.335731,11.714087 10.580552,11.713912" style="fill: white" /><polygon type="contour" points="10.819644,11.713821 10.961942,11.71393 10.961942,11.770656 10.961687,11.84158 10.854937,11.841621 10.72104,11.841671 10.72104,11.713782" style="fill: white" /><polygon type="contour" points="10.961687,11.465391 10.961942,11.551855 10.819644,11.551792 10.720947,11.551969 10.721213,11.470578 10.721213,11.354104 10.819643,11.354104 10.961687,11.353778" style="fill: white" /><polygon type="contour" points="10.580596,11.354104 10.580552,11.416819 10.580552,11.551969 10.487616,11.551969 10.286046,11.55206 10.285951,11.486513 10.286066,11.463647 10.286129,11.353666 10.417811,11.353666" style="fill: white" /><polygon type="contour" points="10.819644,10.721215 10.961726,10.721215 10.961726,10.819645 10.961687,10.961689 10.826409,10.961689 10.721213,10.961728 10.72104,10.889448 10.72104,10.721042" style="fill: white" /><polygon type="contour" points="10.580596,10.819646 10.580596,10.961728 10.459781,10.961728 10.286129,10.961806 10.286026,10.881705 10.285763,10.721042 10.580672,10.721042" style="fill: white" /><polygon type="contour" points="10.078413,10.819645 10.078437,10.961806 9.967397,10.961806 9.829911,10.961689 9.829679,10.833132 9.829748,10.721063 9.904813,10.721042 10.078604,10.721042" style="fill: white" /><polygon type="contour" points="10.078421,10.384466 10.078394,10.580674 9.983278,10.580617 9.829748,10.580617 9.829748,10.467992 9.829758,10.286164 9.91273,10.286029 10.078421,10.286029" style="fill: white" /><polygon type="contour" points="10.078421,9.912732 10.078421,10.078424 9.974305,10.078553 9.829758,10.078553 9.829758,9.974601 9.829679,9.830055 9.962914,9.830055 10.07855,9.830053" style="fill: white" /><polygon type="contour" points="10.580672,9.904604 10.580672,10.078396 10.491864,10.078396 10.286027,10.078424 10.286161,9.9746 10.286161,9.830053 10.409438,9.830053 10.580615,9.830017" style="fill: white" /><polygon type="contour" points="10.580492,10.328711 10.580492,10.580494 10.537293,10.580491 10.28579,10.580491 10.28579,10.537295 10.286124,10.286127 10.335174,10.286127 10.580489,10.285792" style="fill: white" /><polygon type="contour" points="10.819643,10.285898 10.961804,10.286131 10.961804,10.417813 10.961726,10.580598 10.819644,10.580598 10.72104,10.580674 10.72104,10.285764" style="fill: white" /><polygon type="contour" points="10.961687,9.969922 10.961804,10.07844 10.819644,10.078415 10.720829,10.078396 10.721061,9.983548 10.721061,9.830017 10.819643,9.829915 10.961687,9.829912" style="fill: white" /><polygon type="contour" points="11.459894,9.830055 11.55201,9.829941 11.552059,9.916295 11.552059,10.079403 11.463646,10.079109 11.353663,10.078439 11.353663,9.9674 11.353777,9.829912" style="fill: white" /><polygon type="contour" points="11.841588,9.830055 11.841619,9.940209 11.841424,10.078424 11.799202,10.078424 11.71414,10.079231 11.713924,9.975689 11.713924,9.829941 11.767019,9.829941" style="fill: white" /><polygon type="contour" points="11.841619,9.191494 11.841588,9.302024 11.773473,9.302024 11.713924,9.302055 11.71414,9.219451 11.71414,9.053408 11.756182,9.053408 11.841424,9.053278" style="fill: white" /><polygon type="contour" points="11.552059,9.053214 11.55201,9.15712 11.55201,9.302055 11.463645,9.301871 11.353777,9.301792 11.353777,9.161782 11.353663,9.053263 11.422941,9.053086" style="fill: white" /><polygon type="contour" points="11.75738,8.551209 12.013353,8.551209 12.014193,8.566677 12.013586,8.57603 12.013809,8.846017 11.997309,8.845927 11.994624,8.8459 11.854401,8.845503 11.841529,8.845608 11.841412,8.845369 11.714086,8.846883 11.714086,8.797134 11.71391,8.551148" style="fill: white" /><polygon type="contour" points="11.416818,8.551149 11.551968,8.551149 11.551968,8.644084 11.552059,8.846568 11.486512,8.846684 11.463646,8.846413 11.353663,8.845572 11.353663,8.713889 11.354103,8.551105" style="fill: white" /><polygon type="contour" points="11.55179,8.312056 11.551968,8.410754 11.470577,8.410488 11.354103,8.410488 11.354103,8.312057 11.353777,8.170015 11.46539,8.170015 11.551853,8.169761" style="fill: white" /><polygon type="contour" points="11.841578,8.170015 11.841618,8.276764 11.841669,8.410661 11.71378,8.410661 11.713819,8.312056 11.713929,8.169761 11.770655,8.169761" style="fill: white" /><polygon type="contour" points="12.014538,7.161464 12.013348,7.20244 12.013384,7.214923 12.013167,7.231324 12.013414,7.417602 11.739984,7.417602 11.714086,7.417617 11.714086,7.396279 11.714101,7.391717 11.714101,7.118288 11.900379,7.118535 11.937529,7.118242 12.015749,7.115953" style="fill: white" /><polygon type="contour" points="11.84183,7.5801 11.841717,7.668444 11.841597,7.705294 11.841578,7.734835 11.841578,7.777926 11.769797,7.777926 11.713929,7.777949 11.713972,7.708941 11.713972,7.579643 11.758218,7.579643" style="fill: white" /><polygon type="contour" points="11.551853,7.668055 11.551853,7.777949 11.463646,7.777949 11.353777,7.777926 11.353777,7.666311 11.353752,7.57985 11.422759,7.579643 11.552059,7.579643" style="fill: white" /><polygon type="contour" points="11.551602,7.334118 11.552059,7.417731 11.463645,7.417774 11.353752,7.417774 11.353752,7.361048 11.353777,7.290124 11.396868,7.290124 11.463257,7.289985 11.551602,7.289873" style="fill: white" /><polygon type="contour" points="10.580492,7.11835 10.580552,7.162878 10.580552,7.417792 10.53649,7.417792 10.284819,7.417616 10.284863,7.396644 10.286147,7.288175 10.285786,7.228779 10.285803,7.204297 10.311921,7.203388 10.308487,7.135901 10.308487,7.118706 10.361473,7.118706 10.393394,7.118664 10.527324,7.118195" style="fill: white" /><polygon type="contour" points="10.854937,7.290081 10.961687,7.290124 10.961687,7.361903 10.961942,7.417774 10.88221,7.417795 10.72104,7.417922 10.72104,7.290033" style="fill: white" /><polygon type="contour" points="10.819644,7.579912 10.961942,7.57985 10.961942,7.668056 10.961687,7.777926 10.826409,7.777926 10.721213,7.7776 10.721213,7.661125 10.720947,7.579735" style="fill: white" /><polygon type="contour" points="10.580552,7.579735 10.580596,7.661125 10.580596,7.7776 10.45978,7.7776 10.286129,7.778038 10.28529,7.668057 10.285133,7.579644 10.387483,7.579644" style="fill: white" /><polygon type="contour" points="10.078488,7.579644 10.078331,7.668057 10.078437,7.778038 9.967397,7.778038 9.829911,7.777926 9.829679,7.671807 9.829647,7.579692 9.916291,7.579643" style="fill: white" /><polygon type="contour" points="10.078421,7.290275 10.078421,7.332496 10.078294,7.417563 9.97458,7.417779 9.829647,7.417779 9.829647,7.364683 9.829679,7.290114 9.940207,7.290082" style="fill: white" /><polygon type="contour" points="9.301648,7.290113 9.301648,7.358227 9.301762,7.417779 9.219449,7.417562 9.053406,7.417563 9.053406,7.375519 9.053277,7.290275 9.191494,7.290082" style="fill: white" /><polygon type="contour" points="8.576029,7.118117 8.604375,7.118195 8.738305,7.118665 8.823214,7.118706 8.823214,7.135902 8.820875,7.203427 8.845898,7.204296 8.845503,7.277298 8.845607,7.29017 8.845368,7.290296 8.846881,7.417617 8.797131,7.417617 8.551147,7.417792 8.551207,7.37432 8.551207,7.11835 8.566676,7.11751" style="fill: white" /><polygon type="contour" points="8.41066,7.417921 8.312054,7.417882 8.169759,7.417774 8.169759,7.361047 8.170013,7.290124 8.276762,7.290081 8.41066,7.290033" style="fill: white" /><polygon type="contour" points="8.410487,7.661125 8.410487,7.7776 8.312055,7.7776 8.170013,7.777926 8.170013,7.666312 8.169759,7.57985 8.312054,7.579912 8.410752,7.579735" style="fill: white" /><polygon type="contour" points="8.846682,7.64519 8.84641,7.668056 8.84557,7.778038 8.713888,7.778038 8.551104,7.7776 8.551148,7.714884 8.551148,7.579735 8.644083,7.579735 8.846567,7.579644" style="fill: white" /><polygon type="contour" points="9.156827,7.579693 9.301762,7.579692 9.301869,7.668056 9.30179,7.777926 9.161779,7.777926 9.053262,7.778038 9.053369,7.668057 9.053212,7.579644" style="fill: white" /><polygon type="contour" points="9.30179,8.170014 9.301648,8.29857 9.301685,8.410638 9.226886,8.410661 9.053094,8.410661 9.053287,8.312057 9.053262,8.169898 9.1643,8.169898" style="fill: white" /><polygon type="contour" points="9.148153,8.551085 9.301685,8.551085 9.301685,8.663709 9.301649,8.845539 9.218969,8.845672 9.053277,8.845672 9.053277,8.747235 9.053307,8.551029" style="fill: white" /><polygon type="contour" points="8.845671,8.249998 8.845448,8.410661 8.551027,8.410661 8.551104,8.312056 8.551104,8.169976 8.671918,8.169976 8.84557,8.169898" style="fill: white" /><polygon type="contour" points="8.41066,8.242256 8.41066,8.410661 8.312054,8.410488 8.169974,8.410488 8.169974,8.312056 8.170013,8.170015 8.30529,8.170015 8.410487,8.169976" style="fill: white" /><polygon type="contour" points="8.594405,8.551211 8.845312,8.551211 8.845312,8.594405 8.845573,8.845574 8.796522,8.845574 8.55121,8.845314 8.551207,8.802394 8.551207,8.551209" style="fill: white" /><polygon type="contour" points="8.41066,8.84545 8.312054,8.845392 8.169897,8.845572 8.169897,8.713889 8.169974,8.551105 8.312054,8.551105 8.41066,8.551029" style="fill: white" /><polygon type="contour" points="8.410637,9.148423 8.410637,9.301955 8.312054,9.301789 8.170013,9.301792 8.170013,9.161781 8.169897,9.053263 8.312055,9.053289 8.41066,9.053097" style="fill: white" /><polygon type="contour" points="8.845538,9.157394 8.845538,9.301944 8.722259,9.301944 8.551083,9.301955 8.551027,9.2271 8.551027,9.053308 8.639835,9.053308 8.845671,9.053278" style="fill: white" /><polygon type="contour" points="9.30165,9.157393 9.301648,9.302024 9.168787,9.302024 9.053148,9.301944 9.053277,9.218971 9.053277,9.053277 9.157099,9.053149 9.30165,9.053149" style="fill: white" /><polygon type="contour" points="9.301648,9.830055 9.301648,9.962916 9.30165,10.078553 9.21897,10.078424 9.053276,10.078424 9.053148,9.9746 9.053148,9.830053 9.157099,9.830053" style="fill: white" /><polygon type="contour" points="8.845538,9.830053 8.845671,9.912733 8.845671,10.078424 8.747233,10.078424 8.551027,10.078396 8.551084,9.983547 8.551084,9.830017 8.663709,9.830017" style="fill: white" /><polygon type="contour" points="8.845573,10.286127 8.845573,10.335176 8.845312,10.580491 8.802392,10.580494 8.551207,10.580494 8.55121,10.537295 8.55121,10.285792 8.594404,10.285792" style="fill: white" /><polygon type="contour" points="9.1571,10.286164 9.30165,10.286164 9.30165,10.409441 9.301685,10.580617 9.227097,10.580674 9.053307,10.580674 9.053307,10.491865 9.053277,10.286029" style="fill: white" /><polygon type="contour" points="9.148153,10.721063 9.301685,10.721063 9.301786,10.819645 9.30179,10.961689 9.16178,10.961689 9.053262,10.961806 9.053277,10.881473 9.053307,10.720831" style="fill: white" /><polygon type="contour" points="8.84539,10.819646 8.84557,10.961806 8.713887,10.961806 8.551104,10.961728 8.551027,10.889449 8.551027,10.721042 8.845448,10.721042" style="fill: white" /><polygon type="contour" points="8.41066,10.580674 8.312054,10.580598 8.169974,10.580598 8.169974,10.459782 8.169897,10.286131 8.249996,10.286029 8.41066,10.285764" style="fill: white" /><polygon type="contour" points="8.410487,10.819646 8.410487,10.961728 8.312055,10.961728 8.170013,10.961689 8.170013,10.826411 8.169974,10.721215 8.242253,10.721042 8.41066,10.721042" style="fill: white" /><polygon type="contour" points="8.410487,11.354103 8.410487,11.470578 8.410752,11.551969 8.312054,11.551792 8.169759,11.551855 8.169759,11.463647 8.170013,11.353778 8.30529,11.353778" style="fill: white" /><polygon type="contour" points="8.846409,11.463647 8.846567,11.552061 8.744215,11.552061 8.551148,11.551969 8.551104,11.470577 8.551104,11.354104 8.671918,11.354104 8.84557,11.353666" style="fill: white" /><polygon type="contour" points="8.846881,11.714088 8.845622,11.820064 8.845563,11.845688 8.845914,11.902923 8.845898,11.927408 8.819778,11.928309 8.823214,11.995802 8.823214,12.012998 8.770227,12.012998 8.738305,12.013039 8.604374,12.013508 8.551207,12.013354 8.551147,11.968824 8.551147,11.713912 8.595208,11.713912" style="fill: white" /><polygon type="contour" points="8.41066,11.841671 8.276762,11.841621 8.170013,11.84158 8.170013,11.7698 8.169759,11.71393 8.249491,11.71391 8.41066,11.713782" style="fill: white" /><polygon type="contour" points="7.777946,11.770656 7.777924,11.84158 7.734832,11.84158 7.668443,11.841719 7.580098,11.841832 7.580098,11.797585 7.579641,11.713974 7.668053,11.71393 7.777946,11.71393" style="fill: white" /><polygon type="contour" points="7.777924,11.353778 7.777924,11.465392 7.777946,11.551855 7.708937,11.552061 7.579641,11.552061 7.579847,11.463648 7.579847,11.353754 7.668053,11.353754" style="fill: white" /><polygon type="contour" points="7.417729,11.42276 7.417729,11.552061 7.373482,11.552061 7.289871,11.551604 7.289983,11.463259 7.290122,11.396869 7.290122,11.353778 7.361901,11.353778 7.417772,11.353754" style="fill: white" /><polygon type="contour" points="7.356679,11.714103 7.391716,11.714103 7.417614,11.714088 7.417614,11.735425 7.4176,11.739987 7.4176,12.013416 7.231321,12.013168 7.194168,12.01346 7.115951,12.01575 7.117054,11.970239 7.118352,11.929262 7.118534,11.90038 7.118286,11.713546" style="fill: white" />
</svg>
