<svg width="19.131698" height="19.131699">
<polygon type="contour" points="8.797628,8.716044 8.9023,8.718593 8.916771,8.719235 8.94553,8.719235 9.017446,8.719244 9.017739,8.782783 9.018618,8.82169 9.019165,8.885974 9.103014,8.886052 9.154636,8.886109 9.1546,8.964039 9.1546,9.065701 9.154636,9.106281 9.154636,9.154638 9.103014,9.154602 9.019569,9.154602 8.958069,9.154638 8.886107,9.154638 8.886073,9.117728 8.885962,9.019167 8.719335,9.019167 8.719334,8.980299 8.719311,8.928906 8.717674,8.841503 8.715288,8.71529" style="fill: white" /><polygon type="contour" points="9.154391,9.335516 9.154391,9.758702 9.154636,9.799158 9.154636,9.847134 9.103015,9.847125 9.019568,9.847125 8.958068,9.847134 8.886107,9.847134 8.886078,9.810731 8.886031,9.711102 8.719481,9.711102 8.719376,9.691465 8.717623,9.566201 8.718001,9.503809 8.719376,9.440333 8.719481,9.420602 8.88602,9.420602 8.88608,9.335516 8.886107,9.284571 8.964037,9.284579 9.0657,9.284579 9.106279,9.284571 9.154636,9.284571" style="fill: white" /><polygon type="contour" points="10.414024,8.841504 10.412388,8.928905 10.412366,8.980298 10.412194,9.019105 10.367755,9.019167 10.245729,9.019167 10.245649,9.103016 10.245593,9.154638 10.167663,9.154602 10.066,9.154602 10.025419,9.154638 9.977065,9.154638 9.9771,9.103017 9.9771,9.019571 9.977065,8.958071 9.977065,8.886109 10.013974,8.886075 10.112535,8.885966 10.113083,8.82169 10.113962,8.782783 10.114255,8.778682 10.114255,8.719244 10.18617,8.719235 10.214929,8.719235 10.229398,8.718594 10.334073,8.716044 10.416411,8.71529" style="fill: white" /><polygon type="contour" points="9.660791,8.718162 9.711101,8.719483 9.711101,8.806128 9.711438,8.886001 9.796067,8.886068 9.796187,8.886083 9.847132,8.886109 9.847124,8.964039 9.847124,9.065702 9.847132,9.106281 9.847132,9.154638 9.796186,9.154393 9.372999,9.154393 9.332543,9.154638 9.284569,9.154638 9.284577,9.103017 9.284577,9.01957 9.284569,8.958071 9.284569,8.886109 9.320969,8.886081 9.4206,8.886034 9.4206,8.719483 9.440236,8.719378 9.565768,8.717551" style="fill: white" /><polygon type="contour" points="9.799156,9.284571 9.847132,9.284571 9.847303,9.335515 9.847303,9.758703 9.847132,9.799158 9.847132,9.847134 9.796187,9.847305 9.372999,9.847305 9.332543,9.847134 9.284569,9.847134 9.284397,9.796188 9.284397,9.373001 9.284569,9.332545 9.284569,9.284571 9.335514,9.284399 9.758701,9.284399" style="fill: white" /><polygon type="contour" points="10.245621,9.320972 10.245668,9.420602 10.412219,9.420602 10.412323,9.440333 10.414077,9.566201 10.413697,9.628294 10.412324,9.691465 10.412219,9.711102 10.245679,9.711102 10.24562,9.796188 10.245593,9.847134 10.167663,9.847125 10.066,9.847125 10.02542,9.847134 9.977065,9.847134 9.97731,9.796188 9.97731,9.373001 9.977065,9.332545 9.977065,9.284571 10.028685,9.284579 10.112132,9.284579 10.173631,9.284571 10.245593,9.284571" style="fill: white" /><polygon type="contour" points="10.245625,10.013974 10.245737,10.112538 10.412364,10.112538 10.412365,10.151405 10.412388,10.202799 10.414024,10.290199 10.416411,10.416413 10.334073,10.415659 10.229398,10.413109 10.214929,10.412469 10.18617,10.412469 10.114255,10.41246 10.113962,10.348921 10.113083,10.310014 10.112535,10.245729 10.028686,10.245651 9.977065,10.245594 9.9771,10.167665 9.9771,10.066002 9.977065,10.025422 9.977065,9.977067 10.028685,9.977102 10.112131,9.977102 10.173631,9.977067 10.245593,9.977067" style="fill: white" /><polygon type="contour" points="9.847124,10.028687 9.847124,10.112134 9.847132,10.173633 9.847132,10.245595 9.810729,10.245623 9.711101,10.245669 9.711101,10.412221 9.691368,10.412326 9.565501,10.414153 9.470908,10.41354 9.4206,10.412221 9.4206,10.325575 9.420262,10.245702 9.335633,10.245636 9.335513,10.245621 9.284569,10.245595 9.284577,10.167665 9.284577,10.066002 9.284569,10.025422 9.284569,9.977067 9.335514,9.977312 9.7587,9.977312 9.799156,9.977067 9.847132,9.977067" style="fill: white" /><polygon type="contour" points="9.1546,10.028688 9.1546,10.112134 9.154636,10.173632 9.154636,10.245595 9.117726,10.245628 9.019165,10.245737 9.018618,10.310014 9.017739,10.34892 9.017446,10.353021 9.017446,10.41246 8.94553,10.412469 8.916771,10.412469 8.9023,10.41311 8.797628,10.41566 8.715288,10.416414 8.717674,10.2902 8.719311,10.202798 8.719334,10.151406 8.719506,10.112599 8.763944,10.112538 8.88597,10.112538 8.886051,10.028687 8.886107,9.977067 8.964037,9.977102 9.065699,9.977102 9.10628,9.977067 9.154636,9.977067" style="fill: white" />
</svg>
