<svg width="19.131698" height="19.131699">
<polygon type="contour" points="16.919718,14.350827 17.084778,14.350465 17.084521,14.435469 17.084532,14.460968 17.084514,14.59169 17.136238,14.591915 17.137185,14.591932 17.179894,14.591995 17.179894,14.720534 17.179412,14.924714 17.137472,14.924565 17.092924,14.924758 17.06004,14.924521 17.046191,14.924776 16.989517,14.92501 16.946047,14.92501 16.846796,14.9246 16.8466,14.470818 16.8466,14.347237" style="fill: white" /><polygon type="contour" points="16.409711,14.48804 16.410278,14.924814 16.264915,14.925086 16.077996,14.924898 16.077663,14.78418 16.077741,14.364242 16.159047,14.366594 16.409711,14.35888" style="fill: white" /><polygon type="contour" points="14.477716,16.077352 14.924896,16.077997 14.924708,16.191485 14.924811,16.41028 14.484105,16.410523 14.358468,16.410614 14.354726,16.337537 14.360919,16.07729" style="fill: white" /><polygon type="contour" points="14.924597,16.8468 14.924597,16.886006 14.925008,16.989521 14.924773,17.046195 14.92452,17.060044 14.924756,17.092925 14.924564,17.095376 14.924564,17.137473 14.924698,17.139516 14.924713,17.179414 14.720533,17.179896 14.591994,17.179896 14.591913,17.136239 14.591689,17.084518 14.363291,17.084664 14.359979,17.084582 14.347382,16.880931 14.354627,16.846546 14.48213,16.846546" style="fill: white" /><polygon type="contour" points="15.625419,16.885204 15.625419,16.989042 15.498168,16.989116 15.429617,16.989308 15.429527,16.928496 15.429527,16.846568 15.513072,16.846568 15.625337,16.84645" style="fill: white" /><polygon type="contour" points="16.25284,16.846644 16.410278,16.846644 16.410278,16.989446 16.278838,16.989176 16.077663,16.989042 16.077921,16.940477 16.077921,16.84645" style="fill: white" /><polygon type="contour" points="17.179412,16.846212 17.179326,16.934516 17.179802,17.148057 17.179802,17.179804 17.041968,17.17995 17.041152,17.179808 16.846152,17.179356 16.846372,17.137474 16.846372,17.095375 16.84631,17.093953 16.84634,17.061799 16.84636,17.048102 16.846642,16.989445 16.846642,16.846644 16.989443,16.846644 17.048099,16.84636 17.061798,16.846341 17.093952,16.846312 17.137471,16.846374 17.139514,16.8462" style="fill: white" /><polygon type="contour" points="16.989174,16.27884 16.989444,16.41028 16.84664,16.41028 16.84664,16.252842 16.846448,16.077922 16.885202,16.077664 16.98904,16.077664" style="fill: white" /><polygon type="contour" points="16.902361,15.429618 16.989306,15.429618 16.989114,15.498169 16.98904,15.625421 16.940474,15.625339 16.846448,15.625339 16.846448,15.558395 16.846564,15.429529" style="fill: white" /><polygon type="contour" points="16.410403,15.429529 16.410419,15.558396 16.410419,15.625339 16.191483,15.625339 16.077663,15.625421 16.077996,15.564707 16.077996,15.429401 16.191484,15.42934" style="fill: white" /><polygon type="contour" points="16.191484,16.077922 16.410419,16.077922 16.410419,16.191485 16.410278,16.41028 16.219632,16.410407 16.191483,16.41042 16.077921,16.41042 16.077921,16.191486 16.077663,16.077664" style="fill: white" /><polygon type="contour" points="15.625337,16.191485 15.625337,16.41042 15.558395,16.41042 15.429527,16.410406 15.429337,16.191485 15.4294,16.077997 15.482895,16.077664 15.625419,16.077664" style="fill: white" /><polygon type="contour" points="15.625419,15.482896 15.625419,15.625421 15.564706,15.625184 15.4294,15.625184 15.4294,15.564707 15.429617,15.429618 15.506009,15.429618 15.625183,15.429401" style="fill: white" /><polygon type="contour" points="14.925009,15.429618 14.925009,15.50601 14.924896,15.625184 14.477174,15.624856 14.3587,15.625014 14.360378,15.580702 14.35474,15.429604 14.468998,15.429604" style="fill: white" /><polygon type="contour" points="14.924829,14.471846 14.925007,14.92501 14.458723,14.925131 14.347551,14.925131 14.355141,14.741024 14.367539,14.450231 14.445739,14.445741 14.450229,14.367541 14.735364,14.362554 14.924829,14.356569" style="fill: white" /><polygon type="contour" points="15.625011,14.358703 15.624854,14.477175 15.625183,14.924898 15.50601,14.92501 15.429617,14.92501 15.429602,14.469002 15.429602,14.354742 15.467244,14.352891" style="fill: white" /><polygon type="contour" points="14.924896,3.566996 14.925009,3.702084 14.468998,3.7021 14.35474,3.7021 14.352889,3.664456 14.3587,3.506691 14.477173,3.506848 14.924896,3.50652" style="fill: white" /><polygon type="contour" points="14.925007,4.206694 14.924829,4.659855 14.924829,4.775133 14.735364,4.76915 14.450229,4.764163 14.445736,4.6859 14.367566,4.681542 14.355141,4.390679 14.347551,4.206574 14.458723,4.206574" style="fill: white" /><polygon type="contour" points="15.625182,4.206805 15.624854,4.654528 15.625011,4.773001 15.580698,4.771324 15.429602,4.776962 15.429602,4.662702 15.429617,4.206694 15.50601,4.206694" style="fill: white" /><polygon type="contour" points="17.179802,1.951899 17.179802,1.983646 17.179325,2.197189 17.179412,2.28549 17.137472,2.28533 17.095374,2.28533 17.093951,2.285391 17.061797,2.285363 17.048099,2.285343 16.989444,2.285058 16.846644,2.285058 16.846644,2.247465 16.846642,2.142259 16.84636,2.083603 16.846339,2.069902 16.84631,2.037749 16.846372,1.994229 16.846198,1.992188 16.846152,1.952348 17.041151,1.951895 17.041967,1.951755" style="fill: white" /><polygon type="contour" points="16.41028,2.209874 16.41028,2.285058 16.252839,2.285058 16.077919,2.285253 16.077663,2.2465 16.077663,2.142661 16.278838,2.142529 16.410278,2.142258" style="fill: white" /><polygon type="contour" points="16.41028,2.721423 16.410278,2.878862 16.410419,3.053782 16.191484,3.053782 16.077663,3.054039 16.07792,2.940217 16.07792,2.721282 16.191484,2.721282" style="fill: white" /><polygon type="contour" points="16.989174,2.852862 16.98904,3.054039 16.940474,3.053782 16.846448,3.053782 16.846639,2.878862 16.846642,2.721423 16.989444,2.721423" style="fill: white" /><polygon type="contour" points="16.989196,3.566995 16.989306,3.702084 16.928494,3.701876 16.846564,3.701876 16.846564,3.618627 16.846448,3.506365 16.885202,3.506283 16.98904,3.506283" style="fill: white" /><polygon type="contour" points="17.046191,4.206928 17.06004,4.207182 17.092923,4.206946 17.095373,4.207139 17.137471,4.207139 17.139514,4.207003 17.179412,4.20699 17.179894,4.411169 17.179894,4.539708 17.136237,4.539789 17.084514,4.540013 17.084884,4.768365 17.084871,4.771664 16.879829,4.792448 16.8466,4.784468 16.8466,4.660887 16.846796,4.207104 16.886002,4.207104 16.989517,4.206694" style="fill: white" /><polygon type="contour" points="16.410278,4.20689 16.409711,4.643663 16.409711,4.772823 16.159048,4.765109 16.077741,4.767462 16.077973,4.653318 16.077996,4.206805 16.264914,4.206617" style="fill: white" /><polygon type="contour" points="16.191483,3.506365 16.410419,3.506365 16.410419,3.573068 16.410403,3.701876 16.191484,3.702124 16.077996,3.702302 16.077663,3.648808 16.077663,3.506283" style="fill: white" /><polygon type="contour" points="15.625183,3.566995 15.625183,3.702302 15.564707,3.702302 15.429617,3.702084 15.429617,3.625691 15.4294,3.50652 15.482894,3.506283 15.625419,3.506283" style="fill: white" /><polygon type="contour" points="15.625337,2.940218 15.625419,3.054039 15.564706,3.053707 15.4294,3.053707 15.429337,2.940217 15.429527,2.721297 15.513073,2.721297 15.625337,2.721281" style="fill: white" /><polygon type="contour" points="15.498168,2.142586 15.625419,2.142661 15.625337,2.191225 15.625337,2.285253 15.513073,2.285137 15.429527,2.285137 15.429617,2.229337 15.429617,2.142393" style="fill: white" /><polygon type="contour" points="14.924713,1.952289 14.924564,1.994229 14.924756,2.038778 14.92452,2.071659 14.924773,2.085508 14.925008,2.142181 14.925008,2.185652 14.924597,2.284903 14.48213,2.285159 14.354628,2.285159 14.347382,2.250772 14.359979,2.047121 14.363291,2.047038 14.591689,2.047183 14.591914,1.995464 14.591931,1.994514 14.591994,1.951809 14.720534,1.951809" style="fill: white" /><polygon type="contour" points="14.484107,2.72118 14.924811,2.721422 14.925084,2.866787 14.924896,3.053707 14.477715,3.054352 14.360919,3.054414 14.364051,2.951103 14.35847,2.721089" style="fill: white" /><polygon type="contour" points="4.77656,4.390679 4.764162,4.681473 4.68596,4.685962 4.681471,4.764163 4.396334,4.769149 4.20687,4.775133 4.20687,4.659854 4.206692,4.206694 4.672978,4.206574 4.78415,4.206574" style="fill: white" /><polygon type="contour" points="4.539787,1.995463 4.540011,2.047183 4.670732,2.047168 4.696232,2.047178 4.781239,2.046922 4.784849,2.103386 4.777072,2.285159 4.649569,2.285159 4.207103,2.284903 4.207103,2.245696 4.206692,2.14218 4.206926,2.085509 4.207181,2.071659 4.206945,2.038778 4.207137,2.036328 4.207137,1.994228 4.207001,1.992187 4.206988,1.952289 4.411166,1.951809 4.539706,1.951809" style="fill: white" /><polygon type="contour" points="4.776974,2.794167 4.77078,3.054414 4.653983,3.054352 4.206803,3.053707 4.206991,2.940218 4.206888,2.721423 4.647594,2.72118 4.773231,2.721089" style="fill: white" /><polygon type="contour" points="4.654527,3.506848 4.773,3.506691 4.771323,3.551003 4.776961,3.7021 4.662701,3.7021 4.206692,3.702084 4.206692,3.625691 4.206802,3.50652" style="fill: white" /><polygon type="contour" points="2.2849,4.207104 2.285103,4.660887 2.285103,4.784468 2.251872,4.792449 2.046828,4.771664 2.046817,4.768366 2.047181,4.540013 1.995462,4.539789 1.994514,4.539772 1.951807,4.539708 1.951807,4.411168 1.952287,4.20699 1.994228,4.207139 2.038776,4.206946 2.071658,4.207181 2.085507,4.206928 2.14218,4.206694 2.185651,4.206694" style="fill: white" /><polygon type="contour" points="2.191224,3.506365 2.285252,3.506365 2.285252,3.573069 2.285135,3.701876 2.229336,3.702084 2.142392,3.702084 2.142584,3.633532 2.14266,3.506283" style="fill: white" /><polygon type="contour" points="2.285057,2.878861 2.285252,3.053782 2.246499,3.054039 2.14266,3.054039 2.142527,2.852862 2.142257,2.721423 2.285057,2.721423" style="fill: white" /><polygon type="contour" points="2.090549,1.951895 2.285547,1.952348 2.285329,1.994229 2.285329,2.036329 2.28539,2.03775 2.285361,2.069902 2.285342,2.083603 2.285057,2.142258 2.285057,2.285058 2.142256,2.285058 2.083601,2.285343 2.0699,2.285363 2.037747,2.285391 1.994228,2.28533 1.992186,2.285504 1.952287,2.28549 1.952375,2.197189 1.951897,1.983645 1.951897,1.951899 2.089731,1.951755" style="fill: white" /><polygon type="contour" points="2.85286,2.142529 3.054037,2.142661 3.05378,2.191226 3.05378,2.285253 2.87886,2.285058 2.721421,2.285058 2.721421,2.142258" style="fill: white" /><polygon type="contour" points="3.701874,2.203205 3.701874,2.285137 3.618625,2.285137 3.506363,2.285253 3.506281,2.2465 3.506281,2.142661 3.63353,2.142586 3.702083,2.142393" style="fill: white" /><polygon type="contour" points="3.701874,2.721297 3.702123,2.940217 3.702301,3.053707 3.648806,3.054039 3.506281,3.054039 3.506363,2.940218 3.506363,2.721282 3.573067,2.721282" style="fill: white" /><polygon type="contour" points="3.05378,2.940217 3.054037,3.054039 2.940215,3.053782 2.72128,3.053782 2.72128,2.940217 2.721421,2.721423 2.912064,2.721297 2.940216,2.721282 3.05378,2.721282" style="fill: white" /><polygon type="contour" points="3.566993,3.50652 3.702301,3.50652 3.702301,3.566995 3.702083,3.702084 3.625689,3.702084 3.506518,3.702302 3.506281,3.648807 3.506281,3.506283" style="fill: white" /><polygon type="contour" points="3.053705,3.566995 3.053705,3.702302 2.940215,3.702124 2.721295,3.701876 2.72128,3.573069 2.72128,3.506365 2.940216,3.506365 3.054037,3.506283" style="fill: white" /><polygon type="contour" points="3.053705,4.206805 3.054036,4.347522 3.053957,4.767462 2.97265,4.765109 2.721987,4.772823 2.721987,4.643663 2.721421,4.20689 2.866785,4.206617" style="fill: white" /><polygon type="contour" points="3.702098,4.662702 3.702098,4.776962 3.664454,4.778813 3.506688,4.773001 3.506846,4.654528 3.506518,4.206804 3.625689,4.206694 3.702083,4.206694" style="fill: white" /><polygon type="contour" points="2.285103,14.347237 2.285103,14.470818 2.284901,14.9246 2.245694,14.9246 2.142179,14.925011 2.085508,14.924776 2.071658,14.924521 2.038776,14.924757 2.036327,14.924565 1.994228,14.924565 1.992186,14.9247 1.952287,14.924713 1.951807,14.720535 1.951807,14.591995 1.995463,14.591915 2.047181,14.59169 2.047165,14.460969 2.047176,14.435469 2.046921,14.350465 2.103386,14.346855" style="fill: white" /><polygon type="contour" points="2.972651,14.366594 3.053958,14.364242 3.053727,14.478384 3.053705,14.924898 2.866786,14.925086 2.72142,14.924814 2.721987,14.48804 2.721987,14.35888" style="fill: white" /><polygon type="contour" points="3.702098,14.469002 3.702083,14.92501 3.625689,14.92501 3.506518,14.924898 3.506846,14.477175 3.506688,14.358703 3.551,14.36038 3.702098,14.354742" style="fill: white" /><polygon type="contour" points="4.396334,14.362554 4.681471,14.367541 4.685963,14.445804 4.764134,14.450161 4.77656,14.741024 4.78415,14.925131 4.672978,14.925131 4.206692,14.92501 4.20687,14.471847 4.20687,14.356569" style="fill: white" /><polygon type="contour" points="4.778811,15.467247 4.773,15.625014 4.654527,15.624856 4.206803,15.625184 4.206803,15.564708 4.206692,15.429618 4.662701,15.429604 4.776961,15.429604" style="fill: white" /><polygon type="contour" points="4.767648,16.1806 4.773231,16.410614 4.647594,16.410523 4.206888,16.41028 4.206615,16.264915 4.206803,16.077997 4.653983,16.077352 4.77078,16.07729" style="fill: white" /><polygon type="contour" points="4.774066,16.921775 4.781239,17.08478 4.69623,17.084526 4.670732,17.084534 4.540011,17.084518 4.539787,17.136239 4.53977,17.137188 4.539706,17.179896 4.411166,17.179896 4.206988,17.179416 4.207137,17.137473 4.206945,17.092924 4.207181,17.060044 4.206926,17.046195 4.206692,16.989522 4.206692,16.946049 4.207102,16.8468 4.649569,16.846546 4.777072,16.846546" style="fill: white" /><polygon type="contour" points="3.618625,16.846568 3.701874,16.846568 3.702083,16.902366 3.702083,16.989308 3.63353,16.989116 3.506281,16.989042 3.506363,16.940477 3.506363,16.84645" style="fill: white" /><polygon type="contour" points="3.054037,16.885203 3.054037,16.989042 2.85286,16.989176 2.721421,16.989446 2.721421,16.846644 2.87886,16.846644 3.05378,16.84645" style="fill: white" /><polygon type="contour" points="3.05378,16.191485 3.05378,16.41042 2.940215,16.41042 2.721421,16.41028 2.721421,16.252842 2.72128,16.077922 2.940215,16.077922 3.054037,16.077664" style="fill: white" /><polygon type="contour" points="3.566994,16.077997 3.702301,16.077997 3.702123,16.191486 3.701874,16.410407 3.618626,16.410407 3.506363,16.41042 3.506363,16.191485 3.506281,16.077664" style="fill: white" /><polygon type="contour" points="3.702083,15.429618 3.702083,15.506011 3.702301,15.625183 3.648805,15.625421 3.506281,15.625421 3.506518,15.564708 3.506518,15.429401 3.566994,15.429401" style="fill: white" /><polygon type="contour" points="3.053705,15.429401 3.054037,15.482896 3.054037,15.625421 2.940216,15.625339 2.72128,15.625339 2.72128,15.558395 2.721294,15.429529 2.940215,15.429339" style="fill: white" /><polygon type="contour" points="2.285135,15.513075 2.285252,15.625339 2.246499,15.625421 2.14266,15.625421 2.142504,15.564707 2.142392,15.429619 2.203203,15.429529 2.285135,15.429529" style="fill: white" /><polygon type="contour" points="2.191225,16.077922 2.285252,16.077922 2.285057,16.252841 2.285057,16.41028 2.142257,16.41028 2.142527,16.27884 2.14266,16.077664" style="fill: white" /><polygon type="contour" points="1.994227,16.846374 2.036327,16.846374 2.037747,16.846312 2.069901,16.846342 2.0836,16.84636 2.142257,16.846644 2.285057,16.846644 2.285057,16.989446 2.285342,17.048101 2.285361,17.0618 2.28539,17.093953 2.285328,17.137473 2.285502,17.139516 2.285547,17.179356 2.090549,17.179808 2.089731,17.17995 1.951897,17.179804 1.951897,17.148058 1.952375,16.934515 1.952287,16.846212" style="fill: white" />
</svg>
