<svg width="19.131698" height="19.131699">
<polygon type="contour" points="16.416708,13.247091 16.416489,13.458601 16.416519,13.55974 16.416671,13.662413 16.416692,13.924111 16.51215,13.924252 16.51215,14.111904 16.511809,14.25711 16.448165,14.256884 16.380561,14.257177 16.321974,14.256753 16.321774,14.371897 16.321716,14.391476 16.321716,16.049076 16.321646,16.07168 16.321618,16.178814 16.382123,16.17876 16.448164,16.178852 16.451262,16.178589 16.511809,16.178609 16.511676,16.312605 16.512018,16.465674 16.512018,16.51202 16.310797,16.512231 16.309603,16.512025 16.178519,16.511721 16.17885,16.448167 16.17885,16.384283 16.178758,16.382124 16.178812,16.32162 16.071678,16.321648 16.049072,16.321717 14.391474,16.321717 14.371896,16.321776 14.256753,16.321978 14.257173,16.380564 14.256883,16.384282 14.256883,16.448167 14.257087,16.451265 14.257109,16.511811 14.111903,16.512152 13.924251,16.512152 13.924075,16.416699 13.568496,16.416603 13.472075,16.416595 13.456382,16.416552 13.396748,16.416616 13.216454,16.416669 13.225252,16.277245 13.223874,16.273523 13.240768,16.098697 13.245529,16.07168 13.247932,16.049077 13.247932,14.391476 13.245687,14.371898 13.23761,14.256976 13.225829,14.119185 13.231612,14.102828 13.246844,13.906097 13.277111,13.906156 13.289056,13.906216 13.292603,13.906236 13.471418,13.905367 13.568073,13.906046 13.580208,13.906229 13.66685,13.905599 13.728124,13.905262 13.735588,13.905146 13.737996,13.905427 13.78583,13.904532 13.790738,13.904291 13.810995,13.90313 13.815677,13.902419 13.835231,13.90213 13.840214,13.90202 13.850548,13.9018 13.901227,13.900343 13.9018,13.850551 13.902019,13.840216 13.902128,13.835234 13.902416,13.815679 13.903127,13.810997 13.904288,13.79074 13.904529,13.785834 13.905424,13.737999 13.905144,13.73559 13.90526,13.728126 13.905596,13.666853 13.906226,13.580211 13.906044,13.568076 13.905365,13.471421 13.906234,13.292604 13.906214,13.289058 13.906154,13.277113 13.906095,13.246846 14.102826,13.231614 14.119183,13.225831 14.256975,13.237612 14.371896,13.245688 14.391474,13.247933 16.049072,13.247933 16.071679,13.24553 16.178818,13.237801 16.274532,13.211786" style="fill: white" /><polygon type="contour" points="16.512018,2.619683 16.512018,2.66603 16.511676,2.819098 16.511809,2.953094 16.448165,2.952851 16.38428,2.952851 16.382122,2.952944 16.321618,2.95289 16.321646,3.060023 16.321716,3.082626 16.321716,4.740227 16.321774,4.759805 16.321974,4.874948 16.380562,4.874528 16.38428,4.874821 16.448165,4.874821 16.451262,4.874614 16.511809,4.874594 16.51215,5.019799 16.51215,5.207451 16.416692,5.207627 16.416685,5.564422 16.416694,5.660598 16.416654,5.676226 16.416727,5.735574 16.41666,5.914915 16.277805,5.906199 16.178818,5.893902 16.071679,5.886173 16.049072,5.883771 14.391474,5.883771 14.371896,5.886014 14.256974,5.894091 14.119183,5.905873 14.102825,5.90009 13.906095,5.884857 13.906154,5.854588 13.906213,5.842646 13.906234,5.839099 13.905365,5.660282 13.906044,5.563628 13.906226,5.55149 13.90606,5.517654 13.905986,5.513725 13.906192,5.5126 13.905424,5.393703 13.904529,5.345868 13.904289,5.340963 13.903127,5.320705 13.902416,5.316022 13.902127,5.296468 13.902019,5.291487 13.9018,5.281152 13.901226,5.231347 13.850548,5.229903 13.840214,5.229683 13.835232,5.229573 13.815676,5.229284 13.810995,5.228573 13.785831,5.227171 13.737996,5.226276 13.735588,5.226557 13.728124,5.226441 13.66685,5.226103 13.580209,5.225474 13.568074,5.225657 13.471419,5.226337 13.292602,5.225468 13.289056,5.225487 13.277111,5.225548 13.246844,5.225607 13.231612,5.028875 13.225829,5.012519 13.23761,4.874726 13.245687,4.759804 13.247932,4.740227 13.247932,3.082626 13.245529,3.060023 13.240868,3.032386 13.225504,2.853897 13.21678,2.714959 13.396126,2.714974 13.455473,2.715047 13.471104,2.715005 13.56728,2.715017 13.924108,2.715005 13.924251,2.619552 14.111903,2.619552 14.257109,2.619893 14.256883,2.683536 14.257174,2.751139 14.256753,2.809725 14.371896,2.809927 14.391474,2.809987 16.049072,2.809987 16.071679,2.810056 16.178812,2.810084 16.178758,2.749578 16.178851,2.683537 16.178586,2.680439 16.178519,2.619982 16.309603,2.619678 16.310797,2.619473" style="fill: white" /><polygon type="contour" points="2.822095,2.619678 2.953181,2.619982 2.95285,2.683537 2.95285,2.747423 2.952943,2.749579 2.952888,2.810084 3.060022,2.810056 3.082625,2.809987 4.740225,2.809987 4.759803,2.809927 4.874947,2.809725 4.874527,2.751139 4.874818,2.747422 4.874818,2.683536 4.874612,2.680439 4.874592,2.619893 5.019796,2.619552 5.207448,2.619552 5.207626,2.715004 5.469288,2.715032 5.571958,2.715183 5.67336,2.715211 5.884612,2.714994 5.919915,2.857171 5.897673,3.036128 5.886171,3.060023 5.883768,3.082626 5.883768,4.740227 5.886012,4.759804 5.894089,4.874726 5.905872,5.012519 5.900088,5.028876 5.884855,5.225607 5.854588,5.225548 5.842643,5.225487 5.839096,5.225467 5.660281,5.226337 5.563624,5.225656 5.551489,5.225474 5.517651,5.225642 5.513722,5.225715 5.512597,5.225508 5.393701,5.226276 5.345866,5.227171 5.340961,5.227411 5.320703,5.228573 5.31602,5.229284 5.296466,5.229573 5.291484,5.229684 5.28115,5.229902 5.230461,5.231347 5.229901,5.281152 5.229681,5.291487 5.22957,5.296469 5.229281,5.316023 5.228571,5.320706 5.227407,5.340963 5.227168,5.345868 5.226273,5.393703 5.226556,5.396113 5.226439,5.403577 5.226102,5.464848 5.225472,5.55149 5.225656,5.563627 5.226335,5.660282 5.225466,5.839099 5.225486,5.842646 5.225546,5.854588 5.225605,5.884857 5.028874,5.90009 5.012517,5.905873 4.874725,5.894091 4.759803,5.886014 4.740226,5.883771 3.082626,5.883771 3.060021,5.886173 2.952883,5.893903 2.853894,5.906198 2.715039,5.914915 2.714973,5.735574 2.715046,5.676226 2.715005,5.660347 2.715015,5.564421 2.715003,5.207593 2.61955,5.207451 2.61955,5.019799 2.619892,4.874594 2.683534,4.874821 2.751137,4.874528 2.809724,4.874948 2.809925,4.759805 2.809985,4.740228 2.809985,3.082626 2.810055,3.060023 2.810082,2.95289 2.749576,2.952944 2.683535,2.952851 2.680437,2.953114 2.619892,2.953094 2.620024,2.819098 2.619681,2.66603 2.619681,2.619683 2.820901,2.619473" style="fill: white" /><polygon type="contour" points="2.952883,13.237801 3.060021,13.245531 3.082626,13.247933 4.740225,13.247933 4.759804,13.245688 4.874724,13.237612 5.012517,13.225831 5.028874,13.231614 5.225605,13.246846 5.225546,13.277113 5.225485,13.289058 5.225466,13.292604 5.226335,13.471421 5.225655,13.568076 5.225471,13.580211 5.226101,13.666853 5.226439,13.728126 5.226556,13.735591 5.226274,13.738 5.227169,13.785833 5.227408,13.79074 5.228571,13.810998 5.229282,13.81568 5.229571,13.835234 5.229681,13.840216 5.229901,13.850551 5.230461,13.900342 5.28115,13.901801 5.291484,13.902019 5.296466,13.90213 5.316021,13.902419 5.320702,13.90313 5.345867,13.904532 5.393699,13.905427 5.396111,13.905146 5.403573,13.905261 5.464847,13.905599 5.551489,13.906229 5.563624,13.906046 5.660281,13.905367 5.839096,13.906236 5.842643,13.906216 5.854588,13.906156 5.884855,13.906097 5.900088,14.102828 5.905872,14.119185 5.894089,14.256976 5.886013,14.371898 5.883768,14.391476 5.883768,16.049077 5.88617,16.07168 5.897673,16.095577 5.919915,16.274534 5.884612,16.416708 5.673359,16.416493 5.571959,16.416521 5.469287,16.416672 5.207591,16.416697 5.207448,16.512152 5.019796,16.512153 4.874592,16.511812 4.874818,16.448167 4.874527,16.380562 4.874947,16.321978 4.759803,16.321776 4.740225,16.321717 3.082625,16.321717 3.060022,16.321648 2.952888,16.32162 2.952943,16.382125 2.95285,16.448166 2.953113,16.451266 2.953181,16.511721 2.822096,16.512025 2.820901,16.512231 2.619681,16.51202 2.619681,16.465674 2.620024,16.312605 2.619892,16.178609 2.683534,16.178852 2.74742,16.178852 2.749577,16.17876 2.810082,16.178814 2.810055,16.07168 2.809985,16.049076 2.809985,14.391476 2.809924,14.371897 2.809724,14.256753 2.751137,14.257177 2.747421,14.256884 2.683535,14.256884 2.680436,14.257089 2.619891,14.25711 2.61955,14.111904 2.61955,13.924252 2.715002,13.924076 2.71503,13.662412 2.715181,13.559741 2.715209,13.458341 2.714992,13.247091 2.857168,13.211786" style="fill: white" />
</svg>
