<svg width="19.131698" height="19.131699">
<polygon type="contour" points="9.679071,8.662767 9.711101,8.663625 9.711101,8.746987 10.164306,8.746987 10.164832,8.663481 10.253558,8.663894 10.469787,8.661915 10.468634,8.722899 10.468531,8.734144 10.468054,8.899278 10.467844,8.967388 10.384714,8.967065 10.384714,9.420602 10.472628,9.420602 10.472056,9.53893 10.471829,9.56565 10.472381,9.680514 10.472628,9.711102 10.384714,9.711102 10.384714,10.164247 10.467844,10.164316 10.468054,10.232425 10.468531,10.397559 10.468634,10.408804 10.469787,10.469789 10.253558,10.46781 10.164831,10.468223 10.164115,10.384715 9.711101,10.384715 9.711101,10.468077 9.69461,10.468434 9.565501,10.471816 9.452474,10.468935 9.4206,10.468077 9.4206,10.384715 8.967394,10.384715 8.966869,10.468223 8.878142,10.46781 8.661913,10.469789 8.663065,10.408804 8.663168,10.397559 8.663645,10.232425 8.663856,10.164316 8.746985,10.164638 8.746985,9.711102 8.659071,9.711102 8.659643,9.592773 8.659871,9.566202 8.659319,9.451337 8.659072,9.420602 8.746985,9.420602 8.746985,8.967456 8.663856,8.967387 8.663645,8.899278 8.663168,8.734144 8.663065,8.722899 8.661913,8.661915 8.878142,8.663894 8.966869,8.663481 8.967585,8.746987 9.4206,8.746987 9.4206,8.663625 9.43709,8.663267 9.565651,8.659888" style="fill: white" />
</svg>
