<svg width="19.131698" height="19.131699">
<polygon type="contour" points="8.261509,8.025784 8.262238,8.063191 8.262566,8.096694 8.262566,8.156868 8.320715,8.156868 8.349834,8.156781 8.349867,8.186212 8.349867,8.320717 8.349834,8.347456 8.349834,8.349837 8.320716,8.34987 8.18621,8.34987 8.159159,8.349837 8.156778,8.349837 8.156769,8.347815 8.156866,8.320717 8.156866,8.262568 8.050245,8.262568 7.989732,8.262734 7.989566,8.092697 7.989129,8.018689 7.988399,7.988402 8.004431,7.988961 8.2601,7.986905" style="fill: white" /><polygon type="contour" points="10.971857,10.781868 10.974238,10.781868 10.974244,10.783887 10.974329,10.810985 10.974329,10.869135 11.081455,10.869135 11.141969,10.868968 11.142134,11.039006 11.142572,11.113015 11.143301,11.143302 11.127268,11.142743 10.8716,11.144799 10.87019,11.105919 10.869462,11.068513 10.869133,11.035009 10.869133,10.974331 10.810984,10.974331 10.781867,10.97424 10.781834,10.944984 10.781834,10.810984 10.781867,10.784248 10.781867,10.781868 10.810983,10.781835 10.944982,10.781835" style="fill: white" /><polygon type="contour" points="8.347454,10.781868 8.349834,10.781868 8.349867,10.810984 8.349867,10.944984 8.349834,10.971859 8.349834,10.97424 8.347813,10.974246 8.320715,10.974331 8.262566,10.974331 8.262566,11.035009 8.262238,11.068512 8.2601,11.144799 8.004431,11.142743 7.988399,11.143302 7.989022,11.125283 7.989566,11.039005 7.989732,10.868968 8.008335,10.868906 8.050245,10.869135 8.156866,10.869135 8.156866,10.810984 8.156778,10.781868 8.186211,10.781835 8.320715,10.781835" style="fill: white" /><polygon type="contour" points="8.349775,9.758401 8.349747,9.875229 8.349747,10.153088 8.349834,10.184498 8.349834,10.186671 8.320715,10.186825 8.18621,10.186825 8.159159,10.186672 8.156778,10.186672 8.156769,10.184791 8.157169,10.103976 8.044198,10.103976 7.989838,10.103764 7.989778,9.977097 7.989622,9.884456 7.989707,9.811295 8.064448,9.811467 8.156835,9.811467 8.156835,9.758402 8.156782,9.748584 8.18621,9.74863 8.320715,9.74863 8.347311,9.748584 8.349848,9.748584" style="fill: white" /><polygon type="contour" points="8.347453,8.945029 8.349834,8.945029 8.349747,8.978614 8.349747,9.256472 8.349775,9.3733 8.349833,9.38106 8.349848,9.383134 8.320715,9.383071 8.186211,9.383071 8.159318,9.383134 8.156782,9.383134 8.156835,9.373299 8.156835,9.320237 8.064448,9.320237 7.989707,9.320408 7.989816,9.064209 7.989838,9.02794 8.004001,9.027867 8.044198,9.027729 8.157142,9.027729 8.156778,8.945029 8.18621,8.944877 8.320716,8.944877" style="fill: white" /><polygon type="contour" points="9.875227,8.945016 10.153086,8.945016 10.184497,8.945029 10.186671,8.945029 10.186685,8.978613 10.186685,9.256473 10.186706,9.373299 10.186671,9.38106 10.186668,9.383134 10.153087,9.383016 9.875227,9.383016 9.758399,9.383069 9.750763,9.383134 9.748564,9.383134 9.748629,9.3733 9.748684,9.256472 9.748684,8.978614 9.748565,8.947331 9.748565,8.945032 9.758399,8.944994" style="fill: white" /><polygon type="contour" points="9.381057,8.945029 9.383114,8.945032 9.383013,8.978614 9.383013,9.256472 9.383067,9.373299 9.383114,9.380935 9.383114,9.383133 9.373296,9.383068 9.256471,9.383016 8.978611,9.383016 8.947328,9.383134 8.945029,9.383134 8.944991,9.3733 8.945013,9.256472 8.945013,8.978614 8.945026,8.947202 8.945026,8.945029 8.97861,8.945016 9.25647,8.945016 9.373297,8.944994" style="fill: white" /><polygon type="contour" points="9.318611,7.986334 9.319595,8.025398 9.320021,8.063108 9.320236,8.082551 9.320236,8.156838 9.373296,8.156838 9.383114,8.156785 9.383068,8.186213 9.383068,8.320718 9.383114,8.347313 9.383114,8.349851 9.373297,8.349778 9.25647,8.34975 8.978611,8.34975 8.947199,8.349837 8.945026,8.349837 8.944874,8.320717 8.944874,8.186212 8.945026,8.159162 8.945026,8.156781 8.946906,8.156772 9.027727,8.157172 9.027727,8.044199 9.027939,7.989839 9.211553,7.98774 9.299341,7.98633" style="fill: white" /><polygon type="contour" points="9.920146,7.98774 10.103761,7.989839 10.103834,8.004001 10.103974,8.0442 10.104103,8.063369 10.104103,8.157144 10.186671,8.156781 10.186824,8.186212 10.186824,8.320717 10.186671,8.347456 10.186671,8.349837 10.153086,8.34975 9.875227,8.34975 9.758399,8.349778 9.750638,8.349836 9.748565,8.349851 9.748629,8.320718 9.748629,8.186213 9.748565,8.159321 9.748565,8.156785 9.7584,8.156838 9.811464,8.156838 9.811464,8.082551 9.811679,8.063108 9.813089,7.986334 9.832358,7.98633" style="fill: white" /><polygon type="contour" points="11.127268,7.988961 11.143301,7.988402 11.142679,8.00642 11.142134,8.092697 11.141968,8.262734 11.123364,8.262796 11.081454,8.262568 10.974329,8.262568 10.974329,8.320718 10.974238,8.349837 10.944983,8.34987 10.810983,8.34987 10.784247,8.349837 10.781867,8.349837 10.781834,8.320717 10.781834,8.186213 10.781867,8.159161 10.781867,8.156781 10.783887,8.156771 10.810983,8.156868 10.869133,8.156868 10.869133,8.096694 10.869462,8.063191 10.8716,7.986905" style="fill: white" /><polygon type="contour" points="10.971856,8.945029 10.974238,8.945029 10.974245,8.94691 10.974433,9.027729 11.087502,9.027729 11.141862,9.02794 11.141922,9.154607 11.142078,9.247247 11.141993,9.320409 11.067251,9.320237 10.974241,9.320237 10.974241,9.373299 10.974235,9.383134 10.944983,9.383071 10.810983,9.383071 10.78439,9.383134 10.781853,9.383134 10.781925,9.373299 10.781954,9.256473 10.781954,8.978614 10.781867,8.947202 10.781867,8.945029 10.810983,8.944877 10.944983,8.944877" style="fill: white" /><polygon type="contour" points="10.974241,9.758401 10.974241,9.811467 11.067251,9.811467 11.141993,9.811295 11.141884,10.067495 11.141862,10.103764 11.127699,10.103837 11.087501,10.103976 10.974437,10.103976 10.974238,10.186672 10.944983,10.186825 10.810984,10.186825 10.784246,10.186672 10.781867,10.186672 10.781954,10.153088 10.781954,9.875228 10.781925,9.758402 10.781866,9.750639 10.781853,9.748584 10.810984,9.74863 10.944983,9.74863 10.971698,9.748584 10.974235,9.748584" style="fill: white" /><polygon type="contour" points="10.186706,9.758402 10.186685,9.875228 10.186685,10.153088 10.186671,10.184497 10.186671,10.186672 10.153087,10.186686 9.875227,10.186686 9.758399,10.186707 9.750638,10.186672 9.748565,10.186669 9.748684,10.153089 9.748684,9.875229 9.74863,9.758402 9.748565,9.750765 9.748565,9.748584 9.758399,9.748632 9.875227,9.748686 10.153086,9.748686 10.184368,9.748584 10.186668,9.748584" style="fill: white" /><polygon type="contour" points="9.383067,9.758401 9.383013,9.875229 9.383013,10.153088 9.383114,10.184369 9.383114,10.186669 9.373296,10.186708 9.25647,10.186686 8.97861,10.186686 8.9472,10.186672 8.945026,10.186672 8.945013,10.153088 8.945013,9.875229 8.944991,9.758401 8.945025,9.75064 8.945028,9.748584 8.978611,9.748686 9.25647,9.748686 9.373296,9.748632 9.380932,9.748584 9.383114,9.748584" style="fill: white" /><polygon type="contour" points="9.758399,10.781927 9.875227,10.781955 10.153086,10.781955 10.184497,10.781868 10.186671,10.781868 10.186824,10.810985 10.186824,10.944984 10.186671,10.971859 10.186671,10.97424 10.184789,10.974247 10.103974,10.974435 10.103974,11.087504 10.103761,11.141865 9.920146,11.143963 9.832358,11.145373 9.813089,11.145369 9.812103,11.106305 9.811679,11.068596 9.811464,11.049152 9.811464,10.974243 9.758399,10.974243 9.748565,10.974237 9.748629,10.944984 9.748629,10.810984 9.748565,10.784391 9.748565,10.781854" style="fill: white" /><polygon type="contour" points="9.383068,10.810985 9.383068,10.944984 9.383114,10.9717 9.383114,10.974237 9.373297,10.974243 9.320236,10.974243 9.320236,11.049152 9.320021,11.068595 9.318611,11.145369 9.299341,11.145373 9.211553,11.143963 9.027939,11.141865 9.027866,11.127702 9.027726,11.087503 9.027598,11.068334 9.027598,10.974439 8.945026,10.97424 8.944874,10.944985 8.944874,10.810984 8.945026,10.784248 8.945026,10.781868 8.978611,10.781955 9.25647,10.781955 9.373297,10.781927 9.381058,10.781867 9.383114,10.781854" style="fill: white" />
</svg>
