<svg width="19.131698" height="19.131699">
<polygon type="contour" points="6.302684,12.616293 6.302684,12.616121 6.331925,12.616121 6.515811,12.615891 6.515811,12.649732 6.515484,12.904181 6.515581,12.90418 6.515581,12.920862 6.515811,13.023455 6.487579,13.023526 6.227151,13.023671 6.227151,13.165538 6.227113,13.198313 6.138125,13.197789 6.066675,13.197909 5.930805,13.200897 5.932856,13.139664 5.930329,12.907335 6.108029,12.90419 6.108176,12.644123 6.108247,12.615891 6.127553,12.615891" style="fill: white" /><polygon type="contour" points="7.7175,12.616106 7.786793,12.616106 8.052246,12.615891 8.052136,12.644122 8.052289,12.828913 8.05061,12.828913 8.052381,12.940657 8.051282,13.019965 8.048727,13.200781 7.865372,13.198668 7.78411,13.197966 7.77833,13.198113 7.761708,13.198188 7.761708,13.192568 7.761739,13.178262 7.761739,13.022937 7.69361,13.02298 7.435894,13.023455 7.435894,13.004148 7.435664,12.904181 7.435664,12.799774 7.435894,12.615891 7.480498,12.615891" style="fill: white" /><polygon type="contour" points="7.717522,11.080197 7.778435,11.079167 7.844849,11.08076 7.943716,11.088732 8.043738,11.087962 8.050939,11.28685 8.052536,11.353268 8.051505,11.414181 8.052574,11.414181 8.052631,11.438092 8.052246,11.695808 8.005421,11.695808 7.761714,11.696243 7.693611,11.696243 7.435894,11.695807 7.435894,11.651203 7.435459,11.414201 7.435459,11.34491 7.435894,11.079452 7.471384,11.079576 7.717522,11.079129" style="fill: white" /><polygon type="contour" points="6.515811,11.079452 6.515811,11.126276 6.515595,11.369989 6.515595,11.438092 6.515811,11.695808 6.481968,11.695808 6.302684,11.696037 6.210835,11.696037 6.108247,11.695808 6.108257,11.660317 6.108823,11.369991 5.943432,11.369991 5.939134,11.369995 5.933516,11.369995 5.933591,11.353372 5.933757,11.347452 5.93313,11.26588 5.931084,11.083029 6.111336,11.080462 6.190842,11.079335 6.302787,11.081164 6.302786,11.079413 6.331925,11.079321" style="fill: white" /><polygon type="contour" points="6.227113,5.933392 6.227113,5.943069 6.227151,5.966166 6.227151,6.108032 6.487578,6.108178 6.515811,6.108248 6.515811,6.127554 6.515408,6.302686 6.515581,6.302686 6.515581,6.331927 6.515811,6.515813 6.481969,6.515813 6.227517,6.515486 6.227518,6.515583 6.210835,6.515583 6.108247,6.515813 6.108176,6.48758 6.108029,6.227511 5.930329,6.224368 5.932856,5.99204 5.930805,5.930806 6.028975,5.920081" style="fill: white" /><polygon type="contour" points="6.515811,7.435897 6.515811,7.480501 6.515595,7.717501 6.515595,7.786794 6.515811,8.052248 6.331926,8.052382 6.302787,8.052291 6.302787,8.050504 6.191041,8.052382 6.111735,8.051284 5.930919,8.048729 5.933737,7.784112 5.93359,7.778331 5.933516,7.761709 5.939135,7.761709 5.953585,7.761717 6.108764,7.761717 6.108722,7.693611 6.108247,7.435897 6.127553,7.435897 6.227517,7.435667 6.331925,7.435667" style="fill: white" /><polygon type="contour" points="8.052246,7.435897 8.052122,7.471386 8.052574,7.717523 8.051505,7.717523 8.052536,7.778436 8.05094,7.844852 8.042968,7.943717 8.043738,8.04374 7.848537,8.040659 7.758891,8.05265 7.471383,8.052125 7.435894,8.052249 7.435894,8.005423 7.43538,7.717502 7.435459,7.761716 7.435459,7.693612 7.435894,7.435897 7.480499,7.435897 7.7175,7.435461 7.786793,7.435461" style="fill: white" /><polygon type="contour" points="8.051239,6.111339 8.052366,6.190844 8.050536,6.302789 8.052289,6.302788 8.05238,6.331928 8.052246,6.515813 8.005421,6.515813 7.761715,6.515598 7.693611,6.515598 7.435894,6.515813 7.435894,6.481971 7.435664,6.302686 7.435664,6.210838 7.435894,6.108248 7.471384,6.108258 7.761713,6.108825 7.761713,5.943433 7.761708,5.939135 7.761708,5.933516 7.77833,5.933591 7.784249,5.933759 7.86582,5.93313 8.048672,5.931086" style="fill: white" /><polygon type="contour" points="13.198845,5.99204 13.201372,6.224368 13.02367,6.227511 13.023524,6.487581 13.023453,6.515813 13.004147,6.515813 12.829014,6.51541 12.829014,6.515583 12.799773,6.515583 12.615889,6.515813 12.615889,6.48197 12.616215,6.227519 12.616119,6.22752 12.616119,6.210838 12.615889,6.108248 12.644121,6.108178 12.904548,6.108032 12.904547,5.966165 12.904585,5.933392 12.993574,5.933915 13.065023,5.933795 13.200895,5.930806" style="fill: white" /><polygon type="contour" points="11.34759,5.933738 11.353369,5.933591 11.369992,5.933516 11.369992,5.939136 11.369961,5.953442 11.369961,6.108825 11.660316,6.108258 11.695807,6.108248 11.695807,6.127554 11.696036,6.227519 11.696036,6.331927 11.695806,6.515813 11.651201,6.515813 11.414199,6.515598 11.344907,6.515598 11.079451,6.515813 11.079318,6.331928 11.079411,6.302789 11.081086,6.302789 11.079319,6.191042 11.080418,6.111738 11.082974,5.930921" style="fill: white" /><polygon type="contour" points="11.695807,7.435897 11.695807,7.480502 11.696241,7.717502 11.696241,7.786793 11.695807,8.052249 11.660317,8.052125 11.414178,8.052575 11.414178,8.051506 11.353265,8.052537 11.087961,8.043739 11.091043,7.848539 11.07905,7.758894 11.079575,7.471387 11.079451,7.435897 11.126275,7.435897 11.369985,7.435461 11.438089,7.435461" style="fill: white" /><polygon type="contour" points="12.829016,7.435667 12.920864,7.435667 13.023453,7.435897 13.023444,7.471386 13.022876,7.761714 13.188268,7.761714 13.192566,7.761709 13.198185,7.761709 13.19811,7.778331 13.197943,7.78425 13.200616,8.048674 13.020364,8.05124 12.940855,8.052368 12.828911,8.050538 12.828911,8.052291 12.799772,8.052382 12.615889,8.052249 12.615889,8.005423 12.616105,7.761716 12.616105,7.693611 12.615889,7.435897 12.64973,7.435897 12.829016,7.435666" style="fill: white" /><polygon type="contour" points="13.019965,11.08042 13.200781,11.082976 13.198666,11.266329 13.197964,11.347591 13.19811,11.353372 13.198185,11.369995 13.192565,11.369995 13.178115,11.369987 13.022876,11.369987 13.023444,11.660317 13.023453,11.695808 13.004146,11.695808 12.904182,11.696038 12.799774,11.696038 12.615889,11.695807 12.615889,11.651203 12.616105,11.414201 12.616105,11.34491 12.615889,11.079451 12.644121,11.079561 12.828912,11.079413 12.828912,11.081199 12.940656,11.079321" style="fill: white" /><polygon type="contour" points="11.660316,11.079576 11.695807,11.079452 11.695807,11.126276 11.696241,11.369988 11.696241,11.438092 11.695807,11.695808 11.651201,11.695808 11.414198,11.696243 11.344907,11.696243 11.079451,11.695808 11.079575,11.660318 11.079126,11.414181 11.080194,11.414181 11.079164,11.353267 11.087961,11.087962 11.283164,11.091045 11.372805,11.079053" style="fill: white" /><polygon type="contour" points="11.369985,12.616106 11.438088,12.616106 11.695807,12.615891 11.695807,12.649733 11.696036,12.829014 11.696036,12.920862 11.695807,13.023455 11.660316,13.023446 11.369988,13.022878 11.369988,13.188271 11.369992,13.192569 11.369992,13.198188 11.353369,13.198113 11.347449,13.197946 11.083027,13.200618 11.080461,13.020365 11.079333,12.940857 11.081162,12.828912 11.079411,12.828912 11.079319,12.799773 11.079451,12.615891 11.126276,12.615891" style="fill: white" /><polygon type="contour" points="12.90418,12.616217 12.904179,12.616121 12.920861,12.616121 13.023453,12.615891 13.023524,12.644122 13.02367,12.90419 13.201372,12.907335 13.198845,13.139663 13.200895,13.200897 13.102726,13.211623 12.904585,13.198313 12.904585,13.188634 12.904547,13.165537 12.904547,13.023671 12.64412,13.023526 12.615889,13.023455 12.615889,13.004148 12.616291,12.829015 12.616119,12.829015 12.616119,12.799774 12.615889,12.615891 12.64973,12.615891" style="fill: white" />
</svg>
