<svg width="19.131698" height="19.131699">
<polygon type="contour" points="11.217226,10.697788 11.246618,10.697664 11.246589,10.952957 11.246589,10.990015 11.246579,10.990015 11.246618,11.211425 11.246618,11.24662 11.071382,11.246591 11.046299,11.246591 11.046299,11.246584 10.749655,11.24662 10.697663,11.24662 10.697502,11.071385 10.697683,11.016437 10.698208,10.97671 10.701791,10.939621 10.705325,10.705327 10.976709,10.698209 11.025757,10.697561" style="fill: white" /><polygon type="contour" points="11.247024,12.34778 11.246977,12.360285 11.246618,12.456489 11.246618,12.476967 11.217225,12.477184 10.990058,12.476308 10.990058,12.650353 10.928579,12.649689 10.865333,12.649945 10.699793,12.651828 10.697479,12.393387 10.698547,12.333119 10.697633,12.333119 10.697841,12.117396 10.697663,12.082082 10.952955,12.082175 10.990013,12.082175 10.990013,12.082206 11.211424,12.082082 11.246618,12.082082" style="fill: white" /><polygon type="contour" points="12.456487,12.082082 12.476965,12.082082 12.477207,12.117395 12.476787,12.361693 12.652625,12.363338 12.650759,12.491807 12.653737,12.570915 12.657314,12.657316 12.477547,12.650434 12.381114,12.64963 12.360692,12.649906 12.360692,12.47679 12.117393,12.477208 12.08208,12.476966 12.081767,12.35607 12.08208,12.126104 12.08208,12.082082 12.347778,12.081763" style="fill: white" /><polygon type="contour" points="12.652046,10.700071 12.649714,10.862711 12.649771,10.927035 12.650335,10.966059 12.650351,10.99006 12.476307,10.99006 12.477182,11.217227 12.476966,11.24662 12.356069,11.247018 12.333099,11.246979 12.126102,11.24662 12.08208,11.24662 12.082172,11.071385 12.082172,11.0463 12.082193,11.0463 12.08208,10.749657 12.08208,10.697664 12.117393,10.697841 12.333117,10.697635 12.333117,10.698123 12.394438,10.697538" style="fill: white" /><polygon type="contour" points="12.650759,6.639895 12.652625,6.768364 12.476786,6.7693 12.477207,7.014308 12.476965,7.049621 12.356069,7.049934 12.126102,7.049622 12.08208,7.049622 12.081761,6.783923 12.08208,6.675214 12.08208,6.654736 12.117394,6.654494 12.360689,6.654913 12.360688,6.481826 12.381113,6.482074 12.477548,6.48127 12.560849,6.477631 12.657314,6.474389" style="fill: white" /><polygon type="contour" points="12.456488,7.885085 12.476966,7.885085 12.477182,7.914476 12.476307,8.141644 12.650351,8.141644 12.649688,8.203122 12.649945,8.266368 12.651829,8.43191 12.393387,8.434223 12.333117,8.433154 12.333117,8.434069 12.117393,8.433862 12.08208,8.43404 12.082172,8.178746 12.082172,8.141689 12.082203,8.141689 12.08208,7.920277 12.08208,7.885085 12.347778,7.884677" style="fill: white" /><polygon type="contour" points="11.246589,8.06032 11.246589,8.085404 11.246582,8.085404 11.246618,8.382047 11.246618,8.43404 11.217226,8.433916 11.025757,8.434142 10.976708,8.433495 10.939619,8.429911 10.705325,8.426377 10.706935,8.214415 10.701791,8.192082 10.698208,8.154993 10.69756,8.105945 10.697787,7.914475 10.697663,7.885085 10.952955,7.885114 10.990013,7.885114 10.990013,7.885123 11.211423,7.885085 11.246618,7.885085" style="fill: white" /><polygon type="contour" points="10.863104,6.481589 10.927033,6.481931 10.966057,6.481367 10.990046,6.481322 10.989892,6.655396 11.217225,6.65452 11.246617,6.654737 11.247016,6.775632 11.246618,7.005598 11.246618,7.049621 11.071383,7.049529 11.046299,7.049529 11.046299,7.049507 10.749656,7.049622 10.697663,7.049622 10.697841,7.014307 10.697633,6.798585 10.698121,6.798585 10.697536,6.737263 10.700069,6.479657" style="fill: white" /><polygon type="contour" points="6.654205,6.48115 6.750585,6.482075 6.771008,6.481798 6.771008,6.654914 7.014307,6.654495 7.04962,6.654737 7.049932,6.775632 7.04962,7.005598 7.04962,7.049622 6.783921,7.04994 6.675212,7.049622 6.654735,7.049622 6.654493,7.014308 6.654914,6.7693 6.479076,6.768364 6.480942,6.639895 6.477963,6.560789 6.474386,6.474389" style="fill: white" /><polygon type="contour" points="8.434221,6.738314 8.433152,6.798585 8.434067,6.798585 8.43386,7.014308 8.434038,7.049622 8.178745,7.049529 8.141687,7.049529 8.141687,7.049497 7.920275,7.049622 7.885083,7.049622 7.884675,6.783923 7.885083,6.675215 7.885083,6.654737 7.914474,6.65452 8.141643,6.655395 8.141643,6.481351 8.203119,6.482014 8.266366,6.481755 8.431908,6.479872" style="fill: white" /><polygon type="contour" points="8.433913,7.914476 8.434162,8.125469 8.427765,8.335042 8.426375,8.426377 8.214415,8.424765 8.19208,8.42991 8.154991,8.433495 8.105943,8.434142 7.914473,8.433916 7.885083,8.43404 7.885112,8.178746 7.885112,8.141688 7.885121,8.141688 7.885083,7.920278 7.885083,7.885085 8.060318,7.885114 8.085402,7.885114 8.085402,7.88512 8.382045,7.885085 8.434037,7.885085" style="fill: white" /><polygon type="contour" points="7.005598,7.885085 7.04962,7.885085 7.049528,8.060319 7.049528,8.085404 7.049506,8.085404 7.04962,8.382046 7.04962,8.43404 7.014307,8.433862 6.798583,8.434069 6.798583,8.43358 6.737261,8.434166 6.479655,8.431632 6.481589,8.268597 6.481929,8.204668 6.481365,8.165644 6.481349,8.141644 6.655392,8.141644 6.654518,7.914476 6.654735,7.885085 6.77563,7.884685" style="fill: white" /><polygon type="contour" points="6.798583,10.698549 6.798583,10.697635 7.014307,10.697842 7.04962,10.697664 7.049528,10.952957 7.049528,10.990015 7.049496,10.990014 7.04962,11.211426 7.04962,11.24662 6.783921,11.247026 6.675212,11.24662 6.654735,11.24662 6.654518,11.217227 6.655392,10.99006 6.481349,10.99006 6.482012,10.928581 6.481753,10.865336 6.47987,10.699795 6.738312,10.697481" style="fill: white" /><polygon type="contour" points="8.13207,10.69774 8.33504,10.703938 8.426375,10.705327 8.433492,10.976711 8.434139,11.025751 8.433914,11.217227 8.434038,11.24662 8.178745,11.246591 8.141687,11.246591 8.141687,11.246581 7.920276,11.24662 7.885083,11.24662 7.885112,11.071384 7.885112,11.046301 7.885118,11.046301 7.885083,10.749656 7.885083,10.697664 8.060317,10.697503" style="fill: white" /><polygon type="contour" points="8.060317,12.082175 8.085402,12.082175 8.085402,12.082196 8.382044,12.082083 8.434038,12.082083 8.43386,12.117396 8.434067,12.333119 8.433578,12.333119 8.434164,12.394439 8.43163,12.652047 8.268595,12.650111 8.204667,12.649772 8.165642,12.650337 8.141655,12.650382 8.141808,12.476307 7.914474,12.477184 7.885083,12.476967 7.884683,12.35607 7.884723,12.333101 7.885083,12.126103 7.885083,12.082082" style="fill: white" /><polygon type="contour" points="7.005597,12.082082 7.04962,12.082082 7.049938,12.34778 7.04962,12.456489 7.04962,12.476967 7.014307,12.477209 6.771011,12.47679 6.771011,12.649878 6.750585,12.64963 6.654152,12.650433 6.57085,12.654073 6.474386,12.657316 6.480942,12.491807 6.479076,12.363338 6.654913,12.361693 6.654493,12.117395 6.654735,12.082082 6.77563,12.081769" style="fill: white" />
</svg>
