<svg width="19.131698" height="19.131699">
<polygon type="contour" points="3.919415,3.621352 3.954632,3.621434 3.954138,3.716239 5.876029,3.716239 5.875997,3.621299 5.932744,3.621166 6.209062,3.621166 6.209237,3.715012 6.209244,3.716544 6.209237,3.723455 6.209207,3.727289 6.209165,3.740601 6.209165,3.811399 6.262941,3.811227 6.266645,3.811175 6.43469,3.811735 6.435206,3.811743 6.43625,3.811747 6.436045,4.361546 6.436533,6.0693 6.42197,6.069438 6.252642,6.068601 6.23742,6.068666 6.227103,6.068536 6.225602,6.0685 6.218739,6.068699 6.217191,6.06846 6.212752,6.068796 6.210081,6.068698 6.190276,6.068808 6.177605,6.069302 6.071184,6.071186 6.068805,6.190278 6.068851,6.209333 6.068319,6.210028 6.068665,6.237422 6.068598,6.252644 6.068637,6.266854 6.068637,6.271128 6.068802,6.285352 6.068722,6.30083 6.069042,6.383462 6.069008,6.389271 6.069235,6.405461 6.069229,6.421174 6.06948,6.433229 6.0693,6.436534 4.361544,6.436047 3.811672,6.436303 3.811736,6.435301 3.811173,6.266646 3.811227,6.262943 3.811396,6.209167 3.740599,6.209167 3.727288,6.20921 3.723457,6.209279 3.716542,6.209245 3.71501,6.209239 3.71297,6.209203 3.621164,6.209065 3.621164,5.932747 3.621297,5.875999 3.716238,5.876338 3.716238,3.954532 3.621297,3.9545 3.621497,3.751962 3.621358,3.689606 3.621358,3.62136 3.917656,3.62105" style="fill: white" /><polygon type="contour" points="6.073722,8.414996 6.074662,8.740081 6.074662,8.774234 6.075193,8.908009 6.075446,9.004988 6.07554,9.118233 6.075574,9.128823 6.076067,9.258768 6.076429,9.39608 6.076429,9.524649 6.076493,9.540488 6.077271,9.549742 6.077271,9.566202 6.076494,9.591485 6.076429,9.607265 6.076429,9.735834 6.076067,9.872935 6.075574,10.00288 6.075446,10.126715 6.075193,10.223694 6.074662,10.357469 6.074662,10.391622 6.074375,10.542869 6.073722,10.716709 6.038517,10.716709 6.021638,10.716744 3.845461,10.716744 3.81163,10.716724 3.811651,10.699787 3.81151,10.678074 3.811672,10.667322 3.81151,10.665255 3.81155,10.164296 3.811588,10.132888 3.811588,10.123226 3.811634,10.050618 3.811634,8.984105 3.811496,8.972365 3.811593,8.945261 3.811707,8.883713 3.811564,8.770635 3.811666,8.581242 3.81163,8.414981 3.836525,8.414996 3.845462,8.414961 6.021639,8.414961" style="fill: white" /><polygon type="contour" points="6.062916,7.867291 6.072601,7.867294 6.072604,7.874545 6.072606,7.876857 6.072627,7.877899 6.072588,7.884849 6.072316,7.910349 6.072838,8.080788 6.073229,8.081399 6.072907,8.081335 6.073291,8.093731 3.953835,8.09283 3.811594,8.092879 3.811744,7.993653 3.811641,7.974357 3.811422,7.92768 3.811408,7.892729 3.811379,7.88871 3.811425,7.879108 3.811448,7.874763 3.811411,7.874112 3.811422,7.867294 3.817017,7.867294 3.820061,7.867286 3.840176,7.867241 6.028487,7.867241" style="fill: white" /><polygon type="contour" points="6.061579,7.312891 6.071205,7.312883 6.071208,7.319447 6.071233,7.320773 6.071211,7.323339 6.071203,7.32442 6.071239,7.331913 6.071232,7.340494 6.071375,7.34888 6.071391,7.392761 6.071319,7.46232 6.071428,7.496046 6.02206,7.49647 6.022049,7.545932 4.362055,7.545546 3.811745,7.54575 3.811744,7.443254 3.81164,7.423473 3.81151,7.378047 3.811445,7.340495 3.811508,7.336209 3.811411,7.325779 3.811438,7.32108 3.811426,7.320309 3.811428,7.318779 3.811437,7.312883 3.81511,7.312883 3.820061,7.312843 3.840175,7.312841 6.027254,7.312841" style="fill: white" /><polygon type="contour" points="6.060245,6.757791 6.069805,6.757802 6.069811,6.759745 6.070143,6.761013 6.070139,6.772164 6.070182,6.772436 6.07016,6.777605 6.070092,6.784366 6.07006,6.786905 6.070129,6.804596 6.070081,6.822211 6.070239,6.838649 6.070234,6.857525 6.070111,6.925302 6.070366,6.991301 4.22443,6.990508 3.811139,6.990701 3.811422,6.894112 3.811375,6.874084 3.81151,6.822948 3.811445,6.785395 3.811508,6.781108 3.81141,6.770745 3.811438,6.76598 3.811427,6.765211 3.811419,6.763553 3.811443,6.762652 3.811425,6.75779 3.820061,6.757786 3.840176,6.757742 6.026022,6.757742" style="fill: white" /><polygon type="contour" points="6.990507,4.224432 6.9913,6.070368 6.971762,6.070181 6.945773,6.070471 6.937186,6.070197 6.925947,6.070342 6.912925,6.070212 6.911434,6.07031 6.906545,6.070553 6.906109,6.070659 6.904468,6.070676 6.901409,6.070722 6.7578,6.069808 6.7578,6.065409 6.757789,6.060246 6.757739,6.026024 6.757739,3.840177 6.757784,3.820062 6.757787,3.811426 6.759742,3.811432 6.76265,3.811445 6.763678,3.811429 6.765207,3.811428 6.765979,3.811439 6.770615,3.811448 6.773751,3.811475 6.781106,3.81151 6.785392,3.811446 6.822947,3.811511 6.874081,3.811377 6.894111,3.811423 6.901366,3.811439 6.90309,3.811277 6.990699,3.811139" style="fill: white" /><polygon type="contour" points="7.545608,4.224688 7.546033,6.071768 7.462316,6.071321 7.402367,6.071339 7.348877,6.071377 7.340491,6.071233 7.331911,6.071242 7.324417,6.071205 7.323337,6.071214 7.32077,6.071234 7.32047,6.071211 7.31288,6.071209 7.31288,6.065312 7.312889,6.061583 7.312839,6.027257 7.312839,3.840176 7.312841,3.820062 7.31288,3.811439 7.31865,3.811421 7.320307,3.811427 7.321077,3.811439 7.32565,3.811448 7.32885,3.811475 7.336205,3.81151 7.340491,3.811446 7.378045,3.811512 7.429182,3.811376 7.448466,3.811327 7.456283,3.811439 7.458027,3.811278 7.5458,3.81114" style="fill: white" /><polygon type="contour" points="7.927676,3.811424 7.967733,3.81172 7.986381,3.811736 8.092875,3.8116 8.092828,3.953836 8.093729,6.073292 8.08672,6.073257 8.081337,6.072932 7.942701,6.072674 7.927677,6.072788 7.892725,6.072676 7.884846,6.072591 7.877895,6.072629 7.876853,6.072607 7.874542,6.072606 7.87411,6.072617 7.867291,6.072602 7.867291,6.064046 7.867288,6.062919 7.867239,6.028488 7.867239,3.840177 7.867283,3.820062 7.867291,3.811424 7.874109,3.811413 7.874761,3.811449 7.879106,3.811426 7.882021,3.81145 7.888707,3.811381 7.919309,3.81135" style="fill: white" /><polygon type="contour" points="10.188908,3.811777 10.247988,3.81171 10.352331,3.811518 10.550461,3.811668 10.716722,3.811632 10.716707,3.836527 10.716742,3.845464 10.716742,6.021641 10.716707,6.073724 10.591085,6.074091 10.589671,6.074088 10.563116,6.074314 10.542869,6.074376 10.333407,6.075045 10.072405,6.075542 10.061674,6.075576 9.922577,6.075942 9.864402,6.075942 9.735833,6.07643 9.607263,6.07643 9.591482,6.076497 9.582384,6.077273 9.566198,6.077273 9.540486,6.076497 9.524648,6.07643 9.396078,6.07643 9.258766,6.076068 9.128821,6.075576 8.774232,6.074664 8.740079,6.074664 8.664312,6.074377 8.58883,6.074377 8.568583,6.074314 8.542027,6.074088 8.540615,6.074091 8.414994,6.073724 8.414994,6.038519 8.414959,6.02164 8.414959,3.845463 8.414979,3.811632 8.431914,3.811654 8.453627,3.811512 8.464379,3.811673 8.466445,3.811511 8.967404,3.811551 8.998813,3.81159 9.010294,3.811589 9.082824,3.811635 10.149338,3.811635 10.159335,3.811499" style="fill: white" /><polygon type="contour" points="11.249678,3.81145 11.252593,3.811426 11.256938,3.811449 11.25759,3.811413 11.264409,3.811424 11.264409,3.817018 11.264416,3.820062 11.264461,3.840177 11.264461,6.028488 11.264412,6.062918 11.264409,6.072602 11.257589,6.072617 11.257157,6.072606 11.253803,6.072629 11.246852,6.07259 11.221352,6.072318 11.050912,6.072839 11.050301,6.073231 11.050302,6.07323 11.037969,6.073291 11.038897,4.110914 11.038792,3.811531 11.138562,3.811642 11.157344,3.811642 11.204022,3.811424 11.238974,3.81141 11.242992,3.811381" style="fill: white" /><polygon type="contour" points="11.753653,3.811511 11.791208,3.811446 11.795494,3.81151 11.802849,3.811475 11.806049,3.811448 11.810622,3.811439 11.811392,3.811428 11.812921,3.811429 11.81882,3.811439 11.81882,3.815111 11.818859,3.820062 11.818861,3.840176 11.818861,6.027256 11.818812,6.061582 11.81882,6.071209 11.811229,6.071211 11.810929,6.071235 11.807282,6.071205 11.799789,6.071242 11.791208,6.071234 11.782822,6.071377 11.738941,6.071393 11.669383,6.071321 11.635656,6.07143 11.635232,6.022062 11.58577,6.022051 11.586155,4.362057 11.5859,3.811673 11.682707,3.811422 11.702519,3.811377" style="fill: white" /><polygon type="contour" points="12.308752,3.811511 12.346307,3.811446 12.350593,3.81151 12.357948,3.811475 12.361084,3.811448 12.365721,3.811439 12.366491,3.811427 12.368148,3.811421 12.369049,3.811445 12.373913,3.811426 12.373916,3.820062 12.37396,3.840177 12.37396,6.026023 12.37391,6.060246 12.3739,6.069808 12.371958,6.069813 12.368054,6.069825 12.36796,6.069839 12.36649,6.069844 12.366028,6.069836 12.362381,6.069806 12.354803,6.069842 12.346306,6.069833 12.337342,6.069915 12.284431,6.069939 12.223597,6.070033 12.1404,6.070368 12.141255,4.361717 12.141,3.811673 12.237589,3.811422 12.257618,3.811377" style="fill: white" /><polygon type="contour" points="15.510341,3.62136 15.510341,3.689606 15.510202,3.751961 15.510402,3.9545 15.415462,3.954137 15.415462,5.876031 15.510403,5.876 15.510536,5.932747 15.510536,6.209065 15.416689,6.209239 15.415157,6.209245 15.408242,6.209279 15.404412,6.20921 15.3911,6.209167 15.319857,6.209167 15.320009,6.262943 15.320058,6.266646 15.319965,6.435327 15.320027,6.436303 14.770155,6.436047 13.0624,6.436534 13.062264,6.421972 13.063101,6.252644 13.063033,6.237422 13.063164,6.227105 13.063201,6.225604 13.063003,6.21874 13.063241,6.217193 13.062906,6.212754 13.063092,6.207664 13.062893,6.190278 13.0624,6.177606 13.060516,6.071186 12.941423,6.068808 12.922367,6.068853 12.921674,6.06832 12.894279,6.068665 12.880075,6.068784 12.709726,6.069438 12.695166,6.069301 12.695591,4.224303 12.695436,3.811189 12.696166,3.81113 12.696528,3.811125 12.865054,3.811175 12.868758,3.811227 12.922535,3.811399 12.922535,3.740601 12.922493,3.72729 12.922423,3.723459 12.922456,3.716544 12.922463,3.715012 12.922499,3.712972 12.922635,3.621166 13.198955,3.621166 13.255703,3.621299 13.255364,3.716239 15.177173,3.716239 15.177067,3.621434 15.212284,3.621352 15.214042,3.62105" style="fill: white" /><polygon type="contour" points="15.311638,6.757786 15.320274,6.75779 15.320268,6.759745 15.320257,6.762651 15.320281,6.763552 15.320273,6.765211 15.320262,6.76598 15.32029,6.770745 15.320192,6.781108 15.320255,6.785394 15.32019,6.822949 15.320325,6.874084 15.320278,6.894112 15.320342,6.900985 15.320261,6.903091 15.320251,6.920952 15.320559,6.990701 14.907267,6.990509 13.061334,6.991301 13.061521,6.971765 13.06123,6.945775 13.061503,6.937188 13.06136,6.925949 13.06149,6.912926 13.06139,6.911436 13.061147,6.906547 13.061042,6.906112 13.061023,6.90447 13.060979,6.901411 13.061893,6.757802 13.066291,6.757802 13.071455,6.75779 13.105677,6.757742 15.291523,6.757742" style="fill: white" /><polygon type="contour" points="15.311637,7.312843 15.320262,7.312883 15.320272,7.318779 15.320273,7.320309 15.320262,7.321081 15.32029,7.325779 15.320192,7.336209 15.320256,7.340494 15.32019,7.378047 15.320325,7.429184 15.320278,7.448994 15.320342,7.456084 15.320261,7.458029 15.320283,7.477223 15.320028,7.545802 14.769644,7.545547 13.059932,7.546036 13.060267,7.463204 13.060363,7.402369 13.060325,7.34888 13.060468,7.340494 13.060461,7.331913 13.060496,7.32442 13.060488,7.323339 13.060467,7.320773 13.060491,7.320468 13.060494,7.312883 13.066389,7.312883 13.07012,7.312891 13.104445,7.312841 15.291524,7.312841" style="fill: white" /><polygon type="contour" points="15.311638,7.867286 15.320277,7.867294 15.320288,7.874112 15.320251,7.874763 15.320274,7.879108 15.320321,7.88871 15.32035,7.919311 15.320277,7.92768 15.320059,7.974357 15.319956,7.993653 15.320106,8.092879 15.177864,8.09283 13.058409,8.093731 13.058863,7.946199 13.05907,7.900705 13.059025,7.892728 13.05911,7.884848 13.059073,7.877898 13.059095,7.876856 13.059096,7.874545 13.059084,7.874113 13.0591,7.867294 13.067655,7.867294 13.068783,7.86729 13.103212,7.867241 15.291523,7.867241" style="fill: white" /><polygon type="contour" points="15.320068,8.414981 15.320033,8.581241 15.320184,8.779371 15.320199,8.886481 15.319779,8.94526 15.320067,8.973893 15.320066,8.982364 15.32011,9.00808 15.320143,9.186476 15.32019,10.678074 15.320047,10.699788 15.320068,10.716724 15.295173,10.716709 15.286235,10.716744 13.11006,10.716744 13.057978,10.716709 13.057612,10.591085 13.057613,10.589673 13.057389,10.563119 13.057325,10.542869 13.057325,10.46739 13.056655,10.203155 13.05616,10.072407 13.056125,10.061676 13.05576,9.922578 13.05576,9.864404 13.055271,9.735834 13.055271,9.607265 13.055206,9.591485 13.054429,9.582386 13.054429,9.566201 13.055206,9.540489 13.055273,9.524648 13.055271,9.39608 13.055632,9.258768 13.056126,9.128823 13.057038,8.774234 13.057038,8.740081 13.057324,8.588834 13.057389,8.568585 13.057613,8.542029 13.057612,8.540617 13.057978,8.414996 13.093182,8.414996 13.110061,8.414961 15.286236,8.414961" style="fill: white" /><polygon type="contour" points="15.020784,11.038899 15.320168,11.038793 15.319827,11.138564 15.320059,11.157346 15.320277,11.204024 15.320291,11.238974 15.320321,11.242993 15.320275,11.252594 15.320251,11.256939 15.320288,11.257591 15.320277,11.26441 15.314682,11.26441 15.311638,11.264417 15.291523,11.264462 13.103213,11.264462 13.068783,11.264413 13.0591,11.26441 13.059095,11.257158 13.059095,11.254847 13.059073,11.253804 13.059111,11.246854 13.059125,11.220834 13.058862,11.050914 13.05847,11.050303 13.05847,11.050304 13.058409,11.037971" style="fill: white" /><polygon type="contour" points="14.769644,11.586156 15.320028,11.585902 15.320278,11.682708 15.320325,11.702521 15.32019,11.753656 15.320256,11.791208 15.320192,11.795494 15.32029,11.805924 15.320261,11.810623 15.320273,11.811393 15.320272,11.812922 15.320262,11.818821 15.31659,11.818821 15.311638,11.818861 15.291523,11.818862 13.104446,11.818862 13.07012,11.818813 13.060494,11.818821 13.060491,11.812256 13.060467,11.810929 13.060488,11.808364 13.060497,11.807282 13.060461,11.799791 13.060468,11.791209 13.060325,11.782823 13.060308,11.738943 13.060381,11.669384 13.060271,11.635657 13.109639,11.635233 13.10965,11.585771" style="fill: white" /><polygon type="contour" points="14.907267,12.141192 15.320559,12.141 15.320278,12.23759 15.320325,12.257619 15.32019,12.308753 15.320255,12.346308 15.320192,12.350594 15.32029,12.360957 15.320262,12.365722 15.320273,12.366491 15.320281,12.368149 15.320257,12.36905 15.320275,12.373914 15.311638,12.373917 15.291523,12.373961 13.105677,12.373961 13.071454,12.373911 13.061893,12.373901 13.061888,12.371959 13.061877,12.368064 13.061862,12.367962 13.061866,12.366029 13.061886,12.363405 13.061896,12.362382 13.061859,12.354804 13.061867,12.346307 13.061786,12.337343 13.061762,12.284432 13.061669,12.223598 13.061334,12.140401" style="fill: white" /><polygon type="contour" points="14.907396,12.695593 15.320559,12.695401 15.320568,12.696168 15.320574,12.696529 15.320058,12.865055 15.320007,12.86876 15.319865,12.922537 15.391099,12.922537 15.404412,12.922495 15.408242,12.922426 15.415157,12.922458 15.416689,12.922465 15.418729,12.922501 15.510536,12.922637 15.510536,13.198956 15.510403,13.255704 15.415462,13.255365 15.415462,15.177171 15.510403,15.177203 15.510202,15.379743 15.510341,15.442098 15.510341,15.510344 15.214041,15.510653 15.212283,15.510351 15.177068,15.510269 15.177561,15.415464 13.255667,15.415464 13.255702,15.510405 13.198955,15.510538 12.922635,15.510538 12.922463,15.416691 12.922456,15.415159 12.922463,15.408248 12.922493,15.404414 12.922535,15.391101 12.922535,15.319869 12.868758,15.320011 12.865055,15.320062 12.696527,15.320577 12.696166,15.320571 12.695399,15.320562 12.695591,14.907398 12.695166,13.062403 12.696145,13.062589 12.830872,13.062978 12.846349,13.0629 12.860573,13.063062 12.864847,13.063062 12.879056,13.063102 12.893467,13.063016 12.904596,13.063166 12.906097,13.063203 12.91296,13.063004 12.914507,13.063243 12.918946,13.062907 12.921617,13.063005 12.941424,13.062893 12.954095,13.062401 13.060516,13.060518 13.062893,12.941425 13.062848,12.922368 13.063383,12.921671 13.063033,12.894281 13.0631,12.879059 13.062264,12.709729 13.0624,12.695168" style="fill: white" /><polygon type="contour" points="12.224482,13.061574 12.284431,13.061764 12.337342,13.061787 12.346306,13.061868 12.354803,13.06186 12.362381,13.061897 12.363404,13.061887 12.366028,13.061867 12.36649,13.061857 12.367961,13.061863 12.3739,13.061894 12.3739,13.066292 12.373911,13.071456 12.37396,13.105678 12.37396,15.291526 12.373916,15.311641 12.373913,15.320277 12.371957,15.320271 12.369049,15.32026 12.368021,15.320275 12.36649,15.320276 12.365721,15.320265 12.361084,15.320256 12.357948,15.320228 12.350593,15.320194 12.346306,15.320258 12.308753,15.320191 12.263327,15.320061 12.243318,15.319958 12.236077,15.319915 12.234465,15.319901 12.141051,15.319958 12.141255,14.769987 12.1404,13.061336" style="fill: white" /><polygon type="contour" points="11.660055,13.060247 11.677377,13.060142 11.697848,13.060324 11.701392,13.060238 11.710451,13.060024 11.711971,13.060344 11.717407,13.060325 11.756866,13.060109 11.810207,13.060109 11.81882,13.060495 11.81882,13.06639 11.818812,13.07012 11.818861,13.104447 11.818861,15.291527 11.818859,15.31164 11.81882,15.320265 11.813049,15.320284 11.811392,15.320276 11.810622,15.320265 11.806049,15.320256 11.802849,15.320228 11.795494,15.320194 11.791207,15.320258 11.753653,15.32019 11.702519,15.320327 11.682706,15.320279 11.675414,15.320264 11.673672,15.320264 11.5859,15.320031 11.586156,14.769646 11.585667,13.059933 11.611225,13.060163 11.648046,13.05967" style="fill: white" /><polygon type="contour" points="11.126666,13.058685 11.185503,13.058866 11.230996,13.059072 11.238974,13.059027 11.246852,13.059113 11.253803,13.059075 11.254846,13.059097 11.257157,13.059098 11.257589,13.059086 11.264409,13.059102 11.264409,13.067657 11.264411,13.068784 11.264461,13.103215 11.264461,15.291526 11.264416,15.311641 11.264409,15.32028 11.25687,15.320281 11.252593,15.320278 11.249678,15.320255 11.242992,15.320324 11.21239,15.320352 11.204023,15.320279 11.163966,15.319982 11.1448,15.319856 11.038797,15.320161 11.038897,15.020786 11.037969,13.058411" style="fill: white" /><polygon type="contour" points="9.591482,13.055207 9.607263,13.055274 9.735833,13.055274 9.872933,13.055634 10.002878,13.056127 10.126714,13.056256 10.223692,13.056508 10.357467,13.057039 10.391621,13.057039 10.542868,13.057325 10.716707,13.05798 10.716707,13.093184 10.716742,13.110063 10.716742,15.286239 10.716722,15.320071 10.55046,15.320036 10.361067,15.320137 10.247988,15.319994 10.188908,15.319925 10.157808,15.32007 10.147594,15.320068 10.121802,15.320112 9.942787,15.320145 8.453627,15.32019 8.431915,15.32005 8.414979,15.320071 8.414994,15.295175 8.414959,15.286239 8.414959,13.110062 8.414994,13.05798 8.664311,13.057326 8.740079,13.057039 8.774232,13.057039 8.908007,13.056508 9.004986,13.056255 9.118229,13.056163 9.128821,13.056126 9.258766,13.055634 9.396077,13.055274 9.524648,13.055274 9.540487,13.055208 9.549738,13.054431 9.566199,13.054431" style="fill: white" /><polygon type="contour" points="8.092803,15.020785 8.092909,15.32017 7.993138,15.319829 7.974354,15.320061 7.927676,15.320279 7.892726,15.320294 7.888708,15.320323 7.882021,15.320255 7.879106,15.320278 7.874761,15.320255 7.874109,15.320291 7.867291,15.32028 7.867291,15.314685 7.867283,15.311641 7.867239,15.291526 7.867239,13.103215 7.867288,13.068785 7.867291,13.059101 7.874109,13.059087 7.874541,13.059098 7.877896,13.059075 7.884846,13.059113 7.910347,13.059384 8.080787,13.058863 8.081398,13.058471 8.081331,13.058805 8.093729,13.058411" style="fill: white" /><polygon type="contour" points="6.990445,14.769987 6.990701,15.320031 6.894111,15.32028 6.874081,15.320327 6.822947,15.32019 6.785393,15.320258 6.781106,15.320194 6.773751,15.320228 6.770615,15.320256 6.765979,15.320265 6.765207,15.320276 6.763549,15.320284 6.76265,15.32026 6.757787,15.320278 6.757784,15.311641 6.757739,15.291526 6.757739,13.105678 6.757789,13.071456 6.7578,13.061895 6.759742,13.06189 6.761011,13.061558 6.772162,13.061561 6.772434,13.061518 6.776386,13.061511 6.777604,13.061541 6.786903,13.061641 6.804595,13.061573 6.82221,13.061619 6.838647,13.061463 6.857523,13.061468 6.9253,13.061591 6.9913,13.061336" style="fill: white" /><polygon type="contour" points="7.463201,13.06027 7.496043,13.060208 7.496469,13.109939 7.54593,13.109653 7.545545,14.769646 7.5458,15.320031 7.448992,15.32028 7.429182,15.320328 7.378046,15.320192 7.340491,15.320257 7.336205,15.320194 7.32885,15.320229 7.32565,15.320256 7.321077,15.320265 7.320307,15.320276 7.31865,15.320284 7.31288,15.320265 7.31288,15.316592 7.312841,15.311641 7.312839,15.291527 7.312839,13.104446 7.312889,13.070121 7.31288,13.060495 7.32047,13.060492 7.32077,13.060469 7.324418,13.060499 7.331911,13.060462 7.340491,13.06047 7.348877,13.060326 7.393602,13.060099" style="fill: white" /><polygon type="contour" points="6.072892,11.127553 6.072836,11.185505 6.07263,11.230996 6.072674,11.238975 6.072589,11.246854 6.072627,11.253804 6.072606,11.254846 6.072604,11.257159 6.072615,11.257591 6.072601,11.26441 6.064044,11.26441 6.062917,11.264412 6.028486,11.264462 3.840176,11.264462 3.820061,11.264417 3.811423,11.26441 3.811412,11.257591 3.811448,11.256939 3.811424,11.252594 3.811379,11.242993 3.811348,11.212391 3.811422,11.204024 3.811717,11.163968 3.811845,11.144802 3.811599,11.038827 3.953835,11.038874 6.073291,11.037971" style="fill: white" /><polygon type="contour" points="6.071538,11.611225 6.072031,11.648048 6.071456,11.660056 6.07156,11.677381 6.071379,11.697849 6.071464,11.701395 6.071676,11.710453 6.071357,11.711975 6.071377,11.717407 6.071594,11.756866 6.071594,11.810207 6.071206,11.818821 6.06531,11.818821 6.06158,11.818813 6.027253,11.818862 3.840176,11.818862 3.820062,11.818861 3.811438,11.818821 3.811428,11.812922 3.811427,11.811392 3.811437,11.810623 3.811411,11.805923 3.811509,11.795494 3.811445,11.791209 3.81151,11.753656 3.811375,11.702521 3.811422,11.682708 3.811438,11.675417 3.811276,11.673673 3.811672,11.585902 4.362055,11.586157 6.071767,11.585668" style="fill: white" /><polygon type="contour" points="6.070031,12.223598 6.069937,12.284432 6.069914,12.337343 6.069832,12.346307 6.069841,12.354804 6.069804,12.362382 6.069813,12.363405 6.069834,12.366029 6.069844,12.366492 6.069838,12.367961 6.069806,12.373901 6.065408,12.373901 6.060244,12.373912 6.026022,12.373961 3.840176,12.373961 3.820061,12.373917 3.811425,12.373914 3.811431,12.371958 3.811443,12.36905 3.811419,12.368149 3.811427,12.366491 3.811438,12.365722 3.811411,12.360957 3.811508,12.350594 3.811444,12.346307 3.81151,12.308754 3.811375,12.257619 3.811326,12.238115 3.811358,12.230717 3.811277,12.228612 3.811139,12.141 4.224431,12.141192 6.070366,12.140401" style="fill: white" /><polygon type="contour" points="6.069113,12.696142 6.068723,12.830873 6.068802,12.846351 6.068637,12.860575 6.068637,12.864849 6.068782,12.880077 6.068684,12.893469 6.068534,12.904598 6.068498,12.906099 6.068696,12.912962 6.068459,12.91451 6.068794,12.918947 6.068606,12.924059 6.068806,12.941425 6.068806,12.948951 6.069345,12.953787 6.070953,13.060023 6.136529,13.061283 6.190276,13.062894 6.209332,13.06285 6.210033,13.063385 6.23742,13.063035 6.252642,13.063101 6.268018,13.063062 6.271127,13.063062 6.286122,13.0629 6.302399,13.062797 6.305946,13.063016 6.319464,13.062796 6.331882,13.06265 6.397669,13.062907 6.402769,13.06263 6.42197,13.062266 6.436533,13.062403 6.436045,14.770157 6.436301,15.320031 6.435325,15.319968 6.266646,15.320063 6.262941,15.320011 6.209165,15.319869 6.209165,15.391102 6.209207,15.404414 6.209237,15.408248 6.209244,15.415159 6.209237,15.416691 6.209201,15.418733 6.209062,15.510538 5.932744,15.510539 5.875997,15.510406 5.876335,15.415464 3.954525,15.415464 3.954632,15.510269 3.919415,15.510351 3.917656,15.510654 3.621358,15.510344 3.621358,15.442098 3.621497,15.379742 3.621297,15.177203 3.716238,15.177566 3.716238,13.255669 3.621297,13.255704 3.621164,13.198956 3.621164,12.922637 3.71501,12.922465 3.716543,12.922458 3.723453,12.922465 3.727287,12.922495 3.740599,12.922537 3.811392,12.922537 3.811227,12.86876 3.811173,12.865056 3.811124,12.696529 3.811129,12.696168 3.811139,12.695401 4.224302,12.695593 6.069299,12.695168" style="fill: white" />
</svg>
