<svg width="19.131698" height="19.131699">
<polygon type="contour" points="8.435685,8.760939 8.435685,8.862534 8.435491,8.937652 8.436424,8.966985 8.330429,8.966985 8.330653,8.87846 8.330615,8.862533 8.33082,8.862533 8.33058,8.760939 8.330408,8.679223 8.407051,8.679094 8.435467,8.679094" style="fill: white" /><polygon type="contour" points="8.39385,8.160952 8.433693,8.161396 8.434622,8.185857 8.434683,8.188175 8.434756,8.215633 8.434756,8.248646 8.434504,8.3489 8.434444,8.406029 8.434444,8.434446 8.361239,8.434446 8.223857,8.434656 8.16261,8.434656 8.161307,8.315201 8.156678,8.15668" style="fill: white" /><polygon type="contour" points="8.760939,8.330583 8.862531,8.330822 8.86253,8.330617 8.878459,8.330655 8.966983,8.330431 8.966983,8.436426 8.87846,8.436188 8.775378,8.432945 8.775377,8.435687 8.704873,8.435469 8.679092,8.435469 8.679092,8.407053 8.679221,8.330411" style="fill: white" /><polygon type="contour" points="8.967029,8.679095 8.967441,8.760677 8.967441,8.862549 8.966983,8.937353 8.966983,8.966985 8.878459,8.967444 8.775413,8.967444 8.705658,8.967032 8.679093,8.967032 8.678811,8.878461 8.679264,8.775378 8.678881,8.775377 8.679221,8.705299 8.679221,8.679223 8.760939,8.678883 8.775377,8.678883 8.775377,8.679266 8.87846,8.678813" style="fill: white" /><polygon type="contour" points="9.499331,8.161317 9.49999,8.187148 9.500132,8.189568 9.500132,8.330589 9.565501,8.330276 9.631569,8.330586 9.631569,8.189568 9.632368,8.161316 9.729119,8.162455 9.923845,8.162477 9.923845,8.269597 9.923749,8.405842 9.923749,8.434393 9.384004,8.434393 9.207952,8.435344 9.207856,8.339069 9.207856,8.162476 9.269949,8.161231" style="fill: white" /><polygon type="contour" points="10.25324,9.208881 10.269152,9.208881 10.269152,9.209223 10.426043,9.208607 10.453569,9.208607 10.453569,9.923098 10.371558,9.922823 10.356288,9.922823 10.356288,9.922409 10.194349,9.923178 10.164718,9.923178 10.164718,9.208527" style="fill: white" /><polygon type="contour" points="9.922822,8.760143 9.922822,8.775414 9.922409,8.775414 9.923176,8.937352 9.923176,8.966985 9.208525,8.966985 9.208879,8.878461 9.208879,8.86255 9.209221,8.86255 9.208605,8.705659 9.208605,8.679095 9.74504,8.679095 9.923096,8.678134" style="fill: white" /><polygon type="contour" points="10.253241,8.678279 10.356322,8.682188 10.356324,8.678883 10.426402,8.679223 10.45248,8.679223 10.452819,8.760939 10.452819,8.775378 10.449513,8.775378 10.453422,8.87846 10.453568,8.967032 10.371558,8.967444 10.253241,8.967444 10.240287,8.967032 10.164717,8.966985 10.164259,8.878461 10.164259,8.760144 10.164671,8.678134" style="fill: white" /><polygon type="contour" points="10.45248,8.435603 10.370761,8.435687 10.269167,8.435687 10.194049,8.435492 10.164718,8.435432 10.164718,8.330431 10.253241,8.330655 10.269169,8.330617 10.269169,8.330822 10.370761,8.330583 10.45248,8.330411" style="fill: white" /><polygon type="contour" points="10.970393,8.3152 10.969091,8.434656 10.907842,8.434656 10.77046,8.434446 10.697256,8.434446 10.697195,8.348899 10.696945,8.215633 10.697017,8.21354 10.697017,8.188175 10.698006,8.161396 10.737849,8.160952 10.975022,8.15668" style="fill: white" /><polygon type="contour" points="10.801119,8.76094 10.80088,8.862533 10.801086,8.862532 10.801047,8.878461 10.801271,8.966985 10.69627,8.966985 10.696049,8.878461 10.69595,8.830835 10.696099,8.705299 10.696099,8.679223 10.801291,8.679223" style="fill: white" /><polygon type="contour" points="10.969547,9.393433 10.969442,9.499998 10.912388,9.499998 10.802381,9.500458 10.801426,9.553667 10.801426,9.566202 10.802541,9.631245 10.859434,9.631245 10.969442,9.631705 10.968812,9.851421 10.968903,9.923579 10.697118,9.923579 10.697118,9.208126 10.968903,9.208126" style="fill: white" /><polygon type="contour" points="10.970393,10.816503 10.975022,10.975024 10.737849,10.970751 10.698007,10.970308 10.697078,10.945846 10.697017,10.943528 10.696945,10.91607 10.696945,10.883057 10.697196,10.782803 10.697256,10.725674 10.697256,10.697258 10.77046,10.697258 10.907842,10.697048 10.969091,10.697048" style="fill: white" /><polygon type="contour" points="10.801047,10.253243 10.801086,10.269172 10.80088,10.269172 10.801119,10.370764 10.801291,10.452482 10.724648,10.45261 10.696233,10.45261 10.696016,10.370765 10.696016,10.26917 10.696209,10.19405 10.69627,10.164719 10.801271,10.164719" style="fill: white" /><polygon type="contour" points="10.426042,10.164673 10.453569,10.164673 10.453423,10.253244 10.449513,10.356325 10.452819,10.356326 10.45248,10.426406 10.45248,10.452482 10.370762,10.452821 10.356324,10.452821 10.356324,10.452437 10.253241,10.452891 10.164671,10.452608 10.164259,10.371026 10.164259,10.269155 10.164718,10.19435 10.164718,10.164719 10.253241,10.16426 10.356288,10.16426" style="fill: white" /><polygon type="contour" points="9.923577,9.923579 9.208124,9.923579 9.208124,9.208126 9.923577,9.208126" style="fill: white" /><polygon type="contour" points="9.922822,10.253243 9.922822,10.269155 9.922479,10.269155 9.923096,10.426045 9.923096,10.452608 9.208605,10.452608 9.208879,10.371026 9.208879,10.356291 9.209291,10.356291 9.208525,10.19435 9.208525,10.164719 9.923176,10.164719" style="fill: white" /><polygon type="contour" points="10.25324,10.695516 10.356322,10.698758 10.356323,10.696017 10.426827,10.696235 10.452609,10.696235 10.452609,10.72465 10.45248,10.801293 10.370761,10.801121 10.269168,10.800882 10.269169,10.801088 10.253241,10.801049 10.164718,10.801273 10.164718,10.695276" style="fill: white" /><polygon type="contour" points="9.923845,10.792633 9.923845,10.969228 9.861749,10.970472 9.632368,10.970387 9.631709,10.944555 9.631569,10.942136 9.631569,10.801113 9.5655,10.801428 9.500132,10.80111 9.500132,10.942135 9.499332,10.970386 9.40258,10.969247 9.207856,10.969228 9.207856,10.862106 9.207952,10.725861 9.207952,10.69636 9.923749,10.69636" style="fill: white" /><polygon type="contour" points="8.966983,10.801273 8.878459,10.801049 8.862531,10.801088 8.862531,10.800882 8.760939,10.801121 8.679221,10.801293 8.679092,10.72465 8.679092,10.696235 8.760939,10.696017 8.862533,10.696017 8.862533,10.696016 8.93765,10.696211 8.966983,10.695277" style="fill: white" /><polygon type="contour" points="8.966983,9.923178 8.87846,9.922823 8.862549,9.922823 8.862549,9.922479 8.705658,9.923098 8.679093,9.923098 8.679093,9.208607 8.760675,9.208881 8.775413,9.208881 8.775413,9.209293 8.937351,9.208527 8.966983,9.208527" style="fill: white" /><polygon type="contour" points="8.891412,10.164673 8.966983,10.164719 8.967441,10.253243 8.967441,10.371026 8.96703,10.452608 8.878459,10.452891 8.775377,10.452437 8.775377,10.452821 8.705297,10.452482 8.679221,10.452482 8.678881,10.370764 8.678881,10.356327 8.679264,10.356327 8.678811,10.253243 8.679093,10.164673 8.760675,10.16426 8.87846,10.16426" style="fill: white" /><polygon type="contour" points="8.435508,9.923579 8.162797,9.923579 8.162154,9.738271 8.162258,9.631706 8.219311,9.631706 8.329319,9.631245 8.330274,9.578423 8.330274,9.566202 8.329155,9.500458 8.272265,9.500458 8.162258,9.499998 8.162888,9.280283 8.162797,9.208126 8.435508,9.208126" style="fill: white" /><polygon type="contour" points="8.436186,10.253243 8.432943,10.356325 8.435685,10.356326 8.435467,10.426827 8.435467,10.45261 8.407051,10.45261 8.330408,10.452482 8.33058,10.370765 8.33082,10.269171 8.330615,10.269172 8.330653,10.253243 8.330429,10.164719 8.436424,10.164719" style="fill: white" /><polygon type="contour" points="8.361239,10.697258 8.434444,10.697258 8.434504,10.782804 8.434756,10.916071 8.434683,10.918163 8.434683,10.943528 8.433693,10.970308 8.39385,10.970751 8.156678,10.975024 8.161307,10.816503 8.16261,10.697048 8.223857,10.697048" style="fill: white" />
</svg>
