<svg width="19.131698" height="19.131699">
<polygon type="contour" points="8.596125,6.729832 8.597057,6.840056 8.597065,7.022393 8.466274,7.02228 8.303602,7.022486 8.303602,6.853461 8.303591,6.790286 8.303538,6.765189 8.303447,6.730353 8.480694,6.730469 8.51193,6.729855 8.529484,6.729634 8.531502,6.729465 8.542187,6.72917 8.548499,6.728994 8.552469,6.728835 8.567874,6.728" style="fill: white" /><polygon type="contour" points="6.779016,6.727187 6.793445,6.727709 6.837893,6.728818 7.022279,6.729919 7.022279,7.022279 6.99643,7.022393 6.840493,7.022802 6.795207,7.022802 6.731831,7.023553 6.731006,6.947411 6.725623,6.725624" style="fill: white" /><polygon type="contour" points="7.395939,6.904626 7.478568,6.904404 7.478568,6.976272 7.478782,7.024081 7.383958,7.023794 7.278088,7.023794 7.278088,6.904019" style="fill: white" /><polygon type="contour" points="7.023793,7.383959 7.024079,7.478785 6.954561,7.478785 6.904402,7.47857 6.904624,7.395941 6.904017,7.278089 7.023793,7.278089" style="fill: white" /><polygon type="contour" points="8.070275,7.928303 8.070029,7.956964 8.070153,8.070155 7.928302,8.070277 7.81867,8.070277 7.81867,7.928303 7.818701,7.818703 7.971367,7.818703 8.070275,7.818673" style="fill: white" /><polygon type="contour" points="8.070153,8.598971 7.928302,8.599186 7.818701,8.599021 7.818701,8.418711 7.81867,8.303604 7.925976,8.303473 8.070153,8.303473" style="fill: white" /><polygon type="contour" points="7.478511,8.303604 7.478511,8.471283 7.478568,8.599021 7.379545,8.59875 7.278088,8.599015 7.278088,8.458291 7.278117,8.303408 7.388243,8.303408" style="fill: white" /><polygon type="contour" points="6.790283,8.303593 7.022667,8.303593 7.022484,8.427584 7.022279,8.596939 6.840054,8.597059 6.729831,8.596126 6.729169,8.542189 6.729464,8.531504 6.729632,8.529643 6.729962,8.511791 6.730467,8.480696 6.73035,8.303449" style="fill: white" /><polygon type="contour" points="7.024164,7.928303 7.023609,8.070155 6.904008,8.070155 6.904647,7.928304 6.904402,7.818703 6.976269,7.818703 7.024079,7.818526" style="fill: white" /><polygon type="contour" points="7.478568,7.818703 7.478568,7.971369 7.478511,8.070277 7.388243,8.07003 7.278118,8.07003 7.277914,7.928303 7.277882,7.818526 7.39594,7.818526" style="fill: white" /><polygon type="contour" points="7.478782,7.395941 7.478568,7.478571 7.356519,7.478571 7.277882,7.478785 7.278088,7.383959 7.278088,7.278089 7.39594,7.277884 7.478782,7.277884" style="fill: white" /><polygon type="contour" points="7.928301,7.277916 8.070029,7.27812 8.070275,7.391416 8.070275,7.478514 7.928301,7.478514 7.818701,7.478571 7.818701,7.35652 7.818523,7.277884" style="fill: white" /><polygon type="contour" points="8.070153,7.023611 7.928301,7.024166 7.818523,7.024081 7.818523,6.954563 7.818701,6.904404 7.928302,6.904649 8.070153,6.90401" style="fill: white" /><polygon type="contour" points="8.599218,7.395941 8.599019,7.478571 8.418709,7.478571 8.303602,7.478514 8.303406,7.388246 8.303406,7.27812 8.43726,7.27812 8.599014,7.278089" style="fill: white" /><polygon type="contour" points="8.599019,7.818702 8.598725,7.936905 8.59897,8.070155 8.303471,8.070155 8.303602,7.928304 8.303602,7.818673 8.471281,7.818673" style="fill: white" /><polygon type="contour" points="8.595855,8.34484 8.592094,8.592096 8.519397,8.591543 8.511738,8.593308 8.499017,8.594536 8.303538,8.597117 8.303538,8.30354 8.597116,8.30354" style="fill: white" /><polygon type="contour" points="10.828162,8.538172 10.828162,8.597117 10.632682,8.594537 10.61996,8.593308 10.539605,8.592096 10.540158,8.519398 10.538393,8.51174 10.537164,8.499019 10.534584,8.30354 10.828721,8.30354" style="fill: white" /><polygon type="contour" points="11.203702,8.303604 11.313028,8.303604 11.313028,8.471283 11.312999,8.599021 11.194795,8.598726 11.061548,8.598971 11.061548,8.47168 11.061948,8.303473" style="fill: white" /><polygon type="contour" points="11.312999,7.971093 11.313028,8.070277 11.205721,8.070155 11.061948,8.070155 11.06173,7.928304 11.061425,7.818673 11.203397,7.818673 11.312999,7.818428" style="fill: white" /><polygon type="contour" points="10.828229,7.925977 10.82863,8.070155 10.53273,8.070155 10.532514,7.928304 10.53268,7.818703 10.712989,7.818703 10.828099,7.818673" style="fill: white" /><polygon type="contour" points="10.600199,6.729466 10.602216,6.729634 10.61977,6.729855 10.651006,6.730469 10.828162,6.730134 10.828109,6.790285 10.828109,7.022669 10.704118,7.022485 10.534764,7.02228 10.534643,6.840055 10.535575,6.729832 10.589513,6.729171" style="fill: white" /><polygon type="contour" points="11.203397,6.904649 11.312999,6.904404 11.312999,6.976272 11.313177,7.024081 11.203397,7.024167 11.061548,7.023612 11.061548,6.90401" style="fill: white" /><polygon type="contour" points="10.828294,7.27812 10.828294,7.388245 10.828099,7.478514 10.660417,7.478514 10.53268,7.478571 10.532952,7.379547 10.532687,7.278089 10.67341,7.278089" style="fill: white" /><polygon type="contour" points="11.313177,7.395941 11.312999,7.478571 11.160331,7.478571 11.061425,7.478514 11.061671,7.388246 11.061671,7.27812 11.203398,7.277916 11.313177,7.277884" style="fill: white" /><polygon type="contour" points="11.747741,7.278089 11.853613,7.278089 11.853818,7.395941 11.853818,7.478785 11.735759,7.478785 11.653132,7.478571 11.653132,7.35652 11.652917,7.277884" style="fill: white" /><polygon type="contour" points="11.853613,7.023794 11.74774,7.023794 11.652917,7.024081 11.652917,6.954562 11.653132,6.904405 11.73576,6.904626 11.853613,6.904019" style="fill: white" /><polygon type="contour" points="12.400175,6.947411 12.399349,7.023553 12.357799,7.023501 12.109421,7.02228 12.109461,6.839635 12.109461,6.730257 12.293807,6.728817 12.338254,6.727709 12.352683,6.727187 12.406077,6.725624" style="fill: white" /><polygon type="contour" points="12.227076,7.395941 12.227298,7.478571 12.155427,7.478571 12.10762,7.478785 12.107907,7.383959 12.107907,7.278089 12.227683,7.278089" style="fill: white" /><polygon type="contour" points="12.227298,7.818703 12.227022,7.899752 12.227053,7.928304 12.227692,8.070155 12.108089,8.070155 12.107534,7.928303 12.10762,7.818526 12.177138,7.818526" style="fill: white" /><polygon type="contour" points="11.853786,7.928303 11.853583,8.070029 11.740285,8.070277 11.653189,8.070277 11.653189,7.928303 11.653132,7.818703 11.77518,7.818703 11.853818,7.818526" style="fill: white" /><polygon type="contour" points="11.853583,8.437261 11.853613,8.599015 11.73576,8.599219 11.653132,8.599021 11.653132,8.418711 11.653189,8.303604 11.743456,8.303408 11.853583,8.303408" style="fill: white" /><polygon type="contour" points="12.40123,8.480695 12.402067,8.529486 12.402234,8.531503 12.40253,8.542189 12.402863,8.552469 12.403701,8.567874 12.401868,8.596125 12.232273,8.595382 12.109421,8.596938 12.109421,8.466277 12.109215,8.303604 12.179001,8.303604 12.333346,8.303449 12.401347,8.303449" style="fill: white" /><polygon type="contour" points="12.401867,10.535578 12.40253,10.589516 12.402234,10.6002 12.402067,10.602218 12.401737,10.619912 12.40123,10.651009 12.401347,10.828255 12.341413,10.828111 12.109032,10.828111 12.109215,10.70412 12.10942,10.534765 12.291644,10.534646" style="fill: white" /><polygon type="contour" points="12.227053,11.2034 12.227298,11.313 12.155428,11.313 12.10762,11.313178 12.107534,11.203399 12.108089,11.06155 12.227692,11.06155" style="fill: white" /><polygon type="contour" points="12.227298,11.653133 12.227076,11.735761 12.227683,11.853615 12.107907,11.853615 12.107907,11.747743 12.10762,11.652918 12.177139,11.652918" style="fill: white" /><polygon type="contour" points="12.400175,12.184292 12.406077,12.40608 12.352684,12.404517 12.338254,12.403995 12.293807,12.402887 12.109421,12.401785 12.109421,12.239459 12.109309,12.109311 12.135269,12.109311 12.291206,12.108902 12.336491,12.108902 12.399349,12.108151" style="fill: white" /><polygon type="contour" points="11.74774,12.107909 11.853613,12.107909 11.853613,12.227684 11.73576,12.227078 11.653132,12.2273 11.653132,12.15543 11.652917,12.107622" style="fill: white" /><polygon type="contour" points="11.853613,11.747742 11.853613,11.853615 11.73576,11.853821 11.652917,11.853821 11.652917,11.735761 11.653132,11.653133 11.775181,11.653133 11.853818,11.652918" style="fill: white" /><polygon type="contour" points="11.313028,11.2034 11.312999,11.313276 11.160331,11.313276 11.061425,11.313029 11.061729,11.2034 11.062056,11.17474 11.061948,11.06155 11.203703,11.061427 11.313028,11.061427" style="fill: white" /><polygon type="contour" points="11.743456,11.061673 11.853583,11.061673 11.853786,11.203399 11.853818,11.313178 11.735759,11.313178 11.653132,11.313 11.653132,11.160333 11.653188,11.061427" style="fill: white" /><polygon type="contour" points="11.752154,10.532954 11.853613,10.532689 11.853613,10.673412 11.853583,10.828296 11.743457,10.828296 11.653189,10.828101 11.653189,10.660419 11.653132,10.532682" style="fill: white" /><polygon type="contour" points="11.312999,10.532681 11.312999,10.712991 11.313028,10.828101 11.205721,10.828232 11.061948,10.828232 11.061948,10.70094 11.061548,10.532733 11.203398,10.532517" style="fill: white" /><polygon type="contour" points="10.828721,10.769219 10.828721,10.828164 10.534584,10.828164 10.537164,10.632684 10.538393,10.619962 10.539605,10.539607 10.632682,10.537166 10.828162,10.534587" style="fill: white" /><polygon type="contour" points="10.828402,11.2034 10.828099,11.313029 10.660417,11.313029 10.53268,11.313 10.532976,11.194797 10.53273,11.06155 10.82863,11.06155" style="fill: white" /><polygon type="contour" points="10.828099,11.65319 10.828294,11.743458 10.828294,11.853584 10.69444,11.853584 10.532687,11.853615 10.532481,11.73576 10.532679,11.653133 10.71299,11.653133" style="fill: white" /><polygon type="contour" points="11.312999,11.775184 11.313177,11.85382 11.203397,11.853787 11.061671,11.853584 11.061425,11.740287 11.061425,11.65319 11.203398,11.65319 11.312999,11.653133" style="fill: white" /><polygon type="contour" points="11.313177,12.107622 11.313177,12.177141 11.312998,12.2273 11.203398,12.227055 11.061548,12.227695 11.061548,12.108091 11.203397,12.107535" style="fill: white" /><polygon type="contour" points="10.828099,12.27824 10.828108,12.341415 10.828161,12.366512 10.828253,12.401349 10.651005,12.401232 10.61977,12.401847 10.602059,12.402068 10.600199,12.402235 10.589514,12.40253 10.58082,12.402761 10.579231,12.402866 10.563826,12.403702 10.535575,12.40187 10.534643,12.291646 10.534635,12.109311 10.665424,12.109423 10.828099,12.109217" style="fill: white" /><polygon type="contour" points="7.478782,12.177141 7.478568,12.2273 7.395939,12.227078 7.278088,12.227684 7.278088,12.107909 7.383958,12.107909 7.478782,12.107622" style="fill: white" /><polygon type="contour" points="8.599185,11.2034 8.599019,11.313 8.41871,11.313 8.303601,11.313029 8.303471,11.205724 8.303471,11.06155 8.59897,11.06155" style="fill: white" /><polygon type="contour" points="8.598749,11.752156 8.599014,11.853615 8.45829,11.853615 8.303406,11.853584 8.303406,11.743458 8.303602,11.65319 8.471281,11.65319 8.599019,11.653133" style="fill: white" /><polygon type="contour" points="8.427582,12.109217 8.596937,12.109423 8.597057,12.291646 8.596125,12.40187 8.542187,12.402531 8.531501,12.402235 8.529641,12.402068 8.51193,12.401847 8.480695,12.401232 8.303538,12.401568 8.303591,12.341416 8.303591,12.109035" style="fill: white" /><polygon type="contour" points="8.070153,12.108091 8.070153,12.227695 7.928302,12.227055 7.818701,12.2273 7.818701,12.15543 7.818523,12.107622 7.928301,12.107535" style="fill: white" /><polygon type="contour" points="8.070275,11.65319 8.070029,11.743459 8.070029,11.853584 7.928301,11.853788 7.818523,11.85382 7.818523,11.73576 7.8187,11.653133 7.971367,11.653133" style="fill: white" /><polygon type="contour" points="7.925976,11.06155 8.070153,11.06155 8.070275,11.203399 8.070275,11.313029 7.928301,11.313029 7.818701,11.313 7.818701,11.160334 7.81867,11.061427" style="fill: white" /><polygon type="contour" points="8.344837,10.535848 8.592094,10.539607 8.594535,10.632684 8.597116,10.828164 8.303538,10.828164 8.303538,10.534587" style="fill: white" /><polygon type="contour" points="7.936903,10.532978 8.070153,10.532733 8.070153,10.828232 7.928302,10.828101 7.81867,10.828101 7.81867,10.660419 7.818701,10.532682" style="fill: white" /><polygon type="contour" points="7.478568,10.532681 7.478568,10.712992 7.478511,10.828101 7.388243,10.828296 7.278118,10.828296 7.278118,10.694442 7.278088,10.532689 7.39594,10.532484" style="fill: white" /><polygon type="contour" points="7.022279,10.665426 7.022485,10.8281 6.952697,10.8281 6.798352,10.828255 6.73035,10.828255 6.730467,10.651009 6.729631,10.602218 6.729464,10.6002 6.729168,10.589515 6.728834,10.579234 6.727998,10.56383 6.729831,10.535578 6.899425,10.536321 7.022279,10.534765" style="fill: white" /><polygon type="contour" points="7.024164,11.203399 7.024079,11.313178 6.954561,11.313178 6.904402,11.313 6.904677,11.23195 6.904647,11.2034 6.904008,11.06155 7.02361,11.06155" style="fill: white" /><polygon type="contour" points="7.478511,11.2034 7.478568,11.313 7.356518,11.313 7.277882,11.313178 7.277914,11.2034 7.278118,11.061673 7.391413,11.061427 7.478511,11.061427" style="fill: white" /><polygon type="contour" points="7.478568,11.653133 7.478568,11.775182 7.478782,11.85382 7.383957,11.853615 7.278088,11.853615 7.277882,11.735761 7.277882,11.652918 7.395939,11.652918" style="fill: white" /><polygon type="contour" points="7.023793,11.747743 7.023793,11.853615 6.904017,11.853615 6.904624,11.735761 6.904402,11.653133 6.976269,11.653133 7.024079,11.652918" style="fill: white" /><polygon type="contour" points="6.773299,12.108203 7.022279,12.109423 7.022238,12.292067 7.022238,12.401446 6.837893,12.402887 6.793445,12.403995 6.779015,12.404517 6.725623,12.40608 6.731006,12.184292 6.731831,12.108151" style="fill: white" />
</svg>
