<svg width="19.131698" height="19.131699">
<polygon type="contour" points="12.320533,10.482911 12.322435,10.637858 12.321586,10.668552 12.321105,10.67435 12.320159,10.725176 12.319342,10.775359 12.233043,10.775707 12.233043,12.025919 12.319891,12.026958 12.321192,12.0718 12.328012,12.328014 12.173748,12.323498 12.132059,12.321989 12.025884,12.319342 12.025772,12.233046 10.775152,12.233046 10.775436,12.288668 10.775436,12.319475 10.72477,12.320473 10.673895,12.321106 10.66855,12.321588 10.637856,12.322436 10.612859,12.323101 10.608319,12.323397 10.564065,12.3258 10.482909,12.320537 10.48081,12.072274 10.48081,12.058804 10.481068,11.866145 10.481068,10.957179 10.481047,10.70253 10.483483,10.518007 10.483927,10.51341 10.484365,10.484367 10.518006,10.483484 10.702527,10.48105 10.957178,10.48107 11.866143,10.48107 12.058801,10.480812 12.072271,10.480812" style="fill: white" /><polygon type="contour" points="12.321193,7.059902 12.319891,7.104747 12.233043,7.105783 12.233043,8.356565 12.288256,8.356345 12.319374,8.356326 12.321105,8.457354 12.321586,8.463152 12.322434,8.493846 12.323395,8.523382 12.325799,8.567635 12.320534,8.648792 12.259237,8.648523 12.072272,8.650892 12.058801,8.650892 11.866143,8.650634 10.957177,8.650634 10.702527,8.650653 10.518006,8.648218 10.513407,8.647772 10.484365,8.647335 10.484565,8.62106 10.483927,8.618292 10.483483,8.613694 10.481047,8.429174 10.481068,8.174522 10.481068,7.265558 10.48081,7.072899 10.48081,7.059429 10.482908,6.811167 10.637856,6.809266 10.66855,6.810114 10.674348,6.810596 10.724771,6.811231 10.775436,6.812227 10.775128,6.898658 12.025772,6.898658 12.025884,6.812363 12.13206,6.809715 12.173748,6.808204 12.328012,6.80369" style="fill: white" /><polygon type="contour" points="6.95795,6.808205 6.999639,6.809715 7.105816,6.812363 7.105927,6.898658 8.355872,6.898658 8.356265,6.812227 8.406929,6.811231 8.457352,6.810596 8.46315,6.810114 8.493844,6.809266 8.513321,6.80872 8.513933,6.808681 8.52338,6.808304 8.567634,6.805902 8.64879,6.811167 8.65089,7.059429 8.65089,7.072899 8.650632,7.265558 8.650632,8.174521 8.650652,8.429174 8.647333,8.647335 8.621059,8.647136 8.61829,8.647772 8.613693,8.648218 8.429171,8.650653 8.174521,8.650634 7.265556,8.650634 7.072898,8.650892 7.059428,8.650892 6.811166,8.648792 6.809264,8.493846 6.810113,8.463152 6.810594,8.457806 6.81154,8.406528 6.812357,8.356346 6.898657,8.356154 6.898657,7.105785 6.811326,7.104747 6.809906,7.059902 6.803688,6.80369" style="fill: white" /><polygon type="contour" points="7.265556,10.48107 8.17452,10.48107 8.429172,10.48105 8.647333,10.484367 8.648215,10.518007 8.650652,10.70253 8.650632,10.95718 8.650632,11.866145 8.65089,12.058804 8.65089,12.072274 8.64879,12.320537 8.493844,12.322437 8.46315,12.321588 8.457804,12.321107 8.40693,12.320473 8.356265,12.319475 8.356571,12.233046 7.105927,12.233046 7.105816,12.319342 6.99964,12.321989 6.957949,12.323498 6.803688,12.328014 6.809907,12.0718 6.811325,12.026958 6.898657,12.025917 6.898657,10.775138 6.843441,10.775359 6.827705,10.775379 6.812323,10.775379 6.810594,10.67435 6.810112,10.668552 6.809264,10.637858 6.808302,10.608322 6.805899,10.564068 6.811166,10.482911 6.872461,10.483179 7.059428,10.480812 7.072898,10.480812" style="fill: white" />
</svg>
