<svg width="19.131698" height="19.131699">
<polygon type="contour" points="11.022392,8.375287 11.02233,8.380994 10.854921,8.380994 10.855135,8.506382 10.74369,8.506425 10.73028,8.50642 10.640733,8.506382 10.625317,8.506382 10.625275,8.394428 10.625281,8.381084 10.625317,8.291981 10.625317,8.276564 10.638411,8.276553 10.750925,8.276768 10.750925,8.187299 10.753949,8.105452 10.87572,8.104096 11.030392,8.10131" style="fill: white" /><polygon type="contour" points="9.969646,8.109349 9.981186,8.10935 9.981186,8.115698 9.981177,8.129732 9.983891,8.276792 10.10275,8.276565 10.103215,8.388011 10.10275,8.490964 10.10275,8.506381 10.007503,8.506736 10.006818,8.506735 9.690279,8.506382 9.631149,8.506381 9.631251,8.411589 9.631251,8.381082 9.631149,8.296644 9.631149,8.276668 9.688672,8.276668 9.688672,8.187436 9.690974,8.106068" style="fill: white" /><polygon type="contour" points="9.440726,8.106067 9.442624,8.180471 9.443029,8.187437 9.443029,8.276668 9.500418,8.276668 9.500383,8.37098 9.500383,8.401419 9.500418,8.486269 9.500418,8.506381 9.19658,8.506696 9.12634,8.506712 9.043133,8.506382 9.02895,8.506382 9.028485,8.394428 9.02895,8.291981 9.02895,8.276565 9.041164,8.276538 9.150524,8.276774 9.150524,8.129732 9.150514,8.119816 9.150514,8.10935 9.316589,8.10602" style="fill: white" /><polygon type="contour" points="8.255979,8.104096 8.37775,8.105452 8.380588,8.180212 8.380774,8.187298 8.381011,8.276781 8.50638,8.276565 8.506424,8.388011 8.506419,8.401421 8.50638,8.490965 8.50638,8.506382 8.394426,8.506425 8.29198,8.506382 8.276562,8.506382 8.276552,8.493287 8.276765,8.380994 8.109371,8.380994 8.109307,8.375287 8.101308,8.10131" style="fill: white" /><polygon type="contour" points="8.490963,9.028951 8.50638,9.028951 8.506734,9.124198 8.506733,9.124882 8.50638,9.441422 8.506379,9.500554 8.411587,9.500452 8.38108,9.500452 8.296642,9.500554 8.276666,9.500554 8.276666,9.442957 8.180943,9.442957 8.108346,9.44246 8.109304,9.176016 8.109381,9.150543 8.129731,9.150526 8.276795,9.150504 8.276563,9.028951 8.388009,9.028487" style="fill: white" /><polygon type="contour" points="8.506694,9.935121 8.50671,10.005361 8.50638,10.088567 8.50638,10.102752 8.394426,10.103217 8.381082,10.103157 8.291979,10.102752 8.276563,10.102752 8.276536,10.090535 8.276771,9.981161 8.109381,9.981161 8.10863,9.78669 8.108346,9.689244 8.169173,9.689154 8.180942,9.688748 8.20506,9.688646 8.275541,9.688646 8.276666,9.631285 8.370977,9.63132 8.401418,9.63132 8.486268,9.631285 8.506379,9.631285" style="fill: white" /><polygon type="contour" points="9.150639,9.630979 9.426276,9.631285 9.500418,9.631285 9.500725,9.935121 9.500725,10.006815 9.500418,10.08428 9.500418,10.102647 9.19658,10.102718 9.145072,10.102791 9.043132,10.102752 9.02895,10.102752 9.028916,10.007505 9.028916,10.00682 9.028919,9.981121 9.028919,9.98112 9.02895,9.69028 9.029054,9.631285 9.122213,9.630947" style="fill: white" /><polygon type="contour" points="9.44142,9.028951 9.500418,9.029055 9.500756,9.122215 9.500725,9.150641 9.500418,9.426279 9.500418,9.500554 9.196581,9.500808 9.124886,9.500808 9.047422,9.500554 9.029053,9.500554 9.028985,9.196666 9.028911,9.145203 9.02895,9.043134 9.02895,9.028951 9.124196,9.028918 9.124882,9.028918" style="fill: white" /><polygon type="contour" points="10.084278,9.631285 10.102645,9.631285 10.102716,9.935121 10.102789,9.986629 10.10275,10.088568 10.10275,10.102752 10.007503,10.102786 10.006818,10.102786 9.690279,10.102752 9.631149,10.102647 9.630866,10.009488 9.630869,10.006816 9.630893,9.981063 9.631149,9.705424 9.631149,9.631285 9.935035,9.630979 10.006813,9.630979" style="fill: white" /><polygon type="contour" points="10.088566,9.028951 10.10275,9.028951 10.102784,9.124198 10.102784,9.124884 10.10275,9.441423 10.102645,9.500554 10.009486,9.500834 10.006814,9.500831 9.983485,9.50081 9.981061,9.500808 9.705423,9.500554 9.631148,9.500554 9.630893,9.196666 9.630893,9.124887 9.631149,9.047422 9.631149,9.029055 9.935036,9.028987 9.98636,9.028913" style="fill: white" /><polygon type="contour" points="10.750617,9.028548 10.839717,9.028951 10.855135,9.028951 10.855162,9.041165 10.854929,9.150543 11.02232,9.150543 11.02307,9.345014 11.023354,9.44246 10.962527,9.442551 10.950757,9.442957 10.926639,9.443058 10.856149,9.443058 10.855031,9.500554 10.760721,9.500452 10.730283,9.500452 10.645427,9.500554 10.625318,9.500554 10.625006,9.196666 10.624989,9.126352 10.625317,9.043133 10.625317,9.028951 10.737275,9.028487" style="fill: white" /><polygon type="contour" points="10.855032,9.688748 10.950756,9.688748 11.023354,9.689244 11.022395,9.955687 11.02232,9.981161 11.001969,9.981179 10.854905,9.9812 10.855135,10.102752 10.74369,10.103217 10.640733,10.102752 10.625317,10.102752 10.624965,10.007505 10.624966,10.00682 10.625317,9.69028 10.625318,9.631285 10.720114,9.63132 10.750619,9.63132 10.835055,9.631285 10.855032,9.631285" style="fill: white" /><polygon type="contour" points="10.750617,10.625284 10.750618,10.625284 10.839718,10.62532 10.855135,10.62532 10.855146,10.638414 10.854933,10.75071 11.02233,10.75071 11.022392,10.756416 11.030392,11.030394 10.87572,11.027608 10.753949,11.026249 10.751111,10.951491 10.750925,10.944406 10.750688,10.854923 10.625317,10.855137 10.625275,10.743692 10.625317,10.640736 10.625317,10.62532 10.737275,10.625278" style="fill: white" /><polygon type="contour" points="10.088565,10.62532 10.10275,10.62532 10.103215,10.737277 10.10275,10.839719 10.10275,10.855137 10.090533,10.855164 9.981177,10.85493 9.981177,11.001972 9.981186,11.011888 9.981186,11.022355 9.815111,11.025682 9.690974,11.025636 9.689076,10.951234 9.688672,10.944267 9.688672,10.855034 9.631149,10.855034 9.631251,10.760723 9.631251,10.730285 9.631149,10.64543 9.631149,10.625321 9.935035,10.625008 10.005353,10.624991" style="fill: white" /><polygon type="contour" points="9.15058,10.624997 9.150581,10.624997 9.441421,10.62532 9.500418,10.625321 9.500383,10.720116 9.500383,10.750622 9.500418,10.835056 9.500418,10.855034 9.443029,10.855034 9.443029,10.944266 9.440726,11.025636 9.162053,11.022356 9.150514,11.022355 9.150514,11.016005 9.150524,11.001971 9.147808,10.854911 9.02895,10.855137 9.028485,10.743692 9.02895,10.640737 9.02895,10.62532 9.124196,10.624967" style="fill: white" /><polygon type="contour" points="8.490963,10.62532 8.50638,10.62532 8.506424,10.737277 8.50638,10.83972 8.50638,10.855137 8.493285,10.855148 8.380775,10.854934 8.380775,10.944406 8.37775,11.02625 8.25598,11.027607 8.101308,11.030394 8.109307,10.756416 8.109371,10.75071 8.276779,10.75071 8.276563,10.62532 8.388009,10.625278" style="fill: white" />
</svg>
