<svg width="19.131698" height="19.131699">
<polygon type="contour" points="10.996393,10.786459 11.002707,11.002709 10.806785,10.99918 10.725978,10.998279 10.724094,10.948668 10.723971,10.943967 10.723824,10.88828 10.723824,10.821326 10.724068,10.72407 10.758996,10.72407 10.883968,10.723879 10.99571,10.723879" style="fill: white" /><polygon type="contour" points="9.470029,8.133693 9.471308,8.183809 9.47158,8.188503 9.47158,8.303038 9.564442,8.304373 9.5655,8.304368 9.56658,8.304373 9.66012,8.303038 9.66012,8.188502 9.661671,8.133693 9.849382,8.135903 9.952516,8.135913 9.952516,8.192647 9.952427,8.318065 9.954081,8.407634 9.83664,8.407634 9.6041,8.408603 9.526974,8.408603 9.179261,8.407634 9.179274,8.373233 9.179274,8.318065 9.179185,8.229441 9.179185,8.135912 9.293269,8.133627" style="fill: white" /><polygon type="contour" points="8.324914,8.132524 8.405721,8.133424 8.407606,8.183034 8.407728,8.187736 8.407876,8.243423 8.407876,8.310377 8.407632,8.407634 8.372703,8.407634 8.24773,8.407825 8.13599,8.407825 8.135308,8.345245 8.128993,8.128994" style="fill: white" /><polygon type="contour" points="8.73684,8.325597 8.73684,8.408816 8.715057,8.408816 8.630182,8.408565 8.632188,8.338557 8.632188,8.303925 8.715058,8.30396 8.736831,8.303923" style="fill: white" /><polygon type="contour" points="8.94985,8.303837 8.95153,8.337572 8.95153,8.408613 8.918701,8.408613 8.853589,8.408816 8.853679,8.388892 8.853679,8.303923 8.921004,8.303774" style="fill: white" /><polygon type="contour" points="8.950129,8.873205 8.949849,8.949852 8.919314,8.949852 8.853672,8.950131 8.853679,8.931851 8.853679,8.85368 8.873204,8.853673 8.950129,8.853673" style="fill: white" /><polygon type="contour" points="8.95153,8.632152 8.951205,8.71506 8.950129,8.736905 8.93185,8.736832 8.853679,8.736832 8.853589,8.71506 8.853589,8.63184 8.874644,8.63184" style="fill: white" /><polygon type="contour" points="8.736831,8.651862 8.736831,8.736832 8.715057,8.736841 8.631838,8.736841 8.631838,8.715059 8.632188,8.63219 8.667052,8.63219 8.73684,8.63184" style="fill: white" /><polygon type="contour" points="8.65186,8.85368 8.736831,8.85368 8.736904,8.873205 8.736904,8.950131 8.715057,8.951206 8.63215,8.951531 8.63215,8.918703 8.631838,8.85359" style="fill: white" /><polygon type="contour" points="8.408563,8.665345 8.408814,8.736841 8.388889,8.736832 8.303922,8.736832 8.303861,8.66466 8.303923,8.63219 8.338555,8.63219 8.408563,8.630184" style="fill: white" /><polygon type="contour" points="8.408814,8.874645 8.408611,8.951531 8.375401,8.949852 8.303834,8.949852 8.303959,8.873205 8.303922,8.85368 8.325596,8.85359 8.408814,8.85359" style="fill: white" /><polygon type="contour" points="8.407632,9.295062 8.408601,9.527602 8.408601,9.604729 8.407632,9.954083 8.373232,9.952429 8.192449,9.952276 8.136201,9.952276 8.135929,9.881646 8.135287,9.660641 8.149892,9.66062 8.152718,9.660522 8.302563,9.659892 8.30412,9.580528 8.304372,9.566582 8.304119,9.551755 8.302756,9.471738 8.169836,9.471183 8.152718,9.471183 8.135287,9.471063 8.135516,9.407085 8.136202,9.179428 8.318063,9.179276 8.407632,9.179262" style="fill: white" /><polygon type="contour" points="8.73683,9.244821 8.736826,9.497181 8.736826,9.635093 8.736904,9.951914 8.715058,9.952941 8.632188,9.953467 8.632188,9.837017 8.631882,9.605096 8.631882,9.527234 8.632188,9.179865 8.666623,9.179881 8.736904,9.17979" style="fill: white" /><polygon type="contour" points="8.94985,9.179824 8.94985,9.289704 8.950112,9.525772 8.950112,9.606555 8.949849,9.951881 8.919314,9.951881 8.853672,9.951914 8.853679,9.886882 8.854125,9.635093 8.854125,9.497182 8.853672,9.17979 8.873205,9.17979" style="fill: white" /><polygon type="contour" points="9.528036,9.180175 9.603037,9.180175 9.952274,9.179428 9.952274,9.295455 9.951527,9.528666 9.951527,9.603666 9.952274,9.952276 9.836245,9.952276 9.603037,9.951529 9.528035,9.951529 9.179426,9.952276 9.179426,9.836248 9.180173,9.603667 9.180173,9.528665 9.179426,9.179428 9.295454,9.179428" style="fill: white" /><polygon type="contour" points="10.49986,8.873629 10.499551,8.949946 10.416643,8.95019 10.394797,8.950131 10.394869,8.931851 10.394869,8.85368 10.416642,8.85359 10.49986,8.85359" style="fill: white" /><polygon type="contour" points="10.996393,8.345244 10.99571,8.407825 10.883968,8.407825 10.758996,8.407634 10.724068,8.407634 10.724068,8.372706 10.723824,8.243422 10.723971,8.239178 10.723971,8.187736 10.725978,8.133424 10.806785,8.132523 11.002707,8.128995" style="fill: white" /><polygon type="contour" points="10.499513,8.303925 10.499513,8.408694 10.464647,8.408694 10.394861,8.408816 10.394869,8.388892 10.394869,8.303923 10.46704,8.303863" style="fill: white" /><polygon type="contour" points="10.258496,8.30396 10.278022,8.303923 10.278112,8.325597 10.278112,8.408816 10.258072,8.408816 10.181756,8.408613 10.18185,8.375404 10.18185,8.303837" style="fill: white" /><polygon type="contour" points="9.953465,8.63219 9.951821,8.666625 9.951912,8.736905 9.886879,8.736831 9.634521,8.736828 9.496609,8.736828 9.179788,8.736905 9.17988,8.666626 9.179863,8.63219 9.294685,8.63219 9.526606,8.631882 9.604468,8.631882" style="fill: white" /><polygon type="contour" points="9.951879,8.919316 9.951879,8.949852 9.841996,8.949852 9.605931,8.950113 9.525147,8.950113 9.179822,8.949852 9.179822,8.919317 9.179788,8.853673 9.244819,8.85368 9.496609,8.854127 9.634521,8.854127 9.951912,8.853673" style="fill: white" /><polygon type="contour" points="10.199849,8.85368 10.278022,8.85368 10.278029,8.873205 10.278029,8.950131 10.258496,8.950131 10.18185,8.949851 10.18185,8.919316 10.181571,8.853673" style="fill: white" /><polygon type="contour" points="10.278022,8.651862 10.278022,8.736832 10.258496,8.736905 10.181571,8.736905 10.181512,8.71506 10.181756,8.632152 10.212999,8.632152 10.278112,8.63184" style="fill: white" /><polygon type="contour" points="10.499513,8.632189 10.499551,8.702717 10.49986,8.715059 10.49986,8.736841 10.479836,8.736832 10.394869,8.736832 10.394861,8.71506 10.394861,8.63184 10.416643,8.63184" style="fill: white" /><polygon type="contour" points="10.827742,8.71506 10.827779,8.736832 10.806104,8.736841 10.722887,8.736841 10.722887,8.71506 10.723008,8.63219 10.827777,8.63219" style="fill: white" /><polygon type="contour" points="10.74281,8.85368 10.827779,8.85368 10.827927,8.921005 10.827866,8.949852 10.794129,8.949946 10.72309,8.949946 10.72309,8.918702 10.722887,8.85359" style="fill: white" /><polygon type="contour" points="10.758467,9.179276 10.939249,9.179428 10.995498,9.179428 10.995771,9.250058 10.996414,9.471063 10.981807,9.471085 10.978981,9.471183 10.829134,9.471808 10.82758,9.551755 10.827327,9.565814 10.82758,9.580529 10.828943,9.659964 10.961862,9.660522 10.978982,9.660522 10.996414,9.660641 10.996183,9.72462 10.995498,9.952276 10.813635,9.952429 10.724068,9.952442 10.724068,9.836642 10.723098,9.604728 10.723098,9.527601 10.724068,9.177622" style="fill: white" /><polygon type="contour" points="10.499513,9.294687 10.499819,9.527234 10.499819,9.605096 10.499513,9.95184 10.465076,9.951823 10.394797,9.951914 10.394869,9.886881 10.394874,9.635094 10.394874,9.497181 10.394797,9.179789 10.416642,9.178763 10.499513,9.178238" style="fill: white" /><polygon type="contour" points="10.278022,9.244821 10.277575,9.497181 10.277575,9.635093 10.278029,9.951914 10.258495,9.951914 10.18185,9.951881 10.18185,9.841999 10.181589,9.606555 10.181589,9.525772 10.18185,9.179824 10.212385,9.179824 10.278029,9.17979" style="fill: white" /><polygon type="contour" points="9.951879,10.181852 9.951879,10.212387 9.951912,10.278032 9.88688,10.278024 9.634521,10.277578 9.496609,10.277578 9.179788,10.278031 9.179822,10.212386 9.179822,10.181852 9.289703,10.181852 9.525147,10.181591 9.60593,10.181591" style="fill: white" /><polygon type="contour" points="10.278022,10.742811 10.278022,10.827781 10.210696,10.827929 10.18185,10.827867 10.180171,10.794131 10.180171,10.723092 10.213,10.723092 10.278112,10.722888" style="fill: white" /><polygon type="contour" points="10.501518,10.723139 10.499513,10.793145 10.499513,10.827779 10.416643,10.827744 10.394869,10.827781 10.394861,10.806107 10.394861,10.722888 10.416642,10.722888" style="fill: white" /><polygon type="contour" points="10.756296,10.181852 10.827866,10.181852 10.827742,10.258499 10.827779,10.278024 10.806104,10.278115 10.722887,10.278115 10.722887,10.257058 10.72309,10.180173" style="fill: white" /><polygon type="contour" points="10.74281,10.394872 10.827779,10.394872 10.827838,10.467043 10.827777,10.499515 10.793143,10.499515 10.723137,10.50152 10.723137,10.466357 10.722887,10.394864" style="fill: white" /><polygon type="contour" points="10.49986,10.416644 10.499513,10.499515 10.464646,10.499515 10.394861,10.499862 10.394869,10.479838 10.394869,10.394872 10.416642,10.394864 10.49986,10.394864" style="fill: white" /><polygon type="contour" points="10.499551,10.213 10.49986,10.278115 10.479836,10.278024 10.394869,10.278024 10.394797,10.258498 10.394797,10.181573 10.416643,10.180498 10.499551,10.180173" style="fill: white" /><polygon type="contour" points="10.278022,10.199851 10.278022,10.278024 10.258496,10.278032 10.181571,10.278032 10.181571,10.258498 10.18185,10.181852 10.212386,10.181852 10.278029,10.181573" style="fill: white" /><polygon type="contour" points="10.19985,10.394872 10.278022,10.394872 10.278112,10.416644 10.278112,10.499862 10.257055,10.499862 10.180171,10.499552 10.180495,10.416644 10.181571,10.3948" style="fill: white" /><polygon type="contour" points="9.951821,10.465079 9.951838,10.499515 9.837015,10.499515 9.604468,10.499822 9.526605,10.499822 9.178236,10.499515 9.17988,10.465078 9.179788,10.3948 9.24482,10.394872 9.496608,10.394877 9.634521,10.394877 9.951912,10.3948" style="fill: white" /><polygon type="contour" points="9.95244,10.724069 9.952427,10.75847 9.952427,10.813638 9.952516,10.902261 9.952516,10.995791 9.838431,10.998077 9.661671,10.998012 9.660393,10.947894 9.66012,10.943202 9.66012,10.828664 9.566579,10.82733 9.565501,10.827335 9.564443,10.827329 9.47158,10.828664 9.47158,10.943201 9.470029,10.998011 9.282317,10.995802 9.179185,10.995791 9.179185,10.939057 9.179274,10.813638 9.17762,10.72407 9.29506,10.72407 9.526974,10.723099 9.604101,10.723099" style="fill: white" /><polygon type="contour" points="8.736831,10.742811 8.736831,10.827781 8.664658,10.82784 8.632188,10.827779 8.630182,10.758066 8.630182,10.723139 8.665344,10.723139 8.73684,10.722888" style="fill: white" /><polygon type="contour" points="8.949945,10.723092 8.94985,10.756299 8.94985,10.827867 8.873205,10.827744 8.853679,10.827781 8.853589,10.806106 8.853589,10.722888 8.873627,10.722888" style="fill: white" /><polygon type="contour" points="8.950188,10.416645 8.949945,10.499552 8.918701,10.499552 8.853589,10.499862 8.853679,10.479839 8.853679,10.394872 8.873204,10.3948 8.950129,10.3948" style="fill: white" /><polygon type="contour" points="8.94985,10.181852 8.94985,10.212386 8.950129,10.278032 8.93185,10.278024 8.853679,10.278024 8.853672,10.258499 8.853672,10.181573 8.873204,10.181573" style="fill: white" /><polygon type="contour" points="8.736904,10.181573 8.736831,10.199851 8.736831,10.278024 8.715057,10.278115 8.631838,10.278115 8.631838,10.258076 8.63215,10.181758 8.715057,10.181514" style="fill: white" /><polygon type="contour" points="8.65186,10.394872 8.736831,10.394872 8.73684,10.416645 8.73684,10.499862 8.715058,10.499862 8.632188,10.499515 8.63215,10.428986 8.631838,10.416645 8.631838,10.394864" style="fill: white" /><polygon type="contour" points="8.408611,10.213001 8.408814,10.278115 8.38889,10.278024 8.303922,10.278024 8.303772,10.210696 8.303834,10.181852 8.33757,10.181758 8.408611,10.181758" style="fill: white" /><polygon type="contour" points="8.408814,10.416644 8.408563,10.50152 8.373635,10.50152 8.303923,10.499515 8.303959,10.416645 8.303922,10.394872 8.325595,10.394864 8.408814,10.394864" style="fill: white" /><polygon type="contour" points="8.372703,10.72407 8.407632,10.72407 8.407632,10.758997 8.407876,10.888281 8.407729,10.892522 8.407729,10.943967 8.405721,10.998279 8.324914,10.99918 8.128993,11.002709 8.135308,10.786458 8.13599,10.723879 8.24773,10.723879" style="fill: white" />
</svg>
