<svg width="19.131698" height="19.131699">
<polygon type="contour" points="12.149084,6.818817 12.175891,6.822748 12.19373,6.830439 12.233793,6.853703 12.247112,6.864057 12.276846,6.89697 12.286944,6.909468 12.306001,6.950303 12.309611,6.960469 12.310423,6.966347 12.312999,6.982779 12.313559,6.988802 12.313736,11.329096 12.313736,12.1429 12.313514,12.146769 12.312159,12.154336 12.310666,12.168179 12.305935,12.181727 12.294801,12.208151 12.278244,12.232713 12.267984,12.246958 12.2607,12.255267 12.2269,12.282568 12.211718,12.293324 12.205498,12.296691 12.197779,12.299422 12.160819,12.311229 12.146261,12.313281 12.1429,12.313561 11.11149,12.313561 6.988801,12.313738 6.983715,12.313295 6.973772,12.311509 6.968047,12.310885 6.965045,12.310523 6.957174,12.309269 6.94008,12.302361 6.897639,12.278001 6.889634,12.27147 6.883769,12.266558 6.852532,12.231973 6.848177,12.226871 6.843354,12.218968 6.825933,12.18358 6.822432,12.174168 6.819118,12.150324 6.818139,12.142901 6.817961,7.802607 6.817961,6.988802 6.818183,6.984933 6.81954,6.977368 6.82119,6.963369 6.825833,6.949636 6.836814,6.923582 6.852795,6.899611 6.861662,6.887603 6.869953,6.877586 6.901333,6.851301 6.913761,6.842203 6.923024,6.836806 6.965368,6.822522 6.973313,6.820348 6.985859,6.818422 6.988801,6.818141 8.02021,6.818141 12.142899,6.817964" style="fill: white" />
</svg>
