<svg width="19.131698" height="19.131699">
<polygon type="contour" points="14.133527,15.039089 14.591079,15.039309 14.591079,15.191988 14.590806,15.371663 14.157599,15.371663 13.890642,15.370919 13.890579,15.368674 13.890652,15.366375 13.875063,15.163764 13.877133,15.038807" style="fill: white" /><polygon type="contour" points="14.23489,16.512766 14.330571,16.51297 14.590919,16.513121 14.590919,16.615649 14.591078,16.655892 14.590987,16.677923 14.590668,16.695356 14.590965,16.736743 14.590723,16.739828 14.590723,16.79282 14.590892,16.795392 14.590911,16.845612 14.416219,16.846024 14.258123,16.846024 14.257947,16.750605 14.125273,16.750691 13.864141,16.750525 13.874286,16.632409 13.863512,16.512519" style="fill: white" /><polygon type="contour" points="14.591158,15.915839 14.591158,15.996329 14.171828,15.996372 13.864361,15.996372 13.871971,15.877475 13.869771,15.800776 14.144017,15.80065 14.590806,15.800523" style="fill: white" /><polygon type="contour" points="15.37159,16.613727 15.371591,16.655676 15.166415,16.655492 15.039307,16.655701 15.039307,16.512901 15.264048,16.513007 15.37159,16.51283" style="fill: white" /><polygon type="contour" points="15.996242,16.655518 15.857975,16.655629 15.800556,16.655676 15.800556,16.549831 15.800669,16.51283 15.922643,16.512715 15.996242,16.512715" style="fill: white" /><polygon type="contour" points="16.845612,16.512411 16.8455,16.623561 16.84591,16.806866 16.84591,16.845912 16.676382,16.84609 16.675377,16.845916 16.512336,16.845538 16.51261,16.79282 16.51261,16.739829 16.512534,16.738039 16.512571,16.697566 16.512596,16.680324 16.512715,16.655517 16.512715,16.512717 16.655516,16.512717 16.680321,16.512595 16.697563,16.512573 16.738038,16.512536 16.792817,16.512613 16.795387,16.512394" style="fill: white" /><polygon type="contour" points="16.65557,15.930286 16.655516,15.996243 16.512714,15.996243 16.512827,15.857976 16.512827,15.80067 16.613724,15.80067 16.655673,15.800557" style="fill: white" /><polygon type="contour" points="15.995969,15.80067 15.996242,15.922645 15.996242,15.996243 15.857976,15.995971 15.800669,15.995971 15.800669,15.857976 15.800556,15.800557 15.945314,15.800557" style="fill: white" /><polygon type="contour" points="15.371591,15.800557 15.371591,15.945317 15.37159,15.995971 15.264048,15.99605 15.039179,15.996329 15.039162,15.863956 15.039162,15.800523 15.264048,15.800523" style="fill: white" /><polygon type="contour" points="15.371662,15.264051 15.371591,15.371593 15.125138,15.371593 15.039162,15.371663 15.039307,15.191988 15.039307,15.039309 15.264048,15.039164 15.371662,15.039164" style="fill: white" /><polygon type="contour" points="15.915839,15.03918 15.996326,15.03918 15.996046,15.264051 15.995969,15.371592 15.857975,15.371592 15.800556,15.371593 15.800556,15.125141 15.800522,15.039164" style="fill: white" /><polygon type="contour" points="16.655491,15.166416 16.655673,15.371593 16.549827,15.371593 16.512827,15.371592 16.512636,15.180279 16.512899,15.039309 16.655699,15.039309" style="fill: white" /><polygon type="contour" points="16.70275,13.88278 16.7504,13.880173 16.750461,13.921617 16.750462,13.94872 16.750806,14.11425 16.750606,14.18103 16.75061,14.193568 16.750601,14.257982 16.846022,14.258124 16.846022,14.416218 16.845612,14.590912 16.792818,14.590725 16.736742,14.590968 16.695351,14.590669 16.67792,14.59099 16.655888,14.591081 16.551702,14.591081 16.513119,14.590922 16.513005,14.328069 16.513065,14.13707 16.512839,13.874398" style="fill: white" /><polygon type="contour" points="15.99637,13.864363 15.99637,14.171831 15.996326,14.591161 15.863956,14.590809 15.800522,14.590809 15.800669,14.245338 15.800669,13.869202 15.897401,13.861938" style="fill: white" /><polygon type="contour" points="15.371269,13.876007 15.371269,14.257069 15.371662,14.590809 15.191987,14.591081 15.039307,14.591081 15.039307,14.264373 15.039086,13.874566 15.220668,13.866664" style="fill: white" /><polygon type="contour" points="14.590982,13.861786 14.591147,14.277063 14.590976,14.331702 14.591078,14.59108 14.328603,14.591149 14.185881,14.590802 13.872325,14.590754 13.878915,14.411626 13.884914,14.18112 13.933607,14.180765 13.942042,14.18072 13.94307,14.180704 13.943402,14.180742 14.052338,14.178704 14.063514,14.178159 14.109648,14.175509 14.120312,14.173892 14.173111,14.173109 14.17389,14.120314 14.175508,14.10965 14.178156,14.063517 14.178701,14.052342 14.180738,13.943406 14.1807,13.943074 14.180717,13.942045 14.180762,13.93361 14.181117,13.884917 14.282624,13.880216 14.412846,13.857975" style="fill: white" /><polygon type="contour" points="14.591158,3.135375 14.591158,3.215864 14.590806,3.331179 14.1576,3.331179 14.144017,3.331053 13.86977,3.330927 13.861581,3.2343 13.864361,3.135331 14.171828,3.135331" style="fill: white" /><polygon type="contour" points="14.590911,2.286091 14.590723,2.338883 14.590965,2.394959 14.590667,2.436347 14.590987,2.45378 14.591078,2.475811 14.591078,2.579997 14.590919,2.618581 14.330571,2.618732 14.23489,2.618936 13.863511,2.619185 13.874175,2.499821 13.863937,2.381078 14.125273,2.381011 14.257981,2.381096 14.258123,2.28568 14.416218,2.28568" style="fill: white" /><polygon type="contour" points="16.84591,2.285791 16.84591,2.324838 16.8455,2.508143 16.845612,2.619292 16.792817,2.619091 16.739828,2.619091 16.738037,2.619168 16.697564,2.619132 16.680322,2.619107 16.655515,2.618987 16.512716,2.618987 16.512716,2.520681 16.512715,2.476187 16.512596,2.45138 16.512571,2.434137 16.512534,2.393664 16.512611,2.338882 16.512392,2.336313 16.512336,2.286165 16.675377,2.285787 16.676382,2.285614" style="fill: white" /><polygon type="contour" points="15.930284,2.476132 15.996242,2.476187 15.996242,2.618986 15.857975,2.618874 15.800669,2.618874 15.800669,2.517975 15.800556,2.476027" style="fill: white" /><polygon type="contour" points="15.371591,2.476027 15.371591,2.581872 15.37159,2.618874 15.180277,2.619065 15.039307,2.6188 15.039307,2.476 15.264048,2.475896" style="fill: white" /><polygon type="contour" points="15.264048,3.135651 15.37159,3.135731 15.37159,3.273725 15.371591,3.331145 15.125139,3.331145 15.039162,3.331179 15.039179,3.215863 15.039179,3.135375" style="fill: white" /><polygon type="contour" points="15.264048,4.540896 15.371662,4.540896 15.371269,4.874634 15.371269,5.255696 15.22599,5.250246 15.039086,5.257138 15.039086,5.003428 15.039307,4.540623" style="fill: white" /><polygon type="contour" points="15.996327,4.90523 15.996242,5.267177 15.897402,5.269766 15.800669,5.262501 15.800669,4.886365 15.800521,4.540896 15.915839,4.540543 15.996327,4.540543" style="fill: white" /><polygon type="contour" points="16.677919,4.540713 16.695352,4.541033 16.736743,4.540737 16.739827,4.54098 16.792817,4.54098 16.795388,4.540809 16.845611,4.540792 16.846022,4.715484 16.846022,4.873579 16.750601,4.873756 16.750815,5.006037 16.750707,5.267935 16.600967,5.250885 16.512905,5.257248 16.513065,4.994633 16.513005,4.803635 16.513119,4.540783 16.615646,4.540783 16.655888,4.540623" style="fill: white" /><polygon type="contour" points="16.655491,3.965286 16.655699,4.092394 16.512899,4.092394 16.512636,3.951423 16.512827,3.76011 16.613724,3.76011 16.655673,3.760109" style="fill: white" /><polygon type="contour" points="16.655626,3.273725 16.655673,3.331145 16.549827,3.331145 16.512827,3.331031 16.512714,3.209057 16.512714,3.135461 16.655516,3.135461" style="fill: white" /><polygon type="contour" points="15.995969,3.273724 15.995969,3.331031 15.857975,3.331031 15.800556,3.331145 15.800556,3.186385 15.800669,3.135731 15.922644,3.135461 15.996242,3.135461" style="fill: white" /><polygon type="contour" points="15.995969,3.76011 15.996046,3.86765 15.996327,4.092523 15.863955,4.09254 15.800522,4.09254 15.800522,3.86765 15.800556,3.760109 15.945314,3.760109" style="fill: white" /><polygon type="contour" points="15.371591,3.760109 15.371591,4.006562 15.371662,4.092539 15.191986,4.092394 15.039307,4.092394 15.039162,3.867651 15.039162,3.760039 15.264048,3.760039" style="fill: white" /><polygon type="contour" points="14.591079,3.939714 14.591079,4.092394 14.264371,4.092394 14.133527,4.092614 13.877133,4.092897 13.890652,3.765329 13.890578,3.763028 13.890641,3.760785 13.898267,3.760785 14.590806,3.760039" style="fill: white" /><polygon type="contour" points="14.591078,4.540623 14.590976,4.8 14.591147,4.854639 14.590982,5.269917 14.412845,5.273728 14.282624,5.251487 14.181117,5.246786 14.180739,5.188298 14.178701,5.07936 14.178156,5.068186 14.175507,5.022052 14.17389,5.011389 14.173111,4.958593 14.120312,4.957811 14.109647,4.956193 14.052339,4.952997 13.943403,4.95096 13.943071,4.950999 13.942042,4.950983 13.933607,4.950937 13.884914,4.950583 13.881138,4.849484 13.872325,4.540949 14.18588,4.540902 14.328603,4.540555" style="fill: white" /><polygon type="contour" points="2.618579,4.540783 2.618696,4.803634 2.618635,4.994633 2.618796,5.257248 2.530733,5.250886 2.380991,5.267935 2.380883,5.006037 2.381094,4.873722 2.285678,4.873579 2.285678,4.715483 2.28609,4.540792 2.338881,4.54098 2.394958,4.540736 2.436346,4.541034 2.45378,4.540713 2.47581,4.540623 2.579994,4.540623" style="fill: white" /><polygon type="contour" points="2.456323,2.285787 2.619364,2.286165 2.619089,2.338882 2.619089,2.391876 2.619166,2.393665 2.61913,2.434137 2.619106,2.451381 2.618985,2.476186 2.618985,2.618987 2.476186,2.618987 2.451379,2.619107 2.434135,2.619131 2.393663,2.619167 2.33888,2.619091 2.336311,2.619309 2.28609,2.619292 2.286199,2.508143 2.285789,2.324838 2.285789,2.285791 2.455316,2.285614" style="fill: white" /><polygon type="contour" points="4.873754,2.381096 4.938132,2.381087 4.950672,2.381093 5.017452,2.380892 5.18298,2.381237 5.210084,2.381239 5.251529,2.381301 5.2724,2.49593 5.268187,2.619185 4.896809,2.618936 4.801126,2.618732 4.540781,2.61858 4.540781,2.516054 4.540622,2.475811 4.540712,2.45378 4.541033,2.436347 4.540736,2.394959 4.540978,2.391876 4.540978,2.338882 4.540806,2.336313 4.54079,2.286091 4.715482,2.28568 4.873577,2.28568" style="fill: white" /><polygon type="contour" points="5.259728,3.254228 5.261928,3.330928 4.987681,3.331052 4.540894,3.331179 4.540541,3.215863 4.540541,3.135375 4.959869,3.135331 5.267338,3.135331" style="fill: white" /><polygon type="contour" points="5.241057,3.760785 5.24112,3.763028 5.241046,3.765328 5.256637,3.967939 5.254565,4.092897 4.998172,4.092614 4.540622,4.092394 4.540622,3.939714 4.540894,3.760039 4.9741,3.760039" style="fill: white" /><polygon type="contour" points="4.945819,4.540902 5.259375,4.540949 5.252784,4.720076 5.246783,4.950583 5.188294,4.95096 5.079359,4.952997 5.068185,4.953544 5.022051,4.956193 5.011386,4.957811 4.95859,4.958593 4.957808,5.011388 4.956191,5.022052 4.953541,5.068186 4.952996,5.07936 4.950959,5.188297 4.950998,5.188629 4.950982,5.189657 4.950934,5.198094 4.950581,5.246786 4.849073,5.251487 4.718852,5.273728 4.540716,5.269917 4.540552,4.854639 4.540723,4.800001 4.540622,4.540623 4.803097,4.540555" style="fill: white" /><polygon type="contour" points="4.092393,3.939714 4.092393,4.092394 3.867649,4.09254 3.760038,4.09254 3.760038,3.86765 3.760107,3.760109 4.006561,3.760109 4.092538,3.760039" style="fill: white" /><polygon type="contour" points="4.092538,3.267745 4.092538,3.331179 3.867649,3.331179 3.760107,3.331144 3.760107,3.186384 3.760108,3.135731 3.867649,3.135651 4.092521,3.135375" style="fill: white" /><polygon type="contour" points="4.092393,2.618801 3.867649,2.618696 3.760108,2.618874 3.760108,2.517975 3.760107,2.476027 3.965285,2.476209 4.092393,2.476001" style="fill: white" /><polygon type="contour" points="3.331143,2.581871 3.331029,2.618874 3.209056,2.618986 3.135459,2.618986 3.135459,2.476187 3.273722,2.476074 3.331143,2.476027" style="fill: white" /><polygon type="contour" points="3.273723,3.135731 3.331029,3.135731 3.331029,3.273725 3.331143,3.331145 3.186384,3.331145 3.13573,3.331031 3.135459,3.209057 3.135459,3.135461" style="fill: white" /><polygon type="contour" points="2.618872,3.273725 2.618872,3.331031 2.517974,3.331031 2.476024,3.331145 2.47613,3.201417 2.476186,3.135461 2.565172,3.13546 2.618985,3.13546" style="fill: white" /><polygon type="contour" points="2.618872,3.76011 2.619064,3.951423 2.618799,4.092394 2.475999,4.092394 2.476207,3.965286 2.476025,3.760109 2.581871,3.760109" style="fill: white" /><polygon type="contour" points="3.331143,4.006562 3.331177,4.09254 3.215861,4.092523 3.135373,4.092523 3.13565,3.86765 3.13573,3.76011 3.273723,3.76011 3.331143,3.760109" style="fill: white" /><polygon type="contour" points="3.267743,4.540896 3.331177,4.540896 3.33103,4.886365 3.33103,5.262501 3.234297,5.269766 3.135329,5.26734 3.135329,4.959871 3.135373,4.540543" style="fill: white" /><polygon type="contour" points="4.092393,4.86733 4.092612,5.257138 3.911031,5.265039 3.76043,5.255696 3.76043,4.874635 3.760038,4.540896 3.939713,4.540623 4.092393,4.540623" style="fill: white" /><polygon type="contour" points="2.618796,13.874455 2.618635,14.13707 2.618696,14.328069 2.618579,14.590921 2.516053,14.590922 2.47581,14.591081 2.45378,14.59099 2.436346,14.590669 2.394958,14.590968 2.391874,14.590725 2.33888,14.590725 2.336312,14.590894 2.286089,14.590912 2.285678,14.416219 2.285678,14.258124 2.381094,14.257948 2.381085,14.193568 2.381091,14.18103 2.380891,14.114251 2.381235,13.94872 2.381237,13.921617 2.381299,13.880173 2.527046,13.869567" style="fill: white" /><polygon type="contour" points="3.33103,13.869203 3.33103,14.245338 3.331177,14.590808 3.215861,14.591161 3.135373,14.591161 3.135373,14.226473 3.135459,13.864526 3.234298,13.861938" style="fill: white" /><polygon type="contour" points="4.849074,13.880216 4.950581,13.884917 4.950935,13.93361 4.950982,13.942046 4.950998,13.943074 4.950959,13.943406 4.952996,14.052342 4.953543,14.063517 4.956191,14.10965 4.957809,14.120314 4.958587,14.173109 5.011386,14.173892 5.022051,14.17551 5.079359,14.178704 5.188296,14.180742 5.188627,14.180704 5.189655,14.18072 5.19809,14.180765 5.246784,14.18112 5.250559,14.282217 5.259374,14.590754 4.945818,14.590802 4.803097,14.591149 4.540622,14.59108 4.540723,14.331701 4.540552,14.277063 4.540716,13.861786 4.718851,13.857975" style="fill: white" /><polygon type="contour" points="4.092612,14.128275 4.092393,14.59108 3.867648,14.590808 3.760038,14.590808 3.76043,14.257067 3.76043,13.876007 3.905707,13.881458 4.092612,13.874566" style="fill: white" /><polygon type="contour" points="5.249778,16.702495 5.251529,16.750404 5.210084,16.750464 5.182981,16.750467 5.017451,16.750808 4.950671,16.75061 4.938132,16.750614 4.87372,16.750605 4.873577,16.846024 4.715482,16.846024 4.54079,16.845614 4.540978,16.792819 4.540735,16.736744 4.541033,16.695356 4.540712,16.677923 4.540622,16.655892 4.540622,16.551704 4.540781,16.513121 4.801126,16.512971 4.896809,16.512766 5.268144,16.512628" style="fill: white" /><polygon type="contour" points="5.241047,15.366374 5.24112,15.368673 5.241057,15.370919 5.23343,15.370919 4.540894,15.371663 4.540622,15.191988 4.540622,15.039309 4.867329,15.039309 4.998172,15.039089 5.254566,15.038807" style="fill: white" /><polygon type="contour" points="4.98768,15.80065 5.261928,15.800776 5.270118,15.897403 5.267338,15.996372 4.959869,15.996372 4.540541,15.996329 4.540541,15.91584 4.540894,15.800523 4.9741,15.800523" style="fill: white" /><polygon type="contour" points="3.331143,15.945316 3.331029,15.995971 3.209055,15.996243 3.135459,15.996243 3.13573,15.857977 3.13573,15.80067 3.273723,15.80067 3.331143,15.800557" style="fill: white" /><polygon type="contour" points="3.273723,16.51283 3.331029,16.51283 3.331029,16.613727 3.331143,16.655676 3.201415,16.655572 3.135459,16.655518 3.135459,16.512715" style="fill: white" /><polygon type="contour" points="4.092393,16.512902 4.092393,16.655701 3.965284,16.655493 3.946916,16.65542 3.760107,16.655676 3.760107,16.54983 3.760108,16.51283 3.951421,16.512639" style="fill: white" /><polygon type="contour" points="4.092522,15.91584 4.092522,15.996329 3.867649,15.99605 3.760108,15.995971 3.760108,15.857976 3.760107,15.800557 4.00656,15.800557 4.092538,15.800523" style="fill: white" /><polygon type="contour" points="3.939713,15.039309 4.092393,15.039309 4.092538,15.26405 4.092538,15.371663 3.867649,15.371663 3.760107,15.371593 3.760107,15.12514 3.760038,15.039164" style="fill: white" /><polygon type="contour" points="3.331177,15.26405 3.331142,15.371593 3.186383,15.371593 3.13573,15.371592 3.13565,15.264051 3.135373,15.03918 3.267743,15.039164 3.331177,15.039164" style="fill: white" /><polygon type="contour" points="2.619064,15.180279 2.618872,15.371592 2.517974,15.371592 2.476025,15.371593 2.476207,15.166416 2.475999,15.039309 2.541569,15.039308 2.618799,15.039308" style="fill: white" /><polygon type="contour" points="2.618872,15.80067 2.618985,15.922645 2.618985,15.996243 2.476186,15.996243 2.476071,15.857976 2.476025,15.800557 2.58187,15.800557" style="fill: white" /><polygon type="contour" points="2.33888,16.512613 2.391874,16.512613 2.393662,16.512536 2.434135,16.512573 2.45138,16.512596 2.476185,16.512717 2.618985,16.512717 2.618985,16.655518 2.619106,16.680323 2.61913,16.697566 2.619166,16.73804 2.619089,16.792819 2.619308,16.795392 2.619364,16.845538 2.456322,16.845916 2.455315,16.84609 2.285789,16.845912 2.285789,16.806866 2.286199,16.623561 2.28609,16.512411" style="fill: white" />
</svg>
