<svg width="19.131698" height="19.131699">
<polygon type="contour" points="8.032132,7.954845 8.227253,7.953276 8.229848,8.024878 8.229848,8.093523 8.229743,8.097701 8.229857,8.109307 8.229841,8.123644 8.229841,8.229843 8.132873,8.22994 7.956443,8.22994 7.955695,8.103328 7.952052,7.952055" style="fill: white" /><polygon type="contour" points="11.176541,8.042045 11.175356,8.229843 10.901859,8.229843 10.901859,8.123644 10.901843,8.109307 10.901958,8.097701 10.901852,8.024879 10.902578,8.01995 10.904447,7.953276 11.099567,7.954845 11.179648,7.952055" style="fill: white" /><polygon type="contour" points="10.74401,8.124309 10.783591,8.124378 10.784889,8.162124 10.784889,8.230435 10.723363,8.230435 10.688376,8.230301 10.688376,8.186079 10.688357,8.124022" style="fill: white" /><polygon type="contour" points="11.007393,8.38769 11.007298,8.443346 10.958958,8.443346 10.901401,8.443326 10.901375,8.409445 10.901375,8.34811 11.007324,8.34811" style="fill: white" /><polygon type="contour" points="10.783577,8.387691 10.783577,8.443326 10.744011,8.443326 10.688357,8.443346 10.688357,8.400094 10.688376,8.348124 10.722257,8.34811 10.783592,8.34811" style="fill: white" /><polygon type="contour" points="10.136256,9.694015 10.136538,9.843981 10.136581,9.84398 10.136472,10.035104 10.136662,10.136664 10.035103,10.136474 9.834033,10.139017 9.714232,10.138511 9.662225,10.136419 9.662225,10.008538 9.662272,9.753258 9.662256,9.753258 9.662256,9.714533 9.66227,9.66261 9.706329,9.66261 9.753254,9.662558 9.969384,9.662558 10.136417,9.662531" style="fill: white" /><polygon type="contour" points="10.356124,9.66261 10.356039,9.703806 10.355931,9.843811 10.356001,9.843811 10.356001,9.960779 10.356196,10.136311 10.293494,10.136311 10.250447,10.136238 10.250453,10.034862 10.24787,9.795346 10.248778,9.714534 10.250564,9.662531 10.29665,9.662531" style="fill: white" /><polygon type="contour" points="10.783592,9.69473 10.783528,9.843745 10.784309,9.843744 10.783567,9.943523 10.783606,10.136284 10.721482,10.136284 10.688391,10.136311 10.688391,10.017282 10.688356,9.843811 10.688616,9.843811 10.688244,9.714534 10.68823,9.66261 10.734323,9.66261 10.78346,9.662554" style="fill: white" /><polygon type="contour" points="11.007107,9.66261 11.00691,9.714534 11.007023,9.843929 11.082351,9.843929 11.146945,9.84402 11.175435,9.84402 11.175335,9.942056 11.175241,10.136664 11.065006,10.136664 10.970946,10.136663 10.899012,10.136663 10.899012,10.03534 10.9032,9.754223 10.901391,9.754262 10.901311,9.714534 10.901202,9.662554 10.948546,9.662554" style="fill: white" /><polygon type="contour" points="11.175302,9.096597 11.175395,9.28772 11.006556,9.28772 11.007182,9.433495 11.007107,9.469431 10.955593,9.469431 10.901202,9.469462 10.901267,9.436224 10.901391,9.377439 10.901964,9.377439 10.901816,9.096597 10.901896,8.995146 11.081118,8.995146 11.175241,8.995039" style="fill: white" /><polygon type="contour" points="11.007299,8.775663 11.007395,8.838207 11.007516,8.881253 10.901338,8.881253 10.901409,8.838206 10.901177,8.806804 10.901401,8.775496 10.945622,8.775496" style="fill: white" /><polygon type="contour" points="10.78473,8.806803 10.786083,8.838207 10.786348,8.881111 10.747355,8.881204 10.688391,8.881204 10.688391,8.838207 10.688357,8.775663 10.731609,8.775663 10.783577,8.775496" style="fill: white" /><polygon type="contour" points="10.721482,8.995417 10.786348,8.995417 10.787109,9.09684 10.782986,9.378225 10.783938,9.378225 10.783443,9.417467 10.78346,9.469462 10.741097,9.469462 10.68823,9.469431 10.688357,9.427895 10.688356,9.378277 10.688356,9.170922 10.688391,8.995392" style="fill: white" /><polygon type="contour" points="10.356039,8.775663 10.356039,8.823684 10.356196,8.881204 10.293493,8.881204 10.287069,8.881111 10.250447,8.881253 10.250497,8.838206 10.250497,8.775507 10.293493,8.775507" style="fill: white" /><polygon type="contour" points="10.293493,8.995392 10.356196,8.995392 10.356196,9.114421 10.356001,9.287892 10.355821,9.287892 10.356079,9.417467 10.356124,9.469431 10.304945,9.469431 10.250564,9.469478 10.2504,9.437687 10.247637,9.357912 10.250453,9.096841 10.249836,8.995278" style="fill: white" /><polygon type="contour" points="10.035103,8.995228 10.136662,8.995039 10.136555,9.095654 10.136662,9.287639 10.136037,9.287639 10.136511,9.417467 10.136417,9.469478 10.008535,9.469478 9.753255,9.469428 9.753255,9.469446 9.714231,9.469446 9.66227,9.469431 9.66227,9.425372 9.662256,9.378445 9.662256,9.162313 9.662225,8.995284 9.694014,8.995444 9.77895,8.991989" style="fill: white" /><polygon type="contour" points="10.136236,8.81171 10.136236,8.881253 10.036151,8.881253 9.753474,8.880888 9.753474,8.881053 9.714232,8.880926 9.662225,8.881137 9.662225,8.83505 9.66227,8.775578 9.703803,8.775663 9.843809,8.77577 9.843809,8.775701 9.960778,8.775701 10.136309,8.775507" style="fill: white" /><polygon type="contour" points="10.136309,8.384347 10.136309,8.443311 10.017281,8.443311 9.843809,8.443347 9.843809,8.443093 9.714231,8.443457 9.66227,8.443471 9.66227,8.397379 9.662241,8.348242 9.694728,8.34811 9.843742,8.348168 9.84374,8.347392 9.94352,8.348133 10.136283,8.345354" style="fill: white" /><polygon type="contour" points="10.293494,8.345619 10.356207,8.348124 10.356207,8.38769 10.356039,8.443346 10.308016,8.443346 10.250497,8.443311 10.250497,8.384347 10.250589,8.345354" style="fill: white" /><polygon type="contour" points="10.356039,8.172361 10.356207,8.230301 10.293494,8.230293 10.250447,8.230365 10.250447,8.124186 10.293494,8.124308 10.356039,8.124022" style="fill: white" /><polygon type="contour" points="10.136632,7.956341 10.136632,8.093632 10.136634,8.142377 10.136634,8.229846 10.035338,8.22994 9.753474,8.229786 9.753474,8.230234 9.714232,8.23039 9.662241,8.2305 9.662241,8.183155 9.66227,8.124233 9.714231,8.12439 9.844147,8.124075 9.843741,8.02279 9.844318,8.01745 9.845497,7.953217 9.941036,7.9532" style="fill: white" /><polygon type="contour" points="9.286203,7.953218 9.287955,8.02279 9.287955,8.124621 9.433493,8.124095 9.46909,8.124233 9.46909,8.175748 9.469148,8.2305 9.436907,8.230353 9.378224,8.230234 9.378224,8.229836 9.188378,8.229836 8.995038,8.22994 8.995038,8.160754 8.995067,8.093633 8.995067,7.95634 9.190663,7.9532" style="fill: white" /><polygon type="contour" points="9.378224,8.349448 9.378224,8.347762 9.417167,8.348257 9.469148,8.348242 9.469148,8.390603 9.46909,8.443471 9.427894,8.443346 9.378276,8.443347 9.17092,8.443347 8.995391,8.443311 8.995416,8.410219 8.995416,8.345354 9.097077,8.345354" style="fill: white" /><polygon type="contour" points="9.287889,8.775701 9.28789,8.775879 9.417167,8.775624 9.46909,8.775578 9.46909,8.826754 9.469171,8.881137 9.437685,8.881301 9.35791,8.884064 9.096839,8.881248 8.995463,8.881253 8.995391,8.838206 8.995391,8.775507 9.114418,8.775507" style="fill: white" /><polygon type="contour" points="8.881246,9.096841 8.883827,9.336131 8.882922,9.417467 8.881136,9.469478 8.835049,9.469478 8.775577,9.469431 8.775662,9.427896 8.775766,9.287892 8.775699,9.287892 8.775699,9.170922 8.775504,8.995392 8.838206,8.995392 8.881863,8.995278" style="fill: white" /><polygon type="contour" points="9.095653,8.995146 9.287638,8.995041 9.287638,8.995664 9.417167,8.995191 9.469171,8.995283 9.469171,9.123166 9.469129,9.378445 9.469144,9.378445 9.469144,9.417467 9.46909,9.469431 9.425368,9.469431 9.378443,9.469446 9.162312,9.469446 8.995283,9.469478 8.995442,9.437687 8.995161,9.287639 8.995039,9.287639 8.995145,9.095655 8.995038,8.995039" style="fill: white" /><polygon type="contour" points="8.881252,8.811709 8.881252,8.881253 8.838206,8.881204 8.775504,8.881204 8.775504,8.838206 8.775662,8.775663 8.823683,8.775663 8.881203,8.775507" style="fill: white" /><polygon type="contour" points="8.881203,8.384346 8.881203,8.443311 8.838206,8.443311 8.775662,8.443346 8.775662,8.400094 8.775494,8.348124 8.838206,8.345618 8.88111,8.345354" style="fill: white" /><polygon type="contour" points="8.838206,8.124308 8.881252,8.124186 8.881252,8.230364 8.838205,8.230292 8.806801,8.230114 8.775494,8.230301 8.775494,8.186079 8.775662,8.124022" style="fill: white" /><polygon type="contour" points="8.443344,8.172361 8.443325,8.230301 8.409443,8.230327 8.348108,8.230327 8.348108,8.124378 8.387688,8.124309 8.443344,8.124022" style="fill: white" /><polygon type="contour" points="8.387689,8.348124 8.443325,8.348124 8.443325,8.387691 8.443344,8.443346 8.400091,8.443346 8.348123,8.443326 8.348108,8.409445 8.348108,8.34811" style="fill: white" /><polygon type="contour" points="8.230325,8.409445 8.230298,8.443326 8.186078,8.443326 8.12402,8.443346 8.124307,8.387691 8.124376,8.34811 8.230325,8.34811" style="fill: white" /><polygon type="contour" points="8.231762,8.806804 8.232782,8.838206 8.233127,8.881253 8.124184,8.881253 8.124306,8.838207 8.12402,8.775663 8.172361,8.775663 8.230299,8.775496" style="fill: white" /><polygon type="contour" points="8.443344,8.775663 8.443344,8.823684 8.443309,8.881204 8.410217,8.881111 8.348094,8.881111 8.348109,8.838206 8.348206,8.806804 8.348122,8.775496 8.387688,8.775496" style="fill: white" /><polygon type="contour" points="8.443309,9.11442 8.443345,9.287892 8.443086,9.287892 8.443457,9.417467 8.44347,9.469431 8.397377,9.469431 8.34824,9.469462 8.348108,9.436972 8.348169,9.287906 8.348132,9.287906 8.348132,9.188177 8.348094,8.995417 8.410217,8.995417 8.443309,8.995392" style="fill: white" /><polygon type="contour" points="8.23263,9.096596 8.228445,9.377479 8.230309,9.377439 8.230388,9.417467 8.230499,9.469462 8.183151,9.469462 8.12423,9.469431 8.124388,9.417468 8.124073,9.28772 8.049561,9.28772 7.984756,9.287681 7.956266,9.287681 7.956365,9.189644 7.95646,8.995039 8.232688,8.995039" style="fill: white" /><polygon type="contour" points="8.230352,9.694794 8.230232,9.753477 8.228434,9.753477 8.23263,10.035105 8.232688,10.136663 8.051249,10.136663 7.95646,10.136664 7.956398,10.035104 7.956306,9.843981 8.12462,9.843981 8.124093,9.698206 8.124229,9.66261 8.175746,9.66261 8.230499,9.662554" style="fill: white" /><polygon type="contour" points="8.44347,9.66261 8.443344,9.703806 8.443345,9.753425 8.443345,9.960779 8.443309,10.136311 8.410217,10.136284 8.348094,10.136284 8.348094,10.034624 8.34815,9.753372 8.348132,9.753372 8.348255,9.714533 8.34824,9.662554 8.390601,9.662554" style="fill: white" /><polygon type="contour" points="8.8813,9.694015 8.880675,9.843744 8.880999,9.843744 8.881246,10.034861 8.881863,10.136425 8.838206,10.136311 8.775504,10.136311 8.775504,10.017282 8.775698,9.843811 8.775877,9.84381 8.775622,9.714533 8.775577,9.66261 8.826753,9.66261 8.881136,9.662531" style="fill: white" /><polygon type="contour" points="9.378443,9.662572 9.378443,9.662558 9.417166,9.662558 9.46909,9.66261 9.46909,9.706331 9.469144,9.753257 9.469144,9.969387 9.469171,10.136419 9.437685,10.136258 9.352729,10.139714 9.096595,10.136475 8.995038,10.136664 8.995227,10.035105 8.992678,9.833516 8.993191,9.714534 8.995283,9.662531 9.123164,9.662531" style="fill: white" /><polygon type="contour" points="9.378224,10.250817 9.378224,10.250651 9.417166,10.250779 9.469171,10.250566 9.469171,10.296652 9.46909,10.356126 9.427894,10.356041 9.28789,10.355933 9.28789,10.356003 9.170921,10.356003 8.995391,10.356198 8.995463,10.319994 8.995463,10.250449 9.095547,10.250449" style="fill: white" /><polygon type="contour" points="10.136661,10.97095 10.136632,11.03807 10.136632,11.175363 9.941036,11.178504 9.845497,11.178486 9.843742,11.108914 9.843742,11.006559 9.698204,11.007184 9.66227,11.007109 9.66227,10.955595 9.662241,10.901204 9.695478,10.901269 9.754259,10.901393 9.754249,10.901867 9.943318,10.901867 10.136661,10.899015" style="fill: white" /><polygon type="contour" points="10.293493,10.898919 10.356207,10.901403 10.356207,10.945623 10.356039,11.0073 10.293494,11.007395 10.250447,11.007518 10.250447,10.898575" style="fill: white" /><polygon type="contour" points="10.356039,10.731609 10.356207,10.783579 10.293493,10.783593 10.250589,10.783609 10.250497,10.744866 10.250497,10.688392 10.293493,10.688392 10.356039,10.688358" style="fill: white" /><polygon type="contour" points="11.176005,11.028376 11.179648,11.17965 11.099567,11.176859 10.904447,11.178428 10.901852,11.106826 10.901852,11.037604 10.901958,11.034003 10.901843,11.022396 10.901859,11.008059 10.901859,10.901861 10.998826,10.901764 11.175257,10.901764" style="fill: white" /><polygon type="contour" points="10.783592,11.007326 10.74401,11.007395 10.688357,11.0073 10.688357,10.958959 10.688376,10.901403 10.722257,10.901377 10.783592,10.901377" style="fill: white" /><polygon type="contour" points="10.783577,10.688377 10.783592,10.722259 10.783592,10.783594 10.74401,10.783579 10.688376,10.783579 10.688376,10.744012 10.688357,10.688358 10.731609,10.688358" style="fill: white" /><polygon type="contour" points="11.007393,10.744013 11.007324,10.783594 10.939223,10.783594 10.901267,10.78489 10.901267,10.723365 10.901401,10.688378 10.945621,10.688378 11.007299,10.688358" style="fill: white" /><polygon type="contour" points="11.007395,10.293496 11.007299,10.356041 10.958958,10.356041 10.901401,10.356208 10.898917,10.293495 10.898573,10.250449 11.007516,10.250449" style="fill: white" /><polygon type="contour" points="10.721482,10.250592 10.783606,10.250592 10.783591,10.293495 10.783577,10.356208 10.744011,10.356208 10.688357,10.356041 10.688357,10.308019 10.688391,10.250499" style="fill: white" /><polygon type="contour" points="10.293494,10.250499 10.356196,10.250499 10.356196,10.293495 10.356039,10.356041 10.308016,10.356041 10.250497,10.356198 10.250447,10.319994 10.250447,10.250449" style="fill: white" /><polygon type="contour" points="9.843747,10.251029 9.843747,10.2507 10.036151,10.250449 10.136236,10.250449 10.136309,10.293495 10.136309,10.356198 10.01728,10.356198 9.843808,10.356003 9.843808,10.355823 9.714231,10.356081 9.66227,10.356126 9.66227,10.304949 9.662225,10.250566 9.694014,10.250401" style="fill: white" /><polygon type="contour" points="9.703803,10.688358 9.960778,10.688358 10.136309,10.688392 10.136283,10.721484 10.136283,10.783609 10.034622,10.783609 9.753369,10.78355 9.753369,10.783569 9.714231,10.783445 9.662241,10.783462 9.662241,10.741099 9.66227,10.688232" style="fill: white" /><polygon type="contour" points="9.46909,10.734324 9.469148,10.783462 9.436971,10.783593 9.287955,10.78353 9.287957,10.784311 9.188176,10.783569 8.995416,10.786349 8.995391,10.747357 8.995391,10.688392 9.114419,10.688392 9.28789,10.688358 9.28789,10.688618 9.417166,10.688246 9.46909,10.688232" style="fill: white" /><polygon type="contour" points="9.469148,10.948547 9.46909,11.007108 9.417167,11.006912 9.28755,11.007026 9.287955,11.108913 9.287382,11.114253 9.286203,11.178486 9.190663,11.178504 8.995067,11.175363 8.995067,11.038071 8.995065,10.989326 8.995065,10.901857 9.09636,10.901764 9.378224,10.901915 9.378224,10.90147 9.417167,10.901312 9.469148,10.901203" style="fill: white" /><polygon type="contour" points="8.838205,10.901411 8.881252,10.901339 8.881252,11.007518 8.838206,11.007396 8.775662,11.0073 8.775662,10.95896 8.775494,10.901403 8.806802,10.901179" style="fill: white" /><polygon type="contour" points="8.881203,10.688392 8.881203,10.747356 8.88111,10.786349 8.838205,10.786085 8.806802,10.784733 8.775494,10.783579 8.775494,10.744013 8.775662,10.688358 8.823683,10.688358" style="fill: white" /><polygon type="contour" points="8.881203,10.293495 8.881203,10.356198 8.838205,10.356198 8.775662,10.356041 8.775662,10.308019 8.775504,10.250499 8.838206,10.250499 8.844628,10.250592 8.881252,10.250449" style="fill: white" /><polygon type="contour" points="8.443309,10.293495 8.443344,10.356041 8.400091,10.356041 8.348123,10.356208 8.348108,10.293495 8.348094,10.250592 8.386837,10.250499 8.443309,10.250499" style="fill: white" /><polygon type="contour" points="8.232783,10.293495 8.230299,10.356208 8.186077,10.356208 8.12402,10.356041 8.124306,10.293496 8.124184,10.250449 8.233127,10.250449" style="fill: white" /><polygon type="contour" points="8.230299,10.688378 8.230325,10.722259 8.230325,10.783594 8.124376,10.783594 8.124307,10.744012 8.12402,10.688358 8.17236,10.688358" style="fill: white" /><polygon type="contour" points="8.443344,10.731609 8.443325,10.783579 8.409443,10.783594 8.348108,10.783594 8.348123,10.744012 8.348123,10.688378 8.387688,10.688378 8.443344,10.688358" style="fill: white" /><polygon type="contour" points="8.443325,10.901403 8.443325,10.945624 8.443344,11.0073 8.387689,11.007395 8.348108,11.007326 8.346811,10.969579 8.346811,10.901269 8.408336,10.901269" style="fill: white" /><polygon type="contour" points="8.229841,11.008059 8.229857,11.022396 8.229743,11.034003 8.229848,11.106824 8.229122,11.111753 8.227253,11.178428 8.032132,11.176859 7.952052,11.17965 7.955159,11.089658 7.956345,10.901861 8.229841,10.901861" style="fill: white" />
</svg>
