<svg width="19.131698" height="19.131699">
<polygon type="contour" points="10.596839,8.503661 10.628182,8.50352 10.627965,8.561082 10.627923,8.617331 10.62814,8.791029 10.461421,8.791029 10.461469,8.871152 10.461766,8.94257 10.372474,8.942556 10.340522,8.942556 10.340522,8.942543 10.221984,8.94257 10.18913,8.94257 10.189147,8.871152 10.189147,8.846138 10.189158,8.846138 10.18913,8.711902 10.18913,8.669936 10.216655,8.66993 10.34102,8.670503 10.342193,8.568002 10.342495,8.552896 10.342495,8.527309 10.343065,8.501167" style="fill: white" /><polygon type="contour" points="8.942733,9.338841 8.942733,9.767719 8.942568,9.830021 8.942568,9.862396 8.871151,9.862145 8.846136,9.862145 8.846136,9.86197 8.711899,9.862396 8.669934,9.862396 8.669948,9.835055 8.669712,9.711818 8.616905,9.711655 8.567979,9.711102 8.502611,9.711102 8.503205,9.672 8.502181,9.565501 8.503205,9.459516 8.502611,9.420602 8.567979,9.420602 8.616905,9.420048 8.669825,9.419885 8.669816,9.338841 8.669934,9.269308 8.759223,9.269559 8.791177,9.269559 8.791177,9.269775 8.909713,9.269308 8.942568,9.269308" style="fill: white" /><polygon type="contour" points="8.78904,8.520036 8.789206,8.52731 8.789508,8.568002 8.789508,8.615638 8.789968,8.670281 8.871152,8.670233 8.942568,8.669936 8.942553,8.759226 8.942553,8.791179 8.94254,8.791179 8.942568,8.909715 8.942568,8.94257 8.871152,8.942556 8.846136,8.942556 8.846136,8.942546 8.7119,8.94257 8.669934,8.94257 8.669928,8.915043 8.670499,8.791029 8.503556,8.791029 8.503776,8.61733 8.503735,8.561083 8.503518,8.50352 8.53486,8.503661 8.788636,8.501167" style="fill: white" /><polygon type="contour" points="9.622175,8.502977 9.711101,8.503404 9.711101,8.567981 9.711654,8.616907 9.711817,8.669827 9.79286,8.669818 9.862394,8.669936 9.862143,8.759225 9.862143,8.791179 9.861926,8.791179 9.862394,8.909715 9.862394,8.94257 9.792861,8.942734 9.363982,8.942734 9.301679,8.94257 9.269306,8.94257 9.269557,8.871152 9.269557,8.846138 9.269731,8.846138 9.269306,8.711901 9.269306,8.669936 9.296644,8.66995 9.4206,8.669713 9.4206,8.503404 9.461816,8.503216 9.565501,8.502716" style="fill: white" /><polygon type="contour" points="9.862217,9.338841 9.862217,9.711102 9.862056,9.711102 9.862394,9.830021 9.862394,9.862396 9.79286,9.862219 9.4206,9.862219 9.4206,9.862058 9.301678,9.862396 9.269306,9.862396 9.269483,9.792862 9.269483,9.420602 9.269643,9.420602 9.269306,9.301681 9.269306,9.269308 9.338839,9.269485 9.711101,9.269485 9.711101,9.269645 9.83002,9.269308 9.862394,9.269308" style="fill: white" /><polygon type="contour" points="10.461751,9.296648 10.461986,9.419886 10.514794,9.420048 10.56372,9.420602 10.629089,9.420602 10.628495,9.459703 10.629519,9.566202 10.628495,9.672187 10.629089,9.711102 10.56372,9.711102 10.514794,9.711656 10.461871,9.711818 10.461883,9.792862 10.461766,9.862396 10.372474,9.862145 10.340522,9.862145 10.340522,9.861928 10.221983,9.862396 10.18913,9.862396 10.188967,9.792861 10.188967,9.363984 10.18913,9.301681 10.18913,9.269308 10.260547,9.269559 10.285563,9.269559 10.285563,9.269733 10.419799,9.269308 10.461766,9.269308" style="fill: white" /><polygon type="contour" points="10.461771,10.216659 10.4612,10.340673 10.62814,10.340673 10.627923,10.514371 10.627965,10.570621 10.628182,10.628184 10.596839,10.628043 10.343065,10.630537 10.34266,10.611667 10.342495,10.604394 10.342193,10.5637 10.342193,10.516064 10.341731,10.461422 10.260548,10.461471 10.18913,10.461768 10.189147,10.372476 10.189147,10.340524 10.189161,10.340524 10.18913,10.221986 10.18913,10.189133 10.260548,10.189148 10.285563,10.189148 10.285563,10.189158 10.4198,10.189133 10.461766,10.189133" style="fill: white" /><polygon type="contour" points="9.830021,10.189133 9.862394,10.189133 9.862143,10.260549 9.862143,10.285564 9.861968,10.285564 9.862394,10.419801 9.862394,10.461768 9.835054,10.461753 9.711101,10.461989 9.711101,10.628298 9.669685,10.628488 9.5655,10.628988 9.509099,10.628726 9.4206,10.628018 9.4206,10.461873 9.338839,10.461885 9.269306,10.461768 9.269557,10.372476 9.269557,10.340524 9.269773,10.340524 9.269306,10.221987 9.269306,10.189133 9.33884,10.18897 9.767719,10.18897" style="fill: white" /><polygon type="contour" points="8.942553,10.260549 8.942553,10.285564 8.942542,10.285564 8.942568,10.419802 8.942568,10.461768 8.915041,10.461773 8.79068,10.461201 8.789508,10.563701 8.789206,10.578807 8.789206,10.604394 8.788636,10.630537 8.53486,10.628043 8.503518,10.628184 8.503735,10.57062 8.503776,10.514372 8.503556,10.340673 8.670278,10.340673 8.670231,10.260548 8.669934,10.189133 8.759224,10.189148 8.791177,10.189148 8.791177,10.18916 8.909713,10.189133 8.942568,10.189133" style="fill: white" />
</svg>
