<svg width="19.131698" height="19.131699">
<polygon type="contour" points="7.136883,6.889222 7.186039,6.891004 7.186039,7.062732 7.338497,7.062535 7.407219,7.062448 7.406615,7.133897 7.406615,7.190262 7.405848,7.190262 7.407219,7.318584 7.407219,7.40722 7.325469,7.406616 7.262022,7.406616 7.262022,7.405732 7.141185,7.40722 7.062446,7.40722 7.062534,7.338497 7.06273,7.186041 6.976402,7.186041 6.962609,7.186004 6.889853,7.185137 6.886694,7.085293 6.881754,6.881756" style="fill: white" /><polygon type="contour" points="7.406778,8.264647 7.406778,8.404962 7.406508,8.565585 7.406508,8.699539 7.325469,8.699798 7.189981,8.6996 7.189982,8.699845 7.082748,8.699448 7.050407,8.699193 7.050004,8.699467 7.041825,8.699466 6.976402,8.699466 6.930804,8.699538 6.918352,8.699586 6.890147,8.699759 6.890176,8.665637 6.890615,8.618879 6.890638,8.549823 6.889359,8.445505 6.890483,8.404878 7.06278,8.404619 7.062545,8.258594 7.062446,8.196245 7.133895,8.196834 7.19026,8.196834 7.19026,8.197581 7.318583,8.196245 7.407219,8.196245" style="fill: white" /><polygon type="contour" points="7.406508,8.806445 7.407219,8.8809 7.407219,8.997934 7.325469,8.996819 7.228385,8.995215 7.138755,8.996478 7.062543,8.996478 7.062533,8.907139 7.0624,8.8051 7.151462,8.805121 7.190034,8.805121 7.190034,8.805136 7.360078,8.8051" style="fill: white" /><polygon type="contour" points="7.716565,8.933636 7.716333,8.997102 7.665875,8.996478 7.589825,8.997934 7.590547,8.892988 7.590547,8.806445 7.660037,8.806445 7.718376,8.80508" style="fill: white" /><polygon type="contour" points="8.012834,8.806445 8.013366,8.880901 8.013366,8.997934 7.936811,8.998176 7.870332,8.997102 7.869443,8.888645 7.869749,8.866455 7.869749,8.805875 7.967114,8.805875" style="fill: white" /><polygon type="contour" points="8.997239,8.264647 8.994647,8.404773 8.996119,8.404808 8.995744,8.570452 8.995744,8.699384 8.888644,8.699384 8.805099,8.699375 8.805099,8.335798 8.806444,8.266367 8.806444,8.196875 8.880899,8.196245 8.997932,8.196245" style="fill: white" /><polygon type="contour" points="9.454034,8.264647 9.454535,8.32514 9.454105,8.32514 9.457127,8.605643 9.457127,8.699411 9.3765,8.699384 9.272942,8.699384 9.272705,8.537783 9.272705,8.404808 9.273203,8.404808 9.272382,8.273619 9.271142,8.196245 9.368139,8.195798 9.454034,8.195798" style="fill: white" /><polygon type="contour" points="9.459553,7.87084 9.455657,7.966595 9.454034,8.013812 9.383873,8.013368 9.271142,8.013368 9.271125,7.936813 9.272044,7.870335 9.376655,7.870335" style="fill: white" /><polygon type="contour" points="9.457163,7.657681 9.458866,7.716568 9.333333,7.716568 9.272045,7.716335 9.272382,7.665877 9.271142,7.589827 9.368139,7.58951 9.454034,7.58951" style="fill: white" /><polygon type="contour" points="8.998174,7.65768 8.9971,7.716335 8.888645,7.717851 8.87354,7.718378 8.805078,7.718378 8.805078,7.63265 8.806443,7.590548 8.880898,7.589827 8.997932,7.589827" style="fill: white" /><polygon type="contour" points="8.9971,7.870335 8.998174,7.936813 8.997932,8.013368 8.892986,8.012836 8.806444,8.012836 8.806444,7.934944 8.805873,7.869752 8.888645,7.869445" style="fill: white" /><polygon type="contour" points="8.699409,7.967116 8.699537,8.012835 8.542982,8.013068 8.404961,8.013068 8.404961,8.012582 8.274984,8.013368 8.196242,8.013368 8.196138,7.936813 8.196138,7.871231 8.266624,7.871231 8.326498,7.870568 8.326491,7.871264 8.605642,7.869752 8.699409,7.869752" style="fill: white" /><polygon type="contour" points="8.264643,7.590254 8.404961,7.590254 8.565584,7.590548 8.699537,7.590548 8.699537,7.66004 8.699522,7.718378 8.503132,7.716568 8.326496,7.716568 8.326499,7.716801 8.239231,7.716801 8.196138,7.715834 8.196242,7.667276 8.196242,7.589827" style="fill: white" /><polygon type="contour" points="8.013705,7.65768 8.013705,7.715834 7.936811,7.715834 7.870333,7.716568 7.870333,7.632568 7.871228,7.589833 7.93681,7.589833 8.013366,7.589827" style="fill: white" /><polygon type="contour" points="8.013705,7.871231 8.013705,7.936813 8.013366,8.013367 7.93681,8.013708 7.871228,8.013708 7.871228,7.936813 7.870837,7.87084 7.967324,7.87084" style="fill: white" /><polygon type="contour" points="8.264644,8.196542 8.404962,8.196542 8.565584,8.196875 8.699537,8.196875 8.699537,8.266367 8.699522,8.32506 8.699389,8.325061 8.699389,8.651415 8.699447,8.699448 8.448532,8.699448 8.32506,8.699296 8.32506,8.699523 8.239333,8.699523 8.196872,8.699539 8.19654,8.542986 8.19654,8.404963 8.197022,8.404963 8.196242,8.274985 8.196242,8.196245" style="fill: white" /><polygon type="contour" points="8.013366,8.196244 8.013066,8.264647 8.013066,8.404962 8.012834,8.565586 8.012834,8.699539 7.934941,8.699539 7.869749,8.699411 7.870837,8.500366 7.870837,8.326497 7.870566,8.3265 7.870566,8.239233 7.871228,8.196141 7.936811,8.196141" style="fill: white" /><polygon type="contour" points="7.715832,8.266626 7.716566,8.326735 7.715854,8.326724 7.718376,8.602897 7.718376,8.699523 7.660038,8.699539 7.590547,8.699539 7.590252,8.542985 7.590252,8.404962 7.590942,8.404962 7.589825,8.274985 7.589825,8.196245 7.657679,8.196141 7.715832,8.196141" style="fill: white" /><polygon type="contour" points="7.716566,7.965535 7.715832,8.013708 7.667273,8.013368 7.589825,8.013368 7.589832,7.936814 7.589832,7.871231 7.657678,7.871231 7.716566,7.870335" style="fill: white" /><polygon type="contour" points="7.360405,7.870839 7.407399,7.871231 7.407399,7.936813 7.407219,8.013368 7.330074,8.013368 7.325468,8.012592 7.262022,8.012592 7.262022,8.011457 7.141186,8.013368 7.062446,8.013368 7.06246,7.936814 7.062584,7.870839 7.15116,7.869946 7.261526,7.869946" style="fill: white" /><polygon type="contour" points="7.407399,7.657681 7.407399,7.715834 7.325468,7.716467 7.232518,7.717668 7.105,7.716568 7.062534,7.716568 7.062546,7.65162 7.062446,7.589827 7.133896,7.590466 7.19026,7.590466 7.19026,7.591276 7.318583,7.589827 7.407219,7.589827" style="fill: white" /><polygon type="contour" points="7.657678,7.589833 7.715832,7.589833 7.715832,7.657681 7.716566,7.716568 7.632566,7.716568 7.589832,7.715834 7.589825,7.667276 7.589825,7.589827" style="fill: white" /><polygon type="contour" points="7.657678,7.062463 7.716566,7.062536 7.7173,7.150001 7.7173,7.260881 7.716464,7.325471 7.715832,7.407401 7.667274,7.40722 7.589825,7.40722 7.590465,7.32547 7.590465,7.262024 7.5914,7.262024 7.589825,7.141187 7.589825,7.062448" style="fill: white" /><polygon type="contour" points="8.01259,7.133898 8.01259,7.190262 8.011605,7.190262 8.013366,7.318583 8.013366,7.40722 7.936811,7.407401 7.871228,7.407401 7.870488,7.32547 7.869033,7.261031 7.869208,7.261031 7.870837,7.103905 7.870837,7.062586 7.936811,7.062462 8.013366,7.062448" style="fill: white" /><polygon type="contour" points="8.665635,6.890177 8.697032,6.890264 8.699464,6.968871 8.699464,7.041827 8.699465,7.050007 8.69924,7.050341 8.699565,7.137325 8.699842,7.170519 8.699842,7.218882 8.699373,7.360078 8.699537,7.406508 8.542982,7.40678 8.404962,7.40678 8.404959,7.406068 8.274984,7.40722 8.196242,7.40722 8.196242,7.330076 8.196832,7.325471 8.196832,7.262024 8.197694,7.262024 8.196242,7.141187 8.196242,7.062447 8.258593,7.062547 8.404689,7.062785 8.404876,6.94145 8.404876,6.890485 8.445502,6.889361 8.477675,6.888459 8.478687,6.888395 8.494293,6.887773 8.567395,6.883804" style="fill: white" /><polygon type="contour" points="8.907137,7.062535 8.996476,7.062545 8.995753,7.136125 8.995753,7.190025 8.994875,7.190025 8.996476,7.319695 8.997932,7.40722 8.892986,7.406509 8.806444,7.406509 8.806417,7.325471 8.805119,7.261031 8.805135,7.261031 8.805099,7.102574 8.805099,7.062402" style="fill: white" /><polygon type="contour" points="9.359192,7.062621 9.454964,7.062709 9.456941,7.151162 9.456941,7.261032 9.458701,7.261031 9.456859,7.359577 9.454034,7.407524 9.383874,7.40722 9.271142,7.40722 9.272285,7.32547 9.273729,7.223519 9.272382,7.138758 9.272382,7.062545" style="fill: white" /><polygon type="contour" points="9.858503,7.136125 9.858503,7.190025 9.857513,7.190025 9.859319,7.319695 9.860558,7.40722 9.763189,7.407524 9.677295,7.407524 9.676015,7.32547 9.672999,7.26103 9.673503,7.261031 9.676269,7.104795 9.676269,7.062709 9.772508,7.062621 9.859319,7.062545" style="fill: white" /><polygon type="contour" points="10.32658,7.151464 10.32658,7.190036 10.326547,7.190036 10.326601,7.306422 10.325283,7.32547 10.325256,7.406509 10.250801,7.40722 10.133769,7.40722 10.134884,7.32547 10.136487,7.228362 10.135224,7.138758 10.135224,7.062545 10.224562,7.062536 10.326123,7.062403" style="fill: white" /><polygon type="contour" points="10.726825,6.890485 10.727084,7.062784 10.873105,7.062547 10.935455,7.062448 10.934867,7.133897 10.934867,7.190262 10.93412,7.190262 10.935455,7.318583 10.935455,7.40722 10.867055,7.40678 10.726739,7.40678 10.566114,7.406509 10.432163,7.406509 10.431904,7.32547 10.432101,7.189983 10.431858,7.189984 10.432328,7.062277 10.431716,7.062277 10.431983,7.026835 10.432236,6.997082 10.432236,6.968888 10.434667,6.890264 10.512821,6.890616 10.581876,6.89064 10.686198,6.889361" style="fill: white" /><polygon type="contour" points="11.194887,7.062462 11.260863,7.062586 11.261756,7.151163 11.261756,7.190091 11.261016,7.190093 11.26222,7.306422 11.261211,7.325471 11.260472,7.407401 11.194886,7.407401 11.118332,7.40722 11.118332,7.330076 11.119109,7.325471 11.119109,7.262024 11.120245,7.262024 11.118332,7.141187 11.118332,7.062448" style="fill: white" /><polygon type="contour" points="11.541235,7.133898 11.541235,7.190262 11.540422,7.190262 11.541875,7.318583 11.541875,7.40722 11.47402,7.407401 11.415868,7.407401 11.415235,7.32547 11.414034,7.232523 11.415134,7.105001 11.415134,7.062536 11.480081,7.062548 11.541875,7.062448" style="fill: white" /><polygon type="contour" points="12.24453,7.085293 12.24163,7.185137 12.169089,7.186004 12.155297,7.186041 12.06897,7.186041 12.069164,7.338497 12.069252,7.40722 11.997803,7.406617 11.94144,7.406617 11.94144,7.405851 11.813116,7.40722 11.724481,7.40722 11.725477,7.325471 11.725477,7.262024 11.726933,7.262024 11.724481,7.141188 11.724481,7.062448 11.793202,7.062535 11.94566,7.062732 11.94566,6.891004 11.994813,6.889223 12.249946,6.881756" style="fill: white" /><polygon type="contour" points="12.069239,7.65768 12.069167,7.716568 11.9817,7.717302 11.87082,7.717302 11.80623,7.716466 11.724301,7.715834 11.724481,7.667276 11.724481,7.589827 11.806231,7.590466 11.869677,7.590466 11.869677,7.5914 11.990512,7.589827 12.069252,7.589827" style="fill: white" /><polygon type="contour" points="12.027796,7.87084 12.069116,7.87084 12.069239,7.936813 12.069252,8.013368 11.997803,8.012592 11.94144,8.012592 11.94144,8.011607 11.813115,8.013368 11.724481,8.013368 11.724301,7.936813 11.724301,7.871231 11.80623,7.870492 11.909355,7.869611" style="fill: white" /><polygon type="contour" points="11.806231,8.196834 11.869677,8.196834 11.869677,8.197695 11.990513,8.196245 12.069252,8.196245 12.069152,8.258595 12.06892,8.404692 12.190252,8.404879 12.241217,8.404879 12.24234,8.445504 12.243928,8.494295 12.247898,8.567395 12.241524,8.665638 12.241552,8.699759 12.200894,8.699538 12.155407,8.699538 12.155297,8.699466 12.13462,8.699466 12.104454,8.699307 12.069074,8.699287 11.994088,8.699567 11.961182,8.699845 11.91312,8.699845 11.771622,8.699375 11.725192,8.699539 11.724922,8.542985 11.724922,8.404962 11.725635,8.40496 11.724481,8.274985 11.724481,8.196245 11.801625,8.196245" style="fill: white" /><polygon type="contour" points="10.935158,10.588718 10.935158,10.726741 10.934677,10.726741 10.935455,10.856718 10.935455,10.935457 10.867055,10.935161 10.726739,10.935161 10.566115,10.934828 10.432163,10.934828 10.432163,10.865336 10.432178,10.806642 10.432311,10.806641 10.432311,10.480288 10.432253,10.432256 10.683168,10.432256 10.80664,10.432407 10.80664,10.43218 10.892366,10.43218 10.934826,10.432165" style="fill: white" /><polygon type="contour" points="10.934826,10.238715 10.934826,10.325259 10.865335,10.325259 10.795954,10.326603 10.432326,10.326603 10.432326,10.196239 10.432318,10.135958 10.59392,10.135583 10.726895,10.135583 10.726907,10.136133 10.85808,10.135226 10.935455,10.133771" style="fill: white" /><polygon type="contour" points="9.860148,9.67675 9.860148,9.759503 9.859319,9.859321 9.759118,9.86015 9.676364,9.86015 9.676364,9.759504 9.676269,9.67674 9.79955,9.67674" style="fill: white" /><polygon type="contour" points="9.454964,9.799552 9.454951,9.86015 9.382092,9.859321 9.272382,9.859321 9.271552,9.759503 9.271552,9.67675 9.372198,9.67675 9.454964,9.67674" style="fill: white" /><polygon type="contour" points="8.996816,11.806232 8.995212,11.90334 8.996476,11.992944 8.996476,12.069156 8.907137,12.069167 8.805099,12.068822 8.805119,11.980238 8.805119,11.941668 8.80515,11.941668 8.805099,11.825281 8.806417,11.806233 8.806444,11.725195 8.880898,11.724484 8.997932,11.724484" style="fill: white" /><polygon type="contour" points="7.325468,11.415237 7.407399,11.41587 7.407219,11.464427 7.407219,11.541877 7.325468,11.541236 7.262022,11.541238 7.262022,11.540303 7.141185,11.541877 7.062446,11.541877 7.062461,11.474023 7.062534,11.415136 7.15,11.414403 7.260879,11.414403" style="fill: white" /><polygon type="contour" points="7.407399,11.194888 7.407399,11.260474 7.325469,11.261211 7.222364,11.262092 7.103903,11.260865 7.062584,11.260865 7.06246,11.194888 7.062445,11.118334 7.133896,11.119111 7.19026,11.119111 7.19026,11.120096 7.318582,11.118334 7.407219,11.118334" style="fill: white" /><polygon type="contour" points="7.062275,10.432119 7.137322,10.431848 7.170517,10.431859 7.219008,10.431859 7.360077,10.432329 7.406508,10.432165 7.406778,10.588719 7.406778,10.72674 7.406064,10.726743 7.407219,10.856717 7.407219,10.935457 7.330075,10.935457 7.325469,10.934869 7.262022,10.934869 7.262022,10.934009 7.141186,10.935457 7.062446,10.935457 7.062545,10.873106 7.06278,10.727012 6.941448,10.726826 6.890483,10.726826 6.889359,10.6862 6.88777,10.637408 6.883801,10.564308 6.890176,10.466064 6.890147,10.431943 6.930804,10.432164 6.976294,10.432164 6.976403,10.432238 6.99708,10.432238 7.026833,10.431986 7.062275,10.431718" style="fill: white" /><polygon type="contour" points="7.406508,10.238714 7.406508,10.325259 7.325469,10.325285 7.246371,10.326877 7.102571,10.326124 7.062401,10.326124 7.062534,10.224564 7.062543,10.135226 7.136122,10.135948 7.190023,10.135948 7.190023,10.136823 7.319693,10.135226 7.407219,10.133771" style="fill: white" /><polygon type="contour" points="7.716333,10.134602 7.717849,10.243057 7.718376,10.258162 7.718376,10.326624 7.632649,10.326624 7.590547,10.325259 7.589825,10.250803 7.589825,10.133771 7.657679,10.133528" style="fill: white" /><polygon type="contour" points="7.718376,10.43218 7.716566,10.6309 7.716566,10.892235 7.715832,10.935562 7.667273,10.935457 7.589825,10.935457 7.590252,10.867056 7.590252,10.726741 7.590547,10.566118 7.590547,10.432165 7.660038,10.432165" style="fill: white" /><polygon type="contour" points="8.013066,10.588719 8.013066,10.726741 8.01258,10.726753 8.013366,10.856718 8.013366,10.935457 7.936811,10.935562 7.871228,10.935562 7.871228,10.86696 7.870566,10.807534 7.871255,10.807537 7.869749,10.526061 7.869749,10.432293 7.934941,10.432165 8.012833,10.432165" style="fill: white" /><polygon type="contour" points="8.325059,10.43218 8.32506,10.432314 8.651414,10.432314 8.699447,10.432256 8.699447,10.68317 8.699295,10.806642 8.699522,10.806642 8.699537,10.865336 8.699537,10.934828 8.542982,10.935161 8.404962,10.935161 8.404962,10.934682 8.274984,10.935457 8.196242,10.935457 8.19654,10.867056 8.19654,10.726741 8.196872,10.566117 8.196872,10.432165 8.266364,10.432165" style="fill: white" /><polygon type="contour" points="8.264643,10.134462 8.404806,10.137054 8.404805,10.135583 8.570451,10.135958 8.699382,10.135958 8.699382,10.243057 8.699373,10.326603 8.401796,10.326603 8.401801,10.326396 8.239333,10.326396 8.196871,10.325259 8.196242,10.250803 8.196242,10.133771" style="fill: white" /><polygon type="contour" points="8.013366,10.133771 8.012834,10.238714 8.012834,10.325259 7.93494,10.325259 7.868801,10.326603 7.869443,10.243057 7.870332,10.134602 7.936811,10.133528" style="fill: white" /><polygon type="contour" points="7.918166,9.676568 7.93681,9.677176 8.013809,9.677668 8.013809,9.763562 8.013366,9.86056 7.93681,9.860577 7.870332,9.859657 7.870332,9.757767 7.870383,9.676139" style="fill: white" /><polygon type="contour" points="7.716566,9.798368 7.716333,9.859657 7.665874,9.859321 7.589825,9.86056 7.589509,9.763562 7.589509,9.677668 7.657679,9.677176 7.716566,9.676101" style="fill: white" /><polygon type="contour" points="7.359576,9.674844 7.407522,9.677668 7.407522,9.763562 7.407218,9.86056 7.325469,9.859417 7.223498,9.857973 7.138756,9.859321 7.062543,9.859321 7.06262,9.77251 7.062707,9.67674 7.15116,9.674761 7.26103,9.674761 7.261029,9.673" style="fill: white" /><polygon type="contour" points="7.407522,9.368512 7.407522,9.454408 7.325468,9.455688 7.261029,9.458704 7.261029,9.4582 7.104794,9.455433 7.062707,9.455433 7.06262,9.359194 7.062543,9.272384 7.136123,9.273198 7.190023,9.273198 7.190023,9.274185 7.319694,9.272383 7.407219,9.271144" style="fill: white" /><polygon type="contour" points="7.716333,9.272047 7.716333,9.376656 7.716566,9.458868 7.632948,9.455474 7.589509,9.454408 7.589825,9.383875 7.589825,9.271144 7.657678,9.271127" style="fill: white" /><polygon type="contour" points="8.013366,9.271144 8.013809,9.368513 8.013809,9.454408 7.936811,9.457164 7.870837,9.459555 7.870837,9.332327 7.870332,9.272046 7.93681,9.271127" style="fill: white" /><polygon type="contour" points="8.264643,9.271751 8.404796,9.273961 8.404805,9.272707 8.570451,9.272946 8.699382,9.272946 8.699382,9.376502 8.699409,9.457129 8.501282,9.455433 8.403925,9.455433 8.403926,9.454999 8.239596,9.454999 8.195796,9.454408 8.195796,9.368513 8.196242,9.271144" style="fill: white" /><polygon type="contour" points="8.699373,8.935464 8.699382,8.995746 8.537779,8.996121 8.404806,8.996121 8.404793,8.99557 8.273619,8.996478 8.196242,8.997934 8.196872,8.892989 8.196872,8.806445 8.266363,8.806445 8.335858,8.8051 8.699373,8.8051" style="fill: white" /><polygon type="contour" points="8.888645,8.805346 8.995744,8.805346 8.996476,8.882577 8.996476,8.996478 8.888645,8.995746 8.805345,8.995746 8.805345,8.888646 8.805099,8.8051 8.865134,8.8051" style="fill: white" /><polygon type="contour" points="9.456736,8.888645 9.45495,8.997656 9.382093,8.996478 9.272382,8.996478 9.272943,8.888645 9.272943,8.805346 9.376499,8.805346 9.458961,8.8051" style="fill: white" /><polygon type="contour" points="9.858755,8.805346 9.859319,8.882577 9.859319,8.996478 9.759118,8.997656 9.676364,8.997656 9.674962,8.888645 9.674573,8.805207 9.800094,8.805207" style="fill: white" /><polygon type="contour" points="10.238713,8.196875 10.325256,8.196875 10.325256,8.268657 10.326601,8.338723 10.326601,8.699375 10.196237,8.699375 10.135956,8.699384 10.135581,8.537782 10.135581,8.404807 10.136131,8.404807 10.135224,8.27362 10.133769,8.196245" style="fill: white" /><polygon type="contour" points="9.860558,8.196245 9.85995,8.264646 9.857739,8.404809 9.858995,8.404807 9.858755,8.570451 9.858755,8.699384 9.755199,8.699384 9.674573,8.699411 9.676269,8.502219 9.676269,8.404864 9.676704,8.404864 9.676704,8.239598 9.677295,8.195798 9.763189,8.195798" style="fill: white" /><polygon type="contour" points="9.860575,7.936813 9.860558,8.013368 9.76319,8.013812 9.677295,8.013812 9.677174,7.936813 9.676137,7.870385 9.800056,7.870385 9.859655,7.870335" style="fill: white" /><polygon type="contour" points="9.860558,7.589827 9.860575,7.65768 9.859655,7.716335 9.757765,7.716335 9.676099,7.716568 9.676229,7.63295 9.677295,7.58951 9.76319,7.58951" style="fill: white" /><polygon type="contour" points="10.238713,7.590548 10.325256,7.590548 10.325256,7.659276 10.326622,7.717436 10.198066,7.716567 10.1346,7.716335 10.135224,7.665877 10.133769,7.589827" style="fill: white" /><polygon type="contour" points="10.325827,7.868797 10.325827,7.967115 10.325256,8.012836 10.250801,8.013368 10.133769,8.013368 10.133525,7.936814 10.1346,7.870335 10.243055,7.868657 10.265912,7.868351" style="fill: white" /><polygon type="contour" points="10.633699,7.87084 10.807534,7.87084 10.807533,7.870568 10.866959,7.871231 10.93556,7.871231 10.93556,7.936813 10.935455,8.013368 10.867055,8.013068 10.726738,8.013068 10.566114,8.012836 10.432163,8.012836 10.432163,7.93418 10.43229,7.868796" style="fill: white" /><polygon type="contour" points="10.93556,7.657681 10.93556,7.715834 10.866959,7.715834 10.807532,7.716801 10.807526,7.716229 10.528804,7.717436 10.432178,7.717436 10.432163,7.659276 10.432163,7.590548 10.588717,7.590254 10.726738,7.590254 10.726758,7.590944 10.856716,7.589827 10.935454,7.589827" style="fill: white" /><polygon type="contour" points="11.194887,7.589833 11.260472,7.589833 11.260472,7.657681 11.261367,7.716568 11.166166,7.716568 11.117993,7.715834 11.118332,7.667276 11.118332,7.589827" style="fill: white" /><polygon type="contour" points="11.541868,7.65768 11.541868,7.715834 11.47402,7.715834 11.415134,7.716568 11.415134,7.632567 11.415868,7.589833 11.464426,7.589827 11.541875,7.589827" style="fill: white" /><polygon type="contour" points="11.541868,7.871231 11.541868,7.936814 11.541875,8.013368 11.474021,8.013708 11.415868,8.013708 11.415868,7.936814 11.415134,7.870335 11.499134,7.870335" style="fill: white" /><polygon type="contour" points="11.260863,7.967327 11.260472,8.013708 11.194887,8.013708 11.118332,8.013367 11.117993,7.936813 11.117993,7.871231 11.194887,7.871231 11.260863,7.87084" style="fill: white" /><polygon type="contour" points="11.464425,8.196245 11.541875,8.196245 11.541449,8.264646 11.541449,8.404963 11.541154,8.565585 11.541154,8.699539 11.47166,8.699539 11.413323,8.699523 11.415134,8.5008 11.415134,8.239468 11.415868,8.196141" style="fill: white" /><polygon type="contour" points="11.260472,8.264742 11.261134,8.324167 11.260444,8.324163 11.261949,8.605642 11.261949,8.699411 11.196755,8.699539 11.118865,8.699539 11.118633,8.542985 11.118633,8.404963 11.119119,8.40495 11.118332,8.274985 11.118332,8.196245 11.194886,8.196141 11.260472,8.196141" style="fill: white" /><polygon type="contour" points="10.935158,8.264647 10.935158,8.404962 10.934826,8.565586 10.934826,8.699539 10.865335,8.699539 10.80664,8.699522 10.806639,8.69939 10.480285,8.69939 10.432253,8.699448 10.432253,8.452062 10.432405,8.327888 10.432178,8.327888 10.432163,8.268657 10.432163,8.196875 10.588717,8.196542 10.726739,8.196542 10.726739,8.197022 10.856716,8.196245 10.935455,8.196245" style="fill: white" /><polygon type="contour" points="10.729899,8.805309 10.892366,8.805309 10.934826,8.806445 10.935455,8.8809 10.935455,8.997933 10.867055,8.997241 10.726894,8.994649 10.726895,8.996121 10.561248,8.995746 10.432318,8.995746 10.432318,8.888645 10.432326,8.8051 10.729903,8.8051" style="fill: white" /><polygon type="contour" points="10.326601,8.935464 10.326355,8.995746 10.249124,8.996478 10.135224,8.996478 10.135956,8.888645 10.135956,8.805346 10.243054,8.805346 10.326601,8.8051" style="fill: white" /><polygon type="contour" points="10.243055,9.272946 10.326355,9.272946 10.326355,9.376502 10.326495,9.457129 10.243054,9.456738 10.134044,9.455336 10.134044,9.372584 10.135224,9.272384" style="fill: white" /><polygon type="contour" points="9.859319,9.272384 9.860148,9.372584 9.860148,9.455336 9.759118,9.455336 9.676269,9.455433 9.676269,9.332151 9.676364,9.271554 9.759118,9.271554" style="fill: white" /><polygon type="contour" points="9.454951,9.372583 9.454964,9.455433 9.332149,9.455433 9.271552,9.455336 9.272382,9.382094 9.272382,9.272384 9.372199,9.271554 9.454951,9.271554" style="fill: white" /><polygon type="contour" points="8.997654,9.372583 8.997654,9.455336 8.888645,9.456737 8.805099,9.458963 8.805099,9.332911 8.805345,9.272946 8.882576,9.272384 8.996476,9.272384" style="fill: white" /><polygon type="contour" points="8.888645,9.674964 8.997654,9.67675 8.997654,9.759504 8.996476,9.859321 8.888645,9.858757 8.805345,9.858757 8.805345,9.755201 8.805205,9.674576" style="fill: white" /><polygon type="contour" points="8.699382,9.755201 8.699382,9.858757 8.53778,9.858997 8.404806,9.858997 8.404802,9.858497 8.273618,9.859321 8.196242,9.86056 8.195796,9.763562 8.195796,9.677668 8.2639,9.677668 8.324214,9.677168 8.324217,9.677595 8.605642,9.674576 8.699409,9.674576" style="fill: white" /><polygon type="contour" points="8.995744,10.243058 8.995744,10.326358 8.888644,10.326358 8.805099,10.326603 8.805099,10.196239 8.805345,10.135958 8.882576,10.135226 8.996476,10.135226" style="fill: white" /><polygon type="contour" points="8.996119,10.593922 8.996119,10.726896 8.995568,10.726909 8.996475,10.858082 8.997932,10.935456 8.892987,10.934828 8.806444,10.934828 8.806444,10.865337 8.805099,10.795904 8.805099,10.432329 8.935462,10.432329 8.995744,10.43232" style="fill: white" /><polygon type="contour" points="9.454964,10.629484 9.454964,10.72684 9.454535,10.72684 9.454535,10.892104 9.454034,10.935905 9.383874,10.935458 9.271142,10.935457 9.271751,10.867057 9.273958,10.726895 9.272705,10.726896 9.272943,10.561252 9.272943,10.43232 9.3765,10.43232 9.457127,10.432293" style="fill: white" /><polygon type="contour" points="9.456735,10.243057 9.457127,10.326497 9.331603,10.326497 9.272943,10.326358 9.272382,10.249126 9.272382,10.135226 9.372199,10.134046 9.454951,10.134046" style="fill: white" /><polygon type="contour" points="9.755199,10.43232 9.858755,10.43232 9.858995,10.593921 9.858995,10.726897 9.858495,10.726897 9.859319,10.858083 9.860558,10.935457 9.76319,10.935905 9.677295,10.935905 9.677295,10.867056 9.676704,10.806564 9.676942,10.806564 9.674573,10.52606 9.674573,10.432293" style="fill: white" /><polygon type="contour" points="9.859319,10.135226 9.858755,10.243058 9.858755,10.326358 9.7552,10.326358 9.672739,10.326603 9.674961,10.243058 9.676364,10.134046 9.759117,10.134046" style="fill: white" /><polygon type="contour" points="10.326601,10.432329 10.326601,10.795904 10.325256,10.865337 10.325256,10.934828 10.250801,10.935457 10.133768,10.935457 10.134461,10.867056 10.137052,10.726931 10.135581,10.726897 10.135956,10.561251 10.135956,10.43232 10.243055,10.43232" style="fill: white" /><polygon type="contour" points="10.243054,10.135958 10.326355,10.135958 10.326355,10.243057 10.326601,10.326603 10.266565,10.326603 10.243054,10.326358 10.135956,10.326358 10.135224,10.249126 10.135224,10.135226" style="fill: white" /><polygon type="contour" points="10.326601,9.79879 10.326355,9.858757 10.249123,9.859321 10.135224,9.859321 10.134044,9.759503 10.134044,9.67675 10.243054,9.674965 10.326601,9.672741" style="fill: white" /><polygon type="contour" points="10.629481,9.67674 10.726838,9.67674 10.726839,9.677168 10.892101,9.677168 10.935903,9.677668 10.935903,9.763562 10.935454,9.86056 10.867055,9.859952 10.726895,9.857741 10.726895,9.858997 10.561249,9.858757 10.432318,9.858757 10.432318,9.755201 10.43229,9.674575" style="fill: white" /><polygon type="contour" points="10.935903,9.368512 10.935903,9.454408 10.867054,9.454408 10.806562,9.454999 10.806562,9.454759 10.526058,9.457129 10.43229,9.457129 10.432318,9.376502 10.432318,9.272946 10.59392,9.272707 10.726895,9.272707 10.726895,9.273205 10.858081,9.272384 10.935455,9.271144" style="fill: white" /><polygon type="contour" points="11.261368,9.272047 11.261368,9.373934 11.260862,9.456244 11.213533,9.455135 11.194887,9.454527 11.117889,9.454408 11.118332,9.383875 11.118332,9.271144 11.194887,9.271127" style="fill: white" /><polygon type="contour" points="11.262257,8.888645 11.261367,8.997102 11.194886,8.998176 11.118332,8.997934 11.118865,8.892989 11.118865,8.806445 11.196756,8.806445 11.262898,8.8051" style="fill: white" /><polygon type="contour" points="11.541154,8.806445 11.541875,8.8809 11.541875,8.997934 11.474021,8.998176 11.415367,8.997102 11.413849,8.888646 11.413323,8.873543 11.413323,8.80508 11.499051,8.80508" style="fill: white" /><polygon type="contour" points="12.069165,8.907139 12.069156,8.996478 11.995576,8.995756 11.941677,8.995756 11.941677,8.99488 11.812005,8.996478 11.724481,8.997934 11.725192,8.892988 11.725192,8.806445 11.80623,8.806419 11.87067,8.805121 11.87067,8.805138 12.028649,8.8051 12.06882,8.8051" style="fill: white" /><polygon type="contour" points="11.80623,9.272286 11.908179,9.273729 11.992943,9.272384 12.069155,9.272384 12.06908,9.359193 12.068994,9.455433 11.980539,9.456944 11.870669,9.456944 11.87067,9.458704 11.772123,9.457331 11.724178,9.454408 11.724178,9.368512 11.724481,9.271143" style="fill: white" /><polygon type="contour" points="11.542192,9.368513 11.542192,9.454408 11.474021,9.454527 11.415134,9.455602 11.415134,9.333335 11.415367,9.272047 11.465824,9.272384 11.541875,9.271144" style="fill: white" /><polygon type="contour" points="11.260863,9.799376 11.261368,9.859657 11.194887,9.860577 11.118332,9.86056 11.117889,9.763562 11.117889,9.677668 11.194887,9.674537 11.260863,9.672146" style="fill: white" /><polygon type="contour" points="11.498752,9.676693 11.542192,9.677668 11.541875,9.747829 11.541875,9.86056 11.474021,9.860577 11.415367,9.859657 11.415367,9.755044 11.415134,9.672835" style="fill: white" /><polygon type="contour" points="11.870671,9.673115 12.026905,9.67674 12.068994,9.67674 12.069079,9.77251 12.069156,9.859321 11.995576,9.858506 11.941677,9.858506 11.941677,9.857517 11.812005,9.859321 11.724481,9.86056 11.724178,9.763562 11.724178,9.677668 11.806231,9.676016 11.870671,9.673" style="fill: white" /><polygon type="contour" points="12.089873,10.432238 12.155296,10.432238 12.200895,10.432164 12.213348,10.432115 12.241552,10.431942 12.241524,10.466063 12.241085,10.512823 12.241061,10.581879 12.242341,10.6862 12.241217,10.726826 12.06892,10.727085 12.069152,10.873105 12.069252,10.935457 11.997802,10.934869 11.94144,10.934869 11.94144,10.934122 11.813115,10.935457 11.724481,10.935457 11.724922,10.867056 11.724922,10.726741 11.725192,10.566118 11.725192,10.432165 11.80623,10.431906 11.941505,10.432101 11.941503,10.431859 12.068249,10.432328 12.069485,10.430744" style="fill: white" /><polygon type="contour" points="11.80623,10.134884 11.903314,10.136488 11.992944,10.135226 12.069156,10.135226 12.069165,10.224564 12.06882,10.326124 12.034744,10.3263 11.980237,10.326582 11.941666,10.326582 11.941666,10.326566 11.771621,10.326603 11.725191,10.325259 11.724481,10.250803 11.724481,10.133771" style="fill: white" /><polygon type="contour" points="11.541154,10.238715 11.541154,10.325259 11.471661,10.325259 11.413323,10.326624 11.415134,10.198068 11.415367,10.134602 11.465824,10.135226 11.541875,10.133771" style="fill: white" /><polygon type="contour" points="11.261368,10.134602 11.262257,10.243057 11.261949,10.265247 11.261949,10.32583 11.164586,10.32583 11.118865,10.325259 11.118332,10.250802 11.118332,10.133771 11.194887,10.133528" style="fill: white" /><polygon type="contour" points="11.261949,10.432293 11.260863,10.631336 11.260863,10.805205 11.261134,10.805202 11.261134,10.892469 11.260472,10.935562 11.194886,10.935562 11.118332,10.935457 11.118633,10.867056 11.118633,10.726741 11.118865,10.566117 11.118865,10.432165 11.196755,10.432165" style="fill: white" /><polygon type="contour" points="11.541449,10.588719 11.541449,10.72674 11.540759,10.726741 11.541875,10.856717 11.541875,10.935456 11.47402,10.935562 11.415868,10.935562 11.415868,10.865077 11.414901,10.805202 11.415848,10.805217 11.413323,10.528806 11.413323,10.43218 11.47166,10.432165 11.541154,10.432165" style="fill: white" /><polygon type="contour" points="12.069164,11.793205 12.06897,11.945662 12.155296,11.945662 12.16909,11.9457 12.24163,11.946567 12.24453,12.046411 12.249946,12.249948 11.994813,12.242479 11.94566,12.240699 11.94566,12.068972 11.793203,12.069166 11.724481,12.069253 11.725477,11.997804 11.725477,11.941442 11.72674,11.941442 11.724481,11.813118 11.724481,11.724484 11.80623,11.725479 11.869677,11.725479 11.869677,11.726934 11.990513,11.724484 12.069252,11.724484" style="fill: white" /><polygon type="contour" points="12.0267,11.415136 12.069167,11.415136 12.069153,11.480082 12.069252,11.541877 11.997803,11.541238 11.94144,11.541238 11.94144,11.540427 11.813115,11.541877 11.724481,11.541877 11.724301,11.474023 11.724301,11.41587 11.806231,11.415237 11.899178,11.414036" style="fill: white" /><polygon type="contour" points="11.806231,11.119111 11.869677,11.119111 11.869677,11.120247 11.990512,11.118334 12.069252,11.118334 12.069239,11.194888 12.069116,11.260865 11.980538,11.261758 11.870656,11.261758 11.87067,11.262668 11.771399,11.261827 11.724301,11.260473 11.724301,11.194888 11.724481,11.118334 11.801625,11.118334" style="fill: white" /><polygon type="contour" points="10.935455,11.801627 10.934867,11.806232 10.934867,11.869679 10.934007,11.869679 10.935455,11.990513 10.935455,12.069253 10.873104,12.069153 10.727011,12.068921 10.726825,12.190253 10.726825,12.241219 10.686198,12.242342 10.644914,12.243438 10.637407,12.24393 10.564305,12.247899 10.466061,12.241526 10.434667,12.24144 10.432236,12.162815 10.432236,12.089873 10.430746,12.069507 10.432113,12.068408 10.431846,11.99409 10.431858,11.961184 10.431858,11.912949 10.432326,11.771624 10.432163,11.725195 10.588717,11.724924 10.726739,11.724924 10.726741,11.725635 10.856715,11.724484 10.935455,11.724484" style="fill: white" /><polygon type="contour" points="11.261211,11.806233 11.262666,11.870673 11.262491,11.870673 11.260863,12.027798 11.260863,12.069118 11.194886,12.06924 11.118332,12.069253 11.119109,11.997805 11.119109,11.941442 11.120094,11.941442 11.118332,11.813118 11.118332,11.724484 11.194886,11.724303 11.260472,11.724303" style="fill: white" /><polygon type="contour" points="11.464425,11.724484 11.541875,11.724484 11.541235,11.806233 11.541235,11.869679 11.540299,11.869679 11.541875,11.990513 11.541875,12.069253 11.474021,12.06924 11.415134,12.069168 11.414401,11.981701 11.414401,11.870821 11.415235,11.806233 11.415868,11.724303" style="fill: white" /><polygon type="contour" points="11.261367,11.499135 11.260472,11.541871 11.194887,11.541871 11.118332,11.541877 11.117993,11.474023 11.117993,11.41587 11.194886,11.41587 11.261367,11.415136" style="fill: white" /><polygon type="contour" points="11.541868,11.41587 11.541875,11.464427 11.541875,11.541877 11.474021,11.541871 11.415868,11.541871 11.415868,11.474024 11.415134,11.415136 11.499133,11.415136" style="fill: white" /><polygon type="contour" points="11.464425,11.118334 11.541875,11.118334 11.541868,11.194888 11.541868,11.260474 11.47402,11.260474 11.415134,11.261369 11.415134,11.166168 11.415868,11.117995" style="fill: white" /><polygon type="contour" points="11.260472,11.194889 11.260863,11.260865 11.164375,11.260865 11.117993,11.260474 11.117993,11.194888 11.118332,11.118334 11.194887,11.117995 11.260472,11.117995" style="fill: white" /><polygon type="contour" points="10.93556,11.194888 10.93556,11.260474 10.865075,11.260474 10.8052,11.261136 10.805208,11.260441 10.526058,11.261951 10.43229,11.261951 10.43229,11.164587 10.432163,11.118867 10.588717,11.118635 10.726739,11.118635 10.726739,11.119121 10.856716,11.118334 10.935455,11.118334" style="fill: white" /><polygon type="contour" points="10.628568,11.415136 10.805203,11.415136 10.8052,11.414903 10.892467,11.414903 10.93556,11.41587 10.935455,11.464428 10.935455,11.541877 10.867054,11.54145 10.726738,11.54145 10.566115,11.541156 10.432163,11.541156 10.432163,11.471662 10.432178,11.413325" style="fill: white" /><polygon type="contour" points="10.238712,11.725195 10.325256,11.725195 10.325283,11.806232 10.326875,11.885368 10.326123,12.028651 10.326123,12.068822 10.224562,12.069167 10.135224,12.069157 10.135947,11.995578 10.135947,11.941678 10.136824,11.941678 10.135224,11.812009 10.133769,11.724484" style="fill: white" /><polygon type="contour" points="10.326622,11.499051 10.325256,11.541156 10.250801,11.541877 10.133769,11.541877 10.133526,11.474023 10.1346,11.415369 10.243055,11.413851 10.258158,11.413325 10.326622,11.413325" style="fill: white" /><polygon type="contour" points="10.238712,11.118867 10.325256,11.118867 10.325256,11.196758 10.326601,11.2629 10.243054,11.262257 10.1346,11.26137 10.133526,11.194888 10.133769,11.118334" style="fill: white" /><polygon type="contour" points="9.860558,11.118334 9.860575,11.194889 9.859655,11.26137 9.757766,11.26137 9.675456,11.260865 9.675576,11.165109 9.677295,11.117891 9.763189,11.117891" style="fill: white" /><polygon type="contour" points="9.859655,11.415369 9.859319,11.465827 9.860558,11.541877 9.76319,11.542195 9.677295,11.542195 9.677173,11.474023 9.676099,11.415136 9.798366,11.415136" style="fill: white" /><polygon type="contour" points="9.860558,11.724484 9.859415,11.806232 9.85797,11.908205 9.859319,11.992945 9.859319,12.069157 9.772508,12.069081 9.676269,12.068995 9.674759,11.980541 9.674759,11.870602 9.676268,11.772477 9.677295,11.724181 9.763189,11.724181" style="fill: white" /><polygon type="contour" points="9.455685,11.806233 9.458701,11.870673 9.458585,11.870672 9.454964,12.026908 9.454964,12.068996 9.359192,12.069081 9.272382,12.069157 9.273197,11.995577 9.273197,11.941678 9.274185,11.941678 9.272381,11.812008 9.271142,11.724484 9.368139,11.724181 9.454034,11.724181" style="fill: white" /><polygon type="contour" points="9.45501,11.498753 9.454034,11.542195 9.383873,11.541877 9.271142,11.541877 9.271125,11.474023 9.272045,11.415369 9.376654,11.415369 9.458866,11.415136" style="fill: white" /><polygon type="contour" points="9.457163,11.19489 9.459553,11.260865 9.332323,11.260865 9.272045,11.26137 9.271125,11.194889 9.271142,11.118334 9.368139,11.117891 9.454034,11.117891" style="fill: white" /><polygon type="contour" points="8.998174,11.194888 8.9971,11.261369 8.888645,11.263046 8.866454,11.262907 8.805873,11.262907 8.805873,11.164588 8.806444,11.118867 8.880898,11.118334 8.997932,11.118334" style="fill: white" /><polygon type="contour" points="8.933633,11.415136 8.9971,11.415369 8.996476,11.465826 8.997932,11.541877 8.892986,11.541156 8.806444,11.541156 8.806444,11.472427 8.805078,11.414268" style="fill: white" /><polygon type="contour" points="8.699537,11.472427 8.699537,11.541156 8.542982,11.54145 8.404961,11.54145 8.404942,11.540759 8.274984,11.541877 8.196242,11.541877 8.196138,11.474023 8.196138,11.41587 8.264738,11.41587 8.3244,11.415136 8.324403,11.415473 8.602895,11.414268 8.699522,11.414268" style="fill: white" /><polygon type="contour" points="8.264644,11.724924 8.404961,11.724924 8.565585,11.725195 8.699537,11.725195 8.699796,11.806232 8.699598,11.941507 8.699842,11.941506 8.699447,12.048728 8.699356,12.060118 8.699464,12.134622 8.699464,12.162832 8.697032,12.24144 8.618877,12.241088 8.549821,12.241063 8.445503,12.242343 8.404875,12.241219 8.404616,12.068921 8.258593,12.069154 8.196242,12.069253 8.196832,11.997805 8.196832,11.941442 8.19758,11.941442 8.196242,11.813117 8.196242,11.724484" style="fill: white" /><polygon type="contour" points="8.013366,11.724484 8.013366,11.801627 8.01259,11.806233 8.01259,11.869679 8.011455,11.869679 8.013366,11.990513 8.013366,12.069253 7.93681,12.06924 7.870837,12.069118 7.869944,11.98054 7.869944,11.941613 7.870682,11.94161 7.86948,11.825281 7.870489,11.806233 7.871228,11.724303 7.936811,11.724303" style="fill: white" /><polygon type="contour" points="8.013705,11.41587 8.013366,11.464427 8.013366,11.541877 7.93681,11.541871 7.871228,11.541871 7.871228,11.474024 7.870333,11.415136 7.965534,11.415136" style="fill: white" /><polygon type="contour" points="8.264643,11.118635 8.404962,11.118635 8.565585,11.118867 8.699537,11.118867 8.699537,11.197523 8.699409,11.262906 8.497998,11.260865 8.324164,11.260865 8.324165,11.261136 8.264739,11.260474 8.196138,11.260474 8.196138,11.194888 8.196242,11.118334" style="fill: white" /><polygon type="contour" points="8.013365,11.118334 8.013705,11.194888 8.013705,11.260474 7.93681,11.260474 7.870837,11.260865 7.870837,11.164377 7.871228,11.117995 7.93681,11.117995" style="fill: white" /><polygon type="contour" points="7.715832,11.194888 7.716566,11.261369 7.632567,11.261369 7.589832,11.260474 7.589832,11.194888 7.589825,11.118334 7.657678,11.117995 7.715832,11.117995" style="fill: white" /><polygon type="contour" points="7.716566,11.499136 7.715832,11.541871 7.667273,11.541877 7.589825,11.541877 7.589832,11.474023 7.589832,11.41587 7.657679,11.41587 7.716566,11.415136" style="fill: white" /><polygon type="contour" points="7.716464,11.806232 7.717666,11.899183 7.716566,12.0267 7.716566,12.069168 7.651619,12.069154 7.589825,12.069253 7.590465,11.997805 7.590465,11.941442 7.591277,11.941442 7.589825,11.813118 7.589825,11.724484 7.657679,11.724303 7.715832,11.724303" style="fill: white" /><polygon type="contour" points="7.406615,11.806233 7.406615,11.869679 7.405731,11.869679 7.407219,11.990514 7.407219,12.069253 7.338496,12.069166 7.186039,12.068972 7.186039,12.240698 7.136883,12.242479 6.881754,12.249948 6.886694,12.04641 6.889853,11.946566 6.962609,11.9457 6.976403,11.945662 7.06273,11.945662 7.062533,11.793204 7.062446,11.724484 7.133896,11.725479 7.19026,11.725479 7.19026,11.726741 7.318582,11.724484 7.407219,11.724484" style="fill: white" />
</svg>
