<svg width="19.131698" height="19.131699">
<polygon type="contour" points="8.187044,8.075669 8.349778,8.07748 8.351561,8.124419 8.351561,8.169573 8.351748,8.178982 8.351748,8.248201 8.459551,8.248169 8.528167,8.248058 8.528167,8.282613 8.528433,8.352666 8.528433,8.459554 8.528167,8.528169 8.496838,8.528169 8.432732,8.528435 8.323084,8.528435 8.248057,8.528169 8.248167,8.459553 8.248198,8.352309 8.146247,8.352309 8.113604,8.352368 8.080596,8.352368 8.080601,8.317685 8.079778,8.284424 8.073623,8.073625" style="fill: white" /><polygon type="contour" points="8.432727,8.939354 8.432733,8.939216 8.459552,8.939216 8.528167,8.939095 8.528167,8.973651 8.528376,9.044196 8.528376,9.199913 8.527859,9.407034 8.527832,9.455523 8.528097,9.52013 8.527866,9.52013 8.528167,9.63979 8.527844,9.697032 8.527844,9.76848 8.528376,10.011071 8.528376,10.115957 8.528167,10.192609 8.496837,10.192609 8.352663,10.192339 8.352664,10.192489 8.323083,10.192489 8.248057,10.192609 8.248108,10.115957 8.248116,10.011285 8.080539,10.011285 8.080702,9.942682 8.08079,9.718315 8.248181,9.718315 8.248019,9.636117 8.249187,9.520129 8.248264,9.520129 8.248264,9.413385 8.080734,9.413385 8.080689,9.371423 8.080539,9.120419 8.248116,9.120419 8.248108,9.015746 8.248056,8.939095 8.282612,8.939095" style="fill: white" /><polygon type="contour" points="9.120631,8.939305 9.120631,8.939196 9.199912,8.939196 9.43467,8.939628 9.43467,8.939589 9.455351,8.939617 9.519825,8.93922 9.519825,8.939626 9.639789,8.939095 9.69703,8.939589 9.768478,8.939589 10.011069,8.939196 10.115955,8.939196 10.192608,8.939095 10.192608,8.97365 10.192397,9.120633 10.192507,9.120633 10.192507,9.199914 10.192074,9.434672 10.192114,9.434672 10.192086,9.455522 10.192483,9.52013 10.192072,9.52013 10.192608,9.63979 10.192114,9.697032 10.192114,9.76848 10.192507,10.01107 10.192507,10.115957 10.192608,10.192609 10.158052,10.192609 10.011069,10.1924 10.011069,10.192509 9.931787,10.192509 9.697031,10.192076 9.697031,10.192116 9.67618,10.192088 9.611573,10.192485 9.611573,10.192077 9.49191,10.192609 9.43467,10.192116 9.363221,10.192116 9.120631,10.192509 9.015745,10.192509 8.939093,10.192609 8.939093,10.158052 8.939303,10.011071 8.939194,10.011071 8.939194,9.931789 8.939626,9.697032 8.939586,9.697032 8.939614,9.67635 8.939218,9.611878 8.939624,9.611878 8.939093,9.491912 8.939587,9.434671 8.939587,9.363223 8.939194,9.120633 8.939194,9.015746 8.939093,8.939095 8.973648,8.939095" style="fill: white" /><polygon type="contour" points="9.411423,8.078443 9.413036,8.141675 9.413036,8.248183 9.495586,8.248021 9.611573,8.249193 9.611572,8.248266 9.718203,8.248264 9.718663,8.141676 9.718708,8.133924 9.720277,8.078443 9.896851,8.080522 9.947258,8.080851 10.01121,8.080546 10.01121,8.248118 10.115955,8.248111 10.192608,8.248058 10.192608,8.282613 10.192348,8.432728 10.192487,8.432733 10.192487,8.459554 10.192608,8.528169 10.158051,8.528169 10.087504,8.528378 9.931788,8.528378 9.724668,8.527861 9.67618,8.527834 9.611573,8.528098 9.611573,8.527864 9.49191,8.528169 9.434669,8.527846 9.363221,8.527846 9.12063,8.528378 9.015744,8.528378 8.939093,8.528169 8.939093,8.496839 8.939365,8.352671 8.939214,8.352666 8.939214,8.323086 8.939093,8.248058 9.015744,8.248111 9.120509,8.248118 9.120509,8.080551 9.155809,8.080198 9.184442,8.080851 9.234848,8.080522 9.339909,8.078415" style="fill: white" /><polygon type="contour" points="11.051921,8.284424 11.0511,8.317685 11.051104,8.352368 11.018094,8.352368 10.985454,8.352309 10.883501,8.352309 10.883532,8.459553 10.883643,8.528169 10.849087,8.528169 10.779036,8.528435 10.672147,8.528435 10.603533,8.528169 10.603533,8.49684 10.603264,8.432733 10.603264,8.323085 10.603533,8.248058 10.672148,8.248169 10.779597,8.248201 10.779952,8.178983 10.780139,8.124419 10.780529,8.115108 10.781921,8.07748 10.944655,8.075669 11.058077,8.073625" style="fill: white" /><polygon type="contour" points="10.77903,8.939367 10.779036,8.939216 10.808615,8.939216 10.883643,8.939095 10.883591,9.015746 10.883583,9.120531 10.98815,9.120531 11.051161,9.120419 11.050998,9.189021 11.05091,9.413389 10.883518,9.413389 10.88368,9.495587 10.882523,9.611877 10.883436,9.611878 10.883437,9.718319 11.050964,9.718319 11.05101,9.76028 11.051161,10.011285 10.883583,10.011285 10.883591,10.115957 10.883643,10.192609 10.849088,10.192609 10.698973,10.192351 10.698967,10.192489 10.672148,10.192489 10.603533,10.192609 10.603533,10.158052 10.603324,10.087507 10.603324,9.93179 10.603841,9.724054 10.603867,9.676351 10.603602,9.611878 10.603826,9.611878 10.603533,9.491912 10.603856,9.434671 10.603856,9.363223 10.603324,9.120633 10.603324,9.015746 10.603533,8.939095 10.634862,8.939095" style="fill: white" /><polygon type="contour" points="10.883643,10.603535 10.883532,10.67215 10.883501,10.779395 10.985454,10.779395 11.018094,10.779336 11.051104,10.779336 11.0511,10.814019 11.051921,10.84728 11.058077,11.058079 10.944654,11.056036 10.781921,11.054221 10.780139,11.007284 10.780139,10.962128 10.779952,10.952719 10.779952,10.883502 10.672148,10.883534 10.603533,10.883645 10.603533,10.849089 10.603264,10.779038 10.603264,10.672149 10.603533,10.603535 10.634861,10.603535 10.698968,10.603267 10.808616,10.603267" style="fill: white" /><polygon type="contour" points="9.407647,10.603843 9.45535,10.603869 9.519825,10.603604 9.519825,10.603828 9.639788,10.603535 9.697031,10.603858 9.768478,10.603858 10.011069,10.603326 10.115954,10.603326 10.192608,10.603535 10.192608,10.634864 10.192335,10.779032 10.192487,10.779038 10.192487,10.808617 10.192608,10.883645 10.115955,10.883593 10.011191,10.883585 10.011191,11.051153 9.975889,11.051506 9.947257,11.050852 9.89685,11.051183 9.791791,11.053288 9.720277,11.053261 9.718664,10.990028 9.718664,10.883519 9.636114,10.883683 9.519825,10.882522 9.519825,10.883438 9.413497,10.883439 9.413036,10.990027 9.412993,10.99778 9.411423,11.053261 9.234848,11.051183 9.184442,11.050852 9.12049,11.051158 9.12049,10.883585 9.015744,10.883593 8.939093,10.883645 8.939093,10.849089 8.939352,10.69897 8.939214,10.69897 8.939214,10.672149 8.939093,10.603535 8.973649,10.603535 9.044195,10.603326 9.199911,10.603326" style="fill: white" /><polygon type="contour" points="8.528167,10.603535 8.528167,10.634864 8.528433,10.69897 8.528433,10.808617 8.528167,10.883645 8.459551,10.883534 8.352102,10.883502 8.351747,10.952719 8.351561,11.007283 8.351169,11.016593 8.349778,11.054221 8.187045,11.056035 8.073623,11.058079 8.079778,10.84728 8.080601,10.814019 8.080596,10.779336 8.113604,10.779336 8.146247,10.779395 8.248198,10.779395 8.248167,10.67215 8.248057,10.603535 8.282612,10.603535 8.352664,10.603267 8.459551,10.603267" style="fill: white" />
</svg>
