<svg width="19.131698" height="19.131699">
<polygon type="contour" points="9.558632,9.386143 9.577172,9.386143 9.577527,9.386154 9.577774,9.386173 9.611745,9.390334 9.61227,9.390489 9.64386,9.400102 9.64419,9.400223 9.644517,9.400368 9.672026,9.414035 9.672431,9.414267 9.672815,9.414532 9.702878,9.434248 9.703214,9.434736 9.707944,9.444383 9.723806,9.470591 9.724004,9.471037 9.736286,9.502619 9.736475,9.503134 9.739941,9.516999 9.739988,9.517256 9.74276,9.529041 9.745533,9.563011 9.745559,9.563453 9.744873,9.580623 9.74484,9.581164 9.74276,9.602654 9.739304,9.616483 9.737168,9.627877 9.736974,9.628396 9.724004,9.661348 9.723805,9.661795 9.723574,9.6622 9.703214,9.696968 9.702882,9.697467 9.702389,9.697793 9.672978,9.717427 9.672679,9.717599 9.67235,9.717744 9.644976,9.730827 9.644527,9.73099 9.644232,9.731068 9.611052,9.740677 9.577082,9.745529 9.576812,9.74555 9.554629,9.74555 9.554408,9.745569 9.530143,9.742102 9.52968,9.742062 9.519972,9.740676 9.519852,9.74065 9.519428,9.740528 9.483033,9.728853 9.482701,9.728732 9.482376,9.728588 9.459021,9.717599 9.458723,9.717428 9.446989,9.709249 9.440833,9.707959 9.440331,9.707625 9.432202,9.699497 9.431874,9.699 9.418323,9.684769 9.41803,9.684253 9.409295,9.664438 9.409148,9.664109 9.409089,9.663918 9.393781,9.625821 9.393709,9.62538 9.388237,9.599814 9.388198,9.599163 9.385507,9.565509 9.388198,9.533239 9.388229,9.532601 9.388291,9.532258 9.394531,9.503141 9.394726,9.502619 9.408463,9.468968 9.40861,9.468639 9.418031,9.447451 9.418323,9.446936 9.43933,9.42457 9.439668,9.42408 9.440155,9.423745 9.44709,9.422433 9.459021,9.414105 9.459351,9.413959 9.489569,9.400223 9.489853,9.400112 9.490041,9.400065 9.520545,9.390361 9.520674,9.390333 9.558109,9.386174 9.558566,9.386134" style="fill: white" />
</svg>
