<svg width="19.131698" height="19.131699">
<polygon type="contour" points="9.616822,8.385502 9.711101,8.386265 9.711101,8.504166 9.712324,8.665543 9.419377,8.665543 9.4206,8.60073 9.4206,8.386265 9.449745,8.385312 9.566198,8.383895" style="fill: white" /><polygon type="contour" points="8.517322,8.384017 8.537524,8.384816 8.547809,8.38495 8.663015,8.383506 8.664254,8.419987 8.664254,8.454975 8.66446,8.456672 8.665158,8.488976 8.665433,8.552704 8.665433,8.665435 8.386102,8.665435 8.386016,8.609472 8.385549,8.579088 8.382585,8.485233 8.382285,8.478012 8.380331,8.458778 8.380135,8.380136" style="fill: white" /><polygon type="contour" points="8.665567,9.246068 8.66561,9.292905 8.599003,9.291826 8.553153,9.291826 8.552998,9.244768 8.553024,9.192859 8.612117,9.192778 8.665567,9.192778" style="fill: white" /><polygon type="contour" points="8.841543,9.192859 8.893827,9.192859 8.893698,9.244768 8.893698,9.291967 8.840101,9.292918 8.792185,9.292905 8.792185,9.232518 8.792261,9.192778" style="fill: white" /><polygon type="contour" points="8.665555,8.853131 8.665567,8.893764 8.611439,8.893829 8.553024,8.893829 8.55314,8.848862 8.552996,8.792153 8.665555,8.792153" style="fill: white" /><polygon type="contour" points="8.893762,8.792263 8.893827,8.841545 8.893827,8.893829 8.840101,8.893764 8.792261,8.893764 8.792261,8.840103 8.792151,8.792153 8.85313,8.792153" style="fill: white" /><polygon type="contour" points="8.893827,8.553025 8.893762,8.612118 8.893762,8.665569 8.840101,8.665569 8.792151,8.665557 8.792151,8.552997 8.8401,8.552908" style="fill: white" /><polygon type="contour" points="9.236843,8.553199 9.291824,8.553155 9.291824,8.599006 9.291646,8.665612 9.232515,8.665612 9.192775,8.665569 9.192856,8.611439 9.192856,8.553025" style="fill: white" /><polygon type="contour" points="9.291807,8.840102 9.291965,8.893701 9.244056,8.893829 9.192856,8.893829 9.192775,8.840102 9.192775,8.792263 9.244957,8.792263 9.293022,8.792153" style="fill: white" /><polygon type="contour" points="9.291965,9.244768 9.291824,9.291826 9.232614,9.291826 9.192566,9.291967 9.192856,9.244059 9.192856,9.192859 9.244766,9.192569 9.291965,9.192569" style="fill: white" /><polygon type="contour" points="9.711101,9.939136 9.4206,9.939136 9.4206,9.839878 9.711101,9.839878" style="fill: white" /><polygon type="contour" points="9.938845,9.887644 9.938845,9.938846 9.886934,9.939136 9.839735,9.939136 9.839735,9.886936 9.839877,9.839878 9.899086,9.839878 9.939135,9.839737" style="fill: white" /><polygon type="contour" points="9.939135,9.711102 9.839877,9.711102 9.839877,9.420602 9.939135,9.420602" style="fill: white" /><polygon type="contour" points="9.711101,9.711102 9.4206,9.711102 9.4206,9.420602 9.711101,9.420602" style="fill: white" /><polygon type="contour" points="9.711101,9.291826 9.4206,9.291826 9.4206,9.192569 9.711101,9.192569" style="fill: white" /><polygon type="contour" points="9.887643,9.192859 9.938845,9.192859 9.939135,9.244768 9.939135,9.291967 9.886934,9.291967 9.839877,9.291826 9.839877,9.232616 9.839735,9.192569" style="fill: white" /><polygon type="contour" points="9.711101,8.852715 9.711101,8.893701 9.4206,8.893701 9.41949,8.840102 9.419339,8.792153 9.712361,8.792153" style="fill: white" /><polygon type="contour" points="9.886744,8.792263 9.938925,8.792263 9.938845,8.841544 9.938845,8.893829 9.886934,8.893701 9.839735,8.893701 9.839893,8.840103 9.840055,8.792187" style="fill: white" /><polygon type="contour" points="9.938845,8.553025 9.938925,8.612118 9.938925,8.665569 9.886744,8.665569 9.840055,8.665612 9.839877,8.599006 9.839877,8.553155 9.886935,8.553" style="fill: white" /><polygon type="contour" points="10.74615,8.579088 10.745684,8.609472 10.745598,8.665435 10.466267,8.665435 10.466267,8.552704 10.466539,8.488976 10.46724,8.456673 10.467447,8.419986 10.468686,8.383506 10.583891,8.384949 10.614377,8.384017 10.751565,8.380136" style="fill: white" /><polygon type="contour" points="10.578793,8.840102 10.578676,8.893829 10.519582,8.893764 10.466133,8.893764 10.466133,8.840102 10.466145,8.792153 10.578705,8.792153" style="fill: white" /><polygon type="contour" points="10.33955,8.665557 10.27857,8.665557 10.237939,8.665569 10.237873,8.611439 10.237873,8.553025 10.282837,8.553141 10.33955,8.552998" style="fill: white" /><polygon type="contour" points="10.33955,8.853131 10.339439,8.893764 10.290155,8.893829 10.237873,8.893829 10.237939,8.840102 10.237939,8.792263 10.291599,8.792263 10.33955,8.792153" style="fill: white" /><polygon type="contour" points="10.339439,9.244958 10.33955,9.293024 10.2916,9.291808 10.238003,9.291967 10.237873,9.244059 10.237873,9.192859 10.291599,9.192778 10.339439,9.192778" style="fill: white" /><polygon type="contour" points="10.520262,9.192859 10.578676,9.192859 10.578503,9.236845 10.578548,9.291826 10.532697,9.291826 10.46609,9.291647 10.46609,9.232518 10.466133,9.192778" style="fill: white" /><polygon type="contour" points="10.530971,9.420602 10.747006,9.420602 10.748066,9.517737 10.747833,9.566201 10.746826,9.673806 10.747006,9.711102 10.466158,9.711102 10.466158,9.419378" style="fill: white" /><polygon type="contour" points="10.33955,9.711102 10.238003,9.711102 10.238003,9.420602 10.278986,9.420602 10.33955,9.419341" style="fill: white" /><polygon type="contour" points="10.33955,9.897977 10.339439,9.938926 10.290155,9.938846 10.237873,9.938846 10.238003,9.886936 10.238003,9.839737 10.291599,9.838786 10.33955,9.837419" style="fill: white" /><polygon type="contour" points="10.532697,9.839878 10.578548,9.839878 10.578702,9.886936 10.578676,9.938846 10.519582,9.938926 10.466133,9.938926 10.466133,9.885635 10.46609,9.838799" style="fill: white" /><polygon type="contour" points="10.745684,10.522231 10.74615,10.552615 10.749114,10.64647 10.749413,10.653691 10.751369,10.672926 10.751565,10.751567 10.614377,10.747688 10.594175,10.746887 10.58389,10.746754 10.468686,10.748197 10.467447,10.711717 10.467447,10.676727 10.46724,10.675031 10.466539,10.642727 10.466267,10.578999 10.466267,10.466269 10.745598,10.466269" style="fill: white" /><polygon type="contour" points="10.578561,10.28284 10.578705,10.339552 10.466145,10.339552 10.466145,10.278572 10.466133,10.237941 10.520261,10.237874 10.578676,10.237874" style="fill: white" /><polygon type="contour" points="10.2916,10.237941 10.339439,10.237941 10.339439,10.291601 10.33955,10.339552 10.27857,10.339552 10.237939,10.339441 10.237873,10.290158 10.237873,10.237874" style="fill: white" /><polygon type="contour" points="10.33955,10.466147 10.33955,10.578706 10.291599,10.578794 10.237873,10.578678 10.237939,10.519583 10.237939,10.466135 10.291599,10.466135" style="fill: white" /><polygon type="contour" points="9.711101,10.745439 9.681954,10.746392 9.565501,10.747809 9.514878,10.746203 9.4206,10.745439 9.4206,10.46616 9.711101,10.46616" style="fill: white" /><polygon type="contour" points="9.938925,10.466135 9.938845,10.520263 9.938845,10.578678 9.894856,10.578506 9.839877,10.57855 9.839877,10.532698 9.838798,10.466092 9.899184,10.466092" style="fill: white" /><polygon type="contour" points="9.938925,10.2916 9.938925,10.339441 9.885635,10.339441 9.838798,10.339517 9.838784,10.2916 9.839735,10.238004 9.887643,10.237874 9.938845,10.237874" style="fill: white" /><polygon type="contour" points="9.711101,10.339552 9.4206,10.339552 9.4206,10.238004 9.711101,10.238004" style="fill: white" /><polygon type="contour" points="9.291824,10.532698 9.291824,10.57855 9.244765,10.578703 9.192855,10.578678 9.192775,10.519584 9.192775,10.466135 9.246066,10.466135 9.292903,10.466092" style="fill: white" /><polygon type="contour" points="9.244765,10.238004 9.291965,10.238004 9.292915,10.2916 9.294283,10.339552 9.246066,10.339441 9.192775,10.339441 9.192856,10.290158 9.192856,10.237874" style="fill: white" /><polygon type="contour" points="9.291824,9.839878 9.291824,9.899087 9.291965,9.939136 9.244056,9.938846 9.192856,9.938846 9.192566,9.886935 9.192566,9.839737 9.244766,9.839737" style="fill: white" /><polygon type="contour" points="9.291824,9.711102 9.192566,9.711102 9.192566,9.420602 9.291824,9.420602" style="fill: white" /><polygon type="contour" points="8.893698,9.711102 8.852713,9.711102 8.792151,9.712364 8.792151,9.420602 8.893698,9.420602" style="fill: white" /><polygon type="contour" points="8.8401,9.839895 8.893697,9.839737 8.893827,9.887644 8.893827,9.938846 8.840101,9.938926 8.792261,9.938926 8.792261,9.886746 8.792151,9.83868" style="fill: white" /><polygon type="contour" points="8.665541,9.712326 8.600729,9.711102 8.384695,9.711102 8.383634,9.613965 8.383867,9.565502 8.384874,9.457896 8.384695,9.420602 8.665541,9.420602" style="fill: white" /><polygon type="contour" points="8.66561,9.840057 8.66561,9.899185 8.665567,9.938926 8.611438,9.938846 8.553024,9.938846 8.553198,9.894858 8.553153,9.839878 8.599004,9.839878" style="fill: white" /><polygon type="contour" points="8.612118,10.237941 8.665567,10.237941 8.665567,10.2916 8.665555,10.339552 8.552996,10.339552 8.552907,10.2916 8.553024,10.237874" style="fill: white" /><polygon type="contour" points="8.893762,10.2916 8.893762,10.339441 8.840101,10.339441 8.792151,10.339552 8.792151,10.278572 8.792261,10.237941 8.841542,10.237874 8.893827,10.237874" style="fill: white" /><polygon type="contour" points="8.893827,10.520263 8.893827,10.578678 8.848861,10.578564 8.792151,10.578706 8.792151,10.466147 8.85313,10.466147 8.893762,10.466135" style="fill: white" /><polygon type="contour" points="8.665433,10.578999 8.665159,10.642726 8.664459,10.675032 8.664254,10.711716 8.663015,10.748197 8.54781,10.746754 8.517322,10.747687 8.380135,10.751567 8.38555,10.552615 8.386016,10.522231 8.386102,10.466269 8.665433,10.466269" style="fill: white" />
</svg>
