<svg width="19.131698" height="19.131699">
<polygon type="contour" points="12.109976,11.430763 12.109976,11.591295 12.012546,11.591295 11.897222,11.591456 11.896943,11.429475 11.896943,11.297489 11.990277,11.297468 12.110032,11.297087" style="fill: white" /><polygon type="contour" points="11.591205,11.299689 11.591205,11.432301 11.591414,11.591415 11.299845,11.591415 11.297103,11.42909 11.297748,11.391047 11.29941,11.361976 11.301321,11.301322 11.361974,11.299411 11.391046,11.297749 11.429089,11.297105" style="fill: white" /><polygon type="contour" points="11.591455,12.012383 11.591294,12.109978 11.430761,12.109978 11.297085,12.110034 11.297116,12.012547 11.297626,11.897223 11.591455,11.897223" style="fill: white" /><polygon type="contour" points="12.110032,11.991722 12.110032,12.110034 12.012546,12.109978 11.897176,12.109978 11.897176,12.012547 11.897222,11.897223 12.01238,11.897223 12.109976,11.897178" style="fill: white" /><polygon type="contour" points="12.109789,13.19421 12.110032,13.249862 12.110032,13.317968 12.009493,13.317859 11.897222,13.317862 11.896999,13.246091 11.896999,13.194196 12.01913,13.194195" style="fill: white" /><polygon type="contour" points="11.591302,13.220853 11.591302,13.258353 11.591414,13.360806 11.591414,13.494778 11.43085,13.494051 11.300305,13.494781 11.298099,13.347652 11.299264,13.195414 11.441878,13.195414 11.591136,13.195362" style="fill: white" /><polygon type="contour" points="11.591231,12.784075 11.591171,12.92755 11.439482,12.927467 11.297291,12.927467 11.297565,12.803578 11.297085,12.645572 11.430762,12.645523 11.591294,12.645523" style="fill: white" /><polygon type="contour" points="11.99172,12.645572 12.110032,12.645572 12.109789,12.784075 12.109789,12.927676 12.005311,12.927677 11.896999,12.927558 11.896987,12.784076 11.897175,12.645523" style="fill: white" /><polygon type="contour" points="12.784074,12.645576 12.927673,12.645576 12.927673,12.784075 12.927548,12.92755 12.759535,12.92755 12.645574,12.927676 12.645571,12.802413 12.645571,12.645572" style="fill: white" /><polygon type="contour" points="12.927651,13.194477 12.927651,13.266941 12.927548,13.31839 12.772532,13.318284 12.645571,13.317968 12.645575,13.256566 12.645575,13.19421 12.784073,13.19421" style="fill: white" /><polygon type="contour" points="13.493788,13.194877 13.499007,13.352817 13.502317,13.502318 13.270422,13.494441 13.239395,13.497831 13.19549,13.494881 13.19549,13.355967 13.195344,13.268173 13.195344,13.195346 13.268172,13.195346 13.397267,13.19438" style="fill: white" /><polygon type="contour" points="13.318283,12.772534 13.318389,12.92755 13.266979,12.927204 13.194272,12.927204 13.194272,12.763507 13.194207,12.645576 13.249859,12.645572 13.317967,12.645572" style="fill: white" /><polygon type="contour" points="13.261973,11.897223 13.31786,11.897223 13.317857,12.009495 13.317967,12.110034 13.256563,12.10979 13.194207,12.10979 13.194207,12.005312 13.194192,11.897001" style="fill: white" /><polygon type="contour" points="12.927555,11.897 12.927673,12.005313 12.927673,12.10979 12.80241,12.110034 12.645571,12.110034 12.645522,12.012547 12.645522,11.897178 12.784074,11.896989" style="fill: white" /><polygon type="contour" points="12.803576,11.297567 12.927464,11.297292 12.927464,11.439483 12.927548,11.591172 12.784073,11.591233 12.645522,11.591295 12.645522,11.430763 12.645571,11.297087" style="fill: white" /><polygon type="contour" points="13.329516,11.301576 13.494779,11.300307 13.494049,11.430852 13.494775,11.591415 13.360803,11.591415 13.264144,11.591358 13.195344,11.591279 13.195411,11.441879 13.195411,11.299265" style="fill: white" /><polygon type="contour" points="13.495006,5.849978 13.493788,5.936826 13.413282,5.937136 13.397267,5.937323 13.328654,5.937323 13.195344,5.936357 13.195344,5.761405 13.19549,5.636823 13.270421,5.637264 13.502317,5.629385" style="fill: white" /><polygon type="contour" points="12.927651,5.86476 12.927651,5.937226 12.764501,5.937226 12.645575,5.937494 12.645571,5.881842 12.645571,5.813736 12.772532,5.81342 12.927548,5.813312" style="fill: white" /><polygon type="contour" points="12.927548,6.204154 12.927548,6.372167 12.927673,6.486128 12.80241,6.486132 12.645571,6.486132 12.645575,6.347627 12.645575,6.204028 12.784073,6.204028" style="fill: white" /><polygon type="contour" points="13.318283,6.359169 13.317967,6.486132 13.256564,6.486128 13.194207,6.486128 13.194207,6.347627 13.194272,6.2045 13.266979,6.2045 13.318389,6.204154" style="fill: white" /><polygon type="contour" points="13.494775,7.540288 13.494049,7.70085 13.494779,7.831398 13.34765,7.833602 13.195411,7.832435 13.195411,7.689823 13.195344,7.540425 13.22085,7.540401 13.258349,7.540401 13.360804,7.540287 13.428056,7.540287" style="fill: white" /><polygon type="contour" points="13.317857,7.122208 13.31786,7.234479 13.246088,7.234703 13.194192,7.234703 13.194192,7.112572 13.194207,7.021914 13.249859,7.02167 13.317967,7.02167" style="fill: white" /><polygon type="contour" points="12.784074,7.021914 12.927673,7.021914 12.927673,7.12639 12.927555,7.234703 12.784074,7.234714 12.645522,7.234526 12.645571,7.139981 12.645571,7.021671" style="fill: white" /><polygon type="contour" points="12.784073,7.54047 12.927548,7.540531 12.927464,7.69222 12.927464,7.83441 12.803575,7.834137 12.645571,7.834618 12.645522,7.700938 12.645522,7.540408" style="fill: white" /><polygon type="contour" points="11.591414,7.831854 11.429089,7.834597 11.391045,7.833952 11.361974,7.832289 11.301321,7.830381 11.299411,7.769726 11.297748,7.740655 11.297103,7.70261 11.299687,7.540497 11.432299,7.540497 11.591414,7.540287" style="fill: white" /><polygon type="contour" points="12.109976,7.540408 12.109976,7.700939 12.110032,7.834618 12.012546,7.834585 11.897222,7.834074 11.897222,7.540247 12.012381,7.540247" style="fill: white" /><polygon type="contour" points="12.109976,7.119155 12.109976,7.234526 12.012547,7.234526 11.897222,7.234478 11.897222,7.11932 11.897176,7.021726 11.99172,7.02167 12.110032,7.02167" style="fill: white" /><polygon type="contour" points="11.430761,7.021726 11.591294,7.021726 11.591294,7.119155 11.591455,7.234479 11.429474,7.234759 11.297488,7.234759 11.297466,7.141424 11.297085,7.02167" style="fill: white" /><polygon type="contour" points="11.591231,6.347628 11.591294,6.486181 11.430762,6.486181 11.297085,6.486132 11.296848,6.347627 11.297438,6.204154 11.591171,6.204154" style="fill: white" /><polygon type="contour" points="12.110032,6.329291 12.110032,6.486132 12.012546,6.486181 11.897175,6.486181 11.896987,6.347628 11.896999,6.204146 12.005312,6.204028 12.109789,6.204028" style="fill: white" /><polygon type="contour" points="12.109789,5.875136 12.109789,5.937494 12.005311,5.937494 11.896999,5.937508 11.897222,5.869728 11.897222,5.813842 12.009493,5.813846 12.110032,5.813736" style="fill: white" /><polygon type="contour" points="11.43085,5.637652 11.591414,5.636927 11.591414,5.770898 11.591204,5.867908 11.591137,5.936342 11.441878,5.936289 11.299264,5.936289 11.301575,5.802183 11.300305,5.636922" style="fill: white" /><polygon type="contour" points="5.864719,6.2045 5.937428,6.2045 5.937428,6.368196 5.937493,6.486128 5.88184,6.486132 5.813734,6.486132 5.813418,6.35917 5.81331,6.204154" style="fill: white" /><polygon type="contour" points="5.861278,5.637263 5.892304,5.633874 5.93621,5.636823 5.93621,5.775735 5.936356,5.863528 5.936356,5.936358 5.863527,5.936358 5.734432,5.937323 5.637911,5.936826 5.632693,5.778885 5.629383,5.629385" style="fill: white" /><polygon type="contour" points="6.359168,5.81342 6.48613,5.813736 6.486126,5.875136 6.486126,5.937494 6.347625,5.937494 6.204049,5.937226 6.204049,5.86476 6.204152,5.813312" style="fill: white" /><polygon type="contour" points="6.48613,6.32929 6.48613,6.486132 6.347625,6.486128 6.204027,6.486128 6.204027,6.347627 6.204152,6.204154 6.372165,6.204154 6.486126,6.204028" style="fill: white" /><polygon type="contour" points="7.830123,5.802182 7.832434,5.936289 7.689821,5.936289 7.540563,5.936342 7.540399,5.91085 7.540399,5.873351 7.540285,5.770897 7.540285,5.636927 7.70085,5.637652 7.831396,5.636922" style="fill: white" /><polygon type="contour" points="7.692217,6.204237 7.834409,6.204237 7.834135,6.328125 7.834616,6.486132 7.700936,6.486181 7.540406,6.486181 7.540468,6.347628 7.540528,6.204154" style="fill: white" /><polygon type="contour" points="7.122207,5.813846 7.234477,5.813842 7.234701,5.885613 7.234701,5.937508 7.112569,5.937508 7.021911,5.937493 7.021669,5.881841 7.021669,5.813736" style="fill: white" /><polygon type="contour" points="7.234701,6.204146 7.234712,6.347628 7.234524,6.486181 7.13998,6.486132 7.021669,6.486132 7.021911,6.347628 7.021911,6.204028 7.126387,6.204028" style="fill: white" /><polygon type="contour" points="7.234757,7.702227 7.234757,7.834213 7.141423,7.834235 7.021669,7.834618 7.021724,7.700938 7.021724,7.540408 7.119153,7.540408 7.234477,7.540247" style="fill: white" /><polygon type="contour" points="6.486179,7.700938 6.48613,7.834618 6.347626,7.834853 6.204152,7.834262 6.204152,7.540531 6.347626,7.54047 6.486179,7.540408" style="fill: white" /><polygon type="contour" points="5.867555,7.540345 5.936356,7.540425 5.936288,7.689823 5.936288,7.832436 5.802182,7.830127 5.63692,7.831398 5.63765,7.70085 5.636925,7.540287 5.770896,7.540287" style="fill: white" /><polygon type="contour" points="5.875135,7.021914 5.937493,7.021914 5.937493,7.126391 5.937508,7.234703 5.869727,7.234479 5.81384,7.234479 5.813844,7.122208 5.813734,7.02167" style="fill: white" /><polygon type="contour" points="6.48613,7.021671 6.486179,7.119156 6.486179,7.234526 6.347626,7.234715 6.204144,7.234702 6.204027,7.12639 6.204027,7.021914 6.329289,7.02167" style="fill: white" /><polygon type="contour" points="7.119153,7.021726 7.234524,7.021726 7.234524,7.119154 7.234477,7.234479 7.119318,7.234479 7.021724,7.234526 7.021669,7.139981 7.021669,7.021671" style="fill: white" /><polygon type="contour" points="7.834583,7.119154 7.834072,7.234479 7.540245,7.234479 7.540245,7.11932 7.540406,7.021726 7.700937,7.021726 7.834616,7.02167" style="fill: white" /><polygon type="contour" points="7.834595,7.702609 7.833949,7.740655 7.832287,7.769725 7.830378,7.830381 7.769724,7.832289 7.740653,7.833951 7.702607,7.834597 7.540494,7.832013 7.540494,7.6994 7.540285,7.540287 7.831853,7.540287" style="fill: white" /><polygon type="contour" points="7.740653,11.29775 7.769724,11.299411 7.830378,11.301322 7.832287,11.361975 7.83395,11.391046 7.834595,11.429091 7.831853,11.591415 7.540285,11.591415 7.540285,11.299847 7.702607,11.297105" style="fill: white" /><polygon type="contour" points="7.234712,12.784075 7.234701,12.927557 7.126387,12.927677 7.021911,12.927677 7.021669,12.802412 7.021669,12.645572 7.119153,12.645523 7.234524,12.645523" style="fill: white" /><polygon type="contour" points="7.234477,13.261976 7.234477,13.317863 7.122207,13.317859 7.021669,13.317969 7.021911,13.256566 7.021911,13.19421 7.126388,13.19421 7.234701,13.194195" style="fill: white" /><polygon type="contour" points="7.689821,13.195414 7.832434,13.195414 7.830124,13.329519 7.831396,13.494781 7.70085,13.494051 7.540285,13.494778 7.540285,13.360808 7.540494,13.263796 7.540563,13.195362" style="fill: white" /><polygon type="contour" points="7.834616,12.645572 7.834135,12.803576 7.834409,12.927467 7.692217,12.927467 7.540528,12.92755 7.540468,12.784075 7.540406,12.645523 7.700936,12.645523" style="fill: white" /><polygon type="contour" points="7.834234,11.990279 7.834616,12.110034 7.700937,12.109978 7.540406,12.109978 7.540406,12.012547 7.540245,11.897223 7.702225,11.896944 7.834212,11.896944" style="fill: white" /><polygon type="contour" points="7.234477,11.897223 7.234477,12.012384 7.234524,12.109977 7.13998,12.110034 7.021669,12.110034 7.021724,12.012547 7.021724,11.897178 7.119153,11.897178" style="fill: white" /><polygon type="contour" points="7.119152,11.297118 7.234477,11.297629 7.234477,11.591456 7.119318,11.591456 7.021724,11.591295 7.021724,11.430764 7.021669,11.297087" style="fill: white" /><polygon type="contour" points="5.936288,11.441879 5.936356,11.591279 5.910849,11.591303 5.873349,11.591303 5.770897,11.591415 5.636925,11.591415 5.63765,11.430852 5.63692,11.300307 5.802182,11.301576 5.936288,11.299265" style="fill: white" /><polygon type="contour" points="6.486179,11.430763 6.486179,11.591295 6.347626,11.591233 6.204152,11.591172 6.204235,11.439483 6.204235,11.297292 6.328124,11.297566 6.48613,11.297087" style="fill: white" /><polygon type="contour" points="6.486179,11.897177 6.48613,11.991722 6.48613,12.110034 6.347625,12.10979 6.204027,12.10979 6.204027,12.005313 6.204144,11.897001 6.347626,11.896989" style="fill: white" /><polygon type="contour" points="5.937508,12.019131 5.937493,12.10979 5.88184,12.110034 5.813734,12.110034 5.813844,12.009495 5.81384,11.897223 5.885611,11.897001 5.937508,11.897001" style="fill: white" /><polygon type="contour" points="5.875135,12.645576 5.937493,12.645576 5.937493,12.784075 5.937428,12.927204 5.864719,12.927204 5.81331,12.92755 5.813418,12.772533 5.813734,12.645572" style="fill: white" /><polygon type="contour" points="6.486126,12.784076 6.486126,12.927677 6.347625,12.927677 6.204152,12.92755 6.204152,12.759535 6.204027,12.645575 6.329289,12.645572 6.48613,12.645572" style="fill: white" /><polygon type="contour" points="6.48613,13.249861 6.48613,13.317969 6.359167,13.318284 6.204152,13.31839 6.204049,13.266941 6.204049,13.194477 6.367199,13.194477 6.486126,13.19421" style="fill: white" /><polygon type="contour" points="5.936356,13.195346 5.936356,13.370299 5.93621,13.494881 5.861277,13.494441 5.629383,13.502318 5.636692,13.281726 5.637911,13.194877 5.718416,13.194567 5.734432,13.19438 5.803045,13.19438" style="fill: white" />
</svg>
