<svg width="19.131698" height="19.131699">
<polygon type="contour" points="8.75194,8.728848 8.78157,8.729569 8.785667,8.729751 8.853528,8.729751 9.02322,8.729771 9.023988,8.896419 9.101573,8.89649 9.155497,8.89653 9.155497,8.964154 9.155361,9.024555 9.155361,9.101574 9.155497,9.155499 9.109323,9.155499 9.066888,9.155362 8.973754,9.155362 8.896528,9.155499 8.896488,9.101575 8.896418,9.024143 8.729783,9.024143 8.729777,8.803651 8.729771,8.789103 8.729307,8.764361 8.728632,8.728634" style="fill: white" /><polygon type="contour" points="9.024555,9.288123 9.101574,9.288123 9.155497,9.288052 9.155497,9.334225 9.155245,9.377131 9.155245,9.789511 9.155497,9.843653 9.109322,9.843653 9.066887,9.843581 8.973754,9.843581 8.896528,9.843653 8.896474,9.789511 8.896404,9.711102 8.730372,9.711102 8.729789,9.60166 8.729292,9.566201 8.729399,9.54854 8.729789,9.530571 8.730372,9.420602 8.896404,9.420602 8.896474,9.342191 8.896528,9.288052 8.964151,9.288052" style="fill: white" /><polygon type="contour" points="9.37713,9.288233 9.789509,9.288233 9.843651,9.288052 9.843651,9.334224 9.843469,9.377131 9.843469,9.789511 9.843651,9.843653 9.797478,9.843653 9.754571,9.843472 9.342191,9.843472 9.28805,9.843653 9.28805,9.797479 9.288231,9.754571 9.288231,9.342192 9.28805,9.288052 9.334221,9.288052" style="fill: white" /><polygon type="contour" points="9.70288,8.730158 9.711101,8.730374 9.711101,8.896407 9.78951,8.896477 9.843651,8.89653 9.843651,8.964153 9.843579,9.024556 9.843579,9.101574 9.843651,9.155499 9.797477,9.155499 9.75457,9.155246 9.34219,9.155246 9.28805,9.155499 9.28805,9.109324 9.288121,9.06689 9.288121,8.973756 9.28805,8.89653 9.34219,8.896477 9.4206,8.896407 9.4206,8.730374 9.530041,8.729791 9.565576,8.729274" style="fill: white" /><polygon type="contour" points="10.402392,8.764361 10.401929,8.789103 10.401923,8.803651 10.401647,8.865658 10.401699,9.023852 10.401742,9.02408 10.235281,9.02408 10.235211,9.101575 10.235172,9.155499 10.167547,9.155499 10.107144,9.155362 10.030127,9.155362 9.976204,9.155499 9.976204,9.109325 9.976339,9.06689 9.976339,8.973757 9.976204,8.89653 10.030127,8.89649 10.108481,8.896418 10.108481,8.729771 10.278172,8.729751 10.346034,8.729751 10.350129,8.729569 10.379759,8.728848 10.403068,8.728634" style="fill: white" /><polygon type="contour" points="10.064811,9.288123 10.157945,9.288123 10.235172,9.288052 10.235225,9.342191 10.235295,9.420602 10.401327,9.420602 10.401911,9.530571 10.402407,9.566201 10.402299,9.583779 10.40191,9.60166 10.401327,9.711102 10.235295,9.711102 10.235226,9.789511 10.235172,9.843653 10.167547,9.843653 10.107144,9.843581 10.030127,9.843581 9.976204,9.843653 9.976204,9.797478 9.976456,9.754572 9.976456,9.342192 9.976204,9.288052 10.022377,9.288052" style="fill: white" /><polygon type="contour" points="10.064812,9.976342 10.157945,9.976342 10.235172,9.976206 10.235211,10.030129 10.235281,10.107562 10.401917,10.107562 10.401923,10.328052 10.401929,10.3426 10.402392,10.367342 10.403068,10.40307 10.379759,10.402856 10.350129,10.402134 10.346034,10.401953 10.278172,10.401953 10.108481,10.401933 10.107712,10.235284 10.030127,10.235213 9.976204,10.235174 9.976204,10.167548 9.976339,10.107148 9.976339,10.030129 9.976204,9.976206 10.022377,9.976206" style="fill: white" /><polygon type="contour" points="9.37713,9.976458 9.789509,9.976458 9.843651,9.976206 9.843651,10.022378 9.843579,10.064815 9.843579,10.157948 9.843651,10.235174 9.78951,10.235226 9.711101,10.235296 9.711101,10.401329 9.601131,10.401913 9.5655,10.40243 9.428821,10.401544 9.4206,10.401329 9.4206,10.235296 9.34219,10.235226 9.28805,10.235174 9.28805,10.167549 9.288121,10.107148 9.288121,10.03013 9.28805,9.976206 9.334222,9.976206" style="fill: white" /><polygon type="contour" points="9.024555,9.976342 9.101574,9.976342 9.155497,9.976206 9.155497,10.022379 9.155361,10.064815 9.155361,10.157948 9.155497,10.235174 9.101573,10.235213 9.02322,10.235285 9.02322,10.401933 8.853528,10.401953 8.785667,10.401953 8.78157,10.402134 8.75194,10.402856 8.728632,10.40307 8.729307,10.367342 8.729771,10.342601 8.729777,10.328052 8.730053,10.266045 8.73,10.107852 8.729958,10.107625 8.896418,10.107625 8.896488,10.030129 8.896528,9.976206 8.964151,9.976206" style="fill: white" />
</svg>
