<svg width="19.131698" height="19.131699">
<polygon type="contour" points="11.111769,8.075727 11.111545,8.084796 11.11157,8.292748 10.913654,8.292748 10.839088,8.292613 10.83814,8.066964 10.83814,8.049224 10.838577,8.020687 10.891873,8.021115 11.017999,8.01953 11.082524,8.018813 11.113447,8.018256" style="fill: white" /><polygon type="contour" points="11.111357,9.206835 11.111018,9.351725 10.943942,9.351725 10.943218,9.483308 10.943201,9.515154 10.911797,9.515087 10.838091,9.515087 10.838216,9.483309 10.838438,9.424052 10.839005,9.424052 10.839162,9.207768 10.839088,9.058871 10.974764,9.058831 11.111569,9.058587" style="fill: white" /><polygon type="contour" points="9.648393,9.617213 9.707512,9.617213 9.707512,9.617271 9.865386,9.617144 10.072471,9.617144 10.072662,9.648848 10.073142,9.757401 10.07287,9.910018 10.073061,10.073063 9.924866,10.073271 9.743861,10.073083 9.648394,10.072665 9.616647,10.072473 9.616757,9.969908 9.616757,9.779818 9.617368,9.779818 9.616548,9.682787 9.616548,9.617059" style="fill: white" /><polygon type="contour" points="9.51449,9.648848 9.51449,9.707514 9.514431,9.707514 9.514559,9.865388 9.514559,10.072473 9.482853,10.072665 9.374299,10.073144 9.221684,10.072872 9.05864,10.073063 9.058432,9.924868 9.058605,9.756134 9.059221,9.667647 9.05923,9.617144 9.161794,9.617213 9.351881,9.617213 9.351881,9.617663 9.448914,9.617059 9.514643,9.617059" style="fill: white" /><polygon type="contour" points="8.292611,10.83909 8.293559,11.064738 8.293559,11.082479 8.293122,11.111017 8.239827,11.110589 8.1137,11.112172 8.049175,11.112892 8.018253,11.113449 8.01993,11.055977 8.020155,11.046908 8.02013,10.838955 8.218044,10.838955" style="fill: white" /><polygon type="contour" points="8.580959,10.871551 8.580959,10.943268 8.520086,10.943498 8.476287,10.943634 8.476585,10.885629 8.476585,10.838279 8.523621,10.838279 8.581,10.838141" style="fill: white" /><polygon type="contour" points="8.869714,10.838311 8.869939,10.88415 8.869939,10.94358 8.806482,10.943346 8.773994,10.943268 8.773805,10.906898 8.773805,10.838141 8.806907,10.838141" style="fill: white" /><polygon type="contour" points="8.806483,10.550827 8.869884,10.550827 8.869707,10.586943 8.869714,10.655527 8.806907,10.6557 8.773805,10.6557 8.773994,10.62246 8.773994,10.550743" style="fill: white" /><polygon type="contour" points="8.869939,10.303383 8.869884,10.35772 8.839498,10.357707 8.773994,10.357707 8.773982,10.325218 8.773982,10.26182 8.806482,10.26182 8.869939,10.261762" style="fill: white" /><polygon type="contour" points="8.580959,10.292202 8.580959,10.357707 8.544757,10.357897 8.476002,10.357897 8.476002,10.324795 8.476174,10.261988 8.544758,10.261996 8.580875,10.26182" style="fill: white" /><polygon type="contour" points="8.509242,10.550743 8.580959,10.550743 8.581,10.586942 8.581,10.6557 8.544758,10.6557 8.476287,10.655413 8.476287,10.608295 8.476002,10.550702" style="fill: white" /><polygon type="contour" points="8.293561,10.586942 8.293382,10.655414 8.188068,10.655414 8.18832,10.586943 8.188212,10.550743 8.224804,10.550702 8.293561,10.550702" style="fill: white" /><polygon type="contour" points="8.234678,10.261988 8.29339,10.261988 8.29339,10.304266 8.293561,10.357897 8.259928,10.357707 8.188212,10.357707 8.187926,10.301035 8.188121,10.261762" style="fill: white" /><polygon type="contour" points="8.219901,9.617108 8.293608,9.617108 8.293484,9.648848 8.293157,9.70776 8.292617,9.70776 8.292641,9.924869 8.292726,10.073101 8.157687,10.073118 8.020131,10.073118 8.020342,9.924868 8.020682,9.779979 8.086997,9.779993 8.187754,9.779993 8.188482,9.648848 8.188309,9.617059" style="fill: white" /><polygon type="contour" points="8.581142,9.648848 8.580252,9.779878 8.580742,9.779879 8.580875,9.879111 8.580875,10.072548 8.544757,10.072582 8.476408,10.072714 8.476039,9.924523 8.475882,9.720393 8.476141,9.648849 8.476396,9.617108 8.504946,9.617059 8.581377,9.617059" style="fill: white" /><polygon type="contour" points="8.802109,9.617144 8.869487,9.617144 8.869416,9.648848 8.869785,9.707669 8.869697,9.707669 8.869939,9.906776 8.869939,10.072384 8.828316,10.072384 8.773982,10.072548 8.773864,9.955145 8.773864,9.70776 8.773993,9.678993 8.774094,9.617059" style="fill: white" /><polygon type="contour" points="8.869884,8.806484 8.869939,8.869941 8.828317,8.869941 8.773982,8.869885 8.773994,8.839499 8.773994,8.773997 8.806483,8.773984 8.869884,8.773984" style="fill: white" /><polygon type="contour" points="8.869939,9.05932 8.869785,9.205788 8.869785,9.351986 8.869502,9.351986 8.869939,9.463307 8.869487,9.515056 8.84339,9.515154 8.774094,9.515154 8.773969,9.483308 8.773812,9.395113 8.773982,9.252593 8.773982,9.059157 8.806483,9.059157" style="fill: white" /><polygon type="contour" points="8.522404,9.059033 8.580875,9.059157 8.580742,9.176558 8.580742,9.351824 8.580197,9.351824 8.580959,9.452711 8.581377,9.515154 8.550101,9.515087 8.476396,9.515087 8.476141,9.483308 8.475882,9.41123 8.476039,9.20718 8.476409,9.058991" style="fill: white" /><polygon type="contour" points="8.141982,9.058603 8.292611,9.058871 8.292539,9.207768 8.292668,9.423944 8.293157,9.423944 8.293305,9.464734 8.293608,9.515087 8.264738,9.515154 8.188309,9.515154 8.188482,9.483309 8.187757,9.351711 8.020496,9.351711 8.020342,9.206835 8.020131,9.058587" style="fill: white" /><polygon type="contour" points="8.049175,8.018813 8.1137,8.01953 8.239826,8.021115 8.293122,8.020687 8.293559,8.049224 8.293559,8.066964 8.292611,8.292613 8.218044,8.292748 8.02013,8.292748 8.020155,8.084796 8.01993,8.075727 8.018253,8.018256" style="fill: white" /><polygon type="contour" points="8.544757,8.188323 8.580958,8.188215 8.581,8.224806 8.581,8.293562 8.544757,8.293562 8.476287,8.293385 8.476287,8.188071" style="fill: white" /><polygon type="contour" points="8.293383,8.523408 8.293561,8.581002 8.259929,8.580961 8.188213,8.580961 8.187912,8.520088 8.188069,8.476289 8.293383,8.476289" style="fill: white" /><polygon type="contour" points="8.293561,8.806908 8.29339,8.869715 8.247551,8.869941 8.188122,8.869941 8.188356,8.806485 8.188213,8.773997 8.224803,8.773807 8.293561,8.773807" style="fill: white" /><polygon type="contour" points="8.509242,8.773997 8.580959,8.773997 8.580875,8.806485 8.580875,8.869885 8.544758,8.869709 8.476174,8.869715 8.476174,8.827437 8.476002,8.773807" style="fill: white" /><polygon type="contour" points="8.580959,8.509244 8.580959,8.580961 8.544757,8.581002 8.476002,8.581002 8.476002,8.544759 8.476287,8.476289 8.523406,8.476289 8.581,8.476004" style="fill: white" /><polygon type="contour" points="8.869714,8.476175 8.869707,8.54476 8.869884,8.580877 8.839498,8.580961 8.773993,8.580961 8.773805,8.54476 8.773805,8.476004 8.806907,8.476004" style="fill: white" /><polygon type="contour" points="8.869939,8.188124 8.869714,8.23468 8.869714,8.293391 8.827434,8.293391 8.773805,8.293562 8.773994,8.25993 8.773994,8.188214 8.830662,8.187929" style="fill: white" /><polygon type="contour" points="9.350916,8.019571 9.351774,8.100044 9.351774,8.187756 9.482852,8.188484 9.514643,8.188311 9.514594,8.219903 9.514594,8.29361 9.482852,8.293485 9.423941,8.293159 9.423941,8.292501 9.220165,8.292613 9.058869,8.292613 9.058911,8.245934 9.058911,8.172006 9.058863,8.098053 9.058863,8.020169 9.280287,8.017959" style="fill: white" /><polygon type="contour" points="9.914973,8.020897 10.072956,8.020143 10.072956,8.060224 10.072872,8.156938 10.072832,8.292613 9.923933,8.292541 9.707759,8.292541 9.707759,8.293159 9.648393,8.293486 9.616616,8.29361 9.616548,8.264741 9.616548,8.188311 9.648394,8.188484 9.780019,8.187758 9.779925,8.100045 9.780784,8.019571" style="fill: white" /><polygon type="contour" points="9.91115,8.476289 10.072445,8.476289 10.072398,8.522528 10.072545,8.580877 9.955143,8.580743 9.779878,8.580743 9.779878,8.580196 9.67899,8.58096 9.616548,8.581378 9.616616,8.550103 9.616616,8.476398 9.648393,8.476143 9.738905,8.475818" style="fill: white" /><polygon type="contour" points="9.464731,8.474927 9.514594,8.476398 9.514643,8.50495 9.514643,8.581378 9.482853,8.581143 9.351823,8.580253 9.351821,8.580743 9.252592,8.580877 9.059156,8.580877 9.059302,8.522527 9.059255,8.476289 9.20811,8.47593 9.423941,8.47593 9.423941,8.474714" style="fill: white" /><polygon type="contour" points="9.452708,8.773997 9.514643,8.774096 9.514559,8.80211 9.514559,8.869488 9.482853,8.869418 9.424033,8.869787 9.424033,8.869699 9.224927,8.869941 9.059319,8.869941 9.059319,8.828319 9.059156,8.773983 9.176555,8.773866 9.423941,8.773866" style="fill: white" /><polygon type="contour" points="9.375531,9.058607 9.464054,9.059221 9.514559,9.059231 9.51449,9.161796 9.51449,9.351884 9.514042,9.351884 9.514643,9.448916 9.514643,9.515154 9.482853,9.514946 9.424189,9.514946 9.424189,9.514853 9.266311,9.515056 9.05923,9.515056 9.059038,9.483309 9.058558,9.374029 9.058831,9.221685 9.05864,9.058641 9.206832,9.058434" style="fill: white" /><polygon type="contour" points="9.910016,9.058832 10.073061,9.058641 10.073269,9.206835 10.073081,9.387838 10.072662,9.483309 10.072471,9.515056 9.969907,9.514946 9.779816,9.514946 9.779816,9.514337 9.682785,9.515154 9.616548,9.515154 9.616757,9.483309 9.616757,9.424191 9.616849,9.424191 9.616647,9.266314 9.616647,9.059231 9.648393,9.059039 9.75778,9.058561" style="fill: white" /><polygon type="contour" points="9.879108,8.773984 10.072545,8.773984 10.072382,8.828319 10.072382,8.869941 9.925914,8.869787 9.779716,8.869787 9.779716,8.869504 9.668394,8.869941 9.616647,8.869488 9.616548,8.843392 9.616548,8.774096 9.648394,8.77397 9.736752,8.773814" style="fill: white" /><polygon type="contour" points="10.292201,8.773997 10.357704,8.773997 10.357718,8.806485 10.357718,8.869885 10.325217,8.869885 10.26176,8.869941 10.26176,8.828318 10.261817,8.773984" style="fill: white" /><polygon type="contour" points="10.357705,8.509244 10.357705,8.580961 10.325216,8.580877 10.261817,8.580877 10.261994,8.54476 10.261986,8.476176 10.324793,8.476004 10.357895,8.476004" style="fill: white" /><polygon type="contour" points="10.325216,8.188357 10.357705,8.188214 10.357895,8.224805 10.357895,8.293562 10.324793,8.293562 10.261986,8.293391 10.26176,8.247553 10.26176,8.188125" style="fill: white" /><polygon type="contour" points="10.655412,8.188071 10.655115,8.246074 10.655115,8.293424 10.608078,8.293424 10.5507,8.293562 10.550741,8.25993 10.550741,8.188215 10.611613,8.187914" style="fill: white" /><polygon type="contour" points="10.655412,8.476289 10.655412,8.523407 10.655698,8.581002 10.622458,8.580961 10.550741,8.580961 10.5507,8.544759 10.5507,8.476004 10.586941,8.476004" style="fill: white" /><polygon type="contour" points="10.943378,8.54476 10.943266,8.580961 10.906896,8.581002 10.838139,8.581002 10.838139,8.544759 10.838316,8.476289 10.943631,8.476289" style="fill: white" /><polygon type="contour" points="10.871548,8.773997 10.943266,8.773997 10.943486,8.830665 10.943578,8.869941 10.897021,8.869715 10.83831,8.869715 10.83831,8.827436 10.838139,8.773807" style="fill: white" /><polygon type="contour" points="10.655698,8.806908 10.655526,8.869715 10.58694,8.869709 10.550825,8.869885 10.550741,8.839499 10.550741,8.773997 10.58694,8.773807 10.655698,8.773807" style="fill: white" /><polygon type="contour" points="10.655412,9.059256 10.655771,9.208111 10.655771,9.423944 10.656987,9.423944 10.65556,9.483309 10.655304,9.515087 10.626754,9.515154 10.550324,9.515154 10.550557,9.483309 10.551443,9.351825 10.550958,9.351824 10.550825,9.252593 10.550825,9.059157 10.586941,9.059122" style="fill: white" /><polygon type="contour" points="10.357836,9.176557 10.357836,9.423943 10.357705,9.45271 10.357604,9.515154 10.32959,9.515056 10.262214,9.515056 10.262285,9.483308 10.261915,9.424035 10.262002,9.424035 10.26176,9.224928 10.26176,9.05932 10.303382,9.05932 10.357718,9.059157" style="fill: white" /><polygon type="contour" points="10.357729,9.648848 10.357887,9.736295 10.357718,9.879111 10.357718,10.072548 10.325216,10.072548 10.26176,10.072384 10.261915,9.925915 10.261915,9.779718 10.262199,9.779718 10.26176,9.668395 10.262214,9.617144 10.288309,9.617059 10.357604,9.617059" style="fill: white" /><polygon type="contour" points="10.581597,9.617108 10.655304,9.617108 10.65556,9.648848 10.656987,9.70776 10.655825,9.70776 10.655661,9.924523 10.65529,10.072714 10.609295,10.072671 10.550825,10.072548 10.550958,9.955145 10.550958,9.77988 10.551502,9.77988 10.55074,9.678992 10.550323,9.617059" style="fill: white" /><polygon type="contour" points="10.943218,9.648849 10.943945,9.779993 11.111204,9.779993 11.111358,9.924868 11.111569,10.073118 10.989716,10.073101 10.839088,10.072834 10.839161,9.923936 10.839031,9.707652 10.838438,9.707652 10.838277,9.66706 10.838092,9.617108 10.866771,9.617059 10.943201,9.617059" style="fill: white" /><polygon type="contour" points="11.111545,11.046908 11.111769,11.055977 11.113447,11.113449 11.082524,11.112892 11.017999,11.112172 10.891872,11.110589 10.838577,11.111017 10.83814,11.082479 10.83814,11.064738 10.839088,10.83909 10.913654,10.838955 11.11157,10.838955" style="fill: white" /><polygon type="contour" points="10.357895,10.586942 10.357895,10.6557 10.324794,10.6557 10.261986,10.655527 10.261994,10.586943 10.261817,10.550827 10.292202,10.550743 10.357705,10.550743" style="fill: white" /><polygon type="contour" points="10.357705,10.87155 10.357705,10.943268 10.301034,10.943487 10.26176,10.94358 10.261986,10.897021 10.261986,10.838311 10.304265,10.838311 10.357895,10.838141" style="fill: white" /><polygon type="contour" points="10.655115,10.838279 10.655115,10.885629 10.655412,10.943634 10.586941,10.943381 10.550741,10.943268 10.5507,10.906898 10.5507,10.838141 10.58694,10.838141" style="fill: white" /><polygon type="contour" points="10.943345,10.325219 10.943266,10.357707 10.906896,10.357897 10.838139,10.357897 10.838139,10.324795 10.83831,10.261988 10.884148,10.261762 10.943578,10.261762" style="fill: white" /><polygon type="contour" points="10.871549,10.550743 10.943265,10.550743 10.943496,10.611615 10.94363,10.655414 10.838316,10.655414 10.838316,10.608295 10.838139,10.550702" style="fill: white" /><polygon type="contour" points="10.655698,10.586942 10.655411,10.655414 10.608294,10.655414 10.5507,10.6557 10.550741,10.62246 10.550741,10.550743 10.58694,10.550702 10.655698,10.550702" style="fill: white" /><polygon type="contour" points="10.586941,10.261996 10.655526,10.261988 10.655526,10.304265 10.655698,10.357897 10.622457,10.357707 10.550741,10.357707 10.550825,10.325218 10.550825,10.26182" style="fill: white" /><polygon type="contour" points="10.357718,10.26182 10.357705,10.292202 10.357705,10.357706 10.325216,10.35772 10.261817,10.35772 10.261817,10.325219 10.26176,10.261762 10.303383,10.261762" style="fill: white" /><polygon type="contour" points="10.072382,10.303384 10.072545,10.35772 9.955144,10.357838 9.707758,10.357838 9.678989,10.357706 9.616548,10.357606 9.616647,10.329591 9.616647,10.262217 9.648393,10.262287 9.707668,10.261916 9.707668,10.262003 9.906773,10.261762 10.072382,10.261762" style="fill: white" /><polygon type="contour" points="9.514559,10.262217 9.514643,10.288312 9.514643,10.357606 9.482852,10.357731 9.395406,10.357889 9.252591,10.35772 9.059156,10.35772 9.059319,10.303384 9.059319,10.261762 9.205786,10.261916 9.351984,10.261916 9.351984,10.262198 9.463306,10.261762" style="fill: white" /><polygon type="contour" points="9.648394,10.550561 9.779876,10.551446 9.779877,10.550961 9.879107,10.550827 10.072545,10.550827 10.072398,10.609177 10.072445,10.655414 9.923589,10.655773 9.707758,10.655773 9.707758,10.656989 9.666969,10.656776 9.616616,10.655306 9.616548,10.626755 9.616548,10.550326" style="fill: white" /><polygon type="contour" points="9.514594,10.581599 9.514594,10.655305 9.482852,10.655561 9.392846,10.655884 9.220551,10.655414 9.059255,10.655414 9.059302,10.609177 9.059156,10.550827 9.176556,10.550961 9.351822,10.550961 9.351822,10.551507 9.452708,10.550743 9.514643,10.550325" style="fill: white" /><polygon type="contour" points="9.514643,10.866772 9.514643,10.943203 9.482852,10.94322 9.35168,10.943948 9.351774,11.031658 9.350916,11.112133 9.216726,11.110807 9.058744,11.111562 9.058744,11.071479 9.058829,10.974765 9.058869,10.83909 9.207765,10.839163 9.42405,10.839163 9.42405,10.83844 9.464642,10.838279 9.514594,10.838093" style="fill: white" /><polygon type="contour" points="9.648394,10.838218 9.707759,10.838545 9.707759,10.839203 9.911534,10.83909 10.072832,10.83909 10.07279,10.885769 10.07279,10.959697 10.072838,11.03365 10.072838,11.111535 9.851413,11.113745 9.780784,11.112133 9.779926,11.031659 9.779926,10.943944 9.648394,10.94322 9.616548,10.943203 9.616616,10.9118 9.616616,10.838093" style="fill: white" />
</svg>
