<svg width="19.131698" height="19.131699">
<polygon type="contour" points="10.658887,10.384644 10.659605,10.550624 10.826123,10.550624 10.826736,10.570024 10.827483,10.588083 10.832372,10.636187 10.832863,10.832865 10.622011,10.826902 10.552031,10.827809 10.550533,10.778744 10.550456,10.770936 10.55026,10.659042 10.418647,10.659241 10.34993,10.658976 10.350019,10.587367 10.350019,10.550269 10.350154,10.550269 10.34993,10.390504 10.34993,10.349932 10.418648,10.350021 10.453855,10.350021 10.453855,10.350151 10.616222,10.349932 10.658973,10.349932" style="fill: white" /><polygon type="contour" points="10.658786,9.197329 10.658746,9.261977 10.581906,9.262043 10.509003,9.262043 10.506848,9.35964 10.626336,9.364919 10.749253,9.365889 10.825672,9.365889 10.826264,9.397614 10.82888,9.449554 10.830218,9.566201 10.82888,9.682371 10.826264,9.734169 10.825672,9.765813 10.749253,9.765813 10.626336,9.766783 10.528596,9.771101 10.530729,9.868677 10.626336,9.868719 10.658746,9.869726 10.658915,9.903661 10.658973,9.967139 10.587365,9.967006 10.550267,9.967006 10.550267,9.966803 10.390501,9.967139 10.34993,9.967139 10.349794,9.903662 10.349794,9.869769 10.418647,9.869705 10.502996,9.869594 10.505176,9.772154 10.380574,9.766413 10.349794,9.766141 10.349794,9.365561 10.380574,9.365289 10.505176,9.359547 10.502996,9.262107 10.418647,9.261996 10.349794,9.261933 10.34993,9.202414 10.34993,9.164566 10.418648,9.164697 10.453855,9.164697 10.453855,9.164888 10.616221,9.164566 10.658972,9.164566" style="fill: white" /><polygon type="contour" points="10.82871,8.451421 10.826123,8.581081 10.80214,8.581081 10.769153,8.58103 10.7467,8.581059 10.659039,8.581059 10.659239,8.713054 10.658972,8.781772 10.587365,8.781684 10.550267,8.781684 10.550267,8.78155 10.390502,8.781772 10.34993,8.781772 10.350019,8.713054 10.350019,8.677846 10.350149,8.677846 10.34993,8.515478 10.34993,8.472727 10.384641,8.472812 10.549661,8.472105 10.550456,8.415415 10.550456,8.360769 10.552031,8.303895 10.622011,8.304802 10.832863,8.298838" style="fill: white" /><polygon type="contour" points="9.566198,8.301512 9.734168,8.305439 9.765811,8.306029 9.765749,8.340794 9.765811,8.38245 9.768037,8.435042 9.770588,8.612964 9.869629,8.612298 9.869724,8.505544 9.869724,8.472956 9.903659,8.472787 9.967137,8.472727 9.967004,8.544335 9.967004,8.581436 9.966801,8.581436 9.967137,8.741199 9.967137,8.781772 9.90366,8.781909 9.869767,8.781909 9.869703,8.713055 9.869592,8.628684 9.772151,8.626504 9.76641,8.751128 9.766139,8.781909 9.365559,8.781909 9.365286,8.751127 9.365527,8.614948 9.266046,8.614454 9.265243,8.713055 9.26193,8.781909 9.202413,8.781772 9.164564,8.781772 9.164695,8.713054 9.164695,8.677845 9.164886,8.677845 9.164564,8.515477 9.164564,8.472727 9.197327,8.472912 9.261974,8.472956 9.267492,8.592211 9.365075,8.589862 9.364915,8.505364 9.365886,8.38245 9.365951,8.340793 9.365887,8.306029 9.397611,8.305439 9.487715,8.301332" style="fill: white" /><polygon type="contour" points="8.509689,8.304803 8.579669,8.303896 8.581168,8.35296 8.581245,8.360768 8.58144,8.472661 8.713052,8.472463 8.78177,8.472727 8.781682,8.544335 8.781682,8.581436 8.781548,8.581436 8.78177,8.741198 8.78177,8.781772 8.713053,8.781684 8.677844,8.781684 8.677844,8.781555 8.515475,8.781772 8.472725,8.781772 8.47281,8.74706 8.472099,8.581081 8.305576,8.581081 8.304963,8.56168 8.304215,8.54362 8.299327,8.495517 8.298837,8.298838" style="fill: white" /><polygon type="contour" points="8.781907,9.22804 8.781907,9.261932 8.713052,9.265244 8.614511,9.266047 8.615003,9.365527 8.751125,9.365288 8.781907,9.36556 8.781907,9.766141 8.751126,9.766413 8.626524,9.772154 8.628704,9.869594 8.713053,9.869705 8.781907,9.869769 8.78177,9.929288 8.78177,9.967139 8.713052,9.967006 8.677844,9.967006 8.677844,9.966811 8.515476,9.967139 8.472725,9.967139 8.47291,9.934375 8.472954,9.869726 8.549794,9.869659 8.622697,9.869659 8.624852,9.772061 8.505362,9.766783 8.382447,9.765813 8.306027,9.765813 8.305437,9.73409 8.30282,9.682148 8.301482,9.565502 8.30282,9.449332 8.305437,9.397533 8.306027,9.365889 8.382447,9.365889 8.505362,9.364919 8.600738,9.365096 8.603095,9.267524 8.505362,9.262982 8.472954,9.261976 8.472785,9.228041 8.472725,9.164566 8.544333,9.164697 8.581434,9.164697 8.581434,9.164896 8.741196,9.164566 8.78177,9.164566" style="fill: white" /><polygon type="contour" points="9.228037,9.164633 9.26193,9.164633 9.26193,9.22804 9.261974,9.261977 9.19371,9.261977 9.164631,9.261933 9.164564,9.202414 9.164564,9.164566" style="fill: white" /><polygon type="contour" points="9.766318,9.193713 9.766318,9.261977 9.365379,9.261977 9.365379,9.193713 9.365559,9.164633 9.766139,9.164633" style="fill: white" /><polygon type="contour" points="9.96707,9.22804 9.96707,9.261933 9.90366,9.261933 9.869724,9.261977 9.869724,9.193713 9.869767,9.164633 9.929286,9.164566 9.967137,9.164566" style="fill: white" /><polygon type="contour" points="9.96707,9.365561 9.96707,9.766141 9.937989,9.76632 9.869724,9.76632 9.869724,9.365382 9.937989,9.365382" style="fill: white" /><polygon type="contour" points="9.96707,9.869769 9.967137,9.929288 9.967137,9.967139 9.90366,9.967072 9.869767,9.967072 9.869767,9.903661 9.869724,9.869726 9.937989,9.869726" style="fill: white" /><polygon type="contour" points="9.766318,9.937991 9.766139,9.967072 9.365559,9.967072 9.365379,9.937991 9.365379,9.869726 9.766318,9.869726" style="fill: white" /><polygon type="contour" points="9.766183,9.766184 9.365515,9.766184 9.365515,9.365518 9.766183,9.365518" style="fill: white" /><polygon type="contour" points="9.261974,9.76632 9.193711,9.76632 9.164631,9.766141 9.164631,9.365561 9.193711,9.365382 9.261974,9.365382" style="fill: white" /><polygon type="contour" points="9.261974,9.937991 9.26193,9.967072 9.202413,9.967139 9.164564,9.967139 9.164631,9.903662 9.164631,9.869769 9.228038,9.869769 9.261974,9.869726" style="fill: white" /><polygon type="contour" points="9.261993,10.418649 9.262106,10.503 9.359546,10.505178 9.365286,10.380575 9.365559,10.349796 9.766139,10.349796 9.766411,10.380575 9.766174,10.516672 9.865653,10.517164 9.866457,10.418649 9.869767,10.349796 9.929287,10.349932 9.967137,10.349932 9.967004,10.41865 9.967004,10.453858 9.966809,10.453858 9.967137,10.616225 9.967137,10.658976 9.934374,10.65879 9.869724,10.658748 9.864162,10.538502 9.766634,10.540791 9.766781,10.743918 9.765811,10.825674 9.734088,10.826265 9.643985,10.830371 9.565501,10.830192 9.397531,10.826265 9.365887,10.825674 9.365951,10.79091 9.365887,10.749253 9.363661,10.696661 9.361109,10.51874 9.262068,10.519406 9.261974,10.62616 9.261974,10.658748 9.228037,10.658917 9.164564,10.658976 9.164695,10.587368 9.164695,10.55027 9.164894,10.550269 9.164564,10.390504 9.164564,10.349932 9.228037,10.349796 9.26193,10.349796" style="fill: white" /><polygon type="contour" points="8.781682,10.418649 8.781682,10.453858 8.781553,10.453858 8.78177,10.616225 8.78177,10.658976 8.747058,10.65889 8.582039,10.659601 8.581245,10.716286 8.581245,10.770935 8.57967,10.827809 8.509689,10.826902 8.298837,10.832865 8.302989,10.680282 8.305576,10.550624 8.47266,10.550624 8.472461,10.41865 8.472725,10.349932 8.544334,10.350021 8.581434,10.350021 8.581434,10.350156 8.741196,10.349932 8.78177,10.349932" style="fill: white" />
</svg>
