<svg width="19.131698" height="19.131699">
<polygon type="contour" points="10.45289,8.863167 10.452571,8.897811 10.452324,8.983594 10.352849,8.983594 10.172236,8.983668 10.148035,8.983668 10.147935,8.855878 10.147935,8.776028 10.148118,8.724431 10.148144,8.720258 10.149497,8.678791 10.197011,8.677633 10.456443,8.675259" style="fill: white" /><polygon type="contour" points="10.285445,9.184949 10.285439,9.201682 10.285433,9.218207 10.28543,9.27511 10.147531,9.27511 10.147532,9.218207 10.147545,9.184948 10.14756,9.128956 10.285459,9.128956" style="fill: white" /><polygon type="contour" points="10.454691,9.483633 10.453993,9.565956 10.454237,9.616853 10.454997,9.711102 10.147458,9.711102 10.147458,9.420602 10.454997,9.420602" style="fill: white" /><polygon type="contour" points="10.452324,10.14811 10.452571,10.233893 10.45289,10.268536 10.456443,10.456445 10.197011,10.454071 10.149497,10.452912 10.148119,10.407272 10.148119,10.362624 10.147935,10.355675 10.148035,10.172236 10.148035,10.148037 10.201473,10.148037" style="fill: white" /><polygon type="contour" points="10.285433,9.913497 10.285439,9.930022 10.285445,9.946754 10.285459,10.002748 10.14756,10.002748 10.147545,9.946755 10.147532,9.913497 10.147531,9.856595 10.28543,9.856595" style="fill: white" /><polygon type="contour" points="9.711101,10.452305 9.633258,10.452229 9.620939,10.452494 9.565501,10.453947 9.498068,10.452229 9.4206,10.452305 9.4206,10.147459 9.711101,10.147459" style="fill: white" /><polygon type="contour" points="9.711101,10.002748 9.4206,10.002748 9.4206,9.856595 9.711101,9.856595" style="fill: white" /><polygon type="contour" points="9.913481,10.147502 9.946754,10.147547 10.002746,10.147561 10.002746,10.28546 9.946754,10.285448 9.93002,10.285442 9.913497,10.285435 9.856593,10.285431 9.854236,10.171659 9.854236,10.147459" style="fill: white" /><polygon type="contour" points="9.988673,9.856595 10.003782,9.856595 10.002746,9.931822 10.002892,9.946755 10.002746,9.987888 10.002746,10.002748 9.946754,10.002894 9.913497,10.003353 9.856593,10.003784 9.856495,9.946797 9.856495,9.913497 9.856593,9.87182 9.856593,9.856595 9.913496,9.856498 9.946796,9.856498" style="fill: white" /><polygon type="contour" points="10.002746,9.711102 9.856593,9.711102 9.856593,9.420602 10.002746,9.420602" style="fill: white" /><polygon type="contour" points="9.711101,9.711102 9.4206,9.711102 9.4206,9.420602 9.711101,9.420602" style="fill: white" /><polygon type="contour" points="9.711101,9.27511 9.4206,9.27511 9.4206,9.128956 9.711101,9.128956" style="fill: white" /><polygon type="contour" points="9.93182,9.128956 9.946754,9.12881 9.987887,9.128956 10.002746,9.128956 10.002892,9.184948 10.003351,9.218206 10.003782,9.27511 9.946796,9.275207 9.913496,9.275207 9.871818,9.27511 9.856593,9.27511 9.856495,9.218206 9.856495,9.184906 9.856593,9.127918" style="fill: white" /><polygon type="contour" points="10.002746,8.984142 9.946753,8.984156 9.913496,8.984169 9.856593,8.984172 9.856593,8.846273 9.913497,8.846269 9.93002,8.846262 9.946754,8.846256 10.002746,8.846244" style="fill: white" /><polygon type="contour" points="9.633632,8.679475 9.711101,8.679398 9.711101,8.984245 9.4206,8.984245 9.4206,8.679398 9.498442,8.679475 9.51076,8.679207 9.565963,8.677756" style="fill: white" /><polygon type="contour" points="8.934689,8.677632 8.982204,8.678791 8.983582,8.724431 8.983582,8.769079 8.983765,8.776028 8.983666,8.959467 8.983666,8.983668 8.930227,8.983668 8.679375,8.983594 8.679127,8.897811 8.678809,8.863167 8.675257,8.675259" style="fill: white" /><polygon type="contour" points="9.184946,8.846256 9.20168,8.846262 9.218203,8.846269 9.275108,8.846273 9.277465,8.960044 9.277465,8.984245 9.218218,8.9842 9.184947,8.984156 9.128954,8.984143 9.128954,8.846244" style="fill: white" /><polygon type="contour" points="9.275203,9.128956 9.275247,9.184948 9.275205,9.218207 9.275108,9.259882 9.275108,9.27511 9.218204,9.275207 9.184904,9.275207 9.143023,9.27511 9.127916,9.27511 9.128954,9.199881 9.128808,9.184948 9.128954,9.143813 9.128954,9.128956 9.184947,9.12881 9.218667,9.12881" style="fill: white" /><polygon type="contour" points="8.984152,9.184948 8.984165,9.218206 8.98417,9.27511 8.846271,9.27511 8.846268,9.218207 8.846261,9.201682 8.846255,9.184949 8.846242,9.128956 8.984141,9.128956" style="fill: white" /><polygon type="contour" points="8.984165,9.913497 8.984152,9.946755 8.984141,10.002748 8.846242,10.002748 8.846255,9.946754 8.846261,9.930022 8.846268,9.913497 8.846271,9.856595 8.98417,9.856595" style="fill: white" /><polygon type="contour" points="8.984243,9.711102 8.676703,9.711102 8.677007,9.648071 8.677707,9.566201 8.677463,9.515305 8.676703,9.420602 8.984243,9.420602" style="fill: white" /><polygon type="contour" points="9.275108,9.711102 9.128954,9.711102 9.128954,9.420602 9.275108,9.420602" style="fill: white" /><polygon type="contour" points="9.218203,9.856498 9.259882,9.856595 9.275108,9.856595 9.275205,9.913497 9.275205,9.946797 9.275108,10.003784 9.199879,10.002748 9.184946,10.002893 9.143811,10.002748 9.128954,10.002748 9.128808,9.946754 9.128808,9.913034 9.128954,9.856498 9.184946,9.856455" style="fill: white" /><polygon type="contour" points="9.275108,10.285431 9.218203,10.285435 9.20168,10.285442 9.184946,10.285448 9.128954,10.28546 9.128954,10.147561 9.184946,10.147547 9.218204,10.147534 9.275108,10.147532" style="fill: white" /><polygon type="contour" points="8.983766,10.275826 8.983766,10.355675 8.983582,10.407272 8.983557,10.411445 8.982204,10.452913 8.934689,10.454071 8.675257,10.456445 8.678809,10.268536 8.679127,10.233892 8.679375,10.14811 8.77885,10.14811 8.959464,10.148037 8.983666,10.148037" style="fill: white" />
</svg>
