<svg width="19.131698" height="19.131699">
<polygon type="contour" points="8.707325,11.038798 8.707325,11.148638 8.649592,11.148716 8.600879,11.148879 8.600879,11.084749 8.600995,11.038826 8.649591,11.038754" style="fill: white" /><polygon type="contour" points="8.70715,10.831327 8.70715,10.884577 8.649592,10.884025 8.600995,10.881945 8.600995,10.829524 8.600879,10.787005 8.662167,10.787005 8.706999,10.786907" style="fill: white" /><polygon type="contour" points="8.706999,10.482109 8.706999,10.530722 8.649591,10.530722 8.600879,10.530823 8.600879,10.469536 8.600978,10.424703 8.649487,10.424377 8.707325,10.424377" style="fill: white" /><polygon type="contour" points="11.31717,8.993761 11.317402,9.153236 11.097381,9.153236 11.039491,9.152933 11.039693,9.017714 11.039592,8.860197 11.190602,8.860197 11.317032,8.859869" style="fill: white" /><polygon type="contour" points="11.317262,10.114696 11.317032,10.271835 11.224817,10.271835 11.099232,10.271507 11.039592,10.271507 11.039394,10.137941 11.03949,9.97877 11.185934,9.978467 11.317402,9.978467" style="fill: white" /><polygon type="contour" points="11.148714,10.482109 11.148877,10.530823 11.084747,10.530823 11.038824,10.530707 11.038752,10.482108 11.038795,10.424377 11.148636,10.424377" style="fill: white" /><polygon type="contour" points="10.884023,10.482108 10.881943,10.530707 10.829523,10.530707 10.787004,10.530823 10.787004,10.469535 10.786906,10.424704 10.83232,10.424704 10.884574,10.424552" style="fill: white" /><polygon type="contour" points="10.88214,11.1489 10.829522,11.148798 10.787004,11.148879 10.787004,11.084749 10.787059,11.038825 10.832231,11.038708 10.88214,11.038708" style="fill: white" /><polygon type="contour" points="11.31732,11.103613 11.318392,11.132584 11.321823,11.191534 11.325038,11.32504 11.103613,11.317323 11.039643,11.317295 11.039643,11.195829 11.039737,11.097916 11.039737,11.039738 11.187044,11.039738 11.317224,11.039576" style="fill: white" /><polygon type="contour" points="11.148797,10.829524 11.148899,10.882141 11.038706,10.882141 11.038706,10.832233 11.038824,10.787061 11.099727,10.787061 11.148877,10.787005" style="fill: white" /><polygon type="contour" points="10.881943,10.787061 10.88214,10.832234 10.88214,10.882141 10.829523,10.881945 10.787059,10.881945 10.787059,10.829523 10.787004,10.787005 10.842201,10.787005" style="fill: white" /><polygon type="contour" points="10.530822,10.787005 10.530822,10.842203 10.530706,10.881945 10.482108,10.882105 10.42455,10.882326 10.424702,10.830402 10.424702,10.786907 10.482107,10.786907" style="fill: white" /><polygon type="contour" points="10.482108,11.036835 10.530706,11.038826 10.530706,11.099729 10.530822,11.148879 10.482108,11.148716 10.424375,11.148638 10.424689,11.097679 10.424689,11.036404" style="fill: white" /><polygon type="contour" points="10.271544,11.100176 10.271544,11.317089 10.042946,11.318719 9.979415,11.319138 9.979325,11.302647 9.979202,11.284112 9.979317,11.260041 9.978764,11.039521 10.042396,11.038569 10.27153,11.037369" style="fill: white" /><polygon type="contour" points="9.791994,10.482108 9.791619,10.531002 9.736155,10.531002 9.692492,10.530823 9.692218,10.46989 9.692017,10.424856 9.738218,10.424493 9.792108,10.424493" style="fill: white" /><polygon type="contour" points="9.439358,10.140951 9.439306,10.271026 9.393481,10.271 9.339593,10.271 9.339593,10.135926 9.340033,9.978159 9.39524,9.977831 9.439358,9.977831" style="fill: white" /><polygon type="contour" points="9.153011,10.114371 9.152782,10.271521 9.021147,10.271835 8.859867,10.271835 8.860181,10.1402 8.860181,9.97892 9.0893,9.978738 9.153053,9.978648" style="fill: white" /><polygon type="contour" points="9.153569,10.482109 9.15378,10.531002 9.019879,10.530722 8.860587,10.530722 8.860681,10.482213 8.860681,10.424377 9.153603,10.424377" style="fill: white" /><polygon type="contour" points="9.393387,10.424856 9.439306,10.424856 9.440566,10.482109 9.440425,10.530823 9.381573,10.530823 9.340082,10.531002 9.340033,10.480519 9.339593,10.424493" style="fill: white" /><polygon type="contour" points="9.440425,10.787005 9.439079,10.842076 9.439174,10.881984 9.39219,10.882141 9.339696,10.882141 9.339897,10.829524 9.340082,10.786898 9.396714,10.786898" style="fill: white" /><polygon type="contour" points="9.153608,10.862164 9.153487,10.881849 9.08985,10.88284 8.860549,10.884577 8.860587,10.832322 8.860587,10.786907 9.019878,10.786907 9.15378,10.786898" style="fill: white" /><polygon type="contour" points="9.152933,11.039521 9.153052,11.062217 9.152498,11.284113 9.152374,11.28655 9.152374,11.302647 9.152357,11.303573 9.152285,11.319138 9.088753,11.318719 8.860156,11.317089 8.860156,11.187807 8.86017,11.098644 8.86017,11.039638 9.0893,11.039483" style="fill: white" /><polygon type="contour" points="9.439174,11.099433 9.439079,11.148778 9.39524,11.148779 9.340033,11.148826 9.338048,11.096209 9.337861,11.038757 9.394329,11.038732 9.439174,11.038732" style="fill: white" /><polygon type="contour" points="9.739127,11.038878 9.791886,11.038878 9.791886,11.090772 9.791668,11.148826 9.742183,11.148826 9.692218,11.148778 9.692218,11.084845 9.692143,11.038732" style="fill: white" /><polygon type="contour" points="9.791668,10.83423 9.791886,10.883849 9.736987,10.881984 9.692143,10.881984 9.692403,10.829523 9.692492,10.787005 9.750126,10.787005 9.791619,10.786898" style="fill: white" /><polygon type="contour" points="10.111821,10.786907 10.271114,10.786907 10.271151,10.831328 10.271151,10.882326 10.134975,10.882326 9.978285,10.882141 9.97818,10.829523 9.977921,10.786898" style="fill: white" /><polygon type="contour" points="10.271114,10.482108 10.271114,10.530722 10.11182,10.530722 9.977921,10.531002 9.978091,10.446911 9.978189,10.424697 10.041849,10.424697 10.271018,10.424377" style="fill: white" /><polygon type="contour" points="10.482108,10.424704 10.530721,10.424704 10.530721,10.482108 10.530822,10.530823 10.469533,10.530823 10.424702,10.530722 10.424375,10.482212 10.424375,10.424377" style="fill: white" /><polygon type="contour" points="10.531,10.141573 10.530721,10.271115 10.482107,10.271115 10.424375,10.27102 10.423801,10.137622 10.423801,9.978381 10.482108,9.978132 10.531,9.977923" style="fill: white" /><polygon type="contour" points="10.832747,9.977982 10.88214,9.978287 10.88214,10.116686 10.884574,10.271152 10.831326,10.271152 10.786906,10.271115 10.786906,10.111823 10.786897,9.977923" style="fill: white" /><polygon type="contour" points="10.842074,9.692624 10.881983,9.692529 10.88214,9.739512 10.88214,9.792007 10.829523,9.791805 10.786897,9.791621 10.786897,9.734988 10.787004,9.691277" style="fill: white" /><polygon type="contour" points="11.148776,9.692624 11.148777,9.736462 11.148824,9.79167 11.096112,9.79167 11.038876,9.791887 11.03873,9.737374 11.03873,9.692529 11.099431,9.692529" style="fill: white" /><polygon type="contour" points="11.090771,9.339817 11.148824,9.340034 11.148825,9.389518 11.148775,9.439485 11.084843,9.439485 11.03873,9.43956 11.038756,9.390818 11.038756,9.337863" style="fill: white" /><polygon type="contour" points="10.881983,9.394714 10.881983,9.43956 10.829523,9.439299 10.787004,9.439211 10.787004,9.381576 10.786897,9.340084 10.832746,9.339911 10.88214,9.339697" style="fill: white" /><polygon type="contour" points="10.884574,8.996726 10.88214,9.153417 10.832747,9.153722 10.786897,9.15378 10.786897,8.990131 10.786906,8.86059 10.831325,8.860552 10.884574,8.860552" style="fill: white" /><polygon type="contour" points="10.042946,7.812982 10.271544,7.814615 10.271544,7.943896 10.27153,8.033059 10.27153,8.092064 10.042396,8.09222 9.978764,8.092183 9.978646,8.069485 9.979202,7.847587 9.979326,7.84515 9.979326,7.829053 9.979343,7.828126 9.979415,7.812564" style="fill: white" /><polygon type="contour" points="9.791668,8.035585 9.791886,8.092826 9.736988,8.092972 9.692143,8.092972 9.692143,8.032269 9.692218,7.982926 9.736072,7.982924 9.791668,7.982875" style="fill: white" /><polygon type="contour" points="9.791803,8.302179 9.791619,8.344805 9.736155,8.344805 9.692492,8.344699 9.692218,8.289627 9.692143,8.24972 9.73951,8.249563 9.792005,8.249563" style="fill: white" /><polygon type="contour" points="9.153415,8.249563 9.153519,8.30218 9.15378,8.344805 9.019879,8.344797 8.860587,8.344797 8.860549,8.300377 8.860549,8.249377 8.996724,8.249377" style="fill: white" /><polygon type="contour" points="9.394328,8.24972 9.439174,8.24972 9.440451,8.302179 9.440425,8.344699 9.381573,8.344699 9.340082,8.344805 9.340033,8.297472 9.339815,8.247856" style="fill: white" /><polygon type="contour" points="9.389516,7.982876 9.439079,7.982926 9.439079,8.046858 9.439174,8.092972 9.390816,8.092947 9.337861,8.092947 9.339815,8.040931 9.340033,7.982875" style="fill: white" /><polygon type="contour" points="9.152374,7.829054 9.152497,7.847588 9.152383,7.871659 9.152934,8.092183 9.0893,8.093135 8.86017,8.094334 8.860156,8.031526 8.860156,7.814615 9.088753,7.812982 9.152285,7.812564" style="fill: white" /><polygon type="contour" points="8.028087,7.814381 8.092058,7.814409 8.092058,7.935874 8.091964,8.033787 8.091964,8.091966 7.944655,8.091966 7.814476,8.092129 7.814378,8.02809 7.813308,7.999118 7.809878,7.940169 7.806663,7.806665" style="fill: white" /><polygon type="contour" points="8.031919,8.860184 8.092111,8.860184 8.092306,8.993761 8.092209,9.152933 7.945765,9.153236 7.814297,9.153236 7.814437,9.017008 7.814668,8.859869 7.906882,8.859869" style="fill: white" /><polygon type="contour" points="8.344794,8.86059 8.344794,9.019881 8.344802,9.153781 8.298953,9.153722 8.249561,9.153417 8.249561,9.015017 8.247126,8.860552 8.300375,8.860552" style="fill: white" /><polygon type="contour" points="8.344696,8.662169 8.344794,8.707001 8.299379,8.707001 8.247126,8.707152 8.247678,8.649594 8.249757,8.600997 8.302177,8.600997 8.344696,8.600881" style="fill: white" /><polygon type="contour" points="8.092875,8.600997 8.092948,8.649595 8.092905,8.707327 7.983065,8.707327 7.982986,8.649595 7.982823,8.600881 8.046952,8.600881" style="fill: white" /><polygon type="contour" points="8.092992,8.29947 8.092876,8.344643 8.031972,8.344643 7.982823,8.344699 7.982904,8.30218 7.982801,8.249563 8.092992,8.249563" style="fill: white" /><polygon type="contour" points="8.302177,8.249759 8.344641,8.249759 8.344641,8.30218 8.344696,8.344699 8.289498,8.344699 8.249757,8.344643 8.249561,8.299471 8.249561,8.249563" style="fill: white" /><polygon type="contour" points="8.302177,7.982906 8.344696,7.982825 8.344696,8.046954 8.344641,8.092878 8.299469,8.092995 8.249561,8.092995 8.249561,7.982803" style="fill: white" /><polygon type="contour" points="8.649592,7.982988 8.707325,7.983066 8.707325,8.095188 8.649592,8.094868 8.600995,8.092878 8.600995,8.031974 8.600879,7.982825" style="fill: white" /><polygon type="contour" points="8.706999,8.301299 8.706999,8.344797 8.649591,8.344797 8.600879,8.344699 8.600879,8.289501 8.600995,8.249759 8.649592,8.249596 8.70715,8.249377" style="fill: white" /><polygon type="contour" points="8.706999,8.600981 8.707325,8.649489 8.707325,8.707327 8.649591,8.707001 8.600978,8.707001 8.600978,8.649594 8.600879,8.600881 8.662166,8.600881" style="fill: white" /><polygon type="contour" points="8.707325,8.860683 8.707325,9.153605 8.649591,9.153571 8.6007,9.153781 8.6007,8.99013 8.600977,8.86059 8.649591,8.86059" style="fill: white" /><polygon type="contour" points="8.991502,8.860184 9.152782,8.860184 9.152962,9.089304 9.153053,9.153055 9.089301,9.152964 8.859992,9.152911 8.859992,8.99255 8.859867,8.859869" style="fill: white" /><polygon type="contour" points="9.153609,8.684791 9.153511,8.707007 9.08985,8.707007 8.860681,8.707327 8.860587,8.649594 8.860587,8.600981 9.019879,8.600981 9.15378,8.600703" style="fill: white" /><polygon type="contour" points="9.440425,8.60088 9.439079,8.661815 9.439306,8.706848 9.393482,8.707211 9.339593,8.707211 9.339706,8.649595 9.340082,8.600703 9.396715,8.600703" style="fill: white" /><polygon type="contour" points="9.739639,9.340034 9.791668,9.340034 9.791742,9.39563 9.791742,9.439748 9.736071,9.439748 9.692218,9.439485 9.692218,9.381622 9.691953,9.339959" style="fill: white" /><polygon type="contour" points="9.791668,9.739643 9.791668,9.79167 9.736071,9.791744 9.691953,9.791744 9.691953,9.736462 9.692218,9.692624 9.750078,9.692624 9.791742,9.692344" style="fill: white" /><polygon type="contour" points="9.739639,9.978159 9.791668,9.978159 9.791668,10.117608 9.792108,10.271 9.737934,10.271026 9.692017,10.271026 9.692017,10.112268 9.691953,9.977831" style="fill: white" /><polygon type="contour" points="10.042397,9.978738 10.271708,9.978793 10.271708,10.139153 10.271834,10.271835 10.140197,10.271521 9.978919,10.271521 9.978736,10.042398 9.978646,9.978648" style="fill: white" /><polygon type="contour" points="10.271025,9.692397 10.270999,9.73822 10.270999,9.79211 10.135924,9.79211 9.978157,9.79167 9.977829,9.736462 9.977829,9.692344 10.140949,9.692344" style="fill: white" /><polygon type="contour" points="10.530822,9.691277 10.530822,9.750128 10.531,9.791621 10.480516,9.79167 10.424492,9.79211 10.424855,9.738314 10.424855,9.692397 10.482108,9.691135" style="fill: white" /><polygon type="contour" points="10.482107,9.339708 10.531,9.340084 10.531,9.395546 10.530822,9.439211 10.469889,9.439484 10.424855,9.439686 10.424492,9.393484 10.424492,9.339594" style="fill: white" /><polygon type="contour" points="10.271025,9.393768 10.271025,9.439686 10.112265,9.439686 9.977829,9.439748 9.978157,9.39206 9.978157,9.340034 10.117607,9.340034 10.270999,9.339594" style="fill: white" /><polygon type="contour" points="10.271519,8.991504 10.271519,9.152784 10.042396,9.152964 9.978646,9.153055 9.978444,8.981801 9.978629,8.860073 10.110553,8.859869 10.271834,8.859869" style="fill: white" /><polygon type="contour" points="10.530721,9.01988 10.531,9.153781 10.482108,9.153571 10.423801,9.153323 10.424375,9.019737 10.424375,8.860683 10.482108,8.86059 10.530721,8.86059" style="fill: white" /><polygon type="contour" points="10.530822,8.662169 10.530721,8.707001 10.48221,8.707327 10.424375,8.707327 10.424702,8.649595 10.424702,8.600981 10.482108,8.600981 10.530822,8.600881" style="fill: white" /><polygon type="contour" points="10.881943,8.600997 10.884023,8.649595 10.884574,8.707152 10.83232,8.707001 10.786906,8.707001 10.786906,8.649595 10.787004,8.600881 10.842201,8.600881" style="fill: white" /><polygon type="contour" points="11.148714,8.649594 11.148636,8.707327 11.097676,8.707014 11.038671,8.707014 11.038751,8.649595 11.038824,8.600997 11.099727,8.600997 11.148877,8.600881" style="fill: white" /><polygon type="contour" points="11.318392,7.999118 11.317321,8.028089 11.317224,8.092129 11.039574,8.092129 11.039574,8.008582 11.039643,7.935874 11.039643,7.814409 11.103613,7.814381 11.325038,7.806665" style="fill: white" /><polygon type="contour" points="11.148797,8.302179 11.148877,8.344699 11.084747,8.344699 11.038824,8.344643 11.038706,8.29947 11.038706,8.249563 11.148899,8.249563" style="fill: white" /><polygon type="contour" points="10.881943,8.30218 10.881943,8.344643 10.829522,8.344643 10.787004,8.344699 10.787004,8.2895 10.787059,8.249759 10.832231,8.249563 10.88214,8.249563" style="fill: white" /><polygon type="contour" points="10.88214,8.092995 10.832232,8.092995 10.787059,8.092878 10.787059,8.031975 10.787004,7.982825 10.829522,7.982906 10.88214,7.982803" style="fill: white" /><polygon type="contour" points="10.530822,8.046954 10.530706,8.092877 10.482107,8.09295 10.424375,8.092906 10.424375,7.983066 10.482108,7.982988 10.530822,7.982825" style="fill: white" /><polygon type="contour" points="10.482108,8.247679 10.530706,8.249759 10.530706,8.302179 10.530822,8.344699 10.469533,8.344699 10.424702,8.344797 10.42455,8.300376 10.42455,8.247127" style="fill: white" /><polygon type="contour" points="10.271114,8.29938 10.271114,8.344797 10.11182,8.344797 9.977921,8.344805 9.978091,8.269538 9.978213,8.249855 10.041849,8.248863 10.271151,8.247127" style="fill: white" /><polygon type="contour" points="10.11182,8.600981 10.271114,8.600981 10.271018,8.649489 10.271018,8.707327 9.978098,8.707327 9.978131,8.649594 9.977921,8.600703" style="fill: white" /><polygon type="contour" points="9.791668,8.651184 9.792108,8.707211 9.737934,8.706848 9.692017,8.706848 9.692273,8.649595 9.692492,8.600881 9.750126,8.600881 9.791619,8.600703" style="fill: white" /><polygon type="contour" points="9.738218,8.860704 9.792108,8.860704 9.792108,8.995777 9.791668,9.153545 9.736072,9.153873 9.691953,9.153873 9.691953,8.990753 9.692017,8.860679" style="fill: white" /><polygon type="contour" points="9.439306,9.019435 9.439358,9.153873 9.392058,9.153545 9.340033,9.153545 9.340033,9.014095 9.339593,8.860704 9.393387,8.860679 9.439306,8.860679" style="fill: white" /><polygon type="contour" points="9.153544,9.340034 9.153871,9.39563 9.153871,9.439748 8.99075,9.439748 8.860676,9.439686 8.860702,9.393483 8.860702,9.339594 8.995775,9.339594" style="fill: white" /><polygon type="contour" points="9.439358,9.395629 9.439079,9.439485 9.381621,9.439485 9.339958,9.439748 9.340033,9.392059 9.340033,9.340034 9.395239,9.339959 9.439358,9.339959" style="fill: white" /><polygon type="contour" points="9.439079,9.692623 9.439079,9.750079 9.439358,9.791744 9.392058,9.79167 9.340033,9.79167 9.339958,9.736462 9.339958,9.692344 9.39524,9.692344" style="fill: white" /><polygon type="contour" points="9.153544,9.739642 9.153544,9.79167 9.014094,9.79167 8.860702,9.79211 8.860676,9.738314 8.860676,9.692397 9.019434,9.692397 9.153871,9.692344" style="fill: white" /><polygon type="contour" points="8.344696,9.692493 8.344696,9.750129 8.344802,9.791621 8.29747,9.791669 8.247853,9.791887 8.249718,9.737374 8.249718,9.692529 8.302177,9.692405" style="fill: white" /><polygon type="contour" points="8.034493,9.978704 8.091964,9.979002 8.092008,10.11399 8.092108,10.271507 7.941097,10.271507 7.814668,10.271835 7.814529,10.137942 7.814297,9.978467 7.902848,9.978467" style="fill: white" /><polygon type="contour" points="8.092825,9.739128 8.092825,9.791887 8.040929,9.791887 7.982873,9.79167 7.982874,9.742184 7.982925,9.692624 8.046856,9.692624 8.09297,9.692529" style="fill: white" /><polygon type="contour" points="8.09297,9.394714 8.09297,9.43956 8.032268,9.43956 7.982925,9.439485 7.982922,9.39563 7.982873,9.340034 8.03549,9.33805 8.092944,9.337863" style="fill: white" /><polygon type="contour" points="8.302177,9.339899 8.344802,9.340084 8.344802,9.396716 8.344696,9.440428 8.289625,9.439485 8.249718,9.43956 8.249561,9.392191 8.249561,9.339697" style="fill: white" /><polygon type="contour" points="8.706845,9.393768 8.706845,9.439686 8.649592,9.440568 8.600879,9.440428 8.600879,9.381575 8.6007,9.340084 8.651183,9.340033 8.707208,9.339594" style="fill: white" /><polygon type="contour" points="8.707208,9.738219 8.707208,9.79211 8.649591,9.791995 8.6007,9.791621 8.6007,9.736158 8.600879,9.692493 8.661812,9.692624 8.706845,9.692397" style="fill: white" /><polygon type="contour" points="8.649591,9.978133 8.707325,9.978099 8.707325,10.27102 8.649592,10.271115 8.600978,10.271115 8.600978,10.111822 8.6007,9.977923" style="fill: white" /><polygon type="contour" points="8.344802,10.141574 8.344794,10.271115 8.300374,10.271152 8.247126,10.271152 8.247126,10.134978 8.249561,9.978287 8.298953,9.977982 8.344802,9.977922" style="fill: white" /><polygon type="contour" points="8.299379,10.424704 8.344794,10.424704 8.344794,10.482108 8.344696,10.530823 8.289499,10.530823 8.249757,10.530707 8.247678,10.482109 8.247126,10.424552" style="fill: white" /><polygon type="contour" points="8.034022,10.42469 8.093029,10.42469 8.092948,10.482108 8.092876,10.530707 8.031972,10.530707 7.982823,10.530823 7.982986,10.482108 7.983065,10.424377" style="fill: white" /><polygon type="contour" points="8.092876,10.787061 8.092992,10.832234 8.092992,10.882141 7.982801,10.882141 7.982904,10.829523 7.982823,10.787005 8.046952,10.787005" style="fill: white" /><polygon type="contour" points="8.344696,10.842204 8.344641,10.881945 8.299469,10.882141 8.249561,10.882141 8.249757,10.829524 8.249757,10.787061 8.302177,10.787061 8.344696,10.787005" style="fill: white" /><polygon type="contour" points="8.344641,11.038826 8.344641,11.099728 8.344696,11.148879 8.302177,11.148798 8.249561,11.1489 8.249561,11.038708 8.299468,11.038708" style="fill: white" /><polygon type="contour" points="8.092127,11.123121 8.092058,11.195829 8.092058,11.317295 8.028087,11.317323 7.806663,11.32504 7.813309,11.132584 7.814379,11.103613 7.814475,11.039576 8.092127,11.039576" style="fill: white" />
</svg>
