<svg width="19.131698" height="19.131699">
<polygon type="contour" points="10.740258,11.708817 10.798369,11.708978 10.813757,11.708978 10.813901,11.782236 10.813901,11.953859 10.813757,11.982814 10.813757,11.992746 10.800989,11.992737 10.740257,11.992632 10.678273,11.992632 10.678273,12.163692 10.666495,12.164461 10.564545,12.169997 10.495931,12.165547 10.392195,12.16526 10.38951,12.078392 10.383708,12.078192 10.383725,12.075126 10.3837,12.072052 10.3837,11.992521 10.290917,11.992521 10.228808,11.992643 10.191324,11.992745 10.191317,11.953859 10.191317,11.782236 10.191324,11.728055 10.191324,11.709024 10.290916,11.708797 10.63884,11.708797" style="fill: white" /><polygon type="contour" points="11.982813,11.708978 11.992745,11.708978 11.992719,11.782698 11.992719,11.866598 12.089397,11.866598 12.163804,11.866668 12.163921,11.885192 12.167865,12.021019 12.17188,12.171882 11.912598,12.164291 11.866852,12.163931 11.866593,12.07857 11.866529,12.07842 11.866596,12.078372 11.866596,11.99256 11.782235,11.99256 11.723987,11.992751 11.708977,11.992746 11.708896,11.953858 11.708896,11.782236 11.708977,11.727694 11.708977,11.708978 11.782236,11.708897 11.953858,11.708897" style="fill: white" /><polygon type="contour" points="11.982645,10.191382 11.992744,10.191382 11.99252,10.290918 11.99252,10.383701 12.065899,10.383701 12.081012,10.383709 12.165638,10.383191 12.165545,10.495933 12.164094,10.650434 12.164084,10.678058 12.163876,10.679495 12.125998,10.679495 12.110058,10.678276 11.992631,10.678276 11.992631,10.740259 11.992736,10.800991 11.992745,10.813759 11.953858,10.813902 11.782236,10.813902 11.727691,10.813759 11.708977,10.813759 11.708816,10.740259 11.708796,10.638842 11.708796,10.290919 11.708977,10.213445 11.709023,10.191382 11.782236,10.19132 11.953857,10.19132" style="fill: white" /><polygon type="contour" points="10.740258,10.191302 10.798044,10.191382 10.813748,10.191382 10.813843,10.290918 10.813949,10.403521 10.813949,10.74026 10.813757,10.798371 10.813757,10.813759 10.740258,10.813951 10.403519,10.813951 10.290916,10.813845 10.213443,10.813759 10.191324,10.81375 10.191299,10.74026 10.191126,10.638842 10.191126,10.290919 10.191324,10.213908 10.191324,10.191382 10.290916,10.191129 10.63884,10.191129" style="fill: white" /><polygon type="contour" points="10.650433,6.967608 10.678057,6.967618 10.68047,6.967572 10.68047,7.031368 10.678272,7.139072 10.740257,7.139072 10.800989,7.138967 10.813757,7.138958 10.813901,7.177845 10.813901,7.349467 10.813757,7.404009 10.813757,7.422725 10.740258,7.422887 10.63884,7.422907 10.290917,7.422907 10.213443,7.422724 10.191324,7.42268 10.191317,7.349467 10.191317,7.177844 10.191324,7.149058 10.191324,7.13896 10.290916,7.139183 10.3837,7.139183 10.3837,7.065802 10.383708,7.053512 10.38951,7.053309 10.392195,6.966443" style="fill: white" /><polygon type="contour" points="12.167866,7.110684 12.163921,7.246511 12.163974,7.265206 12.12001,7.265206 12.104632,7.265199 12.051871,7.265357 11.992559,7.265357 11.992559,7.349467 11.99275,7.407714 11.992745,7.422725 11.953857,7.422806 11.782236,7.422806 11.727691,7.422725 11.708977,7.422725 11.708896,7.349466 11.708896,7.177844 11.708977,7.148889 11.708977,7.138958 11.723987,7.138953 11.782235,7.139144 11.866596,7.139144 11.866596,7.053523 11.866583,7.053233 11.866612,7.053089 11.866852,7.013398 11.866852,6.967772 11.912597,6.96741 12.17188,6.959821" style="fill: white" /><polygon type="contour" points="11.982813,8.317945 11.992745,8.317945 11.992736,8.330712 11.992631,8.391444 11.992631,8.453428 12.110058,8.453428 12.163876,8.45345 12.163957,8.453607 12.164083,8.453644 12.16446,8.465207 12.169996,8.567156 12.165544,8.635768 12.165638,8.748512 12.092859,8.748115 12.081013,8.747995 12.075124,8.747978 12.07205,8.748003 11.99252,8.748003 11.99252,8.840783 11.992642,8.902892 11.992744,8.940377 11.953857,8.940383 11.782235,8.940383 11.728054,8.940377 11.709023,8.940377 11.708796,8.840783 11.708796,8.492861 11.708816,8.391444 11.708977,8.333333 11.708977,8.317945 11.782236,8.317802 11.953858,8.317802" style="fill: white" /><polygon type="contour" points="10.798369,8.317945 10.813756,8.317945 10.813949,8.391445 10.813949,8.728183 10.813844,8.840783 10.813757,8.918258 10.813748,8.940377 10.740257,8.940403 10.63884,8.940576 10.290916,8.940576 10.213906,8.940377 10.191324,8.940377 10.191126,8.840783 10.191126,8.492861 10.191299,8.391444 10.191324,8.3336 10.191324,8.317954 10.290916,8.317858 10.403519,8.317753 10.740258,8.317753" style="fill: white" /><polygon type="contour" points="8.840783,8.317858 8.918256,8.317945 8.940321,8.317954 8.9404,8.391444 8.940574,8.492861 8.940574,8.840783 8.940321,8.917794 8.940321,8.940376 8.840782,8.940576 8.492859,8.940576 8.391442,8.940403 8.333599,8.940377 8.317953,8.940377 8.317856,8.840784 8.317752,8.728182 8.317752,8.391444 8.317944,8.333333 8.317944,8.317945 8.391442,8.317753 8.72818,8.317753" style="fill: white" /><polygon type="contour" points="8.635767,6.966157 8.739504,6.966443 8.742191,7.053309 8.747993,7.053512 8.747976,7.056577 8.748001,7.059651 8.748001,7.139183 8.840783,7.139183 8.90289,7.139062 8.940321,7.13896 8.940382,7.177844 8.940382,7.349467 8.940321,7.403647 8.940321,7.42268 8.840782,7.422907 8.492859,7.422907 8.391443,7.422887 8.33333,7.422725 8.317944,7.422725 8.3178,7.349466 8.3178,7.177844 8.317944,7.148889 8.317944,7.138958 8.330711,7.138967 8.391443,7.139072 8.453427,7.139072 8.453427,6.967797 8.453002,6.967418 8.453103,6.96729 8.453065,6.967249 8.453682,6.967866 8.567154,6.961706" style="fill: white" /><polygon type="contour" points="7.219098,6.96741 7.264847,6.967772 7.264847,7.013398 7.265261,7.041593 7.265105,7.042305 7.265105,7.139144 7.349465,7.139144 7.407712,7.138953 7.422723,7.138958 7.422804,7.177845 7.422804,7.349467 7.422723,7.404009 7.422723,7.422725 7.349464,7.422806 7.177841,7.422806 7.148886,7.422725 7.138955,7.422725 7.138982,7.349006 7.138982,7.265106 7.042301,7.265106 6.967896,7.265037 6.967779,7.246511 6.963481,7.110684 6.95982,6.959821" style="fill: white" /><polygon type="contour" points="7.404007,8.317945 7.422723,8.317945 7.422885,8.391444 7.422905,8.492861 7.422905,8.840783 7.422722,8.918258 7.422677,8.940377 7.349465,8.940383 7.177842,8.940383 7.149054,8.940377 7.138957,8.940377 7.13918,8.840784 7.13918,8.748003 7.0658,8.748003 7.050686,8.747995 6.966061,8.748512 6.966155,8.635767 6.967606,8.48127 6.967616,8.453645 6.967823,8.452209 7.005702,8.452209 7.021642,8.453428 7.139069,8.453428 7.139069,8.391444 7.138964,8.330712 7.138955,8.317945 7.177841,8.317802 7.349465,8.317802" style="fill: white" /><polygon type="contour" points="7.403646,10.191382 7.422678,10.191382 7.422905,10.290919 7.422905,10.638842 7.422885,10.740259 7.422723,10.798372 7.422723,10.813759 7.349465,10.813902 7.177841,10.813902 7.148886,10.813759 7.138955,10.813759 7.138964,10.800991 7.139069,10.740259 7.139069,10.678276 7.021642,10.678276 6.967822,10.679495 6.967741,10.678095 6.967616,10.678058 6.967239,10.666495 6.961703,10.564547 6.966154,10.495934 6.966061,10.383191 7.038839,10.383587 7.050686,10.383708 7.056575,10.383725 7.059649,10.383701 7.13918,10.383701 7.13918,10.290919 7.139059,10.228811 7.138957,10.191382 7.177841,10.19132 7.349464,10.19132" style="fill: white" /><polygon type="contour" points="8.917792,10.191382 8.940321,10.191382 8.940574,10.290919 8.940574,10.638842 8.9404,10.74026 8.940321,10.798047 8.940321,10.81375 8.840783,10.813845 8.72818,10.813951 8.391442,10.813951 8.333331,10.813759 8.317944,10.813759 8.317752,10.740259 8.317752,10.403521 8.317856,10.290918 8.317944,10.213446 8.317953,10.191382 8.391442,10.191302 8.492859,10.191129 8.840783,10.191129" style="fill: white" /><polygon type="contour" points="8.918256,11.708978 8.940321,11.709024 8.940382,11.782237 8.940382,11.953858 8.940321,11.982646 8.940321,11.992745 8.840782,11.992521 8.748001,11.992521 8.748001,12.0659 8.747993,12.078191 8.742191,12.078391 8.739505,12.16526 8.481267,12.164096 8.453641,12.164086 8.451227,12.164131 8.451227,12.100335 8.453427,11.992632 8.391443,11.992632 8.330711,11.992737 8.317944,11.992746 8.3178,11.953858 8.3178,11.782236 8.317944,11.727694 8.317944,11.708978 8.391442,11.708817 8.492859,11.708797 8.840782,11.708797" style="fill: white" /><polygon type="contour" points="7.404007,11.708978 7.422723,11.708978 7.422804,11.782237 7.422804,11.953859 7.422723,11.982814 7.422723,11.992746 7.407712,11.992751 7.349465,11.99256 7.265105,11.99256 7.265105,12.07818 7.265118,12.078469 7.265088,12.078612 7.264847,12.118305 7.264847,12.163931 7.219099,12.164291 6.959819,12.171882 6.96348,12.02102 6.967779,11.885192 6.967896,11.866668 7.0095,11.866668 7.050934,11.866498 7.079883,11.866504 7.138982,11.866504 7.138982,11.782698 7.13895,11.723988 7.138955,11.708978 7.177842,11.708897 7.349465,11.708897" style="fill: white" />
</svg>
