<svg width="19.131698" height="19.131699">
<polygon type="contour" points="10.727565,10.587962 10.727856,10.606943 10.72971,10.665582 10.729895,10.670093 10.731118,10.68211 10.73124,10.731243 10.645531,10.728819 10.632909,10.72832 10.626482,10.728236 10.449704,10.73045 10.447802,10.674473 10.447802,10.620783 10.447486,10.618179 10.447067,10.598861 10.446904,10.560751 10.446904,10.446906 10.727349,10.446906" style="fill: white" /><polygon type="contour" points="8.486169,8.402885 8.498791,8.403385 8.505216,8.403468 8.681996,8.401252 8.683898,8.457231 8.683898,8.510922 8.684214,8.513525 8.684631,8.532843 8.684796,8.570954 8.684796,8.684798 8.404351,8.684798 8.404134,8.543741 8.403843,8.52476 8.40199,8.466122 8.401803,8.461611 8.400582,8.449593 8.40046,8.400461" style="fill: white" /><polygon type="contour" points="8.685099,9.000692 8.685108,9.004186 8.685238,9.09878 8.685241,9.105788 8.571808,9.105788 8.571789,9.09878 8.571403,9.05215 8.571677,9.004187 8.571683,9.000013 8.685099,9.000013" style="fill: white" /><polygon type="contour" points="9.106384,9.004187 9.105808,9.098781 9.105786,9.104606 9.105786,9.105788 9.098778,9.10581 9.00426,9.10581 8.998439,9.105788 8.997289,9.105788 8.997472,9.09878 9.000022,9.004187 9.000011,9.000692 9.000011,9.000013 9.004185,9.000024 9.102072,9.000024 9.106392,9.000003" style="fill: white" /><polygon type="contour" points="9.098779,8.57179 9.105786,8.571809 9.105786,8.685235 9.098778,8.68524 9.004184,8.68511 9.00069,8.685101 9.000011,8.685101 9.000011,8.571685 9.004185,8.571678 9.052147,8.571405" style="fill: white" /><polygon type="contour" points="9.654827,8.404045 9.711101,8.404502 9.711101,8.685086 9.435549,8.685086 9.4206,8.68505 9.4206,8.404502 9.493442,8.402118 9.566199,8.401233" style="fill: white" /><polygon type="contour" points="9.711101,9.000008 9.711101,9.105788 9.4206,9.105788 9.4206,9.000003 9.709088,9.000003" style="fill: white" /><polygon type="contour" points="10.03292,8.997472 10.127516,9.000024 10.13101,9.000013 10.13169,9.000013 10.131679,9.004187 10.131679,9.102075 10.131695,9.106395 10.127515,9.106387 10.032921,9.10581 10.027095,9.105788 10.025914,9.105788 10.025892,9.09878 10.025892,9.004261 10.025914,8.99729" style="fill: white" /><polygon type="contour" points="10.127515,8.571678 10.13169,8.571685 10.13169,8.685101 10.13101,8.685101 10.127515,8.68511 10.032921,8.68524 10.025914,8.685243 10.025914,8.571809 10.03292,8.57179 10.079552,8.571405" style="fill: white" /><polygon type="contour" points="10.727857,8.524759 10.727565,8.543741 10.727349,8.684798 10.446904,8.684798 10.446904,8.570953 10.447067,8.532844 10.447487,8.513525 10.447802,8.457231 10.449703,8.401252 10.626483,8.403468 10.645531,8.402884 10.73124,8.400461" style="fill: white" /><polygon type="contour" points="10.560024,9.004187 10.560297,9.052149 10.559912,9.098781 10.559893,9.105788 10.446459,9.105788 10.446462,9.09878 10.446592,9.004186 10.446601,9.000692 10.446601,9.000013 10.560018,9.000013" style="fill: white" /><polygon type="contour" points="10.730893,9.481289 10.730486,9.566201 10.729856,9.633429 10.730231,9.711102 10.446614,9.711102 10.446614,9.420602 10.730231,9.420602" style="fill: white" /><polygon type="contour" points="10.559912,10.032922 10.560297,10.079554 10.560024,10.127517 10.560018,10.131692 10.446601,10.131692 10.446601,10.131012 10.446592,10.127517 10.446462,10.032922 10.446459,10.025916 10.559893,10.025916" style="fill: white" /><polygon type="contour" points="9.711101,10.131702 9.4206,10.131702 9.4206,10.025916 9.711101,10.025916" style="fill: white" /><polygon type="contour" points="9.711101,10.727203 9.638258,10.729586 9.565501,10.730471 9.476872,10.727657 9.4206,10.727203 9.4206,10.446652 9.711101,10.446652" style="fill: white" /><polygon type="contour" points="10.127515,10.446594 10.13101,10.446603 10.13169,10.446603 10.13169,10.56002 10.127515,10.560027 10.079552,10.560299 10.032921,10.559914 10.025914,10.559895 10.025914,10.446469 10.032921,10.446464" style="fill: white" /><polygon type="contour" points="10.131679,10.029628 10.131679,10.127517 10.13169,10.131012 10.13169,10.131692 10.127516,10.131681 10.03292,10.134232 10.025914,10.134423 10.025892,10.127443 10.025892,10.032923 10.025914,10.027097 10.025914,10.025915 10.032921,10.025893 10.127516,10.025317 10.131005,10.025309 10.131695,10.025309" style="fill: white" /><polygon type="contour" points="10.131695,9.711102 10.025914,9.711102 10.025914,9.420602 10.131695,9.420602" style="fill: white" /><polygon type="contour" points="9.711101,9.711102 9.4206,9.711102 9.4206,9.420602 9.711101,9.420602" style="fill: white" /><polygon type="contour" points="9.105786,9.711102 9.000001,9.711102 9.000001,9.422614 9.000006,9.420602 9.105786,9.420602" style="fill: white" /><polygon type="contour" points="8.685084,9.696152 8.685048,9.711102 8.401469,9.711102 8.400807,9.650414 8.401215,9.565502 8.401844,9.498273 8.40147,9.420602 8.685084,9.420602" style="fill: white" /><polygon type="contour" points="8.685238,10.032922 8.685108,10.127517 8.685099,10.131012 8.685099,10.131692 8.571682,10.131692 8.571676,10.127517 8.571403,10.079553 8.571789,10.032923 8.571808,10.025916 8.685233,10.025916" style="fill: white" /><polygon type="contour" points="9.004185,10.025317 9.098778,10.025893 9.104604,10.025916 9.105786,10.025916 9.105808,10.032922 9.106383,10.127517 9.106392,10.131702 9.102072,10.131681 9.004185,10.131681 9.00069,10.131692 9.000011,10.131692 9.000022,10.127517 9.000022,10.029628 9.000001,10.025309" style="fill: white" /><polygon type="contour" points="9.105786,10.446469 9.105786,10.559896 9.098779,10.559915 9.052148,10.560299 9.004185,10.560027 9.000011,10.56002 9.000011,10.446603 9.00069,10.446603 9.004184,10.446594 9.098778,10.446464" style="fill: white" /><polygon type="contour" points="8.684796,10.56075 8.684631,10.598861 8.684213,10.618179 8.683898,10.674472 8.681996,10.73045 8.505217,10.728236 8.486168,10.728819 8.40046,10.731243 8.403843,10.606944 8.404134,10.587962 8.404351,10.446906 8.684796,10.446906" style="fill: white" />
</svg>
