<svg width="19.131698" height="19.131699">
<polygon type="contour" points="10.769604,10.718531 10.824227,10.718531 10.824227,10.769607 10.824335,10.824337 10.777818,10.824462 10.769605,10.824229 10.718529,10.824229 10.718218,10.777157 10.718218,10.71822" style="fill: white" /><polygon type="contour" points="10.824335,10.968171 10.824335,11.075759 10.769605,11.075619 10.718218,11.075448 10.718529,11.023187 10.718529,10.967842 10.769604,10.967842" style="fill: white" /><polygon type="contour" points="11.246697,11.017916 11.252343,11.252345 11.044169,11.24509 10.97014,11.245685 10.969156,11.218519 10.969156,11.192256 10.969196,11.19089 10.968688,11.139786 10.96876,11.076654 10.96876,10.968762 11.08852,10.968642 11.24383,10.968642" style="fill: white" /><polygon type="contour" points="11.075567,10.7685 11.075757,10.824337 11.029128,10.824298 10.968029,10.824298 10.968029,10.764776 10.96784,10.71853 11.015726,10.71822 11.075445,10.71822" style="fill: white" /><polygon type="contour" points="11.027417,10.353166 11.075769,10.353166 11.075435,10.403328 11.075445,10.448489 11.023186,10.448263 10.96784,10.448263 10.96784,10.402259 10.96809,10.353065" style="fill: white" /><polygon type="contour" points="10.82446,10.353065 10.82446,10.406257 10.824227,10.448263 10.777154,10.448489 10.718218,10.448489 10.718473,10.403329 10.718473,10.35315 10.769604,10.353062" style="fill: white" /><polygon type="contour" points="10.769954,9.69856 10.824307,9.69856 10.824136,9.747672 10.824134,9.797807 10.779002,9.797735 10.770845,9.797681 10.718359,9.797681 10.718217,9.753779 10.718693,9.698487" style="fill: white" /><polygon type="contour" points="10.824264,9.909525 10.824468,10.075137 10.824335,10.202674 10.765567,10.202492 10.718473,10.202612 10.718359,10.057054 10.718359,9.909395 10.770844,9.909395" style="fill: white" /><polygon type="contour" points="11.111855,9.90987 11.243882,9.90987 11.243755,10.035703 11.243788,10.037696 11.24363,10.202982 11.152075,10.202982 11.028455,10.202979 10.968639,10.203149 10.968154,10.034056 10.968154,9.909755 11.031076,9.909755" style="fill: white" /><polygon type="contour" points="11.075542,9.747671 11.07568,9.797612 11.030483,9.797619 10.967562,9.797619 10.968029,9.741824 10.96816,9.698559 11.015978,9.698487 11.075399,9.698487" style="fill: white" /><polygon type="contour" points="11.075681,9.334092 11.075543,9.384385 11.075399,9.433608 11.023236,9.433506 10.96816,9.433506 10.967755,9.384385 10.967562,9.334086 11.030483,9.334086" style="fill: white" /><polygon type="contour" points="10.824199,9.334092 10.824402,9.390069 10.824307,9.433506 10.777333,9.433608 10.718694,9.433608 10.718789,9.384385 10.718359,9.334024 10.770845,9.334024" style="fill: white" /><polygon type="contour" points="10.769604,8.683442 10.824227,8.683442 10.824227,8.729444 10.82446,8.778639 10.769604,8.778642 10.718473,8.778554 10.718218,8.736298 10.718218,8.683215" style="fill: white" /><polygon type="contour" points="10.824335,8.929029 10.824134,9.098825 10.824264,9.22218 10.76323,9.22218 10.718359,9.22231 10.718473,9.083687 10.718473,8.929092 10.769605,8.928939" style="fill: white" /><polygon type="contour" points="11.028359,8.928864 11.152074,8.928722 11.24363,8.928722 11.243755,9.096001 11.243833,9.221883 10.968219,9.221883 10.96832,9.097054 10.968809,8.928692" style="fill: white" /><polygon type="contour" points="11.075804,8.729066 11.075769,8.778538 11.015348,8.778639 10.96809,8.778639 10.96809,8.725446 10.96784,8.683442 11.015727,8.683215 11.075445,8.683215" style="fill: white" /><polygon type="contour" points="11.244265,8.113297 11.243951,8.162941 10.96876,8.162941 10.96876,8.055049 10.968688,7.991917 10.969195,7.940813 10.969156,7.913183 10.96943,7.911314 10.97014,7.886019 11.044169,7.886614 11.252343,7.87936" style="fill: white" /><polygon type="contour" points="11.075616,8.362095 11.075445,8.413485 11.023186,8.413173 10.96784,8.413173 10.96784,8.362095 10.968169,8.307366 11.075757,8.307366" style="fill: white" /><polygon type="contour" points="10.82446,8.353882 10.824227,8.362095 10.824227,8.413173 10.777154,8.413485 10.718218,8.413485 10.718529,8.362095 10.718529,8.307472 10.769604,8.307472 10.824335,8.307366" style="fill: white" /><polygon type="contour" points="10.824297,8.102573 10.824297,8.163672 10.764774,8.163672 10.718529,8.163861 10.718218,8.115974 10.718218,8.056255 10.768498,8.056133 10.824335,8.055945" style="fill: white" /><polygon type="contour" points="10.203103,7.887656 10.203103,7.919039 10.203112,8.13982 10.203112,8.162941 10.07501,8.163061 9.909754,8.163145 9.909754,8.100625 9.909866,8.055119 9.909934,7.923801 9.909859,7.905022 9.910008,7.903637 9.910314,7.886984 10.15839,7.886938" style="fill: white" /><polygon type="contour" points="10.403326,8.056266 10.448487,8.056255 10.448261,8.108513 10.448261,8.163861 10.402256,8.163861 10.353063,8.163612 10.353164,8.104285 10.353164,8.055932" style="fill: white" /><polygon type="contour" points="10.448261,8.307472 10.448487,8.354545 10.448487,8.413485 10.403327,8.413229 10.353147,8.413229 10.353059,8.362095 10.353063,8.307241 10.406255,8.307241" style="fill: white" /><polygon type="contour" points="10.202673,8.307366 10.202491,8.366135 10.20261,8.413229 10.048015,8.413229 9.909393,8.413344 9.909393,8.360857 9.909523,8.307438 10.075135,8.307232" style="fill: white" /><polygon type="contour" points="9.747318,8.307566 9.797805,8.307568 9.797805,8.368731 9.797679,8.413344 9.753777,8.413485 9.698095,8.413791 9.698195,8.362472 9.698195,8.307394" style="fill: white" /><polygon type="contour" points="9.79761,8.163636 9.741631,8.163567 9.698195,8.163541 9.698095,8.115721 9.698095,8.056302 9.747317,8.056159 9.79761,8.056022" style="fill: white" /><polygon type="contour" points="9.221385,7.886984 9.221839,7.905022 9.221839,7.922231 9.221763,7.923801 9.221832,8.055118 9.221946,8.100625 9.221946,8.163145 9.056689,8.163061 8.928553,8.163061 8.928564,7.994847 8.928597,7.91904 8.928597,7.887656 8.973309,7.886938" style="fill: white" /><polygon type="contour" points="9.384031,8.056159 9.433215,8.056302 9.433142,8.108462 9.433142,8.163541 9.384031,8.1636 9.334091,8.163636 9.334091,8.056022" style="fill: white" /><polygon type="contour" points="9.433142,8.307394 9.433215,8.35437 9.433215,8.413791 9.38403,8.41362 9.334022,8.413344 9.334022,8.360856 9.334091,8.307503 9.390067,8.307299" style="fill: white" /><polygon type="contour" points="9.098823,8.307568 9.222112,8.307568 9.222112,8.36873 9.222308,8.413344 9.083685,8.413229 8.929091,8.413229 8.929208,8.366135 8.929026,8.307366" style="fill: white" /><polygon type="contour" points="8.778641,8.362095 8.778553,8.413229 8.736297,8.413485 8.683213,8.413485 8.68344,8.362096 8.68344,8.307472 8.729443,8.307472 8.778636,8.307241" style="fill: white" /><polygon type="contour" points="8.778536,8.055932 8.778637,8.116352 8.778637,8.163612 8.725444,8.163612 8.68344,8.163861 8.683213,8.115975 8.683213,8.056255 8.729064,8.055897" style="fill: white" /><polygon type="contour" points="8.087532,7.886614 8.16156,7.886019 8.162545,7.913183 8.162545,7.939227 8.162504,7.940813 8.163008,7.991917 8.16294,8.055049 8.16294,8.162941 8.043179,8.163061 7.887871,8.163061 7.885003,8.113787 7.879356,7.87936" style="fill: white" /><polygon type="contour" points="8.362093,8.056084 8.413483,8.056255 8.413171,8.108513 8.413171,8.163861 8.362094,8.163861 8.307364,8.163532 8.307364,8.055945" style="fill: white" /><polygon type="contour" points="8.362093,8.307472 8.413171,8.307472 8.413483,8.354544 8.413483,8.413485 8.362093,8.413173 8.30747,8.413173 8.30747,8.362096 8.307364,8.307366 8.35388,8.307241" style="fill: white" /><polygon type="contour" points="8.163531,8.367148 8.16386,8.413173 8.115972,8.413485 8.056255,8.413485 8.056133,8.363204 8.055943,8.307366 8.163531,8.307366" style="fill: white" /><polygon type="contour" points="8.108513,8.683442 8.16386,8.683442 8.16386,8.729444 8.16361,8.778639 8.104282,8.778538 8.055931,8.778538 8.056265,8.728375 8.056255,8.683215" style="fill: white" /><polygon type="contour" points="8.352697,9.333969 8.360856,9.334024 8.413342,9.334024 8.413483,9.377924 8.413007,9.433608 8.361746,9.433506 8.307392,9.433506 8.307564,9.384385 8.307566,9.333898" style="fill: white" /><polygon type="contour" points="8.163599,9.384385 8.163539,9.433505 8.11572,9.433608 8.056301,9.433608 8.056157,9.384385 8.056019,9.334092 8.101216,9.334086 8.163736,9.334086" style="fill: white" /><polygon type="contour" points="8.163144,9.097648 8.163078,9.221883 8.100425,9.221883 8.019844,9.221835 7.887818,9.221835 7.887946,9.096001 7.887913,9.094007 7.88807,8.928722 7.979625,8.928722 8.103244,8.928724 8.16306,8.928555" style="fill: white" /><polygon type="contour" points="8.366133,8.92921 8.413227,8.929092 8.413342,9.07465 8.413342,9.22231 8.360856,9.22231 8.307566,9.222114 8.307364,9.056138 8.307364,8.929029" style="fill: white" /><polygon type="contour" points="8.413227,8.728374 8.413227,8.778554 8.362094,8.778642 8.307239,8.778639 8.307239,8.725446 8.30747,8.683442 8.354543,8.683215 8.413483,8.683215" style="fill: white" /><polygon type="contour" points="8.728372,8.683354 8.778553,8.683354 8.778553,8.728374 8.778536,8.778538 8.726315,8.778538 8.683352,8.778554 8.683213,8.736299 8.683213,8.683215" style="fill: white" /><polygon type="contour" points="8.778576,9.096301 8.778612,9.22218 8.723773,9.22218 8.683072,9.22231 8.683352,9.083687 8.683352,8.929092 8.728372,8.929092 8.778499,8.929039" style="fill: white" /><polygon type="contour" points="8.778536,9.388528 8.778714,9.4337 8.736549,9.433608 8.682213,9.433608 8.682168,9.384385 8.683072,9.334024 8.730689,9.334024 8.778612,9.333969" style="fill: white" /><polygon type="contour" points="9.79761,9.334092 9.79761,9.391549 9.797799,9.433656 9.753995,9.433608 9.698094,9.433608 9.698047,9.384385 9.698047,9.333903 9.747317,9.333903" style="fill: white" /><polygon type="contour" points="9.797799,9.747672 9.79761,9.797612 9.740152,9.797612 9.698047,9.797801 9.698095,9.753997 9.698095,9.698487 9.747318,9.698401 9.797799,9.698401" style="fill: white" /><polygon type="contour" points="9.79761,9.909558 9.79761,10.202563 9.742421,10.202458 9.698003,10.202571 9.698047,10.057271 9.698047,9.909356 9.747317,9.909356" style="fill: white" /><polygon type="contour" points="10.070316,10.353166 10.202417,10.353166 10.202417,10.405386 10.20261,10.448351 10.048015,10.448351 9.909393,10.448631 9.909393,10.40101 9.909523,10.353088" style="fill: white" /><polygon type="contour" points="9.797733,10.353088 9.797733,10.407928 9.797679,10.448631 9.753778,10.448489 9.698095,10.449489 9.698003,10.404358 9.698003,10.352987 9.747318,10.352927" style="fill: white" /><polygon type="contour" points="9.797617,11.030485 9.79761,11.075681 9.747317,11.075544 9.698095,11.075402 9.698195,11.02324 9.698195,10.968162 9.747317,10.967756 9.797617,10.967563" style="fill: white" /><polygon type="contour" points="9.797679,10.770847 9.797805,10.824136 9.741771,10.824337 9.698195,10.824309 9.698095,10.777334 9.698095,10.718696 9.747317,10.71879 9.797679,10.718361" style="fill: white" /><polygon type="contour" points="10.048015,10.718475 10.20261,10.718475 10.20249,10.765568 10.202627,10.824028 10.032876,10.824136 9.909589,10.824136 9.909589,10.762972 9.909393,10.718361" style="fill: white" /><polygon type="contour" points="10.074734,10.968598 10.203103,10.968598 10.203136,11.136857 10.203103,11.212663 10.203103,11.244048 10.15839,11.244766 9.910314,11.244719 9.909859,11.226681 9.909859,11.209326 9.909934,11.20775 9.909867,11.076438 9.909754,11.031078 9.909754,10.968156" style="fill: white" /><polygon type="contour" points="10.448487,11.015728 10.448487,11.075448 10.402635,11.075807 10.353164,11.07577 10.353063,11.01535 10.353063,10.968091 10.406256,10.968091 10.448261,10.967842" style="fill: white" /><polygon type="contour" points="10.448261,10.769606 10.448261,10.824229 10.402257,10.824229 10.353063,10.824462 10.353059,10.769606 10.353147,10.718475 10.395402,10.71822 10.448487,10.71822" style="fill: white" /><polygon type="contour" points="10.448487,10.395403 10.448487,10.448489 10.403327,10.448351 10.353147,10.448351 10.353147,10.403328 10.353164,10.353166 10.405384,10.353166 10.448349,10.35315" style="fill: white" /><polygon type="contour" points="10.448349,10.048017 10.448349,10.202612 10.403327,10.202612 10.353164,10.20242 10.353086,10.0348 10.353086,9.909524 10.407927,9.909524 10.448629,9.909395" style="fill: white" /><polygon type="contour" points="10.202733,10.072284 10.20298,10.202982 10.035701,10.203059 9.909819,10.202826 9.909819,10.033466 9.909867,9.90987 9.971556,9.90987 10.033464,9.909821 10.202823,9.909821" style="fill: white" /><polygon type="contour" points="10.202653,9.747671 10.202559,9.797612 10.033021,9.797612 9.909523,9.797713 9.909523,9.740317 9.909354,9.698401 10.047718,9.698374 10.202569,9.698374" style="fill: white" /><polygon type="contour" points="10.395148,9.698487 10.449486,9.698487 10.449531,9.747672 10.448629,9.797681 10.401008,9.797681 10.353086,9.797735 10.353164,9.743175 10.352986,9.698374" style="fill: white" /><polygon type="contour" points="10.448629,9.334024 10.448487,9.377924 10.449487,9.433608 10.404356,9.4337 10.352986,9.4337 10.352925,9.384384 10.353086,9.333969 10.407927,9.333969" style="fill: white" /><polygon type="contour" points="10.20256,9.334092 10.202456,9.38928 10.202569,9.4337 10.057269,9.433656 9.909354,9.433656 9.909354,9.384384 9.909523,9.333991 10.078883,9.333991" style="fill: white" /><polygon type="contour" points="10.203056,9.096001 10.202922,9.221781 10.034648,9.221781 9.909867,9.221835 9.909867,9.159409 9.909819,9.098237 9.909819,8.928878 10.072282,8.928968 10.20298,8.928722" style="fill: white" /><polygon type="contour" points="10.448349,8.929092 10.448629,9.07465 10.448629,9.22231 10.401007,9.22231 10.353086,9.22218 10.353121,9.096301 10.353201,8.929039 10.405301,8.929039" style="fill: white" /><polygon type="contour" points="10.448349,8.728374 10.448349,8.778554 10.403326,8.778554 10.353164,8.778538 10.353164,8.726317 10.353147,8.683353 10.395401,8.683215 10.448487,8.683215" style="fill: white" /><polygon type="contour" points="10.048015,8.683354 10.20261,8.683354 10.202417,8.726318 10.202417,8.778538 10.070316,8.778538 9.909523,8.778614 9.909523,8.723775 9.909393,8.683074" style="fill: white" /><polygon type="contour" points="9.79761,8.92914 9.79761,9.09868 9.797711,9.22218 9.747318,9.222349 9.698047,9.222349 9.698003,9.083983 9.698003,8.929133 9.747317,8.929048" style="fill: white" /><polygon type="contour" points="9.797679,8.683074 9.797679,8.730691 9.797733,8.778614 9.743175,8.778538 9.698003,8.778717 9.698095,8.736552 9.698095,8.682996 9.747318,8.682877" style="fill: white" /><polygon type="contour" points="9.433329,8.728086 9.433329,8.778717 9.384031,8.778775 9.333968,8.778614 9.333968,8.723774 9.334022,8.683074 9.377923,8.683215 9.433214,8.682996" style="fill: white" /><polygon type="contour" points="9.222308,8.730692 9.222178,8.778614 9.061383,8.778538 8.929283,8.778538 8.929283,8.726318 8.929091,8.683354 9.083685,8.683354 9.222308,8.683074" style="fill: white" /><polygon type="contour" points="9.221779,8.928779 9.221779,9.097053 9.221833,9.221835 9.160143,9.221835 9.097052,9.221781 8.928778,9.221781 8.928862,9.060409 8.92872,8.928721 9.095998,8.928644" style="fill: white" /><polygon type="contour" points="9.433301,9.074433 9.433301,9.222349 9.38403,9.222349 9.334091,9.222147 9.334091,8.92914 9.389279,8.929244 9.433329,8.929133" style="fill: white" /><polygon type="contour" points="9.222347,9.384384 9.222347,9.433656 9.083981,9.4337 8.929132,9.4337 8.929047,9.384385 8.929138,9.334092 9.222145,9.334092" style="fill: white" /><polygon type="contour" points="9.433215,9.377704 9.433215,9.433608 9.38403,9.433656 9.333901,9.433656 9.333901,9.384384 9.334091,9.334092 9.38403,9.333903 9.433301,9.333903" style="fill: white" /><polygon type="contour" points="9.377704,9.698487 9.433215,9.698487 9.433301,9.747671 9.433301,9.797801 9.38403,9.797801 9.334091,9.797612 9.334091,9.740155 9.333901,9.698401" style="fill: white" /><polygon type="contour" points="8.778536,10.353166 8.778536,10.405387 8.778553,10.448351 8.736296,10.448489 8.683213,10.448489 8.683352,10.403329 8.683352,10.35315 8.728373,10.35315" style="fill: white" /><polygon type="contour" points="8.728372,10.718475 8.778553,10.718475 8.778641,10.769606 8.778637,10.824462 8.725443,10.824462 8.683439,10.824229 8.683213,10.777157 8.683213,10.71822" style="fill: white" /><polygon type="contour" points="8.778637,10.968091 8.778536,11.027418 8.778536,11.075771 8.728373,11.075437 8.683213,11.075448 8.68344,11.023188 8.68344,10.967842 8.729443,10.967842" style="fill: white" /><polygon type="contour" points="9.221946,11.031078 9.221833,11.076437 9.221764,11.207751 9.221839,11.226681 9.221691,11.228065 9.221385,11.244719 8.973309,11.244766 8.928597,11.244048 8.928597,11.212664 8.928587,10.991882 8.928587,10.968761 9.056688,10.968642 9.221946,10.968156" style="fill: white" /><polygon type="contour" points="9.384031,10.967756 9.433142,10.968162 9.433215,11.015982 9.433215,11.075402 9.384031,11.075544 9.334091,11.075681 9.334091,10.967663" style="fill: white" /><polygon type="contour" points="9.433215,10.718696 9.433142,10.769956 9.433142,10.824309 9.38403,10.824138 9.333896,10.824136 9.333896,10.762973 9.334022,10.718361 9.377922,10.71822" style="fill: white" /><polygon type="contour" points="9.222308,10.770846 9.222178,10.824266 9.056564,10.82447 8.929026,10.824337 8.929208,10.765568 8.929091,10.718475 9.083685,10.718475 9.222308,10.718361" style="fill: white" /><polygon type="contour" points="9.222178,10.407928 9.222308,10.448631 9.083685,10.448351 8.929091,10.448351 8.929283,10.405386 8.929283,10.353166 9.061383,10.353166 9.222178,10.353088" style="fill: white" /><polygon type="contour" points="9.433215,10.395149 9.433215,10.449489 9.384031,10.449534 9.334022,10.448631 9.334022,10.40101 9.333968,10.353088 9.388525,10.353166 9.433329,10.352987" style="fill: white" /><polygon type="contour" points="9.433329,10.04772 9.433329,10.202571 9.384031,10.202655 9.334091,10.202562 9.334091,9.909558 9.38403,9.909356 9.433301,9.909356" style="fill: white" /><polygon type="contour" points="9.221833,9.90987 9.221833,9.972295 9.221881,10.033466 9.221881,10.202826 9.059416,10.202735 8.92872,10.202981 8.928644,10.035702 8.928877,9.909821 9.098236,9.909821" style="fill: white" /><polygon type="contour" points="9.074432,9.698401 9.222347,9.698401 9.222347,9.747672 9.222145,9.797612 8.929138,9.797612 8.929243,9.742423 8.929132,9.698374" style="fill: white" /><polygon type="contour" points="8.778612,9.909524 8.778576,10.035403 8.778499,10.202665 8.726399,10.202665 8.683352,10.202612 8.683072,10.057054 8.683072,9.909395 8.730689,9.909395" style="fill: white" /><polygon type="contour" points="8.778773,9.747671 8.778612,9.797735 8.723772,9.797735 8.683072,9.797681 8.683213,9.75378 8.682213,9.698487 8.727344,9.698374 8.778714,9.698374" style="fill: white" /><polygon type="contour" points="8.412912,9.747672 8.413342,9.797681 8.360856,9.797681 8.307566,9.797807 8.307363,9.741772 8.307391,9.69856 8.354367,9.698487 8.413007,9.698487" style="fill: white" /><polygon type="contour" points="8.108461,9.69856 8.163539,9.69856 8.163599,9.747671 8.163634,9.797612 8.056019,9.797612 8.056157,9.747671 8.056301,9.698487" style="fill: white" /><polygon type="contour" points="8.163144,10.034056 8.16306,10.203149 8.103244,10.202979 7.979625,10.202982 7.88807,10.202982 7.887946,10.035702 7.887868,9.909821 8.163077,9.909821" style="fill: white" /><polygon type="contour" points="8.413227,10.048017 8.413227,10.202612 8.362093,10.202765 8.307364,10.202674 8.307566,10.032877 8.307566,9.909591 8.368728,9.909591 8.413342,9.909395" style="fill: white" /><polygon type="contour" points="8.413227,10.35315 8.413483,10.395404 8.413483,10.448489 8.362094,10.448263 8.30747,10.448263 8.30747,10.402258 8.307239,10.353065 8.362094,10.353062" style="fill: white" /><polygon type="contour" points="8.16361,10.406258 8.16386,10.448263 8.115973,10.448489 8.056255,10.448489 8.055896,10.402635 8.055931,10.353166 8.116351,10.353065 8.16361,10.353065" style="fill: white" /><polygon type="contour" points="8.108512,10.718531 8.16386,10.718531 8.16386,10.769606 8.163531,10.824337 8.055943,10.824337 8.056084,10.769607 8.056255,10.71822" style="fill: white" /><polygon type="contour" points="8.413171,10.769607 8.413171,10.824229 8.362093,10.824229 8.307364,10.824337 8.307239,10.77782 8.30747,10.769607 8.30747,10.718531 8.354543,10.71822 8.413483,10.71822" style="fill: white" /><polygon type="contour" points="8.413483,11.015729 8.413483,11.075448 8.363201,11.075569 8.307364,11.075759 8.307403,11.02913 8.307403,10.968031 8.366925,10.968031 8.413171,10.967842" style="fill: white" /><polygon type="contour" points="8.16294,11.076654 8.163008,11.139786 8.162505,11.19089 8.162545,11.218519 8.162269,11.220389 8.16156,11.245685 8.087532,11.24509 7.879357,11.252345 7.887435,11.018404 7.887749,10.968762 8.16294,10.968762" style="fill: white" />
</svg>
