<svg width="19.131698" height="19.131699">
<polygon type="contour" points="8.75249,8.635388 8.935008,8.634537 8.936957,8.694164 8.937063,8.700533 8.937765,8.802932 9.014253,8.803304 9.076066,8.80296 9.075985,8.894475 9.075985,8.984759 9.076066,9.036394 9.076066,9.076067 9.014252,9.075986 8.937926,9.075986 8.861403,9.076067 8.802958,9.076067 8.802705,9.044367 8.803516,8.937877 8.636605,8.937877 8.636588,8.890725 8.63614,8.833896 8.635047,8.734726 8.634643,8.724675 8.631888,8.63189" style="fill: white" /><polygon type="contour" points="9.076152,9.343316 9.076152,9.759205 9.076066,9.810744 9.076066,9.849509 9.014252,9.849159 8.937926,9.849159 8.861403,9.849509 8.802957,9.849509 8.802721,9.81824 8.803619,9.711102 8.632636,9.711102 8.632409,9.652262 8.632823,9.566202 8.633031,9.50287 8.632636,9.420602 8.803008,9.420602 8.803347,9.343317 8.802958,9.282195 8.894473,9.282545 8.984758,9.282545 9.036393,9.282195 9.076065,9.282195" style="fill: white" /><polygon type="contour" points="10.497056,8.724675 10.496652,8.734726 10.49556,8.833896 10.495113,8.890726 10.495095,8.937877 10.328769,8.937877 10.328399,9.014255 10.328743,9.076067 10.237226,9.075986 10.146941,9.075986 10.095306,9.076067 10.055635,9.076067 10.055716,9.014254 10.055716,8.937928 10.055635,8.861407 10.055635,8.80296 10.087334,8.802707 10.194634,8.803524 10.194634,8.700533 10.196692,8.634538 10.379209,8.635388 10.499812,8.63189" style="fill: white" /><polygon type="contour" points="9.688075,8.635978 9.711101,8.636644 9.711101,8.80301 9.788385,8.803349 9.849507,8.80296 9.849158,8.894475 9.849158,8.98476 9.849507,9.036395 9.849507,9.076067 9.788385,9.076154 9.372497,9.076154 9.320956,9.076067 9.282193,9.076067 9.282542,9.014254 9.282542,8.937928 9.282193,8.861407 9.282193,8.80296 9.313463,8.802723 9.4206,8.803621 9.4206,8.636572 9.443514,8.635979 9.470152,8.63472 9.565501,8.632901" style="fill: white" /><polygon type="contour" points="9.849275,9.343316 9.849275,9.759205 9.849507,9.810745 9.849507,9.849509 9.788386,9.849277 9.372497,9.849277 9.320956,9.849509 9.282193,9.849509 9.282423,9.788387 9.282423,9.372498 9.282193,9.320959 9.282193,9.282195 9.343314,9.282425 9.759204,9.282425 9.810742,9.282195 9.849507,9.282195" style="fill: white" /><polygon type="contour" points="10.328979,9.313465 10.328081,9.420602 10.499064,9.420602 10.499291,9.479441 10.498875,9.565501 10.498669,9.628834 10.499064,9.711102 10.328692,9.711102 10.328353,9.788386 10.328743,9.849509 10.237225,9.849159 10.146941,9.849159 10.095305,9.849509 10.055635,9.849509 10.055548,9.788386 10.055548,9.372497 10.055635,9.320958 10.055635,9.282195 10.117446,9.282545 10.193772,9.282545 10.270295,9.282195 10.328742,9.282195" style="fill: white" /><polygon type="contour" points="10.328996,10.087336 10.328184,10.193827 10.495095,10.193827 10.495113,10.240977 10.49556,10.297805 10.496652,10.396977 10.497057,10.407028 10.499812,10.499814 10.37921,10.496316 10.196692,10.497165 10.194743,10.437539 10.194634,10.431169 10.193935,10.328771 10.117446,10.3284 10.055635,10.328745 10.055716,10.237228 10.055716,10.146943 10.055635,10.095308 10.055635,10.055637 10.117447,10.055718 10.193772,10.055718 10.270295,10.055637 10.328743,10.055637" style="fill: white" /><polygon type="contour" points="9.810743,10.055637 9.849507,10.055637 9.849158,10.117449 9.849158,10.193774 9.849507,10.270296 9.849507,10.328745 9.818238,10.328982 9.711101,10.328083 9.711101,10.495132 9.688075,10.495725 9.66131,10.496983 9.565782,10.498801 9.443514,10.495725 9.4206,10.49506 9.4206,10.328694 9.343315,10.328355 9.282193,10.328744 9.282542,10.237228 9.282542,10.146942 9.282193,10.095307 9.282193,10.055637 9.343314,10.05555 9.759203,10.05555" style="fill: white" /><polygon type="contour" points="9.075985,10.117449 9.075985,10.193774 9.076066,10.270297 9.076066,10.328745 9.044366,10.328998 8.937063,10.32818 8.937063,10.431169 8.935008,10.497165 8.752489,10.496316 8.631888,10.499814 8.634643,10.407028 8.635047,10.396977 8.63614,10.297805 8.636588,10.240978 8.636605,10.193827 8.802931,10.193827 8.803302,10.117448 8.802958,10.055637 8.894473,10.055718 8.984758,10.055718 9.036393,10.055637 9.076066,10.055637" style="fill: white" />
</svg>
