<svg width="19.131698" height="19.131699">
<polygon type="contour" points="9.005631,11.1964 9.005657,11.243267 9.005603,11.326419 9.005446,11.404455 9.005346,11.436974 9.005343,11.459077 9.005205,11.480448 8.92947,11.480177 8.711727,11.480849 8.711727,11.360563 8.711766,11.245548 8.711766,11.196232 8.87947,11.196232" style="fill: white" /><polygon type="contour" points="9.006543,10.902359 9.006507,10.959315 9.006464,10.997221 8.833633,10.997221 8.712994,10.997214 8.713078,10.932716 8.713078,10.902335 8.912774,10.902335" style="fill: white" /><polygon type="contour" points="9.006378,10.687427 9.006543,10.721619 8.801918,10.721619 8.713078,10.721607 8.712862,10.660084 8.712862,10.614249 9.006161,10.614249" style="fill: white" /><polygon type="contour" points="8.875774,10.126692 9.005191,10.12651 9.005433,10.293723 9.005238,10.420149 8.873325,10.420149 8.795225,10.419977 8.711727,10.419977 8.711554,10.258376 8.711554,10.126465" style="fill: white" /><polygon type="contour" points="9.006469,9.320599 9.006529,9.396114 9.006529,9.432513 8.809147,9.432513 8.713053,9.432597 8.712953,9.367808 8.712953,9.320426 8.882168,9.320426" style="fill: white" /><polygon type="contour" points="9.006529,9.699662 9.006469,9.766134 9.006469,9.811105 8.831674,9.811105 8.712953,9.811278 8.713053,9.738152 8.713053,9.699566 8.905304,9.699566" style="fill: white" /><polygon type="contour" points="9.431849,9.699853 9.431849,9.775735 9.432041,9.810963 9.365568,9.811105 9.320598,9.811105 9.32074,9.73606 9.32074,9.699662 9.395641,9.699662" style="fill: white" /><polygon type="contour" points="9.395641,9.320742 9.432041,9.320742 9.432041,9.396113 9.431849,9.432328 9.355966,9.432328 9.32074,9.432513 9.320598,9.365569 9.320598,9.320599" style="fill: white" /><polygon type="contour" points="11.485424,7.88579 11.48218,7.934029 11.419987,7.934968 11.396657,7.935249 11.370296,7.93547 11.31254,7.93531 11.196392,7.93531 11.196392,7.651161 11.375286,7.650481 11.485687,7.646015" style="fill: white" /><polygon type="contour" points="11.311118,8.19953 11.311068,8.229296 11.228523,8.229296 11.195095,8.229361 11.195211,8.173585 11.195211,8.134483 11.311373,8.134483" style="fill: white" /><polygon type="contour" points="11.311068,8.410136 11.311212,8.444277 11.311543,8.517455 11.195142,8.517455 11.194981,8.444276 11.195095,8.410093 11.275366,8.410093" style="fill: white" /><polygon type="contour" points="11.311419,9.320599 11.311309,9.364254 11.310915,9.432328 11.231214,9.432328 11.195023,9.432568 11.195226,9.367039 11.195226,9.320389 11.263841,9.320389" style="fill: white" /><polygon type="contour" points="11.480988,8.875777 11.480969,9.005194 11.410175,9.005194 11.243836,9.005521 11.196515,9.005497 11.196175,8.838332 11.196007,8.711555 11.480683,8.711555" style="fill: white" /><polygon type="contour" points="10.997212,8.883917 10.997219,9.006466 10.959314,9.00651 10.902357,9.006544 10.902357,8.801922 10.902334,8.71308 10.957489,8.712996 10.997212,8.712996" style="fill: white" /><polygon type="contour" points="10.687425,8.71308 10.721606,8.71308 10.721606,8.912775 10.721617,9.006544 10.687425,9.00638 10.614247,9.006163 10.614247,8.712863" style="fill: white" /><polygon type="contour" points="10.419974,7.771139 10.419933,7.886156 10.419933,7.935472 10.252229,7.935472 10.12607,7.935305 10.126096,7.805285 10.126353,7.69473 10.126356,7.672626 10.126494,7.651256 10.202228,7.651527 10.419974,7.650855" style="fill: white" /><polygon type="contour" points="10.687426,7.82049 10.721567,7.820635 10.721567,7.903176 10.72161,7.936606 10.687426,7.93672 10.613193,7.936671 10.614247,7.869289 10.614247,7.820158" style="fill: white" /><polygon type="contour" points="10.997219,7.936491 10.958116,7.936491 10.902342,7.936606 10.902342,7.856335 10.902407,7.820635 10.932172,7.820584 10.997219,7.820328" style="fill: white" /><polygon type="contour" points="10.997062,8.199531 10.997062,8.229361 10.932172,8.229361 10.902407,8.229296 10.902407,8.162567 10.902342,8.13464 10.958115,8.134483 10.997219,8.134483" style="fill: white" /><polygon type="contour" points="10.997058,8.444276 10.997212,8.517598 10.932715,8.517673 10.902334,8.517673 10.902334,8.444276 10.902407,8.410136 10.969134,8.410136 10.997062,8.410093" style="fill: white" /><polygon type="contour" points="10.721567,8.410136 10.721567,8.486252 10.721606,8.517673 10.660082,8.517455 10.614247,8.517455 10.614029,8.444276 10.614029,8.410097 10.687426,8.410097" style="fill: white" /><polygon type="contour" points="10.687426,8.134644 10.72161,8.13464 10.72161,8.19953 10.721567,8.229296 10.645449,8.229296 10.614029,8.229368 10.614029,8.198986 10.614104,8.13449" style="fill: white" /><polygon type="contour" points="10.418706,8.13449 10.418622,8.198987 10.418622,8.229368 10.218926,8.229368 10.125158,8.229345 10.125191,8.172388 10.125235,8.134483 10.298067,8.134483" style="fill: white" /><polygon type="contour" points="10.418622,8.410097 10.418838,8.471619 10.418838,8.517455 10.12554,8.517455 10.126498,8.48691 10.125405,8.455185 10.125322,8.444276 10.125158,8.410085 10.329781,8.410085" style="fill: white" /><polygon type="contour" points="10.336475,8.711727 10.419974,8.711727 10.420146,8.873327 10.420146,9.00524 10.255924,9.00501 10.126508,9.005194 10.126268,8.837979 10.126463,8.711555 10.258375,8.711555" style="fill: white" /><polygon type="contour" points="10.418647,9.39401 10.418647,9.432597 10.226396,9.432597 10.125172,9.432513 10.125232,9.365568 10.125232,9.320599 10.300026,9.320599 10.418747,9.320426" style="fill: white" /><polygon type="contour" points="10.687425,9.32043 10.721617,9.32056 10.721617,9.398697 10.721567,9.432176 10.648137,9.432328 10.614114,9.432597 10.613809,9.367808 10.613809,9.320425" style="fill: white" /><polygon type="contour" points="10.997297,9.394657 10.997297,9.432568 10.932172,9.432403 10.902407,9.432176 10.902407,9.353094 10.902357,9.320561 10.959313,9.320715 10.997219,9.320505" style="fill: white" /><polygon type="contour" points="10.959313,10.125192 10.997219,10.125237 10.997219,10.298069 10.997211,10.418708 10.957489,10.418708 10.902334,10.418624 10.902334,10.218928 10.902357,10.12516" style="fill: white" /><polygon type="contour" points="10.721617,10.329782 10.721606,10.418624 10.687425,10.418624 10.614247,10.418841 10.614247,10.125541 10.687425,10.125325 10.721617,10.12516" style="fill: white" /><polygon type="contour" points="10.42007,10.126383 10.42007,10.256966 10.419974,10.336478 10.419974,10.419977 10.258375,10.420149 10.126463,10.420149 10.12669,10.255926 10.126508,10.12651 10.294959,10.126188" style="fill: white" /><polygon type="contour" points="10.418747,9.763895 10.418747,9.811278 10.249532,9.811278 10.125232,9.811105 10.125172,9.73606 10.125172,9.699662 10.322552,9.699662 10.418647,9.699566" style="fill: white" /><polygon type="contour" points="10.721567,9.699527 10.721567,9.77861 10.721617,9.811144 10.657073,9.811105 10.613809,9.811278 10.614114,9.738151 10.614114,9.699566 10.687426,9.699273" style="fill: white" /><polygon type="contour" points="10.967066,9.699853 10.997297,9.699599 10.997219,9.765195 10.997219,9.811199 10.932171,9.811302 10.902357,9.811144 10.902357,9.733005 10.902407,9.699527" style="fill: white" /><polygon type="contour" points="11.310915,9.699853 11.311308,9.767448 11.311419,9.811105 11.241336,9.811105 11.195225,9.811315 11.195023,9.737509 11.195023,9.699599 11.272354,9.699599" style="fill: white" /><polygon type="contour" points="11.480969,10.12651 11.480652,10.293723 11.480683,10.420149 11.196343,10.420149 11.196344,10.253538 11.196515,10.126208 11.313459,10.126183" style="fill: white" /><polygon type="contour" points="11.396657,11.196455 11.419987,11.196736 11.421764,11.197173 11.48214,11.197641 11.481987,11.388211 11.485687,11.485688 11.238639,11.483749 11.196392,11.480543 11.196392,11.196394 11.31254,11.196394 11.370295,11.196233" style="fill: white" /><polygon type="contour" points="11.311212,10.687426 11.311068,10.721568 11.228524,10.721568 11.195095,10.721611 11.194981,10.687426 11.195142,10.614249 11.311543,10.614249" style="fill: white" /><polygon type="contour" points="11.311068,10.902408 11.311118,10.932173 11.311373,10.997221 11.195211,10.997221 11.195211,10.958118 11.195095,10.902343 11.275367,10.902343" style="fill: white" /><polygon type="contour" points="10.419974,11.278367 10.419974,11.480849 10.345613,11.481176 10.126493,11.480448 10.126569,11.460917 10.126356,11.459078 10.126356,11.437978 10.126353,11.436974 10.126251,11.404455 10.126096,11.326419 10.126043,11.243268 10.12607,11.1964 10.295702,11.1964 10.419933,11.196232" style="fill: white" /><polygon type="contour" points="10.72161,11.195098 10.72161,11.275368 10.721567,11.311067 10.687426,11.311213 10.614247,11.311545 10.614247,11.195144 10.687426,11.194984" style="fill: white" /><polygon type="contour" points="10.958116,11.195214 10.997219,11.195214 10.997219,11.311375 10.932172,11.311119 10.902407,11.311068 10.902407,11.228525 10.902342,11.195098" style="fill: white" /><polygon type="contour" points="10.997219,10.958118 10.997219,10.997221 10.932172,10.997064 10.902342,10.997064 10.902342,10.932173 10.902407,10.902408 10.969134,10.902408 10.997062,10.902343" style="fill: white" /><polygon type="contour" points="10.95749,10.614106 10.997212,10.614106 10.997058,10.687426 10.997062,10.721611 10.932172,10.721611 10.902407,10.721568 10.902407,10.645452 10.902334,10.614031" style="fill: white" /><polygon type="contour" points="10.721606,10.687426 10.721567,10.721568 10.645449,10.721568 10.614029,10.721607 10.614247,10.660084 10.614247,10.614249 10.687425,10.614031 10.721606,10.614031" style="fill: white" /><polygon type="contour" points="10.721567,10.902408 10.721567,10.969136 10.72161,10.997064 10.687426,10.99706 10.614104,10.997214 10.614029,10.932716 10.614029,10.902335 10.687426,10.902335" style="fill: white" /><polygon type="contour" points="10.418706,10.95749 10.418706,10.997214 10.247783,10.997214 10.125235,10.997221 10.125191,10.932172 10.125158,10.902359 10.32978,10.902359 10.418622,10.902335" style="fill: white" /><polygon type="contour" points="10.418622,10.687426 10.418622,10.721607 10.218925,10.721607 10.125158,10.721619 10.125325,10.658046 10.12554,10.614249 10.418838,10.614249" style="fill: white" /><polygon type="contour" points="9.811271,10.687426 9.811141,10.721619 9.733004,10.721619 9.699526,10.721568 9.699374,10.648139 9.699106,10.614115 9.763891,10.61381 9.811275,10.61381" style="fill: white" /><polygon type="contour" points="9.810987,10.959315 9.811196,10.997221 9.737045,10.997299 9.699134,10.997299 9.6993,10.932173 9.699526,10.902408 9.778608,10.902408 9.811142,10.902359" style="fill: white" /><polygon type="contour" points="9.764661,11.195228 9.811312,11.195228 9.811312,11.263843 9.811103,11.311421 9.767447,11.31131 9.699374,11.310917 9.699374,11.231216 9.699134,11.195025" style="fill: white" /><polygon type="contour" points="9.432104,11.272356 9.431849,11.310917 9.364253,11.311309 9.320598,11.311421 9.317035,11.241892 9.316899,11.195411 9.394193,11.195025 9.432104,11.195025" style="fill: white" /><polygon type="contour" points="9.432174,10.902408 9.431849,10.967067 9.432104,10.997299 9.366506,10.997221 9.320503,10.997221 9.320401,10.932173 9.320559,10.902359 9.398696,10.902359" style="fill: white" /><polygon type="contour" points="9.393551,10.614115 9.432137,10.614115 9.432428,10.687426 9.432174,10.721568 9.353092,10.721568 9.320559,10.721619 9.320429,10.687426 9.320539,10.676518 9.320425,10.61381" style="fill: white" /><polygon type="contour" points="9.432041,10.322554 9.432137,10.418649 9.367807,10.418749 9.320425,10.418749 9.320425,10.249534 9.320598,10.125234 9.395641,10.125174 9.432041,10.125174" style="fill: white" /><polygon type="contour" points="9.766132,10.125234 9.811103,10.125234 9.811103,10.300027 9.811275,10.418749 9.737691,10.418649 9.699106,10.418649 9.699106,10.226398 9.69919,10.125174" style="fill: white" /><polygon type="contour" points="9.811103,9.766134 9.811103,9.811105 9.735588,9.810963 9.69919,9.810963 9.69919,9.736061 9.699374,9.699853 9.775734,9.699853 9.810961,9.699662" style="fill: white" /><polygon type="contour" points="9.810961,9.396114 9.810961,9.432513 9.735589,9.432513 9.699374,9.432328 9.699374,9.355968 9.69919,9.320742 9.766132,9.320599 9.811103,9.320599" style="fill: white" /><polygon type="contour" points="9.811275,8.882169 9.811103,9.00647 9.735588,9.006531 9.69919,9.006531 9.69919,8.809149 9.699106,8.713055 9.763892,8.712955 9.811275,8.712955" style="fill: white" /><polygon type="contour" points="9.811272,8.444277 9.811162,8.455185 9.811275,8.517893 9.737691,8.51759 9.699106,8.51759 9.699272,8.444276 9.699526,8.410136 9.778607,8.410136 9.811142,8.410085" style="fill: white" /><polygon type="contour" points="9.814666,7.88981 9.814802,7.936294 9.737044,7.936679 9.699134,7.936679 9.699134,7.859347 9.699374,7.820786 9.767447,7.820393 9.811103,7.820282" style="fill: white" /><polygon type="contour" points="9.765195,8.134483 9.811197,8.134483 9.8113,8.19953 9.811142,8.229345 9.733004,8.229345 9.699526,8.229296 9.699374,8.164637 9.699134,8.134405" style="fill: white" /><polygon type="contour" points="9.005498,8.161925 9.006334,8.189136 9.006509,8.199531 9.006543,8.229345 8.801919,8.229345 8.713078,8.229368 8.712994,8.174211 8.712994,8.13449 8.883914,8.13449 9.006464,8.134483" style="fill: white" /><polygon type="contour" points="9.006375,8.473657 9.006161,8.517455 8.712862,8.517455 8.713078,8.444277 8.713078,8.410097 8.912775,8.410097 9.006543,8.410085" style="fill: white" /><polygon type="contour" points="9.005009,8.875776 9.005191,9.005194 8.836741,9.005516 8.711631,9.005321 8.711631,8.874736 8.711727,8.795225 8.711727,8.711727 8.873325,8.711555 9.005238,8.711555" style="fill: white" /><polygon type="contour" points="9.39355,8.713055 9.432137,8.713055 9.432137,8.905305 9.432041,9.006531 9.365567,9.00647 9.320598,9.00647 9.320598,8.831676 9.320425,8.712955" style="fill: white" /><polygon type="contour" points="9.432174,8.410136 9.431849,8.483565 9.432137,8.51759 9.367807,8.517893 9.320425,8.517893 9.320429,8.444276 9.320559,8.410085 9.398695,8.410085" style="fill: white" /><polygon type="contour" points="9.432399,8.19953 9.432173,8.229296 9.353091,8.229296 9.320559,8.229345 9.320713,8.172388 9.320504,8.134483 9.394194,8.134405 9.432103,8.134405" style="fill: white" /><polygon type="contour" points="9.364253,7.820393 9.431849,7.820786 9.431849,7.900485 9.432104,7.936679 9.363914,7.936294 9.316899,7.936294 9.320388,7.86786 9.320598,7.820282" style="fill: white" /><polygon type="contour" points="9.005205,7.651256 9.005129,7.670786 9.005343,7.672625 9.005343,7.693725 9.005345,7.69473 9.005446,7.727248 9.005603,7.805284 9.005657,7.888436 9.005631,7.935305 8.835996,7.935305 8.711765,7.935472 8.711727,7.853337 8.711727,7.650855 8.786088,7.650528" style="fill: white" /><polygon type="contour" points="7.89306,7.647954 7.935308,7.651161 7.935308,7.93531 7.819158,7.93531 7.761404,7.935471 7.735042,7.935249 7.711712,7.934968 7.709936,7.934528 7.649559,7.934063 7.649712,7.743493 7.646013,7.646015" style="fill: white" /><polygon type="contour" points="8.199528,7.820583 8.229293,7.820635 8.229293,7.903176 8.229359,7.936606 8.173584,7.936491 8.134481,7.936491 8.134481,7.820328" style="fill: white" /><polygon type="contour" points="8.517454,7.93656 8.444274,7.93672 8.410091,7.936606 8.410091,7.856336 8.410133,7.820635 8.444274,7.82049 8.517454,7.820158" style="fill: white" /><polygon type="contour" points="8.517672,8.198986 8.517672,8.229368 8.444274,8.229368 8.410133,8.229296 8.410133,8.162567 8.410091,8.13464 8.444274,8.134644 8.517597,8.13449" style="fill: white" /><polygon type="contour" points="8.517454,8.471619 8.517454,8.517455 8.444275,8.517673 8.410095,8.517673 8.410095,8.444276 8.410133,8.410136 8.48625,8.410136 8.517672,8.410097" style="fill: white" /><polygon type="contour" points="7.935356,8.878166 7.935185,9.005497 7.818242,9.005522 7.650732,9.005194 7.651048,8.837979 7.651017,8.711555 7.935357,8.711555" style="fill: white" /><polygon type="contour" points="7.936718,8.444276 7.936559,8.517455 7.820157,8.517455 7.820487,8.444277 7.820632,8.410136 7.903175,8.410136 7.936605,8.410093" style="fill: white" /><polygon type="contour" points="7.936489,8.173585 7.936605,8.229361 7.856332,8.229361 7.820632,8.229296 7.820581,8.199531 7.820327,8.134483 7.936489,8.134483" style="fill: white" /><polygon type="contour" points="8.199529,8.13464 8.229359,8.13464 8.229359,8.19953 8.229293,8.229296 8.162565,8.229296 8.134638,8.229361 8.134481,8.173584 8.134481,8.134483" style="fill: white" /><polygon type="contour" points="8.229293,8.410136 8.229293,8.486251 8.229366,8.517673 8.174209,8.517599 8.134489,8.517599 8.134642,8.444277 8.134638,8.410093 8.199528,8.410093" style="fill: white" /><polygon type="contour" points="8.229366,8.713079 8.229366,8.912775 8.229343,9.006544 8.172386,9.006509 8.134481,9.006466 8.134481,8.833633 8.134489,8.712996 8.174209,8.712996" style="fill: white" /><polygon type="contour" points="8.517454,9.006163 8.444275,9.00638 8.410084,9.006544 8.410084,8.801922 8.410095,8.71308 8.444275,8.71308 8.517454,8.712863" style="fill: white" /><polygon type="contour" points="8.517587,9.39401 8.517587,9.432597 8.444275,9.432431 8.410133,9.432176 8.410133,9.353093 8.410084,9.320561 8.474624,9.320599 8.517891,9.320426" style="fill: white" /><polygon type="contour" points="8.229343,9.320561 8.229343,9.398697 8.229293,9.432176 8.164633,9.432328 8.134403,9.432568 8.134481,9.366507 8.134481,9.320505 8.199528,9.320403" style="fill: white" /><polygon type="contour" points="7.936677,9.394657 7.936677,9.432568 7.859346,9.432568 7.820785,9.432328 7.820391,9.364254 7.820281,9.320599 7.890364,9.320599 7.936474,9.320389" style="fill: white" /><polygon type="contour" points="7.935297,10.126132 7.935525,10.293371 7.935693,10.420149 7.651016,10.420149 7.650711,10.255926 7.650732,10.12651 7.721525,10.12651 7.887182,10.126105" style="fill: white" /><polygon type="contour" points="7.936292,9.767788 7.936292,9.814805 7.867859,9.811315 7.820281,9.811105 7.820391,9.767448 7.820785,9.699853 7.900484,9.699853 7.936677,9.699599" style="fill: white" /><polygon type="contour" points="8.229293,9.699527 8.229293,9.77861 8.229343,9.811144 8.172387,9.810989 8.134481,9.811199 8.134403,9.737508 8.134403,9.699599 8.199529,9.699301" style="fill: white" /><polygon type="contour" points="8.483562,9.699853 8.517587,9.699566 8.517891,9.763895 8.517891,9.811278 8.444274,9.811274 8.410084,9.811144 8.410084,9.733005 8.410133,9.699527" style="fill: white" /><polygon type="contour" points="8.444275,10.125325 8.517454,10.125541 8.517454,10.418841 8.444275,10.418624 8.410095,10.418624 8.410095,10.218928 8.410084,10.12516" style="fill: white" /><polygon type="contour" points="8.229343,10.329782 8.229366,10.418624 8.174209,10.418708 8.134489,10.418708 8.134489,10.247784 8.134481,10.125237 8.172387,10.125192 8.229343,10.125159" style="fill: white" /><polygon type="contour" points="8.471618,10.614249 8.517454,10.614249 8.517672,10.687426 8.517672,10.721607 8.444274,10.721607 8.410133,10.721568 8.410133,10.645452 8.410095,10.614031" style="fill: white" /><polygon type="contour" points="8.229359,11.275367 8.229293,11.311068 8.199528,11.311119 8.134481,11.311375 8.134481,11.195214 8.173583,11.195214 8.229359,11.195098" style="fill: white" /><polygon type="contour" points="8.517454,11.195144 8.517454,11.311545 8.444274,11.311213 8.410133,11.311068 8.410133,11.228525 8.410091,11.195098 8.444274,11.194984" style="fill: white" /><polygon type="contour" points="8.517672,10.932716 8.517597,10.997214 8.444274,10.99706 8.410091,10.997064 8.410091,10.932172 8.410133,10.902408 8.486249,10.902408 8.517672,10.902335" style="fill: white" /><polygon type="contour" points="8.229293,10.902408 8.229293,10.969135 8.229359,10.997064 8.173583,10.997221 8.134481,10.997221 8.134638,10.932172 8.134638,10.902343 8.199528,10.902343" style="fill: white" /><polygon type="contour" points="8.229366,10.687426 8.229293,10.721568 8.162565,10.721568 8.134638,10.721611 8.134642,10.687426 8.134489,10.614106 8.198984,10.614031 8.229366,10.614031" style="fill: white" /><polygon type="contour" points="7.936718,10.687427 7.936605,10.721611 7.856333,10.721611 7.820632,10.721568 7.820487,10.687426 7.820157,10.614249 7.936559,10.614249" style="fill: white" /><polygon type="contour" points="7.936489,10.958118 7.936489,10.997221 7.820327,10.997221 7.820581,10.932172 7.820632,10.902408 7.903176,10.902408 7.936605,10.902343" style="fill: white" /><polygon type="contour" points="7.819158,11.196394 7.935308,11.196394 7.935308,11.480543 7.756413,11.481223 7.646012,11.485689 7.646276,11.245913 7.64952,11.197674 7.711712,11.196735 7.735042,11.196455 7.761404,11.196233" style="fill: white" />
</svg>
