<svg width="19.131698" height="19.131699">
<polygon type="contour" points="11.723703,7.461054 11.719209,7.527881 11.718592,7.706805 11.424897,7.706805 11.424897,7.58181 11.425193,7.47588 11.425336,7.443514 11.425643,7.441092 11.42567,7.412686 11.618731,7.41219 11.72376,7.407942" style="fill: white" /><polygon type="contour" points="8.790707,8.621241 8.790731,8.790732 8.651066,8.790547 8.495513,8.790547 8.495705,8.641354 8.495939,8.495942 8.662411,8.495729 8.790548,8.495568" style="fill: white" /><polygon type="contour" points="7.462662,7.408371 7.512968,7.41219 7.706027,7.412685 7.706362,7.443514 7.706362,7.474282 7.706504,7.47588 7.706803,7.58181 7.706803,7.706805 7.413108,7.706805 7.412491,7.527881 7.407939,7.407942" style="fill: white" /><polygon type="contour" points="7.708711,7.977084 7.708866,8.052913 7.708866,8.167282 7.708565,8.245133 7.673066,8.245034 7.583319,8.245034 7.583303,8.166648 7.58331,8.163153 7.58331,8.052957 7.583445,7.974693 7.58347,7.943819 7.708711,7.943819" style="fill: white" /><polygon type="contour" points="7.70749,8.580654 7.707103,8.788244 7.612166,8.788856 7.4134,8.789331 7.413511,8.692235 7.413921,8.494174 7.479136,8.493639 7.70749,8.493097" style="fill: white" /><polygon type="contour" points="8.151122,8.496576 8.151122,8.496104 8.166647,8.496104 8.245109,8.495881 8.245109,8.558845 8.245041,8.790942 8.223566,8.790948 8.151091,8.791628 8.151091,8.791523 8.03417,8.791648 7.943872,8.790897 7.943872,8.719357 7.94365,8.495725 7.967085,8.495691" style="fill: white" /><polygon type="contour" points="8.244981,8.034172 8.244605,8.151124 8.244921,8.151124 8.244921,8.166648 8.245032,8.245034 8.218793,8.245034 8.151121,8.244923 8.151121,8.244613 8.03417,8.244982 7.943611,8.245133 7.943611,8.218063 7.94386,8.052913 7.943712,8.052913 7.943712,8.034172 7.943815,7.943819 7.977081,7.943819 8.052911,7.943714 8.16728,7.943714 8.245132,7.943614" style="fill: white" /><polygon type="contour" points="8.219964,7.583333 8.245032,7.583321 8.245132,7.619925 8.245132,7.708566 8.21806,7.708566 8.151181,7.708867 8.03417,7.708867 7.943816,7.708713 7.943816,7.583472 8.034171,7.583328 8.077684,7.583289" style="fill: white" /><polygon type="contour" points="8.789408,7.413685 8.788914,7.444492 8.788342,7.684086 8.788406,7.707336 8.731175,7.707336 8.493297,7.707198 8.493234,7.676807 8.493234,7.453713 8.493927,7.41359 8.591267,7.413476" style="fill: white" /><polygon type="contour" points="8.791132,7.944032 8.791103,7.964152 8.791666,8.059876 8.791617,8.166648 8.790624,8.245131 8.735379,8.245131 8.495988,8.244836 8.495988,8.22249 8.496258,8.052877 8.496102,8.052877 8.496124,8.034172 8.495932,7.943745 8.569183,7.943745" style="fill: white" /><polygon type="contour" points="9.859737,7.943818 9.855478,8.021298 9.855219,8.034172 9.854875,8.151093 9.855164,8.151093 9.855142,8.166649 9.855351,8.245034 9.813838,8.245034 9.70617,8.245061 9.706034,8.226524 9.707423,8.052957 9.706638,8.052957 9.706698,8.034173 9.706123,7.943703 9.738193,7.943703" style="fill: white" /><polygon type="contour" points="9.855533,7.583211 9.855533,7.671947 9.855623,7.708472 9.810642,7.708472 9.706123,7.709091 9.706034,7.684063 9.706034,7.583472 9.813886,7.583205" style="fill: white" /><polygon type="contour" points="9.425105,7.583472 9.425028,7.610739 9.425028,7.709091 9.392959,7.709091 9.276078,7.708472 9.276168,7.671947 9.276168,7.583211 9.317813,7.583204" style="fill: white" /><polygon type="contour" points="9.425105,7.965293 9.425013,8.151091 9.425062,8.151091 9.424959,8.166648 9.424976,8.245061 9.394136,8.245061 9.276349,8.245034 9.27631,8.219177 9.276861,8.052898 9.276536,8.052898 9.276481,8.034173 9.271964,7.943819 9.317382,7.943819 9.425028,7.943703" style="fill: white" /><polygon type="contour" points="9.424976,8.496263 9.424948,8.556695 9.424948,8.791262 9.394665,8.791262 9.276476,8.790766 9.276069,8.55874 9.2761,8.495503 9.308367,8.495503" style="fill: white" /><polygon type="contour" points="9.855632,8.55874 9.855225,8.790766 9.820983,8.790766 9.706197,8.791262 9.706171,8.72972 9.706171,8.496263 9.737011,8.496263 9.855601,8.495503" style="fill: white" /><polygon type="contour" points="10.481631,8.495576 10.635759,8.495942 10.635925,8.626812 10.63609,8.790635 10.493246,8.790811 10.34097,8.790732 10.341156,8.651067 10.340915,8.495387" style="fill: white" /><polygon type="contour" points="10.635804,7.96983 10.635349,8.151124 10.635596,8.151124 10.635596,8.166649 10.635712,8.244836 10.565169,8.244836 10.341076,8.245131 10.341073,8.227921 10.340076,8.151092 10.340186,8.151093 10.340055,8.034173 10.340567,7.944032 10.398187,7.944032 10.635768,7.943745" style="fill: white" /><polygon type="contour" points="10.638466,7.453713 10.638466,7.676807 10.638403,7.707198 10.565151,7.707198 10.343294,7.707336 10.342809,7.629716 10.342293,7.413686 10.421786,7.413776 10.637773,7.41359" style="fill: white" /><polygon type="contour" points="11.078746,7.583349 11.078746,7.583312 11.157008,7.583447 11.187884,7.583472 11.187884,7.708713 11.154619,7.708713 11.078788,7.708867 10.964419,7.708867 10.886568,7.708566 10.886668,7.673067 10.886668,7.583321 10.965054,7.583306" style="fill: white" /><polygon type="contour" points="11.078789,7.94386 11.078789,7.943714 11.097529,7.943714 11.187884,7.943819 11.188089,8.021297 11.187988,8.034172 11.187988,8.167281 11.188089,8.245133 11.097529,8.244982 10.980579,8.244613 10.980579,8.244923 10.965054,8.244923 10.886668,8.245034 10.886668,8.218795 10.886777,8.151123 10.887092,8.151123 10.886717,8.034172 10.886568,7.943614 10.913639,7.943614" style="fill: white" /><polygon type="contour" points="11.548374,8.034173 11.54839,8.040017 11.54839,8.151091 11.548368,8.219965 11.548381,8.245034 11.511777,8.245133 11.423135,8.245133 11.423135,8.218063 11.422833,8.151184 11.422833,8.034172 11.42299,7.943819 11.548227,7.943819" style="fill: white" /><polygon type="contour" points="11.513539,8.493686 11.71778,8.494174 11.71788,8.58225 11.7183,8.789331 11.647033,8.788775 11.424703,8.788212 11.424164,8.558612 11.424164,8.493094" style="fill: white" /><polygon type="contour" points="11.188047,8.561606 11.187825,8.790897 11.162769,8.790857 11.074216,8.79167 10.965053,8.79162 10.886657,8.790942 10.886657,8.722079 10.886591,8.495881 10.906537,8.495881 11.078826,8.496399 11.078826,8.496104 11.097529,8.496127 11.188047,8.495725" style="fill: white" /><polygon type="contour" points="11.719209,11.603822 11.723761,11.723762 11.669037,11.723333 11.61873,11.719514 11.42567,11.719019 11.425336,11.688189 11.425336,11.657421 11.425194,11.655823 11.424897,11.549894 11.424897,11.424899 11.718592,11.424899" style="fill: white" /><polygon type="contour" points="9.425105,11.447641 9.425105,11.54823 9.317813,11.548498 9.276168,11.548493 9.276168,11.459757 9.276078,11.423233 9.321056,11.423233 9.425028,11.422613" style="fill: white" /><polygon type="contour" points="9.855623,11.423233 9.855533,11.459757 9.855533,11.548493 9.813885,11.548498 9.706034,11.54823 9.706123,11.520961 9.706123,11.422613 9.738192,11.422613" style="fill: white" /><polygon type="contour" points="9.855351,10.88667 9.855389,10.912526 9.854838,11.078806 9.855164,11.078806 9.855218,11.097531 9.855623,11.188108 9.738192,11.188001 9.706123,11.188001 9.706034,11.16641 9.707314,10.980613 9.706638,10.980613 9.706741,10.965055 9.706171,10.886643 9.737011,10.886643" style="fill: white" /><polygon type="contour" points="9.425105,10.905179 9.425006,11.078747 9.425062,11.078747 9.425001,11.09753 9.425028,11.188001 9.392959,11.188001 9.276078,11.188108 9.276222,11.110406 9.276481,11.097531 9.276824,10.980611 9.276536,10.980611 9.276558,10.965055 9.276349,10.88667 9.317861,10.88667 9.424976,10.886643" style="fill: white" /><polygon type="contour" points="9.424976,10.401982 9.424976,10.635441 9.394136,10.635441 9.2761,10.636201 9.276069,10.572963 9.276476,10.340939 9.310717,10.340939 9.424948,10.340443" style="fill: white" /><polygon type="contour" points="9.855225,10.340939 9.855632,10.572963 9.855601,10.636201 9.823334,10.636201 9.706171,10.635441 9.706197,10.575008 9.706197,10.340443 9.736477,10.340443" style="fill: white" /><polygon type="contour" points="10.480633,10.341158 10.636187,10.341158 10.635993,10.490347 10.635759,10.635761 10.469286,10.635971 10.341153,10.636135 10.340994,10.510461 10.34097,10.340973" style="fill: white" /><polygon type="contour" points="10.635712,10.886868 10.635712,10.909214 10.635436,11.078828 10.635596,11.078828 10.635573,11.097531 10.635768,11.187959 10.562516,11.187959 10.340566,11.187672 10.340595,11.167551 10.34004,11.072741 10.340082,10.965055 10.341076,10.886574 10.39632,10.886574" style="fill: white" /><polygon type="contour" points="10.638403,11.424504 10.638466,11.454894 10.638466,11.67799 10.637773,11.718114 10.540432,11.718227 10.342293,11.718017 10.342787,11.68721 10.343358,11.447616 10.343294,11.424366 10.400525,11.424366" style="fill: white" /><polygon type="contour" points="11.187884,11.422992 11.187884,11.54823 11.09753,11.548374 11.053796,11.548412 10.911736,11.548371 10.886668,11.548383 10.886568,11.511778 10.886568,11.423138 10.913638,11.423138 10.980519,11.422835 11.097529,11.422835" style="fill: white" /><polygon type="contour" points="11.188089,10.91364 11.187839,11.078791 11.187988,11.078791 11.187988,11.097531 11.187884,11.187885 11.154618,11.187885 11.078788,11.18799 10.964419,11.18799 10.886568,11.18809 10.886717,11.097531 10.887092,10.980581 10.886777,10.980581 10.886777,10.965056 10.886668,10.88667 10.912906,10.88667 10.980579,10.886779 10.980579,10.887094 11.09753,10.886719 11.188089,10.88657" style="fill: white" /><polygon type="contour" points="11.458633,10.88667 11.548381,10.88667 11.548397,10.965055 11.54839,10.968551 11.54839,11.078748 11.54825,11.15701 11.548227,11.187885 11.42299,11.187885 11.42299,11.15462 11.422833,11.07879 11.422833,10.964422 11.423135,10.88657" style="fill: white" /><polygon type="contour" points="11.718189,10.439468 11.717779,10.63753 11.652563,10.638064 11.42421,10.638606 11.42421,10.551049 11.424597,10.34346 11.519534,10.342847 11.718301,10.342374" style="fill: white" /><polygon type="contour" points="11.187825,10.340807 11.187825,10.412347 11.188047,10.635979 11.164612,10.636013 10.980579,10.63512 10.980579,10.635597 10.965054,10.635597 10.886591,10.635823 10.886591,10.572857 10.886657,10.340762 10.908132,10.340757 10.980609,10.340077 10.980609,10.340187 11.097529,10.340056" style="fill: white" /><polygon type="contour" points="11.548496,9.813887 11.548492,9.855534 11.459755,9.855534 11.423231,9.855624 11.423231,9.810643 11.422611,9.706674 11.447639,9.706598 11.548226,9.706598" style="fill: white" /><polygon type="contour" points="11.459755,9.27617 11.548492,9.27617 11.548225,9.395223 11.548226,9.400404 11.548226,9.425668 11.520957,9.425579 11.422611,9.425579 11.422611,9.39351 11.423231,9.27608" style="fill: white" /><polygon type="contour" points="11.188105,9.321058 11.187999,9.425579 11.166408,9.425668 10.980611,9.424385 10.980611,9.425063 10.965053,9.424961 10.886641,9.425532 10.886641,9.394691 10.886668,9.276351 10.912525,9.276312 11.078804,9.276861 11.078804,9.276537 11.097529,9.276482 11.188105,9.27608" style="fill: white" /><polygon type="contour" points="11.078746,9.706696 11.078746,9.70664 11.097529,9.7067 11.187999,9.706674 11.187999,9.738742 11.188105,9.855624 11.156703,9.855534 10.98061,9.854704 10.98061,9.855167 10.965053,9.855144 10.886668,9.855353 10.886668,9.81384 10.886641,9.706727 10.905177,9.706598" style="fill: white" /><polygon type="contour" points="10.635438,9.737566 10.636199,9.855603 10.57296,9.855634 10.340937,9.855227 10.340937,9.820985 10.340441,9.706755 10.40198,9.706727 10.635438,9.706727" style="fill: white" /><polygon type="contour" points="10.636199,9.276102 10.636199,9.308369 10.635438,9.425532 10.575006,9.425506 10.340441,9.425506 10.340441,9.395223 10.340937,9.276478 10.57296,9.276071" style="fill: white" /><polygon type="contour" points="9.855154,9.395223 9.855154,9.425506 9.82573,9.425668 9.706034,9.425668 9.706197,9.395224 9.706197,9.276548 9.736477,9.276548 9.855533,9.27617" style="fill: white" /><polygon type="contour" points="9.736477,9.706755 9.855154,9.706755 9.855154,9.737037 9.855533,9.855534 9.736477,9.855156 9.706197,9.855156 9.706034,9.825731 9.706034,9.706598" style="fill: white" /><polygon type="contour" points="9.424948,9.737037 9.424948,9.855156 9.394666,9.855156 9.276168,9.855534 9.276547,9.737037 9.276547,9.706755 9.30597,9.706598 9.425105,9.706598" style="fill: white" /><polygon type="contour" points="9.394666,9.276548 9.424948,9.276548 9.425105,9.305971 9.425105,9.425668 9.394665,9.425506 9.276547,9.425506 9.276547,9.395223 9.276168,9.27617" style="fill: white" /><polygon type="contour" points="8.790764,9.276478 8.790764,9.310719 8.79126,9.425506 8.729718,9.425532 8.496262,9.425532 8.496262,9.394691 8.495501,9.276102 8.558739,9.276071" style="fill: white" /><polygon type="contour" points="8.556693,9.706755 8.79126,9.706755 8.79126,9.737037 8.790764,9.855227 8.72122,9.855195 8.495501,9.855603 8.495501,9.823336 8.496262,9.706727" style="fill: white" /><polygon type="contour" points="8.151089,9.706689 8.151089,9.706641 8.166647,9.706743 8.245059,9.706727 8.245059,9.737566 8.245032,9.855353 8.219175,9.855391 8.052896,9.854842 8.052896,9.855167 8.03417,9.855222 7.943816,9.859739 7.943701,9.738742 7.943701,9.706674 7.965291,9.706598" style="fill: white" /><polygon type="contour" points="7.975536,9.271975 8.151091,9.282327 8.151091,9.276537 8.166647,9.27656 8.245032,9.276351 8.245032,9.317863 8.245059,9.425532 8.226522,9.425668 8.052955,9.424275 8.052955,9.425063 8.03417,9.425002 7.943701,9.425579 7.943701,9.393509 7.943815,9.271966" style="fill: white" /><polygon type="contour" points="7.70847,9.321059 7.709089,9.425579 7.684059,9.425668 7.58347,9.425668 7.583203,9.317815 7.583209,9.27617 7.671945,9.27617 7.70847,9.27608" style="fill: white" /><polygon type="contour" points="7.610739,9.706674 7.709089,9.706674 7.709089,9.738743 7.70847,9.855624 7.671945,9.855534 7.583209,9.855534 7.583472,9.737036 7.58347,9.731861 7.58347,9.706598" style="fill: white" /><polygon type="contour" points="7.484667,10.342929 7.706995,10.343492 7.707536,10.573091 7.707536,10.63861 7.61816,10.638018 7.413921,10.63753 7.413821,10.549454 7.4134,10.342374" style="fill: white" /><polygon type="contour" points="7.708565,10.91364 7.708866,10.98052 7.708866,11.097531 7.708711,11.187885 7.58347,11.187885 7.583325,11.097531 7.58331,11.091685 7.58331,10.980613 7.58333,10.911738 7.583319,10.88667 7.619923,10.88657 7.708565,10.88657" style="fill: white" /><polygon type="contour" points="8.03417,10.886718 8.151122,10.887094 8.151122,10.886779 8.166647,10.886779 8.245032,10.88667 8.245032,10.912908 8.244921,10.980581 8.244605,10.980581 8.244981,11.097532 8.245132,11.18809 8.218061,11.18809 8.052911,11.187843 8.052911,11.18799 8.034171,11.18799 7.943815,11.187885 7.94361,11.110406 7.943712,11.097532 7.943712,10.964423 7.943611,10.88657" style="fill: white" /><polygon type="contour" points="8.166647,10.340084 8.245041,10.340762 8.245041,10.409625 8.245109,10.635823 8.225162,10.635823 8.052875,10.635297 8.052875,10.635597 8.034171,10.635574 7.94365,10.635979 7.94365,10.570096 7.943872,10.340807 7.968926,10.340848 8.057483,10.340034" style="fill: white" /><polygon type="contour" points="8.790731,10.340973 8.790545,10.480636 8.790786,10.636316 8.650065,10.636126 8.495939,10.635761 8.495774,10.504891 8.49561,10.341069 8.638454,10.340893" style="fill: white" /><polygon type="contour" points="8.790628,10.903782 8.791625,10.980611 8.79152,10.980611 8.791645,11.097531 8.791132,11.187672 8.733511,11.187672 8.495932,11.187959 8.495896,11.161873 8.496345,10.980581 8.496102,10.980581 8.496102,10.965055 8.495988,10.886868 8.566529,10.886868 8.790625,10.886574" style="fill: white" /><polygon type="contour" points="8.788892,11.501985 8.789408,11.718017 8.709913,11.717928 8.493927,11.718114 8.493234,11.67799 8.493234,11.454894 8.493297,11.424504 8.566548,11.424504 8.788406,11.424366" style="fill: white" /><polygon type="contour" points="8.245132,11.423138 8.245032,11.458636 8.245032,11.548383 8.166646,11.548398 8.052955,11.548346 8.052955,11.548391 7.974689,11.548253 7.943816,11.54823 7.943816,11.422992 7.97708,11.422992 8.052911,11.422835 8.16728,11.422835" style="fill: white" /><polygon type="contour" points="7.706803,11.549894 7.706504,11.655823 7.706362,11.688189 7.706055,11.690611 7.706027,11.719019 7.512968,11.719514 7.407939,11.723762 7.407998,11.67065 7.412491,11.603822 7.413108,11.424899 7.706803,11.424899" style="fill: white" />
</svg>
