<svg width="19.131698" height="19.131699">
<polygon type="contour" points="9.576286,9.398245 9.587058,9.398997 9.599195,9.400346 9.607286,9.403041 9.61831,9.405798 9.628198,9.408944 9.635982,9.4122 9.636234,9.412452 9.651494,9.420083 9.653756,9.421081 9.659013,9.424604 9.673385,9.435364 9.676154,9.437126 9.678419,9.438637 9.682875,9.445741 9.690063,9.450157 9.697256,9.458696 9.699759,9.462202 9.710098,9.477485 9.71561,9.487758 9.716362,9.490013 9.724001,9.506192 9.726506,9.513959 9.731001,9.531488 9.731754,9.535247 9.732203,9.542888 9.733455,9.550404 9.733167,9.561244 9.73358,9.566201 9.734104,9.571212 9.733654,9.581549 9.731856,9.591889 9.730101,9.603162 9.728306,9.612151 9.725608,9.618444 9.722351,9.628215 9.718756,9.638553 9.715159,9.643947 9.710651,9.652715 9.706605,9.659907 9.700312,9.668446 9.696805,9.673458 9.687884,9.681069 9.684786,9.684787 9.682306,9.686854 9.676151,9.69456 9.672105,9.698157 9.657273,9.708043 9.649256,9.713305 9.638984,9.717813 9.622803,9.725005 9.605724,9.729501 9.594701,9.732257 9.590192,9.732506 9.576706,9.733406 9.567772,9.733376 9.5655,9.733583 9.559487,9.733855 9.54915,9.733406 9.54464,9.733155 9.534302,9.731357 9.523965,9.72911 9.512689,9.726353 9.503251,9.722307 9.493813,9.718264 9.486046,9.714756 9.483039,9.713253 9.469557,9.705164 9.467302,9.703911 9.463256,9.700314 9.457745,9.696556 9.449222,9.686169 9.440038,9.679249 9.428349,9.664416 9.425343,9.659906 9.416804,9.644623 9.412045,9.635856 9.408775,9.626064 9.402491,9.609008 9.400743,9.598984 9.398046,9.582802 9.397794,9.576538 9.398326,9.570953 9.39812,9.566202 9.398326,9.561244 9.398046,9.548901 9.399842,9.538562 9.401592,9.528025 9.403388,9.51905 9.408775,9.505585 9.412045,9.496046 9.415191,9.489305 9.417445,9.485297 9.422839,9.476307 9.425093,9.471797 9.4286,9.466787 9.434893,9.458246 9.440287,9.451955 9.446293,9.447741 9.448806,9.443436 9.459595,9.433547 9.467613,9.428286 9.482443,9.418399 9.491212,9.41439 9.507826,9.407193 9.51009,9.406437 9.518648,9.404424 9.535245,9.399948 9.543336,9.399499 9.549598,9.398748 9.560956,9.398533 9.567773,9.39812 9.570443,9.397348" style="fill: white" />
</svg>
