<svg width="19.131698" height="19.131699">
<polygon type="contour" points="10.823472,11.430753 10.823472,11.473674 10.82395,11.576867 10.82395,11.600305 10.808674,11.600301 10.6884,11.600359 10.687095,11.67599 10.687095,11.768911 10.533437,11.768875 10.39107,11.769025 10.391044,11.693995 10.391069,11.685223 10.392429,11.600302 10.17514,11.600329 10.15122,11.60027 10.15159,11.486621 10.15159,11.44269 10.15122,11.352707 10.151354,11.333264 10.277049,11.33357 10.391502,11.33357 10.645885,11.333681 10.729982,11.333681 10.806405,11.333264 10.82395,11.333264" style="fill: white" /><polygon type="contour" points="11.600272,11.350621 11.600175,11.473947 11.769121,11.473947 11.770023,11.735742 11.771376,11.771377 11.755117,11.771248 11.740172,11.770115 11.474486,11.769433 11.474412,11.762594 11.474412,11.75577 11.474381,11.755416 11.473944,11.600185 11.333262,11.600305 11.333488,11.487368 11.333488,11.442689 11.333262,11.353688 11.333262,11.333264 11.430752,11.33349 11.473672,11.33349 11.576865,11.333264 11.600303,11.333264" style="fill: white" /><polygon type="contour" points="11.600326,10.175143 11.600301,10.391087 11.769024,10.391071 11.768873,10.533439 11.768909,10.687097 11.675989,10.687097 11.600331,10.687085 11.60034,10.74321 11.600303,10.761353 11.600303,10.823952 11.487368,10.823473 11.442686,10.823473 11.353686,10.823952 11.333262,10.823952 11.333679,10.743211 11.333679,10.687539 11.333568,10.43799 11.333568,10.391503 11.333797,10.391503 11.333262,10.179114 11.333262,10.151357 11.430751,10.151669 11.477465,10.151653 11.577956,10.151347 11.600266,10.151347" style="fill: white" /><polygon type="contour" points="10.82395,10.151357 10.823942,10.277052 10.823942,10.391504 10.823782,10.645887 10.823782,10.729983 10.82395,10.806407 10.82395,10.823952 10.743209,10.823784 10.687537,10.823784 10.437988,10.823944 10.391502,10.823944 10.391502,10.823937 10.179112,10.823952 10.151354,10.823952 10.151887,10.74321 10.151773,10.72761 10.151898,10.435639 10.151898,10.391573 10.152402,10.391573 10.15122,10.177769 10.15122,10.151347 10.278106,10.152005 10.300401,10.152005 10.300401,10.152047 10.648063,10.151886 10.729959,10.151886 10.807219,10.151347" style="fill: white" /><polygon type="contour" points="10.687095,7.362793 10.686992,7.441555 10.687095,7.455712 10.688401,7.531375 10.743208,7.531363 10.82395,7.531397 10.823472,7.644333 10.823472,7.689014 10.82395,7.778011 10.82395,7.798438 10.743209,7.798023 10.687537,7.798023 10.437988,7.798135 10.391502,7.798135 10.391502,7.797907 10.179111,7.798438 10.151354,7.798438 10.151666,7.700948 10.15159,7.689013 10.151699,7.689013 10.15122,7.553741 10.15122,7.531432 10.17514,7.531373 10.391084,7.531402 10.391044,7.36267 10.547743,7.362653" style="fill: white" /><polygon type="contour" points="11.771359,7.376105 11.770022,7.395961 11.769121,7.657757 11.600101,7.657757 11.600303,7.731289 11.600303,7.798438 11.487367,7.798214 11.442687,7.798214 11.353687,7.798438 11.333262,7.798438 11.333488,7.700948 11.333488,7.658028 11.333262,7.554834 11.333262,7.531397 11.350619,7.531427 11.473944,7.531527 11.474381,7.376286 11.474412,7.369109 11.47448,7.368572 11.474486,7.362271 11.740171,7.361589 11.771376,7.360327" style="fill: white" /><polygon type="contour" points="11.600298,8.323027 11.600359,8.444619 11.768909,8.444607 11.768873,8.598264 11.769024,8.740633 11.685221,8.740633 11.600514,8.740615 11.600262,8.853596 11.600266,8.875188 11.600266,8.98048 11.486619,8.980109 11.442688,8.980109 11.352704,8.98048 11.333262,8.980345 11.333568,8.854651 11.333568,8.740199 11.333679,8.485816 11.333679,8.401719 11.333262,8.325296 11.333262,8.307752 11.430751,8.308232 11.473672,8.308232 11.576864,8.307752 11.600303,8.307752" style="fill: white" /><polygon type="contour" points="10.823782,8.388492 10.823782,8.444163 10.823942,8.693713 10.823942,8.740199 10.823935,8.740199 10.82395,8.952586 10.82395,8.980345 10.743208,8.979815 10.727608,8.979928 10.435637,8.979804 10.391571,8.979804 10.391571,8.979301 10.177767,8.98048 10.15122,8.98048 10.151898,8.853595 10.151898,8.831301 10.151936,8.831301 10.151791,8.483638 10.151791,8.401742 10.15122,8.324483 10.151354,8.307752 10.277049,8.307761 10.391502,8.307761 10.645884,8.30792 10.729981,8.30792 10.806405,8.307752 10.82395,8.307752" style="fill: white" /><polygon type="contour" points="8.979813,8.388492 8.979822,8.430359 8.979698,8.696063 8.979698,8.740131 8.979211,8.740131 8.980353,8.953931 8.980353,8.98048 8.853489,8.979804 8.831299,8.979804 8.831299,8.979765 8.483636,8.979911 8.40174,8.979911 8.32448,8.98048 8.30775,8.980345 8.307759,8.854652 8.307759,8.740199 8.307919,8.485816 8.307919,8.401719 8.30775,8.325297 8.30775,8.307752 8.38849,8.30792 8.44416,8.30792 8.693711,8.307761 8.740197,8.307761 8.740197,8.307767 8.952584,8.307752 8.980344,8.307752" style="fill: white" /><polygon type="contour" points="8.740657,7.437707 8.740631,7.446479 8.73927,7.531402 8.956557,7.531373 8.980353,7.531432 8.980034,7.645081 8.980034,7.689012 8.980353,7.778995 8.980344,7.798438 8.85465,7.798135 8.740197,7.798135 8.485815,7.798023 8.401717,7.798023 8.325294,7.798438 8.30775,7.798438 8.308229,7.700948 8.308229,7.658029 8.30775,7.554833 8.30775,7.531397 8.323025,7.531401 8.443299,7.531347 8.444605,7.455713 8.444605,7.362793 8.598262,7.362829 8.740631,7.362679" style="fill: white" /><polygon type="contour" points="7.376582,7.360454 7.391527,7.361589 7.657211,7.362271 7.657285,7.369109 7.657285,7.375933 7.657316,7.376286 7.657755,7.531521 7.798437,7.531397 7.798212,7.644333 7.798212,7.689014 7.798437,7.778011 7.798437,7.798438 7.700947,7.798214 7.658027,7.798214 7.55483,7.798438 7.531394,7.798438 7.531424,7.78108 7.531524,7.657757 7.362579,7.657757 7.361677,7.395961 7.360324,7.360327" style="fill: white" /><polygon type="contour" points="7.798021,8.388492 7.798021,8.444162 7.798133,8.693713 7.798133,8.740199 7.797904,8.7402 7.798437,8.952587 7.798437,8.980345 7.700946,8.980032 7.689011,8.980109 7.689011,8.979998 7.553739,8.98048 7.53143,8.98048 7.531371,8.956558 7.5314,8.740614 7.362677,8.740633 7.362827,8.598264 7.362791,8.444607 7.45571,8.444607 7.531372,8.444618 7.53136,8.388492 7.531394,8.370349 7.531394,8.307752 7.644331,8.308232 7.689011,8.308232 7.77801,8.307752 7.798437,8.307752" style="fill: white" /><polygon type="contour" points="7.798437,10.151357 7.798133,10.277052 7.798133,10.391503 7.798021,10.645886 7.798021,10.729984 7.798437,10.806407 7.798437,10.823952 7.700946,10.823473 7.658027,10.823473 7.554831,10.823952 7.531394,10.823952 7.531399,10.808676 7.531343,10.687084 7.362791,10.687097 7.362835,10.548826 7.362668,10.391045 7.446477,10.39107 7.531188,10.391086 7.531437,10.278212 7.53143,10.25664 7.53143,10.151347 7.645079,10.151665 7.689011,10.151665 7.778994,10.151347" style="fill: white" /><polygon type="contour" points="8.979698,10.278212 8.979698,10.300403 8.979656,10.300403 8.979816,10.648065 8.979816,10.72996 8.980353,10.807221 8.980344,10.823952 8.854649,10.823942 8.746004,10.823947 8.485814,10.823784 8.401718,10.823784 8.325294,10.823952 8.30775,10.823952 8.307919,10.743211 8.307919,10.687539 8.307759,10.43799 8.307759,10.391503 8.307765,10.391503 8.30775,10.179115 8.30775,10.151357 8.38849,10.151889 8.430436,10.151879 8.696061,10.152005 8.740129,10.152005 8.740129,10.152494 8.95393,10.151347 8.980353,10.151347" style="fill: white" /><polygon type="contour" points="8.980031,11.430754 8.980042,11.476416 8.980353,11.57796 8.980353,11.60027 8.956556,11.600329 8.740614,11.600303 8.740657,11.769033 8.583957,11.76905 8.444605,11.76891 8.444708,11.690148 8.444604,11.67599 8.443298,11.600332 8.388491,11.600341 8.30775,11.600305 8.308229,11.487369 8.308229,11.442688 8.30775,11.353688 8.30775,11.333264 8.38849,11.333681 8.444161,11.333681 8.693711,11.33357 8.740198,11.33357 8.740198,11.333799 8.952584,11.333264 8.980344,11.333264" style="fill: white" /><polygon type="contour" points="7.798212,11.430753 7.798212,11.473675 7.798437,11.576868 7.798437,11.600305 7.781079,11.600275 7.657755,11.600178 7.657316,11.755417 7.657285,11.762594 7.657217,11.763131 7.657211,11.769433 7.391528,11.770115 7.360324,11.771377 7.360342,11.755598 7.361677,11.735743 7.362579,11.473947 7.531602,11.473947 7.531394,11.400413 7.531394,11.333264 7.644331,11.33349 7.689012,11.33349 7.778011,11.333264 7.798437,11.333264" style="fill: white" />
</svg>
