<svg width="19.131698" height="19.131699">
<polygon type="contour" points="5.453587,5.323179 5.634711,5.330426 5.634661,5.494193 5.634661,5.634663 5.494192,5.634663 5.434151,5.634714 5.330425,5.634714 5.330071,5.545696 5.322024,5.322027" style="fill: white" /><polygon type="contour" points="6.182077,5.50806 6.330096,5.508579 6.330096,5.613439 6.33017,5.636955 6.18328,5.636638 6.115556,5.636638 6.115556,5.508019" style="fill: white" /><polygon type="contour" points="5.636952,6.289462 5.636952,6.330172 5.532552,6.330172 5.508577,6.330098 5.50855,6.289463 5.508018,6.115557 5.636636,6.115557" style="fill: white" /><polygon type="contour" points="5.63703,6.610411 5.636512,6.84619 5.592508,6.847366 5.507701,6.846925 5.507735,6.841562 5.507803,6.831674 5.507461,6.792834 5.507691,6.743174 5.508577,6.55102 5.613437,6.55102 5.636952,6.550955" style="fill: white" /><polygon type="contour" points="5.5421,7.291351 5.575557,7.29372 5.634978,7.291641 5.637244,7.570623 5.637355,7.594688 5.485337,7.592899 5.331798,7.592731 5.332412,7.40873 5.332205,7.299172 5.40227,7.29884 5.419717,7.29886 5.438913,7.299032 5.445894,7.299632 5.447571,7.299638 5.454814,7.300095 5.508389,7.300157 5.50824,7.291316" style="fill: white" /><polygon type="contour" points="6.286896,7.291391 6.330155,7.291391 6.330155,7.535716 6.330096,7.594505 6.289461,7.594488 6.115556,7.593566 6.115556,7.38311 6.115523,7.291373" style="fill: white" /><polygon type="contour" points="6.736354,7.291499 6.845658,7.291499 6.845658,7.593359 6.743173,7.593109 6.551018,7.594505 6.551018,7.345461 6.550949,7.291391" style="fill: white" /><polygon type="contour" points="6.845658,6.736356 6.845658,6.84566 6.610409,6.84579 6.550949,6.84579 6.550949,6.610411 6.551018,6.55102 6.790942,6.55102 6.845789,6.550951" style="fill: white" /><polygon type="contour" points="6.330096,6.55102 6.330096,6.790942 6.330155,6.84579 6.286897,6.84579 6.115523,6.845518 6.115252,6.610411 6.115268,6.550955 6.28946,6.550955" style="fill: white" /><polygon type="contour" points="6.33017,6.289462 6.330096,6.330098 6.155135,6.330098 6.115268,6.330172 6.115556,6.183281 6.115556,6.115557 6.289461,6.11527 6.33017,6.11527" style="fill: white" /><polygon type="contour" points="6.845515,6.115524 6.845789,6.286899 6.845789,6.330157 6.610409,6.330157 6.551018,6.330098 6.551018,6.155138 6.550953,6.11527 6.610409,6.115254" style="fill: white" /><polygon type="contour" points="6.845779,5.508214 6.845779,5.541951 6.846002,5.544653 6.845965,5.577256 6.846188,5.636516 6.610408,5.637033 6.550953,5.636955 6.550953,5.532554 6.551018,5.508579 6.743173,5.507694" style="fill: white" /><polygon type="contour" points="7.588084,5.452017 7.590123,5.486309 7.594746,5.625728 7.594649,5.637403 7.57062,5.637246 7.291638,5.634981 7.291692,5.591081 7.291704,5.506425 7.300156,5.505563 7.300194,5.392921 7.299169,5.332207 7.407453,5.332484 7.592508,5.331924" style="fill: white" /><polygon type="contour" points="7.593564,6.115557 7.594486,6.289463 7.594503,6.330098 7.345458,6.330098 7.291389,6.330157 7.291389,6.286898 7.291371,6.115524 7.496753,6.115524" style="fill: white" /><polygon type="contour" points="7.594503,6.55102 7.593107,6.743173 7.593358,6.84566 7.291497,6.84566 7.291389,6.610412 7.291389,6.550951 7.535714,6.550951" style="fill: white" /><polygon type="contour" points="7.594854,7.299138 7.58583,7.585833 7.299137,7.594856 7.291206,7.595309 7.291206,7.569853 7.291597,7.385405 7.291597,7.2916 7.569852,7.291207 7.595307,7.291207" style="fill: white" /><polygon type="contour" points="11.746297,7.2916 11.840103,7.2916 11.840494,7.569853 11.840494,7.595309 11.832561,7.594856 11.54587,7.585833 11.536843,7.299139 11.536389,7.291207 11.561843,7.291207" style="fill: white" /><polygon type="contour" points="11.72297,5.332414 11.832531,5.332207 11.831881,5.374027 11.831888,5.375322 11.831885,5.379708 11.833082,5.392753 11.83337,5.508088 11.840386,5.508243 11.840351,5.542102 11.840152,5.575855 11.840059,5.634981 11.561075,5.637246 11.53701,5.637358 11.538801,5.485339 11.53897,5.331799" style="fill: white" /><polygon type="contour" points="12.388526,5.507694 12.580682,5.508579 12.580682,5.61344 12.580747,5.636955 12.521291,5.637033 12.285513,5.636515 12.285513,5.592876 12.286042,5.507864 12.300027,5.507804 12.338867,5.507463" style="fill: white" /><polygon type="contour" points="11.840311,6.286898 11.840311,6.330157 11.595985,6.330157 11.537198,6.330098 11.537214,6.289462 11.538136,6.115557 11.748592,6.115557 11.84033,6.115524" style="fill: white" /><polygon type="contour" points="11.840204,6.736356 11.840204,6.84566 11.538342,6.84566 11.538593,6.743173 11.537198,6.55102 11.786241,6.55102 11.840311,6.550951" style="fill: white" /><polygon type="contour" points="13.016448,6.610411 13.016177,6.845518 12.844802,6.84579 12.801545,6.84579 12.801545,6.610412 12.801605,6.55102 12.976564,6.55102 13.016433,6.550955" style="fill: white" /><polygon type="contour" points="12.580682,6.551019 12.580682,6.790942 12.580752,6.84579 12.395346,6.84566 12.286041,6.84566 12.285911,6.610412 12.285911,6.550951 12.521291,6.550951" style="fill: white" /><polygon type="contour" points="12.580747,6.11527 12.580747,6.289462 12.580682,6.330098 12.340758,6.330098 12.285911,6.330157 12.285911,6.286898 12.286185,6.115524 12.52129,6.115254" style="fill: white" /><polygon type="contour" points="12.948419,6.115557 13.016145,6.115557 13.016433,6.289462 13.016433,6.330172 12.842238,6.330172 12.801605,6.330098 12.801605,6.155139 12.80153,6.11527" style="fill: white" /><polygon type="contour" points="13.016145,5.636638 12.842238,5.636955 12.80153,5.636955 12.80153,5.532553 12.801605,5.508579 12.949622,5.50806 13.016145,5.50802" style="fill: white" /><polygon type="contour" points="13.801629,5.545697 13.801286,5.634993 13.703637,5.634993 13.581017,5.634714 13.496988,5.634714 13.496988,5.434154 13.496908,5.330509 13.575554,5.329503 13.586006,5.330072 13.809675,5.322027" style="fill: white" /><polygon type="contour" points="13.62364,6.18208 13.623122,6.330098 13.518263,6.330098 13.494748,6.330172 13.495064,6.183282 13.495064,6.115557 13.62368,6.115557" style="fill: white" /><polygon type="contour" points="13.623122,6.55102 13.623135,6.611448 13.623998,6.846926 13.539191,6.847367 13.495187,6.84619 13.494671,6.610411 13.494748,6.550955 13.599148,6.550955" style="fill: white" /><polygon type="contour" points="13.623341,7.298329 13.676929,7.298287 13.711983,7.29886 13.729429,7.29884 13.799495,7.299172 13.799217,7.407456 13.799778,7.59251 13.644972,7.592742 13.494345,7.594688 13.494456,7.570623 13.496722,7.291641 13.589598,7.291351 13.623458,7.291316" style="fill: white" /><polygon type="contour" points="13.016177,7.496756 13.016145,7.593566 12.842238,7.594488 12.801605,7.594505 12.801605,7.345461 12.801545,7.291391 12.844803,7.291391 13.016177,7.291373" style="fill: white" /><polygon type="contour" points="12.580752,7.535716 12.580682,7.594505 12.388526,7.593108 12.286042,7.593359 12.286042,7.291499 12.52129,7.291391 12.580752,7.291391" style="fill: white" /><polygon type="contour" points="11.840494,11.561846 11.840103,11.746299 11.840103,11.840104 11.561844,11.840497 11.536389,11.840497 11.536843,11.832564 11.545869,11.545871 11.832561,11.536846 11.840494,11.536392" style="fill: white" /><polygon type="contour" points="13.645391,11.541578 13.679683,11.543618 13.799903,11.538972 13.799288,11.722972 13.799495,11.832532 13.729429,11.832864 13.711983,11.832844 13.692786,11.832673 13.68582,11.832072 13.684129,11.832065 13.676884,11.831608 13.623311,11.831546 13.623458,11.840388 13.589597,11.840353 13.556143,11.837983 13.496722,11.840061 13.494456,11.561078 13.4943,11.53705 13.505975,11.536954" style="fill: white" /><polygon type="contour" points="12.949622,11.538117 13.016145,11.538138 13.016145,11.748593 13.016177,11.840331 12.844803,11.840312 12.801545,11.840312 12.801545,11.595987 12.801605,11.5372" style="fill: white" /><polygon type="contour" points="12.580682,11.786243 12.580752,11.840312 12.395346,11.840204 12.286042,11.840204 12.286042,11.538344 12.388526,11.538596 12.580682,11.5372" style="fill: white" /><polygon type="contour" points="13.016177,12.286186 13.016448,12.521292 13.016433,12.580749 12.842239,12.580749 12.801605,12.580684 12.801605,12.34076 12.801545,12.285914 12.844802,12.285914" style="fill: white" /><polygon type="contour" points="13.623963,12.290141 13.623896,12.300029 13.624237,12.338868 13.624007,12.388528 13.623122,12.580684 13.518262,12.580684 13.494747,12.580749 13.494671,12.521292 13.495187,12.285972 13.539191,12.284794 13.623998,12.284778" style="fill: white" /><polygon type="contour" points="13.623122,12.801606 13.62364,12.949623 13.62368,13.016147 13.495064,13.016147 13.494748,12.842241 13.494748,12.801532 13.599147,12.801532" style="fill: white" /><polygon type="contour" points="13.801628,13.586006 13.809675,13.809676 13.67811,13.808525 13.496988,13.801278 13.496988,13.49699 13.801276,13.49699" style="fill: white" /><polygon type="contour" points="12.580747,13.494747 12.580747,13.599148 12.580682,13.623124 12.388525,13.62401 12.285921,13.623491 12.285921,13.589753 12.285698,13.587052 12.285735,13.554447 12.285513,13.49519 12.521291,13.49467" style="fill: white" /><polygon type="contour" points="12.94842,13.495066 13.016145,13.495066 13.016145,13.623682 12.949622,13.623642 12.801605,13.623124 12.801605,13.518264 12.80153,13.494748" style="fill: white" /><polygon type="contour" points="13.016145,12.948423 13.016145,13.016147 12.842238,13.016434 12.80153,13.016434 12.80153,12.842241 12.801605,12.801606 12.976563,12.801606 13.016433,12.801532" style="fill: white" /><polygon type="contour" points="12.580682,12.801606 12.580682,12.976565 12.580747,13.016434 12.52129,13.016449 12.286185,13.016179 12.285911,12.844804 12.285911,12.801547 12.52129,12.801547" style="fill: white" /><polygon type="contour" points="12.580752,12.521292 12.580682,12.580684 12.340758,12.580684 12.285911,12.580754 12.286042,12.395347 12.286042,12.286044 12.52129,12.285914 12.580752,12.285914" style="fill: white" /><polygon type="contour" points="11.840311,12.521292 11.840311,12.580754 11.595984,12.580754 11.537197,12.580684 11.538593,12.388528 11.538342,12.286044 11.840204,12.286044" style="fill: white" /><polygon type="contour" points="11.840311,12.844804 11.84033,13.016179 11.634946,13.016179 11.538137,13.016147 11.537214,12.842241 11.537198,12.801606 11.786242,12.801606 11.840311,12.801547" style="fill: white" /><polygon type="contour" points="11.561075,13.494457 11.840059,13.496723 11.840059,13.540262 11.840103,13.624984 11.831546,13.618352 11.831506,13.73878 11.832531,13.799496 11.724246,13.799218 11.53919,13.799779 11.538959,13.644972 11.53701,13.494346" style="fill: white" /><polygon type="contour" points="6.845789,12.844803 6.845515,13.016179 6.610409,13.016449 6.550953,13.016434 6.550953,12.842241 6.551018,12.801606 6.790941,12.801606 6.845789,12.801547" style="fill: white" /><polygon type="contour" points="6.736354,12.286044 6.845658,12.286044 6.845789,12.521291 6.845789,12.580754 6.610408,12.580754 6.551018,12.580684 6.551018,12.34076 6.550949,12.285914" style="fill: white" /><polygon type="contour" points="6.330155,12.521291 6.330096,12.580684 6.155136,12.580684 6.115268,12.580749 6.115252,12.521292 6.115523,12.286186 6.286897,12.285914 6.330155,12.285914" style="fill: white" /><polygon type="contour" points="6.330096,12.801606 6.330096,12.976564 6.33017,13.016434 6.183281,13.016147 6.115556,13.016147 6.115268,12.842241 6.115268,12.801532 6.28946,12.801532" style="fill: white" /><polygon type="contour" points="6.33017,13.599148 6.330096,13.623124 6.28946,13.62315 6.115556,13.623682 6.115556,13.495066 6.289461,13.494749 6.33017,13.494749" style="fill: white" /><polygon type="contour" points="6.846188,13.49519 6.846188,13.538828 6.845658,13.623839 6.831672,13.623899 6.792833,13.624239 6.743172,13.624009 6.551018,13.623124 6.551018,13.518263 6.550953,13.494748 6.610409,13.494671" style="fill: white" /><polygon type="contour" points="7.594746,13.505975 7.590124,13.645394 7.588084,13.679685 7.59273,13.799905 7.408729,13.799289 7.299169,13.799496 7.29982,13.757674 7.299646,13.756876 7.299814,13.751993 7.298618,13.738949 7.298329,13.623614 7.291314,13.623459 7.291349,13.5896 7.291546,13.555848 7.291638,13.496723 7.57062,13.494457 7.594649,13.494301" style="fill: white" /><polygon type="contour" points="7.594503,12.801606 7.593585,12.949624 7.593564,13.016147 7.383108,13.016147 7.291371,13.016179 7.291389,12.844804 7.291389,12.801547 7.535714,12.801547" style="fill: white" /><polygon type="contour" points="7.593107,12.388528 7.594503,12.580684 7.345458,12.580684 7.291388,12.580754 7.291497,12.395347 7.291497,12.286044 7.593358,12.286044" style="fill: white" /><polygon type="contour" points="7.299138,11.536846 7.585831,11.545871 7.594854,11.832565 7.595307,11.840497 7.569851,11.840497 7.385403,11.840104 7.291597,11.840104 7.291206,11.561846 7.291206,11.536392" style="fill: white" /><polygon type="contour" points="6.743173,11.538596 6.845658,11.538344 6.845658,11.840204 6.610409,11.840312 6.550949,11.840312 6.550949,11.595987 6.551018,11.5372" style="fill: white" /><polygon type="contour" points="6.330096,11.786243 6.330155,11.840312 6.286896,11.840312 6.115523,11.840331 6.115523,11.634947 6.115556,11.538138 6.289461,11.537215 6.330096,11.5372" style="fill: white" /><polygon type="contour" points="5.6374,11.53705 5.637243,11.561078 5.634978,11.840061 5.5421,11.840353 5.50824,11.840388 5.508358,11.833373 5.45477,11.833415 5.419717,11.832844 5.40227,11.832864 5.332205,11.832532 5.332483,11.724248 5.331922,11.539192 5.452014,11.543618 5.486306,11.541579 5.625725,11.536954" style="fill: white" /><polygon type="contour" points="5.592508,12.284794 5.636513,12.285972 5.63703,12.521292 5.636952,12.580749 5.532552,12.580749 5.508577,12.580684 5.508563,12.520255 5.507702,12.284778" style="fill: white" /><polygon type="contour" points="5.636636,12.948422 5.636636,13.016147 5.508018,13.016147 5.508058,12.949624 5.508577,12.801606 5.613436,12.801606 5.636952,12.801532" style="fill: white" /><polygon type="contour" points="5.55068,13.49699 5.634711,13.49699 5.634711,13.801278 5.556146,13.802201 5.545693,13.801631 5.322026,13.809676 5.330071,13.586006 5.330413,13.496711 5.42806,13.496711" style="fill: white" />
</svg>
