<svg width="19.131698" height="19.131699">
<polygon type="contour" points="9.576616,8.694171 9.583876,8.694361 9.58814,8.694488 9.711101,8.694515 9.711101,8.861159 9.808778,8.860809 9.808503,8.989868 9.808503,9.006719 9.808778,9.073475 9.808778,9.096033 9.726077,9.095727 9.411976,9.095727 9.345302,9.096033 9.322745,9.096033 9.323151,9.012583 9.323151,8.998918 9.322745,8.895622 9.322745,8.860809 9.340163,8.860841 9.4206,8.861154 9.4206,8.694515 9.544152,8.694488 9.548436,8.694361 9.566152,8.694104" style="fill: white" /><polygon type="contour" points="8.889002,8.690436 8.995972,8.693043 8.99798,8.759544 8.998363,8.766322 8.998921,8.861105 9.096031,8.860809 9.095617,8.989867 9.095617,9.00672 9.096031,9.073476 9.096031,9.096033 9.012581,9.095619 8.998915,9.095619 8.895622,9.096033 8.860808,9.096033 8.860835,9.078598 8.861098,8.9989 8.694468,8.9989 8.694409,8.995788 8.688601,8.688603" style="fill: white" /><polygon type="contour" points="9.095725,9.405574 9.095725,9.719725 9.096031,9.786398 9.096031,9.808779 9.012581,9.808504 8.998915,9.808504 8.895621,9.808779 8.860808,9.808779 8.86084,9.791538 8.861152,9.711124 8.801245,9.711178 8.732258,9.711102 8.694334,9.711102 8.694371,9.703369 8.694808,9.652228 8.694492,9.581112 8.694282,9.566201 8.694808,9.47976 8.694334,9.420602 8.861157,9.420602 8.860808,9.322748 8.989865,9.323154 9.006718,9.323154 9.073473,9.322748 9.096031,9.322748" style="fill: white" /><polygon type="contour" points="9.808573,9.405574 9.808573,9.719724 9.808778,9.786398 9.808778,9.808779 9.726078,9.808575 9.411976,9.808575 9.345301,9.808779 9.322745,9.808779 9.323077,9.726079 9.323077,9.411978 9.322745,9.345304 9.322745,9.322748 9.405573,9.323079 9.719724,9.323079 9.786396,9.322748 9.808778,9.322748" style="fill: white" /><polygon type="contour" points="10.43729,8.995788 10.437232,8.9989 10.270682,8.9989 10.270369,9.096033 10.141834,9.095619 10.124981,9.095619 10.058226,9.096033 10.035493,9.096033 10.036035,9.012584 10.036035,8.998918 10.035493,8.895622 10.035493,8.860809 10.053104,8.860837 10.133338,8.861102 10.133338,8.766322 10.135729,8.693043 10.242698,8.690437 10.443099,8.688603" style="fill: white" /><polygon type="contour" points="10.270297,9.340166 10.270615,9.420579 10.330455,9.420526 10.399441,9.420602 10.437366,9.420602 10.437329,9.428334 10.436892,9.47976 10.437208,9.551219 10.437417,9.566202 10.436892,9.652228 10.437366,9.711102 10.270637,9.711102 10.270369,9.808779 10.141835,9.808504 10.124982,9.808504 10.058226,9.808779 10.035493,9.808779 10.035924,9.726079 10.035924,9.411979 10.035493,9.345304 10.035493,9.322748 10.119073,9.323154 10.132785,9.323154 10.235555,9.322748 10.270369,9.322748" style="fill: white" /><polygon type="contour" points="10.2703,10.053106 10.270662,10.132805 10.437232,10.132805 10.43729,10.135916 10.443099,10.443101 10.242698,10.441267 10.135729,10.438661 10.133721,10.372161 10.133337,10.365381 10.132779,10.270684 10.035493,10.27037 10.036035,10.141836 10.036035,10.124984 10.035493,10.058229 10.035493,10.035494 10.119072,10.036037 10.132784,10.036037 10.235555,10.035494 10.270369,10.035494" style="fill: white" /><polygon type="contour" points="9.808503,10.119074 9.808503,10.132786 9.808778,10.235556 9.808778,10.27037 9.791536,10.270299 9.711101,10.270617 9.711101,10.437188 9.587548,10.437216 9.583263,10.437343 9.565501,10.4376 9.555084,10.437533 9.547823,10.437342 9.54356,10.437216 9.4206,10.437188 9.4206,10.270639 9.322745,10.27037 9.323151,10.141837 9.323151,10.124984 9.322745,10.058229 9.322745,10.035494 9.405572,10.035926 9.719723,10.035926 9.786396,10.035494 9.808778,10.035494" style="fill: white" /><polygon type="contour" points="9.095617,10.119074 9.095617,10.132787 9.096031,10.235556 9.096031,10.27037 9.078595,10.270302 8.998363,10.270667 8.998363,10.365381 8.995972,10.43866 8.889002,10.441267 8.688601,10.443101 8.694409,10.135916 8.694467,10.132805 8.861103,10.132805 8.860808,10.035494 8.989865,10.036037 9.006718,10.036037 9.073473,10.035494 9.096031,10.035494" style="fill: white" />
</svg>
