<svg width="19.131698" height="19.131699">
<polygon type="contour" points="10.408208,8.802932 10.407158,8.859004 10.407144,8.891974 10.406569,9.021449 10.2583,9.021655 10.110048,9.021655 10.110048,8.891163 10.110366,8.853841 10.110876,8.831239 10.111368,8.824353 10.111368,8.724506 10.23217,8.724493 10.280481,8.724493 10.289764,8.724082 10.356916,8.722446 10.40974,8.721962" style="fill: white" /><polygon type="contour" points="10.407144,10.23973 10.407158,10.272699 10.408208,10.328771 10.40974,10.409742 10.356916,10.409258 10.289764,10.407622 10.280481,10.407211 10.23217,10.407211 10.111368,10.407197 10.110876,10.300464 10.110366,10.277862 10.110048,10.24054 10.110048,10.11005 10.407141,10.11005" style="fill: white" /><polygon type="contour" points="9.711101,10.406775 9.64625,10.407119 9.5655,10.408292 9.449865,10.407542 9.4206,10.406775 9.4206,10.122006 9.420569,10.114778 9.420569,10.114749 9.420539,10.108917 9.711101,10.108917" style="fill: white" /><polygon type="contour" points="9.954878,10.108695 9.955611,10.108696 9.955907,10.108696 9.955907,10.24028 9.954878,10.240279 9.910944,10.24027 9.867953,10.240267 9.866418,10.240268 9.866418,10.109327 9.866416,10.108692 9.867952,10.108691" style="fill: white" /><polygon type="contour" points="9.711101,9.955908 9.4206,9.955908 9.4206,9.86642 9.711101,9.86642" style="fill: white" /><polygon type="contour" points="9.711101,9.711102 9.4206,9.711102 9.4206,9.420602 9.711101,9.420602" style="fill: white" /><polygon type="contour" points="9.955907,9.711102 9.866418,9.711102 9.866418,9.420602 9.955612,9.420602 9.955907,9.4206" style="fill: white" /><polygon type="contour" points="9.955913,9.867016 9.955913,9.954879 9.955907,9.955612 9.955907,9.955908 9.954879,9.955914 9.867953,9.956166 9.866416,9.956161 9.866411,9.954623 9.866411,9.867955 9.866418,9.866864 9.866418,9.86642 9.867952,9.866413 9.954879,9.865982 9.955613,9.865983 9.955907,9.865982" style="fill: white" /><polygon type="contour" points="10.109325,9.86642 10.240264,9.86642 10.240263,9.867955 10.240269,9.910946 10.240275,9.954879 10.240276,9.955908 10.108694,9.955908 10.108693,9.95488 10.108689,9.867954 10.10869,9.866868 10.10869,9.866418" style="fill: white" /><polygon type="contour" points="10.407117,9.485453 10.408242,9.566201 10.407998,9.606037 10.407116,9.646563 10.406773,9.711102 10.108915,9.711102 10.108915,9.420602 10.406773,9.420602" style="fill: white" /><polygon type="contour" points="10.240275,9.176824 10.24027,9.220757 10.240263,9.263749 10.240264,9.265285 10.109324,9.265285 10.10869,9.265284 10.108689,9.263749 10.108693,9.176824 10.108694,9.176091 10.108694,9.175796 10.240276,9.175796" style="fill: white" /><polygon type="contour" points="9.711101,9.176823 9.711101,9.265285 9.4206,9.265285 9.4206,9.175796 9.711103,9.175796" style="fill: white" /><polygon type="contour" points="9.954878,9.17579 9.955611,9.175796 9.955907,9.175796 9.955913,9.176823 9.956165,9.263749 9.95616,9.265284 9.954623,9.265292 9.867953,9.265292 9.866862,9.265285 9.866418,9.265285 9.866411,9.263749 9.866411,9.17708 9.866418,9.175984 9.866419,9.175542 9.867953,9.175537" style="fill: white" /><polygon type="contour" points="9.955907,9.023009 9.954879,9.023009 9.867952,9.023014 9.866866,9.023013 9.866419,9.023013 9.866418,9.022378 9.866418,8.891436 9.867953,8.891437 9.910944,8.891433 9.954878,8.891425 9.955907,8.891424" style="fill: white" /><polygon type="contour" points="9.681835,8.72416 9.711101,8.724928 9.711101,9.009699 9.711132,9.016925 9.711162,9.022788 9.4206,9.022788 9.4206,8.724928 9.48514,8.724584 9.565671,8.723412" style="fill: white" /><polygon type="contour" points="8.774783,8.722445 8.841935,8.724082 8.851219,8.724493 8.89953,8.724493 9.020333,8.724506 9.020825,8.831239 9.021335,8.853841 9.021653,8.891163 9.021653,9.021655 8.724559,9.021655 8.724556,8.891975 8.72454,8.859003 8.723492,8.802933 8.72196,8.721962" style="fill: white" /><polygon type="contour" points="9.176822,8.891425 9.220756,8.891433 9.263747,8.891437 9.265283,8.891436 9.265283,9.022377 9.265285,9.023013 9.263748,9.023014 9.176822,9.02301 9.176089,9.023009 9.175794,9.023009 9.175794,8.891424" style="fill: white" /><polygon type="contour" points="9.023007,9.176823 9.023012,9.26375 9.023011,9.264836 9.023011,9.265284 9.022376,9.265285 8.891435,9.265285 8.891436,9.263749 8.891429,9.220757 8.891424,9.176824 8.891423,9.175796 9.023007,9.175796" style="fill: white" /><polygon type="contour" points="9.265285,9.175543 9.26529,9.17708 9.26529,9.263749 9.265283,9.26484 9.265283,9.265285 9.263747,9.265292 9.177078,9.265292 9.175982,9.265285 9.17554,9.265284 9.175535,9.263749 9.175788,9.176824 9.175794,9.176091 9.175794,9.175796 9.176821,9.17579 9.263747,9.175538" style="fill: white" /><polygon type="contour" points="9.176821,9.420602 9.265283,9.420602 9.265283,9.711102 9.176088,9.711102 9.175794,9.711104 9.175794,9.4206" style="fill: white" /><polygon type="contour" points="9.022786,9.711102 8.724926,9.711102 8.724583,9.646563 8.723458,9.566201 8.7237,9.526175 8.724583,9.485452 8.724926,9.420602 9.022786,9.420602" style="fill: white" /><polygon type="contour" points="9.023011,9.866421 9.023012,9.867954 9.023008,9.954879 9.023007,9.955612 9.023007,9.955908 8.891423,9.955908 8.891424,9.954879 8.891429,9.910947 8.891436,9.867955 8.891435,9.86642 9.022376,9.86642" style="fill: white" /><polygon type="contour" points="9.264838,9.86642 9.265283,9.86642 9.26529,9.867955 9.26529,9.954623 9.265283,9.955719 9.265285,9.956161 9.263747,9.956166 9.176822,9.955914 9.176089,9.955908 9.175793,9.955908 9.175788,9.95488 9.175536,9.867954 9.175541,9.866421 9.177077,9.866413 9.263747,9.866413" style="fill: white" /><polygon type="contour" points="9.264834,10.108692 9.265285,10.108692 9.265283,10.109327 9.265283,10.240268 9.263747,10.240267 9.220756,10.24027 9.176822,10.240279 9.175794,10.24028 9.175794,10.108696 9.176821,10.108695 9.263748,10.108691" style="fill: white" /><polygon type="contour" points="9.021653,10.24054 9.021335,10.277862 9.020824,10.300464 9.020333,10.30735 9.020333,10.407197 8.89953,10.407211 8.851219,10.407211 8.841935,10.407622 8.774783,10.409258 8.72196,10.409742 8.723492,10.32877 8.724541,10.2727 8.724556,10.239729 8.72513,10.110256 8.873399,10.11005 9.021653,10.11005" style="fill: white" />
</svg>
