<svg width="19.131698" height="19.131699">
<polygon type="contour" points="5.708402,3.199147 5.708473,3.215775 5.708384,3.310041 5.771093,3.310813 5.772998,3.310812 5.780903,3.310812 5.800473,3.310813 5.813319,3.310855 5.813319,3.387086 5.813454,3.453564 5.816507,3.45368 5.816507,3.453681 5.774214,3.453611 5.764355,3.453585 5.754681,3.453398 5.746225,3.453665 5.743046,3.453408 5.64241,3.453449 5.375335,3.453325 5.375335,3.414875 5.375395,3.310756 5.375213,3.285411 5.375579,3.280743 5.375579,3.200517 5.37532,3.196626 5.375294,3.120596 5.476271,3.120359 5.708255,3.120359" style="fill: white" /><polygon type="contour" points="3.370755,3.120515 3.453907,3.120708 3.453491,3.200516 3.453491,3.280743 3.453607,3.28345 3.453583,3.310785 3.453583,3.453584 3.310782,3.453584 3.283448,3.453608 3.200516,3.453492 3.196626,3.453823 3.120594,3.453797 3.12076,3.285529 3.120519,3.177819 3.120519,3.120521 3.369278,3.120262" style="fill: white" /><polygon type="contour" points="4.324592,3.310696 4.416691,3.311032 4.520162,3.31082 4.572332,3.310756 4.572332,3.453557 4.520163,3.45362 4.445367,3.453505 4.324591,3.453496 4.256958,3.453436 4.240024,3.453436 4.240024,3.310636 4.254163,3.310633" style="fill: white" /><polygon type="contour" points="3.368386,6.370496 3.415738,6.312278 3.453165,6.312216 3.453635,6.416819 3.453647,7.039203 3.453795,7.487473 3.372983,7.496982 3.215762,7.486655 3.215762,6.95976 3.215691,6.936535 3.216021,6.42723 3.321307,6.42723 3.31091,6.364205 3.310625,6.347385 3.311003,6.295056 3.310736,6.281535 3.310805,6.279117 3.310811,6.265718 3.368034,6.265526" style="fill: white" /><polygon type="contour" points="3.310755,5.375396 3.384403,5.375396 3.453823,5.375326 3.453651,5.499719 3.453565,5.523431 3.453686,5.562254 3.453665,5.626434 3.45363,5.742694 3.453652,5.813321 3.396071,5.813456 3.310764,5.813456 3.310555,5.799901 3.310562,5.796983 3.310718,5.780042 3.310675,5.771741 3.310865,5.769603 3.310865,5.708927 3.215774,5.708476 3.199146,5.708404 3.197433,5.708374 3.120357,5.708258 3.120357,5.476272 3.120593,5.375297 3.200515,5.375582 3.285408,5.375214" style="fill: white" /><polygon type="contour" points="3.453434,4.256959 3.453494,4.324595 3.453503,4.445369 3.453618,4.520165 3.453551,4.562674 3.453555,4.572334 3.310755,4.572334 3.310819,4.520165 3.31103,4.416694 3.310694,4.324594 3.310635,4.240026 3.453434,4.240026" style="fill: white" /><polygon type="contour" points="4.572683,4.445369 4.572474,4.520165 4.572332,4.561871 4.572332,4.572334 4.520162,4.572477 4.445367,4.572685 4.239915,4.572685 4.239915,4.445369 4.239996,4.324594 4.240024,4.240026 4.445367,4.239916 4.572683,4.239916" style="fill: white" /><polygon type="contour" points="4.572458,5.410094 4.572374,5.41503 4.572369,5.415658 4.572354,5.42385 4.572289,5.437273 4.572337,5.439703 4.572465,5.461872 4.572293,5.524368 4.572181,5.814388 4.486902,5.814211 4.239765,5.814211 4.239988,5.787149 4.23993,5.784612 4.240021,5.781689 4.240021,5.451858 4.239956,5.448533 4.240036,5.444994 4.240104,5.439921 4.240017,5.434409 4.24,5.428058 4.239915,5.421042 4.240086,5.414405 4.240024,5.375601 4.255702,5.375627 4.324592,5.375518 4.416691,5.375332 4.520162,5.37512 4.561869,5.375057 4.572332,5.375057" style="fill: white" /><polygon type="contour" points="4.520163,6.265235 4.572399,6.265227 4.572399,6.35591 4.571753,6.427618 4.572357,6.427618 4.572318,6.428174 4.572333,6.43141 4.572347,6.432162 4.572346,6.435914 4.572346,7.388195 4.572351,7.391063 4.572333,7.401861 4.572323,7.403852 4.572385,7.44619 4.539623,7.450149 4.459297,7.493682 4.429702,7.470378 4.316142,7.445133 4.307385,7.442873 4.239431,7.447958 4.239976,6.528202 4.240014,6.366348 4.240001,6.366348 4.240167,6.3308 4.240167,6.265168 4.392804,6.265168 4.445367,6.265156" style="fill: white" /><polygon type="contour" points="5.644949,6.35565 5.644957,6.387156 5.646169,6.665809 5.646233,6.804012 5.646854,6.958606 5.647587,7.246108 5.647634,7.249127 5.648014,7.40425 5.648051,7.444238 5.592456,7.44375 5.375431,7.482191 5.375446,6.952564 5.375408,6.790667 5.375387,6.628121 5.375532,6.409045 5.375442,6.278824 5.375402,6.265359 5.644685,6.265359" style="fill: white" /><polygon type="contour" points="6.355647,5.375485 6.356315,5.375494 6.382898,5.375524 6.618475,5.375515 7.482189,5.375433 7.471366,5.556265 7.444358,5.648083 7.404248,5.648015 7.249125,5.647635 7.246107,5.647588 6.80401,5.646234 6.366572,5.644957 6.366572,5.644959 6.293902,5.644714 6.265357,5.644685 6.265357,5.375404" style="fill: white" /><polygon type="contour" points="5.813454,5.375066 5.813319,5.499807 5.813319,5.643675 5.803047,5.643721 5.800925,5.643735 5.796947,5.643261 5.783093,5.643226 5.775708,5.643482 5.773839,5.643374 5.734038,5.643472 5.721796,5.643493 5.706513,5.643614 5.702812,5.643409 5.642272,5.642912 5.643612,5.706516 5.643491,5.720042 5.643491,5.723555 5.643387,5.766846 5.64348,5.775709 5.643224,5.783095 5.64326,5.796949 5.643732,5.800927 5.643744,5.803372 5.643674,5.813322 5.375153,5.813322 5.375111,5.800748 5.375482,5.785247 5.375348,5.781627 5.375488,5.776861 5.375111,5.774218 5.375083,5.764112 5.375224,5.762176 5.375169,5.727279 5.375609,5.704426 5.375361,5.682615 5.375063,5.662235 5.375254,5.6441 5.375438,5.636896 5.37515,5.629001 5.375387,5.624415 5.375395,5.375396 5.613315,5.375179 5.615396,5.375175 5.623796,5.375101 5.635485,5.3755 5.652347,5.375193 5.67156,5.375368 5.692866,5.375177 5.697284,5.375424 5.714968,5.375236 5.72168,5.374923 5.737962,5.375172 5.761,5.37505 5.77212,5.375239 5.783134,5.375427 5.788534,5.375191 5.791336,5.376394 5.804287,5.374921 5.806284,5.374911" style="fill: white" /><polygon type="contour" points="5.814208,4.486904 5.81414,4.572322 5.628261,4.572438 5.524367,4.572295 5.508651,4.572161 5.46187,4.572469 5.439701,4.57234 5.437272,4.572292 5.423848,4.572356 5.415656,4.572371 5.407505,4.572346 5.375055,4.572334 5.375117,4.520165 5.37533,4.416694 5.375516,4.324595 5.3756,4.240026 5.415333,4.240018 5.41929,4.239968 5.425821,4.240136 5.432488,4.240062 5.437828,4.240066 5.443348,4.239973 5.447496,4.239925 5.778048,4.239925 5.780823,4.240022 5.783742,4.239932 5.786622,4.239899 5.814208,4.239767" style="fill: white" /><polygon type="contour" points="6.632901,4.240055 7.451147,4.240055 7.445518,4.315923 7.471906,4.431647 7.49368,4.459299 7.450147,4.539625 7.446188,4.572387 7.403849,4.572325 7.391061,4.572353 7.388193,4.572348 6.435911,4.572348 6.432159,4.572349 6.428173,4.57232 6.427616,4.572359 6.427615,4.57231 6.270117,4.57231 6.265226,4.572401 6.265234,4.520165 6.265155,4.445369 6.265166,4.240169 6.325658,4.240002 6.425965,4.240002" style="fill: white" /><polygon type="contour" points="7.453811,3.284586 7.488173,3.453846 6.587477,3.453375 6.427928,3.453321 6.427928,3.452921 6.27882,3.453944 6.265357,3.453904 6.265716,3.346498 6.265716,3.310812 6.355024,3.311184 6.427928,3.311323 6.427928,3.215418 6.950823,3.215867 7.460393,3.215331" style="fill: white" /><polygon type="contour" points="14.611537,5.375119 14.715008,5.375332 14.807107,5.375519 14.891675,5.375601 14.89164,5.409715 14.891614,5.414405 14.891785,5.421043 14.891701,5.428057 14.891684,5.434409 14.891596,5.43992 14.891663,5.444632 14.891745,5.448532 14.891679,5.451611 14.891679,5.781443 14.89177,5.784612 14.891712,5.787149 14.891935,5.814211 14.740853,5.814143 14.55938,5.814143 14.559265,5.628264 14.559407,5.524369 14.559541,5.508653 14.559234,5.461872 14.559362,5.439703 14.559409,5.437273 14.559331,5.415659 14.559326,5.415029 14.559356,5.407507 14.559368,5.375057 14.56983,5.375057" style="fill: white" /><polygon type="contour" points="14.891532,6.265167 14.8917,6.325661 14.8917,6.425967 14.891647,6.632904 14.892147,7.448189 14.824314,7.442873 14.815556,7.445134 14.701998,7.470378 14.672404,7.493682 14.592078,7.450148 14.559315,7.44619 14.559377,7.403851 14.559349,7.391062 14.559355,7.388195 14.559355,6.435913 14.559352,6.432161 14.559382,6.428175 14.559343,6.427618 14.559393,6.427617 14.559393,6.270118 14.559301,6.265227 14.611537,6.265235 14.686332,6.265156" style="fill: white" /><polygon type="contour" points="13.756217,6.355649 13.756184,6.356406 13.756196,6.366644 13.756176,6.366643 13.756186,6.618477 13.756268,7.482191 13.575435,7.471367 13.483619,7.44436 13.483687,7.40425 13.484067,7.249127 13.484113,7.246109 13.485467,6.804011 13.486744,6.366573 13.486743,6.366573 13.486987,6.293905 13.487015,6.265359 13.756297,6.265359" style="fill: white" /><polygon type="contour" points="12.86634,5.644685 12.776052,5.644952 12.744587,5.64496 12.465891,5.646171 12.327687,5.646235 12.173094,5.646857 11.885593,5.647588 11.882574,5.647635 11.727451,5.648015 11.687464,5.648052 11.687367,5.595731 11.647707,5.3755 12.178936,5.375614 12.3274,5.375529 12.503503,5.375468 12.730559,5.37553 12.852874,5.375444 12.86634,5.375404" style="fill: white" /><polygon type="contour" points="13.323727,5.374902 13.327412,5.374921 13.329874,5.374924 13.331232,5.374902 13.340733,5.375486 13.343654,5.375436 13.346839,5.375294 13.350725,5.375421 13.352789,5.375031 13.35347,5.37524 13.365716,5.375467 13.393722,5.375484 13.410021,5.374923 13.416731,5.375236 13.434414,5.375424 13.438832,5.375177 13.457511,5.375305 13.477887,5.375131 13.494805,5.37544 13.507903,5.375101 13.516305,5.375175 13.756306,5.375396 13.756313,5.624416 13.756549,5.629 13.756263,5.636896 13.756446,5.6441 13.756636,5.662236 13.756337,5.682615 13.756091,5.704426 13.756529,5.727279 13.756474,5.762177 13.756616,5.764113 13.756589,5.774218 13.756209,5.776861 13.756352,5.781627 13.756218,5.785247 13.756591,5.800749 13.756547,5.813322 13.488025,5.813322 13.487978,5.802945 13.487965,5.800928 13.488439,5.796949 13.488474,5.783095 13.48822,5.77571 13.488066,5.736809 13.48821,5.723554 13.488394,5.718295 13.488088,5.706515 13.489436,5.64226 13.425186,5.643614 13.409903,5.643493 13.366008,5.643388 13.35786,5.643373 13.355992,5.643482 13.348607,5.643226 13.334753,5.643261 13.330774,5.643088 13.32833,5.643099 13.318381,5.643349 13.318247,5.536065 13.318247,5.375066 13.321823,5.374884 13.323442,5.37488" style="fill: white" /><polygon type="contour" points="13.345075,4.2399 13.347953,4.239932 13.350255,4.240023 13.680091,4.240023 13.684203,4.239925 13.686706,4.240037 13.688351,4.239974 13.69325,4.239896 13.699211,4.240062 13.705878,4.240136 13.7561,4.240026 13.756074,4.255704 13.756183,4.324595 13.756369,4.416695 13.756582,4.520164 13.756647,4.561871 13.756647,4.572334 13.719304,4.57246 13.716043,4.572371 13.707852,4.572356 13.694429,4.572292 13.691999,4.57234 13.669831,4.572469 13.607331,4.572295 13.317314,4.572183 13.317491,4.486904 13.317491,4.239767" style="fill: white" /><polygon type="contour" points="12.800899,4.240169 12.866533,4.240169 12.866533,4.392807 12.866546,4.445369 12.866466,4.520165 12.866475,4.572401 12.776053,4.576892 12.765058,4.577075 12.765065,4.56909 12.703161,4.57679 12.699618,4.577043 12.698797,4.577084 12.694695,4.577156 11.743506,4.572348 11.740638,4.572353 11.72984,4.572336 11.727851,4.572325 11.688422,4.572382 11.684067,4.540634 11.646272,4.461824 11.671568,4.416694 11.665909,4.40482 11.68618,4.315923 11.680723,4.240034 12.601037,4.240034 12.761712,4.239984" style="fill: white" /><polygon type="contour" points="12.704378,3.216022 12.704626,3.311484 12.852581,3.310807 12.865981,3.310812 12.86634,3.417935 12.86634,3.453904 12.776053,3.453361 12.765058,3.453343 12.765067,3.451476 12.699827,3.453402 12.4547,3.453302 12.378,3.453401 12.084694,3.453649 11.657243,3.453688 11.626405,3.372987 11.645045,3.215765 12.171631,3.215764 12.194845,3.215693" style="fill: white" /><polygon type="contour" points="13.756406,3.120595 13.756122,3.200517 13.756488,3.285411 13.756306,3.310755 13.756306,3.384404 13.756376,3.453824 13.632903,3.453738 13.608269,3.453567 13.569447,3.453688 13.505266,3.453667 13.389008,3.453632 13.318381,3.453654 13.318381,3.310855 13.331516,3.310783 13.351657,3.31072 13.359961,3.310675 13.362164,3.310645 13.422775,3.310645 13.423225,3.215775 13.423298,3.199147 13.423329,3.197435 13.423443,3.120359 13.65543,3.120359" style="fill: white" /><polygon type="contour" points="16.01118,3.120521 16.01118,3.177818 16.010938,3.28553 16.011106,3.453797 15.931184,3.453492 15.85096,3.453492 15.848251,3.453609 15.820917,3.453584 15.678118,3.453584 15.678118,3.310785 15.678093,3.28345 15.67821,3.200517 15.677877,3.196626 15.677792,3.120708 15.760943,3.120515 15.762419,3.120262" style="fill: white" /><polygon type="contour" points="14.891676,3.453436 14.874741,3.453436 14.807108,3.453496 14.686332,3.453505 14.611538,3.45362 14.559368,3.453557 14.559368,3.310756 14.611537,3.310819 14.715008,3.311032 14.807107,3.310696 14.891676,3.310636" style="fill: white" /><polygon type="contour" points="14.807108,4.239998 14.891676,4.240026 14.891786,4.445369 14.891786,4.572685 14.686331,4.572685 14.611538,4.572477 14.569829,4.572334 14.559368,4.572334 14.559224,4.520164 14.559017,4.445369 14.559017,4.239916 14.686331,4.239916" style="fill: white" /><polygon type="contour" points="15.821071,4.254165 15.821007,4.324594 15.82067,4.416694 15.820881,4.520165 15.820944,4.572334 15.678144,4.572334 15.678081,4.520165 15.678195,4.445369 15.678204,4.324595 15.678264,4.256959 15.678264,4.240026 15.821067,4.240026" style="fill: white" /><polygon type="contour" points="15.85096,5.375582 15.931183,5.375582 15.935074,5.375322 16.011106,5.375297 16.011344,5.476272 16.011344,5.708258 15.932553,5.708404 15.915923,5.708476 15.821413,5.708924 15.820666,5.771154 15.82089,5.773 15.820653,5.780793 15.8211,5.79735 15.821146,5.799902 15.820936,5.813456 15.678137,5.813456 15.678306,5.796127 15.678298,5.793353 15.678306,5.790915 15.678286,5.788995 15.678308,5.787688 15.678348,5.764342 15.678375,5.375337 15.716823,5.375337 15.820944,5.375396 15.846292,5.375214" style="fill: white" /><polygon type="contour" points="15.785204,6.265718 15.82089,6.265718 15.820516,6.355025 15.820376,6.427835 15.916285,6.427835 15.915722,6.624948 15.91601,6.936534 15.915939,6.95976 15.915937,7.486655 15.758715,7.496982 15.677904,7.487472 15.678325,6.587478 15.678378,6.42793 15.678776,6.427928 15.677758,6.278824 15.677799,6.265359" style="fill: white" /><polygon type="contour" points="15.831765,11.670697 15.916371,11.671309 15.915836,12.181206 15.916285,12.703869 15.82021,12.704179 15.820897,12.852583 15.82089,12.865983 15.713766,12.866342 15.677799,12.866342 15.67834,12.776054 15.678358,12.76506 15.680224,12.765069 15.678299,12.699829 15.678477,12.575778 15.678299,12.378001 15.678052,12.084696 15.678013,11.657245" style="fill: white" /><polygon type="contour" points="14.715008,11.67157 14.726655,11.666806 14.815556,11.686566 14.824315,11.68883 14.892268,11.683746 14.891723,12.6035 14.891685,12.765356 14.891699,12.765356 14.891532,12.800901 14.891532,12.866535 14.738893,12.866535 14.686332,12.866548 14.611537,12.866468 14.559301,12.866477 14.559301,12.775793 14.559953,12.704086 14.559343,12.704086 14.559382,12.703528 14.559367,12.700293 14.559353,12.699541 14.559355,12.69579 14.559355,11.743508 14.559349,11.740641 14.559365,11.729842 14.559377,11.727853 14.55932,11.688424 14.591067,11.684069 14.669878,11.646273" style="fill: white" /><polygon type="contour" points="13.756086,12.178937 13.756171,12.327402 13.756233,12.503504 13.756171,12.730292 13.756256,12.852877 13.756296,12.866342 13.487015,12.866342 13.48675,12.776054 13.486745,12.745234 13.48553,12.465894 13.485466,12.327689 13.484846,12.173097 13.484113,11.885594 13.484065,11.882576 13.483685,11.727453 13.483649,11.687466 13.535968,11.687369 13.756201,11.647708" style="fill: white" /><polygon type="contour" points="13.756818,13.321826 13.756822,13.323444 13.756822,13.324559 13.75677,13.326292 13.756808,13.328386 13.756799,13.331102 13.756215,13.340457 13.756351,13.343144 13.756352,13.350073 13.756208,13.354842 13.756589,13.357486 13.756616,13.367591 13.756475,13.369527 13.756529,13.404425 13.756091,13.427276 13.756337,13.449087 13.756636,13.469466 13.756446,13.487603 13.756263,13.494807 13.756549,13.502703 13.756313,13.507286 13.756306,13.756307 13.518383,13.756523 13.50947,13.756198 13.496213,13.756204 13.479351,13.75651 13.460139,13.756337 13.438833,13.756528 13.434415,13.75628 13.41673,13.756467 13.410021,13.75678 13.393737,13.756532 13.370697,13.756655 13.359576,13.756465 13.348565,13.756278 13.343165,13.756514 13.342665,13.756298 13.334312,13.756296 13.332817,13.756168 13.325732,13.756576 13.324154,13.756582 13.318381,13.756549 13.318381,13.488027 13.328652,13.487979 13.330774,13.487967 13.334753,13.488442 13.348607,13.488477 13.355992,13.488222 13.357859,13.488329 13.397661,13.488231 13.409903,13.488211 13.425187,13.48809 13.428887,13.488295 13.489422,13.48878 13.488088,13.425187 13.48821,13.411661 13.48821,13.408148 13.488314,13.364857 13.48822,13.355993 13.488475,13.348608 13.488439,13.334754 13.488613,13.330775 13.488603,13.328332 13.488353,13.318382 13.632219,13.318382 13.756635,13.318248" style="fill: white" /><polygon type="contour" points="14.644797,13.317492 14.891934,13.317492 14.891711,13.344183 14.89177,13.34709 14.891679,13.350258 14.891679,13.680092 14.891745,13.683171 14.891663,13.687071 14.891596,13.691782 14.891684,13.697295 14.891596,13.703645 14.891676,13.756103 14.875997,13.756077 14.807107,13.756186 14.715008,13.75637 14.611537,13.756584 14.56983,13.756648 14.559368,13.756648 14.559242,13.721609 14.559326,13.716673 14.559331,13.716044 14.559346,13.707853 14.55941,13.69443 14.559362,13.692 14.559234,13.669831 14.559407,13.607333 14.559519,13.317315" style="fill: white" /><polygon type="contour" points="15.821146,13.331801 15.821139,13.33472 15.820746,13.351779 15.821025,13.359962 15.820835,13.3621 15.820835,13.422778 15.915923,13.423227 15.932553,13.4233 15.934267,13.42333 16.011344,13.423444 16.011344,13.655429 16.011105,13.756407 15.931183,13.756123 15.846292,13.75649 15.820944,13.756308 15.747296,13.756308 15.677875,13.756379 15.678134,13.608272 15.678013,13.569449 15.677832,13.506702 15.678259,13.406253 15.678137,13.318248 15.820936,13.318248" style="fill: white" /><polygon type="contour" points="16.011106,15.677905 16.010938,15.846174 16.01118,15.953886 16.01118,16.011182 15.762419,16.011442 15.760943,16.011188 15.677793,16.010995 15.678209,15.931186 15.678209,15.850963 15.678093,15.848253 15.678118,15.820918 15.678118,15.67812 15.820916,15.67812 15.848251,15.678096 15.931184,15.678212 15.935074,15.67788" style="fill: white" /><polygon type="contour" points="15.820881,14.611538 15.82067,14.715009 15.821006,14.807109 15.821065,14.891677 15.685535,14.891678 15.678264,14.891678 15.678264,14.874744 15.678204,14.807108 15.678195,14.686334 15.678081,14.611538 15.678148,14.569028 15.678144,14.55937 15.820944,14.55937" style="fill: white" /><polygon type="contour" points="14.891786,14.686332 14.891703,14.807109 14.891676,14.891677 14.686331,14.891788 14.559017,14.891788 14.559017,14.686332 14.559224,14.611539 14.559368,14.56983 14.559368,14.559369 14.611538,14.559225 14.686331,14.559019 14.891786,14.559019" style="fill: white" /><polygon type="contour" points="14.686331,15.678198 14.807108,15.678205 14.874741,15.678265 14.891676,15.678265 14.891676,15.821068 14.877536,15.821072 14.807107,15.821009 14.715008,15.820672 14.611537,15.820883 14.559368,15.820947 14.559368,15.678147 14.611537,15.678083" style="fill: white" /><polygon type="contour" points="12.86634,15.6778 12.865981,15.785205 12.865981,15.820892 12.776675,15.820519 12.704191,15.82038 12.704471,15.91568 12.506361,15.915754 12.195166,15.91601 12.171939,15.915939 11.645045,15.915938 11.673891,15.779256 11.657382,15.678122 12.471559,15.678336 12.703772,15.678381 12.703773,15.678781 12.852874,15.677759" style="fill: white" /><polygon type="contour" points="13.358701,15.678092 13.36759,15.678119 13.37717,15.67817 13.385834,15.678144 13.388653,15.678297 13.489288,15.678254 13.756365,15.678378 13.756365,15.716826 13.756306,15.820946 13.756488,15.846293 13.756122,15.850962 13.756122,15.931185 13.756378,15.935076 13.756406,16.011108 13.65543,16.011346 13.423443,16.011346 13.423298,15.932556 13.423226,15.915927 13.423315,15.821059 13.362166,15.821059 13.359962,15.821028 13.351658,15.820983 13.331516,15.820921 13.318381,15.820849 13.318381,15.744617 13.318247,15.678138 13.315194,15.678023" style="fill: white" /><polygon type="contour" points="13.691999,14.559363 13.694429,14.559411 13.707853,14.559347 13.716043,14.559333 13.724195,14.559356 13.756647,14.559369 13.756583,14.611539 13.756369,14.715008 13.756183,14.807108 13.756099,14.891677 13.716366,14.891685 13.71241,14.891736 13.705878,14.891567 13.699211,14.891532 13.693871,14.891637 13.688351,14.891729 13.684203,14.891778 13.353648,14.891778 13.350873,14.89168 13.347954,14.89177 13.345074,14.891803 13.317491,14.891937 13.317491,14.644799 13.31756,14.559382 13.503438,14.559266 13.607332,14.559408 13.623049,14.559542 13.66983,14.559235" style="fill: white" /><polygon type="contour" points="12.866466,14.611538 12.866546,14.686333 12.866533,14.891534 12.806041,14.891701 12.705734,14.891701 12.705734,14.891702 12.498798,14.89165 11.680552,14.89165 11.68618,14.81578 11.665909,14.726884 11.671568,14.715009 11.646272,14.669879 11.684067,14.591068 11.688422,14.559321 11.727851,14.559378 11.740639,14.55935 11.743506,14.559356 12.695789,14.559356 12.699541,14.559353 12.703527,14.559383 12.704084,14.559344 12.704084,14.559394 12.861583,14.559394 12.866475,14.559302" style="fill: white" /><polygon type="contour" points="11.727451,13.483688 11.882575,13.484068 11.885592,13.484114 12.327688,13.485469 12.765129,13.486744 12.837795,13.48699 12.86634,13.487018 12.86634,13.7563 12.776052,13.75622 12.749782,13.756169 12.503503,13.756235 12.3274,13.756172 12.178936,13.756088 11.647707,13.756203 11.661096,13.575644 11.687342,13.48362" style="fill: white" /><polygon type="contour" points="4.572332,15.678147 4.572332,15.820947 4.520163,15.820883 4.416691,15.820672 4.324592,15.821009 4.240024,15.821068 4.240024,15.678265 4.256958,15.678265 4.324591,15.678205 4.445368,15.678198 4.520163,15.678083" style="fill: white" /><polygon type="contour" points="5.556055,11.661097 5.648082,11.687344 5.648015,11.727453 5.647634,11.882576 5.647587,11.885595 5.646234,12.327689 5.644955,12.765131 5.644957,12.765131 5.644713,12.837797 5.644685,12.866342 5.375402,12.866342 5.375483,12.776054 5.375533,12.749678 5.375467,12.503504 5.375526,12.327403 5.375613,12.178937 5.375497,11.647708" style="fill: white" /><polygon type="contour" points="4.540634,11.68407 4.57238,11.688425 4.572324,11.727852 4.572351,11.740641 4.572346,11.743509 4.572346,12.695789 4.572347,12.699542 4.572318,12.703528 4.572357,12.704085 4.572308,12.704086 4.572308,12.861584 4.572399,12.866477 4.520163,12.866468 4.445367,12.866548 4.240167,12.866535 4.24,12.806043 4.24,12.705736 4.240053,12.498799 4.239552,11.683514 4.307384,11.68883 4.316142,11.686567 4.405044,11.666806 4.416692,11.671569 4.461821,11.646273" style="fill: white" /><polygon type="contour" points="3.453365,12.471562 3.45332,12.703773 3.452919,12.703775 3.453943,12.852877 3.453903,12.866342 3.346497,12.865983 3.310811,12.865983 3.311181,12.776678 3.311321,12.703869 3.215415,12.703869 3.215865,12.181206 3.21533,11.671309 3.299934,11.670697 3.453686,11.657245" style="fill: white" /><polygon type="contour" points="3.453743,13.334706 3.453392,13.335576 3.453828,13.35383 3.453847,13.36058 3.45383,13.366659 3.453886,13.371708 3.453839,13.375425 3.453759,13.436215 3.453324,13.756367 3.414875,13.756367 3.310755,13.756308 3.285408,13.756489 3.280741,13.756123 3.200516,13.756123 3.196625,13.75638 3.120594,13.756407 3.120357,13.655429 3.120357,13.423444 3.199145,13.4233 3.215773,13.423227 3.310274,13.423319 3.311033,13.360548 3.310811,13.358702 3.311047,13.350908 3.310599,13.334352 3.310555,13.331802 3.310764,13.318248 3.369749,13.318124 3.45372,13.318124" style="fill: white" /><polygon type="contour" points="4.390846,13.317561 4.57232,13.317561 4.572436,13.503439 4.572293,13.607333 4.572159,13.62305 4.572466,13.669831 4.572337,13.692 4.57229,13.69443 4.572369,13.716045 4.572375,13.716673 4.572344,13.724196 4.572332,13.756648 4.56187,13.756648 4.520162,13.756584 4.416692,13.756371 4.324592,13.756186 4.240024,13.756103 4.240059,13.721988 4.240086,13.717298 4.239915,13.710661 4.239999,13.703646 4.240017,13.697294 4.240104,13.691783 4.240036,13.687071 4.239956,13.68317 4.240021,13.679846 4.240021,13.350012 4.23993,13.347089 4.239988,13.344553 4.239765,13.317492" style="fill: white" /><polygon type="contour" points="5.499479,13.318382 5.643346,13.318382 5.643071,13.328654 5.643087,13.330776 5.643259,13.334754 5.643224,13.348608 5.64348,13.355994 5.643633,13.394896 5.643491,13.408148 5.643305,13.413406 5.643611,13.425187 5.642258,13.489438 5.706513,13.488089 5.718295,13.488397 5.723553,13.48821 5.766844,13.488314 5.77384,13.488329 5.775708,13.488222 5.783093,13.488477 5.796947,13.488442 5.800924,13.487967 5.803369,13.487955 5.813319,13.488027 5.813454,13.595637 5.813454,13.756638 5.800467,13.756801 5.799046,13.756824 5.788046,13.756266 5.784859,13.756409 5.780974,13.756281 5.778908,13.756672 5.778228,13.756463 5.765983,13.756235 5.737976,13.756219 5.72168,13.75678 5.714967,13.756466 5.697285,13.75628 5.692867,13.756528 5.671559,13.756336 5.653813,13.756572 5.636894,13.756263 5.623796,13.756603 5.615395,13.756529 5.375395,13.756308 5.375387,13.507287 5.37515,13.502702 5.375438,13.494807 5.375254,13.487604 5.375063,13.469466 5.375362,13.449087 5.375609,13.427276 5.375169,13.404425 5.375224,13.369527 5.375083,13.367591 5.375111,13.358702 5.375488,13.355909 5.375348,13.350908 5.375482,13.347175 5.374901,13.334352 5.375064,13.318248" style="fill: white" /><polygon type="contour" points="7.443747,13.539246 7.482189,13.75627 6.952562,13.756255 6.790665,13.756293 6.62812,13.756313 6.408973,13.756169 6.278821,13.75626 6.265357,13.7563 6.265357,13.487018 6.355648,13.486751 6.386466,13.486746 6.665808,13.485531 6.804011,13.485469 6.958605,13.484846 7.246106,13.484115 7.249124,13.484068 7.404248,13.483688 7.444236,13.483652" style="fill: white" /><polygon type="contour" points="7.388192,14.559356 7.391061,14.55935 7.401859,14.559367 7.40385,14.559377 7.446188,14.559316 7.450147,14.592079 7.49368,14.672404 7.471906,14.700055 7.445518,14.81578 7.450975,14.891669 6.530664,14.891669 6.369988,14.891718 6.330799,14.891534 6.265166,14.891534 6.265166,14.738896 6.265155,14.686333 6.265234,14.611538 6.265226,14.559302 6.355648,14.554811 6.366641,14.554629 6.366634,14.5626 6.428539,14.554913 6.43208,14.554662 6.432903,14.554619 6.437005,14.554548" style="fill: white" /><polygon type="contour" points="6.365979,15.727494 6.476967,15.727823 6.476965,15.678065 7.039203,15.678054 7.487472,15.677906 7.456529,15.831768 7.460393,15.916373 6.950494,15.915837 6.427228,15.91568 6.427228,15.820741 6.347382,15.820424 6.295056,15.820697 6.279114,15.820898 6.265716,15.820892 6.265357,15.748856 6.265357,15.727436 6.313862,15.727436 6.315278,15.677756 6.355024,15.677718 6.365979,15.677698" style="fill: white" /><polygon type="contour" points="5.499716,15.67805 5.52343,15.678137 5.562253,15.678016 5.626432,15.678034 5.742691,15.678071 5.813319,15.678049 5.813319,15.820849 5.800474,15.820891 5.780902,15.820891 5.772999,15.820893 5.771154,15.82067 5.708384,15.821444 5.708473,15.915927 5.708401,15.932556 5.708372,15.934269 5.708255,16.011346 5.476271,16.011346 5.375294,16.011109 5.375579,15.931186 5.375213,15.846291 5.375395,15.820947 5.375395,15.747299 5.375324,15.677878" style="fill: white" /><polygon type="contour" points="5.524367,14.559408 5.814386,14.559521 5.814208,14.644799 5.814208,14.891937 5.787145,14.891713 5.783743,14.891771 5.780823,14.89168 5.450993,14.89168 5.447497,14.891778 5.444993,14.891665 5.443348,14.891729 5.438449,14.891807 5.432488,14.891531 5.425821,14.891567 5.419291,14.891736 5.415332,14.891685 5.3756,14.891677 5.375626,14.875998 5.375516,14.807108 5.37533,14.715009 5.375117,14.611538 5.375055,14.56983 5.375055,14.55937 5.415656,14.559333 5.423848,14.559347 5.437272,14.559411 5.439701,14.559363 5.46187,14.559235" style="fill: white" /><polygon type="contour" points="4.520162,14.559226 4.56187,14.55937 4.572332,14.55937 4.572475,14.611539 4.572683,14.686332 4.572683,14.891788 4.445368,14.891788 4.324591,14.891704 4.240024,14.891677 4.239915,14.686332 4.239915,14.559019 4.445367,14.559019" style="fill: white" /><polygon type="contour" points="3.453618,14.611538 3.453503,14.686333 3.453494,14.807109 3.453434,14.874742 3.453434,14.891677 3.310635,14.891677 3.310632,14.877537 3.310693,14.807109 3.31103,14.715009 3.310818,14.611538 3.310755,14.55937 3.453555,14.55937" style="fill: white" /><polygon type="contour" points="3.200516,15.678212 3.280741,15.678212 3.283449,15.678096 3.310781,15.67812 3.453583,15.67812 3.453583,15.820918 3.453607,15.848253 3.453491,15.931186 3.453821,15.935077 3.453907,16.010995 3.370756,16.011188 3.369279,16.011442 3.120519,16.011182 3.120519,15.953885 3.12076,15.846175 3.120594,15.677906" style="fill: white" />
</svg>
