<svg width="19.131698" height="19.131699">
<polygon type="contour" points="8.782563,10.085189 8.851557,10.085189 8.851557,10.128512 8.85148,10.179368 8.724956,10.179368 8.725118,10.128512 8.724932,10.085139" style="fill: white" /><polygon type="contour" points="9.711101,10.573368 9.655563,10.575774 9.565839,10.577375 9.442186,10.5736 9.4206,10.573368 9.4206,10.280194 9.711101,10.280194" style="fill: white" /><polygon type="contour" points="10.575276,8.739438 10.573445,8.851114 10.440478,8.851193 10.280509,8.851193 10.280509,8.782525 10.280452,8.673433 10.280606,8.664321 10.280606,8.61125 10.282444,8.556581 10.364703,8.557388 10.368434,8.556967 10.429356,8.55522 10.580876,8.550826" style="fill: white" /><polygon type="contour" points="9.689514,8.558104 9.711101,8.558337 9.711101,8.851509 9.419833,8.851509 9.4206,8.78321 9.4206,8.558337 9.475872,8.555929 9.5655,8.554328" style="fill: white" /><polygon type="contour" points="8.702343,8.55522 8.763264,8.556967 8.766996,8.557389 8.849257,8.556581 8.851309,8.60579 8.851092,8.61125 8.851249,8.673432 8.851249,8.759886 8.851192,8.851193 8.691222,8.851193 8.558256,8.851114 8.556423,8.739437 8.550824,8.550826" style="fill: white" /><polygon type="contour" points="8.782563,9.225586 8.851557,9.225586 8.851557,9.267947 8.851509,9.318048 8.781445,9.318256 8.72503,9.318256 8.725157,9.267884 8.724932,9.225389" style="fill: white" /><polygon type="contour" points="8.85148,9.005576 8.851557,9.046513 8.801319,9.046565 8.724932,9.046565 8.7247,9.000113 8.724956,8.952336 8.85148,8.952336" style="fill: white" /><polygon type="contour" points="9.046563,8.989905 9.046563,9.046565 9.003188,9.046514 8.952013,9.046514 8.952013,9.00319 8.952335,8.952336 8.993593,8.952336 9.003189,8.952016 9.046511,8.952016" style="fill: white" /><polygon type="contour" points="9.046512,8.782564 9.046512,8.851558 9.003189,8.851558 8.952335,8.851481 8.952335,8.724958 9.003189,8.72512 9.046563,8.724934" style="fill: white" /><polygon type="contour" points="9.318254,8.725033 9.318254,8.781447 9.318046,8.851511 9.266107,8.851511 9.225584,8.851558 9.225387,8.801322 9.225387,8.724933 9.271316,8.724731" style="fill: white" /><polygon type="contour" points="9.318957,8.952336 9.318363,9.00319 9.318534,9.046387 9.281209,9.046565 9.225387,9.046565 9.225584,9.00319 9.225584,8.952016 9.267946,8.952016" style="fill: white" /><polygon type="contour" points="9.267882,9.225436 9.318534,9.225436 9.318534,9.267884 9.318254,9.318256 9.266153,9.318256 9.225434,9.318536 9.225387,9.28121 9.225387,9.225389" style="fill: white" /><polygon type="contour" points="9.046385,9.267885 9.046385,9.318536 9.003188,9.318366 8.952335,9.31896 8.952013,9.267948 8.952013,9.225586 8.989901,9.225389 9.046563,9.225389" style="fill: white" /><polygon type="contour" points="8.952971,9.419823 9.005186,9.420602 9.046385,9.420602 9.046385,9.711102 9.003189,9.711743 8.952335,9.711891 8.952335,9.419814" style="fill: white" /><polygon type="contour" points="8.851508,9.711869 8.783208,9.711102 8.554716,9.711102 8.555039,9.6429 8.553835,9.56584 8.555039,9.489134 8.554716,9.420602 8.783208,9.420602 8.851508,9.419835" style="fill: white" /><polygon type="contour" points="8.851509,9.813656 8.851509,9.865595 8.851557,9.906118 8.801319,9.906315 8.724932,9.906315 8.72473,9.860386 8.725031,9.813448 8.781445,9.813448" style="fill: white" /><polygon type="contour" points="9.046563,9.850491 9.046563,9.906315 9.003188,9.906118 8.952013,9.906118 8.952013,9.863756 8.952356,9.813656 9.003188,9.813337 9.046385,9.813166" style="fill: white" /><polygon type="contour" points="9.318254,9.813448 9.318254,9.865548 9.318534,9.906268 9.281208,9.906315 9.225387,9.906315 9.225434,9.863819 9.225434,9.813166 9.267882,9.813166" style="fill: white" /><polygon type="contour" points="9.318254,9.711102 9.225434,9.711102 9.225434,9.420602 9.318254,9.420602" style="fill: white" /><polygon type="contour" points="9.711101,9.711102 9.4206,9.711102 9.4206,9.420602 9.711101,9.420602" style="fill: white" /><polygon type="contour" points="9.711101,9.906268 9.4206,9.906268 9.4206,9.813448 9.711101,9.813448" style="fill: white" /><polygon type="contour" points="9.906313,9.850491 9.906313,9.906315 9.863817,9.906268 9.813165,9.906268 9.813165,9.863819 9.813447,9.813448 9.865546,9.813448 9.906266,9.813166" style="fill: white" /><polygon type="contour" points="9.906266,9.711102 9.813447,9.711102 9.813447,9.420602 9.906266,9.420602" style="fill: white" /><polygon type="contour" points="10.128511,9.225586 10.179688,9.225586 10.179688,9.268589 10.179344,9.318835 10.12851,9.319007 10.085315,9.318536 10.085137,9.281211 10.085137,9.225389" style="fill: white" /><polygon type="contour" points="9.906266,9.267884 9.906266,9.318536 9.863818,9.318536 9.813447,9.318256 9.813447,9.266155 9.813165,9.225436 9.85049,9.225389 9.906313,9.225389" style="fill: white" /><polygon type="contour" points="9.711101,9.318256 9.4206,9.318256 9.4206,9.225436 9.711101,9.225436" style="fill: white" /><polygon type="contour" points="9.711101,9.046387 9.4206,9.046387 9.419958,9.00319 9.419811,8.952336 9.711101,8.952336" style="fill: white" /><polygon type="contour" points="9.906313,8.989904 9.906313,9.046565 9.863817,9.046387 9.813165,9.046387 9.812695,9.00319 9.812868,8.952358 9.865593,8.952358 9.906116,8.952016" style="fill: white" /><polygon type="contour" points="9.906116,8.782565 9.906116,8.851558 9.863113,8.851558 9.812868,8.851511 9.813447,8.781447 9.813447,8.725033 9.863818,8.72516 9.906313,8.724934" style="fill: white" /><polygon type="contour" points="10.179366,8.724958 10.179366,8.851482 10.126124,8.851482 10.085187,8.851558 10.085137,8.801322 10.085137,8.724934 10.131588,8.724702" style="fill: white" /><polygon type="contour" points="10.179366,8.952336 10.179366,9.005576 10.179688,9.046513 10.141798,9.046565 10.085137,9.046565 10.085187,9.003191 10.085187,8.952016 10.128511,8.952016" style="fill: white" /><polygon type="contour" points="10.406581,9.00319 10.406767,9.046565 10.349136,9.046514 10.280144,9.046514 10.280144,9.00319 10.28022,8.952336 10.406744,8.952336" style="fill: white" /><polygon type="contour" points="10.40697,9.271317 10.406669,9.318256 10.350254,9.318256 10.280191,9.318835 10.280191,9.266109 10.280144,9.225586 10.330379,9.225389 10.406767,9.225389" style="fill: white" /><polygon type="contour" points="10.576661,9.488803 10.577865,9.565863 10.576661,9.642569 10.576984,9.711102 10.280191,9.711102 10.280191,9.420602 10.576984,9.420602" style="fill: white" /><polygon type="contour" points="10.573445,10.280588 10.575275,10.392263 10.580876,10.580878 10.429355,10.576483 10.368435,10.574738 10.364703,10.574315 10.282444,10.575123 10.280392,10.525913 10.280606,10.520452 10.280452,10.458272 10.280452,10.371817 10.280509,10.280511 10.440478,10.280511" style="fill: white" /><polygon type="contour" points="10.406999,10.13159 10.406743,10.179368 10.28022,10.179368 10.28022,10.126126 10.280144,10.085189 10.330379,10.085139 10.406767,10.085139" style="fill: white" /><polygon type="contour" points="10.350254,9.813448 10.406669,9.813448 10.406541,9.863819 10.406767,9.906315 10.349135,9.906118 10.280144,9.906118 10.280144,9.863115 10.280191,9.812869" style="fill: white" /><polygon type="contour" points="10.179366,9.711102 10.085315,9.711102 10.085315,9.420602 10.179366,9.420602" style="fill: white" /><polygon type="contour" points="10.179688,9.863115 10.179688,9.906118 10.141799,9.906315 10.085137,9.906315 10.085315,9.863818 10.085315,9.813166 10.128511,9.812695 10.179366,9.811956" style="fill: white" /><polygon type="contour" points="10.12851,10.085189 10.179688,10.085189 10.179688,10.128512 10.179365,10.179368 10.138106,10.179368 10.128511,10.179689 10.085187,10.179689 10.085137,10.1418 10.085137,10.085139" style="fill: white" /><polygon type="contour" points="10.179366,10.280222 10.179366,10.406746 10.128511,10.406583 10.085137,10.406769 10.085187,10.349137 10.085187,10.280146 10.12851,10.280146" style="fill: white" /><polygon type="contour" points="9.906313,10.330381 9.906313,10.406769 9.860383,10.406972 9.813447,10.406671 9.813447,10.350256 9.812868,10.280193 9.865592,10.280193 9.906116,10.280146" style="fill: white" /><polygon type="contour" points="9.906116,10.128513 9.906116,10.179689 9.863113,10.179689 9.811955,10.179368 9.812694,10.128513 9.813165,10.085317 9.850489,10.085139 9.906313,10.085139" style="fill: white" /><polygon type="contour" points="9.711101,10.179368 9.4206,10.179368 9.4206,10.085317 9.711101,10.085317" style="fill: white" /><polygon type="contour" points="9.318833,10.280193 9.318254,10.350256 9.318254,10.406671 9.267882,10.406543 9.225387,10.406769 9.225584,10.349137 9.225584,10.280146 9.268586,10.280146" style="fill: white" /><polygon type="contour" points="9.267883,10.085317 9.318534,10.085317 9.319004,10.128512 9.319746,10.179368 9.266899,10.179368 9.225584,10.179689 9.225387,10.1418 9.225387,10.085139" style="fill: white" /><polygon type="contour" points="9.046512,10.128513 9.046512,10.179689 9.003189,10.179689 8.952335,10.179368 8.952335,10.126126 8.952013,10.085189 8.989901,10.085139 9.046563,10.085139" style="fill: white" /><polygon type="contour" points="9.046563,10.330382 9.046563,10.406769 9.000111,10.407002 8.952335,10.406746 8.952335,10.280222 9.005574,10.280222 9.046512,10.280146" style="fill: white" /><polygon type="contour" points="8.851192,10.349178 8.851249,10.458271 8.851092,10.467382 8.851092,10.520453 8.849257,10.575123 8.766997,10.574315 8.763265,10.574738 8.702344,10.576483 8.550824,10.580878 8.556424,10.392263 8.558256,10.280589 8.691222,10.280511 8.851192,10.280511" style="fill: white" />
</svg>
