<svg width="19.131698" height="19.131699">
<polygon type="contour" points="9.673127,9.192465 9.695496,9.192582 9.726936,9.193016 9.748443,9.193637 9.802818,9.194808 9.927278,9.204426 9.928712,9.247895 9.92943,9.268897 9.938476,9.383526 9.939334,9.427519 9.941675,9.53151 9.941807,9.566201 9.939511,9.668032 9.939335,9.703912 9.938476,9.748178 9.929431,9.862806 9.928712,9.883809 9.927278,9.927279 9.802818,9.936897 9.748443,9.938067 9.726935,9.938689 9.695497,9.939122 9.586976,9.941983 9.565501,9.942073 9.458311,9.93924 9.436203,9.939122 9.404764,9.938689 9.383256,9.938067 9.328881,9.936897 9.204423,9.927279 9.202988,9.883809 9.20227,9.862805 9.193224,9.748178 9.192365,9.703912 9.189598,9.600347 9.189475,9.566202 9.192189,9.463951 9.192366,9.427519 9.193224,9.383525 9.20227,9.268898 9.202988,9.247895 9.204423,9.204426 9.328881,9.194807 9.383256,9.193637 9.404764,9.193016 9.436204,9.192582 9.544284,9.189721 9.565501,9.189632" style="fill: white" />
</svg>
