<svg width="19.131698" height="19.131699">
<polygon type="contour" points="12.56719,10.802898 12.567278,10.936154 12.472449,10.936154 12.402208,10.936005 12.359617,10.935903 12.27679,10.935903 12.277028,10.77381 12.277028,10.643601 12.51383,10.641339 12.564851,10.641131" style="fill: white" /><polygon type="contour" points="12.488931,12.277464 12.568268,12.278206 12.56477,12.519006 12.565628,12.541782 12.566658,12.566659 12.514898,12.564678 12.487133,12.564446 12.277028,12.567292 12.277028,12.438332 12.276889,12.276891 12.360925,12.276891 12.468126,12.276609" style="fill: white" /><polygon type="contour" points="11.993146,12.275369 11.993146,12.327128 11.993339,12.392637 11.885261,12.392824 11.741954,12.391841 11.741856,12.353699 11.741856,12.275095 11.824181,12.275095" style="fill: white" /><polygon type="contour" points="11.449107,11.248424 11.449118,11.306302 11.449118,11.44912 11.387695,11.449109 11.248422,11.449109 11.248422,11.387698 11.248372,11.248374 11.333953,11.248374" style="fill: white" /><polygon type="contour" points="11.993222,11.338913 11.993157,11.449246 11.920601,11.44912 11.741954,11.44912 11.741987,11.387697 11.741987,11.248424 11.824182,11.248346 11.993222,11.248269" style="fill: white" /><polygon type="contour" points="12.325074,11.248374 12.392405,11.248374 12.392719,11.329846 12.39184,11.44912 12.353697,11.449246 12.275094,11.449246 12.275094,11.383431 12.27558,11.248269" style="fill: white" /><polygon type="contour" points="12.308737,11.741956 12.39184,11.741956 12.392823,11.885263 12.392636,11.993341 12.327127,11.993147 12.275368,11.993147 12.275368,11.88121 12.275094,11.741858" style="fill: white" /><polygon type="contour" points="11.993157,11.824183 11.993339,11.993341 11.855307,11.993222 11.824181,11.993159 11.741856,11.993159 11.741954,11.920604 11.741954,11.741956 11.824181,11.741858 11.993157,11.741858" style="fill: white" /><polygon type="contour" points="11.449244,11.824184 11.449244,11.993159 11.383429,11.993159 11.248267,11.993223 11.248345,11.824183 11.248422,11.741989 11.3063,11.741956 11.449118,11.741956" style="fill: white" /><polygon type="contour" points="11.449118,12.308737 11.449118,12.391841 11.329843,12.39272 11.248372,12.392407 11.248372,12.325075 11.248267,12.275581 11.338912,12.275581 11.449244,12.275095" style="fill: white" /><polygon type="contour" points="10.805678,12.27703 10.935888,12.27703 10.935902,12.359619 10.936084,12.446328 10.936152,12.472451 10.936152,12.567279 10.669833,12.564405 10.640571,12.564387 10.643446,12.402238 10.64344,12.276891" style="fill: white" /><polygon type="contour" points="10.730144,11.741989 10.935903,11.741989 10.935825,11.824184 10.936118,11.993341 10.64128,11.993341 10.641384,11.885263 10.640662,11.741956" style="fill: white" /><polygon type="contour" points="10.936174,11.333955 10.935902,11.449109 10.851655,11.44912 10.640662,11.44912 10.640605,11.387697 10.641069,11.248374 10.936174,11.248374" style="fill: white" /><polygon type="contour" points="10.936296,10.732433 10.936296,10.936086 10.643549,10.936086 10.644526,10.862035 10.647325,10.833067 10.650085,10.650086 10.862032,10.644528 10.936084,10.643551" style="fill: white" /><polygon type="contour" points="11.449107,10.730145 11.449107,10.935905 11.333953,10.936176 11.248372,10.936176 11.248372,10.64107 11.329844,10.641166 11.449118,10.640663" style="fill: white" /><polygon type="contour" points="11.885261,10.641385 11.993339,10.641282 11.993339,10.936118 11.880074,10.936247 11.741987,10.935905 11.741954,10.851657 11.741954,10.640663" style="fill: white" /><polygon type="contour" points="12.564405,8.461868 12.564387,8.491131 12.402237,8.488256 12.277028,8.488103 12.277028,8.195814 12.325998,8.195705 12.472449,8.19555 12.567278,8.19555" style="fill: white" /><polygon type="contour" points="11.993339,8.490422 11.885261,8.490319 11.741954,8.491041 11.741987,8.401557 11.741987,8.1958 11.824182,8.195878 11.993339,8.195585" style="fill: white" /><polygon type="contour" points="11.449244,7.138545 11.449118,7.211098 11.449118,7.389748 11.387695,7.389715 11.248422,7.389715 11.248345,7.30752 11.248267,7.13848 11.338912,7.13848" style="fill: white" /><polygon type="contour" points="11.449118,6.739862 11.449244,6.778004 11.449244,6.856608 11.383429,6.856608 11.248267,6.856121 11.248372,6.806626 11.248372,6.739298 11.329844,6.738984" style="fill: white" /><polygon type="contour" points="12.487134,6.567258 12.514898,6.567027 12.538884,6.565979 12.566658,6.565045 12.56477,6.612698 12.568268,6.853497 12.488931,6.853919 12.468126,6.855094 12.401936,6.855094 12.277028,6.854673 12.276993,6.729493 12.276993,6.663258 12.276992,6.564705" style="fill: white" /><polygon type="contour" points="11.993339,6.739066 11.993146,6.804575 11.993146,6.856334 11.881209,6.856334 11.741856,6.856608 11.741954,6.822964 11.741954,6.739862 11.885261,6.738879" style="fill: white" /><polygon type="contour" points="11.993222,7.276394 11.993157,7.307519 11.993157,7.389846 11.920602,7.389748 11.741954,7.389748 11.741856,7.307519 11.741856,7.138545 11.824181,7.138545 11.993339,7.138363" style="fill: white" /><polygon type="contour" points="12.392823,7.246441 12.39184,7.389748 12.353698,7.389846 12.275094,7.389846 12.275094,7.307519 12.275368,7.138557 12.327127,7.138557 12.392636,7.138363" style="fill: white" /><polygon type="contour" points="12.308736,7.682585 12.39184,7.682585 12.392719,7.801857 12.392405,7.883331 12.325074,7.883331 12.27558,7.883435 12.27558,7.792789 12.275094,7.682459" style="fill: white" /><polygon type="contour" points="11.993157,7.748272 11.993222,7.883435 11.824182,7.883358 11.741987,7.88328 11.741954,7.825401 11.741954,7.682585 11.824182,7.682459 11.993157,7.682459" style="fill: white" /><polygon type="contour" points="11.449107,7.744006 11.449107,7.88328 11.387696,7.88328 11.248372,7.883331 11.248372,7.797749 11.248422,7.682595 11.3063,7.682585 11.449118,7.682585" style="fill: white" /><polygon type="contour" points="11.449107,8.195799 11.449118,8.280046 11.449118,8.491041 11.329844,8.490538 11.248372,8.490634 11.248372,8.195528 11.333954,8.195528" style="fill: white" /><polygon type="contour" points="10.936084,8.2845 10.936084,8.488153 10.862032,8.487175 10.833065,8.484377 10.650085,8.481617 10.651343,8.316077 10.647325,8.298635 10.644526,8.269668 10.643549,8.195618 10.936296,8.195618" style="fill: white" /><polygon type="contour" points="10.730144,7.682595 10.935903,7.682595 10.936174,7.797749 10.936174,7.883331 10.641069,7.883331 10.641165,7.801857 10.640662,7.682585" style="fill: white" /><polygon type="contour" points="10.936246,7.251625 10.935903,7.389715 10.851655,7.389748 10.640662,7.389748 10.641384,7.246441 10.64128,7.138363 10.936118,7.138363" style="fill: white" /><polygon type="contour" points="10.935902,6.772083 10.935902,6.854911 10.773809,6.854673 10.643599,6.854673 10.641338,6.617871 10.641129,6.566851 10.802895,6.564511 10.936083,6.564259" style="fill: white" /><polygon type="contour" points="8.461866,6.567295 8.49113,6.567314 8.488255,6.729463 8.48826,6.854813 8.326022,6.854673 8.195813,6.854673 8.195799,6.772082 8.195616,6.685375 8.195548,6.659252 8.195548,6.564423" style="fill: white" /><polygon type="contour" points="8.490317,7.246441 8.491039,7.389748 8.401556,7.389715 8.195798,7.389715 8.195876,7.307519 8.195583,7.138363 8.490421,7.138363" style="fill: white" /><polygon type="contour" points="8.483795,8.338307 8.481615,8.481617 8.316076,8.480359 8.298633,8.484377 8.269666,8.487175 8.195616,8.488153 8.195616,8.195618 8.488151,8.195618" style="fill: white" /><polygon type="contour" points="8.490536,7.801857 8.490632,7.883331 8.195526,7.883331 8.195526,7.797749 8.195798,7.682595 8.280045,7.682585 8.491039,7.682585" style="fill: white" /><polygon type="contour" points="7.744004,7.682595 7.883279,7.682595 7.883279,7.744005 7.883329,7.883331 7.797747,7.883331 7.682593,7.88328 7.682583,7.825401 7.682583,7.682585" style="fill: white" /><polygon type="contour" points="7.883356,7.307519 7.883279,7.389715 7.825399,7.389748 7.682583,7.389748 7.682457,7.307519 7.682457,7.138545 7.74827,7.138545 7.883433,7.13848" style="fill: white" /><polygon type="contour" points="7.883329,6.739298 7.883329,6.806626 7.883433,6.856121 7.792788,6.856121 7.682457,6.856608 7.682583,6.822965 7.682583,6.739862 7.801856,6.738984" style="fill: white" /><polygon type="contour" points="7.389746,6.739862 7.389844,6.778004 7.389844,6.856608 7.307518,6.856608 7.138555,6.856334 7.138555,6.804575 7.138362,6.739066 7.246438,6.73888" style="fill: white" /><polygon type="contour" points="7.276392,7.138479 7.307517,7.138545 7.389844,7.138545 7.389746,7.211099 7.389746,7.389748 7.307518,7.389846 7.138543,7.389846 7.138543,7.307519 7.138361,7.138363" style="fill: white" /><polygon type="contour" points="6.854671,6.854672 6.802836,6.854672 6.770775,6.854813 6.663574,6.855094 6.642769,6.853919 6.563433,6.853497 6.56693,6.612697 6.566073,6.589921 6.565043,6.565045 6.616815,6.566992 6.644566,6.567257 6.854671,6.564411" style="fill: white" /><polygon type="contour" points="6.804573,7.138557 6.856332,7.138557 6.856332,7.250493 6.856606,7.389846 6.822962,7.389748 6.73986,7.389748 6.738877,7.24644 6.739062,7.138363" style="fill: white" /><polygon type="contour" points="6.729492,8.195699 6.772081,8.195801 6.854909,8.195801 6.854671,8.357893 6.854671,8.488103 6.617869,8.490365 6.566849,8.490573 6.564509,8.328807 6.564421,8.19555 6.659248,8.19555" style="fill: white" /><polygon type="contour" points="6.856606,7.748272 6.856119,7.883435 6.806624,7.883331 6.739295,7.883331 6.738982,7.801858 6.73986,7.682585 6.778002,7.682459 6.856606,7.682459" style="fill: white" /><polygon type="contour" points="7.211098,7.682585 7.389746,7.682585 7.389714,7.744006 7.389714,7.88328 7.307517,7.883358 7.138478,7.883435 7.138478,7.792789 7.138543,7.682459" style="fill: white" /><polygon type="contour" points="7.389714,8.1958 7.389746,8.280046 7.389746,8.491041 7.246439,8.490319 7.138362,8.490422 7.138362,8.195585 7.251625,8.195456" style="fill: white" /><polygon type="contour" points="7.883329,8.490634 7.801856,8.490538 7.682583,8.491041 7.682593,8.401557 7.682593,8.1958 7.797747,8.195528 7.883329,8.195528" style="fill: white" /><polygon type="contour" points="8.338306,10.647908 8.481615,10.650087 8.487173,10.862035 8.488151,10.936086 8.195616,10.936086 8.195616,10.643551" style="fill: white" /><polygon type="contour" points="7.883329,10.64107 7.883329,10.936176 7.797747,10.936176 7.682593,10.935905 7.682583,10.851656 7.682583,10.640663 7.744003,10.640607" style="fill: white" /><polygon type="contour" points="7.389714,10.730146 7.389714,10.935905 7.307517,10.935825 7.138362,10.936119 7.138362,10.641282 7.246439,10.641385 7.389746,10.640663" style="fill: white" /><polygon type="contour" points="6.729461,10.643447 6.854671,10.643601 6.854671,10.935889 6.8057,10.935999 6.659249,10.936154 6.564421,10.936154 6.567293,10.669835 6.567312,10.640573" style="fill: white" /><polygon type="contour" points="6.856119,11.338913 6.856606,11.449246 6.822963,11.44912 6.73986,11.44912 6.738981,11.329845 6.739294,11.248374 6.806624,11.248374 6.856119,11.248269" style="fill: white" /><polygon type="contour" points="7.307517,11.248345 7.389714,11.248423 7.389746,11.306301 7.389746,11.44912 7.307517,11.449246 7.138543,11.449246 7.138543,11.383431 7.138478,11.248268" style="fill: white" /><polygon type="contour" points="7.883433,12.275581 7.883329,12.325075 7.883329,12.392407 7.801857,12.39272 7.682583,12.39184 7.682457,12.353698 7.682457,12.275095 7.74827,12.275095" style="fill: white" /><polygon type="contour" points="7.389746,12.308738 7.389746,12.391841 7.246439,12.392825 7.138362,12.392638 7.138555,12.327128 7.138555,12.275369 7.250491,12.275369 7.389844,12.275095" style="fill: white" /><polygon type="contour" points="6.854671,12.27703 6.854706,12.402209 6.854706,12.566997 6.644566,12.564446 6.616801,12.564678 6.592816,12.565725 6.565042,12.566659 6.566929,12.519006 6.563433,12.278206 6.642769,12.277464 6.663574,12.276609 6.729764,12.276609" style="fill: white" /><polygon type="contour" points="6.856606,11.824183 6.856332,11.993147 6.804573,11.993147 6.739063,11.993341 6.738877,11.885264 6.73986,11.741956 6.778002,11.741858 6.856606,11.741858" style="fill: white" /><polygon type="contour" points="7.211097,11.741956 7.389746,11.741956 7.389844,11.824183 7.389844,11.993159 7.307518,11.993159 7.138362,11.993341 7.138478,11.855309 7.138543,11.824184 7.138543,11.741858" style="fill: white" /><polygon type="contour" points="7.744004,11.741989 7.883279,11.741989 7.883356,11.824183 7.883433,11.993223 7.792787,11.993223 7.682457,11.993159 7.682583,11.920603 7.682583,11.741956" style="fill: white" /><polygon type="contour" points="7.883329,11.333955 7.883278,11.449109 7.825399,11.44912 7.682583,11.44912 7.682593,11.387697 7.682593,11.248424 7.744003,11.248424 7.883329,11.248374" style="fill: white" /><polygon type="contour" points="8.490536,11.329846 8.491039,11.44912 8.401557,11.449109 8.195798,11.449109 8.195526,11.333956 8.195526,11.248374 8.490632,11.248374" style="fill: white" /><polygon type="contour" points="8.490317,11.885263 8.490421,11.993341 8.195583,11.993341 8.195454,11.880078 8.195798,11.741989 8.280044,11.741957 8.491039,11.741957" style="fill: white" /><polygon type="contour" points="8.357891,12.27703 8.488101,12.27703 8.490361,12.51383 8.490571,12.564851 8.328804,12.567192 8.195615,12.567444 8.195799,12.35962 8.195799,12.276792" style="fill: white" />
</svg>
