<svg width="19.131698" height="19.131699">
<polygon type="contour" points="8.375269,12.22171 8.375269,12.249498 8.37521,12.448053 8.375204,12.468501 8.373103,12.483101 8.372562,12.607025 8.371248,12.740572 8.179614,12.738297 8.084311,12.736464 8.084354,12.720829 8.084354,12.563503 7.840096,12.563594 7.825025,12.563533 7.825025,12.555258 7.825138,12.447972 7.825138,12.42071 7.825025,12.221679 7.844178,12.221679 8.0459,12.221283 8.13482,12.221283" style="fill: white" /><polygon type="contour" points="6.910023,12.221679 6.910023,12.23652 6.91015,12.443782 6.910023,12.563533 6.897761,12.563585 6.683609,12.563489 6.683609,12.736536 6.548883,12.742422 6.38373,12.747971 6.394953,12.464607 6.394719,12.448471 6.458535,12.447874 6.516304,12.447969 6.56821,12.448022 6.568117,12.233939 6.568168,12.221679 6.576442,12.221679 6.69328,12.221551" style="fill: white" /><polygon type="contour" points="6.910421,10.996881 6.910421,11.085802 6.910023,11.306678 6.895181,11.306678 6.70294,11.306563 6.679241,11.306563 6.568169,11.306678 6.568107,11.291606 6.568198,11.047347 6.410872,11.047347 6.395238,11.04739 6.393403,10.95209 6.391222,10.760335 6.524677,10.75914 6.675498,10.756486 6.683649,10.756486 6.683649,10.756496 6.909992,10.75643" style="fill: white" /><polygon type="contour" points="8.129157,10.756814 8.231042,10.756892 8.331773,10.759968 8.371136,10.760567 8.374808,10.90066 8.375559,11.047364 8.375556,11.085802 8.37525,11.270679 8.375278,11.306678 8.13482,11.306861 8.045899,11.306861 7.825025,11.306678 7.825025,11.287523 7.824842,11.085801 7.824842,10.996881 7.825064,10.756449 7.861023,10.756449 8.045899,10.756146 8.078246,10.756142" style="fill: white" /><polygon type="contour" points="6.676736,6.394749 6.683413,6.394947 6.683414,6.401082 6.683405,6.404119 6.683604,6.568212 6.897762,6.568119 6.910023,6.56817 6.910023,6.576444 6.910141,6.683732 6.910151,6.693281 6.910023,6.910026 6.895181,6.910026 6.70294,6.910141 6.702939,6.910141 6.68792,6.910149 6.568169,6.910026 6.568117,6.897763 6.56821,6.683735 6.516303,6.683735 6.458536,6.683571 6.394719,6.683231 6.394953,6.667093 6.389854,6.531656 6.38373,6.383732" style="fill: white" /><polygon type="contour" points="6.910023,7.844179 6.910421,8.045902 6.910421,8.134822 6.909992,8.375271 6.882204,8.375271 6.683649,8.375212 6.663201,8.375206 6.648601,8.373105 6.524677,8.372564 6.39113,8.371251 6.393403,8.179614 6.393546,8.179312 6.395251,8.084321 6.395238,8.084313 6.400563,8.084339 6.405846,8.084313 6.410871,8.084356 6.568198,8.084356 6.568107,7.840097 6.568169,7.825026 6.576443,7.825026 6.683731,7.82514 6.710993,7.82514 6.910023,7.825025" style="fill: white" /><polygon type="contour" points="8.37525,7.825065 8.37525,7.861023 8.375556,8.045901 8.37556,8.078248 8.374888,8.129159 8.374809,8.231045 8.371733,8.331776 8.371136,8.371138 8.112754,8.369173 8.085527,8.375446 8.084337,8.37556 8.045899,8.375558 7.861023,8.375252 7.825025,8.37528 7.824842,8.134822 7.824842,8.045901 7.825025,7.825026 7.844178,7.825026 8.0459,7.824843 8.13482,7.824843" style="fill: white" /><polygon type="contour" points="8.372562,6.524679 8.375216,6.675505 8.375216,6.68365 8.375206,6.68365 8.375269,6.909995 8.13482,6.910422 8.045899,6.910422 7.825025,6.910026 7.825025,6.895184 7.825138,6.702941 7.825138,6.679243 7.825025,6.568171 7.840096,6.568109 8.084354,6.5682 8.084354,6.410874 8.084311,6.39524 8.179613,6.393404 8.371367,6.391224" style="fill: white" /><polygon type="contour" points="12.736747,6.667093 12.736981,6.683231 12.673163,6.683571 12.615394,6.683735 12.563488,6.683681 12.563582,6.897762 12.563529,6.910025 12.555256,6.910025 12.447969,6.910142 12.43842,6.910152 12.221675,6.910025 12.221675,6.895183 12.221549,6.687827 12.221677,6.568171 12.233937,6.568119 12.448091,6.568213 12.448091,6.395169 12.582816,6.389281 12.747971,6.383732" style="fill: white" /><polygon type="contour" points="10.952087,6.393404 11.047388,6.39524 11.047345,6.410874 11.047345,6.5682 11.291604,6.568109 11.306676,6.568171 11.306676,6.576445 11.306561,6.683733 11.306561,6.710994 11.306676,6.910025 11.28752,6.910025 11.0858,6.910422 10.996879,6.910422 10.756429,6.909995 10.756429,6.882204 10.756489,6.68365 10.756496,6.663198 10.758598,6.648603 10.759138,6.524679 10.760452,6.391132" style="fill: white" /><polygon type="contour" points="11.306676,7.825026 11.306676,7.84418 11.306858,8.045901 11.306858,8.134822 11.306637,8.375252 11.270678,8.375252 11.0858,8.375558 11.047363,8.37556 11.046172,8.375446 10.760565,8.371138 10.762529,8.112754 10.756256,8.085529 10.756141,8.084339 10.756144,8.045901 10.756448,7.861024 10.75642,7.825026 10.996879,7.824843 11.0858,7.824843" style="fill: white" /><polygon type="contour" points="12.42876,7.82514 12.452457,7.82514 12.56353,7.825026 12.563592,7.840097 12.563502,8.084356 12.720827,8.084356 12.736462,8.084313 12.738296,8.179615 12.740477,8.371369 12.607022,8.372564 12.483098,8.373105 12.468416,8.375218 12.44805,8.375218 12.44805,8.375208 12.221708,8.375271 12.22128,8.134822 12.22128,8.045902 12.221677,7.825026 12.236518,7.825026" style="fill: white" /><polygon type="contour" points="12.44805,10.756492 12.468502,10.756498 12.483098,10.758599 12.607022,10.75914 12.74057,10.760454 12.73783,10.951623 12.738153,10.951925 12.73645,11.047338 12.736419,11.047347 12.731137,11.047364 12.725853,11.047389 12.720828,11.047347 12.563502,11.047347 12.563592,11.291606 12.56353,11.306678 12.555257,11.306678 12.447969,11.306563 12.420706,11.306563 12.221677,11.306678 12.221677,11.287522 12.22128,11.085802 12.22128,10.996881 12.221708,10.75643 12.249496,10.75643" style="fill: white" /><polygon type="contour" points="11.0858,10.756146 11.306637,10.756449 11.306858,10.99688 11.306858,11.085801 11.306676,11.306678 11.287521,11.306678 11.085799,11.306861 10.996879,11.306861 10.756448,11.306639 10.756448,11.27068 10.756144,11.085802 10.756141,11.047364 10.756257,11.046173 10.760565,10.760567 10.900657,10.756892 11.002544,10.756814 11.053452,10.756142" style="fill: white" /><polygon type="contour" points="11.306676,12.221678 11.306676,12.23652 11.306561,12.428763 11.306561,12.452462 11.306676,12.563533 11.291604,12.563594 11.047345,12.563503 11.047345,12.720829 11.047388,12.736464 10.952086,12.738298 10.760333,12.740479 10.759139,12.607024 10.758598,12.4831 10.756484,12.46842 10.756484,12.448053 10.756494,12.448053 10.756428,12.22171 10.996879,12.221283 11.0858,12.221283" style="fill: white" /><polygon type="contour" points="12.563531,12.221679 12.563584,12.23394 12.563488,12.447969 12.615394,12.447969 12.673163,12.447874 12.736982,12.448471 12.736748,12.464607 12.741846,12.600047 12.747971,12.747972 12.454519,12.736739 12.44808,12.736546 12.44808,12.563489 12.233938,12.563585 12.221677,12.563533 12.221677,12.555259 12.221548,12.438423 12.221677,12.221679 12.236518,12.221679 12.428759,12.221562 12.443779,12.221552" style="fill: white" />
</svg>
