<svg width="19.131698" height="19.131699">
<polygon type="contour" points="8.96571,11.358097 8.965491,11.429824 8.965483,11.478583 8.965179,11.52572 8.798127,11.525123 8.67191,11.525513 8.67191,11.455787 8.671967,11.289124 8.671951,11.238897 8.965951,11.238897" style="fill: white" /><polygon type="contour" points="8.391939,11.237336 8.391977,11.258577 8.391977,11.35551 8.301194,11.355374 8.29719,11.355399 8.297189,11.355338 8.184322,11.355613 8.165014,11.355556 8.165014,11.237276 8.185863,11.237276 8.272401,11.236967 8.272402,11.236967 8.287791,11.236912" style="fill: white" /><polygon type="contour" points="8.391977,10.756456 8.391625,10.859298 8.39171,10.859298 8.391701,10.863934 8.391939,10.966898 8.374826,10.966898 8.297173,10.966401 8.267768,10.966401 8.165014,10.966688 8.165014,10.945837 8.1653,10.8593 8.1653,10.83041 8.164804,10.739763 8.264307,10.739993 8.272403,10.739993 8.272403,10.740077 8.391977,10.739726" style="fill: white" /><polygon type="contour" points="7.894496,9.516287 7.894496,9.61606 7.8942,9.732762 7.872908,9.73273 7.776183,9.732531 7.776132,9.71038 7.776782,9.566299 7.776132,9.421323 7.776183,9.399173 7.872604,9.399173 7.894439,9.39914" style="fill: white" /><polygon type="contour" points="8.726512,9.399173 8.966994,9.399173 8.966994,9.422242 8.967203,9.526358 8.967203,9.61565 8.966994,9.732531 8.913398,9.732612 8.673647,9.732612 8.673647,9.709351 8.674065,9.526273 8.673883,9.526273 8.673883,9.516517 8.673647,9.399092" style="fill: white" /><polygon type="contour" points="8.391977,9.420897 8.392052,9.526273 8.392052,9.615831 8.391977,9.733195 8.375422,9.733118 8.286506,9.732941 8.267768,9.73297 8.164857,9.732564 8.164857,9.708647 8.164764,9.606 8.164764,9.516288 8.164857,9.399139 8.184176,9.399172 8.272409,9.398741 8.272409,9.39879 8.391977,9.398509" style="fill: white" /><polygon type="contour" points="8.391977,8.966969 8.375422,8.966891 8.286556,8.967361 8.165014,8.967082 8.165014,8.673646 8.185418,8.673672 8.272403,8.673995 8.301194,8.673995 8.391977,8.673547" style="fill: white" /><polygon type="contour" points="7.892617,8.714441 7.892636,8.96576 7.872581,8.965695 7.63202,8.965221 7.60592,8.965221 7.606394,8.712795 7.606444,8.671641 7.875418,8.671641 7.892617,8.67163" style="fill: white" /><polygon type="contour" points="7.894428,8.185866 7.894736,8.272402 7.894736,8.272403 7.89479,8.287835 7.894366,8.39194 7.873124,8.391978 7.776192,8.391978 7.776327,8.301194 7.776301,8.29719 7.77636,8.29719 7.77609,8.184324 7.776147,8.165015 7.894428,8.165015" style="fill: white" /><polygon type="contour" points="7.80698,7.600037 7.892813,7.606553 7.892813,7.892816 7.774549,7.892816 7.741458,7.892908 7.690291,7.892477 7.645004,7.891931 7.643853,7.891647 7.60473,7.891345 7.604829,7.767852 7.598399,7.5984" style="fill: white" /><polygon type="contour" points="8.965179,7.605984 8.965012,7.649064 8.965484,7.65312 8.965484,7.699661 8.965491,7.701879 8.965709,7.773604 8.965951,7.892807 8.671951,7.892807 8.671967,7.871838 8.671967,7.842581 8.67191,7.72356 8.67191,7.606191 8.82507,7.605518" style="fill: white" /><polygon type="contour" points="8.391977,7.776194 8.391977,7.873126 8.391939,7.894368 8.374827,7.894368 8.297173,7.894738 8.297172,7.894738 8.285795,7.894792 8.165014,7.894429 8.165014,7.776148 8.267768,7.776315 8.272396,7.776303 8.272397,7.77637 8.376159,7.776087" style="fill: white" /><polygon type="contour" points="8.39171,8.263875 8.39171,8.272404 8.391625,8.272404 8.391977,8.391978 8.375245,8.391978 8.272404,8.391627 8.272404,8.391712 8.267767,8.391703 8.164804,8.391941 8.1653,8.301291 8.1653,8.267768 8.165014,8.165015 8.185864,8.165015 8.272402,8.165303 8.30129,8.165303 8.391939,8.164806" style="fill: white" /><polygon type="contour" points="8.967317,8.267768 8.967261,8.287637 8.967322,8.301195 8.967201,8.309085 8.96719,8.313032 8.965776,8.353215 8.966968,8.391978 8.673546,8.391978 8.673546,8.375248 8.674047,8.287459 8.673671,8.18542 8.673644,8.165015 8.967079,8.165015" style="fill: white" /><polygon type="contour" points="8.965572,8.712795 8.965218,8.965221 8.715063,8.965694 8.671762,8.965764 8.67191,8.843891 8.67191,8.67191 8.923821,8.671641 8.965639,8.671641" style="fill: white" /><polygon type="contour" points="9.60543,8.674067 9.60543,8.673885 9.615184,8.673885 9.732609,8.673649 9.732528,8.726515 9.732528,8.966995 9.70946,8.966995 9.605343,8.967206 9.516053,8.967206 9.399172,8.966995 9.399091,8.913399 9.399091,8.673649 9.422351,8.673649" style="fill: white" /><polygon type="contour" points="9.732561,8.164859 9.733145,8.252654 9.732969,8.267769 9.732934,8.290928 9.73298,8.301194 9.733193,8.391978 9.710804,8.391978 9.605429,8.392054 9.515871,8.392054 9.398507,8.391978 9.398583,8.375425 9.39876,8.286507 9.398731,8.267769 9.399138,8.164859 9.423055,8.164859 9.525702,8.164765 9.615413,8.164765" style="fill: white" /><polygon type="contour" points="9.732528,7.776184 9.732729,7.87291 9.73276,7.894202 9.709435,7.894202 9.605354,7.894499 9.515641,7.894499 9.398941,7.894202 9.398971,7.87291 9.399172,7.776184 9.421323,7.776134 9.565403,7.776785 9.710376,7.776134" style="fill: white" /><polygon type="contour" points="10.333574,7.606581 10.459791,7.606192 10.459791,7.675916 10.459732,7.84258 10.459748,7.892807 10.165749,7.892807 10.165814,7.872057 10.166209,7.701879 10.166215,7.653121 10.16652,7.605984" style="fill: white" /><polygon type="contour" points="10.839075,8.674021 10.863932,8.673989 10.966687,8.673646 10.966687,8.967082 10.946534,8.967021 10.841086,8.967364 10.739724,8.966969 10.739724,8.673547 10.756453,8.673547" style="fill: white" /><polygon type="contour" points="10.287809,8.67191 10.459791,8.67191 10.46006,8.923821 10.46006,8.96564 10.418906,8.965574 10.166479,8.965221 10.166404,8.919161 10.166061,8.671641" style="fill: white" /><polygon type="contour" points="10.45803,8.185419 10.457652,8.28744 10.458154,8.375248 10.458154,8.391978 10.164733,8.391978 10.164812,8.375424 10.164246,8.268826 10.166128,8.208857 10.164618,8.165015 10.458056,8.165015" style="fill: white" /><polygon type="contour" points="10.834526,8.165303 10.863932,8.165303 10.966687,8.165015 10.966687,8.185866 10.9664,8.272402 10.9664,8.301291 10.966896,8.391941 10.867825,8.391712 10.859295,8.391712 10.859295,8.391627 10.739724,8.391978 10.739724,8.375248 10.739904,8.322414 10.739999,8.267769 10.739761,8.164806 10.756873,8.164806" style="fill: white" /><polygon type="contour" points="10.966687,7.776147 10.966687,7.894429 10.945836,7.894429 10.853376,7.894759 10.848192,7.894777 10.739811,7.894536 10.739776,7.873575 10.739724,7.776194 10.830506,7.776328 10.83451,7.776302 10.83451,7.776362 10.947377,7.77609" style="fill: white" /><polygon type="contour" points="11.533079,7.800843 11.526995,7.891324 11.486694,7.89193 11.441408,7.892477 11.390241,7.892908 11.357149,7.892816 11.238887,7.892816 11.238887,7.606553 11.341385,7.606163 11.533302,7.5984" style="fill: white" /><polygon type="contour" points="11.355385,8.267769 11.355396,8.272397 11.355328,8.272398 11.355615,8.37616 11.355508,8.391978 11.333795,8.391941 11.237334,8.391941 11.237334,8.374828 11.236965,8.297174 11.23691,8.285799 11.237273,8.165015 11.355554,8.165015" style="fill: white" /><polygon type="contour" points="11.257975,8.671652 11.50126,8.671641 11.525255,8.671641 11.525305,8.712795 11.52578,8.965221 11.499679,8.965221 11.259118,8.965695 11.239065,8.96576 11.239065,8.915346 11.238569,8.671639" style="fill: white" /><polygon type="contour" points="11.259096,9.399173 11.355517,9.399173 11.355567,9.421324 11.354919,9.566299 11.355568,9.71038 11.355518,9.732531 11.259096,9.732531 11.237262,9.732564 11.237262,9.708646 11.237204,9.606001 11.237204,9.516287 11.237261,9.39914" style="fill: white" /><polygon type="contour" points="10.756277,9.398585 10.845193,9.398762 10.863931,9.398734 10.966843,9.39914 10.966843,9.423057 10.966934,9.526348 10.966934,9.61606 10.966843,9.732564 10.947523,9.732531 10.85929,9.732963 10.85929,9.732913 10.739724,9.733195 10.739724,9.710806 10.739647,9.606077 10.739648,9.606077 10.739648,9.516517 10.739724,9.398509" style="fill: white" /><polygon type="contour" points="10.458053,9.422352 10.457633,9.606078 10.457816,9.606078 10.457816,9.615831 10.458053,9.732612 10.405187,9.732531 10.164707,9.732531 10.164707,9.709461 10.164498,9.605992 10.164498,9.516701 10.164707,9.399173 10.405187,9.399173 10.458053,9.399092" style="fill: white" /><polygon type="contour" points="9.732527,9.399172 9.733442,9.516702 9.733442,9.615649 9.732528,9.732531 9.615001,9.733445 9.516053,9.733445 9.399172,9.732531 9.398259,9.615649 9.398259,9.516702 9.399172,9.399173 9.516053,9.39826 9.615001,9.39826" style="fill: white" /><polygon type="contour" points="9.732528,10.164709 9.732609,10.218304 9.732609,10.458055 9.709349,10.458055 9.525625,10.457635 9.525625,10.457818 9.515871,10.457818 9.399091,10.458055 9.399172,10.405188 9.399172,10.164709 9.42224,10.164709 9.525711,10.164498 9.615001,10.164498" style="fill: white" /><polygon type="contour" points="10.459791,10.287811 10.459791,10.459794 10.20788,10.460063 10.166061,10.460063 10.166128,10.418909 10.166479,10.166481 10.416635,10.166008 10.459938,10.165938" style="fill: white" /><polygon type="contour" points="10.966687,10.16462 10.966687,10.458058 10.946282,10.458032 10.859294,10.457709 10.830506,10.457709 10.739724,10.458157 10.739724,10.164735 10.756276,10.164813 10.845095,10.164343" style="fill: white" /><polygon type="contour" points="11.259117,10.166008 11.49968,10.166481 11.52578,10.166481 11.525304,10.418909 11.525255,10.460063 11.256282,10.460063 11.239084,10.460074 11.239084,10.417262 11.239065,10.165945" style="fill: white" /><polygon type="contour" points="11.355372,10.830508 11.355397,10.834512 11.355336,10.834513 11.355611,10.947379 11.355554,10.966688 11.237273,10.966688 11.237273,10.945837 11.236914,10.845204 11.23691,10.843887 11.237334,10.739763 11.258575,10.739726 11.355508,10.739726" style="fill: white" /><polygon type="contour" points="11.441408,11.239226 11.486694,11.239772 11.487845,11.240056 11.526969,11.240359 11.526869,11.363849 11.533302,11.533304 11.32472,11.531667 11.238887,11.525152 11.238887,11.238888 11.357149,11.238888 11.390241,11.238796" style="fill: white" /><polygon type="contour" points="10.966687,11.237276 10.966687,11.355556 10.863932,11.355387 10.859303,11.355398 10.859302,11.35533 10.755541,11.355617 10.739724,11.35551 10.739724,11.258577 10.739761,11.237336 10.756872,11.237336 10.845923,11.236912" style="fill: white" /><polygon type="contour" points="10.809297,10.739906 10.863932,10.740001 10.966896,10.739763 10.9664,10.83041 10.9664,10.863933 10.966687,10.966688 10.945836,10.966688 10.859298,10.966401 10.830407,10.966401 10.739761,10.966898 10.739991,10.867394 10.739991,10.859297 10.740075,10.859298 10.739724,10.739726 10.756454,10.739726" style="fill: white" /><polygon type="contour" points="10.458154,10.756455 10.457652,10.844262 10.45803,10.946284 10.458056,10.966688 10.164618,10.966688 10.16468,10.946535 10.164347,10.84393 10.164812,10.756279 10.164733,10.739726 10.458154,10.739726" style="fill: white" /><polygon type="contour" points="10.459732,11.259867 10.459732,11.289123 10.459791,11.408143 10.459791,11.525513 10.30663,11.526186 10.16652,11.52572 10.166688,11.482638 10.166215,11.478583 10.166215,11.432042 10.166208,11.429824 10.165987,11.358098 10.165749,11.238897 10.459748,11.238897" style="fill: white" /><polygon type="contour" points="9.732561,11.237264 9.732528,11.259098 9.732528,11.35552 9.710376,11.35557 9.565403,11.354919 9.421323,11.35557 9.399172,11.35552 9.398972,11.258794 9.398941,11.237503 9.515644,11.237205 9.615416,11.237205" style="fill: white" /><polygon type="contour" points="9.525625,10.73965 9.615185,10.73965 9.733193,10.739726 9.733116,10.756279 9.73294,10.845236 9.732969,10.863934 9.732561,10.966845 9.615414,10.966936 9.515642,10.966936 9.399139,10.966844 9.398555,10.879049 9.398732,10.863933 9.398766,10.840776 9.398721,10.830508 9.398507,10.739726 9.420896,10.739726 9.525625,10.739649" style="fill: white" /><polygon type="contour" points="8.966889,10.756279 8.967354,10.843991 8.967018,10.946535 8.967079,10.966688 8.673644,10.966688 8.673671,10.946284 8.674047,10.844243 8.673546,10.756455 8.673546,10.739726 8.966968,10.739726" style="fill: white" /><polygon type="contour" points="8.712794,10.16613 8.965218,10.166481 8.965293,10.21254 8.965639,10.460063 8.84389,10.459794 8.67191,10.459794 8.671641,10.207882 8.671641,10.166064" style="fill: white" /><polygon type="contour" points="8.391977,10.164735 8.391977,10.458157 8.375246,10.458157 8.29202,10.457679 8.267767,10.457716 8.165014,10.458058 8.165014,10.16462 8.185166,10.164682 8.290642,10.164339" style="fill: white" /><polygon type="contour" points="7.892797,10.213043 7.893132,10.460065 7.873725,10.460052 7.630439,10.460063 7.606444,10.460063 7.606395,10.418909 7.60592,10.166481 7.632019,10.166481 7.874027,10.16589 7.892797,10.165831" style="fill: white" /><polygon type="contour" points="7.797904,10.739763 7.894366,10.739763 7.894366,10.756875 7.89479,10.845884 7.894428,10.966688 7.776147,10.966688 7.776313,10.863934 7.776301,10.859305 7.776368,10.859304 7.776085,10.755543 7.776192,10.739726" style="fill: white" /><polygon type="contour" points="7.774549,11.238888 7.892813,11.238888 7.892813,11.525152 7.790314,11.525541 7.598399,11.533304 7.598621,11.330861 7.604704,11.240379 7.645004,11.239773 7.690291,11.239225 7.741458,11.238796" style="fill: white" />
</svg>
