<svg width="19.131698" height="19.131699">
<polygon type="contour" points="8.866159,8.696839 9.002856,8.700168 9.003949,8.736409 9.004159,8.740104 9.004445,8.788916 9.004616,8.967126 9.004616,9.004618 8.967124,9.004618 8.805019,9.004561 8.701112,9.004561 8.700226,8.957218 8.695272,8.695274" style="fill: white" /><polygon type="contour" points="9.711101,9.300305 9.4206,9.300305 9.4206,9.123544 9.711101,9.123544" style="fill: white" /><polygon type="contour" points="9.711101,9.711102 9.4206,9.711102 9.4206,9.420602 9.711101,9.420602" style="fill: white" /><polygon type="contour" points="10.326679,10.127144 10.430587,10.127144 10.431474,10.174487 10.436428,10.43643 10.265542,10.434865 10.128845,10.431536 10.127751,10.395294 10.127541,10.391599 10.127255,10.342787 10.127085,10.164578 10.127085,10.127087 10.164576,10.127087" style="fill: white" /><polygon type="contour" points="10.008158,10.263897 9.919454,10.264074 9.918538,10.264074 9.851293,10.263795 9.831396,10.263874 9.831375,10.227521 9.828518,10.126577 9.852688,10.126577 9.918537,10.126873 9.919454,10.126872 10.008158,10.126513" style="fill: white" /><polygon type="contour" points="9.711538,10.127144 9.711101,10.212916 9.711101,10.43056 9.632086,10.430578 9.619146,10.430959 9.5655,10.431739 9.53404,10.431535 9.512113,10.430959 9.499234,10.430578 9.4206,10.43056 9.4206,10.126577 9.711291,10.126577" style="fill: white" /><polygon type="contour" points="9.711101,9.919455 9.711286,10.00816 9.4206,10.00816 9.4206,9.831397 9.711101,9.831397" style="fill: white" /><polygon type="contour" points="10.008132,9.918535 10.008132,9.919455 10.008158,10.00816 9.942291,10.00816 9.918535,10.008135 9.830668,10.00816 9.831236,9.919455 9.831246,9.91854 9.831396,9.831397 9.854726,9.831397 9.918538,9.831249 9.919454,9.831239 10.008158,9.830484" style="fill: white" /><polygon type="contour" points="10.163878,9.828536 10.263872,9.831396 10.264073,9.918539 10.264073,9.919456 10.263805,9.988153 10.263896,10.00816 10.164066,10.010369 10.126575,10.010369 10.126575,9.986197 10.126871,9.919454 10.126871,9.918537 10.126575,9.828329" style="fill: white" /><polygon type="contour" points="10.008158,9.711102 9.831396,9.711102 9.831396,9.420602 9.919455,9.420602 10.008158,9.420417" style="fill: white" /><polygon type="contour" points="10.212913,9.420338 10.253542,9.420301 10.343124,9.4204 10.382342,9.420602 10.430447,9.420602 10.430861,9.514556 10.431581,9.566201 10.430796,9.695069 10.430447,9.711102 10.126575,9.711102 10.126575,9.420412 10.127142,9.419902" style="fill: white" /><polygon type="contour" points="10.431473,8.957218 10.430587,9.004561 10.326679,9.004561 10.164576,9.004618 10.127085,9.004618 10.127085,8.967126 10.127255,8.788916 10.127542,8.779438 10.127542,8.740103 10.128845,8.700168 10.265542,8.696839 10.436428,8.695274" style="fill: white" /><polygon type="contour" points="10.227367,9.123544 10.263896,9.123544 10.264073,9.211555 10.264073,9.212471 10.263793,9.280408 10.263872,9.300305 10.22752,9.300326 10.126501,9.300326 10.126501,9.276884 10.12687,9.212471 10.126871,9.211558 10.126575,9.121335" style="fill: white" /><polygon type="contour" points="10.008158,9.147092 10.008132,9.211555 10.008132,9.212475 10.008158,9.301034 9.919454,9.300461 9.918538,9.300452 9.831396,9.300305 9.831396,9.276973 9.831246,9.212471 9.831246,9.211553 9.831191,9.123746 9.854818,9.123746 9.918538,9.123572 9.919454,9.123569 10.008158,9.123544" style="fill: white" /><polygon type="contour" points="9.988152,8.86774 10.008158,8.867806 10.008158,8.904333 10.010366,9.005128 9.986194,9.005128 9.919453,9.004832 9.918537,9.004832 9.828327,9.005128 9.828534,8.967823 9.831396,8.86783 9.918539,8.86763 9.919454,8.86763" style="fill: white" /><polygon type="contour" points="9.597659,8.700169 9.619586,8.700744 9.632466,8.701125 9.711101,8.701143 9.711101,9.005128 9.4206,9.005128 9.4206,8.701143 9.499613,8.701125 9.512554,8.700744 9.566056,8.699965" style="fill: white" /><polygon type="contour" points="9.280405,8.867751 9.300302,8.86783 9.300509,8.904182 9.300509,9.005202 9.276881,9.005202 9.212468,9.004833 9.211555,9.004831 9.121334,9.005128 9.121334,8.967635 9.123542,8.867806 9.211554,8.86763 9.212469,8.86763" style="fill: white" /><polygon type="contour" points="9.00519,9.147092 9.004831,9.211555 9.004829,9.212473 9.005126,9.303185 8.967821,9.303169 8.867828,9.300305 8.867628,9.212471 8.867628,9.211555 8.867738,9.14355 8.867804,9.123544 9.00519,9.123544" style="fill: white" /><polygon type="contour" points="9.212473,9.123569 9.301218,9.123544 9.300461,9.211555 9.300451,9.212472 9.300303,9.300305 9.276972,9.300305 9.212468,9.300452 9.211554,9.300461 9.123542,9.301035 9.123568,9.212475 9.123568,9.211555 9.123542,9.123544 9.189408,9.123544" style="fill: white" /><polygon type="contour" points="9.211553,9.420602 9.300303,9.420602 9.300303,9.711102 9.211553,9.711102 9.123542,9.711287 9.123542,9.420417" style="fill: white" /><polygon type="contour" points="9.005126,9.711292 9.004559,9.711802 8.918787,9.711366 8.878157,9.711403 8.788576,9.711304 8.749357,9.711102 8.701253,9.711102 8.700838,9.617598 8.700118,9.566201 8.700904,9.436713 8.701253,9.420602 8.896691,9.420602 9.005126,9.420412" style="fill: white" /><polygon type="contour" points="9.005126,9.852689 9.00483,9.918537 9.00483,9.919453 9.005126,10.010369 8.904331,10.00816 8.867804,10.00816 8.867628,9.919455 8.867628,9.91854 8.867751,9.851293 8.867828,9.831397 8.904179,9.831376 9.005126,9.828519" style="fill: white" /><polygon type="contour" points="9.300303,9.831397 9.300303,9.854727 9.300451,9.91854 9.300451,9.919458 9.300509,10.007959 9.276881,10.007959 9.212468,10.008132 9.211554,10.008134 9.123542,10.00816 9.123542,9.984611 9.123568,9.919455 9.12357,9.91854 9.123744,9.831376 9.211551,9.831249 9.212469,9.831249" style="fill: white" /><polygon type="contour" points="9.300303,10.16268 9.300303,10.263874 9.212468,10.264074 9.211553,10.264074 9.143548,10.263807 9.123542,10.263898 9.123542,10.126513 9.14709,10.126513 9.211553,10.126872 9.212469,10.126872 9.300509,10.126503" style="fill: white" /><polygon type="contour" points="9.004616,10.164578 9.004445,10.342787 9.004159,10.351933 9.004159,10.3916 9.002856,10.431535 8.866159,10.434864 8.695272,10.43643 8.700226,10.174486 8.701112,10.127144 8.805019,10.127144 8.967124,10.127087 9.004616,10.127087" style="fill: white" />
</svg>
