<svg width="19.131698" height="19.131699">
<polygon type="contour" points="3.18787,2.953569 3.286998,2.953799 3.286611,3.028189 3.286611,3.102969 3.286719,3.105493 3.286685,3.143885 3.286685,3.286686 3.143883,3.286686 3.105492,3.28672 3.028189,3.286611 3.024562,3.286919 2.953693,3.286896 2.953848,3.130053 2.953573,3.007222 2.953573,2.953575 3.186486,2.953332" style="fill: white" /><polygon type="contour" points="6.798713,3.048565 6.788608,3.104146 6.816686,3.286492 6.76619,3.286519 6.537162,3.286474 6.0635,3.286761 5.952407,3.286596 5.922319,3.286803 5.916421,3.286771 5.915884,3.178105 5.915706,3.14399 5.951703,3.144044 5.952406,3.048845 5.991565,3.048915 6.194448,3.048712 6.662961,3.048531 6.678781,3.048497" style="fill: white" /><polygon type="contour" points="5.541457,3.027192 5.541551,3.048852 5.541461,3.142542 5.546918,3.14375 5.547148,3.165041 5.547148,3.286989 5.441803,3.286639 5.369949,3.286358 5.33726,3.286452 5.331053,3.286418 5.32101,3.286282 5.20845,3.286332 5.208506,3.271847 5.208579,3.143792 5.208317,3.10732 5.208659,3.10297 5.208659,3.028189 5.208416,3.024563 5.208394,2.953695 5.324112,2.953423 5.54132,2.953423" style="fill: white" /><polygon type="contour" points="5.952406,3.720427 5.995122,3.720526 6.183861,3.720715 6.263243,3.720715 6.299482,3.72044 6.303834,3.720507 6.337349,3.72055 6.79271,3.720546 6.79321,3.750502 6.788777,3.775678 6.82113,3.894338 6.810822,4.052924 6.082483,4.052942 6.022485,4.053058 5.996117,4.053091 5.954825,4.052998 5.952407,4.052928 5.916421,4.052717 5.916421,3.720215" style="fill: white" /><polygon type="contour" points="5.548156,3.720228 5.548156,4.052728 5.535642,4.05271 5.20842,4.053691 5.208257,3.93858 5.20847,3.720463 5.516542,3.7204 5.534315,3.720185" style="fill: white" /><polygon type="contour" points="4.053689,4.571773 4.053689,4.706034 3.938578,4.706025 3.720361,4.705873 3.720361,4.621991 3.720388,4.510726 3.938578,4.510726 4.05369,4.510613" style="fill: white" /><polygon type="contour" points="4.706032,4.571774 4.705872,4.705873 4.628703,4.705873 4.510512,4.706034 4.510611,4.652079 4.510611,4.510613 4.571772,4.510514 4.706032,4.510514" style="fill: white" /><polygon type="contour" points="4.706024,3.93858 4.706032,4.053691 4.652077,4.053692 4.510611,4.053692 4.510723,3.938581 4.510723,3.72039 4.578134,3.72039 4.705872,3.720362" style="fill: white" /><polygon type="contour" points="4.705872,3.286668 4.621991,3.286668 4.510723,3.286758 4.510723,3.193246 4.510611,3.143952 4.636934,3.143848 4.705872,3.143792" style="fill: white" /><polygon type="contour" points="4.05369,3.143952 4.053346,3.193247 4.053346,3.286757 3.878904,3.286605 3.720462,3.286605 3.720462,3.143804 3.852758,3.143773" style="fill: white" /><polygon type="contour" points="3.938578,3.72039 4.053346,3.72039 4.053346,3.938581 4.05369,4.053692 3.938579,4.053348 3.720388,4.053348 3.720388,3.93858 3.720462,3.720463 3.910053,3.720362" style="fill: white" /><polygon type="contour" points="3.286603,3.878905 3.286755,4.053348 3.193246,4.053348 3.143951,4.053692 3.143956,3.93858 3.143803,3.720463 3.286603,3.720463" style="fill: white" /><polygon type="contour" points="3.193245,4.510726 3.286755,4.510726 3.286666,4.621992 3.286666,4.705873 3.143791,4.705873 3.143847,4.636936 3.143951,4.510613" style="fill: white" /><polygon type="contour" points="3.286757,5.47472 3.286911,5.547164 3.144112,5.547164 3.143982,5.542003 3.04885,5.541553 3.02719,5.541458 3.025587,5.54143 2.953421,5.541322 2.953421,5.324116 2.953693,5.208396 3.028189,5.208661 3.107319,5.208319 3.143791,5.20858 3.187081,5.20858 3.240644,5.208526 3.286795,5.208297" style="fill: white" /><polygon type="contour" points="3.286237,5.915888 3.28677,5.915888 3.286921,5.95045 3.287113,5.951094 3.287114,6.010515 3.287044,6.075064 3.286462,6.816476 3.164054,6.827533 3.048633,6.824819 3.048999,6.335319 3.048765,6.299029 3.048709,6.149843 3.048917,5.980624 3.048844,5.951956 3.130529,5.951956 3.130536,5.950536 3.143105,5.950598 3.143989,5.915709 3.254322,5.915709" style="fill: white" /><polygon type="contour" points="4.052926,5.952408 4.053089,5.99612 4.05299,6.022462 4.053176,6.264298 4.053582,6.500576 4.053367,6.801786 3.788084,6.787212 3.720136,6.791182 3.72079,6.337735 3.72044,6.299484 3.720713,6.263246 3.720524,6.010878 3.720496,5.954827 3.720425,5.952408 3.720214,5.916422 4.052715,5.916422" style="fill: white" /><polygon type="contour" points="4.053522,5.522232 4.053409,5.549108 3.720909,5.549108 3.720955,5.519239 3.720462,5.208471 3.86716,5.208716 4.053689,5.208422" style="fill: white" /><polygon type="contour" points="4.706399,5.543515 4.706415,5.546629 4.510415,5.546629 4.51041,5.542039 4.510512,5.208422 4.571772,5.208422 4.705872,5.208368" style="fill: white" /><polygon type="contour" points="4.70616,5.952409 4.706182,6.003558 4.706044,6.238881 4.705925,6.302273 4.705762,6.338564 4.705762,6.34154 4.705963,6.806284 4.669382,6.807882 4.510143,6.789424 4.510602,6.265184 4.51021,6.022286 4.5102,5.99612 4.510224,5.954828 4.510162,5.952408 4.510226,5.916422 4.706225,5.916422" style="fill: white" /><polygon type="contour" points="5.503652,5.952409 5.503855,5.988726 5.504841,6.18348 5.505012,6.271392 5.505267,6.307775 5.50505,6.336466 5.505335,6.477788 5.505752,6.573476 5.505853,6.79436 5.302017,6.79308 5.208249,6.803722 5.208206,6.463121 5.208288,6.339803 5.20865,6.274667 5.208438,6.003558 5.20841,5.954828 5.208343,5.952408 5.208269,5.916422 5.503564,5.916422" style="fill: white" /><polygon type="contour" points="5.547162,5.208413 5.546918,5.394862 5.54656,5.502752 5.546257,5.502942 5.492894,5.492876 5.50294,5.546259 5.502749,5.546562 5.380959,5.546562 5.208487,5.54715 5.20852,5.542718 5.208443,5.534744 5.208293,5.517948 5.208084,5.510846 5.20857,5.504222 5.208579,5.20858 5.521573,5.208294" style="fill: white" /><polygon type="contour" points="5.547573,4.672186 5.547573,4.705955 5.54341,4.70584 5.208366,4.705873 5.208366,4.628705 5.20842,4.510514 5.520534,4.510534 5.546993,4.510341" style="fill: white" /><polygon type="contour" points="5.996117,4.510201 6.022548,4.510198 6.033885,4.510232 6.825247,4.510558 6.809159,4.620254 6.82151,4.705952 6.489344,4.705896 6.339336,4.705826 6.300648,4.705981 6.238878,4.706046 6.003556,4.706184 5.954825,4.706224 5.952406,4.706162 5.916421,4.706227 5.916421,4.510226 5.952406,4.510162" style="fill: white" /><polygon type="contour" points="6.793077,5.302019 6.794358,5.505855 6.477785,5.505337 6.336464,5.505052 6.307773,5.505269 6.271391,5.505014 6.183477,5.504842 5.988723,5.503857 5.952406,5.503654 5.916421,5.503566 5.916421,5.208272 5.922318,5.208303 5.935312,5.208461 6.003555,5.208441 6.022352,5.208376 6.30226,5.208293 6.803719,5.208251" style="fill: white" /><polygon type="contour" points="15.193122,4.510726 15.411312,4.510726 15.411312,4.578136 15.41134,4.705873 15.193122,4.706025 15.078011,4.706034 15.07801,4.652079 15.07801,4.510613" style="fill: white" /><polygon type="contour" points="12.79494,3.048926 12.831206,3.048697 12.981856,3.04871 13.151073,3.048918 13.179292,3.048845 13.179289,3.130532 13.180465,3.130537 13.1804,3.143653 13.215882,3.143904 13.215337,3.239815 13.215337,3.255073 13.21528,3.286771 13.180787,3.286922 13.180607,3.287115 13.121185,3.287115 13.053316,3.287078 12.340978,3.286556 12.311552,3.167034 12.307419,3.048579" style="fill: white" /><polygon type="contour" points="13.923307,2.953694 13.923042,3.02819 13.923383,3.10732 13.923121,3.143792 13.923121,3.187082 13.923175,3.240645 13.923349,3.286851 13.667866,3.286534 13.662889,3.286797 13.65981,3.286838 13.642593,3.286561 13.616443,3.286688 13.584526,3.286972 13.584526,3.162575 13.584782,3.14375 13.589704,3.14266 13.590148,3.048852 13.590244,3.027192 13.590272,3.025589 13.590379,2.953423 13.807588,2.953423" style="fill: white" /><polygon type="contour" points="13.633978,3.720195 13.643393,3.721077 13.923229,3.720463 13.922985,3.867163 13.92328,4.053691 13.639039,4.053083 13.583544,4.052728 13.583544,3.720228 13.597384,3.720185" style="fill: white" /><polygon type="contour" points="13.21528,4.052717 13.179291,4.052928 13.135578,4.053091 13.10921,4.053058 13.049212,4.052942 12.320874,4.052925 12.342922,3.775677 12.33899,3.720546 12.79435,3.72055 12.827864,3.720506 12.832217,3.72044 12.868452,3.720715 13.120821,3.720525 13.17687,3.720497 13.179292,3.720426 13.21528,3.720214" style="fill: white" /><polygon type="contour" points="13.623733,4.510473 13.633699,4.510752 13.634747,4.510402 13.635402,4.510473 13.92328,4.510514 13.923335,4.628706 13.923335,4.705872 13.588287,4.70584 13.584126,4.705955 13.584126,4.672187 13.584707,4.51034 13.600946,4.510194" style="fill: white" /><polygon type="contour" points="13.21528,4.510226 13.21528,4.706227 13.179291,4.706162 13.12814,4.706184 12.892817,4.706045 12.83105,4.705982 12.79402,4.705878 12.643792,4.705929 12.31019,4.705952 12.290575,4.629177 12.306451,4.510558 13.097811,4.510232 13.109148,4.510198 13.135578,4.510201 13.176871,4.510225 13.179292,4.510162" style="fill: white" /><polygon type="contour" points="13.21528,5.503566 13.179291,5.503654 13.142974,5.503856 12.948219,5.504842 12.860306,5.505014 12.823925,5.50527 12.795236,5.505052 12.653913,5.505338 12.558225,5.505754 12.337341,5.505855 12.336881,5.315083 12.323835,5.208557 12.668352,5.208439 12.791845,5.208472 12.857035,5.208652 13.128138,5.20844 13.196387,5.208461 13.209381,5.208303 13.209714,5.208286 13.21528,5.208272" style="fill: white" /><polygon type="contour" points="14.621537,5.952409 14.621499,5.99612 14.621487,6.022285 14.621098,6.265184 14.621557,6.789425 14.614102,6.78911 14.425738,6.806284 14.425938,6.338563 14.425773,6.302273 14.425654,6.238882 14.425517,6.003558 14.425477,5.954827 14.425539,5.952408 14.425475,5.916422 14.621474,5.916422" style="fill: white" /><polygon type="contour" points="13.923397,5.922319 13.923239,5.935315 13.923262,6.003558 13.923326,6.022355 13.923409,6.302263 13.923451,6.803722 13.829681,6.793079 13.625846,6.79436 13.626363,6.477788 13.626651,6.336466 13.626433,6.307776 13.626687,6.271394 13.626859,6.18348 13.627844,5.988725 13.628046,5.952409 13.628135,5.916422 13.923429,5.916422" style="fill: white" /><polygon type="contour" points="13.923121,5.20858 13.923129,5.504222 13.923615,5.510846 13.923407,5.517948 13.923257,5.534743 13.923179,5.542718 13.923229,5.547177 13.750739,5.546562 13.628949,5.546562 13.628758,5.54626 13.638828,5.492871 13.585441,5.502941 13.585141,5.502752 13.584782,5.394861 13.584536,5.208413 13.610127,5.208295 13.613754,5.208295" style="fill: white" /><polygon type="contour" points="14.621189,5.208422 14.621024,5.541242 14.621076,5.546798 14.425703,5.546798 14.425729,5.543064 14.425829,5.208368 14.502996,5.208368" style="fill: white" /><polygon type="contour" points="14.479624,4.510613 14.62109,4.510613 14.621189,4.571774 14.621189,4.706034 14.559928,4.706034 14.425829,4.705873 14.425829,4.628706 14.42567,4.510514" style="fill: white" /><polygon type="contour" points="14.620977,3.72039 14.620977,3.93858 14.62109,4.053692 14.559928,4.053691 14.42567,4.053691 14.425677,3.93858 14.425829,3.720362 14.509709,3.720362" style="fill: white" /><polygon type="contour" points="14.494765,3.143848 14.62109,3.143952 14.620977,3.193246 14.620977,3.286758 14.509708,3.286668 14.425829,3.286668 14.425829,3.143792" style="fill: white" /><polygon type="contour" points="16.178126,2.953575 16.178126,3.007222 16.177851,3.130052 16.178007,3.286896 16.103511,3.286612 16.028734,3.286612 16.026208,3.28672 15.987815,3.286686 15.845016,3.286686 15.845016,3.143886 15.844981,3.105492 15.845091,3.02819 15.844781,3.024564 15.844702,2.953799 15.94383,2.953568 15.945211,2.953331" style="fill: white" /><polygon type="contour" points="15.411239,3.286605 15.252794,3.286605 15.078354,3.286758 15.078354,3.193247 15.07801,3.143952 15.193122,3.143958 15.411239,3.143804" style="fill: white" /><polygon type="contour" points="15.411239,3.720463 15.41134,3.910055 15.411312,3.93858 15.411312,4.053348 15.193122,4.053348 15.07801,4.053692 15.078354,3.938581 15.078354,3.72039 15.193121,3.72039" style="fill: white" /><polygon type="contour" points="15.98793,3.852761 15.987749,4.053692 15.938453,4.053348 15.844943,4.053348 15.845097,3.878906 15.845097,3.720463 15.987898,3.720463" style="fill: white" /><polygon type="contour" points="15.987852,4.636936 15.987908,4.705873 15.845034,4.705873 15.845034,4.621991 15.844943,4.510726 15.938454,4.510726 15.987749,4.510613" style="fill: white" /><polygon type="contour" points="16.028734,5.208661 16.103511,5.208661 16.107137,5.20842 16.178006,5.208396 16.178279,5.324116 16.178279,5.541322 16.104509,5.541459 16.082847,5.541552 15.987717,5.542003 15.987587,5.547163 15.958698,5.547257 15.844868,5.547257 15.844837,5.504976 15.845091,5.394619 15.845319,5.349514 15.845263,5.32719 15.845368,5.208452 15.859852,5.208508 15.987907,5.20858 16.024382,5.208318" style="fill: white" /><polygon type="contour" points="15.411239,5.208471 15.410913,5.527653 15.410789,5.549108 15.07829,5.549108 15.078176,5.522232 15.078011,5.208422 15.193122,5.208258" style="fill: white" /><polygon type="contour" points="15.411275,5.952408 15.411174,6.010879 15.410986,6.263246 15.411262,6.299484 15.410911,6.337735 15.411564,6.791182 15.388238,6.791912 15.343615,6.787212 15.195762,6.810053 15.078335,6.801786 15.07812,6.500577 15.078525,6.264297 15.07871,6.022461 15.078611,5.99612 15.078703,5.954828 15.078774,5.952408 15.078985,5.916422 15.411486,5.916422" style="fill: white" /><polygon type="contour" points="15.987655,5.951706 16.082856,5.952409 16.082784,5.980625 16.082991,6.149842 16.082935,6.299029 16.083067,6.335687 16.082726,6.455178 16.083067,6.824819 15.938309,6.825142 15.845103,6.816686 15.844904,6.504979 15.844872,6.358902 15.844822,6.358901 15.844838,6.205141 15.844834,6.186181 15.84484,6.18618 15.844866,5.95398 15.844856,5.952409 15.844898,5.922319 15.844929,5.916422 15.953594,5.915888 15.987712,5.915709" style="fill: white" /><polygon type="contour" points="16.083204,12.452304 16.083138,12.789546 16.082771,12.827578 16.082712,12.937 16.082788,13.140132 16.082856,13.179745 15.987654,13.179745 15.987711,13.215994 15.876833,13.21545 15.844928,13.215282 15.844392,13.21544 15.844302,13.212168 15.84495,13.150539 15.844797,13.120822 15.84502,13.101195 15.845007,13.086482 15.844556,12.983246 15.844652,12.877332 15.844897,12.731265 15.845145,12.340981 15.926085,12.345187 16.083137,12.332419" style="fill: white" /><polygon type="contour" points="15.343615,12.344492 15.411563,12.340522 15.41091,12.793968 15.411261,12.832219 15.410985,12.868455 15.411173,13.120822 15.411203,13.176872 15.411275,13.179295 15.411486,13.215282 15.078985,13.215282 15.078774,13.179295 15.078611,13.135579 15.07871,13.10924 15.078524,12.867405 15.078119,12.631127 15.078333,12.329917" style="fill: white" /><polygon type="contour" points="14.621557,12.34228 14.621097,12.866519 14.621489,13.109415 14.621501,13.135579 14.621477,13.176873 14.621538,13.179294 14.621474,13.215282 14.425475,13.215282 14.425539,13.179294 14.425518,13.128142 14.425654,12.892819 14.425773,12.829427 14.425938,12.790163 14.425738,12.325419 14.462319,12.323822" style="fill: white" /><polygon type="contour" points="13.923264,12.668354 13.923231,12.791847 13.92305,12.857037 13.923262,13.128141 13.923239,13.196388 13.923396,13.209385 13.923414,13.209717 13.923429,13.215282 13.628135,13.215282 13.628047,13.179295 13.627843,13.142975 13.626859,12.948221 13.626686,12.860307 13.626432,12.823928 13.626651,12.795237 13.626363,12.653916 13.625947,12.558228 13.625847,12.337342 13.816616,12.336883 13.923145,12.323837" style="fill: white" /><polygon type="contour" points="13.923178,13.588986 13.923256,13.59696 13.923407,13.613756 13.923615,13.620858 13.923129,13.62748 13.923121,13.923123 13.610127,13.923408 13.584536,13.92329 13.584782,13.736842 13.585141,13.628952 13.585441,13.628761 13.638832,13.638807 13.628758,13.585444 13.628949,13.585143 13.750739,13.585143 13.923211,13.584555" style="fill: white" /><polygon type="contour" points="14.62121,13.613755 14.621157,13.629624 14.621384,13.635736 14.621188,13.923282 14.559927,13.923282 14.425829,13.923336 14.4253,13.58819 14.425284,13.585075 14.621285,13.585075" style="fill: white" /><polygon type="contour" points="15.410745,13.612464 15.411918,13.638963 15.410812,13.643481 15.411239,13.923233 15.264538,13.922987 15.078011,13.923282 15.078175,13.609471 15.078289,13.582596 15.41079,13.582596" style="fill: white" /><polygon type="contour" points="15.987588,13.584539 15.987717,13.589701 16.082847,13.59015 16.104508,13.590245 16.106112,13.590274 16.178279,13.59038 16.178279,13.807587 16.178007,13.923308 16.103511,13.923043 16.024382,13.923385 15.987907,13.923123 15.944617,13.923123 15.891054,13.923177 15.844904,13.923407 15.845253,13.658105 15.844868,13.584446 15.958698,13.584446" style="fill: white" /><polygon type="contour" points="16.178007,15.844807 16.177851,16.001651 16.178126,16.124482 16.178126,16.178128 15.945211,16.178372 15.94383,16.178134 15.844702,16.177904 15.845089,16.103513 15.845089,16.028736 15.844981,16.02621 15.845016,15.987816 15.845016,15.845018 15.987815,15.845018 16.026208,15.844984 16.103511,15.845092 16.107137,15.844784" style="fill: white" /><polygon type="contour" points="15.987743,15.193122 15.987897,15.41124 15.913142,15.411241 15.845097,15.411241 15.845097,15.252795 15.844943,15.078354 15.938454,15.078354 15.987749,15.078011" style="fill: white" /><polygon type="contour" points="15.987852,14.494766 15.987749,14.62109 15.938454,14.620978 15.844943,14.620978 15.845034,14.509711 15.845034,14.42583 15.987908,14.42583" style="fill: white" /><polygon type="contour" points="15.193122,14.425679 15.41134,14.42583 15.41134,14.50971 15.411312,14.620978 15.193121,14.620978 15.07801,14.62109 15.078011,14.559929 15.078011,14.425671" style="fill: white" /><polygon type="contour" points="14.62109,14.479625 14.62109,14.62109 14.559928,14.621189 14.42567,14.621189 14.42567,14.559928 14.425828,14.42583 14.502995,14.42583 14.621189,14.425671" style="fill: white" /><polygon type="contour" points="14.620977,15.193122 14.620977,15.411313 14.553566,15.411313 14.425829,15.411343 14.425677,15.193121 14.42567,15.078012 14.479623,15.078011 14.62109,15.078011" style="fill: white" /><polygon type="contour" points="15.193122,15.078354 15.411312,15.078354 15.411312,15.193121 15.411239,15.41124 15.221647,15.411343 15.193122,15.411313 15.078354,15.411313 15.078354,15.193121 15.07801,15.078011" style="fill: white" /><polygon type="contour" points="15.252794,15.845098 15.411239,15.845098 15.411239,15.9879 15.278941,15.987931 15.07801,15.987752 15.078354,15.938456 15.078354,15.844945" style="fill: white" /><polygon type="contour" points="14.620977,15.938457 14.62109,15.987752 14.494765,15.987854 14.425829,15.98791 14.425829,15.845036 14.50971,15.845036 14.620977,15.844945" style="fill: white" /><polygon type="contour" points="13.215279,15.84482 13.215812,15.953596 13.215991,15.987713 13.179991,15.987658 13.179292,16.082858 13.151119,16.08278 12.982031,16.082962 12.831206,16.083006 12.794939,16.082777 12.675371,16.082823 12.307419,16.083124 12.341631,15.859139 12.340947,15.845155 12.358627,15.845155 13.148832,15.8448 13.177462,15.844778 13.246527,15.844751" style="fill: white" /><polygon type="contour" points="13.689896,15.845065 13.759094,15.845239 13.794437,15.84525 13.800646,15.845283 13.810691,15.845421 13.923251,15.845371 13.923194,15.859855 13.923121,15.98791 13.923383,16.024382 13.923042,16.028736 13.923042,16.103512 13.923281,16.10714 13.923307,16.178009 13.807588,16.178281 13.590379,16.178281 13.590244,16.104511 13.590149,16.082849 13.590237,15.989161 13.584782,15.987953 13.584552,15.966662 13.584552,15.844715" style="fill: white" /><polygon type="contour" points="13.923443,15.193121 13.92323,15.41124 13.615159,15.411303 13.597384,15.411518 13.583544,15.411476 13.583544,15.078974 13.639039,15.078621 13.92328,15.078012" style="fill: white" /><polygon type="contour" points="13.17687,15.078705 13.179292,15.078775 13.21528,15.078987 13.21528,15.411488 13.179292,15.411276 13.148833,15.411176 13.009607,15.410988 12.868453,15.410988 12.832217,15.411263 12.827864,15.411196 12.794351,15.411153 12.338992,15.411156 12.338492,15.3812 12.342924,15.356024 12.310569,15.237364 12.320875,15.078779 13.049211,15.078762 13.109211,15.078643 13.135578,15.078612" style="fill: white" /><polygon type="contour" points="13.600946,14.42551 13.923335,14.42583 13.923335,14.502996 13.92328,14.621189 13.644406,14.621155 13.611167,14.621169 13.584707,14.621362 13.584707,14.425363" style="fill: white" /><polygon type="contour" points="13.21528,14.621477 13.179292,14.621541 13.135577,14.621504 13.109148,14.621507 13.09781,14.621473 12.306451,14.621146 12.322538,14.511449 12.31019,14.425752 12.642355,14.425807 12.792363,14.425878 12.83105,14.42572 12.892817,14.425657 13.128139,14.42552 13.17687,14.425479 13.179292,14.425542 13.21528,14.425478" style="fill: white" /><polygon type="contour" points="12.653913,13.626366 12.795236,13.626652 12.823925,13.626435 12.860306,13.626691 12.948218,13.626862 13.142974,13.627847 13.179291,13.628049 13.21528,13.628138 13.21528,13.923431 13.179291,13.923356 13.12814,13.923263 12.892818,13.923084 12.857034,13.923052 12.791845,13.923233 12.668353,13.923265 12.323834,13.923146 12.336881,13.816618 12.33734,13.625849" style="fill: white" /><polygon type="contour" points="6.793077,13.829684 6.803719,13.923453 6.46312,13.923496 6.339802,13.923414 6.274665,13.923052 6.003555,13.923263 5.954824,13.923291 5.952407,13.923356 5.916421,13.92343 5.916421,13.628138 5.952406,13.62805 5.988723,13.627846 6.183477,13.626862 6.271391,13.62669 6.307773,13.626435 6.336463,13.626652 6.477786,13.626365 6.573473,13.625949 6.794358,13.625849" style="fill: white" /><polygon type="contour" points="5.315081,12.336883 5.505853,12.337342 5.505335,12.653915 5.50505,12.795237 5.505267,12.823928 5.505013,12.860307 5.504841,12.948221 5.503856,13.142975 5.503653,13.179295 5.503564,13.215282 5.208269,13.215282 5.208343,13.179294 5.208439,13.128142 5.208617,12.89282 5.208651,12.857037 5.20847,12.791847 5.208437,12.668354 5.208555,12.323837" style="fill: white" /><polygon type="contour" points="4.705761,12.790162 4.705925,12.829427 4.706044,12.89282 4.706182,13.128141 4.706223,13.176872 4.70616,13.179294 4.706224,13.215282 4.510226,13.215282 4.510162,13.179294 4.5102,13.135579 4.51021,13.109415 4.510602,12.866519 4.510143,12.34228 4.517598,12.342594 4.705963,12.325419" style="fill: white" /><polygon type="contour" points="4.053366,12.329916 4.053582,12.631127 4.053176,12.867405 4.05299,13.10924 4.053089,13.13558 4.052996,13.176872 4.052926,13.179295 4.052715,13.215282 3.720214,13.215282 3.720424,13.179295 3.720524,13.120822 3.720714,12.868454 3.720439,12.832219 3.72079,12.793968 3.720136,12.340522 3.74346,12.339793 3.788085,12.344492 3.93594,12.321652" style="fill: white" /><polygon type="contour" points="3.205616,12.345187 3.286555,12.340895 3.286566,12.459987 3.286876,13.177309 3.28674,13.321363 3.286797,13.215281 3.178105,13.215813 3.143989,13.215994 3.144043,13.179992 3.048844,13.179295 3.048914,13.140131 3.04871,12.93725 3.048529,12.468135 3.048496,12.452304 3.048563,12.332419" style="fill: white" /><polygon type="contour" points="3.286863,13.626726 3.286608,13.737085 3.28638,13.782188 3.286417,13.800648 3.286331,13.923251 3.271845,13.923194 3.14379,13.923122 3.107319,13.923386 3.102966,13.923043 3.028189,13.923043 3.024563,13.923282 2.953693,13.923308 2.953421,13.807587 2.953421,13.590379 3.02719,13.590245 3.04885,13.590149 3.143968,13.590241 3.144111,13.584539 3.286911,13.584539" style="fill: white" /><polygon type="contour" points="4.053522,13.609472 4.053689,13.923282 3.938578,13.923445 3.720462,13.923232 3.720785,13.60405 3.720909,13.582596 4.053408,13.582596" style="fill: white" /><polygon type="contour" points="4.706415,13.585075 4.706489,13.613755 4.705872,13.923336 4.628703,13.923336 4.510512,13.923282 4.510673,13.590461 4.510622,13.584906 4.529676,13.584808" style="fill: white" /><polygon type="contour" points="5.380959,13.585143 5.502749,13.585143 5.50294,13.585445 5.49289,13.638803 5.546258,13.628761 5.54656,13.628952 5.546918,13.736841 5.547162,13.923289 5.521573,13.923408 5.517946,13.923408 5.208579,13.923123 5.20857,13.627479 5.208084,13.620857 5.208292,13.613756 5.208443,13.59696 5.20852,13.588987 5.20847,13.584529" style="fill: white" /><polygon type="contour" points="5.952406,14.425542 6.003555,14.425521 6.238878,14.425657 6.300648,14.425721 6.33768,14.425826 6.487907,14.425775 6.82151,14.425752 6.841126,14.502527 6.825247,14.621146 6.033886,14.621473 6.022548,14.621507 5.996117,14.621503 5.954825,14.62148 5.952406,14.621541 5.916421,14.621477 5.916421,14.425478" style="fill: white" /><polygon type="contour" points="5.546993,14.621362 5.520533,14.621169 5.487293,14.621155 5.20842,14.621189 5.208366,14.502996 5.208366,14.42583 5.530753,14.42551 5.546993,14.425363" style="fill: white" /><polygon type="contour" points="5.535641,15.078991 5.548156,15.078974 5.548156,15.411476 5.534315,15.411518 5.516541,15.411304 5.20847,15.41124 5.208715,15.26454 5.20842,15.078012" style="fill: white" /><polygon type="contour" points="6.022484,15.078643 6.082484,15.078762 6.810822,15.07878 6.788776,15.356024 6.792708,15.411156 6.337349,15.411153 6.303833,15.411197 6.299481,15.411263 6.263244,15.410989 6.010875,15.411176 5.954824,15.411205 5.952407,15.411276 5.916421,15.411488 5.916421,15.078987 5.952406,15.078775 5.996118,15.078612" style="fill: white" /><polygon type="contour" points="5.981162,15.844953 6.010876,15.8448 6.022367,15.844814 6.044489,15.845037 6.105984,15.845064 6.246687,15.844677 6.424925,15.844974 6.432623,15.845181 6.438317,15.845054 6.443937,15.845092 6.816473,15.84524 6.788608,16.027556 6.798713,16.083139 6.678699,16.083124 6.341779,16.082763 6.30412,16.082775 6.194698,16.082714 5.991566,16.082789 5.952407,16.082858 5.952407,16.049058 5.951953,15.987658 5.915815,15.9878 5.916363,15.87663 5.915815,15.87663 5.915885,15.844931 5.915662,15.844394 5.918853,15.844304" style="fill: white" /><polygon type="contour" points="5.547174,15.844732 5.547174,15.969127 5.546918,15.987953 5.541461,15.989161 5.541551,16.082849 5.541456,16.104511 5.541428,16.106114 5.54132,16.178281 5.324112,16.178282 5.208394,16.17801 5.208659,16.103512 5.208317,16.024382 5.208579,15.98791 5.208579,15.944621 5.208525,15.891058 5.208351,15.844852 5.542206,15.844687" style="fill: white" /><polygon type="contour" points="4.62199,15.845036 4.705872,15.845036 4.705872,15.987911 4.636934,15.987854 4.510611,15.987752 4.510723,15.938457 4.510723,15.844945" style="fill: white" /><polygon type="contour" points="4.053346,15.938456 4.05369,15.987752 3.938578,15.987746 3.720462,15.9879 3.720462,15.845098 3.878904,15.845098 4.053346,15.844945" style="fill: white" /><polygon type="contour" points="4.053346,15.193121 4.053346,15.411313 3.938579,15.411313 3.720462,15.41124 3.720361,15.221648 3.720388,15.193121 3.720388,15.078354 3.938578,15.078354 4.05369,15.078011" style="fill: white" /><polygon type="contour" points="4.571771,15.078012 4.706032,15.078012 4.706024,15.193121 4.705871,15.411343 4.621991,15.411343 4.510723,15.411313 4.510723,15.193121 4.510611,15.078011" style="fill: white" /><polygon type="contour" points="4.705872,14.425829 4.705872,14.502996 4.706032,14.621189 4.652077,14.62109 4.510611,14.62109 4.510512,14.559928 4.510512,14.425671 4.571772,14.425671" style="fill: white" /><polygon type="contour" points="4.05369,14.479625 4.05369,14.62109 3.938579,14.620978 3.720388,14.620978 3.720388,14.553568 3.720361,14.42583 3.938578,14.425679 4.053689,14.425671" style="fill: white" /><polygon type="contour" points="3.286666,14.50971 3.286756,14.620978 3.193245,14.620978 3.143951,14.62109 3.143847,14.494766 3.143791,14.42583 3.286666,14.42583" style="fill: white" /><polygon type="contour" points="3.193245,15.078354 3.286755,15.078354 3.286603,15.252795 3.286603,15.41124 3.143803,15.41124 3.143772,15.278943 3.143951,15.078011" style="fill: white" /><polygon type="contour" points="3.028188,15.845092 3.102966,15.845092 3.105492,15.844984 3.143883,15.845018 3.286685,15.845018 3.286685,15.987817 3.286719,16.02621 3.286611,16.103513 3.286918,16.10714 3.286998,16.177904 3.187869,16.178134 3.186486,16.178372 2.953573,16.178128 2.953573,16.124482 2.953848,16.001651 2.953693,15.844807" style="fill: white" />
</svg>
