<svg width="19.131698" height="19.131699">
<polygon type="contour" points="7.788005,7.735853 8.016565,7.735955 8.016565,7.739491 8.016554,7.750203 8.016697,7.939927 8.016697,8.016698 7.826187,8.016698 7.736196,8.016811 7.735851,7.788007 7.73559,7.780937 7.734752,7.76655 7.733967,7.73397" style="fill: white" /><polygon type="contour" points="8.675058,8.637583 8.67507,8.675071 8.612097,8.675071 8.579857,8.67506 8.580029,8.621122 8.580029,8.580031 8.63758,8.579859 8.675058,8.579859" style="fill: white" /><polygon type="contour" points="8.675837,8.983474 8.675837,9.081949 8.612133,9.081949 8.580135,9.082013 8.579857,8.904334 8.579857,8.788871 8.637579,8.788871 8.67507,8.788819" style="fill: white" /><polygon type="contour" points="8.675837,9.21168 8.67507,9.285624 8.674979,9.323359 8.620175,9.323286 8.580029,9.323158 8.580135,9.25513 8.580135,9.211372 8.638568,9.211372" style="fill: white" /><polygon type="contour" points="9.08172,9.28645 9.081819,9.32349 8.901566,9.323359 8.788677,9.323359 8.78852,9.254268 8.788653,9.211636 9.08172,9.211636" style="fill: white" /><polygon type="contour" points="9.322989,9.275956 9.322989,9.323286 9.254,9.32349 9.211489,9.32349 9.211489,9.254268 9.211634,9.211636 9.253999,9.211491 9.323221,9.211491" style="fill: white" /><polygon type="contour" points="10.551843,10.456644 10.551671,10.510581 10.551671,10.551673 10.494119,10.551845 10.456643,10.551845 10.456643,10.494121 10.456631,10.456633 10.519603,10.456633" style="fill: white" /><polygon type="contour" points="9.920271,10.968063 9.92001,11.008148 9.878618,11.008213 9.808156,11.008213 9.808415,10.94689 9.808543,10.90219 9.876573,10.90216 9.920331,10.90216" style="fill: white" /><polygon type="contour" points="9.92001,11.114415 9.920067,11.190437 9.920067,11.227158 9.877433,11.227243 9.808415,11.227278 9.808156,11.15567 9.808156,11.114393 9.878618,11.114393" style="fill: white" /><polygon type="contour" points="10.343263,11.190398 10.343263,11.301922 10.343272,11.347856 10.343272,11.395571 10.273283,11.396069 10.051271,11.397437 10.050329,11.335075 10.050329,11.27369 10.050435,11.268137 10.050363,11.19089 10.050033,11.115006 10.343582,11.115006" style="fill: white" /><polygon type="contour" points="10.34299,10.93715 10.343323,11.008189 10.049546,11.008189 10.049862,10.937036 10.049962,10.90216 10.227644,10.901998 10.342832,10.901998" style="fill: white" /><polygon type="contour" points="10.51058,10.90219 10.551671,10.90219 10.551971,10.968063 10.551971,11.00818 10.492901,11.00818 10.45677,11.008066 10.45677,10.968063 10.456643,10.901998" style="fill: white" /><polygon type="contour" points="10.551971,11.114447 10.551671,11.179274 10.551671,11.227314 10.515993,11.227166 10.456631,11.226952 10.45677,11.150388 10.45547,11.114328 10.519921,11.114328" style="fill: white" /><polygon type="contour" points="11.395849,11.343695 11.396111,11.350766 11.396948,11.365152 11.397733,11.397735 11.343694,11.395851 11.115135,11.39575 11.115135,11.392211 11.115146,11.3815 11.115003,11.191776 11.115003,11.115006 11.305512,11.115006 11.395504,11.114894" style="fill: white" /><polygon type="contour" points="11.008186,11.227033 10.968061,11.227048 10.902189,11.227314 10.902043,11.156687 10.902043,11.114447 10.96806,11.114447 11.008186,11.114305" style="fill: white" /><polygon type="contour" points="11.008177,10.968064 11.008186,11.008189 10.97345,11.008066 10.968061,11.00818 10.902043,11.00818 10.902189,10.947812 10.902189,10.90219 10.96806,10.902044 11.008177,10.902044" style="fill: white" /><polygon type="contour" points="11.179271,10.90219 11.227313,10.90219 11.227324,10.941129 11.227032,11.008189 11.114303,11.008189 11.114303,10.935817 11.114444,10.902044" style="fill: white" /><polygon type="contour" points="11.227103,10.494121 11.227313,10.551673 11.156684,10.551972 11.114444,10.551972 11.114444,10.492901 11.114406,10.456772 11.189507,10.456633 11.226951,10.456633" style="fill: white" /><polygon type="contour" points="10.968061,10.456772 11.008064,10.456772 11.008177,10.492901 11.008177,10.551972 10.947811,10.551673 10.902189,10.551673 10.901997,10.494121 10.901997,10.456645" style="fill: white" /><polygon type="contour" points="11.008186,10.343325 10.937149,10.342992 10.901997,10.342834 10.90216,10.164281 10.90216,10.049965 10.96806,10.049673 11.008186,10.049548" style="fill: white" /><polygon type="contour" points="11.19039,10.050197 11.395813,10.050197 11.395708,10.150524 11.395527,10.343497 11.285372,10.343497 11.189883,10.343246 11.114975,10.343565 11.114975,10.145753 11.114832,10.049874" style="fill: white" /><polygon type="contour" points="11.008211,9.808416 11.008211,9.878879 11.008186,9.921488 10.937036,9.921592 10.90216,9.920333 10.902189,9.856886 10.902189,9.808545 10.968061,9.808273" style="fill: white" /><polygon type="contour" points="11.18024,9.808713 11.227276,9.808713 11.227241,9.877702 11.227156,9.920069 11.190435,9.920069 11.114412,9.920012 11.11439,9.878879 11.11439,9.808416" style="fill: white" /><polygon type="contour" points="11.227157,9.211636 11.227242,9.254268 11.227277,9.323285 11.155668,9.323547 11.11439,9.323547 11.11439,9.253084 11.114325,9.211398 11.190188,9.211332" style="fill: white" /><polygon type="contour" points="11.008211,9.253084 11.008211,9.323547 10.946889,9.323285 10.902189,9.323158 10.90216,9.255129 10.90216,9.211372 10.96806,9.211431 11.008186,9.210216" style="fill: white" /><polygon type="contour" points="11.008186,9.082155 10.937037,9.081841 10.90216,9.082013 10.901997,8.904334 10.901997,8.788871 10.968061,8.788561 11.008186,8.788379" style="fill: white" /><polygon type="contour" points="11.189883,8.788459 11.285372,8.788208 11.395527,8.788208 11.395708,8.98118 11.395813,9.081507 11.190391,9.081507 11.114832,9.081828 11.114975,8.985949 11.114975,8.78814" style="fill: white" /><polygon type="contour" points="11.008177,8.638802 11.008064,8.674932 10.968061,8.674933 10.901997,8.67506 10.902189,8.621122 10.902189,8.580031 10.96806,8.579732 11.008177,8.579732" style="fill: white" /><polygon type="contour" points="11.179271,8.580031 11.227313,8.580031 11.227165,8.615708 11.226951,8.675071 11.150385,8.674932 11.114325,8.676233 11.114325,8.61178 11.114444,8.579732" style="fill: white" /><polygon type="contour" points="11.396111,7.780936 11.395849,7.788008 11.395504,8.016811 11.114891,8.016811 11.114891,7.999274 11.115135,7.739491 11.115135,7.735955 11.343695,7.735853 11.397733,7.73397" style="fill: white" /><polygon type="contour" points="11.008186,7.90467 11.008186,8.017398 10.935816,8.017398 10.902043,8.017256 10.902189,7.952429 10.902189,7.90439 10.941127,7.904378" style="fill: white" /><polygon type="contour" points="11.227046,8.163639 11.227313,8.229514 11.156684,8.229659 11.114444,8.229659 11.114444,8.16364 11.114303,8.123516 11.227032,8.123516" style="fill: white" /><polygon type="contour" points="11.008186,8.195886 11.008177,8.229659 10.94781,8.229514 10.902189,8.229514 10.902043,8.163639 10.902043,8.123525 10.968061,8.123525 11.008186,8.123516" style="fill: white" /><polygon type="contour" points="9.921485,8.123516 9.92159,8.194666 9.920331,8.229544 9.856885,8.229514 9.808543,8.229514 9.808272,8.16364 9.808156,8.12349 9.878618,8.12349" style="fill: white" /><polygon type="contour" points="9.877434,7.90446 9.920067,7.904544 9.920067,7.941264 9.92001,8.017289 9.878618,8.017311 9.808156,8.017311 9.808415,7.951461 9.808415,7.904426" style="fill: white" /><polygon type="contour" points="10.273282,7.735633 10.343272,7.736133 10.343272,7.764571 10.343262,7.829781 10.343581,8.016698 10.050033,8.016698 10.050362,7.940812 10.050435,7.863562 10.050329,7.796628 10.051271,7.734267" style="fill: white" /><polygon type="contour" points="10.551971,7.975016 10.551971,8.017257 10.4929,8.017257 10.45677,8.017296 10.456631,7.942192 10.456631,7.904749 10.49412,7.904596 10.551671,7.90439" style="fill: white" /><polygon type="contour" points="10.551671,8.18389 10.551671,8.229514 10.49412,8.229704 10.456643,8.229704 10.45677,8.163639 10.45677,8.123638 10.521002,8.123638 10.551971,8.123525" style="fill: white" /><polygon type="contour" points="10.34299,8.194551 10.342832,8.229704 10.164279,8.229544 10.049962,8.229544 10.049861,8.194666 10.049546,8.123516 10.343323,8.123516" style="fill: white" /><polygon type="contour" points="10.342883,8.612097 10.342883,8.675071 10.148227,8.675839 10.049753,8.675839 10.049753,8.612135 10.049962,8.580137 10.227643,8.579859 10.342832,8.579859" style="fill: white" /><polygon type="contour" points="10.51058,8.580031 10.551671,8.580031 10.551843,8.637582 10.551843,8.67506 10.494119,8.67506 10.456631,8.675071 10.456631,8.612097 10.456643,8.579859" style="fill: white" /><polygon type="contour" points="10.551843,8.788871 10.551565,8.967423 10.551565,9.082013 10.493985,9.082013 10.456687,9.081743 10.456524,8.888043 10.456631,8.788819 10.519603,8.788819" style="fill: white" /><polygon type="contour" points="10.34458,8.981179 10.344341,9.081343 10.150283,9.081343 10.050195,9.081507 10.050195,8.88682 10.050196,8.788208 10.260396,8.788388 10.343495,8.788208" style="fill: white" /><polygon type="contour" points="10.551671,9.274815 10.551671,9.323158 10.494119,9.323241 10.456722,9.323359 10.456872,9.254268 10.456793,9.21168 10.519566,9.21168 10.551565,9.211372" style="fill: white" /><polygon type="contour" points="10.342984,9.284845 10.343024,9.323358 10.161904,9.32349 10.049882,9.32349 10.049882,9.254268 10.049981,9.211636 10.246836,9.211636 10.344072,9.211604" style="fill: white" /><polygon type="contour" points="9.920067,9.211636 9.920067,9.28645 9.920212,9.32349 9.855745,9.323286 9.808415,9.323286 9.808212,9.254269 9.808212,9.211491 9.877434,9.211491" style="fill: white" /><polygon type="contour" points="9.920067,8.788655 9.920067,9.081722 9.845251,9.081722 9.808212,9.081821 9.808343,8.901568 9.808343,8.788679 9.877434,8.788522" style="fill: white" /><polygon type="contour" points="9.876573,8.580137 9.920331,8.580137 9.920331,8.63857 9.920023,8.675839 9.846077,8.675071 9.808343,8.674981 9.808414,8.620178 9.808543,8.580031" style="fill: white" /><polygon type="contour" points="9.323239,8.637583 9.323088,8.674981 9.254,8.675696 9.211678,8.675839 9.211678,8.612135 9.21137,8.580137 9.274813,8.580031 9.323156,8.580031" style="fill: white" /><polygon type="contour" points="9.285997,8.788826 9.323088,8.788679 9.323221,8.969798 9.323221,9.081821 9.253999,9.081821 9.211634,9.081722 9.211634,8.788655" style="fill: white" /><polygon type="contour" points="9.081341,8.788284 9.081341,8.981418 9.081432,9.081434 8.981984,9.08144 8.788139,9.08144 8.788304,8.888581 8.788206,8.788208 8.981177,8.788045" style="fill: white" /><polygon type="contour" points="8.967421,8.580137 9.082011,8.580137 9.081947,8.612135 9.081947,8.675839 8.888109,8.675071 8.788817,8.675071 8.788817,8.612098 8.788869,8.579859" style="fill: white" /><polygon type="contour" points="9.081371,7.796627 9.081371,7.858012 9.081266,7.863563 9.081337,7.940812 9.081666,8.016698 8.788119,8.016698 8.788438,7.941302 8.788438,7.829782 8.788428,7.783846 8.788428,7.736133 8.858418,7.735632 9.08043,7.734267" style="fill: white" /><polygon type="contour" points="9.323286,7.976032 9.323286,8.017311 9.252823,8.017311 9.211396,8.017376 9.21133,7.941512 9.211634,7.904544 9.254,7.90446 9.322989,7.904426" style="fill: white" /><polygon type="contour" points="9.322988,8.184811 9.323155,8.229514 9.255127,8.229544 9.211369,8.229544 9.211428,8.16364 9.211691,8.123556 9.252822,8.12349 9.323285,8.12349" style="fill: white" /><polygon type="contour" points="9.081839,8.194666 9.082011,8.229544 8.904331,8.229704 8.788869,8.229704 8.78871,8.194551 8.788378,8.123516 9.082154,8.123516" style="fill: white" /><polygon type="contour" points="8.674931,8.123638 8.674931,8.163639 8.675058,8.229704 8.62112,8.229514 8.580029,8.229514 8.579729,8.163639 8.579729,8.123525 8.638799,8.123525" style="fill: white" /><polygon type="contour" points="8.615706,7.904537 8.67507,7.90475 8.674931,7.981315 8.674931,8.017296 8.610697,8.017296 8.579729,8.017257 8.580029,7.952429 8.580029,7.90439" style="fill: white" /><polygon type="contour" points="8.229657,7.975016 8.229657,8.017257 8.163638,8.017257 8.123514,8.017398 8.123514,7.90467 8.163638,7.904655 8.229511,7.90439" style="fill: white" /><polygon type="contour" points="8.15825,8.123638 8.163638,8.123525 8.229657,8.123525 8.229511,8.18389 8.229511,8.229514 8.163638,8.229659 8.123523,8.229659 8.123523,8.163639 8.123514,8.123516" style="fill: white" /><polygon type="contour" points="8.017396,8.195886 8.017256,8.229659 7.952428,8.229514 7.904388,8.229514 7.904376,8.190575 7.904668,8.123516 8.017396,8.123516" style="fill: white" /><polygon type="contour" points="8.017256,8.638802 8.017294,8.674932 7.94219,8.675071 7.904748,8.675071 7.904595,8.637583 7.904388,8.580031 7.975015,8.579732 8.017256,8.579732" style="fill: white" /><polygon type="contour" points="8.183888,8.580031 8.229511,8.580031 8.229701,8.637582 8.229701,8.67506 8.163638,8.674933 8.123635,8.674932 8.123523,8.638802 8.123523,8.579732" style="fill: white" /><polygon type="contour" points="8.194548,8.788712 8.229701,8.788871 8.229541,8.967423 8.229541,9.082013 8.163639,9.082295 8.123514,9.082155 8.123514,8.78838" style="fill: white" /><polygon type="contour" points="8.016725,8.984823 8.016868,9.081828 7.941308,9.081507 7.735887,9.081507 7.735991,8.98118 7.736174,8.788208 7.846327,8.788208 7.942254,8.788449 8.016725,8.788132" style="fill: white" /><polygon type="contour" points="8.229541,9.211372 8.229511,9.274815 8.229511,9.323158 8.163639,9.32343 8.123489,9.323546 8.123489,9.253084 8.123514,9.210215 8.194663,9.210111" style="fill: white" /><polygon type="contour" points="8.017375,9.211398 8.017375,9.287222 8.01731,9.323547 7.951458,9.323286 7.904424,9.323286 7.904458,9.254268 7.904542,9.211636 7.94151,9.211332" style="fill: white" /><polygon type="contour" points="8.01731,9.878879 8.017288,9.920012 7.941263,9.920069 7.904542,9.920069 7.904458,9.877702 7.904424,9.808713 7.976031,9.808416 8.01731,9.808416" style="fill: white" /><polygon type="contour" points="8.184809,9.808713 8.229511,9.808545 8.229541,9.876575 8.229541,9.920333 8.163638,9.920273 8.123554,9.920012 8.123489,9.878878 8.123489,9.808416" style="fill: white" /><polygon type="contour" points="8.194663,10.049863 8.229541,10.049965 8.229701,10.227646 8.229701,10.342833 8.163638,10.343143 8.123514,10.343325 8.123514,10.049548" style="fill: white" /><polygon type="contour" points="8.016725,10.145752 8.016725,10.343565 7.941815,10.343246 7.846326,10.343497 7.736174,10.343497 7.735991,10.150524 7.735887,10.050197 7.847402,10.050197 7.94081,10.050365 8.016697,10.050035" style="fill: white" /><polygon type="contour" points="8.017375,10.519923 8.017256,10.551972 7.952428,10.551673 7.904388,10.551673 7.904536,10.515994 7.904748,10.456633 7.981314,10.456772 8.017375,10.455472" style="fill: white" /><polygon type="contour" points="8.229511,10.510581 8.229511,10.551673 8.163639,10.551972 8.123523,10.551972 8.123523,10.492901 8.123635,10.456772 8.163639,10.456772 8.229701,10.456645" style="fill: white" /><polygon type="contour" points="8.67507,10.519606 8.675058,10.551845 8.62112,10.551673 8.580029,10.551673 8.579857,10.494121 8.579857,10.456645 8.63758,10.456645 8.67507,10.456633" style="fill: white" /><polygon type="contour" points="8.67507,10.243592 8.67507,10.342885 8.612097,10.342885 8.579857,10.342834 8.580135,10.164281 8.580135,10.049965 8.637715,10.049965 8.674907,10.049755" style="fill: white" /><polygon type="contour" points="8.674979,9.808614 8.674829,9.877702 8.674907,9.920025 8.612133,9.920025 8.580135,9.920333 8.580029,9.856886 8.580029,9.808545 8.637579,9.808463" style="fill: white" /><polygon type="contour" points="9.081819,9.877702 9.08172,9.920069 8.981541,9.9201 8.787629,9.9201 8.788717,9.846856 8.788677,9.808614 8.969796,9.808481 9.081819,9.808481" style="fill: white" /><polygon type="contour" points="9.275954,9.808713 9.322989,9.808713 9.323221,9.877702 9.323221,9.920214 9.253999,9.920214 9.211634,9.920069 9.211634,9.845254 9.211489,9.808481" style="fill: white" /><polygon type="contour" points="9.920067,10.049983 9.920067,10.34305 9.845702,10.342879 9.808343,10.343026 9.808212,10.161906 9.808212,10.049884 9.877434,10.049884" style="fill: white" /><polygon type="contour" points="9.920212,9.877702 9.920067,9.920069 9.877434,9.920214 9.808212,9.920214 9.808415,9.855748 9.808415,9.808712 9.877433,9.808481 9.920212,9.808481" style="fill: white" /><polygon type="contour" points="10.230134,9.808614 10.343024,9.808614 10.343181,9.877702 10.343048,9.920069 10.049981,9.920069 10.049981,9.845254 10.049882,9.808481" style="fill: white" /><polygon type="contour" points="10.551565,9.876575 10.551565,9.920333 10.493131,9.920333 10.455863,9.920025 10.456631,9.846079 10.456722,9.808614 10.511524,9.808713 10.551671,9.808545" style="fill: white" /><polygon type="contour" points="10.551565,10.049965 10.551843,10.227645 10.551843,10.342834 10.49412,10.342834 10.456631,10.342885 10.455863,10.148229 10.455757,10.049962 10.519415,10.049962" style="fill: white" /><polygon type="contour" points="10.343397,10.243123 10.343495,10.343497 10.150522,10.34366 10.050359,10.343421 10.050359,10.150286 10.050268,10.05027 10.149716,10.050265 10.343562,10.050265" style="fill: white" /><polygon type="contour" points="10.243589,10.456633 10.342883,10.456633 10.342883,10.519606 10.342832,10.551845 10.164279,10.551567 10.049962,10.551567 10.049753,10.519567 10.049753,10.455866" style="fill: white" /><polygon type="contour" points="9.920023,10.519568 9.920331,10.551567 9.856884,10.551673 9.808543,10.551673 9.80846,10.494121 9.808343,10.456723 9.877433,10.456009 9.920023,10.455866" style="fill: white" /><polygon type="contour" points="9.323088,10.456723 9.322989,10.511526 9.323156,10.551673 9.255128,10.551567 9.21137,10.551567 9.21137,10.493987 9.211678,10.456796 9.285623,10.456633" style="fill: white" /><polygon type="contour" points="9.323088,10.230136 9.323088,10.343026 9.253999,10.344048 9.211603,10.344075 9.211603,10.150161 9.211634,10.049983 9.286448,10.049983 9.323221,10.049884" style="fill: white" /><polygon type="contour" points="9.081505,10.245812 9.081341,10.344343 8.889195,10.343256 8.788205,10.343497 8.78712,10.150525 8.78736,10.050361 8.981417,10.050361 9.081505,10.050197" style="fill: white" /><polygon type="contour" points="8.983473,10.456796 9.081947,10.456796 9.081947,10.519568 9.082011,10.551567 8.904332,10.551845 8.788869,10.551845 8.788817,10.519605 8.788817,10.456633" style="fill: white" /><polygon type="contour" points="9.081336,11.19089 9.081266,11.268137 9.081371,11.335074 9.08043,11.397436 8.858417,11.396069 8.788428,11.395571 8.788428,11.367132 8.788438,11.301922 8.788119,11.115006 9.081666,11.115006" style="fill: white" /><polygon type="contour" points="9.252823,11.114393 9.323286,11.114393 9.322989,11.180243 9.322989,11.227278 9.254,11.227242 9.211634,11.227158 9.21133,11.19019 9.211396,11.114328" style="fill: white" /><polygon type="contour" points="9.274813,10.90219 9.323156,10.90219 9.323429,10.968063 9.323286,11.008213 9.252822,11.008213 9.210215,11.008189 9.210111,10.937036 9.211369,10.90216" style="fill: white" /><polygon type="contour" points="8.96742,10.90216 9.082011,10.90216 9.081839,10.937037 9.082154,11.008189 8.788378,11.008189 8.788709,10.937152 8.788869,10.901998" style="fill: white" /><polygon type="contour" points="8.674931,10.968063 8.674931,11.008066 8.610698,11.008066 8.579729,11.00818 8.580029,10.947813 8.580029,10.90219 8.63758,10.901998 8.675058,10.901998" style="fill: white" /><polygon type="contour" points="8.67507,11.189509 8.67507,11.226952 8.637579,11.227105 8.580029,11.227314 8.579729,11.156687 8.579729,11.114447 8.6388,11.114447 8.674931,11.114408" style="fill: white" /><polygon type="contour" points="8.229657,11.114447 8.229511,11.179274 8.229511,11.227314 8.190572,11.227325 8.123514,11.227033 8.123514,11.114305 8.195884,11.114305" style="fill: white" /><polygon type="contour" points="8.183888,10.90219 8.229511,10.90219 8.229657,10.968063 8.229657,11.00818 8.163638,11.00818 8.123514,11.008189 8.123514,10.935817 8.123523,10.902044" style="fill: white" /><polygon type="contour" points="8.017256,10.968063 8.017396,11.008189 7.904668,11.008189 7.904653,10.968063 7.904388,10.90219 7.975014,10.902044 8.017256,10.902044" style="fill: white" /><polygon type="contour" points="8.016809,11.132429 8.016565,11.392212 8.016565,11.39575 7.788006,11.395851 7.733968,11.397735 7.735589,11.350766 7.735851,11.343695 7.736196,11.114894 8.016809,11.114894" style="fill: white" />
</svg>
