<svg width="19.131698" height="19.131699">
<polygon type="contour" points="15.844233,3.287468 15.844233,3.348415 15.844026,3.441007 15.844205,3.620698 15.758858,3.620372 15.673187,3.620372 15.670294,3.620496 15.654018,3.620482 15.51122,3.620482 15.51122,3.477683 15.511205,3.461407 15.51133,3.372843 15.510976,3.36869 15.510885,3.287617 15.578056,3.287461 15.579626,3.287191" style="fill: white" /><polygon type="contour" points="13.589119,11.207757 13.589274,11.53058 13.589452,11.727976 13.589672,11.84616 13.58959,12.107535 13.344279,12.107535 13.343484,11.863891 13.343148,11.760331 13.342208,11.454205 13.341781,11.286034 13.341635,11.131901 13.341445,11.052435 13.340954,10.952622 13.34006,10.62161 13.499116,10.617836 13.58938,10.589705" style="fill: white" /><polygon type="contour" points="4.939845,14.040025 5.091677,14.040025 5.092298,14.265827 5.092298,14.372379 4.865873,14.372379 4.759392,14.37231 4.759392,14.124488 4.759323,14.039404" style="fill: white" /><polygon type="contour" points="7.745357,15.511095 8.559955,15.51131 8.567035,15.584157 8.510171,15.690821 8.50885,15.748914 8.439442,15.748885 8.434973,15.748892 8.376255,15.748882 7.598544,15.749051 7.443279,15.749216 7.024168,15.749314 7.024168,15.511314 7.026393,15.511291 7.328882,15.51119 7.458166,15.510992" style="fill: white" /><polygon type="contour" points="8.509547,13.506617 8.534225,13.58936 7.60112,13.589586 7.445839,13.589742 7.024168,13.589591 7.024168,13.34428 7.267811,13.343485 7.371371,13.343149 7.649445,13.342328 7.758164,13.342 7.942543,13.341532 7.963773,13.341568 8.095897,13.341472 8.163039,13.341246 8.240916,13.340799 8.267752,13.340692 8.510093,13.340061" style="fill: white" /><polygon type="contour" points="11.688421,15.511215 12.107533,15.511314 12.108009,15.673119 12.108009,15.749314 12.106007,15.749111 11.734123,15.749072 11.590065,15.748849 11.513307,15.748989 11.199825,15.748945 10.551981,15.749065 10.626896,15.542788 10.621472,15.51161 11.533154,15.511049" style="fill: white" /><polygon type="contour" points="10.696342,14.039727 11.03503,14.040171 11.196399,14.039845 11.406898,14.040148 11.592498,14.039748 11.634131,14.039826 12.032117,14.039826 12.086564,14.039805 12.103448,14.039929 12.107533,14.040057 12.107533,14.372556 12.10354,14.372464 12.096807,14.372268 12.062893,14.372256 11.448662,14.372256 11.407691,14.372196 11.268261,14.37236 11.244808,14.372467 11.036514,14.372845 11.031528,14.372953 10.967234,14.372855 10.628649,14.372855 10.613777,14.372138 10.604622,14.294549 10.639629,14.11528 10.630246,14.039685" style="fill: white" /><polygon type="contour" points="10.863946,13.340692 10.890784,13.3408 10.968659,13.341246 11.035802,13.341472 11.167926,13.341568 11.189156,13.341532 11.373536,13.342 11.482255,13.342329 11.514711,13.342368 12.082393,13.34422 12.103447,13.34427 12.107533,13.344281 12.107533,13.589591 12.105307,13.58961 11.846157,13.589673 11.727974,13.589454 11.53058,13.589277 11.207755,13.589122 10.589703,13.589382 10.617835,13.499117 10.621607,13.340061" style="fill: white" /><polygon type="contour" points="12.517789,13.344884 12.517789,13.405817 12.517222,13.589356 12.440128,13.589361 12.416196,13.589363 12.416196,13.391091 12.416285,13.345082 12.49185,13.344724" style="fill: white" /><polygon type="contour" points="15.844205,15.511005 15.844026,15.690697 15.844233,15.783289 15.844233,15.844236 15.579626,15.844513 15.578056,15.844242 15.510885,15.844086 15.511328,15.758859 15.511328,15.67319 15.511205,15.670296 15.51122,15.65402 15.51122,15.511222 15.654018,15.511222 15.670294,15.511208 15.758858,15.511332 15.763012,15.510978" style="fill: white" /><polygon type="contour" points="14.372306,15.510936 14.372306,15.612247 14.372308,15.653758 14.265825,15.653708 14.040023,15.653983 14.040023,15.511181 14.265826,15.510908" style="fill: white" /><polygon type="contour" points="14.919368,15.511317 14.992729,15.511317 14.992729,15.654119 14.927219,15.654174 14.797044,15.653758 14.796953,15.612246 14.796953,15.510936" style="fill: white" /><polygon type="contour" points="14.992729,14.919368 14.992729,14.992731 14.853897,14.992459 14.796953,14.992459 14.796953,14.853899 14.797044,14.797047 14.9423,14.797047 14.992456,14.796954" style="fill: white" /><polygon type="contour" points="15.547547,14.797047 15.653757,14.797047 15.653734,14.853901 15.654117,14.992731 15.600668,14.992731 15.511315,14.992732 15.510935,14.8539 15.510935,14.796954" style="fill: white" /><polygon type="contour" points="15.653707,14.265828 15.653757,14.372311 15.612246,14.372309 15.510935,14.372307 15.511237,14.180211 15.511179,14.040025 15.653981,14.040025" style="fill: white" /><polygon type="contour" points="14.992528,14.039481 14.992309,14.265827 14.992456,14.372308 14.853898,14.372308 14.797044,14.37231 14.797044,14.124489 14.79701,14.039404 14.859593,14.039404" style="fill: white" /><polygon type="contour" points="14.372376,14.265828 14.372308,14.37231 14.124486,14.37231 14.039402,14.372379 14.040023,14.191854 14.040023,14.040025 14.265825,14.039404 14.372376,14.039404" style="fill: white" /><polygon type="contour" points="14.372308,14.797047 14.372308,14.942303 14.372306,14.992459 14.265826,14.992312 14.039478,14.99253 14.039402,14.859597 14.039402,14.797012 14.265826,14.797012" style="fill: white" /><polygon type="contour" points="13.589404,14.797012 13.589346,14.912872 13.589346,14.99253 13.326027,14.992201 13.305104,14.992278 13.280144,14.99218 13.253154,14.992433 13.224373,14.992512 13.196189,14.992142 13.171954,14.992239 13.160889,14.992261 13.156357,14.992291 13.155178,14.99226 13.126179,14.992168 13.124075,14.992216 13.12047,14.992153 13.0938,14.992263 13.07248,14.992616 13.050903,14.992126 13.037369,14.992106 13.02835,14.992126 12.970952,14.992417 12.970847,14.909092 12.970847,14.796594 13.03737,14.796548 13.053221,14.796387 13.072479,14.796616 13.093801,14.79684 13.120471,14.796755 13.124076,14.796835 13.126179,14.796867 13.155178,14.79696 13.156356,14.796937 13.156777,14.796938 13.171954,14.79694 13.196189,14.796841 13.224372,14.796561 13.253154,14.797133 13.280144,14.79688 13.305105,14.796975 13.326026,14.796349" style="fill: white" /><polygon type="contour" points="13.050902,15.511121 13.069704,15.511318 13.096396,15.511343 13.121073,15.511024 13.124305,15.511035 13.126706,15.511035 13.154416,15.511459 13.156114,15.511444 13.180943,15.511656 13.208223,15.511137 13.233414,15.511163 13.308268,15.511058 13.308538,15.510931 13.355501,15.511204 13.589524,15.511312 13.589524,15.595569 13.58949,15.653983 13.589592,15.668201 13.589202,15.673189 13.589202,15.75886 13.589475,15.763015 13.589505,15.844207 13.503272,15.84441 13.256507,15.84441 13.256353,15.760601 13.256303,15.749004 13.256391,15.654683 13.188864,15.654063 13.188687,15.654075 13.184398,15.653788 13.163297,15.654292 13.135327,15.653905 13.133355,15.653905 13.124305,15.653835 13.121072,15.653825 13.100792,15.654212 13.0759,15.654002 13.0566,15.653927 13.042267,15.653963 13.031122,15.653989 13.028351,15.653891 12.970911,15.653781 12.970706,15.612189 12.970706,15.511186 12.997847,15.511 13.028351,15.511091 13.038012,15.510907" style="fill: white" /><polygon type="contour" points="12.517223,15.511351 12.517717,15.611575 12.517717,15.653657 12.440129,15.654197 12.416285,15.654166 12.416285,15.511365 12.490292,15.511311" style="fill: white" /><polygon type="contour" points="12.107533,14.796475 12.107533,14.992252 11.657625,14.992339 11.502211,14.992168 11.449952,14.992128 11.150956,14.992259 10.549616,14.992223 10.600814,14.865904 10.577565,14.796568 11.204859,14.796645 11.52381,14.796753 11.675548,14.796645 11.804406,14.796384" style="fill: white" /><polygon type="contour" points="12.490292,14.79695 12.517223,14.797023 12.517223,14.992323 12.440128,14.992108 12.416285,14.992045 12.416285,14.796744" style="fill: white" /><polygon type="contour" points="12.517223,14.372284 12.440128,14.37255 12.416285,14.372537 12.416285,14.110264 12.416196,14.040131 12.489434,14.03988 12.517223,14.039784" style="fill: white" /><polygon type="contour" points="13.23905,14.040003 13.263534,14.039108 13.289492,14.040017 13.319353,14.039922 13.589681,14.040025 13.589404,14.265827 13.589404,14.372379 13.311347,14.372711 13.289492,14.372519 13.262722,14.372694 13.23905,14.372505 13.217968,14.371574 13.202748,14.371999 13.182275,14.371945 13.16596,14.372431 13.151044,14.37261 13.143875,14.372305 13.136096,14.371999 13.121571,14.372406 13.107021,14.37238 13.093729,14.372284 13.083845,14.372174 13.042266,14.372418 13.02835,14.372756 12.970847,14.372718 12.970847,14.181874 12.9709,14.040377 13.000539,14.040377 13.02835,14.039857 13.042267,14.039919 13.059604,14.039955 13.078225,14.040003 13.093801,14.039742 13.112799,14.039624 13.117615,14.039465 13.134961,14.040089 13.150658,14.039231 13.150901,14.039487 13.182274,14.039446 13.199142,14.039319 13.217967,14.039075" style="fill: white" /><polygon type="contour" points="13.589497,12.997849 13.589588,13.028352 13.589405,13.038015 13.589733,13.052724 13.589333,13.072482 13.5892,13.093803 13.589219,13.096671 13.589176,13.099019 13.589516,13.126322 13.589512,13.127508 13.589318,13.152492 13.589301,13.170622 13.58952,13.198175 13.589445,13.22814 13.589159,13.256925 13.589299,13.283799 13.589752,13.308439 13.589362,13.328649 13.589186,13.342198 13.589517,13.350382 13.589459,13.352189 13.589558,13.354513 13.589616,13.392079 13.58937,13.4049 13.589508,13.417136 13.589676,13.428569 13.589569,13.438745 13.589466,13.442786 13.589627,13.447216 13.589494,13.449787 13.58949,13.589493 13.456011,13.589614 13.45101,13.589431 13.443573,13.589434 13.434113,13.589607 13.423336,13.589509 13.411381,13.589616 13.408903,13.589477 13.398982,13.589582 13.395219,13.589758 13.386081,13.589618 13.373157,13.589687 13.366916,13.58958 13.360741,13.589476 13.355501,13.589705 13.353564,13.589419 13.350381,13.58952 13.343365,13.589359 13.328648,13.589363 13.308436,13.589754 13.283799,13.589303 13.256921,13.589162 13.22814,13.589446 13.198835,13.589523 13.170621,13.589302 13.155363,13.589291 13.155022,13.58932 13.154573,13.589276 13.127476,13.589489 13.12689,13.58956 13.125311,13.589563 13.121675,13.589525 13.096395,13.589265 13.069705,13.589817 13.050903,13.589621 13.03737,13.589557 13.02835,13.589589 12.970706,13.58948 12.97099,13.460725 12.97099,13.346575 13.02835,13.346608 13.036569,13.346794 13.050859,13.347054 13.068046,13.346993 13.092651,13.346683 13.095902,13.346659 13.123075,13.347081 13.123582,13.347063 13.12534,13.347084 13.126264,13.347064 13.151003,13.346689 13.158091,13.346689 13.182545,13.346765 13.182705,13.346727 13.182798,13.346751 13.204546,13.347217 13.226171,13.347494 13.240328,13.347227 13.347316,13.347319 13.347224,13.24033 13.347492,13.226173 13.347358,13.216332 13.346678,13.182898 13.346721,13.182722 13.346966,13.154378 13.347033,13.126258 13.347082,13.125342 13.347061,13.123585 13.34708,13.123077 13.346658,13.095903 13.346682,13.092651 13.34696,13.069706 13.347053,13.05086 13.346793,13.036569 13.346607,13.028352 13.346595,12.970708 13.589478,12.970708" style="fill: white" /><polygon type="contour" points="13.589355,12.489436 13.589354,12.517226 13.405816,12.51779 13.344883,12.51779 13.345202,12.44013 13.345081,12.416288 13.544957,12.416288 13.589362,12.416199" style="fill: white" /><polygon type="contour" points="14.992248,12.490295 14.992322,12.517226 14.797022,12.517226 14.796807,12.44013 14.796743,12.416288 14.992042,12.416288" style="fill: white" /><polygon type="contour" points="14.372535,12.416288 14.372256,12.490296 14.372282,12.517226 14.039782,12.517226 14.040045,12.440131 14.040128,12.416199 14.300294,12.416199" style="fill: white" /><polygon type="contour" points="14.372661,13.036928 14.372724,13.050904 14.372408,13.054156 14.373097,13.073067 14.372395,13.090802 14.372354,13.095642 14.372317,13.096851 14.37285,13.11474 14.372333,13.12775 14.372455,13.146148 14.372455,13.156518 14.37243,13.171955 14.37243,13.177281 14.371637,13.194202 14.373011,13.211895 14.371979,13.232527 14.37184,13.256094 14.372425,13.282284 14.372376,13.589407 14.191852,13.589683 14.040023,13.589683 14.039081,13.328376 14.039921,13.319354 14.039138,13.290968 14.039106,13.263536 14.040001,13.239049 14.039073,13.217969 14.039498,13.202749 14.039443,13.182276 14.039409,13.166352 14.039231,13.150742 14.040569,13.15036 14.03974,13.093803 14.040002,13.078228 14.039561,13.069679 14.039954,13.059605 14.040224,13.050904 14.039918,13.04227 14.039856,13.028352 14.040376,12.970902 14.181874,12.970849 14.372717,12.970849" style="fill: white" /><polygon type="contour" points="14.862455,12.970954 14.992416,12.970954 14.992416,13.004916 14.992123,13.028352 14.991962,13.032547 14.992505,13.044273 14.992175,13.062179 14.992313,13.083566 14.992068,13.107829 14.992134,13.111368 14.9923,13.137077 14.992257,13.139251 14.992288,13.140199 14.992235,13.140445 14.992636,13.166403 14.992672,13.170909 14.992481,13.196567 14.992452,13.20992 14.992317,13.238173 14.992542,13.267027 14.991971,13.293032 14.991992,13.316005 14.992519,13.334536 14.992528,13.589349 14.91287,13.589349 14.79701,13.589407 14.797076,13.311923 14.796988,13.289493 14.797095,13.262911 14.796865,13.232526 14.796996,13.204069 14.79699,13.185726 14.796935,13.160701 14.796685,13.135118 14.796687,13.134921 14.796714,13.134019 14.796686,13.131881 14.796889,13.107499 14.796796,13.103902 14.796573,13.078782 14.796732,13.05809 14.796544,13.041805 14.796361,13.030807 14.796592,12.970849" style="fill: white" /><polygon type="contour" points="15.552774,12.970913 15.653778,12.970913 15.653902,12.997758 15.653888,13.028353 15.653987,13.031124 15.653654,13.040639 15.653642,13.055611 15.653756,13.077061 15.654211,13.100793 15.654234,13.104 15.653834,13.124307 15.653903,13.133357 15.653904,13.135361 15.654291,13.162646 15.654071,13.188688 15.65406,13.188866 15.653816,13.255854 15.749001,13.256303 15.7606,13.256355 15.76242,13.256387 15.844408,13.256509 15.844408,13.503273 15.844205,13.589506 15.758858,13.589203 15.668201,13.589595 15.65398,13.589493 15.549975,13.589493 15.511029,13.589533 15.511442,13.352189 15.511203,13.342199 15.511346,13.329331 15.511185,13.309221 15.511202,13.288892 15.511069,13.283945 15.5108,13.262911 15.51066,13.256925 15.510946,13.22814 15.510947,13.202749 15.510972,13.184534 15.510986,13.184399 15.51149,13.156116 15.511446,13.155984 15.511452,13.155868 15.511001,13.12735 15.511059,13.125313 15.511021,13.121677 15.511343,13.096397 15.511315,13.069707 15.511233,13.052725 15.511054,13.037371 15.51109,13.028353 15.511183,12.970708" style="fill: white" /><polygon type="contour" points="15.653596,12.490808 15.653656,12.517719 15.553432,12.517226 15.51135,12.517226 15.511394,12.440131 15.511364,12.416288 15.654165,12.416288" style="fill: white" /><polygon type="contour" points="15.748911,10.622852 15.748882,10.692259 15.748871,10.696728 15.748879,10.755446 15.749047,11.533156 15.749213,11.688898 15.749312,12.10801 15.587508,12.107535 15.511313,12.107535 15.511214,11.688424 15.511047,11.533157 15.511607,10.621474 15.540269,10.621474 15.6811,10.642402 15.728601,10.621283" style="fill: white" /><polygon type="contour" points="14.992256,11.150958 14.992125,11.449954 14.992165,11.502213 14.992336,11.657627 14.992249,12.107535 14.796473,12.107535 14.796383,11.804407 14.796643,11.675551 14.796751,11.523812 14.796643,11.20486 14.796565,10.577566 14.865901,10.600816 14.992221,10.549618" style="fill: white" /><polygon type="contour" points="14.372952,11.031531 14.372843,11.036515 14.372465,11.24481 14.372193,11.407693 14.372254,11.448663 14.372254,12.062895 14.372267,12.096808 14.372426,12.103449 14.372553,12.107535 14.040053,12.107535 14.040006,12.097473 14.039802,12.086566 14.039823,12.032118 14.039823,11.634132 14.039746,11.592501 14.039993,11.435779 14.040147,11.406899 14.039843,11.1964 14.040169,11.035032 14.039724,10.696344 14.039718,10.694746 14.039682,10.630248 14.115277,10.63963 14.372135,10.613779" style="fill: white" /><polygon type="contour" points="13.58974,7.445841 13.589584,7.601122 13.589358,8.534227 13.506615,8.509549 13.34006,8.510094 13.340955,8.17908 13.341529,7.942545 13.341781,7.845669 13.342208,7.677498 13.343148,7.371372 13.343484,7.267812 13.344279,7.024169 13.58959,7.024169" style="fill: white" /><polygon type="contour" points="14.992508,7.44607 14.992387,7.601431 14.992072,8.178274 14.992103,8.329359 14.992126,8.341769 14.992069,8.538356 14.910605,8.495631 14.79681,8.530365 14.79678,7.601123 14.796508,7.445841 14.796473,7.024169 14.992249,7.024169" style="fill: white" /><polygon type="contour" points="15.718834,7.02417 15.749312,7.024169 15.749109,7.026214 15.74907,7.398065 15.748845,7.541637 15.74877,8.526324 15.74903,8.53414 15.749063,8.57972 15.660396,8.589537 15.511296,8.559665 15.511112,7.910202 15.511017,7.608205 15.51099,7.458166 15.511188,7.328885 15.511313,7.024169 15.673115,7.024169" style="fill: white" /><polygon type="contour" points="15.654195,6.691573 15.654165,6.715417 15.511364,6.715417 15.51131,6.641408 15.51135,6.614478 15.611573,6.613985 15.653656,6.613985" style="fill: white" /><polygon type="contour" points="14.992107,6.691572 14.992042,6.715417 14.796743,6.715417 14.796947,6.641408 14.797022,6.614478 14.992322,6.614478" style="fill: white" /><polygon type="contour" points="14.372554,7.02417 14.372461,7.02816 14.372267,7.034895 14.372254,7.068808 14.372254,7.68304 14.372193,7.72401 14.372358,7.863439 14.372466,7.886893 14.372263,8.097262 14.372848,8.350712 14.372594,8.516279 14.179282,8.493023 14.039852,8.506397 14.040333,8.107496 14.040383,8.095897 14.039689,8.037914 14.040147,7.724803 14.039746,7.539203 14.039823,7.497571 14.039823,7.099585 14.039802,7.045137 14.039926,7.028253 14.040054,7.024169 14.266101,7.024169" style="fill: white" /><polygon type="contour" points="14.372548,6.691573 14.372535,6.715417 14.110262,6.715417 14.040128,6.715505 14.039877,6.642266 14.039781,6.614478 14.372282,6.614478" style="fill: white" /><polygon type="contour" points="13.589354,6.614478 13.589359,6.691572 13.589362,6.715505 13.39109,6.715505 13.345081,6.715417 13.344724,6.63985 13.344884,6.613914 13.405817,6.613914" style="fill: white" /><polygon type="contour" points="12.107533,5.542113 12.107533,5.787421 11.863889,5.788216 11.760329,5.788554 11.454203,5.789495 11.286033,5.789922 11.131898,5.790068 11.052431,5.790256 10.952621,5.790744 10.621607,5.791642 10.617835,5.632586 10.589703,5.542321 11.207756,5.542582 11.530579,5.542426 11.727975,5.542248 11.846158,5.542031" style="fill: white" /><polygon type="contour" points="12.489434,5.542345 12.517223,5.542346 12.517789,5.725886 12.517789,5.786821 12.440128,5.786501 12.416285,5.786623 12.416285,5.586745 12.416196,5.542341" style="fill: white" /><polygon type="contour" points="13.398983,5.542121 13.408903,5.542227 13.411382,5.542088 13.42186,5.542161 13.433291,5.542063 13.442784,5.542236 13.450131,5.542046 13.454845,5.542087 13.58949,5.542211 13.589494,5.681916 13.589627,5.684488 13.589466,5.688918 13.589569,5.692958 13.589676,5.703134 13.589508,5.714567 13.58937,5.726803 13.589615,5.739623 13.589555,5.777191 13.58946,5.779514 13.589517,5.78132 13.589186,5.789503 13.589301,5.802369 13.589752,5.823265 13.589299,5.847904 13.589159,5.874779 13.589444,5.903563 13.58952,5.933528 13.589301,5.959747 13.589316,5.975461 13.589323,5.982321 13.589483,6.003755 13.589516,6.004751 13.589542,6.007211 13.589521,6.010025 13.589261,6.035305 13.589334,6.059222 13.589618,6.0808 13.589405,6.093687 13.589478,6.160996 13.460723,6.160712 13.346574,6.160712 13.346607,6.10335 13.346793,6.095133 13.347053,6.080843 13.34696,6.061995 13.346953,6.038923 13.346937,6.035734 13.34708,6.008627 13.34706,6.00812 13.347065,6.006051 13.347033,6.005447 13.346661,5.980709 13.346661,5.973628 13.346734,5.949032 13.346725,5.948994 13.34675,5.9489 13.347214,5.92721 13.347494,5.90553 13.347225,5.891372 13.347316,5.784386 13.240327,5.784475 13.227524,5.784235 13.217099,5.784325 13.208644,5.784434 13.2086,5.784399 13.184536,5.784609 13.184433,5.784636 13.184277,5.784601 13.153745,5.784711 13.127539,5.78464 13.126597,5.784619 13.124818,5.784641 13.124305,5.784623 13.095968,5.784765 13.092779,5.784749 13.069705,5.784743 13.050859,5.784649 13.036925,5.785146 13.02835,5.785094 12.970706,5.785107 12.970706,5.542223 12.997847,5.542204 13.02835,5.542113 13.03737,5.542147 13.052722,5.541969 13.07248,5.542367 13.096395,5.542439 13.121674,5.542179 13.124922,5.542167 13.126889,5.542144 13.127479,5.542213 13.154573,5.542426 13.155022,5.542383 13.155375,5.542412 13.170621,5.542401 13.198835,5.54218 13.228139,5.542257 13.256922,5.542542 13.283798,5.542402 13.308436,5.54195 13.328648,5.542341 13.343365,5.542344 13.350381,5.542184 13.352187,5.542241 13.386073,5.54226 13.395218,5.541946" style="fill: white" /><polygon type="contour" points="14.372376,5.542296 14.371404,5.821027 14.372425,5.849419 14.371839,5.875607 14.371508,5.898288 14.373011,5.91981 14.372302,5.936174 14.37243,5.954423 14.37243,5.9704 14.372121,5.984911 14.372833,5.999802 14.372103,6.01187 14.373064,6.028622 14.37221,6.041566 14.372343,6.072794 14.372408,6.077546 14.37254,6.094415 14.372717,6.160855 14.181873,6.160854 14.040376,6.160802 14.040376,6.131162 14.039856,6.10335 14.039918,6.089433 14.040224,6.0808 14.039954,6.072098 14.039561,6.062023 14.040002,6.053475 14.039998,6.035306 14.039015,5.999814 14.039229,5.98107 14.039409,5.965352 14.039443,5.949427 14.039498,5.928954 14.039073,5.913734 14.039358,5.893297 14.039106,5.868167 14.040014,5.842209 14.039921,5.812349 14.040023,5.542021 14.191853,5.542021" style="fill: white" /><polygon type="contour" points="14.91287,5.542355 14.992528,5.542355 14.992519,5.797167 14.991993,5.815699 14.991972,5.83867 14.992395,5.868793 14.992072,5.893297 14.992453,5.921782 14.992296,5.928954 14.992321,5.941642 14.992672,5.960794 14.992636,5.9653 14.992235,5.991257 14.992288,5.991504 14.992256,5.992453 14.9923,5.994627 14.992134,6.020335 14.992068,6.023874 14.992313,6.048138 14.992175,6.069524 14.992505,6.08743 14.991962,6.099155 14.992123,6.103351 14.992416,6.160749 14.90909,6.160855 14.796594,6.160855 14.796524,6.10335 14.796362,6.100895 14.796545,6.089898 14.796733,6.073612 14.796574,6.052919 14.796797,6.027799 14.796889,6.024202 14.796686,5.999822 14.796714,5.997683 14.796687,5.996781 14.796685,5.996585 14.796935,5.971003 14.79699,5.945977 14.796996,5.927634 14.797264,5.898288 14.797094,5.868792 14.796988,5.84221 14.796721,5.819876 14.796869,5.80237 14.79701,5.542296" style="fill: white" /><polygon type="contour" points="15.673188,5.542502 15.758857,5.542502 15.763012,5.542225 15.844205,5.542198 15.844408,5.62843 15.844408,5.875194 15.7606,5.875349 15.749001,5.8754 15.654678,5.875845 15.654059,5.942838 15.654071,5.943016 15.653785,5.947304 15.654291,5.968406 15.653899,5.996783 15.653928,5.997955 15.653862,6.007009 15.654267,6.027325 15.654211,6.03091 15.654001,6.055801 15.653642,6.075585 15.653654,6.091062 15.653987,6.100577 15.653888,6.103351 15.653778,6.160791 15.612186,6.160996 15.511182,6.160996 15.510997,6.133853 15.511089,6.10335 15.511054,6.094332 15.511118,6.080799 15.511315,6.061996 15.511277,6.037899 15.511335,6.034228 15.511059,6.006388 15.511039,6.004337 15.511465,5.977242 15.511433,5.976044 15.511452,5.976036 15.510937,5.947497 15.51097,5.947366 15.511191,5.923016 15.511161,5.898288 15.51101,5.874976 15.51066,5.873517 15.511041,5.80203 15.510739,5.801691 15.511292,5.782845 15.511309,5.542178 15.595567,5.542178 15.65398,5.54221 15.668201,5.542109" style="fill: white" /><polygon type="contour" points="15.653707,4.865876 15.653981,5.091679 15.511179,5.091679 15.510907,4.865875 15.510935,4.759396 15.612245,4.759394 15.653757,4.759393" style="fill: white" /><polygon type="contour" points="15.654173,4.204481 15.653757,4.334657 15.612245,4.334749 15.510935,4.334749 15.511316,4.212333 15.511316,4.138972 15.654118,4.138972" style="fill: white" /><polygon type="contour" points="14.992729,3.620385 14.853898,3.620768 14.796953,3.620768 14.796953,3.519457 14.797044,3.477946 14.853898,3.477969 14.992729,3.477585" style="fill: white" /><polygon type="contour" points="14.992456,4.277803 14.992456,4.334749 14.853897,4.334749 14.797044,4.334658 14.797044,4.1894 14.796953,4.139245 14.919367,4.138972 14.992729,4.138972" style="fill: white" /><polygon type="contour" points="14.992456,4.759396 14.992309,4.865876 14.992528,5.092222 14.859594,5.0923 14.79701,5.0923 14.79701,4.865875 14.797044,4.759394 14.942301,4.759394" style="fill: white" /><polygon type="contour" points="14.372308,4.759394 14.372308,5.007215 14.372376,5.0923 14.191853,5.091679 14.040023,5.091679 14.039402,4.865876 14.039402,4.759325 14.265826,4.759325" style="fill: white" /><polygon type="contour" points="14.265825,4.139392 14.372306,4.139245 14.372306,4.277803 14.372308,4.334658 14.124487,4.334658 14.039401,4.334692 14.039478,4.218832 14.039478,4.139173" style="fill: white" /><polygon type="contour" points="14.265825,3.477996 14.372308,3.477946 14.372306,3.519456 14.372306,3.620767 14.265825,3.620795 14.040023,3.620522 14.040023,3.477719" style="fill: white" /><polygon type="contour" points="13.589505,3.287497 13.589202,3.372843 13.589592,3.463501 13.58949,3.477719 13.58949,3.581725 13.58953,3.620672 13.342197,3.620499 13.329329,3.620354 13.30922,3.620516 13.28889,3.6205 13.283944,3.620631 13.262908,3.620902 13.256922,3.621041 13.228139,3.620756 13.198175,3.620018 13.178406,3.620037 13.153143,3.620879 13.126705,3.620667 13.124305,3.620667 13.121073,3.620678 13.096395,3.620358 13.07248,3.620866 13.052722,3.620468 13.037369,3.620647 13.028351,3.620612 12.970706,3.620518 12.970911,3.578926 12.970911,3.477923 12.997756,3.4778 13.028351,3.477812 13.031123,3.477715 13.040638,3.478047 13.055609,3.478057 13.077057,3.477945 13.101547,3.477749 13.121073,3.477879 13.124305,3.477868 13.133355,3.477798 13.135372,3.477797 13.162644,3.477411 13.189461,3.477635 13.255855,3.477022 13.256303,3.382698 13.256353,3.371102 13.256386,3.369281 13.256507,3.287294 13.503272,3.287294" style="fill: white" /><polygon type="contour" points="12.107533,3.620388 11.688421,3.620487 11.533154,3.620653 10.621471,3.620092 10.626895,3.588913 10.551981,3.382639 11.199826,3.382542 11.513306,3.382714 11.590064,3.382855 11.733637,3.382631 12.107533,3.382388" style="fill: white" /><polygon type="contour" points="12.490806,3.478106 12.517717,3.478046 12.517223,3.57827 12.517223,3.620352 12.440128,3.620307 12.416285,3.620337 12.416285,3.477536" style="fill: white" /><polygon type="contour" points="13.12681,4.138902 13.155178,4.139444 13.156357,4.139414 13.160889,4.139442 13.171954,4.139464 13.196188,4.139561 13.224373,4.139192 13.253154,4.139269 13.280144,4.139524 13.305104,4.139427 13.589346,4.139173 13.589346,4.218831 13.589404,4.334692 13.305104,4.334728 13.280143,4.334824 13.253154,4.33457 13.224373,4.335145 13.196189,4.334861 13.168625,4.334764 13.153511,4.334765 13.153124,4.334767 13.151992,4.334744 13.126811,4.334834 13.124693,4.334868 13.121073,4.334947 13.095812,4.334996 13.07248,4.335087 13.050902,4.335087 13.037369,4.335155 12.970847,4.33511 12.970952,4.269246 12.970952,4.139286 13.004914,4.139286 13.028351,4.139578 13.037369,4.139599 13.050902,4.139578 13.07248,4.139087 13.095815,4.139577 13.121072,4.138947 13.124694,4.138868" style="fill: white" /><polygon type="contour" points="13.182274,4.759759 13.199141,4.759884 13.217968,4.760129 13.23905,4.759198 13.262722,4.759009 13.290964,4.760064 13.319353,4.75928 13.589404,4.759325 13.589681,4.939848 13.589681,5.091679 13.335468,5.092538 13.319354,5.091781 13.311348,5.091493 13.289492,5.091686 13.263534,5.092595 13.23905,5.091699 13.217968,5.092629 13.202748,5.092204 13.182275,5.092258 13.150901,5.092216 13.150658,5.092472 13.149903,5.092432 13.148453,5.092457 13.133769,5.091657 13.117616,5.09224 13.112799,5.092079 13.096395,5.091701 13.078226,5.091701 13.059603,5.091748 13.042266,5.091784 13.028351,5.091846 12.970706,5.0928 12.970847,4.949829 12.970847,4.758985 13.02835,4.758948 13.042266,4.759286 13.059604,4.759247 13.078226,4.759201 13.093801,4.759463 13.098692,4.759511 13.099005,4.759547 13.119266,4.759662 13.15134,4.758511 13.15152,4.75831" style="fill: white" /><polygon type="contour" points="12.490293,4.759446 12.517223,4.759419 12.517223,5.091919 12.440128,5.091653 12.416196,5.091572 12.416196,4.831407 12.416285,4.759167" style="fill: white" /><polygon type="contour" points="12.517223,4.33468 12.440128,4.334896 12.416285,4.334961 12.416285,4.13966 12.490292,4.139454 12.517223,4.13938" style="fill: white" /><polygon type="contour" points="12.107533,4.139452 12.107533,4.335228 11.804405,4.335318 11.675549,4.335059 11.523809,4.334951 11.204859,4.335058 10.577565,4.335135 10.600814,4.265798 10.549616,4.139479 11.150956,4.139444 11.449951,4.139575 11.502212,4.139536 11.657625,4.139366" style="fill: white" /><polygon type="contour" points="11.036513,4.758859 11.244808,4.759236 11.407691,4.759509 11.448661,4.759448 12.062894,4.759448 12.096806,4.759435 12.103447,4.759275 12.107533,4.759148 12.107533,5.091648 12.097376,5.09237 12.086404,5.092919 12.03166,5.093888 11.634131,5.091878 11.592499,5.091956 11.435777,5.091709 11.406897,5.091555 11.196399,5.091858 11.035029,5.091534 10.696342,5.091976 10.694743,5.091983 10.630246,5.092018 10.639629,5.016423 10.613777,4.759565 11.031529,4.75875" style="fill: white" /><polygon type="contour" points="3.553642,3.287461 3.620815,3.287617 3.620371,3.372844 3.620371,3.458516 3.620495,3.461408 3.620481,3.477683 3.620481,3.620482 3.477681,3.620482 3.461405,3.620497 3.372841,3.620372 3.368687,3.620726 3.287495,3.620698 3.287672,3.441006 3.287466,3.348415 3.287466,3.287468 3.552072,3.287191" style="fill: white" /><polygon type="contour" points="5.875347,3.371103 5.875397,3.382698 5.875307,3.476994 5.942867,3.47763 5.944821,3.477999 5.968391,3.477432 5.994669,3.477795 5.995886,3.477797 5.997953,3.477772 6.007005,3.477839 6.010626,3.477879 6.030152,3.477749 6.054641,3.477945 6.075099,3.477776 6.089433,3.477738 6.100576,3.477715 6.103349,3.477812 6.160789,3.477923 6.160994,3.519514 6.160994,3.620518 6.133851,3.620704 6.103349,3.620612 6.093684,3.620795 6.078977,3.620468 6.059219,3.620866 6.035304,3.620357 6.010023,3.620678 6.006775,3.620667 6.004362,3.620667 5.976645,3.620243 5.97493,3.620258 5.947303,3.620769 5.923477,3.620568 5.898285,3.620542 5.822848,3.620647 5.822581,3.620773 5.776198,3.6205 5.542177,3.620392 5.542177,3.536134 5.54221,3.477719 5.542108,3.463501 5.542499,3.458515 5.542499,3.372844 5.542222,3.368689 5.542195,3.287496 5.628427,3.287294 5.875191,3.287294" style="fill: white" /><polygon type="contour" points="5.826595,4.139427 5.851555,4.139524 5.878545,4.139269 5.907323,4.139192 5.935511,4.139561 5.959745,4.139464 5.97081,4.139442 5.975343,4.139414 5.976522,4.139444 6.005519,4.139535 6.007623,4.139487 6.011229,4.13955 6.035884,4.139577 6.061994,4.1395 6.078477,4.139316 6.09433,4.139599 6.10335,4.139578 6.160748,4.139286 6.160853,4.222611 6.160853,4.33511 6.093768,4.335363 6.078477,4.335317 6.059219,4.335087 6.035884,4.334995 6.010627,4.334947 6.007006,4.334868 6.004888,4.334834 5.979707,4.334744 5.978575,4.334767 5.978188,4.334765 5.963075,4.334764 5.935511,4.334861 5.907324,4.335145 5.878544,4.334571 5.851556,4.334824 5.826595,4.334728 5.542294,4.334692 5.542354,4.218831 5.542354,4.139173" style="fill: white" /><polygon type="contour" points="4.334656,5.007214 4.33469,5.0923 4.272105,5.0923 4.139172,5.092222 4.139389,4.865875 4.139243,4.759396 4.277801,4.759396 4.334656,4.759394" style="fill: white" /><polygon type="contour" points="3.477718,5.542211 3.581724,5.542211 3.62067,5.542172 3.620329,5.788337 3.62084,5.803054 3.620514,5.822483 3.620497,5.842811 3.620629,5.847757 3.6209,5.868793 3.621039,5.874779 3.620756,5.903563 3.620752,5.928954 3.620728,5.945889 3.620883,5.976351 3.620656,6.004972 3.620637,6.007008 3.620676,6.010628 3.620424,6.0379 3.620384,6.061996 3.620467,6.078979 3.620793,6.093686 3.62061,6.103351 3.620516,6.160791 3.477922,6.160791 3.477831,6.160241 3.477743,6.155044 3.47786,6.138869 3.477777,6.13469 3.477799,6.133943 3.477811,6.103351 3.477714,6.100577 3.478046,6.091062 3.477774,6.0751 3.477944,6.054643 3.477488,6.03091 3.477431,6.027324 3.477839,6.007009 3.47777,5.997955 3.477801,5.996753 3.477409,5.969058 3.477633,5.942239 3.477023,5.875845 3.382697,5.8754 3.3711,5.875349 3.369278,5.875317 3.287292,5.875194 3.287292,5.62843 3.287495,5.542198 3.372841,5.542502 3.4635,5.542109" style="fill: white" /><polygon type="contour" points="3.519455,4.759394 3.620766,4.759396 3.620462,4.951491 3.62052,5.091679 3.477718,5.091679 3.477994,4.865876 3.477944,4.759393" style="fill: white" /><polygon type="contour" points="3.620383,4.212334 3.620766,4.334749 3.584153,4.334658 3.477944,4.334657 3.477967,4.277803 3.477584,4.138972 3.620383,4.138972" style="fill: white" /><polygon type="contour" points="4.277801,4.139245 4.334747,4.139245 4.334747,4.277803 4.334656,4.334658 4.189398,4.334658 4.139243,4.334749 4.138971,4.212333 4.138971,4.138972" style="fill: white" /><polygon type="contour" points="4.334656,3.477946 4.334747,3.519457 4.334747,3.620768 4.212332,3.620385 4.138971,3.620385 4.138971,3.477585 4.204481,3.477531" style="fill: white" /><polygon type="contour" points="5.091677,3.620522 4.865874,3.620795 4.759394,3.620767 4.759394,3.519456 4.759392,3.477946 4.865874,3.477996 5.091677,3.477719" style="fill: white" /><polygon type="contour" points="5.092298,4.272107 5.092298,4.334692 4.865874,4.334692 4.759392,4.334657 4.759392,4.189399 4.759394,4.139245 4.865874,4.139392 5.092221,4.139173" style="fill: white" /><polygon type="contour" points="5.091677,4.939847 5.091677,5.091679 4.865874,5.0923 4.759323,5.0923 4.759323,4.865875 4.759392,4.759394 5.007213,4.759394 5.092298,4.759325" style="fill: white" /><polygon type="contour" points="6.715504,5.740613 6.715415,5.786623 6.639848,5.78698 6.613912,5.786821 6.613912,5.725886 6.614477,5.542346 6.691571,5.542342 6.715504,5.542341" style="fill: white" /><polygon type="contour" points="7.60112,5.542118 8.534225,5.542344 8.509547,5.625085 8.510093,5.791641 8.179078,5.790745 7.942542,5.790172 7.845667,5.789922 7.677497,5.789495 7.371371,5.788554 7.267811,5.788216 7.024168,5.787421 7.024168,5.542113 7.445839,5.541963" style="fill: white" /><polygon type="contour" points="8.516278,4.759107 8.49302,4.952418 8.506396,5.091848 8.107495,5.091368 8.095896,5.091318 8.037912,5.092012 7.724801,5.091555 7.539201,5.091956 7.497569,5.091878 7.099583,5.091878 7.045135,5.091898 7.028253,5.091775 7.024168,5.091648 7.024168,4.759148 7.028158,4.75924 7.034893,4.759435 7.068806,4.759448 7.683038,4.759448 7.724008,4.759509 7.863437,4.759343 7.886892,4.759236 8.097261,4.759439 8.35071,4.758852" style="fill: white" /><polygon type="contour" points="7.601429,4.139315 8.178273,4.13963 8.329356,4.139598 8.341767,4.139576 8.538354,4.139633 8.495629,4.221096 8.530364,4.334891 7.601121,4.334923 7.445839,4.335194 7.024168,4.335228 7.024168,4.139452 7.446067,4.139194" style="fill: white" /><polygon type="contour" points="7.443279,3.382488 7.598544,3.382652 8.376255,3.382823 8.434972,3.382831 8.439389,3.382827 8.50885,3.38279 8.493209,3.409063 8.559663,3.620406 7.910199,3.620589 7.608203,3.620683 7.458166,3.62071 7.328882,3.620512 7.024168,3.620388 7.024168,3.382388" style="fill: white" /><polygon type="contour" points="6.715415,3.477536 6.715415,3.620337 6.641407,3.620392 6.614477,3.620352 6.613983,3.520127 6.613983,3.478046 6.691571,3.477506" style="fill: white" /><polygon type="contour" points="6.691572,4.139594 6.715415,4.13966 6.715415,4.334961 6.641407,4.334753 6.614477,4.33468 6.614477,4.13938" style="fill: white" /><polygon type="contour" points="6.715415,4.759167 6.715415,5.021438 6.715504,5.091572 6.642265,5.091824 6.614477,5.091919 6.614477,4.759418 6.691571,4.759154" style="fill: white" /><polygon type="contour" points="6.160853,4.758985 6.160853,4.949828 6.1608,5.091327 6.13116,5.091327 6.10335,5.091846 6.089433,5.091785 6.072096,5.091747 6.053474,5.0917 6.037898,5.091962 6.018898,5.09208 6.014083,5.09224 5.996739,5.091614 5.981038,5.092472 5.980795,5.092216 5.949425,5.092258 5.928953,5.092204 5.913731,5.092629 5.89265,5.091699 5.868977,5.092138 5.840734,5.092563 5.812346,5.09178 5.542019,5.091679 5.542294,4.865876 5.542294,4.759325 5.812346,4.75928 5.840734,4.760064 5.868165,4.760093 5.89265,4.759199 5.913731,4.76013 5.932558,4.759884 5.949425,4.759759 5.965736,4.759272 5.980655,4.759095 5.987825,4.759399 5.995601,4.759705 6.011869,4.7596 6.024678,4.759322 6.037969,4.759419 6.047855,4.75953 6.089433,4.759285 6.103349,4.758948" style="fill: white" /><polygon type="contour" points="5.745617,5.542086 5.758542,5.542017 5.76478,5.542123 5.770958,5.542229 5.776197,5.541999 5.778147,5.542284 5.781319,5.542184 5.788335,5.542344 5.803051,5.54234 5.823263,5.541951 5.847903,5.542401 5.874778,5.542542 5.90356,5.542257 5.928952,5.542254 5.96108,5.542401 5.976324,5.542412 5.976678,5.542383 5.977126,5.542427 6.004231,5.542213 6.004807,5.542144 6.006387,5.542141 6.010023,5.542179 6.035303,5.542439 6.05922,5.542367 6.080796,5.542082 6.09433,5.542147 6.160994,5.542222 6.16071,5.670977 6.16071,5.785127 6.103349,5.785094 6.094773,5.785146 6.080841,5.784649 6.061993,5.784743 6.03892,5.784749 6.035732,5.784765 6.008624,5.784623 6.008117,5.784641 6.00636,5.78462 6.005436,5.78464 5.980696,5.785016 5.975542,5.785015 5.924566,5.784244 5.924479,5.784412 5.923871,5.783866 5.891371,5.784475 5.784384,5.784386 5.784473,5.891373 5.784208,5.905529 5.784525,5.928907 5.78495,5.948901 5.784978,5.949008 5.784734,5.977325 5.784667,6.005446 5.784617,6.006362 5.784639,6.008119 5.78462,6.008627 5.784448,6.036986 5.784442,6.040203 5.784741,6.061995 5.784647,6.080843 5.785144,6.094775 5.785093,6.103351 5.785105,6.160996 5.542221,6.160996 5.542202,6.133853 5.542111,6.10335 5.542145,6.094331 5.541967,6.078979 5.542365,6.059221 5.542499,6.0379 5.542482,6.035034 5.542524,6.032683 5.542182,6.005381 5.542186,6.004195 5.542382,5.979012 5.542399,5.961081 5.542252,5.928954 5.542256,5.903563 5.54254,5.874779 5.5424,5.847904 5.541948,5.823265 5.542339,5.803053 5.542515,5.789504 5.542183,5.78132 5.542238,5.779514 5.542142,5.777191 5.542084,5.739624 5.542331,5.726803 5.542191,5.714567 5.542024,5.703134 5.542131,5.692958 5.542234,5.688918 5.542073,5.684488 5.542206,5.681916 5.54221,5.542211 5.675689,5.542088 5.676854,5.542087 5.681568,5.542046 5.688126,5.542268 5.697585,5.542097 5.708363,5.542195 5.720318,5.542088 5.722796,5.542227 5.732717,5.542121 5.736483,5.541946" style="fill: white" /><polygon type="contour" points="5.092619,5.803326 5.091779,5.812348 5.092562,5.840735 5.092592,5.868167 5.091698,5.892654 5.092627,5.913734 5.092203,5.928954 5.092256,5.949427 5.09229,5.965351 5.092468,5.980958 5.090855,5.981439 5.092078,6.018899 5.091699,6.035306 5.091699,6.053474 5.092139,6.062023 5.091745,6.072098 5.091476,6.0808 5.091783,6.089434 5.091844,6.10335 5.091325,6.160802 4.949826,6.160855 4.758984,6.160855 4.759038,6.094775 4.758977,6.0808 4.759291,6.077547 4.758605,6.058636 4.759304,6.040899 4.759344,6.036059 4.759381,6.03485 4.758848,6.016961 4.759542,6.000646 4.759246,5.985556 4.759246,5.975185 4.75927,5.959748 4.75927,5.954423 4.76006,5.937501 4.758689,5.919809 4.760192,5.898287 4.759858,5.875609 4.759275,5.849418 4.759323,5.542296 4.939845,5.542021 5.091677,5.542021" style="fill: white" /><polygon type="contour" points="4.334978,5.819876 4.335316,5.84221 4.334606,5.868793 4.334833,5.899176 4.334702,5.928955 4.334706,5.947267 4.334764,5.971004 4.335014,5.996585 4.335012,5.996781 4.334985,5.997683 4.335013,5.999822 4.334812,6.024202 4.334904,6.027799 4.335127,6.052919 4.334966,6.073612 4.335155,6.089897 4.335339,6.100896 4.335108,6.160855 4.269244,6.160749 4.139284,6.160749 4.139284,6.126786 4.139576,6.10335 4.139738,6.099155 4.139194,6.08743 4.139526,6.069524 4.139388,6.048138 4.139633,6.023874 4.139566,6.020335 4.1394,5.994627 4.139443,5.992453 4.139412,5.991505 4.139465,5.991258 4.139062,5.9653 4.139027,5.960794 4.13922,5.935134 4.139248,5.921782 4.139382,5.894173 4.139159,5.864676 4.139412,5.842209 4.139491,5.816357 4.13918,5.797168 4.139172,5.542355 4.218829,5.542355 4.33469,5.542296" style="fill: white" /><polygon type="contour" points="3.54419,7.024169 3.574667,7.02417 3.620386,7.024169 3.620409,7.026394 3.620511,7.328884 3.620708,7.458167 3.620681,7.608206 3.620587,7.910202 3.620404,8.559665 3.542598,8.551787 3.382637,8.57972 3.382756,7.931873 3.382713,7.618394 3.382853,7.541637 3.382628,7.397577 3.382386,7.023694" style="fill: white" /><polygon type="contour" points="3.578267,6.614478 3.62035,6.614478 3.620305,6.691573 3.620335,6.715417 3.477535,6.715417 3.478104,6.640895 3.478044,6.613985" style="fill: white" /><polygon type="contour" points="4.334894,6.691574 4.334959,6.715417 4.139658,6.715417 4.139451,6.641407 4.139378,6.614478 4.334678,6.614478" style="fill: white" /><polygon type="contour" points="4.335227,7.02417 4.335191,7.445841 4.334921,7.601123 4.334889,8.530365 4.296201,8.530503 4.221094,8.495631 4.183992,8.546926 4.13963,8.538356 4.139574,8.341769 4.139596,8.329358 4.139628,8.178275 4.139313,7.601431 4.139192,7.446069 4.139451,7.024169 4.2727,7.024169" style="fill: white" /><polygon type="contour" points="5.091694,7.03423 5.091897,7.045137 5.091877,7.099585 5.091877,7.497571 5.091954,7.539202 5.091708,7.695924 5.091554,7.724803 5.09201,8.037913 5.091316,8.095897 5.091366,8.107496 5.091846,8.506397 4.952415,8.493023 4.759105,8.516279 4.75885,8.350711 4.759438,8.097262 4.759235,7.886893 4.759508,7.72401 4.759446,7.68304 4.759447,7.068808 4.759434,7.034895 4.759273,7.028254 4.759147,7.02417 4.985195,7.02417 5.091647,7.024169" style="fill: white" /><polygon type="contour" points="5.091652,6.691572 5.091571,6.715505 4.831406,6.715505 4.759165,6.715416 4.759444,6.641407 4.759417,6.614478 5.091917,6.614478" style="fill: white" /><polygon type="contour" points="5.786499,6.691572 5.78662,6.715417 5.586743,6.715417 5.542339,6.715505 5.542343,6.642266 5.542345,6.614478 5.725884,6.613913 5.786818,6.613913" style="fill: white" /><polygon type="contour" points="5.788215,7.267813 5.78855,7.371371 5.78937,7.649445 5.789701,7.758165 5.79017,7.942545 5.790134,7.963775 5.790228,8.095897 5.790455,8.16304 5.790899,8.240917 5.791006,8.267756 5.791639,8.510094 5.625082,8.509549 5.542341,8.534227 5.542116,7.601123 5.541959,7.445841 5.542109,7.024169 5.787419,7.024169" style="fill: white" /><polygon type="contour" points="5.632584,10.617837 5.791639,10.62161 5.791006,10.863948 5.7909,10.890786 5.790455,10.968663 5.790228,11.035806 5.790134,11.167928 5.79017,11.189158 5.789701,11.373538 5.789371,11.482257 5.789332,11.514713 5.787481,12.082395 5.787431,12.103449 5.787419,12.107535 5.54211,12.107535 5.542091,12.105309 5.542028,11.846159 5.542246,11.727976 5.542424,11.530581 5.54258,11.207757 5.542319,10.589705" style="fill: white" /><polygon type="contour" points="5.016421,10.639631 5.092016,10.630248 5.091975,10.696344 5.091532,11.035031 5.091856,11.196401 5.091554,11.406899 5.091954,11.5925 5.091877,11.634132 5.091877,12.032118 5.091897,12.086566 5.091773,12.103449 5.091647,12.107535 4.759146,12.107535 4.759238,12.103543 4.759434,12.096809 4.759446,12.062894 4.759446,11.448663 4.759507,11.407694 4.759341,11.268264 4.759235,11.244809 4.758858,11.036515 4.758748,11.031531 4.758847,10.967235 4.758847,10.628651 4.759563,10.613779 4.837152,10.604623" style="fill: white" /><polygon type="contour" points="4.265797,10.600816 4.335133,10.577566 4.335056,11.20486 4.334949,11.523811 4.335058,11.675551 4.335315,11.804407 4.335226,12.107535 4.139451,12.107535 4.139364,11.657627 4.139534,11.502214 4.139573,11.449953 4.139442,11.150958 4.139477,10.549618" style="fill: white" /><polygon type="contour" points="3.620651,11.533157 3.620486,11.688423 3.620386,12.107535 3.382386,12.107535 3.382486,11.688423 3.38265,11.533157 3.382821,10.755446 3.382811,10.696728 3.382818,10.692259 3.382819,10.646239 3.382789,10.622852 3.450599,10.642402 3.62009,10.621474" style="fill: white" /><polygon type="contour" points="3.620703,12.99785 3.62061,13.028352 3.620793,13.038015 3.620579,13.050903 3.620865,13.072482 3.620356,13.096397 3.620334,13.099623 3.620665,13.124924 3.620665,13.127338 3.620242,13.154417 3.620214,13.155534 3.619995,13.18137 3.62051,13.208686 3.62054,13.233415 3.620057,13.256727 3.620409,13.257554 3.620125,13.307175 3.620514,13.308643 3.620514,13.309221 3.620285,13.328587 3.620721,13.333343 3.62071,13.354173 3.62039,13.589526 3.536132,13.589526 3.477718,13.589493 3.4635,13.589595 3.458514,13.589203 3.372841,13.589203 3.368688,13.589477 3.287495,13.589506 3.287292,13.503273 3.287292,13.256509 3.371101,13.256355 3.382697,13.256304 3.477887,13.256396 3.477639,13.188866 3.477627,13.188688 3.477914,13.184399 3.477409,13.163297 3.477795,13.135329 3.477796,13.133357 3.477866,13.124307 3.477731,13.1047 3.477747,13.101549 3.477699,13.075901 3.477774,13.056601 3.478046,13.04064 3.477714,13.031125 3.477811,13.028353 3.477922,12.970913 3.519512,12.970708 3.620516,12.970708" style="fill: white" /><polygon type="contour" points="3.620389,12.490296 3.620349,12.517226 3.520126,12.517719 3.478044,12.517719 3.477505,12.440131 3.477535,12.416288 3.507695,12.416288 3.620333,12.416287" style="fill: white" /><polygon type="contour" points="4.334752,12.490295 4.334678,12.517226 4.139378,12.517226 4.139593,12.44013 4.139658,12.416288 4.33496,12.416288" style="fill: white" /><polygon type="contour" points="4.335176,13.028352 4.335339,13.030807 4.335156,13.041805 4.334966,13.058091 4.335127,13.078782 4.334904,13.103902 4.334812,13.107499 4.335013,13.13188 4.334985,13.134019 4.335012,13.134921 4.335014,13.135118 4.334764,13.160701 4.334706,13.184434 4.334702,13.202749 4.334434,13.233414 4.334605,13.26291 4.334856,13.288011 4.334977,13.311826 4.334831,13.329331 4.334689,13.589407 4.218829,13.589349 4.139172,13.589349 4.13918,13.334535 4.139707,13.316005 4.139729,13.293032 4.139159,13.267027 4.139628,13.238406 4.139248,13.209919 4.139403,13.202749 4.139378,13.190061 4.139027,13.170909 4.139062,13.166403 4.139464,13.140446 4.139412,13.1402 4.139443,13.139251 4.139399,13.137076 4.139566,13.111368 4.139633,13.107829 4.139388,13.083566 4.139526,13.062178 4.139194,13.044272 4.139737,13.032548 4.139576,13.028353 4.139284,12.970954 4.222609,12.970849 4.335108,12.970849" style="fill: white" /><polygon type="contour" points="5.091325,12.970902 5.091325,13.00054 5.091844,13.028353 5.091783,13.042269 5.091476,13.050903 5.091745,13.059605 5.092139,13.069678 5.091698,13.078228 5.0917,13.096397 5.092682,13.131836 5.092469,13.150632 5.09229,13.166352 5.092256,13.182276 5.092381,13.199144 5.092627,13.217969 5.092343,13.238405 5.092137,13.262725 5.091683,13.289494 5.091779,13.319354 5.091676,13.589683 4.939846,13.589683 4.759323,13.589407 4.760296,13.310673 4.759273,13.282283 4.759858,13.256095 4.75972,13.232526 4.758689,13.211895 4.759398,13.19553 4.75927,13.177281 4.75927,13.161303 4.759577,13.146793 4.758865,13.1319 4.759422,13.117019 4.758636,13.103082 4.759488,13.090136 4.759354,13.058908 4.75929,13.054156 4.759159,13.037288 4.758983,12.970849 4.949826,12.970849" style="fill: white" /><polygon type="contour" points="5.091821,12.489435 5.091917,12.517226 4.759416,12.517226 4.759152,12.440131 4.759165,12.416288 5.021436,12.416288 5.091571,12.416199" style="fill: white" /><polygon type="contour" points="5.78662,12.416288 5.786978,12.491852 5.786818,12.51779 5.725883,12.51779 5.542345,12.517226 5.54234,12.44013 5.542339,12.416199 5.74061,12.416199" style="fill: white" /><polygon type="contour" points="5.670975,12.970992 5.785124,12.970992 5.785093,13.028352 5.784907,13.03657 5.784647,13.050859 5.78471,13.068048 5.784747,13.09278 5.784763,13.095969 5.784621,13.123077 5.784639,13.123584 5.784634,13.125652 5.784667,13.126257 5.785039,13.150994 5.785039,13.158077 5.784965,13.182669 5.784975,13.182706 5.78495,13.1828 5.784484,13.204549 5.784208,13.226174 5.784473,13.240329 5.784384,13.347319 5.89137,13.347227 5.923873,13.34784 5.924529,13.347174 5.947052,13.34702 5.947424,13.347103 5.977954,13.346993 6.005436,13.347064 6.00636,13.347084 6.008117,13.347063 6.008624,13.347081 6.035732,13.346937 6.03892,13.346954 6.061993,13.346961 6.08084,13.347054 6.094774,13.346558 6.103349,13.346608 6.160994,13.346597 6.160994,13.58948 6.133851,13.589499 6.10335,13.58959 6.093684,13.589407 6.078976,13.589734 6.05922,13.589337 6.035303,13.589264 6.010023,13.589525 6.006776,13.589535 6.004808,13.58956 6.004222,13.589489 5.977126,13.589276 5.976677,13.58932 5.976336,13.589291 5.961079,13.589302 5.933525,13.589523 5.90356,13.589446 5.874778,13.589162 5.847902,13.589302 5.823263,13.589754 5.803051,13.589363 5.789502,13.589187 5.781319,13.58952 5.779512,13.589463 5.745624,13.589443 5.736483,13.589758 5.732717,13.589582 5.722796,13.589477 5.720318,13.589616 5.708363,13.589509 5.698407,13.589641 5.688915,13.589468 5.681568,13.589658 5.676854,13.589617 5.54221,13.589493 5.542206,13.449787 5.542073,13.447216 5.542234,13.442786 5.542131,13.438745 5.542024,13.428569 5.542191,13.417136 5.542331,13.4049 5.542084,13.392079 5.542142,13.354512 5.542238,13.35219 5.542183,13.350382 5.542343,13.343367 5.5424,13.329332 5.541948,13.308438 5.5424,13.283799 5.54254,13.256924 5.542256,13.22814 5.542252,13.202749 5.542399,13.171955 5.542384,13.156233 5.542378,13.149677 5.542215,13.127946 5.542182,13.126949 5.542156,13.124489 5.542176,13.121677 5.542437,13.096397 5.542365,13.072482 5.541967,13.052724 5.542145,13.037372 5.542111,13.028352 5.542221,12.970708" style="fill: white" /><polygon type="contour" points="6.691572,13.345203 6.715415,13.345082 6.715415,13.544958 6.715504,13.589363 6.642266,13.589358 6.614476,13.589356 6.613912,13.405818 6.613912,13.344884" style="fill: white" /><polygon type="contour" points="6.160853,14.181874 6.160853,14.372718 6.10335,14.372756 6.089432,14.372418 6.072097,14.372455 6.053473,14.372502 6.035304,14.372503 6.030462,14.37247 6.012432,14.372041 5.980355,14.373192 5.980176,14.373393 5.949426,14.371945 5.928953,14.371999 5.913731,14.371574 5.892651,14.372505 5.868976,14.372694 5.840735,14.37164 5.542294,14.372379 5.542019,14.191854 5.542019,14.040025 5.788291,14.039801 5.812345,14.039922 5.840734,14.039141 5.868977,14.039564 5.892651,14.040003 5.913731,14.039075 5.928953,14.0395 5.949425,14.039445 5.980795,14.039487 5.981038,14.039231 5.981793,14.039271 5.983243,14.039247 5.99793,14.040047 6.014082,14.039465 6.018898,14.039624 6.035304,14.040002 6.053473,14.040003 6.072096,14.039955 6.089432,14.039919 6.103349,14.039857 6.160994,14.038904" style="fill: white" /><polygon type="contour" points="6.691572,14.040049 6.715504,14.040131 6.715504,14.300296 6.715415,14.372537 6.641406,14.372258 6.614477,14.372285 6.614477,14.039785" style="fill: white" /><polygon type="contour" points="7.497568,14.039826 7.539202,14.039749 7.695921,14.039993 7.724802,14.040148 8.037912,14.039691 8.095896,14.040384 8.107495,14.040333 8.506396,14.039855 8.493021,14.179284 8.516278,14.372595 8.35071,14.37285 8.097261,14.372263 7.886893,14.372466 7.724008,14.372196 7.683038,14.372256 7.068807,14.372256 7.034892,14.372268 7.028252,14.372429 7.024168,14.372556 7.024168,14.040057 7.034324,14.039336 7.045295,14.038786 7.10004,14.037816" style="fill: white" /><polygon type="contour" points="7.44584,14.796509 7.601121,14.796782 8.530364,14.796812 8.530502,14.835499 8.495629,14.910607 8.546924,14.94771 8.538354,14.99207 8.341766,14.992127 8.329357,14.992105 8.178272,14.992074 7.601429,14.992389 7.446067,14.992511 7.024168,14.992253 7.024168,14.796475" style="fill: white" /><polygon type="contour" points="6.691571,15.511395 6.715415,15.511365 6.715415,15.654166 6.640893,15.653597 6.613983,15.653657 6.614477,15.553433 6.614477,15.511351" style="fill: white" /><polygon type="contour" points="6.715415,14.992045 6.641406,14.99225 6.614477,14.992323 6.614477,14.797025 6.691572,14.796808 6.715415,14.796744" style="fill: white" /><polygon type="contour" points="6.160853,14.796594 6.160748,14.862456 6.160748,14.992417 6.126784,14.992417 6.10335,14.992125 6.093767,14.99234 6.080797,14.992126 6.059219,14.992616 6.035884,14.992126 6.011229,14.992153 6.007624,14.992216 6.00552,14.992168 5.976521,14.99226 5.975342,14.992291 5.97081,14.992261 5.959745,14.992239 5.935512,14.992142 5.907323,14.992512 5.878545,14.992433 5.851556,14.99218 5.826595,14.992277 5.805672,14.992201 5.542354,14.99253 5.542354,14.912872 5.542294,14.797012 5.826595,14.796975 5.851555,14.79688 5.878544,14.797134 5.907324,14.796561 5.935512,14.796842 5.959745,14.79694 5.974922,14.796938 5.975343,14.796937 5.976521,14.79696 6.00552,14.796867 6.007623,14.796835 6.011228,14.796755 6.037898,14.79684 6.05922,14.796616 6.078477,14.796387 6.093768,14.796341" style="fill: white" /><polygon type="contour" points="5.90356,15.510947 5.928953,15.510949 5.947302,15.510934 5.975583,15.511444 5.977281,15.511459 6.004362,15.511035 6.006775,15.511035 6.010023,15.511024 6.035304,15.511344 6.059219,15.510836 6.078977,15.511234 6.093684,15.510907 6.10335,15.511092 6.160789,15.510981 6.160789,15.653781 6.155041,15.653758 6.138868,15.653843 6.133941,15.653905 6.10335,15.653891 6.100576,15.653989 6.09106,15.653657 6.0751,15.653927 6.054642,15.653759 6.030151,15.653952 6.010627,15.653825 6.007394,15.653836 5.998344,15.653905 5.995886,15.653906 5.994667,15.653907 5.969042,15.654271 5.942994,15.65405 5.942867,15.654075 5.875306,15.653839 5.875397,15.749005 5.875347,15.760601 5.875315,15.762424 5.875191,15.84441 5.628427,15.84441 5.542195,15.844208 5.542499,15.75886 5.542108,15.668202 5.54221,15.653981 5.54221,15.549978 5.542171,15.511032 5.788334,15.511375 5.802367,15.511347 5.822481,15.511187 5.842809,15.511204 5.847755,15.511073 5.868791,15.510801 5.874777,15.510662" style="fill: white" /><polygon type="contour" points="4.334747,15.612246 4.334656,15.653758 4.277802,15.653735 4.138971,15.65412 4.138971,15.511317 4.277801,15.510936 4.334747,15.510936" style="fill: white" /><polygon type="contour" points="5.091677,15.511181 5.091677,15.653982 4.865874,15.653708 4.759392,15.653758 4.759394,15.612247 4.759394,15.510936 4.865873,15.510908" style="fill: white" /><polygon type="contour" points="5.092221,14.912872 5.092221,14.99253 4.865873,14.992312 4.759394,14.992459 4.759394,14.8539 4.759392,14.797047 5.007212,14.797047 5.092298,14.797012" style="fill: white" /><polygon type="contour" points="4.334656,14.797047 4.334656,14.942303 4.334747,14.992459 4.212332,14.992731 4.138971,14.992731 4.139243,14.853899 4.139243,14.796954 4.277802,14.796954" style="fill: white" /><polygon type="contour" points="4.33469,14.265827 4.334655,14.37231 4.189397,14.37231 4.139243,14.372308 4.139389,14.265828 4.139172,14.039481 4.272106,14.039404 4.33469,14.039404" style="fill: white" /><polygon type="contour" points="3.620794,14.265827 3.620766,14.372308 3.519454,14.372309 3.477944,14.372311 3.477994,14.265828 3.477719,14.040025 3.62052,14.040025" style="fill: white" /><polygon type="contour" points="3.620383,14.919368 3.620383,14.992731 3.477584,14.992731 3.47753,14.92722 3.477944,14.797047 3.519454,14.796955 3.620766,14.796954" style="fill: white" /><polygon type="contour" points="3.372841,15.511332 3.458514,15.511332 3.461406,15.511208 3.477681,15.511222 3.620481,15.511222 3.620481,15.65402 3.620495,15.670296 3.620371,15.75886 3.620724,15.763015 3.620815,15.844085 3.553642,15.844241 3.552071,15.844513 3.287466,15.844236 3.287466,15.783289 3.287673,15.690698 3.287495,15.511005" style="fill: white" />
</svg>
