<svg width="19.131698" height="19.131699">
<polygon type="contour" points="10.038786,10.531281 10.038786,10.551085 10.038774,10.62733 10.038774,10.685698 10.038786,10.775439 9.948771,10.775222 9.895174,10.775359 9.895174,10.942664 9.885069,10.942867 9.528635,10.942734 9.528635,10.942761 9.522842,10.942693 9.236527,10.942664 9.236527,10.775359 9.182929,10.775222 9.092913,10.775439 9.092913,10.753911 9.092926,10.670035 9.092926,10.612921 9.092913,10.531281 9.114438,10.531281 9.197407,10.531124 9.948771,10.531124" style="fill: white" /><polygon type="contour" points="10.627328,10.531326 10.685695,10.531326 10.775437,10.531281 10.77563,10.61292 10.77575,10.670254 10.907591,10.670254 10.931715,10.670217 10.94247,10.670217 10.944394,10.846546 10.947337,10.947339 10.674317,10.942421 10.670153,10.942475 10.670126,10.935687 10.670126,10.929003 10.670083,10.923438 10.670238,10.775751 10.612919,10.775632 10.531279,10.775439 10.531279,10.753911 10.531323,10.670035 10.531323,10.61292 10.531279,10.531281 10.551083,10.531281" style="fill: white" /><polygon type="contour" points="10.944394,8.285157 10.94247,8.461487 10.931715,8.461487 10.907591,8.46145 10.77575,8.46145 10.775631,8.518782 10.775437,8.600424 10.75391,8.600424 10.670034,8.600379 10.612919,8.600379 10.531279,8.600424 10.531279,8.580618 10.531323,8.504374 10.531323,8.446005 10.531279,8.356266 10.612918,8.356072 10.670178,8.355952 10.670084,8.220288 10.670084,8.208266 10.670126,8.196016 10.670119,8.192997 10.670153,8.189229 10.674317,8.189283 10.947337,8.184365" style="fill: white" /><polygon type="contour" points="10.627328,9.092928 10.685695,9.092928 10.775437,9.092915 10.775221,9.18293 10.775355,9.236573 10.942609,9.236573 10.942713,9.266724 10.942382,9.602616 10.942455,9.602616 10.942305,9.655037 10.942609,9.895132 10.775355,9.895132 10.775221,9.948774 10.775437,10.038788 10.75391,10.038788 10.670033,10.038776 10.612918,10.038776 10.531279,10.038788 10.531279,10.017261 10.531122,9.934295 10.531122,9.182929 10.531279,9.092915 10.551084,9.092915" style="fill: white" /><polygon type="contour" points="8.457382,8.189283 8.461547,8.189229 8.461574,8.196016 8.461574,8.202699 8.461616,8.208267 8.461461,8.355952 8.51878,8.356071 8.600422,8.356266 8.600422,8.377792 8.600378,8.461668 8.600378,8.518783 8.600422,8.600424 8.580617,8.600424 8.504372,8.600379 8.446004,8.600379 8.356264,8.600424 8.356068,8.518782 8.355949,8.46145 8.224108,8.46145 8.199984,8.461487 8.189229,8.461487 8.187306,8.285157 8.184363,8.184365" style="fill: white" /><polygon type="contour" points="9.603064,8.188969 9.603064,8.188942 9.608856,8.18901 9.895174,8.18904 9.895174,8.356348 9.948772,8.356482 10.038786,8.356266 10.038786,8.377791 10.038774,8.461668 10.038774,8.518783 10.038786,8.600424 10.017259,8.600424 9.934293,8.600578 9.182928,8.600578 9.092913,8.600424 9.092913,8.580618 9.092926,8.504373 9.092926,8.446006 9.092913,8.356266 9.182929,8.356482 9.236527,8.356348 9.236527,8.18904 9.246631,8.188837" style="fill: white" /><polygon type="contour" points="9.197407,9.093014 9.948771,9.093014 10.038786,9.092915 10.038786,9.114441 10.038687,9.197409 10.038687,9.948774 10.038786,10.038788 10.017259,10.038788 9.934293,10.03869 9.182929,10.03869 9.092913,10.038788 9.092913,10.01726 9.093013,9.934294 9.093013,9.18293 9.092913,9.092915 9.114438,9.092915" style="fill: white" /><polygon type="contour" points="8.461666,9.092928 8.51878,9.092928 8.600422,9.092915 8.600422,9.114442 8.600577,9.197409 8.600577,9.948774 8.600422,10.038788 8.580616,10.038788 8.504371,10.038776 8.446003,10.038776 8.356264,10.038788 8.35648,9.948774 8.356342,9.895132 8.18909,9.895132 8.188987,9.86498 8.189316,9.529087 8.189244,9.529087 8.189394,9.476666 8.189091,9.236573 8.356342,9.236573 8.35648,9.18293 8.356264,9.092915 8.37779,9.092915" style="fill: white" /><polygon type="contour" points="8.461665,10.531326 8.51878,10.531326 8.600422,10.531281 8.600422,10.551085 8.600378,10.627329 8.600378,10.685698 8.600422,10.775439 8.51878,10.775632 8.461521,10.775751 8.461616,10.911416 8.461616,10.923438 8.461574,10.935687 8.461581,10.938706 8.461547,10.942475 8.457382,10.942421 8.184363,10.947339 8.187306,10.846546 8.189229,10.670217 8.199984,10.670217 8.224108,10.670254 8.355949,10.670254 8.356068,10.612921 8.356264,10.531281 8.377789,10.531281" style="fill: white" />
</svg>
