<svg width="19.131698" height="19.131699">
<polygon type="contour" points="10.893556,10.78155 10.893837,10.893839 10.877378,10.893373 10.622808,10.896672 10.622525,10.887411 10.622525,10.878522 10.622483,10.8777 10.621924,10.783618 10.620818,10.62082 10.894208,10.62082" style="fill: white" /><polygon type="contour" points="9.841292,9.841294 9.290408,9.841294 9.290408,9.290411 9.841292,9.290411" style="fill: white" /><polygon type="contour" points="9.840543,10.131502 9.840552,10.248526 9.84043,10.332696 9.8404,10.355102 9.291298,10.355102 9.291267,10.332696 9.291147,10.248149 9.291158,10.131503 9.291158,10.111556 9.840543,10.111556" style="fill: white" /><polygon type="contour" points="9.020146,10.131502 9.019672,10.246994 9.02016,10.258367 9.021075,10.355165 8.930691,10.355618 8.873335,10.355618 8.776051,10.355102 8.775981,10.271967 8.776085,10.258367 8.776085,10.201372 8.775981,10.111645 8.881029,10.111923 8.881029,10.112045 8.900761,10.111975 8.923179,10.112035 8.923179,10.111896 9.020146,10.111556" style="fill: white" /><polygon type="contour" points="9.021075,10.620286 9.020146,10.641994 9.020146,10.726582 8.881048,10.726448 8.881048,10.726482 8.797288,10.726385 8.776051,10.726389 8.776051,10.620141 8.798758,10.620141 8.923199,10.620128 8.927993,10.620128" style="fill: white" /><polygon type="contour" points="8.510882,10.644181 8.509774,10.783619 8.509217,10.865689 8.509217,10.877699 8.509175,10.887411 8.509122,10.888385 8.508892,10.896672 8.254322,10.893373 8.237864,10.893839 8.238188,10.881927 8.238464,10.868072 8.23855,10.862578 8.237762,10.62082 8.510882,10.62082" style="fill: white" /><polygon type="contour" points="8.427109,10.111645 8.511415,10.111645 8.511415,10.131703 8.511574,10.2107 8.511561,10.355102 8.405314,10.355102 8.405221,10.258366 8.405221,10.2085 8.405162,10.130349 8.405121,10.111556" style="fill: white" /><polygon type="contour" points="8.509175,8.244293 8.509175,8.253182 8.509217,8.254003 8.509775,8.348085 8.510882,8.510884 8.23749,8.510884 8.238143,8.350153 8.237864,8.237865 8.254322,8.238331 8.508892,8.235033" style="fill: white" /><polygon type="contour" points="8.511427,8.796763 8.511612,8.905995 8.511415,9.021077 8.489706,9.020148 8.405121,9.020148 8.405254,8.88105 8.405221,8.88105 8.405317,8.797289 8.405314,8.776052 8.488064,8.773711 8.511427,8.773711" style="fill: white" /><polygon type="contour" points="8.338967,9.290164 8.510795,9.290423 8.510882,9.705027 8.510882,9.842724 8.349321,9.841714 8.338966,9.841539 8.255966,9.841625 8.237269,9.841625 8.235404,9.590562 8.235268,9.585067 8.235149,9.578661 8.234946,9.574607 8.234842,9.565502 8.234946,9.556434 8.23515,9.55239 8.235269,9.545999 8.235405,9.54052 8.237269,9.290079 8.255966,9.290079" style="fill: white" /><polygon type="contour" points="9.020146,9.29116 9.020146,9.840544 9.000198,9.840544 8.880944,9.840554 8.873334,9.840902 8.776051,9.84147 8.776051,9.291299 8.798454,9.291268 8.883614,9.291149" style="fill: white" /><polygon type="contour" points="9.020159,8.873336 9.01983,8.88103 9.01983,8.930256 9.020146,9.020148 9.000198,9.020148 8.884698,9.019675 8.873334,9.020163 8.775981,9.021077 8.775981,9.000001 8.776085,8.9232 8.776085,8.873336 8.776051,8.776052 8.798758,8.776052 8.881033,8.776087 8.93069,8.776087 9.021074,8.775983" style="fill: white" /><polygon type="contour" points="9.021075,8.427111 9.021075,8.511418 8.999999,8.511418 8.902402,8.511612 8.77371,8.511429 8.77371,8.488066 8.776051,8.405315 8.873335,8.405222 8.923201,8.405222 9.001352,8.405163 9.020146,8.405122" style="fill: white" /><polygon type="contour" points="9.566198,8.234847 9.57931,8.235153 9.585701,8.235272 9.59118,8.235408 9.602899,8.235551 9.841627,8.237328 9.84171,8.349324 9.842721,8.510884 9.543266,8.510586 9.290495,8.510586 9.290433,8.468029 9.290129,8.298426 9.290074,8.237328 9.529391,8.235551 9.541139,8.235408 9.546632,8.235271 9.553038,8.235153 9.560073,8.234833" style="fill: white" /><polygon type="contour" points="10.877378,8.238331 10.893837,8.237865 10.893511,8.249775 10.893236,8.26363 10.893149,8.269126 10.893936,8.510884 10.620818,8.510884 10.620818,8.487522 10.621925,8.348084 10.622483,8.266014 10.622483,8.254003 10.622525,8.244293 10.622578,8.243317 10.622808,8.235032" style="fill: white" /><polygon type="contour" points="10.703373,8.776052 10.726387,8.776052 10.72648,8.873337 10.72648,8.923203 10.726539,9.001354 10.72658,9.020148 10.70459,9.021077 10.620285,9.021077 10.620285,9.000001 10.620089,8.902483 10.620273,8.773711" style="fill: white" /><polygon type="contour" points="10.250652,8.405255 10.250652,8.405222 10.333851,8.405319 10.355101,8.405315 10.355101,8.428327 10.35799,8.511429 10.334938,8.511429 10.250666,8.511571 10.225871,8.511612 10.111643,8.511418 10.111554,8.48971 10.111554,8.405122" style="fill: white" /><polygon type="contour" points="9.84043,8.798455 9.840552,8.883192 9.840543,9.000201 9.840543,9.020148 9.291158,9.020148 9.291158,9.0002 9.291147,8.883571 9.291267,8.798455 9.291298,8.776052 9.841467,8.776052" style="fill: white" /><polygon type="contour" points="10.20137,8.776087 10.258365,8.776087 10.355101,8.776052 10.355162,8.859735 10.355616,8.873337 10.355616,8.930692 10.355163,9.021077 10.258365,9.020163 10.250672,9.019833 10.201444,9.019833 10.111554,9.020148 10.111554,9.0002 10.112044,8.881031 10.111871,8.881031 10.111902,8.873337 10.111643,8.775983" style="fill: white" /><polygon type="contour" points="10.258364,9.291162 10.355101,9.291299 10.355101,9.840403 10.332695,9.840433 10.250671,9.840551 10.248144,9.840554 10.111554,9.840544 10.111554,9.29116 10.131501,9.29116 10.247917,9.291149" style="fill: white" /><polygon type="contour" points="10.896295,9.541142 10.896431,9.546635 10.896549,9.553041 10.896754,9.557097 10.896859,9.566201 10.896754,9.57527 10.896549,9.579313 10.89643,9.585704 10.896295,9.591183 10.894431,9.841625 10.875733,9.841625 10.792732,9.84154 10.620905,9.84128 10.620905,9.290423 10.792732,9.290164 10.875733,9.290079 10.894431,9.290079" style="fill: white" /><polygon type="contour" points="10.641993,10.111556 10.72658,10.111556 10.726446,10.250654 10.72648,10.250654 10.726384,10.333853 10.726387,10.355102 10.620139,10.355102 10.620139,10.332394 10.620126,10.208503 10.620126,10.203708 10.620285,10.110628" style="fill: white" /><polygon type="contour" points="10.355163,10.131703 10.355616,10.208502 10.355616,10.258367 10.355101,10.355102 10.332394,10.355102 10.250666,10.355618 10.22869,10.355756 10.110626,10.355165 10.111541,10.258367 10.111871,10.250674 10.111871,10.201446 10.111554,10.111556 10.1315,10.111556 10.246992,10.112029 10.258365,10.111542 10.355163,10.110628" style="fill: white" /><polygon type="contour" points="10.355101,10.620141 10.355101,10.726389 10.258364,10.726482 10.208497,10.726482 10.130348,10.726541 10.111554,10.726582 10.110626,10.704592 10.110626,10.620286 10.1317,10.620286 10.210488,10.620129" style="fill: white" /><polygon type="contour" points="9.841354,10.675568 9.841627,10.852294 9.841627,10.894376 9.602308,10.896153 9.590559,10.896296 9.585067,10.896432 9.57866,10.896552 9.571626,10.896873 9.565501,10.896859 9.552389,10.896551 9.545998,10.896432 9.540519,10.896297 9.528799,10.896153 9.290074,10.894376 9.290074,10.852294 9.290425,10.620966 9.841276,10.620966" style="fill: white" />
</svg>
