<svg width="19.131698" height="19.131699">
<polygon type="contour" points="9.282245,9.13184 9.282245,9.189745 9.282316,9.250523 9.282316,9.282318 9.203185,9.282247 9.145076,9.282247 9.084015,9.282318 9.05294,9.282318 9.054076,9.203187 9.05402,9.189798 9.054269,9.189798 9.053683,9.084515 9.053683,9.053686 9.131911,9.054021 9.189796,9.054021 9.203184,9.053976 9.282324,9.053579" style="fill: white" /><polygon type="contour" points="8.915615,9.131913 8.915615,9.189798 8.91572,9.203187 8.916038,9.282318 8.783021,9.282318 8.783118,9.203186 8.783217,9.166018 8.783114,9.131912 8.782981,9.053686 8.915754,9.053686" style="fill: white" /><polygon type="contour" points="8.847623,8.615658 8.913925,8.615349 8.915336,8.658505 8.915336,8.700585 8.915314,8.707513 8.915177,8.867218 8.915177,8.915179 8.807452,8.915179 8.668687,8.915311 8.616119,8.915311 8.614986,8.812436 8.614183,8.792523 8.608727,8.608729" style="fill: white" /><polygon type="contour" points="9.13191,8.783115 9.166016,8.783219 9.203184,8.78312 9.282316,8.783023 9.282316,8.9158 9.203184,8.915621 9.189796,8.915617 9.131911,8.915617 9.053683,8.915756 9.053683,8.782983" style="fill: white" /><polygon type="contour" points="9.621252,8.616254 9.640659,8.616281 9.711101,8.615941 9.711101,8.915638 9.4206,8.915638 9.4206,8.615941 9.490703,8.616281 9.5655,8.614855" style="fill: white" /><polygon type="contour" points="10.517135,9.537155 10.516997,9.565502 10.516589,9.690954 10.516686,9.711102 10.215812,9.711102 10.215812,9.524976 10.216063,9.420602 10.516685,9.420602" style="fill: white" /><polygon type="contour" points="10.517517,8.792523 10.516715,8.812435 10.515581,8.915311 10.463012,8.915311 10.324247,8.915179 10.216522,8.915179 10.216384,8.780725 10.216384,8.707513 10.216364,8.658505 10.216573,8.653842 10.217775,8.615349 10.284076,8.615658 10.522973,8.608729" style="fill: white" /><polygon type="contour" points="10.348587,9.131912 10.348483,9.166018 10.348583,9.203186 10.34868,9.282318 10.215901,9.282318 10.216081,9.203186 10.216085,9.189798 10.216085,9.131913 10.215945,9.053686 10.34872,9.053686" style="fill: white" /><polygon type="contour" points="10.078016,8.915756 9.999787,8.915617 9.941903,8.915617 9.928515,8.91562 9.849385,8.9158 9.849385,8.783023 9.928515,8.78312 9.965684,8.783219 9.999788,8.783116 10.078016,8.782983" style="fill: white" /><polygon type="contour" points="9.928515,9.053976 9.969765,9.054114 10.047188,9.053686 10.078016,9.053686 10.07768,9.131912 10.07768,9.189797 10.077726,9.203187 10.078999,9.282318 9.999861,9.282247 9.928514,9.282247 9.91023,9.282318 9.849385,9.282318 9.849456,9.203187 9.849456,9.13184 9.849385,9.052702" style="fill: white" /><polygon type="contour" points="9.711101,9.282318 9.4206,9.282318 9.4206,9.053579 9.711101,9.053579" style="fill: white" /><polygon type="contour" points="9.282316,9.849387 9.282245,9.928516 9.282245,9.999762 9.282324,10.077887 9.203185,10.077627 9.189796,10.077682 9.189796,10.077434 9.084513,10.078017 9.053683,10.078017 9.05402,9.999789 9.05402,9.941905 9.054076,9.928517 9.053815,9.849379 9.13194,9.849458 9.203184,9.849458 9.221278,9.849379" style="fill: white" /><polygon type="contour" points="9.282316,9.711102 9.053815,9.711102 9.053815,9.420602 9.282316,9.420602" style="fill: white" /><polygon type="contour" points="8.915888,9.711102 8.615015,9.711102 8.614564,9.594549 8.614701,9.566201 8.615112,9.440749 8.615015,9.420602 8.915888,9.420602" style="fill: white" /><polygon type="contour" points="8.91572,9.928516 8.915615,9.941905 8.915615,9.999789 8.915754,10.078017 8.782981,10.078017 8.783114,9.999789 8.783217,9.965686 8.783118,9.928517 8.783021,9.849387 8.916038,9.849387" style="fill: white" /><polygon type="contour" points="8.807452,10.216524 8.915177,10.216524 8.915314,10.350977 8.915314,10.424191 8.915336,10.473199 8.915124,10.477861 8.913926,10.516355 8.847623,10.516047 8.608727,10.522975 8.614183,10.339178 8.614986,10.319267 8.616119,10.216391 8.668687,10.216391" style="fill: white" /><polygon type="contour" points="9.282316,10.348682 9.203184,10.348585 9.166016,10.348485 9.13191,10.348589 9.053683,10.348722 9.053683,10.215947 9.13191,10.216087 9.189796,10.216087 9.203185,10.215982 9.282316,10.215664" style="fill: white" /><polygon type="contour" points="9.711101,10.515763 9.640997,10.515422 9.566059,10.516848 9.510449,10.515449 9.491039,10.515422 9.4206,10.515763 9.4206,10.215814 9.711101,10.215814" style="fill: white" /><polygon type="contour" points="9.928514,10.215982 9.941903,10.216087 9.999788,10.216087 10.078016,10.215947 10.078016,10.348722 9.999788,10.348589 9.965684,10.348485 9.928515,10.348584 9.849385,10.348681 9.849385,10.215664" style="fill: white" /><polygon type="contour" points="9.711101,10.077887 9.4206,10.077887 9.4206,9.849387 9.711101,9.849387" style="fill: white" /><polygon type="contour" points="9.711101,9.711102 9.4206,9.711102 9.4206,9.420602 9.711101,9.420602" style="fill: white" /><polygon type="contour" points="10.078123,9.612523 10.077885,9.711102 9.849385,9.711102 9.849385,9.420602 10.078123,9.420602" style="fill: white" /><polygon type="contour" points="10.077625,9.928516 10.07768,9.941906 10.077431,9.941906 10.078016,10.047189 10.078016,10.078017 9.999787,10.077682 9.941903,10.077682 9.928515,10.077627 9.849377,10.077887 9.849456,9.999762 9.849456,9.941958 9.849385,9.88118 9.849385,9.849387 9.928514,9.849458 9.986623,9.849458 10.047684,9.849387 10.07876,9.849387" style="fill: white" /><polygon type="contour" points="10.348582,9.928517 10.348483,9.965686 10.348586,9.999789 10.34872,10.078017 10.215945,10.078017 10.216085,9.999789 10.216085,9.941905 10.21598,9.928516 10.215662,9.849387 10.348679,9.849387" style="fill: white" /><polygon type="contour" points="10.516715,10.319268 10.517517,10.339178 10.522973,10.522975 10.284076,10.516047 10.217775,10.516355 10.216364,10.4732 10.216364,10.431119 10.216384,10.424191 10.216522,10.264486 10.216522,10.216524 10.324247,10.216524 10.463012,10.216391 10.515581,10.216391" style="fill: white" />
</svg>
