<svg width="19.131698" height="19.131699">
<polygon type="contour" points="9.589785,9.298226 9.622901,9.302302 9.634716,9.305922 9.6663,9.315599 9.677354,9.321317 9.706901,9.336602 9.717,9.344033 9.744,9.363901 9.752574,9.372857 9.7755,9.396802 9.782359,9.407091 9.801207,9.434601 9.806353,9.445845 9.819599,9.4759 9.822839,9.487905 9.831502,9.52 9.832454,9.532578 9.835,9.566202 9.834047,9.578588 9.831502,9.6117 9.828261,9.623706 9.8196,9.6558 9.814455,9.667044 9.801208,9.697103 9.794348,9.707392 9.7755,9.734902 9.766924,9.743858 9.744,9.767799 9.733899,9.775232 9.706901,9.795102 9.695848,9.800818 9.6663,9.816101 9.654485,9.819722 9.622901,9.829401 9.610514,9.830925 9.577398,9.835001 9.565012,9.83443 9.531898,9.832901 9.519704,9.830234 9.487101,9.82361 9.475476,9.819037 9.4444,9.806301 9.433918,9.799821 9.4059,9.782503 9.396561,9.774307 9.3716,9.752401 9.363786,9.742682 9.3429,9.716702 9.3368,9.705839 9.320498,9.676803 9.316305,9.664987 9.305098,9.633402 9.303002,9.621206 9.2974,9.588603 9.2974,9.5431 9.299496,9.530904 9.305099,9.498302 9.309291,9.486486 9.320497,9.454902 9.326597,9.444039 9.342899,9.415002 9.350713,9.405283 9.3716,9.379302 9.380937,9.371108 9.4059,9.349201 9.416381,9.342721 9.4444,9.3254 9.456025,9.320826 9.487101,9.308093 9.499296,9.305425 9.531899,9.298802 9.544285,9.298231 9.577399,9.296703" style="fill: white" />
</svg>
