<svg width="19.131698" height="19.131699">
<polygon type="contour" points="10.669076,8.421986 10.676682,8.421753 10.710916,8.420785 10.709564,8.47043 10.709449,8.478011 10.7091,8.70416 10.427542,8.70416 10.427542,8.589202 10.427594,8.57671 10.427733,8.570377 10.428157,8.494476 10.430722,8.418999" style="fill: white" /><polygon type="contour" points="10.285691,8.589383 10.324212,8.589443 10.324212,8.70426 10.257644,8.70426 10.225407,8.70434 10.225407,8.659932 10.225274,8.589208" style="fill: white" /><polygon type="contour" points="10.542319,8.846009 10.542495,8.906429 10.493143,8.906429 10.427362,8.906295 10.427442,8.874058 10.427442,8.807491 10.542261,8.807491" style="fill: white" /><polygon type="contour" points="10.324107,8.84601 10.324107,8.906295 10.285691,8.906295 10.225274,8.906429 10.225274,8.863737 10.225407,8.807595 10.257644,8.807491 10.324212,8.807491" style="fill: white" /><polygon type="contour" points="10.324107,9.216274 10.324505,9.279102 10.324651,9.318601 10.286431,9.318528 10.225378,9.318528 10.225378,9.279103 10.225274,9.21627 10.267965,9.21627" style="fill: white" /><polygon type="contour" points="10.542241,9.279103 10.542136,9.318404 10.426833,9.318404 10.42685,9.279103 10.427362,9.216274 10.471771,9.216274 10.542495,9.21627" style="fill: white" /><polygon type="contour" points="10.71372,9.44484 10.713138,9.566201 10.712886,9.593053 10.713456,9.711102 10.426883,9.711102 10.426883,9.420602 10.713456,9.420602" style="fill: white" /><polygon type="contour" points="10.709449,10.653692 10.709564,10.661273 10.710304,10.684693 10.710378,10.686495 10.710867,10.691295 10.710916,10.710918 10.676682,10.70995 10.671641,10.709751 10.669075,10.709718 10.430722,10.712703 10.428158,10.637227 10.428158,10.564836 10.427733,10.561326 10.427595,10.554994 10.427542,10.542502 10.427542,10.427544 10.7091,10.427544" style="fill: white" /><polygon type="contour" points="10.542319,10.285694 10.542261,10.324214 10.427442,10.324214 10.427442,10.257646 10.427362,10.225409 10.47177,10.225409 10.542495,10.225276" style="fill: white" /><polygon type="contour" points="10.257644,10.427444 10.324212,10.427444 10.324212,10.542262 10.285691,10.542321 10.225274,10.542497 10.225274,10.493145 10.225407,10.427364" style="fill: white" /><polygon type="contour" points="10.324107,10.225409 10.324212,10.257645 10.324212,10.324214 10.285691,10.324109 10.225407,10.324109 10.225407,10.285694 10.225274,10.225276 10.267964,10.225276" style="fill: white" /><polygon type="contour" points="10.542242,9.852601 10.542495,9.915432 10.493143,9.915432 10.427362,9.91543 10.42685,9.8526 10.426833,9.8133 10.542136,9.8133" style="fill: white" /><polygon type="contour" points="10.324651,9.711102 10.225378,9.711102 10.225378,9.420602 10.324651,9.420602" style="fill: white" /><polygon type="contour" points="10.324505,9.852601 10.324107,9.91543 10.285691,9.91543 10.225274,9.915432 10.225274,9.871229 10.225378,9.813176 10.257298,9.813103 10.32465,9.813103" style="fill: white" /><polygon type="contour" points="9.248995,9.8133 9.318402,9.8133 9.318526,9.852601 9.318526,9.915376 9.2791,9.915376 9.216268,9.915432 9.216268,9.871229 9.216327,9.813176" style="fill: white" /><polygon type="contour" points="9.318402,9.711102 9.216327,9.711102 9.216327,9.420602 9.318402,9.420602" style="fill: white" /><polygon type="contour" points="9.711101,9.915376 9.4206,9.915376 9.4206,9.8133 9.711101,9.8133" style="fill: white" /><polygon type="contour" points="9.915374,9.852601 9.91543,9.915432 9.871225,9.915432 9.813174,9.915376 9.813298,9.882706 9.813298,9.8133 9.852599,9.813176 9.915374,9.813176" style="fill: white" /><polygon type="contour" points="9.915374,9.711102 9.813298,9.711102 9.813298,9.420602 9.915374,9.420602" style="fill: white" /><polygon type="contour" points="9.711101,9.711102 9.4206,9.711102 9.4206,9.420602 9.711101,9.420602" style="fill: white" /><polygon type="contour" points="9.711101,9.318404 9.4206,9.318404 9.4206,9.216328 9.711101,9.216328" style="fill: white" /><polygon type="contour" points="9.91543,9.260474 9.915374,9.318528 9.882704,9.318404 9.813298,9.318404 9.813174,9.279102 9.813174,9.216328 9.852599,9.216328 9.91543,9.21627" style="fill: white" /><polygon type="contour" points="9.711101,8.807051 9.711101,8.906325 9.4206,8.906325 9.4206,8.806577 9.51425,8.806577" style="fill: white" /><polygon type="contour" points="9.8526,8.807195 9.915429,8.807595 9.915429,8.84601 9.91543,8.906429 9.871225,8.906429 9.813174,8.906325 9.813174,8.84527 9.813298,8.806169" style="fill: white" /><polygon type="contour" points="9.91543,8.638559 9.915429,8.704339 9.852599,8.704852 9.813298,8.704869 9.813298,8.589567 9.852599,8.589461 9.91543,8.589208" style="fill: white" /><polygon type="contour" points="9.692833,8.42259 9.711101,8.422738 9.711101,8.704818 9.621648,8.704818 9.4206,8.704334 9.4206,8.422738 9.537139,8.418925 9.566199,8.418571" style="fill: white" /><polygon type="contour" points="8.703542,8.494475 8.703542,8.566866 8.703968,8.570377 8.704105,8.57671 8.704158,8.589202 8.704158,8.70416 8.4226,8.70416 8.422252,8.478011 8.422135,8.47043 8.421395,8.44701 8.421321,8.445208 8.420833,8.440408 8.420784,8.420785 8.455017,8.421753 8.460058,8.421953 8.462623,8.421986 8.700978,8.418999" style="fill: white" /><polygon type="contour" points="8.704258,8.874058 8.704338,8.906295 8.659929,8.906295 8.589206,8.906429 8.589382,8.846009 8.58944,8.807491 8.704258,8.807491" style="fill: white" /><polygon type="contour" points="8.846007,8.807595 8.906294,8.807595 8.906294,8.84601 8.906427,8.906429 8.863736,8.906429 8.807593,8.906295 8.807489,8.874058 8.807489,8.807491" style="fill: white" /><polygon type="contour" points="8.906427,8.638558 8.906294,8.70434 8.874056,8.70426 8.807489,8.70426 8.807489,8.589443 8.846007,8.589384 8.906427,8.589208" style="fill: white" /><polygon type="contour" points="9.279101,8.589461 9.318402,8.589567 9.318402,8.704394 9.2791,8.704422 9.216272,8.70434 9.216272,8.659931 9.216268,8.589208" style="fill: white" /><polygon type="contour" points="9.318526,8.844841 9.318526,8.906325 9.279101,8.906325 9.216268,8.906429 9.216268,8.863737 9.216272,8.807595 9.2791,8.806765 9.318599,8.806577" style="fill: white" /><polygon type="contour" points="9.318526,9.216328 9.318402,9.248997 9.318402,9.318404 9.2791,9.318528 9.216327,9.318528 9.216327,9.279102 9.216268,9.21627 9.260471,9.21627" style="fill: white" /><polygon type="contour" points="8.906427,9.260473 8.906323,9.318528 8.87367,9.318404 8.806167,9.318404 8.807194,9.279103 8.807593,9.216274 8.846008,9.216274 8.906427,9.21627" style="fill: white" /><polygon type="contour" points="8.704337,9.216274 8.70485,9.279103 8.704867,9.318404 8.589565,9.318404 8.589459,9.279103 8.589206,9.21627 8.638556,9.21627" style="fill: white" /><polygon type="contour" points="8.704816,9.510054 8.704332,9.711102 8.418245,9.711102 8.41798,9.686863 8.418563,9.565502 8.418814,9.53865 8.418245,9.420602 8.704816,9.420602" style="fill: white" /><polygon type="contour" points="8.906323,9.711102 8.806575,9.711102 8.806575,9.617451 8.807049,9.420602 8.906323,9.420602" style="fill: white" /><polygon type="contour" points="8.844839,9.813176 8.906323,9.813176 8.906323,9.852601 8.906427,9.915432 8.863736,9.915432 8.807593,9.91543 8.806764,9.852601 8.806575,9.813103" style="fill: white" /><polygon type="contour" points="8.70442,9.852601 8.704338,9.91543 8.659929,9.91543 8.589206,9.915432 8.589459,9.852601 8.589565,9.8133 8.704392,9.8133" style="fill: white" /><polygon type="contour" points="8.704158,10.542502 8.704105,10.554994 8.703968,10.561326 8.703542,10.637227 8.700978,10.712703 8.462624,10.709718 8.455017,10.70995 8.420784,10.710919 8.422135,10.661273 8.422252,10.653692 8.4226,10.427544 8.704158,10.427544" style="fill: white" /><polygon type="contour" points="8.704338,10.225409 8.704258,10.257646 8.704258,10.324214 8.58944,10.324214 8.589382,10.285694 8.589206,10.225276 8.638556,10.225276" style="fill: white" /><polygon type="contour" points="8.906427,10.267966 8.906294,10.324109 8.874057,10.324214 8.807489,10.324214 8.807593,10.285693 8.807593,10.225409 8.846008,10.225409 8.906427,10.225276" style="fill: white" /><polygon type="contour" points="8.906294,10.471772 8.906427,10.542497 8.846007,10.54232 8.807489,10.542262 8.807489,10.427444 8.874056,10.427444 8.906294,10.427364" style="fill: white" /><polygon type="contour" points="9.318402,10.42731 9.318402,10.542138 9.279101,10.542243 9.216268,10.542497 9.216268,10.493145 9.216272,10.427364 9.2791,10.427282" style="fill: white" /><polygon type="contour" points="9.318526,10.225379 9.318526,10.286863 9.318599,10.325127 9.2791,10.324938 9.216272,10.324109 9.216272,10.285693 9.216268,10.225276 9.260472,10.225276" style="fill: white" /><polygon type="contour" points="9.711101,10.325128 9.4206,10.325128 9.4206,10.225379 9.711101,10.225379" style="fill: white" /><polygon type="contour" points="9.91543,10.267967 9.915429,10.324109 9.852599,10.324939 9.813298,10.326011 9.813174,10.286863 9.813174,10.225379 9.852599,10.225379 9.91543,10.225276" style="fill: white" /><polygon type="contour" points="9.915429,10.427364 9.915429,10.471772 9.91543,10.542497 9.852599,10.542243 9.813298,10.542138 9.813298,10.42731 9.8526,10.427282" style="fill: white" /><polygon type="contour" points="9.711101,10.708966 9.59456,10.712779 9.565501,10.713132 9.438867,10.709113 9.4206,10.708965 9.4206,10.42737 9.711101,10.42737" style="fill: white" />
</svg>
