<svg width="19.131698" height="19.131699">
<polygon type="contour" points="7.634821,7.504203 7.755849,7.513391 7.803661,7.513514 7.804516,7.592326 7.804516,7.682956 7.931452,7.683359 7.931452,7.704056 7.931483,7.805205 7.93149,7.828751 7.931452,7.931453 7.915752,7.931453 7.837603,7.931484 7.837602,7.931484 7.818162,7.931491 7.683358,7.931453 7.682955,7.804902 7.514164,7.804902 7.514119,7.791725 7.503169,7.503171" style="fill: white" /><polygon type="contour" points="7.931452,8.452714 7.931452,8.470738 7.9313,8.56254 7.9313,8.617651 7.931593,8.884002 7.931593,8.992695 7.931452,9.101228 7.9164,9.101148 7.837593,9.100854 7.791905,9.100854 7.683332,9.101148 7.683317,9.082862 7.683112,8.884321 7.55237,8.88346 7.514266,8.883537 7.514336,8.84834 7.514889,8.589748 7.682961,8.589748 7.683358,8.452714 7.704055,8.452714 7.82875,8.452649" style="fill: white" /><polygon type="contour" points="8.562539,8.453407 8.61765,8.453407 8.883999,8.452908 8.992694,8.452908 9.101226,8.452714 9.101034,8.470145 9.100185,8.562646 9.100185,8.616402 9.100578,8.884037 9.100578,8.991779 9.101034,9.101148 9.080773,9.101148 8.884035,9.100294 8.884035,9.100681 8.841242,9.100681 8.569922,9.100213 8.55237,9.100297 8.452712,9.101228 8.452712,9.080064 8.453068,8.884002 8.452906,8.884002 8.452906,8.83927 8.453405,8.59003 8.453405,8.55237 8.452712,8.452714 8.470736,8.452714" style="fill: white" /><polygon type="contour" points="8.883103,7.587686 8.88366,7.683113 9.08286,7.683319 9.101034,7.683333 9.101034,7.703149 9.100709,7.832091 9.100907,7.848144 9.101226,7.931453 9.080063,7.931453 8.973356,7.931595 8.839269,7.931595 8.590029,7.931302 8.552369,7.931302 8.452712,7.931453 8.452712,7.915754 8.452661,7.837605 8.452661,7.837604 8.452648,7.818164 8.452711,7.683359 8.58972,7.682964 8.58972,7.514855 8.610583,7.514877 8.883545,7.514314" style="fill: white" /><polygon type="contour" points="11.448343,8.452714 11.44874,8.590148 11.529717,8.590148 11.593502,8.589711 11.616811,8.589748 11.616856,8.611648 11.617435,8.883537 11.57933,8.88346 11.448588,8.884321 11.448383,9.082862 11.448369,9.101148 11.428553,9.101148 11.305515,9.100793 11.283557,9.10091 11.200247,9.101228 11.200247,9.080065 11.200106,8.973357 11.200106,8.839271 11.200399,8.590031 11.200399,8.552371 11.200247,8.452714 11.215946,8.452714 11.294096,8.452662 11.294097,8.452662 11.313537,8.452649" style="fill: white" /><polygon type="contour" points="11.628391,7.630947 11.61758,7.791725 11.617534,7.804902 11.448745,7.804902 11.448343,7.931453 11.427645,7.931453 11.320561,7.931485 11.30295,7.931491 11.200247,7.931453 11.200247,7.915754 11.200209,7.81423 11.20021,7.818164 11.200247,7.683359 11.326787,7.682958 11.327184,7.592327 11.327968,7.586136 11.328038,7.513514 11.375849,7.513392 11.628532,7.503171" style="fill: white" /><polygon type="contour" points="10.541979,7.514855 10.541979,7.682964 10.678988,7.683359 10.678988,7.704056 10.67904,7.805205 10.679052,7.828751 10.678988,7.931453 10.660963,7.931453 10.569159,7.931302 10.514048,7.931302 10.247699,7.931595 10.139006,7.931595 10.030475,7.931453 10.030554,7.916403 10.03085,7.837594 10.03085,7.791906 10.030555,7.683333 10.048841,7.683319 10.24738,7.683114 10.248242,7.552373 10.248156,7.514314 10.284379,7.514282" style="fill: white" /><polygon type="contour" points="10.247699,8.45307 10.247699,8.452908 10.292431,8.452908 10.54167,8.453407 10.579328,8.453407 10.678988,8.452714 10.678988,8.470737 10.678295,8.56254 10.678295,8.617651 10.678794,8.884002 10.678794,8.992696 10.678988,9.101227 10.661555,9.101147 10.569053,9.100248 10.515297,9.100248 10.247665,9.100681 10.139922,9.100681 10.030555,9.101148 10.030555,9.080775 10.031408,8.884037 10.031022,8.884037 10.031022,8.841246 10.031487,8.569898 10.031404,8.552371 10.030475,8.452714 10.051638,8.452714" style="fill: white" /><polygon type="contour" points="10.678988,10.05164 10.678631,10.247701 10.678794,10.247701 10.678794,10.292433 10.678295,10.541672 10.678295,10.57933 10.678988,10.67899 10.660963,10.67899 10.56916,10.678297 10.514048,10.678297 10.247699,10.678796 10.139005,10.678796 10.030475,10.67899 10.030555,10.661558 10.031453,10.569056 10.031453,10.515299 10.031022,10.247667 10.031022,10.140025 10.030555,10.030669 10.050927,10.030669 10.247665,10.031502 10.247665,10.031125 10.290457,10.031125 10.565605,10.031556 10.579329,10.031406 10.678988,10.030477" style="fill: white" /><polygon type="contour" points="11.215297,10.030669 11.294107,10.030925 11.339795,10.030925 11.448369,10.030669 11.448383,10.048842 11.448588,10.247382 11.57933,10.248244 11.617435,10.248167 11.617363,10.283363 11.616811,10.541954 11.448739,10.541954 11.448343,10.67899 11.427645,10.67899 11.30295,10.679054 11.200247,10.67899 11.200247,10.660965 11.200399,10.569161 11.200399,10.51405 11.200106,10.247701 11.200106,10.139007 11.200247,10.030477" style="fill: white" /><polygon type="contour" points="11.448343,11.20025 11.448745,11.326802 11.617534,11.326802 11.61758,11.339979 11.628532,11.628533 11.496878,11.6275 11.37585,11.618313 11.328038,11.61819 11.327184,11.539376 11.327184,11.448748 11.200247,11.448345 11.200247,11.427647 11.200218,11.326497 11.200211,11.302952 11.200247,11.20025 11.215946,11.20025 11.313537,11.200212" style="fill: white" /><polygon type="contour" points="10.541669,11.2004 10.579328,11.2004 10.678988,11.20025 10.678988,11.215948 10.67904,11.294099 10.679052,11.313539 10.678988,11.448344 10.541979,11.44874 10.541979,11.616849 10.521115,11.616827 10.248156,11.617389 10.248597,11.544017 10.248041,11.448592 10.048841,11.448385 10.030555,11.448371 10.030555,11.428554 10.03091,11.305542 10.030793,11.283559 10.030475,11.20025 10.051638,11.20025 10.158343,11.200107 10.29243,11.200107" style="fill: white" /><polygon type="contour" points="9.101226,11.20025 9.101034,11.215299 9.100777,11.29411 9.100777,11.339796 9.101034,11.448371 9.082859,11.448385 8.884319,11.448591 8.883458,11.57933 8.883545,11.61739 8.84732,11.617422 8.58972,11.616849 8.58972,11.44874 8.452712,11.448345 8.452712,11.427647 8.452649,11.302952 8.452712,11.20025 8.470736,11.20025 8.562539,11.2004 8.61765,11.2004 8.884,11.200107 8.992693,11.200107" style="fill: white" /><polygon type="contour" points="8.470143,10.030669 8.562645,10.031519 8.6164,10.031519 8.884035,10.031125 8.991676,10.031125 9.101034,10.030669 9.101034,10.050929 9.1002,10.247667 9.100578,10.247667 9.100578,10.290457 9.100147,10.565615 9.100297,10.57933 9.101226,10.67899 9.080062,10.67899 8.884,10.678633 8.884,10.678796 8.839268,10.678796 8.590029,10.678297 8.552369,10.678297 8.452712,10.67899 8.452712,10.660965 8.453405,10.569162 8.453405,10.51405 8.452906,10.247701 8.452906,10.139007 8.452712,10.030477" style="fill: white" /><polygon type="contour" points="7.931452,10.051639 7.931593,10.158346 7.931593,10.292432 7.9313,10.541671 7.9313,10.579331 7.931452,10.67899 7.915752,10.67899 7.818162,10.679054 7.683358,10.67899 7.68296,10.541554 7.601982,10.541554 7.538197,10.541991 7.514889,10.541954 7.514843,10.520053 7.514266,10.248167 7.55237,10.248244 7.683112,10.247382 7.683317,10.048842 7.683332,10.030669 7.703147,10.030669 7.832108,10.030992 7.848143,10.030794 7.931452,10.030476" style="fill: white" /><polygon type="contour" points="7.931452,11.20025 7.931452,11.215948 7.931483,11.294098 7.931483,11.294099 7.93149,11.313539 7.931452,11.448345 7.804912,11.448747 7.804516,11.539377 7.803731,11.545567 7.803661,11.61819 7.75585,11.618313 7.503169,11.628533 7.503309,11.500755 7.514119,11.339979 7.514164,11.326802 7.682955,11.326802 7.683358,11.20025 7.704055,11.20025 7.821804,11.200215 7.82875,11.200213" style="fill: white" />
</svg>
