<svg width="19.131698" height="19.131699">
<polygon type="contour" points="1.797969,14.72362 1.953494,14.731481 2.08195,14.7414 3.739915,14.7414 3.759969,14.740575 3.882576,14.740033 4.404126,14.727575 4.391749,15.23884 4.391667,15.249124 4.391124,15.371731 4.3903,15.391785 4.3903,17.049749 4.40022,17.178208 4.40808,17.333732 4.411819,17.418454 4.403331,17.418456 4.206165,17.41843 4.205897,17.480149 4.205883,17.48088 4.205833,17.513766 4.106851,17.513768 3.873186,17.513218 3.873297,17.482128 3.873154,17.449105 3.873329,17.424732 3.873141,17.414468 3.872763,17.323203 3.759967,17.322909 3.739915,17.322724 2.081951,17.322724 2.059983,17.3229 1.951127,17.32333 1.951578,17.415879 1.951592,17.426034 1.951614,17.449867 1.951568,17.482128 1.951697,17.483642 1.95173,17.513172 1.724776,17.5137 1.724145,17.513807 1.618005,17.513696 1.618005,17.489249 1.61855,17.24547 1.618486,17.180014 1.649574,17.180134 1.68078,17.180134 1.681833,17.180088 1.705667,17.180109 1.715822,17.180124 1.808372,17.180574 1.808803,17.071718 1.808978,17.049749 1.808978,15.391784 1.808792,15.371732 1.808498,15.258939 1.717236,15.258562 1.70697,15.258373 1.682597,15.258549 1.68078,15.258406 1.649574,15.258406 1.648061,15.258505 1.618486,15.258517 1.617936,15.02485 1.617936,14.925867 1.651552,14.925805 1.713269,14.925536 1.713245,14.72837 1.713249,14.719883" style="fill: white" /><polygon type="contour" points="1.724775,1.618004 1.95173,1.618531 1.951568,1.649576 1.951568,1.680781 1.951614,1.681835 1.951592,1.705669 1.951578,1.715823 1.951127,1.808373 2.059983,1.808804 2.081951,1.80898 3.739916,1.80898 3.759968,1.808793 3.872763,1.808499 3.873141,1.717237 3.873329,1.70697 3.873154,1.682597 3.873297,1.680781 3.873297,1.649576 3.873196,1.648062 3.873186,1.618487 4.106851,1.617937 4.205834,1.617937 4.205897,1.651554 4.206165,1.713271 4.403331,1.713247 4.41182,1.713249 4.40808,1.797971 4.40022,1.953496 4.3903,2.081952 4.3903,3.739917 4.391124,3.75997 4.391666,3.882577 4.404126,4.404128 3.907969,4.394177 3.882576,4.391669 3.759969,4.391126 3.739915,4.390302 2.081951,4.390302 1.946087,4.390581 1.79383,4.392687 1.746583,4.404036 1.713052,4.400637 1.712989,4.381918 1.713269,4.206167 1.651552,4.205899 1.650821,4.205886 1.617936,4.205836 1.617936,4.106853 1.618486,3.873188 1.649574,3.873299 1.682596,3.873156 1.706969,3.873331 1.717236,3.873142 1.808498,3.872764 1.808792,3.75997 1.808978,3.739918 1.808978,2.081953 1.808803,2.059984 1.808372,1.951129 1.715822,1.951579 1.705668,1.951594 1.681833,1.951615 1.649574,1.95157 1.648061,1.951699 1.618486,1.951688 1.61855,1.886234 1.618005,1.642454 1.618005,1.618006 1.724144,1.617896" style="fill: white" /><polygon type="contour" points="17.513694,1.618007 17.513694,1.642453 17.51315,1.886234 17.513214,1.951688 17.482125,1.95157 17.45092,1.95157 17.449865,1.951615 17.426031,1.951594 17.415878,1.951579 17.323328,1.951129 17.322898,2.059985 17.322722,2.081952 17.322722,3.739918 17.322908,3.75997 17.323199,3.872765 17.414463,3.873142 17.42473,3.87333 17.449104,3.873155 17.45092,3.873299 17.482125,3.873299 17.483639,3.873198 17.513214,3.873188 17.513764,4.106853 17.513764,4.205836 17.480147,4.205899 17.418426,4.206167 17.41871,4.381917 17.418648,4.400637 17.385118,4.404036 17.33787,4.392688 17.185612,4.390581 17.049747,4.390302 15.391782,4.390302 15.371729,4.391126 15.249122,4.391669 14.727573,4.404127 14.739949,3.892862 14.740032,3.882577 14.740574,3.75997 14.741398,3.739917 14.741398,2.081953 14.741139,1.945165 14.73906,1.793604 14.729154,1.746591 14.731193,1.71362 14.749752,1.713159 14.925535,1.713271 14.925804,1.651554 14.925818,1.650823 14.925866,1.617937 15.024849,1.617937 15.258515,1.618487 15.258404,1.649575 15.258547,1.682598 15.258372,1.70697 15.25856,1.717237 15.258937,1.808499 15.371729,1.808792 15.391782,1.80898 17.049748,1.80898 17.071715,1.808804 17.180569,1.808373 17.180122,1.715823 17.180107,1.705669 17.180086,1.681836 17.180132,1.649575 17.180002,1.648061 17.17997,1.618531 17.406924,1.618004 17.407554,1.617896" style="fill: white" /><polygon type="contour" points="17.418454,14.728369 17.418428,14.925536 17.480148,14.925804 17.480877,14.925818 17.513764,14.925867 17.513764,15.02485 17.513214,15.258517 17.482126,15.258406 17.449103,15.258548 17.424729,15.258373 17.414464,15.258562 17.323199,15.258938 17.322908,15.371731 17.322722,15.391784 17.322722,17.04975 17.322898,17.071717 17.323328,17.180574 17.415877,17.180124 17.426032,17.180109 17.449865,17.180088 17.482125,17.180134 17.483639,17.180006 17.513214,17.180014 17.51315,17.245469 17.513694,17.48925 17.513694,17.513696 17.407553,17.513808 17.406923,17.5137 17.17997,17.513172 17.180132,17.482128 17.180132,17.450922 17.180086,17.449868 17.180107,17.426034 17.180122,17.415879 17.180569,17.32333 17.071715,17.3229 17.049748,17.322724 15.391781,17.322724 15.371729,17.32291 15.258937,17.323203 15.258559,17.414468 15.258372,17.424732 15.258547,17.449106 15.258404,17.450922 15.258404,17.482128 15.258504,17.483642 15.258515,17.513216 15.024849,17.513766 14.925866,17.513766 14.925804,17.480149 14.925535,17.41843 14.749752,17.418544 14.731193,17.418084 14.729154,17.385114 14.73906,17.338099 14.74114,17.186538 14.741398,17.04975 14.741398,15.391785 14.740575,15.371731 14.740032,15.249124 14.727573,14.727575 15.223729,14.737526 15.249121,14.740033 15.371729,14.740576 15.391782,14.7414 17.049747,14.7414 17.178205,14.731481 17.333728,14.72362 17.41845,14.719883" style="fill: white" />
</svg>
