<svg width="19.131698" height="19.131699">
<polygon type="contour" points="9.565412,9.296645 9.600131,9.297713 9.609238,9.299924 9.645153,9.30778 9.658412,9.312764 9.687662,9.324463 9.700201,9.33169 9.7262,9.350413 9.751387,9.369226 9.761349,9.379175 9.766196,9.385626 9.779644,9.400244 9.790099,9.414368 9.79918,9.429686 9.81235,9.454539 9.817025,9.467927 9.827262,9.497664 9.829601,9.511689 9.834963,9.542887 9.835599,9.571142 9.835158,9.589008 9.832571,9.606638 9.827262,9.63404 9.818551,9.660593 9.811869,9.677047 9.792825,9.711566 9.789752,9.717178 9.779094,9.731457 9.760824,9.752914 9.752232,9.760123 9.726593,9.783091 9.718439,9.787901 9.687011,9.806982 9.676778,9.811205 9.644729,9.824025 9.633783,9.826513 9.599208,9.832445 9.578986,9.833049 9.554301,9.83539 9.540062,9.833964 9.508862,9.830066 9.478149,9.82129 9.464814,9.816343 9.457779,9.812825 9.439482,9.804929 9.424019,9.796254 9.394699,9.774124 9.387486,9.768588 9.361074,9.741027 9.355287,9.734862 9.334042,9.703856 9.329863,9.697268 9.321996,9.681865 9.31095,9.655952 9.307337,9.642138 9.299538,9.611427 9.298262,9.597188 9.295338,9.565501 9.296612,9.551476 9.299538,9.520276 9.303149,9.506465 9.31095,9.475752 9.316899,9.46279 9.330062,9.434026 9.337712,9.421913 9.356799,9.397203 9.382174,9.368809 9.387362,9.363009 9.401283,9.351472 9.424389,9.335075 9.431596,9.331677 9.448867,9.322157 9.465026,9.31515 9.481885,9.309499 9.508862,9.301638 9.520115,9.300586 9.554301,9.296314" style="fill: white" />
</svg>
