<svg width="19.131698" height="19.131699">
<polygon type="contour" points="10.764443,8.633418 10.764256,8.64557 10.68092,8.645578 10.68092,9.420265 10.764087,9.420149 10.764079,9.447979 10.765239,9.554185 10.765181,9.566201 10.764079,9.683856 10.764087,9.711555 10.68092,9.711438 10.68092,10.486307 10.764256,10.486134 10.764443,10.498285 10.76852,10.62736 10.76893,10.637289 10.771618,10.663741 10.771889,10.771892 10.583225,10.766555 10.555442,10.765457 10.541298,10.765273 10.487668,10.765944 10.487091,10.748961 10.487091,10.732673 10.486995,10.731884 10.485888,10.680921 9.711437,10.680921 9.711554,10.764089 9.683879,10.764073 9.638189,10.764263 9.565501,10.765147 9.552883,10.764747 9.49316,10.764262 9.44769,10.764073 9.420147,10.764089 9.420263,10.680921 8.645808,10.680921 8.644706,10.731883 8.64461,10.748961 8.644032,10.765944 8.590402,10.765273 8.548475,10.766555 8.35981,10.771892 8.367258,10.498284 8.367444,10.486134 8.45078,10.486125 8.45078,9.711438 8.367613,9.711555 8.36762,9.683724 8.366462,9.577517 8.366518,9.565502 8.367621,9.447847 8.367613,9.420149 8.45078,9.420265 8.45078,8.645391 8.367444,8.64557 8.367258,8.633419 8.363178,8.504344 8.362768,8.494415 8.36008,8.467963 8.35981,8.359812 8.548474,8.365147 8.576258,8.366248 8.590401,8.366431 8.644033,8.365759 8.64461,8.382741 8.64461,8.39903 8.644706,8.399821 8.645808,8.450783 9.420263,8.450783 9.420147,8.367615 9.447819,8.367632 9.49351,8.367442 9.566198,8.366557 9.578816,8.366958 9.63854,8.367442 9.68401,8.367632 9.711554,8.367615 9.711437,8.450783 10.485888,8.450783 10.486995,8.39982 10.487091,8.382742 10.487668,8.365758 10.541299,8.36643 10.583225,8.365148 10.771889,8.359812" style="fill: white" />
</svg>
