G75*
%MOIN*%
%OFA0B0*%
%FSLAX24Y24*%
%IPPOS*%
%LPD*%
%AMOC8*
5,1,8,0,0,1.08239X$1,22.5*
%
%ADD10C,0.0000*%
%ADD11OC8,0.0520*%
%ADD12C,0.0520*%
%ADD13C,0.0515*%
%ADD14C,0.0700*%
%ADD15OC8,0.0600*%
%ADD16OC8,0.0630*%
%ADD17C,0.0630*%
%ADD18C,0.0100*%
%ADD19C,0.0400*%
D10*
X001732Y002173D02*
X001732Y018708D01*
X040708Y018708D01*
X040708Y002173D01*
X001732Y002173D01*
X014803Y018078D02*
X014805Y018105D01*
X014811Y018132D01*
X014820Y018158D01*
X014833Y018182D01*
X014849Y018205D01*
X014868Y018224D01*
X014890Y018241D01*
X014914Y018255D01*
X014939Y018265D01*
X014966Y018272D01*
X014993Y018275D01*
X015021Y018274D01*
X015048Y018269D01*
X015074Y018261D01*
X015098Y018249D01*
X015121Y018233D01*
X015142Y018215D01*
X015159Y018194D01*
X015174Y018170D01*
X015185Y018145D01*
X015193Y018119D01*
X015197Y018092D01*
X015197Y018064D01*
X015193Y018037D01*
X015185Y018011D01*
X015174Y017986D01*
X015159Y017962D01*
X015142Y017941D01*
X015121Y017923D01*
X015099Y017907D01*
X015074Y017895D01*
X015048Y017887D01*
X015021Y017882D01*
X014993Y017881D01*
X014966Y017884D01*
X014939Y017891D01*
X014914Y017901D01*
X014890Y017915D01*
X014868Y017932D01*
X014849Y017951D01*
X014833Y017974D01*
X014820Y017998D01*
X014811Y018024D01*
X014805Y018051D01*
X014803Y018078D01*
X015787Y018078D02*
X015789Y018105D01*
X015795Y018132D01*
X015804Y018158D01*
X015817Y018182D01*
X015833Y018205D01*
X015852Y018224D01*
X015874Y018241D01*
X015898Y018255D01*
X015923Y018265D01*
X015950Y018272D01*
X015977Y018275D01*
X016005Y018274D01*
X016032Y018269D01*
X016058Y018261D01*
X016082Y018249D01*
X016105Y018233D01*
X016126Y018215D01*
X016143Y018194D01*
X016158Y018170D01*
X016169Y018145D01*
X016177Y018119D01*
X016181Y018092D01*
X016181Y018064D01*
X016177Y018037D01*
X016169Y018011D01*
X016158Y017986D01*
X016143Y017962D01*
X016126Y017941D01*
X016105Y017923D01*
X016083Y017907D01*
X016058Y017895D01*
X016032Y017887D01*
X016005Y017882D01*
X015977Y017881D01*
X015950Y017884D01*
X015923Y017891D01*
X015898Y017901D01*
X015874Y017915D01*
X015852Y017932D01*
X015833Y017951D01*
X015817Y017974D01*
X015804Y017998D01*
X015795Y018024D01*
X015789Y018051D01*
X015787Y018078D01*
X016771Y018078D02*
X016773Y018105D01*
X016779Y018132D01*
X016788Y018158D01*
X016801Y018182D01*
X016817Y018205D01*
X016836Y018224D01*
X016858Y018241D01*
X016882Y018255D01*
X016907Y018265D01*
X016934Y018272D01*
X016961Y018275D01*
X016989Y018274D01*
X017016Y018269D01*
X017042Y018261D01*
X017066Y018249D01*
X017089Y018233D01*
X017110Y018215D01*
X017127Y018194D01*
X017142Y018170D01*
X017153Y018145D01*
X017161Y018119D01*
X017165Y018092D01*
X017165Y018064D01*
X017161Y018037D01*
X017153Y018011D01*
X017142Y017986D01*
X017127Y017962D01*
X017110Y017941D01*
X017089Y017923D01*
X017067Y017907D01*
X017042Y017895D01*
X017016Y017887D01*
X016989Y017882D01*
X016961Y017881D01*
X016934Y017884D01*
X016907Y017891D01*
X016882Y017901D01*
X016858Y017915D01*
X016836Y017932D01*
X016817Y017951D01*
X016801Y017974D01*
X016788Y017998D01*
X016779Y018024D01*
X016773Y018051D01*
X016771Y018078D01*
X017755Y018078D02*
X017757Y018105D01*
X017763Y018132D01*
X017772Y018158D01*
X017785Y018182D01*
X017801Y018205D01*
X017820Y018224D01*
X017842Y018241D01*
X017866Y018255D01*
X017891Y018265D01*
X017918Y018272D01*
X017945Y018275D01*
X017973Y018274D01*
X018000Y018269D01*
X018026Y018261D01*
X018050Y018249D01*
X018073Y018233D01*
X018094Y018215D01*
X018111Y018194D01*
X018126Y018170D01*
X018137Y018145D01*
X018145Y018119D01*
X018149Y018092D01*
X018149Y018064D01*
X018145Y018037D01*
X018137Y018011D01*
X018126Y017986D01*
X018111Y017962D01*
X018094Y017941D01*
X018073Y017923D01*
X018051Y017907D01*
X018026Y017895D01*
X018000Y017887D01*
X017973Y017882D01*
X017945Y017881D01*
X017918Y017884D01*
X017891Y017891D01*
X017866Y017901D01*
X017842Y017915D01*
X017820Y017932D01*
X017801Y017951D01*
X017785Y017974D01*
X017772Y017998D01*
X017763Y018024D01*
X017757Y018051D01*
X017755Y018078D01*
X018818Y018078D02*
X018820Y018105D01*
X018826Y018132D01*
X018835Y018158D01*
X018848Y018182D01*
X018864Y018205D01*
X018883Y018224D01*
X018905Y018241D01*
X018929Y018255D01*
X018954Y018265D01*
X018981Y018272D01*
X019008Y018275D01*
X019036Y018274D01*
X019063Y018269D01*
X019089Y018261D01*
X019113Y018249D01*
X019136Y018233D01*
X019157Y018215D01*
X019174Y018194D01*
X019189Y018170D01*
X019200Y018145D01*
X019208Y018119D01*
X019212Y018092D01*
X019212Y018064D01*
X019208Y018037D01*
X019200Y018011D01*
X019189Y017986D01*
X019174Y017962D01*
X019157Y017941D01*
X019136Y017923D01*
X019114Y017907D01*
X019089Y017895D01*
X019063Y017887D01*
X019036Y017882D01*
X019008Y017881D01*
X018981Y017884D01*
X018954Y017891D01*
X018929Y017901D01*
X018905Y017915D01*
X018883Y017932D01*
X018864Y017951D01*
X018848Y017974D01*
X018835Y017998D01*
X018826Y018024D01*
X018820Y018051D01*
X018818Y018078D01*
D11*
X018767Y014968D03*
X017767Y014968D03*
X016405Y014968D03*
X015405Y014968D03*
X014043Y014968D03*
X013043Y014968D03*
X013043Y012606D03*
X014043Y012606D03*
X015405Y012606D03*
X016405Y012606D03*
X017767Y012606D03*
X018767Y012606D03*
X020130Y012606D03*
X021130Y012606D03*
X022492Y012606D03*
X023492Y012606D03*
X024854Y012606D03*
X025854Y012606D03*
X027216Y012606D03*
X028216Y012606D03*
X028216Y014968D03*
X027216Y014968D03*
X025854Y014968D03*
X024854Y014968D03*
X023492Y014968D03*
X022492Y014968D03*
X021130Y014968D03*
X020130Y014968D03*
X020130Y010244D03*
X021130Y010244D03*
X022492Y010244D03*
X023492Y010244D03*
X024854Y010244D03*
X025854Y010244D03*
X027216Y010244D03*
X028216Y010244D03*
X028216Y007842D03*
X027216Y007842D03*
X025854Y007881D03*
X024854Y007881D03*
X023492Y007881D03*
X022492Y007881D03*
X021130Y007881D03*
X020130Y007881D03*
X018767Y007881D03*
X017767Y007881D03*
X016405Y007881D03*
X015405Y007881D03*
X014043Y007881D03*
X013043Y007881D03*
X013043Y010244D03*
X014043Y010244D03*
X015405Y010244D03*
X016405Y010244D03*
X017767Y010244D03*
X018767Y010244D03*
D12*
X010830Y016625D02*
X010830Y017145D01*
X009830Y017145D02*
X009830Y016625D01*
X008830Y016625D02*
X008830Y017145D01*
X007830Y017145D02*
X007830Y016625D01*
X006830Y016625D02*
X006830Y017145D01*
D13*
X015000Y017155D02*
X015000Y016640D01*
X015984Y016640D02*
X015984Y017155D01*
X016968Y017155D02*
X016968Y016640D01*
X017952Y016640D02*
X017952Y017155D01*
X019015Y017155D02*
X019015Y016640D01*
D14*
X036200Y011189D03*
X038760Y011189D03*
D15*
X029972Y005507D03*
X028972Y005507D03*
X027972Y005507D03*
X026972Y005507D03*
X025972Y005507D03*
X024972Y005507D03*
X023972Y005507D03*
X022972Y005507D03*
X021972Y005507D03*
X020972Y005507D03*
X019972Y005507D03*
X018972Y005507D03*
X017972Y005507D03*
X016972Y005507D03*
X015972Y005507D03*
X014972Y005507D03*
X013972Y005507D03*
X012972Y005507D03*
X011972Y005507D03*
X010972Y005507D03*
X010972Y004507D03*
X011972Y004507D03*
X012972Y004507D03*
X013972Y004507D03*
X014972Y004507D03*
X015972Y004507D03*
X016972Y004507D03*
X017972Y004507D03*
X018972Y004507D03*
X019972Y004507D03*
X020972Y004507D03*
X021972Y004507D03*
X022972Y004507D03*
X023972Y004507D03*
X024972Y004507D03*
X025972Y004507D03*
X026972Y004507D03*
X027972Y004507D03*
X028972Y004507D03*
X029972Y004507D03*
D16*
X031456Y006670D03*
X004755Y016819D03*
D17*
X003355Y016819D03*
X031456Y008070D03*
D18*
X031432Y008068D01*
X029992Y006628D01*
X029992Y005548D01*
X029972Y005507D01*
X028642Y005008D02*
X028642Y004828D01*
X028417Y004603D01*
X028417Y004333D01*
X027607Y003523D01*
X024322Y003523D01*
X023422Y004423D01*
X023422Y004693D01*
X023062Y005053D01*
X022387Y005053D01*
X021982Y005458D01*
X021972Y005507D01*
X021937Y005548D01*
X020002Y007483D01*
X019957Y007483D01*
X019192Y008248D01*
X019192Y011623D01*
X018202Y012613D01*
X018202Y012883D01*
X016807Y014278D01*
X016807Y015133D01*
X015052Y016888D01*
X015000Y016897D01*
X014962Y016888D01*
X014557Y016483D01*
X011902Y016483D01*
X009967Y014548D01*
X008167Y014548D01*
X008032Y014908D02*
X007717Y014593D01*
X007717Y012658D01*
X008662Y011713D01*
X010777Y011713D01*
X012082Y010408D01*
X012082Y009148D01*
X011272Y008833D02*
X011272Y008068D01*
X012127Y007213D01*
X012127Y007033D01*
X012352Y006808D01*
X015502Y006808D01*
X015682Y006988D01*
X015817Y006628D02*
X016177Y006988D01*
X019687Y006988D01*
X020947Y005728D01*
X020947Y005548D01*
X020972Y005507D01*
X020812Y005053D02*
X020362Y005503D01*
X020002Y005503D01*
X019972Y005507D01*
X019552Y005053D02*
X019012Y004513D01*
X018972Y004507D01*
X018517Y004603D02*
X018517Y004333D01*
X018967Y003883D01*
X019462Y003883D01*
X019552Y003478D02*
X020497Y004423D01*
X020497Y004873D01*
X020812Y005053D02*
X021037Y005053D01*
X021442Y004648D01*
X021442Y004423D01*
X022702Y003163D01*
X028237Y003163D01*
X029407Y004333D01*
X029407Y006673D01*
X031252Y008518D01*
X031432Y008518D01*
X032287Y009373D01*
X032287Y010363D01*
X030275Y010480D02*
X030039Y010244D01*
X030039Y010126D01*
X028216Y008303D01*
X028216Y007842D01*
X027787Y006853D02*
X026797Y006853D01*
X026797Y005683D01*
X026932Y005548D01*
X026972Y005507D01*
X026437Y004963D02*
X025987Y004513D01*
X025972Y004507D01*
X025537Y004558D02*
X025537Y004333D01*
X025807Y004063D01*
X026527Y004063D01*
X026932Y004468D01*
X026972Y004507D01*
X026437Y004963D02*
X026437Y007618D01*
X027607Y008788D01*
X027607Y010948D01*
X031702Y015043D01*
X033682Y015043D01*
X034402Y014323D01*
X037372Y014323D01*
X037957Y014233D02*
X036742Y015448D01*
X027697Y015448D01*
X027247Y014998D01*
X027216Y014968D01*
X027247Y014953D01*
X027247Y013783D01*
X024862Y013783D01*
X024862Y014953D01*
X024854Y014968D01*
X024862Y013783D02*
X024862Y012613D01*
X024854Y012606D01*
X023062Y012613D02*
X023062Y007033D01*
X024502Y005593D01*
X024502Y005368D01*
X024907Y004963D01*
X025132Y004963D01*
X025537Y004558D01*
X025627Y005008D02*
X025627Y005233D01*
X025447Y005413D01*
X025447Y005683D01*
X024322Y006808D01*
X023422Y005773D02*
X022027Y007168D01*
X021667Y006853D02*
X022972Y005548D01*
X022972Y005507D01*
X023422Y005413D02*
X023422Y005773D01*
X023422Y005413D02*
X023782Y005053D01*
X024052Y005053D01*
X024412Y004693D01*
X024412Y004423D01*
X024952Y003883D01*
X027472Y003883D01*
X029972Y004507D02*
X029992Y004513D01*
X034160Y004513D01*
X039262Y010993D01*
X039262Y013423D01*
X036832Y015853D01*
X017662Y015853D01*
X017617Y015403D02*
X019102Y015403D01*
X021487Y013018D01*
X022657Y013018D01*
X023062Y012613D01*
X022522Y012568D02*
X022492Y012606D01*
X022522Y012568D02*
X022522Y010273D01*
X022492Y010244D01*
X022072Y009868D02*
X017797Y014143D01*
X017437Y014143D01*
X016405Y014968D02*
X016402Y014998D01*
X015457Y015943D01*
X011632Y015943D01*
X010777Y015088D01*
X010777Y013558D01*
X011092Y013243D01*
X011362Y013243D01*
X011587Y013468D01*
X011587Y014368D01*
X011317Y014638D01*
X011317Y014863D01*
X010957Y014998D02*
X010957Y014728D01*
X011227Y014458D01*
X011227Y013603D01*
X011182Y012793D02*
X012217Y013828D01*
X012712Y013963D02*
X011812Y014863D01*
X011542Y015583D02*
X010957Y014998D01*
X011542Y015583D02*
X013432Y015583D01*
X014017Y014998D01*
X014043Y014968D01*
X013612Y014953D02*
X013612Y010678D01*
X014017Y010273D01*
X014043Y010244D01*
X013072Y010228D02*
X013043Y010244D01*
X013072Y010273D01*
X013072Y012568D01*
X013043Y012606D01*
X013072Y012613D01*
X013072Y014953D01*
X013043Y014968D01*
X013162Y015403D02*
X013612Y014953D01*
X013162Y015403D02*
X012892Y015403D01*
X012712Y015223D01*
X012532Y015223D01*
X014017Y015583D02*
X014467Y015133D01*
X014467Y008293D01*
X014062Y007888D01*
X014043Y007881D01*
X013792Y007573D02*
X014017Y007348D01*
X019777Y007348D01*
X021532Y005593D01*
X021532Y004918D01*
X021937Y004513D01*
X021972Y004507D01*
X022837Y004333D02*
X022972Y004468D01*
X022972Y004507D01*
X022837Y004333D02*
X022837Y003523D01*
X020972Y004507D02*
X020947Y004468D01*
X019597Y003118D01*
X016267Y003118D01*
X015547Y003838D01*
X015547Y004063D01*
X015952Y004468D01*
X015972Y004507D01*
X015907Y004963D02*
X016492Y004963D01*
X016942Y004513D01*
X016972Y004507D01*
X016897Y004963D02*
X018157Y004963D01*
X018517Y004603D01*
X016897Y004963D02*
X016537Y005323D01*
X016537Y005593D01*
X016042Y006088D01*
X015502Y006043D02*
X015502Y005368D01*
X015907Y004963D01*
X016972Y005507D02*
X016987Y005548D01*
X017527Y006088D01*
X018517Y006088D01*
X018652Y006448D02*
X018967Y006133D01*
X018967Y005548D01*
X018972Y005507D01*
X018652Y006448D02*
X018157Y006448D01*
X018472Y006628D02*
X018292Y006808D01*
X016267Y006808D01*
X015502Y006043D01*
X015817Y006628D02*
X012217Y006628D01*
X011272Y007573D01*
X011272Y007078D02*
X011497Y007078D01*
X012622Y005953D01*
X013162Y005953D01*
X013522Y005593D01*
X013522Y004918D01*
X013927Y004513D01*
X013972Y004507D01*
X014017Y004468D01*
X014377Y004468D01*
X014782Y004063D01*
X015547Y004063D01*
X016402Y003478D02*
X019552Y003478D01*
X014917Y002938D02*
X031342Y002938D01*
X032737Y004333D01*
X034537Y004333D01*
X034582Y004333D01*
X034852Y004063D01*
X036157Y004063D01*
X037552Y004918D02*
X035257Y002623D01*
X005962Y002623D01*
X004882Y003703D01*
X004882Y003973D01*
X005107Y004198D01*
X010642Y004198D01*
X010777Y004063D01*
X011542Y004063D01*
X011947Y004468D01*
X011972Y004507D01*
X012532Y005323D02*
X012892Y004963D01*
X013162Y004963D01*
X013522Y004603D01*
X013522Y004333D01*
X014917Y002938D01*
X013522Y003838D02*
X005242Y003838D01*
X005782Y005233D02*
X005782Y005278D01*
X004207Y006853D01*
X004207Y007348D01*
X004207Y009193D01*
X006862Y011848D01*
X007222Y011983D02*
X005602Y013603D01*
X004432Y013603D01*
X003667Y014368D01*
X003667Y016798D01*
X003355Y016819D01*
X003712Y016798D01*
X005152Y018238D01*
X010203Y018238D01*
X010687Y016888D01*
X010830Y016885D01*
X010732Y016843D01*
X013747Y016843D01*
X013819Y017212D02*
X014252Y017645D01*
X013819Y017212D02*
X012086Y017212D01*
X009830Y016885D02*
X009697Y016843D01*
X008932Y016078D01*
X006367Y016078D01*
X006142Y015718D02*
X005062Y016798D01*
X004755Y016819D01*
X006142Y017158D02*
X006862Y017878D01*
X009320Y017878D01*
X007447Y015718D02*
X006142Y015718D01*
X007357Y015673D02*
X007447Y015718D01*
X007357Y015673D02*
X007357Y012793D01*
X008077Y012793D02*
X011182Y012793D01*
X010687Y011533D02*
X011722Y010498D01*
X011722Y008608D01*
X012847Y007483D01*
X013207Y007483D01*
X013297Y007573D01*
X013792Y007573D01*
X013072Y007888D02*
X013043Y007881D01*
X013072Y007888D02*
X013072Y010228D01*
X015405Y010244D02*
X015412Y010273D01*
X015412Y011443D01*
X017797Y011443D01*
X017797Y012568D01*
X017767Y012606D01*
X016405Y012606D02*
X016402Y012613D01*
X015952Y013063D01*
X015952Y014503D01*
X015412Y014953D02*
X015405Y014968D01*
X015412Y014953D02*
X015412Y012658D01*
X015405Y012606D01*
X015412Y012568D01*
X015412Y011443D01*
X015405Y010244D02*
X015412Y010228D01*
X015412Y007888D01*
X015405Y007881D01*
X015817Y008473D02*
X016402Y007888D01*
X016405Y007881D01*
X015817Y008473D02*
X015817Y009688D01*
X017767Y010244D02*
X017797Y010273D01*
X017797Y011443D01*
X017767Y010244D02*
X017797Y010228D01*
X017797Y007888D01*
X017767Y007881D01*
X018157Y008473D02*
X018742Y007888D01*
X018767Y007881D01*
X018157Y008473D02*
X018157Y009328D01*
X019732Y009868D02*
X021667Y007933D01*
X021667Y006853D01*
X021130Y007881D02*
X021127Y007888D01*
X020362Y008653D01*
X019777Y008653D01*
X019552Y006628D02*
X018472Y006628D01*
X013432Y007213D02*
X013387Y007168D01*
X012487Y007168D01*
X011902Y005953D02*
X010552Y007303D01*
X010552Y011173D01*
X010687Y011533D02*
X008122Y011533D01*
X005692Y013963D01*
X004567Y013963D01*
X008032Y014908D02*
X009584Y014908D01*
X007222Y011983D02*
X007222Y011713D01*
X006862Y011353D01*
X010192Y009418D02*
X010192Y005278D01*
X010957Y004513D01*
X010972Y004507D01*
X012532Y005323D02*
X012532Y005593D01*
X012172Y005953D01*
X011902Y005953D01*
X008302Y005548D02*
X007987Y005233D01*
X005782Y005233D01*
X024854Y007881D02*
X024862Y007888D01*
X024862Y010228D01*
X024854Y010244D01*
X027216Y010244D02*
X027247Y010273D01*
X027247Y012568D01*
X027216Y012606D01*
X027247Y012613D01*
X027247Y013783D01*
X031837Y014486D02*
X032180Y014604D01*
X032152Y014773D01*
X033457Y014773D01*
X033952Y014278D01*
X032872Y014233D02*
X032591Y014199D01*
X032321Y014199D01*
X028681Y010481D01*
X028642Y009328D01*
X029812Y008878D02*
X027787Y006853D01*
X031456Y006670D02*
X031477Y006628D01*
X031477Y006493D01*
X032129Y005329D01*
X031477Y006673D02*
X031456Y006670D01*
X031477Y006673D02*
X032962Y008158D01*
X032962Y012253D01*
X033007Y012253D01*
X033637Y012883D01*
X034132Y012883D01*
X035748Y014653D02*
X036456Y014653D01*
X034173Y016228D02*
X033031Y016228D01*
X031297Y008878D02*
X029812Y008878D01*
X033277Y007663D02*
X033997Y007663D01*
X036102Y005559D02*
X037598Y005559D01*
X038189Y004968D01*
X038189Y004378D01*
X037874Y003984D01*
X033896Y003973D02*
X031882Y002983D01*
X017617Y015403D02*
X016132Y016888D01*
X015997Y016888D01*
X015984Y016897D01*
D19*
X014252Y017645D03*
X013747Y016843D03*
X012086Y017212D03*
X009320Y017878D03*
X006142Y017158D03*
X006367Y016078D03*
X007447Y015718D03*
X008167Y014548D03*
X009584Y014908D03*
X011317Y014863D03*
X011812Y014863D03*
X012532Y015223D03*
X014017Y015583D03*
X015952Y014503D03*
X017437Y014143D03*
X017662Y015853D03*
X012712Y013963D03*
X012217Y013828D03*
X011227Y013603D03*
X008077Y012793D03*
X007357Y012793D03*
X006862Y011848D03*
X006862Y011353D03*
X010552Y011173D03*
X010192Y009418D03*
X011272Y008833D03*
X012082Y009148D03*
X011272Y007573D03*
X011272Y007078D03*
X012487Y007168D03*
X013432Y007213D03*
X015682Y006988D03*
X016042Y006088D03*
X018157Y006448D03*
X018517Y006088D03*
X019552Y006628D03*
X022027Y007168D03*
X024322Y006808D03*
X026797Y006853D03*
X025627Y005008D03*
X027472Y003883D03*
X028642Y005008D03*
X032129Y005329D03*
X033896Y003973D03*
X034537Y004333D03*
X036157Y004063D03*
X037552Y004918D03*
X037874Y003984D03*
X036102Y005559D03*
X033997Y007663D03*
X033277Y007663D03*
X031297Y008878D03*
X028642Y009328D03*
X030275Y010480D03*
X032287Y010363D03*
X032962Y012253D03*
X034132Y012883D03*
X033952Y014278D03*
X032872Y014233D03*
X031837Y014486D03*
X033031Y016228D03*
X034173Y016228D03*
X035748Y014653D03*
X036456Y014653D03*
X037372Y014323D03*
X037957Y014233D03*
X022072Y009868D03*
X019732Y009868D03*
X018157Y009328D03*
X019777Y008653D03*
X015817Y009688D03*
X008302Y005548D03*
X005782Y005233D03*
X005242Y003838D03*
X004207Y007348D03*
X013522Y003838D03*
X016402Y003478D03*
X019462Y003883D03*
X019552Y005053D03*
X020497Y004873D03*
X022837Y003523D03*
X031882Y002983D03*
X004567Y013963D03*
M02*
