%
M48
M72
T01C0.0240
T02C0.0315
T03C0.0320
T04C0.0354
T05C0.0394
T06C0.0400
%
T01
X6142Y17158
X6367Y16078
X7447Y15718
X8167Y14548
X9584Y14908
X11317Y14863
X11812Y14863
X12532Y15223
X14017Y15583
X15952Y14503
X17437Y14143
X17662Y15853
X14252Y17645
X13747Y16843
X12086Y17212
X9320Y17878
X12712Y13963
X12217Y13828
X11227Y13603
X8077Y12793
X7357Y12793
X6862Y11848
X6862Y11353
X10552Y11173
X10192Y9418
X11272Y8833
X12082Y9148
X11272Y7573
X11272Y7078
X12487Y7168
X13432Y7213
X15682Y6988
X16042Y6088
X18157Y6448
X18517Y6088
X19552Y6628
X22027Y7168
X24322Y6808
X26797Y6853
X25627Y5008
X27472Y3883
X28642Y5008
X32129Y5329
X33896Y3973
X34537Y4333
X36157Y4063
X37552Y4918
X37874Y3984
X36102Y5559
X33997Y7663
X33277Y7663
X31297Y8878
X28642Y9328
X30275Y10480
X32287Y10363
X32962Y12253
X34132Y12883
X33952Y14278
X32872Y14233
X31837Y14486
X33031Y16228
X34173Y16228
X35748Y14653
X36456Y14653
X37372Y14323
X37957Y14233
X22072Y9868
X19732Y9868
X18157Y9328
X19777Y8653
X15817Y9688
X8302Y5548
X5782Y5233
X5242Y3838
X4207Y7348
X13522Y3838
X16402Y3478
X19462Y3883
X19552Y5053
X20497Y4873
X22837Y3523
X31882Y2983
X4567Y13963
T02
X19015Y16897
X17952Y16897
X16968Y16897
X15984Y16897
X15000Y16897
T03
X3355Y16819
X4755Y16819
X6830Y16885
X7830Y16885
X8830Y16885
X9830Y16885
X10830Y16885
X13043Y14968
X14043Y14968
X15405Y14968
X16405Y14968
X17767Y14968
X18767Y14968
X20130Y14968
X21130Y14968
X22492Y14968
X23492Y14968
X24854Y14968
X25854Y14968
X27216Y14968
X28216Y14968
X28216Y12606
X27216Y12606
X25854Y12606
X24854Y12606
X23492Y12606
X22492Y12606
X21130Y12606
X20130Y12606
X18767Y12606
X17767Y12606
X16405Y12606
X15405Y12606
X14043Y12606
X13043Y12606
X13043Y10244
X14043Y10244
X15405Y10244
X16405Y10244
X17767Y10244
X18767Y10244
X20130Y10244
X21130Y10244
X22492Y10244
X23492Y10244
X24854Y10244
X25854Y10244
X27216Y10244
X28216Y10244
X31456Y8070
X31456Y6670
X28216Y7842
X27216Y7842
X25854Y7881
X24854Y7881
X23492Y7881
X22492Y7881
X21130Y7881
X20130Y7881
X18767Y7881
X17767Y7881
X16405Y7881
X15405Y7881
X14043Y7881
X13043Y7881
T04
X36200Y11189
X38760Y11189
T05
X15000Y18078
X15984Y18078
X16968Y18078
X17952Y18078
X19015Y18078
T06
X18972Y5507
X17972Y5507
X16972Y5507
X15972Y5507
X14972Y5507
X13972Y5507
X12972Y5507
X11972Y5507
X10972Y5507
X10972Y4507
X11972Y4507
X12972Y4507
X13972Y4507
X14972Y4507
X15972Y4507
X16972Y4507
X17972Y4507
X18972Y4507
X19972Y4507
X20972Y4507
X21972Y4507
X22972Y4507
X23972Y4507
X24972Y4507
X25972Y4507
X26972Y4507
X27972Y4507
X28972Y4507
X29972Y4507
X29972Y5507
X28972Y5507
X27972Y5507
X26972Y5507
X25972Y5507
X24972Y5507
X23972Y5507
X22972Y5507
X21972Y5507
X20972Y5507
X19972Y5507
M30
