G75*
%MOIN*%
%OFA0B0*%
%FSLAX24Y24*%
%IPPOS*%
%LPD*%
%AMOC8*
5,1,8,0,0,1.08239X$1,22.5*
%
%ADD10C,0.0000*%
%ADD11OC8,0.0520*%
%ADD12R,0.0276X0.0472*%
%ADD13C,0.0520*%
%ADD14R,0.0315X0.0472*%
%ADD15R,0.0472X0.0315*%
%ADD16C,0.0515*%
%ADD17C,0.0700*%
%ADD18OC8,0.0600*%
%ADD19R,0.0591X0.0591*%
%ADD20OC8,0.0630*%
%ADD21C,0.0630*%
%ADD22R,0.0551X0.0394*%
%ADD23R,0.0800X0.0260*%
%ADD24R,0.0472X0.1260*%
%ADD25R,0.1260X0.0472*%
%ADD26R,0.0120X0.0390*%
%ADD27R,0.2540X0.1280*%
%ADD28R,0.0591X0.0512*%
%ADD29R,0.0118X0.0315*%
%ADD30R,0.0315X0.0118*%
%ADD31C,0.0394*%
%ADD32C,0.0100*%
%ADD33C,0.0400*%
D10*
X001732Y002173D02*
X001732Y018708D01*
X040708Y018708D01*
X040708Y002173D01*
X001732Y002173D01*
X014803Y018078D02*
X014805Y018105D01*
X014811Y018132D01*
X014820Y018158D01*
X014833Y018182D01*
X014849Y018205D01*
X014868Y018224D01*
X014890Y018241D01*
X014914Y018255D01*
X014939Y018265D01*
X014966Y018272D01*
X014993Y018275D01*
X015021Y018274D01*
X015048Y018269D01*
X015074Y018261D01*
X015098Y018249D01*
X015121Y018233D01*
X015142Y018215D01*
X015159Y018194D01*
X015174Y018170D01*
X015185Y018145D01*
X015193Y018119D01*
X015197Y018092D01*
X015197Y018064D01*
X015193Y018037D01*
X015185Y018011D01*
X015174Y017986D01*
X015159Y017962D01*
X015142Y017941D01*
X015121Y017923D01*
X015099Y017907D01*
X015074Y017895D01*
X015048Y017887D01*
X015021Y017882D01*
X014993Y017881D01*
X014966Y017884D01*
X014939Y017891D01*
X014914Y017901D01*
X014890Y017915D01*
X014868Y017932D01*
X014849Y017951D01*
X014833Y017974D01*
X014820Y017998D01*
X014811Y018024D01*
X014805Y018051D01*
X014803Y018078D01*
X015787Y018078D02*
X015789Y018105D01*
X015795Y018132D01*
X015804Y018158D01*
X015817Y018182D01*
X015833Y018205D01*
X015852Y018224D01*
X015874Y018241D01*
X015898Y018255D01*
X015923Y018265D01*
X015950Y018272D01*
X015977Y018275D01*
X016005Y018274D01*
X016032Y018269D01*
X016058Y018261D01*
X016082Y018249D01*
X016105Y018233D01*
X016126Y018215D01*
X016143Y018194D01*
X016158Y018170D01*
X016169Y018145D01*
X016177Y018119D01*
X016181Y018092D01*
X016181Y018064D01*
X016177Y018037D01*
X016169Y018011D01*
X016158Y017986D01*
X016143Y017962D01*
X016126Y017941D01*
X016105Y017923D01*
X016083Y017907D01*
X016058Y017895D01*
X016032Y017887D01*
X016005Y017882D01*
X015977Y017881D01*
X015950Y017884D01*
X015923Y017891D01*
X015898Y017901D01*
X015874Y017915D01*
X015852Y017932D01*
X015833Y017951D01*
X015817Y017974D01*
X015804Y017998D01*
X015795Y018024D01*
X015789Y018051D01*
X015787Y018078D01*
X016771Y018078D02*
X016773Y018105D01*
X016779Y018132D01*
X016788Y018158D01*
X016801Y018182D01*
X016817Y018205D01*
X016836Y018224D01*
X016858Y018241D01*
X016882Y018255D01*
X016907Y018265D01*
X016934Y018272D01*
X016961Y018275D01*
X016989Y018274D01*
X017016Y018269D01*
X017042Y018261D01*
X017066Y018249D01*
X017089Y018233D01*
X017110Y018215D01*
X017127Y018194D01*
X017142Y018170D01*
X017153Y018145D01*
X017161Y018119D01*
X017165Y018092D01*
X017165Y018064D01*
X017161Y018037D01*
X017153Y018011D01*
X017142Y017986D01*
X017127Y017962D01*
X017110Y017941D01*
X017089Y017923D01*
X017067Y017907D01*
X017042Y017895D01*
X017016Y017887D01*
X016989Y017882D01*
X016961Y017881D01*
X016934Y017884D01*
X016907Y017891D01*
X016882Y017901D01*
X016858Y017915D01*
X016836Y017932D01*
X016817Y017951D01*
X016801Y017974D01*
X016788Y017998D01*
X016779Y018024D01*
X016773Y018051D01*
X016771Y018078D01*
X017755Y018078D02*
X017757Y018105D01*
X017763Y018132D01*
X017772Y018158D01*
X017785Y018182D01*
X017801Y018205D01*
X017820Y018224D01*
X017842Y018241D01*
X017866Y018255D01*
X017891Y018265D01*
X017918Y018272D01*
X017945Y018275D01*
X017973Y018274D01*
X018000Y018269D01*
X018026Y018261D01*
X018050Y018249D01*
X018073Y018233D01*
X018094Y018215D01*
X018111Y018194D01*
X018126Y018170D01*
X018137Y018145D01*
X018145Y018119D01*
X018149Y018092D01*
X018149Y018064D01*
X018145Y018037D01*
X018137Y018011D01*
X018126Y017986D01*
X018111Y017962D01*
X018094Y017941D01*
X018073Y017923D01*
X018051Y017907D01*
X018026Y017895D01*
X018000Y017887D01*
X017973Y017882D01*
X017945Y017881D01*
X017918Y017884D01*
X017891Y017891D01*
X017866Y017901D01*
X017842Y017915D01*
X017820Y017932D01*
X017801Y017951D01*
X017785Y017974D01*
X017772Y017998D01*
X017763Y018024D01*
X017757Y018051D01*
X017755Y018078D01*
X018818Y018078D02*
X018820Y018105D01*
X018826Y018132D01*
X018835Y018158D01*
X018848Y018182D01*
X018864Y018205D01*
X018883Y018224D01*
X018905Y018241D01*
X018929Y018255D01*
X018954Y018265D01*
X018981Y018272D01*
X019008Y018275D01*
X019036Y018274D01*
X019063Y018269D01*
X019089Y018261D01*
X019113Y018249D01*
X019136Y018233D01*
X019157Y018215D01*
X019174Y018194D01*
X019189Y018170D01*
X019200Y018145D01*
X019208Y018119D01*
X019212Y018092D01*
X019212Y018064D01*
X019208Y018037D01*
X019200Y018011D01*
X019189Y017986D01*
X019174Y017962D01*
X019157Y017941D01*
X019136Y017923D01*
X019114Y017907D01*
X019089Y017895D01*
X019063Y017887D01*
X019036Y017882D01*
X019008Y017881D01*
X018981Y017884D01*
X018954Y017891D01*
X018929Y017901D01*
X018905Y017915D01*
X018883Y017932D01*
X018864Y017951D01*
X018848Y017974D01*
X018835Y017998D01*
X018826Y018024D01*
X018820Y018051D01*
X018818Y018078D01*
D11*
X018767Y014968D03*
X017767Y014968D03*
X016405Y014968D03*
X015405Y014968D03*
X014043Y014968D03*
X013043Y014968D03*
X013043Y012606D03*
X014043Y012606D03*
X015405Y012606D03*
X016405Y012606D03*
X017767Y012606D03*
X018767Y012606D03*
X020130Y012606D03*
X021130Y012606D03*
X022492Y012606D03*
X023492Y012606D03*
X024854Y012606D03*
X025854Y012606D03*
X027216Y012606D03*
X028216Y012606D03*
X028216Y014968D03*
X027216Y014968D03*
X025854Y014968D03*
X024854Y014968D03*
X023492Y014968D03*
X022492Y014968D03*
X021130Y014968D03*
X020130Y014968D03*
X020130Y010244D03*
X021130Y010244D03*
X022492Y010244D03*
X023492Y010244D03*
X024854Y010244D03*
X025854Y010244D03*
X027216Y010244D03*
X028216Y010244D03*
X028216Y007842D03*
X027216Y007842D03*
X025854Y007881D03*
X024854Y007881D03*
X023492Y007881D03*
X022492Y007881D03*
X021130Y007881D03*
X020130Y007881D03*
X018767Y007881D03*
X017767Y007881D03*
X016405Y007881D03*
X015405Y007881D03*
X014043Y007881D03*
X013043Y007881D03*
X013043Y010244D03*
X014043Y010244D03*
X015405Y010244D03*
X016405Y010244D03*
X017767Y010244D03*
X018767Y010244D03*
D12*
X036594Y005598D03*
X037145Y005598D03*
X037145Y004417D03*
X036594Y004417D03*
D13*
X010830Y016625D02*
X010830Y017145D01*
X009830Y017145D02*
X009830Y016625D01*
X008830Y016625D02*
X008830Y017145D01*
X007830Y017145D02*
X007830Y016625D01*
X006830Y016625D02*
X006830Y017145D01*
D14*
X006850Y017921D03*
X006141Y017921D03*
X009488Y016031D03*
X010197Y016031D03*
X032008Y009417D03*
X032716Y009417D03*
X032716Y010047D03*
X033425Y010047D03*
X033661Y008118D03*
X034370Y008118D03*
X034657Y005866D03*
X035366Y005866D03*
X035382Y005055D03*
X034673Y005055D03*
X038700Y013708D03*
X039409Y013708D03*
X039448Y014614D03*
X038740Y014614D03*
X035236Y014535D03*
X034527Y014535D03*
X008385Y003826D03*
X007677Y003826D03*
X006602Y004244D03*
X005893Y004244D03*
X004763Y003826D03*
X004055Y003826D03*
D15*
X006311Y005484D03*
X006311Y006193D03*
X036767Y016169D03*
X036767Y016878D03*
X038480Y005657D03*
X038480Y004948D03*
D16*
X019015Y016640D02*
X019015Y017155D01*
X017952Y017155D02*
X017952Y016640D01*
X016968Y016640D02*
X016968Y017155D01*
X015984Y017155D02*
X015984Y016640D01*
X015000Y016640D02*
X015000Y017155D01*
D17*
X036200Y011189D03*
X038760Y011189D03*
D18*
X029972Y005507D03*
X028972Y005507D03*
X027972Y005507D03*
X026972Y005507D03*
X025972Y005507D03*
X024972Y005507D03*
X023972Y005507D03*
X022972Y005507D03*
X021972Y005507D03*
X020972Y005507D03*
X019972Y005507D03*
X018972Y005507D03*
X017972Y005507D03*
X016972Y005507D03*
X015972Y005507D03*
X014972Y005507D03*
X013972Y005507D03*
X012972Y005507D03*
X011972Y005507D03*
X010972Y005507D03*
X010972Y004507D03*
X011972Y004507D03*
X012972Y004507D03*
X013972Y004507D03*
X014972Y004507D03*
X015972Y004507D03*
X016972Y004507D03*
X017972Y004507D03*
X018972Y004507D03*
X019972Y004507D03*
X020972Y004507D03*
X021972Y004507D03*
X022972Y004507D03*
X023972Y004507D03*
X024972Y004507D03*
X025972Y004507D03*
X026972Y004507D03*
X027972Y004507D03*
X028972Y004507D03*
X029972Y004507D03*
D19*
X029212Y006956D03*
X029212Y008334D03*
X011889Y008531D03*
X011889Y007153D03*
X008720Y004732D03*
X007342Y004732D03*
X005137Y004771D03*
X003760Y004771D03*
D20*
X004755Y016819D03*
X031456Y006670D03*
D21*
X031456Y008070D03*
X003355Y016819D03*
D22*
X038504Y015756D03*
X039370Y016130D03*
X039370Y015381D03*
D23*
X006170Y014710D03*
X006170Y014210D03*
X006170Y013710D03*
X006170Y013210D03*
X006170Y012710D03*
X006170Y012210D03*
X006170Y011710D03*
X006170Y011210D03*
X003750Y011210D03*
X003750Y011710D03*
X003750Y012210D03*
X003750Y012710D03*
X003750Y013210D03*
X003750Y013710D03*
X003750Y014210D03*
X003750Y014710D03*
D24*
X003700Y008669D03*
X005275Y008669D03*
X007283Y008630D03*
X008858Y008630D03*
X008858Y005952D03*
X007283Y005952D03*
X005275Y005992D03*
X003700Y005992D03*
D25*
X032165Y015283D03*
X034842Y015283D03*
X034842Y016858D03*
X032165Y016858D03*
X035551Y008118D03*
X038228Y008118D03*
X038228Y006543D03*
X035551Y006543D03*
D26*
X032785Y011457D03*
X032529Y011457D03*
X032273Y011457D03*
X032017Y011457D03*
X031761Y011457D03*
X031506Y011457D03*
X031250Y011457D03*
X030994Y011457D03*
X030738Y011457D03*
X030482Y011457D03*
X030226Y011457D03*
X029970Y011457D03*
X029970Y013755D03*
X030226Y013755D03*
X030482Y013755D03*
X030738Y013755D03*
X030994Y013755D03*
X031250Y013755D03*
X031506Y013755D03*
X031761Y013755D03*
X032017Y013755D03*
X032273Y013755D03*
X032529Y013755D03*
X032785Y013755D03*
X011053Y014070D03*
X010797Y014070D03*
X010541Y014070D03*
X010285Y014070D03*
X010029Y014070D03*
X009773Y014070D03*
X009517Y014070D03*
X009261Y014070D03*
X009006Y014070D03*
X008750Y014070D03*
X008494Y014070D03*
X008238Y014070D03*
X008238Y011772D03*
X008494Y011772D03*
X008750Y011772D03*
X009006Y011772D03*
X009261Y011772D03*
X009517Y011772D03*
X009773Y011772D03*
X010029Y011772D03*
X010285Y011772D03*
X010541Y011772D03*
X010797Y011772D03*
X011053Y011772D03*
D27*
X009645Y012921D03*
X031378Y012606D03*
D28*
X034842Y012586D03*
X034842Y013256D03*
X007677Y013334D03*
X007677Y014004D03*
D29*
X032578Y005322D03*
X032775Y005322D03*
X032972Y005322D03*
X033169Y005322D03*
X033169Y004614D03*
X032972Y004614D03*
X032775Y004614D03*
X032578Y004614D03*
D30*
X032519Y004968D03*
X033228Y004968D03*
D31*
X039724Y003078D03*
X039645Y017645D03*
X002716Y003118D03*
X002401Y018000D03*
D32*
X003355Y016819D02*
X003622Y016798D01*
X002857Y016033D01*
X002857Y008203D01*
X004387Y006673D01*
X004387Y003613D01*
X004567Y003433D01*
X006412Y003433D01*
X006907Y003928D01*
X006907Y005098D01*
X006997Y005188D01*
X007672Y005188D01*
X008122Y004738D01*
X008707Y004738D01*
X008720Y004732D01*
X009067Y005188D02*
X009202Y005053D01*
X011137Y005053D01*
X011587Y005503D01*
X011947Y005503D01*
X011972Y005507D01*
X011047Y005953D02*
X013162Y005953D01*
X013522Y005593D01*
X013522Y005323D01*
X013792Y005053D01*
X014152Y005053D01*
X014512Y005413D01*
X014512Y005683D01*
X014782Y005953D01*
X015547Y005953D01*
X015952Y005548D01*
X015972Y005507D01*
X016132Y005053D02*
X016537Y005458D01*
X016537Y005683D01*
X016807Y005953D01*
X018157Y005953D01*
X018517Y005593D01*
X018517Y005323D01*
X018877Y004963D01*
X019147Y004963D01*
X019507Y004603D01*
X019507Y004333D01*
X019957Y003883D01*
X024367Y003883D01*
X024952Y004468D01*
X024972Y004507D01*
X025042Y004963D02*
X024457Y004963D01*
X024007Y004513D01*
X023972Y004507D01*
X023962Y004468D01*
X023557Y004063D01*
X021802Y004063D01*
X021397Y004468D01*
X020992Y004468D01*
X020972Y004507D01*
X020722Y004873D02*
X020497Y004873D01*
X020722Y004873D02*
X020902Y005053D01*
X024142Y005053D01*
X024502Y005413D01*
X024502Y005683D01*
X024952Y006133D01*
X028192Y006133D01*
X028777Y005548D01*
X028957Y005548D01*
X028972Y005507D01*
X029092Y005008D02*
X029587Y005503D01*
X029947Y005503D01*
X029972Y005507D01*
X030496Y006031D01*
X033346Y006031D01*
X033661Y005716D01*
X034212Y005716D01*
X034488Y005441D01*
X035630Y005441D01*
X035787Y005283D01*
X035787Y005480D01*
X036023Y005480D01*
X036102Y005559D01*
X036292Y005908D02*
X035392Y005908D01*
X035366Y005866D01*
X034657Y005866D02*
X034627Y005908D01*
X033789Y005908D01*
X033474Y006223D01*
X028372Y006223D01*
X028282Y006313D01*
X024772Y006313D01*
X024007Y005548D01*
X023972Y005507D01*
X024972Y005507D02*
X024997Y005548D01*
X025402Y005953D01*
X027157Y005953D01*
X027427Y005683D01*
X027427Y005413D01*
X027787Y005053D01*
X028057Y005053D01*
X028417Y004693D01*
X028417Y004423D01*
X028777Y004063D01*
X030172Y004063D01*
X031994Y005846D01*
X033187Y005846D01*
X033648Y005385D01*
X034672Y005188D01*
X034673Y005055D01*
X035347Y005143D02*
X035382Y005055D01*
X035347Y005143D02*
X034537Y004333D01*
X033896Y003973D02*
X033502Y004603D01*
X033187Y004603D01*
X033169Y004614D01*
X032972Y004614D02*
X032972Y004240D01*
X033661Y003551D01*
X034567Y003551D01*
X035787Y004771D01*
X035787Y005283D01*
X036517Y005188D02*
X036742Y005188D01*
X036877Y005323D01*
X036877Y008698D01*
X033592Y011983D01*
X033592Y017248D01*
X035527Y017248D01*
X035887Y016888D01*
X036742Y016888D01*
X036767Y016878D01*
X036832Y017428D02*
X037738Y017428D01*
X037738Y016123D01*
X039352Y016123D01*
X039370Y016130D01*
X038504Y015756D02*
X038497Y015718D01*
X038272Y015718D01*
X036202Y013648D01*
X036202Y011218D01*
X036200Y011189D01*
X036022Y010678D02*
X038227Y010678D01*
X038722Y011173D01*
X038760Y011189D01*
X038767Y011218D01*
X039397Y011848D01*
X039397Y013693D01*
X039409Y013708D01*
X038700Y013708D02*
X038677Y013738D01*
X038452Y013738D01*
X037957Y014233D01*
X037642Y014593D02*
X037372Y014323D01*
X037642Y014593D02*
X038722Y014593D01*
X038740Y014614D01*
X039442Y014638D02*
X039448Y014614D01*
X039442Y014638D02*
X039442Y015313D01*
X039397Y015358D01*
X039370Y015381D01*
X037738Y016123D02*
X036787Y016123D01*
X036767Y016169D01*
X036767Y014964D01*
X036456Y014653D01*
X036102Y014220D02*
X036102Y015992D01*
X035826Y016228D01*
X034173Y016228D01*
X033031Y016228D02*
X032165Y015362D01*
X032165Y015283D01*
X031968Y014889D02*
X031181Y014889D01*
X029960Y016110D01*
X018700Y016110D01*
X018464Y016346D01*
X018504Y017448D01*
X018307Y017645D01*
X014252Y017645D01*
X013207Y017878D02*
X014872Y016213D01*
X018112Y016213D01*
X019732Y014593D01*
X019732Y009868D01*
X020137Y010228D02*
X020130Y010244D01*
X020137Y010273D01*
X020137Y012568D01*
X020130Y012606D01*
X020137Y012658D01*
X020137Y013828D01*
X022522Y013828D01*
X022522Y014548D01*
X024412Y014548D01*
X024817Y014953D01*
X024854Y014968D01*
X024772Y014458D02*
X022882Y012568D01*
X022882Y012433D01*
X022657Y012208D01*
X021532Y012208D01*
X021172Y012568D01*
X021130Y012606D01*
X022492Y012606D02*
X022522Y012613D01*
X022522Y013828D01*
X022522Y014548D02*
X022522Y014953D01*
X022492Y014968D01*
X023492Y014968D02*
X023512Y014998D01*
X024097Y015583D01*
X029947Y015583D01*
X031477Y014053D01*
X031477Y013783D01*
X031506Y013755D01*
X031747Y013783D02*
X031761Y013755D01*
X031747Y013783D02*
X031747Y014053D01*
X030037Y015763D01*
X021937Y015763D01*
X021172Y014998D01*
X021130Y014968D01*
X020137Y014953D02*
X020130Y014968D01*
X020137Y014953D02*
X020137Y013828D01*
X018742Y014953D02*
X018337Y014548D01*
X018337Y011623D01*
X016537Y009823D01*
X016267Y009823D01*
X015997Y010093D01*
X015997Y010498D01*
X015637Y010858D01*
X014962Y010858D01*
X013702Y012118D01*
X010417Y012118D01*
X010327Y012028D01*
X010327Y011803D01*
X010285Y011772D01*
X010057Y011758D02*
X010029Y011772D01*
X010057Y011758D02*
X010057Y011173D01*
X011362Y009868D01*
X012577Y009868D01*
X013477Y008968D01*
X018292Y008968D01*
X018517Y009193D01*
X018517Y009913D01*
X018337Y010093D01*
X018337Y011353D01*
X018742Y011758D01*
X018742Y012568D01*
X018767Y012606D01*
X017797Y012613D02*
X017767Y012606D01*
X017797Y012613D02*
X017797Y014953D01*
X017767Y014968D01*
X018742Y014953D02*
X018767Y014968D01*
X017437Y014143D02*
X015817Y014143D01*
X015637Y014323D01*
X012577Y014323D01*
X012217Y013963D01*
X012217Y013828D01*
X012712Y013963D02*
X014062Y012613D01*
X014043Y012606D01*
X013612Y012613D02*
X013612Y012478D01*
X015052Y011038D01*
X015727Y011038D01*
X016402Y010363D01*
X016402Y010273D01*
X016405Y010244D01*
X015817Y010408D02*
X015547Y010678D01*
X014872Y010678D01*
X013792Y011758D01*
X011092Y011758D01*
X011053Y011772D01*
X010822Y011758D02*
X010797Y011772D01*
X010822Y011758D02*
X010822Y011533D01*
X012307Y010048D01*
X012667Y010048D01*
X013387Y009328D01*
X018157Y009328D01*
X018382Y008788D02*
X018742Y009148D01*
X018742Y010228D01*
X018767Y010244D01*
X020137Y010228D02*
X020137Y008293D01*
X018607Y008293D01*
X018202Y007888D01*
X017797Y007888D01*
X017767Y007881D01*
X018697Y007483D02*
X020317Y007483D01*
X020722Y007888D01*
X020722Y009823D01*
X021127Y010228D01*
X021130Y010244D01*
X021532Y009868D02*
X021532Y007708D01*
X020992Y007168D01*
X018922Y007168D01*
X018202Y006448D01*
X018157Y006448D01*
X013702Y006448D01*
X012217Y007933D01*
X011182Y007933D01*
X008752Y010363D01*
X008752Y011758D01*
X008750Y011772D01*
X008527Y011758D02*
X008494Y011772D01*
X008527Y011758D02*
X008527Y010318D01*
X011272Y007573D01*
X010912Y007663D02*
X010912Y007438D01*
X011272Y007078D01*
X011889Y007153D02*
X011902Y007168D01*
X012487Y007168D01*
X013072Y007843D02*
X013043Y007881D01*
X013072Y007843D02*
X013432Y007483D01*
X013432Y007213D01*
X013612Y007753D02*
X014737Y006628D01*
X017842Y006628D01*
X018697Y007483D01*
X019417Y006988D02*
X018517Y006088D01*
X017972Y005507D02*
X017932Y005503D01*
X017617Y005503D01*
X017077Y004963D01*
X016447Y004963D01*
X015997Y004513D01*
X015972Y004507D01*
X016312Y004063D02*
X015412Y004063D01*
X015007Y004468D01*
X014972Y004507D01*
X014512Y004423D02*
X014512Y004693D01*
X014872Y005053D01*
X016132Y005053D01*
X016312Y004063D02*
X017392Y002983D01*
X031882Y002983D01*
X031567Y003163D02*
X031741Y003377D01*
X034627Y003337D01*
X036517Y005188D01*
X036427Y004828D02*
X034222Y002623D01*
X008977Y002623D01*
X008077Y003523D01*
X008077Y004108D01*
X008257Y004288D01*
X010777Y004288D01*
X010957Y004468D01*
X010972Y004507D01*
X009067Y005188D02*
X007942Y005188D01*
X007312Y005818D01*
X007283Y005952D01*
X007267Y005908D01*
X007267Y005818D01*
X005917Y004468D01*
X005917Y004288D01*
X005893Y004244D01*
X005602Y004333D02*
X005602Y004558D01*
X006277Y005233D01*
X006277Y005458D01*
X006311Y005484D01*
X005782Y005233D02*
X005332Y004783D01*
X005152Y004783D01*
X005137Y004771D01*
X004792Y004333D02*
X004567Y004558D01*
X004567Y010363D01*
X003757Y011173D01*
X003750Y011210D01*
X003712Y011218D01*
X003487Y011218D01*
X003037Y011668D01*
X003037Y014998D01*
X004837Y016798D01*
X005017Y016798D01*
X004755Y016819D01*
X004657Y016348D02*
X005332Y016348D01*
X006142Y017158D01*
X006727Y016843D02*
X006830Y016885D01*
X006727Y016843D02*
X006727Y015943D01*
X006187Y015403D01*
X006187Y014728D01*
X006170Y014710D01*
X006187Y014233D02*
X006170Y014210D01*
X006187Y014233D02*
X006412Y014233D01*
X006907Y014728D01*
X006907Y016078D01*
X007672Y016843D01*
X007830Y016885D01*
X008077Y016213D02*
X008707Y016843D01*
X008830Y016885D01*
X009146Y017518D02*
X009517Y017518D01*
X009562Y017563D01*
X012532Y017563D01*
X015097Y014998D01*
X015367Y014998D01*
X015405Y014968D01*
X015952Y014503D02*
X011047Y014503D01*
X010822Y014278D01*
X010822Y014098D01*
X010797Y014070D01*
X010552Y014098D02*
X010541Y014070D01*
X010552Y014098D02*
X010552Y014278D01*
X011137Y014863D01*
X011317Y014863D01*
X011452Y015223D02*
X011812Y014863D01*
X011452Y015223D02*
X010957Y015223D01*
X010057Y014323D01*
X010057Y014098D01*
X010029Y014070D01*
X009787Y014098D02*
X009773Y014070D01*
X009787Y014098D02*
X009787Y014323D01*
X010867Y015403D01*
X012352Y015403D01*
X012532Y015223D01*
X014017Y015583D02*
X010777Y015583D01*
X009562Y014368D01*
X009562Y014098D01*
X009517Y014070D01*
X009261Y014070D02*
X009247Y014098D01*
X009286Y014694D01*
X009584Y014908D01*
X009488Y015441D02*
X008750Y014702D01*
X008750Y014070D01*
X008527Y014098D02*
X008494Y014070D01*
X008527Y014098D02*
X008527Y014818D01*
X009337Y015628D01*
X009894Y015628D01*
X010057Y015988D01*
X010197Y016031D01*
X010315Y015441D02*
X009488Y015441D01*
X009337Y015988D02*
X009488Y016031D01*
X009337Y015988D02*
X007717Y015988D01*
X007447Y015718D01*
X007087Y015853D02*
X007447Y016213D01*
X008077Y016213D01*
X007087Y015853D02*
X007087Y014413D01*
X006412Y013738D01*
X006187Y013738D01*
X006170Y013710D01*
X006142Y013243D02*
X005917Y013243D01*
X005602Y013558D01*
X005602Y015313D01*
X006367Y016078D01*
X004657Y016348D02*
X003217Y014908D01*
X003217Y013513D01*
X003487Y013243D01*
X003712Y013243D01*
X003750Y013210D01*
X003757Y013693D02*
X003750Y013710D01*
X003757Y013693D02*
X003982Y013693D01*
X004882Y012793D01*
X004882Y007438D01*
X005917Y006403D01*
X005917Y005998D01*
X006052Y005863D01*
X006592Y005863D01*
X006907Y006178D01*
X006907Y006628D01*
X006997Y006718D01*
X010282Y006718D01*
X011047Y005953D01*
X011047Y006223D02*
X010372Y006898D01*
X006277Y006898D01*
X006277Y006223D01*
X006311Y006193D01*
X006277Y006898D02*
X006277Y007663D01*
X005287Y008653D01*
X005275Y008669D01*
X003712Y008653D02*
X003712Y007843D01*
X004207Y007348D01*
X003712Y008653D02*
X003700Y008669D01*
X005422Y011218D02*
X007222Y009418D01*
X007582Y009418D01*
X008482Y008518D01*
X008482Y007933D01*
X009337Y007078D01*
X010777Y007078D01*
X011452Y006403D01*
X013477Y006403D01*
X013747Y006133D01*
X015997Y006133D01*
X016042Y006088D01*
X016312Y006988D02*
X015682Y006988D01*
X016312Y006988D02*
X017932Y008608D01*
X019732Y008608D01*
X019777Y008653D01*
X020137Y008293D02*
X020137Y007888D01*
X020130Y007881D01*
X021082Y006988D02*
X021262Y007168D01*
X022027Y007168D01*
X022072Y007708D02*
X022612Y007168D01*
X026482Y007168D01*
X026797Y006853D01*
X026032Y007483D02*
X025222Y007483D01*
X024862Y007843D01*
X024854Y007881D01*
X025854Y007881D02*
X025897Y007888D01*
X026257Y008248D01*
X027337Y008248D01*
X028417Y009328D01*
X028642Y009328D01*
X028507Y009688D02*
X027247Y008428D01*
X024052Y008428D01*
X023512Y007888D01*
X023492Y007881D01*
X022522Y007888D02*
X022492Y007881D01*
X022522Y007888D02*
X022522Y010228D01*
X022492Y010244D01*
X022072Y009868D02*
X022072Y007708D01*
X021082Y006988D02*
X019417Y006988D01*
X019732Y006808D02*
X019552Y006628D01*
X019732Y006808D02*
X024322Y006808D01*
X024682Y006493D02*
X030622Y006493D01*
X031792Y007663D01*
X033277Y007663D01*
X033637Y007528D02*
X032782Y006673D01*
X031477Y006673D01*
X031456Y006670D01*
X031978Y005559D02*
X030262Y003883D01*
X028597Y003883D01*
X028012Y004468D01*
X027972Y004507D01*
X027967Y004513D01*
X027607Y004513D01*
X027067Y005053D01*
X026437Y005053D01*
X025987Y005503D01*
X025972Y005507D01*
X025942Y005503D01*
X025582Y005503D01*
X025042Y004963D01*
X025627Y005008D02*
X026122Y005008D01*
X026437Y004693D01*
X026437Y004423D01*
X027337Y003523D01*
X030757Y003523D01*
X031027Y003793D01*
X032197Y003793D01*
X032782Y004378D01*
X032782Y004603D01*
X032775Y004614D01*
X032578Y004614D02*
X032557Y004603D01*
X032165Y004603D01*
X030984Y004220D01*
X030431Y003703D01*
X027652Y003703D01*
X027472Y003883D01*
X028972Y004507D02*
X029002Y004513D01*
X029947Y004513D01*
X029972Y004507D01*
X029092Y005008D02*
X028642Y005008D01*
X031978Y005559D02*
X032248Y005638D01*
X032129Y005329D01*
X032248Y005638D02*
X032692Y005638D01*
X032782Y005548D01*
X032782Y005323D01*
X032775Y005322D01*
X035551Y006543D02*
X035572Y006583D01*
X035572Y007078D01*
X036455Y007843D01*
X036455Y008383D01*
X034385Y010453D01*
X033007Y010453D01*
X032984Y010430D01*
X032827Y010588D01*
X032827Y011443D01*
X032785Y011457D01*
X032557Y011443D02*
X032529Y011457D01*
X032557Y011443D02*
X032557Y010588D01*
X032692Y010453D01*
X032692Y010048D01*
X032716Y010047D01*
X033007Y009688D02*
X032737Y009418D01*
X032716Y009417D01*
X032692Y009373D01*
X031432Y008113D01*
X031456Y008070D01*
X031297Y008878D02*
X031882Y009463D01*
X032008Y009417D01*
X031972Y009418D01*
X031927Y009463D01*
X031927Y010498D01*
X032017Y010588D01*
X032017Y011443D01*
X032017Y011457D01*
X031761Y011457D02*
X031747Y011443D01*
X031747Y009823D01*
X029227Y007303D01*
X029227Y006988D01*
X029212Y006956D01*
X027697Y008293D02*
X027247Y007843D01*
X027216Y007842D01*
X027202Y007798D01*
X026347Y007798D01*
X026032Y007483D01*
X024682Y006493D02*
X024637Y006448D01*
X021262Y006448D01*
X020542Y005728D01*
X020542Y005458D01*
X020137Y005053D01*
X019552Y005053D01*
X018382Y004468D02*
X019687Y003163D01*
X031567Y003163D01*
X036157Y004063D02*
X036472Y004378D01*
X036562Y004378D01*
X036594Y004417D01*
X036427Y004828D02*
X036967Y004828D01*
X037417Y005278D01*
X038722Y005278D01*
X038992Y005548D01*
X038992Y006853D01*
X038902Y006943D01*
X038317Y006943D01*
X037265Y007719D01*
X037265Y008580D01*
X033772Y012073D01*
X033772Y013018D01*
X033952Y013198D01*
X033952Y014278D01*
X034267Y014278D01*
X034492Y014503D01*
X034527Y014535D01*
X035212Y014503D02*
X035236Y014535D01*
X035257Y014548D01*
X035642Y014548D01*
X035748Y014653D01*
X035212Y014503D02*
X035212Y013648D01*
X034852Y013288D01*
X034842Y013256D01*
X034807Y013243D01*
X034492Y013243D01*
X034132Y012883D01*
X034842Y012586D02*
X035137Y012586D01*
X035708Y013157D01*
X035708Y013866D01*
X036102Y014220D01*
X033322Y013783D02*
X032872Y014233D01*
X032529Y014289D02*
X032047Y014811D01*
X031968Y014889D01*
X032017Y014503D02*
X031837Y014486D01*
X032017Y014503D02*
X032017Y013783D01*
X032017Y013755D01*
X032242Y013738D02*
X032273Y013755D01*
X032242Y013738D02*
X032242Y013513D01*
X032107Y013378D01*
X029542Y013378D01*
X028372Y012208D01*
X025672Y012208D01*
X025267Y012613D01*
X025267Y012748D01*
X024997Y013018D01*
X024682Y013018D01*
X021532Y009868D01*
X023492Y010244D02*
X023512Y010228D01*
X023917Y009823D01*
X028372Y009823D01*
X028417Y009868D01*
X029092Y009868D01*
X030442Y011218D01*
X030442Y011443D01*
X030482Y011457D01*
X030738Y011457D02*
X030738Y010943D01*
X030275Y010480D01*
X030858Y009688D02*
X031207Y010982D01*
X031246Y011246D01*
X031250Y011457D01*
X031027Y011488D02*
X031027Y011713D01*
X031117Y011803D01*
X033007Y011803D01*
X033322Y012118D01*
X033322Y013783D01*
X032785Y013755D02*
X032782Y013738D01*
X032782Y013558D01*
X031837Y012613D01*
X031387Y012613D01*
X031378Y012606D01*
X032242Y012973D01*
X032962Y012253D01*
X032273Y011457D02*
X032287Y011443D01*
X032287Y010363D01*
X032984Y010430D02*
X033007Y010408D01*
X033007Y009688D01*
X033457Y010003D02*
X033425Y010047D01*
X033457Y010003D02*
X033457Y008338D01*
X033637Y008158D01*
X033661Y008118D01*
X033637Y008113D01*
X033637Y007528D01*
X033997Y007663D02*
X034402Y008068D01*
X034370Y008118D01*
X034402Y008113D01*
X035527Y008113D01*
X035551Y008118D01*
X036292Y005908D02*
X036562Y005638D01*
X036594Y005598D01*
X037145Y005598D02*
X037147Y005638D01*
X038452Y005638D01*
X038480Y005657D01*
X038480Y004948D02*
X038452Y004918D01*
X037552Y004918D01*
X037874Y004423D02*
X037147Y004423D01*
X037145Y004417D01*
X037874Y004423D02*
X037874Y003984D01*
X037874Y004423D02*
X038542Y004423D01*
X039172Y005053D01*
X039172Y010768D01*
X038767Y011173D01*
X038760Y011189D01*
X036022Y010678D02*
X034852Y011848D01*
X034852Y012568D01*
X034842Y012586D01*
X032529Y013755D02*
X032529Y014289D01*
X031207Y014053D02*
X031207Y013783D01*
X031250Y013755D01*
X030994Y013755D02*
X030982Y013783D01*
X030982Y014008D01*
X030037Y014953D01*
X028237Y014953D01*
X028216Y014968D01*
X027382Y014098D02*
X025897Y012613D01*
X025854Y012606D01*
X024862Y012568D02*
X024854Y012606D01*
X024862Y012568D02*
X024862Y010273D01*
X024854Y010244D01*
X025854Y010244D02*
X025897Y010273D01*
X027427Y011803D01*
X030082Y011803D01*
X030217Y011668D01*
X030217Y011488D01*
X030226Y011457D01*
X029970Y011457D02*
X029947Y011443D01*
X029407Y011443D01*
X028237Y010273D01*
X028216Y010244D01*
X028507Y009688D02*
X030858Y009688D01*
X029212Y008334D02*
X029182Y008293D01*
X027697Y008293D01*
X030994Y011457D02*
X031027Y011488D01*
X029362Y013738D02*
X028237Y012613D01*
X028216Y012606D01*
X029362Y013738D02*
X029947Y013738D01*
X029970Y013755D01*
X030217Y013783D02*
X030217Y013963D01*
X030082Y014098D01*
X027382Y014098D01*
X026302Y015403D02*
X025897Y014998D01*
X025854Y014968D01*
X026302Y015403D02*
X029857Y015403D01*
X031207Y014053D01*
X030712Y014008D02*
X030712Y013783D01*
X030738Y013755D01*
X030712Y014008D02*
X030262Y014458D01*
X024772Y014458D01*
X025177Y014278D02*
X023512Y012613D01*
X023492Y012606D01*
X025177Y014278D02*
X030172Y014278D01*
X030442Y014008D01*
X030442Y013783D01*
X030482Y013755D01*
X030226Y013755D02*
X030217Y013783D01*
X031162Y016933D02*
X031657Y017428D01*
X036832Y017428D01*
X036767Y016169D02*
X036742Y016168D01*
X036742Y016033D01*
X033592Y017248D02*
X032557Y017248D01*
X032197Y016888D01*
X032165Y016858D01*
X031162Y016933D02*
X019057Y016933D01*
X019015Y016897D01*
X017662Y015853D02*
X014737Y015853D01*
X013747Y016843D01*
X012086Y017212D02*
X010315Y015441D01*
X008167Y014548D02*
X008167Y014053D01*
X008212Y014053D01*
X008238Y014070D01*
X008167Y014053D02*
X007762Y014053D01*
X007717Y014008D01*
X007677Y014004D01*
X007627Y014008D01*
X007582Y014008D01*
X006862Y013288D01*
X006862Y011848D01*
X006862Y011353D02*
X006727Y011218D01*
X006187Y011218D01*
X006170Y011210D01*
X005422Y011218D02*
X005422Y013603D01*
X004342Y014683D01*
X003757Y014683D01*
X003750Y014710D01*
X003750Y014210D02*
X003757Y014188D01*
X004342Y014188D01*
X004567Y013963D01*
X006142Y013243D02*
X006170Y013210D01*
X007357Y012793D02*
X007717Y012793D01*
X007717Y012658D01*
X008212Y012163D01*
X008887Y012163D01*
X009607Y012883D01*
X009645Y012921D01*
X008212Y012163D02*
X008212Y011803D01*
X008238Y011772D01*
X008257Y011758D01*
X008257Y010318D01*
X010912Y007663D01*
X011889Y008531D02*
X011902Y008563D01*
X012082Y008743D01*
X012082Y009148D01*
X011272Y008833D02*
X009292Y010813D01*
X009292Y011758D01*
X009261Y011772D01*
X009022Y011758D02*
X009006Y011772D01*
X009022Y011758D02*
X009022Y010588D01*
X010192Y009418D01*
X011182Y009508D02*
X012217Y009508D01*
X013612Y008113D01*
X013612Y007753D01*
X013387Y008788D02*
X018382Y008788D01*
X015817Y009688D02*
X015817Y010408D01*
X015405Y010244D02*
X015367Y010228D01*
X014962Y009823D01*
X013882Y009823D01*
X013477Y010228D01*
X013072Y010228D01*
X013043Y010244D01*
X012487Y009688D02*
X013387Y008788D01*
X012487Y009688D02*
X011272Y009688D01*
X009787Y011173D01*
X009787Y011758D01*
X009773Y011772D01*
X009562Y011758D02*
X009517Y011772D01*
X009562Y011758D02*
X009562Y011128D01*
X011182Y009508D01*
X010552Y011173D02*
X010552Y011758D01*
X010541Y011772D01*
X012532Y013018D02*
X013207Y013018D01*
X013612Y012613D01*
X012532Y013018D02*
X011497Y014053D01*
X011092Y014053D01*
X011053Y014070D01*
X011137Y013693D02*
X010462Y013693D01*
X010327Y013828D01*
X010327Y014053D01*
X010285Y014070D01*
X011137Y013693D02*
X011227Y013603D01*
X008977Y013828D02*
X008842Y013693D01*
X008302Y013693D01*
X008122Y013513D01*
X008122Y012838D01*
X008077Y012793D01*
X007717Y012793D02*
X007717Y013333D01*
X007677Y013334D01*
X008977Y013828D02*
X008977Y014053D01*
X009006Y014070D01*
X004702Y017878D02*
X003667Y016843D01*
X003355Y016819D01*
X004702Y017878D02*
X006097Y017878D01*
X006141Y017921D01*
X006850Y017921D02*
X006862Y017878D01*
X008786Y017878D01*
X009146Y017518D01*
X009320Y017878D02*
X013207Y017878D01*
X013162Y006223D02*
X011047Y006223D01*
X013162Y006223D02*
X013837Y005548D01*
X013972Y005548D01*
X013972Y005507D01*
X014512Y004423D02*
X013927Y003838D01*
X013522Y003838D01*
X013387Y003478D02*
X013072Y003793D01*
X008392Y003793D01*
X008385Y003826D01*
X007677Y003826D02*
X007672Y003838D01*
X007672Y004378D01*
X007357Y004693D01*
X007342Y004732D01*
X006602Y004244D02*
X006592Y004243D01*
X006502Y004243D01*
X006097Y003838D01*
X005692Y003838D01*
X005602Y003928D01*
X005602Y004333D01*
X004792Y004333D01*
X004792Y003838D02*
X004763Y003826D01*
X004792Y003838D02*
X005242Y003838D01*
X004055Y003826D02*
X004027Y003838D01*
X004027Y004513D01*
X003802Y004738D01*
X003760Y004771D01*
X008302Y005548D02*
X008482Y005548D01*
X008842Y005908D01*
X008858Y005952D01*
X013387Y003478D02*
X016402Y003478D01*
X017977Y004468D02*
X017972Y004507D01*
X017977Y004468D02*
X018382Y004468D01*
X019462Y003883D02*
X019687Y003883D01*
X020047Y003523D01*
X022837Y003523D01*
D33*
X022837Y003523D03*
X020497Y004873D03*
X019552Y005053D03*
X019462Y003883D03*
X016402Y003478D03*
X013522Y003838D03*
X016042Y006088D03*
X015682Y006988D03*
X013432Y007213D03*
X012487Y007168D03*
X011272Y007078D03*
X011272Y007573D03*
X011272Y008833D03*
X012082Y009148D03*
X010192Y009418D03*
X010552Y011173D03*
X008077Y012793D03*
X007357Y012793D03*
X006862Y011848D03*
X006862Y011353D03*
X011227Y013603D03*
X012217Y013828D03*
X012712Y013963D03*
X011812Y014863D03*
X011317Y014863D03*
X012532Y015223D03*
X014017Y015583D03*
X015952Y014503D03*
X017437Y014143D03*
X017662Y015853D03*
X014252Y017645D03*
X013747Y016843D03*
X012086Y017212D03*
X009320Y017878D03*
X006142Y017158D03*
X006367Y016078D03*
X007447Y015718D03*
X008167Y014548D03*
X009584Y014908D03*
X004567Y013963D03*
X015817Y009688D03*
X018157Y009328D03*
X019732Y009868D03*
X019777Y008653D03*
X022072Y009868D03*
X022027Y007168D03*
X024322Y006808D03*
X026797Y006853D03*
X025627Y005008D03*
X027472Y003883D03*
X028642Y005008D03*
X032129Y005329D03*
X033896Y003973D03*
X034537Y004333D03*
X036157Y004063D03*
X037552Y004918D03*
X037874Y003984D03*
X036102Y005559D03*
X033997Y007663D03*
X033277Y007663D03*
X031297Y008878D03*
X028642Y009328D03*
X030275Y010480D03*
X032287Y010363D03*
X032962Y012253D03*
X034132Y012883D03*
X033952Y014278D03*
X032872Y014233D03*
X031837Y014486D03*
X033031Y016228D03*
X034173Y016228D03*
X035748Y014653D03*
X036456Y014653D03*
X037372Y014323D03*
X037957Y014233D03*
X019552Y006628D03*
X018517Y006088D03*
X018157Y006448D03*
X008302Y005548D03*
X005782Y005233D03*
X005242Y003838D03*
X004207Y007348D03*
X031882Y002983D03*
M02*
