<svg width="12.953712" height="10.039674">
<polygon type="contour" points="7.273722,0.16554 7.337469,0.164991 7.356932,0.167172 7.420734,0.170428 7.439515,0.17386 7.504347,0.186127 7.522463,0.188125 7.58718,0.197414 7.605071,0.200096 7.670648,0.20874 7.68738,0.209324 7.753365,0.217685 7.770148,0.22029 7.836804,0.228056 7.853081,0.229673 7.919973,0.23911 7.93562,0.241137 8.003399,0.255027 8.018426,0.257567 8.086701,0.273261 8.101475,0.276019 8.169048,0.28917 8.182469,0.2909 8.25306,0.305334 8.265986,0.307257 8.336154,0.32452 8.348536,0.327153 8.418888,0.347755 8.429096,0.349782 8.501331,0.370351 8.510021,0.37219 8.584966,0.38887 8.59319,0.391068 8.668652,0.407321 8.676607,0.409399 8.751332,0.420908 8.762636,0.423628 8.836309,0.439802 8.845329,0.443879 8.918264,0.471371 8.92493,0.475553 8.978397,0.512102 9.023112,0.536504 9.048656,0.557039 9.095802,0.578133 9.124903,0.593242 9.153709,0.610059 9.196366,0.635945 9.22092,0.659468 9.256624,0.694256 9.276568,0.722105 9.306889,0.768514 9.327006,0.795336 9.357698,0.842034 9.395418,0.873853 9.415708,0.890823 9.472192,0.892062 9.485538,0.891139 9.499709,0.890962 9.513747,0.889081 9.582683,0.884965 9.652012,0.883377 9.665888,0.883016 9.734584,0.890507 9.7488,0.892002 9.763635,0.896646 9.811679,0.913186 9.847921,0.931134 9.887379,0.950026 9.921858,0.969313 9.960771,0.991256 9.995743,1.018085 10.027783,1.04085 10.05958,1.07218 10.09155,1.095234 10.121353,1.121668 10.154837,1.149543 10.186599,1.173639 10.218798,1.203714 10.255798,1.226329 10.289783,1.246832 10.331651,1.26466 10.364719,1.284192 10.398278,1.302787 10.441397,1.317693 10.47425,1.335624 10.51805,1.355409 10.548374,1.375173 10.58824,1.400436 10.623505,1.432375 10.652498,1.45398 10.685525,1.486793 10.711772,1.51412 10.74209,1.55126 10.768628,1.579198 10.800374,1.612786 10.827068,1.641497 10.854407,1.679002 10.878927,1.712642 10.90422,1.749732 10.930487,1.781858 10.954315,1.819808 10.980406,1.858128 11.004708,1.892127 11.030697,1.930016 11.053159,1.965136 11.079785,2.006895 11.099622,2.039451 11.125587,2.083971 11.144335,2.118619 11.168495,2.1665 11.184224,2.199593 11.209587,2.258999 11.224453,2.290169 11.252618,2.338624 11.267668,2.367162 11.298469,2.424117 11.311888,2.449016 11.342799,2.504923 11.354621,2.527811 11.385158,2.59083 11.392674,2.607264 11.404475,2.632315 11.42128,2.670508 11.440318,2.713706 11.457983,2.751418 11.479594,2.798282 11.493007,2.833894 11.511033,2.881533 11.523321,2.915723 11.541265,2.965106 11.549553,2.997796 11.562624,3.048171 11.56983,3.080079 11.581646,3.13153 11.585738,3.162551 11.596782,3.214831 11.600541,3.24543 11.604669,3.297361 11.607985,3.327426 11.613535,3.38082 11.615574,3.410156 11.621158,3.463902 11.625192,3.493622 11.630688,3.547481 11.632974,3.576209 11.638589,3.630579 11.641867,3.659041 11.64716,3.714032 11.649715,3.742457 11.652827,3.796908 11.655996,3.824936 11.661093,3.880321 11.663547,3.935579 11.664945,3.963082 11.667091,3.990632 11.67204,4.046483 11.67367,4.102304 11.67445,4.129408 11.676013,4.15656 11.680441,4.212336 11.680609,4.239341 11.676794,4.295415 11.674623,4.322652 11.672556,4.378394 11.670369,4.433437 11.667117,4.461046 11.657892,4.516495 11.654061,4.544704 11.645557,4.598637 11.64046,4.627427 11.631794,4.680076 11.624881,4.710181 11.613889,4.762874 11.609277,4.793625 11.602844,4.845099 11.596806,4.87715 11.587701,4.926926 11.578241,4.959169 11.559348,5.007951 11.545747,5.042026 11.52147,5.08892 11.505933,5.124602 11.486707,5.168409 11.468394,5.207819 11.45363,5.252011 11.438941,5.29102 11.427897,5.334252 11.416836,5.375278 11.402923,5.41667 11.390664,5.458429 11.378302,5.496557 11.362523,5.541159 11.346114,5.577233 11.326025,5.621994 11.300779,5.657007 11.257636,5.706379 11.220977,5.746293 11.206079,5.764003 11.177475,5.799297 11.133546,5.847961 11.087288,5.904282 11.066522,5.92893 11.047241,5.950233 10.996236,6.005594 10.94289,6.070994 10.92992,6.088285 10.914093,6.112224 10.865298,6.184606 10.813221,6.237785 10.794015,6.252523 10.784214,6.259797 10.718607,6.303133 10.671116,6.346655 10.646333,6.368416 10.608867,6.405006 10.575576,6.432019 10.560018,6.438463 10.496696,6.470769 10.458171,6.488229 10.417857,6.505473 10.353299,6.545731 10.340958,6.551798 10.313595,6.571988 10.266759,6.607249 10.243067,6.625461 10.192888,6.663598 10.134779,6.701839 10.117564,6.712488 10.071465,6.7391 10.039904,6.755558 10.030103,6.759397 9.959115,6.783755 9.932615,6.79474 9.878588,6.813672 9.835555,6.830286 9.798007,6.842851 9.736305,6.86798 9.717858,6.874326 9.655288,6.906084 9.639645,6.913719 9.634874,6.916555 9.562584,6.955828 9.531221,6.973924 9.48485,6.998135 9.4286,7.025792 9.405608,7.034518 9.341463,7.072556 9.329261,7.079743 9.324868,7.082202 9.25178,7.121901 9.218222,7.151041 9.177688,7.177454 9.118196,7.241628 9.10843,7.250666 9.102281,7.25537 9.033675,7.30535 8.993914,7.330538 8.957996,7.352614 8.889362,7.392433 8.881365,7.397789 8.876478,7.399911 8.803451,7.418133 8.790234,7.422782 8.721237,7.444589 8.696897,7.455932 8.638175,7.480903 8.594287,7.506724 8.561028,7.524457 8.492474,7.568485 8.485886,7.572266 8.467391,7.582586 8.407088,7.610268 8.309174,7.630122 8.308978,7.630147 8.226299,7.632016 8.141979,7.65 8.061006,7.681893 8.059226,7.682526 7.978572,7.712779 7.975731,7.713642 7.960045,7.718608 7.909817,7.732896 7.901393,7.73524 7.856029,7.754468 7.834194,7.763115 7.829705,7.764732 7.824302,7.767281 7.748468,7.795517 7.690861,7.810607 7.66401,7.814997 7.632321,7.822898 7.583874,7.835125 7.490917,7.857428 7.483915,7.858424 7.475611,7.859989 7.40107,7.861834 7.392496,7.862805 7.375886,7.865544 7.328546,7.870902 7.302722,7.873941 7.244424,7.888187 7.227109,7.890699 7.160803,7.903605 7.149834,7.90462 7.075119,7.913929 7.068931,7.914724 6.989378,7.924599 6.987711,7.924877 6.956693,7.928579 6.905702,7.933751 6.903535,7.934607 6.824334,7.943491 6.817877,7.945471 6.748094,7.956406 6.734093,7.957767 6.655086,7.953449 6.643146,7.953383 6.564341,7.948063 6.555204,7.947859 6.474828,7.947319 6.466828,7.946959 6.378798,7.939372 6.376461,7.939361 6.372448,7.938567 6.352252,7.93344 6.281917,7.915635 6.269979,7.912807 6.191541,7.898181 6.16843,7.893845 6.099493,7.883662 6.065305,7.87347 6.005887,7.857133 5.940888,7.827929 5.903753,7.810491 5.835107,7.769133 5.81239,7.753147 5.803185,7.746377 5.736463,7.685147 5.700901,7.648262 5.663791,7.604619 5.634616,7.56872 5.600288,7.521572 5.581793,7.489748 5.550529,7.43726 5.533867,7.406283 5.511741,7.353826 5.496564,7.325007 5.468804,7.269956 5.454721,7.242491 5.443249,7.187701 5.433045,7.163133 5.410729,7.104791 5.390752,7.066108 5.349228,6.976843 5.31483,6.956991 5.279465,6.953691 5.23091,6.940345 5.18972,6.931089 5.146107,6.9223 5.107223,6.912642 5.063795,6.909922 5.026012,6.90493 4.980506,6.899567 4.94375,6.894256 4.897462,6.888284 4.861487,6.883182 4.814414,6.876691 4.779634,6.87135 4.731484,6.864637 4.682478,6.857704 4.648382,6.84855 4.597595,6.837421 4.564844,6.829445 4.51357,6.822123 4.481714,6.814005 4.429534,6.806725 4.398863,6.798695 4.344958,6.785334 4.312399,6.774279 4.256397,6.754966 4.232033,6.75149 4.176082,6.735482 4.149116,6.730988 4.091209,6.717604 4.065903,6.716986 4.040567,6.716797 3.982285,6.706521 3.95773,6.705454 3.899528,6.704723 3.875402,6.699704 3.816725,6.699459 3.757364,6.698539 3.733804,6.696464 3.710287,6.699883 3.651321,6.710458 3.627485,6.714522 3.567735,6.725636 3.543086,6.729556 3.484254,6.737376 3.459591,6.739895 3.400626,6.740229 3.375832,6.739902 3.316623,6.738836 3.256826,6.730233 3.232716,6.724818 3.172153,6.707012 3.149606,6.701152 3.086422,6.669379 3.06614,6.66139 3.046974,6.648547 2.983282,6.606812 2.967128,6.595727 2.901021,6.54333 2.887661,6.533374 2.817361,6.490247 2.74551,6.477996 2.735349,6.475374 2.660951,6.469373 2.651434,6.469183 2.641829,6.46841 2.567744,6.459616 2.493682,6.444927 2.485764,6.443047 2.408402,6.402798 2.40291,6.400406 2.397667,6.397628 2.319904,6.346336 2.235907,6.305146 2.212895,6.296459 2.153383,6.273957 2.071193,6.264448 2.069295,6.264115 1.990575,6.249702 1.98761,6.249094 1.907622,6.212567 1.902841,6.210706 1.82651,6.180346 1.819913,6.17763 1.74565,6.14775 1.736971,6.143658 1.663414,6.107668 1.652787,6.103412 1.641638,6.09751 1.570842,6.049562 1.564492,6.044715 1.537125,6.018557 1.46641,5.948154 1.45569,5.937452 1.389848,5.86339 1.383691,5.8561 1.34318,5.780852 1.338559,5.775689 1.268824,5.693939 1.220378,5.650764 1.173387,5.608782 1.171351,5.606668 1.078412,5.525946 1.067888,5.518 0.987628,5.44188 0.976117,5.430294 0.910849,5.355247 0.899593,5.339132 0.851786,5.271744 0.841133,5.252148 0.810907,5.188244 0.80346,5.166216 0.779975,5.103768 0.774802,5.084669 0.762214,5.021228 0.757423,4.997205 0.751322,4.937715 0.745159,4.91315 0.742302,4.853345 0.723626,4.79685 0.709203,4.770514 0.681474,4.715699 0.664342,4.687473 0.633056,4.634161 0.617167,4.604267 0.594605,4.552829 0.582716,4.520273 0.565031,4.471234 0.553406,4.437096 0.536345,4.389195 0.524638,4.353783 0.508211,4.30794 0.49969,4.270894 0.488685,4.226442 0.48255,4.188475 0.475954,4.144963 0.467782,4.105672 0.454816,4.062892 0.44623,4.022178 0.440066,3.980827 0.43452,3.939361 0.433,3.897515 0.42448,3.856307 0.421743,3.813177 0.417519,3.773245 0.41617,3.733637 0.418858,3.690103 0.415994,3.646146 0.416355,3.607001 0.415312,3.562711 0.415627,3.523775 0.416686,3.485247 0.419933,3.440704 0.423061,3.401686 0.425646,3.357566 0.429927,3.319199 0.436098,3.274804 0.442197,3.237012 0.453965,3.191498 0.467056,3.152123 0.479021,3.108995 0.492826,3.069563 0.505072,3.026924 0.516663,2.995698 0.517087,2.994656 0.535797,2.952325 0.551366,2.917313 0.552864,2.91413 0.553442,2.912945 0.592201,2.834871 0.594303,2.830926 0.635568,2.758224 0.639693,2.751629 0.68053,2.685681 0.68613,2.677261 0.727162,2.614459 0.734518,2.604695 0.778224,2.548317 0.786755,2.53736 0.830054,2.482528 0.839341,2.470003 0.884686,2.420436 0.895415,2.407368 0.939127,2.356555 0.951142,2.341941 0.993724,2.292906 1.0061,2.276443 1.044765,2.226583 1.057503,2.207573 1.094315,2.158582 1.108795,2.139381 1.146257,2.093043 1.162719,2.073124 1.202114,2.031544 1.219801,2.011421 1.256424,1.968267 1.274314,1.94588 1.31085,1.905066 1.345662,1.865618 1.364927,1.841863 1.396867,1.801163 1.417325,1.776615 1.440577,1.753293 1.474592,1.716959 1.501053,1.69482 1.537804,1.663 1.574515,1.63283 1.604838,1.612377 1.642296,1.584271 1.672277,1.563102 1.710989,1.536609 1.741632,1.513853 1.778382,1.487719 1.809375,1.466375 1.824841,1.45873 1.843767,1.448388 1.88585,1.434459 1.928328,1.418647 1.970586,1.413429 2.011091,1.406521 2.054384,1.39066 2.095944,1.383825 2.134072,1.3721 2.178589,1.344066 2.215455,1.321621 2.242981,1.305298 2.277149,1.28379 2.322891,1.25562 2.345083,1.242124 2.376395,1.230156 2.428718,1.210931 2.458679,1.199887 2.512539,1.180287 2.540065,1.168152 2.595669,1.148503 2.622515,1.141579 2.67837,1.131763 2.704621,1.126934 2.761741,1.119448 2.786968,1.118087 2.844737,1.125471 2.902117,1.130509 2.927947,1.127568 2.985559,1.124864 3.01114,1.124501 3.068776,1.121937 3.094358,1.121937 3.15179,1.122585 3.177469,1.122922 3.203255,1.126383 3.260626,1.131878 3.28732,1.141699 3.343193,1.15245 3.398917,1.164872 3.426958,1.176438 3.480942,1.179398 3.510183,1.188786 3.563994,1.188883 3.593409,1.189097 3.647633,1.191122 3.676659,1.188565 3.730833,1.189223 3.760027,1.19011 3.814011,1.196641 3.843911,1.201973 3.895732,1.218887 3.92629,1.225494 3.979309,1.25295 4.011266,1.265681 4.061496,1.288546 4.095535,1.296682 4.129682,1.302128 4.178032,1.320601 4.213129,1.325635 4.260428,1.333694 4.296854,1.341837 4.342611,1.343288 4.379972,1.350057 4.42552,1.353716 4.470654,1.350179 4.508273,1.345792 4.555584,1.3239 4.591794,1.309575 4.640787,1.292274 4.676055,1.276932 4.72666,1.272952 4.759277,1.263268 4.808861,1.259558 4.842169,1.249673 4.894989,1.241204 4.925337,1.23175 4.978546,1.20918 5.008377,1.202949 5.063591,1.192993 5.091627,1.194374 5.119778,1.200436 5.174461,1.2075 5.203697,1.209742 5.257585,1.214137 5.287796,1.217387 5.341476,1.225656 5.393344,1.221882 5.424287,1.222589 5.454639,1.21394 5.51005,1.174416 5.537028,1.15838 5.573095,1.10996 5.597128,1.080227 5.627459,1.032786 5.641471,1.008998 5.673603,0.960218 5.687745,0.937909 5.723077,0.891874 5.737728,0.872632 5.773193,0.82482 5.788258,0.808692 5.826002,0.759883 5.838644,0.743606 5.878712,0.695263 5.888503,0.677668 5.919019,0.618544 5.929038,0.604904 5.968958,0.548447 6.024457,0.50934 6.036007,0.501016 6.090622,0.458539 6.101649,0.449299 6.161206,0.407836 6.171395,0.400552 6.238965,0.366368 6.250301,0.361173 6.313272,0.323827 6.323843,0.317788 6.366886,0.295194 6.410089,0.27512 6.423099,0.271268 6.491666,0.246475 6.506333,0.241611 6.572927,0.223489 6.588669,0.218909 6.65576,0.204377 6.672743,0.200942 6.737045,0.189191 6.754913,0.186688 6.821819,0.18402 6.838732,0.186573 6.904536,0.194235 6.921826,0.19866 6.98693,0.194005 7.00446,0.189129 7.069295,0.179306 7.087727,0.174318 7.151891,0.168125 7.170839,0.166074 7.18986,0.165757 7.254271,0.163925" style="fill: white" />
</svg>
