<svg width="12.953712" height="10.039674">
<polygon type="contour" points="1.879238,0.704969 1.954448,0.713882 1.973868,0.719716 2.030089,0.740769 2.081373,0.763115 2.107835,0.780483 2.125422,0.798068 2.162442,0.839908 2.184678,0.862831 2.220099,0.908414 2.234675,0.932968 2.265138,0.982085 2.287206,1.004639 2.317148,1.054072 2.333534,1.08273 2.358622,1.147393 2.37165,1.174047 2.39841,1.237378 2.41036,1.262963 2.439522,1.327131 2.449065,1.353613 2.479279,1.426784 2.488335,1.445434 2.528464,1.517257 2.534338,1.532055 2.569349,1.61417 2.575782,1.620699 2.621005,1.686765 2.627499,1.692051 2.676575,1.756458 2.682308,1.759478 2.739302,1.811678 2.74812,1.816027 2.816298,1.849492 2.824081,1.851627 2.908234,1.871753 2.919655,1.873122 2.999225,1.881628 3.011973,1.882764 3.083336,1.899334 3.09541,1.900048 3.107488,1.9015 3.178724,1.918896 3.190667,1.918786 3.260691,1.939463 3.274543,1.940522 3.343397,1.959738 3.357752,1.959709 3.427589,1.96891 3.438306,1.968057 3.510684,1.975476 3.522028,1.975392 3.593827,1.9821 3.605622,1.982866 3.67835,1.98779 3.69164,1.989216 3.759961,1.987803 3.771305,1.987652 3.843108,1.993647 3.914953,1.997982 3.925843,1.997405 3.936595,1.998205 4.009461,2.011549 4.018404,2.011648 4.092439,2.005816 4.164778,1.997639 4.175677,1.997417 4.186721,1.997196 4.258743,1.994306 4.270493,1.995309 4.342174,1.995219 4.353829,1.995266 4.425496,1.995008 4.437381,1.995795 4.509205,1.993142 4.522184,1.994219 4.593008,2.001614 4.605969,2.003875 4.675723,2.017378 4.686669,2.020167 4.759534,2.04611 4.770276,2.047924 4.841922,2.065598 4.916201,2.063211 4.924524,2.063324 4.932963,2.062833 5.007112,2.058865 5.081283,2.043721 5.090417,2.042531 5.161269,2.027534 5.172965,2.024605 5.245405,2.009117 5.256514,2.007774 5.327285,1.996516 5.339618,1.995411 5.411597,1.98833 5.423187,1.987203 5.495288,1.979162 5.506536,1.976823 5.578324,1.968958 5.589821,1.966658 5.662329,1.959068 5.673356,1.957071 5.740188,1.939458 5.754406,1.932842 5.818704,1.894364 5.835695,1.881457 5.900075,1.832264 5.919118,1.818905 5.984022,1.772796 6.004287,1.76321 6.068025,1.740082 6.088603,1.73359 6.150728,1.715804 6.171482,1.71196 6.232315,1.68734 6.255163,1.680492 6.315946,1.665232 6.338101,1.660696 6.398552,1.653613 6.421828,1.651553 6.483093,1.638471 6.505609,1.633164 6.56523,1.616401 6.588456,1.609229 6.646264,1.592563 6.671486,1.583907 6.731205,1.565185 6.755759,1.559287 6.814201,1.544457 6.83877,1.539492 6.896851,1.519744 6.922918,1.512404 6.978591,1.501169 7.005083,1.49661 7.061273,1.483549 7.088454,1.476837 7.143599,1.469057 7.171249,1.468032 7.199076,1.468971 7.254506,1.469525 7.281788,1.471197 7.338139,1.475897 7.393233,1.470327 7.420895,1.466841 7.47669,1.45359 7.504463,1.448188 7.558557,1.441293 7.587439,1.438049 7.643178,1.428658 7.671163,1.42646 7.724465,1.422092 7.753512,1.418517 7.782622,1.418457 7.836394,1.42043 7.865356,1.421889 7.919339,1.427241 7.94829,1.431425 8.002367,1.444624 8.030562,1.452071 8.084789,1.462656 8.111546,1.469833 8.168068,1.475675 8.194736,1.480022 8.250726,1.488178 8.276765,1.494579 8.333798,1.509236 8.358929,1.516404 8.416519,1.5312 8.460656,1.545995 8.468068,1.548639 8.543018,1.575614 8.544742,1.576318 8.545866,1.576804 8.624457,1.607646 8.624957,1.607816 8.695762,1.636332 8.70407,1.639686 8.751001,1.657305 8.771751,1.663167 8.83534,1.682517 8.856465,1.685479 8.917097,1.700015 8.935911,1.700534 9.000551,1.716813 9.018657,1.716959 9.084061,1.72358 9.102718,1.727291 9.167575,1.734854 9.18541,1.740438 9.249924,1.752301 9.266297,1.758483 9.334193,1.777898 9.351787,1.784191 9.417794,1.800264 9.434625,1.802583 9.499585,1.81705 9.516089,1.821113 9.571125,1.84121 9.630943,1.871856 9.647494,1.877339 9.706105,1.910165 9.721718,1.918814 9.780749,1.945695 9.79858,1.953524 9.863347,1.974991 9.881014,1.981201 9.938925,2.008091 9.957398,2.016194 10.013268,2.043795 10.033734,2.051966 10.092051,2.078048 10.111013,2.086831 10.163334,2.115565 10.184367,2.126626 10.236218,2.159392 10.254298,2.17201 10.270251,2.186979 10.315414,2.23051 10.331734,2.247595 10.395982,2.31573 10.403047,2.324113 10.428746,2.359505 10.441578,2.377547 10.464978,2.412929 10.506475,2.473474 10.532233,2.510711 10.590318,2.603298 10.592514,2.60695 10.604492,2.631434 10.642228,2.707065 10.647894,2.718401 10.698442,2.804877 10.72529,2.881582 10.735342,2.909558 10.758259,2.9988 10.762578,3.017921 10.770835,3.077158 10.776796,3.131649 10.780007,3.153517 10.791672,3.244343 10.797619,3.312496 10.80203,3.359429 10.810415,3.456459 10.811834,3.474975 10.811922,3.486325 10.812183,3.594082 10.815655,3.693963 10.816323,3.712595 10.817395,3.742171 10.820687,3.829274 10.821777,3.886698 10.823854,3.94755 10.820697,4.02434 10.819102,4.068347 10.81885,4.105912 10.817364,4.188152 10.813628,4.281636 10.812198,4.308624 10.811257,4.335942 10.807004,4.431261 10.798692,4.509125 10.793967,4.555004 10.778236,4.643495 10.770832,4.682735 10.767215,4.697296 10.734531,4.817264 10.723933,4.847816 10.68493,4.955427 10.66662,5.002476 10.643532,5.04612 10.616823,5.099612 10.609846,5.113987 10.605164,5.125923 10.578923,5.189287 10.547046,5.247485 10.5425,5.255751 10.534595,5.268098 10.504656,5.317881 10.485191,5.346309 10.46237,5.379366 10.418276,5.4354 10.417999,5.435693 10.417314,5.436389 10.367684,5.484558 10.347616,5.505 10.315763,5.530581 10.273934,5.561057 10.259666,5.57158 10.214402,5.60385 10.202731,5.611853 10.199058,5.613884 10.192744,5.617472 10.128551,5.648816 10.083946,5.685263 10.046276,5.708431 10.028244,5.726448 9.988706,5.770012 9.976616,5.781429 9.968646,5.788574 9.906216,5.848404 9.851826,5.892809 9.832847,5.908926 9.793095,5.935849 9.757103,5.95776 9.743035,5.966871 9.68098,6.002296 9.640365,6.024333 9.603557,6.043484 9.535715,6.080993 9.525986,6.085744 9.488789,6.101778 9.446388,6.118872 9.381944,6.138272 9.364958,6.144709 9.340411,6.153164 9.28379,6.172063 9.241884,6.189741 9.203982,6.204395 9.141609,6.231572 9.124823,6.239798 9.114376,6.244735 9.045952,6.269077 9.044051,6.269868 8.96293,6.294322 8.947953,6.300125 8.881982,6.323363 8.836105,6.339752 8.800773,6.350827 8.749645,6.376526 8.72326,6.3911 8.705671,6.397049 8.641726,6.417182 8.605655,6.433462 8.569294,6.447974 8.56195,6.449716 8.498299,6.469155 8.479886,6.472656 8.420105,6.482265 8.396126,6.489558 8.346787,6.499349 8.31324,6.508372 8.275652,6.519647 8.229053,6.527785 8.189993,6.530472 8.142909,6.532354 8.104263,6.5305 8.056338,6.52724 8.013952,6.524671 7.969281,6.521735 7.923557,6.509625 7.877271,6.49743 7.802491,6.473185 7.773911,6.464228 7.676835,6.432109 7.659405,6.430471 7.587356,6.424298 7.53698,6.430013 7.502325,6.434761 7.499667,6.435225 7.417712,6.446024 7.408956,6.44699 7.325864,6.436811 7.321389,6.43625 7.237065,6.430287 7.236224,6.430101 7.228738,6.428555 7.153103,6.413093 7.144667,6.411613 7.069339,6.389294 7.049294,6.389001 6.987568,6.374396 6.9594,6.374267 6.930979,6.373591 6.867195,6.358912 6.827351,6.353933 6.776171,6.347438 6.736693,6.349232 6.690738,6.353362 6.652583,6.354209 6.605733,6.366428 6.57988,6.373459 6.523608,6.39088 6.446466,6.422415 6.444702,6.422912 6.356628,6.424732 6.35609,6.42481 6.355509,6.424726 6.26453,6.410759 6.254851,6.408052 6.17002,6.383733 6.139976,6.373515 6.071383,6.348621 6.019483,6.330517 5.97765,6.317826 5.897295,6.284768 5.880065,6.27767 5.785003,6.254296 5.691153,6.236684 5.681924,6.236583 5.605863,6.239112 5.59875,6.239669 5.547246,6.253662 5.525982,6.25944 5.523154,6.2601 5.452318,6.277559 5.440547,6.280447 5.379182,6.296368 5.357202,6.299432 5.294067,6.301583 5.269628,6.302818 5.206141,6.299856 5.180295,6.297882 5.109572,6.290197 5.089719,6.289416 5.021099,6.289505 5.001289,6.289648 4.942728,6.299883 4.918228,6.301692 4.857372,6.303653 4.829724,6.303534 4.767378,6.300213 4.741387,6.299751 4.672135,6.290722 4.650994,6.29011 4.575199,6.278553 4.559146,6.274569 4.474937,6.261744 4.468235,6.260583 4.384224,6.254366 4.380358,6.253589 4.343906,6.247747 4.286608,6.239267 4.282226,6.239953 4.198027,6.240787 4.194148,6.241294 4.109986,6.240896 4.105721,6.240815 4.021564,6.239735 4.015994,6.238893 3.935635,6.24167 3.932976,6.241507 3.893062,6.246807 3.852372,6.252476 3.849728,6.253011 3.777537,6.26769 3.766992,6.269759 3.696802,6.276141 3.681315,6.27768 3.608859,6.274685 3.592865,6.273151 3.512273,6.263721 3.502379,6.262844 3.415189,6.250734 3.411306,6.250187 3.378419,6.244069 3.316443,6.232191 3.309373,6.230859 3.226861,6.214255 3.208374,6.208959 3.133879,6.188273 3.09044,6.174548 3.059882,6.163965 3.043196,6.15755 2.975971,6.132982 2.960016,6.126831 2.843361,6.079834 2.839307,6.07796 2.822132,6.070389 2.741706,6.032695 2.709262,6.014921 2.63956,5.976882 2.567146,5.941695 2.545643,5.92999 2.533111,5.921947 2.476391,5.890275 2.470267,5.886635 2.394246,5.844447 2.390328,5.84199 2.310413,5.791249 2.308166,5.7901 2.227711,5.747137 2.22743,5.746987 2.217513,5.741533 2.147192,5.702632 2.145151,5.701647 2.063068,5.653511 2.060256,5.652381 1.983334,5.618941 1.978168,5.616903 1.903744,5.57521 1.896316,5.572084 1.823642,5.523333 1.813932,5.516859 1.740685,5.464023 1.72913,5.457869 1.716931,5.451524 1.647022,5.404104 1.632662,5.396361 1.563172,5.359059 1.501153,5.289599 1.484233,5.281701 1.467917,5.276391 1.405912,5.237836 1.387015,5.227489 1.321272,5.178719 1.300412,5.164788 1.238726,5.123485 1.215973,5.108657 1.154516,5.081547 1.131212,5.068266 1.071762,5.03112 1.047353,5.016502 1.007773,4.98613 0.948115,4.928253 0.903829,4.870368 0.874392,4.833974 0.834075,4.786236 0.793898,4.745983 0.758512,4.700434 0.718537,4.661739 0.682516,4.619406 0.65349,4.577016 0.619726,4.536154 0.591531,4.48951 0.550994,4.451914 0.526489,4.408542 0.49558,4.367711 0.464214,4.322559 0.44614,4.285542 0.412864,4.229254 0.39949,4.198666 0.373436,4.142541 0.361698,4.11431 0.339803,4.060866 0.333083,4.032523 0.311769,3.975031 0.304468,3.948413 0.292636,3.889994 0.286631,3.865254 0.273811,3.806892 0.268611,3.782439 0.258283,3.721833 0.255741,3.699286 0.253789,3.677046 0.253105,3.616891 0.252446,3.508263 0.254581,3.482379 0.255702,3.47035 0.263914,3.427979 0.274603,3.336225 0.278538,3.319162 0.281157,3.307237 0.305167,3.24999 0.318793,3.208752 0.332405,3.183679 0.352289,3.140399 0.363126,3.120522 0.369147,3.109532 0.398554,3.060792 0.421239,3.009823 0.429397,2.995177 0.44359,2.968906 0.463024,2.93305 0.473112,2.911485 0.493028,2.867348 0.526395,2.80757 0.528631,2.799304 0.544429,2.728027 0.55955,2.667707 0.562943,2.654181 0.567755,2.638397 0.575664,2.574184 0.5733,2.485959 0.512103,2.352301 0.500908,2.333069 0.434904,2.220204 0.418989,2.173209 0.383006,2.081952 0.378437,2.054892 0.361837,1.954335 0.360781,1.944217 0.359881,1.939373 0.357541,1.850147 0.355134,1.791291 0.356937,1.757274 0.358072,1.712846 0.361878,1.672746 0.367302,1.640355 0.378223,1.598515 0.388561,1.563312 0.399999,1.526976 0.414208,1.481797 0.432152,1.442532 0.460641,1.394192 0.486739,1.35018 0.514347,1.311534 0.546016,1.270311 0.568975,1.246064 0.610171,1.203111 0.668202,1.145897 0.67559,1.137814 0.690947,1.123653 0.744492,1.081602 0.800442,1.057015 0.820933,1.043878 0.867294,1.02356 0.899155,1.011117 0.950777,1.004378 0.985989,0.998945 1.053507,1.001746 1.079089,1.003769 1.156432,1.016966 1.17456,1.018632 1.26327,1.005508 1.296096,0.9851 1.332474,0.950195 1.351788,0.927137 1.395491,0.878805 1.450369,0.82836 1.460796,0.818186 1.469281,0.813386 1.497971,0.791776 1.528411,0.772924 1.534105,0.768906 1.598457,0.742231 1.612348,0.736024 1.685642,0.725394 1.698649,0.721985 1.77745,0.713116 1.786351,0.712243 1.872826,0.704603 1.873941,0.704527" style="fill: white" />
</svg>
