<svg width="12.953712" height="10.039674">
<polygon type="contour" points="6.076059,0.557545 6.089472,0.559177 6.157502,0.568518 6.171568,0.570502 6.235298,0.594686 6.252947,0.599532 6.31571,0.624514 6.335694,0.632022 6.396401,0.663271 6.418517,0.674731 6.476056,0.703398 6.502372,0.712536 6.558236,0.734053 6.586347,0.747268 6.640364,0.768289 6.669969,0.786568 6.721707,0.814338 6.753428,0.826336 6.802504,0.847131 6.836431,0.851155 6.884565,0.866683 6.919345,0.871066 6.966746,0.88695 7.002991,0.889771 7.049835,0.905502 7.086709,0.905063 7.132733,0.919614 7.169682,0.924953 7.20959,0.918419 7.253496,0.928711 7.296127,0.936237 7.337201,0.920402 7.381894,0.925112 7.42074,0.915988 7.466769,0.919714 7.50407,0.908131 7.540004,0.904998 7.587148,0.907914 7.634039,0.907786 7.670691,0.906585 7.718729,0.905208 7.754017,0.89977 7.803171,0.899223 7.83684,0.893687 7.887321,0.886342 7.919842,0.880509 7.97342,0.864248 8.0035,0.858455 8.060314,0.844407 8.087034,0.844147 8.144227,0.83218 8.169852,0.828595 8.226986,0.822305 8.252403,0.821103 8.310459,0.814738 8.334815,0.817627 8.359686,0.822922 8.417015,0.831251 8.442152,0.839893 8.499698,0.868331 8.53132,0.881943 8.582664,0.922092 8.616278,0.93954 8.668207,0.962844 8.708578,0.992543 8.742379,1.009032 8.751531,1.020393 8.764001,1.03455 8.804675,1.090219 8.823533,1.101716 8.870712,1.138675 8.923851,1.164258 8.944064,1.177421 9.004136,1.199284 9.021952,1.211534 9.086347,1.231187 9.101498,1.242628 9.173011,1.257314 9.187557,1.264879 9.258298,1.285752 9.269778,1.292955 9.281624,1.299211 9.35295,1.319851 9.362206,1.324944 9.431869,1.352104 9.439928,1.35627 9.50683,1.389761 9.514119,1.392629 9.587843,1.417941 9.592979,1.420351 9.658521,1.462022 9.662999,1.464436 9.72777,1.50814 9.791801,1.55363 9.795724,1.556319 9.799741,1.55872 9.8637,1.604434 9.929278,1.648134 9.933105,1.649998 10.000319,1.692416 10.003877,1.694193 10.06736,1.742472 10.070418,1.744232 10.073285,1.746143 10.134511,1.797617 10.137803,1.799993 10.196731,1.85371 10.199908,1.856384 10.256153,1.914765 10.260386,1.919175 10.309381,1.984269 10.314538,1.991296 10.35802,2.060835 10.364792,2.071505 10.403345,2.14331 10.412829,2.158162 10.453823,2.216026 10.465582,2.23053 10.511411,2.279216 10.564309,2.315351 10.576554,2.325439 10.609344,2.338307 10.665623,2.35593 10.693235,2.353165 10.748508,2.350763 10.775464,2.346391 10.831249,2.33464 10.859993,2.331238 10.913565,2.319912 10.942903,2.313944 10.99733,2.302803 11.028535,2.300566 11.080842,2.29452 11.123627,2.296118 11.201089,2.294479 11.256378,2.307517 11.275949,2.310718 11.303589,2.323716 11.380469,2.35922 11.425019,2.390557 11.487402,2.4372 11.489069,2.438583 11.490584,2.439878 11.55874,2.500506 11.627075,2.555745 11.629301,2.557607 11.631858,2.559667 11.692385,2.608022 11.751899,2.652413 11.770575,2.666411 11.787999,2.680978 11.827342,2.716815 11.869877,2.761583 11.915034,2.814873 11.93261,2.83594 11.950924,2.855227 11.990667,2.90295 12.030011,2.94088 12.053048,2.968681 12.113188,3.064669 12.12037,3.07693 12.121323,3.078382 12.154938,3.145075 12.188123,3.211497 12.19175,3.221277 12.212438,3.279881 12.218492,3.29376 12.241059,3.365219 12.244794,3.377208 12.264017,3.451888 12.264367,3.460677 12.268615,3.53308 12.270386,3.543666 12.279312,3.616665 12.280968,3.626766 12.291296,3.703153 12.291923,3.710236 12.297653,3.787926 12.297666,3.793513 12.297401,3.799233 12.291771,3.876622 12.291053,3.88383 12.28391,3.959679 12.282661,3.967758 12.269414,4.042639 12.268102,4.049618 12.244152,4.125574 12.241469,4.134651 12.221166,4.208749 12.217747,4.220902 12.207748,4.291768 12.203973,4.304887 12.187881,4.374914 12.184634,4.38893 12.174907,4.456589 12.171908,4.466847 12.145311,4.539408 12.139437,4.553395 12.106017,4.620811 12.0972,4.636328 12.060359,4.702335 12.044176,4.722039 11.99848,4.78325 11.982842,4.803997 11.929427,4.861837 11.906785,4.883212 11.868335,4.922139 11.78835,4.992829 11.740185,5.035401 11.693875,5.078619 11.654365,5.111794 11.597247,5.149729 11.568707,5.164936 11.51063,5.200043 11.486621,5.207618 11.428055,5.239483 11.4044,5.244991 11.344285,5.261481 11.321531,5.264599 11.256552,5.282298 11.237091,5.285175 11.175024,5.305167 11.154822,5.311875 11.08934,5.33621 11.071742,5.340185 11.005273,5.357908 10.988801,5.361285 10.919971,5.384965 10.906017,5.386603 10.837509,5.397555 10.823439,5.398142 10.754409,5.396388 10.739966,5.396426 10.670774,5.394275 10.656115,5.392908 10.585485,5.401076 10.572318,5.401598 10.502639,5.414757 10.488168,5.421535 10.423562,5.438894 10.408184,5.448364 10.351068,5.480792 10.308887,5.486743 10.266801,5.514405 10.222753,5.602397 10.216683,5.616043 10.194994,5.684845 10.190349,5.698242 10.173923,5.773991 10.170714,5.78334 10.157835,5.856112 10.154269,5.865908 10.129209,5.941427 10.125247,5.949183 10.099019,6.026361 10.095541,6.03214 10.066817,6.101536 10.032735,6.184852 10.027365,6.19533 9.965518,6.27139 9.964181,6.275013 9.944493,6.289051 9.816068,6.393528 9.77916,6.424097 9.732861,6.483985 9.708785,6.497543 9.67511,6.541177 9.64575,6.558945 9.600888,6.619825 9.573473,6.636872 9.506922,6.704589 9.487168,6.71803 9.420166,6.771398 9.404775,6.781909 9.334852,6.829476 9.323682,6.838988 9.250468,6.878086 9.241645,6.882922 9.161901,6.916635 9.156177,6.92028 9.081224,6.946639 9.075752,6.94983 8.998546,6.972398 8.993383,6.975333 8.912269,6.99147 8.908553,6.99316 8.828193,7.002732 8.824976,7.003853 8.745277,7.016462 8.74179,7.017306 8.660994,7.035684 8.658451,7.035871 8.578249,7.047454 8.575394,7.047723 8.492191,7.056887 8.435026,7.080537 8.40641,7.092594 8.325676,7.137776 8.321429,7.139005 8.242722,7.176345 8.23673,7.176721 8.1593,7.210248 8.150615,7.212028 8.075488,7.229291 8.066133,7.230269 7.992141,7.238656 7.982718,7.239607 7.908822,7.253219 7.898063,7.253975 7.825778,7.263539 7.813562,7.268258 7.742105,7.272012 7.728564,7.277567 7.659321,7.291316 7.646439,7.296842 7.575945,7.320377 7.560486,7.32449 7.492372,7.336109 7.475183,7.340972 7.409193,7.344763 7.393364,7.345399 7.326125,7.348059 7.310743,7.349263 7.242737,7.36332 7.175898,7.353853 7.159607,7.353208 7.090473,7.340645 7.076216,7.336696 7.006705,7.335499 6.993081,7.333608 6.979529,7.333511 6.910086,7.332903 6.839839,7.333614 6.826571,7.331454 6.813595,7.33246 6.743601,7.328987 6.672727,7.323534 6.660363,7.3234 6.588046,7.306554 6.577194,7.306358 6.503806,7.28849 6.494097,7.287269 6.418755,7.270958 6.410611,7.2706 6.334327,7.252724 6.327379,7.252081 6.249255,7.227703 6.244107,7.227795 6.164476,7.21098 6.156096,7.212137 6.07776,7.196431 5.999033,7.186291 5.994163,7.186413 5.912346,7.178777 5.911131,7.178748 5.828411,7.161037 5.827747,7.161002 5.808645,7.156828 5.743222,7.143722 5.665693,7.143276 5.663031,7.141951 5.583153,7.131512 5.579546,7.130637 5.500097,7.130701 5.496399,7.129905 5.484885,7.12846 5.390272,7.116965 5.345642,7.109211 5.297168,7.097068 5.264619,7.088242 5.200679,7.064015 5.183759,7.059426 5.116064,7.029035 5.105604,7.024231 5.102784,7.022776 5.028153,6.987965 5.003866,6.976352 4.950989,6.951239 4.902012,6.914064 4.881243,6.892517 4.849908,6.861847 4.814316,6.805731 4.777124,6.769842 4.746256,6.728642 4.696981,6.687382 4.680288,6.666904 4.617177,6.584415 4.606887,6.562875 4.576082,6.499066 4.562791,6.479492 4.548156,6.460231 4.543949,6.457599 4.523019,6.406225 4.503476,6.345983 4.500976,6.332818 4.493507,6.320505 4.488238,6.31359 4.466386,6.279155 4.42201,6.174725 4.407038,6.144777 4.382254,6.088092 4.381163,6.085352 4.361678,6.049455 4.334905,5.999738 4.334332,5.998584 4.332649,5.992766 4.314266,5.92249 4.290782,5.884778 4.254388,5.831918 4.180703,5.794648 4.169138,5.789249 4.100879,5.768132 4.087456,5.763844 4.020009,5.744575 4.004516,5.738354 3.93711,5.722865 3.920398,5.718264 3.85635,5.693137 3.837096,5.688756 3.773819,5.666603 3.753393,5.658699 3.693958,5.634249 3.670935,5.622643 3.614589,5.591562 3.588298,5.574688 3.535635,5.545434 3.506791,5.528368 3.456121,5.502705 3.423805,5.484372 3.3772,5.459762 3.327073,5.428104 3.320346,5.424299 3.312134,5.41751 3.240604,5.358878 3.224135,5.345698 3.220702,5.343684 3.122408,5.267981 3.112148,5.260735 3.100493,5.253025 3.036226,5.185039 3.024673,5.171409 2.973778,5.105358 2.952349,5.086515 2.912851,5.023046 2.892148,5.001909 2.850092,4.943903 2.824954,4.918035 2.775955,4.864235 2.751637,4.835044 2.718483,4.784492 2.685177,4.751718 2.644999,4.705185 2.621225,4.667955 2.612712,4.626153 2.585604,4.585651 2.573385,4.546628 2.556166,4.503048 2.554125,4.454703 2.562641,4.419377 2.597161,4.369517 2.619458,4.334738 2.650775,4.286476 2.701775,4.240976 2.747976,4.210841 2.774824,4.18602 2.821332,4.150941 2.838321,4.132127 2.889471,4.098714 2.906195,4.081926 2.959066,4.051371 2.974933,4.03282 3.017599,3.99395 3.035046,3.975584 3.080773,3.938433 3.096027,3.919137 3.146903,3.882624 3.162255,3.867045 3.176612,3.850758 3.225601,3.812947 3.274094,3.774034 3.290877,3.760455 3.339916,3.721341 3.355851,3.707669 3.405159,3.667933 3.419234,3.653607 3.468336,3.611466 3.48111,3.598068 3.493246,3.585058 3.54697,3.521518 3.557838,3.503931 3.59723,3.440861 3.605841,3.421072 3.600211,3.400984 3.602321,3.338637 3.594534,3.317895 3.570675,3.255242 3.561893,3.237229 3.537356,3.172179 3.531464,3.156722 3.497156,3.089012 3.491187,3.076369 3.455269,3.005694 3.451594,2.996216 3.398274,2.913815 3.325585,2.846434 3.317871,2.839612 3.317388,2.839032 3.273229,2.759948 3.269717,2.755827 3.216533,2.680993 3.210512,2.672546 3.142007,2.603426 3.121549,2.589414 3.048728,2.527008 3.027594,2.506181 2.993662,2.448047 2.978924,2.422851 2.932531,2.369497 2.911098,2.339702 2.889306,2.289708 2.869948,2.256604 2.84285,2.210136 2.815893,2.173499 2.802831,2.130086 2.790824,2.090215 2.767058,2.049899 2.768125,2.006885 2.776184,1.963785 2.781432,1.92368 2.783445,1.881723 2.777768,1.840005 2.786158,1.794537 2.801882,1.739943 2.814065,1.706616 2.832204,1.662681 2.850659,1.63375 2.874933,1.587863 2.895877,1.564965 2.926582,1.521922 2.963696,1.482643 2.987265,1.461242 3.036015,1.432914 3.061647,1.421904 3.113546,1.39698 3.153241,1.376809 3.178194,1.374067 3.247448,1.360685 3.260794,1.3596 3.295641,1.361721 3.42976,1.376593 3.500254,1.377033 3.509823,1.377821 3.520772,1.379453 3.59314,1.398761 3.603008,1.40399 3.676585,1.431333 3.685403,1.434512 3.75947,1.461397 3.764821,1.462317 3.843083,1.479483 3.848578,1.481112 3.926234,1.490046 3.931613,1.491383 4.009577,1.493493 4.08709,1.491337 4.092498,1.490621 4.169591,1.479857 4.175789,1.480346 4.182057,1.482285 4.258707,1.497416 4.264942,1.499633 4.342431,1.509436 4.420107,1.493375 4.425604,1.492812 4.431164,1.492659 4.508796,1.492866 4.513867,1.49489 4.592139,1.520184 4.596408,1.522152 4.675301,1.544703 4.75597,1.554965 4.762003,1.553898 4.838858,1.545559 4.891707,1.479088 4.90644,1.457695 4.931223,1.402021 4.94265,1.38161 4.973372,1.326954 4.984774,1.310092 5.021342,1.256736 5.032218,1.241868 5.077648,1.193849 5.138095,1.160819 5.15288,1.153823 5.201124,1.110291 5.219254,1.101555 5.230888,1.088305 5.267871,1.033216 5.277237,1.020583 5.31729,0.964639 5.322605,0.955294 5.363868,0.893735 5.369667,0.885193 5.422415,0.833041 5.42721,0.827242 5.509721,0.765258 5.53677,0.743821 5.593212,0.724198 5.617829,0.713401 5.676873,0.701368 5.70268,0.691284 5.759742,0.66462 5.779868,0.65554 5.841202,0.612871 5.856537,0.607611 5.923746,0.564157 5.937013,0.563522 6.006943,0.556266" style="fill: white" />
</svg>
