<svg width="12.953712" height="10.039674">
<polygon type="contour" points="1.532369,0.597143 1.596498,0.610338 1.616042,0.61688 1.679041,0.634781 1.708576,0.647844 1.729828,0.656176 1.787012,0.682717 1.797623,0.688254 1.867395,0.725805 1.871604,0.728151 1.941491,0.765281 1.945561,0.767622 2.011703,0.810659 2.071934,0.863163 2.075371,0.865688 2.130311,0.925908 2.133556,0.929307 2.186423,0.990419 2.190184,0.994176 2.240965,1.055639 2.245082,1.060922 2.288644,1.129467 2.293175,1.136211 2.337032,1.207963 2.341699,1.215794 2.380603,1.288956 2.386002,1.29757 2.423724,1.369637 2.429429,1.380506 2.467294,1.455735 2.473495,1.467681 2.512627,1.531547 2.519182,1.544678 2.565239,1.603837 2.572055,1.616675 2.624175,1.65928 2.632736,1.672233 2.688027,1.71209 2.698672,1.72278 2.711069,1.731914 2.770549,1.765422 2.784974,1.772418 2.846448,1.80217 2.860854,1.807874 2.924427,1.834983 2.936193,1.840852 2.998983,1.873507 3.009794,1.879659 3.071801,1.914119 3.126658,1.959437 3.136657,1.966389 3.190178,2.01389 3.200005,2.021234 3.251849,2.073397 3.260536,2.08087 3.315119,2.124381 3.324949,2.132907 3.376904,2.180332 3.386901,2.189363 3.436753,2.241906 3.445861,2.251506 3.493923,2.305564 3.502834,2.3157 3.549187,2.370122 3.557808,2.381675 3.576089,2.409082 3.610784,2.459427 3.62256,2.479417 3.656153,2.540517 3.677828,2.582415 3.717145,2.659911 3.730113,2.686268 3.771644,2.777773 3.777354,2.791873 3.814049,2.887188 3.818574,2.899613 3.822686,2.913499 3.852049,3.009805 3.858738,3.03444 3.882686,3.121275 3.893289,3.158263 3.913084,3.232718 3.92634,3.284082 3.938967,3.345825 3.952935,3.428136 3.95826,3.460761 3.967952,3.547123 3.971513,3.578456 3.971834,3.595047 3.974378,3.699322 3.970731,3.821713 3.97073,3.823578 3.970613,3.825473 3.965737,3.947957 3.955325,4.014132 3.954166,4.026546 3.936685,4.10535 3.935928,4.110004 3.926874,4.184236 3.925355,4.19202 3.913851,4.267267 3.912747,4.274926 3.896924,4.352706 3.895814,4.35903 3.894426,4.36548 3.869397,4.473943 3.857373,4.516134 3.855884,4.524408 3.827499,4.601341 3.825346,4.608768 3.800563,4.682 3.796826,4.691024 3.792988,4.700103 3.760065,4.792134 3.723913,4.870277 3.723784,4.870522 3.723584,4.8708 3.659328,4.958087 3.594086,5.040563 3.592343,5.042471 3.5908,5.044364 3.523112,5.122986 3.470514,5.165387 3.451876,5.179738 3.394397,5.209108 3.373406,5.218874 3.367542,5.221138 3.293433,5.249573 3.268388,5.261778 3.216106,5.289111 3.16755,5.314848 3.139688,5.33308 3.061763,5.377349 3.046006,5.389196 3.037527,5.393193 2.966954,5.429737 2.960012,5.432642 2.883542,5.45954 2.877291,5.460932 2.801911,5.482187 2.795835,5.484014 2.718902,5.502434 2.713221,5.504035 2.634867,5.527663 2.628862,5.52929 2.553873,5.538375 2.549102,5.539595 2.470125,5.563235 2.465053,5.564427 2.387969,5.576364 2.383228,5.576709 2.305436,5.586288 2.300648,5.586717 2.223387,5.59088 2.145631,5.589999 2.14085,5.589624 2.063293,5.57989 2.058116,5.579536 1.979904,5.572417 1.974642,5.571499 1.896448,5.555274 1.890838,5.553291 1.814173,5.532951 1.807976,5.531381 1.733176,5.518679 1.725862,5.516149 1.648724,5.491711 1.641301,5.489519 1.567424,5.459592 1.558571,5.455275 1.484228,5.410005 1.474075,5.403499 1.401643,5.364671 1.390664,5.359844 1.320457,5.31967 1.308205,5.313211 1.239218,5.264654 1.225523,5.255726 1.156394,5.201053 1.141388,5.188815 1.072532,5.136268 1.055967,5.121729 0.989392,5.068143 0.97258,5.053645 0.940804,5.027694 0.907047,4.993461 0.860956,4.950424 0.819267,4.910615 0.781172,4.86753 0.748641,4.831597 0.699987,4.784466 0.665761,4.74827 0.619951,4.701725 0.594057,4.667908 0.551063,4.620936 0.523101,4.588156 0.485745,4.539599 0.467057,4.508573 0.443415,4.457122 0.431819,4.426574 0.408736,4.374251 0.399201,4.343326 0.387281,4.290865 0.383774,4.260443 0.372008,4.207773 0.365885,4.177397 0.358638,4.124721 0.357056,4.095657 0.344889,4.041878 0.338519,4.012943 0.326728,3.95857 0.323482,3.929778 0.3216,3.875593 0.318581,3.847547 0.312737,3.792182 0.312438,3.764481 0.305417,3.708889 0.301825,3.682245 0.2901,3.625918 0.286167,3.599288 0.288367,3.543298 0.285045,3.517907 0.280083,3.459916 0.281446,3.402411 0.2812,3.376701 0.285584,3.318404 0.285884,3.293473 0.285044,3.23453 0.287917,3.210138 0.29488,3.151333 0.29988,3.12692 0.307108,3.067885 0.311996,3.043595 0.322306,2.982949 0.324808,2.959966 0.327726,2.900627 0.330568,2.877259 0.337504,2.817442 0.34227,2.794049 0.350467,2.734348 0.354124,2.71125 0.366475,2.650983 0.370464,2.627903 0.383978,2.567136 0.386663,2.544645 0.399588,2.483525 0.400158,2.461406 0.411107,2.399699 0.408889,2.378091 0.407595,2.356471 0.409574,2.295022 0.410847,2.233628 0.409747,2.211758 0.40742,2.190298 0.408082,2.128806 0.406597,2.107437 0.404819,2.045546 0.400446,1.98292 0.398261,1.962271 0.3981,1.941732 0.393605,1.8791 0.391865,1.816312 0.392515,1.796167 0.397747,1.732697 0.400602,1.712687 0.404753,1.693289 0.420185,1.60813 0.431469,1.57997 0.450314,1.516602 0.461053,1.488214 0.486954,1.432967 0.497869,1.409966 0.524948,1.353503 0.535733,1.33393 0.564114,1.276477 0.575817,1.256085 0.607497,1.200711 0.617204,1.183562 0.648538,1.123302 0.660176,1.110068 0.694956,1.052295 0.70515,1.039497 0.745548,0.984945 0.793569,0.933281 0.802735,0.923862 0.857716,0.876201 0.866288,0.868879 0.923899,0.82239 0.931231,0.815757 0.989975,0.769208 0.997582,0.763788 1.061781,0.718481 1.067415,0.714408 1.134744,0.672617 1.140504,0.669428 1.149751,0.664641 1.183714,0.648851 1.245256,0.627474 1.264334,0.620013 1.330576,0.602639 1.348589,0.599122 1.366461,0.598023 1.430581,0.594595 1.449586,0.595012 1.513423,0.593781" style="fill: white" />
</svg>
