<svg width="12.953712" height="10.039674">
<polygon type="contour" points="1.679646,1.038125 1.693784,1.040338 1.761852,1.047631 1.776569,1.051424 1.844791,1.066072 1.860053,1.070274 1.927301,1.08751 1.942232,1.093422 2.010061,1.119012 2.077301,1.148836 2.078757,1.149505 2.079094,1.149662 2.096457,1.160147 2.149952,1.192652 2.150775,1.193375 2.217806,1.242031 2.21805,1.242281 2.270153,1.28848 2.280847,1.297978 2.280903,1.298022 2.34133,1.355365 2.341946,1.355934 2.391189,1.428229 2.392399,1.429578 2.440964,1.50109 2.442697,1.503074 2.494694,1.571121 2.496747,1.573542 2.547209,1.644202 2.551574,1.648174 2.606176,1.705401 2.609785,1.707814 2.668746,1.761202 2.733389,1.807098 2.736659,1.808958 2.80369,1.852508 2.806869,1.854272 2.8096,1.856849 2.868304,1.910837 2.870133,1.914058 2.915864,1.990363 2.918065,1.996388 2.953073,2.091904 2.958231,2.099806 3.004076,2.15841 3.063818,2.204082 3.069664,2.208045 3.075484,2.211687 3.134164,2.26154 3.139282,2.266581 3.198148,2.316754 3.203388,2.321928 3.255924,2.380164 3.260081,2.387173 3.306388,2.454133 3.309927,2.463155 3.35073,2.537094 3.356278,2.555854 3.383715,2.611495 3.404543,2.665282 3.418905,2.695439 3.439086,2.747983 3.448972,2.77891 3.463204,2.83076 3.468567,2.862115 3.479424,2.911892 3.483766,2.944338 3.48607,2.994145 3.489086,3.027322 3.495829,3.078095 3.503249,3.111183 3.507904,3.162643 3.519941,3.195322 3.532054,3.248045 3.54689,3.279212 3.571798,3.332723 3.585997,3.363583 3.611328,3.413372 3.625282,3.445952 3.64603,3.496402 3.653186,3.528589 3.664159,3.575952 3.673173,3.610904 3.685822,3.659781 3.69099,3.694403 3.702662,3.743732 3.708201,3.778143 3.721449,3.826476 3.729464,3.861753 3.739557,3.908837 3.744869,3.944081 3.752285,3.990697 3.756994,4.026684 3.762377,4.069355 3.763982,4.104991 3.771131,4.157721 3.76633,4.193542 3.76478,4.229394 3.766924,4.276466 3.765815,4.311609 3.769099,4.359104 3.772719,4.410185 3.767557,4.443258 3.764661,4.498399 3.761847,4.528282 3.750108,4.577546 3.739663,4.610635 3.710491,4.664779 3.70457,4.682811 3.669971,4.738177 3.659075,4.759419 3.615455,4.810359 3.604204,4.825885 3.556118,4.870512 3.543067,4.88334 3.528868,4.896085 3.465163,4.935492 3.454731,4.944038 3.38477,4.9895 3.381418,4.991941 3.311738,5.023877 3.300283,5.031967 3.22796,5.059791 3.219461,5.065342 3.193765,5.075499 3.138603,5.095283 3.099702,5.108564 3.073241,5.117895 3.027518,5.137511 3.00156,5.152737 2.994315,5.156229 2.982986,5.16143 2.916602,5.195398 2.882001,5.217352 2.843846,5.248594 2.823197,5.2721 2.789281,5.31939 2.747768,5.363675 2.699003,5.415911 2.695186,5.419148 2.641976,5.473699 2.634456,5.478655 2.581544,5.545196 2.576525,5.547515 2.522761,5.610269 2.46297,5.661937 2.453142,5.665193 2.408275,5.735996 2.34051,5.771432 2.331374,5.771924 2.265226,5.786911 2.241082,5.789956 2.192945,5.811927 2.158243,5.814629 2.118721,5.820525 2.027391,5.770317 2.024325,5.769566 2.021113,5.764815 1.977064,5.718072 1.962987,5.702117 1.961208,5.700944 1.893842,5.63431 1.860844,5.621621 1.845549,5.616379 1.79852,5.545617 1.776357,5.534194 1.739507,5.516016 1.687296,5.458725 1.617994,5.404655 1.572946,5.380231 1.548687,5.367868 1.439816,5.303144 1.408821,5.285914 1.344144,5.23776 1.301674,5.206906 1.253945,5.156475 1.228706,5.124682 1.192582,5.076929 1.167472,5.04278 1.137561,4.995807 1.120843,4.960197 1.086974,4.91331 1.069256,4.877118 1.045746,4.831645 1.018721,4.79475 0.992226,4.749053 0.961733,4.71041 0.934365,4.665799 0.901623,4.627432 0.875115,4.582999 0.846411,4.544612 0.825664,4.50128 0.808577,4.462124 0.785381,4.418757 0.771803,4.377715 0.750864,4.335824 0.738096,4.293299 0.711106,4.253337 0.690413,4.211258 0.660951,4.1713 0.639333,4.128798 0.613672,4.090533 0.592275,4.047114 0.569714,4.007807 0.5392,3.962674 0.518258,3.92429 0.497606,3.878971 0.469383,3.830808 0.442224,3.79248 0.393986,3.746111 0.362434,3.70897 0.326842,3.664202 0.301215,3.628652 0.277581,3.582963 0.260034,3.546908 0.249998,3.499381 0.241406,3.463608 0.237151,3.415913 0.233125,3.380356 0.236664,3.345029 0.242267,3.297153 0.24576,3.262185 0.251937,3.214154 0.260956,3.179652 0.273606,3.131348 0.282427,3.097537 0.302284,3.047779 0.30443,3.013603 0.318424,2.964872 0.317134,2.914769 0.314611,2.881525 0.309314,2.831443 0.308734,2.798352 0.311639,2.765417 0.309557,2.714768 0.31302,2.693743 0.316914,2.655585 0.332828,2.609491 0.347283,2.57087 0.365522,2.526982 0.38184,2.486379 0.398559,2.444954 0.409774,2.403967 0.419288,2.382216 0.430873,2.330382 0.442234,2.299153 0.451078,2.248109 0.458431,2.216441 0.46677,2.163701 0.473798,2.132684 0.481584,2.0811 0.487984,2.054831 0.497692,2.009346 0.509934,1.967805 0.525162,1.921665 0.540064,1.885751 0.547729,1.865495 0.566438,1.825296 0.582771,1.782633 0.603105,1.744229 0.624269,1.706503 0.649185,1.677238 0.67343,1.638151 0.696457,1.606493 0.723752,1.57032 0.755725,1.536445 0.780623,1.509442 0.813942,1.474342 0.840203,1.45133 0.875697,1.416767 0.900696,1.394106 0.939785,1.363084 0.967255,1.342916 1.009917,1.310725 1.032274,1.290018 1.074151,1.257549 1.098449,1.238839 1.140566,1.206408 1.165372,1.188129 1.208203,1.153851 1.232671,1.137756 1.298356,1.104337 1.333998,1.085977 1.348959,1.079433 1.41556,1.061516 1.431536,1.05732 1.499449,1.04356 1.514668,1.042151 1.529859,1.041473 1.596961,1.03935 1.665516,1.036855" style="fill: white" />
</svg>
