<svg width="12.953712" height="10.039674">
<polygon type="contour" points="7.904183,0.344005 7.92026,0.349676 7.991376,0.38123 8.003628,0.389649 8.079293,0.422073 8.087809,0.423468 8.162598,0.440597 8.170464,0.441339 8.246054,0.452063 8.253323,0.452998 8.329282,0.464042 8.336026,0.465196 8.414461,0.481682 8.419711,0.483328 8.497407,0.49599 8.502271,0.497978 8.580255,0.499121 8.585255,0.49938 8.590155,0.498911 8.669254,0.504556 8.746799,0.509705 8.752598,0.511048 8.786307,0.521473 8.800475,0.529 8.86033,0.559436 8.91248,0.601923 8.924833,0.612143 8.976122,0.656932 8.987531,0.668272 9.038714,0.713517 9.050054,0.723871 9.100766,0.772047 9.111511,0.781299 9.123021,0.789275 9.183332,0.823464 9.197769,0.829104 9.266176,0.849675 9.286047,0.85171 9.360381,0.859337 9.383823,0.862067 9.451428,0.872981 9.473289,0.881141 9.532179,0.902204 9.553102,0.913632 9.603729,0.945693 9.648219,0.984088 9.666246,1.001688 9.709116,1.045337 9.726185,1.06169 9.766678,1.108 9.782035,1.127103 9.822668,1.17412 9.837654,1.192045 9.87911,1.23874 9.89411,1.257196 9.943858,1.292143 9.96012,1.308075 10.014201,1.338393 10.032458,1.350632 10.051059,1.36125 10.101266,1.397729 10.148187,1.440587 10.164941,1.451999 10.181177,1.465221 10.230851,1.502943 10.249228,1.51436 10.301234,1.547583 10.320164,1.557888 10.373964,1.588432 10.392789,1.60053 10.445297,1.631581 10.49486,1.664436 10.513339,1.679275 10.560901,1.717146 10.577655,1.732391 10.619569,1.775196 10.636031,1.793069 10.676232,1.842578 10.691321,1.859386 10.733317,1.910365 10.746731,1.926807 10.787612,1.98668 10.798056,2.000744 10.83776,2.06065 10.847549,2.073708 10.891173,2.138382 10.898727,2.148128 10.946132,2.209584 10.952457,2.216847 10.965672,2.227779 11.012943,2.273173 11.031841,2.274363 11.08455,2.287522 11.114099,2.289242 11.164816,2.276011 11.19288,2.268109 11.247004,2.254758 11.27386,2.247705 11.329994,2.235286 11.356753,2.230517 11.413101,2.227267 11.438832,2.223492 11.496611,2.216431 11.522115,2.213304 11.580357,2.206844 11.638579,2.208062 11.664086,2.207471 11.693842,2.209302 11.752284,2.222463 11.798841,2.240405 11.833526,2.25439 11.872879,2.279312 11.905457,2.296121 11.938705,2.315801 11.974281,2.342895 12.013247,2.366584 12.04652,2.384927 12.087624,2.406978 12.12114,2.42302 12.160974,2.445861 12.194627,2.46214 12.235267,2.486654 12.26635,2.504778 12.293993,2.527546 12.329557,2.560266 12.356327,2.587554 12.389623,2.621144 12.414793,2.653378 12.444161,2.688485 12.467863,2.722497 12.494778,2.760255 12.519932,2.797402 12.546804,2.834604 12.573809,2.871436 12.599305,2.903142 12.626969,2.940497 12.650515,2.976342 12.68047,3.01887 12.700882,3.052767 12.711979,3.077145 12.734757,3.127604 12.745544,3.16227 12.764505,3.213118 12.77245,3.250318 12.77925,3.296132 12.784373,3.333225 12.793695,3.379653 12.798752,3.417803 12.807666,3.462995 12.811308,3.502711 12.814171,3.546054 12.817744,3.585569 12.822758,3.629383 12.824454,3.66865 12.827439,3.712795 12.830619,3.753398 12.832139,3.796074 12.831792,3.839221 12.82902,3.879508 12.826594,3.919218 12.825005,3.962577 12.818534,4.005587 12.812946,4.045577 12.803139,4.089677 12.795334,4.128943 12.784431,4.17472 12.775551,4.211993 12.763363,4.25878 12.755421,4.295044 12.740202,4.345017 12.72929,4.378905 12.711235,4.430259 12.701684,4.461188 12.68057,4.512677 12.666964,4.543659 12.637339,4.601352 12.623983,4.627509 12.587684,4.685871 12.572065,4.710157 12.534998,4.773113 12.524352,4.792391 12.48432,4.857287 12.473222,4.874819 12.424677,4.945153 12.416927,4.957419 12.355437,5.032409 12.349683,5.040028 12.280697,5.11536 12.277297,5.118762 12.244987,5.147867 12.229527,5.161601 12.227714,5.163106 12.157447,5.207417 12.149034,5.212703 12.06262,5.271038 12.057992,5.273883 11.97949,5.313232 11.972495,5.316159 11.898659,5.340656 11.890544,5.343753 11.816844,5.365749 11.807737,5.368449 11.733652,5.383043 11.724476,5.38462 11.651659,5.390211 11.577781,5.390017 11.56893,5.391949 11.494954,5.393238 11.486086,5.394308 11.411162,5.392216 11.403188,5.392907 11.395279,5.392389 11.32046,5.388244 11.314161,5.387842 11.236043,5.378092 11.229705,5.376958 11.151728,5.368641 11.050286,5.373004 10.97837,5.411878 10.941566,5.475858 10.90797,5.53595 10.904256,5.54257 10.862003,5.617311 10.857922,5.624007 10.809084,5.69466 10.806147,5.699767 10.736128,5.784952 10.721582,5.804079 10.691856,5.865915 10.680605,5.884124 10.63664,5.949751 10.619799,5.973289 10.573454,6.037384 10.537962,6.071561 10.505137,6.120901 10.466568,6.159503 10.431661,6.205394 10.399714,6.244939 10.370323,6.288938 10.33194,6.3358 10.307525,6.373059 10.271322,6.423983 10.249858,6.457816 10.204232,6.507383 10.173911,6.537476 10.115531,6.598019 10.088267,6.622479 10.035233,6.688798 10.020186,6.700438 9.970288,6.772564 9.961617,6.786677 9.924551,6.857811 9.917821,6.869191 9.870364,6.944072 9.86384,6.953631 9.819348,6.997917 9.795366,7.023011 9.735197,7.067704 9.709373,7.082564 9.65393,7.112847 9.623693,7.13008 9.570878,7.152851 9.540006,7.166198 9.487963,7.18591 9.454689,7.198517 9.40363,7.22152 9.368744,7.230988 9.320376,7.249082 9.284671,7.254599 9.237657,7.267594 9.199967,7.274747 9.153338,7.284295 9.116107,7.291309 9.071105,7.298668 9.031037,7.314572 8.987823,7.323829 8.94939,7.332637 8.904545,7.349408 8.862968,7.358725 8.82181,7.366502 8.778709,7.381048 8.738163,7.386657 8.69497,7.398902 8.65485,7.413076 8.609884,7.424552 8.571401,7.43456 8.525819,7.44007 8.487985,7.445463 8.442538,7.445022 8.40464,7.448644 8.366736,7.445349 8.322041,7.440016 8.278381,7.439923 8.238288,7.451465 8.191503,7.471518 8.154671,7.493365 8.10613,7.511817 8.071447,7.524025 8.022265,7.531593 7.988694,7.537172 7.954465,7.53819 7.905445,7.532369 7.855139,7.540787 7.821516,7.541636 7.771849,7.561702 7.73899,7.56836 7.687531,7.588899 7.65586,7.596734 7.602355,7.608131 7.572167,7.615635 7.518657,7.623515 7.489249,7.627454 7.436424,7.629939 7.40638,7.634467 7.351904,7.645788 7.322777,7.645049 7.266348,7.663238 7.239049,7.669441 7.183578,7.680286 7.156639,7.687321 7.098267,7.699489 7.072506,7.704898 7.014071,7.711071 6.98926,7.714279 6.931462,7.716475 6.906248,7.721148 6.848728,7.721513 6.822884,7.72684 6.765072,7.727231 6.739371,7.731055 6.682099,7.731896 6.655735,7.735285 6.598513,7.733141 6.572575,7.731925 6.546041,7.726107 6.488834,7.71345 6.460269,7.703283 6.405297,7.68339 6.375114,7.67156 6.322882,7.650494 6.290167,7.635086 6.240377,7.614347 6.206283,7.59739 6.155906,7.565725 6.116769,7.542182 6.072942,7.515502 6.031547,7.488798 5.991298,7.462469 5.945291,7.429917 5.907745,7.403264 5.825252,7.339955 5.823811,7.338801 5.739443,7.259954 5.726908,7.248848 5.670889,7.172437 5.662019,7.160621 5.61832,7.088959 5.607111,7.072864 5.579933,7.005908 5.570692,6.987625 5.539178,6.921737 5.53036,6.900321 5.500592,6.838382 5.488168,6.813747 5.452715,6.754603 5.435763,6.726022 5.419604,6.67214 5.411712,6.642373 5.391318,6.588996 5.382808,6.557029 5.358205,6.505391 5.350807,6.47046 5.343273,6.42219 5.33438,6.386537 5.322018,6.339815 5.322042,6.303097 5.318936,6.255072 5.314225,6.217246 5.303066,6.171898 5.278154,6.131383 5.267339,6.088646 5.25433,6.047522 5.23872,6.006239 5.223811,5.963611 5.213872,5.924425 5.179152,5.869056 5.161977,5.837844 5.095206,5.795655 5.078857,5.783378 5.011462,5.783327 4.995948,5.78138 4.980496,5.783271 4.912558,5.774602 4.897938,5.778256 4.829677,5.803742 4.813563,5.803746 4.746472,5.803772 4.730327,5.807766 4.663045,5.816109 4.646476,5.818177 4.579435,5.82234 4.562058,5.824511 4.496311,5.832575 4.478477,5.834795 4.413223,5.843554 4.395249,5.843527 4.330293,5.851095 4.266371,5.84814 4.247902,5.844797 4.182237,5.839443 4.164621,5.837568 4.098617,5.828395 4.082105,5.823831 4.012782,5.801194 3.998311,5.797886 3.930603,5.786149 3.916533,5.782694 3.844207,5.758874 3.832758,5.756 3.758866,5.71935 3.749937,5.714 3.671501,5.656314 3.667004,5.653415 3.585164,5.590873 3.584647,5.59045 3.575056,5.583347 3.50204,5.529329 3.498928,5.526788 3.403258,5.432591 3.398158,5.42677 3.340849,5.34371 3.340279,5.342762 3.32519,5.311015 3.30011,5.258786 3.299335,5.257195 3.269388,5.175736 3.267575,5.171166 3.238557,5.092736 3.235082,5.085348 3.200448,5.010108 3.199567,5.007826 3.168786,4.92579 3.165269,4.913203 3.144756,4.844298 3.143487,4.829484 3.127019,4.760736 3.126781,4.744465 3.129887,4.674034 3.132649,4.606546 3.133715,4.590382 3.138783,4.52136 3.141302,4.506211 3.149037,4.436657 3.152195,4.422528 3.168624,4.351488 3.171411,4.338125 3.192514,4.268671 3.197297,4.255839 3.233819,4.184494 3.238257,4.173803 3.286004,4.101644 3.292409,4.092114 3.348908,4.016333 3.352511,4.011516 3.405725,3.926301 3.406939,3.924808 3.424034,3.903878 3.437345,3.852669 3.57569,3.482473 3.57532,3.470023 3.569553,3.414608 3.556101,3.343336 3.555479,3.339127 3.555348,3.336309 3.572295,3.231979 3.566614,3.202575 3.561216,3.112674 3.557606,3.100021 3.552755,3.071936 3.545139,2.978719 3.539773,2.928245 3.536834,2.852294 3.537408,2.791565 3.534337,2.742947 3.542863,2.680945 3.543099,2.6767 3.543567,2.673433 3.5467,2.595592 3.547433,2.590614 3.564295,2.5111 3.565955,2.505521 3.586619,2.428229 3.588533,2.421643 3.609619,2.346044 3.635086,2.276623 3.641979,2.260048 3.673999,2.192754 3.68009,2.179855 3.718799,2.115435 3.724125,2.105967 3.764916,2.039433 3.769401,2.033266 3.817226,1.970828 3.820424,1.966192 3.872992,1.906692 3.875622,1.903681 3.927943,1.840167 3.929391,1.838393 3.986673,1.778423 3.98732,1.77774 3.987992,1.777123 4.054192,1.725557 4.054578,1.725259 4.12305,1.67686 4.123183,1.676782 4.123711,1.676489 4.175261,1.648053 4.187056,1.642795 4.257363,1.611744 4.270563,1.608149 4.341408,1.584303 4.356689,1.582183 4.424907,1.573096 4.440654,1.57356 4.508431,1.57088 4.576554,1.572705 4.592045,1.573713 4.660444,1.58399 4.675487,1.585843 4.745353,1.602416 4.759022,1.605735 4.829363,1.625348 4.841694,1.628995 4.916297,1.662697 4.926042,1.667024 5.002937,1.704323 5.009497,1.706425 5.087039,1.737584 5.092123,1.739898 5.172247,1.770368 5.175048,1.771334 5.256678,1.803938 5.257599,1.804214 5.283753,1.81624 5.34187,1.842404 5.425266,1.86119 5.505736,1.861615 5.582546,1.816782 5.589022,1.812971 5.63048,1.768961 5.64295,1.753417 5.682961,1.703835 5.695154,1.684651 5.731199,1.634455 5.745399,1.614766 5.776969,1.563037 5.790897,1.539177 5.821534,1.489947 5.839378,1.466338 5.871393,1.422712 5.889578,1.395759 5.919021,1.351605 5.9391,1.323774 5.96764,1.282285 5.986529,1.247612 6.014307,1.210929 6.037723,1.178998 6.061021,1.140334 6.086094,1.106627 6.108516,1.070456 6.135922,1.035697 6.158768,1.003629 6.18884,0.969925 6.211392,0.939216 6.243794,0.903614 6.26672,0.876028 6.301335,0.841078 6.324901,0.816674 6.360984,0.781313 6.384314,0.758331 6.407038,0.736299 6.446961,0.702848 6.493689,0.665903 6.502671,0.65971 6.584618,0.638899 6.589216,0.638003 6.667782,0.637537 6.672273,0.637292 6.75512,0.630662 6.838124,0.587821 6.839272,0.587112 6.85908,0.575752 6.92206,0.539151 6.924301,0.538463 7.001961,0.504513 7.004603,0.503653 7.089124,0.484633 7.096413,0.482922 7.170354,0.468009 7.176831,0.466582 7.25344,0.446943 7.260863,0.444025 7.337052,0.420036 7.347275,0.416385 7.420046,0.406247 7.431071,0.404074 7.503435,0.403911 7.575153,0.39855 7.587174,0.395928 7.656524,0.375818 7.669825,0.371251 7.738313,0.349476 7.753501,0.344881 7.820608,0.334157 7.836594,0.333823" style="fill: white" />
</svg>
