<svg width="12.953712" height="10.039674">
<polygon type="contour" points="1.768107,0.45813 1.847503,0.463374 1.852736,0.463881 1.929968,0.470487 1.93451,0.470746 2.012806,0.48079 2.016959,0.482024 2.034398,0.48814 2.113593,0.518095 2.127886,0.526282 2.186527,0.559965 2.240372,0.598857 2.253354,0.609263 2.30439,0.652861 2.316928,0.66366 2.363561,0.714164 2.375563,0.725621 2.419123,0.777707 2.431007,0.791265 2.470385,0.848443 2.482044,0.864357 2.517582,0.922133 2.529517,0.938643 2.562783,0.999471 2.575324,1.018627 2.606937,1.078521 2.619407,1.100989 2.653026,1.158521 2.665832,1.182307 2.699998,1.234504 2.715165,1.258393 2.749449,1.312314 2.765872,1.334671 2.808049,1.373732 2.827662,1.391558 2.874556,1.423818 2.896173,1.438818 2.918218,1.452446 2.970052,1.478816 2.993855,1.489027 3.046123,1.514652 3.068393,1.525615 3.121125,1.552226 3.170098,1.585183 3.190031,1.5985 3.234358,1.638382 3.252002,1.655147 3.293976,1.696395 3.310847,1.715312 3.351076,1.759545 3.368406,1.77886 3.40781,1.823314 3.426234,1.841353 3.464151,1.886046 3.482614,1.905837 3.520297,1.952496 3.538879,1.973103 3.577082,2.013501 3.59583,2.034704 3.630804,2.08197 3.648991,2.106035 3.682262,2.153372 3.701977,2.17441 3.721912,2.196408 3.754177,2.247669 3.772647,2.272993 3.806405,2.319297 3.825901,2.349559 3.858219,2.394304 3.875293,2.427128 3.905781,2.471359 3.923603,2.507732 3.947164,2.560615 3.968788,2.612174 3.984527,2.654891 4.008824,2.702735 4.027246,2.739324 4.045693,2.779208 4.077164,2.819382 4.110658,2.863254 4.129161,2.892048 4.203084,2.975464 4.213968,2.981946 4.266292,3.036373 4.322204,3.02789 4.347192,3.023506 4.412296,2.999377 4.43827,2.989696 4.503139,2.971863 4.526042,2.960986 4.588765,2.932166 4.618485,2.916137 4.67879,2.903319 4.702769,2.901207 4.765794,2.908572 4.77751,2.910182 4.783191,2.912517 4.844626,2.938782 4.903305,2.965128 4.912212,2.968952 4.92287,2.974242 4.978379,3.001977 5.03515,3.047782 5.03976,3.0509 5.043686,3.053646 5.104856,3.086071 5.165716,3.133303 5.232481,3.164504 5.290159,3.192918 5.298903,3.198404 5.307043,3.203575 5.358368,3.249125 5.421785,3.285365 5.422501,3.286073 5.487476,3.322962 5.538373,3.322971 5.56347,3.327984 5.634172,3.304308 5.654735,3.295413 5.725964,3.267448 5.75109,3.244808 5.799216,3.210353 5.846306,3.186025 5.880198,3.160061 5.948409,3.11054 5.957841,3.100218 5.970682,3.086775 6.029256,3.01761 6.072139,2.985106 6.105131,2.950119 6.150322,2.900422 6.174188,2.869226 6.19612,2.84805 6.249056,2.794294 6.31034,2.743473 6.323766,2.730713 6.353596,2.705323 6.398734,2.660836 6.426776,2.637121 6.475089,2.590237 6.529359,2.521377 6.543055,2.505589 6.554023,2.495458 6.62272,2.444469 6.661993,2.415184 6.701098,2.383858 6.763802,2.342045 6.782414,2.332134 6.857537,2.301216 6.870104,2.295265 6.887569,2.289713 6.972179,2.260881 7.005862,2.250514 7.101097,2.218951 7.135557,2.204087 7.171529,2.189562 7.218624,2.178519 7.290242,2.159256 7.321655,2.151373 7.380748,2.142018 7.415803,2.134211 7.464031,2.128153 7.514297,2.128691 7.540324,2.129251 7.615773,2.127798 7.618873,2.128145 7.630772,2.130706 7.692878,2.136655 7.718046,2.134032 7.776951,2.128309 7.817338,2.126531 7.855521,2.126215 7.918627,2.128349 7.933283,2.128123 7.97616,2.130412 8.009419,2.131683 8.020362,2.131504 8.087609,2.135646 8.127096,2.132743 8.193557,2.132178 8.222924,2.132108 8.246561,2.131451 8.321757,2.128041 8.322009,2.128023 8.322451,2.128011 8.397068,2.130499 8.423867,2.132898 8.487156,2.135002 8.536916,2.14186 8.594198,2.149855 8.620829,2.15506 8.634771,2.159238 8.690432,2.17847 8.750088,2.199174 8.769789,2.208596 8.864478,2.237653 8.896938,2.243992 8.958208,2.25935 8.967547,2.263285 8.974803,2.266772 9.081132,2.333813 9.108385,2.360007 9.164611,2.423094 9.261985,2.500973 9.268227,2.504804 9.291215,2.521475 9.375762,2.584312 9.403774,2.607855 9.448499,2.638561 9.484276,2.664725 9.507756,2.687174 9.54337,2.711068 9.571274,2.731803 9.586807,2.745328 9.62765,2.779662 9.686524,2.82578 9.687672,2.826862 9.688457,2.827922 9.757377,2.920029 9.775782,2.960058 9.802525,3.021911 9.818091,3.066655 9.840895,3.126633 9.858089,3.199142 9.866567,3.235597 9.885306,3.334177 9.887004,3.34657 9.890281,3.377513 9.894371,3.46255 9.896304,3.514372 9.89829,3.579562 9.901931,3.680613 9.902814,3.696611 9.90291,3.706986 9.907866,3.813564 9.908866,3.900988 9.907866,3.93215 9.908696,3.970958 9.906325,4.050167 9.881272,4.168639 9.879577,4.179294 9.875968,4.200989 9.858861,4.305569 9.848192,4.351303 9.825964,4.435465 9.807895,4.514539 9.794557,4.56613 9.76082,4.659067 9.751489,4.680654 9.745117,4.703259 9.723581,4.747483 9.66403,4.852986 9.656825,4.867475 9.628456,4.910063 9.623622,4.916603 9.620964,4.919868 9.576346,4.968015 9.550514,4.988185 9.523375,5.011754 9.479946,5.05892 9.474446,5.063957 9.46168,5.076675 9.424796,5.113015 9.409728,5.129482 9.373493,5.16386 9.338218,5.198839 9.324539,5.209663 9.28871,5.2436 9.272804,5.257429 9.267043,5.262777 9.254585,5.271719 9.190758,5.308564 9.148777,5.331646 9.114385,5.35532 9.042062,5.399881 9.038299,5.402465 9.036452,5.404011 9.028617,5.408308 8.96133,5.446316 8.938304,5.4582 8.884027,5.488328 8.837333,5.505656 8.804037,5.520153 8.73804,5.543323 8.723411,5.550706 8.665976,5.573496 8.643617,5.583758 8.637577,5.584902 8.562669,5.612231 8.540997,5.614482 8.477794,5.624798 8.44815,5.62928 8.39287,5.637617 8.355707,5.643403 8.308053,5.651308 8.264105,5.651536 8.221173,5.654041 8.177121,5.651978 8.132909,5.650214 8.089903,5.642007 8.037099,5.628732 8.0066,5.622021 7.945615,5.612186 7.921651,5.61065 7.854485,5.599436 7.835816,5.599709 7.769338,5.607586 7.745069,5.611295 7.684806,5.623799 7.65063,5.631989 7.604248,5.648903 7.553825,5.66495 7.521035,5.670987 7.45781,5.689882 7.438811,5.694597 7.361845,5.698507 7.347251,5.698909 7.282381,5.682006 7.258114,5.677153 7.20091,5.65422 7.158885,5.637145 7.121291,5.620087 7.060364,5.593682 7.043174,5.582463 6.989703,5.554351 6.966593,5.539687 6.958092,5.535913 6.888211,5.491936 6.850343,5.466054 6.813136,5.440255 6.74688,5.401597 6.737957,5.39724 6.709543,5.380879 6.662338,5.348754 6.642963,5.335832 6.584966,5.311055 6.546175,5.29201 6.50558,5.28346 6.453467,5.267139 6.425791,5.263501 6.358332,5.246859 6.339064,5.24057 6.264183,5.221694 6.255797,5.218405 6.220658,5.205221 6.181432,5.183386 6.167184,5.176685 6.106727,5.134321 6.063845,5.117668 6.025335,5.096676 5.96062,5.058711 5.948314,5.051552 5.917549,5.031249 5.862293,4.998593 5.819278,4.975008 5.795891,4.963769 5.7148,4.895074 5.644139,4.852234 5.54112,4.824087 5.469927,4.808741 5.426436,4.811596 5.387893,4.827851 5.358036,4.851716 5.308103,4.887655 5.301785,4.903921 5.28519,4.92604 5.26127,4.965355 5.242916,4.983811 5.194049,5.047681 5.17244,5.069461 5.139012,5.113501 5.10366,5.146693 5.089784,5.162823 5.059394,5.196967 5.042577,5.215591 5.034868,5.223738 4.997437,5.272622 4.969651,5.315144 4.957352,5.334135 4.929011,5.366047 4.909902,5.385326 4.90144,5.393004 4.858436,5.432006 4.827972,5.450246 4.775021,5.479393 4.750089,5.49066 4.685004,5.531761 4.676426,5.536617 4.674328,5.538466 4.670025,5.54117 4.597895,5.584917 4.567785,5.591057 4.51613,5.611211 4.469394,5.626099 4.434675,5.637161 4.375294,5.647063 4.350015,5.651493 4.282837,5.661367 4.265124,5.664307 4.191591,5.673635 4.18023,5.675118 4.105079,5.663706 4.088761,5.663178 4.016652,5.66948 4.0027,5.666982 3.93284,5.652864 3.910353,5.648813 3.849602,5.629351 3.815313,5.622759 3.766826,5.612278 3.721357,5.59621 3.685262,5.581148 3.623728,5.559996 3.60511,5.551673 3.527522,5.529309 3.522546,5.527515 3.495676,5.518256 3.442882,5.499135 3.432871,5.49744 3.359483,5.477526 3.338608,5.476293 3.320243,5.480428 3.25,5.480168 3.235736,5.48735 3.165581,5.48953 3.155869,5.492093 3.087799,5.506891 3.078221,5.509453 3.057077,5.518262 3.013425,5.538562 2.99863,5.542318 2.970792,5.552646 2.930234,5.565239 2.889015,5.577823 2.849099,5.588382 2.806204,5.597134 2.766282,5.605875 2.723532,5.610572 2.684235,5.616183 2.640989,5.621134 2.597295,5.623666 2.558541,5.627355 2.519728,5.630114 2.475563,5.630412 2.436808,5.629839 2.392653,5.633963 2.348678,5.634515 2.30967,5.635255 2.265815,5.631653 2.226718,5.631479 2.183217,5.62992 2.144072,5.628912 2.104964,5.628296 2.061299,5.623355 2.021357,5.620294 1.978339,5.61488 1.938256,5.610056 1.895691,5.603545 1.855064,5.598018 1.81257,5.589182 1.770835,5.579458 1.729135,5.570098 1.686437,5.561086 1.646319,5.554639 1.602837,5.544579 1.562707,5.535066 1.518098,5.519634 1.478125,5.5024 1.433846,5.47682 1.398379,5.463978 1.351393,5.433807 1.314261,5.408423 1.264341,5.376785 1.230172,5.357818 1.179878,5.337932 1.146344,5.321027 1.094522,5.301153 1.062824,5.287871 1.010319,5.267016 0.979385,5.255104 0.925186,5.226585 0.895007,5.212178 0.839426,5.175112 0.812186,5.162904 0.781222,5.142119 0.749532,5.118451 0.703706,5.079319 0.660186,5.035814 0.628188,4.988596 0.601842,4.952014 0.57825,4.904779 0.557082,4.869245 0.536461,4.819738 0.524993,4.785314 0.508342,4.735694 0.496876,4.702182 0.47946,4.652067 0.468984,4.617996 0.43861,4.567815 0.416299,4.535598 0.386812,4.483931 0.364442,4.453007 0.323715,4.3995 0.30594,4.369646 0.289169,4.339984 0.252245,4.286844 0.23905,4.258157 0.207572,4.20394 0.195463,4.175826 0.175829,4.120711 0.169038,4.09361 0.149957,4.037832 0.143421,4.011259 0.130709,3.954672 0.122149,3.928522 0.108879,3.871505 0.103277,3.845879 0.090594,3.788178 0.087206,3.763249 0.079098,3.705419 0.073517,3.68095 0.066226,3.622253 0.063261,3.598311 0.051456,3.538872 0.046382,3.51537 0.031888,3.455867 0.028678,3.432902 0.015389,3.372501 0.012997,3.349994 0.006363,3.289215 0.004988,3.227875 0.004068,3.206023 0.008858,3.143986 0.009003,3.122353 0.01517,3.060045 0.01731,3.038864 0.025,2.976309 0.027836,2.955355 0.041575,2.892772 0.045767,2.871695 0.062705,2.809885 0.067874,2.789108 0.087669,2.726164 0.093087,2.705532 0.099495,2.684466 0.120315,2.622274 0.125791,2.601654 0.14233,2.539833 0.147291,2.519091 0.162684,2.457078 0.175088,2.39431 0.182073,2.373705 0.184725,2.311058 0.186461,2.290697 0.187423,2.227775 0.188336,2.207687 0.187154,2.144064 0.187086,2.124247 0.186718,2.104681 0.180536,2.041101 0.178662,2.021698 0.171613,1.957679 0.169929,1.938544 0.167878,1.874805 0.167722,1.856172 0.162764,1.79157 0.161368,1.773111 0.159824,1.708559 0.160553,1.643478 0.162414,1.625563 0.171981,1.561119 0.175593,1.542946 0.195519,1.48346 0.197916,1.472045 0.205954,1.451059 0.230021,1.387313 0.239443,1.367066 0.264683,1.3056 0.274179,1.288202 0.309322,1.231545 0.320275,1.218486 0.361305,1.165604 0.370915,1.152904 0.41754,1.103677 0.470021,1.056388 0.479326,1.047129 0.534977,1.001608 0.544347,0.993808 0.601533,0.948859 0.610195,0.941585 0.667501,0.897718 0.675492,0.889875 0.682787,0.881825 0.745013,0.839627 0.752229,0.832649 0.816624,0.793515 0.824013,0.787469 0.884379,0.744197 0.890844,0.738882 0.947656,0.691813 0.952104,0.688445 1.018639,0.644361 1.023084,0.641505 1.092388,0.597375 1.09339,0.596836 1.166628,0.570253 1.178178,0.566246 1.178548,0.566128 1.261057,0.554393 1.261539,0.554215 1.344599,0.544774 1.345816,0.54414 1.424388,0.53637 1.513196,0.510625 1.592792,0.484768 1.597013,0.483236 1.675458,0.463403 1.679994,0.462363 1.758196,0.458898 1.76317,0.457973" style="fill: white" />
</svg>
