<svg width="12.953712" height="10.039674">
<polygon type="contour" points="7.815099,0.373923 7.836561,0.374238 7.858592,0.387496 7.919488,0.431033 7.945218,0.445938 8.002709,0.473719 8.059426,0.466532 8.086685,0.46691 8.143073,0.455565 8.169049,0.453996 8.226139,0.45277 8.252214,0.453606 8.278883,0.459178 8.335975,0.470234 8.364907,0.484136 8.419849,0.514183 8.452617,0.533391 8.502407,0.559322 8.535341,0.561713 8.583865,0.576314 8.619544,0.576431 8.668898,0.590023 8.70077,0.601192 8.728045,0.608875 8.77952,0.637531 8.799444,0.651216 8.816811,0.665864 8.864503,0.703061 8.882586,0.7191 8.927676,0.758217 8.946419,0.774216 8.990972,0.813067 9.009194,0.831568 9.05236,0.870623 9.073114,0.885134 9.117046,0.923376 9.16516,0.953738 9.189469,0.964722 9.245717,0.986689 9.27043,0.993552 9.332474,1.011118 9.355198,1.015901 9.419403,1.032769 9.441468,1.037541 9.506839,1.058993 9.52102,1.067042 9.534325,1.077658 9.585214,1.123034 9.597028,1.135075 9.642252,1.18652 9.653368,1.199836 9.695307,1.256034 9.708261,1.270724 9.757421,1.312809 9.770635,1.327957 9.816008,1.374765 9.830309,1.391145 9.875487,1.4346 9.890392,1.450103 9.92964,1.503541 9.98037,1.537195 9.999879,1.5485 10.055889,1.572758 10.076413,1.583906 10.132555,1.613599 10.148726,1.62535 10.164448,1.636919 10.211347,1.68237 10.27051,1.708894 10.28826,1.717903 10.349958,1.742951 10.365704,1.751275 10.420444,1.785578 10.435216,1.795722 10.448352,1.809011 10.494484,1.856557 10.508177,1.871829 10.549409,1.923958 10.564502,1.942551 10.603923,1.992448 10.620613,2.011688 10.66146,2.053458 10.677628,2.073988 10.716964,2.12139 10.735155,2.144441 10.773299,2.186909 10.793602,2.208826 10.84305,2.240778 10.900883,2.269299 10.915937,2.268713 10.931956,2.266753 10.997856,2.26014 11.015227,2.255801 11.080613,2.240385 11.099702,2.235451 11.163492,2.219379 11.224952,2.20819 11.246287,2.203341 11.308106,2.190177 11.330417,2.187206 11.352829,2.186847 11.413844,2.178471 11.475724,2.182493 11.497898,2.184949 11.563829,2.190784 11.576602,2.194023 11.589152,2.198806 11.65789,2.220104 11.665125,2.224837 11.735941,2.252292 11.744043,2.258052 11.804944,2.297814 11.862724,2.344271 11.869989,2.350102 11.926668,2.398976 11.933382,2.404845 11.98937,2.450946 11.997176,2.458316 12.054886,2.503983 12.062202,2.510694 12.122212,2.552053 12.129938,2.559049 12.188069,2.605666 12.194584,2.61213 12.250898,2.661524 12.257141,2.667943 12.309941,2.723844 12.315248,2.730259 12.365972,2.793063 12.370148,2.79765 12.423242,2.861356 12.425879,2.864406 12.478096,2.926023 12.481024,2.929592 12.531699,3.002112 12.532927,3.003762 12.559742,3.045088 12.581737,3.079242 12.582383,3.08043 12.607346,3.128243 12.64165,3.206639 12.643819,3.212936 12.670187,3.293321 12.670944,3.296478 12.684576,3.374815 12.68519,3.37884 12.69262,3.459319 12.692954,3.46229 12.700011,3.544144 12.700143,3.545848 12.710013,3.627515 12.710056,3.628869 12.712289,3.709838 12.712518,3.711991 12.7145,3.792426 12.714593,3.795255 12.713602,3.875885 12.713707,3.878586 12.713402,3.881235 12.708689,3.961728 12.708375,3.963321 12.696994,4.044643 12.696724,4.046308 12.681976,4.128384 12.681349,4.132695 12.668466,4.210947 12.667166,4.215319 12.649541,4.294233 12.647976,4.300199 12.627934,4.376618 12.625541,4.383648 12.600964,4.460509 12.596504,4.470299 12.563151,4.543806 12.556609,4.556542 12.52174,4.625954 12.512498,4.640987 12.470746,4.707589 12.46005,4.725979 12.417205,4.791603 12.403395,4.814217 12.36473,4.871832 12.344597,4.898236 12.28867,4.956424 12.268291,4.986073 12.223971,5.034544 12.175479,5.077052 12.112824,5.134611 12.064725,5.170263 12.024607,5.200727 11.983191,5.227195 11.933549,5.259697 11.898499,5.277515 11.847401,5.302151 11.814585,5.317288 11.762866,5.340747 11.733114,5.353047 11.676792,5.37971 11.649232,5.389944 11.593199,5.413136 11.567403,5.420126 11.509269,5.440305 11.484544,5.445995 11.427163,5.455317 11.402719,5.45873 11.345431,5.460967 11.320504,5.461237 11.29518,5.459321 11.238101,5.458436 11.181427,5.456512 11.155341,5.454859 11.098963,5.448886 11.07128,5.44549 11.014372,5.443331 10.98684,5.440303 10.959295,5.444376 10.90038,5.442218 10.839282,5.449516 10.816373,5.4597 10.761064,5.468781 10.737667,5.492884 10.697413,5.529172 10.656645,5.579095 10.625194,5.619012 10.582517,5.68588 10.57448,5.703954 10.5403,5.771061 10.53483,5.786935 10.497109,5.862398 10.493983,5.871713 10.471818,5.943676 10.468421,5.953431 10.439473,6.027951 10.436598,6.036033 10.404578,6.11107 10.402172,6.117805 10.36654,6.198569 10.365316,6.202129 10.334981,6.284008 10.334526,6.28522 10.319029,6.320002 10.296149,6.370413 10.295182,6.372182 10.253158,6.453471 10.249102,6.458272 10.196902,6.535584 10.186015,6.543535 10.099434,6.618436 10.075036,6.635698 9.984569,6.693493 9.935324,6.727111 9.90633,6.755299 9.855291,6.797668 9.825957,6.838189 9.76775,6.895188 9.741308,6.928552 9.671012,6.991393 9.654361,7.003511 9.587717,7.039972 9.572551,7.047547 9.504577,7.075785 9.490196,7.083352 9.418974,7.107954 9.406434,7.111829 9.333473,7.12621 9.322582,7.128771 9.249986,7.138112 9.239461,7.139054 9.16399,7.158766 9.154513,7.159484 9.079186,7.182019 9.072284,7.18358 8.994934,7.213178 8.989683,7.214888 8.910024,7.254698 8.906086,7.256495 8.825537,7.287931 8.823939,7.288542 8.742976,7.315976 8.739729,7.317083 8.65657,7.348398 8.654952,7.348635 8.572979,7.36325 8.572022,7.363313 8.488943,7.374724 8.485105,7.375024 8.405814,7.378209 8.323827,7.364518 8.319615,7.365229 8.241893,7.363077 8.156437,7.379558 8.153406,7.380629 8.073045,7.397764 7.994753,7.407436 7.989762,7.408771 7.912171,7.425401 7.906034,7.426383 7.899663,7.427667 7.823187,7.449777 7.816001,7.450933 7.740502,7.472205 7.732441,7.473167 7.656672,7.498704 7.646758,7.499911 7.574158,7.521148 7.564667,7.522669 7.491583,7.539974 7.479389,7.541611 7.407871,7.567609 7.395053,7.56947 7.324518,7.586687 7.310608,7.588354 7.240392,7.608356 7.224562,7.610065 7.158914,7.626209 7.143686,7.62784 7.074586,7.635153 7.059008,7.636336 6.991132,7.642266 6.921764,7.635312 6.906723,7.633668 6.836608,7.60801 6.823758,7.605717 6.7519,7.588719 6.74043,7.588591 6.728742,7.589357 6.657085,7.590023 6.584715,7.59021 6.573567,7.589792 6.499095,7.572788 6.489958,7.570565 6.413871,7.541813 6.406685,7.539887 6.329395,7.509942 6.323742,7.507396 6.242957,7.468574 6.240328,7.467494 6.158432,7.425031 6.15812,7.424869 6.152254,7.420731 6.074107,7.365552 6.069947,7.362885 5.99155,7.313729 5.983747,7.308098 5.909024,7.26106 5.897774,7.252858 5.826072,7.207579 5.809863,7.195401 5.745681,7.146958 5.725009,7.125823 5.687185,7.089365 5.636123,7.027606 5.618324,7.00495 5.577568,6.940819 5.567924,6.921898 5.526149,6.852966 5.518721,6.837616 5.472706,6.765838 5.465876,6.75437 5.440264,6.678426 5.434676,6.669586 5.415794,6.593233 5.414022,6.586222 5.404494,6.509088 5.403187,6.503132 5.383768,6.424079 5.383239,6.419816 5.363268,6.339233 5.36295,6.336692 5.342365,6.254389 5.342234,6.253351 5.331681,6.170259 5.306682,6.087733 5.264279,6.010887 5.262819,6.005659 5.225996,5.935663 5.221829,5.928011 5.207851,5.890977 5.163344,5.781544 5.105627,5.751631 5.08054,5.745204 5.023263,5.74502 4.997388,5.744968 4.939828,5.75213 4.914181,5.752069 4.856439,5.759308 4.830862,5.765742 4.772501,5.773035 4.747712,5.776135 4.688881,5.783481 4.664423,5.786523 4.605326,5.793909 4.58121,5.799938 4.521392,5.80738 4.497937,5.807352 4.43809,5.814814 4.414913,5.817723 4.391996,5.819552 4.332074,5.808703 4.308191,5.805634 4.249741,5.803448 4.225669,5.796982 4.166956,5.783309 4.140751,5.773861 4.083067,5.747494 4.053883,5.74156 3.999645,5.715112 3.968064,5.69962 3.91753,5.679394 3.884285,5.670526 3.834478,5.655455 3.79797,5.637519 3.749582,5.619206 3.710553,5.595176 3.666589,5.573118 3.624195,5.540568 3.585791,5.512643 3.540141,5.481149 3.489995,5.445304 3.466835,5.425654 3.417809,5.381405 3.376555,5.338245 3.340834,5.290102 3.314991,5.256191 3.280646,5.203227 3.263103,5.173541 3.234677,5.116477 3.224522,5.090949 3.195576,5.030133 3.184751,5.007169 3.176432,4.98594 3.147304,4.923219 3.142255,4.904461 3.13015,4.84069 3.127953,4.823318 3.112224,4.756132 3.11206,4.740091 3.106369,4.67201 3.114569,4.603759 3.116402,4.588172 3.132002,4.520218 3.13569,4.503863 3.149524,4.436346 3.15371,4.419636 3.169971,4.353302 3.174283,4.335634 3.196592,4.270082 3.202131,4.251715 3.216848,4.216221 3.230424,4.183901 3.269414,4.130167 3.2799,4.116504 3.31833,4.064696 3.330559,4.049725 3.345338,4.036562 3.388918,3.990476 3.402471,3.973919 3.442515,3.926291 3.458715,3.90991 3.500787,3.866858 3.517947,3.849703 3.558967,3.807388 3.575578,3.787532 3.611991,3.742423 3.630704,3.722361 3.668099,3.681783 3.683805,3.652387 3.713759,3.596002 3.721399,3.538943 3.727253,3.507334 3.720032,3.476913 3.705291,3.424832 3.699881,3.393378 3.685611,3.342353 3.674159,3.308795 3.657206,3.259273 3.644282,3.223167 3.631795,3.176436 3.617732,3.138327 3.602364,3.09302 3.588184,3.051934 3.578199,3.00939 3.567689,2.966779 3.554249,2.925821 3.544099,2.880792 3.538255,2.842385 3.533328,2.796307 3.530013,2.758712 3.529855,2.712226 3.53022,2.675487 3.531265,2.628626 3.535398,2.592066 3.540971,2.545739 3.544253,2.50861 3.549745,2.462194 3.555935,2.425561 3.566243,2.379766 3.576853,2.342555 3.596222,2.287602 3.616024,2.224808 3.636211,2.184778 3.653932,2.145936 3.675585,2.109645 3.700002,2.073748 3.722364,2.042786 3.74706,2.002325 3.767361,1.971744 3.788493,1.937975 3.810916,1.91072 3.847023,1.871869 3.880161,1.835618 3.925807,1.799273 3.960843,1.776433 4.008711,1.754339 4.031336,1.741941 4.082552,1.716638 4.119684,1.696621 4.17551,1.670185 4.231875,1.650843 4.257646,1.638999 4.318011,1.624948 4.341063,1.620129 4.400707,1.615666 4.424417,1.61284 4.485243,1.612273 4.508644,1.612231 4.532169,1.614525 4.592524,1.617093 4.616918,1.622586 4.676291,1.631408 4.700211,1.633946 4.759118,1.648777 4.785436,1.657531 4.843034,1.672323 4.86967,1.68137 4.92595,1.702271 4.955245,1.713213 5.008614,1.72728 5.040699,1.740539 5.094015,1.758237 5.141618,1.776 5.175099,1.788533 5.210377,1.798114 5.30244,1.806924 5.313936,1.809002 5.400053,1.791811 5.422754,1.792736 5.503336,1.762518 5.511052,1.756899 5.574636,1.717411 5.58217,1.711119 5.645733,1.671273 5.651687,1.663747 5.704412,1.610757 5.71014,1.604536 5.714489,1.597472 5.763359,1.53926 5.771153,1.529459 5.843038,1.455916 5.920374,1.378149 5.924458,1.371835 5.928732,1.366054 6.009572,1.270344 6.009578,1.270334 6.009647,1.270253 6.083636,1.176218 6.09007,1.171309 6.096722,1.165627 6.173557,1.073109 6.188056,1.062403 6.259214,0.983216 6.281174,0.965271 6.340948,0.905885 6.368542,0.887697 6.424318,0.838045 6.456043,0.819878 6.506667,0.790452 6.54046,0.777856 6.589236,0.766537 6.627308,0.748726 6.67374,0.743912 6.714173,0.717743 6.757974,0.70235 6.798191,0.675715 6.839805,0.64749 6.882613,0.634058 6.921234,0.618687 6.967026,0.614648 7.00407,0.608316 7.049981,0.597418 7.087775,0.586328 7.136272,0.569682 7.170973,0.557387 7.221693,0.547031 7.254566,0.539752 7.305073,0.525392 7.33687,0.513794 7.393173,0.486492 7.42135,0.474134 7.475204,0.457273 7.502411,0.449448 7.561744,0.431417 7.58735,0.424209 7.64718,0.402365 7.67024,0.394446 7.731404,0.378793 7.75317,0.372992" style="fill: white" />
</svg>
