<svg width="12.953712" height="10.039674">
<polygon type="contour" points="5.673087,5.568148 5.714956,5.608298 5.762288,5.625279 5.802183,5.674715 5.841241,5.702072 5.856235,5.724106 5.913526,5.781383 5.934906,5.808439 5.96594,5.849873 5.986909,5.879705 6.017078,5.922066 6.038275,5.952113 6.067517,5.995102 6.087733,6.026166 6.116682,6.069271 6.139465,6.098521 6.16915,6.141457 6.192745,6.167903 6.223887,6.210009 6.246738,6.236908 6.277932,6.279229 6.301341,6.305355 6.33416,6.344049 6.358636,6.367986 6.382,6.394019 6.412575,6.437026 6.43739,6.460212 6.472601,6.495129 6.497172,6.519939 6.53151,6.557512 6.556272,6.580642 6.590706,6.618281 6.614722,6.643587 6.649615,6.680624 6.673578,6.704479 6.707144,6.740377 6.729353,6.765665 6.761109,6.809069 6.783007,6.834522 6.804996,6.869413 6.843744,6.925668 6.864878,6.954153 6.88538,6.983419 6.924034,7.045339 6.937488,7.073769 6.947974,7.098596 6.978012,7.163303 6.990532,7.248062 6.992744,7.290483 6.953957,7.332457 6.931454,7.334533 6.846401,7.307392 6.835587,7.301289 6.803674,7.285087 6.750726,7.257515 6.731765,7.245822 6.691958,7.216753 6.639279,7.175589 6.607285,7.147884 6.555801,7.100752 6.52408,7.073526 6.472128,7.02671 6.441712,7.002305 6.411079,6.974644 6.356841,6.923471 6.325889,6.8955 6.302356,6.874746 6.249461,6.823232 6.230102,6.806099 6.173828,6.748342 6.14302,6.722491 6.086953,6.663342 6.059136,6.636227 6.012047,6.582126 5.982637,6.556067 5.93179,6.498536 5.905266,6.473457 5.855836,6.414222 5.832467,6.389746 5.792112,6.335969 5.766936,6.308503 5.718464,6.249735 5.697588,6.225575 5.661851,6.167073 5.642752,6.141958 5.614676,6.08317 5.594681,6.059234 5.557954,6.001029 5.543698,5.976066 5.525756,5.919133 5.512834,5.893846 5.502977,5.827859 5.499213,5.746389 5.508794,5.695441 5.53153,5.558782 5.533574,5.557163" style="fill: white" /><polygon type="contour" points="2.018533,9.338157 2.049149,9.353226 2.081115,9.385281 2.139791,9.438793 2.196752,9.499708 2.225102,9.529401 2.23496,9.606157 2.2606,9.639484 2.263153,9.680838 2.280842,9.722973 2.230477,9.727093 2.180714,9.715838 2.178456,9.693498 2.145922,9.697828 2.07607,9.629962 2.03766,9.628488 2.013152,9.607978 1.975567,9.54396 1.937159,9.523761 1.918994,9.428346 1.888741,9.416736 1.897692,9.321156 1.93121,9.373988 1.989107,9.319744" style="fill: white" />
</svg>
