<svg width="12.953712" height="10.039674">
<polygon type="contour" points="7.476172,0.365648 7.503773,0.366441 7.557703,0.370495 7.586873,0.372439 7.616153,0.370763 7.670107,0.374502 7.7246,0.374983 7.753232,0.373917 7.808245,0.379637 7.836257,0.380458 7.889351,0.383673 7.918674,0.387952 7.973865,0.398792 8.001591,0.407678 8.056119,0.420479 8.084866,0.427136 8.134365,0.443059 8.167318,0.454218 8.217014,0.478146 8.250912,0.489697 8.300904,0.5118 8.334187,0.522069 8.380598,0.540871 8.416954,0.558353 8.463075,0.579819 8.501097,0.601181 8.544998,0.619584 8.583526,0.641103 8.625511,0.657208 8.667179,0.677063 8.707021,0.689677 8.749413,0.698617 8.786834,0.709853 8.832993,0.722819 8.872523,0.734487 8.915769,0.743609 8.975768,0.763542 9.008793,0.775811 9.055224,0.797185 9.087325,0.811624 9.128335,0.843169 9.159312,0.857856 9.204807,0.883611 9.23696,0.894117 9.26924,0.90281 9.332321,0.926764 9.365587,0.937921 9.41649,0.950807 9.448358,0.955021 9.499211,0.959616 9.529711,0.957963 9.582287,0.963227 9.612821,0.9657 9.665004,0.972977 9.694135,0.980875 9.732812,0.993589 9.753124,1.000149 9.760057,1.003334 9.830852,1.031248 9.838202,1.035226 9.904741,1.070709 9.96881,1.111805 9.974615,1.115846 10.034162,1.162059 10.040417,1.16703 10.097647,1.215983 10.103478,1.22215 10.1602,1.271449 10.166765,1.277053 10.174426,1.280929 10.240551,1.316838 10.248014,1.320146 10.314655,1.355874 10.376809,1.399003 10.383138,1.402993 10.442899,1.450765 10.448222,1.455105 10.508371,1.500462 10.514184,1.505317 10.571441,1.554952 10.577382,1.560016 10.63423,1.609172 10.640293,1.615036 10.695528,1.668779 10.701348,1.67401 10.754419,1.725616 10.76113,1.731871 10.809709,1.792134 10.816085,1.79994 10.863437,1.860964 10.869798,1.869152 10.912301,1.930855 10.918813,1.943111 10.957917,2.008787 10.965503,2.02213 11.006438,2.080964 11.017079,2.093483 11.06044,2.149692 11.071497,2.161027 11.110627,2.217654 11.121627,2.233955 11.155738,2.295904 11.166479,2.314608 11.197897,2.379694 11.208927,2.400462 11.240286,2.463093 11.252039,2.487568 11.28038,2.538407 11.287021,2.550442 11.321447,2.61825 11.328376,2.632422 11.367786,2.707412 11.372075,2.715285 11.408959,2.789022 11.413797,2.798922 11.442495,2.870023 11.447021,2.881619 11.466838,2.951359 11.471289,2.964601 11.491356,3.036448 11.493706,3.049061 11.504462,3.117753 11.50701,3.131887 11.516616,3.200337 11.51852,3.214772 11.526934,3.282829 11.528859,3.297823 11.536959,3.365813 11.538538,3.381192 11.545595,3.44904 11.547344,3.46443 11.555029,3.532194 11.556827,3.54794 11.56438,3.615168 11.565308,3.631035 11.569107,3.696877 11.570758,3.713776 11.576176,3.780519 11.577219,3.797069 11.579956,3.862686 11.581341,3.880137 11.586754,3.946468 11.587915,3.963588 11.588327,3.980566 11.589507,4.046517 11.59456,4.112882 11.595142,4.129769 11.596943,4.195313 11.598427,4.212722 11.59867,4.230075 11.599583,4.295729 11.598287,4.313326 11.59619,4.378627 11.59464,4.395322 11.585793,4.461102 11.58208,4.477365 11.568447,4.544707 11.565743,4.560376 11.554049,4.627029 11.550893,4.64179 11.533278,4.710324 11.529927,4.724013 11.509963,4.792709 11.506205,4.804457 11.48098,4.876226 11.476904,4.887316 11.448968,4.959325 11.445206,4.968864 11.416325,5.042425 11.412182,5.050339 11.380642,5.124813 11.378239,5.130546 11.349817,5.208505 11.348134,5.213297 11.315647,5.290378 11.314963,5.292454 11.265227,5.375128 11.264945,5.375657 11.252653,5.393689 11.211403,5.455304 11.210032,5.457417 11.150348,5.535936 11.146295,5.541334 11.088115,5.621497 11.082232,5.631475 11.021319,5.700261 11.013346,5.710318 10.957622,5.780726 10.944239,5.79626 10.887197,5.859559 10.871852,5.876332 10.863366,5.88514 10.813672,5.938513 10.745984,5.997742 10.740677,6.003498 10.736505,6.007133 10.668874,6.074491 10.614183,6.119517 10.595457,6.136355 10.565031,6.162897 10.525587,6.206641 10.493346,6.239248 10.455625,6.281098 10.404621,6.329359 10.384404,6.348852 10.370424,6.362 10.31391,6.420638 10.254222,6.467652 10.241657,6.478854 10.220651,6.49662 10.165941,6.534668 10.14235,6.546525 10.089077,6.574231 10.041489,6.597245 10.009938,6.612257 9.990134,6.621116 9.928767,6.637934 9.849555,6.665794 9.847732,6.666583 9.847238,6.666766 9.768398,6.701124 9.747211,6.708301 9.689687,6.73852 9.646877,6.753244 9.608919,6.767438 9.572344,6.780682 9.540448,6.795707 9.502846,6.808108 9.451303,6.822638 9.402638,6.832864 9.3671,6.840782 9.363045,6.84172 9.316229,6.850671 9.297877,6.853453 9.211097,6.866032 9.194608,6.871356 9.170606,6.882509 9.113274,6.896778 9.071732,6.92159 9.035271,6.93628 9.013341,6.947287 8.960266,6.986146 8.940794,6.997316 8.894889,7.022608 8.884286,7.034541 8.860522,7.049099 8.807558,7.080355 8.756999,7.106027 8.730028,7.121161 8.654997,7.155278 8.650918,7.157027 8.63926,7.163842 8.573371,7.198614 8.551963,7.210087 8.493491,7.230566 8.457978,7.25294 8.419255,7.286077 8.352464,7.331436 8.345792,7.335051 8.344245,7.336607 8.341049,7.338102 8.267346,7.381355 8.237878,7.391453 8.18461,7.403197 8.143323,7.415318 8.101463,7.420871 8.047962,7.443766 8.021887,7.454759 7.952125,7.470929 7.938906,7.476406 7.880882,7.498214 7.858542,7.505378 7.854304,7.507323 7.777027,7.531464 7.75904,7.535118 7.694791,7.55454 7.664427,7.561879 7.610973,7.571332 7.572823,7.572975 7.524654,7.580329 7.481424,7.585676 7.437965,7.586122 7.391909,7.591467 7.352841,7.594837 7.303974,7.594625 7.262628,7.587864 7.217815,7.58683 7.173989,7.584926 7.129705,7.590843 7.089601,7.597232 7.038587,7.604529 7.004924,7.609829 6.951156,7.601456 6.915605,7.606177 6.862744,7.60474 6.825581,7.59802 6.776419,7.597837 6.735097,7.590197 6.693234,7.581082 6.642547,7.56995 6.612234,7.558835 6.546179,7.534674 6.53242,7.531773 6.470681,7.507333 6.453828,7.499107 6.44836,7.494961 6.382759,7.458051 6.350005,7.438395 6.303692,7.411701 6.243819,7.380111 6.227712,7.36781 6.179682,7.343526 6.152195,7.325442 6.139389,7.312597 6.085737,7.247514 6.026599,7.211712 6.012474,7.200077 5.997257,7.178461 5.948639,7.111159 5.900177,7.057683 5.882002,7.035187 5.855333,7.011277 5.793921,6.987068 5.779845,6.985158 5.702792,6.965777 5.668952,6.955243 5.607615,6.940563 5.508863,6.919343 5.478133,6.911678 5.467535,6.907363 5.394852,6.889071 5.385202,6.886777 5.311053,6.87052 5.302028,6.869422 5.228391,6.860303 5.220102,6.859272 5.146007,6.853108 5.13924,6.852179 5.062882,6.843165 5.056763,6.842881 4.978991,6.836519 4.972783,6.835249 4.895952,6.82343 4.890842,6.822769 4.813146,6.810584 4.809033,6.810361 4.729728,6.791286 4.726519,6.790481 4.646554,6.779256 4.644211,6.779125 4.560637,6.771701 4.479679,6.772908 4.477334,6.772642 4.396808,6.770185 4.39529,6.769975 4.313549,6.758268 4.313141,6.758119 4.287747,6.751251 4.232617,6.736109 4.151417,6.720073 4.064435,6.715644 3.98443,6.722999 3.981718,6.723167 3.901253,6.727499 3.898416,6.727817 3.817986,6.734203 3.815227,6.734564 3.734889,6.733161 3.731933,6.733186 3.651901,6.733136 3.648708,6.73318 3.568712,6.734425 3.565266,6.734404 3.561852,6.734151 3.482104,6.723752 3.477938,6.722829 3.398123,6.705684 3.393076,6.703828 3.314473,6.694079 3.236202,6.685872 3.230304,6.684078 3.15162,6.666627 3.145265,6.66499 3.070641,6.641681 3.062562,6.639206 2.993456,6.587506 2.982045,6.581649 2.916112,6.525502 2.902706,6.515102 2.836527,6.463559 2.817817,6.449056 2.74898,6.442087 2.730875,6.433073 2.666974,6.424944 2.648007,6.420376 2.584349,6.410942 2.564726,6.408049 2.50159,6.391736 2.481088,6.388494 2.421233,6.3623 2.398994,6.355476 2.341596,6.323402 2.316764,6.310081 2.261239,6.280496 2.234147,6.269349 2.179948,6.248877 2.151245,6.24077 2.096929,6.235321 2.067147,6.231283 2.016173,6.215803 1.984744,6.204642 1.935458,6.182902 1.902992,6.168978 1.853956,6.145695 1.818348,6.129123 1.772303,6.109651 1.735139,6.09149 1.689706,6.064164 1.651491,6.043534 1.614383,6.023932 1.569884,5.989846 1.53219,5.959454 1.496653,5.932853 1.443341,5.881686 1.410508,5.851166 1.362512,5.801048 1.33605,5.769252 1.291412,5.722689 1.253291,5.683953 1.215055,5.642159 1.179363,5.602923 1.148799,5.564554 1.112004,5.520243 1.085237,5.4832 1.052075,5.436155 1.025516,5.403177 0.988131,5.354773 0.958555,5.323368 0.919791,5.271619 0.901204,5.244298 0.866213,5.190101 0.849237,5.163675 0.813839,5.10639 0.803027,5.082793 0.780309,5.023424 0.770196,5.001717 0.742278,4.939413 0.734762,4.919728 0.714855,4.855392 0.694429,4.791563 0.686081,4.773795 0.647106,4.70528 0.638385,4.689816 0.603429,4.620683 0.596936,4.607373 0.593405,4.534414 0.589871,4.522209 0.583223,4.454122 0.581691,4.442042 0.541569,4.366029 0.538253,4.35689 0.498282,4.281397 0.495143,4.27358 0.478304,4.197052 0.476835,4.190465 0.466635,4.113778 0.46529,4.107872 0.460481,4.029313 0.459839,4.024187 0.455229,3.946705 0.45468,3.941733 0.445489,3.862624 0.444753,3.858407 0.437268,3.778858 0.437204,3.775189 0.436626,3.695441 0.436636,3.692112 0.437531,3.612028 0.437562,3.609093 0.437796,3.606153 0.440657,3.526019 0.440991,3.52337 0.448116,3.442909 0.448516,3.440187 0.45528,3.359573 0.455828,3.35691 0.456784,3.276769 0.465836,3.195558 0.466094,3.193052 0.471261,3.114028 0.471732,3.111606 0.495362,3.030804 0.495809,3.028009 0.498524,3.020716 0.524259,2.952336 0.54131,2.91197 0.561201,2.873689 0.580259,2.834456 0.602717,2.792636 0.623155,2.758629 0.641574,2.725957 0.6663,2.684782 0.685666,2.655153 0.712043,2.612524 0.731686,2.58553 0.761649,2.543107 0.77983,2.518341 0.811593,2.476052 0.828774,2.45281 0.8621,2.409469 0.879504,2.388466 0.914975,2.344484 0.954115,2.301726 0.97066,2.283288 0.985968,2.264631 1.023731,2.218649 1.065427,2.17391 1.080219,2.157983 1.124232,2.113182 1.138534,2.098777 1.184524,2.054368 1.198116,2.04095 1.211703,2.028329 1.261611,1.986891 1.275874,1.976111 1.328152,1.935796 1.342654,1.926053 1.396158,1.886031 1.443857,1.838266 1.456031,1.828157 1.50168,1.775602 1.511445,1.765515 1.521432,1.756287 1.567859,1.704598 1.622126,1.658251 1.631234,1.650515 1.686893,1.603674 1.694646,1.596359 1.752612,1.55122 1.760851,1.545341 1.824602,1.504507 1.832588,1.499469 1.88032,1.471913 1.924113,1.447276 1.93588,1.442332 2.012413,1.407213 2.085855,1.390341 2.096229,1.38812 2.168534,1.379019 2.179305,1.378581 2.190237,1.378626 2.263122,1.381082 2.334368,1.37711 2.345282,1.374965 2.416037,1.356166 2.428599,1.350703 2.500094,1.319312 2.51293,1.31306 2.578609,1.290451 2.594638,1.282763 2.663687,1.254395 2.680022,1.246995 2.744432,1.23448 2.761979,1.230154 2.827458,1.222351 2.845371,1.220391 2.910138,1.212573 2.928097,1.211117 2.992735,1.211932 3.011106,1.210786 3.029559,1.211569 3.094278,1.219303 3.112222,1.220282 3.17741,1.227258 3.195155,1.232248 3.260654,1.245177 3.278387,1.251595 3.343872,1.255425 3.360573,1.259781 3.427184,1.259401 3.494504,1.254982 3.511012,1.254654 3.575734,1.23461 3.593763,1.230282 3.657417,1.205393 3.677011,1.197051 3.739874,1.190115 3.759873,1.185895 3.780044,1.1885 3.84358,1.190533 3.863927,1.20161 3.928716,1.230527 3.94753,1.23841 4.013485,1.270925 4.02954,1.275258 4.093726,1.296854 4.109098,1.303329 4.178392,1.326004 4.247255,1.339166 4.259977,1.343076 4.332289,1.36701 4.343704,1.370727 4.414811,1.384463 4.425476,1.386356 4.436182,1.38507 4.508927,1.380928 4.581005,1.362703 4.592623,1.357572 4.663115,1.330652 4.676315,1.324296 4.744582,1.297211 4.75947,1.290303 4.828112,1.26765 4.843326,1.263067 4.910154,1.246257 4.926619,1.241917 4.990367,1.221776 5.008516,1.218368 5.071726,1.200628 5.091504,1.198535 5.111607,1.197681 5.174704,1.181711 5.195291,1.180077 5.257939,1.168286 5.279347,1.163085 5.340912,1.154189 5.363268,1.149733 5.424093,1.147539 5.446634,1.146421 5.506893,1.157558 5.528702,1.157726 5.590386,1.188873 5.610285,1.197555 5.673224,1.233913 5.738424,1.229687 5.757251,1.231379 5.799965,1.216633 5.80678,1.210467 5.87758,1.174852 5.883149,1.167554 5.942167,1.122926 5.997625,1.074748 6.00317,1.06541 6.052365,1.007332 6.056723,1.001724 6.107095,0.950895 6.114161,0.94184 6.153721,0.875348 6.158748,0.867583 6.198232,0.807375 6.206041,0.798024 6.214814,0.788633 6.260618,0.735355 6.272373,0.724731 6.321244,0.678776 6.335607,0.666801 6.379483,0.619284 6.398486,0.609016 6.456319,0.577881 6.474715,0.567304 6.526885,0.532702 6.544955,0.52364 6.561995,0.513764 6.592233,0.509578 6.683528,0.481113 6.734331,0.485783 6.788223,0.484018 6.837315,0.470991 6.86668,0.459661 6.922372,0.428629 6.953789,0.410429 7.005423,0.3948 7.033768,0.386921 7.088435,0.383343 7.143424,0.384272 7.171018,0.383117 7.198871,0.381259 7.254468,0.371192 7.282812,0.367483 7.337411,0.363774 7.393582,0.364269 7.420646,0.363348" style="fill: white" />
</svg>
