<svg width="12.953712" height="10.039674">
<polygon type="contour" points="8.252442,0.636879 8.326602,0.648767 8.335128,0.649792 8.41123,0.665752 8.418133,0.667269 8.495939,0.693807 8.500878,0.695531 8.58421,0.727612 8.585067,0.728002 8.607788,0.741112 8.667719,0.776262 8.669304,0.777228 8.731409,0.82757 8.746473,0.839815 8.746962,0.840186 8.747262,0.840502 8.823566,0.913715 8.884207,0.951271 8.892145,0.960279 8.902324,0.96646 8.957392,1.012364 8.966668,1.018413 9.025862,1.059202 9.035222,1.06564 9.095155,1.105565 9.153263,1.146876 9.162665,1.153843 9.173048,1.159361 9.230263,1.202952 9.238463,1.208125 9.300277,1.247347 9.31154,1.25355 9.368201,1.295151 9.377827,1.300649 9.433392,1.347009 9.442801,1.352026 9.49878,1.398703 9.508573,1.402779 9.573114,1.438367 9.586035,1.444524 9.647688,1.476526 9.661148,1.483888 9.720894,1.516555 9.732704,1.524672 9.792556,1.559253 9.806227,1.56754 9.861655,1.605693 9.876453,1.612933 9.935624,1.644887 9.951498,1.652822 10.013797,1.67816 10.030888,1.687985 10.087539,1.717624 10.104603,1.729002 10.157102,1.763071 10.173877,1.775156 10.228857,1.805808 10.280292,1.839401 10.29696,1.853421 10.344966,1.893962 10.359742,1.909334 10.401149,1.959394 10.413798,1.976656 10.454332,2.031711 10.465036,2.048625 10.508088,2.11031 10.516259,2.123182 10.565609,2.176373 10.573683,2.1863 10.607918,2.214078 10.667713,2.268752 10.693588,2.285777 10.749221,2.296171 10.807077,2.287735 10.831483,2.287922 10.890911,2.273476 10.914119,2.270561 10.975268,2.255409 10.997155,2.250472 11.059498,2.23315 11.080132,2.227881 11.143376,2.218312 11.163594,2.214855 11.228132,2.210289 11.247529,2.206474 11.266661,2.20578 11.348169,2.213114 11.375029,2.215098 11.425949,2.235008 11.474257,2.250157 11.519066,2.276479 11.562314,2.304616 11.5897,2.32046 11.61548,2.33744 11.656906,2.369514 11.682117,2.390042 11.722504,2.420884 11.746625,2.439749 11.786043,2.475078 11.809262,2.496934 11.84927,2.530515 11.872455,2.552076 11.910978,2.587936 11.935118,2.612435 11.971723,2.646113 11.99639,2.668538 12.031811,2.705692 12.056055,2.732959 12.088636,2.770134 12.112398,2.796918 12.144369,2.836056 12.16963,2.86632 12.20084,2.901004 12.226397,2.93041 12.25264,2.973588 12.280284,3.011289 12.303562,3.046706 12.352589,3.115274 12.371838,3.149552 12.406755,3.210654 12.417414,3.234695 12.443573,3.294027 12.451933,3.320334 12.466668,3.3781 12.467743,3.406196 12.474717,3.461043 12.479724,3.490279 12.480291,3.54458 12.485475,3.574408 12.493964,3.62795 12.496898,3.659778 12.502615,3.711217 12.502675,3.743182 12.50319,3.794409 12.501507,3.845364 12.49985,3.87739 12.49685,3.909613 12.496072,3.960508 12.488599,4.011074 12.483624,4.043454 12.476287,4.093376 12.47018,4.12622 12.462291,4.177917 12.4529,4.209422 12.44282,4.263264 12.434589,4.292663 12.421798,4.34519 12.413581,4.375383 12.392548,4.433465 12.386815,4.45838 12.36428,4.516069 12.357243,4.540063 12.326042,4.601509 12.317176,4.622629 12.281196,4.684878 12.270192,4.704097 12.224445,4.769071 12.210885,4.785585 12.149523,4.857296 12.141668,4.867711 12.07332,4.94263 12.06704,4.948552 11.995807,5.029062 11.98462,5.0413 11.91557,5.113725 11.907317,5.119962 11.854481,5.162959 11.812932,5.194258 11.733787,5.250197 11.72482,5.258104 11.651811,5.289302 11.64146,5.295187 11.568615,5.3219 11.556547,5.325703 11.487254,5.347918 11.47461,5.350919 11.404627,5.370713 11.391247,5.372549 11.320638,5.390332 11.304183,5.392763 11.233282,5.398332 11.214649,5.404465 11.155415,5.410133 11.138915,5.413853 11.072278,5.417771 11.054863,5.421367 10.989122,5.419171 10.971911,5.421191 10.905721,5.42348 10.889407,5.424145 10.822589,5.431814 10.805831,5.431856 10.737534,5.433395 10.671571,5.426341 10.655108,5.424796 10.588154,5.439639 10.572614,5.44039 10.555299,5.448476 10.489188,5.49167 10.456824,5.512565 10.420351,5.559982 10.389213,5.619271 10.373947,5.654987 10.358031,5.702628 10.351047,5.738241 10.340502,5.784654 10.333417,5.821212 10.321236,5.867288 10.305421,5.909539 10.295063,5.951637 10.285006,5.994069 10.275581,6.035143 10.266694,6.076673 10.253596,6.117865 10.238743,6.163248 10.228466,6.199524 10.207853,6.245309 10.191118,6.28355 10.163512,6.328349 10.131028,6.363051 10.104149,6.399602 10.088973,6.4214 10.067241,6.447184 9.993792,6.524198 9.989626,6.527022 9.939795,6.568776 9.908958,6.593716 9.905022,6.596891 9.82059,6.651573 9.812617,6.656488 9.740824,6.692515 9.733916,6.696532 9.657851,6.732994 9.648808,6.738217 9.574141,6.770624 9.561396,6.778358 9.491327,6.797129 9.477611,6.805897 9.406484,6.837501 9.390396,6.850589 9.322739,6.888332 9.30286,6.898991 9.241564,6.941301 9.219876,6.954852 9.157292,7.01626 9.130775,7.031541 9.075076,7.071935 9.044468,7.088894 8.990964,7.112427 8.955727,7.128355 8.907146,7.142516 8.872427,7.154855 8.824073,7.167783 8.788645,7.176553 8.740222,7.191727 8.704428,7.194133 8.65752,7.20152 8.62116,7.204999 8.574253,7.20452 8.537311,7.207911 8.490903,7.207613 8.453322,7.220791 8.407947,7.226627 8.366957,7.253897 8.323882,7.269166 8.282302,7.285952 8.239529,7.30647 8.193145,7.327408 8.15631,7.347299 8.11116,7.356374 8.07475,7.367909 8.026889,7.377742 7.990948,7.386064 7.942426,7.398279 7.907691,7.407152 7.858829,7.41356 7.824313,7.416216 7.774599,7.414607 7.740991,7.415147 7.692604,7.417819 7.657945,7.420856 7.622926,7.420185 7.573641,7.423646 7.525847,7.429646 7.491516,7.428601 7.443132,7.430798 7.408364,7.431476 7.359333,7.435251 7.325231,7.436837 7.290844,7.439982 7.241772,7.438302 7.193975,7.442195 7.158533,7.444738 7.124156,7.448209 7.075172,7.444712 7.027428,7.443009 6.992108,7.444214 6.955532,7.441036 6.908817,7.440058 6.861998,7.43961 6.825831,7.442232 6.778556,7.443629 6.742371,7.447622 6.695071,7.447188 6.659145,7.446458 6.622193,7.439115 6.575821,7.428489 6.535486,7.416928 6.491863,7.405409 6.451063,7.395098 6.408281,7.386458 6.366158,7.375071 6.325338,7.364743 6.281457,7.348429 6.242321,7.338827 6.197092,7.321183 6.159117,7.304335 6.108777,7.276897 6.075309,7.262013 6.025133,7.235381 5.993452,7.219593 5.939339,7.185128 5.910327,7.173709 5.852403,7.139184 5.826161,7.127377 5.765863,7.088705 5.744805,7.078969 5.724013,7.069048 5.664057,7.015796 5.647177,7.012211 5.582864,6.943407 5.496801,6.87888 5.426761,6.876365 5.380385,6.83948 5.343587,6.795399 5.305413,6.754863 5.287463,6.713412 5.256437,6.670642 5.225468,6.634348 5.185494,6.5848 5.152259,6.555543 5.122567,6.501076 5.106583,6.474538 5.065928,6.417412 5.073705,6.390125 5.038428,6.334197 5.022871,6.309825 5.005149,6.287809 4.938254,6.167337 4.929665,6.149236 4.916531,6.132771 4.875581,6.039353 4.836616,6.005498 4.836493,6.005479 4.803971,5.975516 4.778845,5.96068 4.729834,5.932755 4.655425,5.902707 4.636074,5.89708 4.614987,5.894 4.586949,5.888834 4.495977,5.865626 4.442,5.835872 4.408884,5.828988 4.371429,5.822573 4.332633,5.815078 4.317621,5.810069 4.252485,5.793934 4.186074,5.777595 4.168701,5.769567 4.100437,5.743837 4.085719,5.739216 4.015758,5.709364 4.003515,5.704534 3.99181,5.701392 3.920399,5.673385 3.91086,5.671218 3.836637,5.654352 3.828526,5.651225 3.751704,5.625349 3.74505,5.622038 3.669935,5.580653 3.666677,5.578594 3.596261,5.532043 3.587985,5.526621 3.587589,5.526339 3.509712,5.47439 3.505709,5.472014 3.430487,5.42434 3.422764,5.418283 3.393312,5.391532 3.350492,5.35586 3.333345,5.341365 3.278083,5.275592 3.261055,5.256471 3.21685,5.196087 3.198466,5.172344 3.161734,5.11849 3.143782,5.089634 3.122996,5.038174 3.107924,5.005897 3.083863,4.956705 3.070869,4.922077 3.058936,4.875585 3.045146,4.838844 3.033934,4.794066 3.023344,4.755707 3.018034,4.712288 3.014299,4.670867 3.015201,4.627761 3.005961,4.587063 3.009162,4.545226 3.010959,4.502829 3.017308,4.456514 3.023143,4.417524 3.037104,4.372614 3.051216,4.332238 3.077207,4.278914 3.082403,4.264169 3.089521,4.246005 3.125321,4.189009 3.133216,4.174346 3.16794,4.114117 3.175945,4.103074 3.216956,4.045485 3.267576,3.991693 3.274196,3.984809 3.280154,3.977645 3.331332,3.92409 3.386791,3.872691 3.39226,3.867161 3.451005,3.817764 3.456056,3.813474 3.512649,3.761417 3.517312,3.756969 3.571222,3.700393 3.574548,3.69692 3.577307,3.693218 3.625066,3.630077 3.646652,3.589477 3.647163,3.588487 3.692361,3.50709 3.695396,3.422439 3.676905,3.341893 3.676394,3.339676 3.653157,3.257474 3.613516,3.178848 3.611813,3.175299 3.57417,3.097529 3.571882,3.091408 3.544474,3.015982 3.540573,3.007578 3.513586,2.935325 3.509449,2.924408 3.484676,2.85385 3.479434,2.840923 3.46334,2.772368 3.456378,2.757141 3.447584,2.690248 3.439084,2.673989 3.415904,2.60873 3.40626,2.590506 3.403761,2.52742 3.389931,2.507476 3.374897,2.445901 3.359263,2.4241 3.350385,2.364653 3.339884,2.340985 3.348986,2.281865 3.334019,2.257893 3.330255,2.200631 3.313309,2.174608 3.308431,2.146917 3.325839,2.091473 3.246147,1.898325 3.248241,1.882548 3.244708,1.87504 3.249679,1.865247 3.254388,1.858193 3.26032,1.852705 3.402409,1.890765 3.329753,1.759596 3.374192,1.745267 3.407589,1.721774 3.428869,1.724239 3.494374,1.703164 3.508715,1.707998 3.525256,1.715405 3.589699,1.734313 3.645413,1.749904 3.672958,1.746418 3.744241,1.720975 3.759192,1.7233 3.825223,1.69489 3.84262,1.69519 3.905767,1.665887 3.925275,1.662488 3.987895,1.646462 4.008595,1.646416 4.072015,1.633443 4.092819,1.632948 4.152212,1.613475 4.175173,1.607329 4.234275,1.592114 4.258546,1.588844 4.316915,1.58125 4.341827,1.579901 4.367172,1.579691 4.425169,1.579641 4.450191,1.580834 4.508708,1.585825 4.533425,1.590874 4.592226,1.59348 4.616142,1.594529 4.675822,1.598697 4.699609,1.601397 4.759036,1.607601 4.782246,1.610693 4.842512,1.626865 4.864925,1.625342 4.923924,1.638352 4.968169,1.618002 5.012635,1.605843 5.024548,1.594231 5.065038,1.541804 5.073424,1.528587 5.108993,1.467519 5.117327,1.458114 5.152082,1.393136 5.157887,1.3852 5.205587,1.327541 5.272248,1.286853 5.277396,1.282369 5.350976,1.248525 5.3571,1.243983 5.412007,1.194284 5.418138,1.1881 5.469808,1.131138 5.48046,1.120486 5.515631,1.050151 5.518338,1.047804 5.56416,0.980035 5.610398,0.933818 5.674979,0.881077 5.68765,0.87479 5.75693,0.83701 5.764687,0.83621 5.841185,0.813318 5.849643,0.811387 5.923703,0.8074 5.997981,0.819786 6.006658,0.823229 6.015441,0.82221 6.08936,0.834033 6.161546,0.845357 6.172124,0.848096 6.246231,0.878581 6.256689,0.876033 6.326631,0.899544 6.338909,0.897098 6.411641,0.924298 6.435133,0.914711 6.505327,0.932357 6.574498,0.93195 6.588726,0.924141 6.659934,0.907417 6.671881,0.898577 6.743649,0.877318 6.754347,0.869039 6.830698,0.829027 6.837567,0.824996 6.914497,0.80698 6.921278,0.805932 7.00578,0.789529 7.040593,0.778954 7.088701,0.764964 7.090023,0.765084 7.172494,0.736941 7.177437,0.736066 7.255216,0.721994 7.259674,0.720576 7.337447,0.719575 7.338857,0.719276 7.421098,0.717201 7.425283,0.715886 7.503975,0.702745 7.507345,0.702436 7.587859,0.692438 7.595041,0.692102 7.670184,0.692813 7.674285,0.692111 7.754321,0.681112 7.761753,0.679937 7.836581,0.664664 7.842044,0.663736 7.9201,0.644045 7.929288,0.642188 8.003309,0.636638 8.013731,0.63655 8.086258,0.63431 8.095938,0.632965 8.169339,0.628183 8.177693,0.627715" style="fill: white" />
</svg>
