<svg width="12.953712" height="10.039674">
<polygon type="contour" points="1.56649,0.770464 1.596186,0.773646 1.650222,0.78459 1.679119,0.788715 1.732317,0.801936 1.761991,0.808146 1.811793,0.824834 1.879761,0.852585 1.925814,0.874076 1.954462,0.89084 1.998624,0.91516 2.026693,0.933819 2.053469,0.953887 2.094461,0.98289 2.118817,1.00573 2.158222,1.036665 2.180151,1.061607 2.216991,1.099217 2.237165,1.127052 2.269862,1.17106 2.288584,1.198959 2.320701,1.24178 2.337652,1.271059 2.370085,1.317593 2.386063,1.344379 2.416017,1.397053 2.43106,1.424774 2.461829,1.478397 2.475952,1.506991 2.507051,1.561924 2.536245,1.619883 2.548454,1.647297 2.576627,1.711467 2.5886,1.735425 2.602126,1.757718 2.6327,1.820649 2.647676,1.838089 2.680544,1.897393 2.698565,1.908485 2.744166,1.950069 2.762746,1.961512 2.811587,1.99866 2.862339,2.032726 2.882606,2.041822 2.93801,2.069375 2.956589,2.081243 3.010759,2.109198 3.029873,2.121435 3.080015,2.154186 3.100265,2.16577 3.118556,2.180603 3.165628,2.217777 3.183379,2.233709 3.232118,2.269525 3.249269,2.286673 3.290596,2.331512 3.307562,2.348378 3.347399,2.395387 3.362428,2.413468 3.400206,2.466318 3.414003,2.48777 3.44993,2.542055 3.461883,2.561662 3.492354,2.624904 3.498637,2.638215 3.514811,2.682849 3.551022,2.778019 3.562821,2.817732 3.579714,2.861698 3.594807,2.902753 3.609658,2.9449 3.62891,2.986062 3.66334,3.072946 3.681127,3.113178 3.695837,3.150688 3.71212,3.195976 3.727059,3.235801 3.74024,3.279532 3.750899,3.318308 3.761047,3.361877 3.768516,3.397963 3.780612,3.444759 3.790361,3.48179 3.801337,3.528337 3.807791,3.565034 3.816084,3.611035 3.825018,3.647691 3.832683,3.694348 3.838449,3.730104 3.844256,3.777398 3.848545,3.813487 3.849631,3.860617 3.845501,3.908623 3.846176,3.943743 3.844349,3.991499 3.843685,4.026876 3.836778,4.074382 3.831847,4.110065 3.822588,4.156288 3.818185,4.192923 3.814495,4.238719 3.80805,4.275705 3.798868,4.32224 3.793062,4.35929 3.785544,4.404988 3.779391,4.441946 3.770347,4.485973 3.758888,4.52406 3.740656,4.568568 3.725379,4.607538 3.707979,4.652133 3.691806,4.691288 3.666875,4.734792 3.644625,4.774703 3.618927,4.816024 3.582761,4.856415 3.554319,4.882703 3.52641,4.914987 3.492972,4.945082 3.462015,4.973708 3.432397,5.004651 3.399144,5.031703 3.325937,5.104052 3.293568,5.142018 3.270734,5.167328 3.243862,5.197523 3.217274,5.225612 3.188162,5.252734 3.155723,5.279984 3.115477,5.31164 3.049823,5.351005 3.039625,5.356193 3.002052,5.37389 2.963068,5.391358 2.917658,5.406392 2.882156,5.418245 2.83635,5.433779 2.799571,5.444759 2.755943,5.458936 2.716519,5.471171 2.67198,5.48616 2.63283,5.499219 2.589659,5.511044 2.551252,5.519879 2.508513,5.529928 2.468617,5.539896 2.426888,5.542835 2.386726,5.547456 2.344529,5.553476 2.304456,5.557591 2.26418,5.560599 2.222073,5.561164 2.181897,5.560834 2.139324,5.55666 2.098818,5.548388 2.056443,5.545911 2.017213,5.535466 1.973645,5.525897 1.934745,5.515711 1.890531,5.504922 1.852247,5.494853 1.807001,5.479259 1.769704,5.469279 1.724958,5.461004 1.687243,5.444445 1.640324,5.428833 1.586071,5.413025 1.557903,5.404227 1.509855,5.3863 1.474189,5.36839 1.424516,5.343373 1.38999,5.325688 1.33934,5.299453 1.306309,5.281545 1.25596,5.238845 1.223572,5.218084 1.160698,5.14541 1.144308,5.125623 1.138926,5.116484 1.086176,5.041828 1.081507,5.033125 1.007586,4.951755 0.993455,4.939454 0.966345,4.918651 0.906825,4.871478 0.895425,4.862726 0.882427,4.853786 0.786917,4.785261 0.781421,4.779988 0.718594,4.708009 0.716677,4.70505 0.678314,4.625439 0.677514,4.62312 0.645911,4.54283 0.645688,4.541966 0.618585,4.458986 0.618313,4.457889 0.58777,4.37612 0.587692,4.375798 0.577069,4.331716 0.567718,4.293197 0.567654,4.292914 0.548071,4.210181 0.547916,4.209475 0.527789,4.127643 0.527616,4.126281 0.5108,4.044214 0.510504,4.042077 0.489119,3.960633 0.455303,3.878254 0.454993,3.875599 0.423046,3.797525 0.421922,3.793882 0.386776,3.714701 0.386074,3.710655 0.385103,3.70648 0.366531,3.627692 0.365465,3.622913 0.346677,3.544687 0.345629,3.539528 0.331835,3.461108 0.331256,3.455952 0.321373,3.377867 0.319925,3.301173 0.320414,3.295012 0.327651,3.21803 0.328148,3.21175 0.337657,3.135657 0.339295,3.128706 0.358674,3.053218 0.360363,3.04614 0.387136,2.970506 0.389476,2.963088 0.422801,2.887106 0.424884,2.87969 0.427202,2.872124 0.458985,2.79585 0.460834,2.788292 0.477163,2.712689 0.478019,2.704181 0.481648,2.629618 0.481511,2.62109 0.47564,2.546264 0.474887,2.537986 0.462247,2.463096 0.460311,2.454043 0.449726,2.379954 0.447936,2.370691 0.433474,2.296559 0.432433,2.286821 0.417266,2.213197 0.415333,2.20309 0.409115,2.130062 0.408833,2.11981 0.414214,2.047214 0.414234,2.03668 0.414395,1.964142 0.414652,1.953497 0.422847,1.881178 0.424073,1.870238 0.435129,1.798729 0.437454,1.78801 0.455883,1.716419 0.459167,1.705858 0.473899,1.662922 0.506743,1.585483 0.508124,1.581601 0.540602,1.501947 0.54264,1.497034 0.58314,1.429575 0.586446,1.423253 0.62818,1.358059 0.632141,1.350926 0.675371,1.291123 0.680732,1.281806 0.724504,1.221016 0.730441,1.213075 0.737284,1.205203 0.785776,1.150682 0.794034,1.140834 0.845829,1.09281 0.857615,1.082517 0.907089,1.03621 0.918558,1.025602 0.974465,0.985179 0.989432,0.974222 1.040765,0.933447 1.05582,0.921321 1.106907,0.881855 1.125367,0.871617 1.212082,0.827869 1.269262,0.79796 1.300597,0.788408 1.349095,0.777252 1.378512,0.774333 1.431027,0.767431 1.460886,0.7649 1.513477,0.764605" style="fill: white" />
</svg>
