<svg width="12.953712" height="10.039674">
<polygon type="contour" points="7.753458,0.177669 7.782775,0.182454 7.836919,0.188102 7.865769,0.192462 7.920113,0.203474 7.950842,0.212443 8.003886,0.224421 8.034567,0.230951 8.08676,0.241808 8.118871,0.244717 8.169967,0.245303 8.201922,0.246716 8.25304,0.252567 8.286278,0.25845 8.336822,0.267714 8.370509,0.269513 8.419769,0.284728 8.454689,0.287855 8.502561,0.295458 8.538004,0.300602 8.585723,0.306446 8.621804,0.315889 8.66924,0.330622 8.735651,0.355095 8.782193,0.372782 8.812669,0.382243 8.862962,0.400593 8.895295,0.411235 8.94091,0.433551 8.972749,0.446617 9.016963,0.469984 9.046226,0.486939 9.087942,0.513148 9.116721,0.535103 9.158989,0.556701 9.201976,0.579454 9.229082,0.601749 9.259854,0.619097 9.302395,0.641719 9.333006,0.659874 9.37476,0.683301 9.406504,0.701974 9.444557,0.728387 9.480605,0.758826 9.509961,0.780557 9.539264,0.801736 9.579095,0.826968 9.608096,0.849163 9.64844,0.872969 9.681799,0.910319 9.70662,0.936826 9.738539,0.973857 9.761499,1.003182 9.794723,1.042798 9.818876,1.06731 9.853012,1.105572 9.878576,1.126991 9.906421,1.14502 9.944215,1.17725 9.975464,1.192492 10.015851,1.220953 10.057566,1.244718 10.090305,1.258712 10.132502,1.281587 10.164249,1.297735 10.194606,1.317522 10.232903,1.344649 10.274352,1.366216 10.306684,1.384292 10.350253,1.401449 10.383838,1.419033 10.415786,1.439624 10.456911,1.458549 10.490677,1.478994 10.529409,1.50089 10.565373,1.52577 10.597109,1.54899 10.631495,1.569715 10.666113,1.595876 10.699302,1.623793 10.73277,1.645341 10.766075,1.667723 10.801394,1.692214 10.831886,1.71866 10.865019,1.746648 10.892409,1.776521 10.924057,1.808165 10.954323,1.842329 10.980005,1.874104 11.011016,1.909031 11.035877,1.938312 11.067016,1.976798 11.090761,2.006989 11.121016,2.048087 11.142697,2.077893 11.168828,2.129729 11.186731,2.160747 11.211109,2.216289 11.222607,2.25319 11.250454,2.312503 11.261642,2.343677 11.29192,2.406384 11.303733,2.430542 11.337261,2.496666 11.347865,2.515214 11.38831,2.572662 11.399556,2.587043 11.440877,2.649737 11.456676,2.665083 11.475926,2.687615 11.503333,2.717436 11.573505,2.768556 11.589739,2.794643 11.655398,2.795509 11.704855,2.778253 11.788496,2.752678 11.838284,2.734024 11.912732,2.709561 11.939098,2.704921 12.006353,2.700476 12.027265,2.70155 12.092402,2.70112 12.156296,2.706187 12.223176,2.723257 12.248522,2.727586 12.27322,2.733644 12.336352,2.750616 12.401631,2.779987 12.411461,2.785213 12.453272,2.814576 12.487464,2.840881 12.501817,2.855456 12.519937,2.862992 12.550487,2.894968 12.579994,2.921209 12.607919,2.956729 12.649321,3.009197 12.676728,3.046138 12.712043,3.097388 12.735983,3.136769 12.757724,3.17476 12.77957,3.219151 12.810455,3.291207 12.817553,3.312175 12.837424,3.378994 12.841704,3.393419 12.859014,3.463275 12.862746,3.476347 12.883085,3.548012 12.886327,3.559987 12.898625,3.627596 12.901157,3.70344 12.901596,3.714413 12.899861,3.786919 12.899734,3.797789 12.892997,3.870813 12.892093,3.881695 12.882413,3.953751 12.881053,3.965227 12.870253,4.035898 12.868097,4.048328 12.84967,4.117238 12.845855,4.131383 12.823216,4.200034 12.817789,4.215465 12.793011,4.281717 12.787531,4.298424 12.767547,4.360137 12.759554,4.375939 12.749819,4.405237 12.727373,4.458264 12.706734,4.504141 12.66597,4.570898 12.655409,4.585634 12.642926,4.597108 12.583954,4.648283 12.533886,4.680705 12.50872,4.697974 12.43221,4.733986 12.430329,4.73477 12.428975,4.735207 12.423043,4.738031 12.350529,4.768364 12.28886,4.7818 12.267864,4.788442 12.210649,4.794655 12.183549,4.80109 12.127022,4.800289 12.095264,4.800992 12.036418,4.796404 12.007161,4.79436 11.939037,4.784001 11.915722,4.780172 11.843279,4.776404 11.824006,4.774038 11.750492,4.771171 11.735645,4.7715 11.633731,4.76342 11.569715,4.816853 11.505143,4.914231 11.502928,4.918765 11.452468,5.021184 11.444365,5.041054 11.436802,5.062244 11.408693,5.124736 11.402993,5.145364 11.383059,5.206134 11.377813,5.22794 11.358711,5.288114 11.352987,5.31091 11.335142,5.372871 11.32774,5.397267 11.312433,5.455289 11.299489,5.482107 11.277853,5.538148 11.260894,5.568059 11.229228,5.622935 11.213008,5.655812 11.188717,5.706654 11.170803,5.742145 11.147516,5.790188 11.123375,5.829064 11.098184,5.871737 11.065557,5.912608 11.031306,5.955589 10.983998,6.00255 10.951134,6.037663 10.899254,6.090625 10.86575,6.122776 10.807446,6.180801 10.782383,6.205927 10.718104,6.268786 10.702073,6.287426 10.622786,6.356727 10.608468,6.370538 10.59425,6.382271 10.495365,6.456832 10.409428,6.506097 10.349959,6.541786 10.291432,6.617283 10.285934,6.624192 10.220742,6.701068 10.210201,6.711308 10.145637,6.780094 10.13906,6.784479 10.093826,6.813332 10.064487,6.827895 10.008843,6.863645 9.980605,6.885406 9.920172,6.938017 9.898666,6.959089 9.826834,7.044749 9.810526,7.058778 9.74342,7.12627 9.73113,7.136902 9.656912,7.19447 9.648569,7.201154 9.574407,7.245876 9.568207,7.249903 9.489934,7.281494 9.485414,7.283384 9.404666,7.301969 9.40094,7.303166 9.317755,7.332997 9.237938,7.370336 9.23341,7.372441 9.2333,7.372486 9.148844,7.410854 9.146063,7.411734 9.066208,7.443596 9.062255,7.444511 8.986722,7.471314 8.981867,7.471833 8.902223,7.467063 8.898885,7.4673 8.819017,7.450423 8.73243,7.463728 8.654502,7.489575 8.648134,7.492033 8.573531,7.523764 8.565786,7.52682 8.557683,7.529756 8.482252,7.566994 8.472079,7.57001 8.399962,7.600049 8.388513,7.603209 8.31756,7.614396 8.305626,7.617478 8.233287,7.631747 8.219987,7.635064 8.150182,7.645019 8.081351,7.662704 8.066781,7.667527 7.999404,7.68594 7.983798,7.691442 7.917188,7.709471 7.900664,7.713851 7.834611,7.729447 7.817327,7.73264 7.752743,7.750042 7.734478,7.750946 7.716112,7.753072 7.651164,7.776429 7.630967,7.779483 7.567222,7.801789 7.546612,7.808035 7.484406,7.838225 7.46108,7.8449 7.401058,7.860382 7.376915,7.865674 7.317944,7.874709 7.29351,7.876696 7.234296,7.882278 7.210106,7.884402 7.151684,7.88762 7.127281,7.895551 7.069134,7.901867 7.043389,7.909887 6.984317,7.928363 6.957223,7.935544 6.901595,7.963802 6.873404,7.976708 6.820166,8.007115 6.788911,8.020778 6.736158,8.027286 6.704515,8.034562 6.652238,8.047155 6.619501,8.054374 6.568385,8.059527 6.535381,8.060947 6.485023,8.064168 6.434293,8.060185 6.401628,8.059584 6.350928,8.058709 6.318069,8.052234 6.264642,8.041511 6.234333,8.033613 6.180864,8.025148 6.151253,8.014229 6.092999,7.98886 6.066658,7.976092 6.00715,7.945629 5.984162,7.93295 5.923058,7.892683 5.902073,7.87723 5.8374,7.827902 5.819972,7.814986 5.74861,7.756086 5.727006,7.735705 5.669972,7.680855 5.631132,7.631961 5.603878,7.598481 5.561675,7.538791 5.543285,7.510922 5.519881,7.454067 5.506655,7.429228 5.455548,7.363839 5.448367,7.344792 5.400081,7.275773 5.389017,7.260418 5.354512,7.189127 5.351491,7.17694 5.324796,7.103492 5.321075,7.093488 5.293267,7.017346 5.290453,7.00977 5.262071,6.932121 5.260585,6.926624 5.242075,6.846458 5.240334,6.842736 5.220565,6.761887 5.220028,6.759693 5.199699,6.676563 5.189098,6.65493 5.158811,6.593121 5.158005,6.591114 5.143422,6.510126 5.102087,6.42921 5.099663,6.424609 5.044728,6.354879 5.042977,6.351692 4.996518,6.291862 4.99034,6.282623 4.916092,6.230777 4.824605,6.197406 4.742068,6.177331 4.660583,6.179964 4.658393,6.179518 4.573962,6.183643 4.490548,6.208117 4.485493,6.209226 4.407936,6.22215 4.403651,6.222501 4.325295,6.232154 4.245082,6.226472 4.242315,6.226345 4.161373,6.216301 4.159444,6.216209 4.078403,6.192875 4.077307,6.192612 4.046704,6.178053 3.994108,6.152716 3.992217,6.151885 3.91034,6.112793 3.905442,6.110543 3.826529,6.073335 3.818813,6.071431 3.744879,6.030056 3.736074,6.029469 3.66109,6.005099 3.649576,6.003831 3.577329,5.987999 3.505877,5.980992 3.495346,5.980325 3.42224,5.981615 3.411493,5.981599 3.400865,5.982843 3.328178,5.972929 3.317808,5.973837 3.244656,5.94743 3.230891,5.949282 3.161499,5.932827 3.146856,5.932131 3.078472,5.917837 3.062152,5.917525 2.994872,5.916109 2.979207,5.91556 2.911051,5.890487 2.887516,5.88179 2.829477,5.881329 2.810072,5.870393 2.746158,5.84942 2.724496,5.837437 2.664522,5.805441 2.641686,5.789387 2.582478,5.729169 2.557199,5.707314 2.501453,5.667664 2.471794,5.644201 2.415731,5.605083 2.379234,5.57018 2.333085,5.528377 2.291066,5.484235 2.253395,5.454437 2.20849,5.407129 2.158233,5.3657 2.154303,5.362224 2.113231,5.322617 2.069369,5.280421 2.066962,5.277931 1.996802,5.18738 1.980404,5.16879 1.939059,5.103331 1.919556,5.079624 1.859683,5.016821 1.835533,4.986082 1.783227,4.934872 1.748231,4.898623 1.715318,4.849218 1.681665,4.809945 1.662548,4.767647 1.641309,4.717976 1.624786,4.680864 1.583518,4.570124 1.582072,4.565617 1.581085,4.561479 1.554778,4.461099 1.546249,4.430888 1.536164,4.37585 1.526732,4.346712 1.524447,4.29248 1.519752,4.245835 1.525526,4.190974 1.520621,4.116521 1.52159,4.064549 1.5186,3.983511 1.513248,3.962986 1.510125,3.923512 1.503025,3.865407 1.511863,3.836753 1.5172,3.787313 1.521458,3.72692 1.519812,3.701781 1.52133,3.687305 1.525779,3.617071 1.539709,3.545791 1.539886,3.541059 1.541139,3.537144 1.552034,3.46171 1.57437,3.401506 1.57595,3.391213 1.578997,3.381463 1.592639,3.316501 1.610284,3.260874 1.614824,3.24406 1.623997,3.224684 1.641643,3.180406 1.655304,3.151295 1.668197,3.113915 1.685462,3.065625 1.691241,3.042202 1.697057,3.023151 1.713968,2.972155 1.740889,2.908818 1.741041,2.90843 1.741396,2.907839 1.772822,2.845778 1.791193,2.805555 1.802348,2.781513 1.821226,2.744097 1.834884,2.719671 1.842647,2.705502 1.867728,2.658411 1.896254,2.611004 1.903599,2.600099 1.925234,2.577154 1.949559,2.551558 1.958266,2.540248 1.988041,2.494369 2.018138,2.460757 2.033159,2.443646 2.073492,2.400308 2.079677,2.393781 2.082059,2.391627 2.126495,2.344587 2.146276,2.324241 2.173621,2.295768 2.210946,2.258751 2.223044,2.249072 2.269185,2.213565 2.278482,2.206563 2.28092,2.204815 2.284998,2.201586 2.34876,2.145949 2.386746,2.120213 2.421111,2.098547 2.449158,2.083905 2.494577,2.054082 2.508174,2.045006 2.569809,2.013718 2.574151,2.01167 2.609401,1.995933 2.643526,1.981173 2.647537,1.979578 2.714986,1.953295 2.726552,1.949896 2.792726,1.928936 2.807764,1.923185 2.86384,1.900478 2.88603,1.891212 2.939138,1.874594 2.96765,1.865545 3.011889,1.846752 3.04549,1.832162 3.085396,1.819475 3.125466,1.804838 3.160857,1.795283 3.209937,1.786189 3.245558,1.77704 3.296793,1.77438 3.34096,1.767613 3.386676,1.767283 3.447457,1.769065 3.478546,1.772013 3.577521,1.791162 3.662292,1.772816 3.671669,1.766463 3.735379,1.725261 3.75388,1.711645 3.807681,1.677737 3.845757,1.655129 3.878428,1.635654 3.903939,1.623474 3.954854,1.599191 3.978688,1.588525 4.010854,1.576631 4.06606,1.549448 4.094247,1.53667 4.120511,1.527139 4.180522,1.50085 4.235224,1.482132 4.25969,1.474546 4.320819,1.451984 4.342572,1.448142 4.403927,1.430981 4.425182,1.42989 4.488799,1.419209 4.50906,1.419156 4.571665,1.418132 4.59201,1.418011 4.612073,1.416865 4.675022,1.419417 4.737634,1.422163 4.758265,1.422177 4.778785,1.422711 4.841111,1.431513 4.862763,1.435538 4.923952,1.445154 4.945711,1.448396 5.006912,1.462842 5.030864,1.47395 5.09044,1.503353 5.117128,1.519892 5.174247,1.554312 5.203295,1.56994 5.256631,1.597692 5.288494,1.609736 5.340319,1.633991 5.374799,1.640613 5.423694,1.647485 5.472341,1.646986 5.507427,1.640228 5.552554,1.621414 5.584784,1.604983 5.64896,1.519405 5.675126,1.479853 5.707038,1.417194 5.710938,1.409977 5.74958,1.348092 5.755158,1.336747 5.790812,1.266473 5.795081,1.258364 5.834738,1.185636 5.837244,1.181548 5.881084,1.110884 5.882285,1.108966 5.922134,1.043171 5.926643,1.035753 5.967809,0.95862 5.969883,0.95506 6.009616,0.884565 6.012643,0.879277 6.053672,0.811401 6.057803,0.804299 6.09777,0.738467 6.103152,0.729465 6.140499,0.662866 6.148662,0.651572 6.18949,0.595015 6.199843,0.583774 6.247746,0.535616 6.304831,0.496537 6.318481,0.488095 6.374356,0.453073 6.389569,0.443578 6.421164,0.425969 6.465668,0.404046 6.507538,0.38358 6.552187,0.367181 6.589479,0.356129 6.627707,0.358918 6.6722,0.364464 6.712059,0.382461 6.754259,0.397879 6.796735,0.389818 6.837421,0.383637 6.880261,0.361434 6.920175,0.33939 6.967317,0.319437 7.004867,0.308635 7.054078,0.293035 7.087286,0.284956 7.136081,0.272814 7.170736,0.26178 7.221597,0.250587 7.254394,0.243663 7.305155,0.234059 7.3362,0.227511 7.388694,0.217247 7.420229,0.211257 7.473134,0.203856 7.503283,0.199468 7.556793,0.19226 7.586585,0.188734 7.640728,0.180519 7.670006,0.17785 7.724854,0.176161" style="fill: white" />
</svg>
