<svg width="12.953712" height="10.039674">
<polygon type="contour" points="5.978946,0.450448 6.006557,0.449633 6.053872,0.45261 6.110048,0.461553 6.139487,0.470666 6.187446,0.482271 6.245118,0.499844 6.278818,0.509802 6.324905,0.52742 6.359272,0.539505 6.397685,0.557367 6.435655,0.571279 6.478096,0.589985 6.517128,0.603047 6.558411,0.615376 6.595121,0.632666 6.638421,0.651751 6.669291,0.663413 6.707769,0.676575 6.751587,0.692146 6.785749,0.703001 6.83419,0.721051 6.86777,0.735116 6.918256,0.7534 6.948222,0.763198 7.001141,0.782309 7.030225,0.791665 7.084951,0.81177 7.111416,0.822569 7.167891,0.844258 7.192198,0.85115 7.251444,0.871911 7.274384,0.878484 7.334298,0.895596 7.355921,0.903733 7.418168,0.924872 7.438335,0.929868 7.501286,0.947349 7.520224,0.95486 7.584937,0.97856 7.601949,0.984716 7.668307,1.002859 7.737997,1.022418 7.753841,1.02783 7.765881,1.031398 7.835598,1.044435 7.849283,1.048237 7.91987,1.058282 7.992347,1.064526 8.002616,1.066158 8.074565,1.067256 8.086045,1.069135 8.159386,1.075342 8.169301,1.077443 8.241587,1.06972 8.252332,1.070404 8.327761,1.084106 8.336153,1.084799 8.344061,1.085566 8.418864,1.089065 8.497939,1.111035 8.503278,1.111882 8.577497,1.131689 8.584271,1.132568 8.664681,1.159935 8.674447,1.160815 8.752383,1.165239 8.805392,1.179104 8.842808,1.181212 8.894363,1.190012 8.934523,1.195028 8.982422,1.201554 9.029502,1.205002 9.074842,1.208247 9.12477,1.211962 9.164894,1.215377 9.221497,1.221754 9.255271,1.226855 9.309551,1.239304 9.337135,1.247462 9.388169,1.269149 9.413172,1.279274 9.467138,1.301835 9.489047,1.31352 9.538344,1.344654 9.587501,1.377095 9.608984,1.388477 9.62833,1.401843 9.677918,1.434481 9.727696,1.468161 9.746426,1.482132 9.76593,1.495055 9.81619,1.526675 9.860458,1.56585 9.878877,1.580866 9.896743,1.595081 9.938465,1.644399 9.956716,1.663041 9.990136,1.715064 10.009147,1.735757 10.04234,1.787183 10.062712,1.810309 10.091178,1.861673 10.112641,1.886117 10.144758,1.931983 10.167221,1.964227 10.192953,2.009008 10.215877,2.045049 10.240215,2.088884 10.263302,2.126372 10.287869,2.16317 10.312334,2.207039 10.337027,2.24118 10.368767,2.280689 10.391749,2.309158 10.42758,2.346171 10.451054,2.369143 10.497658,2.399687 10.501881,2.402438 10.582658,2.440315 10.605764,2.444123 10.628224,2.447832 10.635837,2.447933 10.719876,2.445801 10.736707,2.444158 10.80988,2.437781 10.835912,2.436418 10.897899,2.428889 10.934976,2.431829 10.988126,2.427297 11.041075,2.434066 11.084392,2.437804 11.184432,2.472145 11.188446,2.473869 11.190455,2.475046 11.259479,2.519044 11.313893,2.557787 11.332165,2.572529 11.350266,2.589098 11.403072,2.6399 11.458758,2.686939 11.473498,2.698612 11.48903,2.712546 11.542812,2.767405 11.596568,2.80461 11.613789,2.815552 11.635305,2.833792 11.683656,2.877579 11.75227,2.964592 11.752433,2.964844 11.75289,2.965549 11.818151,3.068813 11.846504,3.101218 11.885321,3.157654 11.932999,3.248255 11.951914,3.281374 11.983316,3.385102 11.998413,3.472813 12.003357,3.503655 12.006941,3.528528 12.011721,3.552744 12.022031,3.626039 12.025639,3.677605 12.031848,3.727475 12.035577,3.739872 12.042583,3.792242 12.044845,3.825415 12.040668,3.875607 12.042244,3.912087 12.038052,3.958556 12.035087,4.00488 12.030061,4.041415 12.023547,4.087543 12.017046,4.124324 12.004323,4.171212 12.000357,4.206791 11.990128,4.253292 11.977938,4.289516 11.969559,4.335505 11.957287,4.372714 11.936981,4.426782 11.923792,4.454937 11.910147,4.50617 11.893804,4.537326 11.856904,4.595927 11.844607,4.62029 11.802367,4.680743 11.78676,4.701357 11.739123,4.756436 11.706801,4.77835 11.621842,4.833563 11.59896,4.85063 11.583376,4.862094 11.577505,4.865625 11.502125,4.910905 11.496976,4.913867 11.460188,4.94993 11.398819,5.014195 11.319449,5.084361 11.296809,5.110121 11.238217,5.15316 11.211233,5.173423 11.153457,5.199181 11.124604,5.213699 11.071843,5.231194 11.042587,5.241896 10.989217,5.255829 10.959699,5.260992 10.907045,5.270328 10.876502,5.27676 10.823879,5.293128 10.791613,5.298462 10.740856,5.304267 10.707174,5.31134 10.657532,5.317105 10.62293,5.320702 10.573932,5.326476 10.538411,5.335101 10.490516,5.343236 10.456011,5.350277 10.407965,5.359276 10.368407,5.370291 10.321705,5.374674 10.278281,5.381498 10.242132,5.384249 10.209053,5.391757 10.162306,5.411839 10.133679,5.420171 10.093041,5.455302 10.081945,5.464182 10.059891,5.495451 10.041905,5.528427 10.031058,5.552994 9.989222,5.614436 9.979386,5.642185 9.947897,5.698396 9.937098,5.730665 9.908397,5.782809 9.895144,5.819796 9.881102,5.866042 9.860402,5.907162 9.851037,5.949201 9.823859,5.992739 9.816032,6.031565 9.763831,6.092706 9.758694,6.120022 9.739862,6.17515 9.735397,6.202548 9.714303,6.258224 9.707521,6.285624 9.685172,6.341974 9.678713,6.368859 9.65902,6.422501 9.651447,6.449443 9.628892,6.506733 9.617543,6.531657 9.583714,6.595892 9.57143,6.617488 9.526619,6.677062 9.507926,6.69688 9.485596,6.713553 9.407243,6.768166 9.366004,6.789106 9.324329,6.809885 9.281363,6.827302 9.242299,6.843363 9.198323,6.862211 9.159881,6.877002 9.111996,6.892138 9.075156,6.908146 9.024898,6.924299 8.991687,6.933546 8.94248,6.942685 8.909432,6.948924 8.859901,6.956241 8.825618,6.961765 8.774004,6.964787 8.742111,6.965166 8.709911,6.964838 8.658742,6.960881 8.608346,6.957912 8.575706,6.957358 8.542806,6.958062 8.492503,6.954479 8.443594,6.954541 8.409575,6.96122 8.362096,6.964204 8.326511,6.972056 8.277868,6.976766 8.243468,6.986681 8.194169,6.990366 8.160233,6.992131 8.111395,6.996778 8.076633,7.005125 8.04436,7.008645 7.993657,7.008895 7.943952,7.014153 7.910846,7.016934 7.862397,7.01761 7.827895,7.019616 7.778231,7.027069 7.743825,7.041834 7.689272,7.058501 7.660613,7.070258 7.607992,7.083875 7.578011,7.096301 7.523269,7.103149 7.494376,7.110019 7.438798,7.119651 7.411102,7.127544 7.354444,7.130048 7.327518,7.131577 7.270423,7.132731 7.244203,7.134272 7.218736,7.13296 7.161081,7.135206 7.132565,7.128528 7.077777,7.131765 7.049975,7.127936 6.994806,7.127254 6.938544,7.130258 6.911765,7.130068 6.883948,7.125658 6.828483,7.130953 6.772034,7.144774 6.74547,7.146953 6.687614,7.160308 6.662364,7.15974 6.604676,7.174537 6.579307,7.17415 6.519773,7.186471 6.495735,7.183412 6.435658,7.197353 6.412491,7.196398 6.351264,7.211608 6.329187,7.209399 6.306745,7.209795 6.245556,7.223734 6.224273,7.227474 6.162092,7.240141 6.141283,7.243105 6.079428,7.249715 6.059635,7.251508 5.995995,7.258077 5.9764,7.25856 5.912734,7.264653 5.849273,7.264892 5.829631,7.264453 5.809346,7.263495 5.746351,7.267528 5.725436,7.267954 5.663052,7.274385 5.641937,7.274279 5.579639,7.282064 5.508593,7.285791 5.48745,7.285342 5.457561,7.286436 5.385439,7.287357 5.356882,7.286003 5.296051,7.285457 5.263488,7.280971 5.206123,7.275452 5.166183,7.267254 5.114131,7.258399 5.057802,7.24113 5.020604,7.23199 4.934723,7.195914 4.921039,7.190208 4.893387,7.172686 4.841878,7.136958 4.818842,7.119934 4.764914,7.068049 4.72599,7.029951 4.707262,7.000459 4.677642,6.954748 4.657719,6.917316 4.630248,6.87345 4.592284,6.836381 4.517526,6.791684 4.440608,6.750077 4.420427,6.721105 4.395319,6.666156 4.387983,6.636617 4.371659,6.582844 4.360886,6.555877 4.338666,6.499137 4.331714,6.474119 4.329056,6.416316 4.325858,6.392732 4.309937,6.333013 4.301418,6.311262 4.278465,6.249468 4.266989,6.230011 4.232672,6.166349 4.228057,6.149469 4.209894,6.083216 4.204061,6.068169 4.179929,5.998403 4.17321,5.98402 4.135879,5.911197 4.12864,5.893435 4.113299,5.835562 4.083797,5.825203 4.046945,5.817123 3.962213,5.795309 3.920378,5.779442 3.881572,5.770844 3.838467,5.75748 3.800547,5.747973 3.754673,5.737584 3.717893,5.724255 3.670459,5.70114 3.637738,5.689445 3.589413,5.666416 3.55847,5.651415 3.505784,5.623181 3.477285,5.613027 3.422759,5.588757 3.39827,5.578055 3.339886,5.553859 3.314435,5.543978 3.265262,5.520796 3.193595,5.492498 3.168846,5.481998 3.098022,5.44897 3.069809,5.433724 2.995604,5.40356 2.969567,5.38618 2.918279,5.358752 2.869515,5.331178 2.844851,5.316285 2.790851,5.273685 2.773422,5.258261 2.719572,5.223799 2.655989,5.184563 2.638453,5.173018 2.625318,5.163257 2.547121,5.100295 2.533312,5.081266 2.492638,5.025871 2.480838,4.999233 2.439148,4.943214 2.408477,4.914742 2.35922,4.864881 2.332359,4.833264 2.294296,4.793014 2.259085,4.750627 2.239272,4.716306 2.220247,4.668872 2.209512,4.638308 2.21759,4.58514 2.215136,4.553551 2.224661,4.507826 2.228475,4.465891 2.208607,4.390034 2.219922,4.338434 2.228282,4.294889 2.257154,4.253314 2.275618,4.233936 2.308534,4.189155 2.349965,4.152854 2.370948,4.131026 2.414813,4.093503 2.433541,4.075347 2.475766,4.037555 2.497912,4.02169 2.546334,3.986618 2.564125,3.969842 2.611969,3.937285 2.635431,3.92401 2.681459,3.89125 2.703862,3.875147 2.748167,3.841796 2.773365,3.82712 2.820719,3.796161 2.845072,3.781045 2.89365,3.752019 2.916238,3.73446 2.964305,3.705599 2.989664,3.690151 3.036946,3.659939 3.060245,3.642754 3.099915,3.607861 3.127159,3.592414 3.19522,3.537688 3.211224,3.526332 3.221196,3.518402 3.240446,3.501618 3.338216,3.441553 3.360849,3.418067 3.411192,3.367938 3.421697,3.337144 3.417249,3.304931 3.41016,3.254003 3.397834,3.223506 3.369137,3.170731 3.347603,3.144054 3.285633,3.087714 3.265939,3.06725 3.186584,3.004391 3.169912,2.99116 3.09221,2.921232 3.086424,2.9143 3.021142,2.836207 2.996636,2.817172 2.923877,2.760088 2.91937,2.754648 2.859049,2.681874 2.847282,2.671422 2.764521,2.605933 2.75082,2.588826 2.707851,2.529542 2.691922,2.506091 2.662892,2.448647 2.65134,2.422214 2.613039,2.371102 2.60401,2.339732 2.584889,2.290014 2.579316,2.255734 2.566138,2.207047 2.555756,2.172419 2.550305,2.125364 2.541467,2.088941 2.543903,2.05067 2.550108,2.004943 2.555801,1.96848 2.561446,1.9217 2.57188,1.885655 2.583557,1.835649 2.596855,1.801 2.603053,1.74998 2.616605,1.721761 2.630652,1.690557 2.653048,1.643941 2.670278,1.612521 2.691769,1.571601 2.709825,1.534519 2.730396,1.496667 2.748633,1.456945 2.770291,1.42572 2.795011,1.3854 2.818084,1.357794 2.850528,1.323067 2.892735,1.296306 2.920479,1.275078 2.970336,1.256342 3.006644,1.242033 3.090839,1.192795 3.094406,1.190552 3.175558,1.160493 3.178136,1.159594 3.260796,1.144541 3.262059,1.144361 3.263352,1.14434 3.344083,1.144906 3.344902,1.144904 3.426682,1.150912 3.428883,1.15143 3.511325,1.163392 3.519233,1.165999 3.579745,1.186709 3.588369,1.190838 3.591157,1.191294 3.66668,1.224126 3.671961,1.226864 3.756067,1.24866 3.759518,1.249867 3.833733,1.277816 3.841454,1.279208 3.916385,1.300095 3.925175,1.302604 3.998467,1.31385 4.008343,1.31629 4.018202,1.314992 4.092297,1.31874 4.165931,1.329414 4.17536,1.330168 4.247965,1.364212 4.258666,1.367521 4.328793,1.398602 4.342126,1.403195 4.356038,1.401773 4.426069,1.396459 4.493615,1.418496 4.508594,1.41811 4.574616,1.452219 4.591799,1.458596 4.65486,1.478889 4.675584,1.488407 4.707534,1.476362 4.743427,1.442054 4.767713,1.40961 4.791408,1.373305 4.808982,1.339944 4.831233,1.298529 4.845506,1.264744 4.875401,1.224129 4.894585,1.198985 4.923141,1.154594 4.966172,1.122066 4.991011,1.104008 5.02772,1.065056 5.051025,1.046969 5.067135,1.023452 5.093539,0.970671 5.106205,0.946066 5.137634,0.89747 5.175533,0.849197 5.19102,0.832809 5.23892,0.790797 5.252923,0.776134 5.303905,0.737194 5.318247,0.7236 5.382476,0.69534 5.402222,0.682924 5.429944,0.674324 5.507963,0.648619 5.549136,0.645706 5.592823,0.6221 5.633484,0.604192 5.681748,0.56199 5.715662,0.532897 5.75818,0.50912 5.789003,0.484049 5.840027,0.468118 5.868348,0.457756 5.923984,0.448838" style="fill: white" />
</svg>
