<svg width="12.953712" height="10.039674">
<polygon type="contour" points="7.374305,1.230113 7.420939,1.231801 7.467015,1.232324 7.503776,1.233163 7.549512,1.228734 7.586347,1.232127 7.632289,1.23176 7.668897,1.232959 7.738916,1.247843 7.760102,1.251782 7.773498,1.257464 7.835491,1.275941 7.877971,1.290799 7.917386,1.30179 7.960589,1.315615 8.001265,1.326554 8.042946,1.33747 8.085292,1.350152 8.126067,1.360501 8.168135,1.368614 8.208211,1.377733 8.252456,1.396252 8.291613,1.40594 8.335578,1.418535 8.373538,1.419814 8.418789,1.426546 8.456725,1.42007 8.501937,1.428042 8.547954,1.431776 8.585542,1.412998 8.631887,1.409121 8.669564,1.387282 8.715518,1.379786 8.753296,1.362067 8.801378,1.339007 8.836139,1.336234 8.881456,1.327878 8.918829,1.33033 8.955839,1.333043 9.00136,1.332029 9.039297,1.335749 9.084019,1.33563 9.122087,1.340556 9.16703,1.345588 9.204552,1.351303 9.249886,1.361525 9.288093,1.370163 9.332925,1.382316 9.370003,1.392622 9.415078,1.403182 9.450056,1.416662 9.498762,1.439024 9.531563,1.453427 9.571443,1.471318 9.608694,1.495005 9.640147,1.529147 9.678721,1.552643 9.712017,1.581672 9.750322,1.593766 9.791387,1.605181 9.836475,1.615444 9.881064,1.630724 9.918502,1.638312 9.943145,1.650091 9.996391,1.670925 10.021939,1.680706 10.07531,1.70305 10.098948,1.714242 10.15043,1.738785 10.172538,1.751507 10.221717,1.781418 10.270291,1.81462 10.289942,1.828456 10.338167,1.862107 10.355891,1.878986 10.399712,1.91854 10.417121,1.935833 10.460726,1.974389 10.478592,1.992935 10.519942,2.035777 10.536874,2.055367 10.573394,2.103823 10.589822,2.125926 10.6275,2.169659 10.64457,2.192706 10.680418,2.2399 10.698797,2.262542 10.734919,2.305873 10.754919,2.326153 10.790703,2.367445 10.810486,2.392352 10.844935,2.437066 10.863639,2.463029 10.898633,2.506962 10.918606,2.532457 10.952751,2.573382 10.971607,2.600923 10.998441,2.649854 11.021724,2.691015 11.033059,2.713833 11.057393,2.770322 11.067958,2.796551 11.083051,2.852306 11.090844,2.87976 11.105914,2.93788 11.11204,2.964734 11.121242,3.01996 11.127465,3.047638 11.139669,3.103671 11.144534,3.131009 11.152218,3.185399 11.156612,3.213925 11.164883,3.267411 11.169196,3.297035 11.177039,3.349588 11.181212,3.38016 11.18725,3.432646 11.192221,3.463769 11.196981,3.517192 11.199115,3.546985 11.204487,3.600003 11.207449,3.630413 11.210008,3.682251 11.21265,3.713461 11.216492,3.766737 11.217917,3.796718 11.221019,3.848235 11.223888,3.879939 11.228133,3.932216 11.230889,3.963173 11.232321,3.99415 11.233728,4.046329 11.233821,4.078021 11.232715,4.129506 11.232316,4.160635 11.231561,4.212653 11.231186,4.243446 11.231064,4.293506 11.230404,4.325072 11.218995,4.432998 11.216416,4.461832 11.21242,4.490478 11.202406,4.545445 11.196411,4.573953 11.182355,4.628293 11.17482,4.656122 11.157366,4.710804 11.146205,4.736145 11.119046,4.794467 11.10165,4.821138 11.082052,4.877086 11.069502,4.899492 11.041426,4.961127 11.031041,4.982111 11.007378,5.043742 11.000109,5.064832 10.97526,5.127148 10.968161,5.146911 10.942412,5.210328 10.935821,5.228656 10.910536,5.293721 10.905588,5.310273 10.878277,5.376382 10.872809,5.391849 10.840697,5.468501 10.835593,5.482728 10.827415,5.500082 10.798267,5.551575 10.762611,5.60458 10.758294,5.611755 10.74942,5.623031 10.713428,5.669447 10.694275,5.689656 10.64531,5.740893 10.624588,5.762911 10.616011,5.770605 10.59565,5.790676 10.552363,5.829653 10.524706,5.854349 10.479988,5.889741 10.457375,5.906375 10.405241,5.942508 10.400174,5.946466 10.381568,5.957744 10.327796,5.991694 10.308977,6.001463 10.253454,6.037756 10.203986,6.06276 10.175566,6.079945 10.098973,6.12294 10.098503,6.123193 10.097113,6.123955 10.02101,6.165014 9.996503,6.174892 9.941002,6.197813 9.899212,6.207009 9.85793,6.216714 9.82561,6.225209 9.774955,6.236703 9.751418,6.242848 9.691922,6.255667 9.676566,6.259333 9.608599,6.274806 9.602629,6.277356 9.5245,6.290831 9.521962,6.29136 9.451072,6.309763 9.441876,6.312183 9.388263,6.340703 9.362917,6.347066 9.321489,6.36744 9.282412,6.37694 9.231304,6.393721 9.201624,6.405428 9.175293,6.416079 9.122324,6.433038 9.10513,6.439787 9.066886,6.454294 9.045951,6.464104 9.040655,6.46466 8.97482,6.486609 8.95869,6.48947 8.938575,6.496346 8.887595,6.511353 8.84886,6.520569 8.804389,6.533225 8.766502,6.542402 8.72049,6.557204 8.683538,6.563874 8.638068,6.571799 8.600297,6.578382 8.553759,6.587678 8.516932,6.593199 8.47107,6.601393 8.435072,6.603536 8.387913,6.608929 8.341001,6.6082 8.304497,6.608465 8.268078,6.608002 8.19888,6.612091 8.190321,6.612741 8.112069,6.621014 8.098603,6.623639 8.035459,6.636982 8.028074,6.637739 7.960123,6.653111 7.929505,6.660392 7.877891,6.678031 7.840318,6.688675 7.800479,6.704849 7.772434,6.71452 7.720125,6.730112 7.688057,6.73899 7.638918,6.747243 7.605825,6.755446 7.555796,6.757639 7.50534,6.761216 7.472198,6.765691 7.421728,6.773107 7.388885,6.777629 7.338252,6.783971 7.305585,6.786762 7.272767,6.783769 7.222244,6.783177 7.172327,6.781919 7.139194,6.780103 7.089499,6.781112 7.055681,6.774223 7.005963,6.774754 6.972539,6.769659 6.924161,6.767413 6.868508,6.755756 6.816859,6.748741 6.774471,6.733778 6.730603,6.728782 6.690076,6.722172 6.640923,6.709471 6.601224,6.713444 6.554416,6.708735 6.519012,6.717486 6.469187,6.732242 6.444342,6.739062 6.385957,6.754151 6.370896,6.75771 6.30105,6.761832 6.281861,6.76247 6.224007,6.758025 6.178565,6.751911 6.140991,6.751149 6.095825,6.75099 6.054102,6.745215 6.017217,6.738608 5.96984,6.741487 5.884271,6.747483 5.858814,6.74683 5.837138,6.746375 5.746277,6.737396 5.707134,6.733833 5.6767,6.733001 5.640329,6.724079 5.573587,6.71237 5.522039,6.698934 5.489615,6.694371 5.42803,6.678058 5.398635,6.671842 5.372369,6.661429 5.306706,6.641045 5.294068,6.63588 5.257594,6.620388 5.204098,6.596468 5.191119,6.596093 5.174322,6.596511 5.05956,6.576762 5.012882,6.586812 4.976199,6.582362 4.928691,6.584549 4.893328,6.582926 4.858479,6.578812 4.809952,6.574765 4.775036,6.571349 4.726545,6.565549 4.677545,6.563332 4.643757,6.56546 4.609654,6.567932 4.560358,6.568472 4.510891,6.572851 4.477306,6.576724 4.427948,6.578207 4.394064,6.58132 4.359957,6.582418 4.310917,6.581779 4.277703,6.580391 4.227182,6.570818 4.193681,6.566448 4.144168,6.558342 4.111312,6.551275 4.059912,6.535568 4.027161,6.531136 3.97754,6.521303 3.946987,6.515949 3.894692,6.514789 3.864502,6.50772 3.811615,6.506946 3.781606,6.50402 3.728253,6.502861 3.698841,6.499641 3.644471,6.494743 3.614759,6.491735 3.560629,6.48529 3.532401,6.480779 3.477486,6.473627 3.449874,6.466383 3.394083,6.452468 3.367732,6.445245 3.312094,6.434179 3.287734,6.429803 3.22861,6.417104 3.20419,6.414483 3.145314,6.407257 3.121815,6.405892 3.06283,6.396429 3.039321,6.392208 2.978183,6.372378 2.955644,6.368774 2.894685,6.353447 2.872462,6.348109 2.811424,6.330275 2.790311,6.322747 2.72636,6.292904 2.70658,6.284531 2.644935,6.254731 2.627674,6.243803 2.561235,6.191917 2.54646,6.180607 2.479572,6.122999 2.468395,6.115732 2.394378,6.082574 2.383828,6.077106 2.313221,6.053845 2.305406,6.050302 2.228444,6.01486 2.220969,6.010929 2.144936,5.972055 2.139266,5.969038 2.061605,5.928507 2.057644,5.926463 1.978776,5.8837 1.977062,5.882796 1.931742,5.861676 1.899251,5.846492 1.898051,5.845855 1.81523,5.796669 1.8129,5.795374 1.734176,5.743989 1.729681,5.741406 1.657335,5.697234 1.649427,5.692045 1.574593,5.636849 1.564488,5.629324 1.496474,5.57998 1.478761,5.564746 1.418903,5.51211 1.392755,5.487671 1.34603,5.439896 1.307055,5.401529 1.263336,5.357652 1.228227,5.321223 1.182334,5.27422 1.153162,5.241338 1.114706,5.192786 1.089386,5.161936 1.050085,5.109649 1.035556,5.08213 1.006291,5.028336 0.997257,5.002763 0.96517,4.944035 0.95098,4.918003 0.91764,4.858709 0.902065,4.836215 0.871616,4.776579 0.861561,4.755141 0.837902,4.693672 0.830407,4.674183 0.807311,4.611059 0.798443,4.592373 0.768466,4.521657 0.761106,4.506502 0.739321,4.446206 0.73665,4.430973 0.7201,4.362737 0.716899,4.348791 0.701264,4.279212 0.697952,4.265934 0.684603,4.195277 0.684531,4.182352 0.674612,4.112348 0.674242,4.100321 0.664335,4.029421 0.661613,4.018279 0.644698,3.946223 0.642429,3.935711 0.63184,3.863262 0.631509,3.853863 0.624019,3.780225 0.623358,3.771104 0.624358,3.697364 0.633794,3.623169 0.635388,3.614287 0.648148,3.539168 0.649023,3.530451 0.648389,3.522425 0.65325,3.448448 0.67778,3.373726 0.680073,3.3651 0.69941,3.291916 0.703011,3.282268 0.726788,3.208091 0.729657,3.198349 0.755224,3.125319 0.758181,3.11508 0.789769,3.04152 0.79421,3.030537 0.814385,2.959944 0.817729,2.948563 0.837662,2.87895 0.842196,2.866616 0.872881,2.794677 0.878817,2.781782 0.912941,2.713195 0.922493,2.698838 0.949893,2.65652 0.975545,2.621413 1.006071,2.581369 1.022274,2.555996 1.056089,2.513438 1.073574,2.488687 1.10762,2.447222 1.143053,2.404497 1.158781,2.382898 1.17573,2.358938 1.213221,2.317382 1.251094,2.272101 1.269667,2.245504 1.296018,2.217051 1.332012,2.171944 1.368582,2.134079 1.384569,2.105276 1.401935,2.087932 1.450732,2.024772 1.504499,1.970847 1.514573,1.959084 1.534462,1.939655 1.577405,1.884341 1.605194,1.867002 1.645884,1.831668 1.692783,1.816943 1.740619,1.792513 1.821135,1.785663 1.844294,1.778786 1.867346,1.776503 1.928179,1.783369 1.980052,1.780056 2.002838,1.777137 2.070895,1.763974 2.095649,1.756131 2.153906,1.734311 2.178788,1.723051 2.235824,1.702988 2.262755,1.69017 2.316998,1.672932 2.344847,1.664136 2.398477,1.650239 2.428462,1.63987 2.482591,1.628358 2.512271,1.621009 2.566017,1.609281 2.595813,1.602056 2.648884,1.594572 2.678777,1.58961 2.730311,1.587757 2.761646,1.584145 2.814017,1.578962 2.844926,1.578103 2.896581,1.571377 2.928094,1.566865 2.977627,1.562822 3.010961,1.5579 3.060591,1.552164 3.094178,1.547172 3.142936,1.54597 3.17739,1.543787 3.227194,1.539185 3.260655,1.542308 3.294098,1.546872 3.344042,1.549728 3.378134,1.558238 3.427269,1.560845 3.460669,1.564072 3.510846,1.568326 3.542936,1.575408 3.593387,1.593022 3.626247,1.607107 3.676423,1.623428 3.72726,1.613946 3.759395,1.611618 3.811821,1.590037 3.843122,1.577545 3.893214,1.563452 3.926213,1.551342 3.976309,1.545911 4.00954,1.537232 4.058233,1.534466 4.092553,1.529084 4.128083,1.526968 4.176153,1.526352 4.211439,1.527637 4.259406,1.528762 4.294269,1.541621 4.343286,1.553597 4.37702,1.570783 4.42806,1.598363 4.462605,1.620998 4.512917,1.651257 4.543789,1.666135 4.593742,1.687729 4.623531,1.694871 4.676069,1.709393 4.729246,1.705302 4.75792,1.703119 4.812023,1.69654 4.840756,1.689963 4.893996,1.681998 4.923203,1.677532 4.977452,1.659936 5.006854,1.655368 5.058135,1.639787 5.089868,1.62871 5.142118,1.611202 5.173376,1.597589 5.224347,1.585628 5.256974,1.573607 5.30482,1.568545 5.339693,1.565014 5.390666,1.557629 5.423919,1.554291 5.472727,1.551455 5.506678,1.54746 5.555121,1.534249 5.590104,1.52703 5.635532,1.508801 5.672571,1.498918 5.721653,1.482721 5.757445,1.467303 5.805147,1.451568 5.840579,1.436724 5.885142,1.423325 5.923098,1.417138 5.965628,1.40837 6.005841,1.39955 6.049897,1.390954 6.089667,1.386461 6.133526,1.382151 6.172974,1.382096 6.215957,1.376166 6.255785,1.372928 6.298683,1.369277 6.339408,1.36322 6.379609,1.372443 6.423148,1.37907 6.462199,1.383698 6.505384,1.378381 6.54732,1.362152 6.587945,1.348 6.629093,1.330224 6.672856,1.308977 6.712706,1.30803 6.755995,1.30395 6.796173,1.300321 6.838795,1.303135 6.878316,1.297974 6.921803,1.291355 6.961081,1.291126 7.00539,1.288242 7.043983,1.277726 7.087968,1.273407 7.133307,1.263399 7.171674,1.25195 7.218148,1.240115 7.255083,1.234146 7.301194,1.230425 7.337817,1.227109" style="fill: white" />
</svg>
