<svg width="12.953712" height="10.039674">
<polygon type="contour" points="7.171107,0.107873 7.206636,0.116193 7.254796,0.127818 7.290772,0.13738 7.337287,0.15557 7.383405,0.152452 7.420395,0.147459 7.46719,0.132969 7.503117,0.126256 7.538483,0.125692 7.586617,0.117273 7.635292,0.113286 7.669702,0.113717 7.704328,0.112167 7.753212,0.114055 7.80156,0.113775 7.836537,0.113513 7.884751,0.113189 7.919867,0.11158 7.954808,0.111496 8.003078,0.110182 8.051226,0.114771 8.086328,0.116704 8.134095,0.122061 8.169928,0.125139 8.206046,0.129315 8.253779,0.138319 8.29089,0.148006 8.336859,0.160186 8.374839,0.170631 8.419705,0.187347 8.470347,0.201253 8.490843,0.20771 8.552698,0.227747 8.567539,0.23292 8.634695,0.259847 8.646528,0.264791 8.709922,0.298937 8.720743,0.303976 8.784972,0.338191 8.794248,0.34339 8.80372,0.348306 8.861573,0.391712 8.920235,0.43485 8.928941,0.44103 8.937264,0.447749 8.996353,0.490198 9.004199,0.497636 9.0633,0.539619 9.132264,0.568984 9.140022,0.573723 9.147921,0.577956 9.219645,0.604208 9.225704,0.608171 9.297046,0.638568 9.327434,0.649474 9.398812,0.673215 9.427739,0.684163 9.495862,0.701797 9.510712,0.70594 9.631756,0.736514 9.632342,0.73671 9.710383,0.766877 9.712155,0.76763 9.780223,0.810591 9.782525,0.811863 9.784586,0.813478 9.848474,0.866397 9.917166,0.9103 9.987606,0.945363 9.991355,0.948911 10.06716,0.987242 10.070256,0.989442 10.134544,1.0362 10.18775,1.102406 10.189553,1.104389 10.23979,1.175123 10.240596,1.176234 10.274748,1.231958 10.288215,1.25393 10.357917,1.298682 10.370387,1.303593 10.436374,1.329522 10.438994,1.330473 10.520308,1.35558 10.522618,1.357047 10.593193,1.396488 10.655381,1.448031 10.65767,1.450014 10.711994,1.516573 10.713204,1.517924 10.76745,1.582492 10.768136,1.583238 10.807592,1.632135 10.823445,1.651692 10.82368,1.652054 10.87459,1.723193 10.875575,1.724573 10.927146,1.793569 10.928969,1.795915 10.983612,1.85746 10.986044,1.860491 11.041384,1.920334 11.093878,1.980431 11.097399,1.984589 11.147414,2.048049 11.151615,2.053492 11.199645,2.116872 11.204641,2.123407 11.249167,2.187298 11.254799,2.195267 11.260008,2.204501 11.301263,2.277801 11.307216,2.289844 11.342535,2.359971 11.349254,2.375101 11.38246,2.452478 11.392243,2.468855 11.431529,2.526765 11.46673,2.587144 11.478238,2.606463 11.506955,2.67056 11.51774,2.697566 11.549098,2.787222 11.5535,2.798878 11.557182,2.808583 11.583963,2.882151 11.586348,2.890201 11.607634,2.964562 11.609366,2.97132 11.628435,3.047743 11.629641,3.053581 11.644228,3.131591 11.650069,3.20879 11.650581,3.213671 11.659156,3.292578 11.659373,3.296993 11.65979,3.301426 11.666766,3.380321 11.669649,3.459282 11.669962,3.463219 11.676496,3.542932 11.676628,3.546681 11.676995,3.550412 11.685552,3.630073 11.688903,3.709915 11.689009,3.713001 11.689239,3.716101 11.694645,3.796598 11.698288,3.876592 11.698399,3.879368 11.698613,3.882142 11.705517,3.962776 11.708104,4.043375 11.70826,4.045715 11.708463,4.048038 11.714859,4.128638 11.714845,4.130711 11.710876,4.211641 11.710664,4.213755 11.706415,4.294395 11.695227,4.373862 11.69478,4.377209 11.682497,4.455305 11.68191,4.459694 11.681231,4.464107 11.664876,4.543148 11.663946,4.548276 11.640637,4.625368 11.639278,4.632096 11.619107,4.706047 11.618109,4.714253 11.604307,4.793031 11.603566,4.801523 11.588203,4.876898 11.586205,4.887016 11.573996,4.9595 11.57197,4.969289 11.559539,5.042082 11.556637,5.052824 11.541733,5.125453 11.536996,5.137714 11.516731,5.207848 11.510273,5.221742 11.482821,5.2908 11.476619,5.306291 11.451235,5.373871 11.444381,5.391267 11.412365,5.457348 11.404495,5.476972 11.377239,5.538955 11.367231,5.561118 11.343524,5.622397 11.333864,5.645473 11.30676,5.706404 11.293262,5.73265 11.269175,5.788209 11.254502,5.816377 11.226557,5.870851 11.206955,5.90217 11.174309,5.954246 11.148369,5.989109 11.1119,6.037729 11.086604,6.075195 11.058458,6.120201 11.024824,6.160461 10.988658,6.201711 10.954125,6.236995 10.897251,6.290244 10.797962,6.378932 10.797093,6.379762 10.79609,6.380369 10.75486,6.398804 10.726468,6.41914 10.690733,6.43727 10.644499,6.458829 10.598636,6.472528 10.559229,6.491606 10.508841,6.51242 10.473482,6.528223 10.423552,6.55519 10.391548,6.572778 10.337419,6.612491 10.308153,6.63205 10.252925,6.677416 10.226882,6.695204 10.200736,6.712559 10.176316,6.728407 10.126628,6.764708 10.106251,6.780368 10.063301,6.81603 10.034123,6.8396 9.978368,6.882925 9.958068,6.899716 9.946869,6.907121 9.882804,6.945556 9.842305,6.97543 9.806609,6.996925 9.738608,7.037202 9.729864,7.042819 9.725096,7.046116 9.644895,7.084698 9.633866,7.091306 9.562275,7.127723 9.555992,7.131052 9.478162,7.172043 9.47573,7.173385 9.39713,7.222951 9.393127,7.225457 9.392691,7.225692 9.309059,7.27678 9.30656,7.27801 9.228343,7.31333 9.223976,7.31559 9.143928,7.353676 9.137762,7.356621 9.059276,7.402396 9.051001,7.404923 8.97668,7.434163 8.966743,7.436584 8.894266,7.44793 8.883956,7.45215 8.811787,7.472163 8.799829,7.479028 8.727854,7.5145 8.659382,7.548515 8.644068,7.557581 8.576305,7.588248 8.559563,7.594786 8.49667,7.616345 8.478485,7.623882 8.412602,7.647142 8.394725,7.654493 8.332936,7.673108 8.311384,7.682505 8.249678,7.703735 8.227658,7.710055 8.166798,7.730508 8.143638,7.736534 8.084769,7.75899 8.059845,7.77054 8.004906,7.802818 7.978467,7.81769 7.923231,7.850587 7.89348,7.87182 7.840357,7.903233 7.809687,7.920133 7.760429,7.941198 7.727525,7.950841 7.678354,7.96865 7.643985,7.982077 7.595881,7.993035 7.560369,8.001422 7.51446,8.006666 7.477722,8.014519 7.430395,8.022355 7.394053,8.026942 7.347793,8.033309 7.311115,8.035226 7.265164,8.041577 7.228099,8.04255 7.18269,8.049419 7.145149,8.054076 7.107683,8.060517 7.018031,8.083467 6.977556,8.094566 6.937879,8.101814 6.895207,8.110604 6.85527,8.116035 6.811949,8.120742 6.771521,8.124531 6.728616,8.125913 6.68563,8.12678 6.645341,8.131656 6.602777,8.137777 6.56203,8.143131 6.520866,8.144903 6.478472,8.145832 6.437859,8.139072 6.395114,8.133071 6.35552,8.123215 6.311935,8.11059 6.273771,8.105762 6.228264,8.096211 6.190269,8.092026 6.145343,8.089318 6.109328,8.082994 6.062469,8.076742 6.027424,8.0673 5.979464,8.054365 5.94604,8.044981 5.896593,8.031742 5.864229,8.020121 5.812686,8.000884 5.782458,7.988818 5.729939,7.967349 5.702605,7.955295 5.64778,7.92575 5.623016,7.909108 5.567077,7.868281 5.551063,7.856831 5.534151,7.839342 5.478619,7.772999 5.469607,7.760587 5.432185,7.688324 5.428161,7.679267 5.389897,7.60442 5.386438,7.597105 5.341382,7.518057 5.339496,7.513047 5.306691,7.43368 5.261295,7.36499 5.253092,7.352525 5.252707,7.35203 5.210811,7.272113 5.209485,7.269021 5.180129,7.189046 5.179206,7.18455 5.156381,7.108006 5.153686,7.101187 5.113948,7.028775 5.107963,7.012849 5.096115,6.997506 4.995956,6.937137 4.986475,6.922762 4.944271,6.86603 4.925839,6.836181 4.902203,6.806793 4.86294,6.765303 4.816569,6.756852 4.777098,6.741719 4.73318,6.731895 4.692161,6.721312 4.650991,6.713261 4.609454,6.708017 4.567741,6.692479 4.524561,6.681026 4.484488,6.668153 4.439412,6.663887 4.401436,6.662803 4.36292,6.665124 4.318537,6.670958 4.274302,6.67541 4.235182,6.673261 4.196578,6.676028 4.151991,6.680318 4.112625,6.683364 4.068836,6.684955 4.029647,6.690469 3.985513,6.692286 3.94713,6.694871 3.902421,6.697405 3.857385,6.693101 3.819051,6.694049 3.780603,6.696178 3.736009,6.695338 3.690724,6.690814 3.652712,6.692365 3.615046,6.691151 3.56962,6.690319 3.523887,6.688472 3.486365,6.684952 3.439791,6.680701 3.403145,6.67989 3.366671,6.679392 3.319933,6.678563 3.273,6.678086 3.236694,6.674432 3.188226,6.670098 3.153279,6.668376 3.104496,6.662353 3.069418,6.654634 3.019052,6.635748 2.986073,6.623031 2.933799,6.595733 2.902888,6.580358 2.848315,6.551693 2.820093,6.537484 2.762165,6.509773 2.73648,6.50001 2.678798,6.489485 2.654221,6.483685 2.630325,6.483303 2.570236,6.486426 2.509957,6.479472 2.486624,6.47643 2.426144,6.457895 2.403806,6.450165 2.340877,6.425505 2.321302,6.419209 2.256157,6.395053 2.237976,6.387973 2.169429,6.356923 2.153349,6.350748 2.084504,6.323196 2.070194,6.316645 1.999714,6.287302 1.988276,6.283436 1.915514,6.253922 1.9056,6.249005 1.828773,6.211914 1.821467,6.20829 1.745225,6.175124 1.74015,6.172311 1.660021,6.120052 1.657891,6.118546 1.655299,6.115726 1.554964,6.019167 1.5412,6.00051 1.493124,5.938704 1.472738,5.916568 1.421366,5.856152 1.396473,5.830725 1.34253,5.772979 1.314933,5.742043 1.271745,5.688063 1.250769,5.655379 1.21751,5.604305 1.201476,5.5665 1.179499,5.520463 1.148341,5.478986 1.116672,5.436985 1.069043,5.39393 1.028335,5.353612 0.987782,5.306061 0.954565,5.270965 0.912094,5.218239 0.886181,5.187324 0.848056,5.130448 0.832465,5.102853 0.812002,5.044148 0.80097,5.018835 0.782218,4.957005 0.77431,4.935011 0.752178,4.872297 0.742532,4.851678 0.719465,4.787536 0.711004,4.768768 0.680876,4.701149 0.674973,4.685376 0.65169,4.616209 0.645608,4.602155 0.631208,4.530416 0.627226,4.518318 0.623045,4.448717 0.62095,4.435955 0.620363,4.365215 0.620461,4.352957 0.62203,4.340729 0.631993,4.269765 0.633401,4.257825 0.646029,4.186248 0.645791,4.114183 0.644573,4.10311 0.63453,4.030825 0.631949,4.020097 0.622188,3.947479 0.620943,3.937172 0.621509,3.926721 0.624453,3.853934 0.627285,3.844459 0.638488,3.770855 0.6424,3.76128 0.644458,3.687716 0.643702,3.679016 0.648204,3.604466 0.646526,3.594464 0.649358,3.521111 0.645743,3.447702 0.645027,3.438191 0.645879,3.428736 0.649866,3.354571 0.651311,3.344191 0.661673,3.271592 0.663062,3.261499 0.672321,3.188449 0.67455,3.178128 0.691458,3.105409 0.694271,3.094619 0.705823,3.022813 0.709454,3.012442 0.73309,2.941203 0.742589,2.924597 0.781353,2.855915 0.793018,2.831189 0.80939,2.773993 0.818433,2.749204 0.830815,2.688944 0.8401,2.664963 0.855462,2.609596 0.873838,2.560452 0.889184,2.525895 0.912448,2.477498 0.926447,2.444549 0.954319,2.39747 0.968524,2.369515 0.998322,2.320385 1.013557,2.297104 1.04669,2.246925 1.060645,2.226758 1.097585,2.178613 1.111364,2.160426 1.14805,2.107392 1.159905,2.090524 1.199356,2.038491 1.209841,2.023759 1.252889,1.971967 1.263061,1.959568 1.309916,1.910058 1.319528,1.899181 1.329051,1.889228 1.381782,1.844262 1.392141,1.835749 1.448367,1.793517 1.458085,1.785788 1.514658,1.742884 1.523813,1.736081 1.584171,1.694292 1.594302,1.68812 1.655855,1.647954 1.666687,1.641778 1.729341,1.603773 1.739442,1.597719 1.80217,1.558909 1.812098,1.553095 1.875795,1.515253 1.885367,1.509532 1.950086,1.472371 1.959781,1.467451 2.026551,1.429348 2.036412,1.422941 2.094442,1.379972 2.10273,1.374046 2.166029,1.333629 2.1754,1.328217 2.24072,1.291695 2.245199,1.289421 2.327543,1.25132 2.33757,1.247135 2.422379,1.214751 2.429888,1.212284 2.505086,1.200536 2.512066,1.199355 2.587781,1.197555 2.595123,1.19693 2.671452,1.198829 2.67829,1.198746 2.685168,1.198662 2.761491,1.206436 2.769223,1.206995 2.84471,1.218352 2.852718,1.219543 2.927751,1.231765 3.002758,1.229273 3.011388,1.230557 3.08714,1.212803 3.094931,1.212287 3.174255,1.178351 3.179591,1.177308 3.1849,1.175459 3.262163,1.14333 3.340842,1.127924 3.344042,1.127081 3.42495,1.119651 3.427491,1.119063 3.508023,1.117136 3.510383,1.116942 3.590985,1.115276 3.593427,1.1151 3.595872,1.115197 3.676725,1.114805 3.757499,1.120931 3.759218,1.120887 3.760972,1.121207 3.842965,1.13619 3.846682,1.137175 3.926041,1.147734 3.930441,1.149713 4.009293,1.178404 4.015693,1.181768 4.095611,1.222952 4.105472,1.226936 4.176849,1.275762 4.188373,1.281871 4.257896,1.299516 4.270926,1.306323 4.342992,1.344345 4.35859,1.345787 4.425312,1.347163 4.496428,1.306415 4.50941,1.299745 4.581205,1.271516 4.592738,1.266718 4.666265,1.250834 4.675987,1.248309 4.748889,1.238038 4.758118,1.236843 4.767358,1.239566 4.840129,1.250662 4.911132,1.280301 4.922869,1.285865 4.992735,1.32955 5.006071,1.335986 5.020508,1.340832 5.091009,1.379789 5.108054,1.379681 5.174573,1.397085 5.240919,1.379191 5.257848,1.374584 5.320597,1.33424 5.336936,1.323556 5.422271,1.18807 5.428579,1.181018 5.468095,1.098846 5.470023,1.094907 5.470131,1.094697 5.512895,1.019252 5.54522,0.934875 5.547841,0.929009 5.581048,0.854023 5.585007,0.845188 5.620473,0.777866 5.665334,0.719536 5.67224,0.707902 5.707427,0.647377 5.715674,0.634928 5.748354,0.575817 5.75636,0.558913 5.78826,0.50005 5.797541,0.481587 5.809873,0.464991 5.848094,0.415912 5.888719,0.372381 5.904545,0.354242 5.924327,0.339323 5.968481,0.301015 5.990456,0.288108 6.041059,0.255822 6.0646,0.243388 6.119866,0.216082 6.143175,0.203524 6.173211,0.19001 6.211874,0.172336 6.256288,0.14956 6.292888,0.136877 6.33954,0.125918 6.375319,0.121705 6.422324,0.113356 6.47141,0.129808 6.506872,0.135948 6.543027,0.143247 6.58819,0.160951 6.634314,0.154972 6.671659,0.147976 6.718321,0.13637 6.754515,0.131725 6.790337,0.130355 6.83795,0.121368 6.873623,0.11937 6.92139,0.113966 6.969416,0.111104 7.004459,0.110988 7.039159,0.106264 7.087846,0.105406 7.122239,0.104544" style="fill: white" />
</svg>
