<svg width="12.953712" height="10.039674">
<polygon type="contour" points="8.058995,2.704951 8.059418,2.704976 8.129627,2.720447 8.165166,2.721308 8.206821,2.72374 8.266147,2.721639 8.284458,2.721751 8.350102,2.719482 8.3623,2.719966 8.366699,2.720727 8.435868,2.729554 8.476889,2.74784 8.501882,2.759695 8.550136,2.766951 8.575369,2.771634 8.588915,2.777523 8.641456,2.801573 8.703473,2.831257 8.706906,2.833863 8.711289,2.837001 8.764419,2.887242 8.794617,2.917407 8.820711,2.944395 8.862469,2.972467 8.882449,2.989355 8.892777,3.001542 8.927948,3.073821 8.954167,3.097498 8.982474,3.135823 9.0112,3.195245 9.027408,3.222739 9.07075,3.292279 9.09194,3.377603 9.096098,3.400001 9.102569,3.466779 9.107679,3.516124 9.106227,3.551371 9.102103,3.619834 9.101788,3.634021 9.121569,3.725161 9.12224,3.74736 9.142808,3.818498 9.147139,3.857527 9.137104,3.899411 9.151,3.974782 9.153031,3.990543 9.151205,4.023682 9.144667,4.068435 9.145789,4.09493 9.134908,4.145115 9.122714,4.21651 9.121978,4.219227 9.121719,4.221362 9.105146,4.294 9.086678,4.35366 9.083625,4.363455 9.080737,4.375784 9.062902,4.435211 9.043359,4.490079 9.036019,4.504499 9.031525,4.517848 9.011674,4.56978 8.9749,4.630975 8.974841,4.631072 8.974801,4.631138 8.931082,4.690057 8.903578,4.716092 8.878164,4.745299 8.810816,4.805349 8.80002,4.81462 8.764619,4.8359 8.730129,4.854704 8.718708,4.860347 8.653866,4.898156 8.61771,4.915731 8.573892,4.931494 8.515427,4.9626 8.496075,4.972397 8.421304,4.986315 8.412301,4.988145 8.343252,5.003806 8.329267,5.006709 8.327668,5.00665 8.241277,5.00959 8.236862,5.009322 8.152998,5.009775 8.147274,5.009004 8.064161,5.007022 8.059274,5.006773 7.975681,5.003121 7.972323,5.003053 7.926735,4.995195 7.886099,4.987338 7.882627,4.986996 7.801186,4.980167 7.793557,4.978405 7.715432,4.972365 7.703581,4.969234 7.631853,4.950529 7.608982,4.943719 7.550988,4.924282 7.513456,4.910886 7.469849,4.898201 7.414121,4.866555 7.391037,4.858866 7.322275,4.81594 7.312837,4.810658 7.268462,4.788693 7.190812,4.717854 7.181085,4.70861 7.178219,4.705013 7.144945,4.680082 7.07515,4.622939 7.045394,4.597226 6.990259,4.534264 6.957504,4.489255 6.925738,4.437952 6.908961,4.397852 6.881721,4.334105 6.841713,4.256934 6.832841,4.231874 6.824201,4.204118 6.801203,4.12342 6.790659,4.084569 6.778458,4.011402 6.760782,3.961178 6.736914,3.90655 6.730591,3.815773 6.724693,3.790571 6.726903,3.742379 6.726374,3.669927 6.758533,3.553321 6.763658,3.535267 6.806298,3.406649 6.810895,3.397325 6.871594,3.309889 6.923572,3.235946 6.937948,3.215569 6.958759,3.184631 7.003332,3.122922 7.057315,3.067053 7.077368,3.047882 7.093689,3.023635 7.14293,2.952143 7.209769,2.915581 7.224941,2.903778 7.261038,2.872874 7.302696,2.840881 7.317303,2.830645 7.38638,2.795245 7.408754,2.791345 7.479629,2.774106 7.492499,2.773442 7.541822,2.771264 7.568845,2.774726 7.578202,2.769987 7.654365,2.750758 7.672143,2.752035 7.73587,2.740312 7.763691,2.726218 7.818687,2.724914 7.863783,2.724685 7.896248,2.725165 7.958742,2.70857 7.979807,2.708349 8.058836,2.704934" style="fill: white" /><polygon type="contour" points="1.485357,0.466866 1.513466,0.470532 1.568828,0.48124 1.597345,0.486665 1.65222,0.506627 1.690698,0.522034 1.72944,0.536943 1.769638,0.555481 1.807683,0.56781 1.848045,0.586734 1.889451,0.604098 1.939414,0.623558 1.985488,0.649361 2.013067,0.662906 2.058556,0.691503 2.085054,0.70579 2.107742,0.72571 2.148012,0.761164 2.170747,0.780907 2.210988,0.816544 2.232349,0.837091 2.27053,0.877442 2.290557,0.900154 2.325916,0.943301 2.343773,0.965979 2.377889,1.014553 2.394584,1.0385 2.429338,1.08761 2.444604,1.111339 2.477338,1.163089 2.49135,1.187237 2.525364,1.240059 2.538778,1.261017 2.575157,1.314231 2.588516,1.335593 2.624555,1.392762 2.639375,1.410796 2.67782,1.460717 2.694718,1.473017 2.743111,1.512897 2.761934,1.524159 2.814058,1.556543 2.871055,1.582208 2.891817,1.590799 2.947141,1.616086 2.96764,1.627145 3.021394,1.654453 3.041351,1.666371 3.093591,1.695347 3.112939,1.708761 3.13104,1.724268 3.178511,1.76072 3.195782,1.779405 3.242029,1.814937 3.258978,1.831719 3.303864,1.871541 3.320915,1.887678 3.365759,1.927896 3.383223,1.943414 3.42801,1.984067 3.445367,1.999144 3.489993,2.040423 3.506385,2.056872 3.549646,2.101685 3.566208,2.117439 3.609884,2.159781 3.624461,2.17676 3.66356,2.229215 3.677338,2.24759 3.715674,2.301337 3.727911,2.319846 3.766624,2.374527 3.777584,2.394023 3.814095,2.451028 3.823685,2.467852 3.858858,2.531805 3.866854,2.551712 3.901849,2.617115 3.909213,2.632805 3.940227,2.707007 3.946296,2.723186 3.977028,2.805072 3.983042,2.818472 4.011789,2.897771 4.022665,2.93535 4.023546,2.938142 4.024902,2.943079 4.065666,3.045562 4.102483,3.13509 4.108697,3.152577 4.11972,3.172941 4.153539,3.260798 4.178803,3.370693 4.179511,3.372707 4.180998,3.381438 4.194551,3.489841 4.199209,3.534707 4.211777,3.605954 4.22739,3.676873 4.24024,3.718307 4.261011,3.760127 4.277955,3.826398 4.30021,3.868455 4.310618,3.938171 4.315414,3.963104 4.308958,4.005592 4.309424,4.061705 4.319018,4.13511 4.311453,4.18307 4.312904,4.214995 4.29111,4.229769 4.275333,4.280053 4.255365,4.330113 4.257575,4.354683 4.243902,4.374412 4.229304,4.423222 4.200186,4.473533 4.1963,4.487921 4.188903,4.496473 4.170845,4.557181 4.129644,4.609495 4.124464,4.622224 4.084742,4.706759 4.039624,4.743589 4.035907,4.755156 4.020467,4.768249 3.993787,4.817539 3.972406,4.83081 3.953818,4.876879 3.902725,4.909233 3.894931,4.920882 3.879794,4.940869 3.865402,4.992372 3.837545,4.998222 3.807913,5.030277 3.767416,5.058215 3.707573,5.108194 3.699068,5.117461 3.691222,5.119611 3.620888,5.175962 3.581898,5.19717 3.546943,5.226111 3.476015,5.27776 3.473457,5.279744 3.464341,5.284332 3.388175,5.320703 3.310786,5.352895 3.298257,5.35729 3.232843,5.379482 3.217619,5.386451 3.14939,5.410153 3.133111,5.415754 3.066599,5.442079 3.050321,5.448173 2.986715,5.470001 2.969127,5.47675 2.902912,5.505129 2.884912,5.511771 2.820994,5.530008 2.802725,5.535386 2.739613,5.554027 2.720611,5.558965 2.657494,5.575852 2.637976,5.580708 2.575103,5.596916 2.555305,5.601724 2.492559,5.616843 2.472575,5.619763 2.452472,5.622364 2.38989,5.630032 2.369576,5.632072 2.307065,5.639624 2.244806,5.640303 2.224637,5.642423 2.204439,5.643522 2.141984,5.642938 2.122279,5.643387 2.05932,5.64452 2.039655,5.642763 1.976548,5.634808 1.956876,5.632561 1.893134,5.619245 1.874429,5.614457 1.809877,5.598457 1.791867,5.594096 1.726365,5.579004 1.708882,5.574582 1.642957,5.55855 1.62605,5.55291 1.558851,5.528915 1.542874,5.523046 1.474912,5.489639 1.460266,5.4799 1.393748,5.441788 1.380508,5.43161 1.310216,5.375534 1.299302,5.371604 1.228388,5.33013 1.218451,5.326354 1.144332,5.306918 1.13534,5.303478 1.060998,5.274235 1.052557,5.27094 0.975627,5.234074 0.967492,5.228015 0.89045,5.167878 0.883856,5.162499 0.838252,5.115345 0.835546,5.112585 0.835217,5.112228 0.821842,5.097586 0.764003,5.034561 0.762349,5.032886 0.695113,4.953477 0.692613,4.950133 0.637635,4.870899 0.635283,4.8664 0.588288,4.789974 0.585269,4.783795 0.544863,4.710853 0.542142,4.702886 0.511609,4.631326 0.508413,4.622095 0.466012,4.549251 0.461179,4.539622 0.413322,4.465874 0.405127,4.455199 0.35818,4.382339 0.350537,4.371072 0.309157,4.300334 0.302353,4.288441 0.271171,4.217854 0.26658,4.205276 0.242282,4.135284 0.236565,4.122118 0.213033,4.0527 0.208164,4.039087 0.190459,3.971146 0.18541,3.956781 0.168671,3.88859 0.165209,3.87358 0.151102,3.805392 0.149128,3.790184 0.147675,3.723255 0.144167,3.707224 0.135836,3.640562 0.133861,3.624144 0.127074,3.557676 0.125169,3.540957 0.110371,3.474607 0.108007,3.457532 0.099603,3.392269 0.097335,3.374561 0.090606,3.309139 0.088765,3.291206 0.088063,3.272914 0.088702,3.20803 0.088714,3.189617 0.092154,3.124676 0.093905,3.104964 0.099852,3.041182 0.102444,3.021054 0.111093,2.957842 0.115554,2.93785 0.128482,2.874199 0.132786,2.853611 0.141365,2.79138 0.145859,2.77093 0.164963,2.707234 0.170529,2.686687 0.182973,2.625779 0.187941,2.60659 0.208019,2.544927 0.213786,2.523391 0.225163,2.458125 0.228778,2.437528 0.239924,2.376248 0.242699,2.356232 0.256103,2.2929 0.25832,2.272402 0.265903,2.209902 0.268143,2.189165 0.27543,2.126632 0.275935,2.105862 0.28263,2.043282 0.284301,2.022041 0.285428,1.960182 0.285841,1.939074 0.287599,1.877125 0.287895,1.856166 0.293831,1.793954 0.295949,1.772534 0.297008,1.711147 0.29975,1.689665 0.312287,1.627805 0.317239,1.605889 0.336606,1.524593 0.340399,1.511733 0.363301,1.444085 0.37078,1.424599 0.397677,1.359931 0.407292,1.34122 0.438947,1.286315 0.451256,1.268526 0.484515,1.21627 0.497152,1.196288 0.528237,1.144455 0.542055,1.12343 0.572851,1.073272 0.588507,1.05259 0.613974,0.998856 0.629275,0.975479 0.656887,0.92652 0.671532,0.900513 0.704375,0.857957 0.722606,0.832759 0.757356,0.793571 0.778361,0.770158 0.803028,0.748608 0.842734,0.715983 0.869611,0.695229 0.908486,0.663545 0.934821,0.641037 0.973751,0.611418 1.004477,0.59105 1.04502,0.564091 1.076657,0.545743 1.099597,0.533955 1.129124,0.51976 1.181304,0.497649 1.208602,0.491443 1.263283,0.477585 1.29156,0.473774 1.346798,0.466456 1.374784,0.46401 1.430397,0.46086" style="fill: white" />
</svg>
