<svg width="12.953712" height="10.039674">
<polygon type="contour" points="4.42532,4.62855 4.448104,4.632223 4.508347,4.637366 4.532101,4.647167 4.59282,4.652501 4.619266,4.670537 4.676901,4.69425 4.732717,4.730325 4.75154,4.750794 4.767196,4.772532 4.842804,4.862168 4.859296,4.886346 4.895336,4.935284 4.910082,4.960878 4.942605,5.016463 4.956507,5.041492 4.990408,5.092498 5.005461,5.115818 5.037426,5.171126 5.053954,5.19199 5.087328,5.243815 5.105196,5.263492 5.143114,5.311291 5.163224,5.325871 5.183845,5.339943 5.225976,5.380237 5.247837,5.394269 5.29266,5.430393 5.314991,5.444494 5.358864,5.481119 5.404819,5.514128 5.427819,5.527765 5.450412,5.541951 5.497842,5.572642 5.546784,5.601622 5.570066,5.614842 5.617361,5.645921 5.640961,5.658777 5.690699,5.688578 5.713965,5.699933 5.762384,5.728099 5.787868,5.73911 5.838712,5.764323 5.862434,5.776801 5.911914,5.80155 5.939266,5.811719 5.98828,5.837809 6.01441,5.849255 6.063183,5.873308 6.090556,5.885857 6.142894,5.906697 6.169702,5.918241 6.219571,5.942004 6.246002,5.953456 6.297346,5.976946 6.324323,5.9875 6.371173,6.012044 6.400077,6.022957 6.451165,6.043839 6.480155,6.053571 6.531519,6.073539 6.559198,6.085032 6.606675,6.107156 6.637241,6.117964 6.686347,6.13896 6.714069,6.153051 6.760829,6.174914 6.788089,6.191121 6.814053,6.208592 6.859163,6.233586 6.884274,6.255545 6.92592,6.282592 6.948065,6.311473 6.985835,6.341306 7.040357,6.414388 7.05693,6.451202 7.058285,6.470759 7.088656,6.534471 7.085485,6.553563 7.103297,6.616955 7.099065,6.636351 7.105773,6.69886 7.107055,6.715642 7.103117,6.776233 7.046998,6.826735 7.01515,6.82412 6.964192,6.816024 6.899423,6.796883 6.876684,6.787326 6.836577,6.768634 6.781935,6.742277 6.747366,6.726327 6.681383,6.687906 6.593302,6.646525 6.589689,6.64471 6.588307,6.644283 6.478642,6.596407 6.45149,6.58658 6.393994,6.559448 6.367883,6.549667 6.310449,6.52848 6.284966,6.52131 6.227712,6.506254 6.201942,6.499813 6.144718,6.484263 6.119011,6.477851 6.061547,6.469762 6.036135,6.466028 5.978286,6.451886 5.952865,6.445851 5.894525,6.431068 5.869828,6.427222 5.811386,6.412836 5.786488,6.407274 5.727232,6.39301 5.703233,6.389029 5.644286,6.373948 5.62028,6.370533 5.559826,6.349929 5.535778,6.34303 5.476091,6.326078 5.453602,6.321466 5.39299,6.299386 5.369644,6.291808 5.309738,6.275014 5.287095,6.26935 5.225378,6.240015 5.203134,6.234315 5.14295,6.208811 5.121224,6.202671 5.059615,6.171467 5.037729,6.161118 4.977942,6.140482 4.957315,6.132297 4.936492,6.119762 4.867742,6.065915 4.845811,6.050865 4.783606,6.011414 4.763125,6.000186 4.700906,5.960287 4.680486,5.947453 4.617795,5.907063 4.59722,5.894595 4.533098,5.847823 4.513309,5.834673 4.465411,5.801329 4.438071,5.781562 4.373425,5.726316 4.32917,5.690233 4.31016,5.673295 4.259633,5.627368 4.213102,5.57791 4.179161,5.547107 4.133049,5.498635 4.10218,5.465976 4.057503,5.418593 4.030857,5.384981 4.004974,5.337811 3.97333,5.303385 3.950175,5.255381 3.926171,5.220922 3.918762,5.174653 3.907842,5.139249 3.903136,5.092779 3.894142,5.056735 3.896093,5.021381 3.906619,4.962406 3.913633,4.934483 3.936121,4.881019 3.941575,4.865581 3.952977,4.841348 3.987317,4.794538 4.003569,4.774351 4.0251,4.757647 4.065973,4.719331 4.121242,4.69184 4.170104,4.667067 4.23461,4.650158 4.262937,4.639759 4.288446,4.634136 4.342381,4.631671 4.402346,4.625867" style="fill: white" /><polygon type="contour" points="1.922149,6.751391 1.93315,6.752187 1.95112,6.758103 2.002286,6.775554 2.051559,6.827415 2.057688,6.834179 2.0606,6.837446 2.069344,6.846858 2.148395,6.924429 2.216124,7.013793 2.219127,7.017733 2.236162,7.056302 2.264331,7.120044 2.266441,7.124918 2.320917,7.218654 2.3303,7.244303 2.361627,7.322919 2.390632,7.398775 2.39959,7.428464 2.425401,7.516915 2.430014,7.536616 2.458202,7.632174 2.460949,7.643851 2.467075,7.683074 2.478155,7.757994 2.482921,7.783609 2.50109,7.868529 2.51138,7.912417 2.522849,7.979794 2.533682,8.067255 2.536582,8.095011 2.550122,8.177861 2.555042,8.207524 2.556652,8.215391 2.572225,8.323526 2.601207,8.433276 2.601765,8.435387 2.60179,8.435788 2.616516,8.517155 2.616707,8.518581 2.632099,8.59925 2.632379,8.601517 2.654001,8.683575 2.654062,8.684978 2.66615,8.766032 2.666319,8.767885 2.676358,8.849877 2.676348,8.851338 2.688252,8.933316 2.688271,8.934634 2.700098,9.017954 2.700121,9.019034 2.70241,9.10029 2.710938,9.184257 2.71095,9.185126 2.721033,9.268742 2.733732,9.35076 2.733822,9.35137 2.747134,9.433728 2.747221,9.434284 2.760734,9.515067 2.760799,9.516084 2.759627,9.600059 2.781371,9.684192 2.782855,9.705543 2.786893,9.765095 2.786937,9.766054 2.796471,9.863523 2.79709,9.865592 2.795759,9.875203 2.788598,9.883062 2.779048,9.933232 2.743102,9.945835 2.686569,9.970762 2.666363,9.968749 2.571049,9.939394 2.551766,9.932988 2.473298,9.879416 2.451721,9.86946 2.402775,9.81614 2.393142,9.804811 2.351484,9.733293 2.343128,9.72014 2.336525,9.706462 2.29786,9.634219 2.29165,9.620492 2.264277,9.552002 2.258899,9.538307 2.22596,9.468716 2.219657,9.455239 2.180279,9.38425 2.173862,9.370651 2.145826,9.302617 2.139607,9.289236 2.099211,9.218682 2.09404,9.205414 2.059876,9.135886 2.054819,9.122834 2.026659,9.054266 2.019438,9.041082 1.980282,8.969337 1.975284,8.956518 1.94099,8.886883 1.93517,8.87337 1.901336,8.803076 1.896679,8.790535 1.863022,8.720011 1.857469,8.7073 1.823112,8.63709 1.818363,8.62523 1.776444,8.553726 1.770902,8.541755 1.726902,8.471551 1.720456,8.460636 1.664427,8.39072 1.659105,8.381946 1.558586,8.304947 1.550401,8.295205 1.449825,8.217752 1.435798,8.204027 1.364142,8.133781 1.344608,8.118155 1.31006,8.05171 1.29652,8.038828 1.289435,7.970322 1.285023,7.959504 1.28857,7.884461 1.302012,7.815795 1.299917,7.801319 1.299985,7.786756 1.316269,7.718164 1.31798,7.703264 1.336508,7.635251 1.340192,7.620267 1.36364,7.551775 1.367378,7.535928 1.373803,7.513991 1.396033,7.459424 1.413282,7.403126 1.420523,7.385469 1.435127,7.342091 1.461019,7.290133 1.476372,7.26522 1.496597,7.205048 1.5225,7.157843 1.539365,7.112475 1.56279,7.068391 1.601939,7.005849 1.609933,6.9915 1.620865,6.975648 1.673729,6.908232 1.735807,6.83435 1.743131,6.826279 1.748232,6.820733 1.82197,6.762897 1.855418,6.744489" style="fill: white" />
</svg>
