<svg width="12.953712" height="10.039674">
<polygon type="contour" points="8.849569,1.015386 8.917862,1.020368 8.933175,1.023162 9.000565,1.031464 9.01573,1.035119 9.082589,1.040607 9.095343,1.043005 9.165505,1.059407 9.178683,1.063658 9.248668,1.081837 9.260718,1.085364 9.3322,1.109207 9.344486,1.11362 9.358936,1.119154 9.444145,1.153266 9.491514,1.176855 9.518958,1.190431 9.56538,1.214731 9.593018,1.229529 9.638971,1.253968 9.665306,1.270749 9.710998,1.294546 9.739064,1.310665 9.784044,1.335156 9.811991,1.35048 9.839931,1.367253 9.88324,1.393422 9.909121,1.414031 9.945213,1.450525 9.969878,1.470853 10.007243,1.507316 10.051226,1.534168 10.078084,1.551242 10.10624,1.568311 10.150984,1.591716 10.190846,1.617732 10.221395,1.63585 10.248444,1.658566 10.285324,1.689525 10.309204,1.712864 10.346096,1.747585 10.369514,1.773225 10.409747,1.800834 10.435232,1.82178 10.47776,1.849024 10.506188,1.867396 10.545197,1.898135 10.570921,1.920914 10.608458,1.952687 10.632864,1.976145 10.667778,2.012793 10.690877,2.038288 10.724708,2.074364 10.745519,2.100895 10.779637,2.143322 10.799052,2.170734 10.831075,2.215195 10.850496,2.241397 10.88363,2.286439 10.902438,2.312042 10.936691,2.357394 10.954213,2.38278 10.989666,2.428297 11.006856,2.454933 11.042784,2.49774 11.058547,2.519646 11.091187,2.573269 11.142897,2.681818 11.152971,2.700918 11.157951,2.713603 11.161219,2.72184 11.190347,2.797091 11.192638,2.804123 11.21816,2.881575 11.219692,2.888297 11.238198,2.964992 11.239175,2.971123 11.252919,3.0474 11.253859,3.052049 11.265997,3.130239 11.266476,3.133849 11.278004,3.21335 11.278404,3.216097 11.293955,3.297247 11.294438,3.300544 11.305009,3.380613 11.305348,3.383331 11.314575,3.463941 11.315002,3.466685 11.325773,3.550201 11.344205,3.630611 11.34441,3.632568 11.354771,3.713829 11.354946,3.715425 11.362727,3.797196 11.362827,3.799052 11.369447,3.880562 11.369682,3.883191 11.372942,3.963418 11.373071,3.965018 11.376805,4.047374 11.382853,4.129587 11.38244,4.211301 11.382422,4.212763 11.378107,4.292801 11.378011,4.295445 11.371052,4.376574 11.370931,4.378783 11.367316,4.462075 11.367269,4.541471 11.366932,4.54468 11.355517,4.623525 11.354859,4.627422 11.338333,4.707211 11.337556,4.71092 11.316508,4.788557 11.314829,4.79365 11.286784,4.871738 11.284598,4.877261 11.257304,4.948631 11.245308,4.970223 11.209868,5.037576 11.178518,5.102248 11.170019,5.114236 11.160801,5.135322 11.135726,5.178265 11.111254,5.248306 11.098116,5.278729 11.086162,5.306205 11.06564,5.345325 11.042548,5.400134 11.02155,5.443622 11.015071,5.460896 10.981977,5.52763 10.975061,5.544933 10.946823,5.598278 10.941441,5.608571 10.924921,5.634852 10.888043,5.685872 10.8468,5.739111 10.821864,5.772057 10.796048,5.8027 10.752504,5.851852 10.716774,5.887342 10.682486,5.920647 10.621029,5.968935 10.607385,5.97871 10.601177,5.983001 10.532652,6.028097 10.493739,6.057877 10.458942,6.083288 10.391586,6.136885 10.385216,6.141821 10.381977,6.144044 10.309709,6.191706 10.276073,6.210398 10.232401,6.233124 10.170656,6.271513 10.155665,6.279276 10.109831,6.303141 10.077143,6.318057 10.067516,6.323635 9.997527,6.351702 9.966085,6.370697 9.919337,6.391581 9.865058,6.41794 9.841142,6.429895 9.764905,6.468292 9.762942,6.469282 9.762317,6.469628 9.682629,6.499045 9.632936,6.52755 9.605137,6.54121 9.560397,6.564054 9.526296,6.578281 9.459308,6.611001 9.447956,6.616304 9.402968,6.63506 9.368197,6.647629 9.296066,6.660278 9.283209,6.662136 9.216319,6.671331 9.198374,6.672991 9.134882,6.676793 9.112478,6.679369 9.046639,6.67746 9.024024,6.676427 8.94313,6.658972 8.930741,6.658221 8.850807,6.649622 8.841656,6.647632 8.780606,6.634685 8.747545,6.628643 8.714041,6.624347 8.638282,6.614399 8.631681,6.612754 8.555352,6.622124 8.477464,6.647144 8.4713,6.647661 8.395254,6.669127 8.388374,6.670506 8.380832,6.671403 8.305434,6.692468 8.295311,6.694942 8.222425,6.705687 8.151167,6.717268 8.140145,6.720679 8.070302,6.734173 8.056275,6.737478 7.983634,6.748201 7.973297,6.750303 7.899825,6.765765 7.889647,6.767257 7.855518,6.77243 7.813664,6.778493 7.736135,6.783997 7.726874,6.785359 7.66268,6.796397 7.637768,6.800051 7.556566,6.824721 7.545219,6.825898 7.473159,6.834574 7.410309,6.827377 7.390158,6.829763 7.311214,6.826722 7.301648,6.830158 7.287853,6.834774 7.218736,6.849028 7.162546,6.858987 7.13512,6.863424 7.0827,6.869449 7.048292,6.871655 6.998515,6.876316 6.963486,6.881271 6.918862,6.882274 6.877156,6.880355 6.830021,6.879596 6.786958,6.872204 6.727063,6.861955 6.691683,6.850422 6.618279,6.83744 6.600982,6.837105 6.519416,6.826385 6.509509,6.827979 6.4374,6.830629 6.423843,6.831959 6.35496,6.837097 6.33787,6.838275 6.249684,6.836747 6.236625,6.836569 6.150448,6.845354 6.14195,6.845316 6.066739,6.855156 6.058866,6.855393 5.983654,6.864892 5.975534,6.865635 5.967451,6.864849 5.892377,6.865132 5.88441,6.864481 5.809088,6.858018 5.801239,6.857678 5.726148,6.854163 5.719159,6.853219 5.642411,6.847214 5.635516,6.846091 5.559309,6.835516 5.553183,6.833925 5.476134,6.813169 5.397104,6.792183 5.39337,6.790957 5.312782,6.768796 5.310518,6.768437 5.308269,6.767919 5.227405,6.746719 5.226197,6.746574 5.143346,6.728991 5.142497,6.728879 5.071661,6.710761 5.060149,6.707801 5.060009,6.707751 4.976272,6.685898 4.897719,6.670494 4.894506,6.669703 4.812362,6.646581 4.809984,6.646142 4.72702,6.630759 4.723362,6.630942 4.644664,6.620257 4.566845,6.61998 4.561532,6.620188 4.556302,6.620998 4.478478,6.631017 4.473434,6.631772 4.395284,6.641532 4.390339,6.642581 4.311956,6.659278 4.233483,6.662493 4.228832,6.662611 4.150001,6.663402 4.145409,6.663323 4.067118,6.662372 4.062161,6.661934 3.984807,6.658869 3.979158,6.658512 3.90144,6.651131 3.895736,6.649954 3.817108,6.644304 3.812069,6.64351 3.73557,6.63915 3.729199,6.638568 3.652494,6.628436 3.645677,6.627597 3.570002,6.6171 3.562557,6.61574 3.486079,6.598639 3.478104,6.596765 3.401515,6.570898 3.393192,6.568912 3.320234,6.539494 3.310101,6.535543 3.241911,6.502844 3.228722,6.499104 3.162012,6.470277 3.146667,6.465962 3.078391,6.452889 3.062703,6.45224 2.9967,6.450515 2.979837,6.449328 2.913306,6.442655 2.896188,6.440671 2.830417,6.432302 2.812662,6.429831 2.747984,6.419448 2.729202,6.414965 2.66501,6.391185 2.645382,6.383097 2.58359,6.358014 2.562588,6.348699 2.503159,6.316853 2.479422,6.301921 2.422459,6.263724 2.396041,6.244624 2.341954,6.207146 2.314751,6.190601 2.262377,6.163031 2.231019,6.144395 2.179412,6.118692 2.14753,6.101752 2.097931,6.076625 2.06408,6.058765 2.016913,6.033774 1.980963,6.01548 1.934619,5.992494 1.896871,5.973103 1.853732,5.953972 1.815543,5.936081 1.773869,5.914689 1.731794,5.887641 1.693014,5.856519 1.648301,5.822262 1.611482,5.789503 1.566321,5.756014 1.534722,5.737151 1.484492,5.704018 1.463056,5.685981 1.382165,5.615888 1.37024,5.604949 1.29492,5.535259 1.281184,5.521217 1.222259,5.458341 1.206621,5.441042 1.153534,5.378199 1.131763,5.357087 1.07432,5.295558 1.055089,5.27254 1.010513,5.216834 0.990674,5.191657 0.94919,5.138186 0.926356,5.110067 0.89908,5.060034 0.888854,5.027649 0.870754,4.976494 0.861145,4.944357 0.833429,4.894486 0.813714,4.859868 0.791783,4.812107 0.777515,4.776873 0.761703,4.730611 0.750363,4.692714 0.738707,4.64767 0.730349,4.609276 0.716204,4.564412 0.703886,4.524859 0.688265,4.481586 0.672848,4.441579 0.660816,4.400309 0.640789,4.358855 0.622488,4.317755 0.604697,4.276409 0.593186,4.238727 0.577397,4.193786 0.565276,4.15618 0.549878,4.110178 0.544957,4.073824 0.538255,4.027577 0.530638,3.99204 0.524271,3.944587 0.520043,3.909937 0.51466,3.861605 0.510896,3.827455 0.506075,3.778537 0.504209,3.728927 0.504092,3.695534 0.500914,3.646056 0.503705,3.612536 0.508759,3.562618 0.50997,3.529682 0.51535,3.480005 0.520434,3.446924 0.52756,3.398206 0.534522,3.364119 0.546016,3.315487 0.557062,3.281064 0.573876,3.232229 0.583744,3.198131 0.600566,3.15011 0.61347,3.114975 0.629988,3.067619 0.642597,3.031628 0.655207,2.995357 0.678168,2.934823 0.702115,2.877325 0.709216,2.863182 0.738359,2.798682 0.747085,2.783379 0.781599,2.727078 0.791857,2.710368 0.826967,2.656372 0.839088,2.639724 0.87561,2.590745 0.889392,2.572712 0.926158,2.525814 0.9413,2.506847 0.97955,2.464613 0.996287,2.444624 1.033937,2.402004 1.05207,2.382646 1.071596,2.363263 1.110754,2.32381 1.131505,2.303858 1.171988,2.267247 1.207006,2.227655 1.229777,2.207456 1.251947,2.184949 1.290053,2.150121 1.313515,2.126557 1.349288,2.091708 1.373794,2.067506 1.408607,2.033417 1.433819,2.008275 1.466796,1.974186 1.494995,1.949761 1.529439,1.919051 1.562054,1.896912 1.595009,1.867064 1.627731,1.845925 1.665864,1.821268 1.736889,1.78348 1.761614,1.770741 1.775651,1.765472 1.845583,1.730405 1.857984,1.727186 1.927013,1.695226 1.937149,1.691723 2.012068,1.657677 2.021152,1.654268 2.095209,1.624892 2.102757,1.620975 2.179307,1.583961 2.185387,1.581195 2.26286,1.541964 2.267551,1.540126 2.345442,1.507506 2.348248,1.506517 2.42929,1.47666 2.431182,1.476188 2.512568,1.456331 2.513849,1.456002 2.595367,1.442902 2.59545,1.442888 2.609711,1.440926 2.677983,1.431549 2.678375,1.431525 2.76086,1.421669 2.76161,1.421578 2.843876,1.411363 2.84506,1.411274 2.925814,1.398907 2.927852,1.398543 3.008701,1.388677 3.011128,1.388292 3.093241,1.382858 3.094687,1.382709 3.096133,1.382693 3.177721,1.392186 3.181281,1.392591 3.260911,1.396582 3.26349,1.397156 3.343133,1.41297 3.34353,1.413139 3.42794,1.448514 3.458305,1.454581 3.510251,1.464929 3.593128,1.461748 3.59346,1.461796 3.675734,1.463557 3.676639,1.463707 3.759894,1.47222 3.760438,1.47208 3.842432,1.481663 3.926038,1.462272 3.976162,1.443821 4.009143,1.431595 4.009586,1.431534 4.090301,1.41516 4.092473,1.414904 4.09467,1.414842 4.176035,1.414163 4.178256,1.414244 4.259955,1.426065 4.261491,1.426571 4.32188,1.445656 4.341658,1.45187 4.342153,1.452098 4.426814,1.498678 4.511342,1.53238 4.595134,1.543768 4.671394,1.538366 4.675026,1.538793 4.757375,1.535658 4.841456,1.518802 4.844678,1.517978 4.923995,1.504868 4.926042,1.504336 5.008769,1.484296 5.091441,1.45422 5.092301,1.453906 5.125323,1.443805 5.173476,1.429109 5.25543,1.399059 5.257452,1.398493 5.338406,1.397984 5.340527,1.397796 5.425419,1.390735 5.505713,1.369731 5.507948,1.369397 5.586388,1.347783 5.590383,1.346124 5.672221,1.336102 5.750036,1.310976 5.756257,1.309998 5.833823,1.283516 5.840263,1.281812 5.916872,1.274074 5.923477,1.273002 5.997756,1.259157 6.006164,1.258317 6.014685,1.257646 6.089519,1.26138 6.097034,1.263587 6.172869,1.281816 6.17952,1.283871 6.255779,1.286052 6.332237,1.276855 6.338997,1.27706 6.345821,1.275854 6.422199,1.262517 6.498423,1.266304 6.505929,1.265337 6.513244,1.264497 6.588363,1.286227 6.595562,1.288049 6.611845,1.289313 6.681103,1.285512 6.704881,1.278663 6.770583,1.265607 6.837719,1.251255 6.862757,1.252309 6.910154,1.255235 6.922002,1.255523 6.929688,1.255463 7.004427,1.25702 7.012878,1.257337 7.087807,1.259094 7.163557,1.253736 7.171404,1.253305 7.186906,1.255411 7.249864,1.255885 7.311205,1.254609 7.350933,1.247365 7.406035,1.249864 7.429343,1.249064 7.463247,1.242394 7.531889,1.240715 7.580144,1.238622 7.641096,1.236739 7.67031,1.233429 7.706417,1.230945 7.779162,1.223152 7.838903,1.217215 7.84421,1.216219 7.845991,1.216137 7.919399,1.224291 7.927097,1.225062 8.002033,1.235783 8.009104,1.234922 8.086757,1.248923 8.164893,1.252098 8.249815,1.225943 8.255121,1.224247 8.335183,1.186106 8.340197,1.183144 8.423807,1.149041 8.426636,1.147227 8.498416,1.116338 8.506661,1.112968 8.577212,1.089609 8.588243,1.086329 8.659874,1.060812 8.67137,1.057767 8.742699,1.032982 8.754125,1.02994 8.822084,1.016957 8.835787,1.015073" style="fill: white" />
</svg>
