<svg width="12.953712" height="10.039674">
<polygon type="contour" points="8.115738,0.282551 8.169352,0.28828 8.199855,0.295761 8.252117,0.309756 8.28771,0.31558 8.335842,0.323802 8.368,0.344392 8.413805,0.368283 8.450023,0.385612 8.493059,0.404068 8.532813,0.419563 8.587155,0.439026 8.620408,0.465744 8.653254,0.478799 8.689449,0.503116 8.730065,0.513466 8.769473,0.531814 8.815048,0.552876 8.849218,0.572797 8.88354,0.600353 8.913089,0.627331 8.947761,0.646114 8.982616,0.673037 9.019448,0.696489 9.054827,0.714134 9.096861,0.732978 9.133548,0.746617 9.177425,0.765242 9.213908,0.777447 9.263739,0.790522 9.296641,0.803142 9.35136,0.813561 9.384122,0.823668 9.442312,0.831601 9.474644,0.837213 9.531147,0.853366 9.558137,0.862231 9.608942,0.888053 9.634447,0.897936 9.655853,0.91304 9.698025,0.95293 9.718274,0.971081 9.761652,1.007132 9.780726,1.027039 9.820706,1.068626 9.841006,1.087822 9.879935,1.129228 9.903783,1.144398 9.945324,1.180872 9.997109,1.204748 10.021792,1.216354 10.073374,1.241424 10.098259,1.252171 10.119979,1.266477 10.167312,1.298744 10.186566,1.319603 10.224286,1.362473 10.242411,1.383051 10.282933,1.424155 10.328934,1.455977 10.35009,1.47329 10.399771,1.502486 10.42203,1.516116 10.473634,1.542878 10.496606,1.554145 10.549398,1.579458 10.573591,1.588796 10.622313,1.621085 10.643155,1.634481 10.661275,1.65162 10.703792,1.693531 10.722099,1.712873 10.762178,1.753931 10.779682,1.77322 10.818229,1.819982 10.835713,1.84285 10.871082,1.8897 10.889292,1.913825 10.920008,1.967272 10.93735,1.997231 10.965202,2.046499 10.982432,2.082877 11.009618,2.130004 11.030344,2.164837 11.057539,2.208091 11.079283,2.246963 11.108769,2.280187 11.137346,2.312545 11.170279,2.337783 11.250452,2.383379 11.328809,2.365867 11.331499,2.364786 11.408491,2.340694 11.413724,2.339432 11.490716,2.31467 11.496386,2.313146 11.571678,2.292119 11.579301,2.290379 11.655836,2.274319 11.663427,2.273489 11.670993,2.274373 11.746984,2.274008 11.754552,2.27578 11.830755,2.283574 11.836975,2.28652 11.914142,2.308617 11.994507,2.337409 11.997146,2.338645 12.034501,2.352645 12.068278,2.365892 12.071206,2.366808 12.135554,2.39419 12.141226,2.396696 12.144609,2.398244 12.213279,2.433567 12.280147,2.47332 12.284589,2.475678 12.35018,2.519003 12.354066,2.521559 12.357776,2.524328 12.417491,2.576767 12.421215,2.580408 12.475326,2.639847 12.479432,2.644391 12.526036,2.714516 12.531515,2.721466 12.577425,2.785687 12.583559,2.793964 12.630819,2.855599 12.637611,2.865211 12.682968,2.926183 12.690321,2.938053 12.734695,2.997698 12.742265,3.011294 12.780189,3.076491 12.799471,3.121384 12.803008,3.130611 12.829928,3.204449 12.832647,3.213483 12.847148,3.286383 12.849417,3.295429 12.870319,3.37365 12.871935,3.380302 12.88487,3.456262 12.88653,3.462695 12.902106,3.541693 12.903151,3.546721 12.911186,3.625962 12.911615,3.63019 12.916236,3.708189 12.916663,3.712969 12.924472,3.792718 12.924877,3.796738 12.932452,3.876782 12.932594,3.879983 12.932601,3.883198 12.924874,3.963491 12.924643,3.967775 12.913889,4.047017 12.912755,4.051954 12.899836,4.129629 12.898566,4.134865 12.879562,4.212679 12.877827,4.219302 12.853712,4.296672 12.850751,4.305453 12.82983,4.379132 12.826326,4.389081 12.801656,4.462642 12.795708,4.475201 12.76875,4.545183 12.761011,4.55938 12.724636,4.625938 12.711881,4.643326 12.667148,4.709781 12.647068,4.732964 12.604504,4.795201 12.562727,4.849047 12.540213,4.878107 12.50355,4.93009 12.492474,4.94699 12.439693,5.020818 12.425182,5.037603 12.42095,5.041065 12.410969,5.05107 12.3416,5.111753 12.30676,5.136993 12.281076,5.153884 12.212992,5.194816 12.206975,5.198336 12.201895,5.200908 12.135082,5.226978 12.098516,5.236584 12.061645,5.25128 12.023648,5.261857 11.97594,5.271059 11.930274,5.273055 11.874839,5.282242 11.826073,5.280963 11.787093,5.284487 11.738648,5.280968 11.698304,5.279398 11.643073,5.271145 11.606749,5.266976 11.543809,5.256895 11.516394,5.253934 11.445895,5.242654 11.420548,5.237373 11.356455,5.240974 11.334104,5.240089 11.273716,5.243203 11.239139,5.245186 11.203864,5.278562 11.177088,5.293282 11.153492,5.340579 11.123966,5.37025 11.108249,5.410103 11.090097,5.45241 11.077925,5.492241 11.063071,5.536234 11.046751,5.578378 11.030683,5.618517 11.009869,5.663386 10.98583,5.70277 10.945953,5.755487 10.923458,5.788103 10.894457,5.840208 10.878485,5.868489 10.82526,5.929625 10.809255,5.953402 10.762601,6.016068 10.745462,6.036903 10.70084,6.099307 10.68621,6.116982 10.629269,6.190895 10.617262,6.202091 10.557359,6.270643 10.545836,6.281056 10.48316,6.349882 10.476557,6.357129 10.418396,6.402873 10.345398,6.457735 10.334576,6.466941 10.280126,6.539593 10.26966,6.553365 10.223616,6.621636 10.211546,6.63763 10.160507,6.70436 10.141813,6.723233 10.082598,6.789689 10.046564,6.818942 9.986175,6.874585 9.929709,6.931761 9.902008,6.954452 9.885692,6.966112 9.831203,7.005064 9.798426,7.022597 9.73514,7.057767 9.715047,7.065496 9.654955,7.088294 9.636351,7.096769 9.568278,7.123454 9.502277,7.144489 9.486793,7.150981 9.416933,7.17519 9.40265,7.180375 9.333047,7.199835 9.320321,7.203746 9.246092,7.234555 9.234765,7.239426 9.162623,7.263008 9.153254,7.266849 9.078394,7.285246 9.069746,7.287563 8.994081,7.306967 8.986609,7.308209 8.909864,7.328076 8.903349,7.329589 8.823819,7.354284 8.818929,7.355849 8.739578,7.376703 8.735836,7.377799 8.655211,7.397085 8.65271,7.39796 8.574703,7.408303 8.571411,7.409116 8.489535,7.424796 8.487338,7.42526 8.403809,7.443273 8.323107,7.469542 8.308848,7.477879 8.239011,7.519251 8.236321,7.52108 8.153033,7.585365 8.14571,7.587533 8.071508,7.62005 8.063282,7.621549 7.987485,7.638417 7.978082,7.639578 7.904201,7.649984 7.894512,7.650552 7.820197,7.658812 7.810224,7.660175 7.736804,7.682947 7.724762,7.686286 7.654491,7.699177 7.642574,7.701785 7.570399,7.715836 7.556616,7.720518 7.487884,7.749441 7.473039,7.752636 7.40407,7.767075 7.336651,7.765735 7.320689,7.764551 7.252172,7.758866 7.237607,7.757602 7.223013,7.758825 7.154795,7.751969 7.141412,7.75383 7.071516,7.760891 7.057209,7.764379 6.988793,7.782077 6.973218,7.786984 6.904647,7.815957 6.886254,7.822686 6.821911,7.850514 6.803189,7.856421 6.738263,7.871542 6.718211,7.873263 6.654156,7.869208 6.590692,7.864467 6.571376,7.863147 6.506549,7.854047 6.487945,7.850944 6.421462,7.835644 6.404343,7.829423 6.335998,7.80383 6.321136,7.796834 6.251522,7.769349 6.238707,7.764469 6.162643,7.723009 6.153789,7.718011 6.078725,7.677512 6.072258,7.674002 5.993019,7.624824 5.989681,7.622933 5.925137,7.577522 5.905728,7.563794 5.902883,7.561714 5.824136,7.503917 5.771867,7.46326 5.725844,7.42322 5.690313,7.377687 5.661487,7.341924 5.624729,7.291215 5.602653,7.256884 5.582111,7.203684 5.571617,7.173787 5.544657,7.116823 5.53486,7.089844 5.506834,7.030069 5.498145,7.006268 5.47565,6.944344 5.472442,6.92302 5.456556,6.860024 5.446579,6.839868 5.430514,6.774749 5.424311,6.756399 5.401256,6.688441 5.395549,6.672884 5.368303,6.609891 5.363555,6.590696 5.339848,6.517754 5.335405,6.506567 5.306366,6.433449 5.30257,6.424206 5.264482,6.347364 5.261356,6.340919 5.244246,6.261203 5.243375,6.256628 5.223648,6.17647 5.222958,6.173663 5.192323,6.090651 5.191826,6.090236 5.185838,6.038738 5.181917,6.006727 5.141366,5.93999 5.077215,5.91648 5.056443,5.911402 4.99449,5.881587 4.97116,5.878787 4.911254,5.871559 4.88715,5.865772 4.828038,5.865734 4.768947,5.872951 4.744887,5.875848 4.720667,5.868845 4.66168,5.859063 4.601239,5.870552 4.577929,5.87239 4.517146,5.880011 4.494447,5.882679 4.432021,5.902905 4.411191,5.907616 4.348581,5.915728 4.328225,5.919691 4.265795,5.922281 4.245702,5.925515 4.183612,5.925399 4.163082,5.925715 4.141649,5.921459 4.080231,5.907638 4.057021,5.902635 3.998007,5.900285 3.974432,5.894891 3.91416,5.882922 3.888693,5.876384 3.830984,5.855908 3.803435,5.84143 3.748525,5.807414 3.716907,5.784194 3.666053,5.74535 3.631279,5.722896 3.583092,5.688452 3.542948,5.66035 3.499233,5.629015 3.455259,5.596977 3.416934,5.567518 3.368745,5.506833 3.356559,5.494474 3.332544,5.462297 3.282708,5.378246 3.266153,5.349535 3.248679,5.317232 3.221879,5.260942 3.207529,5.220612 3.191513,5.178786 3.179955,5.138302 3.143446,5.083512 3.131503,5.045746 3.096749,5.026475 3.081504,4.994556 3.075488,4.947056 3.056769,4.921333 3.047101,4.902719 3.033835,4.864338 3.021169,4.8451 2.959704,4.734297 2.942944,4.721391 2.93199,4.699536 2.862658,4.585852 2.775715,4.503831 2.737593,4.461384 2.697182,4.405735 2.65031,4.329214 2.615361,4.24449 2.593163,4.190844 2.556858,4.103217 2.529139,4.054149 2.487597,3.953098 2.472296,3.915813 2.449525,3.83007 2.446441,3.771543 2.451557,3.741832 2.457909,3.713355 2.474593,3.672198 2.51041,3.615903 2.512422,3.608266 2.535829,3.543483 2.562103,3.516242 2.61902,3.447941 2.624136,3.443637 2.630351,3.434358 2.667272,3.386025 2.684257,3.364821 2.720715,3.34136 2.75582,3.315843 2.771846,3.296185 2.809965,3.249524 2.817668,3.241071 2.822098,3.237993 2.889505,3.192514 2.914027,3.180188 2.963471,3.148702 3.015252,3.104254 3.036032,3.089891 3.038446,3.071226 3.051053,3.032863 3.08403,3.016293 3.25417,2.943384 3.265551,2.93596 3.325686,2.890029 3.334812,2.885593 3.393643,2.84038 3.450921,2.773601 3.467871,2.681519 3.469544,2.680671 3.488051,2.630051 3.499755,2.59477 3.500116,2.593192 3.524341,2.501697 3.526394,2.494767 3.558085,2.419362 3.561815,2.41052 3.593769,2.338493 3.599413,2.32643 3.631218,2.258246 3.638603,2.242833 3.671098,2.179338 3.681086,2.161571 3.713813,2.104909 3.726248,2.085421 3.762702,2.036082 3.777735,2.016383 3.813816,1.969197 3.830425,1.948082 3.865935,1.903156 3.885152,1.881881 3.920344,1.839297 3.940256,1.815777 3.975925,1.776626 3.998888,1.754382 4.036098,1.718491 4.078115,1.68691 4.105498,1.667695 4.147984,1.638618 4.176812,1.620482 4.215447,1.598494 4.257457,1.571742 4.311676,1.553391 4.341703,1.542216 4.395802,1.534453 4.42466,1.526517 4.480309,1.521165 4.508305,1.517133 4.564465,1.512124 4.59188,1.507563 4.619011,1.508605 4.67557,1.509982 4.703958,1.514555 4.758433,1.525487 4.78686,1.53322 4.841408,1.553584 4.871678,1.564831 4.925354,1.581724 4.959409,1.600964 5.009263,1.619134 5.044991,1.642213 5.092496,1.665075 5.130451,1.680465 5.173869,1.700378 5.214346,1.719946 5.25567,1.740066 5.298471,1.756456 5.34035,1.773142 5.385406,1.788565 5.423806,1.806113 5.470443,1.813777 5.506972,1.817675 5.544078,1.798979 5.589754,1.781498 5.62609,1.742345 5.664669,1.695651 5.700338,1.647268 5.71577,1.627491 5.751225,1.577208 5.76397,1.558944 5.799787,1.504333 5.811004,1.487549 5.850439,1.434671 5.861329,1.42076 5.901705,1.366233 5.911411,1.353939 5.9511,1.293508 5.958481,1.282384 5.998202,1.218844 6.004069,1.210337 6.045294,1.144315 6.049355,1.13734 6.093324,1.069695 6.095974,1.065737 6.144429,1.001088 6.146075,0.998858 6.192501,0.927305 6.192537,0.927249 6.19254,0.927246 6.238413,0.857336 6.239459,0.855943 6.283797,0.785009 6.2866,0.781509 6.333808,0.717436 6.383555,0.660848 6.389837,0.655589 6.40418,0.647254 6.505687,0.57785 6.540469,0.570326 6.588798,0.553003 6.623687,0.54765 6.712277,0.508033 6.776885,0.454065 6.78158,0.450146 6.837359,0.417184 6.884986,0.405085 6.922459,0.392854 6.96748,0.372503 7.004038,0.352675 7.055593,0.321607 7.087224,0.309101 7.140676,0.296942 7.170571,0.294694 7.221098,0.297514 7.254072,0.294826 7.285403,0.291986 7.337558,0.295853 7.369894,0.30026 7.420756,0.302689 7.453342,0.317769 7.503749,0.344771 7.537887,0.359022 7.586854,0.373092 7.636962,0.36876 7.671863,0.348607 7.722163,0.332357 7.753293,0.317048 7.806899,0.296653 7.836577,0.290757 7.890226,0.286434 7.919828,0.287174 7.974264,0.282654 8.002829,0.281571 8.05665,0.279311 8.086176,0.278068" style="fill: white" />
</svg>
