<svg width="12.953712" height="10.039674">
<polygon type="contour" points="1.885925,0.441676 1.92975,0.444033 1.97383,0.452879 2.013674,0.461643 2.057635,0.469072 2.097005,0.47791 2.180331,0.510728 2.213923,0.524294 2.230167,0.534263 2.283895,0.567756 2.299136,0.57916 2.350957,0.61565 2.394487,0.665161 2.406657,0.680197 2.44677,0.736461 2.458076,0.751877 2.496374,0.810631 2.505554,0.827273 2.539924,0.894202 2.547499,0.909755 2.581689,0.97812 2.588525,0.993391 2.615728,1.077599 2.620276,1.09232 2.655483,1.170765 2.660262,1.182909 2.695531,1.270392 2.699112,1.278783 2.741984,1.354592 2.745637,1.361479 2.800779,1.433951 2.866078,1.486971 2.938929,1.527078 2.943815,1.529374 3.00945,1.571747 3.014011,1.573944 3.088295,1.603372 3.09406,1.606457 3.158496,1.647924 3.216912,1.698907 3.221939,1.702173 3.27909,1.754736 3.283683,1.758686 3.338937,1.817026 3.342216,1.820801 3.397707,1.880709 3.400219,1.883885 3.457958,1.938732 3.460896,1.941568 3.517393,2.001652 3.519479,2.003968 3.578106,2.059622 3.580356,2.061751 3.639991,2.116819 3.642012,2.118865 3.702837,2.17323 3.70456,2.174467 3.763505,2.234563 3.764476,2.235286 3.813938,2.31208 3.814475,2.312472 3.821068,2.325676 3.858013,2.397666 3.911298,2.46633 4.011467,2.509123 4.067928,2.506357 4.092792,2.514454 4.149289,2.495773 4.204345,2.485306 4.262036,2.477337 4.287714,2.470946 4.344566,2.455905 4.364013,2.449088 4.424978,2.434876 4.447105,2.425464 4.508654,2.414804 4.531306,2.406738 4.591116,2.400029 4.611836,2.395588 4.674752,2.387305 4.695554,2.385734 4.758334,2.378838 4.819296,2.381985 4.841394,2.385434 4.90289,2.391496 4.928244,2.397488 4.964218,2.407483 5.004362,2.415337 5.042643,2.425056 5.111111,2.450955 5.159034,2.469703 5.202735,2.484741 5.219995,2.487851 5.3487,2.521617 5.411777,2.511184 5.433618,2.508959 5.504273,2.493809 5.515541,2.490752 5.58996,2.456196 5.60758,2.447034 5.676568,2.417926 5.687428,2.410014 5.721302,2.392936 5.759313,2.376057 5.857719,2.316576 5.919745,2.282487 5.934331,2.272668 6.002759,2.235557 6.01535,2.228345 6.088492,2.181841 6.102616,2.172261 6.172732,2.129791 6.186718,2.120964 6.255199,2.080202 6.265751,2.076352 6.33864,2.043625 6.350164,2.038211 6.421937,2.008955 6.431568,2.004427 6.508283,1.968174 6.518442,1.963184 6.58822,1.926012 6.594763,1.92216 6.672041,1.893757 6.678079,1.891195 6.754473,1.866627 6.7584,1.86514 6.838846,1.840364 6.843894,1.838967 6.922318,1.821341 6.92798,1.819681 7.005033,1.806003 7.008761,1.805702 7.088466,1.798544 7.09314,1.79761 7.171538,1.785258 7.25213,1.771508 7.255466,1.771405 7.338176,1.75794 7.342185,1.757233 7.421713,1.749154 7.426087,1.748496 7.504299,1.743715 7.507023,1.7432 7.587228,1.740212 7.588853,1.740093 7.670446,1.733254 7.673159,1.732998 7.753506,1.721279 7.835249,1.718768 7.836353,1.718878 7.914808,1.727349 7.919014,1.728239 8.000208,1.751692 8.002457,1.752216 8.082829,1.772843 8.085748,1.773613 8.162728,1.790371 8.16839,1.791872 8.246919,1.817228 8.251588,1.818269 8.332239,1.839414 8.418646,1.829388 8.423796,1.828673 8.501657,1.828264 8.580596,1.836033 8.585039,1.836235 8.663688,1.855614 8.668379,1.856324 8.673735,1.857838 8.740126,1.87725 8.775545,1.890664 8.822271,1.905684 8.898411,1.931183 8.911696,1.935705 8.925012,1.938722 8.997508,1.951457 9.007827,1.954603 9.079005,1.967389 9.090787,1.972799 9.161682,1.998669 9.173415,2.003701 9.242243,2.025304 9.265888,2.032725 9.334238,2.048766 9.40273,2.065452 9.444586,2.073891 9.500566,2.091401 9.52476,2.099578 9.579237,2.123395 9.599773,2.134022 9.650996,2.166442 9.666722,2.17641 9.712092,2.209806 9.755063,2.242468 9.766338,2.251533 9.783378,2.266576 9.831627,2.312177 9.856565,2.334017 9.891892,2.372144 9.906312,2.387825 9.918694,2.403683 9.978467,2.480407 10.046488,2.558692 10.056106,2.571216 10.073702,2.594419 10.128514,2.66212 10.157822,2.701695 10.199064,2.75495 10.254777,2.839558 10.261769,2.850668 10.303648,2.942693 10.307778,2.951946 10.308707,2.956529 10.328001,3.063023 10.332476,3.095228 10.342926,3.176113 10.351589,3.252782 10.355954,3.289813 10.36647,3.381881 10.368936,3.4035 10.369757,3.412587 10.37843,3.51824 10.384277,3.580234 10.387633,3.633437 10.393339,3.729202 10.394283,3.749697 10.39464,3.762932 10.39566,3.869005 10.3972,3.968338 10.397959,3.985873 10.396688,4.008363 10.389921,4.10834 10.385002,4.211392 10.384112,4.22766 10.382363,4.241234 10.364842,4.354708 10.350306,4.424855 10.336722,4.484067 10.307291,4.580043 10.295629,4.616867 10.26242,4.730102 10.25468,4.749835 10.207732,4.854452 10.186987,4.896787 10.149718,4.969384 10.110725,5.044862 10.091702,5.076471 10.05326,5.143895 10.038879,5.165402 10.030317,5.175594 9.993012,5.219047 9.962433,5.254644 9.947167,5.27264 9.916545,5.309819 9.901501,5.326257 9.894767,5.33488 9.853236,5.378282 9.824482,5.4045 9.802041,5.423653 9.753893,5.474326 9.753259,5.474921 9.751484,5.476358 9.699866,5.519363 9.680659,5.532353 9.644454,5.560679 9.606924,5.589121 9.589362,5.602852 9.530413,5.634428 9.527546,5.635959 9.516319,5.642434 9.466254,5.671626 9.453264,5.678642 9.430688,5.693031 9.37514,5.718342 9.349662,5.748515 9.306691,5.79636 9.302608,5.800239 9.288871,5.809997 9.244862,5.839228 9.231588,5.84768 9.208042,5.860935 9.154777,5.891129 9.12476,5.910127 9.078829,5.938946 9.010626,5.97556 9.001293,5.980148 8.998483,5.981408 8.922074,6.014852 8.89829,6.025237 8.841531,6.044718 8.800693,6.059321 8.761761,6.075175 8.733529,6.08356 8.678883,6.094719 8.656939,6.097696 8.591622,6.100401 8.571948,6.101898 8.506053,6.106809 8.488802,6.107098 8.415895,6.104696 8.395996,6.10241 8.329902,6.099045 8.306642,6.095529 8.240094,6.099155 8.173584,6.096233 8.150373,6.091876 8.087734,6.078341 8.055924,6.073939 8.002128,6.070487 7.964228,6.059288 7.919257,6.045302 7.870384,6.035073 7.836342,6.028629 7.778213,6.019233 7.752269,6.013533 7.688855,6.01093 7.665636,6.007882 7.599696,6.007261 7.5332,6.006032 7.511471,6.005802 7.450647,6.012636 7.426152,6.017057 7.376059,6.029136 7.344004,6.036597 7.299159,6.043328 7.257058,6.043893 7.206547,6.038124 7.166873,6.037513 7.128439,6.035432 7.076601,6.026508 7.04401,6.023263 6.985927,6.011771 6.959555,6.006377 6.892488,5.998487 6.873096,5.994481 6.797694,5.969054 6.792286,5.967566 6.763996,5.957815 6.712508,5.937276 6.700987,5.932149 6.633315,5.898639 6.598996,5.878879 6.557483,5.863761 6.503096,5.837418 6.479814,5.827792 6.404844,5.801522 6.397351,5.79847 6.315919,5.79632 6.310158,5.795621 6.23019,5.809067 6.216725,5.810628 6.14525,5.819967 6.125198,5.825299 6.061125,5.835317 6.033912,5.835155 5.972655,5.833492 5.946569,5.829829 5.880443,5.818045 5.862258,5.816328 5.784949,5.787956 5.781075,5.78671 5.749661,5.779834 5.698708,5.768274 5.692456,5.766903 5.614621,5.751741 5.600449,5.751974 5.527527,5.749383 5.512213,5.749223 5.440411,5.745817 5.422841,5.743277 5.354844,5.731934 5.330532,5.727539 5.264828,5.738505 5.245062,5.737741 5.175407,5.746345 5.161393,5.750805 5.082978,5.757144 5.074699,5.759896 5.020832,5.774492 4.992764,5.781906 4.988669,5.783069 4.913026,5.813389 4.889744,5.824952 4.836407,5.858721 4.788105,5.87587 4.75623,5.8897 4.734714,5.898151 4.67293,5.910249 4.593995,5.940064 4.592276,5.94068 4.59097,5.941001 4.583922,5.943615 4.511639,5.969636 4.449026,5.984497 4.428672,5.989987 4.374051,6.000826 4.345474,6.007522 4.295963,6.013124 4.261151,6.021328 4.218455,6.026214 4.175446,6.029796 4.133277,6.029264 4.086996,6.029807 4.045237,6.02931 3.998651,6.027599 3.955239,6.025331 3.908608,6.020902 3.857977,6.014118 3.81895,6.010883 3.763018,6.003792 3.727189,5.998698 3.657403,5.980065 3.63402,5.975958 3.536286,5.939438 3.512311,5.93493 3.444469,5.921229 3.370747,5.890455 3.347104,5.882487 3.290205,5.865325 3.250946,5.849404 3.210149,5.829039 3.151304,5.804874 3.066845,5.777129 3.057257,5.773154 3.025596,5.759668 2.956245,5.732074 2.939655,5.728569 2.859653,5.704786 2.822357,5.695018 2.810693,5.69409 2.743096,5.67101 2.728531,5.669865 2.660204,5.652386 2.645132,5.650083 2.576842,5.634034 2.56146,5.632715 2.546235,5.633973 2.478156,5.625787 2.411481,5.628471 2.395477,5.628953 2.32793,5.62921 2.312325,5.629694 2.296884,5.630646 2.228826,5.62594 2.161711,5.622748 2.146242,5.622789 2.130677,5.621025 2.063163,5.613861 2.04679,5.610692 1.980138,5.601948 1.96355,5.599464 1.897884,5.589329 1.880588,5.585326 1.814091,5.571004 1.796116,5.566097 1.730715,5.551285 1.711842,5.546119 1.647701,5.530519 1.627902,5.52553 1.564676,5.501822 1.543406,5.494133 1.482263,5.469606 1.459523,5.458999 1.400445,5.433283 1.377485,5.420577 1.317722,5.3823 1.292625,5.365327 1.234968,5.318837 1.208266,5.303548 1.150678,5.267615 1.121231,5.253292 1.066443,5.225297 1.035019,5.210757 0.982492,5.182909 0.950661,5.169892 0.900838,5.147377 0.869338,5.133191 0.817315,5.096025 0.731291,5.042325 0.725316,5.038385 0.646587,4.960874 0.637926,4.952358 0.630498,4.94475 0.580174,4.868642 0.57346,4.858953 0.531436,4.784288 0.520707,4.771621 0.474939,4.698511 0.465927,4.685837 0.430384,4.617538 0.422732,4.604257 0.384169,4.534066 0.376424,4.51929 0.352454,4.451021 0.322827,4.383052 0.315622,4.367182 0.27872,4.300789 0.269097,4.283687 0.23783,4.219185 0.229424,4.201558 0.198516,4.137507 0.191961,4.119131 0.185866,4.100158 0.158351,4.035196 0.15391,4.015273 0.133784,3.95182 0.12903,3.931138 0.108832,3.868344 0.104051,3.846817 0.094378,3.785891 0.089429,3.76396 0.071687,3.702248 0.067037,3.679213 0.058424,3.619397 0.055527,3.596181 0.048209,3.536314 0.04604,3.512618 0.044189,3.453471 0.042547,3.394165 0.043386,3.370425 0.043361,3.346798 0.040409,3.286974 0.044785,3.227858 0.046863,3.203655 0.047835,3.17936 0.048481,3.120368 0.054577,3.06185 0.057452,3.037128 0.062452,2.978093 0.067297,2.953358 0.07712,2.895663 0.081686,2.870937 0.104059,2.811229 0.113534,2.786165 0.137144,2.728655 0.150245,2.703842 0.177115,2.645061 0.186233,2.621047 0.203996,2.561544 0.209809,2.53766 0.209561,2.513625 0.213388,2.454988 0.206495,2.429239 0.201181,2.371462 0.194462,2.345891 0.180916,2.288373 0.175013,2.261812 0.166481,2.205608 0.160989,2.178455 0.150195,2.122015 0.147072,2.094458 0.141434,2.038808 0.138833,2.0105 0.136367,1.955911 0.135712,1.927576 0.13109,1.872522 0.129788,1.843798 0.125035,1.789505 0.123163,1.760076 0.122082,1.706226 0.123348,1.653134 0.125833,1.623164 0.135805,1.569373 0.141253,1.539991 0.160356,1.467439 0.169439,1.437948 0.181269,1.409143 0.204301,1.350719 0.218468,1.325626 0.247963,1.277284 0.266148,1.253373 0.299254,1.210365 0.31776,1.18393 0.349126,1.141695 0.371294,1.117722 0.406355,1.080635 0.430801,1.05668 0.46665,1.022415 0.50468,0.992651 0.532971,0.969684 0.569456,0.94044 0.599144,0.917922 0.63826,0.891284 0.670323,0.868718 0.712529,0.847375 0.749804,0.829308 0.804376,0.821538 0.845642,0.808935 0.89854,0.80466 0.954541,0.797917 1.020764,0.804193 1.087812,0.813994 1.137469,0.798043 1.179054,0.787473 1.204762,0.759113 1.238413,0.731354 1.266653,0.702735 1.295568,0.672601 1.327348,0.646272 1.361478,0.620678 1.398077,0.599861 1.436654,0.575902 1.473213,0.548761 1.508235,0.522911 1.547425,0.506788 1.594908,0.486723 1.63406,0.482872 1.67954,0.469455 1.718905,0.459033 1.76228,0.450309 1.801935,0.440856 1.846093,0.439818" style="fill: white" />
</svg>
