<svg width="12.953712" height="10.039674">
<polygon type="contour" points="2.206939,1.920603 2.210206,1.920898 2.222671,1.920604 2.29084,1.921465 2.309166,1.920181 2.368247,1.929044 2.414079,1.930067 2.442539,1.938772 2.506745,1.946643 2.517005,1.949622 2.522555,1.950076 2.587865,1.973015 2.6337,1.97705 2.710798,1.998525 2.732455,2.008946 2.749285,2.015243 2.8695,2.067869 2.869623,2.067937 2.869734,2.067992 2.993759,2.145407 3.002594,2.151222 3.083127,2.237239 3.142805,2.315962 3.153946,2.332929 3.181994,2.373242 3.213859,2.43132 3.221923,2.444701 3.264565,2.534636 3.27712,2.559665 3.308173,2.639932 3.318712,2.667478 3.346271,2.74698 3.370557,2.844715 3.373933,2.859822 3.383538,2.914587 3.391146,2.97185 3.393759,2.990434 3.398615,3.076513 3.40691,3.13748 3.416682,3.203956 3.434951,3.315457 3.43555,3.31846 3.437725,3.330281 3.453914,3.432237 3.459079,3.462662 3.472766,3.545882 3.486826,3.599522 3.495607,3.651915 3.530382,3.736498 3.532275,3.741619 3.576953,3.819508 3.635302,3.880382 3.703792,3.928939 3.777376,3.970539 3.779529,3.971491 3.848754,4.013281 3.850429,4.014118 3.9178,4.059942 3.985491,4.105078 3.987007,4.10601 3.988485,4.106962 4.051604,4.158974 4.117682,4.206082 4.119394,4.207091 4.18708,4.251547 4.188715,4.252552 4.255128,4.299468 4.256883,4.300369 4.3224,4.348433 4.324124,4.349561 4.325843,4.350723 4.387859,4.40444 4.389896,4.406095 4.453808,4.45534 4.455231,4.456327 4.518973,4.507453 4.584788,4.554547 4.586655,4.555855 4.652692,4.604357 4.653803,4.605177 4.654927,4.605947 4.717762,4.659331 4.719374,4.66053 4.78027,4.715205 4.781843,4.716332 4.844971,4.768723 4.847315,4.770389 4.905578,4.827053 4.90697,4.828248 4.966762,4.88431 4.969849,4.887525 5.003441,4.940326 5.007486,4.962471 5.024881,5.055147 5.037532,5.07772 5.043189,5.101971 5.036069,5.12483 5.019534,5.192947 5.010029,5.230115 4.991385,5.275532 4.963481,5.307717 4.940135,5.339531 4.898748,5.361217 4.861692,5.38605 4.826952,5.404307 4.796593,5.414622 4.744933,5.434153 4.723097,5.437223 4.659356,5.458326 4.650175,5.459032 4.610576,5.462519 4.569769,5.464972 4.5617,5.467792 4.488607,5.464743 4.455278,5.464134 4.404112,5.458114 4.340885,5.45141 4.318727,5.446699 4.256595,5.440631 4.239494,5.438578 4.232633,5.43706 4.148122,5.408614 4.10229,5.396176 4.063662,5.382295 4.036532,5.373671 3.96119,5.348839 3.932407,5.337751 3.878417,5.321217 3.849688,5.310144 3.795107,5.29498 3.766478,5.283196 3.711489,5.262033 3.682476,5.25018 3.628726,5.234555 3.599432,5.218663 3.544777,5.198008 3.515048,5.18215 3.461614,5.160269 3.431117,5.14055 3.378642,5.117818 3.348712,5.10098 3.296152,5.071487 3.244398,5.048754 3.213476,5.028364 3.160774,5.001407 3.129831,4.984652 3.076092,4.963934 3.048792,4.947462 2.996972,4.92565 2.948685,4.909044 2.870634,4.882467 2.85125,4.880027 2.765424,4.873089 2.742627,4.888512 2.68422,4.908513 2.643812,4.92294 2.608848,4.967922 2.597439,4.980764 2.590831,5.009634 2.568697,5.05501 2.567691,5.109305 2.561552,5.157591 2.5687,5.202549 2.580548,5.272957 2.584132,5.318193 2.59797,5.424596 2.599125,5.433494 2.599779,5.436252 2.620988,5.547081 2.629167,5.579834 2.645841,5.682576 2.64667,5.688306 2.64676,5.689069 2.66023,5.772369 2.681843,5.854406 2.681874,5.855694 2.684562,5.936634 2.69454,6.020305 2.694542,6.021709 2.694532,6.023102 2.695676,6.10478 2.705644,6.186487 2.705445,6.188092 2.706254,6.272726 2.715908,6.354527 2.706663,6.436566 2.706542,6.43774 2.698339,6.520854 2.706735,6.604022 2.698616,6.686906 2.697995,6.770417 2.697986,6.770635 2.697213,6.779142 2.69058,6.853732 2.696872,6.936789 2.690747,7.020446 2.687498,7.102486 2.687473,7.103433 2.687447,7.104372 2.680606,7.187157 2.680466,7.188852 2.66798,7.271258 2.667745,7.273921 2.655953,7.354494 2.654632,7.364008 2.648069,7.390705 2.643426,7.406971 2.623718,7.492812 2.622996,7.495577 2.622904,7.49619 2.600284,7.583398 2.596104,7.601602 2.573797,7.667142 2.564497,7.697947 2.546938,7.749884 2.533065,7.798164 2.519545,7.835116 2.496418,7.888669 2.486059,7.913359 2.463408,7.984032 2.458562,7.996039 2.432919,8.074946 2.43106,8.080663 2.430776,8.081657 2.407008,8.1655 2.403334,8.184645 2.382685,8.252462 2.371104,8.285376 2.357482,8.338062 2.347725,8.394006 2.342671,8.430696 2.346572,8.528047 2.345748,8.530471 2.345257,8.54042 2.329639,8.619853 2.32879,8.642523 2.285538,8.692828 2.28342,8.721631 2.222359,8.749728 2.216419,8.770317 2.194959,8.769307 2.124953,8.776595 2.121746,8.776845 2.120783,8.776635 2.031467,8.736165 1.990789,8.696876 1.967073,8.634032 1.936472,8.6044 1.914193,8.540961 1.903368,8.477952 1.889028,8.459168 1.876751,8.386222 1.866889,8.356714 1.855752,8.30347 1.847207,8.267488 1.839861,8.208873 1.831815,8.151053 1.827973,8.127871 1.816163,8.070791 1.810096,8.044073 1.807669,7.988442 1.801587,7.961208 1.789376,7.905316 1.785506,7.877907 1.77799,7.822756 1.773843,7.794953 1.766994,7.740036 1.760779,7.711812 1.748959,7.656823 1.742966,7.628113 1.735423,7.574006 1.731522,7.54509 1.72016,7.490916 1.71629,7.461715 1.709674,7.408227 1.703698,7.378464 1.697088,7.325253 1.692653,7.295229 1.685636,7.242643 1.678662,7.21214 1.67222,7.159794 1.668733,7.128818 1.662998,7.076729 1.659374,7.045627 1.657655,6.994355 1.65334,6.962702 1.647404,6.911299 1.643519,6.879373 1.63833,6.828328 1.634206,6.796173 1.628301,6.745352 1.624185,6.712701 1.619867,6.680049 1.623305,6.630042 1.617411,6.580113 1.612939,6.546999 1.612378,6.497196 1.60923,6.463809 1.609268,6.4299 1.60803,6.380798 1.607967,6.347228 1.607321,6.297411 1.610506,6.263339 1.611315,6.214097 1.617869,6.180031 1.607361,6.1319 1.596058,6.075551 1.600142,6.047597 1.601865,6.019715 1.574851,5.965532 1.576473,5.933898 1.562335,5.881392 1.564669,5.844344 1.561882,5.798728 1.554684,5.760978 1.54419,5.714682 1.535657,5.677458 1.527742,5.631683 1.506943,5.594081 1.499589,5.548313 1.483616,5.511716 1.47985,5.465793 1.462721,5.427699 1.456197,5.382407 1.456125,5.3373 1.446101,5.299092 1.444417,5.255302 1.437809,5.215535 1.438843,5.175952 1.43977,5.132039 1.432606,5.086927 1.417798,5.048878 1.403429,5.005959 1.388896,4.965929 1.368316,4.923133 1.329137,4.882546 1.313247,4.831183 1.295388,4.79259 1.261134,4.738358 1.230232,4.706486 1.189348,4.650695 1.160869,4.621406 1.111274,4.561285 1.086926,4.537917 1.021112,4.460149 0.995787,4.429128 0.940847,4.367634 0.917809,4.334484 0.873474,4.279874 0.852046,4.24352 0.842589,4.227268 0.804025,4.15098 0.787455,4.134486 0.762129,4.086719 0.734051,4.032475 0.709084,3.979201 0.673665,3.932726 0.620679,3.852982 0.60969,3.832675 0.604021,3.814659 0.572288,3.723341 0.563895,3.695932 0.537493,3.611537 0.531898,3.543994 0.522192,3.474698 0.521289,3.402165 0.520269,3.37018 0.523824,3.33305 0.538069,3.22602 0.546329,3.198128 0.575861,3.101214 0.584588,3.076127 0.596694,3.048798 0.639511,2.953708 0.652296,2.93084 0.712561,2.812209 0.71349,2.810664 0.713867,2.810007 0.779907,2.719583 0.826458,2.653099 0.839033,2.6373 0.860293,2.604934 0.911543,2.532372 0.953279,2.479623 0.982936,2.446807 1.005689,2.423108 1.056615,2.372543 1.12472,2.298784 1.130442,2.293089 1.134073,2.289678 1.2063,2.224591 1.25021,2.188696 1.28862,2.16721 1.350811,2.128385 1.369559,2.113809 1.417422,2.075973 1.447855,2.053466 1.457465,2.048038 1.537259,2.018621 1.549524,2.015132 1.627334,1.990875 1.637052,1.98752 1.695465,1.979383 1.718291,1.976401 1.72243,1.975909 1.803971,1.958373 1.815234,1.956029 1.883422,1.951356 1.915431,1.950074 1.970272,1.93834 2.009118,1.92858 2.05342,1.925768 2.106649,1.920145 2.134398,1.918392" style="fill: white" />
</svg>
