<svg width="12.953712" height="10.039674">
<polygon type="contour" points="1.999302,0.509641 2.013228,0.509934 2.082473,0.527463 2.10262,0.534901 2.15481,0.554054 2.185336,0.567251 2.248111,0.609789 2.253695,0.613211 2.258873,0.617104 2.314014,0.670087 2.317785,0.674745 2.368386,0.738027 2.373327,0.744696 2.420418,0.809328 2.425702,0.818794 2.46736,0.88481 2.472185,0.894683 2.507817,0.968182 2.512712,0.979038 2.546275,1.055777 2.550828,1.070406 2.58228,1.149529 2.588567,1.165555 2.616687,1.251967 2.62497,1.27131 2.655312,1.342621 2.666291,1.363237 2.696018,1.436221 2.71165,1.458757 2.748417,1.513653 2.767491,1.5306 2.805401,1.576279 2.827908,1.588467 2.873732,1.624113 2.928914,1.644682 2.952866,1.656295 3.015994,1.677556 3.034256,1.686353 3.091885,1.709392 3.111136,1.719735 3.162521,1.752414 3.180917,1.764308 3.197908,1.778844 3.244588,1.818246 3.26022,1.836166 3.304705,1.877255 3.32035,1.896902 3.362231,1.941347 3.380034,1.958538 3.42182,2.001342 3.439569,2.02103 3.485559,2.056138 3.504449,2.074023 3.55173,2.107118 3.570321,2.126122 3.622201,2.151442 3.672712,2.180323 3.692574,2.194621 3.712041,2.209026 3.757306,2.221204 3.806598,2.23849 3.835836,2.255993 3.88311,2.259958 3.910994,2.280328 3.970853,2.29766 4.009924,2.299822 4.052285,2.294111 4.092377,2.289167 4.135829,2.280365 4.175632,2.272331 4.219296,2.266336 4.258625,2.259373 4.300906,2.247671 4.341755,2.241727 4.38395,2.231279 4.42513,2.228438 4.467922,2.227432 4.508516,2.226034 4.551099,2.227657 4.591969,2.229887 4.636567,2.243591 4.6759,2.24816 4.71713,2.258317 4.758481,2.259285 4.801642,2.258028 4.841467,2.261707 4.881934,2.261248 4.924753,2.262601 4.966167,2.263458 5.007936,2.260398 5.049,2.255421 5.091058,2.259641 5.133344,2.257658 5.174044,2.26562 5.214538,2.263965 5.301906,2.273807 5.340474,2.273059 5.405742,2.269399 5.425413,2.266975 5.445463,2.265998 5.506341,2.256295 5.547094,2.244293 5.588733,2.242582 5.627239,2.229503 5.671499,2.22581 5.712178,2.207847 5.754609,2.189508 5.792036,2.168385 5.835897,2.135896 5.870997,2.112936 5.919045,2.076059 5.952525,2.053987 6.002545,2.022072 6.035321,2.005853 6.088105,1.977617 6.120723,1.960042 6.17149,1.933159 6.203832,1.918171 6.25529,1.89778 6.287005,1.891173 6.33878,1.876692 6.36991,1.869855 6.422051,1.861759 6.450361,1.848255 6.504758,1.842292 6.53228,1.8292 6.586048,1.811548 6.612665,1.796878 6.670119,1.761735 6.695443,1.753083 6.75371,1.730481 6.778968,1.723064 6.839015,1.705877 6.86455,1.702264 6.921478,1.692263 6.946479,1.687208 7.005989,1.670711 7.031305,1.669145 7.088969,1.653984 7.147562,1.649155 7.171038,1.646946 7.194454,1.645388 7.2549,1.644699 7.279849,1.640765 7.337705,1.642963 7.361879,1.636235 7.421469,1.625765 7.446287,1.620046 7.504465,1.601199 7.527317,1.600306 7.587662,1.594116 7.647982,1.592472 7.670648,1.592385 7.693306,1.58962 7.753628,1.581342 7.814134,1.581625 7.836423,1.581397 7.896998,1.588907 7.919314,1.590381 7.978683,1.598893 8.002356,1.603653 8.062233,1.610743 8.085394,1.614457 8.143732,1.623654 8.168357,1.629329 8.227661,1.649234 8.252015,1.658644 8.309864,1.674436 8.334869,1.682931 8.390589,1.692905 8.417667,1.69243 8.473382,1.707308 8.501146,1.711829 8.5562,1.734601 8.583786,1.742251 8.639899,1.760634 8.667707,1.767492 8.721087,1.783653 8.766253,1.797426 8.791436,1.804058 8.845653,1.825681 8.917454,1.850758 8.971005,1.854159 9.001682,1.855226 9.053354,1.859767 9.084035,1.864968 9.135854,1.87732 9.167448,1.885634 9.218798,1.891345 9.250848,1.898657 9.301199,1.906719 9.334063,1.913627 9.386908,1.92504 9.421527,1.931179 9.450847,1.938921 9.495161,1.953204 9.535481,1.969785 9.572191,1.98864 9.609281,2.009318 9.644102,2.029891 9.679006,2.049635 9.718881,2.068841 9.753908,2.093107 9.786612,2.117438 9.820665,2.145585 9.851584,2.169816 9.886293,2.197025 9.916446,2.222519 9.952875,2.247924 9.980629,2.276517 10.001782,2.295733 10.056797,2.331321 10.065312,2.338724 10.161055,2.412513 10.212548,2.464181 10.243583,2.50038 10.266924,2.527546 10.322275,2.590018 10.384703,2.678502 10.388701,2.684579 10.404176,2.713642 10.440235,2.783526 10.445759,2.794816 10.481778,2.886328 10.51238,2.987597 10.513992,2.992819 10.517727,3.014929 10.532882,3.104506 10.535947,3.133489 10.545203,3.217913 10.555325,3.287925 10.561086,3.330514 10.567289,3.422669 10.568755,3.446666 10.569895,3.459546 10.577528,3.562656 10.581271,3.640915 10.582877,3.679302 10.584781,3.740825 10.586107,3.796316 10.587631,3.831503 10.590197,3.913205 10.589757,4.025134 10.589551,4.033098 10.58935,4.040442 10.588805,4.151974 10.586142,4.25683 10.585443,4.271229 10.58415,4.283534 10.572212,4.395848 10.559075,4.484502 10.551798,4.522156 10.530773,4.626168 10.526231,4.651047 10.5238,4.660132 10.487802,4.784725 10.478034,4.807307 10.425322,4.924092 10.422854,4.929543 10.422359,4.930683 10.398446,4.977742 10.379078,5.017877 10.347364,5.07654 10.311398,5.132575 10.286519,5.169177 10.25702,5.212542 10.245392,5.229171 10.217285,5.25883 10.196432,5.278903 10.187651,5.286529 10.144919,5.325993 10.115926,5.351053 10.092744,5.372079 10.042779,5.420215 10.038766,5.426132 9.997186,5.477476 9.976613,5.500237 9.947931,5.526321 9.908201,5.574745 9.902495,5.580273 9.892498,5.593783 9.857803,5.636518 9.840436,5.655216 9.806808,5.683789 9.768201,5.718551 9.753524,5.728416 9.705801,5.761097 9.695642,5.767415 9.69284,5.769547 9.687631,5.772417 9.615353,5.810343 9.573303,5.835757 9.539464,5.858743 9.514296,5.872811 9.463821,5.907901 9.457303,5.91276 9.433278,5.927226 9.387085,5.952161 9.371554,5.959818 9.30954,5.992726 9.270843,6.010894 9.229209,6.024218 9.170638,6.047921 9.149251,6.056607 9.074413,6.092665 9.070916,6.094354 8.99369,6.13672 8.945626,6.157824 8.913196,6.167174 8.875481,6.1806 8.830809,6.188906 8.799019,6.194757 8.745691,6.198676 8.715608,6.200192 8.662753,6.218262 8.645167,6.221703 8.578546,6.234693 8.567779,6.236141 8.49939,6.256998 8.497187,6.257651 8.426971,6.28101 8.415074,6.284886 8.355248,6.300726 8.334303,6.309419 8.305026,6.314204 8.247376,6.318923 8.21374,6.31938 8.160857,6.324033 8.107142,6.320549 8.072792,6.318633 8.04062,6.313754 7.978643,6.299855 7.956433,6.295057 7.887133,6.28183 7.873766,6.276516 7.791815,6.254371 7.788714,6.253214 7.711171,6.220069 7.692923,6.213754 7.63123,6.193484 7.597927,6.184783 7.565366,6.187996 7.506554,6.176399 7.468585,6.177989 7.418773,6.177289 7.382491,6.179425 7.333453,6.181403 7.294091,6.177908 7.24206,6.173222 7.204597,6.17618 7.15498,6.175405 7.115884,6.175546 7.068126,6.180597 7.031274,6.178646 6.980003,6.176089 6.935101,6.168381 6.888612,6.168028 6.845972,6.166294 6.800035,6.16861 6.757852,6.167009 6.711426,6.168554 6.66875,6.165258 6.623543,6.159164 6.57178,6.150646 6.531879,6.146534 6.498031,6.14237 6.439233,6.124793 6.415074,6.118372 6.343397,6.094362 6.33442,6.091236 6.304734,6.075462 6.257865,6.049715 6.243336,6.04422 6.177129,6.021796 6.149512,6.021096 6.08941,6.019643 6.061044,6.020762 5.998353,6.023267 5.973443,6.025191 5.948466,6.024885 5.885038,6.024096 5.821841,6.028639 5.799036,6.028384 5.732131,6.030098 5.710506,6.028921 5.645182,6.027092 5.622313,6.025262 5.559629,6.021745 5.532881,6.018823 5.473444,6.009471 5.441973,6.008958 5.385404,6.013273 5.355917,6.012827 5.297173,6.006812 5.265078,6.005881 5.209544,6.010023 5.178988,6.008858 5.124237,5.995087 5.085183,5.989299 5.039356,5.985359 4.996519,5.982398 4.950801,5.988659 4.911399,5.993639 4.85306,6.023392 4.832628,6.031752 4.75839,6.045708 4.748783,6.04906 4.74126,6.050696 4.66356,6.059607 4.660996,6.060464 4.575366,6.059721 4.557888,6.065497 4.505197,6.085062 4.494573,6.085562 4.430269,6.103299 4.41091,6.105853 4.350075,6.114558 4.326045,6.11908 4.274024,6.128694 4.242569,6.136359 4.195725,6.142023 4.157886,6.149347 4.117062,6.151883 4.072378,6.154677 4.031605,6.15287 3.981109,6.146745 3.932016,6.141279 3.890528,6.133344 3.834581,6.126145 3.798859,6.12032 3.736308,6.114643 3.709449,6.116674 3.648804,6.112057 3.621901,6.110391 3.547957,6.096386 3.52885,6.095461 3.449871,6.079248 3.438321,6.076407 3.354288,6.057622 3.343779,6.055129 3.342069,6.05456 3.245786,6.021947 3.220495,6.012319 3.14814,5.987019 3.097067,5.96448 3.054254,5.947404 2.974833,5.916274 2.95574,5.907731 2.894053,5.883113 2.865481,5.871105 2.858428,5.867764 2.853823,5.865208 2.772081,5.814148 2.740126,5.800554 2.686144,5.77226 2.644898,5.756535 2.599162,5.733662 2.560366,5.715121 2.51948,5.701503 2.478125,5.69208 2.437913,5.67553 2.395543,5.668114 2.356432,5.652397 2.312899,5.644543 2.275398,5.628499 2.230501,5.621322 2.184516,5.611161 2.147309,5.600593 2.10148,5.593354 2.064642,5.583541 2.017922,5.577707 1.981427,5.568812 1.934391,5.563057 1.898507,5.554181 1.850268,5.543488 1.814639,5.530956 1.765508,5.519656 1.731546,5.510252 1.681728,5.49234 1.648382,5.480152 1.598615,5.465372 1.566172,5.452737 1.515144,5.433044 1.483534,5.420834 1.428712,5.389727 1.398686,5.375161 1.342451,5.338891 1.315903,5.323255 1.258689,5.276844 1.233268,5.259558 1.173093,5.220055 1.150011,5.203753 1.090476,5.169347 1.067795,5.15486 1.006348,5.120497 0.985347,5.10677 0.919066,5.057785 0.900774,5.043454 0.834653,4.989412 0.816403,4.971414 0.794198,4.956606 0.724533,4.890272 0.707409,4.872698 0.644814,4.801147 0.635634,4.787813 0.569029,4.714278 0.559689,4.703091 0.491517,4.626904 0.486269,4.619497 0.420841,4.538416 0.418055,4.53356 0.372927,4.454647 0.370831,4.450625 0.325547,4.370165 0.324349,4.367507 0.278491,4.285515 0.277693,4.284087 0.232636,4.200456 0.23252,4.200237 0.232518,4.200233 0.203486,4.117731 0.203267,4.117044 0.175618,4.034309 0.175293,4.03288 0.166559,3.951744 0.150149,3.867528 0.149555,3.864469 0.139108,3.784737 0.138735,3.7815 0.128025,3.701847 0.127637,3.698411 0.111917,3.61831 0.111837,3.613805 0.108332,3.535678 0.108314,3.531571 0.101712,3.452327 0.101675,3.447278 0.096041,3.369068 0.099977,3.291055 0.100153,3.285953 0.102965,3.209039 0.104091,3.202862 0.117394,3.1242 0.118615,3.119263 0.129773,3.041721 0.131295,3.035883 0.134976,3.020016 0.151495,2.951252 0.173757,2.881404 0.17803,2.871189 0.198231,2.821609 0.210419,2.793505 0.211912,2.790663 0.227734,2.754683 0.249726,2.706298 0.251449,2.702803 0.274356,2.625803 0.276167,2.620574 0.284783,2.537648 0.282805,2.531121 0.274181,2.453834 0.27247,2.447749 0.249605,2.370123 0.246908,2.362724 0.221652,2.286765 0.219207,2.278493 0.206866,2.204424 0.205095,2.196487 0.189781,2.120992 0.188721,2.112272 0.180859,2.037776 0.179781,2.028497 0.170987,1.954719 0.170945,1.945146 0.170261,1.871566 0.169507,1.861615 0.173091,1.788416 0.169443,1.715636 0.170129,1.705156 0.17386,1.633465 0.17544,1.622167 0.189552,1.549854 0.191543,1.53836 0.211718,1.471219 0.216376,1.45987 0.246769,1.387223 0.250878,1.379555 0.290874,1.312442 0.333775,1.250091 0.345525,1.231554 0.388508,1.174747 0.397774,1.164903 0.443965,1.111927 0.455251,1.100926 0.504078,1.053824 0.516175,1.042052 0.566509,0.998662 0.618391,0.959453 0.635114,0.948021 0.690785,0.912993 0.708065,0.90269 0.759788,0.883644 0.797817,0.866165 0.836239,0.855191 0.882253,0.842483 0.930329,0.836379 0.975043,0.826855 1.047033,0.840078 1.080666,0.846309 1.092933,0.848312 1.137931,0.850463 1.195956,0.825517 1.212071,0.816035 1.225743,0.80051 1.268223,0.756819 1.309899,0.713515 1.327994,0.698904 1.374864,0.662318 1.401444,0.647195 1.447657,0.614434 1.452081,0.610533 1.514359,0.571379 1.549697,0.55595 1.596422,0.538148 1.642255,0.527615 1.679377,0.520188 1.692563,0.519789 1.76331,0.510119 1.777658,0.510131 1.847499,0.500795 1.859987,0.499472 1.929954,0.498076" style="fill: white" />
</svg>
