<svg width="12.953712" height="10.039674">
<polygon type="contour" points="7.67038,0.161989 7.687381,0.165911 7.753492,0.169548 7.770415,0.173493 7.837513,0.184065 7.855824,0.188357 7.9205,0.198074 7.93916,0.202599 8.004437,0.221267 8.025035,0.227757 8.08658,0.240795 8.10734,0.244133 8.169798,0.249705 8.191471,0.251621 8.252777,0.254345 8.274034,0.252963 8.336149,0.263554 8.396722,0.266825 8.419121,0.266341 8.441668,0.269169 8.502705,0.27455 8.526499,0.279543 8.586009,0.288177 8.610324,0.29691 8.668856,0.312271 8.68649,0.319086 8.748683,0.342983 8.790119,0.359946 8.829468,0.374243 8.867674,0.392972 8.905038,0.411228 8.942068,0.431027 8.979758,0.450945 9.017923,0.468331 9.055716,0.49227 9.091496,0.506961 9.130464,0.526729 9.167994,0.542329 9.207799,0.563482 9.241816,0.582166 9.282284,0.603656 9.31383,0.623895 9.354264,0.64648 9.384968,0.667361 9.422574,0.693479 9.453277,0.714834 9.484741,0.73328 9.520803,0.763731 9.560172,0.788671 9.594261,0.803658 9.635015,0.82773 9.665604,0.846924 9.693506,0.869319 9.727025,0.906422 9.753147,0.93482 9.783567,0.970192 9.808176,1.003956 9.838095,1.039504 9.864241,1.072765 9.893511,1.10554 9.919676,1.137655 9.952061,1.165418 9.980437,1.1951 10.016007,1.220077 10.053158,1.241384 10.086242,1.263591 10.125073,1.284724 10.157221,1.307396 10.193087,1.332821 10.224365,1.356573 10.257208,1.377354 10.29675,1.39795 10.332427,1.412601 10.375926,1.429729 10.412233,1.441328 10.455086,1.460942 10.497372,1.484772 10.531741,1.496188 10.571909,1.523981 10.600948,1.542593 10.640042,1.57216 10.667722,1.592746 10.6924,1.617856 10.729657,1.649183 10.755397,1.673119 10.795051,1.700627 10.832205,1.732003 10.858411,1.755393 10.893068,1.790061 10.918683,1.815697 10.950599,1.851742 10.975701,1.879131 11.00695,1.914372 11.032937,1.942336 11.058733,1.971515 11.088711,2.008575 11.113543,2.041903 11.140964,2.079171 11.164808,2.117448 11.18662,2.160486 11.208759,2.205475 11.227134,2.246844 11.25094,2.29522 11.269158,2.333841 11.295914,2.38564 11.312531,2.420158 11.341671,2.471259 11.357427,2.50225 11.389111,2.555913 11.405545,2.579255 11.437369,2.635898 11.452165,2.658376 11.487939,2.711881 11.502083,2.727271 11.518101,2.73894 11.567433,2.818213 11.582569,2.841546 11.593171,2.854569 11.713998,2.909193 11.794782,2.873501 11.803644,2.8715 11.885176,2.829091 11.906894,2.820663 12.000244,2.804064 12.063345,2.791969 12.072685,2.791638 12.138802,2.799845 12.235221,2.811056 12.250941,2.813945 12.261432,2.817141 12.353598,2.846557 12.404229,2.869024 12.425009,2.880036 12.432595,2.887742 12.4423,2.891777 12.541624,2.967889 12.544131,2.970125 12.547759,2.974693 12.619986,3.064611 12.667519,3.127725 12.692193,3.160568 12.748201,3.257353 12.749696,3.260092 12.7503,3.26132 12.75051,3.261813 12.754173,3.272631 12.784217,3.367034 12.788192,3.375865 12.790942,3.384962 12.814916,3.464955 12.837321,3.543887 12.838409,3.547663 12.839612,3.551756 12.860623,3.627712 12.860668,3.630099 12.864312,3.714313 12.863217,3.796441 12.86316,3.799444 12.856562,3.881186 12.856237,3.885183 12.846628,3.965568 12.833711,4.038082 12.830222,4.053454 12.809746,4.128035 12.784753,4.198188 12.778008,4.215085 12.753267,4.28658 12.748753,4.296345 12.740201,4.320438 12.720286,4.359814 12.713311,4.380803 12.684494,4.426509 12.653234,4.483668 12.65018,4.48665 12.647202,4.489221 12.635354,4.503894 12.599176,4.539747 12.584433,4.554402 12.546209,4.585526 12.510831,4.613647 12.446811,4.643277 12.432228,4.648637 12.364125,4.674416 12.353623,4.67781 12.35206,4.678554 12.275448,4.690699 12.267524,4.692738 12.257765,4.693927 12.18249,4.701163 12.169185,4.700953 12.094284,4.700428 12.082022,4.699415 12.002853,4.689447 11.996071,4.688344 11.914073,4.683055 11.910639,4.68287 11.823858,4.680443 11.776101,4.676725 11.734974,4.673756 11.72451,4.676799 11.642268,4.703127 11.583948,4.78144 11.544329,4.847737 11.524141,4.880451 11.49505,4.943766 11.488783,4.958416 11.487618,4.961948 11.45564,5.040878 11.454308,5.046354 11.426823,5.124613 11.42473,5.132075 11.404108,5.207189 11.401375,5.21619 11.383549,5.290332 11.380829,5.300604 11.362361,5.373806 11.357757,5.385415 11.336295,5.455536 11.329821,5.468582 11.295395,5.539076 11.287038,5.554688 11.247961,5.623404 11.236478,5.643216 11.204587,5.707276 11.192851,5.729172 11.161849,5.79005 11.142514,5.815133 11.105767,5.873302 11.063673,5.925261 11.033856,5.956288 10.984004,6.004609 10.947371,6.038973 10.903371,6.082932 10.864063,6.124478 10.824288,6.163202 10.784309,6.20782 10.73726,6.25594 10.703357,6.288748 10.643439,6.341244 10.612179,6.36856 10.518471,6.434586 10.491655,6.45492 10.413171,6.527706 10.391823,6.540518 10.341721,6.610296 10.335547,6.61826 10.270344,6.700193 10.267052,6.704075 10.189337,6.779567 10.188804,6.780135 10.187831,6.780783 10.147694,6.806841 10.080269,6.84012 10.065049,6.848308 9.989107,6.906725 9.977987,6.914893 9.905842,6.98587 9.898215,6.992518 9.817499,7.061314 9.813997,7.063993 9.747554,7.120819 9.730021,7.135988 9.729142,7.13667 9.648096,7.2016 9.643827,7.204174 9.565644,7.254961 9.558446,7.257866 9.483589,7.28916 9.474615,7.291226 9.398559,7.315676 9.388109,7.319423 9.315327,7.346954 9.303236,7.35261 9.232281,7.388793 9.21779,7.395426 9.148138,7.436821 9.131444,7.443497 9.066031,7.471259 9.048646,7.477454 8.98412,7.494577 8.965179,7.493425 8.898646,7.502989 8.835634,7.503424 8.815512,7.499244 8.795037,7.502054 8.732447,7.506664 8.71284,7.512817 8.647892,7.531105 8.626358,7.53998 8.565718,7.558127 8.543121,7.568953 8.48238,7.599339 8.458296,7.609217 8.399163,7.63707 8.373361,7.641081 8.315795,7.659668 8.287435,7.664903 8.232858,7.668655 8.205682,7.672421 8.14911,7.675874 8.120912,7.682885 8.066019,7.684097 8.037933,7.691563 7.983465,7.707737 7.954595,7.715306 7.900397,7.729204 7.87042,7.736056 7.817328,7.743934 7.787204,7.75185 7.733612,7.768043 7.701313,7.779573 7.64922,7.80304 7.614901,7.815023 7.566894,7.835368 7.530689,7.853006 7.483953,7.866449 7.447102,7.876047 7.400596,7.886206 7.363098,7.891964 7.317973,7.894663 7.280434,7.898297 7.233839,7.906101 7.196118,7.90807 7.150917,7.91444 7.113148,7.91852 7.0693,7.927302 7.02963,7.939528 6.984431,7.958666 6.943193,7.979561 6.901203,8.009544 6.858133,8.034035 6.818982,8.040341 6.774694,8.045787 6.735938,8.046235 6.690859,8.057122 6.651817,8.064973 6.605601,8.069614 6.567906,8.075209 6.521572,8.078142 6.484661,8.074537 6.447232,8.073425 6.401372,8.069793 6.361942,8.066783 6.317416,8.066012 6.279707,8.068153 6.234374,8.059095 6.194241,8.054553 6.151256,8.047751 6.109925,8.037562 6.066839,8.018808 6.022382,7.997029 5.983627,7.977162 5.934357,7.943458 5.899812,7.920593 5.852301,7.892017 5.819495,7.866982 5.764879,7.821524 5.735523,7.797303 5.671004,7.737594 5.629166,7.701146 5.61062,7.680793 5.553419,7.61121 5.543714,7.597066 5.492994,7.521668 5.485736,7.511572 5.442077,7.431794 5.439466,7.426141 5.408557,7.344058 5.359048,7.274887 5.347843,7.259337 5.34748,7.258586 5.327,7.175986 5.296195,7.093184 5.294512,7.088577 5.265269,7.009859 5.262854,7.003251 5.242262,6.927114 5.240394,6.919025 5.204965,6.843281 5.202322,6.832471 5.184652,6.760244 5.181611,6.747807 5.16427,6.676964 5.157315,6.662769 5.131721,6.593806 5.12892,6.578174 5.095158,6.51147 5.085991,6.493352 5.062466,6.431854 5.050871,6.417082 5.003945,6.357128 4.989912,6.339759 4.927368,6.286422 4.906952,6.271384 4.841836,6.247404 4.824068,6.240877 4.757461,6.224535 4.740924,6.220473 4.724065,6.220957 4.656976,6.222313 4.638689,6.223194 4.573715,6.233918 4.554873,6.239447 4.489774,6.257472 4.46891,6.260955 4.407408,6.276962 4.386147,6.279574 4.324962,6.290445 4.259784,6.280838 4.241378,6.279558 4.176129,6.260689 4.158457,6.258478 4.090853,6.225655 4.076066,6.221369 4.005782,6.186162 3.993065,6.180036 3.92252,6.148994 3.911303,6.143639 3.835127,6.108641 3.826842,6.104735 3.750137,6.085802 3.743573,6.082129 3.668307,6.077106 3.660538,6.074581 3.580447,6.065762 3.576293,6.064852 3.572185,6.064449 3.493527,6.059465 3.488079,6.059561 3.410107,6.05945 3.332986,6.068475 3.326927,6.067649 3.251095,6.074289 3.243801,6.071656 3.170551,6.081509 3.160876,6.079215 3.08605,6.075656 3.078203,6.074016 3.000335,6.072528 2.994834,6.072413 2.918239,6.069729 2.912111,6.067474 2.831025,6.037508 2.828481,6.037487 2.751599,5.994162 2.744859,5.990118 2.663378,5.942574 2.659842,5.940247 2.580806,5.882579 2.5745,5.879059 2.50141,5.816032 2.494868,5.811497 2.417893,5.74884 2.407162,5.739674 2.333966,5.668741 2.319509,5.660129 2.251731,5.590596 2.23227,5.57549 2.170371,5.512948 2.139711,5.459521 2.087401,5.41325 2.056716,5.397422 2.016904,5.369226 1.998641,5.355898 1.922951,5.276696 1.903192,5.247518 1.877912,5.183445 1.854131,5.143986 1.824583,5.102158 1.783346,5.056523 1.747347,5.016035 1.698844,4.967951 1.675359,4.933286 1.637335,4.874673 1.62563,4.847504 1.599595,4.788457 1.593634,4.764204 1.566598,4.702803 1.558024,4.680969 1.538067,4.617396 1.530858,4.597632 1.515724,4.533159 1.508045,4.514244 1.489822,4.449958 1.483356,4.431875 1.462221,4.364105 1.448091,4.318184 1.440361,4.23601 1.431254,4.192274 1.426319,4.113263 1.423531,4.091158 1.393423,3.984491 1.385665,3.951715 1.374545,3.87808 1.364653,3.807323 1.362801,3.777161 1.36267,3.731826 1.366044,3.692436 1.368677,3.660533 1.379425,3.614819 1.388421,3.570435 1.397027,3.541003 1.401331,3.506773 1.411975,3.465546 1.420983,3.424117 1.430843,3.389897 1.44734,3.349779 1.459386,3.326013 1.465572,3.307988 1.484378,3.256763 1.509294,3.188771 1.509572,3.188158 1.535108,3.120547 1.552639,3.063453 1.558203,3.049758 1.563528,3.030358 1.582571,2.980573 1.595548,2.94307 1.606608,2.913146 1.620778,2.87309 1.630974,2.845684 1.639297,2.826662 1.659949,2.780722 1.687167,2.716507 1.68798,2.715028 1.689196,2.712534 1.724131,2.658379 1.741534,2.62692 1.760159,2.59957 1.795534,2.544834 1.797522,2.542045 1.798488,2.540763 1.837907,2.487597 1.857877,2.461668 1.881954,2.436096 1.921961,2.394426 1.929079,2.387274 1.943746,2.368159 1.984597,2.321463 2.023117,2.289116 2.049561,2.256444 2.067619,2.237319 2.116471,2.196159 2.11975,2.192963 2.130215,2.18346 2.184573,2.13754 2.229119,2.107248 2.256498,2.088928 2.286374,2.066648 2.327314,2.038458 2.344977,2.02755 2.401148,1.994759 2.406927,1.991221 2.445621,1.971169 2.47304,1.957449 2.47695,1.955324 2.540543,1.925294 2.554055,1.919454 2.61184,1.89691 2.632798,1.888998 2.688572,1.872602 2.71471,1.864472 2.762722,1.846296 2.794633,1.835864 2.836232,1.818962 2.873014,1.803365 2.910062,1.791773 2.952848,1.774116 2.980376,1.762181 3.032004,1.744511 3.054491,1.736559 3.117381,1.728431 3.145782,1.723024 3.205776,1.718967 3.244808,1.716399 3.295544,1.714064 3.349669,1.713664 3.38754,1.712486 3.467122,1.721659 3.48372,1.721304 3.54814,1.731742 3.576764,1.735363 3.666603,1.724141 3.708856,1.697314 3.731583,1.681498 3.738644,1.679382 3.746776,1.674608 3.811117,1.631282 3.840957,1.611718 3.884912,1.587354 3.918855,1.572262 3.961439,1.549829 3.992438,1.536622 4.023714,1.520495 4.069135,1.500091 4.093383,1.490066 4.165748,1.463883 4.176541,1.459931 4.252318,1.436826 4.260532,1.435553 4.334197,1.422508 4.342525,1.422753 4.416221,1.418886 4.42529,1.419877 4.43424,1.420633 4.508419,1.420441 4.582924,1.420011 4.591792,1.420076 4.666827,1.415897 4.674959,1.415144 4.750079,1.415203 4.758073,1.414994 4.833022,1.416944 4.840919,1.416986 4.848822,1.418153 4.924652,1.432235 4.934095,1.434517 5.007307,1.445452 5.017704,1.450474 5.091251,1.484968 5.1041,1.492159 5.174583,1.536184 5.191158,1.543646 5.25686,1.579024 5.275462,1.585765 5.340289,1.610244 5.360374,1.612379 5.423602,1.624507 5.487213,1.612063 5.507454,1.607466 5.566736,1.577229 5.585129,1.565573 5.663082,1.44537 5.668615,1.435908 5.691679,1.393668 5.705097,1.366178 5.730387,1.314738 5.731342,1.312854 5.771262,1.237022 5.774152,1.231721 5.815624,1.164087 5.820041,1.156967 5.860969,1.091578 5.866678,1.082153 5.900874,1.013716 5.907783,1.000717 5.943483,0.939387 5.951573,0.924975 5.982921,0.861372 5.993076,0.84456 6.028049,0.789025 6.039503,0.770147 6.073297,0.71689 6.085837,0.694377 6.117787,0.643578 6.133473,0.621773 6.166645,0.575215 6.186287,0.555423 6.225707,0.516635 6.269877,0.485644 6.294973,0.468486 6.345473,0.440939 6.369666,0.42559 6.392347,0.413334 6.422672,0.396156 6.48029,0.367836 6.507174,0.355245 6.56322,0.338631 6.589248,0.333267 6.615438,0.339119 6.671885,0.343447 6.699082,0.352773 6.754785,0.378256 6.808695,0.370057 6.837887,0.357038 6.895505,0.325649 6.920649,0.312088 6.981598,0.295086 7.006143,0.286743 7.063956,0.27247 7.086573,0.263981 7.14938,0.24472 7.170266,0.236506 7.23421,0.223732 7.253701,0.218412 7.315278,0.205007 7.335882,0.198775 7.401487,0.1874 7.419807,0.184988 7.484943,0.175604 7.503058,0.174462 7.56871,0.16711 7.586617,0.166008 7.653619,0.160462" style="fill: white" />
</svg>
