<svg width="12.953712" height="10.039674">
<polygon type="contour" points="8.913128,0.909081 8.916753,0.909157 8.996375,0.92614 8.999364,0.926707 9.079145,0.943655 9.082558,0.944469 9.140157,0.961091 9.164235,0.96844 9.165567,0.968733 9.183659,0.973704 9.245105,0.9911 9.250084,0.992709 9.326291,1.005892 9.332351,1.00763 9.407184,1.029085 9.415047,1.031892 9.443299,1.039492 9.503142,1.057945 9.526361,1.064962 9.584661,1.094602 9.64198,1.123192 9.660666,1.13073 9.715778,1.165093 9.731968,1.174633 9.747145,1.185125 9.801114,1.220208 9.816725,1.231172 9.870985,1.26518 9.886815,1.277891 9.939043,1.312856 9.95371,1.327192 10.001403,1.369344 10.015856,1.379537 10.069987,1.416823 10.128989,1.443426 10.146848,1.451916 10.200312,1.481949 10.221508,1.489711 10.27728,1.518651 10.295372,1.528887 10.311675,1.541825 10.359544,1.581508 10.374925,1.595786 10.420619,1.638601 10.433845,1.653707 10.47621,1.704932 10.489498,1.721259 10.531504,1.770964 10.545375,1.78246 10.596995,1.822732 10.611545,1.836365 10.659621,1.878641 10.673239,1.891779 10.719186,1.93661 10.731182,1.950999 10.77633,1.999803 10.787171,2.01437 10.83009,2.069384 10.839785,2.08433 10.880263,2.14228 10.889813,2.15533 10.931266,2.218043 10.940785,2.230859 10.983179,2.286101 10.990682,2.298106 11.032274,2.364079 11.038856,2.375704 11.07917,2.443535 11.085185,2.453786 11.126712,2.518402 11.131311,2.527264 11.138942,2.543066 11.182671,2.632306 11.19696,2.664471 11.21809,2.714453 11.230007,2.745416 11.251649,2.797202 11.26246,2.826768 11.282636,2.880773 11.29023,2.908851 11.309099,2.964765 11.314861,2.992949 11.329123,3.048151 11.335304,3.075576 11.345646,3.130993 11.3498,3.156621 11.361506,3.214606 11.36555,3.240111 11.374545,3.297451 11.379062,3.322835 11.389235,3.380488 11.39281,3.404109 11.403681,3.464262 11.407637,3.488103 11.416527,3.547151 11.420295,3.569917 11.431774,3.630679 11.435781,3.654543 11.439564,3.713771 11.44111,3.735729 11.445995,3.797079 11.447844,3.81991 11.453749,3.880361 11.455421,3.903546 11.461691,3.963605 11.464264,4.024039 11.465309,4.046556 11.465288,4.107407 11.465415,4.129617 11.466027,4.152261 11.465779,4.212711 11.463831,4.272348 11.462015,4.29569 11.455877,4.35577 11.453248,4.378843 11.44542,4.4385 11.44447,4.461769 11.435717,4.520527 11.433743,4.544932 11.424483,4.602808 11.422566,4.627295 11.414356,4.68433 11.409262,4.710458 11.40087,4.766742 11.395642,4.792617 11.377985,4.849685 11.368606,4.876944 11.345811,4.931187 11.334556,4.95962 11.314613,5.013054 11.302523,5.04272 11.285507,5.092403 11.270749,5.12518 11.245716,5.175548 11.231696,5.208416 11.207284,5.256844 11.192847,5.29154 11.169728,5.33854 11.154832,5.374886 11.132587,5.420209 11.113367,5.458785 11.089484,5.50051 11.062914,5.54335 11.033216,5.592683 11.015194,5.620887 10.995617,5.647412 10.96486,5.689711 10.939028,5.723674 10.913203,5.755679 10.870372,5.802561 10.835372,5.84206 10.802023,5.87906 10.759949,5.923114 10.730823,5.951008 10.712602,5.965395 10.65873,6.008405 10.603914,6.047848 10.58377,6.061662 10.540766,6.092081 10.508585,6.113395 10.494689,6.122756 10.433832,6.164763 10.383825,6.201896 10.358597,6.220385 10.304038,6.256834 10.283024,6.271099 10.273409,6.277733 10.206594,6.318226 10.167178,6.342799 10.130213,6.364943 10.061009,6.407668 10.054006,6.411295 10.036726,6.42264 9.978843,6.462928 9.952279,6.48269 9.904158,6.516182 9.839794,6.561386 9.828135,6.568795 9.796398,6.586263 9.750261,6.60808 9.737024,6.615004 9.671405,6.643044 9.637203,6.66139 9.593845,6.683845 9.535232,6.712159 9.515488,6.72158 9.501528,6.725905 9.399183,6.751571 9.38929,6.75495 9.313314,6.752111 9.301859,6.753395 9.196357,6.760729 9.181595,6.76065 9.172415,6.762304 9.152966,6.765651 9.035155,6.783281 8.988226,6.783186 8.943743,6.779444 8.914407,6.775353 8.865381,6.770049 8.809778,6.759183 8.790423,6.755356 8.731053,6.748901 8.727544,6.747614 8.632714,6.711508 8.608593,6.705607 8.541061,6.692577 8.511644,6.695114 8.455108,6.700066 8.429981,6.705815 8.371434,6.716631 8.352205,6.719217 8.289698,6.743141 8.284017,6.745444 8.230399,6.75614 8.208853,6.761121 8.206159,6.761361 8.130063,6.77533 8.121465,6.777282 8.055219,6.791363 8.03766,6.792515 7.973295,6.799167 7.952649,6.804663 7.899704,6.817757 7.869925,6.827092 7.818263,6.827764 7.78278,6.831424 7.736782,6.835424 7.698649,6.842678 7.65893,6.84765 7.611624,6.847431 7.571232,6.850265 7.523546,6.85031 7.47417,6.856847 7.446583,6.868122 7.409155,6.868799 7.35348,6.875135 7.33367,6.884071 7.271628,6.894243 7.258922,6.898932 7.184774,6.899547 7.172252,6.901269 7.098714,6.906504 7.088507,6.907127 7.010566,6.906531 7.001035,6.907562 6.921465,6.901303 6.907958,6.900763 6.830885,6.889121 6.808841,6.886096 6.738315,6.873244 6.698464,6.862077 6.646131,6.860771 6.609755,6.860097 6.560657,6.867273 6.532304,6.871206 6.478534,6.885581 6.458127,6.887408 6.390395,6.890021 6.371162,6.89116 6.302682,6.890894 6.280625,6.890924 6.213476,6.890629 6.19105,6.890715 6.129371,6.8973 6.113366,6.897782 6.041836,6.899806 6.02581,6.90127 5.976439,6.891614 5.952281,6.888659 5.928791,6.886392 5.86541,6.885731 5.841407,6.883774 5.745395,6.875117 5.726469,6.874309 5.662744,6.866262 5.643148,6.863626 5.580895,6.854119 5.56052,6.850802 5.498792,6.835099 5.477345,6.829518 5.416914,6.813691 5.393911,6.806093 5.334012,6.792012 5.310547,6.788304 5.252305,6.779355 5.227544,6.773642 5.169268,6.767268 5.144085,6.764252 5.086097,6.764292 5.060807,6.760934 5.003249,6.754399 4.977367,6.751258 4.92074,6.743373 4.894476,6.738915 4.839089,6.730316 4.81169,6.725682 4.756339,6.714021 4.727864,6.707546 4.67377,6.700096 4.644885,6.695785 4.591869,6.688667 4.561836,6.68351 4.531785,6.684967 4.479277,6.674413 4.447736,6.677035 4.395864,6.672564 4.344528,6.673097 4.312795,6.674175 4.261326,6.674818 4.229585,6.676148 4.178253,6.680759 4.146474,6.681284 4.094911,6.6839 4.063261,6.686178 4.011556,6.692086 3.979953,6.692191 3.948363,6.693134 3.896713,6.698426 3.865138,6.698612 3.813417,6.703529 3.760844,6.70353 3.7299,6.703667 3.698786,6.702156 3.646639,6.704613 3.595076,6.698341 3.562953,6.694488 3.512495,6.687101 3.479014,6.68019 3.428405,6.668042 3.395162,6.658695 3.346527,6.639402 3.311779,6.625497 3.265186,6.59556 3.228054,6.572171 3.183871,6.544002 3.144939,6.518862 3.103706,6.501559 3.062645,6.490493 3.022177,6.475861 2.979487,6.47009 2.93538,6.463465 2.896727,6.453332 2.851098,6.447598 2.813206,6.438488 2.76678,6.431634 2.731102,6.424563 2.683277,6.41181 2.64737,6.399716 2.599377,6.377952 2.566546,6.362065 2.514506,6.338514 2.482186,6.323492 2.430199,6.28689 2.401091,6.271437 2.344856,6.234779 2.318084,6.221344 2.292343,6.211667 2.232025,6.180038 2.207534,6.170778 2.149143,6.147681 2.126187,6.141961 2.064728,6.11328 2.043057,6.106951 1.983456,6.08656 1.963513,6.076898 1.899081,6.045621 1.880737,6.036343 1.816637,6.008955 1.800242,6.000792 1.733172,5.965986 1.719085,5.956834 1.65165,5.909465 1.640592,5.901067 1.564615,5.840549 1.55614,5.832962 1.501803,5.788153 1.482187,5.771436 1.479364,5.769766 1.476243,5.767284 1.385808,5.692163 1.377045,5.684076 1.306743,5.606611 1.301596,5.601296 1.22648,5.523297 1.224687,5.521293 1.167078,5.467677 1.137979,5.440375 1.136721,5.439343 1.051006,5.360438 1.046098,5.356069 0.98123,5.281122 0.974637,5.273722 0.91788,5.203684 0.910482,5.192717 0.870663,5.121373 0.866249,5.108804 0.854946,5.035406 0.851803,5.02274 0.825128,4.954323 0.81856,4.939408 0.777158,4.873529 0.765699,4.857308 0.739184,4.794525 0.73275,4.775591 0.711808,4.711472 0.705293,4.69143 0.691128,4.628441 0.684183,4.607704 0.671114,4.54908 0.662499,4.526642 0.633371,4.467677 0.620975,4.44245 0.590021,4.382723 0.578626,4.3585 0.557008,4.302746 0.547363,4.27573 0.524608,4.219675 0.515017,4.191703 0.502089,4.138167 0.498324,4.109128 0.487094,4.056051 0.481458,4.025874 0.479624,3.995701 0.476774,3.943778 0.472796,3.891638 0.469562,3.860167 0.468468,3.809308 0.465387,3.777467 0.459733,3.726725 0.45608,3.694247 0.455277,3.661465 0.454032,3.611306 0.453641,3.578023 0.45343,3.528326 0.457383,3.494706 0.459415,3.445385 0.463495,3.412135 0.473215,3.36234 0.480327,3.328753 0.488426,3.279728 0.496339,3.247035 0.511859,3.196373 0.522303,3.16369 0.536363,3.113951 0.545531,3.08323 0.566731,3.03053 0.587345,2.983655 0.592615,2.970617 0.623956,2.890501 0.625762,2.886931 0.662527,2.810558 0.663287,2.80923 0.695191,2.756105 0.706405,2.737562 0.70667,2.7371 0.751339,2.666908 0.752616,2.664932 0.800613,2.601447 0.802985,2.597953 0.848638,2.532573 0.851777,2.528439 0.900262,2.47093 0.904853,2.464961 0.954983,2.408618 0.960341,2.402294 0.966195,2.396145 1.018625,2.343214 1.025436,2.336294 1.076109,2.283303 1.084044,2.275209 1.13643,2.226071 1.184325,2.175025 1.193968,2.16594 1.203483,2.156246 1.252735,2.107082 1.263687,2.096785 1.313993,2.050673 1.326154,2.039127 1.373618,1.99303 1.387206,1.980994 1.434514,1.93651 1.448397,1.923883 1.497087,1.881422 1.514555,1.870349 1.570066,1.83702 1.58745,1.824858 1.640579,1.789228 1.657511,1.775188 1.703911,1.740072 1.72177,1.725433 1.77664,1.690921 1.7958,1.678493 1.848463,1.644975 1.868216,1.632142 1.923807,1.60128 1.94682,1.590155 1.999795,1.560882 2.047588,1.543223 2.096617,1.525882 2.124974,1.513885 2.178367,1.496309 2.206235,1.485945 2.263434,1.467009 2.288519,1.456856 2.343995,1.443754 2.368235,1.432553 2.428968,1.407104 2.45237,1.401156 2.512138,1.384797 2.53459,1.38212 2.594764,1.381016 2.616879,1.379734 2.678767,1.375636 2.700688,1.372995 2.761653,1.35591 2.783016,1.35429 2.845045,1.3546 2.865928,1.350939 2.927973,1.341512 2.94818,1.338365 3.011045,1.329319 3.030695,1.327291 3.094328,1.319375 3.113624,1.319176 3.177535,1.311002 3.242378,1.314764 3.260975,1.316868 3.324114,1.337139 3.344091,1.341571 3.406377,1.364814 3.427231,1.373601 3.488544,1.375583 3.510179,1.381517 3.531781,1.377422 3.593312,1.359002 3.613446,1.35446 3.676474,1.339055 3.696365,1.337421 3.759977,1.330231 3.822764,1.338761 3.843049,1.344257 3.904743,1.368237 3.926336,1.372294 3.987135,1.387116 4.009654,1.383999 4.031378,1.381435 4.09324,1.377422 4.114392,1.376823 4.176089,1.373724 4.238925,1.383393 4.260317,1.384164 4.320046,1.397112 4.343038,1.404688 4.403078,1.432412 4.42704,1.444266 4.483857,1.457241 4.50884,1.465076 4.532746,1.46405 4.590569,1.460977 4.617308,1.457967 4.675064,1.446487 4.700387,1.442519 4.758968,1.421686 4.783361,1.417782 4.841926,1.401715 4.866092,1.399819 4.923811,1.399474 4.945698,1.392245 5.008368,1.376643 5.030327,1.370056 5.091865,1.340029 5.113425,1.332997 5.174681,1.313601 5.194101,1.308108 5.256903,1.293238 5.274133,1.291711 5.340427,1.292754 5.405229,1.302774 5.42386,1.30384 5.442324,1.301057 5.507679,1.307386 5.527191,1.299419 5.590404,1.278635 5.608326,1.274803 5.674197,1.241827 5.690211,1.239312 5.757585,1.223812 5.772954,1.219718 5.840504,1.210434 5.855133,1.208073 5.923119,1.205032 5.937281,1.203617 6.006297,1.203873 6.020295,1.202812 6.089336,1.198401 6.15776,1.199957 6.172727,1.204343 6.187799,1.208991 6.241275,1.229226 6.32335,1.249868 6.338902,1.250318 6.354329,1.247595 6.421984,1.247693 6.444541,1.243308 6.504619,1.229781 6.55295,1.217554 6.594049,1.213002 6.659988,1.200769 6.669488,1.203176 6.68926,1.207953 6.72927,1.211148 6.760997,1.18957 6.816226,1.180233 6.915426,1.157659 6.918537,1.155459 7.00402,1.122361 7.090953,1.021403 7.106289,1.019871 7.173606,0.985666 7.189171,0.985523 7.232608,1.000067 7.343172,0.966424 7.348521,0.965608 7.417058,0.978595 7.456702,0.986121 7.491167,0.987363 7.55341,0.976463 7.575167,0.971338 7.647804,0.959218 7.657473,0.960731 7.73362,0.945091 7.742135,0.943843 7.744014,0.944542 7.818773,0.985119 7.854097,0.978928 7.882354,0.979476 7.939064,0.993164 7.955282,0.99622 8.051297,1.060175 8.076006,1.063113 8.086355,1.061863 8.09686,1.059523 8.170412,1.060002 8.181471,1.056449 8.254202,1.045422 8.263488,1.039982 8.339152,1.020532 8.350274,1.013492 8.421937,0.992209 8.429267,0.989296 8.506114,0.964182 8.513328,0.962122 8.58842,0.941817 8.594196,0.940317 8.66999,0.925798 8.674025,0.924747 8.752448,0.907194 8.756085,0.906711 8.834771,0.905078" style="fill: white" />
</svg>
