<svg width="12.953712" height="10.039674">
<polygon type="contour" points="7.670127,0.04618 7.749446,0.055823 7.753642,0.056003 7.832904,0.071575 7.837688,0.072052 7.915217,0.091634 7.921498,0.093038 7.997334,0.126571 8.005489,0.128092 8.014284,0.131629 8.087993,0.169305 8.098783,0.1736 8.170737,0.215416 8.184218,0.219815 8.253521,0.2369 8.267712,0.240286 8.336184,0.244161 8.405063,0.249232 8.41971,0.252372 8.487847,0.254911 8.502726,0.257279 8.570403,0.266358 8.585808,0.268932 8.652395,0.285381 8.669059,0.288974 8.686986,0.295882 8.719098,0.31042 8.772232,0.330171 8.797404,0.342132 8.851756,0.359021 8.883298,0.365954 8.942367,0.370884 8.981173,0.370349 9.033945,0.378231 9.069454,0.387478 9.117125,0.398754 9.15495,0.408329 9.198049,0.423578 9.233324,0.439318 9.276945,0.453374 9.316949,0.466112 9.35177,0.486924 9.390607,0.504946 9.426496,0.527216 9.462798,0.547632 9.495776,0.572777 9.52687,0.601418 9.562909,0.623334 9.596902,0.646561 9.632548,0.669074 9.667013,0.690994 9.704302,0.712328 9.738609,0.733262 9.774888,0.756197 9.811271,0.774213 9.850301,0.794651 9.885792,0.813111 9.921976,0.838909 9.953686,0.86179 9.98203,0.889039 10.01462,0.919721 10.040215,0.954066 10.068812,0.989548 10.097609,1.018635 10.128032,1.049625 10.159686,1.07641 10.193478,1.100916 10.225954,1.126583 10.258493,1.153402 10.293143,1.176897 10.327851,1.198816 10.364367,1.221359 10.397558,1.244426 10.433936,1.267427 10.468016,1.288759 10.503053,1.314023 10.536036,1.336485 10.567063,1.362228 10.599642,1.391946 10.630994,1.418413 10.662069,1.448037 10.690983,1.477087 10.72035,1.509161 10.747793,1.543433 10.776236,1.574834 10.804059,1.610586 10.832533,1.640675 10.859215,1.678941 10.884446,1.711595 10.909358,1.741478 10.936687,1.782564 10.960091,1.813386 10.992947,1.846222 11.02628,1.881478 11.049485,1.911402 11.082221,1.948383 11.105156,1.977159 11.135026,2.022865 11.15577,2.051113 11.185605,2.099115 11.203195,2.130554 11.235022,2.180112 11.252427,2.205584 11.283135,2.25815 11.298872,2.28415 11.328167,2.343962 11.340545,2.37041 11.370049,2.434604 11.381259,2.458021 11.41187,2.526249 11.421374,2.545164 11.460556,2.608108 11.470803,2.62346 11.508823,2.689825 11.515745,2.704805 11.549947,2.787265 11.555184,2.798135 11.593991,2.878055 11.5976,2.885586 11.633212,2.970759 11.635013,2.975404 11.664762,3.068233 11.668015,3.078522 11.668115,3.078865 11.66821,3.079289 11.695362,3.184497 11.712076,3.291643 11.713856,3.305983 11.716035,3.352862 11.71977,3.455805 11.720677,3.491267 11.723009,3.570315 11.725874,3.613085 11.72958,3.652703 11.732338,3.712405 11.733327,3.735963 11.737968,3.795717 11.739302,3.819595 11.740559,3.878703 11.74075,3.902494 11.742768,3.961682 11.742537,4.020854 11.740945,4.044807 11.736058,4.104466 11.73538,4.127911 11.736531,4.187078 11.734242,4.210901 11.729806,4.270943 11.728825,4.293986 11.723457,4.354701 11.721571,4.377364 11.717517,4.437711 11.714388,4.460022 11.702181,4.522212 11.698873,4.543469 11.687999,4.605551 11.684721,4.625859 11.66954,4.689727 11.665331,4.709217 11.653647,4.773261 11.649414,4.791792 11.633186,4.857832 11.630182,4.874555 11.611725,4.941301 11.606522,4.957372 11.581871,5.026816 11.577237,5.040277 11.5421,5.112161 11.536638,5.123952 11.497959,5.197313 11.493362,5.206334 11.445342,5.283886 11.442029,5.289739 11.399142,5.368352 11.39703,5.371794 11.352195,5.452215 11.351561,5.453176 11.336516,5.474628 11.292303,5.537998 11.29079,5.540805 11.229208,5.620345 11.226124,5.626697 11.186118,5.702915 11.182496,5.710734 11.140107,5.787638 11.133521,5.799555 11.087707,5.869791 11.07945,5.882942 11.01886,5.955215 11.003635,5.975788 10.967752,6.035621 10.95101,6.056315 10.900541,6.119185 10.875753,6.145909 10.825536,6.201267 10.798966,6.231398 10.754797,6.284268 10.719096,6.324612 10.68703,6.373239 10.65275,6.409418 10.620438,6.451848 10.558676,6.499257 10.527082,6.533217 10.486614,6.566809 10.476206,6.573886 10.46185,6.582606 10.398349,6.62398 10.391022,6.628455 10.315108,6.683682 10.294613,6.699615 10.241995,6.737095 10.144283,6.820909 10.143328,6.821657 10.06821,6.886581 10.063492,6.890653 9.986081,6.947152 9.978688,6.952197 9.905692,6.982721 9.896451,6.986346 9.824361,7.022787 9.812713,7.029381 9.740988,7.078096 9.727503,7.086113 9.712997,7.0901 9.645649,7.11887 9.629673,7.125516 9.56345,7.152539 9.54494,7.162727 9.476866,7.197753 9.456877,7.208485 9.39672,7.245413 9.373829,7.25655 9.314506,7.289336 9.28851,7.307019 9.228575,7.340512 9.202232,7.357045 9.145823,7.390541 9.114252,7.407131 9.061153,7.433706 9.030639,7.445173 8.979419,7.470671 8.944543,7.485818 8.896421,7.506642 8.859783,7.52342 8.812385,7.540846 8.774987,7.560772 8.728225,7.581419 8.686434,7.600689 8.645675,7.624699 8.604811,7.65827 8.562557,7.69222 8.524263,7.70405 8.47996,7.717565 8.443682,7.720424 8.396993,7.725079 8.359156,7.72819 8.312922,7.733498 8.27624,7.742727 8.229706,7.755171 8.193464,7.76662 8.145678,7.783625 8.111438,7.793286 8.062214,7.810182 8.029209,7.823447 7.980261,7.834025 7.92925,7.846572 7.896972,7.858743 7.844583,7.870902 7.813112,7.882509 7.761443,7.892247 7.731744,7.898185 7.676607,7.922244 7.6471,7.931784 7.590852,7.960229 7.563552,7.973219 7.505582,7.995452 7.480206,8.004336 7.419948,8.024045 7.396294,8.03023 7.336324,8.038944 7.313169,8.044475 7.253328,8.046022 7.230268,8.049222 7.207106,8.047534 7.146994,8.039094 7.087994,8.039127 7.0639,8.038373 7.004526,8.046373 6.980629,8.048997 6.921224,8.05748 6.897789,8.063846 6.837406,8.080256 6.814567,8.088084 6.754901,8.097141 6.732438,8.104434 6.672257,8.110981 6.64852,8.114368 6.586366,8.112714 6.564952,8.108269 6.503671,8.10781 6.481186,8.107175 6.419731,8.114816 6.398079,8.115133 6.336052,8.124476 6.314495,8.125331 6.2524,8.138034 6.231318,8.140834 6.168767,8.14205 6.147686,8.142007 6.125955,8.137314 6.064117,8.128565 6.042544,8.122984 5.981167,8.100238 5.956114,8.089287 5.897823,8.06587 5.871213,8.05534 5.815433,8.032208 5.787792,8.022833 5.733198,7.995066 5.701834,7.980135 5.648447,7.949741 5.613635,7.929382 5.565779,7.897746 5.516057,7.854378 5.507836,7.847786 5.43052,7.776038 5.418565,7.765774 5.405824,7.754687 5.346492,7.68567 5.296225,7.619001 5.283082,7.600882 5.270249,7.581807 5.222869,7.516217 5.213498,7.493924 5.189877,7.433108 5.187176,7.407737 5.172512,7.348798 5.166557,7.322533 5.152708,7.264866 5.13974,7.237474 5.127534,7.181189 5.100228,7.128079 5.078375,7.097389 5.051905,7.047568 5.043306,7.014149 5.03818,6.980195 5.023828,6.931834 5.01588,6.895888 5.000962,6.849331 4.996337,6.812508 4.965377,6.772295 4.96083,6.734747 4.949834,6.674298 4.902897,6.567723 4.873237,6.543692 4.8199,6.543736 4.78908,6.528776 4.736736,6.522251 4.705544,6.52224 4.653807,6.509669 4.621174,6.500496 4.570386,6.500421 4.519373,6.504267 4.48728,6.50574 4.436486,6.512511 4.404119,6.516435 4.352691,6.521504 4.320567,6.520625 4.269364,6.519194 4.237922,6.519114 4.206201,6.518035 4.154461,6.514691 4.121392,6.51161 4.071277,6.508599 4.021137,6.501744 3.988166,6.504248 3.95554,6.508357 3.904604,6.504034 3.855101,6.505463 3.821628,6.511778 3.771923,6.510531 3.738232,6.515493 3.688752,6.522188 3.655009,6.52556 3.606167,6.534832 3.572105,6.538843 3.521676,6.549231 3.488702,6.552588 3.439035,6.555164 3.405696,6.559628 3.354974,6.562595 3.322447,6.566386 3.288504,6.561434 3.238719,6.563661 3.204906,6.55796 3.155386,6.553936 3.119316,6.541683 3.07137,6.53132 3.033989,6.52186 2.989013,6.513468 2.951136,6.498885 2.905987,6.487402 2.866624,6.477585 2.82253,6.468039 2.781839,6.462586 2.74115,6.451706 2.698926,6.441596 2.656022,6.432069 2.61168,6.416547 2.573205,6.409022 2.52891,6.397048 2.490338,6.387459 2.444734,6.374877 2.407224,6.361701 2.358573,6.344583 2.324365,6.334315 2.274889,6.3152 2.24113,6.299005 2.188224,6.273852 2.157725,6.258241 2.104284,6.228691 2.075812,6.21082 2.017103,6.168487 1.993263,6.151358 1.93572,6.11887 1.911605,6.102028 1.85002,6.054036 1.830438,6.039127 1.806347,6.013182 1.778233,5.983094 1.735994,5.93857 1.709413,5.897122 1.67953,5.855849 1.650086,5.81158 1.623378,5.773973 1.503933,5.658576 1.501989,5.656814 1.501007,5.656031 1.417958,5.579231 1.407834,5.567995 1.363463,5.523981 1.303702,5.457983 1.291576,5.439408 1.227109,5.367833 1.216216,5.354866 1.173701,5.28057 1.168206,5.270596 1.135985,5.190113 1.134032,5.184612 1.090438,5.102241 1.089353,5.100044 1.056897,5.019005 1.056436,5.017933 1.046224,4.992482 1.022658,4.933058 1.021785,4.930674 0.994096,4.849566 0.991425,4.844968 0.956282,4.76568 0.952853,4.758634 0.917584,4.682386 0.91408,4.672781 0.881472,4.598831 0.876864,4.586426 0.845908,4.514979 0.845395,4.49966 0.824474,4.43352 0.820803,4.417883 0.802905,4.350865 0.799347,4.334374 0.78476,4.267457 0.785136,4.249603 0.780872,4.18372 0.783602,4.120652 0.78717,4.100481 0.786055,4.037794 0.787381,4.017489 0.78704,3.997527 0.778638,3.934292 0.778543,3.913978 0.772597,3.851103 0.773551,3.82963 0.772352,3.767816 0.781508,3.706376 0.777278,3.675802 0.775893,3.662944 0.769818,3.601754 0.770391,3.579145 0.770614,3.518731 0.783249,3.457557 0.786381,3.435616 0.789977,3.417966 0.804923,3.364832 0.822799,3.309084 0.839336,3.259277 0.860836,3.207842 0.889048,3.141197 0.906364,3.105734 0.928732,3.063745 0.945461,3.033218 0.951464,3.019076 0.980286,2.945639 0.985132,2.935123 0.994322,2.862248 0.997885,2.85221 1.000353,2.832116 1.003762,2.767199 1.016293,2.701218 1.024651,2.668736 1.047823,2.600085 1.064845,2.556044 1.074235,2.534731 1.09825,2.484245 1.098551,2.48374 1.142343,2.410847 1.177804,2.356038 1.196423,2.33284 1.233936,2.295862 1.256213,2.269417 1.297368,2.225487 1.359234,2.15854 1.361175,2.156416 1.364471,2.152989 1.427185,2.093513 1.457152,2.064965 1.478048,2.044559 1.528206,2.00164 1.540506,1.990075 1.549963,1.98008 1.600374,1.92875 1.610679,1.917586 1.660672,1.871124 1.710748,1.826772 1.722763,1.815912 1.775046,1.773585 1.787348,1.763025 1.839711,1.723012 1.853846,1.712321 1.914905,1.677144 1.929639,1.66876 1.988626,1.63287 2.007277,1.622666 2.055719,1.590687 2.069592,1.583165 2.139235,1.545247 2.181623,1.526167 2.209512,1.513108 2.248215,1.493712 2.291938,1.473355 2.323146,1.459811 2.356723,1.444728 2.400628,1.426298 2.435386,1.41206 2.500783,1.389697 2.518132,1.383872 2.595815,1.367722 2.603704,1.365899 2.678334,1.362987 2.68563,1.361445 2.760893,1.358104 2.767761,1.355862 2.845801,1.334515 2.85574,1.330661 2.929436,1.30448 2.941063,1.301065 3.010807,1.276765 3.022571,1.274786 3.095987,1.248289 3.111253,1.246421 3.178311,1.227816 3.194383,1.227798 3.260778,1.224489 3.328755,1.233421 3.343933,1.236224 3.413847,1.250508 3.427126,1.252385 3.440785,1.251965 3.510406,1.26215 3.523825,1.258343 3.593498,1.252216 3.60795,1.248023 3.676598,1.234863 3.691055,1.233309 3.759741,1.227958 3.8303,1.238146 3.843849,1.239571 3.910906,1.258501 3.924798,1.26425 3.995239,1.300183 4.006603,1.306477 4.086877,1.36275 4.175935,1.382187 4.251829,1.3556 4.259518,1.352455 4.333634,1.330407 4.342653,1.327975 4.41589,1.310872 4.425949,1.30925 4.436157,1.30921 4.509176,1.301872 4.579075,1.315154 4.589565,1.31707 4.665565,1.326624 4.674927,1.328918 4.747736,1.343852 4.757312,1.347106 4.833131,1.350782 4.841163,1.352949 4.916383,1.374813 4.923543,1.376407 5.004222,1.410757 5.008261,1.411737 5.087256,1.436143 5.090487,1.436903 5.173052,1.458009 5.255991,1.470155 5.334423,1.432642 5.416232,1.336073 5.420171,1.328698 5.443197,1.288006 5.452136,1.268687 5.48115,1.208326 5.492762,1.188017 5.521107,1.13074 5.535046,1.106692 5.564529,1.056448 5.57854,1.031427 5.603727,0.978931 5.616901,0.949098 5.637234,0.8952 5.651609,0.857231 5.670813,0.808698 5.688938,0.774431 5.709065,0.731258 5.726093,0.692023 5.744159,0.64883 5.763754,0.6041 5.781155,0.567588 5.804977,0.525793 5.825416,0.495541 5.858748,0.461304 5.881487,0.433685 5.919188,0.400871 5.943516,0.378258 5.969476,0.359186 6.011413,0.32944 6.040801,0.314012 6.088779,0.288107 6.151452,0.260293 6.174245,0.250083 6.24401,0.224375 6.256337,0.219106 6.32557,0.198562 6.338566,0.193713 6.412449,0.172395 6.422571,0.170469 6.432694,0.171484 6.505862,0.164645 6.515513,0.166972 6.588275,0.171058 6.661095,0.172556 6.671896,0.173666 6.745276,0.155027 6.754805,0.153133 6.829959,0.127182 6.838182,0.123677 6.914549,0.095439 6.921041,0.093424 6.997328,0.073418 7.00254,0.072428 7.082959,0.0658 7.087731,0.065426 7.092563,0.065721 7.17077,0.073019 7.176162,0.074134 7.2538,0.090016 7.26006,0.091203 7.336514,0.088004 7.342144,0.088066 7.419777,0.069477 7.424122,0.068974 7.502668,0.056841 7.505752,0.056581 7.586631,0.050241 7.66647,0.045893" style="fill: white" />
</svg>
