<svg width="12.953712" height="10.039674">
<polygon type="contour" points="7.775598,0.553374 7.858972,0.560483 7.892548,0.567267 7.923966,0.574484 7.986858,0.602645 7.997116,0.60854 8.006431,0.612192 8.072722,0.638358 8.125799,0.660217 8.139728,0.663761 8.152428,0.667319 8.232906,0.691925 8.282451,0.710115 8.306035,0.724845 8.332623,0.733815 8.393902,0.77714 8.417669,0.782304 8.47557,0.812908 8.50122,0.813409 8.559325,0.826581 8.584685,0.823587 8.642148,0.833346 8.66782,0.831168 8.727097,0.842749 8.751687,0.841431 8.807227,0.845766 8.833411,0.847812 8.891187,0.860215 8.916149,0.862992 8.974626,0.881449 8.999347,0.885635 9.055861,0.901696 9.082285,0.909531 9.1388,0.924375 9.165414,0.931603 9.221394,0.945832 9.248926,0.951895 9.304863,0.964875 9.332434,0.970402 9.386926,0.97799 9.415613,0.982497 9.468672,0.990383 9.498781,0.996583 9.551167,1.0035 9.6129,1.020926 9.663795,1.033865 9.706513,1.048472 9.718547,1.052867 9.781567,1.08591 9.789707,1.090338 9.856433,1.129642 9.861867,1.132579 9.866924,1.1361 9.926817,1.184708 9.931932,1.188787 9.992624,1.235635 9.996363,1.239588 10.050513,1.298567 10.054063,1.301597 10.115111,1.3518 10.184566,1.387277 10.189906,1.38998 10.262584,1.418505 10.269197,1.421438 10.336364,1.457091 10.342654,1.461054 10.348545,1.465858 10.408109,1.512451 10.414671,1.517934 10.470643,1.567933 10.476431,1.572863 10.53035,1.626842 10.534661,1.63101 10.589156,1.688075 10.593359,1.691858 10.651961,1.743394 10.655691,1.746879 10.713657,1.799455 10.716574,1.803026 10.770524,1.865513 10.773672,1.869579 10.824543,1.931476 10.826217,1.934616 10.870464,2.010751 10.871245,2.012115 10.910383,2.077877 10.917301,2.089491 10.973421,2.157768 11.027729,2.221506 11.028628,2.222718 11.07629,2.29319 11.078179,2.296215 11.121366,2.37159 11.124054,2.376347 11.166153,2.450279 11.169874,2.456633 11.209015,2.535057 11.213373,2.54347 11.221757,2.560075 11.257128,2.631767 11.282817,2.687445 11.297106,2.716221 11.319906,2.767809 11.335557,2.798573 11.355718,2.849378 11.368803,2.881528 11.386253,2.931824 11.397654,2.96565 11.407262,3.013434 11.414089,3.047489 11.425435,3.095001 11.433769,3.131053 11.443539,3.178853 11.448555,3.214637 11.455399,3.260878 11.459873,3.297601 11.467123,3.34312 11.473773,3.381053 11.48223,3.427805 11.485579,3.464183 11.491653,3.509393 11.497971,3.547794 11.503289,3.593232 11.505661,3.630779 11.510098,3.675574 11.514163,3.714019 11.516626,3.758065 11.520082,3.797136 11.524573,3.841546 11.526442,3.880135 11.528785,3.923413 11.532515,3.963314 11.536611,4.00685 11.538033,4.04642 11.537985,4.089692 11.540141,4.129731 11.540728,4.169133 11.540341,4.212697 11.540115,4.251921 11.539611,4.295701 11.535786,4.334977 11.532918,4.378514 11.527797,4.416698 11.519937,4.461912 11.51416,4.499978 11.506312,4.544525 11.496945,4.581674 11.48553,4.62778 11.475669,4.663808 11.466648,4.710122 11.457207,4.74458 11.447663,4.793646 11.438547,4.827637 11.427775,4.877166 11.417013,4.911993 11.402194,4.960432 11.39133,4.991482 11.370284,5.042252 11.356562,5.073327 11.336056,5.12593 11.324766,5.154713 11.302558,5.208537 11.290545,5.234363 11.258138,5.292701 11.240368,5.319128 11.209302,5.376018 11.195547,5.397431 11.157205,5.458489 11.140756,5.480475 11.101452,5.543452 11.091196,5.561007 11.055665,5.62453 11.007995,5.692023 10.997565,5.705297 10.935032,5.779804 10.926099,5.790294 10.852349,5.872488 10.84883,5.876389 10.847679,5.877741 10.84285,5.882415 10.772518,5.950124 10.720793,5.995845 10.700173,6.013214 10.66484,6.042078 10.625223,6.072347 10.605229,6.086531 10.552386,6.118791 10.502581,6.156261 10.47738,6.173796 10.423618,6.211304 10.402843,6.22845 10.39022,6.239841 10.329756,6.294164 10.267816,6.351073 10.257295,6.359937 10.240141,6.374856 10.185449,6.424039 10.153222,6.447741 10.111376,6.478168 10.044051,6.52512 10.03652,6.530052 10.020989,6.542169 9.961077,6.57979 9.939313,6.586759 9.881695,6.615638 9.842869,6.628949 9.805647,6.64087 9.735721,6.680766 9.723262,6.686512 9.689307,6.706594 9.647192,6.728197 9.59801,6.743403 9.566062,6.752863 9.521057,6.764289 9.478275,6.77587 9.435075,6.777913 9.390053,6.782891 9.349949,6.783726 9.305651,6.787337 9.266508,6.789676 9.220116,6.796825 9.18103,6.807549 9.133137,6.811256 9.095576,6.812149 9.047337,6.813192 8.997033,6.819647 8.964859,6.819074 8.933941,6.818008 8.878194,6.823638 8.844953,6.817402 8.79172,6.829833 8.766441,6.829011 8.705597,6.837577 8.63453,6.855269 8.62269,6.85465 8.538717,6.867516 8.514048,6.877548 8.459381,6.909279 8.440372,6.916832 8.376882,6.930708 8.342579,6.951556 8.299707,6.973302 8.246009,6.98475 8.216496,6.991714 8.145686,7.038599 8.141658,7.041279 8.127563,7.048058 8.062904,7.078625 8.044718,7.087023 7.983835,7.117669 7.941968,7.13206 7.905306,7.15496 7.837472,7.194299 7.828796,7.198451 7.763837,7.212504 7.745302,7.215946 7.743316,7.216491 7.656327,7.217983 7.576401,7.243244 7.560482,7.245836 7.48973,7.25201 7.470034,7.247891 7.399798,7.242734 7.382857,7.249323 7.316799,7.262127 7.290484,7.263487 7.224864,7.249591 7.206203,7.248249 7.13948,7.255845 7.119882,7.250443 7.046062,7.234265 7.035811,7.235829 6.970745,7.21571 6.952049,7.21058 6.868082,7.207402 6.862769,7.205731 6.791742,7.166619 6.757645,7.135934 6.719911,7.110636 6.65383,7.086848 6.636587,7.077561 6.589993,7.05096 6.565241,7.036954 6.556312,7.032491 6.495163,6.980863 6.457184,6.979771 6.411036,6.961751 6.363378,6.961776 6.315164,6.960878 6.270787,6.946203 6.20877,6.940416 6.177145,6.931665 6.106056,6.923491 6.085756,6.919051 6.013574,6.915434 5.997778,6.913411 5.928634,6.918734 5.911315,6.918896 5.844926,6.922963 5.825097,6.922457 5.75398,6.915936 5.722492,6.912271 5.666787,6.902932 5.606311,6.887367 5.560091,6.876575 5.524493,6.869795 5.478241,6.860599 5.443264,6.852213 5.394443,6.83601 5.360215,6.828045 5.311158,6.815631 5.278057,6.811371 5.228163,6.803358 5.196117,6.802547 5.145202,6.8018 5.113256,6.798238 5.061856,6.798513 5.029991,6.795563 4.978211,6.790658 4.947406,6.784979 4.895458,6.777058 4.864863,6.770851 4.811687,6.757822 4.782838,6.752505 4.728936,6.744942 4.700659,6.741321 4.645498,6.735493 4.617566,6.731924 4.562946,6.721974 4.535862,6.719718 4.479313,6.70763 4.453134,6.706625 4.396157,6.700516 4.37047,6.699773 4.313204,6.698826 4.288003,6.695909 4.230343,6.694679 4.205919,6.691144 4.147196,6.690788 4.08875,6.700905 4.064082,6.703406 4.005683,6.709695 3.981036,6.711228 3.922547,6.717056 3.897839,6.719829 3.839248,6.725977 3.814466,6.72922 3.789704,6.729413 3.731105,6.731511 3.706152,6.731861 3.647303,6.733061 3.622428,6.732907 3.563614,6.731695 3.539508,6.72988 3.479665,6.725388 3.455313,6.719907 3.395586,6.70843 3.373221,6.700137 3.312861,6.669859 3.290821,6.663159 3.228948,6.630437 3.209044,6.625289 3.143445,6.597286 3.124402,6.591346 3.061397,6.571167 3.044699,6.562358 2.977297,6.529695 2.963826,6.518891 2.895376,6.472244 2.88389,6.463198 2.813719,6.431584 2.739657,6.397616 2.732654,6.394186 2.654331,6.366274 2.648783,6.36496 2.643344,6.364172 2.565162,6.33499 2.561115,6.334352 2.479418,6.309465 2.475852,6.308352 2.397381,6.283969 2.395544,6.282972 2.314782,6.250096 2.314507,6.249982 2.302115,6.245084 2.232202,6.217646 2.154494,6.201108 2.151195,6.199848 2.07027,6.182553 2.066585,6.181622 1.988687,6.15991 1.983783,6.158468 1.906944,6.119592 1.900056,6.116253 1.826976,6.084245 1.817912,6.079643 1.744203,6.043253 1.733469,6.037873 1.664208,5.999257 1.651034,5.990609 1.581395,5.931029 1.565654,5.919032 1.510285,5.863301 1.484651,5.840436 1.469277,5.823057 1.421945,5.771075 1.392231,5.741751 1.34595,5.68892 1.322446,5.663229 1.267769,5.605958 1.243481,5.581007 1.183606,5.52291 1.159645,5.503262 1.103471,5.442427 1.029488,5.372169 1.014425,5.358555 0.953342,5.285644 0.944409,5.275428 0.898372,5.200196 0.893041,5.192201 0.8514,5.113747 0.849183,5.107448 0.847677,5.101357 0.813577,5.023576 0.811284,5.01838 0.775151,4.938132 0.773253,4.935444 0.728357,4.857543 0.728277,4.857304 0.723386,4.844334 0.697878,4.776159 0.659394,4.694634 0.657556,4.691433 0.62113,4.612511 0.618661,4.607542 0.584849,4.529389 0.583063,4.522977 0.582141,4.516848 0.557144,4.438763 0.555278,4.433646 0.530715,4.358075 0.526815,4.348401 0.501193,4.275073 0.485096,4.203415 0.482533,4.191993 0.46834,4.120827 0.465482,4.108444 0.456617,4.038664 0.454943,4.025494 0.445716,3.956705 0.444134,3.942809 0.431566,3.873887 0.42895,3.859191 0.428671,3.844393 0.421314,3.776109 0.42135,3.760784 0.420657,3.693312 0.420812,3.677534 0.419461,3.610251 0.42043,3.543715 0.421742,3.527229 0.428949,3.460493 0.431014,3.444109 0.44377,3.376952 0.446129,3.360853 0.461101,3.293493 0.464383,3.27758 0.480185,3.21022 0.481793,3.194578 0.493701,3.12783 0.496658,3.112622 0.499021,3.097832 0.520328,3.029344 0.534697,2.991795 0.556927,2.9352 0.567728,2.912945 0.595795,2.855604 0.606447,2.836831 0.63894,2.781553 0.648569,2.764822 0.679179,2.703588 0.688426,2.689254 0.726222,2.632109 0.734882,2.619364 0.776009,2.564509 0.784015,2.553985 0.825814,2.49725 0.832733,2.48828 0.876845,2.43079 0.883069,2.42346 0.930157,2.366217 0.981248,2.309683 0.985865,2.304841 0.990407,2.300236 1.040503,2.241584 1.095013,2.184264 1.097817,2.181401 1.155606,2.125963 1.157899,2.123801 1.214858,2.066016 1.216038,2.064812 1.273006,2.012409 1.277475,2.008316 1.277578,2.008239 1.339342,1.953781 1.339881,1.953418 1.403444,1.899348 1.405022,1.898041 1.469837,1.848172 1.471654,1.846301 1.535899,1.796444 1.538276,1.794246 1.601374,1.744418 1.604441,1.741812 1.664815,1.689997 1.668718,1.686309 1.72616,1.634658 1.73089,1.631277 1.795905,1.586276 1.801868,1.582511 1.871437,1.542411 1.878766,1.53823 1.941796,1.4985 1.951735,1.494065 2.010398,1.473223 2.062717,1.457757 2.098264,1.447433 2.147552,1.4332 2.178877,1.428395 2.228346,1.417087 2.262637,1.413397 2.296841,1.412356 2.344439,1.408278 2.392334,1.396584 2.427701,1.391322 2.475972,1.37774 2.512845,1.367102 2.549102,1.360873 2.594505,1.362624 2.641065,1.352861 2.678164,1.342585 2.722795,1.330777 2.761617,1.321996 2.806772,1.319184 2.845257,1.314766 2.88385,1.314698 2.927813,1.315539 2.971822,1.310192 3.010823,1.311366 3.054158,1.307419 3.094313,1.309924 3.133846,1.308932 3.177491,1.301226 3.217515,1.297855 3.260479,1.292696 3.300773,1.291879 3.344821,1.306047 3.384841,1.307059 3.427024,1.316029 3.471623,1.308147 3.510794,1.304633 3.554694,1.28798 3.594078,1.271821 3.635404,1.263132 3.676806,1.251141 3.719299,1.249483 3.759995,1.247863 3.802575,1.249711 3.843138,1.251052 3.884187,1.267262 3.925986,1.283561 3.966466,1.302996 4.009827,1.319752 4.048034,1.326656 4.092804,1.331181 4.132134,1.337164 4.176654,1.338154 4.213045,1.346886 4.259247,1.355972 4.29666,1.368538 4.342136,1.379875 4.377381,1.386214 4.425413,1.402267 4.460364,1.404957 4.508652,1.411651 4.556225,1.408923 4.590998,1.403236 4.638594,1.393044 4.674143,1.383379 4.720087,1.364828 4.758297,1.353777 4.804081,1.337793 4.842384,1.324886 4.888306,1.320821 4.926306,1.311576 4.970407,1.299323 5.009103,1.283933 5.052259,1.262821 5.09079,1.246461 5.129749,1.233718 5.17453,1.22137 5.215366,1.213959 5.257958,1.207423 5.301207,1.20361 5.340732,1.207049 5.383485,1.210314 5.423173,1.221576 5.465178,1.240952 5.507181,1.253743 5.547722,1.2732 5.590037,1.266873 5.632069,1.261122 5.67373,1.243584 5.716975,1.22713 5.75739,1.209054 5.796363,1.199668 5.857801,1.176214 5.900763,1.172388 5.945457,1.16175 5.989871,1.165177 6.039078,1.162466 6.083303,1.171787 6.127141,1.158627 6.216764,1.167337 6.233958,1.15239 6.297636,1.142124 6.309429,1.118684 6.377468,1.092169 6.420787,1.052989 6.435179,1.032551 6.453681,1.015562 6.499998,0.979844 6.518417,0.963424 6.563175,0.925168 6.598154,0.893382 6.611457,0.879164 6.663233,0.835606 6.674169,0.825083 6.707147,0.801533 6.753595,0.768956 6.765474,0.76311 6.835096,0.712765 6.866279,0.705673 6.922657,0.675451 6.958844,0.662182 7.010885,0.642165 7.052491,0.619624 7.09757,0.60526 7.161279,0.5884 7.191949,0.580963 7.24455,0.581928 7.285627,0.580786 7.318521,0.5755 7.351051,0.572792 7.412057,0.570181 7.432702,0.565787 7.46742,0.565328 7.48753,0.565312 7.5429,0.568188 7.589165,0.56787 7.619326,0.570064 7.685663,0.555226 7.7314,0.552798" style="fill: white" />
</svg>
