<svg width="12.953712" height="10.039674">
<polygon type="contour" points="4.259122,4.561113 4.265759,4.562371 4.342157,4.56909 4.349919,4.571352 4.425309,4.580261 4.433505,4.583737 4.507951,4.595465 4.582549,4.626331 4.592789,4.634237 4.671021,4.688437 4.677982,4.696603 4.732522,4.756155 4.740003,4.766369 4.785447,4.829198 4.791543,4.839806 4.835632,4.904357 4.841627,4.914044 4.882291,4.984581 4.888342,4.993808 4.927973,5.065175 4.934573,5.07344 4.977087,5.139225 4.984411,5.146445 5.031333,5.205629 5.039642,5.211612 5.048159,5.217397 5.09856,5.272894 5.107349,5.278415 5.166199,5.321157 5.226619,5.362312 5.235669,5.36754 5.296516,5.406365 5.306201,5.411548 5.366809,5.449561 5.377312,5.454711 5.439694,5.491851 5.449749,5.49645 5.510154,5.534066 5.52116,5.539234 5.583717,5.575028 5.594106,5.580337 5.657742,5.61517 5.668377,5.619557 5.733432,5.651071 5.744247,5.65589 5.812348,5.685644 5.822531,5.689973 5.884266,5.721454 5.897142,5.726775 5.964469,5.751778 5.97692,5.757255 6.039817,5.784548 6.05475,5.790112 6.119242,5.819982 6.132461,5.825266 6.199082,5.854308 6.210756,5.859102 6.274369,5.886174 6.289207,5.891123 6.355571,5.917206 6.36864,5.922664 6.435005,5.947727 6.448967,5.952817 6.515627,5.975133 6.531163,5.979684 6.592895,6.005031 6.609473,6.010979 6.673138,6.033446 6.689323,6.0412 6.747426,6.07072 6.762468,6.081112 6.776217,6.09462 6.831396,6.127136 6.84417,6.140485 6.897737,6.176801 6.908656,6.193179 6.957041,6.235951 6.959551,6.249086 7.002778,6.306306 7.004464,6.323664 7.066332,6.443243 7.065312,6.449242 7.074064,6.536238 7.071929,6.539461 7.051473,6.6222 7.027103,6.680276 6.972513,6.693107 6.916471,6.694199 6.89257,6.687449 6.840341,6.665138 6.795439,6.643598 6.770868,6.634849 6.699232,6.600577 6.621741,6.57071 6.606684,6.563145 6.57845,6.554415 6.534292,6.539494 6.463444,6.514059 6.451458,6.511094 6.378031,6.483656 6.368431,6.481872 6.296083,6.461455 6.285847,6.458805 6.212546,6.440539 6.202595,6.43849 6.128766,6.420129 6.119553,6.418517 6.04642,6.40775 6.036619,6.405682 5.961984,6.388063 5.953134,6.386906 5.879815,6.375437 5.870622,6.374077 5.79542,6.357402 5.787009,6.355711 5.712933,6.343321 5.704234,6.341953 5.630145,6.331443 5.621422,6.330445 5.543385,6.308618 5.536471,6.307775 5.462718,6.292443 5.454875,6.290789 5.377109,6.265849 5.370576,6.264716 5.293734,6.245528 5.286936,6.244407 5.209968,6.224742 5.204092,6.223409 5.127631,6.201868 5.121544,6.200428 5.042808,6.163382 5.037274,6.161935 4.959598,6.131148 4.954304,6.129246 4.949257,6.127561 4.870205,6.079929 4.865004,6.076189 4.783945,6.020572 4.779236,6.018092 4.702083,5.975801 4.69774,5.97313 4.618604,5.923427 4.614761,5.921307 4.534183,5.872483 4.530346,5.870141 4.451736,5.817993 4.4486,5.815715 4.36655,5.756371 4.363421,5.754306 4.35694,5.749776 4.312188,5.714185 4.268561,5.676026 4.213379,5.626415 4.14383,5.562971 4.122876,5.544983 4.064958,5.483557 4.045048,5.463893 3.99608,5.402112 3.977765,5.382337 3.921549,5.321096 3.901331,5.301564 3.860168,5.241932 3.844277,5.219694 3.826698,5.161023 3.815077,5.138053 3.800272,5.078712 3.791871,5.055581 3.794864,4.995232 3.792145,4.973161 3.793776,4.950612 3.808736,4.891041 3.816445,4.868242 3.824898,4.837735 3.85703,4.769443 3.859985,4.759685 3.865034,4.750377 3.872374,4.742826 3.918338,4.686643 3.930061,4.678692 3.985337,4.635904 4.015424,4.622431 4.085958,4.591094 4.153873,4.572967 4.176518,4.569484 4.252769,4.560338" style="fill: white" /><polygon type="contour" points="1.883164,6.540712 1.962428,6.548416 1.998574,6.56776 2.027448,6.58282 2.055639,6.600352 2.089628,6.625492 2.13384,6.690714 2.151549,6.709274 2.217679,6.779387 2.246073,6.829387 2.276309,6.877221 2.313459,6.950092 2.329053,6.976979 2.376383,7.069103 2.380955,7.077219 2.420228,7.177206 2.421987,7.181385 2.423464,7.185423 2.452729,7.289648 2.457504,7.305338 2.48337,7.397977 2.490276,7.427585 2.504467,7.509678 2.517174,7.563562 2.527935,7.620283 2.545101,7.700176 2.554161,7.748294 2.559236,7.780028 2.570157,7.855873 2.577623,7.924518 2.582818,7.952227 2.5886,7.999998 2.593975,8.045613 2.599278,8.092845 2.606087,8.167354 2.607459,8.189311 2.611517,8.213239 2.621943,8.281571 2.634079,8.342797 2.641384,8.370466 2.645352,8.435075 2.648452,8.452203 2.657273,8.518209 2.660545,8.535358 2.668745,8.601668 2.673432,8.61945 2.676256,8.684381 2.678837,8.701693 2.684894,8.768031 2.687121,8.786215 2.686633,8.851388 2.689297,8.869734 2.690232,8.934534 2.698523,8.999243 2.70116,9.017814 2.702557,9.08213 2.703079,9.100634 2.710344,9.165337 2.712265,9.184246 2.71313,9.248291 2.715418,9.267271 2.721118,9.331623 2.724073,9.350715 2.733428,9.414811 2.736513,9.433893 2.746517,9.497819 2.749662,9.516617 2.753702,9.580132 2.753421,9.600248 2.761938,9.665006 2.767321,9.685835 2.768749,9.706369 2.772524,9.739446 2.777124,9.814122 2.763773,9.883852 2.754992,9.913167 2.717522,9.930669 2.632819,9.927962 2.619683,9.930061 2.538903,9.903219 2.531124,9.901499 2.458751,9.868171 2.45156,9.865087 2.396339,9.801235 2.395304,9.800246 2.344332,9.719982 2.343807,9.718947 2.303437,9.635318 2.265705,9.551912 2.265208,9.550808 2.23286,9.468425 2.194444,9.386289 2.193917,9.385131 2.19348,9.383992 2.154672,9.301739 2.154184,9.300632 2.115817,9.218084 2.115445,9.217043 2.083844,9.135933 2.083511,9.135016 2.051777,9.052966 2.005704,8.968837 2.005284,8.967908 1.972756,8.884442 1.937007,8.80143 1.936594,8.800272 1.906318,8.718724 1.869462,8.634574 1.86888,8.632943 1.836476,8.55173 1.797433,8.467524 1.749168,8.385791 1.748735,8.384869 1.698699,8.30221 1.686894,8.287768 1.63383,8.224615 1.630869,8.222335 1.544661,8.137984 1.510716,8.11083 1.433514,8.049574 1.430849,8.046392 1.346592,7.966136 1.342696,7.962525 1.309484,7.883909 1.306928,7.881403 1.295101,7.800973 1.293754,7.798666 1.294274,7.717706 1.293667,7.715104 1.303093,7.634388 1.30311,7.631304 1.32283,7.551417 1.32323,7.548069 1.342239,7.468037 1.342671,7.464146 1.368742,7.384707 1.369969,7.379748 1.373563,7.367044 1.415565,7.240126 1.430727,7.195469 1.44395,7.151256 1.45976,7.110918 1.47412,7.064778 1.493547,7.029293 1.509947,6.984343 1.529129,6.948757 1.545291,6.90102 1.573714,6.841761 1.578564,6.833772 1.645854,6.749692 1.659265,6.719372 1.675336,6.701785 1.723411,6.651094 1.796951,6.57635 1.798219,6.575625 1.882401,6.540681" style="fill: white" />
</svg>
