<svg width="12.953712" height="10.039674">
<polygon type="contour" points="7.803664,0.17839 7.836506,0.179695 7.887343,0.189474 7.919618,0.192768 7.951771,0.19062 8.002988,0.194601 8.035337,0.195397 8.086855,0.197473 8.118665,0.199018 8.170094,0.199716 8.201612,0.207147 8.253772,0.218867 8.283676,0.227067 8.336649,0.240633 8.36526,0.250747 8.419706,0.267153 8.446503,0.274094 8.502465,0.289349 8.528365,0.29762 8.586635,0.310326 8.678114,0.347317 8.694241,0.355059 8.754118,0.395777 8.762724,0.402516 8.825222,0.438351 8.836568,0.449266 8.919517,0.466277 8.933327,0.469777 9.003766,0.490752 9.018161,0.49667 9.078915,0.528392 9.130603,0.571965 9.144158,0.579771 9.196688,0.624248 9.208337,0.633574 9.220278,0.642672 9.275802,0.682415 9.289202,0.690697 9.346181,0.726943 9.359453,0.735125 9.417742,0.769796 9.476289,0.802933 9.488856,0.813061 9.539665,0.860269 9.550873,0.870181 9.563163,0.878538 9.616296,0.921685 9.665591,0.970539 9.678337,0.978786 9.691208,0.987217 9.740258,1.035015 9.7529,1.043869 9.807907,1.083322 9.82104,1.092086 9.877117,1.129552 9.936272,1.16157 9.951052,1.169235 9.966227,1.176874 10.028317,1.203992 10.087109,1.231812 10.10542,1.238357 10.16249,1.26682 10.179654,1.276351 10.234859,1.307051 10.252585,1.317468 10.304154,1.352487 10.320402,1.365569 10.370994,1.402412 10.386676,1.416451 10.435868,1.454894 10.452688,1.467018 10.47218,1.479081 10.523181,1.50976 10.550382,1.521643 10.599435,1.548574 10.62022,1.557752 10.674212,1.585397 10.693846,1.598039 10.745696,1.628024 10.793957,1.66286 10.811504,1.679298 10.854562,1.723565 10.871143,1.739577 10.913227,1.786061 10.927868,1.80428 10.967935,1.856656 10.981167,1.873919 11.022043,1.927815 11.033658,1.944329 11.074983,1.999798 11.085186,2.016368 11.125979,2.078451 11.135736,2.091567 11.174253,2.152385 11.182706,2.165716 11.211052,2.25336 11.215428,2.265388 11.245965,2.362156 11.248115,2.368609 11.291017,2.44735 11.292237,2.44958 11.326958,2.507578 11.339819,2.529105 11.397753,2.593813 11.467728,2.619312 11.499445,2.647626 11.534607,2.650596 11.581455,2.638662 11.612682,2.629381 11.662077,2.609922 11.694749,2.594825 11.745528,2.578964 11.775228,2.570407 11.829151,2.558953 11.859554,2.552598 11.913005,2.545501 11.966439,2.545758 11.996492,2.545287 12.049879,2.551892 12.080254,2.554682 12.133793,2.567134 12.164232,2.571314 12.216835,2.584322 12.24857,2.592003 12.300995,2.615701 12.347775,2.632571 12.369403,2.644119 12.413112,2.668288 12.442248,2.684425 12.468416,2.705549 12.510259,2.731811 12.534774,2.755465 12.569916,2.791441 12.592557,2.818519 12.626905,2.85587 12.647394,2.883445 12.680395,2.925677 12.697803,2.955238 12.729106,3.00051 12.744178,3.028432 12.774613,3.079672 12.788107,3.107076 12.818294,3.164903 12.827647,3.186998 12.837686,3.212904 12.850643,3.248932 12.867876,3.296496 12.879044,3.331229 12.892582,3.3798 12.904711,3.430581 12.912635,3.463328 12.91727,3.49523 12.927294,3.547147 12.931251,3.578484 12.933213,3.630453 12.933806,3.661494 12.937195,3.71411 12.938878,3.745227 12.94028,3.797567 12.9398,3.850117 12.937146,3.881159 12.930579,3.933265 12.926325,3.964572 12.914729,4.015875 12.907159,4.048248 12.895046,4.098279 12.886905,4.13174 12.873755,4.179809 12.861939,4.215114 12.848284,4.261209 12.837261,4.2973 12.818036,4.342949 12.804094,4.381453 12.78741,4.423963 12.772262,4.464377 12.75445,4.506473 12.739022,4.549139 12.72194,4.586279 12.698585,4.630283 12.653222,4.695135 12.643396,4.708912 12.639029,4.712625 12.627472,4.722723 12.566456,4.7684 12.52179,4.794207 12.489491,4.810767 12.418581,4.852184 12.412452,4.854736 12.387754,4.865826 12.334337,4.890554 12.320382,4.898275 12.256673,4.931496 12.210896,4.943902 12.174555,4.956114 12.135052,4.960875 12.091754,4.974779 12.057536,4.973713 12.00334,4.973559 11.967329,4.970065 11.913679,4.961722 11.868298,4.955742 11.822536,4.949416 11.767815,4.941873 11.729917,4.937234 11.668746,4.928017 11.638109,4.919622 11.572351,4.916642 11.548176,4.919143 11.521098,4.930093 11.474054,4.969359 11.437009,5.040572 11.409047,5.081873 11.359614,5.177924 11.347058,5.20205 11.342023,5.214428 11.307332,5.28965 11.297551,5.33907 11.285265,5.371713 11.268997,5.425298 11.260694,5.455348 11.239828,5.509499 11.228547,5.53807 11.195404,5.596974 11.182924,5.6225 11.151945,5.682501 11.137678,5.705113 11.104282,5.766986 11.090655,5.787746 11.04995,5.854115 11.039363,5.87019 10.980467,5.943399 10.969414,5.955048 10.899317,6.02596 10.891931,6.0338 10.811075,6.122137 10.802703,6.132951 10.742477,6.209818 10.738823,6.214127 10.684625,6.288745 10.677029,6.296186 10.609065,6.371057 10.59454,6.38313 10.520162,6.45068 10.462403,6.475942 10.285104,6.55282 10.259536,6.580635 10.207027,6.624466 10.177324,6.661325 10.143857,6.697182 10.102552,6.736584 10.046949,6.780993 9.991894,6.815575 9.981376,6.824524 9.951839,6.845619 9.900287,6.880919 9.866649,6.929273 9.813786,7.014577 9.772246,7.06262 9.7333,7.10483 9.686814,7.139568 9.650653,7.16319 9.602194,7.18837 9.568408,7.20705 9.515396,7.236128 9.483853,7.249135 9.431801,7.263645 9.400793,7.270792 9.344961,7.296228 9.316277,7.306067 9.260743,7.329794 9.233413,7.342089 9.175133,7.363758 9.150488,7.374052 9.091082,7.389226 9.066876,7.396962 9.005317,7.409867 8.983495,7.414888 8.922608,7.432063 8.900477,7.434444 8.839133,7.452429 8.817877,7.454146 8.797305,7.461212 8.733227,7.489387 8.715195,7.49638 8.650873,7.523911 8.63447,7.530443 8.567775,7.556342 8.552957,7.561752 8.484564,7.579416 8.470869,7.583508 8.401307,7.600657 8.388568,7.604213 8.317576,7.629605 8.306343,7.63254 8.235586,7.654762 8.225396,7.657329 8.15192,7.683894 8.143276,7.686774 8.067324,7.711989 8.060316,7.714464 7.984751,7.746786 7.979648,7.748147 7.901244,7.757243 7.896564,7.758109 7.819062,7.752872 7.74123,7.75363 7.73573,7.753904 7.656769,7.76775 7.651775,7.768328 7.573767,7.781563 7.569024,7.782294 7.488755,7.799534 7.485247,7.800601 7.405879,7.815516 7.402527,7.816487 7.32099,7.831534 7.318728,7.832047 7.23745,7.843315 7.235507,7.843477 7.151988,7.853242 7.069567,7.874421 7.041598,7.885672 6.986813,7.907815 6.985766,7.908219 6.9024,7.935207 6.899706,7.935693 6.81893,7.951819 6.736174,7.98889 6.730893,7.990344 6.652618,8.019347 6.576484,8.029985 6.569518,8.029572 6.492864,8.026499 6.485959,8.024636 6.407487,8.007889 6.402437,8.006137 6.322061,7.988012 6.318784,7.987318 6.236009,7.957935 6.235109,7.957777 6.194773,7.942514 6.152171,7.926417 6.151162,7.925929 6.067036,7.87891 6.062,7.87614 5.985816,7.834302 5.978814,7.829138 5.902985,7.772958 5.892218,7.764978 5.822964,7.699984 5.809958,7.684863 5.789093,7.664916 5.718391,7.596217 5.69628,7.572549 5.652716,7.511778 5.625008,7.483223 5.579374,7.426843 5.54961,7.393313 5.506387,7.344073 5.473098,7.305226 5.434018,7.260691 5.402268,7.217074 5.377369,7.176722 5.365444,7.131172 5.354866,7.093806 5.346022,7.04515 5.333317,7.009041 5.321093,6.95921 5.309475,6.925458 5.309577,6.874968 5.307083,6.841929 5.294458,6.789874 5.286884,6.758567 5.260451,6.704189 5.256851,6.675312 5.235926,6.619344 5.222567,6.592339 5.205973,6.535541 5.195784,6.510178 5.158675,6.449564 5.151962,6.427425 5.124686,6.367589 5.113339,6.346335 5.079066,6.285814 5.068606,6.267189 5.052451,6.241476 4.99166,6.13879 4.96535,6.138786 4.908551,6.118117 4.880116,6.107875 4.825548,6.107825 4.770045,6.102742 4.742466,6.102705 4.714994,6.097143 4.659063,6.091332 4.603704,6.090561 4.575493,6.094 4.519433,6.099144 4.492255,6.10523 4.434054,6.115956 4.408922,6.12144 4.352497,6.127528 4.326308,6.129733 4.270414,6.129057 4.243672,6.127821 4.21581,6.126602 4.160151,6.122503 4.130707,6.115573 4.077032,6.091173 4.044494,6.080099 3.993786,6.073645 3.959582,6.057613 3.909114,6.042574 3.87321,6.023243 3.828693,6.002108 3.792138,5.981368 3.746233,5.943685 3.706051,5.916915 3.664774,5.885247 3.620272,5.859133 3.581042,5.836636 3.528908,5.813174 3.494985,5.793607 3.441944,5.768972 3.412907,5.752223 3.358298,5.732933 3.332048,5.71716 3.276911,5.707236 3.245918,5.687681 3.188814,5.672719 3.163223,5.668538 3.102043,5.645773 3.07934,5.642381 3.015845,5.623774 2.995885,5.618253 2.93266,5.610259 2.913192,5.604106 2.847077,5.583835 2.828937,5.578777 2.762696,5.559553 2.746264,5.554638 2.673822,5.527348 2.662304,5.522975 2.592746,5.48411 2.579858,5.478426 2.515889,5.441715 2.501401,5.433618 2.423551,5.370614 2.416689,5.366578 2.333397,5.298749 2.332381,5.298052 2.311296,5.281925 2.249878,5.235685 2.246842,5.232938 2.214249,5.205362 2.197893,5.188641 2.128892,5.114634 2.118805,5.103317 2.058996,5.025586 2.053848,5.019213 1.995732,4.934329 1.994487,4.932549 1.93794,4.848815 1.934581,4.842909 1.930029,4.834032 1.881727,4.763345 1.851695,4.705108 1.823488,4.65688 1.822149,4.641746 1.767224,4.50008 1.758127,4.468796 1.752257,4.409052 1.74692,4.372849 1.742745,4.357605 1.709647,4.273922 1.699569,4.22211 1.691197,4.175197 1.689184,4.138254 1.689256,4.068351 1.691967,4.055776 1.692284,4.03556 1.696038,3.96799 1.70153,3.919137 1.706266,3.887785 1.710371,3.852296 1.722496,3.812597 1.730239,3.765193 1.73448,3.7323 1.727509,3.665816 1.723274,3.631602 1.72029,3.618446 1.718306,3.536848 1.728975,3.469455 1.731469,3.458668 1.734016,3.44868 1.750644,3.38634 1.772208,3.316426 1.772579,3.315333 1.77318,3.313945 1.821684,3.215285 1.860953,3.149504 1.869683,3.133235 1.874808,3.123844 1.904997,3.073949 1.929913,3.03234 1.941973,3.015857 1.96701,2.980772 1.980571,2.959672 1.987391,2.948661 2.017973,2.902228 2.045609,2.864954 2.058368,2.846571 2.082533,2.809483 2.094734,2.788759 2.101829,2.777914 2.131706,2.730964 2.161135,2.698753 2.177397,2.681257 2.223291,2.6325 2.224786,2.630147 2.265638,2.577836 2.285568,2.553475 2.309843,2.525902 2.350928,2.488932 2.359906,2.479446 2.383829,2.453957 2.406771,2.429836 2.414766,2.421377 2.45795,2.385961 2.483249,2.362951 2.505378,2.343372 2.549125,2.310253 2.619886,2.271213 2.627209,2.266058 2.646468,2.252709 2.697757,2.217409 2.71394,2.209721 2.775277,2.179872 2.803344,2.165364 2.851163,2.140463 2.893402,2.119926 2.927597,2.10326 2.980627,2.086946 3.009105,2.077839 3.031725,2.067931 3.089562,2.050353 3.153936,2.025082 3.169417,2.022357 3.239705,2.001199 3.250669,1.996621 3.326549,1.971995 3.332292,1.970867 3.410485,1.958273 3.418481,1.956336 3.425549,1.953898 3.502,1.939232 3.509028,1.936487 3.589023,1.927478 3.663404,1.902417 3.675299,1.896939 3.682391,1.89166 3.768525,1.837736 3.7749,1.832137 3.846347,1.782524 3.84838,1.780502 3.918547,1.73784 3.921181,1.7357 3.985221,1.689038 3.988773,1.68571 4.055546,1.640184 4.059107,1.637287 4.062771,1.634334 4.105654,1.60252 4.199566,1.546114 4.203649,1.543128 4.208579,1.540153 4.25996,1.510173 4.293557,1.496529 4.3424,1.476993 4.377641,1.467219 4.425757,1.451055 4.463434,1.442324 4.509031,1.430866 4.547313,1.426021 4.591907,1.420772 4.636311,1.419545 4.675071,1.420706 4.713652,1.420689 4.757959,1.425921 4.803667,1.436447 4.842025,1.442796 4.888126,1.457476 4.924368,1.471836 4.974611,1.493702 5.008043,1.511654 5.058849,1.533177 5.09042,1.55316 5.14547,1.586451 5.173579,1.601514 5.231452,1.629433 5.258019,1.643358 5.317306,1.667274 5.340459,1.676275 5.402106,1.691796 5.423973,1.699259 5.445091,1.699126 5.507476,1.700569 5.530285,1.691002 5.588629,1.669711 5.617444,1.642712 5.669195,1.591199 5.686084,1.563304 5.711392,1.52079 5.733432,1.48355 5.753626,1.444941 5.780071,1.408888 5.800346,1.374853 5.826679,1.334505 5.845407,1.302505 5.872348,1.259522 5.889871,1.228604 5.91857,1.183084 5.935177,1.156438 5.96248,1.107703 5.97757,1.082566 6.008229,1.029498 6.021776,1.007696 6.054032,0.954696 6.06571,0.934652 6.100129,0.88004 6.110716,0.861617 6.146625,0.804459 6.155503,0.789263 6.19255,0.730025 6.200474,0.716861 6.241409,0.660115 6.249558,0.64887 6.300238,0.598893 6.308758,0.589741 6.31924,0.58326 6.376487,0.540205 6.38623,0.534123 6.444701,0.491395 6.470544,0.475169 6.50775,0.44966 6.52539,0.441346 6.588935,0.421469 6.654174,0.427173 6.671413,0.427382 6.689536,0.419074 6.755819,0.413536 6.782917,0.400862 6.823785,0.382386 6.839717,0.372946 6.899589,0.342111 6.922054,0.329943 6.980252,0.30197 7.004728,0.294068 7.030837,0.287112 7.086893,0.270641 7.114441,0.263807 7.17066,0.252265 7.224423,0.243097 7.253672,0.237531 7.307281,0.225752 7.337219,0.222103 7.367121,0.220907 7.420099,0.213613 7.450746,0.209743 7.503075,0.202465 7.534932,0.196619 7.586923,0.186833 7.619361,0.181829 7.669874,0.173955 7.702778,0.172801 7.753105,0.172056" style="fill: white" />
</svg>
