<svg width="12.953712" height="10.039674">
<polygon type="contour" points="1.929736,0.462173 1.986795,0.474573 2.013344,0.478919 2.070473,0.491692 2.096847,0.498379 2.194444,0.534719 2.20415,0.538915 2.209505,0.542543 2.274509,0.582381 2.334795,0.627697 2.339764,0.632472 2.388869,0.69314 2.39343,0.698844 2.442066,0.764473 2.44562,0.769349 2.488488,0.846153 2.490722,0.849693 2.529672,0.929396 2.531261,0.932674 2.570575,1.019871 2.571155,1.021195 2.592162,1.088704 2.601867,1.120118 2.639865,1.216683 2.641646,1.221101 2.678572,1.307609 2.681585,1.312939 2.72474,1.394312 2.730328,1.401657 2.778563,1.472235 2.788734,1.480493 2.83998,1.525899 2.903717,1.560127 2.913333,1.565421 2.982683,1.598012 2.989395,1.602345 3.057619,1.635209 3.065215,1.638218 3.132771,1.674372 3.138616,1.678133 3.143916,1.682759 3.207545,1.724097 3.213081,1.729188 3.270699,1.778748 3.276423,1.784792 3.32712,1.843164 3.333236,1.849768 3.382136,1.911605 3.389942,1.919019 3.442514,1.969765 3.449869,1.977587 3.500074,2.033321 3.508219,2.041053 3.561355,2.091324 3.569786,2.09911 3.621257,2.151232 3.63063,2.159609 3.688122,2.200912 3.697274,2.210242 3.753524,2.252126 3.760972,2.263691 3.821337,2.300962 3.879671,2.343578 3.888813,2.361882 3.91093,2.371607 4.010835,2.406103 4.044185,2.404692 4.092606,2.39811 4.126907,2.386764 4.175781,2.376894 4.210634,2.372127 4.25892,2.365484 4.291444,2.357297 4.341557,2.343414 4.374161,2.335797 4.425106,2.323164 4.458636,2.317477 4.50855,2.315604 4.56059,2.31818 4.591594,2.31462 4.621566,2.310662 4.674999,2.316866 4.705315,2.313521 4.758336,2.314802 4.789629,2.316252 4.841378,2.314991 4.893513,2.316234 4.924889,2.319385 4.976654,2.320568 5.007905,2.326408 5.059468,2.331509 5.09121,2.339538 5.141199,2.349403 5.174349,2.362302 5.270045,2.373289 5.346633,2.385004 5.396753,2.377278 5.431407,2.374982 5.496566,2.355674 5.514775,2.353958 5.546878,2.344578 5.60305,2.320395 5.643376,2.306867 5.671779,2.301195 5.700121,2.288236 5.755113,2.264126 5.783774,2.252206 5.837319,2.22133 5.862237,2.208295 5.919592,2.170305 5.943677,2.157325 6.002815,2.117807 6.02704,2.102331 6.087562,2.072276 6.110813,2.058203 6.171183,2.025449 6.191658,2.013435 6.255238,1.983988 6.276541,1.974348 6.339244,1.961199 6.360696,1.952698 6.423107,1.938874 6.445982,1.927949 6.505871,1.900175 6.523501,1.891572 6.587104,1.861232 6.602939,1.855442 6.669975,1.817751 6.683103,1.813648 6.753912,1.789576 6.767945,1.785204 6.838879,1.764732 6.854215,1.761268 6.92186,1.751598 6.936173,1.749109 7.005535,1.735224 7.020945,1.733817 7.088,1.729566 7.101693,1.727432 7.170567,1.721358 7.181658,1.719506 7.254011,1.714329 7.266897,1.712075 7.337363,1.701163 7.349401,1.699908 7.421559,1.680023 7.434734,1.679276 7.504646,1.663287 7.574922,1.660223 7.58744,1.659738 7.600014,1.658704 7.670507,1.658414 7.682837,1.656616 7.753731,1.647955 7.824466,1.647205 7.836452,1.646843 7.905494,1.651686 7.919029,1.653065 7.989108,1.667034 8.002385,1.670922 8.071081,1.682145 8.085119,1.685747 8.154617,1.70173 8.168475,1.70473 8.236676,1.731193 8.251922,1.736146 8.317461,1.758435 8.334775,1.762957 8.35205,1.760952 8.417929,1.759775 8.486861,1.770762 8.501993,1.770683 8.568962,1.789354 8.584995,1.790952 8.652055,1.807494 8.668176,1.811455 8.694444,1.818828 8.76595,1.840285 8.812244,1.85515 8.888059,1.881441 8.916834,1.89216 8.982355,1.894314 9.0015,1.897662 9.064747,1.908544 9.084051,1.911962 9.146633,1.928528 9.167433,1.936092 9.230202,1.950407 9.250704,1.956703 9.313808,1.969891 9.334571,1.97477 9.395296,1.985795 9.423608,1.991233 9.461271,2.002355 9.494222,2.012927 9.541668,2.032448 9.571833,2.045894 9.615295,2.071438 9.641455,2.088148 9.687301,2.114131 9.730353,2.146087 9.754564,2.163824 9.7955,2.195992 9.820483,2.214849 9.860277,2.248493 9.883581,2.270775 9.921361,2.309807 9.954249,2.343389 9.975445,2.362648 10.054044,2.443753 10.059349,2.450006 10.065814,2.456506 10.151186,2.535213 10.220705,2.605267 10.237732,2.623466 10.246948,2.637144 10.299199,2.717633 10.323697,2.760256 10.357522,2.814692 10.379685,2.874801 10.396421,2.918608 10.409939,2.969008 10.425991,3.026018 10.438101,3.102768 10.444212,3.137837 10.455954,3.237925 10.457384,3.251063 10.458003,3.256434 10.468242,3.366305 10.474097,3.42408 10.479668,3.47994 10.487978,3.596085 10.487978,3.596102 10.487981,3.596137 10.492324,3.713575 10.497127,3.781176 10.498841,3.829405 10.498573,3.895645 10.497792,3.949144 10.496413,3.997733 10.495476,4.068501 10.493047,4.152308 10.491398,4.187718 10.48876,4.226302 10.482607,4.310381 10.475038,4.374375 10.464522,4.435216 10.441598,4.555476 10.439896,4.562269 10.39289,4.694537 10.390969,4.700157 10.343515,4.832178 10.340835,4.839627 10.287515,4.95262 10.272678,4.985642 10.230156,5.069235 10.213833,5.095669 10.199752,5.118982 10.165662,5.17184 10.141524,5.202387 10.119881,5.225745 10.10997,5.235914 10.07215,5.276754 10.040399,5.308661 10.023142,5.326501 9.986668,5.367267 9.976072,5.377858 9.971867,5.384057 9.930635,5.434913 9.90329,5.464163 9.881195,5.483516 9.834353,5.536138 9.784993,5.586231 9.76337,5.606587 9.730259,5.628394 9.688872,5.659668 9.674672,5.670589 9.621975,5.702 9.612993,5.70702 9.551464,5.737554 9.535251,5.748159 9.506094,5.765351 9.458374,5.792225 9.43166,5.809974 9.384377,5.847738 9.378574,5.854136 9.357208,5.868314 9.320684,5.892918 9.309435,5.899524 9.261506,5.929856 9.232483,5.944156 9.186447,5.965027 9.153944,5.981673 9.082776,6.021718 9.076991,6.025018 9.058762,6.034184 8.998602,6.062902 8.981112,6.070717 8.91928,6.09718 8.881709,6.111835 8.839415,6.129144 8.809657,6.138578 8.75696,6.149333 8.733971,6.153601 8.670406,6.15711 8.648649,6.157909 8.586214,6.170608 8.572369,6.171611 8.500889,6.181965 8.491965,6.181664 8.415361,6.192839 8.37699,6.197771 8.330581,6.204284 8.327039,6.204593 8.24592,6.212744 8.237258,6.213585 8.157275,6.214003 8.148551,6.213357 8.065215,6.199108 8.063491,6.198667 8.04411,6.195485 7.978427,6.184183 7.972814,6.183796 7.896096,6.167236 7.880315,6.162346 7.812676,6.142987 7.784795,6.13772 7.732021,6.118378 7.691155,6.109974 7.64919,6.098848 7.597879,6.092414 7.560846,6.095821 7.510279,6.095268 7.472275,6.097117 7.42435,6.105436 7.38637,6.113977 7.340312,6.11684 7.301415,6.117335 7.250172,6.112773 7.208977,6.11216 7.163445,6.115973 7.123786,6.114005 7.07509,6.114253 7.033889,6.110649 6.987011,6.107966 6.936574,6.09905 6.891928,6.090732 6.833986,6.080117 6.802067,6.078743 6.771166,6.077544 6.70849,6.060112 6.687145,6.05828 6.620398,6.052514 6.603083,6.049254 6.52478,6.022684 6.521699,6.021681 6.503296,6.016034 6.439897,5.99378 6.427419,5.988949 6.362812,5.953004 6.327537,5.94035 6.283714,5.922682 6.233836,5.917093 6.19617,5.916071 6.147248,5.921638 6.107848,5.931995 6.061967,5.933647 6.020707,5.933374 5.975323,5.936876 5.926527,5.93628 5.88528,5.93084 5.839027,5.930321 5.797097,5.926569 5.75418,5.924191 5.704394,5.908987 5.670477,5.905919 5.613322,5.894109 5.585578,5.890663 5.523783,5.890794 5.496891,5.890327 5.435166,5.888317 5.409244,5.887897 5.346752,5.885814 5.322086,5.885005 5.260816,5.892543 5.232788,5.891437 5.172279,5.889479 5.146247,5.885306 5.08306,5.885755 5.058237,5.884025 4.994541,5.88215 4.969872,5.885206 4.911415,5.900468 4.871776,5.919804 4.83131,5.933007 4.776632,5.949836 4.750398,5.958934 4.729875,5.963394 4.66592,5.975112 4.654605,5.9798 4.583907,5.999887 4.570757,6.004563 4.503258,6.028333 4.440433,6.044925 4.420458,6.050637 4.366462,6.062939 4.336671,6.067473 4.289572,6.077279 4.253224,6.084275 4.210244,6.087443 4.167154,6.092848 4.126138,6.093269 4.080222,6.096244 4.040628,6.094854 3.992142,6.092657 3.947806,6.088575 3.900512,6.083024 3.85394,6.079381 3.811406,6.073547 3.75666,6.066469 3.7204,6.062826 3.659306,6.053409 3.630984,6.051139 3.550345,6.027475 3.53356,6.023928 3.448639,6.006752 3.443227,6.005612 3.406041,5.996236 3.355923,5.982841 3.348317,5.979722 3.273713,5.951978 3.250032,5.944939 3.193896,5.921708 3.150122,5.900477 3.115276,5.883603 3.052055,5.856109 3.035964,5.849524 2.9577,5.823263 2.956724,5.822854 2.953015,5.821097 2.876251,5.784283 2.85535,5.777325 2.824605,5.760999 2.809799,5.757475 2.752738,5.733375 2.727691,5.724673 2.671126,5.703132 2.644159,5.696203 2.58986,5.670438 2.561276,5.663708 2.507334,5.651559 2.478279,5.64803 2.449182,5.649094 2.395738,5.639959 2.365898,5.640101 2.313054,5.63076 2.28242,5.628649 2.230087,5.620312 2.199663,5.618863 2.14674,5.607233 2.115648,5.603939 2.064012,5.595857 2.032619,5.59176 1.980989,5.585331 1.949589,5.580504 1.898356,5.574244 1.86572,5.567251 1.814508,5.555861 1.781145,5.548364 1.730946,5.536697 1.696788,5.528469 1.647767,5.510744 1.61231,5.497561 1.565355,5.483567 1.529676,5.469294 1.482966,5.451067 1.446842,5.435383 1.399822,5.408462 1.360494,5.383409 1.316439,5.354906 1.275129,5.321629 1.233858,5.288121 1.189279,5.260298 1.149244,5.234159 1.103697,5.210877 1.066701,5.18957 1.020025,5.16481 0.983906,5.144674 0.937895,5.123877 0.90125,5.097183 0.849795,5.060377 0.817299,5.034063 0.765522,4.999901 0.725074,4.96744 0.714882,4.957419 0.634926,4.875524 0.632235,4.871454 0.573506,4.7867 0.547408,4.755887 0.49979,4.698849 0.497011,4.695743 0.441277,4.617092 0.438015,4.61305 0.392816,4.534259 0.390063,4.529445 0.348586,4.449817 0.345074,4.443577 0.310321,4.366548 0.306314,4.359384 0.263688,4.283118 0.259184,4.274759 0.224089,4.200826 0.220872,4.191757 0.194674,4.118114 0.19129,4.108085 0.167702,4.034481 0.166519,4.02366 0.150431,3.951293 0.148159,3.939721 0.131729,3.868192 0.130156,3.856187 0.11439,3.785175 0.112708,3.772654 0.096885,3.702058 0.094261,3.688636 0.080228,3.618641 0.079597,3.604626 0.071062,3.535763 0.069855,3.5212 0.063737,3.452626 0.062626,3.437274 0.064902,3.369619 0.064864,3.30118 0.065622,3.286412 0.071514,3.217443 0.072017,3.203073 0.074799,3.135349 0.077436,3.119929 0.085368,3.051858 0.087534,3.036639 0.100941,2.968003 0.104504,2.953112 0.116859,2.88703 0.122068,2.870715 0.148037,2.801069 0.153892,2.787569 0.191315,2.716366 0.197347,2.70265 0.223361,2.634404 0.227454,2.620322 0.244039,2.552373 0.245604,2.537474 0.243926,2.522621 0.243222,2.454592 0.238629,2.439341 0.220118,2.370472 0.214447,2.353576 0.197231,2.288045 0.194488,2.271432 0.179808,2.205013 0.176185,2.187373 0.16299,2.121423 0.161014,2.102981 0.153779,2.038404 0.151517,2.019554 0.145696,1.955079 0.1455,1.935629 0.144058,1.872043 0.141158,1.808489 0.142119,1.789045 0.14112,1.769422 0.13725,1.705703 0.142463,1.642539 0.143464,1.622387 0.154964,1.561155 0.159134,1.539953 0.180141,1.470694 0.185453,1.453476 0.192963,1.43545 0.222041,1.364742 0.232008,1.347905 0.264482,1.290636 0.276269,1.273294 0.314935,1.222686 0.328051,1.205295 0.364546,1.153694 0.380289,1.135482 0.420711,1.091952 0.438768,1.074407 0.480711,1.033583 0.525154,0.997902 0.546194,0.979734 0.590374,0.946271 0.612864,0.929167 0.65901,0.896766 0.684091,0.880937 0.735812,0.855986 0.76439,0.842659 0.820041,0.826006 0.852681,0.816462 0.922564,0.81067 0.961872,0.80572 1.05407,0.81903 1.094202,0.826816 1.110182,0.827169 1.171158,0.811705 1.195629,0.800632 1.215547,0.779757 1.250257,0.741334 1.272244,0.718394 1.308235,0.681997 1.348402,0.651885 1.374842,0.631009 1.418927,0.603624 1.444539,0.58989 1.468408,0.573765 1.512385,0.541098 1.540535,0.530346 1.595108,0.507419 1.621292,0.501365 1.679156,0.495684 1.705593,0.492089 1.76253,0.477011 1.78908,0.473472 1.846108,0.459927 1.873019,0.459426" style="fill: white" />
</svg>
