<svg width="12.953712" height="10.039674">
<polygon type="contour" points="3.676741,4.123716 3.742525,4.137566 3.760422,4.138682 3.824515,4.150573 3.843141,4.152604 3.915785,4.17553 3.931392,4.179076 3.997627,4.211986 4.011892,4.216524 4.06425,4.263212 4.078896,4.271086 4.087023,4.275826 4.13877,4.322424 4.149615,4.331779 4.198116,4.382678 4.207754,4.392645 4.256631,4.444183 4.265496,4.454153 4.318554,4.499821 4.382531,4.533621 4.396188,4.549649 4.486942,4.567 4.603652,4.531423 4.616985,4.536461 4.702256,4.533986 4.714202,4.536774 4.790822,4.547494 4.799749,4.548006 4.878039,4.567681 4.890408,4.564037 4.960491,4.592912 4.968362,4.591807 5.042647,4.621909 5.04824,4.623115 5.117968,4.659969 5.12417,4.662029 5.194146,4.694855 5.19996,4.696402 5.269257,4.732732 5.33964,4.768872 5.344173,4.770546 5.414987,4.807369 5.418821,4.808887 5.489484,4.847847 5.492417,4.849059 5.560359,4.890345 5.563371,4.891766 5.630913,4.934395 5.633729,4.935758 5.703831,4.976898 5.705878,4.97795 5.707789,4.979142 5.772219,5.02821 5.774371,5.029854 5.839077,5.077855 5.841574,5.079092 5.917646,5.146971 5.941342,5.165309 6.030565,5.239892 6.082549,5.30811 6.138567,5.37381 6.138894,5.374111 6.140372,5.377671 6.158346,5.449017 6.154682,5.531011 6.172811,5.55527 6.16788,5.580284 6.151076,5.595232 6.109248,5.652158 6.094215,5.659017 6.033438,5.699527 6.022971,5.703961 5.960549,5.750136 5.955616,5.752432 5.951539,5.753613 5.925831,5.761573 5.878134,5.774708 5.871195,5.778457 5.805593,5.798573 5.788875,5.807338 5.734444,5.825143 5.705818,5.835117 5.659712,5.842757 5.618289,5.856748 5.586229,5.862632 5.528323,5.875163 5.509746,5.876771 5.437346,5.89229 5.434653,5.892465 5.423611,5.893323 5.355089,5.896498 5.337856,5.897883 5.275848,5.900323 5.239302,5.906935 5.208726,5.903426 5.182561,5.900916 5.121521,5.893395 5.103037,5.89232 5.0426,5.889064 5.018725,5.885626 4.959821,5.881989 4.936059,5.877818 4.876449,5.870138 4.852789,5.866722 4.79361,5.859376 4.769401,5.853314 4.710859,5.844993 4.686465,5.838728 4.627384,5.825692 4.600248,5.812091 4.542884,5.799263 4.516325,5.788287 4.458757,5.76331 4.429828,5.749902 4.373807,5.725463 4.344381,5.713455 4.291623,5.697412 4.261783,5.683095 4.208005,5.663205 4.178149,5.647897 4.12366,5.622508 4.092928,5.602715 4.041715,5.580238 4.010789,5.560563 3.958225,5.527807 3.92708,5.506824 3.875703,5.473546 3.825552,5.439844 3.792904,5.414906 3.741463,5.375495 3.708044,5.349146 3.657561,5.309657 3.624572,5.282131 3.574175,5.24337 3.539061,5.212521 3.49133,5.176806 3.463946,5.150499 3.385605,5.075335 3.374768,5.064231 3.363711,5.052035 3.304868,4.988628 3.274332,4.956392 3.211056,4.878824 3.203943,4.871029 3.164602,4.818981 3.093791,4.723359 3.07891,4.693022 3.044623,4.611292 3.04139,4.57519 3.042211,4.52849 3.06755,4.418573 3.087662,4.360636 3.149851,4.281195 3.158022,4.271448 3.172095,4.260591 3.239873,4.207999 3.264531,4.195448 3.324886,4.166696 3.355501,4.155938 3.417062,4.139109 3.440929,4.136184 3.480639,4.131345 3.510078,4.125646 3.52652,4.122963 3.593432,4.119822 3.612356,4.117282" style="fill: white" /><polygon type="contour" points="2.002753,5.216049 2.044069,5.236454 2.070891,5.267871 2.154146,5.349975 2.160491,5.357164 2.164106,5.362315 2.226938,5.453681 2.251398,5.496433 2.28869,5.551245 2.328208,5.623189 2.345593,5.650339 2.395803,5.729848 2.407897,5.748109 2.411135,5.754479 2.458745,5.849771 2.464297,5.868751 2.506142,5.952767 2.517881,5.982726 2.549571,6.057015 2.575067,6.125861 2.586027,6.163947 2.614226,6.236906 2.625735,6.271903 2.649178,6.342544 2.653864,6.355234 2.674554,6.425584 2.67663,6.438159 2.697098,6.50831 2.699172,6.521323 2.718067,6.59183 2.7199,6.604732 2.731277,6.674437 2.732779,6.687821 2.742191,6.758086 2.74247,6.771211 2.750059,6.841883 2.751466,6.85475 2.750307,6.86751 2.750743,6.937645 2.75223,7.007787 2.753657,7.020862 2.761257,7.091169 2.761188,7.104106 2.75457,7.174087 2.753054,7.187039 2.752887,7.199947 2.76164,7.270346 2.761415,7.283152 2.761669,7.353539 2.759854,7.424131 2.759009,7.436857 2.758803,7.449405 2.759796,7.520064 2.750949,7.591071 2.749112,7.603449 2.740932,7.674979 2.739494,7.686989 2.729341,7.758237 2.727786,7.770124 2.718198,7.841894 2.715589,7.853732 2.699629,7.926771 2.697572,7.937368 2.691979,8.009366 2.690235,8.020134 2.673505,8.093504 2.670908,8.103635 2.66102,8.177448 2.659174,8.186904 2.646481,8.260291 2.643229,8.269924 2.63205,8.343773 2.630481,8.352906 2.620216,8.427467 2.618853,8.436091 2.608773,8.511207 2.607064,8.519558 2.594964,8.594439 2.592863,8.602425 2.576959,8.679652 2.575275,8.690093 2.563796,8.764879 2.562732,8.774043 2.552468,8.850851 2.550451,8.872362 2.546919,8.943641 2.539789,9.022541 2.538194,9.068338 2.531547,9.152669 2.53049,9.164237 2.529231,9.202327 2.526578,9.280903 2.520404,9.354798 2.520621,9.407385 2.490488,9.432969 2.468808,9.475339 2.427555,9.4832 2.383387,9.495053 2.372117,9.494347 2.364233,9.491651 2.284773,9.477482 2.278912,9.470346 2.210414,9.422159 2.207478,9.41354 2.179655,9.379686 2.178586,9.375758 2.144957,9.300042 2.143271,9.294805 2.118441,9.213501 2.117123,9.209548 2.098464,9.129851 2.080226,9.048946 2.079671,9.046476 2.079343,9.044034 2.06244,8.962295 2.061777,8.960234 2.043174,8.879053 2.042898,8.877212 2.025068,8.795369 2.024662,8.793623 2.006654,8.711924 2.006355,8.710645 1.995848,8.628874 1.974753,8.546634 1.974491,8.545816 1.953379,8.463286 1.953321,8.462951 1.941381,8.383943 1.940854,8.380462 1.922404,8.297162 1.921676,8.293537 1.904283,8.213302 1.904169,8.212747 1.885871,8.129598 1.885728,8.128569 1.873708,8.046762 1.855919,7.963383 1.855701,7.961758 1.837842,7.879752 1.837332,7.877464 1.824975,7.797439 1.824621,7.795161 1.805986,7.71387 1.805621,7.711125 1.796103,7.630687 1.795737,7.627623 1.77868,7.547087 1.777949,7.543403 1.765885,7.464417 1.765395,7.460887 1.74644,7.381224 1.745947,7.377335 1.724304,7.298692 1.723443,7.294997 1.697267,7.21476 1.696308,7.21048 1.676838,7.132442 1.676275,7.128341 1.643719,7.050146 1.642839,7.046829 1.600865,6.963685 1.534617,6.882171 1.531955,6.876789 1.473428,6.797948 1.466944,6.790549 1.428083,6.716173 1.423148,6.710096 1.403648,6.632405 1.39958,6.6256 1.390781,6.549318 1.389551,6.541999 1.395697,6.466202 1.394608,6.459074 1.401866,6.38285 1.401727,6.375261 1.409901,6.299304 1.410533,6.291173 1.418599,6.215954 1.419671,6.207385 1.429609,6.132556 1.43052,6.123333 1.445534,6.048675 1.446806,6.038618 1.447821,6.028614 1.457366,5.966897 1.468322,5.929489 1.480986,5.875256 1.494973,5.839235 1.507901,5.784962 1.520198,5.751265 1.533854,5.694013 1.549512,5.663659 1.566544,5.610578 1.585761,5.585037 1.606682,5.533966 1.663067,5.438873 1.675187,5.424418 1.690904,5.404904 1.740969,5.336131 1.796779,5.261837 1.809336,5.251457 1.899037,5.215712 1.903508,5.215307 1.978677,5.207145" style="fill: white" />
</svg>
