<svg width="12.953712" height="10.039674">
<polygon type="contour" points="7.720007,2.366711 7.777602,2.375974 7.822523,2.378152 7.852323,2.380496 7.922045,2.374604 7.932609,2.374229 7.970564,2.374349 8.011712,2.376287 8.025419,2.378333 8.081611,2.39216 8.134541,2.404626 8.153101,2.405553 8.212595,2.405865 8.231206,2.404619 8.235426,2.404341 8.312128,2.399848 8.335895,2.401203 8.38817,2.40382 8.438061,2.406169 8.463886,2.408137 8.533666,2.413205 8.539907,2.41366 8.542257,2.413867 8.615447,2.421046 8.648598,2.429494 8.685533,2.439269 8.747388,2.456713 8.755495,2.459396 8.760966,2.461284 8.821583,2.485486 8.875507,2.501065 8.89113,2.505769 8.914711,2.514223 8.958571,2.534608 8.997177,2.558192 9.020934,2.573921 9.041786,2.587826 9.078253,2.627585 9.138888,2.670173 9.140048,2.671278 9.140952,2.67241 9.21503,2.762977 9.241161,2.812139 9.268647,2.862431 9.294958,2.925033 9.311012,2.965356 9.344575,3.035672 9.357088,3.067079 9.419175,3.153737 9.423583,3.159065 9.425516,3.160939 9.472559,3.231 9.490758,3.256215 9.515757,3.327811 9.526326,3.36168 9.530519,3.388664 9.546022,3.47308 9.546265,3.480242 9.554618,3.519619 9.56578,3.574029 9.566488,3.584273 9.564466,3.656083 9.569529,3.701648 9.571198,3.806569 9.571368,3.819522 9.572082,3.838775 9.574681,3.909028 9.572185,3.937865 9.564541,3.986402 9.563624,4.052607 9.561837,4.067615 9.54839,4.142556 9.539607,4.187357 9.532997,4.216627 9.526022,4.259798 9.518621,4.313799 9.508877,4.367735 9.487556,4.427417 9.484201,4.436944 9.482572,4.445503 9.468477,4.509301 9.447466,4.576449 9.446332,4.580027 9.444908,4.583321 9.419322,4.647135 9.402615,4.709393 9.399501,4.716359 9.396014,4.720732 9.351684,4.773092 9.327809,4.808778 9.310965,4.833167 9.273984,4.876876 9.263416,4.887866 9.2491,4.90372 9.219224,4.93504 9.187949,4.958431 9.155609,4.981507 9.11084,5.021678 9.083537,5.044908 9.027008,5.085305 9.008854,5.097942 8.96933,5.125355 8.933782,5.149698 8.918025,5.160057 8.858143,5.19843 8.810601,5.230528 8.781922,5.246079 8.707761,5.282022 8.70362,5.284469 8.692735,5.291258 8.626734,5.327986 8.605445,5.335725 8.543989,5.349204 8.508891,5.363462 8.463887,5.379153 8.412894,5.391361 8.382462,5.394241 8.32551,5.393417 8.292093,5.397995 8.234088,5.389896 8.199172,5.384228 8.151133,5.370702 8.106205,5.35987 8.068239,5.351998 8.013287,5.341343 7.982816,5.336719 7.920811,5.32584 7.896599,5.328279 7.836601,5.338389 7.803977,5.34471 7.75463,5.359149 7.708306,5.376442 7.674075,5.387619 7.611854,5.408774 7.59171,5.41045 7.519949,5.414446 7.50407,5.414238 7.431633,5.412254 7.415147,5.411259 7.347431,5.403794 7.324805,5.397658 7.266123,5.372976 7.225345,5.354508 7.188771,5.33067 7.120164,5.285169 7.113821,5.280915 7.089571,5.270442 7.035653,5.243753 7.020098,5.23585 6.960265,5.19618 6.914779,5.164983 6.88662,5.141807 6.831486,5.097554 6.813706,5.080549 6.803359,5.074176 6.740027,5.025502 6.695232,4.989663 6.66753,4.966209 6.622049,4.924054 6.597338,4.898274 6.579686,4.881063 6.526223,4.833734 6.468287,4.785527 6.453487,4.772085 6.428263,4.75077 6.385517,4.706235 6.353325,4.674192 6.312212,4.639401 6.250683,4.581573 6.239315,4.57233 6.210292,4.537408 6.160336,4.478909 6.143917,4.452459 6.099468,4.380351 6.080676,4.305727 6.067914,4.270876 6.044923,4.189993 6.035734,4.161614 6.010098,4.072563 6.004593,4.052015 5.992528,3.977206 5.985089,3.93785 5.98615,3.918656 5.985489,3.816022 6.008386,3.741605 6.044554,3.672718 6.070355,3.634731 6.106526,3.529277 6.122183,3.497841 6.151972,3.458453 6.187816,3.405733 6.20698,3.371137 6.248133,3.295747 6.306439,3.213935 6.315021,3.203688 6.323175,3.193528 6.383182,3.117324 6.43727,3.044304 6.449169,3.028774 6.464033,3.009398 6.521305,2.942188 6.586114,2.882149 6.593622,2.873795 6.603346,2.863106 6.667233,2.797923 6.706494,2.767097 6.746921,2.736445 6.810593,2.696938 6.829393,2.685625 6.898916,2.637007 6.908201,2.630199 6.910781,2.628935 6.994143,2.590102 7.003774,2.585763 7.073033,2.531482 7.103574,2.521398 7.16096,2.497283 7.195425,2.484584 7.250454,2.463597 7.284972,2.451601 7.338829,2.430432 7.376544,2.415755 7.425512,2.406391 7.453945,2.39876 7.522399,2.381453 7.545064,2.378193 7.61851,2.367999 7.626807,2.367825 7.667612,2.364587 7.708416,2.364096" style="fill: white" /><polygon type="contour" points="1.429799,0.471177 1.459433,0.471064 1.513224,0.474846 1.567252,0.484273 1.596559,0.48259 1.62668,0.480588 1.680245,0.493981 1.709788,0.493052 1.763698,0.50378 1.79338,0.5074 1.84686,0.516105 1.876082,0.519595 1.930117,0.532857 1.986377,0.544832 1.99385,0.546676 2.061408,0.578314 2.06949,0.58233 2.133034,0.622992 2.139691,0.626808 2.145666,0.631595 2.204648,0.679923 2.210994,0.685389 2.269976,0.731363 2.275095,0.736252 2.329778,0.79265 2.334886,0.798486 2.387193,0.85377 2.390637,0.858475 2.442815,0.919303 2.445497,0.923033 2.493718,0.99212 2.495868,0.995428 2.540244,1.068455 2.540957,1.069749 2.586744,1.150514 2.597923,1.168396 2.632591,1.224636 2.633455,1.22598 2.681826,1.309621 2.73768,1.37514 2.799477,1.429959 2.867807,1.475755 2.942791,1.517096 2.943674,1.517572 3.017749,1.554856 3.018034,1.555028 3.087502,1.59176 3.0917,1.593983 3.091719,1.593992 3.091735,1.594002 3.161257,1.639209 3.161701,1.639631 3.223525,1.695727 3.223657,1.695876 3.239098,1.713697 3.27923,1.760098 3.279584,1.760481 3.334691,1.824562 3.395141,1.886633 3.457558,1.93776 3.459011,1.939052 3.519294,1.998018 3.520364,1.998948 3.57962,2.055135 3.581063,2.056583 3.638219,2.117416 3.639784,2.118902 3.696342,2.175777 3.69829,2.178043 3.750335,2.245557 3.752509,2.248453 3.797557,2.319335 3.800329,2.323511 3.840003,2.400171 3.84346,2.406291 3.881865,2.483893 3.88384,2.487329 3.92782,2.572004 3.931917,2.582189 3.965882,2.656302 3.9709,2.667038 4.004198,2.744179 4.009628,2.758711 4.040046,2.840384 4.046771,2.855369 4.067394,2.905358 4.070846,2.916272 4.078181,2.942776 4.110637,3.024747 4.119583,3.05109 4.144402,3.13561 4.171322,3.211192 4.188885,3.243299 4.236801,3.303058 4.280208,3.328651 4.368913,3.391778 4.387429,3.393729 4.442889,3.394864 4.463837,3.397926 4.472793,3.398936 4.545051,3.388856 4.571961,3.39506 4.617507,3.4047 4.676343,3.407532 4.692317,3.408818 4.771714,3.392535 4.776344,3.392486 4.783887,3.395415 4.834835,3.44643 4.869714,3.486804 4.893037,3.502792 4.920931,3.523556 4.95743,3.543632 4.981151,3.56967 5.012177,3.609132 5.062085,3.663101 5.067448,3.673582 5.108056,3.756618 5.112471,3.766287 5.113062,3.767163 5.113011,3.768108 5.113445,3.771313 5.118587,3.855933 5.12082,3.886786 5.112403,3.937038 5.119905,4.009651 5.118349,4.024385 5.117062,4.052628 5.110175,4.104577 5.112288,4.134911 5.106314,4.185996 5.086571,4.243123 5.081894,4.25689 5.080513,4.269064 5.06937,4.332474 5.062939,4.396531 5.061409,4.41145 5.058843,4.436451 5.047124,4.487025 5.046395,4.523608 5.029222,4.560463 5.012756,4.585232 4.972725,4.616485 4.9606,4.679225 4.956001,4.689778 4.952106,4.698943 4.92209,4.754882 4.891774,4.811589 4.885523,4.819016 4.879769,4.831903 4.847113,4.88067 4.82884,4.915071 4.808188,4.942449 4.760027,4.995845 4.759838,4.996078 4.759398,4.996571 4.689749,5.063972 4.668039,5.075681 4.614771,5.108025 4.595334,5.116279 4.537168,5.149448 4.490158,5.17706 4.458931,5.189835 4.384427,5.240752 4.383434,5.241374 4.308362,5.295686 4.275733,5.303342 4.225382,5.315451 4.181084,5.32607 4.142511,5.335282 4.082544,5.365916 4.064677,5.375431 3.995371,5.359114 3.97225,5.35859 3.910334,5.344955 3.878865,5.337493 3.825077,5.334263 3.79182,5.339857 3.739126,5.322484 3.699196,5.323424 3.651084,5.320961 3.612522,5.327229 3.579281,5.332225 3.524002,5.327451 3.495091,5.338524 3.440838,5.344687 3.420858,5.355582 3.356982,5.361824 3.341314,5.367428 3.276943,5.389819 3.233178,5.414959 3.218949,5.421517 3.204216,5.426535 3.135862,5.454718 3.122308,5.459895 3.053036,5.479215 3.040383,5.484083 2.967671,5.512866 2.955022,5.517553 2.886449,5.539282 2.874932,5.542685 2.804524,5.563786 2.793832,5.566572 2.722477,5.5782 2.712294,5.580738 2.638634,5.601544 2.628535,5.604004 2.556304,5.615547 2.546707,5.616956 2.473992,5.61996 2.400291,5.62722 2.391098,5.628409 2.317838,5.627568 2.308487,5.628506 2.234618,5.63315 2.225458,5.634114 2.151611,5.635881 2.142512,5.636379 2.068639,5.641841 2.059796,5.642046 2.050841,5.641259 1.976397,5.636596 1.96712,5.635463 1.893599,5.626175 1.883443,5.623737 1.810958,5.613344 1.799895,5.610691 1.727509,5.593956 1.715611,5.590977 1.644463,5.573276 1.573879,5.556123 1.56056,5.5517 1.491176,5.526882 1.476978,5.521689 1.412166,5.483398 1.396741,5.473218 1.330063,5.424363 1.312495,5.410894 1.248685,5.380964 1.230796,5.374611 1.166082,5.351687 1.146076,5.344142 1.082947,5.320006 1.062076,5.312092 1.000208,5.287316 0.978354,5.278869 0.917642,5.239512 0.893756,5.221842 0.835382,5.181731 0.81056,5.161614 0.76481,5.122386 0.757373,5.115758 0.739535,5.097494 0.677223,5.034052 0.665004,5.017533 0.616487,4.951941 0.608698,4.936981 0.567222,4.869481 0.560458,4.855626 0.537297,4.786213 0.532735,4.772861 0.51045,4.702946 0.505913,4.689892 0.48276,4.61787 0.476816,4.606069 0.427397,4.534985 0.418841,4.523864 0.367528,4.452456 0.360654,4.442339 0.317682,4.370079 0.312497,4.361021 0.27884,4.287055 0.275761,4.278619 0.241759,4.204149 0.238317,4.196223 0.204144,4.121097 0.201605,4.114004 0.17567,4.037941 0.173359,4.031356 0.154308,3.955529 0.152967,3.949689 0.127863,3.872123 0.127154,3.866673 0.115929,3.789345 0.114888,3.78457 0.098781,3.705924 0.098257,3.701535 0.082574,3.622247 0.082086,3.617934 0.070575,3.539487 0.070085,3.535957 0.059581,3.456485 0.059205,3.45355 0.049013,3.373385 0.04876,3.370926 0.038857,3.290199 0.03494,3.208014 0.034904,3.207045 0.035711,3.124402 0.035711,3.12357 0.043487,3.040152 0.043519,3.039802 0.054248,2.957025 0.054294,2.95668 0.071753,2.873159 0.071777,2.873056 0.082493,2.826509 0.090991,2.789641 0.091012,2.789561 0.110101,2.706453 0.110145,2.70631 0.122476,2.658406 0.131341,2.624047 0.131369,2.623947 0.142391,2.588988 0.157759,2.54032 0.170312,2.492222 0.179313,2.457765 0.185271,2.429872 0.19715,2.374463 0.197168,2.37426 0.215958,2.291481 0.220067,2.208694 0.220685,2.125391 0.220675,2.124882 0.226507,2.042407 0.222305,1.959386 0.222255,1.958873 0.21976,1.877208 0.219635,1.875793 0.213183,1.794052 0.213173,1.792936 0.213626,1.711351 0.213525,1.709997 0.213666,1.708638 0.226296,1.625921 0.226874,1.622998 0.240352,1.552364 0.243402,1.536819 0.243545,1.536189 0.243691,1.535705 0.277828,1.442875 0.278484,1.441161 0.311224,1.370907 0.315165,1.362452 0.315254,1.362258 0.355053,1.289115 0.35642,1.286605 0.401514,1.217504 0.403773,1.214797 0.451468,1.151997 0.454571,1.14789 0.504205,1.086936 0.508409,1.082741 0.5131,1.078825 0.567687,1.024719 0.572951,1.020294 0.625227,0.964549 0.630987,0.958893 0.674308,0.89553 0.6805,0.88873 0.72659,0.829913 0.734074,0.82267 0.781139,0.766818 0.834933,0.719777 0.844534,0.711902 0.900327,0.668831 0.910916,0.660093 0.965754,0.617984 0.977532,0.609008 1.035564,0.570475 1.049049,0.561764 1.056718,0.557047 1.096673,0.537364 1.124906,0.526976 1.180059,0.501019 1.209292,0.494339 1.26325,0.480515 1.292501,0.476192 1.346495,0.468645 1.400586,0.468407" style="fill: white" />
</svg>
