<svg width="12.953712" height="10.039674">
<polygon type="contour" points="1.953614,0.613208 1.963366,0.616323 2.102063,0.663693 2.152952,0.696626 2.180845,0.72137 2.20734,0.744912 2.240924,0.779367 2.265127,0.810452 2.294113,0.848878 2.318429,0.882521 2.343408,0.922286 2.365906,0.956941 2.390734,0.99738 2.407725,1.036001 2.427273,1.088035 2.445415,1.130665 2.465085,1.177537 2.484715,1.224599 2.504245,1.268153 2.52303,1.319715 2.540759,1.3644 2.562691,1.41915 2.581705,1.456009 2.609301,1.510995 2.623109,1.545143 2.655168,1.60747 2.669927,1.629084 2.705609,1.681454 2.721007,1.701691 2.764688,1.746127 2.781186,1.761266 2.801299,1.771193 2.861667,1.79153 2.890926,1.799552 2.94579,1.821397 2.976436,1.825044 3.033662,1.840908 3.062418,1.847448 3.115252,1.866674 3.144131,1.873656 3.192003,1.900122 3.221132,1.909384 3.262607,1.942528 3.291567,1.95077 3.335713,1.981651 3.381634,2.010178 3.410814,2.013752 3.467406,2.027892 3.496036,2.030869 3.548835,2.047294 3.578633,2.050131 3.655799,2.05994 3.677666,2.061449 3.739522,2.064012 3.760007,2.063638 3.780696,2.06537 3.843497,2.083623 3.865007,2.085019 3.926394,2.09824 3.989173,2.097235 4.009372,2.100894 4.072891,2.093398 4.092357,2.09188 4.154013,2.088455 4.175454,2.086033 4.238048,2.079928 4.258777,2.079069 4.320514,2.07052 4.342059,2.070493 4.403987,2.063202 4.425443,2.063125 4.447288,2.062307 4.509109,2.064066 4.533126,2.066564 4.59283,2.074109 4.615667,2.078583 4.67592,2.095065 4.698229,2.103006 4.759244,2.12856 4.779734,2.133617 4.841765,2.144978 4.904925,2.143514 4.924558,2.142873 4.988953,2.13699 5.007458,2.136004 5.067082,2.126371 5.089703,2.12176 5.150286,2.107077 5.172702,2.102274 5.233404,2.08971 5.256269,2.084831 5.318413,2.080411 5.339856,2.07692 5.400831,2.068686 5.423179,2.066535 5.482979,2.063643 5.506263,2.061057 5.568627,2.058967 5.589813,2.056673 5.610856,2.054494 5.672299,2.058635 5.732763,2.043041 5.754539,2.036918 5.807404,1.991998 5.834537,1.975861 5.888019,1.934913 5.917904,1.912191 5.972638,1.874195 6.003493,1.852283 6.05737,1.826664 6.087951,1.815571 6.141873,1.791104 6.172008,1.782557 6.222264,1.765302 6.254836,1.752119 6.303208,1.737074 6.337483,1.72846 6.388634,1.714887 6.421847,1.710993 6.472888,1.705851 6.505794,1.698843 6.553085,1.686715 6.587672,1.67694 6.637347,1.656045 6.671625,1.646206 6.718702,1.633029 6.755237,1.621547 6.802345,1.608998 6.838517,1.599826 6.884292,1.586422 6.92177,1.573678 6.96904,1.559311 7.005102,1.552009 7.05011,1.540133 7.088333,1.531249 7.132587,1.524319 7.171131,1.518884 7.215916,1.515042 7.254528,1.51543 7.292227,1.518572 7.338142,1.525945 7.375952,1.522027 7.420701,1.518978 7.463763,1.506102 7.504141,1.49651 7.548477,1.489152 7.587561,1.484167 7.631791,1.48041 7.671161,1.473857 7.710002,1.470458 7.753489,1.465984 7.793641,1.467513 7.836453,1.469833 7.876003,1.47374 7.919417,1.478715 7.958821,1.488336 8.002256,1.495807 8.039701,1.503121 8.084922,1.508773 8.123028,1.512691 8.168103,1.518332 8.20527,1.523805 8.251364,1.533698 8.288689,1.543343 8.334646,1.554724 8.371308,1.564201 8.416782,1.573857 8.452212,1.586527 8.518053,1.608364 8.522436,1.610154 8.590885,1.639735 8.599239,1.643013 8.67434,1.668509 8.68222,1.671682 8.689408,1.673973 8.751438,1.695347 8.785462,1.705664 8.833747,1.717284 8.863245,1.724333 8.917642,1.75443 8.947801,1.762044 9.00127,1.773891 9.031647,1.77697 9.084389,1.778184 9.11429,1.781671 9.167186,1.785399 9.195039,1.790546 9.250667,1.80032 9.280575,1.808818 9.334189,1.817209 9.362775,1.824188 9.418066,1.835728 9.449039,1.843067 9.472006,1.848178 9.52621,1.871062 9.546343,1.87842 9.601041,1.904441 9.622959,1.915679 9.674941,1.942464 9.697083,1.954836 9.748765,1.981335 9.772015,1.992041 9.820097,2.019767 9.847596,2.028885 9.896399,2.058596 9.920652,2.069758 9.967789,2.097423 9.99365,2.110118 10.044558,2.134049 10.070474,2.14569 10.0956,2.159302 10.142594,2.187354 10.22265,2.242425 10.236066,2.25102 10.247385,2.261857 10.290897,2.306593 10.332127,2.349213 10.378258,2.41106 10.400095,2.441215 10.410572,2.455526 10.469696,2.534479 10.505784,2.593138 10.529218,2.631245 10.568279,2.711491 10.578145,2.7315 10.628502,2.826843 10.630229,2.830252 10.631376,2.833514 10.671739,2.933148 10.671878,2.933789 10.693096,3.043708 10.696533,3.078387 10.704748,3.158088 10.716526,3.234193 10.72173,3.27013 10.728917,3.355583 10.731212,3.385092 10.732263,3.399999 10.738533,3.50101 10.739891,3.590378 10.740231,3.619673 10.741583,3.659702 10.74456,3.737773 10.745856,3.789365 10.748285,3.854638 10.749229,3.952043 10.749441,3.973749 10.749277,3.990944 10.74698,4.093586 10.74578,4.211671 10.745778,4.213138 10.745683,4.21469 10.739742,4.334536 10.735549,4.455129 10.73553,4.455887 10.735458,4.456613 10.721316,4.579489 10.706836,4.650814 10.69407,4.710588 10.668067,4.816127 10.659126,4.843907 10.652659,4.856426 10.615112,4.934798 10.591878,4.980601 10.579805,5.006024 10.561621,5.041447 10.544101,5.076065 10.532826,5.101766 10.511003,5.14568 10.4769,5.209438 10.475224,5.212487 10.47412,5.21421 10.434287,5.274094 10.408854,5.309403 10.390704,5.331698 10.346494,5.375432 10.343074,5.379045 10.341474,5.380672 10.291612,5.428135 10.269006,5.445959 10.237828,5.473009 10.19504,5.503126 10.181143,5.51308 10.13768,5.544065 10.124896,5.553552 10.121189,5.5552 10.074092,5.59468 10.046716,5.616155 10.01754,5.643218 9.977079,5.686224 9.971009,5.695485 9.960693,5.711198 9.910712,5.776694 9.864034,5.820893 9.839655,5.842803 9.788199,5.878005 9.764697,5.892582 9.755465,5.898361 9.688346,5.938213 9.650261,5.96012 9.61144,5.982208 9.546475,6.015994 9.53372,6.023078 9.492277,6.04375 9.455414,6.061037 9.395572,6.085582 9.375149,6.091723 9.347424,6.100601 9.293662,6.117722 9.253143,6.128473 9.212347,6.144085 9.150289,6.175231 9.134208,6.183188 9.081465,6.208829 9.060527,6.218726 9.055603,6.220478 8.988424,6.239651 8.973533,6.243149 8.912198,6.254305 8.889827,6.260445 8.834437,6.267063 8.805778,6.275887 8.764252,6.29652 8.726695,6.311921 8.702274,6.323176 8.645873,6.34029 8.57378,6.374532 8.567339,6.377814 8.565376,6.378517 8.487275,6.408882 8.434407,6.429739 8.405806,6.434724 8.356181,6.443624 8.32168,6.45074 8.281085,6.458461 8.240255,6.47155 8.207188,6.474568 8.153302,6.47858 8.118166,6.475847 8.06402,6.472962 8.028236,6.471533 7.97359,6.467741 7.926978,6.454588 7.879918,6.439658 7.813227,6.415882 7.784652,6.404957 7.698924,6.370932 7.68406,6.365096 7.67989,6.363692 7.589686,6.341689 7.571078,6.337396 7.497502,6.328254 7.431726,6.331843 7.411639,6.331124 7.345721,6.32748 7.32446,6.327996 7.300387,6.325386 7.230774,6.308569 7.19615,6.305787 7.139104,6.298538 7.102087,6.298133 7.050782,6.297496 7.0134,6.297173 6.962306,6.296954 6.927971,6.300653 6.875101,6.299526 6.841514,6.301302 6.786535,6.295124 6.745242,6.290559 6.698717,6.2926 6.659515,6.29175 6.610271,6.29282 6.571748,6.29302 6.52537,6.305445 6.465402,6.320638 6.441612,6.319596 6.374368,6.330752 6.356946,6.332118 6.288941,6.320686 6.264575,6.317464 6.206346,6.298661 6.168848,6.286012 6.1252,6.268772 6.071764,6.250688 6.046733,6.240591 5.973259,6.213071 5.964454,6.209085 5.884179,6.193988 5.882281,6.193604 5.789902,6.183476 5.784453,6.183248 5.701888,6.178148 5.694513,6.178638 5.613934,6.177736 5.605402,6.177096 5.528123,6.18385 5.494828,6.192307 5.451014,6.203211 5.445618,6.204565 5.366281,6.209201 5.357891,6.21169 5.347306,6.212112 5.272203,6.21884 5.197766,6.217866 5.183844,6.217156 5.101095,6.206279 5.092333,6.205188 5.004788,6.200256 4.937272,6.221751 4.921868,6.224661 4.857326,6.230676 4.835782,6.231448 4.770829,6.234139 4.747291,6.232817 4.678748,6.226391 4.658415,6.223697 4.58067,6.212071 4.56756,6.210142 4.483235,6.200591 4.476193,6.19952 4.39356,6.197979 4.387924,6.197565 4.312034,6.205197 4.301505,6.203638 4.228772,6.215024 4.214709,6.215164 4.149532,6.223689 4.130052,6.223598 4.060954,6.222316 4.041851,6.22207 3.957585,6.209324 3.947577,6.20967 3.868905,6.204866 3.859827,6.20607 3.791249,6.211583 3.777449,6.21431 3.711189,6.22221 3.691577,6.223923 3.624088,6.223214 3.603368,6.222395 3.528613,6.212618 3.512531,6.210764 3.424271,6.192394 3.418832,6.19163 3.376065,6.182194 3.324485,6.170668 3.317752,6.16933 3.234528,6.153641 3.215469,6.147506 3.140412,6.125433 3.104924,6.115304 3.052885,6.098845 3.019313,6.086557 2.953709,6.05837 2.923167,6.045747 2.848937,6.015831 2.831465,6.007714 2.749239,5.967597 2.708518,5.941777 2.643703,5.903049 2.556663,5.856365 2.543465,5.84934 2.537973,5.846029 2.476964,5.818459 2.459637,5.808673 2.393559,5.775605 2.377247,5.765165 2.310549,5.728833 2.296552,5.721314 2.227478,5.684572 2.215601,5.678002 2.143585,5.643284 2.132486,5.636775 2.063479,5.609054 2.05561,5.605634 1.980735,5.576099 1.974185,5.57243 1.898631,5.540635 1.893465,5.537169 1.816318,5.485729 1.811964,5.482589 1.733978,5.44106 1.651642,5.398228 1.651124,5.397877 1.615665,5.378752 1.56882,5.354112 1.482344,5.314585 1.479543,5.313253 1.401435,5.28782 1.398782,5.286264 1.318637,5.242349 1.315364,5.240151 1.23656,5.18692 1.231067,5.183069 1.153461,5.131968 1.145918,5.127191 1.067544,5.082025 1.056753,5.074987 0.986927,5.033128 0.975638,5.024271 0.961299,5.011589 0.900043,4.955616 0.862147,4.907863 0.826198,4.86951 0.786801,4.823251 0.75469,4.785757 0.715059,4.734976 0.688077,4.701881 0.64472,4.65081 0.615542,4.619548 0.571461,4.566156 0.542338,4.53622 0.483457,4.48189 0.461161,4.454375 0.409434,4.390393 0.397051,4.3667 0.364392,4.303189 0.35512,4.282356 0.327038,4.219226 0.316548,4.199039 0.288739,4.133977 0.280671,4.115595 0.265155,4.05065 0.259508,4.032741 0.240324,3.964755 0.236736,3.948873 0.220426,3.881848 0.217017,3.866199 0.202273,3.798074 0.19942,3.783101 0.191546,3.714519 0.189919,3.700252 0.183477,3.630534 0.181976,3.617127 0.178941,3.548349 0.178696,3.534231 0.181751,3.464005 0.181703,3.451251 0.184114,3.379813 0.184033,3.368378 0.184443,3.357124 0.198971,3.285526 0.201125,3.273597 0.222107,3.209059 0.226448,3.191618 0.267414,3.08032 0.270574,3.067983 0.276053,3.049596 0.300907,3.004723 0.324722,2.944449 0.328182,2.936688 0.333342,2.924794 0.359643,2.872143 0.372376,2.832015 0.386035,2.803628 0.401402,2.757845 0.412004,2.735591 0.41745,2.716352 0.437854,2.665301 0.444451,2.598739 0.446467,2.585251 0.440869,2.550837 0.436652,2.48441 0.427244,2.4516 0.3889,2.35534 0.36737,2.315442 0.33268,2.216372 0.318693,2.17663 0.309217,2.146449 0.302488,2.118982 0.289033,2.048115 0.287688,2.036963 0.276284,1.962197 0.275251,1.953201 0.273027,1.879932 0.27299,1.870382 0.272533,1.796928 0.271852,1.787387 0.272439,1.777876 0.27644,1.711482 0.278761,1.683103 0.28574,1.635115 0.292111,1.58877 0.299282,1.557784 0.30825,1.532772 0.355567,1.426552 0.356288,1.425104 0.357396,1.422968 0.407626,1.32536 0.451677,1.257346 0.461786,1.24409 0.465883,1.239751 0.474196,1.230194 0.528682,1.169382 0.573883,1.12791 0.594726,1.109691 0.654648,1.063427 0.662801,1.05745 0.664902,1.056009 0.66794,1.053957 0.736007,1.005503 0.782159,0.978828 0.811231,0.965821 0.853217,0.950658 0.891748,0.940074 0.9379,0.932158 0.975754,0.921852 1.036306,0.924257 1.069126,0.924927 1.171443,0.944331 1.197218,0.937548 1.251639,0.923215 1.313097,0.846263 1.36063,0.796808 1.378019,0.778657 1.387431,0.771207 1.432026,0.739689 1.449151,0.729556 1.452849,0.726574 1.522028,0.683868 1.577329,0.661476 1.600086,0.650788 1.654809,0.636873 1.682812,0.629162 1.743045,0.621861 1.770041,0.621873 1.839798,0.614596 1.856986,0.614549 1.946604,0.613491 1.949993,0.613129" style="fill: white" />
</svg>
