<svg width="12.953712" height="10.039674">
<polygon type="contour" points="7.670307,0.023984 7.740004,0.027084 7.753751,0.028739 7.823713,0.042206 7.838258,0.045055 7.906194,0.069112 7.92219,0.073123 7.98636,0.107401 8.00478,0.115468 8.023765,0.125276 8.086778,0.180657 8.109677,0.193972 8.170802,0.218271 8.228844,0.220856 8.253008,0.226887 8.277471,0.228284 8.335716,0.223975 8.395292,0.225479 8.419495,0.227274 8.478046,0.230424 8.502589,0.23135 8.56044,0.239895 8.585675,0.243287 8.642153,0.264552 8.668781,0.271083 8.703258,0.286107 8.728167,0.298601 8.785269,0.325748 8.803123,0.334358 8.869121,0.349033 8.892492,0.353771 8.919263,0.355059 8.992006,0.354668 9.017055,0.36353 9.075216,0.379027 9.101826,0.389256 9.158329,0.404054 9.188192,0.413611 9.236814,0.435418 9.264645,0.448553 9.317337,0.465715 9.348336,0.478037 9.391651,0.503953 9.418863,0.521649 9.46241,0.548705 9.499894,0.583274 9.524799,0.604725 9.551002,0.624448 9.594351,0.650808 9.621844,0.669407 9.664073,0.696084 9.691692,0.714562 9.735119,0.739492 9.765153,0.756389 9.80659,0.782592 9.835695,0.79922 9.879615,0.822249 9.908303,0.842519 9.948046,0.870869 9.983629,0.904367 10.008551,0.92986 10.041411,0.970422 10.062049,0.999552 10.098451,1.03645 10.121811,1.059936 10.147871,1.078563 10.188909,1.108417 10.228408,1.140895 10.254599,1.159469 10.282744,1.176762 10.324186,1.2049 10.352319,1.222686 10.394927,1.249072 10.424534,1.266281 10.465962,1.292495 10.505427,1.320975 10.532858,1.341989 10.570326,1.376088 10.595858,1.398283 10.632238,1.432966 10.655116,1.458425 10.690072,1.496575 10.711809,1.523319 10.747389,1.562486 10.770462,1.583985 10.807337,1.622797 10.83108,1.643115 10.865383,1.687329 10.88672,1.709719 10.922098,1.752128 10.941732,1.774545 10.977043,1.820888 10.994871,1.844675 11.031286,1.891788 11.047941,1.914606 11.08595,1.962513 11.100711,1.985923 11.137866,2.036445 11.152227,2.058162 11.18676,2.119696 11.199519,2.139353 11.237077,2.194311 11.249306,2.211403 11.286269,2.272475 11.296521,2.289527 11.329555,2.360203 11.337518,2.375497 11.37292,2.449767 11.379294,2.463562 11.415794,2.536125 11.42123,2.545582 11.468129,2.615855 11.472161,2.622885 11.510664,2.706454 11.512732,2.710723 11.554347,2.797012 11.554772,2.797948 11.566452,2.822257 11.5968,2.885594 11.597836,2.888072 11.633761,2.980763 11.636288,2.988649 11.667216,3.084089 11.67079,3.097689 11.695172,3.189084 11.698835,3.211911 11.716654,3.303953 11.718096,3.341975 11.721585,3.43002 11.726856,3.507336 11.727457,3.528271 11.728977,3.613827 11.737413,3.701627 11.738684,3.713313 11.741328,3.776535 11.742345,3.790292 11.742892,3.807706 11.74686,3.878696 11.746574,3.891098 11.747146,3.961481 11.74242,4.032569 11.741415,4.044693 11.741781,4.056732 11.739729,4.127575 11.739015,4.139501 11.732067,4.211021 11.731502,4.222425 11.728425,4.293771 11.727321,4.304894 11.721266,4.377034 11.719847,4.387506 11.709598,4.460008 11.698047,4.53344 11.695777,4.542706 11.683802,4.61677 11.681766,4.625386 11.665346,4.701705 11.663586,4.709045 11.645929,4.786509 11.644804,4.79252 11.631071,4.869188 11.629402,4.874654 11.603505,4.955397 11.602617,4.958858 11.575678,5.037419 11.575019,5.039484 11.544065,5.106676 11.536188,5.123679 11.535903,5.124221 11.493905,5.206622 11.491945,5.209788 11.44769,5.287963 11.444563,5.293695 11.396859,5.371444 11.391934,5.380278 11.341112,5.457286 11.332033,5.470231 11.283732,5.538226 11.271162,5.554166 11.215104,5.622945 11.204582,5.642715 11.163224,5.70449 11.149839,5.728292 11.105569,5.788297 11.088372,5.814412 11.040009,5.870833 11.011686,5.904044 10.96959,5.957189 10.949664,5.990312 10.921396,6.039237 10.889188,6.07886 10.862468,6.119497 10.824937,6.16024 10.787434,6.200865 10.747747,6.247583 10.714774,6.286759 10.679374,6.340472 10.663064,6.371813 10.621588,6.426385 10.603634,6.45479 10.554653,6.508389 10.537001,6.531289 10.449806,6.599087 10.427865,6.619499 10.411014,6.634566 10.395436,6.647008 10.375041,6.661816 10.310711,6.709366 10.235671,6.760219 10.228376,6.765417 10.21957,6.772969 10.144577,6.831752 10.134556,6.840413 10.060679,6.904177 10.053475,6.909434 9.978651,6.960481 9.974492,6.96222 9.894862,6.993461 9.810282,7.041342 9.8098,7.04167 9.795919,7.049923 9.729453,7.089242 9.727252,7.089888 9.646343,7.112061 9.643034,7.113505 9.564321,7.14641 9.559583,7.148993 9.479203,7.193446 9.471748,7.196935 9.396958,7.237053 9.38763,7.240965 9.313301,7.277107 9.301519,7.284244 9.22779,7.334351 9.213024,7.343797 9.147879,7.38446 9.131311,7.391092 9.061927,7.426955 9.043283,7.432476 8.982012,7.455198 8.961634,7.46212 8.897095,7.489617 8.874816,7.503708 8.81309,7.531727 8.787551,7.552775 8.730054,7.583482 8.673875,7.616296 8.644655,7.640202 8.593721,7.681313 8.562816,7.702629 8.514133,7.717452 8.48045,7.726644 8.430724,7.731599 8.396401,7.735836 8.347444,7.741444 8.312781,7.749014 8.26491,7.761816 8.229783,7.771919 8.182858,7.788605 8.146049,7.801551 8.10016,7.817249 8.063002,7.824613 8.024294,7.833322 7.980472,7.84278 7.936492,7.853582 7.8971,7.86263 7.857615,7.869101 7.813883,7.879259 7.774124,7.886276 7.731984,7.894237 7.689249,7.910708 7.646893,7.929299 7.603894,7.947543 7.564086,7.967576 7.519228,7.98562 7.481159,8.000149 7.434171,8.010482 7.396973,8.022475 7.350406,8.024322 7.31423,8.029513 7.266537,8.033894 7.230877,8.034851 7.183278,8.040567 7.147425,8.035464 7.10011,8.042727 7.064377,8.042714 7.028555,8.047583 6.980939,8.056554 6.945914,8.061607 6.898336,8.06504 6.850028,8.06999 6.815011,8.079582 6.766281,8.085 6.732212,8.090114 6.684068,8.091535 6.648775,8.09514 6.600671,8.10103 6.564973,8.10066 6.515872,8.107363 6.481771,8.107064 6.447794,8.111356 6.398455,8.116257 6.364666,8.121423 6.315006,8.126309 6.26508,8.132023 6.23186,8.13884 6.181482,8.140197 6.148176,8.140844 6.114695,8.136132 6.06355,8.126949 6.028001,8.113779 5.980348,8.100233 5.94368,8.085464 5.898666,8.070104 5.860368,8.0541 5.816052,8.025905 5.774435,8.004656 5.732654,7.974352 5.686007,7.947909 5.64853,7.928586 5.600481,7.896683 5.567232,7.877665 5.516756,7.837083 5.484994,7.813672 5.438411,7.774816 5.432642,7.769863 5.374757,7.719492 5.336954,7.686518 5.335531,7.684261 5.276494,7.600822 5.272554,7.594359 5.222234,7.517842 5.218506,7.508595 5.188168,7.435084 5.185517,7.424244 5.177987,7.349033 5.172812,7.335407 5.156822,7.265221 5.124962,7.198117 5.113778,7.181805 5.107357,7.164636 5.060909,7.097023 5.056239,7.076188 5.040396,7.01355 5.034822,6.99136 5.025787,6.930841 5.022843,6.907705 5.009535,6.847029 5.003394,6.822571 4.995929,6.763841 4.9927,6.738381 4.985405,6.680773 4.982084,6.654583 4.932932,6.550158 4.903472,6.507172 4.859082,6.507183 4.820456,6.502353 4.775206,6.496654 4.737254,6.487256 4.690597,6.475709 4.654304,6.466717 4.61752,6.467864 4.570659,6.467795 4.534803,6.469788 4.487629,6.473331 4.45117,6.478595 4.404527,6.48481 4.368299,6.485916 4.321363,6.490497 4.28442,6.488488 4.238449,6.487178 4.191158,6.48432 4.155062,6.475795 4.106368,6.473307 4.071985,6.464892 4.023994,6.457642 3.988733,6.454152 3.939286,6.45005 3.905252,6.449706 3.870863,6.453096 3.822025,6.454507 3.787817,6.458065 3.738563,6.456879 3.703704,6.465271 3.655307,6.471868 3.620917,6.477781 3.572618,6.486659 3.537822,6.493717 3.489024,6.504123 3.453871,6.509842 3.406099,6.512033 3.37111,6.515019 3.322894,6.518277 3.287466,6.519438 3.239719,6.521355 3.190244,6.517089 3.156076,6.51351 3.104841,6.502257 3.072234,6.49852 3.022312,6.489226 2.989911,6.481162 2.937606,6.467852 2.906344,6.457909 2.851411,6.446128 2.823204,6.437583 2.769906,6.423368 2.742184,6.416754 2.682513,6.403546 2.656685,6.402809 2.600843,6.391888 2.574496,6.386267 2.515862,6.371729 2.491353,6.365134 2.430258,6.34364 2.407615,6.335524 2.347057,6.317367 2.326133,6.308202 2.26187,6.277527 2.242425,6.266442 2.176225,6.232797 2.159803,6.224497 2.090962,6.181397 2.077442,6.170774 2.009696,6.122352 1.998066,6.114165 1.921328,6.060806 1.91327,6.054539 1.837407,5.997277 1.83267,5.992711 1.759014,5.907508 1.755913,5.903497 1.735751,5.87349 1.675428,5.780596 1.661481,5.759844 1.60239,5.706913 1.569431,5.676054 1.500676,5.6155 1.482219,5.597946 1.418804,5.540365 1.407536,5.527923 1.357556,5.468937 1.329477,5.438364 1.280807,5.382322 1.256897,5.355664 1.216125,5.2913 1.203733,5.269566 1.160536,5.200413 1.153551,5.183313 1.121931,5.11371 1.114546,5.099795 1.088913,5.027792 1.084558,5.016899 1.061834,4.941462 1.058281,4.9325 1.0305,4.856632 1.028032,4.849401 0.982094,4.770313 0.980274,4.766207 0.940855,4.685236 0.939985,4.683354 0.910154,4.601578 0.909857,4.600906 0.899425,4.572817 0.879389,4.517619 0.879307,4.516281 0.876926,4.431402 0.857943,4.349805 0.857484,4.344497 0.840893,4.266518 0.842623,4.190588 0.844126,4.183319 0.857558,4.108415 0.860016,4.099967 0.864755,4.024095 0.865764,4.017116 0.864403,3.940778 0.865524,3.933998 0.866123,3.927199 0.865813,3.850549 0.865614,3.843696 0.869285,3.767278 0.86853,3.758117 0.853002,3.654448 0.851828,3.638871 0.849017,3.597666 0.850975,3.534281 0.85172,3.500527 0.861466,3.433238 0.872139,3.40182 0.887135,3.337345 0.893094,3.319898 0.916043,3.261529 0.933046,3.196725 0.935623,3.189627 0.938034,3.180337 0.966535,3.10551 1.000569,3.02257 1.001769,3.019394 1.002803,3.016651 1.025844,2.96634 1.039478,2.936757 1.069069,2.853355 1.069857,2.846934 1.082656,2.777 1.099357,2.70711 1.101591,2.698356 1.122016,2.633421 1.142602,2.577341 1.147125,2.565864 1.15453,2.549849 1.1959,2.477736 1.246421,2.398527 1.251675,2.390811 1.257664,2.382634 1.313109,2.318422 1.350056,2.276398 1.375496,2.247349 1.410014,2.204596 1.438253,2.172734 1.45632,2.1541 1.501394,2.105052 1.556432,2.049847 1.566297,2.038774 1.570597,2.034016 1.637765,1.963466 1.638115,1.963098 1.638652,1.962516 1.694362,1.901781 1.754495,1.847425 1.756226,1.845777 1.815436,1.794981 1.819378,1.791746 1.881347,1.744906 1.892971,1.737534 1.961063,1.698701 1.96568,1.696467 2.050875,1.650272 2.112616,1.617201 2.124301,1.610865 2.126778,1.609517 2.129412,1.608331 2.204462,1.576565 2.264015,1.548656 2.281356,1.53982 2.331002,1.517444 2.358956,1.505096 2.402979,1.486163 2.437401,1.47154 2.471904,1.455462 2.565808,1.4266 2.587336,1.419372 2.595286,1.417719 2.67225,1.39993 2.678675,1.399678 2.757614,1.382994 2.762581,1.382774 2.844226,1.356129 2.846955,1.355381 2.928727,1.323676 2.929775,1.323303 3.011793,1.299215 3.012072,1.299118 3.093971,1.28534 3.094302,1.285221 3.136627,1.280044 3.177465,1.275086 3.260362,1.274988 3.260703,1.275014 3.27245,1.277201 3.343771,1.290368 3.345818,1.290786 3.427019,1.302261 3.510619,1.299694 3.517727,1.297677 3.593529,1.276106 3.594045,1.27601 3.676596,1.252164 3.67774,1.252055 3.759902,1.243473 3.842287,1.251818 3.843452,1.25196 3.909078,1.278842 3.92625,1.285949 3.926555,1.286106 4.008436,1.331457 4.011034,1.333279 4.092781,1.379126 4.183543,1.367431 4.259973,1.336175 4.262936,1.335293 4.343275,1.313632 4.345014,1.313226 4.42579,1.300194 4.507753,1.299877 4.508627,1.299789 4.509463,1.299948 4.591227,1.314878 4.592302,1.315013 4.674065,1.335042 4.676064,1.335451 4.757431,1.363095 4.761596,1.363297 4.840251,1.38453 4.845336,1.386008 4.923564,1.403421 4.930572,1.406405 5.007049,1.424963 5.015107,1.427452 5.090536,1.445197 5.100113,1.447645 5.174532,1.462146 5.185413,1.463739 5.258573,1.473275 5.328845,1.472377 5.395555,1.407448 5.421552,1.383089 5.463471,1.304652 5.467099,1.298127 5.501043,1.225444 5.506247,1.21599 5.54351,1.151151 5.550078,1.141435 5.588353,1.076196 5.596472,1.061369 5.63003,1.001675 5.638694,0.986126 5.667058,0.922467 5.675747,0.902065 5.701453,0.835586 5.712049,0.810783 5.739518,0.758891 5.751892,0.73331 5.775678,0.678615 5.789331,0.650952 5.813145,0.597061 5.831143,0.568422 5.856808,0.523658 5.880974,0.49931 5.915298,0.464248 5.950862,0.433583 5.980694,0.412108 6.018095,0.385778 6.052711,0.366498 6.095996,0.342869 6.127996,0.323315 6.166363,0.308525 6.230107,0.277673 6.256538,0.267963 6.314696,0.248287 6.33941,0.240954 6.396896,0.225369 6.422148,0.218031 6.480493,0.208254 6.504823,0.206012 6.566657,0.189239 6.588699,0.190474 6.649397,0.182682 6.671806,0.183137 6.734163,0.161432 6.755147,0.156061 6.817282,0.137779 6.837517,0.130776 6.901896,0.115166 6.919881,0.108519 6.98652,0.094153 7.003785,0.08966 7.069507,0.088864 7.087338,0.08741 7.104732,0.089008 7.170845,0.090972 7.188256,0.094504 7.254003,0.093995 7.271267,0.093295 7.336368,0.073659 7.3523,0.069889 7.419756,0.045548 7.433918,0.043381 7.502391,0.030074 7.515493,0.029046 7.586558,0.023736 7.599638,0.02302" style="fill: white" />
</svg>
