<svg width="12.953712" height="10.039674">
<polygon type="contour" points="7.646861,0.005884 7.670489,0.006203 7.729916,0.014617 7.75398,0.015657 7.812759,0.02942 7.83824,0.034264 7.894651,0.053 7.921352,0.062312 7.94884,0.076853 8.004612,0.118284 8.035583,0.14563 8.087535,0.192965 8.122869,0.206901 8.17008,0.208601 8.218817,0.20668 8.252973,0.208217 8.287412,0.205673 8.335662,0.201553 8.38461,0.202177 8.419301,0.203059 8.467956,0.209564 8.502523,0.211384 8.55079,0.222277 8.586122,0.227422 8.631886,0.24606 8.668704,0.259739 8.719085,0.284425 8.732746,0.292236 8.742127,0.297372 8.807332,0.328998 8.820228,0.331661 8.896681,0.347481 8.912394,0.349621 8.991669,0.35402 9.008906,0.360203 9.072295,0.382853 9.087524,0.392719 9.149441,0.416856 9.167091,0.425075 9.230818,0.445913 9.252035,0.452944 9.308179,0.47962 9.329371,0.487737 9.387622,0.51109 9.409799,0.521071 9.459482,0.553361 9.505109,0.59263 9.525004,0.605205 9.572504,0.640974 9.591523,0.655715 9.610728,0.670051 9.659859,0.703288 9.708804,0.736026 9.727599,0.751545 9.747285,0.765507 9.799225,0.794797 9.819906,0.808512 9.86991,0.837018 9.918408,0.871328 9.938229,0.886523 9.980942,0.930029 9.99863,0.946147 10.035797,0.998548 10.049594,1.019765 10.094023,1.064306 10.107363,1.081687 10.126823,1.092302 10.176311,1.127726 10.195106,1.139362 10.244635,1.174536 10.264641,1.185733 10.31619,1.217504 10.337363,1.228994 10.387502,1.260696 10.407566,1.273963 10.458724,1.303793 10.505621,1.339654 10.524625,1.355119 10.56973,1.39429 10.587774,1.410392 10.628616,1.455781 10.64464,1.474074 10.685382,1.524069 10.700043,1.541736 10.745035,1.583702 10.762867,1.596216 10.809963,1.636485 10.827741,1.648759 10.871834,1.694923 10.887337,1.709169 10.92962,1.757403 10.943414,1.774017 10.984156,1.828235 10.996059,1.844502 11.03685,1.90028 11.04713,1.916818 11.086452,1.979107 11.095852,1.99277 11.137613,2.05612 11.145828,2.068979 11.188416,2.134529 11.195957,2.14466 11.240622,2.207139 11.247135,2.2161 11.289213,2.286196 11.294132,2.294421 11.333227,2.36941 11.336659,2.376099 11.377889,2.465237 11.379351,2.467743 11.38071,2.470116 11.425356,2.548004 11.42538,2.548038 11.471192,2.627923 11.472484,2.630729 11.513394,2.715149 11.516344,2.721265 11.553545,2.803179 11.558143,2.812746 11.59083,2.89769 11.596725,2.912739 11.628507,2.987647 11.635257,3.008289 11.662227,3.09088 11.669565,3.118053 11.692865,3.194898 11.699884,3.23049 11.715625,3.308331 11.721705,3.375024 11.722817,3.403082 11.724058,3.421276 11.734175,3.514564 11.734391,3.635206 11.734654,3.639868 11.735621,3.650913 11.746127,3.740304 11.747642,3.760806 11.751178,3.873168 11.751393,3.87832 11.749465,3.960713 11.749373,3.962426 11.742527,4.044667 11.745023,4.127383 11.741943,4.178763 11.740027,4.21074 11.73594,4.293079 11.735923,4.293478 11.72774,4.375842 11.727675,4.376635 11.71669,4.457681 11.716473,4.45921 11.71623,4.460758 11.696205,4.542541 11.695764,4.545268 11.676724,4.625878 11.675915,4.629632 11.656817,4.709268 11.655629,4.714483 11.641253,4.791299 11.640244,4.796929 11.616183,4.87575 11.613672,4.883579 11.594286,4.959074 11.591242,4.967953 11.568146,5.040293 11.563273,5.050872 11.527541,5.123692 11.520934,5.136758 11.486194,5.207005 11.477489,5.222535 11.442974,5.289534 11.431538,5.308239 11.393643,5.37402 11.37847,5.396888 11.347656,5.453926 11.307923,5.513343 11.289672,5.538657 11.243394,5.592897 11.217757,5.623852 11.195688,5.656059 11.15908,5.707413 11.131219,5.743951 11.094853,5.789944 11.058342,5.830729 11.019081,5.871625 10.979966,5.919014 10.934208,5.956777 10.904039,6.008389 10.884188,6.041104 10.852239,6.089719 10.83399,6.120629 10.782871,6.175783 10.763342,6.200212 10.707108,6.26606 10.689145,6.288063 10.655519,6.352336 10.642824,6.371375 10.600279,6.439442 10.592427,6.454126 10.542033,6.520285 10.534172,6.531857 10.445038,6.616701 10.439586,6.622568 10.432499,6.628824 10.394088,6.658939 10.362231,6.682265 10.310096,6.721817 10.284129,6.738842 10.22643,6.782181 10.20154,6.801625 10.145964,6.841883 10.123758,6.861053 10.061667,6.914827 10.04358,6.927194 9.978122,6.967599 9.962055,6.973903 9.895148,7.008742 9.880746,7.016923 9.810548,7.050025 9.739628,7.081278 9.729073,7.087521 9.656595,7.108806 9.647248,7.111368 9.569798,7.145144 9.56217,7.148334 9.485222,7.190281 9.479728,7.193319 9.398805,7.231178 9.39542,7.232994 9.314049,7.267124 9.259762,7.300003 9.230286,7.318155 9.22865,7.318909 9.146468,7.371803 9.142628,7.373288 9.063776,7.40491 9.059054,7.40663 8.981767,7.429712 8.976213,7.431791 8.898034,7.459102 8.890343,7.463283 8.815652,7.511397 8.804363,7.521776 8.730623,7.583388 8.715386,7.598648 8.645032,7.655957 8.626472,7.665764 8.563499,7.708892 8.542565,7.715045 8.480598,7.731898 8.458086,7.736667 8.396667,7.744245 8.33602,7.757436 8.312963,7.762955 8.254151,7.77977 8.230059,7.786117 8.205548,7.79291 8.146555,7.813471 8.12046,7.819202 8.064044,7.830363 8.037732,7.834231 7.980544,7.847047 7.953243,7.853571 7.89705,7.866423 7.8695,7.871304 7.814529,7.8803 7.786335,7.883403 7.731967,7.892986 7.70327,7.899518 7.647138,7.9208 7.617193,7.929948 7.564813,7.951921 7.532579,7.962187 7.481533,7.982491 7.449844,7.989367 7.398526,8.000435 7.365006,8.004409 7.315555,8.006394 7.280826,8.016054 7.231361,8.020645 7.196789,8.030788 7.148137,8.036684 7.112616,8.044504 7.064829,8.051866 7.028957,8.056488 6.981417,8.065359 6.944961,8.070105 6.898662,8.073452 6.851819,8.078242 6.81525,8.082933 6.768877,8.088113 6.731754,8.095695 6.685822,8.09702 6.648607,8.101473 6.60279,8.107213 6.565372,8.110318 6.51995,8.116546 6.482163,8.121179 6.436877,8.125697 6.39879,8.126125 6.353572,8.130582 6.315515,8.132286 6.277438,8.133986 6.232242,8.13915 6.193632,8.139866 6.148255,8.141083 6.100849,8.132498 6.06318,8.124631 6.015967,8.111238 5.980128,8.101564 5.932397,8.085359 5.899313,8.07406 5.847798,8.041011 5.817077,8.023258 5.787482,8.001394 5.733071,7.960819 5.674995,7.930185 5.650121,7.914523 5.59113,7.88047 5.569456,7.865982 5.504142,7.817755 5.485884,7.803977 5.459383,7.785802 5.43514,7.767818 5.360768,7.696543 5.347464,7.684938 5.299736,7.609238 5.2933,7.600142 5.245098,7.521054 5.241926,7.516231 5.209817,7.436585 5.20855,7.433517 5.188905,7.353202 5.188482,7.348975 5.168235,7.295647 5.158029,7.2666 5.100795,7.18074 5.099092,7.175511 5.071137,7.096789 5.068322,7.089193 5.051463,7.013158 5.04921,7.004138 5.03071,6.929854 5.030718,6.919382 5.021736,6.846451 5.018897,6.834968 5.001154,6.763192 4.99634,6.750201 4.987552,6.68009 4.981589,6.66781 4.972666,6.598416 4.961063,6.574844 4.903957,6.492622 4.845618,6.485172 4.820963,6.475886 4.760821,6.460873 4.737686,6.449513 4.676176,6.434389 4.654713,6.430069 4.632857,6.432372 4.570889,6.434302 4.54818,6.437795 4.487911,6.441095 4.465736,6.446369 4.40498,6.455148 4.382906,6.455777 4.322004,6.457552 4.260809,6.454316 4.238831,6.452215 4.176317,6.437018 4.155515,6.430127 4.091646,6.414054 4.072705,6.406221 4.007121,6.399466 3.989369,6.396205 3.971363,6.396332 3.905991,6.39567 3.887947,6.398248 3.822483,6.404811 3.803726,6.406762 3.739129,6.413558 3.719863,6.41623 3.655742,6.431591 3.635275,6.43574 3.572778,6.44658 3.552829,6.448995 3.489288,6.461597 3.468899,6.463528 3.406551,6.473749 3.385328,6.476518 3.323378,6.481555 3.301983,6.482578 3.240359,6.484839 3.177146,6.478491 3.157066,6.479376 3.092931,6.472251 3.073562,6.471407 3.007655,6.45521 2.990476,6.451876 2.921702,6.430144 2.906481,6.424473 2.838678,6.403945 2.824191,6.399805 2.753793,6.383064 2.740935,6.38156 2.671283,6.379544 2.65798,6.377382 2.585266,6.362265 2.574507,6.360299 2.501458,6.340821 2.491415,6.33729 2.415562,6.310643 2.40791,6.307651 2.333291,6.275113 2.326624,6.270357 2.244987,6.22514 2.242345,6.224186 2.1602,6.183008 2.159508,6.182618 2.139897,6.167262 2.078087,6.118696 2.076129,6.117296 1.998609,6.062725 1.995049,6.06025 1.917233,5.99973 1.911171,5.995154 1.838482,5.925074 1.830646,5.916011 1.750672,5.812573 1.728205,5.779133 1.666594,5.723821 1.64202,5.701671 1.582496,5.645996 1.552556,5.619673 1.495411,5.562475 1.455826,5.526897 1.405005,5.479493 1.369523,5.437943 1.332368,5.393184 1.299882,5.355674 1.262654,5.303174 1.240463,5.268288 1.208304,5.215357 1.18894,5.184275 1.163068,5.127563 1.151526,5.101743 1.142962,5.038609 1.134982,5.015407 1.121606,4.95348 1.115309,4.931702 1.092411,4.868561 1.085279,4.848791 1.040174,4.78196 1.030734,4.765437 0.996763,4.697736 0.989821,4.68319 0.965031,4.612971 0.960456,4.600232 0.936187,4.527543 0.932229,4.516641 0.927606,4.441086 0.92739,4.433352 0.918355,4.357334 0.916632,4.349925 0.909928,4.272427 0.908564,4.266014 0.908707,4.259772 0.924589,4.182969 0.925884,4.175752 0.947994,4.099776 0.948585,4.090332 0.959245,4.016567 0.959082,4.007438 0.971313,3.93346 0.977857,3.859278 0.97782,3.850166 0.975676,3.776583 0.976135,3.767043 0.974328,3.745122 0.969239,3.689981 0.963822,3.630196 0.960679,3.598096 0.957897,3.534893 0.958203,3.525502 0.966275,3.431753 0.980733,3.373001 0.992889,3.330239 0.999469,3.299857 1.01765,3.231798 1.018348,3.228002 1.019183,3.224163 1.036673,3.15293 1.0519,3.085662 1.05341,3.077613 1.055231,3.06992 1.095166,2.962702 1.116032,2.910526 1.138529,2.850399 1.175874,2.751799 1.179243,2.739084 1.182486,2.729019 1.201733,2.670476 1.226446,2.611161 1.228849,2.603486 1.233952,2.593869 1.258438,2.538146 1.278046,2.510318 1.328237,2.428237 1.332634,2.421555 1.336819,2.416432 1.391979,2.341449 1.447774,2.265152 1.450857,2.260522 1.454106,2.256024 1.511097,2.180753 1.556505,2.126563 1.571914,2.106172 1.595756,2.080127 1.624179,2.048681 1.636917,2.035302 1.72057,1.940265 1.727997,1.932168 1.735935,1.924992 1.788593,1.874864 1.795293,1.869116 1.853173,1.821622 1.860038,1.816433 1.895536,1.793923 1.952153,1.756883 1.974377,1.742435 1.991306,1.735152 2.051126,1.705269 2.057602,1.702362 2.099983,1.681781 2.127773,1.668286 2.193971,1.638909 2.205593,1.634044 2.261716,1.607672 2.282531,1.59804 2.332375,1.576819 2.360677,1.564356 2.39948,1.545247 2.438196,1.52895 2.469332,1.512434 2.515095,1.492387 2.537599,1.481442 2.560949,1.471078 2.596156,1.457411 2.657165,1.438744 2.678389,1.433756 2.743912,1.413222 2.762761,1.409183 2.826853,1.389899 2.845185,1.38394 2.912719,1.359844 2.928576,1.353733 2.996668,1.336203 3.011332,1.331921 3.080228,1.323216 3.094265,1.320853 3.163584,1.322052 3.177507,1.320362 3.191331,1.320345 3.260595,1.325635 3.276074,1.328516 3.343767,1.335914 3.360055,1.338218 3.426988,1.339173 3.49684,1.326666 3.510726,1.326118 3.581333,1.308034 3.593885,1.304462 3.663566,1.291529 3.676478,1.287799 3.747928,1.281033 3.759852,1.279788 3.77181,1.280999 3.843041,1.289611 3.855637,1.294771 3.926325,1.318724 3.941055,1.326837 4.009354,1.361113 4.027042,1.370864 4.092699,1.381912 4.159294,1.365608 4.176294,1.363346 4.24528,1.341353 4.260212,1.335312 4.329666,1.318386 4.343298,1.314755 4.412419,1.311475 4.425634,1.309371 4.495435,1.312582 4.508254,1.31254 4.521038,1.314868 4.591587,1.335697 4.606525,1.339319 4.673628,1.363157 4.689453,1.36846 4.757814,1.378462 4.775295,1.383231 4.840823,1.392928 4.859311,1.397145 4.923919,1.405772 4.943221,1.410515 5.006856,1.419051 5.069576,1.433777 5.090393,1.438755 5.151779,1.454977 5.173832,1.459316 5.196039,1.462181 5.257908,1.484318 5.280519,1.483863 5.338349,1.487514 5.387466,1.470472 5.434329,1.41653 5.447881,1.403833 5.483026,1.327808 5.485458,1.323258 5.525546,1.251145 5.527007,1.248016 5.563209,1.182254 5.569481,1.170931 5.569805,1.170458 5.616595,1.101316 5.658514,1.025821 5.660977,1.021101 5.700003,0.951308 5.702988,0.945254 5.736114,0.868218 5.740817,0.857963 5.771017,0.787513 5.776754,0.775395 5.809458,0.708498 5.816861,0.69381 5.848621,0.629956 5.858613,0.613974 5.894083,0.557684 5.908019,0.542939 5.952393,0.498205 6.002571,0.46192 6.019458,0.44747 6.076193,0.416274 6.096205,0.405463 6.150433,0.372238 6.169635,0.360923 6.193763,0.346815 6.256841,0.313494 6.299831,0.290922 6.33917,0.277394 6.384834,0.261281 6.4219,0.25119 6.468887,0.241459 6.505112,0.235393 6.552979,0.219552 6.589152,0.209382 6.639288,0.193054 6.67257,0.188745 6.722231,0.174059 6.755183,0.162585 6.805443,0.153502 6.837217,0.144208 6.890562,0.136064 6.921031,0.12887 6.973597,0.126901 7.004231,0.120304 7.057115,0.119382 7.087233,0.119015 7.139884,0.110236 7.169966,0.111131 7.225131,0.086074 7.25334,0.085861 7.280755,0.077609 7.336171,0.057324 7.362174,0.047994 7.419968,0.02884 7.444174,0.024208 7.502464,0.013299 7.526468,0.011507 7.58664,0.005359" style="fill: white" />
</svg>
