<svg width="12.953712" height="10.039674">
<polygon type="contour" points="5.012157,5.00411 5.03363,5.021191 5.093008,5.03458 5.151162,5.071514 5.178076,5.104378 5.23922,5.168627 5.253833,5.188616 5.291719,5.241839 5.304869,5.262112 5.344076,5.310878 5.35824,5.33063 5.396361,5.382956 5.409167,5.403468 5.445654,5.457063 5.459393,5.477003 5.494473,5.531499 5.508013,5.552846 5.543982,5.606944 5.559068,5.624764 5.598198,5.680369 5.613739,5.695251 5.654768,5.743636 5.670907,5.758474 5.714929,5.801658 5.731743,5.816153 5.777485,5.857739 5.795007,5.871074 5.841704,5.911533 5.859024,5.925248 5.877197,5.937793 5.92588,5.974562 5.944511,5.98633 5.993178,6.024216 6.01106,6.037581 6.060289,6.073214 6.109952,6.108797 6.128958,6.12046 6.147869,6.132164 6.196814,6.168698 6.248604,6.200746 6.268414,6.211437 6.287644,6.223349 6.338129,6.256849 6.388312,6.290122 6.408145,6.302052 6.42739,6.314343 6.477838,6.347432 6.530045,6.378981 6.548964,6.390811 6.599144,6.424212 6.619253,6.43537 6.638745,6.447547 6.688556,6.480966 6.7081,6.493568 6.757654,6.526975 6.776829,6.540396 6.823641,6.577851 6.842482,6.593649 6.88654,6.632929 6.904137,6.64964 6.946689,6.690529 6.960495,6.706117 7.015792,6.770821 7.029242,6.788508 7.068801,6.848727 7.076495,6.868039 7.104291,6.929884 7.111269,6.95099 7.135387,7.014985 7.138784,7.035812 7.156719,7.104008 7.158439,7.124163 7.146939,7.138342 7.139103,7.19342 7.115378,7.202378 7.076112,7.250993 7.018777,7.248441 6.958864,7.230737 6.94757,7.226044 6.907541,7.202883 6.863069,7.174771 6.800009,7.127383 6.777331,7.110511 6.716358,7.062792 6.694768,7.048572 6.635166,7.007685 6.612905,6.991176 6.550762,6.945476 6.529496,6.931534 6.46851,6.891642 6.44693,6.878172 6.385645,6.838598 6.364696,6.827153 6.302268,6.788765 6.281338,6.778059 6.21837,6.746584 6.197488,6.736208 6.1357,6.70348 6.11519,6.69326 6.051208,6.655244 6.030991,6.647237 5.969515,6.620755 5.949181,6.613078 5.886442,6.580669 5.866453,6.5726 5.802324,6.533512 5.782409,6.52371 5.719824,6.489431 5.700223,6.479467 5.680979,6.469271 5.615852,6.422935 5.596652,6.412655 5.533365,6.379257 5.514175,6.367332 5.450297,6.326516 5.431393,6.31461 5.367846,6.272462 5.349751,6.262654 5.286322,6.219144 5.268746,6.208106 5.202223,6.159169 5.185005,6.147685 5.124995,6.110013 5.054381,6.057756 5.014719,6.020719 4.966514,5.97282 4.892885,5.903706 4.863066,5.881208 4.808923,5.830602 4.793957,5.815791 4.775784,5.800625 4.706757,5.737338 4.688807,5.719775 4.644874,5.657164 4.629652,5.638864 4.591644,5.573461 4.578169,5.55286 4.569274,5.488508 4.561133,5.473676 4.550956,5.410346 4.545749,5.392262 4.561959,5.316515 4.572771,5.270898 4.627139,5.184433 4.640027,5.16848 4.650243,5.161036 4.719029,5.105227 4.759436,5.080621 4.803295,5.056891 4.853313,5.035067 4.88973,5.01651 4.935463,5.001652" style="fill: white" /><polygon type="contour" points="1.806249,8.124105 1.808089,8.124304 1.809014,8.124674 1.874929,8.157444 1.92902,8.197611 1.94555,8.21662 1.988114,8.265575 2.008811,8.286785 2.039128,8.334706 2.075743,8.38067 2.137834,8.466894 2.14469,8.476804 2.147531,8.481059 2.200193,8.577696 2.218832,8.607036 2.272033,8.671473 2.318452,8.746946 2.335761,8.768891 2.371911,8.829131 2.394948,8.867997 2.401613,8.879593 2.457145,8.965705 2.474141,9.004318 2.507678,9.067946 2.53373,9.122053 2.558163,9.170521 2.584104,9.224936 2.601192,9.266981 2.630122,9.334362 2.637767,9.350542 2.673466,9.420354 2.678499,9.434749 2.71395,9.50521 2.716723,9.519119 2.732558,9.585204 2.734824,9.600491 2.74767,9.667504 2.750038,9.683319 2.763458,9.750661 2.765882,9.767047 2.775345,9.836938 2.778331,9.854103 2.786292,9.925678 2.788304,9.941975 2.786555,9.98414 2.74874,10.024529 2.722615,10.036884 2.715431,10.037141 2.64758,10.022794 2.597603,10.012444 2.558534,9.998772 2.529911,9.987516 2.451873,9.928212 2.447202,9.924425 2.37344,9.845863 2.366924,9.838306 2.353307,9.821613 2.334949,9.800958 2.270591,9.722338 2.26716,9.717648 2.219501,9.643188 2.214237,9.636182 2.159028,9.561267 2.152439,9.553583 2.097911,9.478804 2.091169,9.470394 2.036669,9.396617 2.028056,9.387711 1.965693,9.31423 1.956594,9.304654 1.895247,9.230612 1.886341,9.22106 1.824076,9.149984 1.811264,9.139174 1.755908,9.072727 1.728327,9.057696 1.651421,8.989266 1.630861,8.975172 1.475019,8.885422 1.469568,8.878813 1.383996,8.81832 1.379743,8.803594 1.332886,8.732537 1.333474,8.719132 1.333353,8.681589 1.323268,8.622545 1.33054,8.59884 1.346788,8.482787 1.375929,8.441854 1.385049,8.406924 1.40739,8.381696 1.447661,8.316608 1.474995,8.290232 1.544384,8.225776 1.546902,8.223501 1.548844,8.221596 1.62386,8.155449 1.662628,8.122022 1.708984,8.115696 1.740846,8.10082" style="fill: white" />
</svg>
