<svg width="12.953712" height="10.039674">
<polygon type="contour" points="7.814748,0.453579 7.842485,0.453622 7.901598,0.462453 7.918253,0.466671 7.979712,0.486261 8.025831,0.505639 8.075733,0.518575 8.124179,0.535033 8.140771,0.540196 8.166862,0.546746 8.223999,0.566264 8.250535,0.573419 8.303785,0.591022 8.33236,0.600682 8.384395,0.626167 8.416489,0.649374 8.470052,0.679567 8.500676,0.695626 8.550253,0.72436 8.583544,0.731914 8.633743,0.755889 8.667343,0.761594 8.714206,0.771311 8.749983,0.778183 8.799699,0.792252 8.833448,0.795184 8.878973,0.804469 8.915583,0.812195 8.961712,0.829216 8.99864,0.840843 9.045156,0.861701 9.081633,0.872254 9.127331,0.893862 9.165098,0.903827 9.210983,0.918816 9.249245,0.928546 9.293488,0.940366 9.332895,0.949523 9.376359,0.960565 9.416386,0.966123 9.458296,0.969916 9.498755,0.975921 9.540704,0.980105 9.58191,0.985527 9.622446,0.991131 9.66431,1.001709 9.708025,1.017616 9.749252,1.03093 9.810226,1.058939 9.810901,1.059306 9.811361,1.059578 9.884776,1.099262 9.953092,1.146821 9.953095,1.146823 10.017005,1.197792 10.018192,1.198708 10.077025,1.26091 10.140419,1.31503 10.214875,1.352711 10.292917,1.387308 10.293639,1.387692 10.349529,1.422904 10.363163,1.431497 10.36332,1.431623 10.427775,1.484182 10.428263,1.484549 10.492038,1.537824 10.49256,1.538276 10.511814,1.554692 10.553798,1.590443 10.554856,1.591502 10.615073,1.649737 10.615725,1.65042 10.676643,1.705255 10.677868,1.706332 10.736771,1.761355 10.738745,1.763145 10.792217,1.828602 10.794023,1.830695 10.842942,1.89387 10.846286,1.897939 10.887295,1.974858 10.890791,1.980875 10.932297,2.053305 10.936824,2.060909 10.988525,2.121799 10.993768,2.128175 11.044462,2.180242 11.050838,2.18775 11.096062,2.254776 11.101935,2.263468 11.141457,2.332591 11.147876,2.343787 11.183696,2.411852 11.191417,2.425377 11.22537,2.496364 11.233665,2.512943 11.260514,2.565903 11.285242,2.614978 11.29381,2.631818 11.326173,2.697163 11.335874,2.715518 11.36788,2.778688 11.378073,2.798975 11.402696,2.859869 11.411584,2.881752 11.432169,2.942905 11.438632,2.96554 11.449925,3.023012 11.456934,3.048156 11.470491,3.106887 11.474381,3.131477 11.482419,3.18903 11.486008,3.214455 11.492972,3.271702 11.4962,3.297659 11.506398,3.355688 11.509477,3.381504 11.514546,3.436925 11.517366,3.464028 11.526793,3.521183 11.529829,3.547931 11.53328,3.603187 11.53638,3.630737 11.542262,3.686375 11.543868,3.713815 11.548799,3.769372 11.551057,3.797218 11.552227,3.825028 11.554867,3.880038 11.560007,3.934949 11.562333,3.963444 11.562839,3.991728 11.564781,4.046424 11.567829,4.101661 11.569974,4.129838 11.570752,4.157931 11.571554,4.212694 11.571948,4.241058 11.571648,4.29562 11.57074,4.323587 11.565375,4.378668 11.561624,4.406421 11.554226,4.461554 11.548615,4.48924 11.540264,4.544636 11.535656,4.570753 11.521356,4.627544 11.51477,4.653062 11.499068,4.710481 11.492106,4.734345 11.475958,4.793128 11.467806,4.816316 11.451742,4.876076 11.443354,4.897795 11.423932,4.960635 11.415677,4.981838 11.394641,5.042049 11.386796,5.060705 11.357824,5.126417 11.351261,5.144441 11.325636,5.209702 11.318975,5.225602 11.288591,5.290709 11.280279,5.304648 11.231763,5.376725 11.223885,5.388492 11.180156,5.45586 11.173856,5.464148 11.113919,5.543979 11.108802,5.551031 11.065289,5.624832 11.062212,5.628307 10.999882,5.706928 10.999462,5.707459 10.987806,5.720988 10.927638,5.791643 10.924928,5.794664 10.852829,5.874582 10.829252,5.902291 10.791425,5.938899 10.75637,5.974348 10.731506,5.994172 10.683226,6.036269 10.621631,6.08126 10.610352,6.089878 10.586743,6.106625 10.536671,6.151275 10.502883,6.182384 10.463993,6.217554 10.402988,6.270618 10.392671,6.280872 10.384691,6.289291 10.3211,6.354583 10.259562,6.415671 10.25096,6.424452 10.237981,6.435877 10.177535,6.485536 10.146391,6.505215 10.102502,6.53496 10.038677,6.571333 10.024946,6.57983 9.983165,6.60126 9.95296,6.61477 9.946503,6.61654 9.937932,6.619555 9.864369,6.640825 9.813199,6.657382 9.789413,6.666802 9.740369,6.693926 9.712171,6.708715 9.668549,6.729938 9.628279,6.74384 9.602106,6.751603 9.557697,6.767914 9.505549,6.782108 9.473719,6.792581 9.42154,6.798349 9.381602,6.807143 9.358244,6.810426 9.306316,6.814595 9.25126,6.823034 9.210391,6.829065 9.15403,6.833815 9.122544,6.840151 9.071376,6.841342 9.037382,6.852896 8.998916,6.860346 8.960096,6.878767 8.891525,6.906905 8.876257,6.909321 8.795095,6.937469 8.715543,6.969907 8.695618,6.979476 8.636057,7.00398 8.594729,7.028536 8.558455,7.043819 8.492844,7.078177 8.481039,7.08721 8.451466,7.104935 8.403957,7.131736 8.386908,7.142771 8.32685,7.174179 8.282797,7.20058 8.248876,7.214094 8.185443,7.232563 8.167326,7.240751 8.088387,7.271449 8.087482,7.271758 8.087306,7.271826 8.003615,7.288192 7.993381,7.292967 7.924607,7.326767 7.891329,7.339822 7.844413,7.356026 7.794087,7.376332 7.763206,7.384258 7.701133,7.395167 7.680049,7.401393 7.604912,7.430179 7.600002,7.431382 7.515071,7.434329 7.475689,7.43982 7.427373,7.446025 7.424434,7.446303 7.339104,7.445722 7.336463,7.445253 7.301587,7.440025 7.249533,7.431946 7.16247,7.440484 7.161836,7.44045 7.070451,7.438693 7.047452,7.442417 6.989085,7.450979 6.98477,7.451721 6.900451,7.449592 6.897416,7.448861 6.875919,7.443609 6.815325,7.428765 6.806167,7.424496 6.734456,7.40437 6.709792,7.390546 6.658331,7.362971 6.607836,7.335032 6.582507,7.320481 6.508195,7.279464 6.506312,7.278426 6.505609,7.277815 6.435776,7.217082 6.397077,7.195767 6.360049,7.174142 6.301319,7.115773 6.292907,7.107991 6.287777,7.104412 6.21947,7.054027 6.179849,7.02921 6.144485,7.002341 6.077197,6.971082 6.066218,6.964997 5.998905,6.94786 5.983868,6.945934 5.894735,6.946766 5.893843,6.946821 5.806985,6.944605 5.804801,6.944405 5.71584,6.934049 5.710284,6.933118 5.677348,6.924642 5.585614,6.900532 5.5366,6.893215 5.478406,6.881942 5.455844,6.876252 5.394938,6.861546 5.373143,6.856761 5.311345,6.842346 5.290594,6.839766 5.228296,6.831727 5.208473,6.830038 5.145624,6.82847 5.126288,6.826179 5.062145,6.819038 5.042907,6.817466 4.978465,6.811497 4.959751,6.808598 4.895787,6.796666 4.878538,6.793944 4.811947,6.780391 4.794954,6.776314 4.729342,6.764102 4.71379,6.761919 4.646222,6.753184 4.631187,6.751849 4.563037,6.743035 4.548638,6.74325 4.479347,6.737486 4.46512,6.737012 4.396594,6.734298 4.383221,6.732331 4.313604,6.730361 4.301037,6.72691 4.23052,6.718856 4.218689,6.71652 4.147626,6.706385 4.075484,6.7137 4.064372,6.713134 4.05345,6.714138 3.981356,6.718623 3.970336,6.719216 3.898181,6.727304 3.887072,6.728185 3.8149,6.737601 3.803654,6.737405 3.731566,6.73802 3.720606,6.738012 3.647733,6.739051 3.636852,6.739221 3.564177,6.738784 3.492108,6.733448 3.481776,6.732101 3.406653,6.715449 3.397343,6.71345 3.322084,6.685778 3.314033,6.684779 3.306018,6.683938 3.228592,6.66039 3.220666,6.658632 3.144408,6.638986 3.137901,6.636954 3.062018,6.613699 3.057491,6.610312 2.97861,6.569828 2.976417,6.567961 2.931751,6.533315 2.901258,6.508858 2.899684,6.507785 2.817455,6.443022 2.80895,6.439122 2.730278,6.400585 2.724038,6.398361 2.646986,6.380105 2.571452,6.369173 2.563925,6.366364 2.489535,6.354651 2.48089,6.352017 2.408831,6.329523 2.398776,6.326399 2.328332,6.288159 2.316061,6.283163 2.247858,6.254721 2.233614,6.249091 2.16692,6.229909 2.151539,6.226612 2.085171,6.217486 2.068021,6.213823 2.00206,6.190194 1.984235,6.185266 1.921905,6.158294 1.901886,6.148208 1.838715,6.118586 1.817713,6.10945 1.756848,6.079545 1.733254,6.067974 1.676045,6.036775 1.650966,6.022933 1.595464,5.980424 1.566542,5.955823 1.535816,5.930318 1.496748,5.890761 1.457974,5.853619 1.418609,5.81066 1.37833,5.768691 1.344415,5.730629 1.300696,5.685467 1.266109,5.649821 1.223095,5.60323 1.190943,5.572477 1.151037,5.522233 1.125722,5.49533 1.086046,5.439706 1.058874,5.414016 1.014927,5.357882 0.956241,5.294216 0.93897,5.273614 0.927192,5.254419 0.885369,5.192348 0.876255,5.175269 0.832185,5.10655 0.825649,5.091608 0.794034,5.022617 0.788075,5.009325 0.754994,4.938631 0.748804,4.927935 0.721555,4.856301 0.718037,4.846897 0.682783,4.772785 0.679215,4.76523 0.635589,4.689223 0.633198,4.684043 0.5945,4.606205 0.59317,4.603129 0.570334,4.521143 0.558492,4.442505 0.527963,4.358835 0.525902,4.35372 0.494035,4.274382 0.49363,4.272542 0.475504,4.191333 0.475144,4.188629 0.456857,4.108315 0.456624,4.104513 0.446707,4.025249 0.446455,4.020989 0.437771,3.942267 0.437173,3.93711 0.423504,3.858671 0.422946,3.852745 0.421589,3.775586 0.421544,3.76934 0.421789,3.692619 0.421863,3.686042 0.422681,3.609746 0.428765,3.533368 0.429012,3.526429 0.438604,3.450261 0.439209,3.44344 0.450336,3.367517 0.45091,3.360671 0.466746,3.283867 0.466822,3.277527 0.467538,3.271103 0.47544,3.194189 0.475854,3.187865 0.490859,3.110817 0.492703,3.104516 0.504818,3.028858 0.511134,3.011895 0.546803,2.921604 0.561863,2.89093 0.585416,2.841915 0.600969,2.815492 0.629251,2.768181 0.642433,2.741965 0.670412,2.69217 0.684921,2.670354 0.717267,2.620642 0.731502,2.601723 0.76747,2.552134 0.78055,2.534443 0.81691,2.484748 0.829221,2.468752 0.866847,2.417597 0.878523,2.403432 0.92017,2.352948 0.964841,2.302936 0.975389,2.291292 0.985353,2.279679 1.028617,2.226644 1.076449,2.174834 1.085087,2.165786 1.135606,2.11464 1.14368,2.106909 1.195542,2.0554 1.20251,2.04836 1.256655,1.997813 1.263187,1.991833 1.323518,1.946068 1.329562,1.940738 1.393823,1.897432 1.399529,1.892579 1.45912,1.843211 1.464116,1.839367 1.518819,1.783028 1.52287,1.779885 1.580431,1.726664 1.583944,1.72389 1.645171,1.671849 1.647612,1.669754 1.706009,1.614572 1.707759,1.612998 1.776007,1.564208 1.776829,1.563639 1.84867,1.518273 1.848984,1.518092 1.922508,1.476147 1.922974,1.475853 1.924936,1.474978 1.98888,1.446849 2.010556,1.436829 2.07766,1.417386 2.099789,1.412271 2.156391,1.403598 2.178804,1.400755 2.239455,1.394214 2.262438,1.394996 2.285037,1.393725 2.344975,1.391916 2.404253,1.383048 2.427856,1.376759 2.488144,1.359311 2.512937,1.348415 2.570194,1.33832 2.594864,1.329707 2.650825,1.313966 2.678611,1.302555 2.734921,1.2897 2.761726,1.284442 2.816887,1.278048 2.845037,1.274691 2.900152,1.274606 2.928148,1.271211 2.956177,1.271581 3.010873,1.272691 3.039809,1.276153 3.094292,1.280052 3.122557,1.283078 3.177462,1.281613 3.205922,1.287233 3.260697,1.282675 3.288607,1.284283 3.343852,1.283046 3.372147,1.282882 3.427164,1.284298 3.482832,1.279304 3.511005,1.277465 3.564937,1.25542 3.593787,1.246444 3.646282,1.231471 3.676886,1.219363 3.728367,1.217409 3.75993,1.213887 3.792196,1.214872 3.843371,1.217072 3.874927,1.231401 3.926886,1.251799 3.956297,1.26646 4.01114,1.292714 4.03772,1.301767 4.092834,1.311589 4.150431,1.320351 4.177591,1.329212 4.234058,1.342556 4.258643,1.347246 4.318563,1.367337 4.342862,1.375425 4.402768,1.386216 4.425313,1.390582 4.44823,1.389278 4.508775,1.393939 4.567865,1.384406 4.591584,1.378363 4.649778,1.362667 4.674616,1.353119 4.733878,1.335975 4.75899,1.325941 4.816931,1.306349 4.843334,1.297621 4.900072,1.283795 4.926955,1.277 4.981568,1.255354 5.009421,1.246545 5.058954,1.225685 5.090149,1.216927 5.143356,1.202226 5.174906,1.194091 5.225087,1.186478 5.257854,1.180205 5.308124,1.175768 5.340803,1.170909 5.374055,1.169632 5.423624,1.173346 5.455606,1.179356 5.506801,1.202947 5.537526,1.218443 5.590252,1.24384 5.619309,1.260495 5.673599,1.253056 5.703451,1.251115 5.757169,1.230687 5.773069,1.222001 5.859115,1.189171 5.878464,1.179511 5.894748,1.167291 5.966063,1.150654 5.981488,1.137764 6.061728,1.133248 6.073647,1.118367 6.14973,1.097517 6.162593,1.084446 6.213499,1.042244 6.244634,0.980429 6.253242,0.965946 6.293246,0.910906 6.3026,0.896558 6.31433,0.882686 6.36259,0.83982 6.377292,0.825565 6.423419,0.783561 6.436887,0.768597 6.482108,0.735703 6.496214,0.726084 6.560736,0.677341 6.600239,0.65326 6.642093,0.629618 6.69663,0.60622 6.732342,0.58952 6.816088,0.587129 6.852429,0.577878 6.900619,0.559239 6.937101,0.545805 6.985095,0.517998 7.022809,0.498313 7.076155,0.483304 7.110431,0.47562 7.171395,0.472748 7.192201,0.473112 7.254652,0.469387 7.276273,0.466011 7.337794,0.457843 7.359209,0.455973 7.420788,0.45364 7.43185,0.453461 7.494051,0.455446 7.516934,0.454781 7.573236,0.458324 7.601266,0.457316 7.643001,0.455052 7.68638,0.453204 7.753114,0.451397" style="fill: white" />
</svg>
