<svg width="12.953712" height="10.039674">
<polygon type="contour" points="8.00279,0.337562 8.047315,0.335813 8.086145,0.348114 8.132155,0.352969 8.169805,0.359248 8.216501,0.371719 8.252307,0.377802 8.298357,0.385688 8.334963,0.39319 8.384954,0.418752 8.418664,0.422144 8.47092,0.444875 8.502239,0.451709 8.532684,0.455698 8.602704,0.481555 8.648153,0.499795 8.677007,0.505498 8.732096,0.519411 8.76038,0.524069 8.80239,0.540607 8.855604,0.564804 8.883847,0.585881 8.921391,0.616001 8.949356,0.638619 8.986818,0.667596 9.014145,0.689818 9.054407,0.715454 9.084313,0.735374 9.128708,0.755309 9.161772,0.772247 9.205452,0.790821 9.244779,0.802004 9.290244,0.813903 9.3375,0.817754 9.382622,0.826291 9.430404,0.833217 9.473381,0.839173 9.517363,0.855834 9.55535,0.86691 9.59687,0.890412 9.629054,0.906875 9.655715,0.932052 9.691816,0.962813 9.719641,0.985952 9.753558,1.02023 9.780076,1.047718 9.812295,1.082075 9.839118,1.11054 9.869262,1.145668 9.898389,1.171242 9.931471,1.201835 9.97184,1.223343 10.00673,1.239512 10.04663,1.261928 10.080859,1.278595 10.112649,1.300173 10.148499,1.327076 10.173541,1.355668 10.207937,1.387123 10.234764,1.414289 10.268901,1.44539 10.307652,1.469878 10.338564,1.491257 10.3791,1.514045 10.410987,1.532799 10.450575,1.557923 10.483016,1.574791 10.522863,1.599607 10.555858,1.615452 10.594688,1.642705 10.624659,1.662578 10.651263,1.688697 10.686361,1.71989 10.71163,1.745832 10.742811,1.782757 10.76743,1.812483 10.79856,1.84993 10.823153,1.882407 10.851591,1.919464 10.874858,1.960154 10.896447,2.003051 10.919918,2.044578 10.942162,2.082227 10.967715,2.126307 10.99078,2.158027 11.019571,2.203863 11.041866,2.232223 11.076696,2.271347 11.099665,2.28971 11.155426,2.326685 11.176684,2.342974 11.249492,2.33866 11.257457,2.33688 11.330561,2.307506 11.336295,2.305712 11.413225,2.28715 11.417793,2.285681 11.49611,2.264633 11.499263,2.263752 11.579981,2.245334 11.582524,2.2448 11.663508,2.235951 11.744215,2.245373 11.747245,2.245358 11.827152,2.264051 11.83138,2.264483 11.900619,2.297269 11.911998,2.300527 11.92385,2.304774 11.984684,2.333285 11.999519,2.338845 12.060276,2.366462 12.124522,2.394114 12.136575,2.39914 12.198212,2.430302 12.211093,2.43695 12.269823,2.472706 12.282071,2.479999 12.337934,2.521256 12.349595,2.528968 12.360231,2.538302 12.410348,2.588492 12.420795,2.59995 12.466904,2.652544 12.476578,2.667155 12.516075,2.729097 12.527237,2.744756 12.566168,2.803877 12.579333,2.821067 12.618063,2.875233 12.631799,2.893681 12.673774,2.940268 12.688019,2.959401 12.726419,3.010514 12.739759,3.033408 12.779956,3.115792 12.786223,3.130698 12.804658,3.190021 12.812712,3.212374 12.833114,3.27619 12.837079,3.296123 12.846768,3.358911 12.852153,3.379507 12.865352,3.444753 12.86845,3.462967 12.876379,3.528171 12.87991,3.54637 12.88651,3.612643 12.888225,3.629796 12.894429,3.696869 12.895406,3.713101 12.897517,3.77948 12.899156,3.796488 12.903671,3.86407 12.90513,3.879784 12.903637,3.89561 12.898389,3.963351 12.89609,3.980329 12.887273,4.046497 12.884402,4.063792 12.867936,4.12956 12.863425,4.148271 12.847006,4.211925 12.841176,4.23089 12.826163,4.295934 12.820186,4.317098 12.804265,4.378353 12.796555,4.401559 12.775957,4.461731 12.766474,4.486683 12.739098,4.544557 12.724567,4.571617 12.696426,4.625643 12.675912,4.656938 12.641796,4.710452 12.618014,4.746611 12.589866,4.794115 12.561004,4.832465 12.529835,4.876187 12.499755,4.920124 12.474264,4.95829 12.432544,5.012101 12.403535,5.045654 12.36409,5.077927 12.313726,5.128407 12.290453,5.14767 12.229798,5.187766 12.205182,5.202534 12.147187,5.231777 12.119169,5.245951 12.064197,5.267648 12.011113,5.282274 11.982183,5.295178 11.95187,5.304224 11.877775,5.316837 11.849761,5.322557 11.793859,5.327208 11.763926,5.328621 11.706802,5.326599 11.677659,5.326878 11.615145,5.320328 11.589838,5.317349 11.526114,5.311114 11.50386,5.31034 11.48244,5.306844 11.402262,5.289887 11.374553,5.287534 11.317401,5.285212 11.252028,5.289506 11.221263,5.286809 11.150501,5.304987 11.111563,5.349658 11.090274,5.363806 11.067838,5.415807 11.048477,5.449068 11.028847,5.507017 11.017357,5.534093 10.994867,5.590333 10.97907,5.618602 10.93968,5.683436 10.927909,5.702754 10.881611,5.770544 10.872538,5.786275 10.835291,5.852207 10.82299,5.86801 10.777018,5.937774 10.770098,5.949 10.707782,6.026526 10.703161,6.032933 10.635438,6.115444 10.634067,6.116781 10.605865,6.143075 10.549244,6.195872 10.547188,6.198224 10.449871,6.286161 10.43914,6.297946 10.372703,6.370866 10.339429,6.397035 10.298852,6.45597 10.281036,6.480023 10.24059,6.535466 10.223101,6.561749 10.1788,6.619582 10.154912,6.651493 10.116635,6.702187 10.083338,6.74085 10.048752,6.787039 10.005939,6.827807 9.97198,6.871708 9.943564,6.909409 9.899602,6.953885 9.855403,6.992583 9.819976,7.017839 9.784523,7.037385 9.735778,7.069551 9.705808,7.080893 9.655068,7.103364 9.624015,7.115586 9.570286,7.136259 9.543077,7.144968 9.486915,7.164542 9.46017,7.173902 9.402913,7.194557 9.378126,7.201565 9.319576,7.223268 9.295654,7.233393 9.235749,7.25674 9.214514,7.263794 9.153418,7.280961 9.132873,7.286097 9.071113,7.297787 9.051294,7.302946 8.987188,7.317376 8.968373,7.322294 8.903891,7.338505 8.885909,7.344145 8.819846,7.36633 8.75339,7.37769 8.737418,7.381905 8.668762,7.397728 8.65371,7.401352 8.639185,7.403265 8.570662,7.421058 8.556617,7.423822 8.487724,7.434713 8.418534,7.443252 8.404979,7.446235 8.335206,7.454577 8.322386,7.458759 8.248636,7.501338 8.238151,7.507549 8.15944,7.561062 8.153049,7.565996 8.075938,7.588833 8.070855,7.59106 7.994263,7.605014 7.988565,7.606283 7.910294,7.615946 7.90484,7.616714 7.82488,7.621404 7.820689,7.62187 7.74175,7.632659 7.737753,7.633898 7.658376,7.655903 7.655017,7.656519 7.571098,7.674889 7.490519,7.702263 7.487931,7.703135 7.487866,7.703145 7.404385,7.720959 7.321363,7.714884 7.321272,7.714904 7.316246,7.714445 7.238512,7.707696 7.154222,7.714763 7.072103,7.72618 7.052231,7.731025 6.987679,7.746913 6.905104,7.773122 6.901917,7.773782 6.821875,7.80312 6.817044,7.803838 6.738932,7.828505 6.734344,7.829095 6.65528,7.835791 6.575858,7.830715 6.571772,7.830525 6.491899,7.817285 6.488136,7.816462 6.40598,7.786913 6.404622,7.78643 6.368455,7.769447 6.320663,7.746948 6.237969,7.715458 6.234208,7.713408 6.153405,7.667795 6.145788,7.663685 6.071991,7.623639 6.062385,7.617678 5.991389,7.577444 5.979749,7.569254 5.905221,7.51353 5.886045,7.50147 5.852118,7.477565 5.780832,7.421611 5.747326,7.390473 5.707659,7.339601 5.681179,7.3057 5.645594,7.256827 5.622705,7.217133 5.605524,7.173112 5.589686,7.132588 5.56937,7.08981 5.548781,7.045216 5.530368,7.005708 5.513336,6.958865 5.500239,6.922381 5.476834,6.872118 5.468522,6.838754 5.460785,6.788526 5.452812,6.75621 5.425966,6.703083 5.415549,6.67306 5.387731,6.616674 5.376888,6.590132 5.355596,6.53416 5.345852,6.506472 5.323015,6.446025 5.314003,6.423706 5.290303,6.360517 5.280145,6.340263 5.265999,6.274385 5.262005,6.256061 5.245468,6.189449 5.241383,6.173008 5.233018,6.105352 5.22737,6.089913 5.21041,6.020366 5.208734,6.006688 5.202622,5.991394 5.160989,5.910104 5.126413,5.897334 5.077899,5.862306 5.039947,5.844043 4.994953,5.838454 4.95604,5.833636 4.911854,5.828186 4.867728,5.833552 4.828569,5.833493 4.784344,5.838932 4.745298,5.843751 4.706346,5.837278 4.661817,5.834079 4.61714,5.83975 4.57833,5.847233 4.53217,5.857905 4.494983,5.862594 4.447681,5.871819 4.411677,5.883485 4.363391,5.889893 4.328814,5.89436 4.29408,5.895811 4.246176,5.892601 4.199084,5.892124 4.163381,5.892064 4.126785,5.88382 4.080608,5.881858 4.044453,5.88042 3.998754,5.870502 3.959903,5.862972 3.915421,5.852086 3.874976,5.837896 3.831285,5.820214 3.787389,5.793185 3.74869,5.773429 3.701834,5.737539 3.6671,5.714233 3.61546,5.676775 3.583829,5.652733 3.527973,5.612161 3.500558,5.591566 3.442468,5.546386 3.423747,5.53119 3.401933,5.509614 3.385318,5.490515 3.337738,5.426979 3.324373,5.404701 3.288899,5.343148 3.276039,5.317839 3.244359,5.259062 3.237566,5.230053 3.218629,5.175812 3.208018,5.144738 3.193424,5.093414 3.182408,5.06132 3.166457,5.010572 3.154601,4.977891 3.13038,4.929123 3.117667,4.894534 3.09668,4.844959 3.09143,4.806095 3.064207,4.763627 3.058551,4.728292 3.047199,4.68108 3.043523,4.648017 3.028687,4.598355 3.019874,4.568467 3.001461,4.514789 2.988922,4.470592 2.968235,4.427192 2.962489,4.340378 2.959145,4.31317 2.933548,4.216271 2.931728,4.182211 2.894472,4.092013 2.868153,4.045359 2.794831,3.915559 2.794083,3.910847 2.778195,3.810802 2.771054,3.765623 2.788812,3.729271 2.799754,3.706806 2.819819,3.665775 2.849866,3.604214 2.85241,3.598996 2.888775,3.544603 2.906678,3.517881 2.927104,3.487342 2.963807,3.432474 2.973633,3.424215 3.034643,3.380674 3.054086,3.366811 3.105545,3.330143 3.145517,3.268821 3.149543,3.253273 3.17318,3.156926 3.189032,3.149898 3.267263,3.135196 3.307676,3.104165 3.349946,3.072 3.371982,3.051262 3.395689,3.033103 3.435699,2.994055 3.450015,2.925215 3.470094,2.90956 3.476617,2.832523 3.489897,2.812897 3.498281,2.727873 3.501311,2.7092 3.515255,2.623546 3.519321,2.611291 3.538976,2.525428 3.541115,2.517344 3.567743,2.427391 3.568562,2.425443 3.58986,2.374964 3.602772,2.343997 3.603278,2.342787 3.639914,2.263356 3.642092,2.258744 3.67776,2.183199 3.682004,2.175636 3.719681,2.108042 3.726273,2.098999 3.766118,2.036381 3.774289,2.024589 3.816833,1.968801 3.827237,1.956899 3.869284,1.90355 3.880778,1.889502 3.924877,1.840666 3.938139,1.826664 3.979881,1.777368 3.995482,1.763084 4.040457,1.719615 4.092502,1.683079 4.109891,1.669621 4.1643,1.635413 4.184186,1.623772 4.206475,1.613026 4.257519,1.584685 4.297691,1.569594 4.341643,1.554638 4.382899,1.548554 4.424715,1.542533 4.467182,1.539045 4.508632,1.534935 4.548864,1.531214 4.591879,1.534386 4.633872,1.535583 4.675461,1.541742 4.717096,1.550084 4.758713,1.55915 4.802224,1.575558 4.841434,1.5873 4.887514,1.602101 4.925618,1.615809 4.973453,1.633188 5.009339,1.649551 5.060326,1.673531 5.092444,1.686912 5.14262,1.709798 5.173558,1.722913 5.225692,1.747982 5.255252,1.760431 5.313931,1.783684 5.340547,1.793246 5.400144,1.820604 5.423768,1.827559 5.483744,1.83408 5.506514,1.836618 5.529455,1.824154 5.58864,1.793955 5.600516,1.779854 5.64375,1.733034 5.671249,1.708293 5.691322,1.674807 5.722365,1.631289 5.751731,1.592149 5.771785,1.563674 5.79863,1.518708 5.81673,1.490976 5.847299,1.444903 5.864911,1.421155 5.899364,1.376828 5.915757,1.354616 5.948222,1.304148 5.962301,1.282647 5.996635,1.230111 6.008724,1.210752 6.043413,1.155177 6.054024,1.138218 6.092322,1.084244 6.101995,1.069399 6.139846,1.009828 6.148563,0.998183 6.186719,0.935538 6.193284,0.925375 6.237241,0.865811 6.242588,0.857662 6.288094,0.79705 6.292355,0.790232 6.341054,0.729423 6.344447,0.724816 6.348026,0.720746 6.408109,0.670447 6.429293,0.658137 6.50438,0.613441 6.525469,0.609349 6.58903,0.595382 6.611198,0.59419 6.671593,0.584906 6.726255,0.559787 6.754089,0.542729 6.809176,0.497145 6.817173,0.490464 6.826854,0.482383 6.883281,0.451899 6.903385,0.446767 6.956588,0.432279 7.004367,0.410665 7.036179,0.399814 7.086814,0.369981 7.125357,0.351648 7.171316,0.341359 7.21013,0.336514 7.253999,0.338779 7.300416,0.342322 7.33759,0.344123 7.382702,0.346232 7.420703,0.352077 7.46898,0.378033 7.503969,0.386964 7.554749,0.401894 7.586555,0.40535 7.61876,0.398323 7.669662,0.392923 7.704893,0.384993 7.752165,0.36966 7.788145,0.360897 7.836041,0.341088 7.875025,0.337218 7.919662,0.333208 7.962884,0.329214" style="fill: white" />
</svg>
