<svg width="12.953712" height="10.039674">
<polygon type="contour" points="7.229879,0.130549 7.255064,0.13369 7.279981,0.134895 7.337435,0.150008 7.394971,0.142248 7.420366,0.14105 7.478558,0.130209 7.503485,0.13039 7.562492,0.129373 7.586784,0.131338 7.645544,0.13207 7.669945,0.133742 7.72874,0.13111 7.753413,0.132978 7.81198,0.132568 7.836613,0.132253 7.861229,0.130781 7.919805,0.128009 7.978748,0.127867 8.003146,0.12879 8.027379,0.127561 8.08628,0.130879 8.145051,0.135974 8.169872,0.136362 8.227927,0.14315 8.253235,0.146555 8.310045,0.161588 8.336522,0.167436 8.391966,0.182871 8.419582,0.188767 8.47518,0.206465 8.503419,0.214334 8.562035,0.231352 8.571221,0.234752 8.645337,0.265513 8.648694,0.266927 8.72273,0.301188 8.792753,0.340359 8.794714,0.341226 8.868012,0.379201 8.869276,0.379709 8.936402,0.42733 8.937287,0.427888 8.938109,0.428543 9.002232,0.480327 9.003098,0.481255 9.063692,0.538723 9.134386,0.581971 9.207818,0.62144 9.207942,0.621512 9.208053,0.621597 9.222455,0.631046 9.276755,0.666565 9.362155,0.700258 9.415921,0.725611 9.444486,0.733083 9.497379,0.740526 9.554948,0.753983 9.596487,0.764728 9.68301,0.794927 9.691101,0.798039 9.756969,0.83322 9.764647,0.83806 9.830337,0.86264 9.839453,0.87016 9.849399,0.876533 9.918942,0.907378 9.928849,0.912388 9.993251,0.945706 10.004533,0.95141 10.065918,0.988144 10.119031,1.036691 10.128747,1.043757 10.136534,1.053498 10.182108,1.113707 10.188608,1.1229 10.23164,1.187059 10.281901,1.247248 10.286898,1.255401 10.357419,1.29815 10.365497,1.301332 10.441057,1.32266 10.451172,1.325803 10.527815,1.344039 10.538684,1.350126 10.60265,1.381901 10.657734,1.425221 10.668007,1.433722 10.714888,1.491584 10.722931,1.501393 10.768495,1.562678 10.775654,1.571177 10.821956,1.633549 10.828358,1.641446 10.873241,1.71056 10.878028,1.717249 10.925042,1.783093 10.929161,1.788604 10.97965,1.853586 10.98324,1.85763 11.035632,1.922909 11.038414,1.925918 11.041053,1.928939 11.093424,1.990781 11.095425,1.993321 11.147109,2.060301 11.148207,2.06175 11.200597,2.130274 11.200944,2.130772 11.219261,2.156689 11.251104,2.201917 11.294023,2.27841 11.295646,2.281553 11.335167,2.362131 11.337786,2.367542 11.373157,2.448033 11.377271,2.456493 11.418725,2.526332 11.424307,2.536237 11.464448,2.603934 11.471144,2.615897 11.506466,2.703696 11.510056,2.71243 11.512998,2.719308 11.539129,2.787383 11.543634,2.799311 11.574041,2.879484 11.575079,2.882332 11.59817,2.960323 11.599378,2.964547 11.619225,3.042034 11.620569,3.047419 11.636593,3.124974 11.637768,3.131254 11.638237,3.137468 11.646301,3.214389 11.647027,3.221071 11.650777,3.296979 11.657935,3.373194 11.658572,3.380399 11.658837,3.387612 11.664878,3.463743 11.665487,3.471167 11.668145,3.546897 11.675573,3.622252 11.676427,3.630194 11.676761,3.638155 11.679349,3.713094 11.684907,3.788381 11.685468,3.796722 11.685844,3.805009 11.688791,3.879612 11.69455,3.954197 11.695295,3.962899 11.695574,3.971597 11.700525,4.045814 11.706968,4.119504 11.707712,4.128884 11.707233,4.202524 11.706777,4.211818 11.699294,4.28583 11.698825,4.294719 11.697593,4.303478 11.687696,4.377487 11.686436,4.385504 11.676381,4.460591 11.664748,4.536086 11.663312,4.543031 11.649464,4.619381 11.647661,4.625343 11.631762,4.704018 11.630366,4.709139 11.620778,4.787999 11.619895,4.793043 11.612947,4.872507 11.612135,4.876499 11.596072,4.957857 11.595619,4.960547 11.579205,5.039833 11.578846,5.041934 11.556716,5.123878 11.556559,5.124643 11.543931,5.157336 11.524267,5.207404 11.523761,5.208591 11.484873,5.291576 11.483547,5.295194 11.451877,5.37417 11.449897,5.379617 11.419452,5.45699 11.416654,5.464221 11.386337,5.539601 11.382698,5.548691 11.34859,5.624055 11.342397,5.635451 11.312825,5.705698 11.304084,5.719541 11.268078,5.788619 11.234138,5.853156 11.223073,5.871525 11.183463,5.934002 11.170171,5.955061 11.125439,6.014453 11.10973,6.038446 11.072563,6.093061 11.053012,6.118822 11.011075,6.16857 10.981538,6.201905 10.900357,6.279791 10.886645,6.292581 10.852892,6.31792 10.813173,6.347726 10.805936,6.350962 10.795223,6.358635 10.736802,6.398802 10.682914,6.427384 10.655701,6.443577 10.621787,6.464447 10.557734,6.495567 10.494141,6.524145 10.473512,6.535508 10.410006,6.570433 10.388901,6.580977 10.322516,6.625377 10.309348,6.632789 10.24099,6.679392 10.227319,6.689391 10.151498,6.739522 10.1407,6.746641 10.061482,6.801116 10.053382,6.806809 10.035041,6.819281 9.974285,6.867558 9.947254,6.882332 9.896674,6.906775 9.844467,6.933348 9.816778,6.9453 9.74273,6.989378 9.741012,6.990481 9.683466,7.030275 9.663625,7.039819 9.635145,7.056883 9.588867,7.085051 9.529276,7.119107 9.511488,7.129335 9.464546,7.157345 9.440811,7.170441 9.431768,7.176144 9.376023,7.215224 9.314027,7.259082 9.284517,7.279586 9.213137,7.316052 9.207859,7.319657 9.192492,7.327149 9.140292,7.350546 9.081216,7.38764 9.060743,7.399663 9.039773,7.408005 8.976284,7.444661 8.953693,7.448195 8.893492,7.456503 8.870334,7.462881 8.810061,7.476791 8.785412,7.488832 8.72668,7.511187 8.700404,7.524194 8.643443,7.553412 8.614856,7.566244 8.560199,7.595461 8.530974,7.605358 8.478723,7.621596 8.447942,7.632555 8.393836,7.649134 8.36153,7.658497 8.310899,7.671876 8.261268,7.678897 8.227593,7.690414 8.178526,7.702447 8.14378,7.714114 8.096029,7.732142 8.060452,7.745745 8.014748,7.769864 7.978328,7.791297 7.934013,7.812599 7.893796,7.836716 7.852866,7.854647 7.810501,7.87988 7.769584,7.899135 7.727134,7.917527 7.688175,7.931478 7.64327,7.947947 7.605236,7.956954 7.559707,7.96739 7.523306,7.974586 7.477704,7.980032 7.441654,7.983848 7.393836,7.991682 7.357719,7.996526 7.310729,8.003074 7.275515,8.008703 7.227739,8.015401 7.193218,8.020665 7.144951,8.028127 7.113255,8.035493 7.070606,8.050703 7.00413,8.068227 6.965134,8.085856 6.91764,8.095541 6.891469,8.093836 6.861807,8.103553 6.810801,8.109111 6.759868,8.110772 6.728077,8.111694 6.676808,8.112723 6.644997,8.113421 6.613296,8.114446 6.561595,8.121935 6.53019,8.12397 6.478259,8.125119 6.426932,8.117854 6.394915,8.113912 6.345225,8.09947 6.311827,8.091156 6.262161,8.080753 6.227788,8.068947 6.180443,8.066009 6.145576,8.059669 6.098892,8.053302 6.062279,8.048631 6.016831,8.036169 5.979239,8.030831 5.935133,8.018912 5.896634,8.007389 5.853961,7.99134 5.812091,7.972752 5.771598,7.955965 5.730731,7.941446 5.693278,7.921181 5.64839,7.890795 5.615593,7.866606 5.52019,7.77674 5.516131,7.77294 5.514885,7.771557 5.484086,7.729334 5.454054,7.687978 5.453352,7.686625 5.41905,7.609417 5.416888,7.605187 5.378833,7.524721 5.375613,7.519073 5.347052,7.443233 5.343947,7.435722 5.307041,7.361287 5.30061,7.351557 5.264132,7.279939 5.257869,7.267966 5.230712,7.198914 5.225466,7.184637 5.19928,7.117179 5.194456,7.10117 5.160004,7.037653 5.149008,7.017713 5.119196,6.999388 5.024711,6.947838 4.966437,6.931351 4.925743,6.889508 4.906468,6.871798 4.888351,6.862104 4.817496,6.787204 4.791945,6.767908 4.733804,6.74632 4.70681,6.73299 4.650468,6.718848 4.621753,6.708973 4.567149,6.70226 4.537651,6.690409 4.484364,6.676191 4.453832,6.675126 4.401112,6.670077 4.349092,6.676929 4.318,6.681822 4.265537,6.687118 4.234712,6.693861 4.181489,6.69904 4.151521,6.702975 4.098673,6.704867 4.068413,6.705533 4.015801,6.707704 3.985005,6.708575 3.932227,6.711561 3.90181,6.708252 3.871317,6.707012 3.818587,6.701917 3.787012,6.698308 3.735487,6.697338 3.703646,6.693321 3.6523,6.688182 3.601761,6.68728 3.568992,6.688486 3.518667,6.686474 3.485963,6.6881 3.453095,6.688627 3.402723,6.684157 3.368885,6.681406 3.319261,6.680584 3.284773,6.676795 3.235766,6.676325 3.20142,6.671117 3.152181,6.666745 3.116271,6.657986 3.068357,6.65206 3.032522,6.640568 2.985787,6.622971 2.947247,6.602818 2.902942,6.579578 2.861048,6.554427 2.819533,6.532458 2.776215,6.515776 2.736296,6.496663 2.690851,6.487272 2.653645,6.48051 2.615696,6.482477 2.569422,6.482477 2.523803,6.4804 2.486485,6.47608 2.438428,6.459162 2.402958,6.448227 2.368673,6.434667 2.320645,6.413995 2.288068,6.401837 2.236532,6.377472 2.205447,6.363216 2.152928,6.342417 2.09891,6.32561 2.071067,6.314465 2.012635,6.287691 1.987083,6.276986 1.96264,6.267055 1.904079,6.24427 1.843198,6.219308 1.821162,6.208649 1.758719,6.182205 1.739533,6.173844 1.671713,6.133757 1.654993,6.122801 1.628371,6.098338 1.539326,6.019651 1.516618,5.990803 1.471749,5.938288 1.443318,5.905104 1.402045,5.855289 1.366507,5.817504 1.328785,5.771681 1.294832,5.729617 1.261065,5.686903 1.230382,5.640342 1.206675,5.603182 1.183679,5.555722 1.162324,5.520406 1.124983,5.471183 1.096859,5.439378 1.040309,5.383075 1.014294,5.35375 0.957826,5.294495 0.933162,5.269829 0.880001,5.206797 0.865647,5.186999 0.827365,5.119776 0.817514,5.102902 0.786473,5.03273 0.780306,5.018503 0.754505,4.947728 0.749937,4.935496 0.715008,4.862447 0.709257,4.852322 0.674223,4.776383 0.670547,4.768788 0.641516,4.692281 0.638661,4.686271 0.603241,4.606071 0.601957,4.602705 0.573883,4.520398 0.573454,4.519111 0.565135,4.472892 0.558988,4.435447 0.55898,4.434487 0.559632,4.352806 0.570086,4.271331 0.570315,4.269703 0.580261,4.185359 0.571013,4.101304 0.551527,4.020332 0.55106,4.016853 0.541472,3.93751 0.545832,3.857053 0.545938,3.85443 0.569713,3.774884 0.570217,3.771567 0.604087,3.688678 0.597003,3.607155 0.597129,3.605057 0.58339,3.523164 0.583467,3.521168 0.577254,3.438587 0.584537,3.357758 0.584669,3.355322 0.595826,3.275218 0.596216,3.272491 0.607206,3.19258 0.607599,3.189484 0.625147,3.108244 0.625604,3.106282 0.646616,3.025661 0.646922,3.023758 0.675689,2.941587 0.675967,2.940749 0.677014,2.938917 0.732183,2.843042 0.75385,2.796947 0.771093,2.764314 0.79068,2.71121 0.8066,2.683101 0.828583,2.627399 0.84415,2.601198 0.869197,2.545613 0.882298,2.522748 0.908423,2.461465 0.918714,2.440086 0.949016,2.380025 0.95852,2.362405 0.995543,2.305525 1.005363,2.290887 1.043919,2.234985 1.052761,2.222001 1.094931,2.166146 1.102987,2.155354 1.145454,2.094658 1.15198,2.0859 1.194933,2.025229 1.20035,2.017576 1.248658,1.958294 1.25292,1.952656 1.304657,1.893694 1.307837,1.890097 1.362377,1.832831 1.364615,1.830235 1.366948,1.827962 1.428815,1.777014 1.430699,1.775409 1.493978,1.724965 1.495253,1.724006 1.560904,1.675043 1.561317,1.674775 1.633719,1.63061 1.633815,1.630551 1.709798,1.58731 1.710834,1.58668 1.782941,1.543452 1.783691,1.543037 1.856807,1.500196 1.857082,1.500059 1.930271,1.456282 1.930277,1.456279 2.009144,1.416356 2.080653,1.369956 2.115405,1.345006 2.148102,1.321628 2.148698,1.321246 2.220608,1.279726 2.224869,1.277273 2.225682,1.276852 2.263713,1.257548 2.265864,1.256553 2.345707,1.223233 2.349708,1.221706 2.43029,1.195226 2.435825,1.194361 2.512178,1.181431 2.517952,1.181294 2.595649,1.174669 2.602432,1.174838 2.678459,1.17391 2.754897,1.17298 2.76145,1.173647 2.839308,1.179277 2.844795,1.180104 2.92274,1.19169 2.927936,1.192537 2.93313,1.192365 3.007499,1.203438 3.095298,1.197619 3.101035,1.195163 3.177987,1.18014 3.254553,1.153472 3.261912,1.150411 3.269404,1.148945 3.344429,1.129211 3.353112,1.128414 3.427789,1.111143 3.437556,1.110908 3.510246,1.10491 3.520012,1.104708 3.593485,1.09939 3.667034,1.102312 3.676811,1.102265 3.686578,1.103005 3.759445,1.101134 3.833785,1.114684 3.843233,1.116411 3.918165,1.136299 3.926323,1.137384 4.005313,1.172905 4.011083,1.175004 4.090386,1.216682 4.09404,1.218565 4.174606,1.251113 4.176253,1.252239 4.234388,1.283055 4.258056,1.295884 4.258707,1.296343 4.342678,1.340899 4.425205,1.348683 4.5084,1.305707 4.509643,1.305225 4.562882,1.282888 4.594025,1.269931 4.594758,1.269773 4.675932,1.248694 4.677811,1.24843 4.758233,1.238007 4.83874,1.261736 4.840258,1.261967 4.841737,1.262584 4.883456,1.28236 4.925933,1.302986 4.928933,1.303318 5.000176,1.337489 5.091058,1.36611 5.167926,1.365601 5.257325,1.341812 5.333858,1.293834 5.341959,1.288537 5.429681,1.190481 5.473909,1.118439 5.478996,1.107861 5.511145,1.040178 5.517662,1.02866 5.548578,0.963751 5.554623,0.94765 5.582734,0.884299 5.590519,0.866371 5.622382,0.810831 5.632299,0.791725 5.665118,0.739089 5.679754,0.719998 5.711313,0.668864 5.724155,0.646773 5.754081,0.597521 5.767538,0.572993 5.797089,0.526268 5.811727,0.499115 5.830613,0.474777 5.864576,0.435141 5.887188,0.410802 5.923175,0.37592 5.948621,0.353812 5.984092,0.319693 6.013921,0.300618 6.05587,0.273506 6.089042,0.257118 6.134774,0.23365 6.159172,0.222125 6.201789,0.205389 6.256644,0.18014 6.283491,0.172616 6.339539,0.153052 6.365484,0.149001 6.422514,0.142197 6.479254,0.152047 6.505573,0.151291 6.562099,0.162789 6.588387,0.160782 6.64607,0.149912 6.671741,0.146606 6.697089,0.142974 6.754672,0.135562 6.81278,0.133329 6.837931,0.135161 6.896289,0.131893 6.921309,0.137247 6.946294,0.133209 7.00449,0.133015 7.029163,0.126757 7.08767,0.118832 7.146684,0.117347 7.170763,0.11662" style="fill: white" />
</svg>
