<svg width="12.953712" height="10.039674">
<polygon type="contour" points="4.933414,4.923177 5.011314,4.959318 5.016888,4.966705 5.08925,5.022536 5.093614,5.028618 5.181614,5.136063 5.185859,5.14213 5.234718,5.208879 5.238242,5.214406 5.283175,5.283711 5.286944,5.289402 5.33503,5.356446 5.338539,5.362137 5.382212,5.432109 5.386195,5.43787 5.432864,5.505608 5.437262,5.510504 5.483228,5.583277 5.486917,5.587359 5.538645,5.648348 5.54279,5.652253 5.598934,5.705942 5.603755,5.709558 5.661048,5.762225 5.665786,5.766071 5.670644,5.769734 5.729503,5.820489 5.734425,5.823991 5.795966,5.870814 5.801094,5.874151 5.861843,5.922201 5.867233,5.925577 5.930457,5.969175 5.995834,6.010593 6.001176,6.013411 6.006237,6.016687 6.068162,6.062745 6.134035,6.103331 6.139365,6.106273 6.204722,6.146564 6.210573,6.149728 6.278432,6.18637 6.284132,6.189548 6.289744,6.192883 6.354964,6.233124 6.421222,6.273076 6.426833,6.276143 6.491095,6.317094 6.497213,6.320442 6.561055,6.360182 6.567956,6.363776 6.634762,6.400953 6.640937,6.404579 6.704394,6.444029 6.711953,6.447835 6.719147,6.452357 6.781846,6.492605 6.789618,6.497679 6.84998,6.53996 6.857244,6.545331 6.91437,6.593017 6.968225,6.644368 6.976739,6.653842 7.02297,6.706564 7.026166,6.711712 7.082361,6.785578 7.08307,6.78751 7.113143,6.863699 7.114295,6.867513 7.140882,6.947845 7.141631,6.951529 7.154593,7.031498 7.154272,7.036385 7.153856,7.040445 7.161512,7.122095 7.159211,7.124209 7.109103,7.182801 7.055058,7.195954 7.028939,7.193049 6.973172,7.178835 6.877816,7.12303 6.869096,7.117691 6.867166,7.116603 6.783986,7.054412 6.777853,7.050407 6.701577,7.000152 6.695418,6.996035 6.617555,6.93836 6.611876,6.934206 6.535034,6.883817 6.529477,6.880171 6.451569,6.831632 6.446335,6.828461 6.370041,6.786673 6.364631,6.784391 6.287125,6.744788 6.281763,6.74203 6.20326,6.703123 6.198301,6.701086 6.119876,6.662077 6.115137,6.660338 6.036966,6.629392 6.032016,6.628176 5.953274,6.598457 5.949001,6.596911 5.87096,6.565422 5.866468,6.563768 5.786879,6.524748 5.782872,6.523645 5.703309,6.48322 5.69931,6.481391 5.62065,6.439745 5.617039,6.438179 5.538035,6.395935 5.534627,6.394167 5.53126,6.392379 5.451064,6.342576 5.448042,6.340979 5.367567,6.290297 5.364664,6.288595 5.285634,6.245814 5.283357,6.244638 5.202105,6.193642 5.200125,6.192591 5.121214,6.140008 5.11622,6.13719 5.040931,6.093171 4.949956,6.011223 4.933878,5.997105 4.916305,5.984092 4.823293,5.910196 4.781206,5.879819 4.779004,5.878078 4.691203,5.803935 4.687212,5.800439 4.606772,5.721696 4.602066,5.717672 4.539501,5.641984 4.534772,5.637202 4.474089,5.545101 4.471377,5.541777 4.435106,5.475643 4.432304,5.472227 4.41014,5.394446 4.408498,5.390342 4.406536,5.313146 4.405037,5.30841 4.407948,5.28333 4.41303,5.259793 4.430619,5.203599 4.467894,5.131028 4.475348,5.12281 4.54416,5.057116 4.578773,5.032688 4.624103,5.000623 4.674704,4.977318 4.708684,4.957396 4.750758,4.938654 4.758803,4.93644 4.761501,4.936818 4.841798,4.918152 4.847205,4.92083 4.927239,4.917355" style="fill: white" /><polygon type="contour" points="1.822345,7.880859 1.850131,7.894011 1.873143,7.902409 1.91657,7.922006 1.950469,7.952142 1.974113,7.97431 2.016861,8.024106 2.026715,8.035432 2.029544,8.041414 2.036567,8.050809 2.097042,8.135632 2.116537,8.178112 2.154508,8.234538 2.187925,8.302281 2.202612,8.334537 2.263951,8.428424 2.266209,8.431843 2.272627,8.442359 2.322558,8.532146 2.330154,8.549992 2.372984,8.634934 2.38964,8.668651 2.418939,8.738971 2.434461,8.778092 2.466643,8.842657 2.505263,8.925833 2.509463,8.933631 2.542132,9.012125 2.545031,9.018802 2.580475,9.096727 2.586101,9.1085 2.617355,9.183092 2.643647,9.258231 2.647245,9.267084 2.648907,9.270956 2.687317,9.352242 2.690067,9.35762 2.716884,9.43432 2.719131,9.438786 2.73469,9.516822 2.735647,9.520816 2.747375,9.59996 2.748086,9.603665 2.760014,9.683332 2.760913,9.687844 2.772564,9.766608 2.773114,9.770676 2.787499,9.853395 2.787926,9.857244 2.797504,9.934808 2.797354,9.938436 2.80123,9.992587 2.773079,10.029181 2.756625,10.036963 2.695036,10.039167 2.669273,10.033719 2.613621,10.013944 2.537115,9.982044 2.529508,9.979052 2.521194,9.972734 2.451032,9.915844 2.448011,9.912627 2.363728,9.814886 2.359,9.809089 2.311388,9.740671 2.295295,9.721006 2.251698,9.655501 2.239487,9.636409 2.201403,9.572877 2.186899,9.553189 2.14848,9.490943 2.133652,9.470602 2.088956,9.407745 2.073767,9.387162 2.029065,9.325403 2.011107,9.304209 1.972158,9.244763 1.953416,9.222125 1.90456,9.159461 1.88558,9.137753 1.841527,9.077701 1.823527,9.05579 1.779828,8.997667 1.752964,8.9734 1.704045,8.915621 1.651974,8.886131 1.570808,8.820838 1.54146,8.80195 1.432645,8.743869 1.417035,8.71893 1.348629,8.665918 1.343748,8.638087 1.313485,8.577121 1.314113,8.489558 1.310808,8.457761 1.312626,8.425438 1.327272,8.371543 1.346327,8.327317 1.364209,8.264673 1.415089,8.184472 1.418439,8.176282 1.422102,8.16767 1.512438,8.082495 1.583013,7.996283 1.598719,7.981551 1.624655,7.954465 1.669917,7.903905 1.700709,7.877218 1.759049,7.868523 1.784227,7.8627" style="fill: white" />
</svg>
