<svg width="12.953712" height="10.039674">
<polygon type="contour" points="1.774397,1.00941 1.789005,1.011623 1.850495,1.031915 1.874652,1.039941 1.922057,1.075082 1.970651,1.118865 1.992204,1.138358 2.018105,1.167714 2.056636,1.211506 2.081083,1.241928 2.123034,1.294543 2.175236,1.368916 2.185652,1.382484 2.221556,1.447831 2.245449,1.493262 2.247436,1.498437 2.249111,1.501942 2.308694,1.608012 2.343924,1.665194 2.355835,1.694289 2.410281,1.719002 2.472222,1.730891 2.489064,1.748456 2.555521,1.759416 2.5729,1.773847 2.641482,1.783356 2.660531,1.793236 2.736373,1.80914 2.756571,1.817636 2.83371,1.827535 2.844423,1.830543 2.917631,1.836205 2.927958,1.837465 3.000701,1.837901 3.011231,1.838858 3.083272,1.841165 3.094426,1.841842 3.166431,1.841628 3.177567,1.842992 3.251759,1.845388 3.260807,1.845285 3.334661,1.845637 3.343891,1.846282 3.418777,1.844105 3.426857,1.844084 3.434932,1.843449 3.510213,1.829842 3.584804,1.826571 3.593238,1.826508 3.601814,1.827056 3.676549,1.821463 3.750868,1.819154 3.75971,1.820003 3.835466,1.817155 3.842816,1.817041 3.850359,1.816668 3.926258,1.812399 4.003184,1.813089 4.009199,1.813514 4.085655,1.816269 4.092654,1.816351 4.167808,1.819797 4.175994,1.819619 4.251318,1.818809 4.259279,1.818639 4.336384,1.832641 4.342996,1.833235 4.420806,1.848633 4.426892,1.848657 4.501322,1.863297 4.5098,1.863872 4.583432,1.875142 4.592789,1.875928 4.665264,1.887595 4.675555,1.889371 4.749652,1.903094 4.758852,1.905438 4.829016,1.906488 4.84147,1.908593 4.91252,1.906612 4.924409,1.906776 4.997193,1.899692 5.006666,1.899128 5.01599,1.89791 5.090089,1.881214 5.099571,1.878828 5.17333,1.87033 5.182831,1.869182 5.257364,1.856644 5.268746,1.855661 5.339879,1.848512 5.348716,1.847674 5.423753,1.844533 5.434146,1.842326 5.505717,1.824816 5.513167,1.823331 5.588921,1.804427 5.596167,1.803121 5.671838,1.782679 5.677789,1.779921 5.754794,1.739326 5.759205,1.736004 5.838287,1.685074 5.841257,1.683008 5.920267,1.646349 5.920336,1.646317 6.00544,1.61895 6.006379,1.618652 6.088553,1.597667 6.088798,1.597623 6.172428,1.578028 6.172622,1.57797 6.256208,1.558594 6.338115,1.54582 6.421383,1.526576 6.422555,1.526396 6.503856,1.505487 6.505765,1.505041 6.588878,1.478714 6.590413,1.478218 6.667608,1.460146 6.671746,1.458889 6.751355,1.44126 6.755632,1.440343 6.835057,1.422893 6.839229,1.422245 6.919206,1.405407 6.923219,1.405046 7.002554,1.390591 7.007854,1.389455 7.081055,1.375993 7.088003,1.374375 7.164734,1.367475 7.171487,1.366766 7.249804,1.363311 7.255103,1.362922 7.260054,1.362957 7.337541,1.375765 7.415142,1.369652 7.420884,1.37014 7.502019,1.362005 7.50599,1.362061 7.580268,1.358823 7.58711,1.358388 7.593959,1.358968 7.67034,1.35897 7.677301,1.359774 7.753242,1.360955 7.759989,1.361904 7.836314,1.360419 7.912063,1.355639 7.918734,1.355751 7.925571,1.356036 8.002155,1.362408 8.00896,1.362956 8.08468,1.373684 8.091032,1.374994 8.167597,1.394665 8.173046,1.396254 8.251133,1.423058 8.266588,1.427297 8.33434,1.446037 8.346697,1.451076 8.415769,1.47789 8.433394,1.484528 8.490628,1.5113 8.511359,1.519101 8.582381,1.554545 8.668897,1.589874 8.752245,1.615203 8.831673,1.624855 8.834762,1.625725 8.914388,1.626124 8.919873,1.626895 9.001148,1.615981 9.081938,1.613512 9.084312,1.61353 9.164323,1.624638 9.167461,1.625264 9.249072,1.650878 9.251488,1.651634 9.327424,1.670361 9.333016,1.672487 9.406815,1.696143 9.414756,1.699002 9.491905,1.733513 9.499609,1.734584 9.578184,1.757175 9.585255,1.758912 9.65917,1.773136 9.667374,1.775873 9.776597,1.800804 9.798726,1.805649 9.800446,1.806036 9.878104,1.835244 9.880791,1.836044 9.957572,1.86422 9.961317,1.865554 10.027602,1.902585 10.034164,1.904999 10.10567,1.940154 10.109931,1.942629 10.113856,1.945634 10.180878,1.985825 10.186148,1.989935 10.250901,2.030602 10.256534,2.035877 10.316399,2.081839 10.320961,2.087077 10.375995,2.14283 10.38078,2.148497 10.435224,2.202025 10.43883,2.206661 10.48998,2.271061 10.493774,2.275624 10.543383,2.341351 10.546946,2.345933 10.595521,2.413049 10.598573,2.416648 10.648961,2.48318 10.651802,2.486903 10.697268,2.557101 10.748709,2.628761 10.749505,2.629785 10.750981,2.632058 10.768896,2.66023 10.802259,2.733416 10.814794,2.761394 10.824238,2.789185 10.853072,2.865825 10.860915,2.899601 10.878802,2.975372 10.890751,3.033103 10.902384,3.085458 10.915805,3.170774 10.91995,3.197919 10.937252,3.293089 10.939991,3.309307 10.94051,3.314832 10.950587,3.424655 10.954403,3.488414 10.957686,3.540645 10.957831,3.620073 10.95777,3.660216 10.959409,3.68689 10.965249,3.776225 10.968553,3.878015 10.969066,3.895351 10.968739,3.917495 10.966628,4.015208 10.965862,4.09752 10.965706,4.135095 10.964059,4.178844 10.960506,4.256108 10.957821,4.333637 10.956268,4.377781 10.95403,4.421402 10.949535,4.499515 10.930924,4.603876 10.924726,4.631894 10.879456,4.763172 10.878665,4.765779 10.82975,4.899163 10.827322,4.90608 10.794565,5.005701 10.782538,5.042109 10.781483,5.045861 10.7611,5.118222 10.742809,5.167815 10.733532,5.190071 10.72199,5.218782 10.702156,5.261077 10.688488,5.296569 10.670184,5.334607 10.642553,5.38764 10.63301,5.402732 10.627445,5.410796 10.590643,5.457702 10.563335,5.497068 10.548315,5.516766 10.514539,5.554165 10.494999,5.574142 10.47984,5.589976 10.423834,5.644933 10.361727,5.698567 10.351878,5.706977 10.330948,5.721314 10.276774,5.757453 10.253646,5.77158 10.200082,5.802984 10.150364,5.826253 10.121258,5.839859 10.049106,5.874464 10.042991,5.877911 10.02569,5.887654 9.965264,5.918861 9.946733,5.926685 9.887961,5.962012 9.84092,5.988577 9.811149,6.005752 9.73743,6.054033 9.735467,6.055292 9.734641,6.055833 9.660018,6.107245 9.626577,6.124898 9.582566,6.147563 9.525577,6.171884 9.503037,6.181186 9.427742,6.206555 9.421995,6.208878 9.395188,6.218476 9.348819,6.234473 9.341085,6.236559 9.330637,6.240816 9.261015,6.268538 9.2313,6.282569 9.182165,6.304334 9.127255,6.336894 9.104794,6.348156 9.044976,6.38472 9.028342,6.393268 9.023245,6.395125 8.947271,6.419992 8.927287,6.426655 8.865511,6.444873 8.831023,6.456274 8.784047,6.47046 8.747892,6.478734 8.701339,6.490818 8.674516,6.497013 8.617581,6.508503 8.576889,6.52038 8.552268,6.524572 8.486884,6.536496 8.469489,6.541307 8.393426,6.5587 8.380644,6.56195 8.366912,6.562523 8.290725,6.573338 8.23704,6.578601 8.219618,6.579659 8.1532,6.580325 8.136109,6.578615 8.069513,6.577119 8.052938,6.575802 7.985965,6.566907 7.969917,6.566408 7.852059,6.551336 7.840803,6.548875 7.82901,6.547939 7.806851,6.552049 7.751213,6.563214 7.743538,6.566324 7.67128,6.593435 7.618076,6.608682 7.588976,6.617234 7.544922,6.627535 7.506294,6.636817 7.467634,6.640698 7.420959,6.647811 7.387047,6.649731 7.335716,6.653597 7.30016,6.650949 7.244221,6.643851 7.200841,6.63608 7.151752,6.624995 7.07988,6.595731 7.053012,6.584882 6.955582,6.547977 6.95553,6.547955 6.955514,6.547948 6.855928,6.498207 6.826914,6.494104 6.764661,6.484656 6.732663,6.486882 6.676172,6.485957 6.65076,6.493467 6.592245,6.501625 6.572123,6.506717 6.508979,6.519404 6.49675,6.521978 6.423684,6.528568 6.414068,6.528518 6.332738,6.523769 6.317857,6.52112 6.243799,6.517246 6.225223,6.513281 6.154341,6.511049 6.133326,6.506451 6.06602,6.501214 6.004648,6.490874 5.973357,6.482953 5.918784,6.472251 5.877216,6.460496 5.836072,6.452432 5.783737,6.433917 5.756503,6.424485 5.687948,6.401444 5.676098,6.396144 5.595415,6.384702 5.511364,6.383844 5.506917,6.382757 5.421595,6.381791 5.418208,6.381053 5.332663,6.381302 5.329942,6.381105 5.245127,6.385139 5.241578,6.385224 5.162476,6.389859 5.155798,6.390724 5.080815,6.397509 5.070361,6.400142 4.999988,6.405985 4.984997,6.409209 4.924551,6.419402 4.902271,6.42336 4.83988,6.42327 4.813811,6.423203 4.751126,6.422685 4.72547,6.422347 4.661847,6.420572 4.636253,6.417797 4.563507,6.404687 4.549731,6.402532 4.531038,6.400385 4.456072,6.386227 4.364701,6.372052 4.361391,6.371506 4.361086,6.37143 4.266722,6.348095 4.253167,6.346916 4.178068,6.344035 4.164838,6.344946 4.090178,6.3432 4.076759,6.344124 4.002337,6.341759 3.988845,6.343959 3.916721,6.356908 3.910281,6.358242 3.868203,6.370122 3.839573,6.37732 3.835768,6.377971 3.753335,6.383032 3.747627,6.383545 3.657012,6.389337 3.65342,6.389306 3.650271,6.389065 3.567945,6.382009 3.565773,6.381636 3.496946,6.372771 3.480741,6.370598 3.480057,6.370502 3.393614,6.358739 3.316813,6.34428 3.310957,6.343161 3.232489,6.32526 3.226931,6.324068 3.152543,6.308985 3.145015,6.307122 3.069851,6.279088 3.061572,6.276431 2.985968,6.241505 2.976867,6.238029 2.904646,6.208588 2.894014,6.204517 2.822084,6.177023 2.810046,6.171459 2.73722,6.138484 2.725137,6.133478 2.658536,6.102369 2.643618,6.094573 2.577406,6.050698 2.560445,6.041632 2.497239,5.999126 2.477721,5.986707 2.415415,5.9468 2.394747,5.934709 2.335967,5.902635 2.312145,5.887758 2.254029,5.857567 2.228638,5.844632 2.171506,5.816376 2.145181,5.802325 2.090102,5.773649 2.061808,5.758986 2.008731,5.731231 1.978561,5.715985 1.926745,5.688851 1.894756,5.668998 1.844273,5.637066 1.811997,5.617855 1.766566,5.590559 1.730321,5.566386 1.684628,5.532127 1.644945,5.500835 1.576236,5.444661 1.570503,5.43948 1.52383,5.362302 1.52041,5.358705 1.468798,5.281529 1.443252,5.255813 1.387314,5.201184 1.385695,5.199445 1.315475,5.121687 1.311267,5.117347 1.234606,5.041268 1.135313,4.954348 1.127052,4.944974 1.04746,4.875666 1.037144,4.864197 0.967422,4.798042 0.959937,4.78416 0.952374,4.769467 0.886114,4.702249 0.876108,4.685364 0.819359,4.619912 0.810723,4.602267 0.761376,4.534785 0.750744,4.51181 0.717356,4.450479 0.70706,4.427218 0.676884,4.364909 0.665828,4.338864 0.641289,4.281026 0.629211,4.252852 0.599713,4.197224 0.591428,4.16578 0.568361,4.113708 0.560935,4.081643 0.544412,4.02987 0.536516,3.995118 0.527484,3.947002 0.524933,3.91221 0.513833,3.864455 0.508628,3.829391 0.493356,3.782167 0.493395,3.748143 0.489882,3.699 0.489922,3.662953 0.491539,3.615944 0.495605,3.568943 0.497077,3.532893 0.507977,3.485519 0.510423,3.449961 0.526168,3.398932 0.532589,3.365661 0.549276,3.314919 0.56268,3.283243 0.58828,3.231504 0.607277,3.199267 0.613226,3.18688 0.62421,3.169423 0.64628,3.11129 0.672753,3.058137 0.680898,3.031991 0.689664,3.005267 0.726834,2.898052 0.737708,2.867428 0.757636,2.811097 0.76699,2.783185 0.784494,2.725882 0.79662,2.699612 0.809302,2.641692 0.843744,2.574124 0.846042,2.570052 0.84964,2.565291 0.867693,2.519398 0.881237,2.456702 0.892721,2.428491 0.898061,2.401286 0.887236,2.334589 0.874439,2.257589 0.818814,2.187003 0.775461,2.131131 0.72484,2.016933 0.715375,1.99568 0.656079,1.869656 0.652512,1.862201 0.651427,1.775878 0.651552,1.715926 0.656559,1.694414 0.657667,1.663432 0.670373,1.611943 0.70754,1.55123 0.740289,1.491673 0.759476,1.456641 0.779031,1.434275 0.820569,1.380315 0.822177,1.379075 0.891145,1.328001 0.911844,1.320812 0.962645,1.27819 1.004456,1.254379 1.037352,1.235549 1.093712,1.205973 1.11219,1.195103 1.184131,1.152746 1.186319,1.151385 1.196797,1.145435 1.256786,1.118966 1.263877,1.116428 1.334106,1.09343 1.344811,1.088821 1.416425,1.073923 1.42855,1.07084 1.507558,1.061134 1.515119,1.058723 1.601385,1.050672 1.604704,1.048775 1.67264,1.037584 1.691692,1.034325 1.699647,1.031568 1.770803,1.008928" style="fill: white" />
</svg>
