<svg width="12.953712" height="10.039674">
<polygon type="contour" points="1.600719,0.962237 1.679399,0.969396 1.684355,0.970506 1.761581,0.98251 1.765757,0.983411 1.844427,1.003652 1.848206,1.004885 1.926501,1.026401 1.928553,1.027444 2.008194,1.058901 2.010036,1.059909 2.024898,1.068067 2.104981,1.112225 2.162456,1.152615 2.173563,1.159364 2.227042,1.206307 2.237463,1.213872 2.288436,1.266119 2.298057,1.27465 2.344424,1.330009 2.354368,1.339405 2.393465,1.405789 2.402186,1.418511 2.442524,1.475002 2.451955,1.488854 2.491599,1.55206 2.502276,1.566016 2.540149,1.625881 2.550804,1.640762 2.562811,1.653353 2.600794,1.715751 2.6146,1.728255 2.65834,1.778588 2.673629,1.789464 2.721461,1.833162 2.772411,1.872563 2.787618,1.882447 2.800857,1.894646 2.847182,1.943516 2.858094,1.961516 2.894617,2.022718 2.904143,2.047945 2.942945,2.101972 2.955847,2.118478 3.002576,2.160267 3.018846,2.17269 3.06591,2.214432 3.081931,2.228043 3.128159,2.271977 3.144431,2.285866 3.191206,2.329078 3.205815,2.345263 3.248828,2.392756 3.261735,2.411452 3.306764,2.45475 3.344569,2.50897 3.356454,2.530629 3.386268,2.581942 3.405221,2.607257 3.4294,2.657962 3.444427,2.695574 3.466437,2.764619 3.469474,2.777829 3.48114,2.846288 3.484386,2.860913 3.493609,2.929847 3.496077,2.944008 3.50243,3.014197 3.506095,3.028179 3.521978,3.099443 3.528515,3.112903 3.554888,3.184625 3.561756,3.197342 3.594779,3.266599 3.600709,3.280036 3.632165,3.348312 3.636832,3.362629 3.665986,3.430711 3.669039,3.445588 3.683401,3.51046 3.687671,3.527475 3.704935,3.594376 3.707925,3.610945 3.71779,3.677056 3.720419,3.69416 3.730983,3.759627 3.735058,3.77731 3.750155,3.844076 3.752878,3.861076 3.762816,3.926689 3.765092,3.944142 3.773699,4.009781 3.773783,4.027238 3.772338,4.04487 3.775287,4.110299 3.774576,4.12798 3.765766,4.19334 3.762525,4.210782 3.759656,4.276652 3.75705,4.293942 3.754975,4.359428 3.752073,4.376509 3.741088,4.443577 3.735325,4.508868 3.731036,4.525805 3.708491,4.595044 3.704294,4.610664 3.687894,4.657725 3.682396,4.670382 3.642877,4.743984 3.640968,4.747645 3.588866,4.818337 3.58856,4.818654 3.530189,4.876022 3.528847,4.877423 3.468809,4.931372 3.466285,4.933771 3.407352,4.981195 3.401823,4.987271 3.38862,4.998265 3.382121,5.002997 3.378273,5.00476 3.300242,5.059861 3.296332,5.061365 3.223327,5.112345 3.172702,5.143643 3.147657,5.155335 3.085695,5.197988 3.072745,5.206754 3.067388,5.209456 2.993297,5.24239 2.944766,5.262887 2.913606,5.273934 2.868884,5.292665 2.835884,5.310679 2.77268,5.362848 2.765139,5.368301 2.722356,5.403647 2.707764,5.416019 2.707098,5.416702 2.620144,5.473997 2.613178,5.482759 2.546112,5.513749 2.516026,5.528314 2.470314,5.551713 2.463535,5.552611 2.390294,5.58356 2.335998,5.613683 2.311286,5.615118 2.260151,5.628979 2.214826,5.624053 2.180373,5.634023 2.107036,5.612918 2.100131,5.614519 1.993819,5.581352 1.963962,5.569871 1.885,5.542808 1.884834,5.542559 1.802242,5.499992 1.79968,5.498728 1.690613,5.453288 1.676315,5.449772 1.569245,5.396028 1.554845,5.388221 1.473049,5.346533 1.468514,5.343838 1.457038,5.337458 1.378938,5.29382 1.364889,5.285778 1.282298,5.225716 1.258401,5.2059 1.212452,5.147879 1.193384,5.125003 1.15018,5.066206 1.137676,5.043077 1.110173,4.984413 1.096428,4.958828 1.068074,4.901133 1.053229,4.875507 1.01146,4.818582 0.984067,4.791808 0.938196,4.733737 0.902983,4.707644 0.854906,4.651355 0.833069,4.625895 0.792569,4.572212 0.777539,4.54388 0.754822,4.49227 0.747955,4.461576 0.730386,4.408503 0.723373,4.377729 0.707235,4.323851 0.699267,4.293363 0.673567,4.241728 0.663787,4.209068 0.637894,4.158702 0.62579,4.127023 0.60105,4.077357 0.585341,4.043863 0.551543,3.994189 0.531105,3.959999 0.509088,3.911758 0.493627,3.877066 0.463815,3.826483 0.449949,3.790264 0.427155,3.75563 0.378566,3.708912 0.347898,3.673481 0.312328,3.628732 0.29498,3.592698 0.27135,3.546991 0.261323,3.509559 0.251545,3.462807 0.250809,3.425854 0.246775,3.379725 0.252169,3.334153 0.252848,3.296709 0.258671,3.251732 0.264315,3.214019 0.275942,3.169903 0.287956,3.131034 0.305901,3.086034 0.323937,3.047499 0.33637,3.004095 0.354222,2.964639 0.355748,2.924669 0.35463,2.881233 0.347018,2.840871 0.342521,2.79829 0.340734,2.75758 0.33895,2.714732 0.343339,2.671989 0.34762,2.631486 0.363464,2.589421 0.373781,2.548122 0.391145,2.505285 0.400609,2.464629 0.412121,2.422392 0.417097,2.381702 0.426556,2.339521 0.431679,2.298578 0.433068,2.257359 0.440225,2.215787 0.443166,2.174374 0.449925,2.132061 0.451378,2.09042 0.457553,2.049407 0.462942,2.00782 0.471832,1.966233 0.48215,1.924975 0.495884,1.883416 0.503696,1.858828 0.513013,1.828222 0.533692,1.774604 0.544201,1.740513 0.569826,1.69524 0.585695,1.665789 0.612324,1.623222 0.630453,1.592658 0.659374,1.554645 0.681514,1.525831 0.713088,1.492678 0.736191,1.462685 0.766687,1.430709 0.791516,1.400008 0.81949,1.371418 0.850543,1.341203 0.882302,1.315446 0.915897,1.288847 0.948149,1.262209 0.981951,1.236937 1.015521,1.207745 1.046455,1.183753 1.082109,1.156392 1.112929,1.132657 1.148121,1.104014 1.177997,1.080095 1.220602,1.055222 1.266511,1.030493 1.340778,0.997898 1.34716,0.994992 1.349704,0.994122 1.42894,0.973375 1.432241,0.972706 1.512486,0.965216 1.514896,0.965116 1.517366,0.965097 1.59684,0.961776" style="fill: white" />
</svg>
