<svg width="12.953712" height="10.039674">
<polygon type="contour" points="2.139562,1.768133 2.195901,1.768309 2.218868,1.770676 2.272574,1.778343 2.293428,1.782598 2.303281,1.783533 2.365574,1.805821 2.416696,1.817796 2.467392,1.835491 2.531139,1.853867 2.562571,1.86077 2.589653,1.868759 2.60527,1.874791 2.676679,1.896111 2.686335,1.899766 2.760363,1.925481 2.826014,1.952043 2.834755,1.956037 2.90344,1.990871 2.909042,1.994974 2.913905,2.000189 3.031059,2.099299 3.034152,2.104285 3.082548,2.171143 3.085523,2.17681 3.130105,2.251128 3.133093,2.256227 3.176335,2.332701 3.178948,2.337675 3.22074,2.416169 3.222746,2.419955 3.224619,2.423702 3.281826,2.523711 3.28873,2.5344 3.329409,2.620935 3.359142,2.678188 3.369973,2.70662 3.389697,2.768088 3.406482,2.83091 3.413438,2.862052 3.41533,2.872839 3.431377,2.946414 3.440935,3.023268 3.441408,3.031677 3.4453,3.060281 3.461765,3.194225 3.469894,3.231615 3.482299,3.298571 3.49626,3.37452 3.501745,3.412549 3.504123,3.424582 3.527347,3.529864 3.541432,3.603448 3.543213,3.614072 3.545904,3.62062 3.56796,3.689276 3.600923,3.762554 3.609304,3.777112 3.648175,3.841495 3.659076,3.852888 3.70467,3.904446 3.717615,3.913607 3.731745,3.921586 3.782076,3.96539 3.836801,4.00319 3.851019,4.011798 3.864739,4.021126 3.915367,4.064968 3.92943,4.074358 3.979129,4.118942 3.992513,4.129954 4.044265,4.170534 4.057919,4.180273 4.110554,4.221376 4.16459,4.25895 4.17913,4.268501 4.193405,4.278584 4.242566,4.322994 4.256721,4.333376 4.306762,4.376875 4.320484,4.38876 4.372686,4.427918 4.386312,4.438407 4.436182,4.482482 4.449825,4.493438 4.496324,4.542432 4.547735,4.583757 4.561437,4.59358 4.574794,4.603423 4.624401,4.64876 4.636994,4.659433 4.683404,4.710121 4.696094,4.721517 4.74329,4.768965 4.75531,4.778898 4.807703,4.839613 4.820064,4.858901 4.860133,4.93994 4.860013,4.948138 4.872595,5.029247 4.824943,5.134176 4.823823,5.138921 4.810772,5.170156 4.792905,5.216886 4.788472,5.22278 4.735891,5.276772 4.728425,5.281759 4.720933,5.284402 4.65533,5.324334 4.65336,5.324934 4.641186,5.328811 4.580557,5.347264 4.572136,5.352649 4.509373,5.373432 4.48684,5.377338 4.427058,5.373191 4.385854,5.381196 4.346733,5.376991 4.277534,5.372222 4.266801,5.370933 4.234159,5.363717 4.17752,5.352661 4.158126,5.350557 4.092304,5.334597 4.038334,5.321936 3.996048,5.307951 3.962074,5.295345 3.918626,5.28204 3.870035,5.271043 3.840112,5.265961 3.796196,5.253756 3.751429,5.236515 3.712459,5.226458 3.668036,5.213545 3.62944,5.203394 3.583775,5.186151 3.544979,5.172516 3.499249,5.153829 3.462129,5.143127 3.416833,5.123514 3.379797,5.11237 3.334248,5.086834 3.296486,5.072678 3.259978,5.061327 3.214586,5.041348 3.171742,5.02532 3.126976,5.002409 3.07849,4.983636 3.030424,4.968947 2.951432,4.943581 2.930108,4.939483 2.85359,4.930766 2.839396,4.930795 2.772483,4.940264 2.755313,4.949449 2.723333,4.97854 2.685994,5.005869 2.663858,5.023779 2.646527,5.068933 2.632753,5.094483 2.6287,5.129036 2.621437,5.196766 2.62628,5.256789 2.627165,5.300298 2.641492,5.406717 2.641925,5.416678 2.643043,5.436196 2.647964,5.527345 2.653365,5.588812 2.658298,5.622912 2.666094,5.688789 2.668928,5.706322 2.678495,5.772042 2.683082,5.789454 2.684636,5.855022 2.685207,5.872172 2.693224,5.938177 2.695286,5.955474 2.695405,6.021658 2.694936,6.087267 2.695179,6.10469 2.697307,6.122122 2.689213,6.187836 2.68953,6.253202 2.6897,6.270949 2.689942,6.336394 2.692058,6.354323 2.690034,6.372285 2.683299,6.437454 2.681455,6.456149 2.680893,6.520766 2.679089,6.58518 2.680978,6.603888 2.679146,6.622583 2.675063,6.687151 2.674914,6.707104 2.669788,6.834244 2.668032,6.853599 2.669529,6.872988 2.663189,6.936947 2.661234,6.989325 2.660808,6.995311 2.660568,7.001278 2.645099,7.104662 2.643139,7.12898 2.636003,7.174578 2.626382,7.228856 2.614407,7.26374 2.602301,7.339689 2.597083,7.356753 2.576349,7.440502 2.576098,7.441425 2.575041,7.446141 2.553098,7.530413 2.548998,7.547119 2.520164,7.610177 2.511732,7.637171 2.488895,7.690468 2.476918,7.730655 2.463041,7.775916 2.444593,7.830352 2.430311,7.856814 2.407526,7.920068 2.400528,7.937723 2.373996,8.012914 2.371776,8.01816 2.35962,8.052081 2.340944,8.097945 2.338936,8.105392 2.315134,8.183457 2.308182,8.206127 2.287609,8.264976 2.278358,8.304336 2.260545,8.34822 2.256239,8.414209 2.243553,8.437633 2.223536,8.510304 2.211712,8.516343 2.1471,8.546937 2.091655,8.558032 2.056018,8.560308 2.018599,8.559534 1.955775,8.526439 1.9391,8.511116 1.897499,8.456621 1.896653,8.451596 1.881463,8.40614 1.865637,8.33247 1.857604,8.318225 1.832897,8.209501 1.828474,8.193117 1.819413,8.125434 1.814632,8.114262 1.799185,8.04523 1.794451,8.028232 1.779607,7.960134 1.775744,7.943996 1.766387,7.877186 1.763721,7.861317 1.753775,7.794504 1.750306,7.777994 1.735801,7.711061 1.732121,7.694291 1.718354,7.627279 1.709637,7.561865 1.705296,7.544322 1.69674,7.479252 1.694466,7.465243 1.678373,7.384179 1.666779,7.305005 1.665781,7.294569 1.651313,7.230713 1.649391,7.211258 1.646762,7.191746 1.639839,7.12795 1.637756,7.107573 1.630599,7.044786 1.630298,7.02428 1.621843,6.961723 1.619939,6.940768 1.612688,6.878408 1.610205,6.856966 1.60246,6.795362 1.599945,6.773617 1.592411,6.711929 1.591316,6.690357 1.583338,6.629077 1.578564,6.607 1.570508,6.545893 1.568409,6.523446 1.563188,6.462616 1.559491,6.44 1.559866,6.379285 1.560011,6.319557 1.557337,6.296305 1.556165,6.273133 1.561791,6.213256 1.559525,6.18973 1.570929,6.130297 1.57084,6.10677 1.579797,6.047638 1.579226,6.024569 1.582901,5.964623 1.583645,5.94134 1.586044,5.881155 1.587911,5.857556 1.586428,5.799131 1.578651,5.739465 1.579559,5.714435 1.565757,5.656756 1.569847,5.631679 1.566866,5.606181 1.534534,5.548315 1.524628,5.52255 1.500507,5.467125 1.482304,5.440431 1.456342,5.382809 1.442572,5.356049 1.427981,5.299709 1.418701,5.243713 1.41413,5.215117 1.415582,5.159521 1.40921,5.131504 1.388231,5.077194 1.377887,5.048551 1.358278,4.994347 1.333784,4.965325 1.282213,4.911697 1.259099,4.88068 1.226637,4.817484 1.205775,4.792188 1.145058,4.73063 1.120555,4.706133 1.057833,4.643065 1.035967,4.621347 0.982912,4.566982 0.955762,4.540949 0.908206,4.483334 0.891692,4.458885 0.850194,4.404177 0.830978,4.375811 0.798773,4.320321 0.782606,4.293131 0.749116,4.235178 0.730203,4.207088 0.71199,4.175925 0.683738,4.138356 0.649765,4.082086 0.623309,4.048287 0.575085,3.984594 0.55431,3.958604 0.515672,3.905834 0.49826,3.878162 0.471765,3.826751 0.453705,3.796826 0.431292,3.743929 0.417021,3.714756 0.395673,3.663927 0.395312,3.660525 0.394223,3.656363 0.393055,3.58277 0.382966,3.549643 0.375184,3.500831 0.374929,3.467215 0.374779,3.433267 0.381168,3.384251 0.38162,3.335161 0.384791,3.301655 0.389203,3.267944 0.40359,3.218771 0.414488,3.183467 0.431831,3.131263 0.441746,3.094003 0.454851,3.053018 0.47016,3.017194 0.491622,2.969316 0.508586,2.933826 0.542457,2.860165 0.554903,2.837589 0.587229,2.774167 0.589474,2.769413 0.651098,2.664542 0.660489,2.648987 0.676788,2.618959 0.684271,2.605638 0.7221,2.55441 0.732968,2.53764 0.769198,2.482836 0.77891,2.465903 0.822052,2.409282 0.829164,2.399091 0.836348,2.388549 0.911603,2.301205 0.919664,2.293277 0.92814,2.284923 1.026506,2.189338 1.046379,2.170514 1.107296,2.119821 1.16526,2.063763 1.185187,2.048018 1.242696,2.007755 1.267032,1.991207 1.272487,1.988022 1.347258,1.942241 1.372741,1.923639 1.430324,1.890674 1.46946,1.873941 1.519979,1.859568 1.556725,1.848588 1.610997,1.829872 1.647405,1.821573 1.705858,1.813166 1.729141,1.80972 1.800808,1.799121 1.811732,1.797143 1.895606,1.779344 1.898304,1.779039 1.912246,1.777691 1.980377,1.77192 1.994084,1.770628 2.059021,1.769414 2.093116,1.76602" style="fill: white" />
</svg>
