<svg width="12.953712" height="10.039674">
<polygon type="contour" points="7.589499,0.112919 7.670879,0.120198 7.674605,0.121032 7.75401,0.139252 7.758755,0.141059 7.837755,0.15934 7.843199,0.16112 7.920861,0.179202 7.927719,0.182065 8.003958,0.200535 8.01178,0.203994 8.087252,0.228022 8.096624,0.229893 8.169643,0.241656 8.179375,0.240639 8.252822,0.246982 8.326049,0.242428 8.335769,0.241216 8.409401,0.23963 8.419262,0.239604 8.429094,0.24107 8.502458,0.250305 8.513306,0.25342 8.58678,0.268962 8.656859,0.294181 8.681773,0.303854 8.71746,0.317306 8.763877,0.336347 8.794169,0.352523 8.838983,0.374511 8.868025,0.392206 8.911345,0.415367 8.943093,0.428574 8.99151,0.450673 9.021963,0.461301 9.070612,0.481273 9.101815,0.490395 9.152868,0.511605 9.177658,0.52715 9.225973,0.553563 9.249114,0.57065 9.271544,0.587922 9.317447,0.61741 9.362665,0.648151 9.387618,0.662127 9.432932,0.693629 9.459597,0.704728 9.508208,0.73333 9.534814,0.741845 9.58706,0.764814 9.612192,0.776236 9.661658,0.807301 9.682642,0.821039 9.701822,0.836668 9.747933,0.873685 9.766467,0.892145 9.806538,0.935803 9.824643,0.955723 9.860787,1.005447 9.878562,1.031632 9.91363,1.076295 9.931804,1.102467 9.966139,1.144598 9.986252,1.168183 10.023687,1.207288 10.046903,1.2277 10.090348,1.256956 10.133618,1.287505 10.15923,1.303758 10.183689,1.32216 10.225547,1.354108 10.270087,1.382288 10.294222,1.400853 10.345306,1.422302 10.36936,1.438511 10.42481,1.456525 10.450426,1.468109 10.476011,1.47777 10.531456,1.495931 10.580059,1.527025 10.604701,1.535998 10.651728,1.570958 10.672649,1.584585 10.692285,1.599778 10.734024,1.64214 10.752492,1.660679 10.795019,1.700173 10.813537,1.719595 10.85643,1.757819 10.874467,1.77954 10.915322,1.820312 10.93324,1.842255 10.971797,1.884246 10.991673,1.905649 11.029889,1.946725 11.050244,1.968883 11.086748,2.010098 11.106115,2.035866 11.139328,2.080397 11.158604,2.107942 11.188417,2.155607 11.207384,2.189751 11.23226,2.240186 11.252434,2.274797 11.276423,2.323281 11.298731,2.360726 11.322139,2.405565 11.346417,2.44946 11.36835,2.487761 11.391892,2.532337 11.412931,2.568076 11.437617,2.619053 11.4562,2.65219 11.483162,2.706099 11.501587,2.733787 11.542277,2.82434 11.557273,2.847459 11.57744,2.87223 11.619026,2.947585 11.718923,3.038648 11.786132,3.052377 11.816514,3.032266 11.885801,2.984644 11.896122,2.97762 11.978508,2.935101 11.979812,2.934337 12.065274,2.911665 12.072964,2.911066 12.141575,2.913298 12.174713,2.912284 12.255195,2.925001 12.288624,2.931146 12.306352,2.936547 12.401152,2.977803 12.445902,3.00526 12.534923,3.086097 12.542152,3.092555 12.54679,3.097608 12.620005,3.186354 12.646327,3.23467 12.677329,3.28765 12.709702,3.357488 12.724669,3.392631 12.736483,3.43034 12.757644,3.503108 12.773672,3.54025 12.775778,3.547564 12.798807,3.625905 12.800349,3.631482 12.801973,3.716557 12.802302,3.724151 12.802202,3.731559 12.801576,3.76502 12.795899,3.85703 12.784836,3.96562 12.782301,3.986723 12.780081,3.996802 12.749451,4.120953 12.71254,4.214322 12.712358,4.214683 12.672071,4.296196 12.632806,4.357836 12.616003,4.376706 12.580432,4.414275 12.572235,4.422963 12.555821,4.440372 12.518702,4.477022 12.503839,4.492045 12.474346,4.504601 12.426262,4.531098 12.375762,4.547197 12.345297,4.556884 12.282442,4.568294 12.261172,4.571653 12.192237,4.580375 12.176519,4.582268 12.10283,4.590852 12.091377,4.591055 12.018034,4.577704 11.998814,4.574161 11.929986,4.569268 11.907135,4.56778 11.842304,4.57059 11.821169,4.576478 11.742662,4.587373 11.721615,4.611367 11.6669,4.661762 11.623492,4.718695 11.599211,4.754726 11.585487,4.780212 11.541733,4.863274 11.508086,4.943754 11.502495,4.956822 11.47725,5.033456 11.47412,5.041183 11.455385,5.11821 11.453111,5.124686 11.431387,5.202117 11.430014,5.207118 11.405061,5.289313 11.404421,5.291974 11.382906,5.373241 11.382521,5.37477 11.356596,5.440137 11.349708,5.457352 11.349498,5.45776 11.308048,5.540885 11.306316,5.543858 11.263729,5.622877 11.260172,5.628752 11.213938,5.707616 11.207135,5.717008 11.167437,5.789875 11.114269,5.85781 11.102622,5.872423 11.039429,5.938277 11.017428,5.957927 10.955474,6.015675 10.926962,6.040193 10.87325,6.096174 10.847342,6.125934 10.802349,6.175304 10.775272,6.207851 10.732644,6.25088 10.69909,6.289606 10.659983,6.331252 10.616406,6.369566 10.564901,6.414923 10.514226,6.451394 10.450861,6.512549 10.421417,6.540728 10.381793,6.598491 10.36602,6.62029 10.311312,6.685977 10.29555,6.705446 10.232538,6.770903 10.218752,6.784178 10.161479,6.823331 10.147183,6.832873 10.06607,6.876787 10.036193,6.898802 9.981844,6.938724 9.979568,6.940963 9.898612,7.01153 9.891965,7.017196 9.811503,7.078746 9.800466,7.088186 9.731464,7.13013 9.661307,7.178487 9.646159,7.190744 9.581863,7.232988 9.563645,7.244967 9.54455,7.253047 9.481394,7.286793 9.45935,7.29397 9.398517,7.319039 9.375147,7.327944 9.315219,7.350433 9.290164,7.363342 9.232738,7.387092 9.17651,7.420475 9.148242,7.437709 9.119183,7.450311 9.065325,7.477398 9.034208,7.485777 8.9808,7.507368 8.947045,7.512383 8.89826,7.52396 8.865008,7.524248 8.814282,7.539407 8.78088,7.54177 8.73202,7.555613 8.696089,7.565634 8.647405,7.581349 8.611364,7.592117 8.5633,7.612288 8.523951,7.631656 8.481717,7.644871 8.441395,7.663749 8.39912,7.677245 8.357519,7.690909 8.314925,7.703951 8.273612,7.706711 8.232286,7.712005 8.189366,7.71462 8.14845,7.718642 8.105956,7.719645 8.065738,7.722887 8.023934,7.735225 7.982639,7.747975 7.938971,7.759015 7.899562,7.768709 7.855559,7.775231 7.816655,7.780316 7.77062,7.793812 7.733585,7.797752 7.686627,7.818839 7.649222,7.827232 7.602513,7.847259 7.56642,7.858107 7.517722,7.872203 7.483712,7.881264 7.433347,7.892372 7.400473,7.897258 7.35144,7.900109 7.317753,7.904244 7.266169,7.91305 7.233461,7.924251 7.182053,7.931502 7.150525,7.946829 7.100126,7.957021 7.068959,7.95855 7.01579,7.981224 6.984678,7.992571 6.927908,8.033974 6.900768,8.049788 6.84338,8.059019 6.818079,8.063532 6.761111,8.06419 6.735181,8.063506 6.675959,8.075406 6.651064,8.081941 6.591899,8.090722 6.567412,8.093786 6.542977,8.093464 6.484196,8.087942 6.426349,8.086217 6.401012,8.086222 6.374921,8.081212 6.316534,8.076821 6.260188,8.079918 6.234226,8.081909 6.207626,8.079584 6.150395,8.073073 6.123455,8.068766 6.066923,8.054828 6.037871,8.043846 5.983391,8.017018 5.952429,7.999953 5.899631,7.963934 5.863357,7.938071 5.818463,7.911037 5.78162,7.886273 5.735877,7.848083 5.692979,7.812719 5.640813,7.770624 5.633798,7.764221 5.556414,7.679624 5.555341,7.678313 5.523177,7.631505 5.499904,7.597589 5.499277,7.596656 5.439463,7.513447 5.436609,7.508232 5.399592,7.42808 5.396661,7.420296 5.361694,7.344795 5.353335,7.333116 5.310997,7.260591 5.307315,7.24553 5.28143,7.177684 5.275237,7.160651 5.25887,7.094548 5.252012,7.075857 5.230817,7.010229 5.225225,6.989246 5.207848,6.927773 5.197333,6.905266 5.176814,6.843864 5.170657,6.818939 5.14926,6.760818 5.142656,6.733832 5.12885,6.677492 5.118297,6.648822 5.094458,6.595375 5.0794,6.565818 5.046205,6.515853 5.036512,6.490716 5.016858,6.426336 4.989421,6.39135 4.943315,6.351995 4.906358,6.320482 4.857575,6.308619 4.823366,6.296239 4.772652,6.277867 4.740449,6.27002 4.707424,6.270563 4.656578,6.273166 4.623015,6.278716 4.573359,6.28019 4.538648,6.289888 4.489347,6.303976 4.453456,6.313344 4.407064,6.326345 4.371312,6.332639 4.324479,6.340339 4.276495,6.335663 4.24101,6.330251 4.189771,6.306625 4.157753,6.297333 4.104364,6.264522 4.074711,6.249897 4.01924,6.221121 3.992097,6.207509 3.933949,6.177304 3.909708,6.166608 3.850483,6.149663 3.826251,6.13858 3.766868,6.134633 3.743059,6.12884 3.719418,6.127293 3.659385,6.135115 3.599756,6.143863 3.575417,6.141292 3.552155,6.139834 3.492189,6.143413 3.467395,6.143375 3.408922,6.144047 3.384055,6.146936 3.325915,6.156178 3.301012,6.158399 3.242988,6.162119 3.215845,6.166406 3.159984,6.166596 3.100743,6.167522 3.076941,6.165791 3.015418,6.161547 2.993574,6.160332 2.930961,6.152523 2.910529,6.152005 2.847885,6.135572 2.827536,6.126895 2.761741,6.096041 2.744698,6.085818 2.675459,6.036723 2.66179,6.028747 2.586437,5.979188 2.577629,5.972761 2.50482,5.932116 2.496882,5.925271 2.418533,5.870951 2.413682,5.867003 2.331163,5.796521 2.253267,5.750116 2.250935,5.747722 2.176418,5.68988 2.173371,5.686801 2.155122,5.655 2.081985,5.530243 2.002649,5.492568 1.980186,5.464714 1.918346,5.443464 1.903435,5.44093 1.877687,5.429874 1.818486,5.363667 1.77375,5.313393 1.750657,5.272611 1.736963,5.208043 1.73008,5.181113 1.690149,5.125011 1.673545,5.099966 1.61954,5.034467 1.616118,5.015329 1.571013,4.944059 1.569743,4.930464 1.538819,4.857351 1.53561,4.847099 1.517962,4.774198 1.513552,4.764675 1.4852,4.6918 1.480766,4.682244 1.454234,4.607528 1.450651,4.599523 1.420205,4.520434 1.417809,4.515854 1.409369,4.499378 1.385222,4.428786 1.340123,4.347139 1.334725,4.326916 1.315858,4.267677 1.293365,4.195028 1.289284,4.174409 1.279561,4.106921 1.274296,4.079386 1.265074,4.017416 1.255553,3.958019 1.250368,3.916666 1.24914,3.849853 1.249548,3.803013 1.246839,3.772478 1.2476,3.695662 1.249684,3.680748 1.253215,3.652034 1.258985,3.591477 1.271603,3.552955 1.282901,3.476686 1.283732,3.473752 1.2845,3.470408 1.309895,3.408967 1.324473,3.357455 1.331505,3.337817 1.339529,3.312775 1.358877,3.270111 1.370244,3.239366 1.387722,3.205272 1.404865,3.151656 1.412297,3.135984 1.416283,3.125073 1.442044,3.073865 1.460311,3.006355 1.462756,3.000202 1.46529,2.992018 1.489247,2.932726 1.503975,2.887382 1.513274,2.865616 1.521851,2.834398 1.53574,2.79614 1.546991,2.768413 1.56613,2.732365 1.598479,2.67473 1.598808,2.67412 1.599391,2.673077 1.633327,2.613005 1.65198,2.577212 1.666593,2.551714 1.696638,2.506544 1.704351,2.495613 1.708168,2.490501 1.746752,2.441967 1.768324,2.412019 1.787409,2.387553 1.829339,2.335369 1.830119,2.334567 1.832108,2.332391 1.893426,2.268054 1.924614,2.236684 1.95787,2.201463 2.011739,2.148787 2.023744,2.137932 2.029373,2.133111 2.093327,2.083827 2.128624,2.053853 2.164569,2.033522 2.1904,2.016833 2.23715,1.986723 2.249806,1.9782 2.31119,1.943354 2.312781,1.942461 2.325367,1.936616 2.380597,1.910645 2.388106,1.907306 2.445032,1.876522 2.463768,1.868517 2.51534,1.846664 2.542016,1.835274 2.586969,1.818539 2.620851,1.805032 2.661803,1.792385 2.70266,1.779747 2.739381,1.767744 2.78409,1.753909 2.814042,1.741321 2.86196,1.719773 2.883944,1.710938 2.939969,1.685719 2.954147,1.680843 3.025234,1.669444 3.044677,1.666996 3.113002,1.660765 3.140823,1.659288 3.201198,1.653677 3.238243,1.652829 3.292485,1.651561 3.342612,1.651057 3.383504,1.650359 3.446605,1.649013 3.474467,1.647658 3.570316,1.66039 3.57299,1.660536 3.584437,1.661656 3.656031,1.665462 3.745104,1.638776 3.77458,1.621471 3.808444,1.596943 3.818265,1.593528 3.829961,1.586994 3.889977,1.54483 3.923948,1.526045 3.964979,1.504353 3.995269,1.489147 4.090844,1.441442 4.093837,1.440204 4.096907,1.439093 4.176771,1.409842 4.181813,1.408305 4.259457,1.396277 4.264507,1.395382 4.341646,1.397653 4.345091,1.397472 4.42557,1.406264 4.504972,1.412973 4.50868,1.412964 4.512405,1.412943 4.591854,1.413518 4.59555,1.413312 4.675073,1.40595 4.679499,1.405954 4.75824,1.40389 4.762558,1.404003 4.841303,1.404425 4.920112,1.416068 4.924,1.41679 5.004569,1.43626 5.007151,1.436646 5.086812,1.47512 5.090891,1.477087 5.091029,1.477157 5.172583,1.522605 5.174928,1.523566 5.257192,1.560447 5.262514,1.562227 5.340652,1.590555 5.3477,1.590757 5.423667,1.598787 5.50502,1.580216 5.572513,1.537026 5.584373,1.52951 5.632112,1.447862 5.634888,1.442778 5.6711,1.376786 5.676705,1.365304 5.709212,1.297557 5.716672,1.283296 5.751952,1.220592 5.76215,1.203918 5.798081,1.151177 5.809108,1.133455 5.842087,1.075553 5.853458,1.05254 5.880229,0.996114 5.894091,0.972195 5.919702,0.918646 5.933753,0.890017 5.959573,0.842253 5.977026,0.81441 6.005354,0.770124 6.024328,0.740098 6.050799,0.697894 6.071125,0.665575 6.09699,0.626251 6.120106,0.593781 6.147166,0.558944 6.179063,0.529613 6.207594,0.501455 6.241756,0.476201 6.275805,0.452252 6.311662,0.429445 6.350504,0.40826 6.397765,0.382358 6.422652,0.368836 6.490898,0.336995 6.505105,0.332194 6.575128,0.317804 6.588976,0.316488 6.602905,0.319312 6.672095,0.334922 6.685925,0.336902 6.753478,0.359997 6.823705,0.328559 6.83974,0.320269 6.908775,0.283055 6.920398,0.27739 6.997797,0.250734 7.006643,0.24693 7.08172,0.218585 7.089038,0.214938 7.165246,0.184892 7.171142,0.181953 7.247503,0.16111 7.25314,0.159456 7.334144,0.134641 7.337328,0.13372 7.417513,0.123147 7.420357,0.122693 7.499284,0.117705 7.503263,0.117541 7.584492,0.112611 7.586989,0.112591" style="fill: white" />
</svg>
