<svg width="12.953712" height="10.039674">
<polygon type="contour" points="8.164607,3.742539 8.213754,3.803996 8.230249,3.837201 8.247323,3.924709 8.258937,3.945346 8.248433,3.959803 8.243291,3.970167 8.198137,3.967748 8.165907,3.936283 8.154929,3.864774 8.152644,3.761112 8.151619,3.747293 8.157013,3.740572 8.160923,3.738383" style="fill: white" /><polygon type="contour" points="1.510106,0.513854 1.513689,0.513929 1.592045,0.526183 1.596334,0.526938 1.673636,0.556713 1.678715,0.558415 1.683942,0.56157 1.750226,0.603298 1.7793,0.616763 1.82598,0.641026 1.852064,0.656038 1.901828,0.677836 1.948119,0.704958 1.973126,0.720605 2.016606,0.754661 2.040227,0.770641 2.081033,0.80786 2.102812,0.827238 2.143142,0.864504 2.164244,0.885102 2.200404,0.930214 2.219778,0.954365 2.253925,0.994291 2.273874,1.019227 2.306979,1.063691 2.326132,1.091398 2.356787,1.136692 2.374849,1.168297 2.403002,1.217029 2.420516,1.247936 2.448355,1.2915 2.466884,1.32837 2.495361,1.370561 2.516711,1.402319 2.54609,1.442859 2.568818,1.472587 2.598957,1.508454 2.625764,1.535377 2.659566,1.565309 2.689408,1.590405 2.721233,1.611309 2.760031,1.63451 2.794807,1.651686 2.83611,1.670853 2.869725,1.687173 2.912231,1.706372 2.94444,1.722875 2.986575,1.745233 3.018348,1.762408 3.060271,1.784925 3.099907,1.81116 3.129532,1.830845 3.167196,1.859315 3.19647,1.879861 3.232237,1.91131 3.259841,1.934719 3.295316,1.966392 3.321469,1.991454 3.355698,2.025818 3.380588,2.053159 3.415018,2.085598 3.441032,2.112319 3.475012,2.144826 3.502329,2.169636 3.53566,2.204334 3.562284,2.229378 3.59474,2.261664 3.621368,2.28835 3.651548,2.325923 3.675994,2.358141 3.701916,2.395043 3.72334,2.433763 3.745716,2.479624 3.765782,2.519276 3.821599,2.639613 3.82383,2.64405 3.825759,2.648493 3.864219,2.750005 3.866565,2.756228 3.90888,2.850914 3.91327,2.861003 3.918099,2.871208 3.960298,2.965935 3.992005,3.060714 3.997747,3.075211 4.028222,3.171357 4.032176,3.185038 4.045751,3.251565 4.055417,3.29938 4.057236,3.312629 4.074026,3.41475 4.079691,3.481325 4.08403,3.539422 4.088648,3.632996 4.090044,3.654804 4.090564,3.66598 4.099523,3.773106 4.099282,3.85551 4.101157,3.893958 4.098125,3.940515 4.092638,4.020076 4.074401,4.145833 4.073565,4.150569 4.068169,4.17423 4.042265,4.288277 4.039714,4.297349 4.026935,4.345475 4.003707,4.435314 3.998607,4.452512 3.99228,4.473839 3.973773,4.531448 3.956557,4.575135 3.944955,4.607179 3.927763,4.646305 3.911387,4.683483 3.898991,4.704436 3.877133,4.75104 3.839264,4.818243 3.837876,4.820402 3.836158,4.823018 3.778638,4.916514 3.737246,4.988708 3.714572,5.019641 3.69263,5.041673 3.645385,5.086249 3.577418,5.158453 3.5768,5.159053 3.576003,5.159958 3.505358,5.226583 3.463055,5.254371 3.429908,5.275544 3.361881,5.30552 3.350742,5.310419 3.297166,5.33011 3.27421,5.337967 3.265462,5.34111 3.202556,5.366392 3.172841,5.379168 3.126552,5.398584 3.093894,5.413879 3.049084,5.432692 3.01372,5.44813 2.96744,5.466673 2.932309,5.480562 2.88456,5.497328 2.849898,5.507027 2.801764,5.523584 2.767148,5.532787 2.719458,5.546103 2.684413,5.553825 2.636402,5.566086 2.602327,5.571593 2.554211,5.579725 2.51979,5.586481 2.471235,5.597811 2.437949,5.60085 2.389028,5.606541 2.355098,5.609332 2.306531,5.611317 2.257753,5.612908 2.224002,5.614126 2.175762,5.611703 2.141525,5.611657 2.09357,5.606253 2.059318,5.604053 2.011475,5.598562 1.975896,5.59203 1.928358,5.580507 1.89248,5.573326 1.845654,5.566957 1.809678,5.557665 1.762214,5.542942 1.72607,5.537417 1.679671,5.526372 1.641875,5.514516 1.596221,5.497365 1.558981,5.487024 1.514344,5.464643 1.475363,5.445335 1.432374,5.416924 1.392214,5.39088 1.350783,5.362231 1.309875,5.333069 1.269058,5.311693 1.226545,5.28276 1.186677,5.262438 1.141314,5.234912 1.102716,5.219365 1.057486,5.195433 1.019176,5.175395 0.971844,5.139894 0.934558,5.109974 0.865842,5.052744 0.845481,5.030629 0.791156,4.973317 0.771667,4.950666 0.72823,4.893495 0.710332,4.868589 0.651604,4.808666 0.633286,4.782936 0.579976,4.728281 0.555536,4.701462 0.535524,4.672565 0.494309,4.620943 0.476182,4.591149 0.439897,4.53878 0.421929,4.507825 0.397792,4.456305 0.379846,4.405336 0.365294,4.373428 0.348484,4.322627 0.331062,4.289785 0.313365,4.239672 0.301749,4.206918 0.289928,4.157421 0.278455,4.123875 0.26689,4.074764 0.255728,4.040634 0.244993,3.991771 0.237296,3.957466 0.230325,3.909171 0.222294,3.874428 0.209339,3.825269 0.204227,3.791022 0.197844,3.743359 0.193953,3.708045 0.19388,3.672349 0.192341,3.624997 0.191864,3.588708 0.191124,3.54187 0.19174,3.495579 0.186986,3.458726 0.180562,3.413283 0.171804,3.375639 0.168143,3.329974 0.163791,3.292365 0.167289,3.254314 0.167351,3.209175 0.168445,3.171087 0.172468,3.125956 0.179136,3.086583 0.187476,3.042423 0.192474,3.002589 0.197807,2.959217 0.202802,2.919599 0.211301,2.875856 0.219722,2.835434 0.225919,2.792796 0.234675,2.752387 0.242915,2.709217 0.253336,2.668942 0.263255,2.626338 0.273056,2.585997 0.279293,2.543695 0.287563,2.502969 0.29786,2.460323 0.307581,2.420142 0.319877,2.377024 0.325641,2.336404 0.331747,2.294084 0.338988,2.252791 0.347097,2.210678 0.35259,2.16933 0.357508,2.127605 0.362146,2.085914 0.362669,2.044357 0.363799,2.002888 0.363579,1.961237 0.360335,1.919738 0.363696,1.878022 0.363402,1.837177 0.361083,1.795009 0.364968,1.752706 0.366043,1.712003 0.368187,1.670388 0.370076,1.62968 0.378728,1.589161 0.38375,1.559426 0.399027,1.512581 0.410405,1.470117 0.430161,1.427501 0.447948,1.389859 0.468844,1.349458 0.488818,1.311437 0.509066,1.274353 0.531048,1.237111 0.548518,1.197017 0.571612,1.159114 0.59039,1.122957 0.611584,1.080673 0.630947,1.048038 0.652208,1.003857 0.672851,0.975029 0.697211,0.93152 0.71873,0.90541 0.749981,0.865905 0.785981,0.828879 0.808424,0.805991 0.850095,0.773088 0.873915,0.753323 0.916207,0.719143 0.939325,0.700593 0.982968,0.666586 1.006648,0.649545 1.055509,0.618334 1.092463,0.597339 1.100559,0.592524 1.106856,0.589685 1.183184,0.553645 1.189227,0.551287 1.264672,0.528712 1.269369,0.52779 1.348174,0.512119 1.426504,0.50743 1.430457,0.507194" style="fill: white" />
</svg>
