<svg width="12.953712" height="10.039674">
<polygon type="contour" points="5.526685,5.464382 5.592362,5.476945 5.606884,5.494629 5.658158,5.526614 5.674984,5.548862 5.743467,5.607562 5.757512,5.62426 5.770761,5.642347 5.826626,5.713877 5.853262,5.750448 5.864118,5.766709 5.905359,5.818933 5.91709,5.835103 5.956843,5.891653 5.968153,5.908049 6.008004,5.964534 6.019961,5.979544 6.057663,6.037472 6.07026,6.052254 6.112825,6.106967 6.125898,6.120532 6.170536,6.170567 6.184162,6.182897 6.227571,6.233991 6.24096,6.246557 6.254447,6.259067 6.299156,6.308977 6.312912,6.321047 6.359719,6.366861 6.373406,6.378808 6.418319,6.428837 6.431522,6.441993 6.479281,6.486657 6.492859,6.49782 6.540403,6.545749 6.553696,6.558828 6.601473,6.603489 6.614844,6.615669 6.661116,6.664376 6.674273,6.678014 6.720174,6.723791 6.732657,6.736246 6.777159,6.786972 6.788955,6.800334 6.833063,6.851626 6.844198,6.864949 6.886214,6.921612 6.896752,6.936537 6.93721,6.994282 6.946456,7.011067 6.979474,7.080835 6.986674,7.096061 7.007249,7.144713 7.016862,7.16999 7.018467,7.327749 7.021347,7.338771 7.013515,7.349355 7.006666,7.35086 6.932122,7.357053 6.917124,7.349883 6.868275,7.324218 6.823164,7.298758 6.80709,7.290597 6.762111,7.260349 6.707795,7.222744 6.691616,7.210638 6.623246,7.151453 6.607802,7.140966 6.539068,7.081973 6.52293,7.066503 6.456555,7.013265 6.441334,7.001021 6.374318,6.940518 6.358578,6.927102 6.291287,6.866301 6.276263,6.854069 6.261088,6.842026 6.214758,6.801406 6.13153,6.731567 6.11972,6.722696 6.108188,6.71365 6.030438,6.637994 6.019841,6.629923 5.937174,6.556791 5.927113,6.548166 5.851406,6.476558 5.837347,6.464138 5.776501,6.40025 5.763976,6.389273 5.692943,6.312235 5.684357,6.303681 5.623497,6.232929 5.614616,6.223529 5.558761,6.150144 5.549193,6.140629 5.490448,6.069762 5.481853,6.059174 5.438886,5.984699 5.430846,5.975207 5.393256,5.901629 5.386552,5.892483 5.353302,5.768468 5.350459,5.755664 5.351084,5.750201 5.355657,5.634108 5.376062,5.571233 5.403086,5.502189 5.417798,5.479521 5.435314,5.483694 5.507958,5.446635" style="fill: white" /><polygon type="contour" points="1.771553,9.044619 1.838087,9.062457 1.840502,9.063811 1.843251,9.065191 1.907483,9.097409 1.969612,9.142864 1.97058,9.143336 2.085921,9.220424 2.105366,9.235724 2.183174,9.305161 2.256487,9.370445 2.27833,9.390731 2.300148,9.415232 2.359575,9.481878 2.421677,9.5693 2.426867,9.57774 2.442581,9.602545 2.48845,9.677903 2.495574,9.696789 2.49433,9.707172 2.528275,9.802141 2.510417,9.846535 2.497804,9.870452 2.447034,9.888009 2.37746,9.877801 2.314908,9.841116 2.288196,9.829304 2.272302,9.833851 2.235449,9.813332 2.188198,9.779946 2.178249,9.771925 2.153742,9.755203 2.124744,9.728208 2.083749,9.700944 2.060693,9.682334 1.995678,9.62944 1.958859,9.600116 1.893638,9.548442 1.873279,9.51432 1.809109,9.457517 1.750379,9.410632 1.701842,9.37109 1.663934,9.328123 1.683055,9.260935 1.67082,9.148386 1.67927,9.128755 1.731478,9.043055" style="fill: white" />
</svg>
