<svg width="12.953712" height="10.039674">
<polygon type="contour" points="8.08607,0.17789 8.086313,0.177917 8.169657,0.195142 8.171514,0.19543 8.253319,0.213102 8.2568,0.21421 8.337731,0.235695 8.341879,0.237243 8.426336,0.28344 8.440351,0.287926 8.512973,0.313782 8.540972,0.322309 8.599606,0.34711 8.654086,0.379336 8.671951,0.388413 8.687686,0.401122 8.735849,0.442443 8.749172,0.461722 8.792666,0.506569 8.807924,0.520246 8.853666,0.565028 8.906356,0.595895 8.928397,0.602386 8.987459,0.627965 9.006573,0.635513 9.070785,0.658825 9.086338,0.667272 9.146385,0.694695 9.161655,0.70328 9.224991,0.730746 9.238843,0.738345 9.299563,0.770527 9.311891,0.778754 9.373271,0.812302 9.385652,0.820098 9.450603,0.849507 9.460333,0.857704 9.471627,0.863438 9.544469,0.881399 9.554465,0.88586 9.623701,0.913032 9.63225,0.91741 9.698029,0.951696 9.70543,0.956012 9.764123,1.00211 9.770972,1.007325 9.826692,1.0581 9.833649,1.064254 9.885569,1.119471 9.951745,1.153693 9.959775,1.158058 10.031166,1.187252 10.038558,1.19032 10.110908,1.220909 10.116926,1.223472 10.181846,1.264656 10.18725,1.267585 10.192071,1.271335 10.250372,1.322834 10.255081,1.327094 10.308284,1.385481 10.31346,1.390341 10.367818,1.446147 10.43463,1.483164 10.440546,1.487154 10.51341,1.518136 10.518269,1.520868 10.590332,1.552762 10.595393,1.554701 10.660606,1.598218 10.665048,1.600551 10.727842,1.648008 10.731487,1.650797 10.734784,1.653846 10.790501,1.712176 10.794186,1.716178 10.846971,1.776129 10.850753,1.781145 10.899394,1.846373 10.904077,1.852611 10.952706,1.91589 10.958319,1.923898 11.005197,1.986383 11.011297,1.99535 11.049905,2.069014 11.057851,2.081029 11.094593,2.152003 11.103479,2.166745 11.140845,2.230992 11.149231,2.252512 11.184697,2.314389 11.196144,2.337523 11.216157,2.367106 11.254211,2.415961 11.277334,2.423321 11.332931,2.466394 11.353223,2.461991 11.415879,2.478879 11.471323,2.456578 11.495067,2.445 11.554459,2.423425 11.579166,2.416821 11.63617,2.394687 11.662606,2.387556 11.718614,2.378834 11.746097,2.375153 11.802354,2.368609 11.830105,2.36865 11.857479,2.372444 11.913766,2.372861 11.940787,2.378839 11.998026,2.385797 12.02304,2.39389 12.082107,2.405954 12.107178,2.417195 12.165614,2.435179 12.195767,2.446574 12.20175,2.449401 12.266152,2.480894 12.276578,2.48641 12.286562,2.49297 12.348502,2.528633 12.405113,2.570578 12.415271,2.57816 12.471273,2.6211 12.480427,2.630055 12.531375,2.682322 12.539471,2.691297 12.58917,2.749442 12.595983,2.758134 12.644729,2.816164 12.650597,2.824117 12.694239,2.894742 12.698729,2.901135 12.741965,2.974954 12.745023,2.979936 12.781505,3.051255 12.784852,3.057304 12.786933,3.062623 12.812144,3.13098 12.815646,3.142602 12.842139,3.213479 12.845548,3.227056 12.866008,3.295838 12.869552,3.31047 12.885001,3.379431 12.889078,3.395195 12.906426,3.462609 12.910071,3.480059 12.924493,3.546527 12.926368,3.564952 12.933484,3.630106 12.935186,3.649007 12.940156,3.713697 12.942161,3.733414 12.944586,3.797092 12.945438,3.81664 12.951183,3.88051 12.951228,3.900513 12.951908,3.967168 12.945308,4.027942 12.944257,4.047511 12.933831,4.111668 12.929414,4.130621 12.912451,4.196059 12.908167,4.213522 12.886634,4.282034 12.882503,4.297619 12.857995,4.367333 12.853318,4.381554 12.821879,4.454323 12.817441,4.466125 12.78387,4.537798 12.779598,4.546672 12.737972,4.621607 12.734901,4.627176 12.665405,4.709042 12.664801,4.709849 12.66413,4.710612 12.651337,4.721397 12.566871,4.793773 12.559365,4.800032 12.517014,4.849676 12.475355,4.895735 12.449861,4.932086 12.421528,4.966484 12.381269,5.015819 12.324347,5.066472 12.310763,5.077408 12.304761,5.080482 12.233072,5.118062 12.203482,5.131405 12.153348,5.151052 12.115271,5.160579 12.070295,5.170568 12.037035,5.172783 11.984784,5.179299 11.953538,5.1794 11.89645,5.182704 11.862499,5.177792 11.805023,5.16684 11.761019,5.158625 11.715371,5.156092 11.665444,5.148906 11.623096,5.140143 11.560073,5.12738 11.529163,5.120619 11.467606,5.120504 11.442332,5.121295 11.393805,5.138957 11.361472,5.139891 11.327025,5.15605 11.288678,5.201892 11.275864,5.225274 11.230156,5.285087 11.226637,5.293195 11.192252,5.371029 11.188433,5.38156 11.162872,5.455245 11.158182,5.467832 11.134996,5.539225 11.129119,5.554126 11.107991,5.620669 11.098479,5.637401 11.065582,5.704396 11.051744,5.724817 11.011238,5.787596 10.995168,5.809561 10.945148,5.871012 10.91435,5.901159 10.861703,5.956512 10.827906,5.992844 10.786968,6.041578 10.763029,6.082261 10.736046,6.125573 10.712103,6.16658 10.684152,6.205131 10.648904,6.251089 10.622063,6.288705 10.589053,6.337539 10.563689,6.370433 10.511008,6.417277 10.469056,6.446899 10.347105,6.524624 10.32514,6.542545 10.260378,6.609626 10.249954,6.622922 10.174937,6.699683 10.168999,6.70732 10.113229,6.755671 10.098045,6.768382 10.094627,6.771311 10.087764,6.776553 10.020898,6.827505 9.988168,6.85322 9.947235,6.884012 9.877152,6.936789 9.873083,6.939932 9.870464,6.942574 9.864982,6.946292 9.799491,6.993445 9.733854,7.036913 9.731545,7.038046 9.72808,7.039372 9.653246,7.077581 9.648219,7.079846 9.567504,7.134402 9.558804,7.138 9.483851,7.174003 9.472736,7.17796 9.400886,7.205582 9.38861,7.209305 9.318881,7.238151 9.30453,7.244156 9.234196,7.275294 9.218178,7.28178 9.152982,7.311382 9.135421,7.316008 9.068599,7.337562 9.049723,7.340607 8.985498,7.350205 8.96647,7.354481 8.902496,7.370119 8.881907,7.376435 8.817649,7.401036 8.794625,7.407653 8.735373,7.432424 8.713733,7.44034 8.656204,7.45692 8.632293,7.462686 8.570393,7.474855 8.546312,7.479739 8.485624,7.487103 8.461529,7.491848 8.403017,7.503468 8.375956,7.515021 8.320515,7.537237 8.292072,7.551375 8.236195,7.580469 8.203457,7.599622 8.152705,7.624309 8.117485,7.64614 8.068776,7.668668 8.032594,7.679868 7.988243,7.699101 7.949066,7.706349 7.902939,7.712135 7.864786,7.718596 7.820154,7.719496 7.780377,7.732418 7.735725,7.75078 7.695117,7.762724 7.652886,7.777848 7.611489,7.785103 7.570477,7.791747 7.526646,7.805259 7.486771,7.810961 7.442439,7.819559 7.403166,7.829109 7.358689,7.830734 7.319831,7.832206 7.276149,7.832312 7.236708,7.836793 7.197652,7.838132 7.153973,7.834053 7.106471,7.83912 7.067166,7.842548 7.026051,7.856617 6.987455,7.865243 6.941229,7.883292 6.904093,7.896559 6.857494,7.911483 6.821499,7.92223 6.772492,7.930618 6.737082,7.937499 6.702812,7.937047 6.653867,7.92741 6.617355,7.919977 6.570333,7.913578 6.532244,7.899829 6.486723,7.893675 6.447802,7.888431 6.403563,7.881834 6.363986,7.877162 6.320024,7.866857 6.27864,7.856529 6.236541,7.841504 6.191668,7.82094 6.152456,7.801508 6.106897,7.776363 6.06989,7.754377 6.020326,7.7232 5.988164,7.704913 5.935555,7.665299 5.905367,7.6431 5.876021,7.620435 5.840304,7.591853 5.749961,7.523807 5.732557,7.508117 5.668723,7.436145 5.658528,7.425417 5.592432,7.34693 5.588177,7.341478 5.52655,7.260055 5.525316,7.258559 5.509968,7.223609 5.488167,7.173288 5.487432,7.171239 5.477419,7.089971 5.476291,7.086878 5.456338,7.006778 5.455633,7.002052 5.436205,6.92341 5.433108,6.917166 5.395072,6.840348 5.391911,6.831098 5.363367,6.757496 5.359227,6.746304 5.332061,6.674275 5.328806,6.661046 5.31016,6.591515 5.304344,6.576852 5.271722,6.508296 5.264735,6.491184 5.239575,6.426411 5.230106,6.406799 5.198837,6.342732 5.194632,6.320186 5.182521,6.257783 5.17658,6.233431 5.162191,6.174518 5.139171,6.154602 5.124201,6.096067 5.082114,6.032719 5.076241,6.01129 5.002478,5.984433 4.993489,5.982236 4.918523,5.973023 4.910267,5.97201 4.834962,5.971983 4.827066,5.970088 4.819248,5.971023 4.744246,5.964869 4.668425,5.947658 4.660863,5.945479 4.653232,5.946043 4.57742,5.945154 4.569792,5.946044 4.493762,5.952483 4.485261,5.954358 4.410289,5.969678 4.399993,5.971635 4.327464,5.983359 4.317788,5.984919 4.244934,5.985176 4.235644,5.985314 4.162089,5.988212 4.088404,5.985865 4.079768,5.984179 3.998577,5.955531 3.994439,5.954634 3.914456,5.920626 3.831774,5.908969 3.830005,5.908518 3.774213,5.879818 3.74767,5.865963 3.746812,5.865396 3.663814,5.804876 3.658559,5.801583 3.581757,5.751635 3.573639,5.747284 3.498792,5.69999 3.486648,5.69142 3.418815,5.635801 3.404363,5.610961 3.339079,5.516975 3.316086,5.497558 3.256081,5.418401 3.223643,5.40712 3.17263,5.336403 3.138643,5.326624 3.081488,5.291852 3.043855,5.281172 3.002207,5.257011 2.96718,5.247668 2.917552,5.222147 2.883716,5.208993 2.83351,5.202231 2.796302,5.190159 2.751752,5.187368 2.71558,5.177219 2.670908,5.149657 2.632461,5.129589 2.587847,5.117362 2.513201,5.073696 2.478449,5.01766 2.480269,5.013366 2.478091,4.922756 2.450136,4.8489 2.372308,4.731284 2.361579,4.717022 2.347073,4.69557 2.26724,4.594646 2.203716,4.503092 2.170137,4.463571 2.141245,4.415864 2.088316,4.3244 2.077573,4.297736 2.040664,4.18472 2.039162,4.174747 2.034219,4.147505 2.029074,4.075942 2.019348,4.039633 2.026014,3.984216 2.029534,3.908046 2.031327,3.896606 2.030145,3.886346 2.028897,3.801355 2.039307,3.734991 2.040502,3.723698 2.04245,3.71131 2.053672,3.643717 2.072281,3.580362 2.073654,3.572453 2.074564,3.5625 2.082359,3.488039 2.108762,3.424645 2.109494,3.422975 2.10999,3.421855 2.140952,3.36059 2.156678,3.309442 2.16584,3.29101 2.187666,3.260372 2.210303,3.239841 2.216058,3.229084 2.235813,3.199875 2.278819,3.157971 2.331602,3.125359 2.348731,3.104328 2.356768,3.096823 2.38009,3.074481 2.404915,3.048305 2.413688,3.037904 2.431606,3.029865 2.484296,2.985666 2.525984,2.961071 2.557265,2.939266 2.621294,2.887075 2.626818,2.884711 2.649608,2.870842 2.701534,2.841567 2.713022,2.834717 2.775956,2.799669 2.803575,2.784159 2.849879,2.755427 2.895204,2.729814 2.924393,2.713662 2.989725,2.658628 2.992916,2.656668 3.017436,2.647299 3.066117,2.62734 3.073417,2.62239 3.130559,2.578519 3.173179,2.54209 3.220064,2.525502 3.274087,2.501228 3.334364,2.478485 3.360089,2.463145 3.373857,2.4465 3.395156,2.423109 3.452786,2.398495 3.46855,2.371764 3.525175,2.327582 3.54129,2.295783 3.560493,2.264003 3.606714,2.205333 3.62717,2.167214 3.665901,2.121693 3.691321,2.086358 3.72026,2.050929 3.746376,2.025075 3.7756,1.988278 3.800727,1.961515 3.831462,1.923491 3.854096,1.89671 3.887534,1.859018 3.909014,1.833883 3.943606,1.793633 3.966035,1.772736 3.987549,1.751885 4.027781,1.716056 4.068275,1.679084 4.089473,1.659624 4.11146,1.641955 4.158272,1.609074 4.180872,1.592024 4.25597,1.541948 4.259445,1.539938 4.340303,1.499238 4.342553,1.498187 4.423447,1.474998 4.424774,1.474645 4.476798,1.465033 4.509075,1.459266 4.50991,1.459124 4.591734,1.453482 4.674877,1.454592 4.675131,1.454602 4.701435,1.457528 4.758582,1.463962 4.759138,1.464067 4.842389,1.483956 4.844318,1.484513 4.924479,1.518554 4.927859,1.520465 5.005624,1.564608 5.011536,1.569017 5.091081,1.622457 5.101012,1.628117 5.173823,1.673593 5.187426,1.680163 5.257487,1.70521 5.273278,1.710997 5.340115,1.730019 5.357237,1.735742 5.424042,1.756931 5.443116,1.76002 5.506634,1.776802 5.57295,1.755533 5.591189,1.7487 5.653747,1.681714 5.668138,1.666376 5.69878,1.622643 5.701196,1.619084 5.701825,1.61818 5.749722,1.550446 5.751251,1.548151 5.795788,1.478456 5.799091,1.474234 5.846286,1.411763 5.850767,1.406101 5.8999,1.347006 5.905305,1.338876 5.95002,1.279897 5.956472,1.270548 5.995625,1.207694 6.00321,1.194696 6.040663,1.134411 6.050069,1.120369 6.085228,1.062044 6.096708,1.046527 6.131321,0.990592 6.14332,0.971545 6.176658,0.91826 6.18921,0.895303 6.220415,0.844149 6.235663,0.821562 6.26522,0.77228 6.282188,0.74692 6.316069,0.706106 6.336044,0.682344 6.370989,0.64291 6.406189,0.60753 6.431111,0.58531 6.476673,0.545301 6.508451,0.516208 6.572818,0.478503 6.590446,0.467854 6.63614,0.44639 6.697994,0.425133 6.724482,0.406768 6.742842,0.389402 6.763589,0.376333 6.82608,0.349822 6.838824,0.345508 6.913368,0.320682 6.922518,0.317114 6.998326,0.280423 7.005025,0.278361 7.083212,0.250042 7.088156,0.24852 7.165864,0.235831 7.170399,0.234652 7.249859,0.224637 7.253731,0.224004 7.333066,0.222059 7.337359,0.222006 7.341658,0.222304 7.420609,0.232857 7.425439,0.232989 7.503972,0.250403 7.507845,0.249816 7.587067,0.25595 7.667444,0.229061 7.670457,0.228556 7.752228,0.198557 7.753597,0.198281 7.835685,0.187966 7.836582,0.187926 7.918354,0.185292 7.919616,0.185295 8.001124,0.181808 8.00298,0.181695 8.085831,0.177877" style="fill: white" />
</svg>
