<svg width="12.953712" height="10.039674">
<polygon type="contour" points="1.438811,0.548322 1.513546,0.549889 1.521485,0.551129 1.595873,0.56421 1.602542,0.566778 1.679007,0.592393 1.695144,0.602133 1.734155,0.625978 1.750745,0.633662 1.811413,0.661781 1.827985,0.670699 1.88387,0.70277 1.899247,0.710942 1.955217,0.746066 2.010733,0.783639 2.024572,0.792656 2.075206,0.837692 2.087772,0.848641 2.135719,0.895328 2.147738,0.908507 2.191995,0.963697 2.203546,0.977058 2.245683,1.02952 2.257691,1.044087 2.296877,1.100551 2.307881,1.117933 2.343173,1.179455 2.354887,1.198646 2.387614,1.255519 2.399213,1.277441 2.431329,1.341261 2.443048,1.363812 2.478665,1.416315 2.491155,1.441204 2.527628,1.488542 2.541469,1.511648 2.58157,1.551973 2.599124,1.574411 2.643281,1.611475 2.663149,1.627942 2.710666,1.659073 2.73213,1.674556 2.755704,1.687778 2.806898,1.712901 2.830502,1.724377 2.882526,1.749456 2.90531,1.759264 2.958092,1.786254 2.979572,1.797442 3.03196,1.825784 3.053293,1.837603 3.102309,1.870153 3.150602,1.904056 3.169134,1.91943 3.215012,1.958267 3.232747,1.974003 3.275516,2.015176 3.293114,2.032879 3.334193,2.077995 3.352853,2.092821 3.395254,2.136425 3.413103,2.152682 3.457117,2.192616 3.474425,2.210883 3.517049,2.251001 3.534115,2.270198 3.574412,2.310767 3.591901,2.331334 3.628652,2.379707 3.644599,2.402855 3.653319,2.418206 3.679897,2.466325 3.71866,2.539367 3.730503,2.560975 3.775639,2.659287 3.779118,2.6663 3.820683,2.769515 3.822308,2.773208 3.837059,2.804719 3.871249,2.878015 3.874776,2.886067 3.909647,2.98667 3.946388,3.094132 3.946912,3.095697 3.951343,3.111835 3.976587,3.20734 3.979228,3.22081 3.999112,3.321946 4.00604,3.367523 4.015188,3.438566 4.024053,3.536781 4.025871,3.557355 4.030605,3.600921 4.037157,3.674767 4.03696,3.72173 4.036808,3.797464 4.031776,3.87416 4.028793,3.923445 4.025022,3.977134 4.02111,4.046571 4.012164,4.094499 3.99111,4.186465 3.982772,4.227748 3.976668,4.274756 3.96233,4.333735 3.957396,4.358635 3.940057,4.417303 3.929242,4.457459 3.917608,4.50141 3.889818,4.573644 3.888795,4.577481 3.887197,4.58185 3.885377,4.585751 3.858568,4.656666 3.83438,4.710809 3.828998,4.728379 3.817511,4.758629 3.798067,4.807074 3.781526,4.836518 3.73093,4.929485 3.720892,4.946748 3.708673,4.961057 3.654505,5.030749 3.587422,5.100253 3.516221,5.182884 3.464049,5.221203 3.443128,5.236555 3.377333,5.269731 3.364945,5.27518 3.361812,5.276332 3.283946,5.3025 3.264475,5.311232 3.204346,5.336866 3.16423,5.35564 3.125908,5.373804 3.094989,5.391094 3.046574,5.414317 3.024882,5.425633 2.966357,5.451282 2.944626,5.458933 2.883859,5.483087 2.863416,5.488868 2.801946,5.506124 2.78153,5.511021 2.719548,5.527552 2.699042,5.533721 2.635821,5.547638 2.616263,5.550086 2.553875,5.560194 2.533826,5.566176 2.470476,5.57862 2.450641,5.581706 2.388726,5.587262 2.369515,5.589629 2.306155,5.594898 2.243033,5.597163 2.223733,5.598209 2.160718,5.598156 2.141143,5.597927 2.079484,5.594007 2.059147,5.591446 1.995961,5.579837 1.975442,5.577968 1.91245,5.565381 1.891651,5.561066 1.829814,5.545234 1.808614,5.539637 1.748024,5.530411 1.726368,5.526774 1.664419,5.507363 1.641557,5.500138 1.582111,5.483651 1.55915,5.474408 1.499835,5.444953 1.47517,5.429989 1.417319,5.392289 1.391654,5.378623 1.33623,5.339029 1.309524,5.323873 1.254886,5.286925 1.226745,5.26725 1.171232,5.233686 1.141544,5.210224 1.088109,5.182089 1.056932,5.158239 1.002818,5.117725 0.971507,5.092459 0.945908,5.070739 0.897608,5.031747 0.842417,4.980285 0.813408,4.949733 0.771074,4.902036 0.74544,4.868305 0.695631,4.819983 0.658931,4.782537 0.614298,4.736998 0.578296,4.700373 0.539763,4.657882 0.509748,4.62067 0.47859,4.579777 0.450344,4.539235 0.431267,4.497626 0.411942,4.456561 0.393802,4.415287 0.379064,4.373583 0.36984,4.332765 0.355727,4.290289 0.346774,4.249987 0.331683,4.207333 0.32628,4.167699 0.315857,4.124419 0.307041,4.085298 0.296679,4.041432 0.288214,4.002369 0.278491,3.958157 0.27722,3.920018 0.270682,3.875215 0.26668,3.837298 0.254769,3.791573 0.24996,3.753589 0.243777,3.708654 0.235917,3.670889 0.234322,3.625495 0.233496,3.578986 0.234889,3.542587 0.231794,3.50635 0.232413,3.459309 0.23327,3.423144 0.226504,3.376163 0.222753,3.328849 0.225298,3.292959 0.225315,3.245027 0.2247,3.209635 0.228907,3.161076 0.233008,3.126489 0.242152,3.077041 0.246291,3.043164 0.252361,2.993926 0.258102,2.959778 0.26784,2.909088 0.269448,2.876556 0.276686,2.827057 0.280568,2.793589 0.290156,2.742982 0.294627,2.710307 0.306344,2.65998 0.313153,2.627063 0.320549,2.577295 0.327924,2.544188 0.34002,2.494174 0.347045,2.46103 0.361611,2.409636 0.367317,2.377504 0.374686,2.326436 0.375745,2.294524 0.385734,2.242947 0.386394,2.211255 0.392499,2.159723 0.392819,2.1282 0.39347,2.076498 0.392532,2.045024 0.390336,2.013775 0.390175,1.961774 0.38796,1.930884 0.383842,1.878563 0.383513,1.826151 0.382655,1.795449 0.384045,1.743086 0.386558,1.712454 0.388933,1.660377 0.397077,1.616948 0.40303,1.58243 0.41521,1.541488 0.431041,1.492913 0.446763,1.459321 0.468413,1.412765 0.483573,1.381091 0.508071,1.333845 0.523104,1.303455 0.548408,1.257481 0.563682,1.230912 0.587017,1.177327 0.601204,1.15005 0.627536,1.099017 0.642242,1.074767 0.67124,1.025487 0.686886,1.004555 0.720504,0.95731 0.736811,0.939908 0.774956,0.893562 0.817956,0.849658 0.834877,0.835026 0.88331,0.794628 0.899466,0.781608 0.949555,0.741254 0.964991,0.729017 1.019715,0.689345 1.034364,0.679017 1.085459,0.646242 1.101301,0.63682 1.174872,0.603648 1.181618,0.600463 1.256491,0.571259 1.264034,0.569001 1.340608,0.553979 1.34779,0.552551 1.354928,0.552124 1.430316,0.547611" style="fill: white" />
</svg>
