<svg width="12.953712" height="10.039674">
<polygon type="contour" points="5.934561,0.391586 5.959647,0.392945 6.02716,0.405966 6.047286,0.409364 6.118101,0.427709 6.132266,0.432606 6.200843,0.454429 6.213603,0.459052 6.288252,0.480203 6.29834,0.483644 6.370698,0.51271 6.378846,0.515163 6.447765,0.547514 6.454493,0.549941 6.529641,0.579234 6.534131,0.58125 6.611218,0.609158 6.614322,0.610232 6.698913,0.634892 6.698917,0.634892 6.699133,0.634958 6.780822,0.659724 6.782728,0.660331 6.860104,0.692833 6.864371,0.69435 6.939933,0.723419 6.9463,0.725716 7.019845,0.753534 7.094513,0.771782 7.117145,0.779148 7.189818,0.800943 7.205162,0.803615 7.271467,0.826935 7.288077,0.83198 7.355885,0.850064 7.376715,0.857726 7.44209,0.873029 7.464986,0.880611 7.52611,0.89951 7.552002,0.905375 7.607691,0.923974 7.635791,0.934676 7.692215,0.950377 7.722395,0.959744 7.773021,0.977841 7.802946,0.986079 7.846211,0.998004 7.888273,1.00613 7.931254,1.016016 7.973188,1.024695 8.0166,1.032619 8.078701,1.04931 8.119661,1.059883 8.170985,1.067664 8.192168,1.071198 8.210769,1.074126 8.266626,1.08046 8.303895,1.085146 8.364204,1.093651 8.395162,1.097146 8.424627,1.100356 8.520352,1.114532 8.551103,1.119434 8.656027,1.135621 8.672989,1.137858 8.751249,1.152095 8.764378,1.153481 8.84708,1.167945 8.855004,1.169181 8.942139,1.181796 8.945857,1.182364 9.024207,1.194802 9.036711,1.196739 9.037286,1.196849 9.127353,1.21167 9.134498,1.213898 9.21778,1.232352 9.284878,1.257753 9.297182,1.263036 9.368678,1.295106 9.379787,1.303818 9.440201,1.343418 9.502633,1.378379 9.521566,1.393895 9.545825,1.407008 9.596109,1.43639 9.636166,1.467974 9.65651,1.498204 9.679124,1.542752 9.708625,1.601783 9.727876,1.627685 9.76968,1.69594 9.77615,1.704557 9.805838,1.77677 9.812519,1.788943 9.83923,1.861383 9.842151,1.871494 9.874458,1.948758 9.876228,1.955499 9.897054,2.031802 9.899989,2.038221 9.923027,2.113381 9.925957,2.120097 9.942715,2.15544 9.965566,2.21033 9.97714,2.23885 10.038222,2.347276 10.040672,2.35319 10.050581,2.36562 10.108846,2.443725 10.142157,2.478079 10.177366,2.51729 10.216984,2.546854 10.248348,2.57259 10.285551,2.600089 10.321069,2.637329 10.358239,2.663636 10.391979,2.695154 10.44081,2.72019 10.466468,2.734066 10.479981,2.739619 10.541769,2.762689 10.586931,2.779608 10.617588,2.788799 10.68757,2.820135 10.691937,2.82281 10.694711,2.824277 10.766415,2.869551 10.821597,2.909962 10.837996,2.920235 10.858702,2.936874 10.909037,2.977894 10.964439,3.03877 10.977299,3.051441 10.986155,3.062578 11.043503,3.136285 11.087937,3.193307 11.108913,3.225673 11.161694,3.330369 11.16862,3.347545 11.217131,3.440289 11.229376,3.464566 11.231252,3.468283 11.240345,3.497987 11.277411,3.610924 11.279649,3.637808 11.294773,3.759856 11.302109,3.882567 11.306168,3.912794 11.306332,3.96173 11.307391,4.071234 11.307205,4.123163 11.307623,4.224881 11.301325,4.261162 11.290136,4.312994 11.278077,4.36955 11.26284,4.420125 11.223581,4.514549 11.212861,4.540036 11.190556,4.58083 11.17552,4.605607 11.125519,4.668942 11.089085,4.712966 11.059111,4.747445 11.039146,4.770372 10.982194,4.809247 10.941316,4.833656 10.878457,4.893808 10.874494,4.896994 10.874238,4.897217 10.796113,4.940387 10.766827,4.949623 10.738123,4.960386 10.659287,4.983488 10.639941,5.00215 10.619466,5.01168 10.575252,5.018037 10.534491,5.040343 10.491796,5.049227 10.451383,5.062952 10.409339,5.074116 10.366428,5.085605 10.293729,5.101118 10.246238,5.111618 10.216205,5.123392 10.162746,5.140859 10.123496,5.155236 10.078303,5.174202 10.035302,5.192195 9.994988,5.20814 9.95093,5.206826 9.859366,5.281888 9.834416,5.294424 9.753726,5.362528 9.732624,5.38269 9.706405,5.447765 9.690335,5.473839 9.664392,5.532533 9.655534,5.560503 9.646364,5.615183 9.635908,5.643237 9.61588,5.698916 9.605344,5.731908 9.594578,5.782156 9.582782,5.817546 9.573639,5.864962 9.567975,5.899211 9.558325,5.947942 9.55115,5.985551 9.545212,6.031524 9.539995,6.069253 9.529716,6.11483 9.520573,6.154846 9.506282,6.198736 9.495208,6.240286 9.482479,6.281385 9.467994,6.325022 9.451486,6.36626 9.424095,6.414303 9.401243,6.449521 9.36821,6.497376 9.338786,6.532628 9.287274,6.588054 9.258077,6.615663 9.198011,6.658985 9.130857,6.697387 9.097274,6.714725 9.077375,6.722696 9.008973,6.749642 8.992522,6.75448 8.927312,6.775401 8.910592,6.779539 8.84349,6.797536 8.827878,6.79944 8.758186,6.81503 8.743933,6.816493 8.674131,6.8241 8.660759,6.824284 8.590812,6.833924 8.577617,6.83524 8.506115,6.851878 8.494105,6.853999 8.421589,6.872707 8.411015,6.873501 8.400418,6.875818 8.327065,6.890444 8.317563,6.892338 8.244247,6.903735 8.235302,6.904364 8.161016,6.923338 8.153304,6.925761 8.078165,6.939141 8.071146,6.940111 7.994472,6.954899 7.988448,6.956172 7.911268,6.965638 7.833237,6.974491 7.828079,6.97543 7.749435,6.988312 7.744981,6.989296 7.665726,7.000162 7.661945,7.000767 7.582165,7.010858 7.578795,7.011338 7.498378,7.021211 7.495563,7.021629 7.414624,7.030702 7.412301,7.031136 7.329207,7.033759 7.247009,7.049966 7.245881,7.050087 7.164501,7.053645 7.162922,7.053839 7.080321,7.062036 7.07934,7.062154 6.996942,7.073577 6.996321,7.073616 6.912946,7.082544 6.912859,7.082553 6.902237,7.083643 6.828922,7.091057 6.746306,7.114722 6.744718,7.115056 6.663398,7.136135 6.58378,7.154396 6.578232,7.155986 6.573632,7.1573 6.492526,7.179815 6.488066,7.181094 6.413742,7.199432 6.407118,7.20121 6.328918,7.223262 6.320065,7.22533 6.246903,7.239423 6.237815,7.241868 6.163888,7.261763 6.15397,7.263798 6.08033,7.278385 6.068709,7.280641 5.996894,7.288127 5.985005,7.289706 5.914116,7.300065 5.901563,7.302563 5.830732,7.311304 5.818099,7.312034 5.748191,7.316199 5.689222,7.324982 5.654957,7.331622 5.595509,7.339243 5.570776,7.343698 5.518233,7.353836 5.487063,7.360776 5.447719,7.37068 5.404151,7.380671 5.345824,7.393594 5.324624,7.398428 5.267951,7.411031 5.240408,7.415697 5.188521,7.413234 5.155191,7.414116 5.101534,7.408005 5.070777,7.404459 5.024338,7.39618 4.963001,7.378537 4.905291,7.36129 4.867227,7.349972 4.759735,7.311133 4.748553,7.307537 4.671052,7.265891 4.665186,7.263213 4.653981,7.257285 4.581719,7.209883 4.565498,7.19867 4.517517,7.164568 4.508816,7.157418 4.413598,7.088255 4.404312,7.081449 4.403593,7.080819 4.348353,7.004563 4.344311,6.998967 4.317705,6.919866 4.316185,6.912781 4.277837,6.826971 4.189479,6.760496 4.172849,6.746532 4.14829,6.682385 4.140209,6.662781 4.115939,6.602065 4.109302,6.580158 4.101396,6.520681 4.09792,6.496794 4.097797,6.438073 4.094773,6.413668 4.079335,6.356266 4.068673,6.330338 4.034204,6.275712 4.022776,6.246644 4.008972,6.194921 4.000634,6.163582 3.987725,6.11305 3.97893,6.080037 3.968556,6.02855 3.959452,5.994559 3.924438,5.896322 3.846079,5.883221 3.838062,5.881628 3.766072,5.86208 3.754885,5.860057 3.687285,5.851618 3.673647,5.849029 3.604141,5.84249 3.589805,5.840486 3.520395,5.835819 3.505655,5.833395 3.438987,5.814834 3.42321,5.809519 3.360523,5.788352 3.3415,5.781237 3.278637,5.751079 3.257776,5.741493 3.198352,5.718394 3.174249,5.709411 3.117008,5.687147 3.090618,5.677602 3.037663,5.659362 3.009309,5.650308 2.957461,5.6356 2.926251,5.624165 2.87535,5.605363 2.843702,5.600469 2.808051,5.582612 2.759647,5.563252 2.7145,5.548634 2.677886,5.537616 2.635308,5.524533 2.595075,5.509119 2.552536,5.49127 2.510942,5.474794 2.473156,5.45806 2.429531,5.440205 2.394145,5.426644 2.347309,5.401914 2.315239,5.377032 2.265951,5.325553 2.244002,5.295955 2.166428,5.078822 2.150694,5.031857 2.102726,5.003873 2.09248,4.997056 2.031689,4.924681 2.021514,4.899794 1.990707,4.844377 1.977446,4.783082 1.972231,4.747553 1.965511,4.712575 1.937125,4.624682 1.939359,4.617531 1.972008,4.541669 1.953216,4.49973 1.886246,4.35819 1.88823,4.342917 1.905232,4.273936 1.912184,4.254015 1.950268,4.203928 1.965376,4.18723 1.981327,4.170906 2.029693,4.132347 2.048193,4.117624 2.093639,4.077467 2.110694,4.061455 2.157118,4.024271 2.173646,4.007169 2.217061,3.967172 2.244872,3.918743 2.254504,3.892388 2.280305,3.839111 2.293861,3.808667 2.329843,3.769865 2.352559,3.747576 2.373787,3.724387 2.407152,3.685787 2.434827,3.665766 2.47367,3.634598 2.501069,3.614124 2.544293,3.587432 2.574714,3.570917 2.613697,3.539122 2.634765,3.511279 2.67337,3.481048 2.705857,3.444876 2.731558,3.421865 2.754616,3.394388 2.795687,3.367619 2.825012,3.330174 2.846933,3.300492 2.885595,3.284057 2.917663,3.244902 2.91465,3.198641 2.914472,3.168456 2.889409,3.128025 2.86845,3.085311 2.833457,3.049533 2.760983,2.948954 2.732747,2.919027 2.683858,2.859693 2.666895,2.835882 2.620811,2.771332 2.605435,2.752665 2.540931,2.699551 2.540369,2.698796 2.539391,2.696136 2.450411,2.551302 2.420036,2.486434 2.403539,2.425266 2.391507,2.365877 2.391991,2.310447 2.39749,2.25875 2.397155,2.21131 2.394365,2.142416 2.379098,2.09311 2.36431,2.001412 2.365186,1.979725 2.373839,1.896975 2.377125,1.884951 2.396438,1.80088 2.398465,1.794473 2.435133,1.721993 2.43568,1.720667 2.449185,1.695399 2.475061,1.646316 2.476267,1.644054 2.520211,1.570368 2.52142,1.568241 2.557535,1.498004 2.560391,1.491905 2.592178,1.419853 2.597393,1.41123 2.636062,1.349744 2.643794,1.339862 2.653701,1.331664 2.700969,1.279874 2.711725,1.270078 2.769398,1.230308 2.779673,1.219609 2.830072,1.17393 2.842172,1.163643 2.889485,1.115406 2.903283,1.105681 2.95501,1.063297 2.972305,1.056229 3.033407,1.019728 3.106581,0.996695 3.122411,0.992016 3.162976,0.985717 3.224445,0.978568 3.257726,0.975411 3.290336,0.975586 3.353493,0.972603 3.38247,0.976461 3.445724,0.982313 3.471302,0.987487 3.53014,1.004483 3.591445,1.026645 3.611048,1.032673 3.62822,1.040923 3.689084,1.067636 3.704879,1.075602 3.768201,1.099175 3.783082,1.105498 3.848389,1.129594 3.862539,1.133677 3.938797,1.147498 3.949742,1.14931 4.025835,1.16625 4.033874,1.167908 4.111309,1.190932 4.115856,1.192943 4.191952,1.21944 4.194681,1.220225 4.27363,1.244813 4.274296,1.245053 4.284664,1.249064 4.351989,1.275098 4.352783,1.275638 4.455058,1.316021 4.604287,1.385822 4.650996,1.334721 4.68978,1.269957 4.69414,1.263882 4.699479,1.25806 4.747954,1.202916 4.754002,1.195412 4.793873,1.131591 4.802299,1.122909 4.849793,1.070953 4.858191,1.060009 4.909977,1.013074 4.918107,0.99991 4.949659,0.935406 4.960768,0.919804 4.995372,0.863025 5.008067,0.845776 5.041808,0.791027 5.055837,0.770448 5.094489,0.724962 5.137132,0.686313 5.157174,0.669052 5.210244,0.641902 5.23504,0.629979 5.289594,0.602347 5.311324,0.58772 5.329508,0.56919 5.371293,0.530455 5.41302,0.4902 5.431804,0.470686 5.481747,0.440627 5.505793,0.42624 5.568768,0.408108 5.596794,0.40251 5.672237,0.392867 5.700384,0.389309 5.724694,0.385793 5.778297,0.380766 5.829299,0.381533 5.862658,0.380258" style="fill: white" />
</svg>
