<svg width="12.953712" height="10.039674">
<polygon type="contour" points="3.760001,4.191672 3.842406,4.200609 3.844197,4.200578 3.921166,4.218649 3.925188,4.219161 4.006731,4.244783 4.009848,4.245556 4.088047,4.288131 4.092186,4.289501 4.128568,4.309302 4.140567,4.316301 4.141673,4.317297 4.204299,4.371318 4.205222,4.372286 4.263371,4.432424 4.264262,4.433364 4.320823,4.496972 4.322905,4.498072 4.378513,4.56333 4.435733,4.618113 4.506913,4.661296 4.512034,4.659735 4.588781,4.688726 4.592852,4.688608 4.67229,4.707147 4.678836,4.708064 4.761372,4.712801 4.772461,4.715589 4.892766,4.680149 4.899045,4.682737 5.010057,4.667154 5.01383,4.668683 5.095159,4.686224 5.099981,4.688773 5.174752,4.713614 5.180974,4.716533 5.259761,4.737492 5.265778,4.740646 5.271891,4.743786 5.345625,4.771005 5.352931,4.774805 5.42282,4.802455 5.432611,4.807853 5.501122,4.836146 5.510323,4.841737 5.576036,4.872758 5.586093,4.879106 5.650774,4.910393 5.662373,4.9172 5.724825,4.949282 5.783094,4.98564 5.794886,4.994621 5.848069,5.03524 5.860899,5.044757 5.899151,5.063717 5.927405,5.080091 5.974339,5.11678 6.000818,5.137922 6.02225,5.155511 6.05783,5.194477 6.114415,5.23783 6.123649,5.249947 6.172929,5.300457 6.182397,5.311563 6.233333,5.358395 6.240018,5.374504 6.284923,5.424264 6.295468,5.438732 6.340306,5.486971 6.346334,5.50686 6.380802,5.568383 6.382596,5.595566 6.383421,5.643337 6.390711,5.683618 6.376129,5.740893 6.373969,5.747178 6.314504,5.778207 6.298306,5.784648 6.281639,5.792646 6.225628,5.826613 6.170789,5.838922 6.140773,5.851748 6.098879,5.861075 6.05837,5.87997 6.026822,5.884525 5.971398,5.902107 5.952708,5.903252 5.878454,5.916314 5.876986,5.916482 5.869572,5.917996 5.800559,5.930129 5.788196,5.934541 5.725801,5.946856 5.697949,5.952273 5.647608,5.955438 5.60352,5.964785 5.571273,5.966896 5.506924,5.97461 5.491523,5.974349 5.433873,5.980233 5.413908,5.981537 5.408929,5.981924 5.336087,5.982675 5.310305,5.984674 5.239448,5.977686 5.208335,5.973711 5.201642,5.972756 5.124902,5.965214 5.117319,5.964137 5.042404,5.960091 5.035643,5.959497 4.959284,5.94853 4.952573,5.947011 4.875308,5.932986 4.866397,5.931122 4.792391,5.920464 4.784181,5.918397 4.709625,5.899616 4.699786,5.893835 4.626039,5.874779 4.616445,5.871096 4.539832,5.832068 4.528093,5.826015 4.457476,5.796837 4.445664,5.790895 4.373419,5.757223 4.360326,5.749125 4.290338,5.720666 4.277543,5.714108 4.206404,5.679791 4.192945,5.671098 4.123264,5.635328 4.109555,5.62657 4.040074,5.581681 3.971833,5.538243 3.956715,5.527137 3.890035,5.482144 3.874769,5.472034 3.806995,5.420266 3.787951,5.403375 3.717155,5.347523 3.680358,5.31676 3.627605,5.272713 3.572508,5.224307 3.547254,5.200111 3.536138,5.188234 3.510188,5.163843 3.47358,5.128675 3.455512,5.111339 3.395093,5.049428 3.333448,4.981441 3.312264,4.958614 3.269561,4.903409 3.251403,4.88119 3.216359,4.819545 3.197754,4.763704 3.165902,4.720693 3.152414,4.693196 3.136562,4.636373 3.134164,4.608793 3.139787,4.553366 3.148164,4.497764 3.152641,4.479889 3.186208,4.4199 3.233869,4.35632 3.240352,4.348587 3.245855,4.34434 3.322461,4.286559 3.352628,4.272204 3.409713,4.242759 3.449526,4.231607 3.507421,4.213353 3.590773,4.199364 3.592892,4.198806 3.593457,4.198685 3.67665,4.187704 3.68044,4.187089" style="fill: white" /><polygon type="contour" points="2.001985,5.415109 2.023581,5.423165 2.039451,5.430333 2.123789,5.491888 2.190723,5.567388 2.203382,5.583346 2.209797,5.592619 2.268418,5.679754 2.290489,5.722286 2.323385,5.779464 2.357214,5.843335 2.378799,5.879539 2.420746,5.963554 2.429674,5.981173 2.470589,6.073803 2.475743,6.084182 2.515255,6.168393 2.523881,6.186574 2.524693,6.188728 2.572381,6.288846 2.610366,6.368474 2.616541,6.387448 2.621455,6.404149 2.63105,6.438727 2.644968,6.486441 2.654809,6.52009 2.678977,6.572073 2.687707,6.60468 2.69334,6.652732 2.698942,6.686718 2.714762,6.738319 2.719152,6.771176 2.721301,6.82079 2.724822,6.854097 2.733143,6.904007 2.733367,6.937236 2.738091,6.987908 2.738801,7.020765 2.744469,7.071572 2.747978,7.104099 2.744924,7.136452 2.74631,7.187007 2.752572,7.237845 2.756618,7.270436 2.756741,7.303002 2.756847,7.353579 2.755977,7.386045 2.755667,7.436928 2.756127,7.469267 2.757059,7.520172 2.761544,7.57122 2.75753,7.603365 2.752687,7.654552 2.748975,7.686814 2.742411,7.738237 2.73787,7.770101 2.735796,7.821532 2.731557,7.853263 2.721243,7.905834 2.714198,7.937974 2.711754,7.969445 2.70904,8.020286 2.702601,8.072462 2.695553,8.103365 2.688506,8.156565 2.68443,8.186964 2.676758,8.239966 2.671615,8.269704 2.663469,8.32314 2.658975,8.352771 2.652003,8.406715 2.647923,8.435977 2.646949,8.490099 2.643018,8.519253 2.630527,8.574735 2.625997,8.602704 2.617723,8.657476 2.611724,8.685717 2.609392,8.741 2.605161,8.7685 2.598557,8.824669 2.594942,8.851593 2.588938,8.908312 2.587721,8.934387 2.585689,8.982184 2.585955,9.029986 2.583826,9.077993 2.580026,9.119358 2.576,9.175995 2.575728,9.271861 2.575854,9.303083 2.575341,9.3365 2.57265,9.4091 2.570875,9.467367 2.553325,9.497511 2.536548,9.555471 2.487962,9.577769 2.457668,9.584757 2.374678,9.584655 2.364752,9.584033 2.296788,9.560788 2.291407,9.559828 2.218304,9.470814 2.208899,9.464198 2.181752,9.384506 2.178587,9.380655 2.158559,9.307059 2.154777,9.298545 2.130522,9.22317 2.1276,9.213604 2.102909,9.139543 2.100617,9.129754 2.098376,9.119815 2.081819,9.046236 2.072061,8.973572 2.0699,8.963117 2.046323,8.889775 2.043896,8.879187 2.033138,8.807622 2.030757,8.79669 2.013988,8.724449 2.011525,8.713281 1.994698,8.641364 1.993236,8.629984 1.9903,8.618541 1.967101,8.546197 1.964058,8.534307 1.952188,8.463717 1.950383,8.45178 1.933524,8.380544 1.930787,8.368149 1.913731,8.297381 1.910962,8.284606 1.894175,8.214116 1.891322,8.201142 1.87486,8.130743 1.872935,8.117623 1.856569,8.047549 1.853676,8.033969 1.837818,7.964118 1.834725,7.949899 1.817814,7.881041 1.81564,7.866958 1.806314,7.798097 1.803007,7.783658 1.781239,7.714345 1.779448,7.699141 1.763288,7.63086 1.759977,7.615133 1.741311,7.548329 1.739002,7.533243 1.721402,7.465617 1.717847,7.450602 1.693624,7.382353 1.689487,7.36736 1.664384,7.299744 1.659417,7.284428 1.633715,7.21678 1.630081,7.202246 1.584809,7.132837 1.578193,7.117096 1.526653,7.048776 1.518007,7.031821 1.47167,6.965778 1.456551,6.94708 1.427775,6.882342 1.413653,6.863595 1.398785,6.798468 1.389473,6.780232 1.3812,6.71609 1.376368,6.697169 1.384944,6.632962 1.382773,6.614366 1.389717,6.54963 1.391254,6.530683 1.399415,6.466307 1.401268,6.446707 1.409232,6.382991 1.4114,6.362763 1.423209,6.299224 1.425453,6.278194 1.439018,6.215575 1.440367,6.197083 1.447288,6.156169 1.459524,6.090031 1.468149,6.064781 1.480133,5.99327 1.487857,5.968632 1.506122,5.904853 1.517221,5.885637 1.541827,5.822749 1.553962,5.804997 1.574945,5.742434 1.607192,5.688875 1.62081,5.663313 1.637126,5.641364 1.676722,5.593949 1.755951,5.500573 1.756109,5.500418 1.756534,5.500103 1.834615,5.434101 1.869037,5.409008 1.924049,5.396584 1.956157,5.393219" style="fill: white" />
</svg>
