<svg width="12.953712" height="10.039674">
<polygon type="contour" points="1.788083,0.838248 1.816053,0.839986 1.868796,0.835708 1.911167,0.846496 1.946511,0.860413 2.009474,0.892813 2.01942,0.898925 2.027071,0.904144 2.106998,0.971054 2.134103,1.017257 2.152801,1.046706 2.199884,1.103439 2.217898,1.120945 2.238185,1.152983 2.26835,1.199933 2.300854,1.262917 2.31224,1.284669 2.347884,1.357669 2.366882,1.405137 2.38535,1.456389 2.386582,1.459373 2.42614,1.540834 2.427311,1.542927 2.466876,1.642612 2.522892,1.699462 2.527583,1.706315 2.586147,1.75398 2.591788,1.761383 2.658001,1.796268 2.664102,1.801856 2.748364,1.843416 2.760933,1.848704 2.845042,1.872311 2.927201,1.88234 3.011739,1.89002 3.094592,1.895041 3.094645,1.895041 3.113307,1.897325 3.177871,1.905082 3.229273,1.904611 3.260961,1.904248 3.261078,1.904249 3.343636,1.910019 3.427305,1.9098 3.508852,1.903389 3.509652,1.903244 3.510443,1.90321 3.59335,1.902585 3.634728,1.905228 3.675683,1.90789 3.676646,1.907956 3.69602,1.910035 3.759753,1.91615 3.762946,1.91603 3.842636,1.914797 3.924425,1.910757 3.926208,1.910657 3.928014,1.910673 4.009236,1.916402 4.012459,1.916518 4.09253,1.917452 4.095353,1.917581 4.175821,1.915831 4.179169,1.915795 4.258994,1.914092 4.263002,1.91482 4.34515,1.922193 4.425801,1.922519 4.426713,1.922699 4.50951,1.928323 4.511646,1.92865 4.593044,1.935489 4.596211,1.935999 4.675945,1.949762 4.677507,1.950052 4.75709,1.97032 4.826261,1.982011 4.841724,1.984624 4.924375,1.985753 4.949335,1.984301 5.006694,1.980892 5.088582,1.97019 5.170857,1.949488 5.172821,1.949262 5.254087,1.939433 5.256131,1.939089 5.338726,1.931949 5.339769,1.931845 5.423435,1.923895 5.502608,1.907085 5.505679,1.906335 5.587049,1.890127 5.589306,1.889563 5.673187,1.874441 5.754904,1.83657 5.829726,1.780216 5.83717,1.775421 5.909942,1.724781 5.919677,1.720264 5.993891,1.685166 6.00443,1.681777 6.079843,1.657762 6.08917,1.655379 6.160588,1.64251 6.171738,1.639898 6.246274,1.617487 6.256303,1.615163 6.3265,1.600972 6.338456,1.5991 6.410855,1.592621 6.422401,1.589948 6.494288,1.573003 6.50596,1.569979 6.575093,1.548614 6.58873,1.544309 6.659245,1.520111 6.672328,1.516979 6.741677,1.500334 6.755849,1.497196 6.822308,1.483824 6.838276,1.480316 6.908136,1.460704 6.92293,1.457593 6.989755,1.44609 7.005876,1.443097 7.072552,1.42663 7.088432,1.423659 7.153565,1.42121 7.171318,1.41963 7.237655,1.42194 7.254568,1.421262 7.271252,1.424018 7.337891,1.428217 7.405221,1.419711 7.421241,1.418427 7.48662,1.405638 7.504495,1.403818 7.570747,1.396378 7.587422,1.395662 7.653275,1.39049 7.670703,1.390492 7.735934,1.3825 7.753599,1.382771 7.771359,1.382418 7.836409,1.382281 7.853921,1.381188 7.919195,1.384623 7.93781,1.386158 8.002253,1.39539 8.020043,1.397946 8.085017,1.415008 8.101997,1.419423 8.167893,1.437044 8.184084,1.442638 8.250599,1.453425 8.265814,1.457648 8.333552,1.474253 8.402119,1.493717 8.415857,1.499052 8.452346,1.512793 8.480265,1.524484 8.491471,1.528537 8.560565,1.554391 8.570754,1.558412 8.615478,1.575323 8.665985,1.59725 8.675706,1.600204 8.751531,1.629811 8.761582,1.631033 8.834549,1.651584 8.843274,1.651628 8.917647,1.662089 8.993417,1.66415 9.000877,1.663148 9.008428,1.662917 9.083748,1.663508 9.090949,1.664507 9.167844,1.679824 9.175472,1.682218 9.250217,1.705601 9.25572,1.706958 9.332734,1.736259 9.337227,1.7377 9.422696,1.768481 9.499917,1.779214 9.503588,1.780269 9.590744,1.801679 9.595136,1.802525 9.672716,1.828406 9.683954,1.830972 9.755571,1.869642 9.824784,1.900173 9.834098,1.903648 9.904504,1.927952 9.91519,1.931846 9.980219,1.959667 9.991769,1.96608 10.057953,1.992471 10.070808,1.998726 10.133202,2.027527 10.146131,2.035314 10.20646,2.067061 10.219789,2.075448 10.232257,2.085032 10.287735,2.123727 10.299042,2.13517 10.348871,2.181708 10.359228,2.191941 10.408002,2.243035 10.417692,2.255221 10.463374,2.309117 10.471997,2.320547 10.515143,2.380948 10.522937,2.391729 10.564895,2.457668 10.583346,2.483226 10.58789,2.489947 10.603794,2.514657 10.649449,2.585458 10.666619,2.610379 10.710819,2.681436 10.733967,2.732022 10.758538,2.782373 10.774995,2.828176 10.794962,2.887262 10.809002,2.949893 10.819858,2.996817 10.837776,3.084568 10.842516,3.107535 10.850693,3.173993 10.856132,3.221377 10.858257,3.241373 10.871261,3.33435 10.877223,3.398437 10.881918,3.44961 10.882607,3.531616 10.882856,3.568958 10.883886,3.594105 10.887739,3.68532 10.889004,3.790839 10.889565,3.804278 10.890593,3.826383 10.896717,3.92052 10.893515,3.993277 10.892144,4.042603 10.890112,4.092935 10.888231,4.163324 10.886234,4.225286 10.88493,4.283316 10.88375,4.351427 10.882228,4.403793 10.874386,4.473288 10.868477,4.529753 10.861741,4.559222 10.838953,4.66057 10.820873,4.720279 10.803314,4.792136 10.775645,4.87112 10.754418,4.932344 10.728902,5.018126 10.713157,5.060348 10.67583,5.153795 10.674696,5.156133 10.673358,5.159542 10.643391,5.228641 10.619618,5.279761 10.609196,5.298638 10.593795,5.327417 10.572249,5.364764 10.558569,5.385497 10.530695,5.423393 10.493771,5.481277 10.489949,5.486262 10.480377,5.495759 10.438238,5.532236 10.422893,5.548826 10.388254,5.581191 10.351847,5.615099 10.335576,5.626275 10.285448,5.662434 10.277284,5.667859 10.21782,5.699644 10.200535,5.710344 10.157104,5.734966 10.122453,5.751459 10.065384,5.786 10.045716,5.798038 10.00594,5.828842 9.972251,5.851552 9.957274,5.861827 9.898156,5.909276 9.847647,5.940163 9.822653,5.958004 9.761376,5.995561 9.746528,6.004877 9.740143,6.009563 9.671185,6.056722 9.632699,6.078255 9.594058,6.09949 9.53184,6.127225 9.515326,6.135893 9.457006,6.161346 9.435718,6.169949 9.430404,6.171852 9.354743,6.197444 9.332447,6.207061 9.273934,6.226188 9.233082,6.246686 9.194978,6.262632 9.128857,6.300303 9.117502,6.305474 9.109986,6.308464 9.078887,6.324505 9.039057,6.342425 9.02901,6.346566 8.958893,6.372619 8.907853,6.389227 8.877751,6.40077 8.832924,6.418643 8.797072,6.428888 8.773217,6.439714 8.716245,6.456111 8.701051,6.46036 8.633855,6.479635 8.628879,6.48162 8.584886,6.492056 8.551471,6.499119 8.546316,6.500087 8.469268,6.513805 8.454243,6.517066 8.386698,6.534568 8.333946,6.546478 8.30077,6.551448 8.247072,6.560455 8.220756,6.563151 8.187938,6.563464 8.136746,6.565101 8.103322,6.564284 8.0521,6.560897 8.019279,6.556426 7.969174,6.554537 7.939395,6.548037 7.877501,6.532803 7.862905,6.531643 7.765346,6.506525 7.758352,6.507823 7.68194,6.506517 7.674063,6.50984 7.662423,6.513573 7.58958,6.527736 7.568121,6.533753 7.507881,6.55099 7.474618,6.554962 7.422846,6.562973 7.384126,6.565462 7.337767,6.569849 7.295365,6.566398 7.245683,6.561433 7.209736,6.554132 7.153886,6.54446 7.076012,6.518238 7.057887,6.510425 7.011524,6.487965 6.970678,6.463339 6.95757,6.460525 6.939507,6.455761 6.861018,6.425389 6.824728,6.420538 6.769812,6.412956 6.733939,6.416293 6.68261,6.419768 6.652682,6.426832 6.60166,6.442588 6.582714,6.447977 6.519097,6.465986 6.510855,6.469074 6.436725,6.485865 6.436496,6.485869 6.347578,6.485177 6.346041,6.48497 6.25407,6.467063 6.241749,6.464058 6.160299,6.445956 6.132349,6.43703 6.068506,6.422994 6.027767,6.411785 5.974003,6.399316 5.911105,6.375142 5.877924,6.366197 5.854095,6.358737 5.780681,6.326173 5.775542,6.324538 5.736681,6.31541 5.684459,6.30463 5.600477,6.314063 5.595861,6.315142 5.525938,6.331178 5.517339,6.331103 5.449678,6.345569 5.433386,6.345406 5.366834,6.35312 5.346736,6.353186 5.282131,6.355446 5.260134,6.35647 5.189533,6.352292 5.170423,6.353461 5.101793,6.351128 5.082824,6.352968 5.015171,6.353399 4.994987,6.355136 4.933009,6.359426 4.910184,6.363357 4.848332,6.363088 4.821744,6.363049 4.759511,6.361949 4.73335,6.361729 4.670335,6.359992 4.645036,6.359272 4.567122,6.339886 4.551789,6.336855 4.466856,6.321453 4.46088,6.32028 4.415984,6.310258 4.366977,6.300433 4.36103,6.29948 4.273499,6.28111 4.258341,6.281263 4.182766,6.276155 4.164593,6.276059 4.096725,6.279586 4.08075,6.27936 4.010777,6.283349 3.998446,6.283846 3.92498,6.295384 3.918346,6.296309 3.857739,6.30859 3.843265,6.311587 3.841767,6.312009 3.768871,6.327166 3.758629,6.327823 3.686872,6.334821 3.671563,6.335773 3.591365,6.328035 3.581652,6.327183 3.501785,6.320124 3.494649,6.319168 3.404044,6.306508 3.398593,6.305767 3.393749,6.304854 3.310659,6.288991 3.303867,6.287441 3.22657,6.270861 3.219976,6.269524 3.1429,6.250439 3.136813,6.248168 3.060901,6.22379 3.056915,6.221948 2.9773,6.191537 2.974533,6.19041 2.893751,6.159482 2.892119,6.158858 2.808843,6.120375 2.807423,6.119732 2.747124,6.094746 2.726331,6.086062 2.646627,6.044212 2.642356,6.041989 2.568657,6.002177 2.559107,5.996979 2.480771,5.946701 2.47625,5.944177 2.403762,5.90109 2.394976,5.896215 2.321736,5.850285 2.311073,5.843515 2.239442,5.806855 2.22757,5.800516 2.158897,5.76363 2.145018,5.755997 2.077374,5.720754 2.061332,5.711342 1.99468,5.677383 1.977828,5.669995 1.912486,5.629366 1.894161,5.619039 1.834237,5.583262 1.812809,5.568679 1.753716,5.52916 1.729184,5.511228 1.650484,5.451361 1.642401,5.444988 1.640034,5.443053 1.55952,5.370296 1.555905,5.364317 1.484133,5.288845 1.478648,5.280643 1.416405,5.218454 1.406651,5.208636 1.329125,5.13892 1.318104,5.126284 1.305919,5.114821 1.217644,5.056672 1.199484,5.038905 1.098867,4.983876 1.007622,4.88804 0.989885,4.871821 0.972511,4.854894 0.913809,4.785767 0.890173,4.761722 0.827002,4.700294 0.80228,4.671823 0.74827,4.619562 0.725189,4.58828 0.688972,4.535197 0.670816,4.50233 0.639095,4.449855 0.620485,4.412486 0.59516,4.367229 0.579177,4.330194 0.548383,4.285408 0.528384,4.247919 0.498434,4.198016 0.479581,4.155774 0.460368,4.114128 0.444798,4.067276 0.429845,4.031072 0.421005,3.984727 0.407934,3.947518 0.39682,3.899785 0.389939,3.864432 0.375349,3.818047 0.367588,3.782217 0.363765,3.73408 0.358306,3.699005 0.356286,3.656243 0.355708,3.639613 0.356478,3.586939 0.360014,3.530559 0.363548,3.510313 0.371905,3.474521 0.38384,3.429662 0.392321,3.401438 0.407053,3.349442 0.41438,3.319247 0.423373,3.299029 0.441733,3.249302 0.471098,3.188898 0.472668,3.185714 0.474484,3.182401 0.505917,3.124535 0.523384,3.091518 0.538321,3.064156 0.56987,3.009585 0.574812,3.001204 0.57711,2.995648 0.588084,2.97075 0.633147,2.860388 0.640243,2.841873 0.654511,2.795154 0.665097,2.756412 0.67201,2.727564 0.688075,2.679818 0.697099,2.649943 0.703428,2.624489 0.712646,2.57528 0.723832,2.523196 0.720886,2.493455 0.694702,2.377136 0.612413,2.247762 0.575523,2.187122 0.536098,2.116159 0.511774,2.044075 0.49014,1.978236 0.483854,1.930598 0.470081,1.834731 0.470308,1.829936 0.469912,1.821369 0.469647,1.738065 0.476152,1.684172 0.48268,1.659955 0.486461,1.633688 0.50216,1.586738 0.51029,1.528823 0.518149,1.510056 0.523677,1.49771 0.55146,1.44849 0.576647,1.402109 0.589779,1.391223 0.608683,1.358848 0.637845,1.327293 0.677596,1.286291 0.700636,1.255303 0.725505,1.236546 0.769883,1.19941 0.779392,1.192172 0.817076,1.163418 0.836225,1.150195 0.8408,1.147964 0.910293,1.122057 0.920561,1.117152 0.992234,1.101713 1.005117,1.100185 1.087107,1.092427 1.093035,1.092678 1.163676,1.069281 1.174363,1.070263 1.245629,1.046325 1.256954,1.044649 1.268358,1.037558 1.335126,1.011806 1.356561,0.996227 1.414411,0.981508 1.468142,0.96488 1.486171,0.944368 1.531839,0.917237 1.564718,0.900017 1.622164,0.865134 1.63888,0.855694 1.707479,0.838831 1.721862,0.834772" style="fill: white" />
</svg>
