<svg width="12.953712" height="10.039674">
<polygon type="contour" points="7.772788,1.226443 7.777522,1.226627 7.779595,1.227055 7.83524,1.252159 7.86755,1.263727 7.917218,1.281249 7.948248,1.292001 8.001509,1.309181 8.030737,1.317808 8.084701,1.33207 8.114056,1.33746 8.168583,1.35153 8.195839,1.350478 8.252161,1.363453 8.279431,1.362447 8.335828,1.376752 8.39358,1.379244 8.419649,1.369665 8.476295,1.359158 8.503138,1.348728 8.559459,1.320528 8.586828,1.306678 8.643903,1.273506 8.670661,1.261277 8.726716,1.234867 8.754308,1.227009 8.806295,1.223593 8.835866,1.219019 8.889845,1.222331 8.918652,1.220925 8.946762,1.224038 9.001049,1.228123 9.030446,1.231299 9.083776,1.236539 9.114277,1.242679 9.166991,1.249503 9.195343,1.25329 9.249293,1.261539 9.277434,1.268232 9.33233,1.280655 9.36107,1.290723 9.41541,1.305711 9.433555,1.314478 9.482183,1.333133 9.514697,1.346425 9.548526,1.363224 9.58836,1.382079 9.620355,1.402455 9.660069,1.42439 9.695744,1.450939 9.722863,1.4804 9.756567,1.51025 9.785734,1.535724 9.814687,1.573917 9.850198,1.584469 9.878893,1.601778 9.930651,1.619282 9.965678,1.632915 10.01174,1.647946 10.04467,1.661733 10.090112,1.681252 10.121196,1.695964 10.162747,1.721064 10.190775,1.738016 10.233275,1.765082 10.273057,1.795629 10.300147,1.814137 10.342549,1.842031 10.36907,1.86054 10.409826,1.890091 10.434188,1.912087 10.473907,1.941568 10.499004,1.963774 10.536665,1.99619 10.560664,2.021053 10.594209,2.061412 10.61544,2.089605 10.647727,2.128058 10.670804,2.154875 10.701518,2.192467 10.724694,2.222978 10.754523,2.262661 10.778619,2.291546 10.80846,2.330117 10.833494,2.359011 10.863427,2.393728 10.888449,2.426209 10.918244,2.463198 10.943758,2.495229 10.9731,2.529607 10.998863,2.560479 11.023178,2.601357 11.044893,2.640834 11.070812,2.691783 11.081612,2.714838 11.10913,2.783417 11.114883,2.797858 11.133763,2.86478 11.139035,2.880949 11.154456,2.948574 11.158141,2.964714 11.173289,3.032064 11.175849,3.048041 11.18733,3.113288 11.190902,3.130989 11.200771,3.195572 11.203216,3.213934 11.212502,3.278113 11.215292,3.297075 11.223913,3.360545 11.226811,3.380224 11.237326,3.445193 11.239681,3.463995 11.243981,3.526663 11.247115,3.547131 11.25333,3.610814 11.255046,3.630282 11.260507,3.69411 11.262561,3.713711 11.265484,3.776238 11.267729,3.796713 11.273458,3.859943 11.274554,3.879932 11.280244,3.943487 11.282026,3.963339 11.284849,4.025688 11.286499,4.046356 11.286857,4.066908 11.287036,4.129576 11.286756,4.150119 11.28597,4.21265 11.285225,4.232747 11.284476,4.29585 11.283407,4.31612 11.28213,4.378924 11.281944,4.398763 11.276192,4.462381 11.274062,4.48277 11.265357,4.545518 11.262058,4.564872 11.249021,4.627834 11.245458,4.644527 11.2277,4.710416 11.222326,4.726742 11.193237,4.792924 11.187696,4.806801 11.141188,4.878316 11.134188,4.89205 11.114802,4.919548 11.087584,4.967243 11.058042,5.024717 11.047912,5.04386 11.045297,5.049491 11.018866,5.126168 11.016028,5.133646 10.988338,5.210408 10.985858,5.217318 10.958228,5.293951 10.956247,5.300015 10.933163,5.376415 10.931449,5.380983 10.90335,5.460462 10.901665,5.464661 10.874519,5.541325 10.874105,5.542135 10.851615,5.578774 10.829542,5.617898 10.813279,5.639411 10.783387,5.682859 10.764526,5.706435 10.747059,5.724739 10.693844,5.778384 10.628082,5.837716 10.622624,5.842956 10.614343,5.850529 10.549209,5.906657 10.511739,5.935904 10.475781,5.9652 10.416028,6.017115 10.40312,6.027981 10.396302,6.031797 10.320944,6.073402 10.288416,6.090541 10.247682,6.109248 10.190296,6.139104 10.169462,6.14948 10.098271,6.183559 10.091101,6.187004 10.089055,6.187968 10.01356,6.229155 9.987034,6.238414 9.933179,6.259694 9.892739,6.269001 9.851199,6.283741 9.821811,6.290742 9.768659,6.305721 9.749087,6.310323 9.68576,6.324996 9.674918,6.327705 9.603338,6.34637 9.601944,6.346657 9.590785,6.349365 9.521234,6.369332 9.508941,6.375172 9.440529,6.398278 9.41185,6.407674 9.359478,6.426205 9.31424,6.44187 9.27858,6.455036 9.219697,6.465725 9.195812,6.47624 9.180459,6.483342 9.11003,6.486951 9.098417,6.492393 9.025194,6.500078 9.017748,6.502561 8.941356,6.51611 8.939019,6.51691 8.856062,6.538204 8.804904,6.552577 8.753593,6.569082 8.73161,6.575844 8.688171,6.587173 8.637942,6.595793 8.587132,6.605965 8.554235,6.614914 8.505268,6.623513 8.471384,6.631576 8.422068,6.637214 8.388616,6.641411 8.339793,6.640705 8.304998,6.647011 8.280017,6.652925 8.205561,6.665148 8.188603,6.666834 8.181727,6.667598 8.102949,6.677528 8.101137,6.677911 8.065398,6.68157 8.0191,6.685838 8.015398,6.686558 7.924243,6.704914 7.889192,6.711171 7.842726,6.724322 7.806106,6.732495 7.75812,6.746771 7.722101,6.75209 7.676119,6.759837 7.63922,6.764671 7.593279,6.766726 7.55592,6.774009 7.509109,6.777208 7.472553,6.77887 7.426329,6.785755 7.389342,6.786547 7.343423,6.792334 7.306033,6.79562 7.268923,6.796281 7.222861,6.795709 7.176319,6.794491 7.150076,6.798011 7.11401,6.798762 7.056366,6.803959 7.009903,6.804464 6.98239,6.807634 6.926507,6.805916 6.895886,6.804469 6.842219,6.797899 6.804954,6.792883 6.771619,6.786736 6.725502,6.779934 6.688251,6.77315 6.639272,6.761362 6.597658,6.75935 6.548327,6.754364 6.504909,6.767142 6.469622,6.767032 6.42992,6.76711 6.387579,6.775965 6.344099,6.779943 6.303469,6.78195 6.257664,6.780569 6.224441,6.778983 6.191354,6.780795 6.141348,6.774054 6.090614,6.773856 6.058064,6.777187 6.007983,6.780131 5.974753,6.787387 5.941675,6.787896 5.874934,6.79227 5.841382,6.788177 5.808298,6.787491 5.775004,6.785023 5.725011,6.782613 5.692766,6.78242 5.658296,6.780929 5.590049,6.770159 5.558353,6.765474 5.526782,6.758024 5.479861,6.751311 5.449042,6.746255 5.394056,6.736637 5.367888,6.72676 5.30951,6.7031 5.283146,6.695108 5.226691,6.672272 5.20135,6.662918 5.142816,6.642491 5.117806,6.633535 5.059468,6.618383 5.036122,6.611561 4.976384,6.604227 4.953452,6.598632 4.893527,6.595733 4.872054,6.591896 4.81034,6.584574 4.789196,6.579977 4.726986,6.573888 4.664475,6.577895 4.644197,6.579036 4.623953,6.579802 4.56079,6.584272 4.498508,6.591455 4.477651,6.594645 4.415283,6.600445 4.394482,6.603527 4.332464,6.605429 4.311031,6.609979 4.289617,6.610527 4.227994,6.607961 4.207436,6.607606 4.144718,6.59945 4.124568,6.597681 4.060945,6.584003 4.041186,6.582697 3.977908,6.574118 3.958418,6.570105 3.895069,6.559089 3.877309,6.556287 3.811744,6.540899 3.793997,6.539282 3.727987,6.532863 3.710318,6.530683 3.64436,6.523339 3.627493,6.520258 3.560259,6.513415 3.543392,6.509461 3.477336,6.498568 3.461683,6.49484 3.393782,6.47667 3.379634,6.471157 3.310984,6.452034 3.298392,6.448447 3.229018,6.435648 3.218075,6.43255 3.145741,6.424784 3.135153,6.424336 3.063399,6.420142 3.053581,6.419451 2.978882,6.406049 2.968868,6.404882 2.896015,6.393293 2.886941,6.39202 2.812181,6.37409 2.803543,6.372016 2.727553,6.344914 2.71983,6.341683 2.644444,6.309946 2.638786,6.307396 2.560408,6.257736 2.55628,6.255106 2.476187,6.193815 2.474154,6.192328 2.392743,6.139618 2.368597,6.127148 2.311395,6.097503 2.309659,6.096931 2.233636,6.062472 2.228591,6.060147 2.151861,6.019799 2.145312,6.016451 2.0713,5.977073 2.062262,5.972356 1.989014,5.934567 1.978777,5.929016 1.907762,5.891572 1.895865,5.886027 1.827803,5.849135 1.812802,5.840234 1.747993,5.795354 1.730542,5.783983 1.667367,5.741937 1.648295,5.730307 1.588135,5.689918 1.565099,5.672924 1.508123,5.633556 1.483685,5.615792 1.427015,5.566786 1.39878,5.542017 1.371235,5.515495 1.32871,5.472917 1.295717,5.440098 1.249565,5.393718 1.214386,5.357067 1.171646,5.313167 1.134073,5.273378 1.102435,5.233392 1.070563,5.192103 1.041795,5.153879 1.007934,5.109742 0.988917,5.074859 0.964015,5.028166 0.94497,4.993279 0.917433,4.943266 0.898651,4.909646 0.879417,4.859751 0.863853,4.828983 0.839525,4.776359 0.828226,4.746801 0.807731,4.693781 0.797539,4.665807 0.776481,4.611181 0.764459,4.58271 0.737483,4.525377 0.729463,4.503251 0.715485,4.444826 0.70973,4.421001 0.691127,4.360681 0.6859,4.337419 0.675525,4.278363 0.671291,4.255951 0.6507,4.194639 0.647672,4.173299 0.632497,4.111517 0.629654,4.091189 0.614717,4.028586 0.610091,4.008954 0.599619,3.945874 0.596921,3.927611 0.584136,3.862644 0.582279,3.844458 0.579808,3.779743 0.580069,3.713988 0.580299,3.696783 0.588303,3.631036 0.590492,3.613803 0.598107,3.547895 0.601022,3.53063 0.611576,3.465779 0.61276,3.448222 0.631783,3.381584 0.637458,3.364324 0.655699,3.300005 0.660503,3.281966 0.681693,3.21622 0.687596,3.197864 0.711262,3.133501 0.717914,3.114587 0.741825,3.051572 0.750447,3.031571 0.768184,2.969867 0.774073,2.949536 0.795952,2.887144 0.801972,2.866367 0.815424,2.835567 0.844354,2.768313 0.863754,2.735575 0.88909,2.685081 0.909234,2.654502 0.929886,2.619487 0.955475,2.585801 0.982536,2.554656 1.007558,2.523034 1.035348,2.489582 1.060087,2.459289 1.091179,2.427622 1.115205,2.398576 1.147386,2.365951 1.179924,2.331419 1.203699,2.304908 1.225873,2.278248 1.258582,2.241698 1.293688,2.205598 1.318119,2.174982 1.337363,2.155056 1.374313,2.116698 1.415523,2.074425 1.437661,2.051988 1.46576,2.024969 1.498696,1.986509 1.521828,1.963912 1.558525,1.927566 1.597337,1.8913 1.625538,1.870117 1.657304,1.846142 1.734594,1.809963 1.758686,1.798633 1.833881,1.77621 1.844763,1.772133 1.917077,1.764903 1.928576,1.761918 1.999673,1.752788 2.012029,1.748514 2.083901,1.725709 2.096536,1.720972 2.163876,1.690249 2.178669,1.682572 2.246731,1.650126 2.262456,1.64296 2.32651,1.622667 2.344733,1.615514 2.409939,1.592957 2.42889,1.586281 2.492902,1.570432 2.512309,1.565596 2.576137,1.550129 2.595851,1.54506 2.657538,1.534858 2.678379,1.531496 2.740311,1.524358 2.761667,1.521834 2.822791,1.520164 2.84473,1.517551 2.905277,1.508867 2.92777,1.505857 2.987837,1.497014 3.011094,1.493928 3.07025,1.485191 3.094209,1.483897 3.154047,1.479893 3.177544,1.480009 3.201043,1.482376 3.260794,1.487999 3.283979,1.492447 3.343899,1.500548 3.366889,1.508237 3.427417,1.523245 3.448821,1.527809 3.510715,1.533818 3.533289,1.537211 3.592911,1.550335 3.612894,1.553529 3.676579,1.580797 3.740252,1.576454 3.75982,1.579303 3.822154,1.554234 3.84283,1.548991 3.904596,1.52638 3.926268,1.5185 3.987123,1.502746 4.009506,1.49379 4.068964,1.484623 4.092496,1.480014 4.150927,1.476681 4.176117,1.474073 4.201007,1.477753 4.259487,1.479723 4.283775,1.49094 4.343541,1.51277 4.366853,1.524081 4.427295,1.554634 4.448737,1.565589 4.511938,1.606995 4.532294,1.614113 4.593141,1.643637 4.611447,1.64579 4.675326,1.661153 4.740497,1.656342 4.757903,1.656281 4.823318,1.641303 4.840923,1.636726 4.905031,1.626873 4.923629,1.622107 4.986596,1.611999 5.006351,1.606821 5.069898,1.584531 5.090105,1.579056 5.150674,1.552315 5.173127,1.544096 5.23344,1.521875 5.256686,1.513758 5.317459,1.507601 5.340398,1.504964 5.401335,1.498862 5.423915,1.498328 5.484337,1.491222 5.507194,1.485602 5.568587,1.472986 5.590859,1.471537 5.650144,1.455631 5.674239,1.449538 5.732249,1.424564 5.757542,1.410294 5.811493,1.387648 5.840327,1.380122 5.895003,1.371201 5.923009,1.366993 5.977992,1.354934 6.006156,1.349354 6.060231,1.343242 6.089623,1.344401 6.118389,1.345153 6.172691,1.345079 6.201781,1.344049 6.255661,1.339701 6.309562,1.331613 6.339059,1.327918 6.368718,1.327431 6.422607,1.339814 6.451673,1.350747 6.504991,1.357052 6.556705,1.338685 6.588066,1.335747 6.641975,1.309596 6.672552,1.297548 6.724719,1.292659 6.75633,1.283508 6.787668,1.286429 6.838703,1.289788 6.889712,1.282004 6.921599,1.281531 6.973038,1.278192 7.00528,1.274988 7.055222,1.270054 7.087921,1.266347 7.138004,1.255265 7.1712,1.253683 7.204768,1.251028 7.255049,1.238323 7.289249,1.233798 7.337742,1.229924 7.372435,1.226708 7.421108,1.228465 7.455655,1.227804 7.504,1.22833 7.538315,1.226449 7.586479,1.221815 7.620994,1.218837 7.669223,1.218425" style="fill: white" />
</svg>
