<svg width="12.953712" height="10.039674">
<polygon type="contour" points="4.150509,4.456234 4.17554,4.455691 4.232019,4.466254 4.257295,4.469394 4.317317,4.488509 4.342056,4.493347 4.399003,4.520698 4.422981,4.527692 4.4628,4.55858 4.482935,4.567101 4.530091,4.60962 4.555298,4.62924 4.596964,4.680717 4.610155,4.696178 4.646856,4.756509 4.659744,4.774062 4.696848,4.832435 4.70844,4.852589 4.748575,4.903063 4.760259,4.921928 4.802235,4.971089 4.814446,4.989734 4.860707,5.032358 4.912094,5.068106 4.925747,5.085181 4.981099,5.114782 4.995937,5.129471 5.04972,5.163095 5.065796,5.174694 5.082253,5.185836 5.138333,5.216366 5.155211,5.226899 5.210576,5.255837 5.227547,5.265683 5.291028,5.287877 5.308307,5.297155 5.367425,5.322876 5.383445,5.330674 5.449268,5.351887 5.466678,5.359723 5.526499,5.385198 5.541841,5.392333 5.603034,5.419649 5.61668,5.426602 5.684023,5.45006 5.700754,5.456997 5.763228,5.482706 5.779951,5.490071 5.840083,5.516653 5.855909,5.523433 5.919085,5.549591 5.936066,5.556649 5.998457,5.581566 6.015251,5.588849 6.076202,5.614146 6.091628,5.619889 6.154568,5.645838 6.167623,5.651068 6.240387,5.667953 6.25236,5.672757 6.321255,5.696514 6.333572,5.700707 6.402184,5.726112 6.413213,5.730631 6.485119,5.752399 6.499723,5.7577 6.561766,5.786692 6.573428,5.790129 6.639827,5.818705 6.651144,5.822765 6.764303,5.917814 6.772352,5.921744 6.822165,5.979858 6.829621,5.985059 6.874656,6.051193 6.879034,6.055632 6.918814,6.137919 6.921331,6.140586 6.923443,6.143736 6.925111,6.148188 6.914816,6.289611 6.912794,6.350494 6.913998,6.357238 6.912784,6.36408 6.912783,6.367715 6.888581,6.368121 6.803885,6.374055 6.771784,6.37993 6.72378,6.376448 6.663161,6.371312 6.639788,6.364973 6.582561,6.355638 6.554735,6.350586 6.545374,6.350164 6.466807,6.333031 6.426672,6.330563 6.380612,6.323382 6.312355,6.312583 6.300128,6.309401 6.261649,6.303768 6.212479,6.296593 6.207073,6.296196 6.178957,6.29149 6.121046,6.280886 6.098616,6.276197 6.041552,6.26869 6.017893,6.265604 5.954258,6.253653 5.930653,6.250137 5.871652,6.246526 5.84836,6.241912 5.729078,6.236864 5.704963,6.233086 5.680601,6.230281 5.621913,6.228475 5.597884,6.225545 5.538859,6.217731 5.514172,6.212521 5.454694,6.202047 5.429351,6.197634 5.372338,6.193828 5.346147,6.189503 5.287627,6.175504 5.263656,6.17012 5.206311,6.161446 5.180552,6.155378 5.121872,6.144496 5.095318,6.137582 5.039152,6.128496 5.012343,6.118909 4.956148,6.103511 4.930288,6.094883 4.8731,6.075268 4.843762,6.05425 4.788974,6.037737 4.730989,6.001235 4.703022,5.986523 4.674321,5.968888 4.618742,5.934812 4.59048,5.91924 4.536692,5.889982 4.48374,5.86135 4.453946,5.843176 4.399241,5.803847 4.368979,5.781888 4.315941,5.748438 4.286018,5.728713 4.234586,5.693621 4.196039,5.661539 4.137804,5.614273 4.10755,5.587662 4.045755,5.541147 4.037879,5.533373 3.953377,5.457597 3.946189,5.449815 3.865637,5.37769 3.859676,5.371904 3.787072,5.295813 3.781714,5.288332 3.723266,5.216033 3.720002,5.20956 3.659656,5.135785 3.657826,5.130756 3.622258,5.052612 3.621562,5.046939 3.591558,4.970971 3.583159,4.894204 3.583555,4.888467 3.582154,4.810696 3.583794,4.805788 3.601,4.727962 3.602332,4.724456 3.64623,4.644604 3.65507,4.62811 3.701741,4.582924 3.760588,4.542282 3.769779,4.532874 3.837997,4.49928 3.848115,4.492511 3.885441,4.480174 3.937079,4.465315 3.966239,4.464224 4.034637,4.454193 4.09288,4.448861" style="fill: white" /><polygon type="contour" points="1.985001,6.146594 2.015362,6.157809 2.038976,6.169632 2.080998,6.18928 2.116054,6.217837 2.14039,6.237729 2.176464,6.269728 2.207519,6.304312 2.227382,6.330602 2.2724,6.39951 2.326107,6.470137 2.343843,6.493299 2.390697,6.579147 2.397464,6.5931 2.410551,6.63148 2.433353,6.699522 2.472595,6.802437 2.47342,6.804441 2.510767,6.907801 2.51154,6.909881 2.512196,6.912264 2.539944,7.019186 2.544951,7.033821 2.564814,7.129927 2.574806,7.168196 2.590908,7.228906 2.595886,7.256589 2.609489,7.325526 2.613322,7.353235 2.623952,7.411242 2.627091,7.43725 2.635728,7.494293 2.639129,7.520347 2.640589,7.546582 2.656571,7.660457 2.656727,7.686795 2.664258,7.743845 2.666896,7.770196 2.667477,7.796256 2.670968,7.852888 2.677488,7.909505 2.68005,7.936267 2.685574,7.993874 2.684439,8.019682 2.685588,8.076237 2.687755,8.102812 2.685376,8.129154 2.683454,8.185785 2.692971,8.242987 2.692196,8.26923 2.691831,8.295272 2.693045,8.352372 2.690505,8.378528 2.691395,8.435594 2.69113,8.461754 2.692107,8.518711 2.692583,8.576055 2.689797,8.602003 2.689113,8.627734 2.688656,8.685077 2.683783,8.742777 2.683541,8.768203 2.683034,8.793687 2.686826,8.851506 2.68686,8.876646 2.686977,8.934593 2.687226,8.959651 2.688485,9.017697 2.687873,9.042629 2.694729,9.100839 2.695072,9.125765 2.695014,9.184008 2.695526,9.208575 2.696848,9.267158 2.697657,9.291251 2.69987,9.349892 2.706523,9.409634 2.707265,9.438611 2.707737,9.457068 2.71011,9.51689 2.713702,9.562178 2.720025,9.608273 2.723519,9.660773 2.725122,9.717665 2.725993,9.764464 2.716191,9.780046 2.684125,9.843108 2.669896,9.847455 2.624284,9.858577 2.602981,9.853716 2.553267,9.847223 2.468226,9.830378 2.449298,9.822305 2.430275,9.80391 2.37154,9.760585 2.347574,9.730282 2.328373,9.691883 2.295541,9.636437 2.284102,9.61109 2.259239,9.549322 2.250212,9.525489 2.229226,9.466205 2.21821,9.442004 2.197129,9.382663 2.188048,9.358949 2.165874,9.300016 2.14416,9.240541 2.133602,9.216587 2.112856,9.156482 2.104481,9.133006 2.083794,9.072775 2.075343,9.049512 2.054241,8.989284 2.045623,8.966273 2.024633,8.905714 2.014077,8.882417 1.997649,8.823125 1.991172,8.800478 1.970293,8.739899 1.962093,8.716918 1.94141,8.655826 1.931609,8.632902 1.910702,8.57164 1.902778,8.549438 1.886075,8.489487 1.877523,8.467143 1.857349,8.405436 1.84928,8.383545 1.826487,8.322857 1.816065,8.30068 1.794116,8.239674 1.783527,8.217549 1.759656,8.157832 1.747422,8.135637 1.719772,8.075245 1.702638,8.052472 1.674066,7.993215 1.654373,7.969637 1.622741,7.912806 1.593779,7.886354 1.550545,7.827939 1.525551,7.803269 1.46568,7.741114 1.452598,7.718508 1.392981,7.653328 1.388305,7.633177 1.349793,7.5705 1.349974,7.550165 1.329397,7.4886 1.33189,7.467893 1.322999,7.403488 1.325211,7.383793 1.325283,7.320036 1.330095,7.300645 1.337671,7.236981 1.343537,7.217616 1.35768,7.152894 1.362404,7.134274 1.376676,7.069007 1.382293,7.050754 1.397923,6.984686 1.413062,6.929303 1.424763,6.888629 1.43585,6.8519 1.446007,6.805715 1.46031,6.75731 1.467609,6.733695 1.482004,6.679999 1.499645,6.612994 1.525397,6.55284 1.532836,6.529182 1.570513,6.471139 1.57745,6.445793 1.606655,6.403483 1.616768,6.379947 1.656555,6.323779 1.703938,6.270012 1.758597,6.213932 1.784988,6.195464 1.84364,6.148972 1.875206,6.143994 1.918684,6.135742 1.948781,6.13257" style="fill: white" />
</svg>
