<svg width="12.953712" height="10.039674">
<polygon type="contour" points="1.780893,0.477359 1.846803,0.485364 1.863637,0.486808 1.929868,0.4947 1.946573,0.496843 2.013107,0.513231 2.076008,0.541941 2.091637,0.549708 2.095401,0.552116 2.164403,0.59167 2.226329,0.641293 2.229519,0.643907 2.290207,0.696177 2.293307,0.698594 2.35042,0.753159 2.35394,0.756789 2.406881,0.817279 2.410663,0.821276 2.459419,0.887887 2.463453,0.892589 2.508363,0.955048 2.513447,0.962333 2.556422,1.028433 2.561827,1.037326 2.600943,1.108305 2.607041,1.119061 2.644681,1.189503 2.65179,1.200874 2.693933,1.267295 2.701471,1.280405 2.745597,1.340669 2.754526,1.351087 2.806265,1.39818 2.816616,1.407355 2.873807,1.447012 2.885096,1.454592 2.897047,1.461181 2.956011,1.497576 2.967636,1.503441 3.033986,1.531876 3.045058,1.537738 3.109052,1.569142 3.168696,1.608921 3.178302,1.615167 3.230356,1.664733 3.239353,1.672897 3.287756,1.727188 3.296168,1.736897 3.344561,1.790854 3.353288,1.800994 3.403179,1.849962 3.412988,1.86003 3.461639,1.912252 3.472265,1.920947 3.519804,1.973724 3.530373,1.984081 3.577151,2.03701 3.587954,2.047229 3.631673,2.105045 3.642481,2.116534 3.653418,2.12748 3.699417,2.176539 3.7466,2.228668 3.756373,2.241308 3.798121,2.29874 3.807096,2.31276 3.846471,2.375204 3.856069,2.393676 3.888538,2.456742 3.898221,2.476357 3.930643,2.543058 3.942804,2.566485 3.968715,2.637253 3.979613,2.660751 4.009138,2.719442 4.020756,2.746172 4.049314,2.80798 4.060488,2.837837 4.068906,2.858139 4.099219,2.905332 4.134633,2.979167 4.146222,3.008409 4.180408,3.092647 4.187266,3.117457 4.249369,3.215288 4.328524,3.206013 4.344832,3.206286 4.412774,3.190341 4.436523,3.183936 4.502838,3.154784 4.525455,3.151072 4.593849,3.122176 4.614416,3.117443 4.67328,3.117546 4.716327,3.119594 4.750444,3.120023 4.820349,3.130776 4.823051,3.131886 4.82651,3.133441 4.886906,3.170044 4.949324,3.213732 5.014042,3.251265 5.079012,3.286086 5.080021,3.286409 5.143537,3.326621 5.180104,3.373148 5.196101,3.395244 5.235073,3.437123 5.25319,3.457052 5.267326,3.464796 5.301142,3.540403 5.315795,3.569408 5.34656,3.630349 5.367843,3.67351 5.38894,3.731678 5.432948,3.771734 5.442714,3.798981 5.491375,3.900339 5.572133,3.811474 5.601607,3.784975 5.640691,3.722741 5.664874,3.687059 5.710621,3.637166 5.745531,3.599337 5.781829,3.556003 5.807972,3.513799 5.851288,3.468469 5.88131,3.435065 5.921724,3.389791 5.96216,3.336138 5.992466,3.305217 6.017681,3.267977 6.057659,3.214097 6.087598,3.168494 6.127766,3.127076 6.156645,3.093296 6.201288,3.055411 6.250741,2.988633 6.270252,2.96868 6.283406,2.956302 6.345904,2.89943 6.398367,2.848876 6.419866,2.827922 6.456582,2.79266 6.493105,2.759126 6.51138,2.743138 6.569237,2.689903 6.629704,2.629246 6.643187,2.619424 6.675684,2.593144 6.722793,2.555559 6.741701,2.540212 6.799573,2.494742 6.84396,2.471745 6.885448,2.452456 6.935612,2.428634 6.971354,2.413165 7.024141,2.397043 7.060891,2.384958 7.138199,2.359217 7.185109,2.341847 7.229692,2.326461 7.270309,2.316883 7.315653,2.299194 7.375544,2.283609 7.422637,2.270405 7.462718,2.260475 7.516874,2.251522 7.544161,2.249402 7.615692,2.245937 7.623772,2.245292 7.654766,2.243818 7.702712,2.241924 7.714836,2.241845 7.783425,2.237613 7.8144,2.236853 7.860819,2.237297 7.913884,2.231948 7.940396,2.233516 8.014658,2.231395 8.019462,2.231578 8.034803,2.231328 8.091525,2.240446 8.117832,2.239424 8.170065,2.242024 8.220221,2.242837 8.246002,2.246234 8.320705,2.242587 8.324374,2.242716 8.337296,2.242419 8.399502,2.249022 8.424744,2.251928 8.471425,2.263167 8.531649,2.268026 8.546819,2.270972 8.577113,2.276795 8.618859,2.285277 8.640056,2.289728 8.69073,2.303719 8.753849,2.324778 8.75905,2.326567 8.769175,2.328272 8.829617,2.343003 8.864033,2.352494 8.898294,2.364722 8.945346,2.382916 8.965362,2.391471 8.981485,2.399635 9.068478,2.458823 9.11859,2.500023 9.165842,2.541716 9.245545,2.613085 9.260158,2.626684 9.272926,2.643979 9.331586,2.719905 9.368698,2.765577 9.404229,2.81214 9.464189,2.886807 9.474442,2.89795 9.480987,2.902814 9.530421,2.957017 9.582008,2.985197 9.593781,2.993948 9.615423,3.022528 9.644354,3.065128 9.652278,3.077851 9.68651,3.159659 9.694301,3.180901 9.714788,3.291477 9.714915,3.292229 9.725116,3.406763 9.730416,3.459505 9.739624,3.519887 9.746628,3.625667 9.747146,3.636077 9.749543,3.657899 9.756065,3.727981 9.755967,3.750866 9.751779,3.808494 9.754358,3.870657 9.752604,3.937999 9.750935,3.989826 9.744001,4.052776 9.737206,4.113571 9.734882,4.128681 9.730009,4.14859 9.714886,4.24064 9.696757,4.330466 9.689994,4.351088 9.68727,4.368883 9.65555,4.491155 9.654046,4.495834 9.652553,4.500207 9.627148,4.564341 9.609159,4.635945 9.608642,4.637588 9.585631,4.704857 9.553969,4.75939 9.549881,4.766466 9.544812,4.776281 9.530253,4.796883 9.481076,4.870026 9.472789,4.878655 9.46108,4.889988 9.423428,4.92797 9.390369,4.958911 9.37256,4.976124 9.330218,5.017822 9.322864,5.025039 9.319599,5.028028 9.270035,5.073386 9.247085,5.089318 9.1999,5.121012 9.171832,5.140178 9.157905,5.151228 9.116132,5.183729 9.103044,5.19469 9.098215,5.197673 9.049436,5.238583 9.024382,5.253453 8.989089,5.273783 8.94922,5.304677 8.87331,5.349395 8.872686,5.349768 8.87103,5.350749 8.795232,5.391839 8.769393,5.405636 8.716378,5.428496 8.667177,5.45535 8.638988,5.470323 8.567818,5.490235 8.556207,5.49422 8.489165,5.51394 8.47445,5.517761 8.472336,5.518066 8.389218,5.527854 8.38128,5.529145 8.301362,5.533831 8.289467,5.534571 8.213271,5.53305 8.201442,5.532526 8.121007,5.517335 8.116673,5.516096 8.075305,5.508014 8.032734,5.499261 8.028196,5.498383 7.947445,5.484976 7.935897,5.483334 7.86128,5.479745 7.848345,5.480863 7.770827,5.49102 7.763821,5.492166 7.729169,5.504572 7.682603,5.519779 7.673632,5.523411 7.601676,5.546506 7.57742,5.551334 7.5168,5.560102 7.484682,5.568689 7.433333,5.576344 7.393119,5.577681 7.344377,5.574721 7.308441,5.566163 7.248565,5.547272 7.22576,5.536053 7.150724,5.509674 7.145103,5.50687 7.125095,5.497068 7.068671,5.46254 7.048066,5.449683 6.993112,5.416288 6.947342,5.396495 6.917717,5.371614 6.849033,5.325946 6.843785,5.321747 6.841092,5.319732 6.769285,5.257916 6.730577,5.233317 6.695801,5.208987 6.624807,5.15711 6.622907,5.156146 6.617592,5.152784 6.548498,5.105864 6.517416,5.079284 6.473121,5.054586 6.415608,5.018823 6.398425,5.009625 6.353021,4.98119 6.324357,4.962217 6.312827,4.954647 6.24608,4.91113 6.203267,4.877428 6.171947,4.856569 6.098824,4.807591 6.097736,4.806872 6.09493,4.805073 6.00278,4.73821 5.935625,4.682547 5.874427,4.617436 5.851633,4.592243 5.831568,4.570203 5.779199,4.49771 5.727134,4.428228 5.713529,4.400473 5.663139,4.330144 5.644671,4.304283 5.635678,4.291475 5.581365,4.206155 5.566251,4.098039 5.433204,3.982154 5.436001,4.091777 5.396123,4.151017 5.391683,4.231878 5.371658,4.283134 5.366558,4.301921 5.357528,4.314236 5.34112,4.370136 5.302243,4.434439 5.2921,4.509939 5.267757,4.564452 5.263065,4.576552 5.25629,4.582275 5.229003,4.640667 5.191162,4.681816 5.178161,4.698651 5.16937,4.724495 5.155811,4.769597 5.136364,4.808405 5.120754,4.834287 5.107955,4.868977 5.089559,4.899025 5.077971,4.920335 5.049607,4.960943 5.010434,5.011682 5.004307,5.019097 4.992261,5.03426 4.960313,5.068012 4.939811,5.094104 4.909125,5.134132 4.881204,5.196357 4.88029,5.197848 4.879183,5.199612 4.873407,5.204719 4.804512,5.261799 4.755551,5.306642 4.732456,5.323882 4.721258,5.331141 4.6551,5.366404 4.616588,5.387901 4.577627,5.408429 4.513785,5.440375 4.499641,5.447924 4.462044,5.469819 4.421323,5.49011 4.409396,5.492696 4.337382,5.505883 4.316193,5.510341 4.256068,5.533672 4.219908,5.539058 4.169363,5.53871 4.131916,5.537244 4.083122,5.543541 4.044371,5.536314 3.990548,5.526229 3.959565,5.520356 3.898046,5.509161 3.875213,5.504256 3.805487,5.490568 3.791811,5.485549 3.712864,5.468841 3.709152,5.467562 3.68644,5.460572 3.627361,5.439774 3.617099,5.439251 3.543386,5.418964 3.522464,5.416917 3.503369,5.419668 3.432992,5.409137 3.410031,5.412095 3.344215,5.408718 3.32435,5.416991 3.261357,5.429029 3.249281,5.435515 3.194502,5.458933 3.185651,5.463389 3.182881,5.463475 3.137413,5.476061 3.109626,5.483807 3.05445,5.498588 3.026166,5.509787 2.968852,5.532514 2.942291,5.540934 2.88758,5.557888 2.861881,5.56559 2.805326,5.58051 2.780358,5.584589 2.72272,5.597215 2.697306,5.604394 2.639854,5.612602 2.615417,5.61651 2.557602,5.622025 2.53377,5.623013 2.47481,5.627199 2.450748,5.629577 2.391999,5.628711 2.33309,5.629829 2.30909,5.62955 2.250442,5.629289 2.226128,5.630823 2.167686,5.629323 2.143338,5.629908 2.085117,5.628995 2.060835,5.630793 2.036222,5.629262 1.977472,5.624787 1.952664,5.621663 1.894718,5.614706 1.869381,5.611116 1.812092,5.60333 1.785794,5.597291 1.728665,5.583956 1.701824,5.57732 1.645222,5.565321 1.617176,5.558542 1.561468,5.545629 1.532585,5.535369 1.477516,5.51628 1.448754,5.499406 1.397506,5.469633 1.365189,5.446155 1.314076,5.413305 1.281193,5.397971 1.230296,5.365791 1.194996,5.353416 1.146252,5.334283 1.110239,5.320668 1.062308,5.30236 1.025407,5.287734 0.978921,5.269318 0.940446,5.244635 0.895022,5.220712 0.855555,5.193834 0.811895,5.164726 0.780339,5.138657 0.757212,5.117811 0.692207,5.061925 0.665427,5.034527 0.646009,5.008144 0.605479,4.951988 0.590109,4.92677 0.555532,4.869003 0.547446,4.844708 0.527736,4.785734 0.520232,4.762157 0.499879,4.702837 0.492368,4.679416 0.47328,4.617412 0.457912,4.595197 0.415723,4.534442 0.400643,4.513384 0.356211,4.452385 0.344429,4.432526 0.307322,4.370353 0.298505,4.350975 0.26236,4.287357 0.253882,4.268798 0.224065,4.204198 0.216012,4.186499 0.187644,4.120634 0.181712,4.103235 0.165368,4.037994 0.161245,4.021598 0.144985,3.955261 0.139797,3.939213 0.117794,3.871871 0.115586,3.856572 0.100719,3.788688 0.097637,3.773633 0.088384,3.705653 0.08552,3.691158 0.069803,3.622325 0.067794,3.608486 0.059177,3.539365 0.057432,3.526034 0.042319,3.456213 0.040678,3.443248 0.030781,3.373001 0.029281,3.36072 0.02173,3.289746 0.018687,3.21799 0.018159,3.206604 0.018619,3.133897 0.018729,3.122862 0.026032,3.050111 0.027034,3.039429 0.036868,2.966819 0.038247,2.956177 0.052802,2.882873 0.055,2.872377 0.07308,2.799671 0.075475,2.789284 0.094407,2.71722 0.096794,2.706831 0.119193,2.633184 0.121829,2.622941 0.140943,2.550993 0.14425,2.540519 0.161662,2.467687 0.164335,2.457449 0.18904,2.384549 0.191242,2.37428 0.197535,2.300916 0.199764,2.2911 0.203082,2.218207 0.203577,2.208221 0.203326,2.13461 0.203397,2.124975 0.201998,2.051071 0.202647,2.041883 0.202179,2.032633 0.194996,1.958431 0.194725,1.949548 0.18817,1.875239 0.187476,1.866457 0.186826,1.792112 0.186873,1.783617 0.181281,1.709324 0.188996,1.634804 0.190294,1.626303 0.205285,1.550674 0.206878,1.542326 0.21669,1.499075 0.22185,1.485016 0.249666,1.411787 0.254604,1.40119 0.286952,1.330966 0.29136,1.322865 0.328933,1.253831 0.333539,1.246773 0.381563,1.189232 0.385081,1.1846 0.432396,1.121979 0.435263,1.118458 0.491362,1.062483 0.553983,1.010202 0.555643,1.008556 0.617595,0.95648 0.676138,0.89899 0.724313,0.846085 0.734545,0.834793 0.734767,0.834643 0.793687,0.77766 0.794911,0.776917 0.857902,0.725379 0.859813,0.724009 0.922288,0.672638 0.924613,0.670711 0.987999,0.62272 0.991822,0.620187 1.059337,0.576802 1.064029,0.573815 1.09534,0.556969 1.110063,0.551626 1.178897,0.526408 1.193594,0.524311 1.262557,0.508751 1.278082,0.506989 1.345891,0.496984 1.36168,0.495501 1.42892,0.501865 1.444994,0.497345 1.512839,0.496994 1.529317,0.49169 1.595919,0.487849 1.663417,0.483299 1.680191,0.479051 1.697144,0.47829 1.763195,0.476188" style="fill: white" />
</svg>
