<svg width="12.953712" height="10.039674">
<polygon type="contour" points="7.366485,0.193668 7.420675,0.197884 7.450187,0.203479 7.504051,0.209871 7.532859,0.214052 7.587236,0.220972 7.615604,0.224744 7.670497,0.23013 7.698564,0.233694 7.753192,0.237764 7.780223,0.240918 7.8369,0.251766 7.863689,0.255557 7.919975,0.263284 7.946322,0.268681 8.003455,0.280783 8.029391,0.286732 8.086587,0.295269 8.111035,0.299963 8.169925,0.312478 8.194741,0.317531 8.252688,0.334348 8.275706,0.339963 8.335597,0.363656 8.356618,0.369738 8.418634,0.398949 8.438228,0.404503 8.501151,0.432119 8.518725,0.436035 8.584571,0.451658 8.601517,0.455313 8.667767,0.465026 8.683411,0.467476 8.750986,0.476103 8.766292,0.47947 8.834514,0.493298 8.849706,0.499093 8.870476,0.510168 8.95466,0.546305 8.995679,0.564401 9.030432,0.583363 9.071251,0.600765 9.108019,0.617187 9.142628,0.638021 9.178476,0.661157 9.207433,0.689593 9.238403,0.720438 9.262117,0.75692 9.288963,0.794161 9.311963,0.829218 9.34297,0.863138 9.37221,0.8876 9.415124,0.918036 9.496773,0.91705 9.501165,0.917104 9.583247,0.906088 9.662101,0.904033 9.665369,0.903965 9.74451,0.912278 9.747913,0.913142 9.750638,0.914059 9.798866,0.930853 9.828022,0.945136 9.874464,0.968066 9.902314,0.983326 9.948022,1.008877 9.975305,1.024059 10.01796,1.054366 10.060265,1.084875 10.085638,1.102857 10.124759,1.137596 10.150223,1.155739 10.175768,1.173805 10.217264,1.205289 10.26241,1.232483 10.287576,1.249976 10.332932,1.276757 10.358292,1.293279 10.405456,1.319383 10.428875,1.337608 10.454167,1.353399 10.501496,1.379187 10.546918,1.408778 10.569951,1.426386 10.613442,1.458872 10.636842,1.475848 10.675035,1.515673 10.697369,1.535072 10.735042,1.574799 10.757135,1.594944 10.793812,1.634437 10.814426,1.658119 10.846371,1.702059 10.867292,1.728358 10.899569,1.76803 10.921816,1.794908 10.952106,1.839589 10.973305,1.866928 11.001538,1.908211 11.022988,1.942847 11.050285,1.985839 11.072441,2.017685 11.097112,2.060094 11.118151,2.09471 11.138971,2.135985 11.158786,2.178923 11.178542,2.225183 11.200618,2.272275 11.220611,2.306742 11.244399,2.350921 11.264263,2.387784 11.290564,2.433403 11.308628,2.466186 11.336357,2.516634 11.352621,2.550252 11.37747,2.601266 11.386345,2.619122 11.406447,2.659658 11.430463,2.714266 11.442716,2.740015 11.470133,2.798589 11.479116,2.822464 11.501492,2.881905 11.5094,2.904461 11.531328,2.965479 11.536315,2.986674 11.552012,3.048548 11.555322,3.068589 11.569601,3.131675 11.571916,3.151276 11.580308,3.214647 11.582429,3.233821 11.590301,3.297866 11.592672,3.316566 11.59981,3.381212 11.601849,3.39959 11.606321,3.463886 11.607437,3.48144 11.616422,3.547685 11.619541,3.565648 11.624692,3.630553 11.625541,3.647469 11.63318,3.713752 11.634618,3.730581 11.6406,3.797054 11.641945,3.813786 11.649519,3.880444 11.652946,3.947259 11.65345,3.963306 11.654657,3.979404 11.659906,4.046651 11.661862,4.113686 11.662227,4.129507 11.663033,4.145084 11.666891,4.212489 11.667864,4.228287 11.66828,4.295343 11.662916,4.36252 11.661627,4.378427 11.653753,4.445113 11.651663,4.461428 11.642661,4.527416 11.639878,4.544353 11.62839,4.608713 11.624048,4.626971 11.609287,4.691009 11.60607,4.710033 11.596629,4.772609 11.593331,4.792583 11.581398,4.855895 11.575706,4.877061 11.557892,4.937753 11.551054,4.95916 11.527413,5.018314 11.516656,5.042604 11.491787,5.099149 11.481022,5.124616 11.454483,5.181518 11.442403,5.208366 11.42193,5.262629 11.410507,5.291845 11.396379,5.344118 11.385609,5.375321 11.370653,5.425691 11.360106,5.45692 11.342399,5.506675 11.31835,5.554765 11.297774,5.599405 11.231882,5.67601 11.216659,5.693122 11.209918,5.699339 11.191686,5.718976 11.138705,5.772222 11.077915,5.842881 11.069264,5.853015 11.061368,5.86197 11.001232,5.928782 10.937631,5.997465 10.932375,6.00335 10.927207,6.010112 10.866275,6.096959 10.804707,6.176842 10.799862,6.18245 10.796097,6.185272 10.727805,6.245956 10.67967,6.288457 10.655194,6.308627 10.617302,6.344071 10.584409,6.374478 10.564657,6.387803 10.510048,6.43068 10.457049,6.45783 10.432981,6.473378 10.355153,6.512365 10.278648,6.559913 10.245674,6.586332 10.204656,6.615862 10.136225,6.66176 10.128994,6.666452 10.10909,6.677547 10.05149,6.707795 10.034054,6.714376 9.972143,6.742848 9.934489,6.75619 9.891528,6.771651 9.837501,6.789341 9.810121,6.798166 9.74088,6.820699 9.728812,6.824478 9.683778,6.844749 9.649824,6.861101 9.639566,6.866806 9.572928,6.903687 9.537374,6.922077 9.494986,6.943863 9.437396,6.96415 9.413645,6.972324 9.395543,6.976737 9.332737,7.001438 9.327797,7.002819 9.306771,7.01274 9.254815,7.039241 9.237493,7.050679 9.179623,7.0911 9.150814,7.113842 9.110748,7.170809 9.108643,7.173457 9.103891,7.178659 9.039837,7.234551 9.004978,7.25618 8.963523,7.280681 8.896922,7.329324 8.888819,7.33404 8.862998,7.347318 8.818822,7.366504 8.810158,7.368666 8.797515,7.373113 8.729056,7.398245 8.699096,7.41132 8.648556,7.428158 8.599366,7.455804 8.57049,7.467715 8.495835,7.51528 8.494808,7.515996 8.492507,7.51758 8.418561,7.56326 8.37111,7.584183 8.332491,7.591584 8.237658,7.60394 8.225573,7.604215 8.209622,7.606612 8.167129,7.61282 8.131566,7.617434 8.084421,7.634674 8.016419,7.661017 8.004407,7.665303 7.995356,7.667726 7.950448,7.687056 7.928366,7.695666 7.924207,7.696849 7.854592,7.716214 7.842268,7.721437 7.823962,7.728523 7.761234,7.74915 7.713016,7.760822 7.678288,7.770614 7.638735,7.779522 7.596151,7.792339 7.566488,7.798266 7.511712,7.80779 7.486819,7.811741 7.427733,7.823374 7.409823,7.824924 7.341925,7.831512 7.328074,7.833132 7.256548,7.842847 7.247464,7.843555 7.173224,7.856261 7.171268,7.856318 7.111041,7.862454 7.08598,7.864775 7.005136,7.87516 6.999549,7.875854 6.928401,7.887717 6.916151,7.889179 6.840899,7.890176 6.827984,7.891781 6.752548,7.890051 6.74036,7.892249 6.665715,7.891791 6.651522,7.89088 6.565836,7.875615 6.560912,7.875232 6.476091,7.874004 6.472476,7.873967 6.386998,7.873565 6.383847,7.873262 6.351979,7.868277 6.292613,7.85786 6.285031,7.855788 6.198134,7.831625 6.172869,7.825095 6.1028,7.809407 6.060308,7.796005 6.008882,7.778907 5.918319,7.727107 5.903805,7.719539 5.896886,7.714671 5.885586,7.70636 5.834721,7.660666 5.800277,7.630838 5.76162,7.590527 5.726224,7.547506 5.689173,7.497243 5.654507,7.438723 5.638196,7.416598 5.604716,7.354592 5.593519,7.335936 5.559359,7.271355 5.550556,7.253965 5.516441,7.187744 5.50703,7.170821 5.478962,7.104426 5.470412,7.091708 5.464261,7.085428 5.41474,6.990231 5.394,6.978134 5.347306,6.950381 5.318226,6.942495 5.258831,6.926208 5.229261,6.918679 5.176217,6.908025 5.145912,6.903906 5.095396,6.900734 5.063682,6.896901 5.012827,6.890873 4.980499,6.889595 4.930568,6.883142 4.897392,6.879134 4.848358,6.872361 4.814261,6.867756 4.765991,6.861013 4.730979,6.856266 4.683664,6.84956 4.648055,6.844317 4.6115,6.839768 4.564464,6.82942 4.526909,6.824643 4.481395,6.818116 4.442396,6.811468 4.397671,6.805131 4.358823,6.798199 4.314757,6.787092 4.274702,6.774666 4.231924,6.759652 4.188818,6.74056 4.148553,6.728871 4.108985,6.719627 4.065184,6.709296 4.020573,6.703439 3.98186,6.696715 3.936302,6.694579 3.898872,6.694134 3.861737,6.693977 3.816199,6.692688 3.779297,6.692109 3.733408,6.689636 3.687396,6.698765 3.650586,6.705394 3.605141,6.71376 3.567247,6.720878 3.521989,6.723242 3.483791,6.728351 3.438536,6.731638 3.399939,6.73185 3.36159,6.731149 3.316253,6.730466 3.278477,6.725006 3.232467,6.719045 3.196106,6.708261 3.149176,6.695927 3.114187,6.678269 3.06593,6.652345 3.033785,6.631278 2.982852,6.5915 2.954119,6.568699 2.902373,6.529505 2.84297,6.504784 2.817024,6.488942 2.758178,6.475442 2.734272,6.471379 2.674952,6.470316 2.65099,6.468384 2.590791,6.459579 2.567796,6.456864 2.506748,6.439468 2.48554,6.43526 2.464893,6.424498 2.403078,6.391254 2.384631,6.379191 2.318806,6.331157 2.303127,6.323493 2.235757,6.287942 2.222379,6.282884 2.153023,6.264054 2.14077,6.262636 2.067722,6.249847 2.056396,6.247773 1.986627,6.233484 1.976289,6.228763 1.90328,6.20033 1.894917,6.197004 1.820777,6.166472 1.814309,6.16387 1.736293,6.127091 1.731639,6.124815 1.653378,6.093475 1.571263,6.049998 1.570795,6.049681 1.566513,6.046412 1.534601,6.021576 1.454019,5.941966 1.452549,5.940497 1.452489,5.940431 1.382453,5.857499 1.38069,5.854224 1.311682,5.777109 1.306186,5.770666 1.23664,5.691871 1.22499,5.681489 1.142358,5.606075 1.124837,5.591051 1.06028,5.522931 1.040158,5.503992 0.986294,5.439419 0.965267,5.415664 0.915607,5.35425 0.875647,5.297916 0.856072,5.27083 0.842284,5.242125 0.808679,5.188059 0.797631,5.158102 0.778077,5.104501 0.771407,5.072474 0.753176,5.0217 0.749757,4.987978 0.745501,4.938231 0.743889,4.903075 0.742863,4.852745 0.731537,4.818155 0.727518,4.771092 0.712962,4.724965 0.695067,4.689425 0.663666,4.645342 0.641014,4.606128 0.620297,4.563212 0.602305,4.521564 0.595359,4.481481 0.580144,4.439207 0.561884,4.399501 0.546276,4.355356 0.530307,4.31726 0.51418,4.271803 0.50677,4.235579 0.495181,4.188767 0.490703,4.153746 0.483456,4.106253 0.47667,4.071732 0.461642,4.022659 0.453909,3.989805 0.446389,3.939892 0.438873,3.907787 0.428067,3.856643 0.420585,3.825735 0.41497,3.773697 0.413141,3.72092 0.411539,3.690585 0.411977,3.637614 0.41006,3.60743 0.413119,3.577623 0.41348,3.52437 0.414911,3.470778 0.415159,3.441328 0.415261,3.412214 0.419603,3.358063 0.421887,3.328822 0.427914,3.274887 0.430335,3.246276 0.438954,3.192751 0.448106,3.163528 0.46609,3.109735 0.47614,3.079754 0.494673,3.026911 0.506123,2.998108 0.509366,2.990128 0.513322,2.981177 0.543953,2.905495 0.549795,2.893635 0.583151,2.829498 0.590815,2.815886 0.626374,2.752494 0.635866,2.737079 0.671704,2.680145 0.682832,2.662991 0.718806,2.609001 0.732471,2.59129 0.768734,2.542119 0.783605,2.523218 0.820882,2.47664 0.838032,2.457897 0.875291,2.41342 0.893411,2.392431 0.930158,2.351033 0.949261,2.329117 0.984224,2.28713 1.003166,2.26283 1.039116,2.224558 1.058524,2.198821 1.091499,2.159392 1.112893,2.133011 1.145862,2.095859 1.181067,2.063605 1.205156,2.038199 1.238546,2.005356 1.262169,1.977441 1.287304,1.949343 1.318802,1.916275 1.346896,1.881931 1.372704,1.852666 1.400299,1.820007 1.425571,1.787791 1.454086,1.757247 1.48161,1.726776 1.514391,1.698331 1.542277,1.670288 1.577013,1.641741 1.606873,1.617353 1.643531,1.589787 1.672715,1.565923 1.701682,1.543341 1.74092,1.516479 1.771962,1.496399 1.81012,1.469247 1.831002,1.457683 1.873969,1.43787 1.927944,1.41771 1.981946,1.408496 2.010423,1.400866 2.068082,1.391585 2.09595,1.386482 2.152061,1.369453 2.177426,1.367307 2.203332,1.359188 2.257513,1.326166 2.284919,1.314198 2.345453,1.275849 2.366447,1.265455 2.429005,1.241466 2.448563,1.232404 2.512951,1.208689 2.530271,1.201091 2.594744,1.172688 2.610905,1.166054 2.678527,1.148692 2.692876,1.146202 2.762242,1.133438 2.776236,1.131486 2.844783,1.127799 2.85826,1.126972 2.928018,1.118842 2.941096,1.117593 3.01114,1.116584 3.081267,1.116582 3.094269,1.117568 3.1644,1.118534 3.17742,1.119418 3.246584,1.128879 3.260378,1.131793 3.32826,1.157355 3.343471,1.163267 3.409687,1.190671 3.426784,1.197383 3.492232,1.218261 3.510278,1.222261 3.528477,1.220586 3.593453,1.221025 3.658664,1.215401 3.676529,1.210706 3.742429,1.21265 3.760254,1.208878 3.778284,1.213837 3.844815,1.22537 3.863598,1.233059 3.927675,1.246587 3.947497,1.251954 4.010878,1.276721 4.03215,1.279508 4.094431,1.294195 4.116387,1.300703 4.176498,1.310218 4.19998,1.318818 4.260205,1.327053 4.318036,1.340821 4.342184,1.347057 4.399191,1.357503 4.425393,1.360862 4.450872,1.357456 4.508629,1.350707 4.533123,1.340906 4.591471,1.317854 4.654223,1.290464 4.677037,1.278893 4.738918,1.260326 4.758925,1.251591 4.824615,1.231668 4.843165,1.225187 4.907889,1.204724 4.925284,1.200958 4.99267,1.1866 5.008752,1.185075 5.024583,1.185996 5.091706,1.189256 5.107394,1.189622 5.174343,1.204018 5.191035,1.204071 5.257593,1.209063 5.275022,1.211198 5.340788,1.218172 5.406424,1.219695 5.424337,1.218957 5.490374,1.200358 5.507605,1.197952 5.573424,1.160216 5.59768,1.153344 5.65794,1.078079 5.666436,1.073924 5.678855,1.060278 5.712593,1.002445 5.721562,0.987608 5.758104,0.929683 5.766537,0.915785 5.807519,0.861479 5.816255,0.850299 5.863207,0.799793 5.871964,0.791005 5.915324,0.734882 5.920459,0.72512 5.956779,0.659085 5.962127,0.653308 6.008125,0.589926 6.069259,0.545955 6.073691,0.541513 6.133739,0.490977 6.137689,0.488167 6.204753,0.439642 6.206692,0.438179 6.284472,0.402603 6.287013,0.401074 6.358173,0.360428 6.361605,0.358847 6.368364,0.353994 6.423728,0.320984 6.483942,0.289091 6.508257,0.280235 6.563265,0.26568 6.588815,0.258633 6.646196,0.253017 6.672264,0.247297 6.728264,0.232444 6.755046,0.227446 6.810024,0.214055 6.838632,0.212949 6.866316,0.216171 6.92137,0.214585 6.949819,0.212445 7.004439,0.212669 7.058623,0.211492 7.087572,0.207027 7.142212,0.202458 7.171079,0.199657 7.200364,0.198792 7.254118,0.196024 7.307889,0.19236 7.33732,0.192096" style="fill: white" />
</svg>
