<svg width="12.953712" height="10.039674">
<polygon type="contour" points="7.385731,0.29235 7.420507,0.29261 7.468453,0.294328 7.503728,0.295648 7.550727,0.301767 7.586858,0.304194 7.633304,0.308074 7.670127,0.310735 7.716388,0.312999 7.753212,0.313303 7.798867,0.31989 7.83623,0.323794 7.882038,0.328818 7.919091,0.330891 7.964378,0.33516 8.002102,0.342893 8.048394,0.354039 8.085751,0.362299 8.131281,0.376341 8.168928,0.388019 8.210541,0.405819 8.25159,0.425412 8.29193,0.446314 8.335192,0.465401 8.374931,0.484692 8.418117,0.501969 8.454872,0.517154 8.500945,0.538497 8.536872,0.549036 8.583757,0.568402 8.618701,0.575516 8.667279,0.594015 8.700426,0.598991 8.749937,0.614513 8.780798,0.622854 8.832567,0.638456 8.862045,0.648689 8.916476,0.664748 8.945296,0.676798 8.989204,0.693832 9.042453,0.712075 9.068832,0.724276 9.118257,0.748559 9.159628,0.782853 9.182917,0.800782 9.221476,0.840734 9.246898,0.855115 9.298887,0.880603 9.326972,0.902409 9.351587,0.91506 9.415807,0.936529 9.43628,0.936782 9.499668,0.945165 9.562788,0.941758 9.582208,0.940327 9.601674,0.939918 9.665468,0.945086 9.684335,0.949875 9.747818,0.967056 9.803292,0.989397 9.847093,1.007586 9.861198,1.01512 9.921476,1.04663 9.934165,1.054782 9.994108,1.087946 10.048834,1.128516 10.060861,1.137843 10.114184,1.180556 10.125707,1.190412 10.180299,1.230582 10.192038,1.240782 10.205678,1.24819 10.262319,1.285711 10.275547,1.292806 10.332361,1.330493 10.38805,1.370424 10.400105,1.378789 10.455695,1.418424 10.467366,1.427757 10.521817,1.470312 10.533083,1.478799 10.586998,1.522871 10.597611,1.532065 10.649864,1.574619 10.661502,1.58468 10.711095,1.633414 10.722188,1.644219 10.769402,1.691557 10.781187,1.702989 10.824932,1.757136 10.836189,1.771095 10.878414,1.821965 10.890376,1.837379 10.929397,1.895682 10.940822,1.912249 10.979001,1.966206 10.990682,1.985766 11.026901,2.042496 11.040211,2.061516 11.075462,2.11344 11.090794,2.133277 11.123132,2.188348 11.138215,2.210107 11.167238,2.268084 11.181639,2.294066 11.207199,2.351759 11.222053,2.382314 11.251282,2.432401 11.26755,2.464836 11.294896,2.513418 11.312629,2.545494 11.353159,2.625084 11.356492,2.631902 11.359026,2.636721 11.401324,2.714364 11.402576,2.716867 11.442421,2.798408 11.442702,2.799102 11.456453,2.834335 11.474403,2.880677 11.474747,2.881587 11.502296,2.963995 11.502874,2.965636 11.517456,3.044606 11.518165,3.047604 11.532864,3.129084 11.533339,3.13194 11.543794,3.211444 11.544197,3.214849 11.554311,3.294009 11.554751,3.297992 11.562908,3.377377 11.563417,3.381378 11.572349,3.460165 11.572834,3.46453 11.581786,3.543127 11.582084,3.547809 11.586552,3.62507 11.587509,3.63059 11.595118,3.708423 11.595398,3.713902 11.600179,3.790204 11.600731,3.796643 11.606885,3.873997 11.60738,3.880182 11.612672,3.957965 11.61285,3.963648 11.614688,4.040508 11.615143,4.046591 11.615282,4.052646 11.617938,4.129625 11.624495,4.2064 11.624819,4.212674 11.625882,4.28914 11.62628,4.295636 11.625755,4.302119 11.62009,4.378802 11.61922,4.385563 11.612267,4.461036 11.611392,4.46636 11.593619,4.544262 11.592504,4.548942 11.579184,4.626544 11.57863,4.629814 11.561427,4.710344 11.560937,4.713298 11.541235,4.7937 11.54065,4.795879 11.515659,4.873885 11.515156,4.875458 11.51514,4.875502 11.484939,4.957648 11.484469,4.958862 11.452835,5.039085 11.451678,5.042031 11.410811,5.120091 11.408715,5.125039 11.37709,5.200516 11.374541,5.207509 11.347737,5.283837 11.34441,5.291731 11.321267,5.361961 11.31465,5.372959 11.306658,5.387933 11.279146,5.439211 11.230122,5.512045 11.213671,5.536783 11.208152,5.543884 11.199432,5.553888 11.147613,5.61408 11.103433,5.661269 11.078875,5.690687 11.049768,5.722022 11.008991,5.769403 10.973956,5.80879 10.941855,5.848928 10.904952,5.8896 10.873121,5.926987 10.843868,5.960857 10.804819,6.004046 10.751381,6.05613 10.733126,6.075492 10.719375,6.08914 10.662796,6.146509 10.595881,6.213071 10.591915,6.217145 10.586867,6.222487 10.521923,6.29008 10.475817,6.331367 10.45102,6.355555 10.414301,6.389989 10.378601,6.420007 10.358825,6.433677 10.30468,6.476921 10.251456,6.506805 10.228871,6.52201 10.166554,6.55702 10.151043,6.565826 10.145375,6.569135 10.074226,6.608884 10.043246,6.623742 9.995747,6.648984 9.939905,6.673838 9.915959,6.681718 9.842323,6.710321 9.835802,6.713142 9.806786,6.723876 9.754936,6.742008 9.692537,6.762774 9.6737,6.768224 9.647658,6.780616 9.594065,6.80136 9.546802,6.825926 9.516111,6.841838 9.494862,6.848215 9.434962,6.869224 9.425114,6.871418 9.351701,6.888407 9.350889,6.888561 9.332783,6.891308 9.268847,6.901327 9.261014,6.904891 9.186542,6.930749 9.16164,6.945482 9.109139,6.972881 9.056142,7.008661 9.033939,7.022235 8.996088,7.057239 8.974867,7.082983 8.964128,7.094222 8.925177,7.133001 8.890202,7.151738 8.830585,7.18682 8.813195,7.195542 8.801843,7.200217 8.731644,7.22324 8.672009,7.259987 8.655624,7.268476 8.62867,7.28231 8.578105,7.310508 8.52497,7.338111 8.500169,7.350428 8.485949,7.359724 8.446264,7.390654 8.430833,7.401694 8.426043,7.405352 8.416617,7.411759 8.351862,7.460991 8.31153,7.475522 8.271011,7.490746 8.241119,7.499396 8.188087,7.510374 8.165876,7.515358 8.105814,7.533151 8.09414,7.536708 8.023385,7.55453 8.020392,7.555018 8.003155,7.56109 7.948451,7.576443 7.941199,7.578596 7.875787,7.597597 7.859539,7.604425 7.83549,7.613566 7.779405,7.634674 7.734101,7.641618 7.694093,7.64803 7.656527,7.65545 7.610921,7.664914 7.576651,7.6661 7.524708,7.675394 7.497415,7.67845 7.439342,7.684739 7.416107,7.687032 7.354005,7.695585 7.334285,7.695532 7.267933,7.702122 7.195175,7.709979 7.182508,7.709732 7.105679,7.71269 7.094575,7.713944 7.016907,7.72079 7.009543,7.721674 6.928549,7.721565 6.920851,7.720477 6.841788,7.718361 6.832418,7.718089 6.75301,7.718473 6.743431,7.718438 6.669038,7.704903 6.651375,7.701472 6.588042,7.680486 6.555502,7.669775 6.504388,7.667489 6.46531,7.659516 6.419556,7.657808 6.374733,7.648355 6.33675,7.640049 6.281619,7.626617 6.255861,7.616842 6.184222,7.587785 6.177383,7.585043 6.159679,7.573525 6.105648,7.53012 6.077149,7.509016 6.034547,7.468995 5.968033,7.422871 5.961371,7.417333 5.952429,7.407384 5.895205,7.342379 5.841316,7.263209 5.833847,7.252065 5.787973,7.19659 5.785563,7.192836 5.784439,7.190657 5.730443,7.108847 5.70936,7.076381 5.640367,7.010432 5.603225,6.999713 5.480018,6.948704 5.477803,6.948151 5.397724,6.915549 5.315348,6.895967 5.311682,6.895164 5.233038,6.885599 5.228673,6.885058 5.150712,6.875356 5.145645,6.874935 5.068751,6.864361 5.062733,6.863652 4.98683,6.860121 4.979925,6.859556 4.903308,6.843876 4.896089,6.842765 4.820714,6.833019 4.812855,6.831786 4.739315,6.8278 4.730353,6.825643 4.65713,6.807278 4.647077,6.805868 4.575511,6.801863 4.564403,6.800877 4.491683,6.794776 4.480501,6.794943 4.408713,6.786791 4.397082,6.786436 4.326457,6.776658 4.313949,6.774866 4.244566,6.749424 4.230513,6.745624 4.216033,6.742788 4.147872,6.723998 4.131945,6.723185 4.064558,6.715861 3.998431,6.715269 3.981737,6.716806 3.915649,6.717497 3.898579,6.718422 3.832909,6.716133 3.815619,6.717501 3.749906,6.712473 3.732408,6.712179 3.714843,6.712179 3.649303,6.703817 3.58413,6.710787 3.565901,6.711086 3.547528,6.708722 3.482442,6.709972 3.463669,6.705958 3.398471,6.7079 3.37975,6.705587 3.314571,6.70544 3.249194,6.699285 3.230029,6.697273 3.167089,6.68522 3.146713,6.68072 3.086232,6.653363 3.064458,6.64672 3.009478,6.604772 2.985862,6.58745 2.960588,6.56603 2.906059,6.512932 2.849882,6.48877 2.819062,6.464475 2.766491,6.461452 2.73281,6.458082 2.681289,6.452577 2.649518,6.448575 2.597561,6.438291 2.565003,6.433557 2.515051,6.420193 2.481057,6.411563 2.434719,6.389919 2.399656,6.374862 2.35367,6.346743 2.316408,6.326193 2.276401,6.305127 2.23352,6.277599 2.190898,6.261657 2.151428,6.249425 2.111434,6.24541 2.067209,6.240983 2.023545,6.227802 1.984203,6.214608 1.938661,6.194743 1.903253,6.181811 1.867946,6.16453 1.819037,6.141417 1.786298,6.12774 1.736924,6.106978 1.705371,6.091616 1.652481,6.059867 1.595635,6.029733 1.565383,6.013719 1.483701,5.952822 1.464574,5.936228 1.445287,5.915607 1.378434,5.852123 1.357602,5.828499 1.311794,5.772458 1.256013,5.715115 1.225578,5.686059 1.181064,5.636428 1.1501,5.603922 1.110317,5.555494 1.080617,5.519881 1.048762,5.47423 1.020726,5.43653 0.989095,5.395257 0.959466,5.354007 0.930366,5.315141 0.893885,5.270845 0.870595,5.234956 0.841638,5.188667 0.820636,5.154827 0.801265,5.106367 0.789072,5.074421 0.764494,5.023181 0.750665,4.992419 0.740195,4.939137 0.728905,4.884201 0.719983,4.855007 0.706918,4.802229 0.698295,4.774925 0.675699,4.719864 0.660535,4.692856 0.626322,4.634738 0.614761,4.61167 0.615571,4.545812 0.614542,4.522409 0.60568,4.465626 0.60355,4.443802 0.563663,4.378695 0.552479,4.357704 0.520322,4.290438 0.510962,4.272706 0.49606,4.206453 0.492431,4.189764 0.485038,4.122623 0.482979,4.106922 0.48089,4.039808 0.47996,4.024222 0.47287,3.955795 0.471998,3.941123 0.458865,3.871702 0.457227,3.857685 0.448337,3.787913 0.447069,3.774575 0.432011,3.703654 0.431906,3.691316 0.430876,3.620719 0.430995,3.608627 0.431412,3.596628 0.438573,3.525527 0.439644,3.513461 0.441573,3.442317 0.440063,3.370767 0.441035,3.359154 0.439151,3.287115 0.439281,3.276066 0.443278,3.204595 0.444518,3.193461 0.460651,3.121938 0.461379,3.110813 0.485001,3.03948 0.488457,3.027633 0.492109,3.017411 0.503479,2.99027 0.516311,2.961603 0.539504,2.90692 0.554583,2.875935 0.578579,2.829825 0.597064,2.799037 0.62138,2.753882 0.641101,2.720995 0.665418,2.680648 0.687679,2.646681 0.711369,2.608639 0.735933,2.574789 0.760628,2.540059 0.787049,2.503901 0.810928,2.472271 0.83966,2.436663 0.862772,2.406761 0.892588,2.36949 0.915252,2.341521 0.947412,2.305196 0.970547,2.280022 1.003377,2.241193 1.024245,2.215888 1.059049,2.177639 1.080279,2.15493 1.116054,2.115208 1.136891,2.094029 1.157619,2.074042 1.199166,2.038786 1.220709,2.020921 1.26385,1.985826 1.285579,1.969085 1.329746,1.934118 1.351257,1.918053 1.390284,1.876803 1.40815,1.858883 1.445455,1.814331 1.485885,1.769688 1.501133,1.752106 1.516091,1.735494 1.555707,1.689504 1.603516,1.648857 1.619208,1.63549 1.66817,1.594323 1.683047,1.581836 1.734691,1.542787 1.749431,1.531321 1.801687,1.492203 1.817079,1.482347 1.878438,1.450885 1.897434,1.440199 2.010798,1.392575 2.013163,1.391491 2.015434,1.390968 2.097175,1.373474 2.098573,1.373299 2.179405,1.370003 2.263927,1.37035 2.344431,1.35454 2.428623,1.317873 2.429721,1.31733 2.506308,1.279834 2.510598,1.277842 2.589328,1.240193 2.594762,1.237789 2.673004,1.202488 2.679713,1.199732 2.755486,1.181202 2.762534,1.179959 2.83827,1.171708 2.84562,1.170668 2.853152,1.170183 2.927902,1.164515 3.002802,1.159609 3.011203,1.158802 3.019643,1.159434 3.094472,1.162953 3.103789,1.163604 3.177145,1.167203 3.185558,1.168983 3.260107,1.189479 3.267185,1.192249 3.343723,1.219602 3.349732,1.221976 3.431514,1.243111 3.510348,1.241592 3.51575,1.241097 3.593586,1.222606 3.599951,1.220936 3.677332,1.188687 3.685512,1.186951 3.759932,1.171615 3.834338,1.181022 3.842901,1.183366 3.922694,1.225166 3.928102,1.22737 4.008676,1.26086 4.013125,1.262058 4.089516,1.282417 4.092877,1.28286 4.096118,1.283831 4.179307,1.318766 4.260065,1.343689 4.260357,1.343764 4.285684,1.352057 4.343329,1.370827 4.425269,1.385364 4.509021,1.375302 4.56978,1.348466 4.592801,1.338318 4.674471,1.299289 4.676611,1.298193 4.757382,1.261063 4.761089,1.259416 4.837847,1.236538 4.842947,1.234716 4.919479,1.214739 4.925902,1.213326 5.000554,1.199386 5.008071,1.198667 5.083602,1.190673 5.091403,1.191124 5.099279,1.191311 5.175191,1.188199 5.183637,1.188224 5.257746,1.182355 5.266265,1.1834 5.340875,1.165609 5.35032,1.165208 5.424409,1.151011 5.434879,1.14958 5.507186,1.145941 5.517617,1.143093 5.59096,1.143388 5.662155,1.175124 5.6714,1.17061 5.752658,1.175979 5.80376,1.130909 5.820916,1.115391 5.873474,1.04652 5.891914,1.015469 5.915579,0.976238 5.915988,0.975556 5.965637,0.914379 5.968348,0.910867 6.017987,0.845076 6.01948,0.843568 6.064013,0.778367 6.066476,0.773481 6.070249,0.769323 6.120855,0.710646 6.126922,0.704506 6.178096,0.650583 6.186529,0.644462 6.241367,0.596327 6.251264,0.588869 6.306163,0.543749 6.317891,0.536679 6.382957,0.502025 6.397055,0.49556 6.456274,0.459873 6.472715,0.449945 6.534278,0.419201 6.553014,0.411339 6.589072,0.397729 6.63083,0.391214 6.672472,0.389507 6.71399,0.384254 6.753309,0.387868 6.789244,0.378601 6.837314,0.358195 6.876387,0.336153 6.921886,0.322574 6.958645,0.311675 7.0048,0.309622 7.041815,0.307075 7.088121,0.307834 7.134333,0.307348 7.171009,0.308277 7.207347,0.301545 7.254263,0.295794 7.302148,0.293628 7.337269,0.291523" style="fill: white" />
</svg>
