<svg width="12.953712" height="10.039674">
<polygon type="contour" points="1.544206,0.651687 1.596089,0.659066 1.625667,0.667506 1.678488,0.680005 1.707622,0.691475 1.761275,0.709964 1.838415,0.744031 1.844043,0.746969 1.850405,0.750392 1.915262,0.786545 1.923134,0.790728 1.988791,0.828479 1.995805,0.833043 2.002191,0.83861 2.062663,0.883041 2.068195,0.889105 2.12179,0.945238 2.127185,0.951473 2.180935,1.005177 2.185494,1.010695 2.235665,1.07507 2.239486,1.081083 2.285443,1.149486 2.288768,1.154925 2.333372,1.229766 2.335815,1.234361 2.380448,1.305569 2.382144,1.308809 2.423847,1.388271 2.424936,1.390434 2.46908,1.475469 2.469769,1.476595 2.510026,1.557237 2.510814,1.558807 2.555454,1.641966 2.605181,1.716194 2.667984,1.778218 2.726624,1.8211 2.730168,1.825256 2.805042,1.861691 2.807874,1.863416 2.884252,1.893671 2.887569,1.895172 2.959358,1.930945 3.0314,1.971769 3.031836,1.972044 3.099897,2.019401 3.100805,2.019925 3.166694,2.069284 3.229221,2.122967 3.230181,2.123741 3.292591,2.177859 3.29341,2.178594 3.35455,2.233882 3.355608,2.234929 3.413999,2.296302 3.414561,2.296867 3.470386,2.360475 3.471224,2.36149 3.520053,2.427434 3.522476,2.431179 3.531208,2.446218 3.564386,2.503254 3.58013,2.533162 3.618527,2.606211 3.642277,2.653892 3.668693,2.711101 3.691824,2.768087 3.712002,2.817859 3.733704,2.877436 3.751032,2.926153 3.767711,2.980275 3.784353,3.036564 3.798841,3.089665 3.806449,3.117637 3.825557,3.180632 3.841498,3.228805 3.851574,3.263328 3.87337,3.340191 3.880615,3.367651 3.902673,3.479319 3.903241,3.482597 3.904211,3.491383 3.916039,3.600153 3.918208,3.613611 3.921433,3.695692 3.921856,3.760486 3.921746,3.784511 3.920705,3.810893 3.92064,3.869739 3.917001,3.92741 3.915483,3.947314 3.909318,4.010398 3.907808,4.026593 3.905148,4.038577 3.893629,4.109481 3.892312,4.120278 3.878063,4.193289 3.876211,4.205401 3.866102,4.275508 3.863957,4.286056 3.851311,4.358218 3.835453,4.431827 3.832168,4.446063 3.830589,4.4516 3.817514,4.524278 3.814095,4.533544 3.792682,4.607378 3.789858,4.615723 3.75881,4.690707 3.726929,4.766133 3.723525,4.775648 3.719775,4.783754 3.674256,4.856609 3.668449,4.864753 3.616076,4.936008 3.609372,4.944529 3.545557,5.025571 3.527518,5.048433 3.486128,5.08231 3.457493,5.107047 3.380526,5.148813 3.37966,5.149383 3.376881,5.15076 3.302094,5.18746 3.280474,5.199369 3.229114,5.24259 3.177253,5.275305 3.154791,5.294445 3.075899,5.352097 3.046461,5.374232 2.973665,5.408549 2.966228,5.4124 2.889437,5.444525 2.881581,5.447289 2.810251,5.463168 2.801515,5.465631 2.72617,5.488283 2.717454,5.49037 2.644452,5.510953 2.635016,5.513799 2.561841,5.533612 2.552522,5.53474 2.479833,5.553323 2.469718,5.556351 2.397232,5.573399 2.387214,5.574951 2.315779,5.580138 2.305327,5.581425 2.233197,5.587883 2.223153,5.588425 2.213047,5.588311 2.140209,5.582593 2.130079,5.581321 2.056855,5.576307 2.046639,5.575378 1.974429,5.562784 1.964963,5.560821 1.890853,5.534631 1.882067,5.5323 1.807818,5.513504 1.799786,5.51214 1.724044,5.485939 1.716121,5.48343 1.641343,5.461355 1.635534,5.459003 1.557781,5.421086 1.552093,5.417621 1.473553,5.367294 1.46932,5.365024 1.39117,5.330669 1.387644,5.328651 1.307343,5.286313 1.304928,5.284613 1.223062,5.231248 1.221732,5.230196 1.147498,5.169652 1.139918,5.1635 1.139718,5.163295 1.054704,5.088732 1.052742,5.086882 0.974762,5.019599 0.971716,5.016511 0.969751,5.014762 0.906151,4.950448 0.87482,4.921419 0.817271,4.866373 0.789225,4.841041 0.74033,4.786797 0.718301,4.76213 0.663582,4.704117 0.648454,4.680146 0.604485,4.622528 0.590742,4.599381 0.539786,4.539616 0.531265,4.517825 0.494817,4.457632 0.484768,4.436511 0.461214,4.375237 0.456625,4.355001 0.437137,4.291595 0.432686,4.271331 0.425339,4.208384 0.422786,4.188595 0.410046,4.125119 0.407247,4.105384 0.403504,4.042426 0.397652,4.023602 0.383458,3.959145 0.381174,3.940793 0.373831,3.875664 0.3683,3.857762 0.361264,3.792203 0.358259,3.775077 0.357891,3.708622 0.35409,3.69245 0.345064,3.626569 0.341376,3.610101 0.332104,3.543426 0.32893,3.527929 0.320203,3.460403 0.318488,3.445223 0.318038,3.377267 0.318915,3.308679 0.32007,3.293973 0.32818,3.225358 0.329302,3.210782 0.343864,3.141443 0.347221,3.12735 0.361574,3.057372 0.364827,3.043694 0.372647,2.973746 0.376867,2.960336 0.385499,2.890496 0.389111,2.877574 0.403857,2.80661 0.40765,2.794167 0.418499,2.724374 0.421625,2.711504 0.434268,2.639898 0.435441,2.62805 0.443943,2.556867 0.443729,2.545086 0.442635,2.533378 0.444389,2.462141 0.441825,2.450208 0.434539,2.378954 0.432257,2.367218 0.42796,2.295439 0.426714,2.283836 0.423245,2.212061 0.415431,2.139987 0.413366,2.129196 0.408327,2.056327 0.408038,2.045796 0.408059,2.035293 0.400362,1.962798 0.399759,1.88952 0.399997,1.879646 0.402336,1.807128 0.40346,1.797078 0.414112,1.722321 0.416067,1.713298 0.43144,1.641919 0.43458,1.6318 0.465724,1.554476 0.469566,1.543523 0.474916,1.530677 0.504164,1.453182 0.511273,1.439608 0.542361,1.37382 0.548754,1.362373 0.582054,1.301884 0.588635,1.290438 0.627578,1.222378 0.633816,1.214097 0.670563,1.148451 0.721407,1.090068 0.725217,1.085693 0.728825,1.081393 0.777835,1.019857 0.834259,0.961997 0.836519,0.960029 0.899429,0.906246 0.900187,0.905545 0.961033,0.85051 0.962138,0.849705 0.999176,0.823176 1.031412,0.800209 1.03239,0.799519 1.099349,0.751102 1.100046,0.75067 1.176123,0.708546 1.1779,0.707627 1.236909,0.684304 1.265129,0.674417 1.317786,0.662301 1.348553,0.654285 1.401757,0.648235 1.430815,0.646643 1.460888,0.646037 1.513474,0.645382" style="fill: white" />
</svg>
