<svg width="12.953712" height="10.039674">
<polygon type="contour" points="5.330451,5.262973 5.342083,5.265072 5.415659,5.318471 5.43479,5.320639 5.50939,5.396161 5.519331,5.40515 5.566375,5.468413 5.574347,5.477762 5.620589,5.533107 5.628784,5.543952 5.672514,5.604905 5.68118,5.615209 5.72216,5.681749 5.730838,5.693582 5.775556,5.74941 5.783387,5.761142 5.82795,5.821196 5.83649,5.832978 5.882271,5.888521 5.890399,5.900303 5.93526,5.959374 5.944095,5.970444 5.994135,6.019479 6.003121,6.030023 6.055157,6.077293 6.064816,6.087327 6.117708,6.133682 6.127752,6.142771 6.180646,6.189328 6.235863,6.23142 6.245778,6.240724 6.298533,6.289171 6.30817,6.298115 6.363612,6.340317 6.373642,6.349119 6.427813,6.394702 6.437718,6.403347 6.492617,6.445719 6.502464,6.455522 6.558009,6.499597 6.567786,6.507656 6.621912,6.55392 6.631162,6.563006 6.683858,6.606976 6.694143,6.616347 6.744002,6.667995 6.753506,6.677834 6.803156,6.726614 6.813057,6.736522 6.862204,6.78824 6.871455,6.798719 6.918496,6.852323 6.927495,6.863107 6.970572,6.917916 6.979618,6.930723 7.018507,7.002491 7.025612,7.015393 7.068868,7.112187 7.073934,7.122962 7.078432,7.134826 7.102794,7.199491 7.104835,7.208002 7.103564,7.285899 7.095283,7.297728 7.045919,7.34858 6.978328,7.349104 6.964824,7.351138 6.94563,7.342638 6.86675,7.301743 6.848529,7.2884 6.775584,7.231663 6.760405,7.220309 6.690803,7.16907 6.675647,7.158784 6.609262,7.105707 6.593481,7.090597 6.527469,7.036802 6.512534,7.024787 6.445124,6.972448 6.429623,6.959238 6.362264,6.915417 6.347407,6.90332 6.277903,6.844939 6.262585,6.832785 6.197021,6.787351 6.181208,6.775473 6.113084,6.724965 6.047424,6.680615 6.031611,6.668212 5.962823,6.618805 5.946916,6.606697 5.881903,6.570425 5.865239,6.556137 5.798086,6.505617 5.782186,6.492443 5.715912,6.441331 5.698625,6.427227 5.663248,6.399972 5.639102,6.376147 5.567817,6.316843 5.537862,6.29121 5.515009,6.273512 5.425164,6.189908 5.387317,6.151372 5.338589,6.100607 5.310404,6.067754 5.294732,6.049348 5.222093,5.972662 5.208058,5.953198 5.146665,5.889681 5.134905,5.868106 5.093956,5.806876 5.085526,5.77624 5.048385,5.718588 5.042139,5.668203 5.027067,5.634092 5.033317,5.528056 5.033228,5.514356 5.035941,5.502309 5.054878,5.470018 5.095804,5.389376 5.118042,5.364111 5.170251,5.314859 5.183326,5.301956 5.236772,5.277459 5.270015,5.253697" style="fill: white" /><polygon type="contour" points="1.691109,8.695506 1.734228,8.70843 1.78479,8.730716 1.798727,8.734299 1.80874,8.740827 1.864034,8.764743 1.916094,8.800885 1.934903,8.812475 2.019988,8.883706 2.07758,8.928887 2.120617,8.966223 2.179926,9.023669 2.210191,9.053098 2.234459,9.078476 2.292371,9.14552 2.344365,9.202738 2.37266,9.23599 2.410674,9.282496 2.445432,9.330227 2.459623,9.352963 2.51093,9.427411 2.545829,9.487136 2.571331,9.526124 2.608485,9.598784 2.618909,9.6182 2.66013,9.718857 2.66572,9.733677 2.669567,9.753641 2.695024,9.855418 2.694775,9.87082 2.673877,9.940382 2.644278,9.965014 2.614472,9.965145 2.532982,9.948333 2.446095,9.945799 2.412535,9.922947 2.36398,9.895099 2.326171,9.871018 2.280112,9.827551 2.241693,9.796609 2.197731,9.756398 2.167042,9.727753 2.132365,9.688868 2.073768,9.636122 2.043478,9.605193 1.978511,9.55097 1.952691,9.525297 1.892071,9.470093 1.860411,9.441194 1.791956,9.386575 1.767155,9.363103 1.666825,9.300445 1.616413,9.271805 1.544792,9.215828 1.508967,9.19387 1.460582,9.137562 1.439671,9.117832 1.412632,9.057522 1.404703,9.024063 1.419565,9.003622 1.411648,8.902314 1.42532,8.874482 1.447485,8.833287 1.46498,8.817816 1.51668,8.765869 1.574574,8.720469 1.595783,8.711939 1.658915,8.689285" style="fill: white" />
</svg>
