<svg width="12.953712" height="10.039674">
<polygon type="contour" points="4.674939,4.770435 4.732187,4.782873 4.758954,4.78087 4.814082,4.814692 4.842126,4.819202 4.867289,4.831573 4.933102,4.906848 4.957702,4.930267 4.995559,4.97872 5.011435,4.999856 5.047116,5.051851 5.062731,5.073588 5.097148,5.125719 5.112417,5.147541 5.145371,5.203673 5.159921,5.226505 5.19187,5.282579 5.206921,5.305315 5.242862,5.35533 5.257972,5.379848 5.296182,5.424853 5.311881,5.447565 5.35106,5.49189 5.368869,5.511717 5.413566,5.547182 5.431425,5.566937 5.475587,5.604068 5.52153,5.638599 5.54045,5.656417 5.587914,5.688754 5.608488,5.704192 5.656685,5.736114 5.676598,5.752252 5.724443,5.784814 5.744711,5.800124 5.765519,5.814933 5.81569,5.844183 5.865489,5.873859 5.886618,5.887568 5.907678,5.900716 5.959927,5.927884 5.982012,5.939535 6.034201,5.966875 6.054806,5.980178 6.107303,6.007412 6.128884,6.019336 6.181519,6.046439 6.203201,6.058175 6.254001,6.087106 6.27434,6.09846 6.330863,6.123198 6.351169,6.135172 6.404534,6.162579 6.425509,6.174069 6.478735,6.201553 6.499714,6.213055 6.553341,6.239972 6.574298,6.250885 6.628452,6.277425 6.647759,6.288677 6.702524,6.315791 6.722317,6.32574 6.777156,6.35377 6.795282,6.365125 6.849675,6.394301 6.901557,6.431577 6.917876,6.442204 6.965972,6.481032 6.982421,6.493209 7.020156,6.539436 7.045357,6.567624 7.070557,6.619374 7.088894,6.649 7.108518,6.701335 7.119534,6.731319 7.133534,6.784236 7.142917,6.815284 7.145087,6.86756 7.128696,6.920851 7.135322,6.951886 7.10687,7.0016 7.101192,7.038815 7.097769,7.035771 7.024013,7.041102 6.986993,7.027009 6.928789,6.997643 6.914158,6.988717 6.864328,6.966172 6.839799,6.950109 6.780106,6.914174 6.755509,6.897705 6.696522,6.855264 6.670283,6.836158 6.61321,6.800379 6.587196,6.783306 6.531648,6.751732 6.505721,6.736052 6.448578,6.70637 6.423429,6.695735 6.365858,6.6677 6.339861,6.654346 6.283064,6.632486 6.257166,6.621834 6.200186,6.600827 6.173337,6.591018 6.118058,6.58028 6.0902,6.573463 6.032605,6.56043 6.007519,6.551407 5.950354,6.53171 5.922825,6.521596 5.868155,6.511031 5.841464,6.503685 5.784564,6.483831 5.756571,6.471095 5.70084,6.456707 5.673729,6.444934 5.617197,6.425913 5.589201,6.411424 5.534718,6.389437 5.506715,6.374573 5.452165,6.352491 5.398068,6.330234 5.369835,6.315315 5.31468,6.28276 5.285148,6.265451 5.232216,6.242776 5.203052,6.227702 5.149351,6.2009 5.119976,6.185312 5.06712,6.15754 5.038531,6.143722 4.987347,6.116103 4.945872,6.082853 4.885175,6.038068 4.834279,6.001603 4.794167,5.97366 4.721348,5.924653 4.692481,5.903819 4.679857,5.892735 4.590216,5.814473 4.567109,5.795975 4.536889,5.770211 4.469004,5.713677 4.446556,5.690827 4.380514,5.631488 4.361436,5.607957 4.302257,5.552789 4.28508,5.531732 4.237693,5.470929 4.229395,5.450043 4.189462,5.388677 4.184067,5.369826 4.153648,5.306887 4.149383,5.272049 4.140708,5.221662 4.14049,5.168992 4.147655,5.141074 4.165837,5.058085 4.178943,5.02605 4.205588,4.980704 4.243785,4.93808 4.264613,4.913942 4.328403,4.873702 4.353208,4.850173 4.414679,4.818084 4.437941,4.806099 4.505061,4.78856 4.534708,4.77637 4.592294,4.772231 4.61999,4.766151" style="fill: white" /><polygon type="contour" points="1.916032,7.249371 1.918637,7.250075 1.920265,7.250614 1.984403,7.281073 2.034019,7.32485 2.042157,7.332142 2.056867,7.34813 2.097271,7.392359 2.107785,7.416848 2.126435,7.448529 2.165827,7.51427 2.190493,7.56767 2.212328,7.615715 2.230551,7.658033 2.255959,7.71902 2.270627,7.759052 2.292743,7.82468 2.305647,7.873762 2.319886,7.934103 2.339728,7.990692 2.35286,8.04114 2.372553,8.11262 2.379161,8.150873 2.403926,8.239481 2.409157,8.259179 2.441208,8.349674 2.445759,8.367149 2.477574,8.468116 2.480038,8.476276 2.515384,8.576625 2.517224,8.583859 2.526199,8.622644 2.543766,8.69604 2.577358,8.79222 2.582971,8.808404 2.597487,8.852354 2.611443,8.895526 2.620024,8.934547 2.633978,8.976512 2.644786,9.01748 2.660856,9.06131 2.668037,9.101019 2.684887,9.144743 2.690809,9.184593 2.703919,9.227573 2.713207,9.268062 2.721291,9.310834 2.72669,9.350782 2.738069,9.394577 2.744608,9.43417 2.746988,9.476829 2.753256,9.516743 2.759689,9.559922 2.766261,9.599984 2.771778,9.643542 2.780654,9.683928 2.792136,9.727878 2.793996,9.767424 2.799786,9.814896 2.807281,9.85862 2.807956,9.921793 2.813075,9.952335 2.812956,9.957242 2.80048,9.975579 2.764539,10.015836 2.746164,10.020686 2.724687,10.021247 2.6639,10.005682 2.569057,9.974501 2.52994,9.956473 2.49267,9.922408 2.450306,9.885399 2.417035,9.848387 2.379369,9.804332 2.356921,9.763515 2.331778,9.720906 2.309302,9.681805 2.282634,9.636959 2.26088,9.597562 2.234124,9.55285 2.215594,9.514648 2.188979,9.469493 2.166964,9.430818 2.140515,9.385507 2.121818,9.347721 2.093771,9.303327 2.074059,9.26683 2.046396,9.221082 2.01956,9.180604 1.993804,9.1367 1.975028,9.100497 1.945888,9.055062 1.928138,9.018844 1.895979,8.970757 1.874911,8.934099 1.845822,8.88802 1.824146,8.852257 1.790185,8.805075 1.769344,8.769423 1.733513,8.722581 1.711649,8.689593 1.640926,8.637584 1.610496,8.602887 1.519083,8.553794 1.462435,8.513122 1.412796,8.469671 1.366922,8.434736 1.345995,8.384359 1.302919,8.347627 1.297259,8.30533 1.283061,8.273932 1.288528,8.218786 1.287583,8.185391 1.296519,8.137206 1.299247,8.099465 1.320941,8.01363 1.331345,7.987972 1.355895,7.907624 1.360223,7.900047 1.395257,7.829277 1.401188,7.821497 1.407071,7.810862 1.443843,7.73823 1.475475,7.664491 1.481583,7.653621 1.532458,7.560682 1.576494,7.495482 1.594843,7.468895 1.616512,7.438866 1.663394,7.3857 1.715277,7.320849 1.730959,7.301821 1.744452,7.288707 1.816386,7.248948 1.84497,7.233275" style="fill: white" />
</svg>
