<svg width="12.953712" height="10.039674">
<polygon type="contour" points="7.836538,0.441563 7.876045,0.469018 7.920004,0.487161 7.964346,0.508244 8.002748,0.517441 8.044294,0.515594 8.086199,0.510326 8.128642,0.501048 8.16894,0.493172 8.208921,0.492237 8.252306,0.494467 8.294749,0.502099 8.336258,0.513278 8.382729,0.537459 8.419882,0.55149 8.466762,0.575354 8.501966,0.589601 8.548743,0.603645 8.583347,0.617684 8.63459,0.631817 8.669077,0.649249 8.6937,0.659464 8.730557,0.682487 8.765177,0.701896 8.804458,0.724838 8.834303,0.747938 8.863866,0.773535 8.898608,0.801724 8.928725,0.827941 8.962218,0.856097 8.992249,0.883271 9.024929,0.911715 9.055789,0.938557 9.08853,0.966042 9.123223,0.989962 9.157855,1.01178 9.19521,1.032752 9.233823,1.047905 9.270594,1.068869 9.311686,1.080761 9.3528,1.099255 9.392007,1.109803 9.434552,1.129521 9.471598,1.142305 9.499733,1.167378 9.536772,1.194759 9.55993,1.221005 9.595868,1.255033 9.617581,1.283908 9.650371,1.323131 9.678245,1.346872 9.714401,1.376989 9.741487,1.404529 9.779898,1.428621 9.806106,1.453914 9.84529,1.480094 9.868488,1.511848 9.901778,1.545445 9.933586,1.56657 9.967425,1.597068 10.010731,1.615981 10.045414,1.63108 10.089387,1.650007 10.121626,1.666671 10.146714,1.690915 10.18825,1.717018 10.232004,1.740681 10.263086,1.75473 10.308217,1.776427 10.339991,1.789149 10.382003,1.817184 10.40943,1.834382 10.43327,1.858991 10.46836,1.895823 10.491557,1.925321 10.521527,1.965615 10.546347,1.997185 10.575275,2.034978 10.602419,2.062731 10.631744,2.09895 10.660012,2.132721 10.690191,2.161426 10.719344,2.193821 10.758987,2.225291 10.831841,2.264424 10.914867,2.261371 10.91923,2.260377 10.997394,2.250815 11.002834,2.249408 11.080082,2.230152 11.087102,2.228942 11.163157,2.209438 11.171708,2.207709 11.247021,2.190818 11.25662,2.190489 11.330636,2.180722 11.340645,2.181436 11.414248,2.180206 11.489165,2.188382 11.502223,2.192729 11.543045,2.201173 11.566448,2.207109 11.642911,2.236252 11.645899,2.237178 11.712654,2.280852 11.715701,2.282034 11.781315,2.328671 11.783453,2.330067 11.785481,2.331698 11.84854,2.382305 11.851278,2.384665 11.911544,2.437346 11.914385,2.439684 11.972741,2.494777 11.975073,2.496623 12.034534,2.551167 12.036557,2.552562 12.097458,2.607707 12.10143,2.610893 12.158023,2.667045 12.163019,2.671428 12.217607,2.727554 12.223081,2.73335 12.27349,2.794288 12.280028,2.802383 12.330511,2.857833 12.337545,2.866272 12.386347,2.922718 12.393148,2.930744 12.441563,2.989728 12.449303,3.000806 12.518226,3.093456 12.531968,3.114635 12.539656,3.12865 12.571466,3.189947 12.581304,3.212611 12.598756,3.272668 12.605916,3.294966 12.619604,3.358003 12.623228,3.378412 12.633528,3.443725 12.635172,3.462213 12.63751,3.526044 12.639086,3.545247 12.646034,3.610209 12.648224,3.628492 12.655462,3.693938 12.656003,3.711708 12.655645,3.777044 12.656127,3.794966 12.656148,3.860161 12.655916,3.878297 12.653234,3.944074 12.652166,3.961406 12.649784,3.97847 12.641911,4.044438 12.638742,4.062869 12.630528,4.127642 12.627473,4.14616 12.613484,4.2107 12.609042,4.231144 12.600759,4.293698 12.595374,4.314408 12.578183,4.375843 12.571332,4.397831 12.550783,4.459333 12.53996,4.483775 12.513089,4.542108 12.499801,4.568987 12.470953,4.625884 12.451977,4.656707 12.41977,4.707031 12.397327,4.742243 12.364412,4.790392 12.340235,4.826728 12.308071,4.870927 12.266153,4.914918 12.223251,4.955482 12.181575,5.001057 12.152631,5.034127 12.076053,5.104569 12.04657,5.133609 11.991897,5.175163 11.954642,5.203767 11.898169,5.240511 11.864493,5.260148 11.81588,5.283445 11.778811,5.302958 11.734124,5.323186 11.69327,5.341406 11.649543,5.361933 11.607244,5.378531 11.567411,5.394876 11.523304,5.417882 11.484849,5.431084 11.43882,5.44693 11.402541,5.452831 11.35751,5.454895 11.320539,5.456373 11.275581,5.455921 11.238104,5.455405 11.193798,5.454116 11.155532,5.452866 11.116244,5.448805 11.072098,5.44491 11.028681,5.444407 10.988334,5.442856 10.944742,5.443044 10.903595,5.441496 10.857034,5.44671 10.817883,5.45131 10.781748,5.457052 10.736583,5.451761 10.691655,5.464578 10.657849,5.494965 10.615189,5.521549 10.555052,5.601352 10.545118,5.616173 10.508954,5.698345 10.507794,5.701039 10.49273,5.747047 10.478534,5.788252 10.477203,5.790914 10.451187,5.868422 10.450409,5.870949 10.422226,5.951861 10.420302,5.956812 10.392358,6.035351 10.389272,6.042584 10.362143,6.118519 10.357802,6.128361 10.332356,6.202429 10.327805,6.214711 10.301143,6.28569 10.294542,6.300508 10.261521,6.369818 10.252606,6.387397 10.213268,6.454036 10.19963,6.47488 10.155644,6.533053 10.129416,6.557186 10.072189,6.616883 10.026,6.649888 9.988457,6.671142 9.95305,6.697728 9.906901,6.728511 9.8672,6.756543 9.824698,6.791377 9.782695,6.816738 9.741062,6.857084 9.698219,6.881428 9.656646,6.917896 9.604621,6.949293 9.572594,6.96671 9.52353,6.98279 9.490806,6.996303 9.437491,7.018274 9.406526,7.028796 9.352027,7.040705 9.322919,7.046254 9.264549,7.070165 9.238888,7.073475 9.18011,7.110549 9.155658,7.117064 9.094056,7.147316 9.072623,7.154017 9.010541,7.179719 8.990463,7.187527 8.924267,7.209502 8.906377,7.218499 8.838938,7.242921 8.823056,7.249138 8.754483,7.275003 8.739808,7.280005 8.671198,7.300371 8.657172,7.305653 8.587824,7.315836 8.573779,7.318339 8.502726,7.322977 8.489773,7.324755 8.41747,7.33044 8.406217,7.330892 8.394803,7.328986 8.318091,7.328825 8.251737,7.340022 8.240542,7.339712 8.165748,7.373875 8.156597,7.375639 8.08011,7.402692 8.072909,7.404227 8.065893,7.405093 7.989828,7.425437 7.983823,7.426724 7.907161,7.43899 7.827597,7.455016 7.823234,7.456276 7.744552,7.46893 7.740384,7.470104 7.660928,7.479572 7.657169,7.480839 7.577379,7.490555 7.574167,7.491496 7.500224,7.503346 7.497545,7.50398 7.410959,7.515603 7.407883,7.516722 7.328139,7.528303 7.324863,7.529102 7.244523,7.538733 7.241659,7.539549 7.1604,7.548324 7.158212,7.548863 7.076547,7.557616 7.074639,7.557818 6.994472,7.563907 6.99087,7.564223 6.987191,7.563854 6.907342,7.555124 6.902715,7.553432 6.824278,7.539436 6.819792,7.538374 6.741144,7.537498 6.660986,7.542754 6.658287,7.542779 6.655562,7.542786 6.573888,7.539728 6.568341,7.538461 6.490132,7.519438 6.483052,7.516761 6.407209,7.496436 6.399094,7.493292 6.323027,7.459013 6.311521,7.453484 6.240748,7.424421 6.227974,7.417798 6.158366,7.381903 6.142473,7.370692 6.075545,7.336277 6.057153,7.324615 5.992438,7.28507 5.970447,7.271141 5.90953,7.233092 5.883741,7.216798 5.826538,7.181169 5.79695,7.158805 5.74391,7.118828 5.723522,7.099429 5.678511,7.059791 5.645421,7.020271 5.604965,6.954179 5.584285,6.921686 5.541913,6.866871 5.524728,6.838643 5.48555,6.779375 5.47081,6.756311 5.447963,6.69238 5.440978,6.67155 5.413027,6.604615 5.408171,6.585586 5.408127,6.521137 5.405782,6.502655 5.380471,6.435977 5.37626,6.419494 5.372225,6.403722 5.337131,6.336162 5.333724,6.323023 5.324594,6.252771 5.323035,6.240799 5.294358,6.169987 5.291511,6.160591 5.272428,6.086714 5.268226,6.079099 5.24727,6.004061 5.244514,5.998822 5.204692,5.925706 5.202082,5.918789 5.163672,5.825207 5.116424,5.787248 5.0808,5.768463 5.035066,5.76831 4.997787,5.768109 4.960538,5.772847 4.914518,5.778694 4.877555,5.783373 4.83117,5.777332 4.793918,5.782044 4.748003,5.787835 4.711247,5.792474 4.664847,5.79833 4.62844,5.802919 4.581564,5.802849 4.53467,5.808727 4.498336,5.813307 4.462432,5.817802 4.415211,5.811819 4.378535,5.805128 4.333165,5.801262 4.29624,5.799863 4.250896,5.793433 4.212386,5.78446 4.167085,5.774365 4.126163,5.755495 4.08347,5.740329 4.040637,5.718713 4.001466,5.697652 3.956683,5.679233 3.919394,5.663302 3.870558,5.647722 3.836244,5.639121 3.783809,5.61894 3.750954,5.607248 3.697782,5.580058 3.667697,5.565131 3.612486,5.524016 3.587008,5.505965 3.565269,5.493106 3.482845,5.435124 3.458922,5.416497 3.392179,5.358005 3.371165,5.339009 3.337061,5.293859 3.307323,5.254615 3.280274,5.213867 3.257051,5.173734 3.238183,5.136174 3.205621,5.090022 3.189,5.055636 3.16938,5.006843 3.154621,4.975177 3.1353,4.923024 3.129794,4.8941 3.109273,4.839993 3.102806,4.812616 3.095265,4.755942 3.093114,4.729996 3.08171,4.671619 3.087643,4.61303 3.090675,4.587833 3.098978,4.529707 3.10492,4.503997 3.115883,4.445271 3.12129,4.419007 3.140438,4.36139 3.147025,4.334548 3.175159,4.246006 3.176009,4.243351 3.21283,4.171546 3.215204,4.167234 3.261959,4.10598 3.266065,4.10038 3.313525,4.041851 3.319544,4.035653 3.325293,4.028796 3.380581,3.979236 3.426065,3.922985 3.434032,3.914963 3.442932,3.907434 3.493184,3.856435 3.502584,3.8475 3.552162,3.797816 3.596037,3.745146 3.606649,3.734183 3.651592,3.68591 3.661705,3.672493 3.695749,3.608155 3.704478,3.591398 3.710113,3.572805 3.722519,3.506499 3.720714,3.488353 3.705433,3.423874 3.700886,3.404018 3.690085,3.341599 3.684117,3.320604 3.662811,3.258781 3.651804,3.235121 3.63008,3.175623 3.620053,3.149495 3.598879,3.09284 3.588676,3.063665 3.569612,3.008967 3.561781,2.977755 3.548935,2.925733 3.537559,2.875734 3.526673,2.841909 3.521399,2.793149 3.516993,2.758347 3.516807,2.710491 3.513047,2.674894 3.512864,2.639007 3.513874,2.591647 3.514183,2.555399 3.519875,2.508501 3.523798,2.47237 3.529475,2.42506 3.532517,2.388627 3.543337,2.341208 3.549191,2.30644 3.57516,2.229201 3.586801,2.197278 3.608764,2.147337 3.623206,2.115137 3.650211,2.07402 3.66735,2.040443 3.69216,1.99865 3.709638,1.960626 3.734,1.929366 3.764718,1.90104 3.811571,1.84778 3.844027,1.826669 3.890323,1.788734 3.926586,1.769436 3.968887,1.749451 4.007793,1.732976 4.049383,1.712087 4.091485,1.696118 4.131195,1.677037 4.175253,1.660204 4.22072,1.646455 4.256809,1.634011 4.305235,1.624668 4.341642,1.616098 4.389465,1.61562 4.42479,1.61298 4.460695,1.612643 4.50866,1.615342 4.556545,1.616511 4.592518,1.618042 4.628599,1.623384 4.675843,1.623745 4.722594,1.630871 4.759023,1.640234 4.804473,1.656506 4.842739,1.666413 4.886115,1.679335 4.925848,1.694342 4.968547,1.703018 5.00875,1.71371 5.051231,1.717614 5.092995,1.731624 5.13432,1.747658 5.216718,1.722047 5.236065,1.719636 5.281837,1.658088 5.292464,1.656372 5.337102,1.592065 5.343895,1.589359 5.401325,1.535908 5.405361,1.533421 5.467434,1.484169 5.471348,1.481698 5.547671,1.4471 5.551143,1.443375 5.638657,1.422797 5.75931,1.334785 5.777483,1.317513 5.84067,1.328605 5.856169,1.311067 5.924881,1.284229 5.936913,1.268348 6.013138,1.229694 6.023591,1.21641 6.096122,1.161065 6.171111,1.097017 6.17145,1.096608 6.177886,1.091856 6.251181,1.033737 6.259114,1.031949 6.339025,0.965376 6.347713,0.963514 6.423633,0.913481 6.436632,0.908777 6.506382,0.868767 6.523235,0.860146 6.589114,0.835409 6.607252,0.82212 6.673938,0.789848 6.697214,0.77106 6.758376,0.731263 6.784698,0.714945 6.838121,0.680066 6.869318,0.674742 6.921179,0.658428 6.950917,0.654531 7.004659,0.650018 7.035906,0.643017 7.087749,0.630881 7.120234,0.623172 7.171006,0.606077 7.205515,0.598575 7.254594,0.588803 7.290815,0.585353 7.337287,0.572204 7.373337,0.562554 7.421123,0.540822 7.460845,0.527221 7.502898,0.513778 7.543678,0.501328 7.587206,0.489012 7.630912,0.475471 7.670279,0.461573 7.715964,0.452801 7.753332,0.443505 7.798301,0.440923" style="fill: white" />
</svg>
