<svg width="12.953712" height="10.039674">
<polygon type="contour" points="1.578023,0.835226 1.596266,0.835103 1.659856,0.844207 1.67865,0.846453 1.743513,0.859981 1.761667,0.864052 1.779838,0.867993 1.85862,0.893911 1.906616,0.916238 1.937835,0.926501 1.965807,0.939554 2.006646,0.962048 2.039907,0.980238 2.077445,1.006799 2.112735,1.034566 2.143955,1.056433 2.176539,1.089678 2.204507,1.117103 2.233354,1.155974 2.261054,1.18266 2.288348,1.219025 2.314266,1.250187 2.340684,1.288103 2.365372,1.325237 2.388955,1.366721 2.412922,1.403353 2.436063,1.443654 2.45991,1.481583 2.483687,1.523491 2.505952,1.562815 2.529134,1.606572 2.54885,1.645676 2.572722,1.690558 2.590749,1.731526 2.616782,1.776686 2.635546,1.814931 2.664745,1.856749 2.684066,1.891075 2.718651,1.926885 2.74425,1.950281 2.776412,1.988608 2.804032,2.00951 2.83267,2.028855 2.866922,2.063817 2.912073,2.083971 2.943467,2.099831 2.985888,2.121568 3.017948,2.138248 3.048333,2.158251 3.086467,2.185445 3.115183,2.208241 3.152901,2.235375 3.182526,2.256997 3.218021,2.288571 3.243216,2.316131 3.276392,2.350992 3.300769,2.379464 3.333192,2.415692 3.355659,2.446972 3.384169,2.489031 3.405045,2.520088 3.430346,2.568258 3.446884,2.60161 3.473882,2.664509 3.49992,2.755561 3.50511,2.777721 3.510164,2.80063 3.528014,2.861297 3.53184,2.882999 3.554906,2.945289 3.560833,2.967936 3.590079,3.03029 3.601871,3.054661 3.628147,3.114092 3.640692,3.137327 3.663337,3.195774 3.672548,3.21672 3.696261,3.279764 3.702983,3.300489 3.720074,3.362787 3.724223,3.382887 3.73687,3.444628 3.741754,3.464096 3.75863,3.528197 3.762085,3.547192 3.77321,3.610897 3.776049,3.629323 3.791925,3.694423 3.796282,3.713401 3.806608,3.777554 3.809546,3.795808 3.817274,3.860755 3.81969,3.879287 3.820946,3.943782 3.81972,4.008449 3.819811,4.026738 3.810867,4.091372 3.809358,4.109842 3.801534,4.175014 3.800792,4.193204 3.789673,4.257296 3.786178,4.276096 3.776117,4.340342 3.773233,4.359414 3.762809,4.42218 3.75945,4.441776 3.740671,4.50434 3.73553,4.524561 3.710837,4.587669 3.705275,4.608277 3.679592,4.670729 3.670451,4.691654 3.660865,4.708419 3.628179,4.767293 3.61125,4.785268 3.560332,4.842541 3.541519,4.861862 3.517121,4.887059 3.490961,4.912357 3.455457,4.944807 3.4307,4.971785 3.39723,5.007337 3.371883,5.03339 3.358294,5.046929 3.319868,5.093741 3.286146,5.128261 3.24074,5.179561 3.217226,5.205734 3.203135,5.219975 3.151972,5.265066 3.131424,5.280257 3.071231,5.31528 3.054908,5.323583 3.050185,5.325808 2.976047,5.359295 2.941423,5.372437 2.891195,5.386564 2.856562,5.399418 2.808236,5.415908 2.764793,5.437593 2.729548,5.449101 2.70271,5.459704 2.667159,5.471676 2.621162,5.486137 2.573909,5.499102 2.540406,5.509889 2.486844,5.522491 2.459992,5.532714 2.403913,5.53663 2.386294,5.539091 2.330891,5.546957 2.303902,5.549894 2.260434,5.548096 2.230017,5.548508 2.199732,5.545565 2.138513,5.544817 2.084104,5.541655 2.056543,5.536944 2.001532,5.524919 1.972822,5.518971 1.918756,5.505818 1.889787,5.50126 1.860082,5.490375 1.805997,5.471859 1.754474,5.462408 1.723918,5.454289 1.67134,5.436783 1.639924,5.429038 1.594786,5.416292 1.556378,5.401935 1.506016,5.383395 1.473151,5.370099 1.423046,5.344727 1.389573,5.33029 1.340639,5.30486 1.312487,5.28611 1.215776,5.208642 1.21452,5.207573 1.15641,5.130028 1.152975,5.125881 1.105405,5.045102 1.103513,5.042424 1.058035,4.95765 0.954201,4.866337 0.837698,4.786206 0.834053,4.783592 0.760676,4.713197 0.755421,4.707176 0.707759,4.633578 0.703893,4.625555 0.678023,4.55053 0.674754,4.542224 0.655766,4.468912 0.652712,4.459558 0.634639,4.386596 0.630939,4.376689 0.613251,4.303873 0.610743,4.293461 0.592656,4.221422 0.589993,4.210114 0.574956,4.137708 0.572134,4.126168 0.545428,4.055787 0.542893,4.043274 0.509721,3.972695 0.506469,3.960143 0.46657,3.890578 0.460861,3.876726 0.432277,3.806234 0.42688,3.792925 0.402956,3.724479 0.396399,3.709683 0.375915,3.638453 0.373493,3.628207 0.370995,3.61783 0.336787,3.545728 0.334076,3.530311 0.318839,3.46519 0.316991,3.450301 0.306737,3.37838 0.312907,3.312362 0.312595,3.295678 0.320568,3.229916 0.322179,3.212779 0.336363,3.146718 0.338513,3.129441 0.342953,3.112093 0.36363,3.046078 0.369779,3.028661 0.387076,2.963554 0.408282,2.898154 0.416264,2.879958 0.42303,2.814912 0.430697,2.796514 0.433242,2.732591 0.437505,2.713651 0.438437,2.6945 0.439614,2.630383 0.445198,2.566628 0.443622,2.547076 0.440395,2.527466 0.44575,2.463742 0.442959,2.444155 0.436784,2.38046 0.432888,2.360369 0.428423,2.297158 0.424213,2.276739 0.420832,2.213804 0.415571,2.151555 0.413803,2.130841 0.415342,2.110084 0.420527,2.047757 0.420574,2.026497 0.426161,1.965249 0.428507,1.944565 0.440951,1.882093 0.444152,1.861411 0.452834,1.800021 0.458081,1.779636 0.489008,1.694938 0.492,1.686483 0.521341,1.614984 0.526852,1.601957 0.561089,1.541455 0.567547,1.525563 0.604228,1.464071 0.612297,1.450556 0.650359,1.396669 0.660126,1.38136 0.703747,1.334664 0.715177,1.318698 0.755216,1.269735 0.767424,1.2528 0.781347,1.23702 0.824672,1.19218 0.841436,1.176581 0.887508,1.137098 0.90525,1.120489 0.950811,1.08268 0.972288,1.067086 1.017199,1.030936 1.038513,1.013986 1.082692,0.978581 1.104808,0.961489 1.151434,0.929067 1.227179,0.89008 1.267296,0.870586 1.286105,0.86416 1.349769,0.844786 1.370378,0.84062 1.431458,0.834538 1.449218,0.833806 1.513658,0.828359" style="fill: white" />
</svg>
