<svg width="12.953712" height="10.039674">
<polygon type="contour" points="1.71803,1.205347 1.762763,1.206314 1.799874,1.211905 1.845367,1.217448 1.881139,1.224996 1.927621,1.235278 1.971322,1.251336 2.022775,1.263205 2.052616,1.277025 2.103016,1.296082 2.132077,1.311266 2.182368,1.330814 2.207956,1.351188 2.258824,1.382687 2.282902,1.404997 2.338509,1.44985 2.357948,1.47153 2.376881,1.493253 2.421102,1.533464 2.436703,1.551907 2.478346,1.597105 2.494037,1.615207 2.537822,1.657009 2.554758,1.672423 2.6041,1.707163 2.62294,1.719761 2.676346,1.748746 2.696842,1.760347 2.753828,1.783395 2.775057,1.795147 2.825268,1.825726 2.870937,1.863431 2.889106,1.880614 2.922811,1.938694 2.935708,1.961435 2.960784,2.034483 2.970239,2.060451 3.002373,2.122084 3.014297,2.140381 3.031501,2.152021 3.082905,2.187344 3.100623,2.1984 3.149254,2.235809 3.194285,2.281249 3.209754,2.296547 3.224724,2.311372 3.267046,2.359735 3.278612,2.37941 3.314498,2.435992 3.333245,2.48536 3.34557,2.527789 3.349614,2.543819 3.366511,2.61199 3.368968,2.62763 3.379729,2.694769 3.383198,2.710557 3.394506,2.777799 3.397305,2.792735 3.412004,2.862128 3.418888,2.877426 3.44252,2.94662 3.445737,2.962117 3.461239,3.028368 3.464183,3.043074 3.473614,3.111722 3.477295,3.126264 3.485266,3.195488 3.493041,3.264248 3.495803,3.279006 3.511463,3.348028 3.515709,3.363388 3.535264,3.431534 3.539872,3.446543 3.542487,3.461535 3.563147,3.529313 3.56689,3.5441 3.59007,3.61142 3.593781,3.625086 3.619832,3.696079 3.625289,3.709861 3.652802,3.780048 3.65779,3.791471 3.681937,3.860446 3.704056,3.931743 3.709398,3.94256 3.715165,3.954374 3.736687,4.025416 3.743392,4.036445 3.772892,4.108648 3.780088,4.117338 3.815514,4.187635 3.823255,4.196593 3.85483,4.26787 3.862358,4.278054 3.882787,4.34459 3.891366,4.356258 3.913601,4.431698 3.921881,4.437659 3.942227,4.509875 3.986335,4.542086 3.989383,4.546074 3.993987,4.603397 3.994093,4.613235 3.985664,4.640486 3.963502,4.72407 3.96144,4.728126 3.945348,4.763109 3.924494,4.804999 3.921653,4.808591 3.862226,4.84397 3.849502,4.851533 3.848759,4.852201 3.772707,4.887533 3.706351,4.900944 3.687735,4.913155 3.633577,4.923984 3.600719,4.944356 3.557046,4.948774 3.507787,4.968989 3.467287,4.968259 3.425213,4.98085 3.384632,4.985783 3.341377,5.000913 3.30092,5.007685 3.26019,5.013068 3.217587,5.024549 3.177107,5.030559 3.134148,5.040549 3.066921,5.055522 3.01985,5.069338 2.992952,5.079933 2.94029,5.097997 2.890559,5.141614 2.868378,5.157655 2.856172,5.17188 2.803883,5.236175 2.794611,5.245472 2.78346,5.259665 2.748512,5.310283 2.737566,5.337376 2.704548,5.387037 2.694472,5.418367 2.66978,5.467203 2.66446,5.504438 2.645933,5.577998 2.642275,5.608464 2.638312,5.639478 2.627447,5.731403 2.626978,5.736014 2.626477,5.741015 2.626338,5.742494 2.610494,5.850598 2.586041,5.904949 2.58052,5.94889 2.554897,5.987476 2.543016,6.038527 2.523589,6.068467 2.499264,6.122715 2.485316,6.144991 2.46063,6.207104 2.444635,6.215798 2.413516,6.28357 2.405181,6.290236 2.35939,6.351407 2.353185,6.356263 2.329221,6.418489 2.319905,6.43628 2.319269,6.438348 2.273401,6.475717 2.25372,6.489871 2.190379,6.53536 2.183111,6.534436 2.104686,6.524604 2.043932,6.485384 1.970742,6.435958 1.954153,6.40668 1.868649,6.325781 1.825639,6.217007 1.826517,6.187215 1.876706,6.131463 1.843181,6.093103 1.83257,6.047401 1.796737,6.014007 1.785777,5.967588 1.778017,5.928085 1.761841,5.882951 1.751723,5.83978 1.738588,5.798632 1.723218,5.746002 1.71248,5.712928 1.693321,5.665824 1.677715,5.630467 1.660424,5.581456 1.648425,5.547874 1.62044,5.496322 1.611624,5.464649 1.575649,5.412336 1.561337,5.380733 1.512421,5.326335 1.495171,5.296206 1.471733,5.266408 1.395838,5.210112 1.362481,5.181207 1.296802,5.126038 1.26711,5.098258 1.218633,5.044208 1.190413,5.01795 1.143565,4.960486 1.100051,4.903555 1.08218,4.878601 1.041761,4.818669 1.024984,4.794025 1.013095,4.770509 0.978014,4.710692 0.964375,4.687356 0.934282,4.628118 0.904726,4.567344 0.893662,4.545545 0.869678,4.484326 0.860687,4.463829 0.825978,4.399945 0.812353,4.378291 0.766838,4.314997 0.748021,4.294814 0.679524,4.229306 0.656355,4.209718 0.592984,4.144678 0.575873,4.127699 0.520553,4.061678 0.506582,4.045724 0.47063,3.977678 0.460898,3.96232 0.427082,3.897266 0.421475,3.880774 0.404208,3.815158 0.39881,3.798652 0.362332,3.729835 0.358838,3.714427 0.323752,3.64587 0.320046,3.630428 0.314745,3.615099 0.289424,3.548026 0.28605,3.532683 0.269775,3.464784 0.268123,3.449919 0.253711,3.381462 0.252468,3.36682 0.257614,3.298202 0.259055,3.229084 0.258088,3.215009 0.258339,3.200975 0.266707,3.131925 0.269065,3.062279 0.268383,3.048922 0.269769,3.035594 0.270122,2.965788 0.271169,2.952773 0.271249,2.882481 0.277281,2.811402 0.281372,2.796161 0.287943,2.778198 0.315443,2.690756 0.331187,2.656936 0.35028,2.608283 0.366844,2.575937 0.388039,2.529231 0.404985,2.500123 0.427557,2.451804 0.441785,2.421259 0.46374,2.371364 0.477149,2.342345 0.498932,2.290643 0.510099,2.263354 0.527072,2.201937 0.537575,2.174408 0.556548,2.114724 0.567946,2.091057 0.592125,2.031558 0.604624,2.010366 0.63146,1.953686 0.644097,1.933784 0.672247,1.876493 0.685558,1.858942 0.720856,1.808072 0.733172,1.792452 0.771479,1.740507 0.813188,1.691072 0.826099,1.677982 0.872378,1.631798 0.885586,1.619924 0.93735,1.578588 0.950484,1.567187 1.002269,1.523549 1.014016,1.51293 1.066398,1.466784 1.076709,1.457933 1.132092,1.413831 1.142128,1.405969 1.198077,1.361713 1.207903,1.354363 1.268478,1.311465 1.278049,1.306646 1.347119,1.272825 1.3628,1.266197 1.395511,1.253598 1.431631,1.24095 1.477677,1.226712 1.514556,1.218869 1.558522,1.212757 1.59736,1.208605 1.642161,1.204767 1.680242,1.203081" style="fill: white" />
</svg>
