<svg width="12.953712" height="10.039674">
<polygon type="contour" points="2.184184,2.359182 2.229268,2.371422 2.299844,2.398168 2.382613,2.381871 2.393718,2.379731 2.459785,2.384548 2.503423,2.403848 2.529338,2.408554 2.583544,2.418455 2.602434,2.421901 2.613731,2.429646 2.670085,2.450384 2.730371,2.472678 2.73817,2.478053 2.744878,2.48263 2.800697,2.52082 2.861319,2.562252 2.863079,2.563753 2.866561,2.568249 2.923668,2.611968 2.967429,2.64563 2.98554,2.656358 3.007153,2.675909 3.039726,2.721493 3.050642,2.736724 3.085844,2.808655 3.104116,2.838443 3.133286,2.893747 3.151451,2.942218 3.174401,2.995779 3.188845,3.050181 3.203694,3.132141 3.208116,3.163232 3.235299,3.268497 3.236913,3.277691 3.236944,3.294852 3.223302,3.356294 3.237042,3.394275 3.246086,3.446534 3.255549,3.510876 3.265724,3.602907 3.270995,3.621271 3.277843,3.639052 3.332063,3.720219 3.357184,3.767996 3.391833,3.820088 3.445482,3.860211 3.493246,3.902513 3.568349,3.938031 3.598271,3.954837 3.619443,3.965574 3.67887,3.988524 3.700004,3.998612 3.760076,4.021356 3.800311,4.036711 3.824041,4.047201 3.87603,4.071115 3.900316,4.083274 3.922985,4.097137 3.970011,4.128672 3.992647,4.143188 4.035766,4.179807 4.059156,4.193615 4.102707,4.228135 4.15914,4.244263 4.182731,4.258557 4.239434,4.272439 4.265101,4.285573 4.288982,4.301248 4.341322,4.321315 4.365335,4.337549 4.418327,4.355824 4.4667,4.379812 4.489819,4.398547 4.513904,4.415268 4.558884,4.445485 4.582683,4.462178 4.627571,4.492592 4.651106,4.509986 4.695529,4.54138 4.738301,4.576532 4.76162,4.592502 4.784652,4.609577 4.829717,4.64048 4.853139,4.657216 4.900189,4.684916 4.924621,4.702238 4.968632,4.732188 5.012254,4.762372 5.035259,4.782168 5.059904,4.799734 5.103621,4.829728 5.147811,4.856182 5.197946,4.90089 5.227088,4.922024 5.257161,4.941625 5.309175,4.988995 5.33602,5.013636 5.361438,5.034482 5.384179,5.074906 5.414075,5.122038 5.465746,5.187847 5.468184,5.224557 5.477462,5.22817 5.459126,5.2725 5.465923,5.343204 5.443589,5.372814 5.423603,5.415924 5.391157,5.442806 5.362157,5.474141 5.326871,5.496829 5.292316,5.509608 5.249461,5.533025 5.195854,5.559499 5.173853,5.57029 5.155385,5.576805 5.092349,5.600689 5.082856,5.602232 5.028339,5.620262 5.010836,5.6256 5.008003,5.626535 4.930374,5.631304 4.910153,5.635949 4.851554,5.63877 4.810624,5.642094 4.772085,5.641902 4.709721,5.64348 4.661726,5.636391 4.629829,5.632504 4.6139,5.631897 4.546031,5.623704 4.477628,5.614218 4.463339,5.611388 4.387173,5.591446 4.378737,5.590349 4.300942,5.56591 4.294107,5.564198 4.217653,5.543356 4.211078,5.54139 4.131422,5.515497 4.126708,5.514332 4.049855,5.491339 4.044548,5.489435 3.966683,5.458811 3.961878,5.457286 3.882177,5.417928 3.878193,5.416387 3.798545,5.383971 3.794851,5.382546 3.714409,5.329337 3.711527,5.328148 3.630297,5.28536 3.627758,5.284321 3.545943,5.230238 3.543949,5.229154 3.461613,5.17445 3.460183,5.173683 3.377146,5.117949 3.376328,5.11749 3.293606,5.061425 3.292977,5.06101 3.218107,5.007022 3.212378,5.002888 3.21233,5.002849 3.194089,4.989119 3.126958,4.938599 3.088504,4.912253 3.082729,4.908356 2.970519,4.811668 2.935411,4.790079 2.880039,4.730665 2.860771,4.71279 2.846722,4.695482 2.782005,4.666056 2.738895,4.616851 2.705794,4.613731 2.650755,4.607379 2.621037,4.606099 2.564741,4.608056 2.531815,4.617971 2.47571,4.605144 2.436038,4.628438 2.415187,4.633249 2.391898,4.663733 2.359488,4.6941 2.351892,4.716228 2.334796,4.762632 2.33461,4.804487 2.323475,4.839415 2.329799,4.928036 2.353849,5.040676 2.360584,5.058187 2.382834,5.151505 2.395019,5.176881 2.415508,5.261456 2.428907,5.302461 2.453833,5.36802 2.469079,5.406236 2.490547,5.475289 2.507319,5.516933 2.527126,5.582294 2.550886,5.641958 2.569275,5.687402 2.587003,5.730789 2.606393,5.789555 2.618293,5.81927 2.625962,5.855405 2.64048,5.902526 2.650332,5.939142 2.662514,5.984128 2.668627,6.022312 2.680991,6.06695 2.68616,6.105668 2.69382,6.149536 2.704419,6.188632 2.716384,6.232864 2.716925,6.271764 2.718714,6.315483 2.724227,6.354759 2.724873,6.393954 2.736958,6.437886 2.737244,6.477096 2.737665,6.52099 2.737852,6.560023 2.738498,6.604202 2.738558,6.643278 2.743806,6.687383 2.74391,6.726409 2.744145,6.770612 2.74376,6.809493 2.743725,6.853852 2.742443,6.898404 2.738106,6.937253 2.733688,6.981919 2.73325,7.020236 2.732268,7.058784 2.732126,7.103571 2.726975,7.14886 2.725924,7.18686 2.725436,7.232147 2.722205,7.270365 2.721725,7.31594 2.718306,7.353785 2.713962,7.400809 2.710569,7.437743 2.707746,7.484427 2.701345,7.52067 2.690762,7.568777 2.684095,7.604049 2.676924,7.651875 2.667167,7.687558 2.66035,7.735853 2.651224,7.77139 2.639023,7.820957 2.627596,7.855401 2.614417,7.906539 2.603644,7.938391 2.589558,7.989538 2.577737,8.033599 2.560299,8.09829 2.557831,8.10577 2.551105,8.141771 2.539817,8.196902 2.537129,8.204504 2.512117,8.275943 2.505747,8.302249 2.48707,8.364119 2.474853,8.406885 2.466268,8.451744 2.454197,8.515495 2.451556,8.540609 2.434972,8.631823 2.434869,8.632979 2.434189,8.636983 2.421104,8.725488 2.417243,8.748509 2.411643,8.821061 2.407585,8.874976 2.397271,8.911666 2.392703,8.989273 2.384847,9.002111 2.379422,9.068902 2.374094,9.094843 2.373439,9.101549 2.327181,9.125747 2.300792,9.136541 2.295369,9.136561 2.283566,9.136682 2.200694,9.130148 2.174601,9.113053 2.108948,9.0841 2.084711,9.044248 2.054865,9.012518 2.039394,8.966384 2.028646,8.919056 2.018372,8.874179 1.981075,8.796202 1.973465,8.758171 1.96713,8.711758 1.959128,8.675146 1.944054,8.627328 1.939076,8.592022 1.932147,8.544959 1.927308,8.509696 1.916548,8.461492 1.911899,8.426574 1.905248,8.378537 1.898231,8.343784 1.892358,8.295106 1.890935,8.261107 1.884532,8.212146 1.877593,8.178127 1.870779,8.128847 1.866661,8.095606 1.856966,8.045394 1.853279,8.012005 1.851695,7.962307 1.848031,7.929623 1.837691,7.878912 1.833092,7.846352 1.830939,7.796002 1.82636,7.764102 1.815716,7.712599 1.808344,7.680704 1.801291,7.629554 1.797553,7.598024 1.794952,7.546712 1.791449,7.515921 1.780594,7.463236 1.776472,7.432679 1.770598,7.379984 1.766909,7.349581 1.760852,7.29673 1.757211,7.266678 1.750744,7.213672 1.744491,7.183788 1.738449,7.130278 1.737566,7.076466 1.736914,7.047191 1.730356,7.018136 1.723181,6.964082 1.716713,6.90968 1.712714,6.881072 1.706944,6.826497 1.700507,6.79777 1.693748,6.742746 1.686484,6.714751 1.680104,6.659689 1.670254,6.631677 1.658599,6.575912 1.638431,6.548125 1.626382,6.495534 1.599122,6.464622 1.585697,6.411742 1.57457,6.383143 1.541769,6.328781 1.533452,6.298586 1.497095,6.239761 1.493356,6.21486 1.474627,6.154716 1.473448,6.131644 1.461394,6.074328 1.461721,6.048588 1.466176,6.023007 1.464688,5.965214 1.459048,5.906832 1.462997,5.85726 1.463447,5.798646 1.466784,5.758244 1.469746,5.727646 1.474845,5.660972 1.474808,5.628829 1.478347,5.595844 1.486444,5.548784 1.490434,5.488268 1.493817,5.465893 1.492989,5.404778 1.500873,5.346747 1.505146,5.308114 1.511463,5.25676 1.512868,5.215418 1.513572,5.174822 1.52052,5.12355 1.523715,5.079663 1.534909,5.007932 1.536804,4.966528 1.536696,4.932206 1.552787,4.849954 1.557549,4.758247 1.571748,4.715613 1.562075,4.682979 1.533382,4.607821 1.521322,4.57564 1.488875,4.501902 1.462605,4.424839 1.449327,4.394148 1.397794,4.31078 1.386928,4.294585 1.379517,4.285248 1.316416,4.198103 1.285563,4.149873 1.251176,4.099361 1.203843,4.018202 1.195887,3.997237 1.139006,3.895917 1.138722,3.895383 1.13741,3.89298 1.085616,3.792505 1.045588,3.711081 1.03424,3.68802 1.012576,3.589911 1.009628,3.575329 1.009856,3.546427 1.012224,3.452598 1.020575,3.338541 1.020781,3.326959 1.021679,3.31541 1.061786,3.191185 1.071021,3.169954 1.097199,3.057755 1.119493,3.020472 1.168075,2.909708 1.171282,2.902685 1.180572,2.887144 1.232977,2.799013 1.281595,2.748592 1.30887,2.721604 1.32509,2.709407 1.387565,2.66015 1.433615,2.629667 1.470118,2.605053 1.525102,2.542545 1.537992,2.527954 1.545477,2.52417 1.62444,2.486885 1.640001,2.482424 1.718543,2.459418 1.732811,2.451017 1.816531,2.435775 1.893631,2.391739 1.91029,2.388429 1.987976,2.373478 1.994964,2.372258 2.014391,2.374574 2.068303,2.387638 2.090108,2.375956 2.156296,2.357527" style="fill: white" />
</svg>
