<svg width="12.953712" height="10.039674">
<polygon type="contour" points="7.919678,0.349588 7.976941,0.362298 8.003029,0.373775 8.063012,0.394171 8.086657,0.40436 8.149752,0.416237 8.170245,0.420875 8.232132,0.431249 8.252695,0.43412 8.316706,0.448123 8.33593,0.450886 8.40079,0.457693 8.419446,0.461473 8.48581,0.47606 8.502733,0.478812 8.56912,0.487563 8.585713,0.487802 8.654374,0.501141 8.67,0.502284 8.737464,0.513358 8.752235,0.514317 8.760195,0.515866 8.837425,0.54566 8.861316,0.557751 8.90633,0.591318 8.927049,0.608253 8.970979,0.643845 8.991392,0.661699 9.035599,0.697501 9.05533,0.714983 9.102817,0.746694 9.122325,0.765328 9.145459,0.778369 9.196211,0.804456 9.224133,0.812665 9.280409,0.828796 9.314664,0.832063 9.375263,0.837149 9.411097,0.842784 9.46566,0.850982 9.499534,0.863027 9.546102,0.880828 9.576984,0.900265 9.618197,0.923701 9.653936,0.954106 9.681773,0.978146 9.716004,1.012662 9.741566,1.038787 9.775642,1.075076 9.799111,1.101932 9.831904,1.140128 9.854944,1.166793 9.89104,1.20018 9.914613,1.226737 9.942968,1.24663 9.986247,1.269816 10.016497,1.28686 10.059294,1.310757 10.09834,1.340119 10.12616,1.360437 10.163051,1.394202 10.18812,1.417071 10.224874,1.450601 10.25195,1.471113 10.280849,1.489587 10.322401,1.515808 10.352604,1.532923 10.39495,1.556883 10.426074,1.575218 10.465973,1.600491 10.495695,1.620196 10.535961,1.645243 10.574995,1.672643 10.60296,1.694977 10.639035,1.727041 10.663925,1.752354 10.695045,1.789235 10.718748,1.818585 10.751966,1.858269 10.774514,1.885711 10.80733,1.928264 10.827026,1.957087 10.855196,2.012538 10.872088,2.038071 10.903727,2.091526 10.919968,2.115797 10.956929,2.16643 10.972316,2.186422 11.012855,2.237477 11.028804,2.252791 11.060957,2.272449 11.089101,2.29495 11.106288,2.306346 11.166832,2.30969 11.185098,2.308637 11.247606,2.290702 11.264094,2.284136 11.329587,2.266795 11.344737,2.263182 11.413309,2.25095 11.428151,2.247007 11.496342,2.236946 11.510558,2.233732 11.580088,2.225201 11.593818,2.223714 11.663933,2.222091 11.730287,2.226006 11.750645,2.228328 11.810509,2.252519 11.859793,2.279554 11.884034,2.285031 11.907857,2.295724 11.957369,2.324978 11.979487,2.335239 12.028884,2.362382 12.053635,2.373661 12.105301,2.398345 12.129997,2.409038 12.182437,2.434345 12.205259,2.445908 12.256267,2.475491 12.277111,2.488181 12.296753,2.502696 12.342438,2.540388 12.360569,2.558546 12.402233,2.601232 12.419874,2.621356 12.456936,2.669009 12.473345,2.6947 12.506762,2.742776 12.524326,2.769531 12.557118,2.818325 12.576597,2.845648 12.608769,2.889664 12.631071,2.914422 12.662863,2.957289 12.684456,2.985943 12.715738,3.030299 12.740107,3.080248 12.761983,3.128757 12.781053,3.179337 12.791446,3.212807 12.798694,3.261605 12.809593,3.296137 12.819929,3.34767 12.824857,3.37968 12.835295,3.432078 12.841551,3.463348 12.844907,3.51498 12.848665,3.546181 12.854698,3.598751 12.857724,3.62947 12.86143,3.683342 12.864138,3.713053 12.86603,3.76645 12.867012,3.796268 12.866583,3.849611 12.868508,3.879634 12.866252,3.909748 12.864328,3.962993 12.860389,3.99276 12.852377,4.045966 12.844792,4.076394 12.833001,4.129101 12.825063,4.15985 12.812625,4.211816 12.804993,4.245359 12.792042,4.294993 12.783239,4.329157 12.768326,4.378429 12.755826,4.415458 12.739714,4.461432 12.721285,4.500645 12.703658,4.543687 12.682793,4.583853 12.660757,4.626766 12.631125,4.673486 12.60817,4.710363 12.579517,4.759118 12.559375,4.793245 12.522164,4.846036 12.503738,4.875742 12.467852,4.929749 12.449156,4.956691 12.407123,5.009376 12.377771,5.045188 12.317202,5.103628 12.309767,5.111731 12.305275,5.115722 12.227208,5.180535 12.215554,5.187884 12.147411,5.228543 12.131775,5.239203 12.063312,5.273793 12.045773,5.282695 11.981566,5.310982 11.962857,5.317233 11.899706,5.335923 11.879695,5.341936 11.816753,5.35478 11.755057,5.357658 11.734501,5.361708 11.714181,5.363287 11.652021,5.363923 11.632027,5.363813 11.569106,5.356453 11.549585,5.356796 11.486133,5.354656 11.467664,5.354117 11.403106,5.343563 11.386292,5.342585 11.318635,5.336881 11.302748,5.334896 11.233684,5.328956 11.154054,5.333041 11.133502,5.330846 11.088712,5.358347 11.056875,5.359201 11.010109,5.440091 10.981086,5.508412 10.968055,5.531722 10.922301,5.613267 10.918466,5.620051 10.873954,5.693086 10.869643,5.699323 10.826912,5.773627 10.821451,5.780269 10.774702,5.841737 10.754483,5.867714 10.752907,5.870106 10.703845,5.949686 10.698984,5.955735 10.643513,6.032658 10.634818,6.043252 10.556463,6.119634 10.537657,6.13717 10.473108,6.203889 10.439776,6.232848 10.396228,6.287516 10.363812,6.320931 10.321071,6.374041 10.297296,6.408277 10.263607,6.457047 10.236583,6.493743 10.20001,6.534751 10.164968,6.579718 10.128071,6.619927 10.091677,6.667996 10.065476,6.701861 10.026847,6.753756 10.005486,6.785019 9.959819,6.845455 9.946579,6.870864 9.905379,6.925451 9.889009,6.951004 9.869476,6.97126 9.818967,7.015347 9.781678,7.04304 9.735859,7.07291 9.696618,7.094416 9.654137,7.113072 9.612712,7.12887 9.571489,7.146724 9.53134,7.160636 9.487577,7.17727 9.449374,7.190985 9.403116,7.212108 9.366961,7.225448 9.319579,7.24349 9.285269,7.256836 9.236765,7.270489 9.203859,7.279688 9.153104,7.290259 9.121247,7.296267 9.070973,7.304544 9.020397,7.315401 8.988222,7.322604 8.933461,7.343418 8.903554,7.35095 8.874319,7.360779 8.820973,7.370917 8.76613,7.378492 8.738173,7.383239 8.681558,7.403245 8.65434,7.409538 8.597058,7.424532 8.570981,7.431288 8.513235,7.439549 8.487892,7.443551 8.429753,7.449164 8.404786,7.452244 8.379822,7.455232 8.32241,7.450224 8.262826,7.467889 8.237912,7.482056 8.175962,7.5193 8.154041,7.533898 8.089654,7.556737 8.070828,7.562293 8.007191,7.572827 7.988331,7.576264 7.924915,7.578048 7.904991,7.580506 7.841981,7.582048 7.821458,7.583225 7.757345,7.59601 7.738852,7.598538 7.672913,7.614627 7.655422,7.619495 7.588713,7.635903 7.571918,7.63961 7.505542,7.648481 7.489068,7.654028 7.421518,7.664117 7.405762,7.667479 7.390104,7.666333 7.322128,7.664503 7.253306,7.679409 7.238911,7.678091 7.169395,7.695956 7.155617,7.697184 7.084624,7.711933 7.072207,7.713663 7.001294,7.722821 6.989115,7.725818 6.918498,7.738905 6.906004,7.742872 6.833261,7.757933 6.822473,7.761888 6.749814,7.772695 6.739237,7.776034 6.666223,7.78542 6.655468,7.786331 6.644663,7.78564 6.572248,7.78227 6.562009,7.780573 6.488539,7.764495 6.476166,7.760045 6.404981,7.73473 6.390148,7.727765 6.322151,7.70102 6.30576,7.694765 6.238593,7.663155 6.218403,7.6518 6.155312,7.620408 6.13348,7.608548 6.072605,7.571722 6.048212,7.557935 5.991389,7.521264 5.961016,7.498811 5.906644,7.460197 5.856708,7.424999 5.802269,7.373555 5.758883,7.338296 5.738092,7.318929 5.689266,7.256585 5.672331,7.233298 5.63659,7.172048 5.620085,7.144776 5.598198,7.089349 5.586554,7.060266 5.560976,7.005636 5.545589,6.972581 5.526829,6.922078 5.509922,6.886568 5.486864,6.838192 5.463448,6.799034 5.45648,6.755181 5.434195,6.712744 5.422332,6.672918 5.406022,6.630281 5.385798,6.589559 5.363657,6.543469 5.349271,6.505924 5.341922,6.459234 5.328451,6.423219 5.315789,6.375207 5.303097,6.340795 5.299788,6.288534 5.292877,6.255519 5.280161,6.203334 5.272631,6.172452 5.25952,6.118655 5.255938,6.089341 5.235339,6.0336 5.228495,6.00604 5.214309,5.948925 5.192139,5.910263 5.161498,5.871315 5.110185,5.833667 5.07846,5.814135 5.025203,5.807519 4.995439,5.807501 4.941657,5.800797 4.912304,5.797151 4.88287,5.808058 4.829174,5.814707 4.799394,5.814707 4.745852,5.821318 4.71564,5.825047 4.662198,5.821284 4.631218,5.823211 4.578846,5.82989 4.547684,5.833704 4.495592,5.84584 4.463565,5.850116 4.412418,5.860041 4.379182,5.86389 4.329472,5.870505 4.279285,5.866977 4.246978,5.865476 4.196618,5.864951 4.164029,5.862317 4.113087,5.860155 4.081242,5.855753 4.029802,5.844568 3.998625,5.834465 3.944799,5.821321 3.916282,5.816379 3.858245,5.792634 3.831565,5.783814 3.772537,5.753552 3.748982,5.741888 3.688254,5.701168 3.667531,5.685916 3.601813,5.63609 3.585202,5.623462 3.515575,5.571216 3.502923,5.561856 3.4421,5.512185 3.438614,5.508753 3.365896,5.42576 3.359586,5.416615 3.31496,5.342466 3.308999,5.329923 3.273483,5.259971 3.268118,5.244908 3.25187,5.176443 3.245698,5.159431 3.222559,5.092799 3.214374,5.075534 3.191157,5.010089 3.183177,4.987917 3.160563,4.926644 3.153718,4.903403 3.131376,4.844037 3.125193,4.818125 3.116431,4.759445 3.117693,4.730704 3.108787,4.67497 3.109959,4.647308 3.103325,4.591483 3.105242,4.563391 3.089084,4.507852 3.091917,4.480589 3.077372,4.423851 3.08376,4.367069 3.089762,4.339948 3.11256,4.274045 3.119762,4.250231 3.135544,4.19088 3.145173,4.171022 3.175483,4.105554 3.186801,4.087726 3.181562,4.009123 3.195868,3.985993 3.190544,3.932933 3.180803,3.89205 3.170481,3.846608 3.175187,3.786012 3.170433,3.756071 3.17312,3.685212 3.25025,3.626341 3.350984,3.404963 3.387223,3.307992 3.386227,3.274566 3.395014,3.259104 3.419274,3.22865 3.427079,3.219714 3.439148,3.180885 3.479535,3.149583 3.477712,3.10172 3.512913,3.067026 3.509528,3.00842 3.516831,2.953017 3.515346,2.886784 3.51808,2.839154 3.519481,2.768156 3.522888,2.728118 3.52659,2.691551 3.52738,2.677361 3.529484,2.662638 3.53489,2.62312 3.547068,2.54537 3.551886,2.523566 3.573601,2.451245 3.578397,2.434668 3.602581,2.353061 3.606532,2.343583 3.638234,2.267703 3.640957,2.261798 3.677698,2.183984 3.67885,2.181542 3.714642,2.117754 3.720945,2.106549 3.721183,2.10616 3.770355,2.038532 3.771861,2.036567 3.819191,1.96795 3.822575,1.964121 3.873925,1.905342 3.878151,1.900212 3.927404,1.839841 3.933244,1.833727 3.985001,1.779061 4.038813,1.7297 4.047447,1.722974 4.105275,1.678234 4.114489,1.671722 4.182203,1.632026 4.188233,1.628681 4.199918,1.623522 4.257924,1.5973 4.28519,1.588091 4.341595,1.567011 4.37018,1.563203 4.424817,1.555184 4.45352,1.554058 4.508643,1.549655 4.563247,1.553686 4.591928,1.554451 4.647062,1.562684 4.67532,1.566941 4.732011,1.579516 4.759041,1.585953 4.815643,1.602942 4.841523,1.610185 4.901206,1.631939 4.925432,1.642885 4.98828,1.671898 5.009272,1.682061 5.072311,1.708406 5.091341,1.715982 5.155896,1.743443 5.173351,1.750048 5.243652,1.77983 5.257869,1.785484 5.329071,1.811156 5.341375,1.816695 5.412947,1.837583 5.423786,1.840025 5.504374,1.848906 5.588691,1.803053 5.596741,1.794931 5.622784,1.765645 5.64367,1.739925 5.681783,1.705627 5.70172,1.677898 5.727746,1.634112 5.747223,1.602276 5.775404,1.564532 5.796436,1.530666 5.819717,1.491367 5.844169,1.458013 5.868073,1.421934 5.893207,1.384302 5.917427,1.353084 5.944369,1.313716 5.964837,1.281822 5.994557,1.242806 6.013937,1.213247 6.041438,1.167902 6.058681,1.140298 6.087976,1.093017 6.104752,1.069315 6.137405,1.023229 6.152283,0.999752 6.186839,0.952344 6.200216,0.930572 6.23916,0.883419 6.25278,0.865142 6.295687,0.820602 6.30864,0.803555 6.353906,0.759 6.366504,0.743493 6.381465,0.730975 6.427398,0.686542 6.48331,0.649583 6.501821,0.636822 6.508915,0.635021 6.588722,0.619466 6.596726,0.619419 6.673525,0.615227 6.683556,0.614424 6.709493,0.604462 6.786569,0.574932 6.804718,0.559751 6.856435,0.527782 6.877977,0.516043 6.899833,0.502811 6.920916,0.488715 6.936929,0.481725 7.005094,0.462695 7.026655,0.458032 7.08712,0.437501 7.106021,0.433614 7.171003,0.402424 7.194075,0.396658 7.253957,0.389202 7.278295,0.381945 7.337405,0.38476 7.397443,0.394331 7.420432,0.391142 7.48292,0.407507 7.504007,0.407461 7.564814,0.413845 7.586892,0.412153 7.646405,0.398936 7.668918,0.392379 7.727874,0.378678 7.752244,0.370857 7.810781,0.356341 7.835944,0.352312 7.89256,0.345517" style="fill: white" />
</svg>
