<svg width="12.953712" height="10.039674">
<polygon type="contour" points="3.760261,4.259309 3.771271,4.260502 3.843164,4.259274 3.854113,4.261844 3.92556,4.270932 3.93721,4.274592 4.008808,4.292334 4.020169,4.29852 4.092743,4.322545 4.100382,4.326702 4.168469,4.350037 4.177523,4.357853 4.253671,4.407837 4.263774,4.418285 4.321111,4.467585 4.332581,4.480497 4.375617,4.535995 4.387023,4.549253 4.431706,4.602697 4.443439,4.613981 4.487613,4.666722 4.501526,4.675459 4.517704,4.681773 4.564644,4.730354 4.621566,4.763107 4.638867,4.768259 4.69684,4.797992 4.716876,4.800606 4.773954,4.824367 4.80861,4.81401 4.872597,4.831804 4.900687,4.82862 4.965201,4.849389 4.985299,4.853026 5.04771,4.8665 5.070938,4.873081 5.13026,4.896876 5.152314,4.902861 5.210827,4.921102 5.234738,4.928636 5.292164,4.947448 5.317223,4.954063 5.381885,4.958261 5.407579,4.969178 5.478663,4.960249 5.505888,4.971874 5.579249,4.974636 5.6012,4.984171 5.662286,4.997458 5.684646,5.008907 5.737093,5.032826 5.759825,5.045852 5.814533,5.063985 5.836817,5.079937 5.892118,5.101365 5.914857,5.114413 5.966223,5.138486 5.987634,5.154024 6.036342,5.178619 6.058736,5.195894 6.078996,5.215736 6.125833,5.247002 6.176372,5.269891 6.196689,5.290715 6.238605,5.323797 6.260618,5.344037 6.30466,5.374109 6.325724,5.396375 6.365913,5.430484 6.386974,5.453318 6.419739,5.49314 6.437853,5.526067 6.472731,5.567856 6.483953,5.600487 6.550117,5.682851 6.555254,5.692199 6.557441,5.698614 6.578202,5.755518 6.590868,5.7911 6.586405,5.817302 6.562411,5.873391 6.5472,5.892595 6.513948,5.927223 6.476576,5.935892 6.431696,5.95468 6.405482,5.961061 6.344395,5.976401 6.330119,5.976101 6.25879,5.998481 6.257621,5.998781 6.257413,5.998834 6.175111,5.9965 6.156118,6.001746 6.099778,6.007705 6.062719,6.014149 6.021375,6.014838 5.962247,6.019217 5.939603,6.017713 5.867178,6.028701 5.864863,6.028785 5.8546,6.029976 5.785319,6.035705 5.7706,6.038973 5.707779,6.043165 5.673103,6.046454 5.629429,6.048075 5.57517,6.052327 5.546443,6.051101 5.482093,6.051026 5.464681,6.050731 5.459279,6.051282 5.378667,6.055559 5.366447,6.056082 5.297472,6.045663 5.227916,6.036663 5.20769,6.034079 5.134347,6.023614 5.124823,6.022678 5.051043,6.012201 5.041793,6.011703 4.966589,6.005099 4.958099,6.00388 4.882269,5.986715 4.874502,5.985305 4.796802,5.969054 4.790273,5.968114 4.717866,5.949886 4.710072,5.947923 4.627993,5.899686 4.622574,5.898286 4.544611,5.868354 4.539203,5.865599 4.460804,5.825173 4.456225,5.823281 4.377033,5.783439 4.372666,5.781403 4.292528,5.731841 4.289077,5.730438 4.209035,5.689421 4.20585,5.687885 4.125737,5.636134 4.122725,5.634588 4.041942,5.582982 4.03974,5.58156 4.037577,5.580183 3.955085,5.519587 3.953339,5.518409 3.87294,5.465169 3.871866,5.464349 3.773815,5.377381 3.758299,5.36514 3.72416,5.3366 3.642918,5.264969 3.61661,5.238223 3.583399,5.206403 3.527709,5.146901 3.504058,5.124671 3.459839,5.08006 3.427593,5.047019 3.39764,5.002121 3.36344,4.964361 3.334496,4.918864 3.307914,4.884969 3.296496,4.840699 3.275159,4.802481 3.266079,4.756353 3.252473,4.720197 3.253846,4.677245 3.242427,4.637214 3.260614,4.566869 3.263337,4.538828 3.268589,4.521418 3.278785,4.503394 3.313837,4.454932 3.354593,4.414879 3.408311,4.362812 3.454949,4.33861 3.495198,4.318369 3.551247,4.298424 3.592762,4.287491 3.66329,4.272302 3.676522,4.270555 3.749633,4.258697" style="fill: white" /><polygon type="contour" points="1.941247,5.56291 2.009167,5.585832 2.065628,5.619349 2.073128,5.623409 2.077985,5.628584 2.093049,5.644697 2.168133,5.717276 2.235729,5.810469 2.237054,5.812033 2.239276,5.815452 2.300165,5.909097 2.316751,5.940868 2.360137,6.006942 2.389313,6.065645 2.410845,6.108546 2.448618,6.182799 2.462231,6.209635 2.508833,6.300247 2.514055,6.31056 2.556169,6.409294 2.558556,6.414149 2.597435,6.516517 2.598626,6.51948 2.637849,6.6231 2.638466,6.624763 2.639037,6.626759 2.659857,6.713212 2.675805,6.766892 2.685531,6.8031 2.687872,6.854192 2.691137,6.883787 2.700091,6.936912 2.706462,6.96761 2.711239,7.020768 2.716328,7.051469 2.722066,7.104027 2.726664,7.13514 2.728163,7.187054 2.732484,7.217943 2.738896,7.270426 2.742418,7.301874 2.742533,7.353705 2.74219,7.405654 2.742881,7.436943 2.745653,7.468648 2.746601,7.520326 2.751066,7.57156 2.749062,7.603329 2.751842,7.635185 2.747011,7.686762 2.740395,7.738427 2.73826,7.77 2.74066,7.801687 2.738549,7.85313 2.735583,7.884953 2.725291,7.937676 2.7225,7.988259 2.721257,8.020124 2.717812,8.052355 2.711488,8.103153 2.707382,8.135779 2.700598,8.186745 2.696143,8.219541 2.688826,8.269619 2.68459,8.303002 2.676959,8.352871 2.679267,8.386022 2.672813,8.435823 2.669782,8.469828 2.668901,8.519054 2.665467,8.55331 2.654242,8.602773 2.650057,8.637638 2.64283,8.685488 2.640813,8.733552 2.639101,8.768449 2.637504,8.803106 2.631761,8.851442 2.628973,8.887209 2.623914,8.93445 2.624119,8.980967 2.623948,9.017554 2.621927,9.064211 2.619973,9.100525 2.620651,9.13691 2.617229,9.183808 2.617381,9.229793 2.618107,9.267242 2.617975,9.346792 2.616994,9.367149 2.617241,9.383788 2.613584,9.46065 2.612397,9.512565 2.600613,9.546504 2.59515,9.623 2.57893,9.630535 2.464297,9.665223 2.403991,9.65405 2.364656,9.65246 2.322385,9.615198 2.30347,9.608284 2.25714,9.554037 2.237347,9.530821 2.212025,9.469208 2.191854,9.404912 2.183999,9.381332 2.163781,9.31934 2.157914,9.297771 2.141944,9.236924 2.13474,9.214516 2.115538,9.152649 2.108059,9.130214 2.092962,9.06979 2.087864,9.047148 2.084823,9.024532 2.064694,8.963442 2.057282,8.940341 2.043301,8.879857 2.039857,8.856936 2.024916,8.798651 2.018934,8.772804 2.00549,8.713806 1.999948,8.690069 1.984127,8.630925 1.976357,8.606675 1.95659,8.547038 1.952556,8.523038 1.937754,8.46435 1.931966,8.439841 1.917905,8.381156 1.911968,8.356459 1.897778,8.298082 1.891852,8.273188 1.877904,8.214883 1.872017,8.189665 1.852542,8.131187 1.846564,8.105541 1.832202,8.04822 1.826327,8.022259 1.812494,7.964983 1.806099,7.938928 1.792587,7.881786 1.789036,7.85555 1.770234,7.798136 1.761718,7.77081 1.747104,7.715161 1.740657,7.687891 1.718164,7.63281 1.710865,7.606774 1.684112,7.549802 1.677269,7.523591 1.653631,7.467792 1.644631,7.442392 1.606303,7.383702 1.596607,7.357608 1.554881,7.299356 1.544158,7.271503 1.51051,7.216426 1.492056,7.187618 1.458408,7.132103 1.435347,7.101331 1.416341,7.049469 1.395823,7.020284 1.38428,6.967654 1.371994,6.939995 1.376684,6.883111 1.369695,6.852948 1.37599,6.799575 1.372115,6.769535 1.378388,6.716471 1.382472,6.686163 1.389413,6.633409 1.392708,6.602529 1.402677,6.549751 1.406671,6.518011 1.417811,6.466259 1.421842,6.433655 1.42923,6.383135 1.435354,6.349884 1.453191,6.258329 1.464385,6.213663 1.469398,6.199735 1.484892,6.119381 1.48983,6.108246 1.515334,6.032819 1.53947,5.954748 1.55087,5.93909 1.587905,5.873264 1.593366,5.866696 1.633244,5.815456 1.661547,5.780767 1.70065,5.73222 1.733715,5.693143 1.773175,5.658676 1.84081,5.588969 1.844073,5.585782 1.84585,5.584465 1.888295,5.574068 1.938122,5.562163" style="fill: white" />
</svg>
