<svg width="12.953712" height="10.039674">
<polygon type="contour" points="6.202569,6.145216 6.212166,6.158432 6.309199,6.261013 6.317436,6.273559 6.359606,6.331276 6.364918,6.34028 6.370708,6.348542 6.420446,6.432599 6.460981,6.48798 6.468174,6.498496 6.475621,6.508836 6.491573,6.542692 6.531531,6.599654 6.540878,6.616654 6.545997,6.633133 6.585496,6.717518 6.588211,6.729885 6.621318,6.821345 6.620168,6.853208 6.658453,6.928553 6.598667,6.979553 6.574166,6.943943 6.509668,6.907301 6.483854,6.885681 6.468375,6.879365 6.413145,6.814977 6.346102,6.748128 6.343856,6.744826 6.339923,6.740066 6.274546,6.651068 6.269772,6.644876 6.212847,6.565287 6.209115,6.55996 6.169615,6.481755 6.16445,6.474146 6.142569,6.43857 6.133103,6.35556 6.105178,6.297188 6.094706,6.216325 6.090398,6.196571 6.082836,6.140314 6.124703,6.129727 6.166426,6.099921" style="fill: white" />
</svg>
