<svg width="12.953712" height="10.039674">
<polygon type="contour" points="5.230897,5.204313 5.261341,5.195172 5.318756,5.243103 5.342954,5.247561 5.372558,5.27625 5.399782,5.295443 5.435348,5.342519 5.463584,5.370965 5.496747,5.419565 5.515723,5.445025 5.549605,5.491898 5.568857,5.514958 5.602407,5.56209 5.620686,5.587556 5.652789,5.635348 5.670055,5.663386 5.702569,5.710754 5.721444,5.734312 5.756295,5.777757 5.774915,5.802839 5.810815,5.847468 5.830325,5.871149 5.86851,5.90937 5.887464,5.934323 5.928421,5.969879 5.949581,5.990601 5.990319,6.026167 6.012218,6.04606 6.054593,6.079112 6.076798,6.098574 6.118641,6.133404 6.140801,6.152909 6.182975,6.187032 6.227352,6.218133 6.250313,6.235643 6.29381,6.267778 6.31576,6.287912 6.358606,6.32207 6.381263,6.339322 6.426823,6.36799 6.449435,6.386999 6.492263,6.421082 6.514853,6.438543 6.558863,6.470087 6.581806,6.488286 6.625623,6.5195 6.647917,6.538541 6.690977,6.570576 6.713271,6.589229 6.753777,6.627053 6.774296,6.648282 6.814406,6.685457 6.83502,6.705761 6.873464,6.742969 6.894479,6.765034 6.931947,6.809534 6.951055,6.831312 6.982526,6.869877 7.001006,6.89344 7.028928,6.941375 7.045342,6.971609 7.070083,7.025598 7.087543,7.064648 7.107767,7.120979 7.116914,7.14534 7.128709,7.204883 7.110404,7.253455 7.109838,7.287255 7.065527,7.311387 7.047959,7.329557 7.022916,7.329774 6.955862,7.319737 6.92052,7.301478 6.861842,7.263982 6.830128,7.239411 6.774927,7.2005 6.743182,7.177162 6.691196,7.136886 6.660792,7.11257 6.611483,7.075543 6.582126,7.051613 6.528488,7.005577 6.49809,6.981976 6.44561,6.948582 6.415194,6.928795 6.363301,6.894733 6.331675,6.868203 6.279725,6.834582 6.249666,6.813762 6.197744,6.780379 6.166315,6.757074 6.114373,6.723896 6.083703,6.703186 6.031768,6.670572 5.979553,6.638703 5.947172,6.615447 5.8969,6.587737 5.865982,6.57049 5.815444,6.537217 5.783081,6.51288 5.731332,6.475292 5.69918,6.450511 5.649886,6.416754 5.632139,6.403679 5.53073,6.330232 5.52446,6.324866 5.518099,6.31994 5.439328,6.258814 5.41845,6.243021 5.318872,6.157996 5.307281,6.146194 5.297586,6.136094 5.234503,6.076852 5.184757,6.028607 5.153136,5.998234 5.092731,5.934565 5.049132,5.888801 5.026029,5.854067 4.978915,5.805915 4.954146,5.768783 4.91632,5.722151 4.902987,5.691709 4.880775,5.647237 4.872818,5.591208 4.866016,5.575211 4.867541,5.481338 4.874151,5.452539 4.917933,5.338383 4.946786,5.306626 4.993411,5.263105 5.014771,5.253578 5.07712,5.215538 5.099925,5.207641 5.137871,5.197156 5.175676,5.17998" style="fill: white" /><polygon type="contour" points="1.711926,8.516113 1.755928,8.536239 1.785704,8.548892 1.819231,8.554196 1.853281,8.585657 1.909694,8.625784 1.939232,8.646212 1.961541,8.665317 2.029163,8.73534 2.047993,8.753009 2.060678,8.765019 2.134818,8.841136 2.217153,8.916494 2.227999,8.927301 2.234223,8.936612 2.299744,9.021283 2.370178,9.098976 2.380956,9.112408 2.399857,9.139233 2.444845,9.2097 2.460011,9.233754 2.510222,9.306743 2.544115,9.367753 2.567336,9.407088 2.60763,9.487728 2.619389,9.50881 2.626376,9.522613 2.671895,9.607155 2.685655,9.659666 2.702345,9.700549 2.714373,9.755871 2.72473,9.796369 2.735832,9.856001 2.743356,9.911353 2.723068,9.95815 2.701215,9.991469 2.635261,9.99757 2.629724,9.997738 2.624909,9.996531 2.474289,9.962555 2.452015,9.95217 2.395766,9.913072 2.364812,9.884713 2.313004,9.835845 2.281812,9.804117 2.233151,9.759695 2.212937,9.73313 2.19231,9.705691 2.12994,9.637199 2.11546,9.620329 2.047513,9.550936 2.033301,9.533204 1.971555,9.471821 1.95704,9.456825 1.879058,9.385614 1.864101,9.369884 1.798661,9.307944 1.788045,9.296599 1.648078,9.216485 1.631464,9.202747 1.521319,9.137345 1.49761,9.124395 1.421146,9.059985 1.414271,9.055195 1.375285,8.971203 1.366161,8.960132 1.358173,8.89197 1.356313,8.884376 1.380599,8.835554 1.382937,8.758413 1.404417,8.730758 1.425031,8.680405 1.494938,8.608983 1.500761,8.604556 1.512513,8.593939 1.569527,8.544584 1.5969,8.522061 1.663081,8.503269 1.683577,8.500992" style="fill: white" />
</svg>
