<?xml version="1.0" encoding="UTF-8" standalone="yes"?>
<!DOCTYPE svg PUBLIC "-//W3C//DTD SVG 1.0//EN" "http://www.w3.org/TR/2001/REC-SVG-20010904/DTD/svg10.dtd">
<svg width="23.273864" height="23.273864" xmlns="http://www.w3.org/2000/svg" xmlns:svg="http://www.w3.org/2000/svg" xmlns:xlink="http://www.w3.org/1999/xlink" xmlns:slic3r="http://slic3r.org/namespaces/slic3r">
  <!-- 
  Generated using Slic3r 1.2.6
  http://slic3r.org/
   -->
  <g id="layer0" slic3r:z="1.75e-07">
    <polygon slic3r:type="contour" points="10.886932,0.636932 12.386932,0.636932 12.386932,0.174999 12.886932,0.174999 12.886932,1.636932 21.636932,1.636932 21.636932,10.386932 23.098864,10.386932 23.098864,10.886932 22.636932,10.886932 22.636932,12.386932 23.098864,12.386932 23.098864,12.886932 21.636932,12.886932 21.636932,21.636932 12.886932,21.636932 12.886932,23.098864 12.386932,23.098864 12.386932,22.636932 10.886932,22.636932 10.886932,23.098864 10.386932,23.098864 10.386932,21.636932 1.636932,21.636932 1.636932,12.886932 0.175,12.886932 0.175,12.386932 0.636932,12.386932 0.636932,10.886932 0.175,10.886932 0.175,10.386932 1.636932,10.386932 1.636932,1.636932 10.386932,1.636932 10.386932,0.174999 10.886932,0.174999" style="fill: white" />
  </g>
  <g id="layer1" slic3r:z="4e-07">
    <polygon slic3r:type="contour" points="10.886932,0.636932 12.386932,0.636932 12.386932,0.399999 12.886932,0.399999 12.886932,1.636932 21.636932,1.636932 21.636932,10.386932 22.873864,10.386932 22.873864,10.886932 22.636932,10.886932 22.636932,12.386932 22.873864,12.386932 22.873864,12.886932 21.636932,12.886932 21.636932,21.636932 12.886932,21.636932 12.886932,22.873864 12.386932,22.873864 12.386932,22.636932 10.886932,22.636932 10.886932,22.873864 10.386932,22.873864 10.386932,21.636932 1.636932,21.636932 1.636932,12.886932 0.4,12.886932 0.4,12.386932 0.636932,12.386932 0.636932,10.886932 0.4,10.886932 0.4,10.386932 1.636932,10.386932 1.636932,1.636932 10.386932,1.636932 10.386932,0.399999 10.886932,0.399999" style="fill: white" />
  </g>
  <g id="layer2" slic3r:z="5e-07">
    <polygon slic3r:type="contour" points="10.886932,0.636932 12.386932,0.636932 12.386932,0.499999 12.886932,0.499999 12.886932,1.636932 21.636932,1.636932 21.636932,10.386932 22.773864,10.386932 22.773864,10.886932 22.636932,10.886932 22.636932,12.386932 22.773864,12.386932 22.773864,12.886932 21.636932,12.886932 21.636932,21.636932 12.886932,21.636932 12.886932,22.773864 12.386932,22.773864 12.386932,22.636932 10.886932,22.636932 10.886932,22.773864 10.386932,22.773864 10.386932,21.636932 1.636932,21.636932 1.636932,12.886932 0.5,12.886932 0.5,12.386932 0.636932,12.386932 0.636932,10.886932 0.5,10.886932 0.5,10.386932 1.636932,10.386932 1.636932,1.636932 10.386932,1.636932 10.386932,0.499999 10.886932,0.499999" style="fill: white" />
  </g>
  <g id="layer3" slic3r:z="6e-07">
    <polygon slic3r:type="contour" points="10.886932,1.13033 12.386932,1.13033 12.386932,0.599999 12.886932,0.599999 12.886932,1.636932 21.636932,1.636932 21.636932,10.386932 22.673864,10.386932 22.673864,10.886932 22.143534,10.886932 22.143534,12.386932 22.673864,12.386932 22.673864,12.886932 21.636932,12.886932 21.636932,21.636932 12.886932,21.636932 12.886932,22.673864 12.386932,22.673864 12.386932,22.143534 10.886932,22.143534 10.886932,22.673864 10.386932,22.673864 10.386932,21.636932 1.636932,21.636932 1.636932,12.886932 0.6,12.886932 0.6,12.386932 1.13033,12.386932 1.13033,10.886932 0.6,10.886932 0.6,10.386932 1.636932,10.386932 1.636932,1.636932 10.386932,1.636932 10.386932,0.599999 10.886932,0.599999" style="fill: white" />
  </g>
  <g id="layer4" slic3r:z="7e-07">
    <polygon slic3r:type="contour" points="10.886932,1.136932 12.386932,1.136932 12.386932,0.699999 12.886932,0.699999 12.886932,1.636932 21.636932,1.636932 21.636932,10.386932 22.573864,10.386932 22.573864,10.886932 22.136932,10.886932 22.136932,12.386932 22.573864,12.386932 22.573864,12.886932 21.636932,12.886932 21.636932,21.636932 12.886932,21.636932 12.886932,22.573864 12.386932,22.573864 12.386932,22.136932 10.886932,22.136932 10.886932,22.573864 10.386932,22.573864 10.386932,21.636932 1.636932,21.636932 1.636932,12.886932 0.7,12.886932 0.7,12.386932 1.136932,12.386932 1.136932,10.886932 0.7,10.886932 0.7,10.386932 1.636932,10.386932 1.636932,1.636932 10.386932,1.636932 10.386932,0.699999 10.886932,0.699999" style="fill: white" />
  </g>
  <g id="layer5" slic3r:z="8e-07">
    <polygon slic3r:type="contour" points="10.886932,1.136932 12.386932,1.136932 12.386932,0.799999 12.886932,0.799999 12.886932,1.636932 21.636932,1.636932 21.636932,10.386932 22.473864,10.386932 22.473864,10.886932 22.136932,10.886932 22.136932,12.386932 22.473864,12.386932 22.473864,12.886932 21.636932,12.886932 21.636932,21.636932 12.886932,21.636932 12.886932,22.473864 12.386932,22.473864 12.386932,22.136932 10.886932,22.136932 10.886932,22.473864 10.386932,22.473864 10.386932,21.636932 1.636932,21.636932 1.636932,12.886932 0.8,12.886932 0.8,12.386932 1.136932,12.386932 1.136932,10.886932 0.8,10.886932 0.8,10.386932 1.636932,10.386932 1.636932,1.636932 10.386932,1.636932 10.386932,0.799999 10.886932,0.799999" style="fill: white" />
  </g>
  <g id="layer6" slic3r:z="9e-07">
    <polygon slic3r:type="contour" points="10.886932,1.136932 12.386932,1.136932 12.386932,0.899999 12.886932,0.899999 12.886932,1.636932 21.636932,1.636932 21.636932,10.386932 22.373864,10.386932 22.373864,10.886932 22.136932,10.886932 22.136932,12.386932 22.373864,12.386932 22.373864,12.886932 21.636932,12.886932 21.636932,21.636932 12.886932,21.636932 12.886932,22.373864 12.386932,22.373864 12.386932,22.136932 10.886932,22.136932 10.886932,22.373864 10.386932,22.373864 10.386932,21.636932 1.636932,21.636932 1.636932,12.886932 0.9,12.886932 0.9,12.386932 1.136932,12.386932 1.136932,10.886932 0.9,10.886932 0.9,10.386932 1.636932,10.386932 1.636932,1.636932 10.386932,1.636932 10.386932,0.899999 10.886932,0.899999" style="fill: white" />
  </g>
  <g id="layer7" slic3r:z="1e-06">
    <polygon slic3r:type="contour" points="10.886932,1.136932 12.386932,1.136932 12.386932,0.999999 12.886932,0.999999 12.886932,1.636932 21.636932,1.636932 21.636932,10.386932 22.273864,10.386932 22.273864,10.886932 22.136932,10.886932 22.136932,12.386932 22.273864,12.386932 22.273864,12.886932 21.636932,12.886932 21.636932,21.636932 12.886932,21.636932 12.886932,22.273864 12.386932,22.273864 12.386932,22.136932 10.886932,22.136932 10.886932,22.273864 10.386932,22.273864 10.386932,21.636932 1.636932,21.636932 1.636932,12.886932 1,12.886932 1,12.386932 1.136932,12.386932 1.136932,10.886932 1,10.886932 1,10.386932 1.636932,10.386932 1.636932,1.636932 10.386932,1.636932 10.386932,0.999999 10.886932,0.999999" style="fill: white" />
  </g>
  <g id="layer8" slic3r:z="1.1e-06">
    <polygon slic3r:type="contour" points="10.886932,1.63033 12.386932,1.63033 12.386932,1.099999 12.886932,1.099999 12.886932,2.636932 20.636932,2.636932 20.636932,10.386932 22.173864,10.386932 22.173864,10.886932 21.643534,10.886932 21.643534,12.386932 22.173864,12.386932 22.173864,12.886932 20.636932,12.886932 20.636932,20.636932 12.886932,20.636932 12.886932,22.173864 12.386932,22.173864 12.386932,21.643534 10.886932,21.643534 10.886932,22.173864 10.386932,22.173864 10.386932,20.636932 2.636932,20.636932 2.636932,12.886932 1.1,12.886932 1.1,12.386932 1.63033,12.386932 1.63033,10.886932 1.1,10.886932 1.1,10.386932 2.636932,10.386932 2.636932,2.636932 10.386932,2.636932 10.386932,1.099999 10.886932,1.099999" style="fill: white" />
  </g>
  <g id="layer9" slic3r:z="1.2e-06">
    <polygon slic3r:type="contour" points="10.886932,1.636932 12.386932,1.636932 12.386932,1.199999 12.886932,1.199999 12.886932,2.636932 20.636932,2.636932 20.636932,10.386932 22.073864,10.386932 22.073864,10.886932 21.636932,10.886932 21.636932,12.386932 22.073864,12.386932 22.073864,12.886932 20.636932,12.886932 20.636932,20.636932 12.886932,20.636932 12.886932,22.073864 12.386932,22.073864 12.386932,21.636932 10.886932,21.636932 10.886932,22.073864 10.386932,22.073864 10.386932,20.636932 2.636932,20.636932 2.636932,12.886932 1.2,12.886932 1.2,12.386932 1.636932,12.386932 1.636932,10.886932 1.2,10.886932 1.2,10.386932 2.636932,10.386932 2.636932,2.636932 10.386932,2.636932 10.386932,1.199999 10.886932,1.199999" style="fill: white" />
  </g>
  <g id="layer10" slic3r:z="1.3e-06">
    <polygon slic3r:type="contour" points="10.886932,1.636932 12.386932,1.636932 12.386932,1.299999 12.886932,1.299999 12.886932,2.636932 20.636932,2.636932 20.636932,10.386932 21.973864,10.386932 21.973864,10.886932 21.636932,10.886932 21.636932,12.386932 21.973864,12.386932 21.973864,12.886932 20.636932,12.886932 20.636932,20.636932 12.886932,20.636932 12.886932,21.973864 12.386932,21.973864 12.386932,21.636932 10.886932,21.636932 10.886932,21.973864 10.386932,21.973864 10.386932,20.636932 2.636932,20.636932 2.636932,12.886932 1.3,12.886932 1.3,12.386932 1.636932,12.386932 1.636932,10.886932 1.3,10.886932 1.3,10.386932 2.636932,10.386932 2.636932,2.636932 10.386932,2.636932 10.386932,1.299999 10.886932,1.299999" style="fill: white" />
  </g>
  <g id="layer11" slic3r:z="1.4e-06">
    <polygon slic3r:type="contour" points="10.886932,1.636932 12.386932,1.636932 12.386932,1.399999 12.886932,1.399999 12.886932,2.636932 20.636932,2.636932 20.636932,10.386932 21.873864,10.386932 21.873864,10.886932 21.636932,10.886932 21.636932,12.386932 21.873864,12.386932 21.873864,12.886932 20.636932,12.886932 20.636932,20.636932 12.886932,20.636932 12.886932,21.873864 12.386932,21.873864 12.386932,21.636932 10.886932,21.636932 10.886932,21.873864 10.386932,21.873864 10.386932,20.636932 2.636932,20.636932 2.636932,12.886932 1.4,12.886932 1.4,12.386932 1.636932,12.386932 1.636932,10.886932 1.4,10.886932 1.4,10.386932 2.636932,10.386932 2.636932,2.636932 10.386932,2.636932 10.386932,1.399999 10.886932,1.399999" style="fill: white" />
  </g>
  <g id="layer12" slic3r:z="1.5e-06">
    <polygon slic3r:type="contour" points="10.886932,1.636932 12.386932,1.636932 12.386932,1.499999 12.886932,1.499999 12.886932,2.636932 20.636932,2.636932 20.636932,10.386932 21.773864,10.386932 21.773864,10.886932 21.636932,10.886932 21.636932,12.386932 21.773864,12.386932 21.773864,12.886932 20.636932,12.886932 20.636932,20.636932 12.886932,20.636932 12.886932,21.773864 12.386932,21.773864 12.386932,21.636932 10.886932,21.636932 10.886932,21.773864 10.386932,21.773864 10.386932,20.636932 2.636932,20.636932 2.636932,12.886932 1.5,12.886932 1.5,12.386932 1.636932,12.386932 1.636932,10.886932 1.5,10.886932 1.5,10.386932 2.636932,10.386932 2.636932,2.636932 10.386932,2.636932 10.386932,1.499999 10.886932,1.499999" style="fill: white" />
  </g>
  <g id="layer13" slic3r:z="1.6e-06">
    <polygon slic3r:type="contour" points="10.886932,2.13033 12.386932,2.13033 12.386932,1.599999 12.886932,1.599999 12.886932,2.636932 20.636932,2.636932 20.636932,10.386932 21.673864,10.386932 21.673864,10.886932 21.143534,10.886932 21.143534,12.386932 21.673864,12.386932 21.673864,12.886932 20.636932,12.886932 20.636932,20.636932 12.886932,20.636932 12.886932,21.673864 12.386932,21.673864 12.386932,21.143534 10.886932,21.143534 10.886932,21.673864 10.386932,21.673864 10.386932,20.636932 2.636932,20.636932 2.636932,12.886932 1.6,12.886932 1.6,12.386932 2.13033,12.386932 2.13033,10.886932 1.6,10.886932 1.6,10.386932 2.636932,10.386932 2.636932,2.636932 10.386932,2.636932 10.386932,1.599999 10.886932,1.599999" style="fill: white" />
  </g>
  <g id="layer14" slic3r:z="1.7e-06">
    <polygon slic3r:type="contour" points="10.886932,2.136932 12.386932,2.136932 12.386932,1.699999 12.886932,1.699999 12.886932,2.636932 20.636932,2.636932 20.636932,10.386932 21.573864,10.386932 21.573864,10.886932 21.136932,10.886932 21.136932,12.386932 21.573864,12.386932 21.573864,12.886932 20.636932,12.886932 20.636932,20.636932 12.886932,20.636932 12.886932,21.573864 12.386932,21.573864 12.386932,21.136932 10.886932,21.136932 10.886932,21.573864 10.386932,21.573864 10.386932,20.636932 2.636932,20.636932 2.636932,12.886932 1.7,12.886932 1.7,12.386932 2.136932,12.386932 2.136932,10.886932 1.7,10.886932 1.7,10.386932 2.636932,10.386932 2.636932,2.636932 10.386932,2.636932 10.386932,1.699999 10.886932,1.699999" style="fill: white" />
  </g>
  <g id="layer15" slic3r:z="1.8e-06">
    <polygon slic3r:type="contour" points="10.886932,2.136932 12.386932,2.136932 12.386932,1.799999 12.886932,1.799999 12.886932,2.636932 20.636932,2.636932 20.636932,10.386932 21.473864,10.386932 21.473864,10.886932 21.136932,10.886932 21.136932,12.386932 21.473864,12.386932 21.473864,12.886932 20.636932,12.886932 20.636932,20.636932 12.886932,20.636932 12.886932,21.473864 12.386932,21.473864 12.386932,21.136932 10.886932,21.136932 10.886932,21.473864 10.386932,21.473864 10.386932,20.636932 2.636932,20.636932 2.636932,12.886932 1.8,12.886932 1.8,12.386932 2.136932,12.386932 2.136932,10.886932 1.8,10.886932 1.8,10.386932 2.636932,10.386932 2.636932,2.636932 10.386932,2.636932 10.386932,1.799999 10.886932,1.799999" style="fill: white" />
  </g>
  <g id="layer16" slic3r:z="1.9e-06">
    <polygon slic3r:type="contour" points="10.886932,2.136932 12.386932,2.136932 12.386932,1.899999 12.886932,1.899999 12.886932,2.636932 20.636932,2.636932 20.636932,10.386932 21.373864,10.386932 21.373864,10.886932 21.136932,10.886932 21.136932,12.386932 21.373864,12.386932 21.373864,12.886932 20.636932,12.886932 20.636932,20.636932 12.886932,20.636932 12.886932,21.373864 12.386932,21.373864 12.386932,21.136932 10.886932,21.136932 10.886932,21.373864 10.386932,21.373864 10.386932,20.636932 2.636932,20.636932 2.636932,12.886932 1.9,12.886932 1.9,12.386932 2.136932,12.386932 2.136932,10.886932 1.9,10.886932 1.9,10.386932 2.636932,10.386932 2.636932,2.636932 10.386932,2.636932 10.386932,1.899999 10.886932,1.899999" style="fill: white" />
  </g>
  <g id="layer17" slic3r:z="2e-06">
    <polygon slic3r:type="contour" points="10.886932,2.136932 12.386932,2.136932 12.386932,1.999999 12.886932,1.999999 12.886932,2.636932 20.636932,2.636932 20.636932,10.386932 21.273864,10.386932 21.273864,10.886932 21.136932,10.886932 21.136932,12.386932 21.273864,12.386932 21.273864,12.886932 20.636932,12.886932 20.636932,20.636932 12.886932,20.636932 12.886932,21.273864 12.386932,21.273864 12.386932,21.136932 10.886932,21.136932 10.886932,21.273864 10.386932,21.273864 10.386932,20.636932 2.636932,20.636932 2.636932,12.886932 2,12.886932 2,12.386932 2.136932,12.386932 2.136932,10.886932 2,10.886932 2,10.386932 2.636932,10.386932 2.636932,2.636932 10.386932,2.636932 10.386932,1.999999 10.886932,1.999999" style="fill: white" />
  </g>
  <g id="layer18" slic3r:z="2.1e-06">
    <polygon slic3r:type="contour" points="10.886932,2.63033 12.386932,2.63033 12.386932,2.099999 12.886932,2.099999 12.886932,3.636932 19.636932,3.636932 19.636932,10.386932 21.173864,10.386932 21.173864,10.886932 20.643534,10.886932 20.643534,12.386932 21.173864,12.386932 21.173864,12.886932 19.636932,12.886932 19.636932,19.636932 12.886932,19.636932 12.886932,21.173864 12.386932,21.173864 12.386932,20.643534 10.886932,20.643534 10.886932,21.173864 10.386932,21.173864 10.386932,19.636932 3.636932,19.636932 3.636932,12.886932 2.1,12.886932 2.1,12.386932 2.63033,12.386932 2.63033,10.886932 2.1,10.886932 2.1,10.386932 3.636932,10.386932 3.636932,3.636932 10.386932,3.636932 10.386932,2.099999 10.886932,2.099999" style="fill: white" />
  </g>
  <g id="layer19" slic3r:z="2.2e-06">
    <polygon slic3r:type="contour" points="10.886932,2.636932 12.386932,2.636932 12.386932,2.199999 12.886932,2.199999 12.886932,3.636932 19.636932,3.636932 19.636932,10.386932 21.073864,10.386932 21.073864,10.886932 20.636932,10.886932 20.636932,12.386932 21.073864,12.386932 21.073864,12.886932 19.636932,12.886932 19.636932,19.636932 12.886932,19.636932 12.886932,21.073864 12.386932,21.073864 12.386932,20.636932 10.886932,20.636932 10.886932,21.073864 10.386932,21.073864 10.386932,19.636932 3.636932,19.636932 3.636932,12.886932 2.2,12.886932 2.2,12.386932 2.636932,12.386932 2.636932,10.886932 2.2,10.886932 2.2,10.386932 3.636932,10.386932 3.636932,3.636932 10.386932,3.636932 10.386932,2.199999 10.886932,2.199999" style="fill: white" />
  </g>
  <g id="layer20" slic3r:z="2.3e-06">
    <polygon slic3r:type="contour" points="10.886932,2.636932 12.386932,2.636932 12.386932,2.299999 12.886932,2.299999 12.886932,3.636932 19.636932,3.636932 19.636932,10.386932 20.973864,10.386932 20.973864,10.886932 20.636932,10.886932 20.636932,12.386932 20.973864,12.386932 20.973864,12.886932 19.636932,12.886932 19.636932,19.636932 12.886932,19.636932 12.886932,20.973864 12.386932,20.973864 12.386932,20.636932 10.886932,20.636932 10.886932,20.973864 10.386932,20.973864 10.386932,19.636932 3.636932,19.636932 3.636932,12.886932 2.3,12.886932 2.3,12.386932 2.636932,12.386932 2.636932,10.886932 2.3,10.886932 2.3,10.386932 3.636932,10.386932 3.636932,3.636932 10.386932,3.636932 10.386932,2.299999 10.886932,2.299999" style="fill: white" />
  </g>
  <g id="layer21" slic3r:z="2.4e-06">
    <polygon slic3r:type="contour" points="10.886932,2.636932 12.386932,2.636932 12.386932,2.399999 12.886932,2.399999 12.886932,3.636932 19.636932,3.636932 19.636932,10.386932 20.873864,10.386932 20.873864,10.886932 20.636932,10.886932 20.636932,12.386932 20.873864,12.386932 20.873864,12.886932 19.636932,12.886932 19.636932,19.636932 12.886932,19.636932 12.886932,20.873864 12.386932,20.873864 12.386932,20.636932 10.886932,20.636932 10.886932,20.873864 10.386932,20.873864 10.386932,19.636932 3.636932,19.636932 3.636932,12.886932 2.4,12.886932 2.4,12.386932 2.636932,12.386932 2.636932,10.886932 2.4,10.886932 2.4,10.386932 3.636932,10.386932 3.636932,3.636932 10.386932,3.636932 10.386932,2.399999 10.886932,2.399999" style="fill: white" />
  </g>
  <g id="layer22" slic3r:z="2.5e-06">
    <polygon slic3r:type="contour" points="10.886932,2.636932 12.386932,2.636932 12.386932,2.499999 12.886932,2.499999 12.886932,3.636932 19.636932,3.636932 19.636932,10.386932 20.773864,10.386932 20.773864,10.886932 20.636932,10.886932 20.636932,12.386932 20.773864,12.386932 20.773864,12.886932 19.636932,12.886932 19.636932,19.636932 12.886932,19.636932 12.886932,20.773864 12.386932,20.773864 12.386932,20.636932 10.886932,20.636932 10.886932,20.773864 10.386932,20.773864 10.386932,19.636932 3.636932,19.636932 3.636932,12.886932 2.5,12.886932 2.5,12.386932 2.636932,12.386932 2.636932,10.886932 2.5,10.886932 2.5,10.386932 3.636932,10.386932 3.636932,3.636932 10.386932,3.636932 10.386932,2.499999 10.886932,2.499999" style="fill: white" />
  </g>
  <g id="layer23" slic3r:z="2.6e-06">
    <polygon slic3r:type="contour" points="10.886932,3.130329 12.386932,3.130329 12.386932,2.599999 12.886932,2.599999 12.886932,3.636932 19.636932,3.636932 19.636932,10.386932 20.673864,10.386932 20.673864,10.886932 20.143534,10.886932 20.143534,12.386932 20.673864,12.386932 20.673864,12.886932 19.636932,12.886932 19.636932,19.636932 12.886932,19.636932 12.886932,20.673864 12.386932,20.673864 12.386932,20.143534 10.886932,20.143534 10.886932,20.673864 10.386932,20.673864 10.386932,19.636932 3.636932,19.636932 3.636932,12.886932 2.6,12.886932 2.6,12.386932 3.130329,12.386932 3.130329,10.886932 2.6,10.886932 2.6,10.386932 3.636932,10.386932 3.636932,3.636932 10.386932,3.636932 10.386932,2.599999 10.886932,2.599999" style="fill: white" />
  </g>
  <g id="layer24" slic3r:z="2.7e-06">
    <polygon slic3r:type="contour" points="10.886932,3.136932 12.386932,3.136932 12.386932,2.699999 12.886932,2.699999 12.886932,3.636932 19.636932,3.636932 19.636932,10.386932 20.573864,10.386932 20.573864,10.886932 20.136932,10.886932 20.136932,12.386932 20.573864,12.386932 20.573864,12.886932 19.636932,12.886932 19.636932,19.636932 12.886932,19.636932 12.886932,20.573864 12.386932,20.573864 12.386932,20.136932 10.886932,20.136932 10.886932,20.573864 10.386932,20.573864 10.386932,19.636932 3.636932,19.636932 3.636932,12.886932 2.7,12.886932 2.7,12.386932 3.136932,12.386932 3.136932,10.886932 2.7,10.886932 2.7,10.386932 3.636932,10.386932 3.636932,3.636932 10.386932,3.636932 10.386932,2.699999 10.886932,2.699999" style="fill: white" />
  </g>
  <g id="layer25" slic3r:z="2.8e-06">
    <polygon slic3r:type="contour" points="10.886932,3.136932 12.386932,3.136932 12.386932,2.799999 12.886932,2.799999 12.886932,3.636932 19.636932,3.636932 19.636932,10.386932 20.473864,10.386932 20.473864,10.886932 20.136932,10.886932 20.136932,12.386932 20.473864,12.386932 20.473864,12.886932 19.636932,12.886932 19.636932,19.636932 12.886932,19.636932 12.886932,20.473864 12.386932,20.473864 12.386932,20.136932 10.886932,20.136932 10.886932,20.473864 10.386932,20.473864 10.386932,19.636932 3.636932,19.636932 3.636932,12.886932 2.8,12.886932 2.8,12.386932 3.136932,12.386932 3.136932,10.886932 2.8,10.886932 2.8,10.386932 3.636932,10.386932 3.636932,3.636932 10.386932,3.636932 10.386932,2.799999 10.886932,2.799999" style="fill: white" />
  </g>
  <g id="layer26" slic3r:z="2.9e-06">
    <polygon slic3r:type="contour" points="10.886932,3.136932 12.386932,3.136932 12.386932,2.899999 12.886932,2.899999 12.886932,3.636932 19.636932,3.636932 19.636932,10.386932 20.373864,10.386932 20.373864,10.886932 20.136932,10.886932 20.136932,12.386932 20.373864,12.386932 20.373864,12.886932 19.636932,12.886932 19.636932,19.636932 12.886932,19.636932 12.886932,20.373864 12.386932,20.373864 12.386932,20.136932 10.886932,20.136932 10.886932,20.373864 10.386932,20.373864 10.386932,19.636932 3.636932,19.636932 3.636932,12.886932 2.9,12.886932 2.9,12.386932 3.136932,12.386932 3.136932,10.886932 2.9,10.886932 2.9,10.386932 3.636932,10.386932 3.636932,3.636932 10.386932,3.636932 10.386932,2.899999 10.886932,2.899999" style="fill: white" />
  </g>
  <g id="layer27" slic3r:z="3e-06">
    <polygon slic3r:type="contour" points="10.886932,3.136932 12.386932,3.136932 12.386932,2.999999 12.886932,2.999999 12.886932,3.636932 19.636932,3.636932 19.636932,10.386932 20.273864,10.386932 20.273864,10.886932 20.136932,10.886932 20.136932,12.386932 20.273864,12.386932 20.273864,12.886932 19.636932,12.886932 19.636932,19.636932 12.886932,19.636932 12.886932,20.273864 12.386932,20.273864 12.386932,20.136932 10.886932,20.136932 10.886932,20.273864 10.386932,20.273864 10.386932,19.636932 3.636932,19.636932 3.636932,12.886932 3,12.886932 3,12.386932 3.136932,12.386932 3.136932,10.886932 3,10.886932 3,10.386932 3.636932,10.386932 3.636932,3.636932 10.386932,3.636932 10.386932,2.999999 10.886932,2.999999" style="fill: white" />
  </g>
  <g id="layer28" slic3r:z="3.1e-06">
    <polygon slic3r:type="contour" points="10.886932,3.630329 12.386932,3.630329 12.386932,3.099999 12.886932,3.099999 12.886932,4.636932 18.636932,4.636932 18.636932,10.386932 20.173864,10.386932 20.173864,10.886932 19.643534,10.886932 19.643534,12.386932 20.173864,12.386932 20.173864,12.886932 18.636932,12.886932 18.636932,18.636932 12.886932,18.636932 12.886932,20.173864 12.386932,20.173864 12.386932,19.643534 10.886932,19.643534 10.886932,20.173864 10.386932,20.173864 10.386932,18.636932 4.636932,18.636932 4.636932,12.886932 3.1,12.886932 3.1,12.386932 3.630329,12.386932 3.630329,10.886932 3.1,10.886932 3.1,10.386932 4.636932,10.386932 4.636932,4.636932 10.386932,4.636932 10.386932,3.099999 10.886932,3.099999" style="fill: white" />
  </g>
  <g id="layer29" slic3r:z="3.2e-06">
    <polygon slic3r:type="contour" points="10.886932,3.636932 12.386932,3.636932 12.386932,3.199999 12.886932,3.199999 12.886932,4.636932 18.636932,4.636932 18.636932,10.386932 20.073864,10.386932 20.073864,10.886932 19.636932,10.886932 19.636932,12.386932 20.073864,12.386932 20.073864,12.886932 18.636932,12.886932 18.636932,18.636932 12.886932,18.636932 12.886932,20.073864 12.386932,20.073864 12.386932,19.636932 10.886932,19.636932 10.886932,20.073864 10.386932,20.073864 10.386932,18.636932 4.636932,18.636932 4.636932,12.886932 3.2,12.886932 3.2,12.386932 3.636932,12.386932 3.636932,10.886932 3.2,10.886932 3.2,10.386932 4.636932,10.386932 4.636932,4.636932 10.386932,4.636932 10.386932,3.199999 10.886932,3.199999" style="fill: white" />
  </g>
  <g id="layer30" slic3r:z="3.3e-06">
    <polygon slic3r:type="contour" points="10.886932,3.636932 12.386932,3.636932 12.386932,3.299999 12.886932,3.299999 12.886932,4.636932 18.636932,4.636932 18.636932,10.386932 19.973864,10.386932 19.973864,10.886932 19.636932,10.886932 19.636932,12.386932 19.973864,12.386932 19.973864,12.886932 18.636932,12.886932 18.636932,18.636932 12.886932,18.636932 12.886932,19.973864 12.386932,19.973864 12.386932,19.636932 10.886932,19.636932 10.886932,19.973864 10.386932,19.973864 10.386932,18.636932 4.636932,18.636932 4.636932,12.886932 3.3,12.886932 3.3,12.386932 3.636932,12.386932 3.636932,10.886932 3.3,10.886932 3.3,10.386932 4.636932,10.386932 4.636932,4.636932 10.386932,4.636932 10.386932,3.299999 10.886932,3.299999" style="fill: white" />
  </g>
  <g id="layer31" slic3r:z="3.4e-06">
    <polygon slic3r:type="contour" points="10.886932,3.636932 12.386932,3.636932 12.386932,3.399999 12.886932,3.399999 12.886932,4.636932 18.636932,4.636932 18.636932,10.386932 19.873864,10.386932 19.873864,10.886932 19.636932,10.886932 19.636932,12.386932 19.873864,12.386932 19.873864,12.886932 18.636932,12.886932 18.636932,18.636932 12.886932,18.636932 12.886932,19.873864 12.386932,19.873864 12.386932,19.636932 10.886932,19.636932 10.886932,19.873864 10.386932,19.873864 10.386932,18.636932 4.636932,18.636932 4.636932,12.886932 3.4,12.886932 3.4,12.386932 3.636932,12.386932 3.636932,10.886932 3.4,10.886932 3.4,10.386932 4.636932,10.386932 4.636932,4.636932 10.386932,4.636932 10.386932,3.399999 10.886932,3.399999" style="fill: white" />
  </g>
  <g id="layer32" slic3r:z="3.5e-06">
    <polygon slic3r:type="contour" points="10.886932,3.636932 12.386932,3.636932 12.386932,3.499999 12.886932,3.499999 12.886932,4.636932 18.636932,4.636932 18.636932,10.386932 19.773864,10.386932 19.773864,10.886932 19.636932,10.886932 19.636932,12.386932 19.773864,12.386932 19.773864,12.886932 18.636932,12.886932 18.636932,18.636932 12.886932,18.636932 12.886932,19.773864 12.386932,19.773864 12.386932,19.636932 10.886932,19.636932 10.886932,19.773864 10.386932,19.773864 10.386932,18.636932 4.636932,18.636932 4.636932,12.886932 3.5,12.886932 3.5,12.386932 3.636932,12.386932 3.636932,10.886932 3.5,10.886932 3.5,10.386932 4.636932,10.386932 4.636932,4.636932 10.386932,4.636932 10.386932,3.499999 10.886932,3.499999" style="fill: white" />
  </g>
  <g id="layer33" slic3r:z="3.6e-06">
    <polygon slic3r:type="contour" points="10.886932,4.130329 12.386932,4.130329 12.386932,3.599999 12.886932,3.599999 12.886932,4.636932 18.636932,4.636932 18.636932,10.386932 19.673864,10.386932 19.673864,10.886932 19.143534,10.886932 19.143534,12.386932 19.673864,12.386932 19.673864,12.886932 18.636932,12.886932 18.636932,18.636932 12.886932,18.636932 12.886932,19.673864 12.386932,19.673864 12.386932,19.143534 10.886932,19.143534 10.886932,19.673864 10.386932,19.673864 10.386932,18.636932 4.636932,18.636932 4.636932,12.886932 3.6,12.886932 3.6,12.386932 4.130329,12.386932 4.130329,10.886932 3.6,10.886932 3.6,10.386932 4.636932,10.386932 4.636932,4.636932 10.386932,4.636932 10.386932,3.599999 10.886932,3.599999" style="fill: white" />
  </g>
  <g id="layer34" slic3r:z="3.69999999999999e-06">
    <polygon slic3r:type="contour" points="10.886932,4.136932 12.386932,4.136932 12.386932,3.699999 12.886932,3.699999 12.886932,4.636932 18.636932,4.636932 18.636932,10.386932 19.573864,10.386932 19.573864,10.886932 19.136932,10.886932 19.136932,12.386932 19.573864,12.386932 19.573864,12.886932 18.636932,12.886932 18.636932,18.636932 12.886932,18.636932 12.886932,19.573864 12.386932,19.573864 12.386932,19.136932 10.886932,19.136932 10.886932,19.573864 10.386932,19.573864 10.386932,18.636932 4.636932,18.636932 4.636932,12.886932 3.7,12.886932 3.7,12.386932 4.136932,12.386932 4.136932,10.886932 3.7,10.886932 3.7,10.386932 4.636932,10.386932 4.636932,4.636932 10.386932,4.636932 10.386932,3.699999 10.886932,3.699999" style="fill: white" />
  </g>
  <g id="layer35" slic3r:z="3.79999999999999e-06">
    <polygon slic3r:type="contour" points="10.886932,4.136932 12.386932,4.136932 12.386932,3.799999 12.886932,3.799999 12.886932,4.636932 18.636932,4.636932 18.636932,10.386932 19.473864,10.386932 19.473864,10.886932 19.136932,10.886932 19.136932,12.386932 19.473864,12.386932 19.473864,12.886932 18.636932,12.886932 18.636932,18.636932 12.886932,18.636932 12.886932,19.473864 12.386932,19.473864 12.386932,19.136932 10.886932,19.136932 10.886932,19.473864 10.386932,19.473864 10.386932,18.636932 4.636932,18.636932 4.636932,12.886932 3.8,12.886932 3.8,12.386932 4.136932,12.386932 4.136932,10.886932 3.8,10.886932 3.8,10.386932 4.636932,10.386932 4.636932,4.636932 10.386932,4.636932 10.386932,3.799999 10.886932,3.799999" style="fill: white" />
  </g>
  <g id="layer36" slic3r:z="3.89999999999999e-06">
    <polygon slic3r:type="contour" points="10.886932,4.136932 12.386932,4.136932 12.386932,3.899999 12.886932,3.899999 12.886932,4.636932 18.636932,4.636932 18.636932,10.386932 19.373864,10.386932 19.373864,10.886932 19.136932,10.886932 19.136932,12.386932 19.373864,12.386932 19.373864,12.886932 18.636932,12.886932 18.636932,18.636932 12.886932,18.636932 12.886932,19.373864 12.386932,19.373864 12.386932,19.136932 10.886932,19.136932 10.886932,19.373864 10.386932,19.373864 10.386932,18.636932 4.636932,18.636932 4.636932,12.886932 3.9,12.886932 3.9,12.386932 4.136932,12.386932 4.136932,10.886932 3.9,10.886932 3.9,10.386932 4.636932,10.386932 4.636932,4.636932 10.386932,4.636932 10.386932,3.899999 10.886932,3.899999" style="fill: white" />
  </g>
  <g id="layer37" slic3r:z="3.99999999999999e-06">
    <polygon slic3r:type="contour" points="10.886932,4.136932 12.386932,4.136932 12.386932,3.999999 12.886932,3.999999 12.886932,4.636932 18.636932,4.636932 18.636932,10.386932 19.273864,10.386932 19.273864,10.886932 19.136932,10.886932 19.136932,12.386932 19.273864,12.386932 19.273864,12.886932 18.636932,12.886932 18.636932,18.636932 12.886932,18.636932 12.886932,19.273864 12.386932,19.273864 12.386932,19.136932 10.886932,19.136932 10.886932,19.273864 10.386932,19.273864 10.386932,18.636932 4.636932,18.636932 4.636932,12.886932 4,12.886932 4,12.386932 4.136932,12.386932 4.136932,10.886932 4,10.886932 4,10.386932 4.636932,10.386932 4.636932,4.636932 10.386932,4.636932 10.386932,3.999999 10.886932,3.999999" style="fill: white" />
  </g>
  <g id="layer38" slic3r:z="4.09999999999999e-06">
    <polygon slic3r:type="contour" points="10.886932,4.630329 12.386932,4.630329 12.386932,4.1 12.886932,4.1 12.886932,5.636932 17.636932,5.636932 17.636932,10.386932 19.173864,10.386932 19.173864,10.886932 18.643534,10.886932 18.643534,12.386932 19.173864,12.386932 19.173864,12.886932 17.636932,12.886932 17.636932,17.636932 12.886932,17.636932 12.886932,19.173864 12.386932,19.173864 12.386932,18.643534 10.886932,18.643534 10.886932,19.173864 10.386932,19.173864 10.386932,17.636932 5.636932,17.636932 5.636932,12.886932 4.1,12.886932 4.1,12.386932 4.630329,12.386932 4.630329,10.886932 4.1,10.886932 4.1,10.386932 5.636932,10.386932 5.636932,5.636932 10.386932,5.636932 10.386932,4.1 10.886932,4.1" style="fill: white" />
  </g>
  <g id="layer39" slic3r:z="4.19999999999999e-06">
    <polygon slic3r:type="contour" points="10.886932,4.636932 12.386932,4.636932 12.386932,4.199999 12.886932,4.199999 12.886932,5.636932 17.636932,5.636932 17.636932,10.386932 19.073864,10.386932 19.073864,10.886932 18.636932,10.886932 18.636932,12.386932 19.073864,12.386932 19.073864,12.886932 17.636932,12.886932 17.636932,17.636932 12.886932,17.636932 12.886932,19.073864 12.386932,19.073864 12.386932,18.636932 10.886932,18.636932 10.886932,19.073864 10.386932,19.073864 10.386932,17.636932 5.636932,17.636932 5.636932,12.886932 4.2,12.886932 4.2,12.386932 4.636932,12.386932 4.636932,10.886932 4.2,10.886932 4.2,10.386932 5.636932,10.386932 5.636932,5.636932 10.386932,5.636932 10.386932,4.199999 10.886932,4.199999" style="fill: white" />
  </g>
  <g id="layer40" slic3r:z="4.29999999999999e-06">
    <polygon slic3r:type="contour" points="10.886932,4.636932 12.386932,4.636932 12.386932,4.299999 12.886932,4.299999 12.886932,5.636932 17.636932,5.636932 17.636932,10.386932 18.973864,10.386932 18.973864,10.886932 18.636932,10.886932 18.636932,12.386932 18.973864,12.386932 18.973864,12.886932 17.636932,12.886932 17.636932,17.636932 12.886932,17.636932 12.886932,18.973864 12.386932,18.973864 12.386932,18.636932 10.886932,18.636932 10.886932,18.973864 10.386932,18.973864 10.386932,17.636932 5.636932,17.636932 5.636932,12.886932 4.3,12.886932 4.3,12.386932 4.636932,12.386932 4.636932,10.886932 4.3,10.886932 4.3,10.386932 5.636932,10.386932 5.636932,5.636932 10.386932,5.636932 10.386932,4.299999 10.886932,4.299999" style="fill: white" />
  </g>
  <g id="layer41" slic3r:z="4.39999999999999e-06">
    <polygon slic3r:type="contour" points="10.886932,4.636932 12.386932,4.636932 12.386932,4.399999 12.886932,4.399999 12.886932,5.636932 17.636932,5.636932 17.636932,10.386932 18.873864,10.386932 18.873864,10.886932 18.636932,10.886932 18.636932,12.386932 18.873864,12.386932 18.873864,12.886932 17.636932,12.886932 17.636932,17.636932 12.886932,17.636932 12.886932,18.873864 12.386932,18.873864 12.386932,18.636932 10.886932,18.636932 10.886932,18.873864 10.386932,18.873864 10.386932,17.636932 5.636932,17.636932 5.636932,12.886932 4.4,12.886932 4.4,12.386932 4.636932,12.386932 4.636932,10.886932 4.4,10.886932 4.4,10.386932 5.636932,10.386932 5.636932,5.636932 10.386932,5.636932 10.386932,4.399999 10.886932,4.399999" style="fill: white" />
  </g>
  <g id="layer42" slic3r:z="4.49999999999999e-06">
    <polygon slic3r:type="contour" points="10.886932,4.636932 12.386932,4.636932 12.386932,4.499999 12.886932,4.499999 12.886932,5.636932 17.636932,5.636932 17.636932,10.386932 18.773864,10.386932 18.773864,10.886932 18.636932,10.886932 18.636932,12.386932 18.773864,12.386932 18.773864,12.886932 17.636932,12.886932 17.636932,17.636932 12.886932,17.636932 12.886932,18.773864 12.386932,18.773864 12.386932,18.636932 10.886932,18.636932 10.886932,18.773864 10.386932,18.773864 10.386932,17.636932 5.636932,17.636932 5.636932,12.886932 4.5,12.886932 4.5,12.386932 4.636932,12.386932 4.636932,10.886932 4.5,10.886932 4.5,10.386932 5.636932,10.386932 5.636932,5.636932 10.386932,5.636932 10.386932,4.499999 10.886932,4.499999" style="fill: white" />
  </g>
  <g id="layer43" slic3r:z="4.59999999999999e-06">
    <polygon slic3r:type="contour" points="10.886932,5.130329 12.386932,5.130329 12.386932,4.599999 12.886932,4.599999 12.886932,5.636932 17.636932,5.636932 17.636932,10.386932 18.673864,10.386932 18.673864,10.886932 18.143534,10.886932 18.143534,12.386932 18.673864,12.386932 18.673864,12.886932 17.636932,12.886932 17.636932,17.636932 12.886932,17.636932 12.886932,18.673864 12.386932,18.673864 12.386932,18.143534 10.886932,18.143534 10.886932,18.673864 10.386932,18.673864 10.386932,17.636932 5.636932,17.636932 5.636932,12.886932 4.6,12.886932 4.6,12.386932 5.13033,12.386932 5.13033,10.886932 4.6,10.886932 4.6,10.386932 5.636932,10.386932 5.636932,5.636932 10.386932,5.636932 10.386932,4.599999 10.886932,4.599999" style="fill: white" />
  </g>
  <g id="layer44" slic3r:z="4.69999999999999e-06">
    <polygon slic3r:type="contour" points="10.886932,5.136932 12.386932,5.136932 12.386932,4.699999 12.886932,4.699999 12.886932,5.636932 17.636932,5.636932 17.636932,10.386932 18.573864,10.386932 18.573864,10.886932 18.136932,10.886932 18.136932,12.386932 18.573864,12.386932 18.573864,12.886932 17.636932,12.886932 17.636932,17.636932 12.886932,17.636932 12.886932,18.573864 12.386932,18.573864 12.386932,18.136932 10.886932,18.136932 10.886932,18.573864 10.386932,18.573864 10.386932,17.636932 5.636932,17.636932 5.636932,12.886932 4.7,12.886932 4.7,12.386932 5.136932,12.386932 5.136932,10.886932 4.7,10.886932 4.7,10.386932 5.636932,10.386932 5.636932,5.636932 10.386932,5.636932 10.386932,4.699999 10.886932,4.699999" style="fill: white" />
  </g>
  <g id="layer45" slic3r:z="4.79999999999999e-06">
    <polygon slic3r:type="contour" points="10.886932,5.136932 12.386932,5.136932 12.386932,4.799999 12.886932,4.799999 12.886932,5.636932 17.636932,5.636932 17.636932,10.386932 18.473864,10.386932 18.473864,10.886932 18.136932,10.886932 18.136932,12.386932 18.473864,12.386932 18.473864,12.886932 17.636932,12.886932 17.636932,17.636932 12.886932,17.636932 12.886932,18.473864 12.386932,18.473864 12.386932,18.136932 10.886932,18.136932 10.886932,18.473864 10.386932,18.473864 10.386932,17.636932 5.636932,17.636932 5.636932,12.886932 4.8,12.886932 4.8,12.386932 5.136932,12.386932 5.136932,10.886932 4.8,10.886932 4.8,10.386932 5.636932,10.386932 5.636932,5.636932 10.386932,5.636932 10.386932,4.799999 10.886932,4.799999" style="fill: white" />
  </g>
  <g id="layer46" slic3r:z="4.89999999999999e-06">
    <polygon slic3r:type="contour" points="10.886932,5.136932 12.386932,5.136932 12.386932,4.899999 12.886932,4.899999 12.886932,5.636932 17.636932,5.636932 17.636932,10.386932 18.373864,10.386932 18.373864,10.886932 18.136932,10.886932 18.136932,12.386932 18.373864,12.386932 18.373864,12.886932 17.636932,12.886932 17.636932,17.636932 12.886932,17.636932 12.886932,18.373864 12.386932,18.373864 12.386932,18.136932 10.886932,18.136932 10.886932,18.373864 10.386932,18.373864 10.386932,17.636932 5.636932,17.636932 5.636932,12.886932 4.9,12.886932 4.9,12.386932 5.136932,12.386932 5.136932,10.886932 4.9,10.886932 4.9,10.386932 5.636932,10.386932 5.636932,5.636932 10.386932,5.636932 10.386932,4.899999 10.886932,4.899999" style="fill: white" />
  </g>
  <g id="layer47" slic3r:z="4.99999999999999e-06">
    <polygon slic3r:type="contour" points="10.886932,5.136932 12.386932,5.136932 12.386932,4.999999 12.886932,4.999999 12.886932,5.636932 17.636932,5.636932 17.636932,10.386932 18.273864,10.386932 18.273864,10.886932 18.136932,10.886932 18.136932,12.386932 18.273864,12.386932 18.273864,12.886932 17.636932,12.886932 17.636932,17.636932 12.886932,17.636932 12.886932,18.273864 12.386932,18.273864 12.386932,18.136932 10.886932,18.136932 10.886932,18.273864 10.386932,18.273864 10.386932,17.636932 5.636932,17.636932 5.636932,12.886932 5,12.886932 5,12.386932 5.136932,12.386932 5.136932,10.886932 5,10.886932 5,10.386932 5.636932,10.386932 5.636932,5.636932 10.386932,5.636932 10.386932,4.999999 10.886932,4.999999" style="fill: white" />
  </g>
  <g id="layer48" slic3r:z="5.09999999999999e-06">
    <polygon slic3r:type="contour" points="10.886932,5.630329 12.386932,5.630329 12.386932,5.099999 12.886932,5.099999 12.886932,6.636932 16.636932,6.636932 16.636932,10.386932 18.173864,10.386932 18.173864,10.886932 17.643534,10.886932 17.643534,12.386932 18.173864,12.386932 18.173864,12.886932 16.636932,12.886932 16.636932,16.636932 12.886932,16.636932 12.886932,18.173864 12.386932,18.173864 12.386932,17.643534 10.886932,17.643534 10.886932,18.173864 10.386932,18.173864 10.386932,16.636932 6.636932,16.636932 6.636932,12.886932 5.1,12.886932 5.1,12.386932 5.63033,12.386932 5.63033,10.886932 5.1,10.886932 5.1,10.386932 6.636932,10.386932 6.636932,6.636932 10.386932,6.636932 10.386932,5.099999 10.886932,5.099999" style="fill: white" />
  </g>
  <g id="layer49" slic3r:z="5.19999999999999e-06">
    <polygon slic3r:type="contour" points="10.886932,5.636932 12.386932,5.636932 12.386932,5.199999 12.886932,5.199999 12.886932,6.636932 16.636932,6.636932 16.636932,10.386932 18.073864,10.386932 18.073864,10.886932 17.636932,10.886932 17.636932,12.386932 18.073864,12.386932 18.073864,12.886932 16.636932,12.886932 16.636932,16.636932 12.886932,16.636932 12.886932,18.073864 12.386932,18.073864 12.386932,17.636932 10.886932,17.636932 10.886932,18.073864 10.386932,18.073864 10.386932,16.636932 6.636932,16.636932 6.636932,12.886932 5.2,12.886932 5.2,12.386932 5.636932,12.386932 5.636932,10.886932 5.2,10.886932 5.2,10.386932 6.636932,10.386932 6.636932,6.636932 10.386932,6.636932 10.386932,5.199999 10.886932,5.199999" style="fill: white" />
  </g>
  <g id="layer50" slic3r:z="5.29999999999999e-06">
    <polygon slic3r:type="contour" points="10.886932,5.636932 12.386932,5.636932 12.386932,5.299999 12.886932,5.299999 12.886932,6.636932 16.636932,6.636932 16.636932,10.386932 17.973864,10.386932 17.973864,10.886932 17.636932,10.886932 17.636932,12.386932 17.973864,12.386932 17.973864,12.886932 16.636932,12.886932 16.636932,16.636932 12.886932,16.636932 12.886932,17.973864 12.386932,17.973864 12.386932,17.636932 10.886932,17.636932 10.886932,17.973864 10.386932,17.973864 10.386932,16.636932 6.636932,16.636932 6.636932,12.886932 5.3,12.886932 5.3,12.386932 5.636932,12.386932 5.636932,10.886932 5.3,10.886932 5.3,10.386932 6.636932,10.386932 6.636932,6.636932 10.386932,6.636932 10.386932,5.299999 10.886932,5.299999" style="fill: white" />
  </g>
  <g id="layer51" slic3r:z="5.39999999999999e-06">
    <polygon slic3r:type="contour" points="10.886932,5.636932 12.386932,5.636932 12.386932,5.399999 12.886932,5.399999 12.886932,6.636932 16.636932,6.636932 16.636932,10.386932 17.873864,10.386932 17.873864,10.886932 17.636932,10.886932 17.636932,12.386932 17.873864,12.386932 17.873864,12.886932 16.636932,12.886932 16.636932,16.636932 12.886932,16.636932 12.886932,17.873864 12.386932,17.873864 12.386932,17.636932 10.886932,17.636932 10.886932,17.873864 10.386932,17.873864 10.386932,16.636932 6.636932,16.636932 6.636932,12.886932 5.4,12.886932 5.4,12.386932 5.636932,12.386932 5.636932,10.886932 5.4,10.886932 5.4,10.386932 6.636932,10.386932 6.636932,6.636932 10.386932,6.636932 10.386932,5.399999 10.886932,5.399999" style="fill: white" />
  </g>
  <g id="layer52" slic3r:z="5.49999999999999e-06">
    <polygon slic3r:type="contour" points="10.886932,5.636932 12.386932,5.636932 12.386932,5.499999 12.886932,5.499999 12.886932,6.636932 16.636932,6.636932 16.636932,10.386932 17.773864,10.386932 17.773864,10.886932 17.636932,10.886932 17.636932,12.386932 17.773864,12.386932 17.773864,12.886932 16.636932,12.886932 16.636932,16.636932 12.886932,16.636932 12.886932,17.773864 12.386932,17.773864 12.386932,17.636932 10.886932,17.636932 10.886932,17.773864 10.386932,17.773864 10.386932,16.636932 6.636932,16.636932 6.636932,12.886932 5.5,12.886932 5.5,12.386932 5.636932,12.386932 5.636932,10.886932 5.5,10.886932 5.5,10.386932 6.636932,10.386932 6.636932,6.636932 10.386932,6.636932 10.386932,5.499999 10.886932,5.499999" style="fill: white" />
  </g>
  <g id="layer53" slic3r:z="5.59999999999999e-06">
    <polygon slic3r:type="contour" points="10.886932,6.130329 12.386932,6.130329 12.386932,5.599999 12.886932,5.599999 12.886932,6.636932 16.636932,6.636932 16.636932,10.386932 17.673864,10.386932 17.673864,10.886932 17.143534,10.886932 17.143534,12.386932 17.673864,12.386932 17.673864,12.886932 16.636932,12.886932 16.636932,16.636932 12.886932,16.636932 12.886932,17.673864 12.386932,17.673864 12.386932,17.143534 10.886932,17.143534 10.886932,17.673864 10.386932,17.673864 10.386932,16.636932 6.636932,16.636932 6.636932,12.886932 5.6,12.886932 5.6,12.386932 6.13033,12.386932 6.13033,10.886932 5.6,10.886932 5.6,10.386932 6.636932,10.386932 6.636932,6.636932 10.386932,6.636932 10.386932,5.599999 10.886932,5.599999" style="fill: white" />
  </g>
  <g id="layer54" slic3r:z="5.69999999999999e-06">
    <polygon slic3r:type="contour" points="10.886932,6.136932 12.386932,6.136932 12.386932,5.699999 12.886932,5.699999 12.886932,6.636932 16.636932,6.636932 16.636932,10.386932 17.573864,10.386932 17.573864,10.886932 17.136932,10.886932 17.136932,12.386932 17.573864,12.386932 17.573864,12.886932 16.636932,12.886932 16.636932,16.636932 12.886932,16.636932 12.886932,17.573864 12.386932,17.573864 12.386932,17.136932 10.886932,17.136932 10.886932,17.573864 10.386932,17.573864 10.386932,16.636932 6.636932,16.636932 6.636932,12.886932 5.7,12.886932 5.7,12.386932 6.136932,12.386932 6.136932,10.886932 5.7,10.886932 5.7,10.386932 6.636932,10.386932 6.636932,6.636932 10.386932,6.636932 10.386932,5.699999 10.886932,5.699999" style="fill: white" />
  </g>
  <g id="layer55" slic3r:z="5.79999999999999e-06">
    <polygon slic3r:type="contour" points="10.886932,6.136932 12.386932,6.136932 12.386932,5.799999 12.886932,5.799999 12.886932,6.636932 16.636932,6.636932 16.636932,10.386932 17.473864,10.386932 17.473864,10.886932 17.136932,10.886932 17.136932,12.386932 17.473864,12.386932 17.473864,12.886932 16.636932,12.886932 16.636932,16.636932 12.886932,16.636932 12.886932,17.473864 12.386932,17.473864 12.386932,17.136932 10.886932,17.136932 10.886932,17.473864 10.386932,17.473864 10.386932,16.636932 6.636932,16.636932 6.636932,12.886932 5.8,12.886932 5.8,12.386932 6.136932,12.386932 6.136932,10.886932 5.8,10.886932 5.8,10.386932 6.636932,10.386932 6.636932,6.636932 10.386932,6.636932 10.386932,5.799999 10.886932,5.799999" style="fill: white" />
  </g>
  <g id="layer56" slic3r:z="5.89999999999999e-06">
    <polygon slic3r:type="contour" points="10.886932,6.136932 12.386932,6.136932 12.386932,5.899999 12.886932,5.899999 12.886932,6.636932 16.636932,6.636932 16.636932,10.386932 17.373864,10.386932 17.373864,10.886932 17.136932,10.886932 17.136932,12.386932 17.373864,12.386932 17.373864,12.886932 16.636932,12.886932 16.636932,16.636932 12.886932,16.636932 12.886932,17.373864 12.386932,17.373864 12.386932,17.136932 10.886932,17.136932 10.886932,17.373864 10.386932,17.373864 10.386932,16.636932 6.636932,16.636932 6.636932,12.886932 5.9,12.886932 5.9,12.386932 6.136932,12.386932 6.136932,10.886932 5.9,10.886932 5.9,10.386932 6.636932,10.386932 6.636932,6.636932 10.386932,6.636932 10.386932,5.899999 10.886932,5.899999" style="fill: white" />
  </g>
  <g id="layer57" slic3r:z="5.99999999999999e-06">
    <polygon slic3r:type="contour" points="10.886932,6.136932 12.386932,6.136932 12.386932,5.999999 12.886932,5.999999 12.886932,6.636932 16.636932,6.636932 16.636932,10.386932 17.273864,10.386932 17.273864,10.886932 17.136932,10.886932 17.136932,12.386932 17.273864,12.386932 17.273864,12.886932 16.636932,12.886932 16.636932,16.636932 12.886932,16.636932 12.886932,17.273864 12.386932,17.273864 12.386932,17.136932 10.886932,17.136932 10.886932,17.273864 10.386932,17.273864 10.386932,16.636932 6.636932,16.636932 6.636932,12.886932 6,12.886932 6,12.386932 6.136932,12.386932 6.136932,10.886932 6,10.886932 6,10.386932 6.636932,10.386932 6.636932,6.636932 10.386932,6.636932 10.386932,5.999999 10.886932,5.999999" style="fill: white" />
  </g>
  <g id="layer58" slic3r:z="6.09999999999999e-06">
    <polygon slic3r:type="contour" points="10.886932,6.630329 12.386932,6.630329 12.386932,6.099999 12.886932,6.099999 12.886932,7.636932 15.636932,7.636932 15.636932,10.386932 17.173864,10.386932 17.173864,10.886932 16.643534,10.886932 16.643534,12.386932 17.173864,12.386932 17.173864,12.886932 15.636932,12.886932 15.636932,15.636932 12.886932,15.636932 12.886932,17.173864 12.386932,17.173864 12.386932,16.643534 10.886932,16.643534 10.886932,17.173864 10.386932,17.173864 10.386932,15.636932 7.636932,15.636932 7.636932,12.886932 6.1,12.886932 6.1,12.386932 6.63033,12.386932 6.63033,10.886932 6.1,10.886932 6.1,10.386932 7.636932,10.386932 7.636932,7.636932 10.386932,7.636932 10.386932,6.099999 10.886932,6.099999" style="fill: white" />
  </g>
  <g id="layer59" slic3r:z="6.19999999999999e-06">
    <polygon slic3r:type="contour" points="10.886932,6.636932 12.386932,6.636932 12.386932,6.199999 12.886932,6.199999 12.886932,7.636932 15.636932,7.636932 15.636932,10.386932 17.073864,10.386932 17.073864,10.886932 16.636932,10.886932 16.636932,12.386932 17.073864,12.386932 17.073864,12.886932 15.636932,12.886932 15.636932,15.636932 12.886932,15.636932 12.886932,17.073864 12.386932,17.073864 12.386932,16.636932 10.886932,16.636932 10.886932,17.073864 10.386932,17.073864 10.386932,15.636932 7.636932,15.636932 7.636932,12.886932 6.2,12.886932 6.2,12.386932 6.636932,12.386932 6.636932,10.886932 6.2,10.886932 6.2,10.386932 7.636932,10.386932 7.636932,7.636932 10.386932,7.636932 10.386932,6.199999 10.886932,6.199999" style="fill: white" />
  </g>
  <g id="layer60" slic3r:z="6.29999999999999e-06">
    <polygon slic3r:type="contour" points="10.886932,6.636932 12.386932,6.636932 12.386932,6.299999 12.886932,6.299999 12.886932,7.636932 15.636932,7.636932 15.636932,10.386932 16.973864,10.386932 16.973864,10.886932 16.636932,10.886932 16.636932,12.386932 16.973864,12.386932 16.973864,12.886932 15.636932,12.886932 15.636932,15.636932 12.886932,15.636932 12.886932,16.973864 12.386932,16.973864 12.386932,16.636932 10.886932,16.636932 10.886932,16.973864 10.386932,16.973864 10.386932,15.636932 7.636932,15.636932 7.636932,12.886932 6.3,12.886932 6.3,12.386932 6.636932,12.386932 6.636932,10.886932 6.3,10.886932 6.3,10.386932 7.636932,10.386932 7.636932,7.636932 10.386932,7.636932 10.386932,6.299999 10.886932,6.299999" style="fill: white" />
  </g>
  <g id="layer61" slic3r:z="6.39999999999999e-06">
    <polygon slic3r:type="contour" points="10.886932,6.636932 12.386932,6.636932 12.386932,6.399999 12.886932,6.399999 12.886932,7.636932 15.636932,7.636932 15.636932,10.386932 16.873864,10.386932 16.873864,10.886932 16.636932,10.886932 16.636932,12.386932 16.873864,12.386932 16.873864,12.886932 15.636932,12.886932 15.636932,15.636932 12.886932,15.636932 12.886932,16.873864 12.386932,16.873864 12.386932,16.636932 10.886932,16.636932 10.886932,16.873864 10.386932,16.873864 10.386932,15.636932 7.636932,15.636932 7.636932,12.886932 6.4,12.886932 6.4,12.386932 6.636932,12.386932 6.636932,10.886932 6.4,10.886932 6.4,10.386932 7.636932,10.386932 7.636932,7.636932 10.386932,7.636932 10.386932,6.399999 10.886932,6.399999" style="fill: white" />
  </g>
  <g id="layer62" slic3r:z="6.49999999999998e-06">
    <polygon slic3r:type="contour" points="10.886932,6.636932 12.386932,6.636932 12.386932,6.499999 12.886932,6.499999 12.886932,7.636932 15.636932,7.636932 15.636932,10.386932 16.773865,10.386932 16.773865,10.886932 16.636932,10.886932 16.636932,12.386932 16.773865,12.386932 16.773865,12.886932 15.636932,12.886932 15.636932,15.636932 12.886932,15.636932 12.886932,16.773865 12.386932,16.773865 12.386932,16.636932 10.886932,16.636932 10.886932,16.773865 10.386932,16.773865 10.386932,15.636932 7.636932,15.636932 7.636932,12.886932 6.5,12.886932 6.5,12.386932 6.636932,12.386932 6.636932,10.886932 6.5,10.886932 6.5,10.386932 7.636932,10.386932 7.636932,7.636932 10.386932,7.636932 10.386932,6.499999 10.886932,6.499999" style="fill: white" />
  </g>
  <g id="layer63" slic3r:z="6.59999999999998e-06">
    <polygon slic3r:type="contour" points="10.886932,7.130329 12.386932,7.130329 12.386932,6.599999 12.886932,6.599999 12.886932,7.636932 15.636932,7.636932 15.636932,10.386932 16.673864,10.386932 16.673864,10.886932 16.143534,10.886932 16.143534,12.386932 16.673864,12.386932 16.673864,12.886932 15.636932,12.886932 15.636932,15.636932 12.886932,15.636932 12.886932,16.673864 12.386932,16.673864 12.386932,16.143534 10.886932,16.143534 10.886932,16.673864 10.386932,16.673864 10.386932,15.636932 7.636932,15.636932 7.636932,12.886932 6.6,12.886932 6.6,12.386932 7.13033,12.386932 7.13033,10.886932 6.6,10.886932 6.6,10.386932 7.636932,10.386932 7.636932,7.636932 10.386932,7.636932 10.386932,6.599999 10.886932,6.599999" style="fill: white" />
  </g>
  <g id="layer64" slic3r:z="6.69999999999998e-06">
    <polygon slic3r:type="contour" points="10.886932,7.136932 12.386932,7.136932 12.386932,6.699999 12.886932,6.699999 12.886932,7.636932 15.636932,7.636932 15.636932,10.386932 16.573864,10.386932 16.573864,10.886932 16.136932,10.886932 16.136932,12.386932 16.573864,12.386932 16.573864,12.886932 15.636932,12.886932 15.636932,15.636932 12.886932,15.636932 12.886932,16.573864 12.386932,16.573864 12.386932,16.136932 10.886932,16.136932 10.886932,16.573864 10.386932,16.573864 10.386932,15.636932 7.636932,15.636932 7.636932,12.886932 6.7,12.886932 6.7,12.386932 7.136932,12.386932 7.136932,10.886932 6.7,10.886932 6.7,10.386932 7.636932,10.386932 7.636932,7.636932 10.386932,7.636932 10.386932,6.699999 10.886932,6.699999" style="fill: white" />
  </g>
  <g id="layer65" slic3r:z="6.79999999999998e-06">
    <polygon slic3r:type="contour" points="10.886932,7.136932 12.386932,7.136932 12.386932,6.799999 12.886932,6.799999 12.886932,7.636932 15.636932,7.636932 15.636932,10.386932 16.473865,10.386932 16.473865,10.886932 16.136932,10.886932 16.136932,12.386932 16.473865,12.386932 16.473865,12.886932 15.636932,12.886932 15.636932,15.636932 12.886932,15.636932 12.886932,16.473865 12.386932,16.473865 12.386932,16.136932 10.886932,16.136932 10.886932,16.473865 10.386932,16.473865 10.386932,15.636932 7.636932,15.636932 7.636932,12.886932 6.8,12.886932 6.8,12.386932 7.136932,12.386932 7.136932,10.886932 6.8,10.886932 6.8,10.386932 7.636932,10.386932 7.636932,7.636932 10.386932,7.636932 10.386932,6.799999 10.886932,6.799999" style="fill: white" />
  </g>
  <g id="layer66" slic3r:z="6.89999999999998e-06">
    <polygon slic3r:type="contour" points="10.886932,7.136932 12.386932,7.136932 12.386932,6.899999 12.886932,6.899999 12.886932,7.636932 15.636932,7.636932 15.636932,10.386932 16.373865,10.386932 16.373865,10.886932 16.136932,10.886932 16.136932,12.386932 16.373865,12.386932 16.373865,12.886932 15.636932,12.886932 15.636932,15.636932 12.886932,15.636932 12.886932,16.373865 12.386932,16.373865 12.386932,16.136932 10.886932,16.136932 10.886932,16.373865 10.386932,16.373865 10.386932,15.636932 7.636932,15.636932 7.636932,12.886932 6.9,12.886932 6.9,12.386932 7.136932,12.386932 7.136932,10.886932 6.9,10.886932 6.9,10.386932 7.636932,10.386932 7.636932,7.636932 10.386932,7.636932 10.386932,6.899999 10.886932,6.899999" style="fill: white" />
  </g>
  <g id="layer67" slic3r:z="6.99999999999998e-06">
    <polygon slic3r:type="contour" points="10.886932,7.136932 12.386932,7.136932 12.386932,6.999999 12.886932,6.999999 12.886932,7.636932 15.636932,7.636932 15.636932,10.386932 16.273864,10.386932 16.273864,10.886932 16.136932,10.886932 16.136932,12.386932 16.273864,12.386932 16.273864,12.886932 15.636932,12.886932 15.636932,15.636932 12.886932,15.636932 12.886932,16.273864 12.386932,16.273864 12.386932,16.136932 10.886932,16.136932 10.886932,16.273864 10.386932,16.273864 10.386932,15.636932 7.636932,15.636932 7.636932,12.886932 7,12.886932 7,12.386932 7.136932,12.386932 7.136932,10.886932 7,10.886932 7,10.386932 7.636932,10.386932 7.636932,7.636932 10.386932,7.636932 10.386932,6.999999 10.886932,6.999999" style="fill: white" />
  </g>
  <g id="layer68" slic3r:z="7.09999999999998e-06">
    <polygon slic3r:type="contour" points="10.886932,7.630329 12.386932,7.630329 12.386932,7.099999 12.886932,7.099999 12.886932,8.636932 14.636932,8.636932 14.636932,10.386932 16.173864,10.386932 16.173864,10.886932 15.643534,10.886932 15.643534,12.386932 16.173864,12.386932 16.173864,12.886932 14.636932,12.886932 14.636932,14.636932 12.886932,14.636932 12.886932,16.173864 12.386932,16.173864 12.386932,15.643535 10.886932,15.643535 10.886932,16.173864 10.386932,16.173864 10.386932,14.636932 8.636932,14.636932 8.636932,12.886932 7.1,12.886932 7.1,12.386932 7.63033,12.386932 7.63033,10.886932 7.1,10.886932 7.1,10.386932 8.636932,10.386932 8.636932,8.636932 10.386932,8.636932 10.386932,7.099999 10.886932,7.099999" style="fill: white" />
  </g>
  <g id="layer69" slic3r:z="7.19999999999998e-06">
    <polygon slic3r:type="contour" points="10.886932,7.636932 12.386932,7.636932 12.386932,7.199999 12.886932,7.199999 12.886932,8.636932 14.636932,8.636932 14.636932,10.386932 16.073865,10.386932 16.073865,10.886932 15.636932,10.886932 15.636932,12.386932 16.073865,12.386932 16.073865,12.886932 14.636932,12.886932 14.636932,14.636932 12.886932,14.636932 12.886932,16.073865 12.386932,16.073865 12.386932,15.636932 10.886932,15.636932 10.886932,16.073865 10.386932,16.073865 10.386932,14.636932 8.636932,14.636932 8.636932,12.886932 7.2,12.886932 7.2,12.386932 7.636932,12.386932 7.636932,10.886932 7.2,10.886932 7.2,10.386932 8.636932,10.386932 8.636932,8.636932 10.386932,8.636932 10.386932,7.199999 10.886932,7.199999" style="fill: white" />
  </g>
  <g id="layer70" slic3r:z="7.29999999999998e-06">
    <polygon slic3r:type="contour" points="10.886932,7.636932 12.386932,7.636932 12.386932,7.299999 12.886932,7.299999 12.886932,8.636932 14.636932,8.636932 14.636932,10.386932 15.973865,10.386932 15.973865,10.886932 15.636932,10.886932 15.636932,12.386932 15.973865,12.386932 15.973865,12.886932 14.636932,12.886932 14.636932,14.636932 12.886932,14.636932 12.886932,15.973865 12.386932,15.973865 12.386932,15.636932 10.886932,15.636932 10.886932,15.973865 10.386932,15.973865 10.386932,14.636932 8.636932,14.636932 8.636932,12.886932 7.3,12.886932 7.3,12.386932 7.636932,12.386932 7.636932,10.886932 7.3,10.886932 7.3,10.386932 8.636932,10.386932 8.636932,8.636932 10.386932,8.636932 10.386932,7.299999 10.886932,7.299999" style="fill: white" />
  </g>
  <g id="layer71" slic3r:z="7.39999999999998e-06">
    <polygon slic3r:type="contour" points="10.886932,7.636932 12.386932,7.636932 12.386932,7.399999 12.886932,7.399999 12.886932,8.636932 14.636932,8.636932 14.636932,10.386932 15.873864,10.386932 15.873864,10.886932 15.636932,10.886932 15.636932,12.386932 15.873864,12.386932 15.873864,12.886932 14.636932,12.886932 14.636932,14.636932 12.886932,14.636932 12.886932,15.873864 12.386932,15.873864 12.386932,15.636932 10.886932,15.636932 10.886932,15.873864 10.386932,15.873864 10.386932,14.636932 8.636932,14.636932 8.636932,12.886932 7.4,12.886932 7.4,12.386932 7.636932,12.386932 7.636932,10.886932 7.4,10.886932 7.4,10.386932 8.636932,10.386932 8.636932,8.636932 10.386932,8.636932 10.386932,7.399999 10.886932,7.399999" style="fill: white" />
  </g>
  <g id="layer72" slic3r:z="7.49999999999998e-06">
    <polygon slic3r:type="contour" points="10.886932,7.636932 12.386932,7.636932 12.386932,7.499999 12.886932,7.499999 12.886932,8.636932 14.636932,8.636932 14.636932,10.386932 15.773865,10.386932 15.773865,10.886932 15.636932,10.886932 15.636932,12.386932 15.773865,12.386932 15.773865,12.886932 14.636932,12.886932 14.636932,14.636932 12.886932,14.636932 12.886932,15.773865 12.386932,15.773865 12.386932,15.636932 10.886932,15.636932 10.886932,15.773865 10.386932,15.773865 10.386932,14.636932 8.636932,14.636932 8.636932,12.886932 7.5,12.886932 7.5,12.386932 7.636932,12.386932 7.636932,10.886932 7.5,10.886932 7.5,10.386932 8.636932,10.386932 8.636932,8.636932 10.386932,8.636932 10.386932,7.499999 10.886932,7.499999" style="fill: white" />
  </g>
  <g id="layer73" slic3r:z="7.59999999999998e-06">
    <polygon slic3r:type="contour" points="10.886932,8.13033 12.386932,8.13033 12.386932,7.599999 12.886932,7.599999 12.886932,8.636932 14.636932,8.636932 14.636932,10.386932 15.673865,10.386932 15.673865,10.886932 15.143534,10.886932 15.143534,12.386932 15.673865,12.386932 15.673865,12.886932 14.636932,12.886932 14.636932,14.636932 12.886932,14.636932 12.886932,15.673865 12.386932,15.673865 12.386932,15.143535 10.886932,15.143535 10.886932,15.673865 10.386932,15.673865 10.386932,14.636932 8.636932,14.636932 8.636932,12.886932 7.6,12.886932 7.6,12.386932 8.13033,12.386932 8.13033,10.886932 7.6,10.886932 7.6,10.386932 8.636932,10.386932 8.636932,8.636932 10.386932,8.636932 10.386932,7.599999 10.886932,7.599999" style="fill: white" />
  </g>
  <g id="layer74" slic3r:z="7.69999999999998e-06">
    <polygon slic3r:type="contour" points="10.886932,8.136932 12.386932,8.136932 12.386932,7.699999 12.886932,7.699999 12.886932,8.636932 14.636932,8.636932 14.636932,10.386932 15.573864,10.386932 15.573864,10.886932 15.136932,10.886932 15.136932,12.386932 15.573864,12.386932 15.573864,12.886932 14.636932,12.886932 14.636932,14.636932 12.886932,14.636932 12.886932,15.573864 12.386932,15.573864 12.386932,15.136932 10.886932,15.136932 10.886932,15.573864 10.386932,15.573864 10.386932,14.636932 8.636932,14.636932 8.636932,12.886932 7.7,12.886932 7.7,12.386932 8.136932,12.386932 8.136932,10.886932 7.7,10.886932 7.7,10.386932 8.636932,10.386932 8.636932,8.636932 10.386932,8.636932 10.386932,7.699999 10.886932,7.699999" style="fill: white" />
  </g>
  <g id="layer75" slic3r:z="7.79999999999998e-06">
    <polygon slic3r:type="contour" points="10.886932,8.136932 12.386932,8.136932 12.386932,7.799999 12.886932,7.799999 12.886932,8.636932 14.636932,8.636932 14.636932,10.386932 15.473865,10.386932 15.473865,10.886932 15.136932,10.886932 15.136932,12.386932 15.473865,12.386932 15.473865,12.886932 14.636932,12.886932 14.636932,14.636932 12.886932,14.636932 12.886932,15.473865 12.386932,15.473865 12.386932,15.136932 10.886932,15.136932 10.886932,15.473865 10.386932,15.473865 10.386932,14.636932 8.636932,14.636932 8.636932,12.886932 7.8,12.886932 7.8,12.386932 8.136932,12.386932 8.136932,10.886932 7.8,10.886932 7.8,10.386932 8.636932,10.386932 8.636932,8.636932 10.386932,8.636932 10.386932,7.799999 10.886932,7.799999" style="fill: white" />
  </g>
  <g id="layer76" slic3r:z="7.89999999999998e-06">
    <polygon slic3r:type="contour" points="10.886932,8.136932 12.386932,8.136932 12.386932,7.899999 12.886932,7.899999 12.886932,8.636932 14.636932,8.636932 14.636932,10.386932 15.373864,10.386932 15.373864,10.886932 15.136932,10.886932 15.136932,12.386932 15.373864,12.386932 15.373864,12.886932 14.636932,12.886932 14.636932,14.636932 12.886932,14.636932 12.886932,15.373864 12.386932,15.373864 12.386932,15.136932 10.886932,15.136932 10.886932,15.373864 10.386932,15.373864 10.386932,14.636932 8.636932,14.636932 8.636932,12.886932 7.899999,12.886932 7.899999,12.386932 8.136932,12.386932 8.136932,10.886932 7.899999,10.886932 7.899999,10.386932 8.636932,10.386932 8.636932,8.636932 10.386932,8.636932 10.386932,7.899999 10.886932,7.899999" style="fill: white" />
  </g>
  <g id="layer77" slic3r:z="7.99999999999998e-06">
    <polygon slic3r:type="contour" points="10.886932,8.136932 12.386932,8.136932 12.386932,7.999999 12.886932,7.999999 12.886932,8.636932 14.636932,8.636932 14.636932,10.386932 15.273865,10.386932 15.273865,10.886932 15.136932,10.886932 15.136932,12.386932 15.273865,12.386932 15.273865,12.886932 14.636932,12.886932 14.636932,14.636932 12.886932,14.636932 12.886932,15.273865 12.386932,15.273865 12.386932,15.136932 10.886932,15.136932 10.886932,15.273865 10.386932,15.273865 10.386932,14.636932 8.636932,14.636932 8.636932,12.886932 8,12.886932 8,12.386932 8.136932,12.386932 8.136932,10.886932 8,10.886932 8,10.386932 8.636932,10.386932 8.636932,8.636932 10.386932,8.636932 10.386932,7.999999 10.886932,7.999999" style="fill: white" />
  </g>
  <g id="layer78" slic3r:z="8.09999999999998e-06">
    <polygon slic3r:type="contour" points="10.886932,8.63033 12.386932,8.63033 12.386932,8.1 12.886932,8.1 12.886932,9.636932 13.636932,9.636932 13.636932,10.386932 15.173864,10.386932 15.173864,10.886932 14.643534,10.886932 14.643534,12.386932 15.173864,12.386932 15.173864,12.886932 13.636932,12.886932 13.636932,13.636932 12.886932,13.636932 12.886932,15.173864 12.386932,15.173864 12.386932,14.643534 10.886932,14.643534 10.886932,15.173864 10.386932,15.173864 10.386932,13.636932 9.636932,13.636932 9.636932,12.886932 8.1,12.886932 8.1,12.386932 8.63033,12.386932 8.63033,10.886932 8.1,10.886932 8.1,10.386932 9.636932,10.386932 9.636932,9.636932 10.386932,9.636932 10.386932,8.1 10.886932,8.1" style="fill: white" />
  </g>
  <g id="layer79" slic3r:z="8.19999999999998e-06">
    <polygon slic3r:type="contour" points="10.886932,8.636932 12.386932,8.636932 12.386932,8.2 12.886932,8.2 12.886932,9.636932 13.636932,9.636932 13.636932,10.386932 15.073864,10.386932 15.073864,10.886932 14.636932,10.886932 14.636932,12.386932 15.073864,12.386932 15.073864,12.886932 13.636932,12.886932 13.636932,13.636932 12.886932,13.636932 12.886932,15.073864 12.386932,15.073864 12.386932,14.636932 10.886932,14.636932 10.886932,15.073864 10.386932,15.073864 10.386932,13.636932 9.636932,13.636932 9.636932,12.886932 8.2,12.886932 8.2,12.386932 8.636932,12.386932 8.636932,10.886932 8.2,10.886932 8.2,10.386932 9.636932,10.386932 9.636932,9.636932 10.386932,9.636932 10.386932,8.2 10.886932,8.2" style="fill: white" />
  </g>
  <g id="layer80" slic3r:z="8.29999999999998e-06">
    <polygon slic3r:type="contour" points="10.886932,8.636932 12.386932,8.636932 12.386932,8.299999 12.886932,8.299999 12.886932,9.636932 13.636932,9.636932 13.636932,10.386932 14.973865,10.386932 14.973865,10.886932 14.636932,10.886932 14.636932,12.386932 14.973865,12.386932 14.973865,12.886932 13.636932,12.886932 13.636932,13.636932 12.886932,13.636932 12.886932,14.973865 12.386932,14.973865 12.386932,14.636932 10.886932,14.636932 10.886932,14.973865 10.386932,14.973865 10.386932,13.636932 9.636932,13.636932 9.636932,12.886932 8.3,12.886932 8.3,12.386932 8.636932,12.386932 8.636932,10.886932 8.3,10.886932 8.3,10.386932 9.636932,10.386932 9.636932,9.636932 10.386932,9.636932 10.386932,8.299999 10.886932,8.299999" style="fill: white" />
  </g>
  <g id="layer81" slic3r:z="8.39999999999998e-06">
    <polygon slic3r:type="contour" points="10.886932,8.636932 12.386932,8.636932 12.386932,8.4 12.886932,8.4 12.886932,9.636932 13.636932,9.636932 13.636932,10.386932 14.873865,10.386932 14.873865,10.886932 14.636932,10.886932 14.636932,12.386932 14.873865,12.386932 14.873865,12.886932 13.636932,12.886932 13.636932,13.636932 12.886932,13.636932 12.886932,14.873865 12.386932,14.873865 12.386932,14.636932 10.886932,14.636932 10.886932,14.873865 10.386932,14.873865 10.386932,13.636932 9.636932,13.636932 9.636932,12.886932 8.4,12.886932 8.4,12.386932 8.636932,12.386932 8.636932,10.886932 8.4,10.886932 8.4,10.386932 9.636932,10.386932 9.636932,9.636932 10.386932,9.636932 10.386932,8.4 10.886932,8.4" style="fill: white" />
  </g>
  <g id="layer82" slic3r:z="8.49999999999998e-06">
    <polygon slic3r:type="contour" points="10.886932,8.636932 12.386932,8.636932 12.386932,8.5 12.886932,8.5 12.886932,9.636932 13.636932,9.636932 13.636932,10.386932 14.773865,10.386932 14.773865,10.886932 14.636932,10.886932 14.636932,12.386932 14.773865,12.386932 14.773865,12.886932 13.636932,12.886932 13.636932,13.636932 12.886932,13.636932 12.886932,14.773865 12.386932,14.773865 12.386932,14.636932 10.886932,14.636932 10.886932,14.773865 10.386932,14.773865 10.386932,13.636932 9.636932,13.636932 9.636932,12.886932 8.5,12.886932 8.5,12.386932 8.636932,12.386932 8.636932,10.886932 8.5,10.886932 8.5,10.386932 9.636932,10.386932 9.636932,9.636932 10.386932,9.636932 10.386932,8.5 10.886932,8.5" style="fill: white" />
  </g>
  <g id="layer83" slic3r:z="8.59999999999999e-06">
    <polygon slic3r:type="contour" points="10.886932,9.130329 12.386932,9.130329 12.386932,8.6 12.886932,8.6 12.886932,9.636932 13.636932,9.636932 13.636932,10.386932 14.673865,10.386932 14.673865,10.886932 14.143535,10.886932 14.143535,12.386932 14.673865,12.386932 14.673865,12.886932 13.636932,12.886932 13.636932,13.636932 12.886932,13.636932 12.886932,14.673865 12.386932,14.673865 12.386932,14.143535 10.886932,14.143535 10.886932,14.673865 10.386932,14.673865 10.386932,13.636932 9.636932,13.636932 9.636932,12.886932 8.6,12.886932 8.6,12.386932 9.130329,12.386932 9.130329,10.886932 8.6,10.886932 8.6,10.386932 9.636932,10.386932 9.636932,9.636932 10.386932,9.636932 10.386932,8.6 10.886932,8.6" style="fill: white" />
  </g>
  <g id="layer84" slic3r:z="8.69999999999999e-06">
    <polygon slic3r:type="contour" points="10.886932,9.136932 12.386932,9.136932 12.386932,8.7 12.886932,8.7 12.886932,9.636932 13.636932,9.636932 13.636932,10.386932 14.573865,10.386932 14.573865,10.886932 14.136932,10.886932 14.136932,12.386932 14.573865,12.386932 14.573865,12.886932 13.636932,12.886932 13.636932,13.636932 12.886932,13.636932 12.886932,14.573865 12.386932,14.573865 12.386932,14.136932 10.886932,14.136932 10.886932,14.573865 10.386932,14.573865 10.386932,13.636932 9.636932,13.636932 9.636932,12.886932 8.7,12.886932 8.7,12.386932 9.136932,12.386932 9.136932,10.886932 8.7,10.886932 8.7,10.386932 9.636932,10.386932 9.636932,9.636932 10.386932,9.636932 10.386932,8.7 10.886932,8.7" style="fill: white" />
  </g>
  <g id="layer85" slic3r:z="8.79999999999999e-06">
    <polygon slic3r:type="contour" points="10.886932,9.136932 12.386932,9.136932 12.386932,8.8 12.886932,8.8 12.886932,9.636932 13.636932,9.636932 13.636932,10.386932 14.473865,10.386932 14.473865,10.886932 14.136932,10.886932 14.136932,12.386932 14.473865,12.386932 14.473865,12.886932 13.636932,12.886932 13.636932,13.636932 12.886932,13.636932 12.886932,14.473865 12.386932,14.473865 12.386932,14.136932 10.886932,14.136932 10.886932,14.473865 10.386932,14.473865 10.386932,13.636932 9.636932,13.636932 9.636932,12.886932 8.8,12.886932 8.8,12.386932 9.136932,12.386932 9.136932,10.886932 8.8,10.886932 8.8,10.386932 9.636932,10.386932 9.636932,9.636932 10.386932,9.636932 10.386932,8.8 10.886932,8.8" style="fill: white" />
  </g>
  <g id="layer86" slic3r:z="8.89999999999999e-06">
    <polygon slic3r:type="contour" points="10.886932,9.136932 12.386932,9.136932 12.386932,8.9 12.886932,8.9 12.886932,9.636932 13.636932,9.636932 13.636932,10.386932 14.373865,10.386932 14.373865,10.886932 14.136932,10.886932 14.136932,12.386932 14.373865,12.386932 14.373865,12.886932 13.636932,12.886932 13.636932,13.636932 12.886932,13.636932 12.886932,14.373865 12.386932,14.373865 12.386932,14.136932 10.886932,14.136932 10.886932,14.373865 10.386932,14.373865 10.386932,13.636932 9.636932,13.636932 9.636932,12.886932 8.9,12.886932 8.9,12.386932 9.136932,12.386932 9.136932,10.886932 8.9,10.886932 8.9,10.386932 9.636932,10.386932 9.636932,9.636932 10.386932,9.636932 10.386932,8.9 10.886932,8.9" style="fill: white" />
  </g>
  <g id="layer87" slic3r:z="8.99999999999999e-06">
    <polygon slic3r:type="contour" points="10.886932,9.136932 12.386932,9.136932 12.386932,9 12.886932,9 12.886932,9.636932 13.636932,9.636932 13.636932,10.386932 14.273865,10.386932 14.273865,10.886932 14.136932,10.886932 14.136932,12.386932 14.273865,12.386932 14.273865,12.886932 13.636932,12.886932 13.636932,13.636932 12.886932,13.636932 12.886932,14.273865 12.386932,14.273865 12.386932,14.136932 10.886932,14.136932 10.886932,14.273865 10.386932,14.273865 10.386932,13.636932 9.636932,13.636932 9.636932,12.886932 9,12.886932 9,12.386932 9.136932,12.386932 9.136932,10.886932 9,10.886932 9,10.386932 9.636932,10.386932 9.636932,9.636932 10.386932,9.636932 10.386932,9 10.886932,9" style="fill: white" />
  </g>
  <g id="layer88" slic3r:z="9.09999999999999e-06">
    <polygon slic3r:type="contour" points="13.136932,13.136932 10.136932,13.136932 10.136932,10.136932 13.136932,10.136932" style="fill: white" />
  </g>
  <g id="layer89" slic3r:z="9.19999999999999e-06">
    <polygon slic3r:type="contour" points="13.136932,13.136932 10.136932,13.136932 10.136932,10.136932 13.136932,10.136932" style="fill: white" />
  </g>
  <g id="layer90" slic3r:z="9.3e-06">
    <polygon slic3r:type="contour" points="11.511932,10.636932 11.761932,10.636932 11.761932,10.136932 13.136932,10.136932 13.136932,11.511932 12.636932,11.511932 12.636932,11.761932 13.136932,11.761932 13.136932,13.136932 12.261932,13.136932 12.261932,11.886932 12.011932,11.886932 12.011932,13.136932 11.761932,13.136932 11.761932,11.886932 11.511932,11.886932 11.511932,13.136932 11.261932,13.136932 11.261932,11.886932 11.011932,11.886932 11.011932,13.136932 10.136932,13.136932 10.136932,11.761932 11.386932,11.761932 11.386932,11.511932 10.136932,11.511932 10.136932,10.136932 11.511932,10.136932" style="fill: white" />
  </g>
  <g id="layer91" slic3r:z="9.4e-06">
    <polygon slic3r:type="contour" points="11.511932,10.636932 11.761932,10.636932 11.761932,10.136932 13.136932,10.136932 13.136932,11.511932 12.636932,11.511932 12.636932,11.761932 13.136932,11.761932 13.136932,13.136932 12.261932,13.136932 12.261932,11.886932 12.011932,11.886932 12.011932,13.136932 11.761932,13.136932 11.761932,11.886932 11.511932,11.886932 11.511932,13.136932 11.261932,13.136932 11.261932,11.886932 11.011932,11.886932 11.011932,13.136932 10.136932,13.136932 10.136932,11.761932 11.386932,11.761932 11.386932,11.511932 10.136932,11.511932 10.136932,10.136932 11.511932,10.136932" style="fill: white" />
  </g>
  <g id="layer92" slic3r:z="9.5e-06">
    <polygon slic3r:type="contour" points="11.511932,10.636932 11.761932,10.636932 11.761932,10.136932 13.136932,10.136932 13.136932,11.511932 12.636932,11.511932 12.636932,11.761932 13.136932,11.761932 13.136932,13.136932 12.261932,13.136932 12.261932,11.886932 12.011932,11.886932 12.011932,13.136932 11.761932,13.136932 11.761932,11.886932 11.511932,11.886932 11.511932,13.136932 11.261932,13.136932 11.261932,11.886932 11.011932,11.886932 11.011932,13.136932 10.136932,13.136932 10.136932,11.761932 11.386932,11.761932 11.386932,11.511932 10.136932,11.511932 10.136932,10.136932 11.511932,10.136932" style="fill: white" />
  </g>
  <g id="layer93" slic3r:z="9.6e-06">
    <polygon slic3r:type="contour" points="11.511932,10.636932 11.761932,10.636932 11.761932,10.136932 13.136932,10.136932 13.136932,11.511932 12.636932,11.511932 12.636932,11.761932 13.136932,11.761932 13.136932,13.136932 12.261932,13.136932 12.261932,11.886932 12.011932,11.886932 12.011932,13.136932 11.761932,13.136932 11.761932,11.886932 11.511932,11.886932 11.511932,13.136932 11.261932,13.136932 11.261932,11.886932 11.011932,11.886932 11.011932,13.136932 10.136932,13.136932 10.136932,11.761932 11.386932,11.761932 11.386932,11.511932 10.136932,11.511932 10.136932,10.136932 11.511932,10.136932" style="fill: white" />
  </g>
  <g id="layer94" slic3r:z="9.7e-06">
    <polygon slic3r:type="contour" points="11.511932,10.636932 11.761932,10.636932 11.761932,10.136932 13.136932,10.136932 13.136932,11.511932 12.636932,11.511932 12.636932,11.761932 13.136932,11.761932 13.136932,13.136932 12.261932,13.136932 12.261932,11.886932 12.011932,11.886932 12.011932,13.136932 11.761932,13.136932 11.761932,11.886932 11.511932,11.886932 11.511932,13.136932 11.261932,13.136932 11.261932,11.886932 11.011932,11.886932 11.011932,13.136932 10.136932,13.136932 10.136932,11.761932 11.386932,11.761932 11.386932,11.511932 10.136932,11.511932 10.136932,10.136932 11.511932,10.136932" style="fill: white" />
  </g>
  <g id="layer95" slic3r:z="9.8e-06">
    <polygon slic3r:type="contour" points="13.136932,13.136932 10.136932,13.136932 10.136932,10.136932 13.136932,10.136932" style="fill: white" />
  </g>
  <g id="layer96" slic3r:z="9.90000000000001e-06">
    <polygon slic3r:type="contour" points="13.136932,13.136932 10.136932,13.136932 10.136932,10.136932 13.136932,10.136932" style="fill: white" />
  </g>
  <g id="layer97" slic3r:z="1e-05">
    <polygon slic3r:type="contour" points="13.136932,13.136932 10.136932,13.136932 10.136932,10.136932 13.136932,10.136932" style="fill: white" />
  </g>
  <g id="layer98" slic3r:z="1.01e-05">
    <polygon slic3r:type="contour" points="13.136932,13.136932 10.136932,13.136932 10.136932,10.136932 13.136932,10.136932" style="fill: white" />
  </g>
  <g id="layer99" slic3r:z="1.02e-05">
    <polygon slic3r:type="contour" points="13.136932,13.136932 10.136932,13.136932 10.136932,10.136932 13.136932,10.136932" style="fill: white" />
  </g>
  <g id="layer100" slic3r:z="1.03e-05">
    <polygon slic3r:type="contour" points="13.136932,13.136932 10.136932,13.136932 10.136932,10.136932 13.136932,10.136932" style="fill: white" />
  </g>
  <g id="layer101" slic3r:z="1.04e-05">
    <polygon slic3r:type="contour" points="13.136932,13.136932 10.136932,13.136932 10.136932,10.136932 13.136932,10.136932" style="fill: white" />
  </g>
  <g id="layer102" slic3r:z="1.05e-05">
    <polygon slic3r:type="contour" points="13.136932,13.136932 10.136932,13.136932 10.136932,10.136932 13.136932,10.136932" style="fill: white" />
  </g>
</svg>
