<?xml version="1.0" encoding="UTF-8" standalone="yes"?>
<!DOCTYPE svg PUBLIC "-//W3C//DTD SVG 1.0//EN" "http://www.w3.org/TR/2001/REC-SVG-20010904/DTD/svg10.dtd">
<svg width="30.80066" height="24.161603" xmlns="http://www.w3.org/2000/svg" xmlns:svg="http://www.w3.org/2000/svg" xmlns:xlink="http://www.w3.org/1999/xlink" xmlns:slic3r="http://slic3r.org/namespaces/slic3r">
  <!-- 
  Generated using Slic3r 1.2.6
  http://slic3r.org/
   -->
  <g id="layer0" slic3r:z="5e-08">
    <polygon slic3r:type="contour" points="17.582007,2.027754 17.589906,2.182303 17.601602,2.182303 17.601602,3.018116 15.995203,3.018116 15.995203,5.604836 17.601602,5.604836 17.601602,6.139163 12.401602,6.139163 12.401602,7.360001 23.2016,7.360001 23.2016,7.943874 24.350526,7.915841 24.95461,7.901101 24.920779,7.170982 24.906456,6.861812 30.393971,6.71819 30.77526,6.70821 30.776751,6.740407 30.800068,7.243705 30.770135,7.280234 30.764957,7.286552 30.747225,7.308193 30.507846,7.600342 30.451083,7.669617 30.366816,7.77246 30.229259,7.940337 29.57525,8.738516 29.57689,8.803059 29.57759,8.830539 29.580473,8.955893 29.587254,9.222909 29.600568,9.747093 29.013767,9.761411 28.73147,9.768298 28.555088,9.983563 28.555062,9.983593 28.539714,10.002326 28.496854,10.054635 28.440283,10.056116 27.01985,10.093297 26.946804,8.541546 26.945432,8.512419 26.942402,8.447997 26.446398,8.460799 26.449724,8.531448 26.450802,8.554359 26.52385,10.106276 25.155098,10.142098 25.059946,10.144588 25.058776,10.11985 25.056566,10.073097 25.056566,10.073082 25.04641,9.858215 24.879277,9.862292 24.775455,9.864825 24.781938,10.012918 24.785407,10.092211 24.793746,10.285735 24.797615,10.375522 24.79853,10.396342 24.701426,10.397678 23.421937,10.415295 23.2016,10.418329 23.2016,10.561601 18.817632,10.561601 18.820915,10.852208 18.960487,23.203183 18.965241,23.623877 18.9664,23.726397 18.766241,23.747986 14.931202,24.161604 14.92972,24.030511 14.863572,18.177011 14.862401,18.073355 14.784844,18.056379 14.5312,18.592 14.529096,18.405866 14.444301,10.902671 14.440446,10.561601 12.001602,10.561601 12.001602,10.9616 6.8,10.9616 6.8,10.561601 5.350875,10.561601 5.263638,10.647442 5.224174,10.686322 3.978754,11.913349 3.809878,12.079938 3.685632,12.2025 3.058502,13.827254 2.472587,15.345235 2.093516,16.327874 1.853158,16.950934 1.412426,16.780496 1.11596,16.665849 0.99897,16.620835 0.940801,16.598402 0.88243,16.575767 0.765296,16.530608 0.675822,16.496067 0.378852,16.38142 0.026842,16.245525 1.378323,12.742186 2.069199,10.951278 2.219526,10.561601 1.25929,10.561601 1.315526,10.352 1.179448,9.846399 1.170052,9.836968 0.809611,9.475202 0.571774,9.411467 0.562409,9.408956 0.302937,9.339199 0.057242,9.405256 0,9.420593 0,7.360001 10.400002,7.360001 10.400002,6.139163 2.8,6.139163 2.8,5.578826 6.004799,5.578826 6.004799,3.044357 2.8,3.044357 2.8,2.291019 2.799999,2.182303 15.264508,2.182303 15.379743,2.068627 15.537155,1.913348 16.82125,0.64744 16.990136,0.48105 17.4784,0" style="fill: white" />
  </g>
  <g id="layer1" slic3r:z="1.5e-07">
    <polygon slic3r:type="contour" points="17.564898,1.692891 17.59127,2.20898 17.601602,2.20898 17.601602,3.045003 15.995203,3.045003 15.995203,5.578186 17.601602,5.578186 17.601602,6.112327 12.401602,6.112327 12.401602,7.360001 23.2016,7.360001 23.2016,7.917192 23.294591,7.914923 24.953487,7.874443 24.950865,7.817866 24.907894,6.890354 29.632832,6.766689 30.776698,6.736752 30.781173,6.833345 30.800178,7.243573 30.710384,7.353157 30.694852,7.372112 30.641656,7.437034 29.923511,8.313486 29.753227,8.521309 29.575313,8.738442 29.575878,8.763153 29.576126,8.772846 29.576348,8.78256 29.600587,9.737105 29.601518,9.773761 29.556045,9.77487 28.709151,9.795533 28.649367,9.868502 28.520784,10.02543 28.148863,10.035164 27.018506,10.064752 26.95561,8.728642 26.951497,8.64126 26.94679,8.541244 26.945181,8.507119 26.942399,8.447997 26.446399,8.460799 26.449574,8.528249 26.450788,8.554066 26.456373,8.672744 26.45961,8.741478 26.522508,10.077731 25.295369,10.109847 25.058508,10.116047 25.054999,10.041829 25.047582,9.884874 24.776621,9.891486 24.787533,10.140843 24.79232,10.251947 24.795248,10.319865 23.827403,10.333191 23.2016,10.341807 23.2016,10.561601 18.817632,10.561601 18.829751,11.634151 18.948661,22.156755 18.962923,23.418835 18.9664,23.726398 18.365924,23.791159 14.931202,24.161604 14.926757,23.768325 14.869905,18.737409 14.862401,18.073354 14.784844,18.056378 14.5312,18.592 14.524889,18.033596 14.452581,11.635278 14.440447,10.561601 12.001602,10.561601 12.001602,10.9616 6.8,10.9616 6.8,10.561601 5.350875,10.561601 4.993537,10.913223 4.970656,10.935766 4.248522,11.647235 3.741894,12.147001 3.732266,12.156498 3.683668,12.282402 1.925921,16.836347 1.896546,16.912493 1.877921,16.960776 1.843768,16.947568 0.954373,16.603628 0.945308,16.60014 0.940801,16.598402 0.936277,16.596647 0.9272,16.593148 0.920267,16.590472 0.029357,16.246529 0.00208,16.235999 0.106806,15.964523 2.191089,10.561601 1.261749,10.561601 1.313697,10.367978 1.317984,10.352002 1.307611,10.313464 1.181905,9.846398 1.153716,9.818106 0.812069,9.475201 0.586633,9.41479 0.558539,9.407261 0.305375,9.3392 0.272118,9.34814 0.053371,9.406952 0,9.421252 0,7.360001 10.400002,7.360001 10.400002,6.112327 2.8,6.112327 2.8,5.552175 6.004799,5.552175 6.004799,3.071244 2.8,3.071244 2.8,2.20898 15.237464,2.20898 15.33469,2.113069 15.806923,1.647234 16.551481,0.913221 17.05814,0.414051 17.4784,0" style="fill: white" />
  </g>
  <g id="layer2" slic3r:z="2.5e-07">
    <polygon slic3r:type="contour" points="17.555567,1.510274 17.592632,2.235671 17.601602,2.235656 17.601602,3.071889 15.995203,3.071889 15.995203,5.551535 17.601602,5.551535 17.601602,6.08549 12.401602,6.08549 12.401602,7.360001 23.2016,7.360001 23.2016,7.939314 24.257168,7.913557 24.954628,7.89654 24.947909,7.751559 24.909332,6.918896 28.87169,6.81519 30.778134,6.765294 30.785596,6.926284 30.800288,7.24344 30.650632,7.42608 30.624745,7.457673 30.536086,7.565876 29.57525,8.738516 29.575913,8.764672 29.577341,8.820749 29.579769,8.92627 29.600729,9.751652 29.45995,9.755086 28.727653,9.772958 28.544714,9.996224 28.005836,10.010327 27.017162,10.036206 26.964415,8.915737 26.957561,8.770103 26.949715,8.603407 26.947038,8.546535 26.9424,8.447997 26.913565,8.448742 26.913565,8.448741 26.446399,8.460799 26.45169,8.573215 26.453715,8.616242 26.463025,8.81404 26.465958,8.87635 26.521164,10.049186 25.532831,10.075053 25.057072,10.087505 25.051223,9.963809 25.04645,9.862784 24.904899,9.866239 24.775655,9.86939 24.786633,10.120315 24.78966,10.189476 24.790896,10.218158 24.791652,10.235692 24.492579,10.239809 23.2016,10.257587 23.2016,10.561601 18.817632,10.561601 18.836901,12.266957 18.936835,21.110327 18.960607,23.213793 18.9664,23.726398 18.020856,23.828377 14.931202,24.161604 14.923794,23.506141 14.876237,19.297807 14.862401,18.073356 14.784844,18.05638 14.752343,18.125013 14.5312,18.591999 14.520681,17.661327 14.459719,12.266957 14.440447,10.561601 12.001602,10.561601 12.001602,10.9616 6.8,10.9616 6.8,10.561601 5.350875,10.561601 4.723437,11.179003 4.717136,11.185211 4.518289,11.381122 4.361421,11.535865 3.69407,12.194176 2.75993,14.61433 1.857391,16.952616 1.088345,16.655216 0.989866,16.617325 0.9408,16.598401 0.891568,16.579311 0.792965,16.541297 0.02261,16.243896 0.544672,14.891635 2.215068,10.561601 1.264207,10.561601 1.313297,10.378628 1.320441,10.352002 1.303155,10.287774 1.184363,9.846398 1.137382,9.799244 0.814527,9.475202 0.601491,9.418113 0.554668,9.405564 0.325405,9.343929 0.307814,9.3392 0.252382,9.354102 0.049502,9.408647 0,9.421911 0,7.360001 10.400002,7.360001 10.400002,6.08549 2.8,6.08549 2.8,5.525525 6.004799,5.525525 6.004799,3.098131 2.8,3.098131 2.8,2.235657 6.794287,2.235658 7.254242,2.235657 15.210419,2.235657 15.289637,2.157512 16.076691,1.381121 16.281714,1.179002 17.126142,0.347053 17.4784,0" style="fill: white" />
  </g>
  <g id="layer3" slic3r:z="3.5e-07">
    <polygon slic3r:type="contour" points="17.538717,1.180503 17.593996,2.262342 17.601602,2.262334 17.601602,3.098776 15.995203,3.098776 15.995203,5.524885 17.601602,5.524885 17.601602,6.058653 12.401602,6.058653 12.401602,7.360001 23.2016,7.360001 23.2016,7.965911 24.759887,7.927889 24.955896,7.923107 24.952126,7.840057 24.941923,7.61985 24.91077,6.947438 28.110549,6.863691 30.77957,6.793836 30.790016,7.019222 30.800398,7.243306 30.590879,7.499005 30.55464,7.543233 30.430515,7.694719 29.57525,8.738516 29.577557,8.829416 29.578804,8.878337 29.583885,9.099055 29.599782,9.72507 29.305309,9.732256 28.749898,9.745809 28.70729,9.79781 28.568643,9.967019 27.765621,9.988035 27.015816,10.007662 26.973223,9.102833 26.963627,8.898945 26.952641,8.665571 26.948892,8.58595 26.942401,8.447997 26.830367,8.45089 26.446399,8.460799 26.453805,8.61818 26.456641,8.678419 26.469676,8.955337 26.477225,9.115715 26.51982,10.020641 25.721698,10.041529 25.055634,10.058963 25.047448,9.885789 25.045105,9.836219 24.774496,9.842822 24.779003,9.94593 24.78145,10.001851 24.462134,10.006247 23.2016,10.023602 23.2016,10.561601 18.817632,10.561601 18.844609,12.949099 18.925011,20.063899 18.958291,23.008751 18.9664,23.726397 17.565289,23.877512 14.931202,24.161604 14.920831,23.243955 14.88257,19.858205 14.862401,18.073354 14.784844,18.056378 14.709116,18.216292 14.5312,18.592 14.516474,17.289057 14.467428,12.949099 14.440447,10.561601 12.001602,10.561601 12.001602,10.9616 6.8,10.9616 6.8,10.561601 5.350875,10.561601 4.788819,11.114667 4.715193,11.187206 4.452987,11.445539 4.436343,11.461958 3.648071,12.23955 3.622308,12.306334 1.832707,16.942806 1.249422,16.717243 1.043431,16.637983 0.9408,16.598401 0.837819,16.558469 0.631572,16.478954 0.047294,16.25339 1.139292,13.424864 2.243852,10.561601 1.266665,10.561601 1.312898,10.389278 1.322899,10.352002 1.298698,10.262082 1.186822,9.846399 1.121047,9.780382 0.816985,9.475202 0.616349,9.421436 0.550798,9.403869 0.334878,9.34582 0.310251,9.3392 0.232649,9.360062 0.045631,9.410342 0,9.422569 0,7.360001 10.400002,7.360001 10.400002,6.058653 2.8,6.058653 2.8,5.498874 6.004799,5.498874 6.004799,3.125018 2.8,3.125018 2.8,2.262334 8.392003,2.262335 9.035938,2.262334 15.183376,2.262334 15.244585,2.201953 16.011389,1.445537 16.035989,1.421287 16.347015,1.114665 17.194146,0.280054 17.4784,0" style="fill: white" />
  </g>
  <g id="layer4" slic3r:z="4.5e-07">
    <polygon slic3r:type="contour" points="17.524287,0.898085 17.59536,2.289012 17.601602,2.289012 17.601602,3.125663 15.995203,3.125663 15.995203,5.498235 17.601602,5.498235 17.601602,6.031816 12.401602,6.031816 12.401602,7.360001 23.2016,7.360001 23.2016,7.992509 24.263617,7.966596 24.957046,7.949676 24.943707,7.655867 24.933733,7.440551 24.933732,7.440551 24.912208,6.97598 27.349409,6.912192 30.781008,6.822378 30.794438,7.11216 30.800507,7.243174 30.531128,7.571928 30.484531,7.628795 30.324946,7.82356 29.57525,8.738516 29.579203,8.894159 29.580266,8.935923 29.587999,9.271841 29.598834,9.698487 29.150672,9.709423 28.772144,9.718662 28.669535,9.843886 28.592573,9.937813 27.574001,9.964471 27.014472,9.979117 26.982029,9.289928 26.972151,9.080034 26.955568,8.727736 26.950748,8.625365 26.942399,8.447998 26.798359,8.451716 26.446399,8.460799 26.455923,8.663146 26.459569,8.740596 26.476327,9.096633 26.488272,9.350388 26.518478,9.992096 25.910566,10.008006 25.054197,10.030421 25.043761,9.809653 25.036946,9.80982 25.036946,9.809819 23.975188,9.835726 23.2016,9.854601 23.2016,10.561601 18.817632,10.561601 18.852319,13.631242 18.912615,18.967006 18.955973,22.803711 18.9664,23.726398 17.164971,23.920686 14.931202,24.161604 14.917868,22.981769 14.888903,20.418603 14.862401,18.073354 14.784844,18.056378 14.66589,18.307572 14.5312,18.591999 14.512267,16.916789 14.475137,13.631242 14.440446,10.561601 12.001602,10.561601 12.001602,10.9616 6.8,10.9616 6.8,10.561601 5.951318,10.5616 5.630092,10.561601 5.350875,10.561601 5.059821,10.848 4.867438,11.03754 4.182319,11.71254 4.138834,11.755438 3.601603,12.28539 3.027687,13.773108 1.808023,16.932996 1.410497,16.779267 1.096995,16.65864 0.9408,16.598401 0.784072,16.537629 0.470179,16.416612 0.071978,16.262884 1.733911,11.958093 2.272636,10.561601 1.269122,10.561601 1.312498,10.399929 1.325358,10.352002 1.294241,10.236391 1.18928,9.846399 1.104713,9.761521 0.819443,9.475202 0.631206,9.424758 0.546926,9.402172 0.344353,9.347713 0.312689,9.3392 0.212913,9.366024 0.041759,9.412039 0,9.423228 0,7.360001 10.400002,7.360001 10.400002,6.031816 2.8,6.031816 2.8,5.43303 6.004799,5.43303 6.004799,3.190801 2.8,3.190801 2.8,2.289012 9.989718,2.289012 10.817635,2.289011 15.156332,2.289011 15.199531,2.246397 15.740722,1.712538 15.805,1.649171 16.617681,0.847999 17.26215,0.213055 17.4784,0" style="fill: white" />
  </g>
  <g id="layer5" slic3r:z="5.5e-07">
    <polygon slic3r:type="contour" points="17.509857,0.615668 17.596724,2.315692 17.601602,2.315689 17.601602,3.193201 15.995203,3.193201 15.995203,5.430622 17.601602,5.430622 17.601602,6.004979 12.401602,6.004979 12.401602,7.360001 23.2016,7.360001 23.2016,8.019105 23.767348,8.005301 24.958193,7.976246 24.935289,7.471678 24.929949,7.356432 24.913646,7.004522 26.588269,6.960692 30.782444,6.85092 30.798859,7.205097 30.800618,7.243041 30.471373,7.644853 30.414426,7.714354 30.219373,7.952403 29.575252,8.738514 29.580848,8.958903 29.581728,8.99351 29.592113,9.444626 29.597884,9.671906 29.047151,9.685345 28.794388,9.691513 28.689063,9.820051 28.616503,9.908607 27.430974,9.939634 27.013128,9.950572 26.990836,9.477025 26.975758,9.15663 26.958493,8.789899 26.952602,8.66478 26.9424,8.447997 26.76635,8.452541 26.446399,8.460799 26.460278,8.755666 26.462495,8.802773 26.482978,9.23793 26.494841,9.489953 26.517134,9.963551 26.099432,9.974483 25.05276,10.001878 25.045667,9.851856 25.042418,9.78308 23.40292,9.823092 23.288886,9.825874 23.2016,9.828005 23.2016,10.561601 18.817632,10.561601 18.860027,14.313385 18.901359,17.971041 18.953657,22.598669 18.9664,23.726398 16.764655,23.963861 14.931202,24.161603 14.914905,22.719585 14.895236,20.979 14.862401,18.073355 14.784844,18.056379 14.622665,18.398852 14.5312,18.592 14.50806,16.54452 14.482846,14.313385 14.440447,10.561601 12.001602,10.561601 12.001602,10.9616 6.8,10.9616 6.8,10.561601 5.762721,10.5616 5.350874,10.561601 5.33082,10.581334 5.019684,10.887873 3.911653,11.97954 3.841325,12.048917 3.555137,12.331228 2.433067,15.23988 1.783339,16.923185 1.571574,16.841294 1.15056,16.679298 0.9408,16.598401 0.730324,16.516788 0.308787,16.35427 0.096661,16.272378 2.212303,10.79238 2.3014,10.561601 1.271581,10.561601 1.3121,10.410578 1.327816,10.352001 1.289785,10.210699 1.191738,9.846399 1.088378,9.742659 0.821901,9.475202 0.646065,9.428081 0.543057,9.400477 0.353826,9.349603 0.315126,9.3392 0.19318,9.371984 0.03789,9.413734 0,9.423887 0,7.360001 10.400002,7.360001 10.400002,6.004979 2.8,6.004979 2.8,5.332707 6.004799,5.332707 6.004799,3.2908 2.8,3.2908 2.8,2.315689 11.587434,2.31569 12.599332,2.315689 15.129288,2.315689 15.154479,2.290839 15.470054,1.979538 15.57401,1.877057 16.888348,0.581331 17.330151,0.146057 17.4784,0" style="fill: white" />
  </g>
  <g id="layer6" slic3r:z="6.5e-07">
    <polygon slic3r:type="contour" points="17.495427,0.333251 17.598088,2.342368 17.601602,2.342366 17.601602,3.2932 15.995203,3.2932 15.995203,5.330299 17.601602,5.330299 17.601602,5.978142 12.401602,5.978142 12.401602,7.360001 23.2016,7.360001 23.2016,8.045703 23.271078,8.044007 23.962695,8.027133 24.959341,8.002817 24.953507,7.874261 24.926872,7.28749 24.921759,7.177133 24.915084,7.033064 25.827128,7.009192 30.783882,6.879462 30.795674,7.133889 30.80063,7.243026 30.782322,7.265368 30.743441,7.312821 30.411622,7.717776 30.344319,7.799916 30.113804,8.081244 29.575251,8.738514 29.582491,9.023645 29.58319,9.051097 29.596227,9.617411 29.596936,9.645323 28.841396,9.66376 28.816632,9.664366 28.679951,9.831171 28.640434,9.879401 27.239354,9.91607 27.011784,9.922028 26.999643,9.66412 26.981821,9.285472 26.961419,8.852064 26.954457,8.704193 26.9424,8.447997 26.685729,8.454622 26.446401,8.460799 26.460156,8.753079 26.465423,8.86495 26.489629,9.379225 26.503649,9.677072 26.51579,9.935007 26.2883,9.94096 25.051321,9.973336 25.04746,9.891631 25.041076,9.756507 24.786646,9.762716 23.2016,9.8014 23.2016,10.561601 18.817632,10.561601 18.867735,14.995527 18.889535,16.924613 18.951342,22.393628 18.9664,23.726398 16.364337,24.007036 14.931202,24.161604 14.911942,22.457399 14.901569,21.539398 14.862401,18.073354 14.784844,18.056379 14.57944,18.490131 14.5312,18.592 14.503853,16.172251 14.490555,14.995527 14.440447,10.561601 12.001602,10.561601 12.001602,10.9616 6.8,10.9616 6.8,10.561601 5.574125,10.5616 5.351185,10.561601 5.171931,10.738206 3.640986,12.246541 3.543815,12.342397 3.508668,12.377068 1.838447,16.706653 1.758656,16.913376 1.73265,16.903318 1.204125,16.699956 0.9408,16.598401 0.676576,16.495947 0.147395,16.291928 0.121345,16.281872 0.381161,15.608889 2.329749,10.561601 1.274039,10.561601 1.3117,10.421229 1.330274,10.352001 1.285328,10.185008 1.194196,9.846399 1.072043,9.723797 0.824359,9.475202 0.660924,9.431405 0.539185,9.39878 0.363302,9.351496 0.317564,9.3392 0.173444,9.377946 0.034018,9.415431 0,9.424546 0,7.360001 10.400002,7.360001 10.400002,5.978142 2.8,5.978142 2.8,5.232384 6.004799,5.232384 6.004799,3.3908 2.8,3.3908 2.8,2.342366 13.185149,2.342367 14.381028,2.342366 15.102243,2.342366 15.199387,2.246539 15.343022,2.104941 17.159013,0.314666 17.398155,0.079058 17.4784,0" style="fill: white" />
  </g>
  <g id="layer7" slic3r:z="7.5e-07">
    <polygon slic3r:type="contour" points="17.480997,0.050834 17.59945,2.369045 17.601602,2.369043 17.601602,3.3932 15.995203,3.3932 15.995203,5.229976 17.601602,5.229976 17.601602,5.951306 12.401602,5.951306 12.401602,7.360001 23.2016,7.360001 23.2016,8.135476 23.418532,8.130181 24.963407,8.092486 24.960799,8.0362 24.958949,7.995448 24.957534,7.964231 24.92473,7.241547 24.922817,7.19946 24.918454,7.103301 24.917977,7.093014 24.916522,7.061606 25.065988,7.057693 30.785318,6.908005 30.787249,6.949699 30.800574,7.243094 30.751359,7.303155 30.646838,7.430719 30.351869,7.790701 30.274214,7.885476 30.008233,8.210087 29.575251,8.738514 29.584136,9.088389 29.584651,9.108683 29.594941,9.555602 29.487938,9.558212 29.021196,9.5696 28.891692,9.57276 28.718579,9.784028 28.697023,9.810337 28.67084,9.84229 28.664364,9.850194 27.047733,9.892507 27.01044,9.893483 27.00845,9.851217 26.987885,9.414314 26.964345,8.914228 26.956313,8.743608 26.942401,8.447997 26.702331,8.454194 26.446401,8.460799 26.462273,8.798044 26.46835,8.927128 26.496279,9.520522 26.514447,9.906462 26.477166,9.907437 25.049886,9.944794 25.049251,9.931403 25.047986,9.904601 25.047914,9.903058 25.036799,9.666832 23.948965,9.693381 23.2016,9.711621 23.2016,10.561601 18.817632,10.561601 18.875443,15.677671 18.877709,15.878185 18.949023,22.188585 18.966399,23.726398 15.964019,24.050212 14.931202,24.161604 14.908979,22.195215 14.907901,22.099796 14.862401,18.073354 14.784844,18.056379 14.536214,18.581411 14.5312,18.592 14.531199,18.592 14.499647,15.799983 14.498835,15.728135 14.440447,10.561601 12.001602,10.561601 12.001602,10.9616 6.8,10.9616 6.8,10.561601 5.385528,10.5616 5.351521,10.5616 5.288365,10.623822 3.370321,12.51354 3.353104,12.530524 3.055111,13.302986 3.050743,13.314304 1.674785,16.881102 1.25769,16.720614 0.940801,16.598402 0.622829,16.475106 0.205216,16.314101 0.875346,14.577348 2.42569,10.561601 1.276497,10.561601 1.328158,10.369049 1.332731,10.352002 1.280872,10.159317 1.196654,9.846399 1.055709,9.704936 0.826816,9.475201 0.675781,9.434727 0.535315,9.397085 0.372775,9.353387 0.32,9.3392 0.153711,9.383905 0.030147,9.417127 0,9.425204 0,7.360001 10.400002,7.360001 10.400002,5.951306 2.8,5.951306 2.8,5.132061 6.004799,5.132061 6.004799,3.4908 2.8,3.4908 2.8,2.369043 14.782865,2.369045 15.075294,2.369044 15.112031,2.332827 17.42968,0.047999 17.46616,0.012058 17.4784,0" style="fill: white" />
  </g>
  <g id="layer8" slic3r:z="8.5e-07">
    <polygon slic3r:type="contour" points="17.601602,3.4932 15.995203,3.4932 15.995203,5.129654 17.601602,5.129654 17.601602,5.924469 12.401602,5.924469 12.401602,7.360001 23.2016,7.360001 23.2016,8.235539 24.729212,8.198257 24.96804,8.192429 24.96547,8.136949 24.957955,7.974825 24.956419,7.940971 24.955244,7.915038 24.920632,7.152554 25.712306,7.131833 26.43992,7.11279 30.789428,6.998954 30.800518,7.24316 30.7204,7.34094 30.550231,7.548619 30.292118,7.863624 30.204105,7.971037 29.902664,8.338928 29.57525,8.738516 29.575752,8.758217 29.58578,9.153132 29.586116,9.166271 29.592776,9.455602 29.361347,9.461248 28.975346,9.470666 28.929001,9.527226 28.740608,9.757143 27.965925,9.777419 27.00616,9.802539 26.993951,9.543156 26.967271,8.976392 26.958168,8.783024 26.942401,8.447997 26.721511,8.453698 26.446401,8.460799 26.464389,8.84301 26.471278,8.989306 26.50293,9.661819 26.510166,9.815518 25.871842,9.832224 25.04555,9.853846 25.035283,9.635573 25.032043,9.566885 24.923284,9.569539 23.2016,9.611558 23.2016,10.561601 18.817632,10.561601 18.855275,13.892937 18.876338,15.7568 14.499159,15.7568 14.488125,14.78049 14.440447,10.561601 12.001602,10.561601 12.001602,10.9616 6.8,10.9616 6.8,10.561601 5.450556,10.5616 4.875485,10.5616 4.00584,10.561601 3.752857,11.217018 3.011926,13.136607 2.731508,13.863512 1.581278,16.84517 1.311253,16.741271 0.940801,16.598402 0.56908,16.454263 0.298722,16.350032 1.748072,12.593799 2.532635,10.561601 1.278955,10.561601 1.310902,10.442529 1.33519,10.352001 1.276415,10.133626 1.199112,9.846398 1.039375,9.686075 0.829274,9.475202 0.69064,9.438051 0.531444,9.395389 0.382249,9.355279 0.322438,9.3392 0.133975,9.389867 0.026278,9.418821 0,9.425863 0,7.360001 10.400002,7.360001 10.400002,5.924469 2.8,5.924469 2.8,5.808845 2.799999,5.031739 6.004799,5.031739 6.004799,3.5908 2.8,3.5908 2.8,2.395721 17.601602,2.395721" style="fill: white" />
    <polygon slic3r:type="contour" points="18.954515,22.674586 18.9664,23.726398 15.563702,24.093388 14.931202,24.161604 14.916731,22.881187 14.908636,22.164802 18.948755,22.164802" style="fill: white" />
  </g>
  <g id="layer9" slic3r:z="9.5e-07">
    <polygon slic3r:type="contour" points="17.601602,3.5932 15.995203,3.5932 15.995203,5.029331 17.601602,5.029331 17.601602,5.897632 12.401602,5.897632 12.401602,7.360001 23.2016,7.360001 23.2016,8.335601 23.846062,8.319873 24.693755,8.299186 24.972669,8.292379 24.961093,8.042541 24.955111,7.91345 24.953888,7.886495 24.952952,7.865845 24.925394,7.258717 26.701738,7.212225 28.334343,7.169498 30.79419,7.105117 30.800462,7.243226 30.689438,7.378726 30.453627,7.666518 30.232365,7.936549 30.133999,8.056598 29.797091,8.467772 29.575249,8.738517 29.57583,8.761294 29.587425,9.217875 29.587578,9.223858 29.59061,9.355601 29.234759,9.364284 29.058998,9.368573 28.956684,9.49344 28.829605,9.648527 27.091386,9.69402 27.001164,9.696383 27.000015,9.671999 26.970197,9.038556 26.960024,8.822439 26.9424,8.447997 26.638313,8.455847 26.446401,8.460799 26.466505,8.887976 26.474206,9.051483 26.50517,9.709359 26.375705,9.712747 25.040506,9.747683 25.027302,9.466945 23.351451,9.507837 23.351451,9.507838 23.2016,9.511495 23.2016,10.561601 18.817632,10.561601 18.831449,11.784496 18.876338,15.7568 14.499159,15.7568 14.475644,13.67607 14.440447,10.561601 12.001602,10.561601 12.001602,10.9616 6.8,10.9616 6.8,10.561601 5.571259,10.5616 4.294879,10.561601 3.898897,10.561601 3.783704,10.860037 2.1392,15.120589 2.011514,15.451576 1.487771,16.809238 1.364818,16.761929 0.940801,16.598402 0.515333,16.433423 0.392229,16.385962 2.639571,10.561601 1.281413,10.561601 1.310502,10.453179 1.337648,10.352002 1.271959,10.107935 1.20157,9.846399 1.02304,9.667212 0.831733,9.475202 0.705499,9.441374 0.527573,9.393693 0.391723,9.35717 0.324876,9.3392 0.177096,9.378929 0.022407,9.420517 0,9.426522 0,7.360001 10.400002,7.360001 10.400002,5.897632 2.8,5.897632 2.8,5.676416 2.799999,5.000944 2.8,4.776558 6.004799,4.776558 6.004799,3.846344 2.8,3.846344 2.8,2.422398 17.601602,2.422398" style="fill: white" />
    <polygon slic3r:type="contour" points="18.962245,23.358813 18.9664,23.726398 15.118836,24.141366 14.931202,24.161604 14.925889,23.691577 14.908636,22.164802 18.948756,22.164802" style="fill: white" />
  </g>
  <g id="layer10" slic3r:z="1.05e-06">
    <polygon slic3r:type="contour" points="17.601602,3.857232 15.995203,3.857232 15.995203,4.765696 17.601602,4.765696 17.601602,5.810622 12.401602,5.810622 12.401602,7.360001 23.2016,7.360001 23.2016,8.480792 24.067173,8.459667 24.979393,8.437405 24.976731,8.379949 24.974807,8.338442 24.963998,8.105236 24.956719,7.948134 24.952269,7.852076 24.951358,7.832018 24.950662,7.816652 24.930154,7.364879 27.691169,7.292617 30.177562,7.227544 30.798953,7.21128 30.800406,7.243294 30.658476,7.416512 30.357023,7.784417 30.172613,8.009473 30.063894,8.142158 29.691521,8.596614 29.57525,8.738516 29.57591,8.76437 29.587238,9.210501 29.584135,9.210577 29.18038,9.22043 29.152693,9.25422 29.131557,9.280016 29.131519,9.280063 29.113695,9.301817 28.918605,9.539911 27.917221,9.56612 26.996166,9.590219 26.973123,9.10072 26.961878,8.861854 26.942401,8.447997 26.606306,8.456672 26.446401,8.460799 26.468623,8.932942 26.477132,9.11366 26.500172,9.603195 26.029005,9.615524 25.035464,9.641521 25.027087,9.463431 25.023196,9.380697 25.023194,9.380674 25.020431,9.321934 23.742908,9.353106 23.2016,9.366315 23.2016,10.561601 18.333978,10.561601 16.335087,14.782699 15.873804,15.7568 14.499159,15.7568 14.463162,12.571647 14.440447,10.561601 12.001602,10.561601 12.001602,10.9616 6.8,10.9616 6.8,10.561601 5.691959,10.5616 3.861979,10.561601 3.743772,10.561601 3.053266,12.350551 1.352395,16.757138 0.9408,16.598401 0.5278,16.438257 0.879227,15.527278 2.795244,10.561601 1.283871,10.561601 1.310103,10.46383 1.340106,10.352002 1.267502,10.082243 1.204027,9.846398 1.006705,9.648351 0.834191,9.475202 0.720356,9.444696 0.523703,9.391998 0.401197,9.359062 0.327314,9.3392 0.057562,9.411721 0.018535,9.422214 0,9.42718 0,7.360001 10.400002,7.360001 10.400002,5.810622 2.8,5.810622 2.8,4.405505 6.004799,4.405505 6.004799,4.218273 2.8,4.218273 2.8,2.509379 17.601602,2.509379" style="fill: white" />
  </g>
  <g id="layer11" slic3r:z="1.15e-06">
    <polygon slic3r:type="contour" points="17.601602,4.232453 15.995203,4.232453 15.995203,4.391359 17.601602,4.391359 17.601602,5.710403 12.401602,5.710403 12.401602,7.360001 23.2016,7.360001 23.2016,8.856024 23.520047,8.848252 24.996728,8.812214 24.982403,8.502398 24.977866,8.404421 24.964213,8.109816 24.957122,7.956805 24.952345,7.853727 24.949426,7.790702 24.948827,7.77754 24.94837,7.767459 24.934916,7.471041 28.680602,7.373008 30.738246,7.319156 30.627514,7.454298 30.260417,7.902316 30.112861,8.082397 29.993788,8.227718 29.57525,8.738517 29.575987,8.767445 29.577716,8.835501 29.555701,8.836039 29.494112,8.837541 29.161197,9.243842 29.14733,9.260767 29.147305,9.260798 29.020791,9.4152 29.012047,9.42587 29.007604,9.431294 28.939909,9.433067 26.99117,9.484055 26.97605,9.162885 26.963733,8.901268 26.942401,8.447997 26.574295,8.457499 26.446401,8.460799 26.470739,8.977908 26.48006,9.175837 26.495176,9.497032 25.682305,9.518302 25.030422,9.535359 25.024926,9.418511 25.022372,9.364227 25.02237,9.364212 25.015375,9.21547 25.011712,9.136269 25.002967,8.947148 23.811794,8.976217 23.2016,8.991109 23.2016,10.561601 18.333978,10.561601 17.433378,12.463414 15.873804,15.7568 14.499159,15.7568 14.451252,11.517689 14.440447,10.561601 12.001602,10.561601 12.001602,10.9616 6.8,10.9616 6.8,10.561601 5.812661,10.5616 4.182025,10.561601 3.341953,10.561601 1.389517,15.622753 1.003587,16.622615 0.9408,16.598401 0.8778,16.573973 2.45824,12.477123 3.197189,10.561601 1.286329,10.561601 1.309703,10.474481 1.342564,10.352002 1.263046,10.056552 1.206486,9.846398 0.990372,9.62949 0.836649,9.475202 0.735214,9.448019 0.519832,9.390301 0.410671,9.360954 0.329751,9.3392 0.074772,9.407749 0.014665,9.42391 0,9.427839 0,7.360001 10.400002,7.360001 10.400002,5.710403 2.8,5.710403 2.8,2.609598 17.601602,2.609598" style="fill: white" />
  </g>
  <g id="layer12" slic3r:z="1.25e-06">
    <polygon slic3r:type="contour" points="30.596551,7.492085 30.163814,8.020214 30.053109,8.15532 29.92368,8.313279 29.617777,8.686614 29.596188,8.712964 29.373505,8.984735 29.169702,9.233464 29.163101,9.241519 29.163092,9.241533 29.096608,9.322672 27.98705,9.351702 26.986172,9.377891 26.978978,9.225049 26.965588,8.940683 26.942402,8.447997 26.542287,8.458325 26.446401,8.460799 26.472856,9.022875 26.482986,9.238014 26.49018,9.390868 25.335603,9.421079 25.025378,9.429196 25.022763,9.373589 25.021548,9.347756 25.021548,9.347748 25.018218,9.276965 25.016473,9.239272 25.009789,9.094703 24.998521,8.850983 24.982403,8.502398 24.978997,8.42889 24.95362,7.881191 24.950243,7.808373 24.947972,7.759321 24.946582,7.729327 24.946298,7.723064 24.94608,7.718266 24.939676,7.577204 29.670034,7.453399 30.649247,7.427772" style="fill: white" />
    <polygon slic3r:type="contour" points="17.601602,5.610184 12.401602,5.610184 12.401602,7.360001 23.2016,7.360001 23.2016,10.561601 12.001602,10.561601 12.001602,10.9616 6.8,10.9616 6.8,10.561601 5.933362,10.5616 4.502071,10.561601 1.288788,10.561601 1.309303,10.485131 1.345022,10.352001 1.258589,10.030861 1.208944,9.846399 0.974036,9.610628 0.839107,9.475201 0.750072,9.451342 0.515961,9.388605 0.420146,9.362846 0.332189,9.3392 0.055038,9.41371 0.010794,9.425606 0,9.428498 0,7.360001 10.400002,7.360001 10.400002,5.610184 2.8,5.610184 2.8,2.709817 17.601602,2.709817" style="fill: white" />
  </g>
  <g id="layer13" slic3r:z="1.35e-06">
    <polygon slic3r:type="contour" points="30.06721,8.138113 30.028279,8.185625 29.853574,8.39884 29.665105,8.628855 29.651804,8.645089 29.207981,9.186748 28.838611,9.196411 26.979918,9.245044 26.967443,8.980097 26.9424,8.447997 26.510277,8.459151 26.446403,8.460799 26.474974,9.067841 26.483928,9.258022 25.276713,9.28961 25.019114,9.296352 24.991545,8.700116 24.982404,8.502399 24.980131,8.45336 24.945686,7.709978 25.010205,7.708289 25.032045,7.707718 30.357476,7.568339 30.53794,7.563616" style="fill: white" />
    <polygon slic3r:type="contour" points="17.601602,5.509965 12.401602,5.509965 12.401602,7.360001 23.2016,7.360001 23.2016,10.561601 12.001602,10.561601 12.001602,10.9616 6.8,10.9616 6.8,10.561601 6.054064,10.5616 4.822117,10.561601 1.291246,10.561601 1.308905,10.495781 1.34748,10.352002 1.254132,10.00517 1.211402,9.846399 0.957702,9.591766 0.841565,9.475202 0.76493,9.454665 0.51209,9.386909 0.366764,9.347839 0.366764,9.34784 0.334625,9.3392 0.035302,9.419672 0.006924,9.4273 0,9.429156 0,7.360001 10.400002,7.360001 10.400002,5.509965 2.8,5.509965 2.8,2.810036 17.601602,2.810036" style="fill: white" />
  </g>
  <g id="layer14" slic3r:z="1.45e-06">
    <polygon slic3r:type="contour" points="29.970603,8.256013 29.933605,8.301168 29.783467,8.484402 29.712432,8.571096 29.707418,8.577215 29.540136,8.781373 28.058393,8.820142 26.961268,8.848856 26.942401,8.447997 26.446403,8.460799 26.465277,8.86184 25.935708,8.875699 25.000796,8.900168 24.986983,8.601455 24.982403,8.502398 24.981266,8.477831 24.964008,8.105397 25.678642,8.086694 25.989058,8.078568 28.672211,8.008345 30.20644,7.968191" style="fill: white" />
    <polygon slic3r:type="contour" points="17.601602,5.409747 12.401602,5.409747 12.401602,7.360001 23.2016,7.360001 23.2016,10.561601 12.001602,10.561601 12.001602,10.9616 6.8,10.9616 6.8,10.561601 1.293704,10.561601 1.308505,10.506431 1.349938,10.352002 1.249676,9.979478 1.213859,9.846398 0.941368,9.572905 0.844023,9.475201 0.77979,9.457989 0.50822,9.385213 0.439094,9.366629 0.337064,9.3392 0.015568,9.425632 0.003054,9.428996 0,9.429815 0,7.360001 10.400002,7.360001 10.400002,5.409747 2.8,5.409747 2.8,2.910255 17.601602,2.910255" style="fill: white" />
  </g>
  <g id="layer15" slic3r:z="1.55e-06">
    <polygon slic3r:type="contour" points="29.874,8.373911 29.873851,8.374092 29.872286,8.376005 26.970595,8.451952 26.942622,8.452684 26.942548,8.451098 26.942472,8.449516 28.377141,8.411966 29.87494,8.372766" style="fill: white" />
    <polygon slic3r:type="contour" points="26.446558,8.464079 26.446632,8.465666 24.986202,8.503885 24.982478,8.503984 24.982421,8.502793 24.982403,8.502398 24.982399,8.5023 24.98233,8.500817 25.688368,8.482338 26.44648,8.462499" style="fill: white" />
    <polygon slic3r:type="contour" points="17.601602,5.309528 12.401602,5.309528 12.401602,7.360001 23.2016,7.360001 23.2016,10.561601 12.001602,10.561601 12.001602,10.9616 6.8,10.9616 6.8,10.561601 1.296162,10.561601 1.308105,10.517082 1.352396,10.352002 1.245219,9.953787 1.216318,9.846398 0.925034,9.554044 0.84648,9.475202 0.794648,9.461312 0.504349,9.383517 0.448569,9.368522 0.339502,9.3392 0.01681,9.425954 0,9.430473 0,7.360001 10.400002,7.360001 10.400002,5.309528 2.8,5.309528 2.8,3.010474 17.601602,3.010474" style="fill: white" />
  </g>
  <g id="layer16" slic3r:z="1.65e-06">
    <polygon slic3r:type="contour" points="17.601602,5.209309 12.401602,5.209309 12.401602,7.360001 23.2016,7.360001 23.2016,10.561601 12.001602,10.561601 12.001602,10.9616 6.8,10.9616 6.8,10.561601 1.29862,10.561601 1.307706,10.527733 1.354853,10.352001 1.240763,9.928096 1.218776,9.846399 0.908698,9.535181 0.848939,9.475202 0.809505,9.464634 0.500478,9.381821 0.458043,9.370413 0.341939,9.3392 0.096447,9.405198 0,9.431127 0,7.360001 10.400002,7.360001 10.400002,5.209309 2.8,5.209309 2.8,3.110693 17.601602,3.110693" style="fill: white" />
    <polygon slic3r:type="hole" points="9.013764,8.699611 8.7952,8.825599 8.7952,9.985602 9.013763,10.111588 9.800001,10.564801 10.586237,10.111589 10.804802,9.985602 10.804802,8.825599 10.018564,8.372385 9.800001,8.246399" style="fill: black" />
  </g>
  <g id="layer17" slic3r:z="1.75e-06">
    <polygon slic3r:type="contour" points="17.601602,3.348989 17.601602,4.971013 12.401602,4.971013 12.401602,7.360001 23.2016,7.360001 23.2016,10.561601 12.001602,10.561601 12.001602,10.9616 6.8,10.9616 6.8,10.561601 1.301078,10.561601 1.307306,10.538383 1.357312,10.352001 1.236307,9.902406 1.221234,9.846398 0.892365,9.51632 0.851397,9.475202 0.824364,9.467958 0.496608,9.380125 0.467517,9.372305 0.344377,9.339199 0.176082,9.384445 0,9.431784 0,7.360001 10.400002,7.360001 10.400002,4.971013 2.8,4.971013 2.8,3.348989 9.981533,3.348988 12.687922,3.348988" style="fill: white" />
    <polygon slic3r:type="hole" points="9.236028,8.571491 8.7952,8.825599 8.7952,9.985602 9.261007,10.254108 9.800001,10.564801 10.338994,10.254108 10.804802,9.985602 10.804802,8.825598 10.265808,8.514905 9.8,8.246399" style="fill: black" />
  </g>
  <g id="layer18" slic3r:z="1.85e-06">
    <polygon slic3r:type="contour" points="12.401602,3.721012 14.748177,3.721012 17.601602,3.721013 17.601602,4.598989 12.401602,4.598989 12.401602,7.360001 23.2016,7.360001 23.2016,10.561601 12.001602,10.561601 12.001602,10.9616 6.8,10.9616 6.8,10.561601 1.303536,10.561601 1.306907,10.549034 1.35977,10.352002 1.231851,9.876715 1.223692,9.846399 0.87603,9.497459 0.853855,9.475202 0.839223,9.471281 0.492737,9.378429 0.476991,9.374197 0.346814,9.3392 0.318575,9.346791 0,9.432439 0,7.360001 10.400002,7.360001 10.400002,4.598989 2.8,4.598989 2.8,3.721013 6.970391,3.721012 10.400002,3.721012 10.400002,3.36 12.401602,3.36" style="fill: white" />
    <polygon slic3r:type="hole" points="9.508252,8.414572 8.7952,8.825598 8.7952,9.985602 9.508253,10.396628 9.800001,10.564801 10.091748,10.396628 10.804802,9.985602 10.804802,8.825599 10.513053,8.657425 9.800001,8.246398" style="fill: black" />
  </g>
  <g id="layer19" slic3r:z="1.95e-06">
    <polygon slic3r:type="contour" points="12.401602,4.093037 17.601602,4.093037 17.601602,4.226965 12.401602,4.226965 12.401602,7.360001 23.2016,7.360001 23.2016,10.561601 12.001602,10.561601 12.001602,10.9616 6.8,10.9616 6.8,10.561601 1.305994,10.561601 1.306507,10.559684 1.362228,10.352002 1.226149,9.846398 0.856313,9.475202 0.488867,9.376734 0.486465,9.376088 0.349252,9.3392 0.335355,9.342936 0,9.433094 0,7.360001 10.400002,7.360001 10.400002,4.226965 2.8,4.226965 2.8,4.093037 10.400002,4.093037 10.400002,3.36 12.401602,3.36" style="fill: white" />
    <polygon slic3r:type="hole" points="9.755496,8.272052 8.7952,8.825599 8.7952,9.985602 9.755497,10.539148 9.800001,10.5648 9.844504,10.539148 10.804802,9.985602 10.804802,8.825598 10.760297,8.799944 9.800001,8.246399" style="fill: black" />
  </g>
</svg>
