<?xml version="1.0" encoding="UTF-8" standalone="yes"?>
<!DOCTYPE svg PUBLIC "-//W3C//DTD SVG 1.0//EN" "http://www.w3.org/TR/2001/REC-SVG-20010904/DTD/svg10.dtd">
<svg width="30.800659" height="24.161603" xmlns="http://www.w3.org/2000/svg" xmlns:svg="http://www.w3.org/2000/svg" xmlns:xlink="http://www.w3.org/1999/xlink" xmlns:slic3r="http://slic3r.org/namespaces/slic3r">
  <!-- 
  Generated using Slic3r 1.2.6
  http://slic3r.org/
   -->
  <g id="layer0" slic3r:z="5e-08">
    <polygon slic3r:type="contour" points="13.810523,0.48105 13.97941,0.647441 15.263505,1.913348 15.420917,2.068627 15.536152,2.182303 28.00066,2.182303 28.00066,3.044357 24.79586,3.044357 24.79586,5.578826 28.00066,5.578826 28.00066,6.139163 20.40066,6.139163 20.40066,7.360001 30.80066,7.360001 30.80066,9.420593 30.743417,9.405255 30.497722,9.339199 30.238248,9.408956 30.228881,9.411467 29.99105,9.475201 29.630608,9.836967 29.62121,9.846398 29.485132,10.352 29.541368,10.561601 28.581134,10.561601 28.73146,10.951278 29.422337,12.742186 30.773818,16.245525 30.421805,16.381421 30.124836,16.496067 30.035366,16.530607 29.918229,16.575767 29.85986,16.598401 29.801687,16.620836 29.684697,16.66585 29.388231,16.780496 28.947502,16.950934 28.707141,16.327874 28.328072,15.345236 27.742155,13.827253 27.115028,12.2025 26.990781,12.079937 26.821906,11.913349 25.576485,10.686322 25.537021,10.647442 25.449786,10.561601 24.00066,10.561601 24.00066,10.9616 18.799058,10.9616 18.799058,10.561601 16.360214,10.561601 16.356358,10.902672 16.271564,18.405866 16.269461,18.592 16.015816,18.056379 15.938259,18.073355 15.937088,18.177011 15.870939,24.030512 15.869459,24.161604 12.03442,23.747986 11.834261,23.726398 11.835418,23.623878 11.840174,23.203183 11.979174,10.902671 11.983028,10.561601 7.599062,10.561601 7.599062,10.418329 7.378724,10.415295 6.099234,10.397678 6.002129,10.396342 6.003044,10.375522 6.006914,10.285735 6.015253,10.092211 6.018722,10.012918 6.025206,9.864825 5.921383,9.862291 5.754251,9.858216 5.744095,10.073082 5.744095,10.073096 5.741886,10.119849 5.740717,10.144588 5.645564,10.142098 4.276809,10.106276 4.349859,8.554359 4.350937,8.531448 4.354263,8.460799 3.85826,8.447997 3.855229,8.512418 3.853858,8.541545 3.780812,10.093297 2.411583,10.057457 2.303808,10.054636 2.260946,10.002326 2.245599,9.983594 2.245573,9.983564 2.06919,9.768298 1.786893,9.761411 1.200094,9.747093 1.212107,9.274075 1.220187,8.955893 1.223072,8.830538 1.22377,8.803059 1.225411,8.738516 0.556427,7.922063 0.556426,7.922063 0.433843,7.77246 0.349577,7.669617 0.292814,7.600342 0.053433,7.308192 0.035702,7.286552 0.030524,7.280233 0.000594,7.243704 0.023909,6.740407 0.0254,6.70821 0.406689,6.718189 5.894205,6.861812 5.879881,7.170982 5.846052,7.901101 6.450135,7.915841 7.599062,7.943874 7.599062,7.360001 18.39906,7.360001 18.39906,6.139163 13.199059,6.139163 13.199059,5.604836 14.805458,5.604836 14.805458,3.018116 13.199059,3.018116 13.199059,2.182303 13.210755,2.182303 13.218652,2.027754 13.322261,0" style="fill: white" />
  </g>
  <g id="layer1" slic3r:z="1.5e-07">
    <polygon slic3r:type="contour" points="13.74252,0.414051 14.249177,0.91322 14.993737,1.647234 15.465969,2.113068 15.563197,2.20898 28.00066,2.20898 28.00066,3.071244 24.79586,3.071244 24.79586,5.552175 28.00066,5.552175 28.00066,6.112327 20.40066,6.112327 20.40066,7.360001 30.80066,7.360001 30.80066,9.421252 30.747288,9.406952 30.528541,9.34814 30.495284,9.3392 30.242117,9.407261 30.214024,9.414789 29.988592,9.475202 29.646941,9.818107 29.618752,9.846399 29.493046,10.313464 29.482674,10.352001 29.486961,10.367977 29.53891,10.561601 28.609569,10.561601 30.693851,15.964522 30.79858,16.235999 30.771301,16.24653 29.880394,16.590471 29.87346,16.593148 29.864384,16.596647 29.85986,16.598401 29.855351,16.60014 29.846286,16.603628 28.956889,16.947568 28.922738,16.960776 28.904111,16.912493 28.874738,16.836348 27.116989,12.282401 27.068394,12.156499 27.058765,12.147001 26.55214,11.647236 25.830003,10.935766 25.807122,10.913223 25.449786,10.561601 24.00066,10.561601 24.00066,10.9616 18.799058,10.9616 18.799058,10.561601 16.360214,10.561601 16.348079,11.635278 16.275771,18.033596 16.269461,18.592 16.015816,18.056378 15.938259,18.073354 15.930755,18.737409 15.873902,23.768326 15.869459,24.161604 12.434736,23.791159 11.834261,23.726398 11.837736,23.418835 11.851999,22.156755 11.971466,11.584814 11.983028,10.561601 7.599062,10.561601 7.599062,10.341807 6.973258,10.333191 6.005412,10.319865 6.00834,10.251947 6.013127,10.140843 6.024039,9.891486 5.753077,9.884874 5.745662,10.041829 5.742154,10.116047 5.456696,10.108575 4.278153,10.077731 4.343511,8.689231 4.344287,8.672744 4.349872,8.554066 4.351088,8.528249 4.354262,8.460799 3.858261,8.447997 3.855477,8.50712 3.853872,8.541243 3.849163,8.641261 3.845051,8.728641 3.782156,10.064751 2.651798,10.035164 2.279878,10.02543 2.151295,9.868502 2.091508,9.795533 1.244614,9.77487 1.199142,9.773761 1.200072,9.737106 1.224313,8.782559 1.224536,8.772845 1.224782,8.763154 1.225347,8.738442 1.047433,8.521309 0.877148,8.313485 0.159003,7.437034 0.105807,7.372112 0.090276,7.353157 0.000483,7.243573 0.019486,6.833346 0.023964,6.736752 1.167829,6.766689 5.892767,6.890354 5.849795,7.817866 5.847172,7.874444 7.506069,7.914922 7.599062,7.917192 7.599062,7.360001 18.39906,7.360001 18.39906,6.112327 13.199059,6.112327 13.199059,5.578186 14.805458,5.578186 14.805458,3.045003 13.199059,3.045003 13.199059,2.20898 13.209392,2.20898 13.233083,1.745337 13.322262,0" style="fill: white" />
  </g>
  <g id="layer2" slic3r:z="2.5e-07">
    <polygon slic3r:type="contour" points="13.674517,0.347053 14.518946,1.179002 14.723969,1.381121 15.511023,2.157512 15.590241,2.235657 23.546417,2.235657 24.006372,2.235658 28.00066,2.235657 28.00066,3.098131 24.79586,3.098131 24.79586,5.525525 28.00066,5.525525 28.00066,6.08549 20.40066,6.08549 20.40066,7.360001 30.80066,7.360001 30.80066,9.421911 30.751158,9.408648 30.548275,9.354101 30.492846,9.3392 30.475254,9.343928 30.245987,9.405565 30.199165,9.418113 29.986133,9.475202 29.663276,9.799244 29.616294,9.846399 29.497504,10.287773 29.480216,10.352002 29.487359,10.378627 29.536452,10.561601 28.585592,10.561601 30.255987,14.891635 30.778049,16.243896 30.007695,16.541297 29.909094,16.57931 29.85986,16.598401 29.810793,16.617325 29.712313,16.655217 28.943268,16.952616 28.053053,14.646261 27.10659,12.194177 26.439237,11.535864 26.282371,11.381122 26.083522,11.185211 26.077222,11.179003 25.449785,10.561601 24.00066,10.561601 24.00066,10.9616 18.799058,10.9616 18.799058,10.561601 16.360213,10.561601 16.34094,12.266958 16.279979,17.661327 16.269461,18.591999 16.048317,18.125013 16.015816,18.05638 15.938259,18.073356 15.924423,19.297807 15.876865,23.506142 15.869459,24.161604 12.835054,23.834336 11.834261,23.726398 11.840052,23.213794 11.863266,21.159664 11.964327,12.216494 11.983028,10.561601 7.599062,10.561601 7.599062,10.257587 6.208282,10.238435 6.00901,10.235691 6.009765,10.218158 6.011001,10.189475 6.014027,10.120316 6.025005,9.86939 5.895762,9.866239 5.75421,9.862784 5.749437,9.96381 5.743591,10.087505 5.267829,10.075052 4.279497,10.049186 4.332242,8.928597 4.337635,8.814041 4.346946,8.616242 4.348971,8.573215 4.354262,8.460799 3.938284,8.450063 3.85826,8.447997 3.853623,8.546534 3.850946,8.603407 3.845337,8.72255 3.836245,8.915737 3.783501,10.036207 2.743619,10.008987 2.255948,9.996224 2.073008,9.772958 1.34071,9.755086 1.199931,9.751652 1.220889,8.926271 1.22332,8.820749 1.224745,8.764673 1.22541,8.738516 0.264574,7.565876 0.175914,7.457672 0.150029,7.426081 0.000374,7.24344 0.015065,6.926284 0.022527,6.765294 1.92897,6.81519 5.891329,6.918896 5.852751,7.751559 5.846033,7.89654 6.543493,7.913557 7.599062,7.939314 7.599062,7.360001 18.39906,7.360001 18.39906,6.08549 13.199059,6.08549 13.199059,5.551535 14.805458,5.551535 14.805458,3.071889 13.199059,3.071889 13.199059,2.235656 13.208027,2.235671 13.247513,1.46292 13.322262,0" style="fill: white" />
  </g>
  <g id="layer3" slic3r:z="3.5e-07">
    <polygon slic3r:type="contour" points="13.606515,0.280055 14.453645,1.114665 14.764671,1.421287 14.789271,1.445537 15.556075,2.201953 15.617285,2.262334 21.764721,2.262334 22.408656,2.262335 28.00066,2.262334 28.00066,3.125018 24.79586,3.125018 24.79586,5.498874 28.00066,5.498874 28.00066,6.058653 20.40066,6.058653 20.40066,7.360001 30.80066,7.360001 30.80066,9.422569 30.75503,9.410343 30.568009,9.360062 30.490408,9.3392 30.46578,9.34582 30.24986,9.403868 30.184308,9.421435 29.983675,9.475202 29.679609,9.780383 29.613836,9.846399 29.501959,10.262083 29.477758,10.352002 29.48776,10.389278 29.533994,10.561601 28.556808,10.561601 29.661367,13.424864 30.753365,16.25339 30.169087,16.478955 29.962842,16.558469 29.859859,16.598402 29.75723,16.637982 29.551237,16.717242 28.967951,16.942806 27.17835,12.306334 27.152588,12.239551 26.364315,11.461957 26.347673,11.445539 26.085467,11.187206 26.011839,11.114666 25.449786,10.561601 24.00066,10.561601 24.00066,10.9616 18.799058,10.9616 18.799058,10.561601 16.360214,10.561601 16.333231,12.9491 16.284186,17.289057 16.269461,18.592 16.091543,18.216291 16.015816,18.056378 15.938259,18.073354 15.91809,19.858205 15.879829,23.243955 15.869459,24.161604 13.235371,23.877512 11.834261,23.726397 11.842369,23.008752 11.875649,20.063899 11.956049,12.949099 11.983028,10.561601 7.599062,10.561601 7.599062,10.023602 6.338528,10.006247 6.019211,10.001851 6.021657,9.94593 6.026164,9.842822 5.755556,9.836219 5.753213,9.885789 5.745027,10.058963 5.078963,10.04153 4.28084,10.02064 4.323435,9.115715 4.330984,8.955337 4.344018,8.67842 4.346855,8.61818 4.354262,8.460799 3.970293,8.45089 3.85826,8.447997 3.851767,8.58595 3.84802,8.665571 3.837033,8.898946 3.827438,9.102833 3.784845,10.007661 2.986444,9.986763 2.232018,9.967018 2.122014,9.832766 2.050763,9.74581 1.495349,9.732255 1.20088,9.72507 1.216775,9.099056 1.221857,8.878335 1.223102,8.829415 1.225409,8.738515 0.370144,7.694718 0.246021,7.543234 0.20978,7.499004 0.000264,7.243307 0.010645,7.019221 0.02109,6.793836 2.690111,6.863691 5.889891,6.947438 5.858738,7.61985 5.848533,7.840057 5.844763,7.923107 6.040772,7.927889 7.599062,7.965911 7.599062,7.360001 18.39906,7.360001 18.39906,6.058653 13.199059,6.058653 13.199059,5.524885 14.805458,5.524885 14.805458,3.098776 13.199059,3.098776 13.199059,2.262333 13.206664,2.262342 13.261943,1.180503 13.322262,0" style="fill: white" />
  </g>
  <g id="layer4" slic3r:z="4.5e-07">
    <polygon slic3r:type="contour" points="13.538512,0.213056 14.182979,0.847999 14.99566,1.649171 15.059938,1.712538 15.601129,2.246397 15.644328,2.289011 19.983025,2.289011 20.810942,2.289012 28.00066,2.289012 28.00066,3.190801 24.79586,3.190801 24.79586,5.43303 28.00066,5.43303 28.00066,6.031816 20.40066,6.031816 20.40066,7.360001 30.80066,7.360001 30.80066,9.423228 30.7589,9.412039 30.587745,9.366023 30.487972,9.3392 30.456306,9.347712 30.253729,9.402173 30.16945,9.424758 29.981218,9.475202 29.695946,9.761521 29.611378,9.846399 29.506416,10.236391 29.4753,10.352002 29.48816,10.399929 29.531536,10.561601 28.528024,10.561601 29.066748,11.958093 30.728682,16.262884 30.33048,16.416612 30.016587,16.537629 29.859859,16.598402 29.703664,16.658639 29.390162,16.779265 28.992635,16.932994 27.772972,13.773107 27.199056,12.28539 26.661825,11.755437 26.61834,11.71254 25.933222,11.03754 25.740839,10.848 25.449786,10.561601 25.170568,10.561601 24.849341,10.5616 24.00066,10.561601 24.00066,10.9616 18.799058,10.9616 18.799058,10.561601 16.360214,10.561601 16.325522,13.631243 16.288393,16.916789 16.269461,18.591999 16.134769,18.307571 16.015816,18.056378 15.938259,18.073354 15.911757,20.418603 15.882792,22.981769 15.869459,24.161604 13.635689,23.920686 11.834261,23.726398 11.844686,22.803712 11.888045,18.967006 11.948341,13.631242 11.983028,10.561601 7.599062,10.561601 7.599062,9.854601 6.825473,9.835726 5.814832,9.811067 5.7569,9.809654 5.746464,10.030421 4.890096,10.008007 4.282183,9.992096 4.314626,9.302835 4.324334,9.096633 4.341091,8.740597 4.344739,8.663146 4.354261,8.460799 4.002302,8.451716 3.85826,8.447997 3.849912,8.625365 3.845092,8.727736 3.828509,9.080034 3.818631,9.289928 3.786189,9.979117 3.22666,9.964471 2.208088,9.937813 2.131126,9.843886 2.028518,9.718662 1.698671,9.710612 1.698671,9.710611 1.201828,9.698488 1.212662,9.271841 1.220394,8.935923 1.221456,8.894159 1.225409,8.738515 0.475714,7.82356 0.316127,7.628794 0.269534,7.571929 0.000155,7.243173 0.006223,7.11216 0.019653,6.822378 3.451251,6.912191 5.888453,6.97598 5.864724,7.488141 5.856951,7.655868 5.843616,7.949677 6.537042,7.966595 7.599062,7.992509 7.599062,7.360001 18.39906,7.360001 18.39906,6.031816 13.199059,6.031816 13.199059,5.498235 14.805458,5.498235 14.805458,3.125663 13.199059,3.125663 13.199059,2.289012 13.205302,2.289012 13.276374,0.898085 13.322262,0" style="fill: white" />
  </g>
  <g id="layer5" slic3r:z="5.5e-07">
    <polygon slic3r:type="contour" points="13.505791,0.180818 13.912314,0.581332 15.22665,1.877057 15.330606,1.979538 15.646181,2.290839 15.671373,2.315689 18.201327,2.315689 19.213228,2.31569 28.00066,2.315689 28.00066,3.2908 24.79586,3.2908 24.79586,5.332707 28.00066,5.332707 28.00066,6.004979 20.40066,6.004979 20.40066,7.360001 30.80066,7.360001 30.80066,9.423887 30.762769,9.413734 30.607479,9.371984 30.485534,9.339199 30.446832,9.349603 30.257602,9.400476 30.154591,9.428082 29.97876,9.475202 29.712279,9.74266 29.60892,9.846398 29.510871,10.2107 29.472842,10.352001 29.488559,10.410578 29.529078,10.561601 28.49926,10.561601 28.588355,10.79238 30.703998,16.272378 30.491871,16.354271 30.070335,16.516788 29.85986,16.598401 29.650099,16.679298 29.229085,16.841292 29.01732,16.923184 28.367592,15.239879 27.245524,12.331229 26.959336,12.048918 26.889006,11.97954 25.780973,10.887872 25.469839,10.581333 25.449786,10.561601 25.037937,10.5616 24.00066,10.561601 24.00066,10.9616 18.799058,10.9616 18.799058,10.561601 16.360213,10.561601 16.317813,14.313386 16.2926,16.54452 16.269461,18.592 16.26946,18.592 16.177995,18.398852 16.015816,18.056379 15.938259,18.073355 15.905424,20.979 15.885755,22.719585 15.869459,24.161603 14.036005,23.963861 11.83426,23.726398 11.847003,22.59867 11.8993,17.971041 11.941203,14.262922 11.983027,10.561601 7.599062,10.561601 7.599062,9.828005 7.511775,9.825874 7.397742,9.823092 5.758242,9.78308 5.754993,9.851856 5.747901,10.001878 4.701228,9.974483 4.283527,9.963551 4.305819,9.489953 4.317682,9.23793 4.338165,8.802773 4.342622,8.708112 4.354261,8.460799 4.034311,8.452542 3.858259,8.447997 3.848057,8.66478 3.842167,8.789899 3.824903,9.15663 3.809825,9.477024 3.787533,9.950572 3.318481,9.938294 2.184157,9.908607 2.111596,9.82005 2.006274,9.691513 1.804627,9.686593 1.202776,9.671905 1.208547,9.444627 1.218933,8.993509 1.219812,8.958903 1.225409,8.738515 0.581285,7.952402 0.386233,7.714354 0.329286,7.644853 4.5e-05,7.243041 0.001801,7.205098 0.018216,6.85092 4.212391,6.960691 5.887015,7.004522 5.870711,7.356432 5.86537,7.471679 5.842467,7.976246 7.033313,8.005301 7.599062,8.019105 7.599062,7.360001 18.39906,7.360001 18.39906,6.004979 13.199059,6.004979 13.199059,5.430622 14.805458,5.430622 14.805458,3.193201 13.199059,3.193201 13.199059,2.315688 13.203937,2.315692 13.290804,0.615668 13.322261,0" style="fill: white" />
  </g>
  <g id="layer6" slic3r:z="6.5e-07">
    <polygon slic3r:type="contour" points="13.402505,0.079057 13.641648,0.314666 15.457639,2.104941 15.601274,2.24654 15.698417,2.342366 16.419631,2.342366 17.615512,2.342367 28.00066,2.342366 28.00066,3.3908 24.79586,3.3908 24.79586,5.232384 28.00066,5.232384 28.00066,5.978142 20.40066,5.978142 20.40066,7.360001 30.80066,7.360001 30.80066,9.424546 30.766642,9.415431 30.627214,9.377946 30.483096,9.3392 30.437357,9.351496 30.261472,9.39878 30.139733,9.431405 29.976302,9.475201 29.728613,9.723798 29.606462,9.846399 29.51533,10.185008 29.470384,10.352002 29.488957,10.421228 29.52662,10.561601 28.47091,10.561601 30.419497,15.608889 30.679314,16.281872 30.653264,16.291928 30.124084,16.495946 29.859859,16.598402 29.596534,16.699955 29.06801,16.903315 29.042004,16.913374 28.962214,16.706652 27.291989,12.377068 27.256843,12.342397 27.159672,12.246541 25.628727,10.738206 25.449474,10.561601 25.226533,10.5616 24.00066,10.561601 24.00066,10.9616 18.799058,10.9616 18.799058,10.561601 16.360213,10.561601 16.310104,14.995528 16.296807,16.172251 16.26946,18.592 16.22122,18.490131 16.015816,18.056379 15.938259,18.073354 15.899091,21.539398 15.888718,22.457399 15.869458,24.161604 14.436323,24.007036 11.834261,23.726398 11.849319,22.393628 11.911125,16.924613 11.932924,14.995527 11.983028,10.561601 7.599062,10.561601 7.599062,9.8014 6.014014,9.762716 5.759585,9.756507 5.753201,9.89163 5.749338,9.973336 4.512362,9.940961 4.28487,9.935007 4.29701,9.677073 4.311032,9.379225 4.335238,8.86495 4.340504,8.753079 4.35426,8.460799 4.114932,8.454622 3.85826,8.447997 3.846203,8.704193 3.83924,8.852065 3.818838,9.285473 3.801018,9.66412 3.788878,9.922028 3.561307,9.916071 2.160228,9.879401 2.120709,9.831171 1.984028,9.664365 1.959265,9.66376 1.203725,9.645323 1.204432,9.617412 1.217469,9.051097 1.218169,9.023645 1.225409,8.738514 0.686856,8.081245 0.45634,7.799915 0.389037,7.717776 0.057219,7.31282 0.018339,7.265369 3.3e-05,7.243027 0.004987,7.133889 0.016779,6.879462 4.973533,7.009193 5.885578,7.033063 5.876697,7.224724 5.873788,7.28749 5.847154,7.874262 5.841319,8.002816 6.837967,8.027133 7.529583,8.044007 7.599062,8.045703 7.599062,7.360001 18.39906,7.360001 18.39906,5.978142 13.199059,5.978142 13.199059,5.330299 14.805458,5.330299 14.805458,3.2932 13.199059,3.2932 13.199059,2.342366 13.202574,2.342368 13.305234,0.333251 13.322262,0" style="fill: white" />
  </g>
  <g id="layer7" slic3r:z="7.5e-07">
    <polygon slic3r:type="contour" points="13.334502,0.012058 13.370982,0.048 15.688629,2.332827 15.725367,2.369044 16.017796,2.369045 28.00066,2.369043 28.00066,3.4908 24.79586,3.4908 24.79586,5.132061 28.00066,5.132061 28.00066,5.951306 20.40066,5.951306 20.40066,7.360001 30.80066,7.360001 30.80066,9.425204 30.770512,9.417127 30.646949,9.383905 30.480658,9.3392 30.427884,9.353387 30.265341,9.397085 30.124876,9.434727 29.973844,9.475202 29.744949,9.704937 29.604004,9.846399 29.519786,10.159317 29.467926,10.352002 29.489357,10.431879 29.524162,10.561601 28.374968,10.561601 29.925312,14.577349 30.595444,16.314101 30.177831,16.475106 29.859859,16.598402 29.54297,16.720613 29.125876,16.881099 27.749916,13.314304 27.745548,13.302986 27.447554,12.530524 27.430338,12.513541 25.512293,10.623822 25.449138,10.5616 25.41513,10.5616 24.00066,10.561601 24.00066,10.9616 18.799058,10.9616 18.799058,10.561601 16.360213,10.561601 16.301825,15.728135 16.301013,15.799983 16.269461,18.592 16.264446,18.581411 16.015816,18.056379 15.938259,18.073354 15.892759,22.099796 15.891681,22.195215 15.869459,24.161604 14.83664,24.050212 11.834261,23.726398 11.851636,22.188586 11.922949,15.878186 11.925216,15.677671 11.983028,10.561601 7.599062,10.561601 7.599062,9.711621 6.803014,9.692192 5.763861,9.666832 5.752748,9.903057 5.752674,9.904601 5.751408,9.931403 5.750775,9.944794 4.323493,9.907437 4.286213,9.906462 4.304381,9.520522 4.33231,8.927128 4.338388,8.798044 4.35426,8.460799 4.098329,8.454194 3.858259,8.447997 3.844347,8.743609 3.833855,8.966475 3.812773,9.414315 3.79221,9.851217 3.790222,9.893483 3.752928,9.892507 2.136297,9.850195 2.12982,9.84229 2.103637,9.810336 2.08208,9.784027 1.908969,9.57276 1.779464,9.5696 1.312723,9.558212 1.20572,9.555602 1.216008,9.108683 1.216523,9.088389 1.225409,8.738514 0.792426,8.210086 0.526446,7.885476 0.44879,7.790701 0.153824,7.430719 0.0493,7.303154 8.8e-05,7.243094 0.01341,6.949699 0.015342,6.908005 5.734673,7.057693 5.88414,7.061606 5.882684,7.093014 5.882207,7.103301 5.877843,7.19946 5.875931,7.241547 5.843127,7.964231 5.841711,7.995448 5.83986,8.036201 5.837252,8.092486 7.382129,8.130181 7.599062,8.135476 7.599062,7.360001 18.39906,7.360001 18.39906,5.951306 13.199059,5.951306 13.199059,5.229976 14.805458,5.229976 14.805458,3.3932 13.199059,3.3932 13.199059,2.369043 13.20121,2.369045 13.319665,0.050834 13.322262,0" style="fill: white" />
  </g>
  <g id="layer8" slic3r:z="8.5e-07">
    <polygon slic3r:type="contour" points="28.00066,3.5908 24.79586,3.5908 24.79586,5.031739 28.00066,5.031739 28.00066,5.924469 20.40066,5.924469 20.40066,7.360001 30.80066,7.360001 30.80066,9.425863 30.774381,9.418821 30.603828,9.372968 30.478221,9.3392 30.41841,9.355279 30.269213,9.39539 30.073034,9.447961 29.971386,9.475202 29.761284,9.686074 29.601546,9.846399 29.524242,10.133626 29.465468,10.352001 29.489758,10.44253 29.521704,10.561601 28.268022,10.561601 29.052586,12.593799 30.501938,16.350032 30.23158,16.454263 29.85986,16.598401 29.489405,16.741272 29.219382,16.845168 28.069149,13.863511 27.788732,13.136607 27.047801,11.217017 26.79482,10.561601 25.925173,10.5616 25.350102,10.5616 24.00066,10.561601 24.00066,10.9616 18.799058,10.9616 18.799058,10.561601 16.360214,10.561601 16.312534,14.780491 16.301502,15.7568 11.924322,15.7568 11.945384,13.892937 11.983028,10.561601 7.599062,10.561601 7.599062,9.611558 5.877377,9.569539 5.768615,9.566885 5.765376,9.635574 5.755111,9.853846 4.928817,9.832224 4.290494,9.815518 4.297729,9.661818 4.329383,8.989306 4.336272,8.84301 4.35426,8.460799 4.07915,8.453698 3.85826,8.447997 3.842492,8.783024 3.833388,8.976393 3.806709,9.543156 3.794501,9.802539 2.834736,9.777419 2.060052,9.757144 1.87166,9.527226 1.825316,9.470666 1.439312,9.461247 1.207885,9.455601 1.214546,9.16627 1.21488,9.153131 1.224907,8.758217 1.22541,8.738516 0.897997,8.338929 0.596553,7.971036 0.508542,7.863624 0.250428,7.548618 0.080263,7.340941 0.000144,7.243159 0.011232,6.998954 4.360742,7.112791 5.088354,7.131833 5.88003,7.152554 5.845419,7.915037 5.844241,7.940971 5.842705,7.974825 5.83519,8.136949 5.832621,8.192429 6.07145,8.198258 7.599062,8.235539 7.599062,7.360001 18.39906,7.360001 18.39906,5.924469 13.199059,5.924469 13.199059,5.129654 14.805458,5.129654 14.805458,3.4932 13.199059,3.4932 13.199059,2.395721 28.00066,2.395721" style="fill: white" />
    <polygon slic3r:type="contour" points="15.883928,22.881188 15.869459,24.161604 15.236958,24.093388 11.834261,23.726397 11.845576,22.725049 11.851906,22.164802 15.892025,22.164802" style="fill: white" />
  </g>
  <g id="layer9" slic3r:z="9.5e-07">
    <polygon slic3r:type="contour" points="28.00066,3.846344 24.79586,3.846344 24.79586,4.776558 28.00066,4.776558 28.00066,5.897632 20.40066,5.897632 20.40066,7.360001 30.80066,7.360001 30.80066,9.426522 30.778254,9.420518 30.723362,9.40576 30.475784,9.339199 30.408936,9.35717 30.273083,9.393694 30.157976,9.42454 29.968927,9.475202 29.777617,9.667213 29.599088,9.846398 29.528698,10.107935 29.46301,10.352002 29.490157,10.453179 29.519246,10.561601 28.161086,10.561601 30.408432,16.385962 30.285327,16.433423 29.85986,16.598401 29.435839,16.76193 29.312888,16.809238 28.789143,15.451575 28.66146,15.12059 27.016955,10.860036 26.901764,10.561601 26.50578,10.561601 25.229402,10.5616 24.00066,10.561601 24.00066,10.9616 18.799058,10.9616 18.799058,10.561601 16.360214,10.561601 16.325016,13.67607 16.301502,15.7568 11.924322,15.7568 11.969208,11.784497 11.983028,10.561601 7.599062,10.561601 7.599062,9.511495 7.427039,9.507297 7.400526,9.506649 5.773358,9.466946 5.760154,9.747683 4.424954,9.712747 4.295491,9.709359 4.326457,9.051482 4.334154,8.887977 4.354259,8.460799 4.162346,8.455846 3.858259,8.447997 3.840637,8.822438 3.830462,9.038557 3.800644,9.671999 3.799496,9.696383 3.709273,9.69402 1.971055,9.648527 1.843976,9.49344 1.741664,9.368573 1.565902,9.364284 1.21005,9.3556 1.213082,9.223857 1.213234,9.217875 1.22483,8.761293 1.225411,8.738517 1.003567,8.467771 0.666659,8.056597 0.568294,7.936548 0.347034,7.666518 0.111224,7.378726 0.000199,7.243227 0.00647,7.105117 2.417723,7.168226 4.098922,7.212225 5.875268,7.258717 5.847708,7.865845 5.845542,7.913591 5.839565,8.042542 5.827991,8.292379 6.106905,8.299186 6.903481,8.318625 7.599062,8.335601 7.599062,7.360001 18.39906,7.360001 18.39906,5.897632 13.199059,5.897632 13.199059,5.029331 14.805458,5.029331 14.805458,3.5932 13.199059,3.5932 13.199059,2.422398 28.00066,2.422398" style="fill: white" />
    <polygon slic3r:type="contour" points="15.874771,23.691577 15.869459,24.161604 15.681824,24.141366 11.834261,23.726398 11.838413,23.358814 11.851906,22.164802 15.892025,22.164802" style="fill: white" />
  </g>
  <g id="layer10" slic3r:z="1.05e-06">
    <polygon slic3r:type="contour" points="28.00066,4.218273 24.79586,4.218273 24.79586,4.405505 28.00066,4.405505 28.00066,5.810622 20.40066,5.810622 20.40066,7.360001 30.80066,7.360001 30.80066,9.42718 30.782124,9.422214 30.706152,9.401789 30.473346,9.3392 30.399461,9.359063 30.276954,9.391997 30.080302,9.444696 29.96647,9.475202 29.829236,9.612938 29.59663,9.846398 29.533155,10.082244 29.460552,10.352002 29.490555,10.46383 29.516788,10.561601 28.005416,10.561601 29.921434,15.527279 30.272862,16.438257 29.859859,16.598402 29.448264,16.757138 27.77359,12.41842 27.056888,10.561601 26.93868,10.561601 25.1087,10.5616 24.00066,10.561601 24.00066,10.9616 18.799058,10.9616 18.799058,10.561601 16.360214,10.561601 16.337497,12.571648 16.301502,15.7568 14.926856,15.7568 14.465574,14.7827 12.466682,10.561601 7.599062,10.561601 7.599062,9.366315 7.057753,9.353107 5.78023,9.321934 5.777468,9.380674 5.777464,9.380697 5.773573,9.463431 5.765197,9.641521 4.771654,9.615523 4.300488,9.603196 4.323529,9.11366 4.332038,8.932942 4.354259,8.460799 4.194355,8.456672 3.858258,8.447997 3.838781,8.861854 3.827536,9.10072 3.804494,9.590219 2.883439,9.56612 1.882055,9.539911 1.816294,9.459654 1.686965,9.301816 1.669141,9.280063 1.669104,9.280016 1.647967,9.254219 1.620281,9.22043 1.216524,9.210576 1.213422,9.210499 1.224752,8.764369 1.225411,8.738517 1.109137,8.596613 0.736766,8.142158 0.628047,8.009473 0.443637,7.784416 0.142185,7.416512 0.000255,7.243294 0.001709,7.211281 0.623098,7.227544 3.109491,7.292617 5.870507,7.364879 5.849999,7.816652 5.849302,7.832017 5.848391,7.852077 5.84394,7.948134 5.836661,8.105236 5.825852,8.338443 5.82393,8.379949 5.821268,8.437405 6.733486,8.459666 7.599062,8.480792 7.599062,7.360001 18.39906,7.360001 18.39906,5.810622 13.199059,5.810622 13.199059,4.765696 14.805458,4.765696 14.805458,3.857232 13.199059,3.857232 13.199059,2.509379 28.00066,2.509379" style="fill: white" />
  </g>
  <g id="layer11" slic3r:z="1.15e-06">
    <polygon slic3r:type="contour" points="28.00066,5.710403 20.40066,5.710403 20.40066,7.360001 30.80066,7.360001 30.80066,9.427839 30.785994,9.42391 30.725888,9.40775 30.470907,9.3392 30.353041,9.370887 30.280825,9.390302 30.065443,9.44802 29.964011,9.475202 29.810288,9.629489 29.594172,9.846399 29.537612,10.056552 29.458093,10.352002 29.490955,10.47448 29.51433,10.561601 27.60347,10.561601 28.342419,12.477123 29.92286,16.573973 29.85986,16.598401 29.797074,16.622616 29.411143,15.622753 27.458706,10.561601 26.618634,10.561601 24.987998,10.5616 24.00066,10.561601 24.00066,10.9616 18.799058,10.9616 18.799058,10.561601 16.360214,10.561601 16.349408,11.517689 16.301502,15.7568 14.926857,15.7568 13.367281,12.463414 12.466682,10.561601 7.599062,10.561601 7.599062,8.991109 6.988867,8.976217 5.797694,8.947148 5.788949,9.136269 5.785285,9.21547 5.77829,9.364212 5.778289,9.364227 5.775736,9.41851 5.77024,9.535359 5.118356,9.518302 4.305483,9.497032 4.320602,9.175837 4.329922,8.977908 4.354259,8.460799 4.226365,8.457499 3.858259,8.447997 3.836927,8.901268 3.826848,9.115331 3.809491,9.484055 1.860752,9.433067 1.793057,9.431294 1.788613,9.42587 1.77987,9.4152 1.653355,9.260797 1.65333,9.260767 1.639463,9.243842 1.306549,8.837542 1.244958,8.836039 1.222945,8.8355 1.224673,8.767445 1.22541,8.738518 0.806872,8.227718 0.6878,8.082397 0.540242,7.902315 0.173148,7.454299 0.062416,7.319156 2.120059,7.373008 5.865746,7.471041 5.852291,7.767458 5.851832,7.777541 5.851235,7.790702 5.848315,7.853727 5.843538,7.956805 5.836446,8.109817 5.822796,8.40442 5.818257,8.502398 5.803933,8.812215 7.280615,8.848252 7.599062,8.856024 7.599062,7.360001 18.39906,7.360001 18.39906,5.710403 13.199059,5.710403 13.199059,4.391359 14.805458,4.391359 14.805458,4.232453 13.199059,4.232453 13.199059,2.609598 28.00066,2.609598" style="fill: white" />
  </g>
  <g id="layer12" slic3r:z="1.25e-06">
    <polygon slic3r:type="contour" points="1.130627,7.453399 5.860985,7.577204 5.854581,7.718265 5.854364,7.723063 5.854078,7.729327 5.852688,7.759321 5.850416,7.808374 5.847041,7.881191 5.821662,8.42889 5.818256,8.502399 5.804554,8.798778 5.79087,9.094704 5.784187,9.239272 5.782442,9.276965 5.779114,9.347748 5.779113,9.347755 5.777897,9.37359 5.775283,9.429196 5.465057,9.421079 4.310481,9.390868 4.317675,9.238014 4.327804,9.022875 4.354258,8.460799 4.207186,8.457003 3.858258,8.447997 3.835072,8.940682 3.821683,9.225049 3.814489,9.377891 2.862206,9.352974 1.704054,9.322672 1.637571,9.241534 1.637559,9.241519 1.630958,9.233464 1.427155,8.984735 1.204471,8.712964 1.182882,8.686614 0.876979,8.313279 0.747551,8.155319 0.636847,8.020214 0.204109,7.492084 0.151413,7.427771" style="fill: white" />
    <polygon slic3r:type="contour" points="28.00066,5.610184 20.40066,5.610184 20.40066,7.360001 30.80066,7.360001 30.80066,9.428498 30.789865,9.425605 30.782566,9.423643 30.468472,9.3392 30.380511,9.362846 30.284696,9.388605 30.050585,9.451343 29.961553,9.475202 29.826621,9.610629 29.591714,9.846399 29.542068,10.030861 29.455636,10.352001 29.491355,10.48513 29.511872,10.561601 26.29859,10.561601 24.867296,10.5616 24.00066,10.561601 24.00066,10.9616 18.799058,10.9616 18.799058,10.561601 7.599062,10.561601 7.599062,7.360001 18.39906,7.360001 18.39906,5.610184 13.199059,5.610184 13.199059,2.709817 28.00066,2.709817" style="fill: white" />
  </g>
  <g id="layer13" slic3r:z="1.35e-06">
    <polygon slic3r:type="contour" points="0.391979,7.566999 5.768615,7.707717 5.790454,7.708289 5.854976,7.709978 5.820528,8.453361 5.818256,8.502399 5.809116,8.700116 5.781547,9.296352 5.523947,9.28961 4.316734,9.258022 4.325687,9.067841 4.354258,8.460799 4.290383,8.459151 3.858259,8.447997 3.833217,8.980097 3.820743,9.245044 1.962049,9.196411 1.592679,9.186748 1.148856,8.645089 1.135554,8.628854 0.947086,8.398841 0.807304,8.228244 0.733451,8.138113 0.262721,7.563616" style="fill: white" />
    <polygon slic3r:type="contour" points="28.00066,5.509965 20.40066,5.509965 20.40066,7.360001 30.80066,7.360001 30.80066,9.429157 30.793735,9.4273 30.765356,9.419672 30.466034,9.3392 30.371038,9.364737 30.288565,9.38691 30.035727,9.454666 29.959096,9.475201 29.842955,9.591767 29.589256,9.846399 29.546523,10.005171 29.453178,10.352002 29.491756,10.495782 29.509414,10.561601 25.978544,10.561601 24.746596,10.5616 24.00066,10.561601 24.00066,10.9616 18.799058,10.9616 18.799058,10.561601 7.599062,10.561601 7.599062,7.360001 18.39906,7.360001 18.39906,5.509965 13.199059,5.509965 13.199059,2.810036 28.00066,2.810036" style="fill: white" />
  </g>
  <g id="layer14" slic3r:z="1.45e-06">
    <polygon slic3r:type="contour" points="2.12845,8.008345 4.811603,8.078568 5.070813,8.085353 5.836653,8.105397 5.819394,8.477831 5.818257,8.502398 5.813677,8.601455 5.799865,8.900168 4.864952,8.875699 4.335383,8.86184 4.354258,8.460799 3.858258,8.447997 3.839393,8.848856 2.742266,8.820142 1.260524,8.781373 1.093243,8.577216 1.088228,8.571096 1.017193,8.484402 0.867055,8.301167 0.830056,8.256012 0.594222,7.968191" style="fill: white" />
    <polygon slic3r:type="contour" points="28.00066,5.409747 20.40066,5.409747 20.40066,7.360001 30.80066,7.360001 30.80066,9.429815 30.797606,9.428997 30.785091,9.425631 30.463596,9.3392 30.361563,9.36663 30.292437,9.385214 30.020869,9.457989 29.956637,9.475202 29.859292,9.572904 29.586798,9.846399 29.550982,9.979478 29.45072,10.352002 29.492153,10.506431 29.506956,10.561601 24.00066,10.561601 24.00066,10.9616 18.799058,10.9616 18.799058,10.561601 7.599062,10.561601 7.599062,7.360001 18.39906,7.360001 18.39906,5.409747 13.199059,5.409747 13.199059,2.910255 28.00066,2.910255" style="fill: white" />
  </g>
  <g id="layer15" slic3r:z="1.55e-06">
    <polygon slic3r:type="contour" points="2.423518,8.411965 3.858188,8.449516 3.858111,8.451098 3.858038,8.452684 3.830064,8.451952 0.928376,8.376005 0.926809,8.374092 0.92666,8.373911 0.925721,8.372765" style="fill: white" />
    <polygon slic3r:type="contour" points="5.112293,8.482339 5.81833,8.500817 5.818261,8.5023 5.818257,8.502398 5.818238,8.502794 5.818183,8.503984 5.814458,8.503885 4.354028,8.465666 4.354102,8.464079 4.35418,8.462499" style="fill: white" />
    <polygon slic3r:type="contour" points="28.00066,5.309528 20.40066,5.309528 20.40066,7.360001 30.80066,7.360001 30.80066,9.430473 30.78385,9.425954 30.461157,9.3392 30.35209,9.368521 30.296307,9.383518 30.006009,9.461312 29.954177,9.475202 29.875625,9.554044 29.58434,9.846399 29.555438,9.953787 29.448262,10.352002 29.492553,10.517081 29.504498,10.561601 24.00066,10.561601 24.00066,10.9616 18.799058,10.9616 18.799058,10.561601 7.599062,10.561601 7.599062,7.360001 18.39906,7.360001 18.39906,5.309528 13.199059,5.309528 13.199059,3.010474 28.00066,3.010474" style="fill: white" />
  </g>
  <g id="layer16" slic3r:z="1.65e-06">
    <polygon slic3r:type="contour" points="28.00066,5.209309 20.40066,5.209309 20.40066,7.360001 30.80066,7.360001 30.80066,9.431128 30.704214,9.405199 30.458721,9.3392 30.342615,9.370413 30.30018,9.381821 29.991151,9.464635 29.95172,9.475202 29.89196,9.535181 29.581882,9.846399 29.559894,9.928096 29.445804,10.352002 29.492954,10.527733 29.50204,10.561601 24.00066,10.561601 24.00066,10.9616 18.799058,10.9616 18.799058,10.561601 7.599062,10.561601 7.599062,7.360001 18.39906,7.360001 18.39906,5.209309 13.199059,5.209309 13.199059,3.110693 28.00066,3.110693" style="fill: white" />
    <polygon slic3r:type="hole" points="20.782095,8.372386 19.99586,8.825599 19.99586,9.985602 20.214423,10.111588 21.00066,10.564801 21.786895,10.111589 22.00546,9.985602 22.00546,8.825599 21.786895,8.699611 21.00066,8.246399" style="fill: black" />
  </g>
  <g id="layer17" slic3r:z="1.75e-06">
    <polygon slic3r:type="contour" points="28.00066,3.348989 28.00066,4.971013 20.40066,4.971013 20.40066,7.360001 30.80066,7.360001 30.80066,9.431784 30.624576,9.384445 30.456283,9.3392 30.304022,9.380133 29.976294,9.467957 29.949262,9.475202 29.908294,9.516319 29.579423,9.846399 29.564349,9.902406 29.443346,10.352002 29.493354,10.538383 29.499582,10.561601 24.00066,10.561601 24.00066,10.9616 18.799058,10.9616 18.799058,10.561601 7.599062,10.561601 7.599062,7.360001 18.39906,7.360001 18.39906,4.971013 13.199059,4.971013 13.199059,3.348989 18.11274,3.348988 20.819127,3.348988" style="fill: white" />
    <polygon slic3r:type="hole" points="20.534851,8.514906 19.99586,8.825599 19.99586,9.985602 20.461668,10.254109 21.00066,10.564801 21.539651,10.254109 22.00546,9.985602 22.00546,8.825599 21.539651,8.557091 21.00066,8.246399" style="fill: black" />
  </g>
  <g id="layer18" slic3r:z="1.85e-06">
    <polygon slic3r:type="contour" points="20.40066,3.721012 23.830269,3.721012 28.00066,3.721013 28.00066,4.598989 20.40066,4.598989 20.40066,7.360001 30.80066,7.360001 30.80066,9.432439 30.482084,9.346791 30.453846,9.3392 30.323667,9.374197 30.307919,9.37843 29.961436,9.47128 29.946804,9.475201 29.924629,9.497459 29.576966,9.846399 29.568808,9.876714 29.440888,10.352002 29.493752,10.549034 29.497123,10.561601 24.00066,10.561601 24.00066,10.9616 18.799058,10.9616 18.799058,10.561601 7.599062,10.561601 7.599062,7.360001 18.39906,7.360001 18.39906,4.598989 13.199059,4.598989 13.199059,3.721013 16.052484,3.721012 18.39906,3.721012 18.39906,3.36 20.40066,3.36" style="fill: white" />
    <polygon slic3r:type="hole" points="20.287607,8.657426 19.99586,8.825599 19.99586,9.985601 20.708911,10.396627 21.00066,10.564801 21.292407,10.396628 22.00546,9.985601 22.00546,8.825599 21.292407,8.414571 21.00066,8.246399" style="fill: black" />
  </g>
  <g id="layer19" slic3r:z="1.95e-06">
    <polygon slic3r:type="contour" points="20.40066,4.093037 28.00066,4.093037 28.00066,4.226965 20.40066,4.226965 20.40066,7.360001 30.80066,7.360001 30.80066,9.433094 30.465303,9.342935 30.451407,9.3392 30.314193,9.376088 30.311791,9.376734 29.944346,9.475201 29.574508,9.846398 29.43843,10.352001 29.494152,10.559684 29.494666,10.561601 24.00066,10.561601 24.00066,10.9616 18.799058,10.9616 18.799058,10.561601 7.599062,10.561601 7.599062,7.360001 18.39906,7.360001 18.39906,4.226965 13.199059,4.226965 13.199059,4.093037 18.39906,4.093037 18.39906,3.36 20.40066,3.36" style="fill: white" />
    <polygon slic3r:type="hole" points="20.040363,8.799945 19.99586,8.825599 19.99586,9.985602 20.956156,10.539148 21.00066,10.5648 21.045163,10.539148 22.00546,9.985602 22.00546,8.825599 21.045163,8.272051 21.00066,8.246399" style="fill: black" />
  </g>
</svg>
