<?xml version="1.0" encoding="UTF-8" standalone="yes"?>
<!DOCTYPE svg PUBLIC "-//W3C//DTD SVG 1.0//EN" "http://www.w3.org/TR/2001/REC-SVG-20010904/DTD/svg10.dtd">
<svg width="9.221314" height="17.657878" xmlns="http://www.w3.org/2000/svg" xmlns:svg="http://www.w3.org/2000/svg" xmlns:xlink="http://www.w3.org/1999/xlink" xmlns:slic3r="http://slic3r.org/namespaces/slic3r">
  <!-- 
  Generated using Slic3r 1.2.6
  http://slic3r.org/
   -->
  <g id="layer0" slic3r:z="1.75e-07">
    <polygon slic3r:type="contour" points="1.453961,0.690243 7.767354,0.690243 7.767354,0 9.221314,0 9.221314,7.884484 9.07002,7.884484 9.07002,8.286857 8.36152,8.286857 8.36152,7.884484 7.702613,7.884484 7.702613,9.612993 8.143344,9.612993 8.14344,9.942993 8.14346,10.012993 7.57504,10.012993 7.106079,10.022565 7.006604,10.024595 7.006604,9.769379 6.48457,9.769379 6.48457,10.535027 6.681776,10.645369 6.723609,10.668776 6.723609,11.815683 6.526402,12.012891 6.48457,12.054724 6.48457,17.657878 5.834571,17.657878 5.834571,12.263536 3.386744,12.263536 3.386744,17.657878 2.736745,17.657878 2.736745,12.054724 2.539537,11.857514 2.497706,11.815683 2.497706,10.668775 2.694912,10.558433 2.736745,10.535026 2.736745,9.769379 2.214713,9.769379 2.214713,10.024595 1.745752,10.015023 1.646275,10.012993 1.077857,10.012993 1.077951,9.682992 1.077971,9.612993 1.518704,9.612993 1.518704,7.884484 0.859795,7.884484 0.859795,8.286857 0.151295,8.286857 0.151295,7.884484 0,7.884484 0,0 1.453961,0" style="fill: white" />
  </g>
  <g id="layer1" slic3r:z="4e-07">
    <polygon slic3r:type="contour" points="1.453961,0.690243 7.767354,0.690243 7.767354,0 9.221314,0 9.221314,7.884484 9.07002,7.884484 9.07002,8.286857 8.36152,8.286857 8.36152,7.884484 7.702613,7.884484 7.702613,9.612993 8.143344,9.612993 8.143413,9.852992 8.14346,10.012993 7.57504,10.012993 7.284896,10.018914 7.006604,10.024595 7.006604,9.769379 6.48457,9.769379 6.48457,10.535027 6.627992,10.615275 6.723609,10.668776 6.723609,11.815683 6.580186,11.959107 6.48457,12.054724 6.48457,17.657878 5.834571,17.657878 5.834571,12.263536 3.386744,12.263536 3.386744,17.657878 2.736745,17.657878 2.736745,12.054724 2.593321,11.911298 2.497706,11.815683 2.497706,10.668776 2.641129,10.588526 2.736745,10.535027 2.736745,9.769379 2.214713,9.769379 2.214713,10.024595 1.87365,10.017634 1.646274,10.012993 1.077857,10.012993 1.077924,9.772993 1.077971,9.612993 1.518704,9.612993 1.518704,7.884484 0.859795,7.884484 0.859795,8.286857 0.151295,8.286857 0.151295,7.884484 0,7.884484 0,0 1.453961,0" style="fill: white" />
  </g>
  <g id="layer2" slic3r:z="5e-07">
    <polygon slic3r:type="contour" points="1.453961,0.690243 7.767354,0.690243 7.767354,0 9.221314,0 9.221314,7.884484 9.07002,7.884484 9.07002,8.286857 8.36152,8.286857 8.36152,7.884484 7.702613,7.884484 7.702613,9.612993 8.143344,9.612993 8.14346,10.012993 7.57504,10.012993 7.006604,10.024595 7.006604,9.769379 6.48457,9.769379 6.48457,10.535027 6.604089,10.601901 6.723609,10.668776 6.723609,11.815683 6.60409,11.935203 6.48457,12.054724 6.48457,17.657878 5.834571,17.657878 5.834571,12.263536 3.386744,12.263536 3.386744,17.657878 2.736745,17.657878 2.736745,12.054724 2.617224,11.935203 2.497706,11.815683 2.497706,10.668776 2.617225,10.601901 2.736745,10.535027 2.736745,9.769379 2.214713,9.769379 2.214713,10.024595 1.930494,10.018794 1.646274,10.012993 1.077856,10.012993 1.077914,9.812993 1.07797,9.612993 1.518704,9.612993 1.518704,7.884484 0.859795,7.884484 0.859795,8.286857 0.151295,8.286857 0.151295,7.884484 0,7.884484 0,0 1.453961,0" style="fill: white" />
  </g>
  <g id="layer3" slic3r:z="6e-07">
    <polygon slic3r:type="contour" points="1.453961,0.690243 7.767354,0.690243 7.767354,0 9.221314,0 9.221314,7.884484 9.07002,7.884484 9.07002,8.286857 8.36152,8.286857 8.36152,7.884484 7.702613,7.884484 7.702613,9.612993 8.143344,9.612993 8.143389,9.772992 8.14346,10.012993 7.57504,10.012993 7.347664,10.017634 7.006604,10.024595 7.006604,9.769379 6.48457,9.769379 6.48457,10.535027 6.580185,10.588526 6.723609,10.668776 6.723609,11.815683 6.627992,11.911299 6.48457,12.054724 6.48457,17.657878 5.834571,17.657878 5.834571,12.263536 3.386744,12.263536 3.386744,17.657878 2.736745,17.657878 2.736745,12.054724 2.641128,11.959107 2.497706,11.815683 2.497706,10.668776 2.593321,10.615276 2.736745,10.535027 2.736745,9.769379 2.214713,9.769379 2.214713,10.024595 1.987337,10.019953 1.646274,10.012993 1.077857,10.012993 1.077901,9.852993 1.077971,9.612993 1.518704,9.612993 1.518704,7.884484 0.859795,7.884484 0.859795,8.286857 0.151295,8.286857 0.151295,7.884484 0,7.884484 0,0 1.453961,0" style="fill: white" />
  </g>
  <g id="layer4" slic3r:z="7e-07">
    <polygon slic3r:type="contour" points="1.453961,0.690243 7.767354,0.690243 7.767354,0 9.221314,0 9.221314,7.884484 9.07002,7.884484 9.07002,8.286857 8.36152,8.286857 8.36152,7.884484 7.702613,7.884484 7.702613,9.612993 8.143344,9.612993 8.143378,9.732992 8.14346,10.012993 7.575039,10.012993 7.404509,10.016473 7.006604,10.024595 7.006604,9.769379 6.48457,9.769379 6.48457,10.535027 6.556281,10.575151 6.723609,10.668776 6.723609,11.815683 6.651896,11.887395 6.48457,12.054724 6.48457,17.657878 5.834571,17.657878 5.834571,12.263536 3.386744,12.263536 3.386744,17.657878 2.736745,17.657878 2.736745,12.054724 2.665032,11.983011 2.497706,11.815683 2.497706,10.668776 2.569417,10.628651 2.736745,10.535027 2.736745,9.769379 2.214713,9.769379 2.214713,10.024595 2.044181,10.021114 1.646275,10.012993 1.077857,10.012993 1.077891,9.892992 1.077971,9.612993 1.518704,9.612993 1.518704,7.884484 0.859795,7.884484 0.859795,8.286857 0.151295,8.286857 0.151295,7.884484 0,7.884484 0,0 1.453961,0" style="fill: white" />
  </g>
  <g id="layer5" slic3r:z="8e-07">
    <polygon slic3r:type="contour" points="1.453961,0.690243 7.767354,0.690243 7.767354,0 9.221314,0 9.221314,7.884484 9.07002,7.884484 9.07002,8.286857 8.36152,8.286857 8.36152,7.884484 7.702613,7.884484 7.702613,9.612993 8.143344,9.612993 8.143367,9.692993 8.14346,10.012993 7.57504,10.012993 7.461353,10.015312 7.006604,10.024595 7.006604,9.769379 6.48457,9.769379 6.48457,10.535027 6.532377,10.561776 6.723609,10.668776 6.723609,11.815683 6.6758,11.863491 6.48457,12.054724 6.48457,17.657878 5.834571,17.657878 5.834571,12.263536 3.386744,12.263536 3.386744,17.657878 2.736745,17.657878 2.736745,12.054723 2.688936,12.006915 2.497706,11.815683 2.497706,10.668776 2.545513,10.642026 2.736745,10.535027 2.736745,9.769379 2.214713,9.769379 2.214713,10.024595 2.101025,10.022275 1.646274,10.012993 1.077856,10.012993 1.077878,9.932993 1.077971,9.612993 1.518704,9.612993 1.518704,7.884484 0.859795,7.884484 0.859795,8.286857 0.151295,8.286857 0.151295,7.884484 0,7.884484 0,0 1.453961,0" style="fill: white" />
  </g>
  <g id="layer6" slic3r:z="9e-07">
    <polygon slic3r:type="contour" points="1.453961,0.690243 7.767354,0.690243 7.767354,0 9.221314,0 9.221314,7.884484 9.07002,7.884484 9.07002,8.286857 8.36152,8.286857 8.36152,7.884484 7.702613,7.884484 7.702613,9.612993 8.143344,9.612993 8.143354,9.652992 8.14346,10.012993 7.575039,10.012993 7.518196,10.014152 7.006604,10.024595 7.006604,9.769379 6.48457,9.769379 6.48457,10.535027 6.723609,10.668776 6.723609,11.815683 6.699704,11.839587 6.48457,12.054724 6.48457,17.657878 5.834571,17.657878 5.834571,12.263536 3.386744,12.263536 3.386744,17.657878 2.736745,17.657878 2.736745,12.054724 2.71284,12.030819 2.497706,11.815683 2.497706,10.668776 2.52161,10.6554 2.736745,10.535027 2.736745,9.769379 2.214713,9.769379 2.214713,10.024595 2.157868,10.023434 1.646275,10.012993 1.077856,10.012993 1.077867,9.972993 1.077971,9.612993 1.518704,9.612993 1.518704,7.884484 0.859795,7.884484 0.859795,8.286857 0.151295,8.286857 0.151295,7.884484 0,7.884484 0,0 1.453961,0" style="fill: white" />
  </g>
  <g id="layer7" slic3r:z="1e-06">
    <polygon slic3r:type="contour" points="1.453961,0.690243 7.767354,0.690243 7.767354,0 9.221314,0 9.221314,7.884484 9.07002,7.884484 9.07002,8.286857 8.36152,8.286857 8.36152,7.884484 7.702613,7.884484 7.702613,9.612993 8.143344,9.612993 8.14346,10.012993 7.57504,10.012993 7.006604,10.024595 7.006604,9.769379 6.48457,9.769379 6.48457,10.535027 6.723609,10.668776 6.723609,11.815683 6.48457,12.054724 6.48457,17.657878 5.834571,17.657878 5.834571,12.263536 3.386744,12.263536 3.386744,17.657878 2.736745,17.657878 2.736745,12.054724 2.497706,11.815683 2.497706,10.668776 2.736745,10.535027 2.736745,9.769379 2.214713,9.769379 2.214713,10.024595 1.646274,10.012993 1.077856,10.012993 1.07797,9.612993 1.518704,9.612993 1.518704,7.884484 0.859795,7.884484 0.859795,8.286857 0.151295,8.286857 0.151295,7.884484 0,7.884484 0,0 1.453961,0" style="fill: white" />
  </g>
</svg>
