<?xml version="1.0" encoding="UTF-8" standalone="yes"?>
<!DOCTYPE svg PUBLIC "-//W3C//DTD SVG 1.0//EN" "http://www.w3.org/TR/2001/REC-SVG-20010904/DTD/svg10.dtd">
<svg width="9.221314" height="17.657878" xmlns="http://www.w3.org/2000/svg" xmlns:svg="http://www.w3.org/2000/svg" xmlns:xlink="http://www.w3.org/1999/xlink" xmlns:slic3r="http://slic3r.org/namespaces/slic3r">
  <!-- 
  Generated using Slic3r 1.2.6
  http://slic3r.org/
   -->
  <g id="layer0" slic3r:z="1.75e-07">
    <polygon slic3r:type="contour" points="1.453961,0.690243 7.767354,0.690243 7.767354,0 9.221314,0 9.221314,7.884484 9.07002,7.884484 9.07002,8.286857 8.36152,8.286857 8.36152,7.884484 7.702611,7.884484 7.702611,9.612993 8.143344,9.612993 8.143368,9.702992 8.143408,9.837993 8.143458,10.012993 7.575039,10.012993 7.398259,10.0166 7.255293,10.019519 7.006602,10.024595 7.006602,9.769379 6.48457,9.769379 6.48457,10.535026 6.538353,10.565119 6.619029,10.610261 6.723609,10.668776 6.723609,11.815683 6.669825,11.869466 6.589149,11.950144 6.48457,12.054724 6.48457,17.657878 5.834571,17.657878 5.834571,12.263536 3.386744,12.263536 3.386744,17.657878 2.736745,17.657878 2.736745,12.054724 2.68296,12.000939 2.602284,11.920262 2.497706,11.815683 2.497706,10.668776 2.55149,10.638681 2.632164,10.593542 2.736745,10.535026 2.736745,9.769379 2.214711,9.769379 2.214712,9.826802 2.214711,9.912938 2.214711,10.024595 2.086813,10.021985 1.894966,10.018069 1.646274,10.012993 1.077855,10.012993 1.077919,9.787993 1.077971,9.612993 1.518702,9.612993 1.518702,7.884484 0.859795,7.884484 0.859795,8.286857 0.151295,8.286857 0.151295,7.884484 0,7.884484 0,0 1.453961,0" style="fill: white" />
    <polygon slic3r:type="hole" points="2.114863,1.431612 2.114863,7.431614 3.947141,7.431614 4.797299,5.885095 5.00984,5.498464 5.836383,3.994904 5.836383,7.431614 7.203471,7.431614 7.203471,1.431612 5.765179,1.431612 4.737726,3.314029 4.480864,3.784633 3.481951,5.614762 3.481951,1.431612" style="fill: black" />
  </g>
  <g id="layer1" slic3r:z="3.6e-07">
    <polygon slic3r:type="contour" points="1.453961,0.690243 7.767354,0.690243 7.767354,0 9.221314,0 9.221314,7.884484 9.07002,7.884484 9.07002,8.286857 8.36152,8.286857 8.36152,7.884484 7.702611,7.884484 7.702611,9.612993 8.143344,9.612993 8.143347,9.628992 8.143354,9.652992 8.143458,10.012993 7.57504,10.012993 7.552301,10.013457 7.518195,10.014153 7.006602,10.024595 7.006602,9.769379 6.48457,9.769379 6.48457,10.535027 6.723609,10.668776 6.723609,11.815683 6.699704,11.839587 6.48457,12.054724 6.48457,17.657878 5.834571,17.657878 5.834571,12.263536 3.386744,12.263536 3.386744,17.657878 2.736745,17.657878 2.736745,12.054724 2.71284,12.030819 2.497706,11.815683 2.497706,10.668776 2.507268,10.663425 2.52161,10.6554 2.736745,10.535027 2.736745,9.769379 2.214711,9.769379 2.214711,10.024595 2.149191,10.023257 1.646275,10.012993 1.077855,10.012993 1.077858,9.996993 1.077971,9.612993 1.518702,9.612993 1.518702,7.884484 0.859795,7.884484 0.859795,8.286857 0.151295,8.286857 0.151295,7.884484 0,7.884484 0,0 1.453961,0" style="fill: white" />
    <polygon slic3r:type="hole" points="2.114863,1.431612 2.114863,7.431614 3.947142,7.431614 4.09828,7.156678 4.136066,7.087943 5.836383,3.994904 5.836383,7.431614 7.203471,7.431614 7.203471,1.431612 5.765179,1.431612 5.58252,1.766264 5.536857,1.849926 3.481951,5.614762 3.481951,1.431612" style="fill: black" />
  </g>
  <g id="layer2" slic3r:z="3.8e-07">
    <polygon slic3r:type="contour" points="1.453961,0.690243 7.767354,0.690243 7.767354,0 9.221314,0 9.221314,7.884484 9.07002,7.884484 9.07002,8.286857 8.36152,8.286857 8.36152,7.884484 7.702611,7.884484 7.702611,9.612993 8.143344,9.612993 8.143348,9.632992 8.143457,10.012993 7.57504,10.012993 7.56367,10.013225 7.546618,10.013572 7.006602,10.024594 7.006602,9.769379 6.48457,9.769379 6.48457,10.535026 6.723609,10.668776 6.723609,11.815683 6.711656,11.827635 6.48457,12.054724 6.48457,17.657878 5.834571,17.657878 5.834571,12.263536 3.386744,12.263536 3.386744,17.657878 2.736745,17.657878 2.736745,12.054724 2.497706,11.815683 2.497706,10.668775 2.502486,10.666101 2.509658,10.662088 2.736745,10.535027 2.736745,9.769379 2.214711,9.769379 2.214711,10.024595 2.203341,10.024362 2.186288,10.024014 1.646274,10.012993 1.077855,10.012993 1.077856,10.004993 1.077861,9.992992 1.077971,9.612993 1.518702,9.612993 1.518702,7.884484 0.859795,7.884484 0.859795,8.286857 0.151295,8.286857 0.151295,7.884484 0,7.884484 0,0 1.453961,0" style="fill: white" />
    <polygon slic3r:type="hole" points="2.114863,1.431612 2.114863,7.431614 3.947141,7.431614 4.022712,7.294145 4.041603,7.259779 5.836383,3.994904 5.836383,7.431614 7.203471,7.431614 7.203471,1.431612 5.765179,1.431612 5.67385,1.598937 5.651018,1.640768 3.481951,5.614761 3.481951,1.431612" style="fill: black" />
  </g>
</svg>
