<?xml version="1.0" encoding="UTF-8" standalone="yes"?>
<!DOCTYPE svg PUBLIC "-//W3C//DTD SVG 1.0//EN" "http://www.w3.org/TR/2001/REC-SVG-20010904/DTD/svg10.dtd">
<svg width="35.315759" height="18.44263" xmlns="http://www.w3.org/2000/svg" xmlns:svg="http://www.w3.org/2000/svg" xmlns:xlink="http://www.w3.org/1999/xlink" xmlns:slic3r="http://slic3r.org/namespaces/slic3r">
  <!-- 
  Generated using Slic3r 1.2.6
  http://slic3r.org/
   -->
  <g id="layer0" slic3r:z="1.75e-07">
    <polygon slic3r:type="contour" points="35.315756,2.907921 33.935272,2.907921 33.935272,15.534708 35.315756,15.534708 35.315756,18.44263 19.54679,18.44263 19.54679,18.14004 18.74204,18.14004 18.74204,16.72304 19.54679,16.72304 19.54679,15.405224 16.089769,15.405224 16.089769,16.286687 15.359769,16.286899 15.28977,16.286919 15.28977,15.15008 15.268596,14.112681 15.266567,14.013206 15.777,14.013206 15.777,12.969142 14.37766,12.969141 14.245703,12.969141 14.00161,13.405387 13.978205,13.447219 11.885098,13.447218 11.68439,13.447218 11.248141,13.010972 11.20631,12.969141 0,12.969141 0,11.669142 10.788685,11.669142 10.788685,6.773489 0,6.773489 0,5.47349 11.20631,5.47349 11.642558,5.037243 11.68439,4.995412 13.777496,4.995411 13.978204,4.995411 14.222297,5.431658 14.245703,5.47349 15.777,5.47349 15.777,4.429424 15.266567,4.429424 15.28774,3.392026 15.28977,3.29255 15.28977,2.155711 15.969883,2.155906 16.089769,2.155941 16.089769,3.037406 19.54679,3.037406 19.54679,1.719591 18.74204,1.719591 18.74204,0.30259 19.54679,0.30259 19.54679,0 35.315756,0" style="fill: white" />
  </g>
  <g id="layer1" slic3r:z="4e-07">
    <polygon slic3r:type="contour" points="35.315756,2.907921 33.935272,2.907921 33.935272,15.534708 35.315756,15.534708 35.315756,18.44263 19.54679,18.44263 19.54679,18.14004 18.74204,18.14004 18.74204,16.72304 19.54679,16.72304 19.54679,15.405224 16.089769,15.405224 16.089769,16.286687 15.449769,16.286873 15.28977,16.286919 15.28977,15.150079 15.27021,14.191699 15.266567,14.013206 15.777,14.013206 15.777,12.969142 14.547321,12.969141 14.245703,12.969141 14.031705,13.351602 13.978205,13.447219 12.143152,13.447218 11.68439,13.447218 11.301925,13.064755 11.20631,12.969141 0,12.969141 0,11.669142 10.788685,11.669142 10.788685,6.773489 0,6.773489 0,5.47349 11.20631,5.47349 11.588773,5.091027 11.68439,4.995412 13.519442,4.995411 13.978204,4.995411 14.192203,5.377874 14.245702,5.47349 15.777,5.47349 15.777,4.429424 15.266567,4.429424 15.285128,3.519925 15.28977,3.292549 15.28977,2.155711 15.929769,2.155895 16.089769,2.155941 16.089769,3.037406 19.54679,3.037406 19.54679,1.719591 18.74204,1.719591 18.74204,0.30259 19.54679,0.30259 19.54679,0 35.315756,0" style="fill: white" />
  </g>
  <g id="layer2" slic3r:z="5e-07">
    <polygon slic3r:type="contour" points="35.315756,2.907921 33.935272,2.907921 33.935272,15.534708 35.315756,15.534708 35.315756,18.44263 19.54679,18.44263 19.54679,18.14004 18.74204,18.14004 18.74204,16.72304 19.54679,16.72304 19.54679,15.405224 16.089769,15.405224 16.089769,16.286688 15.539684,16.286846 15.28977,16.286919 15.28977,15.15008 15.272367,14.297423 15.266567,14.013206 15.777,14.013206 15.777,12.969142 14.622726,12.969141 14.245703,12.969141 14.04508,13.327699 13.978205,13.447219 12.257843,13.447218 11.68439,13.447218 11.325829,13.088659 11.20631,12.969141 0,12.969141 0,11.669142 10.788685,11.669142 10.788685,6.773489 0,6.773489 0,5.47349 11.20631,5.47349 11.564869,5.114931 11.68439,4.995412 13.404751,4.995411 13.978204,4.995411 14.178827,5.353969 14.245703,5.47349 15.777,5.47349 15.777,4.429424 15.266567,4.429424 15.283968,3.576769 15.28977,3.292549 15.28977,2.155711 15.889769,2.155883 16.089769,2.155941 16.089769,3.037406 19.54679,3.037406 19.54679,1.719591 18.74204,1.719591 18.74204,0.30259 19.54679,0.30259 19.54679,0 35.315756,0" style="fill: white" />
  </g>
  <g id="layer3" slic3r:z="6e-07">
    <polygon slic3r:type="contour" points="35.315756,2.907921 33.935272,2.907921 33.935272,15.534708 35.315756,15.534708 35.315756,18.44263 19.54679,18.44263 19.54679,18.14004 18.74204,18.14004 18.74204,16.72304 19.54679,16.72304 19.54679,15.405224 16.089769,15.405224 16.089769,16.286688 15.52977,16.286849 15.28977,16.286918 15.28977,15.150079 15.273527,14.354267 15.266567,14.013206 15.777,14.013206 15.777,12.969142 14.698131,12.969141 14.245703,12.969141 14.058454,13.303795 13.978205,13.447219 12.372533,13.447218 11.684389,13.447218 11.349733,13.112563 11.20631,12.969141 0,12.969141 0,11.669142 10.788685,11.669142 10.788685,6.773489 0,6.773489 0,5.47349 11.20631,5.47349 11.540965,5.138835 11.68439,4.995412 13.29006,4.995411 13.978205,4.995411 14.165453,5.330065 14.245703,5.47349 15.777,5.47349 15.777,4.429424 15.266567,4.429424 15.282808,3.633612 15.28977,3.292549 15.28977,2.155711 15.849769,2.155872 16.089769,2.155941 16.089769,3.037406 19.54679,3.037406 19.54679,1.719591 18.74204,1.719591 18.74204,0.30259 19.54679,0.30259 19.54679,0 35.315756,0" style="fill: white" />
  </g>
  <g id="layer4" slic3r:z="7e-07">
    <polygon slic3r:type="contour" points="35.315756,2.907921 33.935272,2.907921 33.935272,15.534708 35.315756,15.534708 35.315756,18.44263 19.54679,18.44263 19.54679,18.14004 18.74204,18.14004 18.74204,16.72304 19.54679,16.72304 19.54679,15.405224 16.089769,15.405224 16.089769,16.286688 15.56977,16.286837 15.28977,16.286919 15.28977,15.15008 15.274687,14.411111 15.266567,14.013206 15.777,14.013206 15.777,12.969142 14.773535,12.969141 14.245702,12.969141 14.030275,13.354157 13.978205,13.447219 12.487224,13.447218 11.68439,13.447218 11.373637,13.136467 11.20631,12.969141 0,12.969141 0,11.669142 10.788685,11.669142 10.788685,6.773489 0,6.773489 0,5.47349 11.20631,5.47349 11.517061,5.162739 11.68439,4.995412 13.17537,4.995411 13.978205,4.995411 14.152078,5.306161 14.245703,5.47349 15.777,5.47349 15.777,4.429424 15.266567,4.429424 15.281649,3.690455 15.28977,3.29255 15.28977,2.15571 15.809769,2.15586 16.089769,2.155941 16.089769,3.037406 19.54679,3.037406 19.54679,1.719591 18.74204,1.719591 18.74204,0.30259 19.54679,0.30259 19.54679,0 35.315756,0" style="fill: white" />
  </g>
  <g id="layer5" slic3r:z="8e-07">
    <polygon slic3r:type="contour" points="35.315756,2.907921 33.935272,2.907921 33.935272,15.534708 35.315756,15.534708 35.315756,18.44263 19.54679,18.44263 19.54679,18.14004 18.74204,18.14004 18.74204,16.72304 19.54679,16.72304 19.54679,15.405224 16.089769,15.405224 16.089769,16.286687 15.609769,16.286827 15.28977,16.286919 15.28977,15.15008 15.275847,14.467955 15.266566,14.013206 15.777,14.013206 15.777,12.969142 14.84894,12.969141 14.245703,12.969141 14.085203,13.255988 13.978205,13.447219 12.601915,13.447218 11.68439,13.447218 11.397542,13.160372 11.20631,12.969141 0,12.969141 0,11.669142 10.788685,11.669142 10.788685,6.773489 0,6.773489 0,5.47349 11.206309,5.47349 11.493158,5.186642 11.68439,4.995412 13.060679,4.995411 13.978205,4.995411 14.138703,5.282257 14.245703,5.47349 15.777,5.47349 15.777,4.429424 15.266567,4.429424 15.279491,3.796181 15.28977,3.29255 15.28977,2.155711 15.769769,2.155849 16.089769,2.155941 16.089769,3.037406 19.54679,3.037406 19.54679,1.719591 18.74204,1.719591 18.74204,0.30259 19.54679,0.30259 19.54679,0 35.315756,0" style="fill: white" />
  </g>
  <g id="layer6" slic3r:z="9e-07">
    <polygon slic3r:type="contour" points="35.315756,2.907921 33.935272,2.907921 33.935272,15.534708 35.315756,15.534708 35.315756,18.44263 19.54679,18.44263 19.54679,18.14004 18.74204,18.14004 18.74204,16.72304 19.54679,16.72304 19.54679,15.405224 16.089769,15.405224 16.089769,16.286688 15.64977,16.286815 15.28977,16.286919 15.28977,15.15008 15.277007,14.524798 15.266567,14.013206 15.777,14.013206 15.777,12.969142 14.924345,12.969141 14.245703,12.969141 14.098578,13.232084 13.978205,13.447219 12.716606,13.447218 11.68439,13.447218 11.421446,13.184276 11.20631,12.969141 0,12.969141 0,11.669142 10.788685,11.669142 10.788685,6.773489 0,6.773489 0,5.47349 11.206309,5.47349 11.469253,5.210547 11.68439,4.995412 12.945988,4.995411 13.978205,4.995411 14.125328,5.258353 14.245703,5.47349 15.777,5.47349 15.777,4.429424 15.266567,4.429424 15.279329,3.804142 15.28977,3.29255 15.28977,2.155711 15.729768,2.155836 16.089769,2.155941 16.089769,3.037406 19.54679,3.037406 19.54679,1.719591 18.74204,1.719591 18.74204,0.30259 19.54679,0.30259 19.54679,0 35.315756,0" style="fill: white" />
  </g>
  <g id="layer7" slic3r:z="1e-06">
    <polygon slic3r:type="contour" points="35.315756,2.907921 33.935272,2.907921 33.935272,15.534708 35.315756,15.534708 35.315756,18.44263 19.54679,18.44263 19.54679,18.14004 18.74204,18.14004 18.74204,16.72304 19.54679,16.72304 19.54679,15.405224 16.089769,15.405224 16.089769,16.286688 15.68977,16.286803 15.28977,16.286919 15.28977,15.150079 15.278167,14.581642 15.266566,14.013206 15.777,14.013206 15.777,12.969142 14.99975,12.969142 14.245703,12.969141 13.978205,13.447219 12.831297,13.447218 11.68439,13.447218 11.44535,13.20818 11.206309,12.969141 0,12.969141 0,11.669142 10.788685,11.669142 10.788685,6.773489 0,6.773489 0,5.47349 11.206309,5.47349 11.68439,4.995412 12.831297,4.995412 13.978205,4.995411 14.111953,5.23445 14.245703,5.47349 15.777,5.47349 15.777,4.429424 15.266566,4.429424 15.278167,3.860987 15.28977,3.29255 15.28977,2.155711 15.689769,2.155826 16.089769,2.155941 16.089769,3.037406 19.54679,3.037406 19.54679,1.719591 18.74204,1.719591 18.74204,0.30259 19.54679,0.30259 19.54679,0 35.315756,0" style="fill: white" />
  </g>
  <g id="layer8" slic3r:z="1.1e-06">
    <polygon slic3r:type="contour" points="35.315756,2.907921 33.935272,2.907921 33.935272,15.534708 35.315756,15.534708 35.315756,18.44263 19.54679,18.44263 19.54679,18.14004 18.74204,18.14004 18.74204,16.72304 19.54679,16.72304 19.54679,15.405224 16.089769,15.405224 16.089769,16.286688 15.729768,16.286792 15.28977,16.286919 15.28977,15.150079 15.279328,14.638486 15.266567,14.013206 15.777,14.013206 15.777,12.969142 15.075155,12.969142 14.245702,12.969141 14.125329,13.184275 13.978205,13.447219 12.945988,13.447219 11.68439,13.447218 11.469253,13.232082 11.20631,12.969141 0,12.969141 0,11.669142 10.788685,11.669142 10.788685,6.773489 0,6.773489 0,5.47349 11.20631,5.47349 11.421446,5.258354 11.68439,4.995412 12.716606,4.995412 13.978205,4.995411 14.098578,5.210546 14.245703,5.47349 15.777,5.47349 15.777,4.429424 15.266567,4.429424 15.277007,3.917831 15.28977,3.292549 15.28977,2.155711 15.599884,2.1558 16.089769,2.155941 16.089769,3.037406 19.54679,3.037406 19.54679,1.719591 18.74204,1.719591 18.74204,0.30259 19.54679,0.30259 19.54679,0 35.315756,0" style="fill: white" />
    <polygon slic3r:type="hole" points="20.452528,4.229726 20.452528,7.894283 26.712544,11.335561 27.325947,11.672764 20.452528,11.672764 20.452528,14.406941 32.45253,14.406941 32.45253,11.530359 24.922863,7.420548 24.086234,6.963903 32.45253,6.963903 32.45253,4.229726" style="fill: black" />
  </g>
  <g id="layer9" slic3r:z="1.2e-06">
    <polygon slic3r:type="contour" points="35.315756,2.907921 33.935272,2.907921 33.935272,15.534708 35.315756,15.534708 35.315756,18.44263 19.54679,18.44263 19.54679,18.14004 18.74204,18.14004 18.74204,16.72304 19.54679,16.72304 19.54679,15.405224 16.089769,15.405224 16.089769,16.286688 15.769769,16.28678 15.28977,16.286919 15.28977,15.150079 15.279491,14.646448 15.266567,14.013206 15.777,14.013206 15.777,12.969142 15.15056,12.969142 14.245703,12.969141 14.138704,13.160371 13.978205,13.447219 13.060679,13.447219 11.68439,13.447218 11.493157,13.255986 11.20631,12.969141 0,12.969141 0,11.669142 10.788685,11.669142 10.788685,6.773489 0,6.773489 0,5.47349 11.20631,5.47349 11.397541,5.282259 11.68439,4.995412 12.601915,4.995412 13.978205,4.995411 14.085203,5.186642 14.245703,5.47349 15.777,5.47349 15.777,4.429424 15.266566,4.429424 15.275847,3.974674 15.28977,3.292549 15.28977,2.155711 15.609769,2.155803 16.089769,2.155941 16.089769,3.037406 19.54679,3.037406 19.54679,1.719591 18.74204,1.719591 18.74204,0.30259 19.54679,0.30259 19.54679,0 35.315756,0" style="fill: white" />
    <polygon slic3r:type="hole" points="20.452528,4.229726 20.452528,7.894283 26.025202,10.957713 27.325947,11.672764 20.452528,11.672764 20.452528,14.406941 32.45253,14.406941 32.45253,11.530359 25.759493,7.877193 24.086234,6.963903 32.45253,6.963903 32.45253,4.229726" style="fill: black" />
  </g>
  <g id="layer10" slic3r:z="1.3e-06">
    <polygon slic3r:type="contour" points="35.315756,2.907921 33.935272,2.907921 33.935272,15.534708 35.315756,15.534708 35.315756,18.44263 19.54679,18.44263 19.54679,18.14004 18.74204,18.14004 18.74204,16.72304 19.54679,16.72304 19.54679,15.405224 16.089769,15.405224 16.089769,16.286688 15.809768,16.286769 15.28977,16.286919 15.28977,15.150079 15.281648,14.752173 15.266567,14.013206 15.777,14.013206 15.777,12.969142 15.225965,12.969142 14.245703,12.969141 14.152078,13.136468 13.978205,13.447219 13.17537,13.447219 11.68439,13.447218 11.517061,13.27989 11.20631,12.969141 0,12.969141 0,11.669142 10.788685,11.669142 10.788685,6.773489 0,6.773489 0,5.47349 11.20631,5.47349 11.373637,5.306162 11.68439,4.995412 12.487224,4.995412 13.978205,4.995411 14.071829,5.162739 14.245702,5.47349 15.777,5.47349 15.777,4.429424 15.266567,4.429424 15.274687,4.031518 15.28977,3.292549 15.28977,2.15571 15.569769,2.155791 16.089769,2.155941 16.089769,3.037406 19.54679,3.037406 19.54679,1.719591 18.74204,1.719591 18.74204,0.30259 19.54679,0.30259 19.54679,0 35.315756,0" style="fill: white" />
    <polygon slic3r:type="hole" points="20.452528,4.229726 20.452528,7.894283 25.33786,10.579865 27.325947,11.672764 20.452528,11.672764 20.452528,14.406941 32.45253,14.406941 32.45253,11.530359 26.596121,8.333839 24.086234,6.963903 32.45253,6.963903 32.45253,4.229726" style="fill: black" />
  </g>
  <g id="layer11" slic3r:z="1.4e-06">
    <polygon slic3r:type="contour" points="35.315756,2.907921 33.935272,2.907921 33.935272,15.534708 35.315756,15.534708 35.315756,18.44263 19.54679,18.44263 19.54679,18.14004 18.74204,18.14004 18.74204,16.72304 19.54679,16.72304 19.54679,15.405224 16.089769,15.405224 16.089769,16.286688 15.849768,16.286757 15.28977,16.286919 15.28977,15.15008 15.282808,14.809017 15.266567,14.013206 15.777,14.013206 15.777,12.969142 15.30137,12.969142 14.245703,12.969141 14.165453,13.112564 13.978205,13.447219 13.29006,13.447219 11.68439,13.447218 11.540965,13.303794 11.20631,12.969141 0,12.969141 0,11.669142 10.788685,11.669142 10.788685,6.773489 0,6.773489 0,5.47349 11.20631,5.47349 11.349733,5.330066 11.68439,4.995412 12.372533,4.995412 13.978205,4.995411 14.058453,5.138834 14.245703,5.47349 15.777,5.47349 15.777,4.429424 15.266567,4.429424 15.273528,4.088361 15.28977,3.29255 15.28977,2.155711 15.529769,2.15578 16.089769,2.155941 16.089769,3.037406 19.54679,3.037406 19.54679,1.719591 18.74204,1.719591 18.74204,0.30259 19.54679,0.30259 19.54679,0 35.315756,0" style="fill: white" />
    <polygon slic3r:type="hole" points="20.452528,4.229726 20.452528,7.894283 24.576579,10.161371 27.325947,11.672764 20.452528,11.672764 20.452528,14.406941 32.45253,14.406941 32.45253,11.530359 27.432751,8.790485 24.086234,6.963903 32.45253,6.963903 32.45253,4.229726" style="fill: black" />
  </g>
  <g id="layer12" slic3r:z="1.5e-06">
    <polygon slic3r:type="contour" points="35.315756,2.907921 33.935272,2.907921 33.935272,15.534708 35.315756,15.534708 35.315756,18.44263 19.54679,18.44263 19.54679,18.14004 18.74204,18.14004 18.74204,16.72304 19.54679,16.72304 19.54679,15.405224 16.089769,15.405224 16.089769,16.286688 15.889769,16.286745 15.28977,16.286918 15.28977,15.15008 15.283968,14.865861 15.266567,14.013206 15.777,14.013206 15.777,12.969142 15.376774,12.969142 14.245703,12.969141 14.178827,13.08866 13.978204,13.447219 13.404751,13.447219 11.68439,13.447218 11.564869,13.327698 11.20631,12.969141 0,12.969141 0,11.669142 10.788685,11.669142 10.788685,6.773489 0,6.773489 0,5.47349 11.20631,5.47349 11.325829,5.35397 11.68439,4.995412 12.257843,4.995412 13.978205,4.995411 14.045079,5.11493 14.245703,5.47349 15.777,5.47349 15.777,4.429424 15.266567,4.429424 15.272368,4.145204 15.28977,3.29255 15.28977,2.155711 15.489769,2.155768 16.089769,2.155941 16.089769,3.037406 19.54679,3.037406 19.54679,1.719591 18.74204,1.719591 18.74204,0.30259 19.54679,0.30259 19.54679,0 35.315756,0" style="fill: white" />
    <polygon slic3r:type="hole" points="20.452528,4.229726 20.452528,7.894283 23.889237,9.783523 27.325947,11.672764 20.452528,11.672764 20.452528,14.406941 32.45253,14.406941 32.45253,11.530358 24.086234,6.963903 32.45253,6.963903 32.45253,4.229726" style="fill: black" />
  </g>
  <g id="layer13" slic3r:z="1.6e-06">
    <polygon slic3r:type="contour" points="35.315756,2.907921 33.935272,2.907921 33.935272,15.534708 35.315756,15.534708 35.315756,18.44263 19.54679,18.44263 19.54679,18.14004 18.74204,18.14004 18.74204,16.72304 19.54679,16.72304 19.54679,15.405224 16.089769,15.405224 16.089769,16.286688 15.929769,16.286733 15.28977,16.286919 15.28977,15.15008 15.285128,14.922704 15.266567,14.013206 15.777,14.013206 15.777,12.969142 15.452179,12.969142 14.245702,12.969141 14.192202,13.064757 13.978205,13.447219 13.519442,13.447219 11.68439,13.447218 11.588774,13.351603 11.20631,12.969141 0,12.969141 0,11.669142 10.788685,11.669142 10.788685,6.773489 0,6.773489 0,5.47349 11.20631,5.47349 11.301925,5.377874 11.68439,4.995412 12.143152,4.995412 13.978205,4.995411 14.031704,5.091026 14.245703,5.47349 15.777,5.47349 15.777,4.429424 15.266567,4.429424 15.27021,4.25093 15.28977,3.29255 15.28977,2.155711 15.449769,2.155757 16.089769,2.155941 16.089769,3.037406 19.54679,3.037406 19.54679,1.719591 18.74204,1.719591 18.74204,0.30259 19.54679,0.30259 19.54679,0 35.315756,0" style="fill: white" />
    <polygon slic3r:type="hole" points="20.452528,4.229726 20.452528,7.894282 23.201896,9.405675 27.325948,11.672764 20.452528,11.672764 20.452528,14.406941 32.45253,14.406941 32.45253,11.530359 29.106012,9.703777 24.086234,6.963903 32.45253,6.963903 32.45253,4.229726" style="fill: black" />
  </g>
  <g id="layer14" slic3r:z="1.7e-06">
    <polygon slic3r:type="contour" points="35.315756,2.907921 33.935272,2.907921 33.935272,15.534708 35.315756,15.534708 35.315756,18.44263 19.54679,18.44263 19.54679,18.14004 18.74204,18.14004 18.74204,16.72304 19.54679,16.72304 19.54679,15.405224 16.089769,15.405224 16.089769,16.286688 15.969769,16.286722 15.28977,16.286919 15.28977,15.150079 15.285292,14.930667 15.266567,14.013206 15.777,14.013206 15.777,12.969142 15.527584,12.969142 14.245703,12.969141 14.205578,13.040852 13.978205,13.447219 13.634133,13.447219 11.68439,13.447218 11.577393,13.340221 11.206309,12.969141 0,12.969141 0,11.669142 10.788685,11.669142 10.788685,6.773489 0,6.773489 0,5.47349 11.20631,5.47349 11.278021,5.401778 11.68439,4.995412 12.028461,4.995412 13.978205,4.995411 14.018329,5.067122 14.245703,5.47349 15.777,5.47349 15.777,4.429424 15.266567,4.429424 15.270046,4.258893 15.28977,3.292549 15.28977,2.155711 15.40977,2.155746 16.089769,2.155941 16.089769,3.037406 19.54679,3.037406 19.54679,1.719591 18.74204,1.719591 18.74204,0.30259 19.54679,0.30259 19.54679,0 35.315756,0" style="fill: white" />
    <polygon slic3r:type="hole" points="20.452528,4.229726 20.452528,7.894282 22.514554,9.027827 27.325948,11.672764 20.452528,11.672764 20.452528,14.406941 32.45253,14.406941 32.45253,11.530358 29.942639,10.160421 24.086234,6.963903 32.45253,6.963903 32.45253,4.229726" style="fill: black" />
  </g>
  <g id="layer15" slic3r:z="1.8e-06">
    <polygon slic3r:type="contour" points="35.315756,2.907921 33.935272,2.907921 33.935272,15.534708 35.315756,15.534708 35.315756,18.44263 19.54679,18.44263 19.54679,18.14004 18.74204,18.14004 18.74204,16.72304 19.54679,16.72304 19.54679,15.405224 16.089769,15.405224 16.089769,16.286688 16.009768,16.286711 15.28977,16.286919 15.28977,15.15008 15.287449,15.036392 15.266567,14.013206 15.777,14.013206 15.777,12.969142 15.602988,12.969142 14.245703,12.969141 14.218952,13.016949 13.978205,13.447219 13.748824,13.447219 11.68439,13.447218 11.636581,13.399409 11.20631,12.969141 0,12.969141 0,11.669142 10.788685,11.669142 10.788685,6.773489 0,6.773489 0,5.47349 11.20631,5.47349 11.254117,5.425682 11.68439,4.995412 11.913771,4.995412 13.978205,4.995411 14.004954,5.043218 14.245702,5.47349 15.777,5.47349 15.777,4.429424 15.266566,4.429424 15.268886,4.315736 15.28977,3.292549 15.28977,2.155711 15.369769,2.155734 16.089769,2.155941 16.089769,3.037406 19.54679,3.037406 19.54679,1.719591 18.74204,1.719591 18.74204,0.30259 19.54679,0.30259 19.54679,0 35.315756,0" style="fill: white" />
    <polygon slic3r:type="hole" points="20.452528,4.229726 20.452528,7.894282 21.827212,8.649979 27.325948,11.672764 20.452528,11.672764 20.452528,14.406941 32.45253,14.406941 32.45253,11.530359 30.779271,10.617067 24.086234,6.963903 32.45253,6.963903 32.45253,4.229726" style="fill: black" />
  </g>
  <g id="layer16" slic3r:z="1.9e-06">
    <polygon slic3r:type="contour" points="35.315756,2.907921 33.935272,2.907921 33.935272,15.534708 35.315756,15.534708 35.315756,18.44263 19.54679,18.44263 19.54679,18.14004 18.74204,18.14004 18.74204,16.72304 19.54679,16.72304 19.54679,15.405224 16.089769,15.405224 16.089769,16.286688 16.049769,16.286699 15.28977,16.286919 15.28977,15.150079 15.288609,15.093235 15.266567,14.013206 15.777,14.013206 15.777,12.969142 15.678393,12.969142 14.245702,12.969141 13.978205,13.447219 13.863514,13.447219 11.68439,13.447218 11.64587,13.408698 11.206309,12.969141 0,12.969141 0,11.669142 10.788685,11.669142 10.788685,6.773489 0,6.773489 0,5.47349 11.206309,5.47349 11.230213,5.449586 11.68439,4.995412 11.79908,4.995412 13.978205,4.995411 13.991579,5.019314 14.245703,5.47349 15.777,5.47349 15.777,4.429424 15.266567,4.429424 15.267726,4.37258 15.28977,3.29255 15.28977,2.155711 15.329769,2.155722 16.089769,2.155941 16.089769,3.037406 19.54679,3.037406 19.54679,1.719591 18.74204,1.719591 18.74204,0.30259 19.54679,0.30259 19.54679,0 35.315756,0" style="fill: white" />
    <polygon slic3r:type="hole" points="20.452528,4.229726 20.452528,7.894282 21.13987,8.272131 27.325948,11.672763 27.325948,11.672764 20.452528,11.672764 20.452528,14.406941 32.45253,14.406941 32.45253,11.530359 31.615899,11.073713 24.086234,6.963903 32.45253,6.963903 32.45253,4.229726" style="fill: black" />
  </g>
  <g id="layer17" slic3r:z="2e-06">
    <polygon slic3r:type="contour" points="35.315756,2.907921 33.935272,2.907921 33.935272,15.534708 35.315756,15.534708 35.315756,18.44263 19.54679,18.44263 19.54679,18.14004 18.74204,18.14004 18.74204,16.72304 19.54679,16.72304 19.54679,15.405224 16.089769,15.405224 16.089769,16.286688 15.28977,16.286919 15.28977,15.15008 15.266567,14.013206 15.777,14.013206 15.777,12.969142 14.245703,12.969141 13.978205,13.447219 11.68439,13.447218 11.20631,12.969141 0,12.969141 0,11.669142 10.788685,11.669142 10.788685,6.773489 0,6.773489 0,5.47349 11.206309,5.47349 11.68439,4.995412 13.978205,4.995411 14.245703,5.47349 15.777,5.47349 15.777,4.429424 15.266567,4.429424 15.28977,3.292549 15.28977,2.155711 16.089769,2.155941 16.089769,3.037406 19.54679,3.037406 19.54679,1.719591 18.74204,1.719591 18.74204,0.30259 19.54679,0.30259 19.54679,0 35.315756,0" style="fill: white" />
    <polygon slic3r:type="hole" points="20.452528,4.229726 20.452528,7.894283 27.325948,11.672764 20.452528,11.672764 20.452528,14.406941 32.45253,14.406941 32.45253,11.530358 24.086234,6.963903 32.45253,6.963903 32.45253,4.229726" style="fill: black" />
  </g>
</svg>
