G75*
%MOIN*%
%OFA0B0*%
%FSLAX24Y24*%
%IPPOS*%
%LPD*%
%AMOC8*
5,1,8,0,0,1.08239X$1,22.5*
%
%ADD10R,0.0276X0.0472*%
%ADD11R,0.0315X0.0472*%
%ADD12R,0.0472X0.0315*%
%ADD13R,0.0591X0.0591*%
%ADD14R,0.0551X0.0394*%
%ADD15R,0.0800X0.0260*%
%ADD16R,0.0472X0.1260*%
%ADD17R,0.1260X0.0472*%
%ADD18R,0.0120X0.0390*%
%ADD19R,0.2540X0.1280*%
%ADD20R,0.0591X0.0512*%
%ADD21R,0.0098X0.0295*%
%ADD22R,0.0295X0.0098*%
D10*
X036594Y004417D03*
X037145Y004417D03*
X037145Y005598D03*
X036594Y005598D03*
D11*
X004055Y003826D03*
X004763Y003826D03*
X005893Y004244D03*
X006602Y004244D03*
X007677Y003826D03*
X008385Y003826D03*
X009488Y016031D03*
X010197Y016031D03*
X006850Y017921D03*
X006141Y017921D03*
X032008Y009417D03*
X032716Y009417D03*
X032716Y010047D03*
X033425Y010047D03*
X033661Y008118D03*
X034370Y008118D03*
X034657Y005866D03*
X035366Y005866D03*
X035382Y005055D03*
X034673Y005055D03*
X038700Y013708D03*
X039409Y013708D03*
X039448Y014614D03*
X038740Y014614D03*
X035236Y014535D03*
X034527Y014535D03*
D12*
X036767Y016169D03*
X036767Y016878D03*
X038480Y005657D03*
X038480Y004948D03*
X006311Y005484D03*
X006311Y006193D03*
D13*
X007342Y004732D03*
X008720Y004732D03*
X005137Y004771D03*
X003760Y004771D03*
X011889Y007153D03*
X011889Y008531D03*
X029212Y008334D03*
X029212Y006956D03*
D14*
X039370Y015381D03*
X038504Y015756D03*
X039370Y016130D03*
D15*
X006170Y014710D03*
X006170Y014210D03*
X006170Y013710D03*
X006170Y013210D03*
X006170Y012710D03*
X006170Y012210D03*
X006170Y011710D03*
X006170Y011210D03*
X003750Y011210D03*
X003750Y011710D03*
X003750Y012210D03*
X003750Y012710D03*
X003750Y013210D03*
X003750Y013710D03*
X003750Y014210D03*
X003750Y014710D03*
D16*
X003700Y008669D03*
X005275Y008669D03*
X007283Y008630D03*
X008858Y008630D03*
X008858Y005952D03*
X007283Y005952D03*
X005275Y005992D03*
X003700Y005992D03*
D17*
X032165Y015283D03*
X034842Y015283D03*
X034842Y016858D03*
X032165Y016858D03*
X035551Y008118D03*
X038228Y008118D03*
X038228Y006543D03*
X035551Y006543D03*
D18*
X032785Y011457D03*
X032529Y011457D03*
X032273Y011457D03*
X032017Y011457D03*
X031761Y011457D03*
X031506Y011457D03*
X031250Y011457D03*
X030994Y011457D03*
X030738Y011457D03*
X030482Y011457D03*
X030226Y011457D03*
X029970Y011457D03*
X029970Y013755D03*
X030226Y013755D03*
X030482Y013755D03*
X030738Y013755D03*
X030994Y013755D03*
X031250Y013755D03*
X031506Y013755D03*
X031761Y013755D03*
X032017Y013755D03*
X032273Y013755D03*
X032529Y013755D03*
X032785Y013755D03*
X011053Y014070D03*
X010797Y014070D03*
X010541Y014070D03*
X010285Y014070D03*
X010029Y014070D03*
X009773Y014070D03*
X009517Y014070D03*
X009261Y014070D03*
X009006Y014070D03*
X008750Y014070D03*
X008494Y014070D03*
X008238Y014070D03*
X008238Y011772D03*
X008494Y011772D03*
X008750Y011772D03*
X009006Y011772D03*
X009261Y011772D03*
X009517Y011772D03*
X009773Y011772D03*
X010029Y011772D03*
X010285Y011772D03*
X010541Y011772D03*
X010797Y011772D03*
X011053Y011772D03*
D19*
X009645Y012921D03*
X031378Y012606D03*
D20*
X034842Y012586D03*
X034842Y013256D03*
X007677Y013334D03*
X007677Y014004D03*
D21*
X032578Y005322D03*
X032775Y005322D03*
X032972Y005322D03*
X033169Y005322D03*
X033169Y004614D03*
X032972Y004614D03*
X032775Y004614D03*
X032578Y004614D03*
D22*
X032519Y004968D03*
X033228Y004968D03*
M02*
