<svg width="13.600213" height="8.910821">
<polygon type="contour" points="4.373501,0.879533 4.431357,0.881086 4.460236,0.892951 4.488278,0.907569 4.500135,0.922028 4.54069,1.032377 4.544777,1.075638 4.573463,1.109089 4.607377,1.147035 4.659737,1.182151 4.698926,1.181917 4.734074,1.195113 4.754243,1.153027 4.770451,1.116281 4.769932,1.084176 4.769909,1.083712 4.769929,1.083089 4.771254,1.078894 4.787637,1.037209 4.790131,1.025601 4.795471,1.006466 4.799147,0.999558 4.801115,0.996044 4.81451,0.981522 4.820713,0.964374 4.844235,0.952657 4.85132,0.942562 4.860647,0.940096 4.868342,0.940875 4.885533,0.936556 4.888201,0.937928 4.952806,0.979931 5.006865,1.00898 5.044161,1.01813 5.105624,1.021361 5.124502,1.022131 5.132018,1.024646 5.152269,1.028065 5.19345,1.056439 5.223569,1.070639 5.245986,1.085793 5.282242,1.088324 5.557459,1.085526 5.6609,1.078602 5.677983,1.089517 5.850797,1.107978 5.916569,1.113518 5.958184,1.117391 6.020451,1.119361 6.039194,1.116795 6.051647,1.120079 6.100517,1.119763 6.151216,1.139273 6.188861,1.136928 6.203269,1.144946 6.210274,1.143587 6.286133,1.168004 6.318465,1.177105 6.450476,1.196424 6.680964,1.267134 6.71061,1.276452 6.745149,1.298702 6.785309,1.332039 6.805262,1.337902 6.867699,1.371417 6.912288,1.40245 6.946919,1.421732 6.961555,1.433595 7.056786,1.538392 7.100238,1.582912 7.103229,1.595259 7.106938,1.601976 7.113066,1.618157 7.144766,1.654337 7.162461,1.696827 7.169249,1.763283 7.216014,1.865528 7.225654,1.901571 7.259387,1.939232 7.261178,1.942135 7.285772,1.9894 7.293295,2.00377 7.298601,2.016006 7.315587,2.035551 7.316607,2.037196 7.416832,2.207243 7.434031,2.234647 7.451208,2.245807 7.561234,2.378122 7.61626,2.427418 7.627726,2.439619 7.634763,2.442256 7.635435,2.442681 7.639533,2.446731 7.679243,2.471691 7.873347,2.59905 7.883829,2.617535 7.89547,2.625559 7.904951,2.639902 7.915268,2.66724 8.002221,2.670816 8.050252,2.6862 8.072391,2.695948 8.084143,2.702873 8.10656,2.717185 8.124363,2.739897 8.149079,2.768808 8.16931,2.778297 8.177899,2.781644 8.188897,2.789271 8.196474,2.798239 8.217038,2.804031 8.251351,2.826529 8.295864,2.844131 8.338289,2.865005 8.353067,2.881161 8.411094,2.943688 8.420385,2.950871 8.42885,2.963297 8.443538,2.972422 8.461607,3.023123 8.46844,3.040099 8.479217,3.074331 8.485007,3.081758 8.490014,3.098691 8.510311,3.109371 8.522885,3.122792 8.560096,3.137093 8.560271,3.137235 8.560946,3.13753 8.562148,3.138936 8.602065,3.187112 8.635154,3.210932 8.670017,3.262744 8.684249,3.288447 8.699032,3.296086 8.702215,3.300325 8.719638,3.308943 8.759567,3.339176 8.810671,3.369721 8.826842,3.394504 8.852978,3.424326 8.863246,3.447313 8.86792,3.467355 8.893561,3.481911 8.900897,3.48583 8.924086,3.512199 8.929197,3.522546 8.97108,3.577443 9.016808,3.652559 9.033946,3.672762 9.067536,3.738178 9.078172,3.769876 9.10459,3.803217 9.133146,3.902362 9.161777,3.976009 9.163665,4.014471 9.178254,4.046737 9.177234,4.06964 9.182459,4.120157 9.197426,4.227982 9.23315,4.412366 9.235699,4.468058 9.199522,4.65535 9.201933,4.722757 9.188522,4.793644 9.167752,4.853291 9.16825,4.872426 9.161426,4.929061 9.151995,4.979759 9.109531,5.079211 9.088182,5.122474 9.079189,5.139115 9.069749,5.15643 9.019842,5.257924 8.965276,5.332281 8.952085,5.34944 8.940831,5.38073 8.903651,5.418058 8.900829,5.425964 8.892573,5.430021 8.864638,5.44898 8.854308,5.48609 8.822322,5.52258 8.814258,5.537462 8.782807,5.571859 8.746284,5.596964 8.713901,5.607266 8.701866,5.620482 8.677049,5.634408 8.661909,5.659556 8.638359,5.69424 8.611844,5.714965 8.561285,5.769365 8.549761,5.775586 8.532408,5.784895 8.477003,5.847757 8.449349,5.926483 8.442055,5.937826 8.437537,5.940332 8.423908,5.952442 8.414972,5.966287 8.411526,5.967353 8.383704,6.006475 8.371088,6.020884 8.304757,6.058291 8.23919,6.093638 8.222786,6.099015 8.207657,6.104483 8.19823,6.111461 8.184719,6.121618 8.177372,6.130217 8.139335,6.150871 8.112295,6.188617 8.101137,6.197535 8.096026,6.202836 8.081609,6.208663 8.004129,6.234976 7.973546,6.240271 7.919583,6.236501 7.904362,6.274407 7.887429,6.299662 7.836581,6.329959 7.83629,6.333019 7.818426,6.342517 7.799462,6.354341 7.649048,6.447591 7.574017,6.521026 7.467234,6.638427 7.452648,6.662536 7.424009,6.697529 7.375172,6.769674 7.330556,6.856193 7.32931,6.859283 7.312163,6.877769 7.300903,6.893252 7.295295,6.912445 7.291687,6.915917 7.272908,6.939729 7.221728,7.020758 7.220758,7.03059 7.173487,7.143936 7.164038,7.196415 7.139361,7.261369 7.125673,7.277026 7.112693,7.287684 7.098567,7.324884 7.097427,7.33291 6.991725,7.433805 6.916762,7.488571 6.876562,7.536485 6.839992,7.564548 6.747834,7.603591 6.584874,7.676067 6.492263,7.706753 6.469075,7.71821 6.353944,7.731867 6.286222,7.755112 6.238189,7.76367 6.155032,7.772898 6.097435,7.792298 6.025885,7.795647 5.848212,7.814005 5.738836,7.813239 5.719257,7.81489 5.660071,7.809824 5.646599,7.809868 5.645124,7.81023 5.641612,7.809602 5.301913,7.829004 5.273017,7.82586 5.239301,7.826773 5.223761,7.840193 5.193582,7.856081 5.162978,7.877954 5.138215,7.89221 5.11601,7.889833 5.040149,7.89428 5.02051,7.897844 5.001511,7.903206 4.964476,7.928332 4.91667,7.953571 4.8866,7.974725 4.885938,7.974942 4.870645,7.969607 4.860641,7.971525 4.856111,7.959042 4.834389,7.955928 4.825552,7.95074 4.823872,7.946173 4.818607,7.93987 4.810559,7.92166 4.803864,7.919715 4.796702,7.906803 4.790637,7.884751 4.774796,7.821356 4.770307,7.800986 4.770161,7.794505 4.755254,7.748335 4.730369,7.708209 4.678266,7.720899 4.625087,7.753221 4.605936,7.766299 4.585961,7.797714 4.543418,7.856417 4.540688,7.899467 4.534924,7.935484 4.534486,7.940549 4.529174,7.945554 4.480671,8.010656 4.463468,8.01465 4.383537,8.037165 4.318634,8.037986 4.304386,8.038441 4.262342,8.036677 4.220787,8.023382 4.21091,8.017363 4.195593,8.018453 4.166781,8.013234 4.153863,8.015957 4.126,8.007037 4.046817,7.979681 4.033769,7.963026 4.015603,7.946014 3.904284,7.872676 3.809864,7.8181 3.792193,7.80339 3.739832,7.769287 3.67553,7.711535 3.62613,7.629792 3.58394,7.583595 3.565083,7.574944 3.554055,7.567681 3.545803,7.562111 3.525216,7.54201 3.517902,7.535727 3.512408,7.523805 3.499144,7.511947 3.490883,7.484578 3.484775,7.464956 3.462502,7.443477 3.385986,7.373271 3.346273,7.333341 3.270278,7.295065 3.230731,7.263669 3.204227,7.240704 3.191882,7.239218 3.155439,7.229172 3.13071,7.21994 3.102811,7.22251 3.078401,7.215906 3.021142,7.213564 2.960713,7.190911 2.87819,7.193723 2.813439,7.187075 2.77408,7.177606 2.749597,7.176515 2.701883,7.165752 2.599332,7.164649 2.590899,7.17036 2.560683,7.16591 2.48925,7.158708 2.463722,7.177396 2.460625,7.183222 2.455176,7.186307 2.374782,7.18391 2.335389,7.178112 2.311622,7.17096 2.292725,7.150925 2.270353,7.141969 2.169926,7.122836 2.145687,7.115982 2.11268,7.116728 2.091212,7.118058 2.060769,7.118625 2.035898,7.123858 2.003378,7.156664 2.002882,7.156995 2.000843,7.157683 1.923596,7.183115 1.905604,7.188859 1.875247,7.170775 1.854291,7.1753 1.842353,7.170902 1.824176,7.173735 1.801244,7.176579 1.764414,7.19572 1.735381,7.200218 1.671486,7.207037 1.658292,7.218258 1.643744,7.229158 1.604305,7.255051 1.549298,7.2681 1.50874,7.297192 1.489909,7.342383 1.473479,7.373698 1.441695,7.394036 1.374104,7.463779 1.363421,7.469421 1.353962,7.473929 1.3302,7.480042 1.188457,7.538132 1.149986,7.537138 1.009625,7.57093 0.939696,7.590281 0.926579,7.596777 0.910593,7.60126 0.800203,7.611611 0.776512,7.623378 0.747821,7.639506 0.732956,7.643928 0.600028,7.663722 0.590906,7.665635 0.540622,7.663082 0.523986,7.667631 0.478481,7.685265 0.476653,7.686324 0.456876,7.691072 0.441856,7.69048 0.426717,7.688436 0.409442,7.68689 0.352848,7.650701 0.338641,7.642281 0.310808,7.61131 0.304032,7.602376 0.3033,7.60124 0.302609,7.599722 0.272264,7.526187 0.267895,7.52123 0.239878,7.466104 0.222485,7.412413 0.212981,7.398192 0.211192,7.379075 0.192329,7.27231 0.184698,7.127232 0.18483,7.105513 0.214764,6.962963 0.211487,6.905056 0.217561,6.844681 0.252564,6.64786 0.256708,6.565363 0.255689,6.533454 0.251077,6.441319 0.254247,6.238806 0.259919,6.143822 0.271852,6.026372 0.280842,5.969402 0.283144,5.946932 0.317689,5.798099 0.348452,5.614134 0.379791,5.539408 0.385209,5.518879 0.383707,5.497949 0.396063,5.37336 0.41114,5.306157 0.409496,5.266634 0.418295,5.145236 0.391975,5.099987 0.375038,5.074762 0.373351,5.070112 0.347735,5.038774 0.343836,5.025816 0.336103,4.993924 0.332371,4.970123 0.341796,4.84331 0.342169,4.821217 0.343838,4.804818 0.347851,4.764762 0.370916,4.691998 0.37504,4.665908 0.37765,4.660153 0.382923,4.644527 0.40279,4.605506 0.437408,4.563622 0.428081,4.54767 0.433475,4.523613 0.433012,4.512825 0.435301,4.494077 0.435442,4.451933 0.425115,4.394864 0.431978,4.380207 0.430152,4.345264 0.422886,4.335086 0.409575,4.312246 0.404994,4.304533 0.401134,4.299114 0.383181,4.271568 0.376041,4.248422 0.370573,4.217406 0.347786,4.154752 0.339238,4.06911 0.33587,4.047989 0.331742,4.001519 0.339252,3.972101 0.35472,3.859398 0.367511,3.851282 0.402283,3.796453 0.421658,3.765187 0.411639,3.703201 0.408513,3.646486 0.409283,3.639882 0.399616,3.565556 0.38793,3.474856 0.39081,3.458708 0.391881,3.436494 0.355623,3.309688 0.337995,3.26505 0.334954,3.239476 0.305497,3.10878 0.295886,3.025182 0.271167,2.898192 0.27146,2.84044 0.260223,2.704994 0.264612,2.48788 0.261832,2.40731 0.261377,2.380557 0.243769,2.280506 0.21912,2.07613 0.215482,2.052582 0.212928,1.998702 0.185589,1.852784 0.182947,1.716827 0.190638,1.645006 0.268748,1.392316 0.273971,1.380496 0.275561,1.374481 0.293557,1.32623 0.29917,1.315274 0.303097,1.310298 0.310615,1.301579 0.32655,1.28507 0.342667,1.277304 0.377294,1.241803 0.389946,1.235455 0.42186,1.225732 0.445258,1.21951 0.472071,1.223748 0.474524,1.224017 0.482773,1.228723 0.533536,1.245418 0.542726,1.247487 0.58827,1.245438 0.589972,1.246727 0.606674,1.249312 0.719538,1.268721 0.769947,1.283714 0.794839,1.297224 0.832194,1.298049 0.853338,1.304955 0.926441,1.313781 0.935785,1.317306 0.940092,1.319343 0.952822,1.32832 1.016457,1.340093 1.040113,1.350129 1.18232,1.377767 1.25218,1.382095 1.253581,1.382466 1.254243,1.382881 1.257784,1.384837 1.353432,1.436244 1.361055,1.440103 1.36873,1.444477 1.374725,1.447517 1.410976,1.476574 1.490615,1.570386 1.508567,1.614824 1.680816,1.704165 1.760283,1.713843 1.788172,1.724409 1.791559,1.732278 1.843438,1.740777 1.859144,1.743875 1.871247,1.740385 1.882844,1.742883 1.898711,1.731539 1.91017,1.726686 1.926051,1.730493 1.943679,1.734661 1.997771,1.75342 2.013042,1.764888 2.023567,1.774131 2.027757,1.775743 2.036887,1.787358 2.06019,1.793253 2.100949,1.796162 2.145573,1.79702 2.169637,1.787439 2.180882,1.786753 2.297255,1.75976 2.307883,1.748102 2.342067,1.739683 2.449442,1.723252 2.461446,1.729041 2.466243,1.732955 2.48418,1.757461 2.532468,1.75191 2.548885,1.749538 2.571706,1.749186 2.707217,1.745682 2.72935,1.736822 2.788605,1.736514 2.868473,1.715353 2.92993,1.714507 3.000791,1.712143 3.00557,1.71151 3.103573,1.690919 3.104631,1.690489 3.148568,1.686948 3.163912,1.683569 3.210508,1.666318 3.230015,1.648605 3.245961,1.638119 3.273729,1.622212 3.308195,1.609172 3.317653,1.59888 3.32808,1.590608 3.368731,1.557971 3.438517,1.494475 3.448237,1.47976 3.454281,1.474098 3.467695,1.464325 3.485565,1.44552 3.498182,1.40111 3.513137,1.386214 3.517114,1.37758 3.528619,1.368101 3.534368,1.362623 3.555069,1.34516 3.572703,1.329231 3.591052,1.319695 3.618899,1.292475 3.633226,1.276594 3.647344,1.255375 3.684834,1.221992 3.698239,1.199934 3.713835,1.183499 3.72836,1.168393 3.75889,1.145083 3.833264,1.076401 3.852141,1.061175 3.861836,1.054132 3.882699,1.04006 4.025468,0.956894 4.054595,0.929032 4.066885,0.920068 4.11439,0.900136 4.126677,0.896794 4.138682,0.89486 4.14868,0.894343 4.166726,0.898228 4.193402,0.899307 4.213918,0.887636 4.235597,0.883382 4.266374,0.874718 4.303023,0.874375 4.34696,0.870339" style="fill: white" /><polygon type="hole" points="4.664894,2.313119 4.50263,2.376266 4.461775,2.390309 4.360956,2.398672 4.250914,2.423474 4.181862,2.435487 4.001811,2.437444 3.909259,2.458174 3.874893,2.47072 3.761269,2.542297 3.745115,2.55359 3.666736,2.594055 3.536469,2.733269 3.348688,2.994708 3.342149,3.003248 3.339369,3.007069 3.337494,3.009748 3.197176,3.162182 3.139913,3.220968 3.107264,3.276505 3.055426,3.380168 3.013029,3.446106 2.997451,3.480447 2.945332,3.654862 2.93015,3.747647 2.906475,3.839499 2.89599,3.896899 2.896222,3.910629 2.894084,3.919293 2.891399,3.927369 2.887457,4.005354 2.919818,4.060424 2.915427,4.091724 2.884864,4.131291 2.843532,4.181747 2.841871,4.20643 2.863314,4.329845 2.887656,4.364996 2.859913,4.457454 2.833928,4.620321 2.846288,4.662368 2.868746,4.678951 2.917183,4.765714 2.919971,4.770709 2.92041,4.771934 2.919219,4.777736 2.920376,4.800877 2.88842,4.848238 2.885449,4.860784 2.879493,4.884552 2.89699,5.016789 2.901108,5.026505 2.900003,5.034653 2.906793,5.0694 2.942801,5.247343 2.99738,5.430783 3.012696,5.465135 3.062436,5.544456 3.107828,5.635467 3.145711,5.693762 3.161117,5.711021 3.309163,5.86504 3.313819,5.874337 3.333289,5.900978 3.375284,5.955374 3.525621,6.164243 3.663928,6.314728 3.743498,6.356849 3.749174,6.359643 3.757953,6.366242 3.764772,6.371336 3.918547,6.45543 3.997552,6.474348 4.314789,6.493351 4.385612,6.503386 4.410892,6.514238 4.525428,6.536118 4.584069,6.569042 4.652004,6.595549 4.674643,6.608724 4.700759,6.618062 4.710683,6.620561 4.764268,6.623954 4.942664,6.615559 4.957384,6.615108 4.968681,6.612995 5.011232,6.599221 5.189364,6.537831 5.221453,6.529558 5.272916,6.514233 5.340275,6.489468 5.39866,6.463382 5.524344,6.401252 5.589231,6.363846 5.822028,6.264114 5.82885,6.260655 5.982698,6.163686 6.053422,6.107651 6.193996,6.030558 6.360279,5.930688 6.372872,5.923104 6.500486,5.779934 6.515795,5.747147 6.586474,5.636106 6.67382,5.520113 6.715889,5.379739 6.720104,5.368019 6.857393,5.180676 6.941023,5.044451 7.01174,4.904256 7.11413,4.713452 7.135608,4.659407 7.171696,4.493564 7.164955,4.411196 7.152926,4.330554 7.126133,4.221721 7.090262,4.134196 6.995347,3.962669 6.915823,3.813513 6.771696,3.600897 6.722254,3.547176 6.72073,3.54493 6.719731,3.543316 6.716806,3.535175 6.695627,3.46123 6.67472,3.402654 6.607585,3.313076 6.490064,3.131921 6.458525,3.063749 6.37888,2.994604 6.371175,2.988037 6.366597,2.985201 6.363167,2.983357 6.106279,2.822841 6.013523,2.770322 5.890221,2.706556 5.827185,2.652782 5.819754,2.649043 5.817053,2.646459 5.803639,2.639621 5.596508,2.543014 5.557993,2.530509 5.515121,2.516253 5.478576,2.490506 5.330979,2.429337 5.182875,2.373315 4.967181,2.298322 4.958451,2.296209 4.944443,2.295861 4.750513,2.286913" style="fill: black" /><polygon type="contour" points="6.148117,3.148229 6.15844,3.147576 6.165336,3.15053 6.186975,3.161857 6.212213,3.175956 6.225284,3.187751 6.237404,3.201234 6.243844,3.209337 6.257548,3.243746 6.262697,3.264684 6.256586,3.380388 6.252641,3.419729 6.249776,3.427969 6.234321,3.524566 6.217182,3.616943 6.21862,3.627009 6.218977,3.65511 6.219909,3.828341 6.264509,3.987069 6.270169,4.01686 6.295695,4.084989 6.30799,4.132564 6.323272,4.171413 6.337474,4.216776 6.359019,4.305059 6.364042,4.331765 6.368533,4.347445 6.377784,4.443615 6.378839,4.459963 6.36728,4.542943 6.361501,4.566518 6.340987,4.621534 6.332615,4.689919 6.320605,4.724251 6.283456,4.846929 6.282786,4.848409 6.236146,5.022252 6.225255,5.090024 6.213028,5.178347 6.214127,5.227839 6.209742,5.29146 6.221587,5.356304 6.227191,5.397544 6.236712,5.433111 6.250767,5.49233 6.256042,5.538711 6.259025,5.601183 6.265955,5.622535 6.262963,5.638048 6.253321,5.677538 6.205244,5.744839 6.204978,5.745176 6.204659,5.745414 6.158501,5.760221 6.153765,5.760533 6.129826,5.762076 6.123014,5.764481 6.102884,5.766114 6.090834,5.759744 6.071928,5.755053 6.067466,5.755802 6.062555,5.75389 6.035317,5.743021 6.028355,5.74382 5.931866,5.705323 5.932433,5.706935 5.898485,5.693424 5.826634,5.636312 5.824562,5.63241 5.784804,5.605145 5.722131,5.556142 5.66948,5.507303 5.623455,5.454796 5.579098,5.397064 5.552396,5.343152 5.525054,5.298434 5.507431,5.268613 5.463292,5.168735 5.448887,5.132596 5.436818,5.110245 5.435824,5.102657 5.427298,5.002079 5.431644,4.931931 5.437117,4.891537 5.441355,4.869239 5.47154,4.778596 5.509066,4.694904 5.526748,4.638539 5.568873,4.530087 5.555887,4.440983 5.554492,4.427067 5.559865,4.364714 5.559813,4.344408 5.482809,4.14369 5.462542,4.040903 5.441823,3.953684 5.438785,3.938889 5.442852,3.816909 5.442919,3.813757 5.443498,3.811163 5.48728,3.675043 5.50093,3.63921 5.528855,3.591327 5.5816,3.509858 5.62176,3.460485 5.656829,3.425091 5.675227,3.408363 5.743601,3.336223 5.76664,3.312407 5.812779,3.279669 5.856515,3.249034 5.893063,3.227768 5.894179,3.227353 5.954062,3.190825 6.003483,3.179691 6.015976,3.177359 6.063835,3.153924 6.10955,3.145294 6.117968,3.144607" style="fill: white" />
</svg>
