<svg width="13.600213" height="8.910821">
<polygon type="contour" points="3.554972,3.19895 3.557224,3.201136 3.565896,3.218972 3.650605,3.356751 3.702553,3.461076 3.746342,3.462889 3.932417,3.470592 4.027533,3.485784 4.077702,3.500263 4.083121,3.504397 4.082779,3.536634 4.052408,3.582863 4.011136,3.617213 3.955908,3.638757 3.885662,3.663567 3.802607,3.67275 3.724537,3.673178 3.680846,3.674002 3.60411,3.675453 3.459217,3.76109 3.420911,3.781656 3.413193,3.785799 3.405441,3.789007 3.383141,3.805429 3.31859,3.862641 3.265645,3.998296 3.222741,4.121899 3.217308,4.135325 3.197448,4.202817 3.171811,4.27412 3.173658,4.401403 3.172716,4.418231 3.173275,4.431073 3.173807,4.45033 3.169253,4.561681 3.167408,4.57795 3.185536,4.665251 3.19748,4.718058 3.221299,4.804473 3.228965,4.821262 3.239844,4.842328 3.249786,4.876137 3.274423,4.95221 3.346578,5.059018 3.36024,5.093092 3.387857,5.113443 3.453583,5.147624 3.456551,5.149168 3.592809,5.229693 3.766592,5.241742 3.856031,5.247942 3.860104,5.248225 3.873137,5.25005 3.936022,5.258849 3.963677,5.268899 3.993657,5.288533 4.06112,5.331475 4.070743,5.342678 4.082152,5.405721 4.056719,5.407542 3.687511,5.457732 3.683244,5.500752 3.646574,5.581518 3.570269,5.69025 3.558135,5.709567 3.556382,5.711643 3.488821,5.748626 3.473809,5.743595 3.462115,5.740113 3.282713,5.71425 3.210402,5.661731 3.13018,5.634762 3.114163,5.627369 3.076722,5.612083 3.074238,5.60976 3.046348,5.600811 2.971278,5.576947 2.962933,5.574177 2.92228,5.565781 2.871054,5.559626 2.806178,5.537021 2.653673,5.471362 2.572035,5.471101 2.570507,5.471006 2.545165,5.455756 2.542726,5.45416 2.540029,5.450813 2.511869,5.434961 2.446902,5.432864 2.37621,5.43168 2.361784,5.43011 2.359014,5.4293 2.329491,5.420327 2.23289,5.405927 2.20464,5.397728 2.193263,5.394882 2.186668,5.393437 2.155419,5.381424 2.142593,5.372064 1.993863,5.251077 1.961416,5.225874 1.942417,5.211277 1.911404,5.167923 1.862583,5.119478 1.853194,5.093282 1.840453,5.075191 1.832599,5.056256 1.831756,5.041067 1.808578,4.974005 1.795269,4.943724 1.778151,4.918586 1.569859,4.853162 1.550303,4.847276 1.541729,4.845841 1.519944,4.836853 1.514519,4.836976 1.481947,4.817281 1.481855,4.817242 1.481707,4.817124 1.456748,4.800252 1.445292,4.796921 1.425174,4.791805 1.410882,4.775406 1.375342,4.766146 1.373328,4.765776 1.372123,4.764806 1.357861,4.751447 1.310158,4.702175 1.30685,4.698068 1.301931,4.683426 1.280551,4.619257 1.269329,4.53524 1.256424,4.400256 1.280055,4.323437 1.293074,4.255034 1.306139,4.215878 1.309817,4.209412 1.312294,4.207534 1.316526,4.203509 1.36051,4.158628 1.374778,4.145395 1.375726,4.144636 1.378068,4.143659 1.418028,4.131264 1.426988,4.119047 1.445688,4.113601 1.475872,4.098188 1.511792,4.075304 1.551058,4.063841 1.644956,4.023201 1.669278,4.017001 1.719496,4.009343 1.74505,4.00208 1.777337,3.994067 1.796006,3.965553 1.81038,3.934951 1.809921,3.921839 1.81072,3.914946 1.845347,3.848974 1.858261,3.806258 1.902397,3.749563 1.965751,3.683868 2.044343,3.611512 2.089461,3.569897 2.126969,3.543393 2.180139,3.522202 2.22645,3.506886 2.24255,3.503051 2.335763,3.490783 2.365529,3.482909 2.38381,3.478022 2.437582,3.482535 2.460239,3.483432 2.487103,3.476524 2.503611,3.473497 2.567325,3.443598 2.610383,3.438526 2.653304,3.448288 2.830396,3.363721 2.872132,3.351139 2.887425,3.349454 3.017109,3.318073 3.053038,3.30882 3.067008,3.306822 3.088938,3.301855 3.155959,3.258417 3.188003,3.258578 3.25633,3.217132 3.379796,3.195179 3.395494,3.190552 3.402198,3.190157 3.443817,3.178246 3.487736,3.162892" style="fill: white" />
</svg>
