<svg width="13.600213" height="8.910821">
<polygon type="contour" points="3.396086,3.323289 3.502067,3.364688 3.519778,3.377037 3.527505,3.395794 3.559186,3.435343 3.567327,3.466776 3.572117,3.5149 3.574606,3.539903 3.576078,3.55468 3.577402,3.567976 3.582085,3.615014 3.59816,3.669883 3.6644,3.656552 3.846928,3.660255 3.946617,3.675397 3.947008,3.67555 3.946516,3.676933 3.891718,3.770889 3.993309,3.781932 3.992409,3.809204 3.939045,3.862741 3.919132,3.864835 3.633847,3.909885 3.517906,3.921285 3.495537,3.924463 3.478043,3.913765 3.421231,3.85442 3.34754,3.918534 3.333271,3.939004 3.32039,3.962199 3.31043,3.976326 3.297503,4.017761 3.29228,4.048271 3.289456,4.068208 3.237257,4.219874 3.208355,4.264454 3.200035,4.293459 3.198824,4.317905 3.196477,4.323594 3.190482,4.346616 3.184529,4.371304 3.174618,4.392498 3.168745,4.414762 3.168936,4.423132 3.165273,4.438359 3.164566,4.453858 3.164853,4.469743 3.168004,4.481378 3.167978,4.489211 3.175379,4.518801 3.179142,4.525523 3.184477,4.535961 3.193195,4.565552 3.195026,4.59042 3.202695,4.619931 3.204003,4.635127 3.215574,4.649469 3.235302,4.680615 3.241166,4.703267 3.250059,4.723856 3.26439,4.797481 3.269799,4.809788 3.269762,4.824155 3.289616,4.882683 3.302775,4.904514 3.312769,4.937344 3.355151,5.008567 3.377294,5.020406 3.413543,5.071196 3.475512,4.998185 3.492014,4.987835 3.515577,4.990584 3.629317,5.00242 3.9139,5.038392 3.92528,5.040323 3.958382,5.073029 3.990718,5.128891 3.886675,5.139226 3.946761,5.229703 3.94827,5.233528 3.938759,5.234242 3.668157,5.254583 3.665267,5.254801 3.608891,5.2435 3.569965,5.4362 3.538415,5.495713 3.481034,5.553945 3.465883,5.560684 3.389859,5.589842 3.389817,5.58983 3.354129,5.573503 3.319317,5.569543 3.288784,5.550037 3.28207,5.531879 3.261267,5.49747 3.241463,5.499532 3.223711,5.490028 3.184526,5.50635 3.165922,5.509345 3.118269,5.513252 3.057253,5.505581 2.996022,5.495286 2.899848,5.435186 2.896275,5.428736 2.840338,5.408497 2.805916,5.409942 2.767962,5.416776 2.71789,5.43162 2.671593,5.44081 2.585077,5.431898 2.561233,5.434044 2.549081,5.433254 2.52784,5.429407 2.514671,5.431302 2.501719,5.435776 2.489185,5.439152 2.454715,5.455036 2.411345,5.454 2.39497,5.451496 2.342745,5.43291 2.281489,5.390617 2.234377,5.360143 2.228652,5.347491 2.21356,5.338401 2.126267,5.233971 2.123015,5.228516 2.119669,5.224662 2.109457,5.202623 2.071964,5.134268 2.047171,5.102434 2.022365,5.091293 2.021521,5.091376 1.993852,5.07697 1.940978,4.992321 1.935046,4.982834 1.910392,4.957073 1.879818,4.923485 1.859072,4.926444 1.847187,4.923936 1.812138,4.931775 1.711671,4.902073 1.698662,4.898303 1.689373,4.893596 1.650537,4.878801 1.639267,4.865726 1.626619,4.860214 1.596257,4.81894 1.550819,4.769814 1.541862,4.759056 1.53763,4.755629 1.5181,4.730067 1.512663,4.729161 1.496989,4.711831 1.469293,4.694454 1.449002,4.682571 1.447475,4.681019 1.418181,4.639133 1.416205,4.634522 1.401827,4.56142 1.396739,4.524001 1.396869,4.41024 1.402414,4.351203 1.468798,4.238123 1.486885,4.205636 1.512891,4.18702 1.520538,4.176809 1.544015,4.146628 1.616792,4.055637 1.631889,4.046867 1.638833,4.038404 1.673138,4.025104 1.682308,4.023196 1.728897,3.998651 1.77403,3.989664 1.800817,3.983261 1.807584,3.982811 1.81824,3.980647 1.877179,3.984115 1.913866,3.957022 1.930792,3.918934 1.99125,3.828706 2.045338,3.810706 2.059868,3.794973 2.109699,3.701588 2.130634,3.677492 2.209722,3.577382 2.2211,3.56063 2.231078,3.552561 2.240935,3.544365 2.31568,3.493356 2.36416,3.472189 2.420724,3.460436 2.43733,3.457006 2.459105,3.45863 2.466591,3.459081 2.484785,3.46968 2.494423,3.473201 2.520199,3.477851 2.540844,3.472394 2.57302,3.47414 2.653023,3.492818 2.803433,3.501138 2.851732,3.490684 2.887197,3.486071 2.988826,3.418256 3.051306,3.407437 3.169356,3.401367 3.186297,3.405946 3.223705,3.421596 3.265921,3.400123 3.279221,3.375376 3.296247,3.363284 3.31555,3.340232 3.325155,3.33711 3.341604,3.334801 3.348808,3.338402 3.390761,3.321984 3.392248,3.321789" style="fill: white" />
</svg>
