<svg width="13.600213" height="8.910821">
<polygon type="contour" points="2.16619,6.043486 2.212386,6.061958 2.225324,6.085202 2.228223,6.118346 2.224781,6.132401 2.225552,6.145573 2.211706,6.179288 2.207959,6.183196 2.174138,6.204606 2.156686,6.210229 2.135879,6.217076 2.127173,6.217655 2.099912,6.209104 2.09684,6.208139 2.087385,6.181722 2.073161,6.158462 2.071475,6.148694 2.073882,6.115108 2.07815,6.092674 2.092267,6.071053 2.100778,6.060889 2.144538,6.041642 2.153959,6.037047" style="fill: white" /><polygon type="contour" points="2.133275,2.69404 2.174143,2.707023 2.208865,2.729208 2.209309,2.729359 2.210167,2.730495 2.210732,2.731477 2.224326,2.759072 2.230703,2.775899 2.230422,2.778812 2.21071,2.855511 2.208051,2.858883 2.173679,2.871683 2.152004,2.870987 2.107976,2.856424 2.099747,2.850006 2.092092,2.841195 2.078764,2.820329 2.074404,2.790721 2.080336,2.739212 2.093859,2.706845 2.096218,2.704013 2.123736,2.694369 2.126375,2.693568" style="fill: white" /><polygon type="contour" points="6.079778,1.601321 6.300453,1.677961 6.350651,1.689718 6.395028,1.689918 6.398278,1.68657 6.406414,1.686901 6.426085,1.672927 6.442878,1.672009 6.445217,1.672459 6.450547,1.672105 6.452512,1.672534 6.457243,1.672457 6.468162,1.673676 6.504037,1.685661 6.636295,1.716924 6.656364,1.725859 6.668859,1.734231 6.678806,1.736563 6.684773,1.739138 6.705142,1.742007 6.74788,1.750388 6.767868,1.75268 6.80072,1.755832 6.836393,1.745159 6.842902,1.742207 6.871389,1.746612 6.879355,1.745597 6.891435,1.746679 6.906062,1.751167 6.941162,1.749638 6.961913,1.75288 6.990082,1.747123 7.067431,1.751801 7.093387,1.752069 7.187816,1.761015 7.195095,1.760528 7.201716,1.760285 7.20646,1.761226 7.324112,1.736654 7.348267,1.738388 7.449824,1.731134 7.502972,1.723405 7.520583,1.712793 7.532618,1.707804 7.545473,1.698956 7.571017,1.699259 7.67462,1.681558 7.676052,1.680911 7.812033,1.688872 7.81761,1.689189 7.820328,1.688874 7.835017,1.692301 7.867639,1.699291 7.882501,1.703108 7.893136,1.704095 7.903861,1.706512 7.906407,1.709345 7.908853,1.710698 7.951521,1.757423 7.976504,1.734829 7.978429,1.735093 8.002336,1.721798 8.051636,1.705514 8.084734,1.691716 8.11939,1.692424 8.160951,1.676355 8.192503,1.674904 8.24646,1.66943 8.28261,1.65798 8.349048,1.68982 8.352431,1.689256 8.35578,1.69129 8.415908,1.729841 8.424828,1.737899 8.443156,1.755072 8.447602,1.760508 8.450511,1.764296 8.465049,1.783225 8.538583,1.88105 8.576485,1.909956 8.590732,1.93462 8.608338,1.941048 8.623505,1.953391 8.638927,1.970123 8.707936,1.98347 8.725317,1.99016 8.73927,2.002046 8.748458,2.011125 8.748425,2.012465 8.788465,2.056651 8.806278,2.06735 8.830937,2.102703 8.839632,2.106183 8.865716,2.12857 8.929546,2.199051 8.967391,2.225514 9.015186,2.266741 9.095203,2.308807 9.135731,2.33632 9.176201,2.344396 9.20363,2.357565 9.224607,2.363958 9.264009,2.378176 9.37077,2.425399 9.48988,2.493156 9.512027,2.500477 9.523061,2.502239 9.528984,2.502754 9.535367,2.503143 9.640068,2.517173 9.653955,2.523124 9.669637,2.52473 9.68762,2.52517 9.718127,2.53699 9.72433,2.538739 9.726721,2.539874 9.735767,2.542569 9.751648,2.548706 9.761129,2.553563 9.797581,2.568202 9.841424,2.587496 9.864807,2.596881 9.943333,2.658385 9.952119,2.665421 9.952908,2.665644 9.956366,2.668733 10.006135,2.711166 10.037663,2.786126 10.081463,2.855942 10.164355,3.003508 10.194152,3.029107 10.201324,3.040895 10.249824,3.081462 10.314637,3.134618 10.327769,3.145186 10.375093,3.176827 10.477582,3.249879 10.485754,3.256133 10.542196,3.289283 10.651785,3.381271 10.665857,3.393345 10.674907,3.397434 10.715521,3.421493 10.732496,3.426276 10.75244,3.442207 10.77734,3.455078 10.828597,3.479409 10.873029,3.494888 10.953169,3.543932 10.987051,3.574666 11.074048,3.624886 11.127786,3.676279 11.131838,3.683253 11.153254,3.69838 11.244942,3.79516 11.268542,3.815526 11.273687,3.823377 11.273815,3.826208 11.287896,3.84657 11.336272,3.913708 11.340158,3.933943 11.367457,4.121335 11.369074,4.143469 11.366384,4.176242 11.363062,4.292123 11.37067,4.350219 11.379886,4.367994 11.369703,4.519754 11.384984,4.630036 11.383122,4.704455 11.374585,4.773369 11.368302,4.917933 11.343963,4.963385 11.249553,5.117478 11.208102,5.183193 11.131056,5.23461 11.101302,5.262138 11.046772,5.299998 11.044597,5.302729 11.04255,5.303354 10.894977,5.405461 10.836131,5.427469 10.777508,5.456003 10.760973,5.46344 10.737647,5.482832 10.709169,5.490659 10.688139,5.503266 10.64677,5.529898 10.613861,5.55458 10.591028,5.581499 10.523559,5.630418 10.494909,5.659514 10.421074,5.704763 10.331656,5.764237 10.200139,5.87152 10.132103,5.956731 10.116252,5.984034 10.007523,6.19673 9.932416,6.257753 9.876336,6.30135 9.865309,6.312559 9.858044,6.316658 9.818128,6.331425 9.809937,6.335922 9.791444,6.342337 9.735609,6.369222 9.685995,6.387152 9.674159,6.386321 9.649971,6.388214 9.645227,6.393552 9.525348,6.40926 9.486304,6.419117 9.407993,6.472693 9.392,6.478424 9.270803,6.526431 9.145931,6.573219 8.90965,6.75015 8.892849,6.75875 8.882924,6.769956 8.74676,6.899926 8.746307,6.90167 8.727016,6.918112 8.709531,6.926678 8.639571,6.940687 8.628775,6.966685 8.596991,6.973833 8.569493,6.993093 8.560145,7.008048 8.505056,7.069543 8.491483,7.088915 8.478168,7.109137 8.460253,7.135497 8.447389,7.151464 8.443376,7.156334 8.424826,7.173722 8.415912,7.181775 8.352757,7.219144 8.346176,7.223826 8.344756,7.224876 8.343564,7.22531 8.312957,7.239559 8.302872,7.249101 8.292977,7.251608 8.258876,7.244864 8.248149,7.244165 8.199491,7.23791 8.181501,7.235498 8.158206,7.2272 8.094866,7.216201 8.088305,7.211585 8.032936,7.205308 8.029172,7.204357 8.026627,7.204051 8.021469,7.201398 7.945741,7.164052 7.919643,7.19079 7.908303,7.198468 7.866003,7.207096 7.700846,7.226695 7.676799,7.228956 7.675176,7.22898 7.67152,7.228387 7.563071,7.21755 7.560083,7.217935 7.553879,7.21629 7.550542,7.213629 7.54106,7.209549 7.52171,7.195718 7.481856,7.185269 7.440876,7.177818 7.421036,7.177585 7.402608,7.17755 7.32991,7.173761 7.298444,7.165281 7.2769,7.16403 7.238163,7.150119 7.189362,7.152369 7.186583,7.152012 7.151505,7.153964 7.141143,7.154262 7.108184,7.158212 7.092862,7.157807 7.042351,7.156672 7.040205,7.156319 7.028242,7.150022 7.001261,7.149599 6.989958,7.152055 6.928386,7.153093 6.879639,7.164123 6.868163,7.167454 6.853015,7.168655 6.830738,7.169103 6.799987,7.15516 6.771455,7.157692 6.760999,7.158625 6.74822,7.159766 6.73444,7.164916 6.725242,7.164014 6.71846,7.168756 6.665554,7.178593 6.660814,7.183013 6.615516,7.195809 6.553076,7.214325 6.485922,7.230802 6.442887,7.239199 6.424764,7.238467 6.378517,7.204774 6.368685,7.227392 6.356758,7.22092 6.311944,7.231074 6.271856,7.239922 6.079254,7.30184 6.064203,7.307764 6.034144,7.315093 6.020385,7.313348 5.999939,7.314268 5.995118,7.310281 5.971671,7.287458 5.946901,7.289339 5.702069,7.276568 5.69238,7.277136 5.676985,7.278658 5.567136,7.254555 5.399578,7.212552 5.139569,7.129992 5.087487,7.107367 5.063511,7.096338 4.977651,7.049658 4.910559,7.008587 4.87293,6.995803 4.692576,6.91484 4.690347,6.914167 4.688986,6.913323 4.647124,6.900358 4.636135,6.883086 4.623845,6.870295 4.519395,6.830302 4.499129,6.821689 4.474751,6.810072 4.466294,6.80731 4.449305,6.777003 4.356121,6.716391 4.354731,6.714953 4.351607,6.712917 4.327568,6.641599 4.270854,6.616515 4.268938,6.609338 4.24297,6.596167 4.218587,6.585815 4.139403,6.541825 4.031292,6.482465 3.983806,6.479172 3.921173,6.463698 3.901417,6.451533 3.895728,6.448594 3.846747,6.417471 3.751974,6.36806 3.736402,6.353328 3.695471,6.32571 3.615596,6.305797 3.585487,6.294057 3.553128,6.277315 3.369719,6.154263 3.312177,6.08386 3.280994,6.05796 3.223823,6.011573 3.172491,5.9826 3.150913,5.972453 3.12131,5.936069 2.984549,5.819439 2.920342,5.687318 2.906653,5.664215 2.868153,5.618199 2.819324,5.378998 2.817425,5.369689 2.807379,5.250403 2.805013,5.212308 2.787889,5.051419 2.782331,4.97825 2.763909,4.919794 2.758,4.906083 2.756145,4.900588 2.7103,4.823995 2.715115,4.72319 2.78702,4.591061 2.800363,4.550519 2.803773,4.540057 2.802022,4.454699 2.801043,4.346698 2.799048,4.339708 2.799101,4.339197 2.791897,4.314 2.701913,4.16321 2.702666,4.132442 2.703654,4.110486 2.713607,4.075036 2.724074,4.05957 2.724342,4.058134 2.733671,4.051699 2.738418,4.024139 2.755057,4.010687 2.763629,3.998833 2.780121,3.950752 2.787172,3.924894 2.781799,3.90527 2.786391,3.891476 2.792767,3.840116 2.810442,3.642377 2.83289,3.546795 2.833596,3.456735 2.84516,3.380372 2.858521,3.331822 2.860252,3.314708 2.904017,3.25157 2.911111,3.236738 2.919572,3.222593 3.007985,3.066074 3.078287,3.010099 3.138706,2.951409 3.204177,2.915993 3.320874,2.814678 3.374285,2.75354 3.405408,2.735325 3.517586,2.666287 3.517881,2.666142 3.736306,2.561215 3.749495,2.558213 3.831193,2.512341 3.843012,2.496456 3.898153,2.461792 3.908145,2.456462 3.949062,2.442348 3.958217,2.440164 3.960603,2.44095 4.023426,2.441252 4.056514,2.418479 4.062171,2.417567 4.218384,2.326553 4.243312,2.315245 4.259228,2.307197 4.278812,2.289218 4.331963,2.268996 4.352702,2.227402 4.352358,2.202941 4.352847,2.197137 4.440403,2.14157 4.446164,2.137241 4.469074,2.111343 4.572807,2.059593 4.585729,2.053712 4.6043,2.046633 4.610284,2.03981 4.621548,2.036868 4.651576,2.013264 4.654048,2.012449 4.709419,1.981785 4.729529,1.975207 4.883151,1.91005 4.926692,1.900398 5.04273,1.840058 5.065077,1.814304 5.094019,1.798973 5.347336,1.72421 5.363582,1.717938 5.493964,1.672313 5.614047,1.648717 5.639324,1.645684 5.664373,1.645792 5.79893,1.626859 5.807227,1.624516 5.892858,1.623901 5.959436,1.623532 5.972634,1.613804 5.98159,1.614151 5.995927,1.600397 6.016803,1.597772 6.017328,1.59738" style="fill: white" />
</svg>
