<svg width="13.600213" height="8.910821">
<polygon type="contour" points="7.207997,0.068664 7.216924,0.076227 7.295773,0.133633 7.412885,0.204113 7.421971,0.207514 7.468293,0.23941 7.509943,0.246106 7.555288,0.249848 7.613104,0.249165 7.655686,0.251916 7.687207,0.248029 7.690863,0.246372 8.034019,0.198092 8.055756,0.193694 8.084845,0.190596 8.103142,0.187658 8.117329,0.187208 8.126581,0.182975 8.133644,0.183526 8.160662,0.178468 8.174475,0.170182 8.176978,0.17091 8.193569,0.169573 8.202782,0.170337 8.206585,0.16956 8.229673,0.177785 8.243346,0.175556 8.26473,0.180641 8.271315,0.180643 8.362536,0.193473 8.419663,0.200824 8.433343,0.202486 8.445889,0.199488 8.482537,0.203437 8.494581,0.20745 8.619374,0.252966 8.68478,0.238841 8.726087,0.231643 8.732262,0.228394 8.798473,0.212583 8.862839,0.181541 8.879202,0.171798 8.892673,0.168006 8.978393,0.128132 9.045703,0.097549 9.119429,0.097409 9.203742,0.123828 9.204189,0.123876 9.2043,0.123936 9.357706,0.166669 9.462583,0.169818 9.484505,0.172927 9.5023,0.17418 9.506327,0.175695 9.617525,0.270154 9.664744,0.24849 9.679684,0.244816 9.713253,0.275215 9.728078,0.286689 9.749915,0.30022 9.847087,0.391315 9.918083,0.460737 9.934836,0.517982 10.001646,0.515624 10.001828,0.515646 10.001933,0.515688 10.049757,0.534401 10.06876,0.539697 10.099273,0.555018 10.235425,0.610349 10.280315,0.621227 10.291148,0.624634 10.303955,0.626832 10.324944,0.63756 10.34648,0.652262 10.356831,0.654715 10.371294,0.659031 10.392481,0.663313 10.435857,0.67236 10.448692,0.674202 10.476593,0.6861 10.554977,0.704854 10.584159,0.723535 10.639211,0.719069 10.658642,0.718503 10.685032,0.71609 10.732586,0.710119 10.812954,0.669112 10.834301,0.651924 10.84886,0.644442 10.873094,0.640972 10.90622,0.643568 11.034135,0.658169 11.041472,0.660102 11.04989,0.65998 11.062144,0.660467 11.089142,0.666536 11.114894,0.675763 11.170099,0.694515 11.189308,0.722641 11.222218,0.738799 11.255331,0.756322 11.304561,0.785019 11.370656,0.796991 11.407328,0.802456 11.436116,0.81462 11.452628,0.830812 11.487557,0.83976 11.501761,0.852145 11.671741,0.987863 11.697798,1.040571 11.785889,1.095467 11.825361,1.126194 11.835968,1.132894 11.847796,1.154598 11.861381,1.161173 11.893891,1.198659 11.94727,1.231071 11.961649,1.236881 11.969866,1.238711 11.981027,1.24692 12.023657,1.272106 12.124229,1.332993 12.202919,1.388463 12.281825,1.451451 12.370774,1.549321 12.420969,1.61294 12.511643,1.741411 12.559608,1.797294 12.643947,1.894178 12.68928,1.956293 12.698953,1.967843 12.707183,1.976404 12.746895,2.030583 12.812222,2.143872 12.8215,2.171414 12.864159,2.228282 12.882133,2.252414 12.922905,2.314113 13.044417,2.544884 13.065045,2.590007 13.138171,2.78928 13.167627,2.84341 13.170008,2.860981 13.171919,2.877851 13.17449,2.889704 13.176199,2.896698 13.197362,2.940809 13.220064,3.002502 13.226591,3.022349 13.261197,3.071797 13.270165,3.080558 13.276961,3.095653 13.285182,3.158482 13.308117,3.183292 13.311648,3.201056 13.320889,3.259083 13.33074,3.332963 13.335656,3.420516 13.340286,3.451249 13.386617,3.648965 13.39669,3.685927 13.404275,3.726945 13.424773,3.807945 13.479342,4.026011 13.490931,4.201979 13.494728,4.260832 13.495658,4.313079 13.494608,4.37341 13.494791,4.649903 13.488762,4.827217 13.484928,4.876227 13.484154,4.885814 13.452945,4.989175 13.422928,5.125953 13.413075,5.179532 13.39796,5.231801 13.356291,5.343041 13.352459,5.381867 13.329151,5.495635 13.324023,5.56902 13.320831,5.652841 13.311541,5.708262 13.307593,5.72826 13.299021,5.744241 13.282093,5.767434 13.279584,5.804839 13.277978,5.80866 13.275068,5.811161 13.239068,5.87546 13.213956,5.923377 13.211019,5.927352 13.205662,5.941572 13.176273,6.014736 13.171919,6.033765 13.171484,6.045644 13.170008,6.05064 13.16765,6.068167 13.152089,6.100422 13.136546,6.119138 13.048748,6.359191 13.026012,6.40203 12.925455,6.585627 12.885511,6.648473 12.862498,6.686022 12.845982,6.710855 12.831973,6.741626 12.765655,6.857141 12.73961,6.8936 12.726655,6.910577 12.519165,7.158232 12.453942,7.259582 12.352817,7.386798 12.346976,7.393955 12.330983,7.41234 12.247007,7.484657 12.198198,7.52755 12.093484,7.607917 12.065466,7.626654 12.040573,7.642729 12.014192,7.651122 11.952522,7.676031 11.897314,7.705649 11.881197,7.720127 11.816599,7.794608 11.719259,7.84146 11.710748,7.88611 11.666326,7.925748 11.551794,8.023767 11.538802,8.034501 11.530217,8.041571 11.484067,8.074693 11.45387,8.080591 11.435281,8.081133 11.388596,8.104341 11.362506,8.114076 11.345815,8.117417 11.327929,8.124867 11.298171,8.129415 11.267751,8.148253 11.216107,8.176637 11.206888,8.185756 11.189773,8.188647 11.176064,8.210357 11.170398,8.213487 11.161443,8.220075 11.150062,8.220125 11.128967,8.227116 11.074411,8.246598 11.043361,8.251292 10.899382,8.271472 10.852058,8.271172 10.749844,8.196744 10.586893,8.188026 10.554826,8.189128 10.543768,8.201951 10.483259,8.214626 10.451646,8.239868 10.331397,8.264875 10.32616,8.268164 10.24338,8.30121 10.077766,8.361509 9.988546,8.396917 9.940143,8.383356 9.916898,8.451986 9.909046,8.458935 9.782082,8.582403 9.700389,8.648315 9.678968,8.663611 9.673439,8.661088 9.611834,8.632791 9.587926,8.662426 9.552602,8.687876 9.480494,8.73929 9.440036,8.733413 9.424611,8.746379 9.364333,8.743598 9.291181,8.767959 9.22405,8.786005 9.196812,8.795001 9.15553,8.798379 9.064028,8.818476 8.891916,8.742756 8.818657,8.70614 8.802917,8.700593 8.75952,8.679968 8.700487,8.670412 8.624788,8.659391 8.610161,8.661919 8.524821,8.693033 8.472203,8.709629 8.452138,8.708688 8.412372,8.711819 8.311875,8.724578 8.282038,8.728934 8.270148,8.730107 8.266248,8.730243 8.196375,8.740189 8.170047,8.741227 8.138657,8.7269 8.119909,8.727353 8.059708,8.725348 8.056029,8.723951 7.923903,8.705508 7.846946,8.692247 7.811964,8.689984 7.6466,8.660859 7.635164,8.658258 7.60086,8.656102 7.562387,8.662091 7.485275,8.671313 7.457571,8.682012 7.447219,8.68436 7.434706,8.695178 7.421016,8.701677 7.408766,8.717098 7.266906,8.811275 7.21458,8.837347 7.204658,8.843353 7.195737,8.847847 7.169298,8.851075 7.161535,8.849725 7.155888,8.845331 7.127353,8.835406 7.121151,8.831556 7.113808,8.82803 7.101996,8.820184 7.088157,8.813532 7.08086,8.804312 7.044749,8.75116 6.976506,8.66363 6.958104,8.647646 6.956804,8.642657 6.958668,8.636077 6.984344,8.58861 6.926471,8.56593 6.881836,8.543974 6.698405,8.458847 6.658657,8.451048 6.570117,8.417282 6.501066,8.378815 6.453502,8.358953 6.347598,8.32502 6.189443,8.253934 6.129245,8.230869 5.955986,8.152887 5.949211,8.148717 5.92938,8.138853 5.89013,8.134892 5.8707,8.138064 5.844495,8.124276 5.788049,8.087178 5.72853,8.072728 5.656614,8.03507 5.655331,8.034001 5.655125,8.032915 5.544265,7.926277 5.471866,7.921786 5.471112,7.921654 5.422879,7.918828 5.366617,7.927978 5.354971,7.926517 5.288432,7.917337 5.259218,7.908884 5.225549,7.901742 5.213718,7.896945 5.209972,7.893918 5.181901,7.873313 5.137884,7.836474 5.10711,7.815066 5.092896,7.802813 5.085007,7.784773 5.080687,7.757943 5.036647,7.676775 5.015125,7.631365 5.002366,7.575864 4.950023,7.522809 4.947605,7.510109 4.860647,7.451082 4.782144,7.371383 4.739166,7.34279 4.716973,7.336933 4.632679,7.267093 4.524795,7.173948 4.501942,7.167976 4.480058,7.151212 4.406411,7.081591 4.362045,7.034544 4.238466,6.896305 4.059366,6.690374 4.026721,6.65278 4.004236,6.625924 4.003911,6.623243 3.983032,6.59329 3.979106,6.589359 3.971396,6.580881 3.964643,6.557413 3.946993,6.534598 3.941143,6.520708 3.930255,6.511712 3.905254,6.476466 3.842746,6.423282 3.756816,6.31613 3.639917,6.145274 3.559716,6.029177 3.55033,6.01459 3.535858,5.975476 3.51499,5.901969 3.502052,5.893784 3.468994,5.855381 3.435558,5.840526 3.430335,5.838469 3.409832,5.812952 3.369989,5.773643 3.279188,5.651449 3.265604,5.633204 3.261864,5.607452 3.235567,5.541558 3.191761,5.484339 3.188093,5.47628 3.188167,5.475931 3.17437,5.424941 3.149439,5.370997 3.153661,5.350895 3.126087,5.322916 3.104086,5.274817 3.081572,5.225213 3.071162,5.124212 3.06639,5.069695 3.115539,5.006372 3.079895,4.968448 3.072186,4.937322 3.071242,4.930493 3.071357,4.926621 3.071068,4.894797 3.062018,4.710518 3.059031,4.682255 3.060985,4.64784 3.051501,4.446089 3.057318,4.259352 3.057327,4.258164 3.057364,4.256563 3.061312,4.089318 3.066997,3.997117 3.07995,3.942806 3.084755,3.937122 3.116971,3.907408 3.091252,3.874111 3.090049,3.869361 3.074087,3.854208 3.064167,3.820822 3.063372,3.732865 3.10126,3.619401 3.107242,3.612748 3.113131,3.607973 3.133348,3.581522 3.145234,3.568382 3.152487,3.54979 3.155944,3.529525 3.162424,3.50893 3.189685,3.455154 3.191562,3.4415 3.19153,3.436356 3.199685,3.402163 3.215164,3.393487 3.23037,3.34915 3.283251,3.279299 3.397691,3.103998 3.414856,3.086864 3.423632,3.078632 3.467316,3.053211 3.488357,3.03439 3.502323,3.01629 3.52905,2.982982 3.551763,2.895021 3.553386,2.893139 3.643715,2.777188 3.670318,2.736643 3.751057,2.591501 3.753744,2.58658 3.755122,2.584967 3.756188,2.583622 3.756487,2.583222 3.869058,2.46094 3.921073,2.419871 3.94163,2.388698 3.957828,2.373566 3.97058,2.347146 3.976345,2.331156 3.995861,2.304564 4.005156,2.290589 4.009932,2.280986 4.161299,2.090536 4.241198,2.002448 4.277312,1.966765 4.302439,1.942918 4.341338,1.911504 4.379651,1.871069 4.40948,1.827155 4.480371,1.766993 4.497482,1.758587 4.553581,1.712209 4.642069,1.634453 4.690304,1.584807 4.754165,1.542457 4.815692,1.50629 4.872768,1.46516 4.947214,1.406589 4.958811,1.385395 4.978825,1.361948 4.999181,1.340305 5.01011,1.316707 5.010086,1.28989 5.021035,1.273061 5.034138,1.23043 5.075865,1.158546 5.081116,1.151143 5.085884,1.130386 5.091563,1.115698 5.097637,1.104216 5.104068,1.09957 5.132598,1.079882 5.138693,1.0741 5.185523,1.035481 5.210815,1.016607 5.2273,1.009691 5.237591,1.005701 5.24181,1.003941 5.261677,1.001282 5.323357,0.991917 5.39988,0.983053 5.4332,0.986757 5.475712,0.989432 5.477541,0.989248 5.522858,0.990448 5.561647,0.974237 5.570097,0.964827 5.587459,0.948619 5.628088,0.910661 5.63836,0.899971 5.639975,0.896793 5.643456,0.894681 5.729255,0.849674 5.74229,0.832152 5.766561,0.821245 5.835833,0.788724 5.856923,0.780332 5.879591,0.771843 5.933457,0.776765 6.053743,0.721729 6.138668,0.674686 6.209379,0.643046 6.358813,0.579683 6.380746,0.569319 6.386634,0.566616 6.440485,0.546891 6.446189,0.545199 6.466935,0.542479 6.480267,0.538476 6.510522,0.519404 6.538268,0.507689 6.567191,0.498276 6.574774,0.493062 6.684397,0.458111 6.782279,0.409669 6.833808,0.385882 6.894897,0.367486 6.959238,0.326916 6.95874,0.271668 6.961527,0.269705 6.980877,0.253102 7.080643,0.101963 7.084112,0.096339 7.085232,0.094998 7.087434,0.093954 7.168708,0.063479 7.193266,0.062958" style="fill: white" />
</svg>
