<svg width="13.600213" height="8.910821">
<polygon type="contour" points="5.618026,0.721488 5.626062,0.726486 5.663227,0.720084 5.664366,0.720108 5.668097,0.728416 5.742427,0.737165 5.780613,0.748599 5.788143,0.75208 5.885451,0.828811 5.905711,0.839411 5.920481,0.877128 5.960152,0.898417 6.001436,0.914422 6.010164,0.913762 6.020857,0.918332 6.028242,0.923431 6.041269,0.927821 6.114157,0.958688 6.287446,1.046503 6.372126,1.074929 6.392201,1.076717 6.41059,1.079584 6.424039,1.088456 6.453301,1.104459 6.501107,1.130991 6.538916,1.158062 6.577795,1.184227 6.630099,1.222322 6.641859,1.232367 6.648899,1.238816 6.658086,1.257404 6.663342,1.263902 6.664782,1.276164 6.678961,1.291357 6.681047,1.318837 6.710529,1.347677 6.725077,1.353018 6.74297,1.358297 6.767779,1.361864 6.780412,1.367368 6.79796,1.378488 6.814207,1.394719 6.83718,1.415923 6.88302,1.468274 6.907567,1.497721 6.941554,1.535928 6.944581,1.542572 7.037435,1.648668 7.046645,1.662209 7.050039,1.666227 7.06214,1.680451 7.084747,1.718026 7.099809,1.800897 7.126731,1.863424 7.140433,1.892396 7.151001,1.909517 7.155646,1.939233 7.202019,1.980619 7.203151,1.981594 7.204665,1.983152 7.250271,2.024891 7.262896,2.037489 7.270193,2.049238 7.283114,2.063094 7.31559,2.077144 7.324375,2.0818 7.3451,2.09161 7.34741,2.092857 7.350271,2.095617 7.367011,2.113762 7.371741,2.116384 7.434267,2.17005 7.492866,2.229247 7.509436,2.250716 7.522793,2.277802 7.528523,2.287512 7.596045,2.3572 7.631422,2.393189 7.665391,2.417206 7.795123,2.49037 7.813049,2.497342 7.842975,2.505507 7.888401,2.522014 7.932083,2.544118 8.078125,2.630884 8.089413,2.640667 8.09651,2.651597 8.143211,2.692696 8.190816,2.738137 8.207246,2.748222 8.21432,2.755151 8.31988,2.831265 8.383137,2.899058 8.420343,2.925806 8.455155,2.958163 8.49086,2.987363 8.522453,2.992445 8.53272,2.994324 8.539522,2.994964 8.541729,2.995759 8.562972,3.006061 8.569375,3.009657 8.587509,3.024655 8.606111,3.039724 8.647467,3.072973 8.666898,3.088927 8.682647,3.103481 8.687811,3.10791 8.694411,3.112795 8.695486,3.113838 8.792917,3.214622 8.816001,3.235873 8.838327,3.25343 8.996681,3.368297 9.000725,3.37377 9.011992,3.384816 9.014405,3.386445 9.022708,3.396805 9.042569,3.420902 9.067557,3.44258 9.088253,3.459513 9.088776,3.45991 9.090802,3.464424 9.111889,3.517052 9.12065,3.522785 9.134465,3.542167 9.143686,3.546924 9.158809,3.567596 9.169727,3.571946 9.186368,3.585868 9.199983,3.598953 9.211031,3.603499 9.241164,3.618411 9.251104,3.622832 9.253218,3.623808 9.255141,3.625101 9.257908,3.627103 9.263152,3.629718 9.303717,3.655173 9.334882,3.688794 9.36131,3.710896 9.364693,3.714249 9.388438,3.755768 9.394364,3.769355 9.401435,3.787778 9.429361,3.802232 9.441235,3.812706 9.460855,3.833595 9.475578,3.841021 9.487881,3.853446 9.500665,3.88487 9.507707,3.907443 9.561474,3.992036 9.562373,3.993579 9.562398,3.993732 9.562564,3.994194 9.562684,3.995122 9.598481,4.160489 9.612626,4.170618 9.641369,4.302556 9.659707,4.377705 9.670514,4.430691 9.665757,4.506693 9.661689,4.533931 9.650836,4.623266 9.646017,4.652366 9.642878,4.657822 9.611182,4.728913 9.599044,4.741478 9.561433,4.919167 9.561075,4.920798 9.561032,4.921104 9.559842,4.923217 9.557724,4.927299 9.486208,5.056917 9.477371,5.069479 9.464681,5.077879 9.456984,5.079769 9.440475,5.098647 9.427001,5.111009 9.401658,5.123413 9.38454,5.168977 9.382819,5.173565 9.378518,5.182243 9.372663,5.192089 9.357844,5.202371 9.297301,5.261187 9.27432,5.276809 9.267976,5.278973 9.260482,5.284264 9.256248,5.28604 9.210638,5.308742 9.191585,5.331192 9.138779,5.360953 9.121771,5.3868 9.111863,5.397943 9.100114,5.424937 9.093688,5.435491 9.0925,5.443869 9.089104,5.449767 9.065406,5.47279 9.029133,5.503019 9.020756,5.51551 9.013483,5.525092 8.997961,5.539938 8.864053,5.632702 8.844233,5.65216 8.691599,5.801384 8.684022,5.805931 8.67797,5.812573 8.67385,5.817042 8.58554,5.885129 8.563611,5.897184 8.54044,5.912176 8.51559,5.913153 8.485524,5.928067 8.369756,6.030231 8.278905,6.112815 8.216378,6.162879 8.180082,6.192949 8.164536,6.198899 8.085057,6.269458 8.040326,6.310136 7.995112,6.330954 7.956154,6.352997 7.913329,6.365283 7.843939,6.399099 7.696769,6.467419 7.690353,6.473382 7.65714,6.494404 7.598736,6.552709 7.503959,6.65397 7.484623,6.674548 7.467703,6.694669 7.43556,6.73703 7.428363,6.745296 7.420097,6.755499 7.404604,6.772906 7.389868,6.786067 7.366204,6.797577 7.35057,6.815481 7.347109,6.819097 7.345474,6.819808 7.31267,6.835123 7.301125,6.841424 7.284279,6.856034 7.272879,6.862081 7.258828,6.875848 7.245771,6.887053 7.175157,6.956138 7.158481,6.972937 7.154658,6.995158 7.140608,7.018839 7.136844,7.035681 7.127273,7.057647 7.099796,7.170184 7.098335,7.173863 7.045614,7.241015 6.96519,7.35082 6.961625,7.352749 6.952053,7.365934 6.863086,7.46553 6.818748,7.514668 6.800498,7.531095 6.778284,7.545452 6.767285,7.550068 6.749625,7.550358 6.741604,7.556795 6.712644,7.561691 6.682953,7.590983 6.672497,7.626847 6.664285,7.638493 6.659661,7.655175 6.643785,7.678741 6.618886,7.701198 6.60633,7.709886 6.602168,7.714332 6.568456,7.73348 6.404548,7.828962 6.397905,7.833854 6.310503,7.855583 6.2975,7.858389 6.245888,7.893456 6.219835,7.906522 5.986525,8.005092 5.961882,8.010337 5.926256,8.030438 5.907574,8.063701 5.878271,8.089825 5.787647,8.160594 5.780416,8.163231 5.730496,8.178124 5.702551,8.18306 5.688557,8.18006 5.666451,8.191204 5.663105,8.191673 5.640172,8.183956 5.62851,8.188742 5.608138,8.191585 5.600591,8.18775 5.581028,8.192067 5.557059,8.180547 5.536298,8.178585 5.473974,8.161326 5.291873,8.106386 5.274066,8.101366 5.251035,8.097183 5.242469,8.086692 5.068887,8.105241 5.05502,8.104046 5.01172,8.099051 5.003167,8.096806 4.999737,8.096892 4.995165,8.095907 4.941448,8.075659 4.901036,8.054353 4.881659,8.050726 4.802559,8.063776 4.704915,8.105896 4.679065,8.109556 4.674425,8.108705 4.652045,8.107941 4.651126,8.108324 4.647927,8.106635 4.646268,8.104369 4.606589,8.086007 4.592,8.081607 4.587247,8.079814 4.568763,8.074674 4.548282,8.069163 4.540117,8.069071 4.528248,8.059633 4.514423,8.055631 4.462643,8.042163 4.442367,8.03828 4.372879,8.027091 4.338084,8.038609 4.333973,8.040958 4.333208,8.04092 4.327148,8.043752 4.239542,8.056422 4.196124,8.044434 4.152566,8.027152 4.117177,8.024346 4.093219,8.023056 4.034326,8.010304 4.029082,8.008463 4.020022,7.99867 3.996996,7.979781 3.987845,7.9757 3.96519,7.96883 3.874349,7.942174 3.861206,7.938748 3.852933,7.934913 3.840462,7.929244 3.820495,7.928992 3.808938,7.92331 3.802286,7.925154 3.798993,7.923081 3.771964,7.904493 3.759859,7.898001 3.738412,7.883849 3.722565,7.873005 3.65426,7.824989 3.612546,7.796824 3.600644,7.7888 3.595643,7.784274 3.573676,7.776579 3.521659,7.755006 3.513981,7.757008 3.455277,7.71343 3.349793,7.63691 3.297745,7.596008 3.290574,7.588058 3.282939,7.570853 3.24077,7.536277 3.211876,7.516576 3.186922,7.487437 3.160131,7.467974 3.156913,7.4649 3.150507,7.461271 3.119997,7.443754 3.096517,7.428549 3.071046,7.414735 3.062091,7.410167 3.05984,7.408968 3.048753,7.40337 3.013706,7.37549 3.004961,7.372403 2.95143,7.347361 2.936743,7.344167 2.926311,7.340572 2.906506,7.340836 2.904981,7.340301 2.873066,7.328647 2.83396,7.297696 2.762332,7.246499 2.75702,7.243555 2.742872,7.23625 2.736527,7.22987 2.720657,7.208951 2.690541,7.191295 2.684503,7.190511 2.643757,7.176855 2.607753,7.169404 2.582628,7.158118 2.512979,7.134867 2.471917,7.128452 2.438586,7.137675 2.404312,7.15167 2.396569,7.161416 2.380783,7.165035 2.362833,7.188448 2.348874,7.194748 2.318629,7.227017 2.278584,7.277664 2.250773,7.296335 2.224495,7.330661 2.192315,7.397593 2.184834,7.403685 2.178025,7.415952 2.14721,7.435775 2.117659,7.448433 2.109911,7.454834 2.103175,7.457146 2.032268,7.469658 1.996741,7.470222 1.89017,7.44721 1.879027,7.435569 1.79429,7.370024 1.769817,7.324659 1.746125,7.287607 1.627729,7.201528 1.588722,7.183632 1.567956,7.180939 1.507645,7.168343 1.470755,7.175014 1.40507,7.186323 1.366315,7.203654 1.349971,7.21875 1.290691,7.241957 1.289203,7.242342 1.288468,7.242468 1.286906,7.242419 1.135663,7.224885 1.108478,7.219106 1.03384,7.175443 1.030011,7.172806 1.02686,7.168886 1.017281,7.1346 0.982354,7.091048 0.975281,7.073533 0.961139,7.064846 0.952235,7.056911 0.94636,7.047699 0.904447,6.957433 0.865201,6.859429 0.862096,6.851725 0.856723,6.832301 0.820478,6.744215 0.81929,6.717714 0.781156,6.611647 0.75095,6.531493 0.740567,6.509604 0.728289,6.456252 0.71941,6.319316 0.717333,6.280536 0.708121,6.247845 0.660477,6.152756 0.635088,5.974653 0.629104,5.928693 0.633155,5.924207 0.609113,5.833182 0.590908,5.706938 0.57522,5.533926 0.566526,5.411068 0.576505,5.305013 0.55481,5.174921 0.552893,5.133425 0.53782,5.03921 0.527144,5.005795 0.52051,4.998072 0.501189,4.909442 0.494868,4.900186 0.491603,4.847129 0.481785,4.711397 0.486149,4.696224 0.491198,4.691772 0.533106,4.528901 0.532649,4.469852 0.533147,4.451572 0.533394,4.37677 0.531975,4.359385 0.509118,4.283717 0.505751,4.273388 0.505635,4.272527 0.5054,4.266149 0.493643,4.025139 0.495787,4.010004 0.502446,3.997389 0.519684,3.912405 0.536602,3.88426 0.546298,3.832802 0.550535,3.803937 0.551215,3.799459 0.559099,3.723954 0.581945,3.596255 0.566463,3.499965 0.571376,3.414459 0.587173,3.237575 0.608779,3.081426 0.620231,3.053609 0.633526,2.992492 0.63399,2.957153 0.636638,2.920452 0.638986,2.874957 0.64791,2.820329 0.677625,2.72603 0.684885,2.694076 0.708386,2.662578 0.71379,2.643536 0.713182,2.605738 0.722719,2.561548 0.718214,2.539001 0.725208,2.46613 0.750768,2.354898 0.757416,2.334067 0.786116,2.262302 0.816958,2.162371 0.852362,2.095583 0.874779,2.034385 0.897847,1.967452 0.903679,1.955748 0.946541,1.882854 0.975262,1.83724 0.98625,1.818849 1.0011,1.803142 1.011108,1.792538 1.022936,1.758244 1.027336,1.741951 1.02995,1.738503 1.037794,1.732812 1.092202,1.699153 1.099155,1.696705 1.155041,1.683514 1.161281,1.682477 1.24787,1.672523 1.280443,1.670236 1.294901,1.671839 1.335683,1.684611 1.353606,1.694396 1.361741,1.703487 1.383052,1.711077 1.404975,1.718196 1.433215,1.727665 1.446885,1.734016 1.491773,1.743296 1.50597,1.744378 1.572801,1.729938 1.606624,1.723478 1.623289,1.69596 1.646089,1.686656 1.696134,1.668593 1.736487,1.638905 1.762509,1.609438 1.818603,1.514515 1.827973,1.499586 1.96763,1.445991 1.994547,1.436871 2.030221,1.440711 2.102451,1.464892 2.119818,1.469947 2.158799,1.484224 2.177222,1.495294 2.19277,1.516661 2.205866,1.558773 2.276636,1.652645 2.313153,1.677112 2.31574,1.678247 2.405486,1.759692 2.450866,1.779087 2.4977,1.779468 2.547388,1.76273 2.585143,1.748976 2.618356,1.750185 2.638306,1.745247 2.643376,1.741282 2.703237,1.716087 2.714763,1.706182 2.743072,1.676058 2.743097,1.676029 2.747522,1.67377 2.761335,1.666558 2.783216,1.643829 2.884062,1.581519 2.906191,1.570931 2.925807,1.571324 2.93521,1.56796 2.948716,1.565387 2.971362,1.550613 3.028666,1.532962 3.038627,1.511507 3.047164,1.512048 3.060424,1.503722 3.068982,1.499139 3.072428,1.497078 3.083826,1.489325 3.097999,1.482112 3.119625,1.46835 3.15187,1.449696 3.158338,1.445917 3.201814,1.406365 3.216225,1.39337 3.23378,1.378253 3.235648,1.376879 3.237851,1.375572 3.279424,1.34947 3.292457,1.321206 3.29259,1.321022 3.328863,1.291563 3.517281,1.164222 3.533119,1.153429 3.557666,1.13544 3.558478,1.135028 3.584236,1.134157 3.597211,1.125398 3.601742,1.122115 3.611719,1.115526 3.647619,1.084287 3.649614,1.082547 3.65145,1.081482 3.654674,1.078572 3.777358,1.002708 3.783199,0.999516 3.795211,0.991542 3.797635,0.989499 3.802448,0.986341 3.809445,0.987859 3.820689,0.982277 3.844809,0.981846 3.890362,0.962511 3.909873,0.952717 3.955321,0.949181 3.983246,0.945921 3.998656,0.931043 4.03177,0.900582 4.117537,0.884742 4.143802,0.883016 4.19219,0.877843 4.221776,0.86385 4.252223,0.853401 4.343763,0.880683 4.377166,0.884007 4.509018,0.855382 4.523621,0.853083 4.549354,0.839494 4.561335,0.839754 4.57696,0.834258 4.587126,0.83188 4.591982,0.830047 4.624384,0.815647 4.632034,0.80838 4.638477,0.810548 4.651355,0.808003 4.679097,0.803566 4.687177,0.803047 4.701002,0.804621 4.724852,0.813493 4.748078,0.811262 4.759651,0.816465 4.806426,0.847303 4.860941,0.85553 4.908983,0.848955 4.929657,0.839964 4.95075,0.831245 4.955581,0.829498 4.96063,0.827364 4.981951,0.826701 5.059242,0.812289 5.092253,0.80977 5.132985,0.806167 5.162955,0.811604 5.177438,0.813634 5.242787,0.829944 5.252461,0.812561 5.254085,0.814048 5.339106,0.789149 5.412785,0.769275 5.439155,0.764332 5.488493,0.751478 5.585168,0.721711 5.60197,0.719298" style="fill: white" /><polygon type="hole" points="4.802966,2.849275 4.73034,2.853393 4.710459,2.860966 4.690135,2.868446 4.516332,2.981529 4.293009,3.205222 4.253128,3.269345 4.247218,3.290083 4.203896,3.48142 4.191378,3.566581 4.20089,3.731436 4.21648,3.792119 4.292182,3.957964 4.324647,4.043453 4.392303,4.128925 4.409468,4.177159 4.416991,4.216192 4.428039,4.387001 4.440057,4.567595 4.424589,4.665426 4.396645,4.772008 4.325634,4.868279 4.301325,4.930012 4.222927,5.085997 4.218757,5.122444 4.191827,5.233181 4.19868,5.389774 4.202065,5.42342 4.202201,5.464858 4.234016,5.554691 4.282401,5.691741 4.320762,5.747321 4.432498,5.846514 4.547212,5.967008 4.658075,6.020176 4.720613,6.0493 4.810345,6.083951 4.834521,6.083065 5.073203,6.068025 5.145135,6.03836 5.259317,6.013732 5.562065,5.927417 5.581868,5.919913 5.646135,5.890703 5.716318,5.857841 5.795744,5.775075 5.813297,5.766827 5.830019,5.764722 5.998323,5.738257 6.142083,5.68227 6.193959,5.64095 6.245979,5.60512 6.403264,5.434187 6.408791,5.427278 6.46993,5.329779 6.550706,5.252934 6.586321,5.21192 6.628676,5.119954 6.656299,5.036932 6.718987,4.825837 6.718454,4.817157 6.721945,4.50673 6.72654,4.431329 6.731814,4.153803 6.720532,4.055239 6.640908,3.788321 6.637457,3.776976 6.531299,3.646744 6.451616,3.535743 6.44231,3.524903 6.438857,3.520784 6.233159,3.293312 6.165925,3.249385 6.122494,3.227882 6.056497,3.174137 6.024503,3.162175 6.011341,3.158785 6.002839,3.158255 5.990286,3.155655 5.981987,3.155948 5.979905,3.154559 5.961721,3.156499 5.949868,3.153702 5.922186,3.15441 5.915366,3.154779 5.908179,3.155253 5.8745,3.157247 5.865343,3.152512 5.840453,3.155975 5.837762,3.155954 5.83724,3.156051 5.835289,3.15566 5.808153,3.14318 5.79405,3.133339 5.773758,3.112257 5.721618,3.057452 5.427884,2.949872 5.387252,2.93683 5.372984,2.933145 5.307657,2.92301 5.17722,2.870752 5.053273,2.836581 4.969629,2.83292" style="fill: black" />
</svg>
