<svg width="13.600213" height="8.910821">
<polygon type="contour" points="7.920051,3.063627 7.939408,3.07034 7.954891,3.076267 7.966339,3.081146 7.996227,3.077641 8.010586,3.085405 8.083648,3.107371 8.188274,3.16896 8.225894,3.192335 8.23621,3.208383 8.270827,3.225361 8.349145,3.255572 8.351304,3.257043 8.360598,3.26167 8.391003,3.278896 8.405912,3.29574 8.417241,3.302442 8.41885,3.305555 8.525386,3.426923 8.530959,3.432103 8.531853,3.432817 8.53404,3.436131 8.600946,3.527017 8.612163,3.550895 8.668081,3.656647 8.723618,3.860328 8.725876,3.903847 8.727052,3.919096 8.728422,3.948534 8.727234,3.971242 8.727314,4.078427 8.717726,4.100231 8.710635,4.199264 8.750702,4.305096 8.764114,4.348742 8.762375,4.406236 8.763297,4.483548 8.762669,4.537948 8.762271,4.56995 8.711031,4.711573 8.719024,4.865007 8.719341,4.907173 8.713305,5.080449 8.690024,5.154128 8.641557,5.276674 8.610434,5.364312 8.598936,5.386558 8.469845,5.552991 8.390935,5.630802 8.388081,5.633195 8.285152,5.679401 8.254788,5.693348 8.071152,5.812261 8.008269,5.824928 7.999181,5.83128 7.980928,5.833309 7.958088,5.833945 7.94385,5.838796 7.916245,5.846691 7.904065,5.851014 7.866998,5.849511 7.854557,5.851122 7.842782,5.852084 7.80574,5.846395 7.767094,5.837851 7.755339,5.826394 7.72783,5.807938 7.719666,5.804166 7.701524,5.786895 7.678931,5.729573 7.673503,5.66297 7.666764,5.441733 7.486619,5.419845 7.482665,5.419411 7.42112,5.412647 7.3287,5.343518 7.318051,5.322185 7.325443,5.308917 7.403917,5.278639 7.455832,5.25954 7.4616,5.259137 7.464049,5.258967 7.470864,5.258838 7.625927,5.261662 7.587098,5.139154 7.576635,5.025497 7.577872,5.021512 7.577424,5.013142 7.577729,4.964665 7.596063,4.714049 7.595959,4.66873 7.597757,4.538819 7.597557,4.245973 7.599972,4.002437 7.588264,3.914022 7.580569,3.834712 7.587765,3.746793 7.535203,3.746859 7.453771,3.733215 7.367894,3.691834 7.342973,3.653489 7.367716,3.617985 7.428751,3.589165 7.492167,3.589265 7.649629,3.558544 7.666938,3.376688 7.665089,3.323798 7.670554,3.280118 7.682015,3.194709 7.685205,3.179189 7.683703,3.173781 7.688944,3.154445 7.69941,3.132306 7.720973,3.107334 7.7417,3.09151 7.772093,3.076716 7.806743,3.064643 7.851223,3.059679 7.872487,3.062525 7.904469,3.059588" style="fill: white" /><polygon type="contour" points="3.841674,2.437781 3.857399,2.434669 3.864042,2.441074 3.869876,2.451024 3.950776,2.567704 3.979777,2.563309 4.211945,2.566314 4.22399,2.566471 4.229518,2.566542 4.262898,2.566975 4.450842,2.558922 4.498651,2.569381 4.540678,2.587683 4.555477,2.622709 4.544741,2.661002 4.523156,2.687058 4.468269,2.7187 4.416277,2.744095 4.337722,2.760941 4.265244,2.78003 4.206795,2.783775 4.160494,2.793283 4.152403,2.794945 4.142098,2.797061 4.135718,2.797735 4.128505,2.798497 4.030121,2.808894 3.637731,2.83084 3.643936,2.902195 3.648089,2.93051 3.648419,2.933459 3.648653,2.939599 3.643261,3.012979 3.63371,3.058101 3.501949,3.308442 3.422114,3.442418 3.288495,3.625559 3.283932,3.63066 3.262648,3.669525 3.228997,3.733184 3.142783,3.883578 3.119526,3.912451 3.117821,3.934649 3.100232,3.970946 3.085375,4.005612 3.041896,4.133457 3.038978,4.145187 3.03616,4.148579 3.030797,4.164219 3.026828,4.174414 3.026844,4.202268 3.02664,4.215394 3.010281,4.267009 3.010839,4.278877 2.999987,4.306842 3.001311,4.35576 3.015501,4.435596 3.004242,4.549429 3.005679,4.565839 3.003214,4.587448 3.011613,4.61874 3.015363,4.641448 3.018476,4.676276 3.019854,4.681058 3.020263,4.688946 3.029541,4.709078 3.077302,4.871964 3.082715,4.898316 3.103419,4.938918 3.12131,4.985443 3.123985,5.009005 3.127809,5.025359 3.128915,5.034214 3.141051,5.05871 3.14645,5.067543 3.170425,5.10169 3.209392,5.153245 3.233046,5.190614 3.262756,5.244813 3.464872,5.530951 3.483626,5.573495 3.502692,5.605858 3.630953,5.849819 3.643989,5.882499 3.642834,5.92356 3.644532,5.947211 3.649679,5.980082 3.642037,6.023612 3.644134,6.02834 3.63266,6.081185 4.03953,6.102977 4.085164,6.108331 4.253513,6.129569 4.387055,6.159046 4.419607,6.169867 4.474728,6.196588 4.526533,6.227864 4.544735,6.251035 4.554819,6.291473 4.540043,6.32489 4.496633,6.343828 4.45281,6.353218 4.348752,6.34806 3.945147,6.338515 3.926884,6.394472 3.907429,6.426706 3.861864,6.473151 3.858887,6.475973 3.847605,6.473972 3.815592,6.493192 3.808806,6.494874 3.802474,6.493239 3.773661,6.484751 3.751689,6.461617 3.715773,6.464792 3.704771,6.45715 3.661904,6.445456 3.642581,6.43404 3.587934,6.393174 3.558303,6.378596 3.532768,6.364999 3.494871,6.339127 3.472599,6.317943 3.46814,6.317365 3.467311,6.307597 3.431947,6.289103 3.421121,6.289027 3.41778,6.285454 3.387161,6.267463 3.359128,6.245991 3.33803,6.237727 3.328908,6.227735 3.320503,6.225258 3.30562,6.214439 3.265383,6.185713 3.237077,6.160531 3.176967,6.08516 3.169037,6.072037 3.161454,6.062899 3.153618,6.056286 3.119846,6.027051 2.982089,5.926392 2.94161,5.902631 2.910923,5.888437 2.862661,5.870159 2.783558,5.854899 2.700786,5.836948 2.682388,5.830606 2.673812,5.826394 2.661679,5.807724 2.616793,5.77826 2.598175,5.768517 2.583894,5.734056 2.502162,5.736328 2.485915,5.736984 2.391548,5.782971 2.316368,5.804856 2.303859,5.808358 2.276954,5.80258 2.251151,5.791376 2.230941,5.784558 2.215867,5.776251 2.191695,5.771892 2.16013,5.763358 2.135315,5.762003 2.097154,5.752634 2.06773,5.748752 2.060179,5.741865 2.042524,5.743841 2.035609,5.737806 1.962624,5.690779 1.916402,5.655873 1.868126,5.643121 1.830953,5.629865 1.764329,5.607052 1.646221,5.56428 1.639631,5.561249 1.635818,5.560708 1.629554,5.558204 1.591826,5.556943 1.564736,5.568504 1.466371,5.592457 1.446909,5.592038 1.435718,5.588047 1.416924,5.573311 1.314755,5.561236 1.305669,5.557308 1.23864,5.493278 1.209726,5.463873 1.204948,5.454024 1.205254,5.449995 1.20212,5.435993 1.200405,5.382668 1.156395,5.333001 1.130488,5.307557 1.122039,5.302011 1.06278,5.261426 1.012178,5.213859 1.006809,5.207688 1.003361,5.19256 0.958151,5.134117 0.948913,5.113549 0.940195,5.097545 0.9071,4.988296 0.896845,4.952152 0.875906,4.888807 0.822919,4.852314 0.786151,4.801529 0.6674,4.71906 0.627654,4.674786 0.602217,4.640033 0.578009,4.592552 0.565946,4.538676 0.564168,4.531363 0.560061,4.399518 0.560622,4.396828 0.562828,4.391769 0.594191,4.314477 0.633028,4.240587 0.66631,4.192666 0.690597,4.173087 0.733875,4.144638 0.789421,4.094886 0.810763,4.06657 0.876593,4.02471 0.899698,3.942836 0.907338,3.928472 0.912435,3.907531 0.944589,3.80462 0.951476,3.784515 0.972082,3.755316 1.010687,3.703907 1.07897,3.641341 1.149203,3.580636 1.21076,3.508887 1.20931,3.496645 1.225564,3.456383 1.276789,3.390935 1.296236,3.359888 1.307125,3.353677 1.313338,3.350745 1.328701,3.345655 1.394289,3.331767 1.423982,3.329363 1.430623,3.322953 1.448306,3.320719 1.46062,3.31154 1.475329,3.315523 1.503689,3.321552 1.530945,3.328405 1.56778,3.341128 1.590029,3.354991 1.630059,3.353744 1.68111,3.336297 1.859285,3.274837 1.872567,3.276082 1.968334,3.227868 1.97905,3.219954 1.987229,3.213462 2.016272,3.188967 2.022302,3.184835 2.052234,3.162075 2.092973,3.157962 2.145472,3.15106 2.173644,3.142521 2.200863,3.140383 2.212331,3.130968 2.226266,3.129311 2.257406,3.116999 2.286707,3.111212 2.305217,3.102479 2.323869,3.104153 2.354797,3.115488 2.482697,3.174883 2.500973,3.17558 2.53544,3.176522 2.581152,3.18005 2.597232,3.143839 2.60817,3.136184 2.664803,3.101276 2.674139,3.085524 2.699297,3.069526 2.705965,3.063363 2.714181,3.061981 2.783218,3.046724 2.807086,3.052784 2.890047,3.02813 2.926251,3.015272 2.986898,2.968408 3.009796,2.961288 3.11119,2.887922 3.160135,2.843869 3.165865,2.832931 3.170227,2.82994 3.175504,2.820167 3.249813,2.737205 3.271252,2.716887 3.275356,2.71397 3.279601,2.712608 3.328395,2.683312 3.349512,2.677905 3.359185,2.664627 3.379958,2.650542 3.401445,2.635106 3.412823,2.628815 3.421923,2.623338 3.444129,2.623048 3.461626,2.597548 3.490203,2.579719 3.575222,2.523485 3.613551,2.500404 3.644445,2.477475 3.652947,2.470025 3.667471,2.463433 3.675525,2.458717 3.691843,2.452271 3.736907,2.445652 3.768347,2.449537 3.783335,2.424063 3.787819,2.423195 3.811137,2.417026" style="fill: white" />
</svg>
