<svg width="13.600213" height="8.910821">
<polygon type="contour" points="4.492975,0.633247 4.496155,0.635041 4.516907,0.638471 4.556267,0.646625 4.572924,0.647782 4.581931,0.651474 4.651352,0.673298 4.66974,0.691953 4.748759,0.777781 4.779612,0.819258 4.951214,0.860804 4.981258,0.842722 5.000512,0.825582 5.005125,0.813783 5.012596,0.807102 5.015629,0.802325 5.028815,0.794606 5.03601,0.786706 5.040583,0.785313 5.051735,0.785123 5.115756,0.784336 5.200278,0.796032 5.239472,0.795802 5.306854,0.802968 5.358036,0.812279 5.377579,0.819763 5.430016,0.812897 5.568195,0.829874 5.630455,0.837007 5.724886,0.870064 5.795993,0.888222 5.835723,0.914678 5.889829,0.924196 5.926833,0.934376 6.041999,0.973421 6.113279,0.990101 6.216425,1.001829 6.255289,1.012182 6.343715,1.025008 6.413006,1.04754 6.438283,1.061977 6.471,1.058017 6.47368,1.05869 6.482171,1.062882 6.573435,1.10743 6.6939,1.173864 6.714313,1.181956 6.753261,1.21137 6.921075,1.391091 6.927969,1.398842 6.962637,1.444297 7.014739,1.513012 7.0206,1.521418 7.117203,1.68426 7.194034,1.822866 7.201998,1.836485 7.206139,1.843209 7.285725,1.977496 7.41887,2.160096 7.451665,2.1987 7.48094,2.232345 7.567119,2.30547 7.574151,2.319781 7.635472,2.397524 7.642572,2.40829 7.64582,2.418858 7.653656,2.424271 7.660731,2.440302 7.701112,2.468365 7.706899,2.473042 7.712894,2.48266 7.731687,2.499918 7.743651,2.521494 7.788546,2.578979 7.803075,2.594543 7.830401,2.62218 7.852023,2.64991 7.860078,2.656521 7.932543,2.722429 7.941681,2.73099 7.966669,2.746656 7.974317,2.757394 8.015901,2.791709 8.052005,2.801379 8.12959,2.867965 8.198247,2.89201 8.216182,2.90186 8.280092,2.963818 8.302799,2.986019 8.330716,2.999976 8.340527,3.007922 8.344337,3.016133 8.359058,3.032089 8.364719,3.042526 8.373222,3.049349 8.378634,3.059976 8.397227,3.079271 8.40555,3.091721 8.418895,3.09699 8.447882,3.130844 8.489966,3.150397 8.516834,3.175922 8.539995,3.184734 8.542314,3.18609 8.543649,3.187691 8.560716,3.210096 8.574678,3.218932 8.585492,3.247977 8.605763,3.248488 8.612995,3.258213 8.645244,3.24943 8.659357,3.25751 8.665396,3.257702 8.683967,3.268306 8.697474,3.276016 8.706077,3.280308 8.712505,3.283709 8.747267,3.310667 8.788987,3.327052 8.801569,3.337096 8.810003,3.346073 8.822976,3.351925 8.829026,3.358804 8.838996,3.375127 8.851074,3.383475 8.860666,3.393766 8.953711,3.472557 8.986794,3.503381 8.996771,3.514012 9.009034,3.520545 9.023619,3.529968 9.100641,3.620619 9.115347,3.643817 9.138826,3.685297 9.145041,3.697292 9.162223,3.737866 9.174926,3.754496 9.178415,3.762405 9.187135,3.782154 9.188604,3.784088 9.192837,3.803822 9.19973,3.809788 9.20251,3.840747 9.211192,3.852823 9.20971,3.877427 9.226384,3.899556 9.223145,3.927153 9.230833,3.953079 9.237812,3.973739 9.238433,3.983324 9.241973,3.990967 9.244976,4.004283 9.257532,4.04044 9.266917,4.056032 9.267331,4.058094 9.273415,4.072931 9.275282,4.08325 9.290095,4.122067 9.291888,4.128396 9.292408,4.182938 9.292366,4.187663 9.290848,4.246405 9.274036,4.285942 9.267638,4.31831 9.267104,4.330923 9.263715,4.353884 9.26772,4.405058 9.264053,4.433801 9.269079,4.594603 9.274254,4.612418 9.294273,4.650225 9.298893,4.696188 9.292385,4.726264 9.294062,4.733381 9.292409,4.776725 9.291706,4.780578 9.28605,4.796181 9.273575,4.836622 9.270062,4.847724 9.269566,4.851337 9.252442,4.894928 9.243132,4.914174 9.236415,4.94058 9.233799,4.949462 9.23129,4.957452 9.222315,4.986722 9.223495,4.996379 9.219961,5.004175 9.207224,5.070593 9.206331,5.07847 9.202229,5.084299 9.202406,5.107212 9.19587,5.116913 9.192127,5.122053 9.150347,5.209186 9.122145,5.245277 9.104112,5.276038 9.048431,5.343739 9.045653,5.347386 8.877416,5.501052 8.823045,5.557313 8.809731,5.56724 8.802559,5.57501 8.797185,5.57849 8.79302,5.580779 8.785862,5.586827 8.743021,5.603081 8.740259,5.606974 8.734047,5.610018 8.717983,5.616925 8.655589,5.654048 8.641646,5.657667 8.605086,5.658826 8.590558,5.671605 8.577794,5.682577 8.543222,5.72612 8.542546,5.726549 8.537921,5.729226 8.444941,5.782587 8.423675,5.804992 8.409392,5.822795 8.390489,5.833732 8.364111,5.877527 8.361904,5.881371 8.344336,5.895485 8.340678,5.903374 8.329161,5.912145 8.301944,5.925791 8.292058,5.934762 8.279338,5.951782 8.223053,5.988461 8.188997,6.016114 8.167205,6.036827 8.095914,6.089757 8.04094,6.119897 8.013159,6.129427 7.986036,6.155926 7.957308,6.170913 7.940433,6.183471 7.858841,6.25778 7.836031,6.282442 7.813404,6.304946 7.777297,6.337452 7.767582,6.350197 7.762507,6.366176 7.744604,6.397804 7.736895,6.406719 7.72373,6.416591 7.720215,6.427342 7.705869,6.443565 7.67433,6.465317 7.661261,6.473053 7.649583,6.496257 7.612248,6.547428 7.558471,6.607964 7.519141,6.64946 7.497202,6.676669 7.477022,6.701867 7.408438,6.769436 7.370959,6.831599 7.356836,6.849384 7.339409,6.873963 7.22633,7.045793 7.206353,7.073776 7.141436,7.184617 7.127025,7.209923 7.11442,7.229399 7.028462,7.378584 7.013432,7.394756 6.994294,7.43537 6.981563,7.456754 6.919417,7.527601 6.81032,7.657551 6.793707,7.672797 6.76044,7.69638 6.674967,7.758847 6.638382,7.778946 6.588822,7.811342 6.569302,7.816754 6.460672,7.852182 6.446265,7.852262 6.330021,7.883523 6.222431,7.910432 6.147336,7.92291 6.127317,7.921199 5.994536,7.968785 5.991057,7.970113 5.882976,7.99201 5.856662,7.996436 5.798299,8.011021 5.732184,8.038853 5.640092,8.072832 5.556887,8.085521 5.446555,8.097414 5.406054,8.094075 5.350871,8.098833 5.304153,8.100592 5.260846,8.103477 5.105351,8.127909 5.052833,8.127249 5.037148,8.125564 5.028014,8.115675 5.015949,8.109125 5.003099,8.092579 4.990582,8.083513 4.975266,8.060458 4.937503,8.048503 4.888584,8.057318 4.88463,8.057851 4.862404,8.061436 4.849817,8.067074 4.803631,8.075318 4.788423,8.106043 4.737223,8.158227 4.689093,8.203726 4.580463,8.260222 4.564058,8.263833 4.444542,8.287232 4.214365,8.253607 4.211186,8.255168 4.191644,8.245716 4.168243,8.233739 4.139935,8.216848 4.126314,8.202498 4.09017,8.179868 4.072687,8.180465 4.064496,8.180968 4.032485,8.163293 3.975928,8.132916 3.812498,7.999424 3.772846,7.967199 3.743365,7.948528 3.706414,7.928821 3.675775,7.910814 3.655422,7.899068 3.642728,7.89304 3.631804,7.886625 3.624517,7.880946 3.617348,7.873343 3.520514,7.789414 3.504765,7.779327 3.491551,7.76371 3.41981,7.691346 3.263284,7.573553 3.231552,7.553015 3.210933,7.549064 3.195682,7.544111 3.123746,7.533729 3.083553,7.518061 3.059537,7.512966 3.00979,7.48942 2.953434,7.498011 2.909621,7.474252 2.802693,7.484733 2.776851,7.480386 2.767273,7.489475 2.756985,7.492124 2.719333,7.5289 2.670115,7.534979 2.586118,7.527243 2.544721,7.527935 2.336315,7.551376 2.253763,7.57606 2.247013,7.583491 2.23221,7.591593 2.213925,7.597663 2.182985,7.631874 2.162384,7.627213 2.032932,7.623848 2.025566,7.622983 1.856231,7.587628 1.848665,7.589149 1.832121,7.586064 1.790883,7.56372 1.72461,7.555765 1.636719,7.550821 1.622859,7.545535 1.616331,7.540481 1.590723,7.506745 1.5257,7.498246 1.506028,7.500542 1.465998,7.500855 1.430223,7.493883 1.413539,7.49504 1.344957,7.492579 1.302614,7.483932 1.25184,7.478778 1.114947,7.438024 1.035843,7.437339 1.013138,7.44373 0.928795,7.464578 0.894778,7.480985 0.835786,7.481538 0.783781,7.476887 0.734904,7.451372 0.724229,7.444006 0.72395,7.443984 0.706494,7.427055 0.688394,7.43157 0.675647,7.429809 0.67248,7.430381 0.667641,7.429986 0.636704,7.425836 0.628378,7.42774 0.620841,7.424667 0.610181,7.416366 0.545629,7.351692 0.482765,7.319989 0.424282,7.249129 0.421265,7.244978 0.418404,7.237127 0.4043,7.172249 0.39913,7.128966 0.399275,7.126881 0.384919,6.976743 0.401817,6.670902 0.401339,6.638688 0.40743,6.620309 0.422308,6.549833 0.424958,6.541949 0.449436,6.270545 0.459367,6.197137 0.454993,6.169668 0.453234,6.119552 0.446003,6.090398 0.419206,6.000424 0.417631,5.972235 0.400519,5.922726 0.410427,5.77974 0.410992,5.751569 0.419657,5.722563 0.42428,5.685173 0.42809,5.637472 0.428283,5.58607 0.426787,5.46439 0.426074,5.382253 0.409857,5.339925 0.398446,5.320317 0.395952,5.304349 0.391417,5.273787 0.37028,5.113859 0.364902,5.064961 0.364391,5.057282 0.363569,5.054028 0.363231,5.041497 0.365241,5.029581 0.362302,5.007055 0.344276,4.979014 0.334767,4.968939 0.328873,4.962131 0.322196,4.91863 0.314472,4.876369 0.309317,4.803297 0.320171,4.720618 0.344142,4.589924 0.345036,4.578897 0.346179,4.409415 0.34792,4.343284 0.320843,4.219055 0.32739,3.988479 0.330638,3.945092 0.338124,3.932083 0.368716,3.896657 0.362706,3.87179 0.363217,3.842746 0.386931,3.663276 0.400417,3.586937 0.411495,3.563363 0.418395,3.548987 0.419549,3.540267 0.426472,3.52745 0.429162,3.499426 0.428065,3.440468 0.428231,3.264811 0.424017,3.221928 0.404605,3.163354 0.404614,3.132022 0.410687,3.046211 0.418419,2.936069 0.41907,2.898715 0.449839,2.807969 0.452603,2.797955 0.452891,2.735807 0.455106,2.680425 0.437326,2.601613 0.425905,2.48578 0.423607,2.436296 0.429642,2.3999 0.42212,2.359009 0.400831,2.260185 0.391219,2.009229 0.383345,1.918991 0.383415,1.913027 0.383667,1.907256 0.398991,1.828942 0.400566,1.816855 0.399491,1.80269 0.404582,1.760324 0.403834,1.730363 0.411696,1.711999 0.46495,1.619446 0.585138,1.506762 0.614299,1.487802 0.62743,1.484169 0.684623,1.481137 0.710056,1.482677 0.772378,1.43914 0.816296,1.434808 0.871398,1.437294 0.906039,1.445504 0.933989,1.446254 0.937357,1.44728 0.948765,1.452927 1.020342,1.468638 1.030124,1.472114 1.066101,1.471453 1.302641,1.417642 1.307714,1.416589 1.320367,1.420362 1.344962,1.421363 1.367454,1.416532 1.393134,1.415893 1.415978,1.418019 1.456443,1.412616 1.495636,1.40738 1.515846,1.40955 1.530852,1.413017 1.597619,1.38839 1.621145,1.366419 1.672836,1.359238 1.851189,1.348902 1.931099,1.329493 1.978169,1.306343 1.983227,1.300626 1.995445,1.298907 2.140985,1.285837 2.186073,1.281944 2.189001,1.283037 2.203291,1.300654 2.250339,1.321145 2.307353,1.363635 2.454461,1.377743 2.589867,1.386823 2.633678,1.375258 2.707964,1.388341 2.712189,1.389761 2.726063,1.399824 2.784962,1.431186 2.903528,1.418258 3.034472,1.412599 3.045662,1.412374 3.051547,1.410125 3.069395,1.406772 3.158396,1.385876 3.234646,1.364973 3.242391,1.355503 3.316693,1.289362 3.427518,1.217582 3.489694,1.153645 3.503883,1.133894 3.545347,1.091496 3.590176,1.055764 3.612265,1.035845 3.624742,1.027463 3.648394,1.018732 3.658398,1.008092 3.728437,0.970805 3.74178,0.966698 3.794439,0.937773 3.821906,0.920256 3.84788,0.882416 3.89237,0.835461 3.932861,0.80239 3.992263,0.76549 4.028751,0.744473 4.095926,0.729509 4.110303,0.717063 4.162116,0.68635 4.192217,0.665106 4.202301,0.659247 4.204731,0.658498 4.206353,0.658086 4.211446,0.658283 4.336751,0.634922 4.434971,0.626186" style="fill: white" /><polygon type="hole" points="4.29005,2.6543 4.287115,2.654418 4.273788,2.658231 4.063485,2.718526 4.050337,2.726762 4.030985,2.740679 3.846713,2.89295 3.808965,2.926037 3.663114,3.100531 3.652368,3.114495 3.645462,3.122521 3.591924,3.218045 3.563609,3.287883 3.372272,3.573073 3.366516,3.581018 3.343009,3.644178 3.306367,3.717505 3.21501,4.005895 3.208547,4.026114 3.206458,4.037397 3.206568,4.039366 3.203839,4.063684 3.177632,4.351184 3.179755,4.366743 3.175475,4.476311 3.179793,4.643029 3.178686,4.654385 3.191318,4.682282 3.191388,4.700666 3.203861,4.811732 3.224905,4.941083 3.26379,5.102259 3.29283,5.179431 3.37932,5.347152 3.390594,5.378177 3.427076,5.4303 3.572921,5.64164 3.591724,5.694025 3.658636,5.808633 3.807535,5.985981 3.861485,6.037795 3.902641,6.0694 4.050178,6.185509 4.063385,6.193137 4.172347,6.224787 4.308163,6.268638 4.383004,6.270828 4.432605,6.286698 4.457935,6.28578 4.516588,6.298439 4.58239,6.276736 4.694906,6.247941 4.746969,6.255544 4.83193,6.280692 4.87998,6.28227 4.978855,6.281337 5.052102,6.283746 5.199057,6.274002 5.260029,6.257247 5.486881,6.195994 5.70012,6.049216 5.732957,6.02822 5.748351,6.022223 5.755337,6.022513 5.825409,6.01018 5.849604,6.007242 5.965211,5.939184 6.026069,5.88801 6.050195,5.887857 6.072735,5.883944 6.148039,5.833084 6.164892,5.819159 6.208701,5.806568 6.258334,5.79717 6.339578,5.769299 6.384681,5.737023 6.453943,5.653637 6.488928,5.624708 6.603118,5.472354 6.674463,5.35522 6.718005,5.28607 6.744072,5.231552 6.792532,5.088622 6.808503,5.044826 6.81611,4.982511 6.866401,4.852947 6.874104,4.821911 6.877551,4.75884 6.871185,4.679156 6.892989,4.61966 6.901648,4.589738 6.916415,4.470132 6.903769,4.3271 6.891176,4.269347 6.873147,4.208508 6.879962,4.148946 6.876522,4.064764 6.86334,4.026444 6.842195,3.978861 6.827554,3.915123 6.728615,3.677802 6.717905,3.650236 6.714294,3.643394 6.711339,3.636842 6.59861,3.437983 6.482151,3.289359 6.441608,3.240223 6.385673,3.176096 6.343173,3.14446 6.259729,3.115659 6.206489,3.106217 6.179034,3.093043 6.13973,3.064162 6.061394,3.031391 6.017924,3.019107 5.859599,2.911113 5.85142,2.90501 5.838948,2.902473 5.730181,2.878013 5.672156,2.823944 5.528075,2.741701 5.457948,2.70942 5.360832,2.681743 5.182479,2.630765 5.010757,2.629903 4.941319,2.625464 4.704172,2.667266 4.669466,2.654318 4.522885,2.624163 4.460682,2.619451" style="fill: black" /><polygon type="contour" points="6.361963,3.436717 6.367975,3.440027 6.37497,3.443267 6.398946,3.456337 6.402795,3.465289 6.420273,3.519694 6.42176,3.602729 6.418168,3.641135 6.410488,3.677823 6.407992,3.777584 6.410115,3.81397 6.403146,3.843245 6.428195,4.110016 6.42942,4.127083 6.430083,4.136858 6.431723,4.143185 6.433876,4.157709 6.445418,4.255129 6.449931,4.324152 6.449343,4.329987 6.443733,4.416442 6.453464,4.464329 6.45512,4.498142 6.449022,4.597116 6.425976,4.83287 6.418554,4.873151 6.418568,4.896589 6.412703,4.957397 6.410625,5.094677 6.411142,5.149235 6.422964,5.302096 6.425621,5.364062 6.420215,5.391775 6.40856,5.425619 6.388263,5.453364 6.372828,5.459658 6.309759,5.472844 6.286415,5.461229 6.241543,5.442959 6.217874,5.414909 6.192087,5.379851 6.171568,5.359439 6.129497,5.28074 6.106639,5.240998 6.089661,5.178767 6.06485,5.10447 6.061712,5.009622 6.058612,4.953029 6.068731,4.80782 6.068825,4.806643 6.069046,4.80562 6.07038,4.800051 6.097512,4.667374 6.102651,4.635564 6.10633,4.620019 6.106829,4.591307 6.11104,4.412177 6.107372,4.311706 6.102763,4.292355 6.090626,4.262677 6.088047,4.250107 6.0856,4.15003 6.070894,4.099718 6.068435,4.057583 6.06705,4.053287 6.055907,3.929199 6.070691,3.87389 6.076373,3.765863 6.07776,3.759983 6.083327,3.749927 6.102537,3.701591 6.118303,3.65786 6.125429,3.644358 6.180213,3.548494 6.23019,3.485743 6.285579,3.437663 6.286368,3.436921 6.287343,3.436522 6.288082,3.436483" style="fill: white" />
</svg>
