<svg width="13.600213" height="8.910821">
<polygon type="contour" points="6.070078,1.779548 6.082727,1.784346 6.178712,1.798469 6.220001,1.807186 6.248278,1.810711 6.269758,1.817855 6.318373,1.830128 6.339454,1.829764 6.394652,1.842446 6.447772,1.843266 6.469938,1.843698 6.490335,1.85258 6.495939,1.849919 6.508718,1.853418 6.535806,1.841406 6.538581,1.841446 6.542437,1.841882 6.633555,1.865602 6.673338,1.868358 6.783839,1.890564 6.800353,1.898683 6.819412,1.899248 6.870299,1.89588 6.913305,1.897458 6.988208,1.877881 7.01639,1.873454 7.275216,1.874612 7.287697,1.874561 7.297362,1.876872 7.316034,1.882625 7.346389,1.882352 7.367806,1.869735 7.385007,1.865138 7.439732,1.859589 7.501431,1.85862 7.540101,1.864869 7.598744,1.88108 7.64396,1.890935 7.657519,1.898044 7.693243,1.910606 7.735781,1.939325 7.765521,1.918154 7.80019,1.90363 7.874221,1.899711 7.902067,1.897713 7.916578,1.895826 7.935775,1.889853 7.990449,1.861287 8.024156,1.850664 8.170645,1.883489 8.175562,1.883686 8.202034,1.89331 8.202361,1.893424 8.216619,1.905678 8.219162,1.90795 8.246107,2.031857 8.248015,2.063047 8.281177,2.122018 8.323967,2.166372 8.450737,2.24645 8.45119,2.246836 8.451294,2.246941 8.453669,2.249376 8.557239,2.339856 8.565759,2.344735 8.571827,2.348001 8.650649,2.404322 8.671368,2.421203 8.70369,2.446023 8.710445,2.451871 8.724089,2.463837 8.759108,2.497396 8.790421,2.512419 8.792551,2.51516 8.851308,2.548263 8.85865,2.556506 8.866036,2.559271 8.878489,2.567086 8.881866,2.572248 8.894221,2.576702 8.901335,2.584918 8.924352,2.600719 8.964358,2.596518 8.964663,2.596527 8.987692,2.605966 8.991975,2.605327 8.999029,2.6077 9.05026,2.614996 9.064,2.615714 9.076493,2.619426 9.215072,2.669017 9.216724,2.66962 9.217598,2.669971 9.236525,2.689651 9.423697,2.762659 9.4369,2.767254 9.474228,2.777158 9.514774,2.795778 9.531226,2.805385 9.572152,2.825503 9.596137,2.832764 9.634009,2.841991 9.642235,2.848746 9.652786,2.850896 9.774778,2.921856 9.775896,2.922707 9.778587,2.925113 9.857507,2.983161 9.908745,3.057471 9.972317,3.149791 9.994319,3.182504 10.113899,3.345323 10.132103,3.375701 10.258424,3.479615 10.28643,3.494786 10.300597,3.495846 10.324939,3.505026 10.356538,3.53226 10.426414,3.570419 10.446669,3.57986 10.464039,3.584685 10.591678,3.614944 10.612961,3.611617 10.680046,3.610028 10.708997,3.61968 10.714412,3.620313 10.716017,3.620993 10.728536,3.627423 10.770971,3.647997 10.804666,3.675324 10.826647,3.685322 10.853367,3.701208 10.967964,3.771165 11.000439,3.792784 11.005988,3.797183 11.010349,3.803189 11.153279,4.020875 11.153944,4.022227 11.154823,4.025393 11.196352,4.129722 11.211056,4.165667 11.206913,4.184565 11.208412,4.196039 11.203831,4.202636 11.219723,4.242072 11.226652,4.25303 11.230624,4.271471 11.231757,4.315015 11.229498,4.336181 11.225783,4.378494 11.222653,4.38891 11.212532,4.415604 11.192961,4.44988 11.204072,4.4831 11.209075,4.507162 11.221566,4.519968 11.225173,4.533465 11.225998,4.548324 11.228483,4.640417 11.227914,4.655875 11.209252,4.69501 11.210283,4.708528 11.205782,4.720578 11.21125,4.745471 11.161695,4.868608 11.158208,4.879629 11.12571,4.932633 11.076094,5.017902 11.054784,5.044405 11.017079,5.102814 11.009643,5.111697 10.981054,5.129093 10.86032,5.206253 10.795007,5.244043 10.788675,5.251582 10.780529,5.256257 10.756174,5.269442 10.729261,5.285833 10.708693,5.293605 10.689749,5.300751 10.677359,5.298333 10.637899,5.292957 10.61287,5.30017 10.596932,5.295793 10.582309,5.300022 10.575774,5.301854 10.426132,5.346276 10.40817,5.356135 10.311705,5.407801 10.305647,5.410448 10.265104,5.425466 10.239088,5.446352 10.177576,5.498869 10.067702,5.594751 10.05708,5.605986 10.026564,5.67508 9.9622,5.792268 9.936093,5.833949 9.783275,5.980925 9.776291,5.98836 9.775563,5.989052 9.774527,5.98984 9.683864,6.047001 9.668691,6.050201 9.658883,6.058936 9.631916,6.070099 9.554914,6.080795 9.540385,6.093651 9.506584,6.109681 9.438949,6.143625 9.266775,6.205823 9.258464,6.208537 9.25104,6.213429 9.148429,6.259909 9.070286,6.294327 9.062901,6.296497 9.055509,6.296591 8.99948,6.303807 8.991488,6.306431 8.986991,6.305774 8.961466,6.312166 8.944361,6.313036 8.917015,6.30738 8.901331,6.326695 8.883864,6.332085 8.878483,6.344517 8.871245,6.346879 8.852427,6.362834 8.799671,6.391951 8.79334,6.395071 8.778198,6.409717 8.722693,6.449093 8.708268,6.461186 8.683878,6.479694 8.647977,6.509657 8.624072,6.530741 8.619656,6.533332 8.617116,6.536125 8.613172,6.53702 8.603104,6.546549 8.567246,6.576917 8.373246,6.721005 8.286065,6.787851 8.249086,6.843503 8.252019,6.87803 8.219835,7.002583 8.218846,7.004344 8.217823,7.005436 8.199686,7.021743 8.183948,7.030525 8.164959,7.04102 8.046212,7.063509 8.034643,7.061788 7.991173,7.049965 7.902426,7.013002 7.885584,7.011429 7.857222,7.010076 7.823649,7.008428 7.81294,7.008038 7.767719,6.994659 7.733861,6.973914 7.693017,7.002059 7.641752,7.020134 7.604608,7.025541 7.574609,7.040615 7.563515,7.043998 7.411714,7.054043 7.410098,7.053768 7.405776,7.050269 7.333878,7.028058 7.300437,7.034578 7.284528,7.036342 7.013062,7.036057 6.966505,7.033926 6.910311,7.018566 6.867677,7.008635 6.81242,7.00224 6.793219,7.01168 6.766853,7.012684 6.719478,7.020875 6.704131,7.02906 6.573443,7.047791 6.523127,7.064506 6.501901,7.055383 6.465697,7.06678 6.390628,7.084665 6.383809,7.085433 6.368936,7.081602 6.349365,7.081733 6.331857,7.085652 6.284792,7.086025 6.236044,7.101226 6.216333,7.100213 6.166911,7.111535 6.132074,7.111283 6.109881,7.120853 6.041923,7.136444 5.996763,7.125787 5.970024,7.128748 5.948162,7.114924 5.810628,7.130112 5.790105,7.133363 5.767586,7.132289 5.763192,7.131229 5.745497,7.127672 5.716693,7.109807 5.695666,7.105184 5.613533,7.104763 5.576121,7.103725 5.511359,7.105778 5.508926,7.105775 5.507739,7.105203 5.497665,7.10452 5.32205,7.092086 5.298133,7.091884 5.280171,7.094409 5.260787,7.084574 5.245711,7.083553 5.182819,7.069515 5.16672,7.061681 5.156006,7.060074 5.131132,7.059012 5.116121,7.060961 5.092871,7.057643 5.043969,7.056566 5.014267,7.055821 5.013077,7.056008 5.009982,7.055691 4.982832,7.050213 4.927685,7.044222 4.92084,7.044204 4.910823,7.045307 4.888443,7.048079 4.870987,7.040624 4.855812,7.040585 4.844162,7.039757 4.786143,7.025388 4.699331,6.998841 4.576983,6.989339 4.557408,6.98523 4.548124,6.982973 4.496948,6.981289 4.427936,6.971253 4.406811,6.986539 4.385723,7.010033 4.268971,7.101091 4.252198,7.100274 4.224007,7.098077 4.202999,7.091618 4.179537,7.0599 4.169492,7.054448 4.156616,7.039162 4.140888,6.990341 4.134172,6.959463 4.129724,6.89296 4.114605,6.831204 4.065484,6.801335 3.921136,6.753638 3.902697,6.748116 3.844233,6.734612 3.828833,6.721189 3.803464,6.707469 3.789575,6.709648 3.745942,6.699116 3.639211,6.671259 3.623187,6.671016 3.593018,6.682639 3.587999,6.683913 3.538729,6.696563 3.496999,6.697406 3.490504,6.694605 3.474333,6.683406 3.446748,6.674009 3.413716,6.648763 3.374505,6.642628 3.365293,6.643757 3.337331,6.63837 3.327753,6.639661 3.315676,6.638352 3.268686,6.642207 3.229382,6.632491 3.152446,6.618664 3.111209,6.607519 3.09602,6.600651 3.085279,6.591609 3.009037,6.571011 2.973251,6.559125 2.968815,6.559169 2.9461,6.554474 2.932011,6.552163 2.930789,6.551801 2.921388,6.548558 2.887864,6.537838 2.877087,6.537803 2.833922,6.514686 2.790859,6.495676 2.77891,6.489849 2.773171,6.487033 2.749141,6.473074 2.667833,6.428152 2.658973,6.414894 2.634987,6.385561 2.62259,6.375467 2.614454,6.368446 2.605768,6.357795 2.560831,6.318383 2.534274,6.303412 2.515231,6.305096 2.484324,6.300689 2.45263,6.290148 2.381999,6.259215 2.334011,6.246877 2.270701,6.2242 2.171465,6.172503 2.100639,6.147325 2.098765,6.141756 2.073471,6.094861 2.075752,6.002053 2.054421,5.959148 2.0381,5.918188 2.04973,5.888565 2.038561,5.827706 2.038016,5.818011 2.037415,5.815157 2.042488,5.80791 2.031767,5.762119 2.039422,5.721412 2.036946,5.707713 2.030454,5.640376 2.029176,5.629414 2.017839,5.485776 2.019366,5.467376 2.036615,5.328965 2.050598,5.171061 2.048713,5.121715 2.047156,5.102949 2.045029,5.093738 1.995072,4.89306 1.979577,4.838487 1.977002,4.802591 1.978368,4.753105 1.993373,4.735747 1.995516,4.723293 2.014849,4.712847 2.029871,4.689869 2.044699,4.673572 2.047569,4.664301 2.067404,4.651087 2.086903,4.631466 2.095473,4.620574 2.119558,4.542283 2.117856,4.516934 2.115547,4.366283 2.110251,4.333696 2.106085,4.320571 2.106233,4.319885 2.09214,4.278672 2.076776,4.271198 2.067449,4.260364 2.045868,4.246301 2.039753,4.230298 2.03006,4.221009 2.023648,4.211059 2.012757,4.198335 2.009825,4.196649 1.983781,4.17106 1.972709,4.151928 1.970337,4.136914 1.984203,4.082535 1.981332,3.976077 2.010566,3.893885 2.021758,3.869163 2.037386,3.847215 2.047264,3.824157 2.048647,3.798916 2.030497,3.516975 2.030464,3.514595 2.019439,3.406023 2.032159,3.246268 2.036572,3.207839 2.036893,3.196045 2.040611,3.187638 2.03474,3.132663 2.040345,3.106965 2.037464,3.096658 2.037724,3.096011 2.038133,3.091737 2.040569,3.083433 2.039304,3.073419 2.042626,3.021395 2.043484,3.014344 2.033658,2.950764 2.104735,2.766736 2.125746,2.752797 2.211755,2.723147 2.235378,2.710897 2.242518,2.70599 2.250823,2.702647 2.273057,2.694492 2.284194,2.691642 2.305105,2.682881 2.520433,2.602924 2.535267,2.605849 2.589671,2.56933 2.603479,2.551661 2.616533,2.539953 2.632403,2.519162 2.642286,2.513571 2.655651,2.498436 2.659672,2.49591 2.683018,2.472108 2.683661,2.470849 2.686356,2.469224 2.689012,2.467919 2.715659,2.455136 2.877249,2.373822 2.881999,2.372037 2.913546,2.368723 2.969254,2.353408 2.988127,2.350094 3.089717,2.321058 3.100264,2.309234 3.110135,2.3046 3.119388,2.29652 3.166648,2.285979 3.221379,2.284557 3.28451,2.273204 3.312633,2.271841 3.332199,2.271062 3.352585,2.267523 3.367324,2.271168 3.375337,2.268933 3.407193,2.271723 3.437004,2.245154 3.443978,2.24571 3.462102,2.231692 3.476241,2.224381 3.481704,2.223529 3.496261,2.215111 3.507025,2.214187 3.529689,2.212789 3.550564,2.213951 3.601242,2.234018 3.609501,2.232403 3.626029,2.236624 3.638578,2.244846 3.792647,2.202554 3.814435,2.197381 3.835317,2.187609 3.849748,2.179517 3.901911,2.163729 3.911308,2.161779 3.977836,2.141103 3.995721,2.135001 4.009474,2.129886 4.024725,2.124488 4.048193,2.114556 4.070095,2.108338 4.09136,2.091498 4.116103,2.078897 4.120826,1.99882 4.161569,1.880549 4.164702,1.863489 4.170975,1.850665 4.189636,1.829647 4.202258,1.822403 4.235279,1.814546 4.274072,1.810741 4.346794,1.879623 4.365106,1.89165 4.416248,1.937637 4.459643,1.937126 4.492304,1.948286 4.509716,1.942872 4.512131,1.943291 4.565021,1.923194 4.651644,1.906491 4.704614,1.896047 4.719183,1.898974 4.766836,1.893692 4.77228,1.89146 4.776848,1.89116 4.815832,1.877015 4.855025,1.871447 4.870986,1.870997 4.886971,1.864471 4.906327,1.866597 4.919003,1.867011 4.939628,1.862088 4.958927,1.867092 5.004361,1.857266 5.010279,1.856008 5.013807,1.85561 5.03747,1.855079 5.100261,1.852495 5.114288,1.851168 5.122426,1.852031 5.156427,1.851982 5.166533,1.849258 5.182322,1.84419 5.236567,1.827685 5.272913,1.818193 5.294306,1.820308 5.31273,1.816705 5.397836,1.819551 5.429593,1.819122 5.449567,1.820253 5.468067,1.821333 5.535844,1.80626 5.624377,1.797567 5.704363,1.802972 5.75811,1.780215 5.763653,1.780339 5.830726,1.785017 5.89725,1.789996 5.929952,1.794655 5.945887,1.78856 5.960761,1.788594 5.990794,1.780441 5.994312,1.778628 6.012043,1.780402 6.017417,1.779179 6.044739,1.776004" style="fill: white" />
</svg>
