<svg width="13.600213" height="8.910821">
<polygon type="contour" points="4.738976,0.722825 4.746385,0.723763 4.762489,0.724821 4.791263,0.729143 4.798018,0.727426 4.946847,0.766371 5.001874,0.784356 5.007406,0.788915 5.066534,0.797215 5.11481,0.799531 5.117701,0.800735 5.296221,0.828099 5.310205,0.829935 5.322521,0.82783 5.379969,0.817011 5.398923,0.801923 5.419212,0.808257 5.438287,0.788979 5.45634,0.792873 5.490486,0.777761 5.507914,0.772846 5.535557,0.774868 5.593007,0.76975 5.612932,0.781044 5.628526,0.781644 5.657996,0.784187 5.694693,0.793704 5.726055,0.807378 5.79165,0.820829 5.93055,0.860979 5.946449,0.864168 5.961176,0.870103 5.970925,0.875011 5.97456,0.878222 5.98905,0.894851 6.010125,0.903019 6.013508,0.906452 6.163889,0.969607 6.194331,0.989066 6.228375,0.988198 6.248474,0.980683 6.286132,0.976508 6.287363,0.9768 6.287528,0.976857 6.288276,0.977127 6.329357,0.991811 6.419659,1.025601 6.438708,1.038169 6.489472,1.06593 6.508081,1.091735 6.52604,1.131691 6.55065,1.141627 6.608991,1.1906 6.674414,1.233254 6.760506,1.304879 6.798799,1.347199 6.824772,1.387934 6.846311,1.405411 6.853805,1.411348 6.867041,1.41576 6.90023,1.434995 6.965036,1.488804 7.000445,1.526206 7.065586,1.60887 7.091994,1.650343 7.096033,1.660433 7.115173,1.674504 7.130563,1.682427 7.140386,1.693006 7.203087,1.766708 7.240186,1.82837 7.253688,1.865945 7.252625,1.871114 7.251328,1.8749 7.243006,1.918049 7.265075,1.966933 7.271521,1.984851 7.289782,2.014237 7.315324,2.018972 7.326644,2.021805 7.34708,2.033385 7.361271,2.047114 7.429402,2.138698 7.491536,2.217429 7.511815,2.231387 7.535998,2.257511 7.55477,2.26186 7.572289,2.273117 7.604009,2.305796 7.618647,2.317218 7.645057,2.341378 7.816608,2.476918 7.833926,2.489088 7.83964,2.492008 7.848335,2.500516 7.879972,2.519867 7.888927,2.535807 7.905385,2.547805 7.911178,2.557705 7.950043,2.575791 7.974728,2.587161 7.990073,2.593701 8.078592,2.645356 8.10699,2.670379 8.123293,2.681066 8.178028,2.716904 8.206541,2.733298 8.212204,2.74018 8.245099,2.749315 8.258512,2.749124 8.262655,2.752884 8.273303,2.753299 8.282338,2.756709 8.333119,2.796492 8.357613,2.817149 8.42373,2.85006 8.49064,2.894571 8.501414,2.901665 8.539468,2.934094 8.540022,2.934677 8.56862,2.966894 8.579004,2.997885 8.595998,3.002896 8.596093,3.00302 8.597734,3.005322 8.631979,3.054429 8.636488,3.059366 8.683194,3.115046 8.69278,3.125805 8.705958,3.138241 8.720198,3.143196 8.729186,3.157167 8.746422,3.164072 8.76144,3.168953 8.804124,3.189981 8.809006,3.193379 8.816813,3.199407 8.867284,3.239339 8.90341,3.267416 8.94111,3.300257 9.024688,3.375297 9.072499,3.401515 9.091982,3.435665 9.110751,3.463637 9.115715,3.477956 9.179933,3.508514 9.186357,3.514588 9.201809,3.523686 9.236137,3.553131 9.244089,3.569333 9.256917,3.585169 9.264849,3.593511 9.280534,3.609763 9.317872,3.659091 9.33256,3.680273 9.368849,3.725246 9.369955,3.733043 9.383003,3.746348 9.40822,3.788929 9.415782,3.810375 9.427109,3.819043 9.455902,3.859078 9.465695,3.876381 9.476593,3.909938 9.51125,3.971922 9.516911,4.012066 9.517321,4.025045 9.528659,4.055923 9.531882,4.059354 9.551967,4.115106 9.555833,4.150145 9.558777,4.153864 9.55922,4.15966 9.597146,4.35538 9.602228,4.380295 9.601853,4.386293 9.61388,4.429919 9.611904,4.503127 9.607845,4.519036 9.59868,4.533562 9.600431,4.567835 9.55894,4.751332 9.55901,4.752613 9.558087,4.754369 9.5524,4.796094 9.547838,4.804795 9.527081,4.860522 9.517606,4.882496 9.5169,4.901851 9.51042,4.940875 9.493747,4.978573 9.453237,5.055702 9.442725,5.073947 9.439666,5.079521 9.436932,5.08094 9.412788,5.107233 9.405505,5.126202 9.382607,5.165799 9.372415,5.179009 9.368226,5.181959 9.359192,5.199682 9.293243,5.2897 9.212545,5.374024 9.18707,5.396518 9.181261,5.400174 9.178613,5.402376 9.147686,5.412995 9.122039,5.436556 9.107273,5.447106 9.094698,5.4743 9.077756,5.503667 8.795005,5.722384 8.775288,5.739108 8.768796,5.740381 8.764626,5.743089 8.714283,5.760613 8.692195,5.7803 8.67892,5.787737 8.654155,5.818501 8.620489,5.86009 8.507204,6.004354 8.503115,6.008693 8.49489,6.016377 8.286897,6.152067 8.277837,6.156322 8.262659,6.161436 8.200222,6.171167 8.180001,6.189515 8.145407,6.214905 8.133584,6.226765 8.024526,6.290951 8.001954,6.306383 7.931032,6.345432 7.91346,6.353591 7.894357,6.365914 7.881878,6.390774 7.876025,6.396304 7.770315,6.487932 7.643096,6.570697 7.615109,6.597156 7.587206,6.616549 7.549563,6.656607 7.526223,6.66318 7.513933,6.677793 7.495344,6.68977 7.422247,6.793274 7.350331,6.874364 7.347093,6.877881 7.343811,6.881023 7.337568,6.884996 7.320902,6.893697 7.289129,6.898426 7.271671,6.926553 7.262492,6.953188 7.254986,6.988247 7.249125,7.050382 7.248818,7.05774 7.242598,7.08527 7.198804,7.14572 7.16527,7.186044 7.126404,7.233891 7.104906,7.241429 7.094125,7.256145 7.086266,7.269626 7.062046,7.304032 7.025705,7.347812 6.969739,7.413739 6.94076,7.444619 6.898356,7.477145 6.851794,7.500962 6.752921,7.608955 6.700003,7.65976 6.672862,7.68695 6.659296,7.699241 6.642423,7.71704 6.632978,7.723404 6.613643,7.736441 6.577981,7.752412 6.54849,7.768657 6.532542,7.787597 6.508938,7.824217 6.503133,7.829421 6.463431,7.850585 6.312897,7.92687 6.287642,7.934435 6.284844,7.93516 6.245154,7.929966 6.235882,7.924484 6.214395,7.921572 6.196842,7.925917 6.173628,7.934031 6.048645,7.989288 5.99043,8.013137 5.971407,8.033679 5.949127,8.044161 5.93283,8.0495 5.910145,8.057882 5.80334,8.086446 5.75267,8.099995 5.751806,8.100401 5.653228,8.127595 5.615946,8.136837 5.589673,8.139174 5.565844,8.138591 5.515801,8.136259 5.48482,8.130923 5.4689,8.123952 5.447906,8.120563 5.430751,8.113706 5.385935,8.099378 5.376813,8.094018 5.322639,8.083834 5.310708,8.081746 5.299243,8.083212 5.083796,8.116693 5.079919,8.116885 5.076159,8.117923 5.06373,8.119251 5.04931,8.118009 4.965032,8.145347 4.94566,8.144588 4.880907,8.151363 4.705712,8.180092 4.689625,8.184055 4.664759,8.183976 4.620154,8.175744 4.500037,8.15174 4.304294,8.138515 4.266296,8.126673 4.238808,8.116436 4.205246,8.092597 4.197891,8.094263 4.189659,8.084526 4.158907,8.077444 4.148858,8.075749 4.14754,8.07538 4.018693,8.015893 3.98237,8.021753 3.918616,8.001528 3.857306,7.978589 3.838616,7.971717 3.802561,7.954633 3.775435,7.943288 3.743833,7.931828 3.741592,7.930772 3.739152,7.92917 3.736188,7.927132 3.719564,7.918216 3.706618,7.897686 3.68479,7.883366 3.663081,7.874919 3.479041,7.789867 3.465198,7.783966 3.459707,7.778998 3.452359,7.771103 3.448902,7.768026 3.425215,7.746408 3.364772,7.689403 3.337831,7.675661 3.284921,7.654666 3.230827,7.637359 3.191255,7.614908 3.181432,7.610112 3.178817,7.608177 3.156784,7.589283 3.064576,7.5135 3.042866,7.500144 3.032895,7.485926 3.000924,7.486341 2.90401,7.47284 2.86771,7.465821 2.853,7.461231 2.691899,7.385009 2.675593,7.378893 2.563083,7.325244 2.536071,7.308486 2.483096,7.290719 2.474308,7.285705 2.464426,7.264498 2.451284,7.26197 2.447409,7.258829 2.415903,7.255888 2.382585,7.272191 2.320714,7.316676 2.260094,7.340795 2.223434,7.40929 2.202249,7.437227 2.138101,7.472314 2.102001,7.493511 2.083871,7.500987 2.026568,7.512722 2.012386,7.511509 1.997291,7.514402 1.990471,7.511983 1.974699,7.5123 1.922424,7.49498 1.876801,7.462106 1.868251,7.451315 1.844302,7.443003 1.811287,7.427682 1.777617,7.423384 1.77015,7.420847 1.68048,7.366383 1.657984,7.320875 1.627859,7.289994 1.553683,7.252954 1.443216,7.193644 1.435243,7.192415 1.417631,7.188095 1.403022,7.188347 1.387611,7.18278 1.35991,7.183501 1.326235,7.185568 1.305227,7.183938 1.287639,7.187903 1.276089,7.185615 1.259696,7.182186 1.258978,7.182102 1.222954,7.169524 1.200609,7.195184 1.195549,7.198648 1.184043,7.205063 1.17961,7.208533 1.1472,7.212961 1.117134,7.215878 1.084038,7.214462 1.040592,7.202587 0.978534,7.188175 0.958782,7.16574 0.921837,7.118588 0.889998,7.030469 0.853711,7.008998 0.831642,6.962379 0.799082,6.895357 0.801379,6.828967 0.794241,6.772834 0.800367,6.760609 0.799394,6.719821 0.776654,6.677277 0.773537,6.666154 0.768398,6.656417 0.76324,6.646902 0.73143,6.603807 0.729625,6.600687 0.730245,6.599527 0.657153,6.280951 0.654122,6.265488 0.630921,6.220702 0.628442,6.208433 0.59499,5.968215 0.595015,5.939051 0.618546,5.912844 0.583709,5.661517 0.582081,5.649391 0.581128,5.646324 0.58093,5.643395 0.581029,5.63643 0.565157,5.412146 0.567962,5.382333 0.556434,5.313203 0.524752,5.120647 0.51528,5.108699 0.512619,5.095968 0.4894,5.064487 0.464378,5.005025 0.447008,4.819778 0.43938,4.751289 0.435995,4.704474 0.465586,4.601564 0.496745,4.57409 0.49704,4.536053 0.495895,4.388359 0.497291,4.337133 0.470315,4.313825 0.468357,4.304022 0.459951,4.293892 0.451878,4.271873 0.447565,4.237624 0.4456,4.19195 0.448503,4.056476 0.456976,3.943409 0.458992,3.92096 0.472796,3.887389 0.488289,3.864644 0.515543,3.802508 0.525396,3.790475 0.537761,3.722574 0.541431,3.701575 0.556425,3.59599 0.569231,3.524415 0.565041,3.498356 0.574431,3.33491 0.575115,3.327259 0.587963,3.234403 0.619169,2.990146 0.60085,2.973767 0.601151,2.967915 0.623117,2.83346 0.654378,2.645812 0.661002,2.603107 0.665198,2.590599 0.678847,2.524028 0.680756,2.494046 0.690058,2.454441 0.706996,2.380736 0.72843,2.313572 0.730719,2.309118 0.733305,2.306117 0.783905,2.236216 0.79171,2.218221 0.797993,2.159511 0.787179,2.105477 0.800203,2.034044 0.818017,1.969786 0.829619,1.95142 0.862503,1.898485 0.887295,1.885255 0.900903,1.828601 0.904227,1.817067 0.908665,1.79173 0.924723,1.775232 0.973974,1.725283 0.989864,1.715654 1.041715,1.702011 1.082766,1.696139 1.11335,1.695045 1.170869,1.700865 1.171437,1.70095 1.178798,1.704915 1.200775,1.716631 1.202979,1.718471 1.222457,1.741806 1.260858,1.728739 1.268582,1.730284 1.287305,1.723546 1.287782,1.723502 1.2929,1.730005 1.326059,1.725527 1.357237,1.727538 1.385597,1.729786 1.404379,1.724007 1.415556,1.724153 1.433123,1.719347 1.46918,1.710481 1.484066,1.696307 1.489576,1.68721 1.521781,1.674069 1.645676,1.599132 1.688634,1.5438 1.69495,1.539379 1.716954,1.526619 1.796624,1.481384 1.816216,1.481607 1.868313,1.460871 1.881961,1.44491 1.898473,1.427086 1.941688,1.406344 1.965371,1.399777 1.993319,1.404682 2.024097,1.403215 2.047962,1.404732 2.062176,1.406633 2.115124,1.433304 2.193725,1.466849 2.20389,1.474188 2.210503,1.482933 2.228465,1.51987 2.236416,1.542919 2.2604,1.571193 2.362048,1.627367 2.444132,1.669536 2.469867,1.627414 2.479434,1.623248 2.505049,1.614524 2.581323,1.574848 2.656697,1.544401 2.669743,1.54346 2.710965,1.509603 2.719485,1.505554 2.735161,1.497946 2.818669,1.464383 2.849929,1.455534 2.86779,1.445856 2.903408,1.437288 2.927647,1.434657 2.968094,1.432895 3.021896,1.426071 3.041088,1.416489 3.048995,1.407616 3.068416,1.395811 3.075714,1.391046 3.091515,1.376626 3.097129,1.369946 3.102254,1.366646 3.105791,1.363202 3.132469,1.343087 3.150712,1.322162 3.22323,1.28164 3.265416,1.260437 3.312536,1.245484 3.336577,1.235143 3.356271,1.220972 3.381771,1.208361 3.392205,1.195743 3.459952,1.132662 3.465865,1.127395 3.488328,1.114909 3.617111,1.052543 3.658491,1.036824 3.684545,1.028334 3.706508,1.014127 3.719353,0.993556 3.737184,0.983812 3.741805,0.980745 3.747897,0.977937 3.773,0.966917 3.851163,0.929698 3.906622,0.913229 3.921068,0.903618 3.934708,0.901438 3.971007,0.893543 4.024183,0.893685 4.140865,0.840618 4.146191,0.837428 4.149806,0.836052 4.154583,0.834691 4.191291,0.827645 4.247888,0.795475 4.262386,0.784195 4.364878,0.766682 4.386136,0.76157 4.424966,0.75555 4.443864,0.754169 4.449283,0.755889 4.500097,0.759417 4.511455,0.756207 4.527653,0.75289 4.528665,0.751811 4.534895,0.750555 4.663864,0.72743 4.71547,0.721705" style="fill: white" /><polygon type="hole" points="4.77695,2.813537 4.669412,2.831327 4.62906,2.846697 4.506533,2.891794 4.409181,2.955135 4.28996,3.074752 4.253525,3.119463 4.236875,3.141847 4.173749,3.268783 4.138002,3.326262 4.113817,3.411109 4.091377,3.510216 4.069859,3.656614 4.073744,3.723952 4.104413,3.843332 4.105775,3.846317 4.108987,3.854777 4.170898,4.070045 4.181659,4.173256 4.186794,4.1999 4.188739,4.229984 4.1921,4.280471 4.183297,4.639088 4.177447,4.683316 4.180846,4.841154 4.147075,4.950651 4.11128,5.041558 4.092437,5.079049 4.084188,5.151172 4.068532,5.215552 4.075018,5.363776 4.098072,5.457462 4.134695,5.557385 4.16938,5.655632 4.198189,5.697373 4.235022,5.769237 4.265268,5.813304 4.362778,5.918993 4.403135,5.961384 4.417464,5.968256 4.615967,6.0607 4.655998,6.076158 4.832742,6.103229 5.031484,6.101092 5.124587,6.08645 5.215109,6.047891 5.347107,5.966749 5.458482,5.9245 5.666085,5.84581 5.72456,5.805358 5.792977,5.743828 5.908646,5.713502 5.931637,5.709344 5.976608,5.690867 6.036575,5.66758 6.212031,5.598313 6.29107,5.510734 6.380796,5.412273 6.466894,5.304101 6.493854,5.261106 6.558268,5.199828 6.608612,5.137481 6.636919,5.052405 6.664646,4.959033 6.709422,4.79792 6.69082,4.495474 6.69191,4.462215 6.704801,4.250687 6.705438,4.217171 6.677158,3.970114 6.637598,3.837502 6.60829,3.782647 6.522476,3.672698 6.489006,3.631637 6.461722,3.593628 6.32173,3.432673 6.28058,3.386604 6.155121,3.282592 6.115402,3.258888 6.002722,3.215801 5.925975,3.202554 5.864774,3.184937 5.85117,3.172578 5.808372,3.162478 5.79157,3.157067 5.78137,3.156879 5.769993,3.144988 5.751895,3.138187 5.751863,3.138175 5.751823,3.138151 5.751775,3.138127 5.738585,3.123703 5.727114,3.112239 5.450985,2.985585 5.379998,2.959826 5.334762,2.941778 5.210817,2.861432 5.159027,2.849819 5.026026,2.812566 4.936946,2.799953" style="fill: black" />
</svg>
