<svg width="13.600213" height="8.910821">
<polygon type="contour" points="3.281498,1.558836 3.297968,1.570451 3.353832,1.585264 3.420471,1.605844 3.427246,1.60733 3.435643,1.608691 3.457866,1.613448 3.492481,1.614577 3.507103,1.635993 3.531387,1.642892 3.564047,1.644238 3.597517,1.656 3.646941,1.679075 3.650258,1.680948 3.65247,1.68605 3.671091,1.699943 3.683723,1.707177 3.696138,1.722759 3.744368,1.759818 3.777465,1.770415 3.812736,1.743612 3.865843,1.69039 3.882571,1.674387 3.889742,1.668463 3.901219,1.661015 3.922879,1.659793 3.935612,1.655404 3.971871,1.659629 4.010826,1.647651 4.023286,1.643637 4.036927,1.635194 4.054362,1.612853 4.055741,1.610461 4.056098,1.610438 4.074361,1.596811 4.077167,1.596837 4.096796,1.592393 4.111002,1.601263 4.140573,1.602945 4.143247,1.603274 4.188685,1.609449 4.197678,1.610084 4.233075,1.619732 4.245113,1.620951 4.266234,1.619451 4.274182,1.61984 4.287628,1.617636 4.336859,1.617267 4.369596,1.623089 4.387743,1.636077 4.477585,1.666328 4.64573,1.690009 4.69442,1.688285 4.760134,1.680052 4.825768,1.668575 4.859362,1.670387 4.871661,1.676558 4.905746,1.677522 4.918693,1.673214 4.930861,1.683742 4.96716,1.68131 4.980963,1.683255 4.991524,1.680572 5.018045,1.678661 5.020348,1.677562 5.029834,1.6787 5.041792,1.678649 5.062268,1.676003 5.080862,1.662601 5.084991,1.65883 5.105297,1.655429 5.122763,1.646888 5.154963,1.646631 5.198446,1.644684 5.249556,1.656573 5.287966,1.653211 5.341571,1.666728 5.517865,1.647337 5.519239,1.647612 5.587725,1.655879 5.590813,1.65498 5.66892,1.669223 5.684145,1.674215 5.687752,1.674151 5.709852,1.681262 5.72891,1.689875 5.771698,1.697187 5.879789,1.731186 5.901093,1.717267 5.930444,1.729424 6.096176,1.801414 6.116274,1.809821 6.130888,1.812366 6.133197,1.813496 6.133593,1.813573 6.144257,1.823988 6.165637,1.83174 6.17249,1.831746 6.197753,1.842744 6.247852,1.868305 6.270861,1.879154 6.294953,1.890227 6.310292,1.899952 6.343713,1.915994 6.387547,1.936002 6.393542,1.937404 6.415978,1.952274 6.429884,1.953889 6.440551,1.959846 6.453767,1.956639 6.469596,1.965658 6.478748,1.966337 6.503668,1.97451 6.529765,1.963738 6.55168,1.961752 6.558706,1.964441 6.585132,1.980098 6.595418,1.981682 6.608999,1.986078 6.63005,1.993783 6.640791,2.000528 6.660673,2.006938 6.665923,2.01099 6.680917,2.020528 6.694188,2.031297 6.698823,2.035008 6.784079,2.087551 6.833369,2.123265 6.848239,2.128991 6.859641,2.130546 6.906998,2.156569 7.052848,2.187744 7.11474,2.194 7.118896,2.196935 7.137076,2.201272 7.156221,2.211143 7.219743,2.242878 7.282423,2.271392 7.296613,2.276707 7.340947,2.288152 7.360515,2.293357 7.427204,2.306953 7.476236,2.319263 7.499901,2.318724 7.522115,2.313181 7.589159,2.333915 7.62034,2.339596 7.655078,2.35109 7.699142,2.375177 7.705331,2.37774 7.747827,2.409011 7.78663,2.440834 7.909049,2.526199 7.934755,2.525937 7.94234,2.529115 7.999829,2.525568 8.023998,2.520832 8.037307,2.521525 8.061563,2.526673 8.250336,2.577846 8.250559,2.578092 8.33667,2.607522 8.340153,2.610717 8.352907,2.615166 8.577149,2.685485 8.600426,2.689895 8.810826,2.707441 8.821985,2.708937 8.82274,2.70903 8.952626,2.756611 8.954489,2.757256 8.990114,2.779317 8.994289,2.781667 9.010293,2.793464 9.03732,2.821222 9.054944,2.843685 9.05793,2.844155 9.068226,2.861465 9.124389,2.908508 9.150087,2.941075 9.182349,2.952292 9.218551,2.975165 9.222627,2.978172 9.358974,3.065108 9.37434,3.07412 9.418001,3.093017 9.452622,3.08421 9.461622,3.082779 9.485076,3.086238 9.510553,3.098061 9.547219,3.092876 9.55498,3.091264 9.556092,3.091032 9.557096,3.091496 9.586489,3.089407 9.615429,3.105785 9.704308,3.161655 9.727545,3.188691 9.754964,3.231431 9.772476,3.259243 9.787564,3.289192 9.787714,3.303636 9.783781,3.355027 9.814235,3.398331 9.858301,3.458736 9.908725,3.481325 9.944349,3.508342 10.020812,3.555226 10.092209,3.604504 10.111396,3.622884 10.150997,3.679837 10.158121,3.688154 10.205849,3.72435 10.302144,3.809035 10.308517,3.818367 10.325515,3.831335 10.457005,3.973956 10.533002,4.07131 10.556318,4.106567 10.564562,4.131957 10.581399,4.188221 10.580638,4.206761 10.582438,4.219974 10.571646,4.47814 10.569586,4.520376 10.580076,4.681632 10.581373,4.703111 10.578948,4.717472 10.532205,4.823496 10.498885,4.888477 10.433406,4.96309 10.351565,5.045768 10.32042,5.071889 10.14698,5.265224 10.129595,5.279797 10.126995,5.284403 10.110276,5.296194 9.924971,5.419318 9.905109,5.43361 9.872661,5.44659 9.796502,5.519535 9.78107,5.55969 9.784804,5.580377 9.789262,5.602865 9.787313,5.623005 9.76867,5.666806 9.732922,5.722904 9.706159,5.748747 9.67351,5.773312 9.648506,5.789097 9.608813,5.80885 9.603568,5.812507 9.586587,5.822154 9.5571,5.820113 9.556082,5.820576 9.547317,5.818756 9.510513,5.813553 9.484879,5.825444 9.461644,5.828882 9.45261,5.827405 9.422699,5.819795 9.411704,5.824884 9.397068,5.826068 9.33791,5.867035 9.255298,5.913808 9.220932,5.935653 9.178493,5.961913 9.138651,5.977446 9.11933,5.995494 9.088098,6.037476 9.058328,6.055569 9.020414,6.103628 8.958185,6.145567 8.941729,6.154375 8.840028,6.188589 8.819901,6.194991 8.733066,6.208963 8.681437,6.216186 8.63585,6.214138 8.605694,6.219309 8.352619,6.296518 8.338575,6.302256 8.334538,6.304838 8.322591,6.309857 8.140318,6.373099 8.017677,6.385728 8.003901,6.38915 8.001276,6.388281 7.991668,6.386298 7.972053,6.386247 7.904736,6.381629 7.871529,6.415106 7.838813,6.438083 7.820992,6.458442 7.805593,6.470612 7.754094,6.495208 7.605245,6.570323 7.588704,6.578454 7.505873,6.596517 7.497112,6.594157 7.476952,6.593003 7.274609,6.643718 7.25923,6.648004 7.253113,6.650131 7.229134,6.662157 7.135622,6.709661 7.104624,6.719404 7.090221,6.725511 7.022533,6.736059 6.911167,6.754863 6.880204,6.766462 6.826447,6.801783 6.742024,6.856309 6.563974,6.946178 6.556559,6.949562 6.555279,6.949874 6.545473,6.949297 6.525995,6.946317 6.522291,6.947752 6.49309,6.938199 6.469598,6.945965 6.453835,6.944263 6.440558,6.95179 6.424465,6.956978 6.396551,6.971269 6.338949,6.993781 6.271464,7.030092 6.262143,7.034453 6.188859,7.069741 6.172696,7.077516 6.158294,7.084396 6.147732,7.08393 6.133801,7.097783 6.133107,7.097919 5.953442,7.156555 5.92853,7.170227 5.905768,7.17913 5.879524,7.186437 5.876934,7.188661 5.868283,7.184077 5.74567,7.21129 5.715246,7.224945 5.701347,7.22773 5.671111,7.238648 5.597457,7.251781 5.587457,7.253495 5.571876,7.256833 5.480286,7.26439 5.332893,7.248959 5.283297,7.254666 5.258271,7.254492 5.204249,7.263257 5.168461,7.265336 5.088382,7.253409 5.082998,7.251871 5.060362,7.235404 4.936005,7.232908 4.902815,7.236974 4.891728,7.237222 4.864079,7.23347 4.744259,7.219721 4.699597,7.219788 4.682955,7.220795 4.668576,7.220375 4.652912,7.221409 4.63765,7.220175 4.624446,7.221657 4.527115,7.243997 4.517022,7.245256 4.502773,7.247289 4.494702,7.252057 4.48843,7.249236 4.416807,7.261503 4.358917,7.28296 4.293454,7.292473 4.244373,7.296001 4.2326,7.294316 4.223373,7.293875 4.207564,7.294247 4.180154,7.305524 4.146878,7.308497 4.144983,7.308792 4.133364,7.309513 4.109298,7.310342 4.09148,7.319518 4.085016,7.314823 4.072506,7.31484 4.063144,7.302055 4.036922,7.276427 4.006724,7.262444 3.973177,7.251704 3.937399,7.256486 3.922867,7.251554 3.893734,7.248865 3.861754,7.220801 3.815485,7.170098 3.772501,7.137409 3.744508,7.15229 3.735817,7.156548 3.702102,7.182897 3.693395,7.192961 3.68595,7.203393 3.676393,7.211104 3.657523,7.219527 3.651455,7.229935 3.643015,7.23471 3.601372,7.254544 3.581476,7.26233 3.563446,7.266163 3.540378,7.265863 3.532907,7.268284 3.507103,7.275626 3.489562,7.297272 3.472296,7.299694 3.46946,7.299333 3.441593,7.29857 3.347711,7.314994 3.282292,7.353561 3.277796,7.35541 3.269919,7.360427 3.257229,7.348746 3.209409,7.303721 3.153767,7.224121 3.149157,7.19209 3.133659,7.145591 3.117835,7.129841 3.101613,7.104517 3.102923,7.064597 3.097639,7.04697 3.092327,7.039227 3.084665,7.01214 3.053777,7.005015 3.040511,7.000272 3.03463,6.99999 3.010331,6.996693 3.000795,6.995162 2.916884,6.992692 2.854253,6.987128 2.830443,6.98334 2.807373,6.975581 2.790326,6.961689 2.726671,6.925447 2.711551,6.913294 2.696586,6.909561 2.661039,6.903274 2.632863,6.903086 2.586232,6.892214 2.571781,6.885128 2.556724,6.880996 2.479863,6.85718 2.461708,6.832823 2.383681,6.824014 2.269375,6.798482 2.158511,6.785405 2.075782,6.78935 2.06077,6.785603 2.05544,6.780354 2.038502,6.76693 2.02173,6.759631 2.006419,6.755073 1.875585,6.747719 1.869903,6.747454 1.846766,6.735972 1.846194,6.735675 1.846132,6.735589 1.825473,6.698031 1.810746,6.691643 1.793415,6.672596 1.75264,6.672677 1.727488,6.678416 1.604078,6.712597 1.593887,6.712506 1.536774,6.680057 1.29905,6.544878 1.276475,6.50497 1.273929,6.478188 1.25214,6.352593 1.243005,6.328529 1.244186,6.292922 1.232243,6.257989 1.22126,6.238596 1.204667,6.218254 1.153354,6.150661 1.148632,6.144206 1.125271,6.092574 1.116388,6.074946 1.115107,6.065586 1.120387,6.050501 1.116395,6.041109 1.131614,5.992102 1.122026,5.943318 1.116004,5.930028 1.109292,5.92064 1.09435,5.904426 1.090908,5.900912 1.088134,5.89429 1.084879,5.879579 1.08281,5.853597 1.078899,5.681401 1.085993,5.664775 1.101622,5.621718 1.108725,5.531152 1.116856,5.504383 1.119184,5.459604 1.127332,5.453625 1.116843,5.346048 1.115958,5.337776 1.115985,5.331974 1.125895,5.159677 1.134589,5.129382 1.134107,5.06761 1.125065,5.043649 1.091926,4.709873 1.082127,4.606211 1.08262,4.593599 1.086462,4.572622 1.099403,4.559939 1.109288,4.533449 1.096888,4.483724 1.096081,4.455808 1.097025,4.429111 1.110347,4.371854 1.088824,4.348006 1.089147,4.333026 1.085262,4.304183 1.094056,4.231022 1.108447,4.077593 1.132106,3.83607 1.128733,3.830841 1.124654,3.753048 1.116926,3.567264 1.134504,3.515485 1.119998,3.491468 1.117749,3.475089 1.121566,3.460434 1.105785,3.377421 1.104774,3.370875 1.10129,3.352989 1.090952,3.273806 1.078726,3.229196 1.07751,3.187074 1.078373,3.1199 1.084878,3.036667 1.088866,3.014665 1.08913,3.013076 1.090904,3.010731 1.09436,3.007181 1.103947,2.998521 1.124367,2.969706 1.131588,2.934051 1.133267,2.899145 1.116329,2.870548 1.120944,2.858826 1.116187,2.843962 1.117418,2.835162 1.135325,2.80085 1.166735,2.748638 1.203425,2.687157 1.213064,2.672468 1.215677,2.661297 1.233737,2.639395 1.231929,2.630305 1.242823,2.610176 1.246249,2.589172 1.245557,2.583697 1.247284,2.581074 1.245617,2.543324 1.251827,2.529458 1.252249,2.511295 1.264479,2.444093 1.288609,2.373366 1.475953,2.264041 1.540621,2.225522 1.566116,2.210728 1.571215,2.205487 1.579296,2.203844 1.584419,2.199816 1.593367,2.197953 1.639399,2.213021 1.677427,2.228967 1.71548,2.232318 1.774787,2.240223 1.810751,2.219965 1.826495,2.211742 1.846087,2.176106 1.846208,2.175938 1.869024,2.166253 1.900244,2.162683 1.982749,2.154463 2.002411,2.159136 2.025936,2.145536 2.037802,2.145289 2.056127,2.131368 2.062191,2.125534 2.078441,2.12141 2.15637,2.126518 2.282956,2.118892 2.361706,2.096746 2.453963,2.080709 2.472865,2.068507 2.480075,2.055733 2.489452,2.053128 2.501646,2.045287 2.568917,2.024234 2.589433,2.017205 2.633611,2.008847 2.662421,2.008213 2.69105,2.001491 2.70571,2.002432 2.722857,1.988125 2.738592,1.982659 2.755687,1.9717 2.781914,1.947757 2.787251,1.945059 2.797466,1.938482 2.833744,1.928804 2.850998,1.929267 2.957844,1.92833 3.027607,1.917646 3.035428,1.916079 3.089986,1.891613 3.095501,1.865759 3.097794,1.858263 3.097114,1.840497 3.102141,1.806186 3.111401,1.796601 3.119925,1.766517 3.161007,1.677791 3.200654,1.604018 3.222811,1.585345 3.257386,1.562574 3.27441,1.558592" style="fill: white" /><polygon type="hole" points="6.251546,3.262792 6.230033,3.264377 6.170427,3.281647 5.99779,3.340337 5.906808,3.398843 5.828239,3.448638 5.769143,3.509721 5.666093,3.681852 5.656006,3.698969 5.631914,3.820911 5.613391,3.895226 5.587171,4.081667 5.5855,4.404866 5.590457,4.597105 5.624341,4.911308 5.625516,4.918674 5.626119,4.921431 5.628041,4.929858 5.693658,5.184674 5.70978,5.22777 5.748315,5.287216 5.803855,5.375092 5.886262,5.454802 5.921343,5.478061 6.002153,5.512312 6.187082,5.580226 6.42718,5.577629 6.443025,5.57699 6.601849,5.504548 6.695726,5.453822 6.782168,5.389024 6.859435,5.297662 6.939099,5.196731 6.971742,5.1494 6.999473,5.095828 7.107296,4.854306 7.123863,4.767387 7.125933,4.757712 7.181387,4.400197 7.181959,4.39656 7.193602,4.074562 7.188155,4.023332 7.184405,3.966759 7.162112,3.881112 7.094412,3.724875 7.020832,3.602277 6.96606,3.542929 6.953331,3.523382 6.83912,3.431709 6.820377,3.41309 6.731091,3.361469 6.700085,3.348019 6.574986,3.297666 6.437788,3.270527 6.390301,3.260174" style="fill: black" />
</svg>
