<svg width="13.600213" height="8.910821">
<polygon type="contour" points="8.33774,1.421894 8.369158,1.424707 8.388641,1.426579 8.409331,1.429017 8.428654,1.434454 8.456816,1.432736 8.482305,1.429995 8.514613,1.435405 8.542419,1.446929 8.566148,1.475762 8.586563,1.508823 8.602912,1.536935 8.630028,1.548271 8.637546,1.557461 8.66326,1.616104 8.705144,1.653093 8.772804,1.677369 8.829528,1.723938 8.856195,1.750821 8.874055,1.764984 8.90294,1.778579 8.946956,1.806168 8.969244,1.822147 8.996349,1.841352 9.237787,2.046799 9.305316,2.082614 9.317849,2.095909 9.327033,2.102388 9.39354,2.13245 9.413846,2.143066 9.478179,2.15697 9.606963,2.202143 9.668007,2.227397 9.72935,2.245513 9.741035,2.253449 9.745784,2.25529 9.747577,2.257646 9.794753,2.285214 9.810628,2.293208 9.849569,2.317874 9.851648,2.32065 9.884813,2.336445 9.963523,2.400131 9.963921,2.400233 9.964964,2.401937 10.026122,2.431837 10.040378,2.438301 10.043102,2.441932 10.057519,2.449394 10.114304,2.477677 10.127637,2.489149 10.142834,2.500771 10.154097,2.507999 10.157218,2.510733 10.188499,2.536592 10.21243,2.546609 10.217929,2.556759 10.243475,2.561618 10.250884,2.576958 10.289537,2.574874 10.290244,2.575198 10.292924,2.578044 10.320619,2.618791 10.33111,2.620214 10.338448,2.628931 10.440542,2.759051 10.469478,2.796219 10.494005,2.82481 10.507094,2.845496 10.522143,2.860383 10.648847,3.043837 10.655252,3.05363 10.730091,3.134613 10.736931,3.148529 10.760758,3.165716 10.782644,3.183071 10.876299,3.263744 10.889462,3.275582 10.926079,3.302279 10.936819,3.316902 10.946917,3.344479 10.959573,3.353719 11.030275,3.409722 11.097912,3.442668 11.107717,3.4533 11.196847,3.528934 11.22029,3.54025 11.235042,3.548011 11.382839,3.648683 11.39679,3.671742 11.440502,3.718539 11.486973,3.779194 11.504365,3.790605 11.528988,3.843734 11.534394,3.855213 11.560803,4.010334 11.582274,4.101143 11.619648,4.191118 11.65921,4.311482 11.663658,4.318607 11.685733,4.482921 11.685313,4.51762 11.676069,4.537868 11.651407,4.593801 11.628579,4.696211 11.582739,4.810522 11.550064,4.993042 11.533029,5.056509 11.506359,5.120409 11.481987,5.148373 11.404155,5.226152 11.387793,5.254165 11.36937,5.268333 11.249426,5.351186 11.240156,5.35488 11.230194,5.360828 11.207578,5.376565 11.150048,5.42289 11.127899,5.440324 11.120786,5.451207 11.103631,5.460303 11.086441,5.473933 11.016312,5.504929 10.998627,5.5207 10.971612,5.544005 10.944773,5.57061 10.93909,5.590713 10.938023,5.592162 10.937254,5.594433 10.930762,5.60034 10.916145,5.618915 10.886706,5.639665 10.882401,5.6456 10.869149,5.659636 10.84893,5.670994 10.823742,5.685415 10.81504,5.699554 10.665453,5.831834 10.656861,5.844931 10.63426,5.88303 10.387245,6.217476 10.380789,6.226419 10.355991,6.260103 10.341414,6.278413 10.330249,6.291094 10.315641,6.292908 10.291961,6.334597 10.290227,6.336439 10.289518,6.336765 10.250858,6.334655 10.243351,6.350048 10.217882,6.354897 10.212357,6.365124 10.188333,6.374251 10.157851,6.400543 10.154844,6.403202 10.142208,6.41138 10.127702,6.422493 10.11462,6.433792 10.08422,6.449715 10.068349,6.459144 10.058057,6.467496 10.023101,6.485991 9.961568,6.512537 9.955247,6.522429 9.949227,6.525306 9.944253,6.5326 9.925599,6.543835 9.924743,6.545634 9.911858,6.553887 9.90897,6.559557 9.866173,6.58256 9.851463,6.590903 9.837088,6.606518 9.83665,6.606726 9.811077,6.61746 9.810361,6.619078 9.793573,6.623582 9.784856,6.633671 9.758827,6.64775 9.734382,6.665016 9.644236,6.696953 9.600512,6.705758 9.470618,6.754126 9.424791,6.761847 9.304047,6.82775 9.281148,6.846249 9.020266,7.053659 8.978194,7.083688 8.902257,7.13319 8.877628,7.145266 8.812512,7.188789 8.802662,7.202707 8.745418,7.240836 8.660194,7.280595 8.631901,7.361196 8.627927,7.364453 8.603431,7.374502 8.591366,7.392521 8.5798,7.408889 8.567786,7.424923 8.548811,7.45947 8.544074,7.464411 8.515108,7.476162 8.498617,7.479502 8.446074,7.477739 8.424887,7.47822 8.405198,7.483335 8.400825,7.483841 8.382788,7.486116 8.321495,7.492411 8.302966,7.489319 8.277218,7.472775 8.252586,7.473301 8.241169,7.470445 8.216287,7.458797 8.20368,7.454039 8.149029,7.391252 8.088569,7.355978 8.004091,7.31432 7.982159,7.336765 7.959896,7.337342 7.740169,7.374784 7.709051,7.366083 7.503502,7.405246 7.455217,7.416437 7.409288,7.421176 7.37159,7.425073 7.289934,7.42428 7.275531,7.42323 7.179249,7.435884 7.084879,7.444082 7.055584,7.436863 7.016091,7.434923 7.004187,7.436561 6.992286,7.431451 6.967872,7.432168 6.957631,7.436536 6.917519,7.440956 6.891835,7.441057 6.878744,7.442656 6.865232,7.442467 6.741969,7.436824 6.734937,7.440138 6.704618,7.439105 6.679739,7.435358 6.560623,7.454876 6.509696,7.454277 6.460069,7.435206 6.322969,7.430263 6.220895,7.411644 6.154844,7.399877 6.14385,7.395923 6.112752,7.394548 6.055645,7.38282 5.896778,7.341603 5.896303,7.341624 5.789148,7.309987 5.680976,7.271899 5.444134,7.172724 5.401931,7.148441 5.345837,7.121072 5.133453,7.005931 5.069608,6.975957 5.028731,6.952749 4.848591,6.800348 4.843377,6.794388 4.829402,6.787695 4.816344,6.776072 4.753556,6.741199 4.724758,6.736929 4.667225,6.70425 4.652993,6.695399 4.455936,6.592451 4.390015,6.545503 4.215351,6.426117 4.077534,6.306007 4.074682,6.304777 3.98727,6.235692 3.903796,6.181239 3.833125,6.122697 3.816925,6.113637 3.800165,6.096398 3.742699,6.05953 3.682639,6.014036 3.65842,6.00644 3.633726,6.004796 3.492859,5.936561 3.482558,5.928321 3.476213,5.924462 3.4684,5.917632 3.461043,5.899526 3.441436,5.876191 3.437629,5.873536 3.431876,5.868477 3.360457,5.814674 3.312768,5.811442 3.227053,5.854406 3.169353,5.844578 3.153341,5.843974 3.069807,5.815519 3.048802,5.806696 3.013904,5.764513 3.003662,5.75273 3.000742,5.736645 3.005376,5.703 3.025511,5.635344 3.053413,5.58111 3.103256,5.528842 3.127101,5.515063 3.172461,5.49761 3.207339,5.477861 3.225774,5.471028 3.267468,5.430615 3.211733,5.349303 3.191896,5.325119 3.181485,5.306933 3.159641,5.173298 3.16353,5.084388 3.147603,4.968295 3.150156,4.940833 3.151543,4.870651 3.153848,4.862241 3.159162,4.777716 3.161466,4.745211 3.196055,4.553784 3.20969,4.490169 3.211595,4.472287 3.211629,4.434802 3.203211,4.403237 3.187131,4.332464 3.176209,4.238936 3.150228,4.141488 3.148321,4.039834 3.148697,4.028379 3.147633,4.008763 3.152034,3.974946 3.148205,3.92094 3.161035,3.836646 3.158327,3.79216 3.171491,3.666395 3.194486,3.598602 3.214124,3.560796 3.246478,3.52137 3.260477,3.462938 3.214828,3.437908 3.208868,3.432062 3.12336,3.382691 3.082023,3.362985 3.056427,3.33741 3.043549,3.319125 3.02447,3.281241 3.00437,3.174004 3.004427,3.157543 3.02819,3.123153 3.028632,3.122756 3.028868,3.1224 3.029374,3.122219 3.226152,3.063366 3.237432,3.072912 3.282228,3.082884 3.288385,3.083562 3.293314,3.087105 3.325255,3.09462 3.354078,3.108968 3.40423,3.054081 3.428133,3.037126 3.479613,2.996141 3.541959,2.951646 3.63575,2.905643 3.654029,2.904603 3.69135,2.903438 3.722168,2.871488 3.748218,2.854592 3.95166,2.707929 3.975121,2.694791 4.008879,2.681178 4.087821,2.614202 4.186972,2.513803 4.287707,2.437436 4.42344,2.342819 4.48646,2.298606 4.486523,2.298524 4.500711,2.29051 4.664624,2.197214 4.753076,2.170004 4.816056,2.135566 4.829347,2.123948 4.842232,2.118269 4.848801,2.111093 5.088366,1.922681 5.289948,1.827475 5.345736,1.797199 5.387888,1.765026 5.505837,1.704536 5.60796,1.663076 5.734739,1.617355 5.775343,1.604961 5.788064,1.603337 5.816447,1.59253 5.983265,1.537576 5.990714,1.535102 5.997234,1.53393 6.026524,1.525545 6.04778,1.526456 6.235842,1.500505 6.466807,1.468714 6.582621,1.46045 6.612254,1.460689 6.652961,1.469333 6.656514,1.471469 6.829213,1.480724 6.913645,1.480353 6.956732,1.474852 6.961007,1.47674 7.058036,1.475876 7.119836,1.474019 7.141208,1.469565 7.157203,1.479635 7.23601,1.484629 7.275593,1.488292 7.28984,1.487366 7.38045,1.483597 7.419303,1.485522 7.462573,1.486992 7.540694,1.508888 7.558694,1.516206 7.708932,1.541201 7.712324,1.542214 7.732882,1.543298 7.768514,1.54741 7.813217,1.545031 7.891038,1.557101 7.973954,1.567489 8.011818,1.589883 8.096784,1.54469 8.132752,1.526676 8.151283,1.519251 8.210567,1.449935 8.228467,1.445685 8.247414,1.439486 8.250857,1.438486 8.277036,1.438088 8.303812,1.421665 8.323025,1.419065" style="fill: white" />
</svg>
