<svg width="13.600213" height="8.910821">
<polygon type="contour" points="3.630116,2.976584 3.645475,3.001897 3.67962,3.111819 3.712595,3.194199 3.77314,3.197713 4.045308,3.213509 4.144239,3.232245 4.152679,3.237735 4.1455,3.283511 4.119166,3.313458 4.087442,3.337165 4.01069,3.370584 3.998656,3.374202 3.97998,3.377079 3.855105,3.39127 3.731213,3.390803 3.680669,3.396718 3.664463,3.4331 3.5923,3.51064 3.58684,3.516507 3.578861,3.525081 3.572365,3.53206 3.571146,3.533371 3.498744,3.569452 3.447833,3.598736 3.367849,3.690961 3.243785,3.9816 3.232397,4.000002 3.219654,4.023029 3.197448,4.091146 3.161853,4.212479 3.159325,4.228687 3.137099,4.373134 3.131798,4.399637 3.115742,4.42473 3.127956,4.545249 3.133073,4.556807 3.133616,4.56456 3.135278,4.573167 3.142387,4.598284 3.15319,4.642555 3.193969,4.795666 3.219371,4.88885 3.232707,4.912964 3.242042,4.925963 3.246674,4.949535 3.252841,4.983659 3.260864,5.001826 3.334923,5.159734 3.336906,5.16715 3.393989,5.270859 3.444614,5.311326 3.486383,5.330704 3.494862,5.337551 3.505156,5.345865 3.515943,5.354575 3.652609,5.464938 3.656141,5.467792 3.669244,5.509043 3.843453,5.514659 3.894571,5.522474 3.928151,5.5256 3.97788,5.536658 4.052345,5.56195 4.081472,5.574607 4.119772,5.598551 4.145326,5.628083 4.153162,5.671861 4.097717,5.707636 4.095456,5.709109 4.037838,5.713626 3.705005,5.739575 3.673623,5.856566 3.67273,5.859889 3.669658,5.871345 3.669506,5.871999 3.66655,5.875902 3.632258,5.9333 3.545129,5.933004 3.532862,5.933288 3.486665,5.916495 3.324508,5.864951 3.279669,5.845682 3.222731,5.83968 3.164492,5.812761 3.128362,5.796759 3.117755,5.789506 3.005594,5.719461 2.963552,5.678369 2.922295,5.637853 2.91224,5.636246 2.897917,5.624375 2.890833,5.612583 2.869725,5.598519 2.833798,5.576344 2.749102,5.562917 2.64432,5.547764 2.566235,5.536012 2.530912,5.526187 2.49815,5.515627 2.466885,5.485261 2.434209,5.468243 2.410328,5.46278 2.396926,5.463815 2.121214,5.377936 2.11884,5.377046 1.967718,5.337534 1.957303,5.334467 1.944675,5.327778 1.862727,5.265141 1.844325,5.256748 1.76217,5.162657 1.741214,5.141624 1.730747,5.1087 1.728837,5.093684 1.719929,5.084637 1.712397,5.063175 1.706341,5.050481 1.686667,5.031586 1.680175,5.024011 1.674172,5.008878 1.652888,4.994392 1.64118,4.97564 1.633372,4.958953 1.568249,4.925764 1.514149,4.903147 1.499453,4.888462 1.407745,4.834374 1.364604,4.809119 1.361926,4.804306 1.354609,4.796176 1.301904,4.75743 1.280567,4.741588 1.262019,4.736112 1.210443,4.692083 1.19112,4.670449 1.184163,4.654352 1.165727,4.574015 1.163875,4.555747 1.171214,4.339205 1.175403,4.276423 1.176541,4.273786 1.178156,4.270012 1.212447,4.251758 1.233919,4.189896 1.262021,4.178938 1.310662,4.156158 1.379442,4.093982 1.444299,4.055592 1.485454,4.022159 1.505571,4.014832 1.557955,3.992314 1.568764,3.984741 1.581909,3.980617 1.619152,3.959397 1.636504,3.941612 1.639808,3.935202 1.643334,3.934748 1.652896,3.917223 1.666816,3.905377 1.676888,3.893839 1.698553,3.871423 1.711943,3.854208 1.718384,3.83794 1.720501,3.819255 1.722736,3.810193 1.751016,3.765852 1.770011,3.739359 1.777778,3.729398 1.868118,3.629956 1.934513,3.590784 1.947522,3.58242 1.953401,3.580906 1.991204,3.574597 2.0367,3.559228 2.09151,3.540333 2.094705,3.539749 2.107019,3.538804 2.115861,3.536008 2.133511,3.531405 2.215823,3.498228 2.249283,3.488285 2.279488,3.475722 2.282319,3.474232 2.309983,3.465346 2.35007,3.457979 2.357824,3.45354 2.37899,3.450736 2.399909,3.446771 2.409838,3.448929 2.438319,3.442728 2.449903,3.433255 2.460636,3.426733 2.475071,3.412511 2.483925,3.404394 2.587757,3.370294 2.728036,3.351989 2.751103,3.348043 2.796886,3.341649 2.808422,3.339622 2.829266,3.333054 2.839295,3.331759 2.873743,3.308186 2.905327,3.28677 2.910489,3.284425 2.971268,3.230133 3.03222,3.17288 3.043719,3.16485 3.120273,3.120327 3.160201,3.101354 3.234752,3.068732 3.300272,3.060865 3.419889,3.010018 3.431516,3.00534 3.536355,2.977401 3.542619,2.976448" style="fill: white" />
</svg>
