<svg width="13.600213" height="8.910821">
<polygon type="contour" points="8.518166,1.41089 8.519769,1.411105 8.596291,1.433697 8.632189,1.45289 8.649223,1.473696 8.673386,1.489688 8.674223,1.490929 8.683742,1.498136 8.702637,1.513009 8.708175,1.523158 8.747526,1.584929 8.783649,1.608754 8.825304,1.620458 8.848516,1.647529 8.850744,1.648185 8.853177,1.651644 8.906583,1.685917 8.930539,1.716892 8.997725,1.763321 9.004691,1.770992 9.014719,1.774743 9.017443,1.779652 9.14562,1.883733 9.315697,1.979866 9.337796,1.998323 9.35414,2.009769 9.379345,2.019303 9.406326,2.022917 9.455275,2.052507 9.567327,2.084646 9.6291,2.11832 9.653984,2.125908 9.658417,2.129001 9.669548,2.139883 9.677659,2.143838 9.683924,2.14781 9.69042,2.152709 9.779977,2.196107 9.809202,2.213337 9.829028,2.232368 9.87825,2.258653 9.887187,2.245937 9.890729,2.246651 9.917061,2.221965 9.926957,2.229221 9.939826,2.226378 9.952069,2.230785 9.966228,2.236544 9.987681,2.241528 10.016698,2.246659 10.033295,2.256423 10.045723,2.252975 10.051552,2.256565 10.069847,2.259697 10.079704,2.263957 10.090287,2.266528 10.09701,2.26912 10.119971,2.272635 10.182533,2.304196 10.20273,2.318335 10.230829,2.332026 10.246831,2.349859 10.294661,2.380491 10.306822,2.391682 10.310275,2.393529 10.338962,2.422111 10.35173,2.434756 10.390802,2.480598 10.396805,2.490013 10.430237,2.53566 10.442017,2.554162 10.44312,2.559668 10.538225,2.723056 10.576177,2.782107 10.62586,2.863042 10.683896,2.953222 10.728003,3.000154 10.767197,3.027356 10.787061,3.074953 10.839648,3.091557 10.8559,3.101414 10.879849,3.125698 10.881983,3.126133 10.88517,3.129303 10.88678,3.134757 10.912963,3.176297 10.969686,3.226062 11.020111,3.257016 11.029197,3.266569 11.108903,3.315316 11.168432,3.344569 11.214115,3.372647 11.235313,3.394362 11.263012,3.41236 11.36049,3.416081 11.410695,3.423713 11.432403,3.42425 11.454009,3.434711 11.459512,3.439729 11.479926,3.462445 11.502268,3.481244 11.553757,3.495392 11.557422,3.496538 11.559472,3.497869 11.590964,3.537548 11.600169,3.545225 11.608749,3.555793 11.637516,3.604634 11.647645,3.632456 11.652237,3.640605 11.664578,3.664847 11.694578,3.746606 11.698862,3.764392 11.72871,3.887844 11.751998,4.117389 11.754297,4.124288 11.789302,4.212193 11.800553,4.28299 11.813358,4.355308 11.821589,4.40998 11.819546,4.567922 11.797247,4.697976 11.796599,4.701033 11.756226,4.763855 11.738696,4.8065 11.722901,5.03298 11.702286,5.142167 11.685191,5.181881 11.666054,5.270408 11.659558,5.287158 11.652321,5.298786 11.64822,5.304977 11.560734,5.413082 11.557475,5.415068 11.553794,5.416218 11.528581,5.428172 11.479721,5.449584 11.460215,5.471451 11.44256,5.480387 11.337044,5.489198 11.320342,5.498332 11.299426,5.494893 11.269437,5.515885 11.246262,5.521674 11.229343,5.522878 11.205539,5.547426 11.158669,5.580217 11.084965,5.625187 11.003083,5.664699 10.989676,5.672431 10.911628,5.736159 10.894834,5.756232 10.886783,5.77686 10.885161,5.78258 10.881971,5.785511 10.879836,5.785973 10.860838,5.804471 10.830338,5.824775 10.802306,5.836469 10.775321,5.885399 10.745932,5.898099 10.706157,5.963075 10.638189,6.026304 10.628109,6.057255 10.465507,6.31904 10.443143,6.352095 10.442032,6.357619 10.430145,6.376261 10.400793,6.416769 10.392612,6.428858 10.382552,6.438364 10.362562,6.464856 10.349775,6.475999 10.332725,6.494427 10.268417,6.551037 10.224076,6.581705 10.216488,6.591171 10.192302,6.599708 10.155184,6.614281 10.078373,6.645836 10.039313,6.65609 10.03274,6.65967 10.01808,6.655493 10.006444,6.665484 9.979956,6.67099 9.964745,6.675372 9.948835,6.681885 9.937971,6.6856 9.927244,6.682956 9.917052,6.689649 9.890778,6.665018 9.88719,6.665723 9.871179,6.653718 9.828597,6.679239 9.823463,6.684571 9.796311,6.707444 9.77967,6.71573 9.723261,6.7503 9.696499,6.766656 9.682988,6.773653 9.653027,6.788198 9.641851,6.795153 9.567031,6.823814 9.556859,6.832463 9.428896,6.867247 9.402714,6.877653 9.387697,6.888053 9.370428,6.903226 9.25611,6.959564 9.206805,6.996076 9.0923,7.07489 9.084171,7.086112 9.063074,7.106592 9.019018,7.128786 8.990897,7.158967 8.973715,7.164374 8.949064,7.179386 8.907144,7.229371 8.78301,7.294051 8.767759,7.304766 8.764072,7.307817 8.744596,7.327009 8.735435,7.337579 8.700373,7.400144 8.694812,7.403833 8.674228,7.420695 8.673482,7.421934 8.649238,7.43794 8.633711,7.458018 8.599962,7.476626 8.560968,7.494589 8.544243,7.497612 8.535573,7.502705 8.516322,7.501656 8.47187,7.502144 8.411815,7.496485 8.392407,7.486077 8.352308,7.472509 8.324896,7.463068 8.297329,7.45304 8.243581,7.450542 8.202795,7.448763 8.152557,7.454704 8.089464,7.435706 8.056541,7.424838 8.013153,7.434553 7.826569,7.453306 7.819291,7.457477 7.808814,7.457966 7.770468,7.457565 7.745541,7.45573 7.730218,7.441896 7.700369,7.457307 7.520983,7.470208 7.286929,7.475836 7.229905,7.473697 7.219711,7.472251 7.215497,7.473469 7.193371,7.462385 7.16636,7.453361 7.113594,7.46651 7.107095,7.465202 7.068961,7.467942 7.013183,7.460818 6.981698,7.456722 6.940656,7.467064 6.898117,7.476724 6.822466,7.481121 6.754945,7.46353 6.724528,7.477169 6.688511,7.487419 6.512259,7.491193 6.49478,7.489476 6.482615,7.488207 6.357893,7.44494 6.21605,7.411138 6.092333,7.373786 6.088428,7.369233 6.079968,7.367239 6.053914,7.351386 6.008507,7.334153 5.981038,7.337951 5.962768,7.339612 5.921326,7.327276 5.884962,7.315479 5.877724,7.315284 5.841059,7.300358 5.830318,7.289274 5.690221,7.212571 5.577635,7.152348 5.53351,7.134539 5.485709,7.105707 5.378518,7.070453 5.323871,7.051781 5.307834,7.044264 5.304597,7.042801 5.302272,7.041677 5.09059,6.930246 5.072766,6.913521 5.024404,6.847754 5.002243,6.818446 4.975566,6.797186 4.907619,6.757356 4.877544,6.737566 4.805681,6.697396 4.762923,6.678597 4.753735,6.671394 4.718193,6.668421 4.686307,6.660221 4.610712,6.632794 4.49648,6.553093 4.461557,6.528655 4.39248,6.509158 4.38697,6.50797 4.383156,6.505649 4.376518,6.501461 4.297789,6.42688 4.233625,6.383023 4.198266,6.352207 4.178768,6.324647 4.100553,6.237271 4.072338,6.184308 4.059424,6.150196 4.047168,6.106707 4.03483,6.094385 4.032197,6.088189 3.982236,6.027216 3.933222,5.964304 3.880692,5.934926 3.841358,5.894466 3.796954,5.881825 3.774023,5.859693 3.714304,5.804022 3.686646,5.76739 3.634132,5.714047 3.616368,5.742343 3.61134,5.741201 3.609765,5.73939 3.605297,5.73528 3.53114,5.677944 3.505465,5.641804 3.492148,5.578773 3.48295,5.54274 3.461699,5.514224 3.462663,5.494683 3.433674,5.40486 3.384971,5.340617 3.380806,5.33774 3.379178,5.332938 3.327772,5.048863 3.34504,5.004176 3.340254,4.974531 3.356811,4.941088 3.36093,4.809718 3.356889,4.728418 3.349997,4.639396 3.375563,4.552049 3.388698,4.537814 3.388751,4.531002 3.390027,4.529667 3.396904,4.422983 3.396885,4.415383 3.393692,4.396304 3.3859,4.370657 3.374162,4.355148 3.358026,4.299678 3.349526,4.271111 3.352631,4.232156 3.352857,3.961224 3.346272,3.947498 3.340536,3.936891 3.352784,3.849742 3.339752,3.776169 3.378876,3.580702 3.380427,3.574837 3.42394,3.509282 3.459321,3.40564 3.476425,3.386026 3.49243,3.331084 3.505077,3.2706 3.530564,3.234847 3.574747,3.190119 3.611136,3.173167 3.627312,3.189578 3.695167,3.142726 3.736129,3.096391 3.756144,3.077054 3.858421,2.990866 3.87186,2.98872 3.918265,2.950903 4.006432,2.829353 4.091729,2.699377 4.112261,2.658127 4.159172,2.601021 4.175919,2.586635 4.381551,2.405736 4.38179,2.40554 4.487728,2.374649 4.516728,2.342746 4.540742,2.318051 4.603662,2.290724 4.742839,2.237463 4.745794,2.235226 4.823469,2.204666 4.849577,2.1866 4.906058,2.154487 4.9752,2.115195 5.002576,2.09449 5.023615,2.053112 5.04953,2.015928 5.259404,1.88786 5.358557,1.848942 5.447597,1.824452 5.496603,1.787048 5.56999,1.749411 5.59958,1.730988 5.638982,1.715913 5.664719,1.699623 5.808173,1.633542 5.840427,1.61548 5.856416,1.603729 5.886844,1.593118 5.889156,1.593182 5.956178,1.572771 5.957392,1.572606 5.965036,1.573133 6.003047,1.577472 6.014873,1.575439 6.026856,1.572759 6.095859,1.546292 6.221137,1.496767 6.381472,1.462413 6.435403,1.43935 6.441965,1.438114 6.447367,1.437304 6.450854,1.436684 6.462368,1.43595 6.633911,1.42576 6.63992,1.424298 6.646212,1.424848 6.685347,1.42186 6.713521,1.431816 6.723166,1.435317 6.739268,1.447281 6.787336,1.437321 6.919476,1.437657 6.952534,1.445607 7.008634,1.444926 7.028366,1.446002 7.049962,1.447122 7.108235,1.446469 7.152761,1.457066 7.169051,1.45729 7.221916,1.438507 7.230858,1.435649 7.272146,1.438329 7.306378,1.436057 7.491709,1.442189 7.527118,1.444856 7.608655,1.442509 7.615172,1.444746 7.701016,1.456196 7.708139,1.458533 7.735944,1.462201 7.739365,1.459311 7.807504,1.463121 7.815425,1.463837 8.024847,1.471254 8.064973,1.484682 8.088818,1.476461 8.158994,1.456346 8.200788,1.46312 8.26369,1.460399 8.284386,1.45052 8.334329,1.441674 8.365254,1.438462 8.372936,1.436816 8.43644,1.416394 8.443325,1.416827 8.516366,1.410309" style="fill: white" />
</svg>
