<svg width="13.600213" height="8.910821">
<polygon type="contour" points="5.141542,1.78174 5.196261,1.799678 5.221047,1.788198 5.265715,1.7876 5.274849,1.787939 5.353025,1.793464 5.36095,1.793496 5.361884,1.793268 5.36833,1.793812 5.414317,1.792115 5.454,1.801943 5.459021,1.80439 5.491649,1.81021 5.512084,1.81613 5.533894,1.831602 5.547098,1.830002 5.548311,1.83108 5.549586,1.831054 5.55069,1.832008 5.570238,1.839453 5.580183,1.841797 5.637376,1.840319 5.667283,1.82675 5.681075,1.825149 5.696989,1.822559 5.711323,1.817782 5.742251,1.814485 5.754997,1.809098 5.778518,1.810052 5.815826,1.816134 5.853305,1.798457 5.981619,1.806941 6.038444,1.80816 6.039415,1.808035 6.069894,1.815185 6.084544,1.814861 6.104704,1.819494 6.207874,1.834879 6.224152,1.836432 6.230059,1.836601 6.252947,1.834139 6.268982,1.836876 6.317141,1.845982 6.329569,1.845602 6.337132,1.850513 6.354743,1.845302 6.36235,1.849374 6.379801,1.843775 6.379886,1.843786 6.430353,1.856787 6.446388,1.86543 6.458868,1.873329 6.477655,1.872834 6.492535,1.871192 6.505473,1.868993 6.510685,1.870828 6.546134,1.880694 6.592902,1.893139 6.626056,1.906091 6.651932,1.912861 6.657635,1.91452 6.75339,1.925829 6.753892,1.925864 6.754225,1.925931 6.783269,1.94021 6.816793,1.941203 6.845806,1.939283 6.954155,1.947019 6.982358,1.936362 7.005465,1.925381 7.134252,1.920313 7.311953,1.897951 7.34109,1.87674 7.345451,1.874295 7.355818,1.873244 7.426446,1.872134 7.568517,1.87494 7.577525,1.877532 7.618065,1.877017 7.642894,1.876834 7.664802,1.885981 7.676054,1.897418 7.713123,1.935618 7.725413,1.945282 7.753338,1.956983 7.765321,1.957614 7.868716,1.95713 7.930603,1.95174 7.935263,1.949615 7.957671,1.943649 7.979619,1.945432 8.021448,1.94935 8.032941,1.948803 8.062608,1.957332 8.085518,1.968739 8.139888,1.990644 8.161541,2.008496 8.169789,2.019919 8.205181,2.074366 8.219339,2.099478 8.253134,2.162538 8.331316,2.215317 8.476117,2.317839 8.5268,2.360646 8.59231,2.398248 8.652545,2.425402 8.693264,2.45487 8.704364,2.45868 8.72208,2.465958 8.874912,2.5639 8.892287,2.572917 8.90623,2.585261 8.911575,2.588124 8.973729,2.628243 8.983661,2.631933 9.005823,2.645104 9.011324,2.651218 9.025088,2.658792 9.036836,2.662503 9.046151,2.664376 9.046842,2.665635 9.07018,2.682756 9.080482,2.686932 9.097194,2.724003 9.151527,2.706689 9.167522,2.718159 9.248417,2.742329 9.258614,2.744077 9.261886,2.744528 9.306072,2.754582 9.342227,2.746355 9.40446,2.770629 9.409223,2.772287 9.422693,2.77586 9.437322,2.782577 9.577445,2.864403 9.595988,2.873518 9.606856,2.876808 9.624018,2.88099 9.662655,2.912721 9.712224,2.922822 9.732794,2.934787 9.776586,2.968103 9.817884,3.005011 9.841129,3.026664 9.891741,3.095458 9.977566,3.194237 10.034693,3.264244 10.061742,3.301074 10.130839,3.416381 10.3376,3.551073 10.365147,3.561931 10.422092,3.588477 10.506443,3.630731 10.592663,3.654683 10.697384,3.704798 10.72429,3.708071 10.745622,3.721619 10.75433,3.725597 10.755803,3.727717 10.778041,3.739157 10.844563,3.771061 10.874879,3.790552 10.897233,3.789039 10.908052,3.796045 10.926748,3.797876 10.939404,3.801387 10.950726,3.812123 10.970606,3.81257 10.994888,3.831047 11.003489,3.836647 11.04517,3.88655 11.070331,3.918436 11.072799,3.91945 11.077733,3.926463 11.082075,3.934884 11.137357,4.027556 11.143197,4.063404 11.148094,4.07952 11.172518,4.158868 11.177917,4.184197 11.176537,4.198357 11.170679,4.204329 11.168309,4.216259 11.157489,4.239309 11.164825,4.269298 11.179984,4.31657 11.17965,4.320027 11.18424,4.344522 11.179894,4.364142 11.18001,4.364548 11.159872,4.397443 11.173968,4.426413 11.175094,4.431549 11.17546,4.479449 11.174714,4.482869 11.160216,4.508781 11.184403,4.567132 11.172641,4.618658 11.172764,4.619966 11.172323,4.621602 11.158383,4.6837 11.17197,4.706395 11.174237,4.726112 11.166202,4.761427 11.153756,4.814277 11.151635,4.824676 11.146077,4.835771 11.140666,4.869305 11.137251,4.884146 11.117485,4.919557 11.073714,4.986646 11.008665,5.067107 11.001552,5.076019 10.992072,5.082107 10.970607,5.09905 10.950718,5.099494 10.939401,5.110234 10.921975,5.111608 10.90014,5.113446 10.858769,5.129354 10.770649,5.1749 10.75646,5.182455 10.745036,5.195243 10.681657,5.215002 10.553716,5.253404 10.438653,5.310035 10.409245,5.325332 10.328696,5.36961 10.131326,5.494907 10.126551,5.499956 10.12391,5.502536 10.091306,5.539848 10.080568,5.561278 10.037149,5.623133 10.031878,5.646641 10.007332,5.692488 9.955037,5.754117 9.933458,5.775847 9.899365,5.81633 9.807627,5.913994 9.776629,5.943449 9.732574,5.976961 9.717411,5.986521 9.667555,5.997038 9.635326,6.02574 9.623112,6.030796 9.58824,6.035639 9.543772,6.074988 9.440318,6.124051 9.413711,6.137405 9.338845,6.16445 9.246723,6.176086 9.17911,6.190462 9.172518,6.195476 9.153373,6.199478 9.097052,6.187917 9.080482,6.22469 9.069342,6.229141 9.047181,6.245257 9.046149,6.247244 9.0358,6.249676 9.02104,6.254251 8.912129,6.32308 8.906294,6.326653 8.891562,6.339372 8.878011,6.346446 8.849937,6.355932 8.68395,6.472048 8.665634,6.478349 8.638754,6.497353 8.539021,6.543598 8.513366,6.557837 8.485406,6.578603 8.2608,6.750821 8.240458,6.781435 8.19326,6.855036 8.161307,6.903447 8.143601,6.912323 8.128933,6.924886 8.067233,6.955708 8.034086,6.962296 8.028079,6.961221 7.990459,6.965489 7.956086,6.968492 7.943568,6.961115 7.921437,6.961223 7.846015,6.95651 7.831819,6.954671 7.765562,6.954743 7.75103,6.954797 7.72602,6.967322 7.687732,7.008016 7.681991,7.010881 7.672309,7.020088 7.664643,7.025649 7.642306,7.034442 7.634953,7.034678 7.387156,7.038523 7.351509,7.042113 7.347563,7.041634 7.336799,7.034574 7.281374,6.997441 7.195583,6.993771 7.130284,6.991271 7.030488,6.989728 7.011105,6.986407 6.982951,6.976297 6.952116,6.965247 6.844764,6.973059 6.80914,6.968936 6.785017,6.970561 6.751739,6.986921 6.699566,6.988907 6.680432,6.991649 6.609593,7.016659 6.595264,7.016796 6.511235,7.040469 6.504535,7.042452 6.493639,7.040313 6.478997,7.038511 6.452214,7.043606 6.42661,7.055706 6.380748,7.067507 6.379779,7.067605 6.379173,7.067504 6.361753,7.063104 6.337612,7.057883 6.313245,7.071342 6.305746,7.072357 6.252277,7.077811 6.22382,7.075335 6.215179,7.075876 6.208249,7.077464 6.202401,7.077421 6.190044,7.077889 6.136984,7.088411 6.075566,7.102811 6.036291,7.10758 6.021175,7.106898 6.015024,7.108195 5.863793,7.105521 5.835245,7.111376 5.818776,7.100641 5.760953,7.098319 5.736836,7.093643 5.721342,7.096619 5.650304,7.070522 5.631416,7.070426 5.608936,7.069803 5.578045,7.069302 5.550795,7.079197 5.545793,7.081109 5.506109,7.091966 5.493116,7.10089 5.482937,7.100989 5.453664,7.10328 5.392342,7.1244 5.290046,7.130057 5.21924,7.122027 5.206829,7.112056 5.140292,7.129735 5.136611,7.130194 5.132417,7.129712 5.080549,7.117345 5.075582,7.117116 5.066384,7.112516 4.997968,7.093996 4.923175,7.061399 4.905397,7.057371 4.835081,7.050516 4.733397,7.026594 4.733394,7.026594 4.733393,7.026593 4.562242,6.990674 4.481075,6.970933 4.414987,6.968758 4.35123,6.994767 4.285717,7.045861 4.243067,7.043783 4.230516,7.042805 4.188216,7.0298 4.146832,6.973854 4.140246,6.967182 4.095987,6.882545 4.074743,6.841751 4.033723,6.830991 3.997018,6.820677 3.994111,6.819521 3.982046,6.814593 3.937242,6.794847 3.928398,6.786663 3.922462,6.78426 3.910755,6.771314 3.907301,6.76866 3.885387,6.739823 3.756849,6.723744 3.742559,6.720648 3.701354,6.708183 3.662464,6.695595 3.652913,6.689297 3.65238,6.689261 3.637848,6.678936 3.600556,6.656629 3.577308,6.678607 3.566962,6.679762 3.537702,6.695336 3.465455,6.703704 3.454184,6.706136 3.450384,6.705414 3.414333,6.714364 3.349342,6.714801 3.25865,6.716643 3.256489,6.717083 3.245221,6.71486 3.212701,6.704229 3.204075,6.698183 3.056713,6.637825 3.039107,6.630365 3.022345,6.61392 3.001539,6.611856 2.980731,6.607442 2.945536,6.603176 2.927583,6.594237 2.906887,6.587811 2.888964,6.589202 2.883385,6.586029 2.874756,6.57763 2.859646,6.574048 2.813115,6.551358 2.768656,6.529534 2.732731,6.508665 2.695244,6.481818 2.644724,6.452599 2.642188,6.445994 2.630442,6.437824 2.587888,6.376832 2.584647,6.369272 2.56009,6.348495 2.536386,6.345597 2.522574,6.343628 2.454884,6.321116 2.334617,6.268444 2.319569,6.262257 2.312262,6.256411 2.292124,6.244144 2.147659,6.168885 2.10958,6.155348 2.108573,6.152353 2.077408,6.094577 2.078819,6.037176 2.04511,5.969375 2.019321,5.904648 2.020473,5.901713 2.007405,5.849321 2.00698,5.848728 2.006917,5.848033 1.991209,5.781824 1.988724,5.778837 1.99325,5.767694 1.98331,5.743088 1.985148,5.738543 1.976697,5.691781 1.973417,5.657759 1.952952,5.482023 1.950902,5.464539 1.950999,5.454803 1.978426,5.300493 1.978791,5.28394 1.975471,5.260441 1.979832,5.233735 1.966304,5.139907 1.958997,5.07945 1.960303,5.073113 1.957231,5.061596 1.93455,4.942049 1.942296,4.836778 1.94164,4.805328 1.940572,4.795983 1.941959,4.793544 1.942201,4.778448 1.947621,4.687708 1.944311,4.673209 1.950707,4.665171 1.965768,4.624439 1.986827,4.613068 2.003961,4.599703 2.021555,4.542511 2.015174,4.447475 2.01386,4.361772 2.005413,4.30979 1.974046,4.289745 1.953742,4.247582 1.941653,4.124986 1.940468,4.116038 1.940709,4.109532 1.941805,4.064152 1.937472,3.903582 1.943711,3.886038 1.957616,3.844926 1.956392,3.839164 1.961414,3.815314 1.961429,3.807387 1.966985,3.73094 1.978444,3.702695 1.949442,3.458111 1.972181,3.260077 1.97408,3.190322 1.988154,3.158496 1.989554,3.145094 1.989779,3.130714 1.997343,3.114103 1.995081,3.101921 1.999113,3.085871 2.004014,3.065488 2.017028,3.034601 2.019409,3.013686 2.01873,3.009287 2.037215,2.961425 2.107361,2.76874 2.122101,2.750644 2.233047,2.69311 2.281813,2.659598 2.338513,2.636772 2.490328,2.581094 2.55761,2.56387 2.572639,2.540511 2.58758,2.536831 2.605623,2.521512 2.610754,2.511899 2.613307,2.506767 2.615484,2.504384 2.627287,2.495039 2.63468,2.477332 2.637329,2.467734 2.693921,2.430483 2.731174,2.403873 2.771448,2.383767 2.794551,2.369841 2.86083,2.33727 2.876265,2.333494 2.885653,2.324711 2.919699,2.317979 2.996344,2.30452 3.030339,2.294805 3.039371,2.28468 3.214354,2.211951 3.242098,2.202198 3.260626,2.195072 3.261866,2.194609 3.304991,2.192202 3.416609,2.197359 3.448482,2.206687 3.454708,2.205413 3.468107,2.2082 3.510321,2.209644 3.54038,2.224098 3.583669,2.238562 3.613878,2.249372 3.63739,2.229128 3.658634,2.220555 3.669266,2.215834 3.671706,2.214087 3.676189,2.212604 3.738592,2.192015 3.756851,2.187697 3.88424,2.172645 3.907127,2.143139 3.910751,2.140306 3.922464,2.12736 3.942804,2.119121 3.947793,2.112528 3.963233,2.103122 3.970182,2.100538 4.001808,2.089343 4.002472,2.089061 4.022564,2.083359 4.048127,2.076411 4.077439,2.074092 4.09096,2.033751 4.133204,1.946209 4.161933,1.916823 4.204855,1.87766 4.238629,1.873405 4.302807,1.867111 4.338301,1.90073 4.388193,1.933501 4.403428,1.94014 4.418021,1.941479 4.42947,1.946238 4.447711,1.944672 4.511925,1.932931 4.594164,1.918407 4.617584,1.907744 4.716981,1.888714 4.762507,1.876597 4.772853,1.875583 4.796764,1.866751 4.832594,1.864704 4.859113,1.86018 4.881953,1.863023 4.906646,1.854188 4.970921,1.82652 4.993164,1.82102 4.999031,1.815833 5.010018,1.813784 5.137501,1.782472 5.139673,1.781814 5.139979,1.781716 5.140958,1.78167" style="fill: white" />
</svg>
