<svg width="13.600213" height="8.910821">
<polygon type="contour" points="4.011709,1.349708 4.091572,1.355592 4.161993,1.378183 4.272502,1.417965 4.360977,1.417329 4.364058,1.418159 4.365404,1.418512 4.371043,1.420508 4.608097,1.50149 4.615027,1.50616 4.630568,1.513774 4.652057,1.547924 4.722616,1.548352 4.827957,1.53904 4.848276,1.524577 4.907838,1.529582 4.934283,1.551155 5.017592,1.575915 5.034002,1.598731 5.080896,1.60774 5.124284,1.605198 5.296578,1.627223 5.303183,1.627796 5.315339,1.630417 5.51395,1.687658 5.745427,1.752725 5.781651,1.760551 5.865129,1.793908 6.036293,1.83469 6.049914,1.828759 6.087182,1.827558 6.168301,1.852475 6.252318,1.888682 6.318445,1.914592 6.337772,1.924974 6.349618,1.92576 6.368781,1.935459 6.605687,1.986267 6.610667,1.988678 6.624917,1.995219 6.701819,2.042992 6.730817,2.064888 6.752078,2.075702 6.761504,2.080395 6.806588,2.118801 6.922685,2.178233 6.940785,2.192032 6.961261,2.214655 6.966678,2.224072 6.971326,2.23307 6.979318,2.263279 6.993033,2.280275 7.017154,2.293481 7.030822,2.303551 7.044796,2.30929 7.10031,2.319476 7.112341,2.319038 7.149452,2.330487 7.16789,2.335255 7.199028,2.349188 7.213915,2.353612 7.25868,2.356413 7.287241,2.359937 7.321621,2.368471 7.4489,2.444111 7.455705,2.448668 7.457081,2.450364 7.505458,2.487656 7.519374,2.495904 7.564066,2.505035 7.588593,2.518954 7.696751,2.584876 7.730803,2.60231 7.740924,2.607179 7.757311,2.61041 7.798056,2.610317 7.812391,2.615636 7.82996,2.634867 7.856066,2.648026 7.922061,2.671016 7.938439,2.683592 7.959493,2.705659 8.102547,2.731071 8.192863,2.753898 8.2433,2.765108 8.261634,2.779756 8.291541,2.771554 8.345847,2.785953 8.506113,2.831274 8.534794,2.835537 8.545668,2.842757 8.559129,2.846965 8.584527,2.853959 8.598034,2.858066 8.636188,2.885947 8.647564,2.890881 8.707797,2.92477 8.724539,2.931273 8.739195,2.938616 8.77329,2.957777 8.778739,2.959098 8.798062,2.973503 8.81855,2.988369 8.822501,2.990064 8.824001,2.991489 8.825197,2.995476 8.849375,3.01401 8.890805,3.029208 8.91644,3.039755 8.918864,3.041959 8.928025,3.051243 8.940571,3.054333 8.955079,3.062768 8.965786,3.064744 8.986648,3.080709 9.002544,3.099827 9.018385,3.106775 9.023744,3.108039 9.044144,3.114941 9.098718,3.14435 9.122835,3.163794 9.132305,3.177002 9.135233,3.198184 9.177302,3.215027 9.202922,3.2253 9.295664,3.297178 9.328468,3.34568 9.355961,3.37825 9.404748,3.415394 9.556178,3.538865 9.591109,3.567554 9.605141,3.578605 9.61638,3.59414 9.659254,3.628989 9.681539,3.649878 9.730063,3.69076 9.753807,3.706968 9.778001,3.722622 9.792103,3.733239 9.806925,3.748486 9.823123,3.766637 9.839137,3.784371 9.850489,3.788428 9.869124,3.803536 9.901181,3.790869 9.935963,3.780273 9.948362,3.794122 9.959873,3.798925 9.964682,3.808532 9.991559,3.851124 10.003062,3.860146 10.027691,3.876739 10.042574,3.890956 10.062407,3.917282 10.072641,3.931491 10.14274,4.027646 10.149252,4.037798 10.167337,4.068245 10.182714,4.096695 10.200799,4.141198 10.198702,4.151969 10.196552,4.177267 10.20145,4.194996 10.220664,4.239111 10.220731,4.259615 10.243323,4.272707 10.247983,4.28211 10.261121,4.305761 10.262781,4.367612 10.262061,4.589578 10.261826,4.605763 10.256724,4.619279 10.249146,4.630187 10.241528,4.639243 10.231849,4.645681 10.220064,4.673073 10.201079,4.717804 10.196934,4.731591 10.200177,4.769047 10.183552,4.812076 10.163721,4.853099 10.1458,4.879344 10.13417,4.895565 10.087814,4.957311 10.062452,4.989369 10.033561,5.028982 9.984692,5.069061 9.967757,5.097294 9.954523,5.1199 9.943837,5.123474 9.905825,5.117048 9.894615,5.113755 9.85846,5.111028 9.833701,5.131721 9.819431,5.15298 9.808024,5.157616 9.790327,5.179418 9.779779,5.188142 9.768046,5.195272 9.757012,5.202678 9.716283,5.240186 9.698328,5.255113 9.616198,5.319222 9.611911,5.324106 9.596379,5.339581 9.559171,5.376039 9.534601,5.393733 9.461957,5.448318 9.41784,5.48694 9.353315,5.546254 9.326704,5.572301 9.319237,5.579121 9.270703,5.619068 9.217263,5.673295 9.177773,5.694753 9.134474,5.712632 9.128729,5.737825 9.119823,5.749646 9.100091,5.765619 9.045808,5.796053 9.024883,5.803097 9.01856,5.804748 9.002369,5.811845 8.989976,5.82057 8.96595,5.846735 8.955083,5.848853 8.940414,5.857385 8.928386,5.860345 8.919491,5.869306 8.899706,5.881955 8.895889,5.886256 8.883581,5.889736 8.864992,5.891358 8.848193,5.898891 8.82816,5.913801 8.821097,5.922707 8.816852,5.924507 8.806255,5.931866 8.792576,5.941715 8.783059,5.949118 8.777201,5.956904 8.762087,5.96377 8.738018,5.974772 8.630489,6.028827 8.622579,6.035242 8.578697,6.056502 8.569305,6.05881 8.527869,6.07883 8.496842,6.084905 8.369105,6.124572 8.273515,6.142391 8.265816,6.141535 8.219411,6.151031 8.037938,6.190016 8.025846,6.19419 8.006073,6.200185 7.982011,6.199005 7.974164,6.207179 7.962131,6.209056 7.938237,6.230564 7.926687,6.239799 7.828674,6.277052 7.813126,6.295534 7.795861,6.30209 7.769064,6.304383 7.744992,6.302472 7.676656,6.343749 7.625842,6.374283 7.606129,6.385069 7.59899,6.390131 7.587378,6.396359 7.581595,6.397817 7.567183,6.403352 7.526448,6.414537 7.513578,6.418545 7.479033,6.445428 7.47602,6.447041 7.431146,6.486805 7.419193,6.500102 7.371247,6.518303 7.329735,6.528179 7.268898,6.551801 7.174452,6.567934 7.137657,6.580775 7.103722,6.591651 7.097085,6.592504 7.07257,6.592846 7.034858,6.605914 6.985087,6.650746 6.972733,6.670206 6.961962,6.687298 6.920894,6.733554 6.764161,6.823397 6.662798,6.879955 6.633542,6.915103 6.630752,6.916782 6.628087,6.91795 6.583486,6.931121 6.573911,6.933854 6.563963,6.937703 6.557451,6.94081 6.543658,6.94495 6.435414,6.979405 6.396502,6.991256 6.391541,6.992603 6.384355,6.991521 6.346945,6.988739 6.323817,6.993085 6.3103,6.999042 6.281742,7.017049 6.233468,7.048719 6.219596,7.05317 6.063962,7.081073 6.060351,7.080806 6.031359,7.085925 6.008003,7.078589 5.839751,7.126056 5.790209,7.143355 5.779041,7.148057 5.748633,7.157986 5.706337,7.170063 5.535984,7.214187 5.373871,7.264356 5.340026,7.278509 5.162382,7.288071 5.062469,7.308674 5.035241,7.313853 4.956045,7.355729 4.939864,7.354219 4.907801,7.36939 4.886342,7.379326 4.87696,7.377181 4.860704,7.37454 4.726892,7.365931 4.710308,7.361604 4.648813,7.370861 4.630564,7.397466 4.620589,7.404366 4.600588,7.415268 4.395153,7.484622 4.371616,7.491922 4.367959,7.492608 4.309404,7.48132 4.207197,7.511232 4.07838,7.5604 4.010978,7.562976 3.967113,7.566312 3.918579,7.553538 3.899236,7.547367 3.858149,7.551657 3.823908,7.541186 3.750226,7.518837 3.708393,7.527634 3.655249,7.522336 3.647169,7.519077 3.591854,7.509991 3.567586,7.50297 3.547973,7.486569 3.538107,7.482657 3.532177,7.46913 3.517349,7.459663 3.512552,7.447349 3.483256,7.438025 3.472363,7.433617 3.466211,7.432519 3.415337,7.415829 3.37926,7.416541 3.35917,7.418258 3.323547,7.410252 3.299415,7.38149 3.254312,7.406556 3.208149,7.411606 3.178798,7.437866 3.174494,7.448083 3.1681,7.443969 3.164929,7.436658 3.152169,7.418806 3.129739,7.336687 3.070493,7.392847 3.062874,7.394314 3.05104,7.40773 3.036841,7.412614 3.03348,7.414516 3.02614,7.412346 3.002485,7.423837 2.965413,7.405639 2.944444,7.414289 2.932613,7.405983 2.848104,7.443322 2.840107,7.472034 2.834347,7.476797 2.799554,7.455172 2.779253,7.475669 2.778458,7.475599 2.772548,7.473273 2.752498,7.456097 2.734814,7.460755 2.676293,7.42374 2.674981,7.422773 2.649622,7.402652 2.617308,7.375893 2.616688,7.36934 2.595208,7.341912 2.593091,7.262149 2.547255,7.212423 2.520038,7.199201 2.46781,7.146763 2.439273,7.138052 2.428246,7.125881 2.417097,7.120081 2.40559,7.115955 2.385139,7.116031 2.333723,7.112392 2.306261,7.106554 2.161872,7.156085 2.161338,7.15602 1.803726,7.077324 1.788329,7.074769 1.781106,7.071512 1.771928,7.064617 1.760634,7.055897 1.673747,7.000228 1.660488,6.988349 1.63451,6.971172 1.629748,6.965598 1.620982,6.961114 1.57793,6.925866 1.562024,6.911124 1.516557,6.888449 1.454004,6.846225 1.445697,6.842453 1.367401,6.816472 1.282919,6.792157 1.242825,6.803957 1.190039,6.811344 1.125779,6.810718 1.108537,6.809604 1.021362,6.763031 0.992263,6.748541 0.985201,6.743778 0.961673,6.723139 0.947709,6.706646 0.861768,6.572026 0.799828,6.382503 0.799155,6.377886 0.793932,6.364022 0.749651,6.204828 0.716238,6.123582 0.707712,6.025817 0.695998,5.965198 0.675668,5.951074 0.658735,5.930077 0.634613,5.87782 0.625048,5.847491 0.593496,5.81576 0.59047,5.807541 0.571383,5.724837 0.541544,5.592366 0.537244,5.523683 0.51684,5.230431 0.513599,5.174309 0.512625,5.160795 0.503477,4.962443 0.49783,4.876294 0.496796,4.867525 0.521561,4.752451 0.510312,4.74502 0.509957,4.728307 0.521501,4.720487 0.524075,4.611767 0.528569,4.49895 0.523596,4.362919 0.520756,4.172688 0.508654,4.118308 0.508981,4.107661 0.509551,4.085436 0.488261,3.992979 0.49116,3.927148 0.503389,3.798146 0.526938,3.652781 0.52056,3.603709 0.516069,3.591397 0.52664,3.545291 0.52826,3.439193 0.538065,3.419621 0.539289,3.40565 0.546501,3.391183 0.544413,3.361285 0.54338,3.357722 0.545284,3.351071 0.540953,3.298529 0.563174,3.240278 0.604116,3.110396 0.647494,3.012929 0.657583,2.990009 0.666483,2.964565 0.68012,2.9561 0.69664,2.935905 0.70516,2.888257 0.706902,2.871939 0.719698,2.851973 0.728338,2.820119 0.735359,2.797447 0.74535,2.767351 0.795762,2.545386 0.796078,2.542951 0.855083,2.36887 0.874649,2.315447 0.885222,2.285619 0.948384,2.204138 0.993346,2.161955 1.032271,2.140747 1.071419,2.113145 1.102105,2.104583 1.156028,2.104723 1.190037,2.100277 1.244597,2.10909 1.273173,2.11671 1.282935,2.119942 1.29707,2.124859 1.324091,2.117641 1.353909,2.110405 1.421313,2.080012 1.455217,2.064761 1.467638,2.05891 1.513873,2.033606 1.563447,1.999707 1.570834,1.994186 1.607673,1.962478 1.623718,1.95042 1.680144,1.911419 1.680953,1.910505 1.682501,1.909391 1.769862,1.835781 2.047126,1.759445 2.055898,1.757352 2.06028,1.756564 2.317845,1.801152 2.408712,1.795301 2.428206,1.785217 2.443133,1.770403 2.464605,1.762064 2.490069,1.727021 2.502565,1.727404 2.516968,1.714396 2.535224,1.707282 2.546193,1.700932 2.560834,1.686295 2.577378,1.666354 2.587336,1.586539 2.593182,1.575753 2.628855,1.535582 2.630719,1.522325 2.644296,1.510894 2.664182,1.496751 2.66728,1.494157 2.691606,1.475642 2.732829,1.45277 2.741199,1.448189 2.761984,1.446932 2.772545,1.438346 2.778176,1.436039 2.779953,1.441671 2.831013,1.439616 2.876116,1.48642 2.900973,1.485622 2.910052,1.500438 3.027618,1.502913 3.033325,1.499975 3.035775,1.500746 3.037831,1.499814 3.039347,1.50084 3.048383,1.504371 3.131922,1.564216 3.15016,1.496415 3.160407,1.476355 3.168105,1.467646 3.178221,1.472389 3.181976,1.476597 3.199139,1.496073 3.218653,1.496615 3.24728,1.502628 3.293598,1.528866 3.32686,1.501107 3.361599,1.492329 3.381067,1.494716 3.412275,1.495854 3.447169,1.484988 3.47935,1.476099 3.514422,1.459532 3.517344,1.451938 3.532183,1.442499 3.53812,1.428966 3.54632,1.421875 3.569394,1.407393 3.59258,1.400828 3.690379,1.375671 3.7274,1.378947 3.752687,1.383467 3.770054,1.380986 3.776889,1.379193 3.790248,1.376741 3.869345,1.36564 3.888218,1.371779 3.925671,1.35845 3.949988,1.35238 3.989519,1.34595" style="fill: white" /><polygon type="hole" points="5.869333,3.006073 5.756374,3.023982 5.611939,3.048292 5.474933,3.122064 5.307022,3.195787 5.224699,3.270331 5.203894,3.293093 5.182104,3.320866 5.084998,3.478355 5.060176,3.533031 5.007843,3.721084 5.005873,3.743257 5.008296,3.757123 5.015362,3.80665 5.042421,4.059219 5.043781,4.096152 5.050048,4.77894 5.050974,4.79334 5.04888,4.80508 5.044898,4.824763 5.012382,5.15368 5.028149,5.229104 5.064309,5.390263 5.106046,5.479408 5.122161,5.507697 5.127417,5.514948 5.267037,5.681407 5.290624,5.699654 5.37385,5.746086 5.407805,5.76503 5.442615,5.780922 5.611877,5.857204 5.733776,5.884973 5.838913,5.902327 5.897781,5.901056 6.04849,5.889484 6.137227,5.865306 6.235504,5.840231 6.359054,5.797129 6.511405,5.704992 6.517662,5.700744 6.562662,5.656089 6.793056,5.409523 6.858906,5.298635 6.883029,5.279832 6.950761,5.186775 6.951321,5.185995 6.954176,5.18256 7.0518,5.040218 7.075733,4.986783 7.118808,4.782 7.121977,4.757765 7.118143,4.53431 7.106356,4.308818 7.119722,4.254355 7.13058,4.143117 7.12771,4.113208 7.105203,4.007132 7.103194,3.991153 7.096148,3.977575 7.096905,3.969215 7.07894,3.907498 6.966438,3.733715 6.945857,3.731645 6.94189,3.714855 6.88523,3.612376 6.837306,3.552908 6.817156,3.537872 6.806998,3.519908 6.744703,3.437137 6.574709,3.264922 6.519781,3.212321 6.508788,3.204123 6.309867,3.087934 6.156003,3.045278 6.098404,3.029068 6.05571,3.018837 5.877366,3.005637" style="fill: black" />
</svg>
