<svg width="13.600213" height="8.910821">
<polygon type="contour" points="4.627342,1.189487 4.651951,1.2012 4.668618,1.195991 4.686519,1.201118 4.702604,1.19532 4.731242,1.191299 4.774223,1.190515 4.860485,1.19063 4.920309,1.204921 4.971542,1.216946 5.035888,1.260238 5.036375,1.260455 5.058671,1.292269 5.089295,1.295964 5.099608,1.309415 5.134552,1.318088 5.20983,1.301002 5.218819,1.301732 5.232211,1.29796 5.25618,1.292869 5.267244,1.292825 5.279373,1.295486 5.296078,1.299008 5.31328,1.305878 5.360366,1.310439 5.5325,1.305668 5.5652,1.307951 5.757319,1.312825 5.797252,1.318541 5.886741,1.344387 5.989877,1.407858 6.002001,1.411151 6.051122,1.455894 6.114935,1.495172 6.145786,1.518332 6.247248,1.535136 6.37125,1.640386 6.38255,1.653108 6.385933,1.695413 6.414269,1.740331 6.415236,1.742803 6.417086,1.75333 6.429793,1.789761 6.428667,1.811735 6.478277,1.843681 6.587944,1.913113 6.636518,1.916601 6.653536,1.914385 6.664203,1.915976 6.668327,1.917128 6.734485,1.940571 6.771749,1.957239 6.814044,1.964895 6.907359,2.009419 6.92608,2.018292 6.928709,2.023037 6.969198,2.038699 6.989308,2.034845 6.9955,2.035096 7.027684,2.039042 7.041074,2.038118 7.049361,2.04246 7.075944,2.050474 7.111303,2.080882 7.158531,2.116555 7.342748,2.280339 7.347891,2.291286 7.3591,2.301576 7.364136,2.304638 7.378797,2.316493 7.446463,2.36965 7.5689,2.471484 7.678792,2.541225 7.687109,2.54351 7.709168,2.552343 7.756849,2.575141 7.800988,2.631978 7.810358,2.642918 7.845749,2.683166 7.850182,2.687758 7.873607,2.704346 7.882378,2.718215 7.930445,2.741504 7.962979,2.759363 7.989226,2.768358 8.001212,2.771061 8.021843,2.790999 8.068096,2.821854 8.102044,2.844406 8.191884,2.842095 8.221375,2.845461 8.238498,2.847692 8.266816,2.849959 8.320953,2.863584 8.358974,2.87935 8.422701,2.911589 8.489096,2.944519 8.51505,2.978623 8.535915,2.998284 8.540039,3.008008 8.566008,3.023993 8.622945,3.05729 8.631664,3.067822 8.657484,3.08335 8.68993,3.107996 8.69761,3.111999 8.708622,3.122616 8.723828,3.127769 8.791293,3.166923 8.824871,3.186161 8.852608,3.207921 8.862101,3.214262 8.867159,3.222454 8.893586,3.232121 8.899713,3.234309 8.901203,3.235795 8.906695,3.240524 8.922079,3.256761 8.932572,3.270343 8.948025,3.28205 9.005989,3.320604 9.035711,3.335668 9.050831,3.348389 9.07984,3.342992 9.119535,3.34748 9.132788,3.346523 9.152187,3.363158 9.178152,3.36995 9.201268,3.376655 9.218617,3.382364 9.237318,3.382168 9.261783,3.394902 9.279861,3.401303 9.2995,3.404327 9.338316,3.424667 9.397572,3.450242 9.424533,3.464445 9.430507,3.465685 9.435872,3.46753 9.438993,3.469975 9.513843,3.502622 9.619873,3.552918 9.63232,3.565916 9.788031,3.741413 9.792093,3.748396 9.797717,3.754645 9.856601,3.852251 9.86234,3.862622 9.929281,4.014726 9.967325,4.111416 10.005619,4.165403 10.016019,4.218837 10.021816,4.240572 10.034164,4.2562 10.051239,4.32391 10.059024,4.361599 10.061066,4.403123 10.063724,4.527452 10.062535,4.582021 10.061446,4.583985 10.060288,4.588015 10.014206,4.667465 10.009692,4.709712 9.983331,4.77453 9.928818,4.896858 9.860111,5.053456 9.83446,5.085047 9.62677,5.351836 9.620481,5.358678 9.532242,5.400442 9.440727,5.440452 9.436571,5.442316 9.428187,5.444487 9.391422,5.464951 9.362997,5.477961 9.354117,5.482195 9.266291,5.52214 9.236952,5.529819 9.219128,5.528997 9.201492,5.534952 9.165491,5.546184 9.144754,5.557964 9.133769,5.563518 9.130291,5.565308 9.114127,5.564062 9.079885,5.569113 9.053446,5.56374 9.004497,5.591039 8.969701,5.61254 8.955248,5.624183 8.954893,5.624773 8.936717,5.638793 8.934204,5.645858 8.906829,5.670903 8.901684,5.675719 8.900125,5.677055 8.894803,5.679043 8.867118,5.689287 8.861043,5.699119 8.849824,5.706886 8.82422,5.724671 8.818472,5.730147 8.75979,5.760578 8.715157,5.786754 8.691028,5.80278 8.674234,5.818819 8.656042,5.82862 8.613749,5.852664 8.59787,5.874222 8.561236,5.899159 8.543659,5.909302 8.536755,5.919599 8.487386,5.960024 8.459147,5.987641 8.445821,5.996235 8.4398,5.998397 8.422859,6.009177 8.339995,6.050179 8.285351,6.056513 8.272863,6.060083 8.209349,6.060561 8.149391,6.066273 8.11283,6.068323 8.079277,6.078176 8.006318,6.143401 7.95262,6.156913 7.932204,6.169717 7.920688,6.174962 7.892216,6.190784 7.868551,6.213751 7.844205,6.226718 7.81164,6.267749 7.798552,6.285029 7.756974,6.336189 7.709151,6.359278 7.674911,6.372302 7.589049,6.423888 7.51471,6.475495 7.454373,6.517814 7.414067,6.54855 7.380888,6.577774 7.340388,6.639427 7.297724,6.669448 7.076754,6.858829 7.067217,6.865626 7.06609,6.866359 7.032145,6.875439 6.998923,6.876313 6.973451,6.87236 6.930888,6.890705 6.896504,6.907265 6.850972,6.927606 6.782368,6.951686 6.713367,6.977934 6.617469,6.990511 6.596963,6.995559 6.474882,7.069015 6.450326,7.083989 6.431657,7.096731 6.425077,7.126074 6.426213,7.146945 6.384631,7.217391 6.378865,7.247264 6.37872,7.253765 6.364361,7.267409 6.268254,7.364186 6.251745,7.375247 6.207124,7.392435 6.125415,7.421354 6.059146,7.438994 6.029527,7.468662 6.012844,7.480864 6.000933,7.490031 5.981966,7.504051 5.96432,7.509481 5.873963,7.562495 5.800268,7.577442 5.675094,7.588594 5.645511,7.606938 5.603034,7.592362 5.460535,7.596347 5.368376,7.600296 5.35609,7.600917 5.346035,7.603797 5.304243,7.604733 5.283245,7.615266 5.275817,7.616853 5.247907,7.615415 5.151986,7.595821 5.11275,7.595251 5.079129,7.621039 5.055415,7.617488 5.037625,7.659938 4.955128,7.692801 4.882925,7.721413 4.835204,7.718629 4.76705,7.723382 4.74758,7.722996 4.720742,7.716765 4.691918,7.719228 4.658613,7.712174 4.630153,7.721105 4.615237,7.724307 4.541017,7.717922 4.433197,7.708344 4.419026,7.709375 4.395104,7.70117 4.221994,7.694306 4.207913,7.693904 4.205016,7.693973 4.198201,7.694263 4.150295,7.656363 4.121594,7.697359 4.111906,7.696659 4.077632,7.692519 4.051469,7.683227 4.019568,7.680571 3.952281,7.666566 3.934395,7.65597 3.84104,7.604762 3.83362,7.602074 3.828629,7.594986 3.811431,7.588153 3.799354,7.578856 3.782057,7.564829 3.771642,7.560292 3.755463,7.554675 3.677492,7.525151 3.609037,7.521992 3.581099,7.514957 3.577253,7.510715 3.50873,7.49139 3.500929,7.488786 3.467791,7.482569 3.41523,7.47742 3.356201,7.459839 3.324436,7.441834 3.274348,7.428012 3.253064,7.411435 3.249484,7.410085 3.242634,7.401847 3.205079,7.369487 3.202556,7.368058 3.19947,7.364554 3.167033,7.335815 3.151233,7.331135 3.138554,7.31665 3.114078,7.303251 3.065279,7.302004 3.008693,7.306038 2.986584,7.310246 2.950507,7.317793 2.939255,7.337019 2.930079,7.34878 2.911718,7.367817 2.834313,7.437337 2.831829,7.438489 2.831616,7.438614 2.747822,7.431962 2.736711,7.428879 2.657026,7.423608 2.643298,7.411139 2.633357,7.41134 2.61956,7.405479 2.587151,7.381028 2.49445,7.368594 2.486641,7.366554 2.482749,7.365464 2.478007,7.362489 2.452532,7.334156 2.358786,7.314669 2.298683,7.306226 2.191779,7.293612 2.189563,7.293748 2.184946,7.291943 2.17701,7.289132 1.934226,7.231247 1.918072,7.239899 1.862198,7.263787 1.848203,7.286515 1.841209,7.293449 1.801256,7.309374 1.76356,7.316524 1.740336,7.315332 1.717213,7.319795 1.686166,7.351226 1.640182,7.363485 1.554349,7.376054 1.503791,7.376692 1.458937,7.360246 1.44871,7.353248 1.384693,7.309129 1.351031,7.282035 1.282952,7.204201 1.250949,7.184054 1.244811,7.181046 1.233516,7.176677 1.189696,7.166008 1.18539,7.165773 1.148277,7.143829 1.114956,7.127128 1.108159,7.123504 1.012387,6.990172 0.993699,6.953795 0.962122,6.884686 0.960662,6.878139 0.962159,6.869797 0.961301,6.862645 0.961491,6.846892 0.958201,6.752205 0.955821,6.730034 0.934978,6.701901 0.933643,6.686967 0.915122,6.671183 0.91321,6.65849 0.895336,6.632448 0.876682,6.600787 0.846795,6.543545 0.772744,6.396934 0.766513,6.381998 0.761936,6.375735 0.755954,6.368499 0.69937,6.223285 0.688717,6.187731 0.650176,6.082322 0.622986,5.986462 0.60075,5.903312 0.587978,5.846561 0.581333,5.815811 0.54961,5.664671 0.544405,5.605834 0.55633,5.528226 0.574277,5.478654 0.5733,5.379 0.573754,5.375517 0.573758,5.373079 0.576058,5.368965 0.575968,5.333699 0.579815,5.324385 0.587985,5.293677 0.583926,5.281813 0.584637,5.274603 0.576396,5.227727 0.567114,5.203778 0.567965,5.190881 0.571815,5.166019 0.555627,5.143986 0.53586,5.085527 0.47474,5.052313 0.459618,5.045603 0.454768,5.040065 0.450139,5.032762 0.447014,4.996011 0.441947,4.95396 0.437248,4.864795 0.436785,4.700609 0.465681,4.667818 0.477838,4.375425 0.478403,4.360462 0.470664,4.338218 0.472335,4.245219 0.445803,4.224376 0.441587,4.218095 0.437211,4.21364 0.435124,4.209837 0.437798,4.157383 0.452174,3.87308 0.455165,3.869589 0.458125,3.866486 0.535925,3.823486 0.540971,3.804628 0.556535,3.778004 0.560489,3.770201 0.568951,3.731366 0.570872,3.703812 0.571915,3.700731 0.580354,3.663632 0.582075,3.656252 0.58226,3.636351 0.583225,3.628146 0.591088,3.609801 0.577151,3.587983 0.577369,3.583852 0.572475,3.57604 0.571036,3.505857 0.536253,3.291416 0.53651,3.279943 0.53875,3.267755 0.599863,3.024752 0.600605,3.022363 0.606815,2.996873 0.660725,2.795194 0.691336,2.720158 0.700259,2.686212 0.731769,2.599393 0.765004,2.557196 0.772913,2.536327 0.78512,2.499244 0.821118,2.422169 0.881951,2.294977 0.891824,2.282983 0.911143,2.252751 0.911144,2.252502 0.913901,2.248591 0.940366,2.215983 0.953356,2.178971 0.946982,2.133727 0.949826,2.079334 0.952191,2.056884 0.966067,2.027272 0.988842,1.977222 1.00556,1.934004 1.008439,1.926479 1.038522,1.883363 1.105736,1.789206 1.154544,1.76042 1.205688,1.741965 1.245851,1.731277 1.282252,1.708324 1.314337,1.676658 1.33267,1.64762 1.34249,1.638675 1.409196,1.587556 1.424547,1.575469 1.457133,1.552824 1.459068,1.551415 1.507598,1.535413 1.633548,1.55888 1.677986,1.558072 1.71478,1.568974 1.774459,1.604464 1.843371,1.617421 1.860067,1.634919 1.8695,1.66005 1.907579,1.670303 1.933925,1.680306 2.051304,1.653386 2.053642,1.652882 2.178738,1.622299 2.183999,1.619264 2.187863,1.618154 2.190061,1.618439 2.21372,1.615124 2.438733,1.579586 2.47208,1.553526 2.482906,1.546542 2.499419,1.542628 2.577871,1.531938 2.597906,1.524405 2.630752,1.504835 2.644521,1.497696 2.735447,1.47553 2.822594,1.472064 2.828528,1.472045 2.831581,1.472911 2.836513,1.476148 2.874197,1.508001 2.883454,1.510788 2.908491,1.534584 2.93219,1.56827 2.940486,1.583977 2.976175,1.601216 3.076472,1.610238 3.116413,1.60913 3.130167,1.594342 3.150656,1.585673 3.164829,1.579641 3.220181,1.53595 3.23887,1.512141 3.301685,1.482076 3.350574,1.461175 3.420066,1.428292 3.429754,1.425632 3.465575,1.429141 3.493969,1.431316 3.580574,1.399757 3.581753,1.396033 3.59881,1.392404 3.635936,1.400858 3.707767,1.379688 3.728245,1.370901 3.745654,1.364348 3.816116,1.320337 3.825763,1.314184 3.827661,1.313478 3.835817,1.309338 3.896018,1.281972 3.953546,1.248229 3.960707,1.241528 4.00085,1.227521 4.038785,1.227141 4.040431,1.226601 4.043147,1.226451 4.116395,1.214512 4.122702,1.215012 4.157092,1.252884 4.192988,1.221105 4.203604,1.216568 4.251282,1.21658 4.271404,1.217569 4.281748,1.216151 4.380337,1.211701 4.429137,1.209781 4.448729,1.207276 4.503317,1.194593 4.572485,1.188679 4.615965,1.187425" style="fill: white" /><polygon type="hole" points="5.504516,2.956249 5.422305,2.959273 5.263465,2.971057 5.15022,3.014645 5.022607,3.075068 4.897826,3.174794 4.851257,3.225745 4.822283,3.262675 4.798549,3.310681 4.751765,3.375978 4.723118,3.432519 4.716378,3.510695 4.707752,3.622597 4.70947,3.677412 4.72769,3.713892 4.743138,3.808388 4.788538,3.882814 4.80486,3.925503 4.836801,4.104898 4.817451,4.369365 4.817961,4.383233 4.818377,4.42854 4.831226,4.62846 4.840371,4.75546 4.840291,4.760498 4.823281,4.899915 4.769622,5.048504 4.755728,5.110313 4.71716,5.208929 4.708397,5.315005 4.704616,5.336594 4.713583,5.379492 4.739913,5.505393 4.800323,5.613999 4.813273,5.636731 4.849898,5.687254 4.938911,5.775355 4.99663,5.821047 5.056304,5.863156 5.130352,5.89562 5.163026,5.914739 5.350756,5.952388 5.369256,5.955997 5.472432,5.956537 5.572338,5.955335 5.853598,5.886705 5.872053,5.883307 6.150989,5.76893 6.321271,5.709765 6.331038,5.703959 6.341861,5.697205 6.514143,5.468178 6.576402,5.385739 6.621003,5.303805 6.646078,5.251105 6.708318,5.174652 6.781127,5.105552 6.796114,5.069398 6.810673,5.053608 6.86273,4.986208 6.888712,4.934254 6.902747,4.844958 6.91753,4.798567 6.898879,4.711039 6.888457,4.529353 6.887802,4.258738 6.888741,4.249749 6.929751,4.104735 6.906154,4.039532 6.902355,4.028478 6.896341,4.022243 6.869653,3.954681 6.858901,3.928065 6.852346,3.924348 6.851751,3.910045 6.840189,3.89729 6.787176,3.817419 6.778392,3.809414 6.775223,3.802276 6.668308,3.673639 6.609532,3.58728 6.592473,3.547918 6.539425,3.469473 6.503865,3.426311 6.490935,3.408911 6.484933,3.401549 6.46613,3.358954 6.457994,3.344727 6.369922,3.242598 6.315587,3.193902 6.305442,3.188719 6.301028,3.185567 6.160906,3.144923 6.139667,3.135654 6.136235,3.134067 6.024494,3.086589 5.874374,3.043099 5.740792,2.995247 5.679589,2.971538 5.540941,2.95537" style="fill: black" />
</svg>
