<svg width="13.600213" height="8.910821">
<polygon type="contour" points="9.215424,0.50936 9.233886,0.514169 9.252287,0.531759 9.314432,0.626377 9.332035,0.665475 9.375737,0.778858 9.388107,0.82544 9.40587,0.864859 9.413444,0.870256 9.461885,0.951577 9.477459,0.965407 9.488492,0.980416 9.49388,0.992299 9.537492,1.052034 9.54035,1.05805 9.544588,1.065774 9.570423,1.096641 9.576886,1.105384 9.589862,1.124494 9.60541,1.138586 9.612049,1.145401 9.616338,1.150858 9.627076,1.163148 9.62624,1.173285 9.639439,1.193186 9.636599,1.205724 9.67318,1.235911 9.702683,1.239823 9.735325,1.249161 9.833299,1.283787 9.952286,1.320234 10.259156,1.412305 10.269387,1.417512 10.494191,1.45805 10.567327,1.459762 10.588684,1.472361 10.614891,1.493733 10.646544,1.502545 10.722254,1.502665 10.746144,1.505851 10.775078,1.49575 10.793666,1.498082 10.820546,1.503793 10.839082,1.510826 10.876827,1.508684 10.948555,1.498787 10.972695,1.496091 11.017816,1.481065 11.22713,1.403673 11.260809,1.402787 11.270925,1.40083 11.344525,1.404788 11.384672,1.394423 11.459617,1.404887 11.502244,1.413107 11.50773,1.414947 11.512489,1.416567 11.522946,1.422095 11.693157,1.53906 11.773828,1.604799 11.799898,1.630061 11.800305,1.630974 11.806103,1.670041 11.837857,1.756984 11.840989,1.764758 11.840044,1.770083 11.840827,1.779593 11.864241,2.017703 11.875627,2.168123 11.888913,2.219125 11.925258,2.341479 11.952733,2.415657 11.98507,2.50039 12.049707,2.649762 12.05813,2.664215 12.093615,2.719147 12.168334,2.850437 12.202386,2.898981 12.233227,2.91936 12.237499,2.924129 12.243418,2.931853 12.361265,3.108471 12.368066,3.122979 12.400993,3.175105 12.41164,3.193045 12.50646,3.31455 12.510026,3.323733 12.512388,3.350652 12.515938,3.360325 12.514276,3.385781 12.535893,3.397237 12.579041,3.46031 12.589572,3.484597 12.599256,3.502505 12.60939,3.551697 12.63269,3.619234 12.63352,3.627095 12.641742,3.639319 12.66005,3.666463 12.681067,3.710964 12.694669,3.80518 12.712202,3.869484 12.71725,3.876836 12.740421,4.00295 12.741949,4.031997 12.739593,4.04357 12.748459,4.113966 12.752663,4.17575 12.760033,4.227705 12.756748,4.236698 12.765872,4.325798 12.749874,4.415388 12.765628,4.583823 12.755214,4.66834 12.759958,4.682066 12.756115,4.706412 12.745959,4.851867 12.735237,4.938768 12.72855,4.993581 12.722327,5.007132 12.72266,5.024057 12.709085,5.059972 12.701297,5.13261 12.663464,5.233648 12.660029,5.244246 12.62705,5.28854 12.624156,5.325765 12.621478,5.342762 12.593933,5.409026 12.553242,5.484085 12.543038,5.506113 12.536997,5.511267 12.514885,5.530276 12.514447,5.554211 12.512148,5.561259 12.512632,5.565614 12.507237,5.587232 12.357035,5.811144 12.29933,5.891817 12.289022,5.909904 12.263593,5.952397 12.239705,5.985371 12.236774,5.988504 12.233224,5.992244 12.209277,6.003282 12.150305,6.094616 12.143982,6.106923 12.141745,6.112253 12.133567,6.1254 12.050903,6.277125 12.034504,6.301359 11.978208,6.386879 11.953416,6.488025 11.918425,6.585434 11.876708,6.745114 11.877,6.803773 11.867271,6.881384 11.838409,7.077233 11.833936,7.114622 11.834965,7.139689 11.828688,7.189971 11.813034,7.233028 11.801861,7.252792 11.800069,7.281104 11.799107,7.283421 11.77424,7.306062 11.753048,7.329932 11.690045,7.383019 11.565564,7.468505 11.545151,7.483112 11.539503,7.485625 11.53861,7.486539 11.529468,7.487954 11.523898,7.490263 11.416096,7.511575 11.381814,7.514508 11.353223,7.511196 11.327328,7.509917 11.179018,7.493423 11.106415,7.479359 11.098914,7.471946 11.057441,7.466318 10.999637,7.447817 10.964097,7.41968 10.952103,7.417834 10.890334,7.401594 10.872654,7.401758 10.824033,7.407823 10.766019,7.415585 10.724186,7.41964 10.655286,7.413117 10.634407,7.422277 10.619196,7.423467 10.599111,7.441689 10.593328,7.447341 10.573885,7.447659 10.51913,7.464523 10.424951,7.465245 10.286026,7.502641 10.224551,7.512671 10.21456,7.518423 10.160132,7.539531 9.9169,7.603199 9.803558,7.640906 9.715736,7.667245 9.699708,7.671274 9.689664,7.672777 9.68002,7.67438 9.636339,7.694356 9.636045,7.72355 9.625459,7.728862 9.627076,7.748472 9.616035,7.761014 9.605717,7.772433 9.580518,7.801897 9.56328,7.821575 9.548485,7.838366 9.535907,7.861244 9.48462,7.930036 9.479701,7.941302 9.465809,7.96059 9.443062,7.994826 9.4382,7.999209 9.413665,8.028389 9.399574,8.056722 9.354323,8.187018 9.348941,8.20166 9.347802,8.205624 9.340113,8.221655 9.27789,8.351429 9.266373,8.371407 9.246763,8.386485 9.209381,8.405553 9.156738,8.406769 9.108976,8.404718 8.990536,8.387803 8.94517,8.367787 8.941359,8.36622 8.928951,8.358611 8.781549,8.258346 8.729867,8.165356 8.675453,8.151608 8.627721,8.128962 8.604229,8.118939 8.384244,8.056149 8.363633,8.04078 8.313174,8.001614 8.268062,7.990913 8.265105,7.989105 8.261728,7.988223 8.210852,7.965012 8.140301,7.935962 8.120595,7.930933 8.110839,7.927797 8.098581,7.924529 8.064616,7.909304 7.904018,7.872778 7.811983,7.843179 7.797597,7.841331 7.767316,7.827331 7.724398,7.816966 7.628861,7.803522 7.597377,7.80096 7.461913,7.83626 7.446934,7.8395 7.439738,7.842591 7.420111,7.842762 7.410091,7.843843 7.381978,7.851532 7.240145,7.888642 7.206289,7.89684 7.202888,7.89423 7.190237,7.894703 7.164421,7.888071 7.133495,7.894719 7.127494,7.901078 7.097821,7.918103 7.076228,7.922226 7.076178,7.922238 7.076051,7.922262 7.075964,7.922265 6.958273,7.931352 6.948206,7.926607 6.896016,7.929387 6.872048,7.928612 6.866841,7.928535 6.863755,7.922376 6.838562,7.89046 6.785252,7.902327 6.77284,7.907003 6.734319,7.915727 6.72729,7.92256 6.721106,7.924168 6.71067,7.930461 6.705021,7.931308 6.691863,7.930947 6.669078,7.929535 6.651353,7.926892 6.648062,7.92716 6.644486,7.926323 6.630175,7.921488 6.562528,7.899802 6.549246,7.898381 6.542173,7.898598 6.537634,7.899205 6.523382,7.887276 6.485848,7.874274 6.454485,7.890122 6.451823,7.890029 6.447171,7.88908 6.418814,7.891625 6.380103,7.891601 6.296847,7.895238 6.231393,7.89255 6.218561,7.892806 6.204991,7.883309 6.189228,7.874604 6.101871,7.876416 6.093093,7.875053 6.088415,7.869238 6.068198,7.840787 6.038878,7.834034 6.016297,7.827651 5.978323,7.806347 5.93848,7.792232 5.924621,7.782568 5.910519,7.760436 5.865923,7.737614 5.809506,7.703072 5.808836,7.702775 5.73788,7.661479 5.704269,7.64414 5.686833,7.632347 5.642237,7.614288 5.631263,7.618087 5.609943,7.615019 5.563179,7.600255 5.475479,7.575708 5.46399,7.565575 5.403567,7.526338 5.375879,7.518138 5.373128,7.512408 5.348181,7.485377 5.313501,7.463692 5.265201,7.441951 5.265186,7.439539 5.243755,7.39294 5.17475,7.37282 5.138213,7.378204 5.125306,7.374569 5.011114,7.312859 4.983719,7.300868 4.974958,7.298274 4.964349,7.290055 4.940475,7.267209 4.896762,7.235034 4.829396,7.186753 4.828848,7.186153 4.826381,7.183371 4.825499,7.180632 4.770768,7.084522 4.768979,7.078337 4.768971,7.078124 4.762919,7.052795 4.725527,7.023452 4.706507,7.001466 4.666677,6.969474 4.5905,6.883337 4.518583,6.808287 4.494027,6.774096 4.455141,6.735413 4.426376,6.69952 4.414202,6.665488 4.396505,6.630749 4.370689,6.610742 4.369403,6.608542 4.326216,6.575425 4.325242,6.574905 4.324014,6.573842 4.283829,6.525142 4.250994,6.490728 4.228648,6.458694 4.211068,6.437861 4.206899,6.427863 4.206668,6.427145 4.207419,6.424778 4.213062,6.394334 4.213775,6.366473 4.204706,6.348934 4.199345,6.339481 4.153194,6.3003 4.12996,6.263038 4.082606,6.185632 4.06835,6.181667 3.974384,6.005023 3.973158,6.002845 3.969635,5.994278 3.968471,5.992822 3.970653,5.963677 3.935976,5.937629 3.928239,5.912097 3.897257,5.901643 3.815024,5.822998 3.807712,5.814847 3.80491,5.811684 3.800693,5.805723 3.79881,5.802947 3.797133,5.800348 3.787365,5.779599 3.747217,5.696692 3.752662,5.66248 3.745796,5.63286 3.719287,5.600467 3.710902,5.578238 3.695082,5.556612 3.660292,5.516807 3.622454,5.475184 3.60218,5.384276 3.607745,5.316889 3.603135,5.294215 3.593976,5.273601 3.582056,5.23018 3.575515,5.158037 3.564794,5.026846 3.570221,5.00887 3.564138,4.995618 3.558497,4.865416 3.555673,4.787069 3.559026,4.728754 3.557192,4.695982 3.558277,4.55321 3.551672,4.485526 3.550871,4.442095 3.549235,4.372225 3.557224,4.286775 3.558326,4.165674 3.554321,4.132152 3.555329,4.068529 3.571322,3.90383 3.572727,3.898274 3.573967,3.847673 3.580702,3.710265 3.603161,3.64945 3.608409,3.616241 3.599242,3.540179 3.610399,3.514222 3.62857,3.435484 3.722619,3.325553 3.735596,3.301172 3.750655,3.286829 3.743518,3.227083 3.756538,3.193849 3.759897,3.172672 3.781283,3.132882 3.810162,3.097896 3.88277,3.025271 3.897355,3.01688 3.940616,2.983655 3.945734,2.964361 3.96996,2.947848 3.969807,2.917987 3.978194,2.896726 3.989725,2.878127 4.044832,2.759518 4.073062,2.73648 4.078051,2.725422 4.09376,2.716909 4.111085,2.678801 4.135757,2.628731 4.158677,2.602497 4.176791,2.590898 4.188182,2.581939 4.19999,2.57141 4.205969,2.559839 4.215392,2.541225 4.207648,2.505271 4.208894,2.481439 4.214934,2.468086 4.229948,2.450571 4.313326,2.356242 4.336242,2.331347 4.389482,2.286266 4.398202,2.280652 4.410552,2.263715 4.415034,2.251972 4.42683,2.213301 4.432291,2.204263 4.508208,2.116218 4.510906,2.113517 4.521411,2.100735 4.606697,2.003588 4.704215,1.919704 4.723308,1.895511 4.75479,1.866719 4.770029,1.834714 4.7716,1.824311 4.775439,1.812562 4.792059,1.798617 4.801275,1.774257 4.819309,1.74786 4.888002,1.680093 4.908251,1.664688 4.977615,1.631095 5.122278,1.537611 5.144476,1.534344 5.176443,1.537774 5.197952,1.537032 5.216358,1.531525 5.229335,1.525143 5.245528,1.515957 5.264297,1.479252 5.268274,1.468121 5.277346,1.462248 5.320813,1.452099 5.340974,1.445639 5.374716,1.4004 5.377574,1.393506 5.385096,1.390081 5.404468,1.383671 5.435004,1.364043 5.472238,1.333364 5.61179,1.299541 5.636145,1.300537 5.660219,1.29187 5.691738,1.27792 5.708491,1.266271 5.722468,1.255242 5.730635,1.248479 5.802829,1.207907 5.807688,1.207082 5.86142,1.184996 5.886424,1.167436 5.910024,1.15081 5.919398,1.134501 5.928566,1.127185 5.939207,1.11921 5.959329,1.109372 5.997967,1.093893 6.020779,1.087758 6.047256,1.07864 6.078484,1.059056 6.10319,1.037252 6.144384,1.033891 6.170465,1.035086 6.186613,1.033873 6.199441,1.026825 6.204378,1.023468 6.206029,1.022164 6.228875,1.006898 6.243506,1.004984 6.294524,0.994638 6.31626,0.994898 6.349398,1.00278 6.449664,1.021191 6.465495,1.030143 6.477727,1.025902 6.492731,1.038912 6.522696,1.011881 6.526643,1.012169 6.548281,1.013158 6.578287,1.014792 6.607828,1.000273 6.618716,0.998388 6.656347,0.984669 6.668695,0.982286 6.694731,0.979748 6.701256,0.97974 6.70921,0.986161 6.721105,0.987449 6.72729,0.989059 6.734972,0.996 6.74254,0.997352 6.753899,1.002922 6.793521,1.012811 6.851139,1.014086 6.860628,0.984123 6.869102,0.982789 6.888057,0.985331 6.896119,0.986213 6.898814,0.985837 6.901954,0.985922 6.907163,0.985662 6.911178,0.986917 6.92164,0.985791 6.93269,0.985567 6.975727,0.984883 6.995387,0.981853 7.075965,0.989354 7.07604,0.989356 7.076237,0.989393 7.097977,0.993506 7.115597,1.005488 7.128816,1.010862 7.133738,1.017022 7.164645,1.023668 7.189584,1.017182 7.200683,1.018186 7.208265,1.014889 7.21889,1.01688 7.370931,1.055476 7.418618,1.066037 7.477146,1.07784 7.563739,1.105347 7.614963,1.10926 7.711264,1.096675 7.756028,1.085651 7.773157,1.081239 7.779954,1.077379 7.807037,1.070662 7.895797,1.039041 7.943627,1.016597 7.944953,1.016345 7.985398,1.013286 8.058909,0.986528 8.093225,0.987398 8.135776,0.981121 8.191882,0.956331 8.253421,0.923444 8.300876,0.914187 8.312537,0.909834 8.334915,0.89314 8.374951,0.865908 8.389942,0.854096 8.512406,0.823362 8.618197,0.783158 8.64728,0.758947 8.663117,0.755475 8.732944,0.744824 8.753086,0.703295 8.769068,0.670366 8.864664,0.593597 8.970504,0.525477 9.070628,0.508522 9.151318,0.498281" style="fill: white" />
</svg>
