<svg width="13.600213" height="8.910821">
<polygon type="contour" points="5.605917,1.712231 5.728475,1.719897 5.930002,1.717345 5.990412,1.72164 6.028183,1.730082 6.127284,1.732318 6.218426,1.725515 6.415693,1.743448 6.459465,1.748814 6.491095,1.743651 6.554381,1.757503 6.563717,1.758093 6.686274,1.780609 6.836994,1.806822 6.931916,1.814288 6.971229,1.806365 7.042153,1.817633 7.064629,1.818322 7.106617,1.820387 7.126857,1.804772 7.147014,1.80042 7.19171,1.785604 7.245067,1.779869 7.319162,1.786294 7.341321,1.793477 7.371099,1.796564 7.406014,1.80038 7.472884,1.783061 7.506856,1.768442 7.516289,1.763708 7.528224,1.761629 7.547384,1.75139 7.587057,1.745918 7.64736,1.736423 7.670204,1.74094 7.786712,1.736871 7.800217,1.735903 7.839772,1.739596 7.919745,1.74783 7.935964,1.759131 7.967647,1.76567 7.988803,1.762164 8.013515,1.770896 8.025921,1.772911 8.04946,1.772422 8.053362,1.77147 8.066539,1.770961 8.141793,1.765135 8.187072,1.766135 8.203563,1.768024 8.221996,1.778985 8.256255,1.815903 8.281249,1.837443 8.287777,1.842465 8.28851,1.845954 8.297224,1.864593 8.30533,1.870826 8.309419,1.889735 8.354311,1.959624 8.357665,1.962731 8.360659,1.967175 8.402243,2.002758 8.445417,2.0413 8.463311,2.043256 8.492691,2.047417 8.501691,2.054001 8.502366,2.054617 8.505176,2.056242 8.514823,2.063139 8.633635,2.138979 8.676447,2.190797 8.766011,2.276095 8.818157,2.349222 8.862619,2.416071 8.903025,2.433111 8.909719,2.437243 8.911411,2.438155 8.914348,2.44058 8.974324,2.464447 8.994649,2.47015 9.141205,2.537794 9.164666,2.548994 9.165541,2.549326 9.170773,2.552593 9.236983,2.590159 9.350461,2.619865 9.367041,2.622022 9.378158,2.620378 9.470363,2.639594 9.576337,2.650545 9.591976,2.64809 9.610445,2.649394 9.626834,2.652749 9.658798,2.656885 9.731232,2.681699 9.79916,2.728828 9.839824,2.771227 9.850975,2.788955 9.853587,2.798654 9.866697,2.816741 9.927044,2.893561 10.034843,3.036213 10.083684,3.098408 10.091646,3.108704 10.125867,3.144702 10.14929,3.167906 10.202217,3.188575 10.212713,3.192692 10.230565,3.209781 10.255122,3.231034 10.273957,3.248471 10.317282,3.28187 10.362936,3.312011 10.374389,3.320471 10.382511,3.324503 10.388004,3.327818 10.393649,3.331318 10.536085,3.428363 10.637009,3.483454 10.678571,3.511009 10.698927,3.523315 10.706499,3.52919 10.714145,3.534085 10.722081,3.537025 10.761942,3.558178 10.856433,3.597454 10.896466,3.616066 10.948846,3.630848 10.989629,3.654291 11.027591,3.677149 11.045138,3.689484 11.060075,3.700622 11.067892,3.711597 11.082082,3.722392 11.083816,3.725721 11.091813,3.735461 11.099766,3.747659 11.113166,3.757457 11.209799,3.829829 11.268409,3.902279 11.286877,3.930165 11.309301,3.978464 11.319543,4.015366 11.319878,4.044398 11.31912,4.090183 11.313638,4.38001 11.304135,4.436577 11.295776,4.455809 11.31177,4.512612 11.313644,4.529054 11.323037,4.70313 11.328898,4.804125 11.318842,4.872862 11.318277,4.902484 11.31507,4.920916 11.295763,4.962905 11.269953,5.006652 11.224567,5.065911 11.198684,5.090434 11.147206,5.124945 11.112194,5.154959 11.094954,5.166022 11.043458,5.220251 10.92863,5.288837 10.843874,5.328008 10.795378,5.345393 10.706876,5.381935 10.653222,5.418954 10.520369,5.493544 10.501919,5.509493 10.49329,5.514528 10.477015,5.527268 10.400529,5.581699 10.336748,5.620446 10.319413,5.627291 10.290775,5.65014 10.173826,5.717085 10.161945,5.728166 10.146728,5.74081 10.13888,5.752553 9.92046,6.027701 9.900461,6.047979 9.866311,6.095323 9.853401,6.112843 9.832953,6.151475 9.803506,6.188969 9.768128,6.210985 9.658889,6.254477 9.587376,6.261798 9.532779,6.266344 9.517597,6.262548 9.484941,6.264812 9.409995,6.273631 9.400764,6.280033 9.276938,6.320751 9.245145,6.324427 9.217188,6.334697 9.165041,6.362381 9.164545,6.362715 9.137195,6.373074 9.109888,6.390294 8.984604,6.436021 8.908076,6.473637 8.904505,6.476176 8.903256,6.476809 8.898954,6.479716 8.873788,6.490028 8.860451,6.497643 8.851872,6.507618 8.763997,6.631951 8.723588,6.668773 8.691517,6.708241 8.670939,6.724076 8.656396,6.738284 8.609743,6.773931 8.557907,6.815477 8.522908,6.840201 8.483465,6.865724 8.466436,6.864579 8.427878,6.883621 8.386542,6.92402 8.373027,6.939968 8.354019,6.95603 8.349099,6.963563 8.338339,6.974335 8.305858,7.033227 8.304969,7.036881 8.302819,7.038888 8.295705,7.052578 8.285678,7.070925 8.261608,7.09092 8.226085,7.129027 8.223223,7.133473 8.201581,7.145447 8.184366,7.145053 8.147602,7.14463 8.131037,7.146043 8.122542,7.141724 8.05383,7.141373 8.024138,7.138266 7.99902,7.148598 7.983434,7.14655 7.902606,7.15538 7.835603,7.178342 7.82895,7.18071 7.659819,7.185502 7.646755,7.184163 7.598401,7.173763 7.552291,7.162263 7.521611,7.15444 7.510757,7.14546 7.501703,7.144074 7.464191,7.117947 7.381199,7.123374 7.363847,7.116074 7.331647,7.122761 7.212867,7.119583 7.209034,7.121737 7.19226,7.120781 7.181551,7.11822 7.174265,7.115064 7.12915,7.107505 7.121952,7.102268 7.108145,7.093237 7.086903,7.092439 7.06337,7.093602 7.059717,7.094481 7.059028,7.094301 7.044344,7.09454 6.980305,7.103243 6.945068,7.097908 6.927809,7.098519 6.804226,7.110613 6.70839,7.136007 6.60947,7.1593 6.574009,7.160478 6.530057,7.166593 6.513145,7.16835 6.434318,7.166922 6.402573,7.177496 6.388018,7.180022 6.073445,7.185308 6.071038,7.185365 5.882769,7.192752 5.775063,7.199213 5.743594,7.19935 5.585411,7.192502 5.502704,7.1738 5.428181,7.170596 5.35096,7.165893 5.248901,7.138285 5.206326,7.130651 5.18028,7.120589 5.142463,7.111463 5.080301,7.090767 4.98127,7.056635 4.743581,6.981176 4.736803,6.979536 4.733795,6.978504 4.708739,6.972215 4.660281,6.9641 4.637384,6.954071 4.5866,6.941803 4.550428,6.931672 4.544548,6.929661 4.517602,6.919925 4.506336,6.922999 4.475537,6.90704 4.433879,6.891719 4.387419,6.871578 4.337073,6.855548 4.293819,6.83079 4.244182,6.809794 4.238815,6.806766 4.204859,6.788744 4.175575,6.774798 4.037389,6.721592 4.033341,6.719566 4.025936,6.715587 3.911524,6.630962 3.87067,6.612901 3.841653,6.595565 3.838301,6.592102 3.765078,6.546974 3.736256,6.510892 3.709204,6.502545 3.697286,6.489357 3.68637,6.486742 3.668171,6.468388 3.654201,6.44953 3.611706,6.431986 3.606728,6.432539 3.568995,6.423832 3.547593,6.412723 3.525751,6.405117 3.464681,6.38592 3.327733,6.363163 3.207238,6.32087 3.193055,6.314197 3.188475,6.306916 3.174542,6.295671 3.165405,6.291243 3.144517,6.26665 3.094255,6.294257 3.06021,6.291914 3.015057,6.332415 3.010399,6.352505 3.005078,6.360645 2.974651,6.368602 2.925178,6.36149 2.892584,6.362291 2.869897,6.357743 2.865082,6.355909 2.837054,6.343515 2.832433,6.339265 2.798976,6.316483 2.775927,6.298648 2.722785,6.250373 2.718284,6.243205 2.692894,6.224153 2.664946,6.220099 2.651072,6.203715 2.615791,6.156568 2.574094,6.080947 2.572105,6.078255 2.569864,6.074224 2.483419,5.960125 2.460844,6.117692 2.384532,6.212112 2.381952,6.214802 2.380237,6.215888 2.376326,6.217149 2.37419,6.216779 2.163929,6.195408 2.078364,6.132152 2.075605,6.129 2.073068,6.121034 2.069342,6.109964 2.061659,6.095718 2.063573,6.017829 2.073628,5.979994 2.13856,5.848067 2.137812,5.840473 2.147111,5.814271 2.187009,5.763088 2.20694,5.747508 2.439583,5.747443 2.439982,5.727725 2.454238,5.723364 2.46675,5.69634 2.48286,5.667546 2.486643,5.648496 2.502294,5.636499 2.500864,5.588767 2.509896,5.55374 2.507543,5.543813 2.509151,5.536613 2.503301,5.484197 2.499658,5.471676 2.502579,5.387546 2.501396,5.339137 2.498853,5.309317 2.478815,5.266668 2.428975,5.206308 2.328685,5.102117 2.344123,5.087704 2.314754,5.016837 2.259453,4.910835 2.257503,4.909284 2.257588,4.906577 2.257623,4.901703 2.258082,4.896234 2.264254,4.769403 2.287225,4.708407 2.319839,4.672216 2.387018,4.68665 2.390821,4.578239 2.389768,4.472688 2.400056,4.368681 2.395469,4.341512 2.393082,4.314146 2.392756,4.312816 2.392936,4.307954 2.392468,4.274783 2.367885,4.247364 2.327867,4.240721 2.299059,4.235165 2.295458,4.235286 2.294765,4.234001 2.277988,4.174833 2.265769,4.122507 2.259995,4.083884 2.260298,4.070005 2.261961,4.00883 2.263279,3.99382 2.27147,3.984034 2.276591,3.971647 2.304781,3.887193 2.309212,3.856493 2.335189,3.819035 2.332223,3.808184 2.37553,3.726244 2.416677,3.691241 2.426121,3.675894 2.461136,3.664639 2.463319,3.65311 2.467822,3.649569 2.472131,3.636395 2.497644,3.613098 2.502189,3.57076 2.499994,3.558865 2.498682,3.546855 2.496373,3.53386 2.501635,3.487451 2.499615,3.460727 2.504086,3.411444 2.507395,3.398974 2.506203,3.39066 2.509203,3.350261 2.506171,3.342786 2.505629,3.32822 2.511595,3.286748 2.488056,3.265432 2.483918,3.245971 2.46675,3.215278 2.464003,3.1958 2.439981,3.183897 2.438769,3.128365 2.358476,3.172778 2.294473,3.180928 2.256327,3.16454 2.205353,3.163866 2.175434,3.144401 2.149353,3.12493 2.108498,3.003623 2.070795,2.940853 2.062443,2.883816 2.073675,2.786909 2.078425,2.780028 2.176753,2.721015 2.18247,2.717223 2.182963,2.717052 2.185198,2.716649 2.202937,2.714944 2.375811,2.695165 2.378379,2.695274 2.380342,2.695898 2.381683,2.696754 2.399363,2.702749 2.433588,2.748073 2.456059,2.787145 2.458981,2.793074 2.466669,2.835292 2.520202,2.921174 2.587449,2.801471 2.600701,2.782766 2.618969,2.754315 2.649338,2.709726 2.663963,2.692408 2.683803,2.691765 2.721981,2.666226 2.724898,2.659113 2.727249,2.656975 2.766428,2.622713 2.776089,2.612838 2.780079,2.609112 2.803067,2.591229 2.816799,2.58579 2.835671,2.569354 2.864643,2.556201 2.91289,2.541867 2.915242,2.541034 2.929514,2.540328 2.938972,2.538352 2.967227,2.540281 2.997071,2.553475 3.060743,2.619128 3.120292,2.628442 3.13604,2.641164 3.184053,2.615799 3.190647,2.611043 3.242912,2.571719 3.283431,2.557116 3.340292,2.547865 3.545793,2.498529 3.548095,2.497121 3.589709,2.485561 3.623714,2.475238 3.66391,2.453299 3.669749,2.434483 3.715235,2.413529 3.736885,2.399462 3.794958,2.325337 3.865643,2.30868 3.915236,2.281717 4.023849,2.196973 4.028947,2.194044 4.077535,2.185442 4.103317,2.178879 4.114994,2.170224 4.17948,2.127057 4.180335,2.126363 4.208197,2.11934 4.220808,2.120314 4.27092,2.089601 4.288178,2.081651 4.290976,2.079195 4.292547,2.078409 4.341562,2.052915 4.350853,2.047503 4.359597,2.042977 4.37502,2.040763 4.472107,2.000576 4.490559,1.995878 4.509351,2.000087 4.557916,1.978994 4.594281,1.967148 4.637472,1.955715 4.644503,1.953706 4.69509,1.937067 4.765069,1.913917 4.867205,1.884465 5.064923,1.831474 5.090504,1.823523 5.137494,1.809171 5.243431,1.781677 5.295896,1.763522 5.400902,1.742929 5.423449,1.746659 5.485893,1.732408 5.599259,1.711975" style="fill: white" />
</svg>
