<svg width="13.600213" height="8.910821">
<polygon type="contour" points="9.409416,0.04828 9.53457,0.094549 9.579263,0.11865 9.590305,0.122124 9.740841,0.220604 9.803643,0.247313 9.810317,0.248792 9.83299,0.25382 9.910179,0.297837 10.045364,0.372569 10.162499,0.420314 10.297772,0.454584 10.31131,0.453339 10.337307,0.446228 10.389422,0.442583 10.429218,0.445427 10.46364,0.448072 10.471433,0.452128 10.479178,0.451156 10.552205,0.469898 10.596956,0.492996 10.623399,0.499968 10.65836,0.525933 10.682477,0.538374 10.701517,0.542568 10.704633,0.543988 10.715668,0.548781 10.739495,0.554292 10.807725,0.577392 10.81871,0.579639 10.884563,0.599128 10.961141,0.614118 10.971848,0.612966 11.004824,0.620537 11.019587,0.637744 11.023637,0.647084 11.04147,0.669982 11.058189,0.680927 11.113175,0.718584 11.126741,0.729591 11.149679,0.744874 11.160875,0.753521 11.178786,0.769295 11.206858,0.784456 11.231475,0.781425 11.291275,0.79597 11.316091,0.812261 11.467977,0.924283 11.502275,0.931457 11.614985,0.900623 11.639305,0.918718 11.658658,0.933796 11.682545,0.962659 11.767877,1.06512 11.816204,1.127316 11.838374,1.154244 11.865455,1.19353 11.90736,1.220874 11.924185,1.231745 11.947982,1.233251 11.96923,1.235062 11.971263,1.234904 12.004468,1.246131 12.007074,1.247932 12.032834,1.26563 12.033143,1.265591 12.03881,1.270579 12.089903,1.314198 12.139633,1.362826 12.227718,1.43381 12.234307,1.436047 12.235112,1.436908 12.307438,1.514296 12.313649,1.519354 12.445013,1.626333 12.575186,1.752259 12.622987,1.812604 12.668718,1.85269 12.672849,1.861613 12.675365,1.873997 12.734948,1.935585 12.789769,1.980774 12.80031,1.997574 12.812255,2.011181 12.820347,2.032059 12.831272,2.044407 12.839692,2.052567 12.840429,2.054778 12.94388,2.1777 12.948107,2.18207 12.964296,2.198805 12.99531,2.234728 13.04322,2.273398 13.06408,2.286892 13.124271,2.343644 13.146802,2.357979 13.183132,2.387423 13.18872,2.393058 13.224617,2.449465 13.258872,2.473097 13.260863,2.475541 13.261112,2.477971 13.274981,2.495146 13.279205,2.501662 13.280738,2.502963 13.29419,2.524726 13.295963,2.526256 13.303003,2.551833 13.300008,2.581579 13.308645,2.593478 13.301213,2.615759 13.31711,2.642693 13.326165,2.653748 13.322402,2.661544 13.344649,2.705201 13.351198,2.717023 13.374999,2.760467 13.382403,2.773095 13.390027,2.788853 13.411955,2.859844 13.456152,2.941047 13.459941,2.969421 13.499203,3.179918 13.510686,3.358335 13.539686,3.567707 13.558382,3.754111 13.559507,3.769035 13.594106,4.227912 13.594765,4.237353 13.594914,4.241259 13.590009,4.409294 13.58919,4.478758 13.586719,4.689051 13.580036,4.853101 13.569663,4.98875 13.533519,5.443986 13.531075,5.470102 13.531099,5.470378 13.526678,5.52046 13.486164,5.820269 13.480671,5.870218 13.460694,5.933933 13.463378,5.948464 13.42687,6.028135 13.406176,6.093427 13.384407,6.134445 13.371477,6.156846 13.35236,6.19253 13.327342,6.237247 13.31283,6.267669 13.312396,6.274689 13.30136,6.2963 13.308667,6.318249 13.30369,6.325013 13.301357,6.358256 13.295956,6.385362 13.291195,6.389869 13.280284,6.407164 13.260989,6.432266 13.260939,6.436607 13.258629,6.440395 13.245421,6.44927 13.214062,6.482374 13.187502,6.519382 13.160785,6.541375 13.158678,6.543472 13.147559,6.55357 13.100046,6.59018 13.092583,6.597982 13.06124,6.635166 12.957566,6.722906 12.8433,6.853445 12.839337,6.859685 12.834752,6.866049 12.801948,6.912644 12.791057,6.930299 12.765561,6.951494 12.747503,6.973231 12.701935,7.007221 12.594095,7.121607 12.5483,7.183475 12.522923,7.200803 12.506255,7.238546 12.404623,7.321416 12.237397,7.445047 12.229038,7.462679 12.057049,7.62542 12.018749,7.654106 12.004465,7.665486 12.000683,7.664957 11.950291,7.67355 11.93504,7.67438 11.868887,7.728329 11.846797,7.744584 11.822136,7.776463 11.707148,7.924637 11.658556,7.977942 11.656019,7.980581 11.655313,7.981204 11.642046,7.992926 11.61712,8.010183 11.607681,8.009578 11.572449,8.001606 11.544523,7.994496 11.482172,7.980792 11.46156,7.992963 11.407855,8.025912 11.300377,8.111415 11.299252,8.112098 11.299168,8.112148 11.297333,8.11326 11.276077,8.119912 11.262886,8.12674 11.220352,8.13283 11.196306,8.129398 11.169338,8.149605 11.155011,8.171287 11.137883,8.182062 11.082224,8.216427 11.057178,8.231625 11.047863,8.236851 11.038012,8.247205 11.03348,8.250304 11.014513,8.276617 10.997362,8.29004 10.967877,8.298139 10.946966,8.306203 10.908486,8.311042 10.897813,8.309437 10.833938,8.326983 10.706828,8.366483 10.677429,8.383763 10.666055,8.388172 10.654797,8.396938 10.592639,8.428211 10.562934,8.443966 10.50555,8.445185 10.420573,8.4574 10.371423,8.468126 10.349247,8.467042 10.332042,8.462116 10.29435,8.458172 10.287491,8.45998 10.254327,8.46571 10.149946,8.49585 10.076895,8.52429 10.00363,8.570797 9.855159,8.651309 9.746709,8.717292 9.69935,8.733413 9.607784,8.78128 9.588841,8.797622 9.514805,8.823201 9.503275,8.829731 9.487443,8.838699 9.305587,8.866891 9.24395,8.882652 9.240024,8.884972 9.234024,8.886727 9.2246,8.887994 9.180369,8.880022 9.174245,8.87523 9.150652,8.854248 9.119989,8.849453 8.981366,8.826503 8.886449,8.811137 8.863184,8.803082 8.827577,8.790015 8.795957,8.808248 8.785556,8.808978 8.75898,8.806469 8.737796,8.79989 8.73085,8.800796 8.713376,8.797803 8.698383,8.803073 8.678732,8.812561 8.613948,8.825954 8.594816,8.835718 8.571449,8.841643 8.526086,8.84216 8.46965,8.843391 8.432398,8.834072 8.369561,8.833911 8.207514,8.822266 8.188443,8.825764 8.094178,8.816873 8.057486,8.807423 8.037808,8.81596 7.982882,8.817289 7.804789,8.824232 7.759868,8.818893 7.642147,8.80603 7.626548,8.805458 7.588134,8.803708 7.527215,8.800872 7.397642,8.777658 7.380266,8.786419 7.362905,8.779956 7.354567,8.780337 7.321464,8.773103 7.247236,8.757734 7.210703,8.76766 7.186155,8.754501 7.182801,8.75364 7.177622,8.748734 7.082632,8.678579 7.043065,8.665717 7.004647,8.663378 6.937664,8.656291 6.927688,8.654509 6.904864,8.650433 6.891555,8.639724 6.877081,8.642621 6.75915,8.613223 6.716212,8.598282 6.690464,8.591583 6.688173,8.590775 6.62061,8.566922 6.617772,8.565073 6.539462,8.514021 6.522488,8.498319 6.506346,8.502107 6.490617,8.498628 6.456934,8.514134 6.429932,8.529215 6.414346,8.52375 6.390983,8.513009 6.259418,8.442371 6.226548,8.419122 6.201088,8.398047 6.181239,8.39177 6.120971,8.376311 6.099758,8.359912 6.06958,8.349833 6.067606,8.347959 6.059299,8.332638 6.028212,8.317066 5.998957,8.310312 5.969593,8.298398 5.915292,8.277747 5.897915,8.266188 5.871548,8.246046 5.822241,8.22597 5.822111,8.225959 5.803376,8.216918 5.797417,8.216434 5.779851,8.208508 5.750657,8.193649 5.670542,8.147229 5.663916,8.141366 5.646449,8.126124 5.593271,8.085151 5.528063,8.028475 5.443393,7.974784 5.42151,7.961673 5.363705,7.935665 5.325408,7.951041 5.307183,7.957399 5.297321,7.95999 5.272789,7.972053 5.251101,7.992638 5.240102,8.003079 4.953277,8.222653 4.904573,8.251653 4.857369,8.276023 4.849477,8.277966 4.840836,8.276389 4.835785,8.269632 4.844264,8.151543 4.820705,7.866433 4.808859,7.781779 4.811108,7.757423 4.835268,7.494511 4.79649,7.472355 4.779965,7.45085 4.767776,7.43658 4.735931,7.414871 4.663608,7.375596 4.636743,7.354641 4.625734,7.352327 4.599668,7.344672 4.575382,7.333349 4.538729,7.303132 4.524839,7.287956 4.504818,7.279492 4.439323,7.204428 4.323234,7.09038 4.321688,7.087497 4.169544,6.927127 4.137177,6.900384 4.109352,6.869779 4.063901,6.816231 4.042185,6.78727 3.958199,6.677799 3.958127,6.677703 3.944913,6.659971 3.944816,6.659793 3.925105,6.623737 3.858808,6.538881 3.846121,6.52248 3.735735,6.379787 3.721693,6.363581 3.686345,6.322788 3.648377,6.267197 3.633128,6.244869 3.580406,6.152695 3.549061,6.110883 3.527257,6.074643 3.489044,5.996287 3.427208,5.903558 3.423495,5.884755 3.374515,5.808255 3.336143,5.731729 3.260761,5.667454 3.192454,5.633178 3.091165,5.604735 2.835861,5.533045 2.782961,5.50751 2.74301,5.49296 2.697729,5.463101 2.661551,5.395378 2.658308,5.373841 2.660706,5.342249 2.668511,5.270426 2.711195,5.218101 2.802934,5.021231 2.80592,5.016868 2.840338,4.966584 2.856743,4.88121 2.851378,4.807754 2.841896,4.708765 2.841222,4.687992 2.839069,4.621393 2.830169,4.587327 2.8155,4.433591 2.845559,4.304789 2.855986,4.147801 2.858566,4.076268 2.84509,4.036285 2.844966,4.031303 2.842371,3.926454 2.829811,3.906501 2.680414,3.669151 2.668651,3.64014 2.661479,3.570176 2.657388,3.524344 2.688081,3.45855 2.700636,3.444201 2.781585,3.406283 2.815642,3.392023 2.841499,3.388855 2.874401,3.385617 2.912207,3.373581 2.918372,3.371617 3.10747,3.305719 3.191672,3.278826 3.24089,3.25363 3.255437,3.246183 3.337606,3.192905 3.37788,3.113401 3.411966,3.059966 3.413859,3.030605 3.438121,2.964244 3.462326,2.931299 3.471306,2.92222 3.479616,2.913818 3.547604,2.793915 3.557334,2.766326 3.568907,2.75404 3.589329,2.723715 3.66336,2.613788 3.681635,2.585879 3.695752,2.568901 3.763216,2.487766 3.795398,2.445619 3.887503,2.324996 3.894408,2.316446 3.895239,2.315365 3.934054,2.264841 3.935335,2.262941 3.946327,2.246628 3.974992,2.209677 3.976116,2.208228 3.991384,2.194861 4.090445,2.077156 4.23539,1.919934 4.283864,1.866342 4.2944,1.859736 4.328553,1.812526 4.346533,1.797403 4.35073,1.79248 4.465573,1.669089 4.500998,1.638171 4.546213,1.600452 4.575789,1.578125 4.617578,1.562101 4.669738,1.53337 4.671207,1.53192 4.675939,1.529983 4.767827,1.475302 4.778282,1.462641 4.779571,1.461645 4.796216,1.439527 4.827335,1.421354 4.826769,1.243072 4.813108,1.165562 4.809259,1.121764 4.811978,1.105244 4.83147,0.834614 4.837401,0.806304 4.83644,0.667577 4.83447,0.65502 4.837947,0.640487 4.841844,0.634323 4.849052,0.633286 4.85755,0.635412 4.876197,0.647617 4.958556,0.712042 4.96052,0.713339 5.21891,0.883962 5.283548,0.939411 5.343813,0.973339 5.358007,0.976662 5.382764,0.976406 5.452338,0.928119 5.476824,0.914457 5.542718,0.876831 5.630613,0.800113 5.674075,0.76978 5.690152,0.764042 5.781072,0.702569 5.794271,0.696595 5.798762,0.696119 5.822244,0.68564 5.822758,0.685574 5.839144,0.685704 5.855643,0.672673 5.878196,0.659844 5.914045,0.634409 5.959525,0.616978 5.996339,0.601799 6.020355,0.59418 6.050953,0.582118 6.068213,0.56297 6.073088,0.559733 6.117866,0.542181 6.147419,0.531808 6.164473,0.529586 6.198243,0.51593 6.224991,0.495777 6.236222,0.484845 6.249051,0.477228 6.312423,0.437911 6.380486,0.399541 6.390337,0.395432 6.402509,0.38774 6.417505,0.38191 6.424747,0.385015 6.438362,0.383285 6.443275,0.386329 6.46226,0.395044 6.463487,0.395004 6.483822,0.410136 6.531677,0.403804 6.559308,0.374637 6.560669,0.373183 6.562421,0.371564 6.605242,0.351096 6.613329,0.346249 6.640896,0.340185 6.646588,0.337961 6.772921,0.288573 6.797093,0.281797 6.798617,0.281447 6.825522,0.27525 6.884257,0.264693 6.891811,0.265344 7.079101,0.22995 7.114331,0.224029 7.183521,0.157447 7.184041,0.157328 7.197419,0.154248 7.212378,0.143075 7.229523,0.149777 7.243271,0.142841 7.260511,0.14998 7.271034,0.143225 7.279137,0.145188 7.290661,0.143194 7.309132,0.139995 7.309943,0.139853 7.330893,0.136158 7.334705,0.136048 7.359602,0.135338 7.371114,0.130677 7.373016,0.130954 7.394435,0.13245 7.437433,0.128685 7.686494,0.107 7.967456,0.084154 7.968775,0.084132 7.970278,0.084578 7.971896,0.085026 8.058008,0.104924 8.078787,0.102942 8.098577,0.097864 8.158362,0.084357 8.242713,0.079288 8.317071,0.07542 8.353217,0.077056 8.376284,0.077602 8.399324,0.07672 8.421693,0.070361 8.460481,0.074728 8.592813,0.089136 8.686057,0.108161 8.70456,0.114228 8.716979,0.115826 8.739118,0.11342 8.786687,0.101418 8.795142,0.10207 8.825197,0.121816 8.845245,0.117523 9.151014,0.056904 9.178578,0.035058 9.20011,0.026575 9.298037,0.023694" style="fill: white" />
</svg>
