<svg width="13.600213" height="8.910821">
<polygon type="contour" points="5.708157,0.696011 5.715486,0.697404 5.741559,0.720365 5.743855,0.72204 5.744486,0.723157 5.770626,0.757356 5.785344,0.764024 5.796849,0.767686 5.802318,0.770259 5.826221,0.78779 5.851371,0.798118 5.868177,0.804679 5.872177,0.806663 5.900273,0.813575 5.93418,0.81892 5.937795,0.820133 5.93982,0.821149 5.948597,0.826873 5.998058,0.858248 6.003618,0.863052 6.063861,0.927667 6.106286,0.975547 6.114823,0.979428 6.143987,1.006129 6.146003,1.009493 6.149857,1.012554 6.165956,1.034868 6.174526,1.043612 6.195051,1.056755 6.228866,1.091616 6.317908,1.137385 6.336341,1.154273 6.366397,1.17 6.370386,1.172129 6.393094,1.18637 6.434505,1.191315 6.452457,1.20083 6.487879,1.22709 6.526339,1.256662 6.556084,1.278894 6.568572,1.285529 6.580526,1.292837 6.680459,1.35729 6.763925,1.425159 6.769201,1.430974 6.772557,1.437801 6.779295,1.447081 6.80648,1.483792 6.815063,1.500973 6.833967,1.516014 6.883631,1.583507 6.901977,1.613071 6.914855,1.638653 6.93307,1.675442 6.954175,1.715104 6.953817,1.719416 6.972386,1.748528 6.988028,1.774704 6.980628,1.824952 7.023177,1.851625 7.044961,1.864369 7.073558,1.887399 7.097714,1.895851 7.134159,1.925255 7.146757,1.936914 7.15733,1.944791 7.206442,1.982214 7.279094,2.037767 7.313042,2.084952 7.316813,2.095921 7.317731,2.096672 7.320315,2.103368 7.332941,2.124771 7.346186,2.138428 7.352577,2.145537 7.375621,2.169054 7.421008,2.210238 7.437339,2.225192 7.477984,2.264276 7.498403,2.299788 7.735639,2.43803 7.79162,2.47046 7.79721,2.471984 7.874417,2.496864 7.893427,2.49948 7.93791,2.525591 7.957545,2.534019 8.024416,2.589688 8.024866,2.590029 8.025286,2.590557 8.05512,2.622951 8.062276,2.627238 8.092331,2.669909 8.100635,2.679289 8.144729,2.724514 8.190683,2.775408 8.206869,2.787777 8.216539,2.796038 8.239956,2.803399 8.271082,2.827122 8.294208,2.834891 8.324899,2.855144 8.333118,2.857721 8.336831,2.860782 8.378864,2.894425 8.390174,2.906517 8.399673,2.911357 8.458203,2.96921 8.468845,2.978706 8.601394,3.081883 8.635029,3.108904 8.739241,3.194201 8.760128,3.209292 8.786615,3.241495 8.802217,3.246782 8.815248,3.263495 8.828578,3.272591 8.829792,3.279077 8.83937,3.294331 8.843971,3.300393 8.847697,3.311231 8.876642,3.3375 8.895617,3.342212 8.902862,3.346231 8.92645,3.352288 8.955351,3.367392 8.955558,3.367539 8.957396,3.368808 8.995657,3.395653 9.001144,3.398829 9.005533,3.40232 9.055856,3.44098 9.06244,3.445127 9.081388,3.45801 9.100535,3.476775 9.113439,3.499086 9.150924,3.535246 9.168699,3.547006 9.241744,3.58989 9.313194,3.647344 9.356972,3.698279 9.358079,3.699432 9.364105,3.705873 9.421956,3.758669 9.44006,3.773951 9.454871,3.797288 9.475605,3.831608 9.482171,3.858713 9.522013,3.877467 9.530083,3.880484 9.531533,3.881809 9.548306,3.898868 9.55007,3.900839 9.550153,3.900957 9.550336,3.901268 9.58973,3.992279 9.593714,4.022256 9.617894,4.078829 9.622457,4.092965 9.626063,4.097426 9.631889,4.112949 9.64468,4.127111 9.65867,4.168564 9.668701,4.207568 9.686394,4.287876 9.68865,4.300008 9.695526,4.33029 9.716328,4.453317 9.715261,4.527031 9.711668,4.551082 9.708858,4.574227 9.683656,4.654512 9.642475,4.794749 9.635583,4.815656 9.630808,4.850724 9.531899,5.027882 9.530187,5.03159 9.480473,5.055621 9.474543,5.082848 9.467128,5.093827 9.428963,5.149973 9.402646,5.169049 9.347392,5.224141 9.324593,5.252853 9.29876,5.272496 9.195808,5.359179 9.18122,5.363653 9.137599,5.391289 9.05405,5.468021 9.0044,5.507363 8.962012,5.540694 8.943104,5.551055 8.905994,5.564659 8.899242,5.568244 8.880489,5.572862 8.848524,5.596639 8.829106,5.636212 8.828579,5.639027 8.825096,5.64346 8.80203,5.665008 8.786186,5.670499 8.763686,5.695862 8.725816,5.728905 8.607,5.832634 8.541304,5.882657 8.478478,5.934518 8.362953,6.03021 8.347364,6.045256 8.295247,6.068397 8.285019,6.072647 8.276619,6.080198 8.25749,6.089455 8.233882,6.105362 8.224491,6.109143 8.169765,6.153434 8.157136,6.164131 8.153348,6.169539 8.13799,6.18221 8.083075,6.265605 8.057489,6.286302 8.021625,6.324132 8.021467,6.324421 8.02062,6.325008 7.932705,6.394814 7.901185,6.404733 7.877449,6.413094 7.807494,6.427525 7.794122,6.4429 7.65174,6.520271 7.614463,6.540462 7.52432,6.595597 7.494435,6.615072 7.433615,6.691186 7.427215,6.696965 7.379961,6.739274 7.328654,6.791275 7.320316,6.808245 7.318281,6.813746 7.31773,6.814953 7.314057,6.824426 7.307709,6.841315 7.30361,6.847529 7.289366,6.86323 7.277181,6.871629 7.210577,6.925629 7.172689,6.948157 7.103195,7.012188 7.089734,7.025932 7.050418,7.048784 6.979952,7.0845 6.989174,7.13298 6.9886,7.136893 6.972233,7.161976 6.961354,7.171176 6.955219,7.205445 6.954497,7.226148 6.903918,7.300767 6.881845,7.331759 6.83521,7.3946 6.82797,7.400408 6.817586,7.408613 6.802112,7.434617 6.78659,7.456114 6.769189,7.480324 6.768044,7.482508 6.705886,7.533126 6.646544,7.571753 6.546275,7.640093 6.519207,7.656246 6.496721,7.673274 6.432527,7.723138 6.37286,7.737215 6.353378,7.749695 6.1946,7.847224 6.154203,7.886171 6.1477,7.89743 6.137443,7.910624 6.115874,7.9309 6.103867,7.937583 6.098474,7.944866 6.074138,7.969176 6.020558,8.024211 6.000211,8.042042 5.975474,8.065989 5.949802,8.081868 5.921416,8.099006 5.911771,8.101154 5.890467,8.095365 5.862694,8.106548 5.821774,8.127336 5.796722,8.144881 5.791251,8.147713 5.781916,8.150554 5.757753,8.162575 5.74388,8.187097 5.728858,8.210697 5.721213,8.212711 5.641941,8.222498 5.633322,8.222024 5.61546,8.219699 5.566546,8.208089 5.514389,8.197416 5.474795,8.162323 5.458927,8.142174 5.400103,8.14683 5.355866,8.148582 5.320847,8.135523 5.294135,8.139901 5.257324,8.142925 5.240617,8.134963 5.23734,8.136793 5.236219,8.136302 5.216889,8.123066 5.216481,8.121597 5.186218,8.074924 5.17393,8.050586 5.08364,8.004906 5.041471,7.989253 5.018917,7.98116 4.992145,7.976161 4.793216,7.952496 4.737269,7.950558 4.630213,7.975523 4.484104,7.95558 4.375308,7.930576 4.24834,7.961453 4.168747,7.959332 4.159197,7.959514 4.149218,7.959821 4.04861,7.936134 4.033602,7.918484 3.956035,7.906508 3.915507,7.883866 3.914205,7.883231 3.91147,7.881011 3.869244,7.852058 3.838094,7.845762 3.835851,7.844523 3.811694,7.841269 3.800767,7.84238 3.787222,7.838324 3.729823,7.808146 3.685606,7.78631 3.657311,7.774951 3.63724,7.761027 3.632383,7.759742 3.618126,7.740159 3.602304,7.733758 3.583596,7.728142 3.577448,7.725032 3.506523,7.694341 3.452573,7.661194 3.444158,7.65425 3.437086,7.640676 3.428964,7.63267 3.426772,7.619635 3.422702,7.600134 3.416911,7.576283 3.397759,7.565176 3.388795,7.557174 3.326879,7.549455 3.28813,7.519577 3.280677,7.513854 3.277083,7.5118 3.26715,7.505537 3.158014,7.44281 3.117672,7.407342 3.11556,7.406124 3.11441,7.405187 3.094275,7.386763 3.072913,7.375521 3.058044,7.364637 3.000035,7.313615 2.999384,7.313359 2.99052,7.30306 2.964484,7.292147 2.953975,7.28959 2.80428,7.190527 2.74127,7.150896 2.732754,7.144715 2.722818,7.138523 2.649347,7.122329 2.637392,7.120777 2.629488,7.118128 2.591796,7.110327 2.566861,7.108097 2.537592,7.111527 2.507341,7.120247 2.470509,7.134536 2.459059,7.166928 2.43489,7.184451 2.406335,7.213743 2.398996,7.234276 2.397894,7.234818 2.37441,7.25322 2.35984,7.294026 2.357528,7.300685 2.339716,7.333441 2.306531,7.367023 2.291312,7.378065 2.263936,7.409029 2.201752,7.453228 2.187403,7.461615 2.125041,7.484997 2.120233,7.484668 2.077832,7.465475 2.058134,7.455917 1.984921,7.439181 1.981141,7.4359 1.930098,7.393163 1.918879,7.370876 1.873132,7.299335 1.821879,7.262072 1.790043,7.228952 1.567285,7.137168 1.52432,7.158703 1.489606,7.164979 1.430689,7.216714 1.368375,7.22055 1.289694,7.23944 1.246294,7.23596 1.237127,7.233707 1.14948,7.216946 1.141239,7.21999 1.119122,7.204246 1.068858,7.168718 1.039369,7.137919 1.030081,7.12232 1.015634,7.061149 0.986509,7.018059 0.974716,7.005853 0.970935,7.001721 0.919957,6.909954 0.869813,6.827228 0.851514,6.789227 0.841354,6.758666 0.790719,6.616094 0.78208,6.59225 0.778978,6.508316 0.769346,6.391135 0.717869,6.206136 0.690039,6.105872 0.671298,6.031099 0.646407,5.894658 0.628409,5.810428 0.605752,5.749269 0.576893,5.511614 0.568664,5.420863 0.567895,5.409992 0.571261,5.374224 0.575163,5.303399 0.569738,5.192228 0.574215,5.108471 0.570219,5.086506 0.54614,5.011925 0.537878,4.999825 0.534587,4.946341 0.500191,4.72207 0.52626,4.581352 0.52656,4.569325 0.531831,4.564675 0.545193,4.508605 0.545634,4.362042 0.531697,4.330564 0.515561,4.281067 0.512584,4.258933 0.509845,4.184846 0.509548,4.172411 0.508332,4.160801 0.514836,4.089949 0.525434,4.028737 0.536306,3.920132 0.547393,3.881793 0.573884,3.774732 0.564546,3.62384 0.571827,3.526089 0.567886,3.501575 0.56832,3.494008 0.577912,3.386613 0.592624,3.230804 0.603994,3.166785 0.607635,3.141547 0.67414,2.867441 0.684428,2.816027 0.706786,2.763344 0.719998,2.741347 0.758587,2.575435 0.775428,2.450833 0.779353,2.353052 0.783089,2.33165 0.833998,2.166361 0.839473,2.145982 0.845895,2.125364 0.88221,2.052756 0.901811,2.028774 0.971339,1.909293 0.989248,1.890046 1.017061,1.848176 1.030834,1.787519 1.041486,1.770351 1.074325,1.733949 1.132309,1.694197 1.154112,1.693875 1.170984,1.687027 1.180842,1.683787 1.197402,1.681907 1.212289,1.679503 1.236885,1.676992 1.265487,1.68014 1.274664,1.679349 1.297336,1.678491 1.340336,1.689754 1.474007,1.713483 1.514645,1.75364 1.560853,1.774482 1.751858,1.71262 1.780028,1.697433 1.846753,1.626524 1.869277,1.606362 1.909031,1.550079 1.923415,1.528556 1.953623,1.501155 1.986778,1.475029 1.989327,1.471436 1.993928,1.469124 2.022481,1.460719 2.030385,1.460905 2.054761,1.453394 2.098196,1.436709 2.110716,1.43165 2.12168,1.427587 2.132028,1.427746 2.183608,1.447626 2.189896,1.450886 2.265414,1.500481 2.283302,1.51633 2.319074,1.559313 2.351764,1.596338 2.357355,1.611569 2.361772,1.617701 2.365942,1.628844 2.375738,1.65361 2.394525,1.67514 2.398981,1.677345 2.420298,1.714058 2.426751,1.718103 2.430409,1.726663 2.462481,1.755818 2.468463,1.772579 2.514166,1.793023 2.521067,1.793907 2.547756,1.800855 2.576031,1.802464 2.634722,1.790403 2.732015,1.770555 2.74954,1.757941 2.76054,1.75619 2.8001,1.725223 2.856882,1.684326 2.954483,1.621619 2.964488,1.619507 2.989975,1.609227 2.999413,1.598232 2.999434,1.598224 3.025011,1.578638 3.031686,1.572832 3.061029,1.545208 3.076036,1.533148 3.093063,1.524437 3.119499,1.502764 3.125079,1.498691 3.144562,1.480222 3.199739,1.447987 3.268645,1.402822 3.274738,1.398984 3.284117,1.394691 3.287383,1.39269 3.292409,1.389676 3.297735,1.385445 3.325684,1.363811 3.412484,1.340966 3.417469,1.315946 3.422628,1.311556 3.429424,1.279893 3.439564,1.268718 3.442931,1.257718 3.445922,1.255441 3.540845,1.203848 3.619916,1.171817 3.627448,1.156784 3.632379,1.151877 3.644636,1.147964 3.647913,1.140599 3.656804,1.138972 3.703057,1.108657 3.708736,1.10718 3.715032,1.103052 3.754303,1.086707 3.79442,1.072083 3.8312,1.067552 3.83234,1.067742 3.864874,1.063753 3.9126,1.029042 3.915099,1.026836 3.98273,1.001441 4.013146,0.993386 4.022929,0.991724 4.063466,0.963578 4.220922,0.946261 4.320406,0.958662 4.355028,0.969305 4.371176,0.978279 4.404177,0.968502 4.412633,0.962335 4.416548,0.961032 4.420096,0.958379 4.465302,0.953952 4.608162,0.943132 4.626487,0.942252 4.629538,0.941886 4.63608,0.94341 4.662521,0.945072 4.681091,0.953142 4.702272,0.952505 4.717309,0.957242 4.738176,0.961396 4.963904,0.940855 5.023108,0.931 5.034504,0.927288 5.049182,0.920327 5.063418,0.916061 5.141129,0.880653 5.174067,0.860579 5.180286,0.847084 5.188212,0.832615 5.196252,0.819076 5.207173,0.803339 5.216687,0.79102 5.233201,0.77715 5.241597,0.77354 5.249496,0.771324 5.258807,0.771467 5.262377,0.771187 5.278254,0.770056 5.353421,0.766449 5.401152,0.764423 5.453472,0.769052 5.480886,0.747376 5.491449,0.735209 5.516277,0.714851 5.522934,0.708066 5.524047,0.707464 5.525389,0.706835 5.653888,0.694837 5.678248,0.69229 5.685076,0.691903" style="fill: white" /><polygon type="hole" points="4.909934,2.894505 4.875832,2.89644 4.663087,2.96148 4.643065,2.966636 4.537703,3.065125 4.400572,3.207905 4.334746,3.371661 4.316414,3.452625 4.312898,3.476547 4.328093,3.739915 4.333354,3.75144 4.422998,3.942879 4.495407,4.034856 4.549472,4.112233 4.58454,4.199556 4.593635,4.218921 4.596855,4.275463 4.598227,4.501735 4.597216,4.673724 4.585993,4.722895 4.564834,4.788455 4.550093,4.806965 4.42827,4.950481 4.413592,4.993505 4.353911,5.091314 4.315123,5.25081 4.317386,5.302532 4.328053,5.408559 4.32848,5.539134 4.360011,5.628167 4.396431,5.709157 4.444981,5.777203 4.60939,5.914755 4.663129,5.952916 4.693692,5.969411 4.833244,5.995959 4.938972,6.022585 4.960561,6.024973 4.994755,6.023718 5.202235,6.017634 5.291386,5.998405 5.389981,5.970295 5.55334,5.942641 5.580223,5.930054 5.608573,5.913226 5.782277,5.855245 5.848766,5.824343 5.883295,5.791424 5.88689,5.788001 5.948729,5.744648 5.982723,5.736475 6.122219,5.641436 6.14879,5.62623 6.151483,5.624835 6.161184,5.6203 6.368707,5.48378 6.374064,5.478262 6.44536,5.39948 6.446004,5.398451 6.446357,5.398117 6.556189,5.271632 6.612874,5.14855 6.676662,5.02603 6.693059,4.9859 6.748932,4.827226 6.751721,4.615794 6.762726,4.558338 6.746948,4.476413 6.764405,4.422151 6.766178,4.12838 6.723196,4.005229 6.719647,3.996764 6.595805,3.718216 6.569157,3.663963 6.540385,3.620734 6.423689,3.488436 6.40741,3.477696 6.353372,3.412994 6.223157,3.312398 6.195212,3.298269 6.17752,3.286881 6.109832,3.261233 6.037311,3.199383 5.991452,3.177483 5.980212,3.17239 5.961802,3.167122 5.939572,3.155264 5.893376,3.129394 5.879937,3.117941 5.865368,3.103587 5.843423,3.086693 5.832203,3.085237 5.80599,3.065057 5.769408,3.049326 5.61158,2.988892 5.502808,2.953975 5.453266,2.941183 5.226421,2.905986 5.213132,2.900662 4.960073,2.889586" style="fill: black" />
</svg>
