<svg width="13.600213" height="8.910821">
<polygon type="contour" points="1.549422,6.284805 1.557295,6.286801 1.566814,6.296801 1.61127,6.353857 1.613528,6.485014 1.604289,6.525177 1.474896,6.724678 1.462744,6.739478 1.427177,6.761044 1.397629,6.775325 1.380159,6.772689 1.364038,6.780226 1.342452,6.76773 1.330216,6.769903 1.328818,6.768668 1.321016,6.76081 1.300985,6.731784 1.288713,6.717454 1.269358,6.648002 1.266076,6.563545 1.269278,6.525834 1.271814,6.520909 1.274436,6.51367 1.296646,6.445042 1.336084,6.340029 1.342302,6.325248 1.354847,6.309185 1.384189,6.284841 1.452841,6.26311 1.478629,6.252762" style="fill: white" /><polygon type="contour" points="1.382915,2.136417 1.400436,2.132577 1.419799,2.141284 1.43046,2.14205 1.441214,2.154849 1.502563,2.228963 1.525515,2.258373 1.579266,2.391292 1.628596,2.460394 1.6424,2.496769 1.615933,2.54562 1.574023,2.601 1.562424,2.621307 1.557278,2.624836 1.49307,2.655909 1.469162,2.655864 1.408905,2.623335 1.352492,2.595943 1.332281,2.565176 1.284512,2.417476 1.271393,2.344352 1.26328,2.288063 1.269631,2.261631 1.286415,2.198096 1.299146,2.183167 1.320691,2.151446 1.328816,2.14295 1.330217,2.141713 1.342006,2.143807 1.364904,2.131024" style="fill: white" /><polygon type="contour" points="4.390921,1.753618 4.394691,1.753285 4.412061,1.758167 4.417306,1.760533 4.433313,1.764334 4.43657,1.767122 4.454039,1.787654 4.460296,1.78859 4.475863,1.80606 4.514634,1.816416 4.515055,1.816263 4.515795,1.816755 4.572214,1.831345 4.6212,1.841104 4.641358,1.843443 4.802717,1.852933 4.81622,1.853141 4.853008,1.849331 4.856437,1.848056 4.875781,1.850482 4.891597,1.84266 4.918788,1.844357 4.979275,1.836941 4.987409,1.840331 5.016963,1.836704 5.132309,1.839695 5.219657,1.829639 5.273673,1.833133 5.308427,1.817401 5.322414,1.817322 5.392278,1.812953 5.566835,1.821105 5.58369,1.822353 5.636608,1.824481 5.738207,1.824283 5.748088,1.825146 5.770744,1.820496 5.779318,1.821423 5.799052,1.814242 5.803969,1.811916 5.806728,1.81167 5.807572,1.811373 5.870913,1.810889 5.934916,1.803964 5.97098,1.805425 6.127436,1.801362 6.15551,1.802674 6.198228,1.813227 6.211887,1.81783 6.255114,1.823545 6.301626,1.813596 6.305199,1.814394 6.418941,1.828866 6.461148,1.839609 6.540521,1.865975 6.578631,1.880585 6.593046,1.887679 6.60019,1.891983 6.67277,1.92998 6.696057,1.940146 6.726893,1.929804 6.766817,1.929242 6.778369,1.933101 6.846335,1.947085 6.981535,1.983774 6.993737,1.991661 7.02397,2.003122 7.042639,2.008902 7.044525,2.010112 7.0518,2.021211 7.057897,2.036738 7.086828,2.077729 7.146558,2.060511 7.34104,2.098351 7.432171,2.125093 7.447113,2.13181 7.463314,2.144392 7.515269,2.14857 7.532529,2.14176 7.562054,2.135359 7.637302,2.128724 7.814976,2.124835 7.815555,2.124814 7.816317,2.125101 7.905498,2.167753 7.984847,2.289378 8.003829,2.323661 8.039125,2.36414 8.090653,2.360471 8.099872,2.362453 8.12244,2.36028 8.134431,2.358363 8.214885,2.392989 8.38736,2.470263 8.404372,2.480834 8.412215,2.487858 8.47818,2.544094 8.535042,2.572047 8.583023,2.585984 8.588375,2.598592 8.603276,2.60565 8.62385,2.622128 8.647615,2.632175 8.654421,2.637586 8.672883,2.656771 8.705747,2.652932 8.71286,2.657624 8.759265,2.666018 8.787591,2.673908 8.803309,2.673694 8.811287,2.676758 8.836469,2.683868 8.841365,2.688166 8.851985,2.692243 8.858007,2.69579 8.864093,2.700848 8.951777,2.738585 8.962407,2.747137 8.973777,2.752315 9.023259,2.78648 9.051816,2.81264 9.096645,2.851219 9.101525,2.860769 9.157031,2.920188 9.183176,2.924503 9.255249,2.93999 9.272437,2.943814 9.308868,2.952121 9.404921,2.982549 9.461618,2.99527 9.513146,3.005508 9.548875,3.017998 9.583476,3.036014 9.596095,3.049827 9.622881,3.06551 9.644145,3.074508 9.701088,3.081185 9.750076,3.121699 9.788972,3.155223 9.918717,3.224479 9.982193,3.26918 10.062688,3.356135 10.08363,3.37674 10.13006,3.429819 10.178775,3.471111 10.187066,3.48105 10.267671,3.601839 10.27646,3.613631 10.319032,3.67389 10.331078,3.691433 10.34548,3.699843 10.352511,3.71522 10.368094,3.724987 10.383609,3.747189 10.38805,3.749696 10.403686,3.767984 10.442499,3.786469 10.511635,3.81159 10.551558,3.829023 10.570419,3.836952 10.738342,3.943536 10.742828,3.945921 10.744305,3.946773 10.744902,3.947154 10.745459,3.947504 10.74713,3.949342 10.749634,3.952919 10.820451,4.025283 10.838004,4.057199 10.866288,4.183051 10.883057,4.254808 10.880243,4.296903 10.873558,4.336137 10.870623,4.366874 10.876345,4.455811 10.859383,4.493667 10.889603,4.610962 10.878744,4.656357 10.877574,4.67729 10.882054,4.742088 10.885777,4.770688 10.882613,4.784262 10.877733,4.794313 10.874079,4.798825 10.870228,4.803888 10.863984,4.809782 10.805627,4.891324 10.73242,4.993326 10.717899,5.000519 10.702626,5.010332 10.60349,5.057202 10.536042,5.0868 10.506187,5.097711 10.436766,5.126837 10.435341,5.128512 10.405551,5.142691 10.376331,5.170558 10.361047,5.190487 10.349969,5.197654 10.346803,5.204194 10.331647,5.216762 10.31725,5.238456 10.231171,5.372422 10.218771,5.382704 10.210407,5.394841 10.204778,5.3997 10.110414,5.501182 10.104455,5.509116 10.006623,5.616874 9.94274,5.667681 9.894124,5.710697 9.750063,5.786941 9.65584,5.827354 9.639635,5.839368 9.602529,5.854334 9.58796,5.866751 9.578684,5.876255 9.55953,5.887109 9.548415,5.893008 9.513924,5.909121 9.278032,5.960951 9.265953,5.964191 9.2599,5.965552 9.253195,5.967967 9.230585,5.971285 9.196402,5.979875 9.180279,5.982623 9.141328,6.001777 9.127534,6.032335 9.111073,6.053354 9.102187,6.059831 9.077755,6.064231 9.042912,6.116676 9.015926,6.132409 8.86306,6.211323 8.857964,6.216004 8.852241,6.219261 8.837588,6.225514 8.795916,6.237142 8.75619,6.249082 8.696044,6.25755 8.69538,6.258402 8.671011,6.258614 8.658349,6.271559 8.645492,6.278106 8.641188,6.28259 8.618674,6.292621 8.599988,6.313807 8.590133,6.322321 8.554253,6.336459 8.504427,6.357046 8.478426,6.36542 8.405861,6.428758 8.400549,6.432318 8.397224,6.435921 8.379223,6.445868 8.273507,6.484218 8.2287,6.508965 8.149432,6.543427 8.103982,6.550598 8.100948,6.549488 8.090128,6.551022 8.039424,6.543475 8.014648,6.571031 7.998144,6.593903 7.984698,6.622259 7.906632,6.728982 7.876326,6.746462 7.85553,6.763796 7.823014,6.773893 7.766502,6.794811 7.585301,6.779472 7.532868,6.772421 7.528515,6.770153 7.509604,6.763975 7.487584,6.765223 7.466122,6.773266 7.428888,6.784431 7.421031,6.788065 7.394916,6.797077 7.153178,6.849013 7.121763,6.848308 7.088822,6.833831 7.05626,6.877098 7.053568,6.884349 7.041777,6.901053 7.01697,6.915468 6.981953,6.932668 6.871219,6.958099 6.760721,6.978432 6.735711,6.982281 6.709548,6.976318 6.682789,6.979022 6.659466,6.984117 6.648221,6.993541 6.639458,6.998181 6.582161,7.027126 6.493686,7.059885 6.431123,7.079294 6.419164,7.083166 6.400387,7.086221 6.297084,7.096526 6.21438,7.09747 6.190304,7.096386 6.171569,7.105412 6.009569,7.115173 5.997197,7.115566 5.948742,7.111116 5.813355,7.097541 5.80406,7.09373 5.794078,7.092739 5.76715,7.091636 5.596285,7.089227 5.538508,7.089692 5.4483,7.091923 5.347389,7.095032 5.33301,7.089523 5.305311,7.085031 5.283261,7.082331 5.272136,7.083554 5.264734,7.081522 5.195092,7.080738 5.110815,7.076821 4.96757,7.070831 4.925713,7.067988 4.822321,7.057963 4.796663,7.054509 4.706711,7.067321 4.670696,7.074341 4.604375,7.069401 4.594697,7.072101 4.541039,7.08994 4.501991,7.098686 4.468875,7.106023 4.437689,7.14309 4.433222,7.147325 4.431356,7.148149 4.389174,7.157147 4.341761,7.157695 4.338617,7.15781 4.267712,7.156046 4.209131,7.146936 4.154421,7.140321 4.113966,7.128361 4.037149,7.09753 3.913844,7.033259 3.826286,6.976247 3.792781,6.977658 3.787855,6.97537 3.782384,6.973551 3.606125,6.924994 3.593677,6.908169 3.554482,6.909463 3.538993,6.909137 3.47182,6.906611 3.366597,6.910762 3.332144,6.914677 3.310456,6.90597 3.261039,6.899728 3.089646,6.863356 3.057813,6.859995 3.021418,6.860594 2.9938,6.860993 2.990511,6.863255 2.979799,6.864369 2.940942,6.88326 2.914256,6.884713 2.890222,6.883758 2.674995,6.839903 2.674725,6.83988 2.534572,6.765051 2.526128,6.757186 2.51406,6.744056 2.460346,6.671246 2.414777,6.637418 2.354565,6.583556 2.338487,6.561858 2.290814,6.529606 2.243557,6.492474 2.235372,6.490252 2.221433,6.480601 2.205086,6.482569 2.204062,6.48248 2.181287,6.464834 1.981298,6.358242 1.960245,6.358275 1.93848,6.332604 1.924113,6.337177 1.919931,6.332584 1.902056,6.286912 1.88228,6.274045 1.838554,6.229318 1.783609,6.165974 1.767846,6.143269 1.718618,6.104109 1.688796,6.07533 1.684686,6.071725 1.682726,6.069443 1.677901,6.062282 1.587716,5.869588 1.587359,5.86499 1.589138,5.859589 1.588571,5.855797 1.591267,5.84741 1.598741,5.838013 1.598512,5.791161 1.600729,5.775035 1.598861,5.761865 1.588339,5.708234 1.572814,5.706109 1.526394,5.600189 1.521738,5.589316 1.522271,5.56901 1.520551,5.564761 1.520474,5.560799 1.526411,5.486608 1.573961,5.23698 1.575116,5.232087 1.575292,5.230988 1.577187,5.225775 1.577662,5.223041 1.580326,5.22145 1.600524,5.189946 1.607141,5.17821 1.617953,5.133078 1.604621,5.089251 1.592189,5.056788 1.577535,4.931446 1.573104,4.864588 1.563435,4.82205 1.560318,4.816494 1.559393,4.81371 1.561002,4.806828 1.558173,4.778101 1.552375,4.761299 1.555385,4.754286 1.545933,4.686658 1.539379,4.596607 1.530075,4.551741 1.530976,4.547299 1.527932,4.538475 1.541221,4.499435 1.532953,4.394391 1.531191,4.375856 1.534067,4.335496 1.537753,4.304604 1.543856,4.201826 1.55952,4.101845 1.559465,4.09941 1.567047,4.072844 1.572033,4.066784 1.575391,4.04096 1.58454,3.959168 1.587421,3.93485 1.597222,3.840518 1.609945,3.805839 1.618466,3.77905 1.610229,3.738922 1.598978,3.715464 1.580902,3.693699 1.575229,3.684742 1.574815,3.68222 1.555837,3.583976 1.515066,3.375096 1.512421,3.368565 1.519559,3.307377 1.535614,3.276494 1.535653,3.262563 1.555918,3.235067 1.562325,3.234052 1.587943,3.178472 1.601854,3.136326 1.603986,3.121108 1.597473,3.084391 1.596224,3.071495 1.593238,3.067562 1.589136,3.05203 1.593424,3.038851 1.588521,3.030974 1.590996,3.013522 1.592157,3.002849 1.598368,2.992062 1.677304,2.850086 1.68377,2.841864 1.686531,2.838657 1.704903,2.822161 1.715509,2.815621 1.718803,2.810406 1.776539,2.754853 1.787526,2.734755 1.797862,2.723241 1.850394,2.671808 1.886973,2.633714 1.8952,2.630484 1.924252,2.59752 1.92411,2.574451 1.927385,2.569559 1.970463,2.55418 1.980771,2.551038 2.136194,2.470836 2.21275,2.446528 2.273691,2.401812 2.332243,2.360548 2.351096,2.334454 2.38146,2.303774 2.423088,2.262705 2.462676,2.226232 2.490038,2.190359 2.513303,2.174369 2.533575,2.155117 2.535533,2.149785 2.540822,2.145823 2.660064,2.086297 2.677923,2.074134 2.690553,2.072606 2.729714,2.057151 2.759444,2.043762 2.783755,2.048919 2.804594,2.045077 2.825591,2.03945 2.849433,2.038741 2.875903,2.03068 2.919983,2.031018 2.930932,2.030938 2.949081,2.0292 3.011233,2.049221 3.068911,2.04562 3.086678,2.041451 3.161476,2.027039 3.309011,2.003923 3.328514,1.996266 3.367916,1.999454 3.418126,2.002422 3.447445,1.993711 3.602448,1.992205 3.608717,1.986669 3.674563,1.966443 3.779228,1.94216 3.807049,1.929611 3.918432,1.875644 4.045873,1.812366 4.142869,1.786583 4.197404,1.771122 4.208189,1.769783 4.233848,1.761519 4.349307,1.749272" style="fill: white" /><polygon type="hole" points="6.581218,3.673507 6.555176,3.671262 6.516742,3.692463 6.354782,3.761157 6.341817,3.768795 6.267141,3.848972 6.233092,3.889781 6.22619,3.902866 6.218429,3.928734 6.179368,4.141726 6.153503,4.280926 6.151758,4.297692 6.150919,4.313761 6.15181,4.331384 6.178447,4.591268 6.193751,4.678439 6.253565,4.842017 6.291186,4.910557 6.374471,4.962301 6.470527,5.008977 6.556857,5.034433 6.712712,4.997534 6.725304,4.99367 6.74814,4.984435 6.766871,4.96412 6.795326,4.931128 6.890509,4.807518 6.935152,4.711221 6.996913,4.556522 7.025487,4.419596 7.050744,4.304975 7.050011,4.256081 7.039291,4.086832 7.036914,4.055493 7.02903,4.034521 6.93281,3.832197 6.875882,3.750375 6.782206,3.707665 6.645771,3.664553" style="fill: black" />
</svg>
