<svg width="13.600213" height="8.910821">
<polygon type="contour" points="9.166164,0.685283 9.198027,0.689162 9.203841,0.693823 9.209559,0.707363 9.220997,0.738066 9.219587,0.786707 9.226512,0.859883 9.237324,0.880695 9.247309,0.898862 9.259997,0.919652 9.277336,0.964372 9.322015,1.017953 9.33408,1.032467 9.340763,1.035568 9.351769,1.048587 9.385187,1.085745 9.390677,1.094496 9.39656,1.100633 9.446201,1.183014 9.456042,1.190389 9.461391,1.197807 9.470679,1.210135 9.483466,1.223377 9.495315,1.25278 9.540176,1.31195 9.556277,1.318251 9.562179,1.326805 9.592002,1.33799 9.598386,1.338568 9.604659,1.351103 9.60498,1.351244 9.606822,1.355829 9.631322,1.36533 9.657568,1.380335 9.800695,1.446339 9.834242,1.450022 9.835183,1.450426 9.837316,1.45149 9.872253,1.469436 10.096781,1.58565 10.102377,1.587439 10.122084,1.603099 10.132864,1.606965 10.144784,1.62254 10.168747,1.63682 10.186941,1.645858 10.189996,1.651261 10.223689,1.670983 10.296648,1.700107 10.312765,1.704507 10.323918,1.708729 10.357731,1.731124 10.411482,1.739152 10.442515,1.749193 10.461963,1.751248 10.476485,1.756181 10.506295,1.75588 10.512197,1.755716 10.536619,1.752261 10.545814,1.750674 10.563923,1.753276 10.571806,1.755284 10.589379,1.752691 10.598,1.754962 10.602262,1.762973 10.628634,1.767481 10.655833,1.772216 10.665052,1.772984 10.680695,1.77623 10.711347,1.786044 10.753029,1.799381 10.769772,1.803864 10.839284,1.81026 10.914887,1.791184 10.941986,1.79128 10.975009,1.78709 10.989883,1.761797 11.031846,1.736023 11.091624,1.715747 11.146804,1.699992 11.213572,1.696139 11.247027,1.688409 11.251807,1.684776 11.259638,1.683694 11.328189,1.663801 11.331215,1.663015 11.331475,1.66296 11.350606,1.670064 11.358338,1.670951 11.37377,1.700574 11.403878,1.731981 11.457924,1.781051 11.483383,1.825317 11.483812,1.829125 11.504262,1.956936 11.509409,2.06886 11.502611,2.22187 11.553373,2.260381 11.561427,2.274887 11.631825,2.467616 11.672998,2.595053 11.687535,2.596728 11.767726,2.699877 11.834255,2.78797 11.848246,2.811437 11.882497,2.861834 11.896525,2.882007 11.910736,2.937824 11.994351,3.054859 12.02061,3.098337 12.083613,3.174268 12.168351,3.271469 12.229133,3.33789 12.245457,3.356276 12.245587,3.362012 12.274942,3.403907 12.289517,3.429457 12.302767,3.485319 12.314945,3.509304 12.332299,3.640802 12.342121,3.679707 12.358201,3.7259 12.361249,3.729776 12.362052,3.733042 12.37316,3.746966 12.375187,3.755592 12.390268,3.95952 12.391135,4.042893 12.398674,4.173428 12.409574,4.276464 12.393528,4.393407 12.390583,4.457877 12.390758,4.706877 12.392141,4.759502 12.390822,4.779298 12.385356,4.834589 12.386983,4.845455 12.374734,5.142821 12.371544,5.170212 12.359314,5.181477 12.347002,5.205309 12.347892,5.214803 12.334397,5.264808 12.321878,5.343886 12.313384,5.393048 12.287201,5.476306 12.268936,5.518045 12.245657,5.549996 12.245509,5.554777 12.222704,5.578611 12.11859,5.688481 12.105541,5.695093 12.094233,5.714095 12.053282,5.768855 12.049658,5.776588 12.011535,5.831465 11.978462,5.888359 11.932778,5.951681 11.930558,5.966297 11.845468,6.102499 11.780854,6.194671 11.695385,6.302204 11.693251,6.305279 11.685912,6.316559 11.658954,6.341575 11.645864,6.363063 11.642668,6.369924 11.640036,6.377745 11.613383,6.474262 11.554043,6.645149 11.502499,6.689414 11.503758,6.724137 11.511577,6.905777 11.497526,6.935794 11.480755,7.082889 11.465204,7.109259 11.404802,7.178262 11.375832,7.208478 11.35902,7.239413 11.333362,7.248489 11.332629,7.248545 11.331968,7.248493 11.323399,7.246261 11.258552,7.227673 11.251573,7.226635 11.247394,7.223462 11.217137,7.21634 11.149925,7.212149 11.089244,7.192139 11.032596,7.175745 10.964819,7.129798 10.895591,7.114138 10.880617,7.114067 10.855217,7.107116 10.837884,7.099517 10.816384,7.106232 10.803241,7.11057 10.773598,7.10986 10.750882,7.117561 10.718819,7.124345 10.65595,7.13486 10.631909,7.144497 10.59598,7.149815 10.58937,7.158937 10.571818,7.156344 10.563929,7.158351 10.55612,7.157217 10.511195,7.155204 10.508026,7.155867 10.469424,7.157404 10.457883,7.162714 10.434261,7.164592 10.415281,7.171526 10.382255,7.179176 10.375143,7.179383 10.361902,7.183495 10.356035,7.185305 10.254912,7.231174 10.246821,7.233618 10.202149,7.255103 10.152816,7.286471 10.137736,7.294845 10.132804,7.302614 10.119984,7.308738 10.101591,7.324433 10.096727,7.325976 10.087861,7.333586 10.075131,7.342018 10.072256,7.343864 10.044373,7.350734 10.016591,7.368772 9.969393,7.395036 9.836639,7.454495 9.813865,7.457013 9.728919,7.504667 9.667739,7.538929 9.605055,7.560114 9.604945,7.5604 9.60337,7.560917 9.562192,7.584832 9.556276,7.59337 9.540173,7.59967 9.499072,7.653879 9.490838,7.662701 9.478104,7.684768 9.471416,7.692779 9.465144,7.711883 9.458022,7.720752 9.445509,7.741591 9.442786,7.747464 9.428635,7.777384 9.424556,7.782818 9.420988,7.788559 9.395497,7.812436 9.336712,7.869293 9.290657,7.93171 9.268365,7.978487 9.251959,7.994148 9.240964,8.006596 9.22709,8.03371 9.212933,8.181022 9.211088,8.204119 9.206252,8.215184 9.198832,8.221172 9.197299,8.222327 9.160277,8.230965 9.145613,8.232161 9.048603,8.237828 9.029036,8.235996 8.96171,8.20748 8.844507,8.130286 8.797353,8.098856 8.737419,8.072039 8.59312,7.986298 8.528992,7.975768 8.439831,7.92382 8.408941,7.9165 8.300402,7.902879 8.231391,7.875924 8.188451,7.867582 8.033188,7.862362 7.910305,7.834964 7.864331,7.820838 7.852226,7.818906 7.848952,7.817223 7.704978,7.771665 7.69017,7.768338 7.669038,7.76912 7.647617,7.761032 7.623435,7.758861 7.565821,7.732227 7.556665,7.727823 7.521116,7.702623 7.436344,7.670276 7.357426,7.660967 7.351605,7.659272 7.344,7.655337 7.326924,7.639697 7.306779,7.635796 7.208442,7.619936 7.133571,7.621186 7.00667,7.657697 6.972996,7.659216 6.928391,7.660006 6.85062,7.652981 6.847739,7.653763 6.81147,7.646543 6.696135,7.663933 6.671632,7.669088 6.658703,7.674599 6.627131,7.687356 6.597462,7.698903 6.540479,7.714688 6.505536,7.72238 6.486814,7.72518 6.465115,7.717156 6.452793,7.704672 6.443778,7.703491 6.420367,7.687747 6.374754,7.710385 6.370316,7.714289 6.365526,7.713712 6.34979,7.719076 6.337014,7.716577 6.320617,7.713685 6.289103,7.705436 6.267637,7.717387 6.267186,7.717638 6.266827,7.71765 6.266005,7.717917 6.251879,7.718036 6.189499,7.710882 6.16285,7.702812 6.149036,7.696876 6.131239,7.694579 6.108318,7.694562 6.087855,7.680272 6.075121,7.67986 6.056094,7.664659 6.026498,7.653861 5.934019,7.628421 5.905554,7.619618 5.90415,7.618304 5.900174,7.616941 5.870174,7.596625 5.855176,7.589104 5.800447,7.562493 5.790789,7.556957 5.787674,7.554139 5.78384,7.551397 5.764911,7.539181 5.759804,7.533947 5.733542,7.519464 5.697568,7.521038 5.669447,7.514283 5.507163,7.434064 5.491132,7.42612 5.49059,7.425083 5.403779,7.382639 5.367871,7.368274 5.339432,7.343572 5.322811,7.321188 5.274394,7.28009 5.272289,7.278896 5.271674,7.278243 5.269426,7.276983 5.246007,7.256507 5.208728,7.226682 5.205744,7.225559 5.201591,7.221613 5.186012,7.21188 5.179776,7.205368 5.153454,7.196473 5.061423,7.179511 5.031884,7.179285 4.999944,7.164326 4.977276,7.146297 4.965863,7.130667 4.96237,7.117705 4.88948,6.996692 4.865504,6.961354 4.830658,6.931139 4.819953,6.915 4.800287,6.907868 4.781234,6.894946 4.753802,6.884937 4.735703,6.860147 4.674934,6.78395 4.632455,6.735068 4.622564,6.718375 4.606988,6.693735 4.590482,6.677479 4.5702,6.671727 4.565407,6.666448 4.493241,6.56606 4.478782,6.543789 4.452928,6.514064 4.442771,6.506557 4.419308,6.491649 4.406343,6.4735 4.403482,6.465923 4.4005,6.456107 4.38601,6.438984 4.387349,6.418268 4.380263,6.388491 4.372296,6.365419 4.365814,6.342909 4.357837,6.32578 4.335065,6.306248 4.32505,6.278838 4.303288,6.254471 4.267224,6.202362 4.240609,6.172166 4.239621,6.16253 4.223511,6.148363 4.195388,6.12378 4.19044,6.121324 4.184641,6.113121 4.174205,6.097874 4.135536,6.03361 4.09668,5.956747 4.085299,5.936507 4.079087,5.929105 4.067239,5.905376 4.063456,5.874712 4.0429,5.85311 4.034833,5.83598 4.025576,5.827604 4.015619,5.808582 3.996328,5.716172 3.966285,5.643938 3.961773,5.634646 3.958025,5.610141 3.920967,5.511425 3.922735,5.49556 3.916534,5.477647 3.911701,5.463516 3.903812,5.414995 3.887308,5.3909 3.880442,5.360562 3.870584,5.269075 3.806954,5.079195 3.799313,5.044606 3.801378,5.025637 3.797801,5.018771 3.792833,4.964568 3.772337,4.719513 3.774388,4.634009 3.782385,4.585303 3.799651,4.553118 3.802631,4.482938 3.809947,4.433069 3.800911,4.38814 3.795838,4.381135 3.789102,4.365885 3.787778,4.353632 3.778457,4.339366 3.774167,4.327529 3.774243,4.320868 3.779778,4.223037 3.773774,4.193661 3.774276,4.18224 3.780557,4.162673 3.810281,3.962074 3.801447,3.875533 3.802211,3.865075 3.801717,3.855452 3.842233,3.757827 3.847893,3.714335 3.859964,3.68456 3.883908,3.574628 3.885908,3.546797 3.883938,3.525602 3.895536,3.506908 3.897434,3.504159 3.91244,3.483413 3.908878,3.458766 3.912152,3.440457 3.921906,3.418469 3.92598,3.393544 3.964265,3.293693 3.990568,3.21447 3.990304,3.201031 3.991296,3.193626 4.024965,3.097095 4.043561,3.059199 4.062019,3.030325 4.072278,3.013479 4.103329,2.940658 4.135762,2.875969 4.174507,2.812923 4.186343,2.795735 4.22547,2.759716 4.226373,2.757331 4.245211,2.736474 4.251356,2.723886 4.274175,2.698833 4.297483,2.664798 4.312374,2.652542 4.32625,2.631552 4.331134,2.611959 4.353662,2.592414 4.362478,2.575885 4.376949,2.538488 4.384226,2.481592 4.38432,2.474455 4.397289,2.457707 4.404144,2.436643 4.410884,2.428868 4.427058,2.420955 4.445384,2.411188 4.45656,2.397666 4.462714,2.388866 4.487905,2.34626 4.496259,2.329506 4.50461,2.316939 4.515565,2.301292 4.545601,2.263665 4.558314,2.24864 4.571116,2.238761 4.594172,2.229088 4.614264,2.209496 4.619935,2.198118 4.629715,2.178827 4.634107,2.173601 4.645627,2.168834 4.668286,2.141421 4.69863,2.098752 4.708347,2.08339 4.719565,2.070763 4.736853,2.043714 4.755317,2.024564 4.771202,2.020233 4.794379,2.005989 4.806606,2.003402 4.831546,1.986324 4.840819,1.974333 4.8503,1.965123 4.857283,1.959874 4.901627,1.898359 4.907551,1.883992 4.920195,1.866138 4.929955,1.857065 4.940882,1.837142 4.96994,1.778765 4.979144,1.765083 4.988677,1.755625 5.001869,1.746055 5.01806,1.740016 5.021665,1.736244 5.035206,1.737469 5.046051,1.731018 5.053883,1.730535 5.070103,1.730149 5.078223,1.726477 5.096452,1.727753 5.119626,1.721803 5.130311,1.721431 5.143521,1.718272 5.166041,1.709595 5.171852,1.702057 5.186065,1.699778 5.190581,1.692769 5.209626,1.684423 5.216022,1.679293 5.217673,1.67827 5.24936,1.653029 5.24941,1.652983 5.249421,1.652976 5.325815,1.58648 5.339211,1.566504 5.349207,1.559507 5.417368,1.515946 5.424535,1.513542 5.543704,1.46829 5.554216,1.460554 5.567304,1.456087 5.582987,1.450858 5.664538,1.399071 5.694382,1.392231 5.747805,1.390572 5.769022,1.368026 5.785953,1.357912 5.787917,1.355848 5.788912,1.355298 5.814811,1.338007 5.84439,1.336175 5.907022,1.290543 5.908152,1.290209 5.909973,1.28887 6.046374,1.247595 6.069832,1.242506 6.080841,1.231257 6.086047,1.227026 6.110275,1.217914 6.122222,1.217675 6.128333,1.216647 6.170574,1.207658 6.184406,1.201785 6.19864,1.200466 6.210614,1.198361 6.259881,1.19337 6.264247,1.195213 6.26724,1.195144 6.289386,1.206342 6.310856,1.200316 6.313253,1.199563 6.32416,1.196659 6.33807,1.193544 6.341368,1.192377 6.355786,1.202802 6.368522,1.198323 6.369912,1.199375 6.430977,1.220279 6.472608,1.18333 6.502913,1.187709 6.66061,1.234725 6.66657,1.236591 6.712907,1.24772 6.71932,1.245425 6.731957,1.247488 6.739619,1.25013 6.762297,1.252368 6.888068,1.249383 7.041341,1.253037 7.055615,1.253894 7.138957,1.290972 7.167044,1.293666 7.268161,1.273122 7.286239,1.276387 7.40333,1.249773 7.453145,1.224252 7.52199,1.206221 7.543278,1.1953 7.621609,1.153728 7.628211,1.151858 7.633731,1.149054 7.667571,1.142924 7.690918,1.143547 7.714341,1.140224 7.757402,1.132259 7.811752,1.112111 7.926307,1.070289 7.979215,1.057517 8.088733,1.053037 8.297058,1.007547 8.312742,0.998581 8.360575,1.002901 8.36428,1.001954 8.413829,0.999871 8.430322,0.997081 8.475205,0.966775 8.523486,0.937617 8.524977,0.93717 8.61532,0.918772 8.700866,0.854993 8.706894,0.851862 8.717454,0.848432 8.732808,0.836844 8.809401,0.799398 8.867741,0.746763 8.908029,0.721454 8.959339,0.698739 8.989461,0.685521 9.026153,0.683539 9.134775,0.674446" style="fill: white" />
</svg>
