<svg width="13.600213" height="8.910821">
<polygon type="contour" points="8.783156,1.238356 8.793821,1.247008 8.807941,1.258388 8.841676,1.298542 8.874337,1.36808 8.899578,1.397055 8.905045,1.407466 8.909865,1.416178 8.925154,1.438382 8.937973,1.489248 8.99977,1.549882 9.009937,1.553195 9.023953,1.570473 9.071752,1.559851 9.112089,1.564183 9.139545,1.560558 9.145945,1.557614 9.153751,1.56206 9.195893,1.590298 9.250468,1.638627 9.274132,1.659454 9.284428,1.6788 9.3028,1.690701 9.317597,1.70465 9.338674,1.717851 9.362029,1.733925 9.475175,1.789242 9.487686,1.780069 9.581696,1.811333 9.619973,1.83473 9.630595,1.837612 9.695505,1.867275 9.749653,1.89314 9.763934,1.90423 9.801003,1.935324 9.82854,1.94587 9.846902,1.958407 9.969523,2.031621 10.049235,2.080859 10.050806,2.081257 10.076009,2.095683 10.077126,2.095784 10.102626,2.112568 10.105708,2.113058 10.108325,2.115141 10.146623,2.139759 10.165718,2.139283 10.168918,2.142253 10.196073,2.175217 10.257034,2.166958 10.278206,2.128273 10.280495,2.12555 10.30376,2.120625 10.338598,2.119394 10.342381,2.113004 10.344991,2.112524 10.406014,2.113421 10.415264,2.113554 10.429621,2.120837 10.465799,2.127137 10.491559,2.130539 10.521248,2.143582 10.597624,2.199671 10.615711,2.214968 10.636615,2.28229 10.675334,2.332408 10.704299,2.380764 10.73806,2.430243 10.750222,2.445496 10.773456,2.470589 10.886386,2.63709 10.92758,2.700083 10.928695,2.704361 10.980492,2.772648 11.063618,2.857475 11.106042,2.892743 11.167458,2.948045 11.171623,2.953638 11.17657,2.956491 11.227292,3.004227 11.244799,3.01986 11.26549,3.038388 11.267676,3.039736 11.292877,3.068579 11.314309,3.10663 11.330729,3.122563 11.33662,3.128156 11.391981,3.158338 11.421167,3.191518 11.43079,3.203795 11.4447,3.230347 11.473491,3.260914 11.505085,3.286787 11.540176,3.32001 11.575989,3.352108 11.579628,3.355465 11.584046,3.362375 11.584673,3.374274 11.58238,3.400353 11.603133,3.420322 11.61677,3.430913 11.620743,3.450966 11.655919,3.469779 11.667344,3.480909 11.680256,3.497768 11.68264,3.505951 11.684271,3.530851 11.700319,3.562628 11.694887,3.588541 11.741443,3.659928 11.748072,3.669638 11.749791,3.674434 11.787784,3.769891 11.792208,3.773462 11.828965,3.832486 11.837701,3.964538 11.845977,3.988565 11.850334,4.000101 11.88942,4.188369 11.91144,4.288569 11.914935,4.316431 11.913093,4.398306 11.925548,4.567955 11.897098,4.664637 11.895014,4.736029 11.852473,4.893336 11.836931,4.944458 11.82436,5.092463 11.791479,5.145515 11.749646,5.239485 11.743014,5.250077 11.693155,5.323717 11.698513,5.344436 11.696871,5.353424 11.679311,5.378338 11.681542,5.406977 11.680757,5.413375 11.668208,5.429343 11.654351,5.442902 11.622822,5.459609 11.618351,5.475041 11.610508,5.485151 11.605804,5.488115 11.584288,5.515929 11.584423,5.550606 11.583234,5.55327 11.5793,5.55718 11.539776,5.59211 11.50539,5.624924 11.473826,5.650493 11.444698,5.680832 11.440467,5.687433 11.434319,5.697538 11.395139,5.75324 11.351892,5.77668 11.341213,5.781762 11.325887,5.792334 11.312782,5.814699 11.217548,5.916299 11.154626,5.975377 11.150297,5.978324 11.024011,6.084448 11.018847,6.090398 11.006781,6.101413 10.883276,6.288276 10.878029,6.296856 10.875671,6.303074 10.863368,6.317909 10.855844,6.33162 10.720934,6.478646 10.686439,6.53088 10.612836,6.650453 10.610791,6.704695 10.541229,6.755514 10.487245,6.781965 10.459143,6.785751 10.426436,6.792213 10.34764,6.79916 10.345067,6.799129 10.342379,6.798616 10.338595,6.792219 10.303763,6.790992 10.280473,6.786059 10.278202,6.783342 10.271783,6.771584 10.220843,6.726397 10.16749,6.770554 10.165603,6.772368 10.158728,6.773681 10.138778,6.776559 10.103665,6.798972 10.100877,6.799533 10.077143,6.815854 10.075991,6.815958 10.044036,6.833856 10.000828,6.853749 9.95101,6.879392 9.942259,6.884564 9.908874,6.91265 9.88076,6.93545 9.845382,6.958746 9.794683,6.978885 9.78106,6.991026 9.730533,7.020962 9.598163,7.08687 9.570745,7.09754 9.491355,7.120527 9.484731,7.123945 9.442979,7.143147 9.390654,7.166042 9.324926,7.193035 9.308992,7.204468 9.214611,7.295851 9.177387,7.333896 9.152334,7.349209 9.142856,7.354489 9.130418,7.351101 9.113929,7.361837 9.090315,7.353818 9.028337,7.335776 9.009471,7.358942 8.999726,7.361732 8.946046,7.41366 8.927927,7.438409 8.921953,7.459401 8.912969,7.481614 8.891643,7.508187 8.884228,7.524092 8.874808,7.553792 8.85164,7.592721 8.848428,7.598635 8.824525,7.641303 8.824118,7.642274 8.806207,7.660304 8.783158,7.672953 8.782496,7.673252 8.782087,7.673296 8.781861,7.673203 8.765897,7.661302 8.734633,7.662337 8.713986,7.656079 8.664505,7.665014 8.629774,7.670157 8.610691,7.662953 8.526209,7.666306 8.497464,7.662506 8.45899,7.673964 8.431183,7.669537 8.412543,7.664623 8.391437,7.672521 8.366779,7.66301 8.334857,7.663806 8.30295,7.655041 8.247025,7.633329 8.223425,7.6191 8.213143,7.605502 8.168807,7.590926 8.122832,7.579864 8.106355,7.583425 8.094462,7.587899 8.086764,7.588478 8.05845,7.587501 7.961279,7.589781 7.954302,7.586229 7.937159,7.583011 7.826497,7.550007 7.813841,7.546559 7.811622,7.545107 7.80864,7.541986 7.805489,7.539509 7.799161,7.529837 7.751456,7.487998 7.740122,7.467859 7.71615,7.439739 7.666364,7.453654 7.66059,7.455129 7.625731,7.445148 7.61823,7.445229 7.586713,7.445214 7.530163,7.450647 7.500773,7.446863 7.472532,7.450687 7.461289,7.455468 7.44663,7.462019 7.415673,7.465022 7.410434,7.464395 7.360353,7.474745 7.329052,7.495065 7.292252,7.516927 7.274923,7.53351 7.255997,7.549164 7.238766,7.55339 7.223849,7.56779 7.178757,7.570379 7.06801,7.589761 7.039051,7.587329 6.887188,7.583801 6.858905,7.573588 6.830298,7.562292 6.779237,7.538745 6.758236,7.534791 6.694017,7.522402 6.691585,7.521796 6.690512,7.521647 6.484616,7.441312 6.419197,7.418675 6.396655,7.410475 6.38604,7.40647 6.340989,7.379434 6.219278,7.350536 6.136731,7.319869 6.091687,7.288156 6.064155,7.272425 6.052423,7.261195 6.031015,7.256439 6.008995,7.24974 5.953998,7.243399 5.94291,7.241865 5.932556,7.238951 5.911479,7.23561 5.887878,7.227674 5.871705,7.215344 5.859308,7.210071 5.789697,7.193872 5.744512,7.189536 5.700687,7.177626 5.601603,7.109036 5.585783,7.102411 5.550344,7.082419 5.4416,7.024023 5.354412,6.995565 5.291629,6.984408 5.270277,6.986778 5.252444,6.977328 5.218472,6.949844 5.181567,6.931372 5.175199,6.922048 5.121438,6.882439 5.082128,6.862126 5.054749,6.860429 5.052787,6.859703 5.022137,6.846657 4.966981,6.846108 4.965338,6.846005 4.964564,6.845701 4.96384,6.845164 4.815797,6.728002 4.745861,6.651846 4.714883,6.635543 4.714436,6.635061 4.692407,6.591832 4.669653,6.5632 4.667458,6.560342 4.555577,6.446481 4.541558,6.431315 4.524536,6.413628 4.498769,6.37096 4.485267,6.335588 4.483253,6.328981 4.482476,6.314837 4.459825,6.267727 4.445643,6.26091 4.432779,6.245723 4.376543,6.216783 4.369406,6.212982 4.360819,6.206095 4.307926,6.113818 4.29201,6.094164 4.251688,6.020971 4.126688,5.91013 4.082613,5.849078 4.029663,5.83667 4.004184,5.819625 3.853152,5.827298 3.804624,5.807854 3.783552,5.8008 3.67091,5.745086 3.653911,5.736541 3.649357,5.734472 3.634715,5.715377 3.62114,5.680524 3.608499,5.665036 3.601112,5.651399 3.588598,5.586331 3.584762,5.571777 3.585334,5.548471 3.598642,5.498803 3.662756,5.375027 3.695622,5.308821 3.713185,5.279809 3.731091,5.238933 3.732087,5.223368 3.735288,5.20488 3.715502,5.09862 3.697107,4.989515 3.676099,4.942069 3.664001,4.891011 3.662124,4.867406 3.663979,4.856106 3.664331,4.845123 3.664416,4.844257 3.672941,4.829439 3.683089,4.789406 3.661349,4.749757 3.660469,4.74875 3.660106,4.747876 3.659477,4.746432 3.650809,4.711103 3.643254,4.638684 3.624852,4.520342 3.622531,4.497567 3.618925,4.481064 3.625424,4.449507 3.618126,4.430962 3.637962,4.311108 3.641737,4.232121 3.654336,4.183357 3.660434,4.161722 3.668487,4.151017 3.684499,4.109389 3.671363,4.080001 3.665294,4.068086 3.66423,4.058253 3.664118,4.016468 3.671824,3.996883 3.711376,3.809436 3.727512,3.753895 3.735309,3.702599 3.733395,3.683237 3.589817,3.39184 3.582707,3.362843 3.583203,3.349279 3.586897,3.337335 3.60858,3.245979 3.635197,3.195118 3.642871,3.185208 3.653113,3.175177 3.705986,3.143295 3.760002,3.121023 3.829295,3.106184 3.881066,3.083884 3.948679,3.084013 3.954008,3.087604 3.994359,3.096307 4.043143,3.083623 4.089178,3.019885 4.202462,2.926099 4.250274,2.892687 4.268679,2.87452 4.283906,2.851038 4.29282,2.821855 4.31185,2.789298 4.354214,2.714693 4.360108,2.706006 4.369069,2.698992 4.400832,2.679537 4.42426,2.66667 4.456615,2.604751 4.490273,2.55017 4.495673,2.544817 4.498158,2.535766 4.504842,2.526874 4.604412,2.419205 4.636487,2.381765 4.658263,2.360735 4.666072,2.349481 4.693821,2.319999 4.713855,2.279225 4.714734,2.276029 4.715665,2.275392 4.720091,2.270496 4.826776,2.171561 4.952861,2.073366 4.957706,2.070147 4.960425,2.068144 4.964566,2.066334 4.96796,2.066509 5.023023,2.064416 5.058913,2.049934 5.130224,2.025197 5.149666,2.011487 5.174044,1.983685 5.190362,1.977418 5.247269,1.935296 5.270168,1.924991 5.291518,1.927303 5.296327,1.924736 5.301471,1.925474 5.323076,1.926398 5.351795,1.917156 5.352139,1.917235 5.454875,1.886865 5.473426,1.873923 5.505344,1.857447 5.542104,1.830604 5.611741,1.799103 5.618215,1.791308 5.623297,1.788357 5.627994,1.786511 5.687612,1.767022 5.804894,1.718643 5.81247,1.714403 5.825257,1.709754 5.833588,1.706127 5.847356,1.695209 5.865929,1.689132 5.881678,1.684806 5.907292,1.676606 5.930853,1.67017 5.967588,1.662987 6.025128,1.648878 6.052181,1.650564 6.064478,1.639112 6.08997,1.624655 6.137343,1.591186 6.311771,1.543738 6.317287,1.541503 6.339164,1.534792 6.470627,1.47958 6.488774,1.473089 6.688103,1.391266 6.689102,1.390947 6.689456,1.390859 6.691298,1.39031 6.691725,1.390321 6.706987,1.38689 6.772628,1.372703 6.810289,1.356991 6.860985,1.337035 6.940949,1.321649 6.950995,1.319763 6.954635,1.319818 7.020762,1.318955 7.038613,1.317478 7.055876,1.320188 7.087401,1.319876 7.114495,1.325709 7.140336,1.328673 7.216886,1.340103 7.221945,1.342137 7.228003,1.345035 7.248358,1.360222 7.253411,1.366384 7.267567,1.373304 7.287402,1.394178 7.311242,1.40354 7.330815,1.418077 7.367172,1.43918 7.377527,1.441218 7.436478,1.449912 7.445187,1.448949 7.468306,1.459097 7.480951,1.458264 7.487272,1.460229 7.499321,1.456955 7.514515,1.462821 7.537918,1.463007 7.558503,1.466738 7.571833,1.462545 7.602588,1.466391 7.616395,1.467665 7.648225,1.459728 7.660207,1.456638 7.701441,1.46786 7.734507,1.456175 7.755575,1.417748 7.771129,1.404609 7.776567,1.394389 7.7853,1.387238 7.807242,1.365222 7.825177,1.361804 7.838251,1.355792 7.924439,1.335534 7.953505,1.325907 7.969625,1.324548 7.97733,1.32063 7.995734,1.318067 8.006397,1.320562 8.053779,1.322525 8.062026,1.32563 8.074312,1.324705 8.09203,1.322932 8.116713,1.331479 8.140666,1.326634 8.147881,1.327692 8.163855,1.323054 8.257829,1.290123 8.345261,1.246839 8.367959,1.248672 8.387835,1.244675 8.388946,1.244317 8.426002,1.242898 8.435216,1.240511 8.457893,1.241659 8.498829,1.254298 8.509942,1.251575 8.561618,1.250129 8.600095,1.248589 8.602456,1.24685 8.619895,1.251911 8.641739,1.243131 8.667381,1.246978 8.671342,1.247568 8.675126,1.249636 8.711823,1.256027 8.731915,1.249657 8.765931,1.250336 8.781746,1.238448 8.782214,1.238231" style="fill: white" />
</svg>
