<svg width="13.600213" height="8.910821">
<polygon type="contour" points="7.590454,2.898154 7.713511,2.920638 7.821698,2.927112 7.862502,2.932959 8.133643,2.989596 8.182124,3.01046 8.21413,3.039975 8.283607,3.104863 8.318854,3.152451 8.320683,3.167563 8.3523,3.202093 8.461885,3.425151 8.482229,3.460444 8.483302,3.464187 8.484539,3.4688 8.4946,3.518737 8.499045,3.542607 8.500237,3.549937 8.500639,3.557891 8.50269,3.572598 8.502008,3.589101 8.50468,3.681236 8.496985,3.738704 8.493657,3.751579 8.485026,3.766542 8.477042,3.793334 8.46903,3.802196 8.466894,3.860831 8.476053,3.874643 8.476375,3.884716 8.486581,3.90675 8.491345,3.927601 8.500995,3.933272 8.50312,3.936493 8.529985,4.012989 8.542658,4.100214 8.557232,4.17812 8.562335,4.24051 8.560506,4.295537 8.55888,4.310511 8.55717,4.314558 8.548054,4.34418 8.546217,4.355197 8.547666,4.371903 8.557873,4.600759 8.5595,4.603459 8.560456,4.631456 8.561037,4.712374 8.555708,4.764757 8.543334,4.864651 8.538965,4.89148 8.506286,4.969312 8.500899,4.979282 8.492485,4.984534 8.477888,5.016165 8.466616,5.04147 8.468103,5.104392 8.490791,5.153941 8.496395,5.197775 8.503881,5.255987 8.505162,5.299635 8.504322,5.306152 8.504184,5.309368 8.503551,5.313513 8.487091,5.394702 8.473289,5.477733 8.452353,5.514737 8.430192,5.558796 8.338665,5.717516 8.282711,5.798935 8.228731,5.866716 8.117111,5.92565 8.10888,5.928976 8.102546,5.931634 7.988522,5.95529 7.851307,5.983573 7.833728,5.986483 7.831271,5.985892 7.798164,5.990664 7.55444,6.012115 7.529299,6.008619 7.500848,5.994106 7.465481,5.966148 7.428932,5.934184 7.414094,5.917382 7.401777,5.886385 7.399215,5.875959 7.404686,5.831699 7.405639,5.823295 7.429083,5.793801 7.437406,5.781816 7.440019,5.775636 7.497034,5.696783 7.376886,5.698701 7.374056,5.698746 7.369823,5.69885 7.261644,5.700573 7.256183,5.700684 7.183643,5.702148 7.145385,5.694128 7.091141,5.679276 7.101761,5.65991 7.146351,5.618133 7.196379,5.596111 7.214362,5.593426 7.237798,5.58993 7.298274,5.580908 7.318587,5.566303 7.325136,5.563663 7.348858,5.554099 7.461141,5.536468 7.505098,5.52845 7.512163,5.43513 7.530558,5.389157 7.576611,5.300702 7.581082,5.280883 7.589972,5.234651 7.609845,5.092886 7.625395,4.996745 7.631502,4.972256 7.654713,4.794326 7.549086,4.83094 7.491754,4.822704 7.478655,4.821767 7.462956,4.814399 7.455645,4.801787 7.446716,4.793611 7.425736,4.760178 7.42121,4.728608 7.422426,4.723376 7.41543,4.690157 7.412322,4.666492 7.413643,4.652623 7.413536,4.643883 7.414543,4.64318 7.418306,4.603669 7.416792,4.595593 7.418169,4.586322 7.413356,4.515926 7.413528,4.507028 7.409081,4.465 7.409669,4.464174 7.426856,4.440049 7.41408,4.407333 7.408343,4.383644 7.411305,4.324394 7.412083,4.316908 7.412841,4.294579 7.414398,4.286323 7.412823,4.278348 7.419695,4.208427 7.424966,4.196883 7.425208,4.161253 7.423899,4.152565 7.424112,4.146997 7.42638,4.143552 7.432967,4.135636 7.449726,4.114982 7.452674,4.113232 7.548553,4.077513 7.554723,4.078087 7.648149,4.105922 7.626769,4.018934 7.618334,3.901862 7.583275,3.645108 7.581303,3.631484 7.576807,3.610994 7.537145,3.519566 7.528903,3.508674 7.51251,3.469434 7.43584,3.455264 7.428952,3.453992 7.32015,3.433886 7.301151,3.430374 7.29742,3.42494 7.272477,3.41603 7.197247,3.382315 7.17709,3.373282 7.154372,3.363103 7.161509,3.323708 7.190071,3.313863 7.270125,3.307948 7.357322,3.303464 7.36709,3.302961 7.391804,3.301691 7.425539,3.305396 7.482133,3.311611 7.487861,3.251892 7.488094,3.249253 7.489508,3.233323 7.485518,3.215596 7.469306,3.187929 7.450886,3.155071 7.438161,3.138806 7.426551,3.121913 7.401648,3.078777 7.396588,3.047215 7.401546,3.021307 7.41667,3.002991 7.464996,2.943329 7.488054,2.92931 7.507321,2.916019 7.538307,2.903187 7.559252,2.894544" style="fill: white" /><polygon type="contour" points="3.830021,2.323095 3.881542,2.337878 3.886044,2.338581 3.888284,2.339738 3.909164,2.344448 3.929341,2.360638 3.971177,2.438284 4.049741,2.422105 4.055317,2.421494 4.241727,2.401103 4.265427,2.400009 4.350586,2.396078 4.401872,2.394221 4.533247,2.378573 4.690187,2.342528 4.717689,2.353766 4.745354,2.441839 4.73599,2.464164 4.713572,2.474884 4.5947,2.509254 4.299457,2.539911 4.226697,2.548088 4.225025,2.548275 4.1912,2.552077 4.133493,2.553469 4.025336,2.555422 4.007347,2.555748 3.984583,2.572189 3.970855,2.582105 3.942425,2.590614 3.9188,2.632396 3.912921,2.653621 3.890978,2.732859 3.836511,2.821892 3.83472,2.825535 3.824321,2.832346 3.820759,2.84841 3.817132,2.855948 3.814881,2.857584 3.789242,2.894095 3.766195,2.916672 3.685847,3.013726 3.656444,3.047937 3.648986,3.061082 3.631645,3.078032 3.626039,3.081614 3.623698,3.085277 3.587417,3.107208 3.550372,3.143445 3.546196,3.149033 3.544502,3.150539 3.540948,3.15287 3.536731,3.157578 3.511713,3.16718 3.478973,3.204694 3.474394,3.210709 3.446086,3.223993 3.398927,3.274822 3.35691,3.318293 3.35293,3.323887 3.162158,3.539385 3.148796,3.555364 3.094918,3.598995 3.025164,3.671802 2.997564,3.70752 2.903696,3.8765 2.888823,3.905433 2.86981,3.979609 2.861809,4.02904 2.869586,4.075301 2.870716,4.173295 2.862803,4.220793 2.865345,4.296735 2.858696,4.370998 2.851717,4.422818 2.852012,4.480323 2.864026,4.58917 2.864935,4.602517 2.868677,4.747486 2.866376,4.794108 2.861271,4.849713 2.858204,4.864594 2.864185,4.922061 2.883642,4.992326 2.962663,5.146821 2.99984,5.215091 3.022735,5.240529 3.151919,5.359503 3.177927,5.392162 3.349357,5.58768 3.349424,5.587737 3.349481,5.587813 3.351961,5.591174 3.372961,5.618101 3.386631,5.628377 3.409443,5.649421 3.48158,5.711466 3.499048,5.724369 3.510555,5.739208 3.535401,5.753382 3.538763,5.754883 3.547706,5.76675 3.577456,5.798027 3.59158,5.808071 3.628588,5.831787 3.630594,5.832327 3.632128,5.833634 3.671139,5.87556 3.682571,5.894971 3.697858,5.904019 3.827083,6.076627 3.83373,6.085449 3.836534,6.089869 3.850866,6.103775 3.901499,6.204485 3.916467,6.260548 3.945223,6.316881 3.974558,6.328542 4.045362,6.356683 4.182704,6.357054 4.19475,6.358075 4.207793,6.359182 4.283067,6.365566 4.583062,6.397997 4.699215,6.4325 4.72162,6.441259 4.737577,6.448829 4.746495,6.471599 4.715266,6.559511 4.691777,6.569514 4.575881,6.560733 4.324242,6.518921 4.285939,6.512558 4.242018,6.508818 4.13596,6.499791 3.966777,6.47363 3.952139,6.519732 3.948749,6.530411 3.943456,6.537381 3.883336,6.572777 3.880105,6.574881 3.879817,6.57509 3.833342,6.586659 3.829313,6.586439 3.823295,6.582106 3.80297,6.582638 3.766287,6.574755 3.704145,6.551864 3.690768,6.553065 3.642106,6.546408 3.593324,6.523656 3.577355,6.514123 3.570645,6.511978 3.539149,6.500378 3.532983,6.495747 3.528628,6.493191 3.526059,6.490958 3.46228,6.460057 3.454282,6.459735 3.434956,6.446587 3.356167,6.403096 3.299417,6.389741 3.246993,6.361604 3.212083,6.335381 3.200708,6.326389 3.192798,6.311232 3.169861,6.29148 3.099993,6.25893 3.070186,6.241061 3.063459,6.228258 3.045893,6.221724 2.979764,6.194587 2.954259,6.176293 2.94185,6.165525 2.909513,6.158781 2.888395,6.163548 2.836856,6.177968 2.781679,6.186378 2.759337,6.182521 2.71789,6.175657 2.692878,6.168455 2.684712,6.161044 2.660689,6.152684 2.63978,6.14796 2.630657,6.146122 2.591075,6.12856 2.56795,6.109654 2.562242,6.108626 2.550129,6.091241 2.518033,6.092497 2.501278,6.085147 2.483723,6.075351 2.475115,6.068809 2.465815,6.062099 2.448276,6.041598 2.424578,6.018738 2.403699,6.002725 2.377156,6.007255 2.36208,6.003712 2.35177,6.005745 2.331283,5.998435 2.309396,5.992879 2.288754,5.99317 2.246804,5.979203 2.237039,5.975028 2.231883,5.969687 2.186328,5.955134 2.175688,5.950817 2.173502,5.949557 2.137883,5.925436 2.123392,5.915299 2.11998,5.912252 2.08649,5.872739 2.068757,5.846481 2.010501,5.833894 2.00265,5.838911 1.98568,5.839294 1.972414,5.849077 1.955542,5.847625 1.944125,5.843187 1.920114,5.840762 1.912154,5.839679 1.88199,5.821222 1.870283,5.8145 1.848341,5.805888 1.835786,5.797518 1.786142,5.784608 1.77928,5.786304 1.78061,5.757187 1.699606,5.802338 1.681296,5.810068 1.668971,5.837857 1.666272,5.840739 1.640251,5.894672 1.630837,5.914184 1.628574,5.944633 1.6139,5.965673 1.606143,5.984811 1.599418,5.993863 1.587669,5.998249 1.561463,6.006398 1.533294,6.010186 1.52611,6.016595 1.510453,6.018493 1.49206,6.018879 1.483143,6.017126 1.464556,6.017829 1.453646,6.017087 1.452316,6.015371 1.406157,5.99903 1.390972,5.988977 1.359806,5.976253 1.353115,5.941645 1.320844,5.911769 1.306365,5.895771 1.29433,5.88615 1.248429,5.825781 1.238213,5.81096 1.209531,5.796202 1.158059,5.796513 1.147914,5.797856 1.123174,5.794588 1.105874,5.799718 1.055138,5.811216 1.011564,5.826072 1.002986,5.827659 0.974683,5.834932 0.894685,5.828126 0.872588,5.820228 0.768041,5.799761 0.799247,5.758192 0.765808,5.625799 0.760009,5.602338 0.761745,5.588004 0.755514,5.539572 0.758984,5.526883 0.745572,5.503259 0.724509,5.478594 0.688685,5.432645 0.667471,5.398937 0.651133,5.360557 0.620332,5.295577 0.615728,5.283445 0.615617,5.280099 0.624963,5.207698 0.647744,5.149188 0.662962,5.124277 0.679865,5.107472 0.668148,5.055746 0.640361,5.006956 0.623393,4.981891 0.61408,4.97093 0.601755,4.965022 0.580599,4.951755 0.579536,4.950616 0.560153,4.925394 0.540613,4.910522 0.521321,4.893069 0.500747,4.859117 0.494998,4.857243 0.488874,4.850397 0.482137,4.826703 0.476019,4.816166 0.454454,4.773537 0.434,4.706203 0.428253,4.683791 0.425134,4.665744 0.424041,4.644358 0.42358,4.611684 0.421047,4.582871 0.416401,4.567805 0.419049,4.548271 0.410326,4.465595 0.409571,4.457814 0.409425,4.455809 0.409368,4.454634 0.419723,4.361852 0.414998,4.343709 0.421785,4.326631 0.42125,4.322147 0.422763,4.316243 0.4204,4.276838 0.420562,4.237302 0.426339,4.20186 0.446418,4.155973 0.456534,4.13143 0.475915,4.097523 0.481594,4.087895 0.486259,4.073488 0.495276,4.052908 0.535194,4.004738 0.542005,3.999339 0.550504,3.992782 0.554648,3.98834 0.591702,3.955664 0.625171,3.918293 0.661294,3.861107 0.675697,3.825272 0.67458,3.800188 0.663101,3.777249 0.622264,3.68819 0.616478,3.636204 0.617013,3.626262 0.62792,3.597161 0.654992,3.535224 0.667759,3.515681 0.669678,3.50734 0.690674,3.475959 0.744893,3.41108 0.758873,3.384046 0.755642,3.371852 0.762571,3.318583 0.761011,3.3028 0.762598,3.247039 0.797869,3.195549 0.778424,3.15469 0.761098,3.099152 0.798195,3.090376 0.807678,3.081788 0.820847,3.078186 0.847167,3.07893 0.897443,3.083715 0.996315,3.091658 1.010543,3.097036 1.019768,3.097868 1.032489,3.101289 1.04162,3.104321 1.102023,3.111822 1.129328,3.116781 1.147067,3.114274 1.171747,3.115497 1.175426,3.115608 1.209726,3.115449 1.236221,3.102833 1.253324,3.080937 1.272739,3.057111 1.273931,3.056209 1.292029,3.034667 1.29466,3.025036 1.308557,3.012985 1.323012,2.999509 1.333616,2.987562 1.340077,2.982247 1.358639,2.960389 1.360427,2.940742 1.369907,2.930874 1.383413,2.927532 1.390832,2.917984 1.403307,2.912877 1.423686,2.914035 1.436782,2.897073 1.474571,2.890942 1.511098,2.891962 1.541644,2.903365 1.554422,2.90216 1.594126,2.914016 1.599524,2.91619 1.603297,2.921626 1.615315,2.948297 1.618136,2.968226 1.625281,2.984853 1.629465,2.990411 1.63547,3.010871 1.641471,3.018298 1.649408,3.043149 1.654172,3.051403 1.670432,3.073613 1.682532,3.105406 1.713752,3.107294 1.816015,3.132345 1.832606,3.115297 1.853855,3.106586 1.876805,3.090792 1.913493,3.073286 1.924921,3.068059 1.931928,3.065806 1.955546,3.063989 1.972257,3.073025 1.989323,3.071819 2.028096,3.074755 2.065149,3.067633 2.092305,3.034661 2.093847,3.031679 2.106581,3.017287 2.117333,3.008064 2.141426,2.990636 2.199031,2.955192 2.207169,2.949668 2.221348,2.947858 2.232962,2.937958 2.249855,2.930397 2.263865,2.925568 2.279419,2.92125 2.290768,2.918159 2.310865,2.918064 2.325844,2.915589 2.346138,2.907201 2.366261,2.909137 2.406216,2.908478 2.42313,2.891037 2.435683,2.886024 2.446679,2.868374 2.451862,2.865733 2.47974,2.838353 2.486789,2.834446 2.508418,2.826114 2.519416,2.821018 2.569481,2.811773 2.579573,2.790441 2.584452,2.786618 2.63404,2.763483 2.64651,2.763275 2.658454,2.755328 2.693241,2.748299 2.714354,2.737747 2.72406,2.735142 2.73779,2.73376 2.780924,2.725084 2.814097,2.734702 2.889952,2.754754 2.905265,2.75006 2.924216,2.74693 2.946212,2.744137 2.963143,2.730698 2.972291,2.729811 3.049534,2.690469 3.084299,2.677621 3.088495,2.671817 3.108124,2.660079 3.159701,2.627118 3.168391,2.615291 3.180008,2.60223 3.268211,2.537212 3.315723,2.513262 3.370507,2.482618 3.407825,2.469027 3.437782,2.464344 3.457143,2.45027 3.464165,2.450112 3.503103,2.42758 3.550042,2.405915 3.582605,2.395905 3.758463,2.339864 3.759726,2.338966 3.790204,2.333759 3.8213,2.321841" style="fill: white" />
</svg>
