<svg width="13.600213" height="8.910821">
<polygon type="contour" points="9.16954,0.207079 9.232538,0.236864 9.252636,0.253332 9.264533,0.249344 9.278831,0.262785 9.284892,0.265828 9.288482,0.275547 9.297066,0.279281 9.318754,0.305644 9.338988,0.324941 9.362107,0.322097 9.370005,0.323193 9.380478,0.318954 9.404573,0.321292 9.414498,0.326562 9.429,0.334813 9.46535,0.358615 9.481253,0.37187 9.510659,0.39212 9.610982,0.519027 9.624429,0.535632 9.627822,0.541331 9.639288,0.54971 9.653453,0.568389 9.679974,0.607552 9.700364,0.623861 9.700929,0.625062 9.719709,0.638307 9.91758,0.78209 9.933962,0.785692 9.973386,0.790288 10.011113,0.797743 10.045535,0.796939 10.055457,0.799427 10.190768,0.81969 10.22765,0.828125 10.238708,0.832596 10.251713,0.845411 10.258009,0.854163 10.281848,0.87262 10.301292,0.879531 10.414766,0.906903 10.436675,0.928956 10.488381,0.93066 10.577055,0.933718 10.709329,0.938485 10.745917,0.946334 10.754656,0.949243 10.79314,0.948009 10.80703,0.940375 11.005686,0.950265 11.017951,0.950083 11.037193,0.951304 11.042095,0.952064 11.060699,0.955421 11.085417,0.962361 11.151985,0.946909 11.209698,0.937492 11.218208,0.939121 11.257729,0.938251 11.28514,0.943133 11.413508,0.936665 11.445115,0.928343 11.502758,0.952932 11.555101,0.969274 11.590585,0.984401 11.598789,0.989646 11.612898,1.00037 11.636758,1.018342 11.669424,1.058009 11.698414,1.111084 11.71473,1.127265 11.761783,1.179318 11.912389,1.309352 11.920466,1.315968 11.927489,1.321971 12.018912,1.415236 12.091728,1.519859 12.175467,1.635625 12.223395,1.706058 12.351373,1.851013 12.383857,1.884579 12.424865,1.935682 12.432085,1.941914 12.482909,2.019974 12.492797,2.036702 12.499238,2.049406 12.504109,2.061057 12.517124,2.096693 12.552116,2.202543 12.57877,2.251166 12.586425,2.295907 12.595979,2.321988 12.621886,2.383036 12.640238,2.42046 12.663804,2.491638 12.670133,2.505478 12.676609,2.513115 12.70191,2.553132 12.703433,2.591574 12.732618,2.628231 12.733041,2.629676 12.733749,2.631772 12.746174,2.685762 12.77166,2.714763 12.775985,2.7157 12.776745,2.723974 12.795286,2.781991 12.800575,2.83177 12.81312,2.883668 12.80323,2.964986 12.84097,3.142483 12.84067,3.174892 12.861041,3.202275 12.870928,3.222945 12.872683,3.23821 12.92424,3.343565 12.891475,3.360336 12.864185,3.395878 12.921347,3.518737 12.931383,3.530528 12.940629,3.554137 12.954954,3.580434 12.981866,3.614723 12.983453,3.631124 13.03187,3.704433 13.054626,3.730432 13.140833,3.846798 13.202327,3.969016 13.22148,4.009823 13.226139,4.017489 13.236867,4.043824 13.262999,4.16087 13.271873,4.394306 13.273499,4.477232 13.265113,4.704115 13.237193,4.867008 13.230215,4.886477 13.221718,4.901705 13.094449,5.104455 13.085206,5.11991 13.074044,5.134848 13.066631,5.143225 13.046916,5.174582 13.003254,5.251763 12.994842,5.265095 12.985193,5.287228 12.959792,5.323897 12.948747,5.342893 12.907873,5.42812 12.863584,5.518355 12.890247,5.551517 12.9237,5.569489 12.872459,5.674558 12.871679,5.678812 12.860282,5.707969 12.840646,5.733386 12.841311,5.756348 12.830283,5.808201 12.814942,5.849668 12.816339,5.882542 12.819558,5.896428 12.810714,5.914767 12.809989,5.939293 12.787418,6.163069 12.781053,6.199914 12.747697,6.222361 12.733283,6.280959 12.732762,6.282896 12.70077,6.323645 12.697976,6.342955 12.69748,6.360842 12.697751,6.36856 12.68166,6.383665 12.671147,6.398559 12.614139,6.538169 12.608142,6.556871 12.603866,6.566555 12.603672,6.574396 12.599994,6.583375 12.510575,6.816181 12.500654,6.84827 12.485324,6.873514 12.47003,6.896302 12.422618,6.970202 12.345346,7.074408 12.193666,7.2439 12.15618,7.315492 12.110844,7.372118 12.049467,7.43497 11.921222,7.594781 11.918182,7.597758 11.910864,7.603229 11.876572,7.634368 11.729733,7.765328 11.707611,7.78866 11.692294,7.819403 11.663056,7.85619 11.652789,7.877343 11.636495,7.893419 11.621456,7.904915 11.610714,7.912369 11.576267,7.931595 11.455352,7.985379 11.381212,7.969665 11.267247,7.974975 11.218335,7.972308 11.212359,7.974007 11.113929,7.965614 11.042799,7.958425 11.037192,7.961876 11.000809,7.964055 10.886194,7.96923 10.812586,7.977805 10.777218,7.958515 10.728622,7.970551 10.547692,7.989449 10.439989,7.99702 10.309029,8.030881 10.155149,8.09203 10.090293,8.109198 10.025358,8.117649 10.024857,8.117671 10.014097,8.119182 9.92505,8.131448 9.895693,8.134537 9.872778,8.153452 9.706966,8.283437 9.681702,8.302732 9.646697,8.350858 9.631333,8.367244 9.627834,8.370472 9.624968,8.375306 9.533635,8.493274 9.510342,8.519854 9.465973,8.552466 9.426157,8.576589 9.414978,8.584876 9.405058,8.590186 9.380534,8.592607 9.3463,8.579645 9.318824,8.605903 9.286672,8.644866 9.278999,8.648722 9.265005,8.662193 9.252151,8.657862 9.230298,8.675727 9.22664,8.67715 9.161534,8.715866 9.111725,8.715436 9.020316,8.696642 8.909688,8.633905 8.840946,8.584122 8.830477,8.571706 8.822496,8.568166 8.79609,8.54417 8.788386,8.536012 8.779137,8.53247 8.709744,8.490117 8.666185,8.480481 8.617749,8.443599 8.454214,8.398182 8.425958,8.40135 8.399537,8.405778 8.367372,8.416856 8.347776,8.419074 8.322584,8.427005 8.256726,8.449153 8.243255,8.456834 8.132349,8.487956 8.104094,8.497389 8.084924,8.50355 8.04777,8.50722 7.975908,8.500999 7.891383,8.49347 7.822995,8.483866 7.8107,8.481489 7.798128,8.474278 7.775516,8.47462 7.761575,8.475863 7.722636,8.487378 7.718801,8.487381 7.696309,8.494999 7.690902,8.496681 7.689929,8.496986 7.629813,8.516174 7.581898,8.544138 7.449662,8.622511 7.262653,8.54651 7.254924,8.542554 7.245839,8.537218 7.1335,8.477513 7.050274,8.432943 6.998545,8.419454 6.903725,8.412167 6.85466,8.406651 6.790061,8.404198 6.70904,8.390745 6.576288,8.338431 6.525067,8.311646 6.515255,8.306991 6.431034,8.266252 6.278089,8.188949 6.271875,8.179892 6.223665,8.168066 6.210386,8.161608 6.17482,8.133702 6.072045,8.076296 6.067823,8.073761 6.059116,8.068601 6.058054,8.068105 5.916692,7.962108 5.874223,7.940767 5.850644,7.940656 5.83242,7.942359 5.785061,7.923776 5.733191,7.900749 5.694058,7.887965 5.6554,7.879745 5.633592,7.834408 5.571016,7.884837 5.557654,7.894566 5.394067,8.037455 5.234867,8.211492 5.206659,8.242372 5.18525,8.264642 5.179069,8.267169 5.160001,8.270261 5.158195,8.269732 5.156356,8.268435 5.142224,8.251866 5.141191,8.248518 5.136514,8.177057 5.139724,8.148691 5.141623,8.124781 5.197899,7.848831 5.17234,7.676581 5.169651,7.63925 5.149353,7.55038 5.111089,7.554946 5.09874,7.55203 5.092216,7.552749 5.065307,7.548851 5.055749,7.544425 4.973566,7.513467 4.934456,7.494651 4.865017,7.453968 4.816485,7.425268 4.800563,7.41236 4.770151,7.381245 4.72773,7.342771 4.693101,7.312805 4.67406,7.281768 4.622678,7.248987 4.429754,7.035785 4.356362,6.958821 4.353562,6.947695 4.304725,6.892787 4.206841,6.782755 4.158819,6.725031 4.151596,6.715869 4.080045,6.623124 4.049201,6.583922 3.951078,6.461713 3.935654,6.428768 3.872518,6.353578 3.831353,6.286177 3.824992,6.275419 3.824692,6.268895 3.813288,6.254482 3.7984,6.228032 3.79292,6.211747 3.782033,6.17445 3.753854,6.130145 3.742702,6.117046 3.737193,6.109879 3.73564,6.103324 3.729631,6.096519 3.720581,6.076745 3.689209,6.031445 3.654803,5.961641 3.628713,5.935405 3.565242,5.825785 3.554074,5.806606 3.554132,5.793851 3.544324,5.774863 3.543472,5.767163 3.518004,5.730975 3.515019,5.719231 3.501143,5.689061 3.475254,5.663496 3.46577,5.656251 3.370928,5.586814 3.281258,5.5283 3.145994,5.489276 3.100256,5.479132 3.031358,5.450632 2.915267,5.45187 2.860978,5.439366 2.813064,5.403991 2.782603,5.399802 2.778566,5.388244 2.778316,5.382083 2.791784,5.351429 2.794532,5.348827 2.800237,5.34461 2.977249,5.209701 3.043077,5.171193 3.093843,5.091012 3.11427,5.022826 3.107241,4.981491 3.088476,4.943325 3.087902,4.938617 3.086796,4.936935 3.082132,4.901972 3.086732,4.852217 3.092393,4.811669 3.110868,4.703554 3.116814,4.678463 3.128657,4.65681 3.14352,4.645412 3.149207,4.602637 3.150255,4.575361 3.13847,4.563761 3.13424,4.556647 3.122174,4.499661 3.121327,4.455808 3.123429,4.391218 3.132347,4.36506 3.136644,4.356158 3.138091,4.354769 3.149423,4.327038 3.14889,4.30789 3.143674,4.268196 3.129786,4.258264 3.116107,4.23357 3.10604,4.197501 3.081257,4.015633 3.081079,4.014225 3.081479,4.012861 3.082517,4.00166 3.085221,3.978996 3.086512,3.97524 3.103243,3.945649 3.103529,3.934444 3.11239,3.913837 3.109229,3.897942 3.106828,3.886524 3.108347,3.833156 3.089173,3.809994 3.000809,3.709926 2.870651,3.619961 2.789615,3.541305 2.778518,3.529904 2.779146,3.523934 2.785907,3.52002 2.883935,3.478312 2.931875,3.474569 3.094449,3.455477 3.174078,3.425424 3.211709,3.387848 3.387082,3.314799 3.400253,3.304509 3.484926,3.228847 3.50288,3.214157 3.515331,3.194341 3.51581,3.181705 3.543457,3.144815 3.544804,3.135594 3.552768,3.119058 3.553343,3.109926 3.567668,3.087509 3.590211,3.04169 3.638942,2.977457 3.692621,2.878144 3.692332,2.874859 3.730423,2.818835 3.759085,2.782604 3.768945,2.763201 3.775565,2.740286 3.779336,2.7351 3.785064,2.714086 3.801277,2.677995 3.809185,2.665005 3.821584,2.640346 3.829866,2.628074 3.839178,2.608513 3.894629,2.52699 3.970631,2.428592 4.000753,2.383034 4.075472,2.295674 4.091464,2.275372 4.106314,2.259491 4.119933,2.240479 4.308934,2.01228 4.322824,2.001276 4.338866,1.981445 4.358376,1.957308 4.365369,1.94852 4.374886,1.93744 4.378896,1.933373 4.382194,1.929611 4.385258,1.925475 4.397613,1.91086 4.413024,1.892695 4.57114,1.723794 4.578123,1.717706 4.586026,1.710838 4.614157,1.680046 4.629584,1.66567 4.674213,1.617423 4.67605,1.616569 4.71145,1.579142 4.71205,1.577768 4.713284,1.57649 4.773511,1.526944 4.796313,1.501962 4.897059,1.437599 4.933239,1.416312 4.966683,1.400215 5.006508,1.384049 5.033098,1.371092 5.03676,1.371082 5.063866,1.361896 5.104856,1.357523 5.123934,1.350194 5.154035,1.339933 5.172093,1.261035 5.171189,1.229838 5.177501,1.08294 5.142287,0.849001 5.14177,0.788935 5.141004,0.744825 5.14303,0.660965 5.144304,0.658272 5.159379,0.64132 5.161103,0.640717 5.16342,0.641685 5.184361,0.64603 5.188308,0.650534 5.357905,0.829023 5.526113,0.997648 5.537433,1.003 5.558265,1.016952 5.630743,1.076539 5.657043,1.031405 5.65724,1.031299 5.727333,1.010306 5.769668,0.995743 5.828882,0.968591 5.850932,0.970527 5.883104,0.970964 5.916222,0.955903 5.957756,0.934812 6.071305,0.835616 6.075977,0.832232 6.079919,0.829838 6.08439,0.827475 6.209122,0.751073 6.218881,0.745582 6.255228,0.735911 6.294519,0.711017 6.308476,0.704671 6.496455,0.610318 6.548428,0.587561 6.575419,0.573716 6.593181,0.561613 6.689381,0.527482 7.01776,0.487445 7.07403,0.47556 7.096191,0.454398 7.150074,0.428617 7.358453,0.320398 7.482927,0.300527 7.581022,0.36769 7.597526,0.376036 7.628162,0.392747 7.68378,0.411915 7.687144,0.414241 7.731668,0.433666 7.768297,0.436994 7.8042,0.428671 7.80481,0.428531 7.805527,0.428362 7.836046,0.427442 7.91103,0.417804 7.994614,0.412763 8.033584,0.413104 8.045816,0.41068 8.0765,0.414394 8.130919,0.425896 8.139086,0.430231 8.333146,0.490301 8.375775,0.496592 8.38514,0.496827 8.399629,0.503497 8.413311,0.501696 8.447336,0.506007 8.465269,0.508431 8.693218,0.424131 8.76522,0.391723 8.825757,0.345536 8.830105,0.337972 8.832456,0.33509 8.845803,0.322448 8.931932,0.26081 9.025415,0.213096 9.140014,0.207663 9.150731,0.203454 9.160001,0.203073" style="fill: white" />
</svg>
