<svg width="13.600213" height="8.910821">
<polygon type="contour" points="4.73776,0.586129 4.7497,0.593279 4.756366,0.599321 4.844948,0.646397 4.879899,0.661627 4.935452,0.65846 4.944297,0.659829 4.960599,0.654711 4.988961,0.651384 5.013744,0.648442 5.041766,0.651143 5.080861,0.661938 5.260544,0.715294 5.430055,0.789832 5.444951,0.798458 5.466363,0.802888 5.57997,0.815646 5.592057,0.822772 5.618067,0.821202 5.635169,0.823058 5.653261,0.819411 5.729108,0.832489 5.774954,0.838481 5.82345,0.855982 5.869749,0.870084 5.930211,0.870448 6.01649,0.891037 6.302387,0.973092 6.357308,0.988335 6.412361,1.002033 6.447105,1.017702 6.576013,1.06911 6.702407,1.140264 6.823547,1.2334 6.856024,1.260602 6.873557,1.287726 6.998759,1.467569 7.062312,1.56348 7.08277,1.590921 7.141479,1.662914 7.277378,1.844974 7.280764,1.854982 7.296316,1.865272 7.33642,1.919733 7.377159,1.970217 7.451614,2.079631 7.462932,2.094743 7.499238,2.121771 7.672446,2.28313 7.730345,2.326559 7.813218,2.416756 7.880428,2.459139 7.908043,2.480749 7.957259,2.518144 7.971997,2.532792 8.029776,2.572995 8.076782,2.589506 8.135101,2.631302 8.217048,2.709023 8.257594,2.766375 8.329631,2.85273 8.333654,2.856506 8.337625,2.861068 8.341639,2.865242 8.357382,2.880497 8.465869,2.970359 8.474818,2.978469 8.483238,2.987129 8.508205,3.029416 8.530572,3.065858 8.538614,3.073604 8.556153,3.091473 8.563875,3.098798 8.569992,3.102079 8.599422,3.141497 8.62857,3.155042 8.649172,3.160975 8.651761,3.163155 8.675476,3.17099 8.693795,3.187762 8.697542,3.191532 8.705813,3.199194 8.729305,3.227238 8.818654,3.327794 8.850931,3.34501 8.978823,3.48424 8.998788,3.504017 9.012484,3.518444 9.022066,3.526783 9.035716,3.540834 9.064547,3.580377 9.065434,3.581037 9.066683,3.582775 9.071168,3.588657 9.114571,3.639185 9.142604,3.655279 9.148693,3.673547 9.166478,3.701157 9.177135,3.710208 9.187576,3.724859 9.219332,3.770145 9.222453,3.777161 9.222334,3.803615 9.228447,3.825702 9.230123,3.836697 9.236368,3.85251 9.246285,3.869175 9.277678,3.907813 9.341435,3.980476 9.356236,3.991273 9.357545,3.992754 9.365332,4.016456 9.365693,4.018022 9.370359,4.029752 9.384646,4.063518 9.386992,4.067866 9.389084,4.07521 9.39954,4.130495 9.427868,4.175272 9.429299,4.189089 9.43281,4.195222 9.436487,4.230884 9.451914,4.301644 9.456692,4.390711 9.461756,4.412809 9.46218,4.424444 9.475058,4.535819 9.457004,4.615624 9.442496,4.682085 9.429759,4.733013 9.401651,4.782898 9.391601,4.827939 9.390007,4.841421 9.384944,4.852143 9.378628,4.860996 9.347489,4.924419 9.321398,4.958023 9.314853,4.964024 9.297995,4.982774 9.287604,4.987946 9.270773,5.007969 9.250887,5.042616 9.230185,5.080845 9.22359,5.100039 9.22277,5.130065 9.206338,5.159587 9.191412,5.179119 9.186681,5.190504 9.179652,5.197049 9.172748,5.211241 9.157011,5.221907 9.14787,5.240134 9.14686,5.242513 9.145751,5.24335 9.127441,5.265943 9.113788,5.274606 9.102119,5.292342 9.066346,5.329334 9.064958,5.330777 9.049966,5.344306 9.041298,5.356335 9.033542,5.363276 9.001382,5.407503 8.990497,5.42525 8.973016,5.450914 8.938227,5.496194 8.866513,5.550262 8.822895,5.586295 8.760723,5.647506 8.73728,5.675924 8.725205,5.688659 8.686042,5.730249 8.673756,5.741211 8.665598,5.745387 8.643717,5.752329 8.604176,5.76376 8.59398,5.784727 8.582324,5.794178 8.556338,5.823878 8.497388,5.903561 8.492303,5.90721 8.486664,5.917079 8.458141,5.944954 8.424402,5.965424 8.368895,6.007665 8.34648,6.057898 8.339881,6.070888 8.325168,6.089982 8.106456,6.304109 8.092767,6.316969 8.053936,6.327563 8.035068,6.333968 7.844899,6.463898 7.836018,6.475978 7.774889,6.519358 7.739672,6.546074 7.727413,6.570166 7.679631,6.632189 7.568541,6.729097 7.468853,6.810724 7.392854,6.930872 7.360268,6.97841 7.28076,7.057033 7.265484,7.083922 7.107052,7.295799 7.069912,7.339219 7.020099,7.406256 6.993287,7.450786 6.948672,7.522166 6.85011,7.656635 6.803624,7.699209 6.753577,7.739614 6.669909,7.792019 6.605265,7.825741 6.493906,7.882664 6.455694,7.892383 6.359343,7.927412 6.35703,7.928765 6.349544,7.929808 6.332462,7.936677 6.123342,7.998348 6.056572,8.017051 5.912255,8.024264 5.903492,8.02388 5.832247,8.053249 5.757946,8.078238 5.646645,8.093082 5.575715,8.094354 5.525804,8.103952 5.413002,8.134019 5.325965,8.159423 5.30676,8.175336 5.233674,8.207543 5.201144,8.214411 5.077547,8.259079 4.989373,8.257316 4.978195,8.258583 4.901367,8.247548 4.885506,8.247128 4.832247,8.272285 4.774489,8.300155 4.746234,8.316767 4.734394,8.32993 4.726557,8.332909 4.715523,8.3355 4.691052,8.339674 4.577838,8.317594 4.4586,8.30486 4.341205,8.285562 4.273498,8.270201 4.219967,8.260877 4.09444,8.224685 3.825919,8.130766 3.749493,8.107948 3.50388,7.995509 3.495744,7.992064 3.49242,7.989778 3.483928,7.984912 3.463671,7.974189 3.397792,7.944762 3.20323,7.841819 3.147192,7.815616 3.102876,7.799441 3.050144,7.781214 3.021367,7.769367 2.945245,7.750569 2.886735,7.739692 2.854417,7.735159 2.839644,7.72882 2.664581,7.709601 2.645017,7.705345 2.642847,7.705258 2.371815,7.664418 2.347546,7.66077 2.329221,7.659937 2.160495,7.63502 1.967192,7.562947 1.94257,7.557242 1.916214,7.553995 1.837521,7.55908 1.82447,7.555704 1.81986,7.554073 1.783995,7.535752 1.751897,7.51961 1.718583,7.51372 1.711458,7.516219 1.689988,7.504878 1.671153,7.51108 1.627809,7.495369 1.614311,7.490257 1.606612,7.484038 1.582968,7.477934 1.559085,7.472755 1.520495,7.463651 1.511596,7.460547 1.385733,7.418354 1.349832,7.408583 1.326707,7.39839 1.30245,7.396393 1.297712,7.396521 1.285445,7.389405 1.178915,7.33954 1.082153,7.298038 1.056745,7.27034 1.020752,7.281084 0.965794,7.293422 0.924741,7.291354 0.902587,7.290381 0.868415,7.27828 0.858001,7.273626 0.808719,7.261198 0.803465,7.256738 0.786061,7.252704 0.722775,7.218824 0.721407,7.218236 0.718916,7.216633 0.712017,7.211259 0.665304,7.182841 0.654732,7.172439 0.587214,7.102964 0.569987,7.084451 0.560172,7.070729 0.558084,7.06661 0.556901,7.052439 0.553641,6.933638 0.550865,6.926283 0.549887,6.914141 0.545721,6.885294 0.540113,6.851037 0.533903,6.817998 0.542887,6.739651 0.575616,6.695245 0.570065,6.595592 0.568383,6.533002 0.566968,6.513799 0.57012,6.488841 0.572211,6.46117 0.583377,6.446378 0.575232,6.302491 0.550193,6.153446 0.534494,6.078416 0.530642,6.06334 0.520714,6.023367 0.479265,5.725023 0.475488,5.628364 0.477152,5.593363 0.470884,5.577882 0.446793,5.468673 0.438651,5.421616 0.437476,5.418188 0.434273,5.384413 0.444573,5.320157 0.447584,5.236703 0.448596,5.231017 0.451397,5.225228 0.450643,5.211137 0.457217,5.171101 0.454659,5.123373 0.447896,5.106758 0.440827,5.076329 0.429034,5.055805 0.418796,5.043817 0.415111,5.02328 0.412097,5.0167 0.372993,4.802866 0.376101,4.695531 0.373266,4.666921 0.376965,4.659409 0.38243,4.621388 0.375004,4.551378 0.372842,4.503024 0.381259,4.39278 0.391822,4.320746 0.394385,4.292343 0.372288,4.194786 0.37196,4.190833 0.367638,4.16877 0.370123,4.106146 0.377371,4.077075 0.405094,3.923923 0.438208,3.821762 0.455298,3.791437 0.436972,3.649859 0.433982,3.530461 0.451311,3.405907 0.470697,3.332891 0.476346,3.327017 0.477028,3.299237 0.47574,3.277522 0.478086,3.184324 0.487647,3.020421 0.492422,2.955508 0.496813,2.926821 0.530943,2.783259 0.538837,2.755059 0.569392,2.594703 0.564623,2.563266 0.572655,2.459442 0.567859,2.423767 0.572629,2.399412 0.568827,2.355461 0.570527,2.284486 0.574404,2.234504 0.573978,2.208816 0.551187,2.182044 0.53154,2.115696 0.558305,1.845187 0.558264,1.843755 0.561451,1.838047 0.637719,1.751854 0.638432,1.750472 0.639119,1.749877 0.786727,1.657451 0.79244,1.657035 0.803862,1.649977 0.866888,1.633887 0.898688,1.627344 0.918569,1.61864 0.950613,1.617604 0.981698,1.618418 1.00707,1.620306 1.057801,1.645467 1.079763,1.615079 1.206419,1.55522 1.21231,1.552939 1.220725,1.547335 1.228793,1.542083 1.256151,1.534849 1.307152,1.514503 1.316783,1.513289 1.326304,1.5136 1.347556,1.507661 1.395651,1.491305 1.489345,1.459159 1.534321,1.444629 1.551212,1.44209 1.559776,1.438583 1.569325,1.437379 1.585204,1.433607 1.59908,1.426903 1.610228,1.424741 1.614557,1.421246 1.625933,1.417112 1.666606,1.401613 1.681713,1.406035 1.72911,1.394697 1.755135,1.390403 1.824774,1.356215 1.838179,1.352799 1.868446,1.350437 1.910285,1.357132 1.939489,1.354316 1.981301,1.34441 2.167538,1.274776 2.185958,1.27332 2.200533,1.268441 2.274267,1.254814 2.489476,1.237494 2.654987,1.197199 2.674991,1.196476 2.80075,1.187391 3.090754,1.121472 3.106355,1.115346 3.144153,1.106666 3.304828,1.013934 3.407387,0.959591 3.431751,0.946519 3.432334,0.945861 3.467652,0.929495 3.595633,0.873215 3.779529,0.797283 4.056109,0.698552 4.09636,0.686506 4.220191,0.653477 4.389632,0.626823 4.423312,0.621692 4.469807,0.611596 4.507412,0.602516 4.54572,0.589452 4.555117,0.588294 4.679751,0.573358 4.692553,0.572224" style="fill: white" /><polygon type="hole" points="4.630082,2.689384 4.565742,2.703684 4.437383,2.735483 4.404075,2.752856 4.284195,2.834619 4.208719,2.884748 4.026772,3.02236 3.962252,3.102552 3.893588,3.181962 3.868801,3.230166 3.838598,3.306088 3.826051,3.351989 3.781671,3.516752 3.767137,3.573568 3.697389,3.698954 3.544421,3.981937 3.517493,4.067306 3.49822,4.191967 3.469002,4.545021 3.47221,4.623171 3.483555,4.689945 3.518554,4.841702 3.541402,4.933734 3.576467,4.996725 3.663598,5.127802 3.775259,5.354696 3.793599,5.407079 3.843412,5.609566 3.869188,5.680372 4.045327,5.892304 4.066906,5.919016 4.082158,5.934613 4.100287,5.94742 4.134874,5.967207 4.252324,6.044667 4.384474,6.141403 4.398903,6.151756 4.417883,6.161892 4.464689,6.183102 4.545761,6.210378 4.605704,6.219391 4.695504,6.218244 5.022892,6.20093 5.070669,6.203481 5.15737,6.177345 5.422464,6.066912 5.448668,6.043052 5.463829,6.020828 5.506836,5.968539 5.521895,5.963818 5.555006,5.952148 5.582205,5.95302 5.66233,5.955396 5.726328,5.923995 5.850409,5.873928 5.932115,5.828789 5.970789,5.809312 6.101668,5.735188 6.103809,5.734647 6.221942,5.663564 6.237953,5.652912 6.249664,5.647012 6.350972,5.555214 6.423713,5.484599 6.446039,5.476494 6.49862,5.40954 6.552228,5.330317 6.642702,5.173759 6.653232,5.153402 6.655714,5.131294 6.642896,5.057181 6.649651,5.027088 6.686581,4.940485 6.695816,4.915534 6.734984,4.737028 6.712126,4.615103 6.71291,4.54997 6.725865,4.316888 6.728385,4.242974 6.744979,4.200674 6.708389,4.04557 6.697783,4.010098 6.66736,3.93636 6.647836,3.84518 6.653872,3.809965 6.644425,3.754891 6.584283,3.615502 6.565562,3.580725 6.529897,3.529691 6.444866,3.4633 6.378886,3.399348 6.347056,3.37216 6.223333,3.24488 6.008786,3.130431 5.977624,3.106367 5.95985,3.10331 5.936129,3.086262 5.892378,3.065158 5.863415,3.050182 5.822346,3.044483 5.794508,3.023311 5.641341,2.964452 5.617549,2.963258 5.541323,2.95877 5.524022,2.952874 5.495689,2.92692 5.418597,2.847619 5.18398,2.743404 5.080693,2.707727 5.030686,2.700872 4.899629,2.696228 4.813871,2.688795" style="fill: black" />
</svg>
