<svg width="13.600213" height="8.910821">
<polygon type="contour" points="7.314676,2.688039 7.354924,2.69721 7.362651,2.700747 7.370559,2.706561 7.396298,2.731969 7.416517,2.765341 7.460484,2.765954 7.470752,2.766367 7.52042,2.764575 7.526872,2.759498 7.540717,2.759593 7.5886,2.750731 7.592698,2.746198 7.61193,2.754356 7.640612,2.744854 7.654687,2.742112 7.67101,2.742409 7.692427,2.744936 7.725015,2.752476 7.766438,2.767596 7.79359,2.776634 7.821346,2.793405 7.831758,2.800024 7.87587,2.836857 7.889085,2.852982 7.900942,2.872445 7.903393,2.886648 7.984397,2.981148 8.022708,3.028393 8.041824,3.053636 8.069255,3.076164 8.135763,3.125689 8.179062,3.178903 8.205361,3.214339 8.210601,3.233092 8.217506,3.267698 8.257594,3.464143 8.252277,3.632671 8.256084,3.65497 8.272583,3.712471 8.276636,3.727913 8.303295,3.799604 8.305146,3.805074 8.306118,3.814138 8.343449,3.891124 8.365315,3.926068 8.382434,3.941657 8.400344,3.966366 8.469058,4.104606 8.478593,4.132162 8.52474,4.238435 8.554735,4.315098 8.566042,4.409582 8.573903,4.46677 8.573916,4.495099 8.565346,4.51589 8.562638,4.548498 8.559826,4.581375 8.500601,4.737035 8.474012,4.78754 8.467512,4.821854 8.463679,4.834712 8.429834,4.895176 8.35838,4.998176 8.343046,5.022443 8.312788,5.07219 8.289861,5.12656 8.287307,5.137391 8.279804,5.161077 8.276047,5.186456 8.250316,5.288242 8.255606,5.325951 8.254153,5.436142 8.234863,5.529663 8.227474,5.584194 8.219465,5.665129 8.207045,5.694766 8.193879,5.71459 8.137307,5.765571 8.108508,5.798685 8.097155,5.805622 7.978987,5.934419 7.975284,5.9382 7.966328,5.953206 7.93592,5.979443 7.912952,6.006102 7.896149,6.041434 7.875975,6.085114 7.836213,6.11681 7.827777,6.123374 7.809684,6.133946 7.780325,6.147288 7.757382,6.15607 7.72658,6.162376 7.704038,6.162593 7.692687,6.167421 7.675004,6.168259 7.673812,6.168391 7.616787,6.162188 7.606636,6.152523 7.566082,6.158404 7.562017,6.158886 7.539887,6.150919 7.529816,6.150575 7.47485,6.141233 7.446168,6.144824 7.425134,6.14854 7.411955,6.157712 7.394744,6.175755 7.377295,6.19847 7.348039,6.216499 7.331277,6.216169 7.314267,6.223561 7.302933,6.222201 7.23348,6.202056 7.229626,6.199219 7.187388,6.149975 7.181328,6.135918 7.180401,6.133768 7.153755,6.071952 7.116563,6.07501 7.109682,6.075576 7.105095,6.075953 7.089103,6.077267 7.080652,6.077961 6.921906,6.091006 6.819154,6.09788 6.750101,6.09681 6.704322,6.095366 6.637049,6.064999 6.63324,6.056886 6.668113,5.984077 6.674134,5.976942 6.693122,5.964311 6.751549,5.932028 6.782732,5.917862 6.839356,5.898293 6.933882,5.871147 7.018901,5.862606 7.020397,5.862455 7.080807,5.856385 7.087258,5.855446 7.182472,5.84157 7.197061,5.812399 7.201138,5.804245 7.203847,5.79883 7.22347,5.778843 7.224692,5.773553 7.234585,5.761366 7.345332,5.672392 7.349153,5.668193 7.38468,5.666479 7.404378,5.634656 7.42448,5.597998 7.426596,5.594057 7.556834,5.350414 7.563044,5.341671 7.587981,5.279214 7.6476,5.13406 7.671077,5.022707 7.578637,5.039931 7.541617,5.062182 7.520317,5.080067 7.511176,5.0801 7.441491,5.087482 7.435681,5.092571 7.425211,5.091302 7.411159,5.088881 7.387627,5.090815 7.349415,5.075434 7.335975,5.066256 7.315158,5.04132 7.304445,5.014609 7.295433,5.002265 7.292617,4.981798 7.277648,4.945344 7.279335,4.893861 7.279089,4.872606 7.277007,4.870138 7.27616,4.846126 7.276859,4.812303 7.276105,4.789969 7.276383,4.784886 7.287837,4.720585 7.289878,4.705513 7.290381,4.704485 7.299036,4.657352 7.30998,4.626086 7.323068,4.577809 7.336052,4.538942 7.343041,4.529045 7.345613,4.425573 7.344356,4.417697 7.343955,4.412915 7.324558,4.3592 7.313883,4.316948 7.304728,4.25213 7.290155,4.194885 7.278559,4.150114 7.275503,4.120419 7.27553,4.085731 7.279399,4.071899 7.276882,4.057289 7.263879,3.993663 7.269592,3.975234 7.276567,3.954324 7.286792,3.932221 7.296866,3.903015 7.306838,3.882699 7.35517,3.841919 7.372583,3.821892 7.384594,3.819199 7.441737,3.807275 7.537012,3.838401 7.537419,3.83859 7.538136,3.83883 7.56511,3.85084 7.674651,3.899981 7.640613,3.762695 7.613236,3.669518 7.583938,3.607729 7.575502,3.596214 7.507166,3.456747 7.436949,3.334034 7.402534,3.27405 7.384552,3.245773 7.348598,3.242609 7.2809,3.188798 7.2695,3.179736 7.148011,3.163448 6.878932,3.127372 6.853346,3.118438 6.771536,3.082727 6.724053,3.061539 6.682382,3.025721 6.65644,2.999205 6.643912,2.958592 6.662949,2.931251 6.705093,2.917409 6.912358,2.916642 7.030521,2.927618 7.117162,2.935665 7.212933,2.725432 7.221762,2.7204 7.234062,2.711209 7.245119,2.706243 7.304278,2.689151 7.310467,2.687571" style="fill: white" /><polygon type="contour" points="3.829612,2.171157 3.839417,2.17434 3.845147,2.189261 3.876816,2.198791 3.883947,2.204008 3.95859,2.251138 3.983751,2.347452 4.384827,2.351981 4.446899,2.359207 4.46306,2.369994 4.478556,2.401199 4.456855,2.44991 4.443208,2.469378 4.421739,2.486199 4.382711,2.50484 4.338017,2.514449 4.296839,2.524287 3.974384,2.565097 3.924715,2.571037 3.894335,2.673451 3.875201,2.732629 3.851653,2.773305 3.834617,2.791331 3.820649,2.801174 3.80598,2.802218 3.706281,2.854966 3.68789,2.862518 3.685597,2.86328 3.670125,2.871021 3.612812,2.90636 3.364983,3.105662 3.26955,3.188487 3.067678,3.341665 3.0389,3.363137 3.02793,3.37876 3.017501,3.39291 2.997982,3.401316 2.988303,3.42633 2.923548,3.525582 2.909151,3.559233 2.850001,3.64983 2.820278,3.747388 2.810378,3.771864 2.803793,3.79231 2.802005,3.864367 2.799044,3.910463 2.78203,3.984553 2.745785,4.15726 2.728506,4.247111 2.727735,4.254057 2.726203,4.309368 2.727482,4.647268 2.72859,4.666159 2.732924,4.690781 2.750175,4.801826 2.794768,5.053402 2.804065,5.100491 2.805245,5.124967 2.842475,5.233332 2.926218,5.392314 2.944282,5.424261 2.966956,5.465875 2.994509,5.508028 3.019124,5.521428 3.032256,5.545749 3.043035,5.556174 3.173171,5.648624 3.227911,5.690539 3.262687,5.722085 3.394002,5.845285 3.420542,5.860261 3.466822,5.885574 3.470758,5.886667 3.48302,5.897686 3.521766,5.930197 3.615595,6.007085 3.643287,6.028571 3.676533,6.053256 3.751337,6.07987 3.783046,6.087879 3.820762,6.110761 3.838172,6.122872 3.861176,6.150204 3.897656,6.244686 3.911929,6.305507 3.932988,6.347616 4.034094,6.359594 4.297635,6.390813 4.361547,6.407197 4.421144,6.43045 4.443886,6.443151 4.457445,6.461945 4.474474,6.517256 4.460919,6.538563 4.423411,6.560138 4.384775,6.571737 4.356049,6.572439 4.159566,6.562871 4.15072,6.56244 3.996973,6.554954 3.979826,6.596788 3.973266,6.627534 3.958664,6.644563 3.945749,6.664472 3.886764,6.707003 3.837965,6.736344 3.820316,6.7454 3.817257,6.748154 3.797854,6.751365 3.797176,6.751702 3.766999,6.751854 3.688576,6.745253 3.684373,6.745443 3.681276,6.745238 3.680344,6.74491 3.676864,6.742735 3.654297,6.730233 3.62968,6.720161 3.615027,6.718835 3.590258,6.717354 3.538674,6.713167 3.472379,6.70837 3.426967,6.699988 3.349726,6.649897 3.317193,6.638787 3.247104,6.633944 3.20234,6.669633 3.159452,6.685433 3.12973,6.676629 3.085082,6.678842 3.06707,6.673197 3.048389,6.655871 2.980952,6.613916 2.966748,6.596188 2.946068,6.565509 2.935204,6.557666 2.887794,6.518169 2.863473,6.49277 2.838039,6.478904 2.806775,6.455732 2.778807,6.418293 2.740926,6.424526 2.734262,6.421067 2.71675,6.414033 2.703317,6.402189 2.694599,6.391366 2.675901,6.376099 2.644899,6.356301 2.597175,6.345275 2.560572,6.325617 2.540792,6.322077 2.531139,6.317256 2.521911,6.311195 2.472207,6.277564 2.438651,6.250009 2.414467,6.242678 2.29799,6.175735 2.271205,6.173068 2.25815,6.173777 2.161606,6.148253 2.160249,6.14779 2.159627,6.147546 2.159163,6.146168 2.130473,6.109826 2.110122,6.105447 2.083466,6.090095 2.055176,6.083605 2.015078,6.064702 2.011547,6.06141 1.946086,6.04197 1.868067,6.049115 1.761336,6.026865 1.751452,6.025816 1.661005,6.03844 1.581253,6.051279 1.562812,6.053788 1.51202,6.0407 1.493954,6.032465 1.431809,6.058587 1.371385,6.108965 1.342472,6.13035 1.321871,6.169184 1.321942,6.193218 1.32292,6.201068 1.321324,6.206048 1.330473,6.257624 1.332563,6.274516 1.334615,6.284341 1.335672,6.289724 1.331205,6.293746 1.315727,6.307612 1.311018,6.321493 1.294423,6.340294 1.294082,6.340546 1.265641,6.358854 1.224137,6.378372 1.178792,6.395626 1.138892,6.40902 1.125663,6.409044 1.079946,6.405207 1.031835,6.368005 0.977526,6.322539 0.965639,6.30167 0.927403,6.237945 0.923303,6.221068 0.927394,6.203119 0.927793,6.154648 0.92721,6.098891 0.907834,6.0774 0.876053,6.030023 0.822738,6.022198 0.767726,6.007809 0.754072,6.00576 0.744994,6.004911 0.726237,6.005843 0.708402,6.002144 0.670215,6.006798 0.659641,6.006779 0.656454,6.004879 0.651022,6.004446 0.632447,5.995873 0.614517,5.996787 0.591545,5.990312 0.556072,5.975938 0.547277,5.966784 0.492034,5.901706 0.442926,5.840282 0.434884,5.826969 0.428139,5.807017 0.427644,5.796115 0.439622,5.701338 0.444521,5.689356 0.452979,5.667166 0.450748,5.569037 0.458426,5.471836 0.462798,5.446397 0.445081,5.382824 0.419629,5.294655 0.419831,5.291407 0.420892,5.289803 0.422929,5.283833 0.482195,5.125393 0.475748,5.07308 0.454949,4.936166 0.411323,4.875649 0.341963,4.823491 0.28008,4.731294 0.277817,4.726654 0.265621,4.701151 0.249885,4.663713 0.246876,4.656226 0.225032,4.549862 0.224312,4.54758 0.223803,4.545807 0.222954,4.542612 0.222662,4.537837 0.212093,4.443439 0.212208,4.443118 0.216087,4.427807 0.24741,4.250842 0.247416,4.250816 0.249522,4.246055 0.277113,4.184655 0.305117,4.149927 0.324226,4.124877 0.336018,4.105851 0.349029,4.091513 0.375396,4.06414 0.426669,4.035964 0.433351,4.015684 0.464551,3.942337 0.478821,3.846966 0.463364,3.733206 0.421279,3.628627 0.420246,3.625162 0.41942,3.62322 0.421624,3.614063 0.452395,3.504499 0.460118,3.477813 0.478147,3.384162 0.457755,3.322664 0.45701,3.297068 0.452589,3.235616 0.444489,3.221376 0.439015,3.208163 0.426592,3.151323 0.427518,3.117141 0.428408,3.10663 0.436485,3.083149 0.439259,3.077131 0.446125,3.066975 0.482869,2.992297 0.51568,2.963673 0.554967,2.935259 0.562549,2.931913 0.583652,2.923928 0.614574,2.914817 0.632535,2.915734 0.651072,2.907162 0.656498,2.906728 0.659656,2.904838 0.676129,2.905932 0.705044,2.909342 0.734138,2.90904 0.747316,2.908812 0.772551,2.908814 0.800945,2.897674 0.87954,2.877 0.905119,2.837662 0.918361,2.823395 0.928335,2.80789 0.931598,2.789295 0.933823,2.761479 0.93041,2.740965 0.926322,2.726711 0.923302,2.69055 0.927394,2.673711 0.941194,2.648022 1.018152,2.55084 1.022037,2.546136 1.130211,2.502643 1.176826,2.516114 1.271633,2.558972 1.301041,2.57695 1.303788,2.581754 1.314228,2.604074 1.335268,2.620482 1.336005,2.621339 1.332924,2.639879 1.321431,2.699781 1.323671,2.705583 1.322298,2.716261 1.32198,2.738371 1.331726,2.773614 1.360868,2.797132 1.37217,2.809743 1.391672,2.825208 1.401616,2.834681 1.421602,2.847245 1.435275,2.858135 1.435946,2.858221 1.437182,2.859302 1.447346,2.86393 1.472179,2.879468 1.494722,2.874263 1.55006,2.86559 1.611187,2.867862 1.670437,2.88229 1.703571,2.888689 1.782147,2.881467 1.826136,2.877068 1.841411,2.870123 1.904678,2.864251 1.912121,2.862952 1.927822,2.860111 2.004752,2.855231 2.040177,2.835252 2.068801,2.828519 2.100746,2.812819 2.129187,2.807115 2.144187,2.783191 2.14695,2.782061 2.160329,2.76515 2.165373,2.762905 2.192441,2.754619 2.260624,2.737222 2.272639,2.738134 2.298583,2.735085 2.347152,2.705345 2.349688,2.704068 2.351742,2.703667 2.392676,2.680028 2.425446,2.658954 2.430581,2.657607 2.440454,2.654122 2.463978,2.636644 2.519183,2.600761 2.524559,2.597733 2.529874,2.594804 2.547422,2.590492 2.597806,2.566398 2.640438,2.55697 2.675491,2.534179 2.690353,2.531579 2.712892,2.497921 2.735353,2.490362 2.739547,2.488875 2.742553,2.488181 2.74828,2.489684 2.778068,2.487357 2.851529,2.426056 2.856065,2.420767 2.883233,2.401531 2.913077,2.375054 2.935739,2.353217 2.942416,2.348593 2.953999,2.337628 3.040329,2.258397 3.05621,2.240953 3.078834,2.236152 3.106093,2.232354 3.111479,2.23455 3.135738,2.234158 3.16965,2.231733 3.183105,2.233208 3.190518,2.237941 3.239313,2.266774 3.328454,2.270565 3.388544,2.247215 3.416405,2.234436 3.471593,2.206095 3.554748,2.194023 3.587994,2.189524 3.600031,2.189316 3.66725,2.17172 3.67607,2.167289 3.683338,2.166491 3.695874,2.166833 3.815988,2.161712" style="fill: white" />
</svg>
