<svg width="13.600213" height="8.910821">
<polygon type="contour" points="8.042103,3.288373 8.05927,3.29213 8.081274,3.301448 8.116278,3.32145 8.193113,3.352144 8.1941,3.352979 8.34129,3.424966 8.36394,3.443887 8.413127,3.507517 8.496474,3.612888 8.544323,3.649326 8.616049,3.704724 8.701127,3.819605 8.72794,3.861015 8.749714,3.898139 8.752342,3.905108 8.753516,3.909203 8.764335,3.938102 8.776397,3.947446 8.789942,3.967612 8.81257,4.048428 8.819314,4.084138 8.816534,4.135098 8.837447,4.180346 8.838351,4.206774 8.843085,4.227365 8.853154,4.298369 8.875801,4.494111 8.853236,4.654935 8.839054,4.706611 8.836639,4.734036 8.832192,4.740715 8.824394,4.789169 8.824335,4.790668 8.80809,4.868817 8.797913,4.912872 8.795108,4.919868 8.788385,4.94588 8.776133,4.963586 8.762593,4.9754 8.753638,4.997697 8.752621,5.006299 8.731864,5.040527 8.675557,5.134377 8.651715,5.173302 8.590173,5.213114 8.533424,5.260775 8.497614,5.297028 8.452239,5.36993 8.430104,5.404123 8.420743,5.415793 8.410477,5.42577 8.319932,5.503011 8.312698,5.508032 8.270503,5.522885 8.195469,5.557383 8.193525,5.559433 8.153051,5.583199 8.130112,5.600943 8.11283,5.607387 8.079624,5.607318 8.056569,5.615295 8.02841,5.627918 7.986074,5.625362 7.969186,5.62866 7.943214,5.623493 7.894282,5.586808 7.846142,5.533157 7.824953,5.5152 7.805188,5.461222 7.804623,5.459482 7.804296,5.458098 7.804451,5.457286 7.817193,5.393057 7.850421,5.327503 7.84879,5.313739 7.853737,5.247703 7.75692,5.25756 7.756618,5.257562 7.756375,5.257571 7.6878,5.239026 7.625767,5.222706 7.504975,5.174473 7.447911,5.143541 7.578434,5.071103 7.578943,5.07085 7.580429,5.07059 7.685876,5.060434 7.698213,5.059246 7.778898,5.054355 7.752978,4.871796 7.749861,4.807763 7.73256,4.574986 7.716782,4.424811 7.716843,4.36534 7.719223,4.3519 7.722032,4.306335 7.723393,4.296629 7.72544,4.282027 7.726104,4.277295 7.767807,3.979981 7.61733,3.953101 7.615149,3.952535 7.558334,3.937817 7.446521,3.874506 7.521288,3.79997 7.671803,3.769885 7.738682,3.754935 7.828394,3.748328 7.861304,3.660827 7.860915,3.635436 7.849071,3.601884 7.844649,3.555351 7.821182,3.533582 7.813727,3.50689 7.807404,3.454396 7.823615,3.398186 7.846347,3.378271 7.884798,3.339026 7.942927,3.288593 7.970239,3.28267 7.996106,3.280071" style="fill: white" /><polygon type="contour" points="3.779396,2.564349 3.800052,2.576111 3.830697,2.616028 3.832901,2.620073 3.837994,2.635724 3.873421,2.77075 3.865818,2.773032 3.854005,2.787852 3.780185,2.880446 3.933776,2.884971 3.972633,2.886932 3.981367,2.887372 4.071965,2.891943 4.253811,2.908919 4.274156,2.938313 4.248801,2.987286 4.135111,3.046738 4.111354,3.054422 4.058587,3.055958 3.787869,3.059874 3.757499,3.060314 3.643415,3.062573 3.628513,3.101797 3.62405,3.114123 3.613628,3.149684 3.527573,3.291383 3.491392,3.351727 3.477456,3.373075 3.466701,3.393556 3.457829,3.406169 3.450039,3.42357 3.426605,3.477881 3.386762,3.564521 3.377283,3.574158 3.357412,3.61339 3.31988,3.704469 3.314223,3.709412 3.300434,3.727543 3.281492,3.772898 3.253318,3.835108 3.216377,3.924359 3.214055,3.940181 3.206191,3.978204 3.199678,3.982675 3.1837,4.030781 3.150069,4.103099 3.120032,4.16179 3.112852,4.188949 3.0927,4.253434 3.094143,4.313774 3.10293,4.348075 3.152917,4.398721 3.167347,4.442701 3.167954,4.447575 3.163436,4.455536 3.129986,4.55169 3.107049,4.571354 3.098005,4.603608 3.095564,4.659993 3.105312,4.703148 3.189323,4.894877 3.201499,4.930421 3.204549,4.932786 3.211246,4.948242 3.211418,4.965258 3.214504,4.97301 3.216391,4.985035 3.278687,5.133897 3.299059,5.180359 3.309934,5.190643 3.316799,5.20337 3.329481,5.226546 3.332071,5.229103 3.35032,5.2753 3.366404,5.303428 3.368098,5.309492 3.468544,5.535572 3.498758,5.574831 3.567997,5.678117 3.613318,5.76383 3.652208,5.850664 4.069049,5.855634 4.081829,5.855788 4.102252,5.856323 4.108923,5.856676 4.134172,5.8648 4.248772,5.927065 4.274867,5.975808 4.253792,6.004264 4.065944,6.02 4.032341,6.016468 3.986835,6.020155 3.984191,6.020369 3.951474,6.023019 3.925339,6.025136 3.776226,6.032898 3.866457,6.141953 3.849433,6.207788 3.853934,6.209333 3.83345,6.29177 3.832523,6.293933 3.800219,6.335103 3.778755,6.34775 3.771967,6.350466 3.760354,6.350659 3.742492,6.346699 3.612114,6.309256 3.561642,6.290071 3.481329,6.250999 3.393163,6.201736 3.319717,6.147919 3.273511,6.115133 3.245137,6.086597 3.205228,6.063974 3.191043,6.053017 3.085838,5.953498 3.063466,5.93587 3.057628,5.92396 3.022089,5.893539 3.002415,5.887162 2.933585,5.822978 2.742364,5.65966 2.705551,5.629354 2.679772,5.599066 2.668917,5.56981 2.655503,5.551504 2.629693,5.532131 2.618889,5.527334 2.500185,5.482021 2.45704,5.463252 2.429437,5.455425 2.42679,5.45533 2.402822,5.446205 2.349411,5.408748 2.304367,5.409201 2.286805,5.415095 2.276307,5.413892 2.25836,5.422727 2.235405,5.422802 2.20298,5.428619 2.148645,5.437268 2.110943,5.442845 2.083963,5.439385 2.028136,5.450019 1.924237,5.450137 1.884993,5.447076 1.804778,5.425046 1.777712,5.414595 1.736975,5.400406 1.698421,5.371485 1.66382,5.352277 1.658438,5.349695 1.551371,5.29492 1.548483,5.293516 1.509085,5.274271 1.491554,5.271976 1.48019,5.262018 1.465911,5.262622 1.462674,5.259701 1.444139,5.252512 1.439146,5.249988 1.437746,5.249221 1.397051,5.221563 1.357819,5.183593 1.303915,5.132651 1.27176,5.077156 1.253118,5.009581 1.19597,4.892225 1.180261,4.884888 1.17006,4.86488 1.141087,4.850775 1.122783,4.846599 1.094795,4.846191 0.988611,4.819183 0.964077,4.812809 0.939838,4.797649 0.922487,4.77139 0.907563,4.728958 0.903848,4.719095 0.895083,4.699309 0.882648,4.673327 0.853702,4.63709 0.850355,4.636365 0.847002,4.614177 0.833538,4.520861 0.826429,4.480283 0.845631,4.309249 0.848584,4.295846 0.855269,4.266908 0.869996,4.261343 0.880778,4.239958 0.882794,4.237871 0.891571,4.220289 0.903917,4.192509 0.908583,4.179334 0.930943,4.125829 0.943206,4.110763 0.962614,4.099093 0.973,4.095075 1.024395,4.080454 1.041892,4.077483 1.091254,4.066664 1.122626,4.067203 1.166913,4.046168 1.178943,4.027783 1.196342,4.019205 1.215119,3.955832 1.253498,3.900538 1.309116,3.76334 1.309338,3.762737 1.309799,3.76221 1.309972,3.762085 1.365941,3.722875 1.385787,3.705256 1.433649,3.666366 1.458198,3.657412 1.462652,3.651918 1.472185,3.649257 1.484375,3.647017 1.49586,3.638637 1.509939,3.636954 1.597809,3.594567 1.620472,3.586155 1.692059,3.537826 1.692501,3.537019 1.693545,3.53687 1.777957,3.496638 1.790102,3.488453 1.825885,3.474226 1.829945,3.473138 1.879587,3.473402 2.089053,3.473024 2.11657,3.469164 2.162681,3.477539 2.253604,3.490356 2.257499,3.489768 2.260556,3.489795 2.26595,3.491887 2.28054,3.495035 2.297669,3.501405 2.354449,3.503804 2.418203,3.450999 2.523792,3.423996 2.535256,3.421569 2.601795,3.385029 2.651103,3.3657 2.664757,3.348388 2.681076,3.310555 2.703685,3.283225 2.795354,3.208974 2.880172,3.150415 2.949887,3.075653 3.018494,3.014842 3.033771,3.01036 3.055852,2.985128 3.05776,2.980524 3.105634,2.932485 3.159532,2.88554 3.244104,2.8169 3.26386,2.80235 3.277432,2.795633 3.29219,2.781199 3.323727,2.76152 3.396342,2.708506 3.468094,2.669764 3.579773,2.614612 3.697401,2.567465 3.719685,2.562846" style="fill: white" />
</svg>
