<svg width="13.600213" height="8.910821">
<polygon type="contour" points="9.243579,0.234549 9.254955,0.237421 9.297098,0.251357 9.311823,0.262487 9.317115,0.269657 9.327515,0.293788 9.343137,0.347041 9.357042,0.393428 9.432243,0.492077 9.471653,0.55094 9.47942,0.573941 9.508746,0.638776 9.512423,0.652645 9.51479,0.655845 9.516284,0.659921 9.537636,0.70901 9.541575,0.712771 9.560935,0.755266 9.614526,0.730961 9.622076,0.738428 9.633934,0.745957 9.655257,0.794551 9.657809,0.802888 9.669769,0.822603 9.673925,0.841335 9.688125,0.862536 9.702533,0.868439 9.742889,0.909259 9.753196,0.912756 9.759721,0.917007 9.778905,0.924769 9.865902,0.965929 9.87812,0.971554 9.942854,1.001307 9.972597,1.019578 9.981908,1.023372 9.990851,1.02478 10.007113,1.034971 10.016463,1.038042 10.068594,1.055788 10.091368,1.070904 10.134555,1.093851 10.175514,1.062891 10.205687,1.063155 10.203397,1.085441 10.224301,1.153181 10.301801,1.112073 10.33148,1.066276 10.401776,1.060115 10.422662,1.065961 10.424142,1.066135 10.427029,1.068174 10.456586,1.075001 10.460614,1.080435 10.496779,1.086553 10.547993,1.100676 10.558814,1.101304 10.594366,1.120749 10.636145,1.12778 10.686722,1.081965 10.68935,1.079377 10.68973,1.079225 10.689864,1.079195 10.893291,1.08009 10.924349,1.072947 11.036714,1.061409 11.080996,1.064936 11.125646,1.058042 11.244136,1.046375 11.325623,1.044316 11.345142,1.044034 11.393922,1.046342 11.427242,1.047013 11.502541,1.048367 11.50423,1.048762 11.505121,1.049874 11.524792,1.060025 11.527153,1.060831 11.542956,1.080441 11.563302,1.084161 11.574256,1.085677 11.57597,1.085911 11.631176,1.100215 11.687517,1.131303 11.710405,1.157519 11.742122,1.178889 11.750991,1.186279 11.759869,1.197563 11.772118,1.212245 11.79098,1.245775 11.935195,1.460965 12.027592,1.623893 12.083825,1.709561 12.106609,1.742168 12.13528,1.778448 12.172867,1.840423 12.203808,1.893926 12.328959,2.155587 12.35277,2.201693 12.366927,2.246459 12.408099,2.459666 12.410113,2.52373 12.465143,2.734252 12.498048,2.815962 12.525434,2.898044 12.553382,2.984735 12.586367,3.035201 12.674436,3.22834 12.689159,3.261378 12.724673,3.337247 12.752517,3.398455 12.760889,3.4094 12.762578,3.416083 12.779333,3.457062 12.912934,3.690193 12.956857,3.774751 13.023102,3.871658 13.053402,3.930119 13.110525,4.075766 13.128822,4.21739 13.134593,4.24324 13.136053,4.281647 13.140924,4.53008 13.139869,4.558618 13.135096,4.586466 13.110517,4.836619 13.066161,4.960885 13.017483,5.053773 12.934517,5.179767 12.906582,5.231309 12.825949,5.397933 12.714593,5.5992 12.664453,5.687439 12.592495,5.8221 12.56442,5.908652 12.517232,5.995769 12.480432,6.160112 12.417502,6.377895 12.414023,6.395464 12.389757,6.558414 12.371022,6.635152 12.348409,6.724537 12.284353,6.864754 12.264288,6.897367 12.261484,6.906209 12.256287,6.912212 12.255827,6.91654 12.249537,6.926108 12.247668,6.932688 12.224672,6.96711 12.162363,7.088763 12.12235,7.153255 12.046074,7.280385 11.974718,7.390424 11.927902,7.478822 11.775356,7.70147 11.741531,7.733495 11.691573,7.76793 11.674342,7.785547 11.664076,7.789281 11.577304,7.825148 11.575406,7.825684 11.575127,7.825722 11.566451,7.826951 11.542961,7.83117 11.527154,7.850787 11.52479,7.851594 11.52308,7.853492 11.503279,7.86202 11.498357,7.863221 11.490782,7.862164 11.425408,7.8652 11.371151,7.866462 11.355198,7.866986 11.34012,7.867788 11.332608,7.867384 11.317048,7.867482 11.215634,7.86489 11.098287,7.853697 11.05591,7.851056 11.039141,7.850185 10.865842,7.82432 10.722053,7.833354 10.690856,7.832609 10.682628,7.825195 10.631175,7.779389 10.584757,7.804138 10.513139,7.823825 10.406432,7.848122 10.394816,7.857266 10.389086,7.85681 10.360872,7.833357 10.30899,7.805848 10.255679,7.776333 10.206556,7.78936 10.179433,7.803613 10.096728,7.836565 10.084471,7.842612 10.063185,7.856806 9.997958,7.880536 9.986811,7.887501 9.978113,7.888699 9.957712,7.901659 9.885365,7.935071 9.799434,7.979532 9.736638,8.014971 9.707422,8.028981 9.687574,8.048655 9.680002,8.075087 9.678993,8.076437 9.668298,8.089388 9.657614,8.096509 9.647659,8.128235 9.626354,8.1774 9.608614,8.177559 9.555954,8.169818 9.516231,8.251738 9.514903,8.255365 9.512831,8.258151 9.509776,8.269011 9.463198,8.371805 9.43234,8.42835 9.424449,8.43512 9.411396,8.444672 9.376454,8.497844 9.33814,8.564783 9.327815,8.617214 9.317136,8.641767 9.31235,8.6486 9.28479,8.667095 9.270913,8.670933 9.164556,8.674323 9.158713,8.6749 9.117217,8.660994 8.904714,8.585661 8.836882,8.529701 8.803704,8.502109 8.802381,8.501195 8.801142,8.499731 8.721332,8.431001 8.698992,8.413065 8.683879,8.386204 8.668132,8.352409 8.588498,8.310333 8.567061,8.293374 8.271902,8.235104 8.242752,8.24921 8.141739,8.283181 8.133257,8.289522 8.118411,8.29542 8.104202,8.305692 8.093605,8.309152 8.071648,8.315951 8.029195,8.335954 7.937048,8.354305 7.911909,8.352399 7.847457,8.359761 7.794333,8.363438 7.564091,8.424545 7.54936,8.425368 7.465592,8.413646 7.411262,8.394896 7.385852,8.383386 7.236582,8.362147 7.181711,8.3466 7.161156,8.346328 7.128877,8.309017 7.043845,8.303466 6.903151,8.278753 6.888755,8.277497 6.884192,8.271092 6.734599,8.228833 6.608468,8.190495 6.529113,8.18535 6.479092,8.143291 6.428818,8.124198 6.40538,8.107704 6.386195,8.113281 6.384321,8.111529 6.361249,8.101255 6.254421,8.073158 6.234053,8.069782 6.121784,8.017492 6.113283,8.001457 6.092321,7.994249 6.068202,7.972183 6.018569,7.917841 6.000833,7.916849 5.938334,7.90142 5.915486,7.921896 5.911403,7.922592 5.892565,7.942478 5.888554,7.94772 5.8837,7.95449 5.870798,7.962268 5.869077,7.963232 5.868662,7.963465 5.867082,7.963475 5.667831,7.959005 5.663173,7.957015 5.615183,7.925699 5.580071,7.961283 5.549112,7.991608 5.356669,8.164545 5.336357,8.176144 5.307514,8.184147 5.299791,8.180853 5.281126,8.131663 5.267899,8.12299 5.256122,7.940648 5.250072,7.903846 5.250634,7.891136 5.254615,7.792482 5.227145,7.551796 5.149366,7.487795 5.142198,7.488184 5.130292,7.482537 5.114162,7.479569 5.096925,7.470329 4.989508,7.419787 4.970196,7.413992 4.938508,7.415446 4.876909,7.381364 4.819083,7.33641 4.802225,7.324948 4.755299,7.283739 4.710409,7.242966 4.705022,7.220337 4.686316,7.208087 4.664931,7.191296 4.641498,7.173445 4.639301,7.1729 4.632742,7.165427 4.626921,7.159439 4.617181,7.149651 4.553782,7.086063 4.538804,7.063536 4.419107,6.927851 4.329389,6.829926 4.288042,6.780147 4.269926,6.761057 4.212727,6.682603 4.155704,6.596025 4.135025,6.570915 4.130018,6.562817 4.10661,6.535943 4.064087,6.48135 4.006472,6.412148 3.978027,6.382001 3.956492,6.34861 3.943592,6.305493 3.926869,6.293816 3.901423,6.262248 3.841038,6.164665 3.76464,6.007807 3.750008,5.974634 3.733922,5.964769 3.704756,5.926534 3.689672,5.913097 3.671005,5.906458 3.667506,5.903125 3.63369,5.864348 3.582626,5.794439 3.576029,5.783231 3.57134,5.77109 3.554392,5.750901 3.548684,5.702598 3.387373,5.655131 3.314786,5.615781 3.232472,5.598776 3.104691,5.584301 2.989678,5.572931 2.835909,5.544773 2.806557,5.528243 2.791761,5.518163 2.777473,5.499594 2.770571,5.473592 2.772667,5.438932 2.786634,5.401777 2.812954,5.366438 2.91088,5.274203 3.084182,5.151449 3.103441,5.138835 3.124208,5.125602 3.167346,5.061077 3.186493,5.034854 3.186077,4.986604 3.168289,4.96421 3.16294,4.95889 3.160973,4.95296 3.151737,4.931515 3.156421,4.874563 3.166272,4.780101 3.190777,4.684401 3.194469,4.640278 3.209993,4.614286 3.209524,4.520513 3.208037,4.479851 3.206272,4.475649 3.209253,4.369487 3.212219,4.356008 3.211006,4.310331 3.206506,4.297063 3.193571,4.269313 3.177191,4.145763 3.160574,4.013649 3.152814,3.982414 3.152014,3.979215 3.159968,3.971508 3.161292,3.954164 3.167655,3.947902 3.186576,3.924487 3.188492,3.893033 3.182034,3.855598 3.156969,3.811184 3.118941,3.779593 3.032148,3.728578 2.875669,3.608697 2.820119,3.539078 2.795485,3.516685 2.776747,3.493322 2.773604,3.474961 2.770606,3.438427 2.782572,3.407896 2.799462,3.38582 2.828066,3.369991 2.918536,3.347969 3.000395,3.345067 3.152488,3.324487 3.256934,3.294343 3.428436,3.267791 3.507981,3.228173 3.515573,3.223256 3.536364,3.210594 3.564087,3.165505 3.564532,3.152841 3.583237,3.116783 3.653403,3.024572 3.684223,3.001098 3.736984,2.960341 3.749688,2.940879 3.758872,2.926911 3.771227,2.910307 3.780046,2.892813 3.790595,2.857193 3.830433,2.787192 3.900875,2.650714 3.917553,2.623734 3.932939,2.612954 3.950635,2.56896 3.974015,2.540713 3.990331,2.520812 4.063749,2.430746 4.088721,2.402065 4.139549,2.322255 4.143463,2.315588 4.149854,2.307746 4.220805,2.230972 4.245896,2.196711 4.379843,2.021677 4.400646,1.99639 4.420482,1.972288 4.556264,1.826874 4.57336,1.817305 4.605073,1.773831 4.635463,1.750942 4.645097,1.7346 4.676337,1.713402 4.676774,1.712819 4.677927,1.71244 4.78232,1.605062 4.836453,1.567187 4.853948,1.558584 4.877867,1.542181 4.905576,1.519787 4.934464,1.496801 4.974208,1.496849 4.988469,1.493406 5.071762,1.450202 5.112072,1.429381 5.125503,1.427947 5.141349,1.422871 5.159082,1.41893 5.209368,1.379242 5.237257,1.335164 5.254678,1.103439 5.252908,1.036587 5.250819,1.019943 5.251373,1.007421 5.255256,0.976619 5.274316,0.775141 5.286856,0.737859 5.299399,0.723533 5.308664,0.720297 5.317078,0.721402 5.332615,0.72816 5.54345,0.913635 5.623378,0.993689 5.662613,0.953421 5.66827,0.952958 5.866025,0.949849 5.87424,0.949382 5.87516,0.950231 5.878031,0.95174 5.900357,0.97121 5.935189,1.004702 5.961086,0.999771 6.026075,0.988237 6.062075,0.946066 6.097192,0.914013 6.115414,0.907733 6.124505,0.895816 6.156532,0.877512 6.240275,0.838275 6.341466,0.810455 6.346087,0.809757 6.373593,0.806816 6.385256,0.80029 6.402246,0.801036 6.418065,0.792528 6.425369,0.791463 6.43487,0.785757 6.474182,0.778251 6.544432,0.73289 6.573961,0.720765 6.726781,0.682893 6.804074,0.670412 6.826014,0.669826 6.836686,0.660043 6.898893,0.624967 6.914817,0.620438 6.918367,0.614321 6.936676,0.612325 6.946332,0.609753 6.981595,0.604234 7.149685,0.585448 7.177323,0.562356 7.204636,0.550196 7.216059,0.546314 7.267519,0.546672 7.287914,0.550102 7.356096,0.525664 7.452407,0.511301 7.471824,0.501137 7.48901,0.498578 7.519116,0.504683 7.535305,0.502733 7.54211,0.502472 7.651948,0.50919 7.732679,0.529465 7.741883,0.533217 7.764153,0.534825 7.846182,0.54844 7.895861,0.554195 7.985922,0.566738 8.082612,0.599787 8.096108,0.604027 8.105329,0.608177 8.127491,0.616361 8.181064,0.638806 8.199282,0.662223 8.221605,0.666704 8.236898,0.667889 8.273527,0.671909 8.287034,0.676361 8.318257,0.668253 8.35073,0.660906 8.376732,0.648706 8.567062,0.618247 8.576981,0.610149 8.604938,0.591777 8.664501,0.559446 8.673235,0.542002 8.709634,0.491963 8.72238,0.479907 8.736491,0.469915 8.779002,0.436924 8.863926,0.349058 8.876385,0.344469 8.889951,0.331487 8.953055,0.299242 8.995226,0.287321 9.065178,0.261944 9.087071,0.256502 9.154054,0.236245 9.2399,0.234324 9.242597,0.234314" style="fill: white" />
</svg>
