<svg width="13.600213" height="8.910821">
<polygon type="contour" points="8.18355,3.849437 8.211142,3.863153 8.238462,3.898528 8.285207,3.962492 8.319106,4.004026 8.337837,4.090981 8.369609,4.12282 8.37875,4.135247 8.407849,4.173567 8.420145,4.195295 8.449744,4.293529 8.450299,4.298443 8.445457,4.313717 8.44827,4.444588 8.443725,4.537117 8.442886,4.566453 8.443862,4.570318 8.438516,4.612459 8.421621,4.699221 8.353805,4.797379 8.330893,4.816575 8.323051,4.853237 8.305801,4.937016 8.225926,5.040647 8.201863,5.055425 8.172181,5.069732 8.140836,5.061887 8.086662,5.04974 8.052928,5.009885 7.983079,4.937043 7.905129,4.850833 7.894979,4.837611 7.896769,4.828657 7.896725,4.819683 7.905298,4.796415 7.905777,4.781441 7.912369,4.763973 7.90445,4.687002 7.902024,4.633771 7.903323,4.590962 7.919048,4.467114 7.923177,4.442226 7.909438,4.372696 7.907782,4.336092 7.831861,4.320339 7.809204,4.366728 7.80573,4.374343 7.798077,4.377686 7.674063,4.388149 7.653397,4.377825 7.606856,4.373099 7.52345,4.339754 7.431904,4.29844 7.397009,4.229816 7.390967,4.204689 7.393048,4.189989 7.419362,4.182589 7.435903,4.181922 7.558809,4.169713 7.600754,4.171508 7.709243,4.196083 7.770327,4.225109 7.804299,4.239883 7.827531,4.294138 7.90671,4.278618 7.90802,4.203601 7.915107,4.149424 7.906005,4.125495 7.896296,4.090489 7.894976,4.0786 7.90723,4.055185 7.909898,4.048972 7.914209,4.044871 7.914748,4.042256 7.922614,4.03362 7.986783,3.979744 8.053766,3.901079 8.072448,3.873175 8.088736,3.860312 8.113558,3.854751 8.135382,3.850195 8.162196,3.844413" style="fill: white" /><polygon type="contour" points="7.697622,4.683287 7.702963,4.684089 7.779946,4.709405 7.793744,4.734594 7.756039,4.775709 7.697922,4.820463 7.581959,4.84849 7.547009,4.850379 7.456753,4.838274 7.460264,4.796811 7.473026,4.767002 7.510159,4.737698 7.580539,4.709877 7.688822,4.684263 7.695897,4.683168" style="fill: white" /><polygon type="contour" points="3.60686,2.789818 3.674078,2.794483 3.674222,2.794601 3.691494,2.803306 3.706774,2.828451 3.715563,2.849241 3.723037,2.86857 3.728206,2.89401 3.72942,2.915152 3.730855,2.924594 3.736967,2.964806 3.758779,3.108315 3.806119,3.10899 3.826094,3.115689 3.868821,3.130018 3.891603,3.133506 3.897752,3.135875 3.912457,3.138 3.933375,3.153929 4.053651,3.161212 4.057966,3.161474 4.059501,3.161913 4.071374,3.165318 4.087021,3.169804 4.139486,3.159555 4.180828,3.160374 4.252999,3.190384 4.304147,3.197988 4.306396,3.224985 4.209359,3.269213 4.188727,3.275883 3.78046,3.292231 3.674918,3.295557 3.61968,3.351416 3.557856,3.413939 3.555051,3.416802 3.512251,3.462088 3.478435,3.482146 3.437359,3.520786 3.361022,3.668425 3.339678,3.700985 3.333401,3.713334 3.308226,3.783955 3.295598,3.81354 3.203256,4.047993 3.199985,4.061131 3.176241,4.125324 3.1559,4.211746 3.125529,4.320644 3.1216,4.360573 3.128249,4.410253 3.119893,4.473989 3.120857,4.543506 3.138337,4.65935 3.158002,4.728974 3.230896,4.927728 3.245405,4.981989 3.256533,5.011322 3.298414,5.103358 3.358347,5.256625 3.385452,5.306013 3.437992,5.391763 3.487298,5.433033 3.626765,5.578741 3.66802,5.617172 3.730964,5.61807 4.163425,5.633729 4.169724,5.633958 4.184452,5.634287 4.189466,5.634515 4.206196,5.640044 4.307905,5.689895 4.305121,5.716639 4.253465,5.723489 4.176894,5.753456 4.174924,5.753426 4.171409,5.753915 3.926479,5.762751 3.912196,5.77418 3.910273,5.77572 3.817432,5.794252 3.765905,5.804453 3.746288,5.912626 3.726606,6.021146 3.723141,6.035998 3.719732,6.064409 3.709041,6.080525 3.67545,6.117198 3.627047,6.121005 3.599488,6.122735 3.59676,6.122601 3.480778,6.058307 3.396106,6.004498 3.378542,5.989336 3.365401,5.981219 3.280965,5.9554 3.277407,5.953411 3.268724,5.950847 3.17451,5.897104 3.141854,5.868786 3.122331,5.854274 3.106486,5.836884 2.977667,5.720129 2.955329,5.701679 2.773188,5.627133 2.771447,5.626366 2.76747,5.622877 2.661538,5.519245 2.620679,5.500002 2.55098,5.485868 2.549037,5.485487 2.546715,5.483993 2.528455,5.475294 2.476753,5.482329 2.449379,5.486903 2.330384,5.457704 2.298095,5.449695 2.268887,5.436145 2.221128,5.42397 1.967076,5.34721 1.921037,5.348986 1.908253,5.34731 1.905826,5.347368 1.86548,5.340532 1.841678,5.333379 1.834659,5.330891 1.829205,5.328093 1.766969,5.289343 1.746242,5.270292 1.708269,5.220553 1.671006,5.175468 1.648181,5.137661 1.639289,5.131506 1.625685,5.109265 1.587465,5.058466 1.578352,5.040409 1.552484,5.024332 1.551031,5.023131 1.550617,5.022785 1.533073,5.000405 1.525187,4.99399 1.508775,4.971115 1.481948,4.952722 1.467896,4.937316 1.451229,4.919761 1.439843,4.90188 1.432344,4.884839 1.40808,4.866852 1.360116,4.855834 1.278653,4.835702 1.191064,4.78942 1.189368,4.788752 1.181504,4.775556 1.177972,4.768363 1.169931,4.758747 1.16524,4.717691 1.157719,4.692322 1.151952,4.680335 1.151469,4.669726 1.122671,4.62482 1.110967,4.592686 1.088204,4.536002 1.088025,4.441503 1.089035,4.377369 1.110015,4.336783 1.130062,4.259141 1.150636,4.241661 1.160299,4.216623 1.163723,4.180661 1.170736,4.154995 1.175582,4.143446 1.203337,4.109669 1.206628,4.105981 1.206898,4.105771 1.208313,4.105145 1.363052,4.062663 1.406047,4.041653 1.419873,4.037245 1.446707,3.996394 1.461012,3.978169 1.471249,3.968551 1.501991,3.945842 1.519174,3.929207 1.530583,3.912456 1.541832,3.902655 1.550772,3.888704 1.551137,3.888391 1.566766,3.88174 1.576795,3.869175 1.580582,3.86685 1.612049,3.829667 1.642253,3.775075 1.652202,3.767652 1.67914,3.733207 1.765804,3.639297 1.788279,3.61618 1.828602,3.584291 1.83309,3.581643 1.839417,3.5794 1.878853,3.568015 1.906182,3.563746 1.925944,3.561513 1.955457,3.560576 2.017479,3.562924 2.044266,3.548586 2.173565,3.500977 2.201755,3.491707 2.279544,3.469911 2.308588,3.451093 2.317976,3.451627 2.332077,3.4414 2.349126,3.438102 2.427499,3.429347 2.513364,3.4346 2.526904,3.435106 2.543106,3.429183 2.546392,3.427233 2.589231,3.417674 2.627121,3.409834 2.674819,3.389989 2.695923,3.375544 2.703807,3.353235 2.708707,3.345374 2.753956,3.300672 2.770794,3.285031 2.771785,3.284579 2.957566,3.208304 2.978108,3.191301 3.042178,3.1412 3.10573,3.075682 3.115432,3.065122 3.176191,3.012662 3.240204,2.984946 3.254261,2.975404 3.288361,2.955678 3.311502,2.945019 3.319942,2.941325 3.324752,2.940748 3.334357,2.936665 3.361765,2.920832 3.377148,2.916736 3.435419,2.893484 3.599765,2.78938" style="fill: white" />
</svg>
