<svg width="13.600213" height="8.910821">
<polygon type="contour" points="4.510646,0.797706 4.576385,0.813701 4.578912,0.814876 4.602661,0.835136 4.613572,0.84967 4.629037,0.878567 4.634679,0.892926 4.636114,0.947129 4.630143,1.005748 4.701871,1.05769 4.743834,1.059446 4.780471,1.052837 4.80627,1.033276 4.816253,1.01948 4.82954,1.007782 4.833911,0.947589 4.834459,0.939185 4.843457,0.917662 4.85529,0.894494 4.875567,0.8791 4.888317,0.872969 4.894033,0.874036 4.926482,0.8741 4.999755,0.889114 5.042182,0.888805 5.06138,0.884686 5.071284,0.88388 5.109423,0.886024 5.119213,0.885474 5.151433,0.889622 5.171351,0.893614 5.186602,0.898952 5.196546,0.903603 5.210974,0.907547 5.213677,0.912974 5.230226,0.918118 5.231618,0.919687 5.240436,0.922369 5.254289,0.931879 5.262493,0.943808 5.276867,0.951272 5.280408,0.953619 5.282012,0.955223 5.292842,0.976696 5.309155,1.00553 5.349866,1.005091 5.415034,1.010166 5.677552,1.014527 5.735826,1.01577 5.861117,1.029384 5.882227,1.033232 5.891285,1.03446 5.908947,1.039455 5.947628,1.049941 5.988115,1.066491 5.997216,1.064017 6.001061,1.065031 6.006584,1.064995 6.015542,1.066171 6.032532,1.067905 6.106805,1.077671 6.212557,1.095576 6.238378,1.094911 6.254365,1.094819 6.282092,1.099723 6.295321,1.104362 6.305015,1.104493 6.377047,1.125683 6.3848,1.127616 6.386324,1.12813 6.62212,1.202237 6.68489,1.242674 6.752509,1.280075 6.812126,1.323414 6.878019,1.359407 6.89938,1.375665 6.920929,1.410907 7.002013,1.484614 7.036432,1.529785 7.040723,1.543985 7.052572,1.554797 7.066876,1.587926 7.10792,1.657975 7.121559,1.697569 7.166829,1.798581 7.215602,1.887348 7.270701,1.977055 7.366768,2.112308 7.415787,2.185152 7.422385,2.195783 7.456529,2.231521 7.461576,2.241775 7.469358,2.262525 7.472374,2.265712 7.482641,2.285304 7.520152,2.319196 7.667144,2.449847 7.718946,2.496611 7.771615,2.529002 7.824489,2.564964 7.835568,2.57379 7.854681,2.584744 7.864365,2.587321 7.873569,2.592317 7.883083,2.599861 7.926514,2.640255 7.956833,2.677306 8.013366,2.703148 8.033309,2.719548 8.042218,2.731713 8.051681,2.74996 8.06425,2.757713 8.073589,2.764788 8.099865,2.768685 8.139942,2.775688 8.176185,2.79927 8.223615,2.849304 8.264354,2.880519 8.269663,2.887548 8.276134,2.894631 8.344772,3.015117 8.370631,3.01484 8.371837,3.015029 8.434679,3.039276 8.477333,3.060499 8.490236,3.068046 8.497908,3.07803 8.517048,3.092728 8.530839,3.107291 8.540419,3.11382 8.578589,3.140846 8.597469,3.152309 8.606844,3.160778 8.615097,3.174835 8.625574,3.190757 8.631774,3.201808 8.661591,3.221065 8.674968,3.229674 8.680213,3.236478 8.697054,3.245968 8.698184,3.248265 8.711585,3.254569 8.718856,3.259453 8.720333,3.260291 8.73258,3.276646 8.73734,3.277636 8.741116,3.28151 8.76983,3.328315 8.771028,3.331701 8.776006,3.339156 8.779072,3.343504 8.786679,3.352989 8.849949,3.428292 8.869995,3.456018 8.883049,3.473635 8.970223,3.6048 8.971826,3.60805 9.038958,3.703111 9.042852,3.712027 9.044226,3.716595 9.063602,3.752621 9.117872,3.915883 9.130878,3.959216 9.132777,3.978365 9.159822,4.074364 9.158608,4.101602 9.172004,4.231087 9.186552,4.272462 9.182795,4.440325 9.182167,4.496764 9.18189,4.514447 9.187801,4.679695 9.178313,4.729849 9.174266,4.741214 9.132093,4.921414 9.117995,4.987886 9.111289,5.017625 9.101117,5.036927 9.096542,5.063411 9.093337,5.072388 9.073403,5.131697 9.052441,5.181867 9.046166,5.190067 8.987268,5.263415 8.977217,5.286441 8.96612,5.301357 8.961435,5.312057 8.840353,5.495466 8.836153,5.501145 8.821193,5.520148 8.759882,5.599925 8.72962,5.64248 8.720665,5.651235 8.701979,5.658537 8.684464,5.677849 8.645218,5.703526 8.636098,5.7189 8.624557,5.729443 8.588485,5.772729 8.540592,5.79557 8.497752,5.832765 8.491219,5.841003 8.478957,5.850021 8.441401,5.868275 8.380125,5.894912 8.371803,5.896176 8.348097,5.896502 8.318871,5.941294 8.303172,5.96555 8.292283,5.972611 8.280805,6.011947 8.276095,6.016616 8.273128,6.020418 8.26817,6.026985 8.225682,6.073961 8.193513,6.09471 8.164365,6.112756 8.133112,6.142843 8.131431,6.143643 8.060515,6.148756 8.04207,6.180287 8.031557,6.193756 7.963618,6.242931 7.950224,6.252508 7.869288,6.316987 7.824354,6.347942 7.822069,6.349921 7.812141,6.356162 7.712307,6.418772 7.689564,6.444493 7.520931,6.603652 7.499237,6.616336 7.492763,6.62044 7.486986,6.624505 7.466608,6.646466 7.459883,6.674906 7.456293,6.681815 7.38467,6.755638 7.374123,6.766221 7.298814,6.885792 7.260376,6.940805 7.224209,6.998436 7.185689,7.072553 7.120711,7.230529 7.078036,7.309848 7.053098,7.369172 7.02861,7.394872 6.949157,7.492279 6.813746,7.598655 6.783091,7.623794 6.765415,7.636095 6.726724,7.655605 6.509372,7.752646 6.390738,7.791741 6.295763,7.808874 6.243959,7.814269 6.229959,7.814656 6.209972,7.817676 6.197672,7.81696 5.985275,7.840915 5.930512,7.865363 5.910916,7.871815 5.902176,7.873283 5.894704,7.876611 5.873145,7.879832 5.853757,7.883381 5.679398,7.897174 5.621471,7.901777 5.593904,7.896856 5.421792,7.9029 5.308669,7.903582 5.285847,7.950108 5.283189,7.952946 5.236185,7.989837 5.231213,7.992381 5.227686,7.996532 5.220184,7.999754 5.201885,8.006424 5.16806,8.017498 5.163823,8.018017 5.127669,8.02351 5.07159,8.028049 5.062295,8.027112 5.036232,8.020579 5.028934,8.022166 5.006924,8.021775 4.987183,8.028662 4.959411,8.031595 4.930536,8.039001 4.893342,8.038771 4.889869,8.039227 4.88108,8.034702 4.853078,8.011338 4.848216,7.99728 4.834496,7.973868 4.834044,7.964676 4.833782,7.962451 4.829176,7.904388 4.80433,7.876585 4.797732,7.87422 4.780809,7.859958 4.768816,7.856687 4.741821,7.850739 4.714647,7.853554 4.657604,7.870184 4.643209,7.903352 4.616742,8.055568 4.614468,8.060862 4.613632,8.061984 4.606731,8.068915 4.603244,8.075268 4.590891,8.088038 4.579087,8.096589 4.501852,8.11413 4.440454,8.122403 4.384879,8.120439 4.297425,8.116634 4.239588,8.108963 4.236716,8.107572 4.156376,8.07515 4.120673,8.053596 4.052172,8.003759 4.037506,7.993925 4.027543,7.971113 4.0065,7.951949 4.001736,7.946952 3.99276,7.931354 3.985208,7.911544 3.971152,7.878053 3.907501,7.826101 3.881082,7.82195 3.859247,7.824184 3.848081,7.818295 3.839299,7.816604 3.836098,7.814741 3.780088,7.766384 3.697172,7.674882 3.680136,7.65777 3.677076,7.646524 3.657146,7.611398 3.608824,7.611329 3.603218,7.609603 3.586281,7.598736 3.577071,7.585303 3.571694,7.577021 3.547164,7.557522 3.537634,7.550591 3.534666,7.549183 3.499548,7.502441 3.466296,7.466796 3.423381,7.413138 3.398836,7.392319 3.378002,7.372052 3.363699,7.347292 3.344446,7.341738 3.316371,7.331135 3.309595,7.3221 3.247052,7.288651 3.205924,7.263354 3.061443,7.209938 3.017354,7.218074 2.970507,7.221065 2.928021,7.220596 2.793988,7.231129 2.732975,7.232745 2.70216,7.236834 2.658111,7.241719 2.62662,7.250665 2.613547,7.272822 2.610756,7.277877 2.609074,7.279533 2.602425,7.284755 2.553626,7.329577 2.537883,7.343074 2.528602,7.352149 2.469708,7.353378 2.457228,7.353385 2.454155,7.352064 2.374236,7.305846 2.361528,7.292356 2.342355,7.275643 2.338197,7.266025 2.27553,7.195893 2.226605,7.168451 2.141405,7.161847 2.097617,7.11059 2.060669,7.176284 2.059246,7.178808 2.058195,7.179521 2.042034,7.199708 2.010191,7.212026 1.987558,7.217136 1.961785,7.225502 1.801035,7.264385 1.789528,7.307207 1.789468,7.307867 1.77906,7.344153 1.778088,7.348456 1.774769,7.360116 1.767572,7.366176 1.737948,7.375438 1.726537,7.384705 1.714138,7.38823 1.686811,7.395095 1.579045,7.44937 1.501342,7.486271 1.499043,7.486638 1.484169,7.483421 1.437239,7.467019 1.405527,7.519922 1.396185,7.522708 1.266717,7.555487 1.236325,7.55878 1.222987,7.558251 1.138866,7.547762 1.08171,7.548909 1.045369,7.55053 0.932282,7.54472 0.800229,7.53653 0.754173,7.569152 0.723953,7.574734 0.653918,7.593785 0.648379,7.594597 0.620169,7.592454 0.591225,7.596238 0.584717,7.597609 0.49431,7.611323 0.465191,7.641595 0.462804,7.640515 0.446414,7.653723 0.441512,7.652114 0.432543,7.64728 0.368373,7.602365 0.344712,7.583301 0.315523,7.530145 0.26574,7.405206 0.243612,7.343383 0.214131,7.269017 0.211683,7.255163 0.210736,7.237155 0.2159,7.022194 0.235608,6.916989 0.283081,6.678018 0.28039,6.604296 0.285817,6.576156 0.310877,6.490424 0.309859,6.458529 0.303936,6.340214 0.309309,6.205434 0.306449,5.999958 0.30886,5.972685 0.320842,5.857535 0.318002,5.844921 0.322959,5.802223 0.365114,5.601635 0.377792,5.471821 0.415515,5.354861 0.418555,5.330954 0.420076,5.303204 0.41635,5.271299 0.402343,5.247635 0.402331,5.243879 0.386447,5.200212 0.37626,5.191143 0.366145,5.179491 0.357865,5.14051 0.34644,5.069804 0.325926,4.87458 0.33109,4.76439 0.33221,4.75473 0.333515,4.750249 0.340562,4.744568 0.353501,4.71513 0.354666,4.713641 0.357016,4.709061 0.40062,4.654733 0.400824,4.601373 0.402949,4.38091 0.40161,4.277922 0.401671,4.272291 0.393576,4.232544 0.348505,4.194163 0.340865,4.182604 0.329394,4.109888 0.327015,4.056606 0.337797,3.824551 0.338188,3.797262 0.344669,3.778395 0.358774,3.762521 0.362229,3.740132 0.400537,3.665291 0.404567,3.659515 0.415473,3.638625 0.419902,3.606971 0.413052,3.549201 0.388385,3.460486 0.387821,3.446935 0.327688,3.12924 0.317767,3.066529 0.321127,3.051372 0.307852,2.896413 0.309802,2.695451 0.314264,2.454747 0.299902,2.382205 0.283489,2.323526 0.281795,2.315026 0.280357,2.306937 0.284274,2.240135 0.247389,2.054124 0.235998,2.026868 0.210124,1.868043 0.209322,1.678138 0.21164,1.656494 0.216256,1.64156 0.249012,1.539658 0.291399,1.411443 0.307258,1.389766 0.366885,1.308303 0.372973,1.301856 0.395648,1.282921 0.425136,1.265696 0.445604,1.257083 0.445945,1.256944 0.446058,1.256923 0.446435,1.256904 0.465188,1.270021 0.467783,1.273775 0.490518,1.297417 0.511275,1.305333 0.55553,1.312948 0.571766,1.314843 0.596952,1.315768 0.630823,1.318004 0.632661,1.317586 0.633389,1.317937 0.65809,1.31836 0.674634,1.326782 0.733332,1.338645 0.738561,1.340663 0.774143,1.354127 0.800474,1.374762 1.065216,1.362505 1.082733,1.359947 1.109473,1.359924 1.118224,1.360011 1.135289,1.364103 1.144152,1.362362 1.237006,1.359367 1.261644,1.357655 1.266941,1.357625 1.279297,1.357891 1.287265,1.35866 1.344693,1.368363 1.357838,1.371863 1.363007,1.373145 1.381532,1.378873 1.3894,1.382308 1.393936,1.389232 1.408564,1.396046 1.431253,1.43547 1.469179,1.432639 1.484218,1.428167 1.503885,1.42573 1.578891,1.462069 1.687815,1.517306 1.774767,1.551503 1.778087,1.563162 1.780197,1.568203 1.789471,1.603758 1.789488,1.604253 1.798974,1.642097 1.891601,1.668548 2.045853,1.711831 2.048839,1.714071 2.085289,1.799057 2.142051,1.750122 2.169198,1.747756 2.225475,1.740653 2.254776,1.731126 2.336104,1.649517 2.342848,1.635261 2.36087,1.618825 2.365444,1.613135 2.399774,1.59875 2.444719,1.570508 2.470967,1.557989 2.480184,1.553667 2.50975,1.555235 2.528046,1.559506 2.552752,1.581422 2.553058,1.581474 2.586636,1.615398 2.589245,1.618584 2.607217,1.63218 2.6131,1.637218 2.62754,1.655311 2.683155,1.67205 2.720511,1.675622 2.726841,1.678679 2.762873,1.67774 2.903247,1.684681 3.00262,1.691906 3.013392,1.690982 3.05152,1.695186 3.103705,1.686797 3.114926,1.679956 3.178531,1.658978 3.210406,1.642332 3.283556,1.603863 3.298076,1.594795 3.309649,1.589391 3.316503,1.580151 3.366357,1.550936 3.374682,1.544014 3.431455,1.489492 3.475355,1.428945 3.484583,1.419006 3.526006,1.375515 3.561877,1.344798 3.57927,1.323111 3.588104,1.311186 3.603644,1.3015 3.609513,1.300416 3.664367,1.302053 3.674292,1.267308 3.681563,1.256472 3.685255,1.243381 3.69825,1.227137 3.757504,1.160031 3.768559,1.150855 3.777884,1.140848 3.795,1.133799 3.809029,1.117365 3.837583,1.095939 3.851809,1.093712 3.870622,1.092429 3.875039,1.08904 3.909864,1.086597 3.923606,1.074418 3.971317,1.033151 3.976864,1.014375 3.983364,1.005545 3.994695,0.97775 4.000453,0.96755 4.003576,0.964258 4.005391,0.961527 4.029058,0.934918 4.032024,0.929576 4.041061,0.921515 4.078876,0.891922 4.15902,0.848625 4.18329,0.830901 4.188204,0.830361 4.209836,0.820307 4.239507,0.81138 4.259032,0.80549 4.34959,0.78313 4.384817,0.780589" style="fill: white" /><polygon type="hole" points="4.615652,2.332041 4.561564,2.358188 4.356105,2.44565 4.289349,2.46527 4.135659,2.488439 4.00086,2.555141 3.979523,2.563884 3.973951,2.565918 3.967618,2.569908 3.943305,2.573918 3.83568,2.58585 3.813962,2.600748 3.738402,2.673808 3.429691,3.011703 3.399144,3.041986 3.325214,3.105457 3.248361,3.19344 3.219461,3.265196 3.165006,3.374094 3.079962,3.506358 3.048718,3.575238 3.014579,3.689482 2.973208,3.942331 2.960518,3.991563 2.958528,4.030943 2.969655,4.049878 2.968145,4.060642 2.936887,4.10111 2.916747,4.152213 2.920971,4.228198 2.935699,4.312969 2.94715,4.329506 2.934099,4.373 2.922103,4.448188 2.909316,4.558697 2.911035,4.625068 2.90587,4.678053 2.963399,4.805103 2.964809,4.808216 2.964826,4.8128 2.953478,4.858087 2.964945,4.944745 2.983003,5.068457 3.012674,5.21509 3.048828,5.336599 3.079317,5.404984 3.178337,5.562893 3.226079,5.658617 3.246308,5.7146 3.320105,5.79609 3.377369,5.847558 3.441506,5.911982 3.751307,6.250284 3.804496,6.30246 3.832323,6.324354 3.871527,6.328453 3.953052,6.345551 4.028296,6.381768 4.068439,6.392116 4.24297,6.421342 4.322168,6.44835 4.333635,6.455597 4.361412,6.468269 4.613108,6.566561 4.65698,6.588707 4.71624,6.598877 4.732921,6.59948 4.769675,6.598355 5.055627,6.544862 5.066235,6.541427 5.12836,6.517606 5.357861,6.436113 5.483142,6.383643 5.596775,6.340184 5.637655,6.325367 5.664071,6.3056 5.67963,6.292958 5.70051,6.28884 5.719769,6.284126 5.815388,6.223622 5.987602,6.107366 6.187388,6.000279 6.245885,5.968197 6.256274,5.961958 6.337816,5.896786 6.408079,5.814855 6.490133,5.707578 6.57267,5.598134 6.622555,5.538706 6.690808,5.43786 6.741964,5.360169 6.811618,5.150243 6.844911,5.104811 6.864307,5.073215 7.034859,4.735102 7.054136,4.69918 7.093556,4.599999 7.116863,4.492884 7.11251,4.439684 7.10474,4.387601 7.059703,4.204655 7.039521,4.155412 6.873284,3.854995 6.858678,3.827601 6.817339,3.766618 6.773253,3.618341 6.75201,3.576716 6.649472,3.420153 6.621871,3.371738 6.58192,3.322223 6.559394,3.298512 6.406789,3.1009 6.342452,3.020583 6.29703,2.97622 6.259394,2.952023 6.255021,2.947425 6.238006,2.937656 6.172908,2.903654 5.99153,2.807102 5.954057,2.770503 5.927006,2.752122 5.836236,2.703332 5.709253,2.638547 5.674535,2.620561 5.663477,2.609986 5.575587,2.565178 5.453956,2.519396 5.355843,2.474682 5.124903,2.392516 5.066797,2.370537 5.059426,2.367974 4.837839,2.314326 4.763073,2.312467" style="fill: black" /><polygon type="contour" points="6.233152,3.210036 6.288272,3.238887 6.290096,3.239906 6.295694,3.244958 6.313795,3.284786 6.31765,3.300463 6.316774,3.317047 6.316227,3.391622 6.302957,3.470851 6.29106,3.553378 6.274951,3.640213 6.283829,3.702344 6.281932,3.788735 6.286447,3.876546 6.305986,3.979384 6.316648,4.00784 6.338982,4.094255 6.342794,4.103946 6.346337,4.115261 6.362247,4.180461 6.389859,4.301465 6.395761,4.375375 6.397144,4.420389 6.402891,4.4536 6.394012,4.561556 6.389895,4.591239 6.383022,4.609463 6.371158,4.668842 6.360379,4.712541 6.342983,4.759933 6.316127,4.912211 6.304211,4.962616 6.284716,5.071064 6.276949,5.147261 6.277006,5.176273 6.271624,5.25436 6.276167,5.279233 6.29225,5.397568 6.29851,5.420956 6.310721,5.483606 6.323269,5.566386 6.324157,5.574201 6.324173,5.57425 6.313822,5.627912 6.312259,5.634309 6.304473,5.64521 6.273937,5.684043 6.246262,5.704587 6.239859,5.708468 6.23785,5.709737 6.236532,5.710323 6.175859,5.713712 6.15762,5.708075 6.134259,5.700869 6.106038,5.68858 6.090839,5.681918 6.06034,5.665152 6.010574,5.645201 5.969281,5.619044 5.942826,5.589605 5.875751,5.525107 5.851099,5.493282 5.814555,5.4714 5.781919,5.426231 5.703001,5.320291 5.695334,5.284366 5.678928,5.245376 5.632859,5.157839 5.621002,5.072221 5.613727,5.04038 5.617143,4.996661 5.629164,4.965454 5.658787,4.844315 5.670241,4.780876 5.702069,4.701005 5.725782,4.613798 5.748607,4.512359 5.751059,4.47062 5.749133,4.372143 5.747103,4.359143 5.746341,4.345851 5.723108,4.238924 5.696566,4.155495 5.655477,4.062804 5.646445,4.024779 5.626723,3.928761 5.62728,3.912057 5.629723,3.796948 5.64172,3.743237 5.690657,3.603739 5.691067,3.601807 5.691502,3.600814 5.693154,3.598683 5.738443,3.54287 5.750299,3.527803 5.783207,3.489437 5.835677,3.421795 5.846362,3.401757 5.856816,3.387017 5.878716,3.369822 5.897282,3.350628 5.910993,3.3409 5.92399,3.331797 5.935214,3.325266 5.961639,3.301271 6.011983,3.266384 6.034663,3.25255 6.057801,3.247337 6.102527,3.22405 6.13266,3.209294 6.156419,3.204809 6.179145,3.202953 6.189281,3.204171 6.21558,3.202507" style="fill: white" />
</svg>
