<svg width="13.600213" height="8.910821">
<polygon type="contour" points="3.217555,4.072893 3.218106,4.075552 3.2688,4.105092 3.307305,4.101379 3.312516,4.103333 3.338763,4.156156 3.443309,4.235163 3.460461,4.253021 3.521273,4.428556 3.528086,4.449055 3.528382,4.4509 3.528577,4.454095 3.528715,4.454649 3.52858,4.455313 3.52833,4.458036 3.520355,4.48393 3.467806,4.653303 3.460547,4.659015 3.35433,4.744947 3.347593,4.749888 3.285239,4.84078 3.27263,4.842619 3.225648,4.827398 3.215908,4.839018 3.122089,4.82797 3.068813,4.813032 2.967283,4.828406 2.848475,4.82005 2.826408,4.815145 2.810277,4.815302 2.79186,4.809619 2.750162,4.81947 2.731414,4.831333 2.716799,4.835405 2.693561,4.828427 2.635436,4.801811 2.59552,4.784316 2.568188,4.777359 2.519599,4.742705 2.493134,4.715615 2.467298,4.713411 2.420656,4.706441 2.368386,4.676871 2.284699,4.620369 2.26508,4.602326 2.255609,4.586265 2.262317,4.558859 2.278113,4.518938 2.311788,4.474384 2.288565,4.463098 2.302704,4.444339 2.270776,4.368361 2.258775,4.332572 2.269914,4.294592 2.27965,4.279191 2.288804,4.272498 2.307388,4.261572 2.424017,4.198714 2.500479,4.168499 2.520195,4.153658 2.617,4.112414 2.700599,4.078503 2.717537,4.076518 2.72861,4.080286 2.758255,4.094379 2.806603,4.102649 2.874183,4.085231 2.884908,4.08248 2.887996,4.083499 2.90294,4.081401 3.024221,4.097956 3.057607,4.075328 3.070633,4.072305 3.172604,4.070935" style="fill: white" />
</svg>
