<svg width="13.600213" height="8.910821">
<polygon type="contour" points="3.299171,1.522284 3.307832,1.528392 3.377891,1.546969 3.416837,1.547428 3.461256,1.547875 3.470403,1.545396 3.506175,1.537 3.514307,1.535232 3.520284,1.558713 3.521513,1.568369 3.534715,1.596552 3.556303,1.612917 3.575502,1.625198 3.59115,1.629827 3.626113,1.656092 3.684134,1.688411 3.701135,1.712191 3.732723,1.741209 3.734923,1.742178 3.737029,1.744205 3.757946,1.76853 3.77511,1.76926 3.818907,1.791841 3.874017,1.726505 3.880153,1.723751 3.893371,1.726764 3.966826,1.727574 3.972593,1.691769 3.979063,1.687371 3.990344,1.654979 4.001869,1.644873 4.006048,1.629676 4.020204,1.621196 4.025334,1.614151 4.03238,1.611606 4.048537,1.604958 4.057066,1.602406 4.090627,1.591857 4.096637,1.590367 4.099479,1.590127 4.100704,1.590106 4.102083,1.590076 4.107385,1.590208 4.142598,1.592231 4.163204,1.608407 4.165504,1.608503 4.189248,1.642293 4.221087,1.639363 4.243175,1.645374 4.250293,1.636931 4.282801,1.637983 4.302471,1.624553 4.332995,1.628911 4.391219,1.652712 4.481732,1.66872 4.493769,1.675267 4.516667,1.678075 4.538204,1.681437 4.596918,1.689434 4.61292,1.681253 4.641286,1.690412 4.662724,1.668377 4.722948,1.668893 4.833485,1.649564 4.90591,1.653471 4.947472,1.6513 5.003293,1.655948 5.014244,1.647696 5.020409,1.64609 5.03281,1.639853 5.044315,1.638679 5.0653,1.622039 5.082704,1.619111 5.088701,1.619832 5.092504,1.620723 5.112955,1.625707 5.177076,1.642192 5.190378,1.641085 5.204867,1.64222 5.214634,1.647705 5.242466,1.638736 5.268813,1.63643 5.374214,1.663009 5.437578,1.65604 5.465188,1.658821 5.518133,1.668045 5.597482,1.683229 5.670221,1.694084 5.71316,1.708898 5.778354,1.720289 5.953769,1.746154 5.959127,1.747289 5.989151,1.767749 6.009614,1.770081 6.020695,1.776818 6.060356,1.786858 6.070519,1.789748 6.079254,1.793858 6.096166,1.795592 6.103425,1.797336 6.111161,1.801646 6.147674,1.811603 6.158827,1.81029 6.187528,1.816261 6.241271,1.832052 6.323678,1.866015 6.327009,1.867866 6.344666,1.873142 6.396557,1.889575 6.564187,1.961614 6.565234,1.962221 6.566408,1.962994 6.568873,1.964367 6.570644,1.965508 6.571995,1.966558 6.573349,1.967531 6.575123,1.968885 6.640435,2.012596 6.696699,2.049396 6.736842,2.105576 6.752997,2.123377 6.823995,2.163761 6.909835,2.176238 6.923443,2.179657 7.011051,2.190688 7.093519,2.183965 7.108269,2.191015 7.128503,2.188915 7.166236,2.195414 7.173416,2.195529 7.177258,2.196648 7.210592,2.209985 7.235823,2.220282 7.261289,2.22401 7.335554,2.234455 7.377929,2.248038 7.398569,2.257929 7.43024,2.279736 7.46848,2.294935 7.476843,2.296629 7.493332,2.300768 7.512079,2.296089 7.573935,2.297614 7.605304,2.299605 7.628872,2.307674 7.729956,2.362928 7.749261,2.370925 7.764418,2.382078 7.857328,2.458276 7.875656,2.471056 7.897077,2.478283 7.946113,2.470421 7.946402,2.47032 7.987291,2.464388 8.018242,2.472286 8.089456,2.502575 8.132092,2.513294 8.259015,2.547701 8.259787,2.548554 8.301808,2.562914 8.348429,2.605687 8.519074,2.665204 8.589512,2.687293 8.650865,2.698915 8.664486,2.705161 8.715133,2.709556 8.719854,2.710188 8.720757,2.710253 8.803296,2.7682 8.821057,2.766986 8.846728,2.775111 8.869783,2.786355 8.880046,2.79685 8.890696,2.80201 8.908359,2.831175 8.935185,2.829667 8.940291,2.838525 8.956349,2.836738 8.961667,2.843477 8.980097,2.841221 8.98679,2.843564 8.999084,2.840229 9.010317,2.848728 9.030658,2.845381 9.038887,2.846521 9.078937,2.851087 9.080348,2.850975 9.107202,2.862976 9.119809,2.863984 9.202387,2.884185 9.310578,2.914972 9.357437,2.93139 9.374695,2.946231 9.459683,2.984144 9.537501,3.031927 9.563843,3.032179 9.564217,3.03224 9.564342,3.032306 9.567728,3.034411 9.690017,3.11749 9.707194,3.134135 9.762555,3.198548 9.769394,3.209208 9.773763,3.216146 9.780862,3.230239 9.794954,3.263818 9.795885,3.295898 9.835333,3.39058 9.864108,3.429867 9.920082,3.482508 9.95414,3.497794 9.964503,3.507137 10.001659,3.523971 10.098386,3.604812 10.120471,3.624051 10.144568,3.645455 10.157984,3.658821 10.161173,3.661905 10.171298,3.67083 10.175109,3.674582 10.284051,3.7834 10.296828,3.792073 10.304192,3.800629 10.41841,3.907299 10.456783,3.94892 10.512328,4.020074 10.558212,4.058758 10.591436,4.093215 10.613722,4.151724 10.629857,4.189124 10.626534,4.387773 10.625178,4.467236 10.627007,4.519633 10.645359,4.689638 10.642544,4.713943 10.546815,4.867947 10.546088,4.869361 10.545874,4.869605 10.371972,5.045287 10.305791,5.100793 10.212458,5.204833 10.163577,5.247561 10.150381,5.25974 10.13527,5.271747 10.115305,5.293091 10.09088,5.315166 10.065273,5.336834 10.039584,5.359836 9.998127,5.39108 9.919242,5.43004 9.912995,5.435096 9.909918,5.435841 9.88033,5.465625 9.863275,5.483515 9.842873,5.505404 9.795518,5.615792 9.793775,5.638475 9.794984,5.647698 9.790963,5.672562 9.785651,5.687127 9.770511,5.711151 9.744708,5.735389 9.694793,5.789976 9.567834,5.876505 9.565345,5.878618 9.491817,5.896331 9.460955,5.915939 9.416532,5.948397 9.399897,5.950395 9.365642,5.97588 9.343848,5.985201 9.271485,6.010965 9.259755,6.014444 9.188343,6.031735 9.080737,6.062361 9.073076,6.063512 9.065985,6.063212 8.994356,6.063431 8.987085,6.068257 8.970801,6.065278 8.961807,6.068215 8.946555,6.067022 8.940315,6.07306 8.909787,6.073339 8.90017,6.105974 8.864513,6.124491 8.861472,6.129321 8.848119,6.133116 8.824988,6.147457 8.810668,6.146898 8.791911,6.154906 8.761521,6.173791 8.754245,6.180845 8.724634,6.200605 8.724551,6.200718 8.685261,6.2008 8.670747,6.202912 8.655657,6.212057 8.600696,6.221478 8.519672,6.246198 8.334095,6.322038 8.280765,6.356131 8.229253,6.377776 8.193868,6.393042 8.188302,6.395648 8.177855,6.396299 8.01294,6.438631 7.990999,6.446586 7.988133,6.447029 7.986622,6.447459 7.944399,6.440524 7.912854,6.432276 7.870639,6.441577 7.861692,6.451798 7.771938,6.522727 7.607722,6.601162 7.523468,6.617363 7.499388,6.610876 7.455101,6.621976 7.359919,6.675243 7.233403,6.695074 7.22076,6.692417 7.184941,6.71124 7.172308,6.717148 7.125,6.720619 7.108855,6.724184 7.093889,6.72228 7.079066,6.721357 7.065706,6.723237 7.059257,6.724422 6.994887,6.722058 6.952395,6.743483 6.947462,6.745533 6.839953,6.742255 6.767769,6.786698 6.72096,6.830072 6.715795,6.84653 6.704191,6.859525 6.627829,6.908127 6.620437,6.911501 6.605831,6.922857 6.596284,6.928676 6.586801,6.934395 6.585067,6.935114 6.573425,6.940965 6.550058,6.950603 6.504178,6.977315 6.474116,6.989188 6.472219,6.990578 6.450815,7.000169 6.347777,7.038778 6.288823,7.059891 6.23407,7.078696 6.119215,7.101025 6.074058,7.125313 6.006346,7.152755 5.774205,7.19402 5.690002,7.205564 5.629022,7.216438 5.552482,7.229547 5.433226,7.255095 5.408477,7.257137 5.36865,7.252969 5.294785,7.261468 5.25093,7.270378 5.22856,7.258882 5.189001,7.276788 5.164587,7.276851 5.070293,7.290161 5.050771,7.279445 5.044223,7.272931 5.02464,7.266107 5.022953,7.266024 4.995143,7.256386 4.984598,7.256083 4.905268,7.257102 4.829933,7.256357 4.789415,7.255903 4.764077,7.251435 4.747033,7.24821 4.710823,7.247409 4.69491,7.246017 4.680706,7.24781 4.665997,7.242271 4.641922,7.220978 4.612921,7.230399 4.595387,7.223275 4.557878,7.228624 4.536943,7.240993 4.522598,7.234543 4.505493,7.236276 4.465813,7.243072 4.395036,7.262915 4.386826,7.265302 4.376722,7.269694 4.306923,7.28504 4.280717,7.282745 4.274073,7.279504 4.264064,7.270695 4.187374,7.272005 4.165505,7.303097 4.145621,7.319131 4.129044,7.320528 4.125627,7.3207 4.120372,7.320981 4.113385,7.320629 4.102092,7.318043 4.038154,7.302743 4.033666,7.301401 4.025333,7.297468 4.020201,7.290417 4.006047,7.281955 4.001866,7.266758 3.990341,7.256656 3.983295,7.236418 3.960357,7.168644 3.917877,7.189665 3.907904,7.187344 3.894484,7.190889 3.880701,7.187919 3.876468,7.18636 3.851585,7.169308 3.809438,7.124687 3.775116,7.142359 3.75716,7.144655 3.695511,7.207317 3.683778,7.223357 3.622839,7.26426 3.607957,7.275879 3.547003,7.30766 3.543295,7.315751 3.523927,7.331559 3.516251,7.369502 3.513688,7.380338 3.498219,7.374009 3.472715,7.370986 3.419721,7.364549 3.396017,7.361531 3.381443,7.361133 3.33234,7.369722 3.289207,7.395149 3.268278,7.394827 3.219468,7.377958 3.21572,7.375713 3.211702,7.371644 3.152719,7.286465 3.150601,7.283318 3.150304,7.28271 3.111688,7.16679 3.108248,7.126666 3.110747,7.088286 3.108662,7.011778 3.106863,6.957649 3.033801,6.939403 3.019158,6.964818 2.997857,6.969379 2.995698,6.969032 2.991696,6.968675 2.895647,6.953394 2.833166,6.943605 2.827301,6.942548 2.824365,6.941644 2.746578,6.897097 2.728608,6.881421 2.708425,6.854602 2.672259,6.841019 2.625061,6.843935 2.625019,6.843948 2.500449,6.81336 2.483002,6.809509 2.435574,6.794812 2.293022,6.778718 2.285258,6.77783 2.284338,6.777705 2.279604,6.777291 2.068889,6.752437 2.0337,6.754115 2.025339,6.748437 2.011112,6.75106 1.919083,6.744923 1.857686,6.729124 1.816653,6.712861 1.796568,6.68862 1.786564,6.671634 1.749878,6.656288 1.706368,6.677698 1.604475,6.705575 1.569907,6.718085 1.511621,6.70018 1.39599,6.64419 1.308427,6.594398 1.25058,6.492138 1.244058,6.423511 1.237905,6.388045 1.235326,6.38125 1.237724,6.308917 1.241806,6.268383 1.247806,6.237113 1.250301,6.222708 1.246125,6.163519 1.244016,6.12385 1.237851,6.107538 1.21657,6.070441 1.213131,6.06173 1.209218,6.057315 1.192717,5.994984 1.177737,5.973516 1.161124,5.913333 1.149559,5.75572 1.142223,5.698961 1.148978,5.665495 1.154881,5.656742 1.18323,5.616935 1.188279,5.565707 1.19948,5.411031 1.207046,5.313513 1.205192,5.26937 1.206287,5.226123 1.250541,5.140081 1.233628,5.08803 1.202702,5.06076 1.190158,5.036705 1.17058,4.898076 1.144144,4.592775 1.156341,4.557396 1.15712,4.555926 1.178405,4.525203 1.174876,4.438908 1.17298,4.410586 1.175501,4.396995 1.159079,4.359234 1.157727,4.358172 1.144281,4.330885 1.188816,3.87477 1.189465,3.869595 1.189607,3.867925 1.189868,3.866187 1.190671,3.865492 1.235068,3.818744 1.232657,3.798242 1.248902,3.773021 1.214947,3.722635 1.206665,3.699981 1.203179,3.616176 1.205873,3.608237 1.200455,3.568768 1.192003,3.520871 1.182211,3.413611 1.18711,3.350847 1.188664,3.326014 1.186705,3.311086 1.171567,3.279979 1.158513,3.267639 1.153071,3.261863 1.150217,3.244454 1.139713,3.218015 1.144779,3.156045 1.158364,2.991244 1.167329,2.971144 1.17446,2.946694 1.180301,2.937491 1.185168,2.928769 1.18794,2.913328 1.1993,2.896612 1.209721,2.85467 1.21124,2.849508 1.213041,2.847479 1.228628,2.830563 1.234729,2.798596 1.245735,2.778439 1.247948,2.759689 1.239716,2.706263 1.232706,2.639806 1.231673,2.622071 1.239502,2.603158 1.24035,2.582116 1.243013,2.500059 1.249379,2.450903 1.283364,2.343227 1.289238,2.335043 1.317452,2.324877 1.528665,2.210749 1.559885,2.208129 1.649645,2.215451 1.667444,2.214617 1.711651,2.237242 1.751294,2.254763 1.786405,2.240035 1.817174,2.199098 1.842365,2.179607 1.865204,2.174564 2.030569,2.159541 2.034377,2.157044 2.06775,2.159231 2.31096,2.144579 2.437603,2.108966 2.441026,2.108746 2.449651,2.10791 2.595026,2.074649 2.623484,2.067652 2.626604,2.068537 2.683966,2.064535 2.700473,2.048732 2.722526,2.034187 2.740161,2.017242 2.822095,1.970985 2.824234,1.969624 2.825013,1.969349 2.825666,1.969175 2.827136,1.969211 2.939522,1.952 3.002625,1.94239 3.003281,1.942538 3.003936,1.942976 3.021155,1.947388 3.066485,2.009753 3.109541,1.920077 3.111041,1.885707 3.111819,1.863246 3.106543,1.816571 3.102752,1.783542 3.106906,1.757576 3.12089,1.710678 3.130224,1.689827 3.139136,1.668149 3.147976,1.639964 3.216209,1.536818 3.223116,1.532709 3.271724,1.521342" style="fill: white" /><polygon type="hole" points="6.343736,3.303673 6.269389,3.313527 6.221137,3.334409 6.061273,3.388758 5.878276,3.506434 5.86659,3.515142 5.754876,3.704703 5.74231,3.734388 5.716087,3.809682 5.704965,3.865967 5.696138,3.901384 5.664725,4.124749 5.664177,4.133877 5.675354,4.567308 5.69748,4.772485 5.718583,4.904778 5.729445,4.954313 5.763939,5.105644 5.78139,5.173411 5.785677,5.184872 5.795924,5.20068 5.873681,5.323708 5.959033,5.406264 5.979558,5.42077 5.997448,5.429981 6.106681,5.474095 6.238424,5.522478 6.290098,5.521918 6.444758,5.518408 6.550544,5.483657 6.61406,5.454686 6.731387,5.391289 6.756777,5.372256 6.874623,5.232914 6.91886,5.176867 6.936987,5.150584 6.952386,5.120837 7.090335,4.811831 7.100786,4.756995 7.104715,4.732379 7.113974,4.692432 7.127995,4.600028 7.16861,4.3412 7.176443,4.124559 7.163994,4.00745 7.157964,3.916492 7.151946,3.900661 7.125582,3.829585 7.076744,3.716875 7.051113,3.674168 6.934695,3.548025 6.90764,3.50648 6.848093,3.458683 6.815309,3.426116 6.784378,3.408233 6.773636,3.403574 6.617475,3.340719 6.446205,3.306839 6.424672,3.302144" style="fill: black" />
</svg>
