<svg width="13.600213" height="8.910821">
<polygon type="contour" points="4.782321,0.590564 4.873469,0.630233 4.918438,0.646376 4.981764,0.645642 5.020015,0.661925 5.068353,0.669773 5.114068,0.676955 5.202478,0.695611 5.261918,0.71418 5.368335,0.7456 5.401213,0.768272 5.411283,0.771329 5.437849,0.777379 5.45722,0.780335 5.519332,0.790273 5.621042,0.806873 5.63276,0.809412 5.658798,0.812567 5.673594,0.827731 5.716797,0.836348 5.774698,0.848338 5.812525,0.85696 5.859483,0.869361 5.920264,0.874328 6.014128,0.892871 6.137141,0.923033 6.15131,0.931571 6.159781,0.933284 6.208889,0.947537 6.34515,0.985356 6.383397,0.994873 6.480014,1.030285 6.506395,1.041791 6.584082,1.085433 6.744916,1.166176 6.74644,1.168317 6.820608,1.232895 6.83012,1.243168 6.995459,1.467365 7.052236,1.545496 7.054095,1.547989 7.061381,1.556924 7.065267,1.561125 7.222468,1.751808 7.300082,1.835869 7.334102,1.882067 7.380762,1.939891 7.409801,1.992462 7.421196,2.022344 7.458751,2.063245 7.479038,2.081088 7.505462,2.100503 7.606336,2.198419 7.664054,2.261701 7.770272,2.355567 7.808766,2.378646 7.817661,2.381604 7.820271,2.382467 7.841922,2.397399 7.869771,2.400682 7.886629,2.407758 7.887205,2.40808 7.900044,2.416315 7.943236,2.431368 7.962818,2.446233 8.018146,2.49018 8.046688,2.515022 8.07747,2.545305 8.125691,2.591423 8.168345,2.634019 8.212469,2.674179 8.234693,2.707094 8.272336,2.73511 8.293313,2.76182 8.294802,2.762903 8.296057,2.767557 8.304921,2.776853 8.319479,2.795627 8.352394,2.841736 8.365267,2.8593 8.375187,2.869532 8.402597,2.882934 8.407972,2.884542 8.445022,2.913246 8.463641,2.941127 8.602614,3.066313 8.637087,3.098185 8.657,3.121191 8.701195,3.146564 8.830481,3.2543 8.858843,3.277524 8.867707,3.284738 8.873757,3.290651 8.876299,3.293532 8.940944,3.388055 8.953003,3.406406 8.984064,3.447573 8.991173,3.456705 8.998032,3.469328 9.016174,3.490035 9.033946,3.509561 9.035671,3.510783 9.052865,3.527238 9.070159,3.535093 9.090031,3.55497 9.096201,3.558043 9.101417,3.56347 9.133934,3.596594 9.148266,3.61189 9.152224,3.616626 9.182307,3.653015 9.198587,3.663459 9.212871,3.682449 9.220058,3.687534 9.222634,3.693484 9.230283,3.708194 9.240736,3.722257 9.262017,3.734817 9.269209,3.757063 9.276831,3.772806 9.281945,3.779166 9.287846,3.799298 9.302972,3.822128 9.305651,3.827571 9.311104,3.848703 9.320545,3.884171 9.372692,3.900662 9.387212,3.901238 9.392831,3.905419 9.404743,3.923957 9.442256,3.991548 9.47051,4.046696 9.485535,4.099218 9.485323,4.110556 9.490256,4.119663 9.499963,4.184423 9.514435,4.29045 9.523517,4.316068 9.525685,4.337829 9.526021,4.362922 9.519529,4.386875 9.51405,4.402969 9.505251,4.41881 9.527233,4.577796 9.526453,4.586531 9.518427,4.609957 9.510186,4.619926 9.510216,4.64561 9.508394,4.663058 9.492875,4.750195 9.489648,4.79381 9.485324,4.80107 9.482325,4.834924 9.482306,4.836399 9.480653,4.841409 9.468339,4.869881 9.410109,4.976923 9.391967,5.003778 9.38965,5.005519 9.386278,5.009674 9.362941,5.009637 9.318589,5.040454 9.30715,5.08623 9.301592,5.108161 9.281578,5.125939 9.274492,5.146795 9.260661,5.177893 9.230719,5.205158 9.229532,5.208072 9.22667,5.210269 9.209219,5.239314 9.177822,5.275991 9.112948,5.333581 9.093933,5.357054 9.028594,5.405316 9.004708,5.441387 8.970102,5.492859 8.958884,5.504513 8.955198,5.508324 8.94616,5.517712 8.931803,5.545001 8.880068,5.615459 8.877987,5.617379 8.876991,5.618835 8.69869,5.766771 8.688285,5.774583 8.658982,5.790241 8.646533,5.803151 8.629638,5.822586 8.604608,5.839925 8.513627,5.922481 8.476376,5.950123 8.441376,5.998264 8.40905,6.025864 8.362834,6.054282 8.322212,6.101178 8.23054,6.201763 8.205397,6.227174 8.193678,6.239511 8.075567,6.358636 7.991621,6.438692 7.946885,6.4771 7.911456,6.491633 7.856379,6.515896 7.829338,6.518718 7.802538,6.538243 7.772616,6.558415 7.750487,6.573647 7.732767,6.591119 7.725455,6.603589 7.6023,6.718364 7.493078,6.831825 7.418761,6.893677 7.4194,6.902539 7.368867,6.975517 7.364986,6.980393 7.284245,7.070475 7.231155,7.146632 7.219592,7.151168 7.198998,7.173132 7.15536,7.254454 7.153398,7.257654 7.144082,7.268633 7.048706,7.375573 7.01084,7.418853 6.979226,7.459073 6.821252,7.677727 6.80763,7.692035 6.68815,7.78495 6.661891,7.801254 6.513725,7.871638 6.45188,7.887841 6.304253,7.937008 6.213304,7.971002 6.192132,7.97463 6.148695,7.976798 6.116359,7.992683 6.00001,8.020537 5.916665,8.037864 5.804539,8.051354 5.676531,8.092597 5.65559,8.101776 5.643142,8.100911 5.63724,8.102292 5.631981,8.102393 5.594357,8.10513 5.569704,8.112683 5.482557,8.127323 5.470107,8.129664 5.464836,8.130677 5.447743,8.135233 5.398417,8.151465 5.166944,8.223702 5.053426,8.245525 5.032829,8.247912 4.976112,8.253172 4.830916,8.306868 4.799805,8.315164 4.768254,8.325812 4.732107,8.329239 4.675789,8.327746 4.620963,8.320175 4.612453,8.3186 4.554693,8.298191 4.37325,8.265024 4.337827,8.282211 4.330566,8.281357 4.232532,8.260264 4.217121,8.245386 4.201813,8.246726 4.149983,8.232177 4.119648,8.235444 4.115713,8.234087 4.106427,8.2313 4.058447,8.20896 3.980783,8.182099 3.811858,8.112494 3.646699,8.042461 3.557619,7.998068 3.439499,7.919587 3.303697,7.848073 3.183907,7.766336 3.09981,7.75635 3.090118,7.753031 3.057937,7.743615 2.908341,7.678452 2.847904,7.647658 2.805601,7.638474 2.786715,7.636544 2.73223,7.629322 2.701734,7.641952 2.499062,7.615274 2.479786,7.612459 2.467366,7.620794 2.44748,7.620106 2.305572,7.621109 2.182688,7.589047 2.175262,7.591094 2.171518,7.590915 2.158403,7.587594 1.979349,7.556831 1.852503,7.53427 1.735788,7.494736 1.677907,7.486176 1.647342,7.490326 1.593418,7.474174 1.536779,7.455257 1.511954,7.444861 1.493993,7.435019 1.457656,7.406787 1.443002,7.400976 1.426902,7.395979 1.41381,7.389661 1.395813,7.384312 1.385634,7.382479 1.380735,7.378161 1.362784,7.374897 1.331146,7.353232 1.307653,7.329313 1.195767,7.243888 1.179259,7.233285 1.143912,7.218271 1.101539,7.248896 1.099466,7.249969 1.099116,7.250151 1.053922,7.261731 0.955777,7.25689 0.945176,7.254444 0.896615,7.242914 0.871218,7.235569 0.835261,7.226002 0.807179,7.210858 0.770943,7.189854 0.763401,7.183759 0.752936,7.177806 0.742404,7.165608 0.716591,7.129849 0.684075,7.107622 0.675362,7.095281 0.647249,7.03888 0.638908,7.003475 0.637796,6.962964 0.625007,6.929072 0.620503,6.873126 0.615882,6.841125 0.621765,6.770008 0.633449,6.750095 0.623138,6.720386 0.623053,6.71927 0.622835,6.718517 0.6229,6.718347 0.605387,6.322019 0.608251,6.312797 0.606305,6.278434 0.600112,6.241567 0.596229,6.223009 0.568911,6.116053 0.533057,5.971721 0.520828,5.887908 0.52716,5.835797 0.532976,5.716208 0.528578,5.66384 0.521174,5.611304 0.517073,5.570933 0.511414,5.544441 0.498188,5.508294 0.484401,5.464389 0.483358,5.441302 0.46618,5.420649 0.464622,5.416102 0.463531,5.4046 0.463964,5.392911 0.47405,5.049724 0.47578,5.037315 0.475142,5.029564 0.47133,5.006793 0.45798,4.990469 0.443956,4.971901 0.440921,4.95727 0.433631,4.92131 0.424109,4.888786 0.423062,4.842607 0.41903,4.774925 0.423498,4.66705 0.396138,4.579557 0.401258,4.545358 0.40428,4.357379 0.409654,4.320729 0.411615,4.298996 0.41331,4.28705 0.413771,4.267679 0.425975,4.227538 0.425852,4.214717 0.422038,4.185351 0.411467,4.100347 0.411499,4.096477 0.411185,4.095018 0.412121,4.090507 0.435226,3.981021 0.439892,3.959286 0.441506,3.949649 0.45462,3.928312 0.456529,3.923585 0.468039,3.909045 0.475416,3.881665 0.473202,3.854915 0.463347,3.508101 0.464242,3.498673 0.48031,3.462013 0.485808,3.427815 0.487858,3.416637 0.501006,3.388494 0.507912,3.379915 0.52896,3.247505 0.531239,3.154594 0.526817,3.080068 0.520723,3.025215 0.532607,2.944377 0.552774,2.838485 0.569096,2.76983 0.596539,2.671788 0.604522,2.629896 0.603276,2.621683 0.605374,2.594558 0.601547,2.566089 0.603293,2.537259 0.602474,2.520448 0.615813,2.388688 0.624236,2.273213 0.627608,2.254104 0.624621,2.144343 0.622523,2.142437 0.62267,2.114987 0.617443,2.055858 0.621331,2.005614 0.624837,1.974314 0.640108,1.903787 0.663688,1.855687 0.680721,1.827914 0.690492,1.816891 0.698771,1.782729 0.798516,1.711227 0.819938,1.691556 0.833238,1.685473 0.852519,1.682551 0.939866,1.6537 0.966847,1.647687 1.052332,1.650098 1.055377,1.649914 1.094054,1.659571 1.102966,1.663657 1.148773,1.697806 1.183979,1.678167 1.209672,1.656353 1.277802,1.610274 1.302124,1.594656 1.330304,1.563055 1.350679,1.543742 1.362625,1.536807 1.380974,1.533385 1.386991,1.529264 1.3977,1.526876 1.417091,1.520395 1.432702,1.512844 1.448722,1.508092 1.458136,1.50454 1.482809,1.485232 1.497536,1.474969 1.517146,1.463946 1.536325,1.453679 1.6266,1.42735 1.642967,1.423684 1.659196,1.422409 1.687587,1.422952 1.797872,1.397868 1.891259,1.367259 1.902376,1.364334 1.914375,1.36166 1.96362,1.3483 2.106917,1.323887 2.244049,1.307698 2.264386,1.298771 2.270401,1.297156 2.4506,1.290617 2.468587,1.290852 2.472416,1.292192 2.504066,1.293969 2.631054,1.281496 2.720159,1.2811 2.78541,1.264934 2.845408,1.264648 2.888602,1.255238 2.915012,1.243265 3.140372,1.153713 3.149425,1.15199 3.167078,1.145844 3.183247,1.14516 3.263632,1.091007 3.415225,0.991983 3.586011,0.903076 3.633797,0.874032 3.738966,0.821133 3.863804,0.774811 3.997937,0.727598 4.104802,0.681242 4.120028,0.676414 4.148108,0.679307 4.195955,0.665454 4.217342,0.666856 4.234419,0.649746 4.337773,0.628873 4.337891,0.628857 4.337935,0.628857 4.338042,0.628911 4.370344,0.646722 4.505948,0.623389 4.590574,0.608803 4.645117,0.59106 4.737942,0.587526" style="fill: white" /><polygon type="hole" points="4.517259,2.763411 4.443944,2.781572 4.388367,2.805527 4.194827,2.945595 4.122101,3.006871 4.085369,3.051946 4.004258,3.160991 3.982292,3.205162 3.936761,3.319614 3.901056,3.450237 3.879724,3.529429 3.840034,3.68458 3.721452,3.897758 3.70388,3.954135 3.688034,4.003542 3.677413,4.044916 3.647788,4.171715 3.634414,4.410169 3.630001,4.655554 3.630929,4.70719 3.683168,4.896312 3.702018,4.958378 3.711272,4.994236 3.855894,5.264598 3.910015,5.484545 3.928299,5.558865 3.991887,5.733544 4.030204,5.779647 4.135575,5.910083 4.210058,5.986248 4.298573,6.048779 4.47414,6.149216 4.699578,6.165851 4.993119,6.151773 5.142595,6.117805 5.285571,6.072557 5.451596,5.945556 5.463399,5.934831 5.468198,5.932316 5.490427,5.930385 5.586015,5.928232 5.611956,5.921972 5.654653,5.892541 5.678247,5.869213 5.70865,5.856375 5.71245,5.853293 5.714725,5.852379 5.851668,5.793503 5.916611,5.765655 5.921016,5.7643 6.085685,5.682734 6.172831,5.623213 6.21657,5.596783 6.360601,5.466829 6.399028,5.440072 6.413814,5.424253 6.427854,5.405875 6.51917,5.296365 6.593287,5.179297 6.603477,5.154304 6.599713,5.128781 6.629123,5.061832 6.656465,4.997712 6.70758,4.859602 6.716031,4.821089 6.725034,4.705536 6.71784,4.667166 6.720802,4.421242 6.724481,4.355041 6.730991,4.164136 6.727447,4.149116 6.669164,3.954168 6.628865,3.856493 6.603864,3.792444 6.603202,3.775597 6.586166,3.726883 6.552227,3.644424 6.442492,3.524463 6.42229,3.496539 6.396712,3.46927 6.360154,3.444156 6.244208,3.34512 6.207456,3.307312 6.143726,3.273315 6.085755,3.228549 6.005749,3.185607 5.980716,3.178668 5.877313,3.114794 5.745939,3.072066 5.728832,3.064526 5.701982,3.054164 5.620298,2.994943 5.605831,2.992669 5.546539,2.980852 5.481124,2.984006 5.452154,2.954058 5.361838,2.914351 5.142719,2.786537 5.064719,2.77156 4.911454,2.758315 4.701683,2.745853" style="fill: black" />
</svg>
