<svg width="13.600213" height="8.910821">
<polygon type="contour" points="4.058499,1.082056 4.078368,1.074256 4.085246,1.076225 4.090078,1.080786 4.107813,1.086033 4.110609,1.089733 4.116463,1.114579 4.139931,1.161341 4.125993,1.255905 4.124543,1.263844 4.104883,1.290093 4.11244,1.34154 4.129197,1.390993 4.176581,1.527434 4.13746,1.672941 4.133737,1.685293 4.129635,1.694271 4.130352,1.712776 4.12885,1.78709 4.168221,1.856351 4.197502,1.902818 4.290254,1.976752 4.439611,1.984433 4.547355,1.982613 4.581102,1.984758 4.672409,1.981945 4.785737,1.988192 4.862905,1.977747 4.948399,1.982116 4.966123,1.982654 4.97696,1.986857 5.027418,1.975458 5.073663,1.963665 5.114071,1.949847 5.15106,1.930423 5.240271,1.859252 5.223613,1.816812 5.242706,1.764658 5.204463,1.662791 5.203846,1.647068 5.205179,1.637051 5.22662,1.519396 5.284167,1.463042 5.295239,1.447927 5.319962,1.429101 5.331872,1.426171 5.333159,1.425004 5.33487,1.424698 5.347069,1.416786 5.375316,1.415405 5.385962,1.411333 5.433854,1.397935 5.461781,1.402514 5.613689,1.428144 5.631259,1.430119 5.720535,1.425643 5.783724,1.417707 5.802445,1.418271 5.924095,1.404918 5.939918,1.406412 5.957567,1.404008 5.99354,1.405563 5.999681,1.406042 6.02963,1.406383 6.034421,1.408356 6.038958,1.408584 6.066451,1.418705 6.081206,1.419144 6.095187,1.42313 6.160718,1.422134 6.210015,1.425474 6.339263,1.451297 6.441701,1.46788 6.585449,1.492021 6.652985,1.505512 6.775425,1.544777 6.867409,1.594974 6.94724,1.668426 7.026711,1.733251 7.083907,1.790805 7.102131,1.821206 7.157774,1.852238 7.182243,1.872123 7.246357,1.924421 7.272976,1.944933 7.296435,1.963061 7.327501,1.973566 7.336843,1.977843 7.346259,1.986247 7.40374,2.044745 7.411185,2.061398 7.437759,2.094839 7.45012,2.108543 7.508657,2.162182 7.64185,2.352911 7.649633,2.364642 7.681243,2.393098 7.703392,2.427904 7.745832,2.509816 7.781102,2.551241 7.793307,2.562635 7.813693,2.58585 7.827373,2.59881 7.909037,2.684813 7.936783,2.712338 7.945119,2.715973 7.961012,2.72546 8.000774,2.746758 8.013618,2.766989 8.044282,2.803836 8.061739,2.817697 8.146081,2.85517 8.239013,2.905302 8.247624,2.912382 8.278838,2.932473 8.305977,2.962468 8.323074,2.982598 8.382223,3.026262 8.419697,3.053993 8.447576,3.068921 8.458268,3.078939 8.479193,3.094981 8.502798,3.111872 8.556189,3.168962 8.56572,3.180721 8.599426,3.194364 8.612491,3.208358 8.629062,3.225144 8.640459,3.246755 8.649328,3.261183 8.681331,3.300917 8.688214,3.308862 8.735537,3.337146 8.799712,3.343814 8.859019,3.394895 8.869671,3.39946 8.882644,3.40965 8.9638,3.505926 8.967122,3.516706 8.972926,3.542992 8.991464,3.553009 9.000935,3.561224 9.007479,3.566779 9.03807,3.601664 9.067502,3.629993 9.083058,3.648273 9.113874,3.692659 9.138794,3.756553 9.143042,3.767818 9.157681,3.791847 9.1628,3.799946 9.16862,3.819199 9.205354,3.940448 9.213606,3.997922 9.21601,4.003248 9.236986,4.101132 9.229551,4.166936 9.233056,4.203457 9.228472,4.232469 9.214896,4.376811 9.207163,4.452797 9.207461,4.472599 9.217984,4.644031 9.230668,4.808307 9.23479,4.859641 9.230472,4.889109 9.218705,4.920238 9.213727,4.942164 9.164628,5.089303 9.154294,5.114424 9.130739,5.17241 9.121284,5.190471 9.099134,5.234942 9.08165,5.265352 9.06088,5.289599 9.047228,5.302394 8.973338,5.368906 8.959232,5.416337 8.954778,5.420471 8.877186,5.507224 8.867282,5.515178 8.834249,5.531492 8.809725,5.564752 8.803973,5.567946 8.726585,5.576618 8.688741,5.602507 8.677464,5.615573 8.649456,5.650421 8.639957,5.665061 8.628336,5.68716 8.613239,5.702633 8.590563,5.714999 8.587226,5.719006 8.562683,5.734113 8.529023,5.774598 8.501986,5.800958 8.478081,5.817034 8.457747,5.835931 8.425743,5.854949 8.418098,5.859133 8.379892,5.887322 8.322502,5.925538 8.313371,5.940564 8.281605,5.975951 8.255391,5.989382 8.239306,6.006328 8.102883,6.068381 8.082854,6.078078 8.071293,6.087267 8.045138,6.108888 8.031706,6.125672 7.999435,6.16569 7.971662,6.190301 7.968792,6.192162 7.961311,6.194878 7.939361,6.201808 7.895685,6.241091 7.877085,6.270746 7.793492,6.351438 7.72329,6.42652 7.687273,6.48781 7.660354,6.526483 7.58967,6.62473 7.530012,6.706511 7.460504,6.794282 7.439753,6.822217 7.40762,6.857004 7.406925,6.86008 7.363899,6.894658 7.281515,6.961469 7.277552,6.96286 7.265529,6.974063 7.253809,6.97983 7.192297,7.030055 7.17316,7.045677 7.094455,7.113285 7.087193,7.121315 7.075814,7.129432 7.067238,7.13367 7.056003,7.144691 7.038098,7.161116 6.922845,7.268821 6.892508,7.30165 6.882564,7.311437 6.784845,7.362934 6.77404,7.367101 6.757884,7.37736 6.581425,7.415203 6.551262,7.427115 6.539624,7.431944 6.520929,7.434653 6.388739,7.461967 6.326002,7.472943 6.290491,7.479329 6.262862,7.482075 6.215885,7.48579 6.178787,7.48772 6.080451,7.484432 6.063565,7.49141 6.045733,7.498742 5.999941,7.505465 5.987007,7.504765 5.806588,7.493633 5.702385,7.489761 5.669885,7.489919 5.55984,7.47875 5.557128,7.480198 5.555694,7.479884 5.500184,7.497352 5.495301,7.501584 5.463209,7.51058 5.417395,7.51069 5.399432,7.501884 5.375033,7.495935 5.346999,7.494805 5.33487,7.486922 5.333161,7.486619 5.331789,7.485411 5.318747,7.481989 5.299385,7.462802 5.2489,7.415435 5.20829,7.353616 5.213009,7.29279 5.234142,7.069843 5.193657,7.016347 5.179537,7.002648 5.162951,6.997241 5.001966,6.929713 4.977984,6.92345 4.952631,6.928965 4.952006,6.929172 4.84476,6.934369 4.809975,6.932796 4.807524,6.932522 4.804602,6.928691 4.710329,6.916423 4.695485,6.919009 4.647668,6.922995 4.605156,6.922848 4.553526,6.927585 4.486568,6.933091 4.291037,6.934935 4.198312,7.015994 4.182402,7.040646 4.129863,7.137288 4.120209,7.195421 4.13211,7.222934 4.165391,7.327237 4.16988,7.343871 4.179491,7.366277 4.179908,7.372229 4.168565,7.450865 4.12891,7.537572 4.110453,7.578075 4.105589,7.60697 4.110912,7.628217 4.125612,7.649982 4.132007,7.713732 4.139371,7.745371 4.137135,7.756244 4.112891,7.80726 4.111672,7.815252 4.108945,7.822985 4.085848,7.833873 4.084731,7.83462 4.062328,7.830057 3.993912,7.835619 3.968195,7.837272 3.932054,7.807428 3.911484,7.804411 3.859368,7.793131 3.845382,7.793279 3.813467,7.777414 3.788769,7.779798 3.778238,7.775898 3.746823,7.792312 3.734381,7.796036 3.732877,7.795425 3.69599,7.77872 3.664366,7.767964 3.639508,7.756833 3.631791,7.750547 3.611211,7.730691 3.58863,7.695101 3.563928,7.660373 3.552897,7.643507 3.530067,7.621737 3.511843,7.590582 3.496951,7.580714 3.489547,7.568737 3.484191,7.562171 3.412336,7.468343 3.38568,7.437651 3.374513,7.426594 3.330605,7.371711 3.208126,7.238188 3.160023,7.18727 3.156899,7.183467 3.154924,7.180368 3.146896,7.169939 3.136148,7.163736 3.097225,7.129381 3.093444,7.126263 3.088734,7.122444 3.080463,7.116162 2.975709,7.015582 2.870563,6.939989 2.866939,6.937852 2.862497,6.931845 2.850055,6.924854 2.839166,6.915359 2.802073,6.889581 2.777764,6.882284 2.635018,6.890355 2.607807,6.865465 2.586355,6.852166 2.515688,6.842743 2.463475,6.844566 2.317055,6.8541 2.270666,6.85477 2.261476,6.860928 2.242478,6.865818 2.219058,6.859495 2.180925,6.919214 2.183803,6.950257 2.179249,6.963111 2.17038,6.967992 2.166962,6.979089 2.163357,6.983523 2.134631,6.995147 2.122816,6.998063 2.109069,7.00063 2.094371,6.998161 2.072649,6.986989 2.059905,6.987588 2.031004,6.983945 2.025527,6.985979 2.00027,6.987993 1.988492,6.992445 1.973992,6.997575 1.944698,7.004031 1.939217,7.00356 1.922417,7.005778 1.906819,7.001193 1.885986,6.994334 1.871866,6.9905 1.849963,6.966433 1.836899,6.964488 1.797216,6.931069 1.760623,6.923471 1.695492,6.958963 1.68609,6.969698 1.671367,6.989802 1.663328,7.001367 1.646492,7.016194 1.645026,7.017726 1.628146,7.026843 1.623833,7.029059 1.623302,7.029349 1.568506,7.043601 1.556646,7.046686 1.539122,7.047568 1.534391,7.047766 1.516475,7.046158 1.51231,7.045782 1.508481,7.044923 1.49005,7.040669 1.487689,7.039834 1.417793,7.013458 1.4046,7.071605 1.403447,7.076687 1.403354,7.077097 1.401435,7.085558 1.401041,7.099917 1.398702,7.14056 1.388407,7.169357 1.388841,7.180195 1.369857,7.220623 1.355286,7.250021 1.350995,7.256773 1.33322,7.265534 1.31831,7.272092 1.298696,7.275498 1.288868,7.274852 1.252485,7.295544 1.206891,7.341617 1.153521,7.367281 1.103735,7.39059 1.071572,7.403086 1.051118,7.429172 1.035257,7.434639 0.983098,7.456016 0.928408,7.475372 0.90077,7.483981 0.883574,7.489508 0.882802,7.489359 0.871219,7.486873 0.841874,7.472519 0.803184,7.495837 0.793232,7.5153 0.789694,7.535006 0.780477,7.538851 0.702778,7.606576 0.684365,7.6201 0.681874,7.622472 0.631731,7.652572 0.62819,7.655149 0.602116,7.667473 0.571018,7.685664 0.576877,7.739997 0.576546,7.746306 0.566086,7.761102 0.562355,7.764241 0.543008,7.781361 0.519489,7.79669 0.49234,7.811934 0.48793,7.812226 0.455072,7.82566 0.447255,7.82401 0.38655,7.795273 0.374385,7.776239 0.28639,7.714881 0.271025,7.69913 0.253868,7.69551 0.164692,7.624395 0.139386,7.597765 0.111832,7.532221 0.110139,7.522609 0.10769,7.450328 0.120849,7.392644 0.12399,7.37335 0.118432,7.340811 0.113211,7.307401 0.111375,7.198327 0.100014,7.164715 0.136279,6.980883 0.174744,6.790215 0.222453,6.686532 0.208833,6.648103 0.211095,6.602995 0.242872,6.449307 0.261498,6.370279 0.278043,6.289639 0.29682,6.215969 0.287161,6.194387 0.3027,6.041419 0.303857,5.98798 0.307551,5.96463 0.311298,5.951118 0.321371,5.936908 0.357402,5.784286 0.375869,5.699588 0.369079,5.666045 0.371764,5.642115 0.375737,5.631903 0.379488,5.617477 0.378837,5.605107 0.375357,5.584085 0.377173,5.558188 0.378526,5.541009 0.387807,5.511169 0.39081,5.475298 0.463628,5.224527 0.472248,5.211823 0.486941,5.176228 0.49285,5.139552 0.476996,5.095472 0.467011,5.043077 0.44747,4.982076 0.42266,4.764604 0.419266,4.745066 0.419614,4.741355 0.424272,4.707169 0.426577,4.682161 0.42573,4.653647 0.435842,4.606455 0.435576,4.601361 0.449775,4.566473 0.457329,4.52835 0.47357,4.47231 0.47208,4.425651 0.452865,4.371442 0.446722,4.359336 0.442148,4.334689 0.442195,4.325592 0.438952,4.32012 0.435058,4.300485 0.424934,4.254739 0.424147,4.23855 0.424385,4.20349 0.428962,4.074212 0.432739,4.046069 0.439817,4.014065 0.46282,3.871685 0.476115,3.834802 0.479905,3.806004 0.486309,3.774643 0.487703,3.753176 0.478788,3.732225 0.471305,3.72008 0.417084,3.574459 0.402004,3.490392 0.385968,3.401659 0.376315,3.351626 0.375141,3.326417 0.370361,3.250927 0.376817,3.218491 0.375411,3.191002 0.361752,3.166889 0.324176,2.993787 0.317047,2.969554 0.312521,2.96302 0.310411,2.957964 0.306654,2.944164 0.302918,2.920179 0.301707,2.900606 0.28208,2.779613 0.286937,2.75458 0.287437,2.715423 0.297018,2.697065 0.28021,2.631004 0.251631,2.515913 0.203767,2.364075 0.202392,2.356377 0.201218,2.348835 0.200898,2.337383 0.212633,2.262514 0.201721,2.172029 0.172601,2.113335 0.124834,1.98667 0.124954,1.975684 0.116776,1.930774 0.096184,1.757606 0.10583,1.737471 0.110796,1.707599 0.106392,1.678614 0.104203,1.641503 0.111831,1.610012 0.114546,1.575432 0.116725,1.566417 0.116255,1.557727 0.108734,1.391018 0.110956,1.383794 0.136136,1.310643 0.138802,1.303546 0.140527,1.300426 0.146476,1.294351 0.270282,1.208537 0.368259,1.142421 0.392937,1.113353 0.405881,1.108225 0.412632,1.104888 0.445557,1.088913 0.455977,1.086099 0.490087,1.100251 0.492767,1.100125 0.494584,1.100891 0.528962,1.118435 0.54802,1.131275 0.56219,1.146939 0.566352,1.151059 0.576547,1.165301 0.577493,1.183401 0.6217,1.254586 0.667104,1.270906 0.744429,1.33526 0.770238,1.354192 0.775888,1.363997 0.785027,1.369878 0.792174,1.393222 0.818828,1.433852 0.88527,1.422706 0.901063,1.427484 0.983224,1.463436 1.047477,1.493543 1.065481,1.496462 1.077743,1.502936 1.09013,1.507427 1.112536,1.529783 1.153524,1.54434 1.250216,1.618191 1.266282,1.624006 1.266947,1.624028 1.288034,1.636483 1.325554,1.639148 1.339015,1.649628 1.350994,1.654849 1.370591,1.69246 1.392984,1.723216 1.392378,1.761294 1.394501,1.777224 1.40071,1.82244 1.403541,1.836044 1.40484,1.841905 1.417349,1.898329 1.487688,1.871786 1.49005,1.870952 1.508481,1.866697 1.51231,1.865839 1.516475,1.865461 1.534392,1.863855 1.539124,1.864052 1.556645,1.864931 1.568504,1.868016 1.623302,1.882269 1.628146,1.884776 1.645026,1.893894 1.646492,1.895425 1.663327,1.91025 1.671367,1.921816 1.68609,1.941921 1.695491,1.952655 1.712034,1.962018 1.717688,1.965322 1.718563,1.965834 1.74884,1.982984 1.774955,1.978349 1.776455,1.978082 1.78233,1.977039 1.783502,1.976831 1.785082,1.976551 1.809845,1.972159 1.831756,1.958028 1.838808,1.952757 1.846361,1.948159 1.860198,1.934675 1.871315,1.9309 1.883352,1.917557 1.894984,1.91423 1.909657,1.910236 1.912993,1.909553 1.930834,1.905808 1.955611,1.909643 1.985504,1.916112 2.003703,1.925843 2.02438,1.925613 2.032514,1.928763 2.096189,1.915331 2.106809,1.910918 2.123529,1.913587 2.13575,1.91696 2.146385,1.919206 2.158017,1.924517 2.16694,1.929267 2.170381,1.943629 2.179252,1.948507 2.183804,1.961358 2.180787,1.992106 2.218941,2.051671 2.243018,2.046291 2.272083,2.053717 2.304954,2.052068 2.341839,2.0528 2.566035,2.059489 2.593549,2.057221 2.607807,2.046162 2.623231,2.03307 2.625307,2.033201 2.643945,2.023874 2.661473,2.023908 2.682364,2.024155 2.721051,2.039781 2.769914,2.030587 2.802569,2.021764 2.82895,2.008732 2.967473,1.901087 2.996796,1.880383 3.018536,1.859722 3.066561,1.819836 3.09365,1.784253 3.135444,1.748324 3.148781,1.740455 3.159806,1.726988 3.166529,1.720528 3.188084,1.70096 3.203735,1.681318 3.256727,1.622169 3.265172,1.617856 3.28418,1.588146 3.304497,1.558984 3.342928,1.524855 3.352715,1.509029 3.374498,1.485587 3.383438,1.476337 3.394265,1.468386 3.402655,1.453261 3.407454,1.449013 3.460673,1.380881 3.468931,1.37092 3.477968,1.359336 3.487124,1.344382 3.502385,1.324519 3.519734,1.310694 3.528323,1.292156 3.532869,1.290108 3.555196,1.263666 3.566031,1.24714 3.590318,1.211676 3.593111,1.206774 3.608247,1.189459 3.616421,1.18048 3.643535,1.153671 3.657569,1.145336 3.682357,1.134917 3.71246,1.11757 3.71326,1.117283 3.717455,1.117597 3.735178,1.11391 3.735577,1.114094 3.753691,1.123823 3.759615,1.122879 3.771694,1.134494 3.823425,1.130777 3.844663,1.120459 3.857597,1.120598 3.896073,1.114532 3.914556,1.112391 3.977204,1.077797 4.005653,1.073991" style="fill: white" /><polygon type="hole" points="4.312417,2.281671 4.024508,2.376435 4.022944,2.376615 4.020072,2.376575 3.889761,2.385796 3.478162,2.414968 3.399859,2.46349 3.26641,2.566849 3.1554,2.711094 3.141455,2.730053 3.075557,2.806512 3.029821,2.88652 3.025522,2.89668 3.02136,2.909386 3.005673,2.924487 3.004358,2.928595 2.987801,2.948632 2.882135,3.088272 2.868955,3.12123 2.767685,3.344805 2.754959,3.377426 2.745032,3.395091 2.70949,3.509983 2.666082,3.663835 2.660117,3.713165 2.662248,3.849782 2.658893,3.859243 2.667652,3.883328 2.70177,3.950857 2.700983,3.961574 2.707231,4.003065 2.692263,4.030836 2.693947,4.068247 2.711754,4.089159 2.732959,4.111516 2.74616,4.12559 2.756241,4.146843 2.765137,4.161773 2.763617,4.171264 2.743873,4.194999 2.715418,4.277924 2.710765,4.291489 2.697077,4.323561 2.695306,4.327388 2.650055,4.425313 2.626009,4.476897 2.631392,4.518083 2.655214,4.536713 2.750736,4.658141 2.762978,4.68509 2.768384,4.700174 2.767853,4.702762 2.765659,4.710212 2.758647,4.73404 2.710206,4.812816 2.685717,4.848726 2.705826,4.890908 2.707569,4.895707 2.709123,4.899055 2.68384,4.990175 2.682679,4.993277 2.659504,5.041657 2.653756,5.150418 2.66427,5.228205 2.700373,5.357994 2.74625,5.525548 2.87,5.796164 2.880904,5.818384 2.908575,5.858634 2.920746,5.874255 3.011989,5.990087 3.021205,5.99711 3.028991,6.024694 3.056445,6.073756 3.114518,6.156355 3.205588,6.263874 3.28291,6.358106 3.456197,6.480414 3.476965,6.496087 3.594394,6.515036 3.675936,6.520836 3.756366,6.52448 3.984126,6.528628 3.98454,6.528819 4.270194,6.612195 4.31775,6.628383 4.332258,6.628991 4.422195,6.63283 4.449912,6.632402 4.476545,6.600023 4.575885,6.587864 4.701614,6.584622 5.142665,6.550305 5.216303,6.537309 5.298977,6.516048 5.362273,6.499193 5.502479,6.420324 5.859096,6.246145 5.925536,6.227832 6.000104,6.214819 6.165753,6.154329 6.299257,6.100959 6.537584,5.977074 6.692667,5.894115 6.803323,5.81557 6.838298,5.78648 6.86322,5.766564 7.023568,5.634523 7.127261,5.54901 7.131213,5.530825 7.174767,5.428045 7.200335,5.346916 7.227392,5.287984 7.30199,5.173843 7.316178,5.151113 7.347627,5.037225 7.347612,5.017747 7.385119,4.934106 7.42806,4.809434 7.452851,4.745001 7.485118,4.621955 7.49773,4.492496 7.502465,4.461901 7.500249,4.426132 7.481278,4.2522 7.467709,4.187578 7.45506,4.14001 7.42638,4.092017 7.413539,4.018042 7.375956,3.952898 7.358916,3.90716 7.32789,3.794687 7.313319,3.759111 7.303176,3.739549 7.221777,3.607569 7.17604,3.463552 7.148525,3.393691 7.117935,3.358059 7.059626,3.301887 6.987019,3.243286 6.758192,3.077628 6.721316,3.04906 6.699898,3.029276 6.514536,2.918394 6.441735,2.882546 6.408732,2.855821 6.363939,2.832841 6.315522,2.81553 6.234053,2.782185 6.051415,2.711698 5.945711,2.695105 5.911417,2.681337 5.781918,2.632603 5.617709,2.550006 5.357386,2.411091 5.321266,2.399831 5.183837,2.365437 4.826096,2.354169 4.695113,2.326948 4.563893,2.320804 4.499908,2.306159 4.497562,2.304909 4.489321,2.294752 4.440687,2.289055 4.336469,2.275629" style="fill: black" /><polygon type="contour" points="5.771673,2.927206 5.800397,2.930185 5.837336,2.938213 5.840077,2.939257 5.841543,2.940524 5.87263,2.962705 5.902227,2.977816 5.937076,2.997308 5.953935,3.035899 5.9569,3.041307 5.958519,3.048822 5.974566,3.088912 5.972112,3.140202 5.966351,3.17052 5.966049,3.197407 5.966211,3.239846 5.958956,3.264081 5.943851,3.410339 5.943054,3.42145 5.940066,3.429939 5.930698,3.531945 5.937621,3.58292 5.93882,3.652833 5.947784,3.749002 6.006871,3.93088 6.026877,3.979487 6.031957,3.997284 6.105367,4.153277 6.135261,4.193472 6.161564,4.231586 6.195482,4.282493 6.20294,4.304505 6.211454,4.353465 6.211399,4.355331 6.218863,4.453665 6.227739,4.482686 6.223291,4.526475 6.202007,4.614261 6.193496,4.639743 6.138671,4.737768 6.083525,4.843113 6.042239,4.883129 6.03324,4.899711 5.971426,5.082646 5.9497,5.148636 5.944615,5.183194 5.94185,5.2087 5.939208,5.329499 5.940608,5.341587 5.932817,5.411443 5.936431,5.448856 5.953816,5.52224 5.954779,5.58184 5.961688,5.623044 5.966495,5.663137 5.962015,5.692679 5.964525,5.718943 5.973887,5.799527 5.965612,5.83433 5.943404,5.877861 5.932779,5.898978 5.922568,5.919504 5.897506,5.946266 5.896945,5.946777 5.891659,5.950172 5.879326,5.956272 5.876951,5.959335 5.871301,5.962555 5.818649,5.984954 5.778679,5.988192 5.754179,5.98626 5.749888,5.985077 5.742368,5.984393 5.678637,5.975229 5.656006,5.970378 5.621047,5.957449 5.581963,5.938679 5.529377,5.941818 5.524217,5.940419 5.421762,5.886271 5.420363,5.885974 5.384507,5.854206 5.317559,5.810219 5.289868,5.791555 5.251702,5.760417 5.218244,5.718812 5.151626,5.620536 5.133299,5.592509 5.130163,5.58661 5.114826,5.548143 5.065271,5.420454 5.052763,5.377419 5.042582,5.283082 5.037554,5.268752 5.020126,5.226385 5.003919,5.089467 5.00391,5.089205 5.01391,4.990814 5.014779,4.923321 5.015774,4.918111 5.017213,4.911499 5.05329,4.760475 5.07144,4.69804 5.079503,4.63606 5.088261,4.595141 5.08772,4.547016 5.085936,4.354158 5.084995,4.336858 5.071703,4.233712 5.064526,4.213114 5.044725,4.09402 5.032622,4.057598 5.027454,4.019402 5.012981,3.920086 5.009103,3.887184 5.008825,3.857714 5.012795,3.737144 5.016397,3.712164 5.019558,3.691246 5.029379,3.623345 5.040773,3.577161 5.060678,3.505276 5.088963,3.419537 5.114007,3.360595 5.141302,3.307203 5.172483,3.264472 5.199928,3.217511 5.212338,3.198528 5.221385,3.187736 5.251209,3.154745 5.276938,3.130466 5.341527,3.087136 5.361927,3.074992 5.371703,3.070667 5.378599,3.061508 5.408976,3.038168 5.440172,3.015842 5.51703,2.975245 5.54166,2.968455 5.581602,2.963254 5.593309,2.95622 5.613761,2.946809 5.673163,2.934228 5.702077,2.9296 5.736081,2.926802" style="fill: white" />
</svg>
