<svg width="13.600213" height="8.910821">
<polygon type="contour" points="6.488541,2.092919 6.496144,2.093161 6.529853,2.121229 6.727545,2.164879 6.774027,2.173793 6.845975,2.192727 6.886616,2.207044 6.966104,2.247233 7.026195,2.272726 7.078133,2.290618 7.199521,2.319197 7.247507,2.315657 7.303695,2.32756 7.324265,2.326959 7.358513,2.339388 7.364638,2.342045 7.374358,2.345032 7.397168,2.355389 7.46442,2.348079 7.488036,2.352722 7.518822,2.36077 7.522348,2.36007 7.530847,2.366747 7.563915,2.376952 7.60877,2.396004 7.626916,2.39794 7.643801,2.408577 7.665461,2.429724 7.680165,2.435902 7.708084,2.451907 7.716927,2.45906 7.730264,2.468125 7.753004,2.488211 7.794325,2.513912 7.837386,2.547197 7.863575,2.556311 7.954854,2.680121 7.974384,2.707471 7.973705,2.715146 7.997674,2.819289 7.98584,2.881816 8.003051,2.929516 8.015984,2.941353 8.026604,2.956722 8.029473,2.987252 8.087437,3.075833 8.131937,3.132239 8.189002,3.202917 8.229206,3.257977 8.262932,3.274519 8.29364,3.299871 8.322071,3.335556 8.382026,3.408749 8.401538,3.43648 8.521815,3.597537 8.654985,3.769022 8.689841,3.816776 8.715546,3.861051 8.725142,3.91989 8.734894,3.9504 8.82005,4.135472 8.831452,4.183221 8.868253,4.262571 8.899106,4.337417 8.894311,4.382089 8.894964,4.413307 8.910662,4.450581 8.911602,4.455809 8.91049,4.462222 8.894276,4.499292 8.906525,4.563662 8.908524,4.575089 8.852865,4.680363 8.844274,4.699947 8.833247,4.738933 8.794683,4.863589 8.743651,4.99576 8.717736,5.049898 8.645247,5.151703 8.610733,5.228475 8.606851,5.234001 8.603682,5.238334 8.443986,5.427254 8.386809,5.513341 8.298706,5.602523 8.267902,5.63118 8.263936,5.637396 8.245535,5.650001 8.211031,5.6824 8.203723,5.695318 8.128148,5.794099 8.080985,5.848476 8.056188,5.877687 8.033478,5.927663 8.032131,5.947054 8.024625,5.960424 7.996725,5.990897 7.990153,6.065529 7.983076,6.121911 7.961787,6.212681 7.950467,6.239288 7.940459,6.255972 7.908186,6.315777 7.897701,6.328273 7.875952,6.348506 7.850436,6.355826 7.748887,6.431088 7.722793,6.450681 7.664838,6.490744 7.643029,6.503912 7.619228,6.517023 7.571132,6.530253 7.541079,6.537008 7.534675,6.540825 7.491307,6.557982 7.44493,6.563886 7.396095,6.556632 7.305851,6.578105 7.287191,6.584181 7.203048,6.597969 7.121073,6.615557 7.008816,6.654982 6.856967,6.720646 6.734908,6.749978 6.580475,6.785839 6.534279,6.794354 6.487047,6.814324 6.43384,6.834942 6.411194,6.835168 6.362711,6.827004 6.304177,6.821252 6.29559,6.819866 6.284967,6.813969 6.272899,6.80714 6.230288,6.782566 6.23018,6.782494 6.230131,6.782455 6.230122,6.782071 6.231643,6.771561 6.227254,6.723435 6.21103,6.70144 6.209832,6.689635 6.20339,6.676261 6.20063,6.664045 6.200658,6.661791 6.20097,6.660169 6.201852,6.655608 6.202174,6.653937 6.202714,6.651145 6.220045,6.561438 6.125529,6.548244 6.032115,6.563582 6.020944,6.508797 6.063061,6.454463 6.0748,6.44928 6.087101,6.445987 6.245894,6.403495 6.264606,6.374051 6.313628,6.296911 6.358223,6.246036 6.452452,6.170099 6.496138,6.112218 6.593198,6.055471 6.616937,6.033299 6.636221,6.01947 6.8759,5.8511 6.885955,5.84596 6.896787,5.841565 7.066218,5.761296 7.131585,5.729916 7.204057,5.68559 7.313624,5.636039 7.363481,5.601083 7.444151,5.529938 7.542448,5.428275 7.632425,5.319257 7.65296,5.297715 7.673677,5.275555 7.673688,5.201044 7.732506,5.092586 7.743991,5.07211 7.755339,5.007195 7.759284,4.996645 7.772791,4.970135 7.783953,4.94546 7.782147,4.927018 7.800581,4.903818 7.818917,4.837656 7.840429,4.694658 7.876224,4.629528 7.883643,4.613675 7.889095,4.575985 7.917642,4.455809 7.888577,4.359256 7.881639,4.294642 7.835751,4.20001 7.8345,4.196433 7.834155,4.190904 7.785647,3.991014 7.76125,3.934221 7.738414,3.856697 7.736755,3.823336 7.713859,3.789722 7.678285,3.663625 7.672164,3.641192 7.63275,3.591251 7.507186,3.446592 7.412854,3.351671 7.324801,3.276594 7.216381,3.22778 7.112607,3.176554 6.991438,3.119467 6.934885,3.088405 6.865722,3.062982 6.77641,2.99865 6.649837,2.909531 6.607102,2.878149 6.597103,2.873764 6.555704,2.833111 6.497139,2.797852 6.421794,2.712299 6.356315,2.66127 6.352179,2.654476 6.348122,2.647807 6.335918,2.627751 6.270862,2.609286 6.017779,2.537452 6.016855,2.537189 6.016188,2.536824 6.016367,2.535064 6.017884,2.533072 6.07409,2.453581 6.165972,2.455359 6.17459,2.45446 6.177869,2.454119 6.18273,2.454408 6.234938,2.457526 6.241494,2.392724 6.239185,2.322579 6.219784,2.30682 6.204852,2.278889 6.200217,2.253285 6.200225,2.251208 6.20236,2.241975 6.212241,2.208629 6.227245,2.188268 6.231508,2.141281 6.230104,2.132393 6.230171,2.129793 6.230365,2.129601 6.231505,2.128873 6.296262,2.090889 6.310755,2.082655 6.317296,2.079703 6.347332,2.074668" style="fill: white" /><polygon type="contour" points="6.150399,3.214853 6.160039,3.215583 6.17658,3.21991 6.187817,3.226381 6.230275,3.237576 6.269326,3.257609 6.286204,3.269005 6.38215,3.32348 6.384408,3.32418 6.38559,3.325136 6.388425,3.327784 6.404682,3.345368 6.421368,3.351228 6.444638,3.364557 6.496678,3.402682 6.510166,3.41307 6.542963,3.452591 6.571708,3.489628 6.576516,3.497259 6.586052,3.525393 6.596824,3.557413 6.606374,3.568388 6.691725,3.68068 6.710129,3.709293 6.72978,3.746725 6.743643,3.764231 6.808468,3.877577 6.824822,3.914936 6.84068,3.94668 6.889017,4.029981 6.900225,4.05051 6.901766,4.053914 6.933723,4.140087 6.940993,4.15175 6.944717,4.17449 6.958186,4.194947 6.980435,4.281791 6.998443,4.347865 7.007776,4.383901 7.01304,4.411155 7.016574,4.44101 7.001699,4.50948 6.99415,4.549321 6.993801,4.566278 6.996355,4.59684 6.976763,4.659637 6.965122,4.695084 6.94069,4.740264 6.93385,4.7633 6.91248,4.824604 6.889477,4.860318 6.885475,4.874475 6.873716,4.894492 6.868598,4.917004 6.853592,4.951084 6.81854,5.010448 6.781527,5.077977 6.774409,5.089043 6.773469,5.094323 6.735936,5.162758 6.689617,5.227988 6.667751,5.263138 6.655713,5.284463 6.636754,5.331915 6.593546,5.391801 6.560817,5.433104 6.541235,5.447408 6.506854,5.496762 6.489387,5.515494 6.452868,5.556704 6.436026,5.570271 6.404491,5.59184 6.388608,5.598172 6.359224,5.607606 6.298069,5.642265 6.280093,5.650532 6.257748,5.662072 6.24424,5.66969 6.24255,5.672134 6.236594,5.67622 6.236455,5.676333 6.230958,5.678589 6.226644,5.678766 6.221471,5.678977 6.220654,5.679011 6.210833,5.679056 6.188622,5.68172 6.167002,5.684898 6.101113,5.697511 6.065417,5.698726 6.057945,5.697479 6.054773,5.695451 6.033435,5.690893 6.018339,5.689661 5.994616,5.68016 5.965105,5.684897 5.956097,5.682152 5.922513,5.665496 5.86624,5.60382 5.863266,5.60026 5.862415,5.599062 5.83644,5.561619 5.834272,5.538485 5.825031,5.442848 5.826123,5.390546 5.833702,5.358162 5.838908,5.323785 5.855651,5.263813 5.861016,5.232934 5.894619,5.131423 5.897184,5.123802 5.900143,5.117837 5.967418,4.989908 6.032096,4.901079 6.076794,4.839864 6.08598,4.828494 6.117636,4.796849 6.177847,4.740077 6.21424,4.726398 6.222666,4.694582 6.245356,4.673246 6.298916,4.617818 6.325387,4.597087 6.345834,4.594888 6.406917,4.478604 6.405667,4.465792 6.40698,4.43433 6.383413,4.395971 6.367769,4.370262 6.30861,4.309476 6.264685,4.261832 6.237812,4.238735 6.223638,4.216305 6.191287,4.177065 6.106754,4.106794 6.071594,4.070969 6.031378,4.008214 5.993714,3.951436 5.937737,3.843429 5.934206,3.833185 5.91847,3.805399 5.896639,3.766607 5.880755,3.722546 5.866177,3.704542 5.840043,3.603133 5.834566,3.577373 5.823478,3.510429 5.822905,3.501574 5.838081,3.425048 5.834918,3.385328 5.84076,3.362647 5.87059,3.318952 5.898178,3.264825 5.898494,3.263996 5.899111,3.26333 5.901339,3.261806 5.963259,3.22444 5.96954,3.221757 6.053999,3.214206 6.073017,3.215124 6.084532,3.214557 6.089292,3.212689" style="fill: white" /><polygon type="contour" points="0.765124,1.665869 0.840631,1.69039 0.856225,1.697553 0.867522,1.703942 0.878641,1.715356 0.922806,1.762809 0.953867,1.819508 0.959069,1.852522 0.96942,1.869886 0.994278,1.888968 1.004812,1.892272 1.027212,1.898455 1.068551,1.926201 1.103332,1.947785 1.214185,2.059011 1.23879,2.084699 1.243104,2.09573 1.248286,2.119512 1.266286,2.141844 1.315157,2.168491 1.363256,2.211578 1.479592,2.28145 1.499418,2.288233 1.503345,2.290608 1.518214,2.297662 1.526931,2.30711 1.699898,2.394925 1.714894,2.387609 1.778076,2.386202 1.800133,2.378583 1.808206,2.375315 1.831917,2.376987 1.88243,2.36297 1.893322,2.352457 1.90353,2.34989 1.930597,2.333137 1.966012,2.3274 1.969771,2.323937 1.979052,2.32109 1.999164,2.319677 2.016013,2.313156 2.035593,2.310091 2.072237,2.297044 2.136455,2.290777 2.155318,2.279886 2.164445,2.270058 2.17916,2.267011 2.291558,2.236337 2.423906,2.209709 2.512613,2.185815 2.548975,2.184448 2.570633,2.177031 2.592569,2.174978 2.61926,2.170416 2.729854,2.133003 2.758847,2.123101 2.768126,2.12432 2.790576,2.116162 2.798738,2.11211 2.811179,2.111855 2.817426,2.105687 2.824127,2.104529 2.839128,2.092981 2.875589,2.072086 2.887803,2.066606 2.962504,2.003058 2.963689,1.995918 2.976065,1.983854 2.98268,1.970733 2.99057,1.95903 3.000816,1.950947 3.004727,1.942115 3.017104,1.929513 3.023356,1.921561 3.041772,1.911109 3.043031,1.901738 3.045368,1.899469 3.046587,1.897369 3.050984,1.893201 3.07216,1.876566 3.083543,1.86676 3.085218,1.865736 3.088515,1.863688 3.121144,1.854713 3.153184,1.823214 3.206808,1.795793 3.234591,1.790116 3.25542,1.781867 3.290501,1.773601 3.304065,1.764415 3.311821,1.76135 3.336731,1.764834 3.345536,1.760652 3.371231,1.754844 3.382439,1.749714 3.395528,1.750483 3.400616,1.747929 3.423285,1.749478 3.435575,1.733854 3.450975,1.727919 3.455488,1.724445 3.472139,1.718944 3.503773,1.714966 3.523414,1.716561 3.54962,1.705228 3.584227,1.70188 3.685385,1.710559 3.697319,1.710423 3.708833,1.708792 3.723981,1.711894 3.732947,1.708607 3.756817,1.711934 3.761871,1.7119 3.791338,1.723575 3.794299,1.725886 3.798721,1.730195 3.835045,1.757797 3.849913,1.781833 3.85655,1.794833 3.864703,1.828 3.898197,1.830056 3.913799,1.852799 3.923218,1.87279 3.945451,1.904662 3.986574,2.000076 3.984432,2.00786 3.925468,2.10244 4.265926,2.071792 4.403811,2.05938 4.65216,2.042922 4.74786,2.048937 4.851648,2.073466 4.851828,2.073711 4.817229,2.148309 4.804679,2.167262 4.772383,2.186085 4.654232,2.227191 4.53588,2.263175 4.490711,2.269203 4.344167,2.283691 4.021022,2.307596 3.865983,2.319066 3.843094,2.397594 3.833412,2.421092 3.827528,2.435084 3.823388,2.454958 3.818681,2.468129 3.816701,2.471189 3.806377,2.487284 3.802336,2.503009 3.796461,2.530863 3.775504,2.571127 3.768422,2.580897 3.754685,2.592982 3.704073,2.63022 3.667449,2.640567 3.657236,2.63984 3.641174,2.648999 3.615896,2.667866 3.600885,2.676873 3.591783,2.685846 3.578949,2.706517 3.519681,2.758882 3.491492,2.790214 3.469033,2.808104 3.440905,2.832599 3.357286,2.887478 3.318357,2.906575 3.277753,2.930343 3.193618,2.984671 3.139316,3.003219 3.107752,3.036461 3.015883,3.117175 2.943369,3.179286 2.9074,3.227991 2.892093,3.252824 2.814563,3.362315 2.724483,3.49334 2.595906,3.69448 2.566257,3.735519 2.567639,3.750796 2.52854,3.983281 2.51439,4.090336 2.503158,4.280109 2.502052,4.473563 2.502035,4.623464 2.511803,4.797895 2.557567,5.086216 2.570487,5.173572 2.584038,5.209144 2.613326,5.246443 2.741355,5.441034 2.819508,5.564182 2.882483,5.650947 2.950837,5.729542 2.966362,5.753852 3.004437,5.78691 3.107769,5.880639 3.200457,5.946865 3.294578,5.994514 3.349143,6.029229 3.369081,6.037655 3.370937,6.039647 3.437543,6.076947 3.45821,6.094392 3.571528,6.197621 3.59308,6.228562 3.616638,6.244622 3.648031,6.269599 3.664386,6.269475 3.711555,6.284824 3.742419,6.308888 3.748962,6.311648 3.765452,6.320495 3.778584,6.34868 3.787922,6.3652 3.794694,6.377335 3.798188,6.392869 3.806487,6.424847 3.809507,6.429317 3.823156,6.468115 3.833772,6.499383 3.844942,6.526775 3.846314,6.5446 3.854159,6.554842 3.857142,6.592065 4.241394,6.616623 4.314382,6.621289 4.39977,6.631561 4.448318,6.637167 4.650743,6.683195 4.773977,6.726962 4.807495,6.747341 4.826563,6.766403 4.851042,6.837499 4.850971,6.838426 4.850281,6.838569 4.744543,6.864142 4.690242,6.866288 4.417533,6.848139 4.171619,6.838622 4.078623,6.834792 3.936068,6.829179 3.986098,6.911093 3.983254,6.927808 3.901948,7.073563 3.899319,7.078577 3.863832,7.089643 3.852069,7.123702 3.845116,7.136655 3.836119,7.150832 3.821278,7.163882 3.80021,7.180374 3.79541,7.184213 3.791521,7.187611 3.777119,7.19308 3.763004,7.199711 3.760402,7.199714 3.755754,7.199296 3.709941,7.202332 3.621489,7.206059 3.526153,7.190872 3.499001,7.195994 3.462751,7.190104 3.450511,7.186228 3.444143,7.179073 3.435952,7.178 3.420801,7.158067 3.401138,7.164241 3.398441,7.16216 3.382864,7.163716 3.382405,7.163023 3.356146,7.152975 3.312168,7.149674 3.302654,7.14629 3.28884,7.13644 3.254996,7.133911 3.236098,7.128889 3.220069,7.122943 3.210099,7.117749 3.168599,7.098759 3.167357,7.098153 3.166242,7.097413 3.143378,7.078361 3.133044,7.07411 3.126046,7.067125 3.10248,7.05646 3.068529,7.035181 3.054852,7.023906 3.034033,6.996097 3.018693,6.98793 3.017842,6.984128 3.003897,6.969127 2.988807,6.948062 2.983411,6.941373 2.981919,6.938141 2.959836,6.903951 2.955488,6.897056 2.919005,6.86499 2.914448,6.867829 2.879964,6.839731 2.868552,6.834657 2.863046,6.830278 2.824781,6.810025 2.799071,6.795705 2.762538,6.787814 2.759722,6.788082 2.710355,6.774608 2.653542,6.758676 2.638602,6.750184 2.610386,6.742384 2.547478,6.722352 2.542975,6.720627 2.536288,6.718317 2.40899,6.702069 2.396192,6.694588 2.19995,6.656364 2.196527,6.655327 2.195549,6.655125 2.189689,6.653126 2.126235,6.617951 2.067053,6.611879 2.030129,6.599507 2.016783,6.595353 1.979659,6.591493 1.961941,6.580384 1.938256,6.57669 1.909613,6.559942 1.842147,6.541036 1.841386,6.541346 1.823624,6.536664 1.762845,6.525908 1.723846,6.526585 1.678266,6.517424 1.654995,6.52883 1.633999,6.535481 1.552079,6.579056 1.52485,6.605967 1.516504,6.614953 1.504257,6.620385 1.499007,6.623624 1.48066,6.629676 1.363059,6.699914 1.268874,6.781027 1.24865,6.793572 1.24389,6.813827 1.238208,6.827778 1.173616,6.879759 1.086587,6.973966 1.078192,6.980708 1.069457,6.984685 1.055495,6.989444 1.020679,7.004574 0.982122,7.03021 0.973534,7.042755 0.954371,7.072509 0.943817,7.097946 0.934126,7.133476 0.92577,7.140118 0.843021,7.221001 0.763562,7.236844 0.7514,7.239799 0.743154,7.242049 0.725604,7.245591 0.708026,7.248505 0.69265,7.245389 0.60756,7.220038 0.512278,7.155023 0.493961,7.137836 0.48188,7.102666 0.428531,6.997465 0.402457,6.941445 0.395337,6.901119 0.398447,6.878203 0.395026,6.866621 0.404931,6.771105 0.379351,6.645794 0.35694,6.518823 0.345449,6.379958 0.353767,6.332365 0.35999,6.279729 0.374412,6.180957 0.380859,6.150646 0.388913,6.043905 0.405796,5.928657 0.424048,5.820328 0.443305,5.718149 0.451643,5.646882 0.45199,5.643798 0.454968,5.600853 0.454785,5.59944 0.455328,5.595291 0.456085,5.591478 0.493082,5.403963 0.504729,5.339116 0.544285,5.20575 0.526484,5.169462 0.524167,5.148457 0.505182,5.091475 0.484543,5.022715 0.440888,4.867896 0.416556,4.776287 0.416349,4.769807 0.416029,4.761727 0.415646,4.752171 0.43384,4.633456 0.431422,4.583447 0.431702,4.578015 0.436797,4.556857 0.453553,4.524195 0.470071,4.484967 0.470165,4.432112 0.467505,4.418941 0.437844,4.349225 0.429635,4.325452 0.422153,4.255395 0.415725,4.153789 0.427746,4.094546 0.427746,4.059324 0.485166,3.895457 0.521611,3.77199 0.528007,3.742392 0.549087,3.693254 0.541103,3.650421 0.529022,3.612168 0.515907,3.581177 0.482849,3.446016 0.472845,3.405781 0.454149,3.311398 0.451546,3.267924 0.439968,3.197501 0.43928,3.160199 0.417707,3.089606 0.397968,2.95707 0.388532,2.889979 0.377903,2.806985 0.382755,2.747451 0.371838,2.641155 0.361207,2.60114 0.352709,2.556801 0.358349,2.459767 0.359681,2.393969 0.366738,2.294804 0.391123,2.234739 0.404797,2.169482 0.409762,2.144662 0.409496,2.088921 0.400406,2.055169 0.396475,2.020328 0.394654,2.013978 0.400386,1.985958 0.405576,1.948184 0.409816,1.933554 0.420612,1.909522 0.465987,1.810604 0.486806,1.781958 0.51575,1.75123 0.60254,1.687539 0.606326,1.684529 0.61139,1.682644 0.718002,1.662067" style="fill: white" />
</svg>
