<svg width="13.600213" height="8.910821">
<polygon type="contour" points="6.126871,1.764384 6.128357,1.764948 6.17172,1.775856 6.190879,1.769149 6.270298,1.767959 6.277724,1.76517 6.324326,1.770868 6.429267,1.795394 6.450824,1.784155 6.498299,1.794547 6.523105,1.796116 6.678171,1.824605 6.756321,1.843718 6.823417,1.857202 6.834304,1.856481 6.950719,1.860756 6.997588,1.848506 7.066431,1.837688 7.180244,1.838197 7.258581,1.837877 7.319225,1.852377 7.342238,1.859468 7.364529,1.88129 7.417358,1.903948 7.451227,1.874844 7.464478,1.864384 7.466332,1.86489 7.485034,1.860285 7.485479,1.860463 7.498791,1.873235 7.510517,1.876121 7.517531,1.882253 7.543308,1.895486 7.564072,1.897617 7.579146,1.896272 7.615999,1.896398 7.63248,1.898113 7.672981,1.885281 7.700723,1.8788 7.734103,1.879558 7.752652,1.875554 7.776744,1.862825 7.786864,1.859892 7.870888,1.831675 7.898693,1.836249 7.945793,1.830127 8.003361,1.812213 8.023064,1.801919 8.035211,1.798091 8.088002,1.80992 8.114273,1.810971 8.124172,1.81457 8.177856,1.833327 8.18421,1.838787 8.289822,1.933124 8.293962,1.952155 8.300632,2.061169 8.314105,2.085129 8.423949,2.198987 8.453349,2.217558 8.527277,2.280471 8.527763,2.280966 8.537916,2.302832 8.587283,2.354282 8.612115,2.376958 8.622997,2.393985 8.656873,2.414012 8.675962,2.422014 8.757017,2.476227 8.776971,2.48924 8.788988,2.497672 8.853664,2.511106 8.869899,2.522058 8.889879,2.520384 8.901483,2.519208 8.974514,2.534911 9.014861,2.554175 9.096436,2.590274 9.200229,2.629618 9.246998,2.658831 9.285432,2.683545 9.296434,2.694325 9.344915,2.712999 9.386787,2.73413 9.416505,2.744382 9.442933,2.75469 9.454001,2.758542 9.475165,2.773378 9.507847,2.758725 9.508092,2.75854 9.508539,2.758381 9.532329,2.753381 9.542956,2.746543 9.558411,2.745563 9.603516,2.754799 9.659408,2.762029 9.683645,2.77339 9.69947,2.778711 9.734349,2.797046 9.801468,2.865583 9.830245,2.90196 9.874799,2.934731 9.990651,3.10275 9.993238,3.108036 10.000279,3.117003 10.007968,3.126947 10.110157,3.255258 10.204872,3.328289 10.300698,3.406134 10.351551,3.441119 10.38996,3.458141 10.405253,3.460866 10.423436,3.470709 10.437623,3.478393 10.457473,3.490559 10.468951,3.494395 10.482136,3.507358 10.520483,3.506635 10.532223,3.511435 10.556115,3.508989 10.573127,3.513182 10.596432,3.521814 10.820734,3.640845 10.836476,3.647388 10.843147,3.65049 10.851873,3.652952 10.858667,3.656857 10.864991,3.660665 10.872314,3.665813 10.880582,3.673662 11.033188,3.775251 11.082896,3.814666 11.121977,3.868488 11.177882,3.953631 11.236701,4.073491 11.25041,4.106825 11.254943,4.121835 11.253361,4.132931 11.248053,4.152712 11.251986,4.168777 11.252399,4.216729 11.236794,4.305858 11.22968,4.351403 11.227143,4.374252 11.225371,4.390956 11.226545,4.397453 11.227307,4.455809 11.223246,4.473135 11.24922,4.644359 11.250939,4.650798 11.251741,4.66522 11.247907,4.672119 11.250109,4.703797 11.25334,4.736839 11.248194,4.7614 11.253619,4.779157 11.254279,4.790204 11.237205,4.823109 11.220789,4.850916 11.169732,4.986311 11.143062,5.027626 11.081336,5.101358 10.84401,5.245773 10.793155,5.278274 10.783946,5.28326 10.743034,5.308176 10.667341,5.350588 10.623418,5.376638 10.58887,5.393355 10.572356,5.397759 10.556119,5.402628 10.532275,5.40019 10.520511,5.404998 10.477893,5.404159 10.443387,5.425881 10.395645,5.453441 10.353379,5.466297 10.287975,5.511549 10.273087,5.518865 10.170121,5.608467 10.127799,5.641148 10.103411,5.66179 9.99693,5.798694 9.986021,5.81439 9.98253,5.821606 9.916732,5.926654 9.830387,6.009698 9.792584,6.053051 9.733078,6.115907 9.697374,6.133865 9.620782,6.150154 9.541487,6.157836 9.525467,6.161711 9.476016,6.13657 9.457566,6.151123 9.399801,6.169996 9.331965,6.201357 9.319505,6.201365 9.303573,6.212822 9.202236,6.279593 9.095567,6.32791 9.021465,6.359023 8.90702,6.393652 8.885131,6.391008 8.864813,6.392182 8.848823,6.395498 8.799569,6.416793 8.777205,6.431997 8.75294,6.442145 8.732088,6.456014 8.706124,6.47417 8.690848,6.480846 8.686098,6.483845 8.681868,6.485778 8.629089,6.514689 8.614006,6.525334 8.603504,6.534978 8.537697,6.60585 8.52776,6.630654 8.524292,6.633684 8.400701,6.747023 8.356015,6.780394 8.344091,6.799559 8.330098,6.809101 8.315535,6.82283 8.301174,6.849349 8.307684,6.926013 8.30538,6.937704 8.30281,6.94811 8.287864,6.986646 8.276806,7.006353 8.234348,7.05167 8.233944,7.052034 8.176,7.080413 8.119112,7.105705 8.108463,7.111591 8.072193,7.118459 8.039499,7.113599 7.916637,7.080178 7.898457,7.072607 7.878889,7.07688 7.85313,7.083225 7.832058,7.070813 7.820551,7.060532 7.803205,7.059852 7.787442,7.05539 7.750529,7.039248 7.713545,7.030463 7.687017,7.039508 7.651845,7.018517 7.629466,7.014538 7.618535,7.012287 7.572589,7.013254 7.537851,7.01559 7.490549,7.047705 7.484713,7.051447 7.464706,7.047274 7.414671,7.006618 7.357821,7.0321 7.332141,7.056599 7.320819,7.058806 7.219977,7.069989 7.056946,7.069818 6.944842,7.064687 6.937224,7.062604 6.873877,7.047848 6.828609,7.042027 6.796973,7.04336 6.745264,7.0523 6.715336,7.068264 6.710283,7.068988 6.697451,7.07325 6.557206,7.11526 6.523603,7.116377 6.492259,7.120738 6.456427,7.119025 6.445245,7.125276 6.433963,7.123657 6.419268,7.115128 6.35815,7.131706 6.206715,7.138754 6.165721,7.139078 6.142337,7.141991 6.135474,7.14413 6.132652,7.143985 6.125574,7.145607 6.120585,7.14557 6.093142,7.157406 6.068886,7.164777 6.043219,7.156133 5.828212,7.179935 5.762209,7.172639 5.749594,7.169599 5.612005,7.141939 5.607981,7.139444 5.591014,7.138971 5.582988,7.139227 5.541723,7.139182 5.433271,7.134519 5.40495,7.132795 5.383425,7.117764 5.28842,7.114001 5.264384,7.112285 5.233485,7.093438 5.138846,7.067788 5.119946,7.0469 5.064882,7.055594 4.969214,7.045819 4.922579,7.036407 4.847578,7.027624 4.804146,7.017115 4.79066,7.012488 4.781084,7.006246 4.719914,6.9878 4.665272,6.971091 4.633385,6.968615 4.604202,6.963677 4.467804,6.94402 4.441963,6.954885 4.423707,6.961639 4.354333,7.013669 4.333922,7.030642 4.264088,7.132264 4.260116,7.136637 4.252924,7.140985 4.238995,7.148303 4.21823,7.152127 4.21742,7.15224 4.197961,7.141196 4.196088,7.140144 4.18681,7.124613 4.174457,7.103511 4.165307,7.059371 4.163838,7.052618 4.159992,6.995114 4.155307,6.806102 4.101349,6.74602 4.065321,6.756265 4.031198,6.747015 4.028351,6.753203 3.980522,6.738881 3.971246,6.736737 3.968804,6.734609 3.857,6.674147 3.773307,6.65009 3.713311,6.659501 3.662512,6.64724 3.610272,6.696521 3.580834,6.71326 3.554912,6.723247 3.526868,6.730363 3.521751,6.731678 3.517418,6.731766 3.493559,6.721478 3.480912,6.712719 3.463859,6.691243 3.445865,6.66291 3.434546,6.63865 3.402974,6.506929 3.382444,6.49623 3.367791,6.481678 3.330073,6.475159 3.286154,6.463833 3.239432,6.492189 3.205393,6.50366 3.161122,6.50218 3.133989,6.509962 3.084989,6.525542 3.075621,6.527159 3.017098,6.527539 3.005789,6.526015 2.99493,6.524796 2.906084,6.506537 2.898276,6.503733 2.861209,6.487939 2.823245,6.465987 2.797466,6.44795 2.780926,6.437583 2.769996,6.427514 2.754933,6.42277 2.729486,6.40994 2.688467,6.391663 2.686873,6.38861 2.663748,6.370543 2.641985,6.334752 2.571552,6.282118 2.533574,6.268498 2.513424,6.250826 2.469999,6.254665 2.453129,6.258851 2.447024,6.260052 2.354165,6.236176 2.214579,6.18618 2.195271,6.176122 2.091698,6.139302 2.088958,6.13116 2.069533,6.095147 2.072684,5.966931 2.063731,5.948921 2.05688,5.931727 2.079261,5.874718 2.072331,5.836955 2.076239,5.823087 2.071399,5.773933 2.07166,5.773194 2.072753,5.771723 2.078309,5.759306 2.117978,5.672906 2.117864,5.66672 2.131018,5.652 2.133331,5.650385 2.142342,5.618393 2.163669,5.617298 2.18677,5.596473 2.196211,5.57579 2.195976,5.553154 2.156673,5.463334 2.146786,5.436901 2.124421,5.398427 2.105998,5.369288 2.099489,5.198893 2.091341,5.100677 2.080205,5.052463 2.06161,4.977767 2.036438,4.889114 2.036974,4.812762 2.042279,4.749529 2.045966,4.718 2.056446,4.701777 2.112902,4.618127 2.138983,4.590027 2.149805,4.579137 2.162196,4.56339 2.167117,4.557355 2.17532,4.542707 2.199846,4.487805 2.19996,4.471472 2.214199,4.456956 2.175334,4.370641 2.149996,4.339146 2.145708,4.33556 2.111428,4.298529 2.087943,4.261016 2.08725,4.260167 2.086224,4.258361 2.051936,4.208798 2.045119,4.191149 2.025639,4.049474 2.025604,4.049021 2.025504,4.048341 2.025526,4.047324 2.025584,4.046865 2.078931,3.887145 2.081695,3.879177 2.09607,3.806177 2.098574,3.760485 2.094006,3.689551 2.093018,3.611167 2.106183,3.541595 2.115944,3.514292 2.145315,3.448774 2.176057,3.392816 2.193513,3.36581 2.195633,3.335945 2.186785,3.31517 2.131548,3.262704 2.123206,3.259147 2.117889,3.25652 2.118103,3.238607 2.109686,3.210501 2.076187,3.150707 2.074594,3.13579 2.076412,3.127451 2.0724,3.069133 2.073304,3.032809 2.066908,3.013819 2.063553,3.008232 2.06281,3.003157 2.06406,2.99237 2.048587,2.892244 2.094062,2.7745 2.144654,2.74094 2.220308,2.714858 2.380352,2.685974 2.485651,2.646874 2.490626,2.647854 2.496837,2.649092 2.507629,2.658169 2.552067,2.645838 2.590006,2.609603 2.639134,2.573152 2.646227,2.564805 2.661464,2.541599 2.684721,2.524507 2.686294,2.521252 2.703255,2.516383 2.711071,2.509919 2.723206,2.508386 2.740544,2.496479 2.767371,2.481374 2.814032,2.451082 2.823174,2.445676 2.861149,2.423713 2.876575,2.417884 2.999225,2.386243 3.007776,2.385301 3.055251,2.38995 3.139256,2.406161 3.163705,2.410742 3.188242,2.406331 3.199668,2.405777 3.210277,2.409539 3.215054,2.421664 3.2901,2.449436 3.363321,2.430318 3.389959,2.420551 3.410579,2.369075 3.422272,2.297788 3.475913,2.212189 3.480768,2.199632 3.503613,2.186537 3.51277,2.181242 3.521355,2.180505 3.538236,2.182146 3.559594,2.190237 3.629288,2.239263 3.631758,2.239894 3.681278,2.272334 3.728555,2.259355 3.882817,2.222732 3.892469,2.218214 3.967206,2.176311 3.97773,2.173125 4.035561,2.161126 4.050488,2.162675 4.088478,2.157641 4.114325,2.151609 4.122724,2.139183 4.151727,2.136225 4.156114,2.09024 4.157411,2.006539 4.16554,1.92228 4.169366,1.857396 4.179039,1.829316 4.182063,1.81285 4.189098,1.784065 4.195658,1.771256 4.215148,1.760782 4.217425,1.759612 4.236662,1.762976 4.238986,1.763333 4.25556,1.772153 4.260825,1.775335 4.262236,1.776758 4.372263,1.915428 4.401179,1.937395 4.450159,1.953486 4.472907,1.962749 4.492743,1.959695 4.542557,1.95958 4.560371,1.956004 4.633381,1.942504 4.64499,1.937851 4.684483,1.933181 4.768929,1.910968 4.794111,1.901997 4.858441,1.892624 4.898118,1.888635 4.982169,1.869875 5.052764,1.859285 5.120107,1.863117 5.148645,1.838845 5.173337,1.830784 5.184947,1.829608 5.209391,1.825153 5.219849,1.821425 5.229008,1.817878 5.239474,1.817686 5.264512,1.808833 5.319966,1.803763 5.334333,1.800952 5.369332,1.802123 5.533861,1.767992 5.562937,1.761526 5.593135,1.758561 5.620416,1.760404 5.638749,1.752642 5.722583,1.754506 5.751103,1.756495 5.760904,1.752405 5.999748,1.74964 6.015752,1.751005 6.044417,1.755776 6.070777,1.746473" style="fill: white" />
</svg>
