<svg width="13.600213" height="8.910821">
<polygon type="contour" points="6.77702,3.454134 6.792074,3.456866 6.805542,3.458361 6.81422,3.457416 6.815776,3.457942 6.822625,3.460257 6.825316,3.460556 6.9202,3.496883 6.931632,3.501723 6.947729,3.518239 7.001936,3.569519 7.010332,3.579693 7.041795,3.60016 7.058341,3.614454 7.122475,3.693203 7.135554,3.713186 7.175249,3.769171 7.183321,3.789093 7.192247,3.794366 7.20426,3.812777 7.239305,3.881844 7.270537,3.936719 7.295687,3.9663 7.317656,4.039887 7.327609,4.063914 7.345118,4.086613 7.370241,4.141718 7.389709,4.180434 7.420144,4.276945 7.43038,4.311378 7.435337,4.348383 7.448639,4.448601 7.449409,4.448872 7.449232,4.453072 7.451868,4.472941 7.432697,4.596897 7.413274,4.657387 7.40541,4.667346 7.394948,4.692755 7.379107,4.776272 7.377387,4.782567 7.376879,4.785182 7.374821,4.787928 7.329747,4.871895 7.32475,4.883903 7.272793,4.98311 7.260561,5.000568 7.221558,5.06926 7.206236,5.092781 7.177303,5.13841 7.14888,5.179757 7.127676,5.207365 7.126058,5.210499 7.097822,5.249495 7.077923,5.273245 7.040362,5.313009 6.994951,5.344072 6.974869,5.37544 6.94272,5.391362 6.92123,5.408979 6.910571,5.414579 6.887582,5.427752 6.85494,5.439469 6.849771,5.443121 6.82771,5.452229 6.779171,5.46645 6.771105,5.47149 6.743407,5.479581 6.687506,5.473674 6.668598,5.472469 6.662693,5.466509 6.644072,5.463653 6.619986,5.459801 6.609399,5.458736 6.606016,5.455734 6.599413,5.454116 6.574906,5.439195 6.565848,5.431105 6.548058,5.397507 6.535726,5.3854 6.528813,5.372393 6.528649,5.35781 6.530449,5.344181 6.524705,5.32462 6.524807,5.319566 6.52501,5.309475 6.520557,5.297322 6.519644,5.29483 6.528554,5.287681 6.515655,5.254966 6.517846,5.221118 6.525955,5.203081 6.552226,5.153552 6.550581,5.104708 6.564301,5.058566 6.633722,4.9617 6.639428,4.950038 6.645266,4.944016 6.677018,4.882966 6.684528,4.869152 6.703845,4.841663 6.738171,4.798705 6.764345,4.745066 6.80488,4.681991 6.862006,4.62702 6.875052,4.616348 6.886693,4.601182 6.904508,4.547106 6.946193,4.435764 6.930275,4.441256 6.931146,4.439371 6.925338,4.417992 6.924727,4.415837 6.923727,4.412997 6.924043,4.407797 6.905779,4.367348 6.905145,4.366196 6.903591,4.362111 6.862092,4.262841 6.842553,4.243628 6.72569,4.095191 6.703183,4.068502 6.70199,4.066628 6.70023,4.062554 6.635176,3.968424 6.608387,3.920873 6.593585,3.881744 6.579504,3.847121 6.554995,3.806717 6.55084,3.787289 6.553139,3.777957 6.529749,3.69672 6.519411,3.647496 6.508808,3.606047 6.508821,3.606038 6.531302,3.504726 6.548327,3.491673 6.574064,3.478734 6.580441,3.459016 6.598133,3.448426 6.61663,3.441669 6.653374,3.438834 6.66596,3.440549 6.674271,3.441682 6.690179,3.44385 6.701084,3.442693 6.727317,3.438613" style="fill: white" /><polygon type="contour" points="6.798263,2.296767 6.851516,2.310235 6.866337,2.309945 6.944655,2.32005 7.063472,2.350129 7.179094,2.375804 7.192378,2.378035 7.208422,2.3805 7.240043,2.395515 7.263891,2.418917 7.287539,2.427211 7.310233,2.446186 7.341932,2.454845 7.352596,2.460717 7.381178,2.482366 7.39508,2.483922 7.466187,2.506215 7.479326,2.505919 7.533819,2.5264 7.557692,2.539872 7.607035,2.578464 7.649542,2.603464 7.801394,2.68492 7.885428,2.74856 7.894447,2.756927 7.902952,2.764755 7.909625,2.769385 7.920015,2.790689 7.938638,2.826374 7.977433,2.910128 7.979575,2.917555 7.984433,2.933908 7.987508,2.955084 7.990148,2.990543 7.992696,3.008528 7.991048,3.020774 7.987893,3.046068 7.981186,3.088903 7.985035,3.12069 8.04573,3.197316 8.095365,3.349403 8.105646,3.36273 8.149036,3.462334 8.236969,3.610593 8.254107,3.637137 8.27003,3.646871 8.277365,3.660299 8.320873,3.700576 8.329444,3.707036 8.353749,3.72806 8.378244,3.753654 8.442337,3.835971 8.483285,3.901986 8.499173,3.919828 8.507669,3.929828 8.513616,3.954404 8.522161,3.96221 8.59038,4.057658 8.614899,4.107812 8.683121,4.283166 8.697256,4.326501 8.698688,4.460002 8.697019,4.492932 8.692029,4.516298 8.658561,4.719429 8.637723,4.756704 8.555407,4.893448 8.549728,4.898313 8.493128,4.983445 8.409674,5.107889 8.373202,5.163 8.311946,5.228 8.276575,5.269163 8.243655,5.293526 8.22084,5.333773 8.146652,5.453071 8.128596,5.512907 8.079864,5.580478 8.02416,5.734004 7.984517,5.793657 7.982128,5.833018 7.988488,5.865112 7.992966,5.89385 7.990364,5.91318 7.979127,5.997951 7.976053,6.006163 7.957663,6.033845 7.922247,6.121515 7.882319,6.173949 7.865611,6.188057 7.785235,6.242217 7.783333,6.243796 7.78024,6.244065 7.756317,6.261418 7.747411,6.267235 7.735627,6.269414 7.725725,6.276816 7.618168,6.339165 7.569953,6.357418 7.547809,6.374 7.524357,6.379325 7.477027,6.404467 7.469032,6.413108 7.434331,6.416739 7.427149,6.417979 7.389004,6.42853 7.377542,6.431688 7.361634,6.44034 7.327721,6.46361 7.307556,6.466769 7.291794,6.481275 7.262566,6.493502 7.24506,6.511791 7.219746,6.524218 7.172622,6.544894 7.166402,6.545431 7.155624,6.549327 7.011288,6.576591 6.916339,6.598366 6.867194,6.60014 6.851581,6.605315 6.736703,6.615734 6.724042,6.614079 6.686221,6.610926 6.653064,6.601739 6.623726,6.581841 6.549012,6.545307 6.534349,6.49842 6.524909,6.451561 6.518235,6.420219 6.504788,6.36789 6.458888,6.363588 6.422951,6.351458 6.418119,6.349822 6.393313,6.333527 6.392025,6.33268 6.425523,6.300263 6.426928,6.298905 6.500724,6.254445 6.501642,6.253892 6.533718,6.247227 6.544826,6.216633 6.549633,6.203396 6.549629,6.199927 6.556083,6.187362 6.565079,6.155831 6.572155,6.149656 6.635363,6.088128 6.653534,6.069193 6.712881,6.010738 6.750743,5.991842 6.814633,5.967531 6.837595,5.941239 6.87834,5.915132 7.034945,5.809634 7.086505,5.777655 7.150069,5.730962 7.257121,5.64357 7.333951,5.600125 7.40106,5.54795 7.48425,5.470429 7.594196,5.331804 7.627483,5.285818 7.634114,5.2705 7.661128,5.227618 7.659052,5.203224 7.665482,5.186098 7.672266,5.143372 7.675619,5.136364 7.706734,5.079308 7.715715,5.0588 7.714362,5.033799 7.719745,5.020584 7.768772,4.916231 7.774176,4.900303 7.770814,4.874641 7.762006,4.833199 7.772321,4.797188 7.777709,4.784241 7.790533,4.757362 7.815212,4.676529 7.858114,4.565161 7.880947,4.526942 7.886703,4.514677 7.889574,4.497488 7.894088,4.408269 7.890347,4.390209 7.863438,4.325007 7.837712,4.275854 7.786892,4.148754 7.7816,4.137428 7.777693,4.127788 7.767889,4.094366 7.76813,4.030949 7.769142,4.01084 7.751433,3.974324 7.713201,3.874341 7.715764,3.851221 7.691043,3.811096 7.680727,3.780612 7.658833,3.708978 7.662152,3.687824 7.613423,3.611588 7.489315,3.446043 7.43599,3.3945 7.34046,3.325486 7.262831,3.268015 7.164732,3.187966 7.056547,3.115072 6.908662,3.011622 6.827209,2.957735 6.803002,2.944038 6.744482,2.917445 6.682892,2.867925 6.68122,2.866581 6.655109,2.841245 6.609258,2.797202 6.58661,2.775014 6.559125,2.76782 6.458472,2.741471 6.455745,2.740351 6.453783,2.739544 6.449639,2.737838 6.44926,2.736982 6.417187,2.664323 6.443922,2.641895 6.444295,2.641582 6.444731,2.641217 6.53629,2.638112 6.515877,2.550472 6.510756,2.508998 6.518395,2.436002 6.523916,2.427935 6.559475,2.383909 6.560994,2.379829 6.568807,2.371541 6.585151,2.347041 6.663658,2.313366 6.716452,2.292882 6.761522,2.289533 6.77668,2.287977" style="fill: white" /><polygon type="contour" points="3.642572,1.846313 3.672619,1.849251 3.707351,1.877222 3.720373,1.89416 3.738536,1.931777 3.748082,1.945661 3.755916,1.950687 3.774373,1.975946 3.812602,1.96755 3.883998,1.946406 3.89685,1.946835 3.905313,1.949274 3.918651,1.955826 3.925517,1.963416 3.950419,1.982044 3.984074,2.023842 3.987268,2.031405 3.988649,2.033196 4.013604,2.126947 4.033107,2.20512 4.209863,2.205587 4.271032,2.20575 4.407626,2.210231 4.440129,2.217238 4.484925,2.231053 4.497891,2.2544 4.511853,2.288044 4.500074,2.315679 4.473941,2.343465 4.399992,2.385642 4.355518,2.402107 4.289678,2.41664 4.080678,2.444483 3.873262,2.464965 3.854218,2.540174 3.828488,2.601857 3.809143,2.657111 3.792555,2.67479 3.778073,2.682921 3.739048,2.690088 3.692834,2.702834 3.672277,2.71303 3.618634,2.754225 3.571282,2.785925 3.550236,2.803626 3.508254,2.834214 3.465572,2.878747 3.368946,2.974713 3.331807,2.988021 3.247836,3.022045 3.236233,3.027971 3.228232,3.032065 3.222292,3.035373 3.189702,3.061071 3.03446,3.182677 2.98347,3.235294 2.942882,3.284803 2.871482,3.402233 2.787179,3.557301 2.759243,3.599904 2.683093,3.708108 2.651314,3.748244 2.643001,3.788874 2.576689,4.130689 2.576591,4.150257 2.576768,4.781117 2.580108,4.801202 2.654103,5.160081 2.669768,5.1931 2.739074,5.274019 2.781995,5.332263 2.847245,5.45686 2.925698,5.605474 3.012768,5.707349 3.037607,5.733664 3.210618,5.868693 3.2245,5.876613 3.230638,5.881024 3.234959,5.884045 3.245152,5.88862 3.259894,5.895088 3.295371,5.906354 3.370867,5.934776 3.397905,5.964781 3.407785,5.970547 3.416741,5.980113 3.456919,6.025663 3.510549,6.075014 3.512603,6.082591 3.534269,6.107051 3.607619,6.154994 3.665903,6.196584 3.710284,6.210122 3.800447,6.244744 3.814143,6.264813 3.829113,6.299437 3.836397,6.323928 3.857315,6.382162 3.86806,6.412081 3.881295,6.448927 4.17884,6.480061 4.247986,6.487906 4.283996,6.491991 4.317163,6.495753 4.328528,6.497225 4.376747,6.512197 4.423206,6.530664 4.473675,6.569133 4.501289,6.598373 4.512243,6.624953 4.498954,6.656334 4.485669,6.680089 4.445896,6.693031 4.394785,6.701061 4.336522,6.704882 4.326656,6.704802 4.15532,6.70341 4.093984,6.699938 4.090237,6.699728 4.083597,6.699352 4.02543,6.700111 4.027715,6.748559 4.016386,6.785621 3.994533,6.846415 3.982605,6.875298 3.953777,6.914112 3.911255,6.959919 3.905293,6.962356 3.896977,6.964782 3.883175,6.96513 3.865437,6.959794 3.774828,6.935387 3.745418,6.969779 3.73836,6.979796 3.725155,7.009038 3.71425,7.028926 3.704454,7.03685 3.667591,7.064547 3.613773,7.071595 3.542136,7.075161 3.53728,7.073797 3.530786,7.075235 3.5162,7.072665 3.427184,7.049301 3.404891,7.045403 3.386128,7.025732 3.364628,7.023462 3.35212,7.019082 3.297645,6.995051 3.282199,6.984178 3.256757,6.968105 3.227701,6.957815 3.215691,6.952605 3.197572,6.938349 3.157622,6.907844 3.14302,6.895252 3.142245,6.894891 3.13582,6.886586 3.111532,6.8654 3.11019,6.865182 3.106626,6.860057 3.099632,6.845897 3.063482,6.831577 3.055167,6.823463 3.038252,6.796576 3.003884,6.79975 2.862565,6.775714 2.857966,6.775971 2.855066,6.774869 2.849071,6.771394 2.73563,6.727397 2.645838,6.667937 2.604141,6.646954 2.580695,6.631328 2.526398,6.58649 2.515016,6.584177 2.487475,6.576056 2.482876,6.571144 2.464265,6.560958 2.44456,6.546426 2.335479,6.519303 2.320729,6.514331 2.314589,6.511572 2.293185,6.498397 2.251648,6.481983 2.190561,6.459905 2.143307,6.434248 2.13273,6.435854 2.124095,6.432402 2.040084,6.397605 1.960433,6.364778 1.949445,6.353319 1.9141,6.338012 1.892747,6.323221 1.871821,6.323149 1.846326,6.3233 1.829078,6.315097 1.792285,6.30724 1.789033,6.30745 1.763156,6.294939 1.750794,6.299623 1.724053,6.287762 1.711628,6.286878 1.698585,6.287694 1.682636,6.277183 1.653355,6.282921 1.625087,6.277625 1.60861,6.291654 1.606014,6.292386 1.603163,6.293951 1.583038,6.297068 1.574154,6.293811 1.549349,6.290285 1.541384,6.295123 1.503882,6.302204 1.470979,6.312573 1.455708,6.318312 1.428605,6.333613 1.423309,6.335474 1.403156,6.346441 1.376459,6.373305 1.344698,6.400847 1.334275,6.412627 1.330631,6.421678 1.31834,6.435611 1.25761,6.495077 1.234729,6.51282 1.220241,6.530254 1.126404,6.661066 1.095117,6.707632 1.087569,6.717376 1.085052,6.72055 1.053934,6.770117 1.03878,6.823267 1.038388,6.824144 1.036819,6.825063 1.005376,6.842165 0.991842,6.862185 0.966424,6.881049 0.949912,6.883924 0.800832,6.866103 0.769779,6.862767 0.750312,6.860573 0.749263,6.860324 0.745191,6.858805 0.741995,6.856635 0.725206,6.823466 0.696078,6.791663 0.67493,6.735622 0.659576,6.693581 0.652154,6.683167 0.632358,6.659156 0.608754,6.588485 0.569599,6.505675 0.55734,6.491815 0.522095,6.358923 0.485053,6.229792 0.473842,6.001218 0.466084,5.952442 0.466148,5.94904 0.468989,5.934349 0.474124,5.918749 0.480608,5.858508 0.485728,5.849486 0.480329,5.807185 0.473231,5.800514 0.466559,5.776905 0.456557,5.754907 0.454445,5.745998 0.454633,5.730448 0.469831,5.549322 0.47321,5.505876 0.473065,5.504969 0.473338,5.503093 0.473998,5.492984 0.480479,5.37527 0.486645,5.344559 0.498168,5.325359 0.508646,5.274873 0.560216,5.091471 0.568037,5.074325 0.567564,5.054725 0.56484,5.029239 0.538808,4.986673 0.498075,4.947092 0.418595,4.828241 0.413851,4.820855 0.407782,4.803198 0.37815,4.7375 0.378278,4.73558 0.365822,4.71181 0.356015,4.677595 0.354708,4.661435 0.339506,4.500071 0.339476,4.49997 0.339477,4.499929 0.339887,4.499007 0.358096,4.455231 0.334379,4.396265 0.344975,4.356936 0.339642,4.330433 0.347545,4.289391 0.347177,4.284229 0.348423,4.283801 0.352955,4.245241 0.355368,4.233846 0.362702,4.224052 0.365674,4.200067 0.378407,4.177724 0.382432,4.168727 0.393502,4.136979 0.394718,4.132618 0.40074,4.121231 0.560088,3.874272 0.569706,3.851378 0.545935,3.738316 0.533341,3.695804 0.522843,3.660575 0.51719,3.631924 0.507029,3.602966 0.496213,3.59107 0.479427,3.481915 0.468986,3.403122 0.461649,3.336156 0.455098,3.179432 0.459971,3.160464 0.459416,3.137006 0.48404,3.096433 0.484552,3.055226 0.479179,3.046188 0.465374,2.978259 0.465364,2.906198 0.466633,2.832286 0.478868,2.709807 0.504882,2.606292 0.594459,2.357629 0.628146,2.274244 0.639075,2.256932 0.671452,2.192217 0.681103,2.175477 0.699733,2.125576 0.716406,2.113886 0.740267,2.054587 0.740401,2.054454 0.911958,2.027773 0.943656,2.026953 0.970903,2.029519 0.985225,2.039618 1.000621,2.071173 1.033235,2.08626 1.041567,2.095454 1.047184,2.120344 1.056954,2.146436 1.081155,2.185557 1.084749,2.190104 1.091877,2.197605 1.111033,2.222508 1.111582,2.224633 1.314035,2.468643 1.323881,2.481548 1.330917,2.489768 1.333932,2.497124 1.344999,2.509945 1.394557,2.554212 1.425404,2.581759 1.468584,2.600277 1.472353,2.600437 1.5043,2.610514 1.55309,2.620662 1.57427,2.617142 1.58299,2.614322 1.612715,2.620034 1.61379,2.620345 1.627756,2.629186 1.661022,2.627003 1.673042,2.62883 1.69486,2.624349 1.718102,2.625844 1.749598,2.615093 1.775704,2.614343 1.788188,2.604347 1.805039,2.601977 1.80504,2.601976 1.805095,2.601969 1.823665,2.599358 1.828284,2.594745 1.842819,2.590016 1.865719,2.592199 1.888111,2.589281 1.918257,2.569472 1.948219,2.56178 2.129047,2.479267 2.145271,2.473643 2.154664,2.470099 2.281239,2.41395 2.389251,2.378576 2.429411,2.371023 2.459505,2.35104 2.48037,2.342199 2.486206,2.336385 2.511316,2.328901 2.527208,2.326062 2.538785,2.312577 2.564535,2.286383 2.570677,2.278845 2.584047,2.271333 2.605828,2.263093 2.778363,2.152966 2.803392,2.143213 2.832439,2.141416 2.895945,2.125224 2.925536,2.122894 2.934508,2.119188 2.944642,2.119592 2.979553,2.130731 2.994693,2.118323 3.014362,2.115264 3.036516,2.112791 3.053805,2.089294 3.062718,2.081305 3.07001,2.079166 3.090368,2.074749 3.108407,2.048486 3.113464,2.042638 3.122907,2.032912 3.137209,2.023658 3.143858,2.015122 3.158381,2.008407 3.164624,1.994904 3.175931,1.985254 3.21203,1.959987 3.227972,1.954111 3.283562,1.921831 3.297948,1.915982 3.371509,1.892179 3.383437,1.884852 3.388309,1.884096 3.41466,1.861087 3.425947,1.857641 3.45034,1.852981 3.522607,1.838587 3.574593,1.838242" style="fill: white" />
</svg>
