<svg width="13.600213" height="8.910821">
<polygon type="contour" points="8.937967,0.960219 8.989524,0.984031 8.989834,0.984755 9.010907,1.01602 9.013346,1.042704 9.019451,1.064996 9.020083,1.101438 9.057615,1.207919 9.060037,1.213952 9.065218,1.223766 9.07032,1.232227 9.187077,1.361319 9.208426,1.384506 9.225361,1.402685 9.235598,1.409786 9.31578,1.466168 9.428151,1.540682 9.436072,1.547542 9.47863,1.569988 9.609605,1.625585 9.622864,1.627492 9.752242,1.683929 9.812012,1.700935 9.831067,1.712543 10.024593,1.820934 10.11194,1.866982 10.12164,1.873615 10.168077,1.917717 10.230831,1.948289 10.304988,1.970238 10.375249,1.995043 10.423791,2.027742 10.484115,2.059656 10.512475,2.069175 10.540692,2.063122 10.57001,2.080783 10.658818,2.068785 10.680014,2.066054 10.688866,2.067804 10.813038,2.091898 10.858258,2.109303 10.925714,2.114021 11.02335,2.212305 11.025445,2.214153 11.030495,2.226304 11.051385,2.263397 11.074952,2.310974 11.08652,2.386663 11.084464,2.397102 11.119731,2.491151 11.141979,2.532005 11.156667,2.552657 11.170368,2.573656 11.228845,2.651659 11.23418,2.679623 11.272169,2.716156 11.292149,2.74455 11.427697,2.839893 11.474619,2.878407 11.587497,2.974966 11.705812,3.102182 11.771166,3.170913 11.782296,3.179726 11.810035,3.217541 11.835498,3.249012 11.847045,3.274974 11.901646,3.348362 12.063755,3.582062 12.09579,3.66991 12.115275,3.727459 12.151604,3.846724 12.170438,3.894279 12.198725,4.245757 12.204964,4.329022 12.204266,4.711776 12.203281,4.744147 12.203786,4.746808 12.202364,4.757978 12.160227,5.043293 12.128234,5.139842 12.085589,5.256036 12.080687,5.293018 12.065507,5.317122 11.985847,5.470961 11.882722,5.588152 11.841927,5.640489 11.824518,5.680458 11.792742,5.71832 11.750088,5.768626 11.714488,5.807116 11.647293,5.887633 11.605042,5.91877 11.578259,5.94519 11.331221,6.124922 11.301276,6.157014 11.265694,6.2008 11.225263,6.23016 11.195206,6.308849 11.172449,6.342505 11.170212,6.348776 11.157368,6.362621 11.144872,6.380334 11.129056,6.397654 11.1141,6.445881 11.099568,6.473837 11.088096,6.513308 11.086684,6.520384 11.049987,6.625274 11.040001,6.641364 10.933408,6.777124 10.922757,6.783526 10.843747,6.806947 10.711126,6.842121 10.698619,6.844994 10.691089,6.845434 10.680852,6.84046 10.626514,6.844913 10.553566,6.836837 10.520344,6.84734 10.506299,6.847677 10.454659,6.87407 10.401007,6.89158 10.360332,6.921347 10.289286,6.939789 10.280401,6.940553 10.263212,6.941458 10.207603,6.97015 10.135943,7.027339 10.112554,7.043299 10.083112,7.059333 9.88409,7.178617 9.796419,7.230438 9.693432,7.256697 9.564154,7.302166 9.51695,7.328545 9.43567,7.375284 9.247463,7.493569 9.230586,7.505361 9.221953,7.511766 9.171954,7.567767 9.060416,7.69487 9.052176,7.708513 9.04324,7.791562 9.016394,7.857861 9.013205,7.866679 8.990973,7.927805 8.981386,7.932026 8.970498,7.940826 8.957807,7.949315 8.946138,7.95563 8.896715,7.963687 8.867308,7.960755 8.721226,7.937014 8.69981,7.926292 8.599689,7.908887 8.486489,7.849415 8.47377,7.839987 8.426289,7.845212 8.415056,7.844099 8.407166,7.842785 8.143116,7.778668 8.026048,7.759266 7.943622,7.733375 7.873582,7.711495 7.84735,7.688887 7.828848,7.670592 7.80067,7.63582 7.67754,7.668109 7.65767,7.671386 7.577284,7.65906 7.554042,7.664697 7.538469,7.669614 7.517351,7.670285 7.501325,7.670695 7.488341,7.664977 7.467598,7.669152 7.457973,7.667417 7.422243,7.675622 7.402547,7.675444 7.371674,7.669527 7.353647,7.663604 7.316253,7.661096 7.262573,7.654207 7.253192,7.652144 7.211162,7.633146 7.187702,7.616539 7.156147,7.61006 7.118825,7.596677 7.11621,7.595522 7.114456,7.594763 7.079621,7.566288 6.883333,7.49575 6.828998,7.480126 6.77909,7.463733 6.749241,7.45961 6.723261,7.450154 6.613266,7.426413 6.558046,7.419519 6.556565,7.419663 6.553985,7.419355 6.509685,7.42231 6.490615,7.425937 6.437867,7.442693 6.408687,7.439119 6.228859,7.472447 6.117352,7.494457 6.095824,7.500166 6.07883,7.503412 6.044359,7.504815 5.974012,7.496813 5.886817,7.484531 5.823605,7.456117 5.817038,7.454767 5.766405,7.44255 5.750068,7.425273 5.715411,7.433358 5.685033,7.439261 5.66547,7.441214 5.651106,7.443394 5.625817,7.43893 5.607194,7.435374 5.593627,7.433569 5.58078,7.421802 5.568366,7.413936 5.563432,7.40118 5.555137,7.388941 5.534004,7.373008 5.504101,7.362441 5.420244,7.321469 5.361489,7.283485 5.350394,7.271029 5.342062,7.264335 5.33071,7.253951 5.326199,7.244778 5.32499,7.230548 5.312037,7.186263 5.225472,7.108984 5.184552,7.079758 5.168085,7.042484 5.159812,7.035466 5.138027,7.006247 5.110313,6.986949 5.092339,6.967463 5.069263,6.949531 5.046172,6.937125 4.993638,6.891333 4.973226,6.883004 4.960195,6.872031 4.924207,6.843935 4.892673,6.829409 4.841554,6.800581 4.798072,6.765009 4.794265,6.757131 4.778737,6.719525 4.782381,6.707149 4.729883,6.653156 4.725196,6.646268 4.646281,6.547142 4.634933,6.540206 4.609244,6.515853 4.614397,6.480462 4.588843,6.449157 4.562668,6.41521 4.53725,6.389565 4.516399,6.369398 4.510264,6.359449 4.425339,6.273069 4.424795,6.271607 4.425634,6.232562 4.383885,6.165265 4.364897,6.140336 4.342334,6.124305 4.337891,6.119495 4.335432,6.11749 4.236687,6.030584 4.198823,5.970855 4.189575,5.95007 4.18159,5.926895 4.178227,5.917332 4.176884,5.91107 4.182972,5.893419 4.188555,5.864352 4.182968,5.820477 4.166388,5.78683 4.163622,5.77355 4.120829,5.657504 4.116218,5.640258 4.111626,5.627197 4.111589,5.616816 4.107152,5.607959 4.099877,5.570941 4.098269,5.560838 4.095812,5.553494 4.087856,5.531767 4.025913,5.381019 3.983668,5.279704 3.981432,5.270688 3.976904,5.259073 3.966174,5.214487 3.921989,5.126927 3.927806,5.039426 3.920985,5.002591 3.922418,4.968619 3.927631,4.939361 3.940883,4.913127 3.95755,4.859253 3.965273,4.846425 3.973124,4.801196 3.9702,4.76644 3.965546,4.683159 3.965351,4.680191 3.967179,4.634977 3.967191,4.622133 3.972564,4.544989 3.971315,4.442564 3.966479,4.415827 3.957799,4.345125 3.963741,4.321002 3.966149,4.294178 3.965593,4.233002 3.966057,4.22755 3.966989,4.162206 3.971077,4.118254 3.972614,4.077376 3.956516,4.053689 3.943179,4.015506 3.930002,3.976673 3.930588,3.922771 3.929167,3.863448 3.930986,3.839662 3.955132,3.763669 3.9514,3.732445 3.964297,3.687114 3.966281,3.683955 3.967254,3.678173 3.979874,3.655182 3.976366,3.642959 3.99115,3.613223 3.99334,3.607887 3.994956,3.604995 4.036703,3.50451 4.049877,3.484472 4.083067,3.399748 4.095887,3.361294 4.095947,3.35992 4.096558,3.35876 4.117732,3.278074 4.117408,3.261917 4.123201,3.246349 4.129507,3.224854 4.133768,3.191315 4.134884,3.180112 4.147914,3.149464 4.150032,3.143028 4.159644,3.131236 4.168967,3.121064 4.183029,3.090835 4.188244,3.048089 4.181695,3.019729 4.181927,3.010495 4.179576,3.002954 4.184143,2.97785 4.198173,2.949816 4.209652,2.928601 4.220698,2.904178 4.230193,2.886788 4.25772,2.859954 4.326265,2.800281 4.348115,2.780656 4.363043,2.77347 4.375478,2.758745 4.413425,2.696788 4.425578,2.673762 4.424405,2.640388 4.428483,2.636465 4.542645,2.522914 4.556622,2.508942 4.578538,2.475214 4.589048,2.462181 4.594834,2.456526 4.615443,2.431429 4.609229,2.396543 4.634908,2.37117 4.653522,2.358346 4.661382,2.348567 4.681951,2.324736 4.724555,2.266577 4.779787,2.206956 4.784656,2.176258 4.786103,2.168202 4.786127,2.167738 4.786371,2.167446 4.796213,2.14037 4.803344,2.135402 4.87547,2.091919 4.921378,2.069135 4.957768,2.041169 5.014256,1.999076 5.027601,1.992025 5.080604,1.963105 5.090737,1.955498 5.123956,1.915264 5.13226,1.91069 5.15091,1.886618 5.167157,1.869657 5.172103,1.850568 5.187204,1.828101 5.224846,1.803887 5.248858,1.779466 5.314984,1.72219 5.323085,1.67771 5.324278,1.668658 5.327663,1.661267 5.334427,1.655018 5.346141,1.647065 5.376897,1.610146 5.516193,1.54822 5.536909,1.538521 5.561802,1.519087 5.578,1.489695 5.632107,1.468449 5.633387,1.468256 5.654078,1.471202 5.72877,1.481515 5.764034,1.468638 5.789892,1.465288 5.823252,1.458136 5.840687,1.443997 5.852195,1.435489 5.869331,1.428163 6.053392,1.406983 6.08223,1.40761 6.133947,1.422663 6.180776,1.429689 6.37385,1.460453 6.402247,1.464397 6.443923,1.470549 6.488456,1.48454 6.507469,1.489047 6.557228,1.492772 6.557991,1.492551 6.558282,1.492643 6.597553,1.488999 6.607676,1.487127 6.645543,1.478657 6.663841,1.479014 6.671494,1.476895 6.675131,1.476324 6.718122,1.45999 6.752991,1.448118 6.801031,1.442189 6.880935,1.417706 6.894644,1.41254 7.02725,1.353044 7.076518,1.346878 7.106242,1.323143 7.123114,1.313498 7.150847,1.304871 7.172107,1.29349 7.2112,1.277097 7.233679,1.265778 7.294533,1.249521 7.30979,1.246675 7.319421,1.245423 7.332516,1.249813 7.355933,1.248173 7.379914,1.244816 7.401693,1.235555 7.41246,1.236096 7.43061,1.240908 7.465909,1.239946 7.493161,1.247248 7.506024,1.242081 7.518029,1.24222 7.546162,1.244494 7.550754,1.245803 7.599962,1.258079 7.613935,1.25319 7.662714,1.254555 7.693657,1.265446 7.815212,1.260155 7.850748,1.219868 7.873186,1.200593 7.979951,1.170585 8.074031,1.142674 8.103028,1.137881 8.175783,1.119962 8.179534,1.11933 8.1875,1.11753 8.191767,1.116333 8.232865,1.10719 8.408652,1.069138 8.418785,1.067295 8.424016,1.067606 8.435445,1.066869 8.451635,1.072654 8.469522,1.067949 8.485367,1.067133 8.502408,1.058387 8.608899,1.003362 8.677815,0.975032 8.725753,0.970725 8.738899,0.963433 8.810264,0.956221 8.885662,0.947252" style="fill: white" />
</svg>
