<svg width="13.600213" height="8.910821">
<polygon type="contour" points="4.083861,1.310218 4.118596,1.314775 4.145399,1.321066 4.293296,1.381716 4.318568,1.390813 4.321614,1.390792 4.473864,1.442885 4.474742,1.443154 4.47546,1.44354 4.493139,1.450242 4.540353,1.467277 4.575724,1.466571 4.622424,1.468623 4.658226,1.367337 4.712351,1.346584 4.731455,1.338515 4.824197,1.34046 4.845846,1.340846 4.861118,1.343199 4.866789,1.345915 4.870878,1.346845 4.896425,1.359718 4.942933,1.363758 4.97613,1.371451 5.029643,1.351571 5.074318,1.367665 5.245525,1.436325 5.248692,1.437663 5.248799,1.43769 5.263742,1.468786 5.308941,1.475484 5.380671,1.503973 5.593361,1.569956 5.646049,1.585516 5.677907,1.611553 5.69432,1.614334 5.856683,1.670899 5.871541,1.677984 5.873764,1.678935 5.881437,1.682241 6.068856,1.763002 6.092739,1.75761 6.104454,1.752011 6.267035,1.806505 6.316676,1.822506 6.333338,1.840727 6.387568,1.875259 6.414842,1.881883 6.427501,1.888617 6.460857,1.888041 6.471601,1.888829 6.558369,1.912481 6.590803,1.928898 6.613189,1.933699 6.662191,1.957422 6.736522,1.991538 6.789698,2.014844 6.803099,2.029503 6.817261,2.036416 6.922062,2.094558 7.018029,2.157268 7.063683,2.185388 7.089854,2.204013 7.098074,2.211082 7.146142,2.247389 7.195564,2.312977 7.206412,2.333899 7.255108,2.362703 7.263677,2.369127 7.284704,2.376456 7.319421,2.3936 7.339426,2.400954 7.446247,2.462632 7.467251,2.480133 7.483372,2.496747 7.494638,2.506256 7.520027,2.514896 7.546666,2.530172 7.607485,2.564341 7.631355,2.575658 7.661197,2.576133 7.690749,2.570101 7.70814,2.569883 7.724192,2.57525 7.786551,2.605135 7.941805,2.689822 7.983618,2.701671 7.988621,2.706545 8.006804,2.719343 8.022274,2.752724 8.045931,2.766274 8.088094,2.776118 8.099045,2.778896 8.156288,2.787866 8.308515,2.841153 8.338426,2.839131 8.399517,2.855289 8.404149,2.860304 8.416699,2.887317 8.496943,2.892225 8.51577,2.894355 8.547461,2.905268 8.578918,2.910481 8.615277,2.93754 8.64276,2.942308 8.655105,2.948432 8.689242,2.964472 8.691783,2.968513 8.729122,2.995954 8.738314,3.002781 8.759015,3.01362 8.769375,3.019171 8.885926,3.098238 8.893233,3.104932 8.904482,3.109545 8.912425,3.115063 8.938537,3.140882 9.015445,3.189337 9.043768,3.208187 9.070712,3.227764 9.072375,3.232184 9.124036,3.259851 9.163591,3.275292 9.248135,3.31134 9.27406,3.329816 9.304673,3.342188 9.350715,3.358094 9.383521,3.366604 9.447087,3.399227 9.468741,3.412725 9.488061,3.419856 9.505298,3.435322 9.582463,3.503373 9.584094,3.504726 9.599157,3.519058 9.610645,3.533869 9.612916,3.535948 9.615908,3.55946 9.621989,3.564456 9.628586,3.588064 9.642202,3.599096 9.640753,3.617118 9.651527,3.661026 9.667484,3.670432 9.667626,3.676026 9.680808,3.690989 9.68448,3.700812 9.690187,3.709633 9.705434,3.727082 9.746449,3.767641 9.754607,3.775103 9.765656,3.785527 9.858657,3.907321 9.860641,3.909134 9.862611,3.913373 9.871668,3.921671 9.873582,3.924245 9.952585,4.022919 9.99427,4.1014 10.028526,4.191945 10.031967,4.197607 10.057152,4.23533 10.06082,4.264249 10.05776,4.449709 10.059996,4.455936 10.057688,4.463877 10.059855,4.471853 10.055305,4.508268 10.078197,4.545448 10.071005,4.634236 10.047007,4.680506 10.021087,4.757211 9.999202,4.802498 9.994413,4.810345 9.971932,4.871793 9.913843,4.931528 9.832486,5.038153 9.819618,5.053167 9.775657,5.114889 9.677113,5.221248 9.671434,5.230631 9.65735,5.245982 9.649627,5.255703 9.640444,5.287583 9.642508,5.311704 9.634421,5.318835 9.620957,5.331733 9.611915,5.356812 9.612888,5.375686 9.600446,5.391124 9.599175,5.392521 9.4785,5.494585 9.426194,5.523483 9.403747,5.534855 9.311021,5.569507 9.271164,5.583574 9.122677,5.652598 9.093916,5.665635 9.077824,5.674843 9.057655,5.697036 9.054944,5.699892 9.002793,5.725722 8.938678,5.764374 8.918409,5.787905 8.895055,5.812031 8.875764,5.835499 8.8654,5.846443 8.839716,5.853923 8.813667,5.868533 8.797423,5.879071 8.790848,5.882315 8.734561,5.910042 8.731715,5.913944 8.71348,5.922947 8.689006,5.944635 8.687242,5.948534 8.660911,5.957118 8.614875,5.975678 8.607131,5.980787 8.550612,6.007351 8.432226,6.023414 8.385722,6.063482 8.38559,6.063716 8.385381,6.063775 8.373036,6.067317 8.307433,6.078395 8.260781,6.097681 8.142783,6.135721 8.100002,6.134042 8.092762,6.134214 8.033201,6.148954 8.01628,6.174254 7.98811,6.192689 7.955285,6.217686 7.832876,6.282275 7.759726,6.318472 7.732248,6.333464 7.724349,6.335531 7.713091,6.340731 7.702092,6.343714 7.676147,6.336907 7.660748,6.335653 7.633907,6.33589 7.591369,6.356431 7.553946,6.377162 7.492644,6.406968 7.47267,6.425752 7.374921,6.48377 7.323381,6.514578 7.283124,6.539995 7.232413,6.561547 7.196421,6.595217 7.166809,6.635092 7.128904,6.676523 6.97909,6.779788 6.969137,6.787834 6.95291,6.796299 6.860812,6.844029 6.789472,6.895162 6.746545,6.921 6.589333,6.989869 6.587751,6.990335 6.542641,7.003211 6.437702,7.02425 6.408886,7.025241 6.38349,7.039515 6.344641,7.057166 6.332159,7.072056 6.317343,7.088423 6.288606,7.100411 6.258148,7.112561 6.119899,7.161604 6.092598,7.155615 6.072246,7.145998 5.876723,7.231912 5.873369,7.233406 5.867603,7.23542 5.832133,7.250351 5.782285,7.269572 5.774468,7.27155 5.721773,7.278982 5.667333,7.294706 5.661426,7.319089 5.620832,7.334489 5.577569,7.348101 5.533397,7.368559 5.369047,7.423623 5.310687,7.430261 5.260546,7.450801 5.249613,7.468824 5.247566,7.472871 5.245909,7.474387 5.236292,7.478851 5.039716,7.559678 5.026254,7.56227 5.012937,7.558475 4.998037,7.554513 4.964363,7.539605 4.91271,7.546557 4.878255,7.560454 4.844575,7.571262 4.805831,7.566549 4.665345,7.549139 4.621609,7.445421 4.540722,7.443345 4.431745,7.492988 4.419341,7.495617 4.277924,7.541969 4.086948,7.605026 4.08417,7.606087 4.083713,7.606105 4.083034,7.606 3.973763,7.600901 3.927739,7.594318 3.921081,7.591471 3.911294,7.586165 3.857972,7.549295 3.847384,7.538369 3.783745,7.492529 3.755571,7.508764 3.751017,7.510235 3.744861,7.513487 3.717797,7.513346 3.689287,7.49945 3.645683,7.482759 3.627147,7.48402 3.615854,7.484433 3.612449,7.482808 3.605937,7.475434 3.595333,7.472817 3.559456,7.449554 3.555935,7.451889 3.554404,7.450815 3.53177,7.446756 3.441213,7.441588 3.395953,7.441962 3.381238,7.441312 3.34736,7.445505 3.339039,7.453955 3.337755,7.454283 3.32698,7.447464 3.317333,7.445894 3.308137,7.440917 3.240003,7.443304 3.188762,7.44673 3.181041,7.444429 3.174014,7.437084 3.151832,7.404653 3.099034,7.405472 3.081614,7.40258 3.069809,7.400055 3.067253,7.398477 3.046823,7.391943 3.022316,7.381522 2.984951,7.388822 2.984143,7.389541 2.967657,7.380372 2.960298,7.378442 2.933639,7.370001 2.921737,7.373832 2.912528,7.367243 2.865527,7.357952 2.855278,7.361271 2.816134,7.364356 2.813227,7.368783 2.804966,7.351763 2.796772,7.355645 2.757435,7.328015 2.701152,7.288466 2.700628,7.288278 2.699364,7.286887 2.628944,7.234452 2.600014,7.222795 2.582134,7.213675 2.567622,7.213661 2.566647,7.213361 2.540245,7.193549 2.505356,7.193402 2.440663,7.204406 2.372408,7.217345 2.316457,7.22015 2.264318,7.210522 2.253513,7.209526 2.058492,7.208955 2.055421,7.210337 2.051538,7.210405 2.039846,7.21205 1.968484,7.207155 1.742789,7.204077 1.737954,7.202505 1.723368,7.203147 1.631783,7.212116 1.603107,7.210824 1.540354,7.226571 1.533346,7.22501 1.528037,7.222399 1.311672,7.125075 1.293282,7.117526 1.283196,7.113378 1.254736,7.092325 1.125421,7.006563 1.051441,6.947653 1.032717,6.910916 0.968794,6.804592 0.859572,6.658922 0.833234,6.602364 0.808764,6.526952 0.80804,6.516145 0.808303,6.489314 0.80167,6.431974 0.808373,6.400659 0.799765,6.3854 0.798679,6.382673 0.792133,6.3636 0.794085,6.339405 0.767354,6.314195 0.74421,6.274975 0.664017,6.064789 0.64207,5.953738 0.641276,5.95102 0.639564,5.938434 0.572446,5.790653 0.57078,5.785553 0.559856,5.761535 0.496491,5.472162 0.496118,5.467935 0.497543,5.463035 0.531208,5.381776 0.515637,5.207369 0.490748,5.15808 0.487352,5.099257 0.476345,4.946622 0.475287,4.92371 0.470115,4.8026 0.496413,4.767069 0.511077,4.690892 0.525959,4.592914 0.535441,4.454577 0.528375,4.353521 0.522628,4.329765 0.498432,4.154708 0.487646,4.126946 0.470945,4.096518 0.473855,4.039442 0.47949,4.016941 0.477636,3.976766 0.482351,3.898572 0.485881,3.818467 0.487347,3.803 0.496092,3.749015 0.53139,3.620955 0.536872,3.54105 0.522675,3.507101 0.502578,3.487088 0.496897,3.444892 0.496294,3.441955 0.519096,3.293575 0.522488,3.273518 0.5303,3.238902 0.535527,3.230396 0.54773,3.187667 0.572992,3.125971 0.597919,3.079059 0.60817,3.066733 0.619614,3.029382 0.630434,3.01053 0.640436,2.963624 0.645552,2.947362 0.647127,2.934721 0.728122,2.687906 0.75824,2.612883 0.779387,2.577111 0.793086,2.561005 0.794038,2.53907 0.806441,2.511054 0.806582,2.463731 0.80608,2.453382 0.808479,2.426415 0.808602,2.416443 0.808998,2.390523 0.810273,2.377114 0.811913,2.374472 0.822202,2.342508 0.835779,2.305634 0.853816,2.26883 0.892372,2.193613 0.912965,2.158816 0.974881,2.082635 1.033336,1.999742 1.038234,1.982614 1.045351,1.973796 1.110521,1.931708 1.14905,1.87899 1.178224,1.85654 1.449245,1.703049 1.462953,1.697691 1.467537,1.695689 1.533286,1.686619 1.56174,1.686509 1.629443,1.700979 1.658865,1.702242 1.750122,1.718605 1.831863,1.70123 1.90602,1.699165 2.027392,1.69658 2.046308,1.703291 2.197792,1.691571 2.315619,1.695079 2.454704,1.715913 2.468366,1.716566 2.538947,1.716295 2.590869,1.696312 2.631627,1.674617 2.699276,1.624949 2.70099,1.623092 2.701617,1.622868 2.795919,1.556584 2.796041,1.556237 2.796644,1.556217 2.810867,1.549959 2.819832,1.546237 2.828371,1.547812 2.832952,1.546547 2.836756,1.547699 2.854047,1.548972 2.871536,1.553857 2.894417,1.54646 2.907961,1.541581 2.913825,1.542962 2.93514,1.542556 2.967677,1.531245 2.990403,1.527928 2.99985,1.529243 3.038192,1.524012 3.045149,1.519721 3.06402,1.514809 3.067962,1.512563 3.086587,1.510069 3.141789,1.507631 3.149029,1.481132 3.181789,1.472497 3.188756,1.464911 3.21223,1.459182 3.216985,1.45866 3.217227,1.458906 3.238071,1.462687 3.294813,1.476873 3.316165,1.465133 3.333039,1.45806 3.333221,1.457984 3.333832,1.45806 3.338546,1.457417 3.344594,1.466854 3.37405,1.464981 3.380812,1.467607 3.397107,1.466735 3.462326,1.468575 3.469191,1.470045 3.475746,1.468422 3.497536,1.473281 3.532235,1.468149 3.539096,1.462938 3.575082,1.459481 3.604275,1.42989 3.605147,1.428984 3.616236,1.430531 3.627171,1.427304 3.639324,1.426799 3.701713,1.40482 3.716048,1.40258 3.727873,1.393034 3.738293,1.398943 3.750985,1.401351 3.785918,1.420955 3.808958,1.397017 3.847177,1.372336 3.857671,1.36059 3.908859,1.327118 3.919626,1.323087 3.968154,1.306084 3.982252,1.304831 4.011755,1.303588 4.018547,1.302896" style="fill: white" /><polygon type="hole" points="5.633585,3.016682 5.525798,3.01928 5.480384,3.020952 5.399224,3.059176 5.164626,3.162179 5.125445,3.197657 5.062839,3.266154 4.997269,3.349729 4.965648,3.401011 4.923115,3.494698 4.901863,3.571066 4.890423,3.699828 4.90449,3.78036 4.945525,4.06798 4.949581,4.10584 4.953452,4.210984 4.95738,4.638781 4.966353,4.778403 4.946051,4.89226 4.907432,5.083119 4.898826,5.170172 4.889072,5.225867 4.926998,5.407301 4.935419,5.447571 4.954743,5.482311 4.998606,5.559311 5.050696,5.631167 5.107439,5.698817 5.202196,5.772122 5.264627,5.806953 5.384011,5.859121 5.409812,5.870749 5.424175,5.874022 5.447496,5.877871 5.754836,5.910201 5.812011,5.911144 6.022543,5.891423 6.045904,5.888622 6.084799,5.875839 6.269757,5.811313 6.284114,5.802631 6.442008,5.690769 6.520408,5.591613 6.542709,5.569987 6.575995,5.496744 6.744418,5.293175 6.745589,5.292416 6.843116,5.217155 6.85013,5.20985 6.888675,5.156225 6.975938,5.051206 6.991858,5.006684 7.023714,4.93441 7.036399,4.851824 7.028183,4.622347 7.015545,4.418719 7.01498,4.344088 7.018089,4.310296 7.028222,4.223671 7.038094,4.136685 7.032429,4.097614 7.031282,4.025679 7.031061,4.000471 7.013474,3.940212 7.006436,3.941364 7.005602,3.9325 6.967535,3.875612 6.966228,3.844121 6.879972,3.748973 6.870264,3.734347 6.856266,3.721589 6.851099,3.713205 6.825037,3.680866 6.749124,3.624216 6.710904,3.586489 6.69451,3.56406 6.65726,3.498191 6.641751,3.477584 6.582716,3.417778 6.507902,3.30643 6.422219,3.216536 6.129764,3.042311 6.046514,3.030228 5.81896,3.002434 5.761285,3.002122" style="fill: black" />
</svg>
