<svg width="13.600213" height="8.910821">
<polygon type="contour" points="9.147994,0.421082 9.24347,0.452075 9.254224,0.457415 9.275393,0.481309 9.302707,0.507744 9.30704,0.514407 9.360323,0.631556 9.375431,0.684098 9.414108,0.772876 9.422153,0.777966 9.428646,0.787566 9.434072,0.794374 9.464465,0.855845 9.472423,0.867838 9.492206,0.879953 9.575949,0.977387 9.776011,1.132542 9.860895,1.176578 9.948442,1.211948 9.96228,1.222221 10.023873,1.239804 10.061097,1.248407 10.166842,1.273486 10.264543,1.281013 10.300265,1.28035 10.317761,1.257708 10.373444,1.24807 10.377775,1.246753 10.539058,1.236237 10.553496,1.23647 10.555473,1.237538 10.578171,1.242226 10.808454,1.290042 10.853974,1.303213 10.855826,1.303495 10.885955,1.316074 10.943263,1.323273 10.956694,1.322942 11.00349,1.325416 11.064421,1.334055 11.091348,1.333832 11.118979,1.328938 11.146341,1.329617 11.151273,1.328161 11.169794,1.325448 11.213647,1.328212 11.297621,1.325806 11.338249,1.311801 11.415198,1.311899 11.461199,1.32107 11.483808,1.326601 11.507344,1.331455 11.617199,1.348459 11.672973,1.37279 11.694225,1.387942 11.724405,1.403234 11.7471,1.420927 11.774679,1.431363 11.821989,1.478212 11.899515,1.566884 11.92712,1.654652 11.965531,1.748222 11.952907,1.792623 11.974218,1.899375 12.012606,2.076363 12.024262,2.11412 12.107376,2.378858 12.142466,2.47337 12.197897,2.642025 12.218132,2.696737 12.22889,2.721909 12.229693,2.734411 12.308773,2.933723 12.394762,3.090883 12.457831,3.212651 12.491093,3.268032 12.500545,3.281474 12.508406,3.286667 12.526644,3.316958 12.64521,3.50747 12.707546,3.605162 12.708721,3.606677 12.715219,3.616093 12.793104,3.73091 12.795454,3.73765 12.801847,3.746039 12.804069,3.760402 12.815484,3.784576 12.874791,3.884774 12.887029,3.917109 12.90584,4.137736 12.906271,4.141902 12.91564,4.398105 12.91574,4.400754 12.917446,4.437328 12.915722,4.594158 12.922307,4.633049 12.915378,4.660258 12.894209,4.822115 12.887799,4.945284 12.890022,4.954916 12.887768,4.980159 12.86986,5.016035 12.837406,5.091806 12.825916,5.111092 12.810797,5.129895 12.716586,5.31905 12.681663,5.369177 12.660515,5.399062 12.537048,5.577853 12.50807,5.62549 12.494564,5.636644 12.487931,5.645893 12.45444,5.704016 12.355599,5.886379 12.338141,5.932945 12.239804,6.154185 12.2384,6.158385 12.234573,6.16741 12.224608,6.227282 12.144508,6.401555 12.126255,6.449112 12.071029,6.625957 12.013219,6.834272 11.990388,6.947472 11.980539,7.04132 11.956007,7.120723 11.938163,7.257993 11.875522,7.37763 11.852967,7.408862 11.812211,7.447902 11.776132,7.479054 11.72116,7.498234 11.68753,7.522798 11.613208,7.564569 11.581131,7.569699 11.500721,7.59132 11.456816,7.594622 11.426109,7.597903 11.356612,7.593539 11.327803,7.592435 11.316483,7.588666 11.277592,7.583844 11.260027,7.584908 11.256385,7.58386 11.229602,7.584203 11.21102,7.58999 11.173799,7.5856 11.01217,7.589536 10.975551,7.583511 10.949953,7.584987 10.928027,7.590931 10.89985,7.587968 10.86123,7.605785 10.855248,7.608706 10.724761,7.641397 10.694401,7.647784 10.690117,7.647203 10.686835,7.646152 10.656824,7.64611 10.582454,7.668791 10.551876,7.67496 10.53947,7.675723 10.538118,7.675851 10.529072,7.675517 10.471069,7.652165 10.371987,7.658904 10.33122,7.658454 10.317824,7.659582 10.303906,7.646117 10.215769,7.643085 10.139869,7.662759 10.065274,7.675794 9.976815,7.705159 9.956663,7.70392 9.915023,7.721624 9.827059,7.772696 9.667664,7.846686 9.600145,7.896561 9.543015,7.967742 9.513368,8.007638 9.48695,8.039154 9.460991,8.059177 9.443617,8.081564 9.401587,8.168185 9.378764,8.247538 9.360918,8.275544 9.349614,8.327251 9.255642,8.451236 9.254266,8.453799 9.244497,8.458898 9.104783,8.484806 9.073227,8.488723 9.040778,8.477571 8.92076,8.404644 8.887062,8.366787 8.838746,8.357144 8.700446,8.292411 8.674813,8.272623 8.666584,8.263838 8.664619,8.259039 8.655197,8.245688 8.638124,8.221173 8.634089,8.210514 8.611624,8.191339 8.501528,8.179246 8.473477,8.165869 8.305596,8.073706 8.281034,8.062964 8.038408,8.012962 8.027555,8.010755 8.00849,8.001681 7.962521,8.001382 7.896539,7.976028 7.86021,7.969049 7.718468,7.982142 7.531282,7.985172 7.47813,7.983314 7.45023,7.990271 7.41844,7.995576 7.406441,8.000363 7.400302,8.003046 7.387988,8.005986 7.260415,8.021726 7.234522,8.026094 7.171973,8.025912 7.146502,8.025708 7.116523,8.002828 7.088404,8.009816 7.033443,8.027945 6.998734,8.035731 6.960384,8.037135 6.93516,8.034669 6.88771,8.024176 6.864732,8.026899 6.814521,8.035953 6.796874,8.023611 6.770667,8.023294 6.725653,8.032265 6.686269,8.027694 6.592401,8.021609 6.56767,8.026667 6.547149,8.025873 6.508171,8.010083 6.489859,8.000385 6.47456,8.000202 6.387614,7.967682 6.355003,7.976112 6.327883,7.979711 6.313982,7.981054 6.141739,7.943506 6.106505,7.931229 6.028434,7.873006 6.016598,7.863854 6.004448,7.840409 5.950916,7.806295 5.921743,7.816773 5.899945,7.817649 5.862805,7.808641 5.840184,7.802913 5.819009,7.796384 5.775865,7.794215 5.736975,7.796711 5.712878,7.791694 5.664267,7.803385 5.662958,7.804487 5.661552,7.804698 5.636343,7.818293 5.598373,7.803754 5.562378,7.784062 5.554444,7.780099 5.513378,7.691482 5.482561,7.676712 5.466197,7.672103 5.453064,7.667 5.440115,7.660892 5.407768,7.617062 5.405243,7.615829 5.386098,7.594307 5.372162,7.583255 5.292636,7.546072 5.265468,7.529883 5.261637,7.524937 5.247281,7.520395 5.221952,7.510767 5.199566,7.500904 5.194076,7.500166 5.190399,7.497987 5.158115,7.456254 5.115356,7.467869 5.095619,7.467356 5.091507,7.466113 5.050353,7.449445 5.036311,7.441094 5.003012,7.420141 4.947738,7.386455 4.887995,7.339358 4.878304,7.327625 4.851842,7.314971 4.812393,7.29392 4.772173,7.258034 4.668958,7.123763 4.622869,7.057465 4.620898,7.049649 4.549727,6.978907 4.517998,6.945171 4.493907,6.916166 4.484301,6.906043 4.384809,6.767509 4.335407,6.718366 4.273468,6.649273 4.195852,6.549485 4.113194,6.431898 4.103494,6.414022 4.075971,6.37951 4.043015,6.330788 4.02961,6.315869 3.939142,6.193516 3.925054,6.164297 3.903168,6.096287 3.847698,5.978597 3.8455,5.975796 3.800301,5.877326 3.765738,5.872725 3.765266,5.872514 3.76235,5.870386 3.755233,5.85316 3.73864,5.848983 3.705281,5.822821 3.640827,5.772114 3.619061,5.750485 3.617993,5.745311 3.607767,5.736119 3.552338,5.644856 3.513717,5.612377 3.502128,5.606254 3.484633,5.603028 3.433296,5.583456 3.356457,5.556163 3.262363,5.518421 3.24059,5.508533 3.210641,5.482586 3.182435,5.361762 3.182429,5.360567 3.351842,5.147938 3.353645,5.136794 3.401827,5.033899 3.416239,4.989816 3.387664,4.970576 3.387285,4.964728 3.353611,4.932566 3.347757,4.730606 3.348765,4.723593 3.347704,4.717659 3.362629,4.624549 3.372806,4.606962 3.376397,4.574849 3.373035,4.492035 3.362799,4.296634 3.355511,4.285117 3.356838,4.277545 3.353166,4.264745 3.355929,4.249412 3.359591,4.241514 3.352625,4.175166 3.348811,3.989881 3.378193,3.957915 3.3845,3.9453 3.388468,3.942625 3.412433,3.913056 3.407588,3.895675 3.409324,3.865944 3.382566,3.826403 3.364141,3.778454 3.323392,3.733719 3.291671,3.695699 3.187265,3.558769 3.183177,3.553292 3.183033,3.552103 3.18327,3.551553 3.21582,3.432655 3.253364,3.396906 3.285212,3.379206 3.37821,3.346399 3.392618,3.343415 3.485508,3.308658 3.506895,3.303287 3.517932,3.295143 3.561154,3.257735 3.612249,3.170162 3.620653,3.159481 3.621615,3.156987 3.630524,3.148015 3.7665,3.038707 3.76782,3.038194 3.799901,3.036032 3.808135,3.024783 3.81964,3.017945 3.836254,2.969916 3.84691,2.940012 3.846847,2.93171 3.856761,2.916262 3.869477,2.900706 3.903922,2.815454 3.930585,2.738365 3.948947,2.704729 3.960427,2.690621 3.981018,2.660111 4.064476,2.548307 4.172625,2.388386 4.182305,2.374366 4.190266,2.369772 4.259665,2.283568 4.274374,2.263482 4.282727,2.252567 4.503981,1.98363 4.520457,1.96361 4.595202,1.886324 4.603033,1.878291 4.624414,1.865726 4.636463,1.849301 4.638267,1.844082 4.708424,1.735569 4.781529,1.641139 4.837111,1.600374 4.889662,1.569977 4.894751,1.558214 4.90136,1.550353 4.966678,1.514568 5.081842,1.44551 5.093037,1.442103 5.114545,1.443661 5.118445,1.444604 5.156792,1.45501 5.196279,1.409045 5.197228,1.408731 5.253491,1.389221 5.301601,1.360342 5.399695,1.306623 5.436553,1.257446 5.446618,1.246677 5.450544,1.244373 5.487244,1.231384 5.489695,1.22721 5.505435,1.233232 5.530436,1.18706 5.562508,1.114449 5.588137,1.109773 5.596066,1.106779 5.668596,1.109959 5.672346,1.111353 5.712117,1.118279 5.71794,1.118882 5.75009,1.120231 5.800479,1.116794 5.826194,1.11566 5.840694,1.108423 5.843608,1.107796 5.904305,1.092954 5.967598,1.10779 5.9888,1.083162 6.01549,1.060018 6.019919,1.050653 6.063059,1.01567 6.087468,0.993303 6.103101,0.981203 6.137876,0.969684 6.212704,0.94925 6.311833,0.928288 6.327803,0.932237 6.359143,0.937492 6.384608,0.946992 6.477079,0.914949 6.520422,0.897074 6.546434,0.886042 6.672051,0.886829 6.692605,0.88624 6.707619,0.879008 6.717603,0.882349 6.729206,0.876949 6.746318,0.885776 6.783782,0.888652 6.811171,0.879349 6.821711,0.880922 6.846333,0.883856 6.870159,0.884809 6.886131,0.887837 6.932857,0.877271 6.974195,0.872711 6.974755,0.872648 6.974932,0.872763 7.003483,0.87454 7.003567,0.874576 7.066458,0.894214 7.089746,0.901995 7.137214,0.897101 7.142772,0.886008 7.159817,0.886227 7.181375,0.887427 7.224477,0.887252 7.241291,0.888183 7.284074,0.896661 7.318398,0.90499 7.349999,0.909325 7.386936,0.915958 7.421389,0.921461 7.431588,0.924577 7.469096,0.934896 7.494255,0.929623 7.572247,0.935981 7.635492,0.935279 7.858776,0.942948 7.901948,0.929275 7.969442,0.908629 8.01057,0.90691 8.030221,0.901537 8.033786,0.900498 8.040561,0.899173 8.0422,0.898845 8.276384,0.849096 8.295116,0.84219 8.506663,0.741521 8.533251,0.722316 8.62591,0.716849 8.640869,0.679564 8.645687,0.670074 8.65417,0.656299 8.670261,0.643924 8.67847,0.638122 8.686629,0.634335 8.789484,0.573858 8.816112,0.565015 8.849837,0.556133 8.883026,0.549333 8.909932,0.52777 8.932121,0.500206 9.00014,0.451286 9.057394,0.427982 9.066778,0.424791 9.118031,0.418999" style="fill: white" />
</svg>
