<svg width="13.600213" height="8.910821">
<polygon type="contour" points="3.285745,3.523394 3.366453,3.525741 3.385247,3.53991 3.555868,3.697631 3.56208,3.773464 3.558649,3.851539 3.539578,3.944766 3.612842,3.932863 3.643146,3.933058 3.650355,3.933105 3.66788,3.933218 3.719239,3.938981 3.823155,3.94152 3.824539,3.950796 3.887806,3.957894 4.000546,3.965497 4.062645,3.99805 3.988969,4.060772 3.68449,4.104627 3.558153,4.116409 3.540483,4.105276 3.536507,4.102772 3.532129,4.098305 3.507874,4.073553 3.507629,4.05579 3.507293,4.031249 3.516258,4.002612 3.45693,3.960656 3.399678,4.003564 3.355395,4.091653 3.335574,4.150717 3.329595,4.162703 3.321717,4.213199 3.312725,4.243714 3.297799,4.281343 3.299429,4.297013 3.289633,4.320177 3.285691,4.33606 3.272338,4.385139 3.269047,4.420102 3.27026,4.455808 3.277944,4.500366 3.295506,4.644474 3.298148,4.659742 3.318474,4.709511 3.32353,4.718594 3.322961,4.726517 3.371503,4.850481 3.400002,4.920596 3.539271,4.997845 3.506135,4.881579 3.506055,4.881291 3.504749,4.876716 3.506698,4.85241 3.507745,4.83936 3.530468,4.813366 3.534382,4.808889 3.536924,4.807255 3.554668,4.79586 3.575741,4.797463 3.752972,4.815554 3.8523,4.82541 3.989824,4.850965 4.062692,4.913496 4.044566,4.936985 4.019012,4.94409 3.961818,4.948778 3.826948,4.959832 3.824306,4.969992 3.75104,4.980937 3.717693,4.985919 3.668521,4.983913 3.647974,4.983074 3.535927,4.968629 3.571936,5.077732 3.553126,5.153151 3.555057,5.215983 3.540879,5.244908 3.442212,5.321641 3.417306,5.352462 3.405982,5.362498 3.385552,5.372189 3.350608,5.375283 3.310794,5.38695 3.303405,5.388728 3.279398,5.390595 3.197805,5.379768 3.1401,5.361803 3.027668,5.320244 3.006119,5.313337 2.955043,5.315134 2.906481,5.315066 2.899243,5.312654 2.840642,5.282715 2.828405,5.265429 2.80426,5.233289 2.802884,5.228557 2.799098,5.15018 2.77282,5.100771 2.770301,5.097326 2.75939,5.073835 2.737871,5.034599 2.718952,5.022116 2.684061,5.011491 2.579067,5.074861 2.602504,5.167947 2.60511,5.2298 2.60309,5.271694 2.592011,5.284672 2.541598,5.328223 2.531514,5.333611 2.506325,5.328636 2.499137,5.326107 2.398994,5.274772 2.31968,5.23396 2.302379,5.219211 2.297426,5.211341 2.28138,5.182033 2.273847,5.17814 2.249737,5.154752 2.229403,5.149316 2.222041,5.144537 2.152381,5.118799 2.103147,5.093665 2.092268,5.082539 2.010825,4.997552 1.99957,4.989845 1.978017,4.97127 1.927359,4.945566 1.906585,4.944349 1.844064,4.943545 1.835386,4.940052 1.792385,4.90934 1.781707,4.897833 1.769618,4.883552 1.756014,4.864068 1.720051,4.81952 1.707267,4.792518 1.6917,4.770913 1.675016,4.743157 1.672532,4.738017 1.664779,4.71947 1.667895,4.702172 1.663258,4.692891 1.664172,4.683072 1.663453,4.667196 1.662586,4.655661 1.663175,4.64059 1.66404,4.633042 1.664515,4.619738 1.663357,4.572885 1.66372,4.563657 1.663686,4.519526 1.663052,4.361204 1.662808,4.340988 1.664045,4.308385 1.664458,4.292809 1.663924,4.279198 1.663298,4.271979 1.662536,4.256305 1.663462,4.245363 1.664399,4.229516 1.663297,4.218394 1.667897,4.209336 1.664802,4.191733 1.672775,4.172764 1.67502,4.168508 1.676607,4.164899 1.700531,4.122512 1.720412,4.091625 1.739236,4.064513 1.777551,4.018387 1.782186,4.013134 1.799266,3.996889 1.838417,3.969166 1.845923,3.966577 1.863207,3.9675 1.905604,3.969807 1.909741,3.967046 1.916308,3.966698 1.94542,3.964962 1.974175,3.945229 2.024151,3.895561 2.038084,3.879706 2.048677,3.865878 2.168945,3.787732 2.218173,3.762055 2.249551,3.7574 2.270047,3.744031 2.289204,3.716982 2.309474,3.685401 2.402774,3.614796 2.41085,3.6082 2.418319,3.605952 2.436516,3.602341 2.531253,3.587868 2.567874,3.618693 2.59382,3.6323 2.582131,3.761323 2.582191,3.823027 2.653795,3.896147 2.709792,3.895585 2.736995,3.877879 2.748081,3.858474 2.752976,3.852428 2.786853,3.789143 2.799846,3.765081 2.806977,3.730218 2.822977,3.668496 2.842362,3.635437 2.848855,3.625878 2.868659,3.615832 2.90268,3.597098 2.934989,3.596497 3.008429,3.59877 3.031713,3.589389 3.161676,3.539306 3.281827,3.522964 3.283497,3.522795" style="fill: white" />
</svg>
