<svg width="13.600213" height="8.910821">
<polygon type="contour" points="9.198747,0.637514 9.253423,0.704488 9.299362,0.727793 9.302884,0.758833 9.32337,0.773262 9.346295,0.826744 9.40032,0.941892 9.411286,0.967814 9.413984,0.971177 9.421948,0.991827 9.431739,0.998005 9.434192,1.015149 9.456972,1.019344 9.457882,1.022863 9.484805,1.046154 9.506455,1.072991 9.514346,1.083666 9.515832,1.085193 9.545991,1.123491 9.577884,1.158621 9.586084,1.166491 9.598763,1.184714 9.663678,1.244863 9.676745,1.253671 9.685939,1.25857 9.701456,1.268391 9.748411,1.30048 9.790872,1.331009 9.799091,1.347985 9.824492,1.353651 9.832712,1.364843 9.861967,1.372139 10.029703,1.402654 10.124301,1.419115 10.126283,1.418726 10.135758,1.421668 10.161937,1.430657 10.212833,1.448775 10.31766,1.454647 10.435744,1.484445 10.61083,1.514598 10.648227,1.517821 10.676922,1.526978 10.718566,1.540146 10.735107,1.543808 10.774511,1.556071 10.780833,1.561134 10.792703,1.566504 10.797744,1.571092 10.795305,1.643231 11.011944,1.621198 11.020458,1.617594 11.141965,1.565944 11.160261,1.557302 11.169542,1.550934 11.181164,1.538919 11.193368,1.531114 11.21197,1.526729 11.21698,1.528085 11.25133,1.541982 11.281454,1.517436 11.317423,1.510146 11.365547,1.499809 11.472948,1.518999 11.479999,1.520153 11.485025,1.520824 11.503947,1.529529 11.600075,1.562258 11.643586,1.585258 11.672154,1.606051 11.70044,1.635376 11.71466,1.665564 11.751429,1.765052 11.756236,1.819515 11.747814,1.867774 11.754046,1.881571 11.757879,1.929033 11.751329,2.010964 11.759864,2.026826 11.762453,2.1326 11.772637,2.20005 11.8087,2.349199 11.837475,2.455526 11.846989,2.466938 11.85672,2.488198 11.867647,2.511373 11.929333,2.631233 11.947051,2.649816 12.095807,2.83711 12.123559,2.887068 12.137988,2.910943 12.164902,2.970731 12.182172,2.997165 12.22388,3.018907 12.239451,3.041988 12.28715,3.105324 12.329501,3.166725 12.344436,3.188437 12.358105,3.211339 12.396957,3.28419 12.39981,3.297893 12.410156,3.328628 12.414249,3.344287 12.427907,3.373581 12.443447,3.40222 12.473739,3.414022 12.481103,3.420048 12.491328,3.440296 12.497175,3.47114 12.561629,3.63797 12.568848,3.65787 12.569993,3.670512 12.573865,3.695706 12.581481,3.779329 12.579438,3.803387 12.583988,3.818468 12.568253,3.85747 12.57146,3.883441 12.596687,4.006855 12.593427,4.085707 12.600172,4.155438 12.599811,4.274409 12.618406,4.54031 12.619851,4.551522 12.608758,4.734012 12.600939,4.859626 12.595957,4.891229 12.568748,5.054668 12.570495,5.060155 12.568573,5.066922 12.572604,5.145627 12.574631,5.183246 12.570434,5.240051 12.57026,5.245678 12.568745,5.262124 12.495537,5.471427 12.492559,5.478651 12.481236,5.489227 12.475878,5.492497 12.470732,5.4973 12.448106,5.503225 12.422004,5.545233 12.413511,5.575883 12.410013,5.599087 12.395697,5.623541 12.353949,5.683331 12.305288,5.775268 12.257771,5.838897 12.217373,5.871638 12.172986,5.933357 12.165166,5.943407 12.138824,5.999871 12.117614,6.033328 12.053668,6.096983 11.971051,6.215246 11.84739,6.451362 11.832288,6.474304 11.828488,6.489808 11.772689,6.789432 11.760334,6.848445 11.751453,6.860659 11.753854,6.985008 11.759654,7.123693 11.752169,7.145895 11.752488,7.174337 11.737062,7.222821 11.704278,7.288972 11.654563,7.316808 11.60603,7.347461 11.585756,7.353578 11.581525,7.354203 11.568172,7.35982 11.541998,7.367775 11.538663,7.370329 11.532294,7.372406 11.512864,7.375448 11.406719,7.405786 11.371581,7.413845 11.319374,7.401265 11.286135,7.39458 11.280744,7.385548 11.243681,7.37641 11.209885,7.384839 11.192811,7.380135 11.167128,7.356884 11.142686,7.346608 11.011793,7.291061 11.008742,7.290307 11.006709,7.289625 10.994938,7.287637 10.800937,7.263217 10.803176,7.290864 10.79684,7.292864 10.801338,7.325719 10.797925,7.329653 10.795958,7.343015 10.79131,7.346507 10.781581,7.349844 10.717475,7.371805 10.632883,7.395183 10.444963,7.429047 10.349527,7.45102 10.274095,7.466068 10.269505,7.467238 10.265849,7.467912 10.221636,7.465059 10.201212,7.471546 10.170944,7.481333 10.138602,7.484929 10.092944,7.500769 10.034874,7.496458 9.930262,7.527647 9.831029,7.549339 9.823953,7.559015 9.799358,7.563185 9.791113,7.580409 9.782999,7.585838 9.729076,7.621043 9.708644,7.642648 9.659341,7.673286 9.635773,7.688727 9.599643,7.73509 9.595304,7.736696 9.590704,7.741194 9.58104,7.747836 9.555134,7.778291 9.547759,7.786673 9.53157,7.804778 9.518495,7.815804 9.510996,7.829303 9.497001,7.845186 9.486595,7.864114 9.470881,7.87715 9.44277,7.89142 9.428499,7.903253 9.420371,7.924177 9.415009,7.936175 9.404934,7.965912 9.404237,7.96889 9.402411,7.97276 9.3825,8.010598 9.343169,8.097873 9.324898,8.135414 9.307883,8.14531 9.300445,8.171754 9.287223,8.204811 9.254596,8.228161 9.222869,8.262122 9.211424,8.272047 9.12219,8.303386 9.061878,8.292582 8.843568,8.19915 8.839114,8.19562 8.830984,8.19009 8.828635,8.185864 8.811041,8.16645 8.791389,8.157592 8.760627,8.14725 8.60677,8.092839 8.5745,8.081791 8.385828,8.025909 8.369897,8.017836 8.362023,8.014174 8.331973,7.982751 8.151817,7.955392 8.096318,7.939955 8.06115,7.931956 8.042891,7.926084 7.774138,7.844163 7.769812,7.842726 7.768626,7.842389 7.736613,7.813892 7.725672,7.805231 7.666696,7.790538 7.598246,7.779225 7.554024,7.776144 7.457764,7.746627 7.432531,7.740548 7.326723,7.741844 7.161861,7.799305 7.144699,7.79137 7.028975,7.802115 6.986805,7.805893 6.985598,7.80821 6.968286,7.801273 6.954076,7.821397 6.950828,7.821028 6.930949,7.825219 6.92755,7.827307 6.923385,7.828494 6.901708,7.831262 6.899486,7.830943 6.820796,7.821117 6.804048,7.819452 6.787887,7.819997 6.755903,7.826808 6.748615,7.826104 6.716916,7.827344 6.69969,7.801127 6.651144,7.822504 6.642037,7.82605 6.543615,7.827533 6.518442,7.823538 6.49229,7.819118 6.44897,7.81382 6.444449,7.812533 6.44056,7.752286 6.371325,7.778165 6.356413,7.773428 6.33381,7.77124 6.3216,7.777126 6.227111,7.80941 6.224649,7.809509 6.223897,7.809755 6.223347,7.809672 6.129184,7.800355 6.057917,7.762982 6.039897,7.756014 6.033591,7.751256 6.023303,7.716623 5.977847,7.716079 5.97036,7.713207 5.950693,7.712481 5.914131,7.685464 5.864026,7.653656 5.769107,7.630522 5.733794,7.608855 5.72346,7.605642 5.716124,7.599135 5.70538,7.584909 5.609293,7.541903 5.578898,7.525036 5.557323,7.520137 5.504158,7.490218 5.487625,7.476068 5.482492,7.463131 5.432209,7.431794 5.413307,7.413946 5.37443,7.388914 5.323832,7.375302 5.320438,7.373701 5.286596,7.353984 5.269632,7.346916 5.147168,7.29309 5.11489,7.274375 5.041999,7.22347 5.030457,7.21858 4.965513,7.160855 4.946154,7.144293 4.913134,7.12297 4.904666,7.113832 4.895235,7.103149 4.882268,7.094501 4.864047,7.079916 4.845272,7.049694 4.828492,7.048124 4.801927,7.028983 4.791233,7.025717 4.777851,7.020338 4.696974,6.937787 4.678976,6.918524 4.657602,6.891907 4.645541,6.870285 4.625576,6.859476 4.504371,6.729871 4.47855,6.693653 4.441254,6.659874 4.427403,6.637985 4.375031,6.587087 4.357164,6.565481 4.346812,6.553353 4.319611,6.520737 4.297512,6.4915 4.274188,6.455358 4.25777,6.421776 4.24053,6.416294 4.201059,6.375346 4.182139,6.35152 4.176808,6.343819 4.172202,6.313267 4.137215,6.261336 4.109763,6.205575 4.087106,6.145534 4.078056,6.13681 4.067772,6.120608 4.078151,6.087974 4.043509,6.017551 3.991863,5.907587 4.012326,5.836518 3.926337,5.779085 3.919616,5.769456 3.90019,5.750702 3.884094,5.745799 3.838878,5.673377 3.830913,5.663853 3.822728,5.65139 3.821182,5.648304 3.785482,5.559774 3.779359,5.544287 3.773182,5.476551 3.777989,5.45891 3.7698,5.435244 3.758389,5.404341 3.750565,5.374098 3.731026,5.339509 3.719381,5.267094 3.717611,5.262262 3.719098,5.241583 3.704789,5.218722 3.698627,5.191491 3.691044,5.169969 3.69065,5.162961 3.702374,5.144224 3.698804,5.112566 3.697065,5.096069 3.699243,5.080576 3.702116,5.073103 3.702318,5.066218 3.705878,5.055674 3.705144,5.03314 3.688156,4.92839 3.682636,4.802201 3.681434,4.682829 3.669179,4.60929 3.676096,4.532887 3.67448,4.491534 3.674602,4.490592 3.676184,4.3804 3.679671,4.346502 3.678204,4.32373 3.66244,4.276626 3.663453,4.175949 3.666617,4.163269 3.681386,4.095919 3.682787,4.02705 3.691456,3.929561 3.702933,3.879635 3.705696,3.8542 3.701072,3.844434 3.702506,3.830519 3.69362,3.800825 3.693815,3.794008 3.699764,3.766622 3.691169,3.749455 3.689901,3.745565 3.704735,3.692192 3.719095,3.670043 3.717461,3.650241 3.719939,3.642693 3.732838,3.575698 3.757141,3.529359 3.761597,3.507265 3.770123,3.478072 3.772155,3.437643 3.780993,3.414596 3.776755,3.375794 3.781822,3.362328 3.788255,3.344543 3.80177,3.315901 3.814645,3.298572 3.828681,3.258546 3.831386,3.252772 3.840784,3.237035 3.865406,3.194206 3.869448,3.189195 3.87583,3.183309 3.884633,3.166893 3.900875,3.160382 3.908365,3.151671 3.932029,3.141998 3.952444,3.112462 4.018292,3.071439 3.995457,3.028102 3.992924,3.021238 4.05974,2.869104 4.069138,2.844918 4.077975,2.82532 4.067795,2.790857 4.078144,2.774542 4.08637,2.767922 4.103111,2.722428 4.108143,2.712191 4.131894,2.664624 4.136338,2.651543 4.173277,2.598375 4.178067,2.565919 4.200296,2.525449 4.20048,2.525012 4.20388,2.522469 4.210625,2.516712 4.24135,2.497599 4.283659,2.423698 4.299738,2.406448 4.366773,2.333799 4.370797,2.329277 4.406029,2.297905 4.501921,2.179498 4.530231,2.153371 4.556743,2.124506 4.563696,2.117992 4.574453,2.106689 4.582866,2.096681 4.587879,2.08953 4.622512,2.054826 4.644014,2.039121 4.650796,2.031014 4.656776,2.020886 4.660947,2.017658 4.781065,1.900626 4.835662,1.863827 4.847517,1.852711 4.85415,1.842754 4.859827,1.829551 4.869705,1.821832 4.90214,1.794892 4.915461,1.788639 4.941384,1.767161 5.029144,1.69574 5.040981,1.691352 5.058506,1.68193 5.166988,1.60703 5.227179,1.579738 5.312061,1.550999 5.348919,1.529738 5.414009,1.498099 5.435255,1.4764 5.444689,1.472761 5.468228,1.459685 5.485673,1.443275 5.488135,1.436616 5.566725,1.39084 5.602154,1.371321 5.605435,1.370771 5.621162,1.363443 5.711643,1.320875 5.718861,1.309564 5.724821,1.304117 5.728434,1.302688 5.760254,1.284788 5.828381,1.260654 5.838493,1.257111 5.848036,1.252143 5.853485,1.250488 5.866957,1.243498 5.931443,1.208518 5.936696,1.205949 5.936989,1.205708 5.941551,1.204865 6.005792,1.188728 6.007773,1.185053 6.026204,1.185295 6.040182,1.149097 6.047379,1.141531 6.103981,1.119392 6.114954,1.115705 6.12933,1.109976 6.20427,1.108756 6.223176,1.109704 6.235056,1.111209 6.294976,1.119033 6.330416,1.139404 6.358935,1.1387 6.373712,1.133679 6.374246,1.133593 6.437462,1.170305 6.446978,1.099449 6.449343,1.098199 6.523759,1.088637 6.538766,1.086482 6.543554,1.086703 6.547904,1.086315 6.574524,1.085497 6.600794,1.086288 6.628259,1.085492 6.63167,1.085884 6.64356,1.091662 6.653951,1.092923 6.682914,1.110865 6.701965,1.092363 6.718646,1.0943 6.72998,1.083865 6.747507,1.085471 6.756023,1.084642 6.79138,1.091717 6.807825,1.091746 6.867316,1.080676 6.884732,1.08155 6.894891,1.081047 6.939849,1.086014 6.950828,1.090593 6.95427,1.090251 6.968213,1.11037 6.985597,1.103425 6.986338,1.104846 7.02874,1.109369 7.042463,1.109784 7.146744,1.121198 7.16533,1.113258 7.264256,1.14138 7.326847,1.169487 7.401053,1.174811 7.42376,1.17012 7.497179,1.150425 7.550177,1.134241 7.5883,1.1322 7.609541,1.130525 7.624543,1.131712 7.638087,1.130103 7.645203,1.128727 7.660942,1.12551 7.674829,1.121061 7.685578,1.122128 7.724604,1.104621 7.73803,1.092491 7.779087,1.067998 8.080069,0.971831 8.098554,0.967416 8.149385,0.959769 8.232546,0.953583 8.306053,0.93833 8.368659,0.89384 8.387316,0.88453 8.596515,0.827043 8.633182,0.804293 8.786556,0.76078 8.792551,0.760256 8.924213,0.687881 8.983909,0.640775 9.037261,0.622075 9.088169,0.613133 9.162315,0.612175" style="fill: white" />
</svg>
