<svg width="13.600213" height="8.910821">
<polygon type="contour" points="9.182735,0.557532 9.228455,0.58146 9.307215,0.702273 9.322365,0.721872 9.338611,0.737598 9.3428,0.742599 9.366542,0.818424 9.405735,0.893676 9.427438,0.93011 9.452031,0.95195 9.469452,0.975648 9.477963,0.994414 9.492681,1.014575 9.499766,1.029487 9.510272,1.048632 9.522417,1.063143 9.545532,1.094411 9.552113,1.104103 9.559997,1.111248 9.60449,1.156919 9.611138,1.165363 9.618172,1.17311 9.619978,1.174845 9.622774,1.178862 9.637088,1.192125 9.68814,1.226535 9.702527,1.234202 9.716832,1.254595 9.725522,1.259702 9.739403,1.279235 9.760657,1.285868 9.849894,1.309104 10.21303,1.420089 10.25122,1.433684 10.296095,1.436198 10.346646,1.448954 10.655065,1.502068 10.701491,1.50607 10.711617,1.518662 10.715154,1.526343 10.731117,1.556129 10.755818,1.568471 10.768842,1.574206 10.782444,1.578076 10.79377,1.579631 10.817613,1.576103 10.975452,1.54473 11.011114,1.529635 11.018978,1.526991 11.049521,1.531455 11.06281,1.536159 11.107138,1.533634 11.125196,1.529981 11.179428,1.523024 11.190029,1.48328 11.217929,1.473989 11.318054,1.450474 11.423065,1.445286 11.426875,1.445693 11.494574,1.468402 11.556283,1.489413 11.691819,1.561061 11.71748,1.578694 11.729641,1.588604 11.73357,1.592412 11.758291,1.647954 11.758779,1.651241 11.761451,1.658555 11.803618,1.76324 11.790898,1.834981 11.793027,1.860848 11.805698,1.906594 11.810421,2.001541 11.823181,2.127721 11.845151,2.196985 11.854821,2.261023 11.870441,2.325625 11.877862,2.33961 11.91709,2.441928 11.954203,2.545637 11.981854,2.570864 11.989551,2.584071 12.005708,2.609082 12.095631,2.77095 12.170817,2.895358 12.182428,2.921151 12.233206,2.998871 12.234739,2.999671 12.242738,3.011528 12.303155,3.088465 12.323745,3.109839 12.331578,3.122207 12.360568,3.149408 12.369335,3.166623 12.372601,3.175649 12.419292,3.269972 12.427732,3.284194 12.443993,3.30503 12.446707,3.312023 12.460303,3.337201 12.48593,3.373501 12.487572,3.389895 12.498116,3.40951 12.513496,3.447106 12.548136,3.482334 12.553506,3.510662 12.579706,3.578476 12.607199,3.654277 12.611358,3.700149 12.637094,3.728287 12.652613,3.839158 12.651741,3.85308 12.654335,3.903736 12.660899,3.918879 12.666162,3.925527 12.676146,3.955507 12.679027,4.010245 12.666201,4.073241 12.676134,4.152106 12.660892,4.269275 12.660633,4.354337 12.663899,4.401032 12.69172,4.616919 12.687709,4.682904 12.670085,4.966031 12.66781,4.980468 12.652161,5.001852 12.654764,5.058473 12.650584,5.109594 12.633278,5.180646 12.624731,5.193507 12.62301,5.198671 12.611547,5.205743 12.610713,5.232822 12.604449,5.300827 12.58633,5.352628 12.578143,5.372488 12.57063,5.394495 12.550475,5.419784 12.510045,5.490051 12.499619,5.509148 12.488135,5.521529 12.483608,5.541008 12.462566,5.570606 12.450056,5.59529 12.447985,5.601511 12.407712,5.657814 12.327986,5.797709 12.323666,5.804928 12.318368,5.812356 12.206195,5.96833 12.183207,5.997875 12.176856,6.011486 12.071738,6.1773 12.066398,6.182616 12.058278,6.198123 11.905248,6.430591 11.866741,6.587692 11.847006,6.693659 11.842754,6.715989 11.817396,6.791849 11.817625,6.837519 11.802119,6.961217 11.805183,7.006038 11.793093,7.04974 11.790089,7.074855 11.792909,7.143553 11.792007,7.150772 11.79045,7.155684 11.784729,7.164222 11.777771,7.185793 11.765538,7.232102 11.762624,7.243602 11.753538,7.262464 11.738657,7.307576 11.735533,7.317049 11.731493,7.320727 11.713028,7.341525 11.687588,7.363388 11.613405,7.406361 11.56945,7.431149 11.510849,7.446705 11.476609,7.446087 11.435909,7.462814 11.429235,7.464991 11.419578,7.466502 11.383694,7.470261 11.336566,7.459752 11.20636,7.434529 11.181944,7.410401 11.177689,7.38884 11.123496,7.380501 11.117069,7.378811 11.08577,7.379101 11.040056,7.380614 11.018816,7.383099 10.941137,7.367318 10.911816,7.365306 10.789246,7.330768 10.775383,7.337616 10.754001,7.344009 10.732012,7.356607 10.727288,7.368408 10.708216,7.395394 10.695795,7.405605 10.513356,7.434887 10.422972,7.451173 10.411324,7.453855 10.402117,7.455692 10.237814,7.497532 10.223476,7.500177 10.193923,7.503463 10.136907,7.523243 9.895786,7.5874 9.796014,7.613516 9.756365,7.626707 9.740679,7.632068 9.725482,7.647174 9.715476,7.666639 9.695925,7.678788 9.655969,7.704967 9.645781,7.71804 9.637088,7.721259 9.627871,7.730272 9.608505,7.743582 9.58709,7.768758 9.574032,7.783209 9.564813,7.793988 9.558506,7.801188 9.522742,7.841777 9.49234,7.897075 9.474996,7.920341 9.467007,7.938636 9.444451,7.969952 9.43877,7.978501 9.4196,7.995781 9.412204,8.004578 9.357929,8.11371 9.336411,8.175668 9.324061,8.186274 9.296064,8.244665 9.24514,8.33299 9.243582,8.334188 9.229589,8.340767 9.168866,8.368097 9.165506,8.37101 9.159905,8.372977 8.993995,8.343255 8.938802,8.319633 8.891896,8.282464 8.806267,8.224218 8.781529,8.179709 8.767032,8.163712 8.678317,8.141297 8.653986,8.129754 8.608435,8.105553 8.570037,8.103185 8.547942,8.102184 8.47762,8.084201 8.373433,8.03833 8.347026,8.019663 8.334385,8.011708 8.326155,8.003913 8.313443,8.000628 8.29842,7.988195 8.284346,7.979575 8.115211,7.932531 7.982584,7.902367 7.913722,7.88022 7.785367,7.841096 7.759693,7.83313 7.696299,7.802137 7.681,7.798271 7.671646,7.794762 7.662107,7.794735 7.63725,7.787375 7.558602,7.791512 7.524795,7.79098 7.499876,7.796434 7.375756,7.792182 7.279399,7.814925 7.248685,7.832663 7.226844,7.839341 7.214943,7.842158 7.138154,7.863457 7.117817,7.868148 7.097878,7.871776 7.091451,7.873066 7.080168,7.875432 7.008234,7.884751 7.004869,7.885378 6.999747,7.885532 6.994822,7.882764 6.960076,7.867897 6.948854,7.866619 6.936686,7.860876 6.92109,7.86244 6.913232,7.862326 6.883108,7.864818 6.859433,7.868115 6.840024,7.877509 6.814584,7.886797 6.795852,7.885727 6.787887,7.885331 6.776717,7.885555 6.759492,7.883514 6.702997,7.877262 6.662583,7.87809 6.654019,7.873854 6.619574,7.870022 6.585377,7.833727 6.550178,7.864636 6.542071,7.8702 6.535793,7.86955 6.5277,7.86986 6.495125,7.864249 6.487223,7.862915 6.485603,7.862716 6.481397,7.86152 6.465526,7.858907 6.389328,7.843347 6.33985,7.843316 6.283738,7.815788 6.250978,7.817117 6.214359,7.834701 6.180576,7.836967 6.148347,7.834338 6.079661,7.818519 5.963641,7.785718 5.95628,7.781589 5.942052,7.776548 5.929046,7.764909 5.920425,7.75276 5.874005,7.719901 5.87005,7.716919 5.867441,7.713573 5.730341,7.619698 5.702179,7.616891 5.616895,7.576421 5.551572,7.549051 5.484234,7.506095 5.463278,7.49594 5.447498,7.479535 5.436237,7.467016 5.41938,7.453709 5.413014,7.452514 5.409658,7.447745 5.380974,7.434741 5.37755,7.433639 5.376384,7.43247 5.306865,7.397107 5.285144,7.386621 5.220827,7.341406 5.218551,7.338568 5.209032,7.33101 5.193946,7.322454 5.159622,7.315705 5.118891,7.312056 5.059886,7.293196 5.04824,7.281659 5.03331,7.261022 4.969552,7.21985 4.944328,7.19263 4.916242,7.160811 4.877617,7.135055 4.823348,7.091614 4.816627,7.080795 4.812363,7.058506 4.759004,7.01026 4.724931,6.973968 4.713831,6.96825 4.644557,6.905687 4.642882,6.90383 4.641183,6.901714 4.639061,6.897913 4.556799,6.79781 4.544058,6.784346 4.514208,6.767161 4.507374,6.764653 4.501686,6.75938 4.460864,6.70212 4.446618,6.689217 4.440495,6.679542 4.422962,6.652894 4.40624,6.63058 4.376189,6.586217 4.362959,6.568309 4.351002,6.553044 4.340961,6.549607 4.334096,6.544213 4.316854,6.540063 4.303647,6.525986 4.303684,6.52596 4.251965,6.445818 4.218816,6.378009 4.184003,6.366942 4.180851,6.363672 4.179341,6.361771 4.167074,6.344048 4.166423,6.339727 4.161475,6.332384 4.092936,6.193163 4.082979,6.166779 4.068907,6.153214 4.066151,6.143332 4.049947,6.119194 4.03883,6.092781 4.038127,6.079296 4.027922,6.057467 3.969476,5.941762 3.968553,5.930962 3.960784,5.917426 3.993222,5.855235 3.880049,5.830309 3.858188,5.809291 3.829589,5.775031 3.788082,5.702466 3.781751,5.683734 3.769918,5.61051 3.752998,5.583189 3.737936,5.547328 3.727778,5.533525 3.728958,5.514758 3.729154,5.505253 3.733103,5.484151 3.739413,5.438337 3.72941,5.39634 3.726001,5.38317 3.713812,5.361591 3.688597,5.3315 3.672327,5.294127 3.666369,5.27338 3.66131,5.25287 3.663499,5.239127 3.655735,5.205309 3.635909,5.133088 3.630887,5.077699 3.634453,5.058433 3.640361,5.047907 3.629099,5.000601 3.62591,4.980941 3.615623,4.745759 3.61509,4.692833 3.616172,4.535668 3.618926,4.528489 3.619009,4.522435 3.622008,4.517314 3.628889,4.504799 3.628739,4.469463 3.635137,4.425521 3.617876,4.38555 3.617761,4.383462 3.615274,4.315878 3.610488,4.301579 3.612176,4.133908 3.61239,4.133051 3.631945,3.913139 3.639196,3.881598 3.635513,3.846853 3.643677,3.752144 3.645101,3.72309 3.670546,3.65419 3.691731,3.584142 3.696201,3.569241 3.719756,3.541387 3.727292,3.527017 3.730787,3.509688 3.72977,3.499779 3.733099,3.495559 3.731301,3.460128 3.727597,3.405926 3.728956,3.396858 3.72777,3.378094 3.739589,3.3623 3.753669,3.336233 3.756641,3.324396 3.766531,3.313048 3.776391,3.275702 3.782116,3.22404 3.790019,3.207518 3.796212,3.189057 3.80259,3.183651 3.809433,3.171688 3.829136,3.144905 3.851939,3.109272 3.880903,3.081226 3.911231,3.081637 3.925651,3.071043 3.986552,3.061555 3.963127,2.998109 3.971969,2.977975 3.973214,2.974773 3.97992,2.959901 4.01187,2.891019 4.018777,2.873009 4.03843,2.831875 4.039119,2.817787 4.052521,2.79389 4.070295,2.769744 4.074075,2.764762 4.07458,2.763632 4.075529,2.762868 4.089386,2.734682 4.149909,2.613464 4.161235,2.580129 4.16709,2.571701 4.167849,2.566556 4.171373,2.560141 4.172269,2.558009 4.181987,2.547189 4.206119,2.539544 4.218972,2.519858 4.230437,2.511287 4.293902,2.401439 4.304792,2.384466 4.316852,2.371542 4.335259,2.367113 4.351335,2.352731 4.361572,2.35154 4.414651,2.267669 4.470498,2.198626 4.492567,2.166636 4.498636,2.156825 4.511175,2.144965 4.52206,2.140694 4.532261,2.133309 4.546295,2.118456 4.551179,2.116902 4.573409,2.094477 4.582942,2.087097 4.60411,2.070967 4.613782,2.057295 4.640907,2.011344 4.641093,2.0112 4.646439,2.005991 4.64887,2.004353 4.786276,1.875516 4.807736,1.853686 4.827253,1.813413 4.82786,1.811001 4.830407,1.808938 4.995405,1.68721 5.021156,1.657355 5.09161,1.613403 5.147421,1.590922 5.187368,1.588071 5.214712,1.580279 5.21856,1.572529 5.347209,1.504186 5.406192,1.463481 5.424487,1.452803 5.429574,1.44897 5.444188,1.43463 5.463492,1.416187 5.599327,1.338267 5.680276,1.302856 5.778403,1.272295 5.80812,1.240366 5.810088,1.237786 5.829447,1.21736 5.839923,1.209687 5.871932,1.198397 5.889564,1.177221 5.894688,1.172665 5.921059,1.157726 5.928685,1.146981 5.942701,1.134772 5.961638,1.127185 6.070873,1.097812 6.110372,1.084209 6.180874,1.073283 6.187278,1.072317 6.19803,1.074772 6.223405,1.076151 6.244839,1.086145 6.257488,1.091094 6.294871,1.0959 6.312378,1.081708 6.321016,1.081152 6.34094,1.067595 6.373133,1.062355 6.396894,1.0671 6.432438,1.061505 6.499972,1.044839 6.505255,1.043803 6.515324,1.042617 6.520284,1.041326 6.529001,1.042334 6.537055,1.048802 6.552319,1.047684 6.608223,1.071487 6.617066,1.041562 6.617877,1.041299 6.654828,1.034872 6.687401,1.031559 6.704059,1.034128 6.758595,1.027836 6.784511,1.027953 6.807185,1.025293 6.816287,1.024371 6.844114,1.037051 6.856114,1.044508 6.870088,1.045417 6.901884,1.04991 6.915009,1.049177 6.924279,1.049131 6.963074,1.042647 6.990453,1.02858 6.994374,1.02904 6.999531,1.025626 7.003088,1.025885 7.082032,1.036551 7.091453,1.038553 7.117814,1.043468 7.238833,1.076544 7.26106,1.085996 7.280716,1.092279 7.296312,1.100447 7.333352,1.101973 7.379113,1.107298 7.401788,1.10666 7.43049,1.101961 7.488267,1.111063 7.507775,1.116778 7.525259,1.121791 7.571056,1.120746 7.631641,1.123573 7.645128,1.119961 7.659254,1.119975 7.681864,1.109261 7.772892,1.080046 7.789163,1.073589 7.830417,1.048979 7.933322,1.0161 8.11013,0.973865 8.155261,0.967077 8.287669,0.925202 8.298917,0.923484 8.313437,0.910986 8.326142,0.907708 8.335147,0.898967 8.376602,0.871132 8.566253,0.81482 8.617118,0.800844 8.680167,0.761724 8.704204,0.754904 8.749664,0.750936 8.766817,0.73666 8.773948,0.731526 8.776826,0.729944 8.973868,0.57446 8.987412,0.569713 9.144021,0.5422 9.160388,0.541989" style="fill: white" />
</svg>
