<svg width="13.600213" height="8.910821">
<polygon type="contour" points="7.981838,3.155247 8.000488,3.157627 8.030612,3.173444 8.041506,3.179597 8.052675,3.181799 8.062069,3.18676 8.082363,3.203617 8.138767,3.217459 8.180315,3.235353 8.241895,3.261644 8.278955,3.284432 8.287446,3.304491 8.302267,3.309646 8.360984,3.378825 8.388377,3.391664 8.403337,3.39445 8.416547,3.403422 8.42419,3.408409 8.435444,3.420966 8.472007,3.448071 8.548645,3.499277 8.563557,3.511727 8.56761,3.515378 8.584073,3.533431 8.586545,3.53666 8.588561,3.539593 8.592945,3.576431 8.618093,3.607781 8.624461,3.614347 8.634641,3.621781 8.648297,3.632203 8.67289,3.661736 8.692397,3.706445 8.705985,3.743524 8.770369,3.985534 8.779124,4.023903 8.781924,4.036424 8.780434,4.048389 8.785373,4.059605 8.789924,4.081497 8.795676,4.089941 8.827378,4.161373 8.832154,4.19195 8.834134,4.209426 8.840095,4.250255 8.840023,4.258137 8.844192,4.315599 8.843851,4.346886 8.860808,4.423317 8.854563,4.526044 8.85173,4.568408 8.836228,4.685737 8.832369,4.710515 8.830041,4.723312 8.825098,4.763266 8.78442,4.857428 8.78427,4.864467 8.783247,4.868272 8.745602,5.027369 8.701764,5.215856 8.701546,5.216584 8.699516,5.218916 8.642085,5.278631 8.59641,5.322753 8.590782,5.343728 8.590662,5.370339 8.585702,5.375561 8.550957,5.409826 8.539434,5.418719 8.471606,5.463405 8.44341,5.482827 8.427388,5.50167 8.415231,5.510027 8.357979,5.536838 8.285778,5.6117 8.278063,5.628992 8.254692,5.64312 8.212079,5.664142 8.129756,5.694353 8.0865,5.709162 8.049182,5.735055 7.975434,5.757674 7.951531,5.758473 7.945588,5.757528 7.898392,5.745488 7.884008,5.743788 7.880255,5.74184 7.876116,5.739511 7.857186,5.723413 7.822348,5.702804 7.811738,5.689035 7.77603,5.631793 7.773814,5.624736 7.743367,5.557519 7.742414,5.52454 7.743315,5.479959 7.729668,5.364149 7.670491,5.369609 7.668828,5.36945 7.6645,5.369036 7.663073,5.368907 7.646338,5.367407 7.473385,5.337123 7.458998,5.304213 7.486846,5.250049 7.543955,5.232456 7.575645,5.20372 7.644279,5.174284 7.687541,5.155732 7.659145,5.069722 7.665183,5.05028 7.652464,4.813226 7.653276,4.684139 7.639073,4.516686 7.639071,4.338694 7.649201,4.180232 7.649532,4.165904 7.667394,3.906006 7.667617,3.902775 7.668404,3.891327 7.667195,3.884634 7.667114,3.884177 7.665664,3.876142 7.657673,3.831848 7.600532,3.810804 7.616107,3.767193 7.548587,3.760674 7.536245,3.759482 7.470229,3.71935 7.456867,3.691037 7.471215,3.676608 7.565549,3.649376 7.605314,3.638488 7.625451,3.640031 7.726992,3.641716 7.723927,3.53075 7.745922,3.363497 7.750317,3.334052 7.758411,3.316614 7.810836,3.221906 7.815347,3.215474 7.820004,3.197594 7.837197,3.198986 7.857447,3.18734 7.877417,3.170973 7.883881,3.167769 7.894112,3.16555 7.926925,3.15262 7.947696,3.153518 7.968419,3.150896" style="fill: white" /><polygon type="contour" points="3.796762,2.480806 3.822262,2.489814 3.832567,2.502356 3.83771,2.511471 3.842523,2.520005 3.83678,2.514313 3.780565,2.498722 3.74187,2.52311 3.71769,2.536979 3.714767,2.547623 3.666827,2.536453 3.68077,2.535732 3.693854,2.512862 3.711831,2.499254 3.72426,2.494159 3.738689,2.489759 3.769832,2.48446 3.77968,2.480321" style="fill: white" /><polygon type="contour" points="3.673934,2.615366 3.638936,2.713623 3.716702,2.716862 3.761091,2.703879 3.812415,2.720846 3.907513,2.724802 3.884137,2.63511 3.882222,2.626978 3.869033,2.570979 3.868131,2.567438 3.867182,2.563724 3.868777,2.566551 3.869637,2.568075 3.912953,2.64487 3.917325,2.655986 3.927199,2.681099 3.927294,2.725626 3.976285,2.727666 4.136171,2.740697 4.146085,2.741506 4.146441,2.741534 4.154144,2.742163 4.308565,2.744826 4.332437,2.747008 4.382135,2.771238 4.397418,2.800858 4.389913,2.818859 4.346705,2.875712 4.31667,2.89666 4.264546,2.919844 4.224237,2.927486 4.186199,2.933395 4.163776,2.940012 3.936772,2.939468 3.912521,2.939561 3.593151,2.941439 3.607304,3.016891 3.599214,3.084245 3.565926,3.207743 3.457716,3.418036 3.388585,3.544818 3.385072,3.548746 3.343822,3.624067 3.196493,3.88797 3.14933,3.973236 3.119052,4.033927 3.100926,4.07322 3.093465,4.09962 3.086472,4.231753 3.079466,4.281762 3.075172,4.304262 3.114129,4.349551 3.156367,4.39882 3.167984,4.45202 3.168788,4.455814 3.166739,4.461873 3.109919,4.569828 3.069675,4.605603 3.075637,4.630731 3.073761,4.639926 3.085085,4.754137 3.0885,4.81307 3.09627,4.826708 3.099342,4.836591 3.114991,4.867376 3.196745,5.024918 3.235718,5.106352 3.249364,5.124611 3.347187,5.292776 3.38314,5.35836 3.400172,5.382473 3.483006,5.570393 3.534505,5.657811 3.558538,5.69426 3.589415,5.783144 3.594743,5.813346 3.59597,5.820291 3.595499,5.822978 3.593488,5.834467 3.590674,5.854897 3.593268,5.967003 3.982729,5.948133 4.024781,5.94901 4.082373,5.952747 4.200669,5.971261 4.266635,5.992528 4.319854,6.016988 4.347482,6.036595 4.390181,6.09305 4.397175,6.110147 4.378495,6.141744 4.331657,6.164665 4.289939,6.170392 4.088754,6.164865 3.937956,6.176234 3.937927,6.176309 3.793788,6.187103 3.765081,6.204514 3.728392,6.192033 3.711088,6.19336 3.705297,6.194166 3.648758,6.199438 3.659959,6.334597 3.700875,6.367157 3.71473,6.364205 3.715867,6.366297 3.725213,6.383496 3.771194,6.413264 3.795173,6.411607 3.834099,6.406881 3.871001,6.323177 3.876491,6.310722 3.882786,6.297178 3.893615,6.273846 3.923772,6.21306 3.919156,6.225045 3.911018,6.24617 3.899739,6.275451 3.860787,6.400939 3.859606,6.402498 3.840737,6.415391 3.813399,6.425722 3.793258,6.429302 3.779193,6.429525 3.778086,6.429448 3.752282,6.423176 3.714094,6.408457 3.693169,6.398347 3.680036,6.374847 3.650601,6.373606 3.630313,6.373347 3.617963,6.353769 3.575451,6.35527 3.561528,6.35229 3.546541,6.348855 3.52347,6.337265 3.38443,6.27023 3.352485,6.240385 3.336115,6.233306 3.234612,6.150272 3.198442,6.114381 3.174826,6.108665 3.10545,5.99909 3.088437,5.972075 3.027251,5.915668 2.909946,5.832915 2.892666,5.812148 2.867466,5.780834 2.839678,5.761665 2.825954,5.756245 2.821759,5.741673 2.788096,5.694405 2.735956,5.718792 2.615083,5.717357 2.584716,5.721764 2.560066,5.722821 2.55382,5.719596 2.501356,5.707932 2.456898,5.692778 2.442349,5.681313 2.400216,5.641034 2.365528,5.614188 2.325231,5.56649 2.295049,5.563722 2.273607,5.550981 2.238014,5.537745 2.195939,5.513254 2.129427,5.483466 2.113927,5.472077 2.046377,5.439873 1.978133,5.437611 1.965395,5.438209 1.943634,5.441055 1.910487,5.451322 1.891961,5.448472 1.867303,5.455989 1.817494,5.471387 1.794343,5.491233 1.772072,5.50239 1.716655,5.516569 1.667214,5.51497 1.577075,5.48407 1.546408,5.473564 1.513155,5.460069 1.49733,5.441698 1.491859,5.432612 1.47007,5.367281 1.31773,5.22175 1.231852,5.194471 1.215739,5.183359 1.180504,5.152998 1.162067,5.135274 1.161035,5.134186 1.160215,5.13313 1.135503,5.095754 1.13055,5.085195 1.111204,5.055323 1.107175,5.044215 1.101643,5.038021 1.091706,5.022211 1.054561,4.965698 0.999944,4.886637 0.922413,4.855095 0.844055,4.819854 0.827771,4.813125 0.814759,4.80013 0.799396,4.755554 0.796693,4.752231 0.793014,4.741782 0.780853,4.725845 0.760102,4.709972 0.730992,4.673135 0.711066,4.633553 0.672805,4.543307 0.667719,4.533639 0.668383,4.512699 0.675879,4.428401 0.691997,4.318211 0.710383,4.265709 0.732407,4.227811 0.753021,4.213935 0.764541,4.200682 0.776303,4.187415 0.782413,4.184515 0.796002,4.163105 0.799741,4.153222 0.812517,4.113231 0.814471,4.111011 0.821318,4.108021 0.905634,4.061462 0.929985,4.051556 0.997639,4.025873 1.017946,4.011662 1.024941,4.00152 1.086336,3.8931 1.097996,3.875286 1.098257,3.873143 1.146789,3.793868 1.147592,3.792613 1.147785,3.792369 1.147984,3.792155 1.153738,3.786494 1.232665,3.716647 1.306957,3.681519 1.331129,3.671647 1.346798,3.659156 1.394627,3.618446 1.474367,3.5333 1.497197,3.470646 1.512062,3.452307 1.547119,3.440958 1.582886,3.426064 1.67164,3.39582 1.693457,3.392603 1.722402,3.399764 1.848541,3.449415 1.872635,3.460963 1.902319,3.470009 1.979975,3.476829 2.050356,3.471775 2.126195,3.43069 2.168424,3.406013 2.22684,3.372303 2.27475,3.360264 2.295753,3.347657 2.322542,3.336647 2.345416,3.323221 2.401719,3.284804 2.445247,3.2329 2.457052,3.22175 2.511648,3.200957 2.550536,3.19205 2.560692,3.188356 2.565005,3.186706 2.572327,3.185145 2.695689,3.205468 2.713655,3.199102 2.758424,3.207213 2.767154,3.204199 2.794098,3.21298 2.811412,3.181382 2.821235,3.175445 2.844369,3.1388 2.869412,3.129277 2.916315,3.070368 3.058623,2.969849 3.06039,2.968406 3.064952,2.96677 3.098135,2.928276 3.099127,2.924026 3.119664,2.893769 3.173569,2.804518 3.20812,2.789041 3.215635,2.782226 3.293276,2.70881 3.330311,2.682423 3.346176,2.674905 3.362396,2.66662 3.376887,2.650328 3.387434,2.642526 3.397738,2.633908 3.408235,2.629533 3.471734,2.600994 3.563365,2.559536 3.582474,2.555681 3.615166,2.55941 3.630316,2.538252 3.636843,2.538004 3.646049,2.537527" style="fill: white" />
</svg>
