<svg width="13.600213" height="8.910821">
<polygon type="contour" points="7.019153,2.451 7.108084,2.463458 7.127261,2.465901 7.145151,2.470496 7.169915,2.471821 7.21244,2.479302 7.27777,2.488704 7.280218,2.488535 7.292277,2.49095 7.313122,2.49372 7.336329,2.495003 7.352965,2.502126 7.382009,2.515569 7.404498,2.533067 7.469409,2.558169 7.473474,2.564192 7.486709,2.58572 7.495731,2.599816 7.518325,2.616608 7.523809,2.618497 7.543153,2.631146 7.547536,2.633152 7.561744,2.643859 7.71011,2.714647 7.724811,2.715216 7.755898,2.731754 7.779424,2.746021 7.792429,2.75299 7.835681,2.790139 7.882582,2.837715 7.924994,2.875293 7.967787,2.931197 7.99906,2.991463 8.052735,3.190389 8.061057,3.219302 8.100854,3.489078 8.103447,3.504935 8.105859,3.515791 8.117639,3.543353 8.1314,3.568214 8.248142,3.788692 8.249797,3.795114 8.270944,3.830041 8.380493,3.992822 8.465353,4.111234 8.465366,4.111251 8.465371,4.111263 8.465284,4.155969 8.478343,4.173822 8.510674,4.230101 8.538018,4.293532 8.540028,4.316489 8.541475,4.34946 8.538395,4.379187 8.555037,4.43491 8.554102,4.464407 8.555338,4.479515 8.553904,4.49942 8.537992,4.523447 8.537629,4.592982 8.475075,4.743402 8.472108,4.751474 8.465937,4.802032 8.465603,4.802665 8.465078,4.803828 8.309537,5.057154 8.278209,5.086115 8.272926,5.093216 8.226067,5.174324 8.150865,5.307695 8.125191,5.35592 8.114016,5.385216 8.071197,5.555884 8.046578,5.681182 8.031387,5.751457 8.016767,5.819296 7.997809,5.926186 7.938514,6.022337 7.904381,6.065296 7.899338,6.065195 7.871636,6.086973 7.801298,6.146321 7.752032,6.183617 7.688311,6.207111 7.653102,6.236039 7.632105,6.246672 7.572628,6.270028 7.544242,6.275992 7.524678,6.293824 7.511537,6.306802 7.495733,6.31602 7.486081,6.326288 7.471261,6.34579 7.440614,6.36574 7.430535,6.368904 7.338403,6.41364 7.327102,6.421027 7.320793,6.424307 7.189139,6.437189 7.106163,6.446136 7.10201,6.446589 7.087603,6.449564 7.018033,6.460725 7.017718,6.460693 6.919591,6.445282 6.894387,6.425791 6.880281,6.420454 6.855936,6.401168 6.813564,6.370594 6.809192,6.363528 6.773453,6.316734 6.764255,6.208362 6.698234,6.216858 6.526076,6.239018 6.492571,6.205318 6.452534,6.158963 6.45046,6.142618 6.47573,6.122259 6.590259,6.061269 6.613457,6.051539 6.721357,6.026081 6.866393,5.994495 6.882193,5.980992 6.923013,5.946355 6.996807,5.897712 7.01038,5.886958 7.015131,5.880515 7.025336,5.875519 7.224032,5.722973 7.236435,5.714908 7.365077,5.588938 7.38341,5.566706 7.476309,5.459564 7.507121,5.417366 7.568835,5.31101 7.601463,5.248793 7.599696,5.223088 7.599041,5.220013 7.607119,5.196301 7.654582,5.060562 7.67878,4.991358 7.699897,4.941071 7.72077,4.887759 7.64482,4.845292 7.586415,4.922686 7.575512,4.962481 7.571633,5.0058 7.542388,5.068054 7.535534,5.076797 7.515526,5.108141 7.507975,5.126821 7.45592,5.189451 7.438773,5.209455 7.433022,5.213902 7.334158,5.265649 7.322995,5.267899 7.293994,5.284702 7.274874,5.296881 7.259736,5.301784 7.235333,5.311842 7.188524,5.328113 7.149367,5.33044 7.145691,5.329946 7.144156,5.330194 7.139737,5.328726 7.114507,5.324751 7.107745,5.323331 7.105618,5.323289 7.10444,5.322606 7.0848,5.311217 7.069328,5.310299 7.064779,5.310027 7.014364,5.291327 7.006182,5.28851 7.00351,5.283233 6.984469,5.253909 6.977883,5.241119 6.96942,5.216396 6.969259,5.201541 6.966093,5.182611 6.961819,5.136881 6.964665,5.092517 6.967608,5.054481 6.967544,5.051681 6.985957,4.989 6.989616,4.983152 6.99546,4.961424 7.004427,4.914036 7.020602,4.888634 7.044296,4.841788 7.060329,4.824844 7.077122,4.7845 7.096295,4.761272 7.100314,4.738758 7.120267,4.714844 7.135144,4.667985 7.156325,4.6197 7.167131,4.596917 7.167658,4.57348 7.183261,4.542428 7.175799,4.516189 7.174912,4.506074 7.173087,4.437351 7.184743,4.417734 7.166147,4.385552 7.170058,4.367074 7.154151,4.311519 7.151495,4.307929 7.150578,4.302084 7.127568,4.244577 7.121201,4.210869 7.088693,4.149007 7.073629,4.131748 7.054354,4.062939 7.041816,4.043034 7.003011,4.00041 6.986363,3.962682 6.986322,3.953391 6.981369,3.925271 6.953594,3.786541 6.958871,3.768504 6.960767,3.747766 6.979062,3.73289 6.96792,3.703493 6.974068,3.686547 6.971326,3.68161 6.980397,3.65991 7.033859,3.602761 7.035673,3.601099 7.037557,3.600051 7.096588,3.587415 7.122268,3.584663 7.158989,3.583972 7.160454,3.583943 7.19112,3.593428 7.210201,3.597362 7.221327,3.594794 7.255744,3.604285 7.356523,3.65568 7.372652,3.66655 7.396302,3.674447 7.402541,3.676609 7.402889,3.676885 7.426611,3.702238 7.448396,3.724478 7.483974,3.767433 7.505743,3.784682 7.542131,3.832272 7.55401,3.850922 7.562655,3.887349 7.574791,3.932977 7.61457,3.990584 7.691615,3.953176 7.645724,3.804636 7.605525,3.680461 7.576299,3.619882 7.568955,3.600617 7.42465,3.391303 7.219824,3.194758 7.153789,3.138778 7.061691,3.069886 7.051215,3.062684 6.844491,3.029921 6.839227,3.02853 6.829851,3.026053 6.828137,3.025599 6.821841,3.023952 6.762905,3.008525 6.620255,2.957201 6.549382,2.921133 6.473925,2.865316 6.469156,2.827153 6.518483,2.8018 6.637806,2.797306 6.660846,2.796438 6.669605,2.796108 6.673833,2.795948 6.76946,2.793602 6.75444,2.734616 6.762146,2.652232 6.763325,2.62001 6.772998,2.595568 6.801095,2.556099 6.821725,2.533124 6.855296,2.510612 6.87313,2.501034 6.882976,2.489899 6.900335,2.480566 6.923726,2.468151 6.927759,2.463782 7.009042,2.452067 7.011697,2.452078 7.016203,2.45097" style="fill: white" /><polygon type="hole" points="7.660738,4.172755 7.666966,4.228751 7.68754,4.289983 7.690716,4.289028 7.69427,4.383408 7.695775,4.456614 7.69041,4.491187 7.689872,4.502335 7.68042,4.677304 7.768752,4.69179 7.785448,4.63173 7.825813,4.455236 7.823125,4.399817 7.800436,4.334988 7.779213,4.245518 7.775799,4.245983 7.75176,4.155676" style="fill: black" /><polygon type="contour" points="3.826033,1.960613 3.889284,1.968939 3.893929,1.971565 3.91665,1.98509 3.928171,1.997404 3.938241,2.015492 3.94008,2.023779 3.959638,2.103742 3.964687,2.127775 3.964804,2.146858 3.981605,2.181264 3.984706,2.250676 4.242,2.252497 4.37686,2.257218 4.445735,2.274665 4.466464,2.300108 4.464795,2.31774 4.432179,2.37217 4.421724,2.377786 4.338071,2.417032 4.317656,2.421969 4.145508,2.449393 3.883901,2.478146 3.877453,2.515536 3.863533,2.59621 3.842558,2.656117 3.831547,2.667852 3.756938,2.716482 3.721651,2.755442 3.665179,2.775163 3.585466,2.825618 3.553541,2.841453 3.537081,2.854095 3.528013,2.864898 3.521276,2.871901 3.518216,2.875689 3.425928,2.972652 3.369099,2.999252 3.321995,3.017768 3.288442,3.039338 3.203372,3.12489 3.197101,3.136285 3.191411,3.142615 3.16199,3.172509 3.156062,3.176929 3.100743,3.191886 3.02271,3.256246 2.992121,3.288732 2.983268,3.296683 2.914051,3.395129 2.843806,3.569464 2.842937,3.571061 2.84198,3.572522 2.757697,3.67685 2.741512,3.714613 2.725042,3.818005 2.722787,3.870488 2.704923,3.930144 2.682635,4.000076 2.670096,4.054104 2.653827,4.170138 2.668249,4.225001 2.677886,4.321766 2.671892,4.650025 2.660014,4.737407 2.673948,4.858171 2.689043,4.945261 2.727802,5.13626 2.73559,5.197376 2.762863,5.23985 2.843578,5.341258 2.843727,5.341528 2.933683,5.546634 3.027662,5.66023 3.048828,5.677799 3.054447,5.685347 3.087671,5.711441 3.09619,5.71569 3.109934,5.72318 3.153859,5.734983 3.15625,5.735132 3.160438,5.738414 3.214075,5.795731 3.274847,5.848123 3.284232,5.869808 3.317522,5.888846 3.359085,5.907797 3.432165,5.939253 3.49241,6.005983 3.572248,6.086638 3.740175,6.175592 3.775274,6.183569 3.818058,6.227897 3.829319,6.242114 3.846274,6.294817 3.858644,6.345774 3.863998,6.361898 3.872294,6.386875 3.88529,6.426002 3.929458,6.430348 3.949341,6.432305 4.096614,6.446795 4.249007,6.471559 4.323579,6.487203 4.344154,6.492583 4.425569,6.531784 4.442244,6.546994 4.473419,6.594859 4.465724,6.612774 4.445907,6.63683 4.3909,6.659679 4.365163,6.664493 4.284765,6.667742 4.120493,6.670937 4.093648,6.669849 4.040045,6.66768 3.973941,6.663314 3.981827,6.731455 3.965183,6.765798 3.965901,6.781855 3.957865,6.808078 3.951585,6.844162 3.937759,6.896879 3.930785,6.909158 3.919626,6.924011 3.905703,6.930512 3.887116,6.943468 3.875008,6.944583 3.828775,6.950839 3.78313,6.914422 3.747787,6.913506 3.741487,6.911119 3.706825,6.916108 3.699398,6.919078 3.658949,6.934592 3.65095,6.937811 3.628516,6.937721 3.604723,6.92901 3.571415,6.926512 3.563188,6.925918 3.453293,6.927764 3.425127,6.934489 3.35236,6.935433 3.336437,6.931637 3.249636,6.869958 3.127118,6.796082 3.110803,6.772438 3.078875,6.750239 3.062257,6.730715 3.022709,6.697826 3.012344,6.691006 2.926527,6.636268 2.91523,6.627744 2.894972,6.618652 2.890579,6.613929 2.803169,6.575012 2.749289,6.548661 2.731851,6.540271 2.654481,6.536515 2.483403,6.480762 2.426462,6.476333 2.40622,6.477306 2.33844,6.446212 2.289065,6.44411 2.288127,6.443974 2.284238,6.442796 2.225812,6.419404 2.164472,6.400152 2.111434,6.383121 2.08892,6.376776 2.078414,6.369782 2.065659,6.370471 1.976349,6.355333 1.966526,6.352708 1.952696,6.350407 1.944476,6.347664 1.820768,6.298052 1.744191,6.286222 1.621287,6.27236 1.620283,6.272208 1.569723,6.261322 1.553436,6.27036 1.516328,6.272528 1.503334,6.275031 1.458387,6.294059 1.454903,6.295478 1.417147,6.316227 1.410396,6.325544 1.36408,6.357417 1.357618,6.362591 1.356175,6.363198 1.333035,6.356203 1.307711,6.37444 1.289001,6.392579 1.243927,6.417786 1.218744,6.44153 1.201376,6.480808 1.199314,6.494183 1.172048,6.552423 1.124109,6.631496 1.104631,6.649032 1.084659,6.660834 1.039266,6.675939 1.011842,6.691305 1.001463,6.693122 0.948802,6.702349 0.930917,6.699538 0.887618,6.689813 0.858062,6.677983 0.855317,6.676245 0.819517,6.636397 0.797111,6.615199 0.792619,6.604366 0.785839,6.586311 0.773521,6.563363 0.758053,6.514229 0.737848,6.50174 0.71859,6.475551 0.713809,6.454877 0.709724,6.433067 0.712806,6.411616 0.692728,6.29608 0.688,6.272545 0.652204,6.177512 0.602273,6.134923 0.586349,6.134882 0.57051,6.10908 0.502581,5.988574 0.488469,5.937489 0.466973,5.853263 0.468817,5.817504 0.469163,5.786894 0.473712,5.725112 0.487221,5.688245 0.47817,5.647723 0.474603,5.636127 0.451705,5.506862 0.452007,5.477323 0.452055,5.471859 0.457592,5.302576 0.47678,5.242283 0.479341,5.230692 0.485865,5.21715 0.507745,5.137023 0.526374,5.059258 0.529972,5.017925 0.502873,4.969504 0.462701,4.940102 0.443119,4.912753 0.434823,4.906283 0.3984,4.883311 0.38175,4.863813 0.366012,4.844662 0.362642,4.836751 0.341324,4.80832 0.293197,4.733683 0.270256,4.697173 0.267083,4.662071 0.248213,4.550871 0.236992,4.469439 0.237215,4.434308 0.240909,4.40901 0.249052,4.365058 0.246805,4.331735 0.247202,4.326951 0.256093,4.286297 0.260257,4.260714 0.291162,4.166628 0.297684,4.155346 0.298325,4.15303 0.300987,4.148815 0.338962,4.099993 0.359395,4.075732 0.360789,4.073096 0.40583,4.019015 0.428622,4.00245 0.436078,3.996643 0.462283,3.975803 0.469617,3.973323 0.515252,3.938341 0.521182,3.911813 0.523598,3.906822 0.526013,3.886004 0.526169,3.879413 0.524971,3.865744 0.5218,3.840496 0.523032,3.831482 0.524346,3.808559 0.514527,3.790276 0.486633,3.718537 0.483637,3.697898 0.477941,3.669002 0.460348,3.613955 0.455729,3.527237 0.445759,3.40323 0.459877,3.380527 0.459843,3.334371 0.46259,3.316961 0.482834,3.268789 0.4824,3.227784 0.472891,3.181886 0.471854,3.069781 0.46881,3.033142 0.48814,2.998906 0.573856,2.803631 0.582068,2.784921 0.586274,2.778291 0.604032,2.77719 0.652883,2.734387 0.658504,2.719603 0.6888,2.667352 0.703952,2.535665 0.703374,2.531363 0.70701,2.474973 0.709947,2.462291 0.717767,2.438757 0.738232,2.409923 0.758007,2.397358 0.774372,2.346472 0.79808,2.315374 0.841299,2.239756 0.895526,2.223163 0.927045,2.213989 0.933684,2.209245 0.954116,2.210599 1.017867,2.215295 1.030128,2.226861 1.049935,2.239645 1.08411,2.25124 1.113452,2.271452 1.147686,2.316386 1.15302,2.321278 1.162456,2.341409 1.177342,2.361196 1.179289,2.366556 1.182248,2.392876 1.198693,2.424619 1.240625,2.488168 1.254238,2.502743 1.289106,2.520877 1.303521,2.534376 1.332272,2.557398 1.35688,2.54853 1.366194,2.555345 1.380049,2.564311 1.405548,2.579872 1.407535,2.582641 1.431491,2.599837 1.452971,2.615336 1.468138,2.617777 1.492356,2.627874 1.518003,2.641695 1.541032,2.638022 1.577408,2.652142 1.604545,2.639031 1.654098,2.643454 1.763981,2.637617 1.793427,2.616823 1.952097,2.563392 1.965749,2.559879 1.976498,2.556802 1.977849,2.556165 1.994679,2.554781 2.013845,2.559271 2.030233,2.547949 2.046209,2.541492 2.053506,2.540728 2.064693,2.542419 2.097335,2.532074 2.164894,2.512181 2.288595,2.467644 2.369703,2.445721 2.461297,2.430158 2.503862,2.426463 2.544828,2.411209 2.611839,2.390902 2.735339,2.370821 2.749494,2.363249 2.803763,2.336445 2.857284,2.304828 2.885799,2.299096 2.91287,2.280223 2.953179,2.25793 2.996616,2.234006 3.025241,2.215417 3.103369,2.138058 3.123275,2.11694 3.140558,2.105517 3.305306,1.996724 3.338453,1.978124 3.353812,1.97507 3.396299,1.975604 3.415455,1.967134 3.446877,1.972926 3.491844,1.985271 3.504939,1.985134 3.56159,1.986155 3.567985,1.986762 3.575474,1.985446 3.60061,1.983424 3.650455,1.973924 3.652929,1.975195 3.740382,2.000694 3.775621,2.000728 3.825679,1.96067 3.825854,1.960587" style="fill: white" />
</svg>
