<svg width="13.600213" height="8.910821">
<polygon type="contour" points="5.679572,1.014392 5.789975,1.131767 5.790327,1.13257 5.903398,1.256112 5.941588,1.268013 5.945729,1.267445 5.968457,1.270841 5.988019,1.279465 6.016511,1.299508 6.037579,1.317493 6.087682,1.36448 6.112524,1.389392 6.119448,1.398099 6.132424,1.410914 6.140567,1.42185 6.155816,1.429242 6.161217,1.433562 6.180783,1.438065 6.223085,1.450481 6.256286,1.459735 6.262617,1.462082 6.281865,1.469132 6.313466,1.493653 6.429453,1.600296 6.509394,1.671461 6.537945,1.697381 6.553622,1.709886 6.565078,1.730089 6.580483,1.774207 6.596591,1.849478 6.627742,1.871629 6.662135,1.91012 6.692646,1.908367 6.722065,1.908161 6.732817,1.905742 6.740659,1.904006 6.863348,1.92727 6.875791,1.931957 6.876663,1.932032 6.877535,1.932333 6.880058,1.933247 6.888472,1.937119 6.972615,1.976996 6.983802,1.997189 7.001726,2.004971 7.007999,2.010177 7.076005,2.049369 7.111247,2.054243 7.142013,2.06975 7.165289,2.091001 7.277912,2.19354 7.510846,2.37715 7.570804,2.427019 7.595618,2.442767 7.639333,2.454772 7.667916,2.470961 7.678869,2.47537 7.757605,2.525033 7.821003,2.569612 7.864457,2.606409 7.908995,2.641307 7.930607,2.653447 7.968469,2.685008 8.011357,2.730043 8.100577,2.829257 8.103132,2.833718 8.124519,2.856599 8.151723,2.861719 8.171487,2.871315 8.208558,2.861367 8.226265,2.85578 8.248832,2.850449 8.263024,2.853139 8.312095,2.865488 8.403355,2.903333 8.456875,2.930408 8.483169,2.954105 8.493037,2.972423 8.53532,3.018175 8.590585,3.050558 8.61961,3.063012 8.657206,3.08303 8.65762,3.083539 8.762927,3.152944 8.770463,3.154201 8.796464,3.174153 8.8099,3.186276 8.904409,3.262231 8.927144,3.272376 8.980967,3.306635 9.023148,3.339581 9.087777,3.391049 9.110616,3.405417 9.113842,3.408025 9.124495,3.422156 9.142844,3.435744 9.161347,3.449286 9.203163,3.481969 9.214009,3.490919 9.226989,3.504627 9.235521,3.511553 9.246112,3.517151 9.266513,3.529176 9.30327,3.527149 9.313863,3.521422 9.322787,3.52166 9.349882,3.505839 9.365477,3.498035 9.376881,3.494708 9.395755,3.49452 9.398921,3.494911 9.401312,3.495408 9.458075,3.514938 9.491085,3.540796 9.549185,3.566136 9.570778,3.573961 9.580022,3.580809 9.591792,3.591855 9.681333,3.68749 9.747495,3.760399 9.788816,3.811709 9.831031,3.876471 9.923879,4.056791 9.934299,4.091414 9.975341,4.202248 10.005026,4.258874 10.034126,4.339468 10.045043,4.36922 10.037102,4.48078 10.041399,4.568057 10.028233,4.609118 10.010229,4.655623 9.975933,4.746675 9.938096,4.814982 9.933641,4.835315 9.84049,5.01582 9.790274,5.107287 9.73751,5.173388 9.617565,5.297743 9.572034,5.338497 9.491944,5.381183 9.447025,5.395807 9.435435,5.400874 9.401532,5.416082 9.398665,5.416824 9.395756,5.4171 9.365114,5.41166 9.346545,5.404672 9.342893,5.404468 9.305028,5.385002 9.266009,5.382753 9.246508,5.394168 9.235582,5.400019 9.225422,5.408708 9.213928,5.421038 9.206848,5.426818 9.203167,5.430226 9.138552,5.480392 9.114652,5.502022 9.095865,5.51222 9.030881,5.564037 9.020903,5.577559 8.975633,5.613305 8.906958,5.647919 8.864497,5.688581 8.802851,5.732258 8.795537,5.738163 8.77349,5.755414 8.706878,5.797198 8.702497,5.798065 8.661012,5.825497 8.654541,5.831189 8.64093,5.836472 8.555661,5.885683 8.500187,5.935557 8.489808,5.951033 8.454794,5.982399 8.424428,6.000642 8.407272,6.01468 8.38332,6.027432 8.320749,6.047027 8.288299,6.047668 8.270514,6.051817 8.252849,6.056558 8.231237,6.058372 8.205004,6.045489 8.19535,6.049925 8.167463,6.042622 8.142073,6.054252 8.123925,6.057609 8.046042,6.13428 8.028605,6.154381 7.964899,6.222272 7.932136,6.255234 7.890892,6.27322 7.853626,6.322106 7.760437,6.382348 7.7314,6.398958 7.583262,6.472715 7.572819,6.479218 7.491765,6.54103 7.418786,6.605305 7.404607,6.626891 7.354987,6.661807 7.340446,6.674622 7.333026,6.676354 7.254114,6.738838 7.13597,6.83739 7.088647,6.873538 7.052816,6.875178 7.035116,6.886241 6.993851,6.911534 6.986504,6.915622 6.980543,6.918325 6.957939,6.939106 6.935686,6.950687 6.914965,6.955981 6.903605,6.961527 6.893069,6.966091 6.812573,6.98861 6.808148,6.991165 6.78607,6.999323 6.73751,6.993267 6.645099,7.005388 6.631573,7.054803 6.574975,7.158781 6.561821,7.180207 6.500322,7.275131 6.319243,7.414431 6.289735,7.438826 6.245382,7.454004 6.225536,7.457397 6.217137,7.463747 6.207766,7.464133 6.171164,7.473388 6.130135,7.512325 6.109819,7.517733 6.018168,7.609532 5.987587,7.631902 5.985805,7.633332 5.957473,7.643589 5.949986,7.642765 5.929173,7.646626 5.901152,7.656285 5.848513,7.71672 5.745165,7.794499 5.731368,7.868696 5.695934,7.917351 5.655883,7.91479 5.615469,7.868603 5.558115,7.824972 5.440301,7.794956 5.406572,7.757491 5.398441,7.72761 5.28043,7.709125 5.231212,7.696961 5.192538,7.70818 5.169224,7.71084 5.12078,7.730533 5.095295,7.749316 5.027438,7.776206 4.84027,7.765287 4.797842,7.768245 4.7378,7.763523 4.704085,7.758835 4.597167,7.74697 4.588447,7.742659 4.414007,7.731915 4.398665,7.733985 4.377917,7.733747 4.349322,7.736532 4.310757,7.735433 4.257444,7.736697 4.238796,7.748152 4.228055,7.752201 4.127384,7.751218 4.123883,7.755505 4.08261,7.753245 4.044706,7.74592 3.999017,7.727969 3.986054,7.710493 3.953438,7.692026 3.929929,7.676769 3.858534,7.64159 3.85792,7.641248 3.798665,7.602287 3.776846,7.58284 3.738205,7.596741 3.682045,7.574161 3.673195,7.573439 3.664521,7.569048 3.553282,7.539798 3.526624,7.526453 3.511893,7.518874 3.503003,7.498726 3.466638,7.473334 3.438956,7.479991 3.413601,7.47357 3.360699,7.472181 3.310383,7.450188 3.25569,7.424691 3.221381,7.399548 3.19485,7.370471 3.172243,7.344801 3.158238,7.332393 3.151417,7.330373 3.145943,7.324119 3.091364,7.29424 3.063322,7.290782 3.014383,7.281715 3.000153,7.302433 2.999946,7.302477 2.912044,7.355509 2.861096,7.401138 2.825172,7.423341 2.787256,7.434884 2.778832,7.435863 2.720234,7.430703 2.678504,7.43719 2.676817,7.437628 2.675967,7.437635 2.552204,7.405303 2.489154,7.387657 2.455529,7.366557 2.404751,7.372931 2.390846,7.383546 2.359139,7.385715 2.329848,7.387504 2.131989,7.310176 2.127006,7.308411 2.014902,7.249867 1.991194,7.215727 1.911131,7.245456 1.903932,7.267928 1.894064,7.283125 1.829798,7.293563 1.827195,7.294088 1.823003,7.292746 1.782719,7.288238 1.750373,7.294484 1.673827,7.371976 1.664161,7.381207 1.655356,7.385376 1.592324,7.399234 1.579009,7.397289 1.570971,7.401275 1.557535,7.403717 1.546992,7.398626 1.534151,7.404135 1.531786,7.404161 1.506945,7.389995 1.49486,7.395066 1.448861,7.375366 1.408563,7.368941 1.390302,7.360221 1.279092,7.304514 1.274368,7.297538 1.252284,7.277643 1.192777,7.186972 1.141425,7.161233 1.106801,7.142769 1.051218,7.065389 0.969281,6.905891 0.955157,6.887908 0.950697,6.882128 0.949831,6.862118 0.951359,6.855426 0.955092,6.838342 0.957637,6.824154 0.957145,6.820045 0.9588,6.801085 0.955811,6.785053 0.9569,6.768514 0.954236,6.757314 0.949807,6.7332 0.930517,6.707911 0.912152,6.667949 0.883178,6.639719 0.877449,6.634565 0.874115,6.631187 0.866887,6.620737 0.774406,6.433682 0.752832,6.344338 0.688303,6.178253 0.681865,6.149136 0.648998,6.026234 0.600032,5.808652 0.574555,5.690757 0.569117,5.664851 0.568225,5.654767 0.580975,5.571791 0.583724,5.519499 0.552019,5.334934 0.533814,5.246912 0.529888,5.222921 0.529078,5.214793 0.534635,5.187994 0.551588,5.154617 0.546882,5.118276 0.54912,5.103565 0.536678,5.084314 0.527737,5.064977 0.462689,5.016271 0.461008,4.996501 0.446355,4.874913 0.436895,4.695405 0.440435,4.675742 0.442079,4.658725 0.478653,4.614014 0.486444,4.426597 0.488493,4.372356 0.460444,4.291733 0.46114,4.252997 0.44351,4.239149 0.439987,4.182912 0.451095,3.98811 0.458723,3.966279 0.462675,3.912313 0.464933,3.895933 0.477393,3.885286 0.486674,3.875312 0.512898,3.861223 0.53533,3.83309 0.553537,3.805502 0.548153,3.789282 0.548339,3.787673 0.54796,3.782399 0.550615,3.765279 0.544418,3.751687 0.545974,3.742191 0.534154,3.725553 0.532224,3.701488 0.541049,3.666856 0.558147,3.561833 0.56214,3.541837 0.569914,3.499383 0.570477,3.486005 0.56978,3.452014 0.555599,3.364587 0.557395,3.284524 0.57302,3.199481 0.61814,3.020077 0.631822,2.975963 0.675029,2.798591 0.69166,2.716486 0.732534,2.603874 0.750293,2.581324 0.773232,2.520809 0.80863,2.413275 0.827629,2.372596 0.859733,2.305469 0.878773,2.282342 0.887147,2.269239 0.903082,2.255873 0.918316,2.229982 0.94285,2.184692 0.943011,2.182754 0.946614,2.175432 0.954528,2.156396 0.955579,2.132165 0.958718,2.110265 0.955924,2.099605 0.956741,2.085184 0.945479,2.042015 0.996256,1.966374 1.020903,1.902653 1.034965,1.865907 1.087721,1.790296 1.113687,1.764644 1.176872,1.723984 1.192478,1.714126 1.213598,1.68921 1.233498,1.670874 1.2458,1.646546 1.279108,1.606863 1.355659,1.572118 1.388157,1.552391 1.401661,1.546332 1.44119,1.536509 1.49007,1.516812 1.518048,1.515294 1.531791,1.50746 1.534414,1.507545 1.547098,1.512684 1.556555,1.508173 1.586162,1.511227 1.587029,1.511117 1.613549,1.516638 1.62331,1.521926 1.633079,1.521196 1.675212,1.54561 1.716373,1.56963 1.746573,1.618978 1.798991,1.62106 1.825631,1.619805 1.855709,1.62242 1.876243,1.622571 1.895033,1.629286 1.902009,1.633626 1.906077,1.65138 1.92357,1.674003 1.956096,1.682761 1.983835,1.691188 2.025149,1.65852 2.026682,1.65692 2.027485,1.65647 2.029094,1.655395 2.199461,1.557127 2.333242,1.518684 2.376211,1.524258 2.396157,1.537077 2.45379,1.546985 2.490066,1.523581 2.564689,1.505893 2.65264,1.486517 2.655878,1.484488 2.678739,1.478302 2.754496,1.478057 2.855509,1.506685 2.871782,1.51737 2.909007,1.546399 2.944317,1.580421 3.022419,1.625129 3.066895,1.620481 3.086702,1.619931 3.10867,1.610637 3.125821,1.597098 3.157176,1.557154 3.209099,1.508677 3.222728,1.501709 3.244878,1.490388 3.341195,1.449094 3.350157,1.446651 3.36196,1.445929 3.416663,1.434747 3.48769,1.43426 3.508946,1.398212 3.510834,1.392185 3.517949,1.389379 3.587065,1.360552 3.657953,1.341665 3.743606,1.316502 3.772493,1.328623 3.805296,1.304863 3.806574,1.303677 3.808709,1.302706 3.866499,1.268809 3.945569,1.226227 3.965105,1.212412 3.97357,1.206945 3.976164,1.20488 3.980051,1.20349 4.005512,1.179664 4.044219,1.166158 4.119113,1.154238 4.175309,1.156782 4.178843,1.15935 4.217427,1.159885 4.228055,1.160068 4.247256,1.169963 4.285149,1.176031 4.315476,1.176133 4.348938,1.17948 4.372036,1.178437 4.480328,1.174175 4.492364,1.171379 4.519979,1.169018 4.546646,1.168326 4.655619,1.157804 4.719122,1.150402 4.905167,1.138238 4.940325,1.138285 4.948759,1.140299 5.010655,1.154826 5.108343,1.167384 5.12698,1.176181 5.140667,1.18798 5.194989,1.220496 5.224234,1.219001 5.260501,1.217393 5.37016,1.185772 5.426831,1.148425 5.427366,1.130319 5.445629,1.108277 5.488509,1.107601 5.588202,1.063375 5.630414,1.006079" style="fill: white" /><polygon type="hole" points="5.443549,2.94215 5.203632,2.959949 5.010944,3.034113 4.990626,3.039346 4.792047,3.20295 4.781589,3.211308 4.704211,3.319308 4.658015,3.410484 4.647146,3.536552 4.642887,3.591795 4.645897,3.687823 4.677815,3.75173 4.68842,3.816601 4.756459,3.928136 4.780918,3.99211 4.800384,4.101438 4.784852,4.313707 4.779428,4.380893 4.781577,4.451857 4.802712,4.745362 4.802242,4.775097 4.790668,4.869955 4.724463,5.053286 4.71636,5.070836 4.707668,5.081078 4.687515,5.14015 4.65549,5.222036 4.644558,5.354358 4.642471,5.371427 4.646319,5.38875 4.674743,5.524666 4.748851,5.657896 4.751495,5.662537 4.758973,5.672854 4.800497,5.713951 4.880599,5.80102 4.933862,5.832626 4.993673,5.874831 5.022726,5.887569 5.084697,5.923831 5.199739,5.946902 5.301303,5.96671 5.476793,5.967629 5.518449,5.964552 5.556994,5.957703 5.644719,5.945978 5.773255,5.914887 5.852998,5.882045 5.886219,5.854227 5.921159,5.832669 6.147291,5.745067 6.200586,5.723214 6.228329,5.713575 6.31433,5.662453 6.409611,5.602985 6.48488,5.502925 6.512081,5.466907 6.636087,5.239105 6.66157,5.185547 6.722747,5.12158 6.748792,5.083425 6.813947,4.999065 6.860554,4.905874 6.880312,4.780156 6.883617,4.762909 6.880939,4.749004 6.882542,4.717976 6.867772,4.460504 6.867329,4.278053 6.87619,4.193175 6.890182,4.143697 6.87397,4.098899 6.870164,4.064234 6.856828,4.025687 6.818201,3.926979 6.760053,3.845501 6.758163,3.842125 6.607038,3.620078 6.561619,3.515277 6.535479,3.476625 6.509874,3.445545 6.422933,3.324594 6.389947,3.287449 6.359075,3.274078 6.339655,3.260377 6.314549,3.247552 6.268791,3.214876 6.239669,3.20643 6.174329,3.177916 6.163769,3.173029 5.973404,3.092146 5.947519,3.085984 5.91934,3.071361 5.905942,3.059326 5.849234,3.029536 5.746037,2.992567 5.687835,2.970021 5.653973,2.961278 5.641504,2.959342 5.475423,2.941769" style="fill: black" />
</svg>
