<svg width="13.600213" height="8.910821">
<polygon type="contour" points="5.725158,2.892059 5.732023,2.89482 5.824702,2.941066 5.838858,2.952519 5.841517,2.953476 5.843286,2.956101 5.875507,3.00392 5.896533,3.027517 5.905694,3.048741 5.941905,3.174221 5.957057,3.217022 5.972257,3.292615 5.986757,3.351083 5.990244,3.406073 6.00056,3.473411 6.003432,3.484053 6.003039,3.486363 6.021557,3.587344 6.036572,3.662633 6.039021,3.673389 6.120788,3.963686 6.122396,3.968324 6.129194,3.987473 6.162993,4.061219 6.187256,4.10013 6.240934,4.17649 6.263432,4.215905 6.311116,4.28558 6.342625,4.324044 6.383671,4.407203 6.398793,4.43966 6.399238,4.45149 6.395537,4.469936 6.392615,4.477654 6.38638,4.487556 6.330725,4.584996 6.328849,4.59691 6.274757,4.690995 6.273954,4.692636 6.228603,4.74937 6.190165,4.797523 6.185432,4.804566 6.085494,5.041961 6.07618,5.099129 6.030381,5.240409 6.019185,5.28812 6.016977,5.300699 6.010914,5.373597 5.994398,5.557561 5.985904,5.597996 5.982374,5.602076 5.975051,5.627663 5.962871,5.690082 5.961002,5.701611 5.957917,5.710059 5.902065,5.859789 5.891145,5.889657 5.859648,5.929103 5.85063,5.93998 5.827632,5.958746 5.7384,6.019181 5.735463,6.020189 5.724321,6.023286 5.637526,6.027711 5.602202,6.018112 5.572222,6.024555 5.500985,6.011421 5.436179,5.993068 5.392604,5.973434 5.317089,5.93225 5.306045,5.922764 5.284448,5.909692 5.228814,5.860033 5.19735,5.82274 5.17613,5.782214 5.140786,5.705519 5.112365,5.629573 5.108566,5.597617 5.094693,5.494268 5.094455,5.489593 5.0955,5.484499 5.106841,5.348957 5.11177,5.317444 5.11463,5.212711 5.125276,5.165459 5.126678,5.148162 5.139969,5.097874 5.151486,5.0384 5.154406,5.02454 5.200553,4.89381 5.20789,4.870131 5.24318,4.796528 5.259265,4.767296 5.319019,4.690418 5.436558,4.531211 5.445222,4.522824 5.457258,4.509875 5.489903,4.455611 5.463037,4.415488 5.401246,4.314587 5.319,4.226342 5.287236,4.190365 5.197983,4.033895 5.195335,4.028831 5.190424,4.016364 5.149366,3.871385 5.128962,3.813004 5.126742,3.797664 5.116879,3.682478 5.096079,3.481384 5.095932,3.446606 5.100625,3.371472 5.106892,3.322304 5.108996,3.30248 5.124045,3.265459 5.130713,3.242873 5.130493,3.230994 5.143977,3.196649 5.17117,3.140503 5.184149,3.120663 5.210244,3.07574 5.231984,3.048721 5.247051,3.036868 5.281679,3.005681 5.31085,2.980842 5.314555,2.976861 5.325866,2.969056 5.333657,2.962294 5.381739,2.936553 5.407568,2.929072 5.416694,2.935273 5.461569,2.918563 5.533025,2.892764 5.571371,2.88165 5.576069,2.88138 5.577619,2.881328" style="fill: white" /><polygon type="contour" points="5.835753,1.571949 5.857285,1.573014 5.87267,1.581219 5.883524,1.58267 5.896577,1.590834 5.935455,1.603113 5.974368,1.621382 5.978942,1.622759 6.006552,1.635823 6.132983,1.619785 6.152708,1.613889 6.173765,1.616386 6.321911,1.629644 6.436462,1.649708 6.523503,1.659907 6.69862,1.727772 6.707432,1.733816 6.722614,1.745599 6.811281,1.822147 6.845099,1.838812 6.929258,1.874438 6.969162,1.900815 7.02927,1.933784 7.034498,1.934907 7.06835,1.950511 7.097778,1.961223 7.12234,1.969676 7.141989,1.965766 7.156804,1.96577 7.175413,1.969205 7.231725,1.983739 7.281948,1.996463 7.415369,2.061383 7.43933,2.06868 7.532175,2.125838 7.655397,2.204837 7.660012,2.210687 7.700093,2.268187 7.750169,2.341602 7.753379,2.346791 7.755353,2.353219 7.830106,2.483694 7.836057,2.494486 7.838115,2.497987 7.873308,2.617289 7.935057,2.697464 7.999321,2.769965 8.018411,2.791766 8.218717,2.924374 8.261079,2.95765 8.277375,2.966049 8.306542,2.992993 8.365111,3.054059 8.375256,3.059997 8.386518,3.073353 8.398477,3.082155 8.422935,3.103336 8.44521,3.113624 8.492819,3.157926 8.541225,3.20567 8.551193,3.225477 8.554282,3.241066 8.565713,3.257441 8.599707,3.294601 8.6276,3.312728 8.660546,3.36364 8.658791,3.384771 8.67395,3.411571 8.68927,3.430906 8.728726,3.459862 8.753733,3.474799 8.770258,3.488355 8.794912,3.514303 8.836334,3.541455 8.840582,3.542717 8.884792,3.568937 8.939858,3.610942 8.948563,3.619427 8.953469,3.626448 8.966405,3.652464 8.973404,3.666633 8.997741,3.690996 9.037896,3.703766 9.100472,3.78434 9.115761,3.8065 9.11998,3.81383 9.12178,3.817147 9.121947,3.819189 9.130548,3.832972 9.167034,3.918999 9.177667,3.941889 9.210421,4.106806 9.231913,4.159604 9.23788,4.213676 9.235265,4.347034 9.224837,4.544564 9.232619,4.662769 9.223239,4.69374 9.212416,4.716948 9.216446,4.841871 9.189189,4.896267 9.187817,4.920002 9.179677,4.95146 9.173816,4.962766 9.1104,5.08215 9.099503,5.127594 9.072404,5.163001 9.054939,5.19125 9.046013,5.202242 9.039073,5.208081 8.996383,5.221688 8.973571,5.244196 8.963178,5.267332 8.950767,5.290117 8.938074,5.302386 8.858498,5.36193 8.835091,5.368026 8.809515,5.391399 8.787412,5.401316 8.768689,5.41733 8.719605,5.461223 8.694675,5.476225 8.686486,5.487602 8.677731,5.496106 8.667932,5.505339 8.651975,5.555174 8.633432,5.584082 8.623337,5.59488 8.618392,5.604501 8.555781,5.679091 8.555654,5.679656 8.477823,5.757699 8.458733,5.779716 8.382526,5.843682 8.369579,5.850792 8.320176,5.910491 8.31065,5.919605 8.302638,5.923894 8.287439,5.93795 8.029898,6.103314 7.906663,6.257254 7.856339,6.320347 7.861621,6.346166 7.841734,6.384464 7.767997,6.534248 7.756723,6.555879 7.755305,6.560648 7.750182,6.569786 7.747338,6.57213 7.665532,6.682404 7.58244,6.733737 7.491599,6.809343 7.369766,6.870471 7.344177,6.880112 7.308627,6.89078 7.276529,6.901539 7.196956,6.931324 7.15511,6.945035 7.13284,6.945213 7.119527,6.942785 6.86695,7.052893 6.869971,7.062893 6.813718,7.090555 6.767032,7.131998 6.763127,7.13462 6.758764,7.137778 6.596527,7.234633 6.529825,7.249675 6.462478,7.258341 6.243258,7.292978 6.229862,7.293418 6.181916,7.297843 6.108434,7.283318 6.013662,7.274041 5.975891,7.294171 5.92564,7.302007 5.865741,7.336193 5.858609,7.337945 5.83393,7.340617 5.832313,7.340646 5.779382,7.3348 5.742046,7.32924 5.712831,7.314125 5.645944,7.276442 5.57549,7.222907 5.569375,7.219082 5.548112,7.180056 5.547464,7.179583 5.546502,7.176035 5.54576,7.156981 5.548393,7.149575 5.568341,7.116932 5.576651,7.082421 5.579812,7.063475 5.607443,7.03132 5.616891,6.992394 5.737552,6.816741 5.759118,6.789819 5.753232,6.736937 5.734742,6.705872 5.693142,6.653686 5.673313,6.66187 5.64221,6.650646 5.592641,6.614578 5.549444,6.579739 5.541898,6.564225 5.50113,6.532929 5.423333,6.50512 5.40931,6.499393 5.366468,6.486024 5.347553,6.47353 5.360936,6.459616 5.361543,6.45602 5.390752,6.448933 5.397992,6.445143 5.401714,6.444255 5.574556,6.429786 5.620936,6.423103 5.685353,6.417769 5.831575,6.38549 5.873224,6.384644 5.890697,6.375027 5.960983,6.357041 6.086287,6.28628 6.293805,6.158695 6.312842,6.139748 6.332464,6.131739 6.350716,6.114221 6.477242,6.059709 6.556303,6.021489 6.703002,5.946286 6.913679,5.845127 6.93195,5.835906 6.964071,5.811674 7.235485,5.612953 7.381409,5.483343 7.463354,5.295164 7.489653,5.227846 7.509469,5.196936 7.571073,5.078913 7.585187,4.998904 7.630914,4.896457 7.634933,4.881767 7.660699,4.746638 7.66577,4.712535 7.695523,4.597281 7.699681,4.572101 7.699638,4.561452 7.69874,4.481236 7.687998,4.233071 7.67927,4.201709 7.641555,4.078898 7.612789,3.962059 7.538296,3.784158 7.508794,3.712463 7.491271,3.681112 7.458645,3.586284 7.400227,3.456924 7.352723,3.398022 7.199404,3.278003 7.124139,3.219009 6.952787,3.091716 6.921545,3.068907 6.625686,2.920736 6.564844,2.890774 6.561717,2.889509 6.560814,2.888916 6.364205,2.803752 6.345408,2.790832 6.328496,2.781562 6.235786,2.718099 6.032119,2.592499 5.957877,2.553835 5.736949,2.499426 5.704994,2.495071 5.549067,2.483722 5.499755,2.482257 5.430958,2.469085 5.415813,2.469375 5.402245,2.467405 5.398195,2.466334 5.390582,2.462491 5.361175,2.455382 5.361457,2.453043 5.348532,2.438662 5.353231,2.430292 5.395913,2.41667 5.400842,2.41411 5.417607,2.407373 5.447839,2.396895 5.500964,2.378289 5.52153,2.365477 5.542225,2.351591 5.54578,2.32682 5.555261,2.320021 5.574369,2.30802 5.608278,2.292237 5.714557,2.234515 5.758301,2.135101 5.722778,2.070028 5.62563,1.93351 5.585348,1.855725 5.574485,1.836699 5.572591,1.817375 5.57294,1.801245 5.548338,1.761162 5.546396,1.756803 5.547108,1.753138 5.558283,1.706982 5.570078,1.690208 5.580772,1.67609 5.5959,1.656439 5.644562,1.627694 5.692857,1.59852 5.713941,1.590646 5.770247,1.575275 5.776798,1.574187 5.799326,1.571646 5.813149,1.571083 5.818474,1.572397 5.829158,1.570803" style="fill: white" /><polygon type="contour" points="0.61307,1.276816 0.635695,1.286569 0.669593,1.318969 0.711746,1.37931 0.764626,1.368273 0.779716,1.36615 0.821517,1.388261 0.824447,1.389562 0.839043,1.400075 0.853276,1.406439 0.863204,1.41725 0.8974,1.446456 0.930822,1.501121 0.96312,1.540592 0.971216,1.581605 0.976443,1.60057 0.997931,1.615912 1.037417,1.630312 1.054028,1.643015 1.076554,1.657051 1.083632,1.662337 1.083243,1.663118 1.139047,1.721174 1.18243,1.758674 1.21605,1.826431 1.253141,1.863195 1.278089,1.929711 1.322239,1.929766 1.329678,1.930884 1.361352,1.929103 1.372273,1.931276 1.407335,1.952391 1.471946,1.986953 1.481286,1.993678 1.484515,1.994384 1.487431,1.997703 1.498486,2.003836 1.534048,2.037908 1.638105,2.12523 1.661614,2.110287 1.699881,2.136669 1.710955,2.145167 1.716951,2.182561 1.764336,2.175833 1.790657,2.180173 1.914526,2.149086 1.932807,2.145514 1.945301,2.147841 1.96447,2.165054 2.067124,2.150528 2.074748,2.140936 2.08211,2.139017 2.090218,2.131766 2.104444,2.129342 2.133397,2.113658 2.137051,2.112556 2.166378,2.109641 2.199304,2.105416 2.221055,2.106948 2.266173,2.090253 2.274176,2.08652 2.280984,2.081811 2.311858,2.058207 2.395765,1.998779 2.453888,1.961948 2.491628,1.937191 2.55397,1.914853 2.600019,1.90685 2.615065,1.909402 2.644253,1.893934 2.661006,1.89054 2.67575,1.883681 2.701878,1.870819 2.715608,1.8598 2.779386,1.829345 2.807553,1.805474 2.81178,1.802247 2.828127,1.793842 3.075331,1.671719 3.078301,1.671369 3.092812,1.672394 3.13134,1.670279 3.17878,1.653596 3.184867,1.600863 3.182241,1.57578 3.187167,1.562876 3.200501,1.552868 3.2158,1.541981 3.306138,1.49253 3.328133,1.475974 3.383124,1.450168 3.389658,1.448829 3.398234,1.453781 3.453231,1.457559 3.462789,1.427082 3.493616,1.394908 3.500344,1.389897 3.552964,1.365646 3.635717,1.326349 3.659526,1.318458 3.671593,1.314957 3.715345,1.316026 3.725748,1.313653 3.739251,1.309558 3.749211,1.310898 3.80732,1.312425 3.825639,1.312548 3.835369,1.322991 3.850414,1.345995 3.869337,1.403897 3.874774,1.410479 3.875013,1.419426 3.883759,1.51767 3.910212,1.550461 3.967422,1.657229 3.989636,1.682103 3.992836,1.698244 3.968049,1.763536 3.964517,1.798628 3.960759,1.805047 3.957339,1.808555 3.872483,1.889599 3.868437,1.891636 3.86192,1.896013 3.828911,1.922297 3.820077,1.994976 3.857065,2.102722 3.922797,2.230821 3.953704,2.278074 3.967402,2.290643 3.984452,2.299517 4.039522,2.349852 4.04178,2.353698 4.037502,2.36808 4.058126,2.391519 4.008978,2.41388 4.001079,2.421275 3.992243,2.423452 3.948996,2.430546 3.931891,2.425131 3.895086,2.429988 3.856698,2.434534 3.819942,2.448589 3.70086,2.470755 3.677755,2.484341 3.674412,2.485373 3.673669,2.485278 3.660477,2.485292 3.651792,2.485004 3.643823,2.486495 3.546481,2.501723 3.536044,2.504167 3.520306,2.511699 3.500567,2.509831 3.477398,2.508041 3.453096,2.512485 3.431129,2.518334 3.414951,2.519998 3.373728,2.53969 3.366782,2.54608 3.348599,2.557535 3.334041,2.576426 3.292225,2.621153 3.254348,2.677193 3.21777,2.722687 3.091883,2.860664 3.063914,2.875782 2.904503,3.029353 2.888223,3.043361 2.874035,3.068827 2.839701,3.16224 2.813525,3.221691 2.716228,3.429732 2.701758,3.466819 2.612249,3.62608 2.593843,3.68558 2.576913,3.783394 2.57688,3.842937 2.589481,3.918842 2.596031,3.987246 2.620561,4.035797 2.618175,4.068302 2.618735,4.072023 2.61011,4.092903 2.612898,4.104396 2.610568,4.132227 2.639738,4.156195 2.663891,4.189532 2.673605,4.210925 2.67569,4.224164 2.672672,4.245551 2.66605,4.262745 2.634164,4.345535 2.596755,4.425781 2.584561,4.451943 2.59383,4.505487 2.618003,4.536216 2.623454,4.548213 2.65046,4.636287 2.669708,4.682749 2.67094,4.691435 2.660662,4.711081 2.655253,4.719021 2.616701,4.775553 2.609317,4.801682 2.616545,4.832867 2.620113,4.840558 2.613894,4.862967 2.6127,4.876615 2.588893,4.934372 2.578972,4.976744 2.580958,5.002127 2.571062,5.043102 2.572767,5.097916 2.593834,5.220305 2.613024,5.296633 2.702866,5.459147 2.858249,5.807328 2.883988,5.860906 2.890071,5.870283 3.064057,6.043721 3.107708,6.070539 3.192783,6.182942 3.317327,6.315867 3.34415,6.345986 3.353667,6.355952 3.37644,6.372657 3.424251,6.385736 3.457194,6.395474 3.487356,6.394755 3.511322,6.398457 3.513329,6.399753 3.528869,6.404937 3.539147,6.409657 3.560383,6.413701 3.576704,6.421374 3.612546,6.424819 3.639701,6.427427 3.677996,6.436283 3.747539,6.441586 3.894934,6.490369 3.93097,6.48641 3.933774,6.484609 3.952528,6.481014 3.979033,6.483949 3.992426,6.488243 4.000106,6.493398 4.038826,6.51538 4.046235,6.522145 4.029502,6.570626 4.009807,6.58488 4.003624,6.595109 3.987982,6.608512 3.978966,6.619567 3.937864,6.648774 3.918487,6.687543 3.841169,6.868854 3.820841,6.977981 3.86239,6.999376 3.939482,7.097715 3.952871,7.112974 3.959125,7.129927 3.986521,7.19182 3.987252,7.206999 3.987129,7.23211 3.987404,7.233758 3.896113,7.364231 3.881918,7.396177 3.884671,7.420726 3.880597,7.459073 3.87225,7.514746 3.832221,7.591965 3.825955,7.597639 3.808416,7.607378 3.789218,7.611745 3.751508,7.607476 3.718062,7.603768 3.70836,7.601559 3.693402,7.598598 3.641485,7.582004 3.631277,7.585393 3.625963,7.584204 3.545901,7.549415 3.487818,7.519293 3.469505,7.505635 3.46714,7.493344 3.448028,7.44151 3.389743,7.455464 3.254371,7.389496 3.199388,7.357134 3.186995,7.348451 3.182767,7.340159 3.184993,7.315881 3.190385,7.264133 3.133904,7.241289 3.089029,7.239652 3.076879,7.240418 3.067017,7.236743 2.786493,7.086729 2.776546,7.080466 2.773751,7.078079 2.723333,7.054116 2.648303,7.016396 2.635598,7.012519 2.613107,7.00166 2.599944,7.001145 2.584512,6.996615 2.560982,6.994068 2.534807,6.992534 2.515611,6.977143 2.502172,6.975204 2.476429,6.967346 2.465119,6.962116 2.374407,6.891975 2.312323,6.853438 2.287197,6.838032 2.260887,6.814469 2.192509,6.806523 2.138872,6.798961 2.134522,6.798309 2.133048,6.797757 2.131855,6.797504 2.107223,6.784418 2.092454,6.780939 2.070828,6.761695 2.0427,6.75953 2.007116,6.758696 1.962078,6.752332 1.947134,6.760957 1.906813,6.757813 1.855146,6.756822 1.815917,6.741751 1.787685,6.73066 1.762711,6.735637 1.714959,6.728894 1.709377,6.769499 1.707307,6.770838 1.700659,6.76941 1.6604,6.801008 1.632602,6.780269 1.596741,6.826882 1.50137,6.898334 1.420144,6.953995 1.398198,6.964783 1.368381,6.97251 1.323184,6.98171 1.274502,6.99431 1.249022,7.042551 1.232638,7.081732 1.193562,7.131182 1.151236,7.17654 1.127639,7.197548 1.109899,7.215216 1.087706,7.230458 0.980017,7.310232 0.971022,7.326407 0.947371,7.404054 0.928022,7.426707 0.9089,7.446707 0.894639,7.46858 0.88165,7.48367 0.863025,7.494261 0.848474,7.507008 0.840301,7.509629 0.811738,7.530757 0.803079,7.535128 0.777791,7.544745 0.763719,7.542767 0.734088,7.532754 0.700131,7.547867 0.652622,7.597035 0.623399,7.628458 0.60156,7.64441 0.469028,7.642746 0.430696,7.632381 0.4176,7.625927 0.356954,7.575621 0.334234,7.559256 0.269055,7.419764 0.263396,7.390081 0.252796,7.363085 0.224267,7.127903 0.212662,7.08428 0.208024,7.044019 0.223631,6.95361 0.22043,6.90931 0.268347,6.616564 0.251434,6.577568 0.245176,6.526055 0.260621,6.37321 0.264996,6.355123 0.276584,6.315733 0.290204,6.224197 0.328425,6.15801 0.320534,6.136252 0.315421,6.103206 0.312677,6.047575 0.334985,5.875178 0.348465,5.8124 0.365661,5.761238 0.40439,5.640114 0.421782,5.594754 0.422324,5.583695 0.43225,5.533179 0.431382,5.524603 0.433626,5.47542 0.421927,5.453079 0.418779,5.396789 0.416341,5.364866 0.416603,5.346798 0.417004,5.33148 0.436422,5.23888 0.439435,5.231881 0.454621,5.212577 0.460329,5.195306 0.474638,5.174009 0.510693,5.145306 0.494525,5.082769 0.449372,4.858684 0.430701,4.750132 0.442805,4.671163 0.447763,4.648733 0.456415,4.621229 0.466033,4.544032 0.485283,4.515987 0.509177,4.46234 0.485704,4.369422 0.469275,4.343612 0.463366,4.325644 0.46009,4.311288 0.434333,4.181056 0.432496,4.167316 0.441621,4.094027 0.44898,4.069155 0.446529,4.047584 0.466571,3.924007 0.484601,3.849311 0.487782,3.834549 0.500473,3.803606 0.505667,3.760016 0.47942,3.742354 0.474985,3.738117 0.460435,3.716069 0.441884,3.684026 0.434095,3.667079 0.420861,3.608601 0.420156,3.604463 0.416733,3.564505 0.4155,3.548376 0.416063,3.531948 0.416562,3.513857 0.41855,3.499775 0.419331,3.469482 0.4314,3.429504 0.437033,3.408865 0.419974,3.315328 0.404269,3.271548 0.370772,3.167592 0.349998,3.10325 0.338293,3.058146 0.320982,2.960158 0.313823,2.915767 0.31299,2.870037 0.321944,2.812598 0.320734,2.788176 0.324603,2.738816 0.292919,2.680535 0.284033,2.662034 0.282801,2.639707 0.277211,2.620597 0.270238,2.594654 0.247513,2.389619 0.25124,2.373659 0.248243,2.328672 0.262864,2.263833 0.250835,2.222995 0.236016,2.085122 0.230627,2.041028 0.228638,1.935491 0.207146,1.873518 0.208857,1.857621 0.220458,1.785081 0.224675,1.745945 0.238533,1.68078 0.248178,1.55742 0.257555,1.51959 0.271539,1.491602 0.370593,1.313892 0.406481,1.294281 0.42961,1.275439 0.473595,1.26876 0.600552,1.268438" style="fill: white" />
</svg>
