<svg width="13.600213" height="8.910821">
<polygon type="contour" points="6.657946,2.208942 6.793415,2.225409 6.943064,2.256622 7.024549,2.291191 7.164424,2.339375 7.283561,2.388025 7.30987,2.384029 7.327225,2.386856 7.344777,2.384726 7.346864,2.384786 7.366408,2.394416 7.396109,2.394447 7.41821,2.405006 7.430355,2.407944 7.446275,2.407245 7.466962,2.408476 7.474079,2.411048 7.572188,2.446197 7.577259,2.446543 7.585136,2.451925 7.596444,2.462023 7.610922,2.462888 7.62761,2.475092 7.641047,2.481951 7.716731,2.531883 7.743014,2.546715 7.765079,2.563973 7.77192,2.568766 7.878277,2.638176 7.907324,2.691225 7.943891,2.726901 7.955357,2.764342 7.963846,2.800238 7.963026,2.814182 7.970811,2.910959 7.973324,2.93229 7.977176,2.945038 7.987196,2.973779 8.04863,3.101467 8.07615,3.135677 8.152379,3.236222 8.273087,3.390377 8.335032,3.502355 8.356431,3.531268 8.372687,3.545048 8.397485,3.581156 8.415447,3.608443 8.50456,3.712211 8.532444,3.741254 8.547877,3.756742 8.560337,3.774787 8.570476,3.79262 8.707802,4.044078 8.741121,4.127105 8.752257,4.173742 8.757176,4.184348 8.775661,4.229191 8.805828,4.3794 8.805883,4.404374 8.801547,4.611488 8.797027,4.621792 8.792742,4.636945 8.68874,4.90766 8.662659,4.962144 8.623196,5.017568 8.507293,5.195104 8.466984,5.248702 8.439581,5.282235 8.424295,5.304547 8.399414,5.33219 8.377189,5.35237 8.36739,5.371048 8.365104,5.381634 8.304176,5.474675 8.150254,5.675205 8.041102,5.816905 8.0364,5.835466 8.023335,5.884986 7.991935,5.953245 7.971736,6.027343 7.951198,6.149642 7.944053,6.180104 7.936063,6.198885 7.907292,6.24293 7.896786,6.249319 7.874798,6.270666 7.859436,6.281844 7.790161,6.330489 7.744101,6.370511 7.67919,6.403774 7.614301,6.447226 7.596322,6.449786 7.58444,6.46098 7.490326,6.494245 7.416742,6.51118 7.360097,6.517622 7.345318,6.526948 7.343469,6.52773 7.29571,6.524123 7.277595,6.526227 7.262744,6.536656 7.252605,6.538831 7.16438,6.569817 7.012914,6.624814 6.988938,6.63034 6.949865,6.638364 6.714519,6.69793 6.552344,6.733052 6.482553,6.723122 6.476394,6.720973 6.4281,6.687829 6.414786,6.679252 6.414198,6.678713 6.395128,6.648737 6.394644,6.647479 6.393894,6.64553 6.39389,6.64533 6.342336,6.498377 6.279536,6.507308 6.232894,6.502487 6.161788,6.464584 6.171287,6.4438 6.215958,6.397245 6.257577,6.36864 6.311443,6.338264 6.33281,6.331506 6.334871,6.330854 6.340093,6.3296 6.402811,6.314543 6.412038,6.268453 6.42087,6.243564 6.415425,6.223582 6.413629,6.197996 6.471724,6.120661 6.510115,6.076076 6.563446,6.041973 6.622543,6.018744 6.679426,6.010464 6.711386,5.981628 6.821966,5.903308 6.953335,5.81202 6.957971,5.809823 7.124575,5.707923 7.134989,5.703214 7.292822,5.63921 7.334735,5.615528 7.439606,5.520527 7.441782,5.518863 7.456768,5.502964 7.547818,5.407454 7.659633,5.287848 7.659638,5.249198 7.703311,5.168667 7.740905,5.100889 7.755766,5.022771 7.762061,5.00486 7.760972,5.001478 7.762056,4.998394 7.771996,4.961884 7.7654,4.927201 7.784735,4.902867 7.849127,4.670516 7.851544,4.660528 7.85374,4.655849 7.854301,4.652489 7.924595,4.44821 7.889079,4.31555 7.879478,4.291462 7.860969,4.264482 7.857101,4.255525 7.84387,4.23284 7.838769,4.213499 7.804169,4.103498 7.79357,4.082103 7.759993,3.96573 7.767382,3.935938 7.752912,3.874062 7.745316,3.864477 7.738773,3.846724 7.705655,3.76175 7.668263,3.640395 7.549057,3.508023 7.519683,3.47342 7.392591,3.352245 7.342824,3.302167 7.335576,3.295988 7.326651,3.291969 7.248551,3.253416 7.086751,3.171961 6.961184,3.103958 6.957018,3.10167 6.956553,3.101499 6.6977,2.915047 6.674594,2.898777 6.618574,2.886867 6.558043,2.874456 6.531184,2.85762 6.466024,2.773687 6.424742,2.729358 6.416706,2.716954 6.405394,2.699495 6.382038,2.693787 6.338319,2.678047 6.33419,2.676561 6.292921,2.658642 6.254649,2.638272 6.209615,2.596135 6.191864,2.56345 6.178299,2.521224 6.199228,2.514382 6.285771,2.504125 6.351404,2.51364 6.364851,2.352227 6.373924,2.321759 6.393528,2.267498 6.394227,2.265397 6.414204,2.232905 6.418345,2.229238 6.448276,2.199469 6.510673,2.176921" style="fill: white" /><polygon type="contour" points="6.28339,3.291689 6.336219,3.295699 6.37637,3.3062 6.414512,3.312118 6.431599,3.320994 6.438402,3.324235 6.456101,3.332667 6.488384,3.348048 6.50422,3.351468 6.536353,3.361279 6.554712,3.369018 6.634483,3.419369 6.638368,3.423222 6.641511,3.425096 6.674347,3.475159 6.703757,3.497809 6.736477,3.537238 6.770286,3.588771 6.773844,3.599347 6.78609,3.613418 6.806669,3.642914 6.862398,3.71598 6.885855,3.751538 6.901798,3.787647 6.969182,3.903023 6.99405,3.946714 7.026437,4.01975 7.055157,4.084226 7.073353,4.119317 7.09264,4.162192 7.128823,4.254566 7.129569,4.256269 7.129678,4.256807 7.131099,4.262138 7.169549,4.410588 7.171272,4.419511 7.170771,4.449053 7.16686,4.47026 7.171823,4.476428 7.166343,4.505351 7.165963,4.523808 7.149618,4.580784 7.117575,4.630186 7.130207,4.646379 7.125,4.669856 7.105217,4.706149 7.081313,4.767264 7.077691,4.779465 7.071666,4.796748 7.065181,4.806816 7.053846,4.846904 7.038859,4.885219 7.033936,4.893244 7.01628,4.926157 6.979741,4.988038 6.969852,5.006079 6.889857,5.130427 6.887653,5.14281 6.855074,5.197999 6.847457,5.206468 6.839244,5.225971 6.785367,5.318943 6.780368,5.326692 6.728229,5.391447 6.725951,5.39272 6.667468,5.458663 6.658581,5.468195 6.657119,5.469844 6.653251,5.47296 6.610817,5.508216 6.578148,5.52578 6.566604,5.530562 6.559566,5.53804 6.535688,5.544539 6.495717,5.572997 6.468629,5.585455 6.460476,5.589666 6.454002,5.590443 6.37085,5.602663 6.317701,5.612705 6.301665,5.611951 6.228856,5.604699 6.194356,5.594015 6.184501,5.590194 6.173385,5.590353 6.156559,5.568369 6.12569,5.56868 6.122946,5.568064 6.121665,5.566531 6.076701,5.503223 6.064816,5.486091 6.057458,5.407597 6.054482,5.376778 6.054834,5.359923 6.081772,5.244813 6.084894,5.224201 6.091653,5.195747 6.11753,5.128613 6.151317,5.062893 6.211236,4.967859 6.215478,4.959192 6.224767,4.94647 6.276264,4.882725 6.298333,4.860663 6.385871,4.783604 6.393412,4.762797 6.428469,4.71176 6.464559,4.683259 6.469095,4.666129 6.513532,4.624343 6.565605,4.559825 6.573172,4.546175 6.589498,4.494543 6.594885,4.475592 6.606105,4.435613 6.570286,4.377044 6.512887,4.295727 6.49732,4.270143 6.462102,4.233956 6.424002,4.192262 6.359405,4.115729 6.353542,4.109552 6.296183,4.060613 6.274438,4.028314 6.235329,3.976204 6.205761,3.926545 6.137283,3.819344 6.133905,3.808053 6.123095,3.783427 6.092408,3.700972 6.064056,3.581757 6.055582,3.549943 6.054806,3.537954 6.057466,3.524532 6.056912,3.517567 6.061914,3.498147 6.0709,3.46496 6.069459,3.449696 6.078863,3.403886 6.078892,3.403801 6.079036,3.403613 6.141562,3.322987 6.159031,3.314716 6.219096,3.307459 6.223225,3.307257 6.264573,3.291024" style="fill: white" /><polygon type="contour" points="0.774492,1.741862 0.842591,1.758501 0.852835,1.766417 0.917806,1.819234 0.931499,1.837364 0.938112,1.867625 0.941827,1.890045 0.966187,1.977765 0.997698,1.979062 0.999008,1.979415 1.00247,1.983336 1.166294,2.139163 1.187844,2.154351 1.198791,2.177159 1.259673,2.243044 1.316021,2.296659 1.344797,2.316499 1.41473,2.389928 1.442345,2.411504 1.514121,2.443184 1.527367,2.455052 1.560791,2.467603 1.568811,2.467692 1.595746,2.476502 1.617463,2.487276 1.64308,2.482665 1.665508,2.481561 1.683186,2.488635 1.739432,2.499098 1.76753,2.472602 1.768082,2.47214 1.77144,2.471213 1.810603,2.463631 1.847219,2.457417 1.881688,2.468532 1.912592,2.440482 1.934235,2.435879 1.951311,2.4171 1.981418,2.404683 1.997067,2.399862 2.005421,2.396588 2.048299,2.39492 2.114277,2.355932 2.114607,2.355694 2.127872,2.355902 2.153915,2.348631 2.278964,2.305362 2.303621,2.298634 2.326039,2.294122 2.407428,2.272199 2.568656,2.225354 2.615679,2.215067 2.636201,2.209712 2.652721,2.206247 2.701853,2.186998 2.731627,2.181798 2.749899,2.182113 2.773696,2.165366 2.810897,2.156086 2.859779,2.109396 2.863128,2.106586 2.887147,2.075617 2.887769,2.074849 2.88879,2.074286 2.894238,2.068894 2.913906,2.053554 2.924421,2.039775 2.962111,1.994546 2.966516,1.991377 2.999603,1.966434 3.041427,1.933955 3.073419,1.917543 3.126653,1.897782 3.138711,1.890013 3.143976,1.891695 3.157941,1.8904 3.183126,1.889658 3.196829,1.879586 3.213606,1.874358 3.252881,1.875876 3.270181,1.851519 3.274167,1.847482 3.278511,1.846364 3.318669,1.835158 3.335185,1.832703 3.354739,1.814876 3.360311,1.810606 3.417897,1.789321 3.429641,1.785994 3.44939,1.777479 3.455474,1.771005 3.467332,1.764927 3.484042,1.757442 3.508918,1.747723 3.512162,1.748208 3.518,1.746486 3.557471,1.743476 3.580268,1.750881 3.59798,1.739509 3.652627,1.73372 3.657681,1.732732 3.661948,1.733186 3.665119,1.734882 3.714178,1.747074 3.724242,1.744322 3.763548,1.751541 3.789065,1.76905 3.792105,1.771423 3.800682,1.779781 3.811532,1.789673 3.83918,1.808225 3.847114,1.815083 3.873722,1.822967 3.880821,1.830294 3.884915,1.833794 3.990138,1.969434 3.991941,1.986805 3.989343,2.007195 3.997074,2.033763 3.996679,2.10033 4.071735,2.090278 4.144776,2.083703 4.182265,2.081219 4.307622,2.089098 4.431677,2.096972 4.47384,2.108707 4.53247,2.130706 4.544448,2.145829 4.532972,2.18997 4.520712,2.205602 4.465514,2.233594 4.424378,2.25151 4.347037,2.280256 4.343534,2.281195 4.340405,2.281788 4.175809,2.295704 3.944952,2.323059 3.938576,2.324205 3.890024,2.330036 3.878321,2.373923 3.865427,2.409181 3.859483,2.430468 3.852744,2.463482 3.850094,2.466285 3.836114,2.496105 3.82906,2.522028 3.814043,2.557818 3.803019,2.577757 3.795414,2.584432 3.790644,2.593481 3.772468,2.618854 3.752508,2.631277 3.693789,2.656732 3.684194,2.66176 3.680484,2.661922 3.668986,2.665035 3.635928,2.679982 3.629176,2.691184 3.610502,2.708323 3.601249,2.718608 3.496116,2.802354 3.425009,2.864275 3.384049,2.906018 3.296091,2.945407 3.230459,2.977602 3.178769,3.007861 2.983269,3.166173 2.96844,3.178571 2.925291,3.248568 2.699525,3.567409 2.597998,3.715084 2.59087,3.732827 2.531501,4.022991 2.521936,4.07987 2.52052,4.090578 2.519397,4.109559 2.515676,4.759711 2.515674,4.770386 2.51637,4.782807 2.524678,4.835146 2.585623,5.169435 2.598555,5.197662 2.621772,5.227229 2.672677,5.3046 2.70375,5.353562 2.841037,5.542711 2.861578,5.566329 2.968503,5.733761 2.974895,5.73931 3.130658,5.870434 3.145257,5.875292 3.162906,5.884222 3.287897,5.945083 3.311527,5.956593 3.395546,6.023937 3.441181,6.057868 3.454964,6.069502 3.462302,6.076187 3.463652,6.078125 3.468131,6.082119 3.470317,6.084376 3.495891,6.10644 3.544673,6.14522 3.606278,6.197533 3.614654,6.204655 3.618666,6.213014 3.63633,6.230973 3.702449,6.258008 3.722112,6.265291 3.723984,6.265339 3.743175,6.272895 3.777618,6.296039 3.794737,6.323417 3.808075,6.342026 3.819015,6.364776 3.829908,6.391703 3.837139,6.413954 3.838783,6.415323 3.84891,6.440897 3.871407,6.507431 3.873702,6.521245 3.877557,6.528351 3.889383,6.58148 3.944753,6.588218 3.957966,6.589827 4.022631,6.597694 4.058705,6.602035 4.212349,6.620518 4.313381,6.632185 4.428068,6.660995 4.473635,6.681363 4.523742,6.709177 4.536504,6.747621 4.542987,6.761276 4.540153,6.765726 4.536008,6.774051 4.467766,6.804383 4.428219,6.815971 4.332276,6.819763 4.263225,6.815167 4.14159,6.810459 4.111415,6.809864 4.104489,6.809729 3.999655,6.807664 4.002091,6.887338 3.980994,6.952269 3.958048,7.002583 3.953648,7.009532 3.952839,7.01052 3.950101,7.013298 3.940675,7.023306 3.931989,7.031479 3.876508,7.084756 3.873786,7.088657 3.847105,7.098555 3.833599,7.100389 3.809879,7.120643 3.799011,7.128617 3.792559,7.141121 3.723209,7.168158 3.64616,7.180158 3.638979,7.180217 3.623058,7.178387 3.581134,7.161121 3.556819,7.168219 3.545716,7.165237 3.52773,7.160478 3.492575,7.151424 3.47033,7.141676 3.45577,7.132221 3.43737,7.127658 3.42581,7.12624 3.38275,7.113645 3.361716,7.103152 3.338153,7.082007 3.28215,7.063986 3.273438,7.061934 3.250226,7.036965 3.209994,7.036059 3.20668,7.035035 3.20254,7.033909 3.168539,7.018611 3.149563,7.0197 3.142262,7.022083 3.105613,7.011121 3.080061,6.99893 2.983124,6.929916 2.964207,6.915896 2.946364,6.905592 2.915862,6.860364 2.893285,6.839851 2.819588,6.764139 2.800818,6.749422 2.726307,6.728899 2.718588,6.728396 2.707347,6.727483 2.695354,6.724437 2.675215,6.710396 2.639905,6.693992 2.614183,6.692943 2.586749,6.693271 2.57846,6.687413 2.559839,6.67829 2.538571,6.677085 2.487877,6.659578 2.432243,6.652477 2.389836,6.627688 2.323591,6.614786 2.157317,6.564389 2.113922,6.555402 2.111356,6.554149 2.100687,6.549596 2.040777,6.511317 2.028319,6.514363 2.026682,6.514023 2.019549,6.511811 1.991841,6.507214 1.951276,6.49339 1.933427,6.477891 1.923789,6.473837 1.886179,6.447828 1.836397,6.4478 1.820705,6.450176 1.810441,6.44687 1.768119,6.431913 1.757043,6.432029 1.738374,6.419001 1.636265,6.423363 1.627023,6.425396 1.618767,6.424936 1.497584,6.478405 1.476435,6.482941 1.375567,6.566321 1.348102,6.586554 1.330008,6.598388 1.290019,6.637329 1.278621,6.650384 1.219978,6.711276 1.199157,6.73321 1.193552,6.744598 1.141825,6.80242 1.12454,6.827168 1.030264,6.919378 1.018153,6.923906 1.000135,6.936218 0.966741,6.932707 0.949117,6.978462 0.94239,7.008015 0.93666,7.048926 0.931492,7.07349 0.91716,7.092849 0.896027,7.117302 0.882907,7.125389 0.866316,7.139774 0.828837,7.156383 0.804121,7.161373 0.707444,7.177399 0.622876,7.160262 0.611639,7.156913 0.599059,7.148329 0.514761,7.069226 0.510004,7.062238 0.498525,7.021483 0.499191,7.014237 0.498432,7.010914 0.502442,6.999665 0.499315,6.991033 0.505677,6.937771 0.499891,6.92318 0.498886,6.920733 0.484634,6.878805 0.468101,6.830718 0.431594,6.708625 0.43242,6.701458 0.429876,6.690554 0.426933,6.672141 0.410752,6.570632 0.381217,6.384633 0.376751,6.352599 0.378474,6.332553 0.403384,6.138344 0.407084,5.999648 0.443941,5.872645 0.444988,5.861518 0.445509,5.854005 0.46426,5.663122 0.461245,5.655462 0.472869,5.549106 0.474059,5.515697 0.473619,5.485729 0.468881,5.480046 0.479257,5.428161 0.480037,5.425842 0.529279,5.258084 0.551956,5.222535 0.536541,5.142051 0.528691,5.104081 0.516436,5.075053 0.492011,5.020938 0.44859,4.866855 0.437162,4.840306 0.422137,4.806953 0.400592,4.755817 0.399654,4.743003 0.39581,4.726043 0.390435,4.684364 0.3941,4.637094 0.40036,4.535565 0.409738,4.481006 0.4176,4.45785 0.412484,4.42448 0.407329,4.411548 0.408414,4.39376 0.405086,4.387944 0.396648,4.284248 0.391488,4.221743 0.404814,4.135384 0.412141,4.103626 0.427012,4.044232 0.458725,4.010892 0.498357,3.916283 0.531748,3.79129 0.546675,3.706611 0.543828,3.673916 0.527655,3.649851 0.472599,3.465194 0.4674,3.447294 0.466366,3.441212 0.46617,3.431581 0.461713,3.249725 0.461108,3.233644 0.461106,3.2162 0.457723,3.19649 0.450036,3.160627 0.441437,3.031619 0.439097,3.02097 0.425043,2.990965 0.415865,2.880128 0.413381,2.852428 0.412487,2.794818 0.396843,2.774926 0.382498,2.662255 0.378457,2.580284 0.376725,2.560325 0.385399,2.502613 0.405026,2.318028 0.413797,2.277601 0.427503,2.242617 0.43071,2.205627 0.428192,2.192256 0.43992,2.156009 0.448408,2.145712 0.453368,2.138094 0.474645,2.077582 0.499975,1.985404 0.498996,1.970534 0.496583,1.888767 0.501262,1.8738 0.522609,1.829874 0.525793,1.82245 0.528861,1.819194 0.533322,1.815919 0.611477,1.753776 0.642669,1.742165 0.696787,1.728803" style="fill: white" />
</svg>
