<svg width="13.600213" height="8.910821">
<polygon type="contour" points="5.634973,0.740035 5.646353,0.739285 5.669007,0.740986 5.709045,0.752975 5.778958,0.785299 5.81576,0.814319 5.857217,0.83601 5.863891,0.853051 5.885872,0.867468 5.892081,0.870575 5.914041,0.879089 5.938989,0.877203 5.969543,0.890261 5.990649,0.904838 6.027877,0.917381 6.236164,1.005586 6.260406,1.017871 6.272252,1.021848 6.333783,1.027329 6.390154,1.036116 6.431374,1.063313 6.521069,1.112364 6.555501,1.131474 6.562696,1.135788 6.575183,1.159852 6.586813,1.180894 6.596845,1.190459 6.606192,1.205557 6.636927,1.231295 6.699002,1.289072 6.73425,1.323009 6.747712,1.343172 6.763038,1.36721 6.811336,1.406397 6.828141,1.419711 6.857823,1.429603 6.897934,1.452851 6.912281,1.457239 6.953814,1.500476 6.972028,1.520951 6.972295,1.521537 7.015901,1.594844 7.046571,1.613088 7.047981,1.614699 7.079532,1.661086 7.091158,1.674851 7.132613,1.723579 7.202449,1.839653 7.203529,1.842658 7.186164,1.927104 7.321869,2.052201 7.355148,2.094055 7.401527,2.152823 7.462328,2.194672 7.530976,2.268827 7.542785,2.276415 7.657579,2.394678 7.659017,2.395801 7.661611,2.398173 7.678463,2.411488 7.800888,2.497521 7.820174,2.511299 7.824372,2.513444 7.832204,2.519726 7.876698,2.531281 7.879338,2.532508 7.882757,2.534083 7.883569,2.53443 7.900851,2.544514 7.949283,2.574838 8.114736,2.673135 8.116057,2.674281 8.116888,2.67556 8.122355,2.680371 8.128128,2.685882 8.164871,2.709822 8.220263,2.73305 8.33191,2.801588 8.3389,2.806107 8.343509,2.809238 8.349451,2.813893 8.372947,2.833707 8.394037,2.863629 8.432376,2.904927 8.437399,2.908212 8.445905,2.918057 8.526648,2.98577 8.550423,3.008315 8.573482,3.024444 8.574775,3.025497 8.587738,3.052887 8.602006,3.050334 8.611263,3.072933 8.640872,3.072359 8.645317,3.078245 8.657412,3.083635 8.687779,3.114772 8.70803,3.119975 8.723829,3.131664 8.734179,3.14171 8.771091,3.179893 8.779836,3.187943 8.788295,3.194595 8.888475,3.267264 8.943034,3.309391 8.962342,3.324667 8.976161,3.335406 8.990583,3.34797 9.022555,3.376676 9.04569,3.389362 9.060041,3.408057 9.098381,3.450228 9.131304,3.470598 9.139334,3.478423 9.142888,3.482806 9.148575,3.501923 9.155455,3.52361 9.175832,3.532808 9.179028,3.535829 9.185742,3.539782 9.23376,3.581352 9.235178,3.583774 9.241965,3.588903 9.248525,3.597299 9.254636,3.605351 9.256227,3.6098 9.264434,3.623717 9.267707,3.627432 9.272435,3.642497 9.284995,3.65791 9.285869,3.662726 9.309945,3.699487 9.323713,3.716282 9.338883,3.736339 9.381708,3.78093 9.395843,3.814649 9.417003,3.828186 9.42995,3.840816 9.437275,3.856678 9.453508,3.866922 9.492657,3.926164 9.533239,3.995837 9.538194,4.025803 9.570518,4.115454 9.576081,4.158924 9.585044,4.201092 9.59528,4.213066 9.606499,4.259043 9.636372,4.405493 9.632417,4.468672 9.637642,4.487624 9.636784,4.519424 9.631796,4.538967 9.62412,4.61721 9.612911,4.672266 9.609352,4.687936 9.601736,4.696442 9.590211,4.706841 9.586065,4.717164 9.581033,4.72669 9.578071,4.75321 9.546205,4.838027 9.535461,4.91297 9.490232,4.993564 9.468558,5.022904 9.453658,5.03631 9.43703,5.0552 9.431582,5.061967 9.424959,5.077186 9.413939,5.08244 9.397723,5.094064 9.38171,5.129649 9.3609,5.146939 9.355412,5.15424 9.327134,5.185675 9.314062,5.208278 9.296628,5.22532 9.284656,5.244349 9.266568,5.280584 9.23767,5.320952 9.216926,5.342929 9.183264,5.372653 9.15501,5.390434 9.145471,5.417368 9.142689,5.426791 9.13729,5.432925 9.08913,5.472552 9.079633,5.481779 9.070276,5.489576 9.060543,5.504093 9.045122,5.522732 8.916623,5.621973 8.805274,5.699109 8.796249,5.70797 8.726755,5.77591 8.650508,5.821672 8.634388,5.839366 8.61033,5.841729 8.548499,5.906875 8.395243,6.050531 8.334686,6.088403 8.224826,6.179416 8.14485,6.210029 8.110302,6.240698 8.085407,6.256783 8.057797,6.267291 8.048985,6.274076 8.024656,6.299432 7.950657,6.341823 7.873934,6.379213 7.810719,6.408559 7.787062,6.430546 7.691029,6.491331 7.676422,6.503993 7.661128,6.513943 7.657763,6.517123 7.654409,6.519454 7.520414,6.662044 7.508287,6.665459 7.468932,6.712257 7.409402,6.75061 7.38653,6.782997 7.364027,6.80837 7.334455,6.840502 7.304492,6.869188 7.297447,6.873673 7.284727,6.887254 7.227941,6.944745 7.210098,6.955708 7.197327,6.976553 7.191271,7.004837 7.188799,7.03104 7.187927,7.051907 7.170286,7.129995 7.109298,7.214177 7.052949,7.289549 7.051504,7.29139 7.049464,7.294177 7.047664,7.29515 7.008072,7.32483 6.969784,7.392098 6.960735,7.403745 6.910471,7.455087 6.887693,7.461523 6.8207,7.495791 6.794182,7.524755 6.708372,7.607137 6.664358,7.651231 6.64236,7.671161 6.615,7.700024 6.606199,7.705953 6.596491,7.72144 6.588577,7.727623 6.579568,7.749228 6.5755,7.758243 6.568058,7.769269 6.41625,7.860746 6.389485,7.875123 6.384366,7.875334 6.301927,7.893131 6.270634,7.895796 6.256965,7.893943 6.201764,7.918349 6.007827,7.997799 5.940013,8.02645 5.921533,8.030383 5.899709,8.035903 5.890544,8.041273 5.876069,8.051309 5.849305,8.071252 5.845563,8.077914 5.795736,8.122336 5.784365,8.131215 5.708979,8.158712 5.679306,8.167565 5.658599,8.171266 5.649591,8.170769 5.635384,8.171242 5.570626,8.168329 5.556076,8.161457 5.497334,8.154173 5.443908,8.130196 5.392166,8.114284 5.385004,8.111137 5.321121,8.091312 5.292915,8.087644 5.267054,8.084641 5.195015,8.095836 5.178438,8.096659 5.165319,8.097655 5.157761,8.10049 5.146029,8.103727 5.066309,8.112246 4.98469,8.105218 4.980553,8.10474 4.970284,8.101674 4.927902,8.100013 4.751737,8.118446 4.696489,8.127506 4.666508,8.13489 4.62017,8.134743 4.587629,8.128738 4.550711,8.119163 4.530608,8.111362 4.507784,8.096955 4.473548,8.090398 4.44789,8.086266 4.42018,8.084719 4.402849,8.08658 4.366733,8.100154 4.356344,8.099844 4.307434,8.096539 4.297876,8.09356 4.283544,8.088222 4.244993,8.08983 4.223745,8.084858 4.212294,8.079572 4.202138,8.071945 4.151405,8.051815 4.110324,8.048559 4.087856,8.039646 4.062582,8.023169 4.028005,8.007896 4.015521,8.002328 3.934596,7.977789 3.927421,7.975684 3.885463,7.975269 3.801022,7.944647 3.787261,7.938169 3.772271,7.928325 3.754075,7.915812 3.7092,7.891745 3.702206,7.88713 3.650546,7.851777 3.637513,7.842615 3.620148,7.835383 3.491833,7.773472 3.413005,7.716289 3.387914,7.696571 3.332753,7.644548 3.323335,7.625281 3.307541,7.617225 3.297431,7.612556 3.272903,7.602823 3.247583,7.594722 3.226775,7.582917 3.099488,7.492465 3.090552,7.479682 3.084459,7.463566 3.082949,7.462792 3.077723,7.43784 3.042114,7.417835 2.985158,7.395817 2.968007,7.409772 2.961044,7.411376 2.948958,7.404492 2.845961,7.357658 2.793601,7.365379 2.763564,7.35098 2.701655,7.29718 2.663517,7.262753 2.650996,7.272056 2.593201,7.237628 2.566705,7.22331 2.472228,7.208549 2.445108,7.209038 2.383053,7.208237 2.319221,7.249784 2.242018,7.303407 2.214115,7.324104 2.206387,7.356534 2.146805,7.43681 2.107292,7.460012 2.084963,7.469218 2.035745,7.483806 2.033813,7.484267 1.985434,7.480137 1.971948,7.477672 1.926738,7.467427 1.861079,7.444641 1.832444,7.431352 1.753049,7.380022 1.723696,7.357316 1.681151,7.278455 1.641871,7.260433 1.508024,7.193597 1.477166,7.177029 1.459282,7.174274 1.415298,7.163484 1.391446,7.169894 1.371656,7.170996 1.333336,7.174028 1.289955,7.204042 1.260394,7.21059 1.24857,7.212255 1.225139,7.215405 1.206651,7.216255 1.12489,7.210801 1.105344,7.199615 1.098076,7.19792 1.02323,7.177465 1.01957,7.176615 0.968869,7.119023 0.961453,7.109558 0.952105,7.083686 0.936418,7.059258 0.902325,7.005806 0.89128,6.982018 0.880937,6.95619 0.832173,6.835199 0.829862,6.826845 0.808483,6.735928 0.797298,6.699798 0.775852,6.64289 0.736084,6.559052 0.689059,6.354717 0.683138,6.263396 0.663739,6.235804 0.643505,6.195421 0.634622,6.133112 0.609704,5.941729 0.626573,5.923049 0.61628,5.884077 0.586219,5.67561 0.578497,5.590456 0.565841,5.411607 0.572234,5.343673 0.545963,5.186146 0.537319,5.133604 0.514948,5.105382 0.510424,5.091222 0.506224,5.086332 0.500412,5.058536 0.495657,5.052089 0.490533,5.039912 0.486975,5.001977 0.467526,4.827323 0.45889,4.707936 0.475868,4.648894 0.495515,4.631571 0.515246,4.554887 0.514272,4.429105 0.515332,4.390163 0.51545,4.35481 0.511675,4.308558 0.481355,4.285288 0.477678,4.256099 0.470792,4.096043 0.472133,4.033469 0.478024,3.95485 0.48731,3.882628 0.507031,3.825548 0.514716,3.814494 0.517708,3.802942 0.53748,3.778795 0.540687,3.761183 0.541639,3.755736 0.545528,3.728351 0.575588,3.560335 0.565752,3.49916 0.572903,3.374684 0.581144,3.282417 0.616041,3.030212 0.63122,2.993346 0.617014,2.980642 0.620068,2.921436 0.651335,2.730043 0.665056,2.686501 0.677197,2.63306 0.674542,2.622972 0.677631,2.614198 0.682224,2.594365 0.67862,2.585636 0.688263,2.544578 0.728882,2.367818 0.744224,2.319743 0.792725,2.198466 0.804076,2.182813 0.811681,2.147295 0.83675,2.078855 0.880645,1.951494 0.891742,1.929223 0.934967,1.85571 0.949413,1.833155 0.955448,1.808191 1.006424,1.746008 1.013862,1.738466 1.020758,1.734285 1.067431,1.720311 1.078551,1.718367 1.10626,1.709197 1.110813,1.708545 1.14623,1.694226 1.164671,1.695423 1.211725,1.695747 1.228245,1.696678 1.243239,1.698472 1.255741,1.700212 1.269375,1.702281 1.297905,1.711452 1.321218,1.727607 1.336505,1.737458 1.372375,1.739859 1.389358,1.741746 1.4157,1.747718 1.457728,1.736223 1.541941,1.715514 1.556432,1.691585 1.617628,1.666615 1.668795,1.635667 1.688518,1.610262 1.75703,1.521438 1.786786,1.505614 1.845313,1.482689 1.958278,1.441138 1.98507,1.430857 1.986705,1.430303 1.988874,1.430537 1.998875,1.433885 2.091849,1.446319 2.14588,1.473536 2.189848,1.519051 2.211011,1.583756 2.229769,1.602745 2.399786,1.710725 2.417701,1.698621 2.54074,1.69313 2.632669,1.646982 2.646353,1.639338 2.659799,1.649331 2.775506,1.554301 2.788361,1.548193 2.798959,1.549988 2.844408,1.554908 2.859953,1.549266 2.876091,1.541682 2.889072,1.536467 2.901474,1.529834 2.956441,1.505441 2.959495,1.504365 2.998262,1.508988 3.027354,1.495873 3.042835,1.492995 3.058499,1.485515 3.077865,1.471949 3.082963,1.448599 3.084651,1.447933 3.095151,1.426984 3.106805,1.416405 3.135657,1.39156 3.147632,1.382757 3.16177,1.374365 3.168858,1.369914 3.269867,1.307389 3.300445,1.287189 3.326487,1.272859 3.35518,1.240744 3.373712,1.223565 3.492723,1.142464 3.50327,1.134735 3.518158,1.127164 3.534759,1.11706 3.558139,1.107829 3.615119,1.080361 3.638883,1.068886 3.656324,1.057725 3.674362,1.041439 3.714339,1.016718 3.760192,0.991664 3.788567,0.972827 3.825974,0.955587 3.826931,0.955167 3.829911,0.953748 3.836323,0.951843 3.841983,0.950479 3.885998,0.934257 3.905286,0.936631 3.915561,0.934798 3.927098,0.935397 3.938,0.933812 4.009446,0.913215 4.067331,0.889558 4.087446,0.872306 4.110546,0.863512 4.171467,0.856998 4.242779,0.823271 4.263064,0.817494 4.277138,0.821212 4.288342,0.820071 4.302316,0.821443 4.452341,0.824405 4.502926,0.813602 4.521728,0.812253 4.544791,0.793628 4.605579,0.779082 4.615921,0.777027 4.617948,0.776664 4.618686,0.776583 4.692623,0.780105 4.715924,0.783053 4.76658,0.786384 4.857087,0.799981 4.878333,0.794576 4.93653,0.809805 4.965495,0.81927 5.118519,0.804837 5.135984,0.801581 5.140192,0.80126 5.144469,0.801975 5.149913,0.803056 5.181301,0.816143 5.188368,0.814736 5.257402,0.825318 5.272215,0.827354 5.288835,0.821582 5.319549,0.817766 5.333495,0.808599 5.355484,0.80183 5.420634,0.786048 5.471104,0.771279 5.52783,0.755177 5.584339,0.736" style="fill: white" /><polygon type="hole" points="4.749482,2.826661 4.739624,2.827218 4.669761,2.853831 4.598333,2.88012 4.462761,2.96833 4.29711,3.13453 4.195566,3.297803 4.180516,3.350596 4.147637,3.495818 4.130619,3.611598 4.137317,3.727694 4.160445,3.817725 4.198979,3.902141 4.280866,4.117766 4.285022,4.123019 4.286078,4.125985 4.301892,4.208046 4.30839,4.308493 4.319607,4.47706 4.316061,4.6215 4.298964,4.750768 4.296345,4.760754 4.29327,4.764924 4.206302,4.985785 4.157682,5.082523 4.151472,5.136808 4.130179,5.224366 4.139102,5.428253 4.142919,5.43867 4.225891,5.673687 4.297819,5.777902 4.475174,5.964197 4.537769,5.994215 4.66829,6.055 4.736849,6.081474 4.821115,6.094381 4.996128,6.0925 5.079715,6.087233 5.235051,6.023171 5.243284,6.021394 5.26511,6.015172 5.636459,5.874467 5.648968,5.868781 5.658802,5.859063 5.7679,5.78359 5.799439,5.755227 5.90589,5.727317 5.989283,5.714203 6.107133,5.668305 6.207446,5.628704 6.354199,5.466096 6.39432,5.422069 6.432818,5.3737 6.481893,5.295442 6.600811,5.182312 6.646609,5.044669 6.691205,4.894497 6.714197,4.811762 6.704334,4.65141 6.70605,4.498862 6.715671,4.341008 6.718626,4.185487 6.698844,4.012676 6.637455,3.806886 6.62313,3.780075 6.581189,3.726337 6.510152,3.63919 6.452247,3.558526 6.386183,3.482568 6.237587,3.316213 6.187849,3.274976 6.087401,3.215031 6.067117,3.207275 6.037287,3.202125 5.955971,3.181181 5.927505,3.183716 5.922581,3.183409 5.906429,3.170463 5.892088,3.175833 5.885627,3.173737 5.866245,3.166278 5.848427,3.158798 5.838486,3.1558 5.822153,3.146956 5.813919,3.14574 5.811156,3.144072 5.794836,3.140263 5.790617,3.139807 5.788549,3.13846 5.767837,3.128268 5.762307,3.12222 5.724508,3.084442 5.591895,3.023616 5.346848,2.934697 5.190695,2.872397 5.169489,2.858651 5.160628,2.856664 4.974628,2.804565" style="fill: black" />
</svg>
