<svg width="13.600213" height="8.910821">
<polygon type="contour" points="7.117561,3.557396 7.127973,3.560866 7.153857,3.575695 7.16972,3.575263 7.181788,3.588697 7.208718,3.592787 7.2678,3.623765 7.299223,3.64967 7.349399,3.669042 7.351593,3.669775 7.353357,3.671661 7.354956,3.673293 7.427554,3.760946 7.438857,3.769902 7.458034,3.792238 7.461569,3.803519 7.46666,3.817735 7.471469,3.831153 7.491394,3.856281 7.492521,3.856618 7.494681,3.860426 7.506732,3.875624 7.540475,3.93728 7.564973,3.991854 7.573477,4.021079 7.575232,4.03696 7.569116,4.052825 7.608454,4.117971 7.620595,4.14997 7.6318,4.198321 7.640402,4.275675 7.652475,4.311608 7.6556,4.394563 7.653932,4.422552 7.655811,4.455375 7.652728,4.489321 7.650926,4.504007 7.649339,4.505443 7.644357,4.561043 7.643077,4.636186 7.637372,4.653485 7.622834,4.729326 7.611829,4.767991 7.596999,4.841911 7.596134,4.84594 7.592759,4.850413 7.589777,4.861296 7.536619,4.985866 7.518609,5.023059 7.491417,5.06688 7.479982,5.087944 7.456668,5.128403 7.426715,5.163347 7.384661,5.201952 7.378285,5.21527 7.327353,5.254644 7.312527,5.266488 7.304088,5.274936 7.25611,5.306509 7.238153,5.316913 7.236735,5.317816 7.235614,5.318179 7.233806,5.318924 7.215471,5.325297 7.123463,5.355253 7.11647,5.354567 7.109977,5.354699 7.088297,5.347185 7.07593,5.35225 7.057142,5.355291 7.003668,5.337523 6.997294,5.336803 6.979503,5.327608 6.966095,5.322635 6.932075,5.295072 6.914952,5.282267 6.914209,5.281863 6.90225,5.257164 6.896358,5.245721 6.896231,5.245348 6.895907,5.215559 6.890329,5.182204 6.889131,5.180158 6.892034,5.150898 6.89009,5.149309 6.891194,5.135022 6.8895,5.060857 6.903326,5.013792 6.93179,4.968299 6.938983,4.941561 6.954095,4.897801 6.984068,4.842361 7.009493,4.808012 7.041109,4.779699 7.047821,4.742091 7.089194,4.692506 7.092148,4.683205 7.100464,4.664246 7.105518,4.627383 7.113342,4.612409 7.114038,4.581586 7.133967,4.541923 7.142667,4.519746 7.144225,4.490712 7.140792,4.449622 7.151899,4.435976 7.14256,4.399871 7.137593,4.391275 7.138866,4.385262 7.134059,4.368476 7.12255,4.326087 7.092266,4.285146 7.082172,4.22076 7.074882,4.20254 7.028997,4.149972 7.018809,4.113605 6.957442,4.016175 6.955155,4.012536 6.955108,4.012397 6.928397,3.966976 6.91792,3.947704 6.912221,3.887009 6.900633,3.837677 6.883401,3.751608 6.889525,3.730678 6.888556,3.707522 6.891041,3.696156 6.887436,3.686642 6.900637,3.650252 6.900052,3.649196 6.901992,3.644553 6.913429,3.632327 6.962183,3.587699 7.012752,3.559565 7.026351,3.556655 7.032266,3.556021 7.040726,3.555861 7.06995,3.555257 7.107146,3.554028" style="fill: white" /><polygon type="contour" points="7.05922,2.433696 7.10814,2.440549 7.168154,2.448193 7.224144,2.462575 7.301643,2.466723 7.303475,2.467045 7.305335,2.468446 7.381035,2.508305 7.38622,2.510704 7.459536,2.567751 7.48277,2.576737 7.491152,2.589153 7.498789,2.598661 7.514568,2.609427 7.572434,2.6299 7.583866,2.640735 7.609003,2.646846 7.693762,2.687763 7.715717,2.698522 7.747666,2.717379 7.761025,2.727173 7.769609,2.729645 7.795134,2.743058 7.840843,2.782316 7.913816,2.856339 7.92132,2.86502 7.92963,2.873081 7.942257,2.902658 7.977541,2.970655 7.996883,3.042338 8.018325,3.126989 8.046767,3.338879 8.05264,3.362245 8.055925,3.37236 8.0583,3.37957 8.110526,3.521208 8.160515,3.613121 8.203554,3.684522 8.242214,3.757536 8.24777,3.7791 8.318781,3.896382 8.323568,3.903495 8.327276,3.90867 8.345724,3.934019 8.417101,4.029604 8.434787,4.063486 8.443256,4.100325 8.474895,4.129777 8.47888,4.146795 8.511967,4.218396 8.540302,4.283854 8.548278,4.349249 8.55019,4.356273 8.546632,4.366294 8.544987,4.37879 8.538452,4.390347 8.539762,4.415072 8.540745,4.418509 8.540707,4.426996 8.549102,4.47641 8.536774,4.5227 8.549793,4.551595 8.544849,4.5938 8.544847,4.593815 8.544847,4.593817 8.541865,4.602712 8.519799,4.645364 8.468722,4.788886 8.452168,4.805177 8.434977,4.849697 8.429189,4.859147 8.42743,4.87259 8.420028,4.882147 8.355378,4.980891 8.341381,4.997507 8.322777,5.010115 8.308984,5.033634 8.303087,5.046602 8.295838,5.058089 8.247866,5.145688 8.219921,5.195251 8.099859,5.420768 8.054891,5.538639 8.022319,5.691948 8.008804,5.760738 8.008078,5.764094 8.007379,5.767336 7.9742,5.954411 7.925682,6.033086 7.913612,6.061729 7.892925,6.084058 7.882269,6.096399 7.781406,6.172043 7.772135,6.175761 7.759904,6.187792 7.752828,6.192489 7.663369,6.239639 7.612937,6.265866 7.556617,6.293036 7.548406,6.29195 7.541946,6.295768 7.525031,6.296637 7.507426,6.308353 7.476374,6.333551 7.457849,6.347691 7.430784,6.367034 7.427653,6.368017 7.340169,6.425206 7.292077,6.450198 7.206622,6.458559 7.152762,6.464367 7.130715,6.466779 7.054248,6.482564 7.012977,6.489185 6.943889,6.482109 6.888513,6.486137 6.848948,6.471401 6.836706,6.462009 6.792736,6.436307 6.78713,6.430314 6.764098,6.417352 6.728436,6.360388 6.717052,6.347496 6.716696,6.343596 6.716236,6.338536 6.714924,6.324118 6.711272,6.284012 6.706515,6.231739 6.706211,6.22862 6.705929,6.226139 6.707319,6.223048 6.709418,6.215238 6.710714,6.210417 6.736959,6.151519 6.664869,6.142311 6.683583,6.128963 6.714495,6.106918 6.709979,6.090698 6.77846,6.058381 6.781446,6.051677 6.858833,5.986736 6.926628,5.928796 6.939684,5.917717 6.969426,5.898112 7.064787,5.835342 7.196095,5.735927 7.27528,5.657603 7.414174,5.534154 7.4212,5.527151 7.489596,5.448267 7.546826,5.369889 7.574057,5.322962 7.591696,5.289328 7.601348,5.252404 7.61006,5.230342 7.609705,5.224064 7.652179,5.113633 7.731165,4.895759 7.734191,4.855096 7.734192,4.855094 7.822569,4.53718 7.834864,4.48342 7.830208,4.387358 7.823423,4.367972 7.818949,4.349116 7.810984,4.330738 7.804584,4.310989 7.796152,4.29016 7.730463,4.039077 7.728068,4.032809 7.704506,3.950685 7.68674,3.919514 7.660115,3.833336 7.60067,3.649711 7.58705,3.621479 7.574863,3.589509 7.511223,3.497199 7.492888,3.47195 7.458901,3.427812 7.424773,3.390764 7.392515,3.366883 7.339067,3.323269 7.2824,3.269091 7.177008,3.16796 7.143128,3.13924 7.095878,3.103895 7.037932,3.064057 6.976084,3.021536 6.970637,3.017791 6.949153,3.002226 6.936611,2.992632 6.879062,2.977568 6.796383,2.955926 6.722398,2.931077 6.709009,2.92658 6.691724,2.914057 6.685249,2.86189 6.688721,2.860476 6.75649,2.852086 6.726784,2.782097 6.72282,2.769137 6.720597,2.76041 6.719598,2.756489 6.714543,2.736648 6.706419,2.704751 6.704293,2.696408 6.715308,2.57867 6.716193,2.563226 6.724151,2.556948 6.754413,2.507866 6.764845,2.493525 6.792834,2.474127 6.857056,2.435823 6.878599,2.432154 6.903499,2.424113 6.946726,2.41807" style="fill: white" /><polygon type="contour" points="3.445192,1.957342 3.464215,1.961114 3.521725,1.973376 3.561856,1.961594 3.565392,1.96097 3.577554,1.963626 3.615374,1.964683 3.635871,1.972842 3.65521,1.97221 3.682345,1.967891 3.704278,1.964518 3.715398,1.970284 3.734836,1.973015 3.7598,1.978693 3.808534,1.982707 3.820629,1.985408 3.843533,1.995006 3.865116,1.9905 3.889435,1.991037 3.903394,2.001406 3.919553,2.012982 3.931919,2.030002 3.947256,2.056749 3.948398,2.062188 3.948656,2.104056 3.985517,2.179543 3.987549,2.225037 4.43302,2.228189 4.571692,2.233044 4.606312,2.244218 4.629524,2.275617 4.615574,2.315184 4.590323,2.348226 4.477547,2.413318 4.470947,2.416321 4.46506,2.417525 4.461155,2.418276 4.41957,2.421923 4.321683,2.430507 3.882698,2.469006 3.86447,2.574648 3.835874,2.656316 3.820865,2.672313 3.719152,2.738609 3.709199,2.7496 3.693268,2.755162 3.670782,2.769396 3.577289,2.815768 3.529083,2.852789 3.502531,2.884425 3.482801,2.904935 3.47384,2.916027 3.424373,2.968 3.33389,3.010351 3.330435,3.016015 3.312183,3.023326 3.30901,3.025388 3.300549,3.030298 3.201466,3.120263 3.178401,3.133072 3.129989,3.171044 3.089976,3.192509 3.043492,3.230846 3.02532,3.250145 2.972162,3.297889 2.920153,3.371859 2.867373,3.502847 2.831786,3.568308 2.79248,3.62825 2.747781,3.68358 2.739198,3.703607 2.714045,3.861515 2.713787,3.867525 2.711742,3.874356 2.671738,3.999874 2.64923,4.096851 2.64042,4.159685 2.661419,4.239564 2.663257,4.258024 2.654412,4.742382 2.65286,4.753803 2.670536,4.907003 2.672049,4.91574 2.719667,5.150395 2.724617,5.189239 2.764961,5.252073 2.826537,5.329434 2.895867,5.454993 2.949379,5.577002 3.005282,5.644575 3.024186,5.660266 3.055751,5.684919 3.094182,5.725632 3.126013,5.750475 3.1496,5.763934 3.182937,5.773428 3.217251,5.810096 3.300372,5.881756 3.309114,5.886488 3.311597,5.887957 3.320924,5.89221 3.326925,5.893968 3.329257,5.895028 3.332107,5.899261 3.422759,5.938283 3.524188,6.050627 3.556594,6.083365 3.777002,6.200118 3.788515,6.202735 3.802547,6.217274 3.827599,6.2489 3.865311,6.366127 3.881857,6.434289 4.142319,6.454305 4.202465,6.458929 4.336414,6.472109 4.415837,6.485015 4.470288,6.500436 4.527607,6.520711 4.548896,6.532306 4.590586,6.564164 4.615482,6.596322 4.628778,6.63684 4.605248,6.668461 4.52537,6.690277 4.503351,6.696839 4.307629,6.688915 4.153604,6.678743 4.141601,6.677951 4.130365,6.67753 3.97854,6.671866 3.985508,6.732099 3.948187,6.809108 3.949796,6.845117 3.947479,6.852679 3.931752,6.882119 3.920928,6.896751 3.904196,6.910984 3.896943,6.91725 3.871093,6.919429 3.836155,6.920679 3.799922,6.932928 3.788406,6.934602 3.757075,6.932218 3.729303,6.939175 3.715319,6.944773 3.699885,6.94656 3.664966,6.941566 3.637926,6.943994 3.571055,6.951175 3.565704,6.950304 3.518108,6.937391 3.497263,6.949673 3.483123,6.953049 3.466314,6.953267 3.430362,6.951774 3.4051,6.956763 3.366297,6.951603 3.292641,6.910484 3.278452,6.905453 3.140456,6.809601 3.130155,6.802567 3.129212,6.801213 3.122844,6.796731 3.098746,6.769334 3.069409,6.74789 3.042156,6.730168 3.027185,6.717718 2.993951,6.695849 2.967534,6.679 2.871776,6.631867 2.758463,6.57769 2.745649,6.583269 2.675951,6.568822 2.601771,6.56522 2.525507,6.540366 2.500121,6.538392 2.448533,6.540871 2.44137,6.537585 2.427231,6.533796 2.264445,6.484965 2.263198,6.484154 2.137385,6.412723 2.06559,6.377075 1.992313,6.359639 1.981487,6.361588 1.961797,6.355494 1.9461,6.350823 1.927237,6.349249 1.796367,6.313471 1.765391,6.304899 1.748818,6.298253 1.740948,6.297037 1.730953,6.292908 1.711043,6.293163 1.664137,6.286541 1.644629,6.28795 1.62317,6.286809 1.564141,6.291568 1.551637,6.296177 1.548504,6.295462 1.51718,6.303378 1.476553,6.316577 1.451445,6.319864 1.434584,6.329725 1.411502,6.340454 1.405181,6.347202 1.361616,6.367732 1.356618,6.368973 1.341587,6.378079 1.284597,6.415628 1.278912,6.415865 1.233903,6.453265 1.201443,6.477658 1.16741,6.513545 1.113446,6.61004 1.11039,6.614813 1.081709,6.631679 1.056467,6.699595 1.042405,6.716582 1.012796,6.736699 0.988932,6.74374 0.982529,6.742933 0.921681,6.741169 0.897734,6.738872 0.890511,6.73725 0.885676,6.735315 0.847625,6.723844 0.824264,6.720157 0.81882,6.71639 0.811965,6.715157 0.804649,6.709105 0.790515,6.677824 0.771518,6.63045 0.753184,6.586236 0.744415,6.57441 0.737914,6.559674 0.732918,6.539981 0.71927,6.518624 0.70773,6.501098 0.699052,6.479414 0.673219,6.428395 0.649782,6.365932 0.651744,6.358565 0.669117,6.333519 0.661916,6.298584 0.646312,6.271892 0.614099,6.228501 0.577,6.184874 0.525847,6.068742 0.517005,6.039036 0.502462,5.970163 0.503534,5.93976 0.493786,5.90447 0.489243,5.88667 0.490373,5.864758 0.498972,5.844583 0.502799,5.813972 0.500298,5.80475 0.49653,5.657185 0.496419,5.655232 0.496256,5.652304 0.473947,5.518185 0.46428,5.502491 0.467011,5.39236 0.462466,5.329591 0.465119,5.305658 0.47621,5.273213 0.477473,5.231309 0.481782,5.219706 0.506725,5.18796 0.535966,5.06694 0.530764,5.045397 0.526042,5.03814 0.522038,5.02633 0.476691,4.930017 0.461586,4.912086 0.412258,4.864672 0.396384,4.821118 0.388836,4.789101 0.388054,4.766095 0.380513,4.727448 0.361309,4.649098 0.351381,4.61615 0.351832,4.607889 0.346876,4.557803 0.340237,4.540492 0.334749,4.506534 0.334583,4.465948 0.351753,4.302272 0.352355,4.297045 0.378846,4.191012 0.386787,4.166186 0.388011,4.137884 0.393383,4.107421 0.397181,4.086163 0.397798,4.081077 0.400604,4.071809 0.412016,4.046839 0.440446,4.015654 0.460532,3.99069 0.462958,3.987828 0.511997,3.912833 0.521454,3.885956 0.524893,3.876623 0.530813,3.864663 0.530646,3.852681 0.535388,3.815218 0.503828,3.729963 0.474109,3.666842 0.469327,3.650723 0.467318,3.644628 0.466578,3.605433 0.465247,3.572536 0.463983,3.558127 0.453744,3.430779 0.479025,3.390125 0.479598,3.387063 0.480926,3.385101 0.49603,3.255847 0.495853,3.25433 0.495974,3.252378 0.496015,3.249492 0.496208,3.226027 0.490552,3.017585 0.499993,2.963659 0.501154,2.947146 0.501973,2.936671 0.505117,2.925181 0.565523,2.755777 0.56971,2.744088 0.644929,2.640754 0.650866,2.634071 0.66221,2.606674 0.667402,2.575582 0.651699,2.553756 0.650052,2.549793 0.656849,2.530022 0.657847,2.52267 0.658944,2.519826 0.670163,2.495123 0.701445,2.428542 0.713685,2.402381 0.718679,2.39298 0.718719,2.391478 0.730393,2.377131 0.733895,2.357072 0.738581,2.350528 0.74199,2.340138 0.76277,2.311888 0.770285,2.293056 0.7768,2.273302 0.785365,2.240837 0.796088,2.216991 0.80346,2.203195 0.807859,2.199843 0.899006,2.165207 0.915322,2.165041 0.973397,2.171309 1.012818,2.177225 1.022925,2.179769 1.044058,2.196595 1.053477,2.209409 1.066791,2.23752 1.066914,2.238804 1.081992,2.280735 1.108191,2.295284 1.113036,2.299727 1.113921,2.301617 1.125681,2.328073 1.152543,2.368415 1.215014,2.455345 1.24035,2.470978 1.248387,2.479582 1.264966,2.488205 1.280973,2.495514 1.340705,2.533673 1.351089,2.539478 1.355958,2.540893 1.386906,2.557819 1.389118,2.56086 1.411405,2.571204 1.426628,2.57708 1.457021,2.583431 1.49292,2.596451 1.531415,2.610686 1.547227,2.617357 1.571463,2.619091 1.617325,2.62565 1.6365,2.624855 1.646255,2.62621 1.698418,2.620294 1.725879,2.620045 1.817514,2.592608 1.968924,2.55109 1.989214,2.548601 1.993833,2.546159 2.024217,2.539978 2.044344,2.533892 2.084185,2.523646 2.142826,2.500044 2.149706,2.496469 2.151421,2.495899 2.156847,2.492808 2.332139,2.405403 2.354983,2.399227 2.461607,2.381112 2.525553,2.374591 2.556242,2.362783 2.59229,2.362182 2.758219,2.333679 2.768911,2.330136 2.783881,2.329702 2.891327,2.287399 2.894418,2.284906 2.967705,2.24279 2.985192,2.221174 3.02823,2.193226 3.076108,2.145818 3.111906,2.122454 3.142698,2.090513 3.203007,2.054194 3.26057,2.018862 3.262258,2.018046 3.311085,1.987964 3.328114,1.979674 3.331559,1.97792 3.411935,1.955245 3.423732,1.955393 3.428511,1.953279" style="fill: white" />
</svg>
