<svg width="13.600213" height="8.910821">
<polygon type="contour" points="6.203647,1.963764 6.332697,1.966721 6.578438,2.022551 6.649085,2.041544 6.782149,2.087231 6.999409,2.182952 7.045382,2.186508 7.153156,2.193529 7.157128,2.194171 7.168235,2.19593 7.346386,2.234888 7.435687,2.255828 7.465735,2.268752 7.489037,2.276981 7.588199,2.321923 7.664113,2.346569 7.752946,2.390829 7.753813,2.390992 7.759793,2.395961 7.790898,2.436098 7.866537,2.509098 7.892123,2.527889 7.91014,2.552693 7.954924,2.662264 7.963152,2.737361 7.966937,2.751148 7.966901,2.756269 7.979487,2.802796 7.982755,2.810441 7.992518,2.834352 8.010812,2.883294 8.033057,2.913973 8.109097,2.980732 8.111267,2.981687 8.136742,3.001993 8.147068,3.016739 8.298561,3.183009 8.330194,3.194791 8.443262,3.3084 8.487581,3.351733 8.54215,3.447501 8.551351,3.475745 8.559417,3.511679 8.581726,3.531858 8.602034,3.547949 8.661899,3.661653 8.669122,3.674772 8.750864,3.766727 8.758442,3.779656 8.76881,3.807418 8.875087,3.964673 8.881651,3.990216 8.972197,4.171755 8.989104,4.299762 8.992221,4.315246 8.992114,4.321344 8.991466,4.467513 8.992071,4.607049 8.937253,4.766279 8.923343,4.836689 8.854391,4.976306 8.786845,5.101729 8.757478,5.133102 8.716628,5.170243 8.669709,5.229557 8.641734,5.293154 8.587818,5.371042 8.546311,5.401645 8.54962,5.457451 8.545804,5.467185 8.379389,5.662412 8.360192,5.689632 8.332064,5.717112 8.290853,5.738257 8.147829,5.894457 8.136543,5.909614 8.111206,5.930082 8.109303,5.93103 8.101377,5.938188 8.026242,6.011157 8.023349,6.01264 8.005074,6.033657 8.001158,6.04955 7.989436,6.08358 7.973136,6.140015 7.966634,6.163572 7.906879,6.366179 7.86252,6.404667 7.786075,6.474117 7.782057,6.485424 7.764066,6.507686 7.721507,6.540814 7.703674,6.547423 7.699969,6.551679 7.677562,6.560481 7.557975,6.616173 7.540224,6.622064 7.4924,6.639369 7.406895,6.665613 7.362998,6.674324 7.357836,6.675917 7.347796,6.674366 7.319086,6.672861 7.309874,6.675076 7.240515,6.693241 7.149581,6.717439 7.002964,6.742616 6.940589,6.757752 6.900958,6.769736 6.747837,6.831729 6.731017,6.833685 6.667455,6.864405 6.562232,6.885724 6.550163,6.889203 6.541184,6.890824 6.360697,6.937153 6.322153,6.930438 6.228715,6.953412 6.110887,6.91607 6.08146,6.910352 6.073893,6.906098 6.073818,6.898343 6.057973,6.754281 6.010422,6.752877 5.941437,6.746405 5.849422,6.756822 5.828692,6.733351 5.815589,6.680784 5.839571,6.647173 5.902655,6.608327 5.942476,6.595088 6.006086,6.580296 6.133971,6.553115 6.156304,6.492505 6.165571,6.467354 6.190709,6.41944 6.23556,6.375227 6.286935,6.322938 6.296816,6.318471 6.352154,6.288532 6.375611,6.279178 6.481733,6.101777 6.504771,6.071232 6.659772,5.9576 6.690303,5.935494 6.741135,5.913254 6.801032,5.891414 6.803273,5.889974 6.867194,5.861617 6.898788,5.845068 6.900603,5.843426 7.022146,5.793521 7.038856,5.791236 7.047082,5.787806 7.116631,5.761869 7.163041,5.738684 7.299,5.648228 7.363582,5.603726 7.383087,5.586312 7.397889,5.557009 7.482663,5.492752 7.51634,5.457639 7.555062,5.407285 7.626911,5.329046 7.646623,5.289039 7.655285,5.2382 7.68927,5.145978 7.746262,5.036211 7.768064,4.977897 7.784968,4.944719 7.813241,4.787055 7.818196,4.754209 7.818061,4.743473 7.825232,4.730182 7.858958,4.664701 7.85904,4.650105 7.888039,4.447271 7.869863,4.277053 7.864966,4.259541 7.8134,4.112128 7.811223,4.07723 7.790152,3.971614 7.762207,3.905915 7.674271,3.744232 7.670726,3.726749 7.661914,3.696497 7.634746,3.600695 7.526206,3.468588 7.484161,3.417169 7.360061,3.309877 7.280979,3.242264 7.193604,3.187473 7.071601,3.137629 6.940131,3.079567 6.929809,3.076724 6.900108,3.069177 6.88567,3.056806 6.859619,3.04361 6.797892,3.027466 6.77512,3.016214 6.736619,3.001076 6.720394,2.989162 6.705044,2.982428 6.608882,2.92573 6.598852,2.918582 6.565493,2.883137 6.445043,2.771016 6.393416,2.663171 6.362112,2.631708 6.328733,2.616729 6.310722,2.609379 6.259283,2.587201 6.193331,2.495533 6.171519,2.490725 6.143853,2.484792 6.134965,2.482893 6.102244,2.474142 5.848722,2.366488 5.807459,2.339257 5.80689,2.297337 5.909327,2.258375 6.109111,2.273759 6.056034,2.16562 6.057898,2.04669 6.060305,2.036887 6.074496,2.008052 6.075767,2.004731 6.076562,2.00365 6.199083,1.963794 6.201816,1.963207" style="fill: white" /><polygon type="contour" points="5.871981,3.065787 5.894835,3.068963 5.896174,3.068904 5.922323,3.081785 5.952293,3.094567 5.989205,3.097156 6.018013,3.112023 6.103357,3.151922 6.145176,3.18745 6.15093,3.191138 6.154013,3.194317 6.157482,3.19984 6.266199,3.331752 6.26794,3.333549 6.273287,3.343371 6.297646,3.383871 6.324359,3.409449 6.351286,3.464921 6.371447,3.502129 6.416872,3.567966 6.424902,3.590042 6.4931,3.720738 6.50272,3.732886 6.513537,3.7518 6.518087,3.762193 6.578587,3.906619 6.594204,3.935223 6.61738,3.986414 6.642234,4.042217 6.650121,4.054817 6.696465,4.149121 6.701427,4.159808 6.744146,4.251955 6.763063,4.324789 6.787451,4.463084 6.793445,4.45922 6.780247,4.527096 6.76824,4.590727 6.743735,4.671018 6.707363,4.73313 6.673137,4.803918 6.662358,4.830963 6.627799,4.888015 6.615824,4.910888 6.602607,4.968828 6.579678,5.013808 6.568737,5.046617 6.560794,5.062831 6.534678,5.104178 6.457861,5.237154 6.454472,5.243334 6.44945,5.250405 6.445242,5.261549 6.392894,5.394408 6.34985,5.45146 6.337767,5.458217 6.318509,5.494982 6.273429,5.571562 6.26307,5.59425 6.253109,5.616416 6.2132,5.652746 6.185941,5.67482 6.176675,5.690449 6.139716,5.720237 6.138305,5.721022 6.137182,5.721789 6.072338,5.761112 6.06654,5.77037 6.046883,5.782418 6.002215,5.797719 5.992335,5.801835 5.990766,5.802113 5.97903,5.803016 5.908154,5.832099 5.904313,5.83243 5.90429,5.832429 5.844313,5.831361 5.824812,5.824225 5.745771,5.839116 5.735664,5.84108 5.728876,5.839329 5.689269,5.823934 5.653654,5.808037 5.608496,5.777092 5.603769,5.772172 5.595834,5.764962 5.546528,5.70456 5.522178,5.601048 5.519167,5.585572 5.518403,5.579128 5.518674,5.576016 5.519551,5.552211 5.524329,5.434194 5.531545,5.377412 5.547284,5.31431 5.559285,5.253126 5.582721,5.151462 5.592557,5.109645 5.597095,5.093879 5.659752,4.958766 5.674169,4.92971 5.675268,4.927617 5.677549,4.924485 5.693692,4.898201 5.754457,4.807099 5.757784,4.801328 5.831602,4.72279 5.884423,4.667951 5.923422,4.633585 5.967663,4.598553 5.991808,4.576541 6.082491,4.510832 6.087108,4.507561 6.089956,4.504938 6.145309,4.453849 6.026379,4.355855 6.014313,4.344024 6.00546,4.340042 5.97774,4.318669 5.879266,4.235182 5.798591,4.155105 5.796689,4.152444 5.682215,3.982941 5.659122,3.944065 5.602043,3.809831 5.597647,3.799854 5.596572,3.795592 5.59207,3.783173 5.54691,3.620167 5.543765,3.595286 5.531915,3.535494 5.514531,3.435897 5.515136,3.402625 5.522361,3.307582 5.538233,3.249552 5.54961,3.23178 5.550473,3.217855 5.555131,3.203176 5.599761,3.148616 5.601268,3.14785 5.605126,3.143438 5.649023,3.107049 5.675838,3.105127 5.718539,3.082546 5.722053,3.081586 5.727951,3.079066 5.766292,3.074137 5.772608,3.074294 5.825065,3.072006 5.848503,3.066504 5.859401,3.064572" style="fill: white" /><polygon type="contour" points="0.814353,1.422341 0.824864,1.431942 0.854271,1.476299 0.866823,1.495799 0.881044,1.535897 0.891665,1.545811 0.893385,1.585457 0.89218,1.625022 0.89183,1.665317 0.928626,1.68632 0.967662,1.706531 1.019954,1.753818 1.082988,1.787745 1.098603,1.79728 1.12188,1.81585 1.13131,1.822655 1.140269,1.839326 1.146432,1.844965 1.149787,1.854056 1.158808,1.869333 1.176365,1.879517 1.183157,1.886672 1.211756,1.893078 1.221021,1.901466 1.244151,1.915939 1.259993,1.91623 1.263622,1.918537 1.280801,1.923607 1.313842,1.944483 1.325509,1.951808 1.328993,1.955015 1.339107,1.962497 1.414753,2.035284 1.428048,2.043699 1.439018,2.053995 1.440999,2.056663 1.460464,2.074197 1.468538,2.075669 1.479151,2.08514 1.500873,2.087047 1.529902,2.111028 1.560048,2.118169 1.571626,2.13018 1.598421,2.136371 1.655592,2.143932 1.687946,2.152469 1.704133,2.143727 1.835645,2.145891 1.85965,2.146318 1.865011,2.146364 1.870277,2.147469 1.896862,2.158801 1.91446,2.165788 1.931273,2.17918 1.935783,2.182533 1.951452,2.193312 2.002,2.216923 2.053136,2.217446 2.072056,2.20812 2.078374,2.208068 2.133883,2.20711 2.168007,2.193516 2.205327,2.192574 2.223108,2.181608 2.225624,2.180165 2.251498,2.169525 2.272617,2.165091 2.318571,2.143576 2.40236,2.123843 2.49544,2.102895 2.511154,2.101688 2.533523,2.099512 2.591752,2.086611 2.613804,2.075062 2.617725,2.07423 2.647321,2.052905 2.647991,2.051103 2.652595,2.049105 2.736733,2.012601 2.740521,2.011553 2.822861,1.978241 2.837155,1.970078 2.853643,1.964071 2.855247,1.962695 2.866859,1.957652 2.881991,1.951791 2.921634,1.939191 2.927353,1.937929 2.949417,1.945542 2.969956,1.929664 2.993853,1.927192 3.00217,1.908798 3.006331,1.907078 3.028148,1.876205 3.034309,1.870356 3.068719,1.842996 3.069679,1.84101 3.08907,1.822984 3.09739,1.820103 3.120299,1.817444 3.140501,1.786555 3.157826,1.777371 3.182788,1.736397 3.18825,1.725838 3.191503,1.721587 3.192139,1.719737 3.193824,1.717931 3.221697,1.713434 3.232522,1.693892 3.236885,1.691786 3.245095,1.684561 3.256158,1.682807 3.271942,1.669667 3.291336,1.666065 3.326369,1.658499 3.355672,1.652007 3.384378,1.64689 3.419217,1.646364 3.44417,1.648309 3.47824,1.64547 3.490547,1.645601 3.510167,1.635122 3.513601,1.634441 3.516164,1.634438 3.527826,1.635026 3.562634,1.637903 3.641236,1.640824 3.664952,1.629852 3.719973,1.633799 3.735895,1.631103 3.767557,1.632456 3.780163,1.633202 3.786637,1.635808 3.796626,1.642445 3.839197,1.679201 3.884936,1.706058 3.910168,1.736922 3.927376,1.784435 3.950182,1.853776 3.949722,1.873161 3.960493,1.914013 3.962621,1.931912 3.979815,1.982684 3.960719,2.012449 3.93108,2.062185 3.925294,2.095871 3.92368,2.106785 3.903013,2.12285 3.889579,2.161038 3.873211,2.17926 3.861573,2.22014 3.844696,2.253386 3.83482,2.29207 3.826874,2.307947 3.817509,2.323429 3.809011,2.37078 3.806039,2.379478 3.803145,2.388001 3.789099,2.406387 3.759017,2.49837 3.754057,2.520596 3.743521,2.533152 3.73891,2.549418 3.732013,2.554431 3.72452,2.560123 3.714208,2.559021 3.694822,2.566901 3.659892,2.588451 3.648765,2.604702 3.641966,2.610499 3.627888,2.615728 3.618116,2.632364 3.605277,2.644621 3.580988,2.658412 3.563386,2.662985 3.551152,2.673651 3.537701,2.68386 3.493696,2.715726 3.471305,2.727217 3.450515,2.738639 3.429432,2.761595 3.419913,2.762565 3.38492,2.780702 3.38128,2.78215 3.363029,2.794445 3.270073,2.883626 3.254411,2.895805 3.215596,2.917907 3.159376,2.944845 3.149918,2.957291 3.116726,2.980597 3.11143,2.983334 3.072423,3.017611 3.00909,3.072491 3.006181,3.074906 3.005436,3.075335 2.919583,3.146849 2.912526,3.153629 2.893151,3.186345 2.833493,3.285381 2.791098,3.379807 2.65264,3.596404 2.604428,3.663137 2.555877,3.734611 2.54144,3.809157 2.542112,3.8166 2.538445,3.8384 2.521981,3.962961 2.509277,4.080734 2.516573,4.20818 2.521357,4.250443 2.518091,4.287532 2.536611,4.310336 2.538479,4.322202 2.525665,4.413025 2.525661,4.42818 2.523966,4.497702 2.537303,4.591711 2.52018,4.624438 2.519573,4.723494 2.51066,4.819805 2.515731,4.895655 2.551822,5.139683 2.58299,5.2215 2.601091,5.26794 2.61957,5.292396 2.629695,5.318065 2.835322,5.631324 2.842195,5.643372 2.847831,5.649766 2.934264,5.781135 2.994735,5.828782 2.996933,5.82992 3.00153,5.834744 3.087598,5.90743 3.112785,5.928963 3.116596,5.930887 3.160167,5.961473 3.174626,5.967285 3.242844,6.009395 3.255029,6.015876 3.257921,6.017788 3.324836,6.085288 3.358635,6.113363 3.381696,6.130041 3.416494,6.14959 3.429878,6.151582 3.446691,6.164817 3.484578,6.187734 3.534209,6.226411 3.552672,6.241296 3.569578,6.251425 3.587157,6.253337 3.606714,6.264912 3.626108,6.292678 3.64671,6.304513 3.659123,6.322658 3.671532,6.332052 3.680391,6.335878 3.707174,6.353012 3.720538,6.34903 3.732898,6.357684 3.746974,6.372835 3.749683,6.381078 3.759212,6.411723 3.764211,6.421204 3.770776,6.445632 3.799879,6.523537 3.804181,6.529077 3.823511,6.58654 3.846867,6.661631 3.850903,6.666536 3.857442,6.705926 3.866699,6.71441 3.877791,6.738928 3.885793,6.750737 3.895119,6.771646 3.908803,6.793705 3.923704,6.805378 3.932655,6.828232 3.937575,6.860005 3.950354,6.87524 3.976512,6.925707 3.977339,6.941667 3.957165,7.031103 3.944171,7.064999 3.941772,7.075741 3.924436,7.161213 3.884762,7.219376 3.833375,7.254893 3.795411,7.271227 3.788586,7.272369 3.716502,7.278151 3.711837,7.277442 3.705375,7.278677 3.698586,7.277529 3.66627,7.27315 3.645849,7.273169 3.609538,7.26991 3.57203,7.272032 3.551627,7.272007 3.529723,7.277882 3.510362,7.279375 3.501986,7.27309 3.485095,7.264784 3.457064,7.26733 3.434888,7.266331 3.42225,7.26359 3.40852,7.268192 3.385139,7.266386 3.367257,7.260907 3.358813,7.261005 3.326705,7.257158 3.31811,7.250856 3.285409,7.247944 3.277981,7.247186 3.27101,7.237042 3.244927,7.224097 3.231519,7.221019 3.219707,7.197372 3.193805,7.193187 3.189952,7.185056 3.184228,7.174007 3.168439,7.160228 3.15708,7.14305 3.150235,7.138612 3.120946,7.094822 3.09411,7.093201 3.094259,7.092216 3.068145,7.066791 3.056306,7.05968 3.027993,7.035688 3.027724,7.035467 3.027532,7.035243 3.012452,7.012325 3.009641,6.997833 2.96556,6.975035 2.96335,6.975648 2.95547,6.968728 2.941346,6.971307 2.927489,6.971289 2.891581,6.956006 2.852411,6.938846 2.733894,6.89749 2.732734,6.896832 2.727202,6.895116 2.69729,6.881747 2.644087,6.858255 2.620038,6.840449 2.60982,6.829907 2.576548,6.821425 2.555512,6.817144 2.53531,6.813615 2.513799,6.807345 2.48122,6.802694 2.398011,6.78569 2.313555,6.766168 2.225975,6.731629 2.225159,6.731545 2.22302,6.729973 2.205214,6.716733 2.152923,6.70754 2.087289,6.705326 2.078194,6.704845 2.05182,6.693763 2.03849,6.69501 2.000315,6.693889 1.939311,6.72478 1.920177,6.740062 1.902251,6.74836 1.900271,6.751957 1.885807,6.757733 1.884927,6.759439 1.872234,6.764415 1.865287,6.764985 1.83685,6.765394 1.774088,6.766311 1.704612,6.76803 1.6869,6.758258 1.64372,6.771244 1.539426,6.780849 1.551603,6.797207 1.544037,6.79793 1.505329,6.826386 1.478137,6.826292 1.468545,6.835964 1.454381,6.840103 1.385775,6.894633 1.243461,6.995652 1.237084,7.002385 1.213113,7.02273 1.171885,7.03217 1.143389,7.070896 1.138579,7.075087 1.129422,7.089762 1.121467,7.096208 0.99567,7.185511 0.948491,7.211713 0.940752,7.214811 0.901599,7.236105 0.895928,7.328115 0.891675,7.36581 0.879345,7.377293 0.86629,7.416371 0.854111,7.435604 0.824855,7.479763 0.814477,7.489266 0.793891,7.488088 0.77408,7.488738 0.643094,7.476767 0.630224,7.471664 0.615694,7.466292 0.524596,7.379862 0.504855,7.351297 0.460302,7.25828 0.443038,7.229241 0.393971,7.087774 0.39409,7.071528 0.360486,6.925699 0.341321,6.691935 0.336842,6.652119 0.341513,6.604419 0.340372,6.592319 0.33776,6.498704 0.332276,6.426962 0.336725,6.338053 0.342389,6.314825 0.343021,6.29234 0.340579,6.2738 0.340459,6.273351 0.341456,6.268058 0.383832,6.052205 0.385845,6.03767 0.386979,6.029636 0.392813,5.965866 0.391551,5.923466 0.39431,5.915893 0.405736,5.782836 0.405469,5.778275 0.407881,5.768308 0.408114,5.766426 0.444025,5.590374 0.453689,5.535617 0.464613,5.513353 0.465477,5.491165 0.455948,5.469773 0.451268,5.463793 0.465366,5.397666 0.495232,5.277612 0.518135,5.184421 0.577372,5.135792 0.531334,5.089382 0.520633,5.075302 0.507005,5.026065 0.505011,5.022082 0.497272,5.003269 0.436861,4.825347 0.432501,4.79903 0.43032,4.683561 0.43308,4.655767 0.441042,4.632846 0.451586,4.585107 0.475989,4.480935 0.476203,4.440173 0.464234,4.387293 0.457257,4.34997 0.449137,4.327386 0.443896,4.226766 0.438966,4.123669 0.452231,4.080272 0.460689,4.015944 0.476344,3.995352 0.510982,3.86693 0.537973,3.812511 0.587191,3.76364 0.515957,3.729458 0.508858,3.716729 0.458846,3.476516 0.453547,3.45021 0.451457,3.440449 0.450905,3.439337 0.452441,3.43673 0.468987,3.412234 0.459634,3.388183 0.45076,3.359067 0.447771,3.331246 0.449313,3.32461 0.446048,3.309966 0.438383,3.244722 0.395604,3.111452 0.403662,2.997719 0.395154,2.953923 0.386922,2.894072 0.385626,2.888556 0.385294,2.88714 0.385335,2.886069 0.370738,2.761331 0.33873,2.626232 0.340356,2.59524 0.335983,2.569751 0.329945,2.513074 0.333809,2.507432 0.331464,2.486891 0.341825,2.319305 0.332241,2.217503 0.337365,2.130796 0.361258,1.979316 0.370657,1.925544 0.397078,1.822942 0.406403,1.786213 0.418165,1.757185 0.418181,1.754866 0.423057,1.738994 0.437665,1.670403 0.455483,1.625944 0.60467,1.459274 0.613798,1.447592 0.630309,1.438551 0.726424,1.428823 0.80767,1.422091" style="fill: white" />
</svg>
