<svg width="13.600213" height="8.910821">
<polygon type="contour" points="9.176491,0.44817 9.176711,0.448213 9.23486,0.463351 9.26163,0.470324 9.271126,0.479402 9.307119,0.534743 9.338226,0.603133 9.394147,0.797616 9.407323,0.827861 9.421759,0.836994 9.433411,0.854221 9.443147,0.866437 9.453962,0.88831 9.460887,0.892551 9.486497,0.922347 9.533105,0.986256 9.59411,1.100076 9.721341,1.158109 9.757962,1.18651 9.892577,1.256345 9.911196,1.263868 10.030854,1.318306 10.098003,1.331392 10.108787,1.319913 10.120905,1.32234 10.227192,1.336878 10.352365,1.350627 10.360169,1.3424 10.377922,1.347533 10.398224,1.362135 10.462952,1.363049 10.472178,1.363996 10.661488,1.314132 10.803493,1.334412 10.839785,1.340941 10.865512,1.332719 10.929828,1.342514 10.943401,1.348181 10.969213,1.351422 11.043763,1.349586 11.1347,1.346623 11.141192,1.349246 11.160981,1.353331 11.174178,1.353658 11.204231,1.344779 11.317103,1.328246 11.324483,1.328711 11.338644,1.335242 11.376438,1.327621 11.377202,1.326958 11.404659,1.333895 11.412768,1.337505 11.422488,1.345879 11.424366,1.346139 11.4289,1.358084 11.475827,1.369989 11.476964,1.370143 11.540989,1.389483 11.629237,1.403142 11.668001,1.420053 11.699001,1.438218 11.74029,1.467279 11.791432,1.520024 11.823397,1.538517 11.887353,1.621133 11.891545,1.625927 11.893946,1.633556 11.914639,1.719644 11.916197,1.730634 11.922955,1.748111 11.913427,1.787838 11.932988,1.927005 11.970956,2.102056 12.014696,2.24374 12.049948,2.356029 12.13871,2.59511 12.157963,2.65369 12.231389,2.822931 12.259766,2.89735 12.272922,2.922068 12.312058,2.98245 12.340303,3.025897 12.365267,3.070574 12.444026,3.233116 12.454878,3.263698 12.469212,3.287851 12.490705,3.303052 12.519511,3.344748 12.549593,3.376473 12.628327,3.494725 12.634541,3.512818 12.65749,3.54611 12.660796,3.555246 12.669971,3.56805 12.678666,3.576322 12.745844,3.664189 12.78327,3.771688 12.798771,3.80352 12.799664,3.819091 12.811607,3.845476 12.843503,3.929744 12.84822,3.98507 12.847989,4.064152 12.860441,4.134502 12.864033,4.236694 12.874621,4.427065 12.883241,4.60686 12.878468,4.648027 12.872255,4.700046 12.852288,4.779877 12.84161,4.914219 12.83324,5.013367 12.832573,5.020852 12.819104,5.047835 12.798305,5.081488 12.800044,5.119323 12.800078,5.130698 12.797056,5.137367 12.703962,5.299162 12.684599,5.32968 12.67795,5.33886 12.658854,5.363026 12.634268,5.399098 12.627749,5.417688 12.550215,5.534206 12.520169,5.566676 12.464855,5.636822 12.464401,5.638068 12.464109,5.638348 12.352696,5.863374 12.304049,5.940389 12.281407,5.982131 12.27479,5.99046 12.269994,5.999797 12.155682,6.271975 12.143755,6.30011 12.143555,6.301312 12.140809,6.307286 12.038092,6.572438 11.971245,6.813318 11.932492,7.005455 11.918584,7.099397 11.893407,7.277378 11.892563,7.28388 11.891418,7.286065 11.840694,7.356301 11.825328,7.371021 11.725073,7.446377 11.699746,7.464976 11.61175,7.514433 11.562149,7.522367 11.5164,7.540618 11.510568,7.541307 11.505869,7.542538 11.477204,7.541254 11.439435,7.544357 11.43528,7.556361 11.42822,7.559647 11.422132,7.565926 11.412182,7.573811 11.407773,7.578219 11.40283,7.578529 11.378468,7.584567 11.37675,7.584268 11.363527,7.582101 11.334854,7.576359 11.324884,7.58303 11.323028,7.583359 11.321926,7.583703 11.155253,7.564047 11.12771,7.564718 11.121471,7.563691 11.097499,7.565073 11.051794,7.566335 10.959642,7.564286 10.836602,7.590171 10.812559,7.586908 10.774043,7.574581 10.748907,7.580951 10.663434,7.58083 10.468217,7.55303 10.40484,7.551654 10.380785,7.56343 10.360513,7.568751 10.330907,7.558005 10.229767,7.575827 10.162293,7.591352 10.141355,7.590632 10.131662,7.593145 10.123345,7.589157 10.091197,7.581669 10.080184,7.582479 10.047282,7.587438 10.03176,7.593794 9.953172,7.624693 9.928033,7.641369 9.892621,7.656426 9.693768,7.771878 9.643552,7.799674 9.621572,7.805529 9.608565,7.831874 9.512253,7.951873 9.454393,8.029737 9.447902,8.03748 9.441523,8.042401 9.421902,8.067685 9.409705,8.084299 9.407531,8.097662 9.368723,8.232594 9.331279,8.291351 9.330122,8.296645 9.319909,8.310121 9.28382,8.373994 9.246029,8.445774 9.239909,8.453743 9.236028,8.455722 9.204854,8.456442 9.164835,8.448915 9.074208,8.441089 9.04396,8.422418 8.992744,8.408511 8.947238,8.397495 8.910049,8.38797 8.810192,8.320966 8.72442,8.27748 8.685091,8.254007 8.668681,8.240377 8.655699,8.214775 8.645271,8.194184 8.621623,8.167083 8.54143,8.121713 8.520101,8.109523 8.50772,8.104239 8.50036,8.102139 8.497694,8.100151 8.33356,8.030954 8.304704,8.03108 8.214298,8.008692 8.071709,8.002918 7.999695,7.984543 7.875303,7.944548 7.845704,7.936659 7.784512,7.910178 7.772005,7.907673 7.756146,7.907748 7.668106,7.916149 7.59037,7.91693 7.571626,7.915614 7.485327,7.942437 7.368905,7.962042 7.364674,7.964077 7.335224,7.967262 7.313488,7.959155 7.29308,7.962785 7.280779,7.958388 7.235623,7.965204 7.223322,7.966206 7.207618,7.963451 7.173838,7.976253 7.160051,7.979938 7.154947,7.98214 7.087757,7.986823 7.04132,7.990604 6.979403,7.992592 6.96503,7.989577 6.956598,7.993078 6.938787,7.992813 6.902922,7.967059 6.888173,7.988288 6.876368,7.987955 6.855336,7.997185 6.838306,8.009957 6.83386,8.01317 6.816544,8.013593 6.814109,8.016467 6.812121,8.016348 6.810998,8.016126 6.73371,8.004204 6.721085,8.002185 6.697905,7.999494 6.666757,7.997476 6.65855,7.999154 6.631373,7.998105 6.62238,7.998195 6.618059,7.997438 6.600987,7.981881 6.540526,7.969746 6.519909,7.958827 6.496889,7.958553 6.472106,7.956807 6.451703,7.964272 6.434467,7.965169 6.212253,7.934659 6.149165,7.928627 6.123973,7.923134 6.098953,7.914417 6.045384,7.899258 5.993987,7.878083 5.987517,7.871818 5.969249,7.843415 5.946278,7.830239 5.941257,7.829988 5.911004,7.818346 5.847269,7.797678 5.744442,7.747016 5.718761,7.741915 5.695371,7.739378 5.653059,7.711676 5.6331,7.704291 5.628125,7.703558 5.624724,7.70201 5.620455,7.700073 5.574903,7.682377 5.551755,7.674677 5.525464,7.654236 5.451807,7.646063 5.441701,7.64126 5.4398,7.639963 5.417213,7.629369 5.285018,7.563438 5.248065,7.533318 5.240759,7.523886 5.1873,7.501435 5.146058,7.467241 5.079528,7.434245 5.056305,7.42484 5.021837,7.404338 4.94009,7.3529 4.933941,7.349152 4.927294,7.343912 4.909881,7.322829 4.89427,7.315365 4.859412,7.306167 4.826016,7.28992 4.818395,7.281125 4.799923,7.260901 4.792399,7.252415 4.787285,7.246041 4.783112,7.238896 4.673669,7.081466 4.666703,7.053842 4.593594,6.981173 4.511744,6.895759 4.421216,6.769705 4.348438,6.697308 4.257194,6.595525 4.246116,6.581282 4.111659,6.390006 4.095879,6.360927 4.079091,6.339877 4.065948,6.308431 4.041069,6.270911 3.994595,6.195197 3.987901,6.192434 3.97672,6.18074 3.964985,6.168933 3.953742,6.133995 3.933886,6.091868 3.885848,5.975497 3.886567,5.961007 3.867921,5.915714 3.832455,5.893475 3.821361,5.886757 3.816246,5.881391 3.779635,5.829106 3.744526,5.810083 3.73517,5.804826 3.724565,5.796509 3.714265,5.788406 3.629219,5.696231 3.609612,5.665812 3.588706,5.652938 3.55465,5.596594 3.499596,5.553389 3.433977,5.523589 3.340704,5.442782 3.32793,5.388063 3.327602,5.32519 3.432029,5.194123 3.457339,5.037733 3.463884,5.023756 3.442818,4.96464 3.441815,4.963965 3.440356,4.941438 3.438205,4.906049 3.438011,4.900665 3.449133,4.707243 3.44588,4.649107 3.436263,4.607838 3.434843,4.448019 3.434481,4.353255 3.445301,4.315461 3.446924,4.284269 3.450371,4.2474 3.450505,4.232718 3.440894,4.152282 3.435647,4.120663 3.436089,3.955687 3.441384,3.945096 3.446814,3.941437 3.463934,3.904368 3.459777,3.889453 3.464957,3.800757 3.422938,3.738667 3.329678,3.613732 3.32177,3.548128 3.33476,3.517906 3.352948,3.45147 3.421195,3.386485 3.435395,3.378594 3.503039,3.354731 3.523515,3.345368 3.534426,3.327349 3.558122,3.318231 3.559182,3.296687 3.570875,3.290939 3.586605,3.26223 3.587426,3.259886 3.588703,3.258686 3.590415,3.255239 3.648142,3.207643 3.691681,3.150937 3.784994,3.072727 3.819477,3.031368 3.832175,3.020608 3.860524,3.002131 3.873597,2.985874 3.887204,2.956326 3.885889,2.93965 3.884083,2.930955 3.885051,2.929078 3.902098,2.908222 3.954594,2.778296 3.968883,2.736985 3.978311,2.728651 3.996555,2.720395 4.001541,2.695297 4.01343,2.677986 4.047364,2.634119 4.071823,2.597415 4.07361,2.578421 4.143807,2.474781 4.170334,2.432198 4.183622,2.412212 4.192192,2.39872 4.198543,2.38985 4.237896,2.33964 4.246206,2.331472 4.264254,2.32145 4.280211,2.304327 4.295009,2.288619 4.317364,2.248391 4.33926,2.22647 4.513924,2.013949 4.536485,1.988252 4.562283,1.96606 4.575779,1.948958 4.596369,1.928028 4.647175,1.876231 4.668862,1.856589 4.675828,1.84088 4.683195,1.819691 4.775727,1.680414 4.816159,1.634155 4.825532,1.623334 4.888309,1.600959 4.90868,1.589176 4.928781,1.565268 4.936049,1.561286 4.956103,1.549261 5.136347,1.448078 5.15467,1.44304 5.187678,1.407377 5.235123,1.393712 5.248448,1.376162 5.282552,1.347786 5.286734,1.345694 5.385328,1.299322 5.427833,1.278246 5.447654,1.269603 5.459471,1.265912 5.482396,1.261711 5.519595,1.259057 5.554675,1.23479 5.56503,1.230218 5.578351,1.224128 5.597338,1.21429 5.606501,1.212177 5.65246,1.198972 5.665867,1.187532 5.67565,1.183926 5.687477,1.182904 5.716975,1.169033 5.758036,1.167222 5.817353,1.14197 5.864531,1.118422 5.919322,1.089273 5.931719,1.089746 5.964033,1.072928 5.981229,1.047727 5.996255,1.033898 6.045144,1.011923 6.098365,0.997661 6.121799,0.989899 6.128996,0.987934 6.145664,0.984409 6.181704,0.973428 6.311305,0.944486 6.408485,0.945831 6.430902,0.94612 6.471701,0.957168 6.506139,0.950151 6.520873,0.951761 6.537917,0.945043 6.599635,0.931877 6.632075,0.910505 6.65561,0.90983 6.681408,0.91112 6.700718,0.913646 6.735665,0.915423 6.742245,0.913016 6.755991,0.910613 6.785956,0.899857 6.797547,0.896605 6.809715,0.895191 6.814113,0.895152 6.81594,0.89731 6.834746,0.89849 6.838247,0.901604 6.84758,0.911052 6.876378,0.923661 6.888176,0.923328 6.900175,0.940609 6.929638,0.924976 6.946196,0.924926 6.957202,0.918396 6.965559,0.920785 6.97589,0.918714 7.001029,0.918748 7.006354,0.919031 7.046958,0.925183 7.101133,0.933172 7.164505,0.934054 7.188277,0.939845 7.200504,0.945748 7.212892,0.946371 7.226709,0.947875 7.232317,0.948747 7.269115,0.955557 7.300895,0.94397 7.309357,0.942244 7.327385,0.941338 7.391414,0.952833 7.397415,0.953792 7.434281,0.965053 7.569884,1.002361 7.613378,0.993244 7.676769,0.990835 7.768863,1.003205 7.851107,0.973901 7.855313,0.971238 7.859296,0.970265 7.937278,0.951341 8.022484,0.930179 8.048423,0.925532 8.266787,0.894376 8.337595,0.877261 8.349054,0.87323 8.512723,0.780505 8.572486,0.76098 8.620518,0.741296 8.642073,0.732956 8.661128,0.702295 8.677033,0.685609 8.685937,0.660289 8.81007,0.574191 8.832884,0.560777 8.835218,0.560001 8.838177,0.559221 8.840733,0.558698 8.842959,0.558097 8.853148,0.555537 8.862155,0.552269 8.93137,0.518206 8.972992,0.507763 9.175806,0.448378 9.17632,0.44816 9.176359,0.448158" style="fill: white" />
</svg>
