<svg width="13.600213" height="8.910821">
<polygon type="contour" points="6.323574,1.508023 6.352656,1.511505 6.389599,1.530798 6.407262,1.52231 6.412554,1.521506 6.444335,1.523151 6.535006,1.508161 6.589426,1.508938 6.661758,1.51052 6.733497,1.513253 6.763047,1.51771 6.816474,1.539025 6.819894,1.538889 6.831081,1.545136 6.861015,1.559353 6.899263,1.555063 6.89965,1.555092 6.917564,1.565029 6.952153,1.571838 6.963635,1.569976 6.980049,1.571142 7.002328,1.560712 7.017907,1.563709 7.044923,1.575808 7.081166,1.588057 7.111759,1.592275 7.177302,1.617462 7.18119,1.619517 7.182955,1.620749 7.186475,1.621912 7.209177,1.640365 7.250664,1.649052 7.300034,1.67108 7.301298,1.671793 7.308303,1.680885 7.337969,1.687653 7.348127,1.693912 7.415313,1.697568 7.429072,1.685843 7.489598,1.688827 7.549958,1.692185 7.557395,1.695877 7.595288,1.702422 7.597229,1.702296 7.601473,1.702927 7.628775,1.703919 7.634417,1.700401 7.648422,1.700294 7.668495,1.697542 7.691327,1.703461 7.708906,1.697797 7.723862,1.701845 7.762693,1.70125 7.80412,1.695979 7.816335,1.697611 7.831647,1.702897 7.871299,1.691174 7.934692,1.691311 8.03951,1.654181 8.21556,1.583696 8.273195,1.565092 8.2738,1.565268 8.3416,1.575302 8.35164,1.573679 8.359903,1.573981 8.36416,1.576004 8.405495,1.583665 8.415898,1.594457 8.435278,1.601827 8.477021,1.616488 8.502939,1.631343 8.521113,1.655633 8.529815,1.663062 8.569617,1.70138 8.671998,1.79927 8.708956,1.806377 8.720781,1.815526 8.72115,1.815799 8.750793,1.842155 8.837261,1.918906 8.865099,1.94559 9.010232,2.102759 9.022715,2.115134 9.029076,2.123464 9.062634,2.167157 9.082155,2.190964 9.115372,2.216589 9.123193,2.222692 9.135363,2.230847 9.16924,2.250247 9.173435,2.252566 9.184175,2.256375 9.194099,2.264875 9.205443,2.271757 9.216745,2.274662 9.232831,2.286242 9.270236,2.288749 9.328701,2.312822 9.387368,2.322392 9.40472,2.32951 9.530262,2.369366 9.592789,2.393756 9.600024,2.395998 9.608378,2.39895 9.682386,2.420603 9.699237,2.422208 9.731724,2.432068 9.747377,2.427959 9.770275,2.432415 9.779986,2.436173 9.805975,2.446665 9.811638,2.451283 9.82162,2.455231 9.823117,2.455746 9.82612,2.457662 10.026629,2.570355 10.026737,2.570389 10.030397,2.573615 10.033604,2.579682 10.180239,2.812468 10.208895,2.86085 10.283317,2.977522 10.30966,3.02333 10.315834,3.037869 10.323206,3.053186 10.351957,3.080664 10.414616,3.131086 10.468876,3.167366 10.546807,3.225027 10.551485,3.23087 10.56397,3.244504 10.573379,3.250546 10.701201,3.340619 10.713252,3.347326 10.723048,3.351152 10.750945,3.35994 10.791877,3.375945 10.844991,3.39212 10.982711,3.451562 11.029076,3.469523 11.047811,3.480132 11.078778,3.49905 11.125679,3.530825 11.148595,3.538471 11.23064,3.596701 11.239835,3.602475 11.242294,3.604927 11.267057,3.618226 11.278839,3.620676 11.319372,3.629518 11.322631,3.633182 11.364115,3.657931 11.366549,3.660434 11.367659,3.661984 11.372793,3.667216 11.381557,3.680727 11.393313,3.693006 11.412136,3.72257 11.416588,3.734406 11.436633,3.777086 11.454838,3.835178 11.458987,3.859097 11.466182,3.87912 11.468436,3.884597 11.476817,3.925744 11.480848,3.971994 11.481473,4.010585 11.490646,4.080638 11.509448,4.116901 11.544316,4.180216 11.57219,4.244735 11.574847,4.248358 11.568392,4.269822 11.589718,4.302782 11.590966,4.309644 11.593891,4.315644 11.596463,4.351908 11.623636,4.411094 11.625061,4.414434 11.624467,4.496845 11.623738,4.500168 11.574418,4.661591 11.537363,4.750696 11.489235,4.836716 11.480343,4.905041 11.479856,4.94171 11.462222,5.004877 11.45537,5.042152 11.453457,5.083877 11.452426,5.092497 11.437239,5.13259 11.418051,5.175245 11.413294,5.187353 11.395939,5.213668 11.372988,5.229713 11.335035,5.263323 11.301068,5.292896 11.279706,5.288178 11.243141,5.305644 11.237605,5.31002 11.166079,5.362197 11.157084,5.368471 11.124796,5.377532 11.07848,5.409074 11.040012,5.423895 11.014028,5.432537 10.986009,5.439496 10.737367,5.563427 10.710216,5.565192 10.66177,5.594423 10.618598,5.624946 10.609578,5.645872 10.579942,5.661955 10.52099,5.703831 10.459818,5.754225 10.412923,5.797169 10.304339,5.892505 10.303921,5.896978 10.291633,5.907264 10.182846,6.085164 10.1497,6.145271 10.149501,6.14544 10.142355,6.154384 10.131078,6.171911 10.103733,6.223372 10.056444,6.307741 10.047042,6.315306 10.017127,6.343606 9.939182,6.408233 9.879508,6.446537 9.864137,6.452324 9.829786,6.453974 9.810785,6.460986 9.779705,6.47544 9.763179,6.481744 9.747376,6.483661 9.732472,6.479748 9.709482,6.48565 9.607183,6.520234 9.421497,6.58328 9.414847,6.585842 9.413099,6.586843 9.376985,6.595204 9.242496,6.625237 9.222349,6.630815 9.211601,6.638506 9.185644,6.658224 9.144155,6.676652 9.134454,6.680881 9.11864,6.695813 9.092222,6.713273 9.082851,6.723388 9.064769,6.743159 9.056985,6.751465 9.022705,6.795467 8.999541,6.819078 8.82996,6.998941 8.731112,7.077189 8.683809,7.106729 8.615566,7.147246 8.605866,7.159172 8.596504,7.170151 8.587621,7.180651 8.577439,7.190124 8.543335,7.21871 8.496244,7.267192 8.464843,7.292377 8.440118,7.311558 8.389765,7.335048 8.302143,7.343947 8.283185,7.345595 8.274663,7.344998 8.271369,7.346304 8.264018,7.344991 8.248248,7.339857 8.175324,7.317182 8.136794,7.296428 8.020424,7.245454 7.995592,7.236836 7.922253,7.21696 7.82962,7.211324 7.824621,7.213091 7.803962,7.216134 7.784968,7.210665 7.737522,7.210129 7.734259,7.211666 7.729572,7.210841 7.696129,7.210542 7.687822,7.213751 7.658401,7.209872 7.645796,7.208165 7.641379,7.207813 7.627882,7.208062 7.601928,7.209685 7.591226,7.212099 7.582245,7.214608 7.574012,7.214378 7.550506,7.221444 7.542043,7.220927 7.458679,7.224824 7.458256,7.224949 7.45753,7.22484 7.420039,7.220271 7.408797,7.213855 7.367164,7.214357 7.346314,7.218856 7.314577,7.229674 7.299941,7.239411 7.296477,7.243581 7.295038,7.244238 7.291056,7.245056 7.210351,7.268537 7.184613,7.289301 7.134739,7.308708 7.134705,7.308707 7.080732,7.323791 7.009361,7.354715 7.003794,7.35098 6.975519,7.339297 6.942839,7.338388 6.91343,7.351491 6.904821,7.353433 6.870962,7.344075 6.817741,7.3721 6.817718,7.37212 6.73843,7.397141 6.65756,7.401148 6.524609,7.408811 6.479347,7.393901 6.406414,7.388414 6.403539,7.388988 6.370311,7.378878 6.356027,7.399227 6.338663,7.399087 6.302445,7.401837 6.231495,7.401744 6.043806,7.396987 6.027461,7.396734 5.856721,7.34449 5.799297,7.328361 5.790262,7.317771 5.711536,7.312708 5.657926,7.308089 5.633484,7.297831 5.549335,7.280697 5.4288,7.243705 5.270022,7.171448 5.170705,7.128302 5.039337,7.067875 5.001913,7.046626 4.992354,7.038539 4.975909,7.030903 4.791161,6.914517 4.784581,6.914294 4.590806,6.833371 4.583357,6.828467 4.551691,6.805692 4.547336,6.805136 4.535199,6.797917 4.524643,6.780846 4.518416,6.764217 4.477338,6.738616 4.453174,6.715695 4.371883,6.647023 4.361335,6.63117 4.338844,6.618619 4.257398,6.555453 4.186585,6.51886 4.081818,6.448839 4.003181,6.41774 3.890737,6.364887 3.798602,6.306334 3.724078,6.259673 3.626565,6.181729 3.61881,6.178705 3.454387,6.09364 3.402287,6.058685 3.375158,6.025493 3.289969,5.961489 3.250504,5.939214 3.068427,5.85359 3.024633,5.799763 2.986251,5.66681 2.983388,5.659406 2.984942,5.648135 2.950593,5.479733 2.94766,5.444919 2.949564,5.248662 2.92531,5.191117 2.924796,5.166681 2.922036,5.124673 2.908276,5.067309 2.906045,5.054673 2.896518,5.021669 2.899922,4.94397 2.894665,4.918857 2.902725,4.843337 2.906591,4.761996 2.920517,4.593916 2.921432,4.588909 2.962425,4.557104 2.998546,4.546007 2.999778,4.420845 2.99774,4.365232 2.946436,4.356489 2.941974,4.352226 2.923064,4.323288 2.919938,4.31828 2.912413,4.215178 2.909717,4.180257 2.910746,4.154858 2.90276,4.114226 2.895438,3.924827 2.895466,3.924219 2.896113,3.922286 2.896641,3.916362 2.933204,3.693498 2.925288,3.548204 2.9467,3.428434 2.962548,3.357994 2.999608,3.276593 2.990733,3.187892 3.007941,3.135307 3.107554,3.035858 3.120392,3.019357 3.200207,2.972328 3.300677,2.955276 3.400663,2.86579 3.428573,2.833843 3.434724,2.830242 3.456892,2.816599 3.53076,2.78029 3.652767,2.720035 3.714231,2.670358 3.726445,2.649407 3.812438,2.587664 3.863886,2.557691 3.87381,2.543962 3.897974,2.537046 4.061339,2.470402 4.324644,2.301048 4.346066,2.290295 4.361924,2.277352 4.378027,2.265112 4.392104,2.238587 4.397788,2.231161 4.401104,2.228333 4.47036,2.180014 4.513409,2.146204 4.518641,2.134968 4.536016,2.114609 4.54053,2.104492 4.545747,2.101625 4.613117,2.066607 4.64627,2.044948 4.657655,2.040921 4.763848,1.989851 4.790755,1.9957 4.964679,1.887307 4.992817,1.872628 5.020758,1.853361 5.174888,1.768438 5.20707,1.751391 5.210843,1.750278 5.421671,1.668893 5.435668,1.663995 5.451627,1.660859 5.546243,1.637324 5.803619,1.573741 5.837614,1.561682 5.879125,1.55129 5.95235,1.526216 5.957381,1.525286 5.968124,1.524883 5.982112,1.521524 6.035223,1.518961 6.247703,1.506217" style="fill: white" />
</svg>
