<svg width="13.600213" height="8.910821">
<polygon type="contour" points="3.305607,3.774136 3.317238,3.774604 3.340781,3.788514 3.39301,3.787396 3.442556,3.810173 3.45561,3.822319 3.479955,3.863908 3.495771,3.950758 3.502308,3.987409 3.515706,4.024357 3.5204,4.056527 3.539787,4.100525 3.549564,4.170453 3.567962,4.215373 3.806938,4.205778 3.828537,4.206422 3.836452,4.206607 3.904459,4.223607 3.905858,4.284776 3.902536,4.294314 3.892064,4.302691 3.836868,4.337135 3.791808,4.353507 3.731581,4.368886 3.654214,4.378377 3.62511,4.377317 3.543956,4.375163 3.464854,4.348339 3.452582,4.426856 3.449868,4.456906 3.471589,4.562271 3.552721,4.535817 3.742425,4.546169 3.767753,4.551625 3.78745,4.553653 3.838855,4.575006 3.890754,4.607882 3.903275,4.617865 3.901828,4.692245 3.901835,4.693103 3.899129,4.693073 3.624381,4.68881 3.559843,4.689738 3.54948,4.738547 3.547078,4.749805 3.540322,4.816784 3.520169,4.85932 3.51682,4.87596 3.504704,4.902231 3.479847,5.045177 3.438014,5.098014 3.417577,5.118843 3.398951,5.122535 3.34724,5.122206 3.318126,5.129986 3.27785,5.13639 3.198823,5.137962 3.134068,5.147075 3.11612,5.144715 3.104507,5.142499 2.975272,5.126542 2.958583,5.124685 2.873954,5.075329 2.861735,5.067211 2.857594,5.064195 2.851738,5.049123 2.805875,4.985621 2.749778,4.962218 2.744525,4.960413 2.73319,4.957364 2.651679,4.936125 2.637739,4.94074 2.628007,4.938316 2.589544,4.961218 2.557751,4.993091 2.542854,5.003785 2.526865,5.004369 2.475704,5.024878 2.462969,5.031523 2.433907,5.02875 2.344207,5.021528 2.307299,4.992449 2.295756,4.980484 2.263997,4.972017 2.242712,4.971349 2.227492,4.975483 2.223228,4.973861 2.210221,4.967107 2.122818,4.91029 2.068558,4.873023 2.004294,4.815762 1.999341,4.81327 1.999304,4.800199 1.998808,4.794451 2.00562,4.734916 2.009922,4.688969 2.023734,4.644309 2.026334,4.614644 2.032724,4.589493 1.942679,4.470548 1.927197,4.394677 1.928834,4.387641 1.931341,4.37947 1.942848,4.355863 2.03039,4.362324 2.010319,4.224023 2.003119,4.185438 1.998779,4.117269 1.99928,4.1115 1.999313,4.098369 2.004274,4.095914 2.068224,4.0392 2.129009,3.988716 2.209574,3.942747 2.221874,3.937636 2.229599,3.934803 2.255915,3.938553 2.283685,3.938754 2.297629,3.921633 2.362036,3.88233 2.413004,3.884522 2.493202,3.882178 2.511227,3.897651 2.521259,3.898303 2.543503,3.907919 2.548754,3.912041 2.577467,3.94574 2.60085,3.957106 2.610787,3.96369 2.61855,3.965098 2.645716,3.973995 2.708756,3.965841 2.78816,3.930537 2.820068,3.923046 2.82782,3.892105 2.859123,3.846302 2.862795,3.843505 2.935971,3.801861 2.952488,3.790375 2.957122,3.787373 2.99161,3.784655 3.074657,3.782569 3.095239,3.77796 3.155088,3.77066 3.1832,3.758767" style="fill: white" />
</svg>
