<svg width="13.600213" height="8.910821">
<polygon type="contour" points="3.382395,3.427222 3.447871,3.441548 3.510131,3.468794 3.530085,3.491542 3.571428,3.556331 3.592004,3.701278 3.597954,3.768367 3.606694,3.833167 3.688704,3.84013 3.694872,3.839688 3.736394,3.840555 3.762059,3.84109 3.794575,3.841772 3.795399,3.852902 3.867734,3.862785 3.900109,3.867208 3.958777,3.881189 4.040561,3.883884 3.983764,3.950134 3.922,3.980606 3.838583,3.997873 3.641481,4.008803 3.534505,4.02341 3.519605,4.014215 3.516372,4.01222 3.510983,4.006669 3.484926,3.979824 3.484809,3.958901 3.484272,3.863405 3.384903,3.897026 3.375181,3.915278 3.365678,3.934439 3.367596,3.942209 3.367488,3.942589 3.367485,3.942768 3.359753,3.959052 3.358008,3.967699 3.335358,4.027171 3.325071,4.069275 3.328283,4.096777 3.32668,4.098498 3.311828,4.132928 3.303751,4.152698 3.298106,4.159316 3.294091,4.169381 3.290378,4.176152 3.286178,4.188104 3.26652,4.233793 3.243149,4.297746 3.242543,4.311073 3.238689,4.345965 3.235045,4.377161 3.232015,4.380538 3.215783,4.390267 3.206534,4.433928 3.205857,4.455807 3.215703,4.51862 3.236226,4.536637 3.239177,4.547076 3.241763,4.567576 3.238972,4.589026 3.24251,4.609083 3.252056,4.636647 3.280318,4.701055 3.298101,4.752005 3.311965,4.777978 3.313565,4.780598 3.327281,4.813946 3.329689,4.830813 3.330618,4.854656 3.334987,4.872775 3.357977,4.943929 3.363422,4.959403 3.369957,4.966258 3.37135,4.984308 3.38692,5.015202 3.406868,5.023132 3.475913,5.056099 3.483579,4.949678 3.484753,4.933385 3.509259,4.905059 3.513987,4.899593 3.5188,4.896496 3.530629,4.888881 3.554071,4.891484 3.677717,4.902601 3.840731,4.922779 3.921084,4.929594 3.981772,4.95931 4.036306,5.029627 3.920429,5.042508 3.891986,5.049695 3.86652,5.053157 3.834378,5.057527 3.797163,5.062587 3.795594,5.069807 3.77441,5.070202 3.703014,5.071535 3.693912,5.072218 3.594812,5.079662 3.601481,5.145048 3.597056,5.200959 3.573372,5.351408 3.565818,5.370578 3.527259,5.430832 3.514,5.441969 3.485117,5.453775 3.395498,5.490396 3.386521,5.490956 3.338979,5.484472 3.323868,5.483677 3.316961,5.477506 3.295924,5.479149 3.254684,5.466236 3.240959,5.468669 3.195846,5.45329 3.172221,5.439378 3.142411,5.431465 3.110863,5.421352 3.074691,5.401794 2.966849,5.377715 2.923036,5.342629 2.852992,5.351627 2.779832,5.356099 2.714217,5.337202 2.666542,5.372646 2.645274,5.37586 2.637617,5.387231 2.632935,5.387756 2.627129,5.394453 2.588323,5.404485 2.50487,5.388216 2.442595,5.375916 2.393427,5.358616 2.386164,5.354893 2.372859,5.337851 2.322236,5.276285 2.289562,5.253613 2.270095,5.247617 2.256679,5.232413 2.188907,5.189846 2.188596,5.189754 2.187982,5.189143 2.131474,5.157912 2.050082,5.074269 1.957609,4.987725 1.952972,4.981729 1.936726,4.95239 1.915346,4.941533 1.899246,4.935521 1.852281,4.939363 1.844304,4.935675 1.834803,4.926884 1.799876,4.902591 1.772076,4.894705 1.761856,4.885758 1.752582,4.884666 1.707624,4.865365 1.703207,4.864123 1.697576,4.859929 1.628312,4.781904 1.558953,4.709401 1.551493,4.700946 1.546701,4.692879 1.526903,4.653107 1.520121,4.618021 1.513798,4.603007 1.489182,4.49451 1.491474,4.442182 1.515383,4.291445 1.518933,4.280184 1.574567,4.206817 1.611778,4.140872 1.623766,4.124761 1.664143,4.09274 1.678864,4.086855 1.732085,4.043925 1.762058,4.026286 1.773886,4.022401 1.785865,4.015411 1.808773,4.00272 1.817852,3.994536 1.846443,3.97916 1.874919,3.980196 1.916915,3.969242 1.939746,3.956582 1.956949,3.923905 1.995013,3.875971 2.02505,3.857408 2.13203,3.757321 2.158366,3.741476 2.18946,3.725113 2.264339,3.669429 2.276752,3.661388 2.300436,3.647555 2.31431,3.648394 2.349377,3.614089 2.355745,3.597631 2.38672,3.555402 2.393172,3.550131 2.502633,3.517196 2.548379,3.508115 2.626649,3.51665 2.638164,3.531111 2.660374,3.539449 2.663474,3.54209 2.704562,3.570173 2.73731,3.567224 2.82861,3.558517 2.888022,3.554688 2.89978,3.55559 2.909627,3.556964 2.922856,3.553105 2.928337,3.550819 3.027162,3.520504 3.123289,3.485353 3.178293,3.476824 3.219942,3.463632 3.269898,3.43618 3.296746,3.43789 3.320091,3.4267 3.354887,3.422469" style="fill: white" />
</svg>
