<svg width="13.600213" height="8.910821">
<polygon type="contour" points="3.228611,5.601966 3.238957,5.609645 3.29367,5.649839 3.27042,5.657255 3.276286,5.703456 3.273121,5.716602 3.247047,5.763832 3.230935,5.776662 3.185801,5.799478 3.145078,5.815167 3.128542,5.823455 3.122378,5.822405 3.10018,5.821568 3.079437,5.816273 3.057905,5.804657 3.032762,5.779292 3.028583,5.774494 3.025781,5.768711 3.019395,5.727617 3.022148,5.707703 3.047566,5.658238 3.058696,5.64246 3.062803,5.637606 3.107687,5.611668 3.149888,5.595432 3.167183,5.595134" style="fill: white" /><polygon type="contour" points="3.092243,3.091874 3.124247,3.095529 3.191024,3.102875 3.207612,3.114799 3.222683,3.132905 3.264412,3.173097 3.264613,3.181742 3.267796,3.189257 3.239126,3.301445 3.217084,3.314736 3.193995,3.325129 3.164814,3.323392 3.138711,3.30832 3.081145,3.280878 3.064426,3.273631 3.057876,3.265637 3.04263,3.244842 3.0287,3.217178 3.02591,3.202296 3.026065,3.15821 3.027274,3.141368 3.031849,3.132718 3.050143,3.116294 3.055182,3.108683 3.077131,3.096746 3.087708,3.091803" style="fill: white" /><polygon type="contour" points="8.560346,1.427906 8.564076,1.42711 8.579916,1.429944 8.614033,1.446357 8.637494,1.484601 8.643289,1.497616 8.65444,1.51263 8.683294,1.543344 8.705273,1.584122 8.749468,1.615038 8.767227,1.635197 8.774746,1.637144 8.78283,1.645293 8.943556,1.772756 8.95015,1.775861 9.086489,1.876396 9.250402,1.994704 9.263411,2.005268 9.27747,2.013215 9.311863,2.041937 9.3373,2.059752 9.376526,2.074591 9.418516,2.080213 9.432821,2.088861 9.520481,2.114004 9.598332,2.141311 9.637398,2.157473 9.662458,2.172923 9.673459,2.183666 9.699262,2.192352 9.755378,2.231398 9.787358,2.249556 9.78965,2.251278 9.791703,2.255023 9.797394,2.269873 9.818259,2.281505 9.827618,2.296051 9.850103,2.304655 9.855165,2.307357 9.859798,2.308628 9.934558,2.341398 9.943073,2.342515 9.944813,2.343555 9.972682,2.35221 9.993287,2.356938 10.03298,2.376241 10.07095,2.35082 10.076131,2.353288 10.092348,2.349409 10.104146,2.354348 10.11002,2.355374 10.118919,2.357547 10.137531,2.363972 10.150882,2.371485 10.169713,2.380571 10.20085,2.402367 10.241755,2.422298 10.275864,2.449257 10.278591,2.45224 10.289874,2.459392 10.29776,2.466752 10.301848,2.468788 10.30967,2.475646 10.315366,2.482162 10.327274,2.494218 10.372316,2.550883 10.471361,2.690719 10.579062,2.837151 10.654701,2.965942 10.71345,3.051005 10.737495,3.087771 10.770687,3.123687 10.781211,3.1451 10.79554,3.1676 10.859401,3.213664 10.902438,3.24779 10.942537,3.314434 10.952417,3.32503 10.95892,3.331522 10.961525,3.337412 11.046776,3.403577 11.053217,3.40858 11.100752,3.449368 11.107436,3.454866 11.128347,3.476633 11.229575,3.510401 11.250231,3.520371 11.434418,3.61728 11.439442,3.620702 11.443769,3.627859 11.564183,3.667257 11.594098,3.723475 11.617247,3.779682 11.62496,3.790274 11.628649,3.937278 11.635883,4.078462 11.639083,4.119171 11.693569,4.254579 11.69963,4.26197 11.707839,4.289646 11.737392,4.336996 11.745784,4.399461 11.743901,4.555245 11.702399,4.646153 11.635306,4.798319 11.613698,5.014441 11.613311,5.031754 11.624105,5.139587 11.597134,5.199823 11.585122,5.227394 11.513284,5.253519 11.433114,5.272545 11.379453,5.320654 11.375529,5.327372 11.371034,5.330828 11.341776,5.351038 11.26819,5.380363 11.239287,5.394389 11.197746,5.403662 11.176328,5.410153 11.158924,5.417605 11.146433,5.423632 11.107138,5.458372 11.087368,5.474138 11.045596,5.509307 10.961543,5.574167 10.95892,5.580095 10.939691,5.60225 10.937561,5.607527 10.930044,5.615465 10.903314,5.665155 10.879185,5.682408 10.859373,5.694211 10.837059,5.706987 10.811384,5.748701 10.745659,5.806821 10.717573,5.849629 10.643703,5.974159 10.579074,6.061664 10.4125,6.292375 10.38853,6.324935 10.340702,6.408114 10.333031,6.415708 10.330191,6.4191 10.325618,6.423098 10.322335,6.425018 10.317947,6.42917 10.30789,6.436079 10.22313,6.497787 10.211218,6.507658 10.197304,6.513035 10.162418,6.532322 10.148052,6.53983 10.136923,6.5438 10.120582,6.551453 10.116802,6.553535 10.092342,6.562213 10.076124,6.558331 10.070946,6.560798 10.037274,6.538253 9.972237,6.559528 9.943717,6.568331 9.943115,6.568842 9.931679,6.570579 9.873164,6.598104 9.859754,6.604056 9.852402,6.606023 9.831778,6.613316 9.825086,6.625514 9.80819,6.636779 9.802606,6.649035 9.776183,6.665574 9.756499,6.677476 9.746105,6.683874 9.671364,6.731755 9.643786,6.748921 9.628022,6.760056 9.605065,6.768189 9.59393,6.770431 9.517704,6.798815 9.451578,6.8148 9.384346,6.833076 9.338228,6.851405 9.311774,6.869727 9.281358,6.896452 9.271786,6.901169 9.253353,6.914819 9.037413,7.084232 8.952487,7.134304 8.940741,7.140063 8.917731,7.172578 8.910341,7.181981 8.909548,7.182751 8.904427,7.186348 8.903658,7.186984 8.898469,7.18994 8.871459,7.208906 8.731479,7.302141 8.729803,7.306913 8.726433,7.309675 8.684863,7.353202 8.655593,7.398541 8.643403,7.414195 8.637628,7.427757 8.611209,7.465527 8.608082,7.470773 8.603687,7.473623 8.587003,7.480224 8.582542,7.479211 8.564929,7.484457 8.560337,7.483707 8.54474,7.487366 8.539497,7.486086 8.522053,7.482944 8.517965,7.4828 8.506375,7.476847 8.487724,7.468767 8.423853,7.452729 8.409497,7.450637 8.401834,7.450721 8.40013,7.45056 8.397916,7.449375 8.224575,7.441319 8.202268,7.440346 8.176205,7.438093 8.155258,7.422965 8.083288,7.381132 8.056646,7.372884 8.011619,7.373155 8.000418,7.393387 7.903269,7.410089 7.751479,7.422519 7.740082,7.423512 7.739392,7.422932 7.737143,7.421305 7.717898,7.403958 7.559484,7.423198 7.533977,7.426412 7.512054,7.447417 7.499327,7.448733 7.484714,7.448591 7.407423,7.443527 7.22768,7.436785 7.19448,7.432079 7.174914,7.431902 7.165689,7.430019 7.141861,7.418422 7.106303,7.427151 7.080009,7.427158 7.027377,7.425409 6.991293,7.439775 6.983037,7.439877 6.974166,7.439724 6.930169,7.441486 6.793797,7.449489 6.751807,7.434279 6.734941,7.442229 6.724576,7.441874 6.651877,7.450362 6.604641,7.454627 6.520413,7.450427 6.382227,7.428727 6.378081,7.427135 6.37144,7.426896 6.13679,7.384094 6.076116,7.373284 6.024164,7.361192 5.856353,7.31711 5.851744,7.316303 5.836076,7.307922 5.590584,7.208837 5.431705,7.113007 5.359835,7.071654 5.245098,7.015673 5.109472,6.963542 5.04881,6.931609 5.044296,6.927373 5.032045,6.910714 4.991999,6.857754 4.845013,6.771593 4.781513,6.729808 4.766992,6.721691 4.75835,6.717892 4.734234,6.698984 4.656553,6.692487 4.629331,6.679592 4.456269,6.558485 4.42065,6.548431 4.383571,6.513305 4.224489,6.404571 4.136821,6.328166 4.10673,6.285634 4.066922,6.24288 4.055375,6.213774 4.034726,6.185039 4.031158,6.175863 4.017309,6.157587 3.991328,6.129014 3.898326,6.051975 3.848808,6.024281 3.797583,5.971589 3.751549,5.942056 3.724245,5.909609 3.686833,5.907154 3.677439,5.904066 3.666022,5.905256 3.546831,5.856586 3.532841,5.853408 3.491817,5.806238 3.439021,5.757676 3.391651,5.710692 3.383417,5.695299 3.344708,5.539378 3.343648,5.522545 3.363065,5.48519 3.319382,5.376898 3.276107,5.319984 3.244975,5.147668 3.229722,5.063376 3.234699,5.050499 3.220745,4.964087 3.221172,4.963224 3.246231,4.941461 3.247257,4.908731 3.245162,4.866595 3.255113,4.708343 3.262264,4.607398 3.277206,4.524702 3.283097,4.49722 3.288219,4.449152 3.265587,4.364297 3.259136,4.3359 3.254754,4.298369 3.244328,4.259266 3.238957,3.972894 3.225829,3.956189 3.220762,3.946818 3.255442,3.70006 3.252383,3.68279 3.261881,3.635339 3.296801,3.568113 3.312811,3.548604 3.329401,3.47936 3.341377,3.461316 3.35599,3.418513 3.339707,3.362626 3.372526,3.249952 3.3712,3.240437 3.391653,3.200927 3.437358,3.151771 3.52622,3.061811 3.553316,3.049188 3.673534,3.008704 3.709123,2.99742 3.723475,3.002328 3.753568,2.971767 3.940317,2.827108 3.966967,2.80539 4.069686,2.663777 4.149362,2.583098 4.435311,2.366324 4.449618,2.35635 4.466984,2.333612 4.490694,2.307529 4.492534,2.305638 4.634111,2.244148 4.697099,2.220045 4.722211,2.219247 4.757708,2.192369 4.773795,2.18604 4.823509,2.151641 4.843938,2.140026 4.992251,2.055741 5.039411,1.988073 5.09248,1.955689 5.246015,1.895424 5.344201,1.849052 5.352444,1.844579 5.442246,1.776036 5.604506,1.692821 5.612971,1.687551 5.624241,1.683239 5.631602,1.67858 5.710406,1.64228 5.822238,1.602004 5.845703,1.598701 5.976766,1.557234 6.006303,1.552158 6.142487,1.521701 6.175635,1.517126 6.543436,1.4665 6.551452,1.465929 6.553502,1.465945 6.556442,1.466569 6.71936,1.468449 6.720905,1.468771 6.745859,1.470109 6.776574,1.469974 6.982746,1.471697 6.991262,1.471844 7.017446,1.482316 7.02968,1.485271 7.039359,1.485023 7.046589,1.484484 7.062669,1.482269 7.094404,1.48376 7.102567,1.483775 7.135893,1.49198 7.155618,1.487945 7.17438,1.479463 7.189627,1.478618 7.330498,1.466588 7.433174,1.460829 7.508804,1.461568 7.516699,1.464935 7.534079,1.485031 7.569177,1.48966 7.613915,1.49481 7.698376,1.504449 7.720502,1.5049 7.737458,1.490577 7.871503,1.498074 7.984215,1.511313 7.999213,1.517077 8.009003,1.522472 8.031282,1.546701 8.079118,1.533179 8.097887,1.519002 8.184152,1.47461 8.233462,1.472138 8.254045,1.46908 8.379722,1.463288 8.389534,1.462269 8.422475,1.455209 8.424074,1.454695 8.429942,1.455065 8.454516,1.450136 8.503706,1.43785 8.511805,1.433524 8.521452,1.428649 8.524828,1.428018 8.544738,1.424249" style="fill: white" />
</svg>
