<svg width="13.600213" height="8.910821">
<polygon type="contour" points="6.646665,3.402861 6.68125,3.414494 6.732602,3.4319 6.734113,3.432494 6.734517,3.434737 6.786429,3.452289 6.804545,3.459224 6.859337,3.482427 6.936501,3.561593 6.945235,3.569858 6.948215,3.571796 6.97638,3.596129 7.011329,3.63904 7.045863,3.691805 7.068875,3.72426 7.122198,3.798515 7.131613,3.812943 7.14863,3.84648 7.224058,3.979008 7.231967,3.98831 7.238877,4.011455 7.26089,4.064599 7.262825,4.066512 7.276081,4.092488 7.31718,4.175386 7.334184,4.213919 7.358658,4.296816 7.378769,4.364475 7.385041,4.411286 7.383431,4.475371 7.384669,4.476549 7.384232,4.522913 7.379769,4.539158 7.371409,4.578917 7.345573,4.659384 7.3337,4.674421 7.329158,4.717271 7.302468,4.783685 7.269948,4.845486 7.259775,4.871495 7.252298,4.883686 7.216123,4.952759 7.207287,4.96537 7.193228,4.992191 7.165426,5.035401 7.132749,5.092953 7.107814,5.131231 7.095436,5.150752 7.07477,5.180813 7.04527,5.228213 7.020883,5.261893 6.987465,5.301777 6.984294,5.306692 6.980618,5.311258 6.947627,5.329697 6.925787,5.344412 6.905964,5.387358 6.893457,5.401461 6.873048,5.418323 6.844694,5.433654 6.838096,5.434271 6.816389,5.446711 6.804779,5.450879 6.777019,5.47049 6.74225,5.484844 6.707792,5.498571 6.658227,5.514161 6.641827,5.517261 6.63185,5.516791 6.554439,5.497035 6.549097,5.494504 6.514364,5.49101 6.509828,5.486989 6.49791,5.476423 6.46702,5.472947 6.438631,5.445075 6.411492,5.394004 6.411108,5.359969 6.403202,5.342608 6.405162,5.314491 6.409476,5.247846 6.435253,5.190504 6.443419,5.17511 6.446003,5.138404 6.445421,5.121127 6.451241,5.101551 6.480692,5.060459 6.522733,4.974534 6.565526,4.930391 6.607595,4.853004 6.657231,4.782374 6.682893,4.75121 6.724125,4.687049 6.761034,4.651532 6.790531,4.627401 6.816854,4.593109 6.823626,4.572558 6.861264,4.472019 6.856777,4.473577 6.856998,4.473098 6.857407,4.472213 6.876199,4.431523 6.851457,4.416524 6.834284,4.343859 6.834131,4.343659 6.832969,4.338735 6.791474,4.293758 6.754509,4.248512 6.645621,4.110764 6.58628,4.01469 6.548062,3.971358 6.530124,3.945402 6.523746,3.93408 6.513541,3.907105 6.496644,3.873537 6.488998,3.857552 6.451333,3.795464 6.442093,3.752252 6.447205,3.731498 6.440278,3.707435 6.42878,3.652691 6.418928,3.626893 6.416932,3.613895 6.398475,3.573589 6.416767,3.508203 6.421668,3.486118 6.430662,3.479221 6.444799,3.459034 6.486535,3.455893 6.496127,3.426235 6.50825,3.418978 6.536068,3.409926 6.571405,3.408094 6.579698,3.401904 6.60801,3.398589 6.620396,3.398128 6.623749,3.399192 6.631199,3.398032" style="fill: white" /><polygon type="contour" points="6.652095,2.279077 6.680629,2.283396 6.689993,2.287474 6.718299,2.285756 6.743723,2.277843 6.814277,2.293107 6.97851,2.314299 7.139342,2.355011 7.200104,2.378306 7.220824,2.393874 7.225704,2.3938 7.229353,2.396081 7.25018,2.403353 7.280876,2.416194 7.292618,2.42947 7.306999,2.430954 7.329027,2.437845 7.341637,2.447918 7.350189,2.450686 7.408003,2.470665 7.436927,2.470449 7.456545,2.476527 7.470434,2.480552 7.546608,2.509182 7.604022,2.541583 7.722696,2.634399 7.745008,2.647521 7.824717,2.690278 7.86883,2.723686 7.885124,2.738801 7.900489,2.752941 7.912544,2.761307 7.931315,2.799797 7.964962,2.864267 7.971101,2.87752 7.979253,2.905795 7.983134,2.918855 7.990065,2.941545 7.983417,2.970017 7.985404,2.975316 7.977424,2.991646 7.976269,2.993311 7.958888,3.033139 7.970993,3.067175 8.056371,3.213646 8.077004,3.239694 8.093205,3.289334 8.102572,3.301479 8.197354,3.442878 8.305041,3.577654 8.389808,3.69345 8.406259,3.717221 8.413431,3.729784 8.509402,3.884501 8.559307,3.940544 8.570915,3.954209 8.638665,4.097619 8.655012,4.138274 8.673691,4.194955 8.720673,4.33899 8.721171,4.385418 8.713301,4.540702 8.689768,4.650894 8.674575,4.743108 8.623283,4.83486 8.587268,4.90493 8.578893,4.918688 8.555334,4.964963 8.475582,5.083888 8.407058,5.187429 8.370236,5.237537 8.15033,5.540527 8.148361,5.543284 8.062186,5.662773 8.042382,5.717352 8.023529,5.745722 8.000729,5.797491 7.972966,5.83999 7.965295,5.861437 7.95974,5.876778 7.962012,5.904156 7.976323,5.925953 7.990541,5.954746 7.984502,5.98784 7.97433,6.021284 7.959963,6.04291 7.942518,6.086093 7.847114,6.21138 7.807187,6.245093 7.796819,6.25208 7.792579,6.255598 7.767936,6.268738 7.762562,6.270658 7.73823,6.28439 7.69573,6.31786 7.626997,6.358536 7.605364,6.374734 7.592945,6.377554 7.502535,6.425582 7.486744,6.43268 7.473212,6.436794 7.451837,6.432027 7.330973,6.468999 7.281702,6.493022 7.26479,6.501522 7.233625,6.511813 7.210929,6.524921 7.202062,6.525796 7.180184,6.539462 7.158341,6.556465 7.135437,6.564974 7.066786,6.579425 6.996982,6.590586 6.86484,6.620891 6.796289,6.623366 6.762165,6.628957 6.74412,6.632053 6.717191,6.62788 6.69668,6.624269 6.688887,6.628271 6.684154,6.628877 6.657704,6.628646 6.641368,6.634313 6.617969,6.630288 6.600624,6.630707 6.580102,6.619156 6.56789,6.608805 6.501193,6.576191 6.477085,6.499104 6.463307,6.430701 6.31585,6.451397 6.222723,6.459513 6.136115,6.448425 6.131099,6.437017 6.171673,6.360851 6.188217,6.344434 6.263373,6.295333 6.295918,6.275237 6.302694,6.27252 6.310969,6.269746 6.321384,6.268227 6.32337,6.267928 6.332805,6.266509 6.345901,6.264555 6.470999,6.245967 6.495552,6.198166 6.537312,6.138892 6.596205,6.091817 6.628784,6.060104 6.649234,6.038795 6.662341,6.03287 6.66911,6.033375 6.767536,5.995925 6.814424,5.942236 6.897625,5.888926 7.014706,5.810054 7.095293,5.76007 7.194637,5.687094 7.21874,5.667417 7.334703,5.601845 7.435991,5.523096 7.474181,5.487508 7.632334,5.288104 7.633222,5.285238 7.659517,5.254166 7.660416,5.253339 7.669228,5.234826 7.680607,5.187855 7.741902,5.032166 7.750171,5.000864 7.776078,4.975463 7.785551,4.931597 7.782362,4.885119 7.776973,4.865602 7.780043,4.819147 7.796971,4.739455 7.808344,4.702201 7.821035,4.66926 7.827789,4.657954 7.878462,4.549971 7.901587,4.4115 7.809973,4.181667 7.80072,4.168178 7.797003,4.133922 7.792495,4.121708 7.782856,4.077465 7.777612,4.048463 7.782945,4.027396 7.779331,3.981326 7.776409,3.969679 7.757748,3.92092 7.748345,3.907458 7.748954,3.887584 7.69021,3.733107 7.669143,3.672773 7.646226,3.638675 7.59154,3.579275 7.478699,3.42876 7.452787,3.403713 7.266342,3.269019 7.240121,3.249399 7.228258,3.243427 7.222197,3.240144 7.031618,3.111732 6.828721,2.969801 6.80286,2.953987 6.790252,2.937144 6.788031,2.936018 6.77318,2.919217 6.752577,2.913755 6.747994,2.909076 6.721935,2.896437 6.672923,2.886156 6.622827,2.837845 6.590371,2.806048 6.563045,2.799787 6.519249,2.790342 6.503182,2.786876 6.360636,2.756131 6.331393,2.750875 6.316048,2.744938 6.290432,2.73216 6.186766,2.661025 6.140975,2.577815 6.139542,2.571685 6.147736,2.568856 6.23733,2.547779 6.391831,2.564675 6.478509,2.578208 6.468582,2.507222 6.463222,2.486307 6.468769,2.443202 6.473749,2.395628 6.482185,2.3833 6.497102,2.364832 6.498784,2.348364 6.502338,2.339358 6.504457,2.336775 6.510927,2.334018 6.557322,2.316091 6.606713,2.292811 6.639012,2.277417" style="fill: white" /><polygon type="contour" points="3.588745,1.812139 3.593812,1.811931 3.598567,1.811792 3.611483,1.813011 3.678591,1.819575 3.693878,1.831886 3.713814,1.839891 3.747533,1.86183 3.78327,1.902239 3.784952,1.904911 3.805554,1.966212 3.858581,1.942098 3.864776,1.941699 3.869503,1.94299 3.898167,1.948482 3.902085,1.950621 3.915718,1.955024 3.918915,1.956629 3.920366,1.957538 3.949732,2.002316 3.953299,2.006765 3.967042,2.042649 4.019394,2.159785 4.017888,2.208101 4.185523,2.201431 4.191321,2.2012 4.196396,2.200899 4.198107,2.200796 4.328664,2.193036 4.53237,2.193574 4.616805,2.20822 4.641307,2.215775 4.653214,2.237217 4.634196,2.3033 4.624737,2.313357 4.600716,2.327057 4.513039,2.368083 4.297523,2.420211 4.2145,2.431273 4.129591,2.439656 4.083857,2.444172 3.874399,2.457972 3.856584,2.513924 3.85259,2.526467 3.846072,2.552208 3.80365,2.653909 3.80246,2.65731 3.801439,2.658397 3.767308,2.67756 3.751481,2.680467 3.69259,2.693669 3.678016,2.702365 3.638064,2.724512 3.625553,2.732887 3.586844,2.765441 3.509626,2.821702 3.431121,2.903613 3.37384,2.960502 3.351825,2.96839 3.249063,3.010027 3.219787,3.021664 3.033527,3.167287 3.013775,3.186565 2.947262,3.267697 2.802864,3.505187 2.776028,3.554549 2.767136,3.56811 2.742896,3.602553 2.64311,3.72858 2.635628,3.747204 2.610761,3.868744 2.562001,4.120079 2.561026,4.314398 2.561158,4.781256 2.588571,4.946067 2.63133,5.153447 2.65394,5.201104 2.697383,5.251827 2.795125,5.384463 2.901497,5.587583 3.010676,5.717332 3.022756,5.735225 3.04381,5.75119 3.216344,5.885613 3.252434,5.903413 3.374119,5.949222 3.438885,6.021095 3.462552,6.034907 3.484008,6.057824 3.536713,6.117577 3.596396,6.164514 3.660751,6.210437 3.795461,6.251529 3.802005,6.254042 3.802998,6.255497 3.83943,6.339771 3.857159,6.399376 3.879439,6.461403 4.299355,6.509041 4.443523,6.527701 4.496471,6.544142 4.61694,6.592412 4.625353,6.598825 4.634385,6.608389 4.652345,6.67582 4.640875,6.69633 4.617124,6.704058 4.535518,6.718308 4.378931,6.717036 4.209835,6.707468 4.208236,6.707379 4.205403,6.707217 4.147781,6.707969 4.121946,6.708306 4.077857,6.70888 4.030466,6.709499 4.000185,6.804557 3.987264,6.84683 3.98385,6.856327 3.981988,6.860839 3.961574,6.888323 3.918816,6.954114 3.916754,6.955203 3.905473,6.958454 3.894962,6.963424 3.870111,6.968286 3.863962,6.969977 3.85387,6.969573 3.80635,6.946159 3.772345,7.016312 3.757076,7.037776 3.751602,7.04641 3.744049,7.054772 3.684905,7.082185 3.662482,7.099032 3.638847,7.102127 3.601245,7.103999 3.528188,7.104547 3.525349,7.104047 3.504284,7.098518 3.45917,7.087819 3.44453,7.08348 3.427813,7.07759 3.403858,7.058707 3.366469,7.049843 3.278687,7.007264 3.272682,7.00418 3.266926,7.00053 3.239451,6.977663 3.202936,6.962469 3.183487,6.946143 3.147404,6.923426 3.145314,6.922278 3.114243,6.886733 3.095816,6.882651 3.08875,6.872236 3.062047,6.844143 3.032958,6.856256 3.009716,6.862495 2.991968,6.860589 2.941952,6.841601 2.808846,6.764441 2.765008,6.740804 2.762686,6.739903 2.757911,6.736741 2.74997,6.730244 2.591917,6.620712 2.559488,6.614701 2.504349,6.587155 2.473697,6.582086 2.444021,6.563044 2.334537,6.533764 2.239375,6.496064 2.15873,6.474418 2.025803,6.418145 1.986515,6.402439 1.958121,6.38863 1.930982,6.379969 1.916433,6.367233 1.911284,6.364958 1.891215,6.345853 1.868105,6.343867 1.851739,6.343688 1.811014,6.34257 1.801723,6.341979 1.799375,6.341974 1.748032,6.320379 1.742805,6.317212 1.729717,6.301842 1.705851,6.29917 1.689674,6.292611 1.674725,6.291455 1.652406,6.293325 1.640313,6.295898 1.628833,6.294894 1.579383,6.309606 1.569016,6.309571 1.549169,6.315762 1.539563,6.322349 1.531768,6.325827 1.525028,6.328334 1.507765,6.329285 1.486911,6.338134 1.467633,6.339566 1.430312,6.364917 1.428572,6.365933 1.424492,6.368275 1.368459,6.404181 1.347655,6.415687 1.337516,6.425773 1.319595,6.438627 1.289576,6.476937 1.288877,6.478048 1.287422,6.47934 1.244581,6.523065 1.192878,6.599768 1.101111,6.729346 1.086912,6.740912 1.073632,6.767884 1.073713,6.783082 1.045587,6.857821 1.045239,6.85938 1.043526,6.862391 1.033044,6.876604 1.028959,6.894492 1.024144,6.89805 0.977765,6.912546 0.922169,6.922226 0.833004,6.911567 0.798604,6.914249 0.762651,6.879512 0.744496,6.868216 0.700286,6.846389 0.68135,6.80821 0.644277,6.767735 0.615303,6.69095 0.601129,6.679135 0.580867,6.662916 0.580562,6.661103 0.580177,6.636211 0.559345,6.613404 0.552912,6.60757 0.539566,6.582858 0.511925,6.507392 0.4571,6.283689 0.45292,6.253708 0.453442,6.247629 0.451619,6.034556 0.450072,5.893069 0.451455,5.880219 0.455482,5.873121 0.468949,5.843495 0.466736,5.825768 0.468848,5.810371 0.473988,5.764655 0.469232,5.754457 0.458229,5.721592 0.455745,5.711109 0.458063,5.518771 0.461396,5.479068 0.476667,5.452992 0.482528,5.424195 0.480163,5.412248 0.483803,5.396153 0.492664,5.357166 0.51498,5.293922 0.52339,5.282387 0.53041,5.269147 0.536832,5.25852 0.53897,5.233483 0.558594,5.142529 0.561419,5.114943 0.564826,5.098323 0.550924,5.067468 0.548805,5.04765 0.53762,5.036781 0.523882,5.016237 0.421781,4.857256 0.401606,4.798561 0.381452,4.719377 0.365104,4.615992 0.359281,4.587379 0.366238,4.549009 0.39367,4.470219 0.394069,4.441228 0.365942,4.361541 0.362268,4.338732 0.35762,4.322913 0.359635,4.30267 0.36316,4.290997 0.362777,4.273983 0.378125,4.208831 0.392949,4.150277 0.397809,4.132854 0.529149,3.884483 0.545996,3.841377 0.562707,3.8211 0.543677,3.718482 0.535799,3.645529 0.519654,3.627591 0.516126,3.622428 0.495199,3.576286 0.480197,3.480522 0.471651,3.45882 0.461042,3.378817 0.45945,3.368531 0.468263,3.27169 0.466075,3.180473 0.473124,3.159449 0.473817,3.119259 0.473763,3.074208 0.459193,3.047061 0.452624,3.036011 0.449958,3.02289 0.449931,2.836537 0.452885,2.664466 0.452285,2.657562 0.454539,2.642567 0.456946,2.624633 0.566743,2.295753 0.58133,2.271234 0.580092,2.25088 0.580773,2.248743 0.583196,2.246047 0.614849,2.216481 0.626089,2.207781 0.63656,2.18607 0.674712,2.083884 0.699164,2.066739 0.745065,2.044085 0.761519,2.034024 0.79831,1.99794 0.870568,1.986701 0.883918,1.986355 0.910903,1.988897 1.031682,2.022553 1.056877,2.090278 1.057421,2.090515 1.058035,2.092409 1.075183,2.151071 1.082201,2.16551 1.1202,2.210229 1.135614,2.229054 1.148826,2.242957 1.152346,2.247533 1.15507,2.258089 1.204813,2.318044 1.271352,2.405247 1.281763,2.417412 1.292235,2.440747 1.321097,2.474588 1.330379,2.479598 1.339535,2.489848 1.360825,2.503731 1.367374,2.5067 1.429787,2.547141 1.437402,2.551649 1.470415,2.573951 1.486127,2.572995 1.503232,2.580986 1.516162,2.584933 1.530923,2.584504 1.538555,2.588303 1.55437,2.599033 1.570167,2.597519 1.582401,2.605618 1.599781,2.610386 1.617896,2.608357 1.636547,2.616058 1.661318,2.617518 1.679759,2.622174 1.69708,2.613622 1.719581,2.613757 1.745637,2.591464 1.762361,2.582416 1.767711,2.579552 1.770738,2.578745 1.803409,2.569172 1.80661,2.569221 1.834502,2.568544 1.850881,2.567294 1.888217,2.566614 1.925686,2.544191 1.957111,2.530958 2.002823,2.498643 2.045177,2.475165 2.17915,2.428724 2.301208,2.382654 2.320691,2.374011 2.337315,2.368567 2.367497,2.362891 2.403676,2.356978 2.531836,2.316671 2.537136,2.313625 2.600593,2.28362 2.616922,2.283717 2.649433,2.238691 2.6515,2.236093 2.653953,2.233976 2.687848,2.214476 2.72409,2.204262 2.757833,2.174171 2.765378,2.169301 2.845782,2.117068 2.884172,2.088939 2.934088,2.070684 2.966509,2.058061 3.008535,2.050339 3.025669,2.052469 3.057292,2.072475 3.095429,2.032944 3.11592,2.022951 3.131447,2.003655 3.138568,1.996306 3.140163,1.994136 3.148842,1.987389 3.173677,1.969547 3.202757,1.952083 3.207458,1.948665 3.210631,1.947668 3.241131,1.932304 3.269348,1.909189 3.274491,1.905963 3.332744,1.874145 3.347235,1.866615 3.360027,1.864604 3.387887,1.857641 3.405348,1.85493 3.420751,1.83907 3.426902,1.8337 3.471312,1.820139 3.526871,1.809523 3.543444,1.809339" style="fill: white" />
</svg>
