<svg width="13.600213" height="8.910821">
<polygon type="contour" points="3.138451,3.678735 3.36178,3.729336 3.373654,3.735943 3.392702,3.746347 3.410551,3.744261 3.446098,3.765758 3.475926,3.785912 3.521995,3.858203 3.526053,3.865134 3.52937,3.88335 3.532114,3.966157 3.532912,4.016641 3.530011,4.054654 3.52612,4.074792 3.496215,4.15553 3.786976,4.162314 3.829451,4.163581 3.871159,4.164554 4.007209,4.19968 3.993719,4.279114 3.974574,4.291039 3.887084,4.329177 3.864275,4.331455 3.589993,4.357409 3.506277,4.3694 3.493193,4.371101 3.412692,4.330716 3.407631,4.455808 3.413889,4.581768 3.491162,4.540893 3.504335,4.542397 3.54498,4.546831 3.825952,4.575004 3.871107,4.581461 3.896754,4.585907 3.921442,4.598486 3.963816,4.618969 4.001452,4.648571 3.999518,4.727744 3.872077,4.749649 3.681689,4.754819 3.576455,4.753688 3.490653,4.752358 3.526633,4.840641 3.529688,4.862759 3.528818,4.880725 3.514748,5.003503 3.511265,5.062692 3.50074,5.103513 3.454213,5.140762 3.430619,5.164632 3.4247,5.168028 3.398789,5.163996 3.357504,5.188304 3.347456,5.196388 3.337773,5.199225 3.265554,5.216609 3.21647,5.224413 3.197659,5.224788 3.182246,5.226957 3.04017,5.208282 2.995533,5.199762 2.972984,5.182907 2.947071,5.180164 2.917385,5.165957 2.836909,5.121366 2.822282,5.109017 2.807672,5.089671 2.794692,5.051512 2.785363,5.005939 2.782301,4.984598 2.775291,4.954199 2.639182,4.912549 2.56758,4.993612 2.549024,5.054912 2.544492,5.077939 2.503488,5.094376 2.461911,5.116067 2.367026,5.107013 2.353617,5.105933 2.344799,5.098986 2.294116,5.049082 2.233662,5.016216 2.2219,5.013392 2.219131,5.012338 2.087022,4.943754 2.073013,4.934647 2.055034,4.922299 2.052848,4.920068 2.037919,4.895944 2.032937,4.877861 2.026389,4.875338 2.022722,4.867142 2.017978,4.861976 2.020112,4.849214 1.991944,4.820256 1.98089,4.814057 1.873099,4.73846 1.869413,4.732888 1.856247,4.710954 1.847906,4.690762 1.838729,4.652639 1.827717,4.630564 1.81455,4.526589 1.813343,4.453932 1.816345,4.411964 1.813646,4.375613 1.814384,4.345716 1.830179,4.277812 1.847131,4.222568 1.86998,4.178626 1.908356,4.132798 1.969647,4.100814 1.998064,4.090163 2.019735,4.060155 2.017978,4.049646 2.022727,4.044478 2.026558,4.036159 2.032401,4.033976 2.043124,4.006439 2.091837,3.956891 2.201211,3.90697 2.385641,3.794097 2.394999,3.788891 2.399334,3.790893 2.498715,3.799398 2.526835,3.828585 2.541464,3.863042 2.55556,3.87712 2.604995,3.955745 2.639376,4.00535 2.673673,3.984522 2.721504,3.977905 2.741651,3.97399 2.782286,3.9507 2.786621,3.924813 2.794391,3.884024 2.794004,3.875127 2.796344,3.87048 2.800948,3.840566 2.807495,3.822105 2.81904,3.805042 2.830123,3.794648 2.890076,3.757146 2.911379,3.743744 2.915151,3.742218 2.935535,3.736593 2.936989,3.736191 2.939708,3.735549 2.954173,3.732709 2.96846,3.733209 3.010407,3.708678 3.054828,3.70326 3.118081,3.676501 3.126756,3.67562" style="fill: white" />
</svg>
