<svg width="13.600213" height="8.910821">
<polygon type="contour" points="7.95339,3.060286 7.9586,3.062171 7.960638,3.063303 8.046511,3.125772 8.068017,3.128824 8.207631,3.206705 8.243135,3.219644 8.272929,3.239241 8.307182,3.26837 8.342585,3.298233 8.412282,3.355706 8.419054,3.360183 8.425656,3.366322 8.493344,3.429741 8.56483,3.486742 8.57271,3.490713 8.575506,3.493473 8.585768,3.511828 8.630753,3.575129 8.647044,3.624009 8.662056,3.641531 8.666127,3.655976 8.691105,3.703213 8.734338,3.861773 8.745438,3.901889 8.755831,3.949208 8.762705,4.085769 8.76276,4.160099 8.818663,4.342024 8.811738,4.570905 8.811904,4.58491 8.81179,4.594765 8.811719,4.600563 8.802383,4.626365 8.764108,4.755769 8.764528,4.781645 8.75232,4.974049 8.73932,5.019502 8.691449,5.171005 8.64594,5.28607 8.62648,5.329613 8.589909,5.395916 8.546374,5.435751 8.52782,5.460379 8.415537,5.554535 8.40921,5.558941 8.393883,5.574074 8.269258,5.688684 8.222408,5.710204 8.142428,5.731551 8.070752,5.777965 8.04634,5.782882 7.996556,5.817678 7.961646,5.847064 7.957889,5.849745 7.926392,5.860091 7.921707,5.863563 7.910483,5.867154 7.88857,5.868449 7.808626,5.85525 7.801346,5.854 7.794818,5.850615 7.755942,5.822567 7.725779,5.806314 7.711739,5.793707 7.694584,5.744293 7.692648,5.724584 7.695963,5.676065 7.69096,5.606812 7.686898,5.473428 7.680806,5.434209 7.496525,5.39831 7.446317,5.376155 7.396158,5.35242 7.416601,5.322182 7.453135,5.283986 7.492522,5.275792 7.550661,5.269966 7.560754,5.270891 7.663032,5.280274 7.595779,5.076635 7.595721,5.076461 7.595495,5.075748 7.594976,5.07411 7.594602,5.072927 7.594461,5.071396 7.606976,5.0311 7.602436,4.946503 7.60426,4.656774 7.601973,4.629816 7.601971,4.274848 7.60364,4.248714 7.609355,4.000916 7.613405,3.941971 7.61162,3.932074 7.594574,3.837578 7.594573,3.837574 7.594831,3.836708 7.595241,3.835333 7.595566,3.834241 7.597261,3.828784 7.630637,3.721326 7.507809,3.715718 7.472317,3.7138 7.427717,3.667405 7.411124,3.643085 7.438769,3.622957 7.492651,3.597871 7.514278,3.597904 7.536736,3.593524 7.545167,3.591975 7.596741,3.582515 7.670394,3.568769 7.674575,3.512068 7.689498,3.314029 7.690533,3.284626 7.689724,3.246637 7.697294,3.14179 7.711837,3.117788 7.726712,3.104624 7.733036,3.099605 7.796408,3.058873 7.874712,3.044149 7.88323,3.042519" style="fill: white" /><polygon type="contour" points="3.694862,6.455181 3.697495,6.456311 3.702737,6.45856 3.714908,6.463784 3.717729,6.464995 3.700194,6.460812 3.699973,6.460758 3.698453,6.459461 3.696656,6.457928 3.693453,6.454576" style="fill: white" /><polygon type="contour" points="3.802478,2.423246 3.832516,2.428702 3.836,2.427344 3.836801,2.427669 3.844498,2.432909 3.87583,2.45728 3.877167,2.459649 3.888645,2.479981 3.891543,2.485775 3.911953,2.526566 3.933364,2.572688 3.884492,2.487232 3.880359,2.480006 3.869911,2.461733 3.853407,2.448444 3.842109,2.441581 3.815856,2.433861 3.792522,2.435323 3.786009,2.434078 3.763964,2.439392 3.751717,2.442345 3.693486,2.456386 3.698131,2.452162 3.699339,2.451699 3.705342,2.4494 3.739107,2.436471 3.762505,2.42857 3.802247,2.423147" style="fill: white" /><polygon type="contour" points="3.64995,2.497925 3.550098,2.611225 3.747995,2.58875 3.802292,2.579021 3.93799,2.580778 3.93799,2.580777 3.985909,2.581399 3.994756,2.581513 4.048157,2.582204 4.166985,2.577112 4.203244,2.575559 4.295188,2.580325 4.331919,2.582966 4.396665,2.603181 4.402614,2.605772 4.404268,2.609687 4.413082,2.651792 4.406049,2.680935 4.387552,2.716134 4.377582,2.723606 4.308348,2.758509 4.257624,2.761759 4.092342,2.795703 4.063463,2.801634 4.026673,2.80919 4.003902,2.811596 3.97815,2.814317 3.612151,2.852991 3.622417,2.922974 3.624708,2.943496 3.626333,2.986235 3.623462,3.025309 3.602278,3.125384 3.523013,3.275982 3.355707,3.556753 3.339669,3.578735 3.317646,3.603354 3.214898,3.790973 3.149468,3.914746 3.149508,3.929427 3.136122,3.95705 3.131437,3.967982 3.106956,4.039962 3.093618,4.061157 3.056984,4.151572 3.046402,4.191773 3.033934,4.254346 3.031783,4.266707 3.04305,4.327245 3.044928,4.333498 3.051471,4.356047 3.048886,4.376333 3.052682,4.395305 3.06902,4.424108 3.06752,4.435969 3.076053,4.466898 3.078038,4.470225 3.055824,4.499684 3.050782,4.561155 3.049877,4.562644 3.045398,4.577525 3.032554,4.633759 3.036976,4.662866 3.041224,4.677599 3.044246,4.735868 3.109123,4.876647 3.111892,4.882767 3.155421,5.016978 3.168097,5.044688 3.200439,5.095784 3.302885,5.282662 3.443306,5.481459 3.483419,5.572461 3.524201,5.641687 3.595754,5.777786 3.62423,5.849171 3.621706,5.938861 3.625123,5.986436 3.62384,5.994621 3.605589,6.0564 3.810743,6.080475 4.050083,6.110669 4.141322,6.125309 4.17392,6.13054 4.200984,6.134382 4.237005,6.139493 4.254467,6.141972 4.27782,6.147297 4.286251,6.14922 4.394031,6.20076 4.396479,6.202228 4.397223,6.20446 4.415429,6.25772 4.404881,6.302269 4.403532,6.305318 4.399323,6.307154 4.333621,6.32811 4.297355,6.330068 3.942498,6.31611 3.917051,6.394077 3.900118,6.422133 3.883581,6.444578 3.882646,6.445849 3.87826,6.451802 3.875057,6.456148 3.837939,6.483384 3.825677,6.484935 3.804057,6.487605 3.800682,6.487759 3.785087,6.485466 3.748438,6.473983 3.732545,6.469003 3.733636,6.46925 3.754377,6.473941 3.778168,6.479322 3.796121,6.478676 3.81572,6.479862 3.838264,6.472973 3.853134,6.463897 3.868503,6.451392 3.876076,6.440874 3.893903,6.410809 3.898943,6.402309 3.901926,6.39335 3.902851,6.390788 3.936876,6.304683 3.73124,6.332109 3.731205,6.332114 3.731001,6.332142 3.730713,6.332068 3.566137,6.289787 3.640369,6.410283 3.644174,6.413119 3.637144,6.409417 3.625747,6.403417 3.618106,6.397496 3.609123,6.394886 3.597399,6.388881 3.523177,6.352969 3.504973,6.343276 3.496191,6.33728 3.492697,6.333956 3.476413,6.318067 3.456978,6.313349 3.445489,6.306297 3.37205,6.256885 3.324322,6.225731 3.284472,6.194503 3.272575,6.183385 3.263861,6.177183 3.243825,6.143954 3.183642,6.09433 3.181388,6.091912 3.175885,6.086384 3.17385,6.083194 2.987976,5.912257 2.960649,5.869538 2.923129,5.870623 2.857965,5.840964 2.837978,5.833394 2.805073,5.827046 2.786787,5.822657 2.772748,5.8159 2.731089,5.813529 2.720919,5.812006 2.71889,5.810758 2.696966,5.795237 2.677259,5.788594 2.640655,5.778127 2.577499,5.777876 2.567756,5.778036 2.56745,5.777752 2.567097,5.777722 2.56673,5.777214 2.547195,5.758785 2.536477,5.751998 2.516234,5.731595 2.504917,5.711503 2.459801,5.708908 2.431897,5.722506 2.409459,5.729037 2.315383,5.755375 2.27046,5.76345 2.193792,5.755359 2.18336,5.751456 2.146972,5.728724 2.045369,5.662067 2.039514,5.657476 1.987463,5.622867 1.813742,5.557497 1.806701,5.554985 1.794333,5.550751 1.775145,5.543666 1.750535,5.537708 1.744226,5.538656 1.684765,5.526813 1.637189,5.532481 1.633234,5.532661 1.601958,5.540994 1.542524,5.534066 1.492151,5.53857 1.45914,5.530831 1.427472,5.529731 1.410117,5.526225 1.383016,5.517768 1.372381,5.506136 1.337198,5.482334 1.332458,5.424379 1.295166,5.400505 1.229702,5.339538 1.159998,5.26665 1.070299,5.20453 1.059192,5.195562 1.053986,5.190678 1.033276,5.167471 1.015957,5.143856 1.004854,5.130092 1.000588,5.121701 0.965926,5.040341 0.923251,4.925551 0.910914,4.888226 0.717975,4.755344 0.691299,4.718498 0.677351,4.679203 0.64187,4.600766 0.633944,4.564187 0.632691,4.550892 0.632721,4.407013 0.632839,4.368191 0.659571,4.274459 0.666299,4.248103 0.68924,4.197891 0.707997,4.165523 0.724169,4.150605 0.741585,4.137081 0.744564,4.135151 0.888964,4.043334 0.916053,4.030778 0.935362,3.994435 0.940487,3.965357 0.96876,3.865164 0.977755,3.844643 0.988082,3.824077 1.05381,3.722067 1.06042,3.715641 1.074644,3.704056 1.159696,3.645172 1.191111,3.6151 1.253004,3.56189 1.314099,3.497542 1.324774,3.483804 1.32845,3.453132 1.338437,3.437189 1.34869,3.431342 1.363295,3.416147 1.382658,3.393991 1.391488,3.39017 1.404113,3.387263 1.424112,3.382447 1.440281,3.380672 1.464163,3.381852 1.501059,3.37315 1.576619,3.386846 1.647555,3.384462 1.683892,3.384574 1.699928,3.382846 1.745357,3.373353 1.754299,3.373381 1.779538,3.366843 1.783987,3.365218 1.828903,3.347827 1.972086,3.31096 1.998395,3.274132 2.082638,3.233673 2.108454,3.197271 2.139092,3.177568 2.14333,3.175981 2.242018,3.151036 2.252136,3.14783 2.290641,3.149296 2.344451,3.169272 2.430815,3.19843 2.446101,3.198985 2.459602,3.196266 2.50567,3.219852 2.528135,3.17074 2.53679,3.160134 2.551688,3.151085 2.560718,3.137064 2.563547,3.134526 2.564959,3.133732 2.615938,3.131109 2.649325,3.125852 2.694459,3.116598 2.720703,3.101658 2.724164,3.10186 2.771332,3.096014 2.777636,3.092125 2.826432,3.080994 2.924744,3.03993 2.952156,3.040978 2.981417,3.020501 3.042209,2.941421 3.12264,2.875621 3.169002,2.833878 3.193257,2.807694 3.244299,2.765708 3.262494,2.736375 3.267963,2.732404 3.277942,2.721104 3.28251,2.717027 3.284523,2.7153 3.319952,2.687952 3.331536,2.679456 3.363724,2.656185 3.369514,2.653882 3.384571,2.641331 3.406535,2.626647 3.418268,2.620317 3.437374,2.609505 3.465932,2.595159 3.478485,2.591536 3.487851,2.581899 3.500757,2.573848 3.550773,2.540765 3.568869,2.532291 3.621357,2.509577 3.641512,2.501166 3.658748,2.491583" style="fill: white" />
</svg>
