<svg width="13.600213" height="8.910821">
<polygon type="contour" points="5.768382,0.656765 5.806723,0.694878 5.811694,0.699468 5.813882,0.706644 5.847643,0.777479 5.897126,0.8209 5.91039,0.82351 5.925648,0.836178 5.951427,0.853893 5.964909,0.878672 5.971933,0.895739 6.092532,1.189342 6.097288,1.200619 6.136101,1.270399 6.154132,1.294223 6.189348,1.335573 6.201329,1.369075 6.278036,1.382209 6.327981,1.392782 6.409669,1.439298 6.458351,1.472816 6.479147,1.485635 6.542058,1.538408 6.566579,1.560098 6.576321,1.572601 6.612784,1.60464 6.618059,1.611237 6.677894,1.672803 6.72575,1.728275 6.780861,1.783636 6.799026,1.814393 6.831448,1.840183 6.864506,1.846043 6.873063,1.848979 6.8761,1.851222 6.896783,1.856072 6.910502,1.867234 6.935075,1.874505 6.978172,1.869136 7.01266,1.881326 7.033015,1.880042 7.044906,1.887388 7.056561,1.898293 7.100257,1.938576 7.118274,1.957347 7.13245,1.974978 7.151696,1.997032 7.164086,2.01191 7.164405,2.02447 7.173153,2.032602 7.175448,2.042081 7.219152,2.07901 7.220773,2.080104 7.229041,2.089436 7.260512,2.124504 7.270436,2.140348 7.282313,2.156817 7.282784,2.157256 7.294896,2.17336 7.306484,2.181437 7.331558,2.198309 7.463083,2.271933 7.600967,2.341686 7.631317,2.358524 7.686622,2.425393 7.689781,2.428518 7.705118,2.447718 7.743818,2.483919 7.783882,2.518424 7.790541,2.523909 7.925324,2.615467 7.960023,2.652244 8.032531,2.697749 8.046101,2.707792 8.051981,2.712069 8.070414,2.725784 8.083605,2.734343 8.125591,2.761671 8.134153,2.766561 8.150639,2.775355 8.169659,2.790933 8.199945,2.820465 8.217932,2.837606 8.238997,2.855117 8.26243,2.878007 8.295765,2.894876 8.462812,3.035246 8.64218,3.083932 8.651081,3.08655 8.68362,3.10294 8.706878,3.117961 8.726583,3.128342 8.776523,3.163502 8.780228,3.16698 8.806725,3.198736 8.8152,3.209055 8.823324,3.226984 8.845678,3.242819 8.90822,3.289459 8.955824,3.332168 8.97101,3.342525 9.006876,3.365245 9.103296,3.430178 9.121468,3.445318 9.211845,3.517316 9.220252,3.521899 9.330539,3.61382 9.408358,3.669451 9.424379,3.675798 9.448025,3.688172 9.459771,3.69604 9.502917,3.727704 9.525359,3.747974 9.538784,3.76881 9.570532,3.77822 9.59536,3.80163 9.616012,3.847491 9.700478,3.976856 9.70809,3.992264 9.718892,4.035567 9.752681,4.079466 9.754085,4.081178 9.805316,4.212975 9.845012,4.319264 9.864958,4.385873 9.866195,4.396843 9.866804,4.481482 9.866682,4.520186 9.854174,4.567627 9.801359,4.709646 9.755026,4.828553 9.754053,4.830459 9.75295,4.83251 9.719555,4.875842 9.70764,4.921628 9.703325,4.930931 9.701816,4.933529 9.685688,4.952827 9.641349,5.002622 9.623832,5.051556 9.55543,5.135627 9.525646,5.154294 9.49143,5.180983 9.438785,5.231515 9.350253,5.293208 9.290572,5.328327 9.204243,5.402055 9.203201,5.402916 9.100609,5.478517 9.002663,5.549207 8.953578,5.583234 8.927251,5.607936 8.861561,5.660066 8.816619,5.692815 8.808385,5.709289 8.778345,5.746169 8.778189,5.746589 8.777802,5.746863 8.692647,5.802932 8.606938,5.84255 8.599436,5.84654 8.596831,5.847047 8.587924,5.850012 8.46949,5.874922 8.43085,5.906461 8.393695,5.923254 8.370018,5.936218 8.350262,5.956492 8.343021,5.95931 8.305051,5.993535 8.290164,6.00446 8.287685,6.014811 8.238075,6.057882 8.129151,6.147185 8.128385,6.147995 8.126202,6.149085 8.028692,6.211817 8.002759,6.225984 7.99524,6.231788 7.974767,6.247477 7.89992,6.316112 7.814623,6.36823 7.802165,6.378218 7.729937,6.433085 7.720609,6.440372 7.707507,6.460082 7.704462,6.467837 7.701505,6.47163 7.681945,6.491771 7.657191,6.510267 7.63958,6.5363 7.610223,6.567967 7.582527,6.585101 7.511143,6.619163 7.404311,6.668124 7.32358,6.72292 7.245789,6.794666 7.214378,6.837309 7.170268,6.874057 7.163403,6.892536 7.161596,6.905561 7.127844,6.942154 7.068568,7.003357 7.043586,7.027541 7.038516,7.031193 7.035343,7.032843 7.018789,7.037073 6.999794,7.041632 6.97707,7.044248 6.948855,7.03994 6.919978,7.036938 6.897699,7.053354 6.886207,7.062807 6.88168,7.062557 6.821254,7.076661 6.803881,7.096919 6.597086,7.321948 6.582779,7.33185 6.525005,7.393221 6.509857,7.409984 6.504148,7.415616 6.497252,7.420227 6.422382,7.468722 6.347984,7.516571 6.342588,7.519459 6.334293,7.522977 6.282598,7.530562 6.276445,7.52984 6.235825,7.537489 6.201028,7.543821 6.182162,7.597036 6.150066,7.639059 6.107707,7.672642 5.98925,7.987184 5.973205,8.017331 5.965761,8.030179 5.951963,8.056635 5.934264,8.07077 5.908174,8.08793 5.895467,8.092221 5.849854,8.131549 5.813199,8.205965 5.811301,8.212428 5.806577,8.216816 5.751996,8.279259 5.694242,8.274213 5.621663,8.259112 5.519408,8.201935 5.515684,8.200067 5.513999,8.198101 5.512868,8.19719 5.51157,8.194932 5.484645,8.166955 5.472196,8.163569 5.463323,8.160188 5.437697,8.148765 5.38744,8.112549 5.346594,8.078005 5.33971,8.041702 5.319178,8.027349 5.277007,7.997811 5.27108,7.983511 5.246549,7.951541 5.225543,7.916154 5.198604,7.905131 5.1706,7.907172 5.054531,7.878329 4.874185,7.845382 4.640676,7.820605 4.571131,7.822219 4.538054,7.810193 4.522364,7.807254 4.493033,7.803313 4.391768,7.813404 4.39046,7.814128 4.236643,7.832347 4.205284,7.831536 4.134547,7.828126 4.093448,7.81643 4.080451,7.809958 4.06216,7.794055 4.029532,7.77095 3.995204,7.756643 3.984212,7.74949 3.951195,7.727299 3.943076,7.725622 3.896316,7.708711 3.857623,7.675438 3.838003,7.686733 3.790537,7.679638 3.716586,7.662698 3.702445,7.679195 3.679189,7.67531 3.65941,7.670865 3.655375,7.668623 3.643835,7.663181 3.62076,7.653446 3.579415,7.648332 3.537554,7.639204 3.519423,7.631396 3.515913,7.629198 3.502659,7.617822 3.492637,7.596721 3.467246,7.580712 3.460364,7.57426 3.441719,7.554595 3.394866,7.530871 3.389718,7.531656 3.342512,7.501495 3.315853,7.475803 3.306895,7.461859 3.260899,7.411686 3.240103,7.38175 3.2058,7.327865 3.171192,7.300721 3.161059,7.294713 3.151888,7.290646 3.132342,7.286006 3.11774,7.26682 3.097261,7.258452 3.0818,7.25568 3.062577,7.251343 2.994205,7.241404 2.958045,7.236411 2.937081,7.227464 2.922018,7.231229 2.90358,7.23074 2.888846,7.243294 2.880775,7.246288 2.871797,7.245068 2.826084,7.267011 2.816584,7.280187 2.791888,7.303943 2.772778,7.325775 2.748737,7.327001 2.725115,7.336582 2.711662,7.349273 2.701014,7.360612 2.696407,7.364433 2.675741,7.37898 2.612389,7.400113 2.598367,7.400405 2.532214,7.405296 2.309148,7.452483 2.304555,7.454402 2.295728,7.456748 2.269294,7.453663 2.230126,7.448303 2.20938,7.438979 2.192766,7.429382 2.142539,7.430938 2.078585,7.368543 2.007514,7.295687 1.983803,7.262114 1.927505,7.216311 1.854787,7.196534 1.84894,7.195006 1.795156,7.182272 1.754368,7.181084 1.743658,7.193289 1.73214,7.188015 1.669137,7.277382 1.603764,7.315174 1.599294,7.313952 1.573925,7.32508 1.550765,7.328731 1.545824,7.325245 1.52482,7.327441 1.471792,7.327351 1.411102,7.328824 1.368601,7.320866 1.347569,7.316782 1.332881,7.310559 1.324735,7.303053 1.272932,7.287293 1.233853,7.262951 1.185274,7.215818 1.153391,7.194354 1.13324,7.18571 1.102521,7.166364 1.090923,7.152856 0.969581,7.002215 0.946605,6.965478 0.941115,6.959924 0.92587,6.922372 0.89325,6.856158 0.870668,6.792668 0.838123,6.6591 0.826323,6.625872 0.791284,6.529171 0.789103,6.47019 0.743242,6.283481 0.7274,6.183279 0.713947,6.109803 0.676635,5.971576 0.637999,5.798566 0.619075,5.749213 0.609946,5.670031 0.606869,5.633476 0.578695,5.540971 0.573373,5.528157 0.555583,5.508466 0.531601,5.360303 0.518042,5.124998 0.527392,5.092444 0.519345,5.071381 0.510087,5.00759 0.505048,4.957719 0.490036,4.92232 0.489824,4.892766 0.473279,4.762215 0.479744,4.735466 0.493824,4.657265 0.505933,4.531902 0.50604,4.498473 0.509526,4.388334 0.508024,4.378926 0.485068,4.223879 0.477416,4.160401 0.476687,4.083897 0.483635,4.051291 0.500988,3.954328 0.505931,3.945283 0.506652,3.92095 0.511361,3.892574 0.514082,3.878291 0.523094,3.805935 0.515415,3.789718 0.51573,3.713341 0.530113,3.53918 0.545595,3.443048 0.551501,3.416987 0.556984,3.400397 0.575292,3.380788 0.586983,3.332656 0.586932,3.329011 0.595711,3.292118 0.631259,3.119002 0.641561,3.062935 0.654691,3.01073 0.679283,2.931435 0.703312,2.883031 0.706076,2.869213 0.708958,2.862425 0.739312,2.649159 0.768561,2.542791 0.783102,2.451827 0.817016,2.321638 0.820937,2.299181 0.827439,2.278069 0.856831,2.168678 0.891306,2.057994 0.923998,1.992629 0.945934,1.945296 0.990237,1.881404 1.057664,1.791523 1.085735,1.762774 1.094869,1.753637 1.136402,1.724849 1.158575,1.715869 1.183082,1.697899 1.193611,1.683986 1.234368,1.647634 1.243509,1.643131 1.252041,1.638199 1.277349,1.625895 1.311338,1.612188 1.340509,1.599062 1.37537,1.589136 1.415169,1.581804 1.431421,1.582228 1.442402,1.581609 1.473057,1.583015 1.513446,1.580823 1.549644,1.603003 1.638676,1.619699 1.670655,1.634535 1.706458,1.68831 1.730932,1.728236 1.773186,1.735039 1.793317,1.7369 1.823096,1.726198 1.931092,1.684382 1.972982,1.6657 1.9777,1.657545 1.986369,1.652167 2.102231,1.53308 2.123309,1.500347 2.13259,1.488948 2.136268,1.486892 2.158,1.477826 2.170551,1.4773 2.194527,1.480312 2.213236,1.47027 2.227651,1.462695 2.241071,1.46149 2.259824,1.460933 2.311833,1.459951 2.328122,1.457214 2.352491,1.461836 2.372767,1.465581 2.46639,1.488781 2.495069,1.492683 2.523477,1.508565 2.569617,1.510724 2.57583,1.512068 2.602567,1.512416 2.63786,1.515346 2.673985,1.531759 2.69523,1.544495 2.717352,1.567682 2.77025,1.580604 2.813407,1.627402 2.823354,1.642556 2.858147,1.663034 2.882918,1.663475 2.883958,1.66316 2.903066,1.680383 2.93625,1.683992 2.995961,1.669942 3.071527,1.658599 3.086498,1.655128 3.100163,1.652386 3.11734,1.644647 3.135479,1.627582 3.150795,1.623308 3.167688,1.614732 3.21959,1.568571 3.220265,1.559116 3.225574,1.550959 3.238452,1.528008 3.253519,1.516448 3.272702,1.484608 3.329081,1.423109 3.343102,1.410502 3.389198,1.380509 3.393791,1.379781 3.426123,1.365683 3.440196,1.358752 3.456974,1.340624 3.465962,1.332698 3.477528,1.326432 3.496116,1.306455 3.507714,1.287159 3.519225,1.277449 3.595577,1.258354 3.639116,1.250426 3.660456,1.242687 3.668799,1.238724 3.682167,1.235628 3.700975,1.231462 3.732691,1.233625 3.82423,1.2334 3.86023,1.223614 3.872565,1.216935 3.920735,1.194077 3.95722,1.181802 3.994127,1.157537 4.031163,1.142439 4.037357,1.131997 4.083398,1.098861 4.103172,1.091906 4.133659,1.085274 4.140897,1.085694 4.184091,1.077561 4.227057,1.073467 4.337671,1.091453 4.352529,1.095196 4.369269,1.09861 4.376797,1.098329 4.388607,1.099925 4.426327,1.100118 4.433369,1.102014 4.568059,1.094835 4.575857,1.094163 4.597851,1.0863 4.652745,1.087639 4.812623,1.07776 5.07788,1.037683 5.156912,1.011691 5.234046,0.992194 5.272672,0.936411 5.275501,0.914195 5.297425,0.895982 5.346763,0.862337 5.34643,0.834255 5.422134,0.771811 5.440624,0.756364 5.481537,0.74551 5.576641,0.672187 5.603966,0.659382 5.653953,0.635945 5.686364,0.633018 5.752,0.632325" style="fill: white" /><polygon type="hole" points="5.207966,2.928534 5.083968,2.937733 4.984379,2.976063 4.852638,3.009996 4.725091,3.115078 4.635567,3.169033 4.609103,3.205969 4.527809,3.366418 4.522165,3.431879 4.510355,3.523719 4.515589,3.607716 4.518753,3.708645 4.578068,3.827407 4.578987,3.833027 4.6923,4.018781 4.721462,4.095058 4.725572,4.113388 4.709671,4.310329 4.718487,4.601462 4.727396,4.725164 4.726143,4.804291 4.725442,4.810034 4.721432,4.821137 4.660885,4.952293 4.595909,5.028838 4.553916,5.151933 4.534276,5.18412 4.518678,5.241885 4.509806,5.31441 4.517035,5.386268 4.517277,5.460259 4.536295,5.545886 4.562633,5.622231 4.597423,5.687371 4.663665,5.765551 4.714746,5.821074 4.774714,5.85666 4.870787,5.908514 4.928038,5.942014 4.963083,5.94868 5.165397,5.988137 5.26697,5.988669 5.415226,5.977716 5.552414,5.953339 5.653798,5.939789 5.755775,5.90795 5.83833,5.87395 5.946227,5.783601 6.010725,5.743805 6.027453,5.726692 6.095671,5.690372 6.18115,5.66168 6.205427,5.644246 6.21515,5.64004 6.288536,5.579468 6.325268,5.559426 6.3927,5.527443 6.462836,5.476019 6.502223,5.400292 6.58515,5.248321 6.702242,5.044734 6.711901,5.030584 6.716385,5.024778 6.804237,4.849115 6.809553,4.815283 6.835261,4.68108 6.814423,4.572888 6.826895,4.33145 6.8264,4.322808 6.826385,4.316684 6.826966,4.311124 6.839838,4.189502 6.838496,4.177269 6.772111,3.985371 6.759096,3.95211 6.739501,3.924654 6.62261,3.715882 6.60205,3.685674 6.584946,3.646206 6.502166,3.4882 6.447662,3.42731 6.414574,3.407839 6.318049,3.340804 6.304354,3.340957 6.287471,3.319955 6.262985,3.310502 6.257618,3.30966 6.237286,3.282358 6.226466,3.285071 6.21531,3.27569 6.173143,3.249766 6.12562,3.238454 5.967709,3.15651 5.931597,3.124071 5.883377,3.078516 5.769829,3.013559 5.708591,2.990109 5.676142,2.979693 5.573691,2.95324 5.468639,2.936939 5.370826,2.92659" style="fill: black" />
</svg>
