<svg width="13.600213" height="8.910821">
<polygon type="contour" points="3.317222,3.834158 3.328386,3.839836 3.372654,3.877616 3.40582,3.88931 3.415273,3.89547 3.42601,3.903605 3.434531,3.914254 3.444977,3.928593 3.450642,3.960353 3.456053,3.975275 3.501412,4.027554 3.512164,4.043877 3.516398,4.04634 3.542229,4.078022 3.549904,4.110476 3.57117,4.247386 3.573814,4.28796 3.573542,4.290405 3.573478,4.290972 3.569809,4.323824 3.569587,4.324472 3.529014,4.366345 3.526699,4.391982 3.527087,4.520639 3.531977,4.544361 3.546272,4.561983 3.568921,4.589888 3.57034,4.591637 3.570541,4.591885 3.570602,4.59196 3.570841,4.593484 3.57022,4.617721 3.563888,4.667589 3.547565,4.777722 3.541168,4.831871 3.522799,4.85065 3.496244,4.892825 3.452529,4.943642 3.447175,4.974439 3.421688,5.006629 3.390299,5.032323 3.353849,5.069921 3.335545,5.073258 3.31845,5.079883 3.306884,5.074962 3.272937,5.055761 3.241117,5.048564 3.234846,5.050444 3.199988,5.051136 3.181705,5.053709 3.144247,5.059191 3.105163,5.048741 3.091005,5.052236 3.074735,5.046233 2.973256,5.013749 2.911238,4.979008 2.895371,4.96093 2.857033,4.970746 2.82706,4.974451 2.812878,4.969075 2.795546,4.975859 2.790835,4.975308 2.650534,4.94269 2.630105,4.935002 2.615512,4.939562 2.571934,4.945622 2.55612,4.944758 2.506528,4.954524 2.4871,4.962481 2.368926,4.946587 2.347443,4.90411 2.318929,4.901679 2.266692,4.88628 2.242923,4.899031 2.228125,4.897537 2.209975,4.882514 2.185565,4.881835 2.170165,4.878925 2.165799,4.877419 2.097303,4.809721 2.055831,4.72696 2.031293,4.68445 2.017375,4.65306 2.016174,4.64655 2.013002,4.639146 2.011682,4.61342 2.017664,4.600163 2.031679,4.578131 2.0394,4.56187 2.04532,4.524834 2.045049,4.51413 2.045716,4.369115 2.03525,4.349571 2.025075,4.323581 2.011181,4.297988 2.012451,4.272154 2.014939,4.266795 2.017734,4.257992 2.075807,4.145415 2.122534,4.088872 2.170235,4.032552 2.179262,4.030996 2.204426,4.031003 2.2178,4.016012 2.231491,4.016843 2.242316,4.012641 2.272911,4.026889 2.330731,4.01513 2.353419,3.971343 2.472831,3.964118 2.507779,3.95073 2.535877,3.959797 2.557968,3.961665 2.596487,3.96616 2.622181,3.976784 2.657391,3.984444 2.675979,3.977056 2.784203,3.939325 2.787942,3.939874 2.805983,3.939561 2.826099,3.94766 2.906701,3.939956 2.930475,3.930237 2.93377,3.924672 3.195631,3.854416 3.200649,3.852737 3.201327,3.85272 3.202091,3.852549 3.262437,3.856015 3.28661,3.844267 3.314146,3.833632" style="fill: white" />
</svg>
