<svg width="13.600213" height="8.910821">
<polygon type="contour" points="5.656441,1.774483 5.723834,1.777509 5.884782,1.789916 5.904901,1.793931 5.963342,1.81313 6.010467,1.816254 6.037044,1.824435 6.051645,1.823338 6.077566,1.823928 6.119118,1.830105 6.172959,1.840008 6.201805,1.840665 6.21686,1.845084 6.244639,1.848608 6.26255,1.856389 6.310444,1.868621 6.345712,1.875622 6.380229,1.880458 6.487201,1.913535 6.496759,1.917175 6.545902,1.914303 6.574462,1.912554 6.620943,1.908914 6.623184,1.907872 6.684809,1.918599 6.712103,1.918139 6.725209,1.921766 6.788554,1.937605 6.826157,1.930583 6.896752,1.939006 6.971665,1.959009 7.098863,1.980217 7.190541,2.013921 7.272896,2.018874 7.29045,2.020904 7.500926,1.984807 7.554616,1.972623 7.584708,2.005914 7.609964,2.021397 7.640694,2.030678 7.653092,2.047332 7.702619,2.038683 7.840092,2.041405 7.976927,2.078486 8.021236,2.095086 8.039292,2.110088 8.053208,2.119146 8.074073,2.150662 8.083777,2.161903 8.109888,2.198478 8.157916,2.266001 8.183742,2.285004 8.190831,2.297291 8.227338,2.331736 8.251124,2.348721 8.31658,2.413952 8.36698,2.453968 8.399379,2.476717 8.438925,2.514673 8.454947,2.528273 8.495795,2.531439 8.526766,2.542157 8.627301,2.57434 8.636036,2.578888 8.641613,2.581003 8.668078,2.614577 8.680508,2.62891 8.69912,2.652586 8.728353,2.655871 8.75578,2.670469 8.789978,2.674808 8.803102,2.677443 8.807356,2.677104 8.813886,2.67812 8.82916,2.682494 8.836068,2.687264 8.86848,2.69619 8.956488,2.71414 8.992851,2.710488 9.007155,2.715465 9.047498,2.731322 9.08811,2.73816 9.114745,2.741162 9.149746,2.748321 9.177152,2.754337 9.198624,2.758807 9.235059,2.766842 9.369036,2.801489 9.389045,2.806949 9.394905,2.80925 9.475712,2.84822 9.481521,2.849424 9.489651,2.857635 9.522604,2.877111 9.578389,2.916236 9.681836,3.003873 9.749752,3.085981 9.770831,3.142524 9.788983,3.170184 9.82188,3.21473 9.826855,3.220851 9.885083,3.292215 10.02633,3.431236 10.069673,3.46162 10.073159,3.464845 10.082976,3.471973 10.091697,3.480456 10.099342,3.484336 10.149851,3.509307 10.164236,3.517784 10.172917,3.518721 10.219576,3.542558 10.242606,3.548535 10.248321,3.546737 10.260041,3.552011 10.282027,3.551113 10.288542,3.553804 10.314582,3.565431 10.323188,3.569133 10.329151,3.572751 10.352606,3.582036 10.378325,3.581204 10.387701,3.58778 10.413546,3.585891 10.414243,3.586296 10.439323,3.595539 10.461725,3.608756 10.466955,3.610298 10.48694,3.620059 10.492308,3.621469 10.515318,3.642533 10.522652,3.646238 10.537438,3.660339 10.556681,3.67243 10.599423,3.696922 10.643375,3.740031 10.650822,3.745685 10.652113,3.746409 10.654345,3.748498 10.671011,3.761328 10.671672,3.761777 10.671765,3.76191 10.720072,3.79959 10.861677,3.924572 10.876067,3.936365 10.895844,3.95069 10.903609,3.955407 10.906687,3.960845 10.952802,4.003528 10.979973,4.050752 10.985137,4.07933 10.978567,4.119555 10.990983,4.175241 10.999119,4.209708 11.0067,4.22881 11.01365,4.244432 11.013899,4.257572 11.012112,4.277243 11.009023,4.375945 11.014205,4.392683 11.014532,4.428912 11.01685,4.50453 11.011144,4.527391 11.017041,4.617401 11.020601,4.654664 11.006007,4.689673 10.982363,4.778774 10.975025,4.814133 10.986417,4.824891 10.985219,4.839254 10.981135,4.857381 10.953174,4.909374 10.848985,5.000733 10.832498,5.02069 10.771016,5.075629 10.757647,5.084915 10.649083,5.167256 10.629614,5.193643 10.586364,5.219691 10.538936,5.244447 10.523495,5.260144 10.51109,5.270608 10.474279,5.290938 10.447565,5.311829 10.442745,5.31449 10.413551,5.325727 10.384508,5.323325 10.377401,5.328406 10.361028,5.326443 10.2905,5.359739 10.266343,5.362259 10.212433,5.374114 10.135799,5.410511 10.111978,5.419002 10.089638,5.431716 10.082977,5.437743 10.067964,5.452666 10.036183,5.471571 9.933501,5.562769 9.86531,5.638626 9.791172,5.736988 9.765778,5.774352 9.709671,5.878798 9.556571,6.010182 9.495292,6.057282 9.36291,6.119801 9.327212,6.12928 9.177207,6.157403 9.070099,6.179541 9.026185,6.188719 8.984463,6.205307 8.950178,6.202705 8.927247,6.199505 8.892164,6.211754 8.874301,6.216923 8.780635,6.237975 8.775075,6.237909 8.768022,6.240092 8.756565,6.2414 8.709908,6.259215 8.667376,6.286518 8.63502,6.333468 8.593293,6.352037 8.5805,6.358734 8.572081,6.363917 8.526147,6.369597 8.494217,6.38083 8.487328,6.380795 8.457665,6.385263 8.438753,6.396781 8.399048,6.435358 8.375763,6.452668 8.308194,6.509696 8.298463,6.513977 8.285883,6.523141 8.194863,6.622056 8.164958,6.640945 8.155189,6.654576 8.141444,6.670077 8.078813,6.767158 8.077695,6.768756 8.077604,6.768882 8.077525,6.768947 8.028637,6.809548 7.894018,6.849568 7.865668,6.859627 7.848755,6.865335 7.837126,6.869331 7.652254,6.862428 7.62498,6.888738 7.617198,6.890581 7.581837,6.908782 7.555752,6.939535 7.527074,6.93064 7.364078,6.894072 7.325171,6.891331 7.264089,6.885288 7.242807,6.886719 7.158329,6.918738 6.961544,6.956 6.887783,6.972327 6.637669,7.002957 6.623931,7.004264 6.619452,7.001388 6.590737,6.999302 6.534516,7.000355 6.51797,6.993934 6.496667,6.994634 6.476929,6.992718 6.449952,7.011361 6.383221,7.030456 6.368397,7.035697 6.364939,7.035263 6.318166,7.047805 6.243456,7.06266 6.236997,7.065739 6.195531,7.07238 6.082778,7.089976 6.06598,7.091151 6.047629,7.091424 6.032815,7.091548 6.019791,7.092053 6.00018,7.099913 5.958713,7.099718 5.900093,7.118643 5.883684,7.122033 5.732016,7.127622 5.581829,7.133352 5.494237,7.126181 5.44944,7.133297 5.426069,7.132965 5.385482,7.094207 5.370011,7.096774 5.356233,7.091282 5.27831,7.102432 5.270252,7.099749 5.249685,7.104399 5.175287,7.100214 5.140655,7.093882 5.122246,7.093474 5.097361,7.085688 5.058064,7.079708 5.051129,7.076184 5.034968,7.076635 5.027522,7.075146 5.025715,7.07574 5.00408,7.070769 4.971705,7.070567 4.877886,7.068941 4.856367,7.064426 4.839881,7.071389 4.831861,7.067873 4.794224,7.069462 4.786144,7.068744 4.779403,7.067253 4.771595,7.066006 4.752806,7.054948 4.728554,7.051571 4.711852,7.051536 4.678898,7.06121 4.675082,7.060607 4.621588,7.055343 4.558231,7.044085 4.510341,7.039351 4.486438,7.035573 4.458394,7.038267 4.319369,7.025146 4.054474,6.977971 4.047224,6.977772 4.042313,6.975644 4.032421,6.971559 3.885887,6.907835 3.837013,6.895925 3.749476,6.878772 3.713387,6.86384 3.695931,6.849595 3.674261,6.857861 3.626963,6.853343 3.602662,6.845041 3.454515,6.813197 3.331214,6.787027 3.269347,6.765044 3.220303,6.760456 3.093341,6.740048 3.039073,6.727547 2.992767,6.722452 2.925324,6.761672 2.851866,6.794236 2.835321,6.794348 2.821449,6.785011 2.814151,6.778737 2.804486,6.763945 2.796126,6.741802 2.791002,6.735017 2.785571,6.706199 2.777133,6.701181 2.776747,6.699437 2.755681,6.672102 2.737195,6.664993 2.728513,6.660225 2.710162,6.65657 2.704905,6.65497 2.703564,6.654364 2.697836,6.651143 2.678107,6.636898 2.667128,6.625887 2.660181,6.619545 2.63471,6.592224 2.612407,6.565907 2.570684,6.546897 2.426776,6.451112 2.424562,6.446676 2.390184,6.415001 2.359645,6.397083 2.267234,6.302839 2.223629,6.267956 2.218409,6.264776 2.208244,6.252 2.157321,6.212122 2.093837,6.165481 2.079647,6.14718 2.019485,6.10104 2.002983,6.08889 1.971785,6.049716 1.957051,6.032389 1.936386,5.997992 1.878822,5.880996 1.850171,5.818205 1.841661,5.782732 1.838044,5.733015 1.830757,5.67183 1.830872,5.663763 1.823157,5.64713 1.822678,5.644519 1.82772,5.593785 1.823137,5.546553 1.804334,5.482551 1.784782,5.448295 1.777193,5.417558 1.766991,5.292819 1.754229,5.117417 1.735542,5.087162 1.738156,5.033512 1.733184,5.004485 1.724838,4.921669 1.724073,4.910706 1.713763,4.736337 1.719696,4.661897 1.743057,4.628567 1.742125,4.60747 1.746095,4.598846 1.743,4.539963 1.74375,4.330063 1.743017,4.288456 1.729828,4.277044 1.725991,4.268454 1.719439,4.260212 1.718437,4.235458 1.7129,4.113322 1.715364,4.023391 1.715486,4.006995 1.719045,3.98594 1.728042,3.976468 1.727101,3.954952 1.739525,3.886794 1.739264,3.852914 1.743727,3.824452 1.751011,3.816504 1.753818,3.7793 1.775419,3.59855 1.775088,3.518708 1.784005,3.472107 1.81816,3.375869 1.824078,3.344567 1.829176,3.33312 1.828496,3.31899 1.822827,3.26833 1.823437,3.264981 1.83099,3.247696 1.830876,3.239641 1.836272,3.218514 1.843365,3.170412 1.844713,3.121892 1.85052,3.106736 1.851987,3.102573 1.857784,3.073177 1.912771,2.960221 1.933966,2.915157 1.939047,2.903994 1.954954,2.885423 1.971643,2.85898 1.993939,2.836741 2.005367,2.826404 2.015343,2.814253 2.027187,2.802244 2.060647,2.785268 2.077586,2.766684 2.078846,2.76441 2.094073,2.746677 2.150983,2.704172 2.191007,2.672951 2.210135,2.657366 2.215045,2.651394 2.223413,2.64112 2.226055,2.63975 2.248219,2.624518 2.312621,2.567301 2.393606,2.485867 2.410224,2.480628 2.489919,2.409835 2.561654,2.370694 2.571978,2.36126 2.614917,2.344474 2.639835,2.312239 2.647314,2.304644 2.666368,2.285672 2.67776,2.274855 2.693025,2.263141 2.70143,2.258247 2.703483,2.257365 2.710951,2.254998 2.72836,2.251423 2.737227,2.246616 2.755718,2.239507 2.776821,2.212103 2.777201,2.210418 2.785788,2.204981 2.791506,2.175308 2.796689,2.167682 2.804283,2.1472 2.813795,2.132581 2.828613,2.122217 2.835225,2.116817 2.841127,2.115508 2.855059,2.118523 2.979657,2.180331 2.998221,2.186442 3.029369,2.187911 3.039666,2.184375 3.273826,2.141625 3.281112,2.140403 3.300408,2.131007 3.319216,2.123773 3.356201,2.109951 3.364218,2.109502 3.466294,2.090272 3.651435,2.064994 3.686325,2.052578 3.702295,2.056125 3.718884,2.047758 3.829176,2.007095 3.905315,1.985375 3.919977,1.983098 4.001875,1.954989 4.020297,1.951923 4.074553,1.933437 4.086223,1.927136 4.129829,1.917183 4.239885,1.897892 4.320254,1.907992 4.406628,1.896804 4.553816,1.881294 4.599591,1.874653 4.690507,1.851987 4.692839,1.851774 4.71144,1.859838 4.752737,1.858246 4.774694,1.844574 4.779012,1.842853 4.785425,1.84281 4.804909,1.845793 4.821831,1.843905 4.831864,1.843755 4.84368,1.849236 4.869538,1.847742 4.885047,1.840616 4.91823,1.839957 4.929658,1.845305 4.946421,1.841848 4.947834,1.842307 4.970121,1.842079 4.985889,1.836165 5.000023,1.8383 5.063775,1.831094 5.123559,1.812002 5.142328,1.81334 5.192258,1.807138 5.236145,1.806337 5.261857,1.804125 5.275119,1.805454 5.344234,1.817424 5.351083,1.810252 5.383385,1.820518 5.406518,1.783603 5.407547,1.784381 5.430654,1.775041 5.430961,1.775021 5.506497,1.774291 5.523686,1.77547 5.600806,1.77309" style="fill: white" />
</svg>
