<svg width="13.600213" height="8.910821">
<polygon type="contour" points="7.267707,2.571693 7.315519,2.568344 7.336462,2.57274 7.356925,2.562377 7.358473,2.562217 7.400451,2.580107 7.450726,2.586874 7.488163,2.604793 7.532047,2.632097 7.567606,2.656673 7.650182,2.706766 7.675579,2.730001 7.713189,2.763541 7.921433,2.909751 7.948811,2.931614 7.994949,2.973531 8.039333,3.019262 8.043064,3.024725 8.04573,3.033171 8.110167,3.211563 8.134502,3.319851 8.134542,3.33144 8.136887,3.343461 8.146225,3.374849 8.205584,3.642076 8.220352,3.676628 8.240425,3.713028 8.260472,3.757215 8.298832,3.806071 8.304978,3.815699 8.361134,3.898433 8.363085,3.914534 8.368094,3.924618 8.369856,3.935994 8.379025,3.947086 8.380095,3.95289 8.397785,3.981939 8.41241,3.994454 8.422317,4.025092 8.432347,4.04821 8.455185,4.087859 8.471328,4.109536 8.473983,4.115734 8.47544,4.129045 8.508044,4.155533 8.528942,4.184957 8.541455,4.228357 8.54506,4.236794 8.54908,4.250043 8.571497,4.338629 8.567276,4.379439 8.572926,4.41165 8.581369,4.466642 8.581504,4.480286 8.578196,4.499502 8.567337,4.530846 8.569011,4.555212 8.570722,4.576857 8.54818,4.66662 8.541171,4.689203 8.538286,4.69454 8.521184,4.733402 8.507667,4.750956 8.489636,4.764176 8.46586,4.814894 8.431192,4.867851 8.421937,4.88932 8.414118,4.914076 8.386939,4.945485 8.38361,4.963571 8.372386,4.97066 8.366389,4.997679 8.296809,5.099917 8.2707,5.140238 8.268147,5.145636 8.264906,5.152152 8.161224,5.386786 8.137058,5.548089 8.134321,5.56797 8.131806,5.592378 8.123785,5.688897 8.122802,5.690517 8.038368,5.893903 7.955209,5.973396 7.906993,6.015051 7.888563,6.017404 7.867082,6.03311 7.864165,6.033492 7.778984,6.111137 7.733056,6.14448 7.71073,6.149148 7.675305,6.169586 7.664129,6.179271 7.63957,6.214825 7.611705,6.232485 7.594588,6.24151 7.590376,6.248114 7.571878,6.261887 7.459266,6.324724 7.419583,6.339775 7.347225,6.338502 7.299216,6.341753 7.256615,6.344714 7.233944,6.339119 7.179588,6.363113 7.114863,6.356019 7.046389,6.354238 7.033019,6.353106 7.010577,6.339334 6.983525,6.300567 6.942694,6.242668 6.940508,6.238553 6.940989,6.237734 6.927341,6.204474 6.908055,6.131875 6.745888,6.132608 6.688836,6.129074 6.559817,6.088188 6.568461,6.077998 6.589685,6.053475 6.74151,5.989519 6.828612,5.973547 6.939208,5.953282 6.968783,5.947863 6.981337,5.915786 6.99303,5.885852 6.998317,5.878804 7.023097,5.853767 7.109911,5.765383 7.126667,5.748794 7.174556,5.736962 7.190534,5.728802 7.193756,5.72722 7.224163,5.719345 7.239534,5.717904 7.25349,5.711327 7.267747,5.702056 7.287605,5.68261 7.316546,5.647514 7.462085,5.480786 7.468056,5.473837 7.46936,5.471032 7.485017,5.449863 7.491104,5.441202 7.502906,5.399494 7.54869,5.331059 7.608742,5.199995 7.548723,5.151248 7.471536,5.208262 7.451585,5.217431 7.413002,5.211645 7.343481,5.243584 7.341205,5.244054 7.311368,5.236874 7.301021,5.24428 7.284298,5.240279 7.249616,5.222119 7.199971,5.217676 7.197897,5.217492 7.196962,5.215075 7.150358,5.161982 7.139481,5.147334 7.13696,5.121473 7.123156,5.050887 7.123031,5.003415 7.13241,4.966129 7.14308,4.915965 7.146194,4.884226 7.153944,4.87043 7.1741,4.799941 7.18164,4.781828 7.19569,4.764808 7.209264,4.733542 7.22692,4.688135 7.235601,4.644811 7.253353,4.599747 7.264988,4.554907 7.251175,4.510371 7.251401,4.502862 7.2489,4.478311 7.246623,4.452365 7.246442,4.445544 7.2479,4.44309 7.247764,4.416491 7.250877,4.382152 7.248155,4.367693 7.256787,4.327027 7.244813,4.262928 7.231121,4.216995 7.209337,4.175516 7.174123,4.116388 7.168374,4.083447 7.156634,4.053051 7.160209,4.035054 7.135815,3.981933 7.132041,3.972539 7.140823,3.878811 7.126679,3.846764 7.125468,3.834735 7.134156,3.792123 7.143861,3.76995 7.151279,3.761157 7.153274,3.754801 7.171336,3.739042 7.174714,3.734898 7.184371,3.723047 7.186159,3.71359 7.193535,3.702584 7.216302,3.679656 7.224389,3.668697 7.254233,3.657589 7.278319,3.659708 7.340288,3.656667 7.341079,3.656744 7.341522,3.656748 7.342376,3.656957 7.371626,3.676064 7.416416,3.673527 7.423416,3.677108 7.555519,3.756498 7.61044,3.706581 7.55259,3.585514 7.482482,3.468945 7.462319,3.433416 7.37973,3.311741 7.308786,3.242489 7.272504,3.215055 7.239409,3.193674 7.221355,3.189167 7.185538,3.18399 7.17733,3.18228 7.165537,3.174162 7.130152,3.165729 7.090966,3.126444 7.053997,3.092416 7.042661,3.080068 6.981733,3.07094 6.856932,3.056287 6.756812,3.025294 6.506842,2.915876 6.505532,2.914992 6.505464,2.913981 6.507049,2.912664 6.650083,2.876199 6.896808,2.863207 6.898316,2.821893 6.903534,2.80871 6.927494,2.725851 6.939813,2.67349 6.942833,2.65872 6.963422,2.628955 6.990123,2.595033 7.004082,2.586386 7.016647,2.568319 7.027016,2.55824 7.118887,2.561623 7.173716,2.557573 7.228692,2.556402" style="fill: white" /><polygon type="contour" points="3.647277,2.052894 3.657174,2.053355 3.674951,2.058917 3.711934,2.068551 3.778191,2.092019 3.790597,2.101525 3.836317,2.098886 3.848083,2.099375 3.861519,2.100461 3.912947,2.145518 3.913049,2.145611 3.913086,2.14575 3.945836,2.216024 3.980485,2.215261 4.152498,2.211474 4.294297,2.195061 4.535847,2.216407 4.590456,2.222723 4.60198,2.241798 4.588479,2.302943 4.575096,2.322008 4.521455,2.354576 4.470308,2.379116 4.288449,2.420715 4.198489,2.432994 4.163269,2.436541 4.115388,2.44136 3.90558,2.452723 3.87573,2.593817 3.870293,2.619514 3.866828,2.636799 3.864691,2.647461 3.864505,2.648389 3.864326,2.649287 3.863952,2.651152 3.860767,2.660724 3.856627,2.669791 3.776105,2.765641 3.682096,2.798444 3.647681,2.814293 3.620381,2.816017 3.526508,2.911362 3.458699,2.968009 3.413848,2.992869 3.37568,3.008524 3.344376,3.021444 3.314677,3.047065 3.302168,3.052539 3.291083,3.065134 3.273018,3.080759 3.248911,3.097727 3.239189,3.105944 3.226084,3.126241 3.204719,3.137094 3.1922,3.154428 3.157363,3.178822 3.143085,3.198637 3.127682,3.216207 3.100995,3.232205 3.090363,3.239351 3.074155,3.256632 3.048933,3.275241 3.044383,3.276718 3.006226,3.298321 2.968521,3.339937 2.952685,3.363365 2.855299,3.534942 2.82039,3.615875 2.787441,3.65666 2.768182,3.701593 2.75573,3.747028 2.754595,3.767516 2.749789,3.879376 2.722928,3.969078 2.704654,4.064092 2.689415,4.201536 2.687894,4.256428 2.708846,4.474389 2.696471,4.577904 2.681478,4.688214 2.684184,4.711674 2.740024,5.033825 2.752206,5.093856 2.760443,5.158489 2.777045,5.236732 2.841399,5.326581 2.902015,5.464289 2.911665,5.486438 2.919099,5.498264 2.925048,5.503947 2.936533,5.519056 2.950115,5.541152 2.98239,5.593245 2.996642,5.60074 3.014383,5.615666 3.032592,5.625461 3.058237,5.642582 3.089119,5.671653 3.134679,5.701109 3.157466,5.730197 3.160806,5.735405 3.172599,5.748685 3.188674,5.759272 3.191726,5.759678 3.19265,5.760153 3.204336,5.772582 3.222161,5.78724 3.240272,5.808959 3.325382,5.8765 3.382916,5.899768 3.456751,5.934887 3.551244,6.031324 3.602038,6.079109 3.623259,6.100548 3.645559,6.105617 3.680375,6.110846 3.73967,6.131253 3.746648,6.131573 3.76669,6.141777 3.784486,6.153049 3.835744,6.193108 3.869125,6.284993 3.879115,6.31507 3.880414,6.32066 3.880646,6.32166 3.881141,6.323789 3.913388,6.462576 4.062194,6.469638 4.121501,6.472453 4.145209,6.473579 4.189781,6.480549 4.2087,6.483551 4.288788,6.495703 4.47148,6.539698 4.513576,6.553725 4.555127,6.57343 4.575539,6.590207 4.588589,6.608232 4.600575,6.670644 4.589775,6.689844 4.527666,6.7135 4.503768,6.716352 4.494423,6.718238 4.476093,6.717338 4.468491,6.716966 4.200295,6.703819 3.945487,6.691327 3.911263,6.766581 3.905732,6.77167 3.858278,6.812655 3.857084,6.813128 3.850574,6.812665 3.816445,6.811424 3.815354,6.81209 3.799391,6.805267 3.778641,6.819412 3.708293,6.844397 3.66682,6.856844 3.638971,6.8586 3.616955,6.861373 3.531094,6.858925 3.487862,6.848491 3.471215,6.844615 3.455395,6.833762 3.434612,6.831354 3.382719,6.832749 3.37487,6.838096 3.363257,6.83785 3.335273,6.846363 3.328969,6.848826 3.325532,6.849968 3.320813,6.849237 3.301149,6.849613 3.293485,6.847484 3.194287,6.809441 3.093308,6.746122 3.067076,6.710355 3.051841,6.698801 3.015177,6.684071 3.004498,6.679136 2.998231,6.674848 2.959106,6.645282 2.93492,6.621796 2.926409,6.615239 2.913423,6.605727 2.907601,6.602415 2.897122,6.593835 2.891948,6.592228 2.879113,6.579041 2.860757,6.550442 2.831293,6.528119 2.817584,6.519002 2.815465,6.517679 2.768425,6.489875 2.766261,6.489136 2.756748,6.482924 2.735237,6.475538 2.721416,6.465103 2.533854,6.402154 2.533589,6.402077 2.533424,6.402009 2.533246,6.401937 2.519206,6.379704 2.457994,6.377557 2.442163,6.373805 2.390479,6.351415 2.350736,6.336549 2.329099,6.329507 2.282198,6.311937 2.268774,6.305197 2.263013,6.305992 2.251267,6.301723 2.160589,6.254327 2.103262,6.242304 2.090801,6.234885 2.082964,6.234882 2.070633,6.230099 2.037882,6.218027 1.985137,6.20259 1.978768,6.203454 1.939768,6.198505 1.932244,6.196868 1.901213,6.197197 1.875883,6.193789 1.856968,6.196368 1.846875,6.19248 1.808472,6.1794 1.795272,6.197646 1.790176,6.19844 1.787601,6.201494 1.772603,6.203053 1.75688,6.205223 1.744697,6.207423 1.73859,6.208198 1.717259,6.20082 1.686193,6.206347 1.681906,6.210135 1.642849,6.213907 1.608404,6.221243 1.571727,6.219507 1.50496,6.231335 1.502572,6.231709 1.471576,6.225419 1.456822,6.226927 1.436547,6.23503 1.388644,6.253154 1.388361,6.253261 1.387559,6.253218 1.340276,6.265671 1.329072,6.272877 1.277035,6.318801 1.244818,6.34778 1.232445,6.38258 1.206352,6.418885 1.197955,6.436437 1.196334,6.479481 1.1902,6.485815 1.14093,6.551327 1.125916,6.563464 1.079855,6.578952 0.979223,6.589993 0.974069,6.591183 0.968581,6.591923 0.964434,6.589666 0.959679,6.588896 0.877233,6.557564 0.825371,6.488139 0.781209,6.419937 0.757653,6.362122 0.750999,6.346377 0.741766,6.314386 0.743537,6.297681 0.744987,6.294622 0.748857,6.290396 0.773801,6.262485 0.776341,6.2407 0.77473,6.218796 0.749908,6.117261 0.74821,6.073105 0.740773,6.057602 0.720066,6.032996 0.708456,6.021179 0.692512,6.013646 0.679885,6.007357 0.667264,6.00792 0.643462,5.99933 0.631851,6.000701 0.588241,6.004224 0.575232,5.997926 0.558653,5.997669 0.5506,5.990102 0.46227,5.890769 0.446462,5.869146 0.428327,5.839422 0.413819,5.807978 0.413753,5.807464 0.413969,5.805662 0.426017,5.745193 0.431811,5.72493 0.438069,5.70988 0.44481,5.690851 0.444242,5.663811 0.441422,5.650455 0.448535,5.617946 0.441323,5.499841 0.435261,5.481792 0.43518,5.375015 0.431239,5.365702 0.426902,5.345564 0.425224,5.306027 0.42642,5.280563 0.428223,5.263748 0.433456,5.240065 0.469133,5.166002 0.481175,5.121904 0.478641,5.056398 0.480219,5.000429 0.465849,4.965547 0.447198,4.940001 0.41656,4.864804 0.394116,4.838411 0.386027,4.827317 0.385806,4.823066 0.374835,4.804889 0.368987,4.796074 0.353085,4.77214 0.346358,4.755552 0.340977,4.751122 0.336809,4.741706 0.321599,4.723157 0.315622,4.685968 0.313109,4.666272 0.31467,4.519242 0.30196,4.358874 0.302744,4.271403 0.309947,4.235328 0.345919,4.165726 0.356687,4.131642 0.375786,4.10101 0.416176,4.045364 0.437629,3.987478 0.444138,3.97642 0.469119,3.94183 0.479841,3.910688 0.481106,3.901434 0.487496,3.78993 0.439731,3.700993 0.435487,3.690077 0.431746,3.664319 0.427409,3.634927 0.427385,3.559888 0.428451,3.551129 0.434362,3.538583 0.434825,3.527051 0.437604,3.442563 0.442037,3.433648 0.448771,3.293153 0.446832,3.285602 0.441362,3.261393 0.441146,3.260026 0.443145,3.203343 0.434971,3.188782 0.426625,3.170279 0.416934,3.11844 0.418053,3.101466 0.43372,3.067216 0.449851,3.039117 0.486587,2.987543 0.533752,2.933644 0.539217,2.931125 0.558598,2.913764 0.565212,2.912809 0.571277,2.912208 0.588232,2.907393 0.60395,2.905323 0.64176,2.912904 0.667258,2.903702 0.681759,2.904345 0.715848,2.884629 0.730636,2.868819 0.75187,2.831691 0.767589,2.806882 0.765891,2.789709 0.774821,2.692333 0.77857,2.660324 0.762764,2.63766 0.749147,2.622232 0.743684,2.617017 0.744454,2.613972 0.745303,2.608956 0.760924,2.565948 0.773126,2.511366 0.782972,2.487946 0.798889,2.464142 0.867115,2.356582 0.868103,2.355641 0.870328,2.35482 0.918585,2.336341 0.95886,2.322261 0.965262,2.320893 1.087439,2.336723 1.105402,2.342918 1.106995,2.34377 1.107655,2.344898 1.158308,2.376705 1.177732,2.408174 1.187721,2.432911 1.196719,2.441219 1.199355,2.447531 1.198021,2.473281 1.214405,2.504823 1.22629,2.52144 1.231441,2.535684 1.238593,2.543169 1.243946,2.553963 1.254424,2.569885 1.262632,2.576686 1.334061,2.643203 1.385455,2.658084 1.388416,2.657827 1.425909,2.67475 1.432046,2.674918 1.436739,2.676812 1.459022,2.687048 1.504633,2.680439 1.518508,2.682507 1.560598,2.689566 1.56944,2.692974 1.587935,2.692649 1.605593,2.693294 1.609072,2.692409 1.61499,2.693493 1.616863,2.693486 1.633132,2.695459 1.646252,2.698344 1.711762,2.708941 1.724013,2.707779 1.74183,2.709182 1.7537,2.704323 1.770553,2.708928 1.776468,2.709586 1.788974,2.713108 1.793427,2.713804 1.805607,2.72842 1.830961,2.72059 1.845482,2.720489 1.852876,2.717018 1.866242,2.716147 1.884424,2.714207 1.891085,2.716321 1.904828,2.713882 1.920102,2.714641 1.957475,2.708767 1.988903,2.711032 2.002882,2.704685 2.045508,2.686945 2.061199,2.682807 2.101581,2.667939 2.11994,2.663277 2.122583,2.660446 2.128634,2.659251 2.16248,2.656897 2.192035,2.638415 2.257078,2.608343 2.267623,2.605519 2.284694,2.60066 2.29567,2.596638 2.322318,2.583856 2.368362,2.567045 2.395407,2.553578 2.436194,2.541259 2.473925,2.532281 2.51482,2.537726 2.533132,2.509902 2.533444,2.509537 2.533798,2.509226 2.556928,2.496945 2.585432,2.487178 2.722553,2.446044 2.725074,2.444376 2.757546,2.431073 2.790548,2.400028 2.824775,2.37356 2.875315,2.346057 2.880645,2.336748 2.993055,2.246882 3.014938,2.230825 3.046291,2.207609 3.123786,2.161325 3.156632,2.137057 3.261759,2.084201 3.301721,2.061484 3.330953,2.064326 3.356075,2.062156 3.397823,2.086123 3.452125,2.078517 3.472045,2.066138 3.487727,2.06197 3.509691,2.057166 3.535187,2.058642 3.559842,2.051674 3.611244,2.050993" style="fill: white" />
</svg>
