<svg width="13.600213" height="8.910821">
<polygon type="contour" points="8.14961,4.088825 8.221807,4.161747 8.262666,4.218204 8.278668,4.382059 8.26647,4.49385 8.267325,4.551548 8.261624,4.561315 8.279656,4.624377 8.264134,4.69198 8.201613,4.74436 8.189405,4.801437 8.14889,4.823938 8.068818,4.837638 8.052678,4.826117 8.027998,4.801805 8.011909,4.746407 7.975636,4.685671 7.976878,4.677912 7.975105,4.672592 7.98328,4.512881 7.99677,4.481948 8.002638,4.455397 7.997123,4.430974 7.978337,4.255228 7.976823,4.223231 7.986757,4.197736 8.023957,4.125159 8.027062,4.110307 8.049684,4.086986 8.065496,4.075602" style="fill: white" /><polygon type="contour" points="3.647995,2.891846 3.676609,2.892946 3.698164,2.948121 3.714758,3.013108 3.715024,3.014861 3.732866,3.132249 4.253116,3.162444 4.266731,3.165022 4.279183,3.17312 4.281831,3.241901 4.247808,3.284554 4.186849,3.312854 4.100847,3.340656 3.973063,3.345772 3.95271,3.346587 3.672524,3.345529 3.650673,3.367832 3.528839,3.496736 3.425213,3.558206 3.404138,3.598965 3.398968,3.606852 3.351237,3.700771 3.338764,3.735764 3.267899,3.901784 3.222632,4.016715 3.215888,4.043805 3.166925,4.17618 3.124865,4.354872 3.123871,4.362457 3.126532,4.554204 3.134748,4.608659 3.18915,4.801257 3.219875,4.885035 3.248003,4.990218 3.32518,5.15982 3.342713,5.204655 3.410189,5.327609 3.423478,5.349294 3.631213,5.52317 3.665179,5.558656 3.739428,5.561344 3.827836,5.564546 4.034533,5.569171 4.104892,5.572369 4.193283,5.601586 4.250423,5.628782 4.282725,5.669861 4.278402,5.738866 4.26013,5.750765 4.199594,5.755511 3.982464,5.760454 3.977131,5.760577 3.970417,5.760729 3.735549,5.778733 3.714642,5.894012 3.713689,5.899264 3.694739,5.969907 3.68619,6.006811 3.676431,6.019695 3.533951,6.011647 3.508115,6.011999 3.457756,5.965381 3.414447,5.961528 3.382896,5.951499 3.259871,5.89863 3.240297,5.896566 3.206847,5.881105 3.183587,5.870857 3.113439,5.832575 3.043034,5.752661 2.99735,5.726613 2.952986,5.683046 2.906985,5.675694 2.88186,5.664498 2.856587,5.644704 2.691571,5.540562 2.648819,5.53476 2.614407,5.529118 2.594737,5.521056 2.516889,5.496401 2.490824,5.499202 2.467989,5.491953 2.449967,5.492993 2.42153,5.494701 2.359223,5.479246 2.119306,5.367952 2.107146,5.364853 2.098251,5.364362 1.950388,5.346983 1.941466,5.339409 1.927529,5.341363 1.925474,5.340759 1.871176,5.311995 1.85053,5.296214 1.79253,5.26976 1.762809,5.235721 1.719245,5.191999 1.708314,5.157616 1.690207,5.123762 1.684725,5.111137 1.669299,5.09475 1.677567,5.081836 1.617053,5.040715 1.601677,5.026237 1.586883,5.00937 1.582568,5.005802 1.499417,4.936243 1.49706,4.933236 1.495999,4.932373 1.493793,4.9293 1.490189,4.926828 1.488301,4.924758 1.423762,4.85678 1.32263,4.833548 1.309685,4.830348 1.295767,4.822994 1.289666,4.820591 1.278607,4.812008 1.21086,4.764953 1.188918,4.740467 1.168623,4.717745 1.155288,4.686887 1.140813,4.668117 1.129263,4.64214 1.119556,4.619843 1.116242,4.60836 1.116918,4.586004 1.11296,4.571182 1.113625,4.561636 1.113362,4.537673 1.112927,4.422282 1.119104,4.337944 1.120611,4.293473 1.12103,4.287193 1.132385,4.260902 1.148493,4.223237 1.155874,4.219308 1.161973,4.201738 1.183209,4.169939 1.192145,4.160727 1.217704,4.143556 1.315455,4.089626 1.378236,4.07239 1.395217,4.064092 1.43053,4.052831 1.444818,4.029294 1.458835,4.01622 1.462328,4.011188 1.525824,3.95495 1.554911,3.928239 1.564848,3.920944 1.566088,3.918443 1.570893,3.916041 1.583962,3.904547 1.644256,3.854979 1.660188,3.834124 1.678564,3.81111 1.680112,3.80535 1.683781,3.803064 1.701893,3.756909 1.797695,3.651846 1.820339,3.62692 1.835419,3.618023 1.897335,3.578212 1.925324,3.571001 1.933658,3.56961 1.972439,3.562763 1.976496,3.562195 2.031191,3.562757 2.055552,3.559563 2.07049,3.551566 2.154072,3.520792 2.238727,3.485579 2.250168,3.479557 2.306071,3.453622 2.36016,3.429822 2.366096,3.427803 2.427029,3.416336 2.471861,3.417568 2.505544,3.415647 2.511116,3.413135 2.549301,3.403687 2.566052,3.394483 2.680952,3.369662 2.691406,3.364675 2.728096,3.348713 2.748457,3.328598 2.806303,3.299346 2.906497,3.251651 2.948772,3.232445 2.973732,3.210148 3.01859,3.168012 3.05692,3.138349 3.078464,3.127968 3.11496,3.078409 3.215667,3.032019 3.277347,3.005029 3.312513,3.000807 3.382717,2.970964 3.396089,2.96324 3.462482,2.945562 3.4894,2.934822 3.565319,2.886731" style="fill: white" />
</svg>
