<svg width="13.600213" height="8.910821">
<polygon type="contour" points="4.473971,0.669194 4.53863,0.664541 4.608209,0.681966 4.612001,0.684133 4.623376,0.70716 4.65759,0.769161 4.661046,0.820469 4.659462,0.843404 4.675831,0.901515 4.685977,0.931537 4.722897,0.959845 4.733537,0.972414 4.775824,0.989224 4.862883,1.024872 4.86734,1.023464 4.877067,1.028415 4.894149,1.034201 4.938629,1.050595 4.978563,1.024303 4.986608,1.012401 5.00391,0.980812 5.001978,0.888169 5.010482,0.889429 5.069597,0.876909 5.144559,0.853487 5.147933,0.851098 5.160777,0.848811 5.17791,0.848757 5.196692,0.84579 5.207801,0.849376 5.231607,0.856054 5.238829,0.858602 5.243671,0.860373 5.289175,0.87373 5.300949,0.885897 5.3168,0.892068 5.325232,0.898009 5.340342,0.914056 5.357089,0.914865 5.366616,0.918987 5.403947,0.913837 5.427629,0.913324 5.461342,0.921149 5.471495,0.919345 5.522293,0.920585 5.623304,0.927476 5.688687,0.947034 5.775671,0.969222 5.874731,0.990068 5.960375,1.001685 6.001459,1.013305 6.029104,1.007478 6.126247,1.019564 6.241895,1.040167 6.304189,1.06319 6.330575,1.074788 6.432155,1.091049 6.520418,1.120445 6.639865,1.178173 6.672679,1.196122 6.68564,1.210292 6.844002,1.31516 6.846758,1.317163 6.847572,1.317608 6.863985,1.337106 6.995233,1.503983 7.005172,1.528055 7.123547,1.720421 7.154135,1.768475 7.173637,1.830237 7.182847,1.846998 7.210162,1.89147 7.316659,2.045082 7.32685,2.068577 7.355223,2.104901 7.360816,2.111583 7.454355,2.222442 7.478403,2.251108 7.480916,2.252536 7.504179,2.27852 7.608927,2.388938 7.62393,2.402679 7.636841,2.415299 7.725649,2.51962 7.801035,2.578843 7.832409,2.588309 7.852604,2.594173 7.866843,2.603444 7.93883,2.664525 7.944992,2.670567 7.950942,2.679803 7.952258,2.683769 7.961888,2.721665 7.976348,2.741759 8.026424,2.809797 8.030271,2.818418 8.039005,2.841649 8.049131,2.875771 8.090383,2.87898 8.110865,2.890161 8.129026,2.904384 8.151184,2.926981 8.174991,2.926352 8.19831,2.938856 8.203695,2.941997 8.207255,2.944302 8.209113,2.945724 8.211942,2.949606 8.248336,2.974648 8.273852,2.99317 8.275848,2.99453 8.279344,2.998623 8.314165,3.038414 8.356105,3.043514 8.370056,3.037451 8.385162,3.040133 8.397574,3.037426 8.409004,3.041339 8.426362,3.048089 8.438541,3.054506 8.451283,3.057206 8.515406,3.086489 8.518638,3.08773 8.519436,3.088107 8.521496,3.089558 8.523651,3.090699 8.595993,3.156835 8.601486,3.166292 8.661546,3.23516 8.663189,3.238661 8.668699,3.243876 8.671688,3.248676 8.718382,3.312871 8.722733,3.331282 8.734988,3.352432 8.741206,3.357164 8.745535,3.370145 8.766584,3.399211 8.783695,3.441505 8.807597,3.458236 8.819461,3.471232 8.825992,3.479048 8.827113,3.484493 8.841559,3.51186 8.842572,3.515309 8.844178,3.521516 8.853943,3.550535 8.860301,3.578444 8.863314,3.581465 8.86103,3.612775 8.89564,3.634987 8.902826,3.6536 8.972433,3.727976 8.976577,3.734289 8.992725,3.757106 9.001827,3.763643 9.06006,3.845084 9.108664,3.897494 9.196177,3.993316 9.216879,4.022943 9.269325,4.167601 9.289979,4.226355 9.298928,4.249763 9.300728,4.286977 9.308349,4.398085 9.306343,4.510664 9.296252,4.584441 9.292107,4.660571 9.271145,4.737167 9.261636,4.761191 9.246363,4.796619 9.20775,4.870907 9.167163,4.951622 9.147826,5.006967 9.076118,5.076836 9.048855,5.085515 9.022217,5.123729 8.974853,5.180087 8.964012,5.193193 8.960348,5.200275 8.949291,5.216545 8.898029,5.264046 8.889864,5.283955 8.86081,5.295764 8.863313,5.33015 8.8562,5.337288 8.854369,5.35724 8.839675,5.41236 8.822442,5.434868 8.779068,5.481618 8.768597,5.511679 8.746674,5.554805 8.724122,5.58447 8.719205,5.597434 8.702176,5.620466 8.610035,5.742995 8.583366,5.775191 8.524606,5.820426 8.508468,5.829881 8.459789,5.849394 8.410797,5.86956 8.391145,5.876185 8.382704,5.876787 8.364904,5.871708 8.319086,5.861891 8.289836,5.902023 8.256459,5.934663 8.241778,5.943431 8.21301,5.956618 8.202767,5.974524 8.186913,5.982017 8.158083,5.980692 8.125729,6.006814 8.117276,6.017448 8.090282,6.033665 8.085755,6.035231 8.052438,6.025732 8.037927,6.07243 8.031203,6.090677 8.019404,6.103924 7.994423,6.142509 7.981543,6.17262 7.971714,6.181474 7.932846,6.259472 7.930041,6.262901 7.873204,6.302671 7.860835,6.309014 7.835713,6.315459 7.822946,6.318668 7.804689,6.3287 7.799036,6.336754 7.788617,6.345425 7.775578,6.356702 7.772111,6.360766 7.747235,6.376677 7.725563,6.397001 7.699494,6.417655 7.694934,6.420472 7.688259,6.426099 7.654612,6.459345 7.476546,6.659915 7.470083,6.666403 7.448104,6.694774 7.344614,6.821708 7.320396,6.846601 7.296973,6.891499 7.225681,6.999828 7.183894,7.063316 7.151471,7.125195 7.094178,7.25098 6.987555,7.418399 6.944795,7.498088 6.845674,7.587371 6.818868,7.609354 6.793021,7.627341 6.678381,7.713369 6.570149,7.769122 6.51462,7.796449 6.449454,7.8181 6.343272,7.836339 6.310746,7.844392 6.305254,7.848502 6.287065,7.850568 6.253984,7.870295 6.248144,7.872262 6.098729,7.887646 5.915357,7.908608 5.879934,7.926497 5.756492,7.957276 5.684653,7.974528 5.599968,7.987928 5.52631,7.991126 5.476467,7.992307 5.460276,7.990427 5.414332,7.99808 5.409646,7.998551 5.404905,7.998918 5.362147,7.995982 5.359668,7.999601 5.352267,7.999228 5.3207,8.013501 5.301652,8.025127 5.289569,8.037714 5.243091,8.051285 5.233795,8.054471 5.208684,8.062633 5.198242,8.065628 5.170158,8.063083 5.158838,8.063359 5.151362,8.061816 5.149739,8.060737 5.072213,8.030651 5.063225,8.030562 5.042112,8.02817 5.000843,8.030799 5.00491,7.95389 5.003185,7.931647 4.978727,7.886702 4.962163,7.878794 4.94735,7.857416 4.873239,7.88441 4.866592,7.887891 4.863574,7.886853 4.787702,7.917384 4.735177,7.938161 4.72544,7.948977 4.687509,7.976991 4.675085,8.020452 4.666154,8.085017 4.646498,8.163634 4.642076,8.179038 4.636399,8.185968 4.61642,8.221819 4.612598,8.226771 4.554037,8.243773 4.511942,8.253588 4.479207,8.259943 4.427352,8.258951 4.3878,8.24396 4.373307,8.243603 4.346181,8.247262 4.282316,8.236011 4.2297,8.22969 4.14095,8.175508 4.128634,8.167423 4.125544,8.161825 4.083594,8.069484 4.064266,8.020349 4.006653,8.036458 3.999785,8.03121 3.994165,8.020373 3.923866,7.956069 3.904255,7.937402 3.895465,7.932491 3.87549,7.907328 3.867061,7.90109 3.856662,7.889997 3.853891,7.887526 3.836981,7.849206 3.778797,7.830986 3.776647,7.830196 3.77539,7.829054 3.771813,7.826001 3.696365,7.747089 3.677217,7.732851 3.658593,7.722371 3.653185,7.715146 3.64256,7.698018 3.639711,7.6963 3.638683,7.692702 3.627194,7.670735 3.549608,7.620666 3.5442,7.620356 3.514029,7.607824 3.413412,7.52751 3.329814,7.427003 3.314013,7.412906 3.310305,7.409433 3.263585,7.365787 3.242646,7.364304 3.231312,7.361757 3.21415,7.351268 3.150947,7.318816 3.092518,7.288081 3.064395,7.209002 3.005032,7.28063 2.998541,7.290424 2.98543,7.295696 2.976046,7.311854 2.97045,7.31587 2.947502,7.334211 2.945605,7.337235 2.943268,7.338667 2.837856,7.36922 2.798152,7.382765 2.787611,7.384646 2.770801,7.380072 2.74658,7.385293 2.745215,7.385659 2.650712,7.404489 2.609867,7.408236 2.490361,7.440996 2.478022,7.455752 2.433969,7.478565 2.40098,7.487399 2.346258,7.498168 2.332247,7.495349 2.331707,7.495282 2.306022,7.483814 2.209523,7.458212 2.194195,7.439045 2.09701,7.320214 1.825445,7.348669 1.819753,7.357911 1.80314,7.359792 1.744446,7.361263 1.733889,7.379315 1.727396,7.385565 1.671833,7.404999 1.592137,7.42839 1.561369,7.434341 1.544341,7.43434 1.5151,7.435384 1.467018,7.444829 1.433263,7.450054 1.418867,7.442318 1.372147,7.417851 1.351488,7.441832 1.306993,7.464467 1.29913,7.463474 1.222107,7.483765 1.221294,7.484407 1.22045,7.484502 1.212061,7.484082 1.16053,7.492908 1.138141,7.500828 1.040316,7.500807 1.011259,7.486872 0.979862,7.486397 0.970305,7.492845 0.96239,7.494345 0.931363,7.493238 0.924292,7.493608 0.884345,7.500677 0.87966,7.503004 0.866633,7.505814 0.778274,7.53032 0.769863,7.535184 0.745849,7.538508 0.677228,7.546755 0.666146,7.54648 0.631765,7.541614 0.619999,7.53784 0.593644,7.54067 0.542795,7.544579 0.539933,7.544789 0.531841,7.546224 0.504256,7.546587 0.486157,7.54687 0.47034,7.540925 0.4019,7.471316 0.328602,7.379391 0.283128,7.196433 0.283119,7.195005 0.305253,6.96091 0.295046,6.86721 0.337675,6.635958 0.393768,6.354862 0.389976,6.255957 0.385969,6.026578 0.392067,5.981811 0.387638,5.967877 0.38956,5.831992 0.387166,5.819182 0.404493,5.590371 0.403438,5.542098 0.391892,5.517298 0.391398,5.5118 0.388657,5.466199 0.370392,5.428086 0.369261,5.39833 0.376558,5.158612 0.399162,5.139551 0.356899,5.07998 0.324598,4.937222 0.317711,4.818711 0.316059,4.782414 0.313733,4.752291 0.317154,4.719023 0.3337,4.648973 0.339684,4.477397 0.333599,4.284082 0.336466,4.250084 0.313522,4.173043 0.311989,4.152147 0.315237,4.102642 0.31938,4.077696 0.318705,4.047846 0.325647,3.970288 0.331759,3.908172 0.348475,3.858913 0.37511,3.828753 0.37813,3.81819 0.393318,3.770431 0.375739,3.738807 0.3714,3.70661 0.371958,3.676972 0.37772,3.469151 0.393542,3.437751 0.392227,3.398343 0.393285,3.388432 0.403379,3.370372 0.396862,3.284425 0.393053,3.065322 0.391932,2.985355 0.396478,2.762715 0.392912,2.714331 0.394346,2.559708 0.384472,2.522342 0.341936,2.278803 0.320564,2.171633 0.2989,2.04974 0.301639,1.9918 0.295157,1.858501 0.284,1.7173 0.283469,1.714738 0.283631,1.7112 0.284889,1.70753 0.342733,1.526984 0.417753,1.430457 0.451792,1.385876 0.470192,1.370732 0.485019,1.365148 0.504394,1.365332 0.532839,1.365452 0.541324,1.367074 0.578639,1.368982 0.602406,1.371467 0.61796,1.373056 0.628928,1.369585 0.68198,1.361445 0.736161,1.373306 0.745433,1.371174 0.753453,1.372069 0.898777,1.414401 0.910009,1.418354 0.91734,1.417284 1.000162,1.425671 1.036122,1.410486 1.137402,1.406487 1.154765,1.414811 1.187345,1.420439 1.214249,1.425856 1.21723,1.427639 1.225601,1.429762 1.307206,1.449068 1.307941,1.448889 1.341156,1.462352 1.371973,1.493909 1.41322,1.470453 1.472367,1.463205 1.674377,1.519387 1.719462,1.520114 1.756679,1.543612 1.818912,1.554309 1.832955,1.562896 1.866151,1.569452 1.893044,1.569762 1.91749,1.56808 1.976218,1.571619 2.012171,1.567148 2.034498,1.572849 2.103942,1.581841 2.129585,1.551878 2.207187,1.454506 2.241564,1.432374 2.265196,1.425253 2.283697,1.420498 2.35678,1.409139 2.383819,1.412893 2.415538,1.427573 2.450896,1.440515 2.475672,1.4521 2.485574,1.457961 2.489213,1.463915 2.508805,1.488359 2.531716,1.488955 2.547521,1.495537 2.570237,1.499704 2.673369,1.499415 2.746272,1.526149 2.751064,1.526523 2.770636,1.530234 2.787477,1.526943 2.791712,1.52821 2.938603,1.594897 2.990119,1.619993 3.002945,1.626701 3.013605,1.646647 3.078824,1.663632 3.09432,1.623031 3.098781,1.61976 3.1401,1.602076 3.247422,1.554256 3.260225,1.547752 3.270725,1.541738 3.318875,1.493532 3.330253,1.473951 3.342524,1.447508 3.381494,1.402862 3.469541,1.347396 3.483776,1.337448 3.511126,1.313156 3.545085,1.294088 3.571102,1.272883 3.630402,1.241161 3.64152,1.208516 3.650196,1.199412 3.660189,1.189507 3.689549,1.167007 3.708937,1.152928 3.715388,1.149493 3.716894,1.147621 3.720064,1.146088 3.775554,1.081607 3.780024,1.079766 3.853511,1.055134 3.853969,1.025392 3.854353,1.024218 3.854574,1.02307 3.860196,1.016042 3.918156,0.953372 3.935401,0.937135 3.983124,0.903087 3.996843,0.88258 4.006836,0.874863 4.06305,0.892351 4.075881,0.850964 4.089162,0.8344 4.121109,0.758231 4.128321,0.746158 4.161054,0.724181 4.223537,0.684933 4.236072,0.679542 4.285291,0.674496 4.349402,0.66279 4.375791,0.666684 4.391092,0.666263 4.425707,0.652088" style="fill: white" /><polygon type="hole" points="4.84348,2.434936 4.743035,2.444299 4.680169,2.457894 4.652423,2.472359 4.49788,2.536527 4.412904,2.566515 4.31539,2.56605 4.261646,2.568905 4.22344,2.587547 4.069956,2.588725 3.890082,2.71211 3.763929,2.83409 3.611828,2.928047 3.42317,3.147287 3.405846,3.178196 3.339911,3.340822 3.333511,3.356714 3.329375,3.364986 3.297465,3.414612 3.182218,3.582671 3.150265,3.663087 3.125617,3.717425 3.118447,3.741415 3.102469,3.83908 3.065033,4.041166 3.040878,4.102455 3.04838,4.23741 3.038871,4.322167 3.021958,4.468333 3.026217,4.632765 3.025607,4.639021 3.022791,4.66791 3.03934,4.704459 3.061884,4.754245 3.062055,4.799247 3.062101,4.811138 3.063497,4.82357 3.082505,4.940406 3.1105,5.132186 3.117486,5.166712 3.125999,5.195322 3.153542,5.257104 3.183079,5.331256 3.313526,5.528894 3.352187,5.590547 3.355537,5.597266 3.360218,5.61022 3.403969,5.732109 3.424607,5.76746 3.497615,5.857708 3.656992,6.017637 3.802773,6.119982 3.805982,6.12313 3.824528,6.137722 4.004706,6.28244 4.050802,6.3124 4.091461,6.314105 4.238178,6.324549 4.291691,6.348453 4.329301,6.346095 4.404742,6.348455 4.451268,6.362895 4.572955,6.41778 4.699957,6.448698 4.795835,6.478619 4.878668,6.480855 4.963559,6.476111 5.048399,6.454141 5.188282,6.431616 5.453391,6.342477 5.5,6.321222 5.506161,6.318475 5.700818,6.211456 5.821376,6.135551 5.933243,6.06511 5.986344,6.056388 6.045129,6.046823 6.109523,5.992217 6.174336,5.960048 6.264293,5.881659 6.342422,5.799635 6.369049,5.777109 6.384945,5.758208 6.440759,5.694163 6.471796,5.6484 6.649414,5.459242 6.687805,5.403596 6.721611,5.338399 6.754175,5.274821 6.794926,5.201012 6.799761,5.18582 6.800563,5.133324 6.802144,5.123152 6.843885,5.005899 6.848962,4.996114 6.86422,4.952305 6.87219,4.907285 6.960646,4.727552 6.983093,4.666299 7.021608,4.533195 7.030474,4.510887 7.034614,4.491865 7.033841,4.482418 7.032461,4.47317 6.991183,4.305492 6.966231,4.191065 6.962224,4.17754 6.921542,4.071253 6.855435,3.917852 6.84434,3.900064 6.8017,3.731608 6.799526,3.711417 6.756547,3.650516 6.664365,3.475627 6.619665,3.428726 6.600315,3.397471 6.52895,3.319649 6.436896,3.205541 6.367988,3.131545 6.35625,3.121086 6.219465,2.995178 6.208186,2.990415 6.199776,2.987946 6.17267,2.965777 6.069062,2.874762 5.999673,2.858723 5.932726,2.84255 5.8351,2.780424 5.758182,2.72816 5.642181,2.665808 5.468003,2.573007 5.417125,2.548972 5.189662,2.479858 5.064799,2.450006 4.963214,2.435072 4.880395,2.430521" style="fill: black" /><polygon type="contour" points="6.299456,3.28766 6.320425,3.293103 6.334873,3.299293 6.35142,3.307955 6.374691,3.344094 6.381833,3.374031 6.385817,3.392834 6.3787,3.406677 6.37948,3.439039 6.380433,3.480161 6.372353,3.525994 6.362128,3.591506 6.346257,3.67325 6.3596,3.918179 6.360024,3.933559 6.360719,3.940645 6.377731,4.041038 6.386715,4.132419 6.409095,4.207111 6.41467,4.227402 6.422227,4.276387 6.428637,4.331379 6.422745,4.40391 6.434296,4.447613 6.434555,4.449111 6.434325,4.451913 6.433612,4.473306 6.427067,4.620055 6.426004,4.642861 6.419877,4.67594 6.370159,4.947225 6.37014,4.953607 6.369881,4.955338 6.354286,5.182715 6.366038,5.324601 6.365227,5.376232 6.376157,5.42799 6.381529,5.483758 6.372425,5.535196 6.367636,5.560385 6.351419,5.586407 6.345752,5.594866 6.344627,5.598835 6.343278,5.599652 6.301804,5.625858 6.288324,5.631836 6.275941,5.631879 6.230028,5.617716 6.216763,5.611939 6.150623,5.582952 6.130259,5.571758 6.115354,5.545421 6.071188,5.515221 6.035732,5.478938 5.997172,5.436461 5.94878,5.34241 5.930911,5.312922 5.909492,5.280188 5.906064,5.231733 5.87475,5.182307 5.850266,5.06334 5.845687,5.036957 5.852999,5.00731 5.864744,4.947389 5.865599,4.900775 5.870847,4.86853 5.884261,4.832772 5.903819,4.76075 5.906184,4.747514 5.909552,4.733286 5.913821,4.72165 5.946607,4.592199 5.954061,4.421424 5.954554,4.40177 5.953572,4.388885 5.932128,4.261105 5.93042,4.250986 5.927,4.238663 5.898584,4.110435 5.874091,4.057701 5.867763,4.016724 5.852645,3.924081 5.853457,3.890653 5.857296,3.855267 5.856947,3.819396 5.880271,3.762245 5.886252,3.690986 5.890163,3.67974 5.902666,3.649245 5.903101,3.646672 5.913846,3.632819 5.970127,3.527277 6.025185,3.449637 6.0277,3.447662 6.033588,3.441932 6.06071,3.411497 6.067717,3.405488 6.114944,3.369146 6.139444,3.333824 6.194432,3.308079 6.241586,3.288684 6.273698,3.286652" style="fill: white" />
</svg>
