<svg width="13.600213" height="8.910821">
<polygon type="contour" points="0.500196,1.090492 0.537469,1.109832 0.557929,1.127087 0.566112,1.140675 0.603101,1.183797 0.644385,1.208175 0.649181,1.217776 0.683477,1.226316 0.700477,1.240092 0.710733,1.246251 0.772057,1.292754 0.793475,1.309569 0.818888,1.332228 0.826536,1.339396 0.852466,1.359334 0.868275,1.370888 0.876314,1.395351 0.880127,1.398156 0.883767,1.414433 0.87483,1.446369 0.88786,1.453383 0.889721,1.469831 0.919728,1.498154 0.931855,1.496982 0.99822,1.542684 1.039707,1.562124 1.096678,1.571362 1.112926,1.57994 1.141752,1.577912 1.153867,1.575981 1.174947,1.58155 1.18491,1.581329 1.223152,1.596146 1.243624,1.607734 1.289492,1.661115 1.303294,1.664786 1.312159,1.672729 1.335126,1.713941 1.350575,1.734001 1.353923,1.773481 1.377876,1.805155 1.400436,1.874105 1.403008,1.88481 1.40635,1.895821 1.402612,1.911302 1.4217,1.931635 1.49331,2.017122 1.517657,1.985501 1.524399,1.985633 1.542111,1.989196 1.583853,2.007038 1.595844,2.011842 1.601723,2.013322 1.615014,2.018672 1.628647,2.028921 1.630993,2.030208 1.657482,2.054148 1.667316,2.060565 1.710103,2.086335 1.7353,2.067332 1.742489,2.06367 1.746376,2.060989 1.747674,2.060122 1.774678,2.054251 1.80509,2.025248 1.83109,1.998705 1.838525,1.978177 1.840156,1.971642 1.873156,1.954991 1.883219,1.953121 1.893443,1.94957 1.906982,1.947517 1.91749,1.947926 1.928051,1.948078 1.939584,1.956676 1.942818,1.957722 1.973352,1.989923 2.039827,1.929953 2.066346,1.933457 2.076206,1.93329 2.103816,1.938639 2.107538,1.936186 2.126136,1.937118 2.141036,1.929027 2.149734,1.932966 2.159119,1.938998 2.160546,1.941102 2.171019,1.95974 2.174179,1.984691 2.183094,2.038967 2.220198,2.081713 2.257831,2.073763 2.264345,2.073131 2.303131,2.071185 2.380283,2.072716 2.499679,2.076279 2.513213,2.075163 2.57502,2.041601 2.593907,2.026949 2.622842,2.023223 2.676249,2.018883 2.706516,2.02747 2.743458,2.026798 2.800684,2.009545 2.936282,1.924518 2.964749,1.900942 2.966336,1.894156 2.995079,1.874108 3.045065,1.823262 3.060277,1.815833 3.084412,1.797483 3.092453,1.788397 3.116677,1.761884 3.159027,1.710454 3.165089,1.703198 3.172912,1.695074 3.221766,1.636132 3.233518,1.60189 3.277547,1.543577 3.290262,1.518294 3.298617,1.511119 3.300515,1.510721 3.331002,1.502762 3.336024,1.498336 3.356201,1.487304 3.386242,1.453665 3.397216,1.442449 3.397858,1.440105 3.401456,1.436148 3.404243,1.429373 3.444051,1.378348 3.455994,1.363604 3.497528,1.295774 3.526338,1.265789 3.550506,1.240968 3.572301,1.232479 3.576207,1.220933 3.587914,1.217474 3.594338,1.195901 3.607779,1.185412 3.622331,1.176768 3.681644,1.151837 3.683574,1.150724 3.68545,1.150206 3.686588,1.149908 3.68969,1.149293 3.739867,1.140679 3.748103,1.140455 3.760148,1.141291 3.777147,1.143233 3.784562,1.141736 3.808621,1.144176 3.848341,1.129478 3.893262,1.115158 3.923294,1.1136 3.967568,1.107457 3.994071,1.105212 4.003344,1.102185 4.005633,1.101879 4.007725,1.102198 4.091326,1.113415 4.092199,1.113169 4.093664,1.113602 4.110425,1.135789 4.114532,1.153223 4.120208,1.178895 4.120138,1.179322 4.120131,1.179497 4.103659,1.204548 4.100583,1.213445 4.093591,1.238866 4.091158,1.246531 4.090147,1.25438 4.089238,1.263989 4.084321,1.292609 4.063212,1.378354 4.118993,1.546033 4.128791,1.569467 4.123329,1.606566 4.108969,1.654223 4.079009,1.719779 4.053999,1.768915 4.0519,1.79906 4.089414,1.861218 4.111193,1.940435 4.124853,1.964465 4.140869,1.977232 4.246576,2.052999 4.37457,2.079875 4.423296,2.082381 4.493631,2.081193 4.583654,2.080469 4.725098,2.093493 4.835103,2.099556 4.923762,2.087556 4.995393,2.072916 5.040051,2.072754 5.077208,2.062866 5.136381,2.047777 5.209519,2.022765 5.276462,1.987612 5.352022,1.927332 5.316367,1.836491 5.325048,1.812777 5.30351,1.755409 5.273822,1.671032 5.28325,1.59596 5.295807,1.527051 5.375217,1.449285 5.387639,1.439488 5.419095,1.426954 5.451956,1.430527 5.502034,1.424668 5.542448,1.424725 5.567928,1.425486 5.611798,1.438386 5.686342,1.457215 5.71185,1.471378 5.734156,1.475933 5.761827,1.466973 5.80229,1.455351 5.9456,1.440442 6.05696,1.44004 6.125778,1.436997 6.146669,1.443019 6.186722,1.45841 6.242989,1.462223 6.296803,1.472973 6.495789,1.505186 6.51534,1.50847 6.55045,1.515483 6.710124,1.553064 6.801783,1.591667 6.814942,1.598849 6.950533,1.723605 6.961064,1.732195 6.983194,1.754463 7.043257,1.815309 7.099261,1.851788 7.11684,1.861156 7.124988,1.862374 7.156057,1.877847 7.199042,1.903023 7.245038,1.945142 7.254426,1.953717 7.311948,1.974949 7.358617,2.010802 7.406017,2.046613 7.461239,2.098598 7.479659,2.121779 7.54778,2.197303 7.571765,2.219281 7.635209,2.310131 7.651168,2.339052 7.697944,2.413114 7.749348,2.46553 7.751066,2.468448 7.753022,2.472165 7.765295,2.516765 7.818523,2.577385 7.894219,2.649096 7.936556,2.693683 8.030688,2.787063 8.05897,2.799394 8.075581,2.80931 8.095117,2.831646 8.152668,2.8684 8.17359,2.887891 8.21737,2.923834 8.241203,2.948517 8.268648,2.972213 8.309141,2.987645 8.367141,3.031681 8.421892,3.043928 8.447699,3.056814 8.45333,3.06008 8.505012,3.096544 8.520253,3.098886 8.591354,3.148886 8.689534,3.243085 8.712642,3.27653 8.736322,3.328799 8.749789,3.344675 8.763226,3.365795 8.76725,3.389259 8.806302,3.440077 8.846152,3.472305 8.883792,3.518775 8.905246,3.565079 8.919152,3.592704 8.931066,3.615097 8.94785,3.623109 8.964662,3.629638 8.970853,3.630244 9.000527,3.637897 9.079657,3.690766 9.08831,3.697015 9.090694,3.699318 9.09362,3.703744 9.144104,3.799551 9.147738,3.821469 9.163187,3.848006 9.16776,3.851236 9.174733,3.863928 9.185505,3.896616 9.219126,3.969406 9.230434,3.999658 9.244663,4.066886 9.247917,4.088736 9.243883,4.114269 9.238967,4.166544 9.224779,4.587849 9.226544,4.616603 9.228233,4.638469 9.243822,4.832644 9.232846,4.907557 9.227345,4.929955 9.223705,4.935959 9.218074,4.952662 9.202347,4.985747 9.183199,5.022015 9.180609,5.034879 9.165638,5.064365 9.149019,5.090214 9.145984,5.110499 9.126538,5.15229 9.12191,5.159434 9.116701,5.165133 9.101096,5.197839 9.095875,5.207225 9.092954,5.210561 9.029923,5.25901 8.977596,5.277569 8.970057,5.281768 8.964839,5.282065 8.954927,5.285058 8.933889,5.292601 8.920893,5.316019 8.906944,5.343283 8.887213,5.392675 8.846712,5.438037 8.80447,5.463158 8.792042,5.476719 8.750858,5.581371 8.745884,5.585588 8.741083,5.591573 8.652354,5.708162 8.589543,5.769106 8.562403,5.792746 8.541915,5.7991 8.45655,5.849544 8.453074,5.852096 8.443887,5.857305 8.411044,5.876431 8.265924,5.949665 8.235914,5.963775 8.210331,5.987452 8.204464,5.995704 8.167476,6.025108 8.043901,6.127258 8.036257,6.136809 8.001836,6.154723 7.987677,6.160791 7.975864,6.172746 7.957667,6.189588 7.918747,6.242702 7.887992,6.269306 7.764406,6.394523 7.748304,6.447991 7.745711,6.45231 7.723169,6.481499 7.622296,6.608442 7.595817,6.645246 7.585363,6.659578 7.490209,6.779733 7.480671,6.792572 7.464302,6.810293 7.410451,6.861045 7.33293,6.906727 7.264596,6.962142 7.239375,6.970997 7.20195,7.00587 7.155076,7.033902 7.126775,7.04833 7.11955,7.049338 7.107643,7.056298 7.096167,7.06188 7.041034,7.098998 7.00014,7.129748 6.98752,7.152895 6.965255,7.174734 6.825022,7.303382 6.817956,7.309986 6.816097,7.311997 6.815487,7.312598 6.802796,7.319286 6.711619,7.35848 6.552813,7.395061 6.50032,7.404322 6.468746,7.417707 6.441356,7.422498 6.341533,7.440449 6.26387,7.448167 6.200224,7.453201 6.163821,7.46868 6.139793,7.472984 6.085472,7.477351 6.060884,7.473022 5.802068,7.455358 5.783009,7.441269 5.74884,7.436358 5.728582,7.434937 5.698973,7.451049 5.660834,7.464364 5.541531,7.484105 5.493909,7.489765 5.460759,7.483647 5.447241,7.48372 5.439909,7.482104 5.416844,7.48263 5.402229,7.480762 5.387317,7.471998 5.332473,7.419171 5.328832,7.416477 5.314439,7.392124 5.272584,7.328412 5.273336,7.318722 5.278897,7.26005 5.280409,7.250219 5.288144,7.221724 5.285189,7.201711 5.298677,7.159361 5.323073,7.042157 5.333541,6.991763 5.305325,6.952489 5.276636,6.92583 5.116775,6.863364 5.06293,6.842521 5.02307,6.844642 4.864268,6.834801 4.859905,6.834602 4.857528,6.834336 4.823112,6.807578 4.791298,6.81312 4.686872,6.821827 4.594035,6.821505 4.48128,6.831853 4.456629,6.833878 4.388721,6.83452 4.265812,6.845853 4.229214,6.873108 4.141126,6.958692 4.119514,6.977585 4.096252,7.013627 4.072876,7.082046 4.064866,7.089744 4.056742,7.148714 4.062414,7.163271 4.067227,7.181106 4.126117,7.318397 4.128673,7.354868 4.1214,7.405286 4.095976,7.460876 4.085589,7.483668 4.060583,7.539118 4.084338,7.648133 4.086069,7.662664 4.089488,7.672633 4.09992,7.69622 4.102831,7.706588 4.120475,7.732212 4.120933,7.733313 4.12098,7.734243 4.114703,7.764784 4.109507,7.775716 4.097613,7.793715 4.093819,7.797883 4.090066,7.799421 4.070212,7.799715 3.989452,7.804067 3.980202,7.80482 3.976552,7.805055 3.971423,7.800819 3.951264,7.797863 3.934287,7.79938 3.909114,7.797839 3.896728,7.795587 3.872757,7.793683 3.848265,7.78167 3.828751,7.773532 3.81584,7.76795 3.800032,7.768127 3.79347,7.766076 3.738479,7.771191 3.707565,7.765081 3.689956,7.757107 3.618306,7.732737 3.616544,7.731949 3.596305,7.715462 3.590043,7.709421 3.573402,7.67545 3.550609,7.670679 3.521619,7.638619 3.480232,7.590143 3.424676,7.509427 3.421362,7.504066 3.357082,7.425265 3.329721,7.405844 3.315942,7.405271 3.285162,7.379603 3.2342,7.305973 3.22318,7.272677 3.200173,7.247104 3.199405,7.245266 3.188335,7.231125 3.163777,7.203662 3.091531,7.122086 3.066999,7.110238 3.023806,7.075913 2.984088,7.032633 2.966045,7.017031 2.960847,7.002439 2.946699,6.99151 2.917551,6.971211 2.903079,6.962151 2.807093,6.908218 2.788866,6.892326 2.775727,6.886344 2.745771,6.879925 2.726131,6.89033 2.700331,6.901502 2.519938,6.851378 2.499912,6.838964 2.483304,6.833717 2.421262,6.830566 2.308175,6.837929 2.263478,6.838576 2.252069,6.836226 2.217363,6.83738 2.198545,6.862742 2.184439,6.879643 2.176456,6.92571 2.175503,6.933307 2.160568,6.970485 2.159137,6.972595 2.149725,6.978649 2.141033,6.982593 2.126129,6.9745 2.107538,6.975433 2.103461,6.972745 2.080334,6.97795 2.05616,6.977396 2.039497,6.978453 2.026149,6.969803 2.017974,6.964589 2.015054,6.963893 1.981983,6.920791 1.929879,6.962882 1.928747,6.963244 1.928044,6.963486 1.927651,6.96349 1.907376,6.9631 1.886592,6.95903 1.877335,6.957884 1.840957,6.939596 1.834686,6.913984 1.774355,6.866634 1.764956,6.863256 1.761915,6.862161 1.759216,6.860502 1.70599,6.827763 1.667316,6.851052 1.657481,6.857472 1.630992,6.881412 1.629262,6.882237 1.615015,6.892947 1.601725,6.898296 1.595845,6.899776 1.583853,6.904581 1.542112,6.922425 1.5244,6.925986 1.517656,6.926118 1.493787,6.895117 1.450061,6.94786 1.402303,6.998819 1.406477,7.015299 1.40267,7.02598 1.397843,7.02804 1.384322,7.093223 1.348893,7.169705 1.3485,7.170568 1.345877,7.174763 1.320869,7.221697 1.313356,7.236093 1.295087,7.255428 1.282317,7.264417 1.276406,7.268184 1.246773,7.298592 1.230713,7.313397 1.215033,7.323022 1.185257,7.330369 1.17532,7.33017 1.153802,7.335711 1.14673,7.334582 1.125642,7.330987 1.108155,7.342283 1.053778,7.347838 1.04044,7.352437 0.996871,7.370294 0.950388,7.396993 0.911641,7.424247 0.876029,7.451566 0.88314,7.484859 0.883321,7.49553 0.872683,7.52995 0.82961,7.574252 0.820111,7.578213 0.802879,7.593234 0.718644,7.655103 0.707255,7.665948 0.703794,7.668026 0.698217,7.675322 0.598839,7.730878 0.591338,7.746201 0.514766,7.802025 0.501978,7.812278 0.499373,7.815273 0.494304,7.818453 0.487951,7.822866 0.450458,7.819085 0.445677,7.817187 0.293559,7.756536 0.265631,7.741107 0.245107,7.726174 0.239501,7.7203 0.130558,7.602449 0.126628,7.596653 0.11868,7.567189 0.106884,7.500228 0.105527,7.460143 0.112824,7.428153 0.126096,7.346665 0.123023,7.328676 0.129902,7.296187 0.151603,7.25887 0.134419,7.232982 0.121967,7.190002 0.121402,7.156441 0.118809,7.148769 0.127086,7.106809 0.18864,6.801702 0.19464,6.788661 0.244128,6.611176 0.250213,6.489744 0.253899,6.471916 0.256059,6.462748 0.257979,6.453393 0.260828,6.442218 0.294775,6.278269 0.289082,6.242168 0.282773,6.228071 0.29691,6.088913 0.312798,5.981592 0.32573,5.926864 0.322909,5.911065 0.348342,5.782012 0.352432,5.774289 0.355406,5.761458 0.357019,5.75608 0.358328,5.743791 0.36104,5.704724 0.378813,5.580299 0.388818,5.559221 0.389608,5.513838 0.393675,5.505292 0.472491,5.243006 0.496148,5.185656 0.490178,5.129577 0.486883,5.117221 0.486004,5.115366 0.449442,5.001234 0.434356,4.868998 0.417243,4.770505 0.418999,4.751805 0.422336,4.727317 0.429556,4.64898 0.429033,4.631386 0.437278,4.592902 0.457101,4.524505 0.477049,4.487875 0.476616,4.474301 0.483992,4.440149 0.475965,4.419291 0.468952,4.399507 0.441213,4.344848 0.436153,4.31758 0.425593,4.269865 0.422526,4.206766 0.422697,4.18165 0.425974,4.089041 0.440372,3.981773 0.46735,3.859797 0.470611,3.839608 0.476654,3.822842 0.487517,3.77413 0.486709,3.770222 0.490237,3.753173 0.499698,3.732112 0.4364,3.608058 0.421364,3.567673 0.401442,3.456607 0.393632,3.407736 0.39218,3.405193 0.388862,3.38278 0.386835,3.348818 0.382008,3.338711 0.36453,3.246637 0.363373,3.192022 0.354637,3.164086 0.331781,3.05666 0.326978,3.000841 0.324977,2.982031 0.312157,2.928787 0.292977,2.811683 0.282674,2.738526 0.283376,2.683607 0.291206,2.668604 0.295704,2.62319 0.262336,2.474975 0.258399,2.459502 0.254797,2.444993 0.248169,2.423966 0.24988,2.413047 0.22465,2.203828 0.213034,2.180416 0.185926,2.108533 0.167678,2.049458 0.127752,1.794598 0.120931,1.749782 0.125275,1.708692 0.144446,1.670116 0.142389,1.63453 0.134876,1.614775 0.127689,1.56437 0.119942,1.533495 0.111877,1.508 0.109943,1.472252 0.106392,1.393517 0.120399,1.348002 0.136339,1.310409 0.143567,1.299905 0.156043,1.286624 0.208354,1.219215 0.214097,1.212507 0.231376,1.19686 0.244663,1.185409 0.267605,1.17288 0.44984,1.092952 0.455574,1.0907 0.487575,1.088319" style="fill: white" /><polygon type="hole" points="4.245845,2.295366 4.06303,2.355454 3.996191,2.387422 3.903067,2.390991 3.784655,2.404801 3.486539,2.42593 3.439194,2.436436 3.408982,2.453582 3.396616,2.461244 3.374945,2.478029 3.227238,2.611328 3.166085,2.690787 3.158362,2.701289 3.092626,2.777559 3.062289,2.826181 3.037672,2.862101 3.023889,2.876853 2.906087,3.018946 2.898931,3.028141 2.893102,3.035544 2.826539,3.202007 2.777447,3.310388 2.74432,3.395305 2.718474,3.441289 2.636076,3.707656 2.636022,3.804262 2.637077,3.871948 2.685529,3.967845 2.684422,3.98292 2.689515,4.016744 2.677314,4.039381 2.679167,4.080574 2.705962,4.112043 2.720888,4.12778 2.730182,4.137688 2.742286,4.163208 2.748304,4.173308 2.747276,4.179729 2.73392,4.195786 2.702794,4.286497 2.696347,4.303237 2.693616,4.309093 2.618289,4.470684 2.622954,4.506367 2.626186,4.510565 2.629011,4.520043 2.643891,4.531679 2.72419,4.633756 2.746733,4.683381 2.750425,4.695418 2.741325,4.726333 2.703951,4.787113 2.672482,4.833258 2.678464,4.859642 2.691321,4.887356 2.668999,4.967798 2.668786,4.970242 2.655807,5.001729 2.639301,5.036189 2.63265,5.162025 2.632981,5.172713 2.639157,5.197278 2.690729,5.382678 2.719065,5.486166 2.795499,5.653312 2.88184,5.829273 3.014308,6.021959 3.024266,6.033429 3.083395,6.128735 3.089961,6.137181 3.0927,6.143471 3.102413,6.157286 3.193439,6.264754 3.250603,6.330954 3.274263,6.351418 3.437518,6.47462 3.548282,6.500821 3.55295,6.501894 3.554273,6.502039 3.555548,6.502342 3.685689,6.511597 3.816512,6.517527 3.970989,6.520339 4.041537,6.552943 4.310994,6.631231 4.389469,6.535823 4.417527,6.532389 4.716362,6.524684 4.839888,6.515073 5.403063,6.508663 5.439377,6.498992 5.477672,6.477451 5.65549,6.390601 5.938612,6.2487 6.055716,6.203177 6.074245,6.199943 6.096438,6.191839 6.336907,6.095709 6.444038,6.040022 6.728144,5.888045 6.826154,5.818476 6.850683,5.808376 6.954474,5.722909 7.117788,5.588225 7.185968,5.53306 7.22978,5.394049 7.28782,5.267631 7.333708,5.197418 7.371106,5.137501 7.404365,5.017062 7.410053,4.987037 7.431377,4.884074 7.441261,4.855375 7.505315,4.688895 7.511277,4.666162 7.513606,4.642244 7.537665,4.486771 7.526406,4.305008 7.518795,4.235237 7.5042,4.165726 7.460788,4.077616 7.443354,4.048442 7.417717,3.900767 7.368514,3.780632 7.334119,3.714293 7.284788,3.634309 7.24015,3.493754 7.195107,3.403387 7.167408,3.371122 7.030409,3.239144 7.009737,3.222459 6.910544,3.150649 6.737017,3.032688 6.456303,2.874602 6.406347,2.844718 6.393705,2.838494 6.387976,2.833853 6.380198,2.829863 6.37179,2.826857 6.225068,2.766803 6.15575,2.740051 6.115631,2.733754 5.966262,2.673789 5.90039,2.649 5.615754,2.505827 5.460868,2.423177 5.394277,2.402416 5.295103,2.395718 5.265979,2.39393 4.91073,2.397242 4.742264,2.391935 4.716103,2.386499 4.417563,2.372522 4.384392,2.364929 4.367252,2.355805 4.309141,2.284169" style="fill: black" /><polygon type="contour" points="5.724398,2.909687 5.771306,2.914553 5.794098,2.919506 5.82449,2.931089 5.84074,2.945134 5.85195,2.953132 5.862622,2.958582 5.908799,2.984408 5.922262,3.015227 5.939241,3.052768 5.949439,3.078247 5.945201,3.166845 5.94408,3.172749 5.943338,3.23877 5.943356,3.243508 5.942546,3.246214 5.940414,3.266857 5.938646,3.364813 5.939869,3.422045 5.931283,3.49675 5.930313,3.549397 5.940554,3.592615 5.953989,3.768577 5.955147,3.78101 5.958166,3.790303 6.080483,4.087485 6.088265,4.114738 6.102103,4.157644 6.122695,4.173294 6.180741,4.269623 6.18948,4.28274 6.205907,4.331219 6.206411,4.334113 6.206176,4.342125 6.208951,4.397049 6.210359,4.417049 6.222798,4.449805 6.230324,4.488556 6.227383,4.513031 6.196393,4.599741 6.187093,4.638106 6.185465,4.64298 6.17498,4.661725 6.066692,4.868582 6.049047,4.885686 6.038827,4.908069 5.983161,5.063674 5.960071,5.152182 5.957599,5.174267 5.946554,5.249339 5.931549,5.387783 5.932504,5.416117 5.94088,5.502828 5.948749,5.536038 5.950835,5.66524 5.951073,5.680234 5.946929,5.701102 5.93988,5.747585 5.945518,5.806578 5.94652,5.815203 5.945634,5.818928 5.90617,5.896286 5.887289,5.933813 5.884357,5.939705 5.876656,5.947928 5.871947,5.950258 5.860586,5.964907 5.83356,5.98031 5.79692,5.995898 5.737283,6.000728 5.724909,6.004051 5.690435,6.002578 5.645627,5.996136 5.635749,5.994019 5.587736,5.97626 5.565136,5.965407 5.534728,5.967222 5.484417,5.953574 5.430662,5.925165 5.414016,5.912181 5.391992,5.907516 5.389567,5.905368 5.360961,5.886573 5.271421,5.825295 5.258438,5.812036 5.196699,5.737617 5.166277,5.699789 5.155955,5.68456 5.099537,5.575195 5.086923,5.542693 5.044374,5.396308 5.041137,5.366317 5.026574,5.319478 5.020979,5.274665 5.018096,5.225908 5.013647,5.145217 5.01227,5.10462 5.013779,5.089767 5.013919,5.078942 5.034648,4.916294 5.048998,4.856225 5.064869,4.801631 5.095186,4.716228 5.118125,4.665874 5.127053,4.600057 5.133571,4.569604 5.132274,4.454259 5.134872,4.402951 5.13598,4.379362 5.129695,4.354957 5.127297,4.310865 5.123562,4.281885 5.054583,4.083933 5.044808,4.025136 5.034793,3.995 5.023892,3.930072 5.013065,3.838216 5.011945,3.719142 5.021757,3.617686 5.042887,3.532039 5.069553,3.435734 5.085608,3.381302 5.095312,3.347808 5.141594,3.257599 5.161022,3.221994 5.193115,3.172907 5.239841,3.11717 5.25705,3.099185 5.260904,3.09621 5.314359,3.064387 5.354214,3.046755 5.382324,3.009424 5.383443,3.008565 5.384594,3.007742 5.392629,3.003497 5.486759,2.956796 5.503078,2.949956 5.543567,2.942137 5.570377,2.936643 5.676882,2.914085 5.710378,2.908724" style="fill: white" />
</svg>
