<svg width="13.600213" height="8.910821">
<polygon type="contour" points="9.201623,0.062331 9.252913,0.068606 9.256843,0.06951 9.268729,0.071917 9.293404,0.08544 9.324276,0.07986 9.365582,0.095975 9.378801,0.102401 9.384714,0.103338 9.54637,0.177657 9.553157,0.183936 9.557086,0.189858 9.595274,0.228465 9.628745,0.214719 9.639234,0.210801 9.661573,0.227063 9.698711,0.253223 9.721036,0.271261 9.729848,0.278333 9.888813,0.397848 9.897341,0.405031 9.899242,0.410758 9.905444,0.433065 9.891218,0.506132 9.981346,0.508749 9.997073,0.508086 10.005493,0.511104 10.059864,0.527027 10.179111,0.552564 10.20567,0.573643 10.282908,0.591718 10.349762,0.603518 10.368852,0.610305 10.402044,0.612198 10.405941,0.612658 10.413358,0.612681 10.448268,0.617056 10.583566,0.620514 10.609466,0.604924 10.621709,0.605296 10.683398,0.601402 10.691525,0.600208 10.750788,0.595059 10.773674,0.593558 10.812981,0.592327 10.841053,0.591656 10.847144,0.591487 10.90438,0.591752 10.908176,0.592224 10.914212,0.597741 10.929326,0.603659 10.943815,0.644901 10.978011,0.654322 10.985724,0.656838 11.034331,0.671268 11.088414,0.686382 11.182693,0.735574 11.219679,0.756415 11.253216,0.756535 11.257602,0.755301 11.262729,0.755091 11.27902,0.748352 11.300508,0.753558 11.343685,0.767638 11.409049,0.797904 11.439616,0.814837 11.478199,0.836994 11.545792,0.881979 11.569214,0.926219 11.572303,0.959192 11.593254,0.99058 11.646651,1.022564 11.766311,1.108896 11.779446,1.116201 11.793435,1.118406 11.840081,1.130663 11.848076,1.133872 11.863914,1.140273 11.971364,1.164193 12.117305,1.271544 12.170139,1.302758 12.186997,1.320315 12.200309,1.350388 12.212721,1.371094 12.306082,1.46798 12.311619,1.473606 12.314674,1.476003 12.322005,1.483247 12.333481,1.492325 12.482254,1.644537 12.645148,1.850131 12.652166,1.857508 12.660451,1.869093 12.794998,2.057472 12.809889,2.071169 12.84128,2.120305 12.885677,2.176584 12.899281,2.194849 13.000838,2.348533 13.137688,2.553347 13.14752,2.57687 13.178582,2.639496 13.222909,2.736462 13.236048,2.772267 13.311032,2.958637 13.314047,2.969905 13.327412,3.018034 13.353035,3.108076 13.363073,3.145001 13.375381,3.232284 13.371754,3.243035 13.377192,3.271856 13.383342,3.283102 13.386965,3.292173 13.408421,3.414569 13.444685,3.546809 13.453435,3.572273 13.456242,3.576476 13.458896,3.586214 13.509544,3.860075 13.514283,3.878803 13.522802,3.972736 13.533973,4.141654 13.542032,4.357174 13.54174,4.559511 13.53573,4.759987 13.525037,4.89666 13.514053,5.032749 13.512587,5.037601 13.511179,5.04402 13.459065,5.327366 13.449873,5.359159 13.443195,5.367505 13.421901,5.47768 13.422341,5.481634 13.413586,5.531163 13.41005,5.544058 13.408446,5.554003 13.403341,5.561621 13.378479,5.641562 13.370389,5.672755 13.373544,5.685291 13.359812,5.792706 13.347156,5.842667 13.344274,5.861863 13.329628,5.885631 13.314504,5.941839 13.301703,5.987683 13.226079,6.158619 13.224862,6.161349 13.218904,6.17803 13.16525,6.295202 13.087086,6.427493 13.06032,6.476363 13.023603,6.534133 12.89608,6.722232 12.890396,6.72819 12.871381,6.745873 12.865433,6.767896 12.808464,6.845046 12.668903,7.031164 12.651629,7.059568 12.632708,7.086419 12.606548,7.117772 12.596745,7.127652 12.497429,7.248572 12.292243,7.452213 12.274925,7.472571 12.228976,7.537684 12.189675,7.589948 12.184776,7.598098 12.14059,7.627837 11.924064,7.767663 11.912059,7.771482 11.846699,7.766192 11.814146,7.782391 11.757826,7.812715 11.715359,7.837453 11.61701,7.902199 11.597331,7.9187 11.578654,7.945289 11.571652,7.958736 11.569168,7.985432 11.562714,7.996041 11.559598,8.007086 11.543061,8.02728 11.538768,8.03578 11.501158,8.059717 11.437029,8.093811 11.374931,8.118819 11.286548,8.154385 11.245228,8.141416 11.211873,8.163655 11.159166,8.186607 11.141854,8.19883 11.121947,8.209507 11.087164,8.221722 11.009444,8.247134 10.976104,8.258434 10.943395,8.267038 10.929371,8.307773 10.886433,8.323211 10.885464,8.323926 10.884862,8.324016 10.883729,8.324023 10.801778,8.320394 10.686062,8.313142 10.608607,8.306343 10.584272,8.291586 10.450743,8.294331 10.427527,8.297298 10.382195,8.299877 10.362184,8.306858 10.303596,8.31461 10.300835,8.317317 10.255294,8.327676 10.22259,8.334273 10.210402,8.347005 10.054962,8.39229 9.994152,8.408775 9.890019,8.402369 9.905995,8.480133 9.899007,8.503207 9.897113,8.507587 9.886735,8.515417 9.817552,8.565107 9.799257,8.583378 9.677671,8.676232 9.654686,8.69106 9.653999,8.692374 9.642466,8.698165 9.63939,8.699372 9.638274,8.699063 9.594891,8.684453 9.56342,8.712675 9.556375,8.724771 9.551546,8.729123 9.501194,8.76531 9.360369,8.822417 9.322638,8.833496 9.317635,8.832948 9.289818,8.827705 9.248083,8.847334 9.212596,8.857717 9.202283,8.859103 9.19706,8.859403 9.185739,8.861068 9.10226,8.86481 8.912063,8.797643 8.83572,8.769459 8.800905,8.765111 8.717518,8.708502 8.675308,8.710368 8.613552,8.696145 8.591695,8.701178 8.50942,8.722946 8.465979,8.74112 8.430415,8.746384 8.427613,8.746418 8.410122,8.750432 8.402937,8.753183 8.38771,8.753151 8.249758,8.751074 8.238899,8.750533 8.234707,8.747959 8.044093,8.755337 8.042173,8.755641 8.036109,8.755356 7.78967,8.739414 7.739198,8.730525 7.551854,8.687895 7.5446,8.686181 7.538024,8.684925 7.526635,8.684585 7.412945,8.675586 7.385815,8.673284 7.362183,8.68457 7.352174,8.686697 7.33872,8.692943 7.329343,8.690302 7.216343,8.658897 7.195932,8.647158 7.164258,8.629034 7.128004,8.626124 7.058391,8.602505 7.018719,8.602773 6.992915,8.595683 6.856762,8.555614 6.833689,8.553161 6.789532,8.539358 6.768923,8.52745 6.73106,8.501343 6.725108,8.493588 6.696282,8.481265 6.651824,8.46109 6.602346,8.473908 6.531127,8.453487 6.424015,8.415449 6.3337,8.379935 6.311479,8.363777 6.277387,8.328151 6.132793,8.28832 6.014535,8.233656 5.971475,8.215895 5.963787,8.20469 5.944023,8.166592 5.905227,8.181006 5.879874,8.178478 5.876811,8.177263 5.804125,8.146309 5.686683,8.087369 5.680897,8.086466 5.673301,8.081474 5.667642,8.0801 5.660804,8.076519 5.654542,8.0713 5.642636,8.067038 5.619411,8.051906 5.585477,8.035107 5.566324,8.022524 5.559049,8.002039 5.566163,7.964727 5.506815,7.929438 5.495291,7.923874 5.489541,7.919674 5.460544,7.908185 5.432679,7.912243 5.425018,7.909187 5.404918,7.903 5.387314,7.898566 5.315007,7.9116 5.281467,7.929082 5.260313,7.931471 5.249403,7.932212 5.196457,7.939158 5.174182,7.939121 5.159141,7.932024 5.141983,7.919339 5.113473,7.910437 5.071442,7.817597 5.053301,7.792285 5.041903,7.777956 4.983797,7.627145 4.956898,7.563886 4.94705,7.551591 4.942334,7.545089 4.907476,7.517389 4.890161,7.50647 4.779253,7.42908 4.697315,7.367986 4.657586,7.339312 4.531627,7.214009 4.498804,7.183359 4.462702,7.159584 4.458674,7.154407 4.446459,7.149743 4.409658,7.125351 4.313515,7.024504 4.280267,6.98611 4.246618,6.950328 4.138771,6.826134 3.991326,6.650017 3.989234,6.632779 3.955576,6.584215 3.952021,6.579114 3.932952,6.560023 3.877074,6.488654 3.847538,6.462181 3.679133,6.250297 3.606474,6.16169 3.580764,6.12843 3.550114,6.090213 3.505898,6.035377 3.495289,6.02074 3.471691,6.004067 3.457371,5.997787 3.433024,5.983001 3.397039,5.918069 3.389423,5.90347 3.388964,5.902523 3.38701,5.898584 3.383655,5.891414 3.363477,5.832277 3.359024,5.818462 3.358734,5.808524 3.338572,5.772331 3.30703,5.680059 3.306574,5.678051 3.306751,5.675266 3.300257,5.639052 3.220881,5.565211 3.163328,5.539063 3.071372,5.400937 3.053997,5.38948 3.049939,5.381883 3.046831,5.361239 3.034058,5.316915 3.033657,5.302176 3.035132,5.242597 3.019277,5.218481 2.995243,5.187326 2.990488,5.13757 2.990796,5.121749 2.992389,5.102378 2.997813,5.077325 3.00334,5.045831 3.007557,5.007141 3.010826,4.967009 3.009877,4.956479 3.013844,4.947552 3.017297,4.942532 3.022466,4.914868 3.017325,4.899217 3.005113,4.809229 3.007284,4.799725 2.984403,4.519707 2.982495,4.514597 2.980282,4.483607 2.982566,4.37896 3.000431,4.296008 2.996887,4.195746 3.01499,4.061428 3.026486,3.976249 3.012783,3.964106 3.009871,3.955138 3.010866,3.949829 3.008714,3.915956 2.998055,3.839681 2.992232,3.813919 2.993853,3.778519 2.987833,3.758261 2.987677,3.740946 2.995137,3.718607 3.017887,3.693302 3.033232,3.672048 3.03689,3.6456 3.041133,3.606383 3.035959,3.548409 3.040781,3.538072 3.090402,3.481356 3.093088,3.472462 3.107716,3.455598 3.309663,3.255941 3.315751,3.216621 3.314003,3.205925 3.317895,3.195496 3.328105,3.167615 3.334345,3.150795 3.349593,3.109666 3.374631,3.057607 3.388426,3.010728 3.392902,3.001816 3.393374,3.00083 3.404795,2.979515 3.424255,2.944685 3.434419,2.9272 3.45478,2.915655 3.474123,2.905066 3.475242,2.901968 3.498522,2.886943 3.50761,2.875188 3.544848,2.824597 3.567256,2.79413 3.5784,2.778439 3.633683,2.704972 3.651493,2.689162 3.748604,2.575495 3.846563,2.451964 3.875901,2.431188 3.883809,2.418687 3.8893,2.405673 3.962772,2.312934 3.975086,2.294751 3.984912,2.284056 3.989461,2.277859 4.018127,2.23476 4.055309,2.176654 4.090907,2.134394 4.252698,1.955391 4.297675,1.90631 4.410238,1.787665 4.417205,1.78323 4.45506,1.757635 4.488152,1.725752 4.593667,1.632262 4.635218,1.59222 4.664247,1.562775 4.698251,1.537705 4.720866,1.527584 4.860052,1.435398 4.895044,1.417899 4.953692,1.345602 4.987354,1.282671 5.018784,1.164879 5.027315,1.144224 5.049902,1.116073 5.087599,1.057554 5.099725,1.026282 5.148284,0.979691 5.177714,0.976776 5.240636,0.980301 5.26203,0.973287 5.280488,0.983212 5.305556,0.999712 5.382376,1.011497 5.405144,1.008544 5.416919,1.004949 5.428826,0.999539 5.467144,1.002498 5.490682,0.988969 5.506775,0.982062 5.519953,0.9748 5.556158,0.953902 5.556132,0.92356 5.558009,0.918901 5.558798,0.906087 5.562956,0.890681 5.570726,0.884275 5.605375,0.866417 5.636266,0.842158 5.67496,0.828021 5.685762,0.813501 5.709598,0.802789 5.72896,0.797034 5.751201,0.78394 5.753413,0.781773 5.762074,0.777386 5.798618,0.761393 5.888219,0.73716 5.905284,0.73069 5.940629,0.743868 5.968477,0.696932 5.976638,0.693254 5.991807,0.684921 6.087769,0.649436 6.182122,0.618597 6.269543,0.58596 6.291677,0.567388 6.295998,0.556647 6.299229,0.550822 6.319537,0.539133 6.331299,0.533453 6.349447,0.526675 6.403105,0.504555 6.442012,0.487297 6.555432,0.453475 6.573195,0.44759 6.60424,0.441136 6.616216,0.445644 6.643745,0.448379 6.661346,0.448725 6.687425,0.441956 6.73693,0.415524 6.764773,0.400096 6.781877,0.379973 6.852115,0.344582 6.917722,0.331805 6.94066,0.326306 7.033235,0.30565 7.06369,0.303993 7.145897,0.299678 7.157961,0.28513 7.244315,0.244294 7.340782,0.219063 7.350255,0.222953 7.37554,0.244437 7.411094,0.237995 7.414205,0.236567 7.472004,0.231582 7.537777,0.227136 7.541556,0.226039 7.61138,0.210555 8.010093,0.160952 8.041406,0.156971 8.052515,0.156045 8.055976,0.157207 8.083644,0.158962 8.217291,0.163513 8.235766,0.16103 8.257943,0.162215 8.277789,0.160471 8.280627,0.159999 8.315745,0.159343 8.359477,0.158348 8.384472,0.158299 8.421162,0.166058 8.430049,0.164736 8.43902,0.166818 8.453174,0.16757 8.480314,0.172466 8.522318,0.192751 8.609542,0.21525 8.639741,0.218447 8.659284,0.217207 8.676947,0.214316 8.696723,0.206175 8.755135,0.168215 8.784775,0.163368 8.814047,0.146292 8.906698,0.107794 9.026966,0.066277 9.062723,0.050031 9.086552,0.049986" style="fill: white" />
</svg>
