<svg width="13.600213" height="8.910821">
<polygon type="contour" points="8.519766,1.260156 8.537828,1.265759 8.69712,1.300883 8.697811,1.301058 8.698484,1.301358 8.702833,1.30358 8.730598,1.321048 8.743444,1.333159 8.759365,1.357364 8.764984,1.360813 8.776352,1.375499 8.786652,1.410095 8.798355,1.467658 8.852016,1.523701 8.874224,1.552206 8.893911,1.567851 8.908797,1.588636 8.919683,1.603874 8.960854,1.645253 9.012114,1.688287 9.053187,1.719674 9.135433,1.756387 9.13926,1.759053 9.148558,1.764237 9.178342,1.791497 9.220074,1.815233 9.366958,1.898714 9.404197,1.920893 9.420857,1.941925 9.467749,1.971183 9.483056,1.980324 9.55983,2.004273 9.577228,1.997955 9.588816,1.996783 9.620612,2.002015 9.633326,2.002104 9.64426,2.00515 9.655514,2.008265 9.885341,2.063416 9.926403,2.083569 9.945859,2.090072 9.967441,2.104959 10.025352,2.145621 10.06145,2.161701 10.078987,2.171839 10.079247,2.173223 10.100523,2.191891 10.114703,2.200422 10.127395,2.214164 10.143005,2.231506 10.15353,2.235686 10.157948,2.257951 10.176344,2.268362 10.182959,2.283403 10.196871,2.287532 10.199879,2.291454 10.211279,2.296897 10.230637,2.306901 10.253544,2.317152 10.297223,2.348935 10.308411,2.355485 10.313116,2.362894 10.32401,2.37019 10.33626,2.377227 10.338206,2.378138 10.389018,2.403209 10.399663,2.40788 10.410824,2.419874 10.42004,2.426453 10.45595,2.443416 10.519767,2.492472 10.581938,2.557213 10.598007,2.578845 10.623564,2.607908 10.6334,2.636801 10.682264,2.708629 10.695024,2.728963 10.7297,2.764201 10.78975,2.835652 10.803599,2.853031 10.805218,2.864969 10.834475,2.898343 10.839283,2.907565 10.97176,2.999257 11.079551,3.039688 11.10112,3.048255 11.10456,3.050199 11.123414,3.072654 11.195891,3.133043 11.253335,3.169047 11.365883,3.22431 11.392264,3.237083 11.402279,3.246217 11.439509,3.274908 11.502707,3.328826 11.512928,3.342524 11.548864,3.403478 11.551005,3.40533 11.554284,3.410195 11.557833,3.417966 11.649037,3.548815 11.682059,3.622466 11.684206,3.635443 11.688957,3.654307 11.69008,3.667561 11.690964,3.673204 11.700436,3.703234 11.711203,3.725136 11.717914,3.744285 11.74644,3.801227 11.766095,3.87966 11.784584,3.946902 11.791316,3.972493 11.830988,4.081318 11.925739,4.370652 11.930728,4.502478 11.933188,4.535984 11.925467,4.562221 11.831407,4.827894 11.778949,4.973409 11.75049,5.113404 11.744496,5.134358 11.717906,5.173768 11.712416,5.185251 11.705856,5.211156 11.687247,5.262404 11.683376,5.281051 11.588893,5.453593 11.582314,5.474347 11.561518,5.498677 11.531604,5.545194 11.5128,5.570561 11.438258,5.637626 11.387605,5.676952 11.377793,5.680138 11.246071,5.751398 11.222785,5.763359 11.040858,5.884232 11.036165,5.888355 11.012098,5.899262 10.947462,5.940987 10.853174,5.994794 10.844229,5.997026 10.822852,6.012295 10.808896,6.039498 10.808901,6.048992 10.8031,6.058591 10.801421,6.064361 10.782435,6.09411 10.762129,6.116689 10.752926,6.128108 10.722006,6.157871 10.719147,6.165061 10.679628,6.21399 10.674778,6.229293 10.664791,6.237069 10.614817,6.305285 10.605161,6.323819 10.58349,6.348006 10.570207,6.366114 10.529181,6.396171 10.418477,6.486404 10.410815,6.491906 10.399725,6.503801 10.389073,6.508463 10.312661,6.548585 10.308137,6.555775 10.287551,6.573141 10.231808,6.603287 10.197453,6.621645 10.196413,6.626028 10.195436,6.62616 10.173732,6.649983 10.157558,6.655634 10.153527,6.675932 10.144452,6.679523 10.122683,6.701737 10.114891,6.71058 10.098231,6.720803 10.093284,6.725254 10.071068,6.742839 10.070842,6.743579 10.067082,6.746537 10.05371,6.754272 10.036013,6.761461 9.980288,6.799424 9.948559,6.81986 9.933367,6.824828 9.900863,6.842125 9.842487,6.861719 9.751757,6.88886 9.745465,6.89141 9.654992,6.910294 9.616872,6.915427 9.558402,6.917471 9.552841,6.922465 9.531734,6.9158 9.502017,6.922278 9.485069,6.932099 9.457301,6.944355 9.420949,6.969603 9.404779,6.990318 9.390201,6.998738 9.356352,7.018977 9.244605,7.080741 9.19334,7.115666 9.14878,7.145852 9.066105,7.189233 9.042858,7.209549 9.003088,7.232135 8.988141,7.259511 8.908293,7.323518 8.890952,7.349412 8.849251,7.386107 8.828897,7.430617 8.787185,7.499105 8.769326,7.539528 8.713352,7.596716 8.66442,7.613917 8.578585,7.640975 8.53835,7.649785 8.497426,7.65377 8.479371,7.654962 8.452357,7.650758 8.415269,7.636128 8.323581,7.596642 8.304239,7.593505 8.290485,7.582729 8.233604,7.539539 8.1892,7.534398 8.148829,7.530847 8.055941,7.511297 8.045413,7.515198 7.966291,7.50888 7.820436,7.507451 7.763649,7.505037 7.757178,7.503331 7.72993,7.496326 7.718502,7.494244 7.681376,7.487622 7.673198,7.489418 7.649855,7.488569 7.637389,7.487537 7.606127,7.483441 7.571212,7.488944 7.516577,7.490647 7.487653,7.495243 7.461635,7.498062 7.427988,7.493175 7.42488,7.493324 7.420309,7.492784 7.405115,7.484877 7.360429,7.497776 7.244322,7.504904 7.192943,7.505532 7.168757,7.508852 7.156267,7.518215 7.132644,7.517257 7.108743,7.516747 7.101544,7.517139 7.081377,7.504285 7.046635,7.509973 6.937967,7.543909 6.923191,7.545433 6.922171,7.545951 6.915761,7.545345 6.801711,7.542533 6.742448,7.535388 6.679632,7.527485 6.666639,7.514291 6.626856,7.510764 6.612357,7.508736 6.567767,7.507087 6.42303,7.471795 6.395567,7.464768 6.353533,7.435435 6.255104,7.394866 6.182338,7.381618 6.098969,7.324597 6.089649,7.323099 6.055423,7.302322 5.978789,7.290395 5.942433,7.286071 5.940041,7.285484 5.938596,7.285015 5.923808,7.278565 5.877838,7.26617 5.851071,7.264873 5.837912,7.261674 5.805186,7.260789 5.747265,7.237211 5.690083,7.205317 5.62707,7.169178 5.554317,7.114819 5.495575,7.082192 5.354228,7.015944 5.293562,6.98852 5.249987,6.96744 5.17415,6.927519 5.129707,6.885817 5.124169,6.878286 5.039951,6.796422 5.017755,6.775939 4.9963,6.757276 4.964061,6.722376 4.953364,6.705969 4.937504,6.692355 4.899724,6.655733 4.88928,6.640703 4.874674,6.632075 4.863659,6.616145 4.850681,6.610326 4.824105,6.597659 4.767533,6.578983 4.763219,6.577416 4.759947,6.57331 4.70619,6.542391 4.677439,6.513792 4.598338,6.473773 4.545161,6.451605 4.446478,6.406847 4.429344,6.396416 4.416524,6.38833 4.281366,6.305259 4.073314,6.098258 4.064468,6.088832 4.018689,6.016026 3.960054,5.918451 3.953018,5.914261 3.922913,5.872019 3.873818,5.85235 3.796062,5.826322 3.759168,5.808073 3.702378,5.782284 3.693801,5.760261 3.631062,5.683397 3.594405,5.615719 3.58951,5.590276 3.570155,5.516832 3.573041,5.399229 3.578855,5.377533 3.530805,5.074884 3.535654,5.019502 3.52995,4.965311 3.533007,4.934308 3.53167,4.918483 3.526883,4.906378 3.512905,4.846148 3.513338,4.831418 3.509187,4.780766 3.502562,4.691801 3.499645,4.549347 3.522763,4.483467 3.499861,4.408595 3.49936,4.358161 3.505465,4.249254 3.518701,4.090361 3.530688,4.030632 3.528981,4.017258 3.533386,4.003311 3.539504,3.975303 3.52922,3.952117 3.526358,3.939361 3.533774,3.895123 3.530346,3.854854 3.566516,3.588619 3.57295,3.541381 3.575575,3.536629 3.57696,3.5176 3.581535,3.39233 3.623132,3.257855 3.629779,3.22985 3.64119,3.208045 3.666494,3.183659 3.68755,3.144975 3.7661,3.090739 3.783888,3.084638 3.836748,3.062843 3.866875,3.05639 3.931172,3.028695 3.951839,2.999155 4.034309,2.886657 4.03703,2.88438 4.045852,2.874233 4.182673,2.701336 4.270448,2.620823 4.291794,2.593577 4.399071,2.544453 4.439967,2.533362 4.511781,2.478974 4.580236,2.442509 4.623737,2.416452 4.673513,2.390138 4.751502,2.339909 4.757626,2.338566 4.766361,2.33329 4.824104,2.314029 4.828961,2.311824 4.863634,2.295629 4.875719,2.278195 4.891463,2.268776 4.900055,2.255121 4.923557,2.231428 4.931131,2.223324 4.959725,2.195166 4.972742,2.173696 4.991597,2.158042 5.019176,2.113122 5.050062,2.077664 5.058439,2.069964 5.081706,2.050371 5.099731,2.04314 5.111514,2.036799 5.283346,1.924018 5.304358,1.914776 5.341571,1.892424 5.376986,1.878901 5.407715,1.857461 5.448553,1.83638 5.490361,1.815811 5.569381,1.789329 5.623755,1.742231 5.645577,1.729543 5.649073,1.725443 5.668071,1.714761 5.688536,1.70345 5.699173,1.700164 5.754577,1.670094 5.834027,1.64972 5.836058,1.649267 5.877632,1.645236 5.921501,1.634049 5.938493,1.626174 5.940282,1.62563 5.941306,1.625491 5.993559,1.619061 6.055713,1.609489 6.075508,1.600244 6.117229,1.57266 6.142346,1.548019 6.215524,1.515733 6.256811,1.503723 6.391146,1.45232 6.487461,1.429261 6.530848,1.421084 6.557919,1.417027 6.570355,1.414741 6.604084,1.409299 6.719785,1.384763 6.774629,1.373655 6.856493,1.372938 6.946194,1.37278 6.971429,1.37785 6.985544,1.387408 7.080743,1.4085 7.103851,1.392971 7.10882,1.39529 7.120238,1.394201 7.167301,1.396391 7.182103,1.406244 7.357395,1.423192 7.406581,1.426904 7.419172,1.419028 7.453323,1.420958 7.54243,1.413369 7.573161,1.428698 7.665285,1.423012 7.682308,1.423321 7.716314,1.416443 7.751622,1.410533 7.75508,1.40855 7.758059,1.408126 7.761863,1.407845 7.823667,1.3975 7.85675,1.405613 7.915345,1.386566 7.965268,1.386797 8.046843,1.389686 8.055217,1.392488 8.071453,1.397107 8.082103,1.401408 8.097806,1.407463 8.16153,1.391843 8.174331,1.394928 8.187784,1.388059 8.212359,1.379988 8.235097,1.370838 8.252405,1.357945 8.306856,1.316815 8.31044,1.314273 8.32324,1.310073 8.33007,1.310494 8.415391,1.273446 8.442457,1.262382 8.471235,1.259521" style="fill: white" />
</svg>
