<svg width="13.600213" height="8.910821">
<polygon type="contour" points="4.329342,1.707741 4.340796,1.706731 4.360523,1.715397 4.379309,1.716814 4.473698,1.718822 4.529326,1.72979 4.604466,1.759088 4.627956,1.770941 4.658444,1.783958 4.66669,1.787448 4.685093,1.789676 4.686997,1.79071 4.703689,1.811789 4.704441,1.81202 4.706954,1.81676 4.718353,1.839683 4.747482,1.849172 4.761556,1.851438 4.782913,1.851798 4.785421,1.851196 4.791118,1.851577 4.800391,1.854114 4.929336,1.872309 4.94871,1.875038 4.954492,1.8729 4.971763,1.88188 4.991131,1.872641 5.028072,1.876251 5.040232,1.875346 5.074069,1.864181 5.088029,1.864122 5.114975,1.866791 5.12753,1.863723 5.171621,1.863503 5.172035,1.863594 5.184183,1.863524 5.20437,1.862405 5.22055,1.860586 5.248851,1.863187 5.290262,1.856706 5.323272,1.858841 5.391263,1.828063 5.418625,1.827908 5.440639,1.826531 5.495641,1.829101 5.530388,1.831672 5.63948,1.836057 5.703941,1.835932 5.773015,1.831555 5.781228,1.827669 5.927661,1.814634 5.949241,1.806996 5.97035,1.803847 6.038179,1.806586 6.066688,1.806866 6.105946,1.815783 6.122045,1.818594 6.13388,1.816964 6.170794,1.821562 6.20142,1.819843 6.221298,1.822718 6.249829,1.828929 6.276298,1.818137 6.276993,1.818122 6.322126,1.813084 6.353662,1.815169 6.409607,1.825357 6.444546,1.829779 6.478716,1.838401 6.542142,1.85258 6.611151,1.884686 6.651535,1.907572 6.66675,1.908678 6.679559,1.913297 6.713389,1.898818 6.737115,1.906742 6.932426,1.946931 6.956796,1.953211 6.9795,1.960199 6.98829,1.962078 6.997685,1.968979 7.024939,1.989022 7.044443,2.037878 7.054494,2.057346 7.082532,2.094703 7.132155,2.073872 7.136789,2.07152 7.163204,2.070081 7.371817,2.109127 7.461163,2.122755 7.466572,2.124038 7.475087,2.13609 7.50764,2.146617 7.529543,2.160981 7.567977,2.165685 7.610819,2.161908 7.677269,2.160453 7.7485,2.154918 7.805484,2.16627 7.901607,2.227725 7.922241,2.237594 7.940392,2.265415 8.026614,2.421148 8.067346,2.442309 8.092917,2.439428 8.13892,2.435135 8.142793,2.434874 8.150832,2.438635 8.296055,2.486399 8.36206,2.517464 8.383509,2.517431 8.399729,2.523139 8.440581,2.552106 8.455473,2.568206 8.536603,2.587041 8.622883,2.621336 8.649267,2.626807 8.668137,2.62995 8.68894,2.627763 8.703769,2.639996 8.731551,2.637324 8.7331,2.637307 8.734284,2.637685 8.773799,2.65157 8.798755,2.649282 8.865874,2.637624 8.879408,2.638969 8.894649,2.644874 8.899016,2.645912 8.903679,2.647333 8.923456,2.659389 8.938528,2.655528 8.958479,2.667412 8.961776,2.667942 8.976919,2.679877 9.058421,2.752209 9.076586,2.754465 9.10644,2.771728 9.129385,2.77219 9.137633,2.778885 9.1778,2.784123 9.189802,2.787291 9.20158,2.795057 9.20213,2.796021 9.226242,2.810559 9.236705,2.824682 9.244544,2.829681 9.258256,2.847726 9.279784,2.851293 9.282455,2.853151 9.292239,2.869284 9.311892,2.879427 9.318276,2.885498 9.323452,2.897353 9.330528,2.900644 9.343839,2.925907 9.364002,2.93756 9.3792,2.943181 9.387609,2.953931 9.440371,2.969106 9.520289,2.998793 9.648462,3.066984 9.687271,3.08719 9.693368,3.093863 9.716103,3.107992 9.771635,3.157167 9.832533,3.180825 9.94188,3.239192 9.983093,3.268216 10.031516,3.296407 10.071671,3.345984 10.127269,3.409543 10.205761,3.476075 10.224648,3.488957 10.235556,3.498377 10.242154,3.505419 10.332312,3.615848 10.346952,3.635889 10.359543,3.640634 10.368287,3.645481 10.377791,3.65912 10.397669,3.680295 10.405431,3.693506 10.417374,3.702494 10.42589,3.71615 10.433092,3.723027 10.440487,3.73533 10.451857,3.750689 10.466491,3.763731 10.468258,3.766841 10.484828,3.780078 10.496426,3.797936 10.505874,3.80539 10.512965,3.817926 10.52985,3.839686 10.5678,3.866019 10.591115,3.893284 10.597339,3.898662 10.621875,3.916551 10.626122,3.922795 10.646729,3.935998 10.659481,3.949116 10.676304,3.959667 10.767793,4.060291 10.786552,4.087095 10.810437,4.230255 10.81673,4.262313 10.825515,4.285572 10.82218,4.317438 10.820425,4.455289 10.826355,4.492494 10.824397,4.591393 10.824403,4.601922 10.829843,4.623036 10.826009,4.639062 10.820517,4.662873 10.798718,4.792079 10.788472,4.820633 10.696288,4.926559 10.676731,4.953809 10.659535,4.962327 10.64653,4.975737 10.626491,4.988503 10.622453,4.994495 10.613275,5.001892 10.56628,5.046508 10.562731,5.048294 10.560305,5.051036 10.531656,5.070264 10.515261,5.089302 10.510102,5.098478 10.50246,5.104759 10.484803,5.131476 10.472653,5.141167 10.464586,5.149822 10.42714,5.194564 10.418357,5.212707 10.34794,5.271103 10.33951,5.284223 10.244284,5.363184 10.180054,5.456386 10.136825,5.4937 10.117556,5.514422 10.103213,5.533521 10.064607,5.576044 9.950319,5.666939 9.939027,5.67693 9.837067,5.730893 9.752702,5.766031 9.70843,5.810461 9.679487,5.827054 9.669356,5.829067 9.662343,5.834723 9.588339,5.876661 9.55608,5.893781 9.512286,5.916027 9.453409,5.937833 9.367278,5.968111 9.335946,6.001544 9.331303,6.00982 9.273336,6.064789 9.273055,6.065196 9.23512,6.085831 9.22459,6.101816 9.204018,6.111779 9.192641,6.121717 9.138613,6.13791 9.129485,6.139554 9.115646,6.138882 9.09312,6.146712 9.028194,6.194183 8.952148,6.248544 8.938618,6.254735 8.923318,6.252046 8.888206,6.270752 8.875549,6.274518 8.86261,6.273559 8.771756,6.268096 8.753749,6.26976 8.753588,6.26969 8.702309,6.273588 8.688941,6.283855 8.667651,6.281497 8.643878,6.286424 8.633863,6.290937 8.585952,6.302645 8.483438,6.334753 8.432593,6.354484 8.421797,6.370998 8.400413,6.388217 8.384325,6.394046 8.343353,6.398867 8.334281,6.404538 8.240922,6.453114 8.228353,6.454326 8.21681,6.4571 8.09715,6.474464 8.085987,6.470334 8.063021,6.47819 8.04049,6.480257 8.019312,6.503431 8.00259,6.514851 7.940311,6.646176 7.922475,6.670561 7.90391,6.681268 7.830669,6.728432 7.788156,6.741558 7.755135,6.753782 7.646754,6.744606 7.556845,6.738888 7.469634,6.785943 7.467614,6.786779 7.466002,6.78758 7.448294,6.791451 7.287081,6.821298 7.256889,6.824043 7.165692,6.843635 7.156048,6.843419 7.133138,6.83335 7.081297,6.819036 7.052312,6.857492 7.042287,6.877049 7.027147,6.917815 7.011069,6.937984 6.998131,6.942602 6.988857,6.949464 6.982912,6.95065 6.974095,6.954085 6.953062,6.956698 6.922732,6.964974 6.878433,6.977505 6.791924,6.993424 6.701917,7.007275 6.7007,7.006998 6.697841,7.007287 6.684115,7.000849 6.650416,7.003545 6.583878,7.042229 6.559184,7.054305 6.554238,7.057582 6.495525,7.071268 6.447251,7.081522 6.378305,7.09646 6.346675,7.098533 6.33196,7.103014 6.326776,7.102642 6.286457,7.094611 6.265581,7.085866 6.259468,7.087688 6.246835,7.084911 6.212403,7.083727 6.165625,7.085288 6.112418,7.093626 6.037446,7.105048 5.969965,7.108647 5.946361,7.104138 5.912731,7.090351 5.854013,7.084522 5.695623,7.078034 5.613522,7.076876 5.491443,7.077861 5.454131,7.078783 5.412392,7.080069 5.377864,7.066842 5.311358,7.056058 5.258409,7.049573 5.231699,7.05251 5.213927,7.047631 5.084082,7.046169 5.077161,7.044333 5.056133,7.043561 5.042332,7.038153 5.02273,7.034858 4.989863,7.036352 4.978628,7.031009 4.957812,7.036853 4.952789,7.037794 4.900973,7.039514 4.817423,7.055692 4.786181,7.060726 4.761964,7.060132 4.726225,7.068927 4.708232,7.094001 4.705924,7.099176 4.704442,7.099593 4.689861,7.119775 4.660603,7.126407 4.640887,7.134238 4.54031,7.180338 4.482529,7.192702 4.455926,7.198013 4.443658,7.197861 4.419034,7.202711 4.344211,7.199926 4.332441,7.203664 4.284207,7.196163 4.160926,7.18126 4.069759,7.154305 4.052927,7.14755 4.025905,7.133465 3.998205,7.115428 3.83971,7.031835 3.821868,7.033474 3.729191,7.0017 3.657545,6.98246 3.570816,6.968192 3.564387,6.963693 3.547241,6.962243 3.540253,6.958357 3.445548,6.961482 3.422008,6.960986 3.415185,6.962644 3.413175,6.959544 3.369031,6.962739 3.356881,6.960977 3.353259,6.959088 3.338697,6.957747 3.328418,6.953722 3.320302,6.950952 3.308762,6.944924 3.293112,6.944436 3.224124,6.936954 3.209225,6.934758 3.197071,6.931812 3.152499,6.924159 3.079571,6.907046 3.054315,6.909762 3.004347,6.908816 2.961349,6.906648 2.895573,6.904034 2.792615,6.883055 2.736895,6.878157 2.702983,6.859285 2.633294,6.837196 2.594535,6.822446 2.551183,6.799301 2.510469,6.761387 2.49529,6.748238 2.491691,6.738607 2.477569,6.722559 2.444798,6.680636 2.428616,6.660213 2.414732,6.651277 2.394289,6.642207 2.352601,6.618567 2.304056,6.580923 2.235803,6.546529 2.218527,6.539559 2.195489,6.533335 2.127227,6.505633 2.117149,6.51404 2.109237,6.513437 2.099558,6.508166 2.067582,6.513884 2.04614,6.502792 1.99331,6.470728 1.981564,6.463436 1.969743,6.454444 1.94581,6.42491 1.89583,6.378391 1.881278,6.346404 1.882158,6.342141 1.889694,6.3016 1.87047,6.280487 1.860591,6.272076 1.826213,6.255061 1.778168,6.24946 1.75588,6.289588 1.708113,6.461344 1.696336,6.487573 1.667021,6.523027 1.569167,6.663336 1.517951,6.719283 1.504168,6.72307 1.446032,6.751166 1.398567,6.744003 1.387874,6.742766 1.353373,6.729863 1.350678,6.728666 1.318109,6.683358 1.277592,6.636043 1.274567,6.625192 1.273341,6.593636 1.260462,6.482245 1.262233,6.464659 1.269223,6.428229 1.322899,6.285307 1.341265,6.241648 1.378323,6.194196 1.395109,6.180271 1.514882,6.142357 1.55609,6.114509 1.636459,6.093599 1.597652,6.025856 1.591337,5.999486 1.58372,5.986862 1.562822,5.937758 1.562582,5.937344 1.561347,5.93342 1.537759,5.858427 1.520447,5.839109 1.512542,5.832548 1.497287,5.808749 1.473743,5.770177 1.446475,5.72652 1.429176,5.645507 1.425076,5.547395 1.429565,5.525195 1.436318,5.507044 1.440144,5.502511 1.444605,5.483607 1.450567,5.446541 1.514513,5.27062 1.530555,5.178371 1.54566,5.16935 1.559998,5.135929 1.561962,5.123071 1.564767,5.111358 1.552425,5.070784 1.524547,5.019716 1.520432,5.001685 1.49732,4.884577 1.472302,4.706114 1.471896,4.702386 1.471812,4.701468 1.46946,4.684643 1.472092,4.660077 1.476912,4.536432 1.47771,4.529956 1.47859,4.465917 1.474908,4.441798 1.466735,4.355753 1.492167,3.998836 1.494714,3.977493 1.514265,3.91866 1.532591,3.889086 1.536143,3.871626 1.543459,3.852676 1.552978,3.839156 1.566871,3.795481 1.538985,3.743575 1.532432,3.73874 1.454346,3.473765 1.443406,3.417714 1.436031,3.399513 1.420017,3.306526 1.448346,3.183548 1.459528,3.160639 1.472386,3.141116 1.500313,3.093963 1.503237,3.087841 1.512997,3.080938 1.519734,3.073116 1.545789,3.036368 1.567205,2.982585 1.571551,2.971893 1.57164,2.961007 1.571373,2.954876 1.579767,2.936786 1.583742,2.924192 1.594634,2.909416 1.598932,2.882728 1.63687,2.818245 1.555125,2.796723 1.534233,2.792664 1.525497,2.781739 1.476597,2.74863 1.370154,2.696945 1.31055,2.606214 1.282888,2.520682 1.261945,2.403942 1.256078,2.363234 1.274606,2.286117 1.277228,2.27619 1.318111,2.228252 1.35001,2.18382 1.360202,2.180147 1.399486,2.166283 1.443557,2.162486 1.485145,2.165468 1.591796,2.292407 1.595297,2.296636 1.596608,2.298315 1.599675,2.305899 1.713723,2.465663 1.745639,2.54976 1.730054,2.57852 1.754534,2.621881 1.813268,2.66295 1.860349,2.639695 1.890986,2.613617 1.876212,2.560274 1.887498,2.55133 1.906407,2.520398 1.977295,2.452903 1.997881,2.437965 2.040073,2.414328 2.086451,2.393956 2.110198,2.398621 2.119223,2.398112 2.141094,2.408747 2.173475,2.400074 2.221785,2.369619 2.238917,2.36264 2.299853,2.33444 2.357256,2.290758 2.367372,2.286999 2.384997,2.278536 2.401909,2.266482 2.407997,2.262726 2.424659,2.24969 2.495715,2.182211 2.506458,2.15295 2.535482,2.13121 2.591486,2.103253 2.631222,2.076187 2.684156,2.052647 2.698935,2.049811 2.723041,2.045044 2.734587,2.033535 2.749074,2.035744 2.764185,2.032958 2.821041,2.017721 2.826498,2.017559 2.832559,2.015713 2.842649,2.015791 2.927876,2.015168 3.069162,2.00164 3.082601,2.005969 3.139171,1.992696 3.189688,1.982963 3.2696,1.971884 3.30871,1.965413 3.322315,1.959458 3.336774,1.954604 3.342108,1.954405 3.369061,1.949349 3.403864,1.951377 3.412663,1.953854 3.42629,1.949993 3.489322,1.954027 3.534861,1.956718 3.564587,1.947886 3.575458,1.942332 3.587784,1.938344 3.653559,1.920216 3.800199,1.886196 3.806751,1.88324 4.035088,1.772607 4.036706,1.771803 4.037939,1.771475 4.168576,1.73444 4.194408,1.731232 4.255871,1.711436 4.309878,1.705708" style="fill: white" /><polygon type="hole" points="6.563051,3.581626 6.502263,3.576384 6.412544,3.625876 6.29835,3.67431 6.237063,3.710411 6.162593,3.790369 6.132598,3.823236 6.105592,3.86989 6.077763,4.019657 6.058769,4.202155 6.04964,4.377092 6.059331,4.568924 6.061535,4.590422 6.095093,4.781572 6.145749,4.920105 6.170975,4.986185 6.214609,5.048742 6.298136,5.089331 6.514383,5.153097 6.587011,5.135901 6.645737,5.117878 6.752247,5.074805 6.839604,4.980059 6.914679,4.893017 6.934935,4.846669 7.022942,4.618792 7.024368,4.609852 7.075773,4.388087 7.082441,4.344135 7.080975,4.246328 7.073896,4.134572 7.064234,4.007186 7.032184,3.921932 6.985263,3.82327 6.928469,3.74164 6.861513,3.658127 6.723913,3.589788 6.6883,3.573849 6.660995,3.56804" style="fill: black" />
</svg>
