<svg width="13.600213" height="8.910821">
<polygon type="contour" points="6.04529,1.747023 6.148711,1.764892 6.169119,1.763624 6.186709,1.770092 6.220859,1.778621 6.272206,1.780777 6.405977,1.812079 6.515103,1.853737 6.532114,1.863192 6.550753,1.870385 6.572456,1.875066 6.636851,1.896345 6.637653,1.896769 6.638787,1.897066 6.66319,1.911458 6.688203,1.920925 6.706523,1.933042 6.770638,1.945252 6.810543,1.948313 6.837644,1.957244 6.985491,2.000864 7.009493,2.008042 7.034712,2.011905 7.103982,2.025495 7.118586,2.030769 7.135423,2.030233 7.149989,2.034606 7.160073,2.037278 7.189755,2.057644 7.433829,2.13473 7.55505,2.211346 7.566711,2.215241 7.604586,2.236392 7.646305,2.258134 7.684148,2.281543 7.762384,2.330073 7.769866,2.332132 7.772715,2.334652 7.778181,2.337529 7.79133,2.348901 7.85693,2.454169 7.865441,2.466669 7.870553,2.482122 7.911461,2.614705 7.907709,2.636518 7.94363,2.731481 8.103565,2.87921 8.158066,2.926884 8.224641,2.9869 8.24516,3.00073 8.255254,3.012027 8.272297,3.047972 8.286078,3.067501 8.320178,3.112527 8.368408,3.143232 8.41813,3.172457 8.46645,3.211056 8.48037,3.221694 8.50047,3.279841 8.539052,3.315801 8.549364,3.320449 8.594338,3.355917 8.655917,3.404485 8.665079,3.408707 8.74666,3.478495 8.832664,3.554718 8.842356,3.564552 8.850011,3.576728 8.879744,3.620379 8.919336,3.676339 8.950209,3.733194 9.010899,3.832667 9.023292,3.854959 9.032107,3.862636 9.041713,3.874267 9.091567,4.005681 9.09667,4.035025 9.116004,4.058099 9.138196,4.113165 9.174524,4.228342 9.184006,4.315874 9.189467,4.370465 9.191915,4.437453 9.191895,4.439515 9.191543,4.444907 9.191927,4.481413 9.19221,4.481955 9.192175,4.483873 9.192197,4.484837 9.186043,4.608332 9.174531,4.654063 9.150456,4.735775 9.105189,4.873163 9.085118,4.94297 9.03941,5.044671 9.02121,5.063479 9.009181,5.085375 8.965863,5.17831 8.933201,5.215082 8.895349,5.265362 8.821002,5.341936 8.751343,5.409326 8.724102,5.423721 8.666658,5.495565 8.601101,5.552809 8.575195,5.575215 8.529125,5.597576 8.501276,5.630538 8.484584,5.682523 8.479657,5.691148 8.471797,5.696002 8.427997,5.731225 8.360275,5.772523 8.313747,5.804731 8.29667,5.823013 8.264172,5.885851 8.25419,5.900565 8.253106,5.90605 8.108541,6.014295 8.048449,6.072851 7.997648,6.115065 7.934443,6.190804 7.921392,6.263088 7.906149,6.320531 7.868174,6.429202 7.791321,6.550257 7.743993,6.59324 7.717642,6.614257 7.710612,6.616903 7.677961,6.6364 7.619248,6.666963 7.6117,6.676194 7.611564,6.676278 7.571149,6.691626 7.546813,6.71472 7.514184,6.735158 7.479095,6.745033 7.441819,6.774331 7.396819,6.788418 7.254084,6.83213 7.229556,6.838129 7.196162,6.850168 7.177051,6.863403 7.121815,6.884402 7.099958,6.889095 7.094655,6.888738 7.057415,6.893913 6.997699,6.901996 6.971563,6.915848 6.960634,6.919671 6.91955,6.928305 6.897275,6.92715 6.840377,6.951624 6.827021,6.958868 6.738291,6.975355 6.688577,6.989762 6.596496,7.020305 6.532724,7.044174 6.511577,7.052043 6.484695,7.069871 6.484691,7.069872 6.385636,7.107497 6.362402,7.113174 6.280288,7.121292 6.243519,7.130491 6.216602,7.13478 6.195153,7.140289 6.047608,7.169614 5.977393,7.175968 5.930404,7.162383 5.904442,7.160797 5.863374,7.144771 5.825152,7.104316 5.824621,7.103745 5.789534,7.0476 5.786986,7.033448 5.794836,6.98646 5.794869,6.985786 5.876244,6.823437 5.878778,6.819468 5.888395,6.807463 5.946406,6.716401 5.988847,6.650266 5.999893,6.631996 5.994631,6.573472 5.989211,6.551291 5.921869,6.483955 5.876927,6.403047 5.901744,6.379957 5.907424,6.3753 5.912106,6.374106 5.95208,6.346764 5.997784,6.337063 6.061522,6.301744 6.139342,6.257772 6.31735,6.166296 6.330827,6.152885 6.41251,6.119545 6.488486,6.046616 6.542501,6.023344 6.793751,5.91094 6.883711,5.864243 7.05315,5.790256 7.099501,5.769012 7.116311,5.75649 7.166234,5.726092 7.176226,5.718567 7.200437,5.691821 7.202901,5.688952 7.228183,5.676001 7.293678,5.617525 7.311615,5.609507 7.430679,5.504732 7.494547,5.440704 7.518872,5.380018 7.574444,5.233708 7.5917,5.189538 7.633265,5.124704 7.667096,5.080706 7.692105,5.027627 7.704797,4.98717 7.748246,4.820919 7.759009,4.727644 7.772896,4.70363 7.78862,4.608419 7.788257,4.518985 7.788224,4.379217 7.793629,4.26258 7.787062,4.253283 7.758951,4.118148 7.75168,4.066215 7.706056,3.923673 7.689872,3.873825 7.669873,3.837714 7.595453,3.704443 7.566609,3.610551 7.554664,3.575579 7.547356,3.564911 7.47967,3.454056 7.363942,3.347387 7.175321,3.19396 7.168337,3.188547 7.161464,3.183126 7.07564,3.120595 7.048241,3.112993 6.863572,3.031819 6.795159,3.005319 6.782772,2.998427 6.75766,2.98606 6.569051,2.909751 6.514578,2.873981 6.494275,2.865186 6.476702,2.853107 6.277588,2.733265 6.183702,2.675673 6.046884,2.601531 5.999351,2.574388 5.94971,2.564059 5.903745,2.52373 5.894538,2.5227 5.883108,2.515847 5.884894,2.492422 5.882592,2.489021 5.883009,2.486873 5.900857,2.470599 5.920391,2.442775 5.974784,2.388597 5.990918,2.353304 5.996285,2.275763 5.913986,2.143843 5.888739,2.104989 5.884506,2.099651 5.866941,2.071762 5.819497,2.001276 5.794386,1.925977 5.78799,1.870536 5.801171,1.820219 5.839524,1.775467 5.885261,1.775891 5.972964,1.731747" style="fill: white" /><polygon type="contour" points="5.596028,2.930155 5.629762,2.930792 5.659963,2.925877 5.705988,2.934888 5.717614,2.929502 5.727407,2.929497 5.738369,2.929799 5.77891,2.942145 5.806039,2.956276 5.821812,2.966553 5.908304,3.013195 5.926669,3.03197 5.96707,3.076554 5.990981,3.13876 6.016544,3.16632 6.041583,3.2292 6.047274,3.254119 6.075734,3.305878 6.085901,3.373309 6.127291,3.454504 6.127509,3.470127 6.159331,3.557314 6.183594,3.613277 6.194344,3.678735 6.210844,3.732148 6.222037,3.776598 6.233342,3.822419 6.250684,3.875396 6.291093,3.960778 6.316175,4.040364 6.319555,4.047297 6.386756,4.16993 6.404557,4.195978 6.427023,4.226901 6.466639,4.271309 6.486073,4.300769 6.497271,4.333537 6.512835,4.374186 6.551273,4.449058 6.535577,4.478089 6.526733,4.510745 6.528914,4.520619 6.5285,4.522357 6.527381,4.524261 6.462087,4.641463 6.439857,4.676664 6.350148,4.823367 6.283361,4.941655 6.26096,5.012094 6.225088,5.109311 6.204425,5.20608 6.177933,5.278008 6.176273,5.285117 6.17491,5.289912 6.141945,5.349721 6.145306,5.385786 6.102568,5.497249 6.09883,5.507939 6.086846,5.575622 6.078244,5.582974 6.058822,5.621356 6.03663,5.702429 6.016879,5.73027 5.985153,5.770426 5.966469,5.814931 5.944953,5.852373 5.941083,5.860422 5.870105,5.921596 5.838206,5.945347 5.780829,5.971464 5.778974,5.972102 5.776605,5.972759 5.690293,5.986842 5.688687,5.987048 5.687947,5.986785 5.566279,5.972491 5.516258,5.971844 5.512957,5.97118 5.466947,5.950173 5.438967,5.945404 5.388916,5.906271 5.357362,5.887316 5.334329,5.865668 5.315963,5.84702 5.308863,5.833692 5.29832,5.82285 5.286409,5.798925 5.281098,5.786273 5.239593,5.6672 5.239673,5.644626 5.22286,5.605861 5.219461,5.572948 5.222113,5.560048 5.22458,5.526133 5.230667,5.467032 5.246747,5.348155 5.260593,5.257574 5.281585,5.131521 5.28259,5.127059 5.282716,5.125516 5.286528,5.115022 5.355178,4.932408 5.375321,4.886307 5.415838,4.821154 5.4453,4.776273 5.449706,4.766798 5.462731,4.749856 5.527243,4.675762 5.585064,4.621832 5.613362,4.593505 5.678609,4.545522 5.798556,4.454222 5.736622,4.409585 5.731009,4.40447 5.678013,4.356178 5.655177,4.344206 5.587831,4.287892 5.527014,4.234899 5.447017,4.145807 5.443152,4.140689 5.379102,4.032702 5.353565,3.976383 5.300892,3.843172 5.292125,3.804522 5.282686,3.739858 5.280363,3.693626 5.257385,3.619812 5.247872,3.566202 5.238278,3.502692 5.230484,3.418682 5.233729,3.378253 5.228936,3.330046 5.232417,3.260682 5.233354,3.237821 5.238772,3.21484 5.252307,3.177411 5.270513,3.152475 5.278402,3.11637 5.307673,3.076529 5.333083,3.048343 5.352097,3.040596 5.376233,3.005787 5.395013,2.988107 5.411526,2.978896 5.441616,2.967623 5.461804,2.967686 5.504918,2.938125 5.515295,2.935371 5.530242,2.9305 5.566014,2.924911" style="fill: white" /><polygon type="contour" points="0.724968,1.358189 0.730889,1.359852 0.751902,1.379307 0.773259,1.384603 0.787351,1.396898 0.79544,1.400387 0.8184,1.42573 0.840024,1.431155 0.871515,1.448437 0.8998,1.460988 0.935051,1.481215 0.950468,1.490594 0.9539,1.492855 0.993961,1.519085 0.995926,1.521888 0.997964,1.523511 1.008533,1.540918 1.05842,1.596739 1.067378,1.605644 1.072735,1.613795 1.082538,1.623762 1.127896,1.682785 1.132007,1.689873 1.132418,1.695615 1.16457,1.747739 1.189792,1.777058 1.200385,1.782604 1.214963,1.791122 1.230543,1.80303 1.236145,1.809889 1.240813,1.81752 1.245585,1.820697 1.288695,1.867033 1.304851,1.886849 1.376695,1.976733 1.388993,1.990504 1.399625,2.002929 1.403106,2.01496 1.416455,2.025369 1.448189,2.063007 1.477977,2.092206 1.548163,2.139381 1.556542,2.146013 1.634391,2.162816 1.687285,2.179004 1.736584,2.190076 1.748955,2.173067 1.752989,2.172582 1.768296,2.171623 1.789543,2.169592 1.957955,2.117868 1.984838,2.111069 1.999805,2.104783 2.101028,2.060401 2.140945,2.049009 2.154412,2.038396 2.161445,2.036471 2.17476,2.034292 2.242014,2.02281 2.257338,2.024359 2.29151,2.024743 2.31955,2.01201 2.419194,1.985696 2.457704,1.967772 2.505514,1.959765 2.510349,1.958284 2.548861,1.954373 2.568121,1.950805 2.626451,1.943127 2.652982,1.937895 2.734966,1.928289 2.76941,1.920939 2.824055,1.896996 2.83048,1.892057 2.835934,1.890354 2.853368,1.882827 2.92212,1.832406 2.96366,1.802844 3.05165,1.748766 3.08636,1.733197 3.10596,1.722774 3.121401,1.701421 3.146398,1.682848 3.161464,1.671947 3.282575,1.601539 3.305834,1.588308 3.311798,1.585069 3.316262,1.582962 3.36077,1.574337 3.391065,1.549353 3.415184,1.531438 3.488186,1.510993 3.494221,1.502704 3.52871,1.488133 3.536137,1.48804 3.563991,1.495665 3.623179,1.501733 3.677285,1.524651 3.685104,1.52711 3.69107,1.538223 3.712147,1.552066 3.722856,1.557145 3.767252,1.568857 3.895477,1.61318 3.907886,1.620402 3.953092,1.657435 3.973764,1.67898 4.007193,1.71466 4.019669,1.754872 4.022681,1.781906 4.022309,1.784095 4.022052,1.803303 4.023412,1.85862 4.021649,1.890326 4.018309,1.898467 4.004924,1.914377 3.861312,2.027845 3.818973,2.066778 3.80349,2.094739 3.790627,2.174152 3.84197,2.24168 3.88148,2.262556 3.89774,2.282218 3.900099,2.291359 3.87424,2.349673 3.852013,2.388853 3.823938,2.423737 3.813482,2.448252 3.794407,2.472917 3.783329,2.492628 3.770126,2.501742 3.75812,2.5083 3.726114,2.511709 3.710532,2.529665 3.702633,2.540652 3.688573,2.541741 3.64795,2.538479 3.574578,2.567179 3.540224,2.601474 3.537075,2.606611 3.534502,2.608056 3.512836,2.602153 3.49662,2.60655 3.490768,2.608151 3.463111,2.619387 3.415537,2.634022 3.412981,2.635846 3.397142,2.64142 3.389492,2.64527 3.375791,2.643629 3.352734,2.665523 3.337241,2.677884 3.2271,2.805266 3.211771,2.827946 3.188201,2.857262 3.141855,2.89516 3.125248,2.904647 3.015334,2.987391 2.943568,3.049142 2.907147,3.114515 2.864748,3.160105 2.800755,3.267313 2.758225,3.364662 2.692254,3.505755 2.639538,3.599602 2.573367,3.697015 2.567459,3.727519 2.542422,3.825542 2.549337,3.921836 2.55485,3.955039 2.56644,4.076085 2.571835,4.086763 2.571215,4.095209 2.56753,4.110394 2.562742,4.12026 2.55862,4.167096 2.611547,4.232271 2.61163,4.232802 2.616885,4.26618 2.609125,4.321181 2.587529,4.377256 2.559857,4.436616 2.56671,4.478005 2.566178,4.500818 2.606493,4.598137 2.613667,4.648697 2.584891,4.703698 2.572223,4.727911 2.564604,4.757891 2.564466,4.780474 2.570669,4.810237 2.567082,4.823555 2.547619,4.906673 2.552443,4.968308 2.548146,4.986101 2.542729,5.076133 2.568878,5.195522 2.587877,5.244265 2.638808,5.311672 2.706471,5.433849 2.771342,5.568547 2.841515,5.702054 2.88638,5.780688 2.916241,5.822792 2.949458,5.859792 2.955409,5.868966 3.033442,5.922242 3.109669,5.997089 3.139743,6.015491 3.187921,6.054262 3.222949,6.100722 3.318617,6.222068 3.363603,6.260824 3.396915,6.273697 3.407921,6.274457 3.40979,6.276126 3.426718,6.280217 3.427485,6.281611 3.486068,6.301504 3.513531,6.30929 3.532686,6.304139 3.535204,6.305361 3.569331,6.341067 3.578737,6.344769 3.628085,6.368753 3.643982,6.372162 3.647931,6.372281 3.656966,6.374094 3.695411,6.370633 3.700319,6.371793 3.72117,6.394019 3.743766,6.39735 3.770807,6.409071 3.797798,6.438777 3.805348,6.444789 3.80955,6.449441 3.81503,6.454016 3.818095,6.459324 3.821899,6.462861 3.842742,6.498542 3.867316,6.534185 3.896264,6.599155 3.900542,6.610225 3.900267,6.619996 3.897015,6.627954 3.884908,6.641472 3.861654,6.654499 3.837699,6.674281 3.790664,6.736331 3.795621,6.76982 3.796765,6.788771 3.832364,6.835956 3.857968,6.876671 4.021167,7.031098 4.027612,7.034547 4.028333,7.035727 4.02833,7.037747 4.02222,7.12985 4.019364,7.156759 4.005805,7.198476 3.970392,7.236389 3.952556,7.25502 3.905379,7.291872 3.871871,7.305295 3.842779,7.316918 3.820218,7.324895 3.809913,7.329325 3.769306,7.341739 3.718018,7.35764 3.694616,7.37225 3.683421,7.387831 3.6733,7.392113 3.645327,7.406984 3.601112,7.415646 3.522771,7.423809 3.471697,7.394049 3.41394,7.379959 3.361129,7.336734 3.335247,7.333966 3.311069,7.322416 3.217326,7.264475 3.177726,7.239876 3.12661,7.198676 3.041969,7.154445 3.034211,7.15051 2.953368,7.099661 2.872802,7.046985 2.861533,7.042903 2.844661,7.030211 2.787311,7.002107 2.782971,6.998039 2.764132,6.991373 2.700981,6.979185 2.634785,6.971228 2.549252,6.960263 2.462835,6.944726 2.402044,6.924588 2.347959,6.908466 2.328364,6.903804 2.31699,6.894726 2.296864,6.888181 2.269814,6.888133 2.212956,6.887036 2.178386,6.881833 2.165338,6.877689 2.021834,6.815147 2.003973,6.809173 2.0017,6.808039 1.982936,6.801146 1.968703,6.797724 1.762507,6.739655 1.741553,6.729099 1.72296,6.724759 1.666869,6.735403 1.559773,6.765192 1.549096,6.772423 1.448278,6.84004 1.439035,6.851614 1.419252,6.879157 1.369165,6.941596 1.312217,7.016233 1.305064,7.022754 1.295323,7.032342 1.228925,7.108847 1.196232,7.124896 1.128536,7.225584 1.116275,7.240712 1.116124,7.246641 1.112156,7.253613 1.048562,7.32633 0.996878,7.385169 0.992862,7.391941 0.983999,7.39902 0.976563,7.404228 0.96614,7.409758 0.803123,7.502711 0.79642,7.510619 0.792756,7.510848 0.775743,7.525431 0.75683,7.530916 0.689532,7.573586 0.679149,7.576682 0.566461,7.555473 0.524317,7.541306 0.519209,7.536693 0.50785,7.531694 0.388986,7.443664 0.372712,7.421333 0.353729,7.380919 0.326816,7.309034 0.285518,7.181763 0.283558,7.117054 0.287167,7.037941 0.295187,7.006909 0.282416,6.942696 0.2712,6.753859 0.267782,6.684373 0.276661,6.575818 0.275101,6.551349 0.277491,6.522772 0.281277,6.473434 0.293103,6.408001 0.289287,6.385286 0.300431,6.266786 0.311475,6.23762 0.299461,6.127768 0.30173,6.109645 0.301436,6.103696 0.302318,6.09688 0.379441,5.737708 0.400628,5.674677 0.425869,5.623944 0.431776,5.602635 0.444409,5.575879 0.427074,5.463336 0.428779,5.441065 0.437529,5.382029 0.44576,5.326012 0.448087,5.29754 0.449528,5.278825 0.468558,5.249154 0.470152,5.24181 0.486962,5.219977 0.496652,5.179188 0.497623,5.155223 0.493881,5.099578 0.493849,5.098964 0.493855,5.097592 0.496913,5.074727 0.475088,5.031296 0.471387,5.023511 0.458471,4.946826 0.44439,4.852558 0.447265,4.799184 0.460286,4.738817 0.468596,4.710942 0.471264,4.686526 0.478951,4.662061 0.483544,4.634039 0.493327,4.573199 0.490697,4.571193 0.494293,4.567072 0.498497,4.533803 0.507605,4.504168 0.500452,4.498302 0.516046,4.468942 0.509665,4.416616 0.488393,4.310523 0.486505,4.303912 0.485543,4.291259 0.478063,4.247479 0.47247,4.224094 0.471662,4.205904 0.459986,4.178152 0.45156,4.140441 0.446033,4.089917 0.446193,4.059871 0.453474,4.001384 0.478135,3.918047 0.475885,3.89825 0.490178,3.854347 0.496344,3.838169 0.496483,3.821846 0.502837,3.74953 0.485987,3.691734 0.470968,3.671265 0.469207,3.663105 0.453816,3.647391 0.450083,3.632151 0.446848,3.611467 0.445503,3.603758 0.44025,3.565761 0.439477,3.561322 0.438051,3.552809 0.437044,3.547474 0.436797,3.53666 0.426806,3.442625 0.435096,3.411623 0.438517,3.394792 0.439677,3.383477 0.436307,3.337946 0.435712,3.313644 0.421307,3.29643 0.417135,3.287751 0.389889,3.203365 0.331589,2.978722 0.331642,2.953746 0.309298,2.86316 0.302195,2.819115 0.30216,2.817201 0.302535,2.814795 0.300686,2.777455 0.307298,2.718913 0.298613,2.662214 0.290524,2.516388 0.280358,2.436797 0.275349,2.388934 0.270183,2.332093 0.275519,2.218404 0.279173,2.131677 0.271441,2.056907 0.273992,1.955346 0.290635,1.893229 0.287675,1.876959 0.290803,1.816203 0.284524,1.714411 0.284876,1.695142 0.31708,1.58389 0.323622,1.568774 0.405004,1.470941 0.43968,1.420676 0.463552,1.404024 0.510196,1.375472 0.51941,1.374734 0.54141,1.358115 0.542691,1.357367 0.566904,1.354661 0.59285,1.3449 0.620585,1.342047 0.647579,1.337349 0.653609,1.337937 0.657202,1.3377 0.661902,1.338182 0.682844,1.333162" style="fill: white" />
</svg>
