<svg width="13.600213" height="8.910821">
<polygon type="contour" points="4.303014,1.663817 4.354778,1.662609 4.478641,1.665244 4.606987,1.69055 4.610895,1.692073 4.611256,1.692116 4.62105,1.695557 4.689427,1.706417 4.72769,1.726183 4.748591,1.733807 4.774081,1.741864 4.800962,1.756328 4.832,1.773335 4.850737,1.784076 4.88339,1.81285 4.917528,1.815435 4.918087,1.815432 4.942624,1.823801 4.994947,1.814794 5.001347,1.816462 5.026977,1.846112 5.042642,1.838638 5.053889,1.845733 5.075857,1.850599 5.097843,1.869539 5.117155,1.870369 5.12472,1.877063 5.128616,1.876226 5.154777,1.900565 5.173172,1.885097 5.185695,1.903418 5.221014,1.897577 5.227027,1.903464 5.251382,1.903122 5.273452,1.903508 5.310359,1.902715 5.326146,1.899654 5.33956,1.906409 5.363563,1.89494 5.384385,1.889143 5.394027,1.88095 5.405858,1.879139 5.431948,1.882174 5.459321,1.872522 5.474286,1.862763 5.497286,1.857008 5.509848,1.85531 5.511947,1.853882 5.516058,1.853743 5.555902,1.849656 5.579273,1.84762 5.594191,1.847891 5.63329,1.851502 5.641735,1.849097 5.674063,1.84286 5.787324,1.831137 5.856606,1.830971 5.911932,1.828219 5.9397,1.829535 5.949273,1.831466 6.014943,1.841742 6.039427,1.845627 6.067226,1.846408 6.099636,1.853498 6.108465,1.851901 6.128403,1.85166 6.168098,1.859651 6.194921,1.858443 6.201907,1.85724 6.208939,1.858816 6.221875,1.855421 6.267493,1.857964 6.277341,1.860937 6.331652,1.872472 6.332591,1.872886 6.355039,1.880062 6.40186,1.896756 6.404421,1.896758 6.426017,1.905343 6.42829,1.904838 6.444213,1.916473 6.47283,1.906429 6.666853,1.936316 6.696733,1.922735 6.734482,1.949269 6.766269,2.047511 6.832169,2.085396 6.84797,2.075399 6.911636,2.110743 6.922109,2.081148 6.93245,2.080442 6.969043,2.097219 6.983776,2.062886 6.987387,2.060337 7.026906,2.129464 7.090266,2.09078 7.101287,2.091181 7.11553,2.087288 7.120139,2.08495 7.179213,2.081731 7.247094,2.094437 7.276167,2.098871 7.468133,2.144406 7.524845,2.181599 7.561612,2.186099 7.588397,2.203466 7.632772,2.198475 7.6624,2.205203 7.68003,2.21541 7.705939,2.215948 7.767468,2.236546 7.780299,2.240715 7.783803,2.242492 7.904323,2.338492 7.926426,2.357567 7.960109,2.393079 7.976007,2.411861 7.997441,2.426579 8.049081,2.448619 8.112977,2.473195 8.139567,2.477531 8.159508,2.484881 8.174683,2.487309 8.190022,2.495019 8.246538,2.518743 8.260915,2.534917 8.274026,2.538046 8.287624,2.543546 8.308469,2.551576 8.314118,2.55578 8.335508,2.566147 8.378729,2.576704 8.410549,2.588629 8.423287,2.593383 8.458064,2.601895 8.495983,2.611261 8.552821,2.63255 8.561589,2.640914 8.592957,2.655563 8.607376,2.656009 8.635433,2.664945 8.642479,2.669377 8.66791,2.676272 8.693256,2.678415 8.702161,2.67747 8.725156,2.67611 8.779021,2.653005 8.802865,2.649284 8.823432,2.650958 8.842998,2.648222 8.926362,2.658729 8.944663,2.663029 8.980589,2.666082 8.998105,2.670507 9.03146,2.681827 9.064052,2.694815 9.100029,2.707885 9.127816,2.724884 9.171201,2.760669 9.191695,2.790368 9.302804,2.847095 9.317387,2.855766 9.318228,2.856151 9.319133,2.857576 9.33659,2.874263 9.350932,2.898265 9.375438,2.907523 9.422411,2.932556 9.474286,2.96605 9.632296,3.048635 9.707192,3.117916 9.738241,3.15436 9.794655,3.195338 9.892253,3.258536 9.904369,3.269265 9.926877,3.27801 9.978351,3.280222 10.012491,3.285417 10.027928,3.282577 10.034768,3.287568 10.052057,3.295649 10.076543,3.315323 10.114167,3.356107 10.156976,3.40762 10.166838,3.414439 10.18545,3.440477 10.212027,3.466216 10.223896,3.487486 10.23922,3.503415 10.24495,3.508243 10.246734,3.511276 10.286285,3.570498 10.317017,3.621169 10.35426,3.641803 10.378401,3.664074 10.454394,3.70701 10.459072,3.709952 10.506076,3.746911 10.530804,3.761987 10.530929,3.762096 10.530989,3.762218 10.572967,3.798758 10.5734,3.799408 10.574176,3.800476 10.584758,3.82288 10.592288,3.829799 10.599465,3.845989 10.606958,3.855993 10.650348,3.905823 10.693438,3.972524 10.706685,3.991946 10.753231,4.04423 10.75619,4.053034 10.777868,4.102499 10.782608,4.120479 10.793854,4.16745 10.812426,4.226321 10.814574,4.240925 10.8153,4.243222 10.81239,4.512197 10.811844,4.555167 10.813083,4.562942 10.812517,4.591556 10.806381,4.624221 10.794355,4.709842 10.793997,4.743761 10.773862,4.817619 10.756295,4.850369 10.737489,4.891287 10.692979,4.940112 10.682186,4.958728 10.670784,4.967437 10.656007,4.990957 10.642401,5.004983 10.637775,5.009376 10.621507,5.03182 10.602079,5.067452 10.584652,5.088867 10.574076,5.111243 10.572863,5.112965 10.53088,5.149457 10.530827,5.149565 10.530715,5.149663 10.506803,5.164346 10.489017,5.176395 10.446663,5.20366 10.411444,5.227691 10.346841,5.26074 10.29874,5.319663 10.269796,5.343663 10.215656,5.422224 10.167673,5.497108 10.157563,5.499674 10.116679,5.551201 10.11006,5.560595 10.068609,5.601411 10.045175,5.618565 10.002125,5.628548 9.946192,5.627039 9.906751,5.648808 9.839574,5.676788 9.817201,5.699241 9.773699,5.733968 9.757094,5.745015 9.715851,5.777217 9.707607,5.788817 9.648882,5.843535 9.6293,5.859327 9.617148,5.866214 9.61185,5.869025 9.57945,5.885483 9.471887,5.941716 9.458482,5.966317 9.435053,5.978114 9.415544,5.988773 9.396044,5.992437 9.379894,5.999299 9.351205,6.016391 9.335327,6.036205 9.333912,6.040047 9.326508,6.048572 9.28359,6.067378 9.224019,6.097667 9.220145,6.103645 9.18404,6.127781 9.179061,6.140291 9.161141,6.150352 9.097541,6.20569 9.094221,6.207247 9.08068,6.217828 9.035414,6.227438 9.017287,6.236309 9.000412,6.245918 8.99612,6.246105 8.972773,6.250014 8.919051,6.247348 8.893375,6.253836 8.867546,6.255039 8.825948,6.257165 8.791694,6.260354 8.702122,6.231196 8.687162,6.233614 8.656374,6.238699 8.629251,6.248534 8.615799,6.252 8.610485,6.257193 8.568637,6.263969 8.521179,6.286988 8.490473,6.296606 8.453846,6.310819 8.442969,6.315708 8.41596,6.322966 8.38979,6.33183 8.374753,6.333859 8.366634,6.3404 8.360173,6.338378 8.259646,6.376685 8.247594,6.391343 8.209802,6.408674 8.202459,6.413083 8.183684,6.419808 8.169884,6.426939 8.159006,6.427244 8.144542,6.433825 8.114707,6.433224 8.089561,6.4404 8.084903,6.446209 8.002575,6.482001 7.980534,6.496874 7.975868,6.500938 7.957551,6.511086 7.938922,6.536575 7.927487,6.55025 7.83887,6.620512 7.785215,6.669685 7.761395,6.67815 7.750423,6.684712 7.707361,6.690443 7.648933,6.707521 7.586126,6.703526 7.574418,6.709842 7.503243,6.739319 7.446474,6.767483 7.21981,6.817055 7.162946,6.829744 7.091358,6.8233 7.028439,6.781322 6.985167,6.85197 6.947396,6.824323 6.932447,6.831168 6.91824,6.785284 6.771872,6.848235 6.779176,6.872526 6.761153,6.885003 6.722104,6.972088 6.696088,6.988096 6.67083,6.976066 6.531844,7.000449 6.465891,6.997358 6.443767,6.996676 6.42602,7.00628 6.423519,7.006514 6.394688,7.017895 6.393028,7.018337 6.329184,7.039441 6.323675,7.041299 6.3186,7.043272 6.269485,7.051487 6.253849,7.05595 6.149273,7.0596 6.128684,7.058444 6.107199,7.056086 6.073397,7.063584 6.023302,7.066892 5.903428,7.082317 5.860958,7.079834 5.658443,7.068395 5.634512,7.063897 5.624719,7.060931 5.600091,7.059876 5.484371,7.054368 5.47282,7.046932 5.461388,7.03889 5.452408,7.035652 5.432095,7.029699 5.405095,7.032722 5.397472,7.030542 5.354712,7.010942 5.323776,7.008152 5.283693,7.007405 5.276811,7.006889 5.271779,7.006884 5.264725,7.006451 5.249168,7.007098 5.232293,7.008302 5.216701,7.012291 5.202567,7.012843 5.167765,7.013215 5.162923,7.018144 5.143178,7.017402 5.126063,7.039135 5.048099,7.057447 5.027226,7.068489 5.007703,7.089762 4.985135,7.095089 4.978435,7.097572 4.944038,7.087448 4.919605,7.097674 4.885256,7.095653 4.867098,7.119808 4.86572,7.120063 4.793149,7.166187 4.682607,7.207953 4.642072,7.218079 4.618361,7.21595 4.591531,7.222405 4.483576,7.245504 4.479157,7.246387 4.437663,7.245871 4.436713,7.246059 4.429635,7.245795 4.386027,7.239353 4.367262,7.241988 4.271106,7.234732 4.16743,7.222197 4.099801,7.202202 4.081642,7.199385 4.066917,7.194866 4.039741,7.183417 3.94036,7.136946 3.858369,7.094307 3.848483,7.082766 3.804644,7.074243 3.764941,7.061341 3.685764,7.03367 3.581451,7.021627 3.459005,7.080215 3.444287,7.087195 3.37531,7.138802 3.357053,7.132171 3.361405,7.051229 3.297443,7.106075 3.297846,7.101078 3.287369,7.048677 3.269574,7.039973 3.277038,6.977532 3.261938,6.975277 3.261038,6.940374 3.189958,6.934903 3.176053,6.928552 3.148519,6.910473 3.115343,6.902386 3.095637,6.907418 3.059339,6.923052 3.057556,6.924868 3.052166,6.926137 3.039052,6.926349 2.90146,6.920893 2.898733,6.920293 2.892654,6.915982 2.782019,6.872735 2.776095,6.866225 2.735467,6.854745 2.68879,6.853713 2.641509,6.831806 2.608971,6.825536 2.577598,6.803045 2.531027,6.784171 2.524002,6.776154 2.505425,6.742489 2.498148,6.730567 2.481657,6.711418 2.462175,6.699461 2.424521,6.687455 2.419254,6.68389 2.401433,6.675743 2.373702,6.648714 2.340162,6.652018 2.318217,6.643392 2.194902,6.583334 2.168879,6.616157 2.121441,6.61539 2.091004,6.606826 2.020367,6.589421 1.985556,6.577169 1.965457,6.571827 1.89565,6.530475 1.868898,6.52276 1.84709,6.493804 1.791701,6.498903 1.725997,6.555318 1.680269,6.575529 1.559698,6.707238 1.503246,6.722747 1.494433,6.727006 1.487238,6.72592 1.381377,6.713672 1.360834,6.705989 1.339994,6.696735 1.284144,6.61904 1.26995,6.593088 1.265237,6.568818 1.252654,6.459993 1.257125,6.41559 1.274777,6.323611 1.309712,6.230586 1.340229,6.158046 1.401798,6.079209 1.406028,6.075701 1.459632,6.058731 1.463178,6.029175 1.515271,5.957061 1.496729,5.912005 1.473346,5.870584 1.450767,5.842958 1.422308,5.816558 1.384466,5.759283 1.358057,5.724892 1.358223,5.66 1.357397,5.652949 1.360639,5.642318 1.370151,5.595059 1.369198,5.577034 1.378084,5.570093 1.378713,5.560692 1.402639,5.537113 1.40795,5.520608 1.420377,5.475448 1.421648,5.472771 1.450896,5.318056 1.45135,5.316807 1.486147,5.189877 1.486798,5.167247 1.474881,5.118987 1.4706,5.089343 1.458508,5.07545 1.447593,5.027638 1.433684,4.957154 1.417113,4.838949 1.388182,4.648278 1.400545,4.634547 1.409744,4.605524 1.413113,4.519101 1.417646,4.48228 1.418106,4.448838 1.40467,4.360834 1.402278,4.335651 1.41163,4.204408 1.408386,4.126517 1.431821,3.95577 1.445533,3.933643 1.471926,3.8039 1.471149,3.79907 1.483848,3.754347 1.488065,3.729688 1.489482,3.715995 1.457781,3.607912 1.432278,3.537253 1.432129,3.53686 1.431843,3.533524 1.413181,3.431084 1.41314,3.407558 1.402491,3.375982 1.386963,3.356397 1.378845,3.349871 1.370824,3.323415 1.369907,3.317928 1.360029,3.26941 1.35768,3.258906 1.357926,3.2563 1.359448,3.181552 1.365463,3.17245 1.385761,3.153888 1.438564,3.080978 1.448713,3.065018 1.469691,3.045709 1.498233,3.017261 1.508651,2.996525 1.512986,2.950074 1.495068,2.922071 1.411495,2.86065 1.377408,2.804951 1.371441,2.797987 1.362029,2.782096 1.311694,2.682071 1.28882,2.647251 1.281265,2.623889 1.252497,2.463532 1.248876,2.438407 1.262681,2.380945 1.269943,2.324879 1.277202,2.301881 1.334818,2.221625 1.413631,2.193227 1.435884,2.185373 1.460847,2.183223 1.53983,2.188887 1.577891,2.234188 1.722902,2.357101 1.736867,2.36736 1.796872,2.417151 1.872298,2.382383 1.903826,2.380833 1.97436,2.337809 2.000733,2.326569 2.033097,2.313209 2.118424,2.297162 2.16935,2.296021 2.19509,2.32862 2.279237,2.287354 2.333643,2.264372 2.344918,2.259823 2.380015,2.262017 2.398911,2.24392 2.409133,2.233165 2.418507,2.227382 2.427209,2.220574 2.482911,2.194943 2.502521,2.177349 2.509343,2.166271 2.524452,2.136427 2.532991,2.127672 2.536345,2.124727 2.556561,2.113506 2.66273,2.070303 2.697755,2.060064 2.744,2.054583 2.759478,2.054961 2.775713,2.041633 2.801232,2.027949 2.813896,2.017868 2.82499,2.011318 2.842264,2.006748 2.892205,1.999637 2.924822,1.999399 2.970996,1.994977 3.059166,1.987479 3.067618,1.990497 3.081784,2.001954 3.093458,2.002025 3.123319,2.012488 3.16888,1.987887 3.180177,1.981151 3.190852,1.975417 3.19588,1.97482 3.285528,1.974058 3.287014,1.862056 3.300978,1.859391 3.300489,1.821836 3.323073,1.814514 3.325731,1.805489 3.359676,1.836868 3.386742,1.780278 3.408336,1.780188 3.474704,1.844453 3.508096,1.854442 3.525812,1.862395 3.553496,1.873709 3.589694,1.890987 3.693862,1.876158 3.730514,1.863438 3.746453,1.856305 3.775362,1.8525 3.794697,1.851759 3.832004,1.8365 3.909001,1.800832 3.923612,1.780279 3.943594,1.772023 3.95748,1.767505 4.026003,1.734879 4.07583,1.715879 4.139747,1.697759 4.180628,1.692683 4.238721,1.673971 4.294676,1.662335" style="fill: white" /><polygon type="hole" points="6.544885,3.489745 6.512546,3.486957 6.436714,3.499982 6.380068,3.519726 6.308347,3.559288 6.241917,3.587463 6.132311,3.652027 6.109479,3.676541 6.043949,3.748348 6.024777,3.781469 5.998368,3.843858 5.990894,3.865315 5.965781,4.106617 5.948361,4.440424 5.954142,4.554853 5.987355,4.797677 5.997791,4.863093 6.009789,4.917818 6.048774,5.019937 6.10483,5.100307 6.149511,5.161336 6.162737,5.170684 6.223056,5.201742 6.453236,5.267845 6.477902,5.269177 6.566173,5.242085 6.756355,5.165176 6.869038,5.04296 6.899044,5.007656 6.915895,4.969848 6.985261,4.811123 7.03973,4.670085 7.044456,4.640483 7.085322,4.464174 7.112651,4.284061 7.111938,4.236574 7.108501,4.182313 7.091618,3.959731 7.035743,3.81274 7.009853,3.780137 6.852794,3.58424 6.820701,3.568301 6.684197,3.507207 6.579537,3.484938" style="fill: black" />
</svg>
