<svg width="13.600213" height="8.910821">
<polygon type="contour" points="9.113998,0.031431 9.172643,0.044917 9.364017,0.083666 9.36658,0.083203 9.378858,0.087993 9.460408,0.127643 9.548086,0.157795 9.585369,0.189931 9.624613,0.213542 9.786938,0.316855 9.79953,0.322039 9.847797,0.353141 9.854497,0.36386 9.876934,0.384558 10.043669,0.472462 10.050119,0.473975 10.294822,0.531399 10.306567,0.532147 10.328158,0.533314 10.484296,0.542222 10.507216,0.544923 10.529678,0.544994 10.543772,0.544044 10.580199,0.527574 10.583314,0.527037 10.617066,0.528269 10.619892,0.526578 10.621946,0.52668 10.677264,0.530418 10.697853,0.532329 10.730714,0.538926 10.807301,0.549941 10.825181,0.554379 10.842964,0.560727 10.875768,0.560782 10.880672,0.561942 10.893058,0.565734 10.915594,0.563081 10.920828,0.564982 10.942917,0.575323 10.982136,0.595753 10.997208,0.605436 11.014819,0.610872 11.050313,0.634391 11.070233,0.642702 11.096001,0.657156 11.15744,0.712415 11.179031,0.74246 11.19321,0.754947 11.204722,0.761164 11.258314,0.775343 11.404731,0.854773 11.444534,0.875819 11.496164,0.902918 11.538927,0.936508 11.549342,0.942618 11.59456,0.974872 11.608432,0.979934 11.621579,0.98816 11.628313,0.988988 11.741022,1.043319 11.825742,1.113453 11.862105,1.132208 11.887038,1.140829 12.016896,1.225021 12.135409,1.303111 12.138953,1.304412 12.141168,1.30846 12.228057,1.397743 12.34873,1.516993 12.440459,1.589556 12.599431,1.743599 12.661552,1.80947 12.766259,1.941546 12.832683,2.010482 12.847192,2.030568 12.945358,2.174353 12.991657,2.246288 13.027792,2.306252 13.048928,2.32504 13.065109,2.357204 13.101945,2.40116 13.150665,2.428 13.174085,2.430233 13.180948,2.446822 13.199186,2.444985 13.253067,2.501073 13.258787,2.506537 13.262444,2.508624 13.264576,2.510958 13.271094,2.520284 13.301234,2.571096 13.307643,2.577877 13.311098,2.58319 13.353439,2.650046 13.398014,2.735699 13.400754,2.742733 13.403201,2.748295 13.405522,2.752902 13.407662,2.759285 13.413746,2.773314 13.417647,2.819385 13.443661,2.929536 13.468831,2.992098 13.489607,3.221518 13.497103,3.338024 13.504353,3.390357 13.513752,3.444534 13.536726,3.676615 13.555664,3.911052 13.555903,3.914484 13.557785,3.963843 13.576234,4.457275 13.57622,4.467633 13.574105,4.538148 13.559349,4.90041 13.530949,5.27179 13.526203,5.331554 13.507635,5.530097 13.499484,5.563648 13.502164,5.593852 13.487483,5.760142 13.468751,5.92026 13.46162,5.937254 13.452617,5.965354 13.421626,6.08364 13.417263,6.112622 13.405683,6.151557 13.394848,6.172915 13.345551,6.280352 13.312312,6.328574 13.265493,6.400494 13.260836,6.405906 13.177825,6.479982 13.176618,6.481017 13.174527,6.480288 13.144237,6.477001 13.093769,6.52608 13.043264,6.590847 12.980435,6.677324 12.97794,6.681865 12.940378,6.744515 12.844371,6.885565 12.778523,6.977544 12.726177,7.026249 12.682872,7.084456 12.538163,7.245095 12.41579,7.34334 12.305235,7.433614 12.171754,7.575327 12.159245,7.584862 12.154918,7.592081 12.141145,7.610165 12.089703,7.645327 12.083307,7.651445 12.05241,7.665698 12.029225,7.679677 11.935152,7.744387 11.870561,7.781964 11.834253,7.797305 11.773047,7.841379 11.738781,7.869297 11.605556,7.936245 11.602918,7.937573 11.592479,7.935591 11.444785,8.046981 11.254233,8.128807 11.227376,8.139614 11.193771,8.163344 11.161689,8.184732 11.135026,8.214657 11.120319,8.242009 11.074853,8.264481 11.034781,8.283492 11.007463,8.295615 10.901556,8.347651 10.869335,8.348655 10.856311,8.351482 10.76741,8.369557 10.695782,8.378586 10.58359,8.384567 10.564528,8.375712 10.547975,8.363 10.386955,8.371382 10.367336,8.372499 10.363047,8.373067 10.360006,8.37359 10.308304,8.382336 10.106345,8.417954 9.921732,8.503429 9.886879,8.523365 9.871265,8.535503 9.846832,8.550851 9.812724,8.587223 9.796483,8.596586 9.706904,8.650289 9.692559,8.653217 9.680599,8.656849 9.609463,8.702111 9.58654,8.712371 9.53968,8.752786 9.337127,8.827765 9.315227,8.833365 9.278623,8.855 9.22268,8.871369 9.15667,8.880236 9.123231,8.882152 9.114403,8.883451 9.106444,8.877678 9.096427,8.864233 8.936929,8.823026 8.892733,8.812315 8.841639,8.793453 8.772822,8.784857 8.67778,8.763657 8.639803,8.746363 8.594315,8.75391 8.401295,8.786797 8.394638,8.787153 8.384641,8.788647 8.360661,8.787649 8.264218,8.788415 8.23917,8.78446 8.093052,8.771061 8.039639,8.777654 7.950051,8.791835 7.8742,8.788275 7.815432,8.777013 7.69445,8.762634 7.664258,8.759335 7.537459,8.754692 7.461025,8.751212 7.443566,8.755053 7.346149,8.751575 7.22829,8.725012 7.093882,8.698001 7.01986,8.673788 7.007588,8.660773 6.991288,8.635531 6.955914,8.622901 6.905733,8.609291 6.829098,8.590217 6.743767,8.564479 6.637722,8.550118 6.628066,8.549707 6.453731,8.491019 6.427004,8.480991 6.415078,8.477299 6.393166,8.471016 6.380458,8.466502 6.296681,8.433561 6.182442,8.381391 6.130394,8.357856 6.056539,8.317029 5.878488,8.236456 5.874059,8.234132 5.873493,8.232775 5.860084,8.179799 5.8055,8.190946 5.793216,8.186456 5.787153,8.187245 5.785056,8.186553 5.709003,8.148793 5.680629,8.134066 5.656147,8.107405 5.594739,8.070786 5.578167,8.063611 5.565836,8.048038 5.545789,8.040296 5.465847,7.999683 5.435385,7.978209 5.397466,7.960688 5.367094,7.946876 5.333921,7.949803 5.181732,8.058256 5.164253,8.068687 5.143401,8.084862 5.134458,8.090048 5.107096,8.102014 5.055165,8.121632 5.041407,8.123422 5.026126,8.111568 5.0017,8.103941 4.980299,8.056669 4.943546,7.902512 4.910147,7.594756 4.908682,7.58687 4.903706,7.575337 4.900467,7.518059 4.858455,7.494723 4.714641,7.391157 4.687057,7.370722 4.594223,7.307154 4.585059,7.301907 4.539274,7.259134 4.459794,7.185952 4.453079,7.182529 4.394303,7.116809 4.354926,7.106944 4.341439,7.091369 4.312974,7.061101 4.191578,6.927576 4.12124,6.844708 3.978415,6.674109 3.974551,6.642263 3.957139,6.617141 3.936392,6.593089 3.91894,6.566942 3.891495,6.54176 3.810868,6.437534 3.804328,6.429987 3.751921,6.369508 3.744653,6.362993 3.705551,6.313795 3.646328,6.241574 3.595871,6.177026 3.534032,6.094534 3.504965,6.046224 3.485905,6.025924 3.469348,6.006624 3.400874,5.925605 3.368194,5.873886 3.363048,5.86484 3.366379,5.846997 3.357502,5.838356 3.361042,5.825119 3.367837,5.806783 3.370757,5.774394 3.356527,5.753048 3.340344,5.727668 3.331853,5.715046 3.237457,5.649644 3.215648,5.632631 3.209841,5.624902 3.194951,5.611051 2.996951,5.521093 2.968429,5.478251 2.886342,5.424125 2.867168,5.388233 2.857873,5.326499 2.864746,5.235947 2.867146,5.213869 2.880267,5.197783 2.926716,5.098104 2.954403,4.979727 2.961835,4.927611 2.961802,4.910919 2.957898,4.884237 2.89447,4.648014 2.879507,4.616512 2.874874,4.586469 2.877241,4.382143 2.874609,4.371074 2.875513,4.351383 2.907714,4.241239 2.917474,4.223728 2.920092,4.199591 2.961729,4.021145 2.942514,3.909501 2.928755,3.83386 2.923256,3.817348 2.871651,3.690072 2.870196,3.675884 2.857808,3.537085 2.874805,3.500649 2.911692,3.45849 2.975119,3.428779 3.158914,3.335073 3.214227,3.280235 3.220931,3.27439 3.233559,3.264173 3.286052,3.229242 3.327004,3.203142 3.350214,3.174847 3.356556,3.161162 3.368492,3.141618 3.366428,3.103235 3.35859,3.080687 3.357491,3.073272 3.359392,3.053923 3.365642,3.043134 3.379748,3.023907 3.387612,3.006572 3.424128,2.950709 3.441642,2.928343 3.499625,2.872628 3.540639,2.808111 3.559065,2.780399 3.611996,2.707094 3.663937,2.638068 3.73264,2.57708 3.742085,2.566024 3.751611,2.554011 3.754465,2.55199 3.821614,2.445838 3.821962,2.445013 3.829734,2.435202 3.998055,2.216112 4.00089,2.211683 4.205371,1.968936 4.219101,1.953746 4.252136,1.917696 4.350215,1.815388 4.378251,1.804662 4.483577,1.700962 4.502215,1.67925 4.551613,1.632547 4.668963,1.556024 4.678806,1.544919 4.691774,1.54133 4.78558,1.464554 4.819424,1.445707 4.855524,1.41435 4.877909,1.408333 4.900962,1.380359 4.907346,1.297263 4.917163,1.24936 4.933544,1.195457 4.952521,1.080159 4.958808,0.992881 4.981318,0.885417 5.011824,0.808953 5.035787,0.792304 5.051261,0.78723 5.174541,0.85352 5.341517,0.963438 5.465578,0.924894 5.557631,0.873293 5.591844,0.851196 5.607542,0.834078 5.636536,0.82131 5.650535,0.806665 5.690867,0.778606 5.711481,0.768756 5.760394,0.73996 5.785078,0.727069 5.7989,0.726013 5.806812,0.722183 5.859927,0.733506 5.871957,0.683497 5.873817,0.677837 5.895971,0.666799 6.047251,0.59559 6.06855,0.587575 6.111298,0.566564 6.204706,0.523302 6.342789,0.459642 6.373077,0.44833 6.380441,0.445294 6.38578,0.442926 6.401349,0.438283 6.54468,0.390789 6.581694,0.383095 6.614663,0.366835 6.643983,0.363255 6.665846,0.362843 6.759352,0.341657 6.808356,0.330873 6.826745,0.327864 6.843818,0.314226 6.905027,0.301295 6.956768,0.288522 6.992487,0.275555 7.005179,0.250052 7.006366,0.249154 7.010308,0.246874 7.022188,0.241614 7.028329,0.240616 7.055071,0.22734 7.07805,0.222924 7.10169,0.217715 7.131977,0.201214 7.278325,0.173024 7.297905,0.166849 7.331782,0.161877 7.347971,0.156619 7.384722,0.151717 7.40073,0.148703 7.442221,0.153371 7.444879,0.153609 7.474228,0.163178 7.506718,0.165447 7.712077,0.147462 7.71889,0.148016 7.726168,0.147504 7.758031,0.143454 8.01312,0.122163 8.04991,0.134513 8.091745,0.139456 8.102665,0.138271 8.126649,0.136469 8.135766,0.136195 8.319398,0.127236 8.357952,0.123368 8.367133,0.122769 8.372792,0.122232 8.375062,0.122091 8.376677,0.122016 8.379739,0.122205 8.383875,0.122659 8.387881,0.123222 8.388656,0.123264 8.395023,0.124412 8.628683,0.167809 8.739689,0.147408 8.802554,0.119203 8.846705,0.122608 8.899338,0.112174 9.038352,0.07106 9.071178,0.060571 9.085346,0.056652 9.107214,0.030601" style="fill: white" />
</svg>
