<svg width="13.600213" height="8.910821">
<polygon type="contour" points="7.743423,2.932098 7.769116,2.937636 7.830775,2.959996 7.861319,2.973955 7.899791,2.980143 7.907376,2.981239 7.94964,2.986181 7.978335,2.994008 8.029271,3.009281 8.048019,3.017832 8.141888,3.061488 8.162609,3.07684 8.212704,3.09308 8.387189,3.206634 8.392782,3.210269 8.402278,3.215501 8.405704,3.218949 8.411841,3.224084 8.431751,3.257486 8.558107,3.477845 8.566373,3.515428 8.572453,3.537936 8.575669,3.548508 8.584118,3.599399 8.588606,3.658876 8.584978,3.665748 8.581048,3.700534 8.580376,3.723196 8.582714,3.734755 8.583249,3.802348 8.580008,3.834078 8.578097,3.889787 8.565599,3.91521 8.566517,3.956377 8.567319,4.003582 8.571254,4.03113 8.575992,4.069728 8.584376,4.115465 8.591533,4.159126 8.593144,4.167602 8.602512,4.213676 8.603874,4.229635 8.628563,4.283391 8.633335,4.397413 8.632365,4.511748 8.629925,4.559928 8.614016,4.606494 8.592548,4.733152 8.591336,4.752252 8.587501,4.783352 8.570242,4.945187 8.567412,4.964664 8.565938,4.971895 8.569391,5.014896 8.583516,5.090158 8.580401,5.140588 8.586625,5.200456 8.583571,5.222859 8.589809,5.254741 8.584341,5.290277 8.576938,5.352232 8.576505,5.358867 8.571058,5.38202 8.559263,5.426387 8.553848,5.452843 8.431113,5.657578 8.421511,5.671359 8.412448,5.686027 8.405368,5.691945 8.40232,5.694441 8.395474,5.698396 8.168123,5.841085 8.125893,5.854832 8.102872,5.870645 8.033289,5.901534 7.981439,5.91661 7.944094,5.926593 7.912747,5.929727 7.902517,5.931173 7.857476,5.938995 7.803364,5.970457 7.786816,5.977473 7.699373,5.985146 7.675045,5.983178 7.606684,5.963233 7.596837,5.959247 7.568388,5.943024 7.561599,5.939287 7.540557,5.900422 7.536212,5.894394 7.528986,5.861496 7.529754,5.838632 7.527593,5.830869 7.526787,5.827449 7.536893,5.777931 7.576429,5.706627 7.579726,5.620595 7.424733,5.620886 7.279302,5.597211 7.219296,5.588382 7.146755,5.558626 7.182944,5.490909 7.219558,5.465298 7.30833,5.441733 7.405355,5.431482 7.42511,5.429396 7.42856,5.429289 7.548259,5.425571 7.536732,5.336223 7.536749,5.333553 7.537044,5.286982 7.543705,5.263884 7.594795,5.078119 7.608623,4.993743 7.616542,4.947088 7.626963,4.741957 7.651331,4.663769 7.534091,4.683808 7.488822,4.666436 7.486244,4.663263 7.468833,4.636673 7.467322,4.630758 7.466376,4.627587 7.458297,4.542043 7.460235,4.536862 7.457653,4.519445 7.450349,4.486736 7.452642,4.453098 7.448472,4.43335 7.449774,4.423996 7.457066,4.394792 7.466671,4.369748 7.471679,4.358261 7.471754,4.343271 7.473971,4.308159 7.47578,4.298591 7.475814,4.29427 7.484473,4.271721 7.512106,4.23851 7.529744,4.219787 7.538451,4.219572 7.658223,4.236334 7.637335,4.158416 7.625335,4.113642 7.621618,4.070107 7.592026,3.829706 7.533108,3.571557 7.412052,3.571264 7.19436,3.522507 7.186591,3.520581 7.18643,3.520449 7.182877,3.518608 7.151192,3.423289 7.174247,3.40439 7.24141,3.390236 7.311226,3.383859 7.330156,3.381766 7.34858,3.380778 7.558423,3.369522 7.57276,3.309538 7.585344,3.286902 7.578183,3.260213 7.575952,3.240515 7.537986,3.117762 7.531836,3.088968 7.527741,3.064002 7.528293,3.034739 7.542745,3.005004 7.55553,2.978832 7.558233,2.974824 7.569644,2.966309 7.610314,2.940338 7.624754,2.941046 7.69947,2.926825" style="fill: white" /><polygon type="contour" points="3.858896,2.329542 3.868298,2.329545 3.905989,2.343689 3.922274,2.357302 3.928845,2.371667 3.941673,2.399707 3.975737,2.402612 4.051266,2.409053 4.274688,2.419785 4.35817,2.419716 4.410806,2.444325 4.418913,2.45609 4.408413,2.474131 4.380198,2.510252 4.328355,2.527088 4.216078,2.57376 4.153019,2.608725 4.147704,2.611673 4.118247,2.618023 4.104192,2.621051 3.971554,2.642807 3.94353,2.645898 3.93222,2.657512 3.884859,2.693216 3.871423,2.703346 3.859895,2.716898 3.834547,2.758657 3.799798,2.823193 3.788208,2.846885 3.765848,2.927995 3.687831,3.029895 3.666307,3.061026 3.643635,3.072865 3.629666,3.10444 3.616453,3.115556 3.560521,3.17532 3.528776,3.201943 3.518292,3.218172 3.506563,3.237667 3.455589,3.296617 3.383985,3.379997 3.278153,3.50338 3.161149,3.664834 3.093793,3.735139 3.057282,3.782389 3.027214,3.830365 2.964963,3.969084 2.963393,3.974264 2.953911,4.002185 2.952434,4.003993 2.934802,4.05139 2.911466,4.114157 2.906681,4.127824 2.907066,4.147832 2.907168,4.187651 2.908396,4.21966 2.926245,4.271346 2.914916,4.313707 2.909339,4.337318 2.900523,4.374023 2.897436,4.396734 2.893161,4.416382 2.888649,4.426725 2.884005,4.446605 2.883641,4.464051 2.887763,4.480602 2.895297,4.50928 2.90275,4.521845 2.915585,4.573373 2.915334,4.607541 2.916326,4.635558 2.91699,4.669325 2.912691,4.719987 2.906344,4.787344 2.943304,4.885272 2.950783,4.904516 2.964307,4.929974 2.965309,4.935101 2.979209,4.970445 3.042529,5.112557 3.13669,5.219687 3.202514,5.303027 3.226736,5.32871 3.303592,5.437994 3.389038,5.539941 3.449805,5.606957 3.450628,5.608826 3.456468,5.614475 3.464554,5.624093 3.510393,5.679068 3.517665,5.69142 3.564253,5.740512 3.611286,5.789303 3.625606,5.804221 3.641024,5.828828 3.645908,5.840232 3.665823,5.855132 3.667263,5.855821 3.671129,5.861408 3.736494,5.953359 3.774264,5.999891 3.800089,6.087559 3.829077,6.142942 3.860091,6.190349 3.88461,6.220089 3.919578,6.24942 3.932852,6.260554 3.975362,6.267548 4.031191,6.276736 4.289035,6.349171 4.325405,6.356571 4.358341,6.374442 4.402134,6.400903 4.415433,6.442122 4.418491,6.451272 4.41415,6.460341 4.352512,6.493551 4.279299,6.490549 4.086348,6.529808 4.05512,6.527441 4.022204,6.525242 4.018474,6.524992 4.016862,6.524885 4.010876,6.524485 4.00643,6.524188 3.998236,6.523048 3.941427,6.515143 3.923188,6.55359 3.895925,6.571395 3.86603,6.581909 3.848663,6.585725 3.80949,6.57441 3.778417,6.569022 3.757591,6.554193 3.676818,6.485661 3.672348,6.480941 3.657884,6.46393 3.625177,6.450218 3.586169,6.435882 3.579456,6.429389 3.563285,6.396108 3.504923,6.376836 3.493097,6.373883 3.464754,6.343434 3.428967,6.329317 3.424587,6.324015 3.396547,6.304855 3.381324,6.293408 3.378243,6.290788 3.352613,6.274959 3.331119,6.26727 3.223417,6.215217 3.195379,6.183859 3.11274,6.146801 3.087624,6.137054 2.98756,6.060312 2.931742,6.034984 2.930044,6.032587 2.915596,6.021916 2.874698,5.97927 2.851299,5.965328 2.80725,5.96103 2.764305,5.947727 2.751813,5.950277 2.725811,5.952645 2.721302,5.953743 2.629719,5.955968 2.614805,5.961754 2.610988,5.957559 2.57955,5.973025 2.574225,5.973974 2.572785,5.974675 2.533382,5.974968 2.515368,5.984287 2.496435,5.988789 2.491296,5.988885 2.402773,5.971153 2.370463,5.966793 2.365138,5.963028 2.360259,5.962354 2.324091,5.940683 2.320786,5.939139 2.309147,5.932845 2.302116,5.92103 2.287797,5.914221 2.268879,5.900886 2.242464,5.903619 2.218217,5.894217 2.213221,5.889899 2.175214,5.873883 2.16162,5.857779 2.149535,5.851642 2.115804,5.837962 2.057546,5.824507 2.010786,5.80633 2.001745,5.809402 1.981448,5.805298 1.948757,5.812801 1.939112,5.806876 1.909155,5.82485 1.902742,5.827313 1.901376,5.827728 1.878617,5.832343 1.796643,5.856703 1.794105,5.857311 1.792206,5.857321 1.775761,5.853155 1.704063,5.833372 1.700237,5.831308 1.688568,5.818142 1.67838,5.814103 1.662481,5.789715 1.628652,5.782731 1.592338,5.766603 1.578355,5.759078 1.537693,5.743602 1.497678,5.730661 1.454815,5.718765 1.422804,5.714316 1.349218,5.70856 1.337443,5.711278 1.30198,5.717284 1.226072,5.731172 1.217337,5.729919 1.173295,5.730397 1.147717,5.72566 1.046207,5.665549 1.017124,5.649712 0.9923,5.620125 0.990435,5.616147 0.989671,5.599066 0.983511,5.580442 0.966405,5.521705 0.955381,5.511156 0.949044,5.502904 0.931135,5.481543 0.92674,5.474082 0.886691,5.420716 0.822236,5.360797 0.793892,5.325468 0.769816,5.266078 0.765091,5.238045 0.759502,5.203876 0.763181,5.180554 0.76814,5.159474 0.775463,5.140032 0.781461,5.121136 0.777559,5.090721 0.778869,5.075756 0.769806,5.048118 0.763666,5.02889 0.765062,5.013593 0.75951,4.996179 0.663021,4.843276 0.639643,4.815649 0.631349,4.807723 0.629538,4.791228 0.617787,4.760608 0.589771,4.720882 0.542577,4.665332 0.517768,4.619137 0.502723,4.590355 0.496837,4.572229 0.482665,4.470743 0.477773,4.446299 0.482408,4.425087 0.496292,4.340768 0.516798,4.261493 0.517038,4.260742 0.51728,4.260047 0.519244,4.25845 0.606396,4.182206 0.616316,4.148756 0.631463,4.119251 0.63873,4.097871 0.642891,4.093666 0.644105,4.092776 0.687338,4.044406 0.743218,3.943138 0.750207,3.929568 0.751779,3.924383 0.76561,3.905448 0.763491,3.882936 0.770217,3.86144 0.778455,3.840649 0.778508,3.830445 0.784819,3.7914 0.763226,3.73034 0.759519,3.705228 0.764133,3.673897 0.774048,3.633379 0.795218,3.581651 0.879586,3.502874 0.913006,3.454981 0.916248,3.451694 0.920328,3.446766 0.930482,3.430923 0.958111,3.39586 0.969695,3.381613 0.978985,3.366869 0.982158,3.358878 1.010708,3.27221 1.04433,3.241704 1.057603,3.232806 1.075933,3.22412 1.105986,3.209953 1.183557,3.193568 1.215899,3.190347 1.271289,3.183285 1.317456,3.189813 1.352705,3.202894 1.428484,3.196648 1.495401,3.182208 1.541361,3.167481 1.635038,3.1264 1.662514,3.121368 1.677089,3.099688 1.693296,3.087949 1.702304,3.077837 1.707569,3.074177 1.727652,3.069984 1.782999,3.056224 1.792801,3.054523 1.800419,3.056088 1.902556,3.084583 1.908748,3.086423 1.926976,3.093668 1.948635,3.113425 1.974347,3.100665 1.983514,3.098594 1.996804,3.108879 2.053566,3.089083 2.073366,3.082393 2.086775,3.084445 2.133101,3.065588 2.143109,3.057588 2.159323,3.050913 2.184886,3.037197 2.210179,3.024837 2.21414,3.020862 2.220593,3.016719 2.242374,3.008856 2.274605,3.010219 2.298254,2.990906 2.302965,2.981916 2.332893,2.961564 2.334387,2.960634 2.334538,2.960537 2.335601,2.96 2.372878,2.944345 2.38961,2.947018 2.404845,2.945724 2.492849,2.921953 2.499087,2.922195 2.515876,2.927386 2.531801,2.927433 2.542931,2.936082 2.573958,2.937807 2.578091,2.938268 2.582767,2.939645 2.61367,2.954937 2.624659,2.954011 2.721926,2.958444 2.755033,2.962506 2.773259,2.952173 2.792691,2.951196 2.815846,2.953032 2.840279,2.952355 2.855407,2.941599 2.884474,2.926279 2.903688,2.90131 2.948753,2.86693 2.952155,2.864474 3.013821,2.841137 3.102704,2.754383 3.103131,2.754 3.10356,2.753718 3.105133,2.753187 3.289259,2.667357 3.312652,2.648974 3.313743,2.648655 3.319836,2.64594 3.372791,2.625169 3.429914,2.584644 3.431565,2.581754 3.432357,2.581319 3.434856,2.579428 3.46687,2.567447 3.491399,2.538671 3.493093,2.53773 3.509278,2.524977 3.535621,2.52404 3.563461,2.51634 3.576452,2.49151 3.581315,2.479629 3.58908,2.473562 3.625914,2.454828 3.652407,2.455151 3.674124,2.428103 3.679713,2.423087 3.71394,2.397314 3.790452,2.333541 3.797975,2.327387 3.800679,2.32714" style="fill: white" />
</svg>
