<svg width="13.600213" height="8.910821">
<polygon type="contour" points="4.12399,1.553683 4.137934,1.553477 4.139364,1.553279 4.141127,1.553302 4.143522,1.553612 4.15293,1.555005 4.180762,1.56098 4.185759,1.569203 4.229286,1.5965 4.270404,1.589763 4.276125,1.587897 4.353333,1.583068 4.378062,1.586652 4.408876,1.5938 4.429329,1.60705 4.450396,1.635102 4.473291,1.647502 4.488515,1.654657 4.625413,1.689118 4.647503,1.69223 4.769513,1.687911 4.805032,1.68346 4.824569,1.677112 4.839352,1.67636 4.861357,1.676982 4.864453,1.675952 4.867611,1.678685 4.980948,1.682244 5.023267,1.679048 5.047706,1.678942 5.075284,1.653754 5.094715,1.650303 5.140545,1.644183 5.179892,1.643871 5.190917,1.643377 5.30582,1.670104 5.307118,1.669991 5.308928,1.670448 5.314844,1.669797 5.481554,1.673609 5.502074,1.666093 5.520085,1.669681 5.528901,1.671223 5.54643,1.672239 5.556589,1.673675 5.609159,1.687204 5.618861,1.692449 5.642348,1.701202 5.832179,1.766556 5.846964,1.769639 5.851948,1.771523 5.863425,1.772865 5.879554,1.775914 5.926465,1.787787 5.961423,1.801424 5.988843,1.815451 6.063749,1.839995 6.091202,1.850277 6.114754,1.860179 6.133544,1.861768 6.144889,1.868819 6.15567,1.866725 6.203285,1.885926 6.258169,1.909113 6.267753,1.931794 6.282522,1.937389 6.290556,1.945018 6.335836,1.965565 6.449065,2.017468 6.498547,2.04159 6.538932,2.055559 6.554858,2.064329 6.56738,2.064804 6.583065,2.070763 6.591799,2.069658 6.6205,2.073441 6.629969,2.073842 6.635913,2.076821 6.645515,2.076527 6.654269,2.079601 6.704557,2.086977 6.705625,2.086791 6.713816,2.089589 6.769296,2.110003 6.788161,2.123673 6.901796,2.167421 6.98892,2.179305 7.004326,2.18777 7.051773,2.197912 7.077589,2.200521 7.168278,2.220047 7.203046,2.237416 7.224965,2.247388 7.394707,2.310975 7.412829,2.315654 7.466805,2.330011 7.480829,2.344 7.49943,2.351114 7.607027,2.379177 7.631211,2.38576 7.63557,2.386367 7.66013,2.390299 7.665438,2.392428 7.729624,2.434431 7.756686,2.459398 7.821513,2.509417 7.86882,2.533819 8.029277,2.607791 8.041241,2.609854 8.074981,2.61303 8.095011,2.612563 8.105875,2.61679 8.132199,2.606876 8.133459,2.606544 8.135274,2.606673 8.193174,2.617681 8.208667,2.616991 8.222685,2.62389 8.270948,2.635169 8.282843,2.640312 8.297999,2.644416 8.333697,2.637191 8.475037,2.675679 8.53016,2.679514 8.611611,2.702741 8.778108,2.725072 8.814047,2.729499 8.891637,2.757921 8.929922,2.771173 8.952329,2.785048 9.006861,2.815741 9.100474,2.884748 9.135293,2.913986 9.175645,2.961984 9.192752,2.991776 9.216846,3.007015 9.243653,3.026788 9.299441,3.062359 9.329941,3.080245 9.398255,3.117044 9.400331,3.118208 9.441488,3.150615 9.542512,3.181507 9.550962,3.182161 9.55585,3.183568 9.568244,3.188061 9.57383,3.194876 9.583645,3.20083 9.645493,3.236883 9.652334,3.25805 9.688117,3.292971 9.700798,3.304086 9.703628,3.311334 9.725375,3.341078 9.729699,3.344433 9.732045,3.347568 9.757301,3.372421 9.841905,3.454084 9.844668,3.455726 9.874765,3.479072 9.949963,3.55105 10.055465,3.62387 10.132767,3.697916 10.151848,3.725359 10.16954,3.746012 10.288062,3.835895 10.312114,3.857047 10.3444,3.904328 10.430521,3.970025 10.457226,3.998991 10.472663,4.018766 10.528384,4.103023 10.548089,4.163707 10.552202,4.177451 10.549755,4.237016 10.555541,4.279465 10.552743,4.346388 10.542598,4.55444 10.545691,4.601987 10.550117,4.675253 10.541842,4.724243 10.51821,4.777843 10.451681,4.907592 10.347146,5.026711 10.332182,5.038762 10.326033,5.043767 10.31172,5.05655 10.152174,5.190279 10.121586,5.244483 9.924896,5.383198 9.913787,5.390578 9.906396,5.395901 9.896453,5.407696 9.874583,5.435167 9.800051,5.500675 9.764219,5.538227 9.728814,5.565523 9.676394,5.632499 9.638709,5.682442 9.573669,5.716411 9.54339,5.738478 9.427819,5.776328 9.253855,5.886399 9.192481,5.920597 9.188415,5.932539 9.169564,5.948449 9.069739,6.048057 8.9851,6.105097 8.905301,6.147808 8.843718,6.168525 8.781987,6.188161 8.735478,6.195644 8.639088,6.20913 8.58715,6.216926 8.527541,6.227672 8.478706,6.238843 8.348473,6.270439 8.315233,6.264993 8.287769,6.269824 8.229383,6.286056 8.176924,6.299012 8.136231,6.304559 8.111789,6.298296 8.078537,6.298118 8.068241,6.301438 8.051248,6.301413 8.04204,6.301358 8.029269,6.303809 7.995665,6.316955 7.819822,6.409167 7.79102,6.425123 7.78372,6.432482 7.76745,6.443595 7.742942,6.464365 7.736934,6.472955 7.668069,6.517652 7.660106,6.521346 7.635477,6.525302 7.502357,6.561278 7.492168,6.562767 7.47603,6.573308 7.468639,6.580286 7.382185,6.604382 7.224713,6.659122 7.152011,6.695583 7.048733,6.713022 6.97856,6.739309 6.913949,6.749527 6.909987,6.752058 6.875001,6.755729 6.705554,6.833072 6.632953,6.850704 6.618964,6.849881 6.571918,6.849706 6.45985,6.891529 6.318183,6.953103 6.268938,6.976953 6.257268,7.004806 6.190169,7.031936 6.135491,7.050014 6.11422,7.051754 6.087106,7.061695 5.983247,7.097546 5.96921,7.107811 5.946413,7.116664 5.926603,7.123786 5.879542,7.135706 5.873597,7.137203 5.833985,7.143731 5.645251,7.209663 5.637039,7.210185 5.624483,7.218486 5.615748,7.22158 5.57019,7.23609 5.55698,7.237003 5.514551,7.242612 5.482947,7.23746 5.383344,7.236281 5.297624,7.236548 5.283701,7.237929 5.250585,7.25714 5.194064,7.266312 5.13553,7.269711 5.117739,7.267357 5.10776,7.266886 5.0843,7.260883 5.082291,7.260444 5.041533,7.234071 5.026182,7.231399 4.971892,7.230309 4.957435,7.23208 4.887704,7.233637 4.804134,7.222299 4.760002,7.225329 4.740102,7.227562 4.682516,7.219457 4.653375,7.219501 4.651077,7.21964 4.649092,7.219582 4.641615,7.220076 4.592507,7.231347 4.469675,7.26649 4.443687,7.297162 4.411328,7.316761 4.37845,7.324848 4.36612,7.327094 4.291086,7.32487 4.290957,7.324875 4.290756,7.324777 4.238581,7.317314 4.202723,7.31508 4.186486,7.347028 4.183237,7.3494 4.150107,7.357419 4.143423,7.358639 4.14111,7.358966 4.136421,7.358705 4.088503,7.358345 4.07932,7.354658 4.059882,7.353701 4.050263,7.350716 4.034674,7.33902 4.02024,7.333911 3.995628,7.321267 3.985104,7.31117 3.974507,7.309451 3.960555,7.302865 3.949807,7.293536 3.941923,7.288302 3.919383,7.274162 3.850542,7.235785 3.849352,7.235781 3.848044,7.233204 3.833329,7.222964 3.828787,7.22027 3.821925,7.200971 3.798904,7.194945 3.795552,7.192199 3.777738,7.188459 3.739301,7.176352 3.724439,7.171439 3.709719,7.173041 3.677464,7.169225 3.640153,7.197649 3.623337,7.233353 3.581324,7.2479 3.547176,7.260103 3.529077,7.267071 3.517448,7.272195 3.505255,7.269375 3.486756,7.259381 3.46986,7.252725 3.437676,7.238016 3.409889,7.24309 3.39853,7.239561 3.356168,7.236023 3.350205,7.238952 3.346563,7.239397 3.302547,7.242529 3.284416,7.235578 3.263462,7.217977 3.231267,7.175892 3.227688,7.151034 3.200234,7.12418 3.11881,7.046135 3.093669,7.029917 3.074822,7.00924 3.048049,7.006545 3.026838,7.008677 2.983274,7.010312 2.983007,7.013659 2.917441,7.012728 2.882777,7.012372 2.871652,7.013264 2.866916,7.010008 2.856169,7.001017 2.829592,6.972146 2.80087,6.972429 2.783494,6.970399 2.719253,6.963065 2.684572,6.954983 2.633116,6.94592 2.615334,6.940593 2.612663,6.937682 2.527758,6.913462 2.51133,6.899833 2.479668,6.870021 2.456928,6.865811 2.346277,6.83955 2.2552,6.819207 2.248136,6.818373 2.242864,6.818625 2.236208,6.816963 2.119737,6.80002 2.056468,6.78231 1.998699,6.755934 1.973047,6.739062 1.914979,6.701916 1.886146,6.682318 1.879076,6.666928 1.86556,6.64659 1.824239,6.637641 1.78245,6.640956 1.771841,6.64681 1.726901,6.662088 1.660952,6.674221 1.632981,6.682896 1.619672,6.682778 1.518596,6.625352 1.350125,6.530415 1.331542,6.52216 1.323137,6.513569 1.313063,6.499882 1.304734,6.470798 1.298039,6.457011 1.296119,6.427949 1.288718,6.38433 1.281132,6.37687 1.280158,6.3602 1.254753,6.341299 1.248817,6.332344 1.234506,6.327271 1.223837,6.314133 1.20252,6.294876 1.168634,6.253331 1.140705,6.216542 1.08904,6.145917 1.080123,6.126209 1.074355,6.114761 1.071122,6.106309 1.068734,6.086439 1.065052,6.071136 1.060633,6.035461 1.05621,6.010762 1.055784,5.977634 1.045238,5.937799 1.041481,5.907801 1.041385,5.902613 1.038855,5.893938 1.032174,5.850657 1.029327,5.811784 1.026108,5.718135 1.02393,5.678133 1.019019,5.665604 1.022999,5.620463 1.036341,5.465941 1.039175,5.448523 1.043485,5.426376 1.058966,5.402641 1.05707,5.384941 1.064071,5.310596 1.048632,5.263774 1.049103,5.159747 1.050657,5.132729 1.056371,5.112816 1.068248,5.086307 1.049577,5.0357 1.038761,5.019318 1.019212,4.984693 1.020992,4.903721 1.008456,4.645883 1.004599,4.605085 1.00487,4.598156 0.993674,4.489872 0.991894,4.449665 1.013802,4.349376 1.008691,4.318745 1.011123,4.267738 1.005607,4.099964 1.066868,3.870131 1.071958,3.818167 1.048577,3.787797 1.056518,3.574676 1.056944,3.531472 1.054893,3.495245 1.043952,3.485273 1.043592,3.475306 1.03255,3.386259 1.027198,3.327855 1.020857,3.305023 1.016962,3.258925 1.0199,3.243801 1.031096,3.23139 1.031039,3.112367 1.029249,3.106233 1.033291,3.086324 1.039595,3.013201 1.038519,3.003098 1.043756,2.96354 1.04363,2.95968 1.06958,2.808919 1.073763,2.798595 1.108953,2.733539 1.171108,2.644191 1.183357,2.628073 1.194773,2.618113 1.206413,2.607683 1.248938,2.578962 1.254521,2.570547 1.280166,2.551426 1.281143,2.534749 1.288722,2.527294 1.296118,2.484313 1.29807,2.455138 1.304904,2.44105 1.309364,2.423277 1.309198,2.418099 1.31396,2.410745 1.324304,2.396931 1.332339,2.388681 1.508297,2.283874 1.571074,2.247445 1.587329,2.24085 1.607264,2.233665 1.633516,2.233219 1.687725,2.244072 1.76223,2.266745 1.809008,2.275788 1.872614,2.264112 1.885706,2.22866 1.913347,2.210337 1.982634,2.165413 2.003776,2.1527 2.078514,2.12161 2.230728,2.095465 2.238855,2.093403 2.244988,2.093805 2.254951,2.093205 2.26115,2.091461 2.277752,2.088576 2.393385,2.060625 2.403996,2.055455 2.457754,2.045734 2.480925,2.041313 2.516492,2.009869 2.526416,1.999073 2.542886,1.994292 2.603346,1.976272 2.612026,1.974459 2.619897,1.969895 2.71736,1.947263 2.752889,1.947325 2.805847,1.940984 2.811151,1.940068 2.838378,1.931152 2.845685,1.920937 2.857752,1.910431 2.866914,1.901613 2.871651,1.898357 2.976305,1.898287 3.024185,1.902123 3.05197,1.909092 3.081716,1.897883 3.100391,1.874293 3.114349,1.869867 3.119016,1.866281 3.123036,1.864977 3.162719,1.827797 3.245262,1.749675 3.269733,1.689209 3.282531,1.676475 3.312742,1.656992 3.327037,1.658519 3.396663,1.672758 3.417209,1.674614 3.435475,1.670026 3.453854,1.669097 3.473803,1.651425 3.484026,1.647763 3.505298,1.642211 3.516611,1.639146 3.581233,1.66366 3.625757,1.679118 3.641816,1.716567 3.685606,1.751925 3.709715,1.73858 3.730002,1.738263 3.778021,1.723169 3.790848,1.721562 3.797895,1.718056 3.821721,1.711224 3.828786,1.691349 3.833329,1.688655 3.848041,1.678416 3.848757,1.676496 3.849975,1.675527 3.859041,1.671109 3.935939,1.625978 3.944725,1.621944 3.951008,1.617732 3.960648,1.609374 3.974515,1.602166 3.985109,1.60044 3.995629,1.590344 4.020232,1.577706 4.034874,1.57255 4.050259,1.5609 4.062702,1.558565 4.081481,1.553625 4.091913,1.552703" style="fill: white" /><polygon type="hole" points="6.267157,3.219878 6.165768,3.227342 5.954277,3.288617 5.93812,3.294774 5.927645,3.299521 5.89579,3.316086 5.793685,3.380798 5.668296,3.510399 5.617072,3.595965 5.578661,3.675652 5.568751,3.725811 5.558864,3.775855 5.530644,3.889071 5.510457,4.032601 5.507677,4.570643 5.50827,4.627427 5.508744,4.637501 5.542981,4.910855 5.547485,4.946802 5.550243,4.979694 5.605928,5.195938 5.633883,5.270668 5.700704,5.37375 5.734029,5.426477 5.783473,5.474301 5.863967,5.527671 6.049388,5.606261 6.135742,5.637975 6.247854,5.636762 6.391523,5.630962 6.427361,5.62522 6.473784,5.607252 6.589637,5.55441 6.660063,5.516355 6.807559,5.405791 6.844249,5.362409 6.959338,5.216595 7.006498,5.148215 7.04656,5.070821 7.124257,4.89678 7.136194,4.834149 7.155345,4.744632 7.185316,4.551411 7.203639,4.243895 7.209397,4.072329 7.208006,4.038498 7.205508,4.024159 7.199978,4.00387 7.155552,3.833198 7.112081,3.732875 7.002694,3.550617 6.996086,3.540418 6.988689,3.534777 6.95228,3.502766 6.830148,3.404737 6.825446,3.400065 6.677805,3.314706 6.626531,3.292462 6.532499,3.254615 6.42937,3.234215 6.355929,3.218203" style="fill: black" />
</svg>
