<svg width="13.600213" height="8.910821">
<polygon type="contour" points="4.124656,0.971256 4.171713,0.975096 4.20537,0.978563 4.213286,0.979561 4.214248,0.979566 4.282602,1.000321 4.285681,1.000858 4.287197,1.001769 4.288816,1.003883 4.29201,1.007663 4.355742,1.063858 4.36876,1.076947 4.379348,1.084414 4.382614,1.093219 4.401109,1.120657 4.416902,1.165404 4.431951,1.213108 4.43759,1.231692 4.493769,1.347178 4.523161,1.407463 4.549769,1.420797 4.569513,1.438863 4.579485,1.445918 4.5906,1.452363 4.611059,1.456888 4.755841,1.522558 4.758011,1.521886 4.770879,1.527473 4.865453,1.464994 4.875707,1.456122 4.915617,1.412836 4.886708,1.3168 4.876304,1.268007 4.878904,1.232924 4.878595,1.229664 4.88255,1.202073 4.891361,1.19562 4.904015,1.193097 4.907452,1.189344 4.915834,1.188164 4.945287,1.186883 5.036254,1.177752 5.044088,1.177415 5.047684,1.176154 5.116735,1.178687 5.142706,1.180914 5.175382,1.183768 5.318484,1.197302 5.458018,1.186681 5.48872,1.184873 5.51887,1.185126 5.709006,1.178497 5.845938,1.189218 6.032265,1.198636 6.163805,1.22604 6.281264,1.248642 6.334133,1.259324 6.402611,1.279633 6.508636,1.305318 6.59171,1.333722 6.606308,1.340334 6.72969,1.362378 6.764079,1.373572 6.781578,1.381331 6.939776,1.45678 6.95858,1.484281 6.986941,1.501042 7.040931,1.53064 7.061405,1.552254 7.088931,1.574436 7.119183,1.611034 7.138094,1.625489 7.197109,1.707575 7.233207,1.766313 7.247093,1.791508 7.274262,1.878301 7.278673,1.959328 7.302144,2.009383 7.311289,2.026557 7.318156,2.03011 7.35499,2.094478 7.357402,2.102482 7.386149,2.142989 7.397683,2.156229 7.400422,2.190869 7.418593,2.223844 7.422977,2.237837 7.461668,2.288528 7.593486,2.441541 7.611199,2.45164 7.62194,2.477089 7.652571,2.503789 7.694547,2.530549 7.723331,2.563215 7.768285,2.599081 7.851456,2.655633 7.865719,2.660999 7.905464,2.70199 7.931649,2.703888 7.939566,2.705205 7.943629,2.706811 8.038922,2.749499 8.094683,2.786206 8.116539,2.799536 8.139834,2.835031 8.181655,2.862393 8.207788,2.87807 8.218698,2.87571 8.230148,2.880565 8.293319,2.898045 8.293599,2.898094 8.293777,2.898165 8.339319,2.908383 8.377783,2.930963 8.383623,2.932147 8.390097,2.934946 8.462565,2.954523 8.489927,2.958868 8.508873,2.966787 8.517861,2.966379 8.540187,2.971618 8.553194,2.972775 8.580423,2.984293 8.585247,2.986997 8.621902,3.020633 8.649607,3.045637 8.667616,3.060996 8.680442,3.083388 8.696576,3.119132 8.701586,3.13947 8.701408,3.140597 8.714959,3.197219 8.750632,3.238754 8.774606,3.268284 8.787819,3.29595 8.792958,3.312229 8.802338,3.331411 8.811989,3.359094 8.849222,3.404576 8.868046,3.438776 8.876803,3.444619 8.880805,3.449727 8.917227,3.469145 8.936239,3.498215 8.962185,3.547113 8.975309,3.561063 9.001162,3.58797 9.033074,3.633467 9.065321,3.691267 9.069738,3.696007 9.072592,3.700298 9.111471,3.740328 9.112126,3.741347 9.114223,3.745481 9.125788,3.771377 9.137088,3.792205 9.138829,3.797943 9.140809,3.809779 9.142309,3.837205 9.143911,3.842376 9.142629,3.878466 9.163262,3.96868 9.163153,3.976213 9.171195,4.010331 9.19624,4.128419 9.209339,4.205354 9.211927,4.224193 9.222052,4.273778 9.218759,4.301347 9.218472,4.325191 9.236907,4.422458 9.244601,4.507528 9.21918,4.619304 9.222297,4.639984 9.215059,4.687385 9.190994,4.794602 9.196879,4.824655 9.195764,4.831281 9.183569,4.867482 9.160388,4.914073 9.16328,4.951032 9.157921,4.973217 9.13339,5.052527 9.138513,5.09002 9.131122,5.111964 9.118553,5.143744 9.105774,5.167163 9.082478,5.201586 9.064637,5.219263 9.024047,5.287164 8.990301,5.335119 8.96924,5.353936 8.928083,5.419703 8.914722,5.437308 8.910547,5.440225 8.867738,5.472475 8.854278,5.497099 8.83437,5.526161 8.794474,5.589625 8.783825,5.615545 8.764906,5.659789 8.751591,5.675869 8.717007,5.708799 8.70488,5.754692 8.699488,5.76911 8.699437,5.780153 8.69474,5.799474 8.682609,5.825489 8.66869,5.849334 8.650672,5.860407 8.643898,5.871386 8.605952,5.905779 8.571845,5.930587 8.56633,5.93363 8.558225,5.937019 8.543445,5.938321 8.498475,5.949261 8.487921,5.952225 8.484334,5.951945 8.394086,5.974561 8.387023,5.977209 8.382907,5.978132 8.3341,6.005121 8.301894,6.012153 8.266167,6.027946 8.229443,6.031824 8.215705,6.036523 8.210226,6.033166 8.182023,6.049301 8.160609,6.064257 8.145393,6.070739 8.130455,6.092567 8.089827,6.130505 8.04864,6.154682 7.968582,6.190877 7.917166,6.206578 7.905393,6.212958 7.893533,6.219788 7.859486,6.254072 7.795638,6.30352 7.758369,6.336671 7.693227,6.382612 7.659135,6.405566 7.654613,6.407046 7.61628,6.442045 7.582426,6.48717 7.520576,6.570832 7.471931,6.627362 7.468215,6.631964 7.463786,6.634138 7.428869,6.661874 7.416482,6.679722 7.399834,6.723809 7.398883,6.743071 7.312929,6.874368 7.306153,6.888514 7.297527,6.904342 7.28251,6.941297 7.273793,7.011533 7.235173,7.127796 7.210924,7.180932 7.178273,7.232551 7.140432,7.284189 7.118527,7.300381 7.110412,7.311584 7.068175,7.36725 6.983153,7.417871 6.950707,7.433553 6.942715,7.450664 6.936731,7.457594 6.896182,7.473873 6.86868,7.487588 6.859307,7.492356 6.843581,7.498245 6.815434,7.50167 6.737153,7.537299 6.619971,7.566468 6.581312,7.579452 6.520616,7.602462 6.471186,7.629985 6.397074,7.636992 6.294513,7.656456 6.271296,7.668542 6.211326,7.669273 6.129727,7.691056 6.104957,7.705164 6.07314,7.713087 5.991093,7.722713 5.95404,7.721139 5.832302,7.732974 5.657117,7.741406 5.577912,7.73941 5.549722,7.732582 5.474536,7.730033 5.416223,7.72282 5.280493,7.710381 5.265994,7.710654 5.255103,7.711963 5.211576,7.730326 5.054127,7.735253 5.04958,7.735715 5.048776,7.735628 5.048162,7.735554 5.046864,7.735344 5.044851,7.734678 4.937194,7.722973 4.913071,7.725353 4.894077,7.725929 4.890099,7.715114 4.880318,7.703865 4.878505,7.680484 4.878674,7.678707 4.876361,7.655109 4.886008,7.616077 4.913059,7.532379 4.905308,7.487 4.872122,7.4519 4.868129,7.449425 4.854419,7.434609 4.836641,7.433083 4.833863,7.419501 4.81797,7.414342 4.801077,7.385438 4.760062,7.385875 4.560245,7.471547 4.518486,7.514438 4.497699,7.54655 4.485428,7.586391 4.436148,7.701674 4.407789,7.777864 4.386192,7.818322 4.38204,7.833732 4.293698,7.901894 4.286114,7.910622 4.278203,7.912761 4.245534,7.924795 4.201793,7.927161 4.180244,7.934633 4.167286,7.936747 4.160147,7.940641 4.130315,7.940948 4.114826,7.941962 4.105942,7.940025 4.088433,7.941583 4.067704,7.934897 4.038128,7.932555 4.020329,7.928417 4.014818,7.932075 3.990119,7.928347 3.986315,7.928519 3.951966,7.887278 3.909053,7.91833 3.805357,7.874593 3.786182,7.874579 3.763315,7.859819 3.753339,7.842548 3.735958,7.823365 3.672379,7.759725 3.66539,7.752268 3.659492,7.743582 3.60809,7.665459 3.596514,7.661473 3.585208,7.653548 3.56706,7.634032 3.539624,7.612352 3.517398,7.586589 3.495924,7.559289 3.479632,7.54339 3.452459,7.51449 3.439536,7.491737 3.408548,7.457631 3.376868,7.429461 3.34265,7.390951 3.270814,7.307875 3.27151,7.282241 3.215686,7.247175 3.183695,7.233629 3.147758,7.218418 3.143075,7.187505 3.104043,7.159452 2.983494,7.085616 2.96269,7.065081 2.913266,7.033378 2.903601,7.032021 2.865252,7.019784 2.793135,7.006832 2.770316,6.999779 2.707106,6.997659 2.64798,6.99467 2.632248,6.995675 2.589372,6.993685 2.557587,7.003751 2.551415,7.013053 2.537341,7.02504 2.486079,7.049188 2.466698,7.059945 2.458239,7.063616 2.443032,7.065548 2.437914,7.066322 2.413187,7.06152 2.383876,7.066765 2.376987,7.069379 2.355667,7.073447 2.342235,7.068114 2.307426,7.083876 2.302371,7.083486 2.279655,7.092719 2.259434,7.0943 2.167025,7.104183 2.152009,7.107107 2.118497,7.121792 2.096862,7.132897 2.089615,7.134451 2.080328,7.131848 2.070504,7.135344 2.038084,7.114304 2.021176,7.120055 1.979329,7.115849 1.961784,7.117777 1.948066,7.124786 1.888432,7.096106 1.80886,7.102632 1.745197,7.11406 1.686931,7.092901 1.648119,7.061805 1.625914,7.044015 1.604839,7.046984 1.568448,7.05115 1.557663,7.052212 1.502732,7.050863 1.440584,7.050863 1.449657,7.116225 1.449909,7.134842 1.449783,7.146575 1.418109,7.250155 1.39229,7.298828 1.379542,7.324273 1.365429,7.34445 1.323743,7.405081 1.321636,7.408223 1.320718,7.408979 1.24319,7.490009 1.219434,7.500801 1.184638,7.514012 1.095243,7.545545 0.918364,7.571745 0.905652,7.607371 0.898002,7.619206 0.892882,7.622295 0.880289,7.635243 0.864112,7.641341 0.843275,7.66175 0.798204,7.700126 0.756632,7.715519 0.754073,7.718829 0.753309,7.719212 0.750645,7.71845 0.621251,7.70886 0.621176,7.708838 0.614283,7.704855 0.590418,7.692969 0.564652,7.703309 0.445755,7.76147 0.44318,7.761177 0.419001,7.75854 0.363099,7.771184 0.329389,7.776751 0.324811,7.778707 0.265689,7.775123 0.254375,7.771683 0.175883,7.72742 0.159554,7.710877 0.138679,7.703603 0.109215,7.658289 0.0798,7.610822 0.070884,7.585199 0.062789,7.524741 0.055103,7.460104 0.061736,7.44265 0.08738,7.333282 0.098461,7.305963 0.121767,7.259508 0.153722,7.149076 0.149457,7.077007 0.170403,6.932843 0.17441,6.849442 0.186957,6.672109 0.222552,6.491417 0.217799,6.337253 0.242326,6.212125 0.241988,6.178239 0.256399,6.060948 0.244235,6.020983 0.251948,5.985959 0.256928,5.848773 0.259956,5.824534 0.26989,5.794642 0.276658,5.770429 0.310029,5.670329 0.307259,5.645398 0.315962,5.594974 0.324308,5.554404 0.343115,5.51189 0.353505,5.457508 0.399602,5.334927 0.401635,5.327424 0.414051,5.319151 0.422668,5.301131 0.468481,5.276669 0.424304,5.231129 0.424154,5.229544 0.422459,5.224036 0.422865,5.211915 0.422853,5.208853 0.422169,5.197564 0.416615,5.184346 0.404811,5.165477 0.386012,5.149226 0.348672,5.064229 0.324819,5.012776 0.315502,4.984927 0.316981,4.976329 0.337452,4.77529 0.344979,4.700145 0.359749,4.657339 0.375232,4.640513 0.436203,4.549555 0.44278,4.516925 0.451014,4.503618 0.452508,4.484527 0.450936,4.453597 0.451328,4.407819 0.451492,4.389256 0.36794,4.234271 0.365702,4.231411 0.364073,4.226348 0.340839,4.183018 0.317129,4.087311 0.316061,4.084173 0.315936,4.083004 0.315996,4.079853 0.322162,3.922815 0.347816,3.841016 0.362632,3.803775 0.394279,3.76732 0.423693,3.682555 0.454673,3.632628 0.414053,3.603346 0.401329,3.581652 0.388565,3.554037 0.381096,3.535185 0.382404,3.524357 0.371361,3.509399 0.34348,3.431679 0.331551,3.395657 0.327363,3.377603 0.318145,3.347627 0.309273,3.294019 0.309212,3.293587 0.309303,3.293401 0.303541,3.221947 0.282852,3.152512 0.255029,3.08828 0.25232,3.061023 0.251306,3.005707 0.246777,2.878275 0.241344,2.807551 0.247314,2.781581 0.24532,2.740755 0.24231,2.721499 0.22471,2.636167 0.22247,2.4207 0.219425,2.407451 0.199218,2.360395 0.188919,2.252278 0.174662,2.035642 0.160909,2.012136 0.154325,1.910755 0.154472,1.829106 0.154352,1.823952 0.133437,1.686755 0.10133,1.621144 0.088934,1.581551 0.069701,1.427915 0.067843,1.343064 0.071958,1.315321 0.087388,1.288036 0.103497,1.254961 0.114765,1.235177 0.120472,1.229178 0.127122,1.220839 0.146047,1.20742 0.152987,1.197343 0.161421,1.191407 0.183205,1.178593 0.197119,1.170822 0.2192,1.15823 0.237189,1.147511 0.252702,1.144314 0.264249,1.136931 0.285848,1.144764 0.294839,1.132303 0.355451,1.131226 0.393959,1.148303 0.395883,1.138925 0.422664,1.150123 0.424644,1.140904 0.453397,1.156943 0.464519,1.154997 0.473662,1.158021 0.530815,1.185492 0.542317,1.193554 0.54887,1.196577 0.604906,1.238616 0.621154,1.202772 0.621575,1.202697 0.62481,1.202444 0.66058,1.200888 0.693278,1.197455 0.722744,1.188317 0.749856,1.189926 0.75898,1.193218 0.770895,1.200683 0.776156,1.202308 0.795155,1.212073 0.797059,1.213922 0.811726,1.219934 0.819579,1.232019 0.828278,1.243845 0.85771,1.270221 0.861423,1.272493 0.863828,1.275589 0.886215,1.287074 0.889346,1.28914 0.891388,1.290259 0.906248,1.301789 0.915926,1.363619 0.981815,1.344184 1.155421,1.383223 1.159863,1.384644 1.166918,1.386557 1.17119,1.388307 1.175321,1.389681 1.187779,1.394959 1.257022,1.443925 1.280546,1.462621 1.303247,1.48925 1.330959,1.514871 1.346944,1.535779 1.396947,1.629641 1.398736,1.631821 1.400951,1.635749 1.403692,1.64218 1.449583,1.764012 1.449224,1.785373 1.44851,1.797725 1.438557,1.86633 1.50477,1.859807 1.521012,1.859409 1.557663,1.85941 1.594141,1.863002 1.602183,1.863889 1.630563,1.867756 1.652243,1.845073 1.70839,1.804811 1.733208,1.797135 1.811111,1.801955 1.826203,1.798794 1.851335,1.810392 1.867927,1.803015 1.887469,1.807644 1.938964,1.791724 1.946838,1.790683 1.958536,1.788432 1.976204,1.796395 1.994507,1.793018 2.00011,1.796165 2.050975,1.793069 2.070313,1.776832 2.078192,1.774353 2.087246,1.776218 2.102827,1.781779 2.14726,1.803571 2.152168,1.805141 2.164171,1.808235 2.171766,1.807486 2.254939,1.816035 2.269339,1.823248 2.314269,1.841801 2.324301,1.837049 2.330843,1.838021 2.35027,1.840985 2.354253,1.838449 2.376585,1.842956 2.378902,1.843171 2.388558,1.84579 2.415291,1.849764 2.43504,1.845554 2.442202,1.846145 2.463363,1.852256 2.487058,1.857822 2.509029,1.867407 2.510244,1.868105 2.513566,1.869698 2.523455,1.875541 2.554742,1.906556 2.580383,1.913341 2.589747,1.918345 2.655281,1.918001 2.673972,1.918872 2.758331,1.908135 2.829016,1.895521 2.86877,1.885248 2.886748,1.880012 2.937131,1.849894 2.998873,1.810104 3.078424,1.763953 3.082723,1.76279 3.10038,1.754032 3.125211,1.740732 3.145959,1.697003 3.148946,1.69258 3.149388,1.691141 3.156738,1.68554 3.190147,1.669969 3.241408,1.655205 3.258054,1.636979 3.270078,1.628054 3.27843,1.587443 3.278758,1.58509 3.306384,1.561894 3.323972,1.536291 3.337416,1.525045 3.352321,1.513902 3.438144,1.408616 3.459556,1.389096 3.466604,1.382361 3.474179,1.372165 3.490587,1.353896 3.537043,1.308025 3.552911,1.293787 3.56674,1.274901 3.583466,1.260011 3.61074,1.24015 3.619598,1.22149 3.620398,1.21964 3.658207,1.171922 3.661856,1.166593 3.67051,1.155897 3.691396,1.133306 3.734036,1.078194 3.742345,1.064925 3.75838,1.05108 3.769202,1.044145 3.783822,1.042482 3.801634,1.039687 3.813057,1.034213 3.909102,0.992299 3.950986,1.025544 3.987767,0.984399 4.01235,0.978048 4.047558,0.977108 4.08407,0.970936 4.103473,0.972486 4.117214,0.969865" style="fill: white" /><polygon type="hole" points="4.560678,2.302498 4.514257,2.325076 4.408273,2.349696 4.35602,2.351588 4.077107,2.368419 4.034881,2.372544 3.983773,2.36696 3.81701,2.373012 3.790778,2.381954 3.767609,2.386885 3.742838,2.393392 3.703435,2.409387 3.492324,2.566911 3.47573,2.581269 3.440059,2.620296 3.37706,2.698875 3.229058,2.902269 3.202445,2.940275 3.121091,3.08797 3.035914,3.170864 3.01668,3.193073 3.001701,3.224422 2.914975,3.37817 2.873306,3.528431 2.85415,3.578741 2.830387,3.708097 2.815319,3.790584 2.816503,3.860667 2.81455,3.898701 2.819289,3.906667 2.820016,3.913951 2.817113,3.921634 2.807903,3.943525 2.793276,4.002822 2.849437,4.064541 2.866131,4.092561 2.862917,4.112609 2.861659,4.120471 2.819224,4.171487 2.803595,4.190277 2.794164,4.217763 2.768025,4.279009 2.754646,4.355029 2.798414,4.418232 2.750579,4.577647 2.766098,4.62827 2.832732,4.677473 2.838436,4.687689 2.865474,4.736124 2.869734,4.748013 2.866246,4.765016 2.864364,4.774194 2.862572,4.78028 2.843212,4.811766 2.78329,4.898882 2.806615,4.949165 2.813564,4.961091 2.817478,4.970328 2.815503,4.984897 2.804332,5.073494 2.815271,5.143907 2.853226,5.31745 2.903542,5.497701 2.918304,5.543575 2.942807,5.589952 3.037037,5.734958 3.106388,5.812651 3.150876,5.858934 3.221972,6.000908 3.376239,6.211996 3.442045,6.292945 3.482437,6.337127 3.557012,6.39689 3.707425,6.509842 3.729243,6.516255 3.78484,6.526719 3.813942,6.53972 3.978833,6.545193 4.036131,6.538985 4.378218,6.558472 4.400098,6.558668 4.402263,6.559261 4.496735,6.58933 4.597909,6.625067 4.713311,6.633063 4.741254,6.637378 4.859377,6.622791 4.966654,6.609448 5.155266,6.55378 5.218958,6.532535 5.361382,6.483361 5.468958,6.444765 5.774276,6.283827 5.838872,6.256432 5.844778,6.252634 5.902084,6.230707 5.986705,6.199394 6.137148,6.111768 6.244947,6.046385 6.264644,6.034522 6.270639,6.032043 6.317248,6.00818 6.497187,5.90268 6.52822,5.876109 6.641524,5.780198 6.797803,5.50791 6.82016,5.472675 6.875216,5.308462 6.880338,5.296644 6.882644,5.289114 6.893752,5.267674 7.02295,5.065359 7.137186,4.855369 7.20343,4.738065 7.207771,4.725839 7.254818,4.493417 7.24929,4.437699 7.243625,4.368463 7.231845,4.289503 7.22521,4.244574 7.173611,4.113485 7.158101,4.085692 7.012536,3.812616 6.994284,3.778769 6.930826,3.685213 6.865062,3.578947 6.841472,3.5133 6.777922,3.323924 6.699956,3.225723 6.668811,3.159807 6.576109,3.081114 6.494767,3.011786 6.341527,2.916844 6.301446,2.895297 6.208571,2.843374 5.94703,2.701885 5.86583,2.671573 5.777646,2.610918 5.77257,2.607592 5.756352,2.600565 5.718213,2.584665 5.59073,2.537539 5.551162,2.519332 5.525064,2.505806 5.44622,2.466782 5.214284,2.38596 5.104359,2.347445 5.004871,2.312068 4.796579,2.295024 4.699485,2.267248" style="fill: black" /><polygon type="contour" points="6.081719,3.078707 6.092331,3.08064 6.098545,3.083774 6.129361,3.118055 6.146234,3.139284 6.14802,3.142543 6.148335,3.144006 6.148607,3.146154 6.16535,3.203778 6.171923,3.235535 6.167735,3.275886 6.15399,3.36301 6.128174,3.472846 6.125736,3.483726 6.104472,3.582542 6.105067,3.680135 6.114159,3.783749 6.127052,3.826021 6.171747,3.996685 6.204751,4.059097 6.2463,4.159318 6.25868,4.183012 6.271632,4.215775 6.293989,4.272613 6.303829,4.304043 6.309084,4.331982 6.322981,4.380509 6.325452,4.387987 6.325864,4.391489 6.327585,4.406546 6.33241,4.481365 6.32804,4.512737 6.312033,4.578042 6.299495,4.630259 6.280539,4.680026 6.239073,4.761792 6.179201,4.893972 6.157749,4.966761 6.132508,5.005352 6.107892,5.204788 6.104593,5.252491 6.106066,5.317294 6.119402,5.389517 6.130916,5.465119 6.150085,5.534862 6.158957,5.587769 6.161566,5.642381 6.165234,5.653684 6.166239,5.68705 6.16011,5.727216 6.158764,5.751607 6.139067,5.800949 6.138269,5.802542 6.135598,5.80519 6.084894,5.838248 6.080232,5.840015 6.076923,5.84044 6.06947,5.84118 6.001143,5.846725 5.994265,5.843088 5.977138,5.841045 5.889636,5.826092 5.890258,5.827864 5.877671,5.82471 5.867571,5.82131 5.822673,5.800253 5.740798,5.764693 5.730673,5.752413 5.669788,5.713933 5.578701,5.656437 5.5721,5.650235 5.511184,5.598372 5.43297,5.516419 5.388433,5.462092 5.292991,5.318657 5.281785,5.298559 5.263161,5.258548 5.246439,5.216819 5.241327,5.199422 5.228542,5.148873 5.195393,4.980552 5.191288,4.901338 5.194031,4.812126 5.208655,4.762356 5.196162,4.625656 5.201514,4.512818 5.203797,4.385689 5.204147,4.299993 5.205648,4.279829 5.201348,4.249239 5.2092,4.114003 5.19488,4.003359 5.196206,3.933436 5.206217,3.864759 5.220949,3.792566 5.245159,3.703707 5.251163,3.689268 5.317569,3.584428 5.349519,3.520155 5.394651,3.445883 5.431362,3.398654 5.443867,3.385438 5.565323,3.26167 5.57484,3.253132 5.576208,3.251591 5.665368,3.18928 5.687451,3.175331 5.695756,3.172602 5.742241,3.146367 5.806722,3.11007 5.824776,3.103352 5.833158,3.09824 5.840075,3.096682 5.846185,3.095541 5.856706,3.093624 5.896479,3.088169 5.957093,3.071469 5.958951,3.070981 5.962844,3.070441 6.004496,3.062565" style="fill: white" />
</svg>
