<svg width="13.600213" height="8.910821">
<polygon type="contour" points="8.923932,0.831629 8.929701,0.832669 9.063562,0.856021 9.090965,0.86947 9.122566,0.886656 9.151109,0.923153 9.157598,0.934216 9.168717,0.9727 9.215563,1.026485 9.225855,1.069395 9.236863,1.078021 9.244721,1.090986 9.25415,1.10089 9.257346,1.106268 9.36805,1.234506 9.373174,1.239855 9.383047,1.24936 9.391928,1.258481 9.407188,1.269903 9.415241,1.27658 9.504462,1.364601 9.587615,1.424333 9.652288,1.436114 9.666859,1.446302 9.747849,1.48877 9.856143,1.532665 9.878728,1.546424 9.902872,1.559946 9.916562,1.573412 9.949601,1.589312 10.063129,1.672142 10.123277,1.694564 10.229947,1.755276 10.268299,1.759222 10.284856,1.770456 10.2947,1.779583 10.355975,1.795319 10.394938,1.810714 10.417361,1.813749 10.453718,1.819098 10.48356,1.827603 10.515776,1.832254 10.533121,1.835515 10.551134,1.839955 10.692741,1.882565 10.753181,1.923813 10.828014,1.95237 10.837664,1.955784 10.874799,1.9561 10.886903,1.951344 10.913704,1.952922 10.959102,1.959492 10.970886,1.960226 10.982279,1.96418 11.065643,1.967794 11.125808,1.999469 11.138061,2.012986 11.16988,2.03321 11.192181,2.061449 11.201463,2.063407 11.202187,2.069277 11.209984,2.083697 11.254325,2.153096 11.269305,2.177522 11.272895,2.184562 11.275271,2.192542 11.277552,2.195954 11.281263,2.204876 11.285866,2.284953 11.295862,2.316804 11.302592,2.334222 11.306626,2.357127 11.300366,2.415501 11.313671,2.426508 11.325306,2.46355 11.361195,2.512302 11.438438,2.626095 11.45358,2.650474 11.503812,2.695385 11.599644,2.820275 11.602197,2.822694 11.657879,2.910695 11.691438,2.959911 11.709502,2.995366 11.722446,3.009449 11.756542,3.059268 11.783201,3.112365 11.816334,3.152719 11.836352,3.179424 11.879413,3.220834 11.92265,3.28037 12.006812,3.398854 12.140511,3.616022 12.169596,3.657735 12.174422,3.664227 12.180332,3.673518 12.186421,3.687931 12.223045,3.741319 12.25653,3.882222 12.267289,3.956699 12.269688,3.997205 12.298894,4.296865 12.275384,4.426798 12.286899,4.646904 12.289551,4.679522 12.275482,4.857277 12.281767,4.87938 12.263404,4.936353 12.228502,5.045858 12.18478,5.22533 12.129679,5.332428 12.129344,5.334953 12.102279,5.377927 12.067378,5.438954 12.060886,5.442488 11.99725,5.526737 11.976751,5.553819 11.923545,5.62751 11.88564,5.682298 11.735226,5.866631 11.703632,5.935557 11.689014,5.954456 11.680917,5.968306 11.641958,6.035624 11.631255,6.052946 11.61688,6.073136 11.505809,6.21286 11.44761,6.267182 11.357237,6.401382 11.331492,6.439456 11.311101,6.496615 11.311106,6.548857 11.305837,6.555881 11.29855,6.631603 11.280332,6.709204 11.273797,6.724624 11.225192,6.813494 11.223341,6.817278 11.214842,6.829041 11.184111,6.860847 11.153633,6.894665 11.125531,6.909841 11.075116,6.934832 10.982367,6.947149 10.969922,6.950772 10.831302,6.960123 10.698877,7.034471 10.674737,7.040016 10.652246,7.041331 10.574772,7.064618 10.510938,7.077422 10.465446,7.085101 10.393302,7.102468 10.349398,7.120397 10.309473,7.126667 10.277606,7.149222 10.270004,7.153413 10.243473,7.163049 10.21115,7.171348 10.204706,7.174704 10.107141,7.20145 9.969286,7.30094 9.945508,7.300464 9.880083,7.352268 9.795042,7.404172 9.777685,7.410404 9.769607,7.41331 9.68814,7.456652 9.65592,7.473821 9.570396,7.493116 9.531221,7.529383 9.509548,7.547994 9.499948,7.555822 9.451171,7.600689 9.385387,7.653571 9.293852,7.78292 9.293561,7.783277 9.293013,7.783757 9.221487,7.855621 9.211885,7.86482 9.208382,7.869948 9.202393,7.879166 9.182168,7.917191 9.121809,8.026376 9.090642,8.053956 9.083084,8.058906 9.081248,8.060347 9.074096,8.061157 9.053969,8.070079 8.964322,8.07674 8.932149,8.082432 8.911149,8.081129 8.901722,8.080019 8.893907,8.072813 8.806257,8.060908 8.751025,8.026468 8.712915,8.014454 8.691667,8.004513 8.659171,7.994865 8.619853,7.982243 8.570881,7.95442 8.5474,7.934187 8.496329,7.89926 8.448521,7.86855 8.382389,7.846005 8.341493,7.841018 8.289545,7.82843 8.251341,7.815095 7.980251,7.783649 7.956686,7.781541 7.952748,7.780331 7.788296,7.754886 7.76525,7.747017 7.745548,7.741903 7.730037,7.740485 7.660149,7.730317 7.525806,7.724311 7.49109,7.713787 7.452642,7.694385 7.434059,7.678309 7.408888,7.674454 7.38366,7.671417 7.211854,7.61791 7.179363,7.604135 7.162595,7.594472 7.147471,7.573216 7.102012,7.558328 7.077315,7.55177 7.057703,7.551268 7.055993,7.550932 7.031279,7.536806 6.951998,7.520007 6.941064,7.520065 6.929883,7.520512 6.923743,7.523447 6.898195,7.530765 6.863629,7.529896 6.811108,7.531962 6.667597,7.558062 6.580233,7.587826 6.543405,7.592944 6.52601,7.593017 6.49629,7.60088 6.460244,7.601463 6.438964,7.613899 6.305656,7.627049 6.28221,7.628152 6.268605,7.613497 6.237646,7.617956 6.227666,7.617315 6.15814,7.610111 6.156513,7.608885 6.136723,7.590299 6.101606,7.573897 6.022077,7.585757 6.018541,7.585795 6.013665,7.586333 6.011706,7.586489 5.910638,7.568869 5.86084,7.557664 5.830664,7.548101 5.820682,7.542206 5.774286,7.531108 5.760805,7.527275 5.752634,7.520263 5.719235,7.508387 5.701863,7.507657 5.683388,7.497652 5.65796,7.491393 5.64546,7.482821 5.62465,7.473297 5.601383,7.455512 5.588934,7.455459 5.549954,7.434956 5.499395,7.412037 5.475169,7.380155 5.445312,7.352144 5.439803,7.347294 5.423205,7.305654 5.405008,7.283898 5.377237,7.267997 5.283772,7.219188 5.243406,7.213841 5.210147,7.211559 5.179356,7.186604 5.023469,7.081157 5.004048,7.065775 4.975712,7.030934 4.939639,7.014263 4.930682,7.009707 4.900879,6.980181 4.880653,6.957885 4.876199,6.95168 4.87965,6.938419 4.870783,6.923483 4.868215,6.908153 4.729645,6.793537 4.685378,6.755091 4.669502,6.743345 4.636631,6.699809 4.572612,6.622077 4.574385,6.597177 4.503842,6.521338 4.490606,6.511678 4.48746,6.504855 4.471968,6.495287 4.445234,6.466226 4.423572,6.438494 4.419394,6.43288 4.417314,6.407646 4.41588,6.404362 4.418806,6.378609 4.390305,6.335745 4.358193,6.294795 4.354569,6.288542 4.345089,6.277652 4.336184,6.25989 4.330846,6.245415 4.319097,6.234454 4.300824,6.212659 4.293266,6.183681 4.272986,6.169518 4.270958,6.157521 4.234846,6.10875 4.165912,5.993834 4.08075,5.843887 4.06617,5.831617 4.054437,5.80498 4.043135,5.784679 4.032383,5.755743 4.021051,5.685668 4.018108,5.678225 4.013173,5.654465 4.0134,5.625216 4.014901,5.608183 3.990878,5.547028 3.958818,5.491916 3.947936,5.460283 3.943089,5.444635 3.93596,5.422691 3.93522,5.40199 3.93222,5.392903 3.93161,5.386053 3.919981,5.3587 3.906178,5.245658 3.906401,5.242405 3.891654,5.180583 3.878628,5.15516 3.865346,5.095039 3.874295,5.012857 3.876428,4.933696 3.867487,4.916236 3.865078,4.887702 3.851703,4.862022 3.844669,4.785272 3.840089,4.737444 3.853271,4.719281 3.859973,4.632777 3.878227,4.515347 3.878593,4.49542 3.879814,4.488441 3.903125,4.466607 3.873,4.40778 3.865966,4.379105 3.865844,4.36315 3.856759,4.251662 3.856397,4.247217 3.856461,4.246274 3.856151,4.240665 3.856593,4.236296 3.836486,4.137901 3.83816,4.099783 3.859126,4.034468 3.859341,4.031524 3.876958,3.946235 3.875698,3.866153 3.86233,3.842019 3.861961,3.834842 3.867957,3.820393 3.872221,3.787622 3.903007,3.681511 3.917249,3.619329 3.909013,3.574452 3.93183,3.504845 3.932574,3.494883 3.940851,3.485483 3.963477,3.420289 3.997907,3.358397 4.015852,3.304349 4.013714,3.286241 4.012894,3.244757 4.017667,3.209136 4.028971,3.17673 4.036492,3.158695 4.035932,3.144011 4.042978,3.124491 4.062072,3.091903 4.068592,3.068651 4.154548,2.923375 4.220547,2.815128 4.22601,2.80856 4.248602,2.780383 4.278571,2.740798 4.295931,2.726736 4.298738,2.705988 4.30076,2.699233 4.313341,2.680421 4.328253,2.662575 4.328418,2.66162 4.332192,2.657212 4.352664,2.624612 4.380057,2.597044 4.403079,2.559408 4.408217,2.551557 4.420141,2.534548 4.415612,2.50698 4.417234,2.504536 4.419111,2.480625 4.429049,2.467577 4.441349,2.450582 4.455112,2.436763 4.462524,2.428371 4.469123,2.419281 4.494165,2.393637 4.523892,2.371612 4.540465,2.344924 4.576691,2.301233 4.575557,2.257112 4.589993,2.238299 4.605597,2.218726 4.626594,2.200786 4.673529,2.159892 4.693688,2.143091 4.715119,2.124374 4.739111,2.107823 4.770844,2.078267 4.858287,2.007839 4.868519,1.987804 4.87292,1.98491 4.883643,1.951842 4.902242,1.929358 4.911267,1.922244 4.918933,1.913196 4.949958,1.893061 4.957387,1.879319 4.983237,1.866106 5.030311,1.828678 5.083947,1.78603 5.15108,1.733141 5.166742,1.721586 5.173318,1.718412 5.185566,1.711029 5.228623,1.697315 5.251501,1.700948 5.286481,1.688973 5.297845,1.678159 5.323234,1.664546 5.350597,1.653474 5.406778,1.626993 5.423171,1.606119 5.452403,1.552039 5.458556,1.545762 5.472845,1.535035 5.507686,1.499468 5.519718,1.491769 5.554568,1.473955 5.57622,1.461272 5.605906,1.450511 5.609622,1.450463 5.620145,1.445424 5.630672,1.441302 5.650266,1.426311 5.656219,1.420801 5.683646,1.413787 5.703842,1.40281 5.718262,1.3981 5.742734,1.395659 5.76515,1.38558 5.819141,1.386451 5.858492,1.364549 5.876919,1.351123 5.994486,1.325536 5.997258,1.324611 6.006281,1.325553 6.008746,1.326042 6.015985,1.327517 6.047045,1.332546 6.078097,1.339858 6.132402,1.339826 6.135209,1.317829 6.146323,1.313749 6.154574,1.303124 6.159074,1.30131 6.170928,1.301258 6.21796,1.2949 6.232932,1.293614 6.239153,1.293245 6.242779,1.293459 6.279842,1.300919 6.288272,1.290463 6.424609,1.291582 6.463789,1.305452 6.486685,1.308257 6.650118,1.344797 6.709689,1.353854 6.748303,1.369307 6.907242,1.390039 6.933381,1.392159 6.935346,1.392168 6.942069,1.392433 7.028978,1.376074 7.054181,1.361495 7.079642,1.358558 7.091306,1.358144 7.105341,1.349844 7.126532,1.344386 7.148307,1.337296 7.160446,1.323986 7.18136,1.313392 7.231495,1.281746 7.327856,1.262523 7.369656,1.245731 7.383395,1.243103 7.417555,1.239278 7.446489,1.21905 7.463379,1.212233 7.473359,1.2056 7.493063,1.196671 7.52372,1.187099 7.63343,1.184717 7.736008,1.168783 7.749559,1.166277 7.784124,1.153464 7.865093,1.144938 7.995055,1.122271 8.039549,1.11496 8.134882,1.104294 8.14862,1.097688 8.260062,1.092364 8.280221,1.087423 8.339605,1.071132 8.385268,1.063687 8.386768,1.064089 8.408442,1.060273 8.43783,1.046771 8.463411,1.035182 8.506042,0.998365 8.515456,0.991797 8.555622,0.962232 8.606678,0.9354 8.612795,0.929607 8.637181,0.920782 8.746179,0.890494 8.764461,0.876724 8.821893,0.848546 8.916671,0.832715 8.917785,0.83181 8.919363,0.831527" style="fill: white" />
</svg>
