<svg width="13.600213" height="8.910821">
<polygon type="contour" points="5.760104,0.710086 5.762532,0.712667 5.848884,0.909218 5.879995,0.979691 5.96452,1.184675 5.979216,1.215929 6.024478,1.252706 6.054953,1.265739 6.072708,1.272814 6.076752,1.272998 6.086026,1.27784 6.10151,1.287791 6.145264,1.328253 6.149162,1.332648 6.170816,1.353607 6.192279,1.401122 6.215767,1.400585 6.227531,1.41237 6.243632,1.41603 6.264126,1.42474 6.275405,1.424951 6.27903,1.425921 6.282165,1.42701 6.286366,1.427641 6.311223,1.436968 6.337287,1.447336 6.342558,1.450311 6.349137,1.453364 6.403173,1.489144 6.422707,1.509962 6.519575,1.597905 6.62475,1.681798 6.630562,1.692048 6.652168,1.727437 6.662953,1.768445 6.679226,1.784027 6.75743,1.84764 6.770419,1.851004 6.823225,1.870795 6.86023,1.88705 6.883318,1.884707 6.889688,1.886911 6.96935,1.915735 7.003582,1.931491 7.033797,1.950573 7.052808,1.964071 7.066515,1.97545 7.072331,1.983886 7.067208,2.006077 7.108337,2.030796 7.146952,2.057534 7.16437,2.066655 7.192017,2.086473 7.206083,2.102146 7.223155,2.1294 7.247812,2.151583 7.257389,2.155787 7.350835,2.2239 7.479393,2.326209 7.596219,2.391027 7.619151,2.418753 7.638799,2.438195 7.671434,2.461308 7.684201,2.466662 7.707594,2.470762 7.718729,2.475223 7.733964,2.48666 7.769358,2.505785 7.839374,2.554714 7.851772,2.565792 7.876477,2.5788 7.944894,2.638798 8.002631,2.686926 8.07219,2.759967 8.105946,2.794513 8.128379,2.807336 8.172783,2.839121 8.183329,2.849391 8.193766,2.853763 8.202773,2.857144 8.245996,2.898645 8.253895,2.901886 8.256378,2.904707 8.278228,2.915416 8.310948,2.933615 8.347943,2.952569 8.366961,2.954141 8.380132,2.959188 8.512675,3.027122 8.572811,3.044407 8.591933,3.049597 8.645076,3.065235 8.651179,3.068308 8.655542,3.071127 8.659239,3.073074 8.668606,3.079669 8.676927,3.087483 8.689514,3.096499 8.819855,3.196522 8.930563,3.296406 8.94404,3.307238 8.947282,3.308684 8.954958,3.31357 8.960973,3.318268 8.97019,3.325608 8.973448,3.327658 8.991817,3.342508 9.005825,3.358137 9.095794,3.421312 9.104864,3.426359 9.113064,3.431891 9.131887,3.452491 9.139749,3.460629 9.156971,3.470648 9.233501,3.519229 9.243366,3.525361 9.250131,3.528881 9.254378,3.532205 9.26526,3.537517 9.359058,3.604571 9.390509,3.617033 9.436927,3.641321 9.459988,3.656768 9.465986,3.66117 9.515843,3.685075 9.562982,3.693617 9.667079,3.767946 9.681413,3.780778 9.684823,3.780538 9.693251,3.787225 9.747713,3.860075 9.802608,3.992025 9.824665,4.065316 9.828718,4.07626 9.956107,4.319258 9.959901,4.329765 10.001621,4.443466 10.000171,4.463835 9.959981,4.591166 9.83933,4.822457 9.823498,4.851038 9.812344,4.901943 9.76074,5.025811 9.723924,5.080184 9.693004,5.124762 9.685908,5.127073 9.6831,5.132328 9.605447,5.179106 9.593371,5.189495 9.512547,5.2272 9.508864,5.229693 9.466078,5.250397 9.461749,5.253673 9.448881,5.262261 9.421286,5.281491 9.390498,5.299608 9.295234,5.351774 9.288431,5.35471 9.276083,5.360812 9.262873,5.368535 9.244711,5.386979 9.236061,5.394245 9.210229,5.411644 9.202133,5.414341 9.155349,5.441821 9.090697,5.501691 9.083792,5.507051 9.081237,5.509363 8.995755,5.555766 8.960574,5.603447 8.947578,5.61371 8.928075,5.623539 8.872236,5.673619 8.859453,5.685861 8.838563,5.700661 8.786889,5.742385 8.696,5.813503 8.676771,5.826165 8.657575,5.835037 8.608719,5.861018 8.591757,5.864321 8.533737,5.883631 8.513409,5.887907 8.506777,5.89332 8.337072,5.970021 8.317446,5.980767 8.273062,5.999555 8.255281,6.009112 8.208661,6.038868 8.199731,6.054019 8.181102,6.063762 8.170818,6.073897 8.120873,6.105563 8.04998,6.18057 7.987195,6.247479 7.966943,6.267853 7.811416,6.37298 7.754493,6.409779 7.67803,6.453518 7.640714,6.472097 7.624669,6.495502 7.595347,6.51377 7.569461,6.533511 7.521848,6.575447 7.434863,6.626469 7.398212,6.649527 7.289626,6.725611 7.216956,6.796852 7.203091,6.808418 7.104988,6.883352 7.099283,6.883613 7.065116,6.904969 7.061401,6.942087 7.056143,6.947064 7.016357,6.975714 6.985514,6.991764 6.927957,7.006469 6.896409,7.021874 6.889444,7.024892 6.858321,7.024631 6.833625,7.040486 6.81183,7.051169 6.78742,7.054792 6.781823,7.054483 6.758389,7.059952 6.696526,7.113867 6.687389,7.120015 6.674896,7.137762 6.66133,7.147817 6.653268,7.181617 6.651693,7.18606 6.626868,7.224672 6.622451,7.231868 6.617747,7.239128 6.547896,7.299519 6.503821,7.335701 6.444475,7.388443 6.417046,7.405987 6.364969,7.450753 6.363488,7.45145 6.357222,7.454361 6.276861,7.486877 6.261123,7.489598 6.254517,7.492253 6.227365,7.498587 6.20011,7.514788 6.188156,7.524161 6.181509,7.534655 6.168613,7.550945 6.144915,7.584865 6.10058,7.624009 6.083026,7.635645 6.073126,7.639066 6.061968,7.640585 6.044376,7.653882 6.026987,7.657535 6.015999,7.661397 5.988807,7.677781 5.975859,7.705336 5.893253,7.905335 5.870941,7.957676 5.852435,7.993957 5.845899,8.018914 5.803731,8.09727 5.762675,8.201931 5.754049,8.203578 5.632911,8.167468 5.570054,8.134671 5.484288,8.087896 5.439767,8.05599 5.448804,8.014654 5.376464,7.955738 5.375898,7.940713 5.325007,7.875061 5.258987,7.834113 5.251536,7.831079 5.200815,7.814644 5.104576,7.836903 4.901392,7.819767 4.848609,7.810125 4.738314,7.798422 4.520536,7.774252 4.491937,7.760114 4.474025,7.759011 4.427303,7.765313 4.413697,7.765158 4.397661,7.76068 4.304512,7.768791 4.300461,7.771309 4.294732,7.771347 4.291788,7.772457 4.266392,7.772209 4.251938,7.789905 4.081555,7.780576 4.072783,7.778881 4.067505,7.774143 4.003736,7.743553 3.970927,7.73084 3.965843,7.725731 3.961204,7.724918 3.95962,7.719352 3.938255,7.700714 3.931084,7.673266 3.834359,7.641151 3.812722,7.633222 3.775677,7.627686 3.739046,7.619295 3.688762,7.625933 3.677439,7.629067 3.648779,7.636435 3.632021,7.635719 3.591273,7.6222 3.521348,7.592089 3.495477,7.575889 3.486743,7.568393 3.472421,7.549648 3.466181,7.538545 3.447975,7.527646 3.438761,7.52433 3.401145,7.506184 3.389131,7.497805 3.368447,7.484504 3.335341,7.456777 3.326984,7.449412 3.193451,7.38726 3.189747,7.383884 3.181246,7.369339 3.157375,7.342268 3.118753,7.307661 3.044325,7.264403 3.043965,7.264316 3.007709,7.243269 2.987667,7.257865 2.970409,7.258111 2.950338,7.274171 2.938977,7.286472 2.928434,7.294849 2.921237,7.297655 2.908618,7.30694 2.899953,7.316224 2.893731,7.320066 2.868571,7.341447 2.855153,7.353528 2.850101,7.360024 2.829863,7.369143 2.822421,7.37347 2.812546,7.381057 2.80677,7.388863 2.799821,7.392145 2.746065,7.422038 2.707873,7.439077 2.6922,7.443145 2.619601,7.443807 2.617251,7.443518 2.616712,7.443495 2.607674,7.441228 2.476939,7.404638 2.461553,7.431581 2.364867,7.438043 2.328362,7.441306 2.289798,7.440513 2.22362,7.427339 2.197738,7.41754 2.153202,7.375393 2.049053,7.276139 2.011597,7.254681 1.916889,7.225644 1.914521,7.229265 1.910409,7.228298 1.877238,7.239571 1.857989,7.241268 1.844876,7.248654 1.828755,7.248582 1.806238,7.25005 1.769842,7.240075 1.723791,7.315768 1.701707,7.336859 1.675154,7.349432 1.596289,7.398265 1.595132,7.39828 1.565792,7.389519 1.491801,7.366421 1.484321,7.366603 1.476489,7.365137 1.463308,7.363638 1.384585,7.351715 1.359432,7.350756 1.305629,7.330347 1.302485,7.328845 1.299973,7.327587 1.276174,7.292447 1.200257,7.224052 1.171643,7.198395 1.163249,7.19286 1.105442,7.162033 1.090048,7.140604 1.067358,7.096435 0.930144,6.921716 0.928188,6.919182 0.910753,6.874715 0.913585,6.86254 0.915114,6.848033 0.915919,6.747778 0.916463,6.744925 0.916418,6.715619 0.915816,6.701918 0.89241,6.655305 0.858003,6.630891 0.846959,6.595104 0.817162,6.552021 0.786795,6.490597 0.739271,6.293784 0.716372,6.234847 0.698277,6.153008 0.697247,6.149156 0.612086,5.770741 0.60121,5.720412 0.565947,5.588338 0.569676,5.51739 0.556072,5.438199 0.54826,5.400431 0.510435,5.169289 0.509693,5.161845 0.512917,5.15331 0.518202,5.135744 0.51186,5.095999 0.509867,5.060951 0.509956,5.051346 0.513771,5.019361 0.475048,4.98839 0.461586,4.885681 0.450764,4.795866 0.449196,4.766113 0.467129,4.666504 0.475456,4.580296 0.491611,4.560548 0.495053,4.477766 0.498582,4.384251 0.466238,4.291283 0.46025,4.250837 0.45149,4.178165 0.44908,4.139698 0.450627,4.112561 0.451689,4.109521 0.45224,4.102003 0.454137,4.088243 0.462461,4.016267 0.469055,3.965584 0.473583,3.934755 0.47517,3.932393 0.481135,3.9165 0.487002,3.908677 0.51294,3.892756 0.509829,3.842509 0.509605,3.830196 0.509985,3.752962 0.508899,3.751748 0.51072,3.744603 0.556564,3.463 0.566035,3.41558 0.560714,3.372892 0.559723,3.366489 0.559864,3.364009 0.575648,3.297077 0.577618,3.288803 0.584439,3.255583 0.607291,3.131208 0.636415,3.015405 0.663038,2.929564 0.680076,2.859621 0.728038,2.622845 0.733297,2.608356 0.735582,2.605455 0.773551,2.505291 0.832138,2.327306 0.834138,2.323024 0.837516,2.315961 0.85522,2.294457 0.860991,2.28329 0.865375,2.275575 0.893992,2.253431 0.896562,2.241966 0.917146,2.206642 0.914216,2.166938 0.920382,2.152287 0.91548,2.134147 0.911661,2.104421 0.915097,2.059826 0.917303,2.033125 0.930329,1.982712 0.932953,1.977052 0.933722,1.975942 1.060097,1.807483 1.062745,1.80477 1.06538,1.800732 1.131161,1.7371 1.132181,1.736433 1.132933,1.736187 1.18592,1.702718 1.195092,1.691897 1.269506,1.625549 1.291091,1.597418 1.298665,1.591623 1.301904,1.583117 1.309675,1.579194 1.336061,1.5671 1.353821,1.559128 1.355223,1.55878 1.356956,1.558083 1.3594,1.55795 1.405865,1.552672 1.481087,1.545097 1.488456,1.543741 1.497157,1.543967 1.519719,1.543248 1.537405,1.535989 1.548822,1.533759 1.568311,1.524654 1.575267,1.520962 1.581163,1.521704 1.597888,1.512896 1.616625,1.519412 1.654012,1.534441 1.69471,1.562567 1.69503,1.562777 1.723948,1.596564 1.741136,1.6143 1.766417,1.655189 1.802777,1.661649 1.845857,1.663384 1.856714,1.667033 1.887066,1.685061 1.923516,1.683724 1.928917,1.681628 1.973203,1.669688 1.997389,1.662672 2.010071,1.657163 2.096905,1.566529 2.1176,1.554935 2.159062,1.527211 2.214923,1.494991 2.275278,1.477647 2.298267,1.470449 2.416633,1.480508 2.436598,1.479987 2.446086,1.478877 2.458529,1.478072 2.479163,1.502206 2.510931,1.500518 2.611957,1.469392 2.614375,1.468636 2.61594,1.468445 2.684221,1.470121 2.697427,1.472333 2.726766,1.485774 2.799986,1.519288 2.80533,1.521928 2.810417,1.528256 2.82354,1.538589 2.83134,1.543424 2.849864,1.551943 2.858303,1.562113 2.877903,1.578509 2.895686,1.593056 2.900355,1.595744 2.923012,1.617822 2.957421,1.643373 2.965746,1.649332 2.976536,1.654517 3.020483,1.66249 3.042918,1.647712 3.043291,1.64764 3.09095,1.615985 3.126052,1.58309 3.18643,1.52672 3.237246,1.500742 3.319843,1.458522 3.340894,1.449495 3.343764,1.445388 3.406976,1.403716 3.468412,1.370075 3.475993,1.353543 3.486343,1.343255 3.492432,1.336251 3.500271,1.327977 3.519021,1.314351 3.574668,1.304483 3.616495,1.290733 3.697567,1.278644 3.724164,1.282939 3.795746,1.282763 3.81769,1.276798 3.83506,1.270344 3.87433,1.259301 3.925506,1.236513 3.941384,1.212659 3.942927,1.205535 3.958797,1.188752 3.960257,1.18447 3.969842,1.181099 4.072303,1.13988 4.09181,1.124794 4.192995,1.112804 4.225397,1.114656 4.232132,1.114015 4.245595,1.116204 4.272332,1.142788 4.360837,1.149226 4.382101,1.140449 4.440762,1.13803 4.532391,1.133026 4.697773,1.120094 4.722505,1.117705 4.729357,1.116906 4.758763,1.114984 5.058126,1.078106 5.117521,1.076933 5.204748,1.096979 5.228859,1.087127 5.247581,1.080489 5.261651,1.082192 5.307887,1.056977 5.34397,1.01766 5.340352,1.000029 5.416836,0.946955 5.450734,0.897382 5.440217,0.855528 5.487284,0.82253 5.54055,0.780982 5.608731,0.74136 5.755891,0.709373" style="fill: white" /><polygon type="hole" points="5.325757,2.935342 5.1438,2.948841 4.997661,3.005089 4.921632,3.024671 4.75246,3.164048 4.708169,3.19074 4.656658,3.262638 4.592912,3.388452 4.578026,3.561107 4.582325,3.698233 4.627943,3.789568 4.633704,3.824814 4.724379,3.973459 4.756976,4.058717 4.763966,4.097977 4.758389,4.174203 4.74455,4.345611 4.750032,4.526659 4.765054,4.735262 4.764192,4.789694 4.758055,4.839995 4.722948,4.937211 4.688623,5.011565 4.651788,5.054958 4.60069,5.204744 4.594491,5.214902 4.589567,5.233135 4.57629,5.341676 4.580029,5.378839 4.580154,5.417102 4.607199,5.538861 4.614917,5.561236 4.676705,5.676925 4.704951,5.710261 4.797673,5.811047 4.906528,5.875643 4.931663,5.889209 4.956066,5.903489 5.006367,5.932922 5.048724,5.941416 5.23335,5.977423 5.371881,5.978149 5.466838,5.971134 5.554704,5.955521 5.696752,5.936535 5.724767,5.927789 5.845665,5.877996 5.916222,5.818915 5.990435,5.773125 6.118002,5.723706 6.203664,5.690779 6.263952,5.658772 6.289765,5.651948 6.336112,5.617199 6.3445,5.602089 6.405772,5.561466 6.462298,5.52002 6.469509,5.506157 6.641812,5.190401 6.655325,5.166906 6.730346,5.057005 6.765167,5.011921 6.832395,4.877494 6.844933,4.79772 6.859439,4.721995 6.847681,4.660947 6.854719,4.524714 6.847086,4.391656 6.846858,4.297368 6.855792,4.211775 6.85998,4.172212 6.854329,4.12075 6.814471,4.00553 6.788649,3.939545 6.749777,3.885078 6.690387,3.779004 6.604545,3.652876 6.531623,3.484619 6.422259,3.361466 6.377531,3.342093 6.349561,3.311364 6.322455,3.287138 6.317876,3.28719 6.300216,3.265221 6.272845,3.249954 6.265304,3.246929 6.257918,3.241675 6.228954,3.228889 6.208991,3.220178 6.191303,3.211992 6.122042,3.182564 6.036569,3.162219 5.943523,3.113934 5.899286,3.074196 5.804978,3.024654 5.754156,2.99558 5.740929,2.990515 5.73392,2.988266 5.613831,2.957259 5.555071,2.948141 5.423125,2.93418" style="fill: black" />
</svg>
