<svg width="13.600213" height="8.910821">
<polygon type="contour" points="8.748889,1.080397 8.768435,1.081431 8.808171,1.090281 8.829364,1.098541 8.861772,1.109874 8.892746,1.136806 8.922829,1.195523 8.927781,1.25824 8.934429,1.292342 8.970021,1.333326 9.010024,1.375125 9.041836,1.395603 9.063636,1.398416 9.070207,1.402166 9.183389,1.475114 9.339544,1.583432 9.402424,1.627647 9.476634,1.685217 9.57715,1.744329 9.639446,1.781095 9.646119,1.783773 9.663057,1.789844 9.708056,1.800403 9.727865,1.804872 9.748665,1.813347 9.757086,1.815795 9.766113,1.817093 9.779239,1.822819 9.888927,1.869221 10.032601,1.928073 10.081948,1.948368 10.086816,1.950997 10.097418,1.953741 10.130872,1.958432 10.280653,2.019912 10.302987,2.026902 10.316751,2.035574 10.332319,2.041187 10.356971,2.062538 10.37328,2.068595 10.415803,2.081467 10.439221,2.09242 10.49234,2.107113 10.494049,2.108168 10.494787,2.109582 10.515006,2.128605 10.583649,2.16688 10.588301,2.167506 10.592842,2.169684 10.620416,2.186801 10.640002,2.19074 10.642983,2.202399 10.683296,2.207856 10.698431,2.215329 10.716033,2.222568 10.727875,2.234257 10.735258,2.239526 10.759671,2.25717 10.760633,2.257621 10.81169,2.304548 10.819076,2.307261 10.829982,2.32049 10.851161,2.354826 10.887722,2.382295 10.924618,2.439336 10.932272,2.461306 10.98728,2.531629 11.049292,2.688399 11.053808,2.700608 11.063839,2.736022 11.104315,2.761816 11.137544,2.797887 11.159315,2.821989 11.168944,2.827607 11.190013,2.854025 11.210541,2.882866 11.220332,2.89387 11.22707,2.914446 11.272505,2.941691 11.288563,2.952046 11.313951,2.974893 11.347051,2.995606 11.356079,3.002877 11.372861,3.029946 11.40119,3.043997 11.420982,3.057546 11.431452,3.064244 11.451687,3.079373 11.467665,3.098 11.47661,3.111145 11.479053,3.116017 11.480122,3.124061 11.490217,3.136874 11.499901,3.15607 11.507341,3.165714 11.518558,3.174148 11.533014,3.21021 11.546971,3.222346 11.553811,3.231439 11.572088,3.241536 11.579598,3.257848 11.620378,3.295996 11.636809,3.310693 11.642994,3.320714 11.652685,3.33777 11.79742,3.382743 11.804536,3.388777 11.820047,3.393131 11.89535,3.489224 11.925319,3.523694 12.009116,3.718385 12.019634,3.743698 12.019033,3.749359 12.019823,3.754409 12.019712,3.757976 12.007323,4.038741 12.007663,4.04592 12.00783,4.051803 12.014637,4.237752 11.984256,4.424166 11.985654,4.460394 12.018309,4.718043 12.003192,4.776569 12.01205,4.801986 12.00155,4.860195 12.008359,4.952364 12.018481,5.126776 12.009654,5.17791 12.000152,5.205955 11.981952,5.242336 11.959441,5.319685 11.938753,5.366126 11.916934,5.396891 11.824709,5.514277 11.820091,5.518223 11.80266,5.525226 11.664354,5.569447 11.646327,5.589844 11.643568,5.593796 11.642183,5.594202 11.616473,5.62444 11.589215,5.641935 11.579519,5.6618 11.572082,5.670099 11.55382,5.680189 11.546975,5.689282 11.532795,5.701038 11.521716,5.723245 11.511237,5.735888 11.506632,5.741901 11.497263,5.760511 11.49041,5.774214 11.480062,5.787684 11.478376,5.796488 11.475424,5.802246 11.465946,5.816166 11.451685,5.83225 11.428474,5.848489 11.41898,5.852679 11.411237,5.862065 11.401193,5.867626 11.377563,5.879345 11.365245,5.898971 11.348584,5.917066 11.24713,5.986212 11.237745,5.992878 11.21792,6.021859 11.17161,6.081328 11.145768,6.118171 11.117569,6.140958 11.09319,6.154956 11.077858,6.168769 11.069224,6.192767 11.035162,6.261775 11.023499,6.275096 11.0128,6.307214 10.984881,6.36242 10.963393,6.419059 10.872164,6.529066 10.813552,6.618995 10.811773,6.618412 10.76032,6.653415 10.734613,6.680139 10.734452,6.68027 10.733985,6.680625 10.732647,6.68119 10.698954,6.695938 10.682958,6.703797 10.661018,6.707075 10.632215,6.724611 10.631554,6.728924 10.622039,6.730883 10.594227,6.743367 10.58038,6.752371 10.562525,6.754101 10.536649,6.77073 10.531834,6.771741 10.4911,6.80471 10.491089,6.804729 10.491053,6.804751 10.489989,6.805101 10.407846,6.831827 10.406941,6.832757 10.35664,6.849259 10.341459,6.863163 10.320872,6.870092 10.196825,6.922503 10.165824,6.929928 10.154413,6.92907 9.885624,7.049874 9.873265,7.052458 9.863109,7.058013 9.856358,7.060102 9.822102,7.070733 9.789404,7.085558 9.766493,7.092544 9.746005,7.101675 9.723198,7.106425 9.683151,7.113533 9.629871,7.135871 9.593643,7.154158 9.474571,7.232893 9.288765,7.349775 9.25999,7.36988 9.209487,7.407351 9.109357,7.479196 9.094352,7.493724 9.088434,7.499773 9.082836,7.503195 9.079587,7.504714 9.07359,7.507328 9.065087,7.511626 9.028932,7.523489 8.989068,7.56443 8.942494,7.610251 8.94111,7.659557 8.897667,7.748867 8.88618,7.776564 8.860857,7.8012 8.810855,7.820628 8.761076,7.832995 8.743919,7.837241 8.714666,7.839868 8.694507,7.839996 8.672895,7.837608 8.596505,7.843049 8.519393,7.824811 8.405363,7.780285 8.316967,7.725489 8.312725,7.722598 8.304629,7.718143 8.261944,7.677493 8.233519,7.684246 8.220652,7.684406 8.213535,7.688088 8.180696,7.690936 8.083322,7.690004 8.00064,7.663014 7.977842,7.65506 7.939682,7.640824 7.92021,7.618931 7.909126,7.596563 7.888087,7.577283 7.868245,7.550297 7.849137,7.549809 7.834877,7.543869 7.778655,7.534759 7.75421,7.534408 7.730773,7.525902 7.681125,7.524981 7.62817,7.512472 7.603767,7.516982 7.585407,7.520824 7.515278,7.567789 7.462441,7.585501 7.418213,7.603434 7.310962,7.6061 7.268588,7.609447 7.260765,7.60885 7.205047,7.602271 7.13366,7.588398 7.044681,7.570459 7.007241,7.57385 6.948072,7.556973 6.877132,7.535282 6.84992,7.526212 6.830631,7.530655 6.791719,7.534428 6.778124,7.53208 6.698199,7.516458 6.626747,7.491237 6.557123,7.473871 6.545864,7.468829 6.535207,7.460579 6.494801,7.437285 6.445411,7.40263 6.434563,7.393665 6.434301,7.393557 6.414925,7.376023 6.40885,7.372503 6.399948,7.366073 6.368422,7.350503 6.333159,7.333451 6.294334,7.340187 6.251166,7.328839 6.232657,7.315679 6.19279,7.320199 6.189293,7.319166 6.171459,7.323145 6.135898,7.319373 6.125292,7.31659 6.11524,7.314116 6.07613,7.314148 6.064736,7.316103 6.034678,7.317452 6.023779,7.308036 5.90874,7.290752 5.887998,7.287268 5.816165,7.279281 5.792055,7.276262 5.737076,7.302933 5.707791,7.296971 5.68568,7.301199 5.610987,7.280133 5.449586,7.214179 5.431355,7.198147 5.421175,7.184255 5.411875,7.166852 5.395074,7.161459 5.393979,7.15838 5.366138,7.147365 5.359672,7.137381 5.350173,7.129742 5.334766,7.108414 5.277782,7.08607 5.191408,7.024978 5.137752,6.984834 5.109295,6.962405 5.062907,6.894704 5.04123,6.877234 5.001462,6.867705 4.985871,6.855293 4.976038,6.852511 4.908447,6.810798 4.854627,6.776616 4.780086,6.720092 4.743285,6.665649 4.727412,6.635303 4.708824,6.60222 4.6244,6.517978 4.619516,6.502461 4.580815,6.463075 4.497575,6.373024 4.497019,6.372447 4.483196,6.318649 4.419792,6.269506 4.398533,6.223608 4.277342,6.054658 4.272806,6.048375 4.266299,6.037756 4.246563,6.002828 4.245344,5.994248 4.239791,5.97293 4.237178,5.945556 4.229738,5.930459 4.228827,5.922735 4.230043,5.881656 4.224871,5.865665 4.214243,5.841607 4.184254,5.752829 4.183826,5.745968 4.172299,5.712697 4.171859,5.711501 4.175308,5.678503 4.170215,5.664515 4.169699,5.6399 4.102584,5.541371 4.069794,5.475373 4.045297,5.424353 4.047048,5.398979 4.020141,5.312888 4.01059,5.292278 3.926635,5.108013 3.917126,5.089363 3.892537,5.06276 3.875874,5.051217 3.868551,5.046803 3.847605,4.925062 3.789878,4.677205 3.784393,4.67152 3.77838,4.645696 3.770193,4.499028 3.771138,4.381595 3.782141,4.295972 3.787068,4.258016 3.796189,4.200056 3.793527,4.181981 3.801179,4.16078 3.811844,4.14658 3.825597,4.135749 3.86509,3.878804 3.86624,3.87588 3.868372,3.865778 3.874802,3.854839 3.924556,3.811621 3.933007,3.779121 3.961982,3.699009 4.003891,3.622934 4.018218,3.591518 4.034808,3.553229 4.037085,3.531006 4.047447,3.489038 4.084852,3.411378 4.110303,3.360374 4.141648,3.301413 4.145209,3.294642 4.149084,3.2909 4.150406,3.288528 4.173684,3.262401 4.171378,3.241049 4.17232,3.237124 4.182955,3.161139 4.195767,3.123013 4.224283,3.034747 4.225642,3.024508 4.22481,3.014106 4.233775,2.985275 4.240257,2.961315 4.246466,2.938067 4.246061,2.912642 4.245248,2.908362 4.251804,2.895564 4.252298,2.89483 4.274414,2.871607 4.27552,2.866844 4.288999,2.853649 4.324943,2.789243 4.358988,2.731545 4.372575,2.714551 4.390609,2.692396 4.446623,2.636084 4.460916,2.628768 4.47396,2.603516 4.474895,2.595601 4.478496,2.593811 4.491312,2.552163 4.500016,2.544743 4.57089,2.462271 4.636757,2.376266 4.67858,2.342946 4.687802,2.317946 4.69793,2.299998 4.788892,2.197845 4.896216,2.118877 4.938474,2.08446 4.95124,2.072283 4.971118,2.065904 4.997064,2.036125 5.001195,2.031784 5.019895,2.028797 5.029174,2.020435 5.04937,2.009317 5.071557,1.989735 5.090544,1.964546 5.113596,1.946487 5.226268,1.878581 5.255206,1.852878 5.295969,1.834478 5.342767,1.812304 5.362676,1.775033 5.381959,1.757126 5.38653,1.755726 5.400178,1.746456 5.419559,1.723302 5.451228,1.692253 5.578022,1.655301 5.649688,1.626059 5.68917,1.616231 5.698619,1.611855 5.714085,1.614862 5.739476,1.609664 5.75842,1.619544 5.773002,1.62341 5.791651,1.635219 5.83561,1.629579 5.881675,1.625612 5.900346,1.62255 5.936696,1.611817 5.944731,1.597031 5.963742,1.59701 5.998793,1.587202 6.03659,1.591758 6.07363,1.598005 6.099723,1.598673 6.114749,1.595215 6.162874,1.589701 6.191404,1.591996 6.20259,1.590088 6.237195,1.593606 6.267157,1.581722 6.306728,1.577473 6.368271,1.560551 6.406066,1.54248 6.413201,1.537831 6.43375,1.518369 6.434263,1.518211 6.560444,1.425541 6.599331,1.414615 6.751855,1.400361 6.833206,1.388233 6.838765,1.387815 6.847216,1.388106 6.919748,1.363492 6.967306,1.346081 7.021918,1.338914 7.027628,1.339395 7.053334,1.337003 7.1528,1.319245 7.182215,1.310474 7.191516,1.311078 7.210147,1.309344 7.333056,1.299865 7.342939,1.299029 7.362613,1.30179 7.381195,1.306537 7.395944,1.315881 7.4815,1.332432 7.51213,1.342329 7.550585,1.366195 7.558416,1.376581 7.583205,1.389763 7.605421,1.394759 7.628966,1.399389 7.658766,1.391161 7.753545,1.382184 7.806233,1.370754 7.815797,1.369084 7.845411,1.362678 7.866622,1.362662 7.886535,1.33597 7.896806,1.324581 7.910147,1.311053 7.919854,1.293075 7.933506,1.277145 7.971775,1.258141 8.013473,1.244427 8.056587,1.232749 8.085792,1.221119 8.168892,1.226122 8.216153,1.230477 8.22359,1.226655 8.233514,1.227363 8.269057,1.241969 8.293877,1.20041 8.336007,1.17447 8.407098,1.128096 8.413773,1.124222 8.422985,1.119107 8.439482,1.112989 8.446846,1.114662 8.68444,1.065293" style="fill: white" />
</svg>
