<svg width="13.600213" height="8.910821">
<polygon type="contour" points="6.092269,1.812486 6.122157,1.814783 6.180634,1.833838 6.212872,1.839863 6.220587,1.842148 6.279767,1.861603 6.413243,1.902759 6.441438,1.909074 6.516309,1.925921 6.611827,1.967894 6.785775,2.022992 6.787419,2.023557 7.000395,2.079263 7.12775,2.107454 7.193312,2.136466 7.208282,2.140961 7.430184,2.199768 7.434722,2.202883 7.472039,2.214668 7.490572,2.226382 7.528594,2.239084 7.55001,2.244418 7.557959,2.252755 7.585286,2.266729 7.598549,2.271257 7.655441,2.297358 7.667692,2.299775 7.686721,2.312061 7.699352,2.315539 7.717341,2.331454 7.751854,2.349625 7.834879,2.421421 7.840786,2.4309 7.89969,2.51741 7.935071,2.624354 7.937991,2.633816 7.937724,2.635369 7.93731,2.696415 7.943607,2.719696 7.97862,2.801595 7.985895,2.819411 7.997434,2.832423 8.035148,2.856826 8.048278,2.860278 8.103755,2.904992 8.194096,2.989344 8.288749,3.076193 8.332046,3.13046 8.380658,3.213118 8.385979,3.224599 8.449027,3.291911 8.467439,3.327379 8.489408,3.360966 8.495928,3.379187 8.593967,3.484186 8.601806,3.490077 8.608289,3.504735 8.626632,3.521073 8.648762,3.555242 8.748406,3.66101 8.760461,3.675964 8.794059,3.697564 8.802161,3.697629 8.853118,3.726704 8.869087,3.733186 8.873946,3.738425 8.936992,3.79937 8.982472,3.877409 9.029005,3.968256 9.042526,4.01129 9.040445,4.027623 9.069822,4.053114 9.093873,4.089393 9.106081,4.138324 9.113518,4.173191 9.129228,4.250075 9.126206,4.268041 9.12785,4.408158 9.127971,4.441489 9.124469,4.457092 9.130004,4.490836 9.132665,4.614327 9.130913,4.668522 9.12843,4.682225 9.12728,4.697002 9.106375,4.772652 9.090891,4.842725 9.09004,4.846604 9.087677,4.848986 9.038498,4.886616 9.028736,4.924061 9.027475,4.956982 9.002602,5.015452 8.930801,5.111683 8.851464,5.189809 8.828631,5.206482 8.819743,5.211905 8.805175,5.210011 8.765156,5.236229 8.758528,5.238231 8.747439,5.250145 8.640773,5.36421 8.630616,5.384659 8.617214,5.394045 8.608544,5.405854 8.551675,5.465892 8.503508,5.525835 8.480965,5.587384 8.381328,5.696057 8.379824,5.701786 8.364216,5.723133 8.316679,5.805135 8.252443,5.880327 8.073758,6.040756 8.031959,6.059656 8.013453,6.073883 7.975656,6.107446 7.941395,6.231558 7.89877,6.383709 7.892241,6.408311 7.888996,6.417601 7.882424,6.427952 7.694748,6.598399 7.691841,6.600719 7.677517,6.606109 7.54498,6.664212 7.518284,6.680933 7.513856,6.682179 7.509152,6.685877 7.288075,6.755079 7.253058,6.765803 7.233126,6.773943 7.20769,6.777926 6.988695,6.830639 6.958819,6.839785 6.951911,6.840019 6.870634,6.860578 6.801947,6.882063 6.794996,6.882824 6.664222,6.93065 6.651102,6.935301 6.621499,6.949609 6.61018,6.951901 6.537615,6.972825 6.46185,6.997638 6.435663,6.996513 6.407427,7.009317 6.403362,7.010019 6.388211,7.014161 6.228655,7.065877 6.188687,7.082463 6.14517,7.087576 6.127735,7.091885 6.087634,7.100018 6.063657,7.106233 6.061148,7.10598 6.058873,7.105166 6.050209,7.099118 5.91708,7.00142 5.908087,6.986846 5.899868,6.961387 5.905693,6.945585 5.911474,6.924804 5.935964,6.88722 5.973081,6.825831 5.998206,6.780759 6.022364,6.72136 6.070294,6.594563 6.077416,6.575724 6.080293,6.567916 6.080557,6.567198 6.116027,6.47094 6.101936,6.416938 6.097231,6.356772 6.127486,6.300386 6.148383,6.279131 6.225262,6.238883 6.336358,6.18426 6.427697,6.147841 6.448427,6.125444 6.465465,6.095759 6.47391,6.081953 6.484336,6.068086 6.58717,5.993632 6.789884,5.904939 6.791349,5.904177 6.793095,5.903508 6.955162,5.83102 6.993445,5.810205 7.000794,5.802292 7.014894,5.794887 7.037674,5.791412 7.078967,5.782142 7.090375,5.778397 7.149589,5.743052 7.284192,5.650301 7.331995,5.607621 7.392695,5.580484 7.437661,5.535406 7.552583,5.415585 7.571128,5.39147 7.612276,5.285955 7.616544,5.260942 7.678538,5.141601 7.753261,4.983005 7.773866,4.917328 7.789609,4.812975 7.788629,4.735373 7.843532,4.633617 7.845454,4.289814 7.84739,4.276263 7.841578,4.255473 7.792425,4.078204 7.735265,3.865513 7.639394,3.708168 7.60391,3.593754 7.593218,3.562425 7.587082,3.548802 7.50536,3.448051 7.373069,3.325266 7.308808,3.270732 7.257038,3.226706 7.143372,3.152272 7.120404,3.135539 6.973738,3.094846 6.897239,3.06122 6.815327,3.011917 6.749679,2.994725 6.637053,2.949098 6.585823,2.918892 6.549816,2.893231 6.441218,2.77784 6.386125,2.754918 6.243505,2.690917 6.207515,2.676229 6.138453,2.625586 6.116835,2.590775 6.105909,2.57271 6.105876,2.572059 6.105863,2.571789 6.100848,2.467932 6.100155,2.462304 6.090088,2.380417 6.085035,2.366128 6.072069,2.329451 6.046936,2.258703 6.016922,2.210594 5.997076,2.149626 5.981118,2.117113 5.9814,2.099122 5.978248,2.083878 5.927246,1.998792 5.898568,1.947758 5.903679,1.932523 5.92687,1.914086 6.057955,1.810304 6.075069,1.807908" style="fill: white" /><polygon type="contour" points="5.744297,2.987485 5.773364,3.00047 5.805426,2.995323 5.839206,3.001656 5.855996,3.006769 5.945891,3.053592 5.989536,3.082028 5.997299,3.087005 6.034227,3.125077 6.075787,3.191245 6.09826,3.218513 6.122453,3.243486 6.141573,3.278607 6.173559,3.330551 6.179651,3.349032 6.218967,3.452328 6.252999,3.499755 6.282347,3.576864 6.330232,3.667315 6.358414,3.749115 6.397238,3.842877 6.407431,3.890038 6.411611,3.902806 6.414952,3.909868 6.41703,3.916458 6.486457,4.075293 6.522054,4.129196 6.528219,4.141839 6.534719,4.150815 6.595077,4.271955 6.611247,4.296465 6.651693,4.414827 6.653604,4.419816 6.660462,4.456754 6.636856,4.555999 6.631478,4.578574 6.563115,4.694898 6.557072,4.705745 6.543948,4.726527 6.509492,4.802672 6.466188,4.887129 6.439042,4.938982 6.433422,4.963624 6.42367,4.982754 6.393392,5.073541 6.371949,5.117319 6.371256,5.119887 6.305038,5.249028 6.2953,5.271 6.282623,5.289554 6.27943,5.31738 6.24901,5.418341 6.225873,5.481843 6.152519,5.609354 6.144135,5.625923 6.142612,5.631487 6.136183,5.640548 6.114284,5.689275 6.042205,5.75489 6.02738,5.772342 6.002986,5.814609 6.001805,5.817523 5.930952,5.8717 5.919741,5.878305 5.918604,5.879706 5.910464,5.883098 5.883819,5.887832 5.873724,5.888607 5.856204,5.889953 5.799477,5.898572 5.798789,5.90026 5.754828,5.908127 5.698779,5.918981 5.686477,5.918859 5.638296,5.916922 5.631343,5.919215 5.579906,5.907214 5.512004,5.890409 5.47683,5.852534 5.471892,5.846689 5.464336,5.840242 5.452564,5.826718 5.395692,5.760148 5.359985,5.683997 5.359193,5.681705 5.358671,5.680211 5.358676,5.678952 5.351452,5.577088 5.348842,5.56915 5.350457,5.550681 5.356843,5.433804 5.3787,5.376653 5.402931,5.2073 5.404287,5.201539 5.422062,5.13979 5.446802,5.058855 5.449243,5.048687 5.453129,5.03835 5.458625,5.025772 5.533785,4.876297 5.561852,4.834216 5.600603,4.766997 5.605402,4.760298 5.609989,4.754746 5.617725,4.747126 5.745455,4.623721 5.768392,4.601024 5.953234,4.458173 5.84252,4.349611 5.794684,4.328098 5.787034,4.324087 5.711572,4.260986 5.665992,4.221544 5.634862,4.177996 5.528918,4.030588 5.462627,3.892712 5.442784,3.848858 5.416071,3.750134 5.405106,3.706671 5.402989,3.70083 5.387536,3.619585 5.379873,3.558023 5.366248,3.435189 5.362969,3.41961 5.360804,3.391523 5.352374,3.291851 5.361399,3.267212 5.390569,3.155491 5.455711,3.078405 5.470196,3.063413 5.510778,3.029257 5.525434,3.019103 5.579161,3.002873 5.600708,3.001328 5.607624,2.997671 5.613753,2.996871 5.615282,2.997639 5.668192,2.992353 5.680161,2.998825 5.718648,2.989585 5.721045,2.98987 5.737959,2.986872" style="fill: white" /><polygon type="contour" points="0.747466,1.334076 0.780926,1.348902 0.816824,1.376123 0.836028,1.395154 0.849046,1.413894 0.854804,1.422728 0.776203,1.465172 0.899685,1.54394 0.90306,1.541631 0.907177,1.545826 0.926649,1.553001 0.931664,1.556775 0.957739,1.573013 1.010308,1.603412 1.024359,1.614854 1.026459,1.616961 1.030515,1.621642 1.033806,1.62571 1.039329,1.631988 1.044558,1.639877 1.090828,1.70156 1.111696,1.723543 1.129837,1.741945 1.149239,1.744895 1.154006,1.745419 1.157263,1.748923 1.196401,1.774064 1.208542,1.786397 1.343071,1.913388 1.369818,1.942251 1.389704,1.952957 1.451154,1.991207 1.562771,2.063377 1.601914,2.085486 1.602745,2.085777 1.616487,2.095906 1.64555,2.118334 1.66574,2.122041 1.740741,2.137815 1.812592,2.132458 1.838258,2.120889 1.884148,2.131119 1.901532,2.123497 1.910034,2.12107 1.919822,2.118176 2.04674,2.096909 2.125754,2.101093 2.167057,2.101291 2.195525,2.100596 2.212194,2.096007 2.229822,2.094566 2.246001,2.091134 2.317831,2.083464 2.449478,2.053954 2.497676,2.045351 2.499716,2.044554 2.562753,2.03157 2.577986,2.019293 2.589802,2.011174 2.635256,1.9965 2.774058,1.941919 2.808385,1.929776 2.859141,1.905682 2.87757,1.896261 2.906391,1.902214 2.919696,1.89292 2.934333,1.88891 2.944706,1.884369 2.968467,1.867851 2.979192,1.864721 3.007767,1.851955 3.056306,1.810719 3.070752,1.793982 3.081592,1.787575 3.090555,1.773797 3.113206,1.752099 3.135576,1.734887 3.139082,1.733288 3.144428,1.729458 3.161502,1.725693 3.170241,1.709118 3.17902,1.699199 3.190047,1.687604 3.243656,1.661737 3.273409,1.628293 3.285923,1.61805 3.307782,1.611056 3.332649,1.610556 3.34977,1.591698 3.356283,1.589793 3.428851,1.584324 3.454811,1.58152 3.485433,1.569733 3.512706,1.572529 3.530064,1.579881 3.585318,1.578849 3.603681,1.57953 3.604722,1.579048 3.611793,1.579556 3.615773,1.580643 3.663431,1.588569 3.745446,1.600258 3.753,1.606897 3.776228,1.59919 3.798514,1.6085 3.896901,1.646642 3.923873,1.682033 3.97464,1.745038 3.978767,1.757884 3.977486,1.796692 4.006275,1.892909 4.009147,1.918813 4.011636,1.924129 4.015842,1.94008 4.017265,1.952054 3.981836,1.996221 3.940586,2.054488 3.936379,2.059573 3.875551,2.172541 3.867062,2.200629 3.857174,2.226559 3.784432,2.419809 3.780616,2.441017 3.778837,2.468562 3.771633,2.479176 3.770255,2.487065 3.764268,2.489813 3.759741,2.500853 3.733725,2.529753 3.729957,2.534901 3.72321,2.544181 3.709088,2.553369 3.706301,2.555516 3.696289,2.557126 3.66822,2.565825 3.653493,2.574984 3.633549,2.589491 3.630258,2.598495 3.605768,2.605529 3.593393,2.612029 3.573999,2.612902 3.557232,2.625198 3.544263,2.638149 3.529682,2.647507 3.482059,2.677435 3.464204,2.674778 3.44687,2.681306 3.413948,2.696736 3.408081,2.700111 3.407803,2.700152 3.381318,2.7138 3.370429,2.725225 3.35609,2.730082 3.337695,2.756726 3.332781,2.762113 3.329688,2.768244 3.296553,2.802633 3.229328,2.886789 3.2246,2.893943 3.214566,2.899014 3.143926,2.926655 3.1291,2.937196 3.084537,2.975809 2.984165,3.059165 2.958476,3.073942 2.94454,3.08555 2.906651,3.121954 2.802625,3.297604 2.791287,3.316427 2.705497,3.507502 2.690463,3.531019 2.685229,3.538264 2.564622,3.715812 2.552288,3.779497 2.540821,3.824386 2.545536,3.890015 2.532042,4.015103 2.535428,4.074243 2.544653,4.155767 2.538356,4.227315 2.574079,4.271304 2.577682,4.29419 2.571749,4.336237 2.56676,4.3716 2.556437,4.398406 2.54321,4.42678 2.546486,4.446565 2.545337,4.49583 2.564352,4.541731 2.571203,4.590027 2.575485,4.620204 2.547518,4.67366 2.542376,4.693892 2.54163,4.815593 2.543122,4.82275 2.536502,4.847331 2.542481,4.86552 2.551881,5.037664 2.54777,5.065328 2.545053,5.110495 2.554445,5.153378 2.594485,5.256103 2.69131,5.384253 2.744366,5.518761 2.812558,5.622646 2.888879,5.756438 2.951471,5.827433 2.961357,5.842458 2.998942,5.861924 3.068597,5.93503 3.096864,5.958903 3.110189,5.968256 3.175634,5.994563 3.223689,6.017232 3.342175,6.164831 3.347776,6.168936 3.353406,6.177841 3.402878,6.209615 3.405425,6.209093 3.420818,6.219006 3.445402,6.22463 3.463023,6.237343 3.484634,6.23567 3.504867,6.249785 3.567208,6.294198 3.578808,6.296905 3.610002,6.307936 3.616152,6.307983 3.618633,6.31258 3.660371,6.333195 3.706054,6.358748 3.716731,6.362573 3.725435,6.370316 3.738837,6.388001 3.743383,6.390641 3.759388,6.410599 3.768184,6.427616 3.776765,6.433232 3.780561,6.46987 3.783617,6.48694 3.801743,6.536797 3.85374,6.67451 3.860333,6.699857 3.869608,6.712334 3.876228,6.734437 3.882517,6.763612 3.924863,6.834955 3.934716,6.84916 3.935585,6.85286 3.952951,6.875871 3.992396,6.928822 4.011732,6.959412 4.016187,6.974852 4.008731,7.004263 3.98178,7.08369 3.97446,7.149265 3.957247,7.196347 3.922688,7.239932 3.900884,7.261122 3.863103,7.279533 3.776348,7.312419 3.74295,7.299309 3.67788,7.327276 3.665691,7.328758 3.656959,7.329012 3.636332,7.334652 3.62154,7.333173 3.615668,7.332777 3.582022,7.331874 3.542997,7.333877 3.488788,7.341901 3.412644,7.333675 3.389865,7.333653 3.374251,7.328512 3.334847,7.315987 3.317525,7.300965 3.301091,7.298786 3.279392,7.289901 3.273159,7.279244 3.266731,7.277829 3.253545,7.263022 3.245798,7.249746 3.214613,7.239852 3.182059,7.217399 3.169973,7.197051 3.151079,7.18749 3.149305,7.185066 3.110769,7.158255 3.108487,7.156299 3.104292,7.15261 3.098719,7.146141 3.066043,7.106471 3.041215,7.07798 2.99829,7.053377 2.99138,7.049194 2.989022,7.047055 2.905831,7.003598 2.879784,7.013967 2.875043,7.015647 2.863604,7.012082 2.845577,7.003623 2.826565,6.995611 2.778161,6.977379 2.645952,6.923579 2.620574,6.909293 2.559116,6.880539 2.427742,6.849602 2.324729,6.827746 2.245866,6.820211 2.229654,6.817448 2.194945,6.806951 2.17228,6.809578 2.01107,6.812987 1.91552,6.792406 1.884679,6.782091 1.858051,6.785563 1.847539,6.783345 1.83048,6.785678 1.801402,6.77594 1.734531,6.76681 1.649378,6.793063 1.635269,6.797241 1.620729,6.812276 1.615116,6.816518 1.610484,6.817623 1.586671,6.834284 1.411297,6.935842 1.393674,6.954693 1.390495,6.96115 1.354942,6.983544 1.328988,7.013449 1.288013,7.053819 1.279505,7.062986 1.236536,7.102054 1.1972,7.138431 1.17137,7.158211 1.162283,7.164345 1.132538,7.166553 1.112633,7.186575 1.094467,7.206361 1.00161,7.317365 0.989004,7.326473 0.952658,7.344791 0.92883,7.360754 0.911673,7.362346 0.907202,7.36578 0.898844,7.368226 0.776233,7.446435 0.854801,7.488892 0.849045,7.497723 0.836035,7.516462 0.815998,7.536176 0.768543,7.571126 0.764026,7.572243 0.612073,7.553734 0.59442,7.547799 0.512256,7.473575 0.470241,7.455088 0.422833,7.407464 0.400404,7.376686 0.345495,7.259784 0.313695,7.177286 0.30295,7.100498 0.310432,7.03858 0.313946,7.028787 0.313686,7.020163 0.321054,6.995723 0.33402,6.945552 0.30171,6.783091 0.297995,6.720545 0.292671,6.612345 0.304836,6.496523 0.303217,6.468872 0.308948,6.437164 0.299934,6.383511 0.305127,6.328294 0.31391,6.238014 0.328879,6.155996 0.337194,6.119943 0.349699,6.051888 0.360827,6.009136 0.367703,5.983554 0.36859,5.960035 0.376446,5.949208 0.386305,5.874073 0.394792,5.738826 0.428909,5.612455 0.431597,5.604788 0.432174,5.603144 0.432556,5.602631 0.437983,5.590604 0.461565,5.511973 0.464028,5.493298 0.450694,5.458172 0.470216,5.316898 0.474208,5.277903 0.482797,5.25235 0.490299,5.234868 0.511015,5.210292 0.516735,5.176272 0.525503,5.151257 0.527984,5.14096 0.540965,5.057438 0.51324,4.999331 0.466778,4.912161 0.4639,4.906144 0.454306,4.873395 0.445927,4.711368 0.461084,4.61401 0.460785,4.608965 0.462754,4.600599 0.501797,4.457878 0.486698,4.3954 0.446592,4.256678 0.446315,4.16064 0.461525,4.026882 0.467992,3.991241 0.478724,3.958869 0.518664,3.876905 0.540407,3.851977 0.537375,3.827 0.518693,3.712976 0.509489,3.6982 0.490167,3.675705 0.476724,3.636816 0.476353,3.635914 0.476274,3.635588 0.476055,3.634695 0.47219,3.603495 0.456978,3.483479 0.456764,3.481933 0.455779,3.476268 0.453998,3.449584 0.455464,3.440974 0.457423,3.436651 0.464478,3.418944 0.460869,3.398488 0.461263,3.393355 0.447832,3.354769 0.44258,3.331303 0.432197,3.313039 0.430405,3.306306 0.425407,3.296519 0.421942,3.286614 0.421544,3.285787 0.416482,3.270108 0.40565,3.228368 0.405788,3.162666 0.378637,2.96684 0.381817,2.954592 0.355475,2.878738 0.344789,2.81686 0.315551,2.631558 0.301405,2.539215 0.300517,2.523222 0.295814,2.486397 0.305307,2.427173 0.291868,2.291886 0.297208,2.078528 0.301789,2.054064 0.30483,2.046297 0.309328,2.038424 0.315066,2.025717 0.318029,2.008211 0.334197,1.963242 0.303785,1.845165 0.302858,1.830126 0.304027,1.766159 0.305128,1.752877 0.305766,1.749959 0.34131,1.640824 0.396999,1.561219 0.447914,1.481683 0.517191,1.418598 0.567647,1.378382 0.596584,1.362608 0.617385,1.356684 0.714556,1.334694 0.731601,1.332774" style="fill: white" />
</svg>
