<svg width="13.600213" height="8.910821">
<polygon type="contour" points="4.060296,1.331646 4.098724,1.334476 4.122659,1.342156 4.295535,1.404389 4.343217,1.404045 4.417763,1.429553 4.555533,1.471738 4.59658,1.493744 4.607646,1.51133 4.649803,1.510652 4.669137,1.507915 4.706197,1.49519 4.711515,1.446236 4.750009,1.412451 4.763901,1.406583 4.770857,1.406728 4.901349,1.409054 4.903753,1.409424 4.904632,1.409867 4.961992,1.42316 5.001886,1.437747 5.03812,1.452732 5.097728,1.463224 5.170001,1.486078 5.274593,1.530091 5.28834,1.544289 5.342046,1.565619 5.444656,1.597451 5.657205,1.660219 5.676348,1.663462 5.784521,1.686833 5.879755,1.724887 5.985355,1.775232 6.027617,1.793326 6.049482,1.793361 6.066941,1.785163 6.077305,1.781676 6.095748,1.780637 6.101182,1.779879 6.108987,1.783244 6.319528,1.865738 6.381064,1.898792 6.418778,1.901295 6.479792,1.932179 6.609437,1.959983 6.636429,1.97305 6.713666,2.0085 6.769163,2.042977 6.782751,2.049166 6.796001,2.064671 6.806229,2.081784 6.901297,2.135304 6.960254,2.168013 7.04745,2.224991 7.065732,2.246095 7.069218,2.253523 7.080527,2.276951 7.100535,2.310994 7.116394,2.320225 7.157767,2.337919 7.199718,2.356691 7.241775,2.36919 7.246549,2.369489 7.27668,2.373206 7.314442,2.379235 7.335192,2.381749 7.370598,2.40195 7.462199,2.463289 7.483936,2.490081 7.499199,2.507164 7.524672,2.521502 7.546886,2.524086 7.583926,2.537829 7.665779,2.577506 7.676849,2.584231 7.701713,2.61097 7.733118,2.599127 7.746647,2.59948 7.752949,2.601733 7.774707,2.60953 7.841355,2.623537 7.947927,2.681669 7.964227,2.686288 7.988072,2.709525 8.021703,2.733195 8.089669,2.750373 8.109039,2.754679 8.125315,2.75685 8.199767,2.775733 8.22621,2.779877 8.296526,2.80449 8.310342,2.803557 8.498629,2.853358 8.516737,2.857776 8.519325,2.860303 8.537756,2.872222 8.545612,2.874175 8.588003,2.8876 8.610005,2.901643 8.678315,2.9297 8.694014,2.93494 8.736637,2.94978 8.736924,2.949935 8.737179,2.95004 8.769855,2.977559 8.773787,2.979264 8.779882,2.991578 8.793982,2.999133 8.80873,3.009138 8.851517,3.048332 8.917389,3.075345 8.963903,3.107659 8.974689,3.118324 9.048992,3.165137 9.054109,3.16805 9.074845,3.178764 9.105605,3.197494 9.109181,3.199108 9.11795,3.206003 9.139535,3.227129 9.252867,3.27082 9.316519,3.319416 9.343051,3.347299 9.349185,3.350895 9.355418,3.360968 9.385076,3.384557 9.420011,3.406419 9.421025,3.406706 9.421322,3.406924 9.42214,3.407493 9.51532,3.495746 9.543257,3.534641 9.575639,3.560143 9.589997,3.57999 9.61377,3.606636 9.616118,3.60895 9.623913,3.6161 9.629516,3.622156 9.634517,3.631889 9.722406,3.705074 9.739978,3.725404 9.749339,3.736117 9.764485,3.751094 9.796935,3.780777 9.840885,3.822237 9.879948,3.873394 9.895544,3.887653 9.90728,3.9129 9.928635,3.9371 9.982226,3.986199 9.997266,4.006427 10.012542,4.025507 10.020604,4.040685 10.027227,4.058193 10.039784,4.078852 10.075375,4.132162 10.101519,4.187619 10.124768,4.220713 10.13056,4.25655 10.160604,4.328868 10.172223,4.361234 10.146058,4.451282 10.148973,4.455809 10.147331,4.465101 10.172939,4.559412 10.17197,4.571379 10.086857,4.73549 10.082266,4.749077 10.033043,4.850933 10.022273,4.868581 10.018006,4.880243 9.945689,4.954608 9.929213,4.972825 9.909957,4.990634 9.90627,4.997716 9.900042,5.002957 9.893007,5.009015 9.881778,5.021672 9.791341,5.127183 9.775547,5.14936 9.737318,5.19062 9.666377,5.249296 9.651541,5.262556 9.640759,5.278686 9.639122,5.280552 9.62176,5.297849 9.558569,5.361897 9.552683,5.370543 9.487722,5.433655 9.485695,5.439358 9.460971,5.470174 9.400227,5.52168 9.355181,5.552153 9.35115,5.558984 9.346972,5.561288 9.314476,5.59096 9.271285,5.626511 9.252065,5.641305 9.146931,5.690749 9.124732,5.697399 9.119439,5.705497 9.111482,5.711341 9.081073,5.730637 9.044045,5.749822 8.968142,5.797661 8.913076,5.830857 8.8896,5.85811 8.858069,5.866559 8.826432,5.888485 8.818476,5.89244 8.804756,5.903029 8.781201,5.919411 8.778395,5.927179 8.765968,5.937869 8.748818,5.954639 8.739072,5.958589 8.726434,5.965553 8.704673,5.972412 8.700498,5.974448 8.689734,5.977319 8.616354,6.005517 8.56434,6.036427 8.56211,6.037847 8.558623,6.037184 8.546754,6.041369 8.531663,6.04389 8.491842,6.064915 8.323161,6.104257 8.279451,6.11164 8.197308,6.145598 8.104915,6.158657 8.070215,6.166112 8.044765,6.174899 8.0374,6.178159 8.03096,6.178134 7.973033,6.222246 7.93682,6.241354 7.84391,6.286687 7.780943,6.306731 7.747979,6.31207 7.739443,6.312869 7.701104,6.300387 7.68367,6.319683 7.680599,6.321362 7.64274,6.348209 7.581148,6.381246 7.573698,6.383123 7.549265,6.384953 7.544508,6.388187 7.518508,6.39276 7.499355,6.404102 7.48486,6.420493 7.475759,6.436372 7.455209,6.456553 7.372836,6.507191 7.344212,6.518056 7.277813,6.533856 7.259558,6.536253 7.198859,6.558524 7.156129,6.577615 7.132014,6.586031 7.121128,6.589521 7.10969,6.596148 7.101241,6.604049 7.077552,6.6353 7.054863,6.668375 7.036639,6.688294 6.992987,6.718383 6.990088,6.720727 6.98536,6.723193 6.958525,6.737101 6.839239,6.822599 6.81373,6.842894 6.787056,6.858184 6.77563,6.86456 6.772331,6.868523 6.688649,6.918891 6.60871,6.953909 6.585619,6.960728 6.480615,6.990699 6.406564,7.019352 6.394928,7.023886 6.373662,7.022383 6.355515,7.026793 6.330189,7.040485 6.314461,7.053107 6.29042,7.073464 6.196596,7.107881 6.123831,7.130731 6.099974,7.128479 6.076895,7.129931 6.058286,7.119615 6.025081,7.119262 6.008199,7.126781 5.828906,7.189388 5.780367,7.209822 5.663094,7.248117 5.652239,7.252236 5.649843,7.25299 5.580511,7.285102 5.410882,7.341934 5.37991,7.350739 5.334537,7.36478 5.305537,7.376907 5.264649,7.38735 5.256235,7.395051 5.203529,7.419516 5.125014,7.43123 5.014148,7.444418 4.992474,7.457608 4.946534,7.488404 4.920248,7.496159 4.900015,7.502651 4.827728,7.493859 4.733726,7.472384 4.708216,7.468237 4.699104,7.40826 4.640437,7.406237 4.613227,7.399136 4.597084,7.414744 4.536982,7.448518 4.404354,7.489657 4.311228,7.507099 4.295298,7.504028 4.267494,7.512166 4.081275,7.583244 4.027057,7.585316 3.952779,7.573915 3.92363,7.557908 3.920905,7.554415 3.880647,7.541571 3.850314,7.544739 3.823263,7.538509 3.799725,7.544314 3.718258,7.526011 3.704198,7.522923 3.696827,7.518824 3.671582,7.517606 3.647154,7.520123 3.592862,7.506288 3.585852,7.498728 3.570415,7.493715 3.510762,7.472398 3.473129,7.464201 3.435464,7.470331 3.435332,7.470323 3.409675,7.457885 3.374497,7.456613 3.36454,7.463846 3.361157,7.464535 3.333995,7.471189 3.326287,7.472038 3.325109,7.472306 3.324507,7.472234 3.313094,7.470888 3.299875,7.463088 3.246763,7.477108 3.191175,7.483639 3.182792,7.480906 3.174835,7.476598 3.171649,7.470693 3.135905,7.429001 3.118156,7.436558 3.081414,7.411159 3.055566,7.39329 3.025304,7.388374 2.994602,7.403287 2.988339,7.399804 2.973858,7.385255 2.951743,7.39438 2.913477,7.367523 2.871985,7.38586 2.826918,7.3924 2.824151,7.402264 2.821957,7.404078 2.800042,7.390461 2.787685,7.409274 2.78037,7.394204 2.770772,7.398826 2.783851,7.359152 2.74798,7.382246 2.74896,7.377438 2.733178,7.364637 2.732176,7.329447 2.684142,7.312358 2.666436,7.292858 2.657197,7.273832 2.631822,7.230894 2.612332,7.220011 2.548695,7.185652 2.511375,7.174214 2.464767,7.158133 2.438109,7.154951 2.411561,7.159467 2.26703,7.186863 2.148555,7.192803 2.13955,7.191139 2.104991,7.19116 2.102834,7.191464 1.938889,7.180217 1.890558,7.179558 1.761134,7.137496 1.694258,7.14044 1.66893,7.116312 1.635811,7.104281 1.609287,7.109791 1.582383,7.126103 1.529404,7.104471 1.324349,7.034832 1.213212,6.994434 1.171475,6.966754 1.147866,6.947954 1.075951,6.875734 0.99505,6.822958 0.92314,6.725709 0.901076,6.688937 0.828287,6.574921 0.808216,6.513504 0.787574,6.37188 0.774553,6.337308 0.753074,6.252036 0.726013,6.206177 0.698103,6.133026 0.68789,6.081352 0.680631,6.056494 0.687847,5.973957 0.679634,5.964255 0.677226,5.955805 0.676065,5.940146 0.673917,5.933394 0.670614,5.91844 0.656389,5.893652 0.599242,5.804485 0.573193,5.774609 0.553087,5.688738 0.518414,5.530328 0.510114,5.389638 0.522937,5.358687 0.517482,5.297585 0.508762,5.280315 0.500476,5.136783 0.494484,5.053708 0.487238,4.896582 0.48476,4.838565 0.497358,4.821544 0.514057,4.7348 0.526281,4.688746 0.52562,4.666387 0.535135,4.555827 0.542098,4.454259 0.528409,4.258534 0.517278,4.212522 0.505841,4.129768 0.489539,4.087808 0.480734,4.049572 0.48852,3.872806 0.495367,3.800572 0.532486,3.571449 0.510689,3.538456 0.512388,3.4323 0.511527,3.40922 0.520822,3.328059 0.52906,3.299277 0.527586,3.281394 0.558863,3.199402 0.567477,3.178365 0.642085,3.037949 0.653028,3.024791 0.658829,3.005986 0.675756,2.980927 0.675058,2.960003 0.687875,2.925923 0.683329,2.90954 0.686035,2.884077 0.681597,2.85961 0.684363,2.83987 0.694649,2.806405 0.700624,2.789809 0.73351,2.709948 0.747594,2.66905 0.776402,2.598199 0.787956,2.536542 0.798628,2.44127 0.817083,2.386824 0.850663,2.295136 0.868808,2.243944 0.92362,2.173235 0.995757,2.087743 1.05527,2.044892 1.090238,2.015535 1.146492,1.965307 1.168682,1.950977 1.176798,1.939872 1.182945,1.935142 1.248807,1.897842 1.514903,1.791573 1.557607,1.775727 1.561594,1.776725 1.635651,1.816343 1.700058,1.786401 1.701785,1.784991 1.703365,1.785058 1.711717,1.783283 2.002019,1.719711 2.185108,1.725162 2.311808,1.74414 2.416371,1.755464 2.421064,1.756476 2.459237,1.762052 2.471155,1.751772 2.475145,1.752485 2.497587,1.737039 2.498976,1.735827 2.525066,1.731147 2.537321,1.727011 2.566117,1.71572 2.567105,1.713625 2.57143,1.714333 2.598186,1.694134 2.646166,1.661843 2.667525,1.61732 2.684233,1.599209 2.728421,1.583487 2.733181,1.546981 2.774447,1.521176 2.774605,1.520885 2.789197,1.513995 2.792079,1.50807 2.794187,1.507955 2.815478,1.515435 2.847309,1.518786 2.866929,1.518154 2.879214,1.538207 2.912187,1.551158 2.974027,1.529102 2.994559,1.518534 3.016989,1.525595 3.026029,1.520067 3.035364,1.520499 3.043568,1.516779 3.046927,1.519052 3.057499,1.518004 3.064089,1.51986 3.117692,1.560987 3.139005,1.492794 3.145871,1.475245 3.152967,1.476096 3.16158,1.451911 3.171766,1.447315 3.174833,1.435022 3.183428,1.433189 3.190434,1.427957 3.203131,1.430361 3.244874,1.434453 3.296252,1.447204 3.310687,1.440904 3.31628,1.441256 3.330442,1.440456 3.331849,1.440377 3.33449,1.440877 3.343706,1.441835 3.36286,1.447198 3.363192,1.447176 3.374135,1.458215 3.407126,1.454625 3.435213,1.44172 3.441973,1.440657 3.462588,1.442397 3.485803,1.441569 3.489163,1.440282 3.529585,1.433078 3.560508,1.421815 3.563853,1.420877 3.568592,1.420292 3.592461,1.409283 3.601183,1.39989 3.612521,1.396803 3.638047,1.392121 3.656542,1.39072 3.674682,1.394697 3.689237,1.390814 3.695006,1.391845 3.745306,1.384658 3.765101,1.379468 3.803794,1.372365 3.811182,1.371329 3.84632,1.38276 3.916056,1.357942 3.921068,1.356691 3.937419,1.350868 3.953041,1.335926 3.961327,1.334195 3.986674,1.331492 4.010973,1.326143" style="fill: white" /><polygon type="hole" points="5.622667,3.024951 5.551352,3.036954 5.516202,3.05588 5.235825,3.178983 5.175071,3.233994 5.133367,3.279624 5.089686,3.335298 5.025323,3.439683 4.991645,3.513863 4.954852,3.646076 4.948148,3.721542 4.956392,3.768742 4.980443,3.937315 4.996001,4.08253 4.998617,4.153568 5.003714,4.70886 5.008664,4.785871 4.997465,4.848671 4.976165,4.953942 4.95601,5.157822 4.950557,5.188959 4.998136,5.416571 5.000589,5.428298 5.006215,5.438413 5.060383,5.533504 5.089058,5.573059 5.187237,5.690111 5.246411,5.735888 5.336215,5.785991 5.388454,5.808818 5.510844,5.863977 5.578976,5.879498 5.689595,5.897755 5.810534,5.910477 5.954575,5.912854 5.964965,5.912055 6.09021,5.877932 6.138265,5.865672 6.314405,5.804222 6.403357,5.750427 6.479003,5.696834 6.516564,5.649329 6.527247,5.638969 6.543194,5.603879 6.626906,5.502698 6.769711,5.34987 6.802142,5.29526 6.866301,5.245248 6.899061,5.200239 6.919999,5.171109 7.026464,5.04298 7.043787,5.017722 7.048034,5.00824 7.059516,4.953655 7.083605,4.796836 7.073717,4.520686 7.064636,4.346957 7.086105,4.259477 7.097376,4.160168 7.076244,4.014464 7.075449,4.012933 7.075862,4.008384 7.075413,3.957343 7.07124,3.943044 7.021645,3.853259 6.998846,3.816952 6.90892,3.720252 6.902943,3.71965 6.899205,3.70383 6.892597,3.693107 6.831173,3.616888 6.765324,3.567749 6.732129,3.50905 6.693227,3.45736 6.545147,3.307346 6.509972,3.254994 6.470081,3.213142 6.314711,3.121506 6.210425,3.060593 6.032931,3.011385 5.970016,3.003699 5.816344,3.00287" style="fill: black" />
</svg>
