<svg width="13.600213" height="8.910821">
<polygon type="contour" points="6.842726,3.47727 6.855915,3.479166 6.875436,3.481249 6.904179,3.485463 6.967282,3.510437 6.996275,3.521613 7.013861,3.532869 7.022749,3.535232 7.03362,3.545516 7.060619,3.571057 7.076366,3.590139 7.135373,3.628522 7.140301,3.63278 7.182962,3.685162 7.207864,3.722791 7.236836,3.754409 7.255937,3.796733 7.273306,3.808447 7.278264,3.821274 7.291395,3.8361 7.32184,3.896852 7.337356,3.912429 7.363923,3.967095 7.390382,4.027779 7.399528,4.046108 7.392091,4.06546 7.416269,4.089245 7.420578,4.094831 7.43488,4.126202 7.442131,4.148907 7.451034,4.170969 7.465236,4.212898 7.48295,4.268737 7.496661,4.321443 7.500355,4.372601 7.509546,4.453867 7.507975,4.480461 7.485682,4.633109 7.478374,4.650945 7.474464,4.668976 7.4598,4.709811 7.440695,4.779731 7.434178,4.8133 7.407784,4.848519 7.382411,4.895786 7.348824,4.976489 7.329462,5.01346 7.324904,5.019966 7.310367,5.045567 7.304658,5.054332 7.282906,5.088637 7.260679,5.120157 7.24025,5.147205 7.203495,5.195062 7.193674,5.201439 7.178614,5.228113 7.177514,5.232694 7.173618,5.237857 7.113854,5.301318 7.101996,5.309529 7.100207,5.310377 7.078346,5.322015 7.073692,5.329285 7.065132,5.333524 7.000938,5.386151 6.969102,5.402876 6.958775,5.408794 6.939527,5.415704 6.917294,5.416199 6.869463,5.422309 6.841475,5.439916 6.803925,5.4485 6.797624,5.448121 6.75174,5.433959 6.745164,5.427847 6.728271,5.425922 6.715561,5.424474 6.694499,5.416082 6.674392,5.403838 6.65235,5.384154 6.642757,5.366037 6.64657,5.351141 6.621671,5.325265 6.620754,5.301819 6.621091,5.241616 6.621648,5.232106 6.618054,5.202678 6.649104,5.128669 6.650367,5.120369 6.65538,5.088826 6.65537,5.088387 6.655433,5.088173 6.656084,5.087134 6.677361,5.015579 6.700096,4.983856 6.713204,4.959275 6.762906,4.866597 6.792805,4.843254 6.80297,4.829423 6.815488,4.809335 6.86262,4.712746 6.885633,4.676934 6.947296,4.617597 6.956595,4.599094 6.96533,4.567283 6.98393,4.499152 7.004038,4.45163 6.999409,4.431231 6.991959,4.395427 6.967181,4.357879 6.942211,4.312347 6.918576,4.250216 6.898664,4.223702 6.893162,4.212792 6.885443,4.203092 6.853469,4.157649 6.788923,4.081106 6.775244,4.059617 6.755055,4.012898 6.740227,3.991444 6.693027,3.907663 6.689084,3.897238 6.667859,3.845049 6.655408,3.818685 6.642597,3.767195 6.619219,3.686002 6.616725,3.674129 6.614171,3.664142 6.625441,3.609364 6.619001,3.58697 6.627774,3.554197 6.631519,3.53385 6.652747,3.516107 6.672997,3.490322 6.703969,3.479009 6.723476,3.477503 6.754845,3.481779 6.768034,3.476883 6.795649,3.471792 6.797174,3.471694 6.815128,3.468697" style="fill: white" /><polygon type="contour" points="6.881371,2.333234 6.921558,2.331794 7.076271,2.358409 7.156934,2.376323 7.179042,2.380034 7.211586,2.406819 7.22486,2.405927 7.246276,2.410962 7.256937,2.41537 7.27053,2.422465 7.318938,2.444291 7.350571,2.47968 7.411026,2.501183 7.45438,2.521478 7.469379,2.527301 7.475406,2.528411 7.478603,2.53121 7.505681,2.54307 7.55438,2.560541 7.556404,2.56064 7.605911,2.587212 7.778068,2.679559 7.902028,2.773437 7.905363,2.776531 7.906705,2.777462 7.908714,2.781581 7.912315,2.788481 7.925998,2.818019 7.963441,2.899455 7.977648,2.934054 7.994321,3.034067 7.996704,3.050884 7.99492,3.064143 7.998524,3.134824 8.014457,3.154939 8.097527,3.409472 8.10018,3.412911 8.111378,3.438615 8.134069,3.476875 8.144186,3.492544 8.16777,3.530696 8.234992,3.648764 8.273878,3.715395 8.278593,3.734759 8.328082,3.78893 8.336846,3.799215 8.356177,3.825222 8.376013,3.857554 8.403238,3.893902 8.434018,3.916881 8.436711,3.921242 8.438505,3.945944 8.467109,3.972075 8.483788,3.995413 8.527112,4.038781 8.540314,4.061505 8.565709,4.126742 8.619266,4.231347 8.651158,4.310695 8.657604,4.35397 8.659075,4.454689 8.657729,4.508383 8.63245,4.64961 8.598795,4.743362 8.53258,4.85644 8.504881,4.902456 8.483496,4.920775 8.480061,4.925942 8.409037,5.019185 8.32155,5.133209 8.316238,5.136087 8.278839,5.180962 8.264949,5.213348 8.155955,5.400215 8.111018,5.472478 8.107375,5.484549 8.097542,5.498182 8.020946,5.709288 8.008351,5.743056 8.006748,5.750136 8.005724,5.753872 7.993784,5.836681 7.994109,5.840623 7.982134,5.929587 7.974925,5.983977 7.965187,6.009995 7.955365,6.024781 7.916511,6.120957 7.904673,6.14095 7.880038,6.160921 7.800688,6.216593 7.76341,6.239989 7.687114,6.287166 7.6633,6.30497 7.647101,6.31436 7.531105,6.358276 7.500482,6.369302 7.491921,6.372534 7.457855,6.389689 7.438076,6.398093 7.386687,6.411901 7.375529,6.423598 7.339363,6.447799 7.308345,6.47168 7.281572,6.487272 7.26575,6.48966 7.260755,6.495247 7.249681,6.500283 7.236793,6.500237 7.216735,6.509034 7.203548,6.514126 7.1441,6.526926 7.052765,6.554631 6.95557,6.572769 6.896142,6.580396 6.774878,6.591394 6.740692,6.586928 6.719528,6.585163 6.700974,6.580022 6.623424,6.527426 6.596831,6.514422 6.591613,6.497734 6.588253,6.481056 6.585877,6.4699 6.579377,6.444608 6.578868,6.442626 6.566434,6.394242 6.421017,6.424532 6.414567,6.425573 6.277063,6.447778 6.246706,6.428235 6.217493,6.385983 6.285078,6.327555 6.309312,6.300916 6.379258,6.272437 6.517589,6.223528 6.578525,6.20684 6.613993,6.197589 6.620962,6.14566 6.623858,6.133373 6.627672,6.130043 6.641942,6.116152 6.646045,6.111877 6.779357,5.98057 6.861207,5.939717 6.864404,5.937328 6.870245,5.933799 7.055183,5.809216 7.077718,5.795239 7.105498,5.774832 7.295501,5.619723 7.3332,5.598404 7.366128,5.572805 7.494317,5.45335 7.556478,5.374975 7.622713,5.283469 7.626592,5.274509 7.648232,5.240157 7.655044,5.222682 7.662356,5.192789 7.647697,5.164924 7.651765,5.135877 7.665409,5.102819 7.704155,5.019596 7.769646,4.882723 7.761951,4.853791 7.76348,4.827563 7.753904,4.811996 7.760114,4.797073 7.808229,4.69622 7.822078,4.650856 7.852151,4.572791 7.862832,4.546368 7.87986,4.486228 7.876473,4.455872 7.878494,4.420699 7.876606,4.408755 7.866934,4.38143 7.862619,4.368111 7.816809,4.254937 7.763975,4.122799 7.758727,4.111567 7.763911,4.093224 7.767635,4.033164 7.764861,4.006183 7.74906,3.961161 7.701608,3.873029 7.662159,3.80106 7.64695,3.749264 7.65555,3.736021 7.657478,3.719265 7.657363,3.700517 7.614736,3.626382 7.57172,3.559084 7.499931,3.463326 7.441468,3.406817 7.424561,3.388463 7.295252,3.292732 7.082486,3.119116 7.080337,3.117615 6.856657,2.969634 6.848856,2.96522 6.829995,2.956649 6.668488,2.826795 6.664106,2.823272 6.632096,2.792212 6.53267,2.774252 6.452831,2.75983 6.327645,2.721308 6.281799,2.652968 6.233644,2.618445 6.230974,2.594566 6.249199,2.584244 6.267536,2.570193 6.341373,2.574119 6.572082,2.613253 6.559435,2.510838 6.563041,2.476377 6.565648,2.472569 6.582435,2.451783 6.600971,2.40202 6.619213,2.382666 6.665645,2.35002 6.738616,2.321707 6.805015,2.316776" style="fill: white" /><polygon type="contour" points="3.549472,1.870023 3.579347,1.871545 3.642274,1.878012 3.653035,1.881889 3.706767,1.933616 3.715893,1.942345 3.736879,1.977065 3.798492,1.986636 3.818344,1.968923 3.830229,1.964008 3.854632,1.953849 3.860974,1.952997 3.870087,1.955666 3.894239,1.965562 3.91913,1.974549 3.930107,1.990348 3.954835,2.018425 3.976854,2.043782 3.980762,2.04762 3.993206,2.065097 4.000087,2.078866 4.012741,2.144578 4.02989,2.23698 4.10793,2.239507 4.213065,2.242911 4.262837,2.25403 4.332656,2.29586 4.337132,2.29968 4.336923,2.300736 4.336635,2.302192 4.336579,2.302474 4.298306,2.350773 4.294976,2.354975 4.249513,2.386184 4.216307,2.398479 3.949789,2.457303 3.946855,2.457694 3.944223,2.457955 3.943898,2.457987 3.943601,2.458015 3.941723,2.458201 3.937094,2.458665 3.878598,2.464027 3.869205,2.501119 3.862363,2.528142 3.853328,2.549802 3.815825,2.656912 3.788817,2.685698 3.778521,2.692409 3.696015,2.715162 3.64853,2.738715 3.52462,2.833871 3.51701,2.838966 3.513629,2.841809 3.506883,2.846725 3.500024,2.853881 3.470286,2.883416 3.397623,2.967892 3.383779,2.980781 3.375851,2.985235 3.350744,3.001286 3.331623,3.000545 3.31179,3.00765 3.285822,3.018173 3.257526,3.032626 3.238015,3.042612 3.223529,3.050679 3.14405,3.11335 3.050012,3.187013 2.938677,3.301898 2.798332,3.560052 2.751351,3.631699 2.675481,3.739504 2.624958,3.969548 2.606163,4.06658 2.606114,4.195765 2.593853,4.775624 2.599885,4.811265 2.630411,4.94135 2.676877,5.166715 2.685598,5.185097 2.761955,5.274249 2.77126,5.28874 2.775413,5.293959 2.796626,5.332375 2.944154,5.61184 2.996832,5.673475 3.051751,5.731656 3.189467,5.839138 3.223535,5.858576 3.2386,5.869403 3.249206,5.876818 3.274219,5.888043 3.310397,5.903916 3.328999,5.909823 3.360083,5.914024 3.378696,5.925831 3.382941,5.929806 3.475159,6.014666 3.480581,6.034669 3.537775,6.099235 3.646373,6.170217 3.689745,6.193536 3.79889,6.235446 3.819021,6.264943 3.822437,6.269256 3.83138,6.297053 3.833454,6.303503 3.835647,6.31032 3.843945,6.336112 3.845122,6.339337 3.846912,6.34423 3.847227,6.34509 3.850529,6.36004 3.885109,6.462707 4.048053,6.481605 4.050058,6.481839 4.132707,6.494119 4.213025,6.510687 4.253491,6.526881 4.314305,6.593442 4.331493,6.613806 4.330436,6.615623 4.329905,6.616534 4.275884,6.637902 4.217945,6.661273 4.172733,6.668377 4.022615,6.67822 4.025435,6.743211 4.022959,6.750147 3.996285,6.838778 3.99538,6.841324 3.992288,6.846742 3.949527,6.899148 3.928171,6.924523 3.918371,6.937639 3.91338,6.93926 3.879511,6.95222 3.864418,6.956692 3.857937,6.956497 3.818329,6.942692 3.798179,6.924645 3.739511,6.934273 3.709671,6.97842 3.677853,7.013622 3.660873,7.026146 3.631859,7.03628 3.570806,7.042287 3.508491,7.043803 3.434712,7.02992 3.411407,7.023103 3.389231,7.019417 3.32666,6.990215 3.299354,6.974298 3.289165,6.968668 3.221559,6.93398 3.204042,6.921152 3.133411,6.865388 3.130644,6.863505 3.127001,6.859567 3.116878,6.840596 3.100673,6.83256 3.096237,6.827374 3.06419,6.787007 3.046105,6.781334 3.021263,6.764068 2.979115,6.750566 2.93677,6.741138 2.91561,6.742411 2.822004,6.725237 2.714788,6.7173 2.708572,6.714889 2.70398,6.711849 2.570871,6.644863 2.496025,6.594981 2.489492,6.589587 2.484388,6.588081 2.44367,6.544597 2.433503,6.539033 2.404552,6.526351 2.330828,6.505972 2.252833,6.473531 2.195953,6.433683 2.156448,6.423135 2.15117,6.4202 2.147023,6.419277 2.119024,6.408083 2.068493,6.387152 2.053535,6.378119 2.02553,6.367135 1.996157,6.360118 1.893935,6.32119 1.855734,6.310194 1.847353,6.299696 1.824575,6.284854 1.798752,6.282103 1.788043,6.282991 1.756291,6.277941 1.742832,6.273543 1.721022,6.278593 1.678348,6.280106 1.677504,6.2803 1.632363,6.281839 1.601389,6.288796 1.559437,6.290989 1.552087,6.290671 1.540352,6.292782 1.504084,6.297281 1.475947,6.310211 1.456932,6.32106 1.445227,6.333616 1.407405,6.343327 1.371777,6.366945 1.359262,6.373711 1.323956,6.400426 1.315228,6.4064 1.309449,6.412223 1.296696,6.425158 1.233826,6.502259 1.224205,6.50607 1.210513,6.526839 1.202758,6.533352 1.09802,6.68182 1.091449,6.705833 1.089631,6.727925 1.067662,6.769435 1.067058,6.770657 1.008567,6.813357 1.007605,6.813976 0.987451,6.827891 0.976262,6.829482 0.970166,6.830216 0.953407,6.833218 0.923651,6.846203 0.845474,6.837397 0.829892,6.833701 0.769402,6.811123 0.758535,6.803746 0.72993,6.753222 0.722228,6.742682 0.720657,6.740965 0.720218,6.739983 0.719821,6.73952 0.719464,6.738607 0.716599,6.732085 0.628024,6.544761 0.601704,6.515002 0.596873,6.503636 0.525151,6.230302 0.51768,6.217747 0.512949,6.201852 0.510916,6.192229 0.470818,5.940171 0.471226,5.91873 0.481093,5.867705 0.471746,5.813178 0.471766,5.810953 0.463586,5.732663 0.459285,5.689502 0.465039,5.615506 0.458667,5.575432 0.458779,5.565647 0.459869,5.561556 0.460479,5.558582 0.474389,5.479878 0.474064,5.478064 0.475499,5.470519 0.47175,5.460021 0.482919,5.414666 0.487863,5.379765 0.486894,5.337653 0.489891,5.30261 0.519633,5.203846 0.554143,5.081115 0.570233,5.045837 0.480779,4.95273 0.428449,4.891894 0.364515,4.789632 0.343389,4.755167 0.334721,4.744148 0.326697,4.731063 0.317219,4.683078 0.297839,4.521745 0.305246,4.406618 0.316425,4.217103 0.321714,4.194521 0.32529,4.184255 0.331441,4.175064 0.390355,4.075866 0.49673,3.951153 0.521331,3.908386 0.574805,3.885782 0.545478,3.786788 0.50481,3.650323 0.495787,3.604585 0.493633,3.577776 0.490724,3.570339 0.485812,3.528567 0.488946,3.507629 0.476817,3.416091 0.457347,3.238401 0.456417,3.216143 0.457109,3.213448 0.456884,3.203929 0.471395,3.078733 0.48758,3.058733 0.477835,2.985578 0.497158,2.816574 0.501237,2.764324 0.507701,2.740702 0.515867,2.726738 0.521173,2.70166 0.559824,2.547867 0.592579,2.456938 0.668416,2.26922 0.672014,2.26352 0.700719,2.206146 0.727554,2.159956 0.737058,2.125907 0.750148,2.113042 0.77429,2.095339 0.840599,2.07555 0.921514,2.065427 0.95214,2.078642 0.973384,2.081609 0.980742,2.082777 0.986072,2.083417 0.991271,2.084699 1.007675,2.096727 1.011384,2.104615 1.035822,2.118788 1.064651,2.13809 1.065154,2.139078 1.089774,2.183565 1.092728,2.211102 1.096114,2.235941 1.142773,2.300884 1.157378,2.317781 1.217565,2.390825 1.384316,2.547948 1.426484,2.577919 1.445615,2.58308 1.466373,2.597814 1.480747,2.605532 1.50591,2.613988 1.53837,2.618386 1.55074,2.621227 1.559657,2.620728 1.577718,2.623807 1.634799,2.627588 1.638077,2.62853 1.651738,2.629481 1.671358,2.633142 1.674077,2.632638 1.740867,2.638371 1.755461,2.633823 1.785607,2.629209 1.810524,2.630684 1.824022,2.620615 1.836493,2.61697 1.845805,2.606891 1.858823,2.598547 1.877325,2.592637 1.898837,2.58818 1.925416,2.577326 1.949149,2.572698 1.984943,2.557721 2.144297,2.492484 2.144415,2.492458 2.198054,2.480733 2.245936,2.442245 2.284188,2.423046 2.314477,2.411819 2.331988,2.409469 2.366807,2.404976 2.387353,2.391487 2.419988,2.37397 2.440514,2.37066 2.477903,2.333403 2.499013,2.327112 2.515992,2.297977 2.540579,2.277822 2.569733,2.266792 2.637154,2.22376 2.714785,2.193506 2.804885,2.187932 2.843141,2.178179 2.965454,2.158691 2.993186,2.155845 3.031596,2.134986 3.066975,2.121602 3.087949,2.094126 3.089642,2.089844 3.095004,2.0832 3.107367,2.076317 3.119671,2.065928 3.127595,2.051083 3.131784,2.047219 3.144734,2.033107 3.158803,2.024511 3.190116,1.999365 3.201434,1.992342 3.207957,1.987574 3.276291,1.951 3.294304,1.941181 3.341061,1.919367 3.372282,1.899556 3.376729,1.89791 3.389694,1.89425 3.402059,1.889787 3.425125,1.881727 3.491477,1.869222" style="fill: white" />
</svg>
