<svg width="13.600213" height="8.910821">
<polygon type="contour" points="7.165376,2.502844 7.186188,2.503612 7.188717,2.503424 7.191252,2.503371 7.278826,2.537694 7.309363,2.535555 7.368913,2.53545 7.392005,2.536726 7.394807,2.537926 7.431898,2.548997 7.453582,2.557502 7.525452,2.606719 7.557303,2.628974 7.559797,2.647332 7.608449,2.676934 7.654424,2.711221 7.721324,2.746234 7.82572,2.821038 7.918089,2.885892 7.924711,2.89118 7.93587,2.901318 7.949893,2.915767 8.029443,3.014294 8.068855,3.140142 8.085356,3.197077 8.103288,3.257162 8.123117,3.378372 8.172343,3.599982 8.204856,3.676056 8.249056,3.756203 8.293196,3.853496 8.295626,3.856591 8.301969,3.866529 8.326767,3.88626 8.340721,3.898845 8.359817,3.922555 8.389444,3.972248 8.468048,4.097556 8.475202,4.126428 8.480574,4.142989 8.49851,4.20719 8.521378,4.229173 8.540272,4.274375 8.55024,4.307228 8.552334,4.3155 8.55194,4.319309 8.567423,4.407579 8.569266,4.419581 8.569981,4.491621 8.551919,4.596527 8.552036,4.598011 8.550597,4.603743 8.542619,4.629447 8.522321,4.681463 8.499013,4.701563 8.485617,4.743102 8.481729,4.764621 8.481009,4.770747 8.447839,4.820275 8.434402,4.854191 8.411288,4.895278 8.353764,4.995619 8.339751,5.009021 8.306035,5.040169 8.297268,5.053708 8.261549,5.129229 8.216216,5.220381 8.150541,5.369005 8.13043,5.503251 8.111334,5.579648 8.101487,5.617591 8.090181,5.669855 8.078006,5.726179 8.065471,5.784343 8.030926,5.894335 7.951736,5.976389 7.908214,6.031166 7.883618,6.030675 7.850183,6.05696 7.800024,6.099822 7.775933,6.121781 7.74575,6.143693 7.715385,6.158841 7.678841,6.183943 7.634112,6.208436 7.627488,6.2144 7.624424,6.216016 7.580838,6.256233 7.57324,6.26814 7.467132,6.347143 7.455124,6.353844 7.42449,6.365463 7.395494,6.373702 7.374025,6.379816 7.30394,6.383523 7.281128,6.369943 7.256262,6.383686 7.216459,6.401255 7.185783,6.405853 7.169012,6.41329 7.160591,6.414668 7.157874,6.415058 7.041174,6.417603 7.015282,6.416929 7.009475,6.416438 6.991669,6.406535 6.956737,6.363563 6.93958,6.343567 6.930204,6.332393 6.906106,6.305871 6.893316,6.288094 6.889097,6.283712 6.889406,6.283184 6.877217,6.229634 6.85657,6.138851 6.774593,6.112427 6.750044,6.105048 6.734086,6.089306 6.763787,6.047307 6.798067,6.016542 6.85975,5.989031 6.951689,5.963455 6.954187,5.926931 6.988699,5.899586 7.049186,5.817545 7.056529,5.807757 7.092819,5.771091 7.116228,5.762059 7.184221,5.736782 7.206278,5.739525 7.257309,5.70634 7.313428,5.651386 7.395219,5.552203 7.464193,5.473189 7.474433,5.458615 7.547548,5.316105 7.549594,5.308873 7.557608,5.296892 7.567259,5.275832 7.593608,5.209994 7.539822,5.163464 7.526734,5.171047 7.510222,5.166343 7.48578,5.204417 7.465622,5.219307 7.449612,5.226663 7.408731,5.243394 7.369007,5.239861 7.362326,5.244298 7.310284,5.254865 7.306652,5.259096 7.273626,5.251324 7.258173,5.262385 7.25414,5.261413 7.1691,5.254431 7.135045,5.24271 7.11761,5.208266 7.114447,5.20855 7.111717,5.195339 7.090981,5.167413 7.082795,5.083449 7.080207,5.065026 7.08198,5.059519 7.082644,5.011525 7.0826,4.994796 7.083066,4.99294 7.103628,4.896272 7.104417,4.888229 7.120255,4.86003 7.132624,4.816777 7.146801,4.782718 7.17322,4.750714 7.180231,4.734563 7.210951,4.655563 7.213328,4.643702 7.227741,4.607111 7.243229,4.564076 7.231794,4.529773 7.226222,4.510176 7.222719,4.470267 7.22199,4.442813 7.227858,4.432936 7.227597,4.381622 7.223255,4.37411 7.232899,4.328553 7.223884,4.306023 7.214683,4.257305 7.201701,4.213758 7.178055,4.168734 7.146164,4.115204 7.141264,4.100409 7.122665,4.052259 7.124761,4.041702 7.100229,3.990237 7.098871,3.984029 7.087419,3.95553 7.091976,3.906905 7.082238,3.85002 7.075206,3.834085 7.074599,3.828062 7.089009,3.757382 7.102431,3.726718 7.107209,3.715729 7.131635,3.698911 7.129701,3.685869 7.164256,3.652988 7.169687,3.646683 7.178704,3.646004 7.212624,3.634009 7.253166,3.637993 7.288796,3.638272 7.368561,3.657852 7.369266,3.657813 7.378286,3.666673 7.40979,3.669856 7.489693,3.710646 7.49394,3.713557 7.495444,3.714077 7.498567,3.716555 7.518196,3.74832 7.599909,3.707137 7.571814,3.63683 7.557584,3.607049 7.534729,3.569049 7.449838,3.419466 7.394754,3.338313 7.286721,3.232856 7.269508,3.219841 7.236383,3.198441 7.199844,3.169394 7.175241,3.171924 7.150044,3.167178 7.124365,3.157822 7.079063,3.121743 7.063686,3.106328 7.051946,3.095522 7.038529,3.080907 7.02532,3.064822 6.944199,3.049419 6.861746,3.022403 6.757238,2.959221 6.756681,2.95879 6.755443,2.957831 6.755459,2.957448 6.75561,2.953728 6.76706,2.891813 6.77712,2.887643 6.858981,2.870968 6.851409,2.806883 6.85332,2.754599 6.868206,2.716982 6.897245,2.616562 6.917489,2.595155 6.938912,2.55951 6.960492,2.543083 6.967071,2.529835 6.969179,2.527278 6.983941,2.51426 6.992075,2.509158 6.999087,2.500324 7.007084,2.497426 7.017573,2.496522" style="fill: white" /><polygon type="contour" points="3.398122,2.021912 3.405355,2.024345 3.409973,2.027431 3.425374,2.040153 3.451341,2.063989 3.479964,2.055898 3.598601,2.037105 3.63322,2.039511 3.65286,2.039638 3.666473,2.037764 3.67964,2.041282 3.726351,2.039131 3.735843,2.042846 3.772238,2.044661 3.802555,2.034921 3.811929,2.035705 3.875761,2.100511 3.880931,2.104001 3.917292,2.169911 3.938968,2.18978 3.948187,2.22338 4.041483,2.216122 4.177011,2.213138 4.269888,2.211094 4.504793,2.183902 4.618655,2.193965 4.688999,2.2021 4.697756,2.228922 4.674032,2.302643 4.61103,2.332869 4.458184,2.367833 4.29418,2.401396 3.949154,2.425455 3.905132,2.428523 3.877496,2.563618 3.871019,2.589989 3.868233,2.60341 3.86598,2.614298 3.865466,2.617276 3.86166,2.639337 3.855924,2.65572 3.852912,2.658929 3.83251,2.672228 3.746554,2.767131 3.609,2.815164 3.598063,2.822086 3.582219,2.838239 3.480361,2.941692 3.444078,2.972004 3.40206,2.995293 3.350701,3.00698 3.33677,3.012457 3.321757,3.022107 3.31847,3.026452 3.254148,3.078105 3.242857,3.085398 3.23323,3.096274 3.201215,3.118285 3.191858,3.149818 3.187586,3.155032 3.181504,3.165717 3.162087,3.182338 3.136838,3.199734 3.123596,3.212317 3.109873,3.220892 3.058478,3.255445 3.058118,3.255711 3.011439,3.270857 2.930342,3.390836 2.881605,3.476704 2.828062,3.600834 2.777526,3.66339 2.746867,3.734923 2.740788,3.876413 2.707668,3.987017 2.699885,4.027487 2.685943,4.153225 2.681102,4.18775 2.707144,4.449251 2.706851,4.465311 2.674324,4.704611 2.680772,4.760506 2.723031,5.004305 2.74407,5.10799 2.757491,5.213302 2.842138,5.331486 2.882534,5.423257 2.91857,5.505968 2.946331,5.550131 2.968546,5.571353 3.011441,5.627781 3.020676,5.642807 3.048254,5.657042 3.066912,5.659968 3.109143,5.692047 3.163073,5.732377 3.175616,5.740486 3.182136,5.74881 3.189688,5.760583 3.202221,5.78998 3.225504,5.80695 3.30662,5.87237 3.326632,5.883815 3.389195,5.912341 3.423906,5.92638 3.449707,5.938651 3.482726,5.97235 3.500476,5.989049 3.603555,6.093183 3.666524,6.126539 3.748792,6.145238 3.755162,6.151838 3.833445,6.213016 3.851537,6.262815 3.880375,6.349644 3.881802,6.355786 3.88479,6.368646 3.88908,6.387115 3.911584,6.483972 3.95721,6.487106 3.991669,6.489471 4.234619,6.506152 4.409575,6.526853 4.534198,6.556865 4.630731,6.589029 4.674279,6.609681 4.696391,6.684715 4.686489,6.711325 4.612054,6.731179 4.427447,6.70404 4.093175,6.692134 4.005547,6.689014 3.954053,6.68718 3.922765,6.737132 3.917204,6.761536 3.884087,6.817781 3.860703,6.841445 3.853322,6.844273 3.816731,6.875244 3.813401,6.875746 3.777911,6.868657 3.707571,6.875892 3.693122,6.877434 3.685563,6.875517 3.671178,6.874081 3.631709,6.872218 3.568671,6.873839 3.559017,6.87213 3.507873,6.851619 3.445638,6.850518 3.417612,6.869611 3.362694,6.897313 3.332725,6.889397 3.299257,6.877295 3.289143,6.874486 3.263311,6.864579 3.227925,6.84239 3.197068,6.817397 3.074179,6.730518 3.048897,6.712715 3.021881,6.702033 3.021303,6.7013 2.993478,6.661497 2.984339,6.65433 2.973746,6.640362 2.941752,6.616653 2.926065,6.605165 2.899763,6.590197 2.852416,6.551434 2.830107,6.544503 2.828166,6.544287 2.796103,6.532532 2.786051,6.528403 2.772325,6.513024 2.746096,6.506989 2.657278,6.470971 2.53062,6.419155 2.527709,6.414544 2.484029,6.402966 2.45301,6.401878 2.382535,6.385176 2.349631,6.370921 2.323314,6.3622 2.305599,6.353546 2.300773,6.353919 2.266567,6.340925 2.228715,6.327674 2.209321,6.320475 2.186615,6.308766 2.17337,6.29978 2.164305,6.300669 2.136539,6.291404 2.122148,6.284385 2.087759,6.276193 2.080659,6.275577 2.075231,6.274308 2.055584,6.270891 2.045257,6.270163 2.02419,6.26027 2.013291,6.248073 1.899075,6.244407 1.889891,6.245655 1.88444,6.244987 1.873722,6.239752 1.853938,6.237376 1.838587,6.24168 1.825628,6.234262 1.795838,6.224907 1.780926,6.227823 1.77806,6.227697 1.63725,6.235953 1.598446,6.241894 1.582675,6.242768 1.526292,6.254698 1.495957,6.257702 1.478836,6.25938 1.470543,6.266467 1.448626,6.270564 1.433502,6.264992 1.390744,6.275441 1.37776,6.277564 1.356536,6.285926 1.3397,6.291612 1.318301,6.310859 1.230967,6.380542 1.2246,6.398452 1.211386,6.416837 1.146142,6.553189 1.145911,6.556116 1.142913,6.563553 1.119042,6.602888 1.113957,6.606582 1.099048,6.61086 1.076757,6.616007 0.961248,6.631585 0.890812,6.593238 0.879182,6.587518 0.875341,6.582738 0.848862,6.571518 0.826375,6.55695 0.78259,6.489331 0.77382,6.467808 0.746665,6.403553 0.733583,6.358226 0.727801,6.301707 0.72126,6.269136 0.727964,6.239756 0.727454,6.238937 0.750196,6.208455 0.745673,6.177332 0.743984,6.172579 0.739708,6.159755 0.717529,6.126541 0.694308,6.117449 0.627214,6.078277 0.55751,6.016831 0.544419,6.005677 0.538798,5.994823 0.525554,5.965685 0.522094,5.956538 0.490586,5.925428 0.476979,5.903715 0.45923,5.874544 0.432596,5.834176 0.436735,5.815944 0.440753,5.803628 0.439864,5.792985 0.44647,5.778644 0.446936,5.773607 0.454442,5.745149 0.457333,5.719851 0.440837,5.621467 0.440592,5.60704 0.438735,5.576618 0.437173,5.571966 0.437148,5.539544 0.435261,5.491986 0.437566,5.365681 0.437847,5.33819 0.438305,5.285423 0.438361,5.283687 0.438558,5.283069 0.448751,5.236941 0.474711,5.183051 0.496226,5.10426 0.492238,5.001197 0.436873,4.920916 0.393847,4.874656 0.380608,4.856166 0.368954,4.847078 0.343606,4.799317 0.299673,4.712185 0.293944,4.692231 0.287625,4.642706 0.287985,4.608781 0.281158,4.522644 0.293245,4.374524 0.289405,4.339215 0.281885,4.308071 0.287309,4.272484 0.32973,4.127429 0.360766,4.074254 0.402299,4.024196 0.420062,4.011588 0.490594,3.910926 0.495082,3.878117 0.499778,3.796139 0.464662,3.730753 0.452536,3.699564 0.442991,3.633851 0.441742,3.62994 0.440145,3.59995 0.435956,3.463508 0.440605,3.389849 0.440306,3.375704 0.44244,3.3 0.443758,3.283207 0.438874,3.272684 0.442834,3.250563 0.451377,3.201963 0.450019,3.189195 0.447883,3.128344 0.433827,3.084778 0.43273,3.07744 0.515735,2.964146 0.527248,2.941045 0.548422,2.9023 0.558372,2.893967 0.632915,2.831042 0.665617,2.822221 0.701163,2.794251 0.718025,2.785004 0.738745,2.753814 0.745528,2.733883 0.750267,2.70497 0.739572,2.685238 0.723487,2.659897 0.722058,2.639708 0.725539,2.619122 0.731348,2.603132 0.759651,2.476522 0.782492,2.422193 0.819412,2.366977 0.827616,2.354043 0.843526,2.338895 0.848075,2.337215 0.876996,2.327223 0.879145,2.324155 0.890687,2.318431 0.958988,2.280439 1.056559,2.299155 1.112609,2.305323 1.119626,2.309653 1.125734,2.314914 1.145176,2.356437 1.147649,2.360487 1.15898,2.393232 1.187431,2.46376 1.206567,2.491177 1.254025,2.554695 1.25904,2.556267 1.266213,2.563169 1.29469,2.589071 1.339123,2.619722 1.375676,2.636178 1.416261,2.647329 1.4509,2.641298 1.451237,2.641132 1.466576,2.645257 1.476222,2.653401 1.584306,2.6669 1.595742,2.668654 1.619026,2.672872 1.636262,2.67443 1.690316,2.68351 1.718266,2.687957 1.731961,2.683399 1.768031,2.684975 1.774919,2.68674 1.785824,2.684341 1.80425,2.688999 1.823774,2.678253 1.836864,2.670641 1.86033,2.669557 1.870505,2.674792 1.898223,2.664492 1.914919,2.660002 1.928964,2.662691 2.012738,2.663439 2.031527,2.64396 2.043343,2.641222 2.062263,2.642148 2.079123,2.636275 2.098547,2.631789 2.113667,2.631216 2.124929,2.625262 2.145714,2.61682 2.179333,2.605605 2.209145,2.591488 2.224306,2.585938 2.286939,2.561565 2.30375,2.562821 2.316236,2.554472 2.328066,2.550597 2.335989,2.546652 2.341562,2.544969 2.517251,2.503163 2.533267,2.487841 2.582851,2.474369 2.67935,2.432131 2.750297,2.403836 2.770279,2.400172 2.785604,2.382958 2.794019,2.379494 2.806165,2.373399 2.814868,2.373069 2.864408,2.354349 2.886076,2.347107 2.951396,2.289593 2.987718,2.251001 2.997252,2.243378 3.026137,2.205793 3.026251,2.205709 3.026397,2.205635 3.028266,2.204573 3.353977,2.015649 3.362251,2.014245" style="fill: white" />
</svg>
