<svg width="13.600213" height="8.910821">
<polygon type="contour" points="0.477887,1.124691 0.486119,1.124914 0.506166,1.13221 0.541944,1.144986 0.550796,1.147055 0.562688,1.148652 0.569236,1.150229 0.586024,1.151187 0.592738,1.160781 0.606268,1.164816 0.608352,1.16741 0.615668,1.184836 0.624788,1.190357 0.642978,1.210877 0.667444,1.215359 0.675693,1.248929 0.714016,1.237313 0.722228,1.249225 0.780346,1.264366 0.792619,1.263155 0.794622,1.264835 0.800822,1.278622 0.820885,1.28758 0.875684,1.353433 0.924236,1.42505 0.960346,1.479678 0.962091,1.488067 0.962737,1.493355 0.964076,1.504044 0.966487,1.529429 0.962643,1.571699 0.99038,1.592286 1.101453,1.674186 1.114077,1.694457 1.13573,1.698896 1.148674,1.705109 1.152454,1.711832 1.177956,1.721347 1.197414,1.723925 1.202535,1.724449 1.22132,1.729877 1.24584,1.735686 1.269566,1.755832 1.323113,1.799521 1.334272,1.814251 1.335666,1.843499 1.353635,1.867031 1.366721,1.874911 1.372886,1.878209 1.437403,1.945729 1.464605,1.973649 1.576527,2.056123 1.602162,2.081508 1.606146,2.085414 1.619726,2.098471 1.638817,2.111067 1.681029,2.140406 1.682473,2.154208 1.712357,2.185948 1.73653,2.193041 1.770267,2.187445 1.800378,2.172767 1.826154,2.12302 1.829281,2.116194 1.829831,2.114244 1.840566,2.10696 1.872659,2.085387 1.882054,2.073367 1.909408,2.043537 1.910107,2.042954 1.916094,2.038592 1.933842,2.023581 1.944289,2.024976 1.955065,2.023405 1.961382,2.025599 1.973417,2.034997 1.995755,2.036617 2.038148,2.052852 2.062878,2.055662 2.065358,2.056456 2.067742,2.057851 2.094875,2.085352 2.134683,2.089797 2.173818,2.103682 2.191034,2.090718 2.229484,2.085765 2.239106,2.084997 2.2452,2.084084 2.274116,2.082099 2.279653,2.081699 2.287621,2.081128 2.294436,2.079455 2.305811,2.077353 2.3123,2.080647 2.32936,2.075808 2.344037,2.079598 2.363305,2.077487 2.401287,2.066928 2.425606,2.061099 2.436354,2.061243 2.45728,2.06899 2.474739,2.061766 2.487399,2.066016 2.527838,2.037095 2.534058,2.03222 2.535713,2.032206 2.602353,2.021138 2.613479,2.021751 2.634008,2.009508 2.692789,1.990428 2.80993,1.885359 2.82406,1.865352 2.839978,1.852653 2.865671,1.831952 2.970371,1.760972 3.085071,1.700727 3.127943,1.635818 3.147289,1.615477 3.161676,1.594508 3.228978,1.517803 3.233711,1.513204 3.247553,1.496931 3.318425,1.438356 3.319731,1.437605 3.321664,1.43651 3.324101,1.435549 3.356087,1.418701 3.369246,1.414433 3.424869,1.414569 3.42599,1.374073 3.427498,1.371584 3.437224,1.361552 3.481432,1.318008 3.493465,1.306915 3.519977,1.286259 3.579815,1.245717 3.583956,1.244658 3.586347,1.243872 3.594719,1.245315 3.602382,1.240682 3.605607,1.243179 3.608413,1.245052 3.672022,1.282357 3.684014,1.269032 3.693086,1.269611 3.709002,1.250152 3.718613,1.248878 3.764022,1.241295 3.780648,1.237454 3.793229,1.235628 3.820072,1.219137 3.822461,1.216744 3.823117,1.216381 3.844645,1.220814 3.865311,1.198815 3.866003,1.198873 3.886025,1.181476 3.890261,1.181654 3.901792,1.186204 3.90501,1.185358 3.92053,1.196117 3.978147,1.212314 3.983998,1.21527 4.001675,1.236387 4.001729,1.236387 4.003689,1.243005 4.010488,1.272405 4.008278,1.323805 4.007302,1.332709 3.980872,1.479178 4.010298,1.549372 4.026051,1.585888 4.031019,1.592698 4.031945,1.605266 4.033807,1.64128 4.035778,1.663464 4.022908,1.671664 4.00962,1.685381 4.001193,1.695946 3.978164,1.737099 3.977196,1.760618 3.969898,1.783832 3.9655,1.796559 3.953372,1.808021 3.951148,1.83257 3.93787,1.864851 3.954818,1.95212 3.959091,1.964566 3.966593,1.979187 4.066114,2.131341 4.08029,2.138719 4.147467,2.195459 4.188019,2.208688 4.290533,2.22742 4.562684,2.278904 4.615549,2.278478 4.694411,2.28574 4.794713,2.314914 4.881315,2.303624 4.972159,2.292626 5.032832,2.280225 5.048792,2.280167 5.167162,2.261092 5.219155,2.2445 5.264151,2.221127 5.363107,2.181359 5.400412,2.168601 5.54275,2.093859 5.560247,2.024573 5.545252,1.98637 5.48851,1.883674 5.448022,1.772654 5.432387,1.746561 5.464677,1.648953 5.474838,1.622756 5.47457,1.596921 5.486644,1.578016 5.506447,1.568417 5.589736,1.532347 5.605907,1.526889 5.619701,1.523294 5.626861,1.521154 5.680928,1.530769 5.727419,1.553112 5.816076,1.559572 5.83505,1.55133 5.932877,1.533633 5.947756,1.52947 5.959433,1.527662 5.977857,1.524843 6.012239,1.520187 6.200482,1.520887 6.270501,1.516909 6.308419,1.535773 6.325273,1.537772 6.337957,1.538907 6.347764,1.540625 6.377318,1.544088 6.643981,1.607687 6.760943,1.683776 6.835254,1.734741 6.880408,1.769789 6.892343,1.780726 6.913462,1.796461 6.981513,1.83031 6.986007,1.833811 7.000311,1.858007 7.046993,1.880864 7.087236,1.90554 7.234922,1.954035 7.237173,1.955192 7.239578,1.955875 7.242212,1.957481 7.273302,1.967613 7.282926,1.968275 7.313996,1.98657 7.434895,2.064736 7.462573,2.090856 7.550522,2.141473 7.585288,2.179224 7.633127,2.239867 7.670092,2.292896 7.703178,2.352898 7.767834,2.455269 7.79361,2.481553 7.835612,2.552905 7.839755,2.566949 7.847024,2.576387 7.854588,2.58492 7.982681,2.731198 8.064751,2.78553 8.204414,2.903807 8.243661,2.932855 8.279876,2.969496 8.30915,2.995335 8.36306,3.037331 8.398222,3.068232 8.402354,3.073111 8.432882,3.109108 8.46567,3.14524 8.469892,3.149416 8.498315,3.176225 8.512314,3.186109 8.54015,3.19944 8.563027,3.205877 8.56909,3.209604 8.585178,3.222294 8.678699,3.298179 8.709821,3.327644 8.751597,3.348155 8.76203,3.358188 8.779062,3.370959 8.802587,3.399773 8.826824,3.414302 8.843176,3.419122 8.876944,3.443595 8.942866,3.53413 9.031941,3.631485 9.040094,3.642994 9.059397,3.683056 9.085976,3.699051 9.106845,3.729414 9.132042,3.781832 9.133283,3.801408 9.144715,3.824658 9.154849,3.84798 9.156797,3.859827 9.167679,3.908955 9.198165,3.963502 9.224424,4.028656 9.229333,4.163858 9.230455,4.226423 9.227882,4.234089 9.230007,4.274189 9.2291,4.41495 9.223059,4.581083 9.223302,4.852454 9.2239,4.865963 9.223666,4.86812 9.221345,4.873588 9.209615,4.907548 9.206294,4.916213 9.194227,4.931756 9.184996,4.960653 9.16874,4.997567 9.143911,5.078879 9.141965,5.088722 9.136492,5.102346 9.134853,5.130413 9.108647,5.179038 9.092151,5.204203 9.086451,5.211861 9.081142,5.215947 9.051701,5.22955 9.034806,5.269311 9.012713,5.301409 8.996603,5.316282 8.968235,5.360465 8.87682,5.468132 8.839233,5.494329 8.792328,5.516761 8.774313,5.543923 8.760012,5.552915 8.754762,5.561391 8.650741,5.63092 8.570579,5.701815 8.565165,5.706223 8.538423,5.714939 8.519997,5.717316 8.496852,5.743136 8.457129,5.778572 8.447523,5.785334 8.430407,5.79647 8.408602,5.827941 8.387313,5.854402 8.329413,5.911657 8.302603,5.924208 8.265392,5.965942 8.233141,5.993804 8.123106,6.070653 8.118982,6.073474 8.100947,6.090751 7.971728,6.185484 7.921242,6.232838 7.850448,6.323356 7.808478,6.40236 7.768817,6.46846 7.740923,6.50458 7.67159,6.609459 7.606153,6.720824 7.580984,6.748206 7.534677,6.782248 7.439993,6.841605 7.414027,6.860224 7.394276,6.880927 7.323579,6.923682 7.282919,6.941236 7.261633,6.949293 7.154964,6.978942 7.141684,6.985584 7.121746,6.997932 7.06344,7.023133 7.042458,7.03723 7.021088,7.047047 7.011873,7.05917 6.961734,7.091559 6.920311,7.117121 6.903651,7.120972 6.853055,7.154238 6.839118,7.166605 6.821858,7.177911 6.790146,7.199938 6.650687,7.301749 6.43796,7.365538 6.421349,7.367675 6.408109,7.369767 6.325978,7.372463 6.032033,7.399595 6.011432,7.395522 5.972777,7.38748 5.817275,7.352861 5.803375,7.35334 5.74454,7.358519 5.676388,7.387801 5.635349,7.385564 5.611913,7.384048 5.581768,7.376242 5.564404,7.369993 5.527421,7.356155 5.504175,7.342247 5.486507,7.333327 5.49043,7.311119 5.48411,7.29801 5.434488,7.175967 5.434877,7.158407 5.454846,7.094178 5.492683,7.013353 5.539892,6.932013 5.552239,6.892779 5.559484,6.857904 5.521395,6.822509 5.511101,6.799375 5.47972,6.785535 5.465017,6.785946 5.44848,6.774069 5.406756,6.737411 5.335877,6.714799 5.194596,6.660106 5.176822,6.661053 5.080941,6.652279 4.981657,6.629937 4.937617,6.614649 4.929131,6.602988 4.817243,6.615157 4.76528,6.61949 4.571791,6.61882 4.512419,6.624267 4.418878,6.66632 4.35233,6.672165 4.20334,6.693454 4.14402,6.721178 4.116548,6.741637 4.065372,6.791361 4.021623,6.822449 3.971957,6.921824 3.960791,6.961293 3.938578,7.065171 3.973407,7.136927 3.979964,7.148513 3.981191,7.162847 3.989577,7.177682 4.010701,7.228985 4.031904,7.241959 4.03453,7.247875 4.029929,7.306172 4.032959,7.307856 4.014796,7.354846 3.972843,7.449261 3.981781,7.528975 4.008155,7.61851 4.010426,7.639436 4.003793,7.66954 4.002069,7.675682 4.002029,7.675671 3.983559,7.696648 3.918572,7.72228 3.891422,7.727462 3.890237,7.729845 3.88607,7.72997 3.882647,7.728915 3.841647,7.691286 3.829317,7.700295 3.804769,7.679393 3.718002,7.664836 3.668723,7.632926 3.646914,7.645714 3.636008,7.646528 3.62233,7.660367 3.618611,7.659222 3.602391,7.670931 3.593726,7.670312 3.579444,7.665373 3.538272,7.638277 3.491331,7.602941 3.471739,7.585563 3.42956,7.541361 3.426354,7.537739 3.425205,7.512999 3.364512,7.493761 3.363764,7.493832 3.348305,7.48643 3.289747,7.442956 3.221529,7.386644 3.200658,7.366442 3.074931,7.226414 3.064125,7.212415 2.839963,7.058866 2.815692,7.012296 2.770449,6.978528 2.692804,6.92115 2.67633,6.91503 2.666539,6.911644 2.661733,6.909751 2.63395,6.902084 2.616974,6.892062 2.55865,6.88195 2.537584,6.880185 2.533657,6.87977 2.490071,6.846313 2.4711,6.852454 2.458006,6.842934 2.428383,6.85159 2.427947,6.851607 2.427305,6.851508 2.363265,6.834602 2.348012,6.832031 2.329051,6.835813 2.326567,6.835456 2.321674,6.836847 2.281695,6.828369 2.229018,6.825651 2.214504,6.825215 2.185093,6.819076 2.172045,6.811063 2.123843,6.814969 2.100191,6.821285 2.064981,6.844566 2.043124,6.855756 2.035629,6.85864 1.99387,6.875353 1.974444,6.877406 1.955919,6.888375 1.954608,6.889961 1.945806,6.890142 1.936883,6.889129 1.920915,6.877044 1.92024,6.877188 1.911483,6.867513 1.873436,6.827443 1.854908,6.806172 1.843829,6.799045 1.812165,6.768495 1.801162,6.738972 1.770314,6.724574 1.721518,6.71755 1.683133,6.757129 1.681789,6.76806 1.662762,6.781457 1.654891,6.791133 1.639552,6.800057 1.618559,6.814477 1.59502,6.838577 1.535078,6.880199 1.488204,6.922136 1.450738,6.948174 1.409576,6.998319 1.4013,7.004755 1.379895,7.029069 1.364179,7.040034 1.355735,7.043875 1.339838,7.066113 1.33435,7.097271 1.329363,7.105259 1.323157,7.112015 1.299755,7.125764 1.288195,7.143051 1.269605,7.155614 1.240014,7.175312 1.201226,7.187133 1.192235,7.189687 1.173319,7.192201 1.157922,7.197816 1.143148,7.203482 1.135381,7.213116 1.117211,7.215434 1.105988,7.237114 1.094491,7.24198 0.988985,7.319654 0.963157,7.34033 0.967172,7.365885 0.966451,7.385472 0.963972,7.405252 0.96219,7.423905 0.960321,7.429459 0.958877,7.434694 0.937862,7.468493 0.929904,7.48081 0.882382,7.544989 0.834761,7.607958 0.822122,7.622828 0.814578,7.630885 0.803741,7.642192 0.789425,7.649384 0.765657,7.650754 0.762608,7.654131 0.728153,7.660864 0.722459,7.671893 0.694473,7.668386 0.64688,7.696798 0.638377,7.703776 0.602488,7.749563 0.586583,7.760855 0.567881,7.764438 0.545818,7.769178 0.44718,7.782993 0.404641,7.780897 0.371469,7.774656 0.290616,7.731994 0.257039,7.713445 0.255053,7.712 0.189633,7.643458 0.160014,7.592853 0.147,7.579646 0.146524,7.576341 0.145963,7.573012 0.145894,7.546703 0.142144,7.538769 0.141599,7.52154 0.145278,7.49343 0.173539,7.371004 0.159465,7.330861 0.17047,7.305979 0.158457,7.231164 0.160683,7.21624 0.213631,7.104632 0.196421,7.02614 0.201208,6.901464 0.223443,6.716207 0.241629,6.651154 0.242627,6.603537 0.245719,6.552053 0.276428,6.326366 0.299852,6.267857 0.3046,6.25196 0.304936,6.211845 0.315141,6.115294 0.31352,6.111431 0.320492,6.016661 0.320171,6.010161 0.321439,6.000358 0.323484,5.990281 0.344165,5.882342 0.36563,5.857562 0.380373,5.829116 0.382425,5.820236 0.397694,5.777995 0.3861,5.760704 0.384374,5.739122 0.384384,5.735525 0.385012,5.733429 0.393556,5.653221 0.398017,5.588999 0.422538,5.477279 0.429901,5.461805 0.44225,5.420712 0.44945,5.403257 0.512882,5.191661 0.505024,5.180349 0.505897,5.139625 0.45782,5.00428 0.441728,4.965237 0.422485,4.874836 0.413198,4.821386 0.417771,4.772702 0.418465,4.767612 0.427159,4.673259 0.431999,4.594978 0.443429,4.572227 0.459242,4.550255 0.496597,4.491827 0.510371,4.468777 0.509611,4.445797 0.503926,4.427434 0.491859,4.413453 0.454898,4.370515 0.440983,4.337128 0.430196,4.315871 0.429133,4.310143 0.426914,4.300119 0.419285,4.143199 0.419321,4.137971 0.420002,4.118696 0.436482,3.995913 0.440426,3.950183 0.452463,3.921985 0.478155,3.825206 0.479079,3.822999 0.506152,3.772615 0.505404,3.736074 0.507566,3.72998 0.508973,3.707057 0.491506,3.661653 0.486977,3.64685 0.481146,3.631554 0.449718,3.508755 0.435061,3.478919 0.430939,3.453132 0.417079,3.428867 0.4112,3.397727 0.398929,3.349688 0.388827,3.240276 0.384587,3.202293 0.38303,3.170417 0.382976,3.167012 0.383222,3.166516 0.38321,3.165974 0.385498,3.161495 0.399535,3.126752 0.364015,3.058456 0.346828,3.025821 0.335199,3.009048 0.320378,2.914426 0.320211,2.90526 0.320699,2.902119 0.314016,2.80406 0.315332,2.799409 0.305607,2.699538 0.297216,2.678277 0.300816,2.640968 0.290978,2.630495 0.278913,2.578912 0.241203,2.328563 0.238125,2.300789 0.238379,2.299697 0.237309,2.283622 0.221164,2.182786 0.199583,2.005586 0.20379,1.906983 0.200905,1.871344 0.208648,1.842548 0.209413,1.834414 0.212123,1.829207 0.210024,1.798725 0.201842,1.784208 0.198647,1.77314 0.177868,1.73455 0.168426,1.704692 0.165359,1.669234 0.16263,1.661672 0.166167,1.638227 0.167037,1.608512 0.163268,1.581346 0.172845,1.540414 0.169511,1.524189 0.159738,1.49785 0.144249,1.45342 0.141634,1.43709 0.141295,1.385985 0.141958,1.371145 0.145896,1.364913 0.145963,1.338607 0.14654,1.335183 0.147,1.331973 0.164153,1.315226 0.164945,1.300717 0.183006,1.273508 0.200394,1.254999 0.2026,1.252156 0.213865,1.238998 0.271373,1.188669 0.372763,1.136503 0.445887,1.121993" style="fill: white" /><polygon type="hole" points="4.028111,2.369218 3.963462,2.398695 3.940774,2.409547 3.881804,2.411808 3.65579,2.43308 3.507,2.458497 3.392875,2.486698 3.365826,2.496239 3.314653,2.54358 3.214995,2.652048 3.127986,2.746757 3.057723,2.849282 2.949609,2.964995 2.888354,3.038881 2.866682,3.097844 2.795942,3.25851 2.762256,3.330538 2.72304,3.431061 2.665362,3.533684 2.615259,3.695648 2.606495,3.74629 2.606432,3.857748 2.612567,3.89471 2.615758,3.92802 2.648491,3.992808 2.653045,4.001821 2.651298,4.025609 2.654083,4.044099 2.647412,4.056474 2.64775,4.063969 2.636881,4.090284 2.694376,4.157809 2.696748,4.160309 2.698224,4.161883 2.714378,4.195939 2.71464,4.196378 2.714595,4.196658 2.714322,4.196987 2.665256,4.324385 2.645187,4.367436 2.601309,4.461562 2.606446,4.491233 2.611141,4.51371 2.621241,4.52161 2.671097,4.584986 2.685093,4.615797 2.710394,4.69831 2.706683,4.710919 2.69144,4.735709 2.639536,4.811818 2.64753,4.846308 2.655717,4.863957 2.641448,4.915382 2.640744,4.923428 2.599404,5.023719 2.602848,5.134434 2.613803,5.198079 2.66513,5.402242 2.679621,5.428454 2.712469,5.502059 2.883715,5.851054 2.946137,5.941852 3.008137,6.013272 3.008761,6.014277 3.146694,6.186994 3.221777,6.271301 3.307351,6.36091 3.358311,6.403265 3.364217,6.405579 3.370208,6.408941 3.448618,6.452063 3.461409,6.455002 3.565864,6.466535 3.599437,6.474518 3.631322,6.479351 3.666589,6.479628 3.697463,6.486768 3.891555,6.501567 3.936802,6.503618 3.944712,6.503762 3.966818,6.513978 4.105739,6.575866 4.121491,6.486643 4.127172,6.477675 4.139679,6.472919 4.229919,6.464535 4.409362,6.494774 4.671254,6.503333 4.705264,6.503716 4.720904,6.510295 4.755377,6.513799 4.783279,6.509852 4.797228,6.507043 4.8095,6.502374 4.836108,6.500077 4.992361,6.496949 5.163707,6.492776 5.188612,6.491702 5.527394,6.465713 5.565601,6.46255 5.745292,6.422882 5.921523,6.334554 5.973152,6.314485 6.226776,6.158118 6.335618,6.114812 6.437783,6.065424 6.606267,5.979052 6.799096,5.875902 6.835085,5.850358 6.864143,5.838393 6.900129,5.820232 7.157413,5.626141 7.176272,5.610882 7.278017,5.522116 7.288671,5.488313 7.355096,5.343629 7.40344,5.235311 7.439209,5.177174 7.480962,5.110276 7.487743,5.085723 7.50826,4.977442 7.512204,4.958395 7.54615,4.835336 7.585219,4.692543 7.58987,4.668152 7.605175,4.565246 7.613361,4.533539 7.590004,4.291017 7.588365,4.253177 7.574394,4.202972 7.563119,4.130681 7.54476,4.086345 7.540849,4.059972 7.4999,3.908933 7.481293,3.833357 7.466831,3.79882 7.40347,3.67539 7.357215,3.573826 7.270201,3.390948 7.119679,3.267989 7.067928,3.220076 6.932217,3.122316 6.814092,3.03608 6.767036,3.012513 6.468807,2.857924 6.366542,2.812765 6.278736,2.775416 6.142323,2.713804 6.025998,2.642067 5.685261,2.464616 5.638912,2.453201 5.632209,2.452288 5.351957,2.43189 5.22039,2.423003 5.152222,2.418818 5.115103,2.412419 5.101665,2.416242 5.020174,2.413508 4.947175,2.413402 4.899798,2.412738 4.849677,2.409333 4.778481,2.407201 4.758288,2.396973 4.724315,2.400194 4.701008,2.408959 4.657419,2.409439 4.175138,2.441213 4.165731,2.441502 4.145599,2.443097 4.134833,2.444739 4.133429,2.444369 4.131758,2.44185 4.116116,2.415456 4.125462,2.398777 4.073507,2.345385" style="fill: black" /><polygon type="contour" points="5.72455,2.889804 5.783723,2.913607 5.813244,2.928337 5.850442,2.958433 5.857424,2.960945 5.864387,2.971279 5.913924,3.050191 5.926008,3.110456 5.926786,3.128489 5.933186,3.213441 5.930373,3.222607 5.934,3.241761 5.943438,3.276822 5.942953,3.30432 5.955995,3.467182 5.958586,3.500768 5.958425,3.511166 5.953184,3.54317 5.953787,3.552898 5.956009,3.567226 5.987182,3.721694 5.994859,3.767388 6.025054,3.869478 6.04202,3.91622 6.059592,3.959348 6.12413,4.101929 6.218723,4.260164 6.228355,4.275774 6.258633,4.323878 6.264732,4.346382 6.274821,4.383475 6.295492,4.427842 6.297127,4.471321 6.296146,4.476211 6.28109,4.502571 6.273085,4.553427 6.249702,4.594096 6.222168,4.650342 6.220873,4.654198 6.051511,4.943537 6.04852,4.955005 5.981181,5.219206 5.968887,5.271601 5.952182,5.366743 5.950785,5.379224 5.949919,5.385105 5.950239,5.39462 5.95797,5.567393 5.948694,5.673148 5.945178,5.694831 5.9341,5.725174 5.918306,5.798069 5.921187,5.818145 5.899736,5.870592 5.897897,5.876564 5.886011,5.888301 5.858616,5.918388 5.856739,5.928892 5.831873,5.97087 5.827854,5.976053 5.758077,6.015822 5.753464,6.017784 5.745956,6.018392 5.738512,6.020393 5.623628,6.026958 5.601261,6.025829 5.575791,6.019594 5.483414,5.99154 5.415105,5.971716 5.39583,5.957031 5.382898,5.945937 5.322842,5.920836 5.305273,5.9102 5.287656,5.894475 5.252346,5.863604 5.197071,5.807153 5.177156,5.783149 5.160465,5.758091 5.142184,5.721393 5.136687,5.70238 5.127995,5.691056 5.123603,5.686426 5.121517,5.67871 5.084208,5.556465 5.058377,5.446782 5.056106,5.421618 5.055711,5.387551 5.041975,5.187847 5.042064,5.173243 5.046785,5.141639 5.069926,5.001018 5.112624,4.868519 5.130132,4.8192 5.14714,4.781863 5.199701,4.686495 5.27066,4.574674 5.277898,4.533288 5.278448,4.401083 5.285107,4.373816 5.237848,4.283309 5.219079,4.256965 5.207321,4.243649 5.197251,4.225994 5.183959,4.20058 5.158085,4.155537 5.127516,4.070383 5.08508,3.960143 5.072621,3.907893 5.053843,3.798628 5.045799,3.724039 5.048167,3.546889 5.04997,3.528026 5.055191,3.501419 5.085138,3.338474 5.088895,3.329231 5.1185,3.228963 5.118272,3.216674 5.139434,3.181519 5.176634,3.125498 5.202484,3.099244 5.242763,3.055907 5.253645,3.051076 5.262144,3.049614 5.286135,3.028354 5.309512,3.003235 5.319235,2.998932 5.321797,2.99553 5.392401,2.950561 5.404687,2.94363 5.428903,2.944362 5.462277,2.925512 5.491894,2.913321 5.592462,2.892954 5.645364,2.889918 5.700536,2.888058" style="fill: white" />
</svg>
