<svg width="13.600213" height="8.910821">
<polygon type="contour" points="4.550666,0.598595 4.590618,0.599864 4.633405,0.603901 4.657127,0.611352 4.680055,0.627696 4.733864,0.682861 4.764615,0.705685 4.799222,0.734583 4.841302,0.740559 4.861279,0.734207 4.900798,0.727985 4.911884,0.704599 4.929981,0.674109 4.932369,0.671691 4.952298,0.663098 4.960045,0.66287 5.025788,0.664416 5.106323,0.697543 5.158471,0.713529 5.381125,0.784959 5.421804,0.801335 5.447811,0.806738 5.540837,0.820782 5.587363,0.821209 5.600446,0.823719 5.617,0.829999 5.63237,0.843316 5.648366,0.843535 5.657289,0.845147 5.848948,0.872803 6.068008,0.919411 6.081099,0.92329 6.116644,0.942136 6.168312,0.960556 6.316064,0.997619 6.31679,0.998052 6.324929,1.005763 6.337465,1.016476 6.43128,1.033631 6.50152,1.052952 6.518821,1.06092 6.595838,1.100346 6.715204,1.147033 6.729979,1.158611 6.824598,1.24718 6.882731,1.312985 6.931585,1.364214 6.987539,1.461757 7.013883,1.507166 7.111957,1.64445 7.221297,1.840754 7.314904,1.962694 7.402366,2.066363 7.440498,2.134067 7.520411,2.217115 7.577131,2.286474 7.608988,2.321362 7.64189,2.362698 7.721247,2.421951 7.754678,2.433843 7.800795,2.464689 7.810909,2.471816 7.812855,2.47317 7.824919,2.483639 7.828487,2.489313 7.885699,2.535805 7.992732,2.641462 8.02296,2.698823 8.064482,2.729647 8.164648,2.804687 8.178963,2.818415 8.214377,2.843261 8.276855,2.890385 8.329236,2.938177 8.330136,2.938405 8.340343,2.957075 8.367971,2.967062 8.385095,2.971666 8.407668,2.985252 8.429777,2.992981 8.464805,3.025657 8.52066,3.076803 8.550028,3.107417 8.55431,3.110637 8.579071,3.143934 8.612408,3.179562 8.668668,3.215564 8.697905,3.234656 8.708007,3.241352 8.732005,3.262402 8.757356,3.289583 8.762887,3.291307 8.762376,3.307591 8.775019,3.327122 8.778481,3.344542 8.784971,3.348183 8.787972,3.364852 8.803921,3.389307 8.815115,3.397761 8.822867,3.409177 8.832226,3.422742 8.839046,3.42766 8.853096,3.451393 8.917797,3.522551 8.958122,3.567912 8.972996,3.591298 8.981921,3.603253 9.018949,3.659194 9.024283,3.667546 9.036522,3.686455 9.047634,3.705603 9.072216,3.733432 9.076247,3.739379 9.085142,3.746658 9.108775,3.762798 9.129987,3.770024 9.160518,3.799382 9.169544,3.806417 9.220561,3.851137 9.225495,3.854782 9.227285,3.856788 9.227935,3.857818 9.239291,3.883281 9.270709,3.914156 9.284214,3.927808 9.309053,3.95389 9.319316,3.957043 9.349939,3.974895 9.389837,4.021868 9.401406,4.064167 9.409795,4.071092 9.424888,4.12937 9.433792,4.161811 9.438896,4.180143 9.450739,4.211804 9.456758,4.221246 9.458175,4.225791 9.476827,4.298201 9.481054,4.305855 9.481599,4.309615 9.480444,4.320432 9.47619,4.345136 9.466588,4.365011 9.467664,4.380758 9.465562,4.403113 9.469095,4.431171 9.463762,4.447201 9.463757,4.463898 9.469056,4.478892 9.465029,4.507774 9.467574,4.527723 9.466506,4.544998 9.479802,4.588123 9.480734,4.600777 9.480385,4.60597 9.476247,4.613354 9.458916,4.683123 9.456481,4.690744 9.441896,4.720447 9.427117,4.788753 9.40404,4.844845 9.396929,4.871979 9.370867,4.908187 9.332968,4.944706 9.333059,4.944924 9.322234,4.948069 9.310554,4.963874 9.280537,4.994119 9.254621,5.007076 9.215179,5.068039 9.208092,5.075641 9.159619,5.111371 9.15446,5.115507 9.127998,5.141318 9.091068,5.160278 9.063855,5.185192 9.034714,5.222712 9.018645,5.248398 8.995809,5.282804 8.981063,5.303415 8.933506,5.359368 8.908418,5.391608 8.858478,5.4499 8.824254,5.504536 8.799024,5.528866 8.791687,5.560188 8.77292,5.570565 8.766801,5.615312 8.765258,5.617995 8.763438,5.618711 8.742929,5.646607 8.619793,5.730025 8.611895,5.735174 8.593641,5.745207 8.582136,5.761455 8.55409,5.80135 8.535172,5.819336 8.51996,5.835578 8.505572,5.85074 8.42694,5.918185 8.407795,5.925874 8.385134,5.939933 8.362761,5.945941 8.342035,5.953515 8.326451,5.973443 8.318394,5.983881 8.29711,6.004803 8.277401,6.020789 8.252925,6.037829 8.216929,6.065222 8.141462,6.122824 8.06242,6.186434 8.024587,6.234037 7.994045,6.261593 7.952914,6.31912 7.930798,6.342675 7.914213,6.355046 7.901072,6.371395 7.823167,6.431823 7.76508,6.470677 7.716512,6.49324 7.669113,6.519673 7.658467,6.539539 7.54609,6.648295 7.531304,6.669375 7.479954,6.717275 7.446919,6.782135 7.400807,6.846539 7.264535,7.011562 7.212123,7.079984 7.106802,7.264928 7.045702,7.359338 7.022729,7.390254 6.942758,7.523075 6.91137,7.573293 6.844306,7.650517 6.793195,7.695524 6.739584,7.735167 6.669082,7.780356 6.58727,7.813781 6.550641,7.835555 6.493985,7.863026 6.434066,7.877585 6.335926,7.895102 6.320257,7.909188 6.314525,7.91476 6.313553,7.915328 6.235664,7.92618 6.057938,7.997656 6.033554,8.004848 6.008117,8.011973 5.862076,8.034935 5.792302,8.041826 5.755115,8.048952 5.630971,8.069101 5.611636,8.083246 5.595929,8.089297 5.424986,8.114663 5.247849,8.164114 5.216363,8.173236 5.147915,8.208384 5.118576,8.214018 5.086465,8.225266 5.004242,8.241949 4.96804,8.246223 4.949979,8.245704 4.930822,8.239412 4.92948,8.237446 4.914983,8.21245 4.900637,8.184224 4.863246,8.177216 4.844161,8.171682 4.785971,8.183425 4.720108,8.237622 4.697308,8.261961 4.678432,8.270738 4.647156,8.304224 4.623844,8.30673 4.591717,8.305835 4.572305,8.31636 4.531237,8.32038 4.505636,8.315554 4.492353,8.313969 4.48131,8.307029 4.43191,8.294639 4.392484,8.28942 4.379613,8.283833 4.325483,8.281237 4.25975,8.289106 4.18777,8.264371 4.097912,8.225999 4.064901,8.214652 4.059307,8.210425 4.055962,8.201355 3.875442,8.122924 3.840898,8.117968 3.787662,8.091027 3.681738,8.016439 3.637807,7.985961 3.566422,7.953212 3.542854,7.945024 3.490556,7.916672 3.436504,7.866602 3.396911,7.846521 3.177801,7.760664 3.177246,7.760356 3.055703,7.68026 2.96395,7.655525 2.926736,7.653332 2.851836,7.64741 2.752123,7.639814 2.628005,7.636694 2.527408,7.617031 2.460235,7.614688 2.382336,7.627647 2.249637,7.637694 2.241759,7.636654 2.218967,7.637605 2.014854,7.641894 1.968586,7.634862 1.932555,7.646236 1.882071,7.642853 1.8181,7.631321 1.780996,7.623419 1.769887,7.622121 1.752081,7.618035 1.736431,7.610994 1.684651,7.5905 1.668049,7.581892 1.649247,7.572811 1.640936,7.565768 1.627859,7.556596 1.565886,7.5232 1.562117,7.517367 1.550831,7.487404 1.448348,7.449799 1.447278,7.449622 1.446553,7.449222 1.366878,7.429269 1.356894,7.426711 1.274572,7.425661 1.237979,7.422812 1.175546,7.416627 1.168269,7.416459 1.13606,7.420431 1.135663,7.420593 1.135493,7.420577 0.980515,7.396509 0.968819,7.391622 0.93318,7.3644 0.917061,7.356905 0.879877,7.346527 0.834941,7.359683 0.791389,7.362743 0.761924,7.351262 0.652728,7.300067 0.622673,7.280394 0.580099,7.233468 0.564359,7.208477 0.545675,7.1795 0.515739,7.143114 0.50345,7.126713 0.492425,7.118205 0.47283,7.086084 0.469612,7.081811 0.469405,7.081255 0.45918,7.031097 0.455355,6.9182 0.48133,6.728569 0.487851,6.685072 0.476595,6.607698 0.476462,6.607447 0.476811,6.604022 0.477152,6.600179 0.503647,6.419193 0.499346,6.408189 0.501122,6.406482 0.494062,6.377412 0.515533,6.262557 0.488236,6.145439 0.480656,6.108234 0.463336,6.010283 0.46133,5.961342 0.442459,5.758896 0.439244,5.71723 0.452809,5.660409 0.455737,5.633901 0.435097,5.506798 0.427627,5.487996 0.414033,5.472937 0.395989,5.309755 0.392085,5.240801 0.387661,5.200565 0.386399,5.181583 0.389871,5.132784 0.372976,5.110819 0.367958,5.103887 0.350781,5.021472 0.343157,4.997542 0.34021,4.992569 0.336094,4.97448 0.326108,4.868365 0.314211,4.723804 0.312185,4.671219 0.315392,4.664456 0.356157,4.575162 0.355719,4.430902 0.356047,4.340016 0.325298,4.274726 0.310299,4.250928 0.308135,4.241157 0.336951,3.936037 0.338787,3.92867 0.340705,3.918076 0.343266,3.914678 0.351832,3.90415 0.360472,3.842436 0.362106,3.826177 0.379202,3.792945 0.388827,3.778881 0.391329,3.731236 0.3866,3.698153 0.387345,3.653852 0.394409,3.578383 0.404348,3.478281 0.425661,3.354107 0.451314,3.275377 0.4513,3.239439 0.447712,3.204892 0.442074,3.053851 0.470788,2.913836 0.472675,2.893246 0.481027,2.8014 0.502029,2.660101 0.513081,2.592474 0.503203,2.512546 0.50579,2.502054 0.479417,2.401143 0.472236,2.372487 0.471697,2.363609 0.471299,2.359015 0.471494,2.350898 0.487015,2.246558 0.483048,2.19774 0.481768,2.189809 0.456859,2.000236 0.461027,1.964984 0.464596,1.863877 0.479668,1.804123 0.514778,1.776281 0.526966,1.752275 0.635275,1.630722 0.663267,1.609849 0.743992,1.573219 0.776983,1.556703 0.817986,1.55279 0.859279,1.560409 0.879187,1.567894 0.905855,1.556722 0.92211,1.547548 0.953356,1.528736 0.986578,1.508977 1.111078,1.491502 1.116145,1.490174 1.167007,1.495335 1.168785,1.49495 1.17343,1.495159 1.231803,1.488844 1.276773,1.485031 1.316056,1.483542 1.321285,1.483312 1.335835,1.480917 1.401208,1.470905 1.436486,1.465319 1.483943,1.449968 1.501542,1.443193 1.55019,1.424097 1.56243,1.394264 1.563079,1.393475 1.567299,1.39115 1.596327,1.37078 1.799281,1.286524 1.859198,1.272754 1.929241,1.268305 1.994531,1.291013 2.121586,1.282298 2.214737,1.287582 2.234788,1.285994 2.279412,1.271061 2.385434,1.281144 2.495665,1.286952 2.559043,1.293998 2.576027,1.284587 2.597953,1.279673 2.692801,1.271414 2.842603,1.268062 3.016029,1.230947 3.019995,1.230322 3.025201,1.228806 3.084335,1.217003 3.160638,1.163818 3.186663,1.148287 3.194917,1.145292 3.409838,1.060263 3.476946,1.012376 3.51416,0.977384 3.54848,0.961824 3.630402,0.917425 3.674372,0.897036 3.766419,0.838956 3.901607,0.780898 3.928231,0.76752 3.933237,0.767172 4.055315,0.708869 4.082495,0.68078 4.090248,0.67555 4.203552,0.642049 4.257194,0.627708 4.339487,0.630016 4.367611,0.62834 4.393555,0.622191 4.416875,0.622142 4.513598,0.596562" style="fill: white" /><polygon type="hole" points="4.530684,2.620279 4.413283,2.646371 4.388054,2.652622 4.233115,2.733434 4.155049,2.786678 4.048883,2.874406 3.932208,2.976677 3.88081,3.038169 3.797853,3.158043 3.735725,3.229893 3.722105,3.256382 3.621376,3.410067 3.588219,3.536302 3.550354,3.608921 3.401134,3.885968 3.37123,3.945812 3.350725,4.010537 3.321514,4.23126 3.308922,4.294172 3.313721,4.329325 3.307425,4.490445 3.316564,4.581281 3.323873,4.759308 3.339501,4.851302 3.382498,5.000303 3.414242,5.078441 3.426631,5.100696 3.454206,5.142181 3.568974,5.330843 3.632222,5.511963 3.646135,5.550251 3.725604,5.663787 3.775148,5.724998 3.872137,5.87011 3.939726,5.950612 3.99549,6.004169 4.116115,6.09247 4.230402,6.174468 4.380753,6.254764 4.402979,6.264834 4.527155,6.298698 4.577248,6.303974 4.608703,6.298458 4.738423,6.274909 4.863096,6.242339 4.917095,6.21268 5.016938,6.168255 5.249567,6.148693 5.314146,6.128063 5.456394,6.087994 5.475334,6.075884 5.67286,5.998936 5.734689,6.001499 5.754996,6.001269 5.786279,5.979736 5.886459,5.900281 5.98671,5.878112 5.999626,5.870788 6.043105,5.835837 6.085166,5.828472 6.130171,5.814981 6.187557,5.785624 6.233041,5.742901 6.266216,5.742285 6.335698,5.675787 6.433575,5.580066 6.485504,5.537131 6.515655,5.518801 6.574701,5.432214 6.635382,5.3335 6.680838,5.243846 6.730403,5.14802 6.73396,5.116328 6.758549,5.044322 6.771469,4.944876 6.777524,4.907941 6.798795,4.810046 6.817007,4.722925 6.791269,4.682047 6.810777,4.634046 6.801843,4.572643 6.801121,4.549412 6.807301,4.518509 6.808752,4.484244 6.801075,4.392686 6.820934,4.247799 6.828332,4.162177 6.805684,4.050274 6.763162,3.931423 6.739905,3.798368 6.735836,3.774647 6.725963,3.751764 6.696482,3.697 6.635168,3.57793 6.589512,3.51323 6.509442,3.399611 6.474432,3.356214 6.442044,3.343763 6.375543,3.282196 6.252098,3.174011 6.160497,3.111622 6.150978,3.10903 6.114203,3.092748 6.052833,3.081446 5.998402,3.042787 5.986532,3.032397 5.892806,3.013607 5.790022,2.934018 5.760935,2.911895 5.734479,2.910569 5.665214,2.911458 5.483695,2.839229 5.458679,2.824615 5.370103,2.800826 5.217283,2.75282 5.034792,2.7448 4.898546,2.687859 4.812955,2.655523 4.723712,2.635459 4.647216,2.615674" style="fill: black" /><polygon type="contour" points="6.327328,3.625395 6.353407,3.63062 6.370404,3.639938 6.380587,3.658515 6.39657,3.694808 6.414057,3.760946 6.41758,3.819445 6.412589,3.851633 6.42277,4.012948 6.426132,4.159302 6.438892,4.257729 6.439041,4.259754 6.434776,4.403731 6.438203,4.417188 6.440862,4.487267 6.441145,4.562189 6.438487,4.62483 6.430154,4.692971 6.420273,4.764703 6.419983,4.81176 6.419407,4.869353 6.417068,4.950608 6.411417,5.020073 6.403178,5.061708 6.418289,5.176464 6.417621,5.17814 6.357781,5.288886 6.356844,5.289895 6.354592,5.291033 6.333073,5.289029 6.258138,5.238748 6.228294,5.21907 6.2216,5.210032 6.215731,5.198188 6.212376,5.187443 6.210637,5.17991 6.187366,5.111815 6.186302,5.096564 6.175921,5.042097 6.173868,5.038485 6.166341,5.01687 6.164279,4.974968 6.165428,4.770044 6.166974,4.750492 6.168396,4.743913 6.172662,4.645295 6.185659,4.587866 6.186559,4.574902 6.183767,4.50916 6.184267,4.409144 6.185755,4.37349 6.192735,4.347465 6.179128,4.321142 6.17457,4.306857 6.170432,4.243427 6.165908,4.189714 6.164093,4.13476 6.159885,4.109506 6.165929,4.014904 6.167998,3.973796 6.1635,3.915699 6.162735,3.901994 6.178901,3.826349 6.205401,3.756336 6.212394,3.736942 6.236203,3.691827 6.292891,3.645745 6.316714,3.623344" style="fill: white" />
</svg>
