<svg width="13.600213" height="8.910821">
<polygon type="contour" points="4.51054,0.602452 4.607111,0.611566 4.660647,0.628379 4.70903,0.662869 4.716829,0.670968 4.829068,0.786133 4.907365,0.762877 4.932298,0.738013 4.952778,0.715724 4.955668,0.702203 4.958718,0.696221 4.972719,0.685122 4.991,0.683734 5.00326,0.683374 5.022596,0.683828 5.046284,0.693571 5.226495,0.748817 5.321149,0.779183 5.373065,0.800082 5.401362,0.80837 5.473884,0.814343 5.485416,0.816003 5.489991,0.815235 5.521167,0.819319 5.598647,0.833558 5.747247,0.860884 5.767162,0.861167 5.801768,0.873281 6.008534,0.926082 6.011119,0.927802 6.058622,0.940871 6.100868,0.959059 6.108395,0.959052 6.120677,0.968064 6.15094,0.971735 6.184688,0.974796 6.274582,0.997841 6.314956,1.010558 6.324764,1.01317 6.3313,1.014118 6.347183,1.019284 6.370977,1.02584 6.496365,1.060333 6.541989,1.081343 6.552843,1.086899 6.572949,1.094764 6.658639,1.127431 6.723751,1.163457 6.787666,1.223284 6.822124,1.262289 6.930014,1.375423 6.983856,1.469285 7.007827,1.500899 7.085269,1.611994 7.120582,1.661425 7.275112,1.938864 7.302024,1.973921 7.429766,2.125338 7.437904,2.134916 7.443274,2.141088 7.448446,2.147688 7.582243,2.3113 7.614763,2.346913 7.653879,2.391861 7.660685,2.404218 7.66524,2.413105 7.670159,2.426341 7.688144,2.43875 7.702526,2.453479 7.743146,2.454628 7.758049,2.466327 7.76453,2.470894 7.770056,2.474742 7.80433,2.504482 7.814465,2.5206 7.931702,2.615871 7.943706,2.624198 7.948705,2.628608 7.95118,2.632266 7.954097,2.634442 7.958676,2.642185 7.969564,2.652538 7.998787,2.694301 8.028008,2.741518 8.036831,2.751517 8.054973,2.778274 8.072331,2.786042 8.086497,2.795417 8.106432,2.802998 8.12633,2.812446 8.138187,2.827845 8.148717,2.83088 8.154266,2.836719 8.176968,2.862106 8.200391,2.880452 8.211302,2.893332 8.297167,2.944468 8.325135,2.960265 8.326016,2.961096 8.327226,2.961975 8.33194,2.966298 8.407886,3.048629 8.431749,3.054852 8.481016,3.060587 8.487852,3.061113 8.497412,3.065872 8.521603,3.085267 8.570434,3.122212 8.587316,3.130472 8.604769,3.148355 8.688324,3.23649 8.730735,3.272713 8.780114,3.29124 8.798145,3.301178 8.838376,3.328549 8.845244,3.341254 8.86634,3.357299 8.866795,3.358895 8.877828,3.373764 8.881533,3.394276 8.889681,3.405127 8.897208,3.42464 8.908851,3.457504 8.924801,3.504845 8.930821,3.51207 8.934488,3.523666 8.948025,3.545333 8.951186,3.548826 8.975582,3.580841 9.005057,3.61312 9.006356,3.615083 9.011887,3.623743 9.029154,3.65274 9.032554,3.655903 9.032612,3.656655 9.086289,3.738995 9.100084,3.760308 9.121671,3.793405 9.13041,3.806986 9.133256,3.814942 9.170833,3.857878 9.176607,3.867034 9.193702,3.877837 9.216007,3.912186 9.221681,3.925371 9.235394,3.942484 9.260804,3.975551 9.282618,3.975243 9.287821,3.982142 9.336162,4.038823 9.37946,4.09896 9.380613,4.116778 9.405603,4.233313 9.395299,4.304948 9.394875,4.314317 9.39285,4.32455 9.39317,4.327565 9.385123,4.353311 9.378875,4.43862 9.379819,4.451013 9.377658,4.457486 9.381831,4.487496 9.383325,4.553747 9.393309,4.584663 9.39326,4.587102 9.394894,4.596358 9.394465,4.59826 9.395993,4.609592 9.405752,4.678694 9.40247,4.699565 9.378623,4.742704 9.365461,4.810851 9.353774,4.833782 9.267919,4.919895 9.256967,4.941062 9.228129,4.970358 9.222406,4.976437 9.192208,5.034 9.158275,5.064503 9.148087,5.08024 9.08799,5.170083 9.073919,5.196338 9.043507,5.235493 9.036684,5.246399 9.02699,5.261005 8.965696,5.346677 8.958183,5.355515 8.954222,5.360606 8.946334,5.369813 8.931075,5.394173 8.911476,5.428344 8.907537,5.439389 8.905659,5.444748 8.895104,5.491319 8.882109,5.509748 8.873458,5.542811 8.854541,5.568866 8.844153,5.577636 8.82043,5.59565 8.812893,5.599954 8.69664,5.663851 8.631039,5.722883 8.622555,5.732399 8.589178,5.779539 8.570711,5.789167 8.554691,5.799351 8.53735,5.809246 8.498143,5.843278 8.465025,5.857955 8.408656,5.862214 8.330049,5.947754 8.328526,5.949372 8.327433,5.950111 8.32178,5.954885 8.211683,6.031535 8.202468,6.038547 8.152861,6.07641 8.144968,6.083835 8.134415,6.092474 8.123395,6.102509 8.07096,6.121895 8.059489,6.131607 8.051199,6.141366 8.006955,6.194916 7.957577,6.263977 7.89819,6.327229 7.853646,6.360453 7.818361,6.404356 7.801379,6.417528 7.768748,6.439354 7.745643,6.45345 7.691667,6.46742 7.673072,6.483076 7.653987,6.51924 7.628684,6.54947 7.526592,6.64932 7.443071,6.769553 7.438327,6.775422 7.43656,6.777613 7.43457,6.780098 7.272835,6.980385 7.236301,7.031561 7.225351,7.050257 7.113544,7.246593 7.02681,7.380609 7.023606,7.38492 6.981162,7.455415 6.933947,7.534709 6.911944,7.559793 6.821334,7.66413 6.791495,7.690405 6.710215,7.750507 6.670993,7.775647 6.556581,7.822391 6.505355,7.852843 6.497987,7.856416 6.355609,7.891008 6.333168,7.896168 6.323418,7.89879 6.321632,7.899236 6.31817,7.899811 6.238066,7.919347 6.197705,7.924971 6.071187,7.975852 6.014594,7.997449 5.989523,8.002529 5.820991,8.030877 5.816811,8.03242 5.815625,8.032413 5.575363,8.084242 5.573522,8.08496 5.504462,8.088195 5.485908,8.09297 5.476326,8.096662 5.405115,8.107228 5.331326,8.127827 5.225231,8.158562 5.215727,8.161421 5.210909,8.162523 5.19687,8.167245 5.068427,8.21224 5.039164,8.218178 5.002103,8.222553 4.969247,8.220302 4.963582,8.216742 4.957111,8.207266 4.943683,8.184111 4.904632,8.147186 4.856963,8.130958 4.852603,8.131705 4.832481,8.126315 4.79025,8.162105 4.773023,8.184792 4.690557,8.264545 4.646193,8.292987 4.637365,8.297475 4.63422,8.299181 4.502763,8.312047 4.480681,8.307884 4.417333,8.298191 4.383772,8.290505 4.326907,8.297854 4.264748,8.295104 4.181312,8.259475 4.088233,8.227481 4.07246,8.215565 4.063029,8.189985 4.020243,8.171397 3.955866,8.16216 3.874293,8.120878 3.855712,8.110899 3.847456,8.104156 3.840968,8.098882 3.800844,8.072652 3.659256,7.972951 3.648431,7.96544 3.607319,7.94658 3.587957,7.914254 3.511199,7.855547 3.497178,7.841868 3.489356,7.834692 3.466265,7.821401 3.446994,7.8167 3.431214,7.809673 3.338278,7.738673 3.294125,7.712325 3.220471,7.698436 3.151316,7.6852 3.140087,7.683049 3.132758,7.680668 2.967543,7.640699 2.88376,7.618113 2.876586,7.617691 2.843428,7.6077 2.758678,7.616519 2.636712,7.613454 2.599958,7.60627 2.320782,7.596527 2.312686,7.597139 2.14226,7.633646 2.100234,7.634529 2.076156,7.630869 1.956762,7.599958 1.916649,7.591497 1.889944,7.60722 1.88135,7.61763 1.848725,7.629482 1.84235,7.632996 1.800334,7.626287 1.680607,7.598809 1.643543,7.582137 1.595782,7.571773 1.59312,7.569853 1.560821,7.537966 1.536213,7.52722 1.438569,7.476868 1.427196,7.475183 1.414604,7.448735 1.389221,7.423187 1.341193,7.43051 1.340419,7.430746 1.339951,7.430664 1.189928,7.427346 1.174567,7.422052 1.103275,7.426938 0.985187,7.425622 0.977979,7.424934 0.974799,7.42444 0.945266,7.4121 0.924655,7.396358 0.831154,7.366024 0.762657,7.368016 0.70634,7.347788 0.625032,7.307603 0.590971,7.286082 0.566758,7.267092 0.54438,7.23986 0.474349,7.132635 0.470734,7.12271 0.448239,7.059914 0.436332,7.008196 0.433211,6.985706 0.426498,6.946679 0.423349,6.931231 0.422199,6.897348 0.43695,6.789667 0.460707,6.725367 0.460693,6.614665 0.45746,6.581206 0.468706,6.50975 0.463171,6.494143 0.462944,6.461511 0.47673,6.291908 0.490393,6.218819 0.47582,6.156293 0.467723,6.116554 0.466967,6.07922 0.439908,5.987219 0.423474,5.779866 0.426432,5.7315 0.424899,5.695187 0.435071,5.652579 0.440163,5.606465 0.407921,5.407906 0.407417,5.401871 0.407422,5.395682 0.406243,5.391829 0.405253,5.384335 0.380075,5.155363 0.377684,5.119408 0.373828,5.104162 0.373413,5.088778 0.35626,5.072752 0.350104,5.061529 0.33769,5.012627 0.32893,4.906174 0.317887,4.619529 0.335373,4.582666 0.343793,4.564223 0.343131,4.346329 0.3127,4.294212 0.310145,4.282096 0.31553,4.167043 0.3449,3.858325 0.351237,3.850272 0.354643,3.844919 0.372132,3.823308 0.376154,3.804731 0.375798,3.739822 0.376361,3.732443 0.376589,3.719508 0.380892,3.686945 0.386616,3.654543 0.401723,3.513127 0.405366,3.505954 0.405525,3.462632 0.408428,3.441161 0.425405,3.342253 0.437883,3.303957 0.437877,3.286477 0.432144,3.23128 0.425697,3.058571 0.425706,3.025794 0.427661,2.99816 0.463134,2.821813 0.4673,2.816343 0.468048,2.794955 0.488901,2.667348 0.460959,2.441243 0.468278,2.411561 0.454129,2.35742 0.460716,2.30449 0.460727,2.181506 0.453657,2.161414 0.437388,2.125452 0.424562,2.027839 0.4317,1.967462 0.433353,1.920645 0.441599,1.887947 0.467213,1.789936 0.484039,1.774318 0.545052,1.664376 0.558796,1.650328 0.716786,1.561896 0.747155,1.551213 0.769821,1.540928 0.775587,1.538041 0.782756,1.537357 0.812357,1.542818 0.831188,1.545703 0.85386,1.548236 0.890968,1.527221 0.903881,1.523613 0.951743,1.495147 0.983629,1.490672 1.047906,1.48381 1.104638,1.484839 1.15379,1.486624 1.169607,1.491618 1.213815,1.48084 1.220589,1.481109 1.268819,1.476188 1.350033,1.487619 1.403818,1.485348 1.418495,1.449162 1.422427,1.439281 1.423701,1.437473 1.430882,1.435619 1.52526,1.397683 1.551189,1.389112 1.556555,1.377481 1.779915,1.292928 1.802963,1.284821 1.84511,1.278483 1.8836,1.30314 1.888555,1.304804 1.891846,1.307527 1.914818,1.320076 2.027974,1.286462 2.121376,1.280055 2.202505,1.284656 2.235183,1.293206 2.243809,1.303026 2.384673,1.310447 2.447344,1.317415 2.520878,1.31931 2.627525,1.302387 2.677823,1.304341 2.761028,1.299709 2.818294,1.299129 2.858134,1.303634 2.875587,1.291464 2.92675,1.283398 3.000987,1.261765 3.263883,1.206835 3.291595,1.199548 3.372277,1.154631 3.468129,1.089433 3.488568,1.077447 3.535459,1.032807 3.536057,1.032273 3.53738,1.031144 3.542134,1.030161 3.570737,1.012763 3.590535,0.997257 3.609381,0.97334 3.619315,0.961206 3.682251,0.92995 3.778631,0.866136 3.820455,0.839463 3.830007,0.825547 3.848239,0.814222 3.894393,0.787636 3.990519,0.739332 4.010012,0.737978 4.058507,0.726847 4.069254,0.701226 4.071887,0.698503 4.115149,0.671632 4.256212,0.618098 4.263316,0.615734 4.307069,0.610417 4.333273,0.609461 4.400247,0.611502 4.408669,0.608489 4.438484,0.604645 4.480004,0.601482" style="fill: white" /><polygon type="hole" points="4.408192,2.633239 4.365551,2.634942 4.336751,2.643182 4.176128,2.72696 4.126189,2.76102 3.981493,2.880587 3.891127,2.959798 3.80114,3.067456 3.692732,3.224109 3.684963,3.23797 3.681221,3.247198 3.654107,3.287612 3.535779,3.46815 3.514051,3.550873 3.455656,3.662864 3.418484,3.731878 3.349608,3.86971 3.302383,4.018787 3.283241,4.163431 3.268414,4.237514 3.262976,4.297173 3.269066,4.341798 3.257613,4.634856 3.274236,4.800074 3.274474,4.805832 3.342101,5.040195 3.369807,5.108391 3.451609,5.263202 3.51796,5.372272 3.538541,5.431212 3.560954,5.492893 3.662436,5.637878 3.682955,5.667612 3.685601,5.674982 3.695072,5.691205 3.800874,5.849504 3.895663,5.962403 3.973866,6.037511 4.026662,6.076159 4.174234,6.182038 4.334248,6.267494 4.348897,6.271749 4.364343,6.276737 4.381227,6.277231 4.525984,6.292479 4.624764,6.275158 4.635268,6.277424 4.705949,6.254113 4.851026,6.216212 4.887984,6.195913 4.983813,6.185794 5.185562,6.192431 5.230882,6.189426 5.352463,6.156016 5.457168,6.126521 5.561209,6.059996 5.698024,6.006698 5.760114,6.009271 5.786834,6.004569 5.869461,5.939477 5.931367,5.890379 5.970917,5.881632 5.996941,5.876029 6.076608,5.830851 6.098904,5.81293 6.156257,5.802886 6.196301,5.765273 6.273477,5.763841 6.43512,5.609141 6.437795,5.606525 6.546989,5.516239 6.67055,5.315234 6.736048,5.186051 6.752991,5.150616 6.755383,5.14356 6.791635,5.044146 6.808905,4.902693 6.810208,4.899334 6.812643,4.889526 6.843634,4.741269 6.833431,4.725063 6.841164,4.706034 6.837623,4.681691 6.834353,4.576618 6.85371,4.479826 6.856491,4.457298 6.853852,4.427444 6.842218,4.301269 6.855582,4.14356 6.854691,4.12176 6.844923,4.093366 6.797991,3.962188 6.781406,3.867301 6.766359,3.8018 6.746945,3.755234 6.713328,3.679202 6.670623,3.596269 6.578946,3.466353 6.53624,3.405753 6.47779,3.3333 6.470411,3.330464 6.455263,3.316439 6.264437,3.149203 6.188808,3.120886 6.129738,3.104436 6.077434,3.089185 6.067924,3.084349 6.058609,3.076116 6.016081,3.038886 5.986107,3.029103 5.933956,3.018648 5.846355,2.950816 5.78807,2.907428 5.711889,2.900401 5.674403,2.900883 5.61331,2.876572 5.461928,2.78814 5.317593,2.749375 5.249771,2.730046 5.20612,2.717569 4.915078,2.71611 4.91045,2.715813 4.894644,2.718599 4.755944,2.666856 4.747905,2.665203 4.737207,2.664393 4.589124,2.626091" style="fill: black" /><polygon type="contour" points="6.357585,3.546051 6.377848,3.557238 6.411064,3.596817 6.414602,3.604851 6.415901,3.609761 6.418617,3.654869 6.423337,3.756661 6.422876,3.770131 6.413656,3.828747 6.412205,3.838106 6.41301,3.850868 6.430618,4.131807 6.433394,4.155238 6.436267,4.199187 6.443879,4.3032 6.441662,4.378065 6.446538,4.39722 6.446236,4.400211 6.445376,4.413488 6.446869,4.420842 6.448748,4.459202 6.449108,4.554469 6.446116,4.624966 6.437007,4.713252 6.424593,4.800429 6.426188,4.849622 6.424768,4.898914 6.410425,5.075233 6.419162,5.187153 6.421443,5.240338 6.408945,5.304405 6.38896,5.34137 6.366942,5.353569 6.343918,5.362958 6.334841,5.364856 6.293326,5.344201 6.242282,5.310542 6.211382,5.268825 6.184284,5.214142 6.168794,5.164541 6.165706,5.151159 6.166598,5.149406 6.153332,5.1016 6.1335,5.044638 6.126137,4.895054 6.125408,4.881749 6.12579,4.876259 6.134258,4.769208 6.142917,4.729159 6.144626,4.689662 6.151373,4.659852 6.157754,4.568042 6.163365,4.526239 6.168933,4.471075 6.170817,4.425928 6.172011,4.421478 6.162935,4.324399 6.158169,4.31518 6.156297,4.30931 6.146683,4.16199 6.144838,4.140078 6.1517,4.120393 6.133282,4.073065 6.13087,4.05859 6.134475,4.002162 6.137944,3.939711 6.139399,3.911071 6.136115,3.852289 6.146252,3.804855 6.162868,3.760954 6.181031,3.71058 6.242869,3.593404 6.24699,3.590055 6.249889,3.587328 6.325824,3.547072 6.345151,3.544894" style="fill: white" />
</svg>
