<svg width="13.600213" height="8.910821">
<polygon type="contour" points="7.82195,2.99823 7.852588,3.000703 7.878732,3.008068 7.952514,3.041049 7.963834,3.051378 7.975955,3.052599 7.984748,3.058674 8.019818,3.057188 8.125125,3.093611 8.133603,3.097986 8.138679,3.101011 8.162797,3.113264 8.217503,3.147255 8.222354,3.154802 8.267297,3.200157 8.29393,3.211668 8.327499,3.227438 8.364059,3.241541 8.409431,3.272441 8.4279,3.281636 8.443087,3.292553 8.466285,3.319803 8.524615,3.390912 8.56105,3.440407 8.606508,3.537178 8.645058,3.610082 8.683343,3.750495 8.688674,3.853217 8.691452,3.889212 8.694683,3.958697 8.691878,4.012297 8.691879,4.013018 8.691479,4.01393 8.689879,4.06899 8.691838,4.075944 8.71121,4.174105 8.737937,4.322821 8.738286,4.332432 8.735713,4.365642 8.735043,4.370105 8.734764,4.370558 8.730793,4.393248 8.726396,4.406619 8.722626,4.412032 8.721696,4.425071 8.718331,4.438632 8.715131,4.453901 8.720339,4.485725 8.724501,4.495323 8.727715,4.503555 8.732669,4.521622 8.736247,4.544887 8.735467,4.548956 8.738958,4.588184 8.738277,4.594026 8.721554,4.688698 8.709629,4.746412 8.707163,4.760466 8.706825,4.766571 8.703709,4.774998 8.690321,4.841916 8.690991,4.863488 8.680406,5.093816 8.669946,5.207911 8.610703,5.374735 8.558631,5.475485 8.492532,5.560704 8.452127,5.600546 8.386505,5.655575 8.321239,5.684873 8.284478,5.702457 8.237072,5.738063 8.131931,5.806244 8.092964,5.821669 8.041895,5.845932 8.01199,5.852292 7.98464,5.854541 7.967141,5.864476 7.853066,5.9107 7.802248,5.915001 7.778144,5.916743 7.743322,5.910739 7.736323,5.90356 7.704071,5.880218 7.676485,5.854321 7.652506,5.804765 7.641801,5.754279 7.639833,5.593151 7.649089,5.530786 7.570073,5.529507 7.566219,5.529445 7.565415,5.529377 7.542149,5.527404 7.476171,5.513737 7.378447,5.481467 7.414713,5.443876 7.443397,5.437825 7.594398,5.436867 7.490934,5.349846 7.493452,5.347009 7.510697,5.335236 7.560819,5.301019 7.600965,5.290301 7.588947,5.237416 7.586914,5.228468 7.579597,5.205381 7.577517,5.182786 7.582623,5.026003 7.598021,4.815507 7.59775,4.696653 7.602467,4.355937 7.602374,4.21909 7.603502,4.105283 7.572782,3.873291 7.570831,3.844264 7.569206,3.830937 7.568397,3.813991 7.578215,3.693995 7.500121,3.680882 7.498244,3.672886 7.511171,3.625141 7.524614,3.575557 7.45345,3.550176 7.528653,3.492984 7.579932,3.474205 7.630702,3.462952 7.639655,3.433102 7.640838,3.429165 7.642518,3.423568 7.646324,3.404708 7.643459,3.322709 7.647828,3.287793 7.649473,3.244145 7.645897,3.15993 7.643896,3.120277 7.646486,3.112738 7.655654,3.081568 7.662097,3.069018 7.671466,3.063612 7.685563,3.05237 7.730102,3.00834 7.741977,3.001663 7.77668,2.994546" style="fill: white" /><polygon type="contour" points="3.80852,2.401832 3.820023,2.404492 3.847989,2.424267 3.854778,2.424758 3.860379,2.432486 3.873048,2.443488 3.909032,2.499268 3.949197,2.552937 3.972907,2.591171 4.156059,2.577845 4.18754,2.577068 4.193909,2.576103 4.364346,2.550279 4.457248,2.551481 4.462068,2.551544 4.464281,2.551573 4.477636,2.551746 4.552843,2.548523 4.621195,2.563477 4.636791,2.609916 4.61791,2.666896 4.56589,2.692304 4.304955,2.748262 4.244254,2.764249 4.061312,2.774248 3.855275,2.786712 3.834524,2.787967 3.813428,2.786961 3.794764,2.786071 3.735259,2.783235 3.730427,2.794705 3.701339,2.782758 3.69689,2.876825 3.701401,2.900754 3.69474,2.911248 3.68517,2.921616 3.673017,2.979085 3.662562,3.005937 3.503575,3.303346 3.491192,3.323303 3.489302,3.326688 3.485897,3.331796 3.477863,3.341392 3.302372,3.574936 3.228123,3.677586 3.136182,3.83797 3.064604,3.926838 3.055355,3.961678 3.047317,3.998267 3.046912,4.004926 3.044401,4.038608 3.034022,4.051101 3.010329,4.120191 2.992796,4.165229 2.99283,4.221028 2.991725,4.230312 2.985197,4.258955 2.990696,4.273729 2.984545,4.302468 2.97473,4.316756 2.971739,4.366388 2.970146,4.443199 2.964405,4.451418 2.970017,4.470779 2.974447,4.521394 2.971646,4.545952 2.976337,4.597714 2.987794,4.61543 2.99491,4.646846 2.988544,4.667345 2.996287,4.714311 2.992954,4.730484 3.039136,4.856053 3.043606,4.865397 3.044381,4.880285 3.048359,4.918019 3.053237,4.923665 3.064584,4.98263 3.06793,4.992514 3.119558,5.076981 3.202356,5.19491 3.239143,5.241487 3.25265,5.255808 3.281317,5.2978 3.479389,5.572403 3.482713,5.575949 3.488373,5.583092 3.652855,5.895793 3.659387,5.904269 3.669793,5.923042 3.671689,5.92902 3.683634,5.985381 3.701129,6.009057 3.701806,6.013749 3.701,6.020306 3.698663,6.108701 3.727437,6.098812 3.730269,6.117115 3.749765,6.112306 3.764502,6.133834 3.808599,6.131028 3.841439,6.128941 3.867991,6.127252 3.892447,6.12872 3.903627,6.129391 4.177558,6.145841 4.367561,6.165737 4.469152,6.18816 4.567484,6.22085 4.618928,6.245788 4.636177,6.30343 4.618431,6.349853 4.553468,6.363773 4.329411,6.352666 4.233113,6.336655 4.103022,6.330422 3.969214,6.320896 3.947412,6.379841 3.940588,6.396356 3.928266,6.414332 3.883432,6.470022 3.869046,6.466885 3.850671,6.493332 3.841262,6.494822 3.814822,6.508206 3.808764,6.51063 3.79246,6.508044 3.787969,6.507953 3.7716,6.502509 3.759614,6.497702 3.729322,6.489255 3.684008,6.451373 3.67109,6.4424 3.653634,6.437639 3.645763,6.432988 3.623509,6.416346 3.591403,6.40055 3.552578,6.384327 3.479541,6.330809 3.439392,6.302325 3.439063,6.302072 3.438721,6.301836 3.438153,6.301334 3.425186,6.286185 3.419474,6.281585 3.40739,6.241884 3.365073,6.249891 3.36352,6.24995 3.330779,6.232978 3.325833,6.229382 3.318474,6.224129 3.209201,6.12692 3.179731,6.089967 3.158596,6.067173 3.079714,6.018564 3.000589,5.960748 2.982723,5.950259 2.896632,5.910442 2.887345,5.906925 2.872122,5.903988 2.833497,5.895612 2.705243,5.861422 2.669335,5.835904 2.666428,5.833423 2.658945,5.819832 2.632398,5.809293 2.627825,5.801276 2.591234,5.791748 2.546586,5.780921 2.525608,5.785571 2.463069,5.800587 2.389084,5.824686 2.367666,5.835202 2.340899,5.829445 2.311381,5.853446 2.308985,5.855699 2.306431,5.857214 2.194194,5.872464 2.154453,5.875074 2.128048,5.862289 2.038932,5.819929 1.954558,5.781402 1.92327,5.757929 1.909337,5.748919 1.861459,5.711529 1.848546,5.694783 1.811523,5.66258 1.774399,5.654003 1.732833,5.642054 1.719656,5.639653 1.658091,5.617356 1.600544,5.59089 1.573307,5.588841 1.542516,5.595211 1.525255,5.595233 1.499002,5.60185 1.483404,5.600269 1.468121,5.602605 1.35057,5.606322 1.271631,5.597621 1.227391,5.576464 1.204374,5.560355 1.189777,5.552188 1.145659,5.475725 1.128989,5.441354 1.133293,5.384557 1.080811,5.367982 1.026612,5.31443 0.946273,5.23891 0.937792,5.22916 0.916943,5.193507 0.91487,5.187853 0.922062,5.163055 0.908278,5.117546 0.875851,5.003741 0.832043,4.902949 0.791729,4.874454 0.651903,4.755084 0.58716,4.690623 0.579402,4.682543 0.57418,4.665021 0.571941,4.654891 0.571811,4.628637 0.557309,4.461765 0.557282,4.408908 0.564996,4.340663 0.563725,4.321261 0.570451,4.268998 0.585286,4.23126 0.599375,4.212619 0.63411,4.173318 0.700207,4.125443 0.817742,4.03689 0.847077,3.968517 0.853638,3.957085 0.861591,3.940083 0.889981,3.835767 0.900009,3.801371 0.905415,3.784071 0.906781,3.780082 0.931103,3.744551 0.913483,3.729085 0.921138,3.71853 0.928574,3.708015 0.951572,3.661152 0.967854,3.64458 1.132321,3.514222 1.127951,3.477339 1.141792,3.443052 1.157365,3.411867 1.174483,3.377733 1.189234,3.360104 1.202209,3.352127 1.225438,3.335394 1.272627,3.313574 1.310652,3.305521 1.327133,3.304188 1.359082,3.30348 1.473165,3.30983 1.484497,3.311559 1.501865,3.312015 1.509195,3.313853 1.59496,3.322344 1.634324,3.302809 1.639481,3.300938 1.729166,3.270672 1.800496,3.255869 1.818961,3.246885 1.836828,3.231062 1.984967,3.103857 1.987216,3.10202 1.989308,3.100791 1.991054,3.100028 1.997379,3.097668 1.998587,3.097026 2.000753,3.096243 2.001917,3.09555 2.006812,3.093986 2.030094,3.083935 2.089643,3.065487 2.114839,3.056877 2.145915,3.046925 2.204798,3.045289 2.262784,3.042525 2.267672,3.042499 2.276627,3.046151 2.324536,3.063241 2.333015,3.074396 2.362371,3.077182 2.370207,3.079933 2.385513,3.085636 2.501066,3.127509 2.54844,3.12697 2.558366,3.123433 2.583647,3.120255 2.591274,3.116107 2.609707,3.113351 2.623786,3.11104 2.641137,3.100109 2.651291,3.098083 2.66135,3.087515 2.671605,3.077966 2.689914,3.055359 2.71179,3.043365 2.765276,3.023555 2.781515,3.016582 2.835425,3.016845 2.880017,3.000061 2.939152,2.979059 2.947444,2.972651 3.030127,2.94694 3.037453,2.940549 3.161137,2.839569 3.176557,2.83264 3.184126,2.82131 3.209399,2.790591 3.220691,2.76968 3.23748,2.750936 3.242861,2.745837 3.324246,2.682874 3.333087,2.677303 3.340684,2.673483 3.364006,2.661376 3.364481,2.661419 3.415084,2.670378 3.422622,2.626391 3.433756,2.613969 3.438103,2.610197 3.439124,2.609315 3.453673,2.600873 3.481318,2.589261 3.553742,2.535505 3.594406,2.499876 3.663872,2.468351 3.68388,2.456634 3.714587,2.432529 3.736207,2.426358 3.761183,2.413614 3.778095,2.407189 3.799577,2.401711" style="fill: white" />
</svg>
