<svg width="13.600213" height="8.910821">
<polygon type="contour" points="3.385614,3.468928 3.418578,3.4721 3.488622,3.543621 3.560347,3.625389 3.572275,3.644082 3.578212,3.685902 3.579928,3.705257 3.582538,3.724599 3.573322,3.7633 3.56879,3.866452 3.68758,3.871191 3.894388,3.86924 3.973495,3.872476 4.023925,3.878886 4.020137,3.922574 4.008159,3.975581 3.984117,3.994249 3.896827,4.035283 3.869049,4.039532 3.863813,4.040332 3.852876,4.042007 3.781611,4.038725 3.761519,4.037801 3.575876,4.065091 3.554503,4.068233 3.546239,4.069806 3.543997,4.070233 3.498064,4.054317 3.481761,4.046093 3.47596,4.041405 3.455763,3.972108 3.382467,3.970635 3.319318,4.158819 3.312515,4.172456 3.301943,4.186644 3.287158,4.223574 3.273317,4.263372 3.269068,4.276684 3.25822,4.30637 3.257213,4.328516 3.258421,4.363268 3.240078,4.454429 3.241561,4.464422 3.264899,4.584457 3.261076,4.608535 3.297322,4.713656 3.309284,4.742947 3.323301,4.768129 3.321724,4.790092 3.333842,4.82104 3.341898,4.840861 3.35579,4.869952 3.390167,4.940664 3.460339,4.932669 3.473928,4.873471 3.480955,4.867303 3.499571,4.857304 3.543015,4.841163 3.580808,4.840396 3.833955,4.862243 3.875061,4.868688 3.893326,4.874695 3.992032,4.922179 4.011239,4.937738 4.019819,4.984774 4.021645,5.033959 3.980101,5.036403 3.882284,5.043014 3.552704,5.049104 3.581719,5.137012 3.578944,5.14814 3.579714,5.173198 3.581417,5.188704 3.578535,5.225116 3.57161,5.269113 3.559081,5.300911 3.503548,5.369633 3.431717,5.433287 3.41826,5.439671 3.393167,5.442095 3.329045,5.446459 3.314658,5.437779 3.303338,5.435444 3.29327,5.428773 3.258376,5.424785 3.255129,5.425182 3.25052,5.423972 3.161062,5.400224 3.062189,5.36853 2.95679,5.31154 2.93325,5.308678 2.864996,5.307123 2.84495,5.302377 2.809399,5.286111 2.778143,5.237156 2.761084,5.230764 2.727809,5.208494 2.72605,5.205241 2.641038,5.154334 2.635779,5.26345 2.643305,5.293739 2.641189,5.308359 2.633083,5.316593 2.624556,5.332777 2.607183,5.350633 2.6025,5.35223 2.590358,5.362604 2.573193,5.371775 2.474461,5.352277 2.446281,5.34236 2.354137,5.295128 2.312952,5.242376 2.298285,5.219442 2.276632,5.199234 2.251359,5.195234 2.238501,5.188585 2.20515,5.166933 2.146671,5.145327 2.121753,5.131555 2.086157,5.094975 2.025451,5.038162 1.968913,4.979163 1.938263,4.958173 1.899151,4.948761 1.863917,4.949129 1.856101,4.947143 1.828944,4.936539 1.781769,4.918043 1.761676,4.905387 1.747675,4.880863 1.746549,4.879115 1.741907,4.842655 1.729476,4.821637 1.722388,4.80859 1.700205,4.789381 1.696402,4.779471 1.680704,4.766239 1.59033,4.670536 1.569058,4.637028 1.563261,4.610064 1.55391,4.561695 1.553134,4.559851 1.550109,4.546517 1.555294,4.428142 1.560068,4.305717 1.568912,4.29112 1.565398,4.279758 1.567621,4.272705 1.58621,4.24819 1.681816,4.146269 1.689907,4.134566 1.697068,4.1294 1.699116,4.124245 1.714818,4.11006 1.715076,4.106933 1.727831,4.092651 1.737468,4.077284 1.742775,4.061833 1.745978,4.043426 1.75119,4.024082 1.764569,4.001051 1.79267,3.986584 1.857273,3.963363 1.894371,3.963293 1.907683,3.966006 1.934772,3.953009 1.955469,3.924341 2.019482,3.860733 2.066594,3.82634 2.071892,3.818878 2.136036,3.776373 2.227264,3.72879 2.234516,3.727713 2.25332,3.715447 2.276898,3.712086 2.318667,3.674293 2.34806,3.630266 2.350637,3.623604 2.35517,3.617424 2.402011,3.579165 2.460476,3.561574 2.571594,3.539515 2.583826,3.540848 2.599457,3.554162 2.602812,3.559047 2.641639,3.597438 2.647507,3.615846 2.636192,3.698498 2.717769,3.723139 2.730565,3.696694 2.734139,3.696266 2.75626,3.680405 2.760212,3.676218 2.774742,3.680772 2.785316,3.662395 2.802394,3.658749 2.812564,3.638453 2.813922,3.637575 2.845757,3.607283 2.848935,3.605498 2.850751,3.605637 2.856566,3.606449 2.887155,3.606635 2.927418,3.603733 2.961922,3.593666 2.988328,3.582653 3.028142,3.570439 3.211014,3.49639 3.236506,3.486959 3.280433,3.484665 3.310608,3.474092 3.315043,3.473381 3.336266,3.462844" style="fill: white" />
</svg>
