<svg width="13.600213" height="8.910821">
<polygon type="contour" points="3.476406,3.227021 3.510892,3.236905 3.512499,3.237732 3.564619,3.278392 3.568466,3.284648 3.590328,3.328551 3.644788,3.431799 3.648057,3.44442 3.649327,3.457184 3.646181,3.506848 3.743691,3.522423 3.857348,3.542342 3.860203,3.550025 3.861607,3.553796 3.865021,3.571434 3.866423,3.57869 3.873459,3.615023 3.9025,3.642683 4.014424,3.642145 3.884515,3.70733 3.69679,3.736433 3.634042,3.742185 3.574188,3.747544 3.557217,3.736598 3.516832,3.753307 3.49696,3.761531 3.454549,3.792022 3.370429,3.853971 3.314157,3.891925 3.288563,3.963105 3.213645,4.178941 3.200347,4.211799 3.170324,4.313824 3.171278,4.324732 3.156744,4.364767 3.152528,4.440057 3.156587,4.533261 3.1576,4.536508 3.158773,4.544608 3.157656,4.560445 3.170424,4.579868 3.173402,4.602968 3.203059,4.710572 3.218749,4.74493 3.241014,4.788042 3.26136,4.85723 3.275799,4.901817 3.301572,4.981 3.315474,4.995751 3.321024,5.002102 3.327824,5.006557 3.39376,5.097336 3.446458,5.122016 3.494011,5.144287 3.557119,5.173842 3.571435,5.164517 3.581619,5.165363 3.634446,5.169884 3.703705,5.176049 3.883886,5.20556 4.00967,5.272329 3.902125,5.269016 3.898178,5.287478 3.872409,5.291788 3.868385,5.325991 3.84656,5.356433 3.696356,5.380608 3.661349,5.386245 3.651218,5.436397 3.592936,5.54633 3.546996,5.647514 3.525581,5.678029 3.506792,5.68769 3.424989,5.697364 3.417172,5.699167 3.413952,5.69826 3.397769,5.698873 3.34086,5.699085 3.311202,5.69481 3.27282,5.666934 3.242332,5.642579 3.177207,5.591088 3.144443,5.595181 3.129246,5.5924 3.118184,5.594335 3.096228,5.594985 3.07781,5.58913 2.985926,5.558619 2.914113,5.543787 2.811958,5.491002 2.682804,5.436641 2.57265,5.425294 2.562141,5.429781 2.543533,5.433428 2.515538,5.443977 2.405247,5.442133 2.318676,5.432706 2.312529,5.430907 2.272397,5.405515 2.266978,5.403344 2.264111,5.401027 2.262056,5.400477 2.258017,5.397512 2.214095,5.369018 2.201406,5.352789 2.192566,5.35264 2.178558,5.338835 2.153447,5.322412 2.138257,5.30911 2.126673,5.302893 2.089855,5.285719 1.981568,5.199473 1.969493,5.192918 1.922858,5.141253 1.901392,5.117536 1.885563,5.093537 1.844868,5.034917 1.840215,5.009486 1.828633,4.956178 1.807907,4.924426 1.801135,4.918943 1.785291,4.900513 1.712796,4.885669 1.633682,4.868808 1.542461,4.839379 1.503276,4.820469 1.44506,4.776842 1.441792,4.774558 1.420331,4.761363 1.417232,4.745932 1.405472,4.741786 1.403081,4.733434 1.39804,4.7127 1.394175,4.702111 1.390794,4.678988 1.383477,4.657129 1.370314,4.604718 1.367191,4.592697 1.365194,4.578874 1.35247,4.520468 1.356615,4.456918 1.358529,4.375341 1.358813,4.372469 1.366298,4.324438 1.382944,4.257275 1.382902,4.25434 1.386215,4.239581 1.392634,4.210726 1.39855,4.178354 1.401685,4.168985 1.411515,4.159095 1.423241,4.149017 1.442915,4.132391 1.469782,4.113245 1.529141,4.079276 1.541244,4.07325 1.590379,4.051984 1.652119,4.036245 1.700591,4.028852 1.77077,4.012373 1.779579,4.00612 1.794725,4.000437 1.807647,3.987709 1.828646,3.955142 1.834692,3.913716 1.837609,3.907542 1.858201,3.86921 1.876951,3.825294 1.956315,3.742996 2.052988,3.653993 2.097092,3.625167 2.107202,3.613569 2.141444,3.590143 2.192143,3.567057 2.20419,3.555569 2.215736,3.544596 2.233294,3.529408 2.251175,3.515158 2.259292,3.513873 2.267693,3.506949 2.290476,3.49831 2.316535,3.480328 2.401346,3.458973 2.412104,3.456097 2.417744,3.456571 2.423454,3.456737 2.504156,3.470301 2.527732,3.475634 2.590054,3.492249 2.608288,3.496507 2.631428,3.497787 2.646146,3.494602 2.855945,3.399442 2.901188,3.372304 3.006518,3.346815 3.102123,3.322192 3.123579,3.319124 3.149679,3.319014 3.172191,3.319133 3.191057,3.30353 3.224012,3.281701 3.255263,3.259062 3.283757,3.240974 3.357973,3.219098 3.435744,3.21452" style="fill: white" />
</svg>
