<svg width="13.600213" height="8.910821">
<polygon type="contour" points="4.449551,0.634414 4.466649,0.637871 4.564119,0.665536 4.600516,0.680886 4.64396,0.72773 4.647212,0.730273 4.651239,0.741102 4.661899,0.800014 4.673927,0.83449 4.721562,0.923077 4.739133,0.959084 4.760114,0.968488 4.763875,0.970114 4.796771,0.98274 4.993722,1.053707 4.987511,0.973617 4.98458,0.94516 4.981956,0.926062 4.986366,0.914986 4.997628,0.895943 5.002918,0.887005 5.026973,0.884301 5.101456,0.863193 5.113572,0.852808 5.121092,0.84721 5.144794,0.834149 5.172867,0.827221 5.219484,0.829939 5.242445,0.830716 5.25284,0.833511 5.257346,0.836781 5.356235,0.870367 5.367626,0.874017 5.371862,0.876024 5.377322,0.879241 5.378709,0.879826 5.41654,0.902635 5.443579,0.903963 5.477348,0.908223 5.496281,0.914275 5.569472,0.901822 5.594953,0.905653 5.637116,0.912595 5.751273,0.941714 5.968078,0.987336 5.983215,0.990995 6.013133,0.994545 6.152306,1.011862 6.21888,1.023722 6.33348,1.046676 6.337252,1.046993 6.339059,1.047132 6.408061,1.072475 6.459193,1.09495 6.48009,1.098295 6.498246,1.104342 6.545034,1.126954 6.593294,1.152619 6.677522,1.192981 6.75877,1.246998 6.829478,1.298168 6.926609,1.424714 6.977633,1.482078 6.997658,1.508333 7.027402,1.552493 7.112738,1.694058 7.150972,1.76321 7.163495,1.794131 7.169659,1.818049 7.192926,1.858117 7.215731,1.886405 7.285572,1.987143 7.29104,1.999752 7.301189,2.024844 7.318289,2.058165 7.361565,2.116352 7.374085,2.124909 7.421519,2.177585 7.431885,2.194908 7.45428,2.21371 7.468827,2.229718 7.571724,2.34577 7.606473,2.393652 7.616186,2.407146 7.639633,2.436727 7.657964,2.451936 7.668248,2.46139 7.692041,2.472406 7.706016,2.486024 7.721565,2.499275 7.759379,2.531771 7.767597,2.54007 7.777304,2.55572 7.816789,2.592504 7.865321,2.609276 7.86704,2.610577 7.894693,2.636142 7.913518,2.676397 7.946575,2.736184 7.946089,2.752436 7.962774,2.780407 7.979536,2.808195 7.986611,2.814716 7.992677,2.823931 8.020406,2.834323 8.038304,2.84051 8.039825,2.841472 8.041347,2.84229 8.058193,2.851962 8.073497,2.857921 8.138691,2.914965 8.163767,2.91805 8.182677,2.917561 8.217608,2.930237 8.244274,2.947194 8.25216,2.949469 8.256002,2.951316 8.27833,2.955624 8.283003,2.956405 8.283818,2.957158 8.303261,2.96956 8.305539,2.969889 8.316957,2.976204 8.334777,2.989676 8.356052,3.006062 8.360439,3.011401 8.365927,3.014731 8.407627,3.054915 8.467862,3.085502 8.493597,3.100013 8.543336,3.137794 8.554053,3.148853 8.582381,3.185423 8.610153,3.210811 8.625213,3.236743 8.640259,3.253995 8.646354,3.266982 8.655184,3.274027 8.664848,3.284138 8.671148,3.287879 8.683961,3.307605 8.684936,3.308461 8.68645,3.318691 8.700184,3.350102 8.701641,3.351908 8.704151,3.365569 8.711288,3.395446 8.728311,3.416661 8.756167,3.446925 8.765665,3.454619 8.801747,3.491697 8.819085,3.512647 8.820237,3.51462 8.824462,3.520246 8.844023,3.546696 8.868739,3.579489 8.874681,3.586984 8.937453,3.661863 8.946282,3.673194 8.952283,3.682028 8.956409,3.684676 8.957923,3.688595 8.972575,3.704252 8.989035,3.729325 8.994048,3.736408 9.001116,3.755709 9.014691,3.764678 9.04076,3.790942 9.072275,3.797282 9.129846,3.870686 9.207438,3.955647 9.226133,3.982403 9.27459,4.087935 9.283273,4.118857 9.297855,4.196725 9.334117,4.30666 9.337564,4.356925 9.334208,4.545266 9.317327,4.668691 9.315726,4.698117 9.307624,4.727722 9.303948,4.737009 9.27638,4.800958 9.25946,4.83351 9.18087,4.989802 9.174318,5.008554 9.09342,5.087379 9.079784,5.110302 9.064288,5.121 9.042497,5.119505 9.026337,5.135302 9.011182,5.147931 9.002721,5.15613 8.994882,5.173445 8.987483,5.182804 8.964712,5.212899 8.937885,5.252371 8.925203,5.264122 8.923182,5.269048 8.921164,5.269869 8.906057,5.289351 8.882366,5.319874 8.814443,5.406925 8.766963,5.455008 8.765301,5.457411 8.760555,5.462822 8.756884,5.465881 8.754093,5.469249 8.717892,5.507088 8.701038,5.560147 8.700245,5.561422 8.681801,5.609037 8.664812,5.626939 8.599097,5.720086 8.590201,5.735495 8.568119,5.759087 8.447135,5.829561 8.371667,5.89437 8.331368,5.925028 8.290375,5.948763 8.274924,5.954502 8.243074,5.963042 8.235901,5.968093 8.211858,5.983508 8.179659,5.995098 8.145468,5.993803 8.126074,6.02046 8.11404,6.028551 8.101224,6.034044 8.059406,6.059634 8.029831,6.074933 8.019184,6.07593 7.989899,6.0832 7.952481,6.145589 7.946035,6.158954 7.946792,6.176852 7.907015,6.246039 7.890445,6.280516 7.880431,6.287946 7.83783,6.312899 7.818365,6.3182 7.793196,6.340281 7.783523,6.356688 7.761873,6.38431 7.727318,6.413511 7.706777,6.423485 7.696893,6.433128 7.683475,6.441708 7.677018,6.447129 7.644282,6.477886 7.590622,6.539855 7.422344,6.728243 7.369538,6.793011 7.334527,6.828999 7.317234,6.850774 7.307141,6.865009 7.300702,6.880398 7.29453,6.885517 7.256077,6.959225 7.191328,7.057613 7.167434,7.101094 7.102505,7.24495 7.078123,7.278427 7.009437,7.385867 6.950352,7.486969 6.945417,7.494582 6.916887,7.528564 6.816818,7.620404 6.771307,7.652665 6.678464,7.722336 6.511089,7.808556 6.497625,7.815953 6.495066,7.817626 6.407969,7.841775 6.347232,7.856814 6.33651,7.86262 6.319073,7.864083 6.231436,7.883044 6.126501,7.887699 6.09583,7.891482 6.078178,7.8933 6.05734,7.895683 6.053314,7.897715 5.741569,7.975444 5.64177,7.999412 5.596589,7.998916 5.558521,8.004482 5.546608,8.00343 5.485242,7.995146 5.475136,8.000198 5.430388,8.010546 5.405252,8.013265 5.381655,8.026782 5.336769,8.050743 5.326984,8.055445 5.303482,8.062363 5.264217,8.07257 5.237184,8.081157 5.218025,8.081387 5.172359,8.084461 5.147972,8.079668 5.093426,8.042606 5.063994,8.03653 5.027093,8.027546 5.003483,8.025185 4.982898,7.993314 4.991136,7.86192 4.803886,7.926682 4.768185,7.940341 4.760655,7.943344 4.735542,7.9561 4.698372,8.008617 4.677904,8.090487 4.657981,8.159872 4.632407,8.191094 4.617846,8.217225 4.588316,8.235621 4.525887,8.258899 4.473857,8.269664 4.464176,8.268273 4.440452,8.276072 4.430424,8.272869 4.416665,8.273155 4.372205,8.256304 4.341864,8.255558 4.295439,8.261819 4.280128,8.25683 4.191089,8.223448 4.129251,8.182854 4.091234,8.113979 4.080366,8.096938 4.044522,8.055632 4.02773,8.023008 3.986053,8.035026 3.976315,8.032845 3.968271,8.018118 3.935584,8.000948 3.897193,7.958241 3.848892,7.912264 3.787271,7.877836 3.783438,7.876795 3.762363,7.85861 3.676875,7.780975 3.644418,7.753267 3.642386,7.721564 3.594859,7.714311 3.559322,7.685133 3.556678,7.682203 3.550472,7.677309 3.544839,7.672715 3.433803,7.590042 3.320798,7.5074 3.311812,7.470591 3.285641,7.445165 3.268933,7.442019 3.185898,7.393059 3.166964,7.37695 3.140138,7.356437 3.122589,7.34907 3.066411,7.317202 3.038493,7.251695 2.97338,7.339021 2.964129,7.342116 2.846739,7.392075 2.796538,7.409446 2.777742,7.404153 2.755989,7.403903 2.742417,7.407461 2.683546,7.419828 2.523938,7.460127 2.491412,7.469263 2.462216,7.472559 2.441213,7.487031 2.378843,7.51933 2.356887,7.52521 2.311982,7.534045 2.260999,7.54332 2.195979,7.534477 2.185196,7.529168 2.16607,7.509898 2.145073,7.494771 2.131346,7.480887 2.005623,7.353334 1.843976,7.361654 1.838414,7.358755 1.802461,7.361693 1.798821,7.359901 1.722194,7.360542 1.684701,7.36431 1.620137,7.369286 1.613606,7.372365 1.609154,7.373168 1.606315,7.371128 1.560581,7.369588 1.496519,7.375348 1.42104,7.377714 1.389359,7.371741 1.291871,7.398296 1.262082,7.403564 1.245987,7.422569 1.238942,7.426134 1.209417,7.436549 1.193625,7.441634 1.169565,7.465989 1.11291,7.470673 1.081456,7.474211 1.079198,7.474098 1.065328,7.476473 1.059301,7.478606 1.03297,7.4786 0.982086,7.454197 0.951562,7.474791 0.921632,7.480461 0.904964,7.479866 0.889873,7.490666 0.864315,7.50918 0.808137,7.519289 0.78155,7.527669 0.717365,7.530759 0.691411,7.531211 0.672823,7.528983 0.622055,7.516762 0.544696,7.499064 0.534821,7.497331 0.523394,7.492723 0.479806,7.467956 0.475718,7.466963 0.464549,7.453773 0.356393,7.340405 0.350574,7.328268 0.348723,7.324543 0.316084,7.188409 0.308352,7.065391 0.31878,6.96757 0.333257,6.931801 0.333144,6.834652 0.328716,6.793999 0.344795,6.706775 0.392807,6.466167 0.417581,6.389446 0.418148,6.302589 0.412064,6.066147 0.401675,6.027204 0.392399,5.897699 0.392711,5.871363 0.416525,5.783564 0.414754,5.774087 0.422369,5.673526 0.419806,5.579485 0.409939,5.534842 0.408347,5.532688 0.408128,5.529046 0.403851,5.481142 0.388347,5.463196 0.381386,5.306863 0.37832,5.226228 0.379349,5.192445 0.393847,5.180219 0.411029,5.163789 0.413484,5.127649 0.403937,5.099469 0.396323,5.081261 0.381494,5.06716 0.327929,4.976673 0.323973,4.966662 0.322974,4.964243 0.316336,4.818346 0.306175,4.686766 0.318414,4.567725 0.321519,4.555249 0.315241,4.475325 0.309386,4.28932 0.309942,4.282736 0.305497,4.267815 0.305202,4.263769 0.317955,4.069324 0.334229,3.971343 0.333104,3.921643 0.34319,3.909315 0.361846,3.884774 0.367245,3.874012 0.370343,3.87086 0.37844,3.859838 0.407941,3.814218 0.413346,3.785372 0.411627,3.754568 0.402379,3.74562 0.396551,3.734986 0.385634,3.724127 0.379295,3.714216 0.379457,3.704658 0.378954,3.698469 0.382021,3.577045 0.388604,3.448994 0.403283,3.430149 0.40355,3.403741 0.409235,3.395038 0.419734,3.309771 0.412038,3.151191 0.394871,3.040499 0.392149,3.023103 0.391132,3.020245 0.39169,3.012299 0.391813,3.005239 0.403921,2.948131 0.408131,2.916091 0.413233,2.892633 0.419133,2.60613 0.417361,2.521843 0.3859,2.433401 0.376137,2.363672 0.339612,2.154552 0.333487,2.123835 0.327277,2.088897 0.331695,1.995444 0.330276,1.966269 0.327834,1.935366 0.30912,1.844991 0.314821,1.720097 0.359195,1.590654 0.370795,1.554445 0.411956,1.501484 0.464249,1.450828 0.479029,1.447682 0.492961,1.430638 0.56066,1.414345 0.598421,1.407324 0.621191,1.395913 0.683807,1.381931 0.697002,1.376265 0.709886,1.375826 0.720698,1.37989 0.783939,1.385698 0.825902,1.390528 0.874133,1.409973 0.917215,1.432591 0.955802,1.44166 0.976415,1.453273 1.010918,1.440985 1.031177,1.43243 1.060411,1.431276 1.065423,1.433679 1.098907,1.439463 1.15868,1.44373 1.167156,1.44597 1.180884,1.454086 1.190322,1.459808 1.201129,1.47199 1.22544,1.480985 1.239517,1.493121 1.270435,1.507195 1.304433,1.511492 1.356616,1.522893 1.4051,1.543652 1.626948,1.541566 1.628404,1.541387 1.629153,1.541595 1.676637,1.546302 1.706397,1.547061 1.717311,1.550084 1.785482,1.550739 1.785877,1.550536 1.787342,1.550789 1.800281,1.553025 1.829953,1.554443 1.848205,1.558106 1.902713,1.544131 1.929957,1.544445 1.965856,1.541974 1.977012,1.533138 2.016591,1.515367 2.038848,1.509819 2.068718,1.479921 2.099703,1.435402 2.132216,1.40681 2.165025,1.390543 2.193087,1.379939 2.27923,1.366551 2.344127,1.375561 2.421324,1.411289 2.425535,1.415655 2.439261,1.424321 2.470294,1.429651 2.470431,1.429691 2.470461,1.429703 2.538123,1.455475 2.575148,1.470892 2.679106,1.489964 2.682817,1.491235 2.759735,1.510023 2.783413,1.50913 2.808609,1.503572 2.885843,1.541195 3.02519,1.614065 3.055953,1.606725 3.111818,1.567654 3.130014,1.557643 3.148418,1.538668 3.161991,1.534308 3.232875,1.502791 3.265671,1.470004 3.298266,1.45038 3.316012,1.425856 3.319183,1.41069 3.334468,1.385295 3.364369,1.3644 3.387296,1.344035 3.46041,1.293497 3.507634,1.256242 3.530732,1.246903 3.555084,1.233795 3.572266,1.213819 3.591193,1.200743 3.60298,1.198165 3.635798,1.175655 3.638444,1.165843 3.645375,1.157211 3.661388,1.148685 3.681428,1.123753 3.719932,1.105146 3.781394,1.03603 3.78306,1.034681 3.783654,1.0341 3.78596,1.033944 3.809632,1.019685 3.846181,0.999359 3.871783,0.970301 3.884698,0.954987 3.885632,0.953832 3.887613,0.952291 3.899296,0.939806 3.933477,0.91618 3.957117,0.90265 3.976195,0.879015 3.986923,0.876471 4.028909,0.889229 4.117963,0.740163 4.191398,0.690857 4.225288,0.671164 4.291844,0.650655 4.296083,0.649577 4.298948,0.649363 4.342759,0.655828 4.37595,0.654914 4.417283,0.637988 4.434597,0.63653 4.440226,0.634076" style="fill: white" /><polygon type="hole" points="4.802548,2.489607 4.684168,2.515208 4.674889,2.520046 4.623211,2.541502 4.481232,2.591607 4.312902,2.590804 4.307835,2.593277 4.289393,2.593418 4.182181,2.590867 4.124988,2.604801 3.947411,2.727312 3.915456,2.749232 3.894349,2.76964 3.868901,2.78536 3.721455,2.877726 3.665701,2.917822 3.621965,2.974657 3.478742,3.141096 3.452366,3.188158 3.38719,3.34891 3.348783,3.406157 3.322231,3.442805 3.218071,3.594697 3.160415,3.7398 3.15001,3.772354 3.100518,4.039533 3.082256,4.08587 3.087927,4.187899 3.070645,4.341941 3.059505,4.438213 3.063093,4.576762 3.064611,4.635331 3.061764,4.664529 3.094243,4.736254 3.094287,4.748036 3.094423,4.783521 3.098588,4.820611 3.152034,5.149125 3.155419,5.15812 3.221965,5.325185 3.344783,5.511266 3.407868,5.60268 3.450907,5.722588 3.483085,5.777703 3.596904,5.918399 3.690433,6.012252 3.778353,6.073976 3.806431,6.099226 3.904508,6.152412 3.942105,6.182611 4.117811,6.296811 4.161528,6.31079 4.310393,6.317032 4.329022,6.318358 4.334737,6.32091 4.465615,6.325006 4.542721,6.348937 4.578029,6.364862 4.614879,6.373833 4.696706,6.399369 4.805632,6.431611 4.948062,6.436288 4.95772,6.436197 5.063983,6.422974 5.148505,6.409363 5.20078,6.391786 5.423808,6.314459 5.491616,6.296767 5.549061,6.260215 5.560765,6.254169 5.628479,6.222461 5.705978,6.179853 5.872037,6.075301 5.890715,6.06354 5.975309,6.049645 5.995075,6.046429 6.112579,5.946787 6.213097,5.896896 6.224742,5.895876 6.281684,5.847705 6.326504,5.794414 6.411461,5.696925 6.431542,5.67598 6.564367,5.532881 6.61797,5.494849 6.66974,5.426506 6.772436,5.235643 6.803368,5.179514 6.815916,5.140207 6.818001,5.093015 6.836658,5.019576 6.846722,4.990676 6.869647,4.86119 6.929269,4.740042 6.960567,4.65464 7.004749,4.501952 7.0063,4.489385 7.004972,4.474355 6.947468,4.210637 6.934078,4.165452 6.859819,3.971434 6.858503,3.959512 6.858412,3.944616 6.819198,3.798967 6.783178,3.706262 6.682658,3.51574 6.667417,3.481957 6.622634,3.431717 6.570859,3.367995 6.492598,3.287477 6.484616,3.281481 6.460196,3.25517 6.281195,3.062953 6.239175,3.025512 6.227244,3.020474 6.196603,3.005842 6.185832,3.003553 6.153495,2.99406 6.035173,2.897288 6.000957,2.86723 5.936146,2.852251 5.901789,2.850224 5.884868,2.846781 5.817252,2.794959 5.734012,2.741987 5.701907,2.720173 5.653488,2.694146 5.551297,2.6397 5.447744,2.593264 5.194287,2.515587 5.152925,2.503019 5.139377,2.499781 5.086022,2.491937 4.953003,2.475584" style="fill: black" /><polygon type="contour" points="6.326303,3.317717 6.366976,3.328273 6.36878,3.329046 6.370848,3.330129 6.383811,3.35026 6.398721,3.378558 6.398994,3.402515 6.39836,3.413266 6.39826,3.414973 6.396151,3.419076 6.396832,3.447409 6.39834,3.512474 6.395238,3.530067 6.391314,3.555211 6.366346,3.683814 6.369874,3.748589 6.374052,3.900601 6.38092,3.970637 6.389913,4.023702 6.402744,4.154213 6.40484,4.16121 6.428049,4.245697 6.435352,4.293027 6.436942,4.316585 6.436509,4.365158 6.432707,4.411955 6.438565,4.434117 6.440791,4.477601 6.437407,4.553452 6.432828,4.651707 6.406434,4.794226 6.382882,4.922738 6.382698,4.985542 6.380143,5.002565 6.368749,5.168701 6.384694,5.297904 6.388965,5.349456 6.388668,5.368351 6.392668,5.387294 6.401212,5.475991 6.401044,5.476936 6.395782,5.504613 6.385256,5.559787 6.383451,5.564268 6.372991,5.569125 6.329622,5.593792 6.323123,5.597899 6.321243,5.598733 6.290609,5.598838 6.261951,5.589998 6.253671,5.586392 6.170553,5.549965 6.165876,5.547394 6.144367,5.509389 6.121152,5.493516 6.059175,5.430094 6.040377,5.409386 5.988285,5.308141 5.968585,5.27389 5.963652,5.255807 5.946612,5.199788 5.935069,5.144662 5.922841,5.12536 5.913005,5.077564 5.902813,5.018853 5.919085,4.95288 5.93319,4.880913 5.940837,4.855557 5.940892,4.833869 5.952927,4.766553 5.972112,4.685491 5.976712,4.656493 5.999727,4.593125 6.007488,4.53808 6.008831,4.48439 6.001139,4.383391 5.990043,4.317267 5.978016,4.267967 5.975681,4.234398 5.970569,4.205245 5.959596,4.173642 5.930886,4.075417 5.930466,4.068208 5.926845,3.969064 5.918216,3.91738 5.917753,3.86989 5.924711,3.852844 5.934905,3.731408 5.935664,3.729224 5.940216,3.71812 5.949737,3.677752 6.007719,3.573024 6.010275,3.566593 6.015429,3.557911 6.066178,3.474661 6.090189,3.447718 6.108638,3.431898 6.132975,3.413171 6.170906,3.358484 6.179244,3.35458 6.273858,3.315662" style="fill: white" />
</svg>
