<svg width="13.600213" height="8.910821">
<polygon type="contour" points="7.190137,2.639963 7.201101,2.640549 7.211156,2.639732 7.239394,2.637122 7.247052,2.637502 7.287102,2.649475 7.307779,2.660168 7.327129,2.657697 7.453998,2.653332 7.489525,2.657836 7.500017,2.65416 7.622064,2.683953 7.624444,2.68453 7.624558,2.684589 7.624776,2.684756 7.62525,2.685153 7.720483,2.767939 7.736482,2.782577 7.864946,2.897138 7.884304,2.912884 7.896141,2.923883 7.906027,2.929123 7.925397,2.947205 7.957368,2.98674 7.973623,3.005227 7.981774,3.006869 8.014635,3.036978 8.102025,3.102863 8.134958,3.152912 8.1482,3.172299 8.171325,3.245553 8.175929,3.262035 8.177969,3.272253 8.176366,3.27737 8.176926,3.438266 8.185258,3.480965 8.220912,3.585622 8.230413,3.616109 8.24354,3.646482 8.294852,3.780258 8.312552,3.809364 8.316835,3.81994 8.341027,3.841271 8.346205,3.847556 8.348308,3.850237 8.35531,3.861928 8.382141,3.915037 8.397631,3.937882 8.415347,3.961437 8.417483,3.96452 8.499977,4.131107 8.510602,4.142371 8.528962,4.187618 8.593742,4.314687 8.600038,4.33054 8.595226,4.34398 8.593744,4.389992 8.585547,4.401406 8.582887,4.418756 8.582886,4.470221 8.582913,4.492079 8.589485,4.512661 8.59081,4.515024 8.591084,4.520995 8.592394,4.570031 8.579654,4.62031 8.564075,4.663156 8.509875,4.769763 8.505531,4.775173 8.503129,4.777436 8.498732,4.784223 8.46572,4.843973 8.448477,4.894236 8.447406,4.907056 8.433249,4.924116 8.418548,4.949482 8.381937,4.9995 8.314507,5.101192 8.304653,5.112268 8.300993,5.116085 8.290576,5.134105 8.275158,5.1741 8.208218,5.337296 8.188137,5.40017 8.182435,5.441583 8.153966,5.717872 8.153293,5.725977 8.120232,5.780481 8.095603,5.817565 8.089191,5.823344 8.073142,5.837753 7.894294,5.993572 7.803505,6.072201 7.795471,6.080384 7.785085,6.089852 7.779556,6.093865 7.774991,6.094819 7.622184,6.227241 7.621865,6.227703 7.621231,6.228105 7.613869,6.230521 7.456183,6.260886 7.410915,6.254795 7.301441,6.253456 7.28326,6.260614 7.271246,6.265878 7.260522,6.267715 7.213086,6.271902 7.18709,6.270649 7.164233,6.263765 7.076802,6.220576 7.047925,6.210503 7.037134,6.203219 7.024842,6.191858 7.006333,6.143248 6.991332,6.103865 6.785384,6.112603 6.72136,6.110056 6.701177,6.103754 6.684911,6.086345 6.668682,6.061893 6.681547,6.035362 6.714801,5.990844 6.732134,5.98094 6.777052,5.95559 6.852064,5.923746 6.958258,5.896961 7.057841,5.880507 7.123934,5.80612 7.143028,5.781684 7.156353,5.768667 7.177243,5.753313 7.183309,5.743635 7.213569,5.71407 7.258549,5.694901 7.275382,5.692236 7.291818,5.691923 7.313416,5.680772 7.362909,5.622344 7.405502,5.561584 7.501411,5.44302 7.514527,5.424827 7.526759,5.398954 7.533032,5.391586 7.537222,5.380082 7.592386,5.241113 7.622747,5.181739 7.573239,5.130454 7.495838,5.166651 7.43472,5.187677 7.418628,5.187702 7.407847,5.192267 7.383514,5.196777 7.36052,5.201805 7.337701,5.196346 7.291874,5.172347 7.288488,5.175748 7.258406,5.151336 7.243316,5.137473 7.236206,5.107251 7.224215,5.098594 7.220454,5.085582 7.214414,5.074066 7.200683,5.016546 7.200691,5.006248 7.20764,4.924761 7.206891,4.902612 7.209462,4.855773 7.213435,4.833467 7.236794,4.762991 7.253344,4.73173 7.258498,4.669042 7.268808,4.639587 7.299936,4.524763 7.302192,4.42457 7.298066,4.393021 7.290623,4.353468 7.291521,4.349238 7.288877,4.335088 7.262676,4.233483 7.241592,4.163285 7.22104,4.128777 7.2167,4.103911 7.208792,4.064211 7.210226,4.041771 7.204128,4.028741 7.192332,3.929058 7.193021,3.918955 7.200106,3.898417 7.212919,3.860011 7.214405,3.856798 7.219093,3.831513 7.225451,3.81505 7.230253,3.79727 7.290275,3.754389 7.297196,3.740269 7.316636,3.72988 7.329542,3.712387 7.336453,3.709814 7.374431,3.713155 7.394033,3.715521 7.402845,3.719637 7.404747,3.721306 7.45581,3.743689 7.475357,3.749555 7.48207,3.752858 7.514669,3.757261 7.587946,3.79521 7.639518,3.745266 7.542604,3.542448 7.517309,3.500388 7.495609,3.461961 7.475315,3.420984 7.457788,3.394325 7.411217,3.344212 7.347982,3.261613 7.324196,3.245233 7.323909,3.244834 7.294081,3.22098 7.246907,3.210006 7.246587,3.209852 7.214781,3.199504 7.191466,3.181736 7.177259,3.166593 7.144986,3.129687 7.123624,3.12627 7.103142,3.122995 7.099921,3.122479 7.091913,3.121199 7.073819,3.118305 6.986494,3.104338 6.850601,3.084431 6.822009,3.079922 6.771596,3.056871 6.761094,3.050539 6.699573,2.999732 6.691142,2.988173 6.680452,2.942669 6.697669,2.91817 6.783138,2.89582 6.984588,2.905989 6.99247,2.818183 6.992869,2.816996 7.00423,2.789234 7.037047,2.720177 7.071542,2.67656 7.073372,2.674113 7.080029,2.669702 7.155026,2.636548 7.156235,2.636148" style="fill: white" /><polygon type="contour" points="3.795408,2.095204 3.828874,2.098566 3.867613,2.131389 3.945964,2.16041 3.955494,2.172814 3.960113,2.179868 3.978093,2.231234 4.106889,2.243228 4.210798,2.252927 4.284981,2.275061 4.30292,2.281927 4.310133,2.289463 4.321859,2.321987 4.305221,2.338866 4.257227,2.384225 4.222844,2.397978 4.010023,2.451982 3.967192,2.457828 3.91881,2.462699 3.894929,2.581849 3.893238,2.590284 3.8916,2.598454 3.888205,2.615399 3.859244,2.70243 3.840963,2.742469 3.832054,2.757312 3.831678,2.757493 3.812744,2.777282 3.798816,2.784175 3.766672,2.799507 3.740644,2.806149 3.730365,2.805379 3.683589,2.808552 3.682249,2.809195 3.681393,2.808999 3.642679,2.826448 3.618799,2.850701 3.581522,2.881843 3.573401,2.894624 3.544381,2.915836 3.519405,2.940069 3.470682,2.98032 3.439188,2.995381 3.355886,3.056014 3.293797,3.096163 3.273701,3.105486 3.206162,3.166741 3.177964,3.19413 3.164512,3.203336 3.147316,3.211442 3.134236,3.219666 3.121415,3.223985 3.038867,3.289336 3.028374,3.303516 3.016528,3.313073 3.004139,3.324718 2.868824,3.54495 2.807392,3.644466 2.773547,3.76795 2.770356,3.825573 2.76779,3.885301 2.753448,3.933197 2.714195,4.137299 2.704743,4.222546 2.699452,4.413532 2.709283,4.515809 2.696303,4.624395 2.699172,4.67331 2.758139,5.008281 2.769903,5.083995 2.791545,5.162572 2.817677,5.285718 2.839919,5.316772 2.866622,5.377434 2.935495,5.491566 2.963218,5.528468 2.989134,5.561598 2.993958,5.569066 3.005092,5.578014 3.012241,5.585115 3.020898,5.594754 3.048718,5.62958 3.078177,5.647211 3.101118,5.668825 3.11769,5.682231 3.149431,5.696573 3.279621,5.823097 3.303876,5.841431 3.328992,5.86066 3.458862,5.922454 3.469417,5.925386 3.492124,5.945792 3.516823,5.970844 3.580378,6.032494 3.613134,6.062207 3.63838,6.078436 3.640251,6.078815 3.656483,6.094002 3.719846,6.109292 3.74416,6.106059 3.745252,6.105834 3.756786,6.110532 3.814449,6.135486 3.828444,6.157576 3.840486,6.164762 3.84439,6.170562 3.849846,6.186321 3.880711,6.269502 3.887333,6.28987 3.893261,6.336879 3.895686,6.347204 3.923625,6.466112 4.065898,6.488687 4.173107,6.504953 4.236582,6.518006 4.260254,6.528386 4.304748,6.576999 4.318552,6.598341 4.302146,6.628136 4.29333,6.635531 4.251672,6.650633 4.20333,6.656403 4.134445,6.670304 3.983881,6.662923 3.959033,6.732926 3.907293,6.777956 3.903619,6.77973 3.877714,6.789629 3.875101,6.797661 3.852876,6.798282 3.843995,6.804199 3.831666,6.807388 3.791475,6.818317 3.731339,6.813035 3.677181,6.790308 3.64058,6.797564 3.620841,6.800817 3.606129,6.797578 3.593488,6.799786 3.572369,6.792993 3.51672,6.787182 3.459606,6.781093 3.428163,6.767576 3.342764,6.80692 3.314016,6.80955 3.294322,6.812898 3.277474,6.807145 3.225191,6.784963 3.146378,6.751863 3.135956,6.744138 3.052634,6.685291 3.04652,6.681014 3.043948,6.678903 3.039998,6.668236 3.02572,6.635515 2.96991,6.602977 2.936063,6.592743 2.897886,6.563307 2.829207,6.517631 2.799508,6.499106 2.791015,6.494085 2.77088,6.487217 2.691274,6.435222 2.686481,6.431797 2.684818,6.429881 2.683853,6.427345 2.664164,6.40654 2.653351,6.398506 2.629434,6.389151 2.592505,6.388345 2.563678,6.381698 2.541023,6.378482 2.493523,6.351002 2.475573,6.339974 2.447651,6.328506 2.285953,6.257051 2.171022,6.1996 2.078902,6.16463 2.05961,6.167145 2.034199,6.158849 1.988963,6.145291 1.874682,6.13362 1.704184,6.125227 1.676902,6.124454 1.647638,6.129457 1.634963,6.13462 1.62157,6.136772 1.569818,6.140864 1.552709,6.142318 1.526909,6.143742 1.506546,6.152949 1.501536,6.1561 1.46036,6.156691 1.327272,6.249117 1.31818,6.256234 1.261505,6.351712 1.25321,6.390286 1.241162,6.436162 1.24094,6.436562 1.221908,6.477117 1.214129,6.48428 1.209523,6.494223 1.182158,6.499435 1.044172,6.527973 0.9922,6.509966 0.966195,6.494036 0.963399,6.49345 0.949545,6.484448 0.935509,6.476383 0.932517,6.472462 0.909858,6.442871 0.818127,6.320571 0.812526,6.30661 0.813138,6.258706 0.813263,6.257554 0.813412,6.257243 0.815348,6.254211 0.843992,6.205792 0.841359,6.177766 0.814774,6.030913 0.76694,6.015553 0.754126,6.015742 0.718693,6.015932 0.692274,6.016141 0.679136,6.011274 0.661066,6.005593 0.590593,5.966355 0.515986,5.902898 0.508291,5.887388 0.491997,5.855369 0.490703,5.852704 0.49079,5.848122 0.493045,5.764685 0.483652,5.727783 0.476743,5.629829 0.467345,5.588581 0.465991,5.573443 0.442014,5.513124 0.435535,5.462684 0.427831,5.411816 0.419056,5.391119 0.417537,5.359977 0.416861,5.325554 0.415521,5.318064 0.408413,5.296115 0.407602,5.282224 0.4137,5.27311 0.428111,5.207946 0.431626,5.20034 0.465186,5.133625 0.465453,5.053535 0.466237,5.042569 0.4646,5.03065 0.453534,5.001817 0.442834,4.962904 0.4163,4.929941 0.413189,4.92652 0.41306,4.925416 0.250282,4.721626 0.241976,4.702744 0.238833,4.690117 0.234243,4.676183 0.206137,4.630646 0.192698,4.540634 0.184589,4.519107 0.184338,4.501628 0.182222,4.460955 0.181185,4.407097 0.189027,4.370125 0.209517,4.279347 0.211176,4.276544 0.240392,4.224455 0.261842,4.179898 0.276326,4.15712 0.399799,4.002213 0.41488,3.984436 0.455534,3.911095 0.461796,3.884613 0.465455,3.862501 0.462045,3.843678 0.466177,3.829089 0.463479,3.810228 0.467143,3.78232 0.46245,3.766576 0.444847,3.725244 0.441162,3.70936 0.42852,3.682674 0.408132,3.631253 0.408317,3.620549 0.407493,3.610277 0.410099,3.597605 0.413065,3.573281 0.427501,3.50071 0.435136,3.447521 0.44414,3.377363 0.465212,3.329001 0.475697,3.28285 0.476011,3.204245 0.493296,3.164894 0.498664,3.139555 0.492344,3.112544 0.492215,3.100222 0.490686,3.089769 0.49098,3.080407 0.505199,3.035976 0.507222,3.021016 0.51026,3.015803 0.556805,2.989913 0.591798,2.954829 0.671872,2.902987 0.680531,2.899617 0.689567,2.896398 0.694629,2.895032 0.729026,2.894079 0.798166,2.894492 0.811473,2.853943 0.833757,2.787505 0.841623,2.733839 0.843376,2.706435 0.814954,2.6566 0.81326,2.6539 0.813166,2.652965 0.812765,2.605088 0.828118,2.578213 0.843534,2.547067 0.857392,2.526745 0.88204,2.499018 0.935463,2.435284 0.948193,2.429019 1.002218,2.396896 1.017211,2.391635 1.041111,2.378335 1.058087,2.383165 1.162905,2.405546 1.198561,2.409849 1.226371,2.436454 1.231122,2.447261 1.236269,2.45453 1.246597,2.501161 1.253831,2.533719 1.256745,2.544108 1.302015,2.611554 1.317184,2.641964 1.32928,2.66474 1.383026,2.70571 1.397717,2.719205 1.413778,2.724676 1.461997,2.75517 1.502399,2.75565 1.506511,2.758588 1.524566,2.768402 1.553171,2.766575 1.560232,2.766704 1.586581,2.772743 1.618728,2.789991 1.652633,2.786272 1.685476,2.79233 1.760476,2.793629 1.784981,2.784683 1.874279,2.779306 2.063658,2.749373 2.078399,2.748097 2.105053,2.727072 2.157125,2.703243 2.200555,2.689532 2.225249,2.680656 2.234801,2.673334 2.245363,2.670893 2.320083,2.639051 2.377095,2.619549 2.408194,2.589784 2.42472,2.5843 2.469343,2.573675 2.511186,2.549391 2.544278,2.532717 2.551129,2.530238 2.555019,2.528657 2.597687,2.524216 2.613699,2.52497 2.632115,2.521453 2.652275,2.513225 2.660405,2.507771 2.685862,2.484771 2.688138,2.48073 2.690985,2.477459 2.72404,2.461016 2.739183,2.442652 2.777958,2.417461 2.795223,2.412249 2.818542,2.39861 3.022763,2.27831 3.025228,2.274005 3.027915,2.271884 3.04673,2.228591 3.048219,2.226546 3.060358,2.219265 3.161782,2.151141 3.207173,2.12757 3.263922,2.099668 3.290186,2.094786 3.361047,2.109388 3.3741,2.112865 3.391362,2.122465 3.423286,2.144465 3.454297,2.132992 3.520779,2.123728 3.554614,2.116427 3.576078,2.114578 3.607972,2.113719 3.622328,2.11089 3.639232,2.113554 3.681644,2.123412 3.72762,2.09765 3.753273,2.09316" style="fill: white" />
</svg>
