<svg width="13.600213" height="8.910821">
<polygon type="contour" points="4.44232,0.61279 4.45017,0.615146 4.47227,0.614631 4.515517,0.613067 4.580815,0.61923 4.664168,0.645408 4.668356,0.648394 4.695434,0.676513 4.799509,0.789555 4.836347,0.798473 4.886418,0.81282 4.929373,0.81143 4.950983,0.78659 4.953803,0.778792 4.968883,0.755872 4.980671,0.73867 4.998306,0.731368 5.000229,0.728513 5.003887,0.728815 5.01741,0.731087 5.025249,0.7295 5.035913,0.72853 5.127753,0.76415 5.207047,0.781501 5.234822,0.79104 5.249372,0.793405 5.264666,0.791661 5.295503,0.802821 5.322314,0.80771 5.375092,0.810423 5.386274,0.812034 5.409634,0.819169 5.42823,0.815058 5.444514,0.81232 5.472056,0.815929 5.539404,0.828945 5.590186,0.819855 5.616364,0.820226 5.763327,0.871672 5.902263,0.907152 5.924106,0.921696 5.953849,0.926928 6.018536,0.944723 6.068143,0.961542 6.216901,0.996352 6.237565,0.998701 6.290027,1.012677 6.337507,1.019563 6.456734,1.058332 6.482461,1.05759 6.489606,1.057982 6.505035,1.061856 6.581283,1.099497 6.602962,1.11008 6.661621,1.142429 6.730737,1.180669 6.750734,1.199387 6.761515,1.211591 6.928443,1.386633 6.954524,1.432099 7.011283,1.506955 7.083044,1.609901 7.121084,1.674024 7.157044,1.738898 7.257403,1.918571 7.292679,1.978095 7.342427,2.04632 7.444784,2.166808 7.536154,2.271818 7.564054,2.295492 7.572688,2.313063 7.586977,2.341662 7.599929,2.35336 7.61321,2.373048 7.639586,2.392469 7.670055,2.434929 7.691708,2.460494 7.700722,2.470203 7.704463,2.47778 7.710826,2.490221 7.722549,2.498492 7.773392,2.544009 7.785602,2.546418 7.796701,2.556137 7.821961,2.561984 7.841563,2.575582 7.875608,2.605618 7.892463,2.630529 7.912326,2.645347 7.933425,2.681017 7.943822,2.69375 7.953888,2.714326 7.970244,2.730723 7.990743,2.741372 7.997501,2.752854 8.015882,2.757778 8.159356,2.880911 8.175947,2.886722 8.20619,2.917367 8.273171,2.979672 8.273786,2.980667 8.301014,3.009455 8.316465,3.019271 8.342382,3.03696 8.367405,3.041688 8.391561,3.05457 8.400216,3.061474 8.433581,3.080519 8.441971,3.084746 8.445743,3.086893 8.488716,3.117072 8.497248,3.119633 8.526115,3.14152 8.550219,3.144315 8.590167,3.16803 8.597611,3.175349 8.60529,3.184056 8.625306,3.19452 8.636038,3.200873 8.642221,3.203346 8.644217,3.205505 8.666562,3.214687 8.670876,3.218997 8.694016,3.230248 8.720722,3.251898 8.763841,3.296946 8.777712,3.309337 8.787557,3.319075 8.81873,3.342392 8.871545,3.372183 8.886375,3.387569 8.898038,3.395423 8.925045,3.411628 8.927878,3.413611 8.938224,3.422635 8.963872,3.444103 8.968678,3.448337 8.984375,3.46631 8.987826,3.487838 9.000459,3.503051 9.006584,3.512022 9.00969,3.515163 9.017212,3.533691 9.031709,3.541251 9.039626,3.553083 9.048103,3.563787 9.047653,3.578584 9.061914,3.586954 9.056533,3.616792 9.06355,3.620186 9.059595,3.644122 9.069163,3.655183 9.067586,3.668208 9.077292,3.673968 9.07607,3.692674 9.083905,3.711377 9.090016,3.720432 9.102122,3.734019 9.113344,3.757078 9.119239,3.770952 9.13292,3.792213 9.143155,3.820825 9.160588,3.840745 9.16575,3.868145 9.23256,3.95152 9.238604,3.954161 9.25707,3.986942 9.274506,4.019624 9.318552,4.127047 9.320308,4.13675 9.324163,4.150349 9.324324,4.168407 9.330057,4.177381 9.328869,4.196955 9.330899,4.220844 9.321762,4.233897 9.30396,4.261081 9.293084,4.281302 9.296103,4.317938 9.29582,4.320314 9.295708,4.322956 9.279967,4.429593 9.289142,4.546827 9.294186,4.629103 9.299266,4.638143 9.305664,4.655412 9.329799,4.689998 9.3293,4.707661 9.33072,4.718266 9.324908,4.732273 9.33194,4.74675 9.320807,4.764077 9.31725,4.783579 9.305878,4.814949 9.293267,4.85281 9.284789,4.865498 9.263342,4.90896 9.253664,4.927665 9.250747,4.930628 9.225166,4.96741 9.179822,5.027743 9.169484,5.050493 9.164189,5.069622 9.078918,5.200005 9.057981,5.257806 9.063551,5.291431 9.062936,5.291728 9.06173,5.329625 9.053759,5.340924 9.031566,5.370538 9.018159,5.377516 8.986064,5.441815 8.984498,5.445178 8.951346,5.476941 8.934291,5.492472 8.934068,5.493096 8.898394,5.51487 8.888654,5.521507 8.834836,5.562376 8.796245,5.584408 8.784828,5.594682 8.687971,5.68627 8.644263,5.706284 8.642737,5.708196 8.636988,5.71128 8.606618,5.72614 8.597698,5.735883 8.578541,5.753316 8.564372,5.762324 8.555622,5.767316 8.529125,5.768413 8.509926,5.786068 8.462991,5.801868 8.438063,5.838029 8.435726,5.840015 8.40736,5.84524 8.398636,5.853836 8.382535,5.860306 8.356471,5.872651 8.335988,5.878328 8.312745,5.895086 8.298741,5.904338 8.276776,5.929015 8.276384,5.929947 8.209657,5.990455 8.208477,5.991413 8.164325,6.033379 8.061839,6.10947 8.033174,6.133738 8.012883,6.157627 7.950714,6.198288 7.928631,6.22457 7.892194,6.283272 7.868898,6.304355 7.862715,6.315523 7.833085,6.341165 7.82045,6.350621 7.797857,6.360043 7.769414,6.368512 7.707339,6.427405 7.696686,6.439447 7.65876,6.484674 7.63928,6.522273 7.610274,6.543443 7.58419,6.581786 7.543695,6.631874 7.466881,6.727141 7.380336,6.835204 7.347882,6.875394 7.221327,7.052668 7.183393,7.117437 7.120284,7.228258 7.065086,7.313547 7.025898,7.381562 7.019046,7.388934 7.01032,7.407451 6.957755,7.495732 6.824385,7.647777 6.798363,7.677741 6.789794,7.685286 6.680847,7.765848 6.672907,7.770937 6.644046,7.782728 6.579672,7.816287 6.549358,7.833751 6.502996,7.848871 6.483557,7.848979 6.32672,7.891156 6.27203,7.904835 6.166065,7.922441 6.158344,7.924324 6.153107,7.92643 6.002826,7.983781 5.93625,7.997268 5.838921,8.013641 5.809427,8.021012 5.776015,8.035076 5.632748,8.087937 5.531356,8.087373 5.524804,8.089119 5.511886,8.090034 5.38202,8.101233 5.329309,8.103216 5.270445,8.122321 5.243745,8.117648 5.184348,8.132454 5.178324,8.133798 5.062652,8.178431 5.001767,8.182673 4.985629,8.176974 4.98092,8.173316 4.974154,8.161272 4.965218,8.147783 4.962433,8.133224 4.927251,8.100271 4.877439,8.109246 4.828819,8.104603 4.74019,8.191948 4.672216,8.256204 4.64122,8.272325 4.573714,8.287191 4.520946,8.299147 4.474288,8.303713 4.46699,8.302339 4.446051,8.299134 4.434958,8.296593 4.416162,8.299023 4.270502,8.29258 4.261891,8.291506 4.146822,8.241683 4.13218,8.237722 4.120663,8.220143 4.100134,8.196521 4.072863,8.187608 4.041507,8.189531 4.033767,8.185257 3.91582,8.121908 3.829977,8.051789 3.762522,7.99697 3.711961,7.963916 3.694018,7.948563 3.630414,7.911856 3.626103,7.909809 3.586863,7.886764 3.560678,7.866359 3.534929,7.839051 3.520555,7.826593 3.479371,7.800214 3.478181,7.798808 3.337774,7.65718 3.319898,7.643728 3.175509,7.616056 3.069144,7.581508 3.066409,7.581113 2.966173,7.542037 2.964233,7.554624 2.92988,7.545019 2.862447,7.552714 2.815742,7.559834 2.789418,7.54556 2.768409,7.56608 2.650182,7.580682 2.448409,7.562097 2.428022,7.562439 2.325382,7.573984 2.263907,7.592365 2.171788,7.611048 2.147281,7.63251 2.138015,7.630414 2.08128,7.628939 1.95952,7.61464 1.908257,7.606375 1.884032,7.613148 1.86938,7.619596 1.865783,7.621579 1.623613,7.582907 1.609134,7.579584 1.604652,7.577568 1.598665,7.576269 1.590896,7.57097 1.580575,7.553705 1.567198,7.531756 1.529313,7.523096 1.496714,7.514379 1.480817,7.506181 1.459631,7.503043 1.427663,7.495145 1.411064,7.492356 1.393307,7.48398 1.387472,7.485188 1.386638,7.484943 1.343628,7.485849 1.324269,7.482201 1.303119,7.472145 1.28932,7.473128 1.242872,7.46909 1.092088,7.437984 1.076511,7.433347 0.9717,7.45009 0.952035,7.449361 0.936828,7.443709 0.865564,7.436324 0.803232,7.416598 0.775074,7.396922 0.733031,7.385065 0.699465,7.375892 0.672662,7.380626 0.652352,7.38015 0.615995,7.343725 0.506333,7.288419 0.487785,7.265946 0.482034,7.241756 0.454326,7.178489 0.443434,7.115776 0.433423,7.055996 0.426912,7.037822 0.415874,6.989877 0.409503,6.948918 0.410782,6.941398 0.41567,6.932869 0.415628,6.919492 0.425868,6.905499 0.431515,6.891577 0.434004,6.877653 0.432562,6.856223 0.436156,6.850007 0.434998,6.766405 0.433702,6.577012 0.433536,6.553236 0.46352,6.184356 0.465141,6.175681 0.462377,6.162104 0.462291,6.157876 0.460068,6.099537 0.441482,6.024602 0.432399,5.996984 0.419936,5.954605 0.411824,5.852262 0.418755,5.738931 0.415162,5.653846 0.417333,5.64475 0.423366,5.590115 0.425551,5.58062 0.419025,5.502377 0.419106,5.412977 0.40207,5.357324 0.387766,5.249098 0.372489,5.110163 0.371038,5.088346 0.368698,5.079094 0.36819,5.060237 0.358551,5.037483 0.347676,5.027322 0.336576,5.014502 0.327355,4.954422 0.31783,4.699455 0.325869,4.601501 0.332881,4.592187 0.336762,4.582776 0.351837,4.538574 0.35562,4.365069 0.323964,4.299996 0.31954,4.146481 0.324657,4.037152 0.337617,3.900927 0.354625,3.879317 0.366276,3.861004 0.369161,3.823238 0.369903,3.781127 0.383911,3.67511 0.402547,3.569621 0.408374,3.515082 0.418001,3.496124 0.418424,3.381622 0.425382,3.330172 0.423147,3.320933 0.416575,3.25767 0.415121,3.218706 0.41516,3.078907 0.4235,2.961047 0.439331,2.88235 0.459106,2.856388 0.462651,2.754888 0.464721,2.742223 0.453669,2.652795 0.429984,2.412607 0.427577,2.360782 0.43384,2.339424 0.428251,2.198494 0.435577,2.082699 0.435579,2.065128 0.434549,2.062198 0.435049,2.034111 0.431518,2.020051 0.425823,2.006004 0.415613,1.99199 0.415571,1.980058 0.410492,1.9711 0.409032,1.964399 0.414027,1.928424 0.43425,1.849464 0.445529,1.803685 0.444708,1.770748 0.482499,1.682479 0.508003,1.638155 0.56556,1.584193 0.591181,1.567535 0.683805,1.519052 0.736021,1.522404 0.743093,1.521477 0.755658,1.520194 0.764176,1.517016 0.79177,1.506768 0.81493,1.490035 0.839438,1.482443 0.939757,1.467149 0.947699,1.465132 0.958803,1.464807 0.962921,1.464323 0.988716,1.465397 0.998216,1.46573 1.025921,1.47757 1.063903,1.47769 1.069066,1.478468 1.091491,1.480421 1.239707,1.444279 1.26152,1.438961 1.289916,1.440089 1.323166,1.436696 1.384311,1.428778 1.484031,1.403031 1.492106,1.399785 1.514124,1.392505 1.564618,1.381008 1.578015,1.362911 1.580486,1.358389 1.590663,1.340936 1.627083,1.328126 1.712471,1.315285 1.885387,1.294724 1.90771,1.30919 2.115245,1.27905 2.118891,1.277967 2.121166,1.277811 2.123143,1.277923 2.220184,1.303313 2.225159,1.308979 2.24201,1.320376 2.267919,1.327402 2.283977,1.33438 2.294534,1.335394 2.554696,1.35284 2.638874,1.330619 2.663283,1.334918 2.713481,1.337359 2.720374,1.338305 2.773165,1.348496 2.82562,1.360253 2.836707,1.359774 2.950761,1.357469 3.010736,1.334546 3.192614,1.300388 3.269702,1.282289 3.341103,1.24849 3.388865,1.207115 3.468927,1.124784 3.472525,1.119776 3.483042,1.109024 3.49441,1.099961 3.518037,1.078656 3.575098,1.031825 3.579881,1.027456 3.597859,1.012725 3.623045,0.994697 3.625438,0.99405 3.642975,0.984373 3.681291,0.968408 3.68519,0.96426 3.695093,0.958989 3.696981,0.958408 3.704427,0.954317 3.82118,0.87986 3.855241,0.830239 3.920252,0.789855 4.035544,0.723443 4.047188,0.720849 4.081761,0.726514 4.124877,0.68686 4.128514,0.67893 4.14396,0.669336 4.186077,0.653352 4.23051,0.638561 4.315803,0.628197 4.356568,0.619312 4.394984,0.61215 4.419295,0.609987" style="fill: white" /><polygon type="hole" points="4.326333,2.64468 4.189298,2.683893 4.119142,2.720485 4.09733,2.735362 3.914102,2.886769 3.850045,2.942917 3.721471,3.096742 3.671723,3.168629 3.638443,3.228009 3.622415,3.267541 3.506269,3.440658 3.450182,3.526233 3.439882,3.565444 3.402442,3.637248 3.391702,3.666105 3.327988,3.793607 3.254041,4.027039 3.244967,4.095601 3.237938,4.130716 3.220304,4.324178 3.224411,4.354269 3.21613,4.566188 3.218367,4.652566 3.223676,4.664291 3.22371,4.673047 3.238954,4.808773 3.249334,4.872576 3.287612,5.031244 3.301706,5.080087 3.307333,5.093939 3.358044,5.189908 3.454458,5.376874 3.475774,5.435536 3.544756,5.534089 3.627938,5.654625 3.638662,5.684504 3.677055,5.750264 3.729612,5.828898 3.8516,5.974193 3.9397,6.058806 3.947167,6.064541 3.982442,6.092301 4.118066,6.189608 4.18889,6.227432 4.260622,6.248269 4.336253,6.272688 4.418925,6.275106 4.474722,6.280983 4.512795,6.274307 4.575928,6.287932 4.754547,6.22902 4.793392,6.219079 4.811367,6.221703 4.840698,6.230385 4.857286,6.230929 4.891421,6.230608 5.118832,6.238089 5.214968,6.231715 5.435879,6.171008 5.461069,6.164208 5.484746,6.14791 5.647083,6.044108 5.723188,6.014461 5.757727,6.015893 5.817568,6.00536 5.934375,5.913343 5.963404,5.896254 5.977398,5.884487 5.982946,5.884451 6.023308,5.877447 6.140102,5.798564 6.153589,5.790915 6.154701,5.790022 6.157562,5.789521 6.159561,5.787645 6.27843,5.785438 6.39604,5.690046 6.445815,5.630121 6.518872,5.569713 6.574672,5.495263 6.609536,5.438022 6.69648,5.299943 6.748532,5.191083 6.773957,5.116091 6.800069,5.044485 6.812508,4.942602 6.838305,4.87614 6.864441,4.770843 6.869757,4.673583 6.867586,4.603824 6.871686,4.58332 6.886453,4.463714 6.872439,4.30522 6.870845,4.287929 6.872677,4.266316 6.865606,4.093262 6.831406,3.993847 6.824472,3.97824 6.796956,3.858462 6.730278,3.698522 6.696487,3.622097 6.586828,3.445618 6.56838,3.419475 6.563037,3.411894 6.552016,3.398232 6.463411,3.29085 6.42366,3.245279 6.304778,3.148957 6.277588,3.125128 6.159209,3.123707 6.154367,3.122294 6.103416,3.096385 6.053512,3.052277 6.044646,3.044515 5.989964,3.026668 5.975108,3.02369 5.950151,3.004366 5.818827,2.906606 5.737632,2.899117 5.695937,2.88974 5.676785,2.871893 5.466413,2.75181 5.305303,2.705895 5.194299,2.674167 4.962918,2.673006 4.925883,2.670639 4.799408,2.692933 4.712706,2.660588 4.635396,2.644683 4.528694,2.6366" style="fill: black" /><polygon type="contour" points="6.366916,3.485301 6.380205,3.494324 6.406834,3.52531 6.418073,3.560295 6.419826,3.658171 6.421382,3.691739 6.417984,3.791079 6.415058,3.809677 6.407723,3.840489 6.422323,3.995981 6.430976,4.134025 6.439407,4.205184 6.448132,4.338654 6.448718,4.346648 6.448547,4.352401 6.448922,4.353872 6.44779,4.3651 6.444554,4.414964 6.450167,4.442587 6.454811,4.537431 6.453421,4.559988 6.444561,4.650633 6.4283,4.808248 6.42349,4.842023 6.424603,4.876318 6.420744,4.916323 6.419857,4.974928 6.421064,5.102364 6.416695,5.164863 6.418798,5.191807 6.423532,5.302201 6.409711,5.373053 6.405554,5.385125 6.398314,5.395021 6.358374,5.411308 6.322299,5.41885 6.262692,5.389194 6.244856,5.381932 6.216519,5.348349 6.201163,5.327617 6.154449,5.23335 6.152934,5.230517 6.152657,5.230034 6.15245,5.229277 6.100258,5.072986 6.099835,5.060184 6.09201,4.917388 6.09726,4.84204 6.101542,4.787926 6.111727,4.740816 6.124329,4.688198 6.135731,4.603243 6.140068,4.56027 6.143178,4.427976 6.14023,4.347235 6.135775,4.303854 6.128899,4.285482 6.120862,4.221494 6.122652,4.179255 6.12121,4.120296 6.117564,4.10782 6.116954,4.09737 6.099688,4.043814 6.095516,3.997356 6.103355,3.968028 6.106586,3.909842 6.110825,3.826404 6.109496,3.802583 6.113602,3.783362 6.120336,3.765572 6.149668,3.68422 6.186816,3.613827 6.213091,3.567851 6.23706,3.537754 6.264829,3.51365 6.328253,3.480648 6.343996,3.480433" style="fill: white" />
</svg>
