<svg width="13.600213" height="8.910821">
<polygon type="contour" points="7.567116,2.891119 7.634308,2.901121 7.671001,2.907825 7.694098,2.909208 7.784165,2.897895 7.869437,2.919144 7.898144,2.933146 8.125977,2.980689 8.188004,3.029504 8.236078,3.074404 8.281165,3.135278 8.326197,3.200706 8.427039,3.357165 8.431487,3.363232 8.438778,3.394299 8.449925,3.435109 8.455651,3.515438 8.456374,3.518653 8.456448,3.521806 8.463447,3.559404 8.463644,3.560607 8.463709,3.561911 8.464046,3.564322 8.463934,3.567026 8.464596,3.589849 8.460322,3.607816 8.453948,3.723982 8.45133,3.819261 8.446967,3.884192 8.445628,3.921927 8.450449,3.950439 8.454406,3.96628 8.500647,4.039274 8.516069,4.087494 8.530605,4.188166 8.526656,4.228305 8.527374,4.240319 8.537553,4.275427 8.5364,4.291629 8.540765,4.319223 8.542519,4.325364 8.539568,4.469803 8.533864,4.619222 8.537261,4.641383 8.522945,4.687892 8.531027,4.718561 8.517184,4.813324 8.476176,4.919157 8.447023,4.974654 8.445921,4.991366 8.451807,5.182771 8.454272,5.202262 8.467176,5.283325 8.463615,5.346002 8.439535,5.490284 8.43282,5.510852 8.401384,5.598986 8.228604,5.853308 8.209984,5.880499 8.198365,5.888218 8.087507,5.941386 7.933253,5.97318 7.71756,6.008893 7.687408,6.001638 7.626817,6.010371 7.574324,6.017404 7.526387,6.029704 7.503598,6.031108 7.476294,6.02535 7.45695,6.014066 7.431658,6.001166 7.422392,5.993841 7.412817,5.985467 7.368011,5.93473 7.364774,5.926583 7.35677,5.894018 7.358269,5.88188 7.362976,5.840339 7.420597,5.767842 7.134537,5.773617 7.061691,5.772495 7.054571,5.772385 7.032026,5.769582 7.028891,5.768808 7.018438,5.766228 7.011759,5.76458 7.005179,5.762592 6.978249,5.754448 6.949706,5.711381 6.956033,5.667489 7.008547,5.628559 7.07861,5.599138 7.123327,5.582531 7.170101,5.570192 7.202373,5.568569 7.227713,5.563667 7.244265,5.560464 7.283028,5.555291 7.294854,5.553713 7.445023,5.544408 7.450371,5.544078 7.488524,5.541713 7.508904,5.513875 7.538057,5.441017 7.554422,5.409587 7.588062,5.260465 7.624616,5.07038 7.632253,5.03932 7.632928,5.033945 7.633073,5.032785 7.633819,5.026861 7.635614,5.012572 7.636007,5.009439 7.641764,4.963622 7.643426,4.9504 7.648551,4.909622 7.659148,4.825284 7.532759,4.869094 7.505853,4.86523 7.476452,4.863123 7.448688,4.850093 7.442048,4.847141 7.438006,4.841283 7.422245,4.815518 7.400811,4.781364 7.400057,4.776104 7.397691,4.748107 7.393285,4.677869 7.391291,4.669325 7.394231,4.660047 7.393331,4.630536 7.392629,4.62679 7.397623,4.593187 7.403809,4.577185 7.398877,4.566692 7.399061,4.562585 7.400473,4.489438 7.398805,4.473673 7.404423,4.465797 7.401578,4.443249 7.40284,4.433044 7.420433,4.423044 7.405197,4.384031 7.394406,4.33948 7.394406,4.339473 7.398595,4.299101 7.39893,4.289223 7.406807,4.247458 7.400879,4.217451 7.396962,4.20145 7.398596,4.184291 7.413239,4.168773 7.41353,4.142478 7.414322,4.121738 7.446785,4.072436 7.452623,4.064672 7.453259,4.062646 7.483384,4.049732 7.496471,4.044632 7.569963,4.044224 7.638295,4.096545 7.625397,3.917506 7.603465,3.756886 7.588205,3.651448 7.558368,3.515442 7.541648,3.45445 7.478051,3.457173 7.459091,3.457986 7.456407,3.458101 7.45219,3.457891 7.357848,3.453197 7.192427,3.438372 7.160343,3.431424 7.030472,3.381805 7.000272,3.369403 6.995456,3.366623 6.991235,3.363216 6.9709,3.275567 7.002799,3.245164 7.147203,3.249757 7.253563,3.240044 7.268418,3.238687 7.301933,3.235627 7.329357,3.233122 7.34571,3.231629 7.349514,3.23128 7.435545,3.223093 7.415545,3.159091 7.4136,3.142333 7.392952,3.106962 7.38033,3.091202 7.359112,3.054585 7.355088,3.030631 7.361468,3.0035 7.36535,2.983221 7.412014,2.926705 7.419741,2.917165 7.423427,2.914924 7.445162,2.899932 7.465268,2.891353 7.489458,2.893205 7.506328,2.885928 7.524702,2.883956" style="fill: white" /><polygon type="contour" points="3.856555,2.256366 3.863592,2.259324 3.903733,2.293599 3.943497,2.325791 3.970981,2.396117 4.015254,2.395641 4.059473,2.391326 4.122101,2.390683 4.201072,2.39696 4.230731,2.402459 4.235459,2.404519 4.237554,2.405432 4.313936,2.438713 4.314832,2.439302 4.314887,2.439463 4.314975,2.439725 4.321502,2.458892 4.326925,2.47935 4.325571,2.481565 4.263317,2.526533 4.259802,2.529072 4.245268,2.53957 4.175913,2.560328 4.104937,2.584021 4.013253,2.614627 3.92785,2.620963 3.90581,2.700549 3.89111,2.753626 3.879448,2.77269 3.850042,2.793637 3.809715,2.846128 3.79801,2.880316 3.79726,2.881641 3.787099,2.892607 3.749437,2.937516 3.735999,2.955895 3.72158,2.963526 3.718374,2.973216 3.70209,2.97852 3.691504,2.986085 3.661528,3.006119 3.608818,3.051875 3.582855,3.077451 3.565632,3.101409 3.556726,3.113215 3.532554,3.137657 3.520606,3.144248 3.498561,3.153803 3.461607,3.191885 3.411209,3.237061 3.356035,3.289095 3.310038,3.331976 3.152803,3.50752 3.103043,3.559281 3.083579,3.574403 3.046974,3.604046 3.002288,3.650689 2.984605,3.673573 2.924469,3.781829 2.888041,3.852696 2.862296,3.953138 2.854845,3.977723 2.86249,4.018625 2.862915,4.109786 2.853945,4.152438 2.856577,4.231064 2.842727,4.385752 2.8402,4.404513 2.834122,4.455613 2.839188,4.490633 2.84172,4.513583 2.84423,4.550455 2.845646,4.605321 2.842459,4.66988 2.860224,4.879331 2.861697,4.950104 2.866119,4.992589 2.874134,5.021533 2.932367,5.135388 2.985011,5.242454 2.998129,5.258069 3.01169,5.272417 3.134963,5.386831 3.153189,5.403768 3.312545,5.577988 3.34227,5.60407 3.374817,5.633983 3.387447,5.654794 3.478305,5.739678 3.501706,5.761649 3.519692,5.769378 3.528203,5.774271 3.535921,5.781227 3.57619,5.827777 3.58142,5.836505 3.593203,5.846982 3.669249,5.909769 3.698462,5.9317 3.710444,5.935993 3.728763,5.945999 3.731009,5.948676 3.746939,5.970528 3.754089,5.979201 3.794758,6.024016 3.827431,6.08977 3.878236,6.136646 3.881032,6.139359 3.890626,6.158442 3.915543,6.251764 3.927385,6.296124 4.138837,6.343808 4.217943,6.361319 4.266611,6.374224 4.327655,6.438419 4.328322,6.439553 4.326647,6.444326 4.313133,6.472201 4.311985,6.472731 4.310082,6.473609 4.306799,6.475124 4.226861,6.500666 4.126025,6.512212 3.988976,6.505682 3.941338,6.563419 3.899698,6.627467 3.890099,6.634566 3.837683,6.655187 3.832218,6.656552 3.824526,6.653745 3.79177,6.645559 3.761449,6.63117 3.665989,6.570463 3.658237,6.562335 3.607354,6.549277 3.573749,6.545507 3.558176,6.536395 3.493461,6.52211 3.438904,6.502556 3.389175,6.476084 3.355349,6.445061 3.307683,6.418748 3.291673,6.414981 3.276886,6.407044 3.198306,6.348019 3.178486,6.332352 3.174679,6.327094 3.170794,6.324656 3.159373,6.303539 3.138947,6.294162 3.115257,6.285909 3.100202,6.287169 3.092259,6.281348 3.006797,6.248277 2.912844,6.261638 2.890953,6.262401 2.861513,6.26742 2.856228,6.269196 2.843172,6.267974 2.835337,6.263103 2.814127,6.259073 2.800942,6.259646 2.785689,6.250435 2.769904,6.236914 2.746774,6.235928 2.740671,6.231064 2.734166,6.222251 2.716953,6.211304 2.705155,6.195643 2.677584,6.192484 2.660658,6.182701 2.651488,6.168742 2.63889,6.161475 2.624602,6.151445 2.612251,6.149861 2.586089,6.140719 2.582215,6.139083 2.569723,6.130399 2.561872,6.12306 2.53955,6.115453 2.524413,6.105371 2.497414,6.102919 2.460596,6.083126 2.395772,6.035418 2.353856,6.010377 2.340901,6.004057 2.300794,5.992226 2.26651,5.958192 2.213245,5.948903 2.211211,5.948105 2.206907,5.944367 2.181562,5.938126 2.115433,5.890294 2.088057,5.872779 2.079808,5.871042 2.074682,5.868617 2.033089,5.859606 2.027394,5.858671 1.974218,5.841126 1.945807,5.869003 1.942133,5.869934 1.937224,5.868799 1.855576,5.852946 1.802526,5.830091 1.755891,5.814362 1.75155,5.811514 1.745989,5.810255 1.730855,5.804443 1.705587,5.812954 1.687868,5.803881 1.638548,5.821295 1.61535,5.855413 1.609383,5.878568 1.59853,5.896297 1.586596,5.946772 1.586024,5.950717 1.585573,5.95359 1.546533,5.997096 1.554242,6.035962 1.529773,6.058316 1.529417,6.058558 1.529216,6.058663 1.529048,6.058732 1.494388,6.071449 1.476613,6.073476 1.457751,6.078963 1.429271,6.080584 1.425424,6.082758 1.410615,6.076002 1.360981,6.054914 1.358756,6.055574 1.332735,6.036121 1.328715,6.029839 1.321867,6.026435 1.301346,5.987323 1.287655,5.965527 1.283613,5.948989 1.28113,5.934907 1.270816,5.916934 1.26117,5.907398 1.249884,5.897747 1.224126,5.853797 1.199226,5.817857 1.166372,5.824304 1.149253,5.825816 1.140268,5.829967 1.114792,5.839166 1.096922,5.853068 1.092316,5.851759 1.065633,5.865527 1.036143,5.883012 0.952754,5.906143 0.954161,5.907655 0.943845,5.909268 0.943551,5.911022 0.925801,5.914715 0.905892,5.918397 0.874579,5.926443 0.861829,5.930178 0.848815,5.932117 0.835991,5.932109 0.809051,5.93215 0.653796,5.916859 0.608532,5.903173 0.582592,5.892649 0.55211,5.859647 0.550605,5.858048 0.549962,5.856595 0.542349,5.829704 0.538655,5.812488 0.540567,5.806385 0.546299,5.797529 0.548944,5.793673 0.553432,5.789489 0.584002,5.75529 0.625357,5.720617 0.651786,5.661903 0.654006,5.654075 0.687416,5.510596 0.687014,5.479578 0.624121,5.374764 0.615732,5.361694 0.609727,5.354662 0.597135,5.338511 0.589483,5.318346 0.588415,5.28605 0.583542,5.226001 0.589899,5.21112 0.596896,5.186733 0.625426,5.114389 0.620905,5.082946 0.618426,5.06218 0.604784,5.031714 0.602473,5.018495 0.59294,5.007276 0.565098,4.95982 0.53438,4.901112 0.516021,4.88875 0.484106,4.862392 0.432418,4.844383 0.430672,4.842543 0.429947,4.841993 0.428371,4.840054 0.374748,4.763941 0.367358,4.752679 0.359165,4.735791 0.31805,4.64167 0.301168,4.499295 0.30081,4.456157 0.30281,4.414253 0.321285,4.273279 0.329302,4.241855 0.339658,4.227146 0.357857,4.17349 0.431094,4.069329 0.433143,4.06694 0.433716,4.066475 0.435784,4.064312 0.485829,4.046779 0.511411,4.020883 0.535599,4.010698 0.552136,3.963857 0.577775,3.918144 0.600889,3.892338 0.617043,3.866764 0.626915,3.842203 0.627985,3.78714 0.597926,3.72299 0.580652,3.674177 0.587145,3.628395 0.588921,3.595412 0.598913,3.568753 0.622779,3.539741 0.634209,3.521318 0.686604,3.428404 0.66554,3.327085 0.655436,3.290382 0.652828,3.276985 0.647243,3.228076 0.627372,3.198066 0.624987,3.191516 0.613683,3.178854 0.586851,3.158842 0.585155,3.157898 0.584585,3.156992 0.571715,3.141691 0.538899,3.100827 0.538717,3.097219 0.545876,3.070268 0.577189,3.024675 0.582704,3.018882 0.591465,3.016484 0.805591,2.978402 0.830834,2.978402 0.838677,2.979078 0.929323,3.013341 1.011212,3.020727 1.03728,3.027739 1.076564,3.04698 1.090623,3.058805 1.149865,3.087938 1.157256,3.085414 1.199099,3.093289 1.229688,3.050704 1.253042,3.014272 1.260351,3.007753 1.280422,2.979088 1.284103,2.962532 1.286408,2.95005 1.300122,2.926316 1.308217,2.913414 1.307632,2.900409 1.310072,2.895914 1.324113,2.883444 1.339481,2.875731 1.364893,2.852146 1.370463,2.850193 1.376308,2.851489 1.394545,2.84577 1.420178,2.831131 1.445413,2.830189 1.476602,2.838761 1.514734,2.847856 1.521253,2.849616 1.526179,2.85226 1.534121,2.859437 1.542832,2.868427 1.554238,2.875684 1.543855,2.924735 1.564708,2.930447 1.563891,2.934417 1.582256,2.952794 1.585567,2.958031 1.587683,2.969669 1.598582,3.018883 1.610631,3.037667 1.615146,3.054362 1.617323,3.062505 1.625025,3.074661 1.640954,3.089385 1.664011,3.094482 1.687884,3.107725 1.710667,3.101197 1.723242,3.104837 1.743136,3.103491 1.751447,3.09968 1.790021,3.086841 1.825356,3.072781 1.866134,3.058507 1.908625,3.0459 1.937724,3.044619 1.941123,3.047147 1.950872,3.055559 1.962964,3.058612 1.982002,3.065982 2.010881,3.056516 2.04838,3.050755 2.079069,3.042882 2.088706,3.039 2.108317,3.026246 2.161735,2.985545 2.185523,2.972426 2.206676,2.968814 2.216773,2.962118 2.268069,2.952474 2.298423,2.921251 2.339505,2.909072 2.350243,2.903587 2.407158,2.863613 2.49823,2.808497 2.525284,2.806121 2.540478,2.795794 2.560563,2.787807 2.569316,2.778744 2.582659,2.771293 2.58419,2.770962 2.608242,2.76439 2.627454,2.752502 2.638881,2.750138 2.647633,2.737484 2.661666,2.72937 2.677904,2.719625 2.684849,2.716759 2.705442,2.715672 2.722624,2.694364 2.72597,2.690293 2.74231,2.680915 2.755073,2.674428 2.781523,2.663082 2.799813,2.652597 2.81578,2.652426 2.83309,2.64549 2.863186,2.642776 2.865646,2.642941 2.867946,2.642888 2.869801,2.643392 2.919731,2.662576 2.962501,2.660704 2.977761,2.649164 2.979281,2.648122 2.985065,2.649252 3.018355,2.656368 3.03767,2.653406 3.068152,2.640602 3.088891,2.627725 3.09881,2.625363 3.113725,2.625308 3.132515,2.619823 3.141739,2.615806 3.159537,2.608146 3.172286,2.585649 3.218312,2.555896 3.272854,2.504678 3.295855,2.491306 3.326795,2.480187 3.33812,2.465178 3.339594,2.464977 3.359527,2.451034 3.385584,2.435917 3.436425,2.408281 3.468261,2.39239 3.516008,2.386894 3.52434,2.383512 3.54792,2.373224 3.559124,2.371534 3.68678,2.328263 3.711373,2.306791 3.765737,2.278565 3.828613,2.251784" style="fill: white" />
</svg>
