<svg width="13.600213" height="8.910821">
<polygon type="contour" points="4.757297,0.642022 4.85066,0.664804 4.888475,0.68763 4.931036,0.70559 5.01844,0.718294 5.224722,0.743586 5.26102,0.74835 5.269974,0.747933 5.296931,0.752634 5.336544,0.767023 5.346328,0.761299 5.366798,0.769842 5.386277,0.761991 5.392527,0.763244 5.414729,0.76077 5.447287,0.75094 5.448559,0.750969 5.496351,0.756918 5.496721,0.756971 5.498074,0.757266 5.510652,0.75929 5.530421,0.762847 5.530522,0.762832 5.531701,0.763199 5.540751,0.766199 5.609372,0.789198 5.618785,0.790921 5.646061,0.797849 5.737888,0.812569 5.756497,0.805039 5.779464,0.797149 5.92831,0.842394 5.971507,0.859672 5.978475,0.875686 6.013255,0.88908 6.036621,0.903033 6.056363,0.903148 6.084072,0.908759 6.144601,0.921942 6.164504,0.926305 6.200262,0.935358 6.288914,0.952675 6.293779,0.953737 6.311791,0.958156 6.326436,0.962767 6.328456,0.964522 6.340518,0.97705 6.341973,0.97852 6.348301,0.988727 6.365774,1.014369 6.417213,1.030442 6.460232,1.046209 6.534865,1.078759 6.676895,1.158546 6.743334,1.21508 6.770284,1.252935 6.789287,1.26948 6.892781,1.381259 7.000522,1.487021 7.053308,1.541475 7.068845,1.561396 7.142347,1.679659 7.162861,1.698025 7.182593,1.701314 7.205369,1.711099 7.209028,1.71405 7.210412,1.71588 7.302561,1.82676 7.318794,1.844616 7.324954,1.855477 7.356861,1.930591 7.378722,2.004581 7.445229,2.070095 7.509086,2.136795 7.57274,2.218005 7.645193,2.283187 7.665096,2.285981 7.73331,2.321352 7.918829,2.463709 8.00139,2.530383 8.07933,2.597005 8.080901,2.598394 8.082292,2.601212 8.089666,2.615975 8.10808,2.644868 8.113507,2.66143 8.130065,2.682669 8.163594,2.700015 8.171894,2.702077 8.190186,2.71097 8.220841,2.724073 8.241262,2.738493 8.315574,2.785321 8.355812,2.814597 8.382547,2.846291 8.403318,2.867649 8.42788,2.892375 8.439488,2.897274 8.452779,2.908084 8.485881,2.936845 8.507799,2.952566 8.52102,2.963526 8.525884,2.972123 8.545725,2.988774 8.574914,3.018229 8.635606,3.072451 8.655076,3.105094 8.66623,3.118 8.691638,3.131769 8.702159,3.145428 8.72474,3.163178 8.775236,3.225037 8.837937,3.266125 8.839407,3.266944 8.839908,3.267446 8.841609,3.268774 8.890794,3.314562 8.909189,3.330345 8.918691,3.341102 8.945325,3.346149 9.008663,3.378832 9.014515,3.383044 9.0241,3.389941 9.035386,3.395783 9.143376,3.493884 9.155301,3.504685 9.172681,3.515095 9.232139,3.579936 9.285021,3.651481 9.299781,3.675481 9.325207,3.6982 9.356165,3.748763 9.376141,3.775869 9.384488,3.802162 9.390155,3.822844 9.410455,3.84414 9.418704,3.865679 9.419113,3.866965 9.416381,3.893368 9.421727,3.914036 9.428388,3.933719 9.434176,3.939964 9.455052,3.967618 9.49941,4.006848 9.501011,4.012073 9.513993,4.042091 9.524602,4.113458 9.531966,4.139444 9.54586,4.151696 9.55021,4.156525 9.553945,4.191121 9.563181,4.293652 9.56497,4.301023 9.566558,4.305799 9.567301,4.311163 9.568106,4.331506 9.566445,4.602 9.563745,4.6151 9.5649,4.621582 9.567628,4.679361 9.557167,4.716977 9.550658,4.755571 9.548223,4.758007 9.533143,4.771404 9.521944,4.791943 9.519579,4.852068 9.51916,4.864186 9.509606,4.882654 9.49879,4.906619 9.45849,4.938865 9.430345,4.969819 9.423174,4.997909 9.419303,5.007491 9.416606,5.030437 9.410589,5.067256 9.410206,5.068904 9.40888,5.070077 9.39242,5.083779 9.385287,5.105235 9.375843,5.135975 9.355157,5.162624 9.323675,5.204323 9.217911,5.344914 9.203156,5.36325 9.200627,5.367961 9.197695,5.370553 9.193387,5.374531 9.126465,5.420942 9.053729,5.502389 8.995298,5.547378 8.983567,5.551448 8.942457,5.560384 8.936428,5.567795 8.90283,5.583731 8.841036,5.643624 8.834536,5.641999 8.774434,5.688828 8.722696,5.750511 8.717659,5.755012 8.685533,5.77911 8.662503,5.797324 8.648166,5.811749 8.577765,5.891093 8.540235,5.92909 8.523088,5.943549 8.518981,5.950561 8.508067,5.959606 8.482568,5.973897 8.473409,5.986223 8.431888,6.008671 8.38896,6.061662 8.367328,6.077192 8.354264,6.09501 8.321526,6.121616 8.212697,6.193778 8.1468,6.220905 8.118334,6.251197 8.114472,6.264387 8.08157,6.30368 8.079672,6.316982 8.029655,6.361554 7.851488,6.512455 7.735073,6.587384 7.681384,6.602892 7.651988,6.616424 7.579486,6.688204 7.507399,6.777726 7.493857,6.78775 7.482286,6.811478 7.454319,6.84222 7.44888,6.848164 7.410878,6.880585 7.379019,6.914358 7.365639,6.980979 7.364782,6.982055 7.36049,6.986844 7.302997,7.069315 7.222319,7.179418 7.20877,7.196028 7.199185,7.205589 7.155248,7.218304 7.135815,7.24669 7.129573,7.25687 7.115095,7.273931 7.003262,7.408869 6.978253,7.437454 6.927022,7.502632 6.86899,7.560225 6.75686,7.682792 6.706351,7.735848 6.686805,7.751049 6.603759,7.802613 6.54464,7.835178 6.542748,7.837426 6.530943,7.843616 6.519275,7.848587 6.370078,7.900227 6.369351,7.902285 6.343218,7.931295 6.328426,7.947123 6.319384,7.950934 6.314007,7.953201 6.312044,7.953797 6.3102,7.954516 6.212834,7.975588 6.132097,7.993933 6.092024,8.002046 6.065793,8.007775 6.035641,8.008982 6.00341,8.024787 5.853107,8.093904 5.801486,8.11325 5.745951,8.109394 5.723063,8.097456 5.632795,8.118569 5.620998,8.120946 5.529442,8.144528 5.5185,8.147498 5.507731,8.1497 5.502721,8.150426 5.445807,8.160367 5.373269,8.144374 5.35419,8.147042 5.330657,8.146782 5.323874,8.149484 5.203454,8.173356 4.988468,8.200938 4.933902,8.207242 4.891581,8.221806 4.748834,8.270285 4.690524,8.273672 4.654117,8.268556 4.556133,8.240311 4.537018,8.230182 4.515952,8.227348 4.462053,8.22517 4.353479,8.218464 4.335592,8.209512 4.255372,8.198912 4.238823,8.194281 4.184136,8.175261 4.135708,8.156556 4.06287,8.15204 4.032619,8.146959 4.025253,8.142919 4.013141,8.134587 3.90205,8.038464 3.881214,8.032807 3.87596,8.026109 3.798587,7.981772 3.666005,7.916585 3.657068,7.918634 3.624362,7.901303 3.608072,7.887992 3.494507,7.839579 3.482263,7.828504 3.474246,7.815277 3.460891,7.800914 3.427153,7.779069 3.397984,7.767935 3.370133,7.755468 3.338182,7.760614 3.220741,7.729239 3.202537,7.72406 3.19839,7.719881 3.195348,7.718047 3.160284,7.684241 3.132386,7.671573 3.117975,7.655114 3.100978,7.63207 3.090724,7.612062 3.072057,7.609008 3.052913,7.600404 3.009594,7.598528 2.996437,7.594734 2.865447,7.56656 2.810251,7.543844 2.793727,7.525653 2.770611,7.517125 2.757862,7.508622 2.66144,7.488432 2.651093,7.485339 2.616538,7.474672 2.607553,7.46629 2.588777,7.464766 2.447489,7.443065 2.394471,7.469922 2.321457,7.496169 2.252813,7.495346 2.216529,7.5175 2.212926,7.526243 2.196142,7.536631 2.160303,7.538637 2.124757,7.55023 2.117072,7.552349 2.101343,7.551601 2.086339,7.553905 2.048759,7.547367 1.9819,7.524277 1.814576,7.494783 1.73175,7.472013 1.635809,7.422474 1.596843,7.389085 1.564412,7.356725 1.510646,7.327437 1.456919,7.31011 1.23755,7.196993 1.22043,7.187888 1.199064,7.180046 1.142788,7.180887 1.131488,7.182826 1.10605,7.180673 1.08313,7.183985 1.046171,7.202265 1.043599,7.203187 0.995371,7.207997 0.975623,7.202754 0.964291,7.201444 0.945714,7.191376 0.937007,7.185199 0.870063,7.168026 0.858564,7.164967 0.858489,7.164927 0.854647,7.161954 0.798135,7.123158 0.788202,7.096573 0.763967,7.052722 0.752477,7.026979 0.719637,6.94684 0.707116,6.843633 0.698763,6.791127 0.698038,6.755227 0.699672,6.715703 0.702508,6.68539 0.703364,6.670429 0.709427,6.642713 0.697056,6.606441 0.696834,6.603405 0.676056,6.538482 0.674103,6.508066 0.677269,6.459716 0.645125,6.277105 0.627251,6.216567 0.607755,6.190078 0.602767,6.165381 0.594089,6.103064 0.594112,6.07677 0.5977,6.049136 0.573384,5.882485 0.578094,5.843725 0.570346,5.770885 0.547098,5.717766 0.54593,5.70627 0.544605,5.700063 0.543727,5.688393 0.532582,5.523149 0.53366,5.446841 0.539867,5.429452 0.528826,5.356777 0.522914,5.337798 0.506103,5.27455 0.501434,5.265072 0.502846,5.214965 0.492035,5.196292 0.472263,5.124582 0.447306,5.015329 0.442271,4.972448 0.422087,4.941629 0.414292,4.913175 0.411742,4.854438 0.423154,4.824821 0.415832,4.694551 0.427681,4.662943 0.43523,4.617191 0.439078,4.599332 0.446979,4.577517 0.463134,4.541948 0.47081,4.528157 0.471119,4.46934 0.466909,4.387307 0.467057,4.379655 0.465591,4.367926 0.424269,4.242051 0.424853,4.17078 0.408672,4.095541 0.414397,4.067948 0.421607,3.970451 0.457765,3.910967 0.459743,3.858572 0.47118,3.783657 0.484083,3.732635 0.491379,3.720448 0.49045,3.683807 0.511122,3.591772 0.531488,3.563838 0.538729,3.507278 0.539248,3.49154 0.533111,3.478898 0.528382,3.455857 0.53064,3.407269 0.557212,3.217074 0.578179,3.070369 0.573482,3.028095 0.597829,2.86248 0.594977,2.820029 0.61488,2.714524 0.624874,2.703171 0.642811,2.641922 0.65545,2.602735 0.673901,2.514825 0.680882,2.469297 0.696959,2.313844 0.697778,2.303729 0.702374,2.283591 0.707829,2.261948 0.701809,2.230877 0.702517,2.216913 0.700856,2.18585 0.698586,2.163837 0.698118,2.158221 0.697859,2.148819 0.700087,2.127784 0.704955,2.101372 0.721065,1.960497 0.736859,1.910077 0.746706,1.887908 0.774633,1.821041 0.777617,1.816246 0.786848,1.801307 0.799991,1.786684 0.852393,1.751508 0.86442,1.744441 0.873651,1.743542 0.934648,1.726811 0.948987,1.717273 0.964289,1.710174 0.984105,1.706613 0.998229,1.70294 1.030528,1.705715 1.053025,1.710853 1.082688,1.728162 1.114245,1.729608 1.122891,1.728614 1.123666,1.728947 1.183006,1.72744 1.197521,1.732385 1.234358,1.717594 1.283323,1.698176 1.305794,1.676422 1.364357,1.644361 1.386717,1.641522 1.472018,1.596031 1.505216,1.57751 1.523307,1.572109 1.599439,1.526061 1.60839,1.51453 1.681822,1.46314 1.700073,1.451076 1.720229,1.439039 1.740304,1.437381 1.751665,1.429391 1.819706,1.418832 1.930007,1.397633 1.945799,1.390053 2.019235,1.369689 2.072939,1.359466 2.094124,1.362354 2.119043,1.360881 2.145389,1.366505 2.187338,1.379285 2.197653,1.380145 2.211418,1.391405 2.261752,1.396208 2.274791,1.40349 2.293856,1.414716 2.374516,1.420031 2.402616,1.454546 2.514221,1.457897 2.531339,1.463844 2.598001,1.445227 2.617287,1.440034 2.655393,1.428184 2.684925,1.423582 2.770373,1.402016 2.796414,1.382384 2.808277,1.369115 2.865716,1.345598 2.95514,1.325106 3.047304,1.304887 3.078953,1.306339 3.129595,1.242384 3.179263,1.204127 3.199683,1.190588 3.203452,1.186691 3.223392,1.181358 3.332033,1.149965 3.349533,1.159216 3.384792,1.146744 3.398157,1.143595 3.427267,1.132481 3.460994,1.110752 3.48236,1.08333 3.494881,1.072177 3.549028,1.042082 3.604439,1.015649 3.643271,1.007458 3.700649,0.976301 3.734142,0.964593 3.79794,0.931321 3.878652,0.888291 3.89081,0.879166 4.013213,0.777589 4.020662,0.771938 4.028355,0.768229 4.036048,0.763338 4.068724,0.758027 4.130596,0.759919 4.212349,0.726924 4.218079,0.724251 4.253734,0.71301 4.317935,0.703461 4.334324,0.703417 4.345525,0.697168 4.372136,0.691004 4.488612,0.683523 4.528002,0.683048 4.575609,0.662961 4.646961,0.641802" style="fill: white" /><polygon type="hole" points="4.510155,2.820009 4.379428,2.894347 4.32293,2.915142 4.302024,2.928745 4.276419,2.954433 4.169447,3.085704 4.120567,3.151419 4.053833,3.285609 4.034924,3.333142 3.983214,3.522312 3.980414,3.532137 3.978858,3.539012 3.973473,3.575645 3.927083,3.807733 3.923923,3.895727 3.941688,3.957496 3.946748,4.006028 3.862938,4.189095 3.84865,4.243182 3.842487,4.30634 3.840084,4.477828 3.840545,4.652778 3.852362,4.675034 3.947329,4.960698 3.948405,5.010652 3.935103,5.053782 3.953076,5.149666 3.949618,5.179901 3.945236,5.197922 3.947052,5.239409 4.013186,5.508163 4.042084,5.587012 4.080453,5.692348 4.113638,5.757094 4.202885,5.887124 4.228342,5.914716 4.310871,5.987429 4.38405,6.040531 4.488059,6.077219 4.526305,6.0872 4.853709,6.121087 5.193449,6.071549 5.29815,6.012107 5.336472,5.99725 5.419759,5.9466 5.565276,5.914817 5.618622,5.890593 5.681986,5.846895 5.697305,5.834472 5.845107,5.775067 5.850563,5.770187 5.852822,5.769412 5.863522,5.76393 5.887755,5.753325 6.210806,5.568509 6.270777,5.526751 6.381077,5.408732 6.485814,5.271642 6.511452,5.240896 6.532263,5.208026 6.537532,5.195101 6.613626,5.084185 6.622216,5.064629 6.626349,5.054939 6.638899,5.021029 6.672714,4.867952 6.69987,4.770236 6.698327,4.745142 6.699272,4.716294 6.713438,4.51503 6.714831,4.31079 6.716694,4.196039 6.647399,3.921167 6.640544,3.898235 6.637083,3.889851 6.634051,3.882082 6.589383,3.785899 6.570627,3.749088 6.519236,3.670552 6.453088,3.579118 6.340006,3.458559 6.29087,3.397852 6.251386,3.367842 6.169792,3.312395 6.035017,3.26939 5.954016,3.220853 5.859471,3.147825 5.827468,3.126895 5.696965,3.072436 5.667086,3.0485 5.515302,2.985638 5.440086,2.970988 5.40353,2.957344 5.351375,2.921927 5.340155,2.916005 5.180856,2.841743 5.155827,2.836131 5.129603,2.828786 4.861401,2.790811" style="fill: black" />
</svg>
