<svg width="13.600213" height="8.910821">
<polygon type="contour" points="4.02951,1.465794 4.058336,1.475111 4.102558,1.483726 4.113042,1.49091 4.140989,1.496939 4.1539,1.492112 4.15905,1.492861 4.160392,1.493138 4.164592,1.494071 4.245041,1.517551 4.254205,1.529005 4.342418,1.559594 4.350087,1.561085 4.402557,1.563389 4.414609,1.566285 4.428698,1.568431 4.45043,1.570434 4.506905,1.581431 4.509777,1.582323 4.511629,1.584337 4.51461,1.591562 4.545947,1.61356 4.591165,1.626647 4.606149,1.61865 4.621231,1.616913 4.638891,1.621859 4.658717,1.609316 4.680313,1.610863 4.686005,1.611068 4.705105,1.614263 4.723426,1.61024 4.738448,1.618718 4.750032,1.617752 4.758507,1.623942 4.770567,1.630887 4.791179,1.645368 4.809232,1.642549 4.810534,1.643902 4.840444,1.647433 4.851345,1.648219 4.851436,1.648236 4.866119,1.650856 4.881377,1.660457 4.907877,1.656099 4.916344,1.658088 4.928551,1.675008 4.947783,1.675112 4.961861,1.683942 5.008699,1.692007 5.044087,1.701598 5.053376,1.698705 5.101442,1.707224 5.193509,1.717493 5.352719,1.752375 5.356384,1.754017 5.373522,1.755696 5.386886,1.757563 5.398943,1.763894 5.413196,1.766288 5.454615,1.764152 5.543098,1.790285 5.672776,1.814092 5.678509,1.815312 5.70471,1.82429 5.709172,1.827353 5.730117,1.836785 5.737816,1.834566 5.752251,1.845358 5.812358,1.855659 5.823705,1.857798 5.844643,1.863473 5.854762,1.866477 5.895321,1.876503 5.908353,1.893771 5.953648,1.877342 6.005966,1.88981 6.063828,1.904401 6.130163,1.928904 6.135301,1.932957 6.16458,1.95026 6.167843,1.950933 6.180195,1.95855 6.221492,1.980512 6.231867,1.982825 6.252353,1.988664 6.266918,1.987255 6.281173,1.985201 6.28423,1.985518 6.38159,2.006474 6.388106,2.0083 6.401629,2.013984 6.404959,2.015386 6.435728,2.031975 6.435838,2.03198 6.448915,2.03955 6.500065,2.070841 6.514659,2.078451 6.515819,2.079781 6.534291,2.093217 6.534918,2.094158 6.543289,2.119739 6.560669,2.122013 6.566757,2.128268 6.61553,2.139268 6.636009,2.143077 6.650042,2.14383 6.655835,2.144231 6.667202,2.147461 6.687266,2.155837 6.790192,2.204186 6.893355,2.2377 6.900841,2.243165 6.930907,2.256031 6.984242,2.276381 7.015271,2.273345 7.053425,2.277126 7.056384,2.277078 7.05818,2.277115 7.080574,2.277844 7.093042,2.277624 7.094507,2.277388 7.095146,2.277702 7.24084,2.295037 7.274312,2.295226 7.319097,2.303245 7.344488,2.308848 7.363646,2.31585 7.368854,2.321051 7.396646,2.338575 7.413259,2.350149 7.460345,2.366599 7.47617,2.372666 7.501845,2.37091 7.510617,2.370937 7.527219,2.380306 7.635677,2.442767 7.660906,2.454512 7.721426,2.492866 7.723401,2.497998 7.745465,2.543948 7.780798,2.551753 7.85095,2.602849 7.861541,2.609763 7.873273,2.619041 7.973959,2.667033 8.061698,2.691249 8.084684,2.694851 8.10603,2.69118 8.185715,2.69541 8.256558,2.707617 8.283061,2.698306 8.308289,2.693661 8.327154,2.692886 8.355086,2.694462 8.399739,2.695488 8.444437,2.703497 8.507078,2.708365 8.624557,2.741857 8.654581,2.760469 8.723037,2.791984 8.733178,2.798855 8.77835,2.815653 8.79554,2.828714 8.831603,2.841142 8.904859,2.873809 8.917621,2.881308 8.938469,2.900688 8.952177,2.907172 8.974627,2.924533 9.000463,2.928681 9.018677,2.939487 9.094351,2.995137 9.122754,3.014077 9.165265,3.041195 9.167856,3.048746 9.19104,3.070184 9.268389,3.124493 9.321398,3.172033 9.329214,3.175991 9.377775,3.202634 9.379879,3.203991 9.408064,3.221433 9.534427,3.286045 9.572674,3.307155 9.650866,3.367977 9.707983,3.437761 9.824253,3.585503 9.845106,3.604487 9.854465,3.616191 9.859778,3.627644 9.875126,3.652037 9.883187,3.670484 9.885643,3.67307 9.884564,3.674365 9.89634,3.706448 9.910851,3.732586 9.956992,3.73904 10.00583,3.776815 10.074603,3.828935 10.084982,3.839542 10.183561,3.934841 10.190448,3.94042 10.227126,3.956898 10.229481,3.960065 10.23057,3.961389 10.269033,4.036646 10.294374,4.1085 10.310521,4.163881 10.306212,4.177868 10.286662,4.194522 10.291131,4.232287 10.293318,4.273587 10.294204,4.280267 10.296024,4.302989 10.288694,4.334329 10.287371,4.356612 10.31505,4.397723 10.32104,4.410926 10.319478,4.45581 10.321629,4.503765 10.322162,4.512154 10.296282,4.533511 10.285629,4.564995 10.299489,4.598798 10.295052,4.623937 10.295641,4.629766 10.293316,4.635437 10.286918,4.718253 10.307525,4.735309 10.307716,4.736261 10.311647,4.754991 10.30353,4.78 10.272062,4.852436 10.252399,4.89326 10.228189,4.952139 10.225802,4.955439 10.214856,4.960772 10.190547,4.971014 10.114699,5.031868 10.082978,5.063237 10.077734,5.0699 10.033463,5.115374 10.022506,5.126062 9.957237,5.17256 9.907495,5.154233 9.852856,5.290786 9.830266,5.317763 9.651943,5.538226 9.650228,5.539759 9.619342,5.561144 9.568513,5.592351 9.449253,5.652893 9.375822,5.706432 9.322059,5.743119 9.257912,5.801912 9.255031,5.803079 9.219061,5.814509 9.188995,5.842812 9.118818,5.901106 9.026355,5.970614 8.925782,6.017156 8.924179,6.018045 8.920664,6.019226 8.798689,6.086415 8.761476,6.103668 8.680861,6.142657 8.633272,6.167834 8.61801,6.173981 8.584302,6.179783 8.412988,6.213383 8.372075,6.212377 8.330599,6.219074 8.308017,6.218088 8.285592,6.21682 8.25122,6.208669 8.18466,6.216093 8.133518,6.214357 7.961243,6.247681 7.907131,6.270532 7.783013,6.356777 7.759347,6.357648 7.734009,6.40615 7.72274,6.418433 7.719234,6.423926 7.704494,6.434174 7.658666,6.457779 7.626743,6.478809 7.536349,6.529818 7.502114,6.540811 7.474492,6.539272 7.431016,6.555711 7.394288,6.567717 7.383724,6.580438 7.367428,6.594673 7.351264,6.600678 7.326135,6.60459 7.317623,6.60627 7.203242,6.621338 7.08203,6.633253 7.080123,6.633861 7.07761,6.634021 7.023648,6.637575 7.004838,6.639685 6.977243,6.638381 6.963381,6.644914 6.949698,6.652461 6.863656,6.680194 6.759892,6.726922 6.748053,6.730125 6.708116,6.738486 6.641312,6.759973 6.542912,6.79415 6.538464,6.809964 6.511358,6.834911 6.510164,6.835594 6.477086,6.859185 6.468339,6.865742 6.465288,6.866859 6.373345,6.906116 6.339632,6.905904 6.313541,6.914461 6.295567,6.921986 6.28761,6.924716 6.223706,6.942987 6.165349,6.960818 6.125871,6.984216 6.107707,6.99291 6.064073,7.007297 6.015233,7.019466 5.953413,7.034381 5.910784,7.017667 5.887762,7.036722 5.758203,7.064787 5.754528,7.065634 5.747434,7.067641 5.730119,7.074818 5.71494,7.083496 5.710215,7.085648 5.698664,7.087858 5.683471,7.095876 5.633875,7.115924 5.41118,7.145831 5.401398,7.147287 5.181938,7.181672 5.177654,7.182471 4.982576,7.217304 4.972069,7.220836 4.916227,7.251189 4.905182,7.253902 4.890628,7.25695 4.817176,7.266969 4.813118,7.266353 4.791565,7.267682 4.766886,7.288021 4.752292,7.290442 4.738782,7.299371 4.731942,7.299927 4.707107,7.296765 4.694196,7.298744 4.669025,7.302016 4.664327,7.302458 4.640701,7.285099 4.613863,7.290152 4.599833,7.285621 4.572992,7.290614 4.556856,7.290108 4.517481,7.323924 4.513111,7.323703 4.505897,7.330774 4.458953,7.336865 4.40726,7.34166 4.34712,7.353422 4.266098,7.377111 4.260676,7.384517 4.250977,7.38914 4.213052,7.4062 4.153463,7.416778 4.122526,7.414142 4.095995,7.421055 4.055156,7.43764 4.02958,7.443732 3.993639,7.448245 3.954748,7.428636 3.882671,7.380074 3.876303,7.368357 3.83671,7.347405 3.784409,7.333012 3.770691,7.326496 3.763933,7.320421 3.750454,7.315029 3.726615,7.303716 3.670776,7.261131 3.647203,7.23988 3.633247,7.230802 3.630339,7.22853 3.61717,7.206902 3.611106,7.206126 3.610911,7.194184 3.553765,7.192544 3.540504,7.189304 3.526929,7.192565 3.51997,7.191871 3.463552,7.186244 3.454855,7.181765 3.449509,7.177036 3.446738,7.166444 3.427295,7.131694 3.393795,7.107894 3.391755,7.10689 3.38685,7.099462 3.373877,7.089049 3.337366,7.072795 3.295584,7.057724 3.224856,7.055862 3.165044,7.057154 3.139581,7.059384 3.103226,7.055644 3.0724,7.065579 3.024667,7.085202 3.003279,7.1124 2.967013,7.140426 2.965722,7.141689 2.949112,7.144743 2.840658,7.158301 2.773427,7.167052 2.749745,7.196073 2.696657,7.20287 2.698898,7.17492 2.67963,7.163101 2.678402,7.153087 2.632953,7.11883 2.62224,7.111782 2.616481,7.107248 2.580021,7.054432 2.53511,7.017292 2.527491,7.013821 2.501167,6.997711 2.465033,6.976578 2.412929,6.968825 2.133808,6.904555 2.113517,6.900533 2.10787,6.898212 2.104591,6.897612 2.034585,6.859754 2.009888,6.89092 2.002739,6.897088 1.975302,6.905596 1.895795,6.876507 1.870972,6.870424 1.84337,6.861841 1.83467,6.854588 1.820806,6.84982 1.773414,6.817824 1.706691,6.77103 1.618431,6.715299 1.615453,6.716798 1.588927,6.700919 1.524322,6.687243 1.385558,6.611647 1.384147,6.610934 1.356852,6.563167 1.352269,6.560724 1.344249,6.541228 1.336061,6.533986 1.325364,6.520377 1.309299,6.498504 1.267008,6.430987 1.183425,6.414499 1.154263,6.399732 1.137805,6.400306 1.077658,6.360912 1.011948,6.304502 1.001297,6.295231 0.998482,6.291192 0.995083,6.281748 0.954747,6.197189 0.933105,6.144442 0.910712,6.087502 0.896857,5.98159 0.895314,5.96379 0.885252,5.946619 0.877538,5.929392 0.848864,5.919178 0.833775,5.914895 0.780903,5.80003 0.755363,5.71729 0.758451,5.710156 0.778089,5.641976 0.780707,5.496563 0.775959,5.27513 0.717604,5.249449 0.713725,5.215811 0.735933,5.191522 0.682751,5.119742 0.668545,5.039143 0.678712,4.875879 0.69471,4.778572 0.714396,4.761519 0.729851,4.745081 0.773401,4.673352 0.780347,4.658977 0.800532,4.646373 0.809654,4.275126 0.797787,4.258153 0.713786,4.147328 0.678108,4.105536 0.674749,4.079663 0.652413,3.924096 0.655095,3.905483 0.713756,3.754412 0.728295,3.727835 0.705929,3.674153 0.704819,3.663187 0.708392,3.638889 0.783393,3.439147 0.782983,3.390016 0.779391,3.380674 0.778019,3.372701 0.772995,3.364677 0.78702,3.146098 0.787633,3.140773 0.799442,3.101412 0.795748,3.090324 0.800011,3.049305 0.819787,3.010301 0.829753,2.99685 0.887045,2.977992 0.898475,2.927963 0.900113,2.890619 0.909049,2.80862 0.937575,2.738945 0.947689,2.724759 0.956084,2.707101 0.972908,2.668042 0.980125,2.656052 1.000477,2.61884 1.00441,2.614177 1.012895,2.607364 1.034092,2.593466 1.147461,2.50975 1.174816,2.498543 1.190551,2.496629 1.272578,2.472004 1.325993,2.388985 1.328291,2.385195 1.349517,2.368123 1.355635,2.350321 1.362759,2.334911 1.382853,2.312071 1.468213,2.258939 1.524986,2.224314 1.534483,2.210196 1.610645,2.193663 1.645195,2.194601 1.658636,2.176498 1.673324,2.167138 1.784042,2.088598 1.8108,2.07114 1.825407,2.065838 1.835236,2.057562 1.94917,2.027826 1.983891,2.011869 1.998937,2.015284 2.037106,2.051139 2.075469,2.027926 2.127287,2.008755 2.167889,1.993021 2.294419,1.968761 2.334775,1.961689 2.337926,1.961026 2.466717,1.935814 2.581937,1.854451 2.602999,1.817071 2.662131,1.769936 2.662886,1.769576 2.696788,1.747864 2.696082,1.733725 2.709037,1.728967 2.713088,1.70421 2.752988,1.710408 2.75341,1.741293 2.79351,1.744591 2.838539,1.760485 2.884237,1.758635 2.902723,1.756632 2.911732,1.754671 2.961439,1.761165 3.027027,1.838313 3.05335,1.846575 3.070588,1.850383 3.089462,1.855712 3.104755,1.858495 3.139209,1.853312 3.197169,1.855766 3.212177,1.856544 3.293691,1.853954 3.348756,1.833808 3.382206,1.8185 3.391098,1.804944 3.396615,1.801898 3.427403,1.779344 3.444487,1.748821 3.450766,1.733818 3.455199,1.729514 3.461433,1.725721 3.506336,1.721918 3.547929,1.719649 3.553776,1.719072 3.610897,1.716407 3.611091,1.704759 3.617378,1.704356 3.630337,1.683091 3.632328,1.681359 3.672364,1.648313 3.696482,1.626055 3.708662,1.614951 3.729409,1.603241 3.742441,1.599778 3.755688,1.594657 3.761037,1.589847 3.796643,1.578469 3.835862,1.564119 3.86885,1.546102 3.87335,1.537156 3.979221,1.464554 3.979765,1.464276 3.983162,1.462935 4.010193,1.457031" style="fill: white" /><polygon type="hole" points="6.112898,3.115206 5.994729,3.121625 5.957812,3.127478 5.798993,3.188005 5.647461,3.256679 5.59523,3.28384 5.506295,3.375231 5.455191,3.424429 5.370438,3.56007 5.345354,3.612108 5.339708,3.640686 5.2868,3.852955 5.282401,3.870601 5.28032,3.8854 5.280033,3.940874 5.283531,4.275001 5.288651,4.621801 5.290303,4.635312 5.292611,4.719134 5.289493,4.750546 5.292424,4.812996 5.29474,4.862388 5.297362,4.883321 5.310293,4.986551 5.316219,5.03386 5.317498,5.04911 5.327769,5.171617 5.342733,5.22973 5.37794,5.323842 5.408585,5.390685 5.433262,5.420938 5.533358,5.556916 5.677239,5.666823 5.69184,5.676504 5.711635,5.684893 5.938116,5.759278 6.238695,5.792816 6.245942,5.792523 6.379662,5.771094 6.553108,5.703964 6.731325,5.549997 6.851591,5.440443 6.93615,5.352277 7.069866,5.187434 7.096167,5.148781 7.124963,5.095805 7.161405,4.996159 7.173049,4.924667 7.202524,4.727582 7.187486,4.433893 7.187332,4.315015 7.212056,4.187043 7.214357,4.114679 7.220257,4.099585 7.217627,4.065291 7.215342,4.041272 7.212976,4.038874 7.213068,4.036932 7.184879,4.001838 7.178529,3.999788 7.17345,3.947469 7.179037,3.92691 7.172463,3.886842 7.152763,3.827259 7.105859,3.727341 7.078782,3.689154 6.907525,3.482871 6.847723,3.43727 6.778244,3.376187 6.734657,3.321009 6.562197,3.2 6.517943,3.174414 6.404224,3.125082 6.271541,3.106982" style="fill: black" />
</svg>
